<svg xmlns="http://www.w3.org/2000/svg" xmlns:xlink="http://www.w3.org/1999/xlink" width="312.7" height="374" viewBox="0 0 234.5 280.5"><defs><style>*{stroke-linejoin:round;stroke-linecap:butt}</style></defs><g id="figure_1"><path id="patch_1" fill="none" d="M0 280.5h234.5V0H0z"/><g id="axes_1"><g id="PatchCollection_1"><defs><path id="m9f48bc97f8" stroke="#0c1321" d="M146-259.1h4.7l.8-.1 2.4-.4h1.2l.4.3.3.3.3.6.3.8v.6l.1.7v.7l-.2.3-.4 1-1 1.9-.4 1-.3 1-.1 1.1v1l.3 2.3v4l.1.8.3 1 .4.8.6.9.7.7.7.7 1 .8 3.3 2.6 1.2 1 1.2 1.1 1 1 1.6 1.6.7.7.4.6.2.2v.3l.6.8.7.9 1 1 1.1 1 1.3 1.1 1.6 1.2 1.8 1 1.9 1 1.7.7 1.7.6 1.8.5 2 .4 2 .4 1.9.3 3.2.4 3 .3 4.6.3 1.9.2 1.5.2 1.4.3.9.3.8.3.8.3.6.5.8.7.5.7.5 1 .3.7.3 1 .3 1.1.8 4.8.6 2.4.4 1.5.7 2.3 2.8 7.8.6 2 .4 1.3.2 1 .2 1.2.2 1.5v1.9l-.2.7-.6 1-1 .9-1.1.8-2.6 1.6-1.3.8-1.3 1-1 1-.8 1-3 5.4-.7 1.3-.4 1.1-.4 1.1-.3 1-.2.8-.3 1.1-.1 1.2-.1 1v6.4l-.2.4-.2.1h-.2l-.3-.1-.8-.3-1-.7-.6-.2-.5-.1h-.5l-.8.1-.8.4-.8.5-.7.7-.3.5-.3.5-.4 1-.2 1.1v.7l.1 1.2.3 1 .3 1.2.7 1.5.6 1 .5.8 2.6 4 .7 1.1.5 1 .4.8.4 1.1.5 1.7.2 1 .2.6.1.8.1 1.4v.7l-.1 3.7v4.8l.2 1 .1 1.3.2 1 .2.9.2.8.2.3h-.4l-1.8-.3-.7-.2-1.4-.5-.4-.1h-1.1l-2.3.7.2.1v.6l-.1 1.2-.3 1.1-.5 2.2-.6 1.8-1.4 4.3-.3 1-.3 1.2-.2 1.2-.1.8v.8l.1 1 .4.9.3.4.5.5.6.4h.2l.8.4.9.2h6.7l.7.3.3.3.2.4v.5l-.2.7-.3.4-.7.6-1.6 1.3-.6.6-.6.6-1 1.1-.7 1.2-.5 1.4-.3 1.4v3l.2 1 .5 1.6.6 1.6 1.6 4 1.8 4.7 2.1 5.4.8 2.2.3 1.1.2 1.1.2 1v1.8l-.2.7-.1.5-.5 1-.5.8-.4.5-.4.4-.8.8-.8.6-1.3.8-.9.5-.8.4-1.5.7-1.1.4-1.6.4-1 .3-.8.1H189l-1.1.1-1 .2-1.2.4-.8.3-.9.5-.8.6-2.8 2.1-1.2.8-1.3.8-.8.3-1 .5-1 .4-1 .3-.8.2-1.5.4-4.4.9-5.7 1-2 .4-1.4.4-1.5.5-.8.3-1.5.6-4.8 2.3-1.7.7-1.6.6-1 .2-.9.3-2.5.5-1 .3-3.5.9-4 .8-1.3.3-1 .4-.5.3-.3.3-1-.4h-.7l-1.3-.3-1.9-.1h-3.1l-.6.2-1 .2-1 .3-2.3.9-.7.2-.9.2h-.4l-1 .1-2.4-.2h-1.7l-.7.1-.4.2-.8.3-.9.4-2.3 1.4-1 .5-1 .4-.7.2h-.4l-.5.1h-.3l-.4-.1-.7-.2-2.8-1.3-1-.3h-1.2l-.5-.4-1.4-1-1.3-.9-2.3-1.4-1.2-.6-1.8-.9-5-2.2-.8-.4-.6-.3-.8-.5-.6-.6-.8-.7-1.4-1.4-.8-.8-.7-.5-.4-.2-.5-.2-.4-.1h-1.5l-1 .2-.8.3-.9.4-.8.4-.7.5-1.3.8-1.4 1.2-4.4 3.5-.7.5-.8.5-1.1.8-.8.3-.9.3-.6.1h-.7l-.7-.3-.4-.3-.6-.6-.5-.7-.6-.9-.6-1.4-.4-1-.4-1.5-1-3.7-.3-1.4-.5-1.6-.8-1.8-1-2-.6-1-1.7-3-.6-1-.8-1.7-.5-1.4-.4-1.4-.4-1.6v-2.9l.7-3.7.2-1.2v-3.7l-.2-.3-.2-.3-.2-.1-.3.1-.4.5-.2.6-3.2-6-2.2-3.6-3.7-6L32-81l-.5-.8-.6-.7-1-1.1-.8-.8-1-.8-.9-.7-1.3-1-3.9-2.5-.7-.6-.7-.6-.5-.4-.4-.5-.7-1.1-.2-.5-.4-.8-.6-1.5-.2-.8-.1-.7-.1-.6-.1-.9v-1.2l.1-1.5.3-1.4.5-1.8 2-6.7.4-1.2.4-1 .4-.9.4-.5.4-.5.3-.3.5-.4.8-.4 1-.4h.4v-.1l.4-.2h.5l.7-.1h1l1 .3 1 .2 1.4.4 3.7 1.3 5 1.6 1.3.5 1.6.7 4.4 2 2.9 1.3 1.4.7 1 .5 3.2 2 1.8 1 1.3.7 1.1.5.7.3 1.1.3 1.5.3 1.5.2H66l1.2-.2.8-.2.7-.4.4-.3.4-.4.4-.5.3-.4.3-.5.4-1.1.2-.7.3-1 1.4-6.2.5-2 .4-1.3.4-1 .4-1 .5-.9.5-.6.4-.6.7-.6 1-.9.9-.5.8-.4 1.1-.5 2.2-.8 4.2-1.3 3.5-1.1 3.3-1 1-.4 1.8-.7 1-.5 1.8-1 1.6-.8 1-.6.3-.3.5-.4.3-.4.2-.2-.1-.3h-.1l-.2-.2-.1-.5-.3-.7-.2-1-.6-3-.3-1-.4-1.4-.6-1.3-.6-1.1-.4-.5-.5-.6-.6-.6-.5-.4-.8-.5-1-.6-.7-.4-1-.5-1.2-.5-1.3-.5-1.7-.6-1.2-.4-.9-.4-.7-.5-.8-.7-.6-.7-.3-.5-.4-.8v-.3l-.2-.6v-.4l-.1-1.1v-.8l.2-.8.2-1 .3-.8.3-.7.6-1.5.7-1.2.7-1.2.7-1 .9-1.2 2.6-3.4 1.3-1.7.6-1 .4-.6.3-.7.5-1.2.5-1.4.4-1.3.4-1.2.2-1.3.3-1.4.2-1.2.2-1.2v-3.6l.2-1.3.4-1.4.5-1.4.3-.8.5-.9.6-1.1.7-1.1 1-1.4 2.8-4 .7-1 .6-1 .6-1 .6-1.4.4-1.4v-1.1l-.2-1.2-.4-1.2-1.8-5.3-.9-2.6-.4-1.2-1.6-3.7-.9-2.4-.4-1.2-1.2-4.6-.3-1-.5-1.5-.2-.6-.9-1.7-1-1.7-.9-1.3-.7-.8-.7-.8-2-2-.6-.7-.5-.7-.2-.4v-.4l.3-.2.6-.4.5-.5 1.3-1.2.8-.7 1.5-1.8 3.5-4.7 1.2-1.4.8-.8.6-.5.6-.3.5-.2.4-.1h.4l.8.1.4.2.6.3 1.6 1 3.4 2.1 2.3 1.5 2.9 1.8 2.6 1.7.6.3.7.2.6.1h1.4l.8-.3.8-.3.7-.4.8-.4 1.4-1 1.8-1.3.6-.5 1-1 1.3-1.3 1.7-2 2.7-3.3.5-.5.1-.1.2.3.6.3.5.2 1.4.2 2.8.3 2.4.5 1.2.2h1"/></defs><g clip-path="url(#pfb08a1e92e)"><use xlink:href="#m9f48bc97f8" y="280.5" fill="#0c1321" stroke="#0c1321"/></g></g></g></g><defs><clipPath id="pfb08a1e92e"><path d="M7.2 7.2h220.1v266.1H7.2z"/></clipPath></defs></svg>