<svg xmlns="http://www.w3.org/2000/svg" xmlns:xlink="http://www.w3.org/1999/xlink" width="495.4" height="298.7" viewBox="0 0 371.5 224"><defs><style>*{stroke-linejoin:round;stroke-linecap:butt}</style></defs><g id="figure_1"><path id="patch_1" fill="none" d="M0 224h371.5V0H0z"/><g id="axes_1"><g id="PatchCollection_1"><defs><path id="m96d37db62e" stroke="#0c1321" d="M133-196.1v1.6l.2 1.4.2.7.7 1.3.9 1.3 2 2.5 2.5 3.5 1.6 2 1 1 1 1 1.3 1 2.4 1.8 2.6 2 1 .7 1 .6 1.6 1 2.8 1.3 2.5 1 3.5 1.5 3 1.1 2.2.7 1.5.4 1.6.4 1.3.3 4.2.8 1.2.2 1.5.4 2.8 1 1.4.5 1 .2 1 .2 2 .3h3.1l2.2-.1h2l1 .4.8.2.8.4 1.2.7 2.3 2 1.1.8.5.2.6.4.5.2.5.1h.2v-.3l.4-.9.8-1.8 1-2 1.2-2.3 1.2-2 .9-1.4 1.3-2 1-1 .8-1 .7-.7.8-.6.5-.4.7-.4.4-.3 1-.3.8-.3h1.6l.9.2.8.2 1.1.5 1.1.6 2.4 1.3 4.6 3 2.2 1.3 1.8 1 4.3 2.4 1.8 1 1.9 1.3 1.2.8 4.7 3.2 11.6 8.2 1.1 1h.2l.5.5 1 1.1.8 1 .9 1.2.4.7.3.7.3.7v1.8l-.4.7-.2.3-.6.6-2.1 1.4-.7.6-.5.5-.3.4-.5.9-.4.8-.1.6-.2.8v1.4l.1.4.2.5.2.4.3.5.4.6.7.6.5.4 1.4.9 1.2.7 1.6.8 1.2.5 5.5 2.3 3.3 1.5 1.4.7 1 .6.8.5.7.6.4.5.5.5.4.7.4.8.4.7.3 1 .8 2.8.6 1.6.5 1.2.8 1.4.9 1.3 1 1.3.5.4 1 .7.7.5 1.2.7 1.3.6 1.1.4.9.2.8.2h.9l1 .1h1.1l2.7-.1h1l5.1-.8 1.5-.2 1.5-.4 1.5-.4 1.2-.5 1-.5.9-.5.9-.6.8-.6 2.6-2 1.5-1 1.5-.8.7-.4 1.5-.7 1.3-.5 1.3-.4 2.3-.6 1-.1 1-.1h1.7l1.2.3 1.6.4 1.5.6 1.2.6 1 .6 1.4.9 1 .8 1.1.9 1 1 .7.7 1.2 1.5 1 1.6 1 1.5.6 1.4.2.3v.2l.5 1.5.4 1.9.3 1.5.3 1.8v5.3l-.3 2-.3 1.3-.5 2-.3 1-.7 1.8-.7 1.6-1 2.2-1.3 2.5-1 1.6-1.1 1.7-.7 1-.9 1.1-.6.8-1 .9-1 1-1.3 1-1 .7-2.3 1.5-1.3.7-1.2.7-2.3 1-4.4 1.7-1.8.8-.7.3-.6.4-.3.2-.1.2-.1.2-.5.4-.6.5-.8.5-.9.5-1.2.7-1.2.5-1.3.6-1.3.4-1 .4-1.2.3-1.1.2-1.7.3-1.9.2h-5.4l-1.4-.2-1.2-.2-1.9-.4-1.8-.7-2.5-1.2-1.5-.7-1.3-.8-.8-.5-.5-.4-.6-.5-.5-.7-.3-.6-.2-.6-.4-1-.2-1.5-.1-1.4v-.8l.1-1.2.5-2.4v-.6l.1-1.6-.1-1.2-.5-1.1-.6-1.1-.6-.7-.8-.8-1.5-1.5-2-1.9-1-1-2.4-1.7-3.5-2.6-1.2-.8-1.2-.8-1.3-.7-1-.3-1.6-.4-1.5-.2H262l-1.4.3-7.4 1.5-1.5.4-1 .3-1 .4-1.4.6-1 .4-3.2 1.7-2.9 1.3-1.2.5-1.6.6-1.1.4-1.1.3-1.4.3-1.4.3-1.3.1-1.2.2h-1l-1.8.1-4.1.1h-1l-.9.2-1 .2-1.3.3-1.1.4-1 .4-1.1.7-1 .9-.3.5-.2.1-.5 1.1-.3 1.1-.1.8-.2 1v1l.1 3.5v1l-.1 1-.3 1-.3.6-.2.4-.6 1-.8 1-2.5 3-1.8 1.9-1.2 1.2-1.4 1.1-1.6 1.3-1.8 1.2-1.9 1.1-2.7 1.6-5.6 3-.2.3-.6.6-1 .7-.8.7-1.8 1.2-3.8 2.2L181-35l-1.3.5-.8.3-.8.2-.7.1H176l-.8-.2-.7-.5-.7-.6-.6-.8-.6-.8-2.3-3.8-.6-.7-.5-.7-.7-.5-1.4-1-.8-.5-.8-.5-.8-.2-.7-.1-.8-.1h-1.9l-.5.2-.7.2-.7.3-1.2.6-1.8 1-1.4.9-1.5 1-.8.4-.8.5-1.2.6-1.2.5-2.5.9-2.3.6-1 .3-.6.3h-1.2l-1.5-.4-1.7-.6-.8-.5-.9-.6-1.2-1-2.6-2.2-3-2.7-2-1.8-1.1-.9-1-.8-1.6-1-.9-.5-.7-.3-.8-.3-.8-.1h-2l-.4.2-.4.2-1 .6-.4.5-.3.3-.5.8-.4 1-.3 1.2-.2.7-.1 1.3v2l.3 1.4.3 1.5.7 2.7.3 1.5.2.8v1.5l-.2.7-.2.8-.2.5-.3.5-.3.5-.3.3-.5.4-.5.4-1 .4L109-26l-3.5 1.3-1.4.5-1.6.4-1.6.3-1.6.2-5.4.4-2.8.3-2.8.5-1.2.2-1.3.4-1.5.5-.8.3-1.6.8-1.4.9-2 1.4-.7.4-.5.2-.7.2h-1.8l-.4-.2-.4-.1-.4-.3-1-.8-1.3-1.2-1.7-1.6-.6-.6-1.3-1.4-.6-.6-4.3-3.8-.7-.7-.6-.5-1.1-1.3-.7-1-1.3-1.9-.8-1-.6-.4-.5-.4-.7-.5-.7-.3-.6-.2h-.3l-.8-.1h-.6l-.4.1-.8.3-2.1.8-1.5.5-1.6.4-1.7.3-1.8.2-3.7.2-2 .1h-1.8l-2.2-.1-1.9-.3-.8-.2-.5-.1-.6-.3-.4-.2-.2-.2.2-.5 2.3-4.8 1.2-2.8.2-.8.4-1.2.2-1v-3l-.1-1-.2-1-.3-1.1-.4-1.2-1.2-3.7-.3-1.2-.2-1.3-.1-1.2.1-1 .3-1 .3-1 .9-2 1.6-3.3.4-1 .4-1 .7-3.1.1-.7v-1.1l-.4-.6-.5-.9-.6-.7-1.8-2.1-1-1.2-.6-.9-1.8-2.8-.7-1-.9-1-3.6-3.5v-.2l.2-.3.6-1 1-1.1.8-1 .9-.7.7-.6 3.2-2.3L32-98l1.6-1.3 1.9-1.8 2-2.2 2.9-3.2 6.8-7.3 1.4-1.5 1.7-2 1.6-2.2.9-1.3 1.4-2.3.8-1.2 1.5-2.7.8-1.4 3.6-6.7 1.5-2.7 1.4-2.2 1.6-2.5 1-1.2 1-1.3 1-1.2L70-148l2.6-2.8 1.6-1.8 1.5-1.9.7-1 3.7-5.4 1-1.4 1-1 2.5-2.8 1-1.1 1-1 1-1.3.6-.9 1.2-1.8 3.8-6.2 2.8-4.1 1.8-2.7 1-1.4 1.1-1.4 1.5-1.6 1-1 1.2-.8 1.2-.8.6-.3 1.6-.8 1.6-.6 1.6-.5 1.4-.4 1.4-.4.7-.2.8-.2 1-.2h1.9l2.8.2h3.6l1.4-.3.9-.2.9-.3.4-.2.4-.3.3-.3.6-.8.5-.7.4-1 .5-1 .6-1 .5-.8.5-.6.6-.6 1-.7.3-.4.7-.8 1-1.5h.2v.6l-.2.8-1.6 5.6-.4 1.8-.2 1-.2 1.3"/></defs><g clip-path="url(#pb80bbd69b1)"><use xlink:href="#m96d37db62e" y="224" fill="#0c1321" stroke="#0c1321"/></g></g></g></g><defs><clipPath id="pb80bbd69b1"><path d="M7.2 7.2h357.1v209.6H7.2z"/></clipPath></defs></svg>