<svg xmlns="http://www.w3.org/2000/svg" xmlns:xlink="http://www.w3.org/1999/xlink" width="308.5" height="374" viewBox="0 0 231.4 280.5"><defs><style>*{stroke-linejoin:round;stroke-linecap:butt}</style></defs><g id="figure_1"><path id="patch_1" fill="none" d="M0 280.5h231.4V0H0z"/><g id="axes_1"><g id="PatchCollection_1"><defs><path id="m25ff9d9901" stroke="#0c1321" d="m202.9-244.6 1 2 .8 1.3.8 1.5.8 1.5.7 1.7 4.5 11 1 2.6.6 1.6.4 1.3.2 1 .3 1 .2 1.7v.7l.1.8v2l-.2 1-.4 1.8-.2.9-.4 1-.3.9-1.3 3.1-.4 1.2-.3 1.8-.7 4.7-.4 2-.2 1-.3 1-.5.9-.5.7-.5.6-.6.4-.5.3-.7.3-.8.2h-1l-3 .1-3 .3-.9.2-.6.1-.4.2-1 .4-1 .6-.4.2-.7.7-1 .9-.8 1-.6 1-.2 1v1.6l.4.6.5.6.7.6 1.2.8 1.4.7 6.3 3 1.6 1 1.5.8.6.5 1.2 1.1 1.2 1.5.9 1.4.6 1.4.5 1.4 1.3 4 .4 1.2.4 1.6.2 1.4.2 1 .2 1.9v1.8l.1 1.9v3.7l-.2 1.8-.2 1.8-.2 1.8-.4 1.7-.6 1.6-.8 1.5-.8 1-1.1 1-1.1.6-1.5.7-1.3.5-1.5.4-1.3.3-1 .2-1 .2-.9.1h-.9l-1 .1h-1.2l-1.7-.2-.6-.1h-.1l.1.2.5.8 1.4 1.9 1.8 2.3 1.4 1.7.8 1 2.3 2.5 1.5 1.7.8 1 1 1.3.6.8.8 1.4.7 1.3.6 1.3.6 1.5.3 1 .3 1.2.2 1.3v1.6l-.2 1.5-.3 1.5-.5 1.4-.8 1.4-2.2 3.5-1.4 2.5-.7 1-.8 1.1-.8 1-2 2.3-.8 1-.4.7-.4.9-.7 1.8-.4.8-.8 1.3-1 1.1-.8.9-1.9 2-1 1.2-.8.9-.7 1.1-.7 1.1-1.6 3-.8 1.5-.5 1.1-.5 1.2-.4 1.3-.1.6-.2 1.4v1.9l.2.8.4 1 .5.5.6.7 3.6 3 1.2 1.1 1.4 1.4.7.9.6.7.7 1 .6 1.2.4.8.2.5.4 1.3.3 1.2.2 1.2.2 1.7.2 4.5.1 1.7.3 1.7.4 2 .4 1 .3.3-.4.2-.9.4-1.8.6-3 1-1.8.5-1.1.4-1.4.6-1.6.7-2 1-1.6.9-4.5 2.5-2.6 1.4-1.2.5-1.5.6-1.5.5-1.4.4-1 .2h-1.1l-1.1-.3-.7-.3-1-.5-2.5-1.8-.7-.4-.6-.3h-1.3l-.3.1-.4.2-.5.3-.5.4-1.5 1.2-.4.3-.8.5-.4.2-.7.3-.8.2-.7.1h-1.7l-.8-.2-.7-.2-.3-.1v-.1l-.3-.2h-.3l-.8-.5-.9-.7-1-.8-.6-.7-1-1.4-.6-.8-.5-.9-.6-1.3-1.4-3.7-.6-1.3-.6-1.3-.8-1.5-.9-1.5-.9-1.5-2.4-3.8-1.6-2.7-1-1.5-.8-1.7-2.3-4.7-1.5-2.6-1.6-2.6-2.5-3.7-1.6-2.5-1.9-3.3-.8-1.4-1-2-.5-.8-.7-1.6-.9-2.4-.6-2.1-.4-1.4-.2-.9-.2-1.2-.1-1.1-.1-1.1v-3l-.2-1.5-.3-1.5-.2-.8-.3-.7-.5-1-.4-.6-.7-.7-.7-.6-1-.5-1.2-.2-.7-.1h-2.6l-1.4.2-1.4.3-1.5.3-1.6.4-8.4 2.3-3 .8-1.6.3-1.5.3-2 .2h-2.1l-.8-.1-.5-.1-1-.3-.9-.5-1.1-.7-1-1-2.6-2.8-1.2-1.2-1.7-1.6L68-100l-1.7-1.3-1.2-.8-1-.7-.9-.5-.7-.3-.7-.3-.4-.1h-1l-1.2.1-.9.4-1 .7-.8.9-.5.6-.5.8-.6 1-.5 1-.5 1.2-.4 1.2-.3 1.2-.3 1-.3 1.5-.4 3-.3 1.4-.2 1-.6 1.7-.4 1-.5 1-.5.9-.8 1.3-1 1.5-.6.7-.9 1-1.4 1.5-1 .8-1 1-.8.6-1.6 1.2-.6.3-.4.2-.6-.9-2.3-3.5-2.7-4.1-1.6-2.3-4-5.3-1.1-1.6-1-1.7-.8-1.3-.8-1.7-.8-1.7-1.5-3.4-1.2-2.7-.5-1.2-.6-2-2.3-8-.4-1.6-.2-1.4v-1.4l.2-1.3.3-.8.5-.8.3-.3.6-.7.7-.6 1-.7 1.2-.6 1.3-.5 1.5-.4 3.2-.6 1.7-.3 1-.3 1-.3 1.3-.5 1.5-.6 1.3-.6 1.8-.9 2.1-1.1 1.2-.7 1-.7.9-.7 1-1 1-1 1.2-1.5 1-1.5 1-1.5.7-1.3.7-1.5.5-1.4.4-1 .6-1.9.2-1 .2-1 .2-2 .2-2.3v-2.3l-.1-5.9v-3l.2-2.9.4-5.8v-6.7l-.1-1.3-.2-2.2-.3-1.7-.3-2-.4-1.5-.5-2.3-.1-.4v-1.2l.5-1.1.1-.4v-1l-.1-.5-.2-.5-1.3-2.7-.5-1-1.5-4.2 1.3.4.8.3 1.8.4 2 .4 1.3.2 1.1.1h1l1.2-.1 1-.1.8-.1 1.8-.5 1.7-.5 1-.4 1.4-.6 2.5-1.3 1.9-1 1.2-.5 2.3-.9 3.3-1.1 1.4-.5 3-1.3 1-.5 1-.5.8-.5.8-.5.8-.6.8-.6.7-.7.6-.7.8-.8.9-1.2 1-1.3.7-1.4.2-.6.2-.5.1-.4v-1.4l-.2-.3-.2-.3-.3-.2-.2-.2-.4-.1h-.4v-.4l.4-.8.5-.9.7-1 .8-.9.9-.9 1-.8 1.3-.7 1-.3 3-1 1-.5.8-.3.6-.3 1.2-.7.7-.6.8-.7.9-1 1.8-2.3 1.4-2 2-2.8 2.3-3 .9-1.1.4-.6.8-.7.8-.7 1.3-1.1 1.1-.8 3-2 6.3-4.3 1.7-1.4 2.1-1.8 1-.7.4-.2.4-.2h.3l.5-.1h.9l.5.3 1 .7 1.4.9.5.4.5.5.5.7.4.8.5 1.1.9 3 .4 1 .3.7.4.8.4.6.6 1 .5.6.9.9.7.6.6.4.8.4 1.2.4.6.1h2.5l1.5-.2 1.5-.2 7.2-1.6 3-.7 1.3-.3 1.6-.3 2-.4 3.2-.8 2-.6.7-.3.9-.4 1.5-.9 1.7-1 4-2.8 2.2-1.4 1.3-.8 1.2-.7 1.3-.7 1.9-.8 1.8-.7 1.4-.4 1.3-.3 1-.3h.5l.4 1 1.4 4.6 1 3 .7 2.1.5 1.2 1.4 3.2.7 1.5"/></defs><g clip-path="url(#p80c70a6225)"><use xlink:href="#m25ff9d9901" y="280.5" fill="#0c1321" stroke="#0c1321"/></g></g></g></g><defs><clipPath id="p80c70a6225"><path d="M7.2 7.2h217v266.1H7.2z"/></clipPath></defs></svg>