<svg xmlns="http://www.w3.org/2000/svg" xmlns:xlink="http://www.w3.org/1999/xlink" width="416.4" height="374" viewBox="0 0 312.3 280.5"><defs><style>*{stroke-linejoin:round;stroke-linecap:butt}</style></defs><g id="figure_1"><path id="patch_1" fill="none" d="M0 280.5h312.3V0H0z"/><g id="axes_1"><g id="PatchCollection_1"><defs><path id="m120378be90" stroke="#f4f4e2" d="m291.5-235.2-7.8 19.4-3.7 8.2-3.7 8.4-.2-.2-.6-.3-1.5-.4-2-.3-2.6-.1h-2.8l-8 .3h-7.2l-5-.5H245l-.7.2-.5.3-.1.1-.1.3v1.6l1 4 .4 2.2v1.5l.1 1.5v1.8l-.3 2.2-.4 2-.5 1.6-1.7 5-.3 1.3-.4 1.6-.3 2.5-.5 7.8-.3 2.6-.5 2.9-.7 2.8-.9 2.9-1 2.8-1 2.7-1.3 2.7-1.4 2.5-1.5 2.4-1.8 2.2-2 1.9-2.2 1.7-2.4 1.5-2.5 1.5-2.5 1.4-5.3 2.6-18.9 9-5.4 2.6-2.7 1.4-2.7 1.5-2.6 1.5-2.5 1.7-2.3 1.8-2.2 2-1.8 2.3-1.4 2.3-1 2.5-.7 2.6-.2.6v.7l-.3 2.9v2.6l.2 2 .2.8-.2.5-1 6.5-1 4.8-.6 2.4-.6 2.2-.7 2.1-.7 2-.7 1.4-.7 1.3-.6.8-1 1.2-1.1 1-1 .5-1 .4h-2l-.9-.2-1.5-.4-1.1-.3-8.6-3-2.3-.7-2-.5-1.5-.3-1.7-.1h-5.4l-2.1-.2-2.3-.3-2.2-.5-1.4-.4-5.5-1.6-2.5-.7-2.5-.4-2-.1-2.1.1-2.6.4-2.6.6-2.6.8-2 .6-3.6 1.2-3.7 1.5-3.8 1.6-10 4.5-3.9 1.7-2 .8-1.9.7-2 .6-5.5 1.5-1.5.5-2.2 1-1 .4-1.8 1.1-1.7 1.2-1.7 1.3-1.1 1-.8.8-1.6 2-1.7 2.5L46-37l-.7 1.5-1 2.4-.9 2.1-1 3.7-.8 3-.6 2.4-.4 1.6-.4.9H40l-.1.1-.5-1-1.1-2.2-2.4-4-.9-1.8-.8-1.9-.5-1.6-.3-1.4-.2-1.4-.2-4-.6-5.8-.3-2.4-.2-1.6-.4-1.6-.4-1.4-1.7-5.2-1-3.8-.3-1-.9-1.8-.7-1.5-2.2-3.3-2.7-4.4-.6-1.3-.2-.6V-76l.1-.7.5-2.2.4-1.7 3.2-11 2-6 1.2-4.7 2.7-8.8.7-2.6.7-2.9 1.2-6 1-6.2 1.6-9.6 2-14L106.4-261l17-.2h9.6l6.2.2 3 .2 3 .3 3 .5 3 .5 2.9.6 5.7 1.3 8.6 2.1 22.5 5.8 11.4 2.7 12.7 2.8 5.7 1.1 5.8 1 6.3 1 2.6.4 5.3.6 5 .5 16.6 1.3 6.4.6 6.6.7 11.8 1.4 4.3.4"/></defs><g clip-path="url(#pdde10fc9f7)"><use xlink:href="#m120378be90" y="280.5" fill="#f4f4e2" stroke="#f4f4e2"/></g></g></g></g><defs><clipPath id="pdde10fc9f7"><path d="M7.2 7.2h297.9v266.1H7.2z"/></clipPath></defs></svg>