<svg xmlns="http://www.w3.org/2000/svg" xmlns:xlink="http://www.w3.org/1999/xlink" width="495.4" height="302.7" viewBox="0 0 371.5 227"><defs><style>*{stroke-linejoin:round;stroke-linecap:butt}</style></defs><g id="figure_1"><path id="patch_1" fill="none" d="M0 227h371.5V0H0z"/><g id="axes_1"><g id="PatchCollection_1"><defs><path id="me81c6f5bd8" stroke="#f4f4e2" d="M291.6-192.6v1l.2 2.2.4 2.3.8 3.2 4.9 16.7 1.1 3 1.1 2 .7.7.8.6 2.6 1.3 9.9 3.3 12.2 4.6-.2.6v1.2l.2 1.4.7 1.5.8 1.4 3.5 4.6 16.8 20.7-3.2 3.4-8.5 10.1-3.4 3.5-2.5 2.2-11.2 9-7.5 6.4-4.6 4-8.3 7.7-4.7 4-2.7 2-4.6 3.1-4.4 2.7-6.6 3.7-6 2.7-11 4-7.4 2.9-5.3 2.7-6.2 3.7-4 2.7-3.9 3-6.1 5.4-6.3 6.4-4.4 5.2-2.3 3-22-14.8L171.8-45l-6-4.5-6.7-5.7-6.8-6.5-5.6-5.8-11-12-1.8-2-2-2-4.9-4-2.8-2.1-3.4-2.3L117-94l-3.7-2-3.3-1.3-3.3-1.3-3.4-1-4.4-1.2-4.5-.8-3.5-.5-7-.7-21.9-1.3-6-.8-3.3-.7-3.2-.8-2.7-1-2.5-1.1-3-1.7-3-2-2.7-2.2-2.3-2.1-2-2.3-2.2-2.9-1.8-3-1.4-3-1.1-3.2-.7-2.7-.5-2.8-.2-2.9v-3l.1-3 .4-2.9.9-4 1.2-4.1 1.4-3.9 3.3-7.5 3.8-7.6 9.1-17.3 3.1-6.4 1.3-3.4.5-2-.2-.8 2 .3h4.5l13-.8h8.4l7 .5 15.7 2 4 .2h3l10.9-.8 10.5-1 7.6-1.3 9.9-2.2 7.1-1.4 5-.4h5.3l5 .4 5.4.7 6.4 1 3.5.7 4.5 1.1 8.8 2.5 5.7 1.7 8.5 2.9 4.5 1.2 6.1 1.4 7.1 1 8 1 6.7.6 9.2.6 12.6.6 15.9.5 7.4-.1 4-.3"/></defs><g clip-path="url(#p4d0fa71913)"><use xlink:href="#me81c6f5bd8" y="227" fill="#f4f4e2" stroke="#f4f4e2"/></g></g></g></g><defs><clipPath id="p4d0fa71913"><path d="M7.2 7.2h357.1v212.6H7.2z"/></clipPath></defs></svg>