<svg xmlns="http://www.w3.org/2000/svg" xmlns:xlink="http://www.w3.org/1999/xlink" width="351.1" height="374" viewBox="0 0 263.3 280.5"><defs><style>*{stroke-linejoin:round;stroke-linecap:butt}</style></defs><g id="figure_1"><path id="patch_1" fill="none" d="M0 280.5h263.3V0H0z"/><g id="axes_1"><g id="PatchCollection_1"><defs><path id="m84b0f1eaf2" stroke="#f4f4e2" d="m188.8-259.2.4.8.9 2 1 3 1 2.4 1.5 5.1 3.4 12.3 2 6.3 1.1 3 2.4 6 4.4 11 3.4 8.2 1 2.3.6 2.1.7 2.7.3 2 .1 1.7-.1 1.8-.2 1-1 2.6-1.6 2.5-2 2.4-2.3 2.3-2.4 2.3-7.6 6.7-2.5 2.3-2.2 2.3-2 2.3-1.6 2.4-1.1 2.4-.3 1-.1 2.7.5 2.8 1 3 1.3 3 1.6 3 1.8 3.2 1.8 3 4 6.3 27 42.2 6.7 10.3 2.4 3.4 4 5.7 2.3 3 3.8 4.8.6.8-5.6 5-5.3 5.2-1.8 1.4-4 2.8 1 3.8-11 6.7-2.9 1.6-1 .7-1.5 1.3-3.9 3.8-.8.7-.9.6-1.2.7-1.3.7-5.1 2.4-.3.1-1.6-.4-2.5-.8-6.7-2.5-15-5.8-6.4-2.4-16.3-5.8-7-2.6-3.5-1.3-3.3-1.5-3.2-1.5-3.1-1.6-2.9-1.9-2.6-2-1-1-1-1.2-7-8.4-1.7-2-1.3-1.3-2.5-2.4-2.7-2.3-5.6-4.4-2.7-2.2-1.8-1.5-1.7-1.6-1.4-1.4-1.4-1.5-1.5-1.9-1.4-1.8-1.3-2.1-1.3-2.2-1.1-2.2-2.6-5.6-4.3-9.1-1.4-3.2-1.1-3.1-1.1-4.2-3.7-15.8-1.6-6.5-1-3.2-.9-2.8-1-2.7-1.2-2.9-1.4-2.7-1.9-3-2-3-2.2-2.7-2.3-2.6-2.5-2.5-2.3-2-2.5-2-2.6-1.5-2.7-1.3-2.4-.7-2.5-.5-3.2-.3-8.4-.5-2.8-.4-2.5-.6-1.7-.8-1.4-.9-.6-.6-.4-.9v-.2l.1-.7.8-1.7 1.5-1.8 2-2 2.4-2 5.4-4.4 5.8-4.5 30-22.8 31.3-24.1 5-3.7 17.4-12.8.2-.2.5-.3.8-.3.9-.2 1.3-.1h1.5l1.5.2 1.5.3 3 .7 9 2.4 2.8.7 1.4.3 1.4.2 2.4.2h2.8l4-.1h2.6l1.2.2 1.1.3 2.4 1 .8.2 1.1.2h1.1l1.2-.1 2.5-.4 7.7-1.9 9.4-1.8 2.5-.6"/></defs><g clip-path="url(#p1a98771a51)"><use xlink:href="#m84b0f1eaf2" y="280.5" fill="#f4f4e2" stroke="#f4f4e2"/></g></g></g></g><defs><clipPath id="p1a98771a51"><path d="M7.2 7.2h248.9v266.1H7.2z"/></clipPath></defs></svg>