<svg xmlns="http://www.w3.org/2000/svg" xmlns:xlink="http://www.w3.org/1999/xlink" width="408.1" height="374" viewBox="0 0 306.1 280.5"><defs><style>*{stroke-linejoin:round;stroke-linecap:butt}</style></defs><g id="figure_1"><path id="patch_1" fill="none" d="M0 280.5h306V0H0z"/><g id="axes_1"><g id="PatchCollection_1"><defs><path id="mcd56007370" stroke="#f4f4e2" d="m262.4-239.4 23.2 22.4-36 30.1-9.5 8-10.1 8.2-5.8 4.8-6.2 5.3-3.8 3.5-4.4 4.2-3.5 3.7-3.7 3.9-9 9.8-3.4 3.8-3.4 3.9-3.3 4-1.5 2.1-1.6 2-1.4 2.1-2 3.2-1 2-.9 1.8-.6 1.9-.4 1.8-.1 2.1.1 2.1.4 2.2.5 2.1 2.3 8.3.7 2.9 1.1 5 .7 2.2.7 2 .8 2 .5 1.6.2 1.6-.2 1-.1.4-.6 1.2-1.1 1.6-2 2.3-1 1-1.4 1.2-1.7 1.3-2.1 1.4-15.6 9.7-6.5 4-4.5 2.5-2.8 1.5-2.4 1.2-2.4 1.1-2.5 1.1-5.4 2.3-8.4 3.2-1.3.6-.5.2-.5.1-1.4.8-1.4 1-5.2 3.7-2.2 1.5-1.7 1-1.7 1-.8.3-1.2.4-1.2.2-3 .6-1.2.3-1.6.5-1.3.5-1 .5-2.8 1.5-1.1.5-.8.2-.6.1h-.6l-.5-.2-.6-.5-.4-.8-.3-1-.2-1.2-.8-4.7-.6-3-.7-2.7-.7-2.2-.4-1-.7-1.5-.7-1.2-2.1-3-.6-1-.7-1.3-1-2.6-2.8-7.6-.8-2-1-2.1-1-1.8-.9-1.6-.8-1.2-.6-.8H69l-.6-.8-3-3.9-2-2.5-3.3-4.7-2-2.8-5.6-8.5-22.3-34.9-3.2-5.1-1.6-2.6-1.4-2.6-1.3-2.5-1-2.5-1-2.4-.3-2.4v-2.3l.3-.7.9-2 1.3-2 1.7-2 1.8-1.8 2-1.9 6.3-5.5 2-2 1.9-1.8 1.6-2 1.3-2 1-2.2v-.8l.2-1.5v-1.5l-.3-1.6-.6-2.2-.6-1.8-.7-1.8-2.9-6.8-3.6-9-2-5-.8-2.6-1.7-5.2-2.9-10.1-1.3-4.3-.7-2-.9-2.3-.7-1.8-.4-.6 3.2-1.2 2.1-1 2.2-1 3.1-1.6 14-8.1 19.4-11.1 4.6-2.8 4.6-2.8-.2.6.2 1 .6 1 .9 1.1 1.6 1.2 2 .9 2.3.7 2.5.5 2.7.4 3 .3 3 .2 6.2.2 15.3.3 6 .2 2.9.2 2.8.3 2.8.4 2.8.5 2.7.6 2.7.8 2.2.7 2.2.9 2.1.9 4.4 2 4.2 2.3 4.5 2.5 2.5 1.5 14.8 8.9 5 2.8 2.5 1.3 2.5 1.2 2.5 1 2.6.8 2.6.6 2.8.2 2.8-.2 2.8-.3 3-.5 2.9-.7 2.9-.7 9-2.4 28.5-8.3 14.4-4"/></defs><g clip-path="url(#p820b76d34c)"><use xlink:href="#mcd56007370" y="280.5" fill="#f4f4e2" stroke="#f4f4e2"/></g></g></g></g><defs><clipPath id="p820b76d34c"><path d="M7.2 7.2h291.7v266.1H7.2z"/></clipPath></defs></svg>