<svg xmlns="http://www.w3.org/2000/svg" xmlns:xlink="http://www.w3.org/1999/xlink" width="495.4" height="190pt" viewBox="0 0 371.5 190"><defs><style>*{stroke-linejoin:round;stroke-linecap:butt}</style></defs><g id="figure_1"><path id="patch_1" fill="none" d="M0 190h371.5V0H0z"/><g id="axes_1"><g id="PatchCollection_1"><defs><path id="ma901a91eb9" stroke="#f4f4e2" d="m243-19.7-3.4.2h-6.1l-13.3-.4-10.3-.5-7.7-.5-5.5-.4-6.6-.8-6-1-5-1-3.7-1.1-7-2.3-4.8-1.5-7.3-2-3.7-1-3-.5-5.2-.9-4.4-.6-4.2-.3h-4.4l-4.1.4-6 1-8.1 2-6.3 1-8.7.9-9 .6h-2.6l-3.3-.2-12.9-1.6-5.9-.5h-6.9l-10.8.7h-3.7l-1.6-.2-.7-2-1-3-3.6-8.6-8-17-2-4.8-1-3-.9-3.2-.3-1.6-.4-3.3-.2-4.7.3-4.5.6-4.7 1.2-5 1.9-5.3 2.2-5.3 2.2-4.6 2.5-4.4 2.2-1.5 3.6-1.9 14.4-7.2 5.7-3.2 3.3-2.1 6-4.5 6-4.8 6.2-5.3 6.4-6 .2.3.7.6 1.6 1.2 3.9 2.3 4.4 2 3 1 1.8.3 5 .6 6.7.5 13.6.4h3.4l2.4-.1 4.6-.5 3.1-.5 3.2-.7 4.2-1.4 7.5-2.9 5.4-1.8 3-.8 9.9-2.4 4.2-1.2 8.2-3 16.6-6.9 4.5-1.8 4-1.4 1.5-.3 2-.3h2l4.2.5h2l3.2-.1 2-.3 3-.7 3.1-.8 13.6-4.7.6-.2h2.8l2.2.5 2.7.6 2.8.8 6 2.1 3.3 1.5 5 2.4 4 2.1 2.6 1.7 3.4 2.3 2.5 2 4 3.7 2.2 2.4 1.8 2.2 3 4.2 3.2 4.8 2.1 3.6 2.3 4.2 2.6 5.3 5 10.7 8.3 20.3 1.4 3.2 1.8 3.4 2.6 4 2.4 3.5 7.8 10.2 3 4 2 3 1.3 2.6 1.4 3 1.4 4.4.7 4v2.8l-.1 1.9-.8 2.4-.7 1.5-1.3 2-1.1 1.4-2 2-2.6 2.1-3 2.2-3 2-3.7 2.2-6.8 3.7-5.8 3-4.2 2-4.2 1.7-3.6 1.3-3.4 1-3.5.8-3.9.6-4.2.3H287l-3.4-.3-3.8-.5-20-3.4-8.5-1.1-3.5-.3h-2.9l-.7.2-1 .3-.2.3v.3"/></defs><g clip-path="url(#p3f9fdccc27)"><use xlink:href="#ma901a91eb9" y="190" fill="#f4f4e2" stroke="#f4f4e2"/></g></g></g></g><defs><clipPath id="p3f9fdccc27"><path d="M7.2 7.2h357.1v175.6H7.2z"/></clipPath></defs></svg>