<svg xmlns="http://www.w3.org/2000/svg" xmlns:xlink="http://www.w3.org/1999/xlink" width="495.4" height="287.7" viewBox="0 0 371.5 215.8"><defs><style>*{stroke-linejoin:round;stroke-linecap:butt}</style></defs><g id="figure_1"><path id="patch_1" fill="none" d="M0 215.8h371.5V0H0z"/><g id="axes_1"><g id="PatchCollection_1"><defs><path id="m00cb9745b1" stroke="#f4f4e2" d="m307.4-150 .9 2.1 13.7 23 8.6 15.1 10 20 3.8 8.5 1.7 5 1.6 6.6.4 6.3-.8 4.6-1.5 4.3-3.3 5.7-3.5 4.4-4.2 4-3.2 2.7-6.2 4.7-6.6 4.3-6.8 3.9-4.5 2.2-8.1 3-10.9 2.4-5.8.7-7.8.1-8.3-1L261-19l-5-2.7-3.7-3.6L249-31l-1.9-6.8-2.3-15.4-1.6-7.8-1.3-4.5-2.9-7.2-4.3-7-5.6-5.9-6.6-5L215-95l-8.2-3.7-8.5-2.8-6-1.5-9.8-1.3-10-.4h-20.6l-10.3-.4-7.2-.7-7.1-1.5-10.4-3.5-9.2-4.4-7.8-4.3-16.7-10-9-4.9-7.8-3.7-7.6-2.9-10.4-2.8-10-1.6-6-.3-3.5.3-2 .5-.7.7-2.5-8.5-.3-2.6.4-6.8.4-2 1-3 1.5-2.6 3.9-4.3 11-9.7 3.5-2.6 3.7-2.1 4.3-1.7 4.2-1.2 4-.8 13.2-1.5 29.9-2.2h11.9l6 .4 6.6.6 9.8 1.4 15.4 3 25 6.1 9.3 2.7 8.5 3 7.5 4 9.3 6 4.2 2.5 4 1.5 1.9.3 2.4-.3 2.2-.8 2-1.3 1.4-1.8.8-2.3-.1-2.4-.7-2.7-1.1-2.8-3-5.7-3.3-4.7 15.7-5.3 9.4-2.6 4.2-.6h11.9l9-1.7h1.7l1.6.3 1.5.8 2.8 2.8 3.7 5.5 21.5 40"/></defs><g clip-path="url(#pa9c4949f95)"><use xlink:href="#m00cb9745b1" y="215.8" fill="#f4f4e2" stroke="#f4f4e2"/></g></g></g></g><defs><clipPath id="pa9c4949f95"><path d="M7.2 7.2h357.1v201.4H7.2z"/></clipPath></defs></svg>