<svg xmlns="http://www.w3.org/2000/svg" xmlns:xlink="http://www.w3.org/1999/xlink" width="495.4" height="328.9" viewBox="0 0 371.5 246.7"><defs><style>*{stroke-linejoin:round;stroke-linecap:butt}</style></defs><g id="figure_1"><path id="patch_1" fill="none" d="M0 246.7h371.5V0H0z"/><g id="axes_1"><g id="PatchCollection_1"><defs><path id="m330fea2260" stroke="#f4f4e2" d="m287.9-42.2-1.5.6-1.7 1.5-2.4 2.6-6.1 7.3-3.6 4-3.5 3-1.8 1.3-3 1.7-2.9 1-3 .7-5.5.2-5.4-.8-3-.7-6-2-3.4-1.2-5.5-2.2-6.8-2.8L191-42.4l-8.5-3.6-8.6-3.2-5.8-1.7-4-1-3-.5-5-.4h-2.5l-4.7.3-4.6.6-3.3.8-12.8 3.4-4.9 1.2-14 2.5-4.2 1.2-6.7 2.2-3.6.7-2.7.3-2.8.1h-3.8l-2.2-.2-3-.4-2.5-.5-6-2-1.7-.3-2.4.2-1.4.5-1.6 1-1.5 1.3-1 1.6-1 2-2.2 5.5-1.3 2.6-1.3 2-1.7 1.8-3 2-2 1-2 .7-3.6 1-3.3.8-3.7.6-5.1.5h-3.2l-1.3-.1-.6-.3-.9-4.4-.6-2.1-1.7-5.2-.3-1.7v-1.2l.3-1.1.4-1.3.6-1 .7-1 .8-.7 1.2-.8 1.4-.6 1.5-.3 4-.5 2-.3 2-1 1-.5.8-.7.7-1 .6-1 .4-1.7v-1.9l-.2-2-.9-3.7-1.2-3.7-2-4.9-2-4-1.7-2.9-1.7-2.4-5.4-6.9-1.5-2-1.1-2-.6-2v-1.6l.3-1.3 1-1.7 1-1.3 1.5-1.2 2.5-1.6 3.4-1.5 9.3-3.7 7-2.9 3.7-1.7.5-.4.4.4 1 .2 1.6.2 8.3.2 6.8.4h3.1l3.2-.3 3.2-.5 2.3-.5 5-1.8 9.3-4 15.2-7 4.8-2.6 1.8-1.2 1.5-1.4 1.2-1.4 1-1.8.3-1 .2-2v-2.1l-.4-2-1-4-.1-1.5.3-1.1.6-1 .7-.8 3-2.2.7-.8.4-1 1-3.5 1-1.7 2-2.8 3.6-4.8 1.1-2 1.1-2.5 2.6-7.6 1-1.7 1-1h.9l.3-.3 1-.3h4.3l4.5.8 4.8 1.3 3.4 1.3 3.6 1.7 4.1 2.2 7.6 4.5 3.6 2 4.2 2 4.7 1.7 3.3.6 3.3.4 4.7.1h9.4l4.6.2 4.4.6 2.7.7 4 1.3 3.7 1.6 3.4 2 3 2.4 2.6 2.6 2 3.2 1.3 3.3.6 2 .7 3.7 1 7 1 3 1.3 2.7 1.7 1.6 2.3 1.3 2.6.8 3.8.4h3.6l2.6-.4 5-1.1 3.7-1.4 2-1 3.2-1.7 3-2 2.8-2.1 1.5-1.2 1.9-1.9 1.6-2 1.5-2.6.7-2 .3-2-.1-3-.7-3-.8-2.2-1.7-4-4.6-9-4-7-6.2-10.5-.4-1 42.3-54.4 1 .3 1.2 1.5 1 2 1.8 3.9 1 2.7 2 6.5 1 4 .7 3.6.6 4.8.8 11.4.5 3 1 2.9.7 1.7 1.7 2.6 2 2.4 2.9 2.8 8 7.2 2.3 2.3 1.8 2.5 1.4 2.8.6 2.8v3l-.4 3.1-.9 3.8-2.7 9.9-1.6 6.2-.7 2.2-2.3 5.6-1.7 3.4-3.7 7-6.6 11.5-7.5 12.3-11 17.6-8.6 13.4-3.8 5.4-2.4 3-2.2 2.3-3.7 3-.4.3"/></defs><g clip-path="url(#p2f8933050d)"><use xlink:href="#m330fea2260" y="246.7" fill="#f4f4e2" stroke="#f4f4e2"/></g></g></g></g><defs><clipPath id="p2f8933050d"><path d="M7.2 7.2h357.1v232.3H7.2z"/></clipPath></defs></svg>