<svg xmlns="http://www.w3.org/2000/svg" xmlns:xlink="http://www.w3.org/1999/xlink" width="425.9" height="374" viewBox="0 0 319.4 280.5"><defs><style>*{stroke-linejoin:round;stroke-linecap:butt}</style></defs><g id="figure_1"><path id="patch_1" fill="none" d="M0 280.5h319.4V0H0z"/><g id="axes_1"><g id="PatchCollection_1"><defs><path id="me3f30d3eba" stroke="#f4f4e2" d="m298.3-164.2-21.2 1.5-9.4 1.1-2.9.6-3 .8-3 1.2-2.6 1.5-2.5 2-7.8 6.8-2.8 3-1 1.9-.8 2.1-.3 1.4-.2 4.9.2 1.8 1.8 6h-1.3l-1.7 1.6-1.5 2.7-4 11.8-1.8 4-1.7 3L225-97l-3 4.3-1.5 2.6-1.6 5.5-.7 1.5-1.2 1.3-4.4 3.4-1.2 1.3-1 1.5-.4 1.7v2.2l1.8 6.3.5 3.1.1 3.2-.4 3.2-.5 1.6-1.5 2.9-1.9 2.2-2.3 2-2.8 2-7.4 4-23.7 11-14.3 6.1-8 2.7-3.5 1-5 .7-4.9.4h-4.9L121-20l-13-.3-2.4-.3-1.6-.3-.7-.7v-.8l-.6-1.2-1.2-1.8-1.7-2-2.5-2.5-2.9-2.3L74.7-44l-8.1-5-6-4.6-7.8-6.6-3.4-2.5-7.4-4.4-3.3-2.3-3-3-2.6-3.4-1.5-3-2.1-5.8-2.4-8.5-2-8.4-2.2-11.8-1-6-.8-8.2v-6.2l.4-4.9.7-4.7 1.1-4.3 2-5.5 2.4-5.2 3-5 3.4-4.8 15.4-18.4L56-195l3.5-4.8L70-215.2l6.2-8.7L93-245.5l5.4.6 3.1-.3 3.5-1.2 9.7-4.3 1.9-1.1 1.6-1.5 6.2-8 33.6 26.6 28.6 23.2 6.1 4.6 5.6 4 6.3 4 3.5 1.9 3.6 1.8 5.2 2.1 2.6.9 3.8.8 5.3.6 16.3.9 6.2.6 6.2 1.2 3 .8 3 1.1 4.7 2.2 6.3 3.2 14.3 8.6 5.7 3.8 2.2 1.7 1.4 1.4.4.7v.4"/></defs><g clip-path="url(#p65f554e88e)"><use xlink:href="#me3f30d3eba" y="280.5" fill="#f4f4e2" stroke="#f4f4e2"/></g></g></g></g><defs><clipPath id="p65f554e88e"><path d="M7.2 7.2h305v266.1H7.2z"/></clipPath></defs></svg>