<svg xmlns="http://www.w3.org/2000/svg" xmlns:xlink="http://www.w3.org/1999/xlink" width="453.8" height="374" viewBox="0 0 340.4 280.5"><defs><style>*{stroke-linejoin:round;stroke-linecap:butt}</style></defs><g id="figure_1"><path id="patch_1" fill="none" d="M0 280.5h340.4V0H0z"/><g id="axes_1"><g id="PatchCollection_1"><defs><path id="me5fdceb54a" stroke="#f4f4e2" d="M116.3-256.8v.3l.1 1.4.4 8 .4 5.1.4 3 .4 2 .3 2 .8 3 .9 3.1.7 1.9 2.1 4.8 4.7 9.9 1.3 2.3 1.2 2.2 1.4 2 1.6 1.9 1.5 1.2 1.5 1.1 1.5 1 1.8.9 7.4 3.4 2.3 1.1 5.9 3.1 1.3.7 1.7.6 2 .6 1.4.3 1.5.1h2.8l2.2-.3 1.7-.4 1.8-.4 7-2 5.6-1.5 5.3-1.2 1.8-.4 2.2-.3 2.7-.2h4.9l5.2.5h3.6l1.9-.2 1.5-.4 1.2-.6 1.2-.7 1.4-1.1 1.3-1.2 4.8-5 2.7-2.5 2.4-2 1-.6 2-1.2 2.3-1 4.1-1.6 2-.7 2.8-.9 3-.7 3-.5 4.1-.5 3.6-.3h7.6l3 .4 1.8.4 1.9.6 1.9.8 1.2.7 2.3 1.6 2.2 2 1.3 1.3 2 2.2 5 6.2 2.6 3 1.8 2 1.6 1.7 1.1.9h.3l.1.7v1.1l-.4 1.5-.4 1.8-.5 1.5-.6 1.5-.9 1.7-1 1.7-1.3 1.8-1.5 1.7-2 1.8-8.5 7.2-1.6 1.4-1.4 1.5-1.9 2.2-.8 1.3-.7 1.3-.5 1.1-.4 1.4-.1 1v1.6l.2.6.7 2 .9 1.6.6 1 1 1.4 2 2.5 4.7 5.8 1.7 2 1.8 2.5 1.2 1.8 3.3 5.3 1.2 1.6 1.2 1.6 1.3 1.3 1 1 1.4 1 2.4 1.5 7.4 4.4 1.8 1.2 1.6 1.2 2.7 2.5 4.2 4.2 1.4 1.5 1.6 2 1 1.5.7 1.6.3 1.6v1.7l-.3 1.5-.8 1.8-1.3 2.1-1.6 1.9-2.1 2.1-3.5 3.3-.2.3h-1.2l-1.4.2-2.2.3-2.2.5-3.7 1-10.4 2.7-3.9 1-6.2 1.3-1.8.4-1.8.7-1.7.7-1.7 1-1.7 1-1.8 1-5 3.4-3 2-3.5 2.1-1.9 1.1-3.1 1.7-1.7.8-6 2.8-3.6 1.7-3.8 2.1-3.7 2.2-2.8 1.8-2 1.5-7.3 5.6-3.9 2.9-2.9 1.9-2.5 1.6-1.7.9-6.8 3.4-1.5.9-2 1.2-1.7 1.2-1 .7-1.5 1.5-1.5 1.6-1.2 1.4-1.2 1.7-1.4 2.2-1.1 1.4-.6.5-.8.5-1.2.5-1.6.3h-2.5l-1.5-.2-3.4-.5-11.3-2.4-4.3-1-3.3-.9-1.8-.6-1.1-.4-.4-.3h-.2l-.8-.4-2.6-2-3.7-3-5.2-4.5-3.4-2.9-2.3-1.8-3-2.1-6.2-3.9-2.3-1.2-2.2-1.2-2.5-1-3-1.3-4.6-1.5-2.3-.7-5.4-1.5-5-1.5-1.5-.4-1.5-.2-1.9-.2-2.3-.2h-2l-12.8.3h-7.9l-5-.2-2.6-.2-4.2-.5-2.1-.2-4-.7-1.9-.4-1.6-.4-5.5-1.6-2.2-.6-1.9-.2-4.6-.6-2-.4-.6-.1-1.3-.6-1.6-1.2-1-1.2-.9-2-.4-1.8-.3-1.7-.2-1.7-.6-6.3-.4-3.6-.5-2.8-1.3-6.9-.3-2-.2-2.2.2-2.3.5-2.3.6-2.3.8-2.4 2.4-6.2L28-117l1.7-5.5 1-3.9 1-4.4.6-3.4.3-2.7.2-1.8v-4.3l-.2-1.3-.1-1-.6-2.3-1.1-3.1-1-2.1-1-2-1.5-2.6-1.7-2.5-.8-1.1-.4-.5-.4-.2 2.6-2.1 4.4-3.3 4.5-3.1 3.4-2.2 1.6-.9 3.2-1.7 2.2-1 3.4-1.4 6.3-2.5 3.5-1.3 2.2-.7 2.2-.6 1.6-.3 1.5-.3 1.6-.2h5.1l1.7.4 1.8.5 5 1.6 2 .5 1.7.2h4.1l.8-.2 1-.3 1.2-.4 1.2-.6 2.1-1.2 1.2-.8L99-185l1.4-1.1 1-1.1 1.9-2.1 1.1-1.5 1.5-2.2 1-1.6 1.5-2.8 1-2.6.6-1.4.3-1.6.2-1.5.1-1.6v-2.2l-.4-3-.2-1.6-.8-3.9-.5-2.1-1.1-4.5-.8-2.4-.8-2.4-.8-2-.9-1.8-.9-1.6-1-1.4-.8-.7-1-1-1-.6-1.3-.8-1-.6-2.1-1-2.1-.8L88-242l-1.7-.7-.8-.5-1-.6-1-.8-1-1-.5-.8-.8-1.4-.4-1.1-.5-1.8-.2-1.4v-1.6l.1-1.7.2-1.4.3-1 .3-.6.3-.5.8-.8 1.3-.8 1.3-.4 1.8-.2 1.6-.1h4.1l4.4.4 2 .2 5.5.7 1.9.4 3.1.6 3 .8 2.4.6 1.4.5.4.2"/></defs><g clip-path="url(#pfad9d9a21f)"><use xlink:href="#me5fdceb54a" y="280.5" fill="#f4f4e2" stroke="#f4f4e2"/></g></g></g></g><defs><clipPath id="pfad9d9a21f"><path d="M7.2 7.2h326v266.1H7.2z"/></clipPath></defs></svg>