<svg xmlns="http://www.w3.org/2000/svg" xmlns:xlink="http://www.w3.org/1999/xlink" width="264.4" height="374" viewBox="0 0 198.3 280.5"><defs><style>*{stroke-linejoin:round;stroke-linecap:butt}</style></defs><g id="figure_1"><path id="patch_1" fill="none" d="M0 280.5h198.3V0H0z"/><g id="axes_1"><g id="PatchCollection_1"><defs><path id="mee62f4ad00" stroke="#f4f4e2" d="m126.4-245-.1.3v1l.2 1.3.3 1.7.6 1.7.5 1.4 1 2 .5 1 .7 1.2 1.3 1.8.8 1.1 4.2 5.2 1.4 1.8 1 1.4 3.7 5.7 1.5 2.1 1 1.2.5.6 2.6 2.3 2.8 2.7.7.7.4.7.2.3v.8l-.2.6-.3.6-.5.5-.3.4-.8.5-.4.3-3 1.4-1.2.7-1.2.7-.8.6-.7.5-.7.6-.5.5-.6.7-.4.7-.3.4-.4 1-.3 1-.2 1.3-.8 6v4.5l.2 1.8.2 1.3.3 1.3.5 1.3.7 1.3.7 1.2.8 1.3 4.3 5.9 1 1.3.7 1.3 1 1.8.8 1.7.7 1.7.4 1.7 2 8.3.2 1.7.2 1.5v.9l-.2 1-.2 1-.3 1-.4 1.2-1 2.6-.4 1.3-.2 1v.9l.2 1.1.5 1 .6.6.5.5.6.5.8.4 1 .6 1 .5 1.2.5 6.7 2.7 1.4.5 1 .2.7.2h1.3l1-.1 1.2-.5 1-.7.6-.4.9-.7 3-3 1.6-1.4 1.3-1.1.6-.5.8-.5.5-.2h.4l.9.1.6.6.2.7v.7l-.3.5-.3.7-.7 1-1.1 1.7-1 1.1-2 2.4-.6.6-.6 1-.7 1-.6 1.2-1 2.1-2.4 6-.8 1.7-.5.8-1.7 2.9-3 4.6-.6.9-1.2 1.5-1.3 1.4-1.8 1.6-3.2 2.6-1 .9-.9 1-.7.9-.2.3-.4.9-.1.5-.2 1v2.7l.6 3.8.1 1.7v1.9l-.4 4.8-.2 3.1v1.9l.4 1.6.4 1.1.3.4 1 .9.6.3.9.3.7.2h1.4l-2.5 4.1-5 8.7-1.5 2.5-1 1.8-3.3 5.1-2.4 4.1-.8 1.2-1.3 1.8-1.6 1.9-1.3 1.3-1.5 1.5-1.5 1.4-1.5 1.3-1 .8-1.8 1.3L129-24l-1.8 1-2.6 1.4-2.8 1.5-1 .5-.8.2-.9.1-1.1-.1-1.1-.3-1.2-.5-1.4-.7-2.4-1.6-6.1-4-2.5-1.8-1-.8-1.1-1-.7-.7-.7-.7-.2-.4-.6-1.2-.3-1.3V-37l.2-1.4.5-4 .2-2 .1-1.9v-2l-.2-1-.3-1.9-.3-.8-.5-1.2-.7-1-.8-.8-.6-.5-.8-.5-1.7-1-1-.5-.8-.3-1-.1h-.7l-1 .3-1 .2-2.3.9-1.3.3h-.6l-1 .1h-.6l-.8-.2-.8-.2-.7-.2-.9-.4-.8-.5-1.3-.8-2.5-1.7-.8-.4-.8-.4L72-61h-.7l-2.9-.3-3-.6-1.3-.2-3.1-.3-3.2-.3-1.7-.3-1.7-.3L53-64l-1.8-.7-1.3-.5-2.4-1v-.3l-.5-.7-1.6-1.8-.9-1.1-1-1.6-1.6-2.5-.9-1.3-.9-1.3-1.6-1.9-1.4-1.3-1.5-1.1-.8-.5-2.3-1.3-1.4-1-1-.8-2.5-2.1-1-1-1-1.2-.8-1.3-.6-1-.7-1.5-1.6-4.7-1-3.4-1-3.6-.5-1.7-3.2-9.5-.4-1.2-.1-1.1v-1.2l.4-1 .5-.7.6-.8 1-1.2 2.7-2.7 1.2-1 1.2-1 1.4-.7 1-.5.8-.3 1.3-.4 1.7-.5 1.8-.3 1-.1h7.2l1.6-.2 2-.4 1.7-.5 1.3-.4 1.2-.5 1.2-.6 1.5-.8 1.4-1 1.7-1.2 1.3-1 1.2-1.2.5-.6.6-.7.4-.6.5-1 .4-1 .4-1.4.2-1.3.1-1 .1-1.4v-3.9l-.1-1.8-.2-2.1-.3-2.2-.3-2.1-.4-2.2-.9-4.5-.8-3.6-2-7.2-.6-2-.5-1.2-.8-1.9-1.2-2.6-.7-1.2-1-1.6-.9-1.4-.6-.7-1.1-1.3-.9-.8-.5-.4-1.3-.9-1.5-.9-1.7-.8-1.8-.8-1.9-.7-3.5-1.3-1.6-.7-2-1-1.6-.8-1.7-1-1.5-1.2-1.9-1.6-.8-.8 2.3-1.4 2.3-1.4 2-1.3 1-.8 1.6-1.1 2.4-2 2.3-2 2.6-2.2 1.6-1.5 1.5-1.4L43-221l1.4-1.6 2.4-2.9 2.7-3.5 1.3-1.6 1-1.3.8-.8 1-1 1.5-1.3 3.2-2.4 1.4-1.2 1-1 .5-.5 1.3-1.5 1.6-2.2 1-1.6.7-1 .9-1.8.9-1.9.6-1.5.3-1 .5-2.5.4-1.1.5-1.1.3-.5.9-1.3.7-.7.7-.6.3-.2 1-.5.5-.2h.9l.3.2.3.2.4.6.2.5.3 1.2.1 1 .4 5 .2 1.8.4 2.2.5 1.8.5 1.9.9 2.5.7 1.8.5 1 .5 1 .9 1.3 1.1 1.3.7.5.3.2 1.5.5 1.4.2h1.4l1.9-.4 1.8-.5 2-.5 1.6-.5 6.2-2.4 4.1-1.5 3-1 3-.9 6.3-1.7 3.5-.8 1.3-.3 1.5-.1h1.4"/></defs><g clip-path="url(#pc340b2bbea)"><use xlink:href="#mee62f4ad00" y="280.5" fill="#f4f4e2" stroke="#f4f4e2"/></g></g></g></g><defs><clipPath id="pc340b2bbea"><path d="M7.2 7.2h183.9v266.1H7.2z"/></clipPath></defs></svg>