<svg xmlns="http://www.w3.org/2000/svg" xmlns:xlink="http://www.w3.org/1999/xlink" width="328" height="374" viewBox="0 0 246 280.5"><defs><style>*{stroke-linejoin:round;stroke-linecap:butt}</style></defs><g id="figure_1"><path id="patch_1" fill="none" d="M0 280.5h246V0H0z"/><g id="axes_1"><g id="PatchCollection_1"><defs><path id="m66bc644dee" stroke="#f4f4e2" d="M141.9-234.1h.3l.8.3 2.3 1 2.2 1.4 1.8 1.3 2.3 1.8 1.7 1.7 1.7 1.9 1.2 1.7 1.3 2 .7 1.6.5 1.4 1 3 2.6 8.2 1.3 3.6 1.3 3 1.4 3 1.4 2.3 1.2 1.6.7 1 .7.8 1 .8 1 .8 1.7 1 1.5.7 1.2.4 2.9.8 2 .4 2.7.4 2.2.2 2.3.1 2.7-.1 5-.5 1.6-.1h1.6l3 .4 2.1.8 1.8.9 1.8 1.2 1.5 1.2 1.3 1 1.7 1.7 1.7 1.8 1.9 2.2 1.8 2.3 1.7 2.4 1.6 2.5 1.6 2.6 1.8 3.1.7 1.6.6 1.4 1 2.6.6 2.3.3 2v2.9l-.3 1-.4 1.5-.6 1.2-.7 1.5-2 3-3.7 5.6-.9 1.4-.5 1-.8 1.8-.6 2-.4 2-.3 2-.2 2.1-.2 3.9.2 4.3v5l-.3 2.2-.2 1.1-.4 1.4-.4.8-.8 1.7-.7 1-.7 1.2-1 1.3-1.9 1.8-2 1.4-1.4.6-2.8 1.1-1.6.6-1.6.4-2.6.6-2.6.4h-2.2l-3.5-.2h-1.4l-2.5.2-2 .4-1.3.3-1.3.5-1.2.7-.6.4-1.6 1.2L177-88l-6.5 7.6-1.5 2-1.8 2.5-.8 1.4-3.4 6.3-1 1.7-2.1 3.3-1.3 1.8-.8.8-.9.9-.6.3-.8.4h-1.3l-1-.3-1-.8-.7-.8-.7-1-1.2-2.2-2.8-6.5-1.8-3.6-1-2-1.7-3.1-1.8-3-1.4-2-1.5-1.8-1.3-1.3-1.4-1.3-1.2-.9-.7-.4-1.4-.6-1.3-.2h-1.4l-.8.2-.6.2-1.2.6-1.1.8-1 1-1.2 1.5-1 1.5-.6 1.4-.7 1.8-.3 1.6-.2 2v1.8l.1 1.3.5 3 .7 2.8 1.2 4.6.1 1-.1.3v.2l-.3.4-.8 1.2-1.5 2-2.3 2.2-1.4 1.2-1.2.9-1.8 1-2.2 1-7.8 3-2.7 1.1-1.1.6-1.2.8-1.1.8-1 .9-.8.7-1 1.2-.6 1-.5 1.1-.2 1.3-.2 4.2-.2 1-.7 3.1-.6 1.7-.5 1.3-.4 1-.9 1.6-1 1.1-1 .9-1 .5-1 .2h-1.4l-.9-.3-1.2-.5-1-.8-2.3-2-.7-.5-.7-.2h-.8l-1.1.4-1.1.6-1 .7-1 .7-1.6 1.5-4.9 4.4-.7.5-.8.5-.3-.2-.6-.7-5.7-6-2.2-2.5-2.6-3.1-2.5-3.2-2.1-3-1.7-3-1-2.6-.2-1v-1.9l.7-2 1.2-1.8 1.6-1.8 4-4 2-2.2 2-2.3 1.5-2.4 1.1-2.5.4-1.3.2-1.3v-8.7l.3-1.7.5-1.9 1.1-3.8.4-1.6-.1-1.4-.3-.7-.6-.6-.9-.7-1.5-1-1.2-1-1-.8-1-1-1-1.2-1.2-1.4-1-1.3-1.7-2.6-1.5-2.6-1.5-2.8-.8-2-.7-1.9-1.3-4.2-.9-2.6-1-2.5-1.2-2.5-2.2-4.3-1.3-2.3-3-4.9-2.9-4.5-7.2-10.8-3-4.7-2.2-3.9-.8-1.7-.8-1.7-.5-1.7-.4-1.7-.1-1v-2l.2-1.5.3-1.3.5-1.7.6-1.4.7-1.3 1.3-2.1 2.1-2.7h.2l.2-.3.5-1.3 1-2.8 1.8-6.2.7-2.4.8-2 1-1.8.7-1 .6-.7.8-.5.8-.4 2.2-.5 1.1-.5 1-.7.6-.5L39-201l1.5-1.6 1.3-1.7 2-2.9 1.8-3 .7-1.3.7-1.7.6-2 .2-.8.1-1.3.1-1.7v-12.2l-.5-4v-3.4l.2-2.1.5-2.2 1-3.7.6-2 .9-1.9 1-1.7 1.3-1.6 1-1.2 1.2-1 1-1 1-.8L59-259l2-.9 1.8-.6 2.2-.3 3.8-.4.1.2.4.2 1.4.8 1.3.5.6.2h.8l1.3.2H83l1.3.1 1.4.3 1.6.5 4.4 1.7 3.4 1.6 2.1 1.2 1.3 1 2.4 2 1 .8 1.5 1.1 1.4 1 3.5 1.7 11.5 5.3 2.6 1.6 4.6 3.1 1.7 1 1.2.4 1.7.5 2 .2h1.7l4.6-.3h1.3l.7.2"/></defs><g clip-path="url(#pd854863aa1)"><use xlink:href="#m66bc644dee" y="280.5" fill="#f4f4e2" stroke="#f4f4e2"/></g></g></g></g><defs><clipPath id="pd854863aa1"><path d="M7.2 7.2h231.6v266.1H7.2z"/></clipPath></defs></svg>