<svg xmlns="http://www.w3.org/2000/svg" xmlns:xlink="http://www.w3.org/1999/xlink" width="242" height="374" viewBox="0 0 181.5 280.5"><defs><style>*{stroke-linejoin:round;stroke-linecap:butt}</style></defs><g id="figure_1"><path id="patch_1" fill="none" d="M0 280.5h181.5V0H0z"/><g id="axes_1"><g id="PatchCollection_1"><defs><path id="m1cbd8d2683" stroke="#f4f4e2" d="M129.9-255.4v.3l.5 1.1.5 1 1.4 2.8 1.6 2.9 3.7 5.8 1.3 2.2 1.4 2.5 2.3 4.4 5.8 11.5 1.2 2.4 3.3 7.4 1 2 2 3.7 1.2 2.2.7 1.6.4 1.1.4 1 .5 2 .2 1.8v3.1l-.2 1-.1.6-.4 1.4-.6 1.2-.4.8-.5.9-.4.6-1.1 1.3-3.4 3.9-.7.8-.3.5-.3.6-.2.7v.6l.3.7.5 1 .8 1 1.4 1.6 4.6 4.7 2.7 3 4.3 4.9 1.1 1.3.3.5-.1.4-.4 1-1.3 3.5-.8 1.6-.8 1.6-1.6 2.7-2.8 4.1-1.9 3-.8 1.4-1.5 2.8-.5 1.2-.5 1.1-.3 1.2-.6 2.3-.2 2.3v1.7l.1 1.1.3 1.4.3 1.2.3.7.8 1.8.8 1.6.7 1.2 2.4 4 1 1.8 1 2.2.8 1.8.5 1.8.5 1.8.4 1.7.5 2.6.3 2v1.7l-.1 1.5-.5 1.2-.7 1-1.5 2-.8 1.3-.6 1.6-.7 3.6-.5 2-.4 1.4-.6 1.4-1.8 4.2-1 2.2-.5 1.5-.5 1.5-.4 1.5-.4 1.7-.1 1-.1 1.5v1.6l.2 2.8.7 6 .1 1.7v3.3l-.2 1.2-.2 1-.3 1.2-.6 1.6-.7 1.6-.8 1.4-2.5 4.1-.8 1.4-.6 1.3-.6 1.5-.5 1.7-1.5 5.9-.6 2-.8 2-.5 1.1-.2.4-.3.3v.1h-.3l-.2.1h-.3l-.7-.4-.9-.5-.5-.4-1.5-1.2-1.7-1.6-1-1-4.3-4.7-2.5-2.6-2.1-2.2-1.3-1-1.2-1.2-1.3-.9-.6-.4-1.2-.7-.6-.2-.7-.2-1-.2h-.7l-1.2.3-1.1.4-1.3.6-1.4.7-2.6 1.6-5.3 3.5-1 .7-1.5.7-1.5.6-1.4.4-1.2.2-2.6.4-4.2.5-2.5.4-3.2.7-6.2 1.8-2 .6-3.4.7-2.3.5h-.4l-.3-.3-.5-.5-1-1.2-1.1-1.6-1.1-1.9-1.3-2.2-3.5-6.6-1-2-1.2-1.7-1.1-1.7-2-2.8-.8-1.2-.7-1.3-.5-1-1-2.4-1.2-3.6-.7-2.2-.3-1.2-.4-2.3-.2-2.1v-3.6l.3-1.5.7-2 1-1.8 2-3.5.6-1 .5-1.2.3-1 .1-.5.1-1v-1l-.3-1-.2-.8-.6-1.4-.6-1.1-.7-1.1-1-1.2-1-1-1-.9-1.3-1-3-2L43-95l-6.5-3.8-2-1.3-1.9-1.3-1.5-1.1-1.2-1.3-.5-.6-.6-1-.4-1-.2-.7v-.8l.1-1 .4-1.1.6-1.5 1-1.9 2.3-4.3.6-1.4.4-1.4v-2.7l-.5-1.6-.5-1.5-.9-2-1-2-.7-1.3-5.3-9.2-1.7-3.3-1.2-2.4-1-2.5-.4-1.1-.7-2.3-1.2-4-1.5-4.1-.4-1.2-.5-1.7-.2-1.4-.1-1.2v-4.4l.6-5.1v-.6h.1l.1-.1v-.5l.2-1.7v-2.3l-.2-2.3-.4-3.2-.4-2.4-.8-3.7v-.9l-.1-.6v-1.1l.2-.6.1-.5.4-.7.3-.3.2-.2 1-.5 1-.2h6.3l.9-.2 1.3-.3 2.6-.8 2-.4 1.6-.3 1.9-.1 1-.2.7-.1 1-.4.8-.4 1.4-.8 1.2-.9 1-.8 2.2-1.9 1.6-1.4 1.3-1.3 3.3-3.4 1.3-1.3 1.3-1.2 1.5-1.3 2.6-2 3.5-2.5 2.7-1.7 1.6-.8 1-.4 2.5-1 4.6-1.6 2.5-.9 1.2-.5 1-.5 1.6-1 .7-.6.8-.8 3.4-4 1.3-1.3 1.4-1.2 3.3-2.2 1.5-1.2 1.4-1.3.7-.8.6-.7 1.4-1.8 2.3-3.2 1.8-2.8 3.5-5.7 1.5-2.1 1-1.3.6-.5.5-.5.7-.4 1.3-.5h1.7l1 .4 1.2.5 1.1.6 1.2.7 4.6 3 1.4.7 1.3.7 1.8.7 1.3.3h1.8l1.4-.5.8-.4.5-.4.1-.5"/></defs><g clip-path="url(#p4e7b79a724)"><use xlink:href="#m1cbd8d2683" y="280.5" fill="#f4f4e2" stroke="#f4f4e2"/></g></g></g></g><defs><clipPath id="p4e7b79a724"><path d="M7.2 7.2h167.1v266.1H7.2z"/></clipPath></defs></svg>