<svg xmlns="http://www.w3.org/2000/svg" xmlns:xlink="http://www.w3.org/1999/xlink" width="352.4" height="374" viewBox="0 0 264.3 280.5"><defs><style>*{stroke-linejoin:round;stroke-linecap:butt}</style></defs><g id="figure_1"><path id="patch_1" fill="none" d="M0 280.5h264.3V0H0z"/><g id="axes_1"><g id="PatchCollection_1"><defs><path id="m64fe6949e9" stroke="#f4f4e2" d="m165.2-250.7 2.3 3.8 1.7 3.1 2.2 5.2 1 3.5 1 5.2.9 4.5.8 7 .4 1.2.5 1 .8 1 2.3 1.7 8.4 4.2 7.5 4.2 3.2 1.9 5.5 3.8 1.3.7 1.4.6 1.2.2 6.2.3 1.6.3 2.8.7 1.4.6-1.2.4-2 1.2-2.3 2-2.4 2.8-1.4 2.5-1 3.1v3l.6 3 1 2.8 1.2 2.8 3 5.5 4 5.8 9 12.7 2 3.2 3 5.6 1 2.4 1 3.3.9 3.4 1.9 10.4 1 4 .8 2.5 2 4.5 3.3 5.9.5 1.4.2 1.4-.4 1.7-1 1.6-1.3 1.7-1.8 1.8-4.5 3.7-5.5 4-6.3 4.2-29 18.9L169-44.4l-3.7 2.2L163-41l-1.2.3h-1.2l-1-.2-1.2-.5-2.2-1.4-7.9-6.6-2.4-1.4-1.2-.4h-1.2l-1.1.1-1.2.5-2 1.3-1.7 1.6-1 .6-15 12.9-8.8 6.8-4.2 2.8-4.2 2.4-4 1.8-3.8 1-3.7.2-3.1-.8-3-1.5-3-2-2.8-2.5-2.7-2.8L63.5-46 50-61.5l-7.5-9.2-5.2-6.9-3-4.6-3-5.1-1-2.8-1.4-4.2-.7-4.3v-4.4l.5-4.4 2.3-13.1.3-4.2-.4-4-1.1-3.8-1.8-3.7-5.6-9.7-1.4-3.3-1.2-4.4-.7-4-.5-6.8v-4.4l.2-2.4.2-.8.5-.8.5-.2.6-.8 1-2.5 1.6-4.8 1.3-6 1.8-12.2.8-3.3.7-1.5.7-1 1.8-1.3 2.4-.8 2.8-.3 3-.1 2.8.1 5.9.8 9.1 1.7 4.9 1.1 7.7 2.2 27.3 8.4 6.8 1.6 3.4.5 3.2.2 3-.2 2.8-1 2.4-1.5 2.2-2.3 1.9-2.7 1.7-3.2 2.7-6 2.3-6.9 2.2-7.5 6.2-24.5.3-.7 16-11.8 2.4-1.5 1.2-.4 1 .2 1.5 1.3 1.8 2.6 4 6.4"/></defs><g clip-path="url(#pebb9a8785c)"><use xlink:href="#m64fe6949e9" y="280.5" fill="#f4f4e2" stroke="#f4f4e2"/></g></g></g></g><defs><clipPath id="pebb9a8785c"><path d="M7.2 7.2h249.9v266.1H7.2z"/></clipPath></defs></svg>