<svg xmlns="http://www.w3.org/2000/svg" xmlns:xlink="http://www.w3.org/1999/xlink" width="494.5" height="374" viewBox="0 0 370.9 280.5"><defs><style>*{stroke-linejoin:round;stroke-linecap:butt}</style></defs><g id="figure_1"><path id="patch_1" fill="none" d="M0 280.5h370.9V0H0z"/><g id="axes_1"><g id="PatchCollection_1"><defs><path id="m8fcb85f981" stroke="#f4f4e2" d="m342.1-111-.2.1h-.2l-1.2-.2-5.9-1.2-8-1.6-7.8-2-2.9-.6-2-.3h-1.8l-1.8.1-5 .4-1.7.3-1 .3-2.7 1.1-1.5.9-4.4 2.6-5.3 3-3.8 2.3-2.3 1.5-3.5 2.4-8.4 6.5-5.4 4-5.7 3.9-4 2.4-4.3 2.4-4.6 2.4-14.4 6.5-4.7 2.3-5.3 2.8h-.5l-1.2.6-1.9 1.3-2.2 1.6-5.6 4.6-9 7.8-3 2.2-2 1.2-2 1.1-1.7.8-1.8.6-1.2.3-2 .3-2.2.1-2-.1-2.5-.7-2.4-1-2.3-1.3-4.7-3-2-1-2.2-.8-2.3-.7-2.3-.6-4.4-1-2.1-.3-4-.4-2.6-.1h-2.6l-3.3.2-3.2.6-3 .9-2.7 1-2.5 1.5-1.9 1-1.4 1.2-2.5 2-2.4 2.4-6.8 7.2-2.4 2.3-2.4 2-1.7 1.4-4 2.7-2 1.3-9.5 5.2-4.9 3-3 1.9-3.2-.6-1.9-.5-2.5-1-2-1.4-.7-.6-.8-1.2-.6-1.3-.6-3v-2l.4-2.4.6-2.4 1.8-6 1.6-5.7.4-1.9.2-1.5-.1-1.1-.2-.6-.4-.4h-1.2l-1 .3-3.4 1.4-1 .3h-1l-.8-.2-.4-.2-.6-.7-.7-1.5-1-2.8-.8-2-1.2-1.9-1.3-1.5-1.7-1.5-2.4-1.8-3-1.9-2.5-1-2.9-1.3-2.4-1-11-4-3.2-1.4-2-1-2-1-2.1-1.5-2-1.8-2-3.1-1.3-3.8-1-4.2-.4-4.6-.3-5-.1-5v-5.3l.3-5.3.5-10.3.7-9v-.6l4.4-3 22.6-14.5 9.6-6.4 10.5-7.2 7.4-5.6 5.8-4.5 4-3.3 7.9-6.7 11.4-10 22.7-20.2 7.5-6.5 3.9-3.2 4-3.2 3.8-3 4-2.8 3.8-2.5 3.9-2 3.1-1.4 2-.6 2-.4 3-.1h1.4l2.9.3 2.4.4 2.5.6 2.4.7 2.4 1 5 2.4 3.7 1.5 3.2 1.2 3.3 1 4 .7 4.3.4 13 .8 4.3.2 4.2-.1 2.7-.4 2.6-.6 6-1.9 2.2-.4 2.8-.1 6 .1 3-.3 3.3-.8 3.4-1.4 3.4-2 3.3-2.2 3.3-2.5 4.4-4 3.1-3 2.6-3.3 1-1.6 1-1.4.6-1.4.1-.7 4.8 3.7 3.4 3 1.8 1.7 2.3 2.5 2.4 3.2 1.7 3.5.8 4.3-.3 4.4-.4 2-.7 2.5-1.6 4.6-2 4.7-2.2 4.6-6.9 13.6-2.1 4.4-1.8 4.3-1.5 4.1-1 4-.1 1.1-.1 1.8v1.2l.4 2 1 2.7 1.5 2.2 1.8 1.7 2 1 2.1.4 2.4-.2 1-.3 1.4-.5 2.6-1.4 4.7-3.6 2.2-1.2.8-.3.9-.1 1.6.2 1.5 1 .4.3.6 1 .5 1.5.1.9.2 2v5.2l.2 2.5.8 6.7.4 2 .5 2 1.4 2.8 2 2.6.4.5 2 1.9 1.9 1.6 2.3 1.6 3.4 2 2.6 1.7 4.5 3.6 4 3.4 2 2 1.6 2 1.8 2.6 1.9 3 .9 2 .4 1.6.2 1v1.1l-.2 1.7-.2.6-.7 1.3-.5.6-.8.8-1.8 1.1-1 .3"/></defs><g clip-path="url(#pac6a6e8921)"><use xlink:href="#m8fcb85f981" y="280.5" fill="#f4f4e2" stroke="#f4f4e2"/></g></g></g></g><defs><clipPath id="pac6a6e8921"><path d="M7.2 7.2h356.5v266.1H7.2z"/></clipPath></defs></svg>