<svg xmlns="http://www.w3.org/2000/svg" xmlns:xlink="http://www.w3.org/1999/xlink" width="495.4" height="339" viewBox="0 0 371.5 254.2"><defs><style>*{stroke-linejoin:round;stroke-linecap:butt}</style></defs><g id="figure_1"><path id="patch_1" fill="none" d="M0 254.2h371.5V0H0z"/><g id="axes_1"><g id="PatchCollection_1"><defs><path id="md3dddfec89" stroke="#f4f4e2" d="M277.3-24h-.3l-1.6-1.4-2.4-2.5-2.5-2.8-3.6-4.2-7.4-9-2.7-3-2-2-3-2.7-3.3-2.3-1.8-1-2.8-1.2-2.6-.8-2.6-.6-4.2-.5-3-.2h-7.9l-5.1.5-5.9.7-4.4.8-4.2 1-4 1.2-2.9 1-6 2.4-3.1 1.4-3 1.7-1.3.8-3.4 2.8-4 3.7-6.8 7-2 1.8-1.9 1.6-1.7 1-1.8.9-2 .6-2.8.3h-5.1l-7.5-.7-3.3-.2h-3.7l-3.8.4-3.2.4-2.7.6-7.5 1.7-8 2-10 3-2.6.6-2.5.6-3 .4-1.9.1h-2.2l-2.1-.3-2.1-.4-2.8-.8-2.4-1-2-.9-8.3-4.4-3.3-1.7-10.6-4.8-2.6-1.3L52-35l-2.2-1.6-2-1.8-2.4-2.6-2-3-1.8-3.1-1.8-3.4-6.6-14-3-7L29-74l-1.3-4.4-1.1-4.4-.5-2.8-.6-3-.5-4.1-.6-7.5-.5-11.4-.2-1.9v-.5l-.3-1v-3.5l.1-1.3.4-1.5.4-1.5.6-1.5 1.2-2.8 2-4.1 2.9-5.2L53.9-178h.3l.3-.3 1.6-1.7 6.6-7.6 17-19.3 9.1-10.6 4.5-4.8 3.6-3.4 2.7-2.2 3-2 3.6-1.7 2.1-.5 2-.3 3-.3h2.6l8.1.6 3.9.2 3.1-.1 7.6-1 2.8-.1h3.4l2.6.3 1 .3 8.3 2 3.8 1.1 4.7 1.6 5.5 2 4.4 1.7 3.8 1.7 5.2 2.5 2.9 1.6 2.3 1.5 6.8 4.3 2.7 1.5 2.7 1 3 .6h3.5l2.8-.4 4.2-1.2 2.8-1.1 2-.9 3.8-2 2.4-1.2 12.3-7.3 6.6-3.7 8-4.1 9-4.3 1.3-.5.5.3 1.1 1.5 3.5 6 2.7 4.1 2 2.8 3 4.2 1.8 2.2 1.7 2 1.4 1.2 1.6 1.5 4.6 3.8 5.8 5.7 4.2 3.8 13.2 10.2 3.3 2.3 1.7 1 4.6 2.4 7.2 3.2 6.2 3 5.8 2.4 2.6 1.2 2.1 1.6 1.3 1.7 1 2 1 3.2.4 2.6.3 2.7.3 6.1v5.3l-.1 2.5-.2 2.5-.3 2.5-.5 3.1-1 4-2.7 10.3-5.4 21.2-2.3 8.8-1.4 5-3 9.8L329-70l-1.3 3.8-1.4 3.7-1.3 2.8-2 3.7-2.4 3.5-2.7 3.4-2 2.1-2.4 2.6-3.1 3.2-1.7 1.4-2.9 2.5-1.6 1.2-2 1.4-1.2.7-1.4.6-1.7.5-1 .2h-2.2l-1.1-.3-2-1-1.6-1.6-1.4-1.7-2.5-3.6-.6-.9-.7-.6-.6-.4h-.6l-.7.7-.6.9-.8 2.1-3.4 12.8-.6 1.8-.2.4"/></defs><g clip-path="url(#pb2ca016470)"><use xlink:href="#md3dddfec89" y="254.2" fill="#f4f4e2" stroke="#f4f4e2"/></g></g></g></g><defs><clipPath id="pb2ca016470"><path d="M7.2 7.2h357.1V247H7.2z"/></clipPath></defs></svg>