<svg xmlns="http://www.w3.org/2000/svg" xmlns:xlink="http://www.w3.org/1999/xlink" width="495.4" height="336.5" viewBox="0 0 371.5 252.4"><defs><style>*{stroke-linejoin:round;stroke-linecap:butt}</style></defs><g id="figure_1"><path id="patch_1" fill="none" d="M0 252.4h371.5V0H0z"/><g id="axes_1"><g id="PatchCollection_1"><defs><path id="m99bd730f6c" stroke="#f4f4e2" d="m344.2-212.3 1.1 2.5 1 2.4.8 2.7.6 2.8.4 2.8-.1 2.7-.3 1.5-.4 1.3-.6 1.3-.9 1.6-.5.7-.9 1.2-3 3.4-2.6 3.3-1 1.3-.7.7-1.3 1.3-1.4 1.1-2.8 2.1-3.6 2.4-2.2 1.5-3.6 2.2-5 2.7-1 .7-1.5 1-.7.7-.6.7-.7 1.4-.3 1.2-.3 1.6v1.5l-.2 4.3v1.3l-.4 2-.7 1.8-.9 1.7-2.2 3.6-2.3 3.9-1.3 1.8-.7.7-1.5 1.6-3.4 2.8-1.6 1.5-1.1 1.3-1 1.4-.7 1.4-.2.6-.2 1-.1.6v2.3l.4 2.2.9 4.2.3 1.8.3 2.8.2 2.7.3 16.5v3l-.4 5.4v5.7l.2 2.3.4 2.2.5 2 .6 1.7.6 1.4.8 1.4.9 1.3 1.4 2 1.8 2.1.2.3h-.3l-1-.3-1.7-.2-2.7-.3h-4.9l-2 .3-2.2.4-1.2.2-3 .9-1.3.4-2.6 1.1-2.6 1.2-5 2.6-2.4 1.1-2.5 1-2.7 1-2.7.6-10.4 2.2-2.4.4-4.2.6-2 .3-2 .4-2 .5-1.4.5-2.6 1-2.1 1-2.6 1.4-1.1.7-1.5 1.1-1.6 1.3-1 1-1.5 1.4-5.2 5.8-1.5 1.6-4.8 4.6-2 1.8-2 1.5-1.8 1.4-1 .7-1.4.8-1.3.6-1 .4-.7.2-.8.1H199l-1.2-.2-1-.8-.7-1.1-.6-1.4-.5-1.6-1-3.3-.6-1.7-.8-2.4-3.1-8.1-.8-1.9-.7-1.5-.7-1.5-.7-1.1-1.3-2-1.5-1.7-1.3-1.4-1.8-1.4-1.6-1-1.2-.4-1.1-.2-1.2-.2h-2.1l-2 .3-5.8.7-5.5.7-2.6.2-5.4.3-2.2.3-2.1.4-6.2 1.6-2.4.5-2.5.3-2.5.2h-1l-1.7-.2-2.9-.4-5.8-.9-2.6-.3h-2.6l-.3.2-8.3-1-3.3-.4-3.3-.3L99-51l-3.4-.1h-3.3l-3.2.3-3.1.3-3.1.5-6.1 1-12 2.3-2.9.5-2.9.4-2.8.3-2.9.2-2.8-.1-2.6-.3-2.5-.4-2.4-.5-8.6-2.3-4.9-1-1.4-.4-.4-.3-1-.7-.7-.9-.6-.9-.6-1-.5-1-.3-1.2-.4-1.5-.2-2v-3.6l.2-2 .1-1.1.6-2.3.3-1 .6-1.2 1-1.7.7-1 .9-1 1.8-2 2-1.6 1.7-1.3 1.9-1.2 5.7-3.4 1.7-1 2.3-1.6 1.8-1.4 1.3-1.4.7-1 1.7-2.9 1-1.3.6-.7 1-.7.8-.4 1-.5 1-.3 5.7-1.6 2.3-.8 1.7-.6 3.5-1.4 2.3-1 3.9-1.8 2.8-1.5 2.2-1.3 1.2-.8.8-.6 1-.8 1-1 .9-1 .6-1.2.7-1.6.4-1.8.2-1.3.2-1.3-.1-2.3-.4-2.5-.5-2.6-2.4-9.5-.5-1.9-.5-1.7-.4-1.2-.6-1.1-.7-1.3-.4-.4h-.1v-.6l.6-.4 1.3-.3 1-.1h1.6l5.8.5 2.1.3 4.2 1 5.9 1 1.1.2 2.8.2 2 .2 4.4.2h1.3l5.7-.5 8.2-.6 2-.2 4.8-.6h8.2l3.5-.3 4.7-.7 3.7-.6 1-.2 2.7-.8 1.5-.5.8-.4.8-.5.7-.5.4-.5.6-.8.6-1.2.5-2 .2-1.2.4-2.7.7-6.5.2-1.8.3-1.4.4-1.2.7-1.4.7-1 1-1 1.2-.8 1.9-.9 1.3-.6 4.3-1.6 3.6-1.2 2.4-.8 2.1-.5 2-.3 2 .1 1.4.4 1.6 1 1.4 1.2 2.5 2.9 1.2 1.2.7.7.7.4.5.1.6.1h.5l.5-.2.5-.3.4-.2.5-.6.4-.8.3-1.6v-2l-.3-2.1-.3-1.4-.6-2.8-1.5-6.1-.5-2.1-1.7-6-2.6-8.6-.1-.5-.3-.4v-1l.2-.5.4-.6.8-1 .8-.8.9-.6 1-.6 1.4-.7 1.2-.5 2-.8 1.9-.5 2.4-.5 6.5-1.2 4.8-1 3.7-.8 3.3-1 2-.8 2-.9 2.7-1.2 2.7-1.5 1.6-1 6-3.8 2.7-1.6 3-1.6 3.2-1.4 2.3-1 1.4-.5 1.4-.4 2.8-.8 2.7-.6 2.7-.4 2.6-.2h5.3l1.9.2 1.9.2 2.7.4 5.2.9 5 1 2.6.6 4.8 1.4 5.1 1.6 6.3 2.3 5 2 2.4 1 5 2.2 1.7.6 1.8.6 5.8 1.7 2.4.8 2 .7 1.3.7 1.3.8 1.3.9 1.5.9 1.2.4.7.2h.4l.1-.1"/></defs><g clip-path="url(#pec488d9c10)"><use xlink:href="#m99bd730f6c" y="252.4" fill="#f4f4e2" stroke="#f4f4e2"/></g></g></g></g><defs><clipPath id="pec488d9c10"><path d="M7.2 7.2h357.1v238H7.2z"/></clipPath></defs></svg>