<svg xmlns="http://www.w3.org/2000/svg" xmlns:xlink="http://www.w3.org/1999/xlink" width="495.4" height="373.1" viewBox="0 0 371.5 279.9"><defs><style>*{stroke-linejoin:round;stroke-linecap:butt}</style></defs><g id="figure_1"><path id="patch_1" fill="none" d="M0 279.9h371.5V0H0z"/><g id="axes_1"><g id="PatchCollection_1"><defs><path id="m502d682f8b" stroke="#f4f4e2" d="m348-94.2-2.1.5-5 2.3-14.4 8-9.6 6-8.8 6L290-58l-9.5 6.4-34.1 19.8-5.7 3-5.7 2.4-9 3.3-8 2.2-7 1.2-6.8.3-6.3-.5-5.6-1.6-2.8-1.4-2.1-1.6-4-4.7-2.6-5-2.4-5.8-2.2-6.3-9.8-32.8-3.4-9.5-4-8.4-4.9-7.8-6.7-7.7-8-6.8-8.7-6.2-7.8-5-16.4-9.1-38.2-20-7.3-4.1-9-5.5-8.2-5.9-7-5.8-5.7-6.4-3.2-4.7-2.3-5-1.5-5.7-.6-6v-5.8l1.1-10.8 2-11.9 2.6-11.9 3.3-11.6 4.4 2.6 4.5 2.3 11 5 34.7 14 72 28 10.2 3.5 15.2 4 5 1.6 10.8 4.2 5.6 2.7 11.7 6.7 14.6 10.1 14.8 11.3 45.3 36 20 14.7 10.4 7 10.3 6.2 10.2 4.9 3.5 1.3 1.5.3"/></defs><g clip-path="url(#pb9f9a68151)"><use xlink:href="#m502d682f8b" y="279.8" fill="#f4f4e2" stroke="#f4f4e2"/></g></g></g></g><defs><clipPath id="pb9f9a68151"><path d="M7.2 7.2h357.1v265.4H7.2z"/></clipPath></defs></svg>