<svg xmlns="http://www.w3.org/2000/svg" xmlns:xlink="http://www.w3.org/1999/xlink" width="281.6" height="374" viewBox="0 0 211.2 280.5"><defs><style>*{stroke-linejoin:round;stroke-linecap:butt}</style></defs><g id="figure_1"><path id="patch_1" fill="none" d="M0 280.5h211.2V0H0z"/><g id="axes_1"><g id="PatchCollection_1"><defs><path id="m586663e6b5" stroke="#f4f4e2" d="m192.6-194.6.5.6.4.6.4.7.7 1.4.4 1.6v2.1l-.2.6-.2.4-.3.6-.8 1-1 1-.7.5-.9.6-2.8 1.7-2.8 1.5-3.8 2-4 1.9-4.8 2.1-2.1.9-2.5.9-1.7.7-2.6 1.4-1.2.7-2.4 1.6-2.3 1.6-1.3 1-1.1 1.1-1 1.2-.4 1-.3.9-.2.9-.2 1-.1 1.3v2.2l.2 1.3.2 1 .4 1.4.2.5.7 1.6 1 1.7 2.7 4.2.7 1.1.3.7.4 1 .1.5.2.7.2 1.2v1.1l-.2.7-.2.7-.4 1-3 5.6-1 1.4-1 1.4-.8.8-1 .8-.7.6-.9.5-1.5.7-1.7.4-3.5.9-1.7.6-1.4.7-2.8 1.7-1.5 1-2.4 1.6-1.4 1.1-1 .8-1.2.6-1.3.6-1.4.6-2.2.6-2.5.7-2.8.5-.7.2-.8.3-.8.4-.6.4-.7.8-.5.7-.4.8-.3 1v2.8l.1 1.3.3 1.3.5 1.8.5 1.3 1.2 2.5 1 2 1.6 2.7 1.6 2.3 1.1 1.7 1.3 1.5.7.8h.2l-.2.3-.5.5-.6 1-.5.8-.5 1.3-.5 1.4-.4 1.5-.2 1.1v4.8l.1 1.4.2 1.7.3 1.6.3 1.4.7 2.3.3 1.5v2.8l-.4 1-.4.8-.4.6-.7.6-.7.5-.5.2-.7.2-1 .1h-3l-1.2-.3-1-.2-6.1-1.6-1.9-.5-1.5-.2-2.3-.4-1.7-.2h-4.8l-1.7.3-1.7.3-2.2.5-5 1.3-4.4 1.1-2.3.7-2 .6-1.4.6-.8.4-1.2.6-1 .5-.9.7-.6.5-.8.7-.7.7-1.2 1.4-1 1.5-3 4-3.9 5.3-1.3 2-.4.6-.4.5-.4.3-.6.4-.8.3-.9.3-1.3.2-3.3.4-1.2.1-2.6.2-1 .1-.8.3-.7.3-1.2.7-2.5 1.5-1.2.7-4.7 2.2-2.6 1-1 .3-2.8.8-1.2.5-1.4.7-1.3 1-.8.6-.5.7-.2.4-.2-2.8v-1.5l-.2-1-.3-.6-.3-.5-.4-.5-1.8-2.3-2.3-2.8-2-2.2.4-.4.9-.5 3.5-1.8 1.5-1 1.3-1 2-2 1.4-1 1.8-1.4 2-1.2 2.8-1.4 2.8-1.3 6-2.2 3-1.3 1.8-.9 1-.5 1-.7 1.3-.9.7-.5.7-.7.8-.9.7-1 .5-.8.3-.8.1-.7V-61l-.4-1.3-.4-1.3-.5-1.2-.7-1.5-1-1.8-1.1-1.7-1.4-1.8-1.3-1.6-4-4.5-2.1-2.2-6-6-1.5-1.4-1.1-1.4-1-1.3-.3-.5-.3-.5-.3-.8-.6-2.6-.4-1-.4-.8-.9-1.2-1-1.2-1.3-1.1-2.2-1.7-.5-.6-.3-.3-.3-.5-.2-.5v-1.6l.2-.6.3-1 .6-1.5 1.7-3.6.8-2.3.7-2 .4-1.6.3-1.3.2-2.7.2-2.4.3-2 .2-1 .2-.9.4-.7.4-.7.8-1.3 2.1-2.5.8-1.2.6-1.2.6-1.3 1-2.6.7-1.2.7-1 1.2-1.2 1.3-1 2.9-1.6 1.3-.8 1-.9.6-1v-.9l-.1-.8-.5-1-.3-.6-.4-.5-.6-.6-.5-.6-1-1-1.4-1-6.2-4.6-1.4-1.2-.8-.7-4-4.4-5.3-5.5-1.8-2-1.1-1.3-.6-.8-.4-.7-.3-.6-.2-.9.1-.5.3-.5.7-.4 1-.2.8-.1h.9l1 .1.7.1 1.5.5 3 1 1.2.2.9.2 1.1.1h2l1.7-.4.9-.3 1.5-.8 1.3-1.1.8-1 .5-.8.6-1.1.4-1 .3-1.2.3-1 .3-1.4v-1l.2-2-.1-1.7-.3-2-.3-1.3-1-3.5-.5-2.2-.4-2.3-.4-2.2-.2-2.2-.1-1.8v-1.9h.6l.6.2.8.5.8.5.6.6.7.8.5.5.4.6.6 1 .5 1.3 1.2 3.2.6 1.6.8 1.4 1 1.2 1.3 1 1.6.5 1.7.4H57l.6-.2 1.3-.3.9-.4 1-.5 1.4-.9 4.7-2.9 1.2-.7 1.3-.6 1.4-.5 4.5-1.3 1.6-.4 1.6-.6.9-.4 1.1-.5 2.3-1.2 1-.7 2.7-2.1 1.2-.9 2.6-1.7 2.3-1.3 1.2-.7 1.4-.6 5.6-2.1 1.8-.8 1.2-.6 1.3-.6 1.6-1 1.6-1.2.5-.5.6-.7 1-1.3 1-1.8 2.6-5 .6-1 1.1-2 1.6-2.2.7-.9.7-.8.9-.8 1-.9 1.3-1 7.5-5.2 1.4-1 1.1-1 1.1-1.1.7-.8.7-.9 1.7-2.4 2-3 .5-.7 1.1-1.3 1-1 .9-.5.6-.4 1.2-.6.6-.2 1.5-.4 1.3-.1h.9l.9.2.6.2.6.3.6.4.4.3.6.5.6.8.4.6.4.9.4 1.1.6 1.8 1 4.1.5 1.4 1.3 3.5 2 5.6.8 2.3 1.4 3 4.7 10.4 1.5 2.7 1.6 2.7 1.4 1.9 1.1 1.5 2.7 3.3 4.2 4.8 3.7 4.4 1.6 1.7 1.2 1.3 1 .9 1 1 1.7 1.2 1.5.9 1 .4.9.3 1 .2"/></defs><g clip-path="url(#pbce813971a)"><use xlink:href="#m586663e6b5" y="280.5" fill="#f4f4e2" stroke="#f4f4e2"/></g></g></g></g><defs><clipPath id="pbce813971a"><path d="M7.2 7.2H204v266.1H7.2z"/></clipPath></defs></svg>