<svg xmlns="http://www.w3.org/2000/svg" xmlns:xlink="http://www.w3.org/1999/xlink" width="404.5" height="374" viewBox="0 0 303.4 280.5"><defs><style>*{stroke-linejoin:round;stroke-linecap:butt}</style></defs><g id="figure_1"><path id="patch_1" fill="none" d="M0 280.5h303.4V0H0z"/><g id="axes_1"><g id="PatchCollection_1"><defs><path id="m70cbe4561e" stroke="#f4f4e2" d="m236.4-220.1 8 22 2 6 3.7 10.8 5 13.4 1.5 4 1.8 4.2 1.5 3.2 1.5 3 .8 1.5.8 1.2.8 1.1 1.7 1.7 2 2.5 1 1 1.4 1.1 2.5 1.7 5.7 3.3 1.1.5h-.4l-.2.2-.6.4-.6.6-.4.7-.3.5-.3.8-.9 3.4-.7 1.6-1.2 1.5-1.2 1-1.4 1-1 1-1 1.3-2 2.8-.5.8-.6 1.5-.3 2v2l.6 7.1.1 3 .4 2.6.7 3.4 1.7 6.7.5 2.6.4 2.5.3 4.7.3 1.4.4 1.4.8 2.2 1 1.8 1.2 2.2 4.5 7 1.4 2.6.6 1.1 1.2 2.8.6 1.8.5 2.1.2 1.3v2.1l-.1 1.6-.3 1.7-.4 1-.5 1.4-.7 1.4-1 1.9-1.3 1.9-1 1.4-1.6 1.7-1 1.1-2.1 2-2.3 2-2.8 2.3-3.1 2.5-2.4 1.7-4 2.7-1.8 1.2-1.9 1-2.2 1-1.5.7-1 .3-1 .2-1.2.2-2.5.2-2.5-.3-1.8-.5-2.2-1-2.2-1.4-2-1.4-6-4.6-1.5-1.2-1.2-.8-.5-.1-.4-.4-.3-1.2-.3-1.5-1-6.7-1.3-7.4-.8-6.3-.5-3.5-.7-2.6-.4-1.4-.7-1.8-1-2.5-1.3-2.5-1.3-2.4-2.8-4.6-2.8-4.6-3-4.5-2.8-4-2.2-3-.9-1-1.4-1.5-1-1-1-.8-1-.7-.7-.4-1.4-.6-2.5-.8-1.7-.4-3.6-.9-1.6-.5-1.6-.7-1.2-.6-1.4-.9-2.1-1.5-2.4-1.9-1.3-1.3-1-.9-.5-.6-1.5-2-.5-.8-.7-.7-.6-.5-1.5-.8-.8-.3-.9-.1-1-.1h-1.7l-1.4.2-1.6.4-1.3.4h-1.5l-1-.3-1-.4-.8-.4-1.3-.7-1.3-.8-1-.8-1.4-1.2-4.3-4.4-1.4-1.1-1.1-1-1.2-.6-1.8-.8-1.8-.4-2.4-.4-4.6-.4-2.4-.4-1.8-.5-2.4-.8-1.6-.5-2.1-.5-5.2-1.1-1.3-.4-3-1-1.1-.2-1.4-.1h-.9l-3.7.3h-6l-4.3-.7H92l-1.4.3-.7.2-.8.4-.7.6-.3.3-.3.5-.3.6-.2.6-.2 1.1v1.5l.2 1.4.4 1.1 1.2 2.7.7 1.7.4 1.3 1.3 4.7 1 3.7.6 1.5.7 1.8 1.9 4.2 1.1 2.2 4.1 6.9 2 3.4.9 2 .9 1.9.4 1 .4 1.4v.6l-.9-.3-6.4-1.5-5.4-1.1-2.3-.6-2.5-.8-1.1-.5-1.1-.4-1.6-.9-1.5-1-.9-.6-.7-.7-1-1-.9-1.3-1.4-2.8-.9-1.6-2.3-3.4-.7-1-1-1-1.3-1.1-1.4-1-1.4-.8-1.5-.7-1.5-.6-1.5-.3-1.5-.1-1 .1-.8.2-2.9.9-1 .2h-1.6l-1.6-.4-1.6-.5-1.6-.7-1.7-.8-1.6-.9-1.6-1-1.5-1L43-113l-1.2-1.2-1.9-2.8-.7-.8-1.3-1.1-1.3-.8-1.3-.4-.9-.2h-.8l-.4.2-7-9.2-1.6-1.9-2.2-2.3-.8-1-.5-.6-.5-1.1-.1-.6v-1.1l.3-.7.4-.6.9-1.3 1.6-1.9 6.7-7.5 1.6-1.9 1-4.6 1-3.8.5-1.8 1.3-3.4.4-1.5.2-.8v-.7l-.1-.6-.5-1.7v-1l.2-.3.3-.4.4-.3 1.1-.5 1.3-.4 2-.6 3.8-.8 4.8-1 4.8-.9 2.8-.4.3-.1.9-.2 8.1-1 4.5-.5 4.3-.8 2.2-.4 2.2-.6 1.8-.6 1.6-.7 1.5-.9.9-.5 1-.8 1-1.1.7-.8 1.4-1.7 1.2-1.7 1.6-2.4 1.5-2.4 3-5 2.2-3.7 1.5-2.8.6-1.3.4-1.3 1.1-3.9 1.2-3.2.7-1.5.6-1 .8-1.2 1-1.5 1.2-1.4 1.6-2 3.4-3.8 7.8-8.6 2.1-2.4 2-2.4 1.3-1.7.9-1.2 1.6-3 .8-1.2.6-.7.6-.4.6-.3h.7l1-.3 1.8-.4 25.8-7.1 6.6-1.7 3.2-.7 3-.5 3-.4 2.6-.1 2.1.1 1.9.5 1.6.7 1 .8 1 1.1 1 1.3.9 1.6.8 1.8.7 2 .9 2.7 1.6 5.7 2.5 9.4.7 2.5.8 2.3.8 2.1.9 1.9 1 1.5 1.2.9.6.2.7.1 1.3-.2 1.3-.5 3-1.4 1.9-.7 2-.6 2-.4 2-.1 2.2.4 2 .7 1.3.5 1.5.8 4 2.3 1.2.7 1 .4 2 .7 1.4.2h2.2l1-.2.5-.2.7-.5"/></defs><g clip-path="url(#pd9cc49a06c)"><use xlink:href="#m70cbe4561e" y="280.5" fill="#f4f4e2" stroke="#f4f4e2"/></g></g></g></g><defs><clipPath id="pd9cc49a06c"><path d="M7.2 7.2h289v266.1H7.2z"/></clipPath></defs></svg>