<svg xmlns="http://www.w3.org/2000/svg" xmlns:xlink="http://www.w3.org/1999/xlink" width="495.4" height="339.8" viewBox="0 0 371.5 254.9"><defs><style>*{stroke-linejoin:round;stroke-linecap:butt}</style></defs><g id="figure_1"><path id="patch_1" fill="none" d="M0 254.9h371.5V0H0z"/><g id="axes_1"><g id="PatchCollection_1"><defs><path id="m36460b6d3d" stroke="#f4f4e2" d="m236.8-223.7.1-.2 1-.4 1.4-.3 2-.2h1.5l1.8.4 2.8.9 2.9.7 1.8.6 1.6.5 1.8.8.9.5.7.6.6.5.4.5.3.5.4 1 .2 1.1.2 1.5.1.7.3.6.3.3.4.2h.4l2-.7 1.8-.2h1.1l.5.1 1.3.6 1.2.7 3.3 2 3.2 2.2.7.4.9.3h1l.1-.2.1.1.4.9 2.6 7 1.5 3.5 1.9 3.8 3 6 1.1 2.3.6 1.6.7 2 1.4 5.1 1.6 5.3 1 3.3.5 2.3.5 2.7.3 3.3.1 1.5v1.7l-.1 1.5-.4 2-.8 2.2-2 3.8-.7 1.7-.1.6-.2 1.7.2 1.8.3 1.3.6 1.2 1 1.4.8.6.8.5 3 1.5 1 .5.8.7.7 1 .7 1 .6 1 .5 1.3.5 1.4 1.4 4.2.8 2.2 1.1 2.2 1.2 1.7.7.6 1.2.8 1.5.7 1.3.4 1.5.3 1.6.2h1.8l2.2.2 4.9-.1 6.3-.3 5.7-.3 3.7-.4.1.5 3 10 2 7 .7 2.5 1.7 7 .7 3.3.3 1.6.3 2.5v2.3l-.3 1.8-.5 1-.6.7-.4.3-.6.3-.6.1-.6.1h-.7l-.6-.3-.8-.5-.8-.7L340-76l-2.9-3.4-1.6-1.4-1.8-1.1-1.7-.5h-2.3l-2.3.3-2.5.6-2.7.8-4.2 1.5-5 1.9-1.6.6-2.1 1-1.4 1-1.3 1.2-.8 1-.7 1.7-.5 1.4-.3 1.6-.3 2.2-.9 7.5-.3 3.1-.3 1.5-.6 2.2-.6 1.4-.8 1-.5.5-.8.6-.9.6-1 .4-1.6.7-3.1.9-1.3.3-4.2.7-5.5.7-4 .4h-2.8l-5-.1H268l-5.5.8-2.4.3-9.6.6-6.6.6h-1.6l-5-.3-2.4-.1-3.2-.3-1.3-.2-6.9-1.3-4.8-1-2.4-.4-6.8-.5-1.9-.1h-1.2l-1.5.5-.6.5v.2l-.1.3v.1l-.2.4-.6.2-.8.1h-1.2l-1.4-.1-4.8-.7-1.6-.3-1.4-.3-2-.7-1.6-.7-1.5-.8-1.1-.6-4.4-3.2-1.1-.7-1-.4-.7-.2-1-.1h-1.6l-1.6.5-1.5.7-1.2.7-1.1.7-1.3 1-2 1.6-2 1.7-1.8 1.6-5.2 5.5-3 3-2.7 2.3-2.3 1.7-1.5 1-3.8 2.3-1.4 1-4.7 3.2-4.2 3-1.4 1-1.2.5-1 .4h-.3l-.8.2-.7-.1-.6-.3-.4-.3-.2-.3-.3-.5-.1-.6-.1-.6-.1-1.6V-28l-.8-6.2-.4-5.1-.3-2-.3-1.9-.6-2.3-.7-2.5-.8-2-1-2.5-1-2-.7-1-1.5-2.2-1-1.4-2.4-2.7-1.9-2-1.5-1.4-1.5-1-1.8-1.3-1.1-.6-.8-.2-.6-.2-1-.2h-2.4l-2.5.5L95-67l-2.7.4-3 .3h-3l-3-.2-2.7-.7-2.3-1.1-1.3-.8-1.5-1-1.7-1.4-1.4-1.4-.7-.7-.2-.4-.3-.2-.6-.5-1.3-1.4-2.2-2.6-2.2-3-2.3-3.5-.6-1-1-2-.7-1.5-1-2.7-.7-3-.4-2.4-.1-1.4v-1.3l.2-1.3.5-2.1.4-1.2.5-1.4.3-.6.7-1.2 2.1-3 .5-1 .2-.8v-.4l-.1-.8-.3-.7-.3-.4-.4-.5-1-.7L57-119l-.9-.5-1.9-1.2-.9-.7-1.2-1-2.4-2.3-1.6-1.8-1.4-1.7-2.9-4-3.6-5-1.2-1.6-8.4-9.9-.6-.8-.4-.6-.2-.5-.3-.8-.2-1.2.1-1.1.4-1.2.6-1 .7-1.1 1.8-2.6.7-1 .8-1.6.4-1.1.6-2 .5-3 2-13.2.5-3 1.2-5 .2-1.2.2-1.5v-1.2l-.2-1.5-.2-.8-.2-.6-.5-1-.5-.6-.8-.7-.6-.4-2.9-1.8-.8-.5-.5-.5-.8-.7-.7-.9-1-1.5-1-2.1-.5-1.5-1-3-.6-2.8-.3-1.7-.5-3-1-7-.2-2.1-1-5-.2-1.7-.2-1.6.3-.1.9-.1 1.7-.1h4.1l4 .4 2.3.3 3 .5 1.9.4 1.8.5 4 1.2 3.5 1.1 2.7.8 8 1.9 5 1.1 3.6.8 1.5.4 2.4.9 2.1.9 2.1 1 2.1 1.4 1.4 1 .9.9L84-220l2.2 2.5 1.1 1 1 1 .7.4 1 .5 1.7.6.8.2 1.4.2h1.7l2.5-.3 1.8-.3 5-1.3 2-.4 3.1-.5 5-.6 3.9-.7 2.5-.6 3-.8 7.7-2.3 3.2-.7 2.9-.4 6-.5 1.7-.2 2.2-.4 2.6-.7 2.1-.7 2.4-.9 3.9-1.6 2.2-.8 1.4-.4 2-.4 2.3-.2h7l7 .7 3.2.5 4.2 1 3.7 1 2 .8 3.7 1.5 2.8 1.1 5.4 1.7 2.5.7 2.7.5 3.1.5 1.7.1h2.1l2.8-.2 3.3-.4 4.7-.9 1.4-.3 2-.7 1-.5 3-1.4.5-.2"/></defs><g clip-path="url(#p17f262af1d)"><use xlink:href="#m36460b6d3d" y="254.9" fill="#f4f4e2" stroke="#f4f4e2"/></g></g></g></g><defs><clipPath id="p17f262af1d"><path d="M7.2 7.2h357.1v240.5H7.2z"/></clipPath></defs></svg>