<svg xmlns="http://www.w3.org/2000/svg" xmlns:xlink="http://www.w3.org/1999/xlink" width="487.9" height="374" viewBox="0 0 365.9 280.5"><defs><style>*{stroke-linejoin:round;stroke-linecap:butt}</style></defs><g id="figure_1"><path id="patch_1" fill="none" d="M0 280.5h366V0H0z"/><g id="axes_1"><g id="PatchCollection_1"><defs><path id="m26b2bab1e4" stroke="#f4f4e2" d="M287-242.5v-.1l.8-.1 1.4.1 1.5.3 4.2 1.3 3.8 1.4 4.1 1.6 4.2 1.9 4.2 2 4.1 2 4 2.3 4 2.3 3.6 2.3 3.4 2.6 3 2.6 2.6 2.9 1.8 2.6 1.4 2.7 1.2 2.7.7 1.8.8 2 .2 1 .5 2.3.3 2.2-.1 2-.5 2-1.6 4.7-.3 1.2-.3 2.4v2.6l.2 2.7.6 3.5 1.4 7.2.4 2.8v3.8l-.5 2.2-.7 2-1 1.6-1.2 1.8-2.7 3.4-.6 1-.5 1-.4 1.8-.6 4.8-.6 3.3-.3 1.6-.8 2.8-1 3-2.5 6.7-5.8 15-1.7 4-1.7 3.3-3.5 6.4-5.7 9.6-5.3 9.4-6.4 10.7-3.5 5.4-3.1 4.4-3.1 3.9-1.7 2-3.5 3.5-1.5 1.4-1.8 1.5-3.7 2.8-3.9 2.5-2 1.2L268-39l-2.1 1-2.2.9-3.9 1.4-1.7.5-3.8 1-19.8 4.9-13.2 3.7-2.3.8-1.5.8-.4.8-5.5-.9-2.6-.3h-3.5l-.7.1-.7.2-.7.4-.6.5-2.9 2.6-.7.6-.9.4-.8.3h-1l-1 .1-4.3-.3-1-.2-2.3-.7-3.1-1.3-1.4-.8-2-1.4-1.3-.8-1.8-.9-3.2-1.3-2.9-1.1-3-1-8-2.4.4-.8.7-2 .7-2.9.6-3.1.4-3.4.1-3.4-.3-3.4-.8-3.1-1.2-3-1.4-3-3-5.7-1.2-2.8-.9-2.8-.5-2.8v-2.8l.5-2.8.8-2.8 1.6-5.5.6-2.7.3-2.5-.2-2.5-.7-2-1.2-2-1.6-1.7-1.5-1.2-1.7-1-1.7-.7-1.7-.4h-1.8l-1.1.2-2 .6-4.7 2.3-2 .8-2.3.4-2.4.3-4.8.3-3.8.2-5 .2-3.8.4-6.9.8-3.2.2-4.1.1-3-.2L95-98l-1.3-.4L92-99l-.7-.4-.3-.2v-.2l-1.2-.5-1.5-.7-2.7-1.4-3-1.7-2.4-1.6-3-2.3-2-1.6-1.9-1.8-1.7-1.7-3-3.5-2-2.4-1.8-2.6-1.5-2.5-1.3-2.6-.8-2.6-.4-2.2-.1-1.7v-2.8l.8-9.5.2-2.2v-2.3l-.2-2.7-.4-2.2-.5-2.4-.7-2.2-.6-1.5-.7-1.7-1.2-2.1-1.5-2.4-1.3-1.8-1.4-1.8-5.4-6.2-2.9-3.8-2.8-4-1.9-2.8-1.6-2.7-1.4-2.7-1.2-2.8-.7-2.5-.7-2.9-1.5-7.4-1.3-5.9-5.1-19-.8-2.2-.9-1.9-.5-.8-.7-1-.6-.2h1.1l6.6.2h1.8l2.2-.2 2.7-.3 2.4-.4 11.5-2.3 2.9-.5 2.9-.4 4.7-.3h6.2l3 .3 3.1.3 3 .5 3 .6 2.4.5 8.7 2.5 2.3.6 3.4.6 3 .4 10.6 1 2.9.3 7.3 1.3 2.9.4 3 .3 2.4.2h4.9l1.7-.3 1.9-.4 2.3-.8 2.4-.9 2.1-1 2-1 1.7-1 1.5-1 1.4-1.3 1.3-1.4 1.7-1.8 2.4-3 2-2.8 1.1-1.8.9-1.5 1-2 1.7-3.8.5-1 .3-.4.7.2 1.4.8 4.7 3 3.7 2.8 6 4.6 2.7 2 1.7 1 1.5 1 1.8.8 1.7.6 1.6.2 2.3-.1 11-2.9 5.4-1.2 3.2-1 6.9-2.4 9.5-2.6 15.9-5.3 2-.5 1.6-.3h1.5l2 .2 2.5.8 3 1.4 2.4 1.6 2.4 1.7 2.3 2 7.7 6.8 2.3 1.7 2 1.2 1.3.5 1.8.6 2.3.2h1.8l1.4-.3.6-.1.4-.3"/></defs><g clip-path="url(#pf09f8ec72a)"><use xlink:href="#m26b2bab1e4" y="280.5" fill="#f4f4e2" stroke="#f4f4e2"/></g></g></g></g><defs><clipPath id="pf09f8ec72a"><path d="M7.2 7.2h351.5v266.1H7.2z"/></clipPath></defs></svg>