<svg xmlns="http://www.w3.org/2000/svg" xmlns:xlink="http://www.w3.org/1999/xlink" width="378.9" height="374" viewBox="0 0 284.2 280.5"><defs><style>*{stroke-linejoin:round;stroke-linecap:butt}</style></defs><g id="figure_1"><path id="patch_1" fill="none" d="M0 280.5h284.2V0H0z"/><g id="axes_1"><g id="PatchCollection_1"><defs><path id="m27b973cb24" stroke="#f4f4e2" d="M241.1-205.8v.5l-2 5-1.5 4.4-.7 2.2-.6 2.3-.6 2.2-.4 2.1-.2 2v2.1l.2.8.4 1.6.5 1.5.7 1.5.6 1 .7 1 .6.7 1.1 1.3 1.7 1.6 1.6 1.4 3.6 2.8 1.7 1.4.8.8 1.3 1.5.7.9.6.9.6 1 .6 1 .4 1 .6 1.7.4 1.6.3 2.4.4 4 .3 2 .3 2 1 5.3.6 2.9 2.4 7.9 1.2 5 1 3.6 1 2.6.4 1.2.6 1.3.5 1 .2.3-.1.5-.5.6-1 .5-1.8.5h-2l-1.6-.3-2.2-.8-1.6-.8-1.6-1-5.6-3.6-1.4-.8-1.3-.7-1.4-.6-1.3-.4h-2l-1.6.6-.8.5-.7.5-.6.7-1.2 1.4-1.8 2.6-4.3 6.8-2.1 3.4-2.8 3.8-1.6 2.2-.7.8-1 1-1.6 1.6-1.8 1.4-3.9 2.7-1.7 1.4-1.6 1.7-4 4.7-1 .9-.9.7-1.8 1.2-1.3.7-1.4.6-3 1-5.5 1.9-3.1 1.2-1 .5-2 1-3.3 2-4.2 3-3 2.4-2 1.6-1.5 1.4-1.5 1.6-4 4.1-1.6 1.5-1.9 1.8-2.5 2.1-1.3 1-1.5 1.1-1.6 1-1.1.5-1.1.4-.8.2-1.3.2-2.3.2-1.9.2-2.3.6-3.1.9-1.6.3-1.1.2-1.9.1h-5.6l-1.3.3-1.2.6-.3.2-.3.4-.4.8-.2.6-.2.7v2.1l.2 1 .9 4.5.5 2.9.4 3.8.2 2.8v4.8l-.2.5v.2h-.2l-3-.9-2.4-.7-2.5-.5-5-.8-2-.4-2-.5-6.8-1.7-3-.7-2.8-.5-4.6-.4h-.6l-1.4-.4-1.3-.4-1.3-.6-1.1-.6-1-.7-.8-.6-1.6-1.7-1.9-2.2L81-37l-2.6-3.6-2.2-3-1.8-2.2-3-3.5-4.4-5-1.6-1.8-1.4-2-4-6.4-1-2-.7-1.6-1.1-2.8-1-2-.7-1.5-1.2-2.2-.9-1.6-1.7-2.7-1.1-1.5-2.3-3L31.6-106l.1-.3.5-.6 3.7-4.6 2-2.8 1.2-1.7 1.1-2 .8-1.6.5-1 .4-1.1.2-1 .3-1v-1.3l.1-1.6v-1.5l-.2-1.5-.3-1.7-.6-1.9-.4-1-.5-1.1-1-1.8-.7-1-1-1.3-1.3-1.6-2-2.1-11-11.4-1.2-1.2-1-1.3-1-1.5-.3-.5-.3-.8-.2-1v-1.3l.3-.7.5-.9.7-.9.8-.7 1-.9 1.4-1 1.3-.8 1.2-.7 1.5-.7 3-1.3 2.5-1 5.6-2 2-.7 1.3-.6 1.8-1 1.9-1.3 1-1 .8-1 1-1.4 1.1-2 .8-1.4.8-1.9.3-1 .6-2.2.6-2.9.3-3 .1-1.8v-1.8l-.5-8.5-.1-5v-2.2l.1-3 .3-3.2.2-2.5.5-2.8.5-2.7 1-4.3.9-3.4 1-3.3.7-1.8.2-.4.5-.1 1 .2.9.4 6.7 3.3 2 .8 2 .8 2 .7 2 .5 2 .3 1.4.1h.9l2.1-.2 1.4-.3 3.8-1 2.6-.5 2.9-.3 1-.2 9-2.4 1.7-.5 1-.5.8-.4 3.7-2.2 1.2-.8 1.4-1.2.6-.6.7-.8 1-1.4.7-1 1.1-1.8 2.2-4.1.6-1.2.7-1 .9-1 1-1 1-.5 1.2-.5 1.2-.3 1.4-.1 1.6-.1h2.3l1.5.2 1.4.2 4.9-.7 1.9-.2h2.6l1 .2.7.1 1 .4 1.3.7 1 .7 2.4 2 1 .8.6.4.7.3.4.2 1.1.4 1.6.3h1l9 .8 3.5.3 3 .4 4.4.8 3 .6 1.7.5 1.5.5 2.6.8 3 1.2 15.7 7 2.4 1 1.4.8 1.2.7 1.7 1.2 1.4 1.1 1.2 1.1 1.2 1.2 1.1 1.1 2 2.3 1.3 1.9 1.5 2 5 7.6 1.7 2.3 1.2 1.6 1.3 1.5 1.4 1.4 1.1 1.1 2.2 2 2.6 2 1.5 1 1.4.8.5.2.6.1"/></defs><g clip-path="url(#p778f5b172e)"><use xlink:href="#m27b973cb24" y="280.5" fill="#f4f4e2" stroke="#f4f4e2"/></g></g></g></g><defs><clipPath id="p778f5b172e"><path d="M7.2 7.2H277v266.1H7.2z"/></clipPath></defs></svg>