<svg xmlns="http://www.w3.org/2000/svg" xmlns:xlink="http://www.w3.org/1999/xlink" width="219.1" height="374" viewBox="0 0 164.3 280.5"><defs><style>*{stroke-linejoin:round;stroke-linecap:butt}</style></defs><g id="figure_1"><path id="patch_1" fill="none" d="M0 280.5h164.3V0H0z"/><g id="axes_1"><g id="PatchCollection_1"><defs><path id="md0a519651b" stroke="#f4f4e2" d="M111.1-259.3v.2l.4.4.4.3 1.7 1 .8.6.7.6.6.6 1 1 .4.6 2.3 3 1 1.5.6 1 .7 1.2 1.8 3.4 1.7 3.2 1 1.8.9 1.5 1.8 2.8.4.6.7.7.5.5 4 3.5 1.2.9.7.5.7.4.8.3 2.5 1 1.4.5 1.2.6 1 .7 2.2 1.7 2.3 1.7.7.5.6.5.3.4.2.3v.4l-.4.4-.6.5-1.9 1.2-1.7 1-4.7 2.6-1 .7-1.3.8-.8.6-1 .8-.5.5-.8 1-.6 1-.6 1.2-.6 1.1-.4 1.2-.2 1.4v1.5l-.2 3-.1 1.4-.2 1-.4 1-.7 1.4-1.6 2.5-.4.7-1.9 3.4-.3.8-.2.6-.4 1.1-.2.7v1.1l.2 2.4v1l-.3.6-.4.5-1 1-.7 1-.5 1-.2.6-.2.7-.2 1.2-.3 2-.1 1-1 4-.4 2-.2 1v.5l.1 1.2.3 1.2.3 1 .6 1.4.5 1 1.4 2.6.7 1.4 1 2 .3 1 .6 1.6.5 1.5.4 1.6.4 1.5.3 1.6.2 1.7v1.8l.2 3.6v1.8l.3 1.7.3 1.4.3 1.4 1.3 4.2.2.8v.9l-.1 1.4-.2 2.4-.2 1.4-.3.9v.2l-.3.4-.5.8-.6.8-.6.6-.4.3-.6.3-.8.5-2 1-.7.6-1.4 1-1 1-.5.5-1.1 1.2-.6.7-.5.7-.5.8-.5.8-.2.5-.4 1-.3 1-.2.9v.7l.2 1.4.3.9.4 1 .7 1.1.8 1.2.9 1 1.1 1.2.8 1 .8 1 .6 1 .2.5.3.8.3.7.1 1v.8l-.4 1.1-1.2 2.3-.5.9-2.1 4.5-4 8.7-1.9 3.7-16.7 34.3-3.2 1-4.7 1.5-2.1.7-2.1.5-6 1.6-1.5.4-.8.4-1.3.5-2.4 1.2-.9.5-2.5 1.5-1 .5-.3.1h-.3l-.3.1h-.7l-.3-.2-.4-.3-.3-.2-.3-.3-.4-.6-.4-1-.3-1.1-.2-1.2-.2-1.3-.1-1.3-.3-5.9-.1-2.5-.2-1.5-.2-1.5-.2-1-.2-.8-.4-1.2-1-2.8-.6-1.4-.6-1.3-.6-1.3-.8-1.2-.4-.6-.7-.8-.6-.7-.5-.3H57v.1l-1.9-4-1.1-2.4-1.3-2.3-1.2-2-1-1.4-2-3.1-2.5-3.8-1-1.5-1.6-2.1-3.8-5-1.5-2-.7-1-.5-1-.7-1.5-.4-1.1-1-3.2-1-2.7-.4-1.3-.4-1.6-.3-1.2-.1-1.2v-5.8l-.5-3.4-.2-1.9-.2-2.6v-3.1l.3-1.6.2-1.5.3-1.1.2-.6.4-1 .5-1 .6-1.2 1.4-3 .7-1.4.3-.9.3-.8.1-.7.2-.9.1-1v-1.3l.1-1.8v-1.9l-.3-2-.2-2-.4-2.3-.3-1.5-.5-2-.4-1.5-.4-1.5-.4-1.2-.4-1.2-1.8-4-.5-.8-.4-.5-1.6-1.9-.6-.8-.6-1-.9-1.7-1.7-3.2-2.9-5.7-1.6-3.1-.8-1.5-1-1.5-1.2-1.9-1-1.2-1.4-1.6-1.5-1.7-.7-.7.2-.1.1-.2.2-.6.2-.6.1-1.6.1-.5.3-.7.4-.8.7-1 .8-1.1 1.1-1.3 1.3-1.5 2.9-3 2.4-2.4 1.5-1.4.9-.8.9-.8 3-2.2 1-1 1-.9.8-.8.3-.3.6-.9 1.2-1.9.7-1.4 1.2-2.2.4-.8.5-1.3.3-1 .1-.5v-.3l.5-.1 1.2-.6 1.6-.7 1.8-1 1.9-1 1.9-1.1 2.4-1.6.8-.6 3.4-2.6 1.7-1.2 1-.6 1.7-1 1.8-.7 1.7-.7 1.7-.5 1.7-.3 2-.3h1.4l1.1-.1 5.3.1h3.4l1.8-.3h.8l1.6-.4 1.5-.4 1-.2 1-.4.8-.4.6-.3.6-.4.8-.7.6-.8.5-.6.4-.8.3-.8.2-.7v-1l.1-.9v-1.2l-.2-1.2-.3-1.3-.3-1.2-1.1-3-.4-.9-.2-.8-.2-.8-.2-1.3.1-1.5.3-1 .2-.6.5-.8.6-.6.7-.6 1.2-.8 1.4-.8 1.3-.5 1.1-.4 1.5-.4 1-.2 1.5-.2 1.6-.1h1.2l1.3.1 1.4.2 1.4.3 1.3.3 1.5.5.8.3.3.2"/></defs><g clip-path="url(#p6f48487b6c)"><use xlink:href="#md0a519651b" y="280.5" fill="#f4f4e2" stroke="#f4f4e2"/></g></g></g></g><defs><clipPath id="p6f48487b6c"><path d="M7.2 7.2h149.9v266.1H7.2z"/></clipPath></defs></svg>