<svg xmlns="http://www.w3.org/2000/svg" xmlns:xlink="http://www.w3.org/1999/xlink" width="210.1" height="374" viewBox="0 0 157.6 280.5"><defs><style>*{stroke-linejoin:round;stroke-linecap:butt}</style></defs><g id="figure_1"><path id="patch_1" fill="none" d="M0 280.5h157.6V0H0z"/><g id="axes_1"><g id="PatchCollection_1"><defs><path id="m86b1239f93" stroke="#f4f4e2" d="m85-233.4.3.8v.1H85l-.3.3v.4l-.1.8v.9l.2.7.1.8.6 2.7.2 1 .1 1 .1 1v3.8l.2.8.2.8.3 1 .4 1 .4.9.5.9.6.9.5.9 1.2 1.8 8.3 12.3 11.2 16.7v.2l2.8 3.9 1.3 1.8.7 1 .5.9.6 1 .4.8.4 1 .3.8.2 1v.5l-.1 1-.2.9-.2.5-.3 1.1-.4 1-.6 1.4-1 2.1-1.3 2.7-1 2.1-5.4 10-1 2-1.7 3-1.8 3.2-1 2-.8 1.5-.4.8-.4 1-.3.7-.3.6-.2.7-.1.5-.1.4v1.6l.2.5.3.5.2.3.2.2.2.2h.2l.5.3 1.2.4.7.2.4.3.3.1.4.3.2.2.2.3.8 1 1 1 1.2 1.3 2.5 2.4 1.4 1.5.8.8.5.5.6.8.7.9.5.6.5.7.4.7.8 1.4.7 1.3.6 1.3.5 1.1.2.7.3.8.2.9.2.5.2.6.4.8.4.7.5.6.6.5.5.5.7.3.6.3.9.2 1.2.2.6.2.4.2.8.6.4.2h1.2l1.6-.3.8-.1h2.4l.8.2.6.2.9.2.7.2.8.3.6.2 1.3.5 1.3.6 1.2.6.7.4.8.5.6.6.5.5.4.5.3.8.2.8v2.9l-.3 1-.2.8-.2.8-.4 1.5-.5 1.3-.6 1.7-.5 1.3-.4.9-.5 1-.4.8-.5.7-.4.6-.4.5-.3.5-.4.4-.5.5-.5.4-.7.6-.7.4-.7.5-1.4.7-3.5 1.8-.4.2-.4.3-.2.1-.2.2v.3l-.8.4-.8.4-.8.4-.8.5-.7.6-.6.5-.2.3-.2.4v1.1l.1.4.3.8.6 1 .1.4.2.3.4 1.3.7 2 .1.4.2.7.1.5v.4l.1.5v.8l-.2.9v1.5l.2.5.7 1.5.2.6.2.7v1.2l-.1.6-.3.6-.3.4-.4.4-.8.5-.9.7-.4.2-.7.4-.4.2-.5.2-.5.1-.5.1-1 .1h-2l-1-.2-1.5-.2h-.4l-.2-.1-.2-.5-1-2.4-.6-1-.3-.7-.6-.8-.4-.5-.3-.3-.2-.1-.3-.2-.2-.1-.8-.3-.9-.2h-1.9l-1 .2-1 .1-3 .6-.9.1-1 .1-1 .1h-3.9l-.5.2-.5.3-.5.3-1.5 1-1.2.7-1.3.8-1.8 1.3-.5.3-2.3 1.8-1.3 1-.6.6-.6.6-1 1.3-.4.5-.3.2-.5.5-1.7 1.4-1.2.9-.7.7-.8.8-.5.5-.4.6-.5.7-1.2 1.5L73-28l-.5.7-.1.2-.4.3-.2.2h-.4l-2.2 1-2 .8-1 .4-1 .4-1.1.3-1 .2-1 .2h-2l-1.1-.2-1-.2-1-.2-1-.3-.8-.3-2-.6-6.2-2.2-1.7-.5-.9-.3-.8-.2-.9-.2h-.8l-.7-.1h-.8l-.6.2-.4.3-.5.4-.5.6-.4.5-.3.5-.6 1-.5.8-.7 1.5-.4.6-.4.6-.4.5-.5.5-.5.4-.6.4-.4.2h-.3l-.5.2-.6.1h-.5l-1 .1h-1.4l-.7-.1-.7-.1-.8-.2-.9-.1-.9-.3-1.8-.4-.8-.3-.8-.2-1.7-.6h-1.1l-.8-.2-.9-.1-.8-.3-.7-.3-.6-.4-.2-.2-.2-.4v-.4l-.2-.4V-26l.2-1.2.3-2.5.3-1.6.5-3 .1-1v-.5l.1-.6v-1.3l-.3-1.2v-1.9l.2-.5.2-.3.3-.3.1-.2.5-.4.4-.4 3.5-2.7 1.1-.8 1-.6 1.9-1.1 1-.6.9-.5.8-.4 3.5-1.4.7-.4.6-.3.5-.5.3-.4.2-.4.2-.6.1-.6v-1.4l-.2-1.1v-.6l-.3-.9-.4-1.2-.3-1-.3-.8-.3-.8-.4-.7-1-2.2-1.6-3.4-2.1-4.3-1-1.8-.5-1.2-1.4-3.2-1-2-.4-.8-.4-.7-1-1.4-.4-.6-.3-.6-.4-.7-.3-.7-.2-.7-.2-.5v-.3l.2-.2.7-.4 1.3-.7.7-.3.3-.2h.4l.5-.2 3-.6.7-.2 1.3-.3 1-.3 1-.3 1.1-.4.6-.3.6-.3.7-.4.3-.2.6-.4.5-.5.3-.3.6-.8.5-.4.2-.2.3-.1.5-.2h1.3l1.8.1h.9l.5-.2.4-.2.3-.4.1-.2.1-.4v-.5l.1-.7v-2l-.1-.5-.2-.7-.2-.5-.4-1-.2-.4-.4-.6-.3-.5-.2-.4-.3-.3-.3-.3-.4-.4-.4-.3-1.3-.8-.7-.5-.3-.3-.2-.2-.3-.4-.3-.4-.4-.7-.3-.6-.2-.6v-1.2l.2-.6.4-.5.4-.5.6-.5.7-.5.7-.4.4-.2 3.7-2 2.5-1.3 1.4-.9.7-.4.7-.5.6-.5 1-.9L51-124l1.3-1.1 1.3-1.1 1.3-1.1.6-.5.4-.4.3-.6.2-.5v-1.7l-.2-.6-.1-.5-.2-.5-.4-1.2-1.4-3.2-.3-.8-.3-1-.3-1-.2-1v-1l.1-.8.2-.8.3-.8.4-.8.4-.9 1.9-3.3.4-1 .4-.8.4-.9.3-.8.1-.9v-1.4l-.2-.5-.3-.3h-1.1l-.4.2-.6.2-.7.3-.4.2-.4.2-.9.7h-.2l-.3.2-.2.1-.3.1H51l-.2-.1-.2-.1-.1-.1-.3-.3-.2-.3-.2-.3-.2-.4-.3-.8-.3-1-.3-1.3-.7-2.8-.8-4-.2-.9-.2-.9-.2-.8-.2-.5-.3-.7-.5-1-.3-.6-.4-.6-.4-.7-.4-.6-.5-.8-.4-.4-.4-.5-.3-.3-.3-.3-.3-.3-.3-.2-.2-.2h-.2l-.2-.1-.7-1.7-.3-1-.2-.5v-.7l-.1-.5v-.4l.1-.7.2-.6.2-.5.2-.4.4-.6.3-.4 1.3-1.8.5-.8.3-.5.2-.6.1-.2.1-.5.2-.7v-1l.2-2.3v-2.5l-.3-2.9v-2.2l.1-.6.2-1.2.1-.7.2-.6.1-.7.5-1.6.7-2.2.1-.6.1-.5v-1.5l-.3-.7-.4-.7-.5-.6-.4-.4-.6-.4-.5-.3-.9-.1h-1.8l-1 .3-3 .7-1 .2h-.9l-.8.1-.8-.1-.7-.3-.6-.4-.4-.6-.3-.6-.1-.5-.1-.4v-.2L34-216l2.7-1 6.2-2.5 1.5-.6 1.2-.6.9-.4 1-.5.4-.3.6-.4.3-.3.3-.3.5-.5.2-.5.1-.2.1-.7v-.7l-.2-.8-.3-.7-.4-1.1-1.7-3.5-.8-1.9-1.3-3-1.2-3-.3-1-.4-1-.3-1-.3-1-.2-1v-.5l-.1-.6v-1.5l.2-.7.2-.8.3-.7.4-.7.5-.8.6-.8.6-.7.7-.8.7-.7 1.4-1.4 1.4-1.4.7-.6.8-.7.8-.6.7-.5.8-.5.8-.4.9-.4.8-.2 1-.3.9-.1.9-.1 1-.1h.9l1-.1h1.9l1 .1 1 .1 1 .2 2.1.3 3.1.6 2 .4 1 .2 1.1.3 1 .2 1 .3.9.4.5.2.5.3.4.2.4.3.4.4.5.5.5.6.4.6.4.7.4.9.3 1 .2.9.3 1 .2 1 .1 1 .1 1 .1 1v1.9l-.2 3v1.6l.1 1.2.1 1.1.4 2.2.3 2"/></defs><g clip-path="url(#p25395b1459)"><use xlink:href="#m86b1239f93" y="280.5" fill="#f4f4e2" stroke="#f4f4e2"/></g></g></g></g><defs><clipPath id="p25395b1459"><path d="M7.2 7.2h143.2v266.1H7.2z"/></clipPath></defs></svg>