<svg xmlns="http://www.w3.org/2000/svg" xmlns:xlink="http://www.w3.org/1999/xlink" width="394.7" height="374" viewBox="0 0 296 280.5"><defs><style>*{stroke-linejoin:round;stroke-linecap:butt}</style></defs><g id="figure_1"><path id="patch_1" fill="none" d="M0 280.5h296V0H0z"/><g id="axes_1"><g id="PatchCollection_1"><defs><path id="m3a9f5214ba" stroke="#f4f4e2" d="m223.2-254.2.2.5.7.6 2.2 1.7 1.4 1 1.5 1 1.6.8 1.4.5 1.3.4 1.2.3 5 1 2 .6 2 .8 1.7 1 1.5 1.2 1.2 1.4 1 1.6.8 1.7.4 1.3.8 3.3 3.5 12.4 3.2 11.5 1.1 3.6 1 3.3 3.1 9.7 2.7 8.6 1.5 4.7 1.4 4.8 1.3 5 2.4 10.4.7 2.5.7 2.5.7 2.1.7 1.8.6 1.3.3.5-.2.5-.6 1.5-3.9 12-.7 2.4-.9 2.3-.8 2.2-1 2-1.1 1.8-1.4 1.6-.6.6-.6.5-1.6 1-1.8.8-1 .4-1.1.3-1.3.2-4.8 1-1.2.3-1 .2-1.3.5-1.6.8-.6.4-.7.5-1.1.9-1.1 1-.8 1-.8.9-.9 1.2-.7 1.2-1 1.9-.6 1.6-.3 1.3-.3 2v2.4l.1 2.6.2 1.6.7 4 1 5 1.1 6 .7 3.2.7 2.7.5 2 .6 2 .5 1.4 1 2.5.3.7.2 1v3.2l-.3 2-.1 1.6v3.2l-.1 2.8-.2 1.2-.2 1.2-.5 1.4-.6 1.3-.4.8-.4.6-1.9 2.3-.7.9-.9.9-.8.6-1.3 1-1.6.8-1.5.7-1.5.6-1.7.6-1.2.3-2.5.7-3 .6-3 .4-1.6.2-3 .1H215l-1.2-.1-6.4-.8-2-.2h-3.6l-1.9.2-1.1.3-1.2.5-1 .6-.8.6-1 1-1 1-1.4 1.5-2.9 3.7-1.8 2.3-2.5 2.9-.4.3-.2.2-.4.3-.7.4-.8.3-.8.3-1.7.3h-1.7l-.4-.2-.8-.3-1.2-.8-1.3-1.2-1.3-1.6L170-28l-1.3-1.7-1-1.1-4.3-5-1-1.3-1.6-2.1-1.3-1.8-1.8-2.7L156-47l-1.5-2.8-3.7-7.5-2-3.8-1.7-3-2.6-4.5-1-1.8-1.4-2.1-1.6-2.2-1.5-2-1.2-1.5-2-2.4-1.2-1.3-1.9-2-2.3-2.2-1.7-1.5-4.3-3.7-4.6-4-9.4-8.5-9.2-8.1-4.9-4.5-1.5-1.4-1.6-1.4-1.3-1-4.8-3.6-3.4-2.8-1.3-.8-1.2-.6-1.3-.6-1.4-.6-1.5-1-1.5-1.4L74-133l-1.5-1.6-1.5-1.7-5.3-6.4-2.4-2.7-1.2-1.3-1.3-1.2-1.3-1.2-1.3-1-1.3-.9-1-.5-.8-.4-2-.4h-1.4l-1.6.3-1.8.5-1.9.9-6 3-1.6.7-1.4.6-1 .3-1.6.5-1 .2h-1.7l-.9-.1-.6-.2-.7-.3-.7-.5-.8-.8-.6-.7-.9-1.2-1.2-1.8-1.3-2.2-1.5-2.5-.7-1.2-.6-1.4-.5-1-.5-1.5-.5-2-.1-.9v-1l.4-2 .8-1.9.8-1.5 1.6-2.7 2.7-4.1 1.6-2.6 1.3-2.2 1.2-2.3 1.1-2.3 1-2.3 1-2.4.4-1.1.7-2.5.4-2.4.1-2.4v-1.1l-.4-2.1-.3-1-1.6-4-.2-1-.2-.6v-.8l.2-.6 1.1-9 .2-1.2.2-.9.2-.4.1-.3.5-.7.7-1 4.6-6 5.6 6.6 1.5 1.6 1.4 1.5 1.5 1.4 1.7 1.5 1.5 1 1.5 1 1.2.7 1.6.6 5.6 2 2 .7 2 .6 3.8 1 6.5 1.4 1.3.4 1 .4 1.6.7.7.4 1.2.8 1.3 1 2.6 2.2 1.5 1.2 1.6 1.2 1.6 1 1.3.6.8.3.6.1.6.1H97l1.8-.5 1.8-.7 1.9-.8 1.8-1 2-1.2 7.8-4.9 2-1.2 1.8-1 3.4-1.8 10.4-4.9 2-1 2-1 2-1.3 1.9-1.3 1.9-1.4 1.8-1.5 3.6-3.2 8.8-8 1.8-1.6 1.8-1.4 1.8-1.4 1.8-1.3 1.9-1 2.5-1.3 9.6-4 1.4-.6 1.8-.6 1.4-.5 8.7-2.3 2.1-.5 2.8-.5 1-.3 1.8-.6 1-.5 1.2-.6 1.5-.8 5.8-3.5 1.7-1 1.7-.8 1.7-.7 1.6-.5 1.5-.1 1.4.2 1.5.7 1.4 1.2 1.3 1.4 1 1.5.7 1.3.3.7"/></defs><g clip-path="url(#pf34bc12685)"><use xlink:href="#m3a9f5214ba" y="280.5" fill="#f4f4e2" stroke="#f4f4e2"/></g></g></g></g><defs><clipPath id="pf34bc12685"><path d="M7.2 7.2h281.6v266.1H7.2z"/></clipPath></defs></svg>