<svg xmlns="http://www.w3.org/2000/svg" xmlns:xlink="http://www.w3.org/1999/xlink" width="379.4" height="374" viewBox="0 0 284.6 280.5"><defs><style>*{stroke-linejoin:round;stroke-linecap:butt}</style></defs><g id="figure_1"><path id="patch_1" fill="none" d="M0 280.5h284.6V0H0z"/><g id="axes_1"><g id="PatchCollection_1"><defs><path id="mc198940cd2" stroke="#f4f4e2" d="M184.2-261.1v9l.1 2 .3 1.8.4 1.9.7 2.9.8 2.2 1 2.2 1.6 3.5 1.3 2.5 1.8 3 1 1.7 1.2 1.7 1.7 2.2 2 2.3 1.8 1.7.7.6 1.9 1.3 1.3.7 2 1 1.4.5 3.8 1.5 2.1 1 6.6 3.8 1 .7.7.5.8.8.7.9 1 1.8.2 1.2v1.2l-.1 1-.4 1-.8 1.2-1 1.2-1.3 1.3-1.5 1.2-1.5 1-1.8 1.1-2.4 1.3-2 .8-2 .9-7.4 2.7-4.2 1.7-4.5 2-6.3 3-3.3 1.3-2 .7-1.5.4-5.1 1.2-3.4 1-3.5 1.1-2.5 1-2.7 1-2 1-2 1.2-1.2.8-1.2 1-1.2 1.1-1 1.4-.7 1.8-.3 1.6-.2 2v1.4l.2 1.5.2 1.2.3 1.4.4 1 .6 1.5.8 1.4 1 1.5 1.3 1.7 2.1 2.6 1.4 1.5 2.8 3 2.9 2.5 1.6 1.3 2 1.3 1.3.7 2 .6 6.3 1.3 2.9.9 5.4 2 1.8.6 2.6.6 2.6.1 1.6-.2 1.7-.4 1.5-.5 1.5-.6 7.5-3 8-3 2.4-.8 2.6-.7 2.9-.6 2-.2h1.7l3.1.3 1.8.4 1.5.5 1.6.7 2.4 1 2.8 1.7 4.4 2.6 1.1.6 1 .3 1 .2h.7l.9-.1.6-.4.5-.5v-.2l.6 1.5 1.2 2.2.9 1.5 2.2 3.4 4.6 6.5 1.5 2.4.8 1.7.5 1.3.2.9.2 1.2v1.2l-.4 1.4-.3.6-.8 1.2-1.3 1.1-1.8 1-1.6.5-1 .2-1.5.2h-2.8l-2.4-.4-1.8-.5-1.6-.6-2.1-.8-4.7-2.1-1.5-.6-2.1-.6-2.2-.4-1.4-.2h-3.6l-1.2.1-2.7.6-1.5.4-1.7.7-1.8.8-2.1 1.3-1.3.9-1 1-1.2 1.1-.8 1.3-.5 1.1-.3 1.3v1.6l.5 2 .8 1.7.9 1.1 1 1L219-90l1.7 1 1.5.6 1.7.6 2 .5 1.4.2h1.4l1.6.2h4.6l3.6.1 2.8.3 2 .3 2 .3 2.3.7 1.7.7 1.3.6.6.5.7.5.7.7.7 1 .5.8.4.9.3 1.1.3 1.4.2 1.3v2.8l-.3 2.4-.5 2.6-.3 1.2-.5 1.6-.5 1-1 2-.6 1-1.6 2.3-.8 1-1.3 1.4-1.3 1-1.4.8-1.5.6-1.1.4-1.7.3-1.4.2h-5.4l-2.2-.4-1.5-.2-1.4-.3-2.4-.7-2-.7-2.1-.8-2.3-1.3-2.5-1.5-1.6-1.3-4.1-3.7-.7-.6-1.7-1.1-1.2-.7-1.5-.6-2.6-.8-2.9-.4H199l-2.3.3-2.9.7-2.3.9-1.8 1-2.2 1.3-1.9 1.5-1.8 1.6-1.3 1.3-1.7 2-1 1.6-1 1.4-.7 1.5-.8 2-.6 2-.3 1.6-.2 1.2v2.9l.3.3-.4 1.7-.6 1.8-.8 2.3-.7 1.7-1.4 2.9L171-30l-1.6 2.4-2 2.7-1 1.2-.9.7-1 .8-2 1.2-1.4.8-.8.4-1.2.3-.6.1h-.6l-.9-.1-.8-.2-1.8-.7-2.3-1.2-5-3-3.8-2.5-4-3-8.2-6.4-4-3-3.4-2.5-3.2-2.1-3.2-1.8-3.4-1.8-5.2-2.3-6.4-2.7-2.3-1-2.8-1.4-2.3-1.4-2-1.4-2.3-1.9-1.9-1.8-1.8-2.1-2-2.7-1.9-3-1.8-3.3-2-3.7-1-2.4-1.2-3-.6-2-.5-2.7-.4-2.3V-93l.2-2.2.4-2.4.5-2.2.9-3.9L79-110l.2-1.1.1-1v-1.7l-.1-.7-.2-.6-.2-.5-.7-1-.9-.9-.9-.5-1-.5-1.3-.4-1.5-.3-2.1-.2h-5l-1.4.3-2.3.3-2 .5-2 .6-2 .7-1.9.9-2 1-1.2 1-.2.2v.3h-.1l-.3.1-.6-.1-.6-.2-1-.4-1.4-.8-1-.6-1.3-1-1.3-1-1.1-1-1-1.1-2-2.2-1.1-1.5-1-1.7-.8-1.8-.2-.5-.2-1v-1l.1-1.7.3-1.2.6-2.3 1.3-3.6 1-2.4 3-6.3.8-2 .7-1.7.7-2.2.8-2.7L46-161l.6-2.1.7-2 1.6-3.3.5-1.2.5-1.6.5-2.2.3-2v-2.2l-.2-.6-.2-.8-.7-1-.8-1-1.1-1-1-.8-1.9-1.1-3-1.6-4.6-2.6-2.4-1.3-4-1.7-3-1.1-2.7-.8-5-1-.5-.1-.2-.1 1-5 .8-3.8.7-2.5.7-2.2L24-211l1.3-2.9 1.7-3.4 2.5-4.3 4-6.5 1.3-2.5.9-2 .6-1.9.4-1.6.4-2.2.6-4.4.6-2.6.4-1.5.5-1.2.5-1 1.1-1.6 1-1.1 1-1 1.2-.9 2-1.2 2-1 1.7-.7 2.6-1 3.1-1 2.7-.8 1.5-.4 2-.3 1.8-.2H65l1.5.2 2.3.5 2.2.7 2.2 1 1.7 1 4.4 2.9 1.9 1.1 2.5 1.3 1.9.8 1.3.4 1.7.4 1.8.4 2.7.4 3.2.3h7.4l3.9-.5 3.9-.7 4.2-1 5.1-1.3 8-2.2 2.2-.8 5.3-1.9 1.7-.5 3.3-.9 2.6-.4 1.7-.1h2.2l3 .2 6.8 1 1.8.2 2.8.2h1.9l1.8-.2 2.7-.4 3.5-.8 4.8-1.2 3.7-.7 2.5-.4h1.1"/></defs><g clip-path="url(#pdba2365551)"><use xlink:href="#mc198940cd2" y="280.5" fill="#f4f4e2" stroke="#f4f4e2"/></g></g></g></g><defs><clipPath id="pdba2365551"><path d="M7.2 7.2h270.2v266.1H7.2z"/></clipPath></defs></svg>