<svg xmlns="http://www.w3.org/2000/svg" xmlns:xlink="http://www.w3.org/1999/xlink" width="304.1" height="374" viewBox="0 0 228.1 280.5"><defs><style>*{stroke-linejoin:round;stroke-linecap:butt}</style></defs><g id="figure_1"><path id="patch_1" fill="none" d="M0 280.5h228V0H0z"/><g id="axes_1"><g id="PatchCollection_1"><defs><path id="m32299a0ac7" stroke="#f4f4e2" d="m159-250.5.8.9 2 2 1.6 2 1.2 1.5 1.5 2.2 1.1 1.8 1 1.8 2 3.8 3.5 7 2 3.8 1.2 2 .7 1.2.7 1.1 2 2.2.5.7.5.8 2.2 5 .5 1.5.5 1.3.5 1.9.5 1.8.5 2.4.4 1.8.4 2.7.4 2.6.2 2.4.1 2.3v2.2l-.1 1.5-.1 1.3-.2 1-.2 1-.3 1-.4 1-.8 1.7-1.8 3.5-.7 1.5-.6 1.2-.5 1.2-.2.8-.4 1.4-.3 1.7-.2 2v3.7l.1 3.2.3 2.3.5 4 .1 2v.7l-.1 3.1v1.4l.2 1.4.3 1.4.6 2 .5 1.6 1.1 3.2 1.3 3.9.5 1.4.8 1.8.6 1.1.8 1.3 1.8 2.4 4.7 6 2 2.6 1.2 1.9 3 4.5 2.5 3.8 1 1.7 1.6 2.4 1.5 2.8 1.4 2.8 2.2 5-3.2 2.2-1.8 1.3-1.2 1-.8.7-1.3 1.3-1.6 1.6-1.9 2-1.1 1.4-1.8 2.2L195-75l-1.5 2-2.3 3.3-5.6 8.4-1.3 1.8-1.6 2.2-1.5 2-1 1-1 1-.9.7-.7.6-1 .6-.8.5-1.3.6-1.3.5-1.3.3-.8.2-1 .1h-3.8l-1.1-.1h-.8l-1.5.2-1 .3-1 .3-1.4.8-.6.3-1 .9-.9.7-.7.8-.8.8-1 1.3-1.3 1.7-3.5 4.9-2 2.6-1.5 1.6-1.1 1.3-1.3 1.2-1.5 1.4-1.5 1.4-1.5 1.2-1.8 1.4-2.6 1.8-1.4.8-1.6.9-1.3.6-1.4.5-1.3.3H126l-1.2-.3-2-.6-1-.3-1.1-.6-3.6-2.1-8.2-4.6-3.5-2-1.8-1-1-.5-.8-.3-3.4-1.2-.1-.3-.5-.7-4.5-6.2-1.4-2-.3-.6-.9-1.6-.5-1.2-.2-.7-.3-2-.1-1.8V-53l.4-2 .5-4.7V-62l-.4-1.6-1-3.7-.5-1.5-.3-1.5-.2-1.5v-2.9l.3-1.2.4-1.1.8-2.1.7-1.7 1-1.8.4-.8 1-1.4 1.2-1.5 2.7-2.6 1.2-1.3 1-1.3.5-1.4v-1.6l-.3-1.6-.6-1.5-.5-.9-.6-1-.9-1.4-.4-.6-.6-.7-.5-.6-1.3-1.1-1.2-1-3.9-2.7-4.8-3.5-.7-.5-.5-.4-1.3-1.2-1.2-1.3-1.1-1.4-1-1.3-.7-1.2-.7-1.3-.7-1.3-.6-1.3-.4-1.1-.3-1-.4-1.3-.3-1.8v-1.5l-.1-1.3v-1.8l.2-1.8.2-1.4v-.8l.3-.9.4-1.2.2-.6.5-1 .8-1.3.9-1.2 1.9-2.4 1-1.3.5-1 .7-1.4.4-1 .3-1 .1-.5.1-1.2-.1-1.3-.3-1.5-.4-1.1-.5-1.2-.5-1.2-1.2-2.2-1.1-2-.7-1-1.9-2.7-1.8-2.7-6.2-8.5-1.4-1.7-1.5-1.7-1.5-1.6-3.3-3.2-1.7-1.5-3.5-3.1L48-196l-3.5-2.8-3-2.5-2.6-2-4.5-3.3-2.8-2-2-1.3-2.4-1.6-2.7-1.5-2.5-1.3-2.4-1.2-1.6-.7-.7-.2-.3-.1.2-.3.4-.7.4-.7.1-.5.2-1v-.5l.8-2.1.4-1.8.2-.6.2-.4.4-.3.3-.2 1.1-.5.6-.4 1.2-.8 1.3-1 1.8-1.2 3-1.9.4-.4.2-.2.2-.2.2-.6.1-.8.8-4.6.4-1.5.5-1.7.7-1.8.9-1.6 1-1.3 1.2-1.1 1.1-.8 1.1-.6 1.6-.6.8-.2 1.4-.2h6.9l1.4-.3 1.4-.4 1.3-.4 1.7-.7 1.7-.8 1.6-1 1.3-.9 1.2-1 .8-.8.7-.9 1.5-2 .5-.7.8-.9.6-.5.3-.2.4-.1h.4l.8.5.7.9.7 1.2.7 1.5.7 1.6.7 2 .8 2.2 1.5 4.7 1.8 6 2 6.7.9 2.9 2.3 6.4 1.3 3.8 1.6 4 .9 2 .8 1.9 1 1.7.8 1.6 1 1.4.6.7 1.2 1 1.4.7h1.3l.7-.2.7-.2.8-.4.6-.3.8-.6 1.7-1.2 4.3-3.6 3-2.4 3-2.2 2-1.5 2.6-1.7 2.4-1.5 3-1.8 7.3-4.2 2.7-1.4 6-3.2 2.6-1.4 1.4-.8 2.3-1.5 1.3-.9 2.7-2 5.8-4.4 4.3-3.3 4.8-4"/></defs><g clip-path="url(#p9c60e047ec)"><use xlink:href="#m32299a0ac7" y="280.5" fill="#f4f4e2" stroke="#f4f4e2"/></g></g></g></g><defs><clipPath id="p9c60e047ec"><path d="M7.2 7.2h213.7v266.1H7.2z"/></clipPath></defs></svg>