<svg xmlns="http://www.w3.org/2000/svg" xmlns:xlink="http://www.w3.org/1999/xlink" width="495.4" height="369" viewBox="0 0 371.5 276.7"><defs><style>*{stroke-linejoin:round;stroke-linecap:butt}</style></defs><g id="figure_1"><path id="patch_1" fill="none" d="M0 276.7h371.5V0H0z"/><g id="axes_1"><g id="PatchCollection_1"><defs><path id="m1ee443f296" stroke="#f4f4e2" d="m348-215.7-.3 2.4-.3 4.6-.3 2.6-.6 2.5-1 3-1.6 3.8-2.7 5.9-2 4-3 5.6-1.3 2.8-1 2.7-3.3 10-1 3-1 2.1-1 1.8-.8 1.2-1 1.3-1.5 1.3-2.3 1.5-1.8 1-6.8 3.3-2 1.2-2.4 1.7-3.4 2.8-1.9 1.5-4.2 2.7-2.6 1.4-2.8 1.3-3 1.2-4.4 1.6-4.6 1.2-4.3.9-4.5.7-8.8 1-20.4 2.1-5.5.8-2.8.5-2.7.6-3.1.8-3 1-3.5 1.4-3.3 1.7-3.2 2-3.2 2.5-3.2 3.1-3.4 4.1-1.6 2.5-1.5 2.4-3.7 7-3.7 6.6-1 1.8-1.3 1.8-.3.1-.6.5-.6 1.6-.6 2.4-.6 3-1 7.5-.4 2.6-1.2 4.7-1 3-1.9 4.8-1 2.6-5.2 11.3-2 5-3.3 9.3-1.4 3.4-1.7 3-1.4 1.7-1.6 1.1-2.1.7H164l-2.6-.5-1.3-.4-3.5-1.4-3.7-1.8-3.8-2.1-3.9-2.3-8-5.2-5.3-3.8-8.2-6.6-2.6-1.9-3.7-2.1-12.5-6-6.5-3.4-4.2-1.9-2.4-.9-10-3-3.2-1.1-4.2-1.7-3-1.5-4.9-2.8-1.7-1.2-3.9-2.7-3.5-2.8-12.5-10-3.2-2.3-3.1-2.1-2-1.3-2.5-1.4-2.4-1.2-2.2-1-1.6-.4-.9-.2h-2l-.6.6-1 .6.6-3.9.3-1.2.6-1.6 2.4-4.5 2.4-5.2 2-3.3 1.1-2 1.4-3 1.3-3.3 2-5.3 1.8-5.3 1-3.6 1.2-5.4.7-2.1 1.3-3.2 1-1.9.9-1.4 1.4-.2 2.4-.7 2.2-.7 5.6-2.1 2.2-.7 2-.4 3-.5 7.5-.7 6.2-1 7.4-1 3.4-.5 2-.5.9-.5 1.4-1 .6-.5.6-.9.4-.9.1-1-.1-1-.3-1.2-.4-1.2-2.2-5.2-1.1-3-.9-2.8-1.6-5.6-.7-3.4-.2-1.6-.3-2.4v-3.2l.3-2.6.5-3.3.7-2.6 1-2.3 1.2-1.5 1.2-1.2 1.6-.9 1.8-.2 2 .4 1 .3 3.6 1.6 5 2.5 4.7 2 3.4 1.4 3.6 1.2 3.6 1 15.1 3 3.6.5 3.5.2 3.6-.1 4.5-1 4.5-1.6 4-2 2.9-1.6 3.7-2.6.8-.8-.1.5v1l.4 1.9.8 1.8 1.2 1.6 1.6 1.2 2 .4 2.1-.3 2.4-.7 2.5-1.1 2.6-1.4 2.6-1.6 5.3-3.4 14.2-9.5 5.7-3.5 14.1-8.5 5.5-3.4 5.4-3.7 2.5-2 3-2.5 5.7-5.3 1.7-1.4 2.4-1.7 1.5-1 2.4-1.2 2.4-1.3 4.2-1.9 3-1.2 3.1-1 3.1-.7 2.4-.2 2.4-.2h2.7l9.7.4 3.3-.1 3-.3 2.5-.5 1.9-.6.7-.5.4.2 1.2.8 1.8 1.6 1.7 2 2.5 3.2 3.5 3.9.9 1 .7 1.2.4 1.2.2 1.1v1.1l-.4 2.5-1 4.1-.3 1.4-.2 2.3v1l.3 1.4.4 1.4.7 2 .6 1.4.6 1.2.7 1 1.2 1.6 2.2 2.1 1.1 1 1.6.9 2.4 1.2 6 3 1.2.4 1 .3.9.1h.8l.7-.1 1.8-.8 1.2-.7 3.8-2.8 1.4-.8 1.4-.6 1.5-.4h1.3l1 .2.6.3"/></defs><g clip-path="url(#p6eed7176e4)"><use xlink:href="#m1ee443f296" y="276.7" fill="#f4f4e2" stroke="#f4f4e2"/></g></g></g></g><defs><clipPath id="p6eed7176e4"><path d="M7.2 7.2h357.1v262.3H7.2z"/></clipPath></defs></svg>