<svg xmlns="http://www.w3.org/2000/svg" xmlns:xlink="http://www.w3.org/1999/xlink" width="495.4" height="355.4" viewBox="0 0 371.5 266.6"><defs><style>*{stroke-linejoin:round;stroke-linecap:butt}</style></defs><g id="figure_1"><path id="patch_1" fill="none" d="M0 266.6h371.5V0H0z"/><g id="axes_1"><g id="PatchCollection_1"><defs><path id="m9ec4cf309e" stroke="#f4f4e2" d="M269.3-239.1h-.1l-.4.5-1 1.4-.6 1.3-.5 1-.5 1.5-.3.9-.4 1.6-.4 1.6-.2 1.8v1.1l.2 1.2.2.8.4.7.6.8.3.3 1.2.8 1.3.6 6 2.3 1.7.5 1.3.3 5.8 1 .7.1 1.8.2h.8l1-.1 3.8-.6 1.6-.1h1.5l1.6.6 1.6.7 1.5.9 3 2 1.3.8 1.4.6 1.4.6 1.4.3 2.9.4 1.7.4 1.2.4 1.8.8 1.7 1 .9.6.8.8 1 1.1 4.6 5.7 1.1 1.6 2 3 1.3 1.6 1.6 1.7 1.8 1.7 2 1.7 5.9 5 1.8 1.8 1 1 .9.9.6.7 1.2 1.7 1 1.6.8 1.3.2.6-4 2.4-2.4 1.5-2.4 1.7-3.4 2.6-1.2 1-2.4 2-1.4 1.4-1.2 1.2-1.3 1.5-.7.8-.9 1.2-1 1.7-.6 1.3-.3 1.3.1 1.4.3 1 1 1.6 1.2 1.7 1.4 1.6 3 3.2 1.5 1.6 1.2 1.5.8 1.5.3 1.4-.3 1.2-.7 1.3-1.8 2.5-.9 1.4-.5 1.5v1.7l.3 1.8.6 2 .8 2 1 2 4.3 8.4 1 2 .7 2.1.6 2 .2 1.8-.2 1.4-.3 1.4-1.3 4.6-.5 1.6-.5 1.1-.5 1.1-.7 1.2-1 1.1-1.2 1.3-1.4 1.2-.9.6-2 1.4-2 1.1-1.5.7-1.9.8-2.4.9-1.7.5-2.2.4-.9.1h-.1l-.3-.8-.8-1.4-1-1.6-1.4-1.6-1.6-1.3-1.7-.8-1.5-.2-1.6.2-1.7.5-1.9.8-1.8.9-1.9 1-6.3 3.8-1.6 1-1.2.6-1.3.5-2 .7-1 .2-3 .6-2.3.6-9.4 2.5-1.6.5-2 .6-1.5.6-10.4 4.5-2.8 1.3-2 1.2-2 1.4-2 1.5-2 1.6-1.8 1.6-9.6 8.8-4 3.4-2 1.7-2 1.5-2.1 1.5-2.1 1.3-2.2 1.1-2.2 1.2-11.3 5.3-3.7 1.9-2 1.1-2.2 1.3-8.5 5.3-2 1.3-2.1 1.1-2 1-2 .7-2 .5H178l-.6-.2-1-.4-1.3-.6-1.7-1-1.8-1.4-1.6-1.3-3-2.4-1.3-1-1.3-.9-.8-.4-1.8-.9-1-.4-1.5-.4-7-1.5-4.2-1.1-2.2-.7-2.1-.7-6.2-2.2-1.6-.7-1.4-.7-1.6-1-1.6-1.2-1.9-1.6-1.7-1.6-1.5-1.5-1.6-1.8-6-7.2-.2-.3-.8-1-2.5-2.3-2.7-2.3-4.8-4-2-1.7-3.3-3-5.8-6-1.4-1.4-2.2-2-1.9-1.4-4.5-3.6-3.2-2.3-2.1-1.5-2.5-1.6-2.3-1.5-8.8-5.3-2.5-1.5-2.6-1.9-1.9-1.4-1-.8-1.4-1.5-2-2.2-1-1.3-1-1.3-1.2-1.6-1.7-2.5-1.1-2-2.1-3.8-2.8-5.5-8-17.5L35-144l-4.2-8.6-1.3-2.8-2-4.5-.8-2-1.5-4-.8-2.5-.6-2.3-.4-1.3v-1.2l.4-.5 4-5.5 3.4-4.9 1.8-2.4 2-2.5 1.8-2.3 1.9-2 1.9-2 1.9-1.6 2-1.2 2-.8 1.7-.3 1.8.1 1.5.4 1.6.5 1.8.8 2.1 1.2 1.7 1.2 1.3 1 1.5 1.2 1.8 1.8 1.8 1.8 1.6 1.8 2 2.2 4.2 5.3 1.5 1.8 1.9 1.8 1.4 1.2 1.5 1.1 1.6.9 1.5.5 1.6.4 4.8.6 1.4.3 1.4.4 1.2.5 1.1.6 3 1.7 1.3.8 1.2.9 3.2 2.9 1 1 1 1.1 1.8 2.3.8 1 .9.8.5.4 1.3.6 1.5.3h2.6l1.7-.3 1.9-.5 1.8-.8 1.6-1 1.6-1.1.5-.6 3.1-3.3 2-1.7 1-.9 1.3-1 1.3-.7 1.2-.6.8-.3 1-.2 1-.2h1.8l1 .2 4.7.8 2 .2h1.7l.8-.3.7-.2h.1l1.3-1 1-1.2.8-1.3.8-1.4.7-1.8 2.3-6 .6-1.4 1-2.4 1.3-2.4 2.5-4.8 1.4-2.3 2.8-4.7 2.9-4.6 1.5-2.3 2-2.9 1.5-1.9 1.5-1.8 1-1 1.5-1.5 1.6-1.5 1.6-1.4 1.8-1.5 3.7-3 3.7-2.7 11-8 7.8-5.7 2.6-1.8 1.4-.9 3.2-1.8 4-2 1.8-1 1.9-.6 1.9-.5 1.9-.3 1.8-.1 1.7.3 1.5.6 1.3.9 2.8 2.2 1.3 1 .8.4 1.7.9 1.9.5 1.3.2h1l2-.2 7.8-1 5.2-.7 1.4-.1h2.4l1.5.4 1.4.6.7.4 1 .6.9.6.7.7.3.5"/></defs><g clip-path="url(#p7f15cef775)"><use xlink:href="#m9ec4cf309e" y="266.6" fill="#f4f4e2" stroke="#f4f4e2"/></g></g></g></g><defs><clipPath id="p7f15cef775"><path d="M7.2 7.2h357.1v252.2H7.2z"/></clipPath></defs></svg>