<svg xmlns="http://www.w3.org/2000/svg" xmlns:xlink="http://www.w3.org/1999/xlink" width="225.1" height="374" viewBox="0 0 168.8 280.5"><defs><style>*{stroke-linejoin:round;stroke-linecap:butt}</style></defs><g id="figure_1"><path id="patch_1" fill="none" d="M0 280.5h168.9V0H0z"/><g id="axes_1"><g id="PatchCollection_1"><defs><path id="med9ed22eb5" stroke="#f4f4e2" d="M147.3-73.5h-.2l-.5.3-1.4 1-2 1.5-1.1.9-3.3 2.8-7.9 7-2.2 2-2.6 2-1.4 1-1.4 1-1.3.8-1.3.8-1.4.7-1.4.7-.7.3-1.6.5-1.7.4-1.8.4-2.7.6-3 .5-1 .1-1.1.1H99l-4.2-.3h-2.4l-1 .1-1 .3-.7.2-.5.4-.5.4-.4.5-.3.4-.4.8-.6 1.4-.4 1.3-.4 1.2-.2 1.2-.2 1.3-.4 4.2-.1 1.2-.2 1.2-.3 1.1-.4.8-.5 1-.4.5-.5.6-.5.5-.7.5-1.2.5-1 .3-1 .2-1.3.2h-4l-1.6-.2-1.7-.1-4.5-.7-1.6-.2h-4.3l-1.2.1-1.4.2-.7.2-.9.3-.6.2-.7.5-.5.3-.7.7-.8.9-1.7 2-.5.6-.8.8-.4.4-.5.3-.4.2-.4.1-.8.2h-1.8l-1.5-.3-1.1-.3-2-.6-1.6-.6-1.6-.6-1.6-.7-2-.9-1.9-1-2.7-1.4-2.1-1-2.4-1.4-2-1.3-2-1.2-3.7-2.4-1.9-1.3-.5-.5.2-.2.5-.5.5-.7.7-1L20-43l2.6-3.8.8-1.2 1.2-1.9.5-1 .5-1 .6-1.5.2-.5.3-1.1.3-1.4.7-4.3.3-2 .3-1.4.6-1.9.7-2 .4-.8.8-1.6.4-.7.5-1 .8-1.1.7-1 .7-.8.7-.7.7-.6 1-.8.7-.4.7-.5.9-.3.5-.2.8-.2 1.4-.4 1.2-.1 1-.2h1.6l3-.1 3.7-.2h.9l.9-.2.5-.2.4-.2.7-.3.7-.5.6-.7.5-1 .2-1.1.6-3.4.2-2v-1.3l-.2-1-.3-.9-.7-1-.9-1-2.1-2-1.1-1.1-1-1.3-.7-1-.6-1-2.6-4.5-.6-1-.8-1.2-.6-.8-.7-.7-.8-.6-.5-.3-.7-.3-2.6-.8-.7-.3-.6-.4-.5-.3-.4-.4-.6-.5-.7-1-.6-.7-.6-.8-.6-1-.3-.6-.4-.9-.3-.8-.3-1.4-.2-1.1-.1-1v-2.2l.2-.7.2-.5.2-.5.4-.9.7-.9 1-1.2 1.1-1.1 1.5-1.3.9-.7.7-.4 1-.6 1.8-.9.7-.4.3-.2.7-.7.6-.8.2-.7v-1.1l-.1-.6-.2-.8-.6-1.7-.6-1.5-2.5-5.6-1-2.4-1-2.8-.6-1.1-.6-1.4-1-1.7-1.6-2.5-2.4-3.8-.6-1-.5-.9-.4-.8-.4-1-.5-1.3-.3-1-.3-1-.1-1v-.6l.1-.2.3-.3.5-.3 4.4-3 2.4-1.6 5.3-4 8.6-6.3 5-3.8 5.4-3.6 11.7-8.3 8.6-6.1 18.8-13.7 38.8-27.6 8.5-6 4-2.7 1.7-1.1-.7 2.9-1 3.5-.3 1.9-.4 2-.2 1-.3 2.1-.3 2-.2 2.1-.2 2-.2 4-.3 5.8-.2 3.8v14.7l-.2 2.8-.1 1.8-.3 3-.5 3.2-.3 1.6-.7 3.9-.6 2.5-1.8 7.5-1 4.4-.3 1.7-.2 1.6-.2 1.5-.1 1.1v2.4l.1 1.2.2 1 .3 1.2.6 2.5 1 3.5.5 1.8.4 1.7.8 4 .6 2.7.9 3.2 2.2 7.7.4 1.9.5 2 .5 2.6.3 1.8v1l.1.8v.8l-.2.6-.1.5-.6 1-.7 1-1.4 1.8-.6 1-1.5 2.5-1 1.8-.6 1.2-.7 1.7-1.6 4.2-1 2-.7 1.7-1.6 3-.5 1.3-.4 1-.3.8-.4 1.4-.3 1.3-.2 1.1-.2 1.6-.1 1.2v1.7l.1.7v.3l.6 1.5.6 1.5 2.6 4.6.6 1.2.7 1.4.6 1.4.7 1.6.6 1.7.5 1.8.4 1.7.2 1.2.3 1.5.1 1.1v.9"/></defs><g clip-path="url(#p8c338f823d)"><use xlink:href="#med9ed22eb5" y="280.5" fill="#f4f4e2" stroke="#f4f4e2"/></g></g></g></g><defs><clipPath id="p8c338f823d"><path d="M7.2 7.2h154.4v266.1H7.2z"/></clipPath></defs></svg>