<svg xmlns="http://www.w3.org/2000/svg" xmlns:xlink="http://www.w3.org/1999/xlink" width="495.4" height="373.1" viewBox="0 0 371.5 279.8"><defs><style>*{stroke-linejoin:round;stroke-linecap:butt}</style></defs><g id="figure_1"><path id="patch_1" fill="none" d="M0 279.8h371.5V0H0z"/><g id="axes_1"><g id="PatchCollection_1"><defs><path id="mb434ecb3ed" stroke="#f4f4e2" d="m188.2-213.4.3.2.8.8 2 2 1.3 1.7 1.6 2.2.8 1.3.6 1.3.4 1.2.2 1v1.3l-.2 1-.6 1.3-.5.6-1 1-3.8 2.6-1.3 1.1-.9 1-.5.6-1 1.6-.6 1.6-.3 1-.3 1.5v1l.1 1.5.1.7.3 1 .4.7.5.9.8 1 1.2 1 1 .9 2.5 1.6 2.2 1.2 3 1.5 2 1 10 4 6 2.8 2.6 1.3 1.7 1 1.5 1 1.2 1 .9.9.8 1 .8 1.2.7 1.4.6 1.5.6 1.6 1.5 5.2 1 3 1 2 1.4 2.6 1.6 2.4 2 2.3.8.7 1.6 1.4 1.4.9 2.2 1.2 2.5 1 2 .7 1.5.4 1.6.3 1.5.3h3.9l4.9-.2 1.6-.1 9.4-1.3 2.8-.4 2.7-.6 2.6-.9 2.3-1 1.7-.8 1.6-1 1.6-1 1.5-1 4.8-3.5 2.7-1.9 2.7-1.6 1.3-.7 2.7-1.3 2.3-.8 2.5-.7 4.2-1.1 1.6-.3 1.9-.2h.5l2.6.1 2.3.5 2.8.8 2.7 1 2.1 1 2 1.2 2.4 1.6 2 1.5 1.9 1.6 1.7 1.7 1.3 1.4 2.2 2.8 2 2.9 1.6 2.7 1.2 2.5.2.6.1.4.8 2.7.9 3.4.5 2.7.5 3.3.2 3.2v3.8l-.2 2.5-.5 3.6-.5 2.5-1 3.5-.5 1.8L344-88l-1.2 2.8-2 4-2.3 4.5-1.7 3-2 3.1-1.3 1.9-1.6 2-1.2 1.3-1.6 1.7-2 1.7-2.3 2-2 1.3-4 2.6-2.3 1.3-2.3 1.2-4.1 1.9-8 3-3.3 1.5-1.3.6-1 .6-.6.5-.2.3v.1l-.2.3-.7.7-1.3 1-1.3.8-1.6 1-2.3 1.1-2.2 1-2.3 1-2.4.8-1.9.7-2.1.5-2 .5-3 .5-3.4.3-3.9.2H262l-2.8-.2-2.4-.3-2.3-.3-3.4-.9-3.3-1.1-4.6-2.2-2.7-1.4-2.4-1.4-1.3-.9-1-.8-1-1-1-1-.5-1.2-.5-1-.5-2-.5-2.6-.2-2.6V-57l.3-2.2.8-4.4v-1l.2-2.9-.2-2.1-.8-2.1-1.2-2-1-1.2-1.5-1.6-2.8-2.6-3.5-3.5-2-1.7-4.2-3-6.3-4.9-2.2-1.5-2.3-1.4-2.4-1.2-1.7-.7-2.8-.7-2.9-.3h-1.9l-1.3.1-2.6.5-13.3 2.7-2.7.7-1.8.5-1.8.7-2.7 1.1-1.6.8-6 3.1-5.2 2.4-2.2.9-3 1-2 .7-2 .5-2.5.6-2.5.5-2.3.3-2.2.3-1.8.1-3.4.2-7.4.1-1.7.1-1.6.2-2 .3-2.2.6-2.1.7-1.6.7-2.2 1.3-1.7 1.6-.7 1-.2.3-1 2-.5 2-.3 1.3-.2 1.7v1.9l.1 6.3v2l-.3 1.8-.4 1.8-.5 1-.4.8-1.2 1.9-1.4 1.7-4.5 5.3-3.3 3.6-2.2 2.2-2.4 2-3 2.3-3.3 2.1-3.3 2.1-5 3-10.1 5.4-.5-.6-.4-1.6-.2-2.1.1-2.8.2-2.6.3-2.8.4-2.7.6-3.3.8-2.4 1-2.2 2.2-4.4.9-1.9.4-1.1.3-1L70-52v-1l-.3-1.4-.5-1.5-.5-.8-1.1-1.4-1.5-1.5-2-1.5-1.3-.8-5.7-3-1.4-1-1-.8-1-.9-3.9-3.8-1.2-1.2-1.4-1-4.4-3-1.6-1.5-1.6-1.6-1.4-1.7-1.4-1.8-1.6-2.5L28.3-97l-1.8-3.5-1-2.2-.7-1.9-.6-1.6-.5-2.6-.3-2.4.3-2.4.3-1 .7-1.4.6-1 1.2-1.4 1.2-1.1 2-1.5 2-1.2 2-.9 2.2-.7 2.1-.6 7-1.5 2.6-.7 2.4-.6 2.8-1 2.5-1.1 2-1.1 2-1.2 2-1.3 4-2.8 5.3-4 4-3.4 1.6-1.4 1.2-1.2 1.1-1.3.8-1 .8-1.2 1.4-2.4 1.2-2.7.5-1.5.4-1.5.3-1.3.4-2.4.2-2.3.1-1.8v-2.7l-.1-4.2-.5-5.6-1.3-11-.4-4.1-.2-3v-8.1l.3-2.7.5-5.5.8-6 1.6-10.4.2-.6.6-1.5 1.4-3.3 1.8-3.6 2.3-4.3 2.2-3.7 1.5-2.4 2.5-3.5 1.7-2 1.5-1.7 1.4-1.3 1.3-1.2.9-.6 1.3-.8.8-.4 1.6-.7 1.6-.4 1.4-.2 1.5.1 1.5.3 1.6.5 2 .8 2 1 4.4 2.6 8.3 5.2 4 2.4 3.2 1.9 7.9 4.4 3.2 1.9 3.4 2.2 2.2 1.4 8.5 6 21 14.9 2.2 1.6"/></defs><g clip-path="url(#p9ce5627d32)"><use xlink:href="#mb434ecb3ed" y="279.8" fill="#f4f4e2" stroke="#f4f4e2"/></g></g></g></g><defs><clipPath id="p9ce5627d32"><path d="M7.2 7.2h357.1v265.4H7.2z"/></clipPath></defs></svg>