<svg xmlns="http://www.w3.org/2000/svg" xmlns:xlink="http://www.w3.org/1999/xlink" width="354" height="374" viewBox="0 0 265.5 280.5"><defs><style>*{stroke-linejoin:round;stroke-linecap:butt}</style></defs><g id="figure_1"><path id="patch_1" fill="none" d="M0 280.5h265.5V0H0z"/><g id="axes_1"><g id="PatchCollection_1"><defs><path id="mdf05d56cb4" stroke="#f4f4e2" d="M161-261v.1l-.1.5-.3 1-2 7.1-.6 2.4-.2 1.3-.2 1.5v2.1l.3 1.8.4 1 .8 1.6 1.1 1.5 2.5 3.3 3.3 4.5 2 2.4 1.3 1.4 1.3 1.2 1.5 1.2 3.2 2.3 3.2 2.5 1.2 1 1.3.7 2.2 1.2 3.4 1.7 3.3 1.4 4.4 1.8 3.9 1.4 2.7 1 1.9.5 2 .5 1.7.3 5.3 1 1.5.3 1.9.5 3.6 1.3 1.8.6 1.2.3 1.2.2 2.6.3 2 .1h2l2.8-.2h1.2l1.2.2 1.4.3 1 .3 1 .4 1.5 1 3 2.4 1.4 1.1.6.4.7.4.6.3.7.2h.2l-1.1 7.1-.6 4.3-.4 3.8v1.9l-.2 3v2.6l.2 2.1.3 3 .9 7.6.3 4 .1 3v3l-.2 1.6-.3 1.7-.2 1-.3 1-.3 1-.9 2-1 1.6-.5.8-.5.7-.9 1-.8.8-1.1 1-2.8 2.3-3.7 2.9-2.7 1.9-1.5 1-1.4.7-1.4.8-1.8.8-2 .7-1.6.4-1.8.5-4.9 1-1.5.5-1.5.5-1.4.6-1.5.8-1.3 1-.8.8-1 1-.3.7-.5 1-.2.7-.2 1.7.2 1.7.4 1.7.3 1.2.5 1.3.7 1.5 1.3 2.5 4.8 8L213-96l1 1.3 1 1.2 1 1.1 1.1 1 3.1 2.1 1 .8.9.8 2.6 2.7.7.6.8.6 1 .6 4 2.1.9.6 1.4 1 1 1 .8 1.1.3.6.4 1 .2 1v.7l-.2.7-.2.7-.3.8-.6 1.3-1.5 3.1-.7 1.6-.5 1.7-.5 2.2-.3 2-.2 1.9-.1 1.8v3.5l.3 1 .4.5-.4.4-.7.7-1.2.9-1.1.8-2.3 1.6-4.8 2.8-2.7 1.4-1.6.8-1 .3-1 .3-1 .2h-1.7l-1-.4-1-.6-.8-.8-.8-1-.7-1-3-4.8-.6-1-.8-.7-.8-.7-1.8-1.3-1-.7-1-.5-1-.3-1-.2-1-.1h-1.3l-1 .1-.7.2-.9.3-1 .3-1.4.8-2.3 1.2-1.8 1.1-1.8 1.3-1 .6-1.1.6-1.5.7-1.6.7-3.2 1.1-2.8.8-1.3.3-.8.4H169l-2-.4-2-.8-1.1-.7-1.1-.7-1.5-1.2-3.3-2.9-3.8-3.4-2.6-2.3-1.4-1.1-1.4-1-2-1.3-1-.6-1-.4-1-.3-.9-.2-1-.1h-.5l-1.1.2-.5.1-.5.3-1.2.8-.6.6-.3.4-.7 1-.5 1.4-.4 1.3-.2 1-.2 1.6v1.6l.1 1 .3 1.8.5 1.9.8 3.3.4 2 .2 1v1.9l-.2.9-.3 1-.3.7-.3.5-.4.6-.4.5-.6.5-.7.5-1.3.5-5.8 2-4.4 1.7-1.8.6-2 .5-2 .3-2.1.3-6.9.6-3.5.4-3.5.5-1.5.4-1.7.4-2 .7-1 .4-2 1-1.7 1-2.5 1.8-1 .6-.7.2-.8.3h-.7l-.5.1-1-.1-.6-.2-.4-.2-.6-.4-1.2-1-1.7-1.6-2.1-1.9-.8-.8-1.6-1.8-.9-.8-5.4-4.7-.9-.9-.7-.7-1.5-1.7-.8-1.1-1.7-2.5-1-1.2-.7-.6-.7-.6-.8-.5-1-.5-.7-.2h-.5l-.9-.1H56l-.6.2-1 .3-2.7 1-1.8.7-2 .5-2.3.4-2.3.2-4.7.3-2.5.1h-2.3L31-40l-2.4-.3-1-.3-.6-.1-.8-.4-.5-.2-.2-.3.2-.6 2.9-6.1 1.5-3.6.3-1 .5-1.5.2-1.3.2-1.3v-1.3l-.1-1.2-.2-1.2-.2-1.2-.4-1.5-.5-1.5-1.5-4.7-.5-1.6-.2-1.6-.1-1.5.2-1.3.3-1.3.4-1.2 1.1-2.5 2-4.3.6-1.3.4-1.3 1-3.9.1-.9v-.9l-.1-.4-.4-.8-.7-1-.7-1-2.4-2.7-1.2-1.5-.7-1.1-2.3-3.6-.9-1.3-1.1-1.3-4.6-4.4v-.3l.2-.3.8-1.2 1.2-1.5 1-1.2 1.2-1 1-.8 4-2.8 1.4-1.1 2-1.7 2.4-2.4 2.5-2.7 3.7-4.1 8.7-9.2 1.8-2 2-2.5 2-2.8 1.2-1.6 1.9-3 1-1.5 2-3.4 1-1.8 4.4-8.5 2-3.4 1.7-2.8 2-3.1 1.3-1.6 1.2-1.6 1.3-1.6 2.2-2.4 3.4-3.6 2-2.3 1.9-2.3 1-1.3 4.6-6.9 1.3-1.7 1.1-1.3 3.3-3.5 1.3-1.5 1.2-1.3 1.2-1.5.8-1.2 1.6-2.3 4.8-7.8 3.5-5.3 2.4-3.5 1.3-1.7 1.4-1.7 1.8-2 1.4-1.3 1.4-1 1.5-1 .7-.5 2-1 2.1-.8 2-.6 1.8-.5 1.9-.5.8-.3 1-.2 1.4-.2.7-.1h1.6l3.5.3h4.6l1.8-.3 1.1-.3 1.2-.4.5-.3.5-.4.4-.3.8-1 .5-1 .6-1.3.6-1.3.7-1.1.8-1 .6-.9.7-.7 1.3-1 .4-.4.9-1 1.3-2h.2v.2"/></defs><g clip-path="url(#p3808c05a00)"><use xlink:href="#mdf05d56cb4" y="280.5" fill="#f4f4e2" stroke="#f4f4e2"/></g></g></g></g><defs><clipPath id="p3808c05a00"><path d="M7.2 7.2h251.1v266.1H7.2z"/></clipPath></defs></svg>