<svg xmlns="http://www.w3.org/2000/svg" xmlns:xlink="http://www.w3.org/1999/xlink" width="359.3" height="374" viewBox="0 0 269.5 280.5"><defs><style>*{stroke-linejoin:round;stroke-linecap:butt}</style></defs><g id="figure_1"><path id="patch_1" fill="none" d="M0 280.5h269.5V0H0z"/><g id="axes_1"><g id="PatchCollection_1"><defs><path id="mef272b3e43" stroke="#f4f4e2" d="m233.7-142.3-.5.1-.7.5-.5.5-.5.5-.7 1-.5 1-.9 2.5-.8 2.4-.4 2-.3 1.8-.4 3.6-.4 4.9-.2 3.6v7.2l.3 2.6.3 2.3.6 2.9.4 1.7.5 1.4.8 2.3 1.1 2.3.8 1.6.8 1.2 1.2 1.7 2 2.6 6.3 7 2.2 2.7L246-76l1.3 1.8 2 3.4 1.5 2.8-2.8 1.3-15.2 7-6 2.6-2.6 1-2.5.9-3 .9-3.2.7-9.9 1.8-2.5.4-2 .1-2.5.1h-1.9l-2.5-.3-2.4-.3-4.8-.7-12.3-2-9.7-2-3.3-.4-3.9-.2h-5.6l-5.9.2-5 .4-2.5.1H135l-1.5-.3-.7-.2-1-.6-1.1-.8-1.7-1.5-1-.7-.7-.3-1.2-.5-.8-.1-.8-.1h-1.3l-1 .3-1.1.5-.9.6-1.9 1.7-1 1-1 1.7-.4.8-.3.9-.4 1.8-.3 2.3-1 11.1v3.9l.2 6.6v1.4l-.2 1-.5 1.4-.5 1.1-.6 1.1-.7 1-.6.6-.9.8-.7.4-.4.1-.5.1h-.6l-1-.6-.4-.3-.5-.6-2.1-3-1.6-2.1-2.2-2.6-1.7-1.7-1.6-1.4-1.7-1.3-1.3-.9-2-1-1.3-.6-1.2-.4-1-.3-1.7-.3-2.7-.3-4.2-.2-2-.2-1.4-.2-1.9-.4-2.3-.7-3.4-1.2-2.1-.9-4.6-2-1.6-.7-1.9-.6-2.1-.6-2-.4-7.4-1-2.2-.5-1.7-.4-1.7-.5L39-48l-2.3-1-1.6-.7-2.3-1.4-1.8-1.2-1.2-1-1.8-1.5-9.2-8.3-.1-.3.3-1 .6-1.8 2.1-5.3.7-2 .8-2.9 1-3.5.7-3.7.5-3.2.2-2.4v-4l-.3-2.3-.3-1.8-.6-2.4-.8-2.4-.5-1L22-106l-.4-1.2-.3-1-.1-1v-1l.1-1 .5-1.4.7-1.4 1.4-2.4 2.9-4.4 1-2.1 1-2.3 1.2-3.6.6-2.2.5-2 .3-1.9v-1l.2-2.7v-2.4l-.5-6.4v-14l.3-2 .5-2.5.5-1.5.5-1.2.7-1.6.7-1.3 1-1.7 3-4.1.6-1 .9-1.7 1-2.2.4-1.8.5-2 .2-1.4v-2.6l-.4-1.4-.5-1.4-.6-.9-.7-1-.6-.7-2.2-2.3-.8-1-.7-.9-1.1-1.8-.7-1.7-.5-1.6-.2-1.8v-1.3l.3-4.7v-1.7l-.2-.7-.1-.5.2-.2.6-.5 1.3-1.1 4.5-3.4 2.4-2 1.2-1 1.4-1.5.5-.7.4-.7.5-1 .9-3 .4-1.1.4-.6.4-.5.4-.5.9-.7 1.1-.7 1-.5 3.2-1.5 1.7-.8 3.3-1.2 2.5-.8 1.5-.5 5.5-1.4 1-.3 1.2-.5.5-.2.9-.7.8-.9.6-1 .5-1 1.8-4 1.1-2.3 1.1-1.8 2.8-4 2-3.2.4.1 1.3.8 1.3 1.1 1 1 .6.6 1 1.4 1.4 2.1.9 2 .5 1.5.5 1.5.4 2.3.2 2v1.6l-.1 2.7-.7 6.5-.7 4-.4 2.2-.4 1.2-.4 1.2-.5 1.4-1.1 2.5-.8 1.4-1 1.6-1.4 2-5.6 7.9L78-206l-1.2 2-1.5 2.7-1.3 2.7-1.5 3.4-1 2.5-1 3-.9 3.6-.4 2.1v2.5l.2.8.8 1.8 1.2 1.6 1.2 1 1 .7 2.8 1.6 1.6 1 7.1 5.4 2.2 1.6 2.2 1.4 3 2 1.4.7 3 1.4 1.7.8 2.4 1 4.1 1.6 1.8.5 1.7.4 2.5.4h1.7l1.9-.3 1.6-.4 2.2-1 1.4-.7 1.4-.9 1.2-.9 1.7-1.5 1.5-1.7 1.7-2.2 1.6-2.5 1.4-2.3 1.7-2.9 2-3.7.9-1.9 1.2-2.7.9-2.4 1-3 2.3-8.9.7-2 .8-2 .8-1.7.8-1.3.6-.8 1.2-1.3 1-.9 1.4-.8 1.2-.5 1.1-.4 1.1-.2 1.4-.2 6-.3 1.2-.2 1.6-.4 1.5-.7 4.1-2.4 2.4-1.2 2.2-1 2.6-.9 1.6-.4 2.3-.5 1.1-.1h2.9l.6.2.7.2.6.3.7.4.5.6.3.4.6 1 .4 1.4.3 1.6.4 5.4v4.6l-.5 3.2-.4 2.4-.4 1.5-.5 1.5-2.3 6.1-1 3.6-.5 1.6-.3 1.6-.3 1.6-.1 1.6v1.8l.1 2.4.3 1.4.5 2.3.6 1.9.7 1.7 1 1.9.7 1.1 1.5 1.9 1.4 1.5 1.7 1.5 1.5 1.1 1.5 1 1.8 1 2.1 1 3.2 1.2 3.1 1.1 5 1.5 3.3 1 3.2.6 3.3.6 2 .2 7 .5 2.5.3 1.8.3 1.5.4.7.3.5.3.5.6v.4"/></defs><g clip-path="url(#p6a110394a6)"><use xlink:href="#mef272b3e43" y="280.5" fill="#f4f4e2" stroke="#f4f4e2"/></g></g></g></g><defs><clipPath id="p6a110394a6"><path d="M7.2 7.2h255.1v266.1H7.2z"/></clipPath></defs></svg>