<svg xmlns="http://www.w3.org/2000/svg" xmlns:xlink="http://www.w3.org/1999/xlink" width="377.2" height="374" viewBox="0 0 282.9 280.5"><defs><style>*{stroke-linejoin:round;stroke-linecap:butt}</style></defs><g id="figure_1"><path id="patch_1" fill="none" d="M0 280.5h283V0H0z"/><g id="axes_1"><g id="PatchCollection_1"><defs><path id="mee6b7b1718" stroke="#f4f4e2" d="m258.7-117.5-.2.3-.4.2-.6.5-1.3.6-1.3.7-1.5.6-.7.2-2.1.7-.7.3-.3.1-.7.5-.6.6-.4.4-.8 1-.6 1-.6 1-.5 1.3-.4 1.1-1.1 3.4-1 3.2-.9 3-.7 2.9-.3 1-.3.9-.1.4-.6 1-.6 1-1 1.4-.8.9-.7.7-.5.4-.6.3-2.3 1.4-1.8 1-1.2.8-.6.5-1 .8-.6.6-.7 1-.5.7-.3.5-.1.4-.2.5-.1 1v4.5l-.1.9-.3.8-.2.4-.5.7-.5.4-.4.2-.5.2h-.6l-3.4.7-1.7.2-1.3.2-2.1.1H212l-2-.3-2.8-.6-2.2-.6-2.3-.7-2.8-1-1.3-.5-1.6-.4-3.3-.8-1.1-.4-1-.3-1-.5-1-.5-1.2-.7-3.9-2.5-2.6-1.6-.9-.6-1.9-1.5-.6-.4-.2-.1-.3-.1h-.6l-.3.1-.2.2-.2.3-.1.3-.1.2v.6l-.1.5v.9l.3 3 .1 2.3v3.2l-.1 2.8-.5 5.8-.2 3.2v2.6l-.2 5.2-.1 2-.2 1.6-.2 1.2-.4 1.5-.3.9-.2.4-.3.6-.4.6-.8 1-.8.8-.7.6-.5.3-1 .7-.7.4-.5.1-.5.2h-2.5l-.9-.3-1.3-.4-1.6-.6-1-.5-3-1.4-3.5-2-7-3.8-3.6-2-4.2-2.2-2.3-1-2-1-1.7-.6-1-.4-.9-.3-1-.3-1.6-.3h-1.3l-1.2.2-.6.3-.7.6-.5.7-.6 1-.5 1-.5 1.4-.3 1.2-.3 1.5v1.5l-.1.8v1.2l.2 2.3.3 3 1 7 .2 2.3v3.2l-.5 3.4-.1.6-.1.3-.4.5-.5.4h-.3l-.6.2-.6.1-1.3.1h-2.3l-5-.2H109l-3.5.1-7.3.4-2.6.1h-4.1l-1.7-.2h-1.1l-.3-1.3-.3-1.8-.4-2-.4-2.8-.2-1.7-.4-4.7-.4-3.3-.6-4-1.1-7-.6-4.2-.4-2.8-.2-2.7v-4.8l.3-1.7.4-2 .2-1 .5-1.6.4-1.1 1-2.8.4-1 .2-1.1.2-.8.3-1.7.2-1 .1-1.6.1-1.6.1-2.1v-4.5l-.2-1.7-.2-1.8-.4-2.6-.4-3.6-.2-1-.2-.9-1.4-5.1-.5-2.4-.7-3.9-1.8-11-.5-3.1-.5-2.2-.6-2.6-.5-1.8-.7-2.3-2-6.4-.5-1.4-.2-1.3-.2-1.3v-1.4l.1-1.1.5-2.2.1-.4v-1.4l-.2-.7-.2-.7-.5-.7-.6-.7-.5-.3-.7-.3-.8-.2-.8-.1-.8-.1-3.2-.2-1-.1-1-.1-1-.3-.7-.2-.6-.3-.4-.4-.4-.3-.3-.4-.3-.4-.9-1.4-.3-.5-.2-.4-.4-.4-.3-.1-.2-.1h-1.3l-1 .4-2.1 1-1.5.5-1.2.4-.9.3h-.4l-.6.1h-1l-.4-.2-.3-.2-.4-.4-.4-.5-.3-.6-.3-.9-.2-.8-.4-2-1.2-7.6-.4-2.8-.6-2.6-.6-2.2-.6-1.8-.5-1.4-.5-1.3-.5-1-.5-1-.5-.8-.4-.6-.4-.5-.3-.3-.7-.6-1.3-.7-1.4-.4-1-.1-1.5-.2h-5l-1 .1-1.7.2-2.6.6-.9.1H22l-.5-.3-.6-.5-.6-.8-.4-1-.3-1-.1-.5v-1.9h1.8l2.2-.1 1.4-.2 2.3-.4 2-.4 1.3-.4 1.2-.3 2.1-.8 2-.7 1.7-.7 1.6-.7 1.6-.7 3.1-1.6 1.6-.7 2.6-1 2.4-.8 1.8-.5 2.4-.6 2.8-.6 3.8-.7 2.8-.4 1.8-.2 1.6-.2h4.5l1.2.1 2 .3 1.7.3 2.3.4 1.8.2 1.3.1h3.7l2-.1 1-.2 2.5-.4 3-.7 3.7-1 3.1-1 3-1 2.1-.9.8-.3 1.2-.6.6-.3 1.4-.8.9-.7.6-.5.6-.5.5-.6.5-.7.5-.8.5-1 .4-.9.4-1 .2-1 .1-.7.2-1v-3l-.2-5.6-.1-3.3v-2.4l.2-2 .1-1.3.3-1.7.3-2 .8-4.2 1.5-6.2 1.7-7.1.3-.1.5.2.6.3.7.6 1 1 3.5 4.2 1.4 1.5.6.5.8.6.4.3 1.5 1 1.4.8 1.5.7 1.2.6 2.3 1 2.2.8 3.3 1.2 3.8 1.3 2.7.9 1.4.4 1.6.3 1.5.3 2.2.3h1.3l1.4.1h2l.7-.1 4.3-.9.9-.1 2-.3h3.1l1.4.2 1.2.1 2.1.4 2.4.5 11.6 2.8 7 1.6 6 1.3 3.8.6.4.1.7.3 1.1.5 1 .5 1 .8 1 1 1.2 1.4 1.2 1.6 1.6 2.4 2 3.2.6.8.9 1.2.8.9 1 1 .7.5.7.5 1 .7 1.2.5 1.3.4 1.3.3h1.8l.8-.2 1.4-.5.8-.4 2.3-1.1.8-.4.9-.3h2.2l1 .2.7.3 1.4.5.7.4 1 .5 1.7 1.1 4.9 3.3 1.6 1 2 1.2 3.8 2.2 1.2.7 1 .8.9.7.7.7.8 1.1.1.3.3.9.1 1.4v1l-.2 1.3-.4 1.5-.2.9-.9 2.6-1.8 5.1-1 3-.5 1.9-.2 1-.5 2.3-.3 1.9-.2 1.9-.3 3.4-.3 4.6-.4 9-.2 6.4-.1 5.5v5.2l.1 3.6.1 2 .2 3 1.4 14.1.2 1.6.2 1.4.3 1.2.2.3"/></defs><g clip-path="url(#pc431b56252)"><use xlink:href="#mee6b7b1718" y="280.5" fill="#f4f4e2" stroke="#f4f4e2"/></g></g></g></g><defs><clipPath id="pc431b56252"><path d="M7.2 7.2h268.5v266.1H7.2z"/></clipPath></defs></svg>