<svg xmlns="http://www.w3.org/2000/svg" xmlns:xlink="http://www.w3.org/1999/xlink" width="338.6" height="374" viewBox="0 0 254 280.5"><defs><style>*{stroke-linejoin:round;stroke-linecap:butt}</style></defs><g id="figure_1"><path id="patch_1" fill="none" d="M0 280.5h254V0H0z"/><g id="axes_1"><g id="PatchCollection_1"><defs><path id="me97380c6df" stroke="#f4f4e2" d="m230.6-192.1-.1.5-1 3.5-1 2.2-2.2 4.5-2.4 4-.9 1.9-.7 1.8-.7 2-1.2 4.6-1.1 3.6-.8 2-1.3 3.3-.5 1.4-.5 2.3-.4 2.2-.4 2-1.6 5.8-.5 1.7-.7 1.7-.4 1-.7 1.2-.8 1.3-1.8 2.6-1 1.6-1 1.8-.9 1.8-2.3 5.8-2.5 5.5-1.7 3.2-4 7.2-.8 1.8-.8 1.7-.8 2-.6 2.5-.2 1.4v2l.4 1.9.8 1.6.8 1.6.6 1.6v.5l.1 1.1-.1 1.3-.2 1.2-.6 2.5-.8 2.5-1 2.5-1.1 2.7-1.3 2.5-1.3 2.3-1.5 2.7-2 2.7-1.7 2-2 1.8-1.3.9-1.5.6-2.5.3-2.8-.2-3-.7-3-1-3.1-1.3-3.2-1.3-9.5-4.4-3.1-1.3-3.6-1.3-2.5-.8-2.5-.6-2.3-.2-2 .2-.8.2-.6.2-1.2.7-1 .9-.9 1-.7 1.2-.2.6-.2.8-.1.7v1.7l.7 2.4.7 1.8 1.4 2.8 4.5 8 1.3 2.4 1 2.1 1 2.1.6 1.5.7 2.1.4 1.5.4 1.7.5 2.2.3 2.2.4 2.7.1 2.9v2.3l-.2 1.9-.4 2-.2.7-.3.2h-.2l-.4-.2-1.1-.8-3-2.3-1.6-1.4-2-2.2-5-5.8-2-2.4-3.3-4.2-1-1.2-2-1.9-2.2-1.5-2-1-2.1-.8-2.5-.7-4.3-.8-6.5-.9-3.2-.5-2.8-.6-3.1-.8-3.2-1-3.9-1.3-3-1.1-2.7-1.2-3.1-1.5-5.5-2.8-5.6-3-4-2.4-5.7-3.5-3.5-2-1.2-.7-1.3-1-1.5-1.1-4.4-4-1-1-.9-1-1.4-1.9-1-1.7-.7-1.2-.7-1.7-.7-2-1-3.5-1.5-6.4-.5-2-.8-2-2.5-6.4-1.5-3.2-1.1-2.1-4-6.8-3.2-5.8-.5-1-.5-1.3-.3-1-.5-1.8-.2-1.4v-1.2l-.1-3 .2-3.4.7-7.4.2-2.5v-2.9l-.3-3-1.2-8-.4-3.6-.3-4.3v-3.6l.3-3 .6-2.8.7-1.7 2-3.8.6-1.1.5-1.4.5-2 .4-2.6v-2.2l-.2-1.8-.4-.9v-.3l.2-.2.3-.3.9-.6 1.1-.6 1.7-.5.9-.1 1.6-.1 2.5.3 2.6.8 2.6.8 2.5.8 2.6.3H44l1.3-.3 2.3-.7 2-.8 2.1-1.3 1.4-1 1.7-1.3 1.2-1.2 1.3-1.6.4-.6 1-1.5 1-2.1.8-2.1 1.4-3.9.7-1.4.9-1.4 1.6-2.3.8-1 1-1.2.8-.6 1.5-.9 5.4-2.4 2-.7 2.5-1 5-1.5 3-.9 2-.6 1.8-.8 1.5-1 2-1.6 1.8-1.9 4.7-5.8 1.3-1.6 1-1.8 3-5.4 1.1-1.9.8-1 1.5-1.6 1.6-1.3 1-.7 2-1 2-.9 2-.7 2-.4 2.2-.4h1l2.3-.1 2.1.1 1.4.3 2.6.7 2 .6.9.4.8.5.7.7.9 1.3.4 1.5v.9l.1 1-.1 1.5-.6 3-.3 1.5v2l.2 2 .6 2.5 1 2.7.8 1.6.7 1 .7.6.8.6 1.4.5 4.7.8 3 .7 1.8.5 1.8.7 3.6 1.6 1.7.5 1.6.2h1.8l2.1-.2 3.7-.4 2.8-.4 1.3-.2 1.6-.5 1.5-.5 5.8-2.2.8-.2h1.4l.2.3.1.1.2.5v.5l-.2 1.5v1l.1.8.8 1 1 .5 2.2.7 3.6.9 1.5.2h2.4l1-.2 5-1.2 2.1-.5 1.5-.2 4.8-.4 2.4-.4 2.6-.5 3.1-.9 2.1-.8 4.9-2.4 1.4-.4h1.5l1.4.4 1.2.9 1 1 .8 1.3 1.7 3.2.9 2 .6 2.3.3 2.5-.1 2.8-.4 3-.5 3.2-1.4 8.3-.7 3.3-1 3.9-.6 1.6-.4 1-.2.4"/></defs><g clip-path="url(#p0e9797a633)"><use xlink:href="#me97380c6df" y="280.5" fill="#f4f4e2" stroke="#f4f4e2"/></g></g></g></g><defs><clipPath id="p0e9797a633"><path d="M7.2 7.2h239.6v266.1H7.2z"/></clipPath></defs></svg>