<svg xmlns="http://www.w3.org/2000/svg" xmlns:xlink="http://www.w3.org/1999/xlink" width="385.8" height="374" viewBox="0 0 289.4 280.5"><defs><style>*{stroke-linejoin:round;stroke-linecap:butt}</style></defs><g id="figure_1"><path id="patch_1" fill="none" d="M0 280.5h289.4V0H0z"/><g id="axes_1"><g id="PatchCollection_1"><defs><path id="m8021015d15" stroke="#f4f4e2" d="m231.5-251.1.1.2v12.1l.3 4 .6 8 .7 7.2.6 4.6.7 4.2.6 2.6.6 2.5.8 3 1 2.8 1.5 3.5 1.4 2.6.8 1.4 1.5 2.2 1.2 1.6 2.6 3 2.8 3 3 3 7.1 7 3.2 3.3 1.8 2 2 2.6 1.2 1.5.8 1.3.6 1.2.4 1.3.2.8v.8l-.3 2.3-1.1 2.2-1.3 2.4-1.3 2.6-.9 2.5-.7 2.7-1.6 8.6-.5 2.7-.7 2.5-1 2.4-1.1 2.1-1.5 1.8-1.7 1.7-5.4 4.1-1.3 1.1-1.2 1.2-1.1 1.2-1.3 1.7-2 3.7-3.9 7.6-1.3 2.4-2.5 4-1.2 2.2-.8 2-.6 2-1.1 3.5-1.4 5.3-.6 3.1-.2 3.1v1.8l.4 7.3v4.3l-.3 2.4-.4 2.9-.4 2.2-.5 1.6-.9 2.7-.4.9-1.3 2.2-1.5 2.4-2.2 3-2.5 3.2-1 1.2-.9 1h-.8l-1.5.3-4.3 1.2-3.7 1.2-3.7 1.3h-.8l-2.4-1-1.3-.4-1.4-.2h-2.8l-1.3.4-1.5.4-2.2.8-1.5.6-1.4.8-1.2.9-.5.4-.6.9-.2.4-.1.3h-.3l-1.3.3-15.4 3.2-4.5.9-7.2 1.2-3.9.5-2.1.2h-2.6l-2.5.1-2.7-.1-3.4-.4-1.8-.4-2.3-.7-2-.9-1.3-.7-2.2-2-4-4.5-2-2-5.5-5-9.2-9-5-4.6-8.4-8-1-1.3-1.7-2-1.2-1.8-1.6-2.7-4.9-8.5-1.6-2.8-2.5-3.9-2.6-3.7L77-86l-1.4-1.6-1.2-1.3-2-1.9-2.4-1.6-2.6-1-3-.5-3.2.2-3.3.7-2.8.8-9.6 2.8-3.8.9-3.9.4-3.7-.3-1.3-.3-1.7-.5-1-.4-2-1.1-1.4-.9-2.6-1.8-1.7-1.5-1.3-1.4-1-1.2-.3-.7.6-.6 2.7-2.4 1.6-1.2 3.2-2.1 4-2.2 2.8-1.4 9.8-4.6 1.6-.9 1-.7.9-.8 1.2-1.5 6.6-10.4 3-5.1 1.8-3.2 2.9-5.2.6-1.3 1.8-4.5.7-1.5.8-1.5 1-1.5 2-2.7.9-1.4 3.8-6.5.7-1.2.5-1.2.6-1.6.5-1.9.9-4.5 1.9-8 .9-4.7.4-2.6.4-4.6.1-2v-1.5l-.1-1.3-.2-.7-2.6-1.1-2.1-.7-6.8-2-.8-.2-.3-.1h5.2l2.3-.2 2.9-.3 2.4-.5-.2-.2-.1-.3v-1.1l.2-.5.3-.6.5-.5.5-.5 1.3-1 3.9-2.6 1.2-.9.9-.9.3-.4.1-.4v-.5l-.2-.4-.3-.3-.4-.4-.5-.3-.6-.2-2.2-.3-2-.7-1-.2-2.2-.2-.4-.1-.3-.2-.1-.3v-.5l.1-1.1 1.3-4.5h1l8.8.3h1.4l2.9-.2 2-.3 2-.3 2-.5 2-.6 3.3-1.2 2-1 2.5-1.4 1.4-1 1.7-1.3 1.9-1.7 10-9.5 5.7-5.3 4.4-3.8 3-2.3 2.9-2 3-1.9 3-1.4 3.2-1 .6-.2 2.3-.4 2-.2 6.1-.2 7.3-.6 7.6-.8h2.5l1.5.4 1.9.7 2 1 1.6 1.1 2 1.6 1.4 1.3 3.8 4.7 1.9 1.8 2 1.7 2 1.4 2 1 2.7 1.1 2 .6 2.4.5 3 .3h2.6l2.6-.4 1.6-.5 2.6-1.1 2.7-1.7 2.1-1.6 3.8-3.2 1-.6"/></defs><g clip-path="url(#p5a597ea697)"><use xlink:href="#m8021015d15" y="280.5" fill="#f4f4e2" stroke="#f4f4e2"/></g></g></g></g><defs><clipPath id="p5a597ea697"><path d="M7.2 7.2h275v266.1H7.2z"/></clipPath></defs></svg>