<svg xmlns="http://www.w3.org/2000/svg" xmlns:xlink="http://www.w3.org/1999/xlink" width="479" height="374" viewBox="0 0 359.3 280.5"><defs><style>*{stroke-linejoin:round;stroke-linecap:butt}</style></defs><g id="figure_1"><path id="patch_1" fill="none" d="M0 280.5h359.3V0H0z"/><g id="axes_1"><g id="PatchCollection_1"><defs><path id="m81deef5e8f" stroke="#f4f4e2" d="m320.1-151.5-.5.5-4.4 3.5-2.4 2-2.3 2-2.3 2.4-1.3 1.7-.7 1.2-.5 1-.2.7-.3 2.2.1.8.3 1 .5 1.3.7 1.2 1.6 2.7 2 4.1 3 5.2 1.3 1.7 1.3 1.5 1.5 1.4 1.6 1.3 3.8 2.9 6 4.4 1.8 1.4 1.6 1.5 1.4 1.6 1.2 1.5.7 1.1.5 1.4.3 1.5-.1 1.7-.4 1-.2.7-.7 1.4-4.8 8.9-1.3 2-1.2 1.9-1.4 1.8-.5.5-1 .7-1.6 1.2-2.7 1.5-4.3 2.2-2 1.4-3 2.4-1.8 1.5-1.6 1.7-1.6 1.7-1.2 1.9-1 1.8-.6 1.3-1.3 4.4-.6 1.5-.8 1.4-1 1.3-1.3 1.2-1.1.9-2.9 1.8-7 4-8.7 5.2-3 1.7-4.8 2.6-6.4 3-1.8 1.1-.6.6.1.3v.3l-.4.2-.4.2-3.5.3-2.8.5-3 .8-1.5.5-4.7 1.9-1.1.3-1 .3h-1l-1.2-.2-1.2-.4-2.7-1.2-2.3-1.2-4.6-2.5-5.7-2.8-1.7-.7-1.4-.5-3.6-1-2.5-1-6.3-2.8-1.6-.8-5.2-2.7-1.5-.7-1.2-.5-1.5-.5-1.6-.3h-2.1l-1.2.3-3.3 1-1.8.5-1.4.5-1.3.6-.8.4-.5.4-.2.2-5 .8-3 .3-2.9.2h-2.2l-2-.2-1.8-.3-1.5-.4-1-.4-2.2-1.1-1.8-1.3-1.5-1.4-.9-.8-1.7-2-1.7-2.4-1.4-2-1-1.8-4-7-1.4-2.7-1.6-2.3-1.7-2.1-1.9-1.6-1.4-1-.8-.3-1-.3-1.3-.2h-1.2l-1.1.3-.9.3-.7.6-.7.7-.6.9-.6 1.2-1 2.3-.4 1.6-.2 1.3v1.5l.6 4v1l-.6 1.6-.4.7-.7.7-.9.9-1.6 1.2-1.1.8-1.2.7-2 1-2 .6-1.2.3-1.8.2-1.8-.2-1.8-.6-1.7-1-1.7-1.3-1.4-1.4-1.7-2.2-1.3-2.4-1.2-2.6-1.1-3-1.2-3.2-.9-2.8-.3-1.3-.4-2.3-.3-2.7-.3-7.4-.8-6.6-.3-6-.2-2-.4-1.4-.7-1.8-1.3-2-2-1.8-2.4-1.5-2-1-2.1-1-10-3.7-2.2-1-2.5-1.3-2.4-1.6-2.3-1.8-2.1-2-2-2-2.4-2.8-1.7-2.2-1.4-1.9-1.7-2.6-2.1-3.7-4.3-8.2-2-3.6-1.5-3-2.8-5.8-.9-1.8-.8-1.5-1-1.3-1.2-1.9L38-158l-2.6-3.1-2.6-2.9-1.2-1.3-1.8-1.5-1.3-.8-1.2-.7-2-.5h-1.6l-.7.5-.1-.4.2-1.3.5-2 .8-2.4 1-2.5 1.2-2 1.7-2.4 2.3-2.4 2.6-2.2 2.9-2 3-1.6 3-1.4L45-192l2.8-.7 1.4-.3 4.4-.5 1.6-.5 1.8-1 1.4-1.4.7-1.4.5-1.3.3-1.3v-4.1l-.6-6-.1-3.1.2-3.3.3-2.9.5-2.7 2-8 .3-1 .8-2.1 1-2.4 1.3-2.4 1.4-2.4 1.6-2.4 1.6-2.3 1.7-2.2 1.7-2 2-2.2 1.8-2 2-1.7 2.2-1.4 1.3-.6 1.4-.3h2.3l1.2.3 1.4.6 1.4.7 2.3 1.2 8.5 5.6 2.3 1.5 2.5 1.4 3.3 1.8 2 .8 1.6.6 2.5.3h1.8l1.5-.2 2.2-.4 1-.3 2.3-.7 3.4-1.3 8.5-3.2 3.6-1.5 8.4-3.8 8-4 3.5-1.4 2.3-.8 2-.4 1.8-.1 1.5.2 2 .7 1 .5 2.2 1.4 9.4 7.5 4.4 3.6 6.5 4.9 2 1.6 1.9 1.7 1.5 1.8 1.2 2 1.7 3.5.9 1.4 1 1.4 1.6 1.4 1.7 1.3 1.7 1 5.6 3.2 2 1.5 1 .8 1.6 1.8 1.2 1.6 1.1 1.9.7 1.4.7 1.8.4 1.7.3 1.9.1 2.1v8l.3 3 .5 4 1.2 6 1.2 4.4.6 1.7.4.9.7 1.4 1.3 1.8.6.9 1.7 1.6 1 .7 1.2.7 1.6.7 3.6 1 1.8.7 1.5 1 .5.5.8 1.2.2.7v1.5l-1 3.6-.3 1.2-.3 1.5v3l.2.7.2.8.5 1 .7 1 .7.6 1 .4 1.2.4 1.5.1h1.9l3.2-.5 6.8-1.3 3.5-.7 3.3-.4 4.6-.2 8.5-.2 9.4.1h3.8l2.4-.2 3-.3 3.2-.5 6-1.2 2.5-.4h2.4l2.2.3 2 .5.6.3 1.5.7 1 .8.4.6"/></defs><g clip-path="url(#p4abe6f0632)"><use xlink:href="#m81deef5e8f" y="280.5" fill="#f4f4e2" stroke="#f4f4e2"/></g></g></g></g><defs><clipPath id="p4abe6f0632"><path d="M7.2 7.2h344.9v266.1H7.2z"/></clipPath></defs></svg>