<svg xmlns="http://www.w3.org/2000/svg" xmlns:xlink="http://www.w3.org/1999/xlink" width="395.6" height="374" viewBox="0 0 296.7 280.5"><defs><style>*{stroke-linejoin:round;stroke-linecap:butt}</style></defs><g id="figure_1"><path id="patch_1" fill="none" d="M0 280.5h296.7V0H0z"/><g id="axes_1"><g id="PatchCollection_1"><defs><path id="madb007ec51" stroke="#f4f4e2" d="M275.6-37.6h-.4l-2.3.8-4.4 1.7-2.5 1.2-3.3 1.8-1.7.9-1.4.4-1.3.1-1.4-.1-1.3-.4-1.1-.5-2-1.4-3.4-3-2.2-1.8-1.3-.8-1.2-.8-1.3-.6-1.3-.4-1.7-.3h-2.2l-.9.2-.8.2-1 .5-1.3.8-1.1.8-2 2-3 3.3-2.2 2.4L224-29l-2.2 1.6-2.3 1.5L213-22l-1.7.9-1.4.6-1.2.3h-.3l-.1.1-.4.2-1.3.3-1.8.2-1.8.2h-4.8l-5.1-.2-5.4-.4-4.5-.5-8.3-1-10-1.4-9.6-1.5-8-1.2-4-.8-4.1-1-3.5-1-4.1-1.4-4.3-1.8-2.2-1-4.2-2.4-2-1.2-2.9-2-2.1-1.7-2-1.8-1.6-1.5-2.1-2.2-3-3.6-3-3.8-1.8-2.5-5.1-8.5-1.9-2.7-2-3-1.6-1.9-1.3-1.5-1.1-1.1-2.5-2.2-2.8-2.2-2.9-1.9-4.7-2.9-1.7-1-1.7-1.4-1.4-1.4-.9-1-1.3-2-2-3.6-2.3-4.7-3.6-8-1.3-2.5-1.4-2-2.2-2.3-1.4-1-2-1-3.3-1-3.9-.6h-2.8l-3.4.2-2.2.3-2 .4-2.9.9-1.7.7-1.1.5-.9.5-.9.8-.1.2-.1.3-.5-.2-.7-.9-.6-1-.6-1-.7-1.8-.6-1.6-.5-2.1-.5-2-.4-2.4-.4-2.7-.3-3.3-.2-4.7v-3.3l.3-3.4.4-3.8.5-2.9 1-4.6 1.1-4.1 1.4-4.4 1.1-3 1-2.5 1-2 1.5-2.7 1.6-2.7L33-178l2.4-3.1 1.6-2 1.7-2 3.2-3.4 4.8-4.7 6.3-6 3.6-3.6 5.1-5.4 4.9-5.6 3.6-4.4 3-4 1.6-2.6 2.4-4.1 2.1-4.4 2.5-5.7 1.5-3.8 1-3.2.7-2 .6-2.2.4-2.2.5-5 .3-3.8.3.2.6.2 2.7.7 12.7 2.6 2.4.6 1.7.7 1.4.8 1 .9 1.4 2.2.7 2.7.3 3.1v3.4l-.2 6.9v3.4l.3 3.2.7 2.8 1.2 2.5 2 2.1 2.5 1.6 2.8 1.3 7.6 2.5 2 1 1 .7.7.7 2.6 3.2 1.7 1.8 2 1.9 2.3 1.8 2.1 1.6 2 1.2 2.4 1.4 2.5 1.2 2.4.7 1.2.1h.9l1.1-.1.8-.3.9-.4 1-.6 3.8-2.9 1.3-.8 1.5-.6h1.4l.6.3.5.4.7.7 1.7 2.4.8.8 1 .8 1.3 1 5.4 3 2.1 1.4 1 .8 1.9 1.6 1 1.1 1 2 .7 1.4.6 1.8.4 2.5v2.6l-1 6.2-.1 2v3.7l.1 2 .3 2.4.6 3.6.7 3.6 1.2 5 4.4 16.7 1.2 4 1 2.9 1.1 3.1 2.5 6.2.7 2.2.5 2 .3 1.7.2 2.4v2l-.3 6.3.1 3.2.4 2.1.1.6.3.9 1 1.8 1 1.6.7.8.8.6 1.3 1 1.4.7 2.2.6 4.8.8 4 1 1.8.5 1.2.5 1.7.8 1.9 1 4.3 2.5 10.7 7.2 5 3.1 2.5 1.4 2.5 1.3 2.5 1.2 5 2.2 3 1.5 2.7 1.8 2.9 2 2.2 2 1.8 1.7 2 2.2 1.4 2.1L275-50l1 2.4.7 3.3v2.6l-.1 2-.5 1.5-.4.6"/></defs><g clip-path="url(#p861346e929)"><use xlink:href="#madb007ec51" y="280.5" fill="#f4f4e2" stroke="#f4f4e2"/></g></g></g></g><defs><clipPath id="p861346e929"><path d="M7.2 7.2h282.3v266.1H7.2z"/></clipPath></defs></svg>