<svg xmlns="http://www.w3.org/2000/svg" xmlns:xlink="http://www.w3.org/1999/xlink" width="362.8" height="374" viewBox="0 0 272.1 280.5"><defs><style>*{stroke-linejoin:round;stroke-linecap:butt}</style></defs><g id="figure_1"><path id="patch_1" fill="none" d="M0 280.5h272V0H0z"/><g id="axes_1"><g id="PatchCollection_1"><defs><path id="m8350283cca" stroke="#f4f4e2" d="M222.9-221.7h.2l1.2.2h1.1l1.2-.2 2-.3 5.2-1 1.2-.2h2.3l1 .3 1 .5.8.6.7.8.7 1 1 1.6 2.7 5.9 3.7 6.9 1.2 2.6.7 2 1 5.3.4 2.3.6 2.8.2 1.8.2 5.4-.1.8-.2.5-.1.3h-.2l-.6.3-1.2.7-1.7 1.2-2.6 2.1-1.7 1.7-.5.5-1.1 1.7-2.8 5.6-1.2 1.8-1 1.1-1 1-2.9 2.2-1 1-1.8 1.6-1.4 1.8-1 1.5-1.8 3.1-.7 1.5-1.4 2.9-1 2.3-.8 2.2-.8 2.4-.6 2-.5 2.2-.6 2.8-2 10.3-1.2 5-1 3.3-.8 2.2-.5 1-1.2 2.1-1 1.2-1.2 1.3-1.2 1-3 2.1-2.5 2.2-1.4 1-3.6 2.2-2.4 1.2-3.5 2-1.9 1-3.6 1.7-1.3.6-1.2.7-1.6 1.3-1.6 1.5-1.8 2.3-1.5 2.2-1.4 2.4-1.2 2.6-.9 2.2-1 3.6-.7 3-.3 1.8-.3 1.8-.2 2.3-.1 2.3v2.6l.4 5 .3 7.4.4 3.8.7 3.4 1.1 3.2 1.4 2.6 1.8 2.4 2 2 2 1.6 1.4.9 1.1.6.8.3-3.4 2.9-2 1.6-1.2.7-2 1.2-2 1-1.2.4-1.4.3h-1.4l-1.7-.4-1.5-.8-1.4-1-2-2.2-2-2.4-3.8-5.8-1.3-1.7-1.3-1.7-1.4-1.6-1.6-1.4-2.1-1.7-3.8-2.6-2.2-1.3-2.8-1.2-3-1.2-3.2-1-2.5-.7-2.2-.4-6.7-1-1.8-.5-2.1-.8-.6-.4-.9-.5-1-.9-1.8-1.7-5-5.9-2.2-2.2-1.9-1.7-1-.7-1.7-1-1.3-.6-1.7-.5-2-.4-2-.2-2.5-.2-11.5-.6H72.7l-3-.4-1.9-.3-2.1-.5-1.3-.4-1.6-.6-2.9-1.3-4-2-2.2-1.4-2.3-1.7-1.2-1-1.8-1.6-2.6-2.7-1.8-2-3.8-4.6-5.5-7-3-3.8-2.5-3.3-3.3-4.7-2.2-3.3-1.3-2.1-1.5-2.8-1.2-2.4-.6-1.8-.2-.9v-.6l.2-.2 1.7-.5 3.3-1.1 9.2-3.6 3.4-1.2 3.3-1 20.2-6 2.6-.8 9.2-3.4 1.8-.7 1.5-.8.7-.5.7-.6.8-1 .1-.8-.1-.7-.6-1.2-2.2-2.5-1.2-1.5-.9-1.3-.7-1.3-1.8-3.4-1-2-1.2-3-1-3-1-3.4-1-4.2-.5-3.4-.5-3.5-.4-4.8-.7-11-.3-3.6-.6-3.4-1-3-1.3-2.8-.9-1.3-1-1.2-1.5-1.2-4.8-3.7-5.5-4.5-1-1-.9-1-2.7-3.5-1.4-1.5-.7-.7-.7-.4h-.6l.2-.8.7-1.8 4-8.1 2-4 1.3-2.1 2.3-3.7 2.3-3 2.5-2.6 2.7-2.2 3.2-1.7 3.4-1.1 3.5-.9 3.7-.5 3.8-.5 3.8-.3 7.8-.4 17.9-.8 7-.1h6.8l4.7.2 4.8.3 3 .3 2.8.4 2.4.7 1.8.8 1 1.3.2 1-.2 1.4-.4 1.3-1.2 2.2-2.3 3.6-4.8 6.9-1.6 2.4-1.5 2.5-1 2.3-.7 1.8-.1.9v1.7l.4.7.5.6.7.7 1 .7 1.2.5 1 .3 2.4.7 2 .4 1.9.3 1.9.2 6.5.7 4 .5 4 .8 1.7.5 1 .5 2.1 1.2 2 1.6 1.8 1.8 1.8 2 3.8 4.5 2 2.3 2.3 1.9 2.5 1.4 1.1.4 1.8.3 1.4.1h2.5l2.6-.5 2.6-.6 1.9-.6 1.8-.7 2.7-1 1.4-.7 3.3-1.9 4.6-2.6 2.4-1.3 2.7-1.3 2.5-1 1.5-.4 5.1-1.3 2.5-.7 2.7-1 .7-.4 1.4-.8 1-.7.5-.6"/></defs><g clip-path="url(#p95951e9b18)"><use xlink:href="#m8350283cca" y="280.5" fill="#f4f4e2" stroke="#f4f4e2"/></g></g></g></g><defs><clipPath id="p95951e9b18"><path d="M7.2 7.2h257.7v266.1H7.2z"/></clipPath></defs></svg>