<svg xmlns="http://www.w3.org/2000/svg" xmlns:xlink="http://www.w3.org/1999/xlink" width="495.4" height="322.8" viewBox="0 0 371.5 242.1"><defs><style>*{stroke-linejoin:round;stroke-linecap:butt}</style></defs><g id="figure_1"><path id="patch_1" fill="none" d="M0 242h371.5V0H0z"/><g id="axes_1"><g id="PatchCollection_1"><defs><path id="mf0ffa53ae0" stroke="#f4f4e2" d="m276.2-152.1.7.2 2.7 1.1 1.2.4 1.1.2 2.4.3 1.6.5 1.4.6 2.3 1 .6.3.6.2h2.7l1.8.3h.8l.6-.3 1.3-1.3.4-.2.4-.3.5-.1h.7l.8.2.5.3 2.2 1.2 1.5.7 3.1 1 2.4.6h.6l.6.4.7.6 1.3 1.5 2.6 3.2.9 1 1 1 5 4.2 4.7 3.5 1.3 1.2 1 1.1.9 1.2 1.2 2.6.9 3 .5 3.1.4 3.4.7 10.5.3 4.5.5 3.3.5 3.2 1 4 .8 3.2 1 3 1.2 2.7.9 1.9 1.7 3.2.7 1.3.8 1.1 1.1 1.5 2 2.4.7 1v1.5l-.7 1-.7.5-.7.5-1.4.7-1.7.7-8.8 3.2-2.4.8-19 5.6-3.3 1-3.2 1.2-8.7 3.3-3 1.1-1.6.4-.2-.3-.5-.1h-1l-.9.2-2.8.8-7 2.4-3.5 1-4.4 1.2-4.4 1-15.4 3-1.6.2-2.7.2-3.8.2h-1l-4.2.7-1.5.3-1.3.3-1.2.5-1.6.7-2.3 1.8-2.2 1.3-.7.6-.7.6-2 2.1-2.8 2.4-2.5 2.3-2 1.6-1.3.8-1.2.6-1.1.5-1.1.4-1.5.3h-.9l-.8.2-1.2.3-1.2.2H207l-1-.2-1-.4-1.3-1-1.5-1.5-2-2.3-1.8-2-2.1-2.1-4.6-4.2L183-39l-1.8-1.6-3.9-3.8-1.2-.9-1-.5-1.7-.6-2.3-.4-2.4-.4-4.3-.4-2.8-.4-2.9-.5-5.5-1.1-3.4-.9-5.8-1.9-3.3-.9-3.2-.6-1.3-.1H133l-1.5.2-1.5.5-1.6.7-1.3 1-1.2 1.3-1 1.4-1 1.3-1.1.8-1.8.5h-1.6l-2-.3-2.2-.4-4.4-1-12.9-3.2-7.5-1.6-9.3-1.7-3.7-.7-4.8-.7-6.4-.8h-.5l-.8-.3-.7-.6-.6-.6-.6-.7-.7-1.1-.4-1-.7-1.8-.5-1.8-.4-2-.4-2-.4-3.8-.2-3.8-.3-9-.4-11.2-.2-10.4-.2-3.9-.3-4.8-.4-3-.4-1.5-.4-1.5-.8-2-.7-1.4-.6-1.1-1.4-2-1.1-1.5-1.4-1.7-1.4-1.4-4-4-2.3-2.3-1.6-1.8-1-1.4-1-1.4-1-1.5-.6-1.3-1.1-2.4-.5-1.4-.5-2-.7-3.3-.2-1.3v-1.2l.4-2.2.5-2 .8-3 1.4-4.3 3.2-8.3.7-2.8.3-1.3v-1.5l.1-1-.1-1.9-.5-3.4-.7-3.2-.3-1.2-.7-2.2-1-2.4-1.5-2.7-1.5-2.5-2.1-2.8-2-2.5-8.4-9.4.4-.6.6-.5 1.5-1 2.8-1.4 1.7-.7 2.9-1 1.8-.5 1.3-.3 2.5-.1h3l2.6.3 9.4 1.2 7.2.8 2 .3 3.4.6 2 .5 2.7.7 1.7.7 2.4 1 2.5 1.4 5 3.3 3.6 2.1 1.3 1 2.3 2 1 .6 5.3 3 8.3 4.2 9.8 4.3 7 2.8 2.6 1.3 2.6 1.4 2 1.3 2 1.5 1.5 1.4 2 2 1 .8 1 .8 1.1.8 7.9 4.6 5 3.4 6.8 4.2 1.2 1 4.6 3.3 2.1 1.5 3 1.7 2.2 1.1 1.2.5 3.5 1.4 2.8 1 1.5.5 2.1.5 5.2 1.1 1.9.5 1.3.5 1.5.7 1.2.7 1.8 1.2 6.2 4.5 2 1.3 1.5 1 1 .5 1.9.8 1.5.5 1.6.5 2.8.5 2.9.4 3 .2h1.6l1-.3.8-.4.7-.4 1.5-1.2.9-.4 1-.2h1l1.2.2.8.2 2.5 1 1.5.6 3.1 1.8 1.3.5.8.2 1.2.3 1.3.1h1.7l2.2-.1 1-.1 1.7-.4 2.5-.9 2.7-1.1 7.6-3.5 3.3-1.5 3-1 2.5-1 2.3-.6 3.1-.7 1.6-.4h.4"/></defs><g clip-path="url(#p89461b7469)"><use xlink:href="#mf0ffa53ae0" y="242.1" fill="#f4f4e2" stroke="#f4f4e2"/></g></g></g></g><defs><clipPath id="p89461b7469"><path d="M7.2 7.2h357.1v227.7H7.2z"/></clipPath></defs></svg>