<svg xmlns="http://www.w3.org/2000/svg" xmlns:xlink="http://www.w3.org/1999/xlink" width="297" height="374" viewBox="0 0 222.8 280.5"><defs><style>*{stroke-linejoin:round;stroke-linecap:butt}</style></defs><g id="figure_1"><path id="patch_1" fill="none" d="M0 280.5h222.8V0H0z"/><g id="axes_1"><g id="PatchCollection_1"><defs><path id="me7808fd9bf" stroke="#f4f4e2" d="m200.7-125 .2.7 1.6 3.9 1 2.8.8 2.4.7 2.2.6 2.6.4 2.3v3l-.2 1-.2.7-.6 1.3-.6 1-.7 1.1-1.3 1.9-4.2 5.7-.7 1-.4.8-.8 1.5-.6 1.5-.7 2-.7 2.3-1 4.2-.6 1.9-.6 1.4-.3.6-.3.5-.4.5-.3.2-.3.2-.3.2h-.4l-.4.1h-1l-3.2-.5-1.7-.1h-2l-1.8.2-.8.2-1.9.4-.8.2-1.4.5-1 .5-.6.3-1.6 1-1.5 1-1 1-1.2 1.3-.9 1.3-.3.6-.6 1.1-.5 1.2-1.3 3.5-.6 1.4-.6 1.1-1 1.8-.5.8-.9 1.2-.7 1-.9.8-.7.7-.8.7-1.6 1.1-1.8 1.2-5.4 3.3-3 1.8-1.1.8-1.3.9-1.2 1-1.1 1-1.5 1.4-1.3 1.6-1.4 1.7-1.2 1.7-3.5 4.8-1.3 1.8-1.4 1.7-1.3 1.6-1.4 1.3-1.2 1-1 .6-1 .5-1 .2-1.4-.2-1.4-.6-2.5-1.4-.4-.2h-.5l-.4-.1-.2-.2-.4-.5-.4-.6-1.8-2.8-.6-.8-1.2-1.5-.8-1-.6-1.3-.5-1-.4-1.2-.8-2.4-1-3.2-.2-1-.6-1.4-.7-1.4-.4-.6-.4-.6-.4-.5-.7-.8-.7-.6-1-.7-1-.7-.8-.3-1.1-.5-2-.8-5.7-2-.8-.4-.7-.5-.5-.4-.4-.6-.4-.5-1.2-2.6-.6-1.2-.7-1.2-.8-1.2-.7-1-.8-1-.7-.8-.9-.8-.8-.5-1-.2H80l-.7.1-.6.2-.7.3-.6.4-3.2 1.8-.2-.1v-1l.5-2 .4-1.4 1-3 2.6-7.3.3-.8.4-1.7.3-1.3v-1l-.3-.7-.3-.3-.3-.1-.5-.1h-.6l-1 .1-1.2.2-2.3.6-1.1.3-1.5.5-2 .8-2 .9-2 1-7.5 3.9-2.8 1.3-1.4.6-3 1.2-2.6 1-2.1.6-1.9.5-2 .5-1.6.3-1.5.2-1.2.1h-1.9l-1.2-.3-.9-.2-.5-.2-1-.7-.8-.7-.6-.7-.5-.8-.4-1v-.2l-.4-1.5V-76l.2-1.1.4-2.1.4-1.7L31-86l.4-2 .4-2 .3-1.5.4-3.1.4-4.7.5-4.5.1-2.2v-1.7l.1-3.6.1-3.3.2-2.8.4-4.6.2-4 .8-8 .9-6.7.2-2.8.1-2.7v-8.8l.3-1.7.3-1.6.2-.5.5-1.4.4-.9.4-1 1-1.7.7-1 .7-1 1.8-2 2-2.5 1-1 1-1.5.6-1 .6-1.3.3-.8.2-.7v-1.7l-.3-.5-.2-.5-.4-.5-.5-.6-.6-.8-.8-.7-3.7-3.3-1.4-1.3-1.4-1.5-.6-.8-.6-.7-1-1.5-1.2-1.9-1.3-2.2-1.2-2.2-3.4-6.7-1.2-2.2-.8-1.3-1.1-1.9-.9-1.1-.7-1-1.3-1.6-.7-.7-.8-.8-1-.8-.9-.8-1-.7-1.3-.8-.8-.4-.4-.2h-.2v-.1l.1-.5.3-.7.6-.7 1.1-1.2 2.5-2.4.7-.8 1.8-2.1.6-.7.8-.7.7-.5.9-.6 1.5-.8 2.6-1.3 1.5-.9.5-.4.8-.7.7-.7.7-.7.6-.8 1.2-1.6 1.5-2.4.6-1 1-1.8 1-2.7.6-1.3.7-1.2.9-1.3 2.4-3 1.6-2.1.7-.9.8-.8 2-2.1 1.6-1.5 1.5-1.3.5-.3.4-.2v.3l.2.2.8 1 2 2 5 5 1.4 1.4 1 1.2.6.8.6 1 .3.6.3.7.5 1.5.6 2.1.2.6.3.7.2.3.5.6.6.6 1.4 1 1.6 1.4.6.7.6.9.6 1 .4.9 2 4.4.4 1 .7 1.3.9 1.5 1 1.5.8 1 .8 1 .9.8 1.2 1.2 1 .8 1.5 1.2 3.4 2.4L95-213l1.4 1 1.2.8 2.3 1.9 2.4 2 1.6 1.5 4.8 4.5 3.7 3.5 3.8 3.7 4 4.2 4 4.4 3.2 3.7 2.1 2.6 1.7 2 2.1 3 1.4 2 1.1 1.9 2 3.6 1.3 2.1 1 1.4 1 1.3 1.2 1 .8.5.5.3 1.3.5 1.7.4 3 .7 2.7.4 6.8.9h1l1.1.1h1.7l.6-.2.6-.2.7-.2.6-.3 1.2-.6.7-.4 1-.7 1.1-.8 2.5-2.1 1-.9 2-2 .5-.4.6-.4.2-.1.3-.1h.7l.3.1.3.2.3.3.3.3.3.4.2.5.1.4.3 1.4.4 3.5.2 1 .4 2 .4 1.8.5 1.4.6 1.6.6 1.3.5 1 .6 1.1.9 1.1.9.9 1 .8 1.1.7 1 .5 1 .4 2.7 1.2.9.4.6.4.8.5.7.6.7.6.6.8.6.7.5.8.4.8.7 1.5.6 1.7.3 1.6.3 1.7.1 1.8.2 2.2v.8l.2.6.2.2h.3"/></defs><g clip-path="url(#p8e3b399a8c)"><use xlink:href="#me7808fd9bf" y="280.5" fill="#f4f4e2" stroke="#f4f4e2"/></g></g></g></g><defs><clipPath id="p8e3b399a8c"><path d="M7.2 7.2h208.3v266.1H7.2z"/></clipPath></defs></svg>