<svg xmlns="http://www.w3.org/2000/svg" xmlns:xlink="http://www.w3.org/1999/xlink" width="495.4" height="287.2" viewBox="0 0 371.5 215.4"><defs><style>*{stroke-linejoin:round;stroke-linecap:butt}</style></defs><g id="figure_1"><path id="patch_1" fill="none" d="M0 215.4h371.5V0H0z"/><g id="axes_1"><g id="PatchCollection_1"><defs><path id="m0d03dc7dea" stroke="#f4f4e2" d="m348-80.5-.4.7-.5 1-.7 1.7-.3 1.1-.7 2.9-.5 1.9-1 2.8-1 2.8-.7 1.7-.7 1.6-.6 1-1 1.8-1.3 2.7-1.3 2.4-.3.9-.2.6-.3 2-.6.4-2.4 1.1-2 .8-1.1.4-3.1.8-5.7 1.2-2.1.6-2 .8-1.4.5-3.8 1.7-1.3.5-1.4.4-1.3.3-1 .2-3.1.5-1.5.3-2 .5-1.9.8-1.6 1-.4.4-1 .8-.7 1.2-.2.6-.3.9v3.7l-.1.8-.2.7-.2.5-.7.3h-.9l-1-.2-3.1-1.4-1.5-.6-1.5-.7-1.7-1-1.8-1.2-5.6-4.2-3.2-2.2-3.2-2-2-1.1-1.3-.6-1.3-.3-1.4-.2-1.5.2-1.7.5-1.6.8-1.5 1-3.2 2.2-1.6 1-2 .8-1.4.6-1.6.5-1.2.2-1.3.2h-1.2l-1.2.1-1.7-.2-1-.1-4.5-1-2.3-.4-2.4-.1-2.4.1-2.6.3-2.5.5-2.6.6-10.6 2.9-1.6.4-12.3 2.5-9 2-3.2.9-3 .8-5.7 1.7-8 2.6-.6.2-1.5.4-2 .4-4.2.7-2.7.3-2.1.1h-1.8l-1.7-.2-4-.6-2.2-.2h-5.5l-7.8.8-2.5.4-1.7.4-1.5.4-4.1 1.5-2.5.8-2.3.5H114l-1.4-.4-1.4-.4-3-1.1-3.2-1-1.7-.6-2.6-.6-3-.5-1.4-.1h-2.9l-.7.1-1.2.3-2.1.8-.7.2-.7.1h-1l-.7-.2-.5-.2-.4-.2v-.1l-.4-.9v-.5l.3-.7 1.5-3.1.4-1.2.3-1 .4-1.9.2-1 .1-1.9.1-1.7v-1.5l-.5-2-.5-1.2-.6-1-.8-1.2-1.2-1.4-1.6-1.4-1.2-1-1-.7-1-.5-1.1-.4-6.3-2-2.9-1.2-2.5-1.3-2.2-1.4-1.4-1-2-1.6-1.8-1.7-2-2-1-1.3-.8-1.2-.8-1.4-.5-1.1-.4-1.2-.2-.8V-69l.2-1.1.3-1 .4-1.2.5-1 .4-.9.6-.8 1-1.4 4-4.7 1-1.5 1.2-1.6 1-1.4.5-1 .5-1 .7-1.7.4-1.1.4-1.9.2-1 .1-1.5v-1.4l-.3-1.2-.2-.8-.4-.9-.4-1-1-1.6-.9-1.3-.8-1-1.3-1.4-1.8-1.6-2.3-1.9-3.1-2.5-4.8-3.5-1.2-1-.8-.8-1-1-.9-1.2-1.4-2.1-1.2-2.4-.6-1.3-.5-1.4-.7-2-.7-3-1.2-6.2-.6-2.5-.4-1.3-.7-2.1-2-4.7-1.6-3.6-1.9-3.6-2-3.8-4.4-7.8-1-1.5-.9-1.3-.5-.6-.5-.4.5.2 1 .2 1.2.3 1.3.1h1.3l1.1-.2 1.3-.3 1-.4.6-.3 1.2-.8.7-.5L37-174l.7-.6.8-.4.6-.3.5-.2.9-.2 1 .2 1 .4 1 .6 4 2.8 1.5.8 1 .4 1.7.5h1.7l1.5-.2 2.2-.7 2.2-.8 2.4-1 1.8-.7 4-2.1 7-4 2.4-1.2 3-1.6 2.5-1.1 2-.8 1.8-.7 2.8-.9 4.5-1.4 2.9-1 1.4-.5.5-.2 4-3.4 1.5-1 1.6-1.2 2.3-1.4 2.2-1.2 2.3-1 2-.6 1.9-.2 1.7-.1h2.5l2.1.1 2.2.3 1.6.4 1.8.5 1.6.6.6.3 2 1 3 2 2.5 1.8 2.5 2 2.7 2.3 2.7 2.4 4.8 4.4 3.2 2.8 3.6 2.8 1.7 1.2 1.7 1 .5.2 1.5.6 1.5.4 5.7 1.2 1.5.3 1.2.4 1.5.6 1.7 1 1.1.6 2.2 1.5 4.2 3 2.2 1.6 2 1.3 5 3 3.5 2 1.9 1 1.2.5 2.5 1 1.6.6 1.5.5 3.2 1 3.1.7 2 .4 1.7.2 2.3.2 3.6.3h3.8l4.8-.1 4-.2 4.6-.4 7-1 2.1-.3 2-.2h3.5l2.5.2 2.5.4 2.3.7 1 .4.9.4 3 1.6.7.3 1 .4.9.2.8.1h1.9l1.2-.2 1.1-.3 1-.5.5-.3 1-.7 4-3.2 1.4-1.1 2.2-1.4 2.2-1 2.4-1 2.4-.7 2.3-.6 2.2-.4h2.1l2 .3 2.2.8 2 1.4 1.8 1.7 1.9 2 1.7 2.2 1.8 2.2 3.4 4.8 3.3 4.8 4.3 6.6 5.4 8.3 2.7 4.4 4.2 7 1.2 2.2 1.1 2.1.6 1.4.5 1.3.3 1.4 2.2 8.6.6 1.7 1 1.9.7 1.4 1 1.5.8 1.3 1 1.2 1.4 1.6 1.7 2 1.1 1 .5.3"/></defs><g clip-path="url(#pb56bbcf057)"><use xlink:href="#m0d03dc7dea" y="215.4" fill="#f4f4e2" stroke="#f4f4e2"/></g></g></g></g><defs><clipPath id="pb56bbcf057"><path d="M7.2 7.2h357.1v201H7.2z"/></clipPath></defs></svg>