<svg xmlns="http://www.w3.org/2000/svg" xmlns:xlink="http://www.w3.org/1999/xlink" width="373.9" height="374" viewBox="0 0 280.4 280.5"><defs><style>*{stroke-linejoin:round;stroke-linecap:butt}</style></defs><g id="figure_1"><path id="patch_1" fill="none" d="M0 280.5h280.4V0H0z"/><g id="axes_1"><g id="PatchCollection_1"><defs><path id="m98d4aa00b7" stroke="#f4f4e2" d="M84.3-250v.5l.1.6.7 2.5.5 1 1 2.3 1.3 2.4 1.2 1.8 1.9 2.2 2.2 1.9 2.6 1.4 2.9.8 2.9.5 3 .2 3-.1 2.9-.3 4-.7 6.1-1 2-.3h1.9l1.7.3 1.6.4 3.2 1 1.8.3 1.7.2 1.8-.2 2.4-.6 2.5-1.2 2.1-1.4 4.1-3 2.2-1.3 1.4-.6 1.5-.5 2-.5 1.3-.3 1.9-.1h1.2l1.9.2 2.4.8 2.2 1.5 2 2 1.9 2.4 4.9 6.9 3.5 4.7 2 2.4 2.1 2.2 2.2 1.7 2.3 1.3 2.2.6 1.6.2h1.6l5.4-.3 2.5-.1 2.6.2 2.6.6 2.6 1 2.8 1.3 2.3 1.4 2.3 1.7 1.8 1.6 1.8 1.7 1.4 1.4 2.1 2.4 1.3 1.7.6.8.3.5v.4l.2.4.6.8 3.8 5 1.9 2.7 1.6 2.6.7 1.3 1 2.2.3 1 .3 1.2.2 1.2v1.9l-.3 2.5v2.2l.2 3 .6 3 .4 2 1 2.7 2.2 5 .4.6.6.8 1.1 1 1 .7 3 2 1 .7 1.2 1 2 2 3.7 4.1 1.4 1.4.7.6 1.7 1.3 1 .6 3.5 2.1v.4l-.3 1-.6 1.1-1.5 2.6-1 1.5-2 2.7-2 2.6-2.3 2.7-4.6 5-4.7 4.6-4.7 4.2-9 7.7-2.1 2-1.8 1.7-2.1 2.4-2 2.7-.8 1.2-1.1 1.8-1 1.7-.5 1.4-.8 2.2-.3 1-.2 1.1v4.1l.6 3.6.5 4.4.3 1.7.4 1.6.8 1.8 1 1.5 1.2 1.9.8 1.4.6 1.8.4 1.8.1 1.9-.2 1.4-.6 2-1 2-1.4 2.1-1.7 2L216-45l-1.5 1.3-1.6 1.3-2.2 1.4-4.3 2.7-2.6 1.4-4.2 1.8-2.1 1-4 2.1-2.7 1.7-9.4 6.4-4 3-1.5 1.2-1.2.5-.5-.2-.3-.3-.2-1-.4-3.6-.5-2-.3-.8-.6-1.4-.7-1.1-2-2.7L168-34l-1-1.2-1.6-1.6-1.2-1-1-.9-1.6-1-1.6-.7-1.8-.3h-3.8l-1.6.2-1.6.3-2.6.6-1.8.6-4 1.4-5.6 2.2-10.2 4.2-2.3.8-2.7.9-2.7.7-2 .4-4.9 1-4.8.6-3.8.2-3.4-.1-2.6-.3-1.8-.3-2.7-.7-5-1.5-1.4-.3-2.7-.4-5.7-.4-2.8-.4-3.1-.7-2.4-.7-2-.7-4.7-1.9-11.6-4.8-1.7-.6.2-.7-.2-.5-.4-.9-1.5-2.2-2-2.5-2.5-2.7L33-60.6l-2.8-3-1.6-2-1-1.6-4.1-6.1-1-1.6-1.3-2.5-.8-2-.8-2.4-.3-2.5v-1.6l.1-1.7.4-1.6.5-1.4 1-1.9 1.4-2.4 1.8-2.6 2.7-3.6 1.3-1.6 1.9-1.7 1.5-1.2 2.8-1.8 1.8-1 1.9-1 2-1 2.7-1 11.4-3.7 6.4-2.2 3-1.2 3-1.4L69-121l2-1.4 1.7-1.5 1.3-1.6 1-1.9.4-2 .1-1.1v-1.6l-.1-1.6-.2-1-.7-2.6-.8-2.6-1-2.6-1.4-2.5-1-1.6-2.3-3-3.9-5-1.3-1.6-1-1-3.3-2.8-4.7-3.8-9.7-7.4-1.1-1-.8-.8-1.2-1.5-1.8-2.6-4.5-5.3-1.4-2-1.3-2.3-1-2.3-.3-1.3-.4-1.7v-2.1l.1-2.1.4-3.4 1.6-7 2.7-9.2 1.8-4.8.8-2.5.4-2.4v-2.8l-.3-2.8-1.3-7-.2-3 .2-2 .3-1.8.3-1 .6-1.8.5-1 .3-.4h.8l1.8-.3 1.8-.6 1.6-.8 1.5-1 2-1.5 6-5 1.5-1.1 1.4-.8.7-.4 1.4-.4.7-.1h.9l.9.3.8.3 1.8.8 2.7 1.6 6.8 4.2 3 1.5 2.2.9 4 1.1 1 .3.4.3"/></defs><g clip-path="url(#pad18bf097d)"><use xlink:href="#m98d4aa00b7" y="280.5" fill="#f4f4e2" stroke="#f4f4e2"/></g></g></g></g><defs><clipPath id="pad18bf097d"><path d="M7.2 7.2h266v266.1H7.2z"/></clipPath></defs></svg>