<svg xmlns="http://www.w3.org/2000/svg" xmlns:xlink="http://www.w3.org/1999/xlink" width="357.3" height="374" viewBox="0 0 268 280.5"><defs><style>*{stroke-linejoin:round;stroke-linecap:butt}</style></defs><g id="figure_1"><path id="patch_1" fill="none" d="M0 280.5h268V0H0z"/><g id="axes_1"><g id="PatchCollection_1"><defs><path id="ma4f44435ea" stroke="#f4f4e2" d="m76.8-253.8.5.4.9.8 1 1.1.9 1.3.7 1 .5 1.2.3 1v1.9l-.4 2-.8 1.7-2.9 5.8-.5 1.1-.3 1.2-.4 2-.1 2.1-.1 3-.1 1.4-.2 1.3-.5 1.9-.4 1.6-.8 2.1-.7 1.6-1.5 2.7-.6 1.4-.4 1.5-.2 1-.1 1.7-.1 2.4-.2 2.5v3.9l.2 1.6.4 1.3.4 1.3.6 1.2 1.3 2.5.8 1.3 1.9 2.9 1.3 1.7 1.4 1.7 1.5 1.6 1.4 1.3 1.4 1.3 1.6 1.2 1.5 1 1 .5 1.9 1 .9.4 1 .4 1 .2h2.4l3.2.5 1.5.1h3l5-.2h4.7l3 .3h1.8l1.5-.1 1.5-.3 4.6-1.1 1.3-.2 1.4-.1h1.4l1.4-.1.7-.2 1.2-.4 1.2-.6 1.5-1 .5-.5 1-1 2.5-3 1.2-1.3 1-.8.9-.6.6-.3 1.5-.4 3-.3 1.8-.3 1-.4 1.5-.7 5.5-3 1.7-.8 1.6-.6 1.6-.4 1-.3 1.4-.2 5.9-.5 6.6-.7h1.6l1.6-.2h3l8.5.1h1.3l1.4-.2 1.8-.3 1.8-.6 1.8-.8 2-1.1 1.4-1 1.2-.8 1.4-1.3 3-3.1 1.5-1.4.7-.5.9-.6.8-.5 1-.4.7-.4.9-.2.9-.1h1.6l.8.1.7.2.6.3.6.4.8.5.3.3.1.1.3.4 1.2 1.7 4.7 6.3 1.5 1.8 2.4 2.6 1.3 1.6.8 1.3.4.9.3.7.3 1 .2 1v1.2l.2 7.8.3 3.8.2 2.4.2 1.2.2 1.1.5 2 .6 1.9.3 1 1 2.2 1.2 2.5 2.8 5.2 2.6 5.3 1 2.1.8 2.3.6 2.5.5 2.1.8 5.8 1.1 6 .3 2.4h-.4l-1.5.1h-2.1l-2.4-.2h-1.1l-1.8-.4-2-.4-1.2-.3-2.3-.7-1.4-.5-1.6-.7-2-1-2.3-1.3-1.8-1.1-4.3-3-1.2-.8-1-.5-.6-.3-1-.3-1.2-.3-1-.1h-2l-.8.1-.9.3-1 .3-1.1.5-1.6 1-2.2 1.3-1 .8-.9.8-1.4 1.4-.7.8-.8 1-.4.6-.7 1.3-.3 1-.2 1v1.7l.1.6.3.6.4.7 1 1.1 1.2 1.3 1 .8 1.5 1.2 2 1.5 4.2 3 1.2 1 1.3 1.2.7.8.6.7.8 1.2.5.9.3.6.5 1.4.3 1 .2 1 .2 1.4.1 1.9v2.6l-.2 2.5-.7 7.8-.2 2.4v3.9l.2 1 .4.2-.4.2-1 .4-6 2-1.4.4-1.3.7-1 .5-1.6 1.2-1.4 1.3-1.4 1.5-.6.7-1.2 1.6-1.8 2.4-1 1.6-1.5 2.3-2.3 4-1.7 2.8-2.9 4.2-1.3 1.8-.7.8-1 1.2-1 1-2.1 1.7-1.4 1-2.3 1.4-1 .6-2 .8-2 .6-2.6.7-2.7.4-2.3.3-2.4.2-5.8.2-2.2.2-2.5.3-3.4.6-2.3.5-2.8.8-2.8.8-2.7 1-2.8 1-2.7 1.1-4.2 2-7.2 3.6-2.4 1.2-2.4 1-2.8 1-2.3.8-2.3.7-5.3 1.3-2.5.6-2.4.5-2.1.3-1.9.2h-1.3l-.8-.5v-.8l.7-1.2 1.2-1.4 1.5-1.6 3.6-3.6 8.1-8 2-2 2-2.1 1.8-2.2 1.7-2.2.8-1.3 1.1-2 .9-2 .5-2 .2-1.7-.2-1.5-.7-1.2-1.3-.7-1.7-.3h-4.2l-1.9.4-1.7.3-1.3.4-.5.2h-.5l-5.8 1.7-5.4 1.4-2.8.6-2.8.5-2.8.3-2.8.2h-2.6l-2.5-.5-2.5-.7-2.4-1.2-2.3-1.3-2.2-1.5-1.9-1.5-3.4-3-2-1.7-2-2-1.5-1.5-1.4-1.6-1-1.1-.8-1.2-1-1.6-.7-1.5-.4-1.3-.4-1.3-.2-1.5v-2.9l.2-1.4.3-1.2.3-1.1 1.2-3.4.6-2 .4-2.2.6-3.2.5-2 .5-1.8.6-1.3.7-1.2 1.9-3 .5-.8.3-.9.1-.6.1-.6v-1.3l-.3-.8-.7-1.6-.8-1.2-.6-.7-.5-.6-.4-.3-1-.8-1.3-.7-3.9-2.1-1.5-1-1.2-1-1-1-1.4-1.5-.8-1.2-1-1.4-1.6-2.7-1-1.7-1-2.1-1.4-3.1-1-2.7-.5-1.6-.5-1.9-2-7.6-.3-1.7-.2-1.4v-1.5L35-154v-2.9l.5-7.2v-3.7l-.2-2.8-.4-2.5-.5-2.4-.7-2-.9-1.7-.8-1.4-.7-.8-.4-.3.2-.2.6-.6.8-.9 1.8-2.4 1.2-1.7 1-1.8 1-1.8 1-1.9.7-1.9.4-1.8.1-.7v-2.1l-.5-2-.7-2.1-1-2-1.2-2-1.4-1.8-1.4-1.7-4.2-5.2-2.6-3.5-2.5-3.6-1.7-2.8-1.3-2.2-1.4-2.8-.6-1.6-.4-1.3v-1.3l.1-1.3.5-1.3.7-1.4.8-1.4 1-1.4 1.6-1.8 1.3-1.5 1.5-1.5 1.5-1.4 3.3-3 1.3-1 1.9-1.4 1.4-.9 1.2-.7 2.4-1 2.2-1 2.3-.7 2.2-.6 2.1-.5 2.6-.5 2.5-.4 2.6-.3 5.1-.5 2.5-.1 3.6-.1h1.2l2 .3 1.8.6 1 .6.8.8.7.9.8 1.2.7 1.3.8 1.7"/></defs><g clip-path="url(#pd3cc1f28ac)"><use xlink:href="#ma4f44435ea" y="280.5" fill="#f4f4e2" stroke="#f4f4e2"/></g></g></g></g><defs><clipPath id="pd3cc1f28ac"><path d="M7.2 7.2h253.6v266.1H7.2z"/></clipPath></defs></svg>