<svg xmlns="http://www.w3.org/2000/svg" xmlns:xlink="http://www.w3.org/1999/xlink" width="475.7" height="374" viewBox="0 0 356.8 280.5"><defs><style>*{stroke-linejoin:round;stroke-linecap:butt}</style></defs><g id="figure_1"><path id="patch_1" fill="none" d="M0 280.5h356.8V0H0z"/><g id="axes_1"><g id="PatchCollection_1"><defs><path id="m1204b076cd" stroke="#f4f4e2" d="m304.9-242.2.2 2.4.1 2.5v3.6l-.1 3.8-.6 3.8-1.1 3.5-1.3 2.5-1.7 2.2-2 1.8-2.2 1.4-1.7.8-1.7.5-2 .4-1.9.3-4.7.5-4.2.2-4.3.1-5-.2-2.8-.3-2.5-.3-1.2-.3-3.5-.9-3.4-1-3.5-1.2-13-4.6-3.7-1-1.9-.5h-1.9l-.5.2-.6.4-.4.3-.4.7-.1.8v2.7l.4 1.9 2 8 .7 2.9.5 2.8.2 2.7v2.2l-.3 1.6-.7 2-1.4 2-2 1.7-2.3 1.6-2.6 1.4-4.1 1.9-3 1.2-3 1-3 .8-3 .6-3 .2h-1.2l-2.4-.2-2.3-.4-2.3-.5-4.4-1.4-1.4-.4-1.1-.1h-2l-1 .4-1.4.6-1.3.7-1 .7-.9.8-.8 1-.8 1.5-.4 2.4.3 2.6.7 2.9 1.1 3 1.4 2.9 1.7 2.9 2 2.8 2.3 2.5 2.6 2.2 2.9 1.9 3 1.7 3.1 1.6 3.3 1.5 3.3 1.5 6.7 2.7 10.2 4 13.6 5 6.7 2.6 7 2.4 2 .7 3.6 1 3.1.6 4 .7 7.2.8 5.6.8 5.9 1 4.3.9 4.7 1.3 4 1.3 3.8 1.4 4 1.8 4 1.9 2.1 1.1 2.1 1.2 2.3 1.3 2.2 1.5 2 1.6 1.4 1.1 1.3 1.3 2.8 3 2.5 2.7 3.4 4.1 1.2 1.6.3.8.3.8v.8l-.2.7-1.1 1-1.8.7-2.2.2-2.5-.3-2.6-.6-2.8-1-2.9-1-5.9-2.7-6.4-3-4.9-2.2-1.4-.6-2.4-.7-3-.4-2.8.2-2.8.7-2.9 1-2.9 1.4-2.7 1.6L277-95l-2.7 1.8-5 3.5-10.4 8-2.6 2-2.6 1.7-1.7 1-1.8 1-1.8.8-1.7.5-2.3.3-2-.4-2-.8-2-1-3.4-2.3-1.6-.8-.8-.4-1.6-.5-1.2-.2-2-.1-2 .1-1.3.2-2.3.7-2.4.8-2.3 1.1-2.4 1.2-2.4 1.4-2 1.3-4.3 2.9-2.8 2L193-61l-5.2 3.7-2.6 1.7-2.1 1.3-2.2 1.2-2.8 1.3-2.7.8-2 .4-3.7.4-1.7.3-7.6 1.7-2.6.4-2.6.1-2-.2-4.1-.8-2-.4-1.6-.1H144l-2.7.3-1.6.3-1.7.3-3.9 1-3.7 1.3-3 1-3.9 1.7-2.3 1-2.3 1.1-4.6 2.4-10.9 5.9-6.6 3.5-4.7 2.3-2.1 1-4.2 1.8-4.2 1.6-2.1.7-4 1.3-2.3.6-1.8.4-2.6.4h-1.4l-.2-.1-.3-1-1-1.9-.7-1.4-1-1.6-.7-1.1-1-1.1-1-1.2-1.6-1.3-2.3-1.7-3.3-2-6.9-4-2.7-1.7-1-.7-.8-.7-1-1-1-1-.7-1.3-.6-1.3-.5-1.3L39-48v-1.7l.2-1.8.3-1.2.5-1.1 2.8-6.3.6-1.5.3-1.4.1-.7v-1.4l-.2-1.8v-.7l.2-1 .5-.8.9-1.1 2.4-2.1.6-.7.5-.7.2-.7-.1-.5-.5-.8-2.1-2.8-.8-1.1-.7-1.3-.6-1.4-.5-1.4-.3-1.3-.1-1.4v-2l.2-1.7.3-1 .2-.7.2-.2h.1l-1.7-3.4-1.1-2.7-.6-1.8-3.6-10.7-.7-2.5-.8-3.4-.2-1.5-.2-1.4v-2.6l.2-1 .3-1 .3-1 .4-.7.8-1.4 1.5-2 2.6-3L45-136l2.4-2.1 1.7-1.4 1.5-1.1 1.8-1.1 2.5-1.1 2.6-.8 1.6-.3 8.3-1.2 8-1.5 6.2-1 2.4-.5 1.6-.5 1.4-.5 1.5-.7 2-1 1-.7 1.3-1 1.1-1.2 1.2-1.4.8-1.4.7-1.3 1.4-3.4 2.2-5.7 2-4.7 1.2-2.8.5-1.7.9-3.2.3-1.6.2-1.7v-2.3l-.2-2.7-.6-2.8-.6-2-.6-1.8-1-2.3-1-2.2-.5-.8-1-1.3-1-1.2-1.4-1.4-1.2-1-1.5-1.3-1.6-1.3-2.5-1.6-2.7-1.6-2.3-1-1.3-.6-2-.6-2.1-.5-8.6-1.7-1.7-.3h-3.3l-1.8.2-1.8.4-2.6.9-4.6 2-8.1 3.6-1.8.7-1.4.4-1.9.4h-1.9l-1.8-.5-1.4-.7-1.4-.9-1.3-1-1.4-1.4-1.3-1.5-1.7-2.3-1.6-2.5-1.2-2.6-.9-1.9-.6-1.6-1-3-.4-1.8-.4-2.2-.7-4.1-.7-5.6-.1-.6 3.5-1.6 4.4-2 2.5-.9 4.2-1.4 3-.8 4.8-1 2-.3h2.5l.8.2.4.2.5.3.6.4.8 1 1.4 2.3.5.6.4.4 1.3 1 1.5.6 1.7.6 1.8.4 2 .2 1.9.1 6.3-.2h1l1.2.2 1.9.5 1.1.5 1.7.9 5.3 4 1.8 1 2 .7 2.3.5 2.2.1 2.3-.1 2.3-.5 1.6-.5 1.5-.6 2-1 6.2-2.9 3.2-1.7 3.2-2 5.8-3.8.6-.4h.6l2 .4 10 3 3.8 1 4 .8 3.9.6 3.5.3h3l2-.2 2-.2 4.2-.7 13-2.4 11.5-1.8 3.4-.5 3-.6 2.7-.6 4.6-1.2 8.2-2.4 9.4-2.7 5.5-1.3 3.4-.7 2.2-.3 3-.4 4.9-.6 16.3-2.6 9.3-1.3 5.3-.6 5-.4 5.2-.3h2.8l3.2.1 2 .2 1.8.2 2.4.5 2.3.5 2.2.7 3.6 1.3 2.6 1.2 1.5 1 .9.6 1.2 1.1.6.9 1 1.6.6 1.6.5 1.6.2 1 .1 1.4v2.9l-.3.6"/></defs><g clip-path="url(#p4eacafdf54)"><use xlink:href="#m1204b076cd" y="280.5" fill="#f4f4e2" stroke="#f4f4e2"/></g></g></g></g><defs><clipPath id="p4eacafdf54"><path d="M7.2 7.2h342.4v266.1H7.2z"/></clipPath></defs></svg>