<svg xmlns="http://www.w3.org/2000/svg" xmlns:xlink="http://www.w3.org/1999/xlink" width="362.3" height="374" viewBox="0 0 271.7 280.5"><defs><style>*{stroke-linejoin:round;stroke-linecap:butt}</style></defs><g id="figure_1"><path id="patch_1" fill="none" d="M0 280.5h271.7V0H0z"/><g id="axes_1"><g id="PatchCollection_1"><defs><path id="mcde54f5724" stroke="#f4f4e2" d="m252.8-123.2-4.3.5-2.8.3-3.5.4-1 .2-.5.1-7.5 4.9-3 1.8-2.8 1.8-2.5 1.5-7.7 4.4-3.5 2-15.5 9.4-9.7 5.8-2.5 1.5-2.4 1.6-1.3.9-1.3 1-1.2 1-5 4.3-3 2.4h-.3l-.5.3-.5.3-.9.7-.5.5-.7.7-.9 1-1.1 1.5-1 1.2-2 3-1.4 1.9-1 1.1-.8 1-1 1-.8.8-.8.8-1 .6-.8.5-.6.2-.5.2-.5.2-1 .2-.6.1-1.3.2-4 .5-2.9.4h-1.7l-3.7.3h-1l-.8.2-1.6.3-1.4.3-.7.3-1.1.5-1 .5-.8.6-.8.7-.7.6-.5.5-.6.7-.7.8-.6.9-.7 1.1-1.2 2.3-.7 1-.8 1-1 1-1 .8-1 .8-1.2.8-2.5 1.5-2.4 1.3-2.4 1.3-3.4 1.9-5.8 3-2.3 1.3L98-31l-2 1.3-1 .6-1.4 1.1-1.5 1.2-1.1 1-2.4 2.3-2.2 2.2-1.9 2v-.2l-.1-.4-.6-.8-.8-1.1-3-3.8-1-1.3-1-1.3-.9-1.3-.7-1.3L76-32l-.2-.6v-.7l-.3-1.8-.2-1.3-.3-1.4-.3-1.4-.8-2.9-1.1-3.5-.6-2.2-.6-2.5-.6-2.8-.1-.6-.2-.6-.3-.5-.3-.5H70l-.6-.4h-.6l-.7.1-.7.4-1.7 1-.5.3-.6.2-.7.3h-.5l-.4.1h-1.2l-.6-.2-.6-.3-.6-.3-.5-.4-.6-.6-.6-.5-.8-.8L56-58l-.5-.6-.5-.7-.6-.8-.7-1.3-.6-1-.7-1.5-1.5-3.6-.8-1.6-.5-.8-.6-1-.6-.9-.7-.9-.7-.8-1-1.1-.8-.7-1-.9-.8-.7-1-.6-1-.6-2-1.1-.6-.4-.8-.6-.4-.4-.8-.7-.5-.7-.3-.5-.4-.8-.1-.3-.2-.5v-.8l-.1-.7v-.5l.1-.8.3-1 .9-2.3.2-.7v-1.3l-.1-.5-.2-.4-.3-.6-.4-.7-.7-.8-1-1-1.2-1.2-1-.9-1.2-1-1-.7-1-.6-1-.5-.8-.3-.9-.3-.8-.1H24l-1.3.2-.9.2-.7.2-1 .4-.4.2.6-2 .6-2.1.5-1.9.3-1.6.2-1 .3-1.7.1-1.2v-3.8l-.1-4.6-.6-8.4-.3-6-.2-2.3-.1-1-.3-1.2-1-3.5-.4-2-.2-1.1v-.8l-.1-.6v-.6l.1-.6.2-.6.1-.5.3-.6.4-.8.4-.6.4-.6.4-.6.8-.8 1.1-1.2.9-.7.6-.5 1.3-1 .8-.5.8-.4 1-.5.6-.3 1.8-.6 1.6-.4 1.2-.2 3-.5 1.8-.1h2.6l2 .4h.8l1 .1h.7l5.1-.4h.7l1-.2.7-.2.7-.2.6-.3.5-.3.3-.3.2-.2.3-.4.3-.6.2-.4.2-.5.3-1 .6-2.5.4-1.4.4-1.3.2-.5.5-1 .8-1.1.8-1 1.2-1.5L64-178l1-1.2.3-.5.4-.8.4-.6.3-1 .3-.9.1-1v-2l-.2-.9-.3-.9-.5-1-1-2.4-1.5-3.2-1-2.1-1.2-2.3-1.5-2.5-.8-1.3-1.7-2.6-1.4-2-1.8-2.5-.3-.2v-.5l-.2-1v-1.3l.2-1.4.4-4.6.1-1.4v-2.6l-.1-.8-.2-.7-.1-.5-.3-.8-.2-.4-.3-.5-.4-.7-.4-.4-.4-.5-.7-.7-.8-.5-2.5-1.8-1.1-.9-.9-.7-.5-.5-.8-.7-.5-.7-.3-.4-.1-.3-.1-.4v-1.5l.3-.7.4-.7.3-.4.4-.6.4-.4.8-.9.6-.4.6-.5 1.2-.8 1-.5.6-.3.6-.2.5-.1.4-.1h1.8l.7.2.6.2.4.2.5.3.7.4 2.5 1.8 1.1.6 1.4.8 1.1.6 1 .4.8.3 1.3.4.7.2 1.2.2 1 .2h.7l1.4.1h2.3l.2.6.2.7.3.8.3.8.5.8.4.6.3.4.4.4.7.8.8.7.9.7.4.2.6.3.7.4 1 .4 1.2.3 1.1.2 1.1.1 1.4.1h1.4l.9-.1.8-.2 1.1-.2.8-.2.8-.2.9-.4.8-.3 1.1-.5 3-1.7 1.2-.6 1.4-.6 3.4-1.5 2.1-1 1-.5 1.1-.7 1-.7.6-.5.8-.7 1-.9.7-.9.4-.6.7-1 .3-.6.5-1.3.8-2.3.4-.7.4-.8.6-1 1-1.3 1-1 1-1.2 1.5-1.6 1.2-1 1.4-1.2 4.2-3.3.8-.6.8-.5.7-.4.6-.3.9-.4.5-.2h.2v.2l-.2.3v.6l-.1 1.1v1.4l.3 1.6.5 1.6.5.8.3.5.5.6.7.8 1.1 1 .8.7 1.1.8 1.3.8.7.4 1.2.6 1 .5 1.4.5 1.5.5 1.3.3.8.1 3.1.3 4.4.5 1.3.3 1.2.3 1.1.4 1.1.6.5.3.8.5.8.6.6.5.7.7.5.7.9 1.3.3.7.5.9.4 1.2.2 1v3.1l-.1 1.5v2l.1.9v.4l.2.6.3.7.4.7.3.5.4.5.7.6.8.5 1.1.5 1.8.9.7.3.9.5.6.5.3.3.6.5.7.8.6.8.6.8 1.6 2.6.6.8.8 1 .6.5 1 .9.6.5 1 .8 1.2.8 1.6.8 2.8 1.6 1.3.7 1 .7 2.3 1.6 1.4 1 1 .9 1 1 .5.6.6.8.4.7.2.4.5 1 1 2.6.2 1 .7 2.4.3 1.3.4 1.2.5 1.1.5 1 .5.9.7.9.6.6.5.4.7.5.8.5.6.3 2.2 1 4.2 1.9 1.9.8 1.8 1 2.1 1.2 1 .6.7.5 2 1.3 1.1 1 .6.4.6.5.6.6.6.7.6.7.6.9.7 1 1 1.3 1.4 2.4 3.4 5.7 1.4 2.2 1.5 2.3 1.4 1.9 1.5 2 4.4 5.1 3.2 4 2.1 2.8 1 1.4 1 1.5 1 1.5.7 1.6.6 1.7.5 1.6.2 1.7.2 1.6v2.8"/></defs><g clip-path="url(#pc91512ab11)"><use xlink:href="#mcde54f5724" y="280.5" fill="#f4f4e2" stroke="#f4f4e2"/></g></g></g></g><defs><clipPath id="pc91512ab11"><path d="M7.2 7.2h257.3v266.1H7.2z"/></clipPath></defs></svg>