<svg xmlns="http://www.w3.org/2000/svg" xmlns:xlink="http://www.w3.org/1999/xlink" width="263.6" height="374" viewBox="0 0 197.7 280.5"><defs><style>*{stroke-linejoin:round;stroke-linecap:butt}</style></defs><g id="figure_1"><path id="patch_1" fill="none" d="M0 280.5h197.7V0H0z"/><g id="axes_1"><g id="PatchCollection_1"><defs><path id="m1c7edb0bfe" stroke="#f4f4e2" d="m98.7-242.3 1.4 3.2.4.6 1 1.4.3.8.1.4v.5l-.2 1.7v1.2l.2.4.3.4.2.4h.2v.3l-.3.3-.7.6-1.7 1-3.8 1.8-1 .6-1 .8-1 1-.3.7-.2.4-.2 1-.1.9v.8l.2.5.3.8.4.9.6.8.5.4.7.6.7.4.6.3.7.3.9.3h.6l1.2.2h4.8l3.3-.4 4-.2 2-.2 3.3-.6 1.1-.2h3.3l.9.2.8.2 1 .4.7.5 1 .6.9.7.7.6.6.8.7.8.5.8.8 1.4 4.2 9 1.4 2.6 1 1.8 1.1 1.6 1 1.4 5.4 6.6 2 2.8 1 1.3.5.9.5 1.1.3.7.7 2.2.5 2 .8 4.7.2 2.1v3.5l-.8 5.2v3.2l.2 1 .4 1.5.4 1.3.8 1.4 1 1.9 4.4 6.4 1 1.4 1.6 2 3.2 3.7 4.4 4.8 2.3 2.5 2.2 2.1 3.3 2.9 1 .9 1.3 1.2 1.2 1.3.8 1 1.1 1.7.4.7.5 1.1.4 1 .2.8.1.7.1 1v1l-.2 1.2-.5 1.6-.5 1.5-.8 1.5-2 3.4-1 2-.4.9-.3.9-.3 1.1-.1 1-.1 1v1.2l.1 2.5v2.1L176-89l-.4 1.3-.4 1.4-.9 1.8-1 1.8-1 1.7-1.2 1.6-1.3 1.9-4.6 6-1.2 1.8-1.2 1.9-1 1.9-1 2-.7 2-.7 2-.8 3.4-.3 1.7-.2 1.5v1.8l.3 1.3.4.5-.7.7-1.6 1.3-2 1.4-1.3.8-1.4.6-1.3.5-1.3.4-1.3.2-1.3.1-1.6-.1-4.5-1-.7-.1-1.3-.1h-3.7l-3.7.4-1.4.2-.6.1-1.1.4-1 .5-.8.7-.3.4-.4.7-1 2.2-.3.8-.5.8-.6.7-.7.7-.8.6-1 .4-.6.3-2 .4-.8.3-1.6.6-1.1.6-2 1-2.7 1.7-2.3 1.6-3.6 2.7-8 6-1.2.8-.2.1-.4-.2-.5-.7-1-1.4-1-1.7-.5-1.2-.6-1.2-.5-1.5-.4-1.5-.2-1.9-.2-2.4v-2.8l.2-2.2.2-1.3 1.2-6.4.3-2v-3.9l-.2-.8-.5-1.9-.8-1.9-.9-1.8-.5-1-1-1.5-1-1.5-1.2-1.3-1.2-1.2-1.3-1-1.3-1-1.4-.8-1.2-.5-1.4-.4-1.3-.2-2.7-.3-1.6-.3-.7-.2-1-.6-1.1-.7-1-.9-.8-.9-1.2-1.5-.8-1-.9-1.2-.9-1.5-1-1.6-1.7-3.2-5.3-10.4-2-3.5-3.3-6-4.7-7.9-1.8-3.2-1.2-2.6-1.2-3-2-5.7-4.1-11.5-1.1-3.3-2.7-8-1.2-3.5-1.6-4-1-2.5-.8-1.5-.7-1.4-1.4-2.2-1.4-2.2-3-4.2-1.3-2-2-3.2-.6-.7-.4-.3h-.2L18-184l1.5-4.9.9-2.4.9-2.4 1-2.4 1-2.2 1.5-2.8 1.6-2.5 1.5-2.3 1.2-1.6 3-3.8 2-2.5 1.6-1.7 1-1 1.6-1.5 3-2.4 1.4-1.4.7-.8.5-.9.6-1.3.3-.8.2-.8.3-1 .2-1.7.3-3.3.2-1.3.2-1.3.5-2.6.7-2.6.5-1.3.6-1.5.8-1.8 1.1-2 1.4-1.8 1.2-1.3 1.3-1.4 1.5-1.2 1.4-1.1 2-1.5 1.1-.7 1.7-1 1.2-.7 1.9-.9 3.5-1.4 2-.6 1-.3 1.7-.4 1-.1 1.4-.1h.8l1.7.1.8.2 1 .2 1.3.4 1.4.5 1.5.8.8.5 1.2.7 1.6 1.4 1 1 1.7 1.8 1.8 2 1 1.2 1 1.4 1 1.6 1 1.6 1.3 2.4.5.7.1.3.3.2h.2"/></defs><g clip-path="url(#pd357bde127)"><use xlink:href="#m1c7edb0bfe" y="280.5" fill="#f4f4e2" stroke="#f4f4e2"/></g></g></g></g><defs><clipPath id="pd357bde127"><path d="M7.2 7.2h183.3v266.1H7.2z"/></clipPath></defs></svg>