<svg xmlns="http://www.w3.org/2000/svg" xmlns:xlink="http://www.w3.org/1999/xlink" width="311.7" height="374" viewBox="0 0 233.8 280.5"><defs><style>*{stroke-linejoin:round;stroke-linecap:butt}</style></defs><g id="figure_1"><path id="patch_1" fill="none" d="M0 280.5h233.8V0H0z"/><g id="axes_1"><g id="PatchCollection_1"><defs><path id="m580e15a734" stroke="#f4f4e2" d="m216.6-191.2-.1.2-.5.4-.9.6-1 .6-2 1-2.7 1.2-7 2.9-2.2 1-2.8 1.4-2.8 1.6-1.6 1-2 1.5-1.4 1-1.3 1-1.5 1.4-1.4 1.4-3 3-3.2 3.6-1.3 1.7-1.6 2-1.3 1.8-.8 1.3-.8 1.6-1 2.3-.4 1.7-.2 2.1-.1 1.6v2.1l.3 2.2.3 2.2.6 3.2 1.6 8.5.5 3.3.2 2.2v5l-.3 6.3v2.8l.2 2.6.3 3.1.3 1.8.6 3.7.5 1.9.5 1.8 2.5 7.8.5 2.3v2.3l-.3.9-.5 1-.9 1.5-1.2 1.5-1.3 1.4-5.6 5.7-1.9 2.1-3.9 4.6-2.9 3.3-2 2-5.2 5.2-3.3 3.5-1.7 1.8-2.7 3.2-1.6 2-.2.3-1 .2-1.9.8-2.8 1.4-3.2 1.5-1 .5-.8.6-.9.7-.8.7-.8.8-2.7 2.8L128-34l-.7.6-1.5 1-2.3 1.4-.8.5-1 .4-1.1.3-5.4 1.3-2.2.7-2 .9-5 2.6-2 1.1-2.1.9-3.4 1.3-4.1 1.7-2-6.4-.9-2.9-.8-2-1.4-3-2.3-4-1.3-2.1-1-1.4-1.1-1.3-1-1-4.8-4-3.1-2.5-1-1-.8-.8-1-1.7-1.4-2.3-1.4-2.8-1.2-2-1.2-1.6-.7-1-.9-.9-1.3-1.1-5-3.8-1.8-1.4-2.6-2.6-1.4-1.4-1.6-1.8-3-3.4-5.2-7-1.8-2.6-1.2-2-1.2-2-1.5-3-1-2.3-3.8-9.9-.5-1.5-.5-1.9-1.5-6.2-1.2-4.5-1.4-4.7-1.7-4.8-3.4-8.8-2.8-7.5-1.2-3.3-.5-1.5-.5-2-.1-1-.1-1.6v-1.6l.4-1.2.6-1.5.9-1.6 1.4-1.6 1-.9 1-.5 1-.5 1-.3 1.5-.3 3.8-.5 1.8-.4 1.8-.5 1.6-.7 2.1-1.1 2.2-1.4 8.4-5.6 5.3-3.4 1.2-1 1.2-.8 1.3-1.2.5-.7.6-1 .4-1.3v-2.5l-.1-.6-.4-1.3-.3-.9-.4-.8-.7-1.2-.8-1-1-1.4-1.3-1.3-3.5-3.5L45-206l-1.5-1.5-2.2-2.4-1.6-2-1.3-1.8-1.2-2-.1-.3v-.3l.1-.3.5-.3.5-.2 1-.3 1-.2 1.3-.1 5.3-.3 2-.1 3.2-.5 3.2-.6 3-.7 2.7-.7 5.6-1.5 6.3-2 4.5-1.5 2.6-1 7.4-2.9 1.3-.4 4.6-1.6 1.2-.5 1.2-.5.9-.4 1.4-1 2.1-1.6 1.9-1.6 2.5-2.4 6.5-6.8 2-2.3 1-1.5 1.8-2.5 2-3.4.6-1 .8-1 1-1 .7-.6.8-.5.9-.4 1-.4 1.5-.2h1.5l.5.1 1.2.3.7.3 1.3.6 1.2.8 1.1.8 1 .9 1.1 1 1.2 1.3.8 1 .7 1.1.7 1.2.7 1.3.9 2 1.3 3.7.4 1 .4 1 .5.7.4.6.4.5.6.5.5.3.5.4.5.2 1 .3 1.2.2 3.5.4 1.7.3 2.4.6 2.9 1 2.1.8 1.7.8 2.5 1.5 2.8 1.9 2.4 1.7 2.2 1.7 2.6 2.3 2.9 2.7 2.4 2.6 2.3 2.5 5.7 6.7 1.3 1.5 1.9 2 1.6 1.3 1 .9 1.3.9 2.7 1.6 3.5 1.8 5.7 2.8 1.6.8 1.4.8 2.2 1.4 1.9 1.3 1.9 1.6.8 1 .4.7"/></defs><g clip-path="url(#pabd4d0c013)"><use xlink:href="#m580e15a734" y="280.5" fill="#f4f4e2" stroke="#f4f4e2"/></g></g></g></g><defs><clipPath id="pabd4d0c013"><path d="M7.2 7.2h219.4v266.1H7.2z"/></clipPath></defs></svg>