<svg xmlns="http://www.w3.org/2000/svg" xmlns:xlink="http://www.w3.org/1999/xlink" width="332.5" height="374" viewBox="0 0 249.4 280.5"><defs><style>*{stroke-linejoin:round;stroke-linecap:butt}</style></defs><g id="figure_1"><path id="patch_1" fill="none" d="M0 280.5h249.4V0H0z"/><g id="axes_1"><g id="PatchCollection_1"><defs><path id="m64f6cac23f" stroke="#f4f4e2" d="M101.2-225.8h.7l1.5-.1 1.1-.2h1.5l.6.1 2 .5.9.1h1.5l2.4-.3h3.1l1 .2 1.7.2 1.7.4 4.3 1 1.6.4 1.2.1 2.7.3 3 .1h1l1.3.2 3.5.5 1.3.1h1.3l.8-.2 3-.6.7-.1 1.1-.1h3.4l.6.2.8.2.5.2.5.2 1.4.8 1.6.9.7.4.6.5.8.6.3.3.3.4.2.4.4.6.3.6.4 1 .6 2.4.4 1.1.5 1.6.5 1 .4.9.4.6.5.8.6.7.4.5.4.4.7.4.4.3.6.2.7.3.8.2.8.2 1 .2h2.2l.4-.2.7-.1.8-.3.7-.4.4-.3.5-.3.5-.4.3-.4.4-.6.3-.5.2-.5.3-.7.1-.6.4-1.7.1-.3.3-.4.2-.2.4-.4.5-.1.6-.2h2.3l.7.3.6.2 1.4.5 2.2.9 3 1 3.3 1.4 1.6.5 2.8.7 1.3.5 1.3.4 2.2 1 1 .3.4.1.5.1h1.4l.6-.1 1.7-.4.6-.1h.7l.4.1.2.2.3.3.3.6.4.7.3.6.3.7.2.8v2.4l-.2.7-.4 1-.4.6-.3.5-.9.8-.6.5-.7.5-2.6 1.5-.7.5-.6.5-.6.5-.6.8-.6 1-.2.5-.1.6-.1.7v.9l.2.8.2.5.2.5.4.5.2.1.5.5.3.2.7.4 3 1.6 1.1.7 1 .7 1.2.8 1.5 1.2 1 .9 1 1 .7 1 1.2 1.7 1 1.4.6 1 .5.9.8 1.6 1.2 2.6.7 1.4.4.9.6 1 .4.6.6.8.4.6 1.4 1.7.3.5.3.4.2.4.1.5v.8l-.1.9-.5 1.7-.2 1v1.2l-.2 2-.3 3v7.2l-.3 2.7v1.7l.2 1.1v.5l.2.4.4 1 .3.7.8 1.4 1.4 2.6.4.7.2.5.2.6.2.4v.5l.2.6v1.3l-.1.8-.3 1.6-.1.5v1.3l.1.3.2.5.3.5.3.6.8 1.1.3.6.2.5.1.4v.4l-.1.4-.1.2-.2.3-.2.1-.2.1-.1.2-.3.3-.4.3-.9.5-.7.3-.7.3-.7.2-1 .3-1.3.2-1.4.1H221l-2.2-.4-.8-.1h-1l-3.5.2-4.3.4-2.6.2-1.1.1-1.1.3-1 .3-.6.3-.4.2-.8.5-.3.3-.5.4-.3.3-.5.6-.4.4-.2.4-.5 1-1.5 3.6-.4 1-.5.7-.4.6-.2.3-.5.4-.6.3-.5.2h-1.2l-.4-.1-.4-.1-.3-.2-.8-.5-.8-.7-1-1-1.7-1.8-.6-.6-.4-.3-.6-.4-.6-.4-.7-.4-.8-.3-.5-.1h-1.7l-.5.3-.2.2-.3.2-.3.4-.3.5-.3.6-.2.6-.2.7-.2.5v2l.3 2.6v.8l-.2.6-.1.3-.3.4-.5.6-.7.6-1.5 1.1-.5.4-.5.6-.2.3-.2.4-.2.8v.9l.1.9.3.8.3.8.4.7.3.7.7 1 1.8 2.5.6.9.4.7.5 1.1.2.6.2 1 .1.5v2.2l-.3.7-.2.7-.3.7-.5.8-.3.5-.5.6-.7.9-.6.5-.6.4-.9.6-1.1.5-.8.3-.7.3-.8.2-2.7.9-.7.5-.3.8v.9l.4 1.1.6 1.4 1 1.2 1.3 1.5.8 1 .7.7.6.5.6.3.9.3h1l.7-.1.6-.2 1-.4 2.1-1 .8-.3 1.1-.4 1.2-.2h.7l.7.2.4.2.5.2.4.3.4.2.3.3.4.5.4.6.3.6.3.8.4 1.7.4 1.6.3 1.4.3 2 .2 1.8v2l-.2 1-.2.7-.3.9-.3.8-1 1.8-1 2-.6 1-.6.8-.6.7-1 1-.8.7-1 .8-.8.5-.7.4-2.9 1.5-1.5.8-.7.4-.7.4-.8.7-.4.4-.4.6-.6.8-.5 1.2-1.1 3-.3.5v.2l-.2.1h-.2l-.5.1h-.5l-.8-.1-.6-.1-.7-.2-.6-.2-.6-.3-.8-.3-1-.7-1-.6-.7-.5-2.7-2.1-1.3-1-1.5-1-1-.6-1-.5-1.4-.7-1-.5-.8-.3-.7-.3-1.4-.3-3.3-.8-1.3-.3-.7-.3-.7-.3-.3-.3-.3-.3-.4-.6-.2-.7v-.3l-.1-.7v-1.5l.3-1.5.1-.9.3-1.2.5-1.6.3-1 .4-.9.4-1 .5-.9 1.6-2.8.7-1.2.4-.7.4-.5.7-.8.7-.7 2.3-2.4.8-.9.3-.4.2-.4v-1.3l-.2-.3-.2-.4-.5-.5-.4-.4-1.4-1.4-.8-.8-.7-.8-.5-.6-1-1.2-.6-.9-.5-.7-.2-.5-.2-.3v-.5l-.2-.4v-1.4l.1-.7.3-1.4.9-3 .4-1.7.1-1 .1-.7v-.7l-.2-1-.3-1-.4-.6-.4-.5-.5-.6-1-.8-1-.8-1-.7-2.8-2-1.8-1-2.4-1.6-2-1.1-1.2-.7-1.5-.8-1-.4-1-.4-1-.3h-.4l-.8-.2h-2.4l-2.7.2h-3.3l-1.6-.2-1.3-.3L112-93l-.6-.2-1-.2h-3.1l-.8.3-.6.3-.6.3-.5.3-.4.4-.5.6-.3.5-.2.4-.3 1v.6l-.2 1.1-.1 1.4v1.8l.4 3.6.2 2v2.7l-.2.7-.2 1.3-.2 1-.4 1.4-.2.9-.3.7-.3.7-.2.4-.3.4-.2.2-.2.2-.4.3-.4.2-.5.3-.8.3-2.7.7-1.2.4-.5.2-1.3.6-3.3 2-.8.4-1 .5-.6.3-1.3.4-1 .3h-.5l-1.2.1H81l-.7-.2-.9-.1-1-.2-.7-.2-1.5-.5-1.2-.4-2.8-1.2-4-1.7-4.8-2-2-.8-1-.5-2.4-1.2-2-1-1.6-1-1.4-.9-1.2-.8-1.4-1.1-1.2-1-.7-.6-.7-.7-.7-.8-.6-.8-.3-.5-.3-.5-.5-.9-.3-.8-.2-.6-.2-.9-.3-1.4-.3-1.5-.2-1.6-.3-3-.2-1.7-.4-2.3-.3-1.5-.4-1.8-.7-2.4-1.5-4.7-1-3.4-.7-2.6-.4-1.7h.2l.1-.2v-.5l-.1-.7-.2-.8-.8-2.1-1.9-5-.4-1.2-.3-1.1-.4-1.3-.2-1.2-.1-.8v-1.3l.1-1.2.4-1.1.6-1 .7-1 1-1.4 3.6-3.9 1-1.3.6-.7.6-.8.8-1.3 1-1.5.7-1.5.5-1 .2-.5.4-1.1.1-.9.3-1.4.1-1.5v-2.1l-.2-.5-.2-.6-.4-.7-.4-.5-.4-.5-.6-.5-.5-.3-.8-.5-2-1-1-.5-.3-.2h-.4l-.5-.1H38l-.5.2-.7.2-.8.4-.9.4-.8.5-1.2.8-1.5 1-.9.6-.6.3-.7.3-1.1.4-1.2.3-.7.2-.7.1h-.6l-.5-.1-.5-.2-.3-.2-.4-.2-.2-.3-.2-.2-.2-.4v-.3l-.2-.4v-2.5l.2-1.3.9-4.6.3-1.9v-.8l.1-1v-1.5l-.1-.8-.2-1.2-.4-1.2-.8-3-.2-1-.3-1.5-.2-1-.1-1-.2-2.3-.2-5.1v-1l-.3-1.7-.2-1-.4-1-1-3.2-.3-1-.3-1.2-.2-1.2-.2-1-.2-2-.1-3.4-.4-4.4v-3.6l.3-1.9.2-.7.1-.8.3-1 .4-1.1.7-1.8 1.2-3.2.4-.8.5-1.4 1.5-4.6.2-1 .1-1.3.2-1 .2-1.2.8-2.9v-.4l.1-.7-.1-1.6v-.7l-.3-1.4-.4-1.4-1.5-4.7-.6-2.5-.4-1.7-1.5-7.4 7 .1 6.9.3 3.7.2 2.8.2 2.2.3 3.2.4 13.1 2 6.3.7.8.2.8.2.7.3.9.3.7.4.9.5 1 .6.7.6.7.6 1 1 2.6 2.5 1 .8 1 1 2.6 2 1.3 1 .9 1 1.2 1.2.6.7 1 1.4.7.7.7.8.8.7 1 .7 1.1.8 1.2.7 1.7 1 .8.5.8.5.6.5.4.5.4.5.5.5.3.6.3.6.7 1.4 1 2.4.3.4.1.3.3.3.2.2.3.2.2.1.3.1h.4l.2-.1"/></defs><g clip-path="url(#pcb49c55d4c)"><use xlink:href="#m64f6cac23f" y="280.5" fill="#f4f4e2" stroke="#f4f4e2"/></g></g></g></g><defs><clipPath id="pcb49c55d4c"><path d="M7.2 7.2h235v266.1H7.2z"/></clipPath></defs></svg>