<svg xmlns="http://www.w3.org/2000/svg" xmlns:xlink="http://www.w3.org/1999/xlink" width="291" height="374" viewBox="0 0 218.2 280.5"><defs><style>*{stroke-linejoin:round;stroke-linecap:butt}</style></defs><g id="figure_1"><path id="patch_1" fill="none" d="M0 280.5h218.2V0H0z"/><g id="axes_1"><g id="PatchCollection_1"><defs><path id="m3b7d65ef0c" stroke="#f4f4e2" d="m115.3-252 .1.1h.2l1-.1 3.9-.6 1.7-.2 3-.2h5.7l4.5.2 4 .4 1.4.2 1.7.4 1.4.6.7.3.5.4 1.4 1 .8.8.5.6 1.2 1.9 1 2 2 4 4.2 8 3 6.1 1.3 2.4 1.8 3.2 5 8.2 3.6 6.3.8 1.5.9 1.3 1 1.4 1.2 1.5 2 2 3 2.5 5.1 4 2 1.8 1.1 1 1.8 2 1 1.3.8 1.5.6 1.3.5 1.5.3 1.5v3l-.2 1.5-.4 1.6-2 7.6-.4 2-.4 2.1-.2 2.3-.1 2.2v3.3l.2 5.2v2l-.1 2-.3 2-.5 1.8-.5 1.8-2.7 7-1.1 3-1 3.2-1.8 6.5-.8 3.3-.4 2.4-.3 2.3v2.3l.3 2.3.3 1.4.7 1.8.8 1.6 1.8 2.9 1.2 1.9 4.3 6.3 1.2 1.9 2.5 4.1 1.3 2.3 3.3 6.2.7 1.5 1 2.2.8 1.8.6 1.9.4 1.4.4 1.7.2 1.7v2.2l-.4 1.4-1 2-1.3 1.5-1.8 1.4-4 2.8-2 1.5-1.5 1.7-1.3 1.9-.7 1.9-.2 1.2v1.3l.2 1.4.6 2.4 1 2.7.7 1.9 1.7 4 1.4 2.7-.7.2-7 2.3-8.9 2.7-6 1.9-2 .5-2.2.6-2.2.4-2.3.4-2.3.2-3.2.2-3.2-.1-2.1-.3-1.2-.3-2.6-.7-2.5-.9-1.7-.7-6.5-2.8-2.5-1-2-.8-2.2-.7-2.9-.7-3.3-.6-2.7-.4-10.3-1-2-.2-2.1-.3-2.8-.8-2.1-.7L98-34l-4.3-2-3.7-2-3-2-2.1-1.3-2.2-1.6-8-6.1-2-1.3-1.6-1.2-1.7-1-1.8-.8L66-54l-1.7-.3h-3.5l-2.4.4-2.5.9-2.3 1.3-1.8 1.5-1.8 1.8-1.6 2-1.6 2.2-1.6 2.3-2.3 3.5-1.8 3.1-1.8 3.4-1.3 2.5-1.1 2.6-2 4.9-.4 1-.3.5-.3.3h-.2v-.4l-2-3-1-1.8-.7-1.2-.9-2-1-3-.4-1.6-.4-2-.2-1.7-.1-2.5.1-2 .3-2 .7-2.9.6-1.6.6-1.5.6-1.1 1.3-2.3 2-3 2.1-3 1.2-1.5 1.3-1.3 1.4-1.1 1.4-.9 1.3-.6 1-.3 2.2-.3 1-.3 1.2-.8.6-.6.5-.7.5-1 .8-2.3.6-1.2.8-1.3 1.1-1.2 1.4-1.2L55-76l1.7-.8 4.3-1.9 6.9-2.7 2.6-1.1 1.1-.7 1.2-.7.5-.6.3-.6.1-.5-.3-1.2-2-3.7-1-1.8-.8-2.1-.7-2.2-.6-2.4-.3-2-.2-2v-3.6l.4-3 .5-3.1 1.5-8 .4-2.5.2-2v-4.4l-.5-2.2-.9-2.3-1-2-1.5-2.4-1.7-2.4-1.8-2.1-1.8-2.2-2-2.1-2.2-2.4-4.6-4.7-6-6-6-5.8-1.9-1.9-3.8-4.2-5.7-6.5-1.7-1.7-1.5-1.5-1.4-1.1-1.1-.9-.6-.3h-.3l-.7-.3-.5-1-.2-.5-.2-1.5v-2.4l.1-5.6v-3l-.2-3.5-.3-3.8-.5-3.9-.6-3.3-.7-2.9-1-4.3-.6-2.5-.6-3-.2-2.2-.1-1.7v-3.5l.2-1.2.1-1 .2-.6.6-1 1-1.1 1.5-.7 1.7-.4h1.7l1.7.4 1.8.7 1.7 1 2 1.4 5 4.6 1.8 1.3 1.1.7 2.2 1 2 .6 1.6.1 1.5-.4 1.3-.8 1-1 .7-1 .7-1.5 1.2-2.9.7-1.2.4-.5.9-.7 3.3-1.8.9-.6.7-.7 1-1.3.5-.7.4-.8.4-1.1 1.2-3.6.6-1.5.5-1.4.7-1.7 1.2-2.2 1-1.5.8-1 1.5-1.6 1.6-1.2.6-.4 1.5-.5h.4l1.1-.1h.8l1.7.3 1.6.5 4.1 1.4 6.4 2.2 2.7.9 4 1.1 3.6 1 5.3 1 5.1.7 2.2.2 2.5.1h2.4l.2-.1"/></defs><g clip-path="url(#p6832d1c37f)"><use xlink:href="#m3b7d65ef0c" y="280.5" fill="#f4f4e2" stroke="#f4f4e2"/></g></g></g></g><defs><clipPath id="p6832d1c37f"><path d="M7.2 7.2H211v266.1H7.2z"/></clipPath></defs></svg>