<svg xmlns="http://www.w3.org/2000/svg" xmlns:xlink="http://www.w3.org/1999/xlink" width="396.6" height="374" viewBox="0 0 297.5 280.5"><defs><style>*{stroke-linejoin:round;stroke-linecap:butt}</style></defs><g id="figure_1"><path id="patch_1" fill="none" d="M0 280.5h297.5V0H0z"/><g id="axes_1"><g id="PatchCollection_1"><defs><path id="m8a6c1e8357" stroke="#f4f4e2" d="m249-246.2-.2.2-.3.5-.3.7-.2.9-.1 1-.2 2-.2 1-.2 1-.4.8-1 2.3-.4 1-.2 1.2v.6l.2.9.2.6 1.2 3.3 1.5 3 .5 1 .3 1 .2 1.1v1l-.3 1.1-1.2 3-.3 1v1.9l.3.8.6 1.7.2.8v1.9l-.3 1.8-.4 4.5v2l.2 1 .3 1 .5 1 1 1.9.9 1.3.5.5.3.2-.3.4-3.6 4.5-1.2 1.6-1.1 1.7-1.3 2-.7 1.4-.7 1.7-.7 2-.4 1.3-.3 1.4v2.8l.2 1.2.5 1.8.6 1.9.8 1.8.9 1.9 1.8 3.2 2 3.3 5 8 .8 1.4 1 2 1 2.3.5 1.4.4 1.9.2 1.9-.1 1-.3 1.1-.4 1.4-.6 1.5-1.3 2.6-2 3.5-1.4 2.2-1.5 1.9-1.6 1.7-2.2 2-.8.8-.6.8-.5.6-.2.4-.2.7-.1.7v1.2l.4 1 1.8 4.8.3 1.2.1 1.6v1.2l-.2 1-1.3 4.7-.2 1v2l.2 2.8v1.5l.2 4.7v1.3l.2 1 .4 2.3.2.6.3.5.4.6.4.5.5.4.6.3.7.3.8.2 1.3.1 4 .3 2.2.4 6.3 1.5 1.6.4 1.7.5 3 1.2 1.2.6 1.2.7 1.1 1.1 1 1.4.6 1.3.6 1.4 1 2.7.8 3 .5 2.2.2 1.2v2.9l-.2 1.2-.2 1-.4 1.7-.5 1.5-.5 1.3-.8 1.8-1.5 3.4-.6 1.6-.2.8-.2.9v1.4l.3 1.4.5 1.6.7 1.3 1.6 3 .6 1.5.1.4v.2l-4 2.5L267-25l-3.8 2-3.3 1.6-1.5.6-1.6.6-1.5.5-1.9.3-1.8.1-1.6-.3-1.5-.5-3-1.3-2.8-1.2-1.4-.5-2.5-.7-1.2-.4-1.2-.6-1.2-.7-3.7-2.4-3-1.7-1.4-.8-1.4-.5-2-.6-5.3-1-1.3-.4-1.1-.5-2.3-1-1.5-.7-4.2-1.6-1.4-.7-2.3-1-3.4-2-1.2-.7-1-.4-1.2-.3-1-.1h-1l-2 .2-.3-.1-.4-1-1.4-3.4-.6-1.5-.6-2-.3-1.9-.2-1.2v-12l-.1-2.4-.5-4.7-.3-2.5-.7-4.5-.6-3.4-.7-3.4-.6-1.8-.6-1.6-.5-1-.6-1.2-.8-1.3-1-1.3-1.3-1.7-1.2-1.3-1.1-1-1.2-1-2.8-2.2-5.3-3.7-1.3-1-2.4-1.8-6.5-5.3-3.6-2.8-7.3-5.3-3-2-3-2.2-2.3-1.3-.9-.6-1.7-.8-1.8-.7-1.1-.4-1.2-.3-1-.1H131l-1 .2-1.4.4-1.3.8-1 .6-1.2 1-4.5 3.7-2.6 2-4.3 3.2-6.3 4.6-3.2 2.4-5.6 4.5-2.8 2.1-2.5 2-4.7 3.1-2.3 1.7-1.3 1-5.4 4.7-1.8 1.3-1.8.9-1.3.4-1.1.1-2 .1H70l-1.5-.1-1.6-.4-1.7-.8-1.6-1L62-92l-5.3-4.4-2.1-1.6-2.2-1.4-1.4-.7-1-.4-1.3-.5-1.2-.4-1.5-.3-2.2-.4-2.9-.3-4.2-.2-5.5-.2h-1.7l-2-.3-1.6-.3-1.1-.5-.4-.5.1-.6.2-2v-3.4l-.2-13 .1-5 .3-5.7v-4.3l-.2-2.7-.3-3-.8-5.4-1-5.8-1.7-8.9-.6-3.2-.1-1.5-.1-1.8v-1.7l.1-1.3.3-1.7.2-1 .5-1.7 1.2-3.7.6-1.8.7-1.8.7-1.5 1.2-2.3.5-1 .5-.7.4-.3.4-.5 1.1-.7 1.1-.5 3-1 1.6-.5 1.6-.7 1-.7 1-.6.8-.8.7-.8 1.6-2 .8-.9.5-.4 1.1-.8 1.8-1 1.2-.6 1.2-.4.9-.3 1-.6.8-.5.6-.5.8-.7.5-.8.3-.6.5-1.7.3-1.9v-2L53-216l-.3-2.2-.6-3-.3-2v-3.5l.3-1.8.7-1.6 1.2-1.3 1.6-1.1 2-.8 1.3-.4 1.1-.2 1.2-.2h5.3l2 .2 1.5.3 2 .3 1.6.4 3.5 1 8.5 2.6 3.2 1 2.9.7 2 .4 2 .3 3.4.4 2.2.1h4.2l1.4-.3 1.5-.3 1.4-.5 1-.6.7-.4 1-.7 4.4-3.4 1.6-1 1.3-.6.7-.3 1.7-.4 2.2-.5 1.6-.5 1.1-.5 1.2-.6 1.9-1.2 2-1.6 1.8-1.5 5.8-5.2 2.2-1.8 2.2-1.7 2.4-1.7 4.7-3.4 4.6-3 3.1-1.9 1.3-.7.6-.2h.2l1.2.3 8.2 3.4 3.3 1.3 1.4.6 1.7.5 2.2.5 2 .2 4 .3 2 .3 1 .2 3.5 1 2 .6 1.2.2 1.9.2h5.1l3.4-.6 3.4-.6 1.5-.3 1.9-.5 2-.6 1.5-.6 7.3-3 3.9-1.5 2.8-1 1.4-.4 1.7-.5 1.2-.2h1.2l1.3-.1h1.3l1.3.2 1.1.5 1.2.7.7.6.8.7 1.2 1.2.7.8 1 1.1 1.3 2 .5.8.5 1 .2.6.3 1.3.2 2.6.2.7.2.2"/></defs><g clip-path="url(#pd48652ab60)"><use xlink:href="#m8a6c1e8357" y="280.5" fill="#f4f4e2" stroke="#f4f4e2"/></g></g></g></g><defs><clipPath id="pd48652ab60"><path d="M7.2 7.2h283.1v266.1H7.2z"/></clipPath></defs></svg>