<svg xmlns="http://www.w3.org/2000/svg" xmlns:xlink="http://www.w3.org/1999/xlink" width="495.4" height="347.3" viewBox="0 0 371.5 260.5"><defs><style>*{stroke-linejoin:round;stroke-linecap:butt}</style></defs><g id="figure_1"><path id="patch_1" fill="none" d="M0 260.5h371.5V0H0z"/><g id="axes_1"><g id="PatchCollection_1"><defs><path id="m34d72cea44" stroke="#f4f4e2" d="m332.5-221-.1 1.6-.2 1.2-.3 1-.9 3-.3 1.3-.6 2.8-.7 2.5-.7 1.8-.5 1-.4.6-.8.7-.3.3-.1.3v.2l-.1.6.2.8.3 1 .8 1.9 7.4 18.7 5.9 13.6 7 17.2-7.7 3.5-2.2 1-2.7 1-3.6 1.3-6.7 2.2-2 .7-7 2.6-3.1 1.1-3 1-1 .3-2 .4-1.4.2h-1.3l-1.4-.1-1-.2-1-.3-.8-.3-2.2-1-6-2.4-1.4-.4-1.2-.3h-1.5l-.8.2-1.2.3-1 .4-.8.5-.8.5-.6.4-.6.5-.9.8-.9 1-1.1 1.3-.5.8-.9 1.5-1.1 2.3-1 2.4-1.5 3.6-1.3 3.5-1.3 3.8-1.3 3.7-1.8 6.3-1.2 3.8-.9 2.7-.6 1.6-.5 1.1-.8 1.7-1.1 2.2-1 1.6-1 1.8-.8 1-.6.8-1 1.3-1.3 1.1-1 1-3.4 2.3-2.7 2.3-3.4 2.5-2.4 2.1-3 2.3-.9.7-.8.7-1 1-1.4 1.5-3 3.4-4.8 5.5-4.8 6-1.3 1.4-1.7 1.8-1 .9-1.4 1-.8.5-1.6.8-1.2.4-1.2.4-1.6.4-4.3.8-1.5.3-1.3.4-1.2.5-1 .4-1 .7-1.7 1.1-1.5 1.3-7 6.6-1.6 1.5-.9.6-1.4 1-1.6.8L185-28l-1 .8-.8.8-.7.8-.6 1-1.2 2-.9 1.2-.5.7-.5.6-.5.3-1 .5-1.1.4-1.1.2h-2L172-19l-1.2-.3-1.2-.3-1-.3-1.1-.4-1.1-.6-4.7-2.6-2-1-2.3-.9-6.5-2.3-1.5-.7-.8-.4-.7-.5-.7-.6-.5-.6-.6-1.2-.2-.7v-.6l-.3-2.8-.1-.7-.4-.6-.3-.2-.3-.1h-1.1l-1 .2-1 .3-2 .6-1 .4-3.6 1.4-1.2.5-.7.2-1.7.4h-.6l-1.2.2-1.2.1H126l-1-.2-1.2-.1-1.4-.4-.8-.3-1.2-.5-.9-.4-.9-.5-1.5-1.3-1.5-1.6-1.4-1.8-3-4.3-1-1.4-.7-.6-.2.1v-.3l-.5-.4-.7-.4-1-.3-1.1-.3-1.3-.2-2.2.2-1.3.3-1.3.4-1.6.9-1.4 1.1-1.5 1.5-1.4 2-.7 1.3-.7 1.3-.7 1.7-.7 2.2-.8 2.3-1.2 4.6-.6 1.8-.9 2.1-.7 1.5-.8 1.2-.9 1.1-.9.9-1 .6-1.1.5-1 .2-1 .1H79l-1.2-.3-1.4-.5-1.7-.9-1-.7-1-.7-1-.9-3.5-3.2-1-.8-1-.8-1-.7-1.1-.6-1.5-.7-2-.6-1.5-.3h-3.6l-2 .1-4.2.5-2.6.2H43l-2.5-.3-2.3-.3-2.3-.5-2.2-.6-2.2-.9-1.7-1-1.6-1-1-.8-.7-.9-1-1.1-.4-.8-.7-1.2-.4-1.4-.3-1.3-.2-1.4v-3.4l.4-2.1.5-2.1.7-2 .7-1.8.9-2 1-2 1-2 1-1.7 1.2-2 .9-1.3 4.7-6.4 1-1.5 1-1.6 1-1.6 1-1.6.6-1.4.6-1.3.6-1.4.4-1.4.4-1.3.2-1.4.3-1.5v-1.6l.1-1.5v-1.5l-.1-1.6-.3-1.5-.3-1.9-.5-1.8-.7-2-.7-1.9-1.2-2.9-1.1-2.3-1.8-3.3-.9-1.4-.4-.6-.2-.2v-.2l.2-.3.2-.6.8-3 .2-1 .5-1 .5-1 .7-1 .7-.7.8-1 2.4-2.4 3.8-3.4 3-2.7 2-1.8 1.6-1.2 2.2-1.5 2-1.4 1.8-1 4.7-2.8 3.9-2.5.9-.7.4-.4.3-.4.3-.4.2-.8v-.5l-.3-.4-.1-.2-.5-.4-1.3-.8-1.2-.8-1.2-1-4.5-4.1-3-2.5-1.4-1.3-1-1L54-161l-1.4-1.8-.9-1.3-1-1.9-.7-1.2-.6-1.2-.7-1.7-.6-1.7-.5-1.5-.5-2.1-.2-1.2-.2-1.3v-4.6l.3-4 .4-3.7.6-4.8.6-4 .4-1.5.5-1.6 3.4-8.5 1-2 .7-1.2.5-.6.6-.7 1.3-1.2 1.2-1 1.4-1.1 1.1-.7 2-1.2 5.6-2.8 4.4-2.4 2-1.1 1.5-1 .9-.7.1-.2.3-.3.7-.3.6-.3 1.4-.5 1.3-.3 1.1-.3 2-.2 1.3-.1h3.9l6.3.4 3.8.2h4.3l4.8-.1 9.3-.6 5.6-.1 3.7-.2 5-.2 6.7-.5 3-.1h3.3l1.3.2 1.7.3 1.4.4 1.5.5 4.1 1.3 1.4.4.9.2h.6l1.4.1h1.4l6-.3 9.7-.2 8.7-.2.6-.1h1.7l10.6.2h2.9l1.8-.1 2.6-.3 1.7-.2 2.7-.5 2.1-.6 2.1-.7 2-.8 1.8-.8 3.7-1.8 7-3.7 2.1-1 2.2-1 2-.7 2.1-.5 2-.2 2 .2 1 .4 1.7.7 1.7.8 1.7.8 1.7.6 1.8.3 1.8.2 1.8-.1 1.7-.4 4.7-1.3 1.4-.4 1.4-.2h1.5l1.6.2 1.5.3 1.5.4 2.8 1 3.2 1.2 2.4.9 1.2.3 2 .5 2.5.5 7.2 1.3 1.4.2 3 .3 1.8.3 1.7.3 1.6.4 1.7.5 8.6 2.8 4.2 1.4 2.4.9 2.4 1 6.6 2.8 2 .8 1.5.6 1.3.4.8.2h.3"/></defs><g clip-path="url(#pe38a6ce06e)"><use xlink:href="#m34d72cea44" y="260.5" fill="#f4f4e2" stroke="#f4f4e2"/></g></g></g></g><defs><clipPath id="pe38a6ce06e"><path d="M7.2 7.2h357.1v246.1H7.2z"/></clipPath></defs></svg>