<svg xmlns="http://www.w3.org/2000/svg" xmlns:xlink="http://www.w3.org/1999/xlink" width="495.4" height="364.4" viewBox="0 0 371.5 273.3"><defs><style>*{stroke-linejoin:round;stroke-linecap:butt}</style></defs><g id="figure_1"><path id="patch_1" fill="none" d="M0 273.3h371.5V0H0z"/><g id="axes_1"><g id="PatchCollection_1"><defs><path id="mf16b7e920a" stroke="#f4f4e2" d="m348-247-.1.6-.9 3-1.2 4.7-.7 3.6-1.8 9.4-.9 4.3-.6 2.6-.4 1.5-.5 1.9-1 2.8-1.5 3.7-1 3-.7 1.8-.5 1.3-.7 1.3-2.2 4.3-.5 1-.8 2.2-.6 1.2-1.2 2.9-.3 1-.7 3.8-.5 1.7-.4 1.7-1.4 4-3.6 10.5-1.3 3.5-1 2.5-1.2 2.5-1.3 2.4-1.3 2.3-.9 1.5-1 1.4-1.4 1.9-1 1.1-1 1-1.2.8-1 .4-1.2.2-1.2-.1-1.2-.3-.7-.3-1.3-.7-1.5-1-1-.8-3.2-2.6-.5-.3-.6-.3-.2-.1h-.6l-.5.3-.3.3-.4.7-.4.7-1.4 3.7-.3 1.2-.3 1.1-.2.8-.1 1.8v9.3l-.3 1.6-.4 2-.5 1.8-.5 1.3-.6 1.6-.8 1.6-1.6 2.8-1.2 2.3-.7 1.5-.5 1.2-.4 1.9-.3 1.8-.3 2.3-.3 2-.5 2.1-.7 2.2-.9 2.2-3 6-.7 1.5-.6 1.6-.6 1.7-.2 1.6v1l.1.8.3.5.3.1-.2.2-.3.4-1.4 1.6-1.3 1.6-2.3 3.1-1 1.1-1.6 1.4-2 1.4-1.7 1.1-1.8 1.1-2 1-3.9 2-2.3 1.4-6.5 4-1.8 1.1-2.2 1.2-2.1 1-1.9.8-1.8.4h-2.4L236-60l-1.5-1-1.7-1.2-1.9-1.4-5.8-4.8-4-3.1-2-1.6-1.5-.9-1.6-.8-1.5-.6-8.5-2.8-1-.4-1-.2-1.6-.2-1.5.2-.7.2-.6.3-.7.5-.9.8-.8.9-3.2 3.6-1 1-1.4 1.3-1.2 1-1 .6-1.3.3h-.8l-.7-.3-1.3-.6-1.2-1-3.2-2.6-.8-.5-.6-.4-.7-.4h-1l-.5.2-.5.5-.4.8-.5 1.3-.5 1.8-1 3.9-.4 1.6-.8 2.5-1.8 5.3-.7 2-.5 2-.6 2.7-.3 2-.2 3-.2 2.8v3.1l.1 3.2.2 3 .3 2.8.3 1.5.2 1.1-.6.4-1.7.6-2.3.6-2.7.3h-3l-2.3-.1-1.4-.2-2.3-.4-1.9-.5-1.6-.5-1.7-.7-1.9-1-1.8-1-1.6-1.1-1-.9-1.5-1.4-1.8-1.9-.7-.9-1.5-2.2-1.1-2-3.4-6.6L130-51l-1.1-2.2-.7-1.7-.6-1.7-.8-2.3-2.2-7.5-.8-2-.6-1.1-.4-.7-.5-.4-.7-.5-.9-.4-1-.2h-1.9l-1.8.2-1.5.3-1.6.4-1.5.5-1.6.6-1.5.7-2.3 1-2.2 1.1-1.4.8-3.2 2-1.6 1-6 4.3-1.3 1-.8.6-1 1-1.3 1.5-.9 1.4-.8 1.5-.8 1.8-.7 2-1 3-1.6 6-.5 1.3-.8 2.4-.6 1.2-.6 1.1-.7 1.4-.8 1.2-1.2 1.5-1.1 1.4-1.4 1.2-1 .7-1 .6-1 .6-.6.2-.7.3-2.6.7-1.3.5-.6.2-1.1.6-2.8 1.8-.8.5-1.2.4-.9.1-1.2-.2-.8-.4-.6-.4-.7-.6-.7-.8-1-1.2-.8-1.3-.9-1.3-2.6-4.6-1.2-1.8-2-3-1.1-1.4-1.4-1.8-1-1-6.1-6.6-1.1-1.2-1.4-1.6-.6-1-.7-1.2-.3-.7v-.7l-.4-.8-.8-1.5-2.5-4-1.3-2.1-1.3-2.6-.7-1.8-.5-1.8-.2-1L24-69l-.2-2.5-.1-4.1-.2-4.2v-.9l.2-1.6.3-1.7.4-1.9 1.5-5.2 1-3.4.3-1.2.7-1.5 1-1.2.4-.5 1-.7 1-.6 1.3-.4 1.3-.1h.9l1.2.1 2.8.7 3.6.7H45l.8-.2 3.2-1 1.2-.3 1.2-.2 2-.2 1.8-.1 8.7-.3 2.3-.2 2.3-.3 2.3-.5 2.3-.6 2.1-.9 1.5-.8 1.4-1 1.4-1 .9-.8 1.4-1.4 1-1.2 1-1.2.8-1.2.7-1 .5-1.1.7-1.7.4-1.4v-.6h2.5l3-.3 2.3-.1h7.3l5.2-.2 1.7-.2 2.7-.3 1.6-.3 1.5-.5 1.6-.7 1.4-1 1-1 .9-1 1.2-2 1.9-3 1.1-2.2 2-4.6.7-1.4 1-1.4 1-1.3.3-.4 1.6-1.4 1.7-1 1.9-1 2-.7 1.9-.5 1.9-.4h1.7l1.7.2 1 .2 1.3.3 2.7.6 1.3.3 1.8.1h2.8l1.2.2 1.4.2 2.4.6 1 .1h.9l.4-.2.5-.3.6-.8 1.2-2.4.6-.8.4-.4 1.2-1 1.3-.8 6.2-3.3 3.1-1.6 1.6-.7 1.9-.9 1.8-.7 1.8-.6 5.4-1.2 1.2-.3 1.9-.1 3.1.1.7-.2.2-.1.3-.7v-2.5l-.3-1-.6-1.8-.2-1.1.1-1.3.5-1.4.9-1.4 1.1-1.4 1.8-2 1.9-1.7 1.2-1.1 1.7-1.4 1.6-1 1.5-.8 1.6-.6 1-.2 1.8-.2h1.6l3.9.1 1.1.1 4 .6 2 .1h1l2.7-.3 1.2-.1 1-.3 1.2-.4 1.2-.6.9-.5 6.3-4 1.6-1 4-2.2 2-1.2 1.6-1.1 1.5-1.2 1.5-1.3 2.1-2 1.7-1.8 1.4-1.5 2.6-3.1 2.7-3.3 1.5-2 1.5-2 1.5-2 1.3-2.1 1.2-2.1 1.1-2.2 1.1-2.3 1-2.2.9-2.2.8-2.2.6-2.1.5-2.1.6-4 .4-2.3.6-2.2.3-.9.5-1.2.6-1.3.5-.9 1.2-1.8 1-1.2 1.2-1 1-.7 1.6-.7 1.6-.6 2-.5 1.3-.3 2-.1h2.6l6.4.2h5.5l1.4-.1.9-.2 1.5-.3 2-.7 1.4-.6 2.8-1.4.7-.3.6-.2.7-.2h1.8l.8.3.9.3 2.2 1 .8.3.8.2 1 .1 1.1.1 3.7.1 2.3.2 2.4.5 2.2.6 1.6.6 4.9 2.2 1.6.6 1 .3h.3"/></defs><g clip-path="url(#p16866571d6)"><use xlink:href="#mf16b7e920a" y="273.3" fill="#f4f4e2" stroke="#f4f4e2"/></g></g></g></g><defs><clipPath id="p16866571d6"><path d="M7.2 7.2h357.1v258.9H7.2z"/></clipPath></defs></svg>