<svg xmlns="http://www.w3.org/2000/svg" xmlns:xlink="http://www.w3.org/1999/xlink" width="324.6" height="374" viewBox="0 0 243.4 280.5"><defs><style>*{stroke-linejoin:round;stroke-linecap:butt}</style></defs><g id="figure_1"><path id="patch_1" fill="none" d="M0 280.5h243.4V0H0z"/><g id="axes_1"><g id="PatchCollection_1"><defs><path id="mae5eb384c8" stroke="#f4f4e2" d="m53.2-247.8.2.5.5.7.4.4 10.6 2.9 1.1.4 6.2 2.3 2.4.6 2.4.4h3.7l1.8-.3 1-.2 1.8-.4 2.2-.7 1.4-.5 5.5-2 3.2-1.1 1.7-.6 1.6-.4 1.7-.3h2.2l3.7.3 6.5 1 2 .6 2.1.6 1.7.8 1.7.7 1.7.9 1.2.7 1.2 1 1 1 .5.7.8 1.1.7 1.2 2.1 4 .9 1.5.9 1.3.4.4.8.8 1.6 1.2 1 .6 1 .6 1.4.5 1.5.2h3.1l1.5.3.8.2 1.4.6 2.3 1.3 1.5.8 1.2.4h.7l.1.3.2 1v2.8l-.3 3-.2 1.3-.8 4.1-1 6.7-.3 1.4-.3 1.3-.6 2.1-.9 2.3-.8 2-1 2-1 2-.9 1.5-2.8 4.5-1.5 2.6-1.6 3.4-.6 1.5-.3 1.4v2.4l.3 1.3.6 2.8.6 2.2.5 1.3.5 1.2.7 1.4.5.8.6.9.7.7.6.3 1.2.4h1.9l1.2-.1 5.4-1 5-.8 2-.3 1.5-.5 5.3-1.7 1-.3 4.3-.7 1.6-.4 1.7-.5 1.4-.6 5.8-2.2 4.7-2 1.4-.6 1-.6 1.2-.7 3.6-2.4 2-1.3 7.5-4 1.8-.8 1.7-.5 1.6-.2h1.2l.9.3 1 .4 1 .6 1.1.8.7.7.9 1 .5 1 .5 1.5.2 1.8v2l-.3 6.4v3.2l.2 1.2.1.6.4 1.3.5 1.2 1 2.2 3.3 5.5.5 1.1.6 1.1.2.7.5 1.4.3 2.1v1l-.2 1-.4 1-.7 1.5-.8 1.2-1.2 1.6-2.6 3.3-.8 1-.8 1.2-.6 1-.4 1-.3 1.3-.1 1.2v1l.2 2 .2 1.4.3 1.3.8 3 2.3 7.8.5 1.8.2 1.7.1 1.6v2.8l-.2.3v.2h-.2l-.4.5-3.6 3.1-.8.8-1.3 1.3-1.2 1.3-1 1.2-1.1 1.6-.8 1.4-.8 1.7-.3 1-.3 1.2-.1 1v.8l-.1 1 .1 1.7.4 2.2v1.6l-.4 3.3v1.4l.1 1.7.6 3v2.6l-.2.8-.3 1.3-.4 1.6-1 2.8-.3 1.1-.7 1.6-.7 1.3-1 1.7-3.8 6.1-1 1.7-1 2.1-1.5 4-.6 1.5-.9 1.7-.8 1.3-.8 1.1-.6.8-1.3 1.4-1.5 1.5-1.8 1.7-1.4 1.1L187-25l-1.4.8-1.9 1-2 1-2 .7-1.9.6-1.6.5-2.3.6-1.9.4-1.6.1h-1.6l-.3-.1-.3-.2.1-.2v-1l-.2-.4-.2-.5-.5-.7-.4-.5-.6-.6-1-.6-.5-.4-1-.4-1-.3-2.6-.8-.8-.3-1-.5-.6-.3-.8-.9-.9-1-.8-1.4-.7-1.4-.6-1.5-.9-2.2-.8-2.6-.5-1.9-.3-1.8-.4-4-.5-2.8L148-60l-.5-1.9-.3-1-.4-1.2-.6-1.4-.5-1-2.5-4.4-3-6-1.8-3.4-2.9-4.8-1.4-2.4L133-89l-2-2.8-6.7-8.7-4.1-5.6-1.2-1.6-1.2-1.4-1-1.2-1.4-1.2-1.5-1-1.3-.6-1.5-.3-.8-.1-1.6-.1h-1.2l-1.2.3-1 .3-1 .3-1.1.5-2 1-2.3 1.5-5.6 3.7-2 1.2-3 1.7-1.2.6-2.4 1-1.8.8-2.3.7-2.5.6-1.1.2-2 .3-2 .2-4.6.2-2.1.2-1.8.2-1.7.4-1.4.4-1.4.6-2.4 1.1-1.3.8-2.3 1.5-1.5 1.1-.6.6v-.7l-.6-1.4-1.6-3-.7-1.4-.6-1.5-.2-1.4v-1.4l.1-.9.3-.8.5-1.6 1.6-3.3.8-1.8.5-1.3.4-1.5.4-1.7.2-1 .2-1.2v-2.8l-.2-1.2-.4-2.3-1-3-.8-2.5-.6-1.5-.7-1.3-.9-1.3-1.1-1.1-1.2-.8-1.2-.6-3-1-1.7-.6-1.6-.4-6.2-1.5-2-.4-4-.3-1.4-.1-.8-.2-.7-.2-.6-.4-.5-.4-.4-.4-.4-.7-.3-.5-.2-.6-.4-2.2-.1-1-.1-1.3-.1-4.7v-1.5l-.3-2.7v-2l.2-1 1.3-4.6.2-1.1v-1.2l-.1-1.6-.3-1.1-1.8-4.9-.3-1-.1-.7v-1.1l.3-.7.3-.4.4-.6.6-.8.8-.8 2.2-2 1.5-1.7 1.5-1.9 1.5-2.2 2-3.4 1.2-2.5.6-1.5.4-1.4.3-1.2v-2.8l-.5-2-.5-1.3-1-2.2-1-2-.8-1.4-5-8-2-3.2-1.7-3.3-.9-1.8-.7-1.8-.7-1.8-.4-1.8-.2-1.3v-2.8l.2-1.3.4-1.3.7-2 .7-1.7.7-1.3 1.3-2 1-1.7 1.3-1.6 3.6-4.5.2-.4.6-.4 1-.8.6-.3 1.8-.8.6-.3.6-.4 1.1-1 1.4-1.5.5-.5.9-.7 1-.6.5-.1h.5l.6.2.6.3.5.5 1.1 1.2 1.6 1.8 1 1 .5.5.5.4.5.3.5.1h1.2l.6-.2 2.1-.7h1l.4.3.4.3.3.5.2.8v.4l.1 2.9.1 1 .5 1.8"/></defs><g clip-path="url(#pf4adf7181e)"><use xlink:href="#mae5eb384c8" y="280.5" fill="#f4f4e2" stroke="#f4f4e2"/></g></g></g></g><defs><clipPath id="pf4adf7181e"><path d="M7.2 7.2h229v266.1H7.2z"/></clipPath></defs></svg>