<svg xmlns="http://www.w3.org/2000/svg" xmlns:xlink="http://www.w3.org/1999/xlink" width="213.8" height="374" viewBox="0 0 160.3 280.5"><defs><style>*{stroke-linejoin:round;stroke-linecap:butt}</style></defs><g id="figure_1"><path id="patch_1" fill="none" d="M0 280.5h160.3V0H0z"/><g id="axes_1"><g id="PatchCollection_1"><defs><path id="m21b35aa7f1" stroke="#f4f4e2" d="M146.5-63.3h-.3l-.7.3-.5.2-.8.3-.5.3-.8.4-.5.4-.7.4-.6.5-.5.4-.9.8-4.5 4.4-1.2 1.2-2 1.8-.8.8-.4.4-2.7 3-2.3 2.5-1 1-.6.9-.3.4-.2.4-.2.3-.2.8-.1.7-.2 2.4-.1.7-.2.8-.2.5-.4 1-.8 1.4-.5.8-.4.7-.3.4-.3.3-.6.6-2 2-.8.7-.7.8-2.4 3-1 .9-.9.9-1 .8-1 .7-.9.6-.7.3h-.4l-3.3-.9-2.2-.5-1.5-.3-.7-.1-.6-.1h-.7l-.7-.1h-1.8l-.8-.1-2.3-.3-1-.1h-1.3l-2.1-.1H77.8l-1.3.2-1.6.2-1.5.3-3.2.8-.9.2-1.6.4-1.1.4-1.5.5-1.2.5-.6.2v-.8l1-4 .5-1.9 1.1-3.3.4-1.1.2-1 .3-1.4.3-1.2.1-1.1.4-2.5.2-1.3.4-1.3 1-3.2v-.4l.2-.7v-1.7l-.2-.4-.3-.7-.2-.5-.3-.4-.3-.4-.3-.3-.4-.5-.5-.3-.8-.6-3-2-2-1.2-2-1.2-1.4-.9-1-.6-1-.8-1.6-1.3L52-60l-1.4-1-.6-.5-.8-.5-.7-.4-1-.3-1.1-.5-.6-.2-.2-.2-.4-.4-.3-.3-.2-.3-.3-.7-.4-.8-.7-1.9-.4-1.2-.3-.7-.3-.5-.2-.3-.3-.3-.3-.2-.3-.2H41l-.2-.1h-1.3l-.3.1-.3.2-.1.2-.1.1-.3.2-.3.2-.5.3-.9.4-1 .4-.6.2-.6.2h-.3l-.6.1h-1.9l-.7-.2-.5-.1-.4-.2-.7-.3-3.1-1.4-.7-.4-.7-.4-.7-.4-.5-.5-.3-.2-.5-.6-.3-.5-.3-.5-.3-.4-.1-.4-.2-.5-.1-.5v-1l.3-.5.3-.5.5-.7.6-.6 1-1 .6-.4.4-.5.4-.6v-.4l.2-.5.1-.6v-4.7l.2-1v-1l.1-.5V-93l.1-.6.2-.8.3-.7.7-1.3 1.9-3.9.6-1.2.5-1.3.4-1.2.3-1.2v-.5l.1-.6v-.7l-.1-.6-.4-.9-.5-.7-.6-.7-.7-.7-.4-.5-.2-.3-.4-.6-1.2-2-1-1.6-.3-.6-.3-.6-.3-.8-.2-.8-.4-1.4-.7-2.6-.4-1.3-.3-.8-1.4-3.3-.7-1.7-.9-2.1-1.5-4.3-.5-1.3-.4-.9-.6-1-1.7-3.3-.2-.6-.4-.8-.3-.8-.1-.5-.2-.8-.1-.8v-1.5l.1-.4.2-.5.3-.6.3-.5.5-.6.3-.3.3-.1.2-.2.4-.2.8-.3 1-.2 5.6-1 2.2-.4 1.3-.3 2.6-.7 2.8-.7 1-.2.8-.1.6-.1h2.9l.9.1 1 .2 1.2.2 3 .8.7.1h.5l.9.1H48l.7-.2.6-.1.5-.2.6-.2.5-.2 1-.5 1.6-1 1-.5.6-.5.3-.3.4-.3.3-.3.4-.4.3-.5.1-.3.2-.3.2-.6v-.6l.2-2v-.4l.1-.5.2-.6.2-.8.5-1.2.6-1.7.4-1 .1-.7.1-.5v-1l-.2-.6v-.3l-.2-.3-.3-.4-.5-.6-1.6-1.7-.4-.5-.6-.7-.7-1.1-.5-1-.6-1-.4-1-.5-1-.4-1.5-.3-1-.3-1-.2-1.2-.1-.8-.1-1-.1-1v-1.5l-.1-2v-3.6l.2-2 .3-4.9.1-2v-2.4l-.2-.8-.1-.7-.2-.7-.2-.7-.4-1.1-.4-1.1-.5-1.2-.5-1-1-2.3-1.8-3.6-2-4.3-.8-1.4-.6-1.1 2.2-1.8 3.7-3.2 1-.8 1-.8 1-.7 1.8-1.2 1.8-1.2 7.4-4.3 11.8-7 2.6-1.6 5.8-3.4 1.9-1.1 2.2-1.4 2.2-1.4 5.6-3.6.7 1.8.4 1 .5 1 .6 1.2.5 1.2.7 1.2.4.8.5.7 1 1.4 1.1 1.8.7 1 2.2 2.8 2.3 2.8 5 6.2 1.3 1.6 1 1.2.7 1 .7 1.1 1.3 1.9.9 1.5.7 1.3.4.8.4 1 .4 1.1.3 1 .4 1.2 1.5 5.6.7 2 1 3 .6 1.8.6 1.6.7 1.8 1.5 3.5.5 1.5.2.6v.3l.1.5v2.1l-.3 1.3-.2 1-.2.7-.2.4-.3 1-.3.5-.3.6-.3.4-1 1.1-.5.8-.4.6-.4.8-.7 1.4-.7 1.7-.4 1-.1.5-.2.8-.1.7v2.1l.5 1.5v6.1l.3 2.6v2.8l-.1.7-.2.8v.2l-.2.3-.2.4-.1.3-.4.4-.4.4-.5.5-.5.4-.5.3-.5.1-.6.2-.4.1-.8.1h-3.5l-.6.1-.6.2-.8.2-.7.3-.5.3-.5.4-.4.3-.4.4-.8.8-1.8 2-1.3 1.5-.4.4-.2.3-.2.4v.3l-.1.2v.7l.2.3.2.2.1.2.3.3.5.4.5.4.8.6 2.4 1.3 1 .4.5.3 2 .6 2.3.7 1 .3 1.5.3 3.2.7.5.1.8.3.6.4.3.4.2.2.2.4v.7l-.2.7-.3.8-.2.4-.6.8-.6.8-.7.7-.4.5-.5.4-1 .8-1.3.8-1 .6-3 1.7-1.3.7-1.4.9-1.3.9-1.6 1.1-.9.7-.4.5-.3.3-.1.3v.6l.1.2.2.2.3.3.6.4 1.6.8.4.3.7.5.8.5.7.6.5.5.5.5.2.3.4.5.2.4.1.4.2.7.1.5.1.8v1.6l-.1 1-.2 1-.6 3-.6 2.7-.5 2-.5 2-.2.7-.1.6-.1.8-.2 1.6v.7l-.2.6-.4 1.6-.2 1.3-.4 2.1-.2 1.6-.2.8-.3 1.8-.2.9v1.6l-.2.6-.2.6-.8 2.3-.3.9-.2 1v1l.2.5.3.6.4.6.4.6 1.4 1.4.5.6.4.6v.3l.1.4v1.6l-.2.4-.8 2.4-.8 2.6-.2 1v.4l-.1.5v1.1l.2.5.4.7.4.6.4.5 1 1.1 2.4 2.9.8.8 1.2 1.2.6.6.6.5 3 2.4.7.5.6.3.3.2.6.1h2.2l.8-.1.6-.2h.4l.6-.3.7-.3.8-.4 1-.7 1.2-1 1.8-1.4.7-.5.5-.4.6-.4 1-.5.8-.4.8-.3.7-.2.9-.3 2-.5 2.1-.5.5-.1.8-.2h2l.6.1.4.1.3.2v.1"/></defs><g clip-path="url(#p31b02e710a)"><use xlink:href="#m21b35aa7f1" y="280.5" fill="#f4f4e2" stroke="#f4f4e2"/></g></g></g></g><defs><clipPath id="p31b02e710a"><path d="M7.2 7.2h145.9v266.1H7.2z"/></clipPath></defs></svg>