<svg xmlns="http://www.w3.org/2000/svg" xmlns:xlink="http://www.w3.org/1999/xlink" width="371.7" height="374" viewBox="0 0 278.8 280.5"><defs><style>*{stroke-linejoin:round;stroke-linecap:butt}</style></defs><g id="figure_1"><path id="patch_1" fill="none" d="M0 280.5h278.8V0H0z"/><g id="axes_1"><g id="PatchCollection_1"><defs><path id="mfb97624f27" stroke="#f4f4e2" d="M259.5-248.6v.8l-.2 1.9-.6 2.4-.6 2.2-1 2.7-1 2.8-1.1 2.8-1.2 2.2-1.3 2.2-1 1.5-1.3 2-1.5 2-2.1 2.4-1.8 2-1.7 1.6-3.3 3.2-1 1-.7.8-1 1.8-1 1.9-.6 2-.5 2.2-.3 2.7.2 2.5.1 1 .3 1.3.4 1.2 2.1 5.8.4 1.3.2 1.2.2 1.4.2 2.5-.2 2.5-.3 1-.5 1.6-.9 1.7-.8 1.5-2.9 4.7-1.4 2.6-.4 1-.4 1.2-.3 1.1v1.6l.4 1.5.5 1.5 1.4 3.6.4 1.4.4 1.3.3 1.3.1 1.6v7l.2 5.3v.8l-.2 2-.6 5.1v3.2l.5 4.2v1.2l.1 1.4v1.2l-.3 1.4-.6 2-1 1.8-1 1.8-3 4.4-1.9 3-4.6 8.5-1.3 2.2-.9 1.1-1.5 1.7-1.7 1.3-1.7.9-1.8.6-7.3 2.2-.8.4-.2.3v.3l.2.7-.2 1.3-.4 1.7-.7 1.8-1.2 2-2.2 3.2-1.3 2.1-1.1 2.3-1.2 2.6-2.3 5.5-1.2 2.6-1.3 2.6-1.5 2.5-1.4 1.8-1.4 1.8-1.6 1.5-1.6 1.5-1.7 1.4-3.5 2.6-1.6 1.1-3.4 2.2-13.7 8.4-1.2.6-1 .5-1.1.3-1.5.4-1.1.1-3 .3-.9.1-.8.2-1.2.4-.7.4-.7.4-1.1 1-.7.5-2.3 2.5-.7.7-.8.5-1.4.8-2.5 1.2-2 .8-2 .6-1.9.4-1.5.1-1.6-.2-1.1-.4-1.1-.5-1.4-1-.8-.8-.8-.8-.9-1.2-.4-.8-.3-.8v-.5l.1-.1.1-.2.2-.3.1-.8v-2.8l-.2-2-.3-2-.5-2.4-3-9.7-1-3.8-.3-1.7-.2-1.7-.3-2.4v-1.2l.1-1.6.4-1.6.5-1.2.8-1.4 1-1.4 1-1.3 3.3-4 1.4-2 1-1.7 1-1.7.4-1.3.2-1.3v-1.2l-.4-2.6-.6-1.8-.3-.8-.6-1.5-.7-1.3-4-7-1.4-2.6-.6-1.6-.5-1.6-.1-.8-.2-1.5v-3.9l.4-8v-2.6l-.4-2.2-.6-2-.6-1.1-1-1.3-1-.9-1.3-1-1.3-.7-1.3-.5-1.1-.3-1.4-.1-2.1.2-2.2.7-2.1 1-9.5 5-2.5 1.6-4.4 3-1.4.9-1.4.7-1.7.8-6 2.5-7.1 2.8-1.8.6-2.1.7-2 .6-5.3.8-1.4.4-6.6 2.1-2 .6-2.3.4-6.4 1-6.7 1.3-1.5.1h-2.3l-1.6-.5-.7-.4-.9-.9-.8-1.1-.5-1-1-1.8-.5-1.5-.6-1.6-.8-2.7-.8-3.5-.3-1.6v-3l.4-1.8.7-1.8 2-4.4 1.8-3.1 3.6-5.6 1-1.9 1.3-2.5 1.3-2.7 1-2.4 1-2.8.8-2.6.4-1.8.3-1.7 1.4-8.3.9-5.1.3-1.7.4-3.7v-3.6l-.2-1.2-.2-.3.7-.3 1.1-.6 4.1-2.3 2.4-1.5 3.5-2.6L51-186l1.3-.7 2-.7 5.6-1.4 3.2-1 1.3-.4 1-.2h1.8l.9-.2.5-.2.7-.4.7-.5 1.3-1.1 1.4-1.6.7-1 .6-1 .4-1 .9-2.6.2-.7.3-2v-1.8l-1.1-7-.2-1.7v-1.7l.2-2 .5-1.8.9-3.5.3-1.6.2-1.6v-.8l-.2-.8-.5-2-.5-1.3-.6-1-1.3-1.6-4-4-.7-1-.8-1-.5-1.2-.1-1.3v-.7l.3-.9.3-.8.5-1 .7-1 1.5-1.7 1.5-1.6 1.8-1.5 1.4-1.2 1.7-1.3 3-2.1 2.1-1.5 2.2-1.3 1.5-.9 2.1-1 1.8-1 1-.3 11.8 6.7 3.2 2 3.2 2 2 1.3 3.9 2.6 2.7 2 2.6 2.2 2.4 2.1 2.2 2.1 2.1 2.2 2 2.1 1.5 2.2 1.4 2 1.7 3.5.8 1.3.8 1.1 1 1 1.2 1.2 1 .8 1.2.7 1.7 1 1.8.7 1.4.5 1.6.4 1.4.2 2.5.3h4.2l11.8-1.4 7-.5 2.3-.2 3.2-.5 2.3-.5 2.4-.6 2-.7 1.9-.7 2.9-1.1 3.9-1.8 3.1-1.5 5.5-2.9 3-1.5 4.9-2.4 3.4-1.6 5.7-2.3 11.2-4.2 4.5-1.6 4.7-1.6 2.2-.7 3.3-.8 3.3-.8 3.1-.6 5.3-.9 2.5-.2"/></defs><g clip-path="url(#p6cc080ef4a)"><use xlink:href="#mfb97624f27" y="280.5" fill="#f4f4e2" stroke="#f4f4e2"/></g></g></g></g><defs><clipPath id="p6cc080ef4a"><path d="M7.2 7.2h264.4v266.1H7.2z"/></clipPath></defs></svg>