<svg xmlns="http://www.w3.org/2000/svg" xmlns:xlink="http://www.w3.org/1999/xlink" width="416.9" height="374" viewBox="0 0 312.7 280.5"><defs><style>*{stroke-linejoin:round;stroke-linecap:butt}</style></defs><g id="figure_1"><path id="patch_1" fill="none" d="M0 280.5h312.7V0H0z"/><g id="axes_1"><g id="PatchCollection_1"><defs><path id="ma54348b9ad" stroke="#f4f4e2" d="m137.7-228.6 1.6 2.8 2 3.2 1 1.6 2.4 3.6 2 3 .8 1.3 1 1.2 3 3.2 1.3 1.6 1 1.5 1.1 1.5 2 3.2 4.6 8 1 1.5 1 1.5.9 1.5 1 1.3 1 1.2.4.4.5.4.8.6.6.4.7.3.9.2h2.2l1-.2 1.9-.4 5-1.3 6.2-1.3 3.2-.8 2.5-.7 4-1.2 7.7-2.3 2.7-.9 1.7-.4 2.2-.5 7.7-1.7 4.8-1 2.2-.2 1.1-.2h6.5l7.2-.2h3.3l.8.1.6.2.7.1.7.3.4.2.4.2.2.2.4.5.3.6.1.6.2.6.1 1.6.1.7.2 1 .4 1.2.3.9.4 1 .5 1.1.4 1 .8 1.4 1.7 2.8.6 1 .8 1.2.4.6.5.5 1 .8 1 .5 1.2.3.6.1h1.9l1.2-.2 1.1-.3 1-.5 1.8-1.2 1.2-.6.6-.4.7-.2 1-.3h2.3l.7.2 2.2.4 1.3.2 1.6.2 2.3.1 1.3.2 1 .3 2 .8.9.3 1.6.4.7.3.3.2.7.4.5.6.8.8.3.5-.2.1-.1.5-.1.9-.3 3.6-.7 6.2-.1 1.9-.4 4.2v3.3l.1.7.3 1 .1.3.2.7.4.7.6 1.1 1 1.4.4.8.2.6.3 1v2.2l-.2.5-.2.7-.3.6-.4.7-.4.6-.7.8-1.8 2.1-.9 1-1.1 1-2 1.6-1 .7-.9.9-.8.9-.7 1-1.7 2.7-.5.8-1.5 2.6-.4.5-.6.8-.5.5-1 .9-1 .9-1.1 1-1.5 1-2.4 1.8-4.4 3-1.6 1.1-1 .8-1 .8-.7.7-.7.7-1 .9-.4.4-.7 1-.7 1-.6 1-.6 1.2-.5.9-.5.6-.7.6-.7.4-1 .3-1 .3-2 .5-.8.3-.7.2-.6.4-.2.2-.3.5-.2.3v1l.1.5.3.7.2.4 1 1.8.4.8.2.7.1.5v1.3l-.3 1.4-.6 1.5-.7 1.5-.8 1.5-.9 1.4-.8 1.3-.6.9-.3.3h-.1l-.6-.1-4.4-.5-2.9-.4-9.5-1.8-1.4-.3-1.1-.3-.8-.2-.8-.4-1.6-.8-1.4-1-4.2-3-1.4-1-1.4-.7-1.5-.5-1.5-.1H207l-1.6.4-1.6.4-1.6.5-1.7.6-1.6.6-3.4 1.3-16.7 7-6.6 2.6-3.4 1.3-1.7.5-1.5.5-1.5.5-1.5.3-1.6.3-1.5.1h-1.8l-1.7-.1-1.8-.3-5.3-.9-1.7-.2-1.7-.1h-1.7l-1.7.2-1.5.4-1.5.7-1.4.8-1.5 1-1.4 1-1.4 1-2.8 2.3-4.1 3.5-2.7 2.4-1.3 1.3-1.2 1.2-.9 1-1 1.4-1 1.4-.8 1.5-.7 1.7-.6 1.7-.5 1.7-.5 1.8-.9 3.7-.8 3.8-3.7 17.8-.6 3.2h-.3l-.8-.2-5.6-.6-1.7-.2-1.6-.3-1.6-.3-1.4-.5L95-22l-.2-.2-1-.8-1.7-1.8-1-.9-1-.7-1.1-.5-1.3-.5-1.6-.5-1.7-.4-1.7-.4-3.6-.7-5-.8L63.2-32l-3.4-.6-3.4-.7-1.7-.4-1.6-.4-1.6-.6-1.5-.6-1.5-.7-1.3-1-1.3-1.1-1.3-1.2-1.2-1.3-1.1-1.4-1.2-1.4-3.3-4.4-10.6-14.1-6.5-8.8.4-.2 2.6-1 15.1-6.4 5.5-2.3 1.7-.8 1.7-.8 1.7-.9L51-84l1.4-1 1.2-1 1-1.2.8-1.4.6-1.5.4-1.6.3-1.6.2-1.7.4-3.5.3-5.4.5-9 .3-5.4v-7l-.1-1.8-.2-1.7-.4-1.7-.8-3.3-.4-1.7-.2-1.6-.2-1.7v-5.3l-.3-1.4v-.5l-.5-1.4-.6-1.3-.6-1-.5-.8-1.5-2-.8-1.1-.8-1.4-1.1-2-.8-1.5-.6-1.4-.8-2-.9-2.2-.3-1.3-.2-1v-2.7l.2-1.5.2-1.6.2-1 .3-1 .5-1 .5-.8.9-1.2 1.2-1.4 1-1 9.3-9 2.5-2.2 1.8-1.5 2.2-1.7 1.4-1 2.4-1.7 2.8-1.8 3-1.9 3.4-2 1.5-.8 4.8-2.5.9-.5.8-.6 1.2-.9 1-.9 1.2-1.3 2-2.4.9-1 .7-1 .5-.8.5-1v-.1l.4-1.2.2-1.1.3-1.1.2-.6.2-.5.8-1.8.3-.7v-.8l-.2-.8-.2-.4-.4-.4-.8-.7-1.4-1-.6-.5-.4-.4-.4-.6-.3-.4-.1-.3v-1.1l.1-.4.2-.5.2-.3.4-.5.8-.7.4-.4 1-.8.8-.5 3.2-2 1.5-1 .6-.5.5-.4.6-.7.5-.6.5-.7 2.5-4.3 2.1-3.3 3.6-5.2 1.9-2.6 1.8-2.3.9-1 .9-1 .7-.7.2-.2L129-244l1.4 2.5 1.7 3.3 2.9 4.9 2.7 4.7"/></defs><g clip-path="url(#pe4edd334e4)"><use xlink:href="#ma54348b9ad" y="280.5" fill="#f4f4e2" stroke="#f4f4e2"/></g></g></g></g><defs><clipPath id="pe4edd334e4"><path d="M7.2 7.2h298.3v266.1H7.2z"/></clipPath></defs></svg>