<svg xmlns="http://www.w3.org/2000/svg" xmlns:xlink="http://www.w3.org/1999/xlink" width="323.1" height="374" viewBox="0 0 242.3 280.5"><defs><style>*{stroke-linejoin:round;stroke-linecap:butt}</style></defs><g id="figure_1"><path id="patch_1" fill="none" d="M0 280.5h242.3V0H0z"/><g id="axes_1"><g id="PatchCollection_1"><defs><path id="m2bab66bff8" stroke="#f4f4e2" d="M224.6-111.1h-3.9l-22 .3h-5l-2.2.2h-2l-2 .2-1.9.2-1.7.3-1.7.5-1.4.6-1.2.8-.8 1-.5 1.2-.2 1.5.2 1.6.5 3.4.3 1.6v1.7l-.2 1.5-.7 1.5-1 1.3-1.3 1.2-1.4 1.2-1.6 1.2-1.7 1-1.6 1.1-3.6 2.1-3.8 2.2-10.5 5.6-5.5 3.1-2.1 1.3-1 .7-1 .8-1.1 1-.6 1-.4.8-.3 1-.2 1.7v2.5l.1 1.3.3 2.5.2 1.3.3 1.4.3 1.3.6 2 .5 1.2.7 1.6.7 1.4.9 1.3 1 1.2.8.6.8.5 2.2 1.3.8.5.8.6.7.8.6.8.3.4.4 1 .5 1.1.1.6.4 1.3.2 1.1v1.4l-4 3.7-1.4 1.3-1.4 1.1-1.3 1-1.2.8-1.2.4-1 .2h-1.6l-1.3-.2-2.4-.6-1.3-.2h-1.3l-1.2.2-1.3.3-2.5.8-1.3.4h-1l-1-.1-2.5-1-.7-.2-.8-.1-2.5-.3-2.3-.3h-.8l-.8-.1h-1l-1 .1-1.5.4-1.5.5-.9.4-1.5.7-1 .5-5 3-1 .6-.8.4-1.1.4-1.3.3h-1l-.9-.4-.7-.6-.8-.6-.8-.6-.9-.2-1-.1-2.2-.2-1.1-.3-.8-.3-1.3-.6-4.4-2.5-1-.4-1.4-.3H77l-1 .2-1.7.5-1 .1-1.2-.2-1-.3-1.1-.5-2.2-1.3-2-.9-1.5-.7-.9-.3-.9-.3-1.6-.3h-5.6l-1.5.3-1.5.2-1.3.2-1 .2-.3.2h-.1L49-30l-.8-1.3-1.9-3.7-1-2.1-1-2.1-.7-1.7-.8-2-1-3.4-.5-1.7-.4-1.8-.5-3.7-.3-1.7-.5-1.7-.8-1.8-.8-1.7-1-1.7-1-1.7-1-1.4-.9-1.2-1.1-1.4-3.6-4.1-1-1.2-.7-1.1-.7-1.6-.4-1.6V-79l.2-1.3.4-.9.8-.9 1-.9 1-.6 1-.5 1-.3 1.6-.5 3.8-1.1 1.6-.5 1.7-.7 1.7-.7 1.2-.5 1.1-.6 1.3-.7 1.2-.7 2.2-1.7L52-94l2-1.7 1-1 .9-1 .6-.6.7-1 .6-1 .5-1 .2-.5.3-1 .1-1.1v-.9l-.2-.7-.3-.8-.3-.5-.4-.7-.7-.8-.5-.4-.5-.4-.7-.5-.7-.4-1.2-.4-2.5-1-1-.4-1.4-.8-1.5-.9-1.4-1-1-1-1.1-.9-1-1-1-1-2.3-2.8-8.8-10.5-2.1-2.7-1.4-2-1.1-1.9-.8-1.2-1.2-2.1-5.2-10.2-1-2 1.3-.6 4.3-1.8 5.6-2.4 4.6-2 1.9-.8 2.5-.9 4.1-1.2 2-.6 2-.7 1.3-.6 2.3-1.2 2-1.2 1.2-.8 1-.7.9-.8.8-.8.4-.5.4-.6.5-1 .2-.7.2-.7v-1.5l-.1-1.3-.3-1.2-.3-1-.4-1.3-.6-1.5-1.8-4.2-.4-1.1-.3-.9-.3-1-.1-.7v-1.3l.2-.6.2-.7.5-1.1.5-.9.8-1.4.9-1.2.5-.6.6-.6.9-.8 1.1-.9 1.6-1 .8-.5 1-.4 1.2-.5 1.3-.4.8-.2 1.4-.2 2-.2h2.7l1.4.2 1.6.3 1 .3 1 .4 3.5 1.8 1 .5 1 .3.9.2h.6l2.2-.4h2.2l1.4.2 3.3.8h.5l1.2.2h1.5l1.6-.1 1.1-.2 1-.2.7-.2 1.1-.3 3.5-1.1 2-.8 1.1-.5 2.2-1 1.6-.9 5.2-2.8 5.9-3.4 5.9-3 2.5-1.4 1.4-.8 1.8-1.2 1.1-.8 2.4-1.8 1.1-.8 1.7-1 1.2-.6 2.3-1 3-1.1 4.2-1.5 2.1-1 2.1-1 2-1 2.5-1.5 1.3-.9 1.1-.7 1.8-1.3 1.6-1.3 5.8-4.6 2.8-2.4 2.6-2.4 5-5 4.9-4.7 6.7-6.3 1.6-1.5.4-.3-.6 5-.7 7-2.7 27-.5 5.6-.2 1.9v8.2l.3 2.3.7 5.3 1.3 9.1.5 3.2.5 2.2.4 1.6.8 2.3.8 1.8 2 3.7.5.8.8 1 2.9 2.8 1 1 1.8 2.1 1.6 2.1.8 1.1.9 1.4.9 1.4 1.6 2.8 2.2 4.4 2.9 6 .8 1.9.6 1.5.4 1 .3 1.2.2.8.2 1.8v2.3l-.1 1.2-.2 1.3-.4 2.6-.3 1.2-.4 1.2-.7 2-.8 1.9-1.1 2.6-.4 1-.3 1.1v1l.3.9.6.5.9.5.8.2 2.8.7 1 .3 1.2.6.9.5.6.6.5.7.6 1 .3.7.2.6v1l-.1.6"/></defs><g clip-path="url(#p7a7353c3fc)"><use xlink:href="#m2bab66bff8" y="280.5" fill="#f4f4e2" stroke="#f4f4e2"/></g></g></g></g><defs><clipPath id="p7a7353c3fc"><path d="M7.2 7.2h227.9v266.1H7.2z"/></clipPath></defs></svg>