<svg xmlns="http://www.w3.org/2000/svg" xmlns:xlink="http://www.w3.org/1999/xlink" width="330.8" height="374" viewBox="0 0 248.1 280.5"><defs><style>*{stroke-linejoin:round;stroke-linecap:butt}</style></defs><g id="figure_1"><path id="patch_1" fill="none" d="M0 280.5h248V0H0z"/><g id="axes_1"><g id="PatchCollection_1"><defs><path id="m3c1ff8033f" stroke="#f4f4e2" d="m230.3-52.5-3.5 1.6-4.6 2.3-3 1.6-5.5 3-3.7 2-3.5 1.5-6 2.3-2 .8-.8.4-1 .5-.6.5-1 .7-1 .8-1 1-1.5 1.6-1 1.1-1.3 1.7-3.4 4.8-1 1.2-.9 1-.7.8-.9.7-1 .7-1 .4-.8.2h-.6l-1.2-.3-1.2-.7-1.1-1-1.2-1.2-1.2-1.3-1-1.4-2.6-3.5-.3-.3-.3-.2V-31l.3-1 .3-1.1 1.2-4.2.6-2.4.3-1.2.7-4.5.7-3.3.1-.8v-.7l-.3-1.3-.4-.8-1.6-2.5-1-1.4-1.1-1.4-1.2-1.5-2.6-3.1-4.1-4.7-2.2-2.3-1.2-1-1.4-1.2-3-2.3-1.7-1.5-1.7-1.6-1.6-1.7-1.5-1.8L145-82l-1.5-1.9-3-3.8-2.8-4-1.4-2-1.3-2-1.3-2-3.4-5.8-1.2-1.7-1.2-1.5-1.3-1.3-1.4-1-1.6-.4-1.9-.1-1.9.1-2 .4-2 .4-2.2.6-2.2.7-4.4 1.4-13.4 4.7-4.7 1.6-4.7 1.5-2 .5-1.8.5-1.6.3-2 .3-1.7.2h-2l-.7-.2-.8-.3-.8-.6-.4-.4-.5-.7-.3-.5-.3-.8-.2-.6-.3-1-.2-1.2-.1-1.6v-5.1l.4-2.8.6-5.8.2-2.6v-4.3l-.2-2.3-.1-1.6-.3-2-.4-2-.2-.8-.5-1.6-.5-1-.3-.7-.9-1.3-.5-.7-.8-1.1-1.6-1.7-1.1-1.2-1.6-1.6-6.4-5.8-3.1-2.9-2.9-2.8-1.6-1.8-1.2-1.3-2.1-2.7-1.3-1.6-2.4-3.2L30-180l-3.8-5.2-2.3-3-2.6-3.2-2.4-2.9-1-1v-.3l1.7-4.2 1.1-2.8 1.1-2.2.8-1.3 1.1-1.6.8-.9 1.8-1.4 2-1.2 2.1-1 2.3-.8 2.4-.6 2.4-.6 2.4-.6 9.6-2 2.4-.5 2.2-.6 2.2-.6 2.2-.7 2-.8 2-1 1.9-1.2 1.8-1.3 1.7-1.4 1.6-1.6 3.3-3 3.3-3.4 1.6-1.6 1.5-1.8 1.4-1.8 1.3-1.8.8-1.7 2.1-4.9.7-1.4.9-1.8 1-1.7 1-1.6 1.2-1.5 1.2-1.4 1.3-1.4 1.2-1.2 1.2-1 1.3-.9 1-.4 1-.3.8-.1 1.3-.1h1.3l1.7.1 1.7.2 1.8.3 1.9.3 4 .9 6 1.4 13.2 3.3 4.7 1.3 2.3.6 2.3.7 2.1.8 2.1 1 2 1 1.7 1.3 1.5 1.5 1.3 1.8 1.2 1.8 1.2 2 2.2 4 1.1 2 1.2 2 1.2 1.8 1.3 1.8 1.3 1.8 2.6 3.6 2.8 3.5 4 5 4 4.5 4.1 4.6 4.6 4.8 4.7 4.8 3 3.1 1.6 1.5 3 2.7 2.8 2.3 2.8 2.2 1.6 1.3 1.8 1.2 7.6 5.2 1.8 1.4 1.7 1.4 1.2 1.1 1 1 .9 1.1.8 1.3.8 1.5.3.8.5 1.5.4 1.4.5 2 .3 1.5.2 1.6v3.9l-.4 5-.2 3.9-.7 7.4v6.1l-.1 3.8-.1 2-.2 2-.6 6-.2 3.6v3.8l.2 3.4.2 2.4.6 4.7 1.1 7.3 3.4 20 2.7 16 1 5.8"/></defs><g clip-path="url(#p06779f0462)"><use xlink:href="#m3c1ff8033f" y="280.5" fill="#f4f4e2" stroke="#f4f4e2"/></g></g></g></g><defs><clipPath id="p06779f0462"><path d="M7.2 7.2h233.7v266.1H7.2z"/></clipPath></defs></svg>