<svg xmlns="http://www.w3.org/2000/svg" xmlns:xlink="http://www.w3.org/1999/xlink" width="269.2" height="374" viewBox="0 0 201.9 280.5"><defs><style>*{stroke-linejoin:round;stroke-linecap:butt}</style></defs><g id="figure_1"><path id="patch_1" fill="none" d="M0 280.5h202V0H0z"/><g id="axes_1"><g id="PatchCollection_1"><defs><path id="m59689690c3" stroke="#f4f4e2" d="m186.2-43.3-.8-.4-.6-.1h-1.6l-1 .2-.7.3-1.9 1-1.8 1.6-1.9 1.8-1.9 2-2 1.9-1.9 1.6-2.8 2.2-1.5 1-1.5 1-2.2 1.3-2.2 1-2.4 1-1.4.6-1.6.4-3.4.9-3.3.8-3 .5-6.6.9-6 .5-2.2.1-2.7.1h-2l-1.6-.1-1.4-.2-2-.3-2-.4-3-.7-3-.9-3.4-1.2-3.6-1.4-1.6-.6-2.5-.7-2.1-.5-1.6-.3-1.8-.2h-1.5l-1.2.3-1 .4-1.5 1-1 1-.8 1-1.5 2-.7.8-1 .9-.9.5-1.5.7-.8.3-1.1.2-1.4.2H78l-1.9-.3-2-.5-1-.3-3.7-1.4-1.9-.8-1.8-.9-1.7-1-1.5-1-2.8-2.1-1-.7-1.3-.8-2.5-1.4-1.2-.7-3.4-2.8-1.3-.7-1-.3-1-.2-1.7-.3H41l-1.4.2-1.3.3-1 .3-2.1.7-2.4 1-2.9 1.3-1.6.7-1.3.3-.6.2h-2.2l-1.5-.3-1.1-.5-1.2-.7-.7-.7-.7-.8-.2-.3v-.2l-1-.9-.7-.7-.6-.5-.4-.6-.3-.5v-1.4l.3-.5.5-.6 2.7-2.7 1-1 .6-.8.8-1.2.9-1.5.5-1 4-8.4 1.4-2.8 1-1.4.9-1.5 1.4-1.8 2.9-3.8 1.1-1.5 1-1.5.5-1.1.5-1.2.6-1.7.2-.6.2-1.2v-1l-.2-1.8-.6-2-.8-1.8-2.7-6-5-11.4-1.7-4-1.2-3.3-.6-2-.3-1.5-.3-2.4v-1.1l.2-1.3.2-1.3.7-1.8.7-1.2.8-1 1.4-1.3 1.6-1 1.7-1 4.6-2.6 2-1.2 1.8-1.3 1-.9 2-1.6 1.7-1.7 1.4-1.8.9-1.4.5-1.5.2-1.9v-.7l-.1-1.1-.2-1.1-.4-1.5-.6-1.9-1.4-3.9-.7-2-.4-1.4-.6-2.4-.9-4.1-.3-2.5-.4-2.8-.3-4.4v-9.2l.2-5.6.3-5.3.5-6.1.6-4.8.4-2.7 1.9-10.5.6-4 .5-3 .1-2v-.3l.1.4.4.3.5.3h.5l.6-.2.4-.1.9-.6 1-.8.5-.5.4-.5.4-.7.2-.6v-.9l-.3-1-.2-.8-2.7-7.4-.7-1.7-.8-1.6-.5-.8-1-1.6-1.7-2.3-1.6-1.9-1-1-.9-.8-4.4-3.5-1.2-1-1.6-1.5-1.6-1.8-.9-1.2-.8-1.4-.4-.9-.1-.6v-.7l2.3 1.3 19 11.2 5.5 3 2.7 1.5 2.5 1.4 2.6 1.2 2.4 1 2.4 1 2.2.6 2.1.2 2-.2.6-.2.5-.2.7-.4 1.4-1 3.5-3 1.9-1.4.8-.6 1-.5.7-.3.7-.2 1.3-.2 1-.1h4.6l2.4.2.8.1 1.5.4.8.5 1.2.8.7.7 1.7 2 2.3 2.9 1.7 2 3.7 4 1.2 1.5 1 1.4 1 1.4 1.2 2.4.8 1.9 3 7.6 1.2 2.6.7 1.4.8 1.4 1.5 2 1.6 2 1.7 2 7.2 7.7 1.7 2 3.4 4 3.2 4.3 1.5 2.1 1.5 2.2 1.6 2.5 1.5 2.5 1.4 2.5 2.8 5.2 1.3 2.6 1.3 2.6 1.1 2.5 1 2.4 2 4.9 1.8 5 .8 2.5.8 2.6.7 2.7 1.3 5.3 2.4 11.2 8.3 39.7 9.6 43.6"/></defs><g clip-path="url(#pf3fcd539f6)"><use xlink:href="#m59689690c3" y="280.5" fill="#f4f4e2" stroke="#f4f4e2"/></g></g></g></g><defs><clipPath id="pf3fcd539f6"><path d="M7.2 7.2h187.5v266.1H7.2z"/></clipPath></defs></svg>