<svg xmlns="http://www.w3.org/2000/svg" xmlns:xlink="http://www.w3.org/1999/xlink" width="276.2" height="374" viewBox="0 0 207.2 280.5"><defs><style>*{stroke-linejoin:round;stroke-linecap:butt}</style></defs><g id="figure_1"><path id="patch_1" fill="none" d="M0 280.5h207.2V0H0z"/><g id="axes_1"><g id="PatchCollection_1"><defs><path id="m4087dfc7e1" stroke="#f4f4e2" d="m113-259.4.2.3 1.7 3.5.8 1.5.9 1.6.8 1.5 1 1.5.8 1.3.9 1.2.9 1.2 1 1 1.1 1.2.6.5.7.5.7.4.8.4 1 .4 1 .2 1.1.2h1.1l1 .1h3.4l2.3.1 1 .1 1.2.1 1.2.2 1 .2 2.2.4 2.2.6 7.2 2.2 1.7.5 1.5.3 3.1.7 3.1.5 1.6.2 1.5.2 1.5.1 1.5.1h3.1l1-.2 2.5-.4.7-.1h1.1l.3.1.1.2.3.4 1.5 4.6 3.2 9.7 1.1 3.4.7 2.3.3 1.2 1.1 4.5.7 2.6.8 2.6.4 1.3.5 1.2.8 2 .9 2 1 2 .5 1.3.3.7v1l-.2.3-.2.4-.4.5-.4.3-.6.5-.6.4-.7.4-.7.3-1 .4-3 .9-3.3.9-2.6.8-.7.3-.5.2-.2.2-.1.1v.1l-.2.1-.6.7-.8.8-.8 1-1.5 1.9-1.7 2.3-3 4.5-2 2.9-2 3.7-.5.6-.4.6-.6.6-.4.3-.5.4-1.3.9-2.9 1.8-.6.4-.9.7-.4.3-.6.6-.4.5-.2.3-.1.4-.2.3v.9l.2.3.2.4.3.5.4.3.5.5 1.3.9.7.6.3.3.2.4.2.7v.7l-.3.6-.7 1.5-.2.5-.2.5-.2 1-.2 1-.3 1v.1l-.5.8-.4.6-.6 1-.7.8-1.9 2.1-1 1.2-.9.8-1 .8-.7.4-.8.5-4.1 2.1-1.3.8-3 1.7-2.7 1.7-2.4 1.5-2 1.4-1.3 1-1.9 1.4-1.5 1.3-2.2 2-8 7.8-1 .9-1 1.2-.8 1-.4.7-.4.9-.3.8-.2.9-.2 1.4-.1 1.3v2.3l.1 1 .3 1 .7 2 .8 1.7.5 1.2.6 1.3 1 1.8.8 1.2.6 1 1.3 1.7.5.8.5.7.5 1.2.4 1.2v.5l.2 1.1v.8l.1 1.2v2.7l.1 1.4.3 1.5.3 1.4.7 2.9.3 1.5.2 1.5.1 1.5v6.1L123-56l-.5 7.8-.3 4.7-.3 3-.2 1.5-.2 1.5-.4 1.3-.5 1.3-.6 1.2-1 1-1 1-1.2.8-1.4.8-1.4.8-1.5.7-1.5.6-4.7 2L93-20.3l-2.3 1-.3.1-10.5-12-12.6-14.6-2.2-2.4-2.1-2.4-2.2-2.4-1.6-1.7-.9-.8-.9-.7-1.9-1.6-1.3-1.2-.3-.3-1-1.2-1-1.2-1-1.2-.9-1.3-1.7-2.6-2.5-4-3.2-5.1-1.5-2.6-1.7-3-5.8-10.8-.9-1.5-.8-1.5-.7-1-.6-1-.8-1-.8-1-.9-1-2-2.3-1.9-2-1.5-1.5-.1-.1-.5-.6-1-1.6-.4-.8-.4-.8-.5-1.1-.4-1.1-1-2.7-.5-1.3-.4-1-.9-1.5-.4-1-.1-.4-.1-.6-.1-.4v-2.4l.2-1 1.2-6 .4-2 1-3.6 1-4.3.4-1.2 1.5-4.7.5-1.6.3-1.5.2-1.1.1-.8v-.8l.1-.8v-1.2l-.3-2.4v-4.9l.2-1 .2-1 .4-1.2.5-1 .4-.8.4-.7.5-.7.5-.7.5-.6.5-.6.8-.9 1-.9.7-.5 1.4-1 2.6-2 3.4-2.2 2.7-2 .9-.8 1-.9.5-.5.7-.8.5-.6.7-1 .7-1 .4-1 .5-1 .4-1 .9-2.8.4-1.2.3-.5.3-.6.5-.9.4-.5.6-.7.7-.9.6-.6.8-.8.7-.7 2-1.7 2-2 1.3-1.4.6-.6 2.2-1.8 1-1 .8-.8.7-.8.6-.7.5-.7.7-1.2.4-.6.6-1 .3-.7.5-1.2.4-1 .2-.8.2-1 .3-1.6.1-1.4v-1.5l.1-1.7v-1.3l-.2-.8v-.4l-.2-.4-.1-.2v-.1l.2-.2.1-.3.1-.3.2-.9.3-1.3.3-2.1.2-1.2v-2.2l-.2-.7-.5-2-.2-1.1-.2-1.5v-3.6l.3-1.2.2-1.5.1-.5v-.2h.2v-.1l1-.7 4.6-4 1.6-1.4 1.5-1.1 1.1-.8.7-.3.9-.5 1.8-.8 2.7-1 2.7-1.1 1.9-.6 1.6-.6 1.7-.4.8-.2.8-.2h.8l1.5-.1h2l2 .3 2 .2 11.4 1.3"/></defs><g clip-path="url(#p38bbded0cc)"><use xlink:href="#m4087dfc7e1" y="280.5" fill="#f4f4e2" stroke="#f4f4e2"/></g></g></g></g><defs><clipPath id="p38bbded0cc"><path d="M7.2 7.2H200v266.1H7.2z"/></clipPath></defs></svg>