<svg xmlns="http://www.w3.org/2000/svg" xmlns:xlink="http://www.w3.org/1999/xlink" width="302.2" height="374" viewBox="0 0 226.6 280.5"><defs><style>*{stroke-linejoin:round;stroke-linecap:butt}</style></defs><g id="figure_1"><path id="patch_1" fill="none" d="M0 280.5h226.6V0H0z"/><g id="axes_1"><g id="PatchCollection_1"><defs><path id="md553fb9026" stroke="#f4f4e2" d="m209.5-74.4-.3-.3h-.6l-.7.6-1.5 2-2.1 4.5-3 8.5-3.6 6.9-15.3 26.9-2.9 4.1-1.8 1.7-1 .2-1.1-.7-1.1-1.7-1-2.6-1.2-4.7-1.6-10.7-.2-1-.7-2-1.7-3.7-4-7.2L158-63l-5.9-7.4-5.3-5.6-4.8-4-3.5-1.8-2.8-.6h-1.4l-2 .3-2.4.8-3.5 1.8-5.5 3.8-8 6.8L99.8-56l-6.2 5.7-5.6 4.4-2.7 1.7-7.8 3.6-8.1 5.3-3.3 2-3.4 1.5-3.6.9h-2.6l-2.8-.3L51-32l-5.6-2-3.7-2-3.8-2.4-3.7-2.7-3.6-3-3.3-3.3-2.9-3.5-2.5-4-2-3.7-1.7-3.8-1-4-.4-3.7.3-3.5.6-3 .8-2.3.7-.8L61-193l7.4-19.1 7.6-17.8 4-8.1 4-7.4 4.3-6.5 4.6-5 5-3.4 4.3-1 4.4.1 4.4 1.3 2.5 1.1 4.4 2.7 16.3 12.4 5.2 4.2 4.9 4.6 4.8 5.6 2.4 3.7 2 4.1 1.6 4.4 1.9 5.9 1.8 7.8.9 5 2.7 18.1 1.4 8 2.4 11.1 5.8 20.7 5.4 15.9 3.7 9 2.6 5.4 2.2 4.1 4.4 7 4.7 6.5 4.8 5.7 8.9 9.8 1 1.7-.3.9"/></defs><g clip-path="url(#p54b0c3dd10)"><use xlink:href="#md553fb9026" y="280.5" fill="#f4f4e2" stroke="#f4f4e2"/></g></g></g></g><defs><clipPath id="p54b0c3dd10"><path d="M7.2 7.2h212.2v266.1H7.2z"/></clipPath></defs></svg>