<svg xmlns="http://www.w3.org/2000/svg" xmlns:xlink="http://www.w3.org/1999/xlink" width="459.7" height="374" viewBox="0 0 344.8 280.5"><defs><style>*{stroke-linejoin:round;stroke-linecap:butt}</style></defs><g id="figure_1"><path id="patch_1" fill="none" d="M0 280.5h344.8V0H0z"/><g id="axes_1"><g id="PatchCollection_1"><defs><path id="m9fce7c1dd5" stroke="#f4f4e2" d="m322.6-151.6-2.1 4.7-1.6 3.5-2.7 5.3-2.1 4.1-2.7 4.7-3.8 6-2.1 3.3-3.7 5.2-3 4.1-2.8 3.8-10.1 12.7-3.4 4.3-4.8 6.6-4.4 6.2-2.2 3.2-3.8 5-1.8 2.3-1.8 2.1-2.2 2.4-1.7 1.8-2 1.8-1.9 1.7-1.9 1.4-1.9 1-2.2.7-1.8.1-2-.3-2-.5-2-.3h-1.8l-1.7.3-2.3.5-2 .7-4 2-1.8.6-1.7.5-1.8.2h-1.4l-2.1-.4-2-.6-4-1.4-2.2-1-2.7-1.5-3-1.9-5.7-4-2.5-1.8-2.1-1.2-2.2-1-2.1-.6h-2.1l-1.4.2-1 .4-1.1.6-.5.3-1.6 1.4-2 2-5.7 6.4-2.4 2.5-2 2-3 2.7-9.9 8.1-4 3.6-3.5 3.4-6.8 7.2-2.3 2.4-1.5 1.2-1.3.8-.7.4-1.2.3-.8.1h-.6l-1.7-.5-1.5-.8-1.8-1.3-2.1-1.9-.9-.9-1.3-1.6-1-1.4-.9-1.4-.4-1-3.2-7-1-2.8-.6-2.7-.2-2-.2-3.3v-3.5l.5-2.5.6-2.4.4-2.4V-61l-.6-1.8-1-2L115-74l-4-6.5-2.1-3.2-2.3-3-2.7-3-2.4-2.1-2.5-1.9-2.6-1.5-2.4-1-1.3-.4-1.3-.3-2.5-.5-2.2-.1-1.7.4-.7.7-.3-.3-.6-.9-.8-1.3-1-2-1-2.3-5.4-11.7-2.2-4.3-1.8-3-2.3-3.3-1.7-2.2-1.8-2-5.3-6-3.2-3.7-2.6-3.5-1.1-1.3-2.4-2.6-3-3-5.3-5-3-3-1.3-1.4-1.6-2-.7-1.1-1.5-3.3-3-5.8-1.7-4-1-2.6-.9-2.8-5.6-18.4.1-.1h1.4l9.9.9 10.3.5 13.9.3h4.5l5.3-.1 3.4-.2 3.3-.3 3.9-.5 2.6-.4 10-2 8.3-1.6 7.3-1.5 3.4-1 5.2-1.7 4-1.5 2.4-1 1.7-.8 4.5-2.4 6-3.6 3.4-2.2 2-1.5 2.2-2 1.7-1.6 2.3-2.4 2-2.5 4.8-6.8 2.8-3.6 1.7-2.2 1.5-1.5 2-1.8 1.7-1.3 2-1.4 2.3-1.3 2.2-1 2.6-1 3-.9 2.8-.6 3-.6 6.3-1 9.4-1 5.6-.6 8.2-.6 10.6-1.2 3.2-.2 4-.2 9.1-.3 8.8-.3 6.2-.3 2.8-.2 4-.5 4-.7 2.3-.6.6-.4h.6l1.1-.6 1.5 3.5 1.7 4.6 1.8 5 1.4 4.5.6 1.7 1 2.2 1.2 1.8 1.4 1.7 1.3 1.3 4 3.9 1 1.1 1.7 2.1 1.4 2.1 5.4 8.3 1.1 1.9.9 1.7.9 2.2.6 2.3.4 2.2.5 7 .4 2.6.6 2.7.8 2.8.6 2 .7 1.7.8 2 .7 1.3.9 1.6 1.5 2.3 2 2.9 1.4 1.7 2.7 3 5.8 6 1.6 1.7 1.4 1.8 1.1 2 .6 1.2.7 1.7.8 2.6 1 4.3.3.6"/></defs><g clip-path="url(#pac804d7862)"><use xlink:href="#m9fce7c1dd5" y="280.5" fill="#f4f4e2" stroke="#f4f4e2"/></g></g></g></g><defs><clipPath id="pac804d7862"><path d="M7.2 7.2h330.4v266.1H7.2z"/></clipPath></defs></svg>