<svg xmlns="http://www.w3.org/2000/svg" xmlns:xlink="http://www.w3.org/1999/xlink" width="323.7" height="374" viewBox="0 0 242.7 280.5"><defs><style>*{stroke-linejoin:round;stroke-linecap:butt}</style></defs><g id="figure_1"><path id="patch_1" fill="none" d="M0 280.5h242.7V0H0z"/><g id="axes_1"><g id="PatchCollection_1"><defs><path id="m38e52ccc00" stroke="#f4f4e2" d="m80.2-260.7 1 1 2.2 2.7 2.4 3 2.2 2.7 3.6 4.9 9 12.5 2.3 3 1.1 1.5 2 2.5 1.1 1.2 1.6 1.7 2.6 2.7 3 2.7 5.9 5.4 1.5 1.4 1 1.1 1.5 1.6.8 1 .5.7.7 1.2.3.6.5 1 .5 1.5.2.7.4 2 .2 1.8.2 1.5.1 2.2v4l-.2 2.3-.6 5.5-.2 2.7-.1 1.8v4.4l.3 1.1.2 1 .2.5.3.7.3.5.5.6.4.4.7.6.7.2.8.2h3.4l1.8-.4 1.5-.3 1.7-.5 1.8-.5 4.4-1.3 4.5-1.5 12.5-4.4 4-1.3 2-.7 2-.5 2-.4 1.9-.4h3.5l1.5.5 1.4.8 1.2 1.2 1.1 1.4 1 1.6 3.3 5.5 1.2 1.9 1.2 1.8 1.3 1.9 2.6 3.7 2.8 3.6 1.4 1.7 1.4 1.7 1.5 1.7 1.4 1.6 1.6 1.5 1.6 1.4 2.8 2 1.3 1.2 1 1 2.2 2.1 3.8 4.4 2.4 2.8 1.1 1.4 1 1.4 1 1.3 1.5 2.3.4.8.3 1.2v.6l-.1.8-.7 3-.6 4.3-.3 1.1-.6 2.2-1.1 4-.3 1-.2 1-.1.8v.7l.3.2-.2.4-.6.9-.9 1-1 1-.8.7-.8.6-1.5.8-1.9.5h-4.3l-2.2-.4-4.6-.8-2.3-.4-2.3-.2-2.2-.2h-6.5l-2 .2-1.8.3-1.6.5-1.4.6-1.2.9-.7 1.1-.6 1.4-.4 1.5-.7 3.2-.4 1.6-.7 1.4-.6 1-.4.6-.5.5-.4.4-.8.6-1.1.8-2.9 2-.7.5-1.1.9-.8.7-.4.5-.8 1-.5.8-.4.8-.3.7-.5 1.6-1.8 6.9-1.5 5-.5 1.5L159-54l-.7 1.6-.8 1.9-.9 1.7-1 2-1.1 1.7-.9 1.2-.7.9-.8 1-1.3 1.4-2.9 3-.5.7-.3.4-16.2-1.8-3-.4-2.8-.2-2.8-.1h-2l-1.3.1-1.2.3-1.1.2-2.4.7-2.3.8-2.6.9-4 1.4-3.9 1.6-2.5 1.2-1.3.6-.9.5-1.6 1-2.1 1.7-2.3 1.9-6.7 5.8-1.2 1h-.2v-.4l-.6-2.2-.4-2-.2-1.9v-3.5l.2-2 .8-7L83-42l.4-2.7.8-4.8.2-1.2v-3.7l-.3-1.5-.5-3.2-.3-2.5v-3.7l.2-.9.3-.8.3-.7.6-1.2 1.2-2.3.7-1.3.6-1.2.4-1.2.3-1 .1-.8v-4l-.4-2-.2-1.2-.5-2-1.2-4.7-1.9-7.4-1.8-6.6-.4-1.3-.5-1.6-1.5-3.9-1.7-4.1-.4-1.5-.2-1.5-.1-1.6v-1.4l.3-3v-2.8l-.2-.7-.5-1.3-.2-.6-.4-.7-.4-.5-.6-.6-.5-.5-.5-.4-.5-.3-.6-.4-.7-.2-1.6-.4-.9-.3-.5-.2-2-1-.9-.4-1-.2-2.7-.2-1.2-.2-.8-.2-.5-.2-.8-.4-.3-.3-.6-.4-.6-.7-.6-.7-.7-1.2-.6-1-.4-1-.3-.6-.5-1.8-.3-.7-.2-.3-.1-.3-.2-.1-.2-.1-.3-.1h-.5l-.3.1-.3.3-.5.3-1.2 1.1-.4.3-.5.2-.8.2h-2.7l-1.6-.4-1.7-.5-2-.7-1.4-.5-1.3-.6-1.6-.8-1.5-.9-1.4-1-1.3-1.3-1.2-1.6-1-1.4-.8-1.6-.5-1.2-.5-1.2-.4-1.1-.3-1.1-.3-1.5-.1-1.2v-2.1l.1-1.1.4-2.3v-2.8l-.5-1.2-.7-1-1-.6-.5-.2h-.5l-2.1-.4-.5-.1-.5-.2-.3-.2-.4-.2-.9-1-.7-1.2-.7-1.6-.5-1.6-.4-1.5-.2-1.2v-.7l4.2-6 4.6-6.1 5.8-8.2L47-224.9l5.4-7.7 2.6-3.6 4-5.4 9-13.1 1.2-1.8 1.4-1.6.7-.8.7-.7.9-.6.9-.5.4-.2 1-.2 1-.1h2l2 .4"/></defs><g clip-path="url(#p72faffbb65)"><use xlink:href="#m38e52ccc00" y="280.5" fill="#f4f4e2" stroke="#f4f4e2"/></g></g></g></g><defs><clipPath id="p72faffbb65"><path d="M7.2 7.2h228.3v266.1H7.2z"/></clipPath></defs></svg>