<svg xmlns="http://www.w3.org/2000/svg" xmlns:xlink="http://www.w3.org/1999/xlink" width="372.8" height="374" viewBox="0 0 279.6 280.5"><defs><style>*{stroke-linejoin:round;stroke-linecap:butt}</style></defs><g id="figure_1"><path id="patch_1" fill="none" d="M0 280.5h279.6V0H0z"/><g id="axes_1"><g id="PatchCollection_1"><defs><path id="m09557c2bfb" stroke="#f4f4e2" d="m253-86.7.2.6v3.2l-.4 1.9-.7 1.8-.5 1-.7 1-.7.7-.6.6-1.1.9-1.4.9-1.5.8-1.6 1-1.7.6-1 .4-1.4.2-1.2.2h-2.5l-1-.2-1-.2-1.2-.4-2.7-1-1-.3-1.2-.3-1-.2H226l-1.1-.1h-1.3l-1.5.2-3.8.4-1.4.2-1 .2-.9.3-.7.6-.5.6-.4.7-.5 1.5-.4 1-.3.5-.7 1-.7.9-1 .8-2 2-1 1-.8 1-.5.8-.4.8-.4.8-1 2.4-.3.5-.3.5-.8.8-.8.6-.8.3-.8.1h-.7l-.6-.2-.8-.2-1-.5-.5-.3-1.8-1.1-.8-.5-.5-.5-.6-.6-.7-1-.6-1.2-.3-.7-.3-1-.2-1-.2-1.3V-71l-.2-2-.4-2.4-.5-1.6-.7-1.2-.8-1-.5-.6-1-.7-1-.4-1-.4-1.1-.1-1-.1h-2.7l-1 .1-1.2.3-1.3.3-1.5.4-1 .4-2 .8-5.9 2.6-1.1.6-1 .5-2.2 1.3-.7.3-.8.4-1.8.7-1.2.6-.5.3-.7.6-.8.7-.5.7-.6 1-.4.6L152-66l-2.1 4.8-.9 1.7-.7 1.3-1.2 1.6-1 1.2-.8.7-.8.6-.8.5-1 .4-4.4 1.7-1.5.5-1 .3-2 .5-3.4.7-1.5.4-3.6 1.2-1 .3-1.1.5-1.6.9-1.7 1-1.3 1-.7.6-.8.7-.7.7-.7.8-1.2 1.5-.6 1-.7.9-1.9 3.4-.6 1-.5.8-.6.7-.7 1-1.3 1.3-3.7 4-1.2 1.4-1.3 1.6-.7.8-.4.4-1 .9-1.3.8-.6.2-1.4.3-1.5.1-1.7-.2-1.9-.3-1.5-.4-1.8-.5-1.6-.7-1.7-.7-1.5-.7-1.4-.7-1.3-.8-1.2-.8-1.1-.8-1-.9-1.4-1.2-.9-1-.8-1-.7-1.2-.7-1-1-1.8-.7-1.7-.8-2-.4-1.4-.8-3-.4-2-.1-.6-.2-.8-.6-1.6-1-2.7-.7-2-1.6-5-.5-1.3-.6-1.1-.4-.9-.4-.6-.4-.5-.6-.7-1.2-1.1-2.8-2.5-.7-.7-.8-1-.6-.6-.4-.5-.5-.7-.7-1.3-.7-1.6-.4-1.2-.7-2-.3-1-.7-1.4-.9-1.4-.9-1.2-1.2-1.3-.9-.8-2.7-2.2-.7-.6-1-1-1-1.2-2.6-3.7-1-1.1-.5-.6-.6-.6-2.4-2-.8-.8-2-2-1.2-1.4-.7-1-.8-1.2-.5-.8-1-1.8-.8-1.6-3-6-2.3-4.4-.6-1.2-.4-1.1-.4-.9-.2-.8-.2-.6v-4.4l.2-.9.3-.5.6-.9.8-.8 1.5-1.2 3-2.2 1.6-1.3 1-1 .8-.7 1-1.5 1.2-1.5.6-1 1.5-2.5 1.2-2.1 2.6-5.1.7-1.3.6-1 .7-1 .8-1 .9-1 1-.8 1-.9 1.6-1.1 1.8-1 1.8-1 3.7-1.8 1.8-1 1.7-1 1.5-1 .7-.7 1.2-1 1-1.2 1-1.2 1-1.6 1-1.7.7-1.7.5-1.7.5-1.8.4-1.8.4-3.2.2-1.2.3-1.2.4-1.2.5-1.4 1.8-4.2.8-1.9.4-1 .6-2 .5-2 .3-2 .2-1.8v-2.7l-.1-1.6-.3-1.8-.4-1.5-.4-1-.4-.3.4-.2.6-.1h1.2l1 .2 1 .3.7.3.7.3.9.4.7.5 2 1.5 1.1.8 1.5.7 1.5.5 1.1.2 2.2.2 2.9.5 1.4.1H92l1-.1 1-.3 1-.3.7-.3.8-.4 2.7-1.5 3.3-1.5 1.3-.7 1.3-.9 1.1-.9 2-1.7 1-.7 4.2-3 5.3-4.3 3.6-2.5 1.5-1.2 1.4-1.4 1.3-1.5 1.2-1.5 1-1.7 1-1.7.3-1 .6-1.9.4-1.8.5-2.7.3-1.3.4-1 .6-1.8.7-1.5.3-.8.5-.7.6-.8.4-.5 1-1 1-1 .7-.5h.1l3.4-1.4 2-.7 1.8-.7 2.1-.6 2.7-.8 2-.5 3.1-.7 1.8-.3 2.1-.3h1.2l3.9-.3h.9l3.4-.5 1.7-.1h1.8l3.5.5h2.9l.6-.2.6-.3.5-.2.8-.4 1.3-.9 2.3-1.5 1.1-.7.4-.2.7-.3.7-.1.8-.1h1.1l.7.2.8.4.6.4.7.6.8.8.5.8.6.9.8 1.4.6 1.4.4 1.3.4 1.2.3 1.4.2 1.2.2 1 .2 3 .2 1.7.2 1.2.2 1 .3 1 .6 1.4.6 1.3.5 1 1.2 1.8 2.6 3.8 1.5 2.3.7 1.2.6 1.2 2.2 4.4.6 1.2.6.8.6.9.7.9 1 1.3 2 2.2 1.5 1.7.7 1 .8 1.2 1 1.8.6.9 1.2 2.5.6 1.2.4 1.2.5 1.2 2.1 6.5 1 2.3.8 1.8.5 1 .7 1 .7 1 3.2 3.8 1.2 1.6 1 1.6 1 1.7.8 1.7.7 1.7.6 1.8 1.7 5.9.6 1.9.4 1 .7 1.9.7 1.5.3.7.8 1.2 2.9 4.3.8 1 .8 1 .9.7 1 .8 1 .5 1 .5 1 .4 3.1.9.9.3.7.3.6.3.6.4.7.5.5.4.5.6.5.6.5.7.5 1 .4 1 .4 1 .3 1.7v7.4l-.1 1.6-.3 1.2-.2.7-.3.6-.8 1.5-1.3 2.3-.7 1.3-.5 1.3-.3 1.3-.2 1.3-.3 2.4-.4 5.1-.3 1.6-.4 2.4-.4 1.9-.3 1.3-.2 1.9v5.7l-.2 2.1-.2 1.9-.5 3-.1 1.3v1.5l.2 1 .2.7.2.3.2.1"/></defs><g clip-path="url(#p5d460d0743)"><use xlink:href="#m09557c2bfb" y="280.5" fill="#f4f4e2" stroke="#f4f4e2"/></g></g></g></g><defs><clipPath id="p5d460d0743"><path d="M7.2 7.2h265.2v266.1H7.2z"/></clipPath></defs></svg>