<svg xmlns="http://www.w3.org/2000/svg" xmlns:xlink="http://www.w3.org/1999/xlink" width="495.4" height="353.1" viewBox="0 0 371.5 264.8"><defs><style>*{stroke-linejoin:round;stroke-linecap:butt}</style></defs><g id="figure_1"><path id="patch_1" fill="none" d="M0 264.8h371.5V0H0z"/><g id="axes_1"><g id="PatchCollection_1"><defs><path id="m52693cf79b" stroke="#f4f4e2" d="m304.8-245 16 11.8 1.5 1 1.3.8 1 .6.6.2.7.3 1.3.3h.9l1.8.3 3.9.1 11.3.3h1.4l.4.3.4 1 .4 1.4.2 1.8.2 1.5v2.7l-.2 1.7-.4 2-.4 2-.7 1.9-.3 1-.8 1.9-1.7 4-.6 1.4-.3 1.2-.3 1.1-.2 1.2-.4 3.1-.4 1.8-.5 1.7-.5 1.7-.7 1.7-.9 1.6-1 1.6-1 1.2-1 1-1 1.1-.8.6-1.5 1.1-1.7 1-1.7.9-3.6 1.7-1.8 1-1.7 1-1.6 1.1-1 .8-1 .9-.8 1-.8 1-.6.9-.6 1-.8 1.2-2.5 5-1.1 2-1.5 2.5-.6 1-1 1.5-1.2 1.3-.7.8-1 1-1.5 1.2-3 2.1-1.4 1.2-.8.8-.7.9-.2.5-.2.9v4.2l.2.7.2.7.3.9.5 1 .6 1.2 2.2 4.4 2.9 5.8.8 1.5 1 1.8.4.8.9 1.2.7 1 1.1 1.2 2 2 .7.8 2.4 2 .6.6.5.5 1 1.2 2.5 3.6 1 1.1 1 1 .6.5 2.7 2.2.8.8 1.2 1.3.9 1 .9 1.5.6 1.3.4 1 .6 2 .4 1.2.7 1.6.7 1.2.4.6.5.6.5.6.8.9.7.7 2.8 2.4 1 1.2.7.6.3.5.4.6.5.8.5 1.1.5 1.3 1.6 4.9.6 1.9 1 2.7.6 1.6.2.7.1.6-.2.2h-.8l-.8-.2-1-.4-1.5-.7-.8-.5-1.3-.8-.8-.5-1.2-1-1-1-.6-.7-1-1.2-1.5-2.2-.6-.6-.2-.2-.4-.2h-.4l-.3-.1h-.5l-.4.3-.4.2-.5.4-1 1.2-.6.4-1.1.6-.3.3-.4.3-.4.7-.3.7-.5 1.7-.8 2.4-.3 1.3-.6 2.9-.7 2.9-.3 1.5-.2 1.3-.2 2.5-.1 2.2-.2 5v1.5l-.3 2.5-.2 1.7-.3 1.3-.2.8-.3.8-.3.8-.9 1.4-.9 1-2.3 2.5-.9 1.2-1 1.4-1.4 2.6-.5.7-.5.7-2.1 2.3-1.1 1.3-1 1.1-1.3 1-1.2 1-1.3 1-.9.6-.9.6-.7.3-.7.3h-.3v-.3l-.4-.4-.5-.5-.7-.5-1-.5-1.1-.4-1-.3-1-.2-1.8-.3-3-.3-1.7-.2-2.5-.5-1.2-.3-8.9-2.6-2.1-.5-1-.2-1.6-.2-1.7.1-3.4.5-1.4.1-2.2.2-4.2.3-1.2.2-2.8.6-1.2.2h-.6l-.9-.1-1.6-.2h-7l-2.4-.1-1.7-.2-1.7-.2-1.7-.3-1.8-.5-1.8-.5-3.6-1.1-2.8-1-6.2-2-3-1-1.4-.5-1.5-.3-1-.2-1.5-.2H208l-3.4-.1-2-.2-1.6-.1-1.4-.2-1.4-.3-1.8-.4-3-1-7.8-2.5-2.3-.9-2.8-.9-1.3-.5-1-.8-.6-.5-.5-.6-.6-1-.5-1.2-.5-1-.3-1.2-.4-1.6-.4-1.6-.1-1-.2-1.2-.1-1.6-.2-5-.2-7.7-.2-1.4-.1-.6-.1-.4-.2-.3-.4-.6-.7-.6-.7-.5-.6-.4-.7-.3-1-.3h-.6l-2.2-.2-2.8-.4H161l-2 .3h-3.5l-1 .1-1.1.2-.9.3-1.5.6-.7.2h-1.6l-1.2-.2h-2.2l-2 .4-2.3.4-1 .3-1 .4-6.7 2.8-1 .3-1.5.6-1.8.4-3 .6-2 .4-4.2 1.1-3.7 1-2.7.6-3.5.8-2.6.7-2.8.9-2.8 1-6.5 2.3-3 1-4.3 1.4-8.4 2.7-9.1 2.8-1.4.4h-1.3l-1.1-.1-1-.2-1.1-.2-1.2-.4-1.6-.5-1-.5-1.5-.7-1.2-1-1-1-.7-.9-.4-.8-.3-.7-.2-.5-.1-.8v-.5l-.1-1v-2.8l-.2-1-.1-.6-.2-.8-.2-.5-.5-1-.3-.5-.7-.8-2-1.9-1.8-1.9-1.2-1.6-1.2-1.5-.6-.8-.8-.8-.8-.6-.4-.3-1.3-.8-.5-.4-.4-.4-.5-.7-.3-.8-.2-.7v-2.2l.4-2.6.2-1.8v-2.9l-.2-2.6-.2-2.6-.4-2.2-.7-3-.6-1.8-.3-1-.4-1-1-1.9-.5-1-1-1.6-1.2-2-1-1.1-.9-1-1-1-2.2-2-1.3-1.3-1.1-1.4-.9-1.2-.5-.8-.3-.7-.5-1.2-.4-1-.2-1-.3-1.3-.1-1v-1.7h.3l.6-.4 1.4-1 .8-.7 1.7-1.6.8-.8 1-1.2.6-.8.8-1.1.6-1 .6-1.2 1.5-3.4.7-1.4.7-1.2 1-1.4.9-1 1.3-1.2 1-.6 1-.4 1.1-.4 1-.2 2-.3h3.4l5.3.6h1.7l3.5.2h1.4l1.3.2 2 .5h1.1l.7-.3.5-.3 1.1-.8.8-.5.7-.5 1.2-.5 2.8-1.1 1.7-.6 1.1-.3 1.6-.3 1.3-.2h2.2l1.3.1 1.4.2 2.9.4 1.4.1 1.2.1h1.2l1-.3.6-.3.6-.4.5-.4.4-.5.7-1L95-156l1-1.8.6-.9.4-.7 1.5-3.2 1.2-2.3.5-1 .6-1.3.3-.9.5-2.1.4-1.9.3-1.5.3-2.2.1-1.7.2-2.5.1-.8.1-.7.2-.8.2-.3.5-1 .7-.8.7-.4.8-.2h1l2.3.4h1.2l1-.2 1.1-.5 1.4-.8.8-.7.7-.7.6-.7.8-1.2.8-1.4.8-1.3.5-1.2.9-2 .4-1.2.3-1 .2-1 .2-.9v-2l-.1-4.2v-1.5l.1-5.4v-3.6l.1-1.7.2-1.4.2-1.3.4-1.2.6-.9.9-.7 1-.5 1.3-.4.8-.2 2.4-.5 1.4-.2 1.7-.2h1.3l1.9-.1 2.7.1 9 .7 1.7.2 1.7.2 1.6.4 1.6.4 1.5.6 1.5.6 1 .5 4.4 2.3 1.8.8 1.7.5 1.2.3h3.2l2.1-.2 1.4-.3 2.4-.5 1.9-.6 1.2-.3 2.1-.8 1-.5 1.1-.5 1-.5 1-.7.7-.5.6-.6.6-.6.7-.8 2.8-3.4 1.5-1.7.6-.6 1-.8 1.2-1 .6-.4 2-1 1-.6 1.8-1.2.9-.5.8-.3 1-.2h2l.9.2 1.1.2 1.2.4 1 .6.8.6.6.5 1.4 1.3.8.6 1.4 1 .8.4.5.2.9.3.6.2 2.4.4.6.2.5.3.6.5.5.7.6.7 1.4 2.7.4.6.5.6.8.6.7.3.6.3 1.2.2 4.1.8 1.7.4 1.4.6.8.4 1.4.9.9.7 1.1 1 3.3 3.1.6.6 1 .7 1 .5.8.4.8.3 1.2.3h1.8l.6-.3 1-.7.7-.8.5-.7.5-.8.4-.8.4-1 1-3 .6-1.7.5-1 .9-1.6.4-1 .3-.7.3-1 .7-2 .4-1.2.5-.9.7-1.1.7-1 .8-.7 1-1 1.4-.9 1.3-.8 1.4-.9 3-1.7 2.6-1.4 1.5-.8 2.5-1.1.9-.5 2-1.1 1.5-.9 1.2-.5.5-.2 1.2-.2 1.2-.1h1.7l3.8-.1h2.2l6.1-.5h1.7l1.6.3 1.4.3 1 .4.4.3"/></defs><g clip-path="url(#p4baee8513d)"><use xlink:href="#m52693cf79b" y="264.8" fill="#f4f4e2" stroke="#f4f4e2"/></g></g></g></g><defs><clipPath id="p4baee8513d"><path d="M7.2 7.2h357.1v250.4H7.2z"/></clipPath></defs></svg>