<svg xmlns="http://www.w3.org/2000/svg" xmlns:xlink="http://www.w3.org/1999/xlink" width="234" height="374" viewBox="0 0 175.5 280.5"><defs><style>*{stroke-linejoin:round;stroke-linecap:butt}</style></defs><g id="figure_1"><path id="patch_1" fill="none" d="M0 280.5h175.5V0H0z"/><g id="axes_1"><g id="PatchCollection_1"><defs><path id="m8e8a454e58" stroke="#f4f4e2" d="M149.9-175.2v.2l-.1.4-.5.8-.2.4-.7 1-1.4 2-.7.9-1 1.6-.7 1.1-.3.7-.3.5-.3.8-.3.7-.2.6-.6 2.2-.3 1.1-.3.8-.2.4-.1.3-.4.6-.5.5-.5.5-1.3 1-.5.4-.5.6-.6.7-1.5 2.1-.7 1-.6 1.1-.3.7-.6 1.3-.3.8-.4 1-.3.9-.2.8-.1.6-.2.9v.8l.1.8v.2l.3 1.1v.9l-.1.5-.4.4-.4.3-.5.1-.6.2-.4.1-.3.2-.4.2-.3.3-.4.5-.2.4-.3.8-.1.8-.1.7-.2 2.5-.2.9v.6l-.2.6-.5 1.4v.7l.1.3.3.3.2.3.3.1.3.1h1.1l.4-.4.4-.3.5-.5.6-.6.3-.5.5-.6.5-.8.9-1.4.3-.4.2-.3.3-.2h1l.1.1.4.3.4.3 2.4 1.8.2.2 1.2.7.5.3.4.4 6.6 5.4 2 1.7.6.4.6.3 1.3.7 1.5.8 1.1.7.6.3 1 .7.6.5.4.3.5.5.4.4.4.5.4.5.7 1 .3.5.4.7.3.6.2.5.2.8.1.8v.8l-.2.7-.2.6-.2.5-.2.2-.4.5-1 1-.4.6-.4.6-.2.7v.3l-.1 1.3-.1 1.5v.5l-.2.5-.3.6-.6.8-.4.7-.3.5-.2.6-.1.6-.3 1.9-.3 1.2-.3 1.5-.3 1.3-.2 1-.1 1-.2 1-.1 1.2-.2 2v3.2l.1 1.8.2 1.8.3 2v3.1l-.1.5-.2.9-.3.7-.3.7-.2.4-.5.7-.3.4-.6.7-1.7 1.8-1 1-.7.9-.6.8-.3.4-.3.5-.3.8-.1.8-.2 1.8v2.4l.3 1.4.3 1.5.3 1.3.4 1.1.9 2.6.3 1 .1.6.1.4v1.1l-.2.3-.2.3-.2.4-.6.6-.8 1-.3.3-.4.5-1.3 1.1-.4.4-.2.3-.2.5v.5l-.3 1.6v.6l-.2.3-.3.3-.2.3-.4.2-1.5.6-.8.5-.7.4-.7.5-1.7 1.3-.4.4-.5.3-1.2.6-.6.4-.8.6-2.2 1.8-2 1.5-.3.2-.4.4-.3.4-.1.2-.2.5-.2.6-.2.6v2.7l.1.8-.3-.3-.4-.9-.1-.1-.3-.3-.3-.4-.2-.2-.4-.1v-.4l-.1-.3-.2-.2-.3-.3-.6-.4-.4-.3-.7-.4-3.6-1.8-1-.6-.8-.5-.7-.6-.6-.7-.6-.7-.5-.6-.4-.6-.4-.8-.5-.8-.4-1.2-.3-.7v-2.3l-.2-.6-.3-.5-.4-.6-.3-.5-.7-.7-.4-.7-.5-.9-.9-1.7-1-1.7-.4-.6-.1-.4-.2-.4-.4-2-.3-1-.5-1.1-.8-1.8-.4-.9-.4-1-.6-2-.1-.4-.1-.2h-.6l-.1.3-.2.3-.1.5v.3l-.1.5v1.4l.1.7.1.5v.2l.2.4.2.2.4.8.2.3.2.3v.5l.1.3v.6l-.2.3-.2.2-.3.3-.5.4-.4.2-.2.1-.5.2h-.4l-1 .2-1.2.3h-1.7l-.6-.3-.5-.3-.2-.2-.3-.4-.3-.4-.9-1.5-.3-.5-.4-.5-.3-.3-.3-.4-.3-.2-.6-.6-.7-.4-.8-.5-1-.6-2.3-1.3-.5-.2-.5-.1-.7-.2h-.6l-.8-.1-1.3-.1h-1.3l-3.8.2h-7.8l-2-.2-1-.1-1-.2-1-.2-.5-.2-.5-.2-.7-.3-.6-.4-.5-.5-.4-.6-.3-.6-.2-.6-.5-1.6-.5-1.3-.2-.6-.5-1.3-1.3-2.5-.7-1.6-.3-.7-.7-1.2-.3-.6-.3-.7-.2-.5-.2-.8v-.5l.2-1.4v-.8l-.1-.8-.2-.8-.2-.5-.2-.6-.2-.4-.3-.4-.2-.4-.3-.3-.5-.4-.4-.4-.8-.6-2-1.3-.6-.4-1.3-1-1.8-1.5-.7-.4-.5-.4-1.6-1-1.6-.9-3.7-2-1-.5-2.5-.9-.8-.4-.7-.5-.4-.6-.2-.4v-1.1l.1-2.2v-2l-.2-.7-.1-.6-.2-.5-.2-.4-.3-.5-.4-.6-.2-.2-.3-.3-.2-.1-.3-.1-.3-.1H32l-.3-.1h-.4l-.5.1-.3.1-.4.2-.5.3-1.5.8-.7.4-.3.2-.8.6-1.7 1.6-1.1.8-.6.4-.4.3-1 .5-.4.3-.5.1-.4.2-.8.1h-1.1l-.4-.2-.3-.3-.3-.3v-.3l.3-.3 1-.6 1.2-.7 2.1-1.2 1.4-.8.8-.5.8-.6.8-.6.9-.8.7-.8.5-.5.4-.4.6-1 .3-.5.2-.5v-.9l-.1-.2-.1-.1-.5-.4-.4-.2-.5-.2-.5-.1-.6-.2-3-.7-1.1-.3-1-.4-.7-.3-.6-.2-.6-.3-.5-.3-.4-.3-.3-.3-1-1.3-.3-.4-1-1-.5-.5-.3-.3-.3-.5-.2-.4-.3-.8v-.8l.2-.7.1-.5.2-.6.4-.8.4-1 .6-1 .4-.7.3-.4.2-.2.3-.1.5-.3.5-.1 1-.2.7-.1h1l2.4-.2h1l1-.2h.6l.7-.3.7-.3.6-.3.5-.3.6-.4.5-.4.4-.4.8-.7.5-.5.3-.4.4-.6.4-.6.2-.5.3-.7.3-1 .8-3.2.2-.8.2-.5.3-.8.5-.8.3-.5.5-.8.8-1.2 1.2-1.7.8-1.1.5-.6.7-.7.4-.3.7-.4.7-.4 1-.3 1.3-.4 2.5-.5 1-.3.6-.2.5-.2 1-.4.4-.3.6-.3.5-.4.7-.5.8-.7 1.3-1.3.7-.6 1.2-1 1.4-1 .5-.3.6-.3 1-.6 1-.4 1.4-.5 1.1-.4 1.2-.3 1-.2 1-.2h1.1l3.5-.2 3.9-.2h1.9l1-.2 1-.1.5-.1.5-.2.5-.1.4-.2.5-.3.4-.3.5-.3.3-.5.2-.3v-.2l.1-.1v-.4h-.1l-.2-.3-.2-.2-.4-.4-.4-.2-2.9-1.7-.4-.2-.7-.6-.5-.4-.4-.4-.3-.3-1.2-1.6-.6-.6-.8-.9-2.3-2-.7-.8-.7-.8-.8-1-.9-1.2-.4-.6-.6-.9-.3-.6-.4-.6-.6-1.2-.3-1-.4-.9-.2-.6-.1-.7-.2-1v-3.1l.1-1.6.1-1 .2-1 .2-.8.3-1 .3-.7.9-2.6.2-.6.2-.8.2-.6v-.7l.2-.7v-4.8l-.2-1-.6-3.7-.2-1.7-.1-1.2v-3.4l-.1-.9v-.7l-.2-.7-.1-.3-.2-.4v-.3l-.3-.4-.2-.3-.2-.2H65l.1-.1.1-.4.1-.5.4-3.7.1-.8.2-.6.2-.8.2-.6.3-.5.3-.5.3-.5.4-.5.3-.4.6-.5.7-.5 1.7-1 1.1-.8.7-.5.6-.5.3-.4.5-.6.3-.4.3-.5.2-.5.1-.7.1-.6v-2.3l-.1-.8-.3-1.5v-1.2l.1-.2v-.3l.2-.2.2-.3.3-.3.6-.5.4-.4.6-.4 1.5-1 1.4-.8.7-.4.8-.4.8-.3.6-.2.5-.1.4-.1h.5l.5-.1h.8l.7.2.6.2.3.1 1.8.8.8.4.5.1 1.7.4 1.4.4.5.1h1l.3-.1.2-.2.3-.2.2-.1.3-.4.4-.6.2-.3.3-.6.2-.5.7-1.7.9-2 .2-.6.2-.4.1-.6.2-.7v-1.7l-.2-.5-.2-.6-.2-.5-1-2v-.2l-.1-.1v-.3l.1-.4.2-.4.2-.5.3-.4.2-.3.3-.2h.1l.3-.2h1.1l.3.2.2.1.3.3.1.4v1.2l.1.4.2.5.3.3.4.4 1.2 1 .5.4.2.3.1.2.3.6.7 1.9.2.5.2.6.4.7.5.7.3.5 1 1.2 2 2.3.7.8.7.8.8.8.9.7.5.4.4.2.4.2.4.2.7.1h1.3l.7-.3.6-.2.6-.3.5-.4.5-.5.3-.6.2-.8v-.7l-.1-.8-.3-1.6v-1l.2-.4v-.2l.2-.1.3-.2.4-.2.4-.1h1.5l1.2.4h2.1l.3-.2.2-.1.3-.5.2-.3.1-.4v-.5l.3-2 .1-.6.1-.4.2-.4.4-.5.3-.4.5-.3.4-.2.5-.2h1.1l.7.2.6.4.5.6.6.6 1.4 1.8.8.7 2.5 2.4.9.9.5.6.8 1.2 1 1.4.6 1.1 1 2.1.4.7.5.9.7 1 .8 1.1.4.6.6.7.4.4.3.3.3.2.5.3.4.3.3.1 1.5.6.5.2.5.3.2.2.2.3.2.4.2.4v.4l.1.4v.8l-.1 1.6v2.3l.3.6.8 2.6.3 1v.3l.2.5v.4l-.1.7-.2.5-.4.4-.4.6-.5.4-.6.5-.9.5-1.1.7-.8.6-.7.5-.2.2-.5.5-.2.3-.3.5-.2.4-.1.3-.1.4-.1.4v1.6l.1.5.2.6.3.7.5.7.4.6.6.9 1.2 1.5.5.7.3.5.2.4.2.4.3 1 .8 2.2.7 2 .2.7.2.5v2.7l-.1.6-.2.6v.3l-.4.6-.4.5-.4.6-.7.8-.8.8-.7.7-5.7 5.4-1.1 1-.7.8-.8.8-.6.8-.5.8-.4.7-.1.6v.8l.2.3.3.4.5.4.6.3.5.2.5.2.5.2h.6l.7.2 1.8.3.8.2.6.1.6.2.6.2.9.4.6.4.1.2v.2"/></defs><g clip-path="url(#p7e36cb504b)"><use xlink:href="#m8e8a454e58" y="280.5" fill="#f4f4e2" stroke="#f4f4e2"/></g></g></g></g><defs><clipPath id="p7e36cb504b"><path d="M7.2 7.2h161.1v266.1H7.2z"/></clipPath></defs></svg>