<svg xmlns="http://www.w3.org/2000/svg" xmlns:xlink="http://www.w3.org/1999/xlink" width="422.6" height="374" viewBox="0 0 316.9 280.5"><defs><style>*{stroke-linejoin:round;stroke-linecap:butt}</style></defs><g id="figure_1"><path id="patch_1" fill="none" d="M0 280.5h317V0H0z"/><g id="axes_1"><g id="PatchCollection_1"><defs><path id="m9dfa84750b" stroke="#f4f4e2" d="m294-131.2.5 1 .4 1.3.4 1.6.3 1.3.2 1.4.2 2.2-.2 1.7-.4 1.2-.9 1.3-.7.7-1 .4-1 .2H290l-.8-.4-.7-.3-.4-.4-1.8-2-.7-.6-.5-.3-.8-.4-.8-.2h-1.9l-1.2.2-1.3.4-1.4.4-3.7 1.4-1.2.4-1.2.3h-2.9l-.8-.2-.7-.3-.5-.2-.8-.5-.6-.5-.2-.3-.4-.5-.3-.5-1.3-2.4-.7-1.3-.8-1.2-.7-1-.7-.7-.4-.3-.5-.3-1-.2-.7-.2H255l-3 .3-1.4.1-1.5.2-1.6.3-2.6.7-1 .3-.7.4-.9.6-.8.7-.8.6-1.2.7-1 .4-1.9.6-2 .5-2 .3-3.2.4-1.9.4-1.7.6-.8.4-1 .5-1.3.8-1.2.9-1 1-.7 1-.4 1v.7l.2.3.2.8.3.5.5.9 2 3.1.8 1.5.7 1.3.6 1.6.4 1 .3 1.1.2 1 .1 1-.1 1.3-.6 1.5-1 1.4-2.2 2.6-1.2 1.4-1 1.6-.5 1.7-.5 1.7-.6 3.8-.5 1.8-.7 1.7-.5.8-.7 1-.9.8-.7.7-2 1.5-5 4-1.2.7-1.9 1-2 1-2.2.9-6.7 2.3-2 .8-1.9.9-1.6 1-1.2 1-.6 1-.4 1-.2 1-.2 1v1l.2 1 .5 2.4.4 4.7v1.4l-.2 1.3-.4 1-.3.6-.5.7-.7 1-3.2 3.7-2 2.7-2 3-3.5 5.4-1 1.3-.7.9-.8.9-1 1-1.3 1.2-1.3 1.1-1.4 1-.6.4-1 .4-1.5.2h-1.3l-1.4-.3-1.1-.4-1.1-.4-1.2-.5-1.2-.6-1.8-1-1.2-.7-1.1-.8-1.3-.9-1.2-1-1.6-1.4-3.2-2.8-6.4-6-1.5-1.5-1.6-1.3-1.6-1.2-1.8-1.2-1.8-.8-1.9-.5-2-.1-1.1.1-1.3.3-1.3.3-1.4.4-5.9 1.9-2 .5-2.8.7-3 .5-2.4.3-2.4.1h-5.2l-3.4-.2-2-.2-2-.3-3.7-.7-5-1-1.6-.5-1.5-.7-1.2-1.1-1-1.4-2.7-4.2-.7-1.2-2-4-.3-.3-.7-1-.8-1-.7-.5-.8-.5-2.7-1.5-1-.6-1-.7-.6-.6-.7-.8-.7-1-3-4.2-2.6-3.5-1.1-1.5-1.5-1.6-.9-.8-1-.5-1-.5-.9-.3-1.5-.3-1.7-.2h-2.3l-.4.2-.2-.4-.4-1.2-.5-1.8-.3-1.6-.2-1.4v-1.1l.1-1.1.6-2 1-2 1.3-2 .9-1.1 4.6-5.4 1.9-2.2 1.3-1.7 1.3-2 .7-1.2.2-.6.4-1.1.3-1.2v-1.2l-.2-1-.4-1-.4-.8-.5-1-.7-1-1.7-2.3-6.1-7.9-1.2-1.6-.6-1-.5-.8-.6-1.3-.3-.9-.1-.9v-.8l.2-.7.3-.9.5-.8 1.3-2.2.6-1 .3-.8.2-.7.2-1.3v-1.2l-.2-1-.3-.8-.4-.8-.7-1-.4-.6-.9-.9-2.2-2.1-.6-.7-1-1-1.5-2.3-1-1.6-1-1.7-2.5-6-1-2-1-2-1.2-2-1.2-2-1.3-2-1.2-1.8-2.5-3.3-1-1.6-.7-1.5-.3-1.6.1-1.3.5-1.4.5-.9.6-.9 1.1-1.6 3.5-4.2 1-1.3.8-1.2.8-1.3.6-1.3.4-1.5.7-3 .5-1.8.6-1.7.6-1.7 1.4-3.7.4-1 .2-1 .1-1.1v-2l.3-3v-1l-.1-1.6-.6-3v-1.5l.4-.7.7-.2h.1l.7.3.6.4 3.9 3.3 2.3 2.1 3.7 3.2 1.6 1.7.4.3.5.3h.6l.4-.3.2-.3.3-.5.2-.6.2-1.2v-.9l-.1-2.2v-1l.3-.8.2-.7.6-.8 1-1 .8-.4.5-.2 7.5-3.2 2.2-1 2.4-1.3 1.6-.8 1.5-1 1.4-1 3.3-2.5 1.7-1.4 2.6-2.5 1.6-1.7 5-5.8 3-3 3.3-3.7L94-254l1.6-1.7 1.7-1.5 1.5-1.3.9-.8.7-.5.5-.2h.2l2.7-.6 2-.4h1.3l.8-.1h1.6l2 .5 2 .7 2 1 1.7 1.2 1.6 1.3 1.5 1.4 1.2 1.5 1 1.6.6 1.2 1.1 2.6 1 1.7 1 1.6 1.2 1.7 5.6 7.7 1.4 2 2.8 4.2 4.1 6.2 2.7 4 1.4 1.7 1.3 1.7 1 1 1.3 1 1.4.9 1.5.4h1.4l1.4-.4 1.7-.8 1.7-.9 3.4-2 1.8-1 1.7-.9 1.6-.5h1.6l1.6.4 1.4 1 1.4 1.2 1.2 1.5 1.2 1.7 1 2 .7 2 .3.9.4 1.9.2 1.3.4 2.6.4 3.7.4 5.1.1 1.7.2 1 .2.8.3 1 .4.6.4.3.3.1h.5l.9-.5.8-1 .8-1.3.5-1 .7-1.6 2.2-5.5.6-1.5.7-1.4.5-.8.6-.6.8-.6.6-.2h.8l.8.1.8.2 1.1.4 1.2.6 1.5.7 3.2 1.9 10.4 6.3 4.8 2.8 2.6 1.4 5.3 2.7 2.4 1.3 1.6.8 1.2.5 1.1.3h2l1.3-.3 1.3-.4 1-.2.9-.1h2.1l1.9.1 3.2.4 2 .3 2 .4 1.8.6 1 .5 1.5 1 1.2 1.2.8 1.2.6 1.4.1.7.1.6v1.4l-.1 2.5v1.5l.4 4v5.2l-.4 3.1v3.4l.4 1.5.7 1.4 1 1.3 1 .6.8.7 1.3.8 1.7 1 2 .9 2 .7 2 .6 1.4.3 1.4.1h1.4l1-.3 1-.3 1.5-.6 1.2-.6 2.3-1.3.7-.4.7-.3.8-.2 1.4.2 1.4.6 1.2 1 .3.4.7 1 1.3 2.1 2.3 4 2.3 4.2 1.5 2.8 1 2.2"/></defs><g clip-path="url(#p9f55c3e346)"><use xlink:href="#m9dfa84750b" y="280.5" fill="#f4f4e2" stroke="#f4f4e2"/></g></g></g></g><defs><clipPath id="p9f55c3e346"><path d="M7.2 7.2h302.5v266.1H7.2z"/></clipPath></defs></svg>