<svg xmlns="http://www.w3.org/2000/svg" xmlns:xlink="http://www.w3.org/1999/xlink" width="449.9" height="374" viewBox="0 0 337.4 280.5"><defs><style>*{stroke-linejoin:round;stroke-linecap:butt}</style></defs><g id="figure_1"><path id="patch_1" fill="none" d="M0 280.5h337.5V0H0z"/><g id="axes_1"><g id="PatchCollection_1"><defs><path id="me444bc2989" stroke="#f4f4e2" d="m295-202.8 1.9 7.9 1.2 5.4.7 3.6.7 3.5.3 1.8.2 1.7.2 1.9.1 1.7.4 6.3.2 1.9.2 1.3.2 1.2.2 1.4.3 1.4.3 1 .7 2.4.4 1.2.6 1.6.7 1.6.6 1.6.7 1.6 1.2 2.4 4.5 9.2 3 6.6.8 1.6.2.8v1l-.1 1-.4 1-.6 1-.5.5-.6.6-.7.5-1.9 1.4-.6.5-.6.5-.6.6-.6.7-1.8 2.3-.8 1-.6 1-.7 1.2-.6 1.4-1.2 2.8-.2.5-.4.5-.4.4-.7.5-.7.3-.7.3-2.4.7-.8.3-.9.4-.6.3-1.4.8-3.2 2.4-.7.5-1 .5-1.8.8-1 .5-4.8 2.9-1.5.9-.6.4-.6.3-.5.1-.5.2h-1.6l-.3-.1-.7-.3-.4-.2-.5-.4-.4-.5-.3-.6-.4-.7-.4-.9-.4-1.3-.7-2.5-.3-.8-.3-.7-.3-.5-.4-.7-.4-.4-.7-.8-.4-.4-.8-.6-1.5-1-1-.6-1.2-.5-1.2-.2h-1l-1.2.2-1 .3-1 .4-.8.3-.8.5-.7.5-.5.5-.8.6-.6.7-.5.6-.5.8-.7 1.2-.5 1.2-.2.8-.2 1.2-.1 1.2v2.4l.1 1.3.5 3.7.1 1.7v7l.2 1.2.2 1.1.3 1 .6 1.6.9 2.3.3 1 .3.8.1 1v.8l-.2.7-.4.8-.6.8-.6.6-1 .8-3.7 2.6-2.4 1.8-1.4 1.1-1.2 1-.6.6-.8.8-.7.8-.7 1-.4.6-.7 1.3-.4.9-.6 1.4-1.1 3.3-.4.8-.1.3-.3.5-.3.2-.4.4-.6.5-.9.4-.9.4-.8.3-2.1.6-3.9 1-2 .5-1 .1-1 .2-1.8.1h-1.5l-.6-.2-.4-.1-.3-.3-.4-.4-.6-.8-.8-.8-.8-.8-1.3-.9-1-.6-1.3-.8-1.3-.6-1.1-.5-1.7-.6-1-.3-1.2-.2-2.6-.4-2.8-.7-.6-.1h-1.3l-.5.2-.4.2-.3.2-.6.4-.6.6-.6 1-.6 1-.5 1.1-.3.8-1 2.7-.4 1.1-.6 1-.6 1-.9 1.1-.8 1-1.5 1.4-3.6 3.2-3.4 3.1-1.4 1.2-1 .7-.9.5-.8.5-2.2 1-8.8 4.3-2.3 1.2-1.4.8-1.3.8-3.7 2.2-1.6 1-.7.3-.6.2-.5.2h-.3l-.5.1-.1-.1-.1-.2v-1l.3-1 .4-1.2.5-1.6.4-1 .6-1.1 2-4.3.6-1.4.2-.7.4-1.2.1-1 .1-.8v-1.3l-.2-.7-.2-1.2-.3-1-.5-1.3-1.4-3.7-.4-1.2-.3-1.2-.2-1-.2-.9v-1.5l.2-1 .3-1.6.2-.8V-56l-.3-1.2-.6-1.2-.5-.9-.5-.9-2.2-3.3-2.2-3.6-1-1.6-.6-.8-.7-.8-.7-.7-.5-.3-.6-.3-1-.3h-.8l-1.2.1-1.2.3-.5.1-.6.2-.7.4-.6.2-.8.5-1.3.8-.7.4-.6.3-.6.3-.6.2-.6.2-.8.1h-.9l-.8-.1-.8-.2-.7-.3-.4-.3-.3-.2-.2-.3-.2-.3-.2-.3-.2-.3v-1.5l.2-.6.3-.7.4-.8 1.2-1.6 2-3 .6-.8.6-1 .4-.7.3-.8.1-1.2v-.9l-.3-1-.3-1-.5-.8-.5-1-2-3.6-.7-1.4-.8-1.7-.6-1.5-1-2.5-1.7-4.8-.3-1.1-.3-1.2-.2-1.4v-1.5l.3-1.2.4-1.3.5-1.5.2-.8.2-.8.1-.7v-1.8l-.3-1-.3-1-.3-1-.4-1-1.7-3.5-.5-1.4-.4-1.4-.1-1v-1.9l.2-.7.6-2.4.1-.8v-.6l-.1-.6-.3-.3-.3-.4-.8-.4-.5-.2-.6-.2h-2l-3 .3h-2l-.9-.2-.8-.2-1.2-.4-1.1-.4-2.9-1.2-.8-.3-1.8-.6-.8-.3-.9-.5-1.6-1.4-.8-.6-1-.6-1-.4-.6-.2-.7-.2-.8-.2h-2.5l-1.6.2-.7.1h-1l-.6-.1-.7-.3-.7-.5-.6-.7-.7-1-.7-1.1-2.3-4-.8-1.4-.8-1.3-.6-.8-1-1.2-.9-1.1-1.4-1.6-.6-.5-.7-.6-.8-.5-2.2-1.4-1-.5-.9-.5-.8-.3-.7-.2-1-.1h-3.1l-1.6-.3-2-.5-2-.3-.5-.2-1.9-.6-2.6-.8-.8-.3-.7-.4-1.4-.8-1.8-1.1-1.3-.8-1.4-.8-1-.4-.9-.3-.7-.2-1.6-.3-1.8-.6-.8-.2h-.8l-.8.1-.5.3-.3.3-.4.7-.2.2-.4.3h-.9l-.5-.2-.7-.3-.4-.3-.5-.5-1.2-1.1-.7-.7-.7-.5-.8-.6-1.7-1-.8-.6-.4-.3-.7-.7-.5-.8-.4-.8-.3-.7-.2-.6v-1.1l.2-1.1.4-1.7v-.7l.1-.8-.1-1-.3-1-.5-1-.6-1.2-.6-.8-.3-.6-.7-.7-.7-.6-.6-.5-1.6-1.2.5-.3.7-.4.8-.7.8-.7.7-.8 2.7-3.9.6-1 1-1.7.5-.8.2-.8v-.5l-.1-.5-.2-.6-.3-.7-.5-.7-1.4-1.5-.7-.8-.5-.7-.2-.6-.3-.6-.1-.7-.2-1.4-.5-2.8-.1-.9v-1.2l.1-.5.2-.5.2-.6.3-.6.6-.9.5-.6 1.8-2 .6-.6.8-1 .4-.7L32-229l.3-.6.4-.6.6-.7.6-.6 1.4-1.2 1.7-1.4 1.9-1.4.4-.3.7-.6 1-.6 1-.5.8-.5 1-.4 1-.4 1.2-.3 1.5-.3H49l1.7.2 1 .2 1 .3 1 .4.9.3.8.4.9.4 1.3.8 3.6 2.6 1.3.8 1.7 1.1 1 .7.6.2.6.3.9.3 1.7.5 1.1.3 1.6.2h1.9l.8-.2.7-.3 1.1-.5.9-.5 2.3-1.4 1-.6 1.8-1 .9-.4.8-.4.8-.2.8-.2.7-.1h1.2l.8.3.6.3.8.5.7.6.4.7.4.6.3.7.5 1.4.2.6.3.6.4.5.5.5.8.4 1.7.6.8.3h1.7l1-.2h1.2l1.1.1 1.2.4 2.6.8 1 .3.8.1.8.1h1.8l.6-.1 1-.5.6-.8.3-.7.2-.4.1-.7.2-2 .2-1.3.7-2.5.2-1.3.1-1.2-.1-1.2-.3-1.3-1.2-3.6-.3-1.2-.4-1.4-.2-.8-.1-.8-.1-1.2.1-1.2.2-.4.2-.5.2-.3.4-.5.4-.4.7-.5.5-.2.6-.2.6-.2 1-.1h1.2l.7.2 2.4.7.8.2.9.2h2.5l1-.3.8-.4.8-.4.7-.4 1-.7 1.4-1.3 1.3-1.3 4-4.5.4-.6.2-.1h.1l.5.8 7 10.8 1.4 2.2 1.7 2.4 1.6 2 2.2 2.7 1.3 1.8 1 1.2.7.7.6.6 1 .9 1 .5.7.4.6.2 1.4.5 1.8.5 2 .3 5 .7 2 .4 4.4.9 1.6.2.8.1h1l1-.1.7-.2.7-.2 1.8-.6 1-.2.6-.2.7-.1h1l1 .2 1.1.3 2.5 1 1.1.4 3.3 1.1 1.2.5.9.4.6.4 2.4 1.5 2.7 1.4.8.5.6.6.7.7 1.3 1.6.6.7.4.3.3.3.5.3 1 .3 1.2.1h1.2l1.3.2 1.2.3 1.2.4 1 .6.8.7.4.9v.9l-.2.7-.2.6-.6 1.2-2.2 3.8-.6 1-.5 1.3v.5l-.3.7v.6l-.1.8-.1 1.9v1.8l.1 3.1.3 3.2.2 2.4.2 1.4.3 1.3.4 1.8.3 1.1.6 1.3.4.7.4.6.5.7.6.7 1.8 1.8.7.7 1.2 1.4 1.4 1.6 2.3 3 5.3 7.2.7 1 .8 1 1 1 .5.4.4.3.4.3.6.3.7.2h.8l.8-.2.9-.3.8-.4 1.2-.8 1-.6 5.5-4.2 2-1.3 1-.6 1-.6 1.6-.8 2-.9 4.8-1.8 1.9-.7 1.2-.6 2-1 2.4-1.3 2.3-1.4 8.3-5.5 3.4-2.2 1.9-1.4 1.6-1.2.9-.7.8-.8 1.4-1.3 1.4-1.5 1.5-1.7 3.8-4.4 1.2-1.2 1-1 .4-.3.3-.1"/></defs><g clip-path="url(#p3c56ca8a46)"><use xlink:href="#me444bc2989" y="280.5" fill="#f4f4e2" stroke="#f4f4e2"/></g></g></g></g><defs><clipPath id="p3c56ca8a46"><path d="M7.2 7.2h323.1v266.1H7.2z"/></clipPath></defs></svg>