<svg xmlns="http://www.w3.org/2000/svg" xmlns:xlink="http://www.w3.org/1999/xlink" width="241.3" height="374" viewBox="0 0 181 280.5"><defs><style>*{stroke-linejoin:round;stroke-linecap:butt}</style></defs><g id="figure_1"><path id="patch_1" fill="none" d="M0 280.5h181V0H0z"/><g id="axes_1"><g id="PatchCollection_1"><defs><path id="m19e497214c" stroke="#f4f4e2" d="M115.7-239.3h.5l.8.1.3.1.7.2.3.2.6.3.8.5 1 .8.8.7.8 1 .6 1 .4.7.3.6.4.8.2.8.2.7.2 1v1.3l-.1.4-.2.7-.3.5-1 2-.2.6-.5 1-.7 2-.7 1.8-.7 1.7-1.4 2.7-.7 1.5-.3.7-.2.6-.2.9-.3 2.2-.2.8-.2.4-.2.5-.2.4-.4.6-.6.6-.4.3-.4.3-.8.4-.3.2-.9.3-2.2.6-1.2.4-.7.3-.7.3-.7.4-.5.3-.7.5-.3.3-.4.4-.4.6-.4.6-.1.3-.1.4v.5l-.1.4v1.1l.3 1 .7 2 .5 2 .5 1.8.2 1 .6 3.2.2.8v.4l.3.6.3.5 1 2 .5.7.4.4.2.2.5.3.3.2.5.1.8.3 1.7.2 1 .2.4.2.4.1.7.4.5.3.6.5 1.8 1.8.3.2 1 .8 1 .7 1.3.6 2.5 1.4 1.2.7 1.2.8 1.1.8 1.1 1 1 .9 1 1 1 1 3 3.1 3 3.3 1.8 2.1 1.9 2.3.8 1.1.9 1.2 1.6 2.3 4.5 6.9 2 3 .6 1 .3.7.2.7.1.6v.5l.1.5v.8l-.2 1-.2 1-.6 2.6-.1.6-.1.7v2.5l.1.7.2.7.3 1 .4 1 .5.9.6.8 1.5 2.4 1 1.7.9 1.4.4.8.1.4v.2l.4.6.5.8.5 1 .4 1 .3.7.3 1 .2 1 .1.8.1 1v1.4l-.3 5.4v2.7l.1 1.8.1 1 .1.8.3 1.5.1.8.2.7.3.7.2.7.3.8.4.8.4.6.4.7.5.6 1.3 1.6.3.5.4.7.1.5v.4l-.2.6-.1.4-.4.7-.2.4-.3.4-.3.3-.4.3-.3.2-.6.3-.5.2-2.8.8-.8.2-1 .4-.5.3-.7.4-.3.3-.3.3-.1.1-.4.5v.2l-.2.4v.8l.3 1v1.3l-.1.6-.3.7-.3.5-.7.7-.8.8-2.5 2.1-1.3 1.3-.5.6-.6.6-.4.5-.4.6-.5.9-.2.5-.3.7-.2.7-.1.7-.1.7v.8l-.3 3.6v1.6l-.2.9-.2 1.5-.2 1-.6 2-.1.9v.7l-.2.5-.3.7-.5.8-.3.3-.3.3-.5.5-.7.3-.9.4-1 .2h-2.1l-.8-.3-.8-.2-1-.5L133-44l-.5-.2-.3-.2-.6-.1h-1.3l-.7.2-.4.1-.5.2-.7.2-.6.3-1 .5-.5.3-.7.5-.5.4-.7.5-.6.8-.6.7-.6 1.2-.3.7-1.2 3-.5 1.4-.4.6-.4.8-.5.7-.4.4-.3.4-.5.5-.5.2h-.3l-.3.1h-.4l-1-.1h-1.5l-.9.2-.8.2-.9.4-1 .6-1 .7-1 .7-.9.8-.8.8-1.5 1.5-.8.6-.7.4-.4.2-.5.2-1.1.2H99l-3-.3h-3l-1 .3-1.2.2-3 .8-5 1.4-1 .3-1.3.3h-.7l-.8.2h-2.5l-.9-.2-1-.2-.9-.3-.7-.2-.5-.2-1-.5-2.3-1.4-1-.4-.6-.2-.6-.1-.6-.1-4-.5-2-.3-1.8-.4-.8-.2-.8-.3-.8-.4-.6-.3-.7-.4-1.2-.9-3.2-2.1-.5-.4-1.1-.6-.7-.3-.8-.3-1-.3-.8-.2-1.1-.1h-2.1l-.8.2-.4.1-.4.2-.5.2-.3.3-.6.7-.2.4-.9 1.8-.2.4-.5.6-.4.4-.5.3-.7.3-.9.2-.7.2-.7.1h-.9l-.9.1H31l-1-.2-1-.2-.8-.3-.8-.4-1-.5-.5-.3-1.3-.9-1.8-1.2-.8-.6-.4-.3-.3-.3-.3-.4-.2-.3v-.4l-.1-.3.2-.8.4-.8.5-.6 1.6-2 .5-.6.5-.7.5-1 .7-1.2 1.2-2.9.3-.6.4-.7 1.5-3 .5-1.2.6-1.4.8-2.2.5-1.4.2-1 .2-.6.5-2.6.3-2 .8-3.2.3-1 .2-.7.5-.9.5-.8.5-.7.8-.9.6-.6.8-.7.8-.6 2.2-1.6.8-.7.5-.5.5-.5.4-.7.1-.5.2-.6V-75l-.2-.6-.3-.5-.1-.3-.4-.5-.4-.5-2.1-2.4-.6-.7-.5-.7-.4-.6-.2-.6-.3-.6-.2-.7-.2-.9-.4-1.7-.4-3-.5-2.8-.4-2.7-.3-1.9-.2-.7v-1.2l.1-.3.2-.4.2-.2h.3v-.1l.1-.4v-3.1l-.2-1.1-.2-1-.1-.8-.3-1-.2-.7-.2-.6-.3-.8-.6-1-.7-.6-.5-.4-.5-.3-.7-.3-.6-.2-.7-.2-2.3-.4-1-.3-.8-.2-.4-.2-.4-.2-.4-.3-.4-.5-.2-.4-.2-.4-.3-.6-.3-1.2-.2-.8-.5-2.3-.3-1.2-.3-.8-.5-1-1.8-3.8-.6-1.5-.3-.8-.3-.9-.3-1-.2-1-.2-1-.1-1-.1-1-.2-1.5-.2-3.7v-1.1l-.3-2.2-.1-1.1-.5-2.6-.3-2-.6-2.3-.3-1-.4-1.3v-.6h.6l1.5.9 1 .4 1 .4.9.3.6.1.7.1h1.6l1.1-.3.6-.2.6-.2.9-.6.8-.7.7-.8.4-.8.2-.5.1-.5.2-.9.3-3 .1-.7.1-.8.3-1.3.4-1.3.2-.8.3-.7.5-1.3.3-.8.4-.7.5-1 .5-.8.6-1 .6-.7.5-.7.9-1 1.2-1 .6-.8.3-.3.2-.6.1-.2.1-.5.1-.7v-2.7l.1-1 .1-1.1.2-.8.2-.6.2-.9.5-1.3.7-1.7.8-1.8.5-1 1-1.9 2.2-3.4 1.3-2.2.4-.7.7-1 .5-.5.9-.9.7-.7.7-.5 2.1-1.6.7-.5.4-.4.6-.6.4-.6.3-.5.3-.6v-.3l.2-.5v-.9l-.2-.6-.2-.6-.5-.7-.4-.4-.4-.3-.3-.2-.7-.3-.6-.2-.6-.2-2.3-.5-.6-.2-.5-.2-.4-.3-.3-.2-.2-.3v-1.2l.2-.5.2-.5.3-.4.3-.3.3-.3.5-.5.7-.4.9-.4 2.3-.8.5-.2.8-.4.7-.3.6-.4.3-.3.4-.4.3-.3.4-.6.3-.5.3-.7.1-.5.1-.5v-.4l-.1-1.1-.4-1.1-.5-1.1-.7-1.2-.8-1.1-2.4-3.6-.8-1.3-.7-1.3-.5-1.3-.4-1-.2-1.1-.7-3.3-.3-1-.4-1.2-.4-1-.3-.5-.5-.8-.8-1-.5-.6-.6-.5-.7-.6-.5-.4-.3-.2h-.1v-.1h.8l.8.1 2.4.7 1.2.2.7.1 1.3.2 3.4.4h.9l.8.1h1.4l.7-.2.7-.2.7-.2.6-.3 1.7-.7.8-.4 1-.3 1.1-.3.6-.1h4l.8.1h.6l.5-.1.6-.2.8-.3 1.2-.5 1.6-.8 3-1.6 1.7-.8.3-.2.5-.3.4-.3.6-.6.6-.6.5-.5.5-.5.4-.3.5-.3.5-.3.5-.1.8-.2h1.4l.6.2.5.2 1 .5.8.6.5.6.4.7.4.7.2.7.7 2 .4 1 .4.5.3.3.5.3.6.3h.5l.4.1 1.1.1h3l1.1.2.6.1.8.2 1 .4.9.3 1.3.6 3.8 1.7.5.3.7.5.9.7.7.9.8 1 .7 1 .7 1.1.6 1.1 1.5 2.7.1.2v.1"/></defs><g clip-path="url(#p8709488ba6)"><use xlink:href="#m19e497214c" y="280.5" fill="#f4f4e2" stroke="#f4f4e2"/></g></g></g></g><defs><clipPath id="p8709488ba6"><path d="M7.2 7.2h166.6v266.1H7.2z"/></clipPath></defs></svg>