<svg xmlns="http://www.w3.org/2000/svg" xmlns:xlink="http://www.w3.org/1999/xlink" width="486.8" height="374" viewBox="0 0 365.1 280.5"><defs><style>*{stroke-linejoin:round;stroke-linecap:butt}</style></defs><g id="figure_1"><path id="patch_1" fill="none" d="M0 280.5h365.1V0H0z"/><g id="axes_1"><g id="PatchCollection_1"><defs><path id="me7d5a017ca" stroke="#0c1321" d="M273.4-251.7v.6l.2.5.4.7.7.7.8.5 1.2.4 1.6.4 1.1.2 3 .2 2.8.6 1 .3 1 .4 1 .6 1 .7.8.8 1.2 1.4 1.1 1.6 3.4 5.4 3 4.6 2.4 4 1.1 1.8 1.6 3 1 1.8 1.7 4.3.7 1.9 1.7 5 3.7 11.6 1.7 4.9 1.4 3.6 1.2 2.7 4 8.8 1.2 2.8.8 2 .9 2.8 2.6 9.5.9 2.7 1 3 1.7 3.9 1.3 2.6 1 1.8 1.5 2.7 1.6 2.5 1 1.4 1 1.3 1.2 1.3.5.4 1 .7.8.3.7.2.4-.2-1 12-.4 3.6-.6 4-1 4.6-3.5 17.4-1.8 8.2-5.1 22.9-1 4.2-.6 4.3-.4 3.2-.1 2v3l.6 7.6v6l-.5-.6-1-.8-1-.6-.8-.3h-1.5l-4.2 1.3-1 .3-.8.4-3.7 2.3-1.9 1-1.7 1-1.5.6-8.1 2.8-4.9 1.5-3.2 1-1.8.8-.9.4-2 1.3-1.1.5-.9.4-.8.2h-2l-1.3-.2-1.8-.5-3.7-1.1-1.4-.3h-1.4l-3.4.3H267l-5-.4h-.8l-.8.3-.5.2-.6.3-1 .8-.4.5-.1.3-1.2-3.4-1.3-3.2-.4-.7-.7-1-1-1.4-.7-.6-.8-.6-1.3-.8-1.5-1-3-1.5-5-2.4-2.8-1.4-1.2-.8-1.5-1-1.7-1.4-1.7-1.7-1.8-2.4-1.4-2.2-3-5.2-1-1.5-1.3-1.4-1.1-1-1.7-1.3-2.4-1.5-5.2-3-3-1.6-3.6-1.7-2.2-1-1.6-.5-1.8-.4h-3.7l-1.4.4-1.2.4-1.6.7-2.1 1.2-1.6 1-2.4 1.8-6.6 5.2-11 9.8-1.4 1.3-2.3 1.8-3 2-2.1 1.3-1.4.7-2.7 1.3-6 2.7-1.8.8-1 .3-1 .3-1 .1-1.2.1h-1.1l-2-.1-1-.2-3.8-.8-2-.3h-1l-1.3.1-1.3.2-2.2.5-2.5.7-2 .6-7.8 2.7-1.3.4-1.4.3-1.6.3-1.7.1H109l-2.3-.4-2-.6-1.3-.4-2.3-1-8.4-4.2-2.5-1.4-3.9-2.3-1.5-.8-1.4-.7-1.7-.7-6.2-2.3-1.8-.8-1.4-.8-1.3-.8-1.4-1-3.7-2.7-2.1-1.5-4.1-2.4-.7-.3-.4-.1h-.2v-.3l-.4-.8-1-2.3-1-1.6-1-1.5-1-1.5-1-1.2-1.4-1.4-3-3-2.7-2.5-3.7-4.3-3.3-3.5-3.6-4-1-1.2-3-2.7-1.2-1.2-.9-1-.7-1.3L28-91l-.1-1.2v-3.2l.2-1.3.4-1.6 1.4-4.5.7-2.3.9-4 .3-1.8v-1.4l.2-2.4-.3-10.3-.2-2-.5-2-1.6-5.4-1-2.7-.5-.9-.6-1-.8-1-2-2.3-.7-1-.4-.8-.2-.5v-1.1l.2-.6.3-.3.6-.8 3.3-2.6.7-.8.4-.8v-.5l.1-.2.2-.2 1-.8 1.2-.9 1.7-1 2-1 5.3-2.7 8.5-4.5 12-7.3 3-2.3 8-6.2 3-2 6-4.1 4.4-3.2 9.8-6.6 1.8-1.3 1.1-1 1.1-1.1 1.3-1.7.9-1.3.8-1.4.8-1.6.8-2 .5-1.5.9-3 1-2.3 1.4-2.9 4.7-8.2 2-3 1.1-1.5 1.3-1.4 1.2-1.4 1.5-1.4 2-1.8.5-.3-.2-.1.2-.5.8-.9 1.5-1.2 2-1.4 2.3-1.3 2.8-1.7 6.3-3.2 6.4-3 5.3-2.4 6.3-2.7 4.6-1.9 4.4-1.6 2.2-.8 4.2-1.3 2.1-.5 3.7-.8 3.6-.5 2.3-.2h6.1l1.7.2 1.6.2 1.3.3 2.5.6 2 .7 1.8.6 6.7 3 2.3 1.2 3.6 2.2 1.5.9 1.4.6 1.3.5 1.9.3 1.5.2h1.8l3-.3 6.8-.8 2.7-.1h2.5l2.2.2 1.8.2 4 .7 6.2 1.4 1.6.3 2 .2 2.2.2 2.7-.1 2.5-.3 1.9-.4 3.1-.8 3.5-1.1 1.8-.7 1.5-.6"/></defs><g clip-path="url(#p979cb005e9)"><use xlink:href="#me7d5a017ca" y="280.5" fill="#0c1321" stroke="#0c1321"/></g></g></g></g><defs><clipPath id="p979cb005e9"><path d="M7.2 7.2h350.7v266.1H7.2z"/></clipPath></defs></svg>