<svg xmlns="http://www.w3.org/2000/svg" xmlns:xlink="http://www.w3.org/1999/xlink" width="479.2" height="374" viewBox="0 0 359.4 280.5"><defs><style>*{stroke-linejoin:round;stroke-linecap:butt}</style></defs><g id="figure_1"><path id="patch_1" fill="none" d="M0 280.5h359.4V0H0z"/><g id="axes_1"><g id="PatchCollection_1"><defs><path id="mdb51839d4b" stroke="#0c1321" d="m193.1-245.7-.3.2-.7.4-.9.7-.8 1-.5 1-.3 1.3-.1.8v3.1l.4 4.1v3.2l-.2 1.1-.7 2.4-.4 1.3v2.6l.2 1.1 1 3.3.5 1.9.2 1.5v2.9l-.2 1.2-.3 1.2-.5 1.5-1 2.9-.6 2.1-.4 2-.1 1.9v3.4l.4 2 .5 1.9.7 1.8.7 1.7 1 1.5 1 1 1.2.7.5.2h1l.6-.1 1-.3 1-.4 1.3-.6 4-2 1.4-.6 1.3-.4 1.8-.6 4.2-1 2-.5 2.4-.3 1.6-.1h2l1 .2.9.2.9.3 1 .4 2 1 1.4.8 1.7 1 1.6 1 1.4 1.2 1.1 1 .8 1 1.4 1.6.8 1.3.8 1.3 2.3 4 1.2 2 1.3 1.7 1.7 2 1 1.5.8 1.2.7 1.3.4.9.5 1.3.7 2.6.4 1.1.6 1 .5.7.6.7 1.3.9 1.1.7 5.7 3.4 1.3.6.6.2 1.4.3 1.4.1h3.4l.9.3.8.5 1 .8.6.7.7.7 1.1 1.4 2.2 2.8 1.2 1.5.8.8.9.8.9.6.9.4 1 .2h.8l.5-.1h.1l-.2.5-.8.5-1.2.5-4 1.6-1 .4-1.4.8-.9.5-.6.4-1.4 1.2-1.5 1.4-.7.7-1.7 2-1.5 1.7-.7.8-.4.4-1.7 2.8-.2.3-.1.4v1.1l.3.5 1.2 1.5.3.5.3.5.2.7.3 1.4.3.6.3.6.6.5.6.5 1 .5 1.9.7 5 1.5 4.6 1.8 2 .7 1.7.3 1.6.3h1.3l4.2.3h1.4l1.1.2 1.5.4 1.3.3 1.4.5 1.2.4 1.1.5 1 .5 1.7 1 4.6 3.3 4.9 3 1 .8 1 .8.9.7.7.8.9 1.1 1 1.6.7 1.4.4.8.4 1.4 1.2 3.9 1.7 4.8.5 1.2.6 1.4.5 1 .6 1 1.8 2.8 1.6 2.2 1.4 1.7 2.2 2.6 3.7 4.2 1.5 1.8.8.9.7 1 .8 1.2.5 1 .4.7.4 1 .3 1 .2 1 .1 1v1l-.1.6-.2.2h-1.6l-.7.3-1 .4-.8.6-.8.6-1 1-.8.8-1 1.5-1.5 2.3-1.1 1.5-.4.4-.8.7-.9.7-.8.4-.8.2H321l-1.7-.7-1-.2h-.5l-.8.2-.8.3-1 .5-1.4.9-1.6 1.3-2.3 2-2 1.4-.4.5-.5.6-.2.6-.2.7-.2.6-.2 2.3-.2.8-.3 1-.4 1-.6.9-.6 1-1.2 1.5-.4.5-.2.2L276.4-39l-8.4-6.2-14.3-10.5-4-2.8-1.9-1.3-1.9-1.3-1.6-1-1.5-.8-1.5-.8-1.3-.5-1.2-.4-1-.1h-1l-1 .1-.9.3-1 .6-.4.3-1 .8-.7.9-1 1.3-.9 1.6-.3.7-.4 1.3-.4 2-.1 1.2v3.2l.2 2.3.9 7 .1 1.8v4.1l-.2 1.4-.1.8-.3.7-.4 1.1-.6 1-.8 1-.6.8-1 1.2-1.4 1.1-1.1 1-4.4 3.4-1 .7-.8.5-.5.3-.8.4-.8.3h-.6l-1.3.2h-1.3l-1.1-.1-1.8-.2-1.7-.4-1.2-.4-1.6-.7-4-1.9-2.2-1-1.3-.4-1.3-.3-2.3-.4-1-.3-.7-.2-.7-.3-.6-.3-.6-.4-1-1-1.4-1.5-1.4-1.7-1.2-1.7-1-1.6-.5-1-2.6-5-.8-1.5-1-1.6-1.2-1.7-2-2.6-3.2-3.5-1.3-1.6-.6-.5-1-1-1-.6-.6-.3-1.6-.3h-1.8l-2 .4-2 .5-2 .7-2.2.8-7 2.6-9.2 3.4-3.5 1.3-2.9 1.2-2 1-2 1-5.6 3-1.6.9-2.3 1-1 .5-2.1 1.1-3 2.1-1.3.8-.6.3-.5.2-.7.2h-.8l-1.2-.2-1.1-.6-1-.8-1-1-1.7-2-1-1-1-.5-1-.5-1.8-.5-2-.3H96l-1.6.1-4.1.9-1.7.2-4.8.2h-1.3L81-38l-1 .2-2 .5-1.9.8-4.3 1.9-1.4.6-1 .3-1.1.3-1 .1h-1l-.8-.1-1.2-.6-1.2-1-.4-.4-.3-.4-.3-.5-.3-.7-.3-1.1-.2-1.2v-4.6l-.2-1.5-.3-1.5-.2-1-.5-1.5-.5-1.4-.8-1.6-1.3-2.2-.6-1.2-.5-1.4-.1-.6v-.1l.2-2.7v-4.3l-.2-.9-.2-.7-.2-.6-.3-.8-.5-1-.6-.7-.7-.6-.5-.4-.6-.4-.9-.4-4.3-1.8-2.5-1-2.4-.6-2.2-.5-1.7-.3L29-77l-1.3-.2-1.3-.4-1-.5-.2-.1-.5-.5-.3-.4-.5-.6-.3-.5-.2-.7-.3-.7v-.6l-.1-.6v-1.5l1.7-8.8.4-1.9.5-1.7 1.2-3.7.7-1.9.8-1.8 1-1.6 2.7-3.5 2.8-4 3-4 1.5-2.2.9-1.6.8-1.8.2-.7v-.7h-.2.1v-.4l-.3-1-1-2-1-2-.5-1-1.1-1.7-1.4-2-2.7-3.4-.8-1.2-.7-1-.6-1.1-.3-.9-.3-.6-.1-.7-.1-.8v-1.7l.1-.5.2-.8.6-1.3 1.6-2.8 1-2 .7-2 .5-1.7.3-1.9.2-1.6v-1.5L35-165v-1.8l.2-.5v-.3l.4-.5.3-.3.5-.4.6-.3.6-.1.7-.1h1l.5.1.7.3 1 .5 4.9 2.9 2.6 1.3 1.1.5 1.2.3h.9l1.4-.2.8-.2 1-.3 1.3-.5 2.1-1 1.6-1 4.1-3 2.7-1.8 1-.6 3.3-1.7.7-.5.7-.5.5-.5.4-.7.2-.7v-.6l-.4-1-.6-.8-1-1-1.3-.9-2.5-1.8-1.6-1.3-3.4-3.5-.5-.6-.3-.6-.2-.6v-1l.2-.6.2-.4.3-.6.8-1 1-1 2.9-2.5 1.6-1.5.8-1 1-1.2.8-1.1 1-1.8.8-1.4 1.5-3 .8-1.6.4-.6.5-.7.3-.3.8-.7 1.2-.7 1.6-.6 1.3-.3 1-.1h1.6l3.7.6h2.4l2.8-.5h1l2-.2h1.5l3 .3 4.8.6h1.5l.8-.2.3-.1.8-.4.6-.4.4-.3.7-.7.6-.7.5-.7.6-.9 1-1.6 1.4-2.5.7-1.3.6-1.3.8-2.2.3-1.4.1-1 .1-.8v-2.4l-.2-1.6-.3-1.5-.2-.8-.4-1.1-.7-1.8-.6-1.1-.7-1.4-1.5-2.4-3.7-5.5-.4-.7v-.2l.1.2.1.1.2.1.4.2.8.1h1.4l1.6-.1 1.2-.3 2-.5 1.3-.5.9-.4 1.7-.8 1.4-.8 1.1-.7 2-1.5 3.4-2.8 1.1-.9 1.7-1.2 1.1-.6 1-.5.7-.3.6-.2 1-.3 1.2-.2h.6l1.4-.1h.8l1 .2.8.2 1.3.5.5.2 1 .5 1 .7.7.5 1 1 .7.7.7.8 1.2 1.6 2.3 3.4 1 1.2.9 1.2 1 1 .9 1 .5.3 1 .8.6.3 1 .5 1.5.6 1.3.3.7.2h3l2-.2 1-.2 1-.3 1.7-.5 5.2-2 2.5-.8 1.2-.3 1.2-.3 2-.2h1.4l1.8.1 1.7.4 1.5.5 1.5.7 2 1"/></defs><g clip-path="url(#p9413276106)"><use xlink:href="#mdb51839d4b" y="280.5" fill="#0c1321" stroke="#0c1321"/></g></g></g></g><defs><clipPath id="p9413276106"><path d="M7.2 7.2h345v266.1H7.2z"/></clipPath></defs></svg>