<svg xmlns="http://www.w3.org/2000/svg" xmlns:xlink="http://www.w3.org/1999/xlink" width="371.3" height="374" viewBox="0 0 278.5 280.5"><defs><style>*{stroke-linejoin:round;stroke-linecap:butt}</style></defs><g id="figure_1"><path id="patch_1" fill="none" d="M0 280.5h278.5V0H0z"/><g id="axes_1"><g id="PatchCollection_1"><defs><path id="m7074765651" stroke="#0c1321" d="m229.6-214-.4.2-.4.5-.4.7-.4.8-.5 1.7-.3 1.6v1l.2 1.4.4 1.4 1 2.5.7 1.1 1.3 1.8 1.6 1.8 5.8 6 6.7 7.2 1.7 2 1 1.4 1 1.9 1 1.8.8 2 2.8 9 4 11.7.6 2.2.8 3 .5 2.7.1 1.8v1.9l-.1 3-.2 1.6-.4 2-1 3.3-.6 2.2-1.6 4.4-1 3-1.7 4-.9 2-1.8 3.8-.8 1.5-.4.7-2.4 3.3-1 1.2-.6.6-1.7 1.4-1.9 1.4-2 1.1-2 .8-1.8.4-1.7.2h-3.7l-3.9-.5-2-.2h-2.4l-2.7.1-2.3.2-2.4.2-1.5.3-2.7.7-2.5.9-2.4 1.2-1.3.8-1 .6-1.3 1.1-1.3 1.2-2.2 2.2-4 4.5-1.5 1.7-.9 1.2-1.1 2-1 2.4-.4 1.7-.6 3.5-.6 4.5-.8 4.8-.3 2.8v2.5l.1 1.8.2 2.2.3 2 .8 4.9 1.2 6 .6 3 .3 1v.2l-.6.4-1.3.6-3 .9-1.6.5-1.1.5-2 1-2.3 1.7-2 1.5-2.2 2-.7.7-.5.6-.4.7-.2 1.1v1.7l-.2.6-.2.7-.7.9-.8.6-.9.5-1 .5-.9.3-1.5.5-2.3.5-2.2.3-1.4.1h-1.4l-5-.5h-1.5l-1.6.2-3.2.7-1.4.2-2 .2h-3l-2-.3-4.6-1-4.6-1-6.4-1.3-1.8-.3-3-.3-3.2-.2h-4.7l-8 .1h-6l-2.4.2v-.2l.2-.6.6-1.8 5.9-13.9 1.8-4.7 1.6-4 .6-2 .7-2.2.6-2.7.1-1.4v-1.4l-.2-1.8-.7-1.7-1.1-1.5-1.4-1.5-1.6-1.4-1.8-1.3-3.4-2.5-1.7-1.3-1.4-1.6-1.4-2.1-1-2.5-.7-2.8-.5-2.9-.5-3L88-97.5l-.6-4.4-.7-4.2-.9-4.3-.8-3-1.1-3-1.3-3-1.4-3-1.5-3-1.6-3-1.7-3-1.5-2.5-1.7-2.4-1.7-2.3-1.8-2.2-2-1.9-2-1.7-2-1.3-2.4-1.2-3.2-1.5-7.6-3-5.4-2.1-2.6-1-2.7-.7-2.7-.7-2.7-.7-6.9-1.4-1.9-.6-1.7-.8-1.5-1-.8-.6-1-1-.7-1-.5-1.2-.2-1.4.3-1.7.8-1.7 1.2-1.7 2-2.4 1.7-2 4.8-5.1 2.1-2.4 2-2.5 1.3-2.1 1.2-2.3.9-2.2.5-2.3.2-2.5v-1.6l-.4-2-.2-1.3-.5-2-2.1-6.5-.7-2.6-.4-1.6-.2-1.8-.2-1.2v-4.9l.3-3.4.5-2.8 1.2-6.3.4-2.6.1-2-.1-2.3-.2-1-.3-1.4-.4-1.2-.4-.9-.5-1-.8-1-.5-.6-.3-.2-.3-.1h.6l.7.3 4 2.4 2.2 1.5 3.6 2.7 1.3 1 1.4.8 1.3.7 1.8.8 6.2 2.3 1.7.7 1.4.6 1.4.8 3.8 2.3 2.5 1.5 8.3 4 2.3 1 1.2.5 2.1.6 2.3.3h3.1l1.7-.3 1.3-.3 1.3-.5 7.6-2.6 2.1-.6 2.4-.7 2.2-.5 1.3-.2h2.3l2 .2 3.7.8 1 .2 2 .1h2.2l1.1-.2.9-.2 1-.4 2-.8 5.7-2.6 2.7-1.3 1.4-.7 2.1-1.3 3-2 2.2-1.8 1.4-1.2 10.9-9.7 6.5-5.2 2.4-1.8 1.5-1 2.2-1.2 1.5-.7 1.3-.4 1.3-.3 1.1-.1h2.6l1.8.5 1.5.5 2.2 1 3.5 1.6 3 1.7 5.2 3 2.4 1.4 1.6 1.2 1.1 1 1.3 1.5 1 1.4 3 5.2 1.4 2.2 1.8 2.3 1.6 1.7 1.7 1.4 1.5 1 1.2.7 2.7 1.5 5 2.3 3 1.6 1.4.9 1.4.8.7.6.7.6 1 1.3.7 1 .4.8 1.3 3 1.1 3.5"/></defs><g clip-path="url(#p35f7d2296a)"><use xlink:href="#m7074765651" y="280.5" fill="#0c1321" stroke="#0c1321"/></g></g></g></g><defs><clipPath id="p35f7d2296a"><path d="M7.2 7.2h264.1v266.1H7.2z"/></clipPath></defs></svg>