<svg xmlns="http://www.w3.org/2000/svg" xmlns:xlink="http://www.w3.org/1999/xlink" width="308.4" height="374" viewBox="0 0 231.3 280.5"><defs><style>*{stroke-linejoin:round;stroke-linecap:butt}</style></defs><g id="figure_1"><path id="patch_1" fill="none" d="M0 280.5h231.3V0H0z"/><g id="axes_1"><g id="PatchCollection_1"><defs><path id="macfb04298b" stroke="#0c1321" d="m178.4-93.1-1.1 2-1.2 2.6-4.2 8.5-2.9 6.1L165-65l-2.7 5.7-1.3 2.9-1.2 2.9-.6 1.5-.8 2-1.4 4.3-3.3 10-5.3 16.5-15.5-2.3-4.6-.8-2.9-.5-2.3-.5-3-.6-3.1-.8-6.2-1.7-2.2-.5-1.4-.3-1.4-.3-1.3-.2h-3.8l-1.2.2-1.4.4-1.5.4-1.4.4-5.8 2.1-1.5.5-1.4.4-1.4.3-1.4.2h-1.8L81-23l-.6-.2H80l-.6-.3-.6-.2-.5-.3-.8-.4-1.2-.8-.9-.7-1-1-.8-1-1-1.1-1-1.5-1.2-1.7-.6-1.1-.4-.9-.1-.4-.2-.6v-1.5l.1-.7.3-.4v-.4l.4-1 3.7-11.5 1-3.4.5-1.7.4-1.6.3-1.6.3-1.5.1-1.5v-1.5l-.3-1.3-.5-1.2-.7-1.1-.8-1-1-1.1-1-1-1.1-.9-1.2-.9-1.2-.8-1.4-.8-1.4-.7-1.4-.7-1.5-.7-3-1.3-10.3-4.3-6.6-3-7.4-3.1-8.4-3.7-4.7-2-5.2-2.1.6-.8 32.1-40.3 3-3.7 2.2-2.4 1.1-1.2 1.1-1 2.3-2.2 3.6-3.1 6-5.2 18.4-15.3 2.4-2 2.4-2.1 1.9-1.8 1.7-1.7 1.4-1.6 2-2.1 1.1-1.4.5-.8.4-.6.3-.7.3-.6.3-1 .3-1 1.3-5 .2-1 .3-.8.4-.8.3-.6.4-.7 1.5-2.7.4-.7.3-.6.3-.7.2-.6.2-.7.2-1.2v-.6l.1-.6v-1.2l-.1-2.5-.1-1v-.7l-.3-1-.3-1.4-1.2-4-.3-1.3-.2-1.2v-.7l-.2-1v-1l.1-.8.1-1.2.2-1 .2-1 .3-1 .5-1.7.6-1.6.6-1.4.4-1 .3-.5.5-.8.4-.6 1-1.4 3.2-3.6 1-1.4.9-1.2.7-1 2.6-4.1 1.5-2.2.5-.8.5-.6 1.2-1.3 1-1 .6-.5 1.5-1.3 3.5-2.6 1.7-1.2 2-1.3.8-.4.4-.2.6-.2.6-.1h.5l.5-.1h.8l.8.2.6.3.4.3.3.3.3.3.2.3.2.4.2.6.2.7v.4l.1 1.4v8.1l.1.6.3 1 .2.6.4 1 .3.5.7 1.4 2 3.2 1.4 2 .8 1 1 1.2.5.5.4.4.6.4 1 .5 1 .3.5.1 1.4.2 1.4.2h7.7l11-.4h7.7l1.2.2 1.1.3.7.3.4.2.5.4.3.2.6.6.4.6.7 1 .6 1.1.8 1.5 1.2 2.8 1.2 3 4.8 12 3.7 9 7.3 17.1 5 11.7.6 1.3.5 1.3.4 1.3.4 1.4.3 1.3.1 1.3v1.3l-.2 1.3-.5 1.4-.5 1.3-.7 1.4-.7 1.3-.8 1.3-1.7 2.7-2.4 3.8-1.6 2.6-2 3.3-1.5 2.8-2.3 4.3-2.2 4.3L183-102l-4.5 8.9"/></defs><g clip-path="url(#p8efa5a45de)"><use xlink:href="#macfb04298b" y="280.5" fill="#0c1321" stroke="#0c1321"/></g></g></g></g><defs><clipPath id="p8efa5a45de"><path d="M7.2 7.2h216.9v266.1H7.2z"/></clipPath></defs></svg>