<svg xmlns="http://www.w3.org/2000/svg" xmlns:xlink="http://www.w3.org/1999/xlink" width="378.9" height="374" viewBox="0 0 284.2 280.5"><defs><style>*{stroke-linejoin:round;stroke-linecap:butt}</style></defs><g id="figure_1"><path id="patch_1" fill="none" d="M0 280.5h284.2V0H0z"/><g id="axes_1"><g id="PatchCollection_1"><defs><path id="m6b2580a9de" stroke="#0c1321" d="m264.3-109.7-.3.7-4.9 15.8-2.2 6.5-2.1 5.7-2.7 6.2-2.7 5-2.2 3.3L245-64l-2.7 2.8-1.7 1.5-3.4 2.2-1.6.8-2.3.8-1.7.3-3.4.5-9.1.7-4.9.7-7.7 1.4-7 1.6-5.9 2-5.8 2.4-10.5 4.5-6.9 2.5-4 1.2-4 .8-10.3 1.6L145-34l-5.8 2-17 7-7.6 2.7-3.1 1-5.6 1.4-3.2.5-.7-.1-2.7-1.4-1.6-1-1-.9-1.5-1.7-1.2-2-1-2.2-1.1-3-.7-2.6L88-50.5 87-53l-1.5-2.1-4.8-5.2-2.6-3-1.8-2.7-5.6-9.3-3.9-6-2-2.8-2.3-3-2.7-2.5-2.7-1.8-1.6-.7-1.5-.4-1.5-.1-.9.1-2.2 1-4.6 3-6 3.4-7.9 3.7-3 1.3-1.3.4-.7-.3-1.3-1.2L23-84l-1-2.6-1-4.5.2-4.8.8-3 1.8-3.9 1.7-2.7 2-2.7 3.4-4.1 6.6-7.3 1.7-2.2 1.5-2.1 1.4-2.6.6-1.8.4-1.7v-3.5l-.5-2-.9-2.2-1.4-2.3-3.8-5-1.8-3.4-.4-1.4-.7-4.6-.8-15.4-.5-4.4-.6-2.9-1.4-4.5-2-4.6-1.5-2.8-5.3-8.4-1.2-2.7-.8-3.2v-2.9l.7-2.2.6-1.2 1.1-1.5 2.9-2.5 3.5-2.2 8.2-4.4 4.1-2.7 3.2-2.6 8.5-7.7 9.5-7.6 7.4-5.6 7.4-5.3 7.2-4.5 6.6-3.9 1.8-.8 1.1-.3 1.7 1 3.7 3L123-236l7.7 6.6 9.1 7.4 8.5 6.5 5.9 4.4 34.2 24.2 5.3 4.2 4.1 4 2.4 3 2.1 4.2 1.6 4.4 1.3 4.6 3 14 1.2 4.4 1.7 3.9 2.1 3.4 4.8 6.4 1.7 3 3 6.4 1.6 3.1 2 2.7 2.3 2.2 3 1.4 3.5.8 2.6.3h6l13.5-.8 3-.1h2.5l1.6.4.4.5-.4.8"/></defs><g clip-path="url(#pa4f22fe3a2)"><use xlink:href="#m6b2580a9de" y="280.5" fill="#0c1321" stroke="#0c1321"/></g></g></g></g><defs><clipPath id="pa4f22fe3a2"><path d="M7.2 7.2H277v266.1H7.2z"/></clipPath></defs></svg>