<svg xmlns="http://www.w3.org/2000/svg" xmlns:xlink="http://www.w3.org/1999/xlink" width="327.5" height="374" viewBox="0 0 245.6 280.5"><defs><style>*{stroke-linejoin:round;stroke-linecap:butt}</style></defs><g id="figure_1"><path id="patch_1" fill="none" d="M0 280.5h245.6V0H0z"/><g id="axes_1"><g id="PatchCollection_1"><defs><path id="mf3627f5660" stroke="#0c1321" d="m149.2-260.7.8 3 .8 2.7 1.2 3.1 1.3 3.3 1.5 3.3 1.7 3.1 1.3 2 1.2 1.6 2 2.6 2.2 2.5 2.2 2.4 9 9.4 2.4 2.8 3.1 3.7 1.5 1.9 1.7 2.5 1.6 2.6 1.6 2.6 1.4 2.7 1.6 3 3 5.8 3.1 6.6 3 6.6 8 17.9 9.5 21.9 2.3 5 5.3 11.4 1 2.6 1 2.5.7 2 .6 2 .6 2.9.3 2.2.2 3.3-.1 4-.2 3-.4 3.2-.4 3.2-.4 2.6-.4 2-.7 3.1-1 3.8-1.2 4.2-.5 1.6-.6 1.4-1 1.6-.9 1.3-1.7 1.6-2 1.6-1.2.6-2 1.1-1.5.8-2.4.9-3.1.9-2 .4-3.2.7-3 .5-4 .4-2.8.3h-7.5l-4.6-.3-2.4-.3-.6-.1-2.6-.4-3-.2H168l-1.1.2-1.9.5-6.2 2.2-4.8 1.6-7 2.2-3 .9-.9.2-2.7.5-5.8.6-2.8.4-2.7.8-2 1-2.2 1.2-2 1.5-5 4-1.1 1-1.6 1-2 1.1-3.8 1.7-2.2 1.1-2.7 1.4-4 2.5L91-30l-2.7 1.7-3.4 2-1.1.4-1 .4-.7.2-4.7 1.1-1.9.6-5.6 1.9-2.8.7-1.9.4-1.9.3-1.2.2-2.9.3H45.8l-2.6.2-1.5.1-.6.2v-2.3L39.7-27l-.3-1.5-.2-1.5-.5-5.5-.4-1.7-.6-1.5-.6-.7-.6-.6-.6-.5-2.6-1.6L32-43l-.7-.6-.7-.9-.5-.8-.3-.7-1.5-4.2-.4-.8-.6-1-.9-1.3-.9-1.1-2.8-3.1-1-1.3-1.2-1.5-.9-1.4-.8-1.6-.3-.8-.4-1.2-.3-1.2-.2-2.2v-.9l.2-2 .3-1.7.6-2.3.9-2.3 1.2-3 .6-1.6.7-2.4 1.3-5.1.5-2 .8-2 .7-1.5.9-1.4 1.2-1.6 1-1.2.9-1 1.6-1.5 3.6-3.2 1.6-1.4 2.2-1.6 2.4-1.7 7.5-4.8 2.5-1.6 2.4-1.8 2.7-2.3 6.7-6 2.8-2.5 2.8-2.1 9.1-6.1 1.4-1.4.3-.5.3-.7.4-1.2.3-.9.3-1.8.3-2.2v-1.6l.1-2.6v-6.7l.1-2.1.3-3.9.3-2.3.4-2.4.5-2.4 1-4 .5-2.2.6-1.7.8-1.9.7-1.4.6-1 1.4-2.2 4.5-6.7 1-1.7.8-1.5 1-2.1.6-2 .4-1.8.4-2.1.1-2.1.1-2v-1.4l-.1-1.2-.2-1-.3-.7-.4-.8-1-1.5-1.3-1.4-1.1-1.6-.6-1.1-.4-1.3-.4-1.3-.6-1.8-.8-3.4-.5-2.7-.3-2.9v-3.2l.2-1.3.2-1 .3-1.1.8-1.9 1-1.7 1-1.6 1.3-1.5 1.5-1.4 1.7-1.2 2.9-1.8 3.2-1.8 3.2-1.7 2.8-1.4 2.1-.8 1.8-.6.7-.1h.8v.3l.4.4.9.8.9.6.7.4 1.3.4.7.2h1.4l1.2-.3.6-.3 1.2-.6 1.8-1.2 1.5-1.2 1-1 .7-.6 2-2.2.6-.6.8-.6.7-.4.6-.2 1.2-.3 1.4-.2h2.3l1.3.2.8.2 3.1 1 .5.2h2.3l1.2-.2 1.1-.5.4-.2.2-.2"/></defs><g clip-path="url(#p07d7e76387)"><use xlink:href="#mf3627f5660" y="280.5" fill="#0c1321" stroke="#0c1321"/></g></g></g></g><defs><clipPath id="p07d7e76387"><path d="M7.2 7.2h231.2v266.1H7.2z"/></clipPath></defs></svg>