<svg xmlns="http://www.w3.org/2000/svg" xmlns:xlink="http://www.w3.org/1999/xlink" width="334.1" height="374" viewBox="0 0 250.6 280.5"><defs><style>*{stroke-linejoin:round;stroke-linecap:butt}</style></defs><g id="figure_1"><path id="patch_1" fill="none" d="M0 280.5h250.6V0H0z"/><g id="axes_1"><g id="PatchCollection_1"><defs><path id="m1298807885" stroke="#0c1321" d="m202.6-221 19.6 45.3 2.7 6.3 1.7 4.2.8 2 .7 2.2.7 2 1.1 4.2 1 4.1.4 2.1.8 4.2.3 2 .2 2.1v4l-.5 1.8-.7 1.7-1 1.6-1.5 1.4-1.7 1.3-1.9 1.1-2 1-1.8 1-3 1.2-.4.3-5.5 1.6-2.4.7-2.5.8-2.4 1-2.4 1-1.8 1-1.6.9-1.8 1.3-2.7 2-1.7 1.5-8.5 7.4-6.2 5.2-6 5.4-11.3 9.6-3.1 2.7L156-80l-1.7 1.2-1.9 1.2-1.9 1.2-3.6 2.1-6.8 3.8-6.9 3.3-2.1 1.3-2.2 1.2-3 1.9-1.5 1-3 2-1.5 1.3-2.7 2.2-1.6 1.5-1.8 1.6-1.5 1.6-.8.9-1 1.2L108-46l-1.5 1.8-1.6 1.9-1.6 1.8-1.8 1.7-1.9 1.5-4.6 3.5-3 2.1-1.6 1-1.6.8-1.8.8-2.4.9-2.5.8-6 1.8L69-23l-3.3 1-4.7 1.5-4.4 1-1 .3-5.2-11.3-3.1-7-3.1-7.1-1.5-3.5-2.5-6.4-2-4.8-20.3-44.4.4-.2 1.2-.5 7.2-2.8 4.6-2 2.2-.9 2-1 2.1-1 2.4-1.3 3.9-2.2 5.6-3.3 13.3-8.4 1.9-1.2 1.4-1 1.3-1.1.9-1 1.6-1.9 1-1.4.5-1 .1-.3.2-.9-.2-1.3-.5-1.5-.7-1.7-.6-1.7-.6-1.9-1-4.3-.5-2.5-2-7-.4-2-.3-1.8-.2-1.8.1-1.8.4-1.6.5-1.6.7-1.5 1-1.8 1.7-2.7 1.2-1.8 1.3-1.7L73-181l2.8-3.5 3-3.4 2.8-3.2 7.8-8.5 3.1-3.3 3-3.1 3.8-3.7 3.3-3 5.4-4.6 5-4 8.6-7.2 8.2-6.8 31-26 41.8 40.4"/></defs><g clip-path="url(#p447a711858)"><use xlink:href="#m1298807885" y="280.5" fill="#0c1321" stroke="#0c1321"/></g></g></g></g><defs><clipPath id="p447a711858"><path d="M7.2 7.2h236.2v266.1H7.2z"/></clipPath></defs></svg>