<svg xmlns="http://www.w3.org/2000/svg" xmlns:xlink="http://www.w3.org/1999/xlink" width="495.4" height="361.7" viewBox="0 0 371.5 271.3"><defs><style>*{stroke-linejoin:round;stroke-linecap:butt}</style></defs><g id="figure_1"><path id="patch_1" fill="none" d="M0 271.3h371.5V0H0z"/><g id="axes_1"><g id="PatchCollection_1"><defs><path id="m9f267ce27c" stroke="#0c1321" d="M263-192.3h.5l.8.7 1 1 1 1.5 1.6 3 .8 1.9.8 2 1 3.6 1.3 5.4 1.4 5.4 1 5.5.3 1.8.5 1.7 1.2 3.4.7 2.4.4 2 .7 4.8.5 2.2.8 2 1.4 3 2 3.8 2.2 3.4 2.9 4 3 3.7 2.9 3.4 4 4.1 7.1 6.9 2.8 2.5 2.7 2.2 5 3.5.9.7 1.1 1.1 1.2 1.6 1 1.6.7 1.7 2.1 5.5.8 1.7 1.1 2.4 1.4 2.3 1.7 2 1.8 2 3 2.5 1.6 1.2 2.9 2 7 4.2 2.2 1.6 1 1 .4.7.5 1 .2.8.2 1v1.2l-.1 1-.5 1.8-.4 1.2-.5 1-.8 1.4-1.6 2.3-9.5 12.2-2 2.8-2 3-1.9 3-1.8 3.2-1.4 2.9-.8 1.6-.4 1.3v.9l-1-.7-8.6-7.9L311-34l-4-3.2-4-3-4.1-2.7-4.1-2.3-4.1-1.7-4.2-1h-4.2l-4.2.6-4.3 1.1-4.2 1.5-4.2 1.8-4.2 2-4.2 2-8.1 4.4L241-30l-7.2 4.4-5 3-1.7 1-1.7.9-1.7.6-3.1.8-2.4.3-1.4.1h-1.7l-3.5-.2-2.3-.3-1-.3-2-.6-1.5-.6-1.3-.7-.9-.5-1.1-1-.6-.7-.7-1-.4-.7-.5-1.1-.4-1.2-.6-2.6-.5-3.6-.5-4.7-.5-2.6-.4-1.1-.7-1.5-1-1.5-1-1.4-1.1-1.2-1.4-1.2-8-6.8-3-2.2-2.2-1.6-2-1.2-1.5-.8-2-.8-2.5-1-3.4-.9-3.2-.7-3.4-.5-3.4-.4-5-.5-4.3-.4-8.8-.4H128l-3.2.2-7.1.4-4.3.1-3.9-.3-3.8-.7-3.7-1.1-3.9-1.4-4.7-1.8-11.2-4.6-4.8-1.7L75-79l-3.5-1-3-.6-5.3-1h-1.6l-3.8-8-1.2-2.9-1.2-3-1.2-3.6-2-6.7-1.3-3.3-.7-1.4-1-1.8-1.2-1.8-1.3-1.6-1.3-1.5-1.2-1.2-1.8-1.6-2.6-2-2-1.2-1.7-1-7-3.4-1.6-1-1.4-1-1.2-1-1-1.3-.5-1.5v-2l.7-2 1.2-2.3 1.4-2.2 1.7-2.3 1.8-2.4 6-7.2L56-176.4 73-196l.4-.4.9-1 2.2-3 1.2-1.7 1-1.9.8-1.8.6-1.8.3-1.6.5-4.2.2-1.2.4-1.2.5-1.1.8-1.3 1-1 3.5-2.4 4.5-3.9 3-2.4 2.6-1.7 2-1 1.4-.6 1.4-.2h1l1.9.4 3.1 1 1.2.3h1.4l1.4-.4 1.6-.8 1.7-1.2 1.5-1.4.7-.8 2-2.8 3-4.4 1.8-2.7 1.5-1.8 1.9-1.8 1.4-1 1.8-1 1.7-.9 1.4-.4 1.5-.2h1.4l.3-.4.4-.1 1.1-.3 2.4-.2h1.6l2.5.1 1.4.2 5 .9 4.3 1 4.6 1.2 15.6 4.7 5.7 1.6 2.3.8 1.5.6 1.7.9 1.3.9 1.3 1.2.7 1 .4.9.2.8.2 1.6-.2 1.2-.9 4.5v2.6l.2 1 .4 1.2.6 1.3.9 1.4.7 1 .8 1 1 1 1.4 1 1.6 1 5.4 3.3 1.9 1 1.3.4 1 .2 1.1.1h.7l.8-.3.8-.3.6-.4.6-.5.5-.6.7-1 .3-.8v-1l-.2-2.7v-.5l.3-.9.5-1 .6-.8.8-.9.7-.3 1.2-.2h.6l.8.1 1 .4 1.6.8 2.8 1.9 2 1.2 1 .4.6.2 1.3.1h1.7l1.1-.1.6-.3.6-.4 1.6-1.5.6-.4.4-.1h1.3l.5.4 1 .9 2 2.2 1.5 1.9.9 1.6.5 1.3.4 1.3 2.2 8 .5 1.9.7 3.7.3 1 .4.7.7 1 .8.7.9.7 2.2 1.4 2 1 1.3.4 1.2.2h2.4l1.5-.3 1-.6.5-.4.3-.6"/></defs><g clip-path="url(#p0e1d7d2c6a)"><use xlink:href="#m9f267ce27c" y="271.3" fill="#0c1321" stroke="#0c1321"/></g></g></g></g><defs><clipPath id="p0e1d7d2c6a"><path d="M7.2 7.2h357.1v256.9H7.2z"/></clipPath></defs></svg>