<svg xmlns="http://www.w3.org/2000/svg" xmlns:xlink="http://www.w3.org/1999/xlink" width="481.1" height="374" viewBox="0 0 360.9 280.5"><defs><style>*{stroke-linejoin:round;stroke-linecap:butt}</style></defs><g id="figure_1"><path id="patch_1" fill="none" d="M0 280.5h360.9V0H0z"/><g id="axes_1"><g id="PatchCollection_1"><defs><path id="ma6effc12b7" stroke="#0c1321" d="m279.2-223.5.1-.2.4-.2 1.4-.6 1.2-.5 1.5-.4 2.4-.6 2.3-.3h2.5l1.5.2 2 .4 2.4.6 1.6.4 3.5 1.2 2.2.9 2.5 1.1 1.7 1 2 1 2.2 1.7 1 .8 1.2 1.2 1.7 1.9 4.4 5.7 3 3.6.9 1.2 2.6 3.7.8 1.3 1.5 2.6 1.2 2 3.5 5 1 1.5 1 1.8.5 1.8.3 1.8.5 4.9.2 2.5v1.5l-.1 1-.2 1-.3 1.2-.4 1.3-1.6 3.4-1 2.6-.6 1.4-1 1.2-.8.4-.7.3-1.1.3h-3l-2-.1-4.3-.5-6-.9-4-.5-4-.5-3.8-.3-3.8-.1h-2.7l-7.2.1h-7.2l-1.7.3-2 .5-2.5.7-3.7 1.2-1.5.6-1.3.6-1.6.9-1 .7-.8.7-.5.6-.7.9-.5.9-.3 1-.2.6v1.7l.2 2.7v2.2l-.2 2-.4 1.8-.4 1.1-.4 1-2.2 4-.7 1.6-.7 1.8-.2 1-.2.8-.1 1v1.8l.3 1.4.3.9.4 1 .5.9.8 1 1 1.2 1.5 1.6 2 1.7 6 4.6 1.5 1.2 2.1 1.9 2.3 2.2 6.2 6.3 1.7 1.6 2.4 1.9 2.6 1.8 4.3 2.9 2 1.4 1.5 1.3L299-89l1 1.5.3 1.6v.3l-.2 1.2-.5 1.7-.7 1.4-.7 1.2-1.1 1.6-1.6 2.1-5.9 7.5-1.9 2.5-2 2.9-1 1.7-1 1.8-.7 1.5-2.3 5.4-.5 1.2-.1.4-.2-.3-.6-.3-1.3-.7-1.6-.6-2.3-.7-2-.4-2-.2h-2.6l-6.8.9-1.7.1-3.6.2h-1.9l-1.2-.1-1.3-.3-4-1-1.2-.2-1.8-.2h-1.4l-1.5.2-2.1.4-5 1.3-1.4.2-1.4.2h-2.7l-1.5-.5-1.4-.5-1.3-.8-4.5-2.8-1-.6-1-.5-1.4-.5-1.7-.5-1.8-.2-2.8-.2h-1.6l-3.2.2-1.6.2-1 .4-1 .6-1.2 1.2-2.1 2.3-2.8 2.9-4 3.8-2.2 2-1.6 1.4-3.4 2.6-6.6 5.3-1.7 1.3-1.3.8-1.3.9-4.8 2.5-2 1.1-2.7 1.7-5.3 3.4-2 1.2-1.4.7-1.4.6-2 .5-1.4.2h-1.3l-1.2-.1-5.8-.8-2.7-.2h-2.2l-2 .2-2.3.3-5.8 1.3-2.8.5-2.6.5-5.8.7-1.4.2-.5.2-.1.2-.8-1-.9-1-2.2-2.2-2.5-2.1-5-4.2-1.6-1.5-3.1-3.3-1-1-1.5-1.2-2.3-1.6-1-.9-4.5-4.2-1.3-1.4-1-1.2-3.5-4.3-1.3-1.5-.6-.6-.7-.5-.7-.3-.6-.3-.7-.1h-.8l-.8.3-.6.3-.5.4-.2.2-2.3-1.2-3-1.8-3.3-2-1.7-1.2-3.6-2.7-2.6-2-1.2-1-2.4-2.3L53-68l-3.2-3.5-1.9-2.3-1.8-2.3-2.7-3.7-2.6-4.2-1.7-2.9-1.5-2.8-1.4-2.8-1.3-2.6-2-4.6-1.9-4.9-2-6-1.8-5.4-3.2-10.3-1-3.1 2-1.3 2.7-1.9 2.4-1.7 1.8-1.5 2.2-1.7 2.4-2.2 2.3-2.2 2-2.3 1.4-1.9 1.8-2.7 1.8-3 2.3-4 1.2-2.5.6-1.2.5-1.5 2-7.5.3-1.2.5-1 .7-1.5 1-1.8 1.7-2.9 4.2-6.1 1.8-2.8 1.2-2.2 1-2 .8-1.8.5-1.8.2-1.7v-1l-.3-1.2-.5-1.4-1.9-3.4-.5-1.2-.4-1-.4-1.6-.5-2.3-1.6-8.4-1.4-9.1-.6-3.6-.4-3v-.8l-.2-3.1.1-3.2.3-3.2.4-3 .4-2.5.4-2 .2-.7.4.1h.9l2.8-.5 1.7-.3 2.9-.7 3-.9 2-.7 1.4-.5 7.2-3 1.6-.7 2.4-.8 2.2-.7 3-.7 1.6-.4 1.6-.3h1.1l1.3-.1h1l1 .1 1 .3 1.2.3 1 .5 1 .8.8.7.8.8.5.6 1.2 1.6 1 1.5 4.4 7 .8 1.2 1.6 3.2 1.1 2 4.3 6.8 1.8 3.2 1.7 3.3.9 1.8.8 2 .6 1.7.3 1.3.3 2.2v2.4l-.3 1-1.1 4-.5 2v.8l-.1.8v2.9l.1 1.5.5 3.2.6 2.7.5 2.3.8 2.5.5 1.2.4.5.6.6.2.1.9.2 1.2-.3 1.3-.7 1.4-1 1.2-1.5 1-1.4.7-1.4.8-1.6.5-1.1.7-2 1.7-5.5 1-3 1-2.7 1-2.4 2.3-4.2.6-1 .6-1 1.2-1.2 1.2-1.2 1.3-1 1-.8 1-.6 4.5-2.5 6.5-4 2.4-1.5 1.6-.8 1.9-.9 1.8-.7 1.7-.5 1.5-.4 1.5-.2h1.7l.9.2.9.2 3 1 1.7.5 1 .1h.4l.4-.1.3-.2.7-.5 2.2-2.7 1-1 2.4-1.8 1.2-.9 1-.5 1.4-.5 1.4-.2h.9l.9.3 1.3.7 3 1.7 2.8 2 3.5 2.6 2.6 2.2 3.3 3 1.5 1.4 1 1.1 2.5 2.7 1.8 2.3 1.4 1.7 1.5 2 3.9 5.9 1.5 2 .7.6 1.3 1.2 1 .7 1.1.7.6.3 2.2.9 2.4.7 2.5.6 3.5.6 4 .6 3.8.3h5l2-.1 1.6-.2 1.6-.4 1.4-.5 2-.8 1.1-.6 1.3-.8 1.6-1.1 1.2-1 1-1 1.6-2 1-1.6 1.2-2 1-2 .6-1.4.4-1.3.5-1.5.2-.7v-.3"/></defs><g clip-path="url(#p1a1ce0341a)"><use xlink:href="#ma6effc12b7" y="280.5" fill="#0c1321" stroke="#0c1321"/></g></g></g></g><defs><clipPath id="p1a1ce0341a"><path d="M7.2 7.2h346.5v266.1H7.2z"/></clipPath></defs></svg>