<svg xmlns="http://www.w3.org/2000/svg" xmlns:xlink="http://www.w3.org/1999/xlink" width="468" height="374" viewBox="0 0 351 280.5"><defs><style>*{stroke-linejoin:round;stroke-linecap:butt}</style></defs><g id="figure_1"><path id="patch_1" fill="none" d="M0 280.5h351V0H0z"/><g id="axes_1"><g id="PatchCollection_1"><defs><path id="mea6054b594" stroke="#0c1321" d="m321.8-39.5 2.7 3.9L327-31l1 2.3.5 2.2v2l-.6 1.8-1.2 1.4-1.5 1.1-1.9.7-2 .2-1.5-.2-3.2-1.2-3.5-2-7.5-5-6.2-3.2-6.8-2.5-7.6-2.2-20.3-5L252-43l-8-1-5.3-.6-5-.2-9.7-.1v-.4l-.4-.8-1.7-1.7-2.5-2L213-54 196.6-64l-7.2-3.8L184-70l-3.4-1.3-3.5-1-7-1.3-7.2-.7-18.7-1-6-.7-4.4-1-3-1-6-2.4-4-2-4.1-2.3-7.3-4.6-6.4-4.4-7-5.3-32.7-26.7-38.5-30.4-.9-.3-.8-.9-.6-1.8.3-2 1-2.1 2.8-3.5 7.9-8.1 2.7-3.2 2.2-3 4-6.5 1.6-2.1 2.8-2.9 3.2-2.8 8.7-6.8 8.3-6.1 4-3.5 4-4.2 1.5-2 1.9-3 1-2.6 1.3-4.1.4-2.2.2-5.2-1-7.1-3.7-16.5-.3-1.8.1-.7L89-260l18 2.4 23.6 3.9 18.9 4 37.6 9.7 18.1 4.2 7.5 1.5 8.8 1.4L246-230l6.7 1.2 6 1.9 5.2 2.7 3.4 3 2.3 3 2.9 4.4 1.6 3 5.2 10.9 1.8 4.7 1.4 5 4.8 22 2.6 8.3 4.9 13.4 1.8 6.6 1 6.8v4.5l-.9 6.2-1.4 6.1-1 6.5v6.4l.9 6.2 1.4 6.5 2 6.7 2.4 7 2.8 7.1 3.2 7.1 3.3 6.8 3.3 6.1 3.2 5.1 2.8 3.7 1.4 1.3.8.2"/></defs><g clip-path="url(#p95cfc2ebf0)"><use xlink:href="#mea6054b594" y="280.5" fill="#0c1321" stroke="#0c1321"/></g></g></g></g><defs><clipPath id="p95cfc2ebf0"><path d="M7.2 7.2h336.6v266.1H7.2z"/></clipPath></defs></svg>