<svg xmlns="http://www.w3.org/2000/svg" xmlns:xlink="http://www.w3.org/1999/xlink" width="414" height="374" viewBox="0 0 310.5 280.5"><defs><style>*{stroke-linejoin:round;stroke-linecap:butt}</style></defs><g id="figure_1"><path id="patch_1" fill="none" d="M0 280.5h310.5V0H0z"/><g id="axes_1"><g id="PatchCollection_1"><defs><path id="mb87fd4a96b" stroke="#0c1321" d="m268.2-100.4-9.3 1-15.3 1.6-11 1-10.7.8-2.5.3-2 .4-2 .7-2 .8-7.3 3.5-1.5.6-3 1-3.2 1-3.3 1-12.5 2.9-5.4 1.4-2.3.6-2.3.7-3.3 1.2-3 1.2-2.9 1.4-2.5 1.7-2 2-1.2 2.5-.8 2.8-.3 2-.3 2-.3 4.5-.1 5-.2 12.5v3.5l-.3 3.3-.4 3.2-.7 3-1.1 2.5-1.6 2-2.2 1.4-2.8 1-3.1.4-3.5.3-3.7.1h-6.9l-6.9.3-2.3.2-.9.3-.9.4-2 .6-2.7.4-3 .1-2.8-.3-1.8-.5-2.8-1.5-2.4-2.2-2.3-2.6-2-3-1.9-3-1.8-3.4-1.7-3.4-1.6-3.5-3.2-7L79-67.2l-3-6.8-1.6-3.3-1.7-3.2-1.7-3-1.8-2.7-1.8-2.2-1.8-1.7-2-1.3-1.8-.7-1.2-.3-1.3-.1h-2.5l-1 .3-.9.3-1 .5-1 .5-1 .8-1 .7-2 1.9L42-81 40-78.9l-2.2 2-5.1 4-1.2 1.2-.8 1.3-.7 1.9-.2 1.9v4l.4 2 .2.7.6 1.5 1 1.2.4.3.5.2.9.2h1.2l1.3-.1 1.8-.6 1.2-.4 3-1.5 1.7-1 3.3-2.1.8-.5.9-.4h.6l.4.2.3.5v.6l.1.8-.2 2.4-.4 2-.9 4.2-.4 2.9-.2 2-.1 3.2.1 2.3.3 2.2.2 1 .7 2.4.8 2.4 2.4 6.3.5 2 .3 1.1v1.6l-.3 1.2v.3l-.5.4-.5.2h-.8l-.7-.1-3.2-1-4.4-1.6-1.4-.4-1.5-.3-1.8.1-1.6.4-1.6.3-1.7-.1-.7-.3-.9-.6-1.5-1.4-1.4-1.7-1.5-2-2.6-3.8-1.2-1.5-.4-.4-.2-.2h-.2L21.6-45l-.4-3.8-.3-3.9-.2-4v-3.8l.1-3.8.4-3.7.7-3.1.8-3 1-2.9 2.4-6.4.5-1.5.4-1.3.5-2.5.1-1.8V-99l.3-1.4.3-.9.4-.9.4-.8 1-1.6 1.6-1.8 2-2 2.3-2 2.2-1.6 4.2-2.9 2.6-1.6 2-1.2 1.4-.6 1.6-.6 2.6-.7 2.4-.5 2.3-.4h5.3l2-.3 1.9-.7 1.5-1 .4-.4.8-1.2.3-.7.5-1.4 1.7-5.2.7-3 .4-1.5.5-1.4 1.1-2 1-1.4 1.2-1.4 1.8-1.9 5-4.3 2.6-2.5 2.3-2.5 3-3.4 2-2 1.3-1 1.6-1 3.3-2 2-1.4.8-.7.7-.7.5-.5 1-1.4 1-1.6 1-2.1.9-2.2.8-2.4 1.2-4.2.7-2.8 2-8.6.4-1.4.2-.2.2-.2.5-.8 1-2 3.9-7.5 1.5-2.9 1.5-2.2 1.1-1.4.6-.7 1-1 .7-.4 1.1-.7 1.5-.8.9-.3 1-.3 2.6-.6 4.3-1.4 1.2-.5.6-.4.4-.4.3-.7v-.4l-.2-.5-1-1.1-.2-.4v-.3l.2-.5 1.3-2.3.4-.8.4-1.3.4-1.3.8-3 .3-1.9.2-1.8-.1-1.5-.2-.8-.7-1.6-.5-.9-1.2-1.7-2.8-3.4-.7-1-.6-1.1-.6-1-.5-1.7-.2-1.3-.1-.8v-2.5h.2l-.3-1.6v-1.4l.1-.8.2-.3.1-.3 1.3-.4h2l2.5.4 3 .7 3.1.8 3.4 1 6.8 2.3 6.8 2.4 3.3 1.4 3.1 1.4 3 1.5 2.8 1.7 2.4 1.8 1.7 1.6 1 1.1 1 1.2 1.3 2.3 3 6.7.8 1.4 1 1.4 1.3 1 2 .5h2.4l2.6-.5 2.9-.8 3-1 3-1.3 3.2-1.4 10-4.5 28.2-13.2 19.6-9 11-4.4.2.6.7 1.4 1.4 2.4 5 8.3 1.9 3.5 1.4 2.7 1.2 2.6 1 2.6.7 2.3.5 2.2.2 2-.3 2.5-1 2.3-1.5 2-1.2 1.3-1.4 1.2-1.6 1.2-1.7 1.2-3.1 1.8-2.6 1.3-11.7 5.7-5.3 2.7-2.3 1.3-2.2 1.3-1.5 1-1.4 1.2-2 2-1.3 2.1-1 2.8-.3 3v3.1l.4 3.4.5 3.4.7 3.5.8 3.6 2.7 11 9 34.4 7.6 30"/></defs><g clip-path="url(#p46d5e65053)"><use xlink:href="#mb87fd4a96b" y="280.5" fill="#0c1321" stroke="#0c1321"/></g></g></g></g><defs><clipPath id="p46d5e65053"><path d="M7.2 7.2h296.1v266.1H7.2z"/></clipPath></defs></svg>