<svg xmlns="http://www.w3.org/2000/svg" xmlns:xlink="http://www.w3.org/1999/xlink" width="278.3" height="374" viewBox="0 0 208.8 280.5"><defs><style>*{stroke-linejoin:round;stroke-linecap:butt}</style></defs><g id="figure_1"><path id="patch_1" fill="none" d="M0 280.5h208.8V0H0z"/><g id="axes_1"><g id="PatchCollection_1"><defs><path id="m1e4632aaae" stroke="#0c1321" d="m190.3-162.6-3.2 3.8-13.5 15-3.2 3.8-1.8 2.5-.7 1.3-.5 1.3-.2 1.3v1l.3 1.2 1 2.2 1 1.3 1.5 2 4.4 4.6 3.2 3.8L192.7-99l-4.2 8.8-9 20.4-3.2 6.8-2.8 5.3-1.1 1.7-1.2 1.6L170-53l-3 2.7-4.8 3.8-20.6 14.8-17.2 12.4-.2-.6v-1.5l.6-4.1.2-2.1V-30l-.4-3.1-1-3.3-1.4-3.3-2.1-4-2.5-3.9-2.8-3.7-3.7-4-6.7-6.8-6-6.6-7.5-9.2-8.3-11-3.8-5.5-4-5.9-8.2-13-4.6-7.7-2.3-4.3-2-4-3-6.4-2.6-7-3-8.5-5.4-17.7-3-9.2-3.8-11-2.5-6.8-2.7-6.6-3-6.7-7-14.6-4.5-6.5H17l-.9-.9.2-1.6 1.4-2.4 2.7-2.6 3.4-2.6 4-2.7 4.4-2.6 4.6-2.5 4.7-2.4 4.8-2.2 4.7-2.1 4.8-2 4.6-1.6 4.5-1.4 4.4-1 4.3-.4 4 .2 2.5.7 2.5 1 1 .5 2.5 1.4 2.2 1.7 3.1 2.7 2.5 2.5 2.8 3.4 2.7 3.6 2 3 1.9 3 2 3.8 2.4 4.6 5 10.6 1.2 2.5 1.4 2.4 2.2 3.4 2.5 3 2.6 2.1 3 1.2 3.2.6 3.3.4 3.5.9 3 1.3 3.1 1.8 3.1 2.3 10.2 7.9 19.1 14.3 12.6 9 2.7 2 1 .8"/></defs><g clip-path="url(#ped082c996a)"><use xlink:href="#m1e4632aaae" y="280.5" fill="#0c1321" stroke="#0c1321"/></g></g></g></g><defs><clipPath id="ped082c996a"><path d="M7.2 7.2h194.4v266.1H7.2z"/></clipPath></defs></svg>