<svg xmlns="http://www.w3.org/2000/svg" xmlns:xlink="http://www.w3.org/1999/xlink" width="377.9" height="374" viewBox="0 0 283.4 280.5"><defs><style>*{stroke-linejoin:round;stroke-linecap:butt}</style></defs><g id="figure_1"><path id="patch_1" fill="none" d="M0 280.5h283.4V0H0z"/><g id="axes_1"><g id="PatchCollection_1"><defs><path id="m08351d2055" stroke="#0c1321" d="m264-75.1-43.4 55.8-10-18.7-1.7-2.6-1.3-1.3-.8-.3-.7-.2h-.8l-4.2.8h-5.5l-2 .3-4.4 1.2-7.4 2.5-.5-.2-.8-.7-1.6-2.1-1.8-3-2-3.5-1.8-3.9-1.8-4-1.7-4.2-1.3-4-1.2-3.8-.8-3.7-.5-3.6V-78l.6-3.7.8-3.5.5-3.5v-2.6l-.6-4-1-3.7-2.8-7.7-1.5-4.7-2.7-12.7-.9-2.9-1-2.7-3-6.2-1-1.7-1.6-2.6-1.3-1.7-2-1.7-3-1.6-3.4-1-3.8-.8-14.1-1.6-5.1-.8-4.3-.9-10.4-2.4-21.6-5.6-10.8-2.3-13.6-2.2-10.3-1.4-6.6-.7-.2-2.6-.5-2.7-1.2-5.2-1.2-4-1.8-3.9-1.8-3-1-1.3-5.6-5.4-2.5-2.7-1-1.3-1.8-2.5-1.6-3-1.1-3.3-.6-3-.2-2.8v-1.5l.5-3 .3-1.5.5-1.3 1.3-2.3.9-1 .8-.9 1.7-1.4 2.7-1.5 3.3-1.4 5-1.6 19.4-5.6H60l8-.6 4-.5 2-.4 6.4-1.5 7.5-1.2 2.5-.8 3-1.3 2.6-1.3 18.3-10.8 9.4-5.2.2.4 2.7.3 4.2-.2 5.1-.6 16.8-2.2 8.1-.6 4-.1h2.6l3.3.3 3.3.5 4.6 1.2 4 1.7 2 1.3 1.1.9.8.8 2.3 2.9 2 3.5 2 4.2 4.9 8 1.3 3.3.5 1.7 1 10.2.3 1.6 1.3 4.3 1.8 4.2 2.4 4 3 3.3 3.4 2.5 1 .5 3.8 1.2 4.7.6 9 .2 2 .2 3.7.8 3.5 1.5 2.6 2 2.4 2.6 2 3 1.7 3 1.3 3 .8 1.9 1.7 5.6 1.5 6 1.3 6.4.8 6 .6 6.2.4 6.3.4 13.7.2 19.5.4 6.2.6 6.2.8 6 1 5.7 1 5.1 1 4 .7 2 .4.3"/></defs><g clip-path="url(#p5b23ca1301)"><use xlink:href="#m08351d2055" y="280.5" fill="#0c1321" stroke="#0c1321"/></g></g></g></g><defs><clipPath id="p5b23ca1301"><path d="M7.2 7.2h269v266.1H7.2z"/></clipPath></defs></svg>