<svg xmlns="http://www.w3.org/2000/svg" xmlns:xlink="http://www.w3.org/1999/xlink" width="388.1" height="374" viewBox="0 0 291.1 280.5"><defs><style>*{stroke-linejoin:round;stroke-linecap:butt}</style></defs><g id="figure_1"><path id="patch_1" fill="none" d="M0 280.5h291V0H0z"/><g id="axes_1"><g id="PatchCollection_1"><defs><path id="me2177e9e16" stroke="#0c1321" d="m268.7-209.1-4.3 5.4-1.6 2.2-2.6 4-1 1.2-1.6 2.1-4 4.7-.8 1.3-.8 1.2-.6 1.3-.5 1.5-.2 1-.2 1.3-.1 1.2v1.6l.2 2 .2 1.6.6 3 .5 2.1.6 2.2.5 1.5.4.8.7.8.7.8.9.6 1.9 1 .8.7 2 1.7 1.6 1.2 2 1.3 5 3 .7.6.7.6.4.5.3.5.2.3v.2l-.2.2-1.5.7-2.8 1.1-3.6 1.5-1.4.6-1 .6-.5.5-.5.5-.4.6-.1.6v.6l.3.8.4.8.6.8 2.1 2.7.7 1 .7 1 .8 1.7.8 2 .4 1.4.4 1.5v1.5l-.1.7-.2.4-.3.4-.3.3-.4.2-.8.3-.8.2-1.6.2-.6.1-.5.2-.5.3-.3.3-.3.4-.2.4-.2.5v.5l-.1.4.1.7.7 2 .2 1 .4 1.7-1.3 8.6-.6 3-.5 2-.7 1.8-.7 1.7-.9 1.6-1.1 1.3-.4.3-.7.5-1 .4-1 .3-1.5.4-2.4.3-4.8.3-1 .1-1.3.3-1 .2-.8.3-1.2.6-3.4 1.7-1.6.8-1.6.6-2 .6-3.1.8-7.2 1.6-2.4.5-4.5.8-2.2.5-1 .3-1.2.6-1.2.6-1.6 1.2-.6.7-1 1.2-.8 1.3-.7 1.5-.2.7-.3 1.2-.3 1.7-.6 6.5-.1 1.4-.4 2.2-.7 2.7-.6 2-.6 1.4-.6 1.4-1 1.8-1.3 2.1L194-52l-3.3 4.3-2.8 3.8-2.2 3.2-2 3.1-1.3 2.3-.7 1.7-.5 1.2-.1.6-.2 1v.9l.4.3h-.4l-.3.8-1.1 4.1-.4 1.2-.4 1-.8 1.7-1.1 1.2-.4.1-.6.2-.8.1-1.2-.1-1.4-.4-1.6-.5-2.1-.9-2.5-1.2-1.2-.7-2.1-1.3-1-.6-.9-.4-.6-.2-1-.3-2.1-.4-.6-.3-.8-.3-1-.8-1.1-1.2-1.3-1.5-1.2-1.7-.8-1.3-1.5-2.4-1.5-2.7-5.8-11.1-1.1-2.1-1.2-1.9-1.3-1.6-1-.9-.6-.6-.7-.5-.6-.4-.8-.3h-.7l-.6.1-.6.6-.6 1-.3 1.1-.1 1.4-.2 3-.1 1.1-.4 2.2v.8l-.3 3.6-.2 1.4-.5 1.2-.5.5-.6.4-.7.2h-1.3l-2.4-.2h-1l-1.1.3-1.2.5-.3.2-1.3 1.2-1.3 1.5-.7 1-.6 1-1.2 2-1.4 3-.9 2.3-.6 2.2-.5 2.2-.1 1v.6l-.2-.8-.5-3.5-.4-2.3-.6-2-1.1-3.2-3-7.5-2.4-6.4-1-2.4-1.2-2.1-.8-1.2-.7-1-1-1.2-.7-.6-1.2-1-1.6-1.2-8-5.3-7.7-4.7-3.5-2-1.7-.8-2.2-1-3.3-1.3-2-.7-3.9-1.2-4.5-1.6-5.2-1.6-2.5-.8-1.7-.7-3-1.4-1.6-.7-1.2-.8-1.8-1.1-1.8-1.5-2.2-2-6.9-7-4-4.1-1.8-2-1.5-2-1.6-2.2-.7-1-.8-1.5-.5-1-.2-.7.3-.5.9-.5 1.4-.6 8.5-2.3 12.6-3.1 2.4-.7 1.1-.3 2.5-.9 1.3-.6 1.4-.6 2.1-1.1 1.3-.8 2.5-1.6 2.3-1.8 1.2-1 1-.8 2.2-2.3 1-1.2 2-2.5 2-2.8 2.2-3.5 4-6.7 3.5-6L83-156l2.2-4 1-2.1 1.2-2.5 3.7-9.6 1.6-4.3.6-2 .5-1.7.3-1 .3-2.1.4-3.1.2-1 .4-.8.4-.6 1.7-2.2.8-1.1.6-1 .4-1.3.3-1.4v-2.4l-.2-1.8-1-4.6-.3-2.2-.1-1.8v-1.6l.2-1.5.2-.8 1-3 .3-1.2v-1.3l-.1-1.4-.3-1.5-.2-.6-.5-1.3-.4-1.2-.8-1.7-.9-1.7-1.1-1.7-1.7-1.8-1.9-1.7-2.2-1.6-2.3-1.5-2.5-1.5-2.5-1.4-2.7-1.3-2.6-1.3-2.7-1.2-2.6-1-2.4-1-2.7-.7-1-.2h-1.3v-.3l.3-.4.5-.6.7-.6.3-.3 1.7-1.2.8-.5 1.9-.9 2.1-.8 1.5-.4 3-.7 4-.7 1.7-.2 1.8-.2 3.8-.2h4.6l2.6.1 3.1.3 3.4.6 5 1 2.5.3 1.2.1 1.9.1h1.9l1.3-.2.9-.2 1.1-.4 1.3-.5 1.1-.5 1.2-.7 3.7-2.3 1.4-.8 1.5-.7.9-.4 1.5-.6 1.4-.4 1.7-.4 1.3-.2 1.5-.1h1.2l1 .2 4.3 1.2 1.2.5.4.3 1.3.8.6.4.5.5.3.4.4.7.2.5.3 1.7.3 1 .5 1.3.8 1.4.3.5 1 1.1.7.8 1.4 1.2 2.5 2 2 1.2 4.7 3 2 1.3 2.4 1.7 1.3 1 1.2 1.3 2.6 3 1 1 1 1 .8.5.6.3.8.2h1.9l.6-.3 1-.6.7-.4 1-.9 1.9-1.8 1.3-1.2 1-.6 1.3-.7.8-.2 1.2-.4 1.7-.4 2.3-.3h4.1l4.8.3 1.6.1h2.1l2.3-.1 5.5-.5 2.2-.2h4.6l2.3.2 2.7.3 1.6.3 2.3.6 1.9.6 2 .8 2 1 2.4 1.2 2.2 1.2 2.2 1.3 3.2 2.1 3.7 2.6 3.7 2.7 9.7 8 6.3 4.9.5.4"/></defs><g clip-path="url(#p8359506be5)"><use xlink:href="#me2177e9e16" y="280.5" fill="#0c1321" stroke="#0c1321"/></g></g></g></g><defs><clipPath id="p8359506be5"><path d="M7.2 7.2h276.7v266.1H7.2z"/></clipPath></defs></svg>