<svg xmlns="http://www.w3.org/2000/svg" xmlns:xlink="http://www.w3.org/1999/xlink" width="392.1" height="374" viewBox="0 0 294.1 280.5"><defs><style>*{stroke-linejoin:round;stroke-linecap:butt}</style></defs><g id="figure_1"><path id="patch_1" fill="none" d="M0 280.5h294V0H0z"/><g id="axes_1"><g id="PatchCollection_1"><defs><path id="m1cdd5e3ede" stroke="#0c1321" d="m266-180.7-.2.2v1.8l.4 2 .8 4.1.5 2.6.2 1.3.5 1.6 1.3 3.7.3 1.3.2 1 .4 3 .5 1.7.8 2.6.7 1.8 1.7 4h-.2l-.8.2-2 .7-3.9 1.7-3.4 1.7-13.3 7-3.4 1.8-5.3 3-6.6 3.6-2.4 1.2-1.5.5-1.2.3h-4.7l-1 .1-1.2.2-7 1.1-2.3.3-2 .1h-2.4l-.9-.3-1.4-.6-.6-.5-.7-1.2-.3-1.4-.2-3.7-.2-1-.3-.9-.5-.8-.4-.4-.5-.3-1.4-.3-1.7.2-1.3.4-4 1.4-1.8.4-1.8.4-4.5.8-1.5.3-2 .5-1.2.4-1.5.5-1.7.7-2 1-.8.5-1.2.7-2.8 1.9-2 1.1-2.3 1.1-4.8 1.9-1.7.8-1.5.7-1.6 1-1 .6-.8.7-1.1 1-.7.8-1.3 1.5-2.3 3.2-5.5 6.4-1.4 1.8-1.7 2.3-1.5 2.4-1 1.8-1 2.1-.3.9-.4 1.2-.4 1.9-.4 2-.2 1.2-.3 4.7-.7 5-.4 3.4-.5 1.8-.5 1.5-.4.9-1.1 2.3-1.4 3-.6 1.5-.4 1.4-.1 1.1v2.5l.4 6.3v2.1l-.2 1.3-.3 1.2-.5 1-.6 1-1.2 1.3-.8.7-.7.4-.7.2h-.3l-5 .8-2.2.3-1.8.2-3.5.2h-5l-3.2-.1-1.5-.2-1.4-.2-1.3-.2-1.2-.4-2-1-.8-.3h-.9l-.7.1-.8.5-.7.4-3.8 3-1.5 1.5-4.4 4-1.5 1.2-2 1.5-1.5 1-1.7 1-4.1 2.2-1.2.8-4.1 3-1.4 1-1.4.7-3 1.7-1.5.7-.3.1-.1-.5-.3-1-.5-1.7-.7-1.8-1-2.7-1.6-3.7-.8-1.8-1.6-3.2-.8-1.5-1.7-2.8-2.3-3.5-1.6-2.2-1.5-2-1.6-2-1.8-1.9L41-53l-2.8-2.3-1.2-1-1.1-1.4-1-1.5-1-1.7-1-2.5-2-4.6-.8-1.8-.9-1.7L28-74l-1.3-2.5-1.4-3.3-2.3-5.5-1.3-2.8-.6-1.6-.4-1.3-.3-1.5-.2-1.2-.2-1.5v-2l.1-1.4.2-1.3.3-1.5.4-1.3.5-1 .6-1 .4-.4 1-1 2.4-2.1 1-1.1.7-.7 2.6-3.3 1-1.3 1.1-1.2 1.1-1 1.5-1.2 1.3-1 1.7-1 1.4-.7 2.4-1 3.3-1.3 2.9-1 1.4-.4 2-.5 4-.8 1.9-.5 2.2-.6 2.5-1 2.6-1.2 3.7-1.8 4.2-2.2 2-1.1 1.2-.8 1.2-.7 1.2-1 1.2-1 .8-1 .6-1 .4-1 .3-1.9.1-1.3v-1.4l-.4-2.8-.5-3-3.6-18.6-1.6-7.4-1-4.4-.5-2-.9-3-.6-1.8-.9-2.3-.7-1.9-.8-1.8-1-1.8-1-1.8-1.3-2.4-1.6-2.5-6.5-10-2.7-4.3-1-1.9-1.4-2.5-5.4-11.1-.8-1.6.3-.4.6-.4.9-.6 1.9-1 2.3-1 1.5-.5 1.7-.6 1.8-.6 3.3-.8 3-.6 3.2-.4 4.7-.6 6.5-.7 2.5-.2 4-.3 7.5-.3 3.8-.2 1.2-.2 2-.3 1.4-.3 1.8-.5 1.5-.5 1.4-.6 1.4-.8 1-.6 2-1.5 6.4-5 2.4-1.6 1.9-1 .8-.5 1.2-.5 1.5-.5 1-.1h1.5l.8.4.6.5.5.5.5 1 .6 1.4.4 1.3 1 4.2.6 1.8.5 1.4.7 1.6.6 1.4.9 1.6 1 1.7 1.4 2.3 1.6 2.3 2.2 3 2.8 3.5 2 2.4 2.4 2.6 1.5 1.5 1 .8 4 3.6.8.7.8.5.6.2.8.2h1l.8-.2.8-.3.4-.3 1.3-.8 9.3-7.3 10.7-8.5 2.7-2 2.8-2 1.4-1 2-1.3 1.5-.8 1.4-.6 1.3-.4 1.2-.3h3.5l1.8.2h2.8l1.5-.1 1.6-.2 2.3-.5 2.4-.6 2.6-.9 1.6-.6 1.6-.7 2.2-1.1 2.4-1.4 1.4-1 .6-.3.1-.3v.1h.3l1.7-1.1 8.7-6.3 2-1.3 3.2-2.2 2.3-1.4.6-.2.4-.1h.2v.6l-.5 1-4 6.7-1 2-1 2-.6 2.2-.3 2-.2 1.9-.2 4.2v1.6l.3 2.8.2 1.5.5 2.1.7 2.1.8 2.2 1 2.1 1.4 2.9 1.5 2.7 4 6.6 1.2 2.2 1.5 2.6 2.3 4.7 2.5 5.6 1.4 3 1.6 3 1.3 2.3 1.4 2 1.1 1.5 1.2 1.2.9.7 2.2 1.4.7.7.2.4"/></defs><g clip-path="url(#pad1986a2e1)"><use xlink:href="#m1cdd5e3ede" y="280.5" fill="#0c1321" stroke="#0c1321"/></g></g></g></g><defs><clipPath id="pad1986a2e1"><path d="M7.2 7.2h279.6v266.1H7.2z"/></clipPath></defs></svg>