<svg xmlns="http://www.w3.org/2000/svg" xmlns:xlink="http://www.w3.org/1999/xlink" width="301.6" height="374" viewBox="0 0 226.2 280.5"><defs><style>*{stroke-linejoin:round;stroke-linecap:butt}</style></defs><g id="figure_1"><path id="patch_1" fill="none" d="M0 280.5h226.2V0H0z"/><g id="axes_1"><g id="PatchCollection_1"><defs><path id="maa9ad8af04" stroke="#0c1321" d="m83.6-237.7-.3.2v.4l.3.7.7.9 1 .9 1.3 1.1 1.7 1.1 1.3.8 1.2.6 1.4.7 1.2.5 1.3.5 1.6.4 1.8.6 1.8.4 1.3.2 7.4 1 1.2.1h4.4l9-.8 8-.5 4.6-.4h1.3l2.3-.4h1.5l.3.2v.6l-.2.4-.4.6-2.5 3-.8 1.2-.8 1.3-.6 1-.3.5-.5 1.1-.3 1.2-.2 1v1.2l.2 2v2.4l-.2.9-.3 1-.4 1-.6 1.2-.9 1.7-.9 1.3-1 1.4-.8.9-1 1-1.4 1.3-1.4 1.2-2.5 2-4.1 3-3.3 2.5-.7.5-.6.7-.4.5-1 1.6-1.6 2.6-.5 1-.2.6-.2.6v1.3l.1.5.2.7.3.6.4.9.7 1 .8 1.2 2.2 3.2 1.2 1.8.5.9.7 1.3.5 1.3.4 1.3 1.1 4.7.7 2.3 1.7 4.4 1.1 2.5.6 1.2 2 3.7.6 1 .8 1.1.5.7.9 1 2.4 2.6 1 1.2.4.8.3.7.6 1.5 1.1 3.8.3 1 .3.5.4.7.6.8.3.3.7.5.9.5 1 .4 2.3.8 2.5.7 1 .4 1.3.4 1 .6.5.4.6.5.6.6.5.7.3.6.2.5v1.6l-.2.8-1 2.3-.2.7v1l.3.4.3.3.5.2.7.2h1.8l1.2-.1 3.5-.9 1.1-.2h.4l1.4-.2 1 .2.9.2.3.2 1.4.7.9.6.6.6.6.8.4.7.4.9 1.2 2.8.5 1 .8 1 .9.9 1 .8 1.8 1.3 3.1 2 2.6 1.6 1.8 1 1.5.7 1.9.9 1.3.6 3.4 1.3 1.1.5 2.3 1.1 1.3.8.7.5.5.4.5.5.6.6.8 1 2 2.9 1 1.4.7.8.9.9 1.1 1.1.6.5 1 .7.6.4 1.2.7 1.1.5 1 .5.5.1h.3l-.1 1.1v1.8l.5 1.5v1.4l-.3 1-.7 1.8-.4 1-.2 1v1.7l.3.8 1 2.2.3.7.6 1.4.4 1.6.1.8v1.7l-.1.7-.2.6-.2.5-.6 1.2-.7 1.4-.7 1-1.6 2.3-1.8 2.7-.6 1-.3.5-.3.8-.4 1.6-.2.7-.4.7-.3.4-.3.4-.4.3-2 1.2-2.7 1.6-3.7 2-1.1-1.4-1.8-2.2-2-2.4-1.7-1.9-1-1-1.5-1.6-3.5-3.4-2.5-2.3-1.4-1.1-2.6-2.3-1.3-1-1.3-1-1-.5-1-.5-1-.4-.9-.3-.9-.2-1.3-.2h-1.3l-1.3.2-1 .3-.7.2-4.1 1.7-1.2.5-.8.2-1.2.3-1 .1H148l-1.4-.2-1.3-.3-.7-.2-1.5-.6-1.5-.8-.9-.6-.7-.6-1.2-1-1-1-.7-1-.6-1-.3-1-.3-.7-.2-1v-2.6l.1-1 .3-1.4 1-4.6.2-1 .1-.9v-1.5l-.1-.3v-.1l-.2-.1h-.5l-.5.5L134-77l-1.5 1.6-1 .9-.6.5-.6.4-.5.3-.8.4-1.5.4-3 .4-1.4.3-1.3.5-1.3.7-1.2.8-4.6 3.2-.7.5-1.3.6-1 .4-1 .3-6.4 1.4-5.7 1.6-1.6.4-3.5 1.2-4.9 2-1.6.5-1 .3-1.5.4-1.4.2-1.5.1-1.3.2-1.4.3-.7.3-1 .4-.8.5-.8.8-.3.6-.3.6-.6 1.8-.2.6-.4.6-.6 1-.4.4-.9.8-.7.4-5 2.8-3.4 2.1-3.6 2-1.5 1-1.4 1-4.8 3.3-2.3 1.6-1.2.8-1.1 1-1 1-.8 1.1-.2.3-.4.9-.3.7-.2.8-.6 2.6-.4 1.2-.6 1.3-.6 1-.3.4-.7.5-.7.4-.8.2-.9.1H37l-1.3-.3-.7-.3-.4-.3v-.1l-.1-.3v-.5l.1-.4.2-.4.2-.4.3-.4.4-.3 1.6-1.3.4-.4.3-.4.3-.4.3-.5.3-1 .2-1v-.8l-.2-.4-.2-.2-.4-.3-.4-.1-1-.3-3.3-.6-1-.3-.4-.1-.5-.2-.3-.2-.2-.3-.1-.4v-.9l.2-.5.4-1 1.2-2.6.1-.3.4-.9 1.7-4 .6-1.2.7-1.3.8-1.3 1.5-2.1 1.4-1.9 4.4-5.6 1.1-1.5.9-1.3.5-.8.5-1.1.4-1.2.1-1v-.2l-.3-1.2-.6-1.1-.9-.9-1.1-1-1.5-1-3.2-2.1-2-1.4-1.7-1.4-1.3-1.2-4.6-4.7-1.7-1.7-1.6-1.4-1.1-.9-4.4-3.4-1.6-1.3-1-1.1-.8-1-.6-.7-.4-.7-.3-.7-.2-.7-.2-1v-2.1l.1-.7.2-.6.5-1.4.5-1.2 1.7-3 .3-.7.3-.9.3-1.4.2-1.4v-1.6l-.3-2 .1-1.3.1-.5.3-.7.4-.7.4-.6.4-.5.7-.5.7-.6 1.2-.7 1-.4 1-.4 2.9-1 1.8-.4 1.5-.4 1.3-.2h5.3l5.4-.1H50l3 .3 2.9.4 2.9.3 4.5.7 3.3.4H68l1.5.1h.8l.8-.3.5-.2.6-.3.7-.9.6-1 .7-2 1.1-2.5.4-1 .2-.8.1-.8v-3.8l-.5-3.6-.2-1.3-.4-1.4-.6-1.3-.8-1.2-2.6-3.7-1-1.5-1-2-.6-.9-2-2.7-.7-1-2.2-2.6-3.3-4.3-1.3-1.4-.8-.9-.8-.6-1.7-1.2-1.4-.9-1.3-.7-1.8-.8-1.7-.6-2.6-.9-1.2-.4-1.8-.4-1.5-.3-1.1-.1h-1.9l-1.7.2-1.8.4-1.1.4-.9.3-1 .4-.3.2-.1.1H32v-.3l-.2-.5-.1-.7v-2.3l.2-1.7.3-1.5.4-1.4.6-1.9.6-1.6.4-1 .6-1.3.7-1.2 1.2-1.9 2.7-4 .6-.8.8-1.5.5-1 .6-1.4.2-.7v-.6l.2-.7-.2-1.4-.4-1-.5-.7-.8-1-2-2.3-1-1.3-.8-1.3-.6-1.3-.6-1.6-1.7-4.7-2-6-1.3-3.6-.3-1.2-.2-1.2v-1l.2-1.5.4-1.7.5-2.2 1.7-5.9.6-2 .6-2.9.3-1.8.2-1.5v-1l.1-2.4v-2.5l-.2-2.4-.3-2.2-.3-2.8-.2-1.2h.4l1.2-.2 3.5-.8 1.2-.4 2.4-.7 2.2-.7 2.3-.9 1-.2.9-.1h1l.8.2 1 .4 1 .5 1 .7 2.8 2.2.9.6 1 .5 1 .2.8.1h.9l.9-.3 3-.9 1-.3h2l.6.3.6.4.6.4.5.6.8.8 1.4 1.7 2.1 2.6 2 2.8 7.3 10"/></defs><g clip-path="url(#p968e1d6a1e)"><use xlink:href="#maa9ad8af04" y="280.5" fill="#0c1321" stroke="#0c1321"/></g></g></g></g><defs><clipPath id="p968e1d6a1e"><path d="M7.2 7.2H219v266.1H7.2z"/></clipPath></defs></svg>