<svg xmlns="http://www.w3.org/2000/svg" xmlns:xlink="http://www.w3.org/1999/xlink" width="495.4" height="342.3" viewBox="0 0 371.5 256.8"><defs><style>*{stroke-linejoin:round;stroke-linecap:butt}</style></defs><g id="figure_1"><path id="patch_1" fill="none" d="M0 256.8h371.5V0H0z"/><g id="axes_1"><g id="PatchCollection_1"><defs><path id="mb9f8a53248" stroke="#0c1321" d="m247-188 1 .5.7 1.1.7 1.5.4 1.8.1 1.6v1.8l-.5 2-.8 2-1.2 2.3-.8 1.1-2.2 3-2.1 2.5-8 8.8-1.4 1.8-1.4 2-1 2-1.1 3-.3 2.7.2 1.4.4 1.5.4.7.7 1.3.8 1 1.1 1 1.4.9 1.2.6.9.3 1.1.2 1.2.1h2.1l5.1-1h.8l.4.2-.1.2-.5.3-2.8 1.7-8.4 5.4-1.5.9-1.3 1-1 1-.6.8-.3 1 .5 2.2 1.7 2.4 2.6 2.5 3.1 2.7 3.7 2.8 4 2.9 4 2.9 8.9 5.8L295.3-78l13.8 9.1 13.2 9 21.2 15-.3.2v.6l.4.7.6.7 3 3.3.5.7.3.7v.7l-.1.5-.4.4-.5.5-.7.4-1.7.8-12.5 5.1-27 11.5-1.3-.5-3.4-.6-14.5-2.4-6.5-1.3-5.6-1.6-5.3-1.9-5-2.2-4.7-2.7-4-3.1-3.2-3.2-2.8-3.4-2.5-3.6-7-10.5-2.2-3.2-1.4-1.6-1.6-1.6-1.3-1.2L231-64l-1.8-.8-1.4-.5-2.5-.5-2.3-.3-7.7-.8-4.6-.6-4.7-1-3.1-.9-2.4-.8-2.4-1-4.5-2.2-2.4-1.3L187-77l-5.6-3.4-6.4-4.4-4.9-3.8-5-4.1-3.2-3.1-1.7-1.7-1.7-2-1.5-2-1.6-2.2-1.3-2.2-1.3-2.6-1-2.2-1-3.3-2.2-9-.7-2.3-.6-1.5-1.5-3.2-1.5-2.6-1.1-1.3-2-2-2.3-1.6-2.5-1.4-3.2-1.5-3.4-1.2-3.4-1-7-2-3-1-3.6-1.5-5.6-2.5-5-1.8-5.2-1.5-3-.8-4.4-.8-4.7-.5-8.3-.4-2.3-.2-3-.5-3.7-1-1.8-.6-6-2.7-2.9-.9-2.4-.4-3-.1-3 .1-3 .5-2.5.5-2.4.7-2.1.7-2 .8-1.3.7-1.3.9-.2-.8-1.4-3-1.7-3.2-4.3-7.2-2-3.4-.5-1.2-.3-1v-1l.3-.8.8-.4h.8l3.4 1.2 1.2.2h1.1l2.8-.6 6-1 1.7-.4 1.7-.6 2-.9 1.7-1 1.1-1 1-.9 1.2-1.2 1-1.4.7-1.3.6-1.4.5-1.6.4-1.7.1-1.4v-1.4l-.2-1.8-.4-1.8-.5-1.8-.7-1.7-1-1.9-1.2-1.9-1.6-2.1-3.4-4.1-5.7-6.2-4-4-8.3-8 .9-.9 1-.7.7-.2.6-.1h.6l.6.3 1.3.7 4.1 3.4 1.2.8.6.3h1.2l.6-.1 1.3-.6 2-1.2 14-9.6h.4l.9.6 1.4 1.2L67-230l3.3 3 3.4 3 4.3 3.4 3.2 2.3 2.5 1.5 1.2.6 3.5 1.6 3 1 5.8 1.2 4.5.7 2.3.2h3.3l2.7-.4 2.8-.8 2.3-.8 3.6-1.7 3.7-2 11.2-6.4 3.7-2 3.4-1.7 3.4-1.4 3.3-.7 2.6-.2h2.7l2.6.5 3.5 1 3.5 1.6 3.2 1.5 3.6 2.1 11.4 7.7 4.7 2.9 4 2 1.8.8 2 .6 2.4.6 2.5.2h1.8l6-.5 3.4-.1h3.5l3.7.4 3.3.6 1.9.5 2 .7 2.3.9 2.7 1.3 2.7 1.6 1.5 1 4.4 3.1 2.7 2.2 2.7 2.6 2.5 2.7 1.4 1.9.5 1v.2"/></defs><g clip-path="url(#p5fb3e0fe69)"><use xlink:href="#mb9f8a53248" y="256.7" fill="#0c1321" stroke="#0c1321"/></g></g></g></g><defs><clipPath id="p5fb3e0fe69"><path d="M7.2 7.2h357.1v242.3H7.2z"/></clipPath></defs></svg>