<svg xmlns="http://www.w3.org/2000/svg" xmlns:xlink="http://www.w3.org/1999/xlink" width="355.9" height="374" viewBox="0 0 266.9 280.5"><defs><style>*{stroke-linejoin:round;stroke-linecap:butt}</style></defs><g id="figure_1"><path id="patch_1" fill="none" d="M0 280.5h267V0H0z"/><g id="axes_1"><g id="PatchCollection_1"><defs><path id="m2eabe109cd" stroke="#0c1321" d="M175.9-259.5h1.3l1.1.2 1.3.2 1.5.3 1.7.4 1.3.4 1.3.5 2 .9 1.4.6 1.2.7 1.2.7 2 1.2 1 .9.9.6.3.4.5.6.2.7.1.5v1.2l-.1.8-.2.8-1.4 3.9-.3 1.3-.2 1.2v.8l.1.7.3 1 .6 1.3.6 1.1.5.9 1.4 2 .7.8.7.8.7.7 1.2.9 1.2.8 1.4.6 1.5.6 1.4.5 1.4.3 1.7.2 1 .1h4.5l2 .3h2.3l.6.2.5.3.3.2.7.7.5.7.6 1.1.5.8.8.8.8.6.7.3h.6l.3.2.6.4.3.3.4.4.3.4.3.5.4 1.1 1 3.5.7 2.4 2.2 6.4.3 1.2.7 3 .6 1.7.4 1 1.2 2.5.4.5 1 1.4.5.8.1.4.2.7.2 2.4.1.8.5 1.5.4 1.3.4.9.6.8.5.8.6.7.5.5.6.5.4.3.4.3h.2l-.2.5-.6 1-2 3-1.4 2-3.3 4.4-2.1 3.1-1 1.6-1.2 2-.7 1.4-1.2 2.7-1.3 2.8-4.7 9.3-1.2 2.7-1.2 3-.8 2.7-.7 2.9-.7 3-.3 1.6-.2 1.5-.1 1.4v3.7l.2 1 .3 1.3.3.8.3.5.4.5.6.7.7.4 1 .5.8.2 2.3.3.7.2 1 .2 2 .8 1 .4 2.7 1.4.7.4 1.4 1 1.8 1.3.8.7 1.8 1.9 1 1 1 .6.9.5 2.6 1.3 1.1.6.7.5.6.5.2.3.5.5.5 1 .1 1.2v1.3l-.2 1.2-.3 1.2-.3.7-.3.9-1.1 2.4-.6 1-.4.6-1 1.4-2 2.5-1 1.3-.7 1.3-.7 1.3-1.4 3.4-1 2.1-.5 1.2-1.2 3.1-.8 1.9-.4.7-.9 1.5-.6.9-1.2 1.5-.3.6-.3.5-.3 1-.8 3.6-.8 3-.6 2-1.1 3.3-.4 1.4-.2 1-.5 3.7-.3 1.5-.8 3.2-.4 2.6-.2.6-.6 1.5-.4 1-.5 1-.7 1-.9 1.3-2.1 3-.4.7v1l-.3 1.3-.5 1.5-.7 1.4-1 1.4-1.3 1.4-1.3 1-1.6 1-1.7 1-1.8.5-1.2.3H205l-1.6-.4-1.5-.4-1.5-.6-3.6-1.5-.9-.4-1.5-.5-1.2-.4-3.8-.7-1.2-.4-1.6-.7-2.8-1.7-1.5-.8-1.5-.6-1.8-.4-1.3-.3-1-.1h-2.4l-1.5.2-4 .9-1.3.1h-1.1l-1-.3-1-.6-1.2-1-3-3.3-1.9-2.2-1.1-1.6-1-1.6-.5-1-.6-1.3-.7-1.7-.6-1.9-.4-.8-.5-.7-.4-.5-.5-.4-.9-.6-.7-.4-1.5-.6-1.5-.4-2.4-.3-1.8-.2h-1.6l-.4.2-2.3-2.3-2.1-2.3-4.9-5.4-4.4-5-1.5-1.6-1.3-1.7-.5-.7-.5-1-.4-.8-.2-1V-74l.3-5.6v-1.7l-.2-3.5-.1-4-.1-1-.2-1-.5-2.3-1-3-.3-1.4-.1-1.5.1-1.5.3-1.6.6-2.6.6-3 .2-1.5v-1.5l-.1-1.4-.5-1-.7-1.1-.7-.8-.7-.8-.8-.7-.9-.6-1.6-1.2-2.1-1.4-6.3-3.6-2-1.3-5.3-3.7-1.6-1.2-4.7-3.6-1.9-1.3-2-1.3-5.5-3.6-3.9-2.4-1.7-1-1-.5-.6-.2-.4-.1-2-4L72-155l-1.3-2.2-1.6-2.5-1.1-1.6-3.1-4.1-3.4-4.6-2.4-3.2-3-3.5-3.2-3.7-.5-.6-.6-.4-.8-.5-.9-.4-.9-.3-.8-.1-1.9-.2-.7-.1-1.7-.4-3.8-.8-1.6-.5-1.7-.5-1.7-.7-2.6-1L30-188l-7.7-3.5-1.3-.5h-.3l1.4-4.5 1-3.5.5-1.7v-.9l.1-.8v-.8l-.2-1.8-.5-1.8-.6-1.8-2.7-6.8-.5-1.4-.4-1.4-.1-1.3.1-1.4.4-1.3.1-.4.8-1.7.6-1 .8-1 .7-1 2.5-3 8-9.4 1.1-1.3 1-1.1 3-2.8 1.6-1.8 1.8-2.3.6-.6 1-.9.6-.4 1.5-.9 1.8-.8 1.8-.8 5.8-2 6-2.5 1.6-.7 1.3-.7.6-.4.4-.4v-.1l2.4 1 1.2.6 1.8.6 1.6.5 1.7.4 1.7.2 3.2.3 3 .4 1.4.2 3 .5 2.8.3h.7l1 .3 1 .3.7.4 2.5 1.7 1.3.9.8.4.9.4.7.2.8.2.8.2h1.6l.6-.1 1.3-.3 2.3-.8 1-.3 1-.2h1.7l.8.3 1 .5 1.6 1 .8.5.7.6.7.8.7.9.5 1.2.3.8.3 1.8.1 1 .1 1v2.9l-.3 2.1-.5 4-.2 1.3v2.6l.3 1.4.6 1 .2.5.7.7.7.7 1 1 1.1.8 2.5 1.8 6 4 2.4 1.5 1.4.7 1.2.5 1.1.3 1.1.2.9-.1.8-.3 1-.5 2.8-1.5 2.6-1.3 1.7-1 2.5-1.6 2-1.4.8-.7 1.5-1.3 1.5-1.4 1.5-1.5 1.3-1.3 1.6-1.9 1.3-1.7.8-1.3 2.4-4 3.2-5.1 1-1.8 1.6-2.5 5-8.7 2.5-4.1"/></defs><g clip-path="url(#pfe5cef503e)"><use xlink:href="#m2eabe109cd" y="280.5" fill="#0c1321" stroke="#0c1321"/></g></g></g></g><defs><clipPath id="pfe5cef503e"><path d="M7.2 7.2h252.5v266.1H7.2z"/></clipPath></defs></svg>