<svg xmlns="http://www.w3.org/2000/svg" xmlns:xlink="http://www.w3.org/1999/xlink" width="354.5" height="374" viewBox="0 0 265.9 280.5"><defs><style>*{stroke-linejoin:round;stroke-linecap:butt}</style></defs><g id="figure_1"><path id="patch_1" fill="none" d="M0 280.5h265.9V0H0z"/><g id="axes_1"><g id="PatchCollection_1"><defs><path id="m33e97e6300" stroke="#0c1321" d="M98-239.3v.2l.3 1 .4 1.1 1.6 4 1.5 3.3 3.2 6.6 1.6 3.4 1.7 4.3 3.2 8.6 1.2 2.8.6 1.3.6 1.2.5 1 1.2 1.6 1 1.2 1.3 1 .6.3 1.2.3 1.9.2h5.1l14.6-1 5-.3 9.3-.2h5.4l2.2.2 1.9.2 2.3.5 2.2.6 2.6.9 1.2.5 2.6 1.3 2 1.2 1.5 1 2 1.6 2.7 2.1 2 1.6 5.6 4.8 2.9 2.5 1.7 1.3 2 1.5 2 1.4 3 2 2.8 1.6 6.4 3.4 1.8 1 2 1.3 1.4 1 1.4 1.1 2 1.7 2.3 2.2 2.3 2.4 2.3 2.5 1.6 1.9 5.8 7.1 1 1.1 1.8 1.9 1 .8 1 .8 1.7 1 1.3.8 1.6.8 1.5.5.6.2h.2l-13.4 24.4-1.7 3-1.2 2.5-.7 1.6-.4.9-.2.9-.2.9-.1.7v2.1l.1.6-.3-.2-1.2-.4-2-.5-2.5-.6-2.6-.6-1.7-.2-4.6-.7-1.6-.2-3.8-.2-2-.1h-2.8l-1.5.3-1 .3-1.2.7-.6.7-.3.3-.3.5-.2 1-.2 1-.1 1.5v1.4l.2 1.2.4 1.5.4 1 .6 1.1.5.7.7.8 1 .7.8.5.6.4 1.5.6 4.3 1.2 1.8.7 1.7.8.9.5 1.1.7.8.6.9.7.6.7.9 1.1.8 1.3.7 1.6.7 1.7.7 2 .6 2 1 3.8.4 1.8.6 3.3.3 1.4.2 2.5v3.2l-.1 1.3-.4 1.3-.4 1.2-1 2.1-1.2 2.4-.8 1.4-1.3 1.8-1 1.3-1.5 1.8-.9.9-1 1-1.7 1.1-1 .7-1.7 1-1 .5-1 .4-.9.2-.7.1-1.1.1h-2.4l-1.3-.2-1.7-.4-4.2-1.3-1.6-.5-1.4-.3h-4.4l-1.3.2-1.3.2-1.3.3-1.9.5-1.8.6-3 1-5.3 2.2-2.9 1.2-1.8.8-2.7 1.4-1.4.8-2.8 1.8-3.8 2.6-3.8 2.8-2.1 1.8-.7-.6-1.6-1.1-5.6-3.8-.8-.7-1-.8-1.7-1.7-1.6-1.8-.6-1-1.6-2.2-1-1.3-2.3-2.2-4-4.1-1.6-1.6-5.5-4.7-1.8-1.6-2-1.5-1-.7-1-.7-1.2-.6-1.1-.6-2.4-1-4.1-1.4v-.1l.2-1 1.4-3.3.8-2.2.6-2.2.4-2.3v-2.2l-.2-1.3-.2-.6-.4-1.2-.8-1.8-3-6-2.5-4.9-1.4-2.6-.7-1.2-1-1.6-3.2-4.7-1.8-3-1-1.8-.9-1.9-.3-.7-.7-2-.4-1.7-.2-.8-.2-1.5-.1-2v-3.3l.6-7.7v-2.6l-.1-.8-.2-1-.3-.9-.5-1.1-.2-.4-.6-.9-.9-1-.5-.5-.7-.5-1-.6-.6-.3-1-.5-3.2-1-.9-.3-1.5-.8-1.1-.7-1.2-.8-2.8-2-1.2-.9-1.5-1-1.4-.7-3-1.6-6.3-3-2.4-1.2-1.8-1-.8-.5-1-.7-1.3-1.3-.3-.6-.3-.6-.4-.8-.4-1.7-.8-4.8-.3-1.3-.2-.8-.4-.9-.4-.8-.7-1-.9-.9-.9-.7L46-166l-1-.8-.8-.9-.4-.7-.3-1.3v-1l.3-1.7.9-4.2.2-1.2v-2l-.2-1-.2-.8-.4-1-.7-1.1-1.2-1.5-1.3-1.4-1.5-1.3-4.6-3.7-.8-.8-2.3-2-2.4-2.7-1.2-1.4-2.2-2.8-3-4-.6-1-1.2-2-1-2-.8-2-.5-2v-2.1l.1-1.3.4-1.2.4-1 .6-1.2.3-.5.4-.5.2-.1v-.2l.2-.5.4-1.1.7-1.5 2.4-4.6 3.7-6.7 1-2 .9-1.7.7-1.7.9-2.7 1-4.7.3-1.4.5-1.7.7-1.6.6-1 .7-1.1.8-1 .6-.7.6-.4.8-.6.7-.3 1-.3 1.2-.1h1.2l1.2.1 1.2.2 1.7.5 1.2.5.8.5 2.2 1.7 1.3.8 1.4.7 1.4.5 1.5.4H58l1-.2 1-.4 1.2-.6 1.5-1 .7-.5.7-.6.3-.5v-.6l-.2-.4-1-1-.4-.3-.1-.4.2-.4.7-.4h1.2l1.5.3 1 .3 1.8.8 1.8 1 1.7 1.2 1.6 1.2 1.2.8 1 .9 1 .9 3.6 3.6 1.3 1.2 1.5 1.2 1.6 1.3 1 .6 2.1 1.3 5.3 3.1 3.1 1.7 1 .5"/></defs><g clip-path="url(#pbdb18ae048)"><use xlink:href="#m33e97e6300" y="280.5" fill="#0c1321" stroke="#0c1321"/></g></g></g></g><defs><clipPath id="pbdb18ae048"><path d="M7.2 7.2h251.5v266.1H7.2z"/></clipPath></defs></svg>