<svg xmlns="http://www.w3.org/2000/svg" xmlns:xlink="http://www.w3.org/1999/xlink" width="415.2" height="374" viewBox="0 0 311.4 280.5"><defs><style>*{stroke-linejoin:round;stroke-linecap:butt}</style></defs><g id="figure_1"><path id="patch_1" fill="none" d="M0 280.5h311.4V0H0z"/><g id="axes_1"><g id="PatchCollection_1"><defs><path id="m90ef29e7a2" stroke="#0c1321" d="M240.9-247.2v.6l.6.6 1 .5 1.1.3h8.9l1.2.2 1 .2.9.3 1 .4 1.5.7 2.7 1.4 2.2 1.1 1 .7 1 .7.5.6.5.5.5 1 .2 1.2-.1.9-.3 1-.5 1.2-.6 1.2-1 1.3-1 1.3-1.1 1.4-.7 1.1-.6 1.2-.6 1.3-.5 1.2-.4 1.2-.4 1.4-.3 1.3-.2 1.3-.1 1.2-.1 1.3v5l.4 3.4v4.7l-.3 1.3-.6 3-.4 1.5-.9 3.2-.6 1.6-.2.6-1.8 3.5-.6 1.4-.4 1.3-.3 1.2v1.1l.3.9.3.3.5.4.8.3.8.2 1.4.3 1.3.1 2.2.3 2.4.1 4.2.3 1.2.1 1.5.2 1.4.3 1.9.6 2 .8 1.1.6 1.1.7 1.4 1.3 1.3 1.4 7.3 9.2.9 1 .8 1.2.9 1.5.4.8.4 1.2.2 1.3.2 1.2v1.9l-.2.8-.3.8-.5 1-.9 1.8-1 2.3-.7 1.3-1.5 2.6-1 1.4-3.2 4.2-1.6 2-.7.9-.8.8-1.6 1.4-2.3 1.7-3.2 2.2-1.4 1-1.4 1.1-1.3 1.2-1.2 1.2-.5.7-3 3.7-3.2 3.4-.9 1-.3.6-.5 1.2-.5 1.4-.3 1.6-1 6.6-.3 1.7-.3 1.7-.7 2-.5 1.4-.8 1.7-1.8 4-1 2.4-.8 2.5-.4 1.4-.2 1-.1 1v1.8l.2 1.6.2 1 .7 2 .6 1.4.7 1 .6.8.4.4.4.3-.9.8-.8.7-.4.4-.4.7-.5.7-.5 1.1-1.4 3-.3.5-.3.5-.6.6-.6.7-3.2 3-.3-.3-.9-.5-1-.6-.9-.4-1-.3-1.5-.4-2.7-.7-3.2-1-1-.3-1-.3-1.6-.2-4.2-.4-1-.2-1.5-.3-4-1-1-.1-1-.1h-.7l-.8.1-.7.3-.7.5-.4.5-.4.6-.3 1-.1 1-.3 3.4v.6l-.3 1-.3.7-.3.6-.6.8-.7.8-.5.4-1 .6-.8.3-3 1-1.5.7-1.6.8-1.7 1-2.2 1.5-2.5 1.8-2.2 1.8-1.6 1.5-.6.6-.5.6-.5.8-.3.5-.4 1.3-.1.9-.3 3.7-.1.6-.3 1-.2 1-.4 1-.7 1.3-.6 1.1-1.5 2.2-1.3 1.7-1.4 1.6-1.3 1.3L178-22l-.9.7-.7.4-.5.3-.8.4-1 .4-1 .2-.8.1-1 .1h-1.4l-.7-.2-.8-.1-1.1-.4-1-.6-1-.6-.7-.6-1-1-3.4-3.4-1.1-1-1-1.3-1-1.3-.9-1.4-.7-1.3-.4-.9 3.3-1.6 1.5-1 1.4-1 .7-.5 1-1.1.8-1 .8-1.2 1.2-2.2.8-1.7.4-1 .8-1.8.4-1.1.3-1.1.1-1.4v-1.3l-.1-1.4-.6-2.9-.3-1.7-.4-4.4v-1.3l.1-1 .2-1 .5-1.7.9-2.4 1.5-4 .4-1.3.5-1.8v-.8l.2-1v-.7l-.2-1-.3-1.3-.5-1-.7-1-.9-.9-1.2-.8-1.5-.7-1.6-.5-1.7-.3-1.8-.1h-2l-2 .3-2 .3-1.9.5-2 .5-4.8 1.3-1.9.3-2 .3-1 .1-2.2.1-1 .1-2.7.4h-1.1l-2.5-.1h-1.2l-2.2.6-1 .2-1.5.1h-2.3l-1.4-.1-1-.3-.9-.3-.9-.6-.6-.4-1.2-1.2-.6-.7-.4-.6-.3-.6-.5-1.3-1.5-4-.9-2.2-.9-2-2-4.2-1-2.4-.6-1.5-.5-1.5-.6-1.8-.5-1-.5-.9-1-1.5-1.3-1.7-2.4-2.9-1.2-1.4-2-2.3-3.8-4L90-129l-1.3-1.4-.9-1.1-.7-1-.6-1-2-3.8-1.8-2.9-1.3-1.8-.8-1-.7-.9-1.3-1.3-1.2-1.1-1-.8-2.7-2-1.7-1.5-1.2-1.3-2.1-2.5-.4-.5-.5-.4-.6-.3-.5-.2-.7-.1h-.6l-1 .3-2.7 1-.9.3-1.2.3-3.4.7-4.1.8-3.7.5-1.8.2h-1.9l-2.1-.1-5-.5-1-.2-1.3-.2-1.2-.3-1.6-.5-.8-.4-.7-.3-.7-.3-1-.6-.5-.5-.8-.6-2.8-2.7-.5-.3-.4-.3-.5-.2h-1.5l-.2.2-.2.3h-.1l-.2-.3v-.2l-.1-.6v-.6l.2-.7.3-.7.4-.7.6-.7 3-3.4.7-.9.4-.6.4-.8.3-1 .1-.9.1-1v-1.8l-.2-.9-.5-2-.3-1.2-4.7-14.5-.4-1.2-.4-1.5-.4-1.9-.2-.9v-1l-.1-1.1v-.6l.2-.6.1-.3.3-.5.3-.5.7-.7 3.5-2.7.8-.8 1.8-2 .7-.7 1.1-1 .8-.5.7-.4.8-.4.4-.2h.1l.3.2.8.3 1.2.4 2.4.7 3 .7 8.2 1.7 2.4.4h1l1.8.1 1.2-.2.8-.3.6-.4.4-.4.8-1 1-1.6.9-1.1.8-1 1-1.2 1.2-1 .7-.6 1.2-.8 1.4-.9 1.1-.6 4.9-2.5 1.1-.6 1.9-1.2 2-1.3 2.8-2 5.2-4.1 1.5-1 2-1.4 2.6-1.5 2.7-1.5 2.6-1.2 4.3-2 1.2-.6 2.2-1.2 1.4-.8 2.4-1.4 2.2-1.5 3.6-2.4 1.2-.8 1.2-.7 1.3-.7 1.2-.5 1.3-.4 1.3-.4 4.4-1 2.8-.6 7.4-2 2.7-.7 1.5-.3 1.6-.2 1-.1h.8l.4.3.8.3h1l1.3-.3 1.4-.6 1.5-.8 3.5-2.2 1.7-.9 1.8-.7 1.9-.5 1.8-.2h1.8l1.3.4 1 .5 1.2.5 1.3.9 4 2.8 1.6 1 1.3.7 1.3.6 1 .3 2.5.8 1.4.4 1.4.3 3.3.5 3.6.4.9.1 1.2.2 2 .5 2.3.6 2.2.7 3 1.2 2.1.9 1.9.8 5 2.1 2 .8 1.6.6 1.7.6 1.5.4 1.1.3 2 .3 1.8.2h2l1.4-.1.6-.1 2.2-.5 2.1-.7 1.6-.7 4.8-2.2 2.6-1.2 1.3-.5 1-.3h.3"/></defs><g clip-path="url(#p928f7a8abe)"><use xlink:href="#m90ef29e7a2" y="280.5" fill="#0c1321" stroke="#0c1321"/></g></g></g></g><defs><clipPath id="p928f7a8abe"><path d="M7.2 7.2h297v266.1H7.2z"/></clipPath></defs></svg>