<svg xmlns="http://www.w3.org/2000/svg" xmlns:xlink="http://www.w3.org/1999/xlink" width="495.4" height="363.7" viewBox="0 0 371.5 272.8"><defs><style>*{stroke-linejoin:round;stroke-linecap:butt}</style></defs><g id="figure_1"><path id="patch_1" fill="none" d="M0 272.8h371.5V0H0z"/><g id="axes_1"><g id="PatchCollection_1"><defs><path id="m37178c67a9" stroke="#0c1321" d="m300-126.9-.1.6-.6 1.2-.7 1.2-1 1.4-2.1 2.6-2.6 2.7-3.7 3.3-2.8 2.2-2.8 1.8-2.9 1.6-2.8 1.2-2.7.7-2.7.3-5-.2-2.4.2-1.7.3-5.2 1.6-2.1.5-2.3.3-3.5.1-3.7-.1-11-.7-3.5-.3-3.4-.7-2.8-.8-2.7-1-3.2-1.3-4.1-2-2-.8-2-.6-2.2-.5-2-.4-2.4-.2H204l-2.6.1-1.6.3-1.7.6-2.7 1-3.2 1.8-3.3 2.1-3.3 2.4-3.3 2.5-3.3 2.6-3.2 2.8-6.4 5.5-19 17-9.7 8.4-6.6 5.6-3.4 2.8-4.9 3.8-6.3 4.7-8.8 6.1-8 5.3L83.5-25 80-22.5l-31 3.6L40-54.1 29.5-94.6l-3.2-12.8-1-4.2-.8-4.1-.6-4-.4-4v-3.7l.4-3.6 1-3.2 1.7-2.5 2.2-2.3 1.7-1.3 1.8-1.3 2.5-1.6 2.7-1.5 6.2-3.2 13.9-6.6 3-1.5 3.6-2.2 2-1.3 2-1.5 1.6-1.4 1.4-1.5 1.8-2.4 1-2.7.4-2.8-.2-2.5-.6-2.6-.8-2.7-1.2-3-1.4-3-1.7-3.2-2.3-4.2-5.8-9.6-1.6-2.9-.8-1.6-.1-.8 18.5-7.9 8.6-4 10.2-4.9 4-1.7 2-.7 2-.5 1.8-.4h1.8l1.6.3 3.2 1 1.7.2h1.3l1.3-.2 1.5-.3 1.6-.5 2-.9 4.2-2 6.6-3.6 34-19.8 2 2.7 3.8 4.5 3.3 3.5 3 2.8 3 2.4 3.1 2 3.2 1.5 2.5.7 1.8.2 2 .2h9.4l2-.2 2.3-.6 2.2-.9 4.2-2.1 1.3-.6 2-.6 1.5-.3h3.1l1.4.3 4.7 1 1.4.2 1.7.1h1l1-.1 1.7-.4 1.3-.3 2.6-.9 3.6-1.3 1.6-.5 2.4-.4h2.5l1.7.3 1.5.4 1.2.5 1.3.9 1.2.8 1.8 1.7 2 2.3 5.4 6.5 2.8 3 .8 1 .7 1 .4 1.1.3 1.1.2 1.3v1l-.1 1-.3 1-.5 1.5-2.8 5.7-.2.6v1.3l.4 1 1 1.5 4.1 4.6 1.3 1.7.8 1.2.6 1.3 2 4.3 1.3 2.1 1.1 1.5.7.7 1.2 1 1.2.6 1 .4 1.2.4 2.4.4 2 .1h2.6l3.4-.3 4.3-.5 7-1 4-.3h6.9l4.4.2 3.9.4 2.4.3 3.4.8 2.6.7 1.9.7 1.8.7 2.2 1.1 1.7 1 2 1.6 1.2 1.3 1.6 1.8 1.2 1.7.4.8.6 2 .3 2 .2 1.4v1.7l-.2 3.3-.4 2.5-.5 2.2-.5 1.9-.4 1-.3.6-1.3 1.9-1.4 1.5-1.6 1.5-2.7 2-3.2 1.8-8.6 4.2-1.8 1-7.2 4.6-3 1.8-3.4 1.6-1.7.8-8.2 3.4-1 .5-.9.6v.3l.2.1"/></defs><g clip-path="url(#p7aed66357d)"><use xlink:href="#m37178c67a9" y="272.7" fill="#0c1321" stroke="#0c1321"/></g></g></g></g><defs><clipPath id="p7aed66357d"><path d="M7.2 7.2h357.1v258.4H7.2z"/></clipPath></defs></svg>