<svg xmlns="http://www.w3.org/2000/svg" xmlns:xlink="http://www.w3.org/1999/xlink" width="423.6" height="374" viewBox="0 0 317.7 280.5"><defs><style>*{stroke-linejoin:round;stroke-linecap:butt}</style></defs><g id="figure_1"><path id="patch_1" fill="none" d="M0 280.5h317.7V0H0z"/><g id="axes_1"><g id="PatchCollection_1"><defs><path id="m2fdb049b9f" stroke="#0c1321" d="m163.4-233.3.4-.1 1.5-1 1.3-.7 1.2-.4 1.4-.1h1.5l1.5.4 1.9.8 5 2.3 1.8 1 1.2.6 1 .8 1.6 1.4.8.8 1 1.1.8 1.3 1.4 2 2 3.3 1.1 1.5 1.1 1.3 1.3 1 .9.6 1 .3.9.3 1 .2 1 .1 1.7.1h11.1l1.7.2 1.5.2 1.5.3 1.2.4.8.3 1.1.5 1.2.7 1.2.8 1.7 1.5 2.6 2.4 1.2 1 1 .9 1.5 1 1.8.9 1.7.7 1.7.5 2 .4 1.7.1h1.6l1.9-.1 1.4-.2 6.3-1.5 7.8-1.9 2.2-.6 1.8-.7 1.4-.7 1.8-1.2 1.7-1.3 1.4-1.2.8-.9.6-.7 1.2-1.6 1.4-2.1 1-1.6v8l-.4 8-.2 1.5-.7 4.6-.1 1.5v3.3l-.2 1.9-.1 1.3-.1.7-.3.8-.2.6-.4.7-1 1.1-2.7 2-.9.9-1 1-2.1 2.5-4.4 4.7-.8 1-.6.8-.4.7-.4 1v.9l.3.6.5.6 1 .6 1 .4 2.5 1 7.7 2.8 4 1.6 1.8.8 1.3.7 1.4.8 1 .6.8.7 1.5 1.4 1 1 .6.7.6.7 1 1.5 1.4 2.5 1 1.5 1.5 2.2.9 1 1.5 1.5 4.8 3.9.6.7.4.6.2.6.2.8v1.4l-.2.9-.5 1.7-.4 1-1 2.1-1.1 2.5-1 1.6-2.6 3.3-.4.9v.2l-.2.1v.3l-.2 2.3-.1 1.2-.3 1.3-.5 2-.5 1.6-1.1 3.1-.9 2-.8 1.7-1.6 2.7-.6 1-2.8 3.6-.8 1-.7.7-1.2.8-.7.3-.9.2-.4.1-1.3.1-4.1-.1-1.5-.2-2-.3-1-.2-1.5-.4-1.3-.6-1-.6-5-2.8-2.9-1.5-4-2-6.6-3.2-5.9-2.6-4-1.8-2.4-.9-1.8-.6-1.6-.5-1.8-.4-.8-.2H222l-1.3.3-1.1.5-1 .6-1.6 1.4-1 1.2-1 1.2-1.3 2-4.7 7.2-1.1 1.6-2.2 3-2.3 2.9-1.3 1.4-3 3.2-4.8 4.9-1.2 1.4-1.2 1.4-1 1.5-.8 1.4-.4 1.5v1.6l.3 1.1.5 1.5.8 1.9.9 1.6 1.3 1.7 2.6 3.3 1.1 1.6.7 1.2.6 1.3.4.8.3 1 .2 1 .2 1v1l-.1 1.4-.2 1-.2 1-.3 1.2-.6 1.6-1.5 3.4-2 4.5-2.2 5-2.3 4.6h-.8l-2.9.7-1.8.1-2.1-.2-2.2-.5L176-31l-2-.4-2 .2-1.7.6-1.5 1-3 2.3-1.5 1-1.6.7-1.4.2H160l-1.1-.1-1.6-.2-3.8-.6-2.2-.3H149l-1 .2h-.6l-2 .6-1 .4-2.8 1.2-4.7 2-2 .9-1.7.6-1.3.4-1.4.4-2 .4-1.5.1-1.2.1h-1.3l-.8-.1-1.4-.3-1.2-.3-.4-.2-1-.5-1-.7-1.3-1.3-1.5-1.7-1.2-1.7-1.6-2.5-1.7-3-1.5-3.1-1-2.3-.9-2.6-.4-1.5-.5-2-.6-2.4-.5-2.7-.5-3.7-1-9.4-.4-3.3-.9-5.2-.7-3.5-.7-2.5-1-2.8-1.2-3-2.3-5.6-1-2.6-.5-1.8-.6-2.2-.5-2-.5-2.2-.8-4.5-.3-1.2-.3-.7-.7-1-.4-.2-.8-.1h-.6l-.8.1-1.2.4-1.3.5-1.8.9-1.7.9-2.4 1.4-1.6 1-1.9 1.3-6.8 5-3.1 2.2-3.8 2.4-8.5 5.3-3 2-1.1.9-.5.2-1 .4-3.1 1-3.1.8-5.5 1.3-2.8.8-1.5.6-1.5.6-5.8 2.6-1.3.6-.9.2-1.2.2H22l-.3-.2-.5-.5-.2-.5v-1.3l.2-1.4.3-1 .3-.6.3-.6.8-1.2 2.4-3.4.8-1.6.6-1.2.9-2.6.6-1.7 1-1.8.5-.8.4-.5.7-.9.7-.6.4-.3 1-.5.9-.4.6-.2 2.8-.5.9-.3 1.3-.5 1.2-.7 1.8-1.2 1.5-1.2 1-.9.8-.9.7-1 .4-.8.3-.9.2-1v-.4l-.2-.6-.3-.6-.6-.6-.4-.2-.4-.2-1-.1-1.7-.2-1-.2-1-.5-.3-.4-.3-.8-.1-.7v-1.5l.3-1 .3-1 1-3 1.4-3.8.6-1.6.9-1.5.8-.9.8-.7.6-.5 1.2-.8 3-1.8.7-.6.6-.5.7-.9.3-.7v-.8l-.2-.8-.3-.4-.3-.4h-.2l.6-.2 1-.7 1.1-.8 1-.9 1.7-1.7.6-.7 4.9-5.8.8-1 1.8-1.7 1.8-1.6 1.9-1.7 7-5.8 2-1.7 1.6-1.7 1.5-1.7 1.2-1.8.7-1.4 1-2.9.5-1.4.4-1.5.1-1.5v-1.5l-.3-1.5-.5-2.2-1.5-5.5-.3-1.6-.2-1.7v-2.7l.2-.6.2-.3.4-.7.9-.7 2-1 .9-.6.3-.2.4-.5.4-.6.2-.6.2-.5.1-1.1v-4.9l.2-1.3.4-1.8.7-2.9 1-3.3 1-2.7 1.9-5.5.6-2.1.4-1.3.1-1v-.6l-.1-.6.1-1 .5-2.1.6-2.2 1-2.3 1.3-3 1.1-2 .6-1 .7-.9 1.3-1.5 1.3-1.2.3-.1 1.2-.6 1-.2h1l2.5.1h1.3l.7-.2.5-.3.5-.5.5-1.2.2-1.4.3-3.6v-.8l.4-2.1.1-1 .2-3.1.1-1.4.4-1.1.5-1 .6-.5.6-.2h.7l.7.4.7.4.6.4.7.6 1 1 1.2 1.5 1.2 1.8 1.1 2.1 5.8 11 1.5 2.7 1.4 2.4.8 1.2 1.2 1.7 1.2 1.5 1.2 1.2 1 .7.7.4.6.2 2.1.5 1 .2.6.3 1 .4.8.5 2.1 1.4 1.2.7 2.5 1.1 2 .9 1.7.5 1.4.4 1.1.1h.8l.6-.3.4-.1 1-1.1 1-1.7.3-1 .4-1.2 1-4 .4-.8h.3"/></defs><g clip-path="url(#pa54a7c2848)"><use xlink:href="#m2fdb049b9f" y="280.5" fill="#0c1321" stroke="#0c1321"/></g></g></g></g><defs><clipPath id="pa54a7c2848"><path d="M7.2 7.2h303.3v266.1H7.2z"/></clipPath></defs></svg>