<svg xmlns="http://www.w3.org/2000/svg" xmlns:xlink="http://www.w3.org/1999/xlink" width="337.2" height="374" viewBox="0 0 252.9 280.5"><defs><style>*{stroke-linejoin:round;stroke-linecap:butt}</style></defs><g id="figure_1"><path id="patch_1" fill="none" d="M0 280.5h253V0H0z"/><g id="axes_1"><g id="PatchCollection_1"><defs><path id="m22e706afc9" stroke="#0c1321" d="m167.1-252.3-.7 1-1.2 1.4-.7 1-.6 1-.5 1.4-.4 1.8-.3 1.7-.4 4.9v4.2l.3 1.8.7 4.1v3l-.3 3.1-.2 1.5-.7 3-.2 1.2v.7l.1.7.3.7.3.5.7.7.8.4.7.3 1 .3h1.7l1.4-.3h1.9l1 .2 1.2.4 1.3.6 1.6.8 1.6 1 1.1.8 1 1 3.8 3.7 8 7.5 2 2 3.7 3.9 1.8 1.7 1.5 1.2 1.5 1 2.1 1.5 1.9 1.1 4.8 2.4 6.6 3.4 5 2.8 2.4 1.2 2.5 1.1 2.4.7 1.3.2h2.3l.6-.1.6-.2.5-.2-.3 1.2-1.7 7.1-.6 2.4-1 3.5-.7 2-.7 1.9-.9 1.7-.8 1.3-.9 1.2-.4.5-.5.5-.7.6-1.7 1.1-2.8 1.7-1.3 1-1 .8-1.7 1.6-2.5 2.8-2 2.2-2 2-4.3 3.7-1.5 1.5-1 1.2-.9 1.1-.9 1.7-.4 1.2-.4 1.2-.6 2.6-1.3 4.3-.5 1.2-.3.5-.6 1-.4.4-1.2.9-1.6.5-1.7.2-4.4.1-2 .3-2 .4-2 .6-1.5.6-1 .5-1.8 1-2.1 1.3-3.5 2.4-2 1.4-1.9 1.7-1.6 1.6-1.3 1.5-.9 1.3-.4.7-.3.8-.2.7-.2 1.1v7.1l-.2 1.5-.3 2-.4 1.2-.4 1.2-2 5.4-.9 2.4-.7 2.5-.5 2.6-.3 3.1-.2 3.2v3.2l.2 3.3.3 3.3.3 3.2 1 8-.8-.2-1.7-.3-2-.6-.9-.3-1.5-.6-2.5-1.4-.4-.2h-.7l-.3.2-.2.2-1.2 1.5-.4.3-.3.2h-.7l-2.5.1h-1l-.4.2-.7.2-.5.5-.5.7-.3.6-.5 1.7-1.5 6.6-.3 3.6-.2 1.4-.4 1.5-.2.7-.6 1.5-.5 1-1.2 2.5h-.5l-.7.1-1.7-.1-1.2-.2-1.8-.4-1.7-.4-1.5-.5-2.7-.9-1.5-.6-3.2-1.4-2.3-1.2-2-1.2-1.3-1-1.4-1-2-1.9-2.2-2.2-2-2.2-3-3.6-1.9-2-1.8-1.5-1-.8-.5-.4-1.3-.7-1.3-.5-1-.5-1.6-.5-4.3-1.3-1.4-.5-1.1-.5-3.4-1.7-1.1-.5-1.7-.5H78l-.7.2-1.2.4-1 .5-1.2.8-4.1 3.2-1.8 1.2-.6.3-1 .4-1.4.3H63l-2.3-.3-1.9-.4-2.5-.7-1.4-.6-1.3-.6-.8-.5-.5-.4-.8-1-.5-.9-.2-1v-.8l.2-.8.3-.5.2-.4.5-.5.6-.4.7-.3.7-.2h7.6l1.4-.2 1.5-.4.7-.2 4.5-1.7.8-.5.4-.4v-.2l.2-.4v-.6l-.1-.2-.4-.6-.7-.6-.7-.5-.8-.6-4.6-2.7-1-.7-1.3-1-1.1-1-1.5-1.3-.6-.8-.9-1.1-.7-1-.5-1.2-.7-1.8-.3-2.2V-77l.3-2 .4-1.8.6-1.7.5-1.7.2-1.3.2-1.2V-89l-.1-.8L57-91l-.4-1.5-.6-1.7-.6-1.3-1.5-3.1-6.2-11.8-2-4.3-1.4-3-4.5-11.2-1.2-2.7-1-2-1-1.6-.7-1.3-1.4-2-1.6-2-5.8-7.1L24-151l-1.3-1.5-1.5-2-1.1-1.7-.9-1.5-.4-1-.3-1v-.5l2.6-5.2 2.4-5.4 2.3-5 1.6-3.9.7-1.7.4-1.3.2-1.2.2-1v-3.9l-.3-1-.4-1.1-.4-1-.7-1.3-.7-1.4-1.3-1.7-2.9-3.7-1.4-2-1-1.7-1-2-.5-1.7-.2-1.3v-1.8l.4-1.6.8-1.6 1.2-1.7 1.3-1.5 1.4-1.6 5.2-5.3 3.4-3.6 1.4-1.6 2.6-3.2 2.4-3.3 1.3-1.8 5.2-8 1.5-2.2 1-1.4 1.2-1.2 1.7-1.6 1.1-.7 1.2-.6 1.4-.3h2.9l1 .2 2 .5 1.7.5 2 .7 2.6 1 4.5 2 6.5 3 7.3 3.4 4.5 2.2 3.3 1.8 5.4 3 1.1.7 1.6.6 1.5.5 1.3.3 2.1.3 1.7.2h6l.4-.1 1-.3.8-.3 1.3-.9.8-.8 1-1 3-4 .7-1.2 1.7-3 1-1.9.9-2.2 1.3-3.5.5-1.7.6-2.2.3-1.5v-1.3l.2-2.5.1-.4h.2l.3.3 1.2.7 4.4 1.9 1.2.5 1.3.7 1.8 1.3 1.7 1.4 1.2 1 .6.3.7.3.7.2 1.5.2h8.2l8.1.2h5.6"/></defs><g clip-path="url(#p85e3fad116)"><use xlink:href="#m22e706afc9" y="280.5" fill="#0c1321" stroke="#0c1321"/></g></g></g></g><defs><clipPath id="p85e3fad116"><path d="M7.2 7.2h238.5v266.1H7.2z"/></clipPath></defs></svg>