<svg xmlns="http://www.w3.org/2000/svg" xmlns:xlink="http://www.w3.org/1999/xlink" width="393.9" height="374" viewBox="0 0 295.4 280.5"><defs><style>*{stroke-linejoin:round;stroke-linecap:butt}</style></defs><g id="figure_1"><path id="patch_1" fill="none" d="M0 280.5h295.4V0H0z"/><g id="axes_1"><g id="PatchCollection_1"><defs><path id="m2eb6ec6a4b" stroke="#0c1321" d="m275.4-218.4-3.9 3.1-7.7 5.9-20.3 14.8-13.1 9.4-9.8 6.8-11.8 7.8-10.9 7.7-2 1.6-1 1.1-1 1.3-.6 1.1-.4 1.3-.3 1.3v1.8l.1 1.7.7 2.2 1.2 2.6 2.4 4.2 2 3 4.4 6.2 2.3 4 1.5 2.8 3.5 7.7 1.5 2.9 1.6 2.8 1.7 2.8 2 2.7 3.4 4 4.4 4.8 2.2 2.2 2.5 2.2 1.4 1.1 2.2 1.6 4.5 2.9 1.4 1 .4.6-6.7 3.7-15.4 9-3.8 2.4-2.5 2-3.3 3-2.9 3-2 2.6-4.7 6.2-2.8 3.4-1.9 1.8-2.5 2-2.6 1.6-2.5 1.4L184-44l-4.2 1.8-10.3 4.4-7.4 4-14.4 8.6-2 1-2.4 1-2 .7-6 1-5 1.2-1.6.3-3.1.3-6.3.5h-3.3l.1-.4-.2-.7-.8-2-1-1.4-1.4-2-10-11-4-4.7-2.3-3-2-3.1-1.8-3.1-2.6-4.8-1.4-3-1-3-1-3.1-.8-3.4-.4-2.4-.3-2.4V-75l.1-2.5.6-5 .2-3v-2l-.3-2.6-.8-3.8-.8-2.9-1-3-1-2.9-1.3-2.8-2.2-4.3-2-3.2-3-5-4.3-6.1-2.3-3-3.2-3.6-2.9-2.7-11.8-10L34.4-156l-2-1.7-3.3-2.4-7-4.5-1.6-1.2-.5-.5 2.5-1.3 7-3.3 14.3-6.3 3.1-1.1 2-.6 6.7-2 11-4.6 5.7-2.7 5-2.8 4-2.6 2.8-2.4 3-2.6 11.2-10.7 3.3-3 14.7-12.5 2-1.6 1.1-.8h.3l5-1 7.4-1.8 4.6-1.2 13.8-4 7-1.6 5.5-1 9.4-1 5.7-.8 2.8-.5 3.1-.8 3.3-1.3 3.3-1.8 2.3-1.4 11.7-7.8 5.8-3.5 3-1.6 3-1.4 2.3-.8 2.7-.5 1.8-.1 2 .3 1.5.4 1.5.6 2.6 1.4 1.4 1 2.7 2 2.8 2.4 2.7 2.6 4.8 4.7 5.5 5.8 9.5 10.3 2.3 2.4 3.7 3.5 3.3 2.7 1.2.9 1.9 1 1.6.8.8.2.4-.2"/></defs><g clip-path="url(#p99c98079de)"><use xlink:href="#m2eb6ec6a4b" y="280.5" fill="#0c1321" stroke="#0c1321"/></g></g></g></g><defs><clipPath id="p99c98079de"><path d="M7.2 7.2h281v266.1H7.2z"/></clipPath></defs></svg>