<svg xmlns="http://www.w3.org/2000/svg" xmlns:xlink="http://www.w3.org/1999/xlink" width="449.6" height="374" viewBox="0 0 337.2 280.5"><defs><style>*{stroke-linejoin:round;stroke-linecap:butt}</style></defs><g id="figure_1"><path id="patch_1" fill="none" d="M0 280.5h337.2V0H0z"/><g id="axes_1"><g id="PatchCollection_1"><defs><path id="m5b4d2094b6" stroke="#0c1321" d="M313.3-156.8v1l-.3 2.2-.6 2.3-.7 2.6-.6 1.7-.7 1.7-1.2 2.8-.9 1.4-.9 1.5-5.7 8.3-1.5 2.2-1.3 2.3-1.1 2.9-.9 3-.5 3-.2 2.2-.2 6.2-.4 3.9-.5 2.5-.8 3-1.1 3-.8 1.7-1 1.7-.9 1.6-1 1.7-1.4 1.8-1.6 2-1.7 1.8-1.7 1.6-.7.5-1.6 1.3-1.4.9-1.6.9-1 .4-.9.3-1 .3-.8.1h-1.8l-.7-.1-1.3-.3-1-.3-1-.4-1.7-1L264-82l-3-2-1.4-1.2-2.3-1.8-4.6-4.2-2.1-1.7-2.1-1.7-1.6-1-1.6-.8-1.6-.6-1-.2h-1.6l-1 .5-.9.8-.7 1.3-.5 1.6-.5 2-.2 2-.2 2.5-.1 2v3.8l.1 3 .6 8.3v2.9l.1 2.9-.1 3.3-.2 3.2-.4 3.9-.4 2.8-.7 3.9-.4 1.8-1 3.3-1 2.7-.7 1.8-1.2 2.4-1.1 2-2 3.2-1 1.7-.7 1.3-.3.9-.2.7-.1 1v1.5l.1 1 .2.8.4.7.1.2.2.2-2.7-.5h-1.9l.1-.3v-.5l-.5-.6-.7-.6-1.4-1-.8-.6-1.6-.8-2-.8-3.5-1.4-8.2-2.8-4-1.5-4.9-2-7.8-3.6-13.5-5.5-7-3-2.5-1.2-2.1-1-1.8-1-1.8-1.1-1.4-1-1.3-1-1.3-1-4.3-4-1.5-1.3-1.5-1.6-1.4-1.6-1-1.4-1-1.4-.3-.9-.6-1.6-.4-1.5-.3-1.8V-71l-.1-1.7V-74l.1-1.6.2-1.4.3-1.3 1.9-8.4.2-1.3V-91l-.3-1-.1-.5-.5-1-.5-.8-.8-.8-.6-.4-.7-.4-.9-.3-.5-.1h-2l-1.3.4-1.7.7-3.3 2-5.1 2.4-2 1.1-1.9 1.3-1.7 1.2-1.5 1-1.4 1.2-2.2 2-4.7 4.3-6.1 6-2.7 2.4-2.5 2-1.5 1-1.4 1-1.4.7-1.7.8-1.6.7-1.6.5-1.6.3h-2.4l-1.1-.2-1.5-.4-1.2-.6-.6-.4-2.1-1.5-2-1.8-2-2-2-2.3-1.8-2.4-1.8-2.4-3.5-5-3.7-5.5-1.3-1.8-2.8-3.6-2.9-3.3-2.1-2.2-2-2-2-1.8-2.1-1.8-2.7-2-1.2-1-3.1-2.1-2.8-1.8-2-1.1-1.8-1-2.9-1.6-3.4-1.6-3.8-1.6-1.7-.7-1.1-.3 2-1.1 1.3-.9 1.4-1 1.3-.8 1.4-1.3 1.2-1.4.7-1 .6-1.3 1.5-3 .9-1.5.7-1.2 3-4.4 1.3-2 1-2.1 1-2.1.6-2.1.5-2v-1.4l-.2-4.3v-3.5l.4-1.6 1.1-3.3.7-1.6.9-1.6 1.4-1.8 1.8-1.8 3.3-2.8 4-3.8 1.7-1.3 1.3-1 1.3-.9 1.3-.8 1.2-.6 1.8-.8.7-.2 1.5-.4 1.4-.3 3.6-.5 2-.3 1.2-.4 1.1-.5 1-.7 1-1 .8-1.2.8-1.2.7-1.5.5-1.2.8-2.2.7-2.4.6-2.4.9-3.6.6-3.4.6-3.7.4-4.4 2-2.3 2.4-2.6 1.8-1.6 2.5-2.2 3.8-3 5.6-4.4 3.8-2.8 1.5-1 1.9-1.2 1.6-1 2.3-1.1 2.9-1.5 3-1.3 4.1-1.5 3-1 4.3-1.2 9.2-2.3 3.6-.8 6.2-1.2 3-.7 4.4-1.2 5-1.6 1.5-.6 2.2-.9 1.8-.8 4.4-2.2 1.7-1 1.6-.9 1.3-1 1.3-1 1.4-1 1.2-1.1.5-.6h.2l.3.1.4.5.4.8.4 1.2.6 2.2 2.7 12 .9 3 1 2.6 1.5 2.4 1.1 1.2 1.3 1.1 1.3.9 1 .5 1.8.8 2.8 1 3.3 1 3 .7 2.8.5 3.8.5 9 .7 3.6.4 8 1.1 3.9.4h7.2l5.5-.5 5.5-.7 3.2-.5 6.8-1 3.7-.5 1.3-.1h1.6l2.2.1 2 .4 1.6.3 1.6.5 3.2 1 2 .8 1.7.8 2 1 3.3 2 3.7 2.5 3.4 2.6 3.5 3 2.3 2.2 2 2.1 2.2 2.6 1.8 2.7 1.5 2.8.8 1.7.7 1.8.5 1.8.5 1.7.4 2.4.4 2.4.1 2.9v2.5l-.2 3.8-1.1 12.1-.3 4.2-.4 6.5v.9"/></defs><g clip-path="url(#p04094c8f1e)"><use xlink:href="#m5b4d2094b6" y="280.5" fill="#0c1321" stroke="#0c1321"/></g></g></g></g><defs><clipPath id="p04094c8f1e"><path d="M7.2 7.2H330v266.1H7.2z"/></clipPath></defs></svg>