<svg xmlns="http://www.w3.org/2000/svg" xmlns:xlink="http://www.w3.org/1999/xlink" width="452.8" height="374" viewBox="0 0 339.6 280.5"><defs><style>*{stroke-linejoin:round;stroke-linecap:butt}</style></defs><g id="figure_1"><path id="patch_1" fill="none" d="M0 280.5h339.6V0H0z"/><g id="axes_1"><g id="PatchCollection_1"><defs><path id="md729b152b1" stroke="#0c1321" d="m297.4-187.3 2.5 3 1.7 2.3 1.6 2.4 3.7 5.8 1.4 2 3.8 5.3 4 5.4.7 1.3.6 1.4.1.8.1.8-.1 1.1-.3.9-.8 1.2-.8.9-1 .8-2.6 1.4-1 .6-1.2.9-1 .8-1 1-.6.6-.5.7-.4.7-.2.7-.2.8-.3 1.8-.3 1-.2.4-.5.6-1.6 1.7-.6.8-.4.8-.1.7-.2 1.4-.3.8-.5 1-.5.4-.5.5-1 .7-1.6.8-2 .8-1.4.4-1.3.3-2 .4-1.8.2h-2.6l-.6-.1-4.8.4h-1.6l-1.8.1h-1.2l-1.8-.2-1.5-.3-2.2-.6-1.3-.5-1-.5-1-.5-1.2-1-3.5-3.7-1.4-1.2-.7-.5-.7-.2-.6-.2h-1l-1 .3-1.5.8-1.2 1.1-1.2 1.3-3 3.7-1.5 1.8-5.6 5.8-2.6 2.5-1.2 1-1.2.8-2.1 1.1-2.4.8-1.7.4-2.4.1-2.5-.2-2.2-.3-2.3-.6-2.8-.8-7.7-2.4-2.4-.6-2.6-.6-1.6-.3h-2.9l-1.2.1-1 .3-1 .5-1.6 1-1 1-.9 1.1-.7 1.2-.6 1.3-.4 1.5-.5 1.7-.2 1.9-.7 7-.3 2.8-1.7 11.2-1 7.7-.4 2.5-.5 2-1 1.6-.6.6-.6.3-1 .3-1-.1-.7-.4-1-.7-.5-.6-.4-.5-1.4-2.2-.8-1-.8-.9-1-.9-1.6-1.3-1.9-1.4-1.4-.9-1.6-.8L169-87l-2.6-1-1.9-.7-2-.6-2.7-.7-3-.6-2.6-.3-2-.2-3.3-.1H146l-2.3.3-1.9.3-1.8.3-2.8.6-3.7 1-3.4 1.3-2.9 1-3.2 1.5-2.8 1.4-1.7 1-3.5 2L112-78l-3.7 2.7-3 2.5-2.8 2.5-1.3 1.4-1.5 1.7-1.3 1.9-.8 1.3-.7 1.4-.5 1.5-.3 1.5-.3 2v2l.7 5.6.1 2v1.6l-.2 1.6-.4 2-.5 2-.7 2.4-.8 2.3-1.1 2.7-1 2-1.4 2.1-1.5 2.1-1.6 1.8-1.8 1.5-1.6 1.2-1.5.8-1.8.8-1.8.6-2.4.5-2 .3-1.8.2-2.2.1-3.9.1L56-33.7l-2.7-3.8-1.6-2.4-1-1.5-1.8-3-6-11-2-3.6-4-8-1-2-2.1-3-2.4-3.3-2.6-3.2-2.6-3-1-1.3-.6-1-1-1.6-.4-1-.4-.9-.4-1-.2-1.1-.1-1.2v-1.6l.2-1.5.3-1.6.4-1.4.6-1.8.7-1.8 1.8-3.8 2.3-4.3.2-.6v-.2l5.1-3.6 7-5.2 1.2-.8 1.2-.8 1-.6 1.8-.8 1.7-.5 3.6-.9 1.8-.5 2-.6 3.1-1.3 2-.7 1.9-.6 6.3-1.6 2.5-.7 3.1-1.1 2-.9 3.6-1.6 5.6-2.8 2.8-1.4 3.3-1.9 1.6-1 1-.7 3-2.5 1.6-1.4 1.4-1.2 1.4-1.7.7-1 1-2 2.3-5.1 1.1-2 1.6-2.8 2-2.9 1.8-2.5 1.2-1.3 1.7-1.6 5.5-4.3 2.5-2.2 1.7-1.8 3.7-4.3 6-6.8 3.7-4.3 1.9-2 5.5-5.6 1.7-1.9 2.2-2.6 1.3-1.4 2.4-2.3 1.6-1.5 2-1.8 3.9-3 2.6-2.1 2-1.9 1.6-1.4 1.6-1.8.7-1 3-4.2 1.2-1.9 1.5-2.7 1.1-2.4 1.1-2.4.8-2.3.6-2.1.4-1.6.4-2.3.2-1.9v-2.5l-.3-1.8-.3-1.8-.4-1.1-.4-1-.2-.6-.5-.8-.6-.5h-.1l-.3-.1h-.2l.1-.3 1.2-.8 2-1 1.9-1 1.8-.6 2-.6 2-.4 2.2-.4 1.3-.2 2.5-.1h2.3l2 .2 1.6.3 1.1.4 1 .5 1 .5.8.9.7 1 .2.5.2.5v.7l.1.6v1l-.1 1-.3 1-1.5 6.2-.9 3.7-.4 2.1-.4 2.4-.2 2v4.3l.3 2.2.6 2.5.6 2 1 3 1.1 2.3 1.9 3.6 1.8 3 1.8 3 2 2.6 1.7 2 1.8 1.8 2.2 1.9 2 1.3 2.2 1.4 2.7 1.3 2.2 1 6.2 2.6 5 2.3 3.3 1.6 3.1 1.8 3.1 2 3.3 2.4 4 3 7.8 6.2 4 2.9 3.5 2.4 4.9 2.9 2.2 1.2 1.8.6.7.2 1 .1h1.1l1.1-.4.8-.3 1.3-.8 2-1.2 1-.8.8-.7 1-1.1 2-2.6 1.5-2.4 1.5-2.7 1.3-2.8.7-1.6.8-2.3.5-1.6.4-1.7"/></defs><g clip-path="url(#pb6a7d6e880)"><use xlink:href="#md729b152b1" y="280.5" fill="#0c1321" stroke="#0c1321"/></g></g></g></g><defs><clipPath id="pb6a7d6e880"><path d="M7.2 7.2h325.2v266.1H7.2z"/></clipPath></defs></svg>