<svg xmlns="http://www.w3.org/2000/svg" xmlns:xlink="http://www.w3.org/1999/xlink" width="318.7" height="374" viewBox="0 0 239 280.5"><defs><style>*{stroke-linejoin:round;stroke-linecap:butt}</style></defs><g id="figure_1"><path id="patch_1" fill="none" d="M0 280.5h239V0H0z"/><g id="axes_1"><g id="PatchCollection_1"><defs><path id="m4284a34766" stroke="#0c1321" d="m147.5-238.8.2.6.7 1.1.8 1.4 1 1.4 1.3 1.3 1.2 1 1.4.6.8.2h1.3l1.5-.3 1.2-.3 3.9-1.4 1.2-.4 1.5-.3h3.2l1.2.3 1.3.3 1.2.4 2 .8 2.2 1 1.6.8 1.5.8 1.4.9 1.2.8 1 .8 1 1 .6.8.5.9.4 1 .4 1 .6 1.8 1.1 4.3.8 2.6.6 1.5.6 1.5 1 2.2.9 1.7.9 1.8 4.5 7.8 2.6 4.8 1.7 3.3 3.5 7.3 1.8 3.7 2 3.9 1.1 1.9 1.1 1.8 1.2 1.8 1.2 1.6 1.2 1.5 1.3 1.2 1.4.9 1 .4 2.7.7.4.1.2.2-.6.6-1.4 1.4-1 1.3-1.6 1.9-4 5.6-.8 1.3-.8 1.4-.4.9-1 2.1-.4 1.3-.3 1.2-.2 1v1.9l.2.5v.5l.4 1.3.5 1.8.3 1v2.3l-.6 1-1.4 1.7-.8 1-.9 1.2-1 1.8-1.9 3-3.3 5-1.5 2.5-1.1 2-1 2.2-.9 1.9-1.7 4-.7 1.5-.9 1.8-1 1.7-1.8 2.9-.9 1.2-.7.9-.8.9-1.3 1.1-1.2 1-4.1 2.8-1.6 1.2-.6.5-.8.8-.5.6-.6.7-.5 1-.2.4-.3 1-.4 1.5-.6 3.2-.5 1.8-.6 1.5-.7 1.5-.8 1.4-.7 1.1-3.7 4.8-.4.7-2 3-1 1.4-1 1.2-1.3 1.2-1.3 1-.6.5-1.4.8-1.2.7-1 .4h-.6l-.3.2-3.7 1-3.3.9-3 1-2.1.7-1.5.7-1.4.6-1 .6-1 .7-.7.8-.6.8-1.8 2.5-.6.9-.6.8-.7.7-1 .9-2.3 1.8-.6.6-1.1 1.3-.6.6-.2.2-.7.5-.8.4L124-35l-1.1.5-3.7 1-1.2.5-1.3.5-1.2.6-1.2.7-1.1.8-2.3 1.7-2.2 1.7-2.2 1.8-1 1-1 1-1 1.1-1.5 2-.7 1-6.6-5.4-1.6-1.6-2.1-2-1.4-1.2-1.4-1-.7-.5-.7-.3-.7-.3-.6-.1h-.7l-.7.2-.6.3-2.4 1.5-1 .6-.8.4-1.3.4-2.5.7-1 .3-2.4.3-.7.2-1.3.4-2.4 1-2.4 1-1.2.4-1.3.6-2.7 1.7-1.2.6-.6.2h-.7v-.2l-.3-.4-.6-.7-1.9-1.6-.9-1-.5-.6-.5-.8-.2-.4-1-2.5-.4-1-.3-.5-.6-.8-1.7-2.3-1.2-1.6-.5-.5-.6-.6-.4-.4-.9-.7-.4-.3-2-1.2-2.6-1.6-1.3-.9-2.1-1.4-1-.6-.9-.5-1.7-.9-.8-.5-.8-.5-1-1-.7-.6-1-1.1-.6-.7-.4-.5-.6-1.1-.5-1-.2-.9v-.8l.2-.9.4-.7.5-.5.5-.5 1.8-1.4.4-.3.8-.9.5-.8.4-.6.4-.9.4-1 .3-1.4V-65l-.3-1.2-1.3-4-.2-.9-.5-2.2-.2-.7-.3-.8-.4-.9-.3-.7-.5-1-.8-1-.9-1-3.7-4.2-1.8-1.8-.6-.8-.4-.5-.3-.6-.2-.6v-.8l.3-.7.1-.2.6-1 .7-.8 2.2-2.5 1.2-1.4.6-.9.7-1 .3-.9.3-1.2.2-1.2.5-4 .3-1.6.3-1 .3-.5.5-1 .5-.6.5-.6.8-.9.4-.4 1.2-1 2.2-1.6.7-.5.7-.7.6-.6.3-.6.2-.4.2-.8v-.8l-.5-3-.3-3-.3-3v-2.6l.2-1 .3-2.2.2-1.2.9-3.7.3-1.2.5-1.1.1-.4.7-1.1.3-.5 2-2.6 1-1.6 1.3-2 1.1-1.9.6-.9.6-.7 1.2-1.4.6-.8.3-.5.6-1 .3-.7.3-.7.3-1 .1-1v-.9l-.4-.8-.5-.6-.7-.5-.8-.2-1-.2H40l-.8-.2-.9-.3-.3-.3-.2-.8.2-1 .8-2.3.4-1.3.2-1.2v-1.3l-.3-.8-.1-.4-.4-.7-.9-1.6-.3-.8-.2-.6-.1-.6-.1-.8v-4.8l-.5-1.7-.6-1.7-.9-1.7-1-1.8-1.1-1.8-1.2-1.9L29-196l-2.8-3.8-4.3-5.7-2.6-3.4-1.5-1.7-.4-.4h.7l3 .3 2 .3 2 .1h2.1l2-.2 1-.2 1-.3.8-.3 1-.5 1.3-.7.8-.5 1.9-1.3 1.5-1.1.8-.7.6-.9.6-1 .2-1.2.1-1.3-.1-1.3-.3-1.2-.5-1.3-1.5-3-.3-1-.1-.8v-1.4l.1-.8.3-1.9v-.3l.1-1.3v-.9l-.2-.8-.1-1-.4-1.4-.3-.9-1.4-4-.8-2.4-.3-.8-.4-.8-1-2-.7-1.5-.2-.7-.1-1.2.2-1.1.3-.7.4-.6 1.2-1.2 1.4-1 1.6-1 1.6-.9 1.5-.7 1.7-.7.3.4.5 1.2 2.7 7 .6 1.5 1 2 .4 1 .8 1 .5.5.2.2h.3l.5.2h1.6l.7-.3 1.2-.5 1.2-.6 1.4-1 1.5-.8 1.4-.7 1.6-.7 1.4-.6 1.3-.4 1.2-.3 1.2-.3 1-.1 1.2-.1h2.3l1.8.2 1 .2 1.7.5 1.4.4 1.2.5 1.5.7 1.3.7 3.1 1.7 1.5.7 1.6.7 1.5.4.8.2 1.6.3 1.2.2 1.8.1 5.8.1 3.3.2 2.8.2 7.5.8 3.4.3h1.8l3 .2h11.1l2.3.1 2 .2 1.2.1 1.2.2 2 .3 2 .5 1.3.4.9.4.8.4.5.3.4.4.5.4.2.5v.3"/></defs><g clip-path="url(#pf49f1bc9e3)"><use xlink:href="#m4284a34766" y="280.5" fill="#0c1321" stroke="#0c1321"/></g></g></g></g><defs><clipPath id="pf49f1bc9e3"><path d="M7.2 7.2h224.6v266.1H7.2z"/></clipPath></defs></svg>