<svg xmlns="http://www.w3.org/2000/svg" xmlns:xlink="http://www.w3.org/1999/xlink" width="418.4" height="374" viewBox="0 0 313.8 280.5"><defs><style>*{stroke-linejoin:round;stroke-linecap:butt}</style></defs><g id="figure_1"><path id="patch_1" fill="none" d="M0 280.5h313.8V0H0z"/><g id="axes_1"><g id="PatchCollection_1"><defs><path id="m741885d633" stroke="#0c1321" d="M287.3-85.7h-.3l-.2.5-.2.5-.8 6.2-.2 1.6v6.3l-.3 2-.3 1.2-.4 1.1-.9 1.4-1.1 1.2-1.7 1.3-1.2.8-1.2.7-1.2.6-1.5.6-5.3 2-2.5 1.1-1.4.7-3.7 2.4-5.3 3-1.7 1.1-3 2.2-1.8 1.1-1.9 1-1.8 1-2 .8-1 .3-1.5.5-2.4.5-1.5.3-4.3.4-1.3.2-1.6.3-5.1 1.3-1.2.2-1.5.2h-2.8l-3-.4-3.9-.7-1.7-.1h-3.4l-1.5.6-1.6.8-1.5 1-1 1-.7.6-1.2 1.3-4 5L196-28l-1 1-1.7 1.8-2 1.7-2 1.5-1.8 1-2.2 1-1 .4-1 .3-1 .1h-1.6l-.9-.2-1-.2-1-.4-.6-.4-.7-.5-.9-.5-.2-.3-.5-.5-.6-.2-1-.9-1-1.3-1-1.6-.6-1.1-.6-1.5-2.3-5.1-2-4.1-5.5-10.7-1.4-2.4-1.3-2-1-1.3-1-1.3-1.3-1.4-1.7-1.7-5.3-5-3.1-2.8-1.1-1-2.4-1.7-3.1-2.2-6.1-5-6.7-5.1-2.6-2-.8-.4-1.2-.6-1.8-.7-1.1-.3-1.3-.3-2-.2h-3.9l-1.8.1-4.3.4-2.2.1-2-.2-2-.5-2-.8-1.9-1-2.9-1.8-1-.7-1.7-1.3-1.5-1.5-1-1.1-2-2.4-1.3-1.8-.7-1.2-.6-1-1.1-2.4-1-2.6-.7-2.8-1.8-7.6-.6-2.5-.7-2.4-1-2.2-1-2-1.2-1.4-1.3-1.2-1.6-.8-1.5-.5-1.6-.2h-2.2l-3 .3-7 1.1-3 .5-1.7.1-2.6.2-2.4-.3-1.3-.3-1.6-.6-2-1-1.6-1-1.5-1-1.2-1-1.2-1.2-.8-1-.2-.3-.5-.6-3.2-2.8-1.2-1.2-1.6-2-1-1.3-.8-1-.7-1.4-.5-1.2-.2-1.3-.1-1.4v-2.4l-.1-1-.2-1.5-.5-3.2-.8-4.5-.2-1.4-.3-3.7v-4.4l.2-1.4.2-1 .3-1 .7-1.7.8-1.6 1-1.5 1-1.5 1.3-1.3 1.3-1.2 3.9-3.3L34-189l1-1 .7-.8.5-.9.4-.8.4-1.2.2-1 .1-2 .3-5.2v-4.1l-.3-3.8v-.8l.1-.2h.7l1.4.8 3.8 2.2 3.6 2.3 5.4 3.8 3.6 2.5 1.8 1 1.2.8 1 .5 1 .5 1 .4 2 .4h1.8l1.8-.4 1-.4 3-1.3 1.8-.9 2.5-1.3 2-1.2 2.6-1.7 1.6-1 3.2-2.4 1.6-1.2 3.4-3L92-212l3.5-3.4 1.7-1.5 1.8-1.5 2.3-1.7 4-2.6 1.9-1.3 1.8-1.5 1.9-1.9 4.9-5.5 1.2-1.3 2.5-2.5 2.9-2.6 1.5-1.3 2.3-1.8 1.5-1 1.6-1 1.6-.7.6-.2 1.3-.4 3.5-1 1.7-.4 1.6-.5 3.5-1.3 3.4-1.5 7.1-3 2.5-1.2 1.4-.7 1.2-.7 6.3-3.8 2-1.1.7-.3v.3l.7.7 1.1 1.1 1 .9 1.8 1.3 3.3 2 2.5 1.6 2.4 1.9 5.3 4.2 2.8 2 1 .9.4.4.7 1 .5.9 1 2 .6 1.7 1.7 4.7.9 2.1.8 2 .5 1 .6 1.2 1 1.4 1 1.2 1 1 .4.1 1 .5.7.1h2.3l1.3-.3 1.5-.5 1.7-.7 1.4-.7 4.6-2.4 1-.5 1.4-.5 1.8-.6 1.5-.3 2.6-.3 1.5-.1h1.4l1.7.3.9.3 1.7.6 1.3.7 1.3.8 1.3 1 1.7 1.4 1.7 1.6 1.5 1.6.9 1.1.6 1 1 1.6.5 1.2.7 2 2.9 8 1.4 3.6.9 2 1.7 3.4.9 1.5 1 1.5 1 1.4.8 1 1.5 1.8 1 1.2 2.3 2.3 5.8 5.3 1 1 .7.8.7 1 .6.9.2.4.2.7v1.7l-.6 2.7-.1.8v1.8l.4 1.5.5 1 .3.8.6.8.8 1 1 1 1.2 1 1.9 1.3 1.6 1 1.7.9 5.9 3 2.7 1.5 2 1.2 1.6 1.3.8.8 1 1.2.6 1 .4.7.4 1 .3 1.1.1 1.1v1l-.2.9-.3 1-.6 1.3-.6 1-.7 1-.6.6-1.7 1.8-1.4 1.2-.7.6-2 1.3-1.2.7-1.3.6-1.4.6-1.9.6-2.8.8-3.2.6-2.8.4-1.2.3-1 .5-1 1.1-.4.6-.2.8v1.3l.4 1.2.4.7.3.4.6.6.7.5 1.3.7 1.3.6 3 1.3.7.4.7.5.9.7.4.4.3.5.5.8.4 1 .4 1.4 1.2 6 2.3 8.7.6 2.2 1.2 3 1.5 3.8.8 1.7.6 1 .7 1 .3.3"/></defs><g clip-path="url(#p6744a6934b)"><use xlink:href="#m741885d633" y="280.5" fill="#0c1321" stroke="#0c1321"/></g></g></g></g><defs><clipPath id="p6744a6934b"><path d="M7.2 7.2h299.4v266.1H7.2z"/></clipPath></defs></svg>