<svg xmlns="http://www.w3.org/2000/svg" xmlns:xlink="http://www.w3.org/1999/xlink" width="394.5" height="374" viewBox="0 0 295.9 280.5"><defs><style>*{stroke-linejoin:round;stroke-linecap:butt}</style></defs><g id="figure_1"><path id="patch_1" fill="none" d="M0 280.5h295.9V0H0z"/><g id="axes_1"><g id="PatchCollection_1"><defs><path id="m29052e9b22" stroke="#0c1321" d="m242.4-63.4-.2-.2h-.9l-1.3.2-1.3.2-1.3.4-2.6.8-1.5.6-2 .8-2.4 1.2-1.9 1-1.7 1-5 3.5-2.5 1.5-2.6 1.7-5.4 3.1-4.3 2.4-4.7 2.4-5.2 2.3-2.1 1-2.2.8-1.6.5-5.2 1.6-2.7.9-2.3.8-6.4 2.7-4 1.5-1.9.6-1.9.6-2 .4-2 .4-3.5.6-6 .6-1.7.3-1.8.4-2.5.7-2.5.9-7.2 3.1-2.4 1-2.4.8-2.4.6-1.1.2-1.2.2h-2.7l-1.3-.2-1.7-.4-2-.7-1.2-.6-1.2-.7-1.5-1.2-1.5-1.8-1.2-2-.7-1.2-1.5-3.3-1.8-4.1-.5-1.5-.3-1.7-.2-1.7v-2.1l.4-2.1.6-2.1.8-2 .9-2 1.5-2.4 1.4-2.1 1-1.3 1.2-1.5 1.7-1.9 1.8-1.7 2.7-2.6 1-1 .9-1 .8-1.3.5-.9.5-1.4.1-.8.1-1.4v-7l.2-4.3v-8.3l-.3-4.2-.2-2.3-.4-2.1-.5-2-.7-1.8-1-1.6-.6-.7-.9-.8-1-.6-1-.5-1.5-.5-1.7-.2-1.7-.2h-7.2l-2.1-.2-1.9-.2-1.8-.3-2.2-.6-1.8-.7-1.3-.6-1.3-.7-1.2-.8-2-1.5-2-1.7-1.2-1.2-2.3-2.5-1-1.3-1.9-2.4-3.2-4.7-1.4-1.8-1.3-1.4-1.5-1.3-1.4-1.2-1.7-1.1-.5-.3-2-.8-2-.5-1-.2-2.4-.2h-4.7l-5.2.3h-4.9l-1-.3-1.1-.2-2.3-.7-1.7-.6-1.9-.8-1.3-.7-1.8-1-1.5-1-1.8-1.3-2-1.5-7-5.4-.9-.7-.5-.2v-.6l-.1-1.1.1-.8.7-1.7.2-.6v-1.6l-.3-.7-.3-.7-2-4.2-.6-1.6-2.4-6.3 2 .6 1.2.4 2.9.7 2.9.6 2 .3 1.8.1h1.4l2-.1 1.4-.2 1.2-.2 2.8-.7 2.7-.8 1.4-.6 2.1-.9 4-2 2.8-1.4 1.9-.9 3.5-1.4 5-1.7 2.1-.8 4.6-1.9 1.7-.8 1.3-.7 1.3-.8 1.3-.8 1.2-1 1.2-.9 1-1 1-1 1.2-1.3 1.4-1.8 1.4-2 1.2-2.1.4-1 .3-.8.1-.6v-1.7l-.1-.4-.3-.5-.3-.4-.4-.4-.2-.1-.7-.3h-.6v-.6l.6-1.2.8-1.3 1-1.5 1.2-1.5 1.4-1.4 1.6-1.2 2-1 1.4-.6 4.6-1.5 1.6-.6 1.3-.6.8-.4 1.9-1.2 1.1-.8 1.2-1.1 1.3-1.5 2.9-3.5 2.1-3 3-4.4 3.5-4.6 1.4-1.7.7-.8 1-1.1 1.3-1.2 2.1-1.6 1.7-1.2 4.5-3 9.7-6.7 2.6-2 3.2-2.8 1.5-1.1.7-.4.6-.3h.4l.7-.2 1 .1.5.1.7.3 1.7 1 2 1.5.7.5.8.9.8 1 .6 1.2.7 1.7 1.4 4.8.6 1.4.5 1 .6 1.3.6 1 1 1.4.8 1 1.3 1.3 1 1 1 .6 1.2.6 1.9.6.9.1 1.7.2 2.1-.2 2.4-.3 2.3-.4 11-2.4 4.5-1 2-.5 2.4-.4 3.1-.6 4.8-1.3 3.1-1 1.2-.4 1.3-.6 2.2-1.3 2.7-1.6 6.3-4.3 3.2-2.1 2-1.2 1.9-1.1 2-1 2.8-1.3 2.8-1 2-.6 2.2-.6 1.5-.3.8-.1.5 1.4 2.1 7.2 1.5 4.4 1.2 3.4.7 1.9 2.1 4.8 1 2.3 1.7 3 1.2 2 1.2 2.3 1.2 2.4 1 2.5 7 16.8 1.6 4.1.8 2.4.6 2 .4 1.6.4 1.6.4 2.5v1l.2 1.3v1.6l-.2 1.5-.2 1.5-.6 2.7-.4 1.4-.5 1.6-.5 1.3-2 4.8-.5 1.8-.6 2.7-1 7.2-.6 3.2-.4 1.4-.5 1.5-.6 1.4-.8 1.1-.8 1-1 .6-.7.4-1.1.4-1.2.3-1.6.2h-4.6l-4.5.5-1.3.2-1 .3-.7.2-1.5.7-1.5.8-.5.4-1.2 1-1.5 1.4-1.2 1.6-1 1.6-.3 1.3v1.3l.2 1.2.5 1 .8 1 1 .8 1.8 1.2 2.1 1.2 9.8 4.6 2.4 1.3 2.2 1.4 1 .7 1.9 1.8 1.8 2.2 1.3 2.2 1 2.1.7 2.2 2 6.1.6 1.9.6 2.3.4 2.2.2 1.6.3 2.8.2 2.8v8.5l-.2 2.8-.3 2.8-.5 2.7-.6 2.7-.9 2.4-1.2 2.3-1.2 1.5-1.7 1.4-1.7 1-2.2 1.1-2 .7-2.3.7-2 .5-1.6.3-1.5.3-1.3.1-1.4.1h-3.3l-2.6-.2-1-.2-.2-.1"/></defs><g clip-path="url(#p60b588abd9)"><use xlink:href="#m29052e9b22" y="280.5" fill="#0c1321" stroke="#0c1321"/></g></g></g></g><defs><clipPath id="p60b588abd9"><path d="M7.2 7.2h281.4v266.1H7.2z"/></clipPath></defs></svg>