<svg xmlns="http://www.w3.org/2000/svg" xmlns:xlink="http://www.w3.org/1999/xlink" width="301.4" height="374" viewBox="0 0 226.1 280.5"><defs><style>*{stroke-linejoin:round;stroke-linecap:butt}</style></defs><g id="figure_1"><path id="patch_1" fill="none" d="M0 280.5h226V0H0z"/><g id="axes_1"><g id="PatchCollection_1"><defs><path id="mb9ea4e9367" stroke="#0c1321" d="m204.7-190-.2.3v1l.4 5.2v5.5l-.4 7-.2 2.7-.2 1.4-.5 1.6-.6 1.2-.7 1-1 1.2-1.2 1.3-3.5 3-5.3 4.5-1.7 1.6-1.6 1.8-1.5 2-1.3 2-1.1 2.2-1 2.3-.3 1.3-.3 1.4-.3 1.9-.1 1.8v4l.5 5 .3 2 1.1 6 .6 4.3.3 2v1.4l.1 3.3.2 1.9.3 1.7.6 1.7 1 1.8 1 1.4 1.4 1.9 2.2 2.5 1.6 1.7 4.3 3.8.7.8-.7.2-.6.9-.4 1.4-.2 1.6v1.9l.4 2.7.7 2.9 1.8 6 .9 3 .6 3 .2 2.9-.1 2-.4 1.9-.4 1.6-.9 2.5-1.4 3-1.4 2.3-2.2 3.4-6 8.6-1.7 2-1.8 1.8-1.6 1.6-2.8 2.4-2.9 2.2-2.9 2-2.9 1.8-1.5.8-1.7.7-1.6.6-.4.1-2.8.5h-.6l-1.4-.2-1.6-.5-1.7-.7-2-1.3-1.8-1.6L153-25l-3-3.2-2.8-3.3-6.5-7.9-3.4-3.8-3-3.2-3.1-2.7-2.6-2-4.8-3-5.3-3.5-6.1-3.5-8.3-5-3.8-2.4-5-3.5-3.3-2.4-6.6-5.1-2.8-2.2L79-84l-.7-.4H78v-.9l.6-8.7.4-5 .1-4.7-.1-4-.5-4-.7-3.8-1-3.8-1.4-3.5-1.6-3.3-1.3-2-1.3-1.8-1.8-2-1.8-2-3.9-3.9-4.8-4.3-5.1-4.2-6.7-5-7.4-6-4.5-3.3-4.4-3.4-2.2-1.6-1.6-1-4.4-2.3-2.1-1.3-1.8-1.5-.6-1-.4-.5-.6-1.7-.3-2.3.4-2.8 1-3 1.6-3 2-3 2.1-3.2 3-3.5 2.3-2.6 2.5-2.5 2.6-2.4 2.1-1.7 2.2-1.6 3.8-2.6 3.3-2 3.3-2 3.3-1.8 8.1-4.1.9-.6.4-.2 2.3-1 5.8-2.1 3.4-1.4 4.8-2.2 2.2-1.1 1.6-1 1.7-1 1.7-1.2 7.2-6 5.3-4 5.1-3.6 1.6-1 2.4-1.4 2.4-1.1 2-.8 12-4.6 9.8-3.7 2-.8 5.4-2.5 2.2-.6 2.4-.2h.9l2.1.4 2.5.6 2.7.6 1.8.2 3.5.3 7 .2 4.9.3 5 .5 4.8.7 2 .5 2.2.6 6.8 2.2 5.7 1.6 2.5 1 1.9 1 .8.7 1.3 1.2.9 1 .8 1.3 1.5 2.7 1 2.6.8 2.7.3 1.4.2 1.5.2 2.4.1 2.1v4.7l-.3 2.6-.5 3.3-.7 3.3-3.7 14.6-.7 3.8-.3 2.2v3.3l.3 1.4.2.5.3.7.3.2.6.2"/></defs><g clip-path="url(#pad94b22b0d)"><use xlink:href="#mb9ea4e9367" y="280.5" fill="#0c1321" stroke="#0c1321"/></g></g></g></g><defs><clipPath id="pad94b22b0d"><path d="M7.2 7.2h211.7v266.1H7.2z"/></clipPath></defs></svg>