<svg xmlns="http://www.w3.org/2000/svg" xmlns:xlink="http://www.w3.org/1999/xlink" width="365.5" height="374" viewBox="0 0 274.1 280.5"><defs><style>*{stroke-linejoin:round;stroke-linecap:butt}</style></defs><g id="figure_1"><path id="patch_1" fill="none" d="M0 280.5h274.1V0H0z"/><g id="axes_1"><g id="PatchCollection_1"><defs><path id="m522c06dee9" stroke="#0c1321" d="m178.7-260.5 1 1 1 1.2 3.1 3.9 1.2 1.4 1.4 1.4 1 .9 1.6.8 1.3.7 1.2.4 2.2.6 1.3.5 1.5.6.8.4 1 .8.6.4 3.2 3.2 1.3 1.2.8.6 4.3 3 1.8 1 1.9 1 1.9.7 2.2.6 1.7.2-.2 1.3-.5 2.3-1.4 5.5-.8 3.7-.6 3-.2 1.7-.2 2.3v11.7l-.3 1.3-.6 2.3-.9 2.4-1.3 2.6-1.8 3.4-1.3 2.5-1 2.4-.3 2v1.9l.3 1.8.4 1 .5 1 .5.8.7.9.6.6 1.4 1.2 1.9 1.2 1.3.6 1.5.6 1.4.3 2.8.6 3 .9 4.8 1.5 2 .8 1.1.5 1 .7.6.5 2 2 1 .9.7.5 1 .5 1 .3 1.4.3h3.6l1.1-.2 1-.3 1.4-.5 2.3-1.3 1.2-.4.7-.1 1.2-.1h.6l.6.3.3.2.2.3.3.5.2.8v1.1l-.1 3.3v1.8l.1 1.7.2 1.2.6 2.7.1 1.7-.2 1.7-.4 1.3-.3.7-.4 1-1 1.9-1.2 1.8-1.4 1.4-1.5 1.3-3.2 2.4-3.9 2.8-1.7 1.3-.8.8-.8 1-.7.8-.5.9-.3.7-.7 1.5-.7 2.2-.7 2.8-1.3 6-.5 1.7-.7 2.5-1.3 3.4-1.7 4.2-1.9 4-1.2 2.4-1 2-3.5 5.9-.8 1.6-.7 1.7-.3.8-.4 1.7-.3 2.6v2.7l.3 2.2.5 2.2.7 2.1.8 2 1.1 2.3.5 1.2.4 1.2.2 1.2v1l-.4 1.6-.8 1.6-.6.8-.8 1-1.1 1-1.7 1.3-1.8 1.2-2 1-1.9.7-2 .7-4.9 1.5-2.6 1-1.3.6-1.4.7-1.2.8-1.6 1.2-3.9 3.8-1.6 1.5-7.9 6.7-4.3 3.4-6.7 5-2.2 1.6-2.1 1.4-2.3 1.2-2.3.9-2.8.5-2.9.1-5.8-.2-2.9-.2-2.4-.2-1.7-.3-1.5-.3-1.6-.5-2.5-.9-2.7-1-2.1-1-2.5-1.1-3.5-1.8-4.9-2.3-2.3-1.3-1.8-1.3-1.7-1.3-2.4-2-2.2-2.2-2.1-2.5-7.5-9.1-5.3-6.5-4.3-5.7-3.5-5H91l-.2-.1-.1-.4V-68l.4-1.7 1-3 2.5-6.8 2.6-7 .6-1.6.3-1.3.2-.9.1-.7v-1L98-93l-.2-.2-.3-.3-.8-.4-.8-.2-1.7-.2h-1.4l-1.5.2-1.7.2-1.7.2-2.1.4-4.9 1.2-2 .6-6 1.9-2.1.5-1.9.4-1.4.2-2.3.2h-1.6l-2.1-.3-1.1-.3L59-89l-1.2-.4-1.3-.6-1.8-.8-1.4-.8-1.7-1-1.4-1-3.7-2.7-3-2.3-4-3.2-1.6-1.2-1.7-1.2-2.2-1.3-1.6-.9-6.8-3-1.8-1.1-1.1-.8-1-1-.6-.8-1-1.3-.5-1.1-.3-1.1-.2-.7-.1-1.3v-1.2l.4-1.4.5-1.2.5-1 1.2-2 1.2-1.4 1.5-1.7 4.8-5.2 1.7-2 2.8-3.4 1.8-2.5 2.3-3.2 5.6-8.5.6-.8v-.2l.5-.6 1-1.5 4.7-7.3 1.4-2.1 1.6-2.2 2-2.7 3-3.6 4.7-5.4 3-3.3 3.7-3.8 4.8-4.8 3.8-3.7 1.8-1.8 3.4-3 3.8-3.3 3-2.6 1.6-1.1 1.5-1 2-1.3 1.7-.7 1.7-.7 1-.2 1.6-.3 1.7-.2 3-.1 9.6.2h2.6l2.4-.3 1.1-.2.6-.2 1.3-.6.8-.6.4-.4.7-.8 1.7-2 1.1-1 .9-.5.8-.2 2.4-.5 1-.3.5-.2.4-.3.5-.5.4-.5.7-1.3 1.5-4.7 1-2.5 1-2.3 2-4.2 1.6-2.6.7-1.2.8-1.2 1.8-2.4 1.7-2.1 3.3-3.9 5.3-6 1.3-1.3.8-.6.9-.7.8-.6 2-1 .8-.3 2.7-.8 2-.4 1.7-.3 1.6-.1 1.7-.1h3.6l1.2.3.8.2.3.2"/></defs><g clip-path="url(#p21e36cff48)"><use xlink:href="#m522c06dee9" y="280.5" fill="#0c1321" stroke="#0c1321"/></g></g></g></g><defs><clipPath id="p21e36cff48"><path d="M7.2 7.2h259.7v266.1H7.2z"/></clipPath></defs></svg>