<svg xmlns="http://www.w3.org/2000/svg" xmlns:xlink="http://www.w3.org/1999/xlink" width="331.1" height="374" viewBox="0 0 248.4 280.5"><defs><style>*{stroke-linejoin:round;stroke-linecap:butt}</style></defs><g id="figure_1"><path id="patch_1" fill="none" d="M0 280.5h248.4V0H0z"/><g id="axes_1"><g id="PatchCollection_1"><defs><path id="mece3aa908d" stroke="#0c1321" d="m191.1-257.2.2.3.2.9.2.8.3 1.4.3 2.4.2 2v4.3l-.1 3.2-.4 4.2-.4 3.7-.8 6.8-.2 1.6-.1 1.3v4.7l.2 2.3.3 1.7.2 1 .5 1.9.5 1.5.5 1.4 2.4 6.1.4 1.2.6 1.6.5 2 .7 2.9.3 2 .4 2.8.3 2.6.2 2.2.1 2.1v4.9l-.1 1.8-.2 1.9-1 8.8-.5 3.7-.2 3v4.3l.2 1.7.2 1.1.4 2.4.6 3.1 1.5 6.3.5 2.2.4 2.1.2 1.5.1 1v2.1l-.2 1.6-.8 5.2-.2 1.4v3.9l.3 1.7.2 1.2.7 2.5.8 2.4 2.3 6.4 1.1 3 1 2.2.9 1.7.5 1 1 1.3.6.8.7.7 1 .7 1 .8 2 1.1 4.4 2.4 1.5.9 1.6 1 1.4 1 .8.6 1 1 1.7 1.6 3.7 4 .6.5.2.4v.1l-.8.6-2 1.5L226-76l-1.7 1-2.7 1.5-2.2 1.1-4.3 2-1.9 1-1.1.7-2 1.2-1.2.8-1.7 1.2-1.5 1.2-1.7 1.4-1.5 1.4-.8.9-.6.8-.6.8-1.5 2.6-.8 1.4-1 1.4-.8.8-.4.4-.7.4-.5.3-1 .5-2.4 1-2.4 1.3-1.2.4-1 .3-3 .6-.6.1-1 .4-1 .3-1.2.6-1 .6-2 1.4-.9.6-.9.4-1 .3-.7.1h-.8l-1-.3-.9-.5-.7-.5-1.9-1.4-1-.7-1.1-.6-.6-.3-.8-.3-1-.2-1.3-.1H161l-1.2.2-1 .2-1.7.4-1.6.6-1.2.5-1.9 1-1.5.8-3.8 2.3-1.8 1.2-1 .8-1 .6-.8.8-.9.8-.5.5-1 1.3-.7.7-1.4 2-1 1.6-3.6 5.4-1 1.4-1 1.6-.8 1-1 1-1 .7-.8.6-1 .3h-.4l-.5.1h-.8l-.7-.2-1.2-.4-.8-.4-1-.5-1-.6-1.2-1-2-1.7-2.4-2.1-5-4.8-2.1-1.8-1.2-1-.7-.4-.5-.3-.2.1-.2.1h-1.2l-.7-.2-.7-.2-.5-.2-.9-.4-1.1-.7-.8-.6-.8-.8-.5-.8-.4-.9v-1.3l.2-.6.5-1 .7-1 2.6-2.9 1-1.1.7-1.2.6-1.3.2-1v-2.1l-.2-1.3-.5-1.6-.4-1.3-.4-1-.9-1.6-.4-1.3-.3-1.1-.2-.8V-65l.3-1.2.3-1 2.3-7.6.3-1.2.4-2 .3-1.7.1-1.5v-3.1l-.3-1.8-.2-1.3-.4-1.4-.5-1.6-.7-1.5-.7-1-.4-.4-.4-.4-.4-.2-.6-.3-.7-.3-1-.2-1-.2h-3.1l-2 .1-1.1.2-1.9.3-1 .2-1 .2-2.2.6-3 1-3.3 1.3-4 1.8-4.2 2-1.5.8-2.5 1.4-2 1.2-2.2 1.5-3.8 3-4 3-.4.3-.1-.3-.4-.6-1-1.4-6.3-8.8-1-1.4-1.3-2.2-1.8-3-2-3.6L39-100l-1.2-2.8-1.2-3-2.4-6.3-.8-2.4-.5-1.4-.5-1.9-.2-.8-.1-1-.1-1.3v-.5l.1-1.2.5-2.5.1-.7v-1.3l-.1-.7-.2-.8-.6-1.4-.4-1-.4-.6-.4-.7-.5-.7-.6-.6-1-.8-.4-.3-.8-.5-2.6-1-1.4-.7-.8-.6-.6-.4-.9-1-.8-1-.9-1.3-.3-.7-.4-.8-.3-1-.2-.9v-.6l-.2-1.3v-1.4l.2-1.7.2-1.3.3-1.2.8-2 .8-1.5.4-.8.7-1 .4-.6.7-1 .7-.6 1-.7 1.2-.7 1.4-.7 3.8-1.7 1.9-.9 3.5-1.7 1.8-1 1.4-1 2.6-2 3.3-2.7 2.3-2 1-.9.6-.8.3-.4.4-.7 1.3-2.6.5-.8.6-1 .8-1.1 1.3-1.5.8-.9 1.6-1.5 2.3-2.2 1.5-1.2 3.1-2.4.8-.7.8-1 .4-.4.7-.9.4-.6.3-.6.3-.7 1.3-3.5.3-1 .1-.7.1-.5v-1.7l-.6-2.7-.3-1.5v-1.4l.2-.5.3-1 .4-1.1.6-1.2 1.6-3 .8-1.5.2-.7.2-.7.2-1 .1-1v-.9l-.1-1-.6-4-.1-1.6v-4.3l-.1-3.2v-1.7l.1-1.4.2-1 .4-1.2.2-.3.4-.6.4-.7.6-.6.5-.6 1-.8 2.7-2.4 2.3-1.7 2.3-1.6 1-.7 1.4-.8 2.2-1.1 2-.9 2.4-.8 1.9-.6 2-.5 1.9-.3 1.4-.2 1.4-.1h3.1l4.2.1h2.2l1.8-.1 2-.2 1.8-.4h.4v-.2h.3l.6-.2 1.6-.4 1.5-.2 2.1-.3h1.8l1.5-.1h9l1.7-.2 4.4-.4 5.6-.7h2.8l.7.2.5.1.8.3 1 .5.6.4 1.3 1 3.1 3 1.6 1.4 1.6 1.2 1 .7 1 .6.8.3 1 .3h2.5l1.2-.3.8-.2 2.2-.8 3-1.2 1.1-.4 1.6-.5 1.2-.4 1.6-.3 1.3-.2 3.5-.2 1.9-.3 1.8-.3 3.7-.9"/></defs><g clip-path="url(#p163b9fbb20)"><use xlink:href="#mece3aa908d" y="280.5" fill="#0c1321" stroke="#0c1321"/></g></g></g></g><defs><clipPath id="p163b9fbb20"><path d="M7.2 7.2h234v266.1H7.2z"/></clipPath></defs></svg>