<svg xmlns="http://www.w3.org/2000/svg" xmlns:xlink="http://www.w3.org/1999/xlink" width="282.7" height="374" viewBox="0 0 212.1 280.5"><defs><style>*{stroke-linejoin:round;stroke-linecap:butt}</style></defs><g id="figure_1"><path id="patch_1" fill="none" d="M0 280.5h212V0H0z"/><g id="axes_1"><g id="PatchCollection_1"><defs><path id="ma6cece680d" stroke="#0c1321" d="m150.3-241 .2.4.8 1.4 2 3 2.7 3.7 2.6 3.4 1.6 1.8 1.9 2 2 2 3.1 3.1 1.6 1.7 1.5 1.6 1 1.4 1.1 1.7 1 1.9.9 1.6.4 1.2.4 1.3.2 1.2v1.3l.1 1.9v1.8l-.1 1-.1.7-.4 1.7-.3.9-.4 1.1-1 1.8-4 6.9-.6 1-.6 1.3-.5 1-.1.7-.2.7-.1 1.2v1.1l.1 3.4v1.4l-.1 2-.3 2.6v2l.2.6.1.5.5 1 .6 1 1.4 2 2 2.3.7 1.1.4 1 .4 1 .4 1 1.8 6.2 1.2 3.3.6 1.4.6 1.5 1 1.9.7 1.3.8 1.2.9 1.3.7.8.7.9.9.8.9.8 1 1 5.4 4 2.6 2.1 1 .9.9.9.6.7.2.4v.2h-.3l-.3.2-.4.3-.4.5-.7 1-1.4 2.4-.4.7-.4.5-.4.4-.4.4-.6.4-1 .6-.7.3-.4.1-1 .3-2.2.3-.8.2-.5.2-1.2.6-.6.3-1.3 1-1 .7-1 1-2.2 2.6-3.4 3.8-1.7 2-2.6 2.6-3.5 3.6L163-97l-5 4.3-4.5 4-1.5 1.3-1.7 1.7-2.1 2.3-1.9 2.2-1.4 1.8-1.8 2.6-.8 1.2-.6 1.1-.5 1-.2.7-.2 1v1.9l.1.8.3 1.1.3 1 .2.6.8 1.7 2.8 5 .7 1.4.6 1.4.3.9.5 1.6.2 1.6v1.6L147-50l-.5 1-.7 1-.6.8-.7.8-1 1-4 3.7-2 2-1.2 1.3-1.2 1.4-.8 1-1 1.4-.9 1.3-.5 1-1.3 2.2-1 2-2.3 5-1.5 3-.2-.1-.5-.2h-1.6l-1.3.2-2 .5-1 .2-1.1.1h-.8l-.9-.1-2-.4-2.5-.4-6-1-1.4-.3-.7-.1-1.3-.5-1.3-.5-1.8-.8-.8-.5-.9-.6-1.2-1-.8-.7-3.8-3.5-1.2-1-1.2-1-2-1.4-1.4-1-1-.6-.4-.1-1-.3h-2l-1.3.4-1.4.5-1.8 1-3.8 2.2-1.9 1-2 1-1.7.7-1.8.5-1.1.2H64l-.7-.1-1.1-.2-.8-.2-.7-.3-.5-.3-.5-.4-.7-.7-.5-.6-.2-.5-.4-.8-.2-.7-.1-.6v-1.6l.4-1.3.6-2 1.4-4 .4-1.2.2-.8.2-.8.1-1v-2.1l-.2-1.3-.2-.8-.2-.7-.7-1.5-2.4-4.8-.8-1.4-.6-1-.7-.9-.7-.8-1-1-.4-.3-1-.7-.6-.3-.8-.4-.8-.3-1-.2-1-.2h-1.5l-5.6.1h-1.6l-1.5-.2-2-.3-2.6-.7-2.9-.9-2-.8-1-.4-1.7-.8-2-1.1-2-1.2-1.5-1-1-.9-.6-.4-.6-.7-.6-.7-.4-.6-.3-.5-.3-.7v-.3l.2-.5h.1l.2-.3.6-.7.7-1 1-1.6 1-1.8.7-1.5.7-1.8 2-5.4.8-2.2.5-1 .8-1.7.8-1.2.7-1.1.8-1 .9-1 1-1.1 1-.8 1.7-1.4 1-.7 3.5-2.2 2-1.5 1-.8.6-.7.7-.6.9-1 1.1-1.5 1.2-1.8 1.2-2.2 2.4-4.7 1-1.7 1-1.5 1.4-1.8 1.7-2 1.9-2.2 1-1 .2-.3 2.3-2.3 1.9-2 3.2-3.6 2.2-2.8L67-144l2.1-2.7 1.7-2.3 1.4-2.1 2.7-4.3 2.5-4.4 2.8-5 1.4-3 .7-1.5.8-1.8.6-2 .3-1.1.3-1.3.2-1.3.2-1.6.4-5.2.3-2.6.5-2.2.4-1.4.5-1.3.5-1 .6-1.1.7-1 .7-.8 1-1 1-.9 1.3-.7.7-.4 1-.5 1-.2 1-.3.8-.1.9-.1h2.7l2.5.3 5 .7 1.4.2h3.7l1.5-.3.5-.1 1.1-.4.6-.3.6-.3 1-.6.6-.6.6-.6.5-.7.7-1.2.6-1.2.3-.8 1.2-3.5 1-2.6.2-.6.1-.6.1-.6v-.6l-.3-.5-.3-.5-.5-.6-1-.9-1.4-1-3.8-2.4-1-.6-1.4-1.2-.7-.6-.5-.7-.3-.3-.1-.3-.2-.5-.1-.6v-1.5l.2-.8 1.9-5.6 1.4-5.2 2-7.2 1.5-5.4 1.8-7.8.4-1.1.2-.7.4-.7.3-.4.2-.2.5-.2.6-.1h.4l.4.2.5.3.8.5.8.7 4.1 3.7 1 .9.7.4.8.5.7.4 2.4.9 1.3.5 1 .5.8.6 1 .8 1.1.9 1.9 1.7 1.4 1.5 3.9 4.2.9.8.1.1"/></defs><g clip-path="url(#pf1a57b60d8)"><use xlink:href="#ma6cece680d" y="280.5" fill="#0c1321" stroke="#0c1321"/></g></g></g></g><defs><clipPath id="pf1a57b60d8"><path d="M7.2 7.2h197.7v266.1H7.2z"/></clipPath></defs></svg>