<svg xmlns="http://www.w3.org/2000/svg" xmlns:xlink="http://www.w3.org/1999/xlink" width="309.2" height="374" viewBox="0 0 231.9 280.5"><defs><style>*{stroke-linejoin:round;stroke-linecap:butt}</style></defs><g id="figure_1"><path id="patch_1" fill="none" d="M0 280.5h231.9V0H0z"/><g id="axes_1"><g id="PatchCollection_1"><defs><path id="m0c0ac82494" stroke="#0c1321" d="m176.2-250.1.2.2.5.6 1.5 1.4.8 1 .7.9.8 1.2.6 1.2.8 1.8.5 1.4.4 1.4.4 1.9.3 2.3.3 2.6v3.3l-.8 4.5-.1 1.5v.9l.2.8.3 1 .3 1 .6 1.7.8 1.6 1 1.6 3.3 4.9 1.4 2.3 1 1.4 1 1.3 2.3 2.6 1 1.3 1 1.4.8 1.4.6 1.3.6 1.8.3 1.3v2.6l-.1 1.8-1.3 7.5-.4 1.8-.4 1.5-.5 1.6-.5 1.2-2 4.2-1.5 2.9-2.5 4.5-1.1 2.2-.8 1.8-.6 1.7-.4 1.1-.5 2.2-.5 2.4-.2.9v3.1l.3 1 .4.6.4.9.7 1 2 2.5 4 4.7 3.4 3.7 4.3 4.6 1.2 1.4 1.1 1.4.7 1 1.4 2.2 1 1.7 1.5 3 1.4 3.7 1 3 .7 2.2.9 3 .7 3 .7 3.5.2 2 .3 2.6.1 1.4v3.7l-.1 1.9-.3 2-.3 2.1-.4 1.5-.4 1.4-.5 1.5-.7 1.8-2.4 5-.5 1.3-1 3-.5 1.8-.2 1.2-.3 1.8-.2 2-.1 2v2.1l.1 2.1.1 1.4.3 2 .1.4.2.3-.2.1h-.2l-1-.2-1.1-.6-2-1.1-1.2-.7-1.5-.7-1.4-.5-1.3-.4-2.2-.5-2.4-.3h-4.8l-3.3.4-2.6.4-1.5.2-1.5.4-1.8.6-1.5.5-5 2-1.1.4-1.6.4-1.3.1-1.3.1-6.8-.1-1.5.1-1.5.3-1.5.7-1.5 1-3 2.1-2.8 2-1.4.8-1.4.7-1.4.6-5.7 2-4.6 1.5-2.3.9-1.7.8-2.2 1.1-1.4 1-1.2.9-1.2 1.1-.5.5-.7 1-.6 1-.4 1.2-.1.9-.4 3.6-.2 1-.3 1.1-.2.6-.8 1.2-.6.7-.4.4-1.1.6-1 .4-.5.2-1 .1h-.9l-.9-.3-.8-.4-.6-.4-1.2-1.1-.5-.7-.6-1-.3-.6-.4-1.2v-1.2h.1l.3-.4.6-1 .6-1.3.4-1 .3-1.2.3-1.3.2-1.2.1-1v-1.9l-.2-5.6v-12.3l-.2-1.5V-57l-.3-1.3-.2-.8-.3-.7-.5-1-.4-.6-.5-.7-.7-.8-2-2.1-1.6-1.8-1-1.5-1.3-2.6-.6-1-1.1-1.5-2.3-3-1.5-1.7-1-1.3-4.6-4.4-1.4-1.6-1.8-2.2-4.6-5.8-1.8-2.3-.9-1.2-1-1.5-.6-1.2-.9-1.8-.5-1.5-.4-1.5-.1-.8-.1-1v-.5l.1-.1-.6-1.4-1-2.3-1-2.7-1-3.1-1.2-3.8-1.5-6.1-.5-2-.5-1.8-.7-1.9-1-2.5-1.3-2.9-2.7-5.2-.7-1.6-.6-1.6-.2-1.4-.4-5.4-.2-2.3-.4-1.6-.5-1.5-.7-1.4-.9-1.2-1-1-.8-.5-1.1-.4-2.4-.6-1-.4-.5-.2-1-.5-.8-.7-.7-.7-.5-.7-.4-.8-.5-1.1-.4-1.2-.4-1.8-.3-2.2-.1-2.6-.1-1-.4-2-.4-1.8-.3-1-.4-1-.4-.8-.7-1.4-1-1.3-1-1.3-.7-.7-.7-.6-2-1-1.6-.7-2.4-.6-1.5-.3-1.9-.3-1.6-.2h-4l-2.2.1-2.8.3h-3.1l-.4-.2-.1-.2.1-.2.5-.4.7-.4 1-.5 2.5-1 5.9-2.3 3-1.4 1.8-1 1.7-1 3-1.9 1.4-1 1.8-1.4 1.4-1.3 1.3-1.2.8-1 1.2-1.5 1-1.4 1.4-2.3 1.3-2.2 1.8-3.3 1.4-3 1-2.2.9-2.5.4-1.3.7-2.6.4-2 .4-2.6v-1.8l.1-2.8-.2-2.4-.3-2.5-.4-2-.6-2.6-.6-2h.4l.9.6 3.3 2.6.7.5.6.3.5.2.6.1.9.1h1l.6-.2 1.2-.6 1-1 .5-.4.6-1 .5-1 .8-2.3.4-1 .2-.5.8-1.1.5-.5.5-.3.5-.3.9-.3 6.3-1.7 1.5-.4 2-.4 1.3-.1 1.5-.1H86l1.7.3 1.6.4 3.4 1 2.4.5 1.5.2h2.1l2.3-.2 2.2-.4 7-1.5 2.4-.4 2.3-.3 3.5-.3 5.6-.7 1.7-.1h1.2l1.1.1 1.5.2 1.4.3 1.3.6 1 .7.9.9 1 1.3.6 1.3.5 1.2.3 1 .2.9.2 1v5.8l.2 3.4.1 1 .2 1 .2.8.2.5.5 1 .7.8.7.6.8.1h.4l.9-.1 1-.3 2.3-1 8.4-4.2 5.8-2.8 3.7-1.7 2.8-1 3.2-1.2 1.8-.6 1.3-.3 1.5-.2 1.5-.2h1.1l.1.2"/></defs><g clip-path="url(#p68a67ae9c5)"><use xlink:href="#m0c0ac82494" y="280.5" fill="#0c1321" stroke="#0c1321"/></g></g></g></g><defs><clipPath id="p68a67ae9c5"><path d="M7.2 7.2h217.5v266.1H7.2z"/></clipPath></defs></svg>