<svg xmlns="http://www.w3.org/2000/svg" xmlns:xlink="http://www.w3.org/1999/xlink" width="381.3" height="374" viewBox="0 0 286 280.5"><defs><style>*{stroke-linejoin:round;stroke-linecap:butt}</style></defs><g id="figure_1"><path id="patch_1" fill="none" d="M0 280.5h286V0H0z"/><g id="axes_1"><g id="PatchCollection_1"><defs><path id="m056cf733a7" stroke="#0c1321" d="m264.6-118 .3 2.3.2 3.4.2 7.4.2 3.7.7 9.7.2 3.7v3.9l-.1 2.2-.3 1.7-.4 2.1-.3 1.3-.4 1.2-.4 1-.7 1.6-1 1.7-1 1.5-.6.9-1 1.2-2 2-1.1 1-3.2 2.6-11.6 9-10.3 7.4-4 3.2-2.4 2-5.7 5.5-2.9 2.5-2.3 1.8-1.8 1.2-1.6 1-1.4.7-1.6.8-2.2 1-1.6.5-3.4 1.2-3.1.8-2.8.6-3.7.6-3 .5-9.1 1.1-2.4.4-2.6.5-.4.2-.2.1v-.4l-.4-.5-.5-.2-.6-.3-1.3-.4-1.6-.3-2.2-.2-6.2-.4-1.8-.2-2.9-.5-2.8-.7-3-.8-4.3-1.3-2.8-1-2.8-1-1.9-1-1.5-.8-1.4-.9-1.4-1-1.5-1.3-1.2-1.3-1.2-1.7-.7-1-.9-1.6-.6-1.6-.6-1.7-.4-2-.2-1.2-.2-2.1v-1.6l.2-1.4.2-1.5.3-1.3.3-1.5 1-3.1 2-5.4.5-1.4.3-1.3.4-2.1.4-2.8.1-2v-2.1l-.4-4.8-.2-1.4-.5-1.2-.5-1-.2-.3-.5-.5-.6-.4-.5-.2-.6-.2-.6-.2h-2.6l-1 .1-2 .4-1.4.4-2.3.8-2 .9-2 1-3.7 2.2-1.3.6-1.4.3-1.1.2-5.3.3-1.2.1-1 .2-1 .4-1 .4-1.2.8-1 .7-1 1.1-.5.8-.7 1.2-.7 1.5-.8 1.8-.5 1.7-2.2 7.8-.8 2.7-.8 2-1 2.5-.9 1.7-1.7 3.3-1.5 2.5-1.3 2-1.4 2.2-1.4 2-1.4 1.5-1.5 1.3-1 .9-1.3.7-1.2.7-2 .8-1.4.4-1.7.3h-1.5l-2.2-.4-1.5-.4-1.5-.4-3.7-1.4-2-.9-1.7-.7-2.6-1.3-1.1-.6-2.8-1.7-1.9-1.3-2-1.4-6.3-4.8-1.3-.9-2.5-1.4-1-.6-1-.9-1-1.4-.7-1.5-.2-.8v-2.2l.3-1.8.9-3.2.9-2.6.8-2.3 1.3-3 1.2-2.4 1.3-2.4 1-1.7 1.6-2.4 5-6.9 1.2-1.8 1-1.4.6-1.2 1-2.2.5-1.3.3-1 .3-1.1.4-2 .6-3.5.6-5.7.2-2.5v-1.4l-.2-1.7-.4-2-.4-1.4-.5-1.3-.8-1.7-1.1-2-1-1.2-.5-.5-.9-.9-1.2-1-1-.6-.5-.2h-.4l-.4-.5-.7-.9-.4-.6-.5-1-.4-1-.5-1.7-.4-1.6-.3-1.5-.3-1.6-.4-3.7-1-11.8-.5-4.1-.6-5.1-.6-4-.7-4.2-1-4.9-3-14.2-1.1-5.6L26-201l-.8-5-.3-2.4-.5-5L23-234l-.5-5.3-.4-3.4-.6-3.8-.4-2-.5-1.7-.3-1-.5-1.1-.3-.3 11.2-1 28.4-2.5 22-1.8 12.4-1.1 21.4-2.1 2.5 13.6.8 3.8.7 2.7.7 2.2 1 2.5 3.4 6.5 1.2 2.6 1 2 1.3 3.4.8 2.2.4 1.5 1 3.8.4 2 .3 1.7.4 4.5.4 9.6.1 1 .2 1.2.2 1 .4 1 .4 1.2.6 1 1 1.3.4.4 1 .6 1 .2h2.4l1.5-.2 3.7-.5 2.8-.4 3.1-.2 2.1-.1h3.6l3.1.3 3.2.3 4.5.6h1.2l1.8.1h1.9l1.7-.5 1.6-.6 1.1-.7 2-1.4 1-.5 2.2-1.3 1.4-.6 1.7-.7 1.2-.4 2-.6 1.5-.3 1.4-.3h3.9l1.1.3.5.2.9.4.8.6.5.4.4.4.7.8.8 1 .7 1.4.6 1.3.5 1.3.6 1.8.3 1.6.3 1.6.2 1.3v4.3l-.1 1.5-.2 1.5-.4 1.8-.7 3.3-.9 3-.8 2.6-1.2 3.3-2.1 5.3-.5 1.5-.2 1-.3 2v2.5l.2 1.4.3.7.2.5.4.7.7.5.3.2.8.3 1 .2h3.4l4.4-.6 12-1.8 4.4-.6 1.9-.3 2.4-.1 2-.1h1.6l1.7.2 2.5.4 1.8.4 2.1.7 1.8.7 1.2.7 1.2 1 .9.9.5.6.5.8.7 1.1 3.2 6.7 2.7 5.2.7 1.3.8 1.3.7.9 1 1.3 1.7 1.6 1 .9.8.6 1.3.8 1 .4.8.4.6.1.7.2h.6l.3-.1.1-.1.1-.2"/></defs><g clip-path="url(#p99c48abf79)"><use xlink:href="#m056cf733a7" y="280.5" fill="#0c1321" stroke="#0c1321"/></g></g></g></g><defs><clipPath id="p99c48abf79"><path d="M7.2 7.2h271.6v266.1H7.2z"/></clipPath></defs></svg>