<svg xmlns="http://www.w3.org/2000/svg" xmlns:xlink="http://www.w3.org/1999/xlink" width="415.4" height="374" viewBox="0 0 311.6 280.5"><defs><style>*{stroke-linejoin:round;stroke-linecap:butt}</style></defs><g id="figure_1"><path id="patch_1" fill="none" d="M0 280.5h311.6V0H0z"/><g id="axes_1"><g id="PatchCollection_1"><defs><path id="me34457fa54" stroke="#0c1321" d="m202.1-258.7-.3.8.1 1.7.8 2 1.4 2 1.9 1.4 2.2.7 2.4.2 2.8-.1 3.3-.6 9.6-2.1 2.5-.5 2.5-.4 2.5-.1 2.4.1 1 .2 1.1.3 1.8.8 1.8 1 3.6 2.1 2.7 1.5 2.2 1.2 2 1.4 4 3 4.9 3.2 1.8 1.3 1.4 1.2 1.7 1.6.5.7 1.4 1.8 1 1.6 1 1.7 1.8 3.7.8 1.9.7 2 .5 1.5 3.5 13.1.5 1.8.2 1.2.1 1.8-.2 1.6-.5 1-.5.7-1.1.9-1.9.9-1.6.5-5.2 1.6-1.5.5-1.4.6-1.7 1.2-.6.8-.6 1.7.2 2 .6 1.8 1 2 1.4 1.9 1.5 2 2 2.2 4 4.7 2.2 2.4 2 2.5 1.6 2.6 1.4 2.6.6 1.5.5 1.5 1 3.3 2.6 11 2.8 11 1.3 5.4.8 3.5.7 3.6.4 3.5.5 5 .3 8.3v7l-.1 10.4-.8 22.2-.2 4.2-5.9-1.7-6-1.5-3.2-.8-10-3.3-5.3-1.5-2.7-.5-1.3-.2h-1.1l-1 .1-.8.3-1.1.8-1 1-2 2.6-1.2 1-1.4.9-1.7.6-1.8.5-2 .4-8.1 1.2-2 .4-1.7.5-1.6.6-1.3 1-.7.7-.8 1.4-1.4 3-1 1.4-1.2 1.5-1.6 1.5-1.8 1.4-2 1.4-2.2 1.4-2.3 1.3-4.8 2.6-8.3 4.2-.4.2-.7-.5-.5-.5-1.8-1.9-3-3.8-2-2.2-1.4-1.4-1-1-1.1-.8-.7-.4-1.6-.7-1.6-.5-1.8-.3-1.8-.1h-1.7l-1.8.1-1.7.3-1.6.4-1.5.6-1.4.8-.8.8-.8.8-.8 1-.8 1.2-3.1 5.4-1.4 1.7-.7.8-1 .8-1 .8-2.3 1.4-1.6.8-2.7 1.3-12.3 5.1-5.8 2.3-16 5.9-4.8-13L108-44l-3-7.6-3.2-7.4-3.2-7-3.2-6.6-11.5-22.4-4.4-8.8-3-6.6-1.6-3.5-1.4-3.5-1.1-3.1-1-3.1-1-4-.5-2.5-.4-2.5-.4-4-.6-7.3-.5-4.2-.4-2-.4-1.8-1-3.6-1.1-2.8-1.3-2.7-1.2-2.2-1.4-2.2-2.8-4.2-6.5-8.8-2.6-3.7-2.5-3.8-2-3.7-1.3-2.5-1-2.5-.9-2.3-.6-2.2-.6-2-.9-4.3-1.3-7.7-1-5.2-.5-2.3-.6-2.3-.7-2.2-.9-2.3-1.3-3.2-1.5-3-1.6-2.7-1.6-2.7-1.3-2-2.6-3.5-2.8-3.5-1-1.2 3-2.2 3.8-2.4 2-1.2 2.8-1.5 3-1.3 1.8-.7 1.5-.5 2.3-.6 1.5-.3 3.7-.6 3.7-.3 3.7-.1h14.3l9-.3 3.8-.1h11.2l15.2.3 62.2 1.3 22 .3 6.5.3 2.3.1 2 .2"/></defs><g clip-path="url(#p1f6bb37fc2)"><use xlink:href="#me34457fa54" y="280.5" fill="#0c1321" stroke="#0c1321"/></g></g></g></g><defs><clipPath id="p1f6bb37fc2"><path d="M7.2 7.2h297.2v266.1H7.2z"/></clipPath></defs></svg>