<svg xmlns="http://www.w3.org/2000/svg" xmlns:xlink="http://www.w3.org/1999/xlink" width="495.4" height="349.9" viewBox="0 0 371.5 262.4"><defs><style>*{stroke-linejoin:round;stroke-linecap:butt}</style></defs><g id="figure_1"><path id="patch_1" fill="none" d="M0 262.5h371.5V0H0z"/><g id="axes_1"><g id="PatchCollection_1"><defs><path id="m033a9973c4" stroke="#0c1321" d="m343.4-147.7 1 1 .9 1 1 1 .6 1 .6 1 .5 1.2v1.1l-.2.9-.7.8-.8.6-.9.5-1 .5-1 .4-2.3.9-3.3 1-9 2.8-4.9 1.6-5.8 2-2.1.7-6.7 2-2.2.8-1.3.5-3 1.2-4.4 2-2.4 1.1-2.4 1.2-2.4 1.4-2 1.3-3.4 2.4-.5.2h-.3l-.4.2-.7.3-1 .5-.6.5-1 .7-.8.7-1.2 1-2.2 2.3-.8.8-2 1.8-1.2 1.3-1.3 1.3-1.2 1.4-1 1.2-2.8 3.8-1 1.2-1.4 1.7-3.6 3.8-2.2 2.2-1.2 1-1.2 1-1.3 1-1.1.6-.8.3-.9.3-.6.1h-2.2l-3.2-.5-2.6-.3-3.4-.3h-4.4l-1.7.3-1.8.4-2.4.7-2.6.8-4 1.3-5 1.8-1.3.6-3 1.3-2 .7-1.4.4-2 .3-2.5.3h-2.6l-.7-.1-.9-.2-.8-.3-1.2-.5-.8-.4-2.3-1.2-1.4-.9-.7-.4-.8-.7-2.5-2.5-.5-.3-.5-.3-.8-.4-1.2-.3-2.4-.6-2-.4-1.3-.3-.7-.3-.5-.2-.8-.6-.8-.6-.9-.7-.4-.5-2.6-3-3-3.5-1.2-1.3-.8-.8-1.2-1-1-.6-.6-.3-.7-.4-.6-.2-.6-.2-1.1-.3-1.4-.2h-3.4l-1.5.3-1.6.5-1.4.5-.8.5-1 .5-.8.6-.6.5-.6.5-.6.6-.8 1-.3.6-.4.7-.4.9-.3.8-.4 1.5-.2 1.5-.1.9v1.5l.1.9.2 1 .1.7.3.9.3 1 .4 1 .9 1.9.6 1 2.4 4.1 1 2 .5.9.7 1.6.3.8.5 1.4.6 2 .1.8.3 1.8.2 1.1v2l.1 1v2.3l-.2 1.2-.1 1.3-.3 1.7-.5 2.2-.4 1.3-.5 1.6-1 2.8-1.2 2.8-1.8 4-2.8 6-.1.3h-.8l-1.7.2-1.2.2-1 .4-.8.3-.5.3-1.8 1.3-1.3 1-.5.2-.6.3-.9.2h-1.9l-.8-.1-.6-.2-.6-.2-.6-.3-.9-.5-.9-.6-1.1-.8-2.7-2.1-1.4-1.3-1.3-1.2-1.1-1.3-2.5-3-1.1-1.2-1.1-1-.6-.5-.6-.3-.6-.3-.6-.1-.8-.1h-1.6l-2.6.3-1.7.1h-1.7l-3.4-.1H103l-1.3.3-1.1.3-.8.3-1.1.5-1 .4-2.5 1.3-1.4.7-1.1.7-1.7 1.2-5.7 4.8-1.3 1-1.2.9-.7.5-.8.4-1 .5-1.3.4-1.7.6-1.4.3-1.1.2-1.7.2-2.4.2-5 .2h-2.1l-4.3-.1h-1.6l-1.1.1-1.2.3-.8.2-.2.1v.2l-2.3.4-1.3.3-3.7 1.1-1.7.6-1 .3-1.8.9-3.1 1.6-1-1.8-1.4-2.3-.8-1.3-1.2-1.6-1.4-1.8-4.2-4.6-1.5-1.8-.8-1.2-.5-.8-.5-1-.8-1.6-.5-1.6-.3-.9-.3-1.1-.4-2-.2-1.5-.2-1.8v-7.2l.4-3.3.3-2.5.2-1.2.2-1.3.6-1.6.6-1.6.3-.8.5-.6.3-.4.3-.3.5-.3h.3l.2-.2.3-.1 2-.4 1.8-.3 6.9-.9 2.3-.3 2.8-.5 2.1-.5 2.4-.6 2.6-.8 1.2-.5 1.6-.7 1.3-.6 1-.6 1.3-.7 1.3-1 1.8-1.3 2.1-1.9 4.4-4.1 1.8-1.6 3.1-2.4 7.8-5.7 8.8-6.8 2.4-2 .9-.7 1.5-1.5.8-1 .5-.6.7-1.2.8-1.3.5-1.1.3-.8.3-1 .2-1 .4-1.5.1-1.3.1-1.7v-3l-.1-2.8-.6-7.3-.1-2.8-.2-5.7-.1-2.6-.2-1.7-.1-.1v-.7l.2-1.3.3-1.3.3-.7.5-1.2 1-1.8 1.7-3.1 1-1.8 1-2 2.5-5.3 1-2.1 1-1.8 1.4-2.2.9-1.1 1.6-2.1 1-1.2 1.2-1.3 1.2-1.3 1.2-1.1 2.3-2.1 1.3-1 1.1-1 1.5-1 1.3-.8 1.5-.8 1-.4 1.8-.8 1.1-.4 1.8-.5 2.1-.4 1-.2.8-.1 1.8-.2h2.1l3.8.2h2l.9-.1 1.7-.4 3.8-1 2.6-.5 1.3-.3.8-.3.3-.1.3-.3.3-.2.2-.4.1-.5v-1.3l-.2-.5-.5-.9-1.4-2.7-.4-1-.2-.7-.1-.4v-1.1l.3-.8.4-1 .6-.9.9-1.2 1.8-2.2.6-.9.7-1 .3-.7.3-.8.3-.7.5-2.4.3-.9.3-.9.3-.5.4-.6.5-.5.4-.4.9-.7.7-.4 1.1-.5.7-.2.7-.2 3.1-.5 1.2-.4.6-.2 1.3-.6 1-.6 1.2-.8 1-.8.7-.6 1.3-1.3.6-.8.7-1 .6-1.1 1.7-3.9.4-.7.3-.4.3-.3.4-.1h.2l.6-.6 2.7-3 .8-.8 1.2-1.3 1.6-1.3 1-.9 1.5-.8 2.8-1.4 2.3-1.2 1.3-.5.8-.2.8-.2.6-.1h1.4l.7.1.5.2.7.5.6.7.6.9.5.9 1.7 3.8.6 1.3.5.6.3.5.4.5.4.4.4.3.8.4 1 .2h.6l4.2.4 1.3.2 1.2.3 1.2.4 3 1.2 1.3.4 1.2.3 1.7.3 5 .5 1 .2.8.2 1 .3 1 .4 1.4.7 1 .7 1.1.8 1.4 1.1 1 1.2 1.2 1.4.5.7.7 1.2 1.4 3 .5.9.6.9.5.6 1 .9.7.6.7.5 1.4.8.7.4 1.4.6 1.9.8 2.4.8 2 .7 2.1.6 2 .5 2.5.4 2 .3h1.5l1.5.1h2.4l4.2-.3h2l1.7.2 1 .2.8.4.9.5 1 1 .8 1.2.4 1.3v.8l-.3 1.4-.4 1-.6.9-.7 1-1.7 2-.7 1-.3 1v1.2l.3.7.8 1 .7.5.8.5 2.3 1.2.9.5 1.2 1 1.1 1 1.1 1.3 1 1.3.8 1.4 1 1.6 1 1.7 2 4.2 3.5 7.3 1.5 2.9 1.2 2 1 1.5 1 1.4 2 2.7 2.3 2.8 1.7 2 1.2 1.2 1.2 1.1 1.2 1 1.2 1 1.3 1 1.3.8 1.2.6 1.1.6 1.3.5 1.3.4 1.4.3 1.4.2h1.4l1.3.1h1.3l1.3-.1 2.4-.3 1.2-.2 1.2-.3 2.1-.7 1.6-.8 1.5-1.1 1-1 .2-.7v-.3"/></defs><g clip-path="url(#pf78f50cbdf)"><use xlink:href="#m033a9973c4" y="262.5" fill="#0c1321" stroke="#0c1321"/></g></g></g></g><defs><clipPath id="pf78f50cbdf"><path d="M7.2 7.2h357.1v248.1H7.2z"/></clipPath></defs></svg>