<svg xmlns="http://www.w3.org/2000/svg" xmlns:xlink="http://www.w3.org/1999/xlink" width="495.4" height="265.4" viewBox="0 0 371.5 199.1"><defs><style>*{stroke-linejoin:round;stroke-linecap:butt}</style></defs><g id="figure_1"><path id="patch_1" fill="none" d="M0 199h371.5V0H0z"/><g id="axes_1"><g id="PatchCollection_1"><defs><path id="m9c696d7ca8" stroke="#0c1321" d="M333.3-137.8v.6l-3 11.7-1.4 5.7-1.2 5.6-.5 2.8-.4 2.7-.3 2.7v5l.3 2.3.4 2 .4 1.6.4 1.2.5 1.2 1.1 2L331-89l1.5 1.7 1.5 1.7 1.7 1.6 5 4.9 2 2 1.5 1.6 1.3 1.6 1.2 1.7.7 1.5.6 1.6.2 1.3v1.3l-.2 1.3-.2 1.3-.8 2.3-.6 1.5-.4.7-1 1.8-3.7 5.1-4.8 7.1-.8 1.1-1.3 1.7-3 3.3-5 6-1.5 2-1.5 1.5-1 .9-.8.5h-.2l-.5-.5-1-.3-1.3-.4-1.4-.3-1.4-.2-1.3-.1H310l-2.3.4-8.1 1.8-2.7.5-3.4.6-6.2 1-3.1.6-2 .5-3.2.7-2.3.7-3.4 1L270-21l-7.4 3-2.5.8-1.6.6-1.6.4-1.4.3-1.5.2-1.5.2h-3.3l-2.9-.3-1.6-.3-2.6-.6-2.5-.8-1.9-.9-1.5-.8-2.4-1.5-6.4-4.4-2-1.4-1.7-1-2.5-1.2-3.1-1.4-3.5-1.4-1.6-.6-10.7-3.3-5-1.7-3.2-1.3-5.3-2-3-1.2-2.4-.7-2-.5-6-1.4-1.7-.5-1.8-.8-2-1-1.5-.9-3-2-5-3.2-1.6-1-2.1-1-1.7-.9-1.3-.5-1-.2H150l-1.7.4-1.5.5-2 1-2 1.2-2 1.5-6 4.9-2 1.6-2.1 1.5-2.2 1.3-2.2 1.1-1.2.5-1.8.5-1.6.4-7.6 1.6-1.4.3-1.6.5-2.4.9-2.2 1-2 .9-4.9 2.6-2.4 1-1.6.7-1.7.4-2.6.5-2.7.2-2.7.2h-5.6l-5.8-.4-8.8-.8-42.2-4 .7-.2 1.4-.5 1.8-1 2-1.1.8-.7 1.8-1.5 1.8-1.6 1.6-1.7 1.4-1.8 2.6-4.3.7-1 5-6.7 1-1.6 1.2-1.9 1-2.1.8-2 .8-2.7.8-4.5.5-2 .5-1.4.2-.7.8-1.3.7-1 .8-.9 1-1 1-.8 2.2-1.6 5.8-4 1.6-1.4 1.8-1.5 1.2-1.3 1-1.2 1.2-1.7 2.5-4 1.5-2.5L76-102l1-2.1 2.3-5.6 1.2-2.6 1.5-3 1.6-3 2-3.3 4.7-7.2L93-133l1.6-2.4 1.1-1.7 1.2-1.5 2-2.4.7-1.3.2-.5v-2.7l-.4-1.5-.8-2.6-.5-1.7-.1-.7-.1-.8-.1-1.1v-1.4l.2-1.4.5-1.8.6-1.8 1.3-3 .6-1.2 1-2 1.3-1.8 5.6-7.9 2-2.6 1.6-1.8 2-2 .8-.9.4.2 1 .3 3.6 1 2.3.7 2.5 1 3.6 1.7 2.6 1.2 5.3 2.6 15.3 7.8 6.8 3.5 5 2.4 5.3 2.5 4.2 1.8 3.5 1.3 2.7 1 1.3.4 2.8.7 2.1.4 2.1.3h2l1.8-.3 1-.3 1.7-1 1.5-1.2 1.5-1.5 1.6-1.3 1.7-1 2-.6 2-.2h2.4l2.4.3 2.5.4 2.6.5 10.6 2.2 2.8.6 2.7.4 4 .5 4.8.4 8.9.4 6.2.2h10.4l12.9-.5h1.8l1.8.1 1 .2 2.1.6 1.3.4 2.1 1 8.3 3.9 5.2 2.3 5.5 2.3 2.8 1 2.9 1 2.9.8 2.8.7 3.3.7 6.2 1 4.6.8h1.1"/></defs><g clip-path="url(#pc3f53952a5)"><use xlink:href="#m9c696d7ca8" y="199.1" fill="#0c1321" stroke="#0c1321"/></g></g></g></g><defs><clipPath id="pc3f53952a5"><path d="M7.2 7.2h357.1v184.7H7.2z"/></clipPath></defs></svg>