<svg xmlns="http://www.w3.org/2000/svg" xmlns:xlink="http://www.w3.org/1999/xlink" width="440.9" height="374" viewBox="0 0 330.7 280.5"><defs><style>*{stroke-linejoin:round;stroke-linecap:butt}</style></defs><g id="figure_1"><path id="patch_1" fill="none" d="M0 280.5h330.7V0H0z"/><g id="axes_1"><g id="PatchCollection_1"><defs><path id="m2e39753ba4" stroke="#0c1321" d="m97.6-260.8-.2.2v.5l.2.7.5 1.5 1 2 1.2 2.3 1 1.8 1.9 2.7 2.7 3.9 2 2.7 2.6 3.2 4.6 5.8 3 3.7 1.6 1.7 2.2 2.3 1.4 1.3 1 .8 2 1.4 1.8 1.2 3.3 1.7 2.4 1 1.3.5 1 .4 1.8.4 1.6.2 2.5.3h10.2l9.6.5 2 .2 1.7.2 1.6.3 1.5.4 1 .5 1.5.8.8.7 1.5 1.3 1.8 1.9 4.2 4.9 1.5 1.4.9.7.7.4.5.3 1.7.7 1.5.4 5.6.9 1.8.3 2 .6 2.8.8 2.4 1 2.3 1 1.8 1.1 3.2 2.1 1.7 1.4 1.3 1.2 1.2 1.3 1.1 1.4 1 1.4 3.2 4.8 1.6 2 1.8 1.8 1.1 1 1.2.5 1.4.4h1.2l1.2-.3 1-.3 1.7-.9 1.5-.9 1-.7 1.7-1.3 2.8-2.4h.6l.9.5 2.5 1.4 10.7 5.8 2.5 1.4 2.2 1.5 1.4 1 1.1 1 1 1 1 1.3.6 1.1.6 1.2 1 2.7 1.4 4.2.7 1.7.8 1.5 1.8 2.5 1 1.5.7 1.5.9 2 .6 1.6.4 1.7.4 2 .4 2.6.3 1.7.4 1.3.4 1 .4.8.5.6.7.7.5.4 1.1.6 1.4.6 5.7 1.8 1.7.8 1 .6.6.5.5.5.4.6.3.5v.4l-1 .1-.7.2-.5.2-.6.5-.2.4-.2.5v.6l.2.6.4.7 1.8 3 .6 1.3.4 1.4v2.8l-.3 1.8-.3 1.4-1.6 5.6-.4 1.9-.2 1.8v1.9l.2 1 .3.8.2.6.7 1.6.8 1.4 1.2 2 1.2 1.5 1.5 1.7 5.3 5.7 4.6 5.2 2.3 2.7 2 2.7.9 1.4 1 1.7.5 1 .3 1 .4 1.1.2 1 .2 1.9v1.3l-.1 1.5-.3 1.7-.2 1.3-.4 1.5-.5 1.6-.5 1.5-.7 1.9-1.1 2.3-1.6 2.9-1.8 2.7-2.3 3.3-1 1.4-1.3 2.3-.7 1.4-.6 1.5-1 2.2-.7 2L292-23l-.9 2.8-.1.7v.1l-.2.1-.3.1h-.5l-.9-.2-10.7-3.5.5-.6.1-1-.3-1.1-.7-.9-.9-.8-1.4-.8-1.6-.8-1.6-.5-1.7-.5-2.5-.6-2.1-.4-9.2-1.3-3.6-.6-2-.4-3-.7-1.5-.4-6.3-2-10.8-3-1.6-.4-2.4-.8-9.1-3.4-2-.8-1.3-.6-1.3-.7-1.7-1-3.2-2-3.2-2.1-3.6-2.6-8.2-6.3-2.3-1.8-1.8-1.6-1.2-1.2-3.4-3.5-.7-.7-2.2-2-.7-.7-.7-1-.5-1.2-1.2-3.4-.5-1.3-.6-1-.6-.8-.9-.9-2.3-1.9-2.5-2.2-1.4-1-2-1.2-7.6-3.1-2-.8-2.5-.9-3.3-1-1.7-.5-2.8-.4-3-.2h-6l-9.3.5-3.9.1h-3.9l-2-.4-2.7-.6-2.4-.6-2.3-.7-4-1.3-5.6-2-3.7-1.2-1.9-.5-3.7-1-2.4-.5-10.5-2.2-5-1.1-3.7-1.1-6.7-2.2-1.5-.4H62l-.3-.1-.6-.4-.5-.4-.7-.6-1-1-1-1.5-1-1.5-1-1.9-.5-1.3-.5-1.9-.3-1.9-.5-4.4-.2-1.7-.4-2.2-.4-1.8-.7-2.5-.8-2-1-2-.8-1.3-.9-1.2-2.6-3.3-1-1.5-1.8-2.9-3.4-5-.9-1.4-.8-1.6-.7-1.5-1-3.5-.6-1.2-1.4-2.7-1.5-3-.9-1.6-1.6-2.2-1.3-1.6-1.4-1.5-2.2-2.2-1-1-.7-1-.7-1-.6-1.1-.5-1.2-.4-1.3-.3-1.7-.1-1.7v-1l.2-3 .3-1.8.4-1.8 1.2-3.1.6-1.7.5-1.8.3-2 .2-2 .8-8.5.1-2.5.2-4.5v-6l-.1-6.7v-1.8l.1-.7.3.1h.6l1.2-.3 1-.3 1-.4 1-.6 1.1-.7 1.8-1.4 2.2-2 2.4-2 1.8-2 .6-.5.7-.5 1.9-1.2 2-1.5 1.3-.6 1.1-.4 1.2-.3 1.3-.3 3.6-.5 1-.1 3.3-.1 2.4-.3 1.3-.2 13.5-2.5 3.9-.9 3.8-1 3-1 6.2-2 2.5-.7.7-.1 1-.1h.3l.2.4"/></defs><g clip-path="url(#ped1db48045)"><use xlink:href="#m2e39753ba4" y="280.5" fill="#0c1321" stroke="#0c1321"/></g></g></g></g><defs><clipPath id="ped1db48045"><path d="M7.2 7.2h316.3v266.1H7.2z"/></clipPath></defs></svg>