<svg xmlns="http://www.w3.org/2000/svg" xmlns:xlink="http://www.w3.org/1999/xlink" width="495.4" height="326.9" viewBox="0 0 371.5 245.2"><defs><style>*{stroke-linejoin:round;stroke-linecap:butt}</style></defs><g id="figure_1"><path id="patch_1" fill="none" d="M0 245.2h371.5V0H0z"/><g id="axes_1"><g id="PatchCollection_1"><defs><path id="m8df13ee699" stroke="#0c1321" d="m326.2-209.6.3-.3h.3l.4.4.2.7v1l-.6 3.9-.2 1.8v2l.1 2 .3 1.9.5 2 .7 1.8.8 1.8 2 3.8.8 1.9.4 1.1.6 2 1.2 4 .6 2 .6 1.7.7 1.6.7 1.5.7 1.4.9 1.2 1.7 2.3.9 1.1.7 1.3.7 1.2.7 1.2.5 1.2.4 1.2.1 1.1v1.5l-.8 2.9-.2 1.5v2l.3 1.5.5 1.5 1.5 4.5.7 2.2.7 2.6.7 3.1.5 2.3.2 1v2.5l-.3.8-.6.9-1.4 1.7-1.3 1.7-1.8 2.2-2.5 3.4-.8 1.3-.6 1.3-.2.9v1.2l.1 1.3.9 3.5.1 1.1v1.4l-.3 1.2-.6 1-.9 1-.7.7-.7.3-.7.4-1 .2h-1.8l-3.5-.7-1.3-.2-1.2.2-.8.3-.7.4-.8.7-1.3 1.2-1 .7-1.4.5-1.6.3-2 .1h-12.2l-.6.2-.6.2-.6-.2-1.1-.1-1.5.1-1.6.5-6 2.7-1.5.7-1.3.9-1.2 1-1 1-1 1.4-1 1.6-.3.9-.4.9-1 2.3-.4.9-.6.8-.7.6-.7.7-.8.5-1.6 1-1 .6-1.3.6-.9.4-.8.2-1 .3-1.7.4-4.2.6-5.2 1-2.2.3-1.3.4-1.4.5-2.5 1-1.7.7-.6.2-3 .7-1.6.4-1.3.4-1.2.4-.7.3-1 .4-.8.5-1.5 1-1.4 1-1.2 1-.7.6-1 1.2-1.4 1.8-1.5 2.3-1 1-.2.2-1 .7-1.1.3-.9.1h-.6l-.9-.3-.9-.4-3.5-2.1-6.7-3.8-1.5-.8-1.3-.5-1.9-.7-1.2-.2h-.2l-.7.2-1 .7-.3.3-.5.6-.5.8-3 4.8-.8 1.2-1 1.1-1 1-.5.3-.5.2h-.2l-.5-.2-.3-.4-.1-.8v-.8l.4-2.9.7-4.5.1-2v-1.3l-.2-1.3-.3-1-.2-.5-.3-.5-.3-.4-.5-.4-1.2-.3-1.4.1-1.7.5-1.7.6-1.9.9-2 1-4 2-10.8 6.2-4.1 2.3-10.1 5.8-10 5.7-34.3 19.2-4 2.2-4 2-1.9 1-1.8 1-1.8.7-1.8.6-1.9.5-1.4.4-3 1-1 .4-1.3.3-1.2.2-1.3.1H90l-2 .1h-1L86-18l-4-.8h-1l-.9-.1h-2.8l-6.2.7-2 .2h-.8l-1-.1-.8-.3-.5-.6-.1-.8.2-.5 1.4-2 .6-.9.4-1 .3-.9.6-4.6.2-1.5.1-1.6V-34l-.1-2-.1-.8-.2-.8-.3-1-.2-.6-.4-.5-1-1.5-.3-.6-.1-.3-.2-.8-.1-.7v-2.8l-.3-.9-.2-.5-.3-.5-.5-.7-.7-.5-1-.2-1.2.2-1.2.4-2.5 1-1.2.4-1.2.4-1.6.4-1.1.2-4 .5-1.7.1H46l-2-.2-2-.4-1.7-.5-2-.8-1.4-.6-1.7-1-1.9-1-1.7-1.1-1.8-1.3-1.7-1.4-1.2-1.1-1.3-1.5-.9-1.4-.5-1.2v-.9l.2-.1v-.5l-.7-4.7-.2-2-.1-2.4V-73l.1-1.6.3-1.7.6-2 1-2 1-1.7 1.2-1.8 1.4-1.6 1-1 1.4-1.4 1.7-1.5 2.5-2 5.6-4.4 2-1.7 1.2-1 2.2-2 2.8-2.9 2.6-2.5 1-1.3 1.2-1.4.7-1 .3-.9.3-1.4.2-1.4.2-1.5v-.3l.5-1.3.6-1.2 1-1.9 1.1-1.4 1.5-1.7 1.2-1.1 1.4-1 1.4-1 1.5-.6 1.5-.3 1.5-.2 3-.2 1.5-.3 1.3-.4.4-.3 1.2-1 1-1.4.7-1.5.6-1.7.3-1.8v-4.8l.2-1.6.4-1.6.5-1.5.7-1.6 2.2-4.8.6-1.5.5-1.5.3-1.7.2-1.6.2-1.2.3-1.2.7-1.6.9-1.5 1.8-3 .4-.8.6-1.2.5-1.2.3-1.3.6-2.4.5-1.5.2-.7.1-.7-.1-.9-.3-.8-.4-.8-.7-1.9-.4-1-1.5-2.8-.5-1.2-.5-1.2-.4-1.2-.3-1.1v-1l.2-.6.2-.5.3-.5.7-1 .4-.3.8-.6 1-.6.7-.4.8-.3 1.5-.2h1.5l1.6.3 2 .4 1.4.2 1.6.1 2.7-.1 1-.1.5-.1 1-.3.7-.4.6-.3.9-.6.7-.6 1.4-1.4 1.4-1.5.7-1 .7-1 3-5 .8-1 .8-.9.6-.6.7-.4.9-.3 1-.1h1.2l1.3.5 1 .5.6.5.5.5.6 1 .4 1 .2 1 .2 1.5.3 1.3.5 1.1.7 1 .7.6 2.2 1.6 1.1.8 1.3.7.8.3.8.4 2.6.8 1.1.5 1.5.6 1.3.6 1.4.4 1.4.4 1.5.3 1.3.2h1.3l1.3-.2 1.4-.5 1.3-.9 1.2-1 1.1-1.1 1-1.2 1-1 .3-.6.6-1 1.1-2.2 1.4-2.4 3.6-6.2 5.2-8.5 1.8-3 .3-.3.4.5.9.5 1.1.3h1.2l1.2-.2 1.1-.5 2.4-1.5 2.8-1.6.8-.5.8-.7 1.7-1.8.8-.5.8-.2.7.1.7.4.6.6 1.2 1 1.3 1.4.8.9.6.8.4.5.5 1 .3.7.8 2.5.5 1 1.7 3.7 1.5 3.1 1.2 2.7.7 1.1.8 1.2.7.9 1.5 1.6.7.9.3.5.4.8.1.8v.6l-.2.6-.4.8-1.3 1.5-.7 1.1-.5 1-.5 1.6-.3 1.3v1.3l.2.7.5 1.3.8 1.2.8 1.3.8 1.3.6 1.4.2 1v2.7l-.4 4.8v4.3l.2 1.5.7 2.6.4 1.2.7 1.8.3.6.8 1 .8.9 1 .6.5.2.7.1 1.6.3.9.3.4.2.9.5 1.3 1 .7.7.5.5.3.6.4 1 .2.8.5.7.3.3.5.2h1l4.1-.6 2.6-.3 1.2-.1 2.4-.6 1.3-.4 1.6-.7 1.3-.7 1.2-.8 1.2-1 5.5-4.8 1.4-1.3 1.2-1.2 2-2.3 1-.9 1.3-.7 1-.2 1.4-.2h1.5l1.3.3 2 .6.8.2h.9l1-.3.8-.5.6-.8.4-.7.4-1.2.2-1.7.5-5.3.2-1.6.3-1.4.4-1.4.5-1.2.4-.7.6-.6 1.2-.8 1.3-.6 1.4-.3 1.2-.3 1.3-.2h1l1 .3 2.7.6 1.7.3h3l1.5-.3 1.4-.3 3.2-1 2-.6 2.5-.5 4.2-.7 1.2-.1 5-.2 3.2-.3h2.8l1.3-.2 1.3-.3 1.3-.7 1.2-1 1-1.2 1-1.4.7-1.5.5-1.5.3-1 .6-3.5.5-1.6.8-1.3 1-1.2 1.2-1.1 1.2-1 1.3-.7 1.2-.4.6-.1h.7"/></defs><g clip-path="url(#p0679abb6d7)"><use xlink:href="#m8df13ee699" y="245.2" fill="#0c1321" stroke="#0c1321"/></g></g></g></g><defs><clipPath id="p0679abb6d7"><path d="M7.2 7.2h357.1V238H7.2z"/></clipPath></defs></svg>