<svg xmlns="http://www.w3.org/2000/svg" xmlns:xlink="http://www.w3.org/1999/xlink" width="327.5" height="374" viewBox="0 0 245.7 280.5"><defs><style>*{stroke-linejoin:round;stroke-linecap:butt}</style></defs><g id="figure_1"><path id="patch_1" fill="none" d="M0 280.5h245.7V0H0z"/><g id="axes_1"><g id="PatchCollection_1"><defs><path id="m61618f258a" stroke="#0c1321" d="m228-206.5-.4.5-2.1 3.4-5.9 9.7-4.2 7-1.5 2.9-1.3 2.4-.7 1.3-.4.5-1 1.3-1.2 1.3-1.3 1.3-1.4 1.2-1.5 1-1.6.5-1.4.3h-1.5l-1.6-.3-1.6-.3-1.6-.4-1.6-.6-1.5-.6-1.7-.7-1.3-.5-3-1-1-.4-.9-.4-1.4-.8-1.3-.9-2.5-1.8-.8-.8-.8-1-.6-1.3-.3-1.6-.2-1.6-.3-1.2-.4-1.2-.7-1-.6-.7-.7-.5-1.2-.6-1.5-.5-1.4-.1-1 .1-1 .4-.8.5-.8.7-.9 1-.8 1.1-3.5 5.8-.8 1.2-.8 1-1.6 1.8-1.7 1.6-.8.7-1 .6-.6.4-.9.4-1.1.3-.6.2-1.2.1-3 .1h-1.9l-1.6-.3-2.3-.5-1.8-.3H138l-1.7.3-1 .3-.8.4-1.1.7-1 .7-.4.4-.8 1-.3.6-.3.6-.1.6v1.2l.2 1.3.5 1.4.6 1.4.6 1.3 1.6 3.2.6 1.2.8 2.1.4 1 .3 1 .2 1-.1.7-.2.8-.7 1.8-.6 2.6-.4 1.5-.6 1.5-.6 1.4-.5.8-2 3.5-1 1.8-.8 1.8-.4 1.3-.3 1.4-.2 1.9-.4 1.9-.5 1.6-.7 1.8-2.5 5.5-.8 1.8-.6 1.8-.4 1.8-.2 1.9v5.4l-.4 2-.7 2-.9 1.8-1 1.5-1.4 1.2-.5.3-1.5.6-1.6.2-3.5.3-1.8.2-1.7.4-1.7.7-1.6 1-1.6 1.2-1.4 1.3-1.7 2-1.2 1.6-1.3 2-.6 1.5-.5 1.4-.1.5-.2 1.6-.2 1.7-.3 1.6-.5 1-.7 1.2-1.3 1.6-1.3 1.4-2.9 3-3.2 3.2-2.5 2.3-1.4 1.2-2.3 1.9-6.4 5-3 2.3-1.8 1.7-1.7 1.6-1.1 1.2-1.6 1.9-1.4 2-1.2 2-1 2.2-.7 2.3-.4 2-.1 1.8v3l.1 2.8.3 2.3.7 5.4v.7l-3 1.5-1.8.8-1.5.5-.6.1h-.5l-.3-.1-.3-.3-.2-.4v-1l.5-2.2v-.8l.1-1.7v-1l-.2-1-.1-1-.3-1-.5-1.4-.7-1.6-1.2-2.7-1-1.8-.4-.8-1-1.6-.7-.7-1.2-1.4-.6-.7-1.2-1.2-1.5-1.2-1.3-.8-1-.6-.9-.5-2-1-3.2-1.3-1.3-.5-2-.6-1.5-.4-1.6-.3-2.9-.5.1-.6.8-2.3 2-5.5.5-1.7.8-1.9.6-1.2.6-1.2 1-2 .8-1.1 2-2.8 1.5-2.3 1.3-2.4 1-2 .5-1.6.5-1.2.4-1.4.3-1.3.2-1 .3-1.5v-3.9l-.3-.8-.3-1-.3-.8-.4-.8-.8-1.4-.8-1.3-1.7-2.2-1.9-2.3-3.9-4.3-4.5-4.8-1.2-1.5-1-1.3-1-1.6-.7-1.2-.6-1.4-.2-.5-.2-.6-.1-.9-.1-1.5.2-1.6.4-1.6 1.2-4.7.3-1.2.2-1.5.1-1.2v-1.1l-.3-1.2-.6-1.1-1.5-2.5-.3-.6-.2-.5v-.5l.2-.5.2-.3.5-.3.4-.2.6-.2.8-.1v-.2l.2-.2.5-.5.9-.6.7-.5 1-.5.8-.3 1.5-.5 1.3-.3H30l1 .1 1.2.3 1 .3 1.8.7 1.4.7 2.1 1.2 1.7 1.2 1.8 1.3 1.4 1.2 2.6 2.5 1 .9.5.3.4.2.4.1.7.1h.6l.7-.2.5-.2 1-.5 1-.7 1.5-1.3.7-.7 1-1.3.8-1 .8-1.5.4-1 .4-1.6.2-1.4v-1.5l-.1-3.6v-4l.1-2.4.3-3 .3-3.4.5-3.7.6-2.5.4-1.8.3-.9.5-1 .4-.8.3-.6.6-.7.7-.7.7-.6 2.5-2 .6-.6.8-.8 1.3-1.4.4-.6.3-.5.7-1.4.6-1.2.6-2 1.5-6.2 1.8-6.7 1.2-4.7.2-1.4v-3.3l-.2-1.3-.5-3.2-.9-4.8-1-5.6-.5-1.8v-.4h.1l.4-.1.4-.3.5-.4.4-.6 4-5.2.5-.7.5-1 .4-1 .4-1 .6-2.2.8-2.8 1.2-5.6.5-2.4.6-1.6.2-.6.4-.6.3-.5.5-.4.5-.3.7-.1h1.6l2.7.3h1.7l.7-.3 2-.7.7-.2h.5l1.1.1.7.2 1.4.5.8.4h.2l.2.5.8 1.8.4 1 .4.7.8 1.3.7.9 1.2 1.4 1.3 1.2 1 .7.8.4 1 .2 1.5-.1 1.4-.5 1.5-.9 1.4-1 1.4-1.3 6-5.6 1.7-1.8 3-3.5.8-.7.8-.7.8-.6.9-.5 1.1-.5 1.2-.1h1.2l1.4.3 1.2.4 1.6.6 3.3 1.5 3.6 1.9 2.5 1.4 3.5 2.1 9.7 6.5 4 2.5 3.6 2.2 5.9 3.1 3.1 1.8 2.8 1.6 1.8 1.2 3 2.1 1.5 1.2.6.6 1 1 1 1.3 1.1 1.7 1.1 1.5.5.6 1.2 1.2 1.4 1.1 1.6 1 1.7 1 2.1 1 6.6 2.9 3 1.4 5.6 2.9 2.6 1.3 5 2.2 4.3 1.6"/></defs><g clip-path="url(#pf291fbd8c7)"><use xlink:href="#m61618f258a" y="280.5" fill="#0c1321" stroke="#0c1321"/></g></g></g></g><defs><clipPath id="pf291fbd8c7"><path d="M7.2 7.2h231.3v266.1H7.2z"/></clipPath></defs></svg>