<svg xmlns="http://www.w3.org/2000/svg" xmlns:xlink="http://www.w3.org/1999/xlink" width="207.2" height="374" viewBox="0 0 155.4 280.5"><defs><style>*{stroke-linejoin:round;stroke-linecap:butt}</style></defs><g id="figure_1"><path id="patch_1" fill="none" d="M0 280.5h155.4V0H0z"/><g id="axes_1"><g id="PatchCollection_1"><defs><path id="m1c971460a2" stroke="#0c1321" d="m126.2-211.2-.2.3v1.6l.5 1.3.5 1.4 1.9 4.8 1.2 3.2 1 3.3 1.3 4.3.7 2.9 3.5 15 1.3 5.7.5 3 .5 3 1.4 9.3.6 4 .3 3 .2 3.1.3 4.3v6.5l-.4 3-.3 1.4-.3 1.4-.4 1.3-.7 2-1 2.3-1.5 3.5-1.3 2.8-1.5 2.5-1 1.7-1.9 2.5-2.2 2.7-3 3.5-3.2 3.4-2.3 2.3-4 3.7-3 2.9-2 2.1-1 1.3-1 1.2-1.5 2-1.3 2-1 1.6-1 1.7-.5 1.2-.7 1.6-.7 1.9-.8 2.7-.7 2.6-.7 2.9-.3 1.7-.2 2.4-.2 2.1v2l.1 3 .2 2 .2 1.8.3 1.5.3 1.2.4 1.3.3 1 .5 1.1.3.7.4.6.4.6.4.1-.1.2.1.7 1.2 5.2.2 1.5.2 1.5.1 1.5v2.9l-.3 1.4-.3 1.2-.5 1.1-.4 1-.6.7-.6.7-.7.6-.8.5-.8.3-1.3.1-1-.2-.8-.5-.8-.5-.7-.8-.6-.8-1.1-1.5-3.4-5.5-1.7-2.6-1.5-2.3L87-35l-.8-1-1.2-1.2-.9-.6-.8-.5-.7-.2-1.6-.2h-1l-.9.2-1.7.5-2.8 1.1L66-33l-1.7.7-1.1.4-1.4.4-1.5.3-1.5.2H48.4l-1.4.3-1.2.2-1.1.4-1.4.5-1.4.8-1 .8-.8.5-1 1h-.3l-.3-.1-.4-.2-.4-.2-.5-.3-.6-.6-.4-.5-.3-.6-.5-1.1-.4-1-.2-1.2-.1-1-.2-1.8-.2-4.6-.2-2.1-.3-1.8-.4-1.9-1.8-5.3-.3-1.3-1.1-5.1-.4-1.3-.4-1.2-.8-1.7-.6-1.1-.6-1-2.1-3-3-3.8-1.5-2-.6-1-.6-1-.5-1.2-.4-1-.3-1.3-.4-1.6-.5-2.8-.3-3.5-.3-1.7-1-4.5-.3-2.2-.4-3-.6-5.7-.2-1.6v-11.7l-.2-2.7-.4-4.2-.2-1.5v-2.9l.4-7.2v-2L14-140v-.7l.3-1.8.6-3.2.5-2.6.2-1.5.3-2.8.2-2.8.2-8 .5-9.1.3-3.7.9-6.7.7-6.7.3-3.7v-1.7l.7-1 2.5-3.4 1.4-2 1-1.6.9-1.6.8-1.9.5-1.3.4-1.4.5-2.1.7-4.2.3-1 .3-.8.6-1.3.7-1.1.8-1 2.9-3.6.8-1 .7-1.1.7-1.1.4-1 .3-.8 1.2-3.8.5-1.3.3-.5.4-.9.7-.9.9-.8 1.2-.9.6-.4 2-1.2 2.8-1.4 1.5-.7 2.6-1.1 6-2.4 2.6-1 2.7-1.3 1.2-.7 2.2-1.4 1-.7 1.5-1.2 1.6-1.4 3.8-3.8.4-.3.2-.2h.2l3.8-2.3.8-.5.8-.3.8-.2.8-.2h.8l1.2.3 1 .6 1 .8 1 1 .8 1.2 1 1.3.9 1.5.8 1.4.8 1.4 1.4 3.1.4.7.6.7.6.5.9.6.9.4 7 2.5 2.3 1 1.4.6.8.4 1.3.8 1.2.8.8.8.9.9.5.6.5.7.4.8.9 1.7.7 1.8.4 1.1 1 3.8 1 3 .6 1.3.5 1.3.8 1.5.9 1.3 1.5 1.8.7 1 2.1 3.3.6.8.5.6.2.2.5.2h.2"/></defs><g clip-path="url(#p12929c0554)"><use xlink:href="#m1c971460a2" y="280.5" fill="#0c1321" stroke="#0c1321"/></g></g></g></g><defs><clipPath id="p12929c0554"><path d="M7.2 7.2h141v266.1H7.2z"/></clipPath></defs></svg>