<svg xmlns="http://www.w3.org/2000/svg" xmlns:xlink="http://www.w3.org/1999/xlink" width="466.4" height="374" viewBox="0 0 349.8 280.5"><defs><style>*{stroke-linejoin:round;stroke-linecap:butt}</style></defs><g id="figure_1"><path id="patch_1" fill="none" d="M0 280.5h349.8V0H0z"/><g id="axes_1"><g id="PatchCollection_1"><defs><path id="m41f9c0dee9" stroke="#0c1321" d="m200.7-251.1.6-.4h1.2l1.6.4 1 .5 1 .6 1.3 1.2 1 1 2 2.3 2 2.4 2.2 3 1 1.4.7 1 .7 1.2.7 1.4 2.2 4.5 1.1 2.3 1.6 2.9 3.3 6.4 1.7 2.8 1.4 2.1 1 1.5 1.3 1.7 2 2.2 1.5 1.6 1.7 1.5 1.7 1.4 1.9 1.3 2 1 1.6.8 7.9 3 1.6.6 1.6.8 1.9 1.2 1.5 1.4 1 1.6.6 1.4.3 1 .2 1.6.2 4.7.6 5.2.3 5.8.2 2 .3 1.9.2 1 .7 2.1 1 2.6.9 2.3.9 2 1 1.9 1.3 1.7 1.1 1.1 1.3 1 1.4.8 1.4.5 1.4.1h1.4l1-.3 1.5-.5 1.6-.8.9-.5.9-.6 1.2-1 .7-.7.5-.6.4-.5.4-1.2v-.9l-.4-3v-1.3l.1-1 .4-1.2.7-1.8.5-1 .4-.6.6-.6.6-.4.6-.3 1-.2h.8l1 .2.8.2.6.3 1.2.7 1.4 1.2 1.4 1.6 1.2 2 1.2 2 3 5.4.8 1.4 1.1 1.6 1.3 1.8 1.4 1.6.7.7 1.1 1 1.4 1.1 1.7.9.9.3 1.1.3 1.4.2 1.6.1h4l2.3-.3 4-.7.3.3.2.5v.9l-.2.5-.4 1-.5 1.2-1 1.8-.6 1.1-1.6 2.4-1.9 2.7-1.6 2.2-2.5 3-2.3 2.7-1.6 1.7-3.3 3.4-5.1 4.7-1.7 1.8-1 1.1-1.9 2.3-1.4 1.8-1 1.6-.8 1.2-.6 1-.6 1.2-.4 1.1-.6 1.7-.5 1.9-1 5.3-.5 1.7-1.2 4.2-1.4 4.2-1.2 3.6-.4 1.6-.7 3.1-.6 1.9-.5 1.3-.5 1.2-.9 1.4-.5.8-.6.8-.9 1-1 .7-1 .6-1.2.6-1.4.4h-2.4l-2.8-.3-1.6-.3-1.1-.4-3.6-1.6-1.2-.6-1.2-.6-1.4-1-2-1.8-.7-.5-1.2-.6-1-.2-1.2.1-1.2.3-1.1.4-1 .4-1 .6-1 .7-1 .8-2.4 2.1-4.3 4.2-1.9 1.6-1.8 1.4-1 .6-1.5 1-2.5 1.2-2 1-3.9 1.5-1.6.6-1.8.6-4.4 1.3-6.5 1.5-2.2.7-2.1 1-4.2 1.8-3.5 1.8-5.9 3.1-1.2.6-2 .7-1.6.5-2 .5-3.9.8-3.7.7-1.7.3-1.6.4-1.3.4-.9.4-3.2 1.5-1.2.4-1.1.3H170l-2.4-.2h-2l-1.2.2-.9.3-1 .4-.5.4-1.4.9-1.5 1.2-2.4 2-2.3 1.9-2.8 2-2.3 1.4-1.3.7-2.4 1.1-2.8 1.3-3 1.3-1.3.5-1.3.4-1.2.4-1.6.4-1.9.2h-.9l-1.1-.3-.7-.2-1-.3-.8-.5-.7-.4-1.4-1.2-2.1-1.9-1.4-1.4-1-1.3-.6-.8-.7-1-.8-1.3-1.3-2.4-2-4.2-1.5-2.6-1.9-2.8-6-9L105-53l-.9-1-.7-1-1.7-1.4-1-.9-.8-.5-1.5-1-2.1-1-1.8-.7-2.4-.9-3.6-1-7.7-1.8-4.2-1.2-4.4-1.4-10.5-3.6-4-1.3L53-73l-2.4-.5-2.7-.4-3.9-.4-2-.4-2-.5-1.8-.7-1-.5-1-.5-.5-.4-.7-.6-.5-.5-.6-.8-.6-.8-.5-.8-.3-.8-.4-1v-.8l-.2-1 .1-1 .3-1.2.3-.7.2-.2.2-.2.2-.5.3-1.7.2-1.5v-1.8l-.1-2.3-.3-2.2-.3-1.8-.3-1.7-.4-1.4-.3-1.2-.6-1.6-.5-1.2-.7-1.8-.8-1.6-1.1-2-3.6-6.3-1-2.3-.7-1.5-.5-1.9v-1.9l.2-.6.2-.5.5-1 .7-.8.8-.7 1-.5.5-.2.6-.2 1.6-.1 1.9.1 2 .5 2 .6 2.8 1 2.5 1.1 7.7 3.5 2.5 1.1 2.5 1 2.4.8 2.4.6 2.2.2 2-.3 1.2-.5 1.1-.7 1.6-1.4 1.4-1.7 1.5-2.1 1.3-2.1 1-2 1-1.9 1-2.2.7-2 .6-2 .5-2 .2-1 .1-1v-1.2l-.5-1.4-.7-1.2-.6-1.3-.4-1.5v-1.6l.2-1.1.5-2 .6-1.6.6-1.4.7-1.5 3.2-5.7 1.3-2.6 2-4.4 2-4.7.6-1.3.8-1.5.8-1.3 1.5-2 .6-1 .5-1.1.4-.8.5-1.4.5-1.3 1.2-4.6.4-1.6.3-1.8.4-1.8.4-1.2 1-2.6.6-1.6 1-2.9 1-3.8.4-1.5.6-1.4.7-1.5 2-3.3 1.8-3.6.7-1.7.8-2.9.1-.3.5-.3 1 .1 1.1.4 1.4.5 2.2 1.1 4.8 2.8 1.8.9 1.3.4 1.7.4h1l1.6-.1 1.5-.5.6-.4.6-.3 1-1 .8-1.3.6-1.5.4-1.6.8-1.4 1.2-1.4 1.6-1.2 2-1 2-.9 2.2-.5 2.3-.3 2 .1 4.2.7 1.8.1h1.6l1.4-.5 1.3-.7 1.1-1 1-1 .6-1 .5-1 .8-1.8.7-1.8.3-1.1.6-2.6.2-.7.3-.8.7-1.3 1-1 1.2-.8 2.8-1 1.5-.6 1.3-1 2.4-2.2 1.3-1.1 1.3-1 1.6-.7 3.3-1 1.6-.4 1.5-.7 3-1.5 1.7-.5 1.5-.3h1.5l2 .2 1.9.4 1.7.9 1.7 1.5 1.4 1.8 2.5 3.7 1.2 1.3.9.5.6-.2"/></defs><g clip-path="url(#p08b8bc707b)"><use xlink:href="#m41f9c0dee9" y="280.5" fill="#0c1321" stroke="#0c1321"/></g></g></g></g><defs><clipPath id="p08b8bc707b"><path d="M7.2 7.2h335.4v266.1H7.2z"/></clipPath></defs></svg>