<svg xmlns="http://www.w3.org/2000/svg" xmlns:xlink="http://www.w3.org/1999/xlink" width="358.4" height="374" viewBox="0 0 268.8 280.5"><defs><style>*{stroke-linejoin:round;stroke-linecap:butt}</style></defs><g id="figure_1"><path id="patch_1" fill="none" d="M0 280.5h268.8V0H0z"/><g id="axes_1"><g id="PatchCollection_1"><defs><path id="m78519004cf" stroke="#0c1321" d="m225.5-236-.2.1v.6l.4.6.8 1 .9 1 3.1 3.2 1 1.1 1.1 1.3 1.4 2 1.5 2.5 1.3 2.7.3.9.8 2.3.4 1.3 2 7 .5 1.9 1.3 3.6 2.4 5.6.7 2 1.3 3.8 2.8 8 .5 1.9.3 1.7v1.7l-.5 2.2-1 2-.8 1.6-1 1.6-1.1 1.5-4.3 5.9-1.5 2.2-1 1.6-1 1.7-.6 1.3-.5 1.3-.8 2.1-.5 2.1-.3 2v1.8l-.1 3.7-.2 1.8-.3 1.8-.4 2.2-.5 1.9-.5 1.9-.6 1.9-.7 2.1-.8 1.8-.6 1-.5 1-1 1.5-1.8 2.6-4 5-1.4 2-1 1.4-1.2 1.9-.9 1.7-1 2.3-.4 1.1-.4 1.3-.4 1.5-.2 1.1-.1 1.3v1.6l.2.6.2 1 .1.4.5 1.2.5.7.9 1.2 1.2 1 1.2.7 1.3.7 1.8.6 2.6.8 2 .8 1.8.8 1.4.7 1.2.6 1.5 1 1.2.8.7.6 1 .8.7.9.5.8 1 1.6.9 2 .6 2 .5 1.6.8 4.5.4 1.7.4 1 .2.7.3.3h.1l.1.5-.2.3-.5.7-.7.5-.6.5-1.5.9-2.4 1.3-2.7 1.4-1.5.7-2.7 1.1-1.5.5-5 1.6-5.3 1.7-6.4 2-3.3 1.1-1.7.8-1.3.7-1.2.7-1.6 1.3-1 1-.7.8-.7 1-.7 1.3-.7 1.5-.6 1.6-.6 2-.8 3-2 9.4-.4 1.5-.3 1-.7 1.7-.4.7-.5.8-.6.7-.7.6-.5.4-1 .5-1.3.5-1.9.2h-2.2l-2.2-.3-2.3-.5-1.7-.5-1-.3-1.7-.8-2-1-2.8-1.6-4.8-3-1.5-.8-2.1-1L159-31l-6.7-3-2.4-1.1-2-.8-7.5-2.5-5.6-2-2.3-.6-1.3-.3-1.5-.3-1.5-.1h-1.1l-.8.1-.5.3v.2l-2-4.4-1.8-4.4-1.3-2.6-1.3-2.7L118-58l-1.6-2.7-1.6-2.7-1.6-2.6-1.7-2.4-1.7-2.4L108-73l-1.8-2.1-2-2.1-1.9-2-2-1.7-1.8-1.2-3.3-2.1-1.4-1-1-1.2v-.2l-.1-.3-.2-.7v-1l.1-1 1-3.8.2-1.1.1-1.1.2-5.3v-1.6l.3-2 .1-2.1-.1-1.4-.3-1.6-.7-2.6-.8-2.5-.8-1.9-1-2.2-1-1.5-.9-1.3-.7-1-6-6.2L81-130l-1.3-1-1.8-1.3-1.6-1-1.7-.7-1.6-.5-1.2-.3-2-.2h-4l-1.6.2-1.2.2-1.3.3-2.4.6-1.2.4-1.9.9-1.7.9-.9.5-1.4 1.1-.8.8-.6.7-.3.5-.3.6-.2.5v.3l.2.4-.8-.2-1-.3-.6-.3-1.4-.8-.7-.2h-.5l-1.2.4h-.5l-.2-.4-.3-.6-.2-.6v-1.6l.6-1.1v-.5l1-.5v-.2l-.3-.2-2-.7h-.7l-1-.2-.8-.4-.5-.5-.4-.4-.6-1.3-.4-1.5-.2-1.8v-5.7l.3-2.2 1.2-5 .3-1.4.1-1.1v-2l-.5-2-.3-.9-1-1.8-2.6-5-.7-1.7-.3-1-.1-.8v-3.6l-.3-1.2-.8-3.6-1-5-.4-2.2-.3-2.2-.3-2-.4-4.8v-.8l-.2-.7-.2-.6-.3-.6-.4-.6-.4-.4-.6-.6-1.3-1.1-2.6-2-2.5-2-2-2-.8-.7-.2-.4 9.3-1.7 26-4.8L63-216l2.8-.6 5-1.1 2.4-.7 2.3-.7 2.4-.7 2.2-.9 2.2-.9 2.1-1 2.2-1 2-1 4.2-2.4 4.8-3 4.8-3.3 15.9-11.1 4.4-3 4.5-3 2.3-1.3 2.4-1.2 2.3-1 2.2-.7 1.3-.3 3.8-.6 6-1.1 3.3-.6 5.3-1.2 3.4-.6 1.6-.1 1.3-.1h2.5l3.4.3h2.6l2.7-.4 5.4-1.2 2-.4 2-.2 1.8-.1h2.5l2.3.1 1.1.2 1 .2 1 .3.6.2.8.4.6.5.7.5 2 1.8 2.2 1.9 1.4 1.3 2.3 2.7 1.5 1.4 1.9 1.5 1.6 1 2 1.2 1.6.7 2 .7 5 1.6 1 .4 1.6.9.6.4.9.8 1 1.4 1 1.4.5 1.2.1.5"/></defs><g clip-path="url(#p182e73da97)"><use xlink:href="#m78519004cf" y="280.5" fill="#0c1321" stroke="#0c1321"/></g></g></g></g><defs><clipPath id="p182e73da97"><path d="M7.2 7.2h254.4v266.1H7.2z"/></clipPath></defs></svg>