<svg xmlns="http://www.w3.org/2000/svg" xmlns:xlink="http://www.w3.org/1999/xlink" width="495.4" height="341.7" viewBox="0 0 371.5 256.3"><defs><style>*{stroke-linejoin:round;stroke-linecap:butt}</style></defs><g id="figure_1"><path id="patch_1" fill="none" d="M0 256.3h371.5V0H0z"/><g id="axes_1"><g id="PatchCollection_1"><defs><path id="md9d03eff42" stroke="#0c1321" d="M251.7-90h-.5l-.8.6-.6.4-.9.8-3.2 3-1 .9-2 1.6-1.3 1.1-2 1.8-.8.7-.8.7-1 .6-1 .5-1.3.4-2.2.6-1.3.4-1 .4-.9.5-1 .6-1 .7-.9.6-7.7 5.7-2 1.4-1.8 1-1 .6-3.6 1.8-1.5.8-3.4 2-.9.5-1.6.7-1.2.4-1.4.5-1.1.3-1.4.3-2.2.5-1.2.2-3.4.4-5.2.6-2.2.3-.9.2-1.6.4-1.5.4-1.2.4-2.2.9-7.2 3-6.8 3.1-7.2 3.2-4.7 2-5.6 2.3-2.8 1.2-1.2.6-1 .5-1 .5-.7.5-.5.4-.2.4v.3l-4.4.4-3.6.5-1.2.2-3.2.7-2.5.5-1.7.3-1.2.4-.6.2-1.3.6-1.7.9-2.6 1.5-1.2.6-.5.2-1.3.5-.7.2-.6.1-.7.2h-2.9l-2.5-.2-4.5-.6h-3.1l-.8.2-.5.2-.4.2-.6.3-.5.3-.6.5-.6.7-1.2 1.7-.4.6-.4.4-.6.6-.8.5-.7.4-.4.1h-.3v.1l-.4.1H83l-1.2-.2L80-21l-1.2-.2-1.4-.4-1.2-.3-1.4-.5-2.6-1L71-24l-.6-.1-.5-.1h-2l-.6.1-1 .3-.9.3-1.5.7-3.3 1.6-1.4.6-1 .4-1.2.4-.9.2-.7.1-3.6.5-3.6.6-1 .1h-4.7l-4.4-.5h-5.8l-1.4.2-2.8.4h-1.2l-1-.2-.7-.3-.6-.5-.6-1-.3-1-.1-1v-3.4l.1-1.4.2-1.1.2-1.2.4-1.9.4-1.3.4-1 .4-1 1-1.8.8-1.6 1-1.5.5-.7.4-.5.1-.5.5-1.1.4-.8.5-.8.6-1 .6-.7.7-.7 1-.9.9-.6 1-.6 1.1-.6 1.1-.5L39-50l1.7-.7.9-.3 1.4-.3 1.1-.3L46-52l2-.4 1-.1 2-.2 4.2-.2 4-.4 2.2-.2 1.2-.2 1-.2 1.1-.3 1.1-.4 1.1-.4 1-.5.6-.3.4-.5.2-.2.3-.4.2-.4.2-.6v-1.1l-.1-.4-.2-.4-.1-.3-.3-.3-.3-.3-.3-.2-.9-.4-1.6-.9-.6-.3-.7-.5-.7-.5-.5-.4-.6-.6-.5-.5-.3-.4-.6-.8-.6-.9-.4-.7-.2-.6-.3-.7-.3-1.2-.1-.8v-1.7l.1-1.4.2-1.1.3-1 .3-1 .4-1 .3-.6.4-.8 1.3-2.5.7-1.2.5-1.3.6-1.5.3-1.3.4-1.4.3-1.6.7-4.3.3-1.4 1-4.4.2-1 .2-1.3v-2L68-106l-.3-1-.8-1.3-1-1.1-.4-.5-.6-.5-.7-.5-.6-.4-1-.5-.4-.2.1-.1.2-.5.4-1.1.6-1.7.6-2 .5-2.3.6-2.5.4-2 .3-2.2.2-1.8.4-4.3.9-11V-163l.2-1.3.2-.8.2-1.1.3-.8.3-.8.3-.7.4-.6.6-.8.4-.4.4-.5.5-.5.4-.3 1-.7.5-.3 1-.5 1.2-.5 3.5-1.3 1.5-.5 2.1-.9 1.2-.4 1.2-.4 3-.6 1.3-.3 1.2-.4 1.4-.5 1.8-.7 2-.9 1.5-.6 1-.7.5-.2.7-.6.3-.3.7-.8.8-1.2 1.8-2.8.9-1.2.7-1 1-1 .7-.6.4-.3 1-.5.6-.4.7-.2.6-.3.8-.1.6-.2h3.1l.6.1 1.5.4 2.7.8 1.8.7 1 .5 1 .5 1 .7.5.5.8.7.6.7 1 1 1.3 1.7.5.5.5.5.9.9.5.4 1 .6 1.2.8 1.2.7 3.4 1.7 2.4 1.2 1.2.5 1 .3.9.3 1.2.3 1.1.2 1 .2h.8l1.1.1h.8l1.4-.1 1-.1 2.3-.3 1-.1 1.2-.1h1.4l2.4.1 5.8.5 2.4.2h1.2l1.3.1h1.7l1.6-.2 2-.3.8-.1.3-.1h.1l.3-.1h.4l1.9-.2h2.8l7.2.1h1.8l4-.3h1.6l1.1.2 1.2.2 1.2.4 3.8 1.1 1.3.4 2.3.5 1 .2h1l1-.2 1-.4 2-.8 1.3-.6 1.2-.6 5.8-3 2.4-1.2 2.9-1.4 3-1.3 6.6-2.7 6.7-2.7 5-1.9 5-1.8 3-1.1 1.5-.6 1.4-.7 1.4-.6 1.5-.9 1.5-.9 7-4.7 2.8-1.7 1.3-.8 1.4-.8 1.4-.7 1.6-.8 1.6-.7 3.3-1.4 3.3-1.3 18-7 4.4-1.6 1.6-.7 1.4-.6 1.5-.7 1.4-.9.9-.5 1.9-1.4 3.6-2.7 2.3-1.6 1.2-.8 2-1.3 2.5-1.3 3.3-1.7 2.4-1 1.4-.6 4.7-2 1.9-.8.7-.4.3-.2v.4l2 4.3.5 1.5.5 1.3.4 1.3.2 1.4v2l-.1.6-.5 1.2-.5 1-.7.8-1 1-.6.7-2.5 2.3-1.2 1.1-.6.8-.3.5-.2.5-.1.6v1.5l.1.6.2.8.2.6 1 2.7.1.7.2.8v2.5l-.2.6-.1.5-.2.4-.5.8-.5.6-1.4 1.6-.6.8-1.4 1.9-.9 1.3-.5 1-.3.8v.4l-.2.6v1.5l.2.7.3.7.4.8.5.8.8 1.1 1 1.2 1.2 1.3 3 3 1 1 1 1.2.8 1.1.7 1.2.5 1.2.3 1v2.1l-.2 1.6-.2 1.1-.2 1.1-.3 1.2-.6 1.4-.5.9-.6.9-2.7 3.9-.5.8-.9 1.4-.8 1.6-2.2 4.3-.9 1.7-.6 1.1-.7 1-.7 1.1-1.3 1.8-1 1.2-1.2 1.3-1.4 1.5-1 .9-1.8 1.4-1.1 1-.7.7-1 1.2-1 1.3-.9 1.3-3.4 5.6-1.6 2.3-.8 1-.6.9-2.5 3-.8 1-.5.8-.6 1-1.9 3.6-.6 1-.4.8-.7 1-1 1-.5.4-.5.4-.6.4-.5.2-.6.2-.7.3-1.1.2-.9.1h-1.1l-1.4-.2h-.7l-.9.2-.8.2-1.2.5-1.2.6-1.6.9-7.2 4.1-.4.3-1 .4-1.1.3-.5.1-.7.1-1.4.1h-1.2l-1.3-.2-1.5-.2-5-1h-1.1l-1.6-.3h-2.4l-.9.3-1 .3-.8.4-.8.4-.9.5-.8.6-1.3 1-1 1-.9.8-1 1.1-.8 1.1-.8 1-.7 1-.6 1-.4.8-.5 1-.4.9v.3"/></defs><g clip-path="url(#pa4b57eaad2)"><use xlink:href="#md9d03eff42" y="256.3" fill="#0c1321" stroke="#0c1321"/></g></g></g></g><defs><clipPath id="pa4b57eaad2"><path d="M7.2 7.2h357.1v241.9H7.2z"/></clipPath></defs></svg>