<svg xmlns="http://www.w3.org/2000/svg" xmlns:xlink="http://www.w3.org/1999/xlink" width="495.4" height="367.8" viewBox="0 0 371.5 275.9"><defs><style>*{stroke-linejoin:round;stroke-linecap:butt}</style></defs><g id="figure_1"><path id="patch_1" fill="none" d="M0 275.9h371.5V0H0z"/><g id="axes_1"><g id="PatchCollection_1"><defs><path id="m9b65cd79e6" stroke="#0c1321" d="M262.8-255.2h.3l.1.4v.5l-.3.7-1.2 3-.8 2-.5 2.5-.3 1.5-.2 2.6v2l.2 1.7.2 1.4.5 2.2.4 1.2.7 1.9.5 1.3 1.7 3 2 2.8 2.4 2.7 2.5 2.4 2.6 2.1 3.2 2 1.6 1 1.4.6 9.6 3.7 2.8 1.3 3 1.7 7 4.4 2.4 1.4 2 1.1 6.6 3.1 2.4 1.3 2 1.4 2.6 1.9 2 1.7 2.2 2 1.7 1.7 2 2.3 1.9 2.5 1.7 2.5 2 3 2.5 4.5 4.3 7.3 1 2 1.3 2.7.8 2 .7 1.8.8 2.5 1.2 4.2 1 3.9.4 2.8.3 2.8v4.8l-.6 3.5-.7 3.2-.8 2.8-.8 2-.4.8h-1.1l-1.3.2-7 1.7-9.6 2-5.5 1.5-3 1-2.8 1.4-2.5 1.5-1.8 1.2-4.3 3.1-4.9 3.3-1.9 1.1-1.8.8-1.4.6-2.2.7-2.4.6-1.8.8-1 .7-.7.7-.5.6-.5 1-.5 1.4-1.5 4.5-1 3-1.8 4-1.3 2.7-1.5 2.2-1.7 2-1.9 1.8-1.9 1.3-1.9.8-.8.3-3.2.7-3.2.9-6 1.1-8.5 1.5-1.7.2-4 .3-1.4.2-1.6.5-.7.2-1.7.8-2.4 1.3-2.4 1.6-3.3 2.5-2 1.6-2 1.8-2.5 2.6-1.8 2.2-2.2 2.8-1.7 2-2.7 2.8-1.4 1.6-1.3 1.6-4.3 5.9-2.4 2.9-1.8 2-1.2 1.3-1.3 1-2.3 1.3-2.7.7-3 .3-3-.3-2-.4-2-.6-3.9-1.3-2.7-.8-1.7-.3-2.3-.2-1.7.2-1.8.3-2.5.8-3.3 1.4-2.4 1.2-2.5 1.4-3.4 2-9.1 6-2.4-2.5-5.3-4.9-6.5-5.7-3.3-2.8-5.7-4.6-17-13.3-5.3-4.2-2.2-1.8-2.2-1.9-3-2.7-3-3.3-2.2-2.6-3.6-4.8-3.8-5.4-3.9-6.1-4.4-7.4-9.7-17.1-3.7-6.4-4-6.5-2.2-3.3-1.4-2.1-3.3-4.3-1.6-2-3.8-4.4-4.3-4.8-7.2-7.7-4-4.4-1.7-2.2-2-2.8-1.8-2.8-1.2-2.8-.6-2-.2-1.6.1-2.3.4-2.3.8-2.3 1.2-3 1.4-3 1.7-3 2-3.2 2.2-3.4 2.4-3.6 2.5-3.5 2.4-3.1 3.2-4 3.3-3.9 4.3-4.8.6-.7 3-3.3 1.7-1.7 2.5-2.4 2.5-2.1 10.6-8.9 13-10.6 3.4-2.7 4.3-3h.2l.6.5.9 1.4 1 2 2.1 5 1.4 3 .8 1.3 1.6 2.7 1 1.5 1.3 1.9 1.2 1.6 1.8 2 1.2 1.3 1.2 1.1 1.7 1.4 1 .6 1.5 1 1.5.6 3.3 1.2 5.3 1.6 8.5 2.7 3.4.8 4.2.8 2.6.4 2.3.2 4.7.2h1.8l2-.1 7-.7h2l2.1.2 3.1.6 5 1 7.9 1.1 4.4.8 1.7.4 6.8 2.2 2.3.4 2.4.1 1.9-.1 1.8-.4 2.2-1 1.2-.6 1.5-1 2.1-1.7 2.3-2.3 2.1-2.5 2-2.6 2-2.9 2.3-3.6 2.8-5 2.5-5 1.3-2.7 3.8-8.4 1-2.1 1.2-1.8 1.4-1.6.6-.5.9-.5 1-.5 2-.7 1.2-.3 1.7-.3 2.3-.3 2-.2h3.3l2.2.2 3.4.4 6.8 1.1 1.6.1h.4l.3-.2"/></defs><g clip-path="url(#pa171626153)"><use xlink:href="#m9b65cd79e6" y="275.9" fill="#0c1321" stroke="#0c1321"/></g></g></g></g><defs><clipPath id="pa171626153"><path d="M7.2 7.2h357.1v261.5H7.2z"/></clipPath></defs></svg>