<svg xmlns="http://www.w3.org/2000/svg" xmlns:xlink="http://www.w3.org/1999/xlink" width="264.4" height="374" viewBox="0 0 198.3 280.5"><defs><style>*{stroke-linejoin:round;stroke-linecap:butt}</style></defs><g id="figure_1"><path id="patch_1" fill="none" d="M0 280.5h198.3V0H0z"/><g id="axes_1"><g id="PatchCollection_1"><defs><path id="m14ff343dc7" stroke="#0c1321" d="m79.5-253 .1.7.5.9.9 1.4 1.1 1.5 2.3 2.6 2.6 2.6 13 12 7.7 7 3.5 3.4 2.2 2.5 2.1 2.5 3.7 5 4 6 3.5 5.2 5.5 8.8 3.2 5.6 1.5 3 .8 2 3.6 9.8 1.5 3.7 1.5 3.3 2.4 4.6 2.2 3.5 2.1 2.4 1.1 1.1 2.2 1.9 2.7 2 10.6 7.4 1.5 1.3 1.5 1.8.7 1.6.4 3 .1 2.9-.1 7.3v2.6l.6 4.3 1 4.4 1.3 4.4 3.5 8.7 1.7 4.7 1.2 3.8.9 3.6.6 3.8.3 3.7-.2 3-.4 2-1.2 3.3-1 1.6-1.3 1.4-1.8 1.5-2.4 1.3-1.4.5-1.8.6-2 .5-2 .3-3 .2-7-.2-4 .2-1.8.3-1.9.6-3 1.3-2.4 1.2-6.3 3.8-3 2-3.6 3.3-3.6 4-3.5 4.4L121-37l-3.2 4.7-2.9 4.6-4.8 8.3-.3-.7-1.3-1.6-2-2.1-4.6-4.7-2.6-2.4-3.5-3-3.5-3-9.2-7.3-2.7-2.3-2.2-2-1.9-2-1.8-2.6-1-2.4-.7-2.5-.3-2.5-.1-2.5v-8.8l-.8-6v-3l.2-3.1.8-3 1.2-2.8 3-5.4 1-2.7.3-1.1.2-2v-1.8l-.3-1.8-.7-2-1-1.8-.9-.9-1-.6-1.6-.4h-1.9l-6.6 1.2-2.4.2-9.8.2h-3.1l-3-.4-3.2-.5-6.9-1.3-8-.9-3.7-.6-1.4-.4-1.7-1-.5-1v-.7l-.5-1.6-1.7-5.4-1-3.3-.6-2.7-.5-2.7-.4-3.2-.2-2.4v-2.7l.1-2.7.6-5.1 1.2-6 .5-2.3 1.5-4.9.6-2.2 4.2-21.3 3.6-14.3 1.8-7.7 1.8-8.7 1.7-8.9.4-3 .6-5.4.6-9.7v-2l-.2-1.5-.4-1.7-.4-1.3-.5-.6 14.6-4.3 5.7-1.9 6-2.4 2.5-1 3.8-2.1 1.6-.7.8-.2h.8l.8.1.7.4.8.5 2.4 1.9 4.7 4.5 1 .8"/></defs><g clip-path="url(#p09219cb80d)"><use xlink:href="#m14ff343dc7" y="280.5" fill="#0c1321" stroke="#0c1321"/></g></g></g></g><defs><clipPath id="p09219cb80d"><path d="M7.2 7.2h183.9v266.1H7.2z"/></clipPath></defs></svg>