<svg xmlns="http://www.w3.org/2000/svg" xmlns:xlink="http://www.w3.org/1999/xlink" width="297" height="374" viewBox="0 0 222.8 280.5"><defs><style>*{stroke-linejoin:round;stroke-linecap:butt}</style></defs><g id="figure_1"><path id="patch_1" fill="none" d="M0 280.5h222.8V0H0z"/><g id="axes_1"><g id="PatchCollection_1"><defs><path id="m2fd8ecbaf1" stroke="#0c1321" d="M158.3-65.3v2.2l.2 1.3.4 1 .2.5 1 1.2 1 1.1 1.4 1 1.5.9 3.6 1.6 1 .6.6.6.3.4.6.8.4 1 .2 1 .1.6v1.2l-.2 1.3-.4 1.2-1.2 3.4.2.6-.1 1-.4 1.2-.8 1.4-1.1 1.2-.8.6-1.7 1-5.1 2.5-6.1 3-1.3.8-1.3.9-1 .8-.9.9-.8.9-.7 1-2.1 3.2-.8.8-.5.3-1 .5-1.2.3-1.2.2h-2.2l-1.1-.3-1-.2-.9-.4-.8-.5-1-.8-.4-.5-.5-.6-.6-1-.6-1-.4-1.1-.7-2.2-1.7-5.7-.6-1.5-.7-1.3-.5-.6-.5-.3h-.4l-.5.2-.6.5-.6.8-1.5 2.8-.6 1-.9.9-.5.3-.7.4-1 .3-.8.2h-1l-.7-.1-.1-.1-3.3-1.1-.6-.3v-.5l.2-1.3-.5-.1-1-.5-5.2-3-1.6-1-1.6-.7-2.7-1L97-40h-.5l-3 .1-2 .3-2.1.5-6.3 1.7-3 .6-2 .1H77l-1.9-.1-2-.5-2.5-.8-2.1-1-4.8-2-1.6-.9-1.6-.9-1.3-.9-2.9-2.1-5.5-5-2-2-1-1-1-1.3-2-2.9-.9-1.6-.8-1.5-.6-1.6-.7-1.8-.2-1-.8-4.4-.4-1.4-.4-1-1.5-2.4-.3-.6-.2-.8-.2-1v-2.2l1-3.4.3-1.2.1-.8v-1l-.2-1-.6-2.1-.2-.5-1-1.6-1.1-1-2.6-1.7-1.4-1-.8-.6-1.6-1.4-3.2-3.3-1.8-1.6-1.5-1.2-4.6-2.8-1-.9-.4-.7-.2-.3-.3-.8v-1.6l.4-1.2.1-.6 4.2-1L25-114l11-4.6 11.1-5 3.7-1.5 2-.6 1.8-.4 1.8-.4 3-.4 2.8-.1h1.4l2.5.3 1.6.3 8.3 2.2 2.2.3h2.5l1.7-.5 1.6-.8 1-.7 1-1 .6-1 .4-1v-1.7l-.3-1.8-.2-2v-2.2l.5-2.4.7-3.5.4-2 .1-1.4v-1.7l-.2-1.8-.5-2.7-1-4.5-.3-2.2v-2.5l.2-2.3.5-2.3 1.3-4.6.5-3.3.8-5.5.3-1.8.6-1.8.5-1.3.9-1.7 1.4-2 1.5-1 1.7-.7 1.6-.2h1.6l2.5.4 2.7.8 2 .7 2.5.9 2.3 1 2.4 1.1 3.1 1.7 3.5 1.9 7.4 4.5 2.7 1.6 3.9 2 1.7.8 1.7.6 1.6.5 1.3.3h1.3l1-.5.6-.7.1-1.2-.3-1.1-1-2-2-2.9-9.8-13.5-3.8-5.4-2.1-3.3-1.5-2.4-1.3-2.4-1-2.2-1.5-3.5-1.2-3.6-.9-3.5-.6-3-.3-1.8-1-6 5.7-8.2 3-4.1 2-2.6 2.3-2.5 2.9-2.8 2.5-2.2 11.3-8.8h.4l.7.5 1.3 1 1.6 1.4 1.9 1.7 2 2.1 6.8 7.7 4.6 5 2.1 2.2 7.2 7 7.1 7 5.6 5.7 2.6 2.9 2.3 2.5 2.2 2.6 2.1 2.5 2 2.9 1.8 2.8 1.3 2.4 1 2.8.5 2.6.2 2.8-.1 2.4-.3 2.4-.4 3-1.8 9.5-.6 3.7-.4 3.6v4.3l.1 2.4.4 2.4.7 2.8 1 2.6 1 2.5 1 2.2 2.4 4.4.4 1.5v.5l-.5.7-.6.7-1.4 1-1.4.7-3 1.3-8.3 3.3-5 2.1-2 1-2 1.2-1.5 1.3-1.3 1.5-1 1.5-.7 1.5-1 2.7-.5 1.2-.6.8-.8.8-1.5.9-1.1.3-2.7.4-1.1.4-1.6.7-1.7 1-1.6 1.4-1.5 1.5-1.5 1.7-2.6 3.6-2.3 3.7-1.6 2.7-.7 1.3-.7 1.8-.7 2-.8 3.3-.4 2.4-.1 2.4.1 3 .2 2 .5 2.4.5 1.9 1.2 3.5 1.1 2.5.7 1.4 1.3 2.2 2.4 3.5v.4"/></defs><g clip-path="url(#p6b7bfcc7c4)"><use xlink:href="#m2fd8ecbaf1" y="280.5" fill="#0c1321" stroke="#0c1321"/></g></g></g></g><defs><clipPath id="p6b7bfcc7c4"><path d="M7.2 7.2h208.4v266.1H7.2z"/></clipPath></defs></svg>