<svg xmlns="http://www.w3.org/2000/svg" xmlns:xlink="http://www.w3.org/1999/xlink" width="308" height="374" viewBox="0 0 231 280.5"><defs><style>*{stroke-linejoin:round;stroke-linecap:butt}</style></defs><g id="figure_1"><path id="patch_1" fill="none" d="M0 280.5h231V0H0z"/><g id="axes_1"><g id="PatchCollection_1"><defs><path id="me79cc1797d" stroke="#0c1321" d="m205.9-98.1 1.4 4.7 1.4 5.8.8 3 1.3 3.5 2 4.8.7 2.4.4 2v1.9l-.3 1.7-.8 2.1-1.1 2-1.5 1.9-1.5 1.6-3.7 3.6-3.2 2.9-2 1.5-1.6 1-1.2.7-3 1.4-4.2 1.8-4 1.7-6.4 2.3-2.5 1-2.5 1.2-5.8 2.7-2.5 1.1-2.6 1.1-4.7 1.6-2 .9-1.4.9-1 .8-.8.8-2.4 2.7-1.6 1.7-1.1.9-1.3.8-1.2.7-1.6.9-3.3 1.3-2 .8-2 .6-4.2 1-3 .5-2 .2-3.3.3h-4.9l-2.3-.3-2.8-.5-3-.7-3.8-1.4-1.6-.9-2.1-1.2-1.8-1.2-2-1.5-2.2-1.8-2.8-2.6-4.5-4.6-.8-.6-1.5-1.5-2.5-2.8-3.7-4.2-6.6-8-2.1-3-1-1.8-1-2.2-.7-2-2.2-8.3-.5-1.7-.6-1.3-.6-1.2-1.2-1.6-.8-.8-1.5-1.3-1.4-1-2.6-1.6-5.3-3-8.5-4.3-2.5-1.4-2.6-1.5-3.4-2.3-1.9-1.5-1.5-1.4-2.2-2.4-3.2-3.8-.7-1-.6-1-.3-.7-.4-1-.1-1.2v-1.4l.2-1 1-3.5.3-1.2.2-1.4v-1.5l-.3-4-.2-1.6-.3-1.2-.8-1.6-.8-1.3-.6-.8-1.1-1-1.4-1.2-1.6-1.3-2.8-1.8-1-.6v-.5l.5-1 1.2-2.4 1.6-2.4 1.3-1.5 2.2-2.5 1.1-1 2.2-2 3-2 1.5-1 2-1 6.3-3 1.8-.7 8.9-3.7 2.8-1.4 2-1 1.8-1.2 1.8-1.6 4.4-4.7 1.2-1 2-1.2 1.4-.3 1.5-.1H74l1.3-.1 1.3-.2 1.7-.7 1.6-.9 1.6-1.2 1.3-1.4 1-1.4.8-1.4.7-2 .5-2.1 1.1-6 .4-2.9.3-5v-6.4l.2-5 1.2-13.6.5-4.7.3-2.3.8-3.6 3-12.6 1.5-6.9.4-2.8.5-7 .6.1 1 .5 1.9.9 3 1.7 6.7 4.1 9.6 6.2 3.3 2.3 3.3 2.3 8.1 6.3 2.8 2 9.3 6.4 3.3 2.2 10.9 6.3 3.7 2.3 2.8 2 1.5 1.2 1.4 1.3 1.3 1.2 1.1 1.4 1.2 1.8.8 2 .4 2.4-.1 2.5-.5 2.6-1 5.2-1 4.5-.5 2.7-.2 2.6.3 2.6.6 2.5 1.5 5.2 1 4 .2 1.6.2 1.8.2 6.9.3 6v3l-.5 9.7-.1 2.6.1 2.3.4 1.8.7 1.6.9 1.6.8 1.2 2.4 3 2.4 2.8 7.8 8.5 8.3 9.4 3.7 3.9 4 4"/></defs><g clip-path="url(#p5bff259982)"><use xlink:href="#me79cc1797d" y="280.5" fill="#0c1321" stroke="#0c1321"/></g></g></g></g><defs><clipPath id="p5bff259982"><path d="M7.2 7.2h216.6v266.1H7.2z"/></clipPath></defs></svg>