<svg xmlns="http://www.w3.org/2000/svg" xmlns:xlink="http://www.w3.org/1999/xlink" width="386.6" height="374" viewBox="0 0 290 280.5"><defs><style>*{stroke-linejoin:round;stroke-linecap:butt}</style></defs><g id="figure_1"><path id="patch_1" fill="none" d="M0 280.5h290V0H0z"/><g id="axes_1"><g id="PatchCollection_1"><defs><path id="m9680ba8961" stroke="#0c1321" d="m270.2-132.3-3 1.4-2.5 1-4 1.6-2.5.8-3.8 1-1.2.4-1.1.5-1 .5-2.1 1.3-2 1.4-1.8 1.5-.8.9-.9 1-.8 1-2.3 3L225-91.5h-.5l-.6.4-1.2 1.3-3.9 5.4-1 1.4-1.6 2-1.8 1.7-2 1.8-1.9 1.6-.8.5-1.6 1.1-1.6 1-2.6 1.6-1.5.8-1.7.9-1.6.7-1.5.5-1.7.5-1.5.2-.9.2-2 .1-4.8.2H177l-2-.2-1.6-.2-1.5-.3-1.8-.5-5.3-2-4.6-1.7-2.3-1.1-1.4-.8-1.4-.9-2-1.5-1.5-1.2-3-2.9-3.2-3.4-1.3-1.2-1.8-1.5-.6-.4-.8-.4-1.2-.5-.6-.1h-1.7l-1.5.4-.4.2-1 .6-.8.6-.6.8-.6 1.4-.2 1.7v.8l.3 2 .4 1.1.5 1.2.5 1 2.5 4.5 3 4.9 1.6 2.4 1 1.4 1.9 2.5 1.8 2.1 2 2.1 2.2 2 2.2 2 5.4 4.6 1.8 1.6 1.8 1.7 2 2.3 2 2.2 1.5 1.9 1.3 1.7 1 1.4.5.8v.3l-1 3-.5 1.1-.5 1-.6 1-.7 1-.8.9-.8.8-.7.5-1 .7-1.2.7-1.6.8-2.4 1-2 .8-2.5.8-1.1.3-2 .3-1.9.2h-2l-2.2-.2h-1.1l-3.5-.7-8.8-2-1.4-.4-.8-.3-1-.5-.7-.4-.9-.8-.9-1.1-.4-.6-.6-1.2-.7-1.9-.6-1.8-.4-2.3-.3-2-.5-5-.3-2.4-.3-1.5-.8-2.7-.9-2.8-1-2.6-3.3-7.8-2-5.3-.6-1.3-.7-1.3-1-1.7-1-1.7-2-2.5-4.2-5.1-6.3-7.4-4-4.8-1-1.2-.9-.8-1.5-1.3-1.3-1.1-3-2.2-1.2-.8-1.2-.7-1.7-1-1.1-.3-1.4-.5-1-.1-1.4-.2-1.5.1-1.3.2-1.3.2-2.2.6-2 .7-2.7 1-2 1-1.7 1-.9.8-1 1-1.4 1.7-3.3 4.5-1 1.2-.9 1.1-1.4 1.5-2 1.4-3 1.9-1.3.7-1.6.8-6.5 2.8-1.5.5-1 .2H33l-1.3-.2-1.3-.4-1.2-.6-1-.7-.9-.7-.7-.7-.6-.6-1-1.4-1.2-1.8-.8-1.7-.8-2-1.5-4-.4-.8-.3-.3h-.3l1.2-2.2 7.2-12 2.7-5 1.6-3 1-2.2 1-2.8.5-1.9.2-.9.2-1.6.2-2.3v-2.9l-.2-3.5-.3-2.6-.3-3-1.3-7.2-.2-1.4-.2-1.5v-2.1l.1-2.1.3-1.7.3-.9.5-1.7.4-1 .4-.7.4-.6.6-.7.3-.3.7-.5.4-.2.6-.2 1-.2H41l1.3.4 1.4.4 1.4.5 1.3.7 2 1 1.6 1.1 1.7 1.3 1.5 1.3 1 1 1 1.2 2.8 3.6.5.5.7.5 1.1.6h1.1l.5-.1.3-.2.3-.3.2-.5.1-.7v-.4l-.1-.5-2.3-6.2-.5-1.5-.3-1.5-.3-2.6-.3-5-.5-4.6v-2l.1-1.4.6-2.7 1.1-4.7 1-4.6 1.1-4.9.5-1.7 1.5-4.8.5-2 .3-1.5.2-1.6v-1.4l.1-1.5-.1-2.4-.2-1.5-.2-.8-.5-1.9-1.3-3.7-.5-1.8-.6-2.3-.5-2.6-.3-2-.4-4.1-.4-2.6v-.6l.1-.3 1-.7 1.5-1.1.6-.5.7-.9.8-1.2.8-1.9 2-5.2 1.9-5.1.8-2 .4-.8.6-.8.9-1 .9-.7 3.1-1.8 1-.7 1.8-1 3.4-.7 3.4-.6 3.3-.5 2.5-.4 2.7-.5 2.9-.2h3.1l3.7.4 3.7 2.5 1.1 1.4.9 1.4.6 1.7.4 1.7.6 4.6.2 1.3.3 1.4.3 1.1.4 1.1 1 2.3.8 1.2.5.6.4.5.9.7.8.6.5.2.6.3 1.2.3 1.7.2 1.8-.1 1.9-.4 2.2-.6 1.3-.4 2.3-1 4-1.8 5.9-2.8 6.8-3.5 4-2 2.3-.9 2.7-1 2.1-.6 1.4-.2 1.2-.2h2.2l1.8.4 1.5.4 2.7 1 3.5 1.4 4.8 2 3 1.5 2.5 1.3 3.8 2 3.5 2 3.1 1.8 3.4 2.2 2.2 1.6 1.7 1.5 2.4 2.2 2.3 2.4 2.1 2.6 5.4 7.2 1.6 2 .7.7 1.9 1.8 1.8 1.7 3.7 3 1.4 1.2 1.4 1 2.6 1.7 1.1 1 .6.6.5.9.6 1 .4 1.2.2 1.2v2.2l-.1 4.3v2l.5 1.7.7 2 1 2.1 1.3 2.1 1.3 2.1 1.5 2.2 3 4 8 10.4 1.9 2.5 1 1.6.9 1.6.8 1.5 1 2.1 3.8 9.2 2.6 5.8 1 1.8 1.2 1.6 1.2 1.1 1.3.9.8.4 1 .5 1.6.5 1 .2h.4"/></defs><g clip-path="url(#p3395b48735)"><use xlink:href="#m9680ba8961" y="280.5" fill="#0c1321" stroke="#0c1321"/></g></g></g></g><defs><clipPath id="p3395b48735"><path d="M7.2 7.2h275.6v266.1H7.2z"/></clipPath></defs></svg>