<svg xmlns="http://www.w3.org/2000/svg" xmlns:xlink="http://www.w3.org/1999/xlink" width="380.9" height="374" viewBox="0 0 285.7 280.5"><defs><style>*{stroke-linejoin:round;stroke-linecap:butt}</style></defs><g id="figure_1"><path id="patch_1" fill="none" d="M0 280.5h285.7V0H0z"/><g id="axes_1"><g id="PatchCollection_1"><defs><path id="m7db9442706" stroke="#0c1321" d="M264.5-74.5h.2l.1.1.2.2.3.5.3.6.2.8.2.7.1.8v4.5l-.2.8-.1 1-.4 1.3-.2 1-.3.8-.5.8-.3.5-.6.8-.8 1-2.4 2.6-1.4 1.5-1.1 1.4-.6.8-.6.8-.5.9-.4 1-.7 1.7-.6 1.5-1.7 3.4-.4.9-.4.7-.7 1-.8.9-.4.5-1.2 1-1 1-1.8 1.2-5.4 3.3-4.1 2.7-3 2-1.1.6-2.3 1.2-1.8.8-.8.4-1 .4-1.2.4-1 .2-1 .2h-2.9l-1.3-.1-1.3-.2-1.3-.2-2.8-.6-1.2-.2-1.7-.2H208l-6 .6-1.6.2-1.8.4-2 .5-2 .6-.6.3-1 .4-.8.4-1 .5-1.4 1-.7.4-.1.2v-2.8l-.2-1.5-.2-1.7-.5-1.6-.6-1.7-.8-1.5-.8-1.5-1-1.5-1-1.4-2.1-2.8-3.2-4-4.3-5-1.6-2-1.3-1.8-1.5-2.3-1.4-2.2-3.4-5.6-1.4-2.4-1-1.4-.6-1-.6-.8-.6-.7-.6-.6-.6-.6-.6-.5-.6-.5-1.2-1-1.8-1.2-.8-.5-.9-.6-2.1-1.2-1.8-1-1.9-.8-4.1-1.8-2.2-1-.6-.4-.8-.4-.7-.5-.5-.5-.6-.5-.6-1-.5-.7-.6-1-.4-1.2-.4-1.2-.4-1.3-.6-2.2-.3-1-1-2.6-.4-1-.2-.5-.4-.7-.6-.7-.6-.7-.9-1-1-.8-1.3-1-2.2-1.6-1.1-.7-1.3-.7-2.8-1.5-1.5-.9-1.2-.7-1-.8-.7-.5-.9-.9-.6-.6-.8-.9-.6-.8-1.6-2.5-.5-.9-.7-.8-.7-.7-.5-.6-.4-.3-.5-.4-1-.5-.6-.3-1.8-.9-1.1-.5-.8-.5-.7-.6-.4-.5-.3-.5-.4-.7-.2-.6-.2-.7v-.4l-.1-.9v-6.5l-.2-1-.4-1.1-.4-1-.4-.7-.8-1.2-.6-.7-.6-.7-.6-.4-.8-.7-.7-.5-.6-.3-1-.6-1.2-.4-1.1-.3-1.4-.2-4.3-.5-3-.3-.9-.2-1.2-.3-1.5-.5-1.3-.5-1.1-.4-1.2-.7-.6-.3-1.3-.8-1-.8-.9-.7-1.1-1-.7-.7-.5-.6-.3-.6-.5-.8-.5-1.5-.3-1.6v-2.4l.1-.7.1-.3v-.2h.2l.1-.2v-.7l-.2-1.2-.3-1.5-.5-1.5-.3-.8-.5-1.5-1.1-2.7-.2-.5-.2-.6v-1.8l.2-.5.2-.2.2-.1.7-.2.7-.2.8-.2h6.4l.4-.2.3-.2.3-.2.2-.2.4-.6.2-.6.5-1.7.1-.6v-.9l-.1-.4-.5-.9-.6-1.4-.4-.7-.6-.9-1.3-1.8-1.8-2.2-2-2.2-1.6-1.8-1-1-1.1-1.1-1.1-1-1.1-1-1.2-1-1.2-.8-1.3-1-1.4-.8-5.5-3.2-1.2-.8-1.2-.9-1.1-.9-1-.7-3.5-2.3-3.2-2.2-3-2.1-2.1-1.6-5.7-4.3-3-2.2-1.3-1.1-.5-.4-.3-.4-.2-.2-.1-.3-.2-.3v-.9l.2-.3.8-1.4.1-.3.1-.4v-.6l-.4-.5-.3-.5-1.6-2-1.1-1.6-1-1.5-.8-1.4-.6-1.2-.3-.7-.3-.8-.2-.7-.1-.6-.1-1-.1-1.5v-2.2l-.2-3.3v-1.5l.3-1.3.3-1.3.3-1 1-2.2.4-1.4.4-1.3.2-1.1.1-1 .1-1v-2.3l-.2-.6-.1-.3v-.1H22l12 .8 6.2.6 6 .5 14.4 1.5 4.4.4 3 .2 1.5.1h6.3l1.3-.2 1.4-.1 1.5-.2 1.4-.3 1.5-.3 1.4-.3 1.5-.4 1.5-.5 1.4-.5 1.5-.6 2.8-1.1 1.2-.6 2.3-1.1 1 .9 1 .8 1 1 1 1.2 1 1.2.7 1.2.6 1.2.4 1.3v1.6l-.1.7-.3.9-.3.8-1.3 3.2-.4 1-.2 1.1v.5l-.1.6.2 1.2.5 1.1.7 1.2 2.2 3.4.7 1.4.4.7.2.5.3.8v.3l.2 1v1l-.3 1-.3 1-.5 1-.5.8-1.7 2.4-.6 1-.5 1-.2.7-.2.5-.1.7-.1.6v2l.3.8.1.5.3 1 .3.5.6 1.3.6 1 .8 1.2.9 1.1.9 1 1.6 1.7 2 2 1 1 1.1 1.2.5.6.9 1 .9 1.4.5 1 .9 1.7.3.6.5.6.6.6.6.4.6.2.6.1h1.1l.4-.1 1-.3 1.4-.5 1-.4 1-.5 2.6-1.5 1-.5h1.1l1.7.4h.7l1.3.1h.6l1 .3 2.3.6 1.1.2 1.2.2h5.9l1.3.2 1.2.4 1 .6 1.1.9 1 1 1.8 2 3.2 3.6.4.6.8 1.1 1.8 2.9 1.8 2.6.5.8.5 1 .6 1.2.3.8 1.1 3 .4.9.6 1.4.6 1.1.4.5.3.4.3.4.6.6.7.5.5.3.4.1.4.1h1.4l.4-.1 1-.3 2.2-1 1.2-.3.8-.3.8-.2 1-.1.7-.1h2l3.3.6 1.2.1h5.5l1.1.1 1 .2 1.4.3 1.2.4 1.3.4 1 .4 3 1.2 1.7.6 1.3.4 1.2.2.6.1h1.6l1.3-.2 3-.4.9-.1 1.1-.1h1.4l1 .2.6.2 1 .4.3.2.6.4.8.7 1 1.1 1 1.3 1.1 1.8.7 1 .6.7 3.4 3.4 2.7 2.5.8.7.8.9 2.5 3 1.1 1.2 1.4 1.5.6.7.6.7.3.5.3.5.4.7.4.9.4.9.2.5.4 1.4.5 1.5.5 2.5.3 1.9.2 1.2.3 2.2.4 3.5.3 3.8.1 1.3.1.7.2.8.5 1.3.3.9.3.5.4.8.7 1 1.1 1.6 1 1.1 2 2.3 1 1.2 2.4 2.4 1.1 1.2.9 1 .8 1 1 1.5L257-98l1.4 2.2.5 1 .5 1 .3 1 .2.7.2 1v.8l.1.9v4.9l.1.8.1.8.3 1 .3.7.5 1.3.5.9 1.3 2.2 1 1.8.3.5"/></defs><g clip-path="url(#pedb592ba21)"><use xlink:href="#m7db9442706" y="280.5" fill="#0c1321" stroke="#0c1321"/></g></g></g></g><defs><clipPath id="pedb592ba21"><path d="M7.2 7.2h271.3v266.1H7.2z"/></clipPath></defs></svg>