<svg xmlns="http://www.w3.org/2000/svg" xmlns:xlink="http://www.w3.org/1999/xlink" width="305" height="374" viewBox="0 0 228.7 280.5"><defs><style>*{stroke-linejoin:round;stroke-linecap:butt}</style></defs><g id="figure_1"><path id="patch_1" fill="none" d="M0 280.5h228.7V0H0z"/><g id="axes_1"><g id="PatchCollection_1"><defs><path id="m87f8e781bc" stroke="#0c1321" d="m207.8-145 .6.5.9 1.3 1 1.8.8 2.1.3 1.5.3 2v3.3l-.3 1.4-.7 2.2-1 2-1.2 2-2.4 3.7-1 1.8-.8 1.4-.5 1.5-.3 1-.1 1v1.8l.5 1.8.7 1.8.9 1.8 1 1.7 2.5 4.2.7 1.5.6 1.6.2 1.8v1l-.2.8-.4 1.2-1.1 2.6-.8 1.5-1.3 2-1 1.3L202-81l-7.3 9.4-1.2 1.1-.9.7-1 .6-.9.3-2 .5-3.2.6-1.7.5-1.8.5-7.3 2.9-6.6 2.4-1.2.5-.3.2v.1l-.2.2h-.4l-1.3-.1-6-1-3-.4H149l-2 .3-1.6.3-1.1.2-1.7.7-1 .4-.7.5-.5.4-1.2 1.4-1 1.6-1 1.8L134-47l-1.2 2.5-2.2 4.3-2.4 4.4-2 3.2-1.7 2.5-1.8 2.4-2 2.2-2 2-1.8 1.5-1.3.9-1 .5-2 .8-1.6.4-1.6.1H107l-2-.5-6-1.9-1.5-.3-4-.7-6.9-1-4.3-.9-2.8-.5-1.8-.2H76l-6 .6h-7.7l-2-.3-2.2-.3-3.7-.7-3-.7-7.5-2.4-4.6-1.4-3-1-1.3-.7-1.4-.8-.8-.5-1.5-1.2-1-1-1.2-1.1-1.5-1.8-1.1-1.4-1.2-1.7-.8-1.3-1.4-2.4-.7-1.2-1.2-2.6-1.9-4.3-.9-1.8-.8-1.2-.5-.6h-.2l.4-.3 3-2L30.8-65l3.3-2 3.3-2 2.5-1.6 2.3-1.7 1.8-1.4 1.6-1.4 1.8-1.6 1.6-1.7 1-1.3 1.4-2 1.2-2 1.6-2.9 1.3-3 2.3-5.5 2-5.2 2.8-8.3 3.9-11.4 3.6-11.4 4.7-15 5.2-16.1 15.6-47.8 2-6.9 7.6-27.5 3-10.6 1.7-5.8.1.3.6.7 1.5 1.4 6.4 5.5 2.3 2 2.1 2.1 1.7 2 1.9 2.5.7.9.7.7.9.5 1 .4 3.8.6 2.3.7 2.5 1 2.5 1.1 2.1 1.2 2.2 1.2 2 1.3 2 1.5 2 1.5 1.8 1.7 1.5 1.8 1.2 2 .8 2 .6 2.4.4 2.3.3 2 .4 4.6v4.9l-.1 2.4-.5 2.5-.6 2.4-.8 2.4-.5 1.4-.8 1.6-.8 1.5-4.4 8-1.3 2.7-1.1 2.7-.6 2-.6 2-1.2 5.1-.3 2.1-.1 1.8v5.9l.4 4.2.2 1.7.5 2 .5 1.8.8 2 .8 1.8 1.6 3.1.7 1.5.4 1.2.7 2.8.9 4 .6 2.3.7 2 .9 2 1.1 1.5 1.4 1.1 1.5.6h1l1-.3.8-.5 1-1 1-1.6.7-1.8.4-1 .7-2 .6-2 2.4-8.6.9-2.7 1-2.6 1-2.2 1.4-1.9 1.6-1.2 1.2-.4 1.2-.2 2.5.3 1.5.3 1.5.5 2.3.9 11.4 4.6 6 2.4 4.6 1.8 1.5.5h.5"/></defs><g clip-path="url(#p27b7d98658)"><use xlink:href="#m87f8e781bc" y="280.5" fill="#0c1321" stroke="#0c1321"/></g></g></g></g><defs><clipPath id="p27b7d98658"><path d="M7.2 7.2h214.3v266.1H7.2z"/></clipPath></defs></svg>