<svg xmlns="http://www.w3.org/2000/svg" xmlns:xlink="http://www.w3.org/1999/xlink" width="495.4" height="281.9" viewBox="0 0 371.5 211.4"><defs><style>*{stroke-linejoin:round;stroke-linecap:butt}</style></defs><g id="figure_1"><path id="patch_1" fill="none" d="M0 211.5h371.5V0H0z"/><g id="axes_1"><g id="PatchCollection_1"><defs><path id="m58bc79753f" stroke="#0c1321" d="m63.8-195 81 6 30.1 2.7 7.2.7 7.2.7 6.7.9 6.8 1 7 1.1 7 1.4 7.3 1.6 7.3 1.8 7 1.8 7.7 2.2 55 15.7 47 14.5-.5 1.6-3.2 11-1.2 4.2-1.6 5-2.7 8.5-4.4 13L319.7-57l-2.9 8.1-1.5 4-1.5 3.8-1.6 3.7-1.8 3.4-1.9 3-2.2 2.6-2.5 1.9-2 .7-2 .4-3.2.2-3.4-.2-2.9-.4-3-.6-7-1.6-8-2.1-28.2-8.3-11-3-7.8-1.9-4-.8-4-.7-3.8-.4-3.7-.2-3.2.2-2.6.7-1.1.7-.7.6-.4.9.1.4.2.4-.4.9-1.3 1.6-2 2-2.5 2.1-2.7 2.2-5.9 4.4-5 3.6-5.3 3.5-2.5 1.6-2.6 1.4-2.5 1-2.4.8-.8.1-2 .1-2.4-.1-2.3-.5-2.2-.7-2.6-.9-2.4-1L146-22l-1.4-.5-1.5-.4-4.6-.8-2.8-.7-3.9-1.2-2.5-1-2.8-1-3.1-1.4-3.2-1.5-8-4.1-2.9-1.7L107-38l-2.3-1.4-5.8-3.2-2.4-1.1-2.5-1-5.9-2.1-2-.8-3-1.6L72.6-55l-2-1-.8-.1-.2.2-.9-.5-1.7-.2H65l-1.4.2-3.1.6-2.5.3H55l-2.8-.3-3.9-.6-4.6-1-10.4-2.4-1.8-.5-2.5-1-2.3-1.3-.5-.4-1.6-1.6-1-2-.3-1.5v-1.7l.5-2.5 1.4-5.5 1.8-8.7.9-3 3-9.4.6-2 .7-3.5.4-2.6v-2l-.4-13.4.2-3.9.2-2.5.2-1 .6-2.1.8-2 .9-1.7 3-4.8.8-1.5 1.3-3.2 1-3.5.8-3.7.6-3.8.5-3.9.6-7.5.2-3.5v-9l.1-2.7.2-1.7.7-2.9 1.3-2.6 2-2.1 2.3-1.5 2.8-1 3-.5 2.8-.3H63l.8.2"/></defs><g clip-path="url(#p42c2d9d6d3)"><use xlink:href="#m58bc79753f" y="211.5" fill="#0c1321" stroke="#0c1321"/></g></g></g></g><defs><clipPath id="p42c2d9d6d3"><path d="M7.2 7.2h357.1v197.1H7.2z"/></clipPath></defs></svg>