<svg xmlns="http://www.w3.org/2000/svg" xmlns:xlink="http://www.w3.org/1999/xlink" width="212" height="374" viewBox="0 0 159 280.5"><defs><style>*{stroke-linejoin:round;stroke-linecap:butt}</style></defs><g id="figure_1"><path id="patch_1" fill="none" d="M0 280.5h159V0H0z"/><g id="axes_1"><g id="PatchCollection_1"><defs><path id="m141ed3a0d9" stroke="#0c1321" d="m120.5-216.6.2.2.4.4.5.5.5.7.4.7.2.7.1.7v2.5l-.1 1-.2.7-.7 1.7-.2.5-.1.6v1.4l.4 2.2v5.4l-.4 1.9v1.2l.2.4.2.4.4.5.6.5 1.3 1 1.5.9 5 2.8 2.1 1.3-.2.4-1 .9-1.6 1.2-4 3.1-4.5 3.4-6.9 4.9-7 5-4.4 2.8-4.6 3-1 .7-1.5 1.3-1 1-1.3 1.4-.7 1-.6.8-.9 1.5-.7 1.6-.3 1.7v1.1l.2.6.2.6.8 1.6 1.2 1.7 1.6 1.8 1 1 1.3 1 2.5 2.2 1.5 1 1.8 1.4 3 2 6.3 3.9 1.7 1 1.6 1.1 1.2.9 1.2 1 1.5 1.4 1.4 1.4 1 1.1.8 1.2.8 1.4.7 1.4.4 1.5.1 1.6v2.1l-.4 2.3-.4 2.2-1.5 7-.4 2.1-.2 2v1.8l.5 1.5.4.6.2.3.8.6 1.2.8 2.3 1 1.3.7 1.3 1L131-88l2.3 2.2 7 6 1 1 1.3 1.4.8 1 .6 1 .7 1.7.2.7.3 1.1.1 1.9v3.4l-.1 1.5-.4 1.5-.5 1.6-.8 1.8-1.5 3.2-.4 1.3-.6 1.8-.7 2.4-.8 3-.7 3.2-.3 1.6-.3 1.7-.2 1.8v4.4l.1 2 .4 2.2.4 1.6.6 1.6.7 1.4.4 1.2.1.6-41.8 4.5L86-19.4h-1.7l-1.7.1h-1.7l-3.7-.3-4.8-.5-2.4-.3-3.4-.7L54-24l-3.2-.7-1.5-.2-.1-.1-.3-.5-.4-1-.3-1-.4-1.7-.4-3.7-.3-2-.4-1.7-.4-1.6-.9-3.2-.6-1.8-.9-1.7-1-1.6-1-1.4-1.1-1.2-1-.8-1.3-.8-1.3-.5-.6-.2-2.4-.3-.8-.2-.6-.4-.5-.7-.3-.7-.4-2L31-57l-.3-.7-.4-.7-.7-1-1-1-1-1-1.2-1-4.6-4-1.5-1.3-1.4-1.4-1.3-1.4-1.1-1.5-1-1.7-.6-1.7-.6-1.7-.3-1-.1-.8-.1-1.5.2-1.4.3-1 .4-1.3.5-1 .5-1.2.8-1.4 1.7-2.8 1.3-1.8 1.2-1.7 3.8-5 .2-.2.3-.4.2-1.1.1-1.8v-2.5l.1-3.4v-3.4l-.2-1.7-.2-1.3-.5-1.5-.8-1.4-1-1.3-1-1.2-2.3-2-1.3-1.1-1.4-1.5-1-1.5-.6-1.6-.3-1.6v-1.7l.2-1.7.7-4.8.3-2.7.4-6.1v-1.8l-.2-3.5v-1.5l.2-3.2v-1.6l-.2-5.7v-7l.3-2 .4-2 .8-3.3.3-1.2.5-1.6.9-2.2 3-6.4 1-2.1 1.3-4.3.7-1.7 1-2 .4-.7 1-1.4 1.3-1.3.7-.5.4-.2.3 2.1.3 1 .2.5.2.3.2.2h.2l.4-.4.5-.8 3-5.4.8-1.3.6-1.7.4-1 .3-.3.1-.1h.2l.3.2 1 .1h6.7l3.9.2 3.3.2 1.6.2 1.8.2 1.7.3 1.6.4 2.6.7 1.1.3h1.8l1.4-.1 1.4-.5 1.6-.9.9-.8.7-1 .5-1.3.8-2.7.6-1.6 1.3-3.3.7-1.8.6-1.2.7-1.1.8-1 2.6-3.5 3-3.8 1.2-1.6 1-1.3.5-1 .7-1.4.4-1.1.4-1.8.2-1.8v-1.9l-.3-5.2v-3.1l.1-1.2.4-1.4.4-1.3.6-1.4.6-1.1.9-1 1.2-.7 1.4-.4h1.5l1.5.4 1 .6 1 .8 2.7 2.4 1.8 1.7 1.2 1 3.5 2.7 1 .9 1.5 1.4 1 1 .7 1 1.1 1.9.7 1.6.6 1.8.5 2.3.3 2.3.2 1.4.4 6.8.2 1.9.4 2.5.2.7.5 1.6.8 1.8 1 1.6 1 1.4 1 .8.6.3"/></defs><g clip-path="url(#pdfd906b2a4)"><use xlink:href="#m141ed3a0d9" y="280.5" fill="#0c1321" stroke="#0c1321"/></g></g></g></g><defs><clipPath id="pdfd906b2a4"><path d="M7.2 7.2h144.6v266.1H7.2z"/></clipPath></defs></svg>