<svg xmlns="http://www.w3.org/2000/svg" xmlns:xlink="http://www.w3.org/1999/xlink" width="495.4" height="296.7" viewBox="0 0 371.5 222.6"><defs><style>*{stroke-linejoin:round;stroke-linecap:butt}</style></defs><g id="figure_1"><path id="patch_1" fill="none" d="M0 222.6h371.5V0H0z"/><g id="axes_1"><g id="PatchCollection_1"><defs><path id="mbcdb420ef5" stroke="#0c1321" d="M244.4-205.8v.6l.6.4.8.4.7.3 1.5.3 1.8.3 1.6.2 3 .2 6.3.4 3.9.4 2.1.2 4.3.7 2.4.4 2.4.5 4.7 1 4.2 1 4 1 4 1.1 4.3 1.3 2 .6 2 .7 1.8.8 1.5.7 1.2.8 1.2.8 1 1 .7 1.4.5 1.5 1 3.3.5 1.7.8 1.6.9 1.7 1 1.6 1.2 1.6 1.3 1.5 1.4 1.4 1.5 1.3 1.6 1.2 1.5.8 3 1.7 1.6 1 1 .8.5.4 1 1 1.3 1.5 1 1.6.8 1.3.9 2 .8 2 1 3 .4 1.5.2.8v1.1l7.4-1 3-.3h1.8l.6.1.2.1-.4.4-2.4 2-3.4 2.5-1.8 1.3-1.7 1.1-1.7 1-1.6.8-2 1-1 .4-.6.4-.5.4-.8.8-.6.8-.5.6-.4 1-.3.6-.5 1-.3 1-.3 1-.3 1-.2 1.6-.2 2v3.5l.1 1.4.1 1-.2 1.1-.6 1-1 1-1.4 1-1.5.8-1.7 1-1.8.8-1.8.8-2 .7-2 .7-2 .5-2 .4-2 .2h-2l-2-.3-2-.3-4-.9-2.1-.4-1.6-.2-1.6-.1h-2.7l-1 .2-1.6.5-1.4.8-1.2 1-.7 1-.5 1-1 2.3-.3.6-.4.6-.3.3-.6.6-.3.3-.7.4-.5.2-1 .2H276l-1.3-.2-2.2-.3-1-.2-1.4-.4-4.8-1.4-2-.5-2-.5-1.1-.2-1.6-.1-1.7-.1h-6.3l-3-.5-1.6-.1-1.7.1-1.9.4-1.9.6-1.9.7-2 .8-2 .9-8.4 4-2.2.9-2.1 1-2.2.7-3.9 1.2-2 .6-1.5.4h-1l-.2-.4-.2-.4-.1-.4-.1-.3v-.6l.2-1.6v-.4l-.1-.3-.3-.7-.9-1.3-.3-.5-1.2-2.8-.1.1-.3-.2-.2-.2-.4-.6-1-2.1-1-1.5-.8-1.3-1-1.2-.8-1.1-1.6-1.8-1.5-1.6-.8-.8-1.5-1.2-1-.7-.7-.4-1.4-.7-1.1-.4-1.2-.4-.8-.2-.7-.1-1.6-.1h-1.9l-.8.2-1.5.3-1 .3-1.6.5-3.1 1.2-1.6.8-1.1.6-1.5.9-1 .6-1.8 1.3-1.2 1-1.2 1-1.2 1.2-1.1 1.2-1.2 1.6-1 1.7-.7 1.6-.5 1.3-.4 1.2-.6 2.2-.5 2.2-.1 1.2-.2 1.1-.3 3-.2 1.4-.2.9-.2.7-.2.7-.6 1.2-.4.7-.6.8-1.2 1.1-2.7 2.2-1.3 1.2-1 1-1.3 1.4-1.9 2.3-2.5 3.3-1 1.3-1.4 2-1.4 2.2-1.3 2.5-1 2-.8 2-.8 2.1-.7 2.2-1.3 4.2-2.2 7.7h-.2l-.6.1-2 .6-1.4.6-1 .4-1 .5-1 .5-1 .8-2.1 1.5-1 .7-1.2.6-1 .4-1.2.3-1.2.2-1.2.2-5.4.4-2.4.3-1.1.2-1.1.3-.7.3-.7.3-.7.5-.7.5-.8 1-4.2 5.5-3.1 3.9-1.8 2L94-23l-.8.7-.7.5-1 .6-1 .7-1.6.8-1.4.6-2 .8-1.5.5-1.8.5-3 .7.1-.6-.4-1.4-.8-1.7-1-1.4-1.1-1.4-3.6-4-1.2-1.5-1.5-2-.7-1.1-.8-1.6-.4-1-.5-1-1-3.2-.7-1.6-.9-2-.5-1-1-1.7-.8-.9-1.6-2-.3-.6-.7-1-.6-1.2-.3-.9-.3-1-.2-1.2v-1.2l.1-.5.3-1 .8-1.3.2-.4 1-1.4 1.2-1.2 3-3.4.8-.9 1-1.3.5-1 .3-1v-1.1l-.2-.4-.2-.4-.5-.6-.2-.2-.3-.3-.5-.2h-.3l-.6-.2h-1.4l-1.2.2-1 .2-1.7.4-5.3 1.6-3.4 1-1.3.3-1.5.2-2 .1h-2l-3.2-.2-2-.3-1-.2-.7-.2-.7-.3-1-.4-1-.6-1.2-.8-1.2-.7-.8-.6-1.2-1.2-.6-.6-.5-.8-.3-.5-.6-1-.2-.6-.3-1-.2-.5-.3-1.3-.2-.8-.1-1.5-.1-2v-5.8l-.1-1.7-.2-1.5-.4-2.4-.5-2.3-1.5-5.8-.3-1.4-.2-1.1v-1.2l.2-1.4.5-1 1.1-1.3 1.5-1.1 1.3-1 1.1-.6 5-2.9 2.3-1.4 2.7-1.7 2.2-1.6 2.2-1.8 1.6-1.4.6-.6.1-.3.3-.2.8-.4 1.2-.7 1.5-.7 1.9-.9 2-.8 2-.8 2.3-.8 4.1-1.3 14-4 4.2-1.2 2-.6 1.5-.5 3.1-1.1 9.3-3.7 3.4-1.2 1.7-.6 3.4-1.2 5.8-1.8 3.7-1.2 1.7-.6 1.6-.7 1.6-.7 1.4-.8 1.3-.8 1.2-.9 1-1 1.2-1.1 1.1-1.3 1.2-1.4 3.7-5.2 1-1.3 1.5-1.7 1.6-1.6 1.7-1.5 1.8-1.4 1.6-1 1.6-.9 2.1-1 2.2-.8 2-.6 3.6-1 3-.6 3-.5 4.5-.6 2.2-.4 1-.3 1.6-.6 1-.4.8-.5.6-.4.5-.5.2-.2.1-.3.2-.5.7-2.8.3-1 .3-.8.2-.3.6-.8.8-.9.6-.5 1-1 1.5-1 1.2-.8 1.2-.8 1.1-.6 2.3-1.2 2.3-1 1.9-.8 1.5-.6 2.4-.8 11.9-4 3.6-1.3 3-.8 2.1-.5 1.1-.3 2.3-.4 1.7-.3h3l1.3.2.8.3.8.4 2.1 1.2.8.4.8.4 1 .2 1 .2 1.4-.1 1.7-.3 2.6-.6 6.3-2 2.1-.5 1.8-.4h.8"/></defs><g clip-path="url(#pa89c629645)"><use xlink:href="#mbcdb420ef5" y="222.6" fill="#0c1321" stroke="#0c1321"/></g></g></g></g><defs><clipPath id="pa89c629645"><path d="M7.2 7.2h357.1v208.2H7.2z"/></clipPath></defs></svg>