<svg xmlns="http://www.w3.org/2000/svg" xmlns:xlink="http://www.w3.org/1999/xlink" width="447.2" height="374" viewBox="0 0 335.4 280.5"><defs><style>*{stroke-linejoin:round;stroke-linecap:butt}</style></defs><g id="figure_1"><path id="patch_1" fill="none" d="M0 280.5h335.4V0H0z"/><g id="axes_1"><g id="PatchCollection_1"><defs><path id="m61728d475b" stroke="#0c1321" d="m220.1-261.2 18.4 14.3 55.7 43.8 19.4 15.1-.2.4-.8.4-1.6.6-2 .4-2.4.3-2.6.3-5.3.4-10.4.5-5 .3-2.3.2-2.3.3-2.2.4-2 .6-1.7.8-1.4 1-1.2 1.5-.8 1.8-.7 2-.5 2.2-.3 2.2-.3 2.3-.7 7.3-3.3 38.6-1.4 14.9-.8-.2-2.2-.9-6.2-2.6-7.3-3.2-3.7-1.7-7.3-3.5-10.5-5.6-2.7-1.3-2.7-1-2.6-.8-2.5-.2-2.5.5-2.5 1-2.3 1.5-2.2 1.8-1.8 2.2-1.6 2.4-1.2 2.9-.8 3.1-.6 3.3-.5 3.4-.3 3.5-.4 6.6-1 23.7-2 54.1-.8-.4-20-7.4-7.5-3-3.7-1.5-3.6-1.5-3.6-1.6-3.4-1.7-3.3-1.8-3-2-3-2-2.9-2-2.8-2.2-5.6-4.4-8.1-6.7-7.7-6.4-6.3-5.6-3.7-3.4-3.3-3.3-4.8-5.1-9.4-10.2-5.5-6.3-4-4.6-4.2-5.3-6.3-8-3.8-5-5.6-7.6-5.2-7.5-5.8-8.8-25.3-38.6L76-193l41.3-7.6 6.5-1 3.4-.4 3.4-.1 3.7.3 3 .5 3 .7 3.1.8 6.1 2 15.4 5.2 3.9 1.2 3 .8 2.9.5 2.7.1h1l1-.3 1.9-.6 1.2-.5 1.3-.7 1.5-.9 1.4-1 1.3-1 1-1 1.4-1.4 1-1.2 1.4-2 2.7-3.7 3.5-5.3 3.2-5.3 2.6-4.1 2.6-4.5 1.1-2.3 1-2 1-2.3 1-2.8.8-3 1.2-4.1.7-2.7 2-9 1-3.5.7-2.3 1-2 .7-1.4.2-.2.1-.1h.1"/></defs><g clip-path="url(#p6f9c0b3bb1)"><use xlink:href="#m61728d475b" y="280.5" fill="#0c1321" stroke="#0c1321"/></g></g></g></g><defs><clipPath id="p6f9c0b3bb1"><path d="M7.2 7.2h321v266.1H7.2z"/></clipPath></defs></svg>