<svg xmlns="http://www.w3.org/2000/svg" xmlns:xlink="http://www.w3.org/1999/xlink" width="454.8" height="374" viewBox="0 0 341.1 280.5"><defs><style>*{stroke-linejoin:round;stroke-linecap:butt}</style></defs><g id="figure_1"><path id="patch_1" fill="none" d="M0 280.5h341.1V0H0z"/><g id="axes_1"><g id="PatchCollection_1"><defs><path id="m2f310fc55a" stroke="#0c1321" d="m195.2-261 44 60 7.5 10.3 4.7 6.9 2.3 3.5 2.3 3.6 4.4 7.4 6.4 11.3 52.3 93.8-3.2.5-7.5 1.7-4 1-12 3.3-12.5 2.8-6 1.2-10.3 1.8-11.7 2.3-12.2 2-2.9.6-3 .8-3.2 1-4 1.3-18.2 6.3-3.5 1-3.3 1L189-33l-13.4 2.4-6 1.2-4.4 1.2-5.5 1.4-6.8 2.2-4.7 1.4-2.6.6-2.6.7-3.2.5-4 .6-4.4.6-5 .5-4.2.3-3.1.1-2.8-.2-1.8-.3-1.3-.4-2.4-1-2.1-1.3-4.5-3.1-5-3.2-2.4-1.5-2.5-1.2-1.5-.4-2-.5-2-.2h-3l-5.1.3-2.4.3-3.8.7-9 2.4-3.3.8-2.9.4H56l-1.1-.1-2.4-.6-2.4-.9-2.8-1.3-1.7-1-5-3.9-2-1.3-1.1-.7-1.5-.6-1.3-.2-1.2-.1h-1l-.5.2-1 .3-.6.4-.3.5-2.4-4.9-2-4.7-1.1-2.8-1.2-3.7-.8-3.6-.4-3.2v-3l.2-2 .7-2.3 1-2.2 1.6-2 1.6-1.9L29-75l4.6-4.6L36-82l1.6-2 1.3-2 1.7-3.1 1.4-3.3 1.4-3.3 1.3-3.8 2.4-7.7 3.2-10.7 6.1-22.4 3-10.2 2-6 1.3-3.4 1.4-3.4 1.5-3.1 1.7-3 2.2-2.9 2.8-2.8 1.8-1.6 2-1.4 2.8-2 5-3 9.7-5.7 3-2 2.8-1.9 1.8-1.5 1.3-1.3.8-1.1v-.7h.5l2 1 1.6.7 2.5.8 1.3.3 1.3.2 1 .1h1.6l1.5-.2 2.3-.6 2.2-1 2.2-1.2 2-1.4 2.1-1.5 4.1-3.3 5.6-4.7 3.4-3 3.5-3.3 15.8-15.2 5.3-5.2 3.4-3.7 1.6-1.9 1.5-2 1.5-2.1 4.3-6.5 1.5-2 1.5-2 1.7-2 1.8-1.5 2-1.2 2-.8 1.9-.4 2-.2h2.9l.6.3"/></defs><g clip-path="url(#pe4e8feeed4)"><use xlink:href="#m2f310fc55a" y="280.5" fill="#0c1321" stroke="#0c1321"/></g></g></g></g><defs><clipPath id="pe4e8feeed4"><path d="M7.2 7.2h326.7v266.1H7.2z"/></clipPath></defs></svg>