<svg xmlns="http://www.w3.org/2000/svg" xmlns:xlink="http://www.w3.org/1999/xlink" width="307.9" height="374" viewBox="0 0 230.9 280.5"><defs><style>*{stroke-linejoin:round;stroke-linecap:butt}</style></defs><g id="figure_1"><path id="patch_1" fill="none" d="M0 280.5h230.9V0H0z"/><g id="axes_1"><g id="PatchCollection_1"><defs><path id="ma987b163fd" stroke="#0c1321" d="M212.6-242.8v.7l-.1 1.8-.4 3.1-.7 4-1.8 10.3-.4 2.6-.6 4.7-.5 6-.3 5.3-.2 5.5v9l.3 4.4.3 2.7.4 2.5.8 4.1.6 2.4.4 1.3.7 2 1.4 3.9.6 1.8.4 1.4.2 1.1.1 1.1v.7l-.2 2-.5 1.4-.9 1.4-1.4 1.7-1.7 1.7-1.8 1.6-1.1.9-1.8 1.3-1.9 1.1-4.6 2.6-1.6 1-1.6 1-1.4 1.3-.8 1-.7 1.1-.7 1.8-.2 1.3-.1 1.3v1l.2 2.5.3 1.4.6 2 1.2 3.3 1.7 3.9 4.9 11.2 2.7 5.9.8 2 .5 1.8.3 1.7v1.1l-.2 1.1-.2.6-.6 1.8-.5 1-.6 1.2-1 1.4-1 1.5-2.9 3.7-1.4 1.9-.9 1.4-.9 1.5-1.4 2.7-3.9 8.2-.6 1-.8 1.5-.8 1.2-.6.7-1 1.1-2.7 2.7-.4.6-.3.4-.1.4v.6l.1.4.3.5.4.6.5.5.7.7 1 .8-.3-.1h-.6l-.7.3-.5.5-.5.8-.9 1.6-.5.7-.7.7-.8.8-3.2 3-3.2 2.9-2.2 1.9-1.5 1.3-2.9 2.8-1.4 1.4-2 2.4-7 8.6-1.3 1.6-1.5 1.5-1 .8-.6.4-.9.5-.9.4-1 .3-3.4.5-5.5.5h-2.7l-4.1-.6-1.6-.4-1.7-.6-3.7-1.9-1-.4h-.5l-.1-.3-.4-1-.6-2.3-.5-2.5-1-5.5-1-7.2-1-6-.7-3.9-.2-2.5v-3.5l.1-1.5.2-1.4.3-1.5.9-3 1.8-5.3.6-1.9.6-2.3.5-2.3.7-4.1 1.2-5.8.1-1.1v-1l-.2-.6-.2-.6-.5-.5-.7-.4-1-.5-.6-.2-1.8-.2-1-.2-.7-.3-.8-.4-.9-.8-2-2.5-2-2.4-.8-.8-1.1-1-2.5-2-5.3-4.1-1.9-1.4-1.7-1.5L98-111l-1.4-1.5-.9-1-3.2-4.2-3.3-3.8-1.1-1.5-1-1.7-.4-1-.5-1.7-.5-3.1-.4-1.5-.3-.8-.7-1.2-1-1-.8-.5-1-.4-1-.2h-2.2l-.7.2-1 .2-1 .5-1.3.5-2 1.2-2 1.4-3.5 2.7-1.5 1-1 .6-1 .3-.8.3H61l-1.3-.3-1-.7-.4-.8-.2-.4-.8-3.2-.6-2-.4-1.2-.5-.9-.8-1.4-1-1.3-1.2-1.3-4.3-4.4-2-2.2-1-1.2-1.4-2.1-1.2-1.8-.6-1.1-.5-1-.7-1.5-.4-1.2-.5-1.5-.5-2-.5-2-.3-2-.4-5-.2-1.7-.5-1.7-.7-1.6-.6-1.2-.8-1.4-4-6.1-1-1.5-1.3-1.6-.7-.8-3-2.9-.9-1-1-1.2-.9-1.3-.7-1.6-.5-1.2-1-3.3-1.3-3.7L18-207l-1-2.6.5-2.3.5-2.5.3-2.5.1-1.2.1-1.8v-2.4l-.3-2.9v-2.8l.2-1.6.6-2.4.6-2.3.5-1.7.4-1 .5-1.2.6-1.3.8-1.3.5-.7.7-1 .8-.8.8-.7 1-.7 3.6-2.1 1.4-1 1.4-1 .7-.6.8-.7.6-.8.3-.5.4-.7.3-.8.2-.9.4-2 .3-1 .3-.9.5-.9.7-.7.6-.5.8-.3 1-.3 1.8-.5 1.7-.3h.9l.2-.1h.4l1.4.3 1.7.6 1.4.5 1.8.9 2.6 1.2 8.4 4.6 2.3 1.2 1.9.8 1.3.5 1.1.3 1.8.4 1.2.2 1.9.1 1.8.1h1.6l3.3-.2 6.3-.6 2.2-.2 2.6-.1 5.7-.1h3.8l2 .2 1.3.2 1.6.4 1.3.5 1.6.8 1.7 1 1.7 1 1.9 1.6 6.2 5.5 1.3 1 1.1.8 1.2.8 1 .4.7.3 1 .2 1.3.1h.8l1.7-.4 1.4-.4 3-1 1.7-.5 2.3-.6 7.5-2 2.3-.6 2.4-.8 2.6-1.1 1-.5 1.4-.7 1.1-.7 3-1.9 3.8-2.7 2-1.3 2-1 1-.5 2.5-1 1.5-.6 3-.8 3.1-.7 2-.3 2.1-.3h2.6l1.1.1 1.4.3 1.6.4 2.2.8 3.7 1.6 2.8 1.3 2.5 1.3 2.8 1.7 2.2 1.3 2 1.4 2.6 2.1.7.6.5.6"/></defs><g clip-path="url(#p098ede0795)"><use xlink:href="#ma987b163fd" y="280.5" fill="#0c1321" stroke="#0c1321"/></g></g></g></g><defs><clipPath id="p098ede0795"><path d="M7.2 7.2h216.5v266.1H7.2z"/></clipPath></defs></svg>