<svg xmlns="http://www.w3.org/2000/svg" xmlns:xlink="http://www.w3.org/1999/xlink" width="444.1" height="374" viewBox="0 0 333.1 280.5"><defs><style>*{stroke-linejoin:round;stroke-linecap:butt}</style></defs><g id="figure_1"><path id="patch_1" fill="none" d="M0 280.5h333.1V0H0z"/><g id="axes_1"><g id="PatchCollection_1"><defs><path id="md66753b321" stroke="#0c1321" d="m308.1-194.3.4.3.7.9.7 1.1.6 1.4.3 1 .3 1 .2.9.1 1.8v1.3l-.2 2.3v.8l-.2 1-.5 1.8-.5 1.2-.7 1.2-.8 1.2-.6 1-.5 1.2-.3 1.1-.4 2.5-.3 1.2-1.7 5-.9 2-2.1 4.6-2.4 4.8-.4.8-.6.8-1.6 2-.5 1-.4 1.2-.1 1.5v1.2l.1 1.2.3 1.8.6 3.2 1.9 8.3 1 4.8-.3.7-.4.8-2 3.5-.5 1.1-.8 1.6-.6 1.8-.6 2-.4 2.3-.3 1.7-.2 3-.2 1.4-.3 1.2-.6 1.3-1 1.5-1 1.6-.8 1-.6.8-1.4 1.3-1 .8-1.2.8-1.6.9h-.1l-.4-.1-.6-.4-.9-.6-3.2-2.7-2-1.4-2.3-1.3-2.5-1.1-2.8-.8-2.8-.6-2.9-.4-2.7-.2-2.8-.1h-2.6l-6 .3h-7l-1.8.1-2 .2-2.3.5-1 .2-2.6.8-1.5.6-6.3 2.5-2.4 1-2.3 1-4.4 2.2-2 .7-1.4.4-1.3.1h-2l-1.6-.3-1.7-.7-1.3-.6-1.4-.7-3-1.7-1.3-.8-3.8-1.9-2.6-1.2-1.9-.7-1.2-.6-1.3-.6-3.7-2-3-1.4-3.6-1.8-.8-.4-.8-.3-.9-.2h-.8l-.5.2-.8.2-1.9 1-1 .3-1 .4-2 .4-1.1.3-1 .5-1 1-.4.8-.6 1.3-.5 1.5-1.6 7.2-.3 2v3.1l.5 1.6.7 1.4 1 1.2 1 .6 1.4 1 3.4 1.7 1.2.8.9.7.7.7 1 1.2 1.3 2.1 1.4 2.4 2.2 4.4 1.6 3.4 1 2.2.8 2.1.7 2 .5 2 .3 1.5.3 2.1v2.2L182-49l-.2.6-.4 1-.8 1.4-.7 1.3-1 1.5-1.5 1.7-1.4 1.6-1.6 1.7-2.1 2-2.1 2-2 1.5-7.2 5.7-4.1 3.4-3.4 2.8-.8.8-.2.2-.3-.1-.7-.3-3-.8-1.5-.6-2.1-1.1-5-3-2-1.2-1.3-.6-.6-.2-.6-.2h-1.2l-1 .3-.5.3-1 .6-1 .8-4.5 3.7-1.4 1-1.1.7-1.2.6-1.3.5-1.3.2h-.6l-.5-.4-1-.7-1.9-1.2-2.7-1.5-4-2.2-6-3.3-2.5-1.4-3.6-2.2-3.5-2.4-3.7-2.8-.8-.5-1.5-1.4-1-1-1.6-2.3-1-1.1L83-45 81.6-46l-5-4-3.1-2.7-1.3-1-1.4-.9-1.2-.7-1.3-.6-1.9-1-1.6-.5-1.7-.6-1.1-.3-1.4-.3L59-59l-1.3-.1h-4.3l-1.8-.3-2-.3-2-.4-11.4-2.4-2.3-.4h-1.3l-2-.1h-.9l-1.7.2-1.7.3-2 .6-1.1.4-.4.3-.1.1v-.2l.5-.8 2.6-3.5 1-1.6.8-1.2.7-1.3.5-1 .7-2 .2-.7.5-3 1-4 .3-1.7.6-4.5.3-1.3.4-1.6 1.4-4 .7-2.4 1-3.6.9-4.3.4-1.3.3-.6.4-.6 1.5-2 .7-1 1-1.8.5-.8 1-2.3 1.4-3.7.6-1.4 1.2-2.6 1.7-4 .9-1.7.9-1.6 1-1.4 2.6-3.1 1.2-1.7.4-.7.7-1.3 1.4-2.8.4-1 .2-1 .4-1.4.3-1.5v-1.4l-.2-1.4-.6-1.3-.5-.6-.3-.4-.7-.6-.8-.6-1.4-.7-3.2-1.6-1.1-.7-1-.7-1.4-1.2-2.1-2.2-1-.9-2-1.6-1.8-1.1-.9-.5-3.2-1.7-1.2-.5-2.5-.9-1.1-.3-.9-.2-2.7-.4-.9-.2-1.2-.6-.9-.6-.8-.7-.4-.6-.3-.7-.4-1-.4-1.4-.2-1.2v-1.3l-.1-1.8v-1.4l.2-1.7.2-1.8.4-2 .8-3.6.9-3.4 1-3.2 1.3-3.7 1.5-3.3 5.7-11.2 1.6-3.4 1.3-3.2.9-1.7 1.4-2.4 1.2-2 2.7-3.7 3.8-5.3 1.8-2.4 2.3-3.6.8-1.2.3-.5v-.2l.5-.1 1-.2 3.3-.3 4.4-.6 5-.3 2.3-.3 1.9-.4 2.5-.7 1.7-.6 1.7-.8 2.8-1.7 1.4-.8 1.5-.7 1.5-.4 1.5-.4 2-.2 1.4-.1h1.5l1.4.2 6.6 1.2 2 .5 1.9.6 4 1.4 3 1 2.9.6 2.7.5 5.4.7 2 .3 2.6.6 4 1.3 1.9.4 1.7.3 1.7.2 1.5-.1 1.8-.5 1-.4 1-.5 1.7-1 1.7-1.4 4-3.4.7-.6 1.2-.8 1.2-.5 1-.4 5.4-.5 3-.2 2.9-.4 9.4-1.7 2-.3 2-.4 3.4-1.1.8-.2 1.2-.2 1.8.1 2 .4 6.8 2.3 3.8 1.1 1.5.6.8.4 1.5.9 1.7.8 3.4 1.5 2 .7 1.1.3 1.8.4 1.4.1h1.4l1.3-.3 1-.2.8-.4.9-.5 1.5-1 1.9-1.6 2.5-2.2 1.2-1 1.3-.9.8-.4 1-.5 2.2-.9.7-.3 1.5-1.1 2.8-2.4.8-.5.8-.5 1.3-.5 1.3-.3 3-.3h.9l2-.1h2l5 .4 3.4.5 16 1 3.7.4 3.5.6 1.8.4 2 .5 1.4.5 1.4.6 1.3.7 1.2.8 1.5 1.3.6.7.6.7.8 1.5.6 1.2.7 2 .3 1.2.5 1.8.3 2 .5 2.4 1.2 8.8.6 3.7.5 2.8.7 2.7.4 2 .6 1.8 1 2.9.7 2.1 1.3 3 1 2 1.2 2.5 1.4 2.5 2.5 4.4 2 3.1.8 1.1.2.3"/></defs><g clip-path="url(#pb9cc319d8a)"><use xlink:href="#md66753b321" y="280.5" fill="#0c1321" stroke="#0c1321"/></g></g></g></g><defs><clipPath id="pb9cc319d8a"><path d="M7.2 7.2h318.7v266.1H7.2z"/></clipPath></defs></svg>