<svg xmlns="http://www.w3.org/2000/svg" xmlns:xlink="http://www.w3.org/1999/xlink" width="488.4" height="374" viewBox="0 0 366.3 280.5"><defs><style>*{stroke-linejoin:round;stroke-linecap:butt}</style></defs><g id="figure_1"><path id="patch_1" fill="none" d="M0 280.5h366.3V0H0z"/><g id="axes_1"><g id="PatchCollection_1"><defs><path id="mefce5b3f51" stroke="#0c1321" d="m343-93-.3.2h-1.3l-2.8-.4-2.7-.6-1.4-.4-1.7-.5-3.4-1.2-5.4-1.9-2.2-.6-1.7-.3-1.1-.2h-7.8l-8.8-.3h-3l-4.6.3-2.7.1h-7.5l-2.4.3-1.8.2-2 .3-1.9.4-7.5 2-1 .3-1.3.5-.9.4-.9.6-.5.4-.6.6-.4.5-.5.9-.3.9-.1.7-.1 1.1v1.8l.4 3.5.1 1.8v1.8l.1 1.7.1.7.2.7.3 1.3.4 1.2 1 2.8.4 1.4.1.5v1.9l-.4.6-.4.7-.8 1-.8.7-1.3 1-1.6 1.2-3.2 2.1-3.3 2.2-1.1.8-.8.6-.7.6-.3.5-.6.8-.4 1-.3 1.2-.6 4.3-.4 2.3-1.6 9.2-1 6.3-.3 1.8-.4 1.3-.4 1.3-.4 1.3-.6 1.2-.9 1.7-.9 1.4-.7 1-.5.2-.5-.7-1-1.2-.9-.8-.9-.6-.4-.2-1-.5-2.4-.6-1.3-.4-2.7-1.2-1.5-.4-1.8-.2-3.3-.2-2.3-.2-1.8-.3-3.2-.7-1-.1-1.3-.2h-2l-1.4.5-1 .3-.9.5-1.6 1-2.6 1.6-1.4.7-1.6.5-1.7.3h-2.7l-1-.1-1.5-.5-1.5-.8-1.4-1-.7-.8-.7-.9-1-1.6-1-1.5-2.3-4-1.2-2-.6-1.3-.7-1.6-.6-1.5-.5-1.3-.5-1.7-.2-1.3-.2-1.2-.2-2.1-.2-1-.2-.8-.4-.9-.6-.6-.3-.3-.5-.3-.6-.3-1-.4-1-.2-.9-.2-1-.1-2-.1h-2.8l-10.2.3h-9.3l-1.7.2-3 .4-6.8 1.4-11.1 2.4-3.2.7-2.3.6-4 1.2-10.8 3.4-5.8 1.7-3.6 1-4.5 1.1-9 1.9-7 1.8-2.6.5-1.5.3h-3.2l-1.2-.3-1.1-.4-.9-.5-1-.8-.8-.6-.5-.6-1.5-1.7-1.4-2-1.4-2-1.4-2.2-1.3-2.2-6.6-11.4-2.8-4.5-1.5-2.1-1.5-2.1-2-2.4-4.2-4.6-1.4-1.7-1.3-1.8-2.7-4.3-3.5-5-1.4-2.4-2.8-4.6-2.3-4 4.5-5 3.7-4.2 3.6-4.3 1.8-2 3.4-4.3 4.5-6.1 1.7-2.2 1.7-2 1.8-2 1.8-2 1.2-1.2 1.4-1.3 5-4.3 1.5-1.5 3-3 3.3-3.2 3.4-3.7 1.7-1.8 1.5-1.8 1.5-1.9 1.3-1.9 1.1-1.8.9-2 .5-1.9v-2l-.3-2-.5-2.1-.9-2.9-.5-2v-.8l-.3-2.5-.4-3.2v-2.2l.3-1.5.5-1.4.7-1.4 1-1.5 1-1.3 1-.9.9-.8 1-.7 1-.4 1-.4 1.4-.6 1.5-.5 2.9-.8 2.4-.9 13.5-5.7 1.6-.8 2.2-1.1 2.2-1.3 2.5-1.5 1.2-.8 1.8-1.3 1-.8 1.8-1.5 2.3-2.2 3.8-4 1-1 2.5-3 1.8-2 1-1 2-2 3.2-3.2 1.3-1.2 1-.8 1-.8 3.3-2.3 2.5-1.4 2.3-1.2 1.7-.8 1-.4 2.8-1 2.6-.9 3.8-1 3.3-1 2.3-.5 2.5-.4 1-.2 8.5-1.1 2.2-.3 4.2-.4 6.2-.3 2-.3 2.5-.4 2.5-.5 2.5-.6 2.5-.7 5.1-1.5 5.2-1.7 2.5-1 2.5-1 2.4-1 2.2-1 2-1.3 1.5-1.2 1-1.3.2-.8v-1.1l-.1-.3 1.4 1 12.8 9.4 6.7 5 4.3 3.3 2 1.7 2 1.8 1.8 1.8 1.8 2 1.7 2 1.7 2 1.6 2.1 2 2.7 1.2 2 1.2 2 .9 1.4.8 1.5 2.4 5 1 1.6.8 1.5.7 1.1 1 1.6 1.5 2 1.5 1.9 1.6 1.8 3.2 3.7 5 5.5 3.5 3.5 3.6 3.4 1.8 1.6 2 1.6 2 1.6 6 4.5 2 1.6 2 1.7 1.6 1.8 1.7 1.9 1.5 2 1.4 2 1.4 2 1.4 2.2 1.3 2.1 1.2 2.2 1.1 2.2 1 2.2.8 2.2.6 2.2.3 2.2v1.3l-.2 1.1-.2 1.1-.4 1.7-.6 1.7-.5 1.3-.9 2-1.7 3.5-.5 1.2-.6 1.5-.3 1.2-.1 1v1.4l.3 1.2.7 1.6.8 1.2.9 1.3 3.8 4.7 1.3 1.8 1.3 1.8 1.3 2 1.2 2 1.6 2.8 3 5.5 2.7 5.3 1.1 2.4.2.4"/></defs><g clip-path="url(#p35d5e56d41)"><use xlink:href="#mefce5b3f51" y="280.5" fill="#0c1321" stroke="#0c1321"/></g></g></g></g><defs><clipPath id="p35d5e56d41"><path d="M7.2 7.2h351.9v266.1H7.2z"/></clipPath></defs></svg>