<svg xmlns="http://www.w3.org/2000/svg" xmlns:xlink="http://www.w3.org/1999/xlink" width="359.1" height="374" viewBox="0 0 269.3 280.5"><defs><style>*{stroke-linejoin:round;stroke-linecap:butt}</style></defs><g id="figure_1"><path id="patch_1" fill="none" d="M0 280.5h269.3V0H0z"/><g id="axes_1"><g id="PatchCollection_1"><defs><path id="m4f6ad3955d" stroke="#0c1321" d="m250.5-175.4-.2.3-1 1-3.7 3.8-6.8 6.8-7 7-6.9 6.5-4.5 4.1-2.2 2-2.3 1.9-2.2 1.7-3.2 2.3-1.6 1-1.6 1-4.7 2.5-2 1.2-.7.5-.7.6-1 1.2-.1.4-.3.9-.2 1v1.4l-.1 3.9-.2 2.8-.2 1.3-1 6.5-.6 2.5-.7 2.5-.7 2.2-1.5 3.6-.9 2-1 2-1.9 3.6-4.1 7-2.9 5.2-4 7.9-4 7.4-1 2.1-.2.5v1l.1.6.4 1 .8 1.3.9 1.2 1.6 1.8L178-55l1 1 4.5 3.4.8.7 1.1 1.1 1.6 1.9 1.7 2.2 1 1.6.4.8.8 1.6.7 1.7 2.7 7.4.2.6.3 1v1l-.2.6-.4.7-.4.5-.5.5-1 .8-.9.5-.4.2-.6.2h-.5l-.5-.3-.3-.4-.2-.4v-.3l-.6-.5-.6-.6-2.8-2.2-2-1.3-2.1-1.4-2.9-1.7-2.5-1.3-2.7-1.3-3.7-1.6-2.3-.8-1.5-.4-1.5-.3H160l-2.1.2-2 .3-3.2.7-3 .8-1.5.5-2.6 1-.9.5-2 1.1-2 1.3-3.9 2.8-2.9 1.9-1.1.6-1.5.8-1 .4-2.6 1.1-2.4.8-2.3.7-7.5 2-2.3.6-1.7.5-3 1-1.5.4-1.6.3-.8.1h-1.3l-1.1-.3-.8-.3-.9-.4-1.2-.8-1-.8-1.4-1-6.3-5.6-1.9-1.5L87-31l-1.6-1-1.6-.8-1.3-.5-1.6-.4-1.4-.2-2-.1H68l-2.6.1-2.2.2-6.4.7-3.3.2h-1.6l-1.8-.1-1.9-.2-1.2-.2-1.8-.4-1-.3-1.5-.5-1.8-.7-2.4-1.3-8.4-4.6-2.6-1.2-1.8-.9-1.4-.6-1.7-.5-1.4-.3h-.6l.3-.4.7-1 .5-.8.7-1.4.6-1.6.4-1.8.3-1.7.4-3.3.2-1.8.6-2.8.4-1.6.4-1.4.9-2.8.6-1.8 2.1-5.2.7-2 .4-1.7.2-1v-1.7l-.2-1-.8-2.3-1-2.3-1.3-2.3L25-93l-1.2-2.4-1.5-3.5-.9-2.2-.7-2.3-.7-2.3-.5-2.1-.1-.9-.4-3.1-.1-1.4-.1-1.4v-1.3l.3-1.8.5-1.7.3-.7.5-1.2 1-1.5.6-.8.7-1 1-1L25-127l6.3-5.5 3-2.8 1.2-1.2 1-1.1 1.4-1.6 1.1-1.4.9-1.2 1.3-2 1.7-2.8 1-1.7.5-1 .4-1.1.3-1.2.2-1.2v-2.4l-.3-1.5-.3-1-.3-1.1-.7-1.6-.6-1.3-.5-1-1.9-3.3-.8-1.9-.4-.8-.6-1.6-.6-2.3-.3-1.8-.2-2.2-.2-5.5-.2-2.2-.2-1-.2-1.1-1.2-3.6-.2-.7-.1-.8v-1l.1-1 .3-.8.3-.8.3-.8.6-1 .8-1.2.8-1 1.2-1.3 1.2-1 1.7-1.2 2.6-1.6 1.9-1 3.5-2 1.4-.6 2.6-1 1.9-.7 6.2-2 13-4.5 4.6-1.8 2.5-1 1.6-.8 2-1 4-2.1 3.9-2.3 3.9-2.4 2.9-1.9 3.7-2.5 2.2-1.7 4.4-3.4 3.3-2.9 2.6-2.2 3-3.4 1.6-1.6 1.5-1.5 1.7-1.6 2-1.7 1.5-1.2 2.5-1.8 2.7-1.8 2-1.2 1.6-.9 1.6-.8 1.4-.6 1.4-.6 1-.3 1-.2 1.6-.1h1.4l.8.3 1.6.8 1.6 1.1 1.5 1.2 7.6 6.6 1.6 1.4 2.6 2 1.6 1.1 1.6 1 1.6 1 1.7.8.9.4 2.4.8 4.8 1.5 2.4.9 2.3 1 2.3 1.3 2.2 1.3 2.3 1.5 4.5 3.2 6.7 5.2 11.1 8.9 4.5 3.6 4.5 3.7 4.4 3.8 2.2 2 2.1 2 1.5 1.6 1.6 1.7 1.8 2.2 3.2 4.2 3.1 4.3 3.2 4.8 4.4 6.6 1 1.4.4.6"/></defs><g clip-path="url(#p4e2a58a9f4)"><use xlink:href="#m4f6ad3955d" y="280.5" fill="#0c1321" stroke="#0c1321"/></g></g></g></g><defs><clipPath id="p4e2a58a9f4"><path d="M7.2 7.2h254.9v266.1H7.2z"/></clipPath></defs></svg>