<svg xmlns="http://www.w3.org/2000/svg" xmlns:xlink="http://www.w3.org/1999/xlink" width="428" height="374" viewBox="0 0 321 280.5"><defs><style>*{stroke-linejoin:round;stroke-linecap:butt}</style></defs><g id="figure_1"><path id="patch_1" fill="none" d="M0 280.5h321V0H0z"/><g id="axes_1"><g id="PatchCollection_1"><defs><path id="mfd94506002" stroke="#0c1321" d="m198.6-146.8 7.6 10 12 16.2 3.9 5 1.3 1.7 1.3 1.5 1.4 1.5 1.4 1.4 1.5 1.3 1.5 1 1.7 1 1.8.7 1.8.6 1.8.5 2 .5 3.8.8 4 .7 12.2 2 5.8 1 4.1.7 2 .4 2 .5 1.8.6 1.4.5 1.3.7 1.2.7 1 1 2 2.1 1.2 1 .2.1 1.4.7 1.6.6 1.8.4 1.9.3 1.9.3 6.4.7h1l.2.2-5.7 25.3h-.5l-1.2-.2-9.9-1.4-6.4-.8-4-.5-2-.2h-5.8l-1.7.3-1.7.5-1.6.7-1.4 1-1.5 1.1-1.3 1.2-1.4 1.3-1.3 1.4-2.6 2.8-4 4.7-2.7 2.9-4.2 4.4L227.6-32l-4.4 4.6-2.8 3.1-1.2 1.5-1.1 1.5-.7 1-.4.7v.2L148.1-40l-5.5-1.5-3.7-1-3.8-.8-3.4-.6-3.4-.4-1.7-.2-3.8-.3-4-.2h-6l-7.5.1-32 .9-14.1.3-6.2.1.1-.5v-1l-.2-.6-.3-.6-.5-1-.5-.6-.6-.6-.8-.5-1.2-.5-1-.3-2.6-.7-.8-.2-.8-.4-.6-.6-.3-.8v-1l.3-1 .4-1 1-2.4.8-1.7.7-2 .3-1.1.3-1.1.4-2.6.2-1.1v-1.2l.1-.5V-71l-.2-1.7-.2-.7-.3-1.2-.3-1-.6-1.4-.8-1.7-2.7-5.7-2.2-4.2-1.5-2.7-.8-1.3L37-94l-.7-1-1.5-2-1.8-2-.9-.9-2.7-2.7-.8-1-.5-.7-1.9-3.5-.7-1.7-.8-2.2-.4-1.5-.4-2.1-.5-3L22-127l-.6-5-.2-2.1-.1-2.2v-5.7l.2-1.7.4-5.4 2.6-25.5.7-6.7.6-4.8.2-1.4.2-1.8.4-2 .3-.9.4-1.6 2.7-9 .8-2.8.5-2 .4-2 .3-1.8v-1l.1-.9v-1l-.1-1.2-.4-2.3-.5-2.2-1.5-6.9-1-5.2-.8-2.7-.1-.8v-.9l.2-.8.2-.9.3-.7.3-.5.1-.3 4-.6 1.7-.2 1.8-.1h4.1l1.8.2 2.1.3 2.4.5 2 .5 1.8.6 1.9.7 1 .6.9.4 1 .6.8.7.8.7 1.2 1.2.5.5.8.6 1 .8 1.2.6 1.4.3h3.3l5.2-.8 1.8-.1h3.1l1.4.6 1 .7 1 1 1.8 2.3 1 1 1 1 1.4.5 1.5.3 1.6.2h1.7l1.8-.2 1.8-.3 1.7-.4 1.7-.6 1.6-.7 1.5-1 .6-.6 1-1 1-1.4.7-1.3.8-1.7.6-1.7.7-1.7.5-2 .5-2 .5-2 .3-2 .4-2 .6-4 .5-3.9.9-6.3v-.4l2.2 2 2.4 2.7 2.7 3 1.1 1.3 1.1 1.4 1 1.3.8 1.3.9 1.3 1.2 2 1 2 7.7 14.1 2.2 3.9 2 3.4 4.2 6.8 3.3 5.2 2.3 3.5 1.2 1.7 1.2 1.6 1.3 1.6 1.4 1.5.4.4 1.7 1.6 2.5 2 1.2 1 1.1 1.2 2.2 2.2 2.9 3 2.8 3.2 2.8 3.2 16.6 19.3 13.8 15.7"/></defs><g clip-path="url(#pc882329c2c)"><use xlink:href="#mfd94506002" y="280.5" fill="#0c1321" stroke="#0c1321"/></g></g></g></g><defs><clipPath id="pc882329c2c"><path d="M7.2 7.2h306.6v266.1H7.2z"/></clipPath></defs></svg>