<svg xmlns="http://www.w3.org/2000/svg" xmlns:xlink="http://www.w3.org/1999/xlink" width="394.8" height="374" viewBox="0 0 296.1 280.5"><defs><style>*{stroke-linejoin:round;stroke-linecap:butt}</style></defs><g id="figure_1"><path id="patch_1" fill="none" d="M0 280.5h296.1V0H0z"/><g id="axes_1"><g id="PatchCollection_1"><defs><path id="m1653e356c8" stroke="#0c1321" d="m228.2-234 1.1 2.3 6.1 11.8 1.4 2.4.9 1.5 1.3 2 1.6 2.4 2.4 3.1 10.2 12.3 2.8 3.1 1.1 1.3 1 1.1 1.3 1.1 1.3 1 1.6 1.3 1.7 1 1.7 1 1 .4 3 1.1 1.3.6 1 .4.7.5.6.5.6.5.8 1 .5.7.3.6.3.9.2.8.1.5v.5l-.1 1.3-.3 1.2-.3.7-.6 1.1-.7 1.2-.9 1-.6.9-1 1-1.3 1.2-2.3 2-2.8 2.2-2.6 1.9-1.4.8-1.4.8-1.4.7-1.4.7-2 .8-1.9.7-1.9.6-4.4 1.3-1.9.6-1 .4-1.2.5-1.1.7-1.3 1-.8 1.1-.6 1-.2 1.6v1.8l.5 1.8.9 1.9.8 1.3 1 1.3 4.2 4.8 1.3 1.7 1 1.3 1.2 1.7 1.2 2 1.1 1.9 1 2 .9 2 .6 2 .3 2 .6 4.3.4 2 .6 2.1 1.2 3.8 1 2.4.8 2 1.1 2.4 1.2 2.4 2.2 4.3 1 1.6.4.8.2.5 2.4 4.5 1.4 3 1.2 2.8.6 1.5.3 1.2.3 1.1.2 1 .1 1v2l-.2.4-.2.4-.7.8-1 .5-2.5 1-1 .4-1 .6-1 .7-1 .9-1 1-1 1-1 1-1 1.5-.8 1-.7 1.1-1 1.8-.6 1-.4 1-.4 1-1 3.7-.4.7-.3.7-.4.5-.3.3-.4.4-.8.5-1.3.6-1.1.4-1.7.3-1.1.2-2.5.2h-3.2l-4-.1-1.3-.2-.8-.1-1.5-.4-1-.3-3.3-1.2-1.1-.3-1.1-.2h-1.4l-.4.2-.1.1h-.1v-.3l-.2-.2-.4-.2-.7-.2-2-.2h-3.9l-1.6-.1-1.1-.1-1.5-.3-1-.3-1.2-.4-5-1.7-5.7-1.8-1.5-.6-8.8-3.5-2.4-.9-2-.6-1.4-.4-1-.3-1.9-.3-2.7-.4-1.4-.2h-3l-2.4.2-4.5.4-3.1.1H160l-2.2.2-1.2.2-2.3.4-3.1.7-9.2 2.4-4 .9-7.4 1.5-4 1-5.1 1.1-1.7.5-1.2.4-2.2.9-2 .8-1.6.7-2.2 1-1.9 1-2.2 1.3-3.1 1.9-6.4 4-8 5.4-2 1.2-3.2 2-3.4 1.7-3.3 1.6-2.8 1.2-1.2.4-1.8.6-1 .3-1.1.3-1.8.3-6.3.7-3 .5-2.1.4-2.4.6-1.3.4-3 1.2-1.6.5-1.4.4-1.5.2-1.9.1-1.3.1h-1.8l-1.9-.3-1.7-.4-1.4-.5-.6-.3.4-.4-.1-.4-.7-.7-.8-.4-1-.4-1.4-.4-3.6-1-2.3-.7-1-.4-1-.4-1.2-.8-.9-.8-.3-.6-.2-.5V-31l.2-.3.5-.7.8-.8 2.4-1.7.7-.6 1.2-1.4.9-1.1.7-1.3.7-1.4.9-2.1 2-6.2.9-2 .9-1.8 1-1.5 1.4-1.7 1.7-1.6 1.6-1.2 1.8-1.2 1.9-1.1 1.5-.9 3-1.7 10.9-5.6 4.2-2.2 2-1.1 2-1.2 1.7-1.1 1.5-1.1 1.2-1.2.4-.4.2-.3.6-1.1.5-1.6v-3.1l-.1-.8-.2-1-.3-1-.4-1.1-.5-1.1-.5-1.2-1.1-2-.7-1.2-1.6-2.5-3.7-5.3-1.9-2.8-1.1-1.9-1-1.6-.8-1.9-1.2-3.6-.4-1.2-1-2.2-1.6-3-3.8-6.7-.6-1.3-1-2-.8-2-.7-2.2-.7-2.6-.2-1.7v-.9l-.3-.7-1.6-4.6-.6-2-.8-3.1-1.9-9.8-.3-2.2-.5-4.3-.3-1.6-.4-2-1-4.1-.7-2-.7-2-1-3-3-7.2-1-2.4-.5-1.6-.3-1.1-.3-1.7-.3-1.8v-1.4l.1-1 .2-1 .7-1.9 1-1.7 1.1-1.6 1-1.1 1.2-1.2 2-1.7 1.3-1 1.2-1 1.2-.8 1.4-.7.9-.4.8-.3.6-.1h.7l1.3.2.7.6.4.6.3.8v2l-.2.5-1 2.9-.4 1.2-.2 1.3-.1 1.3v1.2l.2 1.1.4 1.2.4 1 .9 1.7.7 1 .4.5.6.6.7.5.6.5.7.3.6.3 1.2.4 1.3.3 1 .1h2.3l1.6-.3 1.4-.3 2-.6 2.2-.7 1.4-.6 2.8-1.2 3.7-1.8 2.6-1.4 2.8-1.6 5.8-3.7 5.3-3.4 2.6-1.6 3.4-1.8 3.3-1.7 4.5-2 4.6-2h.1l1 .4 1 .7 3.8 2.1 1.9 1.2 3.6 2.5 10 7.2 3.3 2.1 2.2 1.3 1 .5 1 .4 1.2.3h.5l.8.1h.5l.7-.1 1-.4.5-.3.4-.2.8-.7 1.2-1.1 1.7-1.8 1.1-1.5 1-1.5.8-1.2.6-1 1.8-3.5 1.3-2 1-1.5 1.1-1.5 1.3-1.4 1-1 2.2-1.8 1.3-1 1-.6 1.8-.9 2.6-1.2 5.2-2.3 2.2-1.2 1.9-1.2 2.2-1.7 2.3-1.9 1-.8 1.2-1.4.8-1 .7-.9.6-.9.5-1 .6-1.1.3-.7.5-1.5.3-1 .2-1.2.3-1.4v-1.3l.1-.9v-1.1l-.2-1.7-.3-2.5-.7-3.1-.3-1.9-.2-1.1v-1.4l.2-.8.3-1.1.2-.3.3-.3.3-.2.2-.2h.4l.5.2.4.5 1.7 2.8 1 1.4 1 1.3.4.4 1 .8 1.1 1 1.3.7 1.8.8 3 1.1 4 1.8 3.3 1.1 6 1.8 2.5.9 1.3.5 1.6.6 2 1 1.9 1.3.3.2 1.3 1.4 1 1.4 1 1.5.5 1.2.3 1v.5"/></defs><g clip-path="url(#p580952832b)"><use xlink:href="#m1653e356c8" y="280.5" fill="#0c1321" stroke="#0c1321"/></g></g></g></g><defs><clipPath id="p580952832b"><path d="M7.2 7.2h281.7v266.1H7.2z"/></clipPath></defs></svg>