<svg xmlns="http://www.w3.org/2000/svg" xmlns:xlink="http://www.w3.org/1999/xlink" width="473.9" height="374" viewBox="0 0 355.4 280.5"><defs><style>*{stroke-linejoin:round;stroke-linecap:butt}</style></defs><g id="figure_1"><path id="patch_1" fill="none" d="M0 280.5h355.5V0H0z"/><g id="axes_1"><g id="PatchCollection_1"><defs><path id="m9b939dbdad" stroke="#0c1321" d="M332.7-246.2h-.3l-.5.4-.6.6-.6 1-.6 1-.5 1-.6 1.5-.5 2.2-.2 2v2.2l.3 1.7.2 1.7.7 3 1.8 7.4.5 1.9.3 1.4.2 1.4.1 1.3v3.4l-.4 2.1-.4 1.1-.4 1-.9 1.6-1 1.2-1 1-1.1.9-1.7.9-1.6.5-1.3.4-1.4.2H319l-2.2-.2-1.9-.4-1.9-.6-1.7-.6-1.8-.8-4.8-2.3-3-1.3-1.5-.7-1.6-.5-1.6-.5-1.3-.3-1.4-.2-1.3-.1h-1.3l-1 .2-1 .2-1.3.6-1.5 1.1-.7.8-.6.8-.5 1-.5 1-.4 1.3-.3 1.5-.1 1.4-.2 1.5-.2 7.9-.2 2-.3 4-.2 1.7-.3 1.8-.4 1.8-.3 1.8-.5 1.9-.5 1.8-.6 2-.7 2-.8 2.3-1.7 4.4-1.5 3.7-1.5 3.3-1.3 2.7-1.6 2.8-3.5 6.1-2 3.6-1.1 2-.6 1.3-.5 1.2-.7 2-.6 1.9-.3 2v2.1l.2 1.5.4 1.4.7 1.4.8 1.2.9 1 1 .9 1 .8 1.2.8 1.5.8 1.6.7 5.7 2.3 1.7.7 1.5.8 1.5.8 1.6 1 1.5 1 1.2 1 1.1 1 1 1.1 1 1.3.7 1.1.5 1.1.6 1.4.4 1.5.2 1.4.1 1.5v1.8l-.4 1.9-.4 1.7-.6 1.7-.7 1.5-.8 1.6-1 2-6.2 10.7-1.7 3.2-.8 1.8-.8 1.8-.7 1.7-.7 2-.6 1.8-.3 1.3-.2 1v.4h-.2l-.8.4-2.8 1.4-2.2.9-2.4.8-1.5.4-1.9.5-1.4.2-1.7.3-2.1.2-3.6.2H252l-.6-.2-.7-.1-.8-.4-1-.6-.6-.6-.8-1-.6-1-.9-2-.2-.5-.4-.4-.8-.6-2-1.1-1.2-.6-1.3-.6-1.3-.4h-2.1l-.7.2-1 .5-.5.5-.5.4-.7.8-.6.9-.6.8-1.6 3-.5.8-.7 1-.7.8-.7.7-1 .6-.4.3-1 .6-2.2 1-1.1.5-1.4.8-.7.5-.6.5-.6.6-.4.6-.4.6-.5 1.2-.4 1.2-.2.6-.3.5-.4.5-.4.4-.7.8-1.1.8-3.7 2.6-2.3 1.7-1.2.7-1.3.6-1.3.5-4.5 1.4-1.8.4-3.7.8-1.8.4-1.2.5-3 1.3-1.2.5h-.5l-1 .1-1-.2h-.3l-.6-.3-.8-.6-.8-.7-.8-1-.7-1.3-.5-1.2-.8-2.4-.5-1-.8-1.2-1.3-.8-1.6-.5-1.8-.2h-6.4l-4.7.5-7.2.8-17 2-7.2 1-4.8.6-2.3.4-2 .4-2 .5-2 .5-2.2.7-2.2.8-2.1.9-2.2 1-4.3 2L93.9-24l-2 1-2.1.8-1.8.6-2.3.6-1.7.4-1.7.2-1.8.2-3.4.3-3 .2-8.4.3-5.9.2h-6.7l-3.2-.2-1.3-.1-2.4-.3-1.9-.3-2.2-.5-2.3-.5-2.9-1-2.6-.8-2.6-1-2.6-.9-5.8-2.3-.6-.2 1-10.3 2.2-26.7.5-5 .2-1.6.3-1.5.3-1.5.5-1.4.6-1.2.8-1 1-.8 1.2-.5 1.3-.4 1.5-.3 1.6-.2 1.6-.2 3.4-.2 7.3-.3 3.6-.3 1.8-.2 1.6-.2 1.5-.3 1-.4.6-.3.1-.2 11-14.5 13-17.1 4.7-6.2 2.9-4 1.3-2.1 1.3-2.1 1.2-2.2 1-2.2.8-2.3.7-2.3.5-2.3.5-2.4.4-2.4.8-4.9.6-4.9 3.8-29.4 1-7.5.7-5 .4-2.4.4-2.5.5-2.4.6-2.3.6-2.3.6-2.2.7-2.2.8-2 .8-2 .8-1.7 1-1.5 1-1.1 1.2-.6 1.4-.1 1.5.4 1.6.8 1.6 1 1.7 1.2 1.8 1.3 3.6 3 7.3 6.1 1.8 1.5 1.8 1.3 1.8 1.3 1.7 1 1.7.9 1.7.4h1.5l1.5-.6 1.4-1 1.4-1.5 1.3-1.8 1.2-1.9 1.2-2 1.3-2.2 4.8-8.8 2.5-4.4 1.2-2.2 1.4-2 1.4-2 1.5-1.9 1.7-1.7 1.8-1.4 2-1.3 2-1.1 2.1-1.1 2.2-1 4.5-1.9 4.5-1.8 20.5-8 4.5-1.8 4.5-1.7 2.2-.7 2.3-.7 2.1-.7 2.2-.4 1.6-.3 1.5-.1h2l1.2.2 1.5.5 3 1.1 1.7.4 1.6.3h3.6l1-.2 1.8-.4 1.9-.5 4.6-1.7 1.7-.5 1.8-.5 2-.4 1-.2h2.1l.8.1.8.2 1.8.5 1.8.7 1.4.7 1.4.6 2.5 1.4 1.4.8 2.5 1.6 3.9 2.5 2 1.2 2.4 1 2.3 1 1.4.5 1.9.6 2.3.7 3.4.7 1.3.4 1 .4.7.3.5.3.4.3.5.6.3.4.2.7.2 1v1l-.2 1.3-.3 1.2-.3 1-.7 1.5-.6 1-1 1.2-2.8 3.2-.7.9-.5.8-.4 1-.3 1v1.8l.3.9.2.9.5 1.2 1 2.2.4 1 .9 1.7 1 1.6.8 1 1 .9 1.4 1.3 1.6 1.3 1.6 1.2 1.7 1 1.8.5 1 .2h1l.6-.1 1.2-.2.5-.2.6-.3.8-.4.8-.6 1-.9.8-1 .5-1 .9-1.5.4-1 .4-1 .5-1.7.3-1 .4-1.8.7-3.8 1-6.1.4-1.8.5-2.1.7-2 .6-1.4 1-2.2 1.2-1.7.9-1.2.6-.6 1.4-1.2 1-.8 1.4-.6h.8l.2.2"/></defs><g clip-path="url(#p62ed064f9d)"><use xlink:href="#m9b939dbdad" y="280.5" fill="#0c1321" stroke="#0c1321"/></g></g></g></g><defs><clipPath id="p62ed064f9d"><path d="M7.2 7.2h341.1v266.1H7.2z"/></clipPath></defs></svg>