<svg xmlns="http://www.w3.org/2000/svg" xmlns:xlink="http://www.w3.org/1999/xlink" width="495.4" height="359.2" viewBox="0 0 371.5 269.4"><defs><style>*{stroke-linejoin:round;stroke-linecap:butt}</style></defs><g id="figure_1"><path id="patch_1" fill="none" d="M0 269.4h371.5V0H0z"/><g id="axes_1"><g id="PatchCollection_1"><defs><path id="m1722b5171c" stroke="#0c1321" d="m93-233.7 5 3.7 3 2.2 2 1.7 4.3 3.9 1.9 1.6 1.7 1.3 1.7 1.1 1.6 1 1.4.8 1.9 1 2.5 1.2 2.8 1.2 6.3 2.3 2.7 1.1.8.4 1.3.8 4.2 2.6 1.1.7 1.1.6 1.4.7 1.6.6 1.4.5 2 .5 2.8.7 7.3 1.4 2.6.6 1.2.3 1.2.4 1 .4 1.2.4 1.2.6 1.2.7 1.5.9.7.5 1.7 1.3 1.2 1 3.9 3.4 1.5 1.1 1.6 1 1.3.6 1 .5 2.4.8 2 .7 14.6 4 2.1.8 4.7 1.6 1.7.5 2 .6 1.9.4 2.1.5 6.7 1.2 2.5.3 1.3.1 1.1-.1.5-.1.6-.2.8-.4.2-.2.5-.5.5-.6.3-.5.4-.7.3-.7 1.4-3.6.7-1.5 1-1.8.5-.7.6-.9.7-.7.8-.8.6-.6 1-.7.8-.5 1.5-.9 1.8-.8 1.8-.7 1.6-.5 1.8-.4 1.7-.3 2.4-.2 6-.3h1.1l1.9-.3 2.6-.5 4.2-1 1.8-.5 1.6-.5 1.4-.6.8-.3 1-.5 1-.6 1.4-1 3.3-2.3 1-.8.9-.4 1.2-.6.8-.4 4.3-1.6 1.8-.8 1.3-.6 1.2-.8 1.6-1 1.6-1.2 1-.8.8-.7.8-.8.8-.9.7-.8 1-1.4.7-1 .5-.9.4-.8.5-1.4.3-.9.2-1 .2-1.3.1-2.1.2-3.6.2-1.7.2-1.8.3-1.7.2-.6.3-.8.5-.9.5-.7.7-.7.9-.5 1.5-.7 1.7-.2h2.8l1.7.3 1.7.4 5.4 1.2 1.4.3h.2l-.1.1-.1.2v.6l.3.5.6.8 1.1 1.2.8.7 3.7 3 1.7 1.6 1.8 1.6 1.3 1.4 1.3 1.6 1.5 2.1 1.6 2.3 2.6 4.1 1.2 1.6 1.1 1.4 2.8 2.9.8 1 .3.6.2.5.2.7.2.8.1.9.2 2.5v3.2l-.2 2.7-.3 2-.2.8-.5 1.4-.7 1-.8 1-1 1-1.3 1-1.2.5-1 .4-.9.3-.7.1-2 .3-3.7.4-2 .3-1 .2-1.1.3-.8.3-.9.4-1 .5-.7.5-4 3-1.7 1-1 .7-1.7 1-3.6 1.7-1.5.9-.8.5-.8.5-.8.7-.6.6-.6 1-.4 1.2-.4 1.8-.5 3.2-.2 1-.3.8-.4 1.2-.5 1.1-.6 1-1.7 2.3-.8 1.3-.4.9-.4 1-.1 1v1.4l.1.8.2.9.3.8.5.9.4.9 2 3.3 1.7 3.1.7 1.1 1 1.5 2.8 3.4 1.2 1.6 1 1.4 1.3 2 .5.8.7 1.5.3.7.2.7.1 1v1.4l-.2.7-.4.9-.3.5-.5.7-2.8 2.9-.7.8-.6.7-.5.8-.7 1.4-.8 2-.5 1.8-.5 2-.4 2-.2 1.8v4.1l.2.6.2.8.2.4.3.6.2.4.3.3.5.5.4.3.8.5.5.2.6.2h2.8l.8-.2.9-.3 1.4-.4 1.1-.4.5-.2v.4l.3.6 1.8 3.7.5 1 .4 1.1.2 1 .1 1v2.3l-.3 1.4-.3 1-.3.9-.5 1.2-1.7 3.9-1.3 3.3-.5 1-.5 1-.4.7-.8 1.2-.6.6-.4.4-.5.3-.5.3-.5.2-.4.1H312l-.8-.1-2.8-.8-3.3-.9-1-.3-1.6-.6-3.4-1.6-.7-.2-1-.4-1.5-.2-1.4-.2h-1.1l-.9.2-1 .2-.8.2-1.1.4-1.7.7-1.4.6-1.5.8-2.6 1.6-3 2-1 .7-1 .7-1 1-.6.7-.4.5-.3.5-.1.4-.2.5v2.4l.5 2.8.2 1.6.1 1.9v2.6l-.2 1.1-.3 1.3-.4 1-.5 1-.5.8-1 1.2-.7.7-1.2 1-1.2 1-2.1 1.4-3.4 2.1-1.4 1-1 1-.7.7-.7.9-.7 1-.6 1-.5 1-.4 1.2-.4 1.4-.3 1.3-.3 1.5-.7 7.1-.2 1-.2.8-.2.2h-.1l-.9.3-1.7.2H251l-1.3-.1-1.3-.2-1.6-.4-1.7-.6-1.4-.5-1.6-.8-1.4-.7-2.6-1.6-7.3-4.6-2.6-1.7-2.1-1.2-5.3-2.8-1.2-.7-1.5-1-4.3-3.3-5-3.6-2.4-2-2.4-2-1-1.1-1.2-1.1-1.2-1.3-.8-1-1.3-1.6-.5-.8-.8-1.4-.8-1.4-.8-2-.6-1.5-.5-2-.5-2.1-.3-1.2-.4-3.4-.3-2-.3-1.8-.3-1-.3-.8-.7-1-1.2-1.3-1.2-1-1.6-1.1-1.2-.7-1.3-.8-1.6-.7-1.8-.5-1.4-.3-4.2-.5-2.3-.4-1.8-.5-.9-.4-3.1-1.7-.6-.3-.7-.2-.9-.2h-1.4l-1 .1-.8.3-.6.3-.6.4-.7.4-1 .9-.6.6-1.1 1.1-3.2 3.7-1 1-1.1 1-.7.5-1 .6-1.2.7-2 1-2.2.9-1.5.5-3.6 1.3-1.7.6-2.1 1-5.6 2.5-1.8.7-1.4.5-1.8.5-2 .4-1.4.2-1.6.1-2 .1h-4.3l-2.2-.1-1.4-.2-1.4-.3-1.4-.4-2.6-.9-2.1-.8-1.6-.6-3-1.3-2.6-1.3-1.3-.8-1.5-1-.7-.5-.8-.8-.8-.7-.6-.7-.8-1.3-.4-.5-.7-1.5-.3-.8-.3-1-.1-.8-.3-1.4-.2-1.4-.1-1.6V-90l.3-1.7.2-1.6.4-1.4.4-.9.4-1 .8-1.4 1-1.7 2.2-3.5.6-1 .5-1.1.3-.8.2-.8.3-1 .1-1 .1-1.6v-1.5l-.2-1-.2-.8-.3-1.1-.6-1.2-.5-.8-.7-.8L87-123l-3-2.9-1.7-1.7-2-2.2-1.4-1.6-4.7-5.7-1.5-1.6-1.2-1.3-2.6-2.6-.9-.8-.7-1-.5-.6-.6-1-.3-.9-.3-.9-.2-1v-2.6l.4-3.8.1-2v-3.6l-.5-2.3-.4-1.1-.4-1-.4-.6-.5-.7-.5-.6-.7-.7-.7-.5-1.2-.8-1.2-.7-2-.9-.8-.3-.4-.1-.4-.5-2.5-3-1.2-1.7-2.6-4-.9-1.4-.8-1.4-1.4-2.8-1.2-2-.5-.8-.9-1.3-1-1.3-1.5-1.4-1.6-1.2-1.7-1.3-2.5-1.6-1.7-1.2-1.7-1.2-1.7-1.4-2.2-2-2-1.8-1.8-1.7-.7-.7-.3-.4 1.7-.4 2.4-.8 1.6-.4 1.5-.3h1l1.8-.1 1.8.1 1.7.4 1.6.5 4 1.7 1.5.5 1 .2 1 .2 1 .1H49l.9-.2.6-.2.8-.4 1.6-.9 1.6-1.3L56-210l1-1.2.9-1.3.7-1 .6-1 .6-1.3.3-.8.2-1 .3-.9.1-.7.3-1.9.1-2.3.4-6.3.2-2.4.2-1.9.7-4.3.6-3 .4-1.6.4-1.4.6-1.6.5-.9.6-1 .4-.5.5-.6.4-.4.7-.5.5-.3.5-.2.7-.2h1.8l.8.1 1 .4.8.3.7.3 1 .6.7.6 1 .8L79-246l1.9 1.9L87-238l2.4 2.2 1.3 1 1.2.8.7.3h.2l.1-.1"/></defs><g clip-path="url(#p17858df9dc)"><use xlink:href="#m1722b5171c" y="269.4" fill="#0c1321" stroke="#0c1321"/></g></g></g></g><defs><clipPath id="p17858df9dc"><path d="M7.2 7.2h357.1v255H7.2z"/></clipPath></defs></svg>