<svg xmlns="http://www.w3.org/2000/svg" xmlns:xlink="http://www.w3.org/1999/xlink" width="276.1" height="374" viewBox="0 0 207.1 280.5"><defs><style>*{stroke-linejoin:round;stroke-linecap:butt}</style></defs><g id="figure_1"><path id="patch_1" fill="none" d="M0 280.5h207V0H0z"/><g id="axes_1"><g id="PatchCollection_1"><defs><path id="m69a450c660" stroke="#0c1321" d="m116-256.3-.3.4-.4.5-.8 1.2-.7 1.3-.7 1.5-.3.7-.3.8-.4 1.1-.4 1.5-.1 1-.1.9-.1 1v2.7l.1 1 .2.7.5.8.5.4.6.2.7.2h1l2.2-.4h1.1l1.2-.1h3.5l3.4.4h4.6l2.9-.6 2.8-.3.7-.2.6-.1 1-.3.8-.4 1-.5 2.7-1.2 1.3-.5.7-.3.7-.2.6-.1h1.9l.5.2 1 .3 2.1.8 1.1.4 1 .3 1.1.3 1 .1 1.4.2 1 .2h2.6v-.2l.2.2v.3l.1.5.1.7v1.5l-.3 1-.1.7-.2.6-.2.6-.3.6-.3.7-.4.7-.3.5-.6 1-1 1.2-.7 1-.8.8-1.2 1.3-.6.9-.3.3-.2.3v.3l-.2.5v1.1l.1 1.1v1.8l-.1.7-.2.7-.7 2-.2.7v1.8l.2.8.2.6.9 2.5.4 1.3.2 1 .2 1.2v.7l.1.9v1.7l-.2 1-.1 1-.3 1-.2.6-.2.6-.4.7-.3.7-.4.6-.7.7-.4.4-.5.5-.6.4-.7.4-.9.4-.8.3-1.7.4-.5.2-.2.2-.2.3-.1.4v1.8l.2.6.3 1.4.6 2 2.7 9.3.6 2 .5 1.3.5 1.3.8 2 .8 1.9.5 1 .4.8.7 1.3.8 1.2.5.7.8 1.2 2.2 2.8 2 2.8.5.7.6.7.8 1 .8.7.7.6.8.5.4.2.4.2.6.2.5.1h.6l.7-.1 2.5-.6 1.2-.2h1.2l1.3-.1h4l2.7.2h1.4l1.3.2 1.3.2 1.2.3 1.1.3 1 .4 1 .6.5.5.3.5.3.5.2.5.2.5v.8l.2 1v2.1l-.2.7-.3 1-.4.9-.4.6-.5.7-1 1-.7.7-1.6 1.3-1 .9-.7.7-.7.7-.8 1-.8 1.2-.5.8-.4.6-.4.6-.3.7-.3.7-.3 1.1-.6 2.5-.5 2.6-1.2 6.1-.3 1.6-.5 1.9-.3 1.1-.4 1.3-.3.9-.4 1-.5 1-.5.9-.7 1-.5.8-.7 1-.7 1-1.6 1.8-1.4 1.6-2.2 2.4-1 1.1-.4.7-.4.6-.4.6-.3.6-.2.5v.4l-.1.5v1.7l.2.5.2.7.4 1 .6 1 .6 1v.3l1.6 4.7 1.2 3.4.6 2.3.3 1 .2 1.1.2 1 .1 1.1v1l-.1 1-.2 1-.4 1-.3 1-.8 2-.9 2-3.7 7.8-2 4.5-1.3 2.7-1.7 3.2-2.9 5.7-.7 1.5-.4.7-.5.2-1 .4-2.6 1.3-1.9 1-5.7 3-1.7 1-1.4.6-1 .3-.8.3-1 .2-.9.2h-1l-1.3.1h-7.3l-3.7-.2h-5l-1.4.2-1.1.1-1.8.3-1.3.2-1 .3-1.8.5-1.2.3-1.2.5-3.3 1.4-1.5.6-.9.3-.7.2-.7.2H97l-.6-.1-.9-.3-1-.3-1.3-.6-3.3-1.8-.8-.3-1-.4-1-.4-1.2-.3-1.1-.2-1-.1H81l-2.4.1h-1.6l-.7.2-.4.1-.4.2-.2.2-.4.3-.2.4-.4.7-.9 1.8-.2.3-.2.3-.5.4-.6.4-.5.1h-1.7l-.5-.2-.8-.4-.6-.3-.4-.4-.6-.4-1.1-1.2-.3-.2-.4-.3h-.2l-.3-.2h-1.8l-.9.4-.5.3-.5.3-.8.6-.4.4-.5.6-.4.5-1.8 2.8-1.2 1.7-.2.3h-.8l-1-.2-1-.3-.8-.3-.8-.4-.6-.5-.4-.5-.2-.4-.3-.5-.4-1.2-.7-1.6-.5-1.2-.2-.4-.4-.6-.3-.4-.6-.5-.6-.5-3.2-2.3-1-.6-.8-.7-.8-.8-.7-.6-.4-.5-.7-.9-.4-.5-1-1.5L35-40l-.4-.6-.9-1-1-1.3-1-1-.9-.9-.8-.7-1-.8-1.2-1-1-.8-2.7-2-.7-.5-.4-.4-.5-.5-.2-.2-.2-.4-.2-.6-.2-.5-.2-1-.3-2.3-.2-.7-.1-.6-.2-.4-.2-.5-.3-.5-.2-.4-.4-.5-.5-.4-.4-.4-.6-.4-.3-.2h-.4l-.5-1.2-.3-.8-.3-1-.2-1.1-.1-1.2v-2l.1-1.4.1-.7.2-.8.2-.8.2-.6.4-1 1.2-2.7.4-1 .3-1 .4-1.8.2-.6.2-.5.2-.3.1-.1.2-.1.3-.1h.6l.4.2 2 1 1.3.5.9.4 1.2.5 1 .3 3.2 1 2.8.8 1.3.3 2 .4.3.1h.2v.1-.2l-.1-.7v-1l.1-.8.2-.7.1-.5.3-.7.3-1 .4-1 2-4.1 1-1.7 1.7-3 1.9-3.3.7-1.2 1-1.4.8-1 1.5-2.2 1.1-1.5.5-.8.3-.5.4-1.1.6-2.3.6-1.9.3-.9.2-1v-3.6l-.4-3v-4.3l.4-1.1.3-1.2.5-1 1.3-2.2.4-.7.5-1 .3-.9.5-1.6.3-1.3 1.2-5.1.4-1.6.2-.9.3-.8.5-1.3.4-1 .5-1.1 1-2 2-3.9 1.7-3 1-2 .7-.9.5-.9.6-.8.7-.8.7-.9 1.4-1.5.8-.7 1.3-1.3 1-.8.7-.5.7-.6 1-.5 1-.6 1-.6 1.2-.6 4.6-2.2 1.1-.5 1-.5.8-.5 1-.6.8-.6.8-.7.7-.8.5-.8.4-.9.4-1.2.4-1.3.3-1.5.1-1 .3-2 .2-2.3.7-7.2.7-6.3.2-2.3.1-2.2v-3.3l-.2-.5-.4-.5h-.2l-.1-.1h-1.2l-1 .4-3.8 1.4-3.4 1.2-1.8.5-1.6.4-1.3.3-1.4.3-3.1.4-4.3.7-.7.1h-.8l-.7.1h-.7l-1.2-.1-1-.2-.5-.1-.6-.3-.6-.2-.7-.3-1-.5-.8-.6-1.8-1.3-.8-.5-.8-.5-.8-.4-1.6-.8-1.8-1-2.7-1.1-1.1-.5-.9-.3-.8-.3-.6-.1-.6-.1h-1.7l-.7.2-1.7.4-2.5.7-1.2.3-.9.1-1 .2-1.4.1-1.3.1h-4l-.2.1v-.4l-.2-.5-.2-1.1-.3-1.4-.7-2.6-1.3-4.6-.2-1-.2-.8v-2.5l.3-.5.3-.5.4-.5.8-.7 1-.7.9-.7 2.1-1.5 5.7-3.6 2.2-1.5 2-1.3 1.8-1.3 1.7-1.3 1-.7 4.3-3.7 1.6-1.3.8-.6 2-1.4.2-.2.4-.4L59-247l2-2 .7-.9.5-.5.3-.5.3-.5.1-.3.2-.5.1-.7.2-1.3.1-.5.2-.4.3-.5.5-.6.7-.6.6-.5 2.2-1.7 1-.8.3-.4.5-.4.1-.2.1-.2v-.1h.2l.4.2 1.3.4.8.2.4.1.7.3.8.4.9.5 1 .5.7.5 7.5 5.3.8.5.5.3.7.3.9.3 1 .2 1.1.2h5.5l1.4-.2 1.9-.2 1.5-.2 1.8-.3 2.3-.6 2.3-.6 1.7-.5 3-1 5-1.7"/></defs><g clip-path="url(#p9e00cebb4a)"><use xlink:href="#m69a450c660" y="280.5" fill="#0c1321" stroke="#0c1321"/></g></g></g></g><defs><clipPath id="p9e00cebb4a"><path d="M7.2 7.2h192.7v266.1H7.2z"/></clipPath></defs></svg>