<svg xmlns="http://www.w3.org/2000/svg" xmlns:xlink="http://www.w3.org/1999/xlink" width="390.1" height="374" viewBox="0 0 292.6 280.5"><defs><style>*{stroke-linejoin:round;stroke-linecap:butt}</style></defs><g id="figure_1"><path id="patch_1" fill="none" d="M0 280.5h292.6V0H0z"/><g id="axes_1"><g id="PatchCollection_1"><defs><path id="mabeefc1f83" stroke="#0c1321" d="m257.5-200.6.4-.3.8.1 1 .6 1.2 1 1.2 1.2 1.1 1.5 1.1 1.6.8 1.3.6 1.1.6 1.2 1.1 2.6 1.3 3.5.9 2.6 1 3.3 1.3 4.5.5 1.9.2 1.4.1.6v2.2l-.3.7-.2.4-.2.3-.4.3-.5.3h-2.2l-3.6-.7-2.4-.4H260l-1.7.2-2 .4-1.8.7-2 .8-1.4.8-1.6.8-1.5.9-3 1.9-1.5 1-2 1.4-1.3 1-1.6 1.3-1.3 1.4-.7.7-.7 1-.3.4-.7 1.3-.2.7-.2 1.1v2.2l.4 1 .3.8.4.8.9 1.1 1 1 1.3 1 1.4 1 1.4.9 4.5 2.7.9.6.4.3.8.7.3.3.3.6.2.8v.9l-.3.9-.3.5-.7 1.3-.9 1.3-2 2.6-.7 1-.5 1-.3.5-.3.9-.2.8v.5l.1 1 .5.9.2.5.4.6.4.4 1 1 1.5 1.3 2.7 2.2.8.6 3.4 2.2 1 .8.6.5.7.7.3.4.3.6.2.4.1.5.2.7v1.3l-.2 1-.1.6-.3 1-.3.6-.3.4-.3.4h-.2l-3.3 3.7-1.1 1-1 1-1.9 1.4-4.5 3.4-1 .9-3 2.6-1.5 1.2-1.6 1-1 .4-1 .4-1.7.5-1.6.3-2 .2h-7.6l-1 .1-1.4.3-.9.4-.8.5-.9 1.1-.6 1.4-1.3 3.3-.8 1.9-1.7 4-1.8 4-1 2-2 4-1.2 2-1 2-1.3 1.9-1.3 1.8-1.4 1.7-1.5 1.4-1.6 1.4-1.7 1.2-1.8 1.2-1.8 1.2-1.9 1.1-1.8 1-1.9 1-1.9 1-1.9.9-1.8.8-2 .6-1.8.4-1.8.2h-1.5l-1.1-.2-.7-.2-1.4-.4-3.3-1.1-2.8-.8-1.6-.6-.9-.2-1-.1h-1l-.8.1-2 .3-1.2.1h-1.3L153-41l-1-.2h-.5l-.9-.3-.8-.4-1.2-.6-.7-.4-3.4-1.3-1-.5-.8-.5-1-1-.6-.8-.4-1-.3-1.3-.2-1-.8-5-.7-2.8-.5-1.8-.5-1.7-.5-1.5-.6-1.4-.6-1.4-.7-1.5-.8-1.7-.9-1.6-.9-1.5-2-3-.7-1.2-1-1.2-.7-.7-1-.8-.6-.5-1-.4-1-.3-1.1-.3-1.3-.2-1.7-.2H119l-1.2.1-1.2.2-1 .2-1 .4-.9.5-.7 1-.6 1-.5 1.2-.9 2.4-.4 1.3-.3 1.5-.4 3-.4 1.7-.5 1.4-.6 1.2-.6 1.1-1 1.4-4.1 5.1-1.1 1.5-1 1.4-.8 1.5-.6 1.6-1 2.9-.2 1.2-.5 2.5-.4 1.4-.6 1.8-.4 1-.5.7-.4.8-.5.6-.8 1-1.5 1.7-1.4 1.4-2 1.6-1.6 1.2L85-29l-2.2 1.3-4.6 2.7-1 .6-.8.7-1 .8-.4.5-.7.8-.6.8-.2.4-.1.3v.2l-.7.3-1.3.2H70l-1.6-.2-.4-.1-.8-.3-.4-.2-.8-.5-.4-.4-.4-.4-.4-.6-.1-.4-.1-.4v-1.8l.3-.7.3-.7 1.4-3.2.6-1.8.6-2.3.7-3.4.1-.8v-1.4l-.2-.3-.2-.4-.3-.3-.3-.2-.5-.2-.5-.2h-2.8l-1.8.2-3.6.6-1.8.3-3.9.8-2.8.5-2.4.3h-2.9l-1.8-.2-1.3-.4-1-.4-.5-.5-.7-.6-.4-.7-.4-.8-.2-.8L38-44v-1.5l.2-2 .5-2.8 1-4.7v-1.5l.1-1.1V-59l-.2-3-.5-4.6-.3-3.6v-1.4l-.2-3.8-.2-3.4-.2-1.3-.4-1.7-.6-1.7-.6-1.5-.6-1.4-1.1-2.2-1.1-1.7-.6-.9-.4-.6-1-1.1-.8-1-1.7-1.8-5.1-5.3-1.6-1.7-.8-1-.9-1.2-.6-1.3-.5-1.5v-1.4l.4-1.4.6-1.4.8-1.5 1-1.5.8-1.2 2-2.6 2.6-3.2 1.3-1.6 2.6-2.8 4.2-4.3 7.4-7.4 4.5-4.6 2.8-3 2.8-3 1.3-1.8 1.3-1.7 1.2-1.7 1-2 .9-1.7.7-1.8.6-1.8.5-1.7.3-1.6.2-1.6v-1.4l-.3-1.3-.6-1-1.2-1-1.6-.6-2-.4-1.2-.2h-1.2l-1.7-.1h-3.4l-3.4.1h-.5l6.5-18.6h.7l1-.2 1-.6 1-.7 1-1.2.6-1.2.3-.9v-1l.2-1.5v-1.7l-.5-5.3-.1-2.7v-1.5l.1-1.4.2-1.3.5-1.5.5-.9.6-.8 1.2-1.2.4-.3.8-.5.8-.4 1-.4.9-.3 1-.2 1.3-.2h5l1.3.2 1.3.3 1.3.3 2.3.6 1.1.4 1.1.4 1.2.5 1 .5.4.3 2 1.4 1 .7.6.8.4.8.4.9.5 1.7.5 1.1.4.7.5.7.3.3.5.3.5.2h1.5l1-.1 1.1-.4 1-.5 1.2-.6.6-.5.6-.5.8-.7.7-.7.9-1 .9-1 1.7-2.3 1.3-1.6 1.2-2 1.3-2 .6-1.3 1.6-3 2-3.5.5-1 .5-1.2.4-1.2.2-1.2-.1-1-.2-.6-.4-.9-.5-.7-1.2-1.9-.4-.6v-.4l-.1-.7.3-.9 1.3-2 1.3-2.3 2.4-3.8.3-.6.5-1 .5-1.3.5-1.5.5-1.7.9-3.8.3-1 .4-.8.4-.6.5-.5 1-.7 1-.3.9-.1h.7l.7.3.8.7.5 1 .2.5.2 1 .5 2.5.3 1.1.3 1.2.6 1.5.5 1.1.3.8.8 1.3.9 1 .3.5.6.5 1.5 1 1.8.8 1.9.6 2 .5 2 .4 6.3 1 1.9.3 1.7.3 1.6.5 1.2.6.8.7.3.5v1.6l-.2.5-.2.5-.2.6-.5.8-.5.7-.5.7-1.4 1.5-.9 1.2-.6 1-.2.4-.3.9-.1.7-.2 1v2.5l.1.8.1.8.2.5.3.9.2.5 1.2 2.7.6 1 2.1 3.5 2.1 3.6 1.3 1.8.8 1 2 2.4 1.7 2.2 1 1 .8.8.9.8.6.4.8.5.7.3 1.2.4.7.1 1.4.2h2.9l.9-.2.7-.2.8-.4.6-.4.6-.4.6-.6.4-.6.4-.7.4-1 .3-1.1.3-1.3.4-3.3v-1.7l-.1-1.3-.4-1.1-.3-.5-.2-.5-.6-.6-1.5-1.6-.4-.5-.2-.5v-.7l.3-.5.3-.4 3.1-2.6 1-1 .9-.9 1-1.1.7-1 .7-1 1.7-3 .6-1 .4-.4.3-.4.2-.1.4-.2.7.1.5.3.9.6 1.8 1.5 1.1.7 1.2.4 1 .2 1.5-.1 1.5-.4 2.9-.7.9-.2 1.2-.1h3.5l1.5-.1 3-.4h3.4l.8.2.2.1 1.2.5.7.4.3.3.4.4.5.5.4.8.3.7.2.9.4 1.6.3 1.2.9 2.6.3 1 .1.8.2 1.3.3 3.2.2 1 .3 1.4 1.3 4.5.4 1.5.3 1.6.2 2.8.2 1.2.2 1 .4 1 .7 1.1.7 1 1.1 1 1.5 1 1.2.5 1.2.4 1.3.3 2 .1 2.1-.2 2.2-.3 2.3-.6 2.3-.6 2.4-.8 1.7-.6 2.4-.9 2-.9 2-1 2-1 4.6-2.4"/></defs><g clip-path="url(#pe249002d05)"><use xlink:href="#mabeefc1f83" y="280.5" fill="#0c1321" stroke="#0c1321"/></g></g></g></g><defs><clipPath id="pe249002d05"><path d="M7.2 7.2h278.2v266.1H7.2z"/></clipPath></defs></svg>