<?xml version="1.0" encoding="UTF-8"?>
<!DOCTYPE svg  PUBLIC '-//W3C//DTD SVG 1.1//EN'  'http://www.w3.org/Graphics/SVG/1.1/DTD/svg11.dtd'>
<svg width="371.52pt" height="275.5pt" version="1.1" viewBox="0 0 371.52 275.5" xmlns="http://www.w3.org/2000/svg" xmlns:xlink="http://www.w3.org/1999/xlink">
 <metadata>
  <rdf:RDF xmlns:cc="http://creativecommons.org/ns#" xmlns:dc="http://purl.org/dc/elements/1.1/" xmlns:rdf="http://www.w3.org/1999/02/22-rdf-syntax-ns#">
   <cc:Work>
    <dc:type rdf:resource="http://purl.org/dc/dcmitype/StillImage"/>
    <dc:date>2024-07-04T12:10:42.713160</dc:date>
    <dc:format>image/svg+xml</dc:format>
    <dc:creator>
     <cc:Agent>
      <dc:title>Matplotlib v3.7.1, https://matplotlib.org/</dc:title>
     </cc:Agent>
    </dc:creator>
   </cc:Work>
  </rdf:RDF>
 </metadata>
 <defs>
  <style type="text/css">*{stroke-linejoin: round; stroke-linecap: butt}</style>
 </defs>
 <g id="figure_1">
  <g id="patch_1">
   <path d="m0 275.5h371.52v-275.5h-371.52v275.5z" fill="none"/>
  </g>
  <g id="axes_1">
   <g id="PatchCollection_1">
    <defs>
     <path id="m04f764df7f" d="m208.66-254.32 4.6942 1.9727 8.3398 3.6945 7.3724 3.1505 6.662 2.9153 10.328 4.3721 2.9313 1.2838 1.4491 0.6681 1.4293 0.69681 1.3995 0.7377 1.3559 0.79487 1.2253 0.81504 1.1711 0.87198 1.1129 0.92046 1.0443 0.9647 0.9582 1.0088 0.84568 1.0569 0.69597 1.1135 0.49573 1.1837 0.26228 1.3524 0.034915 1.4312-0.13374 1.4931-0.25788 1.5429-0.34876 1.5844-0.41515 1.6205-0.46372 1.6532-1.0252 3.3949-3.7111 11.579-0.30471 0.98111-0.084442 0.38099-0.22214 0.33675-0.14991 0.76859-0.027182 0.49319 0.014338 0.4729 0.051783 0.45666 0.13165 0.60945 0.13871 0.42776 0.38017 0.85895 0.62097 1.0963 1.1616 1.7755 1.0285 1.4306 0.97598 1.2221 0.89107 0.99518 0.94182 0.88756 0.93188 0.733 1.1187 0.74998 0.86127 0.48024 0.51975 0.24341 0.54994 0.22071 0.62759 0.20473 0.47968 0.12628 0.63891 0.1359 0.60234 0.092622 1.0008 0.06236 0.84786-0.024088 1.394-0.17867 1.4125-0.31395 1.4249-0.40859 1.4332-0.47188 5.7756-2.079 1.4521-0.47499 1.4566-0.41706 1.4628-0.33272 1.1286-0.17885 1.1328-0.097356 1.3331 9.23e-4 1.3369 0.10482 1.3698 0.18948 1.3721 0.25188 1.3741 0.2977 2.1842 0.53537 6.1737 1.6529 3.114 0.78795 2.9974 0.6729 2.3062 0.45448 2.9445 0.52238 4.5684 0.73971 15.402 2.3364-5.8114 17.935-5.7367 17.387-1.4774 4.6344-0.45301 1.5414-0.41586 1.5396-0.36196 1.5374-0.28522 1.5346-0.17783 1.5307-0.029862 1.5254 0.14089 1.4523 0.27743 1.4478 0.3776 1.4448 0.44999 1.443 0.50148 1.4419 0.53748 1.4412 1.1413 2.8795 1.1898 2.8683 1.8432 4.2276 0.6363 1.3637 0.6551 1.3223 0.682 1.2635 0.71997 1.1814 0.77271 1.0683 0.84486 0.91458 0.94207 0.70841 1.0206 0.45357 1.0959 0.28756 2.047 0.35598 0.89671 0.19928 0.85863 0.2982 0.8184 0.44617 0.85552 0.63722 0.33115 0.28714 0.71525 0.70529 0.64518 0.73737 0.86802 1.1266 0.57459 0.80254 1.1976 1.8039 1.7054 2.7173 1.7523 2.4609 0.27686 0.42686 0.35518 0.62435 0.25964 0.54592 0.17342 0.43684 0.21062 0.73511 0.079219 0.78585-0.078825 0.75649-0.17357 0.59476-0.3224 0.71643-0.32352 0.55673-0.3793 0.55675-0.76702 0.95983-1.1467 1.2204-0.9175 0.86687-0.58431 0.51196-0.92934 0.75414-1.1723 0.86641-0.32573 0.09343-4.2221 0.80584-1.5992 0.32907-2.4316 0.55235-1.1298 0.29924-1.0441 0.32633-0.83425 0.3212-0.72805 0.35983-0.59758 0.40863-0.43718 0.4705-0.26034 0.53734-0.13168 0.50327-0.19658 1.0331-0.10395 0.39194-0.13279 0.36284-0.29707 0.56193-0.26526 0.38566-0.53569 0.63735-0.62335 0.62551-0.68725 0.61758-3.042 2.4712-1.3667 1.1807-0.64172 0.62636-0.59667 0.66219-0.67006 0.89599-0.57797 0.95734-0.48321 1.0102-0.32322 0.85836-0.81577 2.6722-0.30463 0.89434-0.42706 1.0358-0.49919 1.0201-0.56388 1.0046-0.62476 0.98784-0.59035 0.8469-1.885 2.5628-0.711 1.0415-0.67426 1.0735-0.62267 1.0969-0.55086 1.1049-0.423 0.99051-0.34241 0.92942-0.2551 0.80497-0.15289 0.59031-0.021817 0.24846-0.29736-0.31144-0.5757-0.53263-0.78459-0.66495-0.65762-0.50959-0.6908-0.48724-0.49886-0.31636-0.50976-0.28085-0.8374-0.3606-1.709-0.59814-4.4084-1.8352-1.3613-0.60541-0.61604-0.30646-0.64301-0.38289-0.54989-0.45384-0.51149-0.53038-1.456-1.7301-0.50539-0.52384-0.81587-0.68992-0.87865-0.65776-0.47548-0.26879-0.51827-0.23868-0.60847-0.2355-1.3049-0.42803-3.5077-1.0594-0.81288-0.21501-0.82185-0.18249-0.83243-0.13356-0.4492-0.04483-0.91617-0.029932-0.92676 0.04384-0.57581 0.060796-0.93585 0.14687-1.6784 0.37948-5.3565 1.5149-0.7176 0.1708-0.87081 0.1703-0.52732 0.074698-0.81442 0.055369-0.74469-0.01346-0.6292-0.06443-0.44975-0.096899-0.18205-0.11668-0.040832-0.005405-0.35316 0.35309-3.2868 4.2032-1.042 1.2611-0.68548 0.76919-0.699 0.70968-1.0044 0.8499-0.62287 0.41203-0.89288 0.44536-0.93112 0.35789-1.5574 0.51702-1.783 0.53039-1.1493 0.30199-1.2928 0.28337-1.0766 0.27373-1.0161 0.31251-1.7129 0.6365-4.4169 1.7617-1.0286 0.45647-0.97272 0.50618-0.50702 0.3102-0.6885 0.50025-0.61419 0.56354-0.58048 0.69566-0.51277 0.75885-1.1324 1.9495-0.57518 1.1899-0.4935 1.17-0.39205 1.0315-0.76983 2.2762-0.37148 1.2261-0.53542 1.9942-0.4116 1.8909-0.41094 2.5729-0.21327 0.73338-0.32715 0.62579-0.2945 0.37708-0.434 0.39577-0.61319 0.36067-0.67581 0.20498-0.31379 0.036386-0.59468-0.004091-0.60119-0.067553-0.91707-0.18082-0.7591-0.20531-0.99305-0.31724-0.42909-0.17058-0.33381-0.15831-0.73096-0.43456-1.6438-1.1218-0.72836-0.44621-0.94259-0.5028-1.4807-0.6311-0.70733-0.23927-0.70357-0.16189-0.81191-0.029404-0.8288 0.2084-0.46571 0.20326-1.8807 0.96286-0.63239 0.24176-0.32197 0.076476-0.28565 0.030108-0.4303-0.034943-0.54641-0.20829-0.5192-0.36918-0.48283-0.49477-0.44593-0.59856-0.39042-0.65872-0.46315-1.013-0.80888-2.3573-0.31289-0.78395-0.33568-0.75171-0.31716-0.64531-0.49181-0.89234-0.71511-1.0699-0.51337-0.64839-1.1434-1.2767-3.8239-3.9666-2.1479-2.3192-1.0408-1.2017-0.998-1.2406-0.93401-1.2915-0.84248-1.3584-0.68521-1.343-0.60666-1.4029-0.55625-1.448-1.6121-4.458-0.59618-1.4555-0.66323-1.3903-0.74802-1.2814-0.74272-1.0206-0.76055-0.86886-0.70914-0.68195-0.56851-0.43917-0.31904-0.10702-0.052778 0.2331-0.12046 0.3153-0.5722 0.96745-0.21721 0.19491-0.54905 0.25853-0.13232 0.15848-0.035041 0.23621 0.055396 0.70125-0.019412 0.10141-0.085253 0.12926-0.11661 0.045824-0.14176-0.008036-0.58019-0.25202-0.23312-0.070219-0.20792-0.018292-0.25201 0.029202-0.31331 0.1051-0.30363 0.17113-0.28504 0.25442-0.097901 0.12779-0.044559 0.10667-0.052901-0.082794-0.073577-0.39076-0.40704-3.584-0.10279-0.66955-0.077514-0.35276-0.20586-0.62097-0.30772-0.5504-0.76914-0.72402-1.0425-0.52898-1.2419-0.37992-1.3811-0.26968-1.4749-0.18976-1.5363-0.13257-1.575-0.091997-3.2102-0.10714-9.6746-0.14142-3.0894-0.11759-1.479-0.10416-1.437-0.15264-1.3789-0.22015-1.2991-0.31278-1.1907-0.43825-1.045-0.6061-0.57607-0.49654-0.50247-0.57081-0.41036-0.58812-0.36966-0.62623-0.47321-0.91908-0.43981-0.99256-0.62408-1.5235-0.66939-1.9294-0.87022-2.9186-0.25818-0.73494-0.30639-0.5278-0.42404-0.38674-0.37468-0.16311-0.43373-0.081639-0.58691-0.003637-0.84247 0.12262-1.4721 0.38868-2.3734 0.68966-1.2105 0.24117-1.2006 0.07319-1.1957-0.14736-2.3989-0.57718-1.2552-0.184-1.2856 0.024324-1.3446 0.20407-1.3926 0.34218-1.4328 0.44792-1.4676 0.52888-1.4989 0.59115-1.5278 0.63942-4.7355 2.1133-9.0171 4.216-1.2328 0.55129-0.070821 0.24528-0.57578 3.4457-0.52457 2.5845-0.31011 1.288-0.32316 1.1736-0.35613 1.1121-0.39378 1.0302-0.35531 0.76907-0.38855 0.68798-0.30172 0.44083-0.53739 0.64473-0.58634 0.51162-0.52331 0.29867-0.5584 0.17612-0.4878 0.0477-0.57355-0.03695-0.47186-0.081069-0.80541-0.20339-0.58437-0.18248-4.6061-1.6294-1.2194-0.35768-1.0955-0.26583-0.77935-0.13725-0.87785-0.083146-2.8669 0.027892-1.1596-0.091806-1.1891-0.18852-1.2051-0.26505-0.71729-0.18632-2.9414-0.89368-1.3285-0.36005-1.3443-0.22651-1.0876-0.039026-1.1033 0.0749-1.3718 0.21642-1.3848 0.31935-1.3947 0.39247-1.1067 0.34629-1.8928 0.64781-1.9454 0.75602-2.0518 0.88805-5.3342 2.4077-2.0675 0.87812-1.0431 0.40933-1.0374 0.3753-1.0295 0.33266-2.9777 0.82554-0.81517 0.26534-1.1691 0.49514-0.51253 0.25983-0.95913 0.58165-0.91596 0.64088-0.89699 0.68168-0.59783 0.52684-0.44011 0.43481-0.85183 1.0267-0.87121 1.3533-0.74674 1.3444-0.38964 0.7725-0.58006 1.2875-0.42481 1.161-0.57796 1.933-0.41101 1.6443-0.28184 1.2616-0.23541 0.85706-0.20425 0.45458-0.055985 0.0587-0.066489 0.009829-0.24488-0.54002-0.59087-1.1626-1.2659-2.1869-0.49088-0.92665-0.41166-0.97322-0.27953-0.90483-0.156-0.707-0.11399-0.78244-0.13397-2.1077-0.2861-3.0788-0.15191-1.2767-0.14616-0.87274-0.18718-0.83699-0.20476-0.74317-0.93997-2.7675-0.53827-2.0771-0.15257-0.48618-0.4362-1.0004-0.42591-0.75819-1.171-1.7853-1.4388-2.3335-0.31968-0.69437-0.078649-0.31507-0.035975-0.42136 0.041137-0.55376 0.061123-0.36632 0.24355-1.1673 0.23959-0.91219 1.6657-5.8227 1.0372-3.2608 0.70961-2.4819 1.4272-4.7216 0.37108-1.3676 0.36436-1.5233 0.64653-3.1938 0.57198-3.3297 0.78643-5.1507 1.063-7.4716 36.492-57.814 9.1085-0.12711 5.1025 0.017824 3.2967 0.11623 1.6113 0.11176 1.5868 0.16284 1.5931 0.22804 1.5724 0.2786 1.5556 0.31492 3.0735 0.69905 4.55 1.1331 12.006 3.0757 6.0804 1.438 6.777 1.484 3.0714 0.61635 3.0875 0.56693 3.3511 0.52271 1.4005 0.18306 2.8228 0.31945 2.6938 0.25326 8.8279 0.71707 3.4053 0.30705 3.4865 0.37266 6.3102 0.73038 2.3108 0.23945 2.1168-5.0624 1.3622-2.9938 0.73374-1.4884 0.77142-1.4558 0.81712-1.4094 0.93194-1.447 0.97794-1.3919 1.0083-1.3474 1.0275-1.3123 1.0388-1.2847 2.0927-2.5098 6.2798-7.293 11.258-12.901 2.5964-3.0574 2.8313-3.4411 0.92028-1.1867 0.8588-1.1879 0.76862-1.1913 0.64041-1.1974 0.4621-1.2067 0.21851-1.22-0.085685-1.282-0.34548-1.2965-0.53425-1.3072-0.66929-1.3149-0.76421-1.3205-0.82963-1.3245-0.87363-1.3274-1.8227-2.6606-6.5668-9.3663-5.684-8.2083-10.002-14.599-1.592-2.3452-0.52459-0.82978 0.031708-0.014928 0.20447 0.054232 0.35658 0.15587 1.3828 0.73276 0.41531 0.11784 0.19081-0.00561 0.17646-0.060384 0.3256-0.24013 0.92375-1.0517 0.34583-0.3255 0.59253-0.3745 1.1918-0.57234 0.42962-0.25361 0.4481-0.37937 0.60513-0.63228 0.16292-0.1242 0.17827-0.09149 0.20829-0.051437 0.46912 0.006038 0.50714 0.099533 0.90669 0.27658 5.9743 1.992 0.95817 0.25704 0.63314 0.096828 0.31477 0.007553 0.32092-0.029862 0.63926-0.14434 0.95801-0.32984 6.291-2.5695 5.2622 2.1085" stroke="#bdc660"/>
    </defs>
    <g clip-path="url(#p8478012da0)">
     <use y="275.501363" fill="#bdc660" stroke="#bdc660" xlink:href="#m04f764df7f"/>
    </g>
   </g>
  </g>
 </g>
 <defs>
  <clipPath id="p8478012da0">
   <rect x="7.2" y="7.2" width="357.12" height="261.1"/>
  </clipPath>
 </defs>
</svg>
