<?xml version="1.0" encoding="UTF-8"?>
<!DOCTYPE svg  PUBLIC '-//W3C//DTD SVG 1.1//EN'  'http://www.w3.org/Graphics/SVG/1.1/DTD/svg11.dtd'>
<svg width="305.09pt" height="280.51pt" version="1.1" viewBox="0 0 305.09 280.51" xmlns="http://www.w3.org/2000/svg" xmlns:xlink="http://www.w3.org/1999/xlink">
 <metadata>
  <rdf:RDF xmlns:cc="http://creativecommons.org/ns#" xmlns:dc="http://purl.org/dc/elements/1.1/" xmlns:rdf="http://www.w3.org/1999/02/22-rdf-syntax-ns#">
   <cc:Work>
    <dc:type rdf:resource="http://purl.org/dc/dcmitype/StillImage"/>
    <dc:date>2024-07-04T12:10:43.333465</dc:date>
    <dc:format>image/svg+xml</dc:format>
    <dc:creator>
     <cc:Agent>
      <dc:title>Matplotlib v3.7.1, https://matplotlib.org/</dc:title>
     </cc:Agent>
    </dc:creator>
   </cc:Work>
  </rdf:RDF>
 </metadata>
 <defs>
  <style type="text/css">*{stroke-linejoin: round; stroke-linecap: butt}</style>
 </defs>
 <g id="figure_1">
  <g id="patch_1">
   <path d="m0 280.51h305.09v-280.51h-305.09v280.51z" fill="none"/>
  </g>
  <g id="axes_1">
   <g id="PatchCollection_1">
    <defs>
     <path id="ma91d88e4e9" d="m159.63-260.41 0.17814 0.5071 0.60044 2.0138 0.46187 1.3313 0.4306 1.0512 0.30346 0.68485 0.32651 0.63415 0.25506 0.43209 0.28314 0.4058 0.3467 0.39385 0.39748 0.34261 0.72105 0.4182 0.82154 0.30239 0.89633 0.21582 0.95139 0.1519 0.99151 0.10532 1.0205 0.071871 2.1316 0.081135 6.6753 0.097575 2.215 0.073928 1.0867 0.063476 1.06 0.09147 1.0177 0.13093 0.95293 0.18607 0.85689 0.26214 0.71931 0.36499 0.5307 0.49956 0.21232 0.37977 0.14204 0.42846 0.053484 0.2434 0.070922 0.46198 0.28085 2.4729 0.050767 0.26962 0.036501 0.057127 0.030745-0.073598 0.06755-0.088175 0.19667-0.17555 0.2095-0.11808 0.21618-0.072517 0.17388-0.020149 0.14346 0.012621 0.16085 0.04845 0.40032 0.17389 0.097815 0.005544 0.080458-0.031618 0.058823-0.089184 0.013394-0.069974-0.038223-0.48385 0.024178-0.16298 0.091298-0.10935 0.37884-0.17838 0.14987-0.13448 0.39481-0.66752 0.083119-0.21755 0.036415-0.16083 0.22013 0.073843 0.39226 0.30302 0.4893 0.47054 0.52477 0.5995 0.51247 0.70423 0.51612 0.88413 0.45762 0.95931 0.41136 1.0043 1.1123 3.076 0.3838 0.99912 0.41859 0.96798 0.47279 0.92666 0.5813 0.93728 0.64445 0.89113 0.6886 0.85599 0.71816 0.82918 1.482 1.6002 2.6384 2.7369 0.78892 0.88094 0.35422 0.44738 0.49342 0.73822 0.33934 0.6157 0.21884 0.44526 0.23162 0.51867 0.21589 0.54091 0.55811 1.6265 0.31957 0.69898 0.26938 0.45451 0.30769 0.413 0.33314 0.34138 0.35824 0.25473 0.37701 0.14372 0.2969 0.02411 0.19709-0.020774 0.22216-0.052767 0.43634-0.16681 1.2977-0.66436 0.32133-0.14024 0.57186-0.14379 0.56021 0.020288 0.48546 0.1117 0.48805 0.16509 1.0216 0.43545 0.65037 0.34692 0.50256 0.30788 1.1342 0.77404 0.50436 0.29984 0.23032 0.10923 0.29607 0.1177 0.68519 0.21889 0.52376 0.14166 0.63276 0.12476 0.41481 0.046611 0.41032 0.002823 0.21651-0.025106 0.4663-0.14143 0.42309-0.24885 0.29945-0.27308 0.2032-0.26018 0.22573-0.43179 0.14715-0.50602 0.28354-1.7753 0.284-1.3047 0.36943-1.376 0.25631-0.84601 0.53117-1.5705 0.27051-0.71174 0.34051-0.80726 0.39687-0.821 0.78133-1.3451 0.3538-0.5236 0.40052-0.48 0.42378-0.38883 0.47506-0.34516 0.34984-0.21404 0.67116-0.34926 0.70974-0.31496 3.0476-1.2155 1.1819-0.43918 0.70113-0.21563 0.74281-0.18887 0.892-0.19552 0.79299-0.20837 1.2302-0.36596 1.0746-0.35674 0.64246-0.24694 0.61608-0.30729 0.42977-0.2843 0.69299-0.58642 0.4823-0.48967 0.47297-0.53073 0.71894-0.87012 2.2678-2.9001 0.24368-0.24363 0.028173 0.003729 0.12561 0.08051 0.31032 0.06686 0.43414 0.044455 0.51382 0.009287 0.56194-0.038204 0.36385-0.05154 0.60084-0.1175 0.49513-0.11785 3.6959-1.0453 1.1581-0.26184 0.64572-0.10134 0.3973-0.041949 0.63945-0.030248 0.63215 0.020652 0.30994 0.030933 0.57437 0.092153 0.56706 0.12591 0.56087 0.14835 2.4202 0.73099 0.90034 0.29533 0.41984 0.16249 0.3576 0.16468 0.32808 0.18546 0.60626 0.45385 0.56294 0.47603 0.34871 0.36144 1.0046 1.1937 0.35292 0.36595 0.37942 0.31314 0.44367 0.26419 0.42506 0.21145 0.93929 0.41772 3.0417 1.2662 1.1792 0.41271 0.5778 0.24881 0.35172 0.19378 0.3442 0.21829 0.47665 0.33618 0.45375 0.35161 0.54135 0.45881 0.39722 0.3675 0.20517 0.21489-0.60266 2.2821-0.13648 0.63413-0.11242 0.72056-0.034457 0.61747 0.043561 0.53172 0.050342 0.23961 0.079133 0.24992 0.099214 0.22231 0.16472 0.26385 0.37364 0.38512 0.46444 0.31518 0.72693 0.35766 0.79632 0.30921 1.6259 0.55994 0.70522 0.27154 0.3815 0.17849 0.34744 0.20248 0.45494 0.3586 0.40648 0.3981 0.45081 0.46585 0.40831 0.46792 0.30403 0.4217 0.7399 1.1341 0.42395 0.70288 0.41991 0.78033 0.40494 0.84053 0.37724 0.88874 0.33956 0.94459 0.27779 0.98122 0.20553 1.0359 0.1403 1.0612 0.091757 1.0782 0.055225 1.0885 0.026804 1.0934 0.003154 1.0934-0.018721 1.0884-0.05293 1.3504-0.13244 1.8498-0.11691 0.99412-0.13307 0.78216-0.21975 0.86312-0.16896 0.48387-0.18265 0.43563-0.4383 0.87284-1.1474 1.9018-0.75541 1.4098-1.6002 2.7203-0.65067 1.1787-0.52411 1.0386-0.79017 1.6777-0.12628 0.29062-0.027713 0.14278-0.045012-0.025769-0.036807 0.011384-0.033532 0.13109 0.098755 0.86535 0.019239 0.3108-0.004576 0.31962-0.066226 0.61909-0.14378 0.53843-0.2305 0.36898-0.21097 0.11486-0.33513-0.017511-0.39698-0.12871-0.48971-0.12778-0.34147-0.034444-0.49015 0.010724-0.5244 0.063129-1.0388 0.19991-0.49378 0.14053-0.61517 0.24604-0.68216 0.40394-0.62112 0.43248-0.40668 0.33429-0.14368 0.15253-0.2095 0.28538-0.10349 0.18967-0.16261 0.44244-0.23439 1.1161-0.16798 0.61096-0.29302 0.53559-0.36923 0.34914-0.47131 0.29428-0.54414 0.26372-1.2712 0.55726-0.78561 0.41097-0.85324 0.53464-1.4464 0.97943-0.43416 0.24531-0.54273 0.23423-0.44831 0.1269-0.27892 0.053155-0.49008 0.057676-1.9741 0.097649-0.90894 0.023553-0.72835 0.069215-0.43165 0.089525-0.43642 0.12688-0.58298 0.21806-0.58673 0.26618-0.60702 0.31583-0.6076 0.34938-0.76443 0.4774-0.73162 0.49024-1.1229 0.80496-1.7228 1.2778-0.93759 0.72417-0.31625 0.26671-1.2632 1.1645-0.59561 0.5015-0.31883 0.23111-0.31996 0.20012-0.29907 0.15761-0.33333 0.14127-0.32506 0.10122-0.23046 0.048319-0.94416 0.11844-0.22617 0.05958-0.2604 0.12338-0.15445 0.114-0.22192 0.22335-0.12414 0.15606-0.20458 0.30389-0.20045 0.3445-0.40987 0.78807-1.2772 2.5854-0.38205 0.70571-0.36357 0.61843-0.66276 1.0025-0.61416 0.84554-0.37495 0.46748-0.3054 0.34792-0.34774 0.35981-0.61305 0.55404-0.44155 0.35015-0.47365 0.34219-0.47531 0.31662-0.90639 0.54302-1.0389 0.53702-0.95425 0.41881-0.61906 0.23342-0.52206 0.17434-0.73323 0.21307-0.53068 0.13259-0.90492 0.18832-0.74684 0.1205-1.3585 0.17718-0.96724 0.15027-0.64552 0.12644-0.63471 0.14973-0.87195 0.25428-0.96911 0.35125-1.4369 0.61554-0.86334 0.40876-1.1265 0.5683-1.7342 0.92735-3.3032 1.8507-2.7447 1.6085-4.6748 2.8195-2.7933 1.6295-0.82804 0.5163-0.79049 0.52378-3.9032 2.7573-0.88904 0.57834-0.83978 0.50282-1.1154 0.61394-1.6627 0.84307-1.7622 0.83979-1.5127 0.68729-1.3849 0.56638-0.65261 0.23068-0.66469 0.20564-1.3504 0.3426-1.5879 0.30733-3.7772 0.55442-0.80205 0.14856-0.86053 0.19413-0.45604 0.123-0.58076 0.18359-0.71749 0.28414-0.33526 0.17225-0.13197 0.085708-0.127 0.12678-0.005989 0.060053 0.25006 0.91922 0.27754 0.86892 0.35161 0.98672 0.41671 1.0339 0.48041 1.0321 0.5495 0.99474 0.40264 0.6217 0.37612 0.5198 0.6431 0.80818 0.67923 0.7833 0.70123 0.76419 2.829 2.9822 0.77492 0.85979 0.98281 1.1728 0.45892 0.60583 0.54594 0.79493 0.51091 0.81706 0.48473 0.83325 0.46555 0.84485 0.48375 0.9151 0.92976 1.847 1.0084 2.1105 0.95724 2.0735 2.5328 5.6446 2.9742 6.9192 0.72082 1.5923 1.673 3.6003 0.34686 0.80055 0.31667 0.80609 0.21191 0.61723 0.18047 0.62381 0.19563 0.92712 0.088415 0.68649 0.054138 1.0438-0.032207 1.25-0.066728 0.93715-0.10677 1.0326-0.14065 1.0301-0.13262 0.7976-0.11932 0.62483-0.22485 0.99643-0.3031 1.1837-0.3793 1.3519-0.17473 0.50642-0.19132 0.44307-0.28366 0.49648-0.30546 0.39513-0.54904 0.5327-0.63795 0.47423-0.34327 0.21662-0.62226 0.34128-0.51179 0.23753-0.75449 0.2889-0.97988 0.2784-0.61018 0.14411-1.0081 0.20247-0.97266 0.15547-1.2225 0.14913-0.91929 0.069452-0.74729 0.028128-0.81354 0.003776-0.78798-0.021145-1.4632-0.09668-0.7476-0.077858-0.18971-0.043273-0.84248-0.11815-0.93812-0.079108-0.33093-0.003923-0.4452 0.026538-0.36087 0.055836-0.59361 0.15893-1.9581 0.68599-1.5251 0.5005-2.2216 0.70398-0.95289 0.28092-0.25701 0.063343-0.86641 0.1467-1.8102 0.18938-0.89857 0.14506-0.86485 0.24912-0.63128 0.29177-0.66721 0.4126-0.63837 0.47306-1.5545 1.2738-0.37626 0.28568-0.5079 0.33744-0.64221 0.34014-1.1777 0.53618-0.71748 0.3476-0.82718 0.44644-1.2934 0.7869-2.9354 1.9254-0.86194 0.53753-1.0733 0.59279-0.35459 0.1639-0.30475 0.11673-0.23329 0.073358-1.4911 0.34554-0.57969 0.17074-1.7738 0.59901-0.89467 0.23973-0.58514 0.12473-0.59777 0.10186-0.38662 0.051849-0.91278 0.079849-0.9094 0.023102-2.277-0.027059-1.0767 0.027154-0.81202 0.044004-0.48315 0.047624-0.20168 0.058482 0.17801 0.11275 0.14481 0.21271 0.13474 0.35183 0.055137 0.25035 0.033025 0.28995 9.12e-4 0.31631-0.056651 0.41316-0.10499 0.34964-0.13518 0.30832-0.17687 0.31759-0.18207 0.2793-0.24292 0.32473-0.2212 0.25823-0.30437 0.31056-0.33936 0.30166-1.1693 0.90416-0.30881 0.27569-0.24246 0.27417-0.15047 0.23346-0.076768 0.16718-0.11179 0.63556 0.063634 0.70944 0.16955 0.75099 0.32278 1.2132 0.10894 0.61638 0.037103 0.60631-0.007572 1.2721 0.016837 0.42142 0.12878 1.5025 0.030531 0.479 3.11e-4 0.46212-0.026333 0.30905-0.12413 0.56902-0.13481 0.38012-0.4208 0.91919-0.16796 0.44726-0.12011 0.61398-0.025174 0.62096 0.034884 0.97662-0.065931 0.46876-0.11384 0.30591-0.17428 0.2967-0.19843 0.24415-0.39504 0.36524-0.47048 0.34357-2.7326 1.661-1.1432 0.67086-0.9112 0.59017-0.58831 0.45746-0.24284 0.22864-0.29112 0.33006-0.36624 0.53535-0.31694 0.55992-1.4843 2.864-0.33256 0.72788-0.14886 0.3898-0.68066 2.3253-0.40505 1.2909-0.30724 0.81042-0.35902 0.78211-0.16506 0.30169-0.31753 0.51144-0.55777 0.77185-0.60952 0.7236-0.46367 0.46905-0.27703 0.25048-0.48372 0.38328-0.31144 0.20821-0.36556 0.20608-0.45877 0.20764-0.57605 0.19738-0.43924 0.10856-0.38522 0.071236-0.53198 0.067596-0.51105 0.035221-0.59771 0.008473-0.66267-0.026181-0.63221-0.053363-0.95116-0.13259-1.6197-0.35591-0.24919-0.041709-0.070258 0.013774-0.35731-0.10508-0.49982-0.21684-0.9963-0.51646-0.71721-0.40639-0.54682-0.34361-0.40004-0.2815-0.50935-0.41602-0.3416-0.32645-0.30227-0.33422-0.27077-0.35481-0.20038-0.3078-0.2224-0.39991-0.33235-0.75323-0.57151-1.5973-0.29285-0.69542-0.25372-0.50015-0.25032-0.41967-0.26337-0.3769-0.24326-0.29949-0.47252-0.49633-0.56627-0.48874-0.43682-0.31458-1.6699-1.102-0.50173-0.37223-0.31847-0.2728-0.40946-0.41171-0.87439-0.97863-0.44629-0.46126-0.93555-0.91343-1.1631-1.0528-1.0769-1.1259-0.55086-0.51641-0.43375-0.34176-0.47409-0.32892-1.0558-0.64247-0.45704-0.30089-0.66699-0.50887-0.60326-0.54406-0.67156-0.70731-0.55118-0.65154-0.57194-0.74792-0.50018-0.72866-0.52197-0.86063-0.38791-0.71999-0.27563-0.65391-0.072587-0.23859-0.013539-0.089007 0.021327-0.038367-0.031825-0.074399-0.12951-0.10489-0.25666-0.1535-0.47002-0.24436-0.89036-0.39577-0.95952-0.34613-0.61482-0.17785-0.66102-0.13078-0.69528-0.073456-0.59815-0.025634-0.96312 0.02443-0.80259 0.083265-3.3845 0.44691-4.2006 0.60457-0.61588 0.044503-0.40486 0.008515-1.465-0.008062-0.40578 0.012803-0.42264 0.060434-0.27394 0.11371-0.16739 0.12862-0.12827 0.15272-0.19796 0.38946-0.10846 0.34912-0.056102 0.24445-0.077734 0.48233-0.03658 0.44828 0.001787 0.53143 0.075702 0.67583 0.16779 0.70206 0.30558 1.0202 0.1341 0.53355 0.079156 0.49549 0.019187 0.3078-0.024906 0.71658-0.15444 1.4507-0.17877 1.9337-0.12051 0.7751-0.15075 0.58579-0.2368 0.63266-0.1544 0.31491-0.16407 0.28352-0.2635 0.37732-0.16028 0.19306-0.26451 0.27245-0.20296 0.1779-0.25511 0.19308-0.2766 0.17778-0.29609 0.15997-0.48048 0.20348-0.37722 0.11675-0.34947 0.075663-0.3539 0.039221-0.29787 0.003839-0.47915-0.036202-0.70902-0.12517-0.55922-0.1585-0.69713-0.25958-0.97142-0.43244-0.78779-0.39357-0.69021-0.38049-1.3569-0.81537-0.82852-0.43687-0.71614-0.31444-0.48643-0.16257-0.31928-0.085165-0.45112-0.092786-0.39345-0.055852-0.91154-0.059997-1.6605 0.017373-1.9149 0.091841-0.71848-0.013959-0.26916-0.02852-0.44236-0.092943-0.22476-0.078355-0.25381-0.12017-0.36845-0.23046-0.83826-0.62288-0.32586-0.1952-0.46857-0.20762-1.0261-0.3914-0.32345-0.16784-0.24242-0.15727-0.28795-0.22804-0.32518-0.3038-0.73477-0.74555-0.60334-0.57032-0.60066-0.50015-0.8943-0.6325-2.1598-1.3777-2.239-1.5126-0.53702-0.43883-0.38533-0.38482-0.43962-0.52644-0.79165-1.0587-0.62816-0.78832-0.56532-0.64421-0.44399-0.43063-0.34572-0.27058-0.23938-0.14753-0.29344-0.12928-0.28096-0.055523-0.12965 0.012009-0.12149 0.062025-0.058671 0.088806 0.019919-0.11509 0.008573-0.28322-0.025256-1.3716-0.16723-2.2923-0.020387-0.83582 0.027381-0.61315 0.11505-0.96058 0.22087-1.2767 0.25832-1.2616 1.5316-6.7766 0.53501-2.446 1.0603-5.1866 0.2575-1.3309 0.19882-1.2197 0.1274-1.0628 0.27847-3.5663-0.10827 0.048923-0.20542-0.03441-0.25796-0.11599-0.27736-0.18398-0.14596-0.12087-0.38782-0.40617-0.28557-0.36581-0.2971-0.42394-0.47437-0.74236-0.46344-0.80623-0.27456-0.52193-0.37963-0.78381-0.48434-1.1429-0.32924-0.91494-0.25409-0.79585-0.78355-2.8144-0.2712-0.86289-0.22091-0.57849-0.35541-0.8277-1.2111-2.6164-0.34053-0.79797-0.42476-1.0718-0.50611-1.4405-1.0819-3.4588-0.51359-1.4922-0.21018-0.55987-0.53243-1.2654-0.26904-0.55948-0.46394-0.86294-0.33193-0.57104-0.71231-1.1574-0.90418-1.3726-0.99877-1.6142-0.3263-0.46253-0.35015-0.41863-0.23924-0.23155-0.29352-0.22093-0.28874-0.16397-0.31836-0.13513-0.2916-0.089055-0.81672-0.16222-0.90606-0.077177-0.33391-0.045601-0.48436-0.11481-0.34473-0.12615-0.25404-0.15814-0.19261-0.20193-0.12955-0.21562-0.05054-0.15003 0.003953-0.1801 0.062354-0.17331 0.026493-0.37409-4.44e-4 -0.72372-0.048621-0.85711-0.095388-0.83973-0.16212-0.91648-0.67715-3.0221-0.17474-0.97043-0.14471-0.97185-0.20955-1.761-0.078476-0.86673-0.067808-1.0419-0.027169-1.0164 0.017587-0.79941 0.064615-0.77425 0.051484-0.36136 0.053718-0.29316 0.23543-0.887 0.33438-0.81609 0.43849-0.72617 0.5557-0.61124 0.47818-0.35479 0.53554-0.29403 0.74651-0.30529 0.80218-0.24559 0.71414-0.17278 0.7364-0.14786 1.5285-0.24668 3.9731-0.53019 1.575-0.25977 0.6882-0.1489 0.66413-0.1841 0.63371-0.23306 0.75029-0.37985 0.79054-0.53402 0.62756-0.52864 0.58612-0.59207 0.39235-0.47095 0.33324-0.4769 0.32457-0.57333 0.56833-1.1592 0.73824-1.409 0.25569-0.61734 0.90768-2.558 0.27944-0.69551 0.25055-0.56836 0.49325-0.96558 0.90557-1.5286 0.52368-0.97193 0.30389-0.70924 0.26872-0.73313 0.58043-1.7235 0.249-0.66032 0.29169-0.65615 0.38626-0.71189 0.44415-0.69897 0.55461-0.77925 0.4843-0.6344 1.8172-2.3067 0.2291-0.32689 0.18381-0.29968 0.057975-0.19739 0.15807-0.26573 0.12878-0.5973 0.070137-0.79553-0.0235-0.90019-0.15097-0.9401-0.2445-0.79667-0.32648-0.79245-1.0205-2.179-0.28076-0.66791-0.32327-0.84886-0.26774-0.78649-0.26159-0.8678-0.28125-1.1327-0.13489-0.74361-0.10594-1.0036-0.017564-0.34385 0.003884-1.1474 0.053429-0.73198 0.073073-0.51562 0.17568-0.79631 0.2251-0.73045 0.33871-0.88714 1.2511-2.8924 0.58295-1.4709 0.33819-0.98942 0.27183-0.89327 0.677-2.491 0.22752-0.75348 0.2352-0.6464 0.2956-0.61925 0.15324-0.24203 0.16544-0.20223 0.2664-0.22175 0.43676-0.17133 0.39556-0.033762 0.41056 0.045096 0.41996 0.11394 0.30678 0.1238 0.65032 0.33896 0.52393 0.23672 0.53771 0.14345 0.52102-0.01679 0.3318-0.13753 0.29711-0.2376 0.22168-0.27478 0.21679-0.37441 0.17769-0.42681 0.12836-0.42031 0.82015-3.6468 0.25372-1.4102 0.03262-0.3491-0.011458-0.078375 0.32048-0.24675 0.041518-0.060529 0.07137-1.28e-4 0.11196 0.064607 0.13126 0.12267 0.33703 0.44077 0.8357 1.3092 0.225 0.30764 0.23553 0.26241 0.25265 0.20021 0.15009 0.078984 0.265 0.089787 0.27098 0.047171 0.27505 0.017928 0.48869-0.012323 0.21355-0.041336 0.17145-0.070398 0.23271-0.14415 0.35553-0.28058 0.2635-0.23551 0.30112-0.31255 1.1956-1.4396 1.6898-2.1687 0.55468-0.6843 0.44212-0.4975 0.51571-0.53297 0.99837-0.94349 1.0178-0.88732 1.0004-0.8244 1.726-1.3656 0.2892-0.26606 0.22606-0.29533 0.41077-0.65022 0.3608-0.63359 0.75674-1.4172 0.75195-1.2453 0.30774-0.59183 0.73052-1.5885 0.26135-0.51659 0.68478-1.1936 0.44974-0.83632 0.55663-1.1523 0.34061-0.75334 0.32247-0.79051 0.62329-1.6397 0.46594-1.0751 0.44654-0.88667 1.0115-1.8497 0.31341-0.62612 0.23728-0.52995 0.45072-1.1964 0.15904-0.50506 0.12046-0.48315 0.07528-0.41749 0.046767-0.39496 0.072195-1.0826 0.058539-0.58758 0.10392-0.599 0.17682-0.75501 0.1399-0.53438 0.1391-0.44265 0.17593-0.43283 0.30688-0.64671 0.13631-0.33621 0.056087-0.21942 0.002137-0.060866-0.019981-0.041234 0.045876-0.006782 0.038629-0.040501 0.14093-0.31365 0.16243-0.59136 0.19446-0.87046 0.28359-1.1345 0.39879-1.3337 0.29311-0.80104 0.40023-0.88834 0.26884-0.53302 0.51524-0.92763 0.60112-0.93374 0.58775-0.7084 0.30367-0.30001 0.4125-0.36351 0.61891-0.47035 0.632-0.4422 0.66179-0.40133 0.35364-0.17928 0.80664-0.34164 0.56246-0.18308 2.0546-0.56961 0.71033-0.22953 0.71577-0.25895 0.7197-0.28243 1.4265-0.60589 3.6805-1.6613 1.4157-0.61274 1.3423-0.52165 1.306-0.44698 0.76358-0.23893 0.9623-0.2708 0.95546-0.22034 0.94651-0.14932 0.76124-0.051679 0.75042 0.026927 0.92752 0.15629 0.91662 0.24843 2.0295 0.61663 0.49492 0.12856 0.83149 0.18288 0.82044 0.13008 0.8001 0.063344 1.9781-0.019244 0.6057 0.057369 0.53774 0.0947 0.7559 0.18342 0.84135 0.24679 3.1781 1.1242 0.40321 0.12591 0.55572 0.14034 0.32558 0.055937 0.39574 0.025495 0.33657-0.032913 0.38529-0.12152 0.36107-0.20608 0.40457-0.35301 0.37079-0.44486 0.20818-0.30416 0.26809-0.4747 0.24516-0.53065 0.2717-0.71083 0.24573-0.76734 0.22298-0.80973 0.21397-0.8887 0.36195-1.7833 0.39728-2.3775 0.048865-0.16924 0.85059-0.38038 6.2216-2.909 3.2674-1.4581 1.0542-0.44119 1.0342-0.40788 1.0126-0.36492 0.9886-0.30906 0.96087-0.2361 0.92772-0.1408 0.88703-0.016784 0.86606 0.12696 1.6552 0.39825 0.82501 0.10168 0.8284-0.0505 0.83522-0.1664 1.6376-0.47585 1.0157-0.26818 0.58129-0.084608 0.40496 0.00251 0.29926 0.056329 0.25852 0.11254 0.29258 0.26685 0.2114 0.36418" stroke="#bdc660"/>
    </defs>
    <g clip-path="url(#p4657efe35e)">
     <use y="280.512" fill="#bdc660" stroke="#bdc660" xlink:href="#ma91d88e4e9"/>
    </g>
   </g>
  </g>
 </g>
 <defs>
  <clipPath id="p4657efe35e">
   <rect x="7.2" y="7.2" width="290.69" height="266.11"/>
  </clipPath>
 </defs>
</svg>
