<?xml version="1.0" encoding="UTF-8"?>
<!DOCTYPE svg  PUBLIC '-//W3C//DTD SVG 1.1//EN'  'http://www.w3.org/Graphics/SVG/1.1/DTD/svg11.dtd'>
<svg width="248.07pt" height="280.51pt" version="1.1" viewBox="0 0 248.07 280.51" xmlns="http://www.w3.org/2000/svg" xmlns:xlink="http://www.w3.org/1999/xlink">
 <metadata>
  <rdf:RDF xmlns:cc="http://creativecommons.org/ns#" xmlns:dc="http://purl.org/dc/elements/1.1/" xmlns:rdf="http://www.w3.org/1999/02/22-rdf-syntax-ns#">
   <cc:Work>
    <dc:type rdf:resource="http://purl.org/dc/dcmitype/StillImage"/>
    <dc:date>2024-07-04T12:10:41.800336</dc:date>
    <dc:format>image/svg+xml</dc:format>
    <dc:creator>
     <cc:Agent>
      <dc:title>Matplotlib v3.7.1, https://matplotlib.org/</dc:title>
     </cc:Agent>
    </dc:creator>
   </cc:Work>
  </rdf:RDF>
 </metadata>
 <defs>
  <style type="text/css">*{stroke-linejoin: round; stroke-linecap: butt}</style>
 </defs>
 <g id="figure_1">
  <g id="patch_1">
   <path d="m0 280.51h248.07v-280.51h-248.07v280.51z" fill="none"/>
  </g>
  <g id="axes_1">
   <g id="PatchCollection_1">
    <defs>
     <path id="m92f43b5c32" d="m108.78-257.59 0.50056 0.033264 0.56752-0.013314 0.95637-0.076584 2.169-0.23795 0.852-0.045448 0.80134 0.00843 0.67913 0.0487 0.58177 0.068266 1.302 0.2288 1.9622 0.43578 0.50393 0.093423 0.62783 0.087742 0.71335 0.044801 0.85737-0.031478 0.78576-0.10021 0.60048-0.11749 1.0131-0.2635 1.0908-0.34295 0.59647-0.21412 0.46979-0.20821-0.004238 0.1931 0.054189 0.16086 0.1389 0.23118 0.20652 0.21651 0.27238 0.16956 0.36962 0.13525 0.51932 0.1231 0.35802 0.048894 0.97148 0.082749 0.87568 0.17394 0.31265 0.095485 0.34134 0.14488 0.30958 0.17581 0.31471 0.23688 0.25651 0.24827 0.37543 0.44886 0.34986 0.49592 1.0709 1.7307 0.96946 1.4717 0.76374 1.2409 0.35589 0.61227 0.49743 0.92524 0.28846 0.59987 0.57087 1.3568 0.22535 0.60029 0.55067 1.6 1.16 3.7085 0.54265 1.5445 0.45542 1.1492 0.36512 0.85558 1.2986 2.8053 0.38107 0.88746 0.23686 0.62025 0.29078 0.92519 0.84012 3.0176 0.27244 0.85331 0.35302 0.981 0.51931 1.2255 0.40704 0.8404 0.29438 0.55961 0.4969 0.86444 0.50862 0.79596 0.31855 0.45455 0.30619 0.39222 0.41582 0.4355 0.1565 0.12959 0.29738 0.19726 0.27658 0.12436 0.22025 0.036895 0.11608-0.052456-0.29857 3.8238-0.1366 1.1396-0.21318 1.3077-0.2761 1.427-1.1368 5.5611-0.57364 2.6226-1.6422 7.2659-0.27697 1.3527-0.23681 1.3689-0.12336 1.0299-0.029357 0.65742 0.021858 0.89617 0.1793 2.4578 0.02708 1.4706-0.009193 0.30367-0.021357 0.1234 0.062908-0.095218 0.13026-0.066503 0.13901-0.012876 0.30124 0.059532 0.31462 0.13862 0.25666 0.15818 0.37068 0.29012 0.47604 0.46172 0.60614 0.69072 0.67352 0.84524 0.8488 1.1351 0.47136 0.56444 0.41315 0.4126 0.57579 0.47051 2.4006 1.6218 2.3157 1.4772 0.95886 0.67816 0.64402 0.53626 0.6469 0.6115 0.78782 0.79938 0.34866 0.32573 0.30874 0.2445 0.25992 0.16863 0.3468 0.17996 1.1002 0.41966 0.5024 0.22262 0.34938 0.20929 0.89878 0.66786 0.39506 0.2471 0.27214 0.12885 0.24099 0.084012 0.4743 0.099654 0.28859 0.030578 0.77035 0.014968 2.0531-0.098472 1.7803-0.018628 0.97735 0.064328 0.42186 0.059885 0.48369 0.099485 0.34234 0.091315 0.52155 0.17431 0.76784 0.33714 0.88834 0.46841 1.4548 0.87424 0.74005 0.40796 0.84466 0.42198 1.0416 0.46366 0.74746 0.27833 0.59959 0.16994 0.76021 0.13421 0.51374 0.038815 0.31938-0.004115 0.37945-0.042054 0.3747-0.081125 0.40446-0.12518 0.51517-0.21817 0.31747-0.17152 0.29656-0.19061 0.27352-0.20701 0.21761-0.19075 0.28361-0.29212 0.17186-0.20699 0.28253-0.40456 0.17592-0.30399 0.16555-0.33765 0.25389-0.67833 0.16164-0.62808 0.12921-0.83106 0.19168-2.0733 0.16559-1.5555 0.026704-0.76832-0.020572-0.33002-0.084872-0.53126-0.14378-0.57207-0.32764-1.0939-0.1799-0.75275-0.081167-0.72462-0.001916-0.5698 0.03922-0.48064 0.083347-0.51716 0.060152-0.2621 0.11629-0.37433 0.21225-0.41758 0.13753-0.16374 0.17947-0.1379 0.29372-0.12192 0.45316-0.064798 0.43507-0.013727 1.5708 0.008644 0.43409-0.009129 0.66035-0.047717 4.5038-0.64822 3.6289-0.47918 0.86053-0.089276 1.0327-0.026194 0.64134 0.027485 0.74548 0.078759 0.70874 0.14022 0.65921 0.19069 1.0288 0.37112 0.95465 0.42434 0.50396 0.262 0.27519 0.16458 0.13886 0.11246 0.034122 0.07977-0.022867 0.041138 0.014517 0.095432 0.077827 0.25581 0.29553 0.70113 0.41592 0.77197 0.55965 0.92276 0.53629 0.78127 0.61324 0.80192 0.59097 0.69858 0.72005 0.75838 0.64681 0.58335 0.71514 0.54561 0.49004 0.32261 1.132 0.68885 0.50832 0.35267 0.46507 0.36644 0.59063 0.55369 1.1547 1.2072 1.2471 1.1288 1.0031 0.97938 0.47852 0.49457 0.93752 1.0493 0.43902 0.44143 0.34147 0.29249 0.53795 0.3991 1.7905 1.1816 0.46836 0.3373 0.60716 0.52403 0.50664 0.53217 0.26083 0.32111 0.28238 0.40411 0.26839 0.44997 0.27204 0.53626 0.31399 0.74563 0.61278 1.7126 0.35634 0.80761 0.23846 0.42878 0.21485 0.33002 0.29032 0.38043 0.3241 0.35835 0.36627 0.35002 0.54613 0.44606 0.42892 0.30183 0.5863 0.36842 0.76899 0.43573 1.0682 0.55375 0.53591 0.23249 0.38311 0.11266-0.10584 0.4388-0.12244 0.73811-0.039774 0.52428 0.02143 0.25525 0.039893 0.16324 0.15983 0.32174 0.23144 0.29538 0.52147 0.589 0.21645 0.33423 0.13704 0.34655 0.085993 0.37988 0.045728 0.40249 0.013325 0.41636-0.013932 0.42294-0.038491 0.42318-0.062609 0.41756-0.088432 0.40609-0.11807 0.38837-0.1349 0.34091-0.31525 0.71956-0.3554 0.68996-0.20032 0.31546-0.22153 0.28393-0.74554 0.74776-0.23636 0.33614-0.204 0.38293-0.1799 0.41848-0.3119 0.9116-0.40725 1.4829-1.6259 6.6609 0.013602 0.29663-0.17676 0.43571-0.33646 0.49011-0.4848 0.46884-0.59457 0.38247-0.69503 0.32988-1.5717 0.64307-1.0274 0.48332-1.0404 0.5561-1.0424 0.60742-1.0382 0.63984-3.0683 1.9711-2.0056 1.2417-0.99252 0.56276-0.98642 0.50254-0.9806 0.42074-0.72821 0.2453-0.70148 0.16924-0.69654 0.085595-0.80032-0.015734-0.79776-0.097985-1.6009-0.23958-0.80936-0.042535-0.89128 0.077609-0.627 0.13095-0.387 0.11139-0.4729 0.16823-0.60126 0.26506-0.50567 0.26828-0.41426 0.25345-0.42267 0.2937-0.54153 0.43099-0.77166 0.71583-0.76984 0.80077-0.47042 0.52248-1.14 1.3921-0.93371 1.237-0.98486 1.3653-1.2741 1.8021-1.0156 1.4965-0.51575 0.82271-0.38226 0.7411-0.14692 0.40942-0.081335 0.42629-6.12e-4 0.27686 0.06887 0.33846 0.14018 0.32386 0.20332 0.31039 0.502 0.56433 0.66398 0.63565 1.1018 1.0002 0.21552 0.20963 0.5319 0.58232 0.49293 0.67002 0.41668 0.68222 0.25452 0.47443 0.4552 0.95681 0.2736 0.52715 0.28244 0.4845 0.32634 0.50121 0.49398 0.63939 0.38902 0.40963 0.53067 0.46842 0.4294 0.32675 0.69067 0.4473 0.41662 0.22767 0.35953 0.16903 0.53206 0.19485 0.32488 0.089826 0.63969 0.12015 0.79941 0.074446 1.3759 0.056324 0.90185 0.006756 1.9819-0.027674 0.97333 0.019154 0.35792 0.023452 0.80495 0.10504 0.61116 0.14853 0.33902 0.11795 0.31636 0.14069 0.33762 0.19229 0.26639 0.189 0.22182 0.1853 0.29677 0.29104 0.32233 0.37866 0.29466 0.41238 0.4678 0.8207 0.23469 0.51682 0.20498 0.53716 0.24582 0.82522 0.15185 0.74772 0.08471 0.70346 0.028125 0.59228-0.002648 0.35897-0.025542 0.47325-0.12453 1.0969-0.19282 1.1158-0.24132 1.1276-0.27504 1.1337-0.6098 2.2645-1.2977 4.4736-0.23686 0.96907-0.13289 0.83234-0.24223 2.4382-0.16177 1.0608-0.20068 0.8801-0.16971 0.56599-0.57627 1.5189-0.28561 0.82042-0.22853 0.79413-0.15159 0.7168-0.050471 0.5706 0.033489 0.25749 0.091548 0.11679-3.1696 1.2193-1.526 0.60821-1.5457 0.64106-1.4966 0.64818-1.4381 0.66472-0.69406 0.34615-0.67439 0.36182-0.65107 0.38426-0.62259 0.41544-0.5581 0.42865-0.54268 0.47076-1.0256 1.0086-1.4583 1.6011-2.3776 2.7334-1.5826 1.7769-1.8319 1.9747-1.7856 1.871-1.0637 1.0514-0.8203 0.74584-0.58929 0.47773-0.42655 0.29838-0.51444 0.29128-0.39034 0.16462-0.18184 0.058255-0.69996 0.12138-0.72152-6.71e-4 -0.70417-0.087893-0.63194-0.13818-0.4792-0.14274-0.20782-0.085882-0.23248-0.047198-2.5551-0.77178-1.1258-0.31118-2.6727-0.66623-1.4703-0.32555-0.87163-0.16752-1.3902-0.20395-0.53632-0.047006-0.59285-0.02061-0.67735 0.032588-0.47018 0.06753-0.59894 0.13821-0.49956 0.15565-0.38591 0.14439-0.54393 0.24052-0.37375 0.19173-0.47643 0.27902-0.35049 0.23412-0.40117 0.30534-0.43517 0.39105-0.24756 0.26085-0.31659 0.39287-0.30812 0.47522-0.24578 0.45803-0.27413 0.59473-0.53789 1.2969-0.32056 0.70906-0.49839 0.88799-0.54963 0.72955-0.63972 0.68062-0.68161 0.61707-0.73206 0.58743-0.69302 0.50836-1.3327 0.89155-1.4578 0.89058-4.0331 2.3647-1.4427 0.90147-0.84588 0.5659-1.2605 0.92783-0.56864 0.46619-0.46725 0.41712-0.441 0.43411-0.40106 0.44507-0.36425 0.4699-0.41715 0.66087-0.27322 0.51868-0.24773 0.53782-0.35044 0.88572-0.37147 1.1026-0.89634 2.9992-0.30605 0.95081-0.61046 1.7067-0.52642 1.2506-0.41855 0.87412-0.27114 0.51236-0.35041 0.60024-0.59031 0.87068-0.32256 0.40789-0.29535 0.33559-0.28682 0.29387-0.3788 0.34382-0.41365 0.32532-0.53291 0.354-0.37482 0.21292-0.66964 0.32461-1.0737 0.41096-0.66488 0.20233-1.0414 0.24471-0.46537 0.073295-0.43066 0.033284-0.29314-0.023672-0.10232-0.096431 0.45939-0.53168 0.69654-0.89402 0.54558-0.76264 0.72743-1.1156 4.4003-7.1226 1.2552-2.0773 0.67992-1.1721 0.80477-1.4877 0.42134-0.86967 0.26059-0.6047 0.21453-0.58577 0.13792-0.48682 0.084338-0.46704 0.021156-0.3188-0.00682-0.20654-0.044908-0.29338-0.078177-0.24763-0.19626-0.35764-0.43344-0.47307-0.63354-0.45873-0.39859-0.22604-0.42847-0.21093-0.54793-0.23519-0.5773-0.21594-1.1892-0.36533-0.90541-0.22405-0.66967-0.14179-1.8828-0.34089-3.2011-0.47686-0.52135-0.092802-0.85461-0.19022-0.54992-0.16842-0.32741-0.12965-0.35722-0.18054-0.3759-0.25941-0.27706-0.26612-0.22596-0.27729-0.23165-0.34054-1.5425-2.6249-0.41932-0.80915-0.8216-1.7325-1.1797-2.3968-0.24672-0.54144-0.09238-0.25613-0.33953 0.085993-0.8747 0.30773-1.4594 0.5934-0.81479 0.37538-1.7381 0.85816-1.3751 0.64254-1.9951 0.8785-1.5272 0.62784-1.5704 0.59032-1.0609 0.34802-0.68205 0.19476-1.6004 0.38451-2.8287 0.59976-0.85971 0.15822-0.93628 0.11389-0.67116 0.031522-1.0074-0.030883-0.62928-0.056228-3.2918-0.45074-1.1239-0.11826-0.73685-0.046007-0.74032-0.020068-0.70906 0.004456-0.71127 0.028787-1.1758 0.10632-0.6893 0.09995-0.53141 0.09952-1.0463 0.24433-4.404 1.2619-1.8001 0.48421-2.7605 0.70413-0.6548 0.19656-0.11057 0.053339-0.10887-0.10284-0.11704-0.22957-0.17666-0.45694-0.15684-0.48967-0.29929-1.2429-0.73693-3.4933-0.1379-0.56359-0.3669-1.3501-0.21788-0.68121-0.40358-0.95431-0.51262-0.91523-0.39385-0.57712-0.49715-0.6515-1.346-1.6716-0.84129-1.1215-0.70664-1.0271-1.1745-1.8519-0.40028-0.55583-0.398-0.46328-0.4898-0.46123-0.56925-0.42824-0.77989-0.47226-0.4531-0.22198-0.46624-0.18925-1.463-0.46993-2.357-0.66778-0.9245-0.20984-0.79923-0.14236-0.86915-0.10719-0.63836-0.044639-1.9068 0.012221-0.9252-0.036559-0.94872-0.065913-1.2611-0.12918-1.9991-0.29385-0.75768-0.078332-0.49356-0.02229-0.47825 0.002648-0.71371 0.05187-0.62786 0.089235-0.6589 0.13852-0.3013 0.086449-0.36663 0.13088-0.35196 0.15741-0.33516 0.18627-0.22236 0.14844-0.48349 0.40612-0.46247 0.4893-1.1947 1.4975-0.58158 0.64321-0.33564 0.31303-0.4268 0.34314-0.43847 0.2933-0.27245 0.15326-0.47989 0.21869-0.29142 0.10617-0.46182 0.12735-0.85214 0.17121-0.46019 0.067239-0.4031 0.025039-0.25503-0.007387-0.37532-0.048008-0.44901-0.10264-0.60893-0.1864-1.337-0.48221-0.59555-0.25781-0.5784-0.28515-0.8977-0.52458-0.79409-0.54396-0.80466-0.65192-0.68294-0.62913-1.3323-1.2901-0.54783-0.49739-0.5649-0.46129-0.53512-0.37312-0.56285-0.31387-0.25673-0.11488-0.57672-0.20307-0.63639-0.15473-0.48085-0.079951-1.2353-0.11721-1.2376-0.070378-1.0588-0.08402-0.9832-0.13453-0.56903-0.1096-0.94033-0.24275-0.47675-0.15992-0.60486-0.25686-0.44682-0.26405-0.286-0.25921-0.16458-0.25294-0.053067-0.14739-0.03047-0.18126 1.57e-4 -0.16068 0.043438-0.26822 0.21794-0.63576 0.7272-1.6242 0.41636-0.99224 0.10052-0.33017-0.064137-0.2575 0.22564 0.093957 0.35321-0.00457 0.51356-0.10458 0.44611-0.16518 0.59982-0.32981 0.59174-0.44658 0.47048-0.45015 0.25954-0.29122 0.28814-0.36751 0.46037-0.70939 0.26822-0.49513 0.88817-1.8189 0.27457-0.48203 0.26522-0.40301 0.50983-0.63665 0.42219-0.43209 0.52287-0.44385 0.47949-0.32896 0.43788-0.24463 0.46397-0.21948 0.42699-0.17581 0.53167-0.18407 0.88891-0.23623 1.6805-0.37977 0.81376-0.22471 0.63476-0.21999 0.40855-0.16964 0.63964-0.30329 1.9485-1.0737 0.79995-0.40427 0.8283-0.38952 0.77158-0.32948 1.0776-0.42504 1.469-0.51776 2.2346-0.81988 0.83395-0.36785 0.77511-0.37006 1.1447-0.61513 1.2313-0.72596 2.3335-1.555 2.0254-1.2728 0.51262-0.37124 0.71149-0.60898 0.28047-0.2889 0.19127-0.22707 0.26042-0.38087 0.16479-0.33182 0.072133-0.19903 0.084639-0.33441 0.065575-0.54348-0.00272-0.70524-0.21917-2.2486-0.028596-0.53086-0.002039-0.51502 0.054719-0.71232 0.17694-1.3926 0.035703-0.67684-0.023806-0.45707-0.076169-0.52086-0.086355-0.33884-0.22799-0.62545-0.52257-1.2002-0.15215-0.49054-0.060353-0.33179-0.036055-0.4543-0.002523-0.36848 0.081212-1.7033 0.009289-0.53079-0.04067-0.97276-0.11032-1.6162-0.10903-0.91131-0.24772-0.90486-0.21829-0.47784-0.2772-0.47836-0.56957-0.80382-0.40357-0.50359-2.3754-2.7926-0.73773-0.9664-0.12547-0.20863-0.007513-0.06831 0.069938 0.009183 0.38126-0.16397 0.37086-0.20163 0.58537-0.35416 1.0137-0.68545 0.68462-0.51121 0.58375-0.47068 0.65034-0.56933 0.64652-0.61895 0.53943-0.56104 0.65394-0.74227 0.43477-0.53909 0.47353-0.63946 0.33187-0.48945 0.3341-0.53974 0.30323-0.54557 0.2541-0.51026 0.42092-0.96931 1.1044-2.9411 0.29246-0.63508 0.32504-0.55772 0.45993-0.53352 0.39604-0.26292 0.42674-0.14603 0.32801-0.036909 0.34188 0.0083 0.52366 0.064679 0.54684 0.12486 0.18587 0.056292 0.71614 0.28355 0.5948 0.3416 0.50327 0.34249 0.44085 0.32763 0.42756 0.34141 0.58264 0.51191 0.43019 0.41857 0.46073 0.48882 0.61726 0.74787 0.41834 0.63071 0.19997 0.39322 0.12134 0.31981 0.137 0.67601 0.022424 0.76696-0.061396 0.80624-0.18251 1.6167-0.019371 0.39126 0.006522 0.38054 0.055598 0.46866 0.1809 0.63815 0.19875 0.35815 0.22858 0.28294 0.27304 0.26978 0.68513 0.57699 0.45353 0.33963 0.92837 0.62746 0.61415 0.36887 0.45988 0.2488 0.51673 0.25094 0.52641 0.22278 0.89601 0.29087 0.7126 0.13269 0.69334 0.033206 0.50518-0.053126 0.44017-0.11627 0.61729-0.29613 0.66353-0.49353 0.36941-0.35365 0.33956-0.37657 0.52844-0.69507 0.32602-0.5216 0.096548-0.19203 0.022902-0.12329 0.73305-0.038156 1.9402-0.007972 2.6117-0.051317 1.4959 0.017329 1.0497 0.049438 0.93654 0.10804 0.59794 0.10421 2.0538 0.4369 1.4709 0.27888 1.5176 0.32672 0.59343 0.081629 0.38097 0.026429 0.58782-0.007039 0.66521-0.063785 0.4428-0.067032 1.0499-0.21572 0.49333-0.063472 0.49269-0.012878 1.6085 0.17647 0.45536 0.003185 0.44126-0.029627 0.70958-0.099321 0.75945-0.17024 0.48294-0.15085 0.29589-0.1146 0.31473-0.14962 0.28754-0.17498 0.24261-0.19622 0.22846-0.28589 0.08164-0.20444 0.034571-0.19996 0.021436-0.55138 0.079048-0.35689 0.11027-0.21414 0.15683-0.20744 0.23953-0.23949 0.71756-0.62092 0.61308-0.488 0.78093-0.53007 0.61447-0.33355 0.37458-0.16372 0.51785-0.17913 0.94075-0.29088 0.41225-0.1814 0.18346-0.12274 0.026544-0.054841-0.097018-0.30646-0.21082-1.0089-0.36196-1.9196-0.26369-1.5614-0.091732-0.66096-0.072506-0.70555-0.031478-0.57606 0.010942-0.79901 0.09909-0.9001 0.23892-1.5711 0.19087-1.4294 0.19772-1.1308 0.14586-0.56434 0.30428-0.78659 0.35808-0.61051 0.28659-0.39548 0.45635-0.55634 1.3091-1.4282 0.71896-0.72093 0.41433-0.37485 0.43277-0.34927 0.30307-0.21578 0.41563-0.25741 0.7693-0.37961 0.80818-0.29376 0.87542-0.21918 0.50223-0.085426 0.74606-0.085269 0.73773-0.051478 0.87332-0.033174 0.81328 0.009219 0.62475 0.043783 1.2434 0.15016 0.55701 0.03236 0.63236-0.017435 0.53867-0.061418 0.59814-0.13766 0.6184-0.23929 0.67602-0.3664 0.61175-0.43085 0.53736-0.46173 0.1995-0.20583 0.32212-0.3875 0.75618-1.0425 0.14702-0.24017 0.25057-0.47837 0.58172-1.2215 0.28411-0.64429 0.52047-1.2877 0.36604-0.97259 0.49125-1.3991 0.23108-0.71079 0.28106-1.053 0.12985-0.67073 0.069859-0.50175 0.065403-0.98331-0.010928-0.59874-0.053958-0.59331-0.14894-0.83304-0.25582-0.98757-0.22117-0.71023-1.2579-3.7609-0.92302-2.9037-0.25074-0.64773-0.29019-0.59812-0.3656-0.60372-0.31278-0.43262-0.54651-0.65465-2.1466-2.3336-1.8816-1.92-0.49107-0.56172-0.42436-0.59133-0.20969-0.3615-0.3523-0.79995-0.1242-0.46306-0.054981-0.46057 0.004616-0.30009 0.076489-0.51239 0.1756-0.55702 0.10669-0.2383 0.14385-0.25196 0.12756-0.15741 0.11253-0.0694-0.37153-1.0965-0.41746-0.99321-0.12329-0.23773-0.21462-0.34449-0.34156-0.40547-0.21149-0.19329-0.24938-0.19221-0.42321-0.27574-0.48837-0.28288-0.94361-0.5028-1.6062-0.75579-0.87677-0.45938-0.39072-0.23558-0.48498-0.33291-0.53579-0.44147-0.52288-0.54428-0.57098-0.75284-0.4509-0.70015-0.9735-1.6626-0.31562-0.47043-0.40772-0.47332-0.35316-0.31885-0.53519-0.39102-0.76712-0.48009-1.6574-0.95072-0.97799-0.5211-1.1333-0.5491-0.70011-0.29575-0.49764-0.17015-0.585-0.13078-0.28792-0.031375-0.53284 0.001188-0.36428 0.045012-0.42019 0.095847-0.40271 0.13407-0.49133 0.21519-0.69528 0.39116-0.48474 0.32258-0.78743 0.57981-2.0935 1.6601-3.504 3.1258-0.45008 0.38664-0.73259 0.58069-0.94588 0.6442-0.68151 0.40859-0.43574 0.23291-0.86498 0.42018-1.8783 0.84452-0.59296 0.24769-0.35524 0.11926-0.28069 0.071766-0.33921 0.057906-0.37517 0.029696-0.3626-4.4e-4 -0.61767-0.054259-0.34309-0.055582-1.1844-0.25483-0.6295-0.082543-0.34665-0.005281-0.39361 0.028496-0.41935 0.063152-0.70814 0.15736-0.78464 0.21728-0.66498 0.20697-2.4676 0.84301-0.42404 0.12972-0.42009 0.10685-0.51905 0.091199-0.53157 0.038011-0.48456-0.017023-0.72649-0.1097-0.67882-0.18356-0.39172-0.14212-0.7359-0.31895-2.6649-1.3302-0.80533-0.45424-1.2239-0.74219-0.47641-0.25678-0.45653-0.21003-0.54128-0.21983-1.9919-0.74231-0.57052-0.26009-0.43205-0.23013-0.42945-0.26171-0.44284-0.30163-1.1551-0.86994-0.69447-0.48052-1.295-0.77509-0.22884-0.10483-0.11138-0.029176-0.074271 0.018612-0.016567-0.10004-0.10853-0.27799-0.33894-0.70439-0.28991-0.51396-0.31323-0.48764-0.34885-0.47175-0.33012-0.39101-0.4087-0.4321-0.99401-0.94853-0.82033-0.82844-1.2004-1.3516-1.0371-1.1233-1.1463-1.2956-0.33933-0.34796-0.9644-0.88442-0.36122-0.36304-0.27539-0.33926-0.22057-0.3988-0.13015-0.41712-0.043403-0.38793-6.8e-5 -0.50883 0.021685-0.48733 0.056435-0.41314 0.12757-0.52831 0.44238-1.4163 0.20724-0.7572 0.29735-1.2399 0.084301-0.58411 0.037086-0.45362 0.023035-0.75578-0.072445-3.2988-0.082568-0.64911-0.1489-0.63325-0.50508-1.6976-0.32776-0.8693-0.14519-0.27298-0.20194-0.31038-0.2616-0.34113-0.62749-0.74781-0.23596-0.32878-0.11983-0.22467-0.057239-0.16695-0.021785-0.1566 0.025149-0.20351 0.065476-0.16534 0.077189-0.12407 0.19954-0.22513 1.0491-0.84595 0.22489-0.25605 0.13534-0.2365 0.013586-0.18399 0.011882-0.04041 0.066964-0.076659 0.3163-0.2671 0.37512-0.26572 0.53278-0.3244 0.6295-0.33579 1.6967-0.84459 2.7101-1.444 3.8071-2.3263 1.0116-0.71593 2.5352-1.9866 0.93688-0.65422 1.9253-1.2986 1.4025-1.0206 3.1074-2.0798 0.57143-0.43428 0.35498-0.31056 0.35326-0.35777 0.42759-0.53096 0.26864-0.40654 0.25834-0.46457 0.24493-0.50651 0.25954-0.62428 0.1595-0.4694 0.28163-0.94031 0.30159-0.77403 0.47076-0.90713 1.5022-2.6209 0.63285-0.95086 0.35164-0.46237 0.40013-0.47345 0.40465-0.43451 0.46637-0.45844 0.62938-0.55371 0.15596-0.096815-0.038212-0.048939 0.059092-0.14043 0.24744-0.27897 0.48063-0.39519 0.6638-0.45564 0.68979-0.42194 0.92103-0.51694 2.007-1.0262 2.0107-0.95257 1.6904-0.76216 2.0097-0.86507 1.4629-0.59509 1.401-0.52747 0.70523-0.24477 1.3392-0.41367 0.68766-0.17962 1.1808-0.23895 1.1305-0.15232 0.74556-0.058805 0.51224-0.018603 0.83958-0.001511 0.59621 0.022695 0.51723 0.044026 0.52335 0.072724 0.4116 0.079341 0.779 0.19624 0.67377 0.21311 0.54497 0.2024 2.1409 0.95913 0.73436 0.37612 1.1596 0.71067 0.47533 0.27317 0.42101 0.20467 0.43756 0.15387 0.58871 0.11334" stroke="#bdc660"/>
    </defs>
    <g clip-path="url(#pea08356d1e)">
     <use y="280.512" fill="#bdc660" stroke="#bdc660" xlink:href="#m92f43b5c32"/>
    </g>
   </g>
  </g>
 </g>
 <defs>
  <clipPath id="pea08356d1e">
   <rect x="7.2" y="7.2" width="233.67" height="266.11"/>
  </clipPath>
 </defs>
</svg>
