<?xml version="1.0" encoding="UTF-8"?>
<!DOCTYPE svg  PUBLIC '-//W3C//DTD SVG 1.1//EN'  'http://www.w3.org/Graphics/SVG/1.1/DTD/svg11.dtd'>
<svg width="316pt" height="280.51pt" version="1.1" viewBox="0 0 316 280.51" xmlns="http://www.w3.org/2000/svg" xmlns:xlink="http://www.w3.org/1999/xlink">
 <metadata>
  <rdf:RDF xmlns:cc="http://creativecommons.org/ns#" xmlns:dc="http://purl.org/dc/elements/1.1/" xmlns:rdf="http://www.w3.org/1999/02/22-rdf-syntax-ns#">
   <cc:Work>
    <dc:type rdf:resource="http://purl.org/dc/dcmitype/StillImage"/>
    <dc:date>2024-07-04T12:10:39.813375</dc:date>
    <dc:format>image/svg+xml</dc:format>
    <dc:creator>
     <cc:Agent>
      <dc:title>Matplotlib v3.7.1, https://matplotlib.org/</dc:title>
     </cc:Agent>
    </dc:creator>
   </cc:Work>
  </rdf:RDF>
 </metadata>
 <defs>
  <style type="text/css">*{stroke-linejoin: round; stroke-linecap: butt}</style>
 </defs>
 <g id="figure_1">
  <g id="patch_1">
   <path d="m-0 280.51h316v-280.51h-316v280.51z" fill="none"/>
  </g>
  <g id="axes_1">
   <g id="PatchCollection_1">
    <defs>
     <path id="mdd03bf830e" d="m99.729-185.65 0.12713 0.15883 0.20999-0.091373 0.95349 0.039192 0.77 0.12393 0.91521 0.2078 0.96823 0.27715 2.045 0.74221 1.1599 0.499 1.7617 0.85131 1.3257 0.7199 0.93185 0.56574 1.1479 0.79087 0.86709 0.68417 1.3699 1.2817 0.75816 0.83975 0.63375 0.77501 1.0447 1.4255 1.0773 1.6634 0.73839 1.253 0.79189 1.4479 0.90931 1.8029 1.687 3.7118 2.8787 6.9887 0.50568 1.0901 0.61591 1.1645 0.87406 1.4001 0.84881 1.2139 2.6857 3.4941 1.0221 1.3895 0.66334 1.0402 0.47589 0.87755 0.47139 1.0455 0.49886 1.508 0.24665 1.3748 0.020493 0.98241-0.079591 0.6404-0.24411 0.82003-0.26145 0.53702-0.43959 0.67435-0.39215 0.47925-0.69375 0.69461-0.88937 0.74149-0.99535 0.7394-1.0461 0.68264-1.3123 0.76012-2.335 1.2862-1.9837 1.0221-1.4523 0.67918-1.4481 0.60705-1.239 0.4507-1.1769 0.35485-1.2041 0.27692-1.3365 0.20543-1.4483 0.099612-1.1231-0.010496-1.1615-0.087874-1.324-0.16744-6.8984-1.1819-2.8983-0.40013-1.2195-0.08506-0.99308 0.024637-0.23898 0.035522-0.32943 0.1152-0.081466 0.10085 0.004381 0.082793-0.017611 0.28158 0.055458 0.61766 0.11867 0.66229 0.23678 0.92089 1.3901 4.772 0.33012 0.8596 0.31255 0.52865 0.19793 0.22141 0.21587 0.17143 0.74965 0.37033 2.8154 0.96044 3.4844 1.3138 0.79726-0.089461 5.3246-0.86642 2.8907-0.33357 2.6104-0.17315 2.1347-0.083111 8.3794-0.17393 2.3371-0.11926 2.9745-0.257 1.4497-0.18929 1.6533-0.29328 1.5664-0.36983 1.985-0.61586 1.1152-0.43329 1.0784-0.49513 1.5261-0.87553 1.1902-0.8763 3.7756-3.3079 0.85253-0.67533 1.0577-0.76403 2.204-1.4322 4.759-2.9461 1.4329-0.99446 2.4054-1.778 1.1957-0.75346 0.68009-0.3395 0.69919-0.26693 0.50568-0.13899 1.1444-0.19945 3.2928-0.35629 1.3389-0.2452 0.72978-0.19027 0.70084-0.23506 1.2321-0.5764 0.86702-0.55699 0.45978-0.36935 0.34551-0.34362 0.18143-0.24994 0.048467-0.24711 0.16047-0.31329 0.5506-0.13238 0.48178 0.013088 1.3365 0.26755 5.3033 1.7228 5.2014 1.3528 1.6696 0.4813 3.7046 1.2942 2.0262 0.66124 1.6872 0.42929 1.1729 0.2339 1.6723 0.19615 1.5348 0.092851 1.0483-0.019446 1.3393-0.20207 0.76779-0.23005 0.99763-0.4088 3.3506-1.7723 1.1641-0.46138 0.58839-0.1359 0.80857-0.036252 1.006 0.24818 0.95528 0.51975 0.8972 0.7153 0.82827 0.84578 0.38326 0.45737 0.61046 0.87452 0.60379 1.1071 0.26274 0.62076 0.21075 0.67098 1.0337 4.8722 0.36907 1.3218 0.80847 2.4375 0.51588 1.3027 0.39151 0.76403 0.78522 1.2357 0.6809 0.89267 0.758 0.85868 0.80599 0.7858 0.62507 0.53146 1.3066 0.93151 0.82294 0.47993 1.3118 0.63123 3.48 1.4589 1.2506 0.62567 1.1821 0.68079 0.87826 0.57131 1.1733 0.88679 0.96263 0.94512 0.48906 0.67368 0.39081 0.69093 0.31994 0.68348 0.23847 0.6774 0.15324 0.81607 0.021105 0.81811-0.034993 2.0161 0.22666 3.9834-0.024624 1.2086-0.13969 1.1202-0.72223 3.3565-0.12483 0.78642-0.1153 1.6118 0.12216 1.7491 0.34395 1.7673 0.40372 1.3804 0.50263 1.324 0.53414 1.1247 0.6034 1.0192 0.67145 0.87903 0.62709 0.60801 0.6813 0.44777 0.84982 0.28768 1.293 0.052035 1.5133-0.21513 1.5988-0.42504 0.84513-0.3097 0.73319-0.33724 0.98768-0.55102 0.94887-0.62354 0.68115-0.4983 2.0261-1.6479 2.7411-2.3896 1.1133-0.84273 0.90967-0.49565 0.7815-0.29239 0.99544-0.2151 0.4556-0.021188 0.34218 0.026369 0.76914 0.2092 0.48172 0.24838 0.35249 0.24959 0.55798 0.55343 0.52671 0.79886 1.1469 2.245 0.86004 1.5466 1.0216 1.5915 1.2091 1.5342 1.4343 1.3672 0.81754 0.58828 0.80344 0.47441 0.63074 0.31235 0.65878 0.27825 0.86142 0.30368 1.3898 0.38464 1.8034 0.37654 3.939 0.61779 1.2886 0.24627 1.4648 0.38242 1.2732 0.43674 0.96294 0.42571 0.50392 0.42171 0.059324 0.36206 0.56731 1.9405 0.47269 1.3922 0.62088 1.6139 0.61263 1.4079 0.51874 1.0637 1.2593 2.3591 0.61773 1.2935 1.7188 3.9438 0.80706 2.0581 0.30442 0.93126 0.24601 0.92702 0.19156 1.0877 0.053785 1.1145-0.060056 0.77453-0.1566 0.81177-0.18355 0.60826-0.4173 0.99574-0.52054 0.9647-0.59165 0.939-0.6217 0.89526-2.7638 3.5446-0.66178 0.94258-0.42274 0.67846-0.58107 1.089-0.30698 0.69533-0.35015 1.0851-0.15272 1.0629 0.024201 0.65819 0.072754 0.44239 0.16433 0.57018 0.20431 0.47716 0.47105 0.77418 0.71855 0.84863 1.4887 1.4833 0.8903 0.98477 0.8626 1.1769 0.61325 1.0662 0.49137 1.0763 0.37378 0.95093 1.0859 2.9991 0.36094 1.1925 0.20331 0.82171 0.15159 0.80448 0.14673 1.1035-2.2819 0.72301-1.2083 0.2613-0.91847 0.1212-1.1194-0.064214-1.8976-0.91764-1.4369-0.59367-1.4434-0.47745-1.6163-0.36887-1.7022-0.18395-1.3454 0.005222-1.9278 0.22601-1.1701 0.24578-1.1602 0.31021-2.3398 0.77622-5.0524 1.9036-1.6011 0.50928-0.99061 0.25917-0.98973 0.20874-1.8584 0.23858-0.7363 0.034197-0.99309-0.01476-1.1198-0.10787-0.72308-0.12317-1.2417-0.31436-1.4283-0.54631-0.93862-0.48407-0.48852-0.29582-1.0267-0.7304-0.47523-0.3918-0.88589-0.82894-0.95739-1.0392-0.91844-1.1334-0.84063-1.1446-2.2075-3.2146-1.1888-1.5771-0.62742-0.73567-0.66386-0.70283-1.0276-0.93701-0.7045-0.54367-0.89571-0.58895-0.92753-0.50066-0.53662-0.24262-1.2111-0.42881-0.80951-0.20018-0.91189-0.14615-0.7997-0.062178-1.3452 0.030397-0.52415 0.057686-1.1712 0.22163-0.99233 0.28812-0.57871 0.2107-0.56253 0.23493-1.0169 0.49948-1.0552 0.61694-1.6119 1.1201-1.047 0.8195-3.2396 2.673-1.9141 1.4256-1.0854 0.71114-1.3788 0.79362-1.6161 0.77991-0.81661 0.33888-1.2937 0.4697-1.8561 0.53435-1.2248 0.25178-1.4978 0.16791-0.67488 0.010837-0.63991-0.041231-0.7379-0.13855-0.41378-0.15372-0.17481-0.1046-0.10828-0.1018-0.059562-0.2081-1.3967-3.2371-1.0402-2.03-1.1294-1.8504-0.67902-0.95715-0.64816-0.81466-0.68321-0.76491-0.80743-0.79286-0.84512-0.71809-1.0479-0.7506-1.0858-0.63328-1.0069-0.46425-1.0257-0.35533-1.3326-0.28292-1.2373-0.082016-1.2268 0.090153-1.1813 0.25651-1.1478 0.40697-1.1875 0.58712-1.1364 0.71645-1.0748 0.81572-1.0281 0.89516-0.73078 0.69598-2.5799 2.5743-1.4533 1.2551-0.80252 0.58083-0.83288 0.51096-0.73356 0.36962-0.75613 0.3023-0.98466 0.27611-1.011 0.15693-1.3376 0.028424-1.3554-0.14373-1.0678-0.21773-1.0682-0.29741-1.0655-0.36844-1.9533-0.84461-2.1998-1.1694-2.4507-1.5085-2.1686-1.461-3.4825-2.4727-7.0075-5.0857-0.91232-0.59319-1.6047-1.005-1.3085-0.67206-0.67458-0.29244-1.3996-0.4926-1.7615-0.42039-1.6648-0.25379-1.6879-0.16345-5.34-0.27311-2.0835-0.206-2.4058-0.35195-5.2079-0.85899-2.0833-0.39108-1.4891-0.34493-3.3067-0.94778-1.3977-0.45725-1.4909-0.54143-2.9084-1.1986-4.6728-2.0743-3.5386-1.9051-0.88477-0.52088-1.3649-0.87588-1.2891-0.93442-0.5745-0.46322-1.0831-0.96742-0.67306-0.67308-1.109-1.2589-1.3051-1.756-0.77378-1.1845-2.5533-4.1591-0.85717-1.3215-1.0045-1.4452-0.5286-0.70029-0.93689-1.1144-0.50172-0.52665-1.0093-0.91767-1.0957-0.83036-1.4269-0.8886-3.9446-2.1134-2.1549-1.2039-5.0689-3.0664-6.3179-4.1856-5.4593-3.8485-1.6956-1.2843-1.9241-1.6391-1.9438-1.832-1.6039-1.6671-3.1067-3.4387-0.53154-0.58531-0.58063-0.54976-1.3892-1.1588-0.79853-0.58574-0.99117-0.65252-1.0362-0.60263-1.0682-0.5408-0.94112-0.40984-0.9538-0.35711-0.96263-0.30495-1.259-0.3194-1.2641-0.24189-0.99848-0.1424-1.9933-0.19272-6.2689-0.37173-1.7196-0.22048-0.94547-0.1927-0.92025-0.25502-0.75202-0.27089-0.72518-0.32475-0.87309-0.48828-0.82545-0.56304-0.77728-0.62618-0.64674-0.60504-0.59576-0.65145-0.61698-0.82105-0.52592-0.88177-0.39269-0.85137-0.30859-0.8896-0.19533-0.78397-0.13465-0.80209-0.07452-0.81594-0.013001-0.84307 0.049148-0.84988 0.1114-0.85317 0.24972-1.1575 0.34547-1.1576 0.40329-1.1068 0.93125-2.1338 1.104-2.1958 2.5995-4.9146 0.87579-1.8311 0.38553-0.97978 0.14394-0.58206-0.062933-0.21729-0.21666-0.7114-0.376-1.0025-1.2251-2.9588-2.7762-5.8912-0.6731-1.6163-0.35832-1.0725-0.285-1.089-0.10904-0.55095-0.1405-1.1174-0.054971-1.6396 0.083395-1.5356 0.2302-1.6148 0.41481-1.7115 0.62394-1.8371 0.76859-1.8487 0.77202-1.5747 0.8518-1.5267 0.77168-0.49166 1.2298-0.66955 4.9793-2.4926 1.96-1.1098 1.1167-0.71201 2.0911-1.5314 2.0734-1.6566 2.1304-1.8377 2.2023-2.0824 0.57811-0.73819 1.2009-1.8384 0.67532-1.1484 0.7341-1.3572 0.70761-1.4301 0.66476-1.4762 0.51625-1.2605 0.91353-2.5506 0.38813-1.2493 0.68373-2.4929 1.0943-4.755 1.0112-5.0447 0.4984-2.8155 0.4298-2.731 1.3495-9.8336 0.88527-7.2828 0.66476-6.8774 0.33882-5.0811 0.13889-4.9864-0.022222-2.9351-0.092155-2.9958-0.34733-5.7828-0.64173-6.8836 0.24539-0.037882 0.85857 0.025358 1.1605 0.12403 1.0119 0.16589 1.0627 0.24408 1.0047 0.32697 0.95716 0.44614 1.1917 0.76938 0.61019 0.47086 2.5152 2.2007 1.0974 0.8312 0.58004 0.37634 1.3419 0.7547 3.2654 1.6384 1.9513 1.0283 1.6351 1.0455 1.9162 1.4155 1.7044 1.1542 1.9233 1.1406 4.21 2.1849 0.76779 0.46313 0.69991 0.49942 0.42622 0.36885 0.37591 0.39853 0.35712 0.48558 0.29208 0.48292 0.54338 1.0927 0.34414 0.80604 0.85227 2.2823 1.9936 5.7102 0.64421 1.6232 0.56265 1.2854 0.60823 1.2621 0.60682 1.1397 0.84356 1.4335 1.1416 1.6863 0.49389 0.57086 0.097922 0.04571 0.1897 0.12131 0.20894 0.36127 0.17934 0.52644 0.1011 0.53887 0.45506 4.2008 0.088033 1.467 0.037001 1.6411 0.097288 0.66102 0.15215 0.65115 0.67552 2.2132 0.55586 2.3989 0.32135 1.8125 0.38425 2.4967 1.0264 4.6413 0.5573 2.8922 0.60767 2.8821 0.35685 1.9087 0.05909 0.5237-0.010259 0.58492-0.064916 0.33642-0.16365 0.42134-0.3485 0.54736-0.35623 0.40927-0.36399 0.31024-1.8621 1.0681-0.98218 0.62883-0.3862 0.31613-0.14282 0.20646-0.077729 0.21316-0.024911 0.27064 0.065502 0.33102" stroke="#bdc660"/>
    </defs>
    <g clip-path="url(#p4d51a8cade)">
     <use y="280.512" fill="#bdc660" stroke="#bdc660" xlink:href="#mdd03bf830e"/>
    </g>
   </g>
  </g>
 </g>
 <defs>
  <clipPath id="p4d51a8cade">
   <rect x="7.2" y="7.2" width="301.6" height="266.11"/>
  </clipPath>
 </defs>
</svg>
