<?xml version="1.0" encoding="UTF-8"?>
<!DOCTYPE svg  PUBLIC '-//W3C//DTD SVG 1.1//EN'  'http://www.w3.org/Graphics/SVG/1.1/DTD/svg11.dtd'>
<svg width="214.33pt" height="280.51pt" version="1.1" viewBox="0 0 214.33 280.51" xmlns="http://www.w3.org/2000/svg" xmlns:xlink="http://www.w3.org/1999/xlink">
 <metadata>
  <rdf:RDF xmlns:cc="http://creativecommons.org/ns#" xmlns:dc="http://purl.org/dc/elements/1.1/" xmlns:rdf="http://www.w3.org/1999/02/22-rdf-syntax-ns#">
   <cc:Work>
    <dc:type rdf:resource="http://purl.org/dc/dcmitype/StillImage"/>
    <dc:date>2024-07-04T12:10:39.533073</dc:date>
    <dc:format>image/svg+xml</dc:format>
    <dc:creator>
     <cc:Agent>
      <dc:title>Matplotlib v3.7.1, https://matplotlib.org/</dc:title>
     </cc:Agent>
    </dc:creator>
   </cc:Work>
  </rdf:RDF>
 </metadata>
 <defs>
  <style type="text/css">*{stroke-linejoin: round; stroke-linecap: butt}</style>
 </defs>
 <g id="figure_1">
  <g id="patch_1">
   <path d="m0 280.51h214.33v-280.51h-214.33v280.51z" fill="none"/>
  </g>
  <g id="axes_1">
   <g id="PatchCollection_1">
    <defs>
     <path id="mc7870f52ba" d="m98.919-240.99 0.51241 0.009744 1.9683-0.074317 0.5667-0.009052 0.92252 0.025571 0.80723 0.050633 1.6763 0.14904 1.7312 0.20928 1.684 0.24425 0.76868 0.12374 1.1248 0.20509 1.0052 0.21733 0.73378 0.18889 0.64848 0.21119 0.4546 0.20153 0.23969 0.16238 0.056862 0.15162-4.395 3.2235-1.2469 0.93336-7.8911 6.0779-7.5998 5.7615-1.4664 1.1306-1.3524 1.0977-0.59412 0.52576-0.50585 0.50118-0.38111 0.46665-0.20776 0.41889-0.020762 0.16473 0.005536 0.060526 0.098352 0.22137 0.14714 0.15686 0.33976 0.23818 0.45055 0.19854 0.6234 0.14881 0.71241 0.087171 2.1153 0.13109 0.79395 0.086502 0.63792 0.1206 0.61783 0.18508 0.68324 0.31352 0.6491 0.40332 0.61992 0.47273 0.59386 0.52662 0.61779 0.62078 0.58762 0.66119 0.55379 0.6959 0.5131 0.7287 0.46192 0.76309 0.35152 0.69173 0.31049 0.71463 0.26321 0.69697 0.23602 0.7095 0.23682 0.80643 0.41378 1.6328 0.91189 3.9944 0.28405 1.0435 0.29034 0.80307 0.33861 0.78573 1.0998 2.3178 0.64607 1.4053 0.2831 0.54875 0.31372 0.5467 0.34245 0.53016 0.34966 0.47896 0.37687 0.45942 0.36322 0.39698 0.33512 0.3342 0.4371 0.40111 0.45258 0.38694 0.69627 0.56269 1.4032 1.1118 0.67819 0.57394 0.64232 0.60313 0.33077 0.34611 0.43086 0.48576 1.7337 2.1131 0.29542 0.32163 0.2399 0.23386 0.65303 0.52537 0.72109 0.46216 0.77266 0.41578 0.81173 0.38238 0.84153 0.35893 0.86468 0.34302 1.782 0.65997 4.1054 1.4504 1.642 0.6012 3.7803 1.4703 1.6711 0.63014 0.64352 0.2144 0.39975 0.093286 0.066444-0.019619 1.2882-0.60513 0.33394-0.17482 0.3138-0.18675 0.226-0.16132 0.20619-0.17429 0.96195-0.94856 0.37903-0.31976 0.26999-0.17579 0.70713-0.40228 2.8086-1.7099-0.2778-0.94378 1.0208-0.72065 0.44359-0.34358 1.3498-1.3257 1.414-1.2465 0.029079-0.001455 0.042193 0.032797 0.18965 0.23124 0.25195 0.38189 0.27919 0.47927 0.28284 0.54187 0.30176 0.6587 0.24308 0.59726 0.85823 2.3313 0.32328 0.77326 0.20524 0.41538 0.18338 0.32126 0.62978 0.8981 0.21145 0.36114 0.21569 0.44969 0.1301 0.31792 0.2254 0.65434 0.22138 0.8287 0.1826 0.9249 0.21749 1.4295 0.075127 0.36563 0.098051 0.31447 0.12186 0.23053 0.16157 0.15602 0.1746 0.063439 0.17886 0.007527 0.19464-0.031066 0.21483-0.066069 0.33647-0.14608 0.88332-0.46074 0.30347-0.14354 0.37848-0.14968 0.48204-0.16012 0.39382-0.10452 0.90127-0.16176 0.37582-0.083191 0.34421-0.11034 0.26478-0.1096 0.50631-0.2617 0.52465-0.32708 0.67771-0.46945 1.5764-1.1462 0.42735-0.28808 0.42055-0.23263 0.14236-0.046906 0.039402 0.014969 7.1778 15.764 0.74529 1.7301 0.88434 2.2437 0.5131 1.2484 1.0939 2.5501 1.1078 2.4722 1.8701 4.0079 0.032235 0.00782 0.055406 0.057074 0.086969 0.12332 0.14847 0.25388 0.16681 0.33974 0.2768 0.7137 0.17849 0.57436 0.15537 0.58416 0.18018 0.79403 0.22876 1.2419 0.10961 0.71956 0.14546 1.1361 0.13836 1.4863 0.18456 3.3464 0.41085 5.1167 0.031036 0.76823-0.011564 0.48726-0.050527 0.46779-0.15834 0.60823-0.3049 0.59306-0.41637 0.55129-0.48925 0.52404-1.5868 1.5257-1.0164 1.1042-0.22463 0.26607-0.30855 0.41026-0.25334 0.4062-0.17132 0.34387-0.19277 0.49566-0.17603 0.58369-0.10913 0.53118-0.0523 0.56075-5.89e-4 0.40166 0.041141 0.53892 0.050953 0.34951 0.12774 0.58001 0.13018 0.43513 0.12023 0.3348 0.22664 0.50108 0.22594 0.37494 0.16908 0.22456 0.25088 0.27016 0.29874 0.2459 0.24441 0.15334 0.18666 0.096828 0.22431 0.099701 0.39474 0.14381 0.5823 0.15568 0.71926 0.12116 0.62496 0.048128 1.5169 0.025621 0.95163 0.045858 0.83519 0.079989 1.7587 0.22052 0.65265 0.068901 0.91555 0.05445 0.70442-0.003481 0.50541-0.029544 0.63921-0.062488 0.68637-0.095489 0.58628-0.11181 0.49122-0.1259 0.53642-0.18194 0.50413-0.23213 0.15027-0.09537 0.029402-0.027907 0.008174-0.029812 0.51488 0.43587 0.69763 0.63563 0.45744 0.45744 0.37707 0.41407 0.3516 0.43233 0.31927 0.4565 0.26724 0.46877 0.16941 0.38515 0.1217 0.39105 0.071794 0.41792 0.017983 0.41968-0.026014 0.4051-0.15344 1.0139-0.54541 2.8078-0.08644 0.56013-0.059532 0.51518-0.030276 0.57302 0.02814 0.51899 0.081846 0.38056 0.14372 0.31393 0.2154 0.22915 0.35175 0.14478 0.43981 0.03927 0.43292-0.025083 0.47012-0.061127 1.5587-0.25635 0.99559-0.11889 0.43982-0.028779 0.45704-0.005929 0.46516 0.031012 0.43098 0.080843 0.27272 0.092636 0.24643 0.12951 0.35182 0.31324 0.28115 0.41145 0.22572 0.48631 0.18171 0.5423 0.12297 0.48325 0.097085 0.50466 0.064961 0.48594 0.036073 0.49555 0.005484 0.36012-0.037136 0.66726-0.088326 0.59794-0.044128 0.20606-0.11094 0.41664-0.47663 1.4887-0.15216 0.61512-0.1589 0.77513-0.12179 0.68405-0.065252 0.55662-0.075809 0.94451-0.007132 0.30387-0.95231 0.067033-0.77346 0.081473-0.63344 0.11253-0.3201 0.090615-0.47375 0.19083-1.4277 0.69946-0.28014 0.10361-0.67699 0.21433-0.63072 0.25967-0.26118 0.12951-0.21441 0.13034-0.15835 0.12632-0.13094 0.1488-0.076836 0.13687-0.065882 0.18444-0.15938 0.76422-0.089395 0.81431-0.014839 0.62726 0.028963 0.41419 0.093805 0.56294 0.37852 1.36 0.094393 0.45181 0.032357 0.3173 0.011092 0.28681-0.058758 1.1264-0.06337 0.35946-0.12792 0.43194-0.19189 0.51325-0.19818 0.42917-0.14133 0.24775-0.19676 0.28143-0.17633 0.21075-0.41907 0.43801-0.10962 0.028552-0.17835 0.087161-0.66232 0.38066-0.71743 0.45883-0.74658 0.52105-0.73158 0.55876-0.95234 0.76105-0.84917 0.7686-0.321 0.26525-0.40848 0.26811-0.81823 0.44375-0.35782 0.21992-0.2852 0.24709-0.10905 0.14694-0.062446 0.1225-0.061121 0.21946-0.010683 0.17458 0.006954 0.11056 0.072106 0.32728 0.12483 0.27233 0.52596 0.83253 0.14957 0.28048 0.20657 0.46062 0.13206 0.45262 0.061117 0.2919 0.055231 0.43332 0.073715 1.5404 0.07096 0.45808 0.043785 0.1402 0.17631 0.33821 0.3799 0.50277 0.14537 0.22874 0.088675 0.22121 0.04312 0.20343 0.011308 0.15524-0.010404 0.19082-0.032176 0.1695-0.059661 0.17857-0.13872 0.26141-0.14967 0.2115-0.17698 0.21542-0.65432 0.73183-0.34342 0.41081-0.19506 0.26588-0.17103 0.27415-0.18245 0.39752-0.077393 0.29345-0.017288 0.48112 0.089546 0.4423 0.10276 0.26343 0.16737 0.27912 0.12995 0.12629 0.078422 0.025478-0.041608 0.10378-0.13856 0.068684-0.32418 0.037026-0.37212-0.022072-0.43189-0.069957-1.5161-0.37827-0.81623-0.16566-0.37546-0.052446-0.5701-0.042881-0.2664-0.002836-0.49816 0.029584-0.44734 0.074965-0.41267 0.11981-0.3642 0.14157-0.31792 0.14318-1.2143 0.59076-0.27493 0.11943-0.46946 0.16854-0.28896 0.076006-0.45686 0.073517-0.49386 0.017996-0.42632-0.031602-0.3508-0.056029-0.39931-0.094916-0.31562-0.097662-0.57988-0.2266-0.84898-0.41805-0.44467-0.25014-0.48214-0.31253-0.45266-0.35674-0.84043-0.71608-0.28907-0.19524-0.29534-0.13386-0.38782-0.053288-0.38206 0.085148-0.3346 0.20651-0.29039 0.2899-0.25908 0.35644-0.15876 0.27401-0.1767 0.3711-0.22087 0.58184-0.26375 0.88664-0.17266 0.7443-0.18646 0.91552-0.12588 0.51662-0.2225 0.70443-0.32612 0.85485-0.3384 0.7845-0.32363 0.64113-0.28045 0.46387-0.19728 0.28291-0.28701 0.36439-0.34227 0.37786-0.37195 0.36029-0.72036 0.61337-0.47262 0.36131-0.32444 0.22635-0.28507 0.17883-0.6618 0.3554-0.34924 0.21674-0.38976 0.37138-0.26763 0.46887-0.061714 0.20334-0.046718 0.25076-0.033057 0.58601 0.056442 1.2906-0.03766 0.33273-0.071659 0.12344-0.57238 0.59312-0.68667 0.66869-0.41974 0.33499-0.34495 0.20878-0.37628 0.188-1.2732 0.57098-0.65445 0.32554-0.63526 0.3732-1.1663 0.74602-1.7775 1.0779-0.41345 0.26738-0.39986 0.27765-0.36252 0.27619-0.34224 0.29271-0.33984 0.33739-0.37605 0.45731-0.36262 0.56334-0.2508 0.47874-0.56928 1.2556-0.27084 0.54493-0.35217 0.59442-0.52075 0.75037-0.66331 0.86178-0.59269 0.68874-0.32182 0.34009-0.58084 0.56344-0.79168 0.6847-0.71703 0.56626-1.1553 0.85693-0.76771 0.55701-0.74645 0.51362-0.51181 0.3245-1.1237 0.67099-0.45376 0.31459-0.33918 0.27996-0.37941 0.36156-0.33743 0.35934-0.26707 0.32524-0.18423 0.26014-0.14499 0.24426-0.17614 0.41006-0.050605 0.18043-0.039141 0.21607-0.006542 0.50903 0.072262 0.45358 0.15239 0.52886 0.1587 0.40165 0.12122 0.24206 0.05397 0.070646-0.12892 0.024224-0.2295 0.10108-0.33478 0.17523-0.88137 0.53312-0.33352 0.22538-0.47323 0.35136-0.9305 0.76859-0.37209 0.23772-0.32836 0.15094-0.21145 0.066941-0.19563 0.042747-0.23133 0.02923-0.28968 0.011957-0.31669-0.019552-0.72208-0.097113-0.42456-0.041106-0.42149-0.021367-0.42416 0.005482-0.74369 0.063862-0.3217 0.052727-0.50347 0.12306-2.7939 0.9504-0.78165 0.30748-0.39018 0.18686-0.36563 0.19819-1.8274 1.1077-0.37182 0.19096-0.37257 0.16515-1.6591 0.60631-0.7133 0.2443-0.51864 0.13589-0.49939 0.07818-0.31072 0.0219-0.24197-0.004025-0.23216-0.025202-0.24993-0.052396-0.27341-0.089269-0.17618-0.075243-0.47832-0.26802-0.41778-0.30437-0.53693-0.47381-0.38155-0.38896-1.129-1.2698-0.20341-0.21226-0.421-0.39629-0.33156-0.25758-0.37447-0.21788-0.43557-0.15214-0.23412-0.048732-0.35739-0.035809-0.36189 4.87e-4 -0.64452 0.050922-0.64796 0.077892-0.49371 0.094211-0.47666 0.11146-1.104 0.31822-0.037824-0.017656-0.19077-0.2205-0.44097-0.65134-0.32584-0.55371-0.23439-0.44021-0.23494-0.48751-0.21733-0.4965-0.24883-0.62699-0.77004-2.2057-0.3292-0.88156-0.13293-0.31134-0.20989-0.42208-0.11282-0.18653-0.13794-0.18756-0.1452-0.15394-0.16463-0.14247-0.27035-0.19291-0.29657-0.17889-1.6262-0.84394-0.74289-0.44056-0.65836-0.44584-0.74017-0.54675-0.63157-0.40384-0.75372-0.39719-1.2613-0.63285-0.51831-0.29151-0.22405-0.14536-0.42387-0.32106-0.97152-0.85007-0.23569-0.18188-0.46032-0.29718-0.36972-0.17233-0.38809-0.1263-0.41047-0.094278-0.39088-0.064078-0.44827-0.047908-0.33164-0.009795-0.094784 0.014633-0.13993-1.2271-0.11126-1.219-0.62707-8.0482-0.12305-2.1745-0.035931-1.775 0.013895-1.2581 0.046247-1.1388 0.096491-1.5916 0.12236-1.306 0.17735-1.3482 0.15803-0.9535 0.17665-0.91046 0.26306-1.1338-0.051778 0.00521-0.29361-0.056188-0.47386-0.13074-0.59731-0.19748-1.382-0.49821-0.34816-0.10324-0.27372-0.061405-0.34828-0.046369-0.39634-0.020895-0.78836-0.012343-0.31835-0.024424-0.34834-0.061024-0.39938-0.13004-0.35245-0.17286-0.18359-0.10925-0.21391-0.14236-0.38457-0.29364-0.36208-0.33869-0.16581-0.19127-0.112-0.15411-0.10562-0.18232-0.059592-0.13487-0.090242-0.30632-0.030401-0.17879-0.020378-0.28479-0.001679-1.5601 0.025372-0.25468 0.071338-0.3055 0.068536-0.18008 0.092512-0.18302 0.14841-0.22359 0.16245-0.19449 0.30704-0.30334 0.43226-0.39006 0.21072-0.20707 0.19223-0.22138 0.20144-0.31261 0.10973-0.2609 0.076086-0.28111 0.053285-0.374 0.013687-0.39505-0.036506-0.58728-0.14787-0.95942-0.34398-1.6083-0.087161-0.6247-0.10208-0.56706-0.25056-1.1565-0.19958-0.77979-0.35929-1.2003-0.24024-0.68717-0.19214-0.49261-0.20259-0.47041-0.21126-0.441-0.3336-0.59877-0.39997-0.56734-0.2677-0.2917-0.28302-0.23478-0.28536-0.16307-0.37559-0.11402-0.39283-0.031016-0.35675 0.02818-1.4016 0.28594-0.39636 0.053312-0.35843 0.024604-0.38748-0.003326-0.39403-0.037606-0.22505-0.045667-0.20914-0.064607-0.25421-0.11494-0.18952-0.11723-0.28135-0.23093-0.28176-0.3034-0.35742-0.48074-0.32663-0.51919-0.27787-0.52871-0.15197-0.37965-0.14062-0.48198-0.15244-0.73427-0.071868-0.47583-0.043924-0.45778-0.004556-0.42749 0.038981-0.34832 0.12295-0.38282 0.10402-0.16892 0.33268-0.33012 0.43718-0.28924 1.0108-0.53886 0.49159-0.28979 0.42709-0.33159 0.31706-0.39744 0.17262-0.4984 0.027142-0.56682-0.097184-0.61724-0.1885-0.64602-0.24772-0.66401-0.69132-1.6258-0.66021-1.4654-0.2965-0.69215-0.27141-0.68413-0.5072-1.3992-2.037-5.9971-0.53578-1.4134-0.4983-1.1345-0.22424-0.58387-0.052545-0.18794-0.067315-0.35835-0.033171-0.47871 0.022734-1.5687-0.051042-1.5156-0.10988-1.606-0.23423-2.4621-0.18976-1.6153-0.20332-1.5283-0.15401-1.6711-0.2019-1.7269-0.12642-0.8604-0.14811-0.84549-0.17598-0.81889-0.2127-0.77791-0.26158-0.71879-0.32668-0.63665-0.12786-0.19139-0.29146-0.36747-0.66924-0.78023-0.44108-0.57325-0.37628-0.53967-0.2318-0.36373-0.3813-0.6588-0.28545-0.62237-0.14621-0.50358-0.073921-0.52041 0.005537-0.71667 0.059285-0.71825 0.098612-0.75362 0.14362-0.77115 0.19923-0.76991 0.27092-0.74752 0.36451-0.70011 0.48541-0.6228 0.61104-0.50968 0.72051-0.4124 0.79334-0.32005 0.77335-0.21961 0.75241-0.1498 0.66721-0.088613 0.49193-0.03515 0.18689 0.012271 0.029324-0.10778 0.11233-0.27115 0.36074-0.76852 0.53086-1.0166 0.31051-0.55179 0.7704-1.2677 0.46025-0.69991 0.50421-0.72341 0.5209-0.70556 0.47358-0.60806 0.48411-0.59092 0.99881-1.1346 0.99799-1.0588 0.59179-0.60455 1.8323-1.8207 0.51602-0.53034 0.61499-0.68034 0.57538-0.70577 0.39782-0.5443 0.36964-0.56081 0.46042-0.79812 0.40618-0.82411 0.27039-0.63715 0.23773-0.6484 0.22997-0.75608 0.1835-0.76635 0.13384-0.77397 0.068626-0.63513 0.031157-0.63671-0.008028-0.6363-0.075369-0.85023-0.1451-0.84139-0.21336-0.82736-0.28165-0.80576-0.3428-0.78448-0.3982-0.76038-0.43814-0.71294-0.48318-0.68495-0.52547-0.65408-0.51384-0.56478-0.54394-0.53658-0.57059-0.5082-0.60764-0.48744-0.63175-0.45426-0.65559-0.41735-0.74645-0.40965-0.77309-0.35856-0.67024-0.26163-0.68479-0.22729-0.6851-0.19354-0.69374-0.17107-3.1045-0.6557-1.5835-0.36219-1.5735-0.40266-0.78169-0.21821-1.5937-0.48975-1.5124-0.52577-1.4257-0.5645-0.6987-0.3096-0.68569-0.33325-0.50103-0.26698-0.49111-0.28352-0.63202-0.39979-0.61347-0.42698-0.59414-0.45302-0.64707-0.54357-0.61982-0.57439-0.59042-0.60455-0.56063-0.63828-0.52874-0.66589-0.49665-0.69111-0.45125-0.69619-0.42029-0.71648-0.38911-0.73505-0.33586-0.70563-0.311-0.71838-0.28931-0.72867-0.26912-0.73734-0.4887-1.5153-0.42805-1.5331-0.19257-0.77068-0.32436-1.4938-0.1336-0.74849-0.10882-0.74914-0.077577-0.74962-0.034338-0.60251-0.005322-0.60226 0.036979-0.73925 0.080888-0.73712 0.12049-0.73389 0.19161-0.87878 0.22665-0.87523 0.49446-1.7507 0.43761-1.6364 0.38329-1.6515 0.15142-0.76887 0.25279-1.5466 0.10121-0.77695 0.087745-0.82529 0.1217-1.6553 0.034906-0.82898 0.011882-1.5318-0.05794-1.4028-0.057374-0.69913-0.085665-0.74646-0.1094-0.74338-0.13211-0.73975-0.15532-0.73528-0.1841-0.74736-0.20738-0.7415-0.2291-0.73522-0.2509-0.72799-0.27448-0.71921-0.3218-0.75707-0.34948-0.74464-0.37615-0.7313-0.40414-0.7158-0.43582-0.69675-0.51756-0.73664-0.55554-0.71106-0.58949-0.68641-0.62272-0.66-0.65855-0.62894-0.61344-0.52471-0.64124-0.4988-0.66613-0.47527-0.68976-0.45211-0.71366-0.42727-0.73925-0.3985-0.86317-0.40857-0.8952-0.37046-0.92428-0.3349-0.95085-0.29825-0.97436-0.25712-0.96207-0.20679-0.96607-0.17334-3.2359-0.48828-0.44541-0.076405-0.16289-0.053561-1.3694-0.7695-0.77518-0.47464-0.64368-0.41889-0.65368-0.44843-0.65259-0.47115-0.64368-0.4895-0.64799-0.52032-0.63051-0.53325-0.61182-0.54369-0.69243-0.64932-0.66427-0.66162-0.63406-0.67535-0.47085-0.53648-0.45173-0.5458-0.43309-0.5548-0.4451-0.60687-0.42408-0.61684-0.4028-0.62676-0.38002-0.63729-0.26591-0.4795-0.30812-0.59307-0.5313-1.1295-0.49856-1.1999-0.3755-1.0055-0.41281-1.2422-0.29292-1.0019-0.23732-0.99002-0.093443-0.53802-0.046638-0.42546-0.011213-0.40089 0.067481-0.5435 0.1974-0.45647 0.41205-0.39456 0.57403-0.28635 0.6914-0.20781 0.7751-0.15168 0.83375-0.11225 0.87398-0.08511 1.819-0.12197 8.4164-0.38658 6.4883-0.33554 23.04-1.2867 15.685-0.9043 5.2712-0.2703 1.1187-0.039343 2.7593-0.057939 1.6513-0.012494 0.8047 0.018382 0.7819 0.047113 0.74979 0.088491 0.70549 0.14622 0.64538 0.22499 0.56497 0.33065 0.50492 0.50345 0.40968 0.62656 0.33725 0.71726 0.25076 0.68789 0.17669 0.58058 0.16011 0.59978 0.30913 1.3439 0.29993 1.4883 0.68713 3.6766 0.4446 2.2823 0.41235 1.9549 0.29689 1.2493 0.15427 0.56853 0.24352 0.76071 0.29332 0.70009 0.36193 0.60497 0.45708 0.474 0.33966 0.21034 0.38021 0.15299 0.24868 0.068661 0.44649 0.079254 0.49009 0.041204" stroke="#bdc660"/>
    </defs>
    <g clip-path="url(#pd1b090d733)">
     <use y="280.512" fill="#bdc660" stroke="#bdc660" xlink:href="#mc7870f52ba"/>
    </g>
   </g>
  </g>
 </g>
 <defs>
  <clipPath id="pd1b090d733">
   <rect x="7.2" y="7.2" width="199.93" height="266.11"/>
  </clipPath>
 </defs>
</svg>
