<?xml version="1.0" encoding="UTF-8"?>
<!DOCTYPE svg  PUBLIC '-//W3C//DTD SVG 1.1//EN'  'http://www.w3.org/Graphics/SVG/1.1/DTD/svg11.dtd'>
<svg width="314.33pt" height="280.51pt" version="1.1" viewBox="0 0 314.33 280.51" xmlns="http://www.w3.org/2000/svg" xmlns:xlink="http://www.w3.org/1999/xlink">
 <metadata>
  <rdf:RDF xmlns:cc="http://creativecommons.org/ns#" xmlns:dc="http://purl.org/dc/elements/1.1/" xmlns:rdf="http://www.w3.org/1999/02/22-rdf-syntax-ns#">
   <cc:Work>
    <dc:type rdf:resource="http://purl.org/dc/dcmitype/StillImage"/>
    <dc:date>2024-07-04T12:10:40.965604</dc:date>
    <dc:format>image/svg+xml</dc:format>
    <dc:creator>
     <cc:Agent>
      <dc:title>Matplotlib v3.7.1, https://matplotlib.org/</dc:title>
     </cc:Agent>
    </dc:creator>
   </cc:Work>
  </rdf:RDF>
 </metadata>
 <defs>
  <style type="text/css">*{stroke-linejoin: round; stroke-linecap: butt}</style>
 </defs>
 <g id="figure_1">
  <g id="patch_1">
   <path d="m0 280.51h314.33v-280.51h-314.33v280.51z" fill="none"/>
  </g>
  <g id="axes_1">
   <g id="PatchCollection_1">
    <defs>
     <path id="ma86b25ae46" d="m181.5-255 4.4102 16.238 0.95978 3.3402 0.42819 1.3663 0.45164 1.3296 0.48403 1.2807 0.39282 0.92434 0.41753 0.87932 0.44308 0.82448 0.59419 0.93391 0.64879 0.79398 0.58522 0.51784 0.77202 0.41202 0.78179 0.14841 0.85099-0.029371 1.1342-0.21721 1.1983-0.35868 1.2456-0.45146 3.9256-1.5532 1.3585-0.48667 0.79961-0.25581 1.2364-0.34079 1.3022-0.29044 1.97-0.3374 2.6275-0.3365 2.3557-0.24336 5.0814-0.46822 2.5643-0.27439 1.2066-0.15223 2.6647-0.40858 1.4507-0.2881 1.7259-0.42657 1.983-0.5716 1.1283-0.3555 2.1549-0.72546 7.4744-2.7274 3.068-1.0571 2.3355-0.7499 5.6413-1.7259 2.7736-0.87512 2.2115-0.73878 3.9186-1.4202 1.1037-0.36811 0.65933-0.19056 0.65064-0.15534 1.0516-0.1537 1.0233 0.016871 0.62423 0.11837 0.61147 0.19579 0.4984 0.21419 0.87806 0.49119 0.71455 0.4996 0.94295 0.78951 1.0475 1.0374 1.7442 1.9503 1.1418 1.3474 0.74814 0.98067 0.62511 0.9558 0.62388 1.1456 0.49103 1.0939 0.2508 0.7234 0.23756 0.94847 0.10112 0.64133 0.053732 0.73756-0.006335 0.72045-0.041821 0.66544-0.36366 2.9428-0.02002 0.72236 0.04798 0.72142 0.097961 0.65655 0.1398 0.65991 0.6029 2.2647 0.27271 1.1461 0.20199 0.98747 0.32667 1.8539 0.16059 0.70818 0.15077 0.51218 0.20469 0.56347 0.2941 0.68082 1.0575 2.0313 0.50091 0.80524 0.97826 1.3153 0.4017 0.60105 0.31479 0.56596 0.28223 0.64903 0.28728 0.88922 0.44994 2.1985 0.26065 0.9963 0.22092 0.73794 0.25481 0.73743 0.35709 0.92588 0.96533 2.1568 0.39748 1.0492 0.33727 1.1414 0.38881 1.7112 0.20442 0.78159 0.28944 0.84835 0.3082 0.70505 0.51055 0.93951 0.58865 0.89722 0.88848 1.2245 1.6511 2.1901 1.047 1.4902 0.65673 1.0417 0.30436 0.56806 0.24798 0.5317 0.47494 1.2128 0.22282 0.71743 0.11294 0.47494 0.14949 1.0515 0.065451 1.5581 0.048353 0.55705 0.054698 0.29992 0.066306 0.13782-0.42803 0.32955 0.015303 0.10468-0.043566 0.46625-0.33887 1.8835-1.0954 4.8706-0.17143 0.56136-0.23732 0.57003-0.28954 0.50005-0.29606 0.36699-0.39681 0.31734-0.44315 0.18368-0.69586 0.022424-0.71816-0.19158-0.69975-0.31616-0.86855-0.45272-0.40972-0.16534-0.56089-0.15218-0.54834-0.060229-0.5283 0.045092-0.58333 0.22883-0.3558 0.29617-0.22096 0.27009-0.20466 0.32325-0.3948 0.82705-0.31413 0.86332-0.30387 1.0063-0.90419 3.3269-0.36305 1.193-0.45168 1.3214-0.77858 1.9645-1.6709 3.863-0.45238 1.1848-0.30064 0.97558-0.23464 1.0635-0.097595 0.68865-0.071358 0.97762-0.005188 1.5325 0.023458 0.45924 0.14149 1.3403 0.18015 0.99315 0.37563 1.5128 0.34938 1.159 0.35759 1.0504 0.43176 1.1337 0.37498 0.89205 1.363 2.9102 0.43604 1.0584 0.32654 1.064 0.20164 1.2556 0.031386 1.2023-0.093673 1.0625-0.17199 0.79774-0.21112 0.35491-0.077431 0.26363-0.24549 0.40025-0.30598 0.43659-2.427 3.0808-0.64682 0.8473-0.74072 1.0408-0.5932 0.93352-0.51588 0.95079-0.38957 0.87634-0.33256 0.88191-0.7752 2.3018-0.3589 0.97915-0.40587 0.94724-0.69941 1.2981-1.2095 2.0416-0.65877 1.2896-0.33462 0.75908-0.37321 0.9289-1.2123 3.4165-0.3415 0.82451-0.98598 1.8818-0.75906 1.5483-0.43349 0.76572-0.44506 0.63694-0.52401 0.62899-0.78281 0.79076-0.83816 0.70605-1.0558 0.71322-1.0021 0.50732-0.84637 0.31127-0.887 0.24588-0.91915 0.19886-2.1035 0.34694-5.3063 0.70811-2.0415 0.32946-0.98352 0.19748-0.9538 0.23077-1.0714 0.32801-0.99702 0.40774-0.71525 0.3927-0.63864 0.47385-0.74218 0.81636-0.58564 0.96986-0.44659 1.0899-0.31444 1.1847-0.071746 0.39154-0.06876 0.48262-0.086299 1.0341-0.023489 1.0677 0.036287 1.3575 0.090563 1.3915 0.10481 1.1576 0.27986 2.352 0.19327 1.298 0.23338 1.2961 0.90438 4.0362 0.21653 1.224 0.1274 1.1215 0.064938 1.1447 5.92e-4 0.96659-0.035383 0.49963-0.083279 0.23147-0.58519 0.25936-0.743 0.26671-1.3588 0.4272-1.262 0.32823-0.74799 0.14635-0.97878 0.12482-1.068 0.039211-0.88858-0.055807-0.78206-0.10929-0.62772-0.11637-2.4443-0.54282-1.6219-0.285-0.72468-0.085035-0.84596-0.060663-0.99818-0.010501-1.0613 0.056613-2.7018 0.2964-1.1913 0.095397-0.70693 0.016584-0.62352-0.041434-0.73332-0.14119-0.54504-0.19167-0.52443-0.25494-0.59209-0.34028-1.4445-0.88524-0.91476-0.46852-2.6668-1.1947-0.67884-0.25212-0.83927-0.26546-0.97036-0.24445-0.51271-0.098832-0.65191-0.090588-0.64428-0.05484-0.74266-0.02827-1.0458 0.001882-0.63807 0.023173-0.9287 0.07325-1.4083 0.18973-1.4709 0.29764-0.85658 0.22374-1.6681 0.51528-0.87847 0.30489-1.7452 0.65704-1.8222 0.74128-2.5033 1.0776-2.1057 0.94938-2.5046 1.1866-2.5 1.2783-1.1473 0.64393-0.85923 0.52559-0.82686 0.56756-0.5987 0.49227-0.30823 0.3475-0.073607 0.17493 0.047599 0.060961-0.19426 0.1206-0.78398 0.68973-0.58093 0.57105-0.50405 0.54125-0.49842 0.58975-0.43801 0.57595-0.7883 1.1844-1.8713 3.2648-0.5864 1.13-0.37567 0.96416-0.35081 1.1713-0.19869 0.58471-0.32329 0.77763-0.30509 0.63093-0.32181 0.57869-0.33463 0.5064-0.53262 0.66139-0.44004 0.44566-0.44217 0.38685-0.7118 0.54096-3.8708 2.5907-1.747 1.2714-2.3983 1.6176-1.167 0.81492-3.158 2.4745-1.2601 0.89179-4.7423 2.8977-3.3759 1.7987-2.1134 1.0521-0.78414 0.41828-0.66366 0.40408-0.46727 0.33099-0.394 0.33271-0.083412 0.09549-0.014801 0.050337-0.13581-0.073232-0.2638-0.016577-0.40245 0.03207-0.48066 0.080156-0.86795 0.22905-0.50838 0.18567-0.56543 0.24643-2.0943 1.0352-2.6676 1.1891-1.7733 0.87918-2.234 1.2358-2.9745 1.795-1.0277 0.53938-1.076 0.49636-0.99513 0.40576-1.0816 0.38979-0.8163 0.26267-0.87441 0.247-0.60986 0.14273-0.59278 0.10748-0.69642 0.075912-0.76839-0.001725-0.82506-0.12346-0.60936-0.16626-0.50066-0.18091-0.53732-0.23795-0.83081-0.45891-0.75732-0.51706-0.8251-0.68338-0.75153-0.7647-0.41519-0.50471-0.26284-0.36178-0.49375-0.7822-0.47032-0.87592-0.26016-0.5653-0.3018-0.85167-0.1346-0.58926-0.095285-0.71549-0.12564-1.4012-0.10898-0.60535-0.17772-0.66684-0.20231-0.57547-0.30571-0.7087-1.1242-2.158-0.51067-1.0587-0.73984-1.7158-0.64998-1.6286-1.0187-2.8515-1.0579-3.1622-0.50787-1.723-0.12486-0.52688-0.050416-0.3297 0.013626-0.050024 0.059959-0.21543 0.016074-0.44064-0.01326-0.44962-0.078182-0.83599-0.22638-1.3817-0.20213-0.93097-0.2409-0.94123-0.4455-1.4353-0.26548-0.71009-0.29212-0.67851-0.36306-0.71324-0.40947-0.65344-0.31041-0.40831-0.45735-0.51722-0.57876-0.57239-1.3787-1.2554-0.7085-0.7294-1.4276-1.8603-0.28019-0.30925-0.3244-0.32549-0.7091-0.64174-2.6958-2.2211-0.35597-0.33739-0.38874-0.43604-0.27158-0.37385-0.24467-0.41196-0.28219-0.59584-0.30178-0.84831-0.53145-2.2622-0.22966-0.77982-0.30976-0.73758-0.14927-0.26984-0.38876-0.56331-0.51463-0.5635-0.44312-0.37709-0.77934-0.49677-0.83836-0.39799-1.9522-0.79521-1.5792-0.84425-1.2142-0.59417-1.443-0.6255-0.87634-0.34888-1.2313-0.45892-3.4123-1.1653-0.95126-0.37605-0.79103-0.3744-0.74489-0.43668-0.67958-0.51194-0.23898-0.21715-0.45667-0.47978-0.50919-0.64286-0.54039-0.80981-0.40918-0.69391-1.259-2.2741-0.48718-0.72663-0.16016-0.12122-0.034629-0.061626-0.11632-0.075043-0.31588-0.1282-0.64392-0.14473-0.78053-0.053222-0.47731 0.018876-0.41671 0.048546-0.48687 0.094681-0.45479 0.12638-0.75778 0.28848-0.82059 0.4361-1.0706 0.7111-0.4096 0.23105-0.39965 0.1826-0.46027 0.1549-0.53577 0.11124-0.33906 0.042676-2.4951 0.16975-0.87148 0.12291-0.5284 0.12048-0.45037 0.14611-0.32695 0.14557-0.22393 0.12862-0.40985 0.32286-0.7283 0.77203-0.47793 0.42693-0.31262 0.20864-0.32862 0.1735-0.42961 0.13461-0.3154 0.01853-0.94007-0.12444-0.30758-0.072972-0.27746-0.13802-0.25636-0.25969-0.21449-0.33632-0.50524-0.98588-0.28873-0.46224-0.18031-0.22179-0.23979-0.22833-0.34296-0.22826-0.38584-0.17724-0.4105-0.13331-0.4137-0.094769-0.46712-0.068366-0.36665-0.019514-0.17561 0.034773 0.063514-0.11928-0.069159-0.084352-0.25137-0.058144-0.39245-0.01073-0.49083 0.021075-2.1624 0.1387-0.96219-0.010558-0.40498-0.042972-0.55917-0.12953-0.47678-0.2278-0.38379-0.34591-0.30548-0.43412-0.25793-0.48874-0.48253-1.027-0.27514-0.48797-0.75652-1.0167-0.34763-0.54474-0.2666-0.62395-0.20258-0.69056-0.47687-2.2446-0.19405-0.74194-0.2544-0.7075-0.34651-0.65166-0.37585-0.48547-0.65947-0.6417-0.845-0.67544-5.473-3.8756-0.94025-0.6933-1.3545-1.0462-1.4552-1.1826-1.2382-1.0479-3.8846-3.4051-0.59244-0.46487-0.26231-0.16522 0.67027-0.70056 0.28202-0.33708 0.3147-0.45012 0.22605-0.39626 0.31698-0.68642 0.30691-0.8209 0.2046-0.69085 0.10136-0.57492 0.093979-1.8016-0.017742-0.45872-0.051751-0.50749-0.15097-0.72263-0.60541-2.1753-0.15003-0.90037-0.046324-0.66246 0.023734-1.0032 0.14298-1.3024 0.2549-1.2223 0.10537-0.295 0.12289-0.21891 0.20943-0.23799 0.25327-0.20204 0.34294-0.20847 0.41774-0.20713 1.0088-0.41532 1.0828-0.3428 0.44806-0.16571 2.2835-1.1187 0.75771-0.30522 0.51198-0.14493 1.0131-0.17999 1.2371-0.13031 1.5231-0.10721 0.011407-0.48602 0.12125-1.5107 0.10436-0.89026 0.19479-1.0941 0.25415-1.2398 0.24336-0.98383 0.76233-2.381 0.17745-0.66637 0.070578-0.32958 0.14127-0.95636 0.059397-1.0672-0.008771-0.57599-0.057696-0.79258-0.1039-0.77721-0.15528-0.80716-0.19668-0.77291-0.29063-0.86736-0.36101-0.77781-0.44968-0.65808-0.5627-0.501-0.39415-0.20713-0.4362-0.14816-0.68931-0.1293-0.74399-0.049601-0.731 0.009483-0.70345 0.046029-1.5924 0.19016-2.4931 0.41001-0.75191 0.097767-0.69242 0.040117-0.70344-0.062808-0.56259-0.23157-0.34452-0.36651-0.22987-0.5021-0.13091-0.60867-0.045007-0.83008 0.048423-0.9165 0.095217-0.82398 0.13825-0.89588 0.87233-4.4908 0.24541-1.6216 0.041609-0.64792-0.028763-0.67124-0.11483-0.66842-0.19465-0.62545-0.27095-0.61601-0.42743-0.74975-0.51065-0.73014-0.56234-0.69147-0.60309-0.66227-0.73163-0.73164-1.1158-1.0166-0.8235-0.69713 0.74252-0.22742 1.4676-0.33397 1.3728-0.25894 0.97941-0.12524 0.9544-0.065126 0.84145-0.016273 1.2422 0.070379 0.6346 0.085896 0.77439 0.15078 0.85869 0.22035 2.3178 0.70716 1.9332 0.52669 0.98418 0.3087 1.0525 0.41494 2.0651 0.98098 0.66572 0.28865 0.918 0.34008 0.80835 0.23787 1.2531 0.27566 0.86826 0.15729 0.87887 0.1153 0.65088 0.057908 0.55395 0.031612 1.0202 0.009708 0.94225-0.053463 0.64567-0.070981 0.71761-0.11546 0.76387-0.16674 1.1822-0.32371 3.7716-1.2644 2.3144-0.68443 1.1753-0.44786 1.1541-0.53641 0.74309-0.38842 0.78156-0.4498 1.7445-1.1062 0.82287-0.44757 3.9871-1.8661 2.1148-1.0438 1.4021-0.79676 0.41456-0.3079 0.085873-0.09643-0.003537-0.042688 0.24043-0.27276 1.2674-1.2779 0.68415-0.74486 1.3642-1.584 1.3742-1.6558 0.67742-0.90247 0.49214-0.72497 0.49255-0.80855 0.48066-0.8907 0.59348-1.2834 0.5027-1.3118 0.34287-1.0692 0.71921-2.5407 0.7992-2.6136 0.61413-1.7996 0.66199-1.7595 1.1489-2.6321 1.8595-3.8231 1.0715-2.2974 0.6709-1.5244 0.51418-1.3269 0.26356-0.8691 0.15021-0.67298 0.092958-0.6968 0.033429-0.78702-0.01605-0.47866-0.063744-0.65164-0.48667-3.5416-0.17367-1.8604-0.058236-1.0453-0.032433-1.9049 0.02984-1.409 0.066591-1.3245 0.1509-1.7039 0.25549-1.7544 0.23644-1.1208 0.19048-0.70282 0.22325-0.64998 0.25226-0.55513 0.29496-0.47438 0.24997-0.29165 0.20493-0.17085 0.14505-0.080365 0.32443 0.023661 0.20088 0.068017 0.46256-0.011742 0.77969-0.11105 1.0484-0.24623 1.1503-0.38396 1.0328-0.4527 1.0377-0.54579 1.0321-0.61662 1.3579-0.89879 1.3321-0.95633 1.3046-0.99029 2.5331-2.0246 7.2457-5.9947 2.4081-1.8679 1.2258-0.87976 1.7395-1.1362 0.88486-0.52619 1.0035-0.55326 1.0114-0.51248 1.0155-0.46884 1.0156-0.42001 1.0385-0.37919 2.0005-0.68136 1.0168-0.38625 0.75398-0.35259 0.52701-0.31292 0.59076-0.42219 0.5505-0.4587 1.6454-1.5159 0.49701-0.33064 0.44138-0.087095 0.16807 0.057428 0.25347 0.2305 0.31031 0.60005 0.25198 0.83701 0.213 1.009 0.77348 4.8417 0.24915 1.2363 0.30741 1.1823 0.34115 0.97317 0.22667 0.50022 0.32169 0.56173 0.63344 0.74869 0.82957 0.55119 0.97233 0.35848 1.0699 0.20566 1.1286 0.080805 1.1522-0.026798 1.1421-0.12706 1.0977-0.22951 1.0155-0.34374 0.88982-0.47987 0.7124-0.64896 0.4965-0.84868 0.31442-1.0089 0.18136-1.1242 0.088508-1.2034 0.029395-1.2528-0.002352-2.554 0.023463-1.2548 0.07911-1.2078 0.16938-1.1325 0.30138-1.0235 0.48494-0.87273 0.7391-0.71021 0.93969-0.54657 1.089-0.42545 1.1987-0.3376 1.2776-0.27575 1.3331-0.23436 1.3701-0.20944 4.196-0.61037 1.3881-0.23826 1.3623-0.27805 1.3213-0.33439 1.2614-0.41024 2.4067-0.99848 1.2362-0.40002 1.2393-0.20745 1.3151-0.059804 1.3717 0.057076 1.4058 0.1477 1.4107 0.21475 1.3753 0.25862 1.2819 0.27658 2.2255 0.53625 1.1558 0.36526 1.1559 4.3635" stroke="#bdc660"/>
    </defs>
    <g clip-path="url(#pa27df6f14e)">
     <use y="280.512" fill="#bdc660" stroke="#bdc660" xlink:href="#ma86b25ae46"/>
    </g>
   </g>
  </g>
 </g>
 <defs>
  <clipPath id="pa27df6f14e">
   <rect x="7.2" y="7.2" width="299.93" height="266.11"/>
  </clipPath>
 </defs>
</svg>
