<?xml version="1.0" encoding="UTF-8"?>
<!DOCTYPE svg  PUBLIC '-//W3C//DTD SVG 1.1//EN'  'http://www.w3.org/Graphics/SVG/1.1/DTD/svg11.dtd'>
<svg width="368.9pt" height="280.51pt" version="1.1" viewBox="0 0 368.9 280.51" xmlns="http://www.w3.org/2000/svg" xmlns:xlink="http://www.w3.org/1999/xlink">
 <metadata>
  <rdf:RDF xmlns:cc="http://creativecommons.org/ns#" xmlns:dc="http://purl.org/dc/elements/1.1/" xmlns:rdf="http://www.w3.org/1999/02/22-rdf-syntax-ns#">
   <cc:Work>
    <dc:type rdf:resource="http://purl.org/dc/dcmitype/StillImage"/>
    <dc:date>2024-07-04T12:10:42.104751</dc:date>
    <dc:format>image/svg+xml</dc:format>
    <dc:creator>
     <cc:Agent>
      <dc:title>Matplotlib v3.7.1, https://matplotlib.org/</dc:title>
     </cc:Agent>
    </dc:creator>
   </cc:Work>
  </rdf:RDF>
 </metadata>
 <defs>
  <style type="text/css">*{stroke-linejoin: round; stroke-linecap: butt}</style>
 </defs>
 <g id="figure_1">
  <g id="patch_1">
   <path d="m-0 280.51h368.9v-280.51h-368.9v280.51z" fill="none"/>
  </g>
  <g id="axes_1">
   <g id="PatchCollection_1">
    <defs>
     <path id="maf36085ef1" d="m121-257.01 1.6922 5.0579 1.6294 4.561 1.0396 2.6049 1.1834 2.7445 0.81682 1.6934 1.7981 3.4517 0.48898 1.1336 0.32359 0.92047 0.28427 1.0666 0.17431 0.96826 0.20096 2.2412 0.15241 1.1444 0.21528 0.94251 0.48273 1.3622 0.41612 0.90419 0.75228 1.401 0.78975 1.2511 0.42041 0.57866 0.6641 0.80728 1.2021 1.2231 1.3197 1.0931 1.2113 0.82704 1.3289 0.73403 0.85944 0.38059 0.8008 0.28936 0.97466 0.26593 1.3197 0.19747 1.229 0.002759 1.1139-0.12142 0.94815-0.17191 0.97546-0.2283 1.3986-0.39508 1.3057-0.42014 1.73-0.62346 1.5917-0.64902 1.721-0.79392 1.6437-0.86274 4.7577-2.8712 3.5732-1.9767 2.8363-1.4062 4.2668-1.9019 3.3498-1.6558 0.9044-0.39416 0.81315-0.29697 1.3883-0.36636 0.76882-0.12821 0.64372-0.051296 0.42195 0.026515 0.21723 0.11713-0.027069 0.36658-0.26965 0.47121-0.44808 0.51015-2.0903 1.6855-0.39756 0.44855-0.15379 0.2472-0.13046 0.32941-0.050106 0.40547 0.043404 0.312 0.11404 0.33262 0.23874 0.44763 0.47012 0.65506 1.2502 1.4899 0.52122 0.67966 0.40235 0.61841 0.28928 0.54389 0.65304 1.732 1.0063 3.3823 0.29667 1.2617 0.16451 1.2933 0.14434 6.5725-0.045895 1.5058-0.07389 0.90379-0.16796 1.1638-0.59245 2.4704-0.41292 1.5087-0.88139 2.8219-0.25417 1.0526-0.11244 0.82315-0.043206 0.97095 1.36e-4 1.0138 0.086477 0.77291 0.2593 0.83108 0.43947 0.79456 0.54868 0.67594 0.7197 0.72332 1.9215 1.7621 0.67609 0.69327 2.2839 2.5813 2.0664 2.2381 2.3916 2.6929 1.6344 1.6506 1.9805 1.8899 0.81429 0.86091 0.65774 0.77906 0.69506 0.93992 0.62407 0.97157 0.57761 1.024 0.67532 1.4034 0.21623 0.55386 0.033008 0.19932 0.14798-0.037081 0.22192 0.05813 0.45595 0.20886 2.5802 1.5443 1.3837 0.95739 2.3013 1.7333 0.88232 0.60098 0.85565 0.52142 0.86082 0.45851 1.1367 0.5182 3.9686 1.479 1.0784 0.43798 0.90959 0.41847 0.9492 0.51161 2.4386 1.4787 1.6045 0.90504 5.3096 2.6503 1.4662 0.63548 0.78046 0.28317 1.3525 0.36572 1.4475 0.21856 0.96544 0.033916 1.0591-0.075734 1.0342-0.1817 0.83699-0.21289 0.84486-0.25846 4.9164-1.6796 1.3249-0.41237 1.5633-0.43292 1.4109-0.31354 0.83552-0.12583 0.78424-0.056775 0.69066 0.010522 1.2542 0.16446 2.3599 0.50772 0.68358 0.11074 1.2307 0.10811 0.72245 8.76e-4 0.7475-0.059166 0.67584-0.11537 0.55925-0.14299 0.70777-0.2376 1.1814-0.4935 3.7423-1.6826 1.7234-0.83717 0.86816-0.46406 1.3578-0.81408 1.8846-1.2835 1.4596-1.157 0.89675-0.77034 6.9814-6.2279 4.1712-3.3076 1.5689-1.1552 0.96579-0.64271 1.3853-0.77935 0.97893-0.42875 0.80237-0.26711 0.83718-0.19097 0.72579-0.08968 1.0616-0.002368 0.57364 0.062511 1.1656 0.26056 0.9915 0.33901 1.3949 0.58925 2.2579 1.094 1.9486 1.0382 3.3022 1.8942 1.5284 0.95654 1.0663 0.77906 0.70365 0.63528 0.81235 0.94304 0.62885 0.93728 1.9396 3.3125 0.89838 1.395 1.1376 1.5 1.0418 1.0844 1.0675 0.87959 0.96628 0.6633 0.77847 0.46937 1.7469 0.91527 3.2001 1.5058 1.8801 1.0018 0.97303 0.56362 0.84321 0.54939 0.49687 0.38296 0.42138 0.38511 0.68052 0.80786 0.42761 0.68636 0.24564 0.47366 0.83175 1.9789 0.74024 2.1847-0.2242 0.13827-0.25415 0.31363-0.2866 0.502-0.21258 0.47478-0.34987 1.1098-0.1524 1.0209-0.009196 0.59789 0.10954 0.91765 0.24747 0.9226 0.70194 1.5938 0.4178 0.72025 0.84549 1.1782 0.9784 1.1192 3.7488 3.8254 4.277 4.6496 1.0889 1.3043 0.62318 0.86194 0.72843 1.2029 0.57817 1.1917 0.49958 1.2905 1.839 5.7854 2.5063 7.4932 0.44066 1.4151 0.50969 1.9676 0.29674 1.6598 0.10751 1.1821 0.021773 1.1929-0.13031 1.9591-0.13919 0.99969-0.25871 1.3364-0.55999 2.098-0.46041 1.4162-0.97878 2.7876-0.72929 1.9378-1.037 2.5656-0.56605 1.2837-1.159 2.4336-0.49923 0.9531-0.29292 0.47851-1.5066 2.0771-0.6418 0.77206-0.39748 0.4101-1.0706 0.91995-1.2189 0.85844-1.3469 0.73002-1.2321 0.47677-1.1917 0.27427-1.0732 0.12237-1.2599 0.034739-1.1098-0.064475-2.4773-0.29919-1.2448-0.087233-1.6204-0.018369-1.74 0.066096-1.4699 0.10257-1.4864 0.16989-1.0006 0.1702-1.7442 0.43668-1.6102 0.5853-1.5328 0.75634-0.8281 0.51287-0.60384 0.42993-0.86225 0.69588-0.82551 0.74686-1.4325 1.4364-2.6083 2.8456-0.90924 1.1085-0.571 0.78795-0.71344 1.2164-0.60625 1.5672-0.2906 1.1244-0.39394 2.253-0.3803 2.8479-0.47602 3.1303-0.19743 1.7934-0.021802 1.592 0.062716 1.1477 0.14446 1.4057 0.18277 1.3169 0.52538 3.1109 0.72117 3.8246 0.42003 2.0101 0.1933 0.6106-0.052887 0.10927-0.36552 0.24454-0.82137 0.36143-1.8744 0.57954-1.0318 0.3569-0.74632 0.3262-1.2243 0.66456-1.5559 1.0561-1.2215 0.9723-1.4297 1.2371-0.47724 0.47715-0.31246 0.4133-0.21971 0.42665-0.1575 0.71106-0.04271 1.0986-0.06888 0.3984-0.16266 0.40733-0.45519 0.56962-0.48338 0.39096-0.57289 0.34864-0.62708 0.2981-0.58954 0.22834-0.96221 0.30055-1.5131 0.3392-1.4138 0.19789-0.87917 0.059028-0.90726-0.006345-3.2049-0.35159-0.98163 0.025658-0.98291 0.12646-2.0917 0.4298-0.88224 0.13356-1.3254 0.12709-1.1712 0.014024-0.75904-0.052658-1.1824-0.16264-3.0237-0.65097-2.9306-0.55564-4.0921-0.87047-1.1913-0.20763-1.866-0.21526-2.0915-0.098501-2.9804-0.034527-5.2036 0.10224-3.8657 0.015884-1.4605 0.076022-0.045629 0.24564-0.19236 0.38261-0.64956 1.0392-1.0529 1.3849-0.67654 0.75028-0.73601 0.70462-1.322 0.9833-1.2299 0.59002-0.87699 0.23166-1.0065 0.10585-1.3814-0.066159-1.4198-0.26437-1.7852-0.57952-1.0488-0.44387-1.0295-0.49998-0.91626-0.49572-1.2236-0.73493-1.8497-1.2502-0.90361-0.67669-1.3651-1.1496-0.54401-0.53751-0.45543-0.56372-0.39599-0.71359-0.36043-1.2714-0.11077-0.93377-0.012994-0.75819 0.038595-0.77955 0.36364-3.221 0.12233-1.6064-0.044678-1.5281-0.27296-1.3469-0.24176-0.63719-0.39841-0.78345-0.83351-1.2566-1.2298-1.4901-0.91796-0.97392-0.85711-0.83396-1.1608-1.0199-0.85187-0.68023-0.87836-0.65277-1.0027-0.68238-1.1851-0.6806-1.4268-0.56495-0.37032-0.11216-1.0895-0.24876-1.0433-0.12887-0.68116-0.016536-0.65352 0.073537-0.85023 0.29095-0.78906 0.52385-0.91637 1.063-0.64761 1.1112-0.5827 1.2653-2.2004 5.8599-0.83865 1.9313-0.50628 1.0167-0.60415 1.087-0.66566 1.0754-0.66122 0.97518-0.94347 1.2741-0.86624 1.0741-1.3029 1.4789-1.0748 1.1178-1.2881 1.2332-1.2957 1.1343-1.1631 0.93779-1.364 1.0185-2.0198 1.3657-1.1663 0.70564-0.73889 0.40173-0.75963 0.3267-0.13934-0.018298-0.95914-1.8678-0.71576-1.2906-1.3356-2.1847-0.73863-1.0968-1.2917-1.7489-1.2882-1.5321-1.3378-1.356-0.84825-0.7256-0.86261-0.62181-0.89833-0.51291-0.46966-0.21051-1.0999-0.35-1.1044-0.1444-0.39406 0.001938-0.98806 0.11904-1.2432 0.34522-1.2045 0.50363-1.1038 0.5916-1.1743 0.76244-8.6597 6.5769-2.0088 1.356-1.2791 0.76169-1.0718 0.57248-1.2809 0.60919-1.2839 0.5403-1.0633 0.39974-1.3884 0.4437-1.4103 0.32185-1.3636 0.13705-1.6138-0.10241-9.32-1.5145-2.5307-0.35806-1.2514-0.13112-1.2483-0.070911-1.186 0.010551-1.5964 0.13404-1.9458 0.2247-1.2839 0.087503-1.2914-0.040328-0.8393-0.1218-0.98181-0.22794-1.0759-0.33389-1.0584-0.39718-1.1895-0.51264-1.2729-0.61204-1.8319-0.97487-1.972-1.1553-1.3443-0.84716-2.1206-1.4214-8.245-5.8212-0.53747-0.36135-0.32473-0.15858 0.15759-0.078222 0.3994-0.37033 0.62961-0.65854 1.0637-1.2044 1.2003-1.4862 1.203-1.7246 0.67909-1.195 0.41824-0.91297 0.33961-0.94655 0.314-1.2019 0.19258-1.1268 0.089208-0.87785 0.05507-1.4348-2.87e-4 -2.4265 0.049867-0.89868 0.1515-0.90294 0.16892-0.50629 0.20896-0.39878 0.59948-0.63807 0.54169-0.31749 0.34303-0.13207 0.96124-0.18178 0.99103 0.013854 1.0037 0.17405 2.1463 0.6712 1.3727 0.33143 0.99389 0.15496 2.6675 0.23041 0.97341 0.14444 1.5093 0.34459 1.5497 0.45213 4.8483 1.6351 1.312 0.39888 1.1498 0.30415 1.5464 0.32792 1.0478 0.15934 1.6198 0.1177 0.9563-0.014216 0.97722-0.086732 1.0141-0.18328 0.65757-0.18363 0.55597-0.20911 0.57119-0.2864 0.39181-0.25364 0.64944-0.54214 0.70943-0.78317 0.59601-0.83322 0.4428-0.77132 0.50444-1.1737 0.24312-0.83522 0.17863-1.055 0.062299-1.2268-0.056369-1.1725-0.25846-1.7182-0.39945-1.6627-0.67734-2.1634-0.68849-1.7022-0.68833-1.2217-0.6919-0.9284-0.73037-0.71504-0.29153-0.097802-1.3649-1.554-1.4707-1.7513-0.69813-0.88346-1.0303-1.4149-0.86882-1.3987-0.78507-1.7599-0.28672-1.1418-0.17129-1.3831-0.055265-1.1731-0.055899-5.6032 0.06538-1.9195 0.13478-1.0974 0.18168-0.86117 0.86881-2.8864 0.30238-1.1792 0.16122-0.89145 0.094599-1.0175-0.025098-0.91456-0.19486-1.094-0.1524-0.49405-0.23264-0.5531-0.44534-0.76502-0.53624-0.70885-0.65087-0.68489-0.58647-0.52125-0.75048-0.57533-0.93349-0.61668-2.7683-1.6018-2.7357-1.6532-1.417-0.89922-1.8529-1.3233-3.143-2.3988-1.08-0.93153-0.95199-0.92327-2.8568-3.139-1.9092-1.954-1.4902-1.388-1.1694-0.97778-0.79508-0.55636-1.2043-0.64063-0.61191-0.25091-0.79831-0.26788-1.2662-0.31377-1.3531-0.21191-1.1771-0.054653-0.87318 0.064077-0.67945 0.10644-1.0256 0.22774-1.8219 0.51363-2.6093 0.82497-8.617 3.1065-3.943 1.5635-1.2855 0.58753-1.6139 0.94483-2.6798 1.8205-1.3721 0.83214-1.5183 0.77167-2.5262 1.0512-1.2783 0.5887-1.8497 0.97496-1.1614 0.69068-0.98678 0.64764-0.91515 0.66326-1.0606 0.86161-0.87801 0.80973-0.86674 0.91596-0.91631 1.1526-0.66104 1.0176-0.39231 0.73105-0.36346 0.83204-0.51884 1.6345-0.96775 4.3897-0.27126 0.92605-0.19479 0.52452-0.27044 0.57983-0.44657 0.68304-0.2907 0.30981-0.28654 0.22541-0.31157 0.17006-0.55363 0.14156-0.46348-0.009468-0.33012-0.062484-0.51159-0.1651-1.382-0.54153-0.47-0.1071-0.66441-0.033255-0.40677 0.043999-0.96132 0.24812-2.5242 0.93901-1.7573 0.55467-1.0484 0.28875-2.1421 0.51119-1.4892 0.2775-1.0877 0.096032-0.87845-0.091894-0.62303-0.22157-0.4657-0.26866-0.48972-0.39217-0.37057-0.38696-0.36556-0.48281-0.37802-0.63511-0.28266-0.59005-0.36084-0.94758-0.42646-1.6226-0.21433-1.3113-0.33122-2.8607-0.057708-1.5403 0.12678-1.4325 0.53762-3.1043 0.1634-1.2411 0.046666-0.70311 0.00343-0.98276-0.14336-1.8683-0.30961-2.1668-0.39298-2.1253-1.2807-5.272-1.0082-5.1246-0.87824-3.558-0.57748-2.6892-0.24207-1.2193-0.056125-0.58229 0.039291-0.59044 0.23257-0.79334 0.41865-0.80419 0.56502-0.8006 0.67414-0.78777 0.75287-0.7687 1.2919-1.1597 0.88698-0.70822 1.8364-1.3161 2.0541-1.3074 0.97228-0.55428 2.5843-1.33 1.4272-0.86559 1.4692-0.9806 3.6472-2.5991 0.60057-0.35553 0.52258-0.23524 0.37394-0.11335 1.5314-0.3009 0.35112-0.14938 0.38758-0.26993 0.59786-0.61518 0.56216-0.73704 0.42965-0.63796 1.0004-1.6655 0.84154-1.5318 0.56928-1.2195 0.32807-1.0109 0.58675-2.0505 0.4446-0.97619 0.58267-0.82394 0.73325-0.76466 0.84476-0.70851 0.91526-0.64915 1.2229-0.74247 0.81573-0.43536 1.1855-0.53767 0.12895 0.012242 0.27949-0.077079 0.55274-0.28454 0.52497-0.35544 0.91528-0.79534 0.72675-0.82214 0.35076-0.476 0.45436-0.73624 0.37778-0.80602 0.1575-0.43915 0.18715-0.70298 0.11219-0.66431 0.064556-0.7938-0.046391-1.4502-0.21677-1.4278-0.44786-1.7606-0.59752-1.7539-0.81958-2.0261-1.1813-2.5996-1.0044-1.9559-3.1193-5.775-3.9982-7.1049-0.90328-1.8169-0.36761-0.89849-0.35127-1.0663-0.20055-0.79852-0.16013-0.86917-0.097045-0.78401-0.068134-1.1952 0.016223-1.0474 0.13748-1.4195 0.27287-1.3655 0.16594-0.57899 0.32122-0.88279 0.70489-1.4031 1.9124-3.1586 0.97532-1.7859 0.35862-0.76243 0.45491-1.1617 0.31697-1.0835 0.23773-1.1188 0.21138-1.527 0.1085-1.5148 0.018916-2.0819-0.066394-1.5049-0.12852-1.4869-0.16168-1.2666-0.27492-1.5835-0.7312-3.3663-0.078019-0.4669-0.10577-1.1409 0.035049-1.0757 0.19258-0.9785 0.23568-0.60158 0.17598-0.31551 0.11636-0.17224 0.65325-0.67311 0.88133-0.50295 0.73776-0.18682 0.38397-0.045032 0.59308-0.024341 1.1923 0.04709 6.1886 0.46548 3.539-0.050512 1.2042-0.054566 1.1503-0.14471 1.0692-0.26819 0.53598-0.19252 0.61658-0.27902 0.80034-0.50381 0.80103-0.81627 0.59768-1.0016 0.46738-1.3878 0.64677-3.2744 0.24731-0.92096 0.28731-0.74818 0.55639-0.91987 0.9184-0.8401 1.145-0.60648 1.0742-0.3669 1.9437-0.53074 2.2449-0.49359 1.3499-0.24485 1.973-0.28505 1.5665-0.1642 6.7409-0.55888 2.5434-0.15222 1.6868-0.004853 4.0467 0.24448 1.9263-0.020178 1.1228-0.11304 1.1574-0.23367 0.82056-0.24241 1.8247-0.70876 6.2074-2.8087 1.24-0.6666 0.63934-0.41199 0.34182-0.28631-0.021794 0.080013 0.080641 0.52736 0.19971 0.84275 0.81233 2.7559" stroke="#bdc660"/>
    </defs>
    <g clip-path="url(#p4f63b6ffa3)">
     <use y="280.512" fill="#bdc660" stroke="#bdc660" xlink:href="#maf36085ef1"/>
    </g>
   </g>
  </g>
 </g>
 <defs>
  <clipPath id="p4f63b6ffa3">
   <rect x="7.2" y="7.2" width="354.5" height="266.11"/>
  </clipPath>
 </defs>
</svg>
