<?xml version="1.0" encoding="UTF-8"?>
<!DOCTYPE svg  PUBLIC '-//W3C//DTD SVG 1.1//EN'  'http://www.w3.org/Graphics/SVG/1.1/DTD/svg11.dtd'>
<svg width="335.3pt" height="280.51pt" version="1.1" viewBox="0 0 335.3 280.51" xmlns="http://www.w3.org/2000/svg" xmlns:xlink="http://www.w3.org/1999/xlink">
 <metadata>
  <rdf:RDF xmlns:cc="http://creativecommons.org/ns#" xmlns:dc="http://purl.org/dc/elements/1.1/" xmlns:rdf="http://www.w3.org/1999/02/22-rdf-syntax-ns#">
   <cc:Work>
    <dc:type rdf:resource="http://purl.org/dc/dcmitype/StillImage"/>
    <dc:date>2024-07-04T12:10:46.667556</dc:date>
    <dc:format>image/svg+xml</dc:format>
    <dc:creator>
     <cc:Agent>
      <dc:title>Matplotlib v3.7.1, https://matplotlib.org/</dc:title>
     </cc:Agent>
    </dc:creator>
   </cc:Work>
  </rdf:RDF>
 </metadata>
 <defs>
  <style type="text/css">*{stroke-linejoin: round; stroke-linecap: butt}</style>
 </defs>
 <g id="figure_1">
  <g id="patch_1">
   <path d="m-0 280.51h335.3v-280.51h-335.3v280.51z" fill="none"/>
  </g>
  <g id="axes_1">
   <g id="PatchCollection_1">
    <defs>
     <path id="mcdec7d551f" d="m255.27-259.8 0.34843 0.5473 0.21191 0.60638 0.047842 0.68276-0.08838 0.72615-0.17693 0.7564-0.45696 1.5655-0.20379 0.79494-0.13389 0.79541-0.017445 0.79065 0.13801 0.7911 0.2656 0.7871 0.35222 0.78934 0.8191 1.6106 0.39577 0.83445 0.33533 0.8629 0.23125 0.8975 0.094575 0.94656-0.026137 0.96518-0.11561 0.95516-0.17452 0.90363-0.19923 0.79002-0.18034 0.58274-0.10333 0.23417 2.2449 0.66229 0.8533 0.28564 0.82877 0.31582 0.9009 0.3854 0.49395 0.24582 0.36714 0.22846 0.56825 0.40301 0.39704 0.22008 0.89941 0.37395 0.6224 0.18312 0.3086 0.056443 1.233 0.094116 0.2741-0.003957 0.26063-0.031175 0.24101-0.070419 0.23909-0.13316 0.2203-0.17351 0.79703-0.71593 0.18213-0.13892 0.20078-0.10987 0.18672-0.061408 0.20408-0.037546 0.30754-0.022218 0.68228 0.029619 0.73512 0.089272 1.5561 0.24404 0.089607 0.28288 0.24196 0.4843 0.36012 0.62748 0.29363 0.46315 0.72504 1.0239 0.66423 0.83071 0.80761 0.9172 1.7858 1.8636 3.0469 3.0855 0.97123 0.88199 0.81864 0.6474 0.77324 0.5202 0.56564 0.32816 0.65569 0.3369 1.377 0.60709 0.76978 0.29574 1.1007 0.37512 2.3096 0.72387 2.0111 0.68486 1.7306 0.53851 0.8742 0.29876 1.4824 0.58673 0.99127 0.46114 0.74349 0.38394 1.5396 0.87088 3.3953 2.0641 3.6105 2.3732 0.70586 0.51878 0.53415 0.45432 0.27642 0.27218 0.45538 0.51844 0.32876 0.43557 0.36179 0.54817 0.49967 0.91792 0.47676 1.0922 1.0804 2.853 1.3139 3.3129 0.48409 1.3984 0.2556 0.91865 0.20676 1.0167 0.20716 1.5754 0.071747 0.35458 0.02259-0.030877 0.030692 0.012826 0.023284 0.072137-0.008186 0.23148-0.080685 0.43784-0.14574 0.55519-0.30213 0.95413-0.8809 2.47-0.40508 1.2193-0.4511 1.4864-0.33581 1.2901-0.15971 0.81566-0.082175 0.60362-0.039819 0.68414 0.04247 1.0714-0.004284 0.42681-0.068029 0.49876-0.056485 0.21239-0.10646 0.2714-0.1919 0.31007-0.18126 0.19486-0.14099 0.11865-0.41533 0.26316-0.87766 0.43762-0.38041 0.31889-0.21366 0.3067-0.069515 0.15906-0.076579 0.27026-0.050363 0.3671-0.01193 0.29542 0.024649 0.54415 0.10455 0.74467 0.15712 0.73678 0.67297 2.4794 0.22564 0.98655 0.096908 0.66481 0.025221 0.65351-0.071912 0.69669-0.15464 0.68255-0.1922 0.62206-0.47739 1.2859-0.31654 0.65737-0.53872 0.80365-0.67275 0.77902-0.77264 0.76314-0.84484 0.75476-3.1686 2.6209-0.85399 0.73149-0.82184 0.75067-0.7694 0.7746-0.39181 0.43223-2.1819 2.609-0.28532 0.31954-0.7509 0.75584-0.46082 0.39881-0.49845 0.37663-0.45437 0.27949-0.24521 0.065591-0.008355-0.13254-0.069941-0.15034-0.17184-0.2096-0.2208-0.16222-0.3835-0.16798-1.3588-0.37461-0.18307-0.074409-0.72304-0.38466-0.37683-0.17804-1.4602-0.51047-0.44126-0.20237-0.98768-0.50033-0.42384-0.15123-0.38594-0.03768-0.36158 0.050202-0.96599 0.26683-0.54442 0.065911-0.54793-0.013366-1.4546-0.12736-0.55946-0.007481-2.1281 0.10212-1.3705 0.15036-0.41244 0.075571-0.79838 0.191-1.0687 0.32255-1.5098 0.55446-1.0914 0.47585-2.0031 0.94642-2.3867 1.0384-0.64158 0.35772-0.59427 0.42709-2.0636 1.5899-2.1204 1.5237-0.21653 0.19435-0.30104 0.3266-0.12884 0.16494-0.77325 1.1633-0.42126 0.47166-0.49221 0.40781-0.45614 0.26909-0.36461 0.13482-0.3966 0.069132-0.48614 0.003926-0.48651-0.057923-0.39356-0.077512-1.2148-0.30244-0.78196-0.15881-0.51052-0.06217-0.99717-0.013879-0.50982 0.047012-0.48134 0.076525-0.56646 0.13142-0.27127 0.083427-0.47725 0.22328-0.1792 0.23949-1.51e-4 0.15585 0.11862 0.66502 0.32125 1.5271 0.29219 0.99232 0.33967 0.85874 0.36637 0.72482 0.3125 0.51084 0.49689 0.69504 1.0576 1.3441 0.27118 0.42436 0.23824 0.48868 0.12167 0.35821 0.047666 0.20265 0.042442 0.40533-0.016147 0.24255-0.1087 0.39656-0.20514 0.37469-0.28639 0.33995-0.35721 0.31295-0.42792 0.29609-1.0433 0.57146-3.0577 1.4998-2.9167 1.5574-1.4075 0.7068-1.6047 0.72267-1.7386 0.64821-0.38641 0.1936-0.3373 0.22499-0.20961 0.18498-0.12758 0.14556-0.13095 0.20925-0.091655 0.28726-0.002919 0.46471 0.081862 0.45572 0.11628 0.43065 0.14936 0.4524 0.32646 0.77315 0.16377 0.29209 0.36391 0.53669 0.57367 0.70096 1.9155 2.042 0.55993 0.65739 0.52853 0.66756 1.1874 1.6329 0.28858 0.42704 0.34257 0.59809 0.29843 0.65477 0.16795 0.50733 0.089399 0.4247 0.040332 0.73367-0.0642 0.49877-0.11866 0.48463-0.28393 0.93376-0.090737 0.36759-0.057174 0.36855-0.015321 0.42113 0.028439 0.46862 0.22833 1.7252 0.021098 0.7551-0.14102 0.6954-0.11616 0.2472-0.26413 0.37715-0.27512 0.28679-0.29465 0.24926-0.54882 0.38878-0.546 0.34556-0.51577 0.29393-0.66398 0.30551-0.49208 0.15916-0.54729 0.10269-0.48438 0.024895-0.64535-0.026498-0.97415-0.11256-0.65343-0.049861-0.68499-0.003486-1.0161 0.06808-0.99698 0.12895-1.1121 0.20647-0.8072 0.20253-0.45974 0.16397-0.42591 0.19745-0.61738 0.3671-0.76626 0.57289-0.69841 0.59096-0.67834 0.62752-0.63521 0.65439-0.36236 0.41904-0.25428 0.33145-0.44408 0.69182-0.42024 0.709-0.36809 0.56237-0.40184 0.54421-0.42927 0.51075-0.65962 0.65468-0.19192 0.16341-0.35811 0.27008-0.39658 0.23295-0.40011 0.16543-0.42434 0.10452-1.1812 0.14293-0.2813 0.091919-0.15631 0.094407-0.042444 0.059652-0.082723 0.17316-0.23716 0.35876-1.9827 2.8099-0.32422 0.45656-0.57552 0.72766-1.1248 1.2822-1.5698 1.7136-3.6274 4.1516-2.7337 3.0435-0.95937 1.1488-0.40104 0.53225-0.3651 0.53433-0.4569 0.78867-0.34741 0.75741-0.66914 1.7056-0.44012 0.82943-0.50057 0.76772-0.62838 0.80506-0.70042 0.77426-0.75105 0.73873-0.78453 0.69538-0.78915 0.62815-0.78088 0.53419-0.45936 0.25616-0.75238 0.32827-1.7386 0.65989-0.97892 0.4102-0.99397 0.45171-0.99622 0.49451-0.98548 0.54174-0.80194 0.49211-0.77667 0.53464-0.74185 0.58379-0.6955 0.64221-0.51244 0.55674-0.48264 0.59398-0.727 1.0104-0.40663 0.61476-0.61452 0.98288-0.96836 1.6853-0.52883 0.98328-1.2798 2.4987-1.2652 2.5711-2.592 5.383-0.15354 0.2719-2.7754 5.5998-3.4889 7.52-1.1937 2.4836-1.1763 2.3332-0.58374 1.0793-0.58233 0.99266-0.5823 0.87377-0.58393 0.71072-0.58758 0.48828-0.5937 0.18735-0.55508-0.1567-0.16958-0.10889-0.44089-0.40764-0.43051-0.54836-0.42299-0.64481-1.4427-2.392-0.56307-0.79879-0.28988-0.35145-0.30384-0.32329-0.47541-0.41764-0.39942-0.27565-0.23338-0.13356-0.3842-0.1826-0.35451-0.13311-0.56003-0.14996-0.75018-0.10318-0.50165-0.015342-0.52814 0.025277-0.50923 0.063458-0.50595 0.1012-0.60182 0.16981-0.5801 0.21142-0.5706 0.2494-0.52399 0.26239-1.0828 0.63316-3.8834 2.5563-1.7749 1.2099-3.0744 2.1891-1.3246 0.85118-0.99777 0.54474-0.55236 0.24745-0.48386 0.17978-0.45423 0.14111-0.74581 0.17786-0.53376 0.091056-0.66293 0.083499-0.93447 0.056551-1.0931 7.72e-4 -1.204-0.05177-0.99864-0.094045-1.549-0.22854-2.7726-0.5191-0.50659-0.10695-0.57914-0.16999-0.53276-0.23124-0.40022-0.22908-0.50438-0.36012-0.48962-0.4175-0.9135-0.88896-0.34979-0.38901-1.2498-1.493-0.25373-0.25937-0.30978-0.25688-0.21569-0.13444-0.23699-0.11348-0.5016-0.16191-0.57996-0.096031-0.28871-0.00843-0.29731 0.022053-0.55803 0.11891-0.59511 0.20377-1.0232 0.43042-1.4548 0.68962-1.194 0.63845-0.53273 0.3197-0.52358 0.34163-0.93353 0.67893-0.66935 0.54017-1.4993 1.3435-0.89005 0.8564-1.4728 1.4692-1.2519 1.3084-2.5251 2.8451-0.45094 0.45799-0.75297 0.68595-0.57464 0.45074-0.33518 0.23158-0.47657 0.28802-0.65686 0.31553-0.68516 0.24112-0.56282 0.14426-0.64209 0.11603-0.46098 0.052161-0.88129 0.035912-0.80271-0.025311-0.66812-0.054346-2.9721-0.36093-3.3394-0.45508-0.83073-0.13362-0.97431-0.18598-0.96746-0.22516-3.3978-0.98017-0.83609-0.17738-0.64681-0.088327-0.33282-0.028075-0.85484-0.019378-0.4991 0.025891-0.43871 0.049315-0.32078 0.055259-0.3835 0.095526-0.21838 0.078459-0.22562 0.13408-0.043629 0.053525-0.018338 0.075832-1.1834-0.13226-0.66981-0.023616-0.4399 0.05637-0.60622 0.18911-0.22484 0.04828-0.34296 0.035454-0.22659-0.007284-0.42084-0.08315-0.51541-0.1797-0.45929-0.20686-0.67574-0.35136-0.019765 0.082466-0.060802 0.05767-0.10877 0.056008-0.20555 0.061819-0.33907 0.053637-0.40708 0.023907-0.65894-0.021136-1.0392-0.13551-2.2538-0.46326-1.384-0.25329-1.5661-0.21545-0.9172-0.086466-0.88314-0.05064-1.5522-0.015267-1.5355 0.067149-1.373 0.1356-2.1478 0.31555-0.65822 0.056763-0.6655 0.024143-1.1575-0.057702-0.90503-0.10493-2.384-0.30315-0.88284-0.15664-0.52511-0.15308-0.50999-0.23223-0.39358-0.27553-0.34857-0.33378-0.44811-0.58812-0.1171-0.19172-0.33635-0.66738-0.32444-0.72644-0.25174-0.50821-0.41064-0.65922-0.44838-0.59789-0.30074-0.3552-0.31798-0.30799-0.54741-0.34419-0.45481-0.14587-0.2106-0.027824-0.22807-0.003578-0.36433 0.051859-0.47122 0.17278-0.96258 0.51229-0.77999 0.44465-0.21662 0.10526-0.28395 0.10553-0.37026 0.077701-1.0289 0.072071-0.39847 0.048442-0.59279 0.11309-1.6721 0.42232-1.0983 0.251-0.62688 0.12845-1.8062 0.31036-0.55087 0.14529-0.91774 0.27894-0.80931 0.18932-0.54149 0.05991-0.63736-0.020799-0.42851-0.087257-0.357-0.12853-0.2233-0.11804-0.13917-0.11172-0.03894-0.078599-0.004416-0.076592 0.07157-0.22894 1.0169-2.6269 0.50267-1.4652 0.24074-0.87408 0.084025-0.3769 0.11843-0.7338 0.040616-0.60957-0.021528-0.56254-0.077266-0.51964-0.085789-0.36192-0.23054-0.69526-0.28266-0.65934-0.38626-0.76833-0.92894-1.6079-0.40865-0.63786-0.44159-0.63827-3.5337-4.8291-0.39473-0.6103-1.5507-2.5175-1.1008-2.0015-0.33308-0.50356-0.28516-0.3259-0.19725-0.16557-0.20846-0.1279-0.1706-0.076055-0.26798-0.083716-0.30616-0.059817-0.46698-0.048466-1.0129-0.041587-0.7916-0.056603-0.36206-0.052611-1.5347-0.30375-1.516-0.2516-0.29215-0.067826-0.67834-0.23876-0.34077-0.18059-0.29057-0.203-0.32466-0.30915-0.1719-0.21686-0.19246-0.30388-0.18779-0.38593-0.13255-0.36386-0.1217-0.47612-0.071999-0.43607-0.03812-0.4146-0.002854-1.0662 0.046256-0.68724 0.067913-0.59273 0.1036-0.64832 0.11233-0.5369 0.36608-1.3713 0.88054-2.8421 2.3186-7.7977 0.27933-1.0797 0.34296-1.4531 0.56537-2.4864 0.17503-0.87498 0.12845-0.94396 0.03628-0.55699 0.004893-0.47084-0.02507-0.51256-0.30944-2.3076-0.020217-0.85258 0.063879-0.75989 0.12081-0.57875 0.16023-0.27856 0.24509 0.059859 0.61594 0.25342 1.8048 0.82032 1.0192 0.4924 1.0252 0.51904 0.99539 0.53394 1.5193 0.85399 0.58802 0.30545 0.7304 0.32172 0.70546 0.21144 0.75648 0.081039 0.71806-0.039435 0.66576-0.10632 0.42109-0.093739 0.39333-0.12947 0.44718-0.23233 0.40972-0.29193 0.918-0.74876 0.50519-0.31841 0.51271-0.19662 0.50761-0.011288 0.5173 0.23265 0.33442 0.25211 0.34487 0.3089 1.2632 1.2202 0.5243 0.4573 0.74324 0.56447 0.4849 0.3085 0.49858 0.26203 0.62183 0.23861 0.59214 0.12502 0.50846 0.022389 0.57866-0.059746 0.67621-0.14523 1.7057-0.42149 1.9207-0.30009 2.5308-0.44485 2.0841-0.3355 1.904-0.28799 1.0578-0.12846 1.0413-0.058853 0.63302 0.010693 0.9069 0.058337 0.90869 0.12258 0.9746 0.21468 4.0498 1.0677 0.46543 0.094363-0.019879-0.072937 0.078208-0.18923 0.24483-0.3965 0.24202-0.33491 0.54541-0.64482 0.31451-0.31795 0.30959-0.27609 0.37422-0.28363 0.55909-0.3427 1.8661-0.92743 0.8002-0.47019 0.36429-0.25961 0.50479-0.44103 0.34552-0.37459 0.2758-0.3509 0.39615-0.61658 0.3601-0.72478 0.29069-0.74216 0.19001-0.60295 0.1479-0.60382 0.088264-0.51523 0.046812-0.50783-0.010613-0.63619-0.090947-0.55931-0.082444-0.28355-0.11883-0.308-0.17605-0.3619-0.19456-0.33719-0.54721-0.79913-1.5537-2.0955-0.383-0.61475-0.31274-0.66008-0.21342-0.58462-0.10254-0.34329-0.55046-2.1625-0.2453-0.86993-0.55198-1.5749-0.23651-0.78304-0.12781-0.51517-0.262-1.4329-0.11384-0.4608-0.2388-0.66646-0.19068-0.38564-0.31724-0.47822-0.20374-0.22702-0.17789-0.15841-0.23869-0.16419-0.24435-0.11908-0.21239-0.069122-0.37408-0.064842-0.26286-0.013943-0.67594 0.048073-0.7283 0.14495-1.1599 0.33031-2.2828 0.82624-0.86387 0.27853-0.6096 0.1488-0.64701 0.080092-0.3314-0.008162-0.18291-0.026885-0.31107-0.09534-0.21848-0.11192-0.25096-0.18495-0.19443-0.19743-0.26589-0.37137-0.22384-0.43715-0.17625-0.46306-0.15586-0.54145-0.14598-0.69216-0.14032-0.9998-0.13844-1.5707-0.12955-1.7855-0.031404-1.0981-0.021499-2.2644-0.21748-2.9892-0.047855-1.017 0.003955-0.63873 0.039103-0.65054 0.16769-1.1224 0.21103-0.85583 0.19345-0.6266 0.40541-1.1067 0.46264-1.1063 1.0311-2.2678 2.4918-5.175 0.47727-1.0267 0.99471-2.2454 0.43667-0.92257 0.4197-0.7759 0.38534-0.63595 0.79903-1.2263 0.52822-0.75857 0.66734-0.81584 0.41969-0.44808 0.693-0.67432 0.69597-0.60555 3.7065-2.8196 0.54127-0.37704 1.009-0.60611 1.2914-0.65297 1.6329-0.77661 0.77326-0.33791 0.71639-0.28134 0.71592-0.23891 0.77222-0.19479 0.94589-0.12578 0.75506 0.010213 0.72351 0.12592 0.38752 0.12494 0.46146 0.19879 0.61182 0.33308 2.1684 1.4349 0.53009 0.29638 0.6796 0.29851 1.6752 0.59999 0.65994 0.26292 0.63155 0.30083 0.58534 0.3549 0.3352 0.25694 0.29667 0.27382 0.21244 0.23408 0.16788 0.21819 0.18423 0.29155 0.1881 0.39132 0.17013 0.49032 0.19019 0.88458 0.077134 0.66309 0.031235 0.53506-0.012213 1.0445-0.059468 0.6858-0.1299 0.88944-0.30494 1.5179-0.16043 0.92739-0.072778 0.87517 0.056844 0.78946 0.23737 0.66347 0.27435 0.34335 0.36149 0.26855 0.51472 0.22096 0.59623 0.14359 0.86858 0.11364 3.3671 0.3092 2.4263 0.18056 1.2119 0.040189 0.85059-0.009098 0.68254-0.03951 0.80872-0.095773 0.81849-0.17719 0.3887-0.12554 0.54707-0.22971 0.68586-0.36878 0.68702-0.44212 0.63102-0.47713 0.53077-0.47228 0.55801-0.56692 0.35258-0.39777 0.55096-0.68796 0.51873-0.73505 0.36906-0.59153 0.5276-0.97218 0.43699-0.89517 0.492-1.0863 0.9905-2.3304 0.41138-0.8679 0.34545-0.64381 0.33908-0.57042 0.43669-0.6576 0.5681-0.75014 0.73406-0.83525 0.69134-0.69861 0.84426-0.75539 0.46037-0.35825 0.54456-0.37007 0.52984-0.30296 0.43488-0.2028 0.32061-0.1176 0.38651-0.089472 0.21094-0.002006 0.14698 0.091683 0.049597 0.046464 0.11366 0.18233 1.0879 1.8831 0.80105 1.2315 1.0542 1.4814 0.97354 1.303 0.59177 0.72505 0.421 0.4659 0.70138 0.69549 0.65498 0.56998 0.71618 0.54394 0.58794 0.38531 0.73294 0.41374 0.65837 0.32028 0.62124 0.24184 0.43944 0.11517 0.33477 0.036481 0.30046-0.031972 0.16349-0.058299 0.15394-0.0901 0.2503-0.22514 0.23739-0.29941 0.55295-0.88073 0.59402-1.0348 1.5788-3.0074 0.71805-1.2712 0.78615-1.2443 0.41694-0.5995 0.43866-0.58715 0.45785-0.5656 0.70036-0.77181 0.3556-0.34951 0.76854-0.65967 0.82786-0.57837 0.43189-0.25802 0.45189-0.24461 0.78544-0.36098 0.42559-0.14449 0.38442-0.083247 0.34458-0.027785 0.43966 0.037349 0.16868 0.037336 0.31284 0.10195 0.48029 0.22643 0.5866 0.35735 3.3712 2.3082 0.89821 0.63737 1.6755 1.2492 0.4657 0.31534 0.075437 0.013038 0.18164-0.29237 0.28155-0.38675 0.42704-0.53712 1.0407-1.1953 0.56908-0.6994 0.45515-0.71494 0.96086-1.8493 0.35814-0.58 0.20214-0.27015 0.1925-0.22882 0.5288-0.55021 0.89578-0.8471 0.51609-0.45462 0.42299-0.34316 0.54009-0.39119 0.63936-0.39273 1.0538-0.53257 0.64966-0.27654 0.58591-0.19982 0.73536-0.16196 0.66165-0.050666 1.2304-0.009562 0.58143-0.04936 0.82228-0.21184 0.31607-0.14692 0.59265-0.38314 0.69011-0.60482 0.70154-0.75736 3.5828-4.4007 0.58239-0.86664 0.41639-0.84237 0.15781-0.43795 0.58418-2.0068 0.35727-0.85744 0.32661-0.64068 0.61996-1.0686 1.824-2.998 1.139-1.9764 0.82217-1.5235 0.52602-1.0665 0.38287-0.86633 0.28536-0.71164 0.99192-2.6542 1.8676-4.7869 0.53276-1.4285 0.33116-1.0011 0.20944-0.72231 0.29749-1.2161 0.25181-1.3847 0.20853-1.6384 0.10102-0.5169 0.12922-0.48032 0.24821-0.66433 0.25954-0.5029 0.35264-0.50098 0.36222-0.35561 0.24644-0.14288 0.14327-0.013901-0.037762-0.28481-0.014123-0.53082-0.00958-2.1368-0.038631-1.248-0.12675-1.7697-0.1493-1.0696-0.21243-0.87912-0.19718-0.62767-0.27237-0.73953-0.84334-1.9743-1.6221-3.5701-0.37312-0.97588-0.23111-0.78194-0.20076-1.0039-0.090983-0.81258-0.044107-0.96851 0.006268-2.2435-0.027826-1.0594-0.075142-1.1213-0.12768-1.0445-0.19899-0.99732-0.12222-0.44154-0.1836-0.54033-0.20194-0.4876-0.15783-0.31658-0.23008-0.37353-0.21124-0.27237-0.28409-0.29392-0.34303-0.27612-0.38639-0.23769-0.43329-0.20142-0.42666-0.14219-0.44331-0.097936-0.47177-0.06423-0.81923-0.046285-2.2984 0.04236-0.97953-0.00413-2.4603-0.091272-0.78563 0.007663-0.77412 0.084677-0.90406 0.17634-0.6909 0.18245-1.7422 0.51895-0.84109 0.20544-0.4692 0.084106-0.55088 0.06039-0.52048 0.011475-0.54865-0.042547-0.47546-0.094572-0.35566-0.11512-0.35422-0.15629-0.49944-0.28976-0.49926-0.38719-0.63241-0.59966-1.4162-1.5736-1.023-1.2696-0.19453-0.26433-0.18603-0.29856-0.13107-0.2552-0.099244-0.27449-0.050563-0.2917 0.002791-0.26646 0.032948-0.20533 0.17111-0.46365 0.17753-0.31282 0.20438-0.295 0.35004-0.42394 0.22133-0.23425 0.39858-0.37563 0.52948-0.43663 0.55301-0.41514 1.1388-0.81468 1.7999-1.2443 0.61264-0.47225 0.40569-0.34874 0.68564-0.6818 0.32761-0.38091 0.3836-0.49642 0.71675-1.035 1.961-3.0333 0.58787-0.83182 1.2725-1.6922 0.70938-1.0139 0.49337-0.81777 0.15965-0.30369 0.344-0.77052 0.2862-0.85854 0.20203-0.95294 0.066605-0.61615 0.018792-0.45722-0.008605-0.64297-0.11153-1.9575-0.010683-0.72191 0.016267-0.36864 0.0687-0.50646 0.060527-0.20415 0.099857-0.13904 0.04663-0.009351 1.93 1.1273 0.56609 0.30851 1.0586 0.51542 0.84651 0.35057 0.86074 0.30347 0.67075 0.19859 0.66319 0.16062 0.7571 0.13325 0.56995 0.057047 0.37129 0.009612 0.69349-0.053064 0.68875-0.13065 0.79415-0.21898 0.52304-0.16944 0.96768-0.35653 2.8131-1.1317 0.79638-0.3017 0.77426-0.24422 1.5102-0.42948 1.6677-0.52594 0.74819-0.15642 0.52169-0.068814 0.67625-0.058461 1.0347-0.054123 1.1909-0.013964 0.55205 0.047081 2.8018 0.36137 1.8226 0.18472 0.46782 0.06567 0.45813 0.10068 0.45039 0.1444 0.32407 0.13709 0.50747 0.2814 0.52364 0.38184 0.5798 0.52059 0.55183 0.56491 1.8184 2.0268 0.64098 0.62082 0.56864 0.44792 0.63053 0.35656 0.68853 0.29045 0.69479 0.19366 0.31306 0.047525 0.60878 0.008861 0.48578-0.10329 0.47429-0.18897 0.27111-0.14213 0.47516-0.32678 0.35993-0.32026 0.55483-0.56614 0.50514-0.5505 1.0726-1.2886 0.76259-0.79408 0.61384-0.53416 0.65711-0.4473 0.24325-0.12964 0.74635-0.28768 0.78027-0.19229 2.0062-0.36416 1.0522-0.086102 0.68008 0.015115 0.2569 0.025785 1.6622 0.28327 0.66184 0.084398 0.36678 0.025274 0.54508 0.002385 0.89837-0.093405 0.92405-0.1986 0.93564-0.28266 0.92924-0.34618 1.0036-0.4372 0.82923-0.41111 0.78392-0.44095 0.59702-0.39938 0.13036-0.14894 0.001446 0.034241 0.061716 0.073 0.20975 0.11734 0.48989 0.17017 0.35564 0.087652 0.69853 0.1119 0.82354 0.048419 1.1796-0.024529 0.91039-0.064537 1.9356-0.23453 1.075-0.10293 1.4335-0.049249 1.061-0.080865 1.3685-0.071155 0.67464-0.071066 0.64647-0.14104 0.56417-0.21273 1.352-0.65415 0.54436-0.17494 0.33622-0.051937 0.50474 0.016468 0.48354 0.11048 0.47167 0.19042 0.46852 0.27431 0.43072 0.33895 0.45012 0.48069" stroke="#bdc660"/>
    </defs>
    <g clip-path="url(#p636090df0c)">
     <use y="280.512" fill="#bdc660" stroke="#bdc660" xlink:href="#mcdec7d551f"/>
    </g>
   </g>
  </g>
 </g>
 <defs>
  <clipPath id="p636090df0c">
   <rect x="7.2" y="7.2" width="320.9" height="266.11"/>
  </clipPath>
 </defs>
</svg>
