<?xml version="1.0" encoding="UTF-8"?>
<!DOCTYPE svg  PUBLIC '-//W3C//DTD SVG 1.1//EN'  'http://www.w3.org/Graphics/SVG/1.1/DTD/svg11.dtd'>
<svg width="224.25pt" height="280.51pt" version="1.1" viewBox="0 0 224.25 280.51" xmlns="http://www.w3.org/2000/svg" xmlns:xlink="http://www.w3.org/1999/xlink">
 <metadata>
  <rdf:RDF xmlns:cc="http://creativecommons.org/ns#" xmlns:dc="http://purl.org/dc/elements/1.1/" xmlns:rdf="http://www.w3.org/1999/02/22-rdf-syntax-ns#">
   <cc:Work>
    <dc:type rdf:resource="http://purl.org/dc/dcmitype/StillImage"/>
    <dc:date>2024-07-04T12:10:49.712606</dc:date>
    <dc:format>image/svg+xml</dc:format>
    <dc:creator>
     <cc:Agent>
      <dc:title>Matplotlib v3.7.1, https://matplotlib.org/</dc:title>
     </cc:Agent>
    </dc:creator>
   </cc:Work>
  </rdf:RDF>
 </metadata>
 <defs>
  <style type="text/css">*{stroke-linejoin: round; stroke-linecap: butt}</style>
 </defs>
 <g id="figure_1">
  <g id="patch_1">
   <path d="m0 280.51h224.25v-280.51h-224.25v280.51z" fill="none"/>
  </g>
  <g id="axes_1">
   <g id="PatchCollection_1">
    <defs>
     <path id="mcd8339f989" d="m166.98-259.87 0.98047 0.016444 0.99018-0.008307 0.99596-0.033693 1.5995-0.11212 3.107-0.35555 0.74959-0.041122 0.72349 0.015519 0.87407 0.12211 0.76487 0.21872 0.51997 0.23419 0.39411 0.28206 0.11617 0.2397 1.1285 1.34 0.79362 0.90886 1.0363 1.1187 0.86199 0.88491 1.0674 1.0585 2.2087 2.1433 3.6304 3.4767 2.2839 2.1585 1.4427 1.4266 1.1856 1.2781 1.2632 1.42 1.068 1.2631 1.0436 1.2889 0.5274 0.59988 0.65576 0.68514 0.5533 0.54744 1.0482 0.95251 0.84829 0.69995 1.0749 0.82561 1.1645 0.86401 0.51952 0.37672 1.2821 0.87006 2.0262 1.2818-1.8555 0.80692-1.8446 0.85492-1.3519 0.67089-1.3933 0.74981-1.0895 0.64594-2.1448 1.3991-2.392 1.5204-1.1134 0.66047-1.068 0.57225-1.5074 0.72391-1.1491 0.49203-0.57313 0.22301-0.89267 0.3097-0.8461 0.24177-0.56772 0.12774-0.64208 0.096899-0.46443 0.031962-0.45704-0.004791-0.44871-0.045958-0.51494-0.11348-0.49624-0.17719-0.24322-0.1131-0.2786-0.15422-0.25896-0.17204-0.27544-0.22135-0.23303-0.22536-0.19944-0.22785-0.2864-0.3959-0.36487-0.68287-0.16343-0.42736-0.1332-0.47832-0.084699-0.47559-0.027935-0.47118 0.046862-0.53632 0.10879-0.52287 0.15036-0.51358 0.4039-1.1555 0.058394-0.21937 0.053777-0.32482 0.003636-0.24373-0.037255-0.26909-0.10018-0.29538-0.16438-0.2591-0.31692-0.24671-0.52155-0.10014-0.26296 0.020852-0.25665 0.050854-0.35143 0.10862-0.36479 0.15313-0.56857 0.31028-0.49108 0.32878-0.48382 0.36044-0.52952 0.43081-0.79632 0.71363-0.4771 0.47068-0.428 0.48224-0.48096 0.65121-0.39409 0.69459-0.27136 0.73951-0.083114 0.42367-0.038098 0.41944 0.004387 0.56903 0.085668 0.75046 0.1402 0.67102 0.12636 0.46734 0.20468 0.63711 0.38666 1.0054 1.2244 2.9076 0.44625 1.2213 0.27344 0.82333 0.24934 0.82317 0.4453 1.7034 0.17543 0.81569 0.10152 0.66279 0.19215 1.7284 0.14194 0.92806 0.78365 3.9852 0.31921 1.3078 0.23779 0.77859 0.66797 1.905 0.086689 0.27546 0.028894 0.15903-0.02213 0.015128-0.19555 0.002303-1.9031-0.2459-1.4911-0.16906-0.79284-0.07164-0.79183-0.029437-0.3336 0.008866-0.67205 0.059023-0.66464 0.11202-0.68576 0.17246-0.54296 0.17729-0.56026 0.21764-1.298 0.57521-1.5194 0.72554-0.74676 0.40258-0.98261 0.60538-0.83406 0.58805-0.68001 0.52846-3.4889 2.8749-1.113 0.9339-1.3438 1.1767-0.64482 0.53967-1.0606 0.83738-0.70963 0.52249-0.6461 0.39254-0.51231 0.26453-0.54621 0.25128-0.80871 0.31494-1.6058 0.57775-0.98193 0.38396-1.1903 0.5002-0.47958 0.22585-0.618 0.37721-0.34822 0.27703-0.24029 0.23437-0.29443 0.36129-0.22508 0.33901-0.52936 0.99845-0.66602 1.0504-0.29276 0.52314-0.13513 0.31252-0.059582 0.18501-0.07722 0.33948-0.15921 1.0083-0.033524 0.48976 0.029961 0.43058 0.076265 0.50705 0.12525 0.6353 1.1113 4.8773 0.20386 0.77482 0.24024 0.78927 0.62102 1.7904 0.18959 0.66611 0.19321 0.84283 0.1083 0.82102 0.010335 0.5596-0.035064 0.7791-0.067939 0.75782-0.073376 0.50594-0.083924 0.43278-0.11372 0.42771-0.1913 0.55638-0.27532 0.65232-0.37213 0.76035-0.46837 0.8699-2.1744 3.7985-0.66902 1.0893-0.30672 0.45637-0.43124 0.58625-0.32268 0.39607-0.39734 0.43343-0.29817 0.28457-0.47637 0.39258-0.51006 0.36188-0.57601 0.36036-0.90013 0.49812-1.2728 0.62976-2.1835 1.0218-0.69977 0.34972-0.7126 0.38212-0.5797 0.33301-0.74993 0.45892-0.54213 0.35764-0.72231 0.50663-0.95427 0.72549-0.41982 0.35239-0.42006 0.39422-0.27449 0.29269-0.42164 0.51905-0.50048 0.72793-0.33123 0.53762-0.4395 0.77552-0.22983 0.44015-0.91911 1.9403-0.59175 1.0535-0.49337 0.76824-0.5434 0.74313-0.51285 0.61137-0.54622 0.5807-0.63788 0.59502-0.74452 0.55932-0.78963 0.49337-0.7215 0.40079-1.3844 0.70694-2.5452 1.2383-0.046446 0.003577-0.039723 0.055218-0.028989 0.12291-0.00669 0.16816 0.036428 0.41761 0.12529 0.72983 0.31796 1.5062 0.16423 0.96867 0.093017 0.45063 0.17271 0.62776 0.46303 1.3448 0.13447 0.47911 0.075747 0.38066 0.1542 1.1046 0.15952 0.63785 0.32058 0.9795 0.24208 0.66467 0.64693 1.4973 0.091302 0.17634 0.1604 0.4457 1.2856 3.9308 0.54042 1.4664 0.65379 1.6341 0.34374 0.81324 0.46735 1.0334 0.48108 0.96026 0.25075 0.45641 0.55324 0.89974 0.39281 0.55447 0.60172 0.74567 0.5252 0.56269 0.52136 0.48506 0.81522 0.69375 0.81629 0.6647 0.85277 0.6373 0.60788 0.39604 0.50031 0.28463 0.45117 0.22268 1.2601 0.50984 0.82158 0.2921 0.53341 0.12211 0.21593 0.023115 0.31572 0.00869 0.34238-0.017809 0.60305-0.072946 0.38988-0.0796 0.28037-0.076367 0.61758-0.21548 0.5645-0.25685 0.49917-0.25328 0.5192-0.29521 2.1027-1.3164 0.76366-0.45384 0.86249-0.48613 0.71788-0.34756 0.51324-0.18402 0.49928-0.096665 0.26135-0.009051 0.24792 0.027218 0.20398 0.05349 0.22408 0.09261 0.40863 0.25218 0.394 0.33776 0.37512 0.40652 0.25437 0.32131 1.0367 1.4483 3.0307 4.4608 1.3527 1.8956 0.69783 0.92554 0.70239 0.88273 0.9197 1.0681 0.80609 0.84448 0.38934 0.37699 0.15979 0.12127-0.14171 1.3912-0.16763 1.1497-0.20203 1.0377-0.27113 1.1267-0.19472 0.73199-0.22427 0.75661-0.24475 0.69147-0.15569 0.37084-0.22433 0.45422-0.23053 0.38426-0.26847 0.3598-0.32509 0.32939-0.2753 0.2012-0.35 0.17005-0.36948 0.11396-0.62431 0.114-1.1184 0.1448-0.44904 0.082962-0.44627 0.11814-0.24004 0.083313-0.53388 0.23416-0.37759 0.20255-0.40018 0.24497-0.41512 0.28418-0.40354 0.30311-0.50648 0.41593-1.256 1.1585-1.0269 0.89608-0.56647 0.55574-0.45097 0.56005-0.27059 0.47873-0.2132 0.50495-0.332 1.0233-0.11036 0.51353-0.045163 0.52741 0.005341 0.5343 0.081584 1.3382-0.014882 0.42598-0.13032 0.6454-0.23042 0.64973-0.28605 0.65306-0.30603 0.62667-0.39427 0.65222-0.94344 1.377-0.23087 0.36105-0.281 0.49198-0.43936 0.92297-0.19004 0.36045-0.22807 0.3496-0.3621 0.41565-0.45746 0.40062-0.37855 0.28155-0.44447 0.29901-0.42853 0.26667-0.60973 0.34365-0.39607 0.53501-0.52841 0.63101-0.58718 0.63757-0.45891 0.45151-0.4181 0.37338-0.43563 0.34786-0.37809 0.26554-0.38994 0.236-0.30178 0.15503-0.33402 0.14467-0.54448 0.19248-3.5974 1.0401-0.74851 0.2373-1.2903 0.45151-1.0608 0.44161-0.57812 0.28844-0.60812 0.3625-0.43278 0.3113-0.34403 0.29407-0.71964 0.76578-0.48464 0.59986-0.21496 0.31901-0.16192 0.27838-0.22172 0.48063-0.14803 0.45575-0.11336 0.57661-0.028341 0.50382 0.012829 0.2361 0.11686 0.61413 0.2182 0.61263 0.29777 0.60888 0.30475 0.51556 0.342 0.51081 0.30701 0.42 0.67078 0.84209 3.9584 4.5454 0.48842 0.5952 0.86709 1.1381 0.84587 1.208 0.77844 1.2086 1.8993 3.2388 0.24095 0.46445 0.038184 0.13876-0.054268-0.030729-0.11725-0.013984-0.44996 0.013558-0.65445 0.074941-0.5587 0.098183-1.5312 0.35345-2.7894 0.76048-1.3033 0.38982-1.3026 0.43848-1.816 0.66938-2.7254 1.0525-0.68048 0.2152-0.87503 0.23389-0.80718 0.19704-0.82234 0.14341-0.61023 0.033623-0.61563-0.068503-0.64213-0.23751-0.16164-0.099937-0.27989-0.22118-0.50136-0.563-0.38824-0.59902-0.21812-0.40486-0.20478-0.42764-0.32314-0.77469-0.38771-1.1166-0.23809-0.82836-0.19057-0.80978-0.167-0.94038-0.10007-0.7912-0.17845-2.1771-0.055917-0.45245-0.11624-0.50956-0.10218-0.25269-0.14786-0.22502-0.15225-0.12913-0.12962-0.053897-0.11986-0.018711-0.13691 0.004513-0.12704 0.022245-0.23233 0.072356-0.41886 0.20936-0.15624 0.10406-0.31484 0.25861-0.29832 0.30915-0.40198 0.54502-0.12924 0.22464-0.21033 0.47174-0.14988 0.51824-0.25413 1.109-0.12409 0.39602-0.26899 0.6854-0.39382 0.82616-0.40197 0.73721-0.27178 0.45776-0.46723 0.72649-0.68672 0.95172-0.5539 0.67054-0.206 0.22016-0.46555 0.44252-0.62246 0.50913-1.4011 1.0761-0.67402 0.58789-0.40616 0.40386-0.3224 0.34921-0.4879 0.57111-0.54907 0.69345-1.1864 1.5556-1.0401 1.2679-0.62957 0.69908-0.61432 0.63672-0.64041 0.62395-0.71286 0.65504-1.1255 0.97514-1.0362 0.86688-1.0541 0.86377-0.64342 0.49861-0.49119 0.35144-0.85148 0.56129-1.0245 0.62934-0.99967 0.57579-0.33149-0.23032-0.36873-0.22855-0.31886-0.1709-0.2721-0.12051-0.4013-0.11665-0.26071-0.022185-0.17598 0.01189-0.30085 0.068582-0.45242 0.18105-0.17333 0.050244-0.80471 0.17053-1.2204 0.34225-0.57364 0.19307-1.1645 0.48506-0.26259 0.071237-0.2076 0.005767-0.085391-0.030423-0.096703-0.092206-0.071595-0.14047-0.091585-0.38458-0.064673-0.73386-0.044171-1.4573 0.2565-0.046506 0.44051-0.24387 0.50676-0.3908 0.4793-0.50852 0.2826-0.41413 0.17841-0.33005 0.22684-0.54371 0.11772-0.39503 0.078269-0.39211 0.02967-0.25556 0.009727-0.37653-0.12774-0.76183-0.10248-0.29427-0.18258-0.39867-0.25737-0.4616-0.29289-0.45602-0.40649-0.54538-0.77377-0.85846-1.2858-1.3473-1.3902-1.5477-1.6403-1.6918-0.49696-0.54045-0.75601-0.89019-0.40218-0.52578-0.37665-0.54227-0.32916-0.53021-0.44223-0.8238-0.3668-0.82817-0.29177-0.79783-0.64513-2.1063-0.43089-1.2329-0.092268-0.32297-0.043995-0.31433 0.003579-0.21254 0.025646-0.18869 0.058465-0.2346 0.088683-0.2383 0.11809-0.23892 0.14772-0.24785 0.4164-0.56642 0.50098-0.55837 0.47986-0.47173 1.2587-1.1036 0.77931-0.74908 0.35739-0.38382 0.33854-0.39851 0.22903-0.29943 0.31236-0.4575 0.16074-0.26157 0.30882-0.5906 0.20946-0.5866 0.074114-0.57708-0.011526-0.181-0.073566-0.34367-0.13326-0.33548-0.23751-0.41047-0.30226-0.40279-0.49111-0.54502-1.4753-1.5215-1.0173-1.1166-2.8093-3.3236-0.50476-0.55692-0.55384-0.56658-0.42796-0.40476-0.97956-0.84149-0.39409-0.41739-0.16587-0.21422-0.20433-0.31615-0.14185-0.27989-0.090408-0.23691-0.067267-0.2747-0.019213-0.1902 0.004903-0.164 0.039763-0.20842 0.12947-0.29756 0.19984-0.28881 0.32862-0.36476 1.2935-1.2365 0.38166-0.42146 0.34898-0.46838 0.36028-0.71372 0.11168-0.40302 0.072443-0.52106 0.016523-0.55003-0.056744-0.92331-0.12387-0.97521-0.60145-4.0077-0.14679-0.85376-0.1741-0.87193-0.17431-0.7275-0.13796-0.48893-0.19387-0.5925-0.7709-2.1576-0.27021-0.83292-0.18096-0.62394-0.038385-0.26435-1.8202 0.29324-0.86064 0.10702-0.64806 0.059635-1.2971 0.074738-1.2637 0.024996-0.61166-0.005174-1.1696-0.051378-0.55074-0.051345-0.52122-0.073629-0.48438-0.10128-0.43791-0.13558-0.73006-0.33877-0.31946-0.12596-0.30746-0.037261-0.26574 0.067494-0.29624 0.15963-0.25221 0.17964-1.4092 1.1311-0.58924 0.50786-1.6188 1.4758-0.56617 0.4664-0.71588 0.53754-0.56971 0.38627-0.61126 0.37816-1.538 0.81783-0.44852 0.26865-1.52 1.133-0.4985 0.33198-0.50774 0.30744-1.1402 0.62393-0.53821 0.25223-0.13261 0.037616-0.023483-0.17047-0.11184-0.42032-0.18246-0.58297-0.24266-0.68179-0.39088-0.98768-0.58722-1.3915-0.29628-0.65354-0.59766-1.2046-0.29605-0.54336-0.62297-1.0504-0.85069-1.2888-0.57823-0.79879-0.58427-0.75267-0.58526-0.7005-0.67793-0.7309-0.62171-0.57531-1.0456-0.82674-0.4207-0.38474-0.42028-0.50363-0.37226-0.57028-0.33471-0.61806-0.42633-0.91912-0.72558-1.7327-0.29694-0.66202-0.31539-0.61633-0.53495-0.90734-0.46634-0.92919-0.53104-1.1977-0.8593-2.0495-0.47263-1.0408-0.23175-0.59465-0.14257-0.48343-0.11887-0.54651-0.06841-0.45912-0.046741-0.55149-0.009154-0.71261 0.030398-0.52745 0.060114-0.48295 0.11964-0.5612 0.16387-0.4889 0.19408-0.39511 0.21112-0.31121 0.1577-0.18925 0.32429-0.32643 0.92517-0.80931 0.39613-0.40285 0.21534-0.25597 0.95688-1.2429 0.3858-0.44932 0.42162-0.45231 0.40898-0.39528 0.5273-0.4371 0.49776-0.34486 0.62734-0.3678 0.52877-0.26734 0.86888-0.37956 1.2206-0.47398 1.0726-0.37031 0.54124-0.15988 0.70548-0.17394 1.497-0.31794 0.70514-0.16839 0.83626-0.24243 0.90686-0.33837 0.98354-0.45465 1.3442-0.66969 1.5688-0.82061 0.72419-0.40646 0.45977-0.27866 0.43503-0.28873 0.47129-0.35782 0.4142-0.38253 0.30268-0.35962 0.2349-0.3912 0.1284-0.32776 0.13836-0.71782 0.021436-0.49376-0.018967-0.51595-0.11559-1.0218-0.1919-1.1365-1.3533-6.8799-0.56245-2.7354-0.37899-1.6395-0.19483-0.746-0.32883-1.107-0.22398-0.66733-0.31468-0.84428-0.28358-0.68044-0.30766-0.67228-0.33504-0.67184-0.35686-0.66443-0.52954-0.91615-0.55936-0.90807-2.4111-3.669-0.99589-1.6145-0.39097-0.69823-0.50216-0.95492-2.0106-4.0992-0.30507-0.57845-0.006245-0.019453-0.075953-0.21623-0.10856-0.48888-0.58177-3.0336-0.37643-1.8262-0.20442-0.90696-0.27297-1.1017-0.34757-1.2394-1.0026-3.2088-0.34826-1.1883-0.408-1.6177-1.116-4.7175-0.51491-1.9122-0.26388-0.85564-0.28594-0.81762-0.27231-0.66985-0.29954-0.62036-0.31111-0.52586-0.34372-0.45737-0.35349-0.35055-0.39017-0.26197-0.38375-0.15061-0.4512-0.089798-0.53163-0.035771-1.2833-2.28e-4 -0.84189-0.018637-1.4221 0.031354-0.58353-0.059094-0.25162-0.05885-0.40833-0.14868-0.4109-0.20979-0.31584-0.21237-0.30402-0.24172-0.42451-0.39118-0.4569-0.5453-0.4123-0.60444-0.31627-0.51526-0.49226-0.83696-0.1759-0.33442-0.15043-0.35097-0.13017-0.36338-0.29982-0.97107-0.09465-0.38997-0.063668-0.41791-0.08075-1.1487-0.061104-0.57808-0.10212-0.60478-0.12355-0.54536-0.28917-1.0143-0.26766-0.81054-0.2942-0.7716-0.27713-0.64063-0.21538-0.4408-0.21906-0.3927-0.29552-0.44143-0.26764-0.3184-0.39109-0.34772-1.069-0.71699-0.26917-0.22469-0.13522-0.14315-0.11591-0.15425-0.13177-0.24672-0.065816-0.22207-0.024544-0.24785 0.007604-0.15529 0.052676-0.22576 0.050791-0.11016 0.09452-0.14009 0.13959-0.14621 0.21106-0.16317 0.51579-0.31362 0.31522-0.15617 0.45868-0.17344 0.95037-0.25962 1.429-0.47755 0.85372-0.21661 2.3743-0.41423 0.51372-0.040003 1.6033 0.011108 0.4571-0.051301 0.65117-0.15613 0.61897-0.23724 0.58411-0.30206 1.6772-0.93171 0.48164-0.28669 1.3499-0.88999 0.33541-0.17426 0.58481-0.25482 0.37701-0.20821 0.27801-0.21691 0.34296-0.35674 0.30065-0.40262 0.34908-0.5882 0.25842-0.55364 0.12334-0.34931 0.059589-0.23317 0.063727-0.47615-0.00176-0.62634-0.064659-0.6185-0.13845-0.80395-0.38274-1.8474-0.20187-1.1345-0.07353-0.65199-0.004247-0.67265 0.12153-0.57454 0.21627-0.36106 0.30156-0.26781 0.26245-0.14275 0.2936-0.11712 1.0493-0.31637 0.36601-0.20022 0.13654-0.11598 0.089419-0.10138 0.18342-0.33312 0.126-0.40516 0.046164-0.21004 0.045627-0.31351 0.024353-0.64524-0.17781-4.0479 0.001655-1.1595 0.063087-0.70591 0.10531-0.55095 0.31659-1.3124 0.1063-0.81266 0.061211-0.69714 0.013226-1.4587 0.077986-1.1868 0.079877-1.6767 0.0913-1.0145 0.1267-2.3132 0.065821-0.62227 0.13274-0.79605 0.45359-1.7704 0.12455-0.5713 0.28564-1.6721 0.11781-0.5998 0.55495-2.1526 0.10854-0.64532 0.14229-1.0296 0.083613-0.41232 0.095162-0.10773 0.25894-0.13976 0.36685-0.14068 0.53486-0.13094 0.61031-0.072795 0.94024-0.068952 0.77997-0.080601 0.79869-0.11294 1.7148-0.30964 1.468-0.15354 0.56668-0.086575 0.24146-0.053127 0.2723-0.074085 0.50042-0.17389 0.7219-0.3124 0.58428-0.2837 0.81066-0.45601 1.3869-0.83582 0.2996-0.19192 0.28251-0.20627 0.40141-0.33934 0.43142-0.4114 0.70032-0.7806 0.62637-0.79606 0.39054-0.45665 0.20298-0.20263 0.53314-0.453 0.92448-0.73259 1.4-1.0114 1.521-1.0342 2.2586-1.501 0.31446 0.98954 0.53816 1.7956 1.0721 3.7856 0.27208 0.89206 0.30271 0.84981 0.1719 0.40069 0.18045 0.35823 0.19786 0.33347 0.21548 0.30294 0.23469 0.26426 0.25693 0.21461 0.2838 0.1506 0.36313 0.080597 0.39529 8.02e-4 0.41854-0.056875 0.43507-0.097809 0.44653-0.1261 2.2861-0.77459 0.87871-0.25807 0.41132-0.085268 0.37983-0.037448 0.33418 0.030442 0.26959 0.12482 0.19067 0.24397 0.12332 0.34478 0.074831 0.42147 0.04196 0.47752 0.058818 1.5629 0.037232 0.47206 0.045652 0.3051 0.055614 0.20767 0.063684 0.056955-0.21484 0.29366-0.073874 0.56502 0.056153 0.44902 0.15498 0.45402 0.30985 0.49326 0.43078 0.42597 0.52787 0.33911 0.60364 0.23548 0.80959 0.13393 0.86741-0.006312 0.90417-0.11237 0.92596-0.19022 0.93723-0.2462 0.94116-0.28584 1.8741-0.64624 0.92514-0.34568 1.7725-0.69958 1.653-0.6969 1.1958-0.5436 0.4102-0.21058 0.48945-0.28009 0.45636-0.29013 1.5513-1.0762 0.44304-0.2864 0.39641-0.23468 0.46756-0.2419 0.34816-0.15307 0.38559-0.12649 0.32286-0.040988 0.15402 0.013059 0.15354 0.041775 0.26359 0.15722 0.23868 0.24765 0.28137 0.41862 0.24898 0.45541 0.86499 1.7107 0.29392 0.5434 0.44765 0.78606 1.8178 3.036 0.75021 1.3383 0.58537 1.1181 0.39212 0.80305 0.40515 0.89856 0.40617 1.0014 0.28503 0.77957 0.87294 2.5514 0.36389 0.9821 0.35598 0.89473 0.78704 1.8023 0.44457 0.92185 0.12913 0.24025 0.072175 0.09213 1.6046-0.41762 5.1758-1.409 2.4001-0.66264 1.6654-0.48095 1.5876-0.51494 2.157-0.81123 0.63153-0.21471 0.53247-0.14665 0.53526-0.10172 0.76838-0.051948 0.77682 0.041712 0.7801 0.11725 0.77821 0.17946 0.78112 0.23567 0.76793 0.28298 0.75562 0.33017 0.72717 0.37425 0.68871 0.42101 0.63798 0.47349 0.57217 0.53474 0.46281 0.55719 0.40714 0.59939 0.36609 0.62226 0.97493 1.822 0.34534 0.53879 0.40196 0.46966 0.47749 0.34028 0.35502 0.12502 0.46691 0.063544 0.50956-0.005852 0.3944-0.041253 0.7375-0.1327 0.44544-0.11072 0.79651-0.2568 0.81422-0.32815 0.36411-0.1692 0.62916-0.328 0.92615-0.54768 0.90662-0.59142 1.5028-1.0198 1.0346-0.64146 0.97086-0.52279 1.9109-0.87483 0.6282-0.31371 0.67482-0.37958 0.59757-0.38815 0.37453-0.28069 0.31352-0.26064 0.30643-0.28271 0.40153-0.43102 0.24546-0.32171 0.16311-0.25754 0.13711-0.2607 0.092927-0.2131 0.13966-0.44029 0.077515-0.43707 0.026252-0.42253 7.4e-5 -0.31485-0.01514-0.31208-0.051504-0.45355-0.11617-0.55284-0.13837-0.41635-0.11227-0.24849-0.16397-0.28178-0.3268-0.48309-0.19814-0.36527-0.13281-0.4053-0.069318-0.35033-0.07034-0.73053-0.13694-2.5173-0.17841-1.8993-0.14003-0.99511-0.56943-3.1117-0.23446-1.5418-0.13974-1.1386-0.1769-1.6794-0.079118-0.96686-0.051859-1.0251 0.001638-0.9557 0.070026-1.0832 0.13175-1.01 0.17132-0.80984 0.17897-0.59668 0.22844-0.56783 0.1014-0.20641 0.2116-0.36982 0.23794-0.34418 0.24635-0.2991 0.32999-0.33545 0.45595-0.38008 0.429-0.29863 0.75742-0.43887 0.79066-0.37346 0.49518-0.19157 0.67771-0.21061 0.6622-0.14913 0.66749-0.09116 0.48927-0.030129 1.4038 0.030646 1.3262 0.097464 0.96292 0.11346 0.97331 0.13727 3.0994 0.46794 1.7019 0.21263 1.6662 0.17589 0.9508 0.07069 0.96731 0.042208" stroke="#bdc660"/>
    </defs>
    <g clip-path="url(#p9e71c511ea)">
     <use y="280.512" fill="#bdc660" stroke="#bdc660" xlink:href="#mcd8339f989"/>
    </g>
   </g>
  </g>
 </g>
 <defs>
  <clipPath id="p9e71c511ea">
   <rect x="7.2" y="7.2" width="209.85" height="266.11"/>
  </clipPath>
 </defs>
</svg>
