<?xml version="1.0" encoding="UTF-8"?>
<!DOCTYPE svg  PUBLIC '-//W3C//DTD SVG 1.1//EN'  'http://www.w3.org/Graphics/SVG/1.1/DTD/svg11.dtd'>
<svg width="371.52pt" height="253.54pt" version="1.1" viewBox="0 0 371.52 253.54" xmlns="http://www.w3.org/2000/svg" xmlns:xlink="http://www.w3.org/1999/xlink">
 <metadata>
  <rdf:RDF xmlns:cc="http://creativecommons.org/ns#" xmlns:dc="http://purl.org/dc/elements/1.1/" xmlns:rdf="http://www.w3.org/1999/02/22-rdf-syntax-ns#">
   <cc:Work>
    <dc:type rdf:resource="http://purl.org/dc/dcmitype/StillImage"/>
    <dc:date>2024-07-04T12:10:52.557414</dc:date>
    <dc:format>image/svg+xml</dc:format>
    <dc:creator>
     <cc:Agent>
      <dc:title>Matplotlib v3.7.1, https://matplotlib.org/</dc:title>
     </cc:Agent>
    </dc:creator>
   </cc:Work>
  </rdf:RDF>
 </metadata>
 <defs>
  <style type="text/css">*{stroke-linejoin: round; stroke-linecap: butt}</style>
 </defs>
 <g id="figure_1">
  <g id="patch_1">
   <path d="m0 253.54h371.52v-253.54h-371.52v253.54z" fill="none"/>
  </g>
  <g id="axes_1">
   <g id="PatchCollection_1">
    <defs>
     <path id="mcfda558af4" d="m302.3-218.57 1.2041 0.074448 1.1448-0.036452 0.74358-0.096149 0.89212-0.20349 0.54503-0.16556 0.85164-0.30826 2.95-1.2407 0.53599-0.18442 0.72585-0.18565 0.90626-0.10806 0.90055 0.001996 0.98216 0.10673 0.6516 0.15487 0.64089 0.21449 0.69686 0.28908 0.68028 0.32629 0.74793 0.41012 0.9498 0.65976 0.92726 0.76368 1.8453 1.6056 1.0246 0.83536 1.7857 1.6126 2.5157 2.4619 1.1618 1.1913 0.65756 0.71481 1.1895 1.3473 1.4904 1.7462 1.2345 1.514 0.81508 1.0689-0.099854 0.71648-0.13758 0.70582-0.23435 0.83727-0.24203 0.63467-0.30192 0.66056-0.59388 1.1198-1.4601 2.5142-0.65809 1.2736-0.2952 0.69267-0.16761 0.47646-0.13656 0.48365-0.15969 0.81741-0.052875 0.80935 0.13266 1.1443 0.31265 1.1133 0.41005 1.0729 0.64366 1.5346 0.2285 0.65386 0.16373 0.65428 0.097876 0.78618 0.013109 0.78847-0.10578 0.76918-0.16108 0.50806-0.33769 0.7145-0.4197 0.66464-0.31625 0.4102-0.62206 0.65376-0.63077 0.52156-1.3707 1.0476-0.4921 0.47988-0.36389 0.45532-0.26103 0.4719-0.16319 0.51169-0.049912 0.39606-6.93e-4 0.32138 0.10717 0.69865 0.22771 0.7278 0.14628 0.36369 0.43719 0.87148 0.53926 0.89333 2.3052 3.4851 0.38468 0.6334 0.67498 1.2164 0.412 0.86028 0.33705 0.84624 0.61434 2.0484 0.49603 1.4455 0.45676 0.97902 0.8095 1.6263 0.38209 0.88135 0.22491 0.63434 0.2151 0.85564 0.10545 0.86226 0.079278 1.7953-0.009852 0.92794-0.066711 0.72228-0.11166 0.70051-0.27554 1.3614-0.1192 0.92812 0.010226 1.0125 0.078482 0.72152 0.22813 0.98862 0.4108 1.1345 0.35025 0.77356 1.0671 2.1701 0.40625 0.96994 0.13811 0.43718 0.18437 0.78918 0.13762 0.93505 0.2192 2.7815 0.10405 0.98568 0.14996 0.86261 0.20054 0.78433 0.23512 0.6629 0.44453 0.8909 0.54644 0.86482 1.2246 1.7614 0.63655 1.0055 0.93087 1.5933 0.72805 1.1631 0.78558 1.1699 1.6384 2.286 1.1032 1.469 0.66665 0.83268 1.223 1.404-0.25342 0.11938-1.1332 0.78676-6.5664 4.8125-1.4749 1.0192-1.231 0.7848-1.3186 0.75358-1.4483 0.71827-1.1556 0.49494-1.3206 0.49004-1.4852 0.46673-1.1752 0.31446-1.0834 0.25411-1.9659 0.38561-2.084 0.2983-1.3922 0.10974-0.94446 0.039011-1.921 0.008298-2.7558-0.10558-4.5694-0.25814-2.1458-0.019323-1.0535 0.045813-1.3145 0.12912-0.78954 0.12191-0.91899 0.18489-0.79836 0.19634-0.87452 0.24989-1.3411 0.44658-0.95748 0.36158-1.1585 0.48233-1.1815 0.54325-1.8864 0.98073-0.89969 0.52382-1.0435 0.67312-1.551 1.1497-1.7226 1.3616-1.4169 1.0394-1.2395 0.78251-1.0138 0.51596-0.60211 0.2389-0.85212 0.2318-0.72434 0.089452-2.1295 0.035956-0.79366 0.061817-1.462 0.2109-0.78597 0.14991-1.7347 0.3936-1.972 0.52134-2.7004 0.79659-1.0861 0.34786-0.51875 0.19942-0.33897-0.01569-0.16429 0.13521-0.092592 0.14176-0.13562 0.41-0.056755 0.58268 0.019272 0.54692 0.062431 0.52292 0.11148 0.59474 0.17134 0.67814 0.17187 0.55534 0.40248 1.062 0.23424 0.52542 0.4882 0.96294 0.82072 1.3817 2.6692 3.9031 0.83009 1.3711 0.40228 0.74442 0.48589 1.011 0.43581 1.1269 0.25183 0.98927 0.063293 0.59456-0.030512 0.54596-0.10273 0.4092-0.26157 0.52822-0.57627 0.60582-0.37956 0.21804-0.4033 0.12086-0.39272 0.012465-0.38897-0.10128-0.21004-0.10966-0.2868-0.21287-0.52892-0.56424-0.49277-0.69647-0.32754-0.5392-0.77004-1.4551-0.40267-0.84772-1.5245-3.4421-0.68911-1.4878-0.81461-1.6592-0.5795-1.0192-0.35024-0.53544-0.55555-0.74473-0.61648-0.7063-0.77928-0.7487-0.69625-0.55455-0.61791-0.41406-0.71345-0.3977-0.52012-0.24013-0.66393-0.2507-0.82845-0.22939-0.63067-0.11684-0.73991-0.07722-0.448-0.016333-0.86534 0.027837-2.151 0.2298-1.4816 0.11049-1.3823 0.001263-2.5833-0.087156-1.3776 0.035688-1.2165 0.1374-1.0678 0.21573-1.3438 0.38858-1.3323 0.49607-1.2599 0.57348-0.81854 0.42527-1.9822 1.1576-1.0268 0.66546-1.3274 0.93177-1.7855 1.3771-1.6701 1.3819-2.0249 1.7897-1.8562 1.7242-0.9086 0.89148-1.9609 1.9844-2.7141 2.807-0.69393 0.66358-0.5794 0.5032-0.49693 0.38146-0.42835 0.28233-0.76214 0.38605-0.51869 0.18715-1.4821 0.36754-0.70202 0.21757-0.29028 0.06105-0.32238-0.012811-0.29359-0.12732-0.25389-0.30016-0.15485-0.51052-0.041522-0.648 0.043461-0.73229 0.1684-1.3167 0.049463-0.69593-0.015517-0.45684-0.16529-0.83284-0.31075-0.80073-0.6237-1.1562-0.49089-0.98941-0.46082-1.0989-0.39851-1.1684-0.29893-1.2025-0.15431-1.204 0.045882-1.1733 0.07291-0.39229 0.15677-0.57412 0.3341-0.88979 0.88667-2.0806 0.2396-0.75378 0.19199-0.77595 0.10558-0.77474-0.008029-0.66485-0.10018-0.65146-0.11874-0.43782-0.32291-0.83642-0.439-0.79467-0.55851-0.71526-0.54605-0.50831-1.2671-0.97333-0.99781-0.8488-0.97287-0.98544-0.88768-1.1112-0.73619-1.2305-0.36876-0.84951-0.30676-0.88144-0.46129-1.5254-0.39866-1.2059-0.52056-1.172-0.45348-0.73664-0.49542-0.6416-0.66469-0.68568-0.44054-0.33811-0.16916-0.080335-0.13068-0.003502-0.42943 0.22445-1.2926 0.5748-0.65694 0.20899-0.44836 0.075037-0.5264 0.007888-0.54822-0.06415-0.98372-0.23092-1.3518-0.39948-0.89423-0.2098-0.39118-0.052063-0.64261-0.01623-0.30564 0.017044-0.62249 0.08461-0.40659 0.1003-0.53647 0.1958-1.9831 0.97428-1.0901 0.42519-0.56256 0.16129-0.60686 0.12892-2.1303 0.34979-0.8089 0.19978-0.62692 0.21619-0.62309 0.25722-3.0186 1.3717-1.5237 0.64964-0.9168 0.43928-0.93724 0.5983-1.0222 0.83417-0.81519 0.78503-0.63832 0.68774-0.43213 0.50468-0.5944 0.76482-0.51605 0.79086-0.33536 0.66445-0.27241 0.84949-0.07524 0.84184 0.097758 0.8424 0.2391 0.81377 0.31508 0.77404 0.65666 1.4787 0.35163 1.0181 0.21254 1.1176 0.29165 2.5736 0.087621 1.193-0.003711 0.45437-0.074161 0.74691-0.18049 0.75236-0.29826 0.68982-0.33266 0.49364-0.27271 0.30599-0.3037 0.2771-0.6895 0.47074-0.78614 0.38842-0.7872 0.29466-1.0241 0.28874-1.8516 0.39284-0.56919 0.057445-0.60653-0.049619-0.58093-0.16216-0.61076-0.26157-0.74473-0.40954-0.75595-0.49102-0.80172-0.5848-1.9143-1.5426-1.1086-0.83841-0.63232-0.43079-0.90042-0.53129-0.52254-0.24762-0.72865-0.26622-1.5106-0.458-0.76857-0.27818-2.6351-1.136-1.0276-0.41944-1.4132-0.52825-0.869-0.39095-0.88809-0.45979-0.90267-0.51226-1.2125-0.73563-3.7059-2.3518-1.2414-0.74956-1.2102-0.67184-1.1635-0.55681-1.6209-0.65598-0.52688-0.26082-0.97365-0.647-0.95072-0.8001-1.9011-1.7978-0.98528-0.87009-0.77412-0.58934-1.0392-0.62599-0.6001-0.26094-0.61678-0.17757-0.7149-0.085746-0.73774 0.018488-0.88776 0.12514-1.0723 0.25023-1.1731 0.34916-1.1802 0.42521-1.1601 0.50608-1.1104 0.59765-1.2578 0.83478-2.2199 1.5902-1.3552 1.0616-0.93256 0.82218-0.86627 0.90231-2.6759 3.0646-0.31645 0.48087-0.068259 0.22742-0.095463 0.78035-0.15172 2.0067-0.14315 3.0867-0.094684 3.3354 0.041463 2.1901 0.29951 5.0365 0.16153 1.5381 0.96048 6.1364 0.15828 1.4972 0.17148 2.5023 0.20058 1.4146 0.29615 1.4268 0.37006 1.4342 0.42818 1.4369 0.4756 1.4351 0.5168 1.4283 0.55585 1.4158 0.59668 1.3962 0.53538 1.1492 0.54892 1.0778 0.59641 1.0448 0.66042 1.0008 0.94514 1.1942 1.04 1.1269 1.1018 1.0786 3.3893 3.0841 1.06 1.0117 0.96664 1.0174 0.82642 1.031 0.62704 1.0529 0.35235 1.0839 0.048391 0.67565-0.064782 0.68724-0.20151 0.83873-0.31149 0.84266-0.55592 1.1287-0.65195 1.073-0.6209 0.87983-0.7697 0.95086-0.66533 0.70864-0.45148 0.40489-1.1189 0.76651-1.2541 0.6625-3.534 1.7092-1.5912 0.73822-2.9349 1.2632-4.6235 1.8792-2.003 0.7731-2.3118 0.81654-1.2278 0.38145-1.1925 0.31781-1.1447 0.23346-1.0809 0.12222-0.99676-0.023458-0.88714-0.21274-0.58688-0.31049-0.49553-0.39098-0.43498-0.44167-1.3597-1.6871-0.57355-0.58777-0.36527-0.29222-0.64085-0.38068-0.45602-0.18866-0.2816-0.083752-0.57592-0.098985-0.56369-0.025003-1.8807 0.071245-0.81266-0.023397-0.81946-0.11273-0.85253-0.24132-0.85306-0.33563-2.1161-0.91325-0.8574-0.28634-1.0694-0.21123-1.1112-0.017011-1.0618 0.14207-0.48049 0.10453-2.6674 0.72976-0.18062 0.028657-0.1192-0.011533-0.29551 0.13912-1.5169 0.94294-0.69755 0.39234-0.72096 0.33992-0.8855 0.28534-0.85223 0.073044-0.91528-0.24616-0.79398-0.56036-0.6375-0.80566-0.3687-0.74091-0.30097-0.81666-0.60759-1.9046-0.35489-0.99105-0.30232-0.67846-0.45663-0.78056-0.54153-0.70126-0.42655-0.43732-0.46094-0.38052-0.58381-0.3616-0.34892-0.1573-0.64424-0.18897-0.6811-0.098483-1.2265-0.024748-2.2587 0.12695-0.84148 0.020333-1.049-0.054966-0.85371-0.13448-1.9702-0.39649-0.70698-0.084198-0.72171-0.044501-0.99752-0.006479-1.7176 0.097091-1.1869 0.14603-0.8981 0.18176-0.30014 0.082257-0.69057 0.25245-0.92912 0.50093-0.92976 0.58683-1.1183 0.64922-1.0892 0.55772-2.711 1.2229-1.0857 0.59253-1.404 0.87088-3.2839 2.1648-1.5483 0.98132-1.9339 1.1154-1.3888 0.69851-0.78938 0.35383-1.3494 0.53532-2.1804 0.77558-2.2313 0.73358-1.5916 0.4611-1.3226 0.31284-3.9347 0.77136-1.8177 0.44011-0.30279 0.12346 0.001721-0.41016-0.32444-5.3142-0.0824-2.4753 0.031447-1.5533 0.10094-1.0076 0.20601-0.98976 0.19782-0.58446 0.55584-1.0422 0.71878-0.91546 0.81018-0.8141 1.2697-1.1451 0.78474-0.76347 0.70074-0.8007 0.53452-0.76226 0.39086-0.65354 0.31859-0.66962 0.11578-0.31937 0.12541-0.44775 0.12478-0.88893 0.011862-0.90525-0.025824-0.49862-0.077037-0.66103-0.59912-3.1275-0.47297-3.4686-0.13081-1.3186-0.086893-1.4378-0.027273-1.2216 0.042476-1.6974 0.10969-1.2536 0.50127-3.9727 0.091362-0.92602 0.04506-0.72217 0.02659-2.2142 0.18076-3.5209 0.093388-0.78775 0.24999-1.1969 0.26316-0.82844 0.33214-0.8367 0.63625-1.364 0.66618-1.298 0.84513-1.5428 1.2185-2.0425 0.75692-1.1593 0.67079-0.94514 0.83495-1.0913 1.4787-1.8508 1.8421-2.1271 0.32532-0.53324 0.067248-0.22313 0.027886-0.2316-0.013115-0.2476-0.09703-0.35996-0.20741-0.3697-0.14304-0.17218-0.41612-0.35135-0.61724-0.33832-0.65883-0.24542-0.72323-0.1849-0.95724-0.14741-1.4964-0.083847-1.8617 0.042762-1.794 0.13251-4.8521 0.45427-1.8337 0.099111-1.0773-0.015929-0.35754-0.059612-0.064759-0.051875 0.013841-0.042064 6.4563-7.9613 5.7381-6.872 0.74755-0.94871 0.70916-0.98894 0.41171-0.65494 0.4084-0.74633 0.5606-1.2745 0.74569-2.081 0.9671-3.0811-0.025586-0.14579 0.044133-0.39241 0.26687-1.3667 0.49898-1.9572 0.33368-1.1026 0.54024-1.5369 0.5961-1.4298 1.2684-2.8023 0.56304-1.3928 0.44252-1.408 0.1642-0.73538 0.15876-1.0284 0.1074-1.4002 0.00944-1.324-0.075832-1.58-0.11167-1.2977-0.40881-3.6633-0.11145-1.3564-0.038672-1.2506 0.022061-0.92665 0.089155-1.1288 0.094646-0.71311 0.30566-1.4891 0.25698-0.88889 0.32328-0.92469 0.90989-2.3258 0.30144-0.98792 0.53376-2.0819 0.28654-0.88495 0.27714-0.7278 1.4474-3.2466 1.0287-2.1418 0.62485-1.1386 0.99209-1.6713 2.3142-4.5183 0.19926-0.46172 0.58766-1.8584 0.27891-0.64901 0.33047-0.64697 0.36314-0.6385 0.48931-0.66023 0.8342-0.97631 0.43809-0.65677 0.28266-0.5649 0.20293-0.72099 0.012259-0.46242-0.066466-0.44141-0.43149-1.5166-0.085025-0.7823 0.051549-0.73699 0.14043-0.78928 0.47526-2.0088 0.29276-0.93263 0.7653-2.1187 0.53731-1.3825 0.55283-1.2995 0.37928-0.80369 0.78694-1.4883 0.64608-1.0687 0.96629-1.4226 0.16066-0.29533 0.081458-0.28374-0.023215-0.26051-0.04702-0.10077-0.15138-0.17151-0.17363-0.11098-0.28238-0.10219-0.35246-0.066945-0.67554-0.038577-0.64229 0.022321-0.8813 0.07804-3.3142 0.42077-2.4685 0.25047-5.8605 0.39729-1.6833 0.048869-0.88881-0.039077-0.70601-0.071789-1.104-0.18308-0.81193-0.1902-0.73575-0.24475-0.272-0.1512-0.0686-0.080485-1.02e-4 -0.073103 0.29078 0.015439 0.59331-0.19527 2.33-1.1088 1.1448-0.50621 5.8943-2.4636 1.4516-0.56557 1.0558-0.37835 2.0166-0.65497 1.699-0.48352 1.4773-0.35824 6.733-1.2686 11.419-2.3898 2.2998-0.54303 4.1401-1.0724 1.0296-0.2216 1.1348-0.1328 0.71201 0.027947 0.86457 0.21179 1.5929 0.67475 0.8167 0.24967 0.54538 0.065301 0.56724-0.002689 0.62817-0.071685 0.46233-0.1064 0.43408-0.13947 0.76268-0.32693 0.67013-0.35583 2.2245-1.3257 0.71499-0.38401 0.71417-0.33122 0.75114-0.27457 1.2344-0.28095 0.88089-0.12714 0.88934-0.063065 0.84467 0.01169 0.86627 0.058106 2.674 0.2975 1.5875 0.12234 0.52039-0.051029 0.22357-0.14127 0.11129-0.13124 0.25944-0.18224 0.35032-0.17796 0.40059-0.12741 0.4223-0.038642 0.37238 0.060842 0.36664 0.14282 0.35654 0.2105 0.35001 0.26985 0.33692 0.31256 0.71571 0.80196 1.8122 2.2948 0.58915 0.65679 0.7133 0.71549 2.3801 2.2857 0.5651 0.45215 1.1889 0.84532 0.85774 0.70883 0.49266 0.47631 1.6703 1.7833 0.86747 0.81134 2.6794 2.2255 1.328 1.1554 1.2125 1.192 0.48425 0.54065 0.39112 0.51519 0.064376-0.10491 0.27204-0.10478 0.76539-0.1385 3.0878-0.37257 1.4166-0.22257 1.5028-0.29391 3.0676-0.66768 1.2648-0.21259 1.0664-0.098107 1.1989 0.006724 1.4422 0.12908 3.0887 0.40767 0.63485 0.042398 0.69301-1.73e-4 0.7841-0.082152 1.0467-0.27961 0.75839-0.31044 0.74867-0.37576 1.067-0.62053 2.8606-1.8675 1.4207-0.88276 1.0601-0.61426 2.5734-1.352 0.73031-0.44163 0.66748-0.45067 0.91433-0.67355 3.5406-2.8576 1.8185-1.3837 0.88018-0.71296 1.2035-1.1007 2.1195-2.0679 1.4992-1.5277 1.1385-1.2659 0.65142-0.60776 0.50835-0.3152 0.55684-0.2198 0.82881-0.15278 1.7222-0.088728 0.86079-0.002386 1.4979 0.093904 0.95919 0.1364 0.94641 0.24969 0.70288 0.29045 0.52628 0.27082 0.57632 0.33551 2.3846 1.4977 0.7498 0.39588 0.69848 0.29024 0.81228 0.21548 0.71863 0.068722 0.72353-0.023747 0.75228-0.095062 0.76405-0.14693 2.6625-0.6473 1.1336-0.22165 0.79535-0.094703 0.78431-0.022384 0.95862 0.089747 0.5962 0.11094 2.1659 0.54109 0.70686 0.14685 0.65611 0.082705 1.0374 0.007763 1.9303-0.11831 0.87459-0.065256 3.6796-0.44371 1.3911-0.033393 1.0761 0.10359 1.073 0.21278 1.2292 0.37038 0.85546 0.34266 0.66452 0.33396 0.31812 0.21116 0.11806 0.1588-0.85941 1.8044-0.30764 0.78197-0.10765 0.36381-0.062675 0.33616-0.003819 0.30062 0.072669 0.25558 0.16671 0.20734 0.24192 0.1635 0.29569 0.13167 0.33343 0.10895 0.73606 0.1752 2.3368 0.44238 0.70005 0.19771 0.30428 0.12807 0.25674 0.15823 0.19103 0.19964 0.1111 0.25392 0.041659 0.29583-0.011046 0.32526-0.13752 0.70008-0.26007 0.71341-0.17746 0.34253-0.21676 0.3212-0.23543 0.26647-0.26472 0.24773-1.158 0.93178-0.26372 0.24654-0.2285 0.26248-0.17771 0.28239-0.12074 0.31903-0.060173 0.32148-0.01217 0.29574 0.023928 0.23069 0.05144 0.11101 0.29086 0.20889 0.51617 0.19748 0.9326 0.18369 1.0011 0.038574 0.6421-0.070772 0.56454-0.16328 0.52491-0.26942 0.48014-0.39379 0.19436-0.21514 0.48669-0.77285 0.37118-0.8954 0.29076-0.91813 0.43833-1.8129 0.17896-0.56696 0.21001-0.55057 0.27887-0.6015 0.13047-0.23246 0.57285-0.79119 0.7073-0.73744 0.79677-0.6839 0.84793-0.62818 1.7148-1.1617 3.3851-2.3628 1.0414-0.69463 1.0566-0.65654 2.5917-1.4882 2.4787-1.5404 3.5763-1.974 0.495-0.33183 0.65425-0.55993 0.3048-0.33928 0.42254-0.62397 0.23878-0.43615 0.19221-0.42 0.43015-1.298 0.18541-0.47388 0.25108-0.43954 0.54282-0.55205 0.58648-0.35772 0.68939-0.31295 0.55971-0.19813 0.9801-0.23684 0.91159-0.11174 1.1119-0.093095 1.0053-0.1336 1.0558-0.25191 0.70697-0.22171 1.1919-0.43717 3.4644-1.385 2.5714-0.84932 1.1125-0.33062 4.1013-1.1337 4.5607-1.0216 0.71402-0.19401 0.79842-0.29096 0.87232-0.44738 0.54186-0.3354 3.271-2.3092 0.91294-0.57801 0.91907-0.4879 0.92509-0.35837 0.95246-0.21048 2.2368-0.29793 1.0405-0.28791 0.60142-0.27977 0.31842-0.18555 0.43231-0.29187 0.511-0.40169 0.69519-0.63785 1.0629-1.1482 1.5913-1.9351 0.3418-0.3127 0.12628-0.064144 0.12451-0.022628 0.073735 0.014432 0.10421 0.08295 0.066236 0.12333 0.05831 0.20881 0.045231 0.46084-0.023441 0.62435-0.070238 0.56693-0.14348 0.80054-0.7477 3.2834-0.1934 1.0422-0.082266 0.67723-0.038787 0.70352 0.011026 0.57998 0.060785 0.6102 0.1348 0.6951 0.16471 0.55579 0.25763 0.62716 0.38517 0.69385 0.54892 0.74578 0.73584 0.78512 0.81813 0.70944 0.53688 0.39987 0.6411 0.42207 1.0466 0.57101 1.0714 0.43469 0.50178 0.14929 0.9757 0.20154 0.98674 0.13258" stroke="#bdc660"/>
    </defs>
    <g clip-path="url(#p6d02cd4086)">
     <use y="253.540795" fill="#bdc660" stroke="#bdc660" xlink:href="#mcfda558af4"/>
    </g>
   </g>
  </g>
 </g>
 <defs>
  <clipPath id="p6d02cd4086">
   <rect x="7.2" y="7.2" width="357.12" height="239.14"/>
  </clipPath>
 </defs>
</svg>
