<?xml version="1.0" encoding="UTF-8"?>
<!DOCTYPE svg  PUBLIC '-//W3C//DTD SVG 1.1//EN'  'http://www.w3.org/Graphics/SVG/1.1/DTD/svg11.dtd'>
<svg width="371.52pt" height="242.13pt" version="1.1" viewBox="0 0 371.52 242.13" xmlns="http://www.w3.org/2000/svg" xmlns:xlink="http://www.w3.org/1999/xlink">
 <metadata>
  <rdf:RDF xmlns:cc="http://creativecommons.org/ns#" xmlns:dc="http://purl.org/dc/elements/1.1/" xmlns:rdf="http://www.w3.org/1999/02/22-rdf-syntax-ns#">
   <cc:Work>
    <dc:type rdf:resource="http://purl.org/dc/dcmitype/StillImage"/>
    <dc:date>2024-07-04T12:10:55.577786</dc:date>
    <dc:format>image/svg+xml</dc:format>
    <dc:creator>
     <cc:Agent>
      <dc:title>Matplotlib v3.7.1, https://matplotlib.org/</dc:title>
     </cc:Agent>
    </dc:creator>
   </cc:Work>
  </rdf:RDF>
 </metadata>
 <defs>
  <style type="text/css">*{stroke-linejoin: round; stroke-linecap: butt}</style>
 </defs>
 <g id="figure_1">
  <g id="patch_1">
   <path d="m0 242.13h371.52v-242.13h-371.52v242.13z" fill="none"/>
  </g>
  <g id="axes_1">
   <g id="PatchCollection_1">
    <defs>
     <path id="m9d02264c9e" d="m302.52-181.46 0.067227 0.038348 0.23892 0.27689 0.4405 0.63008 0.58414 0.94234 0.53545 0.9843 0.32111 0.6892 0.75184 1.9706 0.24445 0.55996 0.54462 0.99333 0.48205 0.73667 0.52529 0.73537 0.80316 1.0585 1.0871 1.3124 1.1106 1.2376 4.8412 5.0561 1.4516 1.5654 0.6971 0.67701 0.69882 0.55429 0.71548 0.38437 0.2209 0.074954 0.48524 0.10268 2.0014 0.10982 0.57463 0.11676 0.55847 0.21244 0.48886 0.29317 0.46005 0.37167 0.38955 0.38788 0.62733 0.77087 0.74752 1.1093 0.37272 0.63302 0.58076 1.071 0.34595 0.71738 0.69281 1.6333 0.23001 0.48805 0.38452 0.64228 0.4723 0.62123 0.65273 0.68482 0.73704 0.62115 0.80075 0.54027 0.45429 0.25357 1.6619 0.8258 0.80988 0.46846 0.54963 0.36434 0.32266 0.24198 0.55504 0.50323 0.2999 0.35292 0.17984 0.26412 0.14051 0.25955 0.14025 0.37482 0.038539 0.16856 0.029297 0.26885-0.042615 0.48061-0.062193 0.23065-0.22316 0.50541-0.46934 0.68942-0.71855 0.77234-0.85072 0.74628-0.92657 0.7218-1.451 1.0585-0.62631 0.48692-0.43086 0.36427-0.58863 0.5422-0.43877 0.43929-2.3889 2.5658-0.66377 0.74102-0.2965 0.38109-0.22232 0.33043-0.17328 0.31984-0.13631 0.61986 0.089626 0.333 0.21138 0.31073 0.49238 0.39564 0.18868 0.11279 0.35738 0.18712 0.95595 0.42893 4.3032 1.7894 0.38064 0.19316 0.21262 0.15844-0.029308 0.12056-0.25212-0.048175-0.2879 0.093087-0.32306 0.23824-0.29144 0.34715-0.10091 0.16233-0.16838 0.36602-0.085106 0.30726-0.033678 0.40958 0.058802 0.40124 0.1095 0.3227 0.20509 0.39633 0.24261 0.34998 0.20451 0.24635 0.45522 0.4581 0.58052 0.47114 0.81668 0.52173 0.40516 0.21174 0.53012 0.23986 0.63018 0.24043 1.0214 0.30585 0.74138 0.1591 0.53115 0.07825 0.61754 0.051815 0.66475 0.010148 0.52062-0.021617 1.0222-0.10308 0.6884-0.1129 2.2913-0.4398 1.6936-0.20764 0.53403 0.004002 0.48086 0.097837 0.25059 0.11381 0.28988 0.22712 0.18017 0.23542 0.20255 0.446 0.13467 0.5844 0.075447 0.85783 0.032088 1.8874 0.044739 0.67648 0.08237 0.69309 0.24354 1.3019 0.56802 2.4229 0.18761 0.95282 0.080405 0.53297 0.092563 1.0374 0.005316 1.1578-0.048286 0.80649-0.086802 0.80317-0.15182 0.9534-0.15614 0.74873-0.18845 0.73459-0.19796 0.64085-0.22836 0.62267-0.29856 0.67996-0.3398 0.64746-0.48329 0.76526-0.52795 0.70831-0.36015 0.42706-0.48112 0.49235-0.43224 0.38818-0.64504 0.52153-2.0147 1.4526-1.6601 1.2301-0.6921 0.56868-0.63501 0.60688-0.55326 0.64704-0.3684 0.53702-0.69568 1.1401-0.5296 0.92703-1.0583 1.9808-1.4394 2.299-0.39685 0.69698-0.29265 0.57118-0.32729 0.71936-0.28763 0.7312-2.5202 7.6362-0.49389 1.2997-0.52328 1.1634-0.56042 1.0483-0.67755 1.0593-0.55484 0.7773-2.2587 2.8828-0.64254 0.90846-0.58855 1.0075-0.32184 0.74159-0.3407 1.0909-0.14819 0.69251-0.099322 0.65429-0.11924 1.3837-0.092466 2.6753-0.10496 1.7048-0.079794 0.72467-0.12059 0.74308-0.088681 0.42233-0.22793 0.87537-0.27684 0.86774-0.21151 0.58221-0.41101 0.96792-0.16681 0.30744-0.15606 0.15315-0.083905-0.12372-0.19612-0.14614-0.3893-0.20596-0.58271-0.20216-0.33636-0.065769-0.68103-0.024285-0.70156 0.10368-0.68875 0.21635-0.31215 0.13747-0.70334 0.41944-1.314 1.0258-0.67229 0.49005-0.72415 0.42651-0.42473 0.22353-0.43146 0.20773-1.5102 0.63152-0.90166 0.43998-0.57712 0.30862-0.4179 0.23971-0.3993 0.26745-0.48669 0.41935-0.45326 0.49354-0.422 0.55329-0.57567 0.91796-0.39846 0.74875-1.8243 3.6996-1.1917 2.5246-0.28984 0.51895-0.32064 0.47702-0.37777 0.4504-0.82134 0.8554-0.49578 0.56689-1.9424 2.487-0.50388 0.58616-0.52362 0.53112-0.91038 0.7712-0.44114 0.40382-0.45068 0.5075-0.42498 0.567-0.97477 1.4664-1.6482 2.6612-0.35074 0.50574-0.39006 0.50469-0.31447 0.35131-0.17702 0.12402-0.14676-0.24834-0.38648-0.28288-0.55677-0.27364-0.21592-0.081724-0.74946-0.21105-0.82688-0.10972-0.89287 0.022528-0.92539 0.13076-2.2151 0.46019-1.2115 0.18604-1.0905 0.1019-0.90068 0.04744-1.3971 0.028741-3.5178-0.04634-3.1434 0.072612-1.6915 0.091979-1.242 0.15252-1.3131 0.2411-2.4986 0.50466-1.21 0.15875-0.70175 0.017346-0.54253-0.054104-0.4895-0.12569-0.32575-0.15883-0.2835-0.22597-0.25901-0.34689-0.18437-0.41101-0.084109-0.28353-0.049959-0.257-0.035924-0.43168 0.040029-0.70256 0.095337-0.55601 0.097805-0.42205 0.38756-1.3496 0.030483-0.29658-0.014632-0.23907-0.079904-0.29208-0.29315-0.43672-0.20558-0.18746-0.56452-0.3453-0.65811-0.24658-1.324-0.41881-0.6075-0.24043-0.45979-0.26295-0.36091-0.27392-0.60727-0.58711-0.25424-0.31173-0.46118-0.67861-0.28264-0.54331-0.13604-0.32647-0.20098-0.60652-0.44876-1.6788-0.44416-2.2242-0.22043-1.4681-0.058615-1.1142-0.00432-2.1612-0.021421-0.80352-0.058695-0.78646-0.10038-0.68724-0.16098-0.65583-0.24143-0.64428-0.26039-0.54306-0.42949-0.71087-0.43517-0.58004-0.61982-0.68516-0.33221-0.29582-0.76687-0.55046-2.0716-1.1695-0.6252-0.39302-0.64605-0.4663-0.56271-0.52232-0.39966-0.51847-0.30822-0.52773-0.6493-1.3096-0.44428-0.73187-0.56809-0.66976-0.68249-0.63246-0.75968-0.60967-2.4249-1.8201-1.6165-1.3183-3.5023-2.796-0.77656-0.50176-0.41958-0.20775-0.73452-0.24656-0.53986-0.079096-0.7087 0.03006-0.72648 0.15373-0.84486 0.28603-1.2606 0.54852-3.0227 1.4672-3.098 1.4168-1.3428 0.5663-3.148 1.2003-1.2831 0.45281-0.8754 0.27711-0.3419 0.090502-0.80542 0.15688-0.58206 0.062858-0.67136 0.014474-0.90808-0.11786-0.63177-0.20348-0.69646-0.31092-1.2305-0.64545-0.931-0.53806-0.86511-0.53924-3.1683-2.0821-0.82276-0.47217-0.55256-0.26377-0.51478-0.19072-0.41984-0.10579-0.30121-0.043012-0.33424-0.011228-0.24172 0.018925-0.49538 0.11748-0.48309 0.21032-0.83547 0.55245-0.72602 0.62891-0.71697 0.72488-0.70454 0.79461-0.63814 0.78095-0.62459 0.81755-0.59692 0.83617-0.58935 0.89629-0.53181 0.90363-0.46444 0.89399-0.38773 0.86773-0.29698 0.82424-0.098157 0.34165-0.7385 2.9776-0.19849 1.001-0.12255 1.0709-0.068607 1.226 0.032886 1.1485 0.20639 2.2326 0.047259 0.9948-0.035754 0.51518-0.10517 0.50277-0.1648 0.46413-0.28946 0.53375-0.51742 0.53772-0.66574 0.36941-0.59186 0.16091-1.6203 0.20367-0.51968 0.084185-1.0503 0.2702-1.0923 0.40222-1.1095 0.51732-1.1004 0.62143-1.0612 0.7198-0.98549 0.8164-0.86577 0.91268-0.63665 0.88296-0.41166 0.7255-0.39897 0.944-0.2761 0.88671-0.18523 0.74048-0.092055 0.47504 0.028004 0.16392-0.28891 0.13012-0.43527-0.24747-0.54739-0.62636-1.1962-1.7719-0.68569-0.86488-0.78834-0.69382-0.83273-0.41369-0.90465-0.22573-0.92917-0.081336-0.73003 0.020073-0.69968 0.11047-0.80172 0.27317-1.4105 0.68901-0.72209 0.31838-0.78835 0.25527-1.57 0.45245-0.72225 0.3203-0.65768 0.45241-0.60379 0.53745-1.1579 1.0868-0.60586 0.43142-0.68077 0.31219-1.361 0.47461-0.59212 0.34048-0.46257 0.48609-0.34124 0.61228-0.1423 0.39951-0.086989 0.31974-0.25761 1.2243-0.1543 0.53899-0.31898 0.84904-0.40523 0.87401-0.24454 0.4706-0.27575 0.44249-0.44929 0.52868-0.53575 0.44397-0.60592 0.33741-0.66307 0.20406-0.7854 0.051968-0.83039-0.076963-2.0589-0.31063-0.90773-0.041857-1.0757 0.11294-1.0556 0.2689-1.0028 0.3921-0.91162 0.49144-0.77317 0.5745-0.57528 0.64766-0.34198 0.70589-0.22546 0.73328-0.259 0.71984-0.3675 0.59575-0.50796 0.4931-0.26604 0.17078-0.3127 0.1561-0.68728 0.23425-0.76591 0.092642-0.49446-0.034526-0.78425-0.17274-0.63358-0.22124-0.85231-0.3959-2.2805-1.3306-1.0473-0.52782-0.65321-0.25888-0.57105-0.16497-0.46044-0.053369-0.21525 0.11211 0.084265-0.14349 0.14136-0.36283 0.20885-0.62543 0.39384-1.4977 0.25909-1.2405 0.56723-3.1751 0.1852-1.2009 0.12929-1.1444 0.037952-1.0684-0.092659-0.97198-0.23965-0.84358-0.33662-0.75745-0.6682-1.2326-0.31071-0.48287-0.35382-0.40098-0.46952-0.31937-0.52695-0.17304-0.55162-0.011754-0.56476 0.15967-1.8465 0.93533-0.7965 0.29584-1.1812 0.33091-0.99234 0.21078-0.93767 0.14717-1.8239 0.15552-0.54742 0.069811-0.84469 0.17489-1.8621 0.48429-0.37493 0.059937-0.37785 0.027457-0.56253-0.030704-0.54435-0.093662-1.3669-0.33385-0.83904-0.2601-0.39778-0.20887-0.28929-0.35019-0.080645-0.34371 0.009759-0.35542 0.084347-0.56661 0.006766-0.20612-0.056201-0.17553-0.040951-0.051638-0.087262-0.066429-0.17591-0.05822-0.34193 0.015536-0.31922 0.0844-2.2105 0.85145-0.57012 0.19603-0.59548 0.1572-0.50111 0.089497-1.0767 0.14667-1.3954 0.1662-0.82563 0.073723-0.68006 0.002142-0.5835-0.08251-0.67765-0.20874-1.3554-0.58279-0.70035-0.27339-0.64442-0.18902-1.1706-0.25384-1.7941-0.30521-0.53938-0.20572-0.30232-0.21007-0.26086-0.26394-0.24777-0.34967-0.31675-0.60655-0.3719-1.0264-0.23055-0.98063-0.088446-0.763 0.009223-0.73927 0.090428-0.59152 0.23334-1.1271 0.047295-0.57487-0.011028-0.39086-0.040236-0.35166-0.1496-0.56864-0.31966-0.49497-0.27212-0.23434-0.32488-0.19613-0.3605-0.16285-0.74067-0.24502-0.97085-0.24856-0.53667-0.099987-0.8051-0.061364-0.84502 0.018272-0.42002 0.033197-0.84274 0.12928-0.7466 0.18225-0.79148 0.26026-0.76196 0.32559-0.71255 0.39441-0.39398 0.26847-0.62206 0.5019-0.54587 0.56844-0.30802 0.4163-0.4342 0.72024-1.1192 2.0581-0.41892 0.66306-0.48716 0.6435-1.799 2.1912-0.68225 0.72715-0.73878 0.62442-0.57441 0.35574-0.71827 0.31792-0.73667 0.23811-1.1708 0.32959-1.8883 0.60263-0.94635 0.3294-0.7655 0.29413-2.0475 0.91682-0.56948 0.31269-0.31363 0.25547-0.37788 0.41541-0.31035 0.41955-0.59281 0.85062-0.33704 0.54302-0.25934 0.55699-0.53276 1.4679-0.32605 0.79221-0.40116 0.80012-0.36034 0.58545-0.16007 0.23047-0.48244 0.60113-0.4456 0.44207-0.6678 0.5442-0.51726 0.35938-0.83506 0.47521-0.73583 0.316-0.87308 0.25741-0.50979 0.082786-0.47003 0.023891-0.98381-0.11903-0.97982-0.27341-0.97747-0.32772-0.97178-0.28144-0.95425-0.1359-0.63389 0.030337-0.3372 0.058312-0.63032 0.1907-0.43969 0.20665-0.33248 0.22506-0.12384 0.125-0.058141 0.090671-0.029751 0.11334-0.37438 0.094356-0.472-0.13499-0.41942-0.29258-0.5142-0.6317-0.31808-0.73119-0.091134-0.54731 0.04187-0.54962 0.19849-0.55583 0.33068-0.53794 0.56634-0.67823 1.7617-1.7951 0.60452-0.74799 0.42274-0.74929 0.18001-0.7605-0.013363-0.31342-0.18357-0.66544-0.099087-0.21491-0.44469-0.70385-0.26978-0.33237-1.2123-1.3517-0.62906-0.78468-0.58605-0.95895-0.33852-0.84074-0.24144-0.90165-0.16547-0.94482-0.10289-0.92668-0.053151-0.78693-0.020086-1.0957 0.024045-0.69111 0.054457-0.68392 0.15291-1.0573 0.2164-0.93772 0.26534-0.89396 0.36533-0.99924 0.23829-0.51602 0.82033-1.4358 0.26662-0.51592 0.34169-0.9061 0.22912-0.98318 0.10087-0.81243 0.025581-0.56838-0.026654-0.85204-0.083518-0.77545-0.17508-0.92673-0.26272-0.90848-0.1485-0.41197-0.33058-0.7928-0.65414-1.3166-0.43438-0.77044-1.0774-1.8006-0.36696-0.69884-0.31051-0.72041-0.32188-1.0849-0.19698-1.1298-0.10153-1.1583-0.029093-1.1721 0.007841-0.61872 0.056725-1.2466 0.19449-2.9154 0.10228-1.2545 0.12376-1.1228 0.50942-3.2402 0.52616-3.1418 0.10149-0.86532 0.027893-0.62333-0.029543-0.59752-0.10098-0.56854-0.32461-0.85439-0.92138-1.6089-0.40613-0.84286-0.27681-0.9448-0.17619-0.99738-0.14469-1.014-0.18044-0.99588-0.40498-1.5424-0.18494-0.93729-0.29376-1.9384-0.18292-0.94147-0.25893-0.88165-0.26908-0.62662-0.50323-1.0214-0.2783-0.65045-0.60753-1.5386-0.30822-0.9243-0.4871-1.5905-0.66962-2.3707-0.70163-2.0517-0.41395-0.99304-0.5899-1.1363-0.55152-0.93522-0.49531-0.76826-1.4418-2.1281-1.478-2.0145-1.5988-2.3713-0.65733-0.83197-2.3448-2.667-0.70351-0.9308-0.26969-0.42898-0.27982-0.50089-0.96897-1.7885-0.21464-0.44721-0.32316-0.93762-0.11672-0.963 0.055431-1.0043 0.14316-0.80187 0.20734-0.79593 0.48337-1.5891 0.22349-1.0369 0.11964-1.0463-0.0085-1.0252-0.16979-0.97218-0.20859-0.57551-0.37306-0.70847-1.2733-1.9856-1.604-2.238-0.50896-0.7699-1.5777-2.7508-0.71347-1.1715-1.4467-2.0122-2.3743-3.4357-0.4533-0.72274-0.38856-0.73383-0.27392-0.68985-0.17291-0.66378-0.068207-0.55923 0.003857-0.78492 0.12323-0.91238 0.2231-0.92877 0.24385-0.79396 1.0772-2.9003 0.26764-0.83335 0.11628-0.42371 0.24738-1.1 0.14874-1.1171 0.014822-1.1697-0.12554-1.1486-0.25481-1.0957-0.34528-0.98419-0.52952-1.3281-0.26689-0.86316-0.064873-0.34045-0.039077-0.4196 0.006865-0.40632 0.054946-0.14023 0.064457-0.10147 0.19257-0.19594 0.54115-0.46938 0.37956-0.29922 0.78111-0.56142 4.4273-2.8923 1.3704-0.82254 0.86964-0.44334 0.76887-0.31178 1.0618-0.30897 3.7021-0.90453 0.91918-0.19414 0.94248-0.16171 2.4615-0.35894 4.2293-0.72591 0.50728-0.12467 0.48772-0.15126 1.0877-0.44714 1.0576-0.57144 0.7605-0.49797 0.91873-0.71218 1.7716-1.538 0.90381-0.73661 0.87759-0.61578 0.85424-0.50432 0.66616-0.33704 1.0893-0.46354 3.1358-1.0984 0.91008-0.35799 0.95189-0.44322 2.1254-1.1402 1.2199-0.68184 2.3139-1.3584 1.2257-0.63741 0.83423-0.3608 0.41099-0.14354 0.45557-0.11533 0.21226-0.031395 0.33239-0.012877 0.30472 0.033199 0.72205 0.28871 0.65996 0.511 1.2862 1.3205 0.72911 0.69174 0.78921 0.67582 2.644 2.0255 1.3372 1.2001 0.37929 0.31293 0.50188 0.36211 0.35586 0.22099 0.44063 0.22782 0.44772 0.17093 0.52901 0.11895 0.53646 0.056246 0.73738 0.006671 0.45751-0.048889 0.58877-0.1097 1.3559-0.30021 0.35448-0.054396 0.80142-0.04911 0.64785 0.054388 0.65264 0.13183 0.64192 0.19215 0.62796 0.23173 0.61947 0.27528 0.84917 0.46835 0.71269 0.4788 0.66249 0.52904 0.5973 0.56592 0.51417 0.59122 0.8374 1.2044 0.40868 0.51486 0.46294 0.47739 0.51832 0.41712 0.5031 0.30409 0.53459 0.25429 1.379 0.53547 0.85496 0.35721 0.94443 0.34636 0.77684 0.19668 1.0988 0.1983 2.7814 0.36924 1.5956 0.24017 0.91998 0.050549 0.91144-0.029365 0.86946-0.10162 0.52138-0.10536 0.4845-0.15187 0.48831-0.23881 0.4205-0.30923 0.46518-0.5303 0.33513-0.55501 0.35741-0.72734 0.33443-0.25352 0.44865 0.023409 0.47605 0.28209 0.30152 0.34585 0.41488 0.73546 0.33822 0.81052 0.8706 2.2511 0.21447 0.49724 0.38562 0.8201 0.4165 0.79469 0.44378 0.75572 0.54376 0.80254 0.41987 0.52007 0.72223 0.69515 0.20508 0.154 0.73508 0.42151 0.46995 0.17134 0.47821 0.11377 0.76513 0.072332 0.91037-0.10958 0.94314-0.26431 0.96276-0.35164 2.1228-0.85606 1.7487-0.75369 0.45327-0.15813 0.39045-0.09145 0.34166-0.027963 0.30085 0.051285 0.18549 0.12277 0.08726 0.15591 0.026825 0.18624-0.10738 0.54846-0.29525 0.66996-0.43702 0.74035-0.54397 0.76676-0.62196 0.75017-0.52537 0.5499-0.36038 0.33923-1.1778 0.9971-0.43606 0.44802-0.26982 0.37871-0.2698 0.58253-0.12147 0.59259 0.041718 0.56312 0.22826 0.49229 0.56301 0.46694 0.81188 0.32983 0.9923 0.22303 1.1203 0.13737 1.2085 0.064739 1.2662-0.002223 1.3005-0.070477 1.1784-0.12626 1.006-0.15621 1.0026-0.19729 1.4324-0.35849 1.274-0.41003 4.3274-1.565 2.7745-1.0757 3.8843-1.6525 1.0005-0.47508 1.2376-0.64891 1.6582-0.97128 0.66711-0.42337 1.2841-0.91118 2.728-2.1454 0.88527-0.65235 0.69317-0.45097 0.51422-0.29678 0.95499-0.47394 0.55904-0.23034 0.55988-0.19512 2.4148-0.64334 1.9086-0.45828 0.57808-0.16709 0.40154-0.15394 0.22578-0.10849 0.49251-0.32161 0.5429-0.58268 0.4198-0.71794 0.31786-0.80977 0.3164-1.1592 0.17975-0.80928 0.10045-0.52148 0.14311-1.0131 0.091836-1.0388 0.054581-1.0414 0.063338-2.915 0.091049-0.83474 0.23634-1.1427 0.43642-1.4941 0.13557-0.55024 0.7009-3.8972 0.31765-1.8927 0.18028-0.82454 0.22594-0.83696 0.26223-0.83956 0.83897-2.5171 0.39936-1.5046 0.16067-0.84696 0.16671-1.1586 0.13046-1.3083 0.015865-0.35698-0.01514-0.16433 0.012308-0.090767 0.19518-0.32846 0.50885-0.67712 0.70261-0.8404 0.82122-0.92072 3.421-3.6784 0.57919-0.59508 0.92949-0.84388 0.82025-0.67692 1.2561-0.95959 2.0987-1.4609 1.6758-1.0871 1.9062-1.1313 0.78595-0.42351 0.76586-0.36916 1.9037-0.76451 0.83774-0.28017 0.32701-0.075345 0.4628-0.059751 0.15988-0.006333 0.70917 0.058151 0.72515 0.1816 0.73096 0.28676 0.58571 0.2969 0.8323 0.50258 2.5329 1.7121 3.2843 2.0659 0.97951 0.69663 0.37368 0.29548 0.67117 0.56152 0.72174 0.65787 0.65186 0.68659 0.55227 0.72562 0.41759 0.77726 0.2796 0.93389 0.14093 0.98687 0.14627 2.028 0.073037 0.61437 0.1731 0.83948 0.13591 0.43086 0.20828 0.511 0.40009 0.71464 0.21442 0.2882 0.27501 0.31253 0.56018 0.53183 0.41847 0.33406 0.44689 0.3168 3.8533 2.4079 2.33 1.5252 0.58529 0.4121 0.8011 0.60678 1.5797 1.2462 1.2092 0.87124 0.91851 0.57798 3.7645 2.2111 1.0791 0.69273 1.1046 0.78783 3.565 2.6921 0.57671 0.49389 0.71271 0.72311 0.56466 0.77623 0.20464 0.39187 0.19617 0.49952 0.12907 0.46846 0.15643 0.93908 0.17544 1.3554 0.085516 0.42524 0.12235 0.45488 0.2198 0.59261 0.20903 0.40854 0.25382 0.37622 0.31961 0.37561 0.7397 0.70264 0.77768 0.64653 3.4277 2.6048 2.5094 1.94 1.4453 1.0022 1.2528 0.80389 1.4815 0.90666 0.58566 0.2775 0.60441 0.20326 0.73154 0.17106 0.39321 0.049237 0.99074 0.025271 1.4517-0.048168 0.74578 0.030623 0.34463 0.049847 0.7575 0.2081 0.74254 0.30163 1.5836 0.7183 0.44883 0.1729 0.73878 0.2402 0.76874 0.16387 0.92703 0.055464 0.76252-0.052708 0.78799-0.12008 2.4599-0.47693 1.3721-0.18305 0.45704-0.03681 0.71253-0.016603 0.86104 0.075654 0.68114 0.12904 0.66359 0.1853 0.91825 0.35164 0.63086 0.28261 2.8441 1.532 1.0248 0.45429 0.78016 0.25507 0.79862 0.13603 0.81329-0.014614 0.83777-0.13822 0.86334-0.22647 0.95987-0.31203 0.95401-0.35899 0.96944-0.40198 3.6983-1.6184 5.3616-2.1681 3.9354-1.6205 1.8774-0.81115 0.85699-0.40779 0.83393-0.42862 1.1876-0.67714 1.2705-0.82409 1.1716-0.85536 0.50391-0.41764" stroke="#bdc660"/>
    </defs>
    <g clip-path="url(#pa84b89d27e)">
     <use y="242.13219" fill="#bdc660" stroke="#bdc660" xlink:href="#m9d02264c9e"/>
    </g>
   </g>
  </g>
 </g>
 <defs>
  <clipPath id="pa84b89d27e">
   <rect x="7.2" y="7.2" width="357.12" height="227.73"/>
  </clipPath>
 </defs>
</svg>
