<?xml version="1.0" encoding="UTF-8"?>
<!DOCTYPE svg  PUBLIC '-//W3C//DTD SVG 1.1//EN'  'http://www.w3.org/Graphics/SVG/1.1/DTD/svg11.dtd'>
<svg width="315.56pt" height="280.51pt" version="1.1" viewBox="0 0 315.56 280.51" xmlns="http://www.w3.org/2000/svg" xmlns:xlink="http://www.w3.org/1999/xlink">
 <metadata>
  <rdf:RDF xmlns:cc="http://creativecommons.org/ns#" xmlns:dc="http://purl.org/dc/elements/1.1/" xmlns:rdf="http://www.w3.org/1999/02/22-rdf-syntax-ns#">
   <cc:Work>
    <dc:type rdf:resource="http://purl.org/dc/dcmitype/StillImage"/>
    <dc:date>2024-07-04T12:11:00.078429</dc:date>
    <dc:format>image/svg+xml</dc:format>
    <dc:creator>
     <cc:Agent>
      <dc:title>Matplotlib v3.7.1, https://matplotlib.org/</dc:title>
     </cc:Agent>
    </dc:creator>
   </cc:Work>
  </rdf:RDF>
 </metadata>
 <defs>
  <style type="text/css">*{stroke-linejoin: round; stroke-linecap: butt}</style>
 </defs>
 <g id="figure_1">
  <g id="patch_1">
   <path d="m0 280.51h315.56v-280.51h-315.56v280.51z" fill="none"/>
  </g>
  <g id="axes_1">
   <g id="PatchCollection_1">
    <defs>
     <path id="m10067f37d2" d="m152.11-240.55-0.41608 0.84836-0.17524 0.29518-0.17498 0.24445-0.1002 0.11598-0.28482 0.24817-0.203 0.12058-0.15702 0.064788-0.1301 0.034137-0.47016-0.018921-0.23584-0.082269-0.50321-0.28847-0.45482-0.37639-0.60983-0.62278-0.21766-0.10878-0.21512 0.037579-0.17338 0.18762-0.081885 0.23899-0.034285 0.30685 0.024462 0.46393 0.083371 0.43971 0.12366 0.423 0.16827 0.44849 0.25376 0.56695 0.28153 0.53526 1.3739 2.3241 0.72417 1.3283 0.571 1.1101 0.46782 0.98815 0.37772 0.90967 0.43443 1.2529 0.34052 1.1713 0.26247 1.0289 0.39123 1.8152 0.53043 2.973 0.19682 0.79825 0.27816 0.88282 0.33942 0.85384 0.44105 0.88253 0.51131 0.83292 0.55574 0.78091 1.5437 1.9535 0.586 0.7992 0.34107 0.51184 1.075 1.7328 0.43171 0.61438 0.26435 0.30642 0.28666 0.25259 0.46565 0.24802 0.53346 0.11428 0.38229 0.020036 0.52442-0.015582 0.54274-0.045491 1.0681-0.13612 2.7653-0.44322 0.76356-0.08193 0.90376-0.026072 0.54845 0.034259 0.4684 0.064152 0.94273 0.22853 0.9347 0.33493 0.9307 0.41178 0.93085 0.4631 2.9948 1.557 1.1309 0.53592 1.0922 0.47113 1.0997 0.42126 1.1026 0.35828 1.1012 0.27658 1.0951 0.16915 1.0839 0.027442 0.62383-0.062127 0.47536-0.080365 0.69839-0.15665 0.93222-0.26696 1.0602-0.37171 1.1116-0.45842 0.65618-0.30596 0.64366-0.33078 0.91451-0.53663 0.38983-0.25882 0.7158-0.53009 0.86611-0.7486 0.80529-0.84238 0.65896-0.86947 0.45228-0.76156 0.28197-0.56887 0.23694-0.5407 1.0646-2.6645 0.4514-1.0064 0.50144-0.98691 0.56488-0.95433 0.63218-0.90289 0.69335-0.86632 0.7404-0.83755 0.77629-0.81494 0.80342-0.79711 1.6623-1.5545 3.5353-3.1606 0.86126-0.82503 0.82283-0.85584 0.69531-0.80276 0.65519-0.83244 0.61699-0.85751 0.57836-0.87941 0.53694-0.89942 0.49026-0.91874 1.2477-2.5739 1.3036-2.4278 0.74868-1.3333 0.87804-1.4808 0.50031-0.79151 0.52645-0.78419 0.7698-1.053 0.8315-1.0394 0.67578-0.79541 1.91-2.1579 1.2046-1.4394 1.8319-2.3928 0.25352-0.35619 1.8633 0.67249 1.0704 0.45106 0.52317 0.25278 0.50452 0.27515 0.48965 0.30615 0.46816 0.32645 0.88714 0.68765 0.84055 0.70581 2.4535 2.1464 0.74973 0.72438 1.8015 1.8438 1.0588 1.0353 0.46833 0.5877 0.6888 1.002 0.31351 0.41469 0.6992 0.8158 0.79092 0.78431 0.43359 0.37116 0.38683 0.29759 2.5246 1.7355 0.71614 0.52247 0.31629 0.2579 0.13083 0.08867 0.16103 0.17564 0.3247 0.41427 0.64383 0.95552 0.5795 0.9967 0.3963 0.77583 0.3601 0.80609 0.4277 1.1989 0.21219 0.84776 0.069263 0.40091 0.054599 0.49819 0.025575 0.57717-0.029453 1.0919-0.054765 0.68562-0.11926 1.0119-0.21833 1.3014-0.38414 1.7091-0.39125 1.4786-0.64812 2.0988-0.64004 1.8115-0.89858 2.3697-0.30644 0.90396-0.2533 0.89362-0.17534 0.88463-0.068913 0.87646 0.055311 0.87675 0.11255 0.73714 0.52242 2.6468 0.17089 1.0834 0.16113 1.3649 0.2186 2.4023 0.083112 0.67922 0.11228 0.64466 0.16786 0.64324 0.35094 0.7969 0.36302 0.47197 0.62714 0.4521 0.50708 0.20971 0.24832 0.072418 0.72546 0.1434 1.7836 0.20738 0.70124 0.11123 0.86111 0.20535 2.0987 0.61124 0.6173 0.15584 0.72823 0.15626 1.5259 0.25499 0.79195 0.10415 1.6218 0.16819 0.97992 0.074138 1.9395 0.086193 3.0163 0.015647 4.8755-0.14063 0.79353 0.017546 0.89872 0.063305 0.72364 0.082359 0.54628 0.092286 0.56546 0.13809 1.9317 0.59386 2.0793 0.55036 0.89068 0.26449 1.7543 0.59144 1.1569 0.45646 0.94662 0.43137 0.85245 0.43734 0.8583 0.4841 2.3764 1.4789 1.1486 0.80381 0.91208 0.70703 1.301 1.0893 1.9777 1.7086 1.404 1.1629 1.0159 0.76527 0.26293 0.15755 0.031567 0.011565-0.18904 0.072888-0.44841 0.21607-0.38859 0.23479-0.38166 0.27218-0.62348 0.52801-0.36456 0.3667-0.96647 1.0922-0.45234 0.41842-1.8335 1.4397-0.39745 0.40467-0.17504 0.24101-0.13598 0.25858-0.064007 0.17575-0.071479 0.31406-0.032799 0.3267 0.009331 0.56373 0.069391 0.58652 0.087233 0.48327 0.22763 0.99168 0.22148 0.80799 0.21164 0.67921 2.4798 7.7785 0.18476 0.64353 0.24365 1.0513 0.083073 0.51586 0.047287 0.48386 0.007344 0.4715-0.047588 0.51726-0.095265 0.49357-0.15797 0.52213-0.1988 0.41642-0.21797 0.34607-0.38294 0.49563-1.6153 1.8006-0.293 0.38293-0.22712 0.38047-0.16535 0.38494-0.09553 0.3734-0.023089 0.30059 0.034243 0.29816 0.046411 0.13599 0.081613 0.1154 0.084978 0.04412-0.10828 0.10206-0.12492 0.067184-0.53237 0.16242-0.55136 0.090124-0.35266 0.018014-0.29789-0.014197-0.34815-0.059827-0.27933-0.094676-0.28119-0.15052-0.3477-0.28117-0.37206-0.40875-0.32968-0.43465-0.22966-0.38994-0.14621-0.31614-0.15359-0.40449-0.17018-0.54688-0.24884-0.93881-0.18757-0.61548-0.18269-0.44638-0.22774-0.44348-0.20282-0.33568-0.30779-0.414-0.22462-0.21906-0.16065-0.11512-0.30887-0.14248-0.26016-0.064003-0.35147-0.036181-0.38954-0.001455-1.2605 0.087722-0.83573 0.032687-0.68888-0.003197-1.813-0.062565-1.1373 0.014034-0.87394 0.088549-0.66151 0.15274-0.2005 0.07284-0.26205 0.13404-0.15257 0.10996-0.15078 0.14375-0.20134 0.27924-0.20208 0.45518-0.14309 0.51548-0.11839 0.64613-0.055302 0.62178-8.01e-4 0.60151 0.043447 0.54162 0.11312 0.65677 0.084439 0.32733 0.18862 0.5457 0.23732 0.54127 0.20247 0.40052 0.63425 1.0726 1.1595 1.7284 0.38168 0.67425 0.17843 0.38187 0.166 0.42157 0.18777 0.60568 0.17454 0.82424 0.050508 0.39971 0.028253 0.59358-0.045138 0.69059-0.066972 0.39813-0.12346 0.48712-0.12704 0.38018-0.19627 0.48214-0.1998 0.42474-0.48356 0.87261-0.54927 0.84358-0.92712 1.3227-2.067 2.7766-0.74501 1.0335-0.4403 0.64711-0.59243 0.94796-0.16095 0.30333-0.050523 0.24228-0.084795 0.11553-0.14661 0.29957-0.26374 0.63753-0.25023 0.69619-0.30158 0.93862-0.32205 1.179-0.23136 1.1382-0.093073 0.69416-0.059621 0.67326-0.035457 0.72393 0.019556 0.68837 0.10631 0.65335 0.25656 0.71454 0.23332 0.46115 0.30134 0.50718 1.2552 1.8681 0.26837 0.45845 0.33231 0.68502 0.19775 0.55471 0.12912 0.74503-0.033874 0.5587-0.095362 0.46485-0.080378 0.28793-0.21406 0.6105-0.27542 0.63127-0.40648 0.78955-0.4971 0.85041-0.53376 0.8185-0.56899 0.77531-0.5584 0.67836-0.87355 0.92493-0.5476 0.51129-1.6315 1.3947-0.71806 0.67099-0.63233 0.69872-0.6164 0.89881-0.33593 0.70108-0.23872 0.74899-0.14957 0.85264-0.035012 0.39445-0.016846 0.35506 0.038603 0.96054 0.1311 0.69908 0.28156 0.80928 0.35247 0.68199 0.35936 0.54333 1.0896 1.3422 0.49804 0.65529 0.42555 0.65533 0.31842 0.581 0.30312 0.64323 0.31258 0.73492 1.1573 2.8011 0.3466 0.94229 0.27625 0.87898 0.19576 0.87747 0.10351 1.046 0.14824 3.5873 0.007171 0.85241-0.019569 0.62699-0.047835 0.62013-0.13463 0.88568-0.17456 0.70164-0.49148 1.5115-0.31302 0.81125-0.36589 0.78998-0.43955 0.75313-0.58 0.76267-0.39711 0.4356-0.4249 0.41821-0.72657 0.63827-0.54942 0.43788-0.9839 0.72659-1.0136 0.68984-0.68016 0.43123-0.68793 0.3964-0.47248 0.24196-0.70102 0.30755-0.59496 0.21798-1.4801 0.45121-1.5349 0.3773-0.99944 0.20291-0.65743 0.10847-1.1048 0.12243-1.0559 0.040401-0.96979-0.038-0.69023-0.084123-1.4362-0.2423-0.77739-0.082968-0.60744-0.037556-0.59118-0.012883-0.63315 0.018784-1.2499 0.12108-0.7574 0.11896-0.69549 0.13512-1.5101 0.36958-0.66729 0.2053-0.61034 0.26701-0.51702 0.34845-0.45843 0.43697-0.39561 0.51037-0.32835 0.55972-0.55847 1.1631-0.50981 1.2424-0.25613 0.80099-0.94698 3.5409-1.1572 4.0857-1.8732 6.4098-0.30049 0.94847-0.045373 0.073994-0.22097 0.40248-0.20603-0.19856-1.3702-0.96489-3.637-2.386-0.88092-0.63209-0.53152-0.41406-0.78089-0.67499-0.80541-0.8159-0.72692-0.85531-0.59164-0.78305-0.53961-0.7885-1.4613-2.4082-0.59676-0.89494-0.63454-0.86294-0.67333-0.81476-1.3723-1.4793-0.80398-0.81796-0.85007-0.78711-1.1196-0.89588-2.7003-1.8129-0.81285-0.60954-2.3252-1.8507-0.85965-0.60903-2.2009-1.3245-2.4612-1.587-0.91408-0.56443-2.7791-1.6306-2.1229-1.2819-0.84213-0.43519-0.88279-0.39078-0.91532-0.35217-0.86424-0.29128-0.99862-0.28373-0.73917-0.16761-1.0581-0.16741-0.84845-0.066012-0.81479-0.001414-0.64427 0.037384-1.031 0.12256-0.69507 0.11996-1.2696 0.27673-2.3729 0.58988-0.76146 0.21788-1.2742 0.43678-0.00731 0.24161-0.11385 0.59143-0.20731 0.81228-0.29616 0.94034-0.38519 1.0017-0.51812 1.1006-0.55894 1.0035-0.47713 0.75797-0.7256 1.0196-0.45237 0.56261-0.47051 0.54276-2.5451 2.6998-0.62685 0.71669-0.66991 0.83592-1.6537 2.1957-0.40532 0.4959-0.82728 0.90025-0.88941 0.81624-0.95226 0.7156-0.36509 0.23202-0.97356 0.51684-0.2678 0.12311-0.77122 0.32339-1.216 0.43939-1.3017 0.40341-0.59748 0.16154-0.84828 0.19562-0.76489 0.13503-0.97544 0.10836-0.72563 0.017782-1.075-0.047704-0.67221-0.077582-2.5399-0.47981-0.62261-0.10043-0.86356-0.061297-0.65701 0.010494-0.46548 0.032047-0.64336 0.084015-2.0118 0.44343-0.72306 0.12301-0.54338 0.065924-0.94671 0.054235-0.66057-0.007388-0.90885-0.077397-0.4429-0.067332-1.2307-0.23637-2.0742-0.43473-0.81532-0.15803-0.82296-0.13311-0.8099-0.092844-0.64537-0.04537-1.0602-0.013829-0.65422 0.038045-0.70404 0.089214-0.87933 0.1874-0.61647 0.18273-0.73188 0.27641-0.73059 0.3518-0.46158 0.25805-0.53012 0.33028-0.51583 0.35663-0.45968 0.34811-0.91773 0.79081-0.32853 0.31926-0.51532 0.55063-0.68514 0.85263-0.53124 0.78712-0.44335 0.75364-0.28679 0.55263-0.21903 0.4824-0.30082 0.82898-0.10407 0.3837-0.12807 0.66842-0.073746 0.65972-0.033591 0.61945-0.005895 0.60585 0.022489 0.74984 0.048278 0.7591 0.23432 2.2625 0.56034 4.4174 0.23227 2.1859 0.13502 1.8252 0.029934 0.85422-0.001117 1.0435-0.023756 0.64866-0.073738 1.0011-0.096904 0.88876-0.12121 0.79236-0.14074 0.67659-0.17695 0.65897-0.26384 0.7625-0.39028 0.86601-0.20993 0.38512-0.31548 0.50161-0.31076 0.41871-0.34088 0.38467-0.42559 0.38096-0.35671 0.24262-0.63425 0.29497-0.57374 0.17194-0.32521 0.070811-0.83832 0.12648-0.95098 0.083935-6.8793 0.2985-2.5077 0.18621-1.5575 0.19952-0.88554 0.16505-0.77013 0.18274-0.58299 0.16576-0.62833 0.20892-0.91696 0.3662-0.89291 0.41059-1.3582 0.67302-3.8325 2.0093-0.54115 0.32999-0.52415 0.35981-0.88385 0.72526-0.42936 0.42583-0.45222 0.52087-0.54282 0.75031-0.4297 0.72685-0.20183 0.41318-0.12027 0.30779-0.021961 0.18257-0.13894-0.18087-1.9406-3.3259-0.60014-0.94744-0.64474-0.91894-0.69223-0.85168-0.60277-0.62701-0.54865-0.50237-0.56608-0.46663-0.67046-0.49768-0.6779-0.45126-0.662-0.3935-0.65937-0.34079-0.77105-0.32805-0.7476-0.25611-0.47828-0.13563-0.70545-0.14946-0.28009-0.034529-0.45043-0.009297-0.64226 0.10013-0.32004 0.099518-1.0112 0.40366-0.69372 0.32435-0.63078 0.35664-0.5062 0.33592-0.40045 0.32106-1.9302 1.6629-0.68068 0.48555-0.60294 0.32326-0.67368 0.25836-0.71319 0.2077-2.2461 0.58848-0.69345 0.17578-0.78513 0.16922-0.70267 0.11022-0.51399 0.050022-1.2404 0.030277-1.0301-0.04947-1.0429-0.099812-1.052-0.13509-2.3345-0.36789-3.3844-0.58881-1.1255-0.17768-3.073-0.38896-0.96091-0.14927-0.94597-0.21084-0.97795-0.31537-0.64502-0.25857-0.63977-0.29112-0.77716-0.39538-0.77141-0.4336-1.024-0.6335-1.0155-0.68879-0.79725-0.58249-1.0118-0.79189-1.0063-0.83547-2.0084-1.7679-1.994-1.8388-4.0141-3.8103-0.21771-0.17555-0.021541-0.34665 0.20281-0.54113 0.38316-0.62017 0.5461-0.60141 0.74706-0.55008 0.74486-0.40672 2.8596-1.3435 2.075-0.86231 0.67234-0.3435 0.66642-0.44429 0.34841-0.29908 0.48483-0.49585 1.0954-1.2085 0.18109-0.17151 0.55453-0.47095 0.71502-0.53312 0.64138-0.42583 0.73441-0.41733 0.59361-0.27244 2.3935-0.95878 0.6901-0.3377 0.28145-0.1754 0.32594-0.28498 0.15968-0.22968 0.11899-0.34286 0.025649-0.18577 0.009767-0.4538-0.013246-0.54358-0.035719-0.34297-0.063973-0.31037-0.25174-0.82316-0.14531-0.40567-0.19978-0.41208-0.48553-0.66388-2.1928-2.4561-0.41519-0.60182-0.29727-0.6388-0.15073-0.4651-0.12875-0.57657-0.07025-0.66128 0.013793-0.63801 0.064035-0.55247 0.18796-0.93389 0.52607-2.0379 0.11553-0.60278 0.092661-0.79646 0.023311-1.0707-0.053284-0.75486-0.11642-0.77028-0.26304-1.0626-0.2459-0.71873-0.46253-1.0449-0.41302-0.73163-0.54932-0.83665-1.1856-1.6854-0.52435-0.77592-0.5105-0.81319-0.59741-1.0852-0.24113-0.52304-0.1931-0.49805-0.17717-0.60394-0.097124-0.59375-0.013894-0.39543 0.02026-0.37057 0.070793-0.52938 0.26196-1.4388 0.044914-0.52589-0.014481-0.53444-0.066382-0.53376-0.14192-0.65726-0.24832-0.70307-0.15898-0.32053-0.30537-0.50131-0.3194-0.42409-0.31484-0.34529-0.32305-0.30154-0.47156-0.37585-0.73783-0.43943-0.80424-0.28762-0.84937-0.083814-0.62196 0.087593-0.62494 0.19262-0.67788 0.30084-0.65271 0.35838-1.4099 0.90518-0.25495 0.15696-0.16015 0.071894 0.026569-0.1284 0.70056-1.9619 0.36986-1.1319 0.35779-1.2113 0.31562-1.2396 0.24713-1.2326 0.1524-1.2 0.030431-1.1057-0.11316-1.0406-0.30055-1.0305-0.43577-0.94453-0.89955-1.5557-0.35371-0.72688-0.24209-0.70385-0.17777-0.73431-0.47985-2.8667-0.2304-0.8771-0.41807-1.4-0.12806-0.51106-0.105-0.52941-0.067249-0.48898-0.039234-0.51348-0.010132-0.76615 0.021768-1.2068-0.015009-0.47529-0.046136-0.47728-0.11938-0.68202-0.39088-1.4752-0.091709-0.63442 0.015816-0.63186 0.15995-0.60134 0.30093-0.51289 0.41365-0.47718 0.48174-0.45616 1.0842-0.94921 0.53412-0.5112 0.34634-0.41225 0.31067-0.51792 0.19502-0.56664 0.092285-0.50578 0.044907-0.63965-0.049214-0.8161-0.12615-0.61582-0.10068-0.31616-0.36856-0.7634-0.38293-0.5301-1.5821-1.8094-0.59819-0.73718-0.55126-0.77296-0.46868-0.81265-0.36269-0.83661-0.31207-0.85131-1.3834-4.384-0.25171-0.90437-0.13615-0.6218-0.072395-0.46379-0.06996-0.82015 0.02625-0.81136 0.053136-0.5222 0.35137-1.9131 0.018377-0.20618-0.007505-0.53946-0.14926-0.54826-0.28141-0.42612-0.38309-0.25308-0.33898-0.049041-0.27967 0.037594-0.35719 0.12945-0.99203 0.50905-0.58098 0.26782-0.63285 0.21554-0.72589 0.13696-1.2923 0.10894-0.77455 0.01942-1.5681 0.001562-1.0223-0.064618-0.48841-0.068888-0.62841-0.13282-0.7095-0.21793-0.67797-0.28626-0.44352-0.2368-0.37294-0.23605-0.38774-0.29383-0.36259-0.35145-0.19031-0.24794-0.11414-0.202-0.094258-0.27164-9.42e-4 -0.52115 0.20839-0.53539 0.40735-0.51402 0.68975-0.52292 0.87926-0.4474 0.21064-0.087067 0.43166-0.16112 1.0074-0.31087 0.99274-0.24576 0.73089-0.15357 0.79697-0.14107 0.3395-0.043909 0.14004 0.009625 0.14689-0.013577 0.46065-0.16162 0.52784-0.2282 0.70378-0.34751 1.0988-0.61312 0.61218-0.37826 0.56224-0.37728 0.70798-0.5229 0.34668-0.28226 0.81469-0.74744 0.49648-0.52491 0.69246-0.86338 0.36331-0.54065 0.24834-0.41544 0.27909-0.52729 0.3659-0.84947 0.14308-0.43149 0.17479-0.70414 0.095711-0.54694 0.074783-0.60332 0.12429-1.6985 0.096324-0.84259 0.19831-0.87889 0.31232-0.83061 0.43827-0.76005 0.45194-0.5514 0.52018-0.50881 0.69804-0.58878 0.97256-0.7504 0.96565-0.79358 0.5912-0.59212 0.38664-0.45356 0.24199-0.31931 0.58166-0.91514 0.71972-1.3776 0.72452-1.5455 0.26599-0.62878 0.38758-1.0297 0.28732-0.91421 0.19465-0.74389 0.16702-0.75306 0.2209-1.2356 0.19687-1.5665 0.048291-0.64196 0.021119-0.55731-0.005512-0.76736-0.04286-0.76848-0.12144-1.116-0.13848-0.88262-0.16823-0.87896-0.50564-2.1956-1.3148-5.2589-0.14748-0.76364-0.03917-0.3187-0.019571-0.2942 0.015468-0.54009 0.056619-0.37746 0.10386-0.38689 0.19012-0.44782 0.17272-0.28815 0.27997-0.34619 0.27025-0.25253 0.28044-0.20989 0.39921-0.2364 0.37701-0.18381 4.0744-1.6615 1.4852-0.58256 1.9122-0.6834 1.9403-0.63285 1.1562-0.34731 1.9331-0.54098 1.5319-0.38477 0.58437-0.1196 0.96544-0.1462 0.71714-0.044165 0.38117 0.009347 0.39079 0.037267 0.41558 0.068341 0.59278 0.15666 1.1106 0.38567 0.54401 0.1394 0.56084 0.034395 0.54997-0.11691 0.51121-0.23961 0.29795-0.19801 0.5173-0.44594 0.3469-0.35551 2.1689-2.4079 0.7424-0.75927 0.72279-0.67667 0.70434-0.60464 0.80974-0.6296 0.88173-0.59528 0.70927-0.41869 0.97934-0.51743 1.0161-0.45723 1.0139-0.35148 1.1638-0.31234 0.97639-0.21626 1.2767-0.24114 2.1157-0.34193 1.3949-0.20168 1.6719-0.21277 0.005829-0.064209 0.19208-0.32467 0.37863-0.49624 0.36493-0.42591 0.62554-0.65888 0.54953-0.52025 0.67641-0.57544 0.61977-0.46754 0.65885-0.43304 0.64574-0.36686 2.2382-1.1469 1.679-0.91521 0.92743-0.58537 0.46581-0.34738 0.44848-0.37158 0.61304-0.55673 2.5892-2.5576 1.3947-1.3304 1.2385-1.0961 2.2141-1.8619 0.78066-0.71194 0.80278-0.7845 0.9684-1.035 0.43109-0.50732 0.40689-0.51769 1.1594-1.5866 0.54064-0.67915 0.40384-0.45774 0.54812-0.55202 0.62653-0.54287 0.70014-0.50912 0.67505-0.40811 0.67164-0.35686 2.3519-1.1414 0.93172-0.49313 1.1563-0.65439 1.3315-0.86404 2.1236-1.4878 0.67028-0.41924 0.33416-0.17268 0.74099-0.33565 0.15155 0.12113 0.32322-0.004184 0.37141-0.11321 0.41317-0.20311 0.42973-0.27255 0.65535-0.5173 0.40558-0.39616 0.35935-0.39976 0.47139-0.57567 1.0932-1.5135 0.94874-1.1847 0.91427-1.2347 0.27723-0.32272 0.26259-0.23869 0.5375-0.27883 0.13851-0.12212 0.12134-0.24571 0.07123-0.33452 0.040785-0.70973 0.044733-0.32071 0.13794-0.43963 0.22442-0.38808 0.308-0.38088 0.32606-0.33089 0.71534-0.60999 0.85128-0.62686 0.93266-0.63569 1.9863-1.3034 1.3947-0.88993 1.0021-0.605 2.745-1.5106 0.60312-0.39503 0.58878-0.44226 0.48675-0.41391 0.608-0.57814 0.72412-0.77617 0.7464-0.90983 0.40196-0.54766 0.24673-0.39934 0.080772 0.26177 0.2557 0.29042 0.55552 0.46835 0.30718 0.21589 0.28962 0.18258 0.57034 0.30978 1.4467 0.62542 0.41678 0.21104 0.42385 0.26786 0.62323 0.54838 0.40046 0.47335 0.36284 0.53076 0.52117 0.99684 0.21934 0.54761 0.18016 0.55243 0.20746 0.85675 0.11752 0.71976 0.053068 0.48736 0.045527 1.0156-0.043954 1.3766-0.065261 0.81393-0.14529 1.3046-0.48004 3.3786-0.30034 1.6215-0.13583 0.60512-0.20122 0.70362-0.23661 0.6702-0.25817 0.62705" stroke="#bdc660"/>
    </defs>
    <g clip-path="url(#pdcc0a3fd37)">
     <use y="280.512" fill="#bdc660" stroke="#bdc660" xlink:href="#m10067f37d2"/>
    </g>
   </g>
  </g>
 </g>
 <defs>
  <clipPath id="pdcc0a3fd37">
   <rect x="7.2" y="7.2" width="301.16" height="266.11"/>
  </clipPath>
 </defs>
</svg>
