<?xml version="1.0" encoding="UTF-8"?>
<!DOCTYPE svg  PUBLIC '-//W3C//DTD SVG 1.1//EN'  'http://www.w3.org/Graphics/SVG/1.1/DTD/svg11.dtd'>
<svg width="371.52pt" height="264.11pt" version="1.1" viewBox="0 0 371.52 264.11" xmlns="http://www.w3.org/2000/svg" xmlns:xlink="http://www.w3.org/1999/xlink">
 <metadata>
  <rdf:RDF xmlns:cc="http://creativecommons.org/ns#" xmlns:dc="http://purl.org/dc/elements/1.1/" xmlns:rdf="http://www.w3.org/1999/02/22-rdf-syntax-ns#">
   <cc:Work>
    <dc:type rdf:resource="http://purl.org/dc/dcmitype/StillImage"/>
    <dc:date>2024-07-04T12:10:59.789887</dc:date>
    <dc:format>image/svg+xml</dc:format>
    <dc:creator>
     <cc:Agent>
      <dc:title>Matplotlib v3.7.1, https://matplotlib.org/</dc:title>
     </cc:Agent>
    </dc:creator>
   </cc:Work>
  </rdf:RDF>
 </metadata>
 <defs>
  <style type="text/css">*{stroke-linejoin: round; stroke-linecap: butt}</style>
 </defs>
 <g id="figure_1">
  <g id="patch_1">
   <path d="m0 264.11h371.52v-264.11h-371.52v264.11z" fill="none"/>
  </g>
  <g id="axes_1">
   <g id="PatchCollection_1">
    <defs>
     <path id="md469edfe7a" d="m140.07-232.01 2.9199 1.7062 4.6275 2.5026 2.4584 1.3701 2.2028 1.3153 1.4445 0.92141 2.3872 1.6678 1.0996 0.8947 0.51422 0.47091 0.82395 0.86757 0.72503 0.9505 0.88197 1.3392 0.8624 1.2292 0.39334 0.47239 0.95993 0.93584 1.113 0.85928 1.238 0.79671 1.3398 0.74539 1.6496 0.80992 5.2368 2.2997 2.3731 1.1074 4.3498 2.2539 2.088 1.0339 3.8811 1.7123 3.468 1.3316 0.38696 0.49804 0.78558 0.42911 1.0084 0.28394 1.0982 0.043229 1.0439-0.2399 1.0035-0.45732 2.2015-1.3609 2.4845-1.4171 0.70832-0.47464 0.76491-0.64671 1.5327-1.569 0.71108-0.49216 0.73108-0.18368 0.60119 0.14728 0.60762 0.36192 0.61142 0.506 1.0229 0.96913 1.2386 1.2418 0.65734 0.73827 0.6001 0.76335 0.32728 0.48094 0.42913 0.80519 0.28576 0.71677 0.77095 2.2486 0.40457 0.93039 1.5457 3.2725 1.3881 2.8391 1.0607 2.4209 0.59104 1.0124 0.79306 1.1032 0.63169 0.76592 1.2688 1.4158 0.6603 0.81032 0.31552 0.49016 0.30698 0.69616 0.15581 0.7284-0.031922 0.57143-0.16944 0.54705-0.4105 0.67336-1.136 1.3951-0.65138 1.0104-0.4575 0.92338-0.47886 1.4051-0.19349 1.1637 0.014545 1.1482 0.12788 0.66162 0.48259 1.1695 0.6908 1.124 0.76394 1.1217 0.70698 1.1633 0.51756 1.2521 0.19766 1.0231 0.056818 1.0843-0.047866 1.2899-0.37223 4.3024-0.070235 1.3188-0.006699 1.3031 0.0826 1.2686 0.20758 1.3268 0.57141 2.405 0.3516 1.0622 0.6716 1.6312 0.30007 0.57477 0.6599 0.90737 0.78308 0.73831 0.84479 0.52688 0.4674 0.18565 0.60078 0.15814 1.5033 0.25682 0.75872 0.23294 0.37943 0.17512 0.78466 0.49181 1.1973 0.94873 0.66911 0.58484 0.39833 0.46171 0.31629 0.50613 0.31718 0.8295 0.25142 0.79125 0.3856 0.64974 0.32273 0.24911 0.40669 0.16022 0.90047 0.049956 3.7433-0.56865 2.3608-0.23128 1.0588-0.15713 2.1408-0.49509 1.1504-0.38572 1.5085-0.62837 1.1506-0.62754 1.0968-0.73223 1.0316-0.81294 5.0035-4.4183 1.217-1.1301 1.1077-1.1353 1.7922-2.0341 0.93961-0.81126 1.1733-0.60501 0.88084-0.25176 1.3082-0.14632 1.2895 0.06295 1.1921 0.22885 1.7432 0.54337 0.83178 0.13759 0.51856 0.012145 0.30864-0.030112 0.80709-0.23629 0.73638-0.45953 0.60602-0.68395 0.34482-0.67704 0.32576-1.0956 0.24162-1.4769 0.41146-4.8431 0.17044-1.3932 0.25239-1.3349 0.35896-1.238 0.4953-1.0975 0.39281-0.59606 0.51917-0.57654 1.0488-0.71631 1.1956-0.48063 1.2576-0.35111 1.1279-0.25536 1.127-0.12675 0.97472 0.054833 0.90722 0.16376 2.3719 0.58356 1.4948 0.23431 0.98889 0.057003 0.90124-0.001615 0.90858-0.063663 1.2703-0.21467 1.2577-0.32546 2.9639-0.95118 1.7259-0.46558 2.2925-0.4576 3.7628-0.59467 1.1064-0.12699 4.4639-0.13784 2.9109-0.27258 2.5406-0.081643 1.2227-0.12023 1.1595-0.30567 1.1628-0.63433 1.0572-0.90365 0.94735-1.1031 0.82421-1.2433 0.67811-1.332 0.49906-1.3737 0.20502-0.82985 0.60861-3.2462 0.43098-1.3863 0.67105-1.1854 0.90977-1.1094 1.0754-1.0033 1.1625-0.85563 1.1584-0.65528 1.0416-0.39672 0.53228-0.1016 0.39449-0.00883 0.22438 0.10739 0.29853-0.19708 0.26838-0.01615 0.33896 0.30324 0.19405 0.6358 3.2e-4 0.93485-0.48299 3.4817-0.17224 1.6895-0.052097 1.7274 0.14257 1.8066 0.23954 1.7489 0.40225 1.7478 0.63184 1.6909 0.79793 1.6731 1.7239 3.3705 0.75895 1.7407 0.36605 1.0193 0.56688 1.7912 1.0648 3.6453 0.56933 1.7971 0.53454 1.4825 0.58552 1.428 0.63689 1.3568 0.69092 1.2656 0.74982 1.1504 1.5929 2.0223 0.73994 1.0467 0.68776 1.098 0.63798 1.1194 0.56656 1.0868 0.47729 1.0766 0.34228 1.0632 0.15586 1.0463-0.10622 1.2898-0.65381 2.6153-0.21136 1.3965 0.011164 1.1 0.077877 0.72549 0.24679 1.3 0.38822 1.4054 1.3866 4.0857 0.60676 1.9457 0.64109 2.3794 0.6798 2.7816 0.45751 2.1033 0.14307 0.90428 0.06847 0.70242 0.014504 0.63818-0.02915 0.43545-0.088546 0.4749-0.25687 0.64422-0.53943 0.81973-1.2351 1.5322-1.1543 1.5448-1.6479 2.0073-2.2435 3.0337-0.76548 1.2259-0.49921 1.1428-0.19594 0.79759-0.050569 1.1346 0.1457 1.1574 0.77556 3.1939 0.16693 0.99324 5.3e-4 1.2041-0.30856 1.0959-0.51866 0.92015-0.82897 0.94097-0.69102 0.5513-0.58286 0.35177-0.6096 0.274-0.96729 0.24771-0.36527 0.032939-0.62965-0.008008-0.6309-0.073922-3.1478-0.64743-1.1697-0.10012-1.0923 0.12147-0.68032 0.25556-0.62172 0.37266-0.7488 0.61317-1.2071 1.1648-0.92203 0.63147-1.2023 0.41705-1.4845 0.24591-1.7053 0.11804-1.8687 0.028373-5.9509-0.10249-1.8043 0.022226-1.4815 0.11052-0.51166 0.084855-0.52672 0.1701-0.061095 0.11085-0.4948-0.28091-1.0346-0.10446-1.3165 0.14142-1.4496 0.44685-5.4545 2.4449-1.3047 0.63963-1.2151 0.75427-1.0521 0.884-0.87727 0.94867-0.92319 1.2613-0.82672 1.4311-0.39169 0.81525-0.33381 0.79984-0.81158 2.1491-0.42987 0.78052-0.58756 0.7379-0.58334 0.56422-0.6814 0.55355-0.64628 0.46553-1.4393 0.91894-1.0076 0.56275-1.1536 0.55412-0.76216 0.30814-0.71177 0.24306-0.93409 0.25512-1.5561 0.30099-3.7629 0.57322-4.7277 0.84626-1.9853 0.38099-1.1388 0.28446-1.2769 0.46409-2.2455 1.0033-1.5246 0.57597-0.58419 0.17057-2.6053 0.60752-1.5233 0.39696-1.145 0.31901-1.1311 0.37762-0.56818 0.23305-0.92888 0.44296-0.75306 0.40907-1.3439 0.83299-1.2521 0.91035-1.1188 0.96699-0.57089 0.58235-0.86926 1.0551-1.2808 1.6508-1.4398 2.0276-0.79632 0.86285-0.26805 0.23569-0.91672 0.60221-0.99897 0.33654-0.74302 0.045826-0.60211-0.067478-0.78436-0.23409-0.79889-0.36696-3.1769-1.8732-6.0821-3.388-1.332-0.70555-1.1753-0.51847-1.6528-0.57265-1.0911-0.17569-0.24313 0.009312-0.586 0.13377-0.89181 0.59779-0.25653 0.26808-0.4697 0.58892-0.46948 0.68544-2.6355 4.32-0.83463 1.1608-0.839 0.98277-0.89283 0.82075-0.53753 0.34498-0.39251 0.14364-0.23586 0.022019-0.43171-0.1458-0.28135-0.37938-0.10204-0.73814 0.049986-0.71465 0.34466-2.6005 0.62103-4.127 0.13905-1.7684-0.023744-1.1558-0.17963-1.2035-0.25371-0.8646-0.20022-0.46841-0.24549-0.43071-0.29329-0.37307-0.4586-0.36907-1.0629-0.29093-1.3022 0.10736-1.4765 0.4002-1.6013 0.61229-1.689 0.76333-1.7492 0.86876-3.6033 1.9278-9.825 5.5338-3.725 2.0289-9.1136 5.2987-9.0733 5.1327-30.928 17.348-3.5978 1.9781-3.5372 1.8687-1.729 0.86095-1.6891 0.78565-1.6352 0.68272-1.5632 0.54408-1.7377 0.48018-1.3059 0.40479-2.5953 0.89896-1.0119 0.30767-1.1846 0.28973-1.0053 0.1785-1.2482 0.12119-1.2423 0.055119-1.8275 0.010903-0.81797-0.065061-1.0798-0.15682-3.6251-0.66926-0.85012-0.10041-0.80792-0.05154-1.2476 6.2e-4 -1.2697 0.076895-5.6543 0.63207-1.6818 0.11399-0.79024-0.00237-0.92326-0.099305-0.72361-0.25436-0.48132-0.53031-0.058199-0.66881 0.19486-0.47222 1.2578-1.7473 0.51056-0.85152 0.4049-0.94125 0.20826-0.79876 0.62235-4.1311 0.16299-1.4244 0.074998-1.4425-0.008248-1.1394-0.11135-1.8776-0.086475-0.6654-0.14291-0.73463-0.25162-0.83789-0.24804-0.551-0.30164-0.49367-0.97388-1.3597-0.24919-0.50801-0.11291-0.31304-0.17756-0.68741-0.077432-0.60712 0.033247-1.6694-0.088675-0.8583-0.20595-0.84657-0.14378-0.40608-0.24566-0.5316-0.48938-0.63382-0.67362-0.42192-0.8883-0.1353-1.0268 0.1307-1.1041 0.33511-2.277 0.93536-1.0654 0.38722-1.1261 0.35074-1.3897 0.33508-1.0498 0.17835-3.4931 0.44967-1.6319 0.12195-1.6694-3.85e-4 -1.8688-0.19745-1.7328-0.36344-1.5525-0.46297-1.8262-0.7029-1.2763-0.5827-1.5198-0.78406-1.7135-0.99458-1.5818-1.0226-1.5663-1.127-1.5603-1.2733-1.0821-1.019-1.1402-1.2848-0.84828-1.2682-0.45675-1.1158-0.025213-0.71402 0.11914-0.10208-2.3361 1.2118-1.3873 0.61252-1.1565 0.37675-0.489 0.083477-0.37393-0.002423-0.29408-0.090907-0.22074-0.21333-0.12148-0.3121-0.035315-0.38586 0.0375-0.43034 0.35611-1.6897 0.080495-0.6333 0.035143-1.3489-0.050901-0.77798-0.098328-0.78598-0.14486-0.7868-0.20868-0.83223-0.3656-1.0711-0.56623-1.3173-0.96821-2.0888-0.73735-1.4221-0.37523-0.62716-0.83507-1.2259-0.45567-0.59906-0.94194-1.1231-0.48419-0.52313-0.97606-0.94398-1.1541-0.9181-1.0454-0.6856-0.72678-0.42407-0.74942-0.40375-1.5343-0.74578-2.5933-1.0928-0.9951-0.36519-1.6491-0.51816-1.1096-0.28451-1.2901-0.27495-2.2626-0.36977 0.10031-0.46203 0.58615-1.8392 1.5162-4.3442 0.49501-1.3129 0.60275-1.4699 0.44167-0.98087 0.46364-0.94708 0.87006-1.5324 0.61469-0.91586 1.5669-2.1913 1.1665-1.8045 1.0546-1.9146 0.69847-1.5487 0.4801-1.2499 0.33039-0.97382 0.31767-1.0497 0.26882-1.0342 0.17211-0.80147 0.18576-1.1687 0.084193-0.98427 0.004215-0.86718-0.12772-1.2324-0.14837-0.67729-0.24935-0.78436-0.24618-0.60142-0.31087-0.63394-0.66066-1.1371-0.62219-0.95132-1.312-1.788-1.5009-1.7949-3.0542-3.4221-3.5454-3.7844-0.9642-1.1409-0.76621-1.027-0.8184-1.279-0.51355-0.93763-0.48272-1.0688-0.15039-0.4091-0.15266-0.49979-0.14224-0.68416-0.046743-1.2108 0.15499-1.239 0.28805-1.2625 1.0091-3.687 0.20633-0.95361 0.18709-1.1923 0.061886-0.97737-0.057041-0.84886-0.23097-0.90278-0.40795-0.90733-1.2098-1.9628-0.23796-0.47392-0.13107-0.41496-0.016888-0.38142 0.11696-0.34991 0.18564-0.24416 0.40755-0.2945 0.28739-0.12842 0.45607-0.14081 0.67224-0.10034 0.010632-0.12446 0.11523-0.16566 0.44396-0.4206 0.68161-0.49301 0.55866-0.34094 0.85248-0.43666 0.56028-0.23833 1.199-0.38893 0.98577-0.19651 0.55469-0.061827 0.83654-0.028205 0.86828 0.050103 0.74494 0.10481 0.92844 0.2082 0.8867 0.2759 1.3227 0.53806 1.1046 0.549 1.6755 0.96949 1.3553 0.90083 1.3909 1.0627 1.0881 0.95984 2.044 1.9635 0.78471 0.64345 0.41543 0.26634 0.33107 0.16344 0.34373 0.11776 0.52744 0.071494 0.47006-0.037332 0.5678-0.14965 0.40906-0.16879 0.73303-0.40488 0.80014-0.55505 1.1566-0.97561 0.58227-0.58177 0.84843-1.0065 0.58063-0.84487 0.624-1.1533 0.32951-0.82042 0.31442-1.2111 0.11562-1.0666 0.015407-1.1999-0.06181-2.8782 0.026661-3.1092 0.077047-1.8937 0.17149-2.3932 0.26837-2.635 0.41977-2.9132 0.41471-2.035 0.37979-1.3806 0.2421-0.70423 0.32613-0.78324 0.35068-0.67665 0.26244-0.41854 0.43548-0.5677 0.55207-0.57712 0.52784-0.4717 1.9666-1.5743 0.51052-0.44714 0.63614-0.62468 0.99442-1.1443 0.30881-0.4296 0.24827-0.38136 0.60923-1.1205 0.41769-0.95421 0.50045-1.5725 1.1691-4.8786 1.4335-5.2688 0.93168-3.7578 0.15053-1.0757 0.033624-0.7352-0.010634-0.81925-0.06633-1.0358-0.11362-1.0645-0.38437-2.5332-0.6817-3.7546-0.88454-4.4381-0.33971-1.3507-0.047041-0.34626 0.16499 0.018319 0.28012-0.11367 0.33814-0.22863 0.3655-0.34776 0.36515-0.43207 3.0916-4.0906 0.38555-0.56127 0.4273-0.78702 0.322-0.74985 0.28309-0.78285 0.5342-1.789 0.55626-2.2329 0.9536-4.3623 0.45674-1.8738 0.41461-1.2922 0.21583-0.51145 0.247-0.45929 0.2892-0.39129 0.3448-0.30352 0.45995-0.21635 0.52699-0.10952 0.5759-0.028392 0.67604 0.036359 2.1254 0.23281 0.6948 0.017831 0.66293-0.066712 0.54313-0.14536 1.5697-0.59268 0.55462-0.11366 0.36111-0.020039 0.91508 0.093326 0.54188 0.12515 1.1158 0.37789 0.64216 0.31887 0.10057 0.081402 0.18623 0.36532 0.58954 1.4245 0.37439 0.79984 0.2906 0.53478 0.64294 1.0019 0.51203 0.68121 1.0128 1.1434 0.99393 0.89994 0.79026 0.54377 0.64283 0.31068 0.83413 0.20478 1.109-0.089055 1.1244-0.42593 1.1321-0.67664 1.1344-0.85385 1.133-0.96961 4.7054-4.3719 1.3681-1.4569 2.3951-2.721 0.59209-0.60232 0.60481-0.54646 0.6377-0.4841 0.66362-0.3919 0.91576-0.34134 0.92311-0.11814 0.96301 0.057475 1.0831 0.21883 0.98783 0.3006 1.2644 0.4836 2.5706 1.1846 2.8224 1.4548 1.9473 1.086 2.7604 1.6951 7.6718 5.0935 3.0963 1.9797" stroke="#bdc660"/>
    </defs>
    <g clip-path="url(#p8ff2fff489)">
     <use y="264.112064" fill="#bdc660" stroke="#bdc660" xlink:href="#md469edfe7a"/>
    </g>
   </g>
  </g>
 </g>
 <defs>
  <clipPath id="p8ff2fff489">
   <rect x="7.2" y="7.2" width="357.12" height="249.71"/>
  </clipPath>
 </defs>
</svg>
