<?xml version="1.0" encoding="UTF-8"?>
<!DOCTYPE svg  PUBLIC '-//W3C//DTD SVG 1.1//EN'  'http://www.w3.org/Graphics/SVG/1.1/DTD/svg11.dtd'>
<svg width="300.4pt" height="280.51pt" version="1.1" viewBox="0 0 300.4 280.51" xmlns="http://www.w3.org/2000/svg" xmlns:xlink="http://www.w3.org/1999/xlink">
 <metadata>
  <rdf:RDF xmlns:cc="http://creativecommons.org/ns#" xmlns:dc="http://purl.org/dc/elements/1.1/" xmlns:rdf="http://www.w3.org/1999/02/22-rdf-syntax-ns#">
   <cc:Work>
    <dc:type rdf:resource="http://purl.org/dc/dcmitype/StillImage"/>
    <dc:date>2024-07-04T12:10:56.502802</dc:date>
    <dc:format>image/svg+xml</dc:format>
    <dc:creator>
     <cc:Agent>
      <dc:title>Matplotlib v3.7.1, https://matplotlib.org/</dc:title>
     </cc:Agent>
    </dc:creator>
   </cc:Work>
  </rdf:RDF>
 </metadata>
 <defs>
  <style type="text/css">*{stroke-linejoin: round; stroke-linecap: butt}</style>
 </defs>
 <g id="figure_1">
  <g id="patch_1">
   <path d="m0 280.51h300.4v-280.51h-300.4v280.51z" fill="none"/>
  </g>
  <g id="axes_1">
   <g id="PatchCollection_1">
    <defs>
     <path id="mde2392bedb" d="m190.5-261.03 2.514 0.36274 1.0764 0.20646 1.1399 0.28169 1.0201 0.30835 1.4367 0.5172 1.4219 0.59915 1.0962 0.52138 1.0549 0.5696 1.3935 0.88488 1.4967 1.0817 1.0643 0.88357 0.78913 0.76115 0.94426 1.0921 0.94783 1.3627 0.79489 1.4276 0.78823 1.7691 1.3559 3.2907 0.4656 1.0232 0.69724 1.3888 1.0574 1.8365 0.90916 1.3749 0.97416 1.2966 0.70839 0.83686 0.56219 0.58972 0.71869 0.6432 0.53684 0.41257 0.84782 0.56751 2.8914 1.6978 0.6757 0.43725 1.0088 0.74683 0.52843 0.46322 0.52862 0.53827 0.4829 0.60986 0.24419 0.38391 0.21813 0.42002 0.1981 0.48598 0.20892 0.70199 0.15882 0.7681 0.15052 1.0531 0.3706 3.47 0.22333 1.531 0.15877 0.80116 0.52971 1.9896 0.77724 2.4555 0.8272 2.1427 0.49821 1.0854 0.35276 0.67993 0.71828 1.1979 0.507 0.70943 0.64243 0.75912 0.38137 0.39511 1.072 0.97254 0.70423 0.57249 2.2277 1.6643 0.79702 0.54394 0.8775 0.53618 0.90403 0.4629 0.90603 0.35986 0.98078 0.29246 4.1734 0.89463 2.5291 0.6845 1.9268 0.67558 1.2476 0.52774 1.2076 0.57932 0.82274 0.44254 1.0478 0.66249 0.99274 0.8212 0.43504 0.47172 0.56022 0.74987 0.59435 1.0484 0.25897 0.55828 0.5001 1.2643 0.33959 1.059 0.10397 0.45877 0.13136 0.97948 0.19557 2.739 0.064227 0.43916 0.62761 2.9474 0.16365 1.2469 0.074611 1.0963 0.019907 1.1373-0.051803 1.5959-0.13398 1.6177-0.21127 1.6102-0.28927 1.5734-0.39028 1.6236-0.28246 0.92527-0.64729 1.5425-0.82137 1.4501-0.95603 1.3314-2.1699 2.5583-1.1365 1.6568-0.84597 1.4792-0.63664 1.2655-0.71524 1.5768-0.63684 1.598-0.5481 1.6291-0.4393 1.638-0.46814 2.4413-0.25048 1.8222-0.063625 0.62144-0.074549 1.7624 0.10324 1.7406 0.31374 1.6768 0.57318 1.566 0.85532 1.406 1.0638 1.2994 3.2036 3.368 0.90362 1.1269 0.72296 1.1051 1.3716 2.3223 0.96646 1.4207 1.0831 1.4026 1.1704 1.3734 1.234 1.3305 1.2781 1.2698 1.3063 1.1863 1.321 1.0733 0.93131 0.65778 0.77377 0.45558 0.80746 0.39894 0.65479 0.27535 1.1725 0.40041 1.1789 0.30165 1.0168 0.19492 0.99718 0.13493 1.9088 0.15128 1.1609 0.14254 1.1335 0.20085 1.0746 0.24314 0.95128 0.27904 1.0351 0.4893 0.84573 0.6871 0.15706 0.1864 0.18482 0.26738 0.21204 0.42296 0.15033 0.49456 0.07352 0.60905-0.045802 0.83434-0.23323 1.0789-0.27966 0.85314-0.70333 1.6902-1.4214 2.9177-4.3968 8.5648-0.86713 1.352-1.0089 1.2247-1.1448 1.0311-1.2671 0.76536-0.26263 0.11399-1.4159 0.4074-1.3428 0.12244-1.0693-0.10292-0.5286-0.28962-1.4141-0.20256-1.2575-0.12429-1.6428-0.12418-2.804-0.1147-2.6814 0.005921-6.6761 0.1829-1.6029-0.027314-1.576-0.079866-2.3103-0.21876-4.7145-0.71529-1.9176-0.22523-0.9319-0.05595-1.3592 0.019332-1.0069 0.12032-0.96039 0.23672-0.76874 0.30394-1.0788 0.60901-0.87726 0.64768-0.99987 0.92789-0.77566 0.85019-1.6793 2.1044-4.1944 5.7144-2.1767 2.8892-1.0254 1.4835-0.66112 1.1054-0.56281 1.1146-2.3142 5.2371-0.93824 1.9036-0.59922 1.0662-0.36978 0.56906-0.63652 0.83656-3.9976 4.6484-1.6948 2.1942-0.6452 0.9209-0.89098 1.3919-0.84912 1.5311-0.57374 1.2076-0.52221 1.2918-0.49254 1.5565-0.29552 1.4103-0.16065 1.5208-0.029483 1.2556 0.080822 1.2148 0.13871 0.88429 0.43101 1.9545 0.26354 1.5709 0.024415 0.82092-0.086549 0.72947-0.26779 0.84249-0.42147 0.81435-0.46766 0.69644-0.53428 0.68536-1.9285 2.212-1.1427 1.4388-0.53789 0.84047-0.28499 0.55371-0.26006 0.66731-0.12623 0.4805-0.10039 0.8767 0.02681 0.89175 0.48102 3.2737 0.043476 0.51642 0.003109 0.77299-0.10138 0.76332-0.24673 0.79277-0.37593 0.78316-0.5944 0.9386-0.76324 0.99262-1.2174 1.3181-1.3229 1.1902-1.3908 1.048-1.4719 0.90744-1.5342 0.72884-0.8765 0.31271-0.88453 0.23103-1.6662 0.17128-0.8622-0.060031-1.3729-0.26118-1.3805-0.40439-1.9819-0.73518-2.3659-1.0808-2.4053-1.2347-1.501-0.63387-1.5622-0.48801-0.87841-0.20432-2.3185-0.4503-1.6331-0.23391-1.3515-0.10861-1.654-0.082679-3.1048 0.061708-0.97154 0.054747-1.3237 0.17245-2.9287 0.53894-1.026 0.14557-0.83146 0.075602-0.85035 0.017046-0.66095-0.060537-0.55594-0.15-0.332-0.17892-0.15204-0.12681-0.27217-0.38824-0.132-0.37634-0.083415-0.57085 0.002051-0.69547 0.099236-0.96822 0.26759-1.8681 0.090594-1.0688 0.002363-1.0523-0.058736-0.81516-0.1553-1.0891-0.3121-1.4157-0.24511-0.89459-0.49483-1.5254-0.3536-0.92093-0.44745-1.0133-0.68535-1.3102-0.56933-0.94191-1.2392-1.8067-0.826-1.0944-1.2893-1.5746-0.88134-0.97768-1.4167-1.3893-1.2867-1.0588-1.5258-1.013-1.9109-0.963-1.6168-0.5812-1.2099-0.29568-1.5314-0.19507-1.1682 0.004188-0.72892 0.083414-1.6121 0.43429-1.5923 0.74304-1.2633 0.80076-0.58847 0.46962-0.15107 0.216-0.51044 0.10147-0.32313 0.12719-1.6381 0.77357-1.1581 0.64566-2.4845 1.5268-1.2306 0.71074-2.9564 1.6196-2.8265 1.7712-1.1442 0.5731-1.1864 0.36367-1.5426 0.22449-1.5399-0.061002-1.5766-0.24684-4.318-0.82469-1.0161-0.24446-2.18-0.61691-1.6338-0.41693-2.8208-0.49207-1.3271-0.29327-2.3209-0.58803-0.99208-0.30927-1.1877-0.51927-1.1156-0.64231-1.1599-0.85502-0.58732-0.54266-0.44107-0.48536-0.45823-0.63371-0.34071-0.66217-0.20132-0.68228-0.008729-1.1518 0.082807-0.44725 0.32525-1.1061 0.83232-2.3473 0.30106-1.199 0.082369-1.1895-0.25584-1.2859-0.38124-0.91697-0.68366-1.1188-0.46636-0.57395-0.51779-0.51271-0.79866-0.60604-3.324-2.0849-1.0681-0.75758-0.88701-0.79901-0.76455-0.87424-0.60961-0.89341-0.9466-1.8438-2.3669-3.9502-0.77067-1.5445-0.40627-1.1084-0.51188-2.4483-0.18821-0.73336-0.26412-0.74978-0.72711-1.3787-0.41454-0.60035-0.76194-0.94085-1.1946-1.2412-1.1754-1.0415-1.1817-0.9091-0.81142-0.54726-1.4094-0.79586-1.2692-0.55901-1.0635-0.36934-1.1187-0.27415-0.66194-0.10198-1.1045-0.053097-0.77926 0.08156-1.0787 0.33596-0.98517 0.56415-0.86799 0.75568-0.72256 0.9196-0.6668 1.2976-1.0777 2.9073-0.67069 1.4662-0.90931 1.3987-1.1214 1.3074-1.2859 1.2039-0.76149 0.60972-1.2433 0.85988-1.3334 0.76847-1.1426 0.56395-1.5746 0.62854-1.291 0.37191-1.2646 0.27889-1.1536 0.20302-1.2526 0.11402-0.80383 0.016845-0.7998-0.051045-1.37-0.29612-1.3679-0.51652-1.6048-0.79265-1.0541-0.59556-0.87018-0.54534-1.686-1.1976-1.4995-1.2535-0.94555-0.93127-0.76041-0.87926-0.634-0.88362-0.62218-1.1374-0.35959-0.96317-0.25129-1.0086-0.23239-1.8314-0.055243-1.4367 0.017449-1.4729 0.10988-1.4171 0.32101-2.4913 0.09839-1.0215-0.034472-1.102-0.27018-0.74417-0.48209-0.14165 0.25261-0.2479 0.27001-0.49765 0.6653-1.5668 0.34238-0.94242 0.44813-1.4046 0.36894-1.417 0.14355-0.68363 0.1952-1.2028 0.12916-1.173 0.1699-2.7596 0.14968-4.3305 0.19301-2.2397 0.16077-1.0591 0.23988-1.121 0.55149-1.7659 0.52096-1.2004 0.95269-1.6308 1.0401-1.4705 3.6562-4.6665 0.89812-1.2582 1.0968-1.7147 0.90715-1.6969 0.84704-1.8832 0.79946-2.1038 4.0795-12.361 0.46559-1.1836 0.52979-1.1644 0.47372-0.92457 0.64238-1.1282 2.3299-3.7214 1.7131-3.2063 0.85726-1.5006 1.1261-1.8455 0.59633-0.86928 0.89556-1.0474 1.0279-0.98235 1.1203-0.92053 2.6872-1.9911 3.2612-2.3514 1.0441-0.8442 0.69968-0.62835 0.7788-0.79697 0.58297-0.69129 0.8546-1.1465 0.78231-1.2387 0.55004-1.048 0.48327-1.1007 0.36965-1.0079 0.32045-1.0374 0.30504-1.1891 0.25275-1.212 0.24575-1.5433 0.14051-1.3001 0.07816-1.3055-0.008605-1.8742-0.14983-1.6792-0.13015-0.86272-0.30369-1.5423-0.91945-3.9219-0.39422-2.1073-0.13333-1.1219-0.072419-1.095-0.051941-3.0552-0.12213-1.3886-0.21798-0.94597-0.32786-0.72194-0.29164-0.38107-0.46924-0.36764-0.40564-0.18422-0.77837-0.15837-0.86443-0.006477-2.7414 0.33611-3.709 0.71191-1.1143 0.18276-1.6546 0.16686-0.84272 0.03499-1.076-0.016426-0.99962-0.083873-0.85978-0.12666-1.2001-0.25753-1.6533-0.49508-1.0201-0.38919-0.85811-0.38826-0.65583-0.34274-1.322-0.84452-0.93969-0.76264-0.73687-0.74152-0.33104-0.39876-0.39272-0.56652-0.33199-0.64155-0.17724-0.52235-0.095183-0.64949 0.054515-0.66298 0.13776-0.49736 0.27256-0.59248 0.16334-0.26276 0.47176-0.56194 0.52294-0.38564 0.46602-0.15068 0.40812 0.07798 0.47328 0.082341 0.76074-0.19671 0.93998-0.41144 1.2134-0.71862 0.96387-0.7657 0.82147-0.87577 0.69035-0.95489 1.1044-1.6676 0.48885-0.55902 0.30881-0.26987 0.68874-0.40282 0.74089-0.20747 0.74916-0.009956 0.71453 0.17467 0.40772 0.16318 2.0887 1.1627 1.115 0.52957 0.99208 0.32227 3.0936 0.70841 1.8319 0.52284 1.337 0.52937 2.9915 1.4849 1.03 0.41023 0.80782 0.26685 2.4669 0.65391 1.1877 0.34968 1.962 0.7552 1.0844 0.37959 1.1268 0.24734 1.0989 0.05489 1.5062-0.13936 0.94665-0.17224 1.5633-0.3782 1.7123-0.50714 1.3264-0.47339 1.1741-0.50146 1.0986-0.55974 0.99593-0.61574 1.0805-0.82644 0.83746-0.72069 0.66994-0.68849 0.23617-0.29492 0.42199-0.66194 0.3359-0.76374 0.12449-0.41855 0.11548-0.63766 0.030899-0.59255-0.091276-0.87059-0.23825-0.75604-0.44849-0.74654-0.68314-0.66656-0.81963-0.56332-1.7674-1.0867-0.95967-0.74612-1.6717-1.4665-0.65276-0.50629-0.4818-0.42834-0.19785-0.4326 0.034148-0.21064 0.31687-0.45874 0.56526-0.46584 0.6659-0.41632 1.509-0.75124 2.0321-0.82949 1.0128-0.35315 1.2419-0.36167 1.2747-0.2602 0.46335-0.059218 0.63435-0.046325 0.94545 0.005683 1.0081 0.11063 2.0278 0.393 2.0703 0.31896 1.1541 0.24777 1.24 0.42626 1.4461 0.6588 2.3288 1.1782 1.0225 0.40721 1.1045 0.30351 2.5026 0.46667 2.0784 0.26797 1.7324 0.14523 1.8964 0.10437 1.3405 0.022018 2.17-0.018278 1.7791-0.07914 1.1204-0.11149 1.6978-0.27136 1.2579-0.27944 1.7377-0.46136 6.7078-1.9462 2.1843-0.77163 1.7242-0.73607 1.3827-0.67862 1.1558-0.62636 1.6076-0.97177 1.5717-1.0799 1.2045-0.93768 1.443-1.3065 2.8355-2.7647 0.98969-0.881 0.77895-0.63975 0.86806-0.64388 1.0515-0.65976 0.7487-0.37046 0.75456-0.27404 0.72024-0.1606 1.4953-0.028109 0.49989 0.063521 1.3453 0.30673 1.0333 0.33124 1.7681 0.7055 0.94381 0.47079 0.97918 0.60357 0.92707 0.73055 0.41581 0.40657 0.6355 0.74659 0.91498 1.3511 1.6679 2.7806 3.4318 5.5723 0.98443 1.4557 1.1146 1.2877 0.69528 0.6087 1.2033 0.84637 1.091 0.63814 2.1744 1.0991 1.5924 0.70588 1.3417 0.50814 1.1355 0.34747 1.1491 0.25918 0.82815 0.12328 1.3411 0.07996 1.3084-0.06533 1.2499-0.20811 0.36443-0.092474 1.2592-0.47076 1.1155-0.67371 0.92322-0.87421 0.46144-0.65697 0.31652-0.61864 0.26525-0.72652 0.16175-0.65409 0.133-1.0325 0.01092-0.82489-0.052301-0.7098-0.25581-1.4563-0.43625-1.5422-0.47651-1.3283-0.3536-0.85006-0.75868-1.5212-0.41217-0.68659-0.75518-1.0931-2.2037-2.7852-0.74301-1.1261-0.76356-1.4476-1.2291-2.6182-0.43154-0.82754-0.32281-0.55048-1.6611-2.3566-0.62615-1.1241-0.23827-0.82845-0.026465-0.83568 0.21795-0.8091 0.50643-0.77322 0.76366-0.69003 0.93295-0.56556 1.0945-0.46426 0.42563-0.14086 1.2061-0.318 1.281-0.22843 1.4695-0.14002 2.0067-0.014659 1.3433 0.066209 1.4992 0.12343" stroke="#bdc660"/>
    </defs>
    <g clip-path="url(#p19347dfa44)">
     <use y="280.512" fill="#bdc660" stroke="#bdc660" xlink:href="#mde2392bedb"/>
    </g>
   </g>
  </g>
 </g>
 <defs>
  <clipPath id="p19347dfa44">
   <rect x="7.2" y="7.2" width="286" height="266.11"/>
  </clipPath>
 </defs>
</svg>
