<?xml version="1.0" encoding="UTF-8"?>
<!DOCTYPE svg  PUBLIC '-//W3C//DTD SVG 1.1//EN'  'http://www.w3.org/Graphics/SVG/1.1/DTD/svg11.dtd'>
<svg width="371.52pt" height="247.17pt" version="1.1" viewBox="0 0 371.52 247.17" xmlns="http://www.w3.org/2000/svg" xmlns:xlink="http://www.w3.org/1999/xlink">
 <metadata>
  <rdf:RDF xmlns:cc="http://creativecommons.org/ns#" xmlns:dc="http://purl.org/dc/elements/1.1/" xmlns:rdf="http://www.w3.org/1999/02/22-rdf-syntax-ns#">
   <cc:Work>
    <dc:type rdf:resource="http://purl.org/dc/dcmitype/StillImage"/>
    <dc:date>2024-07-04T12:10:58.227024</dc:date>
    <dc:format>image/svg+xml</dc:format>
    <dc:creator>
     <cc:Agent>
      <dc:title>Matplotlib v3.7.1, https://matplotlib.org/</dc:title>
     </cc:Agent>
    </dc:creator>
   </cc:Work>
  </rdf:RDF>
 </metadata>
 <defs>
  <style type="text/css">*{stroke-linejoin: round; stroke-linecap: butt}</style>
 </defs>
 <g id="figure_1">
  <g id="patch_1">
   <path d="m0 247.17h371.52v-247.17h-371.52v247.17z" fill="none"/>
  </g>
  <g id="axes_1">
   <g id="PatchCollection_1">
    <defs>
     <path id="mbbb2ca9a56" d="m77.057-229.28 0.3361 0.15504 0.17481 0.12527 0.24442 0.23837 0.33492 0.4505 0.22069 0.36528 0.24782 0.48258 0.1988 0.48574 0.2041 0.66974 0.27078 1.0216 0.18518 0.59509 0.16713 0.44015 0.1591 0.34401 0.24991 0.42431 0.35874 0.47297 0.40485 0.44478 0.37835 0.30596 0.30598 0.16379 0.30396 0.10302 0.37884 0.065101 0.32416 0.015449 0.38374-0.019602 0.59996-0.098069 0.5793-0.17674 0.13593-0.073107 0.11782-0.11106 0.068811-0.14001 0.05308-0.054559 0.1193-0.072955 0.24208-0.063414 0.11423-0.009495 0.47965 0.058676 0.32315 0.1307 0.23295 0.13812 0.27047 0.20359 1.6385 1.5407 0.45826 0.37564 0.35754 0.26067 0.56004 0.35143 0.3702 0.19785 0.40673 0.1904 0.50486 0.20095 0.90548 0.28439 0.73 0.17761 0.75153 0.14195 0.58345 0.083686 2.882 0.29799 1.25 0.073954 1.0847-0.019777 1.0547-0.10003 2.1587-0.30275 2.3867-0.42891 1.9815-0.41283 0.72946-0.20012 0.54171-0.17498 1.5226-0.58488 0.60991-0.14218 0.36662-0.018757 0.4159 0.05734 0.29027 0.10314 0.33425 0.20228 0.27723 0.2443 0.22665 0.24355 1.2411 1.4997 0.69561 0.7333 0.98223 0.84726 1.5739 1.1811 0.60604 0.48639 0.72688 0.66201 0.734 0.77046 0.4073 0.47613 0.49726 0.63258 0.71701 1.0368 1.0195 1.6589 1.2185 2.2572 0.33718 0.53703 0.41671 0.59259 0.50784 0.64204 0.7708 0.85673 3.1084 3.1102 2.1907 2.3211 1.1894 1.3346 0.70283 0.82512 1.3951 1.6958 0.73727 0.94884 0.61776 0.90673 0.31155 0.54083 0.26207 0.54058 0.36415 1.0529 0.26888 0.90377 0.31248 0.84605 0.61891 1.3972 1.1831 2.4352 0.53122 1.1834 0.51396 1.2848 0.86162 2.3519 0.32803 0.76473 0.18187 0.35212 0.20435 0.33001 0.36018 0.4434 0.71676 0.67386 0.35034 0.26662 0.52619 0.30237 0.46234 0.19634 0.62524 0.1678 0.80858 0.10298 0.84953 0.010407 0.52365-0.034989 0.81515-0.098454 0.62834-0.11419 1.2612-0.28686 0.71467-0.050852 1.4416 0.092522 0.65809-0.037103 1.5405-0.21589 0.60015-0.060885 1.3262-0.057527 0.58976-0.049478 1.163-0.15839 1.1053-0.22006 2.8369-0.76603 1.1269-0.28185 1.1494-0.25351 1.16-0.20629 1.1589-0.13629 1.1449-0.038152 1.0345 0.07533 0.9944 0.18032 0.93555 0.2825 0.85365 0.3882 0.74318 0.50397 0.48966 0.48684 0.39721 0.55385 0.31233 0.63801 0.20805 0.74149 0.061469 0.58105 0.001995 0.43643-0.041796 0.55472-0.072541 0.48482-0.24418 1.0459-0.25099 0.76431-0.88852 2.3126-0.51686 1.4311-0.2832 1.0011-0.11749 0.57817-0.070721 0.55927-0.009106 0.76887 0.22878 2.5661 0.17301 1.0184 0.35088 1.6853 0.08911 0.78562 0.006911 0.78987-0.094912 0.77867-0.17514 0.662-0.23744 0.66886-0.42061 1.0496-0.25368 0.57823-0.45957 0.95108-0.74128 1.3337-0.45546 0.69302-0.43518 0.55659-0.61363 0.64168-0.38584 0.33757-0.81651 0.59748-0.87406 0.51892-1.9659 0.97631 0.26338 0.51758 0.40548 0.7172 0.52252 0.83114 0.55511 0.76681 0.61819 0.73667 0.61188 0.63291 1.9892 1.9333 0.63032 0.59046 0.41448 0.35068 0.54801 0.3877 0.58648 0.31157 0.64993 0.22705 0.44058 0.09931 0.41813 0.061945 0.82198 0.040604 0.5894-0.03601 0.50581-0.076489 0.57025-0.14069 0.58946-0.2133 0.43658-0.20964 0.30148-0.17474 0.42031-0.28401 0.48505-0.37112 0.78417-0.65934 0.74071-0.73194 0.80827-0.94886 0.7577-0.99596 0.88934-1.265 0.3897-0.64269 0.36373-0.73112 0.2414-0.64416 0.15361-0.52204 0.14266-0.65125 0.05638-0.36143 0.17988-2.1362 0.087927-0.5419 0.233-0.73999 0.15927-0.31408 0.28958-0.43771 0.30626-0.37464 0.33311-0.35402 0.90652-0.82859 1.3049-1.0467 1.4462-1.0795 1.3219-0.9108 0.96052-0.56635 0.92673-0.44685 0.92838-0.36626 1.7054-0.6096 0.49971-0.22056 0.58682-0.34719 0.27707-0.2242 0.41955-0.45021 0.32301-0.47866 0.16236-0.31216 0.18515-0.46636 0.13889-0.52625 0.064136-0.40574 0.127-1.9911 0.093226-0.59317 0.17444-0.53975 0.21078-0.36112 0.27661-0.3069 0.36925-0.26214 0.4272-0.1749 0.43534-0.077496 0.46452-0.004869 0.55012 0.065529 0.57922 0.11192 2.3709 0.56811 0.85093 0.16676 0.60375 0.077817 2.4191 0.2401 0.94066 0.13994 0.58693 0.13811 0.58719 0.17378 1.8637 0.61249 1.5849 0.38583 0.84029 0.23387 0.61388 0.22693 0.47259 0.20952 0.6598 0.34652 0.47787 0.30823 0.19884 0.20137 1.8612-1.783 0.36852-0.39377 0.3217-0.39089 0.18852-0.27384 0.15683-0.28447 0.81671-1.7359 0.33737-0.66859 0.24432-0.43014 0.27505-0.37651 0.2378-0.26134 0.44409-0.41757 0.54028-0.45894 0.16886 0.14522 0.1775 0.060786 0.44975 0.10401 0.48135 0.077144 1.6794 0.17873 5.416 0.46633 2.6218 0.2121 1.258 0.072544 3.1765 0.092326 1.2552 0.069881 0.9029 0.019806 0.55257-0.01653 0.79224-0.060162 1.4728-0.19991 1.47-0.27622 4.35-0.98536 0.84819-0.1625 0.83703-0.11963 0.8595-0.070772 1.1142-5.26e-4 1.2129 0.11884 0.72 0.13328 0.80809 0.21258 0.524 0.18191 0.69679 0.32225 0.8358 0.56092 0.76079 0.68634 0.62999 0.68583 2.139 2.6697 0.67958 0.74084 0.62632 0.5666 0.34821 0.27045 0.56734 0.34578 0.37186 0.15608 0.36098 0.10861 0.46814 0.093048 0.6833 0.063678 0.79486 0.003215 1.2313-0.069306 0.92004-0.078363 1.6441-0.1886 0.83189-0.13485 1.9858-0.39754 1.7619-0.27005 1.6869-0.16806 0.93125-0.04827 0.90835-0.011102 0.95802 0.031883 1.0439 0.096202 0.87009 0.14119 0.41097 0.090472 0.98856 0.28325 0.66218 0.23985 0.91688 0.42151 0.71724 0.43034 0.68986 0.49958 0.75489 0.63156 0.94457 0.86364 1.8454 1.8192 0.53238 0.48078 0.54796 0.43212 0.61059 0.38067 0.36188 0.1696 0.41298 0.1439 0.62963 0.1313 0.88799 0.035697 0.51673-0.045201 0.9951-0.17165 1.0336-0.25346 1.1046-0.32159 1.2697-0.41663 1.3009-0.47706 4.4202-1.8348 1.5646-0.61102 1.3747-0.50503 1.6687-0.55494 0.76993-0.22196 0.60459-0.1433 0.3149-0.04259 0.1169 0.040169 0.063909 0.038348 0.07243 0.096534 0.27448 0.50196 0.68745 1.5268 0.48996 1.0276 0.44655 0.82468 0.47631 0.74383 0.2049 0.27441 0.39109 0.44573 0.58779 0.51648 0.67517 0.50856 0.64288 0.54429 0.61303 0.736 0.24506 0.38391 0.19581 0.35957 0.18119 0.39865 0.16489 0.47202 0.074335 0.29124 0.049589 0.27105 0.037008 0.44645-0.032544 0.47698-0.10318 0.41169-0.316 0.61514-0.36261 0.45918-0.55766 0.54559-0.57726 0.47773-2.8805 2.1592-0.74111 0.58408-0.6654 0.556-0.59891 0.54072-0.57544 0.577-0.39236 0.4454-0.27479 0.35218-0.52422 0.81257-0.25425 0.51249-0.29913 0.89015-0.2035 0.99841-0.243 1.7566-0.076444 0.81639-0.026861 0.79916 0.017269 1.8698 0.18629 4.3268 0.004311 1.0123-0.055332 0.78651-0.099968 0.68795-0.20558 0.92466-0.31019 1.066-0.61685 1.8914-0.27896 0.94452-0.19313 0.8017-0.15204 0.94184-0.038272 1.0847 0.07922 0.78179 0.053439 0.28024 0.1567 0.5799 0.20249 0.55277 0.4478 0.93095 0.34037 0.54714 0.36492 0.47168 0.33333 0.33538 0.34324 0.24722 0.38145 0.14741 0.55892-0.039946 0.51834-0.29738 0.27624-0.28011 0.17638-0.22634 0.79184-1.1932 1.1356-1.4613 0.48037-0.69736 1.5557-2.8468 0.21118-0.35505 0.28508-0.41417 0.38717-0.44308 0.39477-0.36879 0.41555-0.3384 0.52322-0.37301 0.3896-0.22028 0.44919-0.18232 0.51419-0.12562 0.36922-0.041508 0.56689-0.005127 0.34894 0.023649 0.66432 0.088928 0.79622 0.16433 1.9515 0.51794 1.0042 0.21509 0.56376 0.065215 0.66153 0.002186 0.38263-0.045612 0.84203-0.20154 1.3061-0.40361 0.82317-0.32544 0.5973-0.32805 0.25755-0.16666 1.6933-1.2569 0.43043-0.2823 0.51842-0.2902 0.51224-0.24901 0.53615-0.2117 0.5242-0.15246 0.5488-0.12117 2.796-0.50947 3.8299-0.882 0.83426-0.1526 0.55268-0.069671 0.64271-0.024747 0.66745 0.091899 0.47826 0.21921 0.44092 0.47469 0.2689 0.54985 0.21991 0.76301 0.16704 1.0004 0.097318 0.96826 0.11344 1.9169 0.090997 2.4637-0.002905 1.4591-0.045202 1.0165-0.12964 1.4045-0.12642 0.89619-0.15677 0.85533-0.20582 0.89086-0.15682 0.56282-0.095914 0.29616-0.072755 0.14739-0.24551 0.3441-0.26545 0.49613-0.37519 0.61292-0.57461 0.69508-1.5203 1.5476-0.79219 0.89006-0.66399 0.89336-0.62332 0.95358-1.2228 1.9544-0.65208 0.93938-0.71626 0.87471-0.84923 0.83327-0.91243 0.75125-0.93619 0.68992-1.8579 1.3165-0.78434 0.63123-0.61117 0.63319-0.36609 0.64833-0.068365 0.62495 0.15756 0.60926 0.33167 0.5523 0.46712 0.45093 0.57471 0.30002 0.7433 0.12516 1.6727 0.019874 0.87459 0.15742 0.61634 0.25848 0.45933 0.26948 0.45847 0.32381 0.79833 0.66942 0.90567 0.88825 0.4772 0.51331 1.007 1.1616 1.1688 1.4487 1.0986 1.4463 0.92309 1.2747 4.8712 7.0436 2.1849 3.2834 2.3289 3.663 0.30468 0.55014 0.24186 0.54833 0.29005 0.90276 0.1365 0.6226 0.093344 0.6837 0.024752 0.77036-0.022701 0.35239-0.13465 0.78721-0.27287 0.90779-0.35992 0.8971-0.57121 1.1769-0.33573 0.60281-0.47844 0.77114-0.62295 0.88702-0.56314 0.71857-0.52598 0.61624-0.92751 0.9896-0.90584 0.86906-0.51861 0.45042-0.62911 0.47928-0.4769 0.29141-0.49976 0.22224-0.28024 0.084995-0.43678 0.084962-0.46046 0.041653-1.3692-0.015276-0.81712 0.016136-0.57775 0.075573-0.61106 0.14021-0.44962 0.15222-1.8354 0.81299-0.60041 0.20888-0.23491 0.05486-0.42775 0.050353-0.73148-0.030187-0.66899-0.12558-0.65976-0.22805-1.9072-0.80771-0.49652-0.24826-0.47783-0.30243-0.30154-0.24452-0.50233-0.50806-0.44344-0.54038-0.68246-0.89296-0.25339-0.28952-0.3268-0.28901-0.35229-0.17957-0.30144-0.047009-0.31581 0.028944-0.28878 0.080853-0.41529 0.19326-0.36252 0.24472-0.3724 0.34151-0.56654 0.67847-0.35828 0.50817-0.43783 0.68705-0.88486 1.5542-0.5435 1.1082-0.31523 0.75172-0.24463 0.66482-0.96758 3.0832-0.81764 2.4202-0.48398 1.5922-0.22201 0.93197-0.14699 0.88516-0.066529 0.75026-0.010216 0.57198 0.053358 0.77616 0.12556 0.70272 0.21984 0.78767 0.30023 0.82281 0.20434 0.49242 0.94776 2.0662 0.70961 1.3806 0.34116 0.57766 0.48897 0.74349 1.184 1.6956 0.21615 0.33925 0.27353 0.49541 0.14892 0.36532 0.051081 0.18984 0.023932 0.31115-0.046129 0.17626-0.090435 0.1055-0.13037 0.043535-3.1608-1.2221-2.4355-0.88617-2.7161-0.84468-2.9106-0.85697-2.2248-0.69918-2.9542-0.98797-4.9279-1.7412-1.6163-0.64611-1.0955-0.52794-0.6678-0.36212-0.62358-0.39126-0.55874-0.44354-0.30668-0.31311-0.18204-0.22011-0.27175-0.40018-0.31398-0.59772-0.17146-0.39862-0.23854-0.65979-0.31259-1.1387-0.17944-0.84588-0.21903-1.171-0.074763-0.77364-0.003592-0.37596 0.032542-0.55449 0.037531-0.27766 0.13871-0.58698 0.26334-0.7166 0.74663-1.5856 0.43318-1.0236 0.19478-0.60295 0.099995-0.59413-0.023263-0.58532-0.12666-0.56473-0.14305-0.39696-0.17295-0.36863-0.1957-0.33368-0.20824-0.2823-0.22126-0.22136-0.27009-0.15137-0.17153-0.035004-0.17944 0.004455-0.27489 0.076618-0.30911 0.19586-0.16833 0.23766-3.7791 3.938-2.7567 3.0039-1.6402 1.6976-2.3816 2.3187-1.3281 1.234-1.0698 0.94894-1.5762 1.3002-1.266 0.96385-1.6289 1.1601-1.2572 0.84344-0.8204 0.51549-0.87264 0.48856-0.99605 0.47967-2.906 1.1756-1.3067 0.56633-0.95373 0.49432-0.43341 0.27199-0.45376 0.33019-2.4474 2.1001-3.4456 2.6215-0.50449 0.40059-0.70892 0.61297-0.59292 0.58255-0.75588 0.8455-0.77978 0.95654-1.7767 2.2547-0.87264 1.0221-0.57645 0.59082-0.41637 0.37849-0.59558 0.46702-0.35459 0.23695-0.35754 0.20781-0.98501 0.44384-1.1905 0.43286-0.68247 0.20632-0.79675 0.18545-0.47954 0.074084-0.55311 0.044521-0.38852 0.003837-0.62194-0.041877-0.58327-0.091371-0.67262-0.16509-0.73705-0.24022-0.78965-0.31204-0.49347-0.25013-0.40851-0.2512-0.46326-0.3435-0.84622-0.76142-0.30992-0.24346-0.34703-0.20281-0.27997-0.11088-0.4596-0.1093-0.44295-0.042721-0.45632 0.008757-0.48414 0.069755-0.35552 0.11947-0.15864 0.11763-0.084676 0.067551-0.10788-0.004372-0.10922-0.14067-0.093092-0.35083-0.058785-0.51877-0.077287-1.3806-0.099342-1.0974-0.15122-1.0141-0.23411-1.0097-0.35072-1.0559-0.41671-0.93109-0.25458-0.46586-0.29488-0.46956-0.35289-0.48325-0.4203-0.48589-0.38598-0.37533-0.44204-0.35799-0.49236-0.32278-0.40578-0.22007-0.54456-0.25473-1.6923-0.70561-0.62429-0.2828-0.56281-0.29916-0.6455-0.42148-0.6534-0.5034-0.56069-0.54279-0.51234-0.65861-0.4083-0.66516-0.31943-0.63672-0.35068-0.79619-0.38274-1.021-0.26895-0.82082-0.28895-1.0963-0.2471-1.2331-0.098651-0.64781-0.26581-2.1739-0.1447-0.83087-0.073005-0.26104-0.14712-0.32989-0.15816-0.23047-0.19129-0.20483-0.17526-0.14358-0.17519-0.10747-0.21944-0.083403-0.16576-0.024992-0.2302 0.01758-0.20378 0.063165-0.14438 0.070809-0.37031 0.26053-0.31951 0.27472-1.2334 1.1862-0.59005 0.53018-1.5265 1.2978-0.69801 0.52965-0.62118 0.4161-0.42388 0.25404-0.70695 0.3662-0.37744 0.16087-0.44682 0.15379-0.35605 0.093124-0.42158 0.0767-0.59727 0.051546-0.38942 0.006995-0.68939-0.022331-0.59895-0.048822-4.215-0.56483-1.62-0.25578-1.9-0.38394-1.0607-0.28983-0.76875-0.30003-0.30672-0.15314-0.51507-0.31936-0.73266-0.64554-0.6426-0.76963-0.59047-0.84806-0.78602-1.3025-1.2342-2.2479-0.66674-1.1197-0.868-1.3097-1.3028-1.7464-1.0375-1.301-1.3106-1.5858-1.9381-2.2529-2.4719-2.7336-2.4641-2.5763-2.3195-2.3036-2.2739-2.1558-2.9616-2.7328-1.003-0.90043-1.5025-1.3014-1.3876-1.1182-0.74628-0.553-0.87302-0.59699-3.2575-2.1128-2.1006-1.4732-0.95408-0.74977-0.60288-0.524-0.73159-0.69672-0.51919-0.54354-0.5258-0.60723-0.47326-0.60895-0.62676-0.92021-0.52238-0.89335-0.43167-0.8483-0.27955-0.60285-1.2024-2.7133-0.27068-0.55194-0.3447-0.62322-0.38843-0.55996-0.37787-0.40382-0.98997-0.87019-0.83167-0.62495-0.37609-0.33498-0.32588-0.39796-0.1011-0.16648-0.20855-0.45824-0.11311-0.33634-0.34901-1.2747-0.30814-0.93386-0.1866-0.4403-0.20501-0.40312-0.38584-0.61215-0.35161-0.47148-0.61257-0.72364-0.81286-0.86179-3.1499-3.0791-1.192-1.2368-0.5298-0.65342-0.059817-0.096055-0.037241-0.19152-0.27247 0.14886-0.27155 0.19605-0.94149 0.78762-0.93934 0.88623-1.2919 1.2964-0.47745 0.52223-0.45167 0.5417-0.95563 1.2598-1.4891 1.8796-0.55806 0.81023-0.39868 0.72202-0.371 0.81657-0.69038 1.6671-0.55904 1.1188-0.34634 0.60573-0.95455 1.4822-0.72885 0.99244-0.40089 0.48937-0.3949 0.43799-0.4169 0.41136-0.49862 0.4205-0.35311 0.25303-0.91417 0.53936-1.5893 0.79332-0.93086 0.51854-0.5084 0.32985-0.48224 0.35761-0.45482 0.39239-0.41413 0.42281-1.0494 1.3152-0.46718 0.5078-1.5226 1.4667-0.70482 0.75632-0.3258 0.44228-0.20696 0.38478-0.083286 0.30931 0.039271 0.10388-0.27237 1.1808-0.29289 1.567-0.19047 0.54296-0.1355 0.25679-0.32078 0.44614-1.2669 1.3337-0.57502 0.68553-0.45456 0.66982-0.28443 0.54662-0.10932 0.28164-0.094135 0.35305-0.042163 0.32193-0.002704 0.47719 0.067547 1.0013 0.004962 0.38243-0.044014 0.85096-0.14791 1.6775-0.013891 0.69512 0.047119 1.3238-0.018649 0.34568-0.039631 0.26838-0.065955 0.25906-0.089382 0.23202-0.15485 0.27587-0.18716 0.24751-0.2015 0.2143-0.19371 0.17226-0.23916 0.15517-0.17575 0.12006-0.21911 0.3552-0.23936 0.53917-0.69189 1.7096-0.56898 1.5155-0.23861 0.48599-0.34581 0.47972-0.16372 0.16961-0.46342 0.38451-0.65792 0.44343-0.55878 0.32546-1.3219 0.71193-0.81973 0.5156-0.4285 0.29628-0.88896 0.65333-2.7871 2.144-2.7947 1.9998-0.56089 0.42945-0.67654 0.58748-0.55616 0.59727-0.28856 0.39775-0.22632 0.41473-0.092183 0.22897-0.18628 0.69982-0.11881 0.85153-0.036557 0.80553-0.019588 1.2818 0.009434 0.99317 0.27401 4.6436 0.19418 1.8869 0.56615 3.6778 0.22186 1.092 0.66757 2.6017 0.17975 0.82624 0.17132 0.96695 0.10088 0.81226 0.050224 1.0708-0.02527 0.51941-0.046272 0.32568-0.095925 0.19116-0.29789 0.21647-1.2826 1.044-0.70313 0.52997-0.90983 0.56948-0.86154 0.39126-0.53814 0.16228-0.85726 0.12757-0.89605-0.002438-0.97556-0.11545-0.80835-0.16493-0.666-0.18309-0.90999-0.35367-0.65341-0.36629-0.65447-0.46106-0.68706-0.56512-0.61335-0.60278-1.2785-1.547-0.43814-0.4439-0.68272-0.52622-0.57326-0.36537-0.63734-0.33308-0.63992-0.24055-0.4813-0.11007-0.28194-0.033193-0.57791 0.003021-2.5339 0.28436-2.4183 0.17999-2.0218 0.087029-0.69663 0.058919-0.76022 0.12214-0.21127 0.048712-1.028 0.34258-1.0193 0.48846-1.0088 0.60184-0.99561 0.69081-0.97891 0.76208-1.4536 1.2604-1.9296 1.7914-3.3265 3.1657-0.6146 0.54313-0.57902 0.456-0.46237 0.3195-0.83357 0.48947-0.67896 0.32099-1.0725 0.39727-0.67421 0.19362-0.68135 0.1581-0.67381 0.12229-0.66756 0.088845-0.95638 0.070381-0.46091 0.008562-2.9733-0.12386-0.31679 0.030219-0.26462-0.15322-0.22612-0.3932-0.12321-0.54904 0.005083-0.41866 0.076256-0.44512 0.23172-0.69783 0.18951-0.43088 1.1857-2.324 0.58946-1.0891 0.53205-0.8832 0.46711-0.70901 0.50061-0.68506 0.51551-0.62021 0.60956-0.62119 1.677-1.4961 0.82644-0.7954 0.5469-0.59932 1.1522-1.3506 0.40281-0.50286 0.37168-0.50247 0.50539-0.74273 0.32636-0.58792 0.17563-0.46618 0.030362-0.21033-0.038141-0.28019-0.24524-0.36808-0.42962-0.33172-0.56442-0.30851-1.9941-0.8613-0.77842-0.36074-0.34399-0.17999-0.76932-0.48069-0.74366-0.55383-2.3798-2.0251-0.54039-0.43046-0.51517-0.36379-0.4257-0.24428-0.39272-0.15065-0.35174-0.031784-0.068223 0.011048-0.37524 0.19816-0.31503 0.36783-0.56658 0.95987-0.30664 0.45086-0.35495 0.33691-0.3226 0.15259-0.34403 0.067727-0.25349 0.005782-0.23764-0.037403-0.28018-0.13566-0.17384-0.23014-0.092267 0.007219-0.10047-0.081149-0.14588-0.18474-0.16203-0.25884-0.33238-0.691-0.2505-0.7628-0.12953-0.59649-0.10769-0.76708-0.18081-2.371-0.082628-0.77986-0.086347-0.5482-0.13553-0.61156-0.16316-0.55098-0.17973-0.49321-0.29702-0.68474-0.33725-0.66517-0.50054-0.85644-0.40124-0.61735-0.71543-0.99528-0.73922-0.91364-0.46274-0.5277-1.862-2.0221-0.4084-0.49642-0.34416-0.4969-0.25288-0.50177-0.12738-0.51146 0.008224-0.4186 0.040369-0.23361 0.13892-0.47877 0.12786-0.33387 0.33434-0.73915 1.0523-2.1361 0.51532-1.1513 0.50922-1.2919 0.78948-2.3173 0.72847-2.4321 0.4027-1.5308 0.16107-0.71004 0.11712-0.63309 0.054805-0.50779-0.029069-0.31344-0.10211-0.045201-0.84143-0.27026-0.29337-0.13096-0.3814-0.21797-0.50849-0.34402-0.35351-0.27273-0.32955-0.2993-0.28853-0.31899-0.15276-0.22848-0.094437-0.24106-0.14202-0.84496-0.14137-0.42919-0.13642-0.27722-0.62388-1.0591-0.45398-0.85326-0.22548-0.47534-0.055348-0.19433-0.02592-0.2039 0.018367-0.24545 0.064313-0.24707 0.22164-0.48913 0.44815-0.70988 1.6409-2.2406 0.99065-1.4471 0.62652-0.80776 1.4498-1.7278 0.51755-0.69568 0.27097-0.48104 0.088895-0.24114 0.042486-0.23527-0.026935-0.30246-0.087881-0.21066-0.045596-0.03617-0.74196-0.81881-0.86814-0.91152-2.261-2.2821-1.5018-1.434-1.6777-1.4971-1.3226-1.1027-2.956-2.2902-1.0162-0.83991-1.4933-1.3017-5.2606-4.7028-1.785-1.5317-1.1674-0.91164-0.87028-0.63339-1.1167-0.75903-0.72643-0.45576 0.049373-0.080517 0.32698-1.0321 2.0383-6.9749 1.2592-4.4459 1.0305-3.853 0.27871-0.8716 0.55475-1.3519 0.6077-1.2656 0.35729-0.60906 0.43049-0.55536 0.49884-0.47549 0.56259-0.37917 0.66414-0.29055 0.72611-0.2234 1.6432-0.40216 0.7568-0.14703 0.82417-0.12944 1.36-0.13176 0.68897-0.020441 0.6433 0.014019 0.66099 0.040867 0.84592 0.090282 1.5628 0.26366 0.75108 0.091538 1.0553 0.04135 1.149-0.043962 1.2022-0.13323 0.71538-0.11803 1.0875-0.2208 1.6702-0.41056 1.6106-0.49099 0.64741-0.23719 0.76282-0.33466 0.51413-0.26329 0.74857-0.43134 0.74012-0.46924 1.103-0.75065 1.0706-0.79064 0.59786-0.47648 0.79062-0.69454 0.46236-0.45508 0.43212-0.474 0.63113-0.8299 0.47829-0.81952 0.39814-0.85962 0.34062-0.88277 0.53481-1.6447 0.18995-0.76349 0.14649-0.96375 0.052052-0.67479 0.021294-0.68226-0.007803-0.92756-0.16131-3.9035-0.11263-1.1382-0.21302-0.95482-0.3006-0.95646-0.37716-1.0254-1.2594-3.048-0.34013-0.7997-0.32984-0.69993-0.34649-0.63222-0.46307-0.7131-0.54194-0.71305-1.1856-1.4605-0.39104-0.59123-0.38354-0.74211-0.30638-0.88062-0.14266-0.7607-0.042005-1.0452 0.018331-0.38636 0.038097-0.42923 0.16276-0.9278 0.25977-0.81501 0.36554-0.76288 0.67074-0.97804 0.68808-0.76032 0.78136-0.73014 1.7754-1.5176 0.59587-0.55636 0.95056-1.0065 0.60763-0.73816 0.61915-0.84366 0.58081-0.89065 0.54092-0.92538 0.44232-0.85915 0.29969-0.68692 0.23293-0.66432 0.087463-0.31331 0.10377-0.50583 0.036861-0.60795-0.14051-0.81071-0.21518-0.60361-0.3616-0.74541-0.29203-0.49886-1.3659-2.0328-0.3279-0.55189-0.25389-0.5018-0.27918-0.77753-0.11568-0.71094-0.02128-0.74905 0.038583-0.78775 0.064876-0.73262 0.10128-0.75535 0.25175-1.2385 0.35044-1.2829 0.32817-1.0214 0.27229-0.75756 0.28699-0.69373 0.15953-0.32598 0.092269-0.12571 0.054977-0.26364 0.17514-0.33007 0.64466-1.0315 0.47911-0.70415 0.81069-1.1246 2.2492-3.0214 1.0089-1.4393 0.59769-0.91794 0.52619-0.94954 0.21741-0.46218 0.21357-0.52464 0.13824-0.4137 0.13434-0.53007 0.072875-0.43323 0.049118-0.75146-0.030745-0.64591-0.05496-0.43494-0.18993-0.8969-0.20432-0.65908-0.18064-0.45873-0.19416-0.41553-0.41532-0.73369-1.2617-1.8808-0.69016-1.1672-0.22032-0.43583-0.25824-0.58899-0.20525-0.59381-0.091883-0.35619-0.1231-0.71467-0.047277-0.58936 8.71e-4 -0.65453 0.060177-0.6766 0.12883-0.70309 0.1557-0.56093 0.21989-0.4953 0.21909-0.30386 0.16407-0.15642 0.16602-0.11966 0.28515-0.14586 0.21818-0.07926 0.71982-0.1662 0.95098-0.096355 1.2376-0.015271 1.9728 0.06808 0.74961 0.003478 0.9094-0.035569 1.3716-0.095455 0.42388 0.001584 0.38245 0.03937 0.2831 0.069646" stroke="#bdc660"/>
    </defs>
    <g clip-path="url(#p6e72a92bc8)">
     <use y="247.171207" fill="#bdc660" stroke="#bdc660" xlink:href="#mbbb2ca9a56"/>
    </g>
   </g>
  </g>
 </g>
 <defs>
  <clipPath id="p6e72a92bc8">
   <rect x="7.2" y="7.2" width="357.12" height="232.77"/>
  </clipPath>
 </defs>
</svg>
