<?xml version="1.0" encoding="UTF-8"?>
<!DOCTYPE svg  PUBLIC '-//W3C//DTD SVG 1.1//EN'  'http://www.w3.org/Graphics/SVG/1.1/DTD/svg11.dtd'>
<svg width="309.73pt" height="280.51pt" version="1.1" viewBox="0 0 309.73 280.51" xmlns="http://www.w3.org/2000/svg" xmlns:xlink="http://www.w3.org/1999/xlink">
 <metadata>
  <rdf:RDF xmlns:cc="http://creativecommons.org/ns#" xmlns:dc="http://purl.org/dc/elements/1.1/" xmlns:rdf="http://www.w3.org/1999/02/22-rdf-syntax-ns#">
   <cc:Work>
    <dc:type rdf:resource="http://purl.org/dc/dcmitype/StillImage"/>
    <dc:date>2024-07-04T12:11:00.690138</dc:date>
    <dc:format>image/svg+xml</dc:format>
    <dc:creator>
     <cc:Agent>
      <dc:title>Matplotlib v3.7.1, https://matplotlib.org/</dc:title>
     </cc:Agent>
    </dc:creator>
   </cc:Work>
  </rdf:RDF>
 </metadata>
 <defs>
  <style type="text/css">*{stroke-linejoin: round; stroke-linecap: butt}</style>
 </defs>
 <g id="figure_1">
  <g id="patch_1">
   <path d="m0 280.51h309.73v-280.51h-309.73v280.51z" fill="none"/>
  </g>
  <g id="axes_1">
   <g id="PatchCollection_1">
    <defs>
     <path id="mc72c62a89e" d="m260.64-224.59 0.077776 0.061698 0.1499 0.35933 0.045945 0.51592-0.072472 0.40132-0.15163 0.41133-0.46222 0.82054-0.88283 1.1867-2.4731 2.9473-1.0687 1.3779-1.6898 2.4684-2.799 3.822-0.76445 1.2109-0.37806 0.83434-0.1097 0.42144-0.03133 0.41868 0.044213 0.3478 0.094412 0.33149 0.38461 0.81082 0.77438 1.4555 1.0642 1.8065 0.2327 0.47287 0.24114 0.7321 0.24226 1.4413 0.16109 0.4112 0.26058 0.38973 0.49216 0.54412 0.56214 0.51054 0.603 0.46521 0.86736 0.58682 0.65059 0.37181 0.50042 0.22339 1.4353 0.461 0.17418 0.077103 0.049585 0.53465-0.093485 0.86617-0.19977 1.0799-0.27475 1.2112-0.68691 2.6112-1.2426 4.1485-1.3467 3.9529-0.86862 2.2036-0.87902 1.9638-1.795 3.6436-0.5703 1.2608-0.21809 0.56951-0.23697 0.81666-0.068861 0.39849-0.014028 0.71403 0.21729 0.87244 0.43135 0.8559 0.58706 0.84759 0.69664 0.84678 3.1762 3.4492 0.78932 0.90014 1.2609 1.5585 1.2204 1.6977 0.68442 1.0531 0.85382 1.4609 0.57526 1.1346 0.50664 1.168 0.30658 0.84131 0.27831 0.93984 0.23119 1.0432 0.14729 0.93511 0.14095 1.3303 0.30843 4.0443 0.1837 1.3085 0.22095 1.0175 0.4273 1.3012 0.56697 1.1787 0.27639 0.44152 0.24884 0.31513 0.17138 0.13842 0.15739-0.012314 0.29654 0.39257 0.47792 0.2314 0.40536 0.063801 0.4324-0.009863 0.58684-0.11553 0.55029-0.26029 0.60546-0.5747 0.52306-0.76907 0.96645-1.6373 0.53737-0.62743 0.64007-0.33802 0.11637-0.018846 0.59998 0.054217 0.6699 0.25698 0.72615 0.41669 0.87876 0.62055 0.92178 0.73427 4.0593 3.4544 1.2685 0.94471 1.3123 0.81995 0.58676 0.30702 1.3278 0.61533 3.4014 1.4692 0.96277 0.52625 0.73284 0.56584 0.41832 0.62786 0.065061 0.47795-0.051791 0.35877-0.29958 0.79519-0.5567 1.0029-0.86208 1.2669-0.634 0.8571-0.6871 0.85776-1.9653 2.3038-0.93289 1.0223-1.4097 1.3568-2.8605 2.552-1.0398 1.0596-0.87934 1.0579-0.85393 1.1686-0.79678 1.2094-0.90756 1.5065-1.0055 1.8577-2.0226 3.9643-0.32326 0.73499-0.39527 1.1903-0.13007 0.75928-0.00867 0.71414 0.21016 0.93653 0.38571 0.67071 0.45139 0.26137-0.68775 2.5138-0.099958 0.6572 0.014752 0.25413 0.078273 0.18859 0.16015 0.11825 0.22555 0.059286 1.2357 0.08821 0.54862 0.13746 1.1581 0.37444 1.2802 0.20494 0.3105 0.11846 0.27969 0.16078 0.23792 0.19377 0.18118 0.21986 0.10156 0.22468 0.018094 0.24056-0.084786 0.25156-0.17122 0.24914-0.5178 0.49316-0.65766 0.49073-2.2334 1.5223-0.70215 0.5519-0.31126 0.2898-0.26673 0.30018-0.20391 0.31007-0.12032 0.31679-0.025527 0.30531 0.045654 0.27762 0.088128 0.21369 0.10251 0.099396-1.3855 0.26437-1.6744 0.20045-1.298 0.063509-2.5978-0.024454-0.33342 0.035966 0.17886 0.092847 0.43063 0.133 3.8706 1.0735 1.18 0.41603 1.5064 0.62373 0.091584 0.39011 0.060286 0.78472 0.009956 0.79675-0.046751 1.1596-0.26332 2.6021-0.21908 1.4904-0.49549 2.6714-1.0916 4.5836-0.51738 2.5572-0.2901 1.0777-0.31634 0.8884-0.30385 0.68124-0.36532 0.6952-2.2005 3.6987-0.53877 0.80257-1.1263 1.545-0.51604 0.82171-0.46679 0.8648-0.41493 0.87989-1.0169 2.5486-0.35855 0.75294-1.6369 2.9401-1.0635 1.7965-1.6313 2.9424-3.7573 5.9006-0.72257 0.87134-0.50345 0.44463-0.5602 0.39331-0.88644 0.49402-5.6278 2.6473-1.5758 0.79352-2.243 1.242-1.8558 1.2048-0.87475 0.66253-1.5838 1.3594-0.32103 0.34516-0.14522-0.41166-0.46768-0.66918-0.84504-0.98482-1.2177-1.1938-1.047-0.87123-1.55-1.0474-1.6668-0.79594-1.1501-0.3507-1.0873-0.21552-1.361-0.15713-2.0198-0.092202-3.5785-0.060391-1.4343-0.080603-1.1997-0.12147-1.3186-0.21395-1.6088-0.44204-0.93959-0.41094-0.99003-0.62206-1.4268-1.2625-0.67795-0.73453-2.0555-2.4911-1.2951-1.4759-0.7307-0.71812-1.1533-1.0147-0.76216-0.58871-0.7835-0.52716-1.2424-0.65358-1.2928-0.41635-1.6739-0.13704-0.92943 0.073254-1.7811 0.42729-1.8261 0.73013-1.8558 0.94156-1.8732 1.0809-5.6205 3.5301-1.8393 1.1132-1.8016 0.99797-1.7475 0.82131-1.6726 0.56924-1.5714 0.2229-1.1119-0.1047-1.0905-0.2654-1.0918-0.3399-1.0877-0.40606-2.1136-0.91461-1.0614-0.37503-2.3991-0.74551-1.7756-0.62405-0.90142-0.26018-0.6352-0.12448-0.84594-0.07195-2.0261 0.020736-3.0202-0.056152-1.6155 0.068377-1.8075 0.26788-5.4021 1.2567-1.6922 0.26386-2.5747 0.10462-1.1179 0.088946-0.63045 0.12805-0.639 0.23376-0.57425 0.33045-0.5241 0.43828-0.42488 0.44979-0.59077 0.71628-0.57006 0.77987-1.2312 1.991-0.60783 0.86385-0.69541 0.72663-0.96839 0.66064-1.0995 0.49727-2.7812 0.95263-1.3932 0.54745-0.89458 0.38619-1.7147 0.88562-1.7355 1.0668-2.446 1.7206-5.2034 4.0244-2.0933 1.5712-0.89288 0.57596-0.91818 0.50088-1.0636 0.4739-1.1854 0.45334-1.2071 0.38372-1.97 0.46696-0.86696 0.15159-1.2777 0.11849-1.3589-0.073414-1.0655-0.24304-0.8468-0.29857-1.1475-0.5257-1.4631-0.84355-1.548-1.0776-1.3977-1.0961-4.3122-3.6104-1.7121-1.3665-0.70437-0.4766-1.0759-0.52277-1.1384-0.32709-3.6942-0.64143-1.4621-0.092955-1.4742 0.14123-1.1298 0.31166-1.1222 0.43003-1.432 0.62707-1.5615 0.82306-0.98569 0.64538-2.2362 1.8213-0.9219 0.57379-0.95829 0.43666-0.94952 0.26653-1.3691-0.012645-0.89242-0.25413-0.53358-0.22245-0.92189-0.46953-4.4636-2.7608-1.808-0.99325-1.1433-0.55226-2.1191-0.89486-2.6511-0.98723-2.8268-0.98774-1.9863-0.59685-2.3442-0.63618-3.242-0.81447-2.2518-0.50379-1.8181-0.3179-1.4825-0.16528-1.5277-0.079513-2.8201-0.015497-5.1012-0.18435-0.93856-0.10302-0.30371-0.11531 0.075509-0.3237 0.46213-0.50224 0.72732-0.58263 0.91964-0.57776 1.1621-0.56479 3.0027-1.2438 1.1631-0.57011 1.107-0.62166 1.6712-1.0887 0.68932-0.53671 0.59501-0.5464 0.84381-0.99426 0.74272-1.0049 0.26254-0.45539 0.15866-0.48028 0.011233-0.15694-0.060893-0.36684-0.30734-0.71316-0.17068-0.54723-0.034584-0.3232 0.022415-0.32766 0.20319-0.6057 0.66838-1.1267 0.22139-0.50209 0.13177-0.5842 0.003185-0.61993-0.10035-0.66833-0.12687-0.49969-0.38618-0.96472-0.55182-0.99177-0.6775-0.99407-0.77358-0.97249-0.84837-0.92636-2.6238-2.6475-1.9474-2.1424-0.94181-1.1082-0.89378-1.1189-0.81824-1.1189-0.70613-1.1069-0.54556-1.0804-0.23968-0.68078-0.12438-0.6568-0.002152-0.55389 0.07122-0.48098 0.12063-0.47975 0.52944-1.7082 0.20274-0.89522 0.063705-0.89552-0.14488-0.96506-0.31616-0.86946-0.11951-0.23635-0.43222-0.61029-0.43069-0.25519-1.61 1.5784-0.72639 0.59686-0.33436 0.16351-0.1545 0.018709-0.25744-0.10651-0.187-0.2249-0.066534-0.28067 0.035911-0.15735 0.18622-0.32213 0.27536-0.32581 3.8763-3.6463-6.0219-1.0731-1.3573-0.28342-1.2622-0.33222-0.57845-0.19954-0.52847-0.23402-0.58215-0.36999-0.30585-0.29248-0.22802-0.3268-0.13512-0.35797-0.026866-0.45085 0.085123-0.48001 0.16614-0.50067 0.22399-0.5151 0.86911-1.5933 2.3168-3.8208 0.89864-1.692 0.47527-1.1752 0.62374-2.2453 0.47552-1.1638 0.59995-1.1259 0.64782-1.0158 0.58189-0.74792 0.20283-0.18234 0.074593-0.007997 0.032337 0.26783 0.072226 0.10385 0.22607 0.20995 0.39267 0.25265 0.93285 0.42856 0.74548 0.25296 0.73296 0.18746 0.85582 0.14651 1.1858 0.070132 0.85082-0.04761 0.91416-0.13628 0.83901-0.1899 1.6866-0.51834 2.0131-0.75549 4.6251-1.8635 1.8155-0.62445 0.92711-0.23764 0.63756-0.11391 1.1334-0.091201 0.82775 0.042167 0.70626 0.11064 1.1888 0.34233 0.58205 0.24166 3.1391 1.6432 1.0012 0.36051 0.97477 0.20905 0.99198 0.040785 0.80091-0.12345 0.82723-0.25065 0.81709-0.34415 0.86528-0.44591 1.0784-0.63956 1.8962-1.2527 3.2791-2.3127 2.0059-1.5073 1.45-1.1719 0.93683-0.81708 0.90445-0.85588 1.1305-1.1901 1.4402-1.6908 2.8931-3.7058 2.3289-3.0979 1.4163-2.0124 0.80884-1.2769 0.52518-0.92448 0.5133-1.024 0.34874-0.80329 0.23195-0.61639 0.32414-1.0504 0.25068-1.0716 0.16172-0.95297 0.15117-1.5678 0.049475-1.194-0.005548-2.8897-0.23176-4.5495-0.009152-1.4646 0.037118-0.95606 0.1254-1.5573 0.14729-1.24 0.54936-3.8765 0.29624-2.6927 0.17352-2.4767 0.36899-7.3279 0.22109-2.7452 0.20538-1.2587 0.31581-1.3157 0.31121-0.99147 0.72007-2.0338 0.67459-1.6974 0.2671-0.5646 0.3297-0.60272 0.65885-0.939 1.2007-1.1654 1.4643-1.0097 1.662-0.89281 1.808-0.8061 1.9135-0.7427 1.9872-0.69715 4.0991-1.3091 7.2039-2.1982 3.4276-1.1322 1.6887-0.61865 2.1081-0.88106 2.0233-0.98975 1.122-0.68857 0.90477-0.73496 0.55198-0.61823 0.43269-0.67454 0.44123-0.95742 0.27816-0.767 0.29982-0.97366 0.1872-0.7622 0.57858-3.7477 0.22742-1.0552 0.29151-1.0965 0.51778-1.6668 0.46889-1.3002 0.91134-2.1577 0.53332-1.1087 1.2749-2.4334 1.1891-2.2221 0.70316-1.2267 2.8218-4.5 1.09-1.5277 0.65068-0.8257 0.68912-0.79643 1.1339-1.1292 1.2468-1.0438 0.92664-0.66826 1.0792-0.69076 3.9855-2.366 2.0944-1.1285 1.651-0.62452 2.599-0.6006 0.49964-0.19604 0.64241-0.35643 0.60113-0.48319 0.4698-0.53602 0.21435-0.31972 0.31246-0.59261 0.34261-0.89345 0.23092-0.79355 0.52201-2.1945 0.32798-1.1872 0.40287-1.0373 0.1868-0.36453 0.36672-0.57246 0.37235-0.44812 0.37787-0.36714 0.4458-0.35266 0.60978-0.37797 0.81138-0.36218 0.566-0.17532 0.58278-0.12304 0.71114-0.08075 1.1764 0.00114 1.7262 0.20491 3.3393 0.5865 2.7981 0.41747 4.1866 0.50044 1.3462 0.066305 0.96396-0.092544 0.5957-0.11245 0.92289-0.23734 3.0557-0.9896 1.2681-0.32944 1.2736-0.16357 0.83787 0.019472 0.83654 0.11315 1.432 0.35382 8.1381 2.5036 1.2474 0.31714 1.8133 0.31802 0.84194 0.073628 0.85812 0.021197 0.7225-0.027864 1.0328-0.13333 0.57376-0.13852 0.65027-0.22796 0.67567-0.31632 0.78714-0.46656 0.83541-0.60855 0.75268-0.6533 0.72-0.73016 1.38-1.7464 1.2615-2.0115 1.1723-2.2159 1.1028-2.3697 1.0396-2.4667 0.9815-2.522 0.9127-2.5127 0.81943-2.4108 0.68439-2.1687 0.48566-1.7098 0.18394-0.9368 0.41015-0.74707 1.2391 0.77742 1.9049 1.2947 1.4845 1.0804 1.9914 1.5551 3.0449 2.6128 8.9734 8.0219 2.5472 2.2204 1.7333 1.4327 5.0423 3.9065 2.256 1.881 2.8617 2.5538 2.5617 2.4461 3.8567 3.8927 1.4809 1.5548 1.2656 1.3967" stroke="#bdc660"/>
    </defs>
    <g clip-path="url(#pfd8e97f319)">
     <use y="280.512" fill="#bdc660" stroke="#bdc660" xlink:href="#mc72c62a89e"/>
    </g>
   </g>
  </g>
 </g>
 <defs>
  <clipPath id="pfd8e97f319">
   <rect x="7.2" y="7.2" width="295.33" height="266.11"/>
  </clipPath>
 </defs>
</svg>
