<?xml version="1.0" encoding="UTF-8"?>
<!DOCTYPE svg  PUBLIC '-//W3C//DTD SVG 1.1//EN'  'http://www.w3.org/Graphics/SVG/1.1/DTD/svg11.dtd'>
<svg width="232.94pt" height="280.51pt" version="1.1" viewBox="0 0 232.94 280.51" xmlns="http://www.w3.org/2000/svg" xmlns:xlink="http://www.w3.org/1999/xlink">
 <metadata>
  <rdf:RDF xmlns:cc="http://creativecommons.org/ns#" xmlns:dc="http://purl.org/dc/elements/1.1/" xmlns:rdf="http://www.w3.org/1999/02/22-rdf-syntax-ns#">
   <cc:Work>
    <dc:type rdf:resource="http://purl.org/dc/dcmitype/StillImage"/>
    <dc:date>2024-07-04T12:11:04.902252</dc:date>
    <dc:format>image/svg+xml</dc:format>
    <dc:creator>
     <cc:Agent>
      <dc:title>Matplotlib v3.7.1, https://matplotlib.org/</dc:title>
     </cc:Agent>
    </dc:creator>
   </cc:Work>
  </rdf:RDF>
 </metadata>
 <defs>
  <style type="text/css">*{stroke-linejoin: round; stroke-linecap: butt}</style>
 </defs>
 <g id="figure_1">
  <g id="patch_1">
   <path d="m-0 280.51h232.94v-280.51h-232.94v280.51z" fill="none"/>
  </g>
  <g id="axes_1">
   <g id="PatchCollection_1">
    <defs>
     <path id="mdb6b6ef4fe" d="m72.788-235.7 0.27332 1.1445 0.07049 0.49993 0.043818 0.51035 0.074419 2.0038 0.091815 1.7882-0.003429 0.88002-0.16082 2.8183-0.025532 0.74309 0.043987 0.67802 0.11634 0.52814 0.18172 0.45654 0.26073 0.46576 0.24921 0.36697 0.68413 0.86178 0.71692 0.81974 2.2625 2.4901 2.4471 2.7313 1.0804 1.1518 1.1537 1.1839 0.18451-0.054307 0.35759-0.03777 0.46425-0.002956 0.92655 0.092185 1.2188 0.16497 0.75426 0.1764 0.72978 0.30332 0.38003 0.21045 0.45819 0.32964 0.22624 0.20233 0.2296 0.24991 0.21349 0.31381 0.20033 0.42992 0.33154 0.96312 0.33928 0.84015 0.30395 0.64172 0.28103 0.53445 0.4694 0.7897 0.57839 0.83119 0.92105 1.102 1.529 1.7018 0.58763 0.48732 0.53789 0.29292 0.5024 0.1451 0.58276 0.027696 0.61653-0.075466 2.0372-0.45664 0.74424-0.10181 0.67807-0.018508 0.52708 0.028805 0.54791 0.062601 0.66273 0.11797 0.89489 0.23972 0.74754 0.28751 0.77582 0.39724 1.426 0.84847 0.7976 0.37209 0.6145 0.18432 1.9155 0.39512 0.57777 0.16426 0.79587 0.28282 0.42411 0.17208 1.8151 0.78573 0.77718 0.28552 0.74678 0.21238 0.80103 0.1478 0.68757 0.049898 0.6194-0.025253 0.63889-0.10602 0.8947-0.30042 0.85248-0.43672 0.8043-0.52936 0.65889-0.52384 0.70145-0.71833 0.49939-0.68908 0.35108-0.72146 0.23386-0.73443 0.12933-0.68014 0.024359-0.32496-0.024713-0.11729 0.056292-0.075718 0.15673-0.093955 0.50277-0.20461 0.82588-0.22822 0.71828-0.13553 0.69845-0.073937 0.37259-0.016398 0.86074 0.015259 0.52253 0.043164 0.98844 0.15251 4.7773 1.0257 0.83731 0.17034 0.81526 0.13207 0.78891 0.07416 1.7904 0.026083 0.55668 0.03616 0.66882 0.092077 0.57193 0.12233 0.46617 0.12748 0.73079 0.24501 0.66266 0.26611 0.7915 0.37009 0.52537 0.27808 0.5071 0.29629 0.5868 0.38481 0.54379 0.41054 1.3295 1.1428 2.0969 1.6464 0.56806 0.484 0.50326 0.50984 0.37554 0.4757 0.71437 0.96849 0.40002 0.43532 0.62389 0.55601 0.30808 0.23999 1.5818 1.1487 1.463 1.0112 1.4948 0.9285 1.0419 0.58805 2.5745 1.3802 1.6579 0.91248 1.1302 0.66261 0.76187 0.47618 0.45039 0.30097 0.20862 0.17536-0.079116 0.10525-0.14787 0.32605-0.18725 0.52074-0.085038 0.30652-0.10892 0.56369-0.045996 0.60533 0.064706 0.89336 0.39597 2.1522 0.099291 0.86021-0.010055 0.84249-0.14605 0.75215-0.23887 0.73954-0.53894 1.4718-0.81586 2.803-0.48447 2.1324-0.12852 1.0331-0.044535 0.64393 0.022215 0.63286 0.098062 0.51732 0.12097 0.40377 0.29556 0.71764 0.37138 0.67899 0.42635 0.61448 1.3727 1.6173 0.57352 0.80568 0.34206 0.4412 0.25004 0.25702 0.33638 0.28882 2.9598 2.2683 1.4368 1.1588 0.97647 0.84317 0.32406 0.31944 0.41004 0.46519 1.1918 1.5157 0.70455 0.95057 0.29384 0.4687 0.39815 0.76619 0.32894 0.79217 0.26186 0.79644 0.19173 0.77909 0.058539 0.32791 0.049513 0.48602-0.003442 0.47417-0.038361 0.3362-0.14759 0.61545-0.26682 0.57232-0.40243 0.50645-0.52172 0.45508-0.61516 0.41255-0.68744 0.3769-0.88028 0.40642-0.93249 0.374-1.9447 0.67998-3.4823 1.1232-0.82982 0.3305-0.59829 0.27762-0.5851 0.30165-0.55472 0.31463-0.84214 0.54769-0.46843 0.3616-0.55306 0.51716-0.42217 0.49578-0.82376 1.0992-0.54029 0.77777-0.43954 0.74059-0.27826 0.58611-0.14933 0.41383-0.11821 0.49684-0.047604 0.49809 0.008425 0.50392 0.097475 0.75463 0.21948 0.74858 0.24882 0.58767 0.40885 0.77285 0.28708 0.47669 1.2339 1.8754 0.33334 0.47074 0.5012 0.62586 0.84423 0.9138 3.2472 3.2626 0.74993 0.81461 0.63675 0.76671 0.45484 0.66934 0.1317 0.26722 0.05693 0.1741-0.056001 0.21237 0.5023 0.1776 3.5367 1.4676 1.4082 0.56548 0.63777 0.2286 0.72836 0.2146 0.93824 0.21034 0.87412 0.10835 1.7111 0.12115 0.82762 0.1165 0.45789 0.10568 1.5035 0.45058 0.82431 0.2138 0.54204 0.09736 0.80334 0.086892 1.0395 0.029053 1.156-0.063962 1.4693-0.2021 1.4547-0.26717 0.64454-0.14213 0.81128-0.21599 0.83971-0.27186 0.67374-0.24779 3.1336-1.2758 1.6785-0.65251 1.2394-0.44131 0.56112-0.17626 0.77058-0.19821 0.48617-0.082562 0.5224-0.037295 0.57595-0.012709 0.55043-0.00316 0.54374 0.078658 0.48909 0.21368 0.49064 0.31981 0.3192 0.2426 0.36795 0.32512 0.47458 0.49034 0.32324 0.37281 0.3881 0.4751 0.6121 0.82085 0.21299 0.35468 0.18396 0.40857 0.092909 0.27756 0.13684 0.59405 0.11277 1.088 0.068353 0.29406 0.086826 0.1072-0.096135 0.08809-0.12157 0.21964-0.12141 0.30719-0.096954 0.36302-0.060376 0.42016-0.070363 0.8843-0.070698 0.44267-0.1072 0.37497-0.1427 0.36673-0.46784 1.0098-0.16965 0.46156-0.080948 0.45947 0.006957 0.25363 0.070617 0.39066 0.085882 0.29538 0.54181 1.4033 0.65558 1.3029 0.19259 0.42066 0.15356 0.45156 0.069386 0.45283-0.03598 0.44966-0.11479 0.44909-0.49676 1.325-0.11758 0.4262-0.040875 0.41294 0.049947 0.36283 0.10877 0.35484 0.25946 0.71176 0.083586 0.37037 0.016647 0.37635-0.031115 0.39189-0.107 0.82193-0.17801 1.9312-0.013047 0.44097 0.022939 0.4356 0.075103 0.42414 0.14155 0.419 0.18917 0.40374 0.47536 0.83919 0.34294 0.54403 0.21255 0.24512 0.12774 0.079642-0.10675 0.1698-1.5459 1.9228-0.52436 0.70776-0.49366 0.71785-0.53113 0.87358-0.29894 0.57568-0.32316 0.73043-0.30911 0.86197-0.16257 0.5833-0.10165 0.57165-0.026876 0.59867 0.038866 0.5999 0.077135 0.54155 0.19283 0.78538 0.27719 0.79883 0.33296 0.78717 0.38071 0.79126 0.76103 1.4033 0.85258 1.4241 2.1418 3.4267 0.35967 0.61701 0.45875 0.8756 0.41839 0.96459 0.20335 0.57167 0.20063 0.81851 0.056578 0.81741-0.042018 0.43284-0.10634 0.50494-0.1856 0.58757-0.26477 0.65275-0.54831 1.1135-0.85875 1.4819-0.61963 0.94446-0.64653 0.81796-0.68628 0.7529-0.91713 0.85726-0.34803 0.34559-0.2815 0.32577-0.18747 0.27182-0.096501 0.17958-0.11084 0.30861-0.043334 0.30657 0.001889 0.16441 0.049912 0.31789 0.12696 0.41145 0.77097 2.1159 0.12905 0.48147 0.068215 0.70376-0.024702 0.49819-0.077764 0.48787-0.54229 1.983-0.07705 0.43966-0.035992 0.44779 0.007277 0.4105 0.10495 1.1938 0.028642 0.6414 0.035922 2.0225 0.043235 0.55637 0.062348 0.45984 0.17762 0.9612 0.079685 0.24989 0.10349 0.23094 0.17503 0.27738 0.17441 0.19309 0.21968 0.17506 0.26458 0.14692 0.30168 0.10552 0.33591 0.070986 0.58738 0.066338 1.7367 0.13315 0.90777 0.14922 2.6906 0.64622 0.68743 0.18015 0.74018 0.24035 1.2894 0.48447 0.54464 0.25099 0.4936 0.31739 0.48596 0.48178 0.40644 0.59352 0.28652 0.56592 0.25095 0.61231 0.39664 1.1428 0.3747 1.2685 0.21222 0.98902 0.066912 0.51409 0.024682 0.67417-0.036115 0.5559-0.068466 0.50069-0.087773 0.46224-0.17149 0.70667-0.20134 0.66105-0.21323 0.57004-0.32778 0.75418-0.67559 1.4614-0.25803 0.68866-0.090639 0.33978-0.06491 0.3754-0.022048 0.3215 0.009469 0.28058 0.11866 0.61623 0.25536 0.67862 0.28565 0.5824 0.67971 1.2939 0.26012 0.63325 0.046234 0.18494-0.006297 0.086451-1.7267 1.0467-2.1911 1.2544-1.6138 0.85886-1.4375 0.69181-0.62971 0.2688-0.67868 0.25486-0.66032 0.20145-0.80827 0.15948-0.76849 0.0227-0.69498-0.12526-0.66287-0.22605-1.2664-0.55013-1.2021-0.50016-0.61056-0.23292-1.0627-0.29654-0.52867-0.17879-0.52741-0.25277-0.52189-0.31031-1.5684-1.03-1.2686-0.73382-0.64295-0.32558-0.59007-0.22294-0.87913-0.25391-2.274-0.46194-0.53178-0.15954-0.49159-0.20207-0.98068-0.46705-0.65783-0.27343-1.7873-0.68732-0.63358-0.27904-0.95944-0.4856-1.4905-0.84411-0.51345-0.25539-0.4567-0.18911-0.48978-0.13926-0.42198-0.052897-0.42503 0.005119-0.83142 0.075813-0.15204-0.023357-0.16635-0.46476-0.6232-1.4304-0.23455-0.62112-0.2634-0.89883-0.15942-0.79415-0.063327-0.50683-0.035228-0.68035 0.002765-0.69315 0.065039-2.24-0.002289-0.78522-0.025508-0.7907-0.061813-1.0095-0.19759-2.0214-0.13803-1.0924-0.28608-1.9357-0.25773-1.4652-0.31214-1.4618-0.24387-0.76574-0.27399-0.66763-0.23274-0.48339-0.25619-0.47624-0.32934-0.54877-0.39411-0.564-0.5988-0.72845-0.52456-0.55132-0.46225-0.43599-0.5186-0.44965-1.1991-0.94213-2.2608-1.5729-0.59166-0.43386-0.99533-0.78133-2.8137-2.291-1.5671-1.2122-3.1066-2.267-1.2726-0.89422-1.3593-0.90716-0.93839-0.57504-0.40199-0.22516-0.74636-0.37294-0.76062-0.30849-0.4851-0.15346-0.48385-0.11352-0.43302-0.062778-0.335-0.019556-0.37175 0.012506-0.49784 0.084827-0.55421 0.20355-0.6011 0.33815-0.38222 0.26384-0.56396 0.43289-1.9048 1.5729-1.1228 0.88195-1.8381 1.3644-2.7438 1.9615-1.37 1.0201-2.408 1.9468-1.1713 0.92174-1.1126 0.81727-2.0057 1.3769-0.99634 0.7256-0.53051 0.41835-2.3453 2.0266-0.75388 0.54557-0.76968 0.39413-0.58152 0.16453-0.47317 0.069183-0.88669 0.038565-0.6615-0.007587-0.65972-0.060205-0.6522-0.15507-0.73407-0.33382-0.68665-0.43901-0.68996-0.52361-2.2789-1.8931-0.94045-0.70417-0.92103-0.57818-0.62675-0.3155-0.38317-0.1644-0.6057-0.2207-0.5023-0.14875-0.63858-0.14986-0.96531-0.1618-1.2242-0.12617-1.7986-0.091991-2.3733-0.073046-0.74846-0.042618-0.84648-0.086732-0.69286-0.13876-0.47454-0.20367-0.18616-0.23137 0.079781-0.24164-0.11375 0.022212-1.73 0.55951-1.1029 0.33298-1.1066 0.29171-0.5436 0.11753-0.53445 0.090234-0.524 0.054575-0.51229 0.008196-0.45839-0.041344-0.44584-0.083565-0.4313-0.12031-0.41392-0.1543-0.39264-0.18813-0.36616-0.22429-0.33294-0.26528-0.33196-0.3547-0.29332-0.39798-0.26677-0.4258-0.97182-1.7342-0.253-0.37872-0.27026-0.32473-0.29539-0.24736-0.32137-0.14728-0.33243-0.052598-0.3208 0.038836-0.28514 0.13476-0.12461 0.10858-0.182 0.23708-0.20763 0.39501-0.28938 0.67603-0.15706 0.31358-0.18543 0.26312-0.2313 0.18229-0.20381 0.064991-0.23188 0.011345-0.34783-0.059306-0.3795-0.1311-0.66441-0.33343-0.44285-0.27185-0.8254-0.58113-0.68847-0.54631-0.51732-0.44941-0.12259 0.2355-0.19929 0.58636-0.23786 0.79638-0.24478 0.91126-0.50522 2.2469-0.12788 0.49412-0.25085 0.75762-0.34578 0.76494-0.41176 0.73642-1.3695 2.1241-0.3053 0.50197-0.55365 1.0023-0.24405 0.49493-0.85066 1.9262-0.55789 1.1916-0.23201 0.53791-0.20089 0.53108-0.19405 0.61059-0.13381 0.56086-0.14068 0.8321-0.12824 0.3292-0.24075 0.27076-0.34893 0.17995-0.46447 0.070923-0.54726-0.022088-1.1416-0.16777-2.1059-0.3801-0.83424-0.20314-0.49385-0.16256-0.42181-0.17396-1.4399-0.71619-0.7538-0.34388-0.64781-0.23413-0.62539-0.1814-1.2033-0.26137-1.1153-0.16875-1.8261-0.1831-1.8548-0.11097-0.98064-0.018569-0.63065 0.025621-0.6034 0.070959-0.80184 0.20717-0.69422 0.36412-0.57166 0.55094-0.43389 0.66813-0.30081 0.69064-0.16304 0.58987-0.004987 0.32664-0.1859-0.021514-0.47181-0.099559-0.9866-0.2521-0.86734-0.25801-1.0693-0.3558-0.83241-0.30164-1.2794-0.50749-0.89938-0.39096-1.1502-0.53156-0.93426-0.47898-1.128-0.64234-1.2439-0.76944-4.6179-2.9725-1.2639-0.83771-1.9598-1.418-0.97913-0.73961-0.80502-0.66041-1.3893-1.2714-0.69935-0.6974-0.40027-0.45397-0.39378-0.51936-0.37859-0.60549-0.27308-0.552-0.12641-0.32086-0.15026-0.49452-0.16271-0.86993-0.062193-0.69048-0.019272-0.61362 0.007284-0.61653 0.06487-1.0788 0.14038-1.1429 0.18021-0.91717 0.32265-1.2299 0.1597-0.70853 0.084235-0.67875 4.69e-4 -0.38293-0.06807-0.6165-0.20442-0.82072-0.21988-0.58471-0.27802-0.57682-0.42834-0.70107-0.19536-0.26939-0.85061-0.96867-0.83017-0.76886-0.9729-0.78322-1.0658-0.76058-0.6096-0.40314-1.2393-0.76822-0.95728-0.56086-3.4429-1.9303-1.5289-0.80726-2.933-1.4433-0.81654-0.42661-0.51567-0.29301-0.7067-0.44833-0.35596-0.25732-0.3461-0.2824-0.30033-0.30761-0.049517-0.086136 0.005045-0.064537 1.1601-0.91568 0.65205-0.55354 0.67315-0.61811 0.65755-0.66817 0.60047-0.68919 0.55693-0.71613 0.51262-0.73197 0.4668-0.74025 0.41719-0.74384 0.36053-0.7449 0.29276-0.74505 0.20895-0.74546 0.10321-0.74703-0.023639-0.79138-0.13242-0.79338-0.20985-0.79416-0.26389-0.79413-0.30053-0.79355-1.6694-3.9378-0.30574-0.77327-0.27201-0.76282-0.22212-0.74768-0.15069-0.72599-0.050478-0.69527 0.087976-0.65231 0.24668-0.57832 0.37826-0.52947 0.30724-0.3272 0.38194-0.3434 0.44645-0.35144 1.5237-1.1146 0.28798-0.25494 0.26466-0.30571 0.17542-0.33683 0.067108-0.48421-0.084501-0.54186-0.20904-0.58578-0.31259-0.61673-0.39972-0.63465-0.50061-0.67687-0.55562-0.67035-0.58115-0.6475-1.5754-1.6235 0.30777-0.64919 0.41542-0.71362 0.46174-0.68778 0.41704-0.49887 0.30566-0.30426 0.37487-0.31141 0.28797-0.2004 1.0588-0.66369 0.4946-0.39377-0.069468-0.24031-0.068679-0.56214-0.045451-1.1965-0.11709-2.0931-0.027231-1.1512 0.047526-1.1304 0.1241-1.1152 0.17561-1.0035 0.18265-0.8058 0.34171-1.2123 0.32486-0.94798 0.26211-0.67039 0.30856-0.71011 0.40474-0.83262 0.29036-0.54155 0.54398-0.92489 0.93751-1.4243 0.75243-1.0374 0.84748-1.0857 2.6918-3.2216 0.66936-0.83381 0.6218-0.83434 0.52866-0.79753 0.44511-0.80352 0.33435-0.81211 0.18941-0.82377 0.030315-0.54558-0.03483-0.55043-0.1311-0.76232-0.16325-0.63267-0.18882-0.59769-0.26162-0.69034-1.0598-2.3789-0.31372-0.73199-0.21309-0.58325-0.14452-0.51848-0.11346-0.60362-0.055811-0.52636-0.0146-0.46596 0.015305-0.50271 0.062564-0.72929 0.27498-2.0408 0.092167-0.99218 0.029441-1.1859-0.005499-0.7466-0.052942-1.2142-0.060364-0.68942-0.2195-1.9288-0.06555-0.84794-0.03364-0.75888-0.004482-0.78084 0.028168-0.69857 0.067205-0.80302 0.15828-1.4171 0.16754-0.97792 0.24477-1.048 0.55738-2.0937 0.14899-0.69693 0.11169-0.66077 0.14026-1.0514 0.30806-2.5343 0.17138-1.0837 0.30791-1.4131 0.29212-1.0353 0.34539-1.0059 0.22156-0.55372 0.35997-0.76349 0.41991-0.73157 0.62722-0.86161 0.76617-0.79357 1.0887-0.89723 1.1966-0.84104 0.90682-0.56785 0.74048-0.43204 2.1766-1.2136 1.0307-0.60681 1.139-0.74559 0.37529-0.27822 0.64322-0.5477 0.32039-0.31771 0.3261-0.36051 0.35986-0.45162 0.28698-0.41752 0.22639-0.39627 0.14893-0.35956 0.035326-0.22423-0.051868-0.1165-0.22203-0.17641-0.43466-0.44167-0.74615-0.82145-1.0728-1.2289-1.923-2.3508-0.62481-0.87296-0.2931-0.49615-0.29686-0.64688-0.20244-0.57769-0.63176-2.4518-0.16131-0.47535-0.1715-0.39827-0.18336-0.33982-0.3285-0.4587-0.24125-0.25466-0.44019-0.3736-0.41054-0.29142-0.76325-0.47553-1.5371-0.88162-2.4877-1.2487-0.71898-0.38428-0.76531-0.45057-0.99352-0.66667-0.55984-0.44028-0.45015-0.41819-0.62717-0.69244-0.92765-1.1223-0.22115-0.30204-0.17336-0.28655-0.088963-0.18783-0.098883-0.30034-0.051482-0.33337 0.009205-0.41226 0.049978-0.29693 0.31902-1.0345 0.073821-0.33622 0.04626-0.41299-0.003934-0.44143-0.066043-1.1957-0.067899-0.43176-0.10054-0.36037-0.21279-0.46337-0.23979-0.37452-0.1889-0.23916-0.30891-0.31929-0.40259-0.33871-0.48539-0.3537-0.80978-0.52897-0.30426-0.17128 0.034746-0.16959 0.11375-0.27046 0.37154-0.70605 0.46693-0.70884 0.35912-0.45036 0.65053-0.70778 0.33683-0.32026 0.63191-0.54524 0.87482-0.62835 0.43552-0.2574 0.57134-0.29084 1.8626-0.87119 0.52147-0.2359 2.5849-1.0775 0.82584-0.39063 0.58179-0.31264 0.52739-0.34613 0.52024-0.44845 1.2906-1.3813 0.36512-0.31763 0.57423-0.32342 0.40702-0.10045 0.42853-0.033508 1.3062 0.014588 0.38234-0.029417 0.37811-0.072045 0.4916-0.18141 0.4689-0.26931 0.45162-0.35626 0.4046-0.42086 0.28514-0.38388 0.2327-0.41816 0.21162-0.57989 0.14767-0.62222 0.31672-1.7439 0.094546-0.83922 0.096733-1.4974 0.014503-1.8483 0.050439-1.4783 0.33665-3.944 0.15158-1.3706 0.10309-0.67486 0.21636-1.0699 0.90106-3.6809 0.42676-2.007 0.12502-0.81647 0.13417-2.0499 0.1825 0.048002 0.27416 0.11925 0.55019 0.27225 0.88395 0.48968 1.9673 1.2103 2.807 1.8151 0.96399 0.65099 0.9544 0.68574 2.3673 1.829 0.81665 0.60626 2.7188 1.8654 0.96073 0.63028 3.1798 1.8347 1.0761 0.69214 0.83497 0.59632 0.4321 0.34377 0.40408 0.35533 0.37546 0.37466 0.33109 0.38822 0.35497 0.53741 0.2359 0.5661 0.10526 0.70986-0.036473 0.74255-0.11963 0.76347-0.29068 1.5115-0.29622 1.3216-0.15026 0.7741-0.056132 0.77314 0.077917 0.74165 0.17503 0.74622 0.45389 1.5162" stroke="#bdc660"/>
    </defs>
    <g clip-path="url(#pdcf8288f8c)">
     <use y="280.512" fill="#bdc660" stroke="#bdc660" xlink:href="#mdb6b6ef4fe"/>
    </g>
   </g>
  </g>
 </g>
 <defs>
  <clipPath id="pdcf8288f8c">
   <rect x="7.2" y="7.2" width="218.54" height="266.11"/>
  </clipPath>
 </defs>
</svg>
