<?xml version="1.0" encoding="UTF-8"?>
<!DOCTYPE svg  PUBLIC '-//W3C//DTD SVG 1.1//EN'  'http://www.w3.org/Graphics/SVG/1.1/DTD/svg11.dtd'>
<svg width="371.52pt" height="278.46pt" version="1.1" viewBox="0 0 371.52 278.46" xmlns="http://www.w3.org/2000/svg" xmlns:xlink="http://www.w3.org/1999/xlink">
 <metadata>
  <rdf:RDF xmlns:cc="http://creativecommons.org/ns#" xmlns:dc="http://purl.org/dc/elements/1.1/" xmlns:rdf="http://www.w3.org/1999/02/22-rdf-syntax-ns#">
   <cc:Work>
    <dc:type rdf:resource="http://purl.org/dc/dcmitype/StillImage"/>
    <dc:date>2024-07-04T12:11:06.534194</dc:date>
    <dc:format>image/svg+xml</dc:format>
    <dc:creator>
     <cc:Agent>
      <dc:title>Matplotlib v3.7.1, https://matplotlib.org/</dc:title>
     </cc:Agent>
    </dc:creator>
   </cc:Work>
  </rdf:RDF>
 </metadata>
 <defs>
  <style type="text/css">*{stroke-linejoin: round; stroke-linecap: butt}</style>
 </defs>
 <g id="figure_1">
  <g id="patch_1">
   <path d="m0 278.46h371.52v-278.46h-371.52v278.46z" fill="none"/>
  </g>
  <g id="axes_1">
   <g id="PatchCollection_1">
    <defs>
     <path id="ma51250640d" d="m339.22-157.71-0.74396 0.60912-1.6759 1.8019-2.0952 2.4689-2.345 2.9772-3.5476 4.9387-2.0763 3.1539-2.0029 3.2555-2.1667 3.8028-2.0188 3.8547-1.869 3.8947-1.7184 3.8924-2.7511 6.9527-2.0455 5.881-3.829 12.323-0.93823 2.614-1.0531 2.3951-0.66724 1.2269-1.4735 2.1334-3.2073 4.0212-1.9481 2.7978-3.3439 5.2708-7.8216 12.771-7.1669 11.078-4.2441 6.0313-2.0541 2.676-2.0908 2.5393-2.9455 3.2526-2.7649 2.7107-1.9625 1.7246-2.3161 1.8254-2.6031 1.7833-2.3892 1.3878-1.8416 0.91764-6.932 3.193-2.3913 1.0362-4.2205 1.6188-3.3345 1.0646-2.605 0.71156-3.7583 0.8487-3.331 0.56612-3.6767 0.38588-4.4787 0.11954-4.7552-0.11165-3.5071-0.27704-2.7292-0.39167-1.2623-0.24652-1.9288-0.51662-1.2402-0.49391-1.6643-1.0454-0.65644-0.59406-0.5806-0.69398-0.80751-1.6691-0.28693-1.901 0.2378-2.0199 0.73601-2.0313 1.0842-2.0939 2.3021-4.1159 1.2384-2.437 1.121-2.5294 0.84658-2.3418 0.66848-2.3478 0.44173-2.095 0.27116-2.1829-0.025249-2.4304-0.27693-1.8947-0.89414-3.3326-0.91534-2.1792-0.8211-1.3058-0.85448-1.0102-1.095-1.0146-1.5367-1.1117-1.2106-0.70418-1.8453-0.86276-0.98261-0.37576-1.2509-0.40845-3.3466-0.80204-3.0614-0.46168-18.884-2.5939-18.911-2.2339-17.313-2.5772-8.0156-1.0388-6.8953-1.0124-5.2543-0.54542-2.6274-0.1587-3.1443-0.06484-2.6481 0.071148-4.0742 0.34321-14.842 2.012-11.319 1.929-4.5254 0.59876-2.934 0.083214-1.2889-0.064173-1.0965-0.14293-1.304-0.33897-1.3284-0.63125-1.1639-0.82154-1.3192-1.291-0.70644-0.96502-0.62995-1.082-0.66595-1.416-0.64091-1.6823-0.62102-2.0083-0.92566-3.9064-0.45068-2.4334-0.7513-5.1561-1.3451-12.156-1.7599-13.618-0.92236-8.4682-1.4037-14.459-0.42513-2.9635-0.70898-3.6105-0.90986-3.7122-0.31159-0.98175-0.22016-0.35309 0.19975-0.40279 0.14503-1.3575 0.023767-1.9518-0.083363-2.0655-0.43732-4.1194-0.50826-2.7615-0.58944-2.3218-0.40714-1.2888-1.5523-3.7019-2.2088-3.9777-1.9745-3.0933-2.7419-3.9279-6.7167-9.1397-2.0526-2.9113-2.094-3.1245-1.5101-2.4294-0.89312-1.5863-1.0275-2.0559-0.86051-2.0537-0.7686-2.4665-0.3732-2.2748-0.036243-0.92636 0.29513-2.5603 0.79639-2.5383 1.2036-2.4891 1.5398-2.4094 1.2565-1.6264 1.0872-1.2317 1.3313-1.3289 2.2019-1.8409 2.2102-1.4883 1.2238-0.69626 2.4751-1.1731 1.2617-0.49445 2.4823-0.8094 1.3771-0.37343 3.7576-0.81721 5.1945-0.82719 7.7254-0.95324 12.931-1.2257 4.2799-0.47928 2.6474-0.37559 3.3984-0.62531 2.8222-0.71077 2.6247-0.9256 2.4548-1.1945 4.4854-2.4099 2.2554-0.776 1.8058-0.23105 1.8769 0.03783 2.7387 0.3601 4.3295 0.75448 2.0162 0.16239 2.0776-0.068229 2.8594-0.41222 3.1465-0.75152 2.6654-0.81351 4.6795-1.7235 4.5788-1.9663 6.147-2.9045 2.3405-1.0042 1.2776-0.51405 2.3763-0.53967 2.9591-0.43646 3.1446-0.20406 3.0322 0.14387 2.6841 0.60518 0.56288 0.22284 1.3799 0.73062 3.1983 2.3946 1.6332 1.0864 1.3811 0.65798 1.5069 0.49803 9.4864 1.6393 3.5692 0.92877 7.1213 2.0506 3.4559 0.6883 3.3249 0.15528 1.6726-0.2016 1.6331-0.3608 3.8626-1.1553 9.8015-2.6727 3.7451-0.94194 3.8249-0.83169 3.8384-0.64537 3.788-0.3694 2.5822-0.059603 11.946 0.16969 2.2811 0.18166 2.2139 0.45985 1.7678 0.67443 1.7527 0.94361 1.7404 1.1433 7.4095 5.4794 8.468 5.8954 2.8796 1.8939 5.1942 3.2564 6.1936 3.6817 23.192 13.387 24.06 13.235 5.9253 3.3692 2.8602 1.7024 3.401 2.1451 2.061 1.4119 1.921 1.459 1.4959 1.298 1.3364 1.3601 1.3413 1.7177 1.0106 1.8367 0.40937 1.1299 0.24284 1.0691 0.12805 2.3253-0.50904 3.5932-1.016 3.6089-1.1847 3.3205-1.3812 3.4635-4.6481 10.951-0.19022 0.72224 0.062524 0.094195" stroke="#bdc660"/>
    </defs>
    <g clip-path="url(#p64c8fdbac8)">
     <use y="278.456686" fill="#bdc660" stroke="#bdc660" xlink:href="#ma51250640d"/>
    </g>
   </g>
  </g>
 </g>
 <defs>
  <clipPath id="p64c8fdbac8">
   <rect x="7.2" y="7.2" width="357.12" height="264.06"/>
  </clipPath>
 </defs>
</svg>
