<?xml version="1.0" encoding="UTF-8"?>
<!DOCTYPE svg  PUBLIC '-//W3C//DTD SVG 1.1//EN'  'http://www.w3.org/Graphics/SVG/1.1/DTD/svg11.dtd'>
<svg width="307.09pt" height="280.51pt" version="1.1" viewBox="0 0 307.09 280.51" xmlns="http://www.w3.org/2000/svg" xmlns:xlink="http://www.w3.org/1999/xlink">
 <metadata>
  <rdf:RDF xmlns:cc="http://creativecommons.org/ns#" xmlns:dc="http://purl.org/dc/elements/1.1/" xmlns:rdf="http://www.w3.org/1999/02/22-rdf-syntax-ns#">
   <cc:Work>
    <dc:type rdf:resource="http://purl.org/dc/dcmitype/StillImage"/>
    <dc:date>2024-07-04T12:11:09.159058</dc:date>
    <dc:format>image/svg+xml</dc:format>
    <dc:creator>
     <cc:Agent>
      <dc:title>Matplotlib v3.7.1, https://matplotlib.org/</dc:title>
     </cc:Agent>
    </dc:creator>
   </cc:Work>
  </rdf:RDF>
 </metadata>
 <defs>
  <style type="text/css">*{stroke-linejoin: round; stroke-linecap: butt}</style>
 </defs>
 <g id="figure_1">
  <g id="patch_1">
   <path d="m0 280.51h307.09v-280.51h-307.09v280.51z" fill="none"/>
  </g>
  <g id="axes_1">
   <g id="PatchCollection_1">
    <defs>
     <path id="maa13b2909b" d="m123.05-249.16 4.3199 4.5505 1.5886 1.7268 2.1547 2.5264 1.9121 2.4327 0.8527 1.0078 0.78203 0.76981 0.76962 0.5911 0.83161 0.48672 0.99974 0.42034 1.0467 0.30582 0.97625 0.20225 2.6121 0.43614 1.9553 0.43929 1.0725 0.30663 0.86699 0.29927 0.66067 0.26367 0.49105 0.23472 0.63531 0.38878 0.84463 0.70796 0.53945 0.56788 1.226 1.4425 0.6819 0.75428 0.55109 0.54582 0.63575 0.54023 0.85835 0.59354 1.7633 1.0346 3.7142 2.268 0.74711 0.41592 1.2605 0.61542 1.2939 0.48011 1.0411 0.24163 0.99322 0.089597 0.88658-0.018203 1.0178-0.10797 2.9794-0.5928 0.21677 0.012472 0.004934-0.093048 0.11228-0.16744 0.27951-0.194 0.34914-0.15957 0.61073-0.18317 0.71552-0.1304 0.86305-0.085687 3.4744-0.16045 1.251-0.1106 2.1169-0.31359 2.1063-0.40009 1.9228-0.4357 1.8259-0.45491 3.6725-0.99003 4.1323-1.2692 2.9738-1.0206 1.7116-0.63594 4.7997-1.9147 0.85539-0.31087 3.0596-1.0029 0.79619-0.31296 0.73538-0.3349 0.6-0.3172 0.94121-0.60381 1.3746-1.0601 1.2251-1.042 1.6291-1.5643 4.2829-4.5034 1.2802-1.498 0.74823-0.98577 1.0991-1.637 1.3361-2.2566 0.40062-0.61435 0.51208-0.66597 0.68789-0.70565 0.46736-0.36575 0.51692-0.31854 0.55532-0.25898 0.69333-0.22777 0.95066-0.15568 0.51501-0.011748 0.46478 0.033627 0.3344 0.051939 0.79004 0.21458 0.46193 0.17793 0.83313 0.39806 0.81305 0.4817 0.72969 0.52506 0.69242 0.59112 0.7026 0.68822 0.76852 0.86649 0.53673 0.69337 0.45331 0.66948 0.45811 0.77466 0.43142 0.83731 0.58862 1.3908 0.84205 2.381 0.27517 0.69643 0.27195 0.57654 0.30797 0.51364 0.28794 0.38339 0.27487 0.30571 0.35992 0.32691 0.30992 0.22504 0.38336 0.22084 0.27427 0.12585 0.65377 0.21804 0.84894 0.16873 2.2821 0.25846 1.0902 0.177 1.5936 0.36883 1.8915 0.63068 1.3865 0.5559 1.1028 0.55612 1.6171 0.96069 1.8848 1.2255 1.5794 1.1178 1.389 1.1165 1.7323 1.53 1.8894 1.8036 1.6127 1.6608 1.4774 1.642 3.7378 4.4341 0.86684 0.9852 1.2361 1.2564 1.0291 0.90129 0.7078 0.5489 0.83809 0.58758 1.7363 1.0534 2.29 1.1943 3.7914 1.8403 0.99521 0.51855 0.96413 0.53879 1.4238 0.89059 1.2237 0.88536 1.2507 1.0685 0.56612 0.59194 0.23434 0.47781-0.062799 0.17202-0.3249 0.26361-0.55723 0.35194-0.72942 0.40499-1.2678 0.63097-1.7607 0.78415-4.5522 1.9161-1.495 0.68448-1.8217 0.91656-1.8248 1.034-1.0937 0.69096-1.3526 0.94365-0.87907 0.6742-0.84525 0.70065-0.94409 0.85066-0.93399 0.9072-1.9364 2.0058-2.1266 2.3758-0.89575 1.0747-1.0441 1.3421-0.81541 1.1692-0.51472 0.83658-0.55958 1.0646-0.59106 1.4856-0.29548 1.1386-0.18319 1.3767-0.035059 1.0754 0.057412 1.3575 0.14844 1.4327 0.21019 1.4471 0.36513 2.0967 1.0754 5.5459 0.31411 2.1616 0.11567 1.4956 0.040793 1.3284-0.022549 1.9553-0.1932 4.0745-0.004283 1.8799 0.098656 1.703 0.21759 2.0411 0.17025 1.1809 0.45027 2.4185 0.28716 1.2267 0.32268 1.1874 1.6472 5.1361 0.30531 1.4645 0.043799 0.93094-0.065401 0.58886-0.15258 0.58209-0.28847 0.6808-0.58811 0.95848-0.81569 1.0215-0.84332 0.91594-3.6848 3.7497-1.2341 1.381-2.5613 2.9973-1.9078 2.1321-1.2549 1.3044-3.4523 3.4744-2.2093 2.3002-1.0834 1.1775-1.8038 2.0649-1.0447 1.3159-0.080892 0.17094-0.64482 0.1695-1.2691 0.4936-1.8863 0.96086-2.062 0.99404-0.61046 0.32762-0.58083 0.36178-0.58365 0.43758-0.54811 0.4785-0.52083 0.50649-1.7398 1.858-0.87544 0.80487-0.46212 0.36457-0.94279 0.66499-1.5156 0.9236-0.57736 0.29101-0.66066 0.26733-0.6833 0.22255-3.5588 0.87916-1.4101 0.44098-1.2902 0.56828-3.2826 1.7423-1.3969 0.69826-1.3345 0.58388-2.223 0.84976-2.7199 1.1284-5.514 2.0153-2.4676 0.83817-2.2831 0.64363-0.57478 0.11738-1.9322 0.30508-0.63616 0.16432-0.52476 0.19178-0.31498 0.15779-0.28475 0.18892-0.2501 0.22705-0.2206 0.28018-0.70489 1.2605-0.42988 0.58425-0.56641 0.63078-0.34763 0.32698-0.65153 0.47874-0.29286 0.15777-0.45288 0.1779-0.2663 0.070215-0.57006 0.097929-2.6045 0.32815-1.1541 0.24124-1.1912 0.37506-0.45435 0.23123-0.051668 0.075687-0.5609-1.1886-0.4654-0.86856-0.54937-0.85378-0.4959-0.61752-0.56613-0.54076-0.65181-0.43529-1.2165-0.43034-1.3961-0.17064-0.84709-0.024259-2.5173 0.064111-1.7022 0.1006-3.5202 0.31396-1.7797 0.21805-1.7734 0.26932-1.755 0.33394-1.4982 0.35351-1.4695 0.41703-1.5989 0.54267-1.5498 0.61689-1.6059 0.74906-0.84824 0.46104-0.98193 0.61441-1.3388 0.99625-0.87327 0.7182-2.2506 1.9857-1.0539 0.99772-1.0119 1.0146-0.95372 1.0307-1.0747 1.2997-0.68964 0.95964-0.58992 0.96077-0.47009 0.95514-0.31394 0.91342-0.13598 0.9113 0.067353 0.88551 0.23343 0.89729 0.4443 1.1069 0.98612 1.9456 0.87559 1.5231 1.1928 1.9134 1.6795 2.4698 1.8049 2.4084 2.9403 3.5719 0.97781 1.2274 0.91085 1.2569 0.83084 1.34 0.6918 1.3792 0.51947 1.4097 0.30325 1.4313 0.032659 1.4429-0.057535 0.4736-0.31029 1.2874-0.49304 1.295-0.62528 1.3004-0.69261 1.26-0.75445 1.2319-0.78735 1.1627-1.278 1.6697-0.56326 0.65532-0.38228 0.39854-0.15735 0.12387-0.21276 0.18379-0.65584 0.28047-1.196 0.36915-2.5117 0.61396-5.3834 1.2129-1.557 0.39848-1.5265 0.43314-1.9275 0.62281-3.4225 1.1854-1.0801 0.31032-1.4432 0.31587-1.3672 0.17194-1.3473 0.002458-1.4673-0.23075-1.4507-0.42717-1.4406-0.56426-1.0976-0.49413-2.1461-1.0634-3.41-1.8355-3.0165-1.7197-3.7832-2.2758-1.1634-0.56615-1.178-0.34968-1.2134-0.066169-1.2435 0.17013-1.2626 0.34155-1.3702 0.49266-0.85492 0.34398-1.0178 0.46594-1.8747 0.95586-2.5788 1.4282-1.171 0.72357-1.1687 0.77535-1.1658 0.82155-4.992 3.6946-2.3339 1.5903-3.5379 2.2643-3.4156 2.1157-1.724 0.93727-0.34509 0.13997-0.14168 0.002385-1.3691-4.3345-0.49516-1.7629-0.17007-1.0214 0.00372-0.59728 0.072705-0.79001-0.02129-0.65251-0.15889-0.99822-0.26604-1.0013-0.23067-0.63654-0.40968-0.94402-0.30714-0.61815-0.3397-0.59363-0.38646-0.53754-0.21666-0.23201-0.81738-0.72468-0.26252-0.34628-0.082993-0.21158-0.84634-1.6943-1.0379-2.3729-0.45553-1.1352-0.55672-1.6096-0.36701-1.4743-0.1156-0.81723-0.018795-0.7793 0.10562-0.75967 0.45837-1.1452 0.75632-1.1064 0.97024-1.0228 1.1793-0.96031 2.4051-1.6677 1.0447-0.82489 0.84416-0.93113 0.58886-1.1954 0.17378-0.84295 0.024077-1.3063-0.11085-1.0276-0.21267-1.0573-0.2432-0.85551-0.38968-1.1204-0.43555-1.0813-0.61002-1.3258-0.47241-0.93124-1.9611-3.6869-0.77032-1.3918-1.5073-2.5118-0.722-1.1113-2.6005-3.8106-0.73876-1.1474-1.0693-1.7729-0.47674-0.92752-0.41908-1.083-0.21836-0.88349-0.1596-1.3538 0.00667-1.3914 0.14507-1.3853 0.26852-1.4456 0.48821-1.9828 1.1086-3.9405 0.56448-1.8656 0.65107-1.901 1.6143-4.1888 0.34994-1.0911 0.27981-1.1221 0.18657-1.1497 0.079517-1.2012-0.002895-1.2251-0.12178-3.1124-0.022427-1.9942 0.065303-1.3585 0.14442-1.3563 0.20725-1.2545 0.26401-1.2403 1.2085-4.5826 0.20375-0.94755 0.1405-0.93099 0.045717-1.2838-0.044208-0.49342-0.18601-0.91588-0.29263-0.87432-0.38856-0.84305-0.49958-0.84826-0.5881-0.815-1.0597-1.187-0.64825-0.62194-1.2069-1.0295-3.0796-2.4359-1.8211-1.5741-1.1753-1.1629-0.76043-0.89989-0.61971-0.85893-0.48858-0.76524-0.51679-0.8937-2.1142-3.836-3.0403-4.9298-1.1134-1.9339-0.76295-1.4336-1.8217-3.6693-2.5249-4.833-1.1815-2.4508-0.62207-1.1913-0.71768-1.1283-0.31902-0.38705-0.46652-0.46444-0.84156-0.62418-0.34666-0.20352-0.40134-0.20065-0.87097-0.32423-1.0134-0.24787-0.80818-0.13197-2.4562-0.25528-2.6817-0.14091-1.1077-0.016358-2.3041 0.039934-1.8611 0.13021-1.0213 0.1236-2.322 0.35246-0.59152 0.070813-0.13081-0.002323-0.043399-0.034681-0.053844 0.014026-0.1438-0.10177-0.20569-0.22742-0.24186-0.35783-0.20516-0.37802-0.2506-0.56398-0.41893-1.2945-0.23832-1.4626-0.018302-1.1034 0.12299-1.1025 0.30049-1.1694 0.47032-1.0992 0.6372-0.99873 0.52645-0.61032 1.2033-1.0689 1.105-0.80373 2.1725-1.4747 0.99609-0.71959 1.4984-1.216 0.78272-0.72417 1.0362-1.1486 0.76953-1.2585 0.4021-1.238 0.21092-1.3426 0.25062-3.8706 0.08958-0.98851 0.22803-1.81 0.30367-1.6323 0.3035-1.1788 0.291-0.88518 0.25867-0.65353 0.37204-0.75472 0.41925-0.62191 0.66538-0.57954 0.14562-0.070819 0.36632-0.10913 0.26124-0.026813 0.4674 0.038882 0.24456 0.053904 0.71452 0.25812 0.72521 0.41408 0.35469 0.26576 0.62529 0.57664 0.41096 0.44818 1.9303 2.2993 1.6126 1.7456 1.0187 1.039 0.73928 0.70135 0.93236 0.8101 0.93497 0.69659 0.74609 0.44433 0.744 0.31924 0.51948 0.13899 0.68842 0.094413 2.2476 0.01602 1.1872 0.053684 1.1985 0.22754 1.174 0.47292 1.1738 0.67506 1.1838 0.80752 2.2699 1.6411 1.0902 0.73823 1.1169 0.67722 1.0254 0.52538 1.0465 0.42014 1.0661 0.28472 0.71999 0.10102 0.58692 0.032972 1.5032-0.1035 1.523-0.38532 0.49465-0.19321 1.4392-0.79054 1.3321-1.032 1.2225-1.2063 1.1001-1.3298 0.9529-1.4154 0.59829-1.0756 0.57426-1.1706 0.53463-1.3701 1.1988-3.5363 0.51487-1.5925 0.30782-1.1173 0.25592-1.1481 0.2213-1.4173 0.11045-1.4523 0.007014-0.93655-0.04982-1.2031-0.18118-1.7118-0.31803-1.7242-0.39758-1.5153-0.49311-1.4905-0.57002-1.4439-0.60029-1.3204-0.61875-1.2186-0.7839-1.3918-0.61212-0.98015-0.2504-0.33815-0.053902-0.22293-0.30447-0.51321-0.6477-0.93496-0.86271-1.1402-1.0174-1.2552-1.2822-1.4712-1.3942-1.4665-1.1827-1.1384-1.2252-1.0982-3.528-2.9996-1.488-1.3303-1.4265-1.3565-1.3467-1.3923-1.2455-1.4404-1.2231-1.6192-0.64647-0.92241-1.0842-1.6308-1.9736-3.2079-1.6613-2.9675-0.35532-0.70053-0.35148-0.80678-0.25865-0.79922-0.18212-1.2533 0.004057-0.5508 0.14716-1.0916 0.36371-0.95272 0.37939-0.51848 0.51706-0.44935 0.70924-0.38399 0.25799-0.10559 0.98775-0.27159 0.69272-0.047449 0.45849 0.04242 0.41279 0.090991 0.78637 0.29694 0.48894 0.26769 0.39501 0.26416 1.2531 1.022 0.84088 0.79812 2.1741 2.2614 1.9462 1.8825 0.94017 0.81386 1.3968 1.0102 0.89232 0.56319 0.97156 0.55177 1.4902 0.71314 3.07 1.1943 3.5353 1.2624 1.2145 0.33576 0.95664 0.20131 1.0134 0.1433 1.3623 0.098874 6.481 0.026212 3.1921-0.08967 1.3369-0.11719 0.57827-0.076758 0.99668-0.18793 1.1089-0.29859 1.0443-0.36877 1.0397-0.44382 1.1523-0.56984 0.9584-0.52558 1.7535-1.0476 1.0695-0.68352 1.0571-0.7261 0.50945-0.3752 1.3189-1.064 1.2589-1.1504 1.1852-1.2231 1.0934-1.2794 0.67938-0.88422 2.5814-3.6166 0.78342-0.87922 0.37954-0.26831 0.34682 0.045678 0.20984 0.24791 1.624 2.3505 0.51901 0.6774 0.83282 0.99224 6.8399 7.7443" stroke="#bdc660"/>
    </defs>
    <g clip-path="url(#p54b147378e)">
     <use y="280.512" fill="#bdc660" stroke="#bdc660" xlink:href="#maa13b2909b"/>
    </g>
   </g>
  </g>
 </g>
 <defs>
  <clipPath id="p54b147378e">
   <rect x="7.2" y="7.2" width="292.69" height="266.11"/>
  </clipPath>
 </defs>
</svg>
