<?xml version="1.0" encoding="UTF-8"?>
<!DOCTYPE svg  PUBLIC '-//W3C//DTD SVG 1.1//EN'  'http://www.w3.org/Graphics/SVG/1.1/DTD/svg11.dtd'>
<svg width="234.5pt" height="280.51pt" version="1.1" viewBox="0 0 234.5 280.51" xmlns="http://www.w3.org/2000/svg" xmlns:xlink="http://www.w3.org/1999/xlink">
 <metadata>
  <rdf:RDF xmlns:cc="http://creativecommons.org/ns#" xmlns:dc="http://purl.org/dc/elements/1.1/" xmlns:rdf="http://www.w3.org/1999/02/22-rdf-syntax-ns#">
   <cc:Work>
    <dc:type rdf:resource="http://purl.org/dc/dcmitype/StillImage"/>
    <dc:date>2024-07-04T12:11:07.599857</dc:date>
    <dc:format>image/svg+xml</dc:format>
    <dc:creator>
     <cc:Agent>
      <dc:title>Matplotlib v3.7.1, https://matplotlib.org/</dc:title>
     </cc:Agent>
    </dc:creator>
   </cc:Work>
  </rdf:RDF>
 </metadata>
 <defs>
  <style type="text/css">*{stroke-linejoin: round; stroke-linecap: butt}</style>
 </defs>
 <g id="figure_1">
  <g id="patch_1">
   <path d="m0 280.51h234.5v-280.51h-234.5v280.51z" fill="none"/>
  </g>
  <g id="axes_1">
   <g id="PatchCollection_1">
    <defs>
     <path id="m4cb6456b8a" d="m146.09-259.12 1.1007 0.044727 3.4766-0.066414 0.86844-0.08639 2.3341-0.39689 0.64856-0.026287 0.56669 0.12373 0.37181 0.22779 0.317 0.33102 0.35423 0.6037 0.24115 0.71898 0.10632 0.63993 0.020039 0.66654-0.079778 0.69045-0.097601 0.38745-0.38972 0.9563-1.035 1.9085-0.43799 0.99968-0.26924 1.0583-0.1065 1.0788 0.033022 1.054 0.26641 2.158 0.022109 0.98937-0.023313 2.1285 0.049059 0.88527 0.12028 0.87543 0.23226 0.90051 0.372 0.85071 0.62967 0.90107 0.67868 0.72786 0.77825 0.71259 0.96266 0.80175 3.2527 2.5858 1.2444 1.0463 1.2156 1.0785 0.93055 0.86956 1.6462 1.6507 0.68891 0.75636 0.45811 0.55976 0.11313 0.24832 0.13733 0.3224 0.50153 0.70894 0.7547 0.91756 0.95491 1.0322 1.1119 1.0689 1.2404 1.0464 1.6656 1.1905 1.7845 1.063 1.8681 0.92254 1.713 0.69734 1.7441 0.59112 1.7629 0.49615 1.9588 0.44944 1.962 0.36609 1.9581 0.3008 3.2497 0.39239 2.9887 0.27575 4.6147 0.36891 1.8378 0.18844 1.5247 0.21712 1.4411 0.29403 0.86568 0.24263 0.81346 0.2995 0.75043 0.36944 0.67863 0.45383 0.77246 0.74328 0.51448 0.69287 0.49356 0.90131 0.32977 0.80908 0.29284 0.94477 0.26933 1.1614 0.83761 4.7983 0.5179 2.3288 0.41458 1.5645 0.7348 2.28 2.7588 7.8045 0.64152 1.9859 0.36151 1.2827 0.26056 1.0977 0.20732 1.0646 0.20639 1.5257 0.042632 1.1228-0.07676 0.77138-0.20507 0.71074-0.64086 1.0138-0.94619 0.8959-1.153 0.82221-2.6012 1.5766-1.3049 0.82685-1.2158 0.90298-1.0538 1.0221-0.7787 1.0624-3.0343 5.3759-0.64712 1.3175-0.46706 1.0975-0.40807 1.1266-0.26653 0.87989-0.2245 0.88939-0.22421 1.1364-0.15898 1.1334-0.098145 1.1175-0.04782 1.0906-0.007818 1.1746 0.073236 2.6079-0.006793 0.9892-0.051552 0.46679-0.14227 0.39344-0.16357 0.11299-0.21305-0.005183-0.35724-0.11223-0.72154-0.30645-1.113-0.65229-0.4987-0.23023-0.54115-0.14821-0.53549-0.025497-0.78513 0.16027-0.79376 0.36276-0.75859 0.54191-0.67705 0.70578-0.35165 0.50266-0.28313 0.51066-0.39224 1.0134-0.20438 1.1026-0.018757 0.63146 0.12636 1.2178 0.24419 1.0764 0.35402 1.0908 0.66994 1.5201 0.60252 1.0707 0.49566 0.78373 2.66 3.94 0.67121 1.1433 0.47019 0.93142 0.36931 0.84955 0.42844 1.1542 0.52936 1.7001 0.23052 0.87938 0.14297 0.67232 0.12885 0.82692 0.11459 1.36 0.007075 0.75018-0.17237 3.699-0.029972 1.7792 0.054721 1.8911 0.074437 1.0697 0.10422 1.04 0.16975 1.2476 0.18245 1.0368 0.19293 0.88711 0.23525 0.82188 0.19284 0.30837-0.18311 0.033551-0.27166-0.025097-1.8043-0.37468-0.66147-0.19224-1.4546-0.50758-0.32337-0.085119-0.32622-0.044277-0.31515 0.016235-0.48175 0.093555-2.3052 0.66277 0.14739 0.10614 0.048439 0.26668 0.003492 0.28813-0.14823 1.2529-0.23254 1.1162-0.56156 2.1649-0.53173 1.7989-1.4109 4.2806-0.33169 1.1189-0.27285 1.0785-0.24181 1.213-0.10912 0.85262-0.017756 0.79955 0.15414 0.96759 0.36347 0.85587 0.3032 0.42749 0.50078 0.49011 0.59551 0.39675 0.24042 0.12217 0.79631 0.29841 0.85585 0.18882 0.91005 0.093637 1.3967 0.012161 3.0905-0.14987 0.68332 0.027762 0.60979 0.085779 0.7822 0.2975 0.29889 0.27226 0.18429 0.33377 0.063177 0.50119-0.2394 0.70565-0.38861 0.48393-0.64219 0.57651-1.5974 1.2862-0.61981 0.55422-0.60391 0.60873-0.90986 1.1271-0.73492 1.2382-0.55288 1.3941-0.30326 1.3851-0.085445 1.0112 0.021127 1.0291 0.11384 0.96285 0.19554 0.96695 0.49043 1.6578 0.58135 1.5698 1.5465 3.9169 1.8278 4.7998 2.1576 5.3549 0.7502 2.1795 0.3119 1.1352 0.23274 1.1184 0.12935 1.022 0.031145 0.96229-0.063392 0.84875-0.12438 0.66948-0.15104 0.51819-0.46703 1.0279-0.47507 0.73375-0.38403 0.4849-0.40465 0.44025-0.82747 0.7508-0.81109 0.61539-1.3229 0.8528-0.83486 0.4679-0.85563 0.43275-1.4813 0.64609-1.115 0.40111-1.5409 0.44356-1.0107 0.22683-0.87638 0.1362-0.72554 0.057364-1.6972 0.002259-1.144 0.063776-0.98922 0.18252-1.1543 0.36526-0.80727 0.34924-0.88768 0.481-0.87631 0.58514-2.7345 2.1479-1.1931 0.79336-1.37 0.75167-0.77392 0.37-0.97388 0.42531-1.1049 0.43248-0.98492 0.32649-0.74901 0.21052-1.5224 0.35667-4.3619 0.87738-5.7084 1.0501-1.9031 0.41485-1.4769 0.38304-1.4928 0.46831-0.84571 0.31113-1.4422 0.60408-4.8684 2.2691-1.6356 0.69499-1.6741 0.60074-0.88387 0.258-0.92117 0.22576-2.5341 0.54821-1.094 0.27155-3.4469 0.90336-3.912 0.78632-1.3423 0.37178-1.0219 0.3756-0.54174 0.26978-0.28721 0.28496-1.0469-0.32016-0.61725-0.13644-1.2594-0.20104-1.9189-0.1557-0.71982-0.0164-1.2676 0.034362-1.1616 0.11286-0.60253 0.092379-1.0339 0.22087-0.97924 0.29582-2.3001 0.90994-0.63598 0.2094-0.90853 0.2089-0.46108 0.059453-0.88746 0.026461-2.5034-0.24561-0.89233-0.014744-0.77689 0.062322-0.67088 0.13311-0.44691 0.1259-0.81382 0.29551-0.85056 0.40836-2.3092 1.3986-0.92376 0.49708-1.0812 0.45888-0.72495 0.2003-0.41656 0.061175-0.418 0.013763-0.36403-0.031072-0.36291-0.069118-0.67734-0.21677-2.8586-1.2864-0.9595-0.30627-0.58186-0.080449-0.37052 0.022561-0.15105 0.055187-0.062344 0.092889-0.067606-0.099922-0.50688-0.41994-1.3331-0.97097-1.3855-0.89448-2.2974-1.3525-1.1681-0.62415-1.7854-0.87162-5.0882-2.2343-0.76133-0.39208-0.57594-0.3434-0.73862-0.51766-0.67125-0.55625-0.72623-0.67898-1.424-1.4713-0.7971-0.73587-0.71562-0.51901-0.37424-0.2061-0.49294-0.19532-0.47658-0.108-0.62888-0.046146-0.79064 0.061002-1.0282 0.23105-0.85252 0.29471-0.82825 0.36336-0.80184 0.41973-0.74966 0.45216-1.2361 0.86336-1.4881 1.1521-4.3868 3.5051-0.72294 0.5428-0.71091 0.50294-1.1898 0.73938-0.71079 0.3524-0.89636 0.30096-0.68492 0.090892-0.65054-0.062184-0.67982-0.27477-0.41524-0.28578-0.56555-0.54331-0.54788-0.70613-0.56942-0.94231-0.65169-1.3977-0.34162-0.92479-0.4613-1.572-0.89641-3.7334-0.3716-1.358-0.54538-1.6082-0.77111-1.856-0.95731-1.9352-0.59573-1.1047-1.6894-2.8477-0.63918-1.1576-0.78094-1.6268-0.53795-1.3579-0.42708-1.374-0.33011-1.6422-0.095613-1.4085 0.11829-1.5392 0.68025-3.6927 0.14707-1.1907 0.057832-0.81136 0.016754-1.0119-0.058263-1.1939-0.094728-0.62786-0.091118-0.31298-0.1685-0.29459-0.27012-0.12262-0.2576 0.10621-0.37863 0.45769-0.25832 0.58798-3.2252-5.8824-2.1109-3.6527-3.7333-5.9934-1.1619-1.7159-0.57811-0.78132-0.60266-0.75588-0.96701-1.084-0.8357-0.81513-0.94721-0.81349-0.88258-0.68347-1.3312-0.94803-3.861-2.532-0.76938-0.56504-0.72024-0.62355-0.41664-0.43856-0.41079-0.50819-0.69471-1.0536-0.27737-0.51484-0.38578-0.83167-0.53487-1.4653-0.21683-0.79964-0.14832-0.71091-0.090753-0.60071-0.077417-0.85531-7.01e-4 -1.2529 0.14796-1.4648 0.29066-1.4378 0.48285-1.7856 1.9784-6.6551 0.3935-1.229 0.38755-1.0169 0.41835-0.83874 0.38822-0.57959 0.44864-0.50791 0.27086-0.24769 0.5232-0.39233 0.78118-0.43816 0.91836-0.34817 0.37626-0.075564 0.10978 0.019155 0.058764-0.12433 0.30637-0.14796 0.53498-0.090602 0.72633-0.018029 1.0107 0.089543 0.99794 0.17581 0.86719 0.20098 1.5 0.42974 3.685 1.2949 4.9261 1.6278 1.3798 0.5304 1.5946 0.6854 4.3698 2.0615 2.9045 1.2209 1.4131 0.66096 0.98214 0.5354 3.1957 1.9819 1.806 1.0615 1.3545 0.68608 1.0957 0.4683 0.70316 0.25629 1.0924 0.3302 1.5275 0.3282 1.4166 0.16804 1.5015 0.010461 1.2065-0.16911 0.8516-0.273 0.71194-0.38672 0.32163-0.23865 0.42924-0.39527 0.41992-0.48856 0.33274-0.48689 0.25982-0.47051 0.4437-1.1045 0.20524-0.69599 0.24168-0.98492 1.3706-6.2423 0.50101-1.9734 0.39462-1.302 0.39735-1.0609 0.45084-0.95523 0.50746-0.85992 0.45826-0.63958 0.46394-0.55104 0.65007-0.65 1.0595-0.85049 0.80637-0.5147 0.85485-0.45 1.1184-0.48268 2.1693-0.76404 4.204-1.2904 3.5507-1.1625 3.2477-1.0111 1.0167-0.34332 1.7956-0.72145 0.96591-0.45864 1.7981-0.93364 1.5914-0.88403 0.97633-0.60064 0.4033-0.28698 0.44145-0.37472 0.35646-0.42152 0.11114-0.23522-0.063644-0.28907-0.096416-0.011307-0.16128-0.23023-0.17391-0.41538-0.21307-0.69868-0.26075-1.1245-0.58073-2.9348-0.28071-1.0699-0.43768-1.32-0.57313-1.3146-0.63676-1.0959-0.36962-0.50755-0.48929-0.56741-0.59707-0.57353-0.4805-0.39205-0.8059-0.56194-0.99609-0.59316-0.77968-0.42108-0.92473-0.46507-1.1941-0.53576-1.3392-0.49849-1.6667-0.54126-1.1819-0.42132-0.91821-0.4136-0.73025-0.44576-0.83746-0.72345-0.58249-0.73022-0.30127-0.51555-0.33253-0.7823-0.095459-0.30011-0.14614-0.60924-0.064675-0.41458-0.048784-1.0632 0.065339-0.81194 0.12704-0.74827 0.25407-1.0132 0.26314-0.82028 0.27556-0.73576 0.6654-1.4951 0.62401-1.182 0.7446-1.2298 0.65994-0.97465 0.89802-1.2161 2.6561-3.381 1.2498-1.6985 0.62742-0.97452 0.36323-0.63606 0.3439-0.67568 0.5185-1.1986 0.50355-1.4075 0.38837-1.2619 0.33929-1.2606 0.29031-1.2485 0.27802-1.4118 0.20411-1.2104 0.12978-1.1765 0.017438-2.4454 0.047377-1.2339 0.18233-1.247 0.35396-1.3867 0.49961-1.3961 0.37604-0.85904 0.42286-0.85365 0.62253-1.1166 0.68241-1.102 0.97402-1.4383 2.8174-3.8661 0.72142-1.0317 0.6643-1.0272 0.58228-1.0261 0.60606-1.3928 0.31898-1.4043 5.5e-5 -1.1406-0.18771-1.1555-0.31925-1.1733-1.876-5.3205-0.83065-2.5758-0.48169-1.2485-1.5886-3.7423-0.85816-2.3523-0.36708-1.19-1.2419-4.6561-0.26744-0.88256-0.53023-1.5402-0.23839-0.60136-0.82682-1.7607-0.98362-1.6698-0.9094-1.2706-0.72313-0.8704-0.67848-0.74234-2.0556-2.0872-0.60525-0.66475-0.49563-0.65699-0.22405-0.43335-0.031388-0.35675 0.12934-0.10889 0.24684-0.07662 0.61339-0.44473 0.52365-0.43564 1.2974-1.2236 0.7314-0.77311 1.5157-1.7847 3.5246-4.6638 1.2054-1.4428 0.73788-0.73339 0.6731-0.5188 0.52203-0.29921 0.52402-0.20923 0.43557-0.099813 0.42756-0.024712 0.7725 0.14973 0.39973 0.15434 0.57031 0.30247 1.5891 1.0304 3.4749 2.1195 2.2111 1.4357 2.9439 1.8279 2.5789 1.6907 0.64643 0.33314 0.66504 0.22917 0.56924 0.089017 0.58857 0.004213 0.83489-0.11575 0.85368-0.23726 0.75029-0.29178 0.7539-0.36108 0.78735-0.4417 1.4203-0.93149 1.7552-1.3504 0.55104-0.47751 1.0477-1.002 1.2501-1.3388 1.6997-1.9118 2.7884-3.4089 0.41611-0.46017 0.18689-0.13245 0.16749 0.33226 0.61433 0.3291 0.50252 0.14705 1.3248 0.22433 2.8163 0.31191 2.4281 0.47917 1.1587 0.16728 1.0349 0.1075" stroke="#bdc660"/>
    </defs>
    <g clip-path="url(#pfedbe24064)">
     <use y="280.512" fill="#bdc660" stroke="#bdc660" xlink:href="#m4cb6456b8a"/>
    </g>
   </g>
  </g>
 </g>
 <defs>
  <clipPath id="pfedbe24064">
   <rect x="7.2" y="7.2" width="220.1" height="266.11"/>
  </clipPath>
 </defs>
</svg>
