<?xml version="1.0" encoding="UTF-8"?>
<!DOCTYPE svg  PUBLIC '-//W3C//DTD SVG 1.1//EN'  'http://www.w3.org/Graphics/SVG/1.1/DTD/svg11.dtd'>
<svg width="154.12pt" height="280.51pt" version="1.1" viewBox="0 0 154.12 280.51" xmlns="http://www.w3.org/2000/svg" xmlns:xlink="http://www.w3.org/1999/xlink">
 <metadata>
  <rdf:RDF xmlns:cc="http://creativecommons.org/ns#" xmlns:dc="http://purl.org/dc/elements/1.1/" xmlns:rdf="http://www.w3.org/1999/02/22-rdf-syntax-ns#">
   <cc:Work>
    <dc:type rdf:resource="http://purl.org/dc/dcmitype/StillImage"/>
    <dc:date>2024-07-04T12:11:07.356388</dc:date>
    <dc:format>image/svg+xml</dc:format>
    <dc:creator>
     <cc:Agent>
      <dc:title>Matplotlib v3.7.1, https://matplotlib.org/</dc:title>
     </cc:Agent>
    </dc:creator>
   </cc:Work>
  </rdf:RDF>
 </metadata>
 <defs>
  <style type="text/css">*{stroke-linejoin: round; stroke-linecap: butt}</style>
 </defs>
 <g id="figure_1">
  <g id="patch_1">
   <path d="m0 280.51h154.12v-280.51h-154.12v280.51z" fill="none"/>
  </g>
  <g id="axes_1">
   <g id="PatchCollection_1">
    <defs>
     <path id="mccf7475234" d="m76.044-255.52 1.111 0.071913 1.9668-0.093811 1.5932-0.18371 1.523-0.11922 1.4431 0.10172 1.1746 0.36981 1.0835 0.60875 0.96862 0.80428 0.82222 0.96848 0.59763 0.98244 1.1156 2.3058 0.53778 1.3148 0.41136 1.2819 0.33873 1.3257 0.28515 1.3426 0.46321 2.6768 0.13957 1.2934 0.008907 1.2289-0.07807 0.7081-0.092743 0.49994-0.33643 1.1399-0.40328 0.97496-0.53438 0.88269-0.52982 0.5941-0.89584 0.75415-0.80126 0.55517-1.8894 1.2041-0.42138 0.32271-0.44612 0.4183-0.28094 0.344-0.35469 0.6499-0.15776 0.45595-0.15592 0.72683-0.07588 0.90815 0.022606 0.50572 0.032129 0.25051 0.30872 1.0936 0.5141 1.0598 0.63319 0.9941 0.63984 0.8895 0.44321 0.67726 0.55872 0.9955 0.40734 1.0333 0.13868 1.0615-0.22351 1.0858-0.16917 0.41477-0.47128 0.89657-0.59875 0.93226-1.2726 1.7048-1.2386 1.4982-1.4544 1.6034-0.65368 0.65788-1.1614 1.0808-2.8166 2.4882-0.75875 0.85889-0.297 0.54001-0.2278 0.82236-0.079921 0.87598-0.080479 1.8335-0.13982 0.86557-0.331 1.4227-0.16534 0.55404-0.35175 0.82697-0.41219 0.73083-0.76101 1.128-0.10742 0.23257-0.06391 0.30399 0.064234 0.5844 0.25822 0.63813 0.53653 0.87344 0.47062 0.62455 0.54469 0.63628 0.7235 0.74153 0.86381 0.76489 1.71 1.3746 1.1193 0.84104 1.1438 0.76633 2.5648 1.4591 2.8707 1.4179 1.7244 0.92655 0.93171 0.63017 0.85824 0.70791 1.0914 1.0435 1.0219 0.89667 1.3689 0.99795 1.0033 0.55245 1.0623 0.38929 1.2938 0.21897 1.3634 0.10478 1.4423 0.17034 0.90965 0.20441 0.71375 0.21548 1.0227 0.38038 1.0944 0.48277 1.0176 0.50426 1.4688 0.80346 2.2165 1.3827 1.2946 0.90792 1.417 1.0696 2.9978 2.4484 4.7302 4.0719 0.19321 0.4281 0.22205 1.038 0.2169 1.41 0.17453 1.6156 0.099245 1.7046-0.006817 1.7105-0.13401 1.7702-0.17265 1.6823-0.085954 1.5805 0.13028 1.4682 0.3222 1.082 0.47072 1.0296 1.4594 2.6382 0.43589 0.96165 0.31424 0.99813 0.17672 1.2908 0.004144 1.3366-0.19671 2.6982-0.055227 1.3077 0.071297 1.2425 0.27765 1.1458 0.57797 1.0738 0.80786 0.9447 0.50872 0.47089 2.0801 1.762 0.65727 0.60094 3.6128 3.4921 1.2548 1.1251 1.2851 1.0312 1.3161 0.88192 1.3164 0.69308 1.2719 0.60703 1.1464 0.63778 0.92891 0.78753 0.47625 0.70702 0.31099 0.81929 0.14978 0.96878-0.01141 1.043-0.17008 1.2339-0.19503 0.87429-0.31458 1.1037-0.50078 1.4007-0.75993 1.6943-0.8988 1.8669-0.5046 1.2233-1.2946 3.7234-0.48107 1.1437-0.35438 0.60306-0.64396 0.77562-0.21823 0.20028-0.37262 0.27093-0.55165 0.27-0.60611 0.18158-0.84756 0.1141-1.0124 0.038436-1.3938-0.053237-1.0939-0.097208-4.0784-0.64061-2.7741-0.26167-1.4242-0.1886-1.6043-0.34745-4.766-1.3595-2.1912-0.55152-0.95402-0.19054-1.1219-0.16833-0.93318-0.081081-1.3071 0.004591-1.0218 0.12932-0.63521 0.15261-0.22358 0.069513-1.302 0.59191-1.1229 0.7924-0.89562 0.87695-0.59258 0.81798-0.15506 0.35192-0.026881 0.15939 0.02529 0.12533-0.043686 0.029459 0.032851 0.22706 0.15461 0.33347 0.31591 0.48819 0.40399 0.52489 0.81954 0.9225 0.91338 0.90341 4.6083 4.2695 2.6997 2.4276 1.2257 1.2099 0.7765 0.87279 0.7347 0.90942 1.2904 1.7595 1.4423 2.1041 1.2209 1.8481 1.9218 3.0785 1.1535 1.9787 0.52256 1.0811 0.27085 0.65577 1.2851 3.4708 0.52507 1.3128 0.51819 1.1626 0.8285 1.6168 0.80489 1.261 0.7259 0.83531 0.40599 0.38799 0.7727 0.64982 0.93222 0.70107 3.7275 2.6432 0.55805 0.44743 0.52057 0.6393 0.22309 0.55849 0.1686 1.0325 0.033826 1.0279-0.049921 2.6017 0.02416 0.91668 0.18188 1.5098 0.34749 1.5433 0.49103 1.5423 1.2142 3.0806 0.62018 1.6687 0.40976 1.3136 0.30786 1.2698 0.22037 1.3417 0.093024 1.3012-0.049965 1.039-0.13475 0.74196-0.44057 1.1602-0.35993 0.57359-0.43488 0.50015-0.664 0.52805-0.84829 0.44945-0.47538 0.18116-0.65437 0.1969-0.69092 0.16469-0.70851 0.11543-1.0283 0.060383-2.4957-0.056555-1.3961 0.069919-0.63802 0.11793-0.66108 0.18575-1.0804 0.46052-0.82805 0.44734-2.2378 1.3141-1.0385 0.73352-1.2943 1.1647-1.2586 1.3858-1.2229 1.5482-1.179 1.6506-1.1156 1.6832-1.0169 1.625-1.7045 2.9143-0.11255-0.24705-0.45578-0.55692-0.68541-0.75251-1.6378-1.6423-0.92582-0.86514-1.2094-1.073-1.2381-1.041-3.2362-2.5727-0.95777-0.79767-0.77429-0.70896-0.67523-0.72415-0.62647-0.89648-0.37011-0.84638-0.23108-0.89593-0.11967-0.87098-0.048809-0.88077 0.023195-2.1177-0.021997-0.98434-0.26505-2.147-0.032855-1.0486 0.10596-1.0733 0.26788-1.0529 0.43576-0.9946 1.0297-1.8988 0.38773-0.95144 0.097105-0.38548 0.079372-0.68694-0.019938-0.66314-0.10578-0.63668-0.23993-0.71532-0.35243-0.60063-0.31539-0.32933-0.36992-0.22663-0.56381-0.1231-0.64526 0.026154-2.3222 0.39487-0.86402 0.085951-3.4589 0.066076-1.0951-0.0445-1.0296-0.10695-1.1528-0.16643-2.4157-0.47673-2.802-0.31032-1.3181-0.22319-0.49996-0.1463-0.6112-0.32742-0.16664-0.33057-0.035668-0.27861-0.15279-0.55361-0.59406-1.9043-0.32802-1.1615-0.22228-0.95086-0.17992-0.96246-0.15325-1.1351-0.067787-0.84217-0.012202-0.95926 0.048658-0.94015 0.22012-1.8025 0.40398-2.1053 0.19006-0.81177 0.54192-1.7172 0.19842-0.79866 1.4662-7.486 1.2668-5.0586 0.63579-2.7228 0.65512-3.0422 0.58068-3.1533 0.15831-1.0558 0.21051-1.9022 0.19683-3.4392 0.003168-0.65784-0.057007-0.5464-0.13561-0.60865-0.16627-0.45417-0.1513-0.20822-0.099235-0.17824-0.7351-1.0125-3.9291-5.0824-1.6832-2.1254-0.772-1.0806-0.38128-0.67042-0.27408-0.69554-0.13836-0.74699-0.10275-1.4979-0.13782-0.73798-0.23494-0.61483-0.32815-0.61111-0.3193-0.50256-0.35314-0.50572-0.89375-1.1615-1.1041-1.2593-0.7865-0.7672-0.74863-0.63028-0.48342-0.35507-0.50246-0.32778-0.80232-0.44154-1.0397-0.44064-0.78986-0.24914-0.66944-0.16296-1.6556-0.2638-1.6298-0.13176-2.1236-0.069806-2.2983-0.026848-3.9718 0.03866-2.0976-0.01769-1.2571-0.095449-0.64644-0.11903-0.5739-0.19835-0.25024-0.13807-0.40056-0.3493-0.26566-0.39969-0.12691-0.37969 0.030987-0.28423 0.080086-0.04134-0.078749-0.49744-0.34166-0.87656-0.46868-1.0222-0.47682-1.1949-0.3086-1.1235-0.26222-1.5875-0.11662-1.514-0.00168-1.9748 0.082046-1.3053 0.14349-1.3034 0.19928-1.2893 0.21611-1.1445 0.53079-2.3816 0.5669-2.1766 0.51407-1.7652 0.43754-1.3689 0.32803-0.91079 1.0783-2.374 0.56954-1.331 0.39499-1.1436 0.26458-1.1419 0.10742-1.0973 0.015739-2.5035-0.12366-1.3929-0.16943-0.80875-0.16393-0.55174-0.552-1.2848-0.44598-0.69953-0.53359-0.67614-0.97445-1.0322-0.77258-0.73122-5.1065-4.4493-1.7298-1.6347-1.0024-0.8978-0.95871-0.68442-0.96204-0.53675-1.6841-0.77404-0.91769-0.53493-0.56321-0.47414-0.18687-0.21679-0.27708-0.44258-0.31084-1.0948-0.047274-1.3183 0.14176-1.4801 0.27047-1.5925 1.1096-5.0788 0.3283-1.6908 0.23279-1.6411 0.082073-1.559-0.1011-1.1847-0.30118-1.0771-0.48425-1.054-0.63276-1.0326-0.63034-0.8568-0.70435-0.83998-0.99819-1.0484-1.094-1.0055-0.93136-0.75889-0.86824-0.64155-1.1776-0.80112-1.2168-0.77618-4.6312-2.8401-2.2087-1.4637-1.3758-0.98963-1.049-0.79954-1.9041-1.567-0.86245-0.77336-0.81028-0.78173-1.1557-1.2653-0.9343-1.2781-0.58955-1.1558-0.14412-0.43242-0.10578-0.50772-0.030412-0.41759 0.012144-0.35175 0.2647-1.2407 0.50292-1.1956 0.61995-1.0773 0.46836-0.68326 0.51845-0.67222 0.9095-1.0242 0.75107-0.73412 1.1564-0.98489 0.73031-0.54685 3.3638-2.1524 3.2101-2.1341 5.2132-3.6278 5.0547-3.6335 3.3129-2.4536 2.9476-2.2666 1.1465-0.93512 0.74917-0.67792 0.16763-0.25797 0.33176-0.20489 0.59481-0.62126 1.5267-1.8213 0.64268-0.85796 0.63713-0.93767 0.73711-1.226 1.0883-2.1308 1.5135-3.471 0.64022-1.3866 0.68342-1.3255 0.65892-1.1155 0.54315-0.79816 0.43499-0.55952 0.67259-0.72363 0.52347-0.44469 0.38142-0.25978 0.69836-0.34039 0.96725-0.21902 1.038-0.011367 0.90913 0.11933 0.93865 0.2141 1.2233 0.37962 1.126 0.42012 1.504 0.6298 4.4697 1.9913 1.0573 0.4279 1.4084 0.50858 1.1939 0.36778 0.84977 0.22154 1.7084 0.33142 0.69142 0.086552" stroke="#bdc660"/>
    </defs>
    <g clip-path="url(#p757d411c03)">
     <use y="280.512" fill="#bdc660" stroke="#bdc660" xlink:href="#mccf7475234"/>
    </g>
   </g>
  </g>
 </g>
 <defs>
  <clipPath id="p757d411c03">
   <rect x="7.2" y="7.2" width="139.72" height="266.11"/>
  </clipPath>
 </defs>
</svg>
