<?xml version="1.0" encoding="UTF-8"?>
<!DOCTYPE svg  PUBLIC '-//W3C//DTD SVG 1.1//EN'  'http://www.w3.org/Graphics/SVG/1.1/DTD/svg11.dtd'>
<svg width="208.26pt" height="280.51pt" version="1.1" viewBox="0 0 208.26 280.51" xmlns="http://www.w3.org/2000/svg" xmlns:xlink="http://www.w3.org/1999/xlink">
 <metadata>
  <rdf:RDF xmlns:cc="http://creativecommons.org/ns#" xmlns:dc="http://purl.org/dc/elements/1.1/" xmlns:rdf="http://www.w3.org/1999/02/22-rdf-syntax-ns#">
   <cc:Work>
    <dc:type rdf:resource="http://purl.org/dc/dcmitype/StillImage"/>
    <dc:date>2024-07-04T12:11:10.300079</dc:date>
    <dc:format>image/svg+xml</dc:format>
    <dc:creator>
     <cc:Agent>
      <dc:title>Matplotlib v3.7.1, https://matplotlib.org/</dc:title>
     </cc:Agent>
    </dc:creator>
   </cc:Work>
  </rdf:RDF>
 </metadata>
 <defs>
  <style type="text/css">*{stroke-linejoin: round; stroke-linecap: butt}</style>
 </defs>
 <g id="figure_1">
  <g id="patch_1">
   <path d="m0 280.51h208.26v-280.51h-208.26v280.51z" fill="none"/>
  </g>
  <g id="axes_1">
   <g id="PatchCollection_1">
    <defs>
     <path id="mc41e15dec4" d="m70.113-255.2 0.94311 0.14831 0.86598-0.00158 0.87873-0.11051 0.92762-0.20302 0.69423-0.19945 2.1997-0.7619 1.2389-0.4003 0.98113-0.27839 1.0007-0.25612 3.4601-0.77958 1.6143-0.39461 0.76869-0.23726 0.42153-0.18026 0.13675-0.11813 0.19993 0.12419 0.29439 0.36978 0.3801 0.61468 0.37498 0.76871 0.31634 0.88086 0.24352 1.0767 0.14916 1.0798 0.094375 1.241 0.015198 0.56643-0.018381 1.0779-0.20538 3.229-0.028633 1.2744 0.027815 0.76956 0.055933 0.64173 0.086483 0.62978 0.14928 0.76994 0.83262 3.3715 0.22752 0.82361 0.22892 0.69667 0.46784 1.2105 0.60472 1.3787 0.46057 0.9312 0.43132 0.7668 0.71479 1.1789 0.42322 0.64951 0.37074 0.51118 0.58446 0.68502 0.49528 0.47627 0.51213 0.4086 0.67247 0.43326 1.7161 0.91837 0.59368 0.34662 0.45464 0.33453 0.15974 0.14275 0.23376 0.24296 0.25784 0.32328 0.34914 0.55081 0.31168 0.69207 0.10016 0.34595 0.040628 0.23466 0.011713 0.35124-0.034365 0.28308-0.065313 0.25969-0.15229 0.39035-0.20314 0.38771-0.83899 1.3045-0.2989 0.52306-0.26486 0.59013-0.24829 0.76988-0.20441 0.90204-0.25928 1.4507-0.19835 0.94624-0.26721 0.91046-0.53029 1.5028-0.14886 0.4952-0.12023 0.5337-0.080982 0.60232-0.027123 0.61347 0.033293 0.68218 0.10043 0.68154 0.13931 0.57081 0.19156 0.56034 0.31661 0.67756 0.42999 0.70554 0.37798 0.52251 0.41341 0.51199 0.63256 0.70973 0.6765 0.69716 0.8605 0.82883 0.89616 0.81367 1.5261 1.2858 0.85923 0.6595 0.97466 0.67427 1.0101 0.59892 1.0528 0.49472 1.1057 0.35248 1.1211 0.17466 1.1716 0.035343 1.2125-0.074276 1.2434-0.15979 1.2623-0.22529 1.2649-0.27326 2.3892-0.60904 2.5608-0.72897 0.22592-0.029636 0.22782-0.097636 0.56488-0.15043 0.76072-0.15863 0.85272-0.12995 0.96494-0.075623 0.89849 0.026502 0.76242 0.15582 0.56304 0.31426 0.32552 0.51256 0.092819 0.66826-0.095521 0.77862-0.24827 0.85042-0.37561 0.89029-0.48734 0.90355-0.37838 0.59211-0.72499 0.97642-0.80894 0.95485-0.86545 0.93639-0.90085 0.92021-3.6357 3.5133-1.5975 1.5914-0.656 0.71548-0.50616 0.634-0.29889 0.52223-0.016695 0.37049 0.32568 0.18664 0.60555 0.035765 0.8088-0.074674 0.95383-0.15496 1.055-0.21334 1.1232-0.25644 2.3584-0.607 1.008-0.2886 1.0062-0.32052 1.2491-0.46555 1.0837-0.46822 1.0698-0.50706 3.1731-1.6035 1.9034-0.90092 1.196-0.49787 1.2102-0.45322 1.2209-0.4128 1.2289-0.37318 1.2351-0.33084 1.0461-0.24138 1.4994-0.26975 1.1243-0.13704 0.9818-0.08033 2.5529-0.11331 1.0567-0.070013 1.0522-0.1131 1.1945-0.2007 1.1679-0.28622 0.88405-0.29077 0.85183-0.35695 0.47398-0.23935 0.99197-0.60901 0.63102-0.46422 0.90889-0.77162 0.47578-0.46004 0.45204-0.49656 0.28995-0.35559 0.59981-0.80193 1.2938-1.8913 0.75423-1.2327 1.0235-1.781 0.62721-1.0103 0.4776-0.71624 0.76207-1.0591 0.54895-0.71068 0.27409-0.332 0.59884-0.65306 0.64185-0.58628 0.68945-0.5007 0.45747-0.26225 0.59537-0.27452 0.60959-0.22923 2.6269-0.84201 0.46828-0.17756 0.19505-0.11441 1.381 1.8812 1.1023 1.5579 1.2938 1.9634 0.61708 1.0107 1.0813 1.9018 0.9148 1.7365 0.80894 1.635 1.1445 2.4314 0.7687 1.7566 0.32896 0.83228 0.22669 0.66737 0.16754 0.70325 0.063989 0.69685-0.034869 0.80166-0.11983 0.76795-0.19232 0.73011-0.2647 0.67784-0.26182 0.51961-0.32252 0.53692-0.28502 0.41838-0.71152 0.90189-1.7705 1.9978-0.88992 1.0545-0.59647 0.79422-0.60368 0.93999-0.35813 0.69948-0.15396 0.35727-0.36654 1.0267-0.28457 1.0169-0.46813 1.9964-0.20064 0.6943-0.13543 0.37578-0.13737 0.31584-0.25818 0.45538-0.24638 0.3167-0.14272 0.14665-0.25982 0.21589-0.36383 0.23073-0.46865 0.22093-0.48692 0.16752-0.47538 0.11778-0.81945 0.12844-0.53266 0.051365-3.9134 0.28164-0.55188 0.014287-0.71052-0.025809-0.55808-0.051028-1.6202-0.23322-0.717-0.08301-0.63147-0.023687-0.55992 0.018355-1.3965 0.11823-2.31 0.33341-0.90737 0.16469-1.1793 0.31364-1.3487 0.47922-0.53174 0.22579-0.71784 0.35422-0.58141 0.33528-0.60728 0.38796-1.0078 0.72489-0.47514 0.38416-0.63396 0.55333-0.877 0.85657-0.58514 0.66856-0.32458 0.41692-0.32738 0.46441-0.29547 0.4764-0.29532 0.5678-0.20068 0.48466-0.13233 0.40762-0.099591 0.40928-0.072155 0.47149-0.025237 0.47814 0.010841 0.40335 0.058626 0.61494 0.15545 0.92346 0.35117 1.4618 0.73324 2.69 0.18898 0.92269 0.096455 0.73935 0.13793 1.7662 0.24823 4.512 0.4241 6.4106 0.14387 3.5048 0.029344 1.2774-0.005187 0.78831-0.038317 0.80477-0.1017 0.93966-0.20532 1.279-0.14731 0.76802-0.26776 1.2217-0.35117 1.3931-0.46058 1.6179-0.5114 1.5865 0.083609-0.061748 0.28782-0.13837 0.72374-0.28589 0.57387-0.18908 0.62383-0.16661 1.025-0.16818 1.0219 0.002556 0.56923 0.098464 0.68055 0.20124 0.58336 0.22596 0.78691 0.38557 0.81273 0.50915 0.74995 0.55619 0.86345 0.71712 0.78256 0.69113 0.90052 0.84492 0.77514 0.83042 0.50978 0.63544 0.34864 0.50529 0.21091 0.41253 0.13436 0.37201 0.084926 0.33053 0.03949 0.26759 0.003945 0.33881-0.066685 0.42277-0.1464 0.48106-0.65736 1.717-0.20835 0.7859-0.092009 0.62519-0.025067 0.39777 0.010576 0.54902 0.092127 0.61093 0.098228 0.3456 0.10098 0.26632 0.31007 0.59774 0.25235 0.37745 0.38747 0.49335 0.55081 0.57098 0.34325 0.29325 0.60268 0.4343 0.50035 0.31074 1.4773 0.84771 0.75258 0.45552 0.72331 0.4949 0.64106 0.49953 0.76748 0.67863 0.53995 0.52652 0.80163 0.85144 0.52411 0.60499 0.56895 0.71459 0.41919 0.58294 0.51279 0.79067 0.3914 0.68112 0.59625 1.1935 1.1454 2.7163 0.51495 1.1161 0.43061 0.82236 0.55281 0.92904 0.41686 0.62094 0.40111 0.5425 0.39853 0.49534 1.0218 1.1489 0.62445 0.63999 0.44652 0.42093 0.45014 0.38356 0.44098 0.32725 0.44753 0.2743 0.42811 0.19999 0.43712 0.13356 0.28056 0.045772 0.32514 0.017086 0.31044-0.016108 0.30749-0.04421 0.41624-0.10024 0.52009-0.18255 0.42049-0.18764 0.43105-0.22419 1.2681-0.76754 0.53318-0.25592 0.51346-0.10738 0.48875 0.044711 0.42634 0.20757 0.11286 0.099384 0.2442 0.32637 0.18924 0.41427 0.14015 0.45122 0.11672 0.47862 0.42576 2.0771 0.46077 1.9182 0.46172 1.6582 0.83453 2.7045 0.6052 2.1781 0.25828 1.0728 0.21468 1.0497 0.1578 1.0151 0.14889 1.319 0.086018 0.53276 0.10772 0.46329 0.36211 0.993 0.51552 0.99521 0.63374 0.99917 0.72067 1.0023 0.77769 1.0009 2.3295 2.857 0.61607 0.80447 0.4195 0.63523 0.1309 0.28229-0.016153 0.11353-1.5232 1.5978-0.266 0.25101-0.1842 0.14017-0.19722 0.095837-0.10428 0.022574-0.21958 0.007367-0.56439-0.056692-0.11107 8.83e-4 -0.21336 0.047947-0.21341 0.09193-0.32549 0.18386-1.0561 0.68882-0.21406 0.16296-0.50834 0.2685-1.3358 0.61727-3.3947 1.3786-1.0389 0.43852-1.7313 0.77911-2.3828 1.1696-1.7523 0.95828-1.5047 0.92264-0.87748 0.58498-1.6462 1.1818-2.6082 1.9555-1.3557 0.94707-0.6476 0.41724-1.007 0.59328-1.0378 0.53556-1.0285 0.45651-1.1419 0.44831-3.1445 1.1892-13.023 5.0151-2.3892 0.9513-2.3635 1.0008-1.1651 0.53261-1.1483 0.56505-1.0122 0.54051-0.99783 0.56784-0.98645 0.58904-1.9468 1.224-5.08 3.3696-1.0734 0.65808-1.0977 0.61051-1.0087 0.49438-1.0302 0.45367-1.0462 0.42408-2.1235 0.795-3.6742 1.3264-3.6144 1.386-4.8364 1.9442-4.7578 1.9551-2.1686 0.92949-2.0814 0.96358-1.7465 0.86962-4.1885 2.203-0.84036 0.42169-0.99051 0.46297-1.3955 0.57303-0.76262 0.26585-0.66645 0.18749-0.24632 0.012353-0.44155-0.051093-0.73634-0.14336-1.7042-0.39964-0.89515-0.24989-2.742-0.83472-0.86954-0.23694-0.86471-0.18564-0.8076-0.09516-1.129-0.011556-2.923 0.17572-1.3207 0.039511-5.1931-0.072612-1.9876 0.004912-1.3483 0.068184-0.33251 0.043954-0.18615 0.042268-0.067516 0.038515-14.353-24.276-5.097-8.4632-3.6536-6.1723-7.1393-11.892-5.378-9.0644-1.8565-3.0918-2.4397-3.9871-1.8763-2.9966-1.9177-2.9893-3.6558-5.5644-1.7072-2.7276-0.32626-0.57772-0.30748-0.72065-0.166-0.684 0.001235-0.60141 0.20652-0.46586 0.27613-0.21522 0.37122-0.14627 0.51094-0.10505 0.46732-0.047517 0.513-0.016241 0.50416 0.016645 0.41335 0.038032 0.48736 0.075515 0.47261 0.10956 0.7301 0.2487 0.48632 0.21699 0.40851 0.2132 0.77455 0.48664 2.2768 1.6884 0.79337 0.51215 0.91391 0.46631 0.94267 0.36343 0.94785 0.26085 0.92907 0.15114 0.88454 0.02605 0.81096-0.12381 0.70341-0.30917 0.44232-0.3773 0.37386-0.48557 0.31918-0.57296 0.36145-0.87454 0.30404-0.96732 0.26191-1.0347 0.23142-1.083 0.20969-1.1168 0.37838-2.2958 0.51737-3.5137 2.112-15.012 0.30138-2.461 0.13122-1.2951 0.1044-1.3077 0.066701-1.3184 0.014507-1.3249-0.056013-1.3231-0.14766-1.3078-0.24588-1.2502-0.32114-1.1895-0.35994-1.0879-0.35403-0.92267-0.28839-0.66157-0.1408-0.25842-3.5213-8.6198-2.9503-6.8554-3.7533-9.4131-0.38122-0.92026-0.16922-0.51199-0.082154-0.42624 0.00738-0.28603 0.026984-0.10658 0.087313-0.16565 0.11286-0.1228 0.402-0.35532 0.23117-0.30571 0.2492-0.51664 0.33122-0.91119 0.35865-1.2351 0.29836-1.4269 0.16195-0.6596 0.45612-1.497 0.13258-0.50146 0.098302-0.60959 0.061853-0.8161 2.1326-2.2028 2.6826-2.6371 1.1064-1.1719 1.1427-1.3329 1.1582-1.4143 1.5599-1.9785 1.3802-1.8601 0.94224-1.3405 0.98024-1.4847 0.55275-0.91638 0.59912-1.1141 0.40109-0.85504 0.31448-0.80253 0.1657-0.50865 0.18462-0.71246 0.12801-0.7107 0.070094-0.68134 0.024669-0.58688-7.15e-4 -0.29229-0.049482-0.69402-0.17486-0.83755-0.12119-0.37342-0.2728-0.62094-0.37994-0.62278-0.44464-0.53928-0.38644-0.3559-0.40576-0.28597-0.40763-0.20458-0.40743-0.11613-0.28436-0.021134-0.37454 0.057566-0.36199 0.15537-0.55099 0.40142-0.5885 0.50339-0.31173 0.23489-0.33175 0.20573-0.57187 0.2354-0.44626 0.081179-0.43885-0.018148-0.35331-0.10418-0.32223-0.18896-0.23646-0.22386-0.22585-0.32154-0.18266-0.38559-0.16518-0.53217-0.11427-0.59902-0.072514-0.7215-0.014259-1.097 0.027759-0.69266 0.053447-0.7159 0.11488-0.97368 0.17188-0.98844 0.21755-0.9258 0.26679-0.9084 0.35981-1.0135 0.38463-0.92871 0.67808-1.466 0.082565-0.21432-0.007213-0.082027 0.11914-0.054558 0.10927-0.22748 0.08938-0.39646 0.057626-0.50135 0.15409-2.4198 0.081035-0.61966 0.11713-0.60424 0.16061-0.58193 0.21358-0.5532 0.2457-0.47494 0.28296-0.45462 1.2653-1.8096 0.32267-0.51826 0.30232-0.52947 0.54534-1.0848 0.23999-0.55336 0.22887-0.60411 0.19229-0.61226 0.14686-0.62099 0.08128-0.52667 0.04577-0.5318 0.013248-0.53529-0.021237-0.60748-0.129-1.2196-0.21114-1.2219-0.28603-1.2463-0.34842-1.2732-0.38013-1.2828-2.8148-9.121 0.091062-0.001533 0.2218-0.089965 1.1081-0.60241 2.1953-1.3598 2.2739-1.4554 1.5001-1.0222 3.2085-2.3746 0.74932-0.52804 0.75116-0.49834 0.75262-0.46506 1.6575-0.91794 1.2049-0.61436 0.65417-0.29947 0.54948-0.22108 0.88069-0.31665 0.81153-0.21953 0.79927-0.10934 0.7799 0.042529 0.75714 0.22475 0.74775 0.36389 2.4316 1.4628 1.9388 1.1053 2.1917 1.1797 1.3794 0.6835 0.70544 0.3176 0.9259 0.36266 0.93238 0.27456" stroke="#bdc660"/>
    </defs>
    <g clip-path="url(#p4c33d52675)">
     <use y="280.512" fill="#bdc660" stroke="#bdc660" xlink:href="#mc41e15dec4"/>
    </g>
   </g>
  </g>
 </g>
 <defs>
  <clipPath id="p4c33d52675">
   <rect x="7.2" y="7.2" width="193.86" height="266.11"/>
  </clipPath>
 </defs>
</svg>
