<?xml version="1.0" encoding="UTF-8"?>
<!DOCTYPE svg  PUBLIC '-//W3C//DTD SVG 1.1//EN'  'http://www.w3.org/Graphics/SVG/1.1/DTD/svg11.dtd'>
<svg width="269.91pt" height="280.51pt" version="1.1" viewBox="0 0 269.91 280.51" xmlns="http://www.w3.org/2000/svg" xmlns:xlink="http://www.w3.org/1999/xlink">
 <metadata>
  <rdf:RDF xmlns:cc="http://creativecommons.org/ns#" xmlns:dc="http://purl.org/dc/elements/1.1/" xmlns:rdf="http://www.w3.org/1999/02/22-rdf-syntax-ns#">
   <cc:Work>
    <dc:type rdf:resource="http://purl.org/dc/dcmitype/StillImage"/>
    <dc:date>2024-07-04T12:11:11.725207</dc:date>
    <dc:format>image/svg+xml</dc:format>
    <dc:creator>
     <cc:Agent>
      <dc:title>Matplotlib v3.7.1, https://matplotlib.org/</dc:title>
     </cc:Agent>
    </dc:creator>
   </cc:Work>
  </rdf:RDF>
 </metadata>
 <defs>
  <style type="text/css">*{stroke-linejoin: round; stroke-linecap: butt}</style>
 </defs>
 <g id="figure_1">
  <g id="patch_1">
   <path d="m0 280.51h269.91v-280.51h-269.91v280.51z" fill="none"/>
  </g>
  <g id="axes_1">
   <g id="PatchCollection_1">
    <defs>
     <path id="med7ef7124c" d="m233.98-253.48 0.070198 0.03279 0.037393-0.037429 0.09608-0.013899 0.33708 0.038933 0.41971 0.14812 0.25082 0.13081 0.32903 0.22849 0.295 0.27991 0.22471 0.28864 0.10945 0.17823 0.15991 0.33372 0.21353 0.74119 0.068643 0.46862 0.036308 0.51375 0.004196 0.47383-0.023642 0.41129-0.087833 0.57784-0.19333 0.68685-0.22158 0.55876-0.308 0.61567-0.29738 0.49845-0.46504 0.68475-1.0902 1.4875-0.27678 0.42067-0.28401 0.54343-0.099494 0.26656-0.08998 0.36823-0.031763 0.31909 0.017646 0.93411-0.03188 0.35952-0.10023 0.39873-0.19111 0.43959-0.18805 0.29312-0.19047 0.23458-1.4126 1.4473-1.8829 2.2115-0.52163 0.64439-0.56761 0.78145-0.71476 1.0533-1.6616 2.2921-0.37759 0.59884-0.60235 1.083-0.31446 0.51738-0.53694 0.77095-0.50967 0.62542-0.40528 0.41011-0.49384 0.44081-0.73883 0.59733-0.68674 0.50446-0.45174 0.29781-0.71507 0.43173-1.6901 0.92487-0.33636 0.21175-0.12345 0.11752 6.5668 5.1061 19.862 15.647 6.9286 5.3709-0.059546 0.14281-0.27622 0.15994-0.57525 0.1869-0.74478 0.15386-0.84864 0.12236-0.90793 0.096349-1.8871 0.13754-3.7326 0.17987-1.7671 0.10803-0.84466 0.07775-0.80971 0.10518-0.7645 0.14486-0.70511 0.2007-0.62652 0.2778-0.52239 0.38262-0.40879 0.52725-0.30237 0.63594-0.22611 0.71376-0.17227 0.76875-0.1349 0.80705-0.10953 0.83333-0.25124 2.5848-1.1761 13.784-0.50116 5.308-0.28673-0.079822-0.75657-0.30051-2.2407-0.94442-2.6044-1.1457-1.3212-0.60466-2.5715-1.2465-3.7605-2.0025-0.97286-0.46743-0.94651-0.37427-0.92055-0.24374-0.89301-0.067823-0.92295 0.16186-0.88046 0.36628-0.82751 0.52573-0.75922 0.65504-0.66964 0.76686-0.55155 0.87224-0.42887 1.0275-0.30362 1.113-0.21417 1.1726-0.15172 1.2135-0.10954 1.241-0.14194 2.3738-0.3663 8.4349-0.70367 19.315 0.016842 0.24373 2.9427 18.799 2.695 16.527 2.1265 13.657 0.3439 2.5396 0.15977 1.3587 0.28419 2.7509 0.46544 5.0341 0.13331 1.2558 0.10348 0.74157 0.56235 4.9789 0.20946 1.5931 0.37638 2.468 0.40107 2.1833 0.29395 1.3428 0.32668 1.2829 0.29506 1.042 0.62647 1.9964 1.0451 3.011 0.4058 1.2429 0.2372 0.77677 0.37034 1.3481 0.31152 1.3193 0.60548 2.8572 0.49588 2.5714 0.24551 1.4183 0.34128 2.3387 0.22606 2.0353 1.0654 11.472 0.047594 0.96214-0.020475 0.94676-0.12779 0.884-0.28022 0.80153-0.36896 0.57916-0.37661 0.41826-0.1635 0.15335-0.79384 0.60874-0.91281 0.54062-1.0004 0.48564-0.73651 0.30958-0.88426 0.32594-0.91228 0.2848-0.93561 0.23397-1.1607 0.19607-0.97942 0.072464-0.98848-0.01546-0.98998-0.11055-0.98338-0.21761-0.61632-0.19934-0.60302-0.24271-0.58126-0.278-0.97957-0.55948-0.95818-0.64604-0.93464-0.71306-0.95223-0.8008-0.90948-0.82454-0.76838-0.73414-1.7407-1.7172-0.21512-0.18587-0.080893-0.021936-0.2758-0.23635-1.2812-0.92512-6.7797-4.7299-1.9619-1.2691-1.8305-1.0786-1.7243-0.92319-0.71388-0.34625-1.1064-0.48289-1.1119-0.41646-1.1158-0.34181-1.1188-0.25325-0.68992-0.10475-0.42574-0.045528-0.98876-0.060411-0.97984-0.005809-1.0667 0.046033-0.85772 0.076339-0.92047 0.14084-0.70844 0.16611-0.37206 0.11179-0.84416 0.32192-0.82429 0.39216-0.80898 0.44081-1.5447 0.94493-1.8001 1.207-0.73196 0.47283-0.66437 0.38909-0.41951 0.21398-0.6762 0.26788-0.36678 0.10168-0.90236 0.15748-1.4436 0.14045-4.0723 0.23564-1.6574 0.038954-0.84068-0.019447-0.8361-0.054412-0.69144-0.077879-0.6956-0.11229-0.68164-0.14264-0.79629-0.20796-0.76224-0.24625-0.63228-0.24812-0.5716-0.27335-0.37347-0.22287-0.43853-0.33081-0.2258-0.20487-0.4066-0.44642-0.37661-0.52882-0.33703-0.58629-0.3395-0.71242-0.31201-0.76091-0.34137-0.93024-1.3859-4.1632-0.40524-1.1636-0.36619-0.93224-0.22738-0.44834-0.15684-0.11492-0.07707-0.2046-0.31818-0.27597-0.49893-0.28518-0.80639-0.29324-0.59551-0.14158-0.63756-0.10519-1.2075-0.10265-1.0812-0.009609-0.91148 0.036697-1.1976 0.10702-1.0844 0.15773-0.85478 0.166-1.5757 0.37679-2.9174 0.79691-1.5899 0.3996-1.2325 0.27706-1.3868 0.28261-0.5026 0.087686-0.79264 0.096917-0.95687 0.058782-0.96558 0.013092-0.81317-0.018072-1.3307-0.07554-1.1168-0.10231-1.1971-0.13425-1.2442-0.18748-1.569-0.3194-0.9226-0.23694-0.74364-0.22315-0.91298-0.32296-0.79183-0.33468-0.58396-0.28552-0.55227-0.30498-0.51705-0.32081-0.39344-0.27085-0.51079-0.38894-1.1787-1.011-1.4614-1.3776-1.1493-1.1731-2.4429-2.6588-1.1865-1.1739-0.72247-0.64169-0.57059-0.46006-0.67425-0.48178-0.48407-0.29711-0.40785-0.20665-0.26422-0.099443-0.18806-0.029199-0.060687 0.032614-0.18903-0.24428-0.43318-0.63807-1.9411-2.9197-1.4389-2.1097-1.3767-1.9278-1.4155-1.8456-0.80176-0.96198-0.70861-0.7881-0.6536-0.67856-0.94836-0.92098-0.96713-0.88448-1.9648-1.6941-1.9808-1.6334-1.9824-1.601-4.9446-3.93-2.9747-2.2854-2.0052-1.4405-0.98083-0.65062-0.9938-0.60649-1.0115-0.54703-1.035-0.46812-1.0605-0.37824-2.1479-0.65566-1.0555-0.37767-0.39-0.16587-0.73526-0.36146-0.71576-0.41015-0.73001-0.47248-0.71264-0.50796-1.1365-0.88944-0.73234-0.61278-3.3688-2.9241-0.62795-0.51324-0.71194-0.51611-0.73788-0.35178-0.36358-0.084682-0.31749-0.034825-0.29454-0.006052-0.67074 0.066061-0.44732 0.096848-0.44879 0.13282-0.63945 0.24003-0.63978 0.28653-0.70538 0.35636-0.65663 0.36204-0.92576 0.55201-1.2133 0.80202-1.0777 0.7874-0.67381 0.53527-0.91109 0.77836-0.73057 0.67057-0.68614 0.66993-0.69632 0.72404-1.3144 1.4861-1.1968-1.3132-4.9369-5.5987-2.0482-2.2856-1.1143-1.1845-0.53537-0.54121-1.0716-1.0042-0.53975-0.45622-0.61047-0.46813-0.62483-0.41854-0.90953-0.48069-0.42452-0.16678-0.6876-0.21217-2.8034-0.63077-0.73778-0.2052-0.68248-0.2353-0.67162-0.27541-0.69317-0.32832-0.67826-0.3631-0.66131-0.39399-0.63064-0.41442-0.6089-0.43826-0.58345-0.45964-0.5941-0.51809-0.54793-0.54272-0.63692-0.76084-0.51067-0.79617-0.35072-0.82124-0.14108-0.8382 0.028942-0.44756 0.096127-0.44947 0.16266-0.47068 0.21797-0.47051 0.3882-0.66174 0.59473-0.82017 0.65725-0.76982 0.77325-0.80143 0.96434-0.88744 1.0949-0.90901 0.87763-0.68786 1.245-0.91364 0.96124-0.65153 1.9613-1.222 3.1088-1.7716 0.17148-0.11665 0.91756-0.4918 9.0909-4.6027 2.9307-1.5539 2.3327-1.3264 1.1122-0.68538 1.0649-0.71422 1.0051-0.75732 0.92822-0.81859 0.32779-0.33162 0.74968-0.87922 0.67614-0.94301 0.62282-0.98796 0.54619-0.94709 2.1482-4.0039 0.97297-1.6985 0.52118-0.82702 0.5593-0.80067 0.83062-1.0315 0.57553-0.64152 1.2152-1.2384 1.1244-1.0587 0.76266-0.6854 2.3398-1.9946 1.6465-1.3454 2.454-1.9518 2.3169-1.7937 3.7679-2.8514 1.9366-1.5382 3.2343-2.6535 3.3321-2.7883 3.2987-2.8001 2.7272-2.3568 0.034739-0.12744 0.24819-0.41829 0.41449-0.59911 0.69451-0.90925 0.75863-0.91798 1.6953-1.9071 2.6718-2.8219 6.8574-6.9929 2.5958-2.6936 1.6158-1.7641 2.468-2.8305 1.5665-1.7182 0.79999-0.82717 0.81565-0.79369 0.83675-0.74614 0.86554-0.67902 0.90489-0.58518 0.95844-0.45539 1.0171-0.29392 1.0733-0.1624 1.1183-0.064421 1.1551 0.007938 1.1864 0.060948 1.2139 0.099538 2.5007 0.27518 3.8964 0.51398 6.03 0.8497 0.72481 0.094824 0.28148 0.0149 3.52-15.425 0.47287-2.2004 2.5552-12.415 0.57089-2.6539 0.6067-2.5772 0.33313-1.2555 0.36642-1.228 0.41405-1.1935 0.48061-1.149 0.57194-1.091 0.65464-0.9827 0.74087-0.92825 0.62187-0.69247 0.86241-0.88432 0.89804-0.86207 1.8623-1.681 2.8742-2.4484 1.9432-1.5674 0.9801-0.74703 0.98845-0.70795 1.0003-0.65252 1.0172-0.57501 1.0408-0.46824 1.0733-0.32323 1.1389-0.14954 1.1726-0.00223 1.1967 0.10062 1.2135 0.16773 3.6904 0.62603 1.2347 0.16603 1.2322 0.10016 1.2269 0.001423 1.0746-0.10265 1.0695-0.18608 1.0653-0.2503 1.062-0.29939 1.0592-0.33675 1.1695-0.40529 2.3332-0.87764 4.6563-1.8783 11.641-4.823 2.321-0.92 1.1549-0.43197 1.1486-0.40052 1.1392-0.35475 1.1257-0.28934 1.1066-0.19734 1.08-0.069729 1.0436 0.10499 1.0253 0.32839 0.99023 0.50684 0.96948 0.62804 2.9098 2.1558 1.0132 0.67122 1.0602 0.57342 0.58953 0.24709 0.54176 0.18412 0.80668 0.21519 0.91576 0.19396 6.659 1.2164 2.0347 0.2939 3.0457 0.34922 0.42594 0.07199" stroke="#bdc660"/>
    </defs>
    <g clip-path="url(#pb0ce5b5ae4)">
     <use y="280.512" fill="#bdc660" stroke="#bdc660" xlink:href="#med7ef7124c"/>
    </g>
   </g>
  </g>
 </g>
 <defs>
  <clipPath id="pb0ce5b5ae4">
   <rect x="7.2" y="7.2" width="255.51" height="266.11"/>
  </clipPath>
 </defs>
</svg>
