<?xml version="1.0" encoding="UTF-8"?>
<!DOCTYPE svg  PUBLIC '-//W3C//DTD SVG 1.1//EN'  'http://www.w3.org/Graphics/SVG/1.1/DTD/svg11.dtd'>
<svg width="240.89pt" height="280.51pt" version="1.1" viewBox="0 0 240.89 280.51" xmlns="http://www.w3.org/2000/svg" xmlns:xlink="http://www.w3.org/1999/xlink">
 <metadata>
  <rdf:RDF xmlns:cc="http://creativecommons.org/ns#" xmlns:dc="http://purl.org/dc/elements/1.1/" xmlns:rdf="http://www.w3.org/1999/02/22-rdf-syntax-ns#">
   <cc:Work>
    <dc:type rdf:resource="http://purl.org/dc/dcmitype/StillImage"/>
    <dc:date>2024-07-04T12:11:13.022910</dc:date>
    <dc:format>image/svg+xml</dc:format>
    <dc:creator>
     <cc:Agent>
      <dc:title>Matplotlib v3.7.1, https://matplotlib.org/</dc:title>
     </cc:Agent>
    </dc:creator>
   </cc:Work>
  </rdf:RDF>
 </metadata>
 <defs>
  <style type="text/css">*{stroke-linejoin: round; stroke-linecap: butt}</style>
 </defs>
 <g id="figure_1">
  <g id="patch_1">
   <path d="m-0 280.51h240.89v-280.51h-240.89v280.51z" fill="none"/>
  </g>
  <g id="axes_1">
   <g id="PatchCollection_1">
    <defs>
     <path id="mca5d77d207" d="m134.12-246.16 9.407 3.6641 10.463 4.0449 3.1023 1.2178 3.0068 1.2504 2.5737 1.1229 1.6927 0.80107 0.8521 0.44225 0.82692 0.46459 0.77588 0.478 0.73438 0.50425 0.67985 0.53446 0.60787 0.5707 0.51294 0.61535 0.44142 0.75808 0.29694 0.79563 0.15741 0.80072 0.011831 0.77329-0.13378 0.74988-0.18398 0.73386-0.11066 0.76889 0.056323 0.8077 0.20536 0.87488 0.32374 0.92974 0.41676 0.97345 0.48819 1.0057 0.53993 1.0244 1.1518 2.0234 0.55835 0.93202 1.0012 1.611 0.053137 0.15304 0.10996 0.085007 0.62235 0.46337 5.4159 3.9349 2.8335 2.1233 1.788 1.4153 0.85432 0.71872 0.82178 0.73442 0.78255 0.75843 0.77354 0.82883 0.73253 0.85585 0.70012 0.87496 0.6732 0.88851 0.82063 1.149 0.54449 0.82074 0.51213 0.83148 0.36133 0.62888 0.34135 0.63565 1.0435 2.0785 0.37049 0.69388 0.36816 0.64166 0.29878 0.47997 0.4476 0.65983 0.60956 0.82506 0.64031 0.80798 0.66342 0.79498 1.3749 1.5619 2.1383 2.2914 1.4657 1.4905 1.5073 1.4423 0.77606 0.69338 0.79662 0.66718 0.85238 0.66188 2.5953 1.9219 0.83345 0.66956 0.7919 0.71181 0.72799 0.75789 0.68222 0.80414 0.64674 0.83873 0.61824 0.86435 0.59366 0.88318 0.57008 0.89694 0.54448 0.90701 0.51358 0.91446 0.47358 0.92012 0.41995 0.92462 0.34712 0.92843 0.2482 0.93192 0.11465 0.93531-0.011401 0.57782-0.050226 0.44937-0.088641 0.47644-0.18602 0.70148-0.24258 0.70606-0.23163 0.57583-0.37001 0.82085-0.71188 1.4894-0.22733 0.51477-0.23708 0.64719-0.12278 0.47853-0.059572 0.44576-0.001758 0.32879 0.028809 0.26864 0.12309 0.51456 0.27954 0.63895 0.3377 0.54763 0.37216 0.51052 1.6338 2.015 0.5481 0.73788 0.53752 0.78113 0.5268 0.81859 0.51535 0.85064 0.69216 1.2159 1.2305 2.2989 1.1574 2.2521 0.50093 1.037 0.060316 0.16108-0.008958 0.030714-0.046503 0.037303-0.12065 0.034858-0.2408 0.013309-0.27621-0.01735-1.2086-0.16668-1.1234-0.22965-0.6111-0.164-0.71104-0.22422-1.4378-0.49183-2.2872-0.81429-0.92578-0.25334-0.71515-0.13909-0.49298-0.062087-0.41928-0.028299-0.48076-0.008091-1.6246 0.051495-0.75203 8.17e-4 -3.7228-0.16412-1.305 0.023347-1.9115 0.11018-1.1262 0.04265-3.1708 0.037646-1.025 0.067585-0.75909 0.087726-0.87858 0.14533-0.78012 0.16934-3.1755 0.83997-0.4565 0.14334-0.52795 0.20698-0.36188 0.17818-0.37732 0.23772-0.2393 0.18996-0.2512 0.25229-0.15215 0.19784-0.19424 0.35687-0.13345 0.38485-0.067759 0.30679-0.041859 0.46853 0.003506 0.30391 0.029638 0.45771 0.15649 1.499 0.04798 0.74395 0.001162 0.7506 0.032088 0.74185 0.039982 0.27953 0.063856 0.31648 0.14062 0.51939 0.17279 0.51542 0.44673 1.2047 0.15971 0.56192 0.043719 0.24284 0.021215 0.30338-0.014564 0.21743-0.054993 0.25456-0.11892 0.28588-0.17349 0.27575-0.33387 0.38744-0.35639 0.32968-0.5489 0.43323-0.68189 0.48607-1.3564 0.9195-1.4065 0.91069-0.46665 0.33074-0.32728 0.26404-0.26697 0.258-0.16606 0.19527-0.23993 0.36335-0.18499 0.42192-0.12637 0.49548-0.23291 1.8121-0.1542 0.97475-0.69642 3.9013-0.41421 2.65-0.15316 0.79114-0.1301 0.52685-0.16781 0.5568-0.20064 0.55372-0.22199 0.51531-0.38259 0.72332-0.38473 0.58382-0.33019 0.38966-0.20965 0.11129-0.086191 0.079701-0.086481 0.30613-0.072681 0.52609-0.18034 2.1915-0.38482 3.7462-0.098838 1.1049-0.20816 2.5711-0.036332 0.75776-0.003089 0.4531 0.044558 0.758 0.058198 0.3998 0.13991 0.57804 0.080461 0.24665 0.1487 0.38273 0.22364 0.47052 0.37696 0.64688 0.52204 0.81381 0.27311 0.49656 0.14511 0.34686 0.16053 0.66406 0.032019 0.68881-0.066882 0.58981-0.066103 0.30311-0.13297 0.41792-0.18591 0.40746-0.22417 0.37854-0.2673 0.38215-0.39578 0.50369-1.0723 1.2699-0.55097 0.5917-0.69373 0.61496-1.1997 0.9119-0.58531 0.46872-0.54167 0.50752-0.47782 0.56029-0.42821 0.59963-1.0564 1.6648-0.26542 0.42843-0.9227 1.6024-0.2187 0.30629-0.3947 0.47359-0.2702 0.28732-0.56305 0.53987-0.64746 0.55999-0.6918 0.55332-0.8586 0.64504-1.4919 1.0664-2.6683 1.8403-0.91094 0.65967-0.59417 0.45483-0.65146 0.53669-0.42784 0.38642-0.43557 0.41137-0.54978 0.56176-0.2439 0.27478-0.45334 0.56776-0.43125 0.62612-0.32212 0.54418-0.40534 0.76608-0.30004 0.52177-0.29474 0.3883-0.42301 0.35988-0.42327 0.23529-0.55157 0.21195-0.63306 0.17502-1.2314 0.28639-0.49258 0.14897-0.3738 0.15507-0.36474 0.22528-0.16831 0.15727-0.16674 0.24592-0.079434 0.22299-0.036907 0.27509 0.019644 0.33818 0.061603 0.28541 0.14685 0.3985 0.1409 0.28258 0.60983 1.0434 0.24674 0.51317 0.1287 0.38853 0.06436 0.34682-0.018941 0.77945-0.19538 0.84645-0.33222 0.89268-0.4325 0.91506-0.49595 0.90694-0.51779 0.85659-0.48698 0.74505-0.38425 0.54325-0.14933 0.17429-0.032357 0.032388-0.060744-0.028373-0.36857-0.062295-2.6355-0.30219-1.7606-0.25432-5.7622-1.0526-0.79243-0.16784-0.69803-0.18621-0.46879-0.15932-0.51013-0.21381-0.91744-0.49619-0.87675-0.58082-2.5179-1.8654-0.83891-0.54346-0.85686-0.43857-0.88722-0.28416-0.90302-0.090846-0.93455 0.060338-0.95754 0.17076-0.97405 0.25037-0.98574 0.30697-0.99387 0.34658-0.99939 0.37379-2.0084 0.79609-10.073 4.1734-4.0292 1.6253-2.019 0.75943-1.012 0.3507-0.91655 0.29139-0.91895 0.25907-0.92186 0.21659-0.92542 0.16101-0.92984 0.088822-1.0617-0.001232-1.0662-0.086671-1.0684-0.14367-3.1934-0.54172-1.0501-0.14514-1.0356-0.087063-1.0147 0.001929-0.98554 0.1294-0.92873 0.27969-0.90061 0.40517-0.88018 0.49757-0.8656 0.56463-0.85532 0.6126-0.8481 0.64641-1.6815 1.3563-2.4871 2.1186-1.6115 1.4546-0.77709 0.74596-0.74626 0.76522-0.53811 0.59921-0.64108 0.80323-0.56647 0.85034-0.49491 0.94403-0.41588 0.99429-0.35828 1.0327-0.31707 1.0626-0.28826 1.0864-0.52499 2.2301-0.494 2.2965-2.2111 10.743-0.40918 1.904-0.17844-0.042202-0.45584-0.058751-3.4011-0.36331-1.0171-0.13536-0.98417-0.1708-0.92554-0.22081-0.84376-0.28792-0.73895-0.37523-0.13176-0.086602-0.59733-0.4949-1.0491-1.1085-0.5747-0.51409-0.61235-0.39951-0.6875-0.33748-0.74512-0.28718-0.96866-0.29596-1.0212-0.25693-1.0547-0.23222-2.1699-0.4171-3.0649-0.52125-6.4392-1.0364-2.0759-0.37081-2.0476-0.42022-1.005-0.24163-0.98556-0.27394-0.95862-0.31859-0.9217-0.37968-0.87167-0.4624-0.83659-0.58273-0.78366-0.67123-0.74518-0.73695-0.71785-0.7854-0.69906-0.82102-0.6868-0.84728-2.0316-2.6434-6.3585-8.5264-3.9756-5.2844 0.25281-0.12189 1.566-0.66152 9.163-3.8126 3.2911-1.4094 1.0504-0.47687 1.0189-0.48922 0.97827-0.50958 0.92456-0.54057 0.85254-0.58567 0.75555-0.64933 0.62524-0.73722 0.45546-0.81551 0.3355-0.89764 0.24834-0.95726 0.18592-0.99995 0.14194-1.03 0.20261-2.1158 0.21138-3.238 0.29902-5.4278 0.15135-3.2428 0.05218-2.1458-0.003976-1.0643-0.035044-1.0558-0.077537-1.0443-0.13469-1.0288-0.20488-1.0291-0.49697-2.0202-0.22284-1.0014-0.15879-1.0013-0.070807-0.99884-0.017099-1.8583-0.021201-0.85134-0.033474-0.4972-0.11356-0.82866-0.066935-0.30653-0.2632-0.84914-0.36867-0.8083-0.31739-0.53488-0.34941-0.51371-0.88552-1.2218-0.45494-0.67656-0.5142-0.83466-0.68764-1.2446-0.43429-0.88009-0.37886-0.84078-0.51328-1.2353-0.49462-1.3131-0.20532-0.75508-0.098046-0.65178-0.033963-0.7469 0.024476-0.85086 0.080079-0.92038 0.14484-0.97351 0.13832-0.59921 0.19306-0.58363 0.28518-0.6114 0.29266-0.48261 0.53809-0.70634 0.75146-0.83048 0.63447-0.64125 5.5852-5.3844 1.5116-1.3829 1.0606-0.89358 1.3042-1.0397 0.85253-0.63033 1.4668-0.99338 1.6557-1.0528 1.872-1.1469 2.0346-1.2055 0.91567-0.50609 2.8565-1.5127 0.53802-0.31056 0.49105-0.3166 0.71017-0.54882 0.60523-0.56195 0.737-0.79492 1.2634-1.4488 0.49395-0.61705 0.45375-0.62754 0.29259-0.45991 0.27062-0.53185 0.051692-0.12681 0.20438-0.69414 0.14044-0.69291 0.16276-0.6722 0.11368-0.3237 0.14346-0.33793 0.49213-1.051 0.13514-0.43351 0.033183-0.48657-0.11808-0.46049-0.15736-0.26097-0.21189-0.24318-0.47056-0.40245-0.8802-0.64139-0.35824-0.29437-0.2519-0.25021-0.24806-0.32208-0.14816-0.28047-0.065355-0.1916-0.03669-0.19534-0.003618-0.28536 0.028723-0.17678 0.071769-0.23009 0.12848-0.26713 0.12504-0.19849 0.24774-0.31401 0.44787-0.44306 0.27278-0.22924 0.6246-0.46687 0.42535-0.29186 1.9665-1.2447 0.90361-0.61091 0.37647-0.28226 0.2533-0.21517 0.40767-0.42666 0.3014-0.38996 0.28918-0.43213 1.5002-2.5717 1.276-2.0151 2.1442-3.1236 1.1634-1.5756 1.073-1.3566 0.54878-0.64926 0.53599-0.59647 0.41607-0.42114 0.1225-0.1009 0.036994-0.006061-0.012279-0.051138 0.040579-0.066341 0.17436-0.12938 0.33621-0.16432 0.5037-0.19088 1.8121-0.56813 2.2482-0.64169 2.1256-0.63808 0.6532-0.23661 0.51981-0.23434 0.44608-0.24244 0.45049-0.29308 0.41777-0.32085 0.2626-0.24889 0.26656-0.33048 0.15115-0.25555 0.089944-0.22497 0.054362-0.30117-0.032196-0.38968-0.14739-0.49895-0.36811-0.86089-0.70119-1.4614-0.64631-1.4142-0.53316-1.3123-0.31697-0.86704-0.29801-0.88284-0.54053-1.7959-0.48144-1.8375-0.76905-3.0728-0.2422-0.89829-0.45157-1.5442-0.77171-2.4112-2.2646-6.6651-1.0268-3.193-0.1358-0.26828-0.048716-0.061521-0.10792-0.097405-0.1725-0.087102-0.16886-0.038853-0.26074-0.013502-0.31584 0.022694-0.48712 0.072307-1.715 0.3054-0.74121 0.09506-1.1125 0.063065-1.0126-0.0119-1.0392-0.059978-1.0569-0.097552-1.0681-0.1273-1.0746-0.15157-2.155-0.36435-2.1465-0.44527-1.0649-0.2596-1.187-0.32568-4.9711-1.5002-1.5459-0.40851-1.4658-0.3166-0.73761-0.12671-0.83013-0.11275-0.83305-0.082693-0.73879-0.049662-1.5382-0.050503-2.3392-0.040563-0.74212-0.035552-0.72964-0.062259-0.78031-0.11237-0.75398-0.1758-0.66624-0.23735-0.53463-0.26752-0.51273-0.32402-0.43686-0.32567-0.42557-0.35801-0.8147-0.79471-0.65713-0.74358-0.63678-0.80201-0.61745-0.85224-0.59675-0.89596-0.63188-1.0308-0.60536-1.0593-0.57737-1.0662-0.54199-1.0432-1.2117-2.4241-0.13615-0.21272-9.27e-4 -0.039636 0.14202-0.20282 0.26419-0.30328 1.4262-1.513 0.60705-0.67277 0.41186-0.49246 0.33605-0.43645 0.40643-0.5855 0.52052-0.83974 0.52797-0.93339 0.43827-0.8571 0.39759-0.88522 0.31281-0.8017 1.3662-3.9181 0.24758-0.7812 0.71354-2.4173 0.87043-3.3605 0.26899-0.77435 0.15324-0.35067 0.19256-0.37558 0.24317-0.39862 0.37441-0.49526 0.20293-0.22176 0.37022-0.3469 0.53127-0.42378 0.37726-0.27074 1.3967-0.93041 0.54186-0.39504 0.37699-0.31983 0.21335-0.20538 0.21471-0.23235 0.21747-0.27201 0.30678-0.48111 0.31482-0.71982 0.22415-0.76326 0.3383-1.5504 0.19177-0.73255 0.26108-0.6634 0.37666-0.5576 0.55049-0.4348 0.68993-0.31156 0.796-0.21729 0.87592-0.145 0.93549-0.088815 0.97927-0.04376 1.1347-0.003785 1.0712 0.038912 1.0859 0.08192 1.0924 0.12776 1.1298 0.18028 2.2405 0.40042 1.0973 0.15305 1.0658 0.069438 1.0144-0.061341 0.93552-0.2437 0.72724-0.38268 0.39426-0.28722 0.36455-0.31609 0.4907-0.50323 0.41613-0.50027 0.30498-0.41835 0.10616-0.19462 0.11812 0.12703 1.1694 1.5867 0.50558 0.63008 0.52387 0.59952 0.53147 0.53704 0.53316 0.44429 0.53208 0.31854 0.53029 0.15356 0.2746 0.001567 0.38875-0.083111 0.42261-0.18947 0.46907-0.31303 0.40371-0.34429 0.32659-0.32517 0.43526-0.49322 0.42838-0.54057 1.5481-2.1599 0.59674-0.76215 0.43484-0.51376 0.69405-0.75758 0.42505-0.41302 0.47381-0.39963 0.44019-0.31418 0.32321-0.19886 0.41242-0.21938 0.41095-0.18901 0.89666-0.36719 2.6971-1.0441 1.5789-0.70683 1.6954-0.85055 2.4989-1.404 1.3754-0.74172 2.0827-1.0278 1.5773-0.7175 0.042425 0.10953 0.35655 0.2545 0.60328 0.33004 0.7668 0.37471 1.9923 0.89764 2.18 0.91224 2.2135 0.87402 7.4137 2.8382 5.791 2.2523 5.9772 2.3467 5.9003 2.3606 3.8174 1.5064" stroke="#bdc660"/>
    </defs>
    <g clip-path="url(#p94bdb8d1f3)">
     <use y="280.512" fill="#bdc660" stroke="#bdc660" xlink:href="#mca5d77d207"/>
    </g>
   </g>
  </g>
 </g>
 <defs>
  <clipPath id="p94bdb8d1f3">
   <rect x="7.2" y="7.2" width="226.49" height="266.11"/>
  </clipPath>
 </defs>
</svg>
