<?xml version="1.0" encoding="UTF-8"?>
<!DOCTYPE svg  PUBLIC '-//W3C//DTD SVG 1.1//EN'  'http://www.w3.org/Graphics/SVG/1.1/DTD/svg11.dtd'>
<svg width="313pt" height="280.51pt" version="1.1" viewBox="0 0 313 280.51" xmlns="http://www.w3.org/2000/svg" xmlns:xlink="http://www.w3.org/1999/xlink">
 <metadata>
  <rdf:RDF xmlns:cc="http://creativecommons.org/ns#" xmlns:dc="http://purl.org/dc/elements/1.1/" xmlns:rdf="http://www.w3.org/1999/02/22-rdf-syntax-ns#">
   <cc:Work>
    <dc:type rdf:resource="http://purl.org/dc/dcmitype/StillImage"/>
    <dc:date>2024-07-04T12:11:14.268481</dc:date>
    <dc:format>image/svg+xml</dc:format>
    <dc:creator>
     <cc:Agent>
      <dc:title>Matplotlib v3.7.1, https://matplotlib.org/</dc:title>
     </cc:Agent>
    </dc:creator>
   </cc:Work>
  </rdf:RDF>
 </metadata>
 <defs>
  <style type="text/css">*{stroke-linejoin: round; stroke-linecap: butt}</style>
 </defs>
 <g id="figure_1">
  <g id="patch_1">
   <path d="m0 280.51h313v-280.51h-313v280.51z" fill="none"/>
  </g>
  <g id="axes_1">
   <g id="PatchCollection_1">
    <defs>
     <path id="m7ab2802c66" d="m120.69-240.89 1.2598 0.027997 1.4959-0.020283 1.4824-0.091066 1.228-0.15014 0.77863-0.13584 2.1485-0.43782 1.9094-0.42922 2.4632-0.61907 4.5197-1.2346 2.441-0.58373 1.3242-0.25716 1.6799-0.24436 1.8554-0.1658 1.4121-0.056851 1.675 0.014886 1.8706 0.15903 0.98772 0.16296 0.92258 0.21934 1.2493 0.45428 0.77295 0.4418 0.49292 0.42754 0.1194 0.31697 0.24298 0.17804 0.35226 0.69458 0.56731 1.4442 0.62781 1.8027 2.147 6.4498 0.52886 1.4412 0.48337 1.1788 0.52596 1.1037 0.52214 0.90829 0.58345 0.81925 0.62992 0.6916 0.34982 0.31739 0.67938 0.51249 0.57859 0.34528 0.88554 0.42347 0.97954 0.38439 1.1809 0.38149 1.2336 0.32218 1.056 0.22099 1.0776 0.17396 1.0712 0.12065 1.2953 0.084297 1.3024 0.030128 2.5677-0.060348 6.309-0.36506 2.2364-0.21759 1.398-0.24397 0.56822-0.15752 1.0476-0.415 0.64991-0.33151 1.0293-0.60279 1.134-0.73251 2.7887-1.8699 2.3932-1.4639 1.2533-0.68291 1.277-0.60754 1.3078-0.49872 0.5764-0.17319 1.0975-0.25734 1.426-0.21819 1.3288-0.11827 1.6526-0.071315 1.518 9e-3 1.5318 0.09359 0.65956 0.070533 1.0688 0.16228 1.7332 0.39234 1.7286 0.52954 1.7225 0.64518 1.714 0.7481 1.106 0.53642 2.6713 1.4302 2.8359 1.671 3.0394 1.9662 10.503 7.3276 1.9849 1.4332 0.42728 0.36616-0.026341 0.2723-0.50665 0.45832-0.29864 0.21008-0.97737 0.59503-0.67966 0.37293-4.1734 2.1517-2.2627 1.243-1.8331 1.0925-1.8425 1.2111-0.99028 0.72001-0.93896 0.74184-1.3187 1.1607-1.5718 1.5716-1.1152 1.2367-2.0515 2.4011-0.36746 0.50605-0.28244 0.71426 0.17041 0.58542 0.2823 0.28628 0.71342 0.43516 1.7404 0.91139 1.443 0.92819 3.6747 2.6781 1.3017 0.92113 1.3406 0.87811 1.3843 0.80012 1.4676 0.71805 2.9371 1.2855 1.388 0.67166 1.2741 0.76355 1.1067 0.91657 0.41594 0.46314 0.3686 0.4911 0.33198 0.52254 0.28714 0.52929 0.45303 1.029 0.45437 1.3643 0.27965 1.0661 0.42329 2.092 0.7285 4.6156 0.36472 1.6648 0.2666 1.0066 0.33079 1.0971 0.38868 1.1409 0.96375 2.5492 0.62413 1.7716 0.61365 2.0885 0.55672 2.4673 0.47667 2.6598 0.52665 3.2774 0.25439 2.1093 0.086544 1.1881 0.049369 2.7519-0.13678 6.1377 0.001336 1.4658 0.062851 1.5903 0.20383 1.7635 0.28698 1.2502 0.32404 0.95107 0.39826 0.92325 0.42743 0.83505 0.47423 0.81044 0.63726 0.95591 0.85519 1.0948 0.94005 1.0052 1.0245 0.89497 0.84938 0.60948 6.2253 3.9287 3.362 1.9751 1.5632 0.833 1.0523 0.51197 1.4158 0.61711 3.0552 1.1934 0.82386 0.29597 1.2051 0.37539 3.0575 0.79974 1.147 0.37653 1.3425 0.60131 0.84067 0.45129 0.82924 0.48594 1.4212 0.89912 0.94033 0.65315 1.779 1.3816 0.71343 0.61495 0.63962 0.63204 0.67907 0.78859 0.66876 0.85783 0.92231 1.2949 0.81974 1.284 0.54972 0.94864 0.6916 1.3223 0.6262 1.3761 0.41991 1.0904 0.40558 1.312 0.25387 1.1042 0.16536 1.0733 0.07205 1.1126-0.038644 1.0136-0.24531 1.5166-0.16323 0.70072-0.31298 1.1189-0.38762 1.2236-0.47368 1.2242-0.58122 1.1742-0.68245 1.1637-0.55865 0.8557-1.054 1.3985-1.1815 1.3864-2.3654 2.5799-3.2199 3.4006-1.5527 1.5688-0.36031 0.34425-0.59132 0.17239-0.63398 0.088041-0.99051 0.023057-1.0916-0.096154-0.88558-0.15116-1.5797-0.43071-1.6141-0.61612-1.2622-0.57964-1.2512-0.64316-1.2318-0.68825-1.498-0.89466-3.2854-2.0372-1.5963-0.9117-1.0311-0.50226-1.1189-0.42072-0.96969-0.22435-1.5399-0.052447-0.92349 0.11217-1.4254 0.31978-0.80891 0.24356-1.1448 0.45658-1.6686 0.85916-3.2055 1.893-2.5313 1.3103-1.2932 0.61661-2.1127 0.94431-1.5713 0.56782-1.4259 0.41146-0.89912 0.20341-0.99773 0.16947-2.5942 0.35143-1.4827 0.27208-3.2062 0.80334-3.1419 0.91603-1.2657 0.29834-0.7346 0.13787-1.3167 0.16808-1.0915 0.058481-1.0835-0.008708-1.1744-0.073843-0.91896-0.095323-3.6109-0.47786-1.5581-0.1223-1.1343 0.009829-0.52897 0.071569-0.58789 0.18644-0.13396 0.071646-0.17265 0.12127-0.22331 0.22964-0.21193 0.37524-0.070841 0.22955-0.0477 0.37887 0.061559 1.6463 0.001091 0.62664-0.057404 0.92734 0.012446 1.1168-0.34292 2.2434-0.094003 0.44561-0.28906 0.81147-0.90096 2.0832-1.3555 2.8724-0.25424 0.63372-0.34824 1.1765-0.13372 1.2087 0.045313 0.60335 0.085318 0.42927 0.35445 1.0125 0.52298 1.0165 0.83898 1.3194 1.9059 2.697 0.79655 1.1832 0.56091 0.97106 0.37208 0.81586 0.12685 0.35843 0.1449 0.56846 0.049376 0.96316-0.35322 1.2147-0.73761 1.1753-1.0194 1.1437-1.2224 1.1169-1.3653 1.0924-1.4628 1.0675-3.5558 2.3691-4.5542 2.8474-3.1252 1.8196-1.5776 0.85488-1.5855 0.79593-1.5302 0.6903-1.529 0.60101-1.5196 0.49156-1.5011 0.35379-1.6659 0.18601-0.90646-0.013583-0.69624-0.069678-0.99003-0.19566-0.5068-0.14696-1.0845-0.42815-0.55962-0.29002-0.65012-0.41605-0.49271-0.39009-0.59908-0.54972-2.8539-2.8417-0.90269-0.77688-0.89921-0.61334-0.65106-0.30193-0.49571-0.13509-0.73948-0.093615-1.0732-0.058692-0.72322-0.071067-0.54271-0.09043-3.6892-0.92449-1.4267-0.2586-1.7003-0.20187-3.4289-0.26634-1.0731-0.11658-1.8682-0.33647-1.1674-0.33017-1.1621-0.41483-0.8521-0.34588-2.9908-1.3221-1.1719-0.39366-0.38957-0.07661-0.56813-0.049429-0.46696 0.015088-1.251 0.23372-1.3116 0.45918-1.3518 0.61841-4.5845 2.4318-0.58014 0.2595-0.64374 0.21384-0.24067 0.028821-0.18489-0.099653-0.13849-0.63024-0.51252-0.29457-0.45035-0.072999-0.54982-0.012757-0.54341 0.049804-0.59931 0.12514-0.56075 0.19112-1.2652 0.72012-1.2569 1.0405-1.2589 1.2401-1.2873 1.3276-1.3514 1.3163-1.2837 1.1034-1.9045 1.48-1.031 0.73925-1.0469 0.68901-1.5094 0.86041-1.4462 0.7022-1.6686 0.69522-0.93431 0.31926-1.0907 0.31231-2.325 0.60728-2.2341 0.51778-2.087 0.3737-4.444 0.5846-4.0439 0.34236-1.5823 0.098268-1.8006 0.056195-1.4216-0.021866-1.0062-0.069328-1.006-0.11065-1.3624-0.20396-1.3575-0.25957-2.0738-0.49928-2.0032-0.59624-2.3129-0.82639-2.4001-0.9437-1.088-0.39409-1.7602-0.5325-1.4189-0.32255-1.086-0.18598-1.2299-0.11186-0.6069-0.001769-0.4234 0.03072-0.79381 0.14946-0.7326 0.27796-0.9801 0.67465-0.62338 0.62503-0.57372 0.69395-1.052 1.3896-0.46052 0.53649-0.66413 0.61079-0.59197 0.39378-1.0309 0.4724-0.55507 0.1709-0.75843 0.15994-0.93598 0.10855-1.2509 0.011672-1.2855-0.18628-1.3113-0.34556-0.66804-0.21546-2.5953-0.96293-1.2782-0.54694-1.2312-0.59078-1.1531-0.63652-1.0399-0.68711-1.8668-1.5126-0.63663-0.44878-0.92802-0.55885-1.7407-0.93871-0.76234-0.46904-2.3765-1.8928-0.83394-0.47067-0.66923-0.22985-0.72775-0.15658-1.1489-0.14384-0.56912-0.036076-1.6121-3.45e-4 -0.73107 0.050027-0.93525 0.1203-0.91995 0.19007-0.64667 0.1809-1.4655 0.49104-1.6005 0.66324-1.9596 0.90438-1.1193 0.44139-0.84913 0.24954-0.45181 0.092475-0.7963 0.080312-0.62995-0.023618-1.0683-0.24308-0.78172-0.34048-0.79025-0.49688-0.5014-0.42325-0.47021-0.55406-0.10586-0.20182-0.034961-0.18499-0.66984-0.56097-0.50101-0.47168-0.36122-0.3989-0.28142-0.38787-0.17739-0.34122-0.085746-0.30246 0.001074-0.36749 0.072644-0.26172 0.18273-0.33544 0.32402-0.39989 1.8551-1.8407 0.68456-0.74373 0.41719-0.52758 0.53119-0.77959 0.59206-1.0139 0.39314-0.75526 2.6689-5.6656 0.9826-1.8653 0.61763-1.0116 0.65123-0.96958 0.9409-1.2807 1.9967-2.5478 0.75228-1.0352 0.64124-1.0299 0.38357-0.76126 0.32733-0.75416 0.44712-1.2053 0.10865-0.38787 0.1437-0.79323 0.027626-0.74391-0.17775-1.2146-0.39259-1.2704-0.5397-1.3228-1.8663-4.049-3.4096-7.7703-1.1071-2.6536-0.84382-2.3067-0.40047-1.3829-0.21263-0.98542-0.18475-1.6409 0.001031-0.75413 0.083426-0.89433 0.1713-0.85432 0.45326-1.2527 0.46959-0.80022 0.56092-0.67302 0.99238-0.8876 1.0739-0.72968 1.1212-0.66989 3.1689-1.7711 1.2988-0.8004 1.2381-0.86633 0.75393-0.60012 1.2743-1.1081 1.1673-1.163 0.99125-1.2199 0.57887-0.96272 0.38149-1.0123 0.14976-1.2856-0.018242-0.49347-0.087422-0.76215-0.14013-0.74467-0.25484-0.97228-0.41988-1.2815-0.97276-2.6691-0.46642-1.3949-0.26756-0.91765-0.41107-1.6222-0.57368-2.8282-0.26173-1.7042-0.21136-1.8599-0.20821-3.05-0.072935-2.5605 0.040669-3.6835 0.14365-3.7982 0.23008-3.634 0.34747-4.1433 0.40297-3.2761 0.26953-1.7855 1.2573-7.1469 0.43991-2.6876 0.28876-2.15 0.099447-1.2538-0.034753-0.28118 0.13402 0.27601 0.24268 0.24911 0.3126 0.15774 0.37569 0.020594 0.41302-0.11113 0.27169-0.12327 0.59096-0.3583 0.67565-0.54147 0.33376-0.3393 0.28681-0.36163 0.26272-0.46458 0.13599-0.44708 0.023462-0.32468-0.022799-0.2832-0.15848-0.71103-0.14944-0.47131-1.8603-5.0582-0.46964-1.1318-0.54083-1.1023-0.31969-0.56806-0.69681-1.1027-1.1437-1.5529-1.078-1.2608-0.76406-0.75698-0.56334-0.49083-3.0256-2.3652-0.78094-0.66028-1.097-1.0563-1.07-1.2196-0.62248-0.83817-0.53452-0.90765-0.25728-0.62087-0.11764-0.43757-0.038842-0.32682 0.043431-0.14977-0.002862-0.19303 0.11608-0.34667 0.68788-1.4676 2.809-5.087 2.76-5.4196 1.9603-3.5585 2.8333-4.7965 1.3013-2.4348 0.68022-1.4088 0.63351-1.4085 0.98053-2.4412 0.526-1.5629 0.46854-1.6888 0.36314-1.6917 0.74161-4.4868 0.1182-0.89866 0.117-1.9314 0.055872-2.6637 0.068604-1.0032 0.12009-0.66651 0.19214-0.57772 0.1389-0.2903 0.59099-0.80668 0.48395-0.43188 0.53378-0.38122 1.3791-0.80497 3.1988-1.7301 1.0988-0.65685 1.1068-0.7091 2.1631-1.5372 1.5527-1.209 1.5567-1.2923 1.5488-1.351 3.0948-2.8372 4.7014-4.5127 4.8157-4.7421 4.6906-4.6913 2.4965-2.5522 0.72823-0.78221 0.14704-0.19994 0.094019-0.050525 0.29134 0.045236 0.40933 0.15406 0.63184 0.32015 0.74993 0.4603 1.0446 0.74638 0.88397 0.71274 1.1193 0.99412 1.8382 1.8186 3.7846 4.1191 1.7805 1.8174 2.264 2.1342 1.8261 1.5663 0.79132 0.60256 0.60952 0.4196 0.80102 0.49701 0.85559 0.47248 0.90468 0.44233 1.2267 0.51849 1.4144 0.50033 1.1521 0.34571 1.4293 0.36707 2.4308 0.49483 1.9276 0.29045 1.8545 0.20798 1.7302 0.15851 2.0615 0.11703" stroke="#bdc660"/>
    </defs>
    <g clip-path="url(#p0f2e0b28c8)">
     <use y="280.512" fill="#bdc660" stroke="#bdc660" xlink:href="#m7ab2802c66"/>
    </g>
   </g>
  </g>
 </g>
 <defs>
  <clipPath id="p0f2e0b28c8">
   <rect x="7.2" y="7.2" width="298.6" height="266.11"/>
  </clipPath>
 </defs>
</svg>
