<?xml version="1.0" encoding="UTF-8"?>
<!DOCTYPE svg  PUBLIC '-//W3C//DTD SVG 1.1//EN'  'http://www.w3.org/Graphics/SVG/1.1/DTD/svg11.dtd'>
<svg width="281.28pt" height="280.51pt" version="1.1" viewBox="0 0 281.28 280.51" xmlns="http://www.w3.org/2000/svg" xmlns:xlink="http://www.w3.org/1999/xlink">
 <metadata>
  <rdf:RDF xmlns:cc="http://creativecommons.org/ns#" xmlns:dc="http://purl.org/dc/elements/1.1/" xmlns:rdf="http://www.w3.org/1999/02/22-rdf-syntax-ns#">
   <cc:Work>
    <dc:type rdf:resource="http://purl.org/dc/dcmitype/StillImage"/>
    <dc:date>2024-07-04T12:11:13.943910</dc:date>
    <dc:format>image/svg+xml</dc:format>
    <dc:creator>
     <cc:Agent>
      <dc:title>Matplotlib v3.7.1, https://matplotlib.org/</dc:title>
     </cc:Agent>
    </dc:creator>
   </cc:Work>
  </rdf:RDF>
 </metadata>
 <defs>
  <style type="text/css">*{stroke-linejoin: round; stroke-linecap: butt}</style>
 </defs>
 <g id="figure_1">
  <g id="patch_1">
   <path d="m0 280.51h281.28v-280.51h-281.28v280.51z" fill="none"/>
  </g>
  <g id="axes_1">
   <g id="PatchCollection_1">
    <defs>
     <path id="m251cf9a9b1" d="m203.92-247.56 0.81244 3.9668 0.8389 3.8817 0.95632 4.1972 1.0062 4.0839 1.0461 3.7796 0.57057 1.8539 0.61374 1.8281 0.62616 1.6988 0.66807 1.6763 1.4466 3.2914 0.7782 1.6146 1.6353 3.0963 0.86994 1.5164 0.90584 1.4935 0.94576 1.4673 1.0473 1.5183 1.093 1.4866 1.1359 1.4558 1.1789 1.4236 2.355 2.6223 2.4488 2.5507 8.4836 8.5696 2.0148 2.1484 1.0432 1.1792 1.415 1.7369 0.84687 1.1752 0.45538 0.70868 0.4113 0.718 0.32319 0.64963 0.26654 0.63773 0.18748 0.55716 0.21197 0.96336 0.048617 0.51385 0.003216 0.51013-0.056895 0.68888-0.099727 0.60589-0.33776 1.2925-0.47568 1.3133-0.6491 1.4866-0.73238 1.5027-2.4319 4.6683-1.1694 2.3966-0.46674 1.0804-0.40343 1.063-0.31341 1.0041-0.21961 0.97761-0.099141 1.4819 0.11146 0.77611 0.29895 0.84692 0.47662 0.83517 0.24377 0.34364 1.0478 1.2112 0.61752 0.60779 1.5017 1.3227 1.8523 1.4565 1.5028 1.0814 1.8873 1.2667 3.7799 2.4499 1.5549 1.1204 1.1056 0.88953 0.89994 0.78159 1.1236 1.0587 1.09 1.1022 1.6125 1.7591 0.89477 1.0557 1.2219 1.6141 0.55017 0.82613 0.31787 0.52369 0.83331 1.5729 1.0629 2.2693 0.94698 2.2279 0.16065 0.33335 0.098493 0.098167-0.028148 0.46888-0.2914 0.99767-0.51715 1.2788-0.40133 0.80568-0.46861 0.81147-0.60306 0.8921-0.74632 0.92959-0.80912 0.88524-1.0424 1.034-0.68808 0.60715-0.99217 0.7831-1.0693 0.70604-1.1403 0.6094-1.6132 0.65017-1.6878 0.48955-1.7303 0.35771-1.746 0.24711-1.7386 0.15062-6.506 0.21339-1.3125 0.087879-1.5425 0.16045-0.91675 0.14894-0.91036 0.20515-2.4366 0.75966-0.53268 0.10892-0.75102 0.074675-0.79458-0.013487-0.54517-0.061868-2.7097-0.5279-2.1092-0.46467-0.91501-0.11593-0.63235-0.010653-0.95185 0.1162-0.98916 0.29676-0.81198 0.40294-0.73027 0.54546-0.35011 0.35598-0.67496 0.95515-0.52937 1.1168-0.30381 0.87218-0.65541 2.5499-1.1456 3.9617-0.33062 1.4288-0.20688 1.2395-0.10923 1.2425-0.013477 0.64968 0.12309 3.1449 0.043253 3.1287 0.15959 1.8614 0.14834 1.0753 0.15799 0.81776 0.36586 1.3677 0.52438 1.3268 0.98387 1.9217 0.97841 1.6125 1.9298 3.0386 0.59659 1.0811 0.2578 0.64484-0.004086 0.3307-0.32651 0.2082-0.71468 0.31993-2.3088 0.95619-3.7236 1.4047-1.0693 0.5297-1.0652 0.63297-1.0571 0.71515-1.0468 0.77827-1.0327 0.82173-3.8809 3.2602-3.5996 2.9055-2.2671 1.7639-1.2487 0.9149-2.04 1.4014-1.8402 1.1863-7.8263 4.8073-1.8551 1.1859-1.7761 1.2116-1.8293 1.343-2.0167 1.624-1.4254 1.2611-1.6857 1.6288-2.7478 2.8554-0.53841 0.50534-0.67354 0.56145-0.46492 0.34188-0.92853 0.5859-1.1089 0.57904-4.8289 2.2109-2.2521 1.1043-1.3701 0.74185-1.2898 0.77515-1.3647 0.92142-0.56462 0.41918-1.1134 0.90794-0.81143 0.73994-0.54279 0.54536-0.37225 0.42218-0.14154 0.20179-0.023447 0.10671-0.48416-0.1989-0.71274-0.6772-0.80173-1.0062-0.76715-1.2392-0.6321-1.4103-0.37071-1.2532-0.11963-0.53493-0.30042-1.8933-0.15956-1.4762-0.32992-5.1802-0.12141-1.113-0.27194-1.7736-0.39367-1.7716-0.422-1.3334-0.54335-1.2582-0.84352-1.4145-0.61503-0.82253-0.6683-0.77051-1.131-1.0936-0.80962-0.6657-2.7119-2.1128-0.90893-0.75343-1.4093-1.26-1.9875-1.8593-0.77371-0.59674-0.80139-0.45409-1.1503-0.32642-1.1635-0.011117-1.0952 0.28379-0.94036 0.58079-0.63251 0.73749-0.5052 0.90383-0.4289 1.0098-0.35997 1.0143-0.26765 1.0847-0.11043 0.91128-0.036621 0.96762 0.032457 1.4166 0.22586 4.0156-0.002255 1.4397-0.12004 1.4028-0.29099 1.3437-0.3186 0.87043-0.54137 1.1003-0.45114 0.75538-0.69024 1.0105-0.90403 1.1946-2.3542 2.9256-2.0111 2.6318-0.57511 0.80998-0.53504 0.87542-0.45925 0.89792-0.58168 1.3856-0.99424 2.52-0.4215 1.2372-0.62401 2.1206-0.41842 0.94596-0.53834 0.75798-0.68369 0.64617-1.1677 0.69202-1.0728 0.35938-1.0771 0.15306-0.60653 3.71e-4 -0.79293-0.076009-0.83249-0.17011-2.0402-0.57256-1.2047-0.28544-1.3012-0.24485-1.3726-0.20122-1.2307-0.13695-2.5726-0.16974-2.9823-0.088791-2.4814-0.039364-2.7294 0.030071-0.676-0.096102-0.2395-0.14224-0.050601-0.044147-0.081919 0.012575-0.10959 0.080761-0.23308 0.32011-0.32011 0.67386-0.46699 1.296-0.53356 1.0483-2.3421 4.1073-0.43567 0.63204-0.28155 0.25374-0.13475 0.029834-0.18116-0.10889-0.17216-0.26436-0.15478-0.39081-0.17475-0.72219-0.24607-1.6302-0.023587-0.16202-0.11161-0.29612-0.2575-0.55834-0.60311-1.0949-0.9593-1.4512-0.89345-1.1349-0.81603-0.85845-0.71271-0.56819-0.53529-0.27748-0.42996-0.099259-0.2149 5.64e-4 -0.29894 0.049975-0.3687 0.12282-0.53753 0.27047-0.83834 0.57948-1.21 1.0376-2.0128 1.9586-0.94353 0.87092-0.84384 0.66355-0.41978 0.26122-1.1933 0.5577-1.2294 0.8063-0.49843 0.29477-0.52445 0.23487-0.547 0.13147-0.40603 0.008454-0.4138-0.053133-0.41889-0.097887-0.84666-0.31498-0.57807-0.30499-0.57803-0.36469-0.5667-0.41429-0.5419-0.45733-0.50054-0.49672-0.43886-0.53466-0.38514-0.59827-0.3155-0.57176-0.25656-0.59005-0.16042-0.60859-0.041645-0.55494 0.039354-0.53186 0.093555-0.46615 0.11684-0.34193 0.10731-0.13632-1.9685-0.5788-2.6381-0.89174-1.0854-0.42772-1.0781-0.48382-0.86068-0.44756-0.80529-0.4922-0.59266-0.42977-0.46093-0.39188-0.49783-0.50194-1.4201-1.7308-0.91474-0.96212-0.47558-0.43106-0.51861-0.40731-0.78204-0.48075-1.6519-0.82671-0.77834-0.43833-0.60371-0.4225-0.66244-0.5383-0.74283-0.78284-0.37957-0.50981-0.28946-0.45822-0.24217-0.49343-0.20448-0.64942-0.13012-0.71071-0.12395-1.555-0.081174-2.7642-0.084288-1.4382-0.14576-1.1995-0.12591-0.68578-0.24813-0.98677-0.5843-1.6521-0.6149-1.3105-0.30689-0.52008-0.5157-0.69308-0.61536-0.57801-0.55259-0.34771-0.36442-0.17607-1.0358-0.37061-1.1163-0.24332-1.2742-0.11482-1.5758 0.029823-1.1673 0.12484-0.80802 0.1457-0.75491 0.18664-0.60445 0.19118-0.38699 0.16656-0.07978-0.18194-0.47973-2.7705-0.76958-3.463-0.18772-1.1058-0.068176-1.0605 0.020405-2.6453-0.12469-1.9968-0.54152-4.6802-0.26953-1.4703-0.24006-1.0567-0.29111-1.0572-0.4343-1.2976-0.54517-1.4366-0.64968-1.5434-0.78198-1.6205-0.53777-0.97305-0.50094-0.82004-0.74166-1.0808-0.064699-0.4728 0.21292-0.49203 0.37179-0.56143 0.4027-0.50456 0.7192-0.72998 0.78945-0.65491 1.4307-1.0678 0.85741-0.77382 0.81147-0.92513 1.3016-1.9086 0.71086-0.95979 0.96341-1.1556 2.0433-2.3337 0.93928-1.1725 1.0269-1.4726 0.4819-0.7803 0.35127-0.65152 0.45978-0.97419 0.3178-1.0014 0.05387-0.36991-0.027304-0.9382-0.39855-2.2552-0.062888-1.0025 0.005226-0.99456 0.074708-0.85847 0.18227-1.2259 0.23644-1.2186 0.83071-3.5612 0.21578-1.0734 0.4589-2.4558 0.10868-0.92894-0.022063-0.47392-0.09028-0.37507-0.20476-0.4-0.21775-0.24286-0.37927-0.24852-1.5667-0.7041-0.54849-0.31657-1.1757-0.78201-0.50705-0.26709-1.9179-0.73347-0.77346-0.37056-0.80205-0.44574-1.2882-0.8266-1.2847-1.0046-0.90736-0.87323-0.96677-1.1414-0.75128-1.0947-1.7979-2.7945-0.47973-0.6624-1.3153-1.5981-0.40905-0.44366-0.23469-0.19122 0.41414-0.14494 4.81-0.98812 3.4165-0.82868 1.1612-0.32531 2.0022-0.63815 0.80448-0.29288 1.4801-0.61978 1.3468-0.70047 0.94022-0.61548 0.82372-0.68186 0.88521-1.0237 0.53896-0.97832 0.27755-0.74224 0.18221-0.65959 0.14989-0.71071 0.17988-1.1492 0.57321-5.3605 0.25688-1.9838 0.35571-2.0439 0.94721-4.7593 0.2143-1.4712 0.095853-1.2946-0.030255-1.8859-0.1575-1.7622-0.35102-2.3833-0.84643-4.8276-0.18027-1.2564-0.14198-1.3051-0.078266-1.3593 9.44e-4 -0.88206 0.067053-1.063 0.31446-2.493 0.40456-2.2949 0.40442-1.7075 0.52623-1.9974 1.0743-3.7614 0.45713-1.7405 0.32468-1.5748 0.10104-0.73884 0.051538-0.82877-0.020173-0.66887-0.050147-0.43438-0.30062-1.1632-0.43473-1.0078-0.40224-0.74653-2.006-3.1729-0.64602-1.1476-0.67878-1.5593-0.41143-1.6435-0.081741-1.6718 0.11613-1.6348 0.63477-4.9021 0.33087-3.027 0.25078-3.1478 0.18755-3.165 0.039601-1.2795-0.028857-0.27537-0.039637-0.034903 0.32364-0.020573 0.74261 0.28134 2.6284 1.3265 1.2127 0.4839 1.1526 0.26686 2.9659 0.38557 0.58102 0.045685 1.3871-0.022545 3.9588-0.35972 2.4113-0.34763 0.72916-0.20095 0.67321-0.29086 0.61262-0.349 0.44724-0.2995 0.67971-0.55252 1.1191-1.1359 0.96413-1.1357 4.9758-6.1944 1.4627-1.6737 1.0063-1.0449 2.1131-2.0033 1.0447-0.93912 1.6195-1.3841 2.278-2.1178 2.3162-2.0922 0.56834-0.56404 0.4959-0.5556 0.37698-0.50624 0.63164-1.1383 0.33081-0.52546 0.41382-0.41081 0.44227-0.22202 0.1193-0.023492 0.32832 0.017542 0.2278 0.11885 0.036442 0.19282 0.11035 0.21037 0.49013 0.57753 0.52265 0.44118 0.82373 0.51793 0.81485 0.35491 1.1136 0.25338 0.65664 0.024619 0.83004-0.083715 0.47095-0.096392 0.8851-0.26012 1.1667-0.4601 2.0426-0.9427 1.6684-0.69134 1.5276-0.51185 0.67406-0.18857 0.95893-0.19812 0.97488-0.1254 0.76204-0.052147 1.6804 3.59e-4 0.59324 0.037606 1.1976 0.14993 0.75858 0.16322 0.69759 0.23959 0.86927 0.49061 2.4772 1.973 0.79464 0.48891 1.8145 0.97848 0.96734 0.58253 0.66361 0.46779 1.9458 1.5767 1.084 0.71622 1.2019 0.66349 1.2833 0.61581 1.3323 0.57011 2.7053 1.0037 0.69635 0.22459 1.3668 0.3602 1.3399 0.19417 1.3039-0.012166 0.97564-0.11315 0.79056-0.16672 0.57858-0.17814 1.0746-0.49242 0.61705-0.41046 0.69227-0.63667 0.48004-0.55922 1.0965-1.4485 0.59802-0.72335 0.64979-0.65151 1.0216-0.70324 0.76364-0.28974 0.82744-0.15579 0.44134-0.032021 0.63262 0.001844 1.282 0.1166 1.132 0.19386 1.479 0.33621 1.8348 0.55507 1.1341 0.41079 2.5018 0.98369 2.4109 0.8614 2.088 0.6215 2.1617 0.52044 1.415 0.27057 1.4201 0.2126 1.0486 0.11534 1.0489 0.072265 1.4819 0.022793 1.8769-0.058576 1.6494-0.10243 4.2153-0.35687 4.6323-0.60936 2.1755-0.38954 2.3288-0.53972 2.4235-0.63302 1.1369-0.32554 0.9739-0.33278 1.7393-0.72468 1.5075-0.73195 1.5733-0.89686 1.0913-0.7182 1.0747-0.77058 1.9852-1.5427 1.3381-1.1502 1.4086-1.3721 1.3418-1.3838 1.3122-1.2927 1.3101-1.0846 1.3188-0.75064 0.58451-0.19922 0.6247-0.13045 0.56643-0.051914 0.57312 0.013297 0.46943 0.076093 0.53424 0.30705 0.14435 0.65694 0.30888 2.3549 0.54901 3.4963 0.38427 2.2017 0.86092 4.5501" stroke="#bdc660"/>
    </defs>
    <g clip-path="url(#p62f84c6078)">
     <use y="280.512" fill="#bdc660" stroke="#bdc660" xlink:href="#m251cf9a9b1"/>
    </g>
   </g>
  </g>
 </g>
 <defs>
  <clipPath id="p62f84c6078">
   <rect x="7.2" y="7.2" width="266.88" height="266.11"/>
  </clipPath>
 </defs>
</svg>
