<?xml version="1.0" encoding="UTF-8"?>
<!DOCTYPE svg  PUBLIC '-//W3C//DTD SVG 1.1//EN'  'http://www.w3.org/Graphics/SVG/1.1/DTD/svg11.dtd'>
<svg width="371.52pt" height="271.85pt" version="1.1" viewBox="0 0 371.52 271.85" xmlns="http://www.w3.org/2000/svg" xmlns:xlink="http://www.w3.org/1999/xlink">
 <metadata>
  <rdf:RDF xmlns:cc="http://creativecommons.org/ns#" xmlns:dc="http://purl.org/dc/elements/1.1/" xmlns:rdf="http://www.w3.org/1999/02/22-rdf-syntax-ns#">
   <cc:Work>
    <dc:type rdf:resource="http://purl.org/dc/dcmitype/StillImage"/>
    <dc:date>2024-07-04T12:11:11.303932</dc:date>
    <dc:format>image/svg+xml</dc:format>
    <dc:creator>
     <cc:Agent>
      <dc:title>Matplotlib v3.7.1, https://matplotlib.org/</dc:title>
     </cc:Agent>
    </dc:creator>
   </cc:Work>
  </rdf:RDF>
 </metadata>
 <defs>
  <style type="text/css">*{stroke-linejoin: round; stroke-linecap: butt}</style>
 </defs>
 <g id="figure_1">
  <g id="patch_1">
   <path d="m0 271.85h371.52v-271.85h-371.52v271.85z" fill="none"/>
  </g>
  <g id="axes_1">
   <g id="PatchCollection_1">
    <defs>
     <path id="m291035cf00" d="m275.98-235.74 2.113 2.9425 1.358 1.9739 0.65486 0.99875 0.65569 1.0451 1.2632 2.1178 1.8325 3.215 14.934 26.833 0.31313 0.26096 1.0489 0.95412 4.0901 3.7897 2.0128 1.8362 1.3242 1.1543 1.1688 0.94058 0.89843 0.63885 0.71158 0.44167 0.91947 0.50117 1.3138 0.63029 1.8401 0.78213 1.4844 0.57531 3.7233 1.36 2.3734 0.93993 1.2695 0.47713 0.66503 0.22434 0.67567 0.19754 0.67442 0.15547 0.42181 0.069462 0.42063 0.041374 0.53577 0.002507 0.46177-0.047858 0.49343-0.098691 0.59933-0.17836 0.64683-0.24554 0.85044-0.37039 1.3472-0.63779 0.867-0.33619 0.59629-0.16069 0.52728-0.090133 0.47937-0.030736 0.25862 0.029724 0.097322 0.071259-0.10084 0.15476-0.15361 0.32226-0.16433 0.42373-0.14077 0.47674-0.089566 0.49529-0.013692 0.48891 0.07907 0.49017 0.39945 1.5688 0.63011 2.9989 0.89712 3.9685 0.27104 1.3085 0.20796 1.3036 0.061935 0.65047 0.019026 0.64975-0.023724 0.52884-0.053986 0.52868-0.17305 1.0579-0.24309 1.117-0.29587 1.1786-0.46259 1.6673-1.534 5.1612-0.25935 0.96207-0.13034 0.5586-0.22223 1.1151-0.16395 1.0326-0.08989 0.82254-0.3326 2.7548-0.42025 3.866-1.4862 14.758-0.27137 3.1227-0.066013 1.0345-0.054621 1.3531-0.009411 0.77425 0.021154 1.1724 0.069593 1.2229 0.11713 1.2579 0.36462 2.8684 0.72206 5.0193 0.27917 1.7544 0.26682 1.2366 0.23832 0.84822 0.4311 1.2608 0.43855 0.97658 1.1068 2.0261 0.28458 0.45891 0.431 0.54102 1.5785 1.5655 0.54113 0.56404 1.0076 1.146 0.8817 1.1394 0.41597 0.58926 0.50326 0.76154 0.48357 0.78417 0.86828 1.5415 1.2279 2.4124 1.5832 3.3081 0.45311 1.0064 0.33466 0.82176 0.19594 0.56283 0.17872 0.67191 0.085209 0.45178 0.11745 0.95482 0.025106 0.97244-0.015288 0.30928-0.060323 0.66427-0.087709 0.68345-0.25109 1.4547-0.15798 0.65268-0.19035 0.64807-0.40672 1.1436-0.40471 0.97449-0.64606 1.4563-0.20246 0.51207-0.18578 0.65286-0.022673 0.52164 0.1987 0.48973 0.32318 0.30012 0.49696 0.25067 0.46472 0.14942 1.5064 0.36909 0.58196 0.17687 0.67039 0.28514 0.45055 0.29329 0.34779 0.32938 0.29574 0.38162 0.3032 0.54126 0.15196 0.37948 0.10451 0.36699 0.059789 0.52412-0.10348 0.32572-2.1262 0.042277-12.129 0.11589-2.7244 0.057674-1.1532 0.042728-1.1234 0.06065-1.0862 0.086043-1.0383 0.12141-0.97572 0.16992-0.89349 0.2356-0.78525 0.32345-0.64321 0.43967-0.45344 0.55718-0.27311 0.66502-0.091076 0.81691 0.06358 0.8807 0.31831 1.8506 0.13106 0.92665 0.029205 0.90048-0.14217 0.85292-0.36256 0.77995-0.54904 0.72632-0.6888 0.68556-0.79246 0.65473-0.86863 0.63143-0.92412 0.61372-0.92631 0.57704-1.9747 1.1537-2.082 1.1553-5.7234 3.103-3.0458 1.7107-1.1679 0.71352-0.57469 0.39655-0.52251 0.41654-0.58169 0.59469-0.32045 0.4695-0.22041 0.49216-0.14825 0.53199-0.124 0.95249-0.018796 0.67531 0.019536 0.6989 0.045605 0.66958 0.15999 1.3802 0.11416 0.70117 0.15363 0.76809 0.18347 0.7565 0.33357 1.0916 0.25045 0.65368 0.37354 0.84608 0.41844 0.7988 0.476 0.72442 0.54973 0.61775 0.42248 0.34563 0.45185 0.29796 1.2096 0.68341 0.4179 0.26385 0.48546 0.38278 0.36695 0.38937 0.31992 0.43658 0.1544 0.25211 0.2638 0.53258 0.23341 0.61991 0.095393 0.31852 0.1676 0.69232 0.11026 0.63324 0.047214 0.49942-0.031577 0.27519-2.1506 2.0196-0.7879 0.69704-0.78013 0.64488-0.74227 0.55129-0.658 0.3964-0.6172 0.23244-0.56627 0.099596-0.44936 0.02473-0.45165-0.02028-0.6787-0.11395-1.3567-0.32407-0.69492-0.092265-0.6889 0.014087-0.69474 0.1002-0.68522 0.15986-1.4029 0.44075-0.68684 0.18931-0.63096 0.056208-0.47533-0.092102-1.416-0.57002-0.39983-0.098408-0.41785-0.063454-1.4035-0.11759-1.2255-0.19747-0.43747-0.037416-0.45899-0.011502-0.53037 0.019325-0.54521 0.061816-0.86569 0.19622-0.7854 0.26943-0.51084 0.21472-0.85326 0.41255-0.50301 0.26901-2.7926 1.6477-0.53904 0.29884-0.41785 0.20972-0.61997 0.24933-0.67595 0.15884-0.51869-0.009649-0.4845-0.20222-0.41166-0.32812-0.40431-0.35626-0.46182-0.2896-0.48125-0.14069-0.54811-0.069557-1.2086-0.11368-0.62047-0.13908-0.40806-0.15183-0.74199-0.3675-2.4283-1.3346-0.57476-0.22978-0.70819-0.14361-0.70878-0.041179-0.41378 0.004398-0.39605 0.033074-0.50188 0.10116-0.95207 0.25607-0.60671 0.064915-0.6171-0.091636-0.53709-0.18498-0.61441-0.27686-1.2178-0.6956-1.0501-0.50932-0.87693-0.37858-0.47043-0.17867-0.49245-0.14885-0.88456-0.15585-0.96548-0.05938-1.0172 0.016839-1.0345 0.074774-0.89206 0.1005-0.83076 0.1214-0.71516 0.12955-0.52603 0.12108-0.17807 0.056605-0.062623 0.040718-0.24779-0.37503-0.4156-0.73223-1.0656-2.0415-0.55801-1.1488-0.53627-1.1711-0.38598-0.90184-0.44141-1.1446-0.57563-1.8038-0.26904-0.98199-0.20555-0.96273-0.28382-2.0483-0.16658-0.90162-0.28647-0.96303-0.39013-0.95975-0.47034-0.9525-0.53284-0.94084-0.58234-0.92403-0.53707-0.78006-0.47448-0.63972-0.62392-0.7811-1.9754-2.2658-0.48367-0.61943-0.4111-0.63368-0.39817-0.87318-0.22548-0.88152-0.045093-0.85229 0.13992-0.71429 0.25409-0.50394 0.40617-0.49599 0.57429-0.48012 0.56442-0.34641 0.52056-0.25034 0.51477-0.20222 0.88724-0.2824 2.0867-0.59613 0.89148-0.28722 0.94177-0.34051 0.93048-0.38233 0.65179-0.30106 0.63865-0.3254 0.67037-0.37905 0.6496-0.41035 1.2496-0.89593 1.3345-1.0457 1.0883-0.95087 0.56732-0.53601 0.49468-0.51135 0.32111-0.37052 0.39944-0.52209 0.3555-0.55292 0.26854-0.52591 0.12289-0.30784 0.16119-0.6021 0.058549-0.58895-0.008014-0.25698-0.028272-0.23479-0.092585-0.3873-0.15871-0.40651-0.16321-0.30746-0.24284-0.36028-0.369-0.42256-0.27388-0.2512-0.28883-0.22319-0.3612-0.23129-0.42807-0.21883-0.62368-0.25501-1.3959-0.51588-0.51752-0.23436-0.80669-0.43278-0.79119-0.49954-0.77051-0.56116-0.6021-0.49732-0.5756-0.53368-0.50012-0.51703-0.54352-0.60284-1.3145-1.499-4.8151-5.7997-1.152-1.4981-0.75293-1.0916-0.6325-0.99746-0.40795-0.68334-0.65222-1.1614-2.9061-5.5648-0.54332-1.1064 0.003081-0.23767-0.14156-0.44987-0.2572-0.57648-0.39786-0.69623-0.50781-0.69291-0.61401-0.63294-0.15785-0.1333-0.84399-0.57508-0.9688-0.48628-0.76228-0.31228-0.63873-0.235-1.2136-0.40944-2.8143-0.8423-1.5694-0.55043-1.8542-0.80899-1.445-0.55221-0.85571-0.38612-0.59962-0.34964-0.56884-0.42346-0.41804-0.38634-0.17164-0.18067-0.53357-0.64087-0.45122-0.64286-0.79161-1.3445-0.21709-0.22925-0.22802-0.10234-0.1618 0.017649-0.13242 0.064199-0.13226 0.10576-0.12133 0.14049-0.093661 0.15126-0.17817 0.52208-0.056747 0.36497-0.012467 0.24356 0.014427 0.43406 0.059645 0.52553 0.15413 0.8703 0.31598 1.5034 0.179 1.173 0.066114 0.78171 0.015637 0.54482-0.010986 0.43683-0.060044 0.62262-0.11105 0.66176-0.12742 0.59164-0.11603 0.43753-0.23423 0.68654-0.13634 0.32782-0.27807 0.57176-0.26645 0.46458-0.27702 0.422-0.33071 0.44481-0.36951 0.44387-0.60308 0.64058-0.43362 0.40618-1.0961 0.9066-1.0522 0.7786-0.89831 0.5738-1.0236 0.56057-2.492 1.1067-1.2078 0.56485-0.83359 0.42833-0.5148 0.31813-0.59551 0.42573-1.042 0.85569-0.49035 0.46974-0.59829 0.66428-0.57296 0.73878-0.44846 0.64938-0.58906 0.97236-0.85875 1.6725-0.27371 0.49009-0.35373 0.56961-0.50152 0.71331-0.54552 0.68468-0.77705 0.83971-0.57372 0.54434-0.40522 0.32251-0.17815 0.11731-0.24336 0.13234-0.46588 0.1656-0.31286 0.055692-0.2698 0.015769-0.33932-0.019817-0.25065-0.039583-0.56352-0.15758-0.4646-0.1868-0.476-0.23111-1.0471-0.60307-1.5433-1.0172-4.7568-3.3876-1.7351-1.1765-0.90051-0.56324-1.7666-1.03-0.52356-0.2926-0.42126-0.21072-0.069564-0.007922-2.3467-1.4846-1.485-1.0077-0.60172-0.43632-1.3488-1.0007-1.2449-0.95624-0.9825-0.81069-1.214-1.1032-0.64084-0.63405-0.75952-0.79354-0.61084-0.69479-1.2088-1.4928-1.237-1.4629-1.463-1.6447-1.3732-1.4803-1.671-1.6523-2.6453-2.5-4.2048-4.0268-2.5582-2.4824-1.2362-1.226-0.99837-1.0249-1.2002-1.2956-0.91919-1.0527-1.307-1.552-0.13456-0.27762-0.45646-0.32669-0.60224-0.27124-0.88588-0.25333-1.0124-0.14143-0.83796-0.017974-0.86818 0.047628-3.5985 0.4118-1.8525 0.12986-1.1535 0.039024-1.1468 0.009621-1.1356-0.019046-1.1203-0.048885-1.1012-0.081875-1.9298-0.20371-1.9712-0.24628-3.5898-0.54198-1.1273-0.15899-1.1153-0.13141-1.5361-0.11288-1.6259-0.035494-0.56668 0.034896-0.77309 0.10558-0.76698 0.17272-0.78494 0.24393-0.57352 0.22188-0.91575 0.43254-0.87725 0.50831-0.49688 0.34588-0.52809 0.44022-0.3822 0.38853-0.28533 0.34642-0.27558 0.39864-0.24508 0.42833-0.11745 0.23907-0.26458 0.65767-0.20728 0.69108-0.19843 0.93797-0.1526 1.1698-0.081106 1.2545-0.001896 1.1069 0.060063 1.1873 0.091636 1.1198 0.20489 1.9451 0.16185 1.3187 0.27156 1.7858 0.65952 3.604 0.16218 1.1525 0.20664 2.1998 0.15861 2.9155 0.081469 0.84612 0.080286 0.40576 0.15382 0.46942 0.22949 0.42306 0.37851 0.55953 0.18992 0.32636 0.13003 0.2878 0.16026 0.48222 0.13455 0.64031 0.059654 0.52531 0.017535 0.36145-8.6e-5 0.36466-0.030406 0.48938-0.089779 0.50622-0.16175 0.50995-0.10763 0.24682-0.1588 0.30194-0.18892 0.29829-0.2843 0.37261-0.46506 0.49922-0.35491 0.32744-0.36313 0.30188-0.43379 0.3251-0.69211 0.44956-0.78159 0.43963-0.7276 0.36334-2.2132 1.0132-1.1245 0.60551-1.1983 0.74294-1.7406 1.1812-1.0501 0.68499-1.0727 0.63434-0.7287 0.3799-0.42171 0.19597-0.94305 0.38006-0.92252 0.29744-0.51591 0.12823-0.85419 0.15369-0.45681 0.04778-0.59018 0.006777-0.54079-0.073598-0.41119-0.1448-0.55304-0.39411-0.46555-0.54397-0.39998-0.62403-1.1292-2.1103-0.42401-0.72071-0.47156-0.69422-0.53603-0.64535-0.66269-0.61934-0.73891-0.5484-0.79768-0.48762-0.84222-0.43347-0.87517-0.38241-0.88943-0.32776-0.9047-0.27296-0.90134-0.20785-0.90352-0.1358-0.89972-0.048312-0.88995 0.060167-0.61995 0.11781-0.61671 0.16985-0.73144 0.24868-2.4983 0.93957-1.8388 0.59641-1.9289 0.55704-2.7798 0.76748-5.9946 1.6319-1.8585 0.48369-0.083594-0.1067-0.14956-0.27826-0.51491-1.0677-0.91156-2.0875-0.4123-1.0363-0.42146-1.1375-1.0111-2.9551-0.33012-0.90291-0.47043-1.1598-0.46925-1.0407-0.45416-0.9301-0.67798-1.295-0.86891-1.5501-2.1054-3.5163-0.51848-0.91043-0.34042-0.62937-1.0018-1.9813-0.28837-0.52746-0.32588-0.48485-0.27645-0.28683-0.30529-0.1821-0.17783-0.048385-0.17838-0.015125-0.37394 0.047473-0.4466 0.1465-0.40325 0.17729-0.54154 0.28017-0.45913 0.27181-0.51314 0.33171-1.7968 1.2464-0.52856 0.33604-0.56689 0.32441-0.4751 0.2439-1.385 0.6296-1.9145 0.80716-2.0529 0.81027-1.0715 0.40037-2.1706 0.74849-1.0901 0.33106-1.0855 0.28515-1.0725 0.22031-1.0472 0.13015-1.0046 0.007311-0.93768-0.15512-0.69915-0.27274-0.61138-0.39276-0.49894-0.49336-0.35888-0.5713-0.1795-0.52585-0.065037-0.52006 0.085562-0.65441 0.24883-0.34012 5.8262-11.516 6.171-12.307 1.3191-2.4715 0.47496-0.80753 0.26447-0.39638 0.25875-0.33422 0.19816-0.21815 0.49113-0.42527 0.58338-0.37517 0.3362-0.17979 0.80206-0.376 2.7337-1.161 0.55126-0.26873 0.56334-0.31551 0.37484-0.24606 0.53384-0.43383 0.32448-0.34582 0.17424-0.2292 0.21122-0.3327 0.17533-0.3309 0.26873-0.62441 0.27404-0.80958 0.17997-0.66398 0.17364-0.76056 0.1335-0.66931 0.53674-3.0436 0.33041-1.6654 0.42852-1.9792 0.29152-1.6322 0.1481-1.2553 0.038954-0.64948-0.009264-3.0761 0.023211-0.69241 0.036639-0.45879 0.15404-0.87825 0.28014-0.71731 0.091066-0.14809 0.2488-0.30729 0.26366-0.22306 0.31991-0.18344 0.18662-0.075146 0.42499-0.11372 0.63305-0.092356 0.82132-0.029095 0.43397 0.021229 0.92139 0.083898 1.9567 0.19754 1.3747 0.17051 1.0556 0.094754 1.3158 0.073001 1.025-0.019455 1.1689-0.091938 2.0984-0.28346 2.0944-0.20482 1.5723-0.24237 1.0665-0.2218 0.55354-0.1385 0.72045-0.21628 1.8178-0.65052 0.9366-0.28583 1.0048-0.24133 2.4553-0.50076 2.7029-0.701 2.2758-0.48945 0.87539-0.24771 1.3365-0.45457 2.4793-0.92536 0.4698-0.19194 0.71996-0.33252 1.5984-0.84497 2.8728-1.4651 1.9868-1.0724 0.88129-0.42751 1.1349-0.4433 1.9935-0.66132 1.2284-0.35595 1.6307-0.43086 3.2045-0.73309 2.0495-0.38132 4.5044-0.72516 1.8478-0.35965 0.87915-0.1926 0.9978-0.24634 1.2259-0.34574 0.8301-0.26674 1.8307-0.63156 1.8767-0.57554 1.1858-0.3044 0.36722-0.061664 0.081792 0.012482 0.177-0.71597 0.14046-0.45831 0.57925-1.3356 0.13327-0.37247 0.10274-0.36543 0.2064-0.99713 0.27795-2.0662 0.082158-0.40523 0.13833-0.42299 0.20478-0.40267 0.24317-0.35276 0.28241-0.33816 0.98715-1.0844 0.29207-0.38831 0.14679-0.2285 0.36115-0.69363 0.46322-1.1678 0.083694-0.047707 0.22754-0.2766 0.58693-0.86741 0.495-0.68776 0.44302-0.5441 0.70768-0.74007 0.82119-0.71532 2.3752-1.9061 0.94964-0.82852 0.77321-0.73168 0.42574-0.43011 1.6956-1.7914 0.97134-0.92768 0.86062-0.70726 2.0739-1.4736 1.4748-1.1368 1.8569-1.6056 2.4614-2.038 0.67805-0.58915 0.83151-0.79569 0.57826-0.64698 0.42367-0.56028 0.34865-0.55174 1.26-2.2495 0.22652-0.43765 0.36178-0.79441 0.348-0.90406 0.16965-0.51801 0.30158-1.1759 0.12197-0.68095 0.10083-0.76513 0.085959-0.9681 0.050497-0.99399 0.01113-0.6827-0.019759-0.7256-1.6e-5 -0.082594 0.035448-0.060112 0.088826-0.088576 0.24269-0.14105 0.22014-0.086104 0.58342-0.14383 0.78254-0.082521 0.7481-0.005316 0.54965 0.027736 2.4206 0.23508 1.8587 0.12097 1.3966 0.010886 0.58543-0.031853 0.56328-0.061505 0.67379-0.11118 1.0267-0.23866 0.58502-0.16847 1.2626-0.43679 1.5316-0.61916 0.70713-0.2622 1.0768-0.34648 1.0803-0.25923 0.49843-0.084853 0.85734-0.096196 0.51215-0.03131 0.82035-0.013929 1.158 0.051056 1.3202 0.13184 2.1846 0.2824 0.5251 0.038444 0.6603 0.011739 1.0929-0.060278 3.3567-0.36621 0.72436-0.048124 0.57965-0.003587 0.64168 0.042673 0.61562 0.082273 0.96733 0.18129 1.3842 0.29236 0.6273 0.10035 0.5959 0.058908 0.51934 0.025647 1.1651-0.016288 1.1487-0.090198 1.3009-0.17422 1.2213-0.20639 1.5434-0.32816 0.68339-0.1751 0.68584-0.2269 0.9005-0.36563 0.83962-0.38435 1.4424-0.73878 1.8038-1.0248 3.8352-2.3245 0.91081-0.57482 1.0727-0.71713 1.1551-0.82094 0.69561-0.56142 0.47885-0.46053 0.49361-0.54671 0.66155-0.84828 0.57551-0.8537 0.38124-0.62858 0.3518-0.62796 0.5693-1.1357 0.35247-0.80471 0.26754-0.68846 0.26841-0.78758 0.16647-0.55366 0.24926-0.9293 0.20429-0.85975 0.26219-1.2596 0.40821-2.2759 0.91605-5.4209 0.15338-0.72034 0.12749-0.41457 0.17053-0.38686 0.14057-0.23049 0.25438-0.31101 0.31924-0.28945 0.33381-0.2312 0.35134-0.19029 0.43298-0.18122 0.40579-0.12738 0.49185-0.12103 0.53272-0.099974 0.5803-0.06937 0.57479-0.038016 1.0574-0.003554 1.157 0.10627 1.5618 0.24144 1.1318 0.2138 0.83068 0.18487 0.79526 0.21786 0.62962 0.20294 0.60207 0.2196 0.70955 0.29135 0.8964 0.43194 0.77916 0.44906 0.86421 0.58257 0.72391 0.56939 0.66239 0.60298 0.83168 0.83489 2.8927 3.0147 0.37253 0.44289 0.030265-0.016626 0.11307 0.035982 0.58393 0.28877 0.44116 0.18494 0.70141 0.21978 0.36807 0.086774 0.37154 0.060798 0.3231 0.027437 0.42348-0.002411 0.44187-0.054399 0.64811-0.1833 0.63218-0.28121 0.61734-0.35099 0.60437-0.39914 0.59343-0.43144 1.1616-0.9181 1.6024-1.3479 0.97298-0.86438 1.0069-0.94514 4.523-4.3434 1.5135-1.4928 0.96306-1.0438 0.45385-0.54866 0.43697-0.58339 0.4179-0.60243 1.2251-1.8475 0.42521-0.60003 0.4474-0.5716 0.47889-0.52467 0.52018-0.45361 0.57022-0.35314 0.54728-0.21064 0.56404-0.12517 0.54815-0.056288 0.48873-0.003566 0.36941 0.031462 0.16843 0.047886 12.608 17.131" stroke="#bdc660"/>
    </defs>
    <g clip-path="url(#p94845dc15e)">
     <use y="271.851752" fill="#bdc660" stroke="#bdc660" xlink:href="#m291035cf00"/>
    </g>
   </g>
  </g>
 </g>
 <defs>
  <clipPath id="p94845dc15e">
   <rect x="7.2" y="7.2" width="357.12" height="257.45"/>
  </clipPath>
 </defs>
</svg>
