<?xml version="1.0" encoding="UTF-8"?>
<!DOCTYPE svg  PUBLIC '-//W3C//DTD SVG 1.1//EN'  'http://www.w3.org/Graphics/SVG/1.1/DTD/svg11.dtd'>
<svg width="322.17pt" height="280.51pt" version="1.1" viewBox="0 0 322.17 280.51" xmlns="http://www.w3.org/2000/svg" xmlns:xlink="http://www.w3.org/1999/xlink">
 <metadata>
  <rdf:RDF xmlns:cc="http://creativecommons.org/ns#" xmlns:dc="http://purl.org/dc/elements/1.1/" xmlns:rdf="http://www.w3.org/1999/02/22-rdf-syntax-ns#">
   <cc:Work>
    <dc:type rdf:resource="http://purl.org/dc/dcmitype/StillImage"/>
    <dc:date>2024-07-04T12:11:10.942714</dc:date>
    <dc:format>image/svg+xml</dc:format>
    <dc:creator>
     <cc:Agent>
      <dc:title>Matplotlib v3.7.1, https://matplotlib.org/</dc:title>
     </cc:Agent>
    </dc:creator>
   </cc:Work>
  </rdf:RDF>
 </metadata>
 <defs>
  <style type="text/css">*{stroke-linejoin: round; stroke-linecap: butt}</style>
 </defs>
 <g id="figure_1">
  <g id="patch_1">
   <path d="m0 280.51h322.17v-280.51h-322.17v280.51z" fill="none"/>
  </g>
  <g id="axes_1">
   <g id="PatchCollection_1">
    <defs>
     <path id="m7ece7054a2" d="m243.7-203.83-0.63017 1.0927-0.71857 1.1399-0.78009 1.088-0.86493 1.0144-0.37819 0.38261-1.0709 0.94444-1.1596 0.87375-1.2287 0.82403-1.2832 0.79075-2.6913 1.5303-3.3813 1.7928-10.489 5.3103-1.0586 0.56741-0.19784 0.13459-3.5867 2.044-2.2628 1.4099-1.109 0.7517-1.4364 1.0541-1.0126 0.79362-1.2632 1.0488-1.1126 1.0239-0.89214 0.92464-0.7583 0.88818-0.68616 0.94627-0.44789 0.76347-0.25148 0.54284-0.18767 0.54304-0.1109 0.51858-0.033392 0.51637 0.16277 0.96707 0.40464 0.9475 0.58918 0.91857 0.73484 0.87781 0.63217 0.62616 0.68544 0.59774 0.67315 0.5303 0.70252 0.50564 0.7276 0.47813 0.76298 0.45457 0.78254 0.41892 0.79974 0.3788 0.77488 0.31775 0.7874 0.27147 0.85121 0.23675 3.2344 0.72774 0.79331 0.24479 0.48979 0.19242 1.0494 0.55459 0.72089 0.48289 0.70433 0.5401 0.62273 0.52636 1.2363 1.1586 0.61768 0.62441 1.2856 1.3667 2.3631 2.637 5.696 6.4595 1.3808 1.5151 1.5165-1.7146 0.80338-0.83535 0.79163-0.77292 0.84289-0.77366 1.0512-0.89803 0.77741-0.61756 1.2433-0.90846 1.3999-0.92533 1.0681-0.63687 0.75758-0.4177 0.81383-0.41115 0.73815-0.33058 0.73776-0.27693 0.51779-0.15324 0.51609-0.11174 0.77386-0.076218 0.33982 0.006983 0.3663 0.040179 0.41948 0.097702 0.85133 0.40586 0.82139 0.59546 0.72449 0.59215 3.8867 3.3737 0.84493 0.70699 1.3112 1.0262 0.82221 0.58605 0.84224 0.54512 0.8258 0.47321 0.8483 0.41703 0.44996 0.19138 1.2178 0.43573 2.4782 0.75646 1.2235 0.43639 1.1941 0.54009 1.167 0.63113 1.1466 0.69973 1.1316 0.75064 2.3135 1.6619 3.432 2.6368 5.7049 4.5342 2.2872 1.8472 2.2853 1.8845 2.2669 1.9546 1.1158 1.0205 1.0942 1.0626 0.75408 0.78289 0.81755 0.90926 0.92502 1.1099 1.6331 2.1294 1.5883 2.2242 1.6602 2.4341 2.2395 3.3686 0.49978 0.73618 0.21809 0.28184-0.10951 0.1489-0.54233 0.58253-1.8592 1.9007-3.4932 3.4937-3.5863 3.5315-3.5012 3.3607-2.3047 2.1129-1.1534 1.0062-1.1593 0.96244-1.1563 0.90038-1.6109 1.1448-0.82424 0.52808-0.8183 0.48917-2.3823 1.2884-1.0271 0.59948-0.39752 0.2839-0.36041 0.32163-0.44012 0.60076-0.10344 0.21619-0.14309 0.43024-0.089434 0.49637-0.051092 0.74711-0.041609 1.9837-0.08713 1.4384-0.088029 0.66925-0.5523 3.3415-0.27044 1.2599-0.34893 1.2577-0.39172 1.164-0.73022 1.818-0.47179 1.049-0.50658 1.0492-0.96908 1.8132-2.11 3.5721-1.4599 2.6501-2.0555 4.0361-2.0919 3.7884-0.51228 1.093-0.086446 0.25817 0.002131 0.14376-0.032344 0.11154 0.028927 0.24339 0.087612 0.32587 0.19161 0.46238 0.39807 0.67595 0.46357 0.62421 0.79683 0.9083 0.81695 0.78669 0.58159 0.49173 2.2532 1.7614 0.41954 0.36554 0.56902 0.56374 0.80281 0.93896 0.85171 1.1565 0.51893 0.82119 0.23808 0.42305 0.40277 0.8209 0.34975 0.8429 1.3854 3.7669 0.11129 0.351 0.11803 0.52952 0.016979 0.21091-0.017473 0.2418-0.10127 0.33295-0.19566 0.34598-0.2136 0.26932-0.24856 0.25268-0.50318 0.40324-0.4401 0.26683-0.20233 0.0918-0.30758 0.08276-0.27979-0.015337-0.2328-0.11747-0.18073-0.18552-0.099806-0.20555-0.012782-0.16952-0.27341-0.27833-0.34581-0.30111-1.3888-1.0878-1.0007-0.69953-1.1164-0.71322-1.4658-0.84855-1.2752-0.6736-1.4142-0.6841-1.8968-0.80872-1.146-0.40565-0.80512-0.2182-0.72408-0.13012-0.59476-0.055411-1.3117 0.015873-1.1086 0.11913-1.0006 0.1598-1.6525 0.34891-1.512 0.43047-0.75357 0.25931-1.3271 0.54127-0.4827 0.22838-1.0194 0.55011-1.0323 0.66616-1.9675 1.4144-1.499 0.97474-0.5918 0.34238-0.72049 0.37799-0.49493 0.23514-1.3751 0.56034-1.2329 0.40625-1.1767 0.33714-3.8499 0.99626-1.1495 0.32323-0.89183 0.27204-1.544 0.51401-0.73692 0.21355-0.84319 0.16523-0.41227 0.031116-0.65056-0.039545-0.56588-0.12892-0.37475-0.13857-0.46765-0.22608-0.62094-0.37636-0.56611-0.40788-0.67441-0.54312-3.2012-2.8362-0.97846-0.76385-0.87397-0.58678-0.83917-0.49352-0.81939-0.40055-0.67141-0.25379-0.80966-0.21546-0.72319-0.11189-1.0169-0.065143-1.9311-0.025944-2.9283 0.044726-1.3333 0.054048-1.1153 0.092318-3.2806 0.34893-1.684 0.10268-0.81091-0.002121-0.94119-0.050949-0.9407-0.098452-0.64852-0.098536-0.89781-0.19198-0.56001-0.15694-0.70516-0.23915-0.94682-0.39722-1.2209-0.62485-4.312-2.3548-1.3124-0.65195-0.94398-0.43625-0.71741-0.28992-0.8419-0.27391-0.73666-0.16401-0.22889-0.014034-0.086032 0.034019-0.43429 0.041293-0.88146 0.14872-0.98173 0.2375-0.44829 0.14844-0.40993 0.1854-0.35626 0.23714-0.35326 0.38278-0.25973 0.46105-0.15931 0.43812-0.13426 0.54362-0.19618 1.025-0.11996 0.4558-0.1482 0.3991-0.19428 0.3789-0.16852 0.25172-0.31962 0.37808-0.3661 0.35275-0.39912 0.3355-0.69232 0.52223-0.7395 0.50081-1.844 1.0804-0.49833 0.34473-0.43925 0.38641-0.40154 0.43428-0.36875 0.47255-0.26314 0.38516-0.37372 0.62974-0.33579 0.67758-0.24386 0.58557-0.19011 0.53291-0.2724 0.90375-0.31282 1.1587-0.28448 1.2512-0.11392 0.81646-0.02942 0.6682 0.029592 0.78049 0.12158 1.4937 0.03403 0.69536 0.001753 0.51165-0.048684 0.93372-0.063492 0.6343-0.17975 1.256-0.24667 1.2959-0.276 1.1937-0.40774 0.22492-0.23083 0.017545-0.30731-1.7243-0.45538-2.3335-0.3555-1.6495-0.44922-1.849-0.60119-2.1255-0.36801-1.1579-1.6763-4.8099-0.35578-1.2029-0.26104-1.1312-0.26284-1.6772-0.20647-2.1223-0.19172-2.9379-0.10237-1.0467-0.19971-1.1678-0.22346-0.74277-0.15144-0.35944-0.34426-0.60419-0.19768-0.29202-0.40141-0.47494-0.33178-0.26259-0.6178-0.30863-0.72978-0.23413-1.3959-0.31336-2.7441-0.43601-3.0373-0.6487-0.84174-0.15412-0.7996-0.090214-0.65819-0.031619-0.70461-6.31e-4 -1.7277 0.054165-1.3286-0.047184-1.7289-0.15235-0.89328-0.11632-0.97014-0.1597-0.96701-0.23313-0.82112-0.26821-0.80134-0.32566-1.1282-0.56408-0.25162-0.085049-0.060109 0.020315-0.13365 0.020063-0.34233-0.055375-1.1064-0.28619-0.95529-0.3317-1.0092-0.41106-0.8997-0.42735-0.55856-0.3002-0.75544-0.44968-0.9879-0.64972-0.81984-0.59133-1.0335-0.79862-1.0541-0.86171-0.73765-0.64728-1.4765-1.4341-2.4501-2.5414-0.80978-0.76839-0.54111-0.47125-1.2034-0.92695-0.95787-0.65904-0.85983-0.5219-0.80271-0.41567-1.5313-0.67022-1.2876-0.47811-1.2204-0.37186-1.3365-0.32027-1.2579-0.24106-2.3593-0.39683-1.0809-0.12399-2.8947-0.2302-0.82634-0.13906-0.81819-0.20226-1.3771-0.44572-1.8259-0.7274-1.0701-0.48282-0.78084-0.46422-0.44792-0.31906-0.75411-0.58792-0.9015-0.7759-0.39221-0.41503-0.34057-0.41189-0.34967-0.49531-0.23923-0.41009-0.23272-0.50573-0.25678-0.78177-0.097263-0.46058-0.16432-1.398-0.14329-0.82348-0.21841-0.86674-0.18899-0.5475-0.3755-0.84878-0.38537-0.71892-0.42826-0.70941-0.3294-0.4949-0.39972-0.5296-0.66635-0.75218-1.0522-1.0246-0.87166-0.74232-0.92272-0.67029-0.6347-0.38041-0.45746-0.21556-0.61244-0.21093-0.39466-0.098974-0.51064-0.089149-0.47911-0.039289-0.54592 0.01189-0.39638 0.043182-0.46289 0.088434-0.67523 0.20088-0.4268 0.16631-0.39391 0.1781-0.65907 0.34648-1.5811 0.97658-1.5487 1.0312-0.774 0.57521-2.3913 1.8866-0.73175 0.52784-1.175 0.78669-1.0595 0.65127-1.1918 0.67088-4.1693 2.0794-1.5006 0.82161-0.96497 0.60323-0.80378 0.56396-1.0096 0.79602-0.72135 0.63911-0.60545 0.61262-0.36826 0.42113-0.38862 0.49913-0.34965 0.51618-0.48358 0.85491-0.21614 0.46057-0.3766 1.0055-0.29784 1.1522-0.1235 0.67562-0.17315 1.3752-0.1257 1.8867-0.055431 2.6389-0.93806 0.053081-4.3627 0.36678-2.4038 0.17756-2.3474 0.1298-1.1388 0.033585-1.1107 0.001715-1.0783-0.042106-1.04-0.10197-0.9933-0.18311-0.93494-0.2921-0.53678-0.24302-0.51467-0.28462-0.44909-0.28388-0.88162-0.6372-1.6222-1.2817-0.59009-0.43948-0.99358-0.64621-1.1537-0.67-0.33964-0.25595-0.31691-0.31362-0.1957-0.25327-0.1949-0.31649-0.22812-0.48894-0.094988-0.26245-0.15441-0.56992-0.10605-0.63087-0.040596-0.64013 0.007138-0.30673 0.046877-0.4862 0.075248-0.44256 0.22187-0.91461 0.2215-0.7356 1.6057-4.8631 0.24191-0.93648 0.12905-0.67129 0.078948-0.67553 0.037871-0.68726 0.063497-3.4449-0.008459-1.268-0.037005-0.82207-0.074599-0.74246-0.1736-0.87732-0.10175-0.29762-0.06084-0.073277 0.21196-0.62014 0.29311-1.1146 0.1848-0.89001 0.13177-0.89168 0.078583-1.0785 0.00118-0.90106-0.10309-1.2739-0.11688-0.73778-0.29582-1.2533-0.32042-1.0124-0.94924-2.6809-0.29853-1.0286-0.2241-1.0039-0.18816-1.2391-0.17745-1.711-0.071791-1.2435-0.075344-2.3787-0.064168-0.76238-0.071784-0.48415-0.090546-0.41339-0.21174-0.62598-0.12729-0.27354-0.25808-0.44744-0.27956-0.38747-0.23792-0.2795-0.33238-0.3417-0.57534-0.51192-1.0286-0.79252-0.84887-0.56169-1.0112-0.58508-1.6683-0.91191-2.4866-1.3162-0.5453-0.31391-1.1908-0.74649-1.0927-0.77248-0.4956-0.38226-0.43695-0.38965-0.20032-0.21553-0.29328-0.42114-0.10786-0.22102-0.20954-0.78121-0.0516-0.57355-2.3e-5 -0.6157 0.059181-0.84957 0.10869-0.89669 0.32064-1.9821 0.26582-1.38 1.3378-6.0127 1.1992-6.0101 0.62595-2.9155 0.61106-2.4539 0.69826-2.358 0.68411-2.0449 0.35908-0.90618 0.31198-0.67718 0.31806-0.61352 0.62507-1.0999 1.3235-2.1193 0.79327-1.3757 0.93027-1.7771 1.1789-2.4316 0.47988-1.1322 0.38177-1.1243 0.27315-1.1315 0.13024-1.1292 0.003442-0.47668-0.12501-1.2184-0.075082-0.34177-0.32674-1.0365-0.46839-1.0989-0.35662-0.70898-0.9559-1.7673-0.73419-1.5126-0.53028-1.3551-0.24015-0.74415-0.20609-0.73327-0.27293-1.1816-0.16369-1.0541-0.045065-0.74777 0.007537-0.58719 0.053093-0.4015 0.077021-0.1242 0.032425-0.10069 0.016691-0.03069 0.098478-0.077038 0.23975-0.089843 0.47032-0.048267 0.30556 0.020645 0.6255 0.12302 0.62596 0.18738 1.8785 0.66775 0.62882 0.1978 0.82873 0.20055 0.49093 0.080571 0.76656 0.075316 2.2696 0.097827 1.1619 0.01164 0.67944-0.021618 1.4318-0.12597 0.64722-0.09947 0.94662-0.21157 0.65674-0.20969 0.7225-0.32646 0.49513-0.32284 0.23054-0.20166 0.14495-0.15503 0.24027-0.3262 0.19848-0.36637 0.17753-0.44692 0.62386-2.1014 0.22847-0.6105 0.2265-0.51786 0.31006-0.60643 0.60894-1.0077 0.40338-0.60568 0.42605-0.59856 0.65204-0.84122 0.5428-0.63513 0.56332-0.60158 0.58002-0.55921 0.59366-0.50542 0.53152-0.38821 0.54059-0.32146 0.63175-0.28128 1.4661-0.55735 0.54361-0.30602 0.39942-0.40944 0.1172-0.2287 0.075548-0.23263 0.069452-0.4329-0.008032-0.73446-0.072337-0.55917-0.11909-0.59518-0.16995-0.65885-0.21211-0.6852-0.31186-0.86137-0.67004-1.5651-0.85738-1.7632-1.3448-2.5756-0.11544-0.26385 0.010459-0.036475 0.076059-0.049454 0.21627-0.06875 0.63889-0.14706 0.86861-0.15734 1.009-0.14744 1.0835-0.12207 1.2564-0.090818 1.2355-0.020451 1.1726 0.07212 1.0744 0.18929 0.59811 0.18078 0.57136 0.21701 1.0651 0.4598 1.2755 0.6186 1.4791 0.84485 0.74624 0.33626 0.65233 0.22467 0.7495 0.1113 0.73688-0.078843 1.1563-0.31101 0.60956-0.12287 0.48103-0.04017 0.50256-0.005342 0.86086 0.050014 0.86014 0.17442 0.69808 0.27908 2.9493 1.621 0.90119 0.44634 0.49561 0.1844 0.75359 0.16892 1.4679 0.13807 0.66571 0.084481 0.58451 0.17088 0.56091 0.35174 0.49106 0.4327 0.49998 0.39852 0.58845 0.2456 0.62998 0.011718 0.82098-0.19291 0.75299-0.30283 0.5075-0.25472 0.65469-0.36296 3.3918-2.0013 0.61093-0.32672 1.0363-0.50107 0.62044-0.26078 0.95391-0.32724 1.0514-0.23832 0.66219-0.07508 0.64416-0.02347 0.55747 0.013969 0.53133 0.045444 1.4884 0.23984 1.7046 0.14282 0.5075 0.077068 0.48561 0.11952 1.7198 0.69232 0.57732 0.11186 0.76634-0.068266 0.8342-0.22993 1.7039-0.53532 0.83224-0.19416 0.8438-0.1217 0.83671-0.01711 0.84402 0.11206 1.6478 0.39361 0.82432 0.13839 0.54855 0.024632 0.54577-0.030036 0.68777-0.12096 0.74962-0.28232 0.79918-0.48145 0.90153-0.66957 0.94751-0.78324 0.95694-0.8466 2.612-2.4529 0.038352-0.33423-0.057344-0.60657-0.13392-0.76911-0.20356-0.84086-0.11586-0.38686-0.28349-0.75291-0.3204-0.64684-0.18753-0.30621-0.38857-0.53025-0.44568-0.47291-0.58962-0.46491-0.50756-0.32046-1.4692-0.83004-0.5488-0.36188-0.51313-0.41979-0.66768-0.75029-0.57813-0.87985-0.50822-0.97019-0.45369-1.0276-0.30419-0.79393-0.40514-1.3258-0.22284-0.91881-0.18659-0.93288-0.13865-0.85161-0.19432-1.6763-0.05539-0.81325-0.023728-0.84886 0.02283-0.82021 0.1506-1.1569 0.18006-0.64613 0.2677-0.59776 0.38921-0.57024 0.7065-0.72228 0.63462-0.50591 0.69799-0.48164 1.4184-0.86661 3.6993-2.0778 6.9514-3.7688 2.5287-1.4032 2.3984-1.4012 1.1251-0.70084 1.1224-0.7454 1.055-0.76691 0.96249-0.7952 0.83659-0.83265 0.66684-0.88216 0.44034-0.94729 0.17267-1.0359-0.03547-1.0937-0.15918-1.1255-0.38661-2.2476-0.077222-1.0697 0.11062-0.99218 0.3317-0.8077 0.55073-0.67672 0.78121-0.53401 0.95373-0.39285 1.0852-0.28614 1.1851-0.20638 1.261-0.14746 1.3192-0.1045 1.3645-0.073662 1.4006-0.051896 3.3089-0.070048 14.732-0.14076 2.5824-0.051347 4.3591-0.07432 9.9854-0.22342 22.411-0.62316 5.2737-0.097532 2.8668 0.00529 1.4317 0.028849 2.7318 0.12144 2.7234 0.21566 1.1969 0.13085 2.3852 0.32624 2.3714 0.41308 2.6359 0.57298 2.6193 0.65685 3.8524 1.0761 48.305 14.544-3.1465 2.7192-3.8058 3.2306-3.8444 3.217-3.7316 3.0615-2.2343 1.7747-4.3472 3.2898-2.6732 2.0695-2.8313 2.2518-1.8997 1.5523-2.6996 2.3013-0.87992 0.79077-1.2973 1.2215-1.402 1.4288-0.66401 0.74015-0.95832 1.1901-0.64529 0.92377-0.60131 0.95417-1.1226 1.9597-2.4785 4.6194" stroke="#bdc660"/>
    </defs>
    <g clip-path="url(#p59abf36448)">
     <use y="280.512" fill="#bdc660" stroke="#bdc660" xlink:href="#m7ece7054a2"/>
    </g>
   </g>
  </g>
 </g>
 <defs>
  <clipPath id="p59abf36448">
   <rect x="7.2" y="7.2" width="307.77" height="266.11"/>
  </clipPath>
 </defs>
</svg>
