<?xml version="1.0" encoding="UTF-8"?>
<!DOCTYPE svg  PUBLIC '-//W3C//DTD SVG 1.1//EN'  'http://www.w3.org/Graphics/SVG/1.1/DTD/svg11.dtd'>
<svg width="158.08pt" height="280.51pt" version="1.1" viewBox="0 0 158.08 280.51" xmlns="http://www.w3.org/2000/svg" xmlns:xlink="http://www.w3.org/1999/xlink">
 <metadata>
  <rdf:RDF xmlns:cc="http://creativecommons.org/ns#" xmlns:dc="http://purl.org/dc/elements/1.1/" xmlns:rdf="http://www.w3.org/1999/02/22-rdf-syntax-ns#">
   <cc:Work>
    <dc:type rdf:resource="http://purl.org/dc/dcmitype/StillImage"/>
    <dc:date>2024-07-04T12:11:12.362189</dc:date>
    <dc:format>image/svg+xml</dc:format>
    <dc:creator>
     <cc:Agent>
      <dc:title>Matplotlib v3.7.1, https://matplotlib.org/</dc:title>
     </cc:Agent>
    </dc:creator>
   </cc:Work>
  </rdf:RDF>
 </metadata>
 <defs>
  <style type="text/css">*{stroke-linejoin: round; stroke-linecap: butt}</style>
 </defs>
 <g id="figure_1">
  <g id="patch_1">
   <path d="m0 280.51h158.08v-280.51h-158.08v280.51z" fill="none"/>
  </g>
  <g id="axes_1">
   <g id="PatchCollection_1">
    <defs>
     <path id="m06f439e479" d="m101.69-259.87 0.024985 0.55505 0.005712 0.85615-0.042872 2.3259-0.02557 0.46402-0.053304 0.4561-0.087133 0.45324-0.16333 0.63229-1.0841 3.2834-0.14955 0.49666-0.1498 0.61752-0.050806 0.29881-0.031651 0.32828-0.004819 0.2071 0.02741 0.4322 0.071602 0.42595 0.10425 0.3848 0.064134 0.1772 0.15402 0.33012 0.13159 0.21369 0.13213 0.171 0.21397 0.21175 0.22932 0.17281 0.77893 0.45237 0.67085 0.43631 0.39842 0.29673 1.0953 0.86537 0.59525 0.43023 0.30322 0.19167 0.34749 0.19217 0.36243 0.16408 0.63125 0.19722 0.67066 0.12363 0.70217 0.068846 0.72803 0.028429 0.7499-0.001158 0.76888-0.022676 1.5849-0.087635 1.623-0.11988 2.9456-0.24765 0.63336-0.035839-0.028638 0.062157 0.012244 0.054855 0.031844 0.048309 0.10413 0.0939 0.26056 0.14982 0.4381 0.17399 0.33853 0.10555 0.7392 0.18519 0.63372 0.12497 2.5019 0.42802 0.73303 0.1594 0.36866 0.097372 0.45758 0.13984 0.80207 0.30018 0.44314 0.20036 0.55587 0.31038 0.24081 0.17768 0.27962 0.28152 0.17189 0.25719 0.13511 0.32891 0.081953 0.39674 0.029491 0.53809-0.022415 0.45736-0.067343 0.59905-0.10089 0.51627-0.077415 0.27041-0.12138 0.33113-0.19503 0.41324-0.21536 0.38491-0.29369 0.46002-0.3467 0.46079-0.19065 0.22568-0.38564 0.40903-0.59706 0.55087-0.98722 0.83616-1.8623 1.5103-0.63712 0.55334-0.55848 0.52283-0.5587 0.57754-0.44721 0.5254-0.3303 0.44892-0.30617 0.49082-0.2156 0.39937-0.16541 0.34626-0.1041 0.24517-0.18546 0.52079-0.15277 0.53301-0.11869 0.48575-0.38156 1.7536-0.14035 0.55942-0.17431 0.53204-0.20121 0.50854-0.2294 0.49209-0.3003 0.55859-0.79884 1.3918-0.28678 0.57678-0.2207 0.5134-0.24745 0.68254-0.27972 0.91114-0.70074 2.6312-0.094248 0.24704-0.11956 0.11706 0.0096 0.077765 0.058266 0.12174 0.099435 0.14364 0.40915 0.4404 0.89521 1.2001 0.58316 0.6989 0.59807 0.65972 0.85981 1.0056 0.45973 0.50814 0.48954 0.48645 1.1144 1.0236 0.57574 0.58121 0.6788 0.79526 1.0251 1.3153 0.45793 0.51883 0.32475 0.31772 0.29492 0.26187 0.67454 0.52453 0.38233 0.25615 0.32486 0.19524 1.1673 0.63237 0.33143 0.20652 0.33037 0.23761 0.36886 0.31115 0.23532 0.22488 1.4117 1.5333 0.57759 0.5672 0.36317 0.32154 0.26002 0.20499 0.22772 0.15128 0.13594 0.063852 0.042973-0.004278 1.4341 4.7004 0.23289 0.70535 0.24602 0.67281 0.44634 1.0259 0.74906 1.4594 0.38408 0.838 0.17867 0.28192 0.40927 0.50977 0.32137 0.37019 0.77005 0.76302 1.3656 1.2671 0.73505 0.76535 0.61189 0.6665 0.28057 0.33882 0.6843 0.88766 0.81225 0.94547 1.3389 1.5092 0.45036 0.53215 0.44015 0.5523 0.58964 0.83076 0.45253 0.75919 0.55935 1.0948 1.3605 2.9985 0.27472 0.57485 0.26046 0.50323 0.20624 0.35331 0.1503 0.21717 0.061336 0.0632 0.023385 0.003933-0.002243 0.056106-0.097905 0.28268-0.22592 0.49214-0.39559 0.72058-0.255 0.40259-0.28278 0.4009-0.40358 0.49935-0.29674 0.31756-0.4069 0.38069-1.7629 1.5278-0.6684 0.61559-0.65036 0.6341-0.62051 0.6504-1.0775 1.1747-0.52007 0.52203-0.9259 0.86366-0.9774 0.8381-0.50039 0.40404-1.1443 0.86784-1.8851 1.3556-1.9519 1.3693-1.8601 1.2469-2.0409 1.3362-0.65414 0.44923-0.62986 0.45999-0.67244 0.54212-0.59118 0.56642-0.36392 0.43887-0.28283 0.45291-0.074448 0.15424-0.19922 0.59521-0.11773 0.62603-0.19869 1.406-0.15894 0.74978-0.23218 0.71478-0.22697 0.48944-0.602 1.1043-0.18193 0.36848-0.16394 0.38678-0.11611 0.34075-0.14112 0.54583-0.091509 0.67708-0.027721 0.71042 0.0859 2.8803 0.007941 1.1899-0.021913 1.3071 0.031027 2.1086-0.025731 0.66879-0.076591 0.80152-0.16817 1.0928-0.059611 0.50233-0.035772 0.59482 0.010334 0.54228 0.064314 0.52409 0.075628 0.34443 0.082966 0.29275 0.13988 0.39464 0.13404 0.29211 0.23818 0.41114 0.26518 0.33629 0.32384 0.29002 0.36331 0.22032 0.35416 0.15192 0.6718 0.19232 0.74309 0.1281 0.50119 0.05575 1.103 0.066847 1.2775 0.018064 3.6311-0.037527 4.0402 0.1151 1.2387-2.97e-4 1.4246-0.048722 1.0228-0.059202 1.1747-0.0918 1.5719-0.14732-0.017494 0.1652 0.025971 0.10321 0.15044 0.42799 0.3724 0.82886 1.8931 3.6621 1.354 2.4648 0.27327 0.55788 0.3008 0.70842 0.15806 0.46609 0.12564 0.49469 0.077133 0.48981 0.026243 0.40338-0.009374 0.41706-0.059986 0.48012-0.07571 0.32831-0.15385 0.4403-0.1259 0.26117-0.16626 0.27069-0.15556 0.20293-0.20944 0.22074-0.21913 0.18627-0.21042 0.14722-0.63506 0.3284-0.70938 0.27859-0.91269 0.33322-5.1925 1.8251-0.7406 0.27901-0.76884 0.31957-1.0444 0.49986-0.39606 0.2191-0.40935 0.27155-0.24638 0.22018-0.12845 0.16056-0.069633 0.12527-0.046996 0.16118 0.001673 0.15811 0.027254 0.11334 0.059875 0.1407 0.079116 0.13302 0.1527 0.20264 0.57385 0.62787 0.2569 0.31083 0.11164 0.1715 0.11196 0.25356 0.044733 0.21216 0.011419 0.27309-0.017026 0.23034-0.065746 0.40054-0.28494 1.255-0.026712 0.22816 0.009016 0.23964 0.095265 0.32463 0.058715 0.12459 0.31933 0.54577 0.13976 0.28216 0.14025 0.35649 0.12367 0.37141 0.057233 0.22566 0.076419 0.61696-0.011179 0.69314-0.081673 0.65533-0.18852 0.84772-0.51895 1.8871-0.68552 2.8402-0.60026 2.3716-0.46468 2.0007-0.099585 0.61388-0.02221 0.53678 0.040101 0.53099 0.099551 0.68975 0.13622 0.61551 0.10118 0.32516 0.1976 0.46768 0.25476 0.4642 0.21734 0.33336 0.26182 0.35229 0.2976 0.35088 0.34447 0.35775 0.51896 0.47594 1.7914 1.4525 0.38974 0.36577 0.29275 0.35182 0.11405 0.19209 0.060701 0.15529 0.021128 0.24014-0.041517 0.14257-0.069713 0.10169-0.064954 0.056061-0.10397 0.054147-0.20237 0.040094-0.13331-0.001981-0.26944-0.038854-0.98666-0.2172-0.52739-0.17818-0.52658-0.25356-0.41892-0.26707-0.85126-0.57956-0.57246-0.3005-0.28625-0.11997-0.27428-0.097846-0.38381-0.10725-0.41774-0.070328-0.24113-0.02051-0.6443-0.007273-0.38054 0.016237-0.43746 0.04253-0.6277 0.12336-0.5558 0.1672-0.83564 0.33452-1.1583 0.52344-0.34386 0.1266-0.47943 0.12795-1.296 0.23512-1.4166 0.30351-0.44855 0.079367-2.089 0.26934-1.5801 0.29342-0.92911 0.20313-1.9746 0.49487-1.2248 0.32666-0.27041 0.098327 0.14329 0.11533 0.22579 0.28844 0.2365 0.39487 0.21525 0.49003 0.11965 0.33182 0.095766 0.34004 0.058101 0.32435 0.048344 0.61731-0.010591 0.48003-0.051998 0.76594-0.029182 0.29064-0.065777 0.36956-0.168 0.60489-0.17893 0.42804-0.21687 0.38826-0.29905 0.44904-0.20144 0.35555-0.16802 0.38254-0.12075 0.39663-0.14173 0.86665-0.10089 0.39988-0.59644 1.7423-0.28648 0.6942-0.74595 1.6051-0.80926 1.6658-0.15809 0.28074-0.20605 0.28521-0.54403 0.67448-0.18472 0.32825-0.13012 0.44964-0.048465 0.5149 0.005981 0.39822 0.034609 0.42036 0.093842 0.6421 0.22193 1.0981 0.64358 2.8687 0.35526 1.695-0.088793 0.2299-0.13717 0.26773-0.68693 1.2236-0.19945 0.38305-0.25982 0.56851-0.2321 0.61994-0.18457 0.65503-0.16587 0.82385-0.071787 0.58072-0.08063 1.0462-0.071853 0.48271-0.11763 0.41653-0.20453 0.45835-0.31444 0.53173-0.35812 0.53486-0.28052 0.38277-0.23324 0.26685-0.46574 0.43525-0.37882 0.29356-0.40109 0.26566-0.53514 0.29917-0.044661 0.02389-0.13983-0.054808-0.21281-0.12749-0.2968-0.22143-1.1342-0.92197-0.69308-0.49927-0.76682-0.44904-0.89155-0.37792-0.94859-0.2805-0.98221-0.2004-0.99794-0.13489-0.95623-0.077447-0.94932-0.03412-0.93492 0.005541-2.055 0.088314-1.7766-0.015888-0.65401 0.016541-0.65091 0.045153-0.68517 0.083723-0.80073 0.1544-0.35223 0.089476-0.86954 0.2647-0.53862 0.19919-2.1917 0.86952-0.81679 0.3409-0.79165 0.35915-1.5388 0.74721-0.67951 0.25797-0.51381 0.12961-0.44845 0.05405-0.37637 0.003144-0.31083-0.025896-0.53899-0.10965-0.61228-0.22826-0.45157-0.20787-0.48978-0.25569-1.0077-0.57844-0.48338-0.25868-1.3207-0.66276-0.88422-0.41183-0.6504-0.26034-0.42507-0.19495-0.4554-0.21884-1.295-0.67034-1.0483-0.49375-1.2312-0.64178-0.28944-0.13591-0.27971-0.10251-0.29513-0.057211-0.28584 0.002238-0.17709 0.034469-0.26539 0.094378-0.64716 0.3167-0.33352 0.1364-0.39613 0.11235-0.68952 0.15097-0.37644 0.11529-0.3366 0.17735-0.32394 0.32301-0.17889 0.29078-0.20727 0.45786-0.16374 0.51313-0.54543 2.5125-0.10426 0.69283-0.026495 0.54749 0.046235 0.52292 0.14052 0.55494 0.2551 0.47426 0.36958 0.41146 0.29148 0.22564 0.5238 0.3139 1.1638 0.6175 0.42001 0.26922 0.30514 0.24404 0.24729 0.2474 0.32396 0.40049 0.49584 0.7547 0.47389 0.8366 0.76712 1.5272 0.54083 1.1615 0.32643 0.75212 0.29586 0.7418 0.25096 0.72044 0.18759 0.68664 0.098328 0.51882 0.10048 0.72332 0.01661 0.26042-0.026071 0.50344-0.087676 0.40048-0.074217 0.22256-0.1341 0.31994-0.27077 0.51311-0.271 0.43374-0.36723 0.52117-0.48131 0.59759-0.48587 0.54665-0.57666 0.60166-0.71846 0.69591-0.73459 0.6554-0.65643 0.54544-2.5115 1.9837-1.4417 1.1678-1.164 0.99882-0.2877 0.26993-0.055366 0.065363 0.001227 0.020883-0.12117-0.061517-0.23258-0.08306-1.0205-0.28307-0.55891-0.22217-0.73398-0.38956-1.7323-1.0594-0.67154-0.38783-0.44469-0.21224-0.22137-0.079715-0.22053-0.053047-0.21944-0.016848-0.17572 0.018712-0.34832 0.10876-0.19206 0.091828-0.33536 0.20256-0.36669 0.27052-1.5354 1.2838-0.50707 0.3758-0.37762 0.24125-0.41239 0.21117-0.45078 0.15239-0.43693 0.076446-0.21436 4e-4 -0.17248-0.14498-0.37237-0.24884-0.6299-0.3937-0.93438-0.54783-1.3707-0.75442-2.1285-1.1411-0.86143-0.48618-1.2359-0.76766-1.2096-0.83606-1.3078-0.94974-0.25471-0.19842-0.51582-0.4597-0.33073-0.35991-0.59063-0.80072-0.31048-0.3933-0.41608-0.42153-0.46966-0.40016-1.7337-1.3612-1.0992-0.94482-0.44959-0.33943-0.48515-0.31815-0.41926-0.24496-0.43436-0.22991-0.65439-0.30598-0.54787-0.22002-0.6042-0.20257-0.38542-0.1054-0.47286-0.10114-0.55297-0.076127-0.46025-0.029896-1.4802-0.021565-0.65225-0.061313-0.67404-0.10919-0.69226-0.14083-3.9498-0.84805-0.81722-0.12609-0.43202-0.035687-0.71164-0.012615-0.30805 0.013557-0.57746 0.06113-0.59386 0.11206-0.68282 0.18868-0.41568 0.16917-0.12958 0.077679-0.046541 0.062602 0.012894-0.069786 0.164-0.28631 0.90001-1.2232 0.37198-0.55193 0.26315-0.42615 0.24743-0.45323 0.16501-0.365 0.24766-0.65516 0.069081-0.25226 0.18052-1.07 0.31216-1.3284 0.12367-0.63026 0.22433-1.5591 0.090356-0.43399 0.15222-0.55153 0.46898-1.4218 0.2386-0.79525 0.33253-1.2565 0.32507-1.5074 0.14564-0.43193 0.10922-0.21241 0.14845-0.22941 0.5019-0.65674 0.23989-0.34583 0.38355-0.6406 0.15524-0.29717 0.34969-0.7878 0.48271-1.2745 0.20974-0.50462 0.41758-0.88765 0.6002-1.4141 0.28797-0.5664 0.32303-0.54914 0.3572-0.51269 0.8802-1.0699 0.41753-0.56266 0.15759-0.24594 0.23907-0.44876 0.46809-0.99048 0.13936-0.35422 0.096804-0.31225 0.12901-0.50647 0.088503-0.51718 0.020602-0.50839-0.079014-0.47935-0.2082-0.43894-0.17172-0.22598-0.10858-0.11515-0.25273-0.22225-0.28074-0.19636-0.47637-0.26157-1.0912-0.54573-0.39583-0.22355-0.36873-0.25792-0.44802-0.40931-0.75126-0.76703-0.32881-0.29992-0.72933-0.5684-0.60164-0.3963-0.30609-0.17452-1.1193-0.58343-0.39555-0.16814-0.88777-0.30569-0.39434-0.1134-0.28751-0.061351-0.95047-0.14746-0.29957-0.076633-0.43406-0.18839-0.29894-0.20144-0.26443-0.26216-0.15299-0.22003-0.11734-0.22277-0.12701-0.3223-0.1365-0.52946-0.065187-0.4194-0.037986-0.44272-0.008571-0.6314 0.022173-0.46849 0.055493-0.60224 0.082317-0.61538 0.11734-0.68863 0.26947-1.2551 0.30996-1.1859 0.34797-1.1063 0.47884-1.2841 0.50692-1.143 1.9759-3.8918 0.54308-1.1741 0.47417-1.1021 0.3051-0.59889 0.47662-0.81336 0.43628-0.67857 0.90808-1.3059 1.3507-1.8346 0.59903-0.86266 0.8151-1.2202 0.26577-0.42128 0.095772-0.18926-0.079571-0.031175-0.16016-0.10313-0.20567-0.15567-0.22399-0.19537-0.22163-0.22665-0.23104-0.28262-0.23969-0.32982-0.21829-0.34449-0.18077-0.3562-0.18694-0.53564-0.17582-0.64997-0.058107-0.32088-0.081408-0.99428-0.069235-0.30215-0.070355-0.174-0.20643-0.3485-0.42829-0.57049-0.13423-0.20392-0.50993-1.0378-0.17712-0.42177-0.25513-0.74399-0.27007-1.2333-0.13434-0.49716-0.92156-2.6749-0.30053-0.97941-0.41406-1.4647-0.15941-0.46379-0.11227-0.21299-0.13772-0.18779-0.15769-0.16315-0.14206-0.11783-0.26716-0.16883-0.10924-0.049632-0.12729-0.023258 0.066179-0.12762 0.10704-0.33526 0.41038-1.4807 0.61095-2.0138 0.31311-0.88516 0.35288-0.86564 0.38351-0.82906 0.41266-0.77019 0.9481-1.5305 1.5138-2.5779 0.40246-0.63218 0.42451-0.59589 0.43855-0.53147 0.3727-0.38324 0.6467-0.51344 0.29501-0.17688 0.72397-0.30672 0.78749-0.20258 0.83272-0.12804 0.86339-0.07728 2.6632-0.11141 0.88041-0.050497 0.86081-0.084614 0.82997-0.13833 0.78564-0.21561 0.72477-0.32189 0.52373-0.34913 0.47443-0.41246 0.44325-0.46778 0.41084-0.50207 0.39186-0.53576 0.51131-0.77293 0.36607-0.59758 0.7107-1.2362 1.8039-3.2997 0.83606-1.4937 0.76184-1.2783 0.57723-0.89472 0.66204-0.94692 0.8589-1.1262 0.67583-0.81479 1.717-1.9725 0.5517-0.67669 0.23357-0.32451 0.19805-0.32244 0.13749-0.29302 0.081166-0.29578 0.00923-0.23645-0.078905-0.32954-0.18704-0.29914-0.3319-0.25778-0.26286-0.094086-0.44249-0.027897-0.49994 0.076659-0.32861 0.086678-0.90847 0.30058-0.76674 0.22766-0.76302 0.1402-0.79027 0.032248-0.73472-0.088022-0.73772-0.18703-0.73471-0.26768-0.72562-0.33482-0.70984-0.3928-0.81205-0.53333-0.82476-0.64175-0.67394-0.60471-0.476-0.4773-0.6033-0.6923-0.25504-0.33782-0.31231-0.47688-0.25553-0.49685-0.061017-0.14787-0.14008-0.41767-0.11703-0.51357-0.052532-0.39428-0.019255-0.29339 0.009676-0.64921 0.082018-0.71202 0.16867-0.81378 0.17244-0.62195 0.124-0.38229 0.28484-0.75096 0.30741-0.68036 0.45787-0.88639 0.80975-1.4776 0.40215-0.79588 0.24706-0.55355 0.20785-0.56111 0.1162-0.42282 0.047308-0.24989 0.034389-0.32706 0.007367-0.35947-0.034099-0.5796-0.068455-0.56831-0.34548-1.6042-0.165-0.92808-0.13265-0.98054-0.054251-0.81328 0.009978-1.1851 0.084268-1.1641 0.15349-1.1731 0.10922-0.58683 0.11633-0.51103 0.12048-0.44251 0.1701-0.53043 0.26257-0.69418 0.25473-0.59004 0.29456-0.62068 0.60813-1.1561 0.63238-1.0917 0.91956-1.5116 0.37588-0.66903 0.33113-0.66098 0.25715-0.60262 0.13799-0.38134 0.2079-0.74212 0.10143-0.61697 0.01609-0.57868-0.10464-0.60752-0.15827-0.37125-0.20873-0.31922-0.2282-0.27259-0.77046-0.79132-0.44749-0.50591-0.32615-0.47212-0.19812-0.3848-0.082746-0.2045-0.084876-0.28228-0.042986-0.28204 0.010003-0.31947 0.065245-0.31846 0.076456-0.22674 0.25168-0.47761 0.35411-0.473 0.43118-0.46685 0.48664-0.45858 0.56519-0.483 0.51695-0.41566 0.63367-0.48468 1.2473-0.90334 0.3191-0.24993 0.13325-0.11872 0.34685-0.37041 0.2611-0.34809 0.24117-0.43077 0.14339-0.34054 0.15735-0.52786 0.067945-0.39586 0.11674-1.9044 0.12677-1.4651 0.563 0.010087 0.79254 0.16053-0.058666-0.051061-0.039595-0.060247-0.094053-0.20498-0.069249-0.23405-0.047294-0.30273 6.73e-4 -0.42908 0.043358-0.30827 0.0533-0.21283 0.097311-0.27435 0.18154-0.3798 0.29462-0.50171 0.60379-0.9423 0.33879-0.59524 0.3511-0.7097 0.22679-0.53388 0.28207-0.7783 0.28207-0.98305 0.12287-0.53925 0.2061-1.149 0.11652-0.82533 0.11939-1.1536 0.060113-0.92708 0.03043-0.99631-0.003741-0.85678-0.028781-0.8535-0.1636-2.4565-0.042622-0.87986-0.006484-1.1446 0.02302-0.57266 0.061123-0.7282 0.0813-0.58004 0.13141-0.60159 0.1653-0.48058 0.20244-0.36545 0.24806-0.25354 0.2978-0.13627 0.18645-0.029402 0.32123 0.018012 0.27405 0.066552 0.47544 0.18316 0.46037 0.22497 0.47561 0.30567 0.61348 0.48378 0.62669 0.52662 1.3615 1.229 0.66314 0.54386 0.45441 0.33978 0.85515 0.58251 0.73312 0.44513 0.51571 0.26346 0.28892 0.11854 0.28808 0.096637 0.38049 0.089838 0.21144 0.029392 0.29103 0.014543 0.2582-0.01443 0.25368-0.039305 0.27059-0.069568 0.24061-0.085136 0.30915-0.13574 0.4956-0.27117 0.38712-0.25315 0.49602-0.37359 0.19535-0.16558 0.509-0.4809 0.48983-0.52912 0.46789-0.56864 0.40134-0.54412 0.3289-0.49471 0.2795-0.46687 0.27553-0.5202 0.22604-0.49117 0.33737-0.90799 0.23591-0.86974 0.14115-0.73823 0.12484-1.1406 0.062537-1.8433 0.057302-0.67412 0.15247-0.88837 0.24503-0.86878 0.34606-0.8355 0.37616-0.67526 0.43046-0.65992 1.7037-2.4665 0.26446-0.42328 0.24294-0.42991 0.37667-0.80852 0.19518-0.50496 0.17068-0.50407 0.21948-0.76788 0.16032-0.69522 0.10872-0.63903 0.016236-0.20154-0.016454-0.088852 0.21228-0.07179 0.55155-0.042497 0.74641-0.020749 1.3476 0.019032 0.92022 0.077891 0.90946 0.13552 1.5698 0.28024 0.86641 0.098064 0.82067 0.017127 0.74588-0.095713 0.6383-0.2465 0.49822-0.41792 0.3752-0.55032 0.20276-0.45559 0.14574-0.48228 0.087361-0.4863 0.027292-0.48438-0.020337-0.32864-0.11905-0.55512-0.19348-0.52146-0.22833-0.482-0.18563-0.34241-0.21122-0.30732-0.22096-0.2345-0.24831-0.20264-0.22702-0.15125-0.93552-0.53503-0.29017-0.18778-0.23874-0.21841-0.2167-0.38088-0.072609-0.28886-0.03197-0.33009 0.020623-0.33218 0.086002-0.31541 0.23304-0.37546 0.17087-0.17809 0.20362-0.178 0.3192-0.22859 0.35193-0.18624 0.37306-0.12027 0.41931-0.042866 0.9367-0.024102 0.50203-0.084595 0.47964-0.18563 0.46882-0.346 0.42751-0.46268 1.0619-1.3687 0.76518-0.93781 0.91455-1.0411 1.088-1.1186 0.39219-0.35601 0.40193-0.30033 0.28602-0.1657 0.60489-0.24529 0.6061-0.1065 1.4351-0.06293 0.53604-0.068497 0.5816-0.14511 1.6957-0.57437 0.41388-0.12088 0.4002-0.094438 0.22195-0.034166 0.29792-0.021301 0.40746 0.013775 1.4619 0.13574 0.50878 0.009451 0.48618-0.04994 0.65338-0.18243 0.31839-0.13233 0.31055-0.15381 0.37235-0.21513 0.48753-0.34642 0.16449-0.15974 0.058448-0.10833 0.041078 0.049476 0.068701 0.20094 0.11721 0.59235 0.050367 0.50129" stroke="#bdc660"/>
    </defs>
    <g clip-path="url(#pededac2e9d)">
     <use y="280.512" fill="#bdc660" stroke="#bdc660" xlink:href="#m06f439e479"/>
    </g>
   </g>
  </g>
 </g>
 <defs>
  <clipPath id="pededac2e9d">
   <rect x="7.2" y="7.2" width="143.68" height="266.11"/>
  </clipPath>
 </defs>
</svg>
