<?xml version="1.0" encoding="UTF-8"?>
<!DOCTYPE svg  PUBLIC '-//W3C//DTD SVG 1.1//EN'  'http://www.w3.org/Graphics/SVG/1.1/DTD/svg11.dtd'>
<svg width="357.71pt" height="280.51pt" version="1.1" viewBox="0 0 357.71 280.51" xmlns="http://www.w3.org/2000/svg" xmlns:xlink="http://www.w3.org/1999/xlink">
 <metadata>
  <rdf:RDF xmlns:cc="http://creativecommons.org/ns#" xmlns:dc="http://purl.org/dc/elements/1.1/" xmlns:rdf="http://www.w3.org/1999/02/22-rdf-syntax-ns#">
   <cc:Work>
    <dc:type rdf:resource="http://purl.org/dc/dcmitype/StillImage"/>
    <dc:date>2024-07-04T12:11:18.556815</dc:date>
    <dc:format>image/svg+xml</dc:format>
    <dc:creator>
     <cc:Agent>
      <dc:title>Matplotlib v3.7.1, https://matplotlib.org/</dc:title>
     </cc:Agent>
    </dc:creator>
   </cc:Work>
  </rdf:RDF>
 </metadata>
 <defs>
  <style type="text/css">*{stroke-linejoin: round; stroke-linecap: butt}</style>
 </defs>
 <g id="figure_1">
  <g id="patch_1">
   <path d="m0 280.51h357.71v-280.51h-357.71v280.51z" fill="none"/>
  </g>
  <g id="axes_1">
   <g id="PatchCollection_1">
    <defs>
     <path id="mabf17f01bf" d="m234.6-250.94 1.4691 0.034348 1.6101-0.034817 1.3357-0.080755 1.3651-0.12593 1.8713-0.2317 1.5669-0.23283 1.7405-0.31505 2.2801-0.52826 2.3786-0.64288 1.6334-0.47744 3.014-1.0015 4.9648-1.7561-0.34534 0.41721-0.40225 0.56015-0.77771 1.2003-0.73718 1.3033-0.69391 1.4186-0.33797 0.78936-0.30561 0.801-0.3414 1.0592-0.35879 1.5065-0.15746 0.93154-0.11486 0.9161-0.094463 1.1244-0.051495 1.5699 0.044816 1.0937 0.12229 0.8896 0.22221 0.77592 0.43018 0.73433 0.51104 0.42325 0.62876 0.26927 0.71349 0.12488 0.42787 0.009901 0.53681-0.032842 2.2464-0.30548 1.1204-0.11545 1.1516-0.066493 1.6153-0.033006 0.93231 0.014771 0.93334 0.056654 3.4256 0.36909 1.6661 0.10252 1.3672-0.002922 0.75978-0.049822 0.79102-0.089542 2.9149-0.48446 2.8343-0.38156 0.62464-0.11985 0.67642-0.16939 0.92512-0.29642 0.8302-0.33261 1.0914-0.49421 2.6366-1.2672 1.2597-0.5271 0.69757-0.24004 0.75028-0.20744 0.5829-0.11174 0.72307-0.062997 0.31198 0.001285 0.52615 0.046392 0.36475 0.06221 0.48225 0.11623 1.0597 0.35399 2.0291 0.81807 1.1061 0.40131 0.9891 0.28463 1.1286 0.24979 0.92836 0.16446 1.4493 0.2115 0.98936 0.12017 1.0513 0.078014 0.87009-0.002126 0.39528-0.043042 0.24977-0.071372 0.066985-0.076127 0.12866 0.14244 0.10017 0.32176 0.085968 0.48335 0.061452 0.72835-0.024406 1.0792-0.037598 0.35887-0.19501 1.0949-0.15951 0.62349-0.20057 0.64585-0.20827 0.5722-0.26442 0.63233-0.31451 0.65818-0.36479 0.67522-0.32294 0.54182-0.61196 0.93054-0.93443 1.2643-0.79309 0.97333-0.73054 0.84921-1.1939 1.3278-0.68473 0.82951-0.21914 0.31409-0.19772 0.33447-0.1347 0.2863-0.14884 0.48619-0.050653 0.40379 0.003376 0.34296 0.042817 0.40086 0.17233 1.0489 0.05506 0.50501 0.007504 0.58007-0.05988 0.67223-0.1485 0.79003-0.16928 0.63992-0.69192 2.0925-0.17415 0.59783-0.099021 0.49317-0.032407 0.56432 0.020333 0.32767 0.071983 0.48859 0.19068 0.76044 0.17821 0.54718 0.92181 2.5446 0.39707 1.3411 0.21663 0.94711 0.18898 1.1886 0.070733 0.70435 0.047098 0.87976 0.004269 0.73818-0.048083 1.0014-0.13783 1.0642-0.1569 0.84674-0.2313 1.0245-0.21775 0.65476-0.2618 0.64189-0.31954 0.69444-0.35697 0.65988-0.40919 0.60194-0.65371 0.71946-0.39667 0.38514-0.52653 0.46232-0.56021 0.42425-0.78678 0.46828-0.85211 0.36592-0.85239 0.27549-1.6903 0.39218-0.44877 0.19187-0.25537 0.23813-0.15924 0.28134-0.11922 0.4159-0.043627 0.41691 0.004749 0.46528 0.10028 0.88264 0.11608 0.6265 0.3196 1.3592 0.58642 2.1183 2.7207 9.2379 0.66056 2.0279 0.42996 1.2207 0.4822 1.2871 0.82011 2.0318 0.84466 1.9051 0.52396 1.0876 0.3976 0.77128 0.69815 1.2414 0.79419 1.2545 0.47176 0.68325 0.83116 1.1301 2.1794 2.8683 1.9353 2.7482 0.56079 0.75427 0.5688 0.70822 0.82162 0.91522 0.82911 0.79646 0.68913 0.56187 0.79727 0.53125 0.37614 0.20335 0.37559 0.16985 0.66813 0.21269 0.49459 0.076517 0.52961 0.002251 0.73927-0.10172 2.527-0.57605 1.1646-0.17971 1.2306-0.11408 1.2794-0.061973 1.3144-0.020622 2.6913 0.053142 2.7152 0.15506 1.3441 0.11658 1.3205 0.14893 1.2823 0.19049 1.2251 0.24569 1.1429 0.31999 1.0278 0.42012 0.86971 0.5543 0.55172 0.55204 0.34908 0.47418 0.28064 0.5089 0.20519 0.5312 0.12843 0.47527 0.13828 0.79222 0.1029 0.99354 0.032529 0.61323-0.002607 0.71744-0.074413 0.77326-0.1442 0.7388-0.28026 0.95716-0.40508 0.9166-0.39414 0.63395-0.51865 0.66358-1.001 1.0505-0.75325 0.6847-1.554 1.3109-0.91917 0.81118-0.80884 0.79064-0.63127 0.68492-0.86832 1.063-0.81816 1.1286-0.50194 0.75631-0.3739 0.61269-0.34478 0.62126-0.3457 0.71038-0.29056 0.72517-0.32024 1.0899-0.5505 2.4196-0.53903 2.6197-1.1554 6.129-0.33015 1.5637-0.45896 1.8911-0.3236 1.1431-0.4127 1.2895-0.30952 0.86154-0.43418 1.0649-0.49558 1.0353-0.46636 0.83398-0.67275 1.061-0.55581 0.80034-0.68213 0.92283-0.73328 0.94077-1.5453 1.8689-1.3904 1.5977-2.2149 2.4647-0.92839 1.1001-0.48248 0.63219-0.41979 0.6152-0.33887 0.57465-0.32512 0.67955-0.1643 0.45093-0.10147 0.36942-0.093527 0.55997-0.009603 0.77799 0.055968 0.49473 0.076279 0.40516 0.13117 0.51493 0.22642 0.68563 0.3955 0.95479 0.552 1.1038 0.57102 0.96866 0.062423 0.253 1.6217 4.7422 1.1234 3.4187 0.66148 2.2216 0.28382 1.0867 0.23882 1.0708 0.17919 1.0552 0.10014 1.0399-0.004406 1.0244-0.13069 1.0194-0.23292 1.0067-0.30618 0.99692-0.35793 0.98959-0.81245 1.9643-0.88071 1.9528-3.6669 7.8119-2.1092 4.5523-1.264 2.653-1.6091 3.2181-2.9351 5.6628-0.74859 1.5061-0.32222 0.73849-0.12406 0.023454-0.3912 0.1592-0.93377 0.42473-2.693 1.318-1.9042 0.98303-5.725 3.0609-1.6481 0.85121-1.4702 0.66868-0.88966 0.33514-0.88877 0.26683-0.88156 0.19895-0.98558 0.15802-1.0916 0.10993-1.2391 0.065715-1.0122 0.024977-1.9701 0.006115-2.1039-0.036189-2.1524-0.082475-3.6935-0.19362-2.1818-0.051437-1.4041 0.025671-1.4306 0.088124-1.4532 0.14665-1.1233 0.14409-1.7599 0.27275-1.2446 0.23744-1.0376 0.23087-1.8534 0.49845-1.1952 0.3941-1.1528 0.44648-3.3233 1.4466-1.5139 0.6029-0.86354 0.28465-0.7064 0.18699-0.74161 0.14357-0.7261 0.083704-0.68464 0.024714-0.6515-0.025389-0.66273-0.073041-0.59736-0.10604-0.915-0.23678-0.97255-0.34541-1.3125-0.57726-3.377-1.7546-0.74574-0.33878-0.93471-0.37265-1.1647-0.39855-1.1266-0.31845-1.091-0.21937-0.99107-0.12202-0.7033-0.045987-0.69679-0.016776-1.4616 0.041318-2.4923 0.18474-1.5687 0.040244-0.72462 0.10816-0.36585 0.12325-0.41464 0.23165-0.20909 0.16237-0.33566 0.33969-0.24215 0.31902-0.41657 0.70823-0.87482 1.8595-0.16649 0.27013-0.2062 0.26583-0.4848 0.44255-0.66582 0.37514-0.51751 0.13302-0.56366 0.040423-0.43531-0.019119-0.68654-0.10651-0.45976-0.14438-0.77669-0.36073-0.62634-0.36851-0.45067-0.32893-0.5411-0.47262-1.1455-1.1126-0.28342-0.23635-0.38614-0.26351-0.1944-0.10372-0.25964-0.10727-0.34279-0.089445-0.81276-0.031688-0.69241 0.12608-0.90666 0.33899-0.52224 0.27757-0.51301 0.33228-0.72001 0.57702-0.48627 0.47504-0.45972 0.52537-0.38472 0.50714-1.8097 2.795-1.2087 1.7674-0.1942 0.25388-0.29269 0.011725-0.54236-0.056575-0.90062-0.16205-0.9934-0.26259-0.86876-0.32286-0.78302-0.41247-0.64097-0.51185-0.34516-0.42536-0.27164-0.46896-0.22069-0.49493-0.46974-1.2345-0.66731-1.5157-0.50461-1.2538-0.21029-0.42425-0.34373-0.533-0.36705-0.42097-0.57683-0.5278-0.56589-0.44663-3.2732-2.2962-0.89899-0.66933-0.81714-0.65885-0.86531-0.77267-0.63449-0.63503-0.47863-0.52845-0.66634-0.81779-0.43989-0.59129-1.0193-1.5006-1.7604-2.6843-0.3899-0.54662-0.8593-1.1181-1.0073-1.1756-0.94547-0.99557-0.96198-0.92773-0.80022-0.71963-0.99514-0.83959-1.2328-0.975-1.0065-0.75941-2.6623-1.9464-0.6704-0.54486-0.44095-0.40541-0.4738-0.51511-0.19462-0.25433-0.21122-0.32892-0.27103-0.58243-0.17472-0.56655-0.18543-0.97747-0.31378-2.2882-0.14821-0.70486-0.16176-0.57328-0.16118-0.45223-0.21764-0.49457-0.25539-0.46976-0.28648-0.43114-0.3823-0.46968-0.42684-0.42621-0.40364-0.33559-0.58926-0.40354-0.37474-0.20034-0.2146-0.078961-0.10679-0.014308-0.073261 0.019856-3.9704-0.48155-1.3524-0.11856-1.3985-0.061032-0.8991-0.010037-2.6206 0.036407-0.95727-0.011528-1.0676-0.081973-1.1827-0.17934-0.93332-0.20954-1.0257-0.30525-1.0722-0.39985-1.4796-0.66821-1.4099-0.73522-1.0788-0.61412-1.7628-1.0859-1.6192-1.0805-1.0975-0.79154-1.0824-0.82879-0.99274-0.80027-1.0293-0.8675-1.2966-1.1573-1.275-1.2318-0.47977-0.517-0.42916-0.51127-0.57072-0.7839-0.49761-0.81772-0.42654-0.83058-1.3422-3.0429-0.3148-0.62641-0.35179-0.60468-0.17763-0.26048-0.2886-0.35944-0.20731-0.21007-0.38993-0.28578-0.30108-0.12091-0.35707-0.037327-0.37641 0.054078-0.47323 0.16446-0.44662 0.22706-0.68435 0.441-1.7285 1.2321-0.85431 0.54128-0.801 0.42665-0.8975 0.37484-0.424 0.134-0.43706 0.10224-0.74897 0.085421-0.84644-0.01906-0.95888-0.14785-0.77746-0.20754-0.50581-0.17419-0.4964-0.19927-0.71892-0.32882-0.62161-0.31915-0.83663-0.47762-1.9235-1.2223-0.90011-0.63436-0.73471-0.57403-0.89586-0.78999-1.0484-0.98781-0.53816-0.47606-0.71485-0.58373-1.3755-1.0434-0.4828-0.31641-0.6925-0.3962-0.53351-0.25234-0.62209-0.22726-0.556-0.13658-0.54948-0.082046-1.2216-0.068793-2.7951-0.022667-0.69242 0.031224-0.80693 0.085972-1.1381 0.21534-0.50643 0.13484-1.1948 0.42361-0.55256 0.23888-0.78172 0.3924-0.42212 0.24476-0.72761 0.48955-1.1213 0.90951-0.92505 0.87088-2.1553 2.2574-0.20689 0.17333-0.080599-0.18284-0.15858-0.26805-1.9721-3.0462-0.6397-1.0895-0.51956-0.96222-1.1365-2.332-1.6934-3.7718-0.85434-1.8088-0.406-0.78722-0.53566-0.95255-0.30952-0.50654-0.53223-0.79299-0.77908-1.0492-0.72895-0.88046-1.7532-2.0133-0.63842-0.66248-0.33136-0.30482-0.45194-0.36651-0.69422-0.45444-0.62231-0.30863-1.2057-0.49797-0.24463-0.11819-0.37905-0.23519-0.22849-0.20657-0.17416-0.219-0.13541-0.22342-0.13138-0.28897-0.11135-0.38279-0.03671-0.31993 0.093534-0.70364 0.24012-0.71289 0.27604-0.6929 0.20526-0.6428 0.024746-0.55991-0.1045-0.26987-0.29492-0.36043-0.78113-0.73535-0.32816-0.48981-0.085169-0.2105-0.091375-0.36841-0.041666-0.36672-0.006158-0.45311 0.075194-0.8998 0.22525-1.3444 0.65114-2.8754 0.15324-0.8018 0.13163-0.97316 0.19028-1.883 0.026472-0.51439-0.015554-0.65111-0.098688-0.60999-0.17643-0.44516-0.22611-0.29926-0.3276-0.26335-0.36629-0.19008-0.35776-0.12527-1.0209-0.26028-0.25101-0.1045-0.55261-0.33578-0.36912-0.28261-0.6878-0.58283-2.4091-2.1677-1.1183-0.95093-0.99924-0.77804-1.1199-0.81971-0.91338-0.63326-0.90509-0.58817-1.8063-1.0504-1.6888-0.86686-1.2814-0.56262-0.44076-0.15704-0.45759-0.12942-0.3521-0.066784-0.269-0.024484-0.6743 0.10684-0.44709 0.3028-0.39711 0.48311-0.37289 0.64547-0.3164 0.67363-0.9124 2.1273-0.59625 1.2327-0.36592 0.6525-0.38424 0.58058-0.39954 0.47295-0.34185 0.28544-0.3541 0.16748-0.51287 0.013874-0.53533-0.19288-0.55484-0.34094-0.34751-0.26475-0.63224-0.61302-0.6056-0.77002-0.28654-0.44095-0.4842-0.84392-0.76243-1.4999-1.0589-2.2625-0.59456-1.2127-0.57325-1.0543-0.54503-0.895-0.54766-0.80482-0.89711-1.1782-1.0984-1.3531-1.275-1.4643-1.1205-1.1442-1.1382-1.0264-1.2024-0.96111-0.83753-0.59367-0.54153-0.34617-0.75931-0.43371-0.71991-0.36561-0.69498-0.3206-1.7712-0.74904-0.30764-0.16363-0.060424-0.062694 0.04962-0.03251 1.59-1.0949 1.4969-0.91193 4.3109-2.2264 0.71808-0.41863 1.6847-1.0541 0.67538-0.3902 0.78196-0.41062 1.1638-0.5458 1.0723-0.44185 0.8723-0.28006 1.2958-0.29788 0.87762-0.24277 0.52844-0.21385 0.35857-0.1905 0.39154-0.25471 0.54492-0.41663 3.3269-2.7203 1.8263-1.5327 0.72444-0.64393 0.37196-0.36778 0.4233-0.50864 0.065426-0.15082-0.7992-1.3128-0.85288-1.5786-0.33825-0.71061-0.31465-0.73225-0.35321-0.95643-0.27684-0.95985-0.22163-1.3526-0.017932-0.61615 0.086408-0.9334 0.11562-0.59813 0.15309-0.57528 0.30593-0.85976 0.37037-0.81008 0.59216-1.0666 1.3061-2.0611 0.3595-0.60588 0.58071-1.1316 0.37121-0.87943 0.2271-0.65354 0.47321-1.5835 0.21155-0.51183 0.22791-0.44394 0.43263-0.6745 0.53552-0.64511 0.44426-0.41362 0.30556-0.21333 0.33337-0.14151 0.21791-0.035281 0.26553 0.015949 0.45292 0.13948 0.66185 0.36834 0.5013 0.35771 2.3406 1.9115 0.54173 0.38457 0.33762 0.21292 0.57319 0.3132 0.94568 0.39396 1.5517 0.53967 0.79018 0.24764 0.79133 0.167 0.57233 0.048158 1.788-0.003907 0.52444 0.038745 0.44443 0.070633 0.69751 0.17821 0.49287 0.17201 0.50312 0.21971 0.53324 0.28634 0.72155 0.46466 0.69345 0.50841 1.2534 1.0033 0.51825 0.38749 0.94446 0.54644 0.38594 0.29877 0.25938 0.34882 0.14674 0.36433 0.075722 0.50944-0.002506 0.47358-0.047896 0.51393-0.11506 0.7319-0.38448 1.9395-0.17516 1.1146-0.042954 0.51168-0.007277 0.42369 0.029626 0.4436 0.11328 0.59974 0.26512 0.81618 0.57806 1.3552 0.67871 1.7262 0.26765 0.82119 0.83373 2.8536 0.12828 0.48928 0.20889 1.0451 0.45389 3.2601 0.21039 1.0649 0.30379 1.02 0.15545 0.388 0.29067 0.60843 0.56616 0.96723 0.32075 0.47632 0.3684 0.49079 0.41127 0.47631 0.31128 0.31301 0.37533 0.33086 0.56655 0.43084 1.2583 0.8339 0.941 0.58567 1.1394 0.66048 1.102 0.59714 0.86006 0.39402 0.51306 0.20968 1.6158 0.57672 3.3636 1.0897 3.1233 1.1046 1.0828 0.3213 0.56379 0.11252 0.53536 0.04842 0.31162-0.007506 0.63293-0.10955 0.62675-0.19618 1.3782-0.51513 0.71422-0.2961 0.45295-0.20291 0.78097-0.40797 0.77317-0.47949 0.74569-0.53976 0.69687-0.59242 0.31013-0.29893 0.73169-0.78049 0.63518-0.82355 1.2536-2.1056 0.87315-1.3116 0.4968-0.62414 1.1791-1.2668 0.7426-0.89518 0.4169-0.45558 0.58482-0.52472 0.65996-0.48588 0.71654-0.44033 0.33595-0.17949 0.67951-0.30278 0.44466-0.15827 0.5345-0.15284 0.92236-0.1816 1.1628-0.10473 0.42415-0.011047 1.3795 0.02631 4.8933 0.24635 1.4928 0.10073 1.0788 0.040861 0.5236-0.017573 0.67562-0.095189 0.47052-0.1522 0.23318-0.11774 0.16394-0.10259 0.36896-0.2987 0.41063-0.46639 0.54407-0.80194 0.32779-0.58277 0.39797-0.82657 0.72522-1.7106 0.38894-0.84564 2.225-4.0991 0.52825-1.0244 0.53506-1.0978 0.27317-0.61799 0.58312-1.4508 0.27928-0.54498 0.29177-0.33413 0.26894-0.15953 0.28324-0.081984 0.76011-0.083907 0.29141-0.10048 0.21641-0.18499 0.10684-0.15578 0.089439-0.19503 0.068903-0.4419-0.089518-0.53828-0.31738-0.65521-0.503-0.70765-0.63155-0.74526-2.2017-2.357-0.69668-0.80147-0.38631-0.49462-0.46513-0.72122-0.30085-0.62866-0.10222-0.28987-0.10726-0.4667-0.029837-0.46756 0.039311-0.46596 0.097731-0.47087 0.12751-0.43978 0.25567-0.73406 0.99498-2.5752 0.3694-1.1367 1.0221-3.4896 0.3955-1.0917 0.38572-0.84813 0.43373-0.76209 0.4785-0.65136 0.52257-0.50966 0.37763-0.24391 0.40289-0.14734 0.51423-0.035823 0.54967 0.096072 0.89469 0.3486 0.94336 0.53323 0.97594 0.66439 0.92112 0.69477 0.92975 0.74202 2.7684 2.2669 0.8894 0.69049 0.93007 0.66234 0.87452 0.52458 0.79786 0.32941 0.69357 0.06181 0.28661-0.088175 0.10245-0.054733 0.20625-0.15436 0.22894-0.25544 0.21696-0.35907 0.10126-0.22785 0.15532-0.49359 0.089562-0.50788 0.039992-0.50646 0.076855-3.9344 0.039077-0.66594 0.07944-0.44627 0.10388-0.3039 0.13624-0.22879 0.1544-0.14769 0.23447-0.10978 0.2153-0.034937 0.87872 0.014636 1.0828-0.082004 0.66141-0.002203 0.67668 0.10672 1.3757 0.38056 0.9695 0.1765 0.68867 0.068059 1.3729 0.083351 0.94661-0.003004 1.0496-0.09949 0.71654-0.13544 0.63492-0.20948 0.25923-0.11047 0.60205-0.32853 0.86913-0.62775 0.45704-0.37602 0.42271-0.41544 0.3518-0.44688 0.38481-0.60261 0.22164-0.39045 0.97029-1.8302 0.89669-1.4383 0.46422-0.80787 1.1204-2.068 0.43618-0.857 0.71632-1.7587 0.1358-0.21973 0.15331-0.15693 0.25596-0.12838 0.30946-0.028738 0.40264 0.085617 0.50242 0.24305 0.2699 0.18084 0.47574 0.38949 1.1831 1.2017 0.28404 0.23994 0.12728 0.059297 0.063183-0.021489 0.050675-0.067788-0.042868-0.41205-0.089352-0.5442-0.21442-1.0823-0.30626-1.3527-0.67908-2.6182-1.2984-4.5674-0.26756-1.0539-0.16403-0.80755-0.079696-0.69284-0.01461-0.43403 0.010832-0.3753 0.060165-0.5469 0.092841-0.41462 0.17641-0.46942 0.29801-0.49788 0.4796-0.55954 0.76361-0.69597 0.90432-0.7145 0.98685-0.71533 2.1269-1.4357 5.6444-3.6347 2.2684-1.4872 1.9295-1.3093 1.8226-1.29 1.7035-1.2801 0.92402-0.7384 4.3426-3.6372 1.6203-1.3182 0.7724-0.59551 2.0421-1.4441 0.21732-0.17388 0.41968-0.38477 1.0744-1.1596 2.0237-2.0497 0.71876-0.77893 0.46133-0.56303 0.33307-0.47488 0.26479-0.46631 0.13952-0.31503 0.1679-0.55683 0.11407-0.70604 0.15452-1.2635 0.12388-0.46727 0.17398-0.40302 0.34626-0.54249 0.48865-0.57024 0.66572-0.62013 0.64018-0.51904 2.1686-1.6444 0.95846-0.82371 0.37748-0.36142 0.42666-0.46105 0.14446-0.18966 0.10197-0.18101 0.004105-0.12857 0.16568 0.10197 0.42925 0.1441 1.2902 0.33738 0.79186 0.223 0.43112 0.14557 0.64522 0.25392 0.85246 0.39291 0.89615 0.47605 0.91253 0.54502 0.78753 0.5142 7.4716 5.2495 0.85594 0.5275 0.49551 0.26457 0.7045 0.32098 0.83211 0.29364 1.011 0.23885 1.1515 0.16111 1.0946 0.080899" stroke="#bdc660"/>
    </defs>
    <g clip-path="url(#p58ad409ab4)">
     <use y="280.512" fill="#bdc660" stroke="#bdc660" xlink:href="#mabf17f01bf"/>
    </g>
   </g>
  </g>
 </g>
 <defs>
  <clipPath id="p58ad409ab4">
   <rect x="7.2" y="7.2" width="343.31" height="266.11"/>
  </clipPath>
 </defs>
</svg>
