<?xml version="1.0" encoding="UTF-8"?>
<!DOCTYPE svg  PUBLIC '-//W3C//DTD SVG 1.1//EN'  'http://www.w3.org/Graphics/SVG/1.1/DTD/svg11.dtd'>
<svg width="330.72pt" height="280.51pt" version="1.1" viewBox="0 0 330.72 280.51" xmlns="http://www.w3.org/2000/svg" xmlns:xlink="http://www.w3.org/1999/xlink">
 <metadata>
  <rdf:RDF xmlns:cc="http://creativecommons.org/ns#" xmlns:dc="http://purl.org/dc/elements/1.1/" xmlns:rdf="http://www.w3.org/1999/02/22-rdf-syntax-ns#">
   <cc:Work>
    <dc:type rdf:resource="http://purl.org/dc/dcmitype/StillImage"/>
    <dc:date>2024-07-04T12:11:19.152552</dc:date>
    <dc:format>image/svg+xml</dc:format>
    <dc:creator>
     <cc:Agent>
      <dc:title>Matplotlib v3.7.1, https://matplotlib.org/</dc:title>
     </cc:Agent>
    </dc:creator>
   </cc:Work>
  </rdf:RDF>
 </metadata>
 <defs>
  <style type="text/css">*{stroke-linejoin: round; stroke-linecap: butt}</style>
 </defs>
 <g id="figure_1">
  <g id="patch_1">
   <path d="m0 280.51h330.72v-280.51h-330.72v280.51z" fill="none"/>
  </g>
  <g id="axes_1">
   <g id="PatchCollection_1">
    <defs>
     <path id="mac051dc573" d="m303.34-181.13 0.79947 0.52207 0.62244 0.50699 0.56906 0.57507 0.50958 0.63275 1.0768 1.6166 1.3608 1.9601 0.4179 0.6669 0.31842 0.66061 0.095396 0.32765 0.031681 0.3253-0.035584 0.27959-0.085858 0.27717-0.12518 0.27446-0.15614 0.27119-0.39141 0.54002-0.22957 0.26514-0.48608 0.47379-0.52068 0.39465-0.44788 0.25733-0.53901 0.24386-1.6963 0.64895-1.2001 0.40935-0.76296 0.33271-0.52887 0.28492-0.54007 0.35536-0.38403 0.3225-0.10523 0.15507-0.32344 0.064719-1.8975 0.2009-1.1455 0.15967-1.1923 0.20745-1.46 0.31634-1.5021 0.38595-1.3316 0.40442-0.7197 0.25743-0.91846 0.39101-0.74172 0.38692-0.83112 0.53465-0.84842 0.68947-0.58448 0.61458-0.489 0.67685-0.29686 0.57302-0.21716 0.66634-0.091554 0.74794 0.028385 0.68119 0.14802 0.80298 0.1802 0.62639 0.53929 1.4327 1.5852 3.719 0.97288 2.4953 0.54676 1.5463 0.71799 2.2093 0.50816 1.7727 0.52379 1.9947 0.31911 1.4438 0.20393 1.3771 0.10033 1.1583 0.1526 2.7569 0.13299 1.764 0.20538 1.9788 0.1501 1.0959 0.19971 1.1822 0.29657 1.399 0.19891 0.78061 0.38923 1.3233 0.59262 1.6585 0.45371 1.0245 0.50837 1.0057 0.85532 1.473 2.3525 3.5363 0.55924 0.93847 0.3055 0.58584 0.50767 1.155 0.27469 0.77916 0.21889 0.80453 0.1387 0.75659 0.082786 0.9781-0.004497 0.61964-0.08916 0.8595-0.15558 0.74687-0.28765 0.95175-0.37343 0.9298-0.50856 0.99157-0.76754 1.2339-0.87741 1.2235-0.50881 0.64516-1.1992 1.3836-1.0369 1.0609-0.9454 0.83938-1.0781 0.81555-0.66089 0.43189-0.78807 0.44852-0.63551 0.31455-1.0075 0.42498-0.96363 0.33132-1.2006 0.2956-0.63554 0.10301-0.7806 0.080346-1.409 0.041587-1.3303-0.073737-2.0473-0.19016-0.58764-0.013105-0.73882 0.049933-0.62023 0.11391-0.48455 0.14167-0.44278 0.17542-0.58333 0.30362-0.44857 0.28881-0.6455 0.50673-0.39666 0.37495-0.862 0.94769-2.3507 2.8888-0.69833 0.74612-0.48228 0.40756-0.30561 0.20801-0.48785 0.25693-0.53065 0.17929-0.64376 0.10001-0.79605 0.004483-0.69906-0.071536-0.75941-0.1293-9.1706-2.0567-2.0338-0.54641-2.9936-0.86042-2.1459-0.54802-1.059-0.22354-0.97024-0.16556-0.96515-0.11609-1.4489-0.053772-0.56583 0.028045-0.64904 0.073003-1.5285 0.3473-1.4896 0.54626-1.3656 0.65628-1.3251 0.76978-1.2754 0.86966-1.2122 0.9647-1.1305 1.0632-0.82829 0.92397-0.80753 1.0666-0.72937 1.1288-0.67239 1.1781-0.48622 0.92701-0.90465 1.8713-1.1276 2.5161-1.6231 3.7513-0.91066 2.3691-0.55356 1.6145-1.7834 5.5224-1.9873 5.6184-1.2552 3.3779-1.5672 3.8408-0.4559 1.1874-0.35029 1.0858-0.28408 1.1457-0.22521 1.4376-0.086242 0.99128-0.042792 1.0036 0.00482 1.6881 0.071576 1.7114 0.42527 5.8954 0.085678 1.5725 0.030014 1.5666-0.062755 1.6204-0.20238 1.5942-0.10043 0.49182-0.07383 0.30599-0.51389 1.5371-0.63857 1.3573-0.43253 0.76485-0.70642 1.1053-0.64682 0.91595-0.85499 1.1191-1.2181 1.4569-0.73436 0.80545-1.5572 1.6234-0.21504 0.26476-0.007429 0.046743-0.09717-0.014049-0.2451-0.21534-0.34473-0.4058-0.37621-0.5114-3.0114-4.6727-2.8689-4.1087-3.4934-5.2352-1.4487-2.0363-0.94093-1.1903-1.2444-1.4116-1.4457-1.4914-2.2575-2.1829-2.0606-1.8458-1.3357-1.0924-0.68998-0.52513-1.0112-0.70906-0.72037-0.46396-1.8437-1.066-1.1911-0.60623-1.5555-0.72317-1.5029-0.62724-1.224-0.45427-1.3501-0.44837-1.5775-0.46108-1.0449-0.24902-0.87664-0.1497-1.505-0.13689-1.1889 0.004101-0.61513 0.044508-0.74504 0.09471-1.2889 0.26744-1.6796 0.51842-4.5111 1.6132-1.6721 0.65997-3.4493 1.4529-1.408 0.52174-1.1964 0.36683-1.2044 0.29257-1.1689 0.21061-1.3099 0.16675-1.3492 0.098715-1.1475 0.026584-0.96477-0.03095-1.062-0.091284-2.0866-0.3033-4.7415-0.94427-4.8958-0.82477-0.6887-0.072993-0.33327 0.016001-0.24832 0.051476-0.21942 0.08318-0.22098 0.12482-0.23951 0.18337-0.29165 0.28296-2.3943 2.897-0.62257 0.68064-0.56347 0.54651-0.71631 0.62235-0.96578 0.74922-2.26 1.5165-0.72406 0.54341-1.0385 0.90966-0.60365 0.65663-0.52003 0.71139-0.39321 0.68998-0.98054 2.0413-0.33077 0.58312-0.50935 0.7163-0.55564 0.55745-0.67573 0.44144-0.78914 0.31282-0.46236 0.10986-0.54399 0.071691-0.64911 0.015082-0.80978-0.077357-0.72659-0.17135-0.41472-0.23331 0.053139-0.27538-0.049348-0.46336-0.28525-1.0532-0.26798-0.66656-0.34184-0.67292-0.74618-1.0872-0.94165-0.93495-0.99797-0.64503-0.94795-0.35376-1.0431-0.1439-2.1933 0.006161-1.1723-0.090352-1.2113-0.22304-1.3005-0.39019-1.8816-0.73268-1.6361-0.70854-3.6603-1.7581-1.1731-0.69701-0.80725-0.56109-1.7328-1.3032-2.0373-1.7959-0.98049-0.82373-2.1513-1.7463-1.7672-1.3201-0.98107-0.86831-1.0637-1.0944-0.43149-0.50405-0.7629-1.0117-0.84605-1.3358-0.43027-0.83005-0.22825-0.51766-0.62122-1.7064-0.28074-0.65712-0.27679-0.50394-0.26034-0.37625-0.32289-0.3875-0.35642-0.36295-0.45471-0.39669-0.68984-0.51411-1.3421-0.88188-2.0451-1.2299-0.75533-0.42472-1.8395-0.95455-0.85898-0.40751-2.1071-0.92644-1.2553-0.51895-7.1806-2.8467-2.9793-1.2516-2.8168-1.2432-2.9624-1.3526-2.9776-1.3994-3.9768-1.9311 1.6028-1.4589 1.2765-1.2304 1.2062-1.2441 0.774-0.87668 0.72176-0.94964 0.33848-0.51954 0.3896-0.69099 0.28871-0.60839 0.31886-0.83305 0.15143-0.50339 0.17823-0.78216 0.15058-0.9572 0.087594-0.78428 0.082505-1.345 0.010784-0.80501-0.031329-1.1993-0.06501-0.85178-0.098738-0.76921-0.19131-0.95618-0.30678-1.0132-0.41701-1.0117-0.73026-1.3377-0.56294-0.82586-0.70438-0.88459-0.65467-0.71825-0.89335-0.84891-0.77973-0.61825-0.67226-0.44229-2.3635-1.2397-0.91534-0.61603-1.1154-0.9203-1.084-1.0449-1.3885-1.5167-2.8991-3.5173-1.0066-1.1431-0.65493-0.66262-0.50736-0.45846-0.54146-0.43132-0.95495-0.62812-0.71705-0.37439-0.48495-0.20087-1.1159-0.29828-1.1258-0.14675-1.5219-0.11862-0.93994-0.11809-0.92081-0.20303-0.75743-0.26376-0.9581-0.46488-0.79145-0.54752-0.74135-0.6569-0.69758-0.73543-0.35698-0.42017-0.54576-0.73432-0.6085-0.98994-0.42842-0.84456-0.47066-1.1606-0.28208-0.95068-0.13272-0.64121-0.093416-0.79966-0.007258-0.69675 0.08996-0.80101 0.37615-1.2079 0.38042-0.69062 0.48018-0.65574 0.72806-0.79432 0.8338-0.75792 1.2096-0.94502 1.311-0.9083 1.3452-0.85986 2.8142-1.669 9.5334-5.3722 2.1813-1.1773 1.0683-0.53616 1.2608-0.57844 1.1598-0.45316 1.1303-0.32786 0.68783-0.12281 0.67279-0.048921 1.1895 0.10062 1.3023 0.30065 0.99796 0.28002 0.98222 0.22016 0.97399 0.067262 0.57307-0.066556 0.53346-0.13194 0.53942-0.19976 0.49247-0.24558 0.54001-0.3494 0.64035-0.53516 0.60139-0.62835 0.42126-0.5158 0.81042-1.1769 1.2616-2.1833 0.41696-0.66431 0.49925-0.69701 0.8964-1.0047 1.0064-0.90049 1.4575-1.1056 2.1786-1.5779 2.695-1.8643 0.42836-0.35005 0.65608-0.67353 0.35848-0.48467 0.33731-0.60171 0.14436-0.33993 0.23393-0.80425 0.072321-0.44227 0.040919-0.57099-0.013976-0.70164-0.097984-0.93307-0.35531-2.2531-0.26463-2.0232-0.20271-1.2097-0.26235-0.94502-0.28989-0.73712-0.25136-0.50073-0.36861-0.59624-0.38388-0.50651-0.39903-0.43597-0.46945-0.42177-0.36201-0.27331-0.60834-0.38419-0.4605-0.2422-1.2869-0.58162-0.75175-0.43531-0.38792-0.34179-0.24145-0.37514-0.043914-0.13704-0.024212-0.23048 0.15106-0.54571 0.39077-0.58672 0.50264-0.53316 0.60866-0.52398 0.60965-0.44708 0.62724-0.39439 0.81067-0.40682 0.47122-0.16283 0.3018-0.030551 0.070496 0.099536 0.28385 0.1387 0.48791 0.16229 1.4143 0.32257 0.72279 0.12087 1.8024 0.22783 1.1746 0.098132 1.0373 0.048334 1.6462-0.003856 1.1888-0.066754 0.99329-0.092905 5.2204-0.70159 1.6376-0.16716 1.0976-0.074778 1.3544-0.044186 1.359 0.005294 6.2587 0.2323 1.1092 0.006394 1.0881-0.066601 0.61736-0.088796 1.0917-0.2438 1.37-0.42204 1.3495-0.50351 4.2201-1.7422 4.6824-1.775 1.4519-0.62923 1.187-0.60884 1.0227-0.65177 0.85648-0.73913 0.4297-0.5234 0.17698-0.27402 0.23951-0.47649 0.1284-0.3628 0.097025-0.45309 0.022812-0.249-0.025432-0.50746-0.056477-0.26586-0.16451-0.42136-0.35646-0.50747-0.42941-0.41565-0.54141-0.42206-1.1887-0.84281-0.66483-0.53709-0.29629-0.28354-0.44716-0.51616-0.4409-0.69212-0.29052-0.71038-0.11834-0.54611-0.009716-0.76731 0.21689-0.87537 0.175-0.40735 0.31626-0.57206 0.35621-0.52202 0.46842-0.57521 0.67293-0.68829 1.6787-1.5624 0.84074-0.8822 0.80432-0.95042 0.75538-1.0038 1.2021-1.7646 0.72095-0.98966 1.1584-1.4343 2.0697-2.3604 0.83889-1.0184 0.89327-1.1986 1.7435-2.4357 0.37697-0.45335 0.53955-0.56076 0.62584-0.51685 0.58475-0.35086 0.42815-0.17587 0.29342-0.087824 0.64633-0.12562 0.86415-0.080616 1.0176-0.032365 1.0654 0.040042 1.4494 0.12384 1.2326 0.17219 0.39234 0.01502 0.33338-0.028077 0.54651-0.1385 0.33515-0.13975 0.3988-0.21407 0.67015-0.48431 0.38227-0.35583 0.35135-0.38533 0.5483-0.74987 0.28237-0.49733 0.3529-0.81344 0.37202-1.1861 0.2176-0.91469 0.26932-1.4486 0.49418-3.1552 0.32758-1.6165 0.4154-1.6366 0.462-1.5603 0.4695-1.3815 0.5837-1.452 0.61803-1.24 0.73242-1.1256 0.33347-0.41106 0.63217-0.66435 1.0901-0.95049 0.83096-0.64304 0.98709-0.70523 1.5807-0.95628 0.70587-0.37152 0.65336-0.3038 1.1511-0.45233 1.3448-0.42301 2.3927-0.64373 1.5118-1.0987 1.6224-1.2575 4.7732-3.8038 2.5159-2.044 2.8415-2.3625 1.7506-1.6063 0.98601-0.8645 1.8806-1.5302 1.1226-0.80289 0.55586-0.34481 0.63548-0.3473 1.2191-0.54687 0.48826-0.16251 0.51034-0.10989 0.51096-0.016124 0.46491 0.096186 0.45048 0.19081 1.2765 0.72099 0.45036 0.1944 2.6159 0.81525 0.76158 0.30123 1.2672 0.61673 0.9717 0.4217 1.904 0.63908 1.0128 0.43279 0.56059 0.3258 0.54806 0.373 1.6135 1.2071 0.80344 0.5551 0.55432 0.33829 0.74534 0.38424 1.9862 0.82535 0.99195 0.47922 1.2794 0.72365 0.64581 0.45564 0.21375 0.1876 0.3699 0.42307 0.25525 0.44825 0.17068 0.46461 0.4417 1.8392 0.50898 1.6055 0.31466 0.88022 0.56782 1.4212 0.31571 0.70073 0.41063 0.80279 0.70657 1.1443 0.618 0.83104 0.68567 0.79965 1.4681 1.578 0.80047 0.90472 0.80755 1.0497 0.33325 0.54341 0.4516 1.0471 0.2375 1.076 0.014704 1.0625-0.19671 1.0009-0.8181 2.5695-0.2949 1.2346-0.07789 0.58896-0.068654 1.0333-0.007579 1.1738 0.075053 1.9896 0.023162 2.4157 0.039089 1.2174 0.10415 1.208 0.37264 2.6358 0.07788 0.7668 0.022561 0.84988-0.076594 1.1604-0.18137 1.2945-0.37444 1.9157-0.88384 3.8844-1.5059 6.3184-0.2136 1.2408-0.039258 0.53806 0.018833 0.5732 0.069085 0.40738 0.11934 0.36073 0.21481 0.38374 0.20854 0.25957 0.34688 0.3204 0.45508 0.3078 0.53096 0.266 0.88767 0.30416 0.73064 0.15642 0.99348 0.10371 1.0619-0.015891 0.48279-0.05108 0.6449-0.11344 0.6204-0.16173 0.65837-0.23556 0.78277-0.38403 0.71842-0.47152 1.8422-1.4356 3.32-2.3772 0.96319-0.75053 1.1229-0.94207 1.7218-1.5896 1.2141-1.2303 1.2844-1.4016 1.9637-2.3485 1.022-1.0337 1.102-0.94566 0.85672-0.65703 0.89438-0.63648 1.7108-1.1221 2.4055-1.4365 1.482-0.82809 5.1028-2.7466 1.2397-0.71928 2.7912-1.7042 0.86152-0.48912 0.84943-0.42266 0.68895-0.27958 0.68709-0.21045 0.59457-0.12959 0.75401-0.096437 1.1001-0.001053 0.887 0.13253 0.99408 0.30175 0.97094 0.42202 0.96203 0.49781 0.98558 0.55965 0.96686 0.63106 0.53788 0.40742 0.99181 0.8728 1.0652 1.109 0.54592 0.62952 2.9025 3.5315 0.86139 0.95722 0.87524 0.87607 0.89325 0.76689 1.8407 1.2979 1.0446 0.84366 1.0166 0.96349 0.9698 1.0601 0.9003 1.1401 0.80261 1.2093 0.66977 1.2733 0.41638 1.0294 0.70007 1.9137 0.79627 2.0423 1.1422 2.7606 0.63745 1.4662 1.0136 2.2093 1.2546 2.4933 0.76316 1.3605 0.81576 1.3033 0.98177 1.3409 1.1003 1.19 1.2638 0.97389 0.81358 0.43366 1.4185 0.51754 0.95649 0.23156 0.99845 0.16809 1.5998 0.14657 1.1497 0.028319 1.0925-0.025715 1.1868-0.079385 1.6653-0.19012 1.498-0.23795 1.5337-0.30874 1.3436-0.3508 0.67391-0.23004" stroke="#bdc660"/>
    </defs>
    <g clip-path="url(#p357b4c90e6)">
     <use y="280.512" fill="#bdc660" stroke="#bdc660" xlink:href="#mac051dc573"/>
    </g>
   </g>
  </g>
 </g>
 <defs>
  <clipPath id="p357b4c90e6">
   <rect x="7.2" y="7.2" width="316.32" height="266.11"/>
  </clipPath>
 </defs>
</svg>
