<?xml version="1.0" encoding="UTF-8"?>
<!DOCTYPE svg  PUBLIC '-//W3C//DTD SVG 1.1//EN'  'http://www.w3.org/Graphics/SVG/1.1/DTD/svg11.dtd'>
<svg width="319.79pt" height="280.51pt" version="1.1" viewBox="0 0 319.79 280.51" xmlns="http://www.w3.org/2000/svg" xmlns:xlink="http://www.w3.org/1999/xlink">
 <metadata>
  <rdf:RDF xmlns:cc="http://creativecommons.org/ns#" xmlns:dc="http://purl.org/dc/elements/1.1/" xmlns:rdf="http://www.w3.org/1999/02/22-rdf-syntax-ns#">
   <cc:Work>
    <dc:type rdf:resource="http://purl.org/dc/dcmitype/StillImage"/>
    <dc:date>2024-07-04T12:11:20.837395</dc:date>
    <dc:format>image/svg+xml</dc:format>
    <dc:creator>
     <cc:Agent>
      <dc:title>Matplotlib v3.7.1, https://matplotlib.org/</dc:title>
     </cc:Agent>
    </dc:creator>
   </cc:Work>
  </rdf:RDF>
 </metadata>
 <defs>
  <style type="text/css">*{stroke-linejoin: round; stroke-linecap: butt}</style>
 </defs>
 <g id="figure_1">
  <g id="patch_1">
   <path d="m0 280.51h319.79v-280.51h-319.79v280.51z" fill="none"/>
  </g>
  <g id="axes_1">
   <g id="PatchCollection_1">
    <defs>
     <path id="m6242b283fc" d="m225.56-257.32 0.44083 0.33551 0.8534 0.69791 1.3165 1.1793 1.4423 1.3947 0.92367 0.95285 0.79505 0.90189 0.60116 0.76051 0.92559 1.301 2.2319 3.3448 1.8329 2.6251 1.924 2.9854 0.24036 0.32674 0.22025 0.25927 0.1566 0.13758 0.062082 0.008976 0.069121 0.14813 0.28316 0.89657 0.81596 2.7923 0.23824 0.70969 0.23938 0.62795 0.33886 0.77013 0.45148 0.86525 0.29459 0.49078 0.31325 0.47433 0.59006 0.79363 0.63151 0.74345 0.41177 0.439 0.83867 0.80677 2.1645 1.8453 0.50732 0.48004 0.30935 0.3292 1.606 1.9139 1.0535 1.1717 0.51145 0.62828 0.43965 0.67049 0.23904 0.48188 0.19823 0.50663 0.1799 0.58198 0.14984 0.60047 0.41454 2.0306 0.20652 0.85175 0.26395 0.84856 0.32462 0.88614 0.36523 0.9048 0.57082 1.3336 2.243 5.1156 1.8029 3.8687 0.40048 0.77414 0.30064 0.51782 0.31643 0.47328 0.44699 0.53379 0.41959 0.36062 0.36207 0.20504 0.33601 0.10846 0.47209 0.051872 0.37186-0.021702 0.26371-0.044075 0.14893-0.040589-0.10393 0.08471-0.12534 0.16423-0.10216 0.18236-0.083561 0.19781-0.083959 0.29423-0.050995 0.4507 0.067307 0.63661 0.27208 0.84304 0.22462 0.47757 0.26886 0.4822 0.44417 0.68656 0.64768 0.8763 1.8466 2.3027 0.47971 0.65181 0.65105 0.97466 0.88157 1.4655 1.7747 3.1194 0.9027 1.7051 0.43584 0.94284 0.2758 0.74944 0.22327 0.92874 0.10925 0.91893 0.043631 1.2065 0.056773 0.82675 0.15424 1.1577 0.11996 0.60808 0.10069 0.40826 0.20131 0.62199 0.17411 0.391 0.19105 0.31948 0.18835 0.22817 0.2738 0.19619 0.1826 0.044375 0.31777-0.038149 0.71091-0.21193 0.42275-0.015082 0.23228 0.047435 0.5122 0.20103 0.43989 0.23939 0.46722 0.29606 0.71627 0.5063 0.72572 0.55339 2.8915 2.28 1.017 0.71638 0.5105 0.32298 0.52289 0.30417 0.61042 0.32196 0.7965 0.37029 0.99395 0.37157 0.73974 0.20107 0.53511 0.10294 0.57209 0.072621 1.0787 0.052589 1.1162-0.029363 1.2291-0.11222 0.66784-0.096691 0.66844-0.12297 0.8637-0.19941 0.86924-0.24836 0.68934-0.22952 2.1608-0.7958 0.77671-0.26062 0.63507-0.18784 0.69267-0.16405 0.25822-0.032066 0.12897 0.044604 0.060928 0.23226-0.044259 0.36453-0.15256 0.49588-0.20077 0.4256-0.25094 0.38999-0.23958 0.28687-0.37588 0.34682-0.43861 0.31384-0.48239 0.27988-0.52366 0.2551-0.78026 0.32034-0.82471 0.28907-1.2399 0.381-3.0463 0.8794-1.5885 0.48434-0.96658 0.33771-1.0196 0.43401-0.71834 0.36811-0.6879 0.40856-0.57491 0.39014-0.54764 0.41929-0.81362 0.72884-0.60661 0.6485-0.40962 0.49894-0.3803 0.51561-0.36602 0.55512-0.33191 0.56773-0.25386 0.49109-0.24143 0.53898-0.14632 0.38777-0.15865 0.52939-0.10551 0.50644-0.070954 0.51638-0.053377 0.65534-0.10068 2.6564-0.085879 1.0223-0.1136 1.0525-0.13412 0.97117-0.21888 1.0655-0.17074 0.66371-0.19237 0.66182-0.36318 1.0988-0.54082 1.4166-0.24371 0.56758-0.48424 1.0042-0.3831 0.70894-0.40875 0.69502-0.6159 0.95351-0.59274 0.8358-0.5965 0.77648-0.60937 0.73783-0.75905 0.83193-0.736 0.70038-0.72927 0.59498-0.92451 0.66598-1.7318 1.1368-2.3593 1.4978-0.79778 0.53234-0.76577 0.55494-0.68426 0.55386-0.38397 0.3444-0.48829 0.47487-1.9846 2.1116-0.66223 0.63064-0.63219 0.52108-0.48516 0.34575-0.50377 0.31244-0.91329 0.45601-0.4943 0.19478-0.51213 0.16796-0.67906 0.16947-0.82049 0.12044-1.024 0.047112-1.0611-0.045702-0.65947-0.069004-1.1324-0.17916-1.3089-0.26946-1.2136-0.3027-1.0519-0.32605-4.0055-1.4939-0.57209-0.19869-0.58965-0.16782-0.90191-0.17141-0.93685-0.096578-0.96158-0.041962-0.97741-0.004485-2.9482 0.067244-0.96147 0.004074-0.93559-0.029498-1.0173-0.099257-0.82549-0.1648-0.6926-0.22989-0.28254-0.12086-0.7068-0.34846-0.56506-0.31019-0.4201-0.25878-0.70962-0.4844-0.58973-0.42902-4.1602-3.1145-0.49048-0.32014-0.35204-0.20343-0.66763-0.31618-0.5901-0.18766-0.36035-0.063954-0.33875-0.016411-0.51186 0.079076-0.4231 0.19419-0.18064 0.16537-0.14291 0.19757-0.69593 1.4537-0.30931 0.56686-0.56437 0.9319-0.61135 0.92266-0.8333 1.1784-0.62003 0.79028-0.32102 0.36821-0.2809 0.29604-0.43367 0.40607-0.37912 0.30606-0.73212 0.51112-1.6268 1.0158-0.61138 0.42551-0.41296 0.33103-0.49664 0.46682-0.46458 0.51972-0.50745 0.68162-0.50047 0.82007-0.91709 1.6629-0.49203 0.74732-0.51158 0.67967-0.72337 0.84078-0.41894 0.43545-0.43801 0.41975-0.42927 0.37841-0.44412 0.36026-0.79153 0.56796-0.49944 0.30898-0.51359 0.27711-0.61931 0.27772-0.63859 0.21925-0.28192 0.074748-1.0948 0.2089-3.1806 0.43212-2.6071 0.44629-2.3084 0.43116-0.89468 0.20255-0.72844 0.18889-1.4186 0.42956-0.98526 0.3431-1.1674 0.45138-1.2749 0.55967-0.7135 0.361-0.61223 0.33813-0.30068 0.13082 0.13137 0.22212 0.24597 0.57308 0.7882 2.2767 0.55077 1.4061 0.53852 1.151 0.95132 1.7608 0.21064 0.42213 0.26101 0.62228 0.1428 0.44362 0.1437 0.6612 0.083221 0.7696 0.021258 0.54354 0.018561 1.9064 0.058208 0.81605 0.10945 0.82414 0.11893 0.60704 0.17087 0.66924 0.4872 1.5361 0.12036 0.43457 0.092845 0.46537 0.045838 0.39644 0.017124 0.37004-0.010488 0.47814-0.068445 0.61719-0.17384 0.78156-0.2945 0.94955-0.43066 1.2193-1.4398 3.8437-0.30904 0.72813-0.7308 1.5337-0.21017 0.47668-0.17672 0.44346-0.17725 0.51369-0.14657 0.5164-0.13447 0.60036-0.086341 0.49915-0.085581 0.73199-0.036213 0.94633 0.053973 1.0089 0.11289 0.86238 0.18222 0.91687 0.16548 0.64514 0.27141 0.8902 0.21991 0.63099 0.62046 1.651 0.2917 0.89279 0.32305 1.266 0.10517 0.52162 0.1247 0.76778 0.10446 0.91292 0.066441 1.003 0.019132 0.6083 9.68e-4 1.0208-0.021525 0.82395-0.043196 0.71339-0.19237 2.1904-0.14537 2.0649-0.079831 1.9507-0.02507 1.2438 8.15e-4 1.7105 0.022061 0.91191 0.080745 1.2832 0.08338 0.70999 0.096197 0.61488 0.1528 0.77736 0.18305 0.7675 0.21067 0.76034 0.45043 1.3743 1.2627 3.4162 0.2649 0.8382 0.22016 0.89565 0.10721 0.64088 0.068202 0.66704 0.025239 0.66775-0.012954 0.58928-0.030936 0.42764-0.043195 0.37752-0.12754 0.72601-0.18942 0.73683-0.18827 0.59348-0.57048 1.5532-0.72603 1.8648-0.40603 0.94522-0.44566 0.92549-0.27706 0.50049-0.25772 0.41506-0.46318 0.6492-0.60979 0.7433-0.70897 0.77252-0.34095 0.3381-0.38748 0.35432-0.4735 0.38212-0.59416 0.39636-0.62348 0.3356-0.47918 0.21389-0.43395 0.16438-0.8598 0.24922-0.79949 0.15436-0.58422 0.076267-0.69742 0.057415-0.86188 0.031984-1.5612-0.00117-1.4607-0.051254-7.5037-0.4138-0.95329-0.072681-0.8441-0.10464-0.033159-0.063418-0.085844-0.035178-0.22714-0.014324-0.5402 0.083896-0.28153 0.067802-2.3316 0.62094-2.8617 0.8339-2.8982 0.70279-1.2799 0.34832-1.57 0.49206-3.0657 1.0527-0.84214 0.3105-2.007 0.78724-1.6361 0.56489-2.346 0.7056-0.97349 0.25778-0.9794 0.19944-0.67791 0.088902-0.99291 0.064782-0.96562 5.21e-4 -0.97981-0.055218-0.97689-0.10818-1.0606-0.16574-1.2391-0.23443-1.0059-0.24132-1.7268-0.52287-1.1478-0.32257-1.2854-0.33897-2.2632-0.54393-0.68073-0.20958-0.62656-0.23412-0.75634-0.32882-1.9298-0.93285-1.4436-0.74824-1.2517-0.57382-0.33853-0.17285-0.88299-0.51003-1.4471-0.95065-3.5555-2.5212-2.3055-1.5732-0.55943-0.4013-0.53431-0.41783-0.35276-0.30331-0.56549-0.52278-0.59543-0.58762-0.77701-0.85683-0.31353-0.37935-0.5052-0.67099-0.4811-0.75671-0.28675-0.5618-0.25632-0.61691-0.24729-0.82855-0.24737-1.1478-0.19525-0.72886-0.13842-0.37706-0.26896-0.54973-0.12588-0.20665-0.24968-0.34725-0.34424-0.35227-1.046-0.77468-0.42211-0.28301-0.49017-0.23688-2.0386-0.86023-0.72098-0.27032-1.8026-0.60768-2.6107-0.81427-3.4441-1.0322-2.1606-0.59063-1.1804-0.29993-2.2077-0.51446-1.9886-0.41426-1.9057-0.36441-2.8491-0.50149-2.1054-0.33166-1.8229-0.25037-1.5215-0.17608-0.69444-0.065417-0.58229-0.031509 0.040599-0.081561-0.003658-0.041785-0.15396-0.20445-0.51085-0.33066-0.75243-0.33852-0.55764-0.19529-0.54562-0.15602-0.56134-0.13136-0.63878-0.12337-1.6192-0.27022-0.62087-0.1235-0.4949-0.12326-0.43681-0.13304-0.48915-0.18108-0.47374-0.21296-0.47215-0.26164-0.48468-0.36039-0.25188-0.2787-0.16188-0.30559-0.061007-0.31682 0.019351-0.34171 0.16064-0.56173 0.29174-0.59611 0.48737-0.74352 0.53108-0.67254 0.6482-0.7255 0.6433-0.66698 0.9517-0.94038 5.1154-4.8111 0.58743-0.5704 0.69088-0.70679 0.62891-0.71487 0.37494-0.49022 0.32588-0.49989 0.27556-0.53185 0.10932-0.26877 0.14822-0.46889 0.11155-0.59402 0.054483-0.75842-0.015734-0.73936-0.1043-0.82382-0.10343-0.4654-0.17955-0.61362-0.62416-1.7544-0.70416-2.0607-0.3022-0.76444-0.16909-0.37415-0.20497-0.39918-0.2326-0.39665-0.42979-0.62353-1.053-1.356-0.54829-0.74619-0.37285-0.54756-0.40191-0.67539-0.27226-0.56155-0.18155-0.50563-0.11385-0.49374-0.053661-0.5785 0.013648-0.46038 0.037893-0.32644 0.088086-0.42094 0.092967-0.30597 0.10916-0.28506 0.15662-0.32944 0.29109-0.47101 0.16896-0.22316 0.41732-0.45438 0.22112-0.20244 0.58398-0.46082 0.70464-0.48284 1.0226-0.62872 0.74412-0.48332 0.57188-0.43444 0.38723-0.35292 0.42062-0.48004 0.27364-0.42853 0.17141-0.41445 0.094894-0.56511-0.002977-0.37831-0.05285-0.42162-0.076539-0.36148-0.24391-0.84365-0.7653-2.2391-0.15827-0.57104-0.079482-0.40554-0.047495-0.48014-0.002005-0.46648 0.034518-0.63838 0.11924-1.4281 0.009783-0.43697-0.014616-0.33259-0.046139-0.35316-0.083249-0.33806-0.13978-0.35119-0.17697-0.30715-0.20109-0.26191-0.18416-0.18387-0.3843-0.26998-0.49304-0.22845-1.3144-0.48489-0.2754-0.12985-0.37471-0.21493-0.37651-0.25712-0.27551-0.22186-0.25976-0.23744-0.35706-0.36856-0.50997-0.60098-0.41999-0.5516-0.70578-1.0121-0.57385-0.87107-0.45096-0.75482-0.32685-0.5881-0.95506-1.8881-0.55534-0.99667-0.81138-1.2547-0.7573-1.0558-0.44727-0.54701-0.72506-0.76038-2.2651-2.0757-0.65921-0.69708-1.263-1.5909-0.49132-0.52734-0.51308-0.45464-0.53393-0.35022-0.55442-0.20793-0.45191-0.041396-0.50427 0.069284-0.47511 0.16065-0.338 0.16838-0.43083 0.29139-0.32013 0.29567-0.32162 0.43616-0.16648 0.36683-0.097032 0.32114-0.10825 0.58596-0.17846 1.7723-0.07342 0.37877-0.10772 0.36244-0.1471 0.32446-0.31545 0.39884-0.16631 0.12321-0.25005 0.12214-0.36228 0.091817-0.36842 0.028383-0.43519-0.020445-0.66577-0.10318-1.0737-0.25599-0.42254-0.081639-0.31408-0.031148-0.23656 1.8e-5 -0.36069 0.042248-0.3904 0.10616-0.29686 0.13751-0.26608 0.19855-0.11319 0.12223-0.10575 0.15067-0.13898 0.32948-0.050971 0.38197 0.03727 0.53622 0.26442 1.4011 0.098305 0.76117-0.003069 0.59852-0.16396 0.7001-0.30436 0.50794-0.4026 0.4175-0.48927 0.36134-0.5029 0.27689-0.54149 0.22074-0.56684 0.15634-0.60298 0.083121-0.60272-0.009474-0.58816-0.1171-0.32377-0.11995-0.37407-0.1833-0.37592-0.22475-0.47738-0.33948-0.73883-0.6278-0.68489-0.66771-0.6766-0.71858-0.66855-0.75041-1.7308-2.0343-0.83242-1.0244-0.32761-0.44205-0.42763-0.65812-0.29691-0.56674-0.23164-0.53399-0.17806-0.46872-0.58066-1.6787-0.24749-0.52397-0.1268-0.20177-0.17171-0.22017-0.44934-0.43092-1.0862-0.84584-0.3418-0.32854-0.2176-0.28014-0.19621-0.40605-0.090449-0.40694-0.011718-0.23616 0.019807-0.57971-0.013141-0.17802-0.10783-0.34811-0.22462-0.28509-0.17378-0.11208-0.3102-0.11417-0.43698-0.067129-0.33239 0.004905-0.20699 0.034967-0.20062 0.070547-0.16792 0.095761-0.22099 0.18722-0.17936 0.20917-0.25359 0.40292-0.19498 0.41903-0.13849 0.36999-0.088386 0.30606-0.021971 0.20514-0.23499 0.10159-0.50855 0.17663-0.64772 0.19152-0.39042 0.093928-0.39408 0.074143-0.66607 0.061754-0.58218-0.045749-0.27963-0.073204-0.23664-0.09433-0.3675-0.21623-0.17409-0.139-0.22044-0.22234-0.12787-0.16197-0.10719-0.16301-0.14453-0.27957-0.070415-0.17717-0.10345-0.35916-0.05695-0.2956-0.060428-0.56531-0.013527-0.51076 0.036229-0.74988 0.096958-0.83386 0.1621-0.91465 0.22808-0.90582 0.26677-0.85764 0.34175-0.89295 0.31929-0.63183 0.22502-0.35511 0.25784-0.33946 0.32451-0.36957 1.2675-1.3028 0.25067-0.31815 0.14236-0.22342 0.17654-0.40523 0.073529-0.30445 0.034307-0.35229-0.012858-0.33075-0.075598-0.43456-0.088037-0.30578-0.11562-0.31107-0.33099-0.68705-0.21422-0.37511-0.57567-0.89997-0.46277-0.65874-0.56849-0.73828-1.2693-1.537-0.4684-0.65981-0.2979-0.49665-0.76131-1.4229-0.90587-1.5158-0.22015-0.41219-0.18913-0.41152-0.13671-0.36651-0.11293-0.4163-0.056642-0.3529-0.017826-0.34186 0.010865-0.24528 0.077982-0.4708 0.15757-0.48205 0.18613-0.39183 0.38957-0.61942 0.75266-1.0629 0.25459-0.42791 0.24793-0.5113 0.19607-0.53843 0.10616-0.38869 0.096106-0.447 0.24146-1.4437 0.1879-0.82304 0.1936-0.52115 0.27212-0.46141 0.23893-0.27526 0.39222-0.3379 0.34581-0.2409 0.35027-0.21435 0.69878-0.38044 1.6335-0.82504 0.79614-0.43892 0.46261-0.27999 0.7551-0.50257 1.8132-1.3247 0.35374-0.22496 0.43529-0.24264 0.42071-0.1957 0.33786-0.12907 0.52985-0.15628 0.42385-0.09162 0.94322-0.13233 1.6627-0.15446 0.91333-0.13763 0.32835-0.075934 0.40482-0.12052 0.44144-0.16951 0.55428-0.28113 0.58799-0.40394 0.47816-0.44316 0.3567-0.44 0.29313-0.49202 0.24057-0.61769 0.10618-0.41297 0.13746-0.8898 0.071387-1.2434-0.009074-1.4259-0.070705-1.1562-0.054772-0.39881-0.075581-0.35559-0.099024-0.31852-0.11106-0.26051-0.12974-0.23454-0.34747-0.472-1.2766-1.3392-0.51744-0.61511-0.51844-0.72779-1.2052-1.8758-0.70819-1.0428-0.71701-0.97096-0.58415-0.7045-0.59412-0.63728-0.7915-0.75136-0.80639-0.69665-1.6843-1.388-0.32856-0.2949-0.5258-0.54436-0.28185-0.39188-0.10246-0.21443-0.040444-0.16193 0.001717-0.10327 0.048101-0.1064 0.059595-0.052295 0.13471-0.02595 0.060432 0.016345 0.042403-0.008805 0.072991-0.048822 0.09068-0.11046 0.088266-0.15298 0.20753-0.52753 0.19084-0.74666 0.1065-0.64361 0.068501-0.76746 0.014966-0.66963-0.04833-1.5333 0.012949-0.49748 0.075192-0.51502 0.14237-0.44454 0.17722-0.35408 0.25578-0.366 0.26679-0.28296 0.20053-0.16927 0.47814-0.31083 0.37548-0.18508 0.48734-0.1809 0.43279-0.11657 0.5446-0.098676 0.61706-0.054179 0.5898-0.004899 0.68395 0.047852 0.42305 0.061833 0.65072 0.14083 1.8345 0.53124 0.79324 0.19895 0.79569 0.12721 0.97915 0.067866 1.1826-0.002664 0.94634-0.079016 0.39709-0.058566 1.6547-0.31179 0.58078-0.085468 0.47346-0.047382 1.235-0.049734 0.55318 0.010897 0.58307 0.051536 0.54808 0.10021 0.40524 0.11086 0.71146 0.26034 1.7683 0.73844 0.80863 0.28738 0.83488 0.24302 0.85951 0.17754 0.88289 0.085809 0.86113-0.023387 0.87686-0.11234 0.88669-0.18187 0.8876-0.23436 0.87479-0.27075 1.6158-0.57918 1.3217-0.5225 0.029803 0.083308 0.15432 2.6506 0.14316 1.5747 0.095093 0.74823 0.1222 0.75103 0.12093 0.59377 0.1309 0.52739 0.20236 0.64978 0.22612 0.55478 0.21862 0.41331 0.27248 0.39399 0.31634 0.33361 0.5886 0.39247 0.68367 0.26017 0.75535 0.15788 0.80831 0.080038 0.86809 0.021347 0.89596-0.025037 1.336-0.098177 0.81843-0.087086 4.7734-0.60494 0.91241-0.074896 0.83539-0.018935 0.43117 0.017015 0.59974 0.060702 0.63689 0.11019 0.69169 0.16169 1.9018 0.52747 0.99904 0.24871 1.0023 0.22085 2.5067 0.50581 1.0138 0.25668 0.49914 0.17481 0.40479 0.18216 0.61252 0.3694 0.48112 0.35894 1.2539 1.0244 0.96188 0.69184 1.1508 0.71548 2.4209 1.3689 0.71574 0.42483 0.84194 0.54574 3.2552 2.2852 1.1774 0.86105 0.3779 0.25126 0.36316 0.21506 0.47206 0.23395 0.72903 0.2423 0.3937 0.05803 0.38028-0.007121 0.50183-0.13845 0.50637-0.3511 0.44171-0.52346 0.37472-0.64758 0.30311-0.71946 0.24393-0.78055 0.28597-1.1365 0.040009-0.081892 0.08285-0.29294-0.020251-0.66738-0.10569-0.86166-0.32342-1.9459-0.13946-0.95762-0.076632-0.88793 0.021615-0.78213 0.065615-0.37145 0.10942-0.33951 0.19077-0.37831 0.51825-0.76675 0.28885-0.46032 0.25604-0.50722 0.18752-0.55649 0.077734-0.43805 0.043163-0.61414 0.017756-1.4407 0.049209-0.62135 0.14401-0.79976 0.16138-0.56336 0.20823-0.55145 0.28092-0.58849 0.37944-0.64334 0.4311-0.63309 0.49703-0.64316 0.42194-0.46776 2.4571-2.4751 0.80463-0.8466 0.85889-0.95708 0.55668-0.65793 0.77413-0.99035 0.79042-1.1556 1.0534-1.6667 0.50268-0.76326 0.73231-1.0269 1.1027-1.4708 0.33648-0.48482 0.34544-0.56771 0.90501-1.89 0.66522-1.2741 0.3903-0.64109 0.24578-0.34475 0.27202-0.3253 0.41689-0.40248 0.62449-0.43878 0.54074-0.26304 1.4037-0.52976 0.42393-0.21208 0.27714-0.16166 1.8362-1.2559 0.74715-0.47267 1.8264-1.0511 1.0403-0.64231 0.60152-0.43243 0.59842-0.51961 0.30996-0.32718 0.36734-0.45303 0.35792-0.5232 0.40896-0.72918 0.36526-0.80653 0.66168-1.7597 0.27417-0.66124 0.47823-0.98806 0.81414-1.4722 0.28025-0.44024 0.34105-0.44769 0.40336-0.41032 0.37835-0.29273 0.36427-0.21594 1.1948-0.5843 2.2347-1.1925 1.5388-0.76721 0.50171-0.2923 0.90119-0.56726 0.55439-0.2902 0.54281-0.23515 1.251-0.49287 1.056-0.38072 1.086-0.35078 1.7464-0.49009 0.92022-0.19917 0.45118-0.072221 1.5031-0.18091 0.53954-0.086258 0.62484-0.12637 0.68352-0.18444 0.30903-0.10829 0.48997-0.2212 0.39601-0.24105 0.38573-0.3084 0.48938-0.50693 0.79292-0.95018 0.65737-0.71988 0.30382-0.28749 0.33804-0.28275 0.49277-0.34164 0.66148-0.34657 1.5334-0.63641 1.2051-0.54663 2.7497-1.3321 2.8762-1.4531 2.966-1.4641 1.0047-0.57115 0.5711-0.38158 0.51285-0.41164 0.16379-0.15348 0.24182-0.25408 0.33657-0.42281 0.34924-0.56085 0.17072-0.34846 0.12863-0.33684 0.046438-0.20773-0.017704-0.10317 0.26496 0.14906 0.46422 0.10947 0.51737 0.049424 0.41472-0.009636 0.34756-0.045804 0.2954-0.070189 0.50418-0.19986 0.43172-0.28204 0.355-0.35616 0.32542-0.45764 0.21133-0.37256 0.62647-1.3042 0.25122-0.44083 0.33225-0.45451 0.38567-0.41952 0.66348-0.58118 0.46261-0.34718 1.4439-0.96892 0.61704-0.47868 0.45765-0.39762 0.36-0.34917 0.39776-0.43486 1.5298-1.8509 0.18634-0.18078 0.15302-0.11715 0.14118-0.079748 0.14019-0.053144 0.15865-0.032888 0.21292-0.010223 0.44002 0.046635 3.1279 0.52695 3.0294 0.6033 1.3331 0.19378 0.67855 0.058322 0.61639 0.019774 0.73316-0.016984 0.862-0.06307 0.83689-0.10654 0.74679-0.13456 0.7695-0.18692 0.76438-0.23437 0.89956-0.33334 2.2038-0.92825 1.0683-0.42166 2.8822-1.0307 1.0731-0.33122 0.82351-0.17087 0.476-0.060511 0.39301-0.028436 0.75957-0.00262 0.96156 0.087459 0.56008 0.095645 0.66758 0.1591 1.0079 0.29458 0.8626 0.28646 0.78201 0.29024 0.96022 0.40075 0.99383 0.46204 0.76096 0.38732 1.1779 0.6811 0.46025 0.29642 0.64607 0.45302" stroke="#bdc660"/>
    </defs>
    <g clip-path="url(#p460062c5ba)">
     <use y="280.512" fill="#bdc660" stroke="#bdc660" xlink:href="#m6242b283fc"/>
    </g>
   </g>
  </g>
 </g>
 <defs>
  <clipPath id="p460062c5ba">
   <rect x="7.2" y="7.2" width="305.39" height="266.11"/>
  </clipPath>
 </defs>
</svg>
