<?xml version="1.0" encoding="UTF-8"?>
<!DOCTYPE svg  PUBLIC '-//W3C//DTD SVG 1.1//EN'  'http://www.w3.org/Graphics/SVG/1.1/DTD/svg11.dtd'>
<svg width="277.79pt" height="280.51pt" version="1.1" viewBox="0 0 277.79 280.51" xmlns="http://www.w3.org/2000/svg" xmlns:xlink="http://www.w3.org/1999/xlink">
 <metadata>
  <rdf:RDF xmlns:cc="http://creativecommons.org/ns#" xmlns:dc="http://purl.org/dc/elements/1.1/" xmlns:rdf="http://www.w3.org/1999/02/22-rdf-syntax-ns#">
   <cc:Work>
    <dc:type rdf:resource="http://purl.org/dc/dcmitype/StillImage"/>
    <dc:date>2024-07-04T12:11:20.326498</dc:date>
    <dc:format>image/svg+xml</dc:format>
    <dc:creator>
     <cc:Agent>
      <dc:title>Matplotlib v3.7.1, https://matplotlib.org/</dc:title>
     </cc:Agent>
    </dc:creator>
   </cc:Work>
  </rdf:RDF>
 </metadata>
 <defs>
  <style type="text/css">*{stroke-linejoin: round; stroke-linecap: butt}</style>
 </defs>
 <g id="figure_1">
  <g id="patch_1">
   <path d="m0 280.51h277.79v-280.51h-277.79v280.51z" fill="none"/>
  </g>
  <g id="axes_1">
   <g id="PatchCollection_1">
    <defs>
     <path id="m70e83522af" d="m89.757-248.91 0.60196 0.5115 0.38894 0.27659 0.30628 0.18312 0.30477 0.14934 0.26379 0.097728 0.4792 0.095409 0.49106 0.007719 0.49128-0.067722 0.46182-0.12737 0.44117-0.17984 0.40973-0.22559 0.39863-0.2944 0.32801-0.34015 0.24797-0.41384 0.13359-0.5704 0.0025-0.48764-0.080094-0.62016-0.21543-1.1416-0.030365-0.43688 0.041527-0.3112 0.11323-0.26844 0.086156-0.12276 0.092217-0.099584 0.21679-0.16177 0.24186-0.11204 0.31808-0.086497 0.29387-0.034421 0.19274-1.5e-5 0.25589 0.025378 0.34426 0.066515 0.87478 0.20857 0.54243 0.084066 0.35456 0.016658 0.30017-0.023125 0.29517-0.074807 0.20373-0.099517 0.1355-0.10038 0.25701-0.32496 0.11985-0.26435 0.087763-0.29529 0.059818-0.3086 0.1454-1.444 0.088194-0.47741 0.079056-0.26165 0.13564-0.29887 0.26203-0.35536 0.26082-0.2409 0.35101-0.2374 0.27538-0.13719 0.38709-0.13089 0.41085-0.056448 0.36819 0.033727 0.45171 0.16941 0.43502 0.28534 0.41803 0.37041 0.4003 0.42964 1.029 1.2961 0.53709 0.56794 1.8455 1.6911 0.59073 0.61952 0.36441 0.44567 0.61701 0.86018 0.66106 1.0222 0.45246 0.81202 0.77812 1.5383 0.2663 0.47915 0.36742 0.61498 0.46754 0.70969 0.57503 0.8246 0.34218 0.44941 0.41549 0.48964 0.29091 0.30028 0.21164 0.19345 0.22447 0.18076 0.30676 0.20949 0.30529 0.17511 0.22438 0.10579 1.0709 0.39506 0.4017 0.18612 0.31311 0.21996 0.15004 0.1498 0.16384 0.21339 0.14419 0.25025 0.11388 0.28613 0.067826 0.27543 0.037592 0.28773 0.011908 0.27098-0.007971 0.35602-0.097145 1.1635-0.028124 0.52012 0.001634 0.38006 0.038696 0.39118 0.064758 0.33041 0.12895 0.46525 0.62352 1.8243 0.19873 0.68736 0.062359 0.29451 0.043059 0.34352 0.002425 0.30822-0.077314 0.46042-0.13966 0.33767-0.22294 0.34914-0.34269 0.3911-0.31549 0.28754-0.46593 0.35396-0.60627 0.39378-0.83318 0.51225-0.5741 0.39339-0.47579 0.37545-0.18016 0.16494-0.34001 0.3702-0.13766 0.18182-0.23716 0.38375-0.1276 0.26841-0.088936 0.23225-0.075745 0.24929-0.071767 0.34295-0.030873 0.26597-0.01112 0.3751 0.043721 0.47133 0.092758 0.40226 0.14791 0.41196 0.22182 0.45752 0.32745 0.55027 0.30377 0.44612 0.44672 0.60795 0.85791 1.1048 0.35017 0.50801 0.18951 0.32316 0.167 0.32523 0.13776 0.30483 0.24621 0.62282 0.57371 1.6789 0.50853 1.4294 0.14629 0.49994 0.084268 0.37918 0.084977 0.6712 0.01282 0.60238-0.04439 0.61792-0.090882 0.48398-0.12076 0.38202-0.089063 0.21898-0.22451 0.43332-0.26551 0.40728-0.30548 0.3994-0.5124 0.58243-0.56289 0.57585-0.4786 0.46473-4.1677 3.9198-0.77539 0.76616-0.52413 0.54342-0.52812 0.5911-0.4327 0.54794-0.39708 0.60578-0.23769 0.48567-0.13088 0.45766-0.015765 0.27841 0.049705 0.25812 0.13189 0.24897 0.20521 0.22707 0.39489 0.29363 0.38468 0.21317 0.38598 0.17351 0.39853 0.14754 0.35588 0.1084 0.40321 0.10043 0.50584 0.10062 1.3193 0.22016 0.52044 0.10052 0.45735 0.10702 0.44454 0.12712 0.45433 0.15911 0.61304 0.27581 0.41621 0.2694 0.12544 0.16657 0.00298 0.034043-0.033078 0.066452 0.47442 0.025671 0.56579 0.053299 1.2397 0.14346 1.4852 0.20399 1.7154 0.27022 2.3213 0.40859 1.5527 0.2969 1.6202 0.33751 1.7987 0.41915 0.9617 0.24437 1.7603 0.48121 2.8061 0.84094 2.127 0.66342 1.4687 0.49511 0.58741 0.22024 1.661 0.70087 0.39936 0.193 0.34391 0.23058 0.85221 0.63116 0.28046 0.28701 0.20342 0.28292 0.10256 0.16836 0.21914 0.44789 0.11277 0.3072 0.15908 0.59384 0.20154 0.9352 0.20148 0.67506 0.20883 0.50262 0.23363 0.45772 0.39197 0.61652 0.41161 0.54668 0.25544 0.30907 0.63306 0.69809 0.48512 0.47876 0.46073 0.42593 0.28741 0.24712 0.43532 0.34043 0.45579 0.32696 1.8784 1.2818 2.8968 2.0541 1.179 0.77454 0.7194 0.41554 0.27581 0.14083 1.0198 0.46752 1.1761 0.60962 1.5723 0.76003 0.61622 0.2679 0.51049 0.19075 0.55462 0.17076 1.8439 0.44316 1.0473 0.27617 0.9352 0.26281 1.4069 0.426 0.81958 0.19661 1.0096 0.191 0.86411 0.13503 0.79591 0.088139 0.79829 0.044988 0.78673-4.24e-4 0.80896-0.052781 0.55232-0.072431 0.79795-0.1625 0.79314-0.21002 1.9114-0.57488 1.333-0.46024 1.6352-0.6414 0.68613-0.25298 2.4977-0.85769 1.2792-0.4009 1.0428-0.28379 2.3612-0.57259 2.3316-0.67941 1.8996-0.50591 0.22938-0.055241 0.44012-0.068353 0.18506 0.01167 0.06994 0.02866 0.027017 0.05167 0.033017 0.041456-9.45e-4 0.042151-0.049157 0.14646-0.15869 0.28614-0.18148 0.26035-0.47481 0.57786-1.5592 1.7349-0.42196 0.5202-0.24753 0.33331-0.40984 0.63306-0.18966 0.35747-0.10784 0.24003-0.093424 0.25079-0.071664 0.24981-0.056382 0.29772-0.023123 0.24439 0.00654 0.50273 0.092409 0.76652 0.50396 3.3933 0.2048 1.0629 0.13604 0.54332 0.17986 0.59986 0.21908 0.61989 0.27771 0.68072 0.25982 0.56798 0.43176 0.84527 0.94867 1.7155 0.43299 0.86099 0.22672 0.51152 0.32025 0.8418 0.16094 0.48542 0.32589 1.0969 0.44971 1.6112 0.19805 0.6187 0.16195 0.43408 0.25108 0.57155 0.31798 0.60549 0.41597 0.64649 0.27708 0.35482 0.44623 0.46158 0.22646 0.19053 0.30293 0.22137 0.43006 0.26357 0.40061 0.20318 0.36294 0.15561 0.4428 0.15972 0.3566 0.10886 0.5823 0.14827 0.94193 0.18063 2.679 0.34706 0.93003 0.15134 0.51678 0.11059 0.33437 0.091393 0.41403 0.15131 0.28365 0.14451 0.24848 0.17527 0.169 0.1659 0.11139 0.14839 0.065404 0.11458 0.070694 0.17185 0.039407 0.14441 0.040033 0.34691-0.00706 0.22217-0.034757 0.24922-0.052631 0.2076-0.035136 0.095156-0.075473 0.12669-0.14911 0.027173-0.1559 0.090484-0.18685 0.16911-0.153 0.19346-0.15761 0.28862-0.070277 0.19592-0.064803 0.34766-0.003486 0.30845 0.042558 0.32888 0.05191 0.21246 0.091431 0.26226 0.17853 0.37244 0.4593 0.80525 0.17637 0.40355 0.078655 0.28485 0.14407 0.7782 0.20021 0.57623 0.16357 0.36155 0.19434 0.37935 0.35886 0.61888 0.54934 0.8209 0.357 0.47579 0.37897 0.46931 1.4348 1.7122 0.38967 0.50049 0.32585 0.45385 0.41077 0.63172 0.31415 0.53319 1.0045 1.8946 0.3006 0.47653 0.19722 0.27119 0.43207 0.50747 0.44578 0.44604 0.54371 0.48507 1.3716 1.1475 0.48026 0.43508 0.48994 0.47556 0.85177 0.90793 1.4392 1.6787 0.56015 0.58839 0.40907 0.3899 0.4242 0.37297 0.7634 0.59917 1.7419 1.1879 1.3998 1.0015 1.0119 0.78799 0.9812 0.8454 1.0405 0.99428 0.42405 0.4256 0.31247 0.34381 1.4499 1.7247 0.22918 0.31762 0.20372 0.33139 0.23844 0.47384 0.14891 0.3775 0.091293 0.30748 0.17499 0.77288 0.24312 0.6558 0.043137 0.26847-0.004116 0.16386-0.097615 0.44776-0.54254 1.5996-0.23194 0.79461-0.10378 0.46251-0.079587 0.57574-0.02698 0.70694 0.01777 0.45841 0.12926 1.4185 0.022018 0.56942-0.012776 0.95378 0.007996 0.45419 0.022321 0.37064 0.043483 0.3679 0.084999 0.41399 0.13306 0.40083 0.25439 0.48927 0.1357 0.19956 0.42451 0.49546 0.4136 0.37276 0.38032 0.28302 0.41984 0.27053 1.8068 1.0248 1.0802 0.67022 0.37131 0.26305 0.34049 0.28023 0.21726 0.22999 0.1728 0.25198 0.071182 0.14729 0.07601 0.21827 0.18757 0.81371 0.17011 0.56036 0.084177 0.41617 0.04252 0.4561-0.011165 0.47798-0.16261 1.0381-0.061831 0.53903-0.027501 0.52697 0.00537 0.55089 0.026565 0.37677 0.062968 0.45047 0.11011 0.44593 0.12154 0.31817 0.19532 0.36423 0.23282 0.34176 0.27173 0.34418 0.2923 0.31962 1.1147 1.0202 0.16624 0.16762 0.16163 0.21795 0.033269 0.11417-0.056973 0.15111-0.19398 0.074144-0.027029 0.035342 0.004107 0.083989 0.057521 0.21598 0.1969 0.48128 0.2976 0.58956 2.4099 4.1355 0.37206 0.58659 0.23233 0.32477 0.25831 0.34394 0.63726 0.78296 0.56888 0.73156 0.40643 0.45912 0.56952 0.55103 0.41511 0.30645 0.40322 0.19254 0.43079 0.1648 0.32056 0.14712 0.23305 0.15033 0.14996 0.13362 0.12536 0.14924 0.40525 0.69237 0.64147 0.98139 0.34702 0.44838 0.29475 0.31101 0.2716 0.24188 0.40199 0.29674 0.26327 0.15873 0.35027 0.18052 0.85198 0.40567 2.0098 0.77786 0.39115 0.17526 0.4354 0.22877 0.38992 0.24969 0.24482 0.19277 0.26048 0.25514 0.7856 0.92178 0.31728 0.28537 0.24031 0.1492 0.24669 0.11485 0.37903 0.12527 0.3546 0.042696 0.52232 0.028038 0.12944 0.034452 0.12218 0.073972 0.098748 0.14053 0.056569 0.22403 0.017258 0.27844-0.009652 0.40358-0.081863 0.80302-0.047284 0.27591-0.14983 0.58006-0.44782 1.1838-0.13714 0.40206-0.12176 0.41364-0.11927 0.51122-0.066027 0.39113-0.042838 0.39188-0.011007 0.72397 0.051486 0.49243 0.12368 0.52145 0.15197 0.38307 0.25312 0.44512 0.90847 1.2357 0.4009 0.65263 0.46874 0.90355 0.1775 0.39968 0.14716 0.38616 0.13267 0.42646 0.12316 0.50571 0.082852 0.45571 0.050433 0.39729 0.043039 0.52487 0.02747 1.0241-0.032913 0.53206-0.049103 0.44202-0.29476 1.744-0.24893 2.3422-0.084337 0.52295-0.11049 0.52693-0.15383 0.57883-0.1853 0.57926-0.17823 0.4915-1.0393 2.6245-0.29861 0.83876-0.24474 0.84446-0.12472 0.56794-0.078082 0.51922-0.022316 0.58192 0.048838 0.28827 0.062273 0.10898 0.040541 0.025822 0.051933 0.002719 0.056606-0.024751 0.12476 0.13089 0.12482 0.26245 0.093659 0.34143 0.036551 0.34454-0.013207 0.41312-0.084588 0.41364-0.17765 0.3878-0.42987 0.46417-0.60708 0.37746-0.73518 0.30767-0.82294 0.25462-0.88056 0.21559-0.91684 0.18742-1.7758 0.30279-2.5297 0.36223-2.6355 0.32767-1.7634 0.18771-1.6841 0.13519-0.81003 0.037161-0.77889 0.00707-0.73748-0.033292-0.68276-0.08693-0.37905-0.085511-0.34847-0.11589-0.29674-0.13777-1.0595-0.5953-0.52896-0.19638-0.58711-0.13793-0.63092-0.080256-0.6625-0.020178-0.68349 0.045709-0.32325 0.045687-0.89633 0.18674-1.7622 0.45101-0.6354 0.1372-0.8055 0.13124-0.69348 0.070712-0.86847 0.035835-0.70568-0.008574-0.88834-0.048535-0.74678-0.063776-1.2367-0.14198-0.71862-0.11891-0.70119-0.1561-0.85174-0.25802-0.79274-0.32724-0.7283-0.39628-0.53109-0.35478-0.37806-0.28891-0.32533-0.2766-0.39794-0.39039-0.08634-0.10327-0.034087-0.07304-0.70389-0.25208-0.69705-0.22034-0.81506-0.22905-0.88273-0.21076-0.91717-0.1708-0.93006-0.11118-0.9293-0.031527-0.75045 0.043573-0.74321 0.095222-0.73597 0.13213-2.8813 0.64771-0.65522 0.13234-1.2872 0.22678-2.8494 0.43352-1.9844 0.24322-0.57846 0.05297-0.57612 0.02042-0.78049-0.042719-0.78015-0.10596-0.77683-0.14458-1.5287-0.31602-0.74192-0.12728-0.71811-0.074607-0.68535 0.006607-0.64123 0.12187-0.42874 0.17827-0.533 0.35177-0.44399 0.39307-0.38636 0.39145-1.0608 1.1624-0.40279 0.48306-0.336 0.44282-0.2122 0.30966-0.30028 0.49514-0.27877 0.52667-0.90734 1.9642-0.23485 0.46506-0.40279 0.69637-0.783 1.2068-0.28785 0.46796-0.28868 0.5117-0.30233 0.60297-0.70532 1.6518-0.39028 0.83328-0.21626 0.39963-0.40717 0.65516-0.25141 0.35177-0.27205 0.34383-0.48777 0.54105-0.42539 0.41892-1.128 1.0557-1.5027 1.5392-0.60457 0.58561-0.51213 0.46798-0.29613 0.23588-0.2843 0.18924-0.31776 0.16667-0.37598 0.14114-0.37945 0.089881-0.29992 0.039745-0.24364 0.01439-0.43456-0.010406-0.27337-0.031074-0.25541-0.049035-0.41551-0.1336-0.23615-0.11411-0.20832-0.13064-0.2328-0.19303-0.24891-0.29205-0.21144-0.33718-0.2038-0.40464-0.52909-1.1799-0.19332-0.36385-0.21892-0.3404-0.37453-0.42823-0.40178-0.29843-0.5275-0.2272-0.64581-0.11742-0.62926-0.003165-0.72261 0.082677-0.98885 0.1684-0.72886 0.094269-0.57574 0.018075-0.66439-0.062918-0.56894-0.13748-0.46622-0.18266-0.59892-0.34345-0.4806-0.35949-1.0673-0.93171-0.60722-0.50937-0.57478-0.42832-0.5366-0.35686-1.2283-0.77777-0.43064-0.32969-0.24674-0.23136-0.20888-0.23482-0.17621-0.2324-0.5505-0.86808-0.27176-0.37516-0.23142-0.24232-0.31971-0.23896-0.47282-0.216-0.38086-0.089567-0.38188-0.031721-0.55045 0.03088-0.4891 0.08072-0.59722 0.14525-0.68001 0.21302-0.50809 0.18598-1.089 0.43601-0.55165 0.20058-0.40039 0.11309-0.36164 0.063734-0.44367 0.007832-0.42659-0.089047-0.48662-0.24378-0.44331-0.3812-0.36969-0.45912-0.31671-0.50557-0.70801-1.3288-0.21971-0.36362-0.229-0.30346-0.18074-0.16047-0.17435-0.068223-0.14273 0.021892-0.18309 0.18438-0.098901 0.26509-0.059535 0.36605-0.035613 0.68294-0.005498 0.54975 0.021133 3.2171-0.053478 2.2503-0.038446 0.81301-0.11596 1.7668-0.14625 1.595-0.066737 0.49747-0.098362 0.50582-0.11708 0.37687-0.1466 0.28851-0.17386 0.20208-0.21562 0.13102-0.26572 0.044075-0.36449-0.097886-0.35663-0.26213-0.33696-0.43584-0.2198-0.44226-0.21374-0.65553-0.14818-0.66292-0.12344-0.72246-0.31716-2.1356-0.10462-0.60386-0.11858-0.60845-0.21248-0.93918-0.27706-1.0465-0.35724-1.1899-0.41375-1.2464-0.082833-0.21643-0.031924-0.036315-0.051026-0.005045-0.20431-0.15381-1.0803-0.94729-0.42653-0.34059-0.43676-0.30896-0.44083-0.25682-0.44171-0.18416-0.44148-0.088994-0.40466 0.015166-0.44507 0.097575-0.42498 0.14213-0.98481 0.38819-0.49016 0.16623-0.36251 0.09389-0.33234 0.057961-0.44884 0.034744-0.48967-0.010089-0.49632-0.048302-0.78733-0.13067-0.72044-0.18026-0.4711-0.1663-0.3203-0.14572-0.30705-0.17009-0.97879-0.65839-0.51213-0.32444-0.49253-0.26717-0.26356-0.12472-0.57965-0.23384-0.4863-0.15976-0.51868-0.14591-0.8236-0.17929-0.29953-0.042071-0.42157-0.034957-0.86143-0.022288-0.71721 5.25e-4 -1.4828 0.025472-5.8126 0.16309-0.79757-1.9321-0.85954-1.8844-0.17815-0.45535-0.15668-0.48359-0.13883-0.58816-0.086273-0.67226-0.010565-0.63526 0.061406-0.70734 0.091247-0.52898 0.085458-0.37517 0.1449-0.51041 0.28594-0.78168 0.18973-0.43664 0.2501-0.5195 0.43135-0.81494 0.59826-1.0268 1.7369-2.6905 0.30931-0.55794 0.17127-0.36582 0.20155-0.56288 0.12842-0.58961 0.034508-0.40726-0.002733-0.23954-0.023616-0.26099-0.035019-0.19875-0.084139-0.28156-0.068795-0.1508-0.089444-0.14201-0.22305-0.20166-0.15564-0.056885-0.20789-0.004039-0.24209 0.062281-0.28508 0.13371-0.36912 0.23666-0.45231 0.35071-1.3997 1.2276-0.87373 0.71556-0.37254 0.27059-0.38198 0.2529-0.50378 0.29296-0.58856 0.2793-0.47014 0.17024-0.46371 0.11883-0.44349 0.065466-0.52246 0.011132-0.53444-0.072023-0.53161-0.17141-0.33882-0.17201-0.42985-0.29947-0.46893-0.44031-0.29295-0.33582-0.32946-0.43063-0.38907-0.58327-0.39494-0.69065-0.37804-0.78737-0.21756-0.53918-0.20542-0.597-0.11766-0.39903-0.15256-0.64223-0.11605-0.75161-0.043134-0.46316-0.095386-1.4616-0.11306-0.99604-0.13017-0.83668-0.23124-1.205-0.26585-1.1503-0.33251-1.2229-0.502-1.6-0.66482-1.9231-0.18287-0.57442-0.2391-0.8389-0.078077-0.3618-0.060924-0.40166-0.085203-1.1079-0.088511-0.38097-0.092701-0.20568-0.076242-0.12216-0.10717-0.13534-0.21461-0.20052-0.24582-0.16475-0.25167-0.12744-0.31769-0.12744-0.71469-0.23712-0.29725-0.13048-0.14225-0.085007-0.1752-0.14564-0.078476-0.092194-0.068518-0.10839-0.06915-0.19402-0.006831-0.21676 0.051774-0.21396 0.050427-0.12658 0.17043-0.32569 0.39887-0.67579 0.26498-0.50075 0.27197-0.61242 0.1861-0.50788 0.11219-0.35546 0.2258-0.89518 0.13124-0.75281 0.048317-0.46322 0.011748-0.25397-0.015132-0.53864-0.06302-0.48311-0.08962-0.36272-0.11014-0.24406-0.057434-0.082894-0.11796-0.12029-0.17358-0.10571-0.16908-0.051878-0.10286-0.014351-0.33836 0.012603-0.66515 0.11538-0.21682-0.007281-0.15722-0.041159-0.10346-0.052416-0.096562-0.077197-0.069644-0.08526-0.074882-0.16877-0.019197-0.10749 0.002355-0.19881 0.080914-0.35228 0.14068-0.3617 0.19825-0.42342 0.52455-1.0358 0.56188-1.002 1.045-1.6421 0.15193-0.27765 0.026373-0.065798-0.002591-0.029576-0.20974-0.24474-0.32104-0.61678-0.081244-0.09797-0.20011-0.16821-0.19365-0.314-0.12746-0.11723-0.30127-0.12642 0.052082-0.065453-1.28e-4 -0.12074-0.035844-0.098841-0.10307-0.16871-0.11264-0.13643-0.23532-0.22756-0.43677-0.32796-0.26063-0.16203-0.56854-0.31276-2.5466-1.2735-0.76338-0.43858-0.53306-0.37638-0.4889-0.42414-0.49701-0.5109-0.43299-0.51406-0.31178-0.42196-0.30079-0.45931-0.30413-0.53055-0.30922-0.62527-0.35197-0.8161-0.18193-0.51651-0.046233-0.20999-0.016848-0.25753 0.020507-0.20627 0.076793-0.44336 0.006737-0.21282-0.049865-0.33878-0.13552-0.40362-0.19485-0.39197-0.29927-0.46462-0.23504-0.29898-0.47004-0.55142-0.33094-0.46426-0.35961-0.64068-0.63816-1.2744-0.75214-1.1954-0.2342-0.42345-0.12127-0.27694-0.099315-0.30851-0.29028-1.4107-0.22136-0.72529-0.3549-0.84839-0.6092-1.2794-0.27501-0.6268-0.25232-0.69562-0.44038-1.5275-0.11022-0.26677-0.080421-0.10353-0.14645-0.069068-0.089591 0.007733-0.09159 0.046567-0.070638 0.064103-0.09027 0.11906-0.11961 0.23004-0.11084 0.34447-0.04253 0.25283-0.018249 0.37949 0.013396 0.54032 0.029364 0.47382 0.05377 0.45027 0.07904 0.39542 0.04773 0.16116 0.098688 0.24563 0.10007 0.19228 0.3448 0.55025 0.11661 0.21399 0.10747 0.2446 0.095513 0.2948 0.038729 0.23846 0.001916 0.096524-0.031451 0.21147-0.049956 0.1348-0.12108 0.2048-0.11992 0.14888-0.23769 0.23367-0.34185 0.26328-0.24942 0.1506-0.17843 0.087063-0.38857 0.13929-0.24907 0.053192-0.72259 0.11203-0.87945 0.18124-0.41262 0.063077-0.40441-0.007284-0.41179-0.080267-0.3992-0.15768-0.3663-0.24298-0.17292-0.16406-0.2016-0.23706-0.21337-0.30012-0.6541-1.0705-0.24757-0.38465-0.24821-0.34614-0.20542-0.25322-0.26504-0.28491-0.16421-0.15563-0.46209-0.37568-0.46074-0.31722-0.59783-0.36772-0.79596-0.44841-1.6151-0.87494-0.33818-0.15913-0.33482-0.12352-0.50864-0.11438-0.44388-0.055016-0.59983-0.049294-0.92621-0.037224-0.92 0.016696-2.7398 0.15517-0.38964 0.01059-0.94746-0.009916-2.2673 0.017069-1.1818-0.028859-0.87652-0.044942-1.3423-0.11186-0.7633-0.094621-0.80197-0.13577-0.69242-0.16362-0.30768-0.092544-0.37284-0.13516-0.48693-0.24155-0.43647-0.3008-0.3752-0.3551-0.30032-0.40708-0.21227-0.43996-0.16477-0.47912-0.33667-1.089-0.33184-0.94996-0.16925-0.44487-0.38332-0.91076-0.88197-1.849-0.5275-1.1556-0.23234-0.44794-0.51787-0.9164-0.22521-0.43509-0.20786-0.46716-0.12374-0.35329-0.11074-0.56361 0.001716-0.37393 0.10853-1.0144 0.009894-0.29429-0.011984-0.30389-0.077036-0.57025-0.14779-0.60758-0.11052-0.32996-0.17256-0.42118-0.13957-0.28493-0.1965-0.33414-0.19103-0.25792-0.20943-0.23354-0.31395-0.29505-0.32805-0.26856-0.57432-0.41236-1.4389-0.94535-0.41694-0.29165-0.9166-0.69542-1.3493-1.0851-0.43526-0.31935-0.38054-0.25117-1.2028-0.729-1.085-0.63244-2.6719-1.4799-0.68192-0.32756-1.829-0.67087-0.59708-0.28748-0.49342-0.34581-0.34121-0.42916-0.10461-0.27685-0.042258-0.21005-0.024209-0.28743 0.003181-0.3405 0.14371-1.5454 0.022667-0.49974-0.013162-0.51315-0.045225-0.4359-0.092879-0.49461-0.12432-0.43949-0.15239-0.40306-0.14017-0.29815-0.20267-0.35163-0.27564-0.3779-0.13913-0.1552-0.23493-0.21044-0.16467-0.11111-0.15679-0.081262-0.20966-0.075749-0.16811-0.036317-0.21921-0.018464-0.32152 0.02487-0.30558 0.071667-0.25021 0.086577-0.27193 0.11601-0.4023 0.19712-1.0615 0.57924-0.49429 0.29544-0.24356 0.16488-0.56319 0.4483-1.2301 1.1008-0.78802 0.61498-0.37928 0.26502-0.35204 0.22834-0.6684 0.37719-0.34508 0.16002-0.35195 0.13655-0.2541 0.081303-0.55639 0.11523-0.47158 0.003979-0.33909-0.073079-0.26938-0.11439-0.24094-0.16065-0.20696-0.23843-0.040227-0.19372 0.024974-0.067389 0.19051-0.14718 0.71125-0.4526 0.90678-0.52905 1.5221-0.85172 0.96158-0.56486 0.59994-0.38488 0.61216-0.43192 0.56954-0.44672 0.5978-0.52479 0.56591-0.56125 0.34991-0.3884 0.25832-0.31395 0.44802-0.63501 0.21779-0.39751 0.14171-0.37207 0.041547-0.47576-0.063889-0.20579-0.083858-0.13337-0.078244-0.088358-0.30626-0.23029-0.29819-0.1524-0.34219-0.13593-0.39854-0.12865-0.42892-0.11779-2.197-0.52898-0.78097-0.22357-0.6644-0.2234-0.55958-0.21845-0.42095-0.18691-0.44827-0.23067-0.31869-0.20093-0.26431-0.20948-0.22371-0.2208-0.70744-0.92183-0.25468-0.28099-0.77312-0.77579-0.2714-0.2908-0.23043-0.27606-0.21998-0.31063-0.18184-0.3346-0.15889-0.5299-0.017446-0.20409 0.019242-0.38329 0.093228-0.49007 0.1098-0.38769 0.13476-0.39334 0.2551-0.63613 0.28411-0.62477 0.43928-0.83879 0.28091-0.42978 0.24936-0.29112 0.15651-0.13684 0.20768-0.13395 0.34796-0.1494 0.3414-0.10107 0.76538-0.15266 0.46893-0.067104 0.73518-0.064225 1.6931-0.053064 0.69854-0.049309 0.73457-0.088351 0.4357-0.085559 0.56079-0.17308 0.48858-0.20783 0.43134-0.22377 0.33872-0.20122 0.45328-0.30469 0.34374-0.25931 0.33038-0.27442 0.5404-0.51234 0.36655-0.40572 0.22717-0.28358 0.29852-0.42285 0.26273-0.43951 0.1708-0.34195 0.21053-0.52791 0.21551-0.6606 0.53075-2.3374 0.17905-0.5826 0.14069-0.37678 0.23471-0.5314 0.31044-0.58976 0.2213-0.37701 0.36883-0.58448 0.58249-0.86644 0.8402-1.2228 0.59739-0.8153 0.36881-0.42987 0.47864-0.45872 0.29872-0.232 0.4923-0.30752 0.54731-0.2624 0.74546-0.25245 0.9174-0.23161 1.7566-0.38427 0.72221-0.19316 0.42334-0.14748 0.36-0.14548 0.69886-0.32652 0.37161-0.20529 0.36422-0.22676 0.41893-0.2937 0.46466-0.35332 0.57243-0.48946 0.97677-0.95508 0.49041-0.43741 0.83112-0.64362 1.0064-0.71627 0.38606-0.25104 0.44313-0.26305 0.72908-0.37792 0.76303-0.33412 0.93796-0.36307 0.80824-0.26588 0.85525-0.2337 0.74818-0.15159 0.65995-0.087457 0.84554-0.064178 2.5025-0.12671 2.7813-0.10798 1.3843-0.07364 0.74224-0.060373 0.65452-0.10023 0.3907-0.086928 0.3628-0.10152 0.38257-0.13382 0.32033-0.13929 0.3559-0.19032 0.29159-0.19419 0.30717-0.25955 0.26335-0.30493 0.13481-0.2454 0.034153-0.1119 0.015488-0.13087-0.009167-0.12174-0.027942-0.10816-0.031145-0.075728-0.12556-0.19352-0.13542-0.14278-0.29785-0.23362-0.32459-0.20955-2.0594-1.1792-0.28878-0.18852-0.50411-0.3753-0.33687-0.29088-0.28567-0.27892-0.24344-0.26552-0.8856-1.0999-0.42357-0.49175-0.58356-0.59116-1.6274-1.5232-0.52345-0.53213-0.51976-0.58003-0.53947-0.66549-0.63884-0.8772-0.32992-0.48438-0.40245-0.62986-0.26328-0.44439-0.24932-0.45128-0.4254-0.8645-0.26358-0.62711-0.24821-0.70717-0.13195-0.4628-0.10792-0.46799-0.12232-0.77932-0.043292-0.50152-0.01944-0.504 0.002742-0.5719 0.023938-0.57294 0.10311-1.2038 0.092438-0.67489 0.14007-0.73731 0.14278-0.57466 0.22054-0.72616 0.17281-0.50274 0.66839-1.8423 0.14371-0.44404 0.17266-0.61717 0.089674-0.39534 0.091105-0.51043 0.066112-0.51583 0.054706-0.75795 0.013087-0.63103-0.030068-1.0758-0.082157-0.96041-0.11067-0.81941-0.41964-2.6155-0.14014-1.1982-0.060906-0.88512-0.042797-2.4124-0.036136-0.65318-0.059453-0.52948-0.093368-0.48796-0.069433-0.25434-0.09857-0.2808-0.087832-0.20031-0.14418-0.26207-0.16-0.21943-0.14668-0.1449-0.11077-0.034449 0.07512-0.076366 0.069522-0.25039 0.063334-0.40612 0.2784-2.6203 0.091681-0.56553 0.10289-0.46809 0.15536-0.53293 0.16207-0.43226 0.19098-0.41174 0.21052-0.3723 0.24251-0.35949 0.25663-0.32258 0.26074-0.27912 0.39632-0.3531 0.49843-0.36119 1.2563-0.79467 0.79505-0.53353 0.46063-0.34505 0.42418-0.36681 0.25387-0.25405 0.36884-0.44166 0.2133-0.32637 0.1766-0.34626 0.14486-0.37615 0.12471-0.48336 0.057427-0.41916 0.019559-0.44606-0.00998-0.51503-0.04697-0.69738-0.072411-0.59712-0.17716-1.0697-0.030862-0.33706 0.005729-0.31093 0.03116-0.2101 0.048898-0.17826 0.063663-0.15865 0.11015-0.20174 0.12459-0.17744 0.2147-0.24857 0.39747-0.37124 0.33732-0.2659 0.39738-0.28154 1.0965-0.71967 0.99007-0.58944 0.54255-0.28493 0.52305-0.24502 0.62748-0.25116 0.41373-0.13592 0.32345-0.087008 0.34431-0.071832 0.32343-0.045013 0.39801-0.018559 0.53727 0.046864 0.53448 0.10634 0.40624 0.12562 0.24816 0.094323 1.2487 0.57156 0.61673 0.2495 0.35663 0.11107 1.2401 0.31308 1.0136 0.28788 0.30888 0.063822 0.16096 0.017577 0.24533-0.001505 0.18362-0.027062 0.15416-0.041798 0.17515-0.070336 0.20226-0.11391 0.16261-0.11909 0.14552-0.1294 0.22848-0.2508 0.3065-0.43385 0.1534-0.25888 0.19673-0.38206 0.16031-0.36257 0.49167-1.2214 0.62603-1.4317 0.18213-0.45753 0.10431-0.30482 0.1134-0.40118 0.099304-0.52192 0.038772-0.46119-0.008162-0.39153-0.051935-0.39618-0.078356-0.32811-0.1397-0.406-0.16713-0.38687-0.69152-1.3806-0.079699-0.20782-0.022699-0.10043 0.016957-0.048948 0.0179-0.16714 0.072013-0.24936 0.11283-0.30144 0.15886-0.3414 0.20661-0.32828 0.14613-0.17042 0.18005-0.15254 0.13681-0.078021 0.16345-0.057477 0.16864-0.02849 0.27081-0.003996 0.35602 0.054693 0.25273 0.093018 0.14158 0.091313 0.183 0.23227 0.087857 0.28362 0.010706 0.14504-0.016137 0.47231 0.009546 0.19241 0.073693 0.33155 0.15986 0.33083 0.17729 0.22824 0.27848 0.26767 0.88497 0.68914 0.36609 0.35108 0.1399 0.17938 0.10331 0.16439 0.20164 0.4269 0.47309 1.3677 0.14507 0.38189 0.18873 0.43507 0.2419 0.46174 0.3484 0.5362 0.26691 0.36016 0.67821 0.83465 1.4101 1.6574 0.54469 0.61139 0.55125 0.58546 0.55801 0.54401" stroke="#bdc660"/>
    </defs>
    <g clip-path="url(#p241545adf6)">
     <use y="280.512" fill="#bdc660" stroke="#bdc660" xlink:href="#m70e83522af"/>
    </g>
   </g>
  </g>
 </g>
 <defs>
  <clipPath id="p241545adf6">
   <rect x="7.2" y="7.2" width="263.39" height="266.11"/>
  </clipPath>
 </defs>
</svg>
