<?xml version="1.0" encoding="UTF-8"?>
<!DOCTYPE svg  PUBLIC '-//W3C//DTD SVG 1.1//EN'  'http://www.w3.org/Graphics/SVG/1.1/DTD/svg11.dtd'>
<svg width="286.3pt" height="280.51pt" version="1.1" viewBox="0 0 286.3 280.51" xmlns="http://www.w3.org/2000/svg" xmlns:xlink="http://www.w3.org/1999/xlink">
 <metadata>
  <rdf:RDF xmlns:cc="http://creativecommons.org/ns#" xmlns:dc="http://purl.org/dc/elements/1.1/" xmlns:rdf="http://www.w3.org/1999/02/22-rdf-syntax-ns#">
   <cc:Work>
    <dc:type rdf:resource="http://purl.org/dc/dcmitype/StillImage"/>
    <dc:date>2024-07-04T12:11:16.355755</dc:date>
    <dc:format>image/svg+xml</dc:format>
    <dc:creator>
     <cc:Agent>
      <dc:title>Matplotlib v3.7.1, https://matplotlib.org/</dc:title>
     </cc:Agent>
    </dc:creator>
   </cc:Work>
  </rdf:RDF>
 </metadata>
 <defs>
  <style type="text/css">*{stroke-linejoin: round; stroke-linecap: butt}</style>
 </defs>
 <g id="figure_1">
  <g id="patch_1">
   <path d="m-0 280.51h286.3v-280.51h-286.3v280.51z" fill="none"/>
  </g>
  <g id="axes_1">
   <g id="PatchCollection_1">
    <defs>
     <path id="m568468c5ef" d="m216.12-241.23 0.53921 0.00547 0.67685-0.081458 1.3978-0.26437 0.56136-0.055469 0.43418 0.001654 0.44306 0.056135 0.53889 0.15987 0.50814 0.25012 0.35674 0.23646 0.5269 0.43646 1.1747 1.1124 1.0645 1.1026 0.61291 0.72964 1.1492 1.4741 1.3287 1.642 0.73902 0.98395 0.62518 0.91395 0.35241 0.55828 0.35362 0.59642 0.33168 0.60114 0.36146 0.7201 0.31689 0.7178 0.22896 0.61055 0.17956 0.60093 0.12304 0.6182 0.03851 0.59789-0.06689 0.57162-0.16978 0.50166-0.32133 0.57806-0.29524 0.40945-0.94913 1.1427-0.3768 0.50105-0.33304 0.52503-0.26862 0.54949-0.19471 0.59857-0.11762 0.61304-0.05534 0.61442 0.013885 0.77347 0.1519 0.73419 0.15358 0.36359 0.28377 0.46578 0.23109 0.29991 0.2873 0.33087 1.5541 1.6609 0.63609 0.77592 0.42074 0.59452 0.23863 0.38184 0.22213 0.41359 0.15746 0.34316 0.18953 0.48958 0.17096 0.54948 0.15851 0.658 0.25396 1.232 0.13072 0.56314 0.16019 0.58046 0.17714 0.51725 0.45972 1.1378 0.16259 0.4953 0.057728 0.36822 0.004809 0.17529-0.098928 1.0772-0.003697 0.25779 0.066602 0.5792 0.16113 0.59641 0.24653 0.58435 0.32828 0.54109 0.41195 0.46302 0.50329 0.34467 0.31458 0.12335 0.44227 0.097063 0.47747 0.040949 0.50778-0.003076 0.52915-0.040112 0.50407-0.065891 0.51193-0.09042 0.58814-0.12943 1.9522-0.51042 1.0226-0.20814 0.68349-0.10376 0.66634-0.055651 0.76651 0.004828 0.48671 0.048904 0.4364 0.080256 0.50446 0.13987 0.50861 0.19598 0.35069 0.17286 1.3184 0.76327 0.38562 0.18228 0.60144 0.21561 0.67871 0.17793 0.84185 0.19421 0.68838 0.19885 0.61181 0.25309 0.60891 0.29624 0.59137 0.25708 3.9531 1.3031-0.17926 0.15129-0.22265 0.46283-0.115 0.41282-0.066964 0.47344-0.005892 0.45177 0.081098 0.63504 0.16868 0.63858 0.21815 0.59753 0.21575 0.50729 0.24188 0.50313 0.41244 0.72045 0.23975 0.35079 0.41069 0.50493 0.2684 0.27759 0.40088 0.36809 0.33289 0.27782 1.2752 0.98416 0.64455 0.55981 0.62141 0.58436 0.59255 0.60243 0.52755 0.58101 0.62956 0.75619 0.48884 0.63588 0.40962 0.5739 0.34194 0.52536 0.26259 0.44814 0.35112 0.69589 0.24768 0.57338 0.21317 0.57548 0.20525 0.69344 0.12817 0.62074 0.049367 0.45368-7.47e-4 0.43581-0.11592 0.68495-0.19582 0.65645-0.20171 0.59743-0.255 0.58064-0.23114 0.38376-0.40539 0.54272-0.34433 0.40592-1.222 1.3336-0.37341 0.47092-0.46965 0.69556-0.66887 1.2084-0.31238 0.50443-0.33091 0.4383-0.96633 1.1123-0.6286 0.76374-0.32472 0.44935-0.22314 0.34892-0.16228 0.28764-0.22046 0.48926-0.11056 0.37021-0.055878 0.33208-0.02593 0.37962 0.01573 0.52559 0.15953 1.5635 0.37711 2.1148 0.058506 0.51645 0.021159 0.41239-0.004434 0.37049-0.052197 0.57094-0.0689 0.3416-0.13724 0.3954-0.10243 0.20256-0.17628 0.27252-0.40267 0.45853-0.46398 0.42267-0.69148 0.58321-0.41048 0.36835-0.38156 0.39671-0.30467 0.38101-0.28641 0.39763-0.3626 0.52473-0.33106 0.55298-0.3072 0.67437-0.57043 1.4114-0.37434 0.67483-0.35292 0.46124-0.57227 0.59379-0.39682 0.35708-1.0477 0.83396-1.0662 0.76289-0.65095 0.4338-0.7604 0.45976-0.43888 0.23715-1.2124 0.56654-0.42222 0.16788-0.49952 0.16023-0.41878 0.099144-1.1739 0.23516-1.3481 0.36935-0.92106 0.29678-0.46081 0.17617-0.45913 0.20286-0.39277 0.19945-0.5968 0.36135-0.56653 0.41911-1.2356 0.95874-1.4013 1.1216-0.40218 0.24312-0.48526 0.23358-0.66637 0.26473-1.3774 0.38846-0.73856 0.23302-0.44109 0.18524-0.4278 0.21349-0.41015 0.23479-0.32212 0.22548-0.28821 0.24146-0.19184 0.18652-0.22353 0.25386-0.20689 0.29304-0.17262 0.32682-0.15597 0.46105-0.094332 0.48892-0.056102 0.50748-0.029541 0.48862 0.009554 0.56472 0.061368 0.67594 0.091291 0.61167 0.47422 2.3969 0.11573 0.68478 0.081781 0.79487 0.032806 1.1263 0.046678 0.76608 0.10555 1.124 0.29277 2.467 0.083571 0.50514 0.12652 0.54149 0.20911 0.6583 0.32318 0.75756 0.39953 0.73198 0.44432 0.6671 0.50444 0.62865 0.25281 0.27525 0.78599 0.77598 0.90036 0.83906 1.0692 1.0292 0.77323 0.79371 1.4752 1.5818 0.55274 0.54994 0.38167 0.33895 0.41496 0.32198 0.42996 0.27948 0.647 0.32692 1.4386 0.6269 0.46222 0.25311 0.35861 0.23413 0.50983 0.40602 0.36301 0.36563 0.25404 0.32249 0.17406 0.28807 0.097364 0.2159 0.094 0.28141 0.11081 0.50428 0.079249 0.57102 0.047752 0.68466 0.006289 0.50247-0.037797 1.0971-0.094329 1.4544-0.051518 0.45406-0.10764 0.6042-0.15261 0.60211-0.19387 0.59319-0.41886 1.0221-0.34814 0.71836-0.29651 0.53593-0.31799 0.51955-0.29634 0.44266-0.314 0.42073-0.32079 0.38118-0.69127 0.73995-1.0279 0.9781-0.71164 0.62153-0.57172 0.4326-0.59614 0.38247-0.57934 0.31124-1.8102 0.8692-0.62533 0.25836-1.3278 0.45523-0.84902 0.35748-0.59255 0.29966-0.57816 0.3259-1.434 0.92002-0.61422 0.34346-0.60123 0.25758-1.8303 0.63235-0.79151 0.32692-0.30609 0.15521-0.37792 0.22793-0.52125 0.41465-0.45156 0.49153-0.37127 0.5591-0.19329 0.39329-0.16639 0.41453-0.2223 0.66368-0.18973 0.69011-0.15766 0.70393-0.10869 0.60889-0.16996 1.2515-0.10713 0.602-0.13897 0.52572-0.17932 0.49725-0.22285 0.46288-0.27586 0.41129-0.29241 0.33256-0.37468 0.33269-0.38115 0.26128-0.21843 0.11966-0.30416 0.13263-0.207 0.068526-0.45463 0.097112-0.5769 0.045586-0.64709-0.013108-0.84815-0.062066-0.67925-0.070467-0.54874-0.082114-0.54716-0.11343-0.55516-0.15537-1.6139-0.55886-0.51238-0.15696-0.53499-0.11959-0.52848-0.047847-0.55426 0.048282-0.54326 0.1387-0.3763 0.1435-0.6444 0.32401-0.27305 0.16601-0.42998 0.30281-0.8783 0.74794-0.51116 0.39348-0.40994 0.24773-0.4421 0.21425-0.65018 0.24418-0.41482 0.12087-0.78072 0.15206-0.57476 0.055245-0.57787 0.00897-0.78244-0.054744-0.7808-0.081313-0.78875-0.050597-0.41629-8.48e-4 -0.63838 0.050842-0.47659 0.095186-0.45565 0.14427-0.45672 0.20336-0.37019 0.21452-0.27177 0.19248-0.33642 0.29128-0.29165 0.32515-0.23613 0.35677-0.20286 0.46486-0.1386 0.50305-0.2008 1.1417-0.11061 0.52831-0.19154 0.63205-0.37503 1.097-0.11078 0.41232-0.14689 0.83257-0.21441 1.4932-0.12852 0.6757-0.15476 0.63684-0.26649 0.7745-0.70967 1.5899-0.29254 0.79531-0.13379 0.48004-0.13115 0.59961-0.029705 0.18283-0.062463 0.78958 0.027342 0.78499 0.099455 0.75917 0.15899 0.7106 0.34188 1.1904 0.22271 1.0917 0.12594 0.84878 0.15131 0.7262 0.58218 2.2109 0.22701 1.095 0.10787 0.77126 0.044413 0.74582-0.029368 0.59325-0.10783 0.54798-0.25719 0.61987-0.093687 0.17469-0.41566 0.7077-0.7383 1.1788-0.15748 0.31644-0.39097 0.96542-0.65435 1.9187-0.23451 0.58656-0.30269 0.52263-0.20906 0.24004-0.33231 0.29422-0.49998 0.35672-1.0255 0.63294-0.34888 0.2423-0.30117 0.27144-0.18638 0.23488-0.11612 0.1892-0.12591 0.25133-0.12991 0.31569-0.11556 0.34723-0.081857 0.33528-0.22915 1.2206-0.12868 0.89793-0.030341 0.36284-0.029966 1.0634-0.038647 0.55812-0.14511 1.1328-0.12656 0.71209-0.10474 0.39443-0.30082 0.98592-0.12682 0.51033-0.099967 0.52331-0.10262 0.71608-0.42895 3.5838-0.032979 0.83884 0.076703 1.4127-0.026169 0.60598-0.088094 0.39802-0.20248 0.44986-0.30412 0.43754-0.4312 0.46836-0.6449 0.56687-0.74516 0.55912-0.72149 0.4881-0.76856 0.48858-2.774 1.6907-1.7906 1.1321-1.3252 0.90904-0.23309 0.18892-0.054043 0.08957-0.14903 0.062612-0.11842 0.008309-0.45779-0.024896-0.27934-0.046912-0.46626-0.12725-0.60304-0.25069-0.41823-0.21914-0.42702-0.25048-2.0222-1.3152-0.66782-0.40751-0.62751-0.34248-0.62569-0.29232-0.54009-0.21019-0.87201-0.28168-0.78147-0.21233-2.2688-0.53866-0.67819-0.19312-1.2706-0.4486-0.58697-0.24238-0.56131-0.25915-0.46474-0.23703-0.59644-0.33745-0.53991-0.3492-0.36959-0.27341-0.44431-0.35811-0.21166-0.18618-0.34961-0.34626-0.18657-0.2153-0.29319-0.39392-0.24269-0.41099-0.26186-0.54737-0.2844-0.76204-0.14307-0.55094-0.078449-0.55188-0.01237-0.52015 0.010336-0.31416 0.13259-1.6863 0.061691-0.51318 0.32119-1.858 0.13212-0.63711 0.19297-0.59389 0.17405-0.36345 0.34011-0.59882 0.14958-0.24406 0.32941-0.47631 0.16228-0.27307 0.10643-0.28831 0.02431-0.17701-0.010065-0.22911-0.057053-0.24635-0.17337-0.38575-0.16542-0.21735-0.18974-0.15653-0.26156-0.14327-0.59549-0.27447-0.30298-0.15944-0.49763-0.2961-0.66542-0.46748-0.37444-0.31448-0.23335-0.23592-0.27787-0.38481-0.11486-0.31669-0.040739-0.24141-0.030069-0.58989 0.001555-0.36613 0.030578-0.46628 0.131-0.92982 0.11588-0.52722 0.2208-0.69977 0.19628-0.44776 0.32676-0.57548 0.393-0.55585 0.55522-0.64974 0.99213-0.99346 0.38452-0.45837 0.2261-0.46465 0.034294-0.31858-0.04894-0.36212-0.092771-0.32488-0.16876-0.44512-0.22666-0.4986-0.34714-0.63659-0.29802-0.43537-0.2883-0.33594-0.46975-0.38506-0.40349-0.20315-0.28069-0.099688-0.76716-0.16993-0.45797-0.057116-0.75072-0.047-1.6517-0.006728-0.83545-0.032029-2.1133-0.23791-0.85149-0.041809-0.51811 0.013828-0.49169 0.052983-0.46979 0.10283-0.41897 0.1574-0.52409 0.3353-0.38548 0.37093-0.23978 0.29144-0.052157 0.099872 0.1248-0.83972 1.6282-9.857 0.34013-2.1987 0.28681-2.1246 0.10956-1.029 0.075124-1.0006 0.027735-0.96446-0.036961-0.91738-0.12448-0.8551-0.24164-0.77237-0.18304-0.3629-0.29751-0.43961-0.344-0.39714-0.40396-0.38893-1.0185-0.8592-0.27295-0.20675-0.26622-0.16232-0.27941-0.1297-0.93432-0.27373-0.3418-0.12845-0.33526-0.17535-0.35212-0.25784-0.42588-0.41771-0.39054-0.49375-0.3781-0.60687-0.10726-0.22059-0.13188-0.35966-0.069355-0.33425-0.021578-0.23575 0.013145-0.5792 0.089463-0.61582 0.15668-0.63619 0.2364-0.68586 0.3074-0.67206 0.2333-0.41325 0.25558-0.39966 0.37889-0.53489 1.3862-1.8203 0.17164-0.271 0.13445-0.3046-0.009381-0.20356-0.12167-0.055476-0.30864 0.047585-0.35314 0.1324-0.30352 0.14158-1.3855 0.71687-0.55524 0.22887-0.30802 0.089933-0.25947 0.048221-0.51607-0.001179-0.20846-0.047504-0.19462-0.069831-0.31011-0.15666-0.31887-0.21176-0.36435-0.3076-0.22396-0.23304-0.30037-0.37975-0.4697-0.73306-0.16228-0.22573-0.21489-0.23366-0.11373-0.096407-0.25406-0.15916-0.3294-0.11673-0.33658-0.030109-0.24706 0.025671-0.4067 0.10389-0.40211 0.17306-0.37075 0.2394-0.31143 0.30599-0.20352 0.31227-0.52441 1.1601-0.23009 0.37566-0.27829 0.32406-0.32281 0.27415-0.35214 0.21386-0.1514 0.068149-0.33288 0.099067-0.37361 0.018411-0.22335-0.045242-0.30116-0.13945-0.31327-0.27536-0.1937-0.29209-0.092889-0.21488-0.079512-0.28031-0.065103-0.46885-0.002815-0.60848 0.083537-0.7764 0.15585-0.79303 0.38416-1.5159 0.11374-0.73896-0.008726-0.68201-0.12314-0.6477-0.26081-0.65052-0.30195-0.48273-0.6936-0.9931-1.1537-1.7495-1.7269-2.3331-0.56439-0.81533-0.29056-0.4566-0.54578-0.92465-1.225-2.2396-0.59501-1.0289-0.3286-0.50167-0.45054-0.55068-0.46284-0.36202-0.35468-0.14089-0.37244-0.062869-0.45285-0.007324-1.3085 0.041296-0.66605-0.035914-0.62141-0.13366-0.23255-0.093851-0.47598-0.28854-0.2973-0.22893-0.69292-0.62022-0.58012-0.58456-0.58138-0.63798-0.75499-0.92286-0.99421-1.3823-0.49858-0.6375-0.53644-0.54598-0.60531-0.40493-0.39728-0.1525-0.42778-0.096446-0.60432-0.058929-0.64016 0.002161-0.73415 0.05467-0.75781 0.093648-0.77319 0.11873-2.5154 0.41145-0.80572 0.095916-0.77999 0.042648-0.74622-0.039287-0.69854-0.15752-0.48204-0.21329-0.45345-0.28718-0.39171-0.31468-0.42527-0.41274-0.56813-0.67774-0.40362-0.58508-0.29201-0.48644-0.44469-0.8507-0.86402-1.8657-0.53883-1.2468-1.4552-3.5716-0.31674-0.69472-0.27154-0.53772-0.29517-0.51317-0.55282-0.80082-0.59817-0.77108-1.1052-1.3503-0.54329-0.78907-0.44232-0.825-0.37891-0.85583-0.84339-2.0079-0.17565-0.3723-0.079861-0.13026-0.22828 0.32687-0.32245 0.39379-0.18721 0.1917-0.1996 0.17306-0.21063 0.14491-0.22176 0.10735-0.24532 0.065244-0.25451 0.023502-0.26007-0.008876-0.52651-0.087213-0.52988-0.15362-0.52628-0.19898-0.93205-0.41226-0.94607-0.37464-0.78873-0.27128-0.53696-0.1504-0.26815-0.059116-0.42361-0.061447-1.1322 0.001362-0.21972-0.023839-0.21626-0.044592-0.2175-0.071716-0.21016-0.097064-0.20114-0.12153-0.19258-0.1475-0.18147-0.16973-0.17012-0.18979-0.18184-0.24253-0.16597-0.2641-0.2451-0.48104-0.20611-0.48384-0.4303-1.1417 0.10329-0.056422 0.22736-0.27067 0.86726-1.3606 0.85169-1.2686 0.49536-0.78829 0.22981-0.41081 0.19811-0.40509 0.22509-0.61475 0.083604-0.45035-0.045127-0.68989-0.13828-0.46493-0.082704-0.19894-0.3203-0.56386-0.31256-0.36955-0.35706-0.27211-0.32538-0.13913-0.34388-0.08346-0.75671-0.12383-0.44401-0.12335-0.44071-0.22954-0.34728-0.30636-0.16424-0.22557-0.27705-0.48189-0.1509-0.21487-0.17959-0.18067-0.20196-0.12994-0.33035-0.10884-0.39037-0.058555-0.34327-0.028717-1.5111-0.021893-0.47485-0.023517-0.45523-0.059756-0.31004-0.077385-0.32016-0.12742-0.29198-0.1619-0.16716-0.11393-0.3453-0.31506-0.26705-0.36448-0.15808-0.32171-0.28736-0.68435-0.31427-0.52187-0.41912-0.50225-0.51053-0.44071-0.53545-0.32735-1.1439-0.60607-0.58897-0.30049-0.62052-0.25971-0.76803-0.21711-1.8268-0.3508-0.48956-0.14033-0.62871-0.27154-0.60825-0.35834-0.39329-0.27486-0.61481-0.4699-0.61131-0.50799-0.5994-0.53915-0.57825-0.56565-0.54667-0.58948-0.50309-0.61235-1.0552-1.4432-0.41575-0.5317-0.45254-0.52829-0.33827-0.35345-0.39117-0.36692-0.3649-0.30707-0.36644-0.27792-2.3622-1.5935-0.5475-0.38409-0.5613-0.42022-0.64428-0.54063-0.3609-0.34685-0.33137-0.36196-0.44868-0.60136-0.2529-0.44541-0.19395-0.466-0.14743-0.56585-0.095982-0.64601-0.23074-2.3411-0.17229-1.0859-0.1035-0.48778-0.19482-0.74212-0.29106-0.87328-0.3399-0.83271-0.47686-0.97773-0.47343-0.77906-0.36008-0.50487-0.34228-0.43659-1.8172-2.1534-0.44483-0.57489-0.33548-0.47099-0.32413-0.4984-0.33725-0.57933-0.34057-0.6642-0.26139-0.57211-0.27997-0.67422-0.44488-1.1549-1.2483-3.3628-0.4129-1.0082-0.23023-0.49668-0.30424-0.58023-0.48286-0.77885-0.34195-0.48312-0.43518-0.5598-0.652-0.75063-0.6228-0.63444-0.58027-0.52446-0.63621-0.49771-0.66178-0.41432-0.62656-0.26452-0.51383-0.091224-0.47827 0.040823-0.38051 0.10616-0.41578 0.1696-1.0369 0.53456-0.34503 0.15784-0.22198 0.07852-0.26164 0.063114-0.55156 0.033758-0.59156-0.051737-1.2278-0.1613-0.72423-0.074291-0.74214-0.06229-1.4729-0.088316-0.69735-0.023353-0.67927 0.005502-0.63426 0.096107-0.52168 0.20116-0.38466 0.21366-1.7057 1.1664-0.40121 0.23834-0.47901 0.2342-0.25582 0.09698-0.53877 0.13184-0.55142 0.040178-0.55101-0.055774-0.48048-0.13402-0.46413-0.20638-0.18447-0.10406-0.16581-0.10624-0.43053-0.3386-0.44184-0.46012-0.48212-0.70802-0.2975-0.66172-0.19007-0.70165-0.087148-0.79669 0.046689-0.93808 0.13984-0.77546 0.21403-0.76951 0.22738-0.63882 0.25743-0.61871 0.26505-0.5617 0.4379-0.79323 0.12079-0.17754 0.051161-0.03516 0.025852-0.042884 0.014987-0.26467-0.097371-2.4633 0.007142-0.81863 0.052209-0.73422 0.12425-0.72482 0.1049-0.35729 0.092924-0.23467 0.17515-0.34423 0.15113-0.23976 0.23115-0.29225 0.20861-0.20461 0.28339-0.21682 0.29882-0.17768 0.2855-0.13786 0.35906-0.14492 0.75546-0.23207 0.43873-0.081237 0.56048-0.06002 1.8959-0.081683 0.46297-0.038718 0.45208-0.055798 0.57516-0.10111 0.50467-0.11856 0.7604-0.24186 0.59187-0.26819 0.52681-0.32304 0.68105-0.5353 1.8338-1.648 0.6842-0.59528 0.8508-0.6591 1.3818-0.99396 0.49807-0.41254 0.82528-0.75598 0.64591-0.6488 0.47806-0.54005 0.39803-0.48967 0.52889-0.7309 0.95183-1.486 0.24818-0.33685 0.21276-0.25238 0.35462-0.34977 0.2193-0.18085 0.23948-0.17372 0.57151-0.32966 0.32978-0.14139 0.35028-0.11902 0.3334-0.087613 0.34846-0.067394 0.38134-0.048726 0.71303-0.034476 0.53758 0.020448 0.40712 0.046666 0.69714 0.12906 0.56639 0.13038 1.5445 0.40695 0.37201 0.064737 0.50154 0.037272 0.55606-0.037792 0.37324-0.07632 0.41618-0.13795 0.29833-0.1358 0.40747-0.23678 0.41833-0.29639 1.9952-1.6227 1.6975-1.2636 0.76433-0.60069 0.38096-0.32093 0.61552-0.55026 0.68435-0.67831 0.40138-0.45733 0.4017-0.5288 0.40846-0.65316 0.32066-0.65444 0.2308-0.62266 0.14137-0.49948 0.10656-0.48223 0.31327-2.0742 0.10013-0.51063 0.11793-0.44794 0.1246-0.35075 0.14584-0.30906 0.19115-0.29251 0.26422-0.22224 0.16192 0.007706 0.15888-0.020696 0.18256 0.15023 0.28948 0.39196 0.21948 0.37935 0.2639 0.52967 0.2828 0.63461 0.64258 1.5714 0.3034 0.65287 0.26037 0.44365 0.37952 0.47504 0.39901 0.33306 0.36406 0.19299 0.30861 0.10077 0.32424 0.05908 0.59424 0.014644 0.36761-0.043067 0.36349-0.076698 0.56765-0.17287 0.59581-0.2328 1.7888-0.81025 2.3193-0.99499 0.70985-0.34346 0.5158-0.27948 0.48363-0.29295 0.78911-0.55045 0.61887-0.49756 0.60925-0.55885 1.0795-1.0946 0.37666-0.34365 0.37461-0.28773 0.38502-0.23168 0.3467-0.15667 0.44728-0.14011 0.45632-0.082651 0.38994-0.031439 0.65042 0.008533 1.636 0.16928 0.52719 0.018367 0.67114-0.064858 0.62926-0.18675 0.4699-0.25401 0.30065-0.24002 0.30865-0.33424 0.23395-0.32124 0.40623-0.68341 0.76282-1.4048 0.23346-0.38278 0.43481-0.61196 0.46969-0.49738 0.35954-0.27742 0.35465-0.20418 0.33364-0.14304 0.4986-0.14699 0.60557-0.10212 0.71556-0.044055 0.51118 0.008844 0.79744 0.073659 1.4756 0.19848 0.72422 0.03977 0.48464-0.022643 0.46798-0.073626 0.50341-0.15636 0.32289-0.15688 0.47707-0.33941 0.43219-0.45509 0.39472-0.59562 0.29413-0.59609 0.17515-0.42249 0.74041-2.0727 0.33032-0.77922 0.36212-0.63075 0.39472-0.48165 0.52832-0.42194 0.4624-0.21521 0.33702-0.081793 0.33959-0.023307 0.60656 0.10973 0.44991 0.22571 0.30415 0.24912 0.19803 0.22118 0.26664 0.39144 0.23717 0.44692 0.49302 1.0689 0.26911 0.50772 0.15368 0.22758 0.14537 0.16571 0.18681 0.15138 0.22589 0.10838 0.26468 0.041566 0.23798-0.031618 0.23301-0.093702 0.39497-0.32977 0.19374-0.27253 0.1613-0.32375 0.19759-0.68384 0.07973-0.64398 0.014784-0.53952-0.013947-0.50998-0.11653-1.8331-0.029217-0.69215-0.003969-0.50949 0.016751-0.48547 0.046373-0.55476 0.083283-0.62464 0.10496-0.58581 0.10146-0.43379 0.11336-0.35259 0.13574-0.28658 0.1112-0.1615 0.21479-0.19135 0.10409-0.049192 0.16383-0.032464 0.21027 0.020202 0.23507 0.082009 0.34693 0.18886 0.98957 0.61854 0.52672 0.26499 0.59199 0.20949 0.44978 0.086698 0.38941 0.020816 0.60445-0.067349 0.54081-0.15999 0.54468-0.26693 0.4419-0.31325 0.35528-0.32718 0.41132-0.46376 0.81647-1.047 0.51912-0.59297 0.29116-0.27538 0.30746-0.23865 0.5036-0.27206 0.49288-0.13373 0.53326-0.016328 0.55401 0.10082 0.6791 0.24055 1.1798 0.51878 0.36556 0.1276 0.30347 0.072732 0.27744 0.029192 0.36134-0.036999 0.25544-0.11489 0.15867-0.2077-0.027048-0.29546 0.037887-0.059041 0.065135-0.033979 0.13753-0.031814 0.21196-0.012172 0.27949 0.017934 0.36597 0.061826 0.42742 0.11661 0.33757 0.12081 0.65885 0.28812 2.8958 1.3844 1.4044 0.64092 0.87796 0.3516 0.63798 0.22065 2.0045 0.59022 0.78766 0.27675 0.42285 0.18326 0.34742 0.1782 0.27243 0.16276 0.33398 0.23507 0.41444 0.3641 0.29983 0.32907 0.3606 0.49708 0.25774 0.4562 0.20111 0.44689 0.12045 0.32397 0.61615 2.078 0.17808 0.4923 0.22828 0.53898 0.29964 0.62939 1.2673 2.5313 0.48351 0.88236 0.47585 0.77523 0.18314 0.26672 0.47386 0.62229 0.3915 0.45918 0.81545 0.88778 0.57848 0.66038 1.6252 1.9282 0.49851 0.52624 0.86779 0.84807 0.36155 0.45682 1.1228 1.6768 0.43763 0.58368 0.38307 0.44999 1.4395 1.4779 0.96889 0.93196 0.24037 0.19052 0.39355 0.24174 0.79368 0.42121 0.78108 0.55084 0.2602 0.15415 0.13469 0.061556 0.49138 0.14376 1.0799 0.21164 0.28634 0.085989 0.94244 0.31534 0.44919 0.1907 0.11384 0.068715 0.23488 0.19082 0.10282 0.12271 0.16286 0.29027 0.10537 0.27156 0.28329 0.92933 0.099971 0.24747 0.20195 0.37923 0.18516 0.2674 0.40502 0.46735 0.18238 0.17069 0.58844 0.42026 0.44644 0.21486 0.63109 0.19243 0.54694 0.082024 0.48028 0.018599 0.52434-0.03027 0.50688-0.079691 0.22011-0.058701 0.15748-0.090649-0.05738-0.093469 0.08099-0.14548 0.33689-0.3845 0.39129-0.36846 0.65704-0.553 0.66606-0.50847 0.48346-0.34058 0.49163-0.31794 0.521-0.29924 0.51772-0.25232 0.4507-0.17573 0.44105-0.12229 0.72076-0.059511 0.36993 0.055461 0.34158 0.10309 0.32712 0.13951 0.53114 0.2985 0.51842 0.38335 0.3958 0.38309 0.43006 0.52378 0.69911 0.992 0.84812 1.2715 0.2978 0.38934 0.12977 0.1369 0.18814 0.14327 0.13632 0.056647 0.10657 0.015341 0.12559-0.01116 0.14528-0.047311 0.15157-0.083959 0.23037-0.18711 0.33188-0.38786 0.22707-0.36106 0.14943-0.39435 0.13325-0.71164 0.10847-0.43641 0.10712-0.34595 0.099698-0.24408 0.21016-0.36965 0.13272-0.18479 0.33159-0.39387 0.5603-0.56061 0.72585-0.64826 0.60874-0.46977 0.34076-0.22781 0.52481-0.2927 0.22223-0.10028 0.62711-0.20365 0.39226-0.067345 0.37592-0.034118 1.468-0.035783 0.66249-0.037939 0.54532-0.079821 0.43278-0.12119 0.4398-0.20669 0.38809-0.28201 0.32441-0.35484 0.18996-0.30176 0.19245-0.42311 0.17119-0.52396 0.24857-1.0607 0.41123-2.1412 0.12891-0.56635 0.10655-0.40564 0.29297-0.90894 0.21504-0.5442 0.23889-0.54153 1.0482-2.1599 0.3868-0.8644 1.074-2.5602 1.0781-2.3218 0.25719-0.63744 0.54949-1.5114 0.25069-0.56688 0.18099-0.33854 0.27082-0.42359 0.32584-0.42218 0.26318-0.29741 0.6547-0.64722 1.6575-1.4995 0.38258-0.38662 0.38283-0.42186 0.3659-0.44454 0.34346-0.4662 0.29334-0.45716 0.18119-0.3339 0.11473-0.27532 0.056537-0.19946 0.053119-0.43471-0.024718-0.61162-0.1032-0.7075-0.038289-0.3765-0.009029-0.25618 0.015234-0.31232 0.035199-0.21946 0.085107-0.28774 0.064369-0.14929 0.1684-0.28659 0.24135-0.30363 0.26875-0.27124 0.2966-0.25614 0.48917-0.36451 0.3817-0.24504 0.48646-0.25548 0.35992-0.11982 0.36956-0.061367 0.4552 0.002634 0.28252 0.032859 1.0122 0.22775 0.45784 0.075324 0.91811 0.098906 0.40791 0.060418 0.41611 0.090405 0.37183 0.11262 0.3645 0.14933 0.27848 0.14884 0.17432 0.11305 0.35318 0.289 0.1383 0.13733 0.4749 0.57847 0.3301 0.49806 0.31113 0.53993 0.28338 0.55046 0.26923 0.57585 0.52355 1.2702 0.54225 1.5061 0.91464 2.753 0.38685 1.1025 0.86557 2.3313 0.50403 1.2164 0.29916 0.63545 0.31724 0.59047 0.25348 0.40719 0.73811 0.99586 0.78867 1.0258 0.26265 0.31401 0.31997 0.3311 0.31997 0.29945 0.2099 0.17583 0.28041 0.20295 0.42418 0.23816 0.19835 0.08453 0.39198 0.12461 0.42675 0.080377 0.20438 0.020571" stroke="#bdc660"/>
    </defs>
    <g clip-path="url(#p6b52a3387d)">
     <use y="280.512" fill="#bdc660" stroke="#bdc660" xlink:href="#m568468c5ef"/>
    </g>
   </g>
  </g>
 </g>
 <defs>
  <clipPath id="p6b52a3387d">
   <rect x="7.2" y="7.2" width="271.9" height="266.11"/>
  </clipPath>
 </defs>
</svg>
