<?xml version="1.0" encoding="UTF-8"?>
<!DOCTYPE svg  PUBLIC '-//W3C//DTD SVG 1.1//EN'  'http://www.w3.org/Graphics/SVG/1.1/DTD/svg11.dtd'>
<svg width="259.14pt" height="280.51pt" version="1.1" viewBox="0 0 259.14 280.51" xmlns="http://www.w3.org/2000/svg" xmlns:xlink="http://www.w3.org/1999/xlink">
 <metadata>
  <rdf:RDF xmlns:cc="http://creativecommons.org/ns#" xmlns:dc="http://purl.org/dc/elements/1.1/" xmlns:rdf="http://www.w3.org/1999/02/22-rdf-syntax-ns#">
   <cc:Work>
    <dc:type rdf:resource="http://purl.org/dc/dcmitype/StillImage"/>
    <dc:date>2024-07-04T12:11:19.444374</dc:date>
    <dc:format>image/svg+xml</dc:format>
    <dc:creator>
     <cc:Agent>
      <dc:title>Matplotlib v3.7.1, https://matplotlib.org/</dc:title>
     </cc:Agent>
    </dc:creator>
   </cc:Work>
  </rdf:RDF>
 </metadata>
 <defs>
  <style type="text/css">*{stroke-linejoin: round; stroke-linecap: butt}</style>
 </defs>
 <g id="figure_1">
  <g id="patch_1">
   <path d="m0 280.51h259.14v-280.51h-259.14v280.51z" fill="none"/>
  </g>
  <g id="axes_1">
   <g id="PatchCollection_1">
    <defs>
     <path id="m55ade5d9dd" d="m114.39-260.01 0.62698 0.005079 0.40503-0.009661 0.95989-0.051013 1.638-0.1159 0.74531-0.034573 0.42085-0.004782 0.50444 0.013597 0.75207 0.064043 0.51496 0.075255 0.51933 0.10013 0.76981 0.17531 1.0938 0.27206 1.9869 0.52529 0.33156 0.11222 0.11726 0.057945 0.085999 0.062878 0.051468 0.067671 0.017731 0.060184-0.010771 0.087925-0.073178 0.13036-0.12242 0.13336-0.097745 0.086034-0.55239 0.42256-0.33823 0.28425-0.28302 0.26864-0.25367 0.27072-0.3399 0.41374-0.15904 0.21552-0.26212 0.38983-0.25193 0.42325-0.34014 0.65411-0.3008 0.64156-0.22644 0.53319-0.32607 0.82231-0.20874 0.57534-0.10859 0.35716-0.098156 0.39938-0.066393 0.37875-0.043501 0.48926 0.001954 0.47587 0.04677 0.55832 0.10902 0.72582 0.38576 2.2846 0.11808 0.6396 0.13492 0.63081 0.17672 0.66857 0.22149 0.64181 0.22459 0.50381 0.25327 0.48197 0.16796 0.28891 0.18181 0.27959 0.32838 0.42199 0.36978 0.40055 0.35287 0.34122 0.29095 0.26135 0.64078 0.52877 0.91088 0.67148 1.406 0.95961 0.6174 0.44356 0.54053 0.43315 1.1814 1.0582 0.44839 0.38167 0.41765 0.3341 0.85405 0.63721 0.92722 0.63652 3.95 2.654 0.66264 0.45898 1.0586 0.76419 0.81104 0.63491 0.57398 0.49471 0.51048 0.49021 0.27243 0.29066 0.25793 0.29959 0.24692 0.31435 0.20893 0.2892 0.59178 0.85614 0.34746 0.52486 0.33369 0.54262 0.26164 0.46111 0.51364 0.9693 0.29378 0.58493 0.28796 0.61184 0.43522 0.99829 0.37134 0.91816 0.14453 0.41902 0.094993 0.3646 0.032947 0.19125 0.027977 0.4047-0.012088 0.48647-0.06857 1.0883-0.031491 1.095 0.018075 0.84538 0.032306 0.43647 0.067902 0.5135 0.10389 0.46968 0.16642 0.46769 0.079818 0.16348 0.10625 0.186 0.1636 0.24313 0.13523 0.17534 0.20414 0.2332 0.28564 0.2708 0.21147 0.16193 0.17901 0.1138 0.18052 0.095387 0.42619 0.16486 0.37485 0.092729 0.54301 0.072463 0.61926 0.020023 0.67384-0.028409 0.8361-0.079937 1.9916-0.23695 0.55976-0.049123 0.50997-0.019792 0.41411 0.010146 0.26485 0.022545 0.33205 0.053579 0.24586 0.077163 0.070627 0.050455 0.013014 0.029463-0.005237 0.031499-0.071581 0.020999-0.31727 0.18403-0.28974 0.20504-0.3156 0.25824-0.31246 0.29634-0.33048 0.36908-0.10143 0.12777-0.25807 0.38102-0.20135 0.40583-0.10515 0.31446-0.097263 0.59164 0.018009 0.46486 0.089015 0.47275 0.16573 0.5292 0.22225 0.5281 0.21086 0.41762 0.23644 0.41126 0.42114 0.63461 0.43303 0.57901 1.1176 1.4211 0.34975 0.48158 0.28862 0.43671 0.24695 0.42864 0.20397 0.44109 0.12416 0.39158 0.040039 0.22843 0.010774 0.18953-0.012564 0.18476-0.061509 0.261-0.09614 0.24018-0.12139 0.2376-0.82509 1.4242-0.29445 0.45936-0.22121 0.28197-0.21238 0.21959-0.28534 0.23636-0.31659 0.21455-0.30594 0.17796-0.2976 0.15223-0.54784 0.23166-0.9126 0.31861-2.4971 0.77238-0.70952 0.23644-1.7669 0.6693-0.63722 0.2632-0.44963 0.20394-0.37953 0.19777-0.41619 0.26781-0.39178 0.30767-0.35261 0.32748-0.30664 0.32923-0.22115 0.26772-0.3566 0.49269-0.30699 0.49318-0.26457 0.48546-0.14624 0.29814-0.17524 0.39871-0.14064 0.3755-0.083396 0.265-0.073434 0.28034-0.071713 0.34594-0.067283 0.43601-0.11956 0.99726-0.075883 0.77166-0.016327 0.37768 0.003977 0.41096 0.038411 0.52649 0.059782 0.41747 0.10241 0.4683 0.12105 0.40456 0.12232 0.33454 0.38268 0.91619 0.091242 0.25443 0.054398 0.18898 0.052792 0.30697-0.011495 0.40331-0.089821 0.41454-0.13206 0.37253-0.17301 0.37623-0.15501 0.28706-0.31661 0.50559-0.24722 0.34366-0.21285 0.27026-0.55568 0.64079-1.027 1.1022-0.43226 0.50318-0.25757 0.3333-0.17717 0.2523-0.23052 0.3676-0.25807 0.47719-0.23673 0.49824-0.64077 1.4427-0.31701 0.63451-0.42888 0.74905-0.54634 0.84288-0.6293 0.8935-1.4973 2.0334-0.82118 1.1401-2.0302 2.9617-2.3488 3.2508-0.81394 1.0962-0.64465 0.81548-0.2763 0.30352-0.099658 0.084487-0.031648 0.014091-0.013315-0.005324-0.020039 0.059878 0.045403 0.1341 0.09201 0.16516 0.16784 0.24525 0.16355 0.2128 0.55919 0.64968 0.99114 1.0529 0.32298 0.35978 0.41458 0.51336 0.37411 0.53292 0.41912 0.6804 0.22235 0.3877 0.18752 0.35316 0.17881 0.3728 0.23085 0.55274 0.14136 0.39041 0.29695 0.90424 0.15891 0.42439 0.13556 0.29083 0.21971 0.37714 0.22534 0.32972 0.24439 0.32423 1.493 1.8373 0.5435 0.63649 0.428 0.43518 0.43815 0.3696 0.22174 0.15615 1.1623 0.71977 0.39438 0.27073 0.39804 0.29566 0.28224 0.23882 0.27453 0.25486 1.1148 1.1152 0.35603 0.3391 0.31674 0.27804 0.17418 0.14072 1.0026 0.74316 0.4904 0.34515 0.69561 0.43211 0.25597 0.16789 0.3506 0.25375 0.14452 0.11535 0.41902 0.39474 0.24951 0.3239 0.17613 0.34204 0.10721 0.32265 0.055734 0.27139 0.027158 0.25446 0.001043 0.36172-0.046945 0.40601-0.21218 0.88281-0.059412 0.31942-0.025129 0.21773-0.020237 0.38981 4.37e-4 0.26247 0.013669 0.28577 0.049438 0.44285 0.09583 0.49451 0.14892 0.53754 0.20906 0.58597 0.2033 0.47977 0.45823 0.97694 0.16545 0.41446 0.020205-0.030482 0.057767-0.015383 0.094708-6.9e-5 0.15315 0.018522 0.25869 0.054163 0.44855 0.13306 1.6993 0.62546 0.46235 0.15957 0.57399 0.17342 0.82981 0.20973 0.63516 0.13323 0.83039 0.13298 0.64976 0.063688 0.61764 0.02679 0.5054-0.030486 0.17825-0.025196 0.39493-0.082054 0.38994-0.10772 0.30972-0.0995 0.61224-0.22828 1.2156-0.5078 0.60058-0.2383 0.59355-0.20026 0.58431-0.13905 0.57224-0.050916 0.46167 0.039448 0.4503 0.096856 0.43778 0.13234 0.79266 0.26474 0.39317 0.094001 0.42103 0.043439 0.47224-0.005829 0.30797-0.017015 0.53466-0.057177 1.0855-0.15709 0.3641-0.035637 0.579-0.017097 0.28885 0.008879 0.42456 0.035606 1.1473 0.18469 0.39527 0.0459 0.48718 0.035314 0.48175-0.003071 0.39979-0.02193 0.39864-0.042902 0.39225-0.073026 0.39965-0.11676 0.21448-0.081669 0.3201-0.15437 0.23774-0.13968 0.33761-0.22949 0.36975-0.27882 0.7467-0.61985 0.4345-0.39929 0.33518-0.34167 0.31905-0.36262 0.2991-0.37923 0.2746-0.39235 0.54022-0.85421 0.38153-0.56245 0.30485-0.42364 0.33709-0.43423 0.39871-0.44218 0.23297-0.2302 0.33317-0.29921 0.40713-0.32351 0.40837-0.28516 0.29664-0.18626 0.31201-0.17871 0.36964-0.19287 0.37128-0.17736 1.8473-0.823 0.63856-0.30491 0.63303-0.32447 1.2471-0.69307 1.2134-0.73785 0.58844-0.38392 0.57147-0.39473 0.54944-0.40728 0.52091-0.42254 0.78615-0.68351 0.65367-0.54134 0.58452-0.4556 0.66385-0.49284 3.7135-2.6362 1.8005-1.2275 1.3663-0.88536 0.85744-0.51048 0.45509-0.25117 0.46081-0.24078 0.96784-0.46652 1.0697-0.46362 0.81359-0.32309 0.96338-0.36282 1.5622-0.56491 0.8793-0.34998 0.56064-0.26164 1.6692-0.84741 0.96699-0.46928 1.331-0.60291 1.4948-0.64967 0.49921-0.20798 1.0097-0.39376 0.861-0.29533 0.42288-0.12387 0.56079-0.12518 0.24128-0.025741 0.18807 0.01707 0.030342 0.015018 0.020538 0.042236-0.023751 0.089407-0.21108 0.328-0.59672 0.75278-0.25558 0.34552-0.16296 0.24346-0.24736 0.41641-0.20775 0.4022-0.15274 0.32699-0.18078 0.43002-0.093285 0.24958-0.21178 0.67255-0.35914 1.4501-0.54466 2.0022-0.15814 0.68922-0.15718 0.89776-0.082548 0.39774-0.11339 0.40552-0.058106 0.16511-0.14512 0.32491-0.1302 0.21712-0.19146 0.24279-0.26733 0.25146-0.26313 0.18882-0.31768 0.17413-0.41933 0.16238-1.1502 0.30849-0.6879 0.23537-0.27219 0.1164-0.34824 0.17114-0.31634 0.17391-0.30125 0.18466-0.28624 0.19873-0.2815 0.22435-0.18835 0.1773-0.14965 0.16417-0.15363 0.19666-0.16204 0.26675-0.07421 0.17218-0.048118 0.18249-0.013146 0.19609 0.025868 0.23724 0.16706 0.77964 0.036414 0.31697-0.012941 0.51794-0.069509 0.56079-0.089382 0.555-0.11527 0.59184-0.12486 0.52942-0.15444 0.55898-0.13465 0.43335-0.19525 0.56908-0.17972 0.57067-0.097198 0.40688-0.076491 0.41412-0.13308 0.98035-0.10531 1.0408-0.056195 0.70705-0.014578 0.53341 0.056369 0.94782 0.076871 0.64168 0.17348 1.0557 0.035786 0.35729 0.008113 0.33459-0.025553 0.35114-0.064134 0.36431-0.091483 0.37141-0.51909 1.6611-0.20732 0.73784-0.12237 0.59413-0.023391 0.18895-0.01916 0.32695 0.008422 0.29972 0.042268 0.3205 0.024809 0.10936 0.12194 0.3544 0.081854 0.16336 0.18692 0.28942 0.45724 0.5286 0.20739 0.29864 0.10092 0.21228 0.12312 0.35367 0.14487 0.5248 0.17692 0.73874 0.070317 0.37257 0.05855 0.41972 0.034555 0.34939 0.028512 0.4427 0.019212 0.79686-0.017381 0.87295-0.093088 1.842-0.038468 1.4573-0.037787 0.2893-0.071578 0.30898-0.058432 0.16778-0.080841 0.18263-0.10546 0.19378-0.1767 0.26245-0.17919 0.2147-0.2014 0.18634-0.14836 0.10498-0.23282 0.13029-0.95776 0.40004-0.24311 0.12544-0.17438 0.12058-0.24832 0.27591-0.056495 0.10598-0.079817 0.22791-0.041272 0.20061-0.034416 0.33305-0.008261 0.34769 0.020832 0.42723 0.064903 0.47319 0.086712 0.38246 0.32306 1.0437 0.0947 0.42226 0.029199 0.2407 0.004981 0.24678-0.02613 0.2287-0.036139 0.14032-0.057834 0.14502-0.095321 0.16464-0.13923 0.17251-0.13528 0.12963-0.17266 0.13608-0.17818 0.12111-0.43521 0.24701-0.32454 0.14925-0.50048 0.1973-0.8725 0.30259-1.762 0.58472-0.41936 0.15896-0.40254 0.17373-0.32459 0.16359-0.30336 0.18186-0.28746 0.21274-0.33344 0.32475-0.29017 0.35927-0.47422 0.70279-0.21144 0.3593-0.19617 0.3949-0.14838 0.41307-0.044766 0.24665 0.007547 0.21707 0.039758 0.12605 0.13878 0.17216 0.20973 0.11967 0.32833 0.084059 0.37288 9.72e-4 0.38872-0.10361 0.34495-0.19916 0.32931-0.28593 0.26647-0.299 0.25196-0.3242 0.82083-1.1423 0.39068-0.49692 0.42938-0.46816 0.47122-0.41874 0.24564-0.17957 0.42456-0.26051 0.35687-0.18008 0.51753-0.21121 0.35042-0.11586 0.38149-0.10098 0.21373-0.043005 0.37112-0.044683 0.21609-0.003034 0.17151 0.013849 0.17676 0.033515 0.19187 0.065569 0.15328 0.083367 0.14977 0.12332 0.13428 0.1717 0.12149 0.2377 0.14539 0.44286 0.15719 0.62133 0.15371 0.52742 0.16193 0.43824 0.1347 0.3049 0.14495 0.28366 0.44224 0.75354 0.25077 0.49414 0.089472 0.10954 0.18482 0.092769 0.17156 0.007303 0.12103-0.036117 0.15997-0.092115 0.56043-0.44071 0.21774-0.13863 0.20434-0.096687 0.13589-0.047813 0.23622-0.053809 0.33097-0.014158 0.31736 0.049382 0.31858 0.11278 0.52453 0.2301 0.11565 0.028722 0.12602 0.014542 0.17806-0.003193 0.33848-0.059183 0.56633-0.1605 0.24006-0.052221 0.24787-0.034169 1.3957-0.056489 1.0173-0.13837 0.32701-0.032766 3.9197-0.12602 1.0145-0.075827 0.45138-0.050442 0.82853-0.12254 0.37536-0.070293 1.4369-0.31748 0.80397-0.13999 1.044-0.12146 0.4271-0.032217 0.57734-0.002707 0.4792 0.068617 0.24284 0.085168 0.3363 0.22322 0.26936 0.30507 0.20808 0.35702 0.14912 0.38113 0.18192 0.73401 0.13188 0.32791 0.26742 0.32322 0.26256 0.18439 0.23646 0.12302 0.28915 0.1229 0.59841 0.20792 1.3135 0.38166 0.3995 0.13295 0.17932 0.098666-0.015656 0.093407-0.044792 0.016422-0.021774 0.066028 0.083289 0.092979 0.5683 0.377 0.22176 0.20643 0.18682 0.26584 0.13098 0.31137 0.062728 0.3417-0.025691 0.46056-0.10491 0.47334-0.51978 1.8283-0.046837 0.36628 0.010933 0.32542 0.057619 0.24801 0.025653 0.054745 0.058706 0.07652 0.062741 0.019719 0.026821-0.011782 0.070876-0.091682 0.2597-0.58156 0.21005-0.41323 0.22924-0.37746 0.28084-0.4111 0.2572-0.33808 0.45505-0.53663 0.50246-0.6682 0.27358-0.30691 0.30128-0.28715 0.24759-0.19288 0.23475-0.14404 0.26893-0.12488 0.29204-0.096461 0.21508-0.048108 0.35538-0.042161 0.31908-0.002448 0.95435 0.10012 0.64004 0.025933 0.24094 0.022309 0.14888 0.027456 0.19444 0.058407 0.17249 0.079999 0.10403 0.065431 0.16197 0.13228 0.14103 0.14983 0.11945 0.15731 0.11187 0.17913 0.11588 0.22641 0.13128 0.31132 0.39437 1.1189 0.21447 0.48257 0.24795 0.47058 0.26428 0.43541 0.25923 0.36763 0.22567 0.25351 0.16494 0.066587 0.10459 0.099317 0.20445 0.3617 0.24592 0.53419 0.26026 0.6396 0.25945 0.7 0.24948 0.73112 0.23317 0.74376 0.2113 0.74508 0.18338 0.73977 0.14788 0.73076 0.10244 0.71977 0.043798 0.70773-0.013258 0.48405-0.050914 0.46637-0.1319 0.68272-0.18182 0.67312-0.2168 0.66554-0.24089 0.65961-0.52521 1.3065-0.83631 1.941-4.9035 11.141-1.2665 2.8356-0.65805 1.4242-0.6356 1.3012-0.41128 0.75281-0.13 0.19805-0.051708 0.048346-0.12985-0.1068-0.34336-0.13096-0.47988-0.11911-0.56387-0.07486-0.59895-0.01157-2.1416 0.12896-0.7843 0.023824-1.328 0.01566-0.59854 0.019674-0.42378 0.043443-0.39003 0.083679-0.19356 0.065285-0.4044 0.18063-0.55435 0.28825-0.68797 0.39573-0.32615 0.17296-0.85548 0.39024-0.54646 0.26817-0.89932 0.48929-1.0451 0.60771-0.50494 0.30917-0.44304 0.29047-0.45896 0.33819-0.37426 0.32201-0.26858 0.2715-0.25758 0.31173-0.26446 0.40958-0.1502 0.30308-0.16319 0.42796-0.21403 0.69903-0.11807 0.34306-0.10282 0.25301-0.16161 0.34182-0.30897 0.57904-0.15631 0.32645-0.22506 0.57696-0.34395 1.0541-0.13965 0.36441-0.1296 0.27856-0.17375 0.30265-0.1773 0.24373-0.25949 0.26813-0.33517 0.22794-0.2275 0.092637-0.23597 0.048161-0.40299-0.019121-0.41896-0.1097-0.25029-0.091198-0.32166-0.14536-0.31802-0.18295-0.34182-0.25077-0.23767-0.2048-1.1335-1.1044-0.39418-0.34208-0.3227-0.24578-0.48083-0.30432-0.2972-0.15025-0.47994-0.18643-0.57346-0.15494-1.4598-0.25977-0.41153-0.10071-0.2264-0.078599-0.21798-0.10489-0.2845-0.21601-0.18761-0.2212-0.13293-0.20483-0.50719-0.92906-0.17898-0.26454-0.19799-0.23354-0.21484-0.19124-0.17114-0.1064-0.20206-0.071125-0.83092-0.13887-0.23753-0.056181-0.28902-0.096349-0.19902-0.083656-0.27957-0.14476-0.48195-0.33951-0.26098-0.20793-0.49371-0.45112-0.21266-0.17987-0.3018-0.21968-0.33938-0.19204-0.40611-0.14878-0.40987-0.088313-0.31172-0.037786-0.35227-0.031079-0.34867 0.005064-0.32244 0.063067-0.30659 0.11917-0.30883 0.18308-0.64458 0.42311-0.35706 0.19799-0.65935 0.33998-0.22626 0.1432-0.4488 0.34165-0.32586 0.30328-0.20913 0.21778-0.5138 0.56674-0.9705 1.2036-0.25238 0.28755-0.21408 0.21282-0.22646 0.20004-0.22539 0.17674-0.36208 0.23459-0.34354 0.18729-0.36526 0.17542-0.35591 0.1528-0.76677 0.28452-0.40687 0.13156-0.68152 0.19396-0.82256 0.18659-0.47987 0.083942-0.73154 0.086869-0.57127 0.017863-0.56265-0.039561-0.40567-0.07343-0.62369-0.19973-0.60899-0.27463-1.5512-0.81834-0.34488-0.16408-0.52797-0.21801-0.5429-0.1867-0.55459-0.15637-0.56362-0.12561-0.57041-0.092916-0.5952-0.062594-3.1528-0.23655-0.95722-0.036564-0.67727 0.004471-0.45621 0.023595-0.5823 0.06022-0.49672 0.077604-0.82619 0.17822-0.29256 0.078887-0.43201 0.14108-0.37405 0.17786-0.29937 0.24071-0.21419 0.32881-0.1395 0.40224-0.084012 0.45824-0.044476 0.50005-0.019961 0.59551-0.017902 1.2565-0.072116 1.8676 0.008937 0.55094 0.0719 1.4471-0.005318 0.3629-0.02921 0.35946-0.043861 0.28099-0.077481 0.34364-0.11448 0.38778-0.1405 0.39389-0.29666 0.70683-0.20174 0.42676-0.25105 0.4803-0.28816 0.48192-0.29349 0.4099-0.21824 0.25287-0.23321 0.2282-0.29503 0.23925-0.46519 0.28576-0.424 0.1693-0.30488 0.064388-0.4242 0.006549-0.80203-0.1053-0.37278-0.00465-0.27894 0.065254-0.24784 0.13678-0.24341 0.26557-0.18208 0.35178-0.041628 0.11309-0.07928 0.29447-0.037993 0.21493-0.032134 0.28093-0.056429 0.89537-0.049122 0.57848-0.10778 0.79125-0.096541 0.52852-0.14055 0.64021-0.19669 0.74641-0.10794 0.32895-0.18948 0.45553-0.18185 0.35071-0.43224 0.7794-0.52344 1.1279-0.1314 0.25478-0.18102 0.31049-0.38962 0.61944-0.5348 0.92433-0.23974 0.3364-0.16407 0.18363-0.16495 0.14679-0.1962 0.13243-0.21586 0.10101-0.36944 0.088559-0.40094 0.024165-0.43021-0.020754-0.50445-0.057646-1.0021-0.14152-0.48458-0.055807-0.47078-0.034756-0.47157-0.007817-0.28844 0.012071-0.46384 0.049062-0.5354 0.10266-0.40869 0.11015-0.6039 0.20208-0.97221 0.3933-0.40831 0.19321-0.26327 0.1489-0.26287 0.17961-0.37396 0.2838-0.1929 0.11964-0.22367 0.084123-0.19937 0.020935-0.22768-0.020161-0.66717-0.14586-0.45831-0.060544-0.50252-0.029419-1.203-0.044582-0.62491-0.037524-1.847-0.16338-0.47463-0.027818-0.32524-0.005391-0.40867 0.015236-0.64414 0.083432-0.37571 0.087521-0.36254 0.11715-0.38374 0.16802-0.35709 0.21264-0.44673 0.37789-0.32454 0.36913-0.34608 0.4975-0.24358 0.42725-0.22653 0.46621-0.52922 1.1962-0.21123 0.41672-0.21113 0.35715-0.27428 0.40071-0.21715 0.27986-0.35142 0.4016-0.2926 0.2997-0.59113 0.54441-0.28391 0.23905-0.48954 0.36934-0.20855 0.12396-0.055407 0.020385-0.039032-0.004779-0.52522-0.53425-0.75061-0.69868-1.5898-1.4246-0.88343-0.74198-0.88625-0.6629-0.60095-0.4092-0.67165-0.41041-1.3778-0.8001-0.38662-0.2416-0.40625-0.27663-0.45502-0.34494-0.45835-0.39591-0.32786-0.31825-0.34403-0.37214-0.41662-0.51345-0.39754-0.55383-0.38748-0.60508-0.35213-0.61358-0.26443-0.51759-0.22019-0.48582-0.20106-0.51219-0.41864-1.1631-0.18291-0.43908-0.2471-0.52424-0.29441-0.50082-0.22505-0.30329-0.25765-0.30192-0.27877-0.29407-0.54982-0.51998-0.60287-0.51352-1.1359-0.90501-0.68348-0.58511-0.31472-0.29899-0.30695-0.31437-0.29453-0.32638-0.2829-0.33981-0.50192-0.66436-1.0244-1.4776-0.81604-1.1518-0.36812-0.50062-2.3933-3.1359-1.5589-2.1014-1.8683-2.3444-0.38261-0.51721-0.36518-0.52869-0.2353-0.36642-0.41083-0.70685-0.17632-0.33918-0.21751-0.45691-0.43168-0.97908-0.30039-0.72249-0.60949-1.5907-0.20077-0.48984-0.19572-0.41576-0.22637-0.39201-0.17823-0.2484-0.46157-0.48-0.55054-0.41431-0.61317-0.35548-0.64713-0.29806-0.64592-0.2365-0.59714-0.16552-0.47984-0.081323-0.22922 5.81e-4 -0.046198 0.025301-0.039284-0.084471-0.15007-0.06675-0.28279-0.044065-0.36994-0.002284-0.31523 0.021863-1.1755 0.12124-1.8668 0.15954-0.503 0.022166-0.37531-0.006213-0.30588-0.025931-0.43855-0.076249-1.5253-0.38619-0.89149-0.1973-0.60002-0.17302-0.23282-0.086928-0.4437-0.20969-0.20689-0.12341-0.18068-0.12573-0.16618-0.13471-0.17683-0.1717-0.14954-0.18236-0.1445-0.248-0.05147-0.13617-0.046005-0.23792 0.003419-0.27965 0.023943-0.16435 0.12515-0.55176 0.011732-0.10726-0.007307-0.076894-0.068825-0.076457-0.050942-0.001805-0.11447 0.041178-0.13979 0.086627-0.74547 0.59513-0.1921 0.12828-0.20038 0.10222-0.25496 0.071195-0.21416 0.001494-0.25489-0.075471-0.23964-0.15655-0.2488-0.26889-0.18571-0.30106-0.11256-0.24417-0.098105-0.26392-0.08229-0.26597-0.16299-0.6331-0.29071-1.282-0.023576 0.074519 0.012696 0.14678 0.25193 1.4704 0.19936 1.6194 0.036392 0.54812-0.015251 0.28707-0.029284 0.1497-0.048531 0.13073-0.049117 0.082426-0.13235 0.14036-0.14777 0.105-0.1239 0.067917-0.70439 0.28079-0.28984 0.1305-0.29935 0.16119-0.47684 0.31513-0.5523 0.40163-0.52394 0.40067-0.89004 0.70956-0.30622 0.21504-1.2833 0.76556-0.89841 0.58515-0.35828 0.20974-0.40609 0.19141-0.21681 0.081397-0.21714 0.067881-0.41248 0.091402-0.37166 0.032667-0.28339-0.019756-0.23286-0.062143-0.15768-0.078873-0.18975-0.15706-0.084598-0.10602-0.21443-0.37582-0.09377-0.10063-0.11336-0.068207-0.1258-0.046725-0.24565-0.05937-0.47344-0.073151-0.26312-0.005655-0.13127 0.03497-0.04163 0.039211-0.044938 0.01965-0.041228-0.002159-0.032184-0.0205-0.049436-0.086512-0.038771-0.22885 0.017715-0.46197 0.061987-0.41219 0.09901-0.45087 0.19429-0.67039 0.23706-0.66587 0.82504-2.0835 0.14149-0.39019 0.14711-0.45986 0.12212-0.45952 0.087715-0.41832 0.066952-0.41515 0.19762-1.8594 0.234-1.3845 0.038981-0.35091 0.026129-0.42239-0.021808-0.81302-0.034168-0.41668-0.040037-0.31539-0.065774-0.36177-0.097774-0.40147-0.10532-0.33856-0.11683-0.30656-0.14091-0.31729-0.37212-0.7173-0.31827-0.5181-0.72121-0.98097-0.20094-0.35336-0.12065-0.30411-0.09819-0.41396-0.040873-0.39093 0.008738-0.57474 0.034008-0.3111 0.052417-0.31051 0.094687-0.40584 0.096662-0.32837 0.10887-0.31919 0.35551-0.93976 0.11894-0.4605 0.037538-0.21904 0.064988-0.6375 0.007663-0.32039-0.013701-0.22104-0.044908-0.17785-0.078393-0.11156-0.096999-0.058724-0.10276-0.02735-0.41466-0.022259-0.2815-0.033895-0.3009-0.099449-0.19584-0.091178-0.19077-0.11845-0.25188-0.22655-0.62367-0.73178-0.20679-0.20254-0.19436-0.15303-0.30954-0.19822-0.34565-0.18161-0.31052-0.13914-1.5956-0.61752-0.67636-0.32205-0.27807-0.14331-0.209-0.12601-0.31913-0.23557-0.21562-0.19202-0.23399-0.2469-0.27549-0.35596-0.50924-0.77909-0.32172-0.54965-0.09952-0.11848-0.11905-0.10607-0.18501-0.11934-0.25448-0.11679-0.34199-0.13083-0.32011-0.15285-0.32955-0.24328-0.45212-0.43744-0.32265-0.36448-0.45161-0.58076-0.5059-0.62156-0.20507-0.27305-0.18444-0.25782-0.29536-0.46567-1.9131-3.2831-0.23625-0.46803-0.15631-0.38207-0.045664-0.17146-0.00326-0.066676 0.021457-0.028057 0.154-0.05886 0.045229-0.11996-0.026412-0.090634-0.12831-0.17303-0.13197-0.13307-0.88494-0.80989-0.23205-0.25373-0.21572-0.27324-0.18483-0.27131-0.15506-0.28915-0.09649-0.25259-0.087414-0.35401-0.049988-0.35762-0.02109-0.2991-0.004263-0.43733 0.021832-0.41834 0.049086-0.42792 0.12909-0.82414 0.008863-0.37945-0.033755-0.36209-0.066825-0.33038-0.13505-0.44486-0.14891-0.64598-0.060342-0.17328-0.056509-0.11693-0.13718-0.20004-0.17248-0.18258-0.2703-0.22247-0.29477-0.20883-0.85752-0.53206-1.4343-0.81359-0.3333-0.21477-0.30193-0.22468-0.32834-0.29592-0.337-0.39333-0.10773-0.15842-0.20195-0.38841-0.10564-0.3182-0.067478-0.32865-0.03452-0.29206-0.01772-0.29424-0.006348-0.36057 0.010142-0.75718-0.017479-0.45205-0.10261-1.1261-0.014107-0.36392 0.021419-0.56122 0.063182-0.45706 0.082383-0.36718 0.18413-0.63082 0.43071-1.2698 0.077494-0.35547 0.003267-0.13009-0.034245-0.21313-0.19301-0.52062-0.13892-0.61356-0.072475-0.2441-0.11822-0.29968-0.18929-0.37617-0.16173-0.26308-0.18194-0.25215-1.151-1.3692-0.24806-0.27294-0.33664-0.33787-0.82603-0.78933-0.77894-0.67114-0.80334-0.62556-1.1113-0.79507-1.3829-0.94304-0.60604-0.47566-0.33676-0.29609-0.32475-0.30953-0.44469-0.46711-1.1425-1.3327-0.67619-0.72078-0.38894-0.37754-0.38127-0.34539-1.0889-0.91097-0.43163-0.38508-0.3539-0.3541-0.34301-0.40287-0.15656-0.21529-0.23863-0.3783-0.79745-1.5041-0.24939-0.42328-0.3261-0.5015-0.25868-0.3603-0.30935-0.39732-1.139-1.3592-0.30085-0.37257-0.28341-0.37771-0.4361-0.65169-0.28489-0.49131-0.15428-0.30116-0.12985-0.28702-0.15894-0.45746-0.11437-0.61779-0.062442-0.22613-0.14001-0.32037-0.36462-0.63926-0.14173-0.29567-0.072585-0.2082-0.04121-0.16866-0.033785-0.26108 0.002767-0.24487 0.051446-0.276 0.05579-0.15554 0.12512-0.22913 0.12146-0.15358 0.14833-0.13425 0.12377-0.071832 0.11838-0.021572 0.059915-0.10058 0.027893-0.075541 0.041782-0.1648 0.027593-0.19785 0.005605-0.17637-0.031781-0.2754-0.031284-0.11464-0.056122-0.13643-0.051922-0.09096-0.08843-0.1178-0.13417-0.13171-0.19726-0.13914-0.22518-0.11472-0.32868-0.12012-0.26544-0.072554-0.41026-0.087791-0.73832-0.12014-2.1268-0.27552-0.74777-0.1434-0.46227-0.1177-0.2831-0.08642-0.35153-0.1268-0.28812-0.12354-0.31803-0.1613-0.34142-0.20924-0.24048-0.17574-0.17978-0.15126-0.35425-0.36643-0.21997-0.28168-0.33023-0.51323-0.25244-0.48068-0.19932-0.45374-0.12857-0.34461-0.15722-0.49116-0.35701-1.2791-0.25872-0.87078-0.12776-0.38536-0.25424-0.66828-0.17998-0.40608-0.34374-0.68351-0.75312-1.3618-0.34276-0.67103-0.20627-0.4509-0.22046-0.5404-0.17392-0.49211-0.14278-0.47621-0.108-0.43132-0.16258-0.84381-0.40008-2.6938-0.073361-0.60852-0.005191-0.3991 0.018356-0.19402 0.04476-0.23635 0.056891-0.19831 0.074167-0.19909 0.085614-0.19055 0.15056-0.28379 0.32536-0.50256 0.19651-0.26461 0.33498-0.41297 1.2378-1.3772 0.37694-0.45875 0.14407-0.20668 0.12598-0.22716 0.039024-0.11627 7.51e-4 -0.033462-0.026212-0.032911 0.54596 0.06768 0.61659 0.04701 4.8533 0.26765 0.94478 0.033151 1.0098 7.57e-4 0.55746-0.020687 0.45109-0.037136 0.37787-0.049329 0.51711-0.099843 0.55612-0.1612 0.28068-0.10632 0.30993-0.13834 0.40326-0.21706 0.3843-0.25636 0.30626-0.24716 0.25062-0.22917 0.22052-0.21868 0.45856-0.49966 0.39441-0.48076 0.29958-0.4199 0.16669-0.26846 0.1792-0.32372 0.28825-0.59861 0.26262-0.61136 0.46959-1.2061 0.36898-1.0046 0.12177-0.38386 0.12252-0.47658 0.08249-0.46958 0.027938-0.24418 0.02001-0.2766 0.008378-0.38115-0.016324-0.4319-0.044113-0.43144-0.069344-0.41452-0.1424-0.5793-0.17133-0.54215-0.81668-2.2096-0.29134-0.88888-0.13626-0.49179-0.1184-0.49642-0.098828-0.50279-0.06222-0.39771-0.05393-0.45922-0.052226-0.82997-0.014269-0.58982-5.27e-4 -1.1063 0.016215-0.80448 0.051635-1.2617 0.094023-1.3356 0.12443-1.4167 0.02794-0.46142 0.013922-0.53293-6.26e-4 -0.66024-0.012375-0.39345-0.042974-0.64874-0.067562-0.59047-0.080654-0.4966-0.068025-0.33738-0.20895-0.81885-0.18867-0.57746-0.40131-1.0679-0.14224-0.40812-0.17555-0.57578-0.10703-0.41728-0.11786-0.59303-0.073017-0.55779-0.034909-0.65253 0.023422-0.61209 0.055354-0.47345 0.055845-0.32285 0.086976-0.38832 0.094804-0.33401 0.11464-0.33225 0.1143-0.28683 0.13594-0.30831 0.47268-0.99201 0.19989-0.47095 0.93123-2.4861 0.27855-0.78866 0.19048-0.61417 0.11244-0.50551 0.04427-0.3992 0.006784-0.30926-0.011076-0.23934-0.029647-0.25641-0.060052-0.301-0.077852-0.28108-0.31512-0.99354-0.11052-0.43286-0.076923-0.39263-0.070795-0.53305-0.037649-0.52782-0.012005-1.2331-0.01375-0.35156-0.053827-0.49778-0.092943-0.42766-0.092363-0.28693-0.16882-0.40249-0.13624-0.27303-0.61531-1.1389-0.34831-0.74447-0.35624-0.90947-0.50981-1.4725-0.1591-0.37067-0.084967-0.14366 0.19448-0.084614 0.39599-0.2187 0.46149-0.23349 0.82463-0.36199 0.75507-0.29195 0.63726-0.22192 0.91758-0.27784 0.47115-0.12218 0.57868-0.13101 1.4931-0.27887 1.6863-0.28866 2.0572-0.27949 0.70812-0.13512 0.18234-0.048347 0.41304-0.14181 0.40057-0.17963 0.33219-0.17924 0.32303-0.19985 0.51196-0.36736 0.28726-0.23302 0.27765-0.24476 0.2833-0.27149 0.27097-0.28165 0.46787-0.54381 0.33089-0.43961 0.31824-0.48336 0.59317-1.0756 0.3237-0.53042 0.32822-0.44087 0.30049-0.33615 0.32123-0.30194 0.2671-0.21411 0.39544-0.27522 1.0522-0.65702 0.47354-0.33059 0.24521-0.19796 0.2805-0.26265 0.18168-0.19148 0.20763-0.23816 0.40104-0.51115 0.53898-0.76219 0.39542-0.59677 0.36504-0.60275 0.20006-0.36664 0.45012-0.94026 0.092432-0.12779 0.11684-0.10696 0.27366-0.1256 0.33107-0.051146 0.2191 0.010615 0.23308 0.041365 0.38168 0.12138 0.43182 0.2045 0.2277 0.13158 0.31724 0.20706 2.6908 2.0145 0.38144 0.27749 0.45898 0.31331 0.27172 0.16738 0.36548 0.20063 0.45715 0.22538 0.18275 0.078174 0.44797 0.14869 0.53392 0.10659 0.658 0.064199 0.60514 0.019079 0.62188-0.002634 1.9069-0.043494 0.63219 0.002901 0.62194 0.027141 0.60595 0.062466 0.58335 0.11087 0.38138 0.10854 0.37003 0.12852 2.5907 0.96624 0.6804 0.21089 0.78494 0.19579 0.84659 0.17429 0.73241 0.11588 0.42654 0.044632 0.68633 0.02956 0.66235-0.030472 0.53069-0.077897 0.43921-0.10961 0.33124-0.10864 0.31971-0.12598 0.59072-0.29494 0.32584-0.20208 0.3138-0.22363 0.4089-0.33704 0.42833-0.4079 1.2836-1.3658 0.31582-0.30715 0.24835-0.22276 0.44258-0.35824 0.4953-0.35894 0.516-0.34432 1.526-0.96874 1.1201-0.73525 0.59797-0.43076 0.47169-0.38483 0.47604-0.453 0.49095-0.53809 0.39414-0.47722 0.38581-0.50222 0.38338-0.5406 0.39836-0.61673 0.26438-0.44954 0.24779-0.45854 0.3132-0.6495 0.15763-0.36711 0.3498-0.91624 0.2349-0.71068 0.12442-0.42806 0.11044-0.42929 0.14157-0.68916 0.08675-0.62815 0.073478-0.68073 0.055546-0.6612 0.065117-1.7182 0.034524-0.42388 0.045893-0.33399 0.068243-0.32756 0.10262-0.34241 0.094638-0.25081 0.15616-0.34861 0.16419-0.31764 0.21468-0.36721 0.23674-0.35905 0.24598-0.33349 0.26494-0.32272 0.39236-0.41945 0.52625-0.47141 0.35421-0.27119 0.37185-0.25234 0.44493-0.26426 0.46462-0.2381 0.65949-0.28072 0.62518-0.21843 1.0274-0.31327 1.9703-0.56879 0.80198-0.24643 0.53342-0.18697 0.50467-0.2072 0.3387-0.165 0.31201-0.18103 0.28369-0.20299 0.24312-0.22432 0.15496-0.18555 0.16231-0.25224 0.12986-0.27528 0.098674-0.32074 0.028626-0.23578-0.039408-0.15022 0.028574-0.01661 0.13491-0.004475 0.19239 0.012501 0.83074 0.1102 0.79867 0.14899 2.0353 0.42168 0.73672 0.13848 0.73128 0.1235 0.88225 0.12685 0.54036 0.062249 0.44862 0.037531 0.46604 0.022648" stroke="#bdc660"/>
    </defs>
    <g clip-path="url(#pb09cade761)">
     <use y="280.512" fill="#bdc660" stroke="#bdc660" xlink:href="#m55ade5d9dd"/>
    </g>
   </g>
  </g>
 </g>
 <defs>
  <clipPath id="pb09cade761">
   <rect x="7.2" y="7.2" width="244.74" height="266.11"/>
  </clipPath>
 </defs>
</svg>
