<?xml version="1.0" encoding="UTF-8"?>
<!DOCTYPE svg  PUBLIC '-//W3C//DTD SVG 1.1//EN'  'http://www.w3.org/Graphics/SVG/1.1/DTD/svg11.dtd'>
<svg width="250.15pt" height="280.51pt" version="1.1" viewBox="0 0 250.15 280.51" xmlns="http://www.w3.org/2000/svg" xmlns:xlink="http://www.w3.org/1999/xlink">
 <metadata>
  <rdf:RDF xmlns:cc="http://creativecommons.org/ns#" xmlns:dc="http://purl.org/dc/elements/1.1/" xmlns:rdf="http://www.w3.org/1999/02/22-rdf-syntax-ns#">
   <cc:Work>
    <dc:type rdf:resource="http://purl.org/dc/dcmitype/StillImage"/>
    <dc:date>2024-07-04T12:11:16.713405</dc:date>
    <dc:format>image/svg+xml</dc:format>
    <dc:creator>
     <cc:Agent>
      <dc:title>Matplotlib v3.7.1, https://matplotlib.org/</dc:title>
     </cc:Agent>
    </dc:creator>
   </cc:Work>
  </rdf:RDF>
 </metadata>
 <defs>
  <style type="text/css">*{stroke-linejoin: round; stroke-linecap: butt}</style>
 </defs>
 <g id="figure_1">
  <g id="patch_1">
   <path d="m0 280.51h250.15v-280.51h-250.15v280.51z" fill="none"/>
  </g>
  <g id="axes_1">
   <g id="PatchCollection_1">
    <defs>
     <path id="mb26fa87386" d="m186.52-199.01 0.033843 0.089291-0.19797 0.43297-1.3954 2.2168-0.65881 0.98336-0.38051 0.5146-0.56566 0.69091-1.1613 1.2597-0.83954 0.84127-2.0882 1.9928-0.71517 0.72982-0.80857 0.92497-0.42385 0.55488-0.58787 0.89303-2.8988 4.8533-0.60939 1.2406-0.39486 1.0404-0.27654 1.0351-0.12533 0.80312-0.035226 0.58715 0.0192 0.78614 0.064199 0.6043 0.10933 0.5656 0.30091 0.8635 0.44022 0.73258 0.50358 0.60427 0.54785 0.53558 0.81709 0.67284 0.66894 0.47806 0.63458 0.40338 1.0983 0.60178 2.9011 1.3876 2.456 1.2779 0.77754 0.44402 3.4078 2.0832 1.1455 0.61551 0.80587 0.38914 1.7496 0.72213 3.4862 1.2 1.1902 0.44444 1.0845 0.46046 2.1252 0.96803 0.94364 0.38439 5.8265 2.0764 4.5454 1.7371 0.8771 0.3718 2.7163 1.2761 1.7511 0.89177 0.90905 0.52593 0.64855 0.4171 2.9247 2.022 3.6221 2.2296 1.2071 0.87479 0.51164 0.4436 0.51894 0.52671 0.48416 0.57259 0.46965 0.61472 1.3698 1.9199 2.3175 3.1079 0.81871 1.2073 0.5332 0.97157 0.29418 0.76324 0.14018 0.55668 0.067077 0.46308 0.016878 0.57428-0.048929 0.4927-0.11311 0.48341-0.12314 0.32396-0.17029 0.31058-0.10084 0.13995-0.51319 0.46383-0.70774 0.42456-0.3929 0.27419-0.25821 0.25555-0.23022 0.34955-0.1678 0.52373-0.020497 0.40383 0.10189 0.57107 0.19868 0.51023 0.40358 0.71588 0.98431 1.5171 0.33055 0.63885 0.16251 0.49654 0.046384 0.33899-0.002086 0.20537-0.094045 0.45439-0.18145 0.37589-0.24604 0.3239-0.36676 0.34594-0.42368 0.31499-2.0283 1.3087-0.8306 0.6551-0.84448 0.79039-0.464 0.48268-1.3536 1.523-0.67264 0.68868-0.46644 0.39891-0.38987 0.25722-0.21236 0.10223-0.22302 0.075114-0.43447 0.048962-0.40439-0.07066-0.4871-0.22532-0.51244-0.37552-0.4592-0.42418-1.1838-1.2227-0.4563-0.43785-0.4795-0.40561-0.55487-0.38358-0.60064-0.30514-0.8152-0.23471-0.4538-0.042368-0.48079 0.02333-0.44669 0.078692-0.53565 0.15022-1.9515 0.70477-0.63466 0.19534-0.9346 0.21265-0.81609 0.10186-0.85443 0.016443-1.0889-0.11722-0.85925-0.20286-0.79966-0.27571-1.18-0.53009-2.1646-1.0959-0.61043-0.27971-0.90879-0.35138-0.36557-0.1102-0.61085-0.13338-0.78857-0.063157-0.69953 0.065893-0.54631 0.15-0.48582 0.222-0.36132 0.22868-0.15453 0.11675-0.66506 0.66052-0.59908 0.89555-0.26953 0.56153-0.29485 0.86114-0.13901 0.60944-0.091748 0.60286-0.044252 0.55839 0.001466 0.58696 0.073846 0.72272 0.074948 0.39541 0.18901 0.69905 0.37762 1.0364 0.76469 1.9391 0.35685 1.096 0.2793 1.0996 0.15341 0.82532 0.12962 1.1543 0.057098 1.4132 0.020015 1.4725 0.066457 1.3825 0.11383 0.96775 0.21278 1.0588 0.20607 0.74269 0.36865 1.0146 0.85885 1.9327 1.0426 2.1566 0.29304 0.65466 0.2708 0.72403 0.18896 0.7349 0.055028 0.75518-0.089725 0.52522-0.15721 0.37673-0.31446 0.4372-0.74637 0.58941-0.9431 0.43804-3.1732 0.98441-4.4966 1.6057-1.4693 0.46888-1.3905 0.35678-2.5646 0.46556 0.3322-0.31741 0.008291-0.62659-0.34466-0.77253-0.65529-0.79938-0.36658-0.33838-0.90039-0.68195-1.0268-0.60663-1.1129-0.49634-1.1679-0.35077-1.247-0.18622-1.2544-0.040515-1.24 0.05567-0.99857 0.09964-1.0058 0.18264-1.0047 0.26026-4.6126 1.5108-1.2726 0.38411-1.3094 0.34541-1.1345 0.24481-1.6693 0.24538-2.7535 0.25226-1.9155 0.227-1.4831 0.21993-2.0655 0.36118-1.951 0.44719-0.84064 0.26865-0.81402 0.32417-1.1465 0.60632-1.005 0.73666-0.89098 0.86513-0.52074 0.62206-0.47478 0.65951-0.70841 1.19-0.39163 0.79076-0.39523 0.962-0.17848 0.54522-0.28757 1.3088-0.12914 1.3246-0.015326 0.50725 0.004442 1.2111 0.12207 4.5238-0.001692 1.0647-0.04085 0.94361-0.10194 0.89376-0.15316 0.76196-0.21627 0.73673-0.29293 0.73833-0.36637 0.73091-0.40411 0.71233-0.68151 1.1389-0.69802 1.0907-0.75847 1.0455-1.583 2.0881-0.4674 0.70364-0.50114 0.87524-0.93584 1.8004-0.44051 0.9321-1.4147 3.6759-0.90151 1.9769-0.37866 0.72596-0.41571 0.71828-0.64227 1.0045-1.3598 2.0017-0.52677 0.81606-0.54058 0.9129-0.3954 0.756-0.51201 1.1649-0.43596 1.2833-0.26761 1.1112-0.10876 0.65654-0.061524 0.56672-0.038669 0.80705 0.018264 0.95886 0.31219 3.7448 0.04953 1.1999-0.008232 1.2159-0.065057 1.2314-0.1241 1.2524-0.16781 1.1653-0.27676 1.4005-0.27537 1.0791-0.46487 1.4555-0.25506 0.65543-0.55167 1.1841-0.52396 0.88645-0.15938 0.22198-0.2787 0.30759-0.19502 0.073514-0.39802-0.16069-0.54458-0.61177-0.62556-0.88717-0.63777-1.0507-0.59836-1.1356-0.51756-1.1645-0.95168-2.7002-0.31681-0.75128-0.27963-0.54638-0.26996-0.43228-0.28826-0.37961-0.34032-0.36158-0.39087-0.31923-0.25105-0.1579-0.41626-0.19305-0.46922-0.14095-0.35927-0.066258-0.58143-0.053835-1.5445-0.062582-2.303-0.24162-0.77 0.005909-0.8576 0.10174-0.51903 0.11609-0.70475 0.23278-0.64899 0.30137-0.56649 0.34758-0.59747 0.46545-0.72705 0.69295-0.6602 0.74064-1.2125 1.6125-1.0981 1.295-0.62068 0.81584-0.67772 0.99206-0.55319 0.91089-0.50688 0.99721-0.62672 1.4034-0.17104 0.22125-0.064727 0.028431-0.1514-0.047584-0.14167-0.18466-0.061906-0.13211-0.13905-0.5985-0.026384-0.7853 0.11303-0.8839 1.2543-4.412 0.25318-1.1423 0.061997-1.1114-0.15138-0.8246-0.31607-0.75139-0.45083-0.64153-0.53516-0.49815-1.3714-0.90978-0.20099-0.22438 0.052544-0.15934 0.10809-0.039631 0.037779-0.22541-0.43272-0.2381-0.96408-0.32084-3.1698-0.92102-1.4441-0.50176-0.69778-0.29658-0.57063-0.29687-0.6336-0.44498-0.64533-0.78-0.31825-0.7913-0.43902-1.7713-0.35986-0.91975-0.50213-0.86156-0.65001-0.7362-0.81155-0.53867-0.58601-0.20553-1.1564-0.16559-1.3932 0.006533-1.0307 0.077745-2.5194 0.29311-1.9401 0.33784-3.4675 0.76614-0.90582 0.16963-1.9994 0.29572-1.0893 0.12173-2.4482 0.18299-9.4589 0.30411-0.78913 0.079071-2.4549 0.33392-3.3681 0.13632-0.59815 0.082456-0.57932 0.12602-1.3667 0.38732-0.81681 0.14282-0.42968 0.007706-0.3041-0.035094-0.27909-0.069311-1.2658-0.55528-0.7688-0.27217-0.76585-0.11917-0.79869 0.034166-0.57006 0.12985-0.32793 0.11538-0.49312 0.23332-0.52546 0.33455-1.3524 1.0635-0.38603 0.22229-0.29207 0.087156-0.414-0.017623-0.446-0.22387-0.21592-0.26434-0.60516-1.1925-1.0672-1.8184-0.34979-0.68453-0.32506-0.73578-0.39078-1.0576-0.37094-1.2728-0.37934-1.4994-0.35087-1.0687-0.29318-0.57361-0.32405-0.41435-0.36142-0.2976-0.36991-0.20118-0.46303-0.15823-0.42656-0.080877-0.41389-0.03342-0.52147 0.00732-0.89558 0.10783-0.51577 0.10378-0.92062 0.24369-0.84563 0.27958-1.2489 0.50969-0.8612 0.43458-1.0245 0.62866-0.59277 0.43333-1.1372 1.0105-1.0362 1.1298-0.9428 1.1992-1.9808 2.7566-0.60802 0.78237-0.64304 0.72154-0.79469 0.69-0.83244 0.48062-0.93806 0.25002-0.89983-0.002346-0.79232-0.20285-0.50611-0.28878-0.33491-0.41544-0.095944-0.30418-0.018213-0.52382 0.10803-0.59522 0.35807-0.99683 0.4734-0.95298 0.51026-0.86706 1.1444-1.696 0.70023-0.86699 0.80465-0.78369 0.69369-0.51338 0.73208-0.43885 0.78329-0.39478 0.9714-0.41924 1.012-0.3836 4.2521-1.411 2.1055-0.73021 1.2078-0.47613 0.78317-0.36018 1.0503-0.59608 0.42999-0.29226 0.41667-0.3284 0.32646-0.31282 0.33598-0.4163 0.23003-0.39732 0.13956-0.34997 0.087211-0.33861 0.063057-0.55189-0.012019-0.59553-0.070464-0.58085-0.22853-1.019-0.77961-2.5186-0.20925-0.92295-0.15662-1.1419-0.050272-1.031 0.019935-0.83905 0.083054-0.80371 0.099596-0.48411 0.19262-0.54998 0.13633-0.25576 0.59924-0.66583 0.42081-0.29099 0.58667-0.3027 2.3113-0.96539 0.56183-0.31442 0.35801-0.25333 0.48603-0.44968 0.43242-0.51812 0.42641-0.63334 0.25449-0.46762 0.19509-0.44073 0.14101-0.40487 0.17273-0.74563 0.091186-0.69814 0.092831-3.5168 0.22464-4.4452 0.041946-2.1066-0.046364-1.923-0.068804-1.0683-0.083388-0.84314-0.14129-1.0129-0.16969-0.89908-0.42695-1.7827-0.34961-1.2665-0.2971-0.85347-0.24355-0.51227-0.50048-0.72067-1.1034-1.2756-0.45108-0.69842-0.19753-0.39423-0.29425-0.85524-0.059869-0.26391-0.102-0.77343-0.020325-0.7233 0.046238-0.78898 0.056447-0.45598 0.2953-1.4338 0.5003-1.7805 1.2527-4.0085 0.22076-0.89629 0.15477-0.87915 0.061665-0.84737-0.019578-0.80742-0.08636-0.86222-0.41863-2.5475-0.1855-1.5485-0.13603-2.2873 0.035181-1.2872 0.13561-1.7063 0.25414-2.5117 0.32115-2.3658 0.18459-0.99936 0.23456-0.98188 0.43371-1.3771 0.47117-1.3733 0.32493-1.0458 0.3727-1.3489 0.30132-1.2776 0.27817-1.4282 0.2157-1.3393 0.16774-1.3533 0.031229-1.2499-0.087875-0.76492-0.40314-1.8814-0.062425-0.5725 0.031724-0.4732 0.11612-0.44039 0.17908-0.41551 0.39105-0.64373 0.37074-0.47459 0.36115-0.39618 0.45452-0.42785 0.67933-0.54141 0.69075-0.47958 0.72696-0.44563 0.7634-0.41968 0.84038-0.413 0.65685-0.28088 1.66-0.568 2.7757-0.74446 1.0119-0.39186 0.76661-0.42021 0.63499-0.45566 0.64512-0.60682 0.46202-0.5859 0.31419-0.52396 0.3502-0.78406 0.14022-0.39844 0.27364-0.97861 0.1992-0.95982 0.3793-2.1665 0.38162-1.6632 1.3144-4.8317 0.86668-3.4995 0.51106-1.623 0.22512-0.60228 0.43625-1.0377 0.36858-0.7891 0.50133-0.97059 0.59693-1.0049 0.39326-0.58752 0.61676-0.83382 1.44-1.8166 0.50938-0.79153 0.057316-0.21576 0.27958-0.30576 0.48214-0.79586 2.2133-4.0643 0.45479-0.77312 0.45036-0.70221 0.74984-1.0212 0.54272-0.64094 0.93589-1.0074 3.7107-3.8054 0.93451-0.85376 1.0966-0.84358 2.927-2.0547 2.2261-1.6911 2.2831-1.7985 3.0221-2.4623 6.712-5.6572 0.93613-0.80806 1.2218-1.1362 1.625-1.6575 0.93794-1.0285 0.73333-0.87174 0.67937-0.89518 0.66644-1.0198 0.72295-1.3905 0.6062-1.4277 1.0961-2.7944 0.59792-1.2756 0.70389-1.1251 0.77867-0.87988 1.6634-1.5539 0.72495-0.83875 0.35929-0.56522 0.39477-0.77275 0.6489-1.566 0.34162-0.90162 0.51211-1.5303 0.85529-2.9316 0.75777-2.2324 0.39141-1.3848 0.098149-0.56008 0.051996-0.77759-0.11819-2.3609 0.016345-0.70434 0.15153-1.0904 0.38622-1.9183 0.19942-0.8155 0.33001-0.86643 0.51487-1.1281 0.14842-0.41946 0.093406-0.32931 0.42792-1.9694 0.30156-1.1636 0.46431-1.3044 0.56037-1.1574 0.41705-0.67848 0.47671-0.64315 0.79187-0.85411 0.65142-0.58336 0.91705-0.7068 1.2363-0.79932 0.86529-0.4651 0.84548-0.38059 0.8507-0.30088 1.0031-0.21558 0.65918-0.034026 1.2044 0.026177 0.72894-0.074541 0.84525-0.17183 0.85013-0.13135 0.83371 0.033166 0.74762 0.22652 0.50447 0.32031 0.71298 0.64871 0.089906-0.17216 0.41332-0.50236 0.66447-0.63939 0.90341-0.57797 0.7222-0.27132 0.80981-0.17726 0.84756-0.09133 0.89309-0.023836 1.4678 0.072068 3.6429 0.4101 1.4401 0.055211 2.8471 0.011597 1.2941 0.081017 0.78944 0.098454 1.3224 0.29292 0.48385 0.17184 0.69552 0.35018 0.80974 0.66375 0.49695 0.57907 0.51371 0.75047 0.59839 1.0973 0.39071 0.85947 0.2909 0.76729 0.15992 0.56001 0.084361 0.62422-0.059115 0.54916-0.38974 0.80095-0.66282 0.79012-1.7102 1.7125-0.95707 1.12-0.67744 0.95815-0.56325 0.99198-0.33834 0.77183-0.3806 1.2062-0.19975 0.90881-0.22581 1.6028-0.052708 0.80376-0.002681 0.63113 0.051832 1.0168 0.070225 0.41613 0.19799 0.5459 0.47899 0.66332 0.40224 0.40667 0.64546 0.54209 1.147 0.80582 0.8578 0.51041 0.52227 0.27485 1.0265 0.47312 0.45087 0.24697 0.32708 0.26982 0.28515 0.37466 0.29884 0.66493 0.098346 0.42466 0.01735 0.39493-0.041905 0.30512-0.18346 0.49697-0.27973 0.47071-0.56783 0.82104-0.25784 0.4207-0.58626 1.0322-0.30001 0.6265-0.33264 1.0237-0.22775 1.0982-0.55366 3.2028-0.10634 0.88459-0.22855 2.9068-0.017817 0.54154 0.021324 0.89662 0.13523 0.95132 0.24662 0.94968 0.49023 1.3136 0.45138 0.94354 0.41833 0.70845 0.50539 0.67903 0.3216 0.37112 0.60264 0.59688 0.36485 0.32093 0.76588 0.6173 0.63709 0.4713 0.93068 0.60194 1.0281 0.58169 0.8011 0.40859 0.96757 0.44672 1.0118 0.41781 2.1903 0.77328 1.169 0.3329 3.9109 0.92852 1.3471 0.36601 1.5031 0.48556 0.93099 0.36232 1.0785 0.50389 1.0817 0.59035 1.1512 0.70245 3.4858 2.2671 0.73609 0.43177 0.72094 0.37774 1.0395 0.43212 0.80372 0.21936 0.48152 0.080865 0.78912 0.042915 0.20413-0.014323 0.2569-0.10793" stroke="#bdc660"/>
    </defs>
    <g clip-path="url(#p59aa0ad7d3)">
     <use y="280.512" fill="#bdc660" stroke="#bdc660" xlink:href="#mb26fa87386"/>
    </g>
   </g>
  </g>
 </g>
 <defs>
  <clipPath id="p59aa0ad7d3">
   <rect x="7.2" y="7.2" width="235.75" height="266.11"/>
  </clipPath>
 </defs>
</svg>
