<?xml version="1.0" encoding="UTF-8"?>
<!DOCTYPE svg  PUBLIC '-//W3C//DTD SVG 1.1//EN'  'http://www.w3.org/Graphics/SVG/1.1/DTD/svg11.dtd'>
<svg width="371.52pt" height="258.95pt" version="1.1" viewBox="0 0 371.52 258.95" xmlns="http://www.w3.org/2000/svg" xmlns:xlink="http://www.w3.org/1999/xlink">
 <metadata>
  <rdf:RDF xmlns:cc="http://creativecommons.org/ns#" xmlns:dc="http://purl.org/dc/elements/1.1/" xmlns:rdf="http://www.w3.org/1999/02/22-rdf-syntax-ns#">
   <cc:Work>
    <dc:type rdf:resource="http://purl.org/dc/dcmitype/StillImage"/>
    <dc:date>2024-07-04T12:11:25.579738</dc:date>
    <dc:format>image/svg+xml</dc:format>
    <dc:creator>
     <cc:Agent>
      <dc:title>Matplotlib v3.7.1, https://matplotlib.org/</dc:title>
     </cc:Agent>
    </dc:creator>
   </cc:Work>
  </rdf:RDF>
 </metadata>
 <defs>
  <style type="text/css">*{stroke-linejoin: round; stroke-linecap: butt}</style>
 </defs>
 <g id="figure_1">
  <g id="patch_1">
   <path d="m0 258.95h371.52v-258.95h-371.52v258.95z" fill="none"/>
  </g>
  <g id="axes_1">
   <g id="PatchCollection_1">
    <defs>
     <path id="m09bafbd6b6" d="m314.8-212.48 0.32163 2.201 0.13718 1.2279 0.11183 1.3188 0.080045 1.5065 0.031567 1.4931-0.020151 1.8283-0.063259 1.5237-0.17391 2.1615-0.18737 1.3933-0.3117 1.3202-0.45071 1.1506-0.34612 0.67805-0.46999 0.78909-0.8247 1.1957-0.94229 1.2272-2.815 3.4516-1.0202 1.3346-5.3798 7.6964-0.93042 1.385-0.504 0.83905-0.51959 1.0946-0.35339 1.1396-0.084561 0.45498-0.069889 0.63627-0.021784 0.7255 0.023123 0.61651 0.080348 0.78241 0.22503 1.1932 0.18288 0.68004 0.23629 0.71175 0.29702 0.73388 0.50916 1.0247 0.36075 0.61473 0.52064 0.77551 0.84694 1.0458 0.78754 0.80004 2.6655 2.3808 0.52616 0.5491 0.34697 0.4144 0.38135 0.5315 0.34723 0.58879 0.29267 0.62977 0.22283 0.67352 0.10468 0.51998 0.1225 0.92649 0.10553 0.43396 0.1424 0.30277 0.37303 0.38931 0.53358 0.24626 0.54084 0.077878 0.85866-0.019601 1.8935-0.21576 1.0713-0.071112 0.54982 0.012031 0.93431 0.10965 0.61666 0.137 0.93649 0.30489 0.7078 0.29514 1.78 0.83738 0.277 0.086775 0.23682 0.02822 0.11572-0.010367 0.38512-0.20022 0.24292-0.30326 0.23013-0.47075 0.43172-1.197 0.21585-0.37185 0.25785-0.25055 0.32431-0.16284 0.30733-0.078289 0.35381-0.035589 0.35544 0.007803 0.48804 0.070626 0.64695 0.19119 0.4463 0.19337 0.48012 0.26924 0.49998 0.38014 0.41249 0.45024 0.25983 0.40844 0.28767 0.67472 0.14071 0.52081 0.11273 0.8307-0.032485 1.2211-0.20348 1.2962-0.45224 1.8015-0.32474 1.0498-0.40908 1.1519-0.44986 1.1143-0.39737 0.90202-1.4085 2.9905-0.40284 0.91539-0.30127 0.76519-0.36319 1.1756-0.13559 0.67617-0.13771 1.3358-0.1904 4.9303 0.016607 0.91218 0.066844 1.0346 0.12629 1.0287 0.28878 1.3664 0.1688 0.54832 0.57581 1.3504 0.74764 1.3025 0.83016 1.2099 0.90431 1.1861 2.4022 2.9794 0.9815 1.3057 0.88316 1.3433 0.44948 0.79768 0.77846 1.5422 1.287 2.7527 0.61536 1.4581 0.33826 1.0702 0.19009 0.77801 0.1548 0.79676 0.12922 0.87472 0.092648 0.88935 0.081671 1.8305-0.090206 3.9129 0.00914 2.5441 0.10406 3.3301 0.12721 1.6618 0.13788 1.0334 0.26947 1.2836 0.2939 0.93644 0.45523 1.0917 0.53737 1.0582 0.59491 1.0274 1.6741 2.6153 0.75321 1.0644 1.0427 1.384 3.7657 4.7112 0.89734 1.2176 0.82952 1.2476 0.72899 1.2882 0.58822 1.3424 0.32948 1.0633 0.23664 1.0972 0.14301 0.99344 0.089641 1.0118 0.04718 1.2087-0.003694 1.2263-0.12429 2.5981-0.6539 7.7474-0.10537 1.7275-0.058964 1.719-0.003726 1.2111 0.036788 1.1952 0.22944 3.1745 0.029417 1.5206-0.14869 1.4585-0.18637 0.77485-0.25373 0.73978-0.36945 0.82155-0.41672 0.74104-0.39823 0.59059-0.3823 0.47733-0.3698 0.36429-0.25408 0.12427-0.32481-0.28341-0.45399-0.83637-0.50975-1.1574-0.9748-2.4913-0.33137-0.74735-0.32333-0.63514-0.55704-0.88113-0.48504-0.57272-0.54957-0.47031-0.70915-0.39603-0.89438-0.29937-0.79436-0.15505-0.95834-0.10128-0.95788-0.039949-2.2109 0.039993-3.3775 0.19975-6.989 0.53665-3.6736 0.22466-2.4991 0.075083-3.2392-0.054215-1.0139 0.019017-0.9429 0.068266-0.85514 0.12258-0.6896 0.1557-0.87589 0.28829-0.93062 0.41394-0.92123 0.51319-0.64582 0.42306-0.74484 0.56343-0.93878 0.8696-0.84069 0.99956-0.70984 0.97398-0.62158 1-0.93125 1.8449-0.20921 0.37839-0.38284 0.59514-0.55787 0.67811-0.9246 0.78281-0.94798 0.55584-0.81201 0.36112-0.82915 0.30622-0.7565 0.24178-3.0544 0.84315-0.82603 0.26422-4.6592 1.7735-0.82049 0.32548-1.3792 0.59926-0.68936 0.33436-1.5016 0.82124-4.4365 2.6999-5.0611 2.9922-2.193 1.2656-1.5497 0.82747-0.37066 0.21107-0.84455 0.31815-1.1631 0.34735-1.6062 0.35073-1.1464 0.15635-1.0226 0.063668-1.4111-0.04564-1.054-0.14717-0.78966-0.18715-0.54798-0.17858-0.63058-0.26733-0.77791-0.43557-0.7485-0.5959-0.55362-0.64273-0.46768-0.73443-0.45472-0.90975-1.5979-3.9202-1.1703-2.5915-0.62159-1.2629-0.64118-1.2202-0.64702-1.1235-0.70906-1.0345-0.8186-0.90928-0.31826-0.27936-0.90327-0.64456-0.99613-0.55099-1.0265-0.46327-1.076-0.415-1.1293-0.38815-3.616-1.1723-1.7582-0.65615-1.0592-0.45934-3.8923-1.8767-1.5113-0.67119-1.5008-0.55911-1.2132-0.3379-0.85443-0.16258-1.1079-0.12659-0.9696-0.042248-1.4665 0.048203-0.75511 0.081949-0.7348 0.12407-0.73332 0.1759-0.89646 0.2937-1.9642 0.79102-0.70436 0.24874-0.73856 0.18265-0.74684 0.065721-0.25565-0.009191-0.37489-0.041083-0.8839-0.19968-1.3393-0.45584-5.6856-2.1788-0.89201-0.29325-1.001-0.22071-2.2755-0.26256-0.51896-0.085049-0.61827-0.14518-0.76557-0.26348-0.75347-0.34542-0.51362-0.27282-4.7141-2.7522-1.6823-0.91544-1.3548-0.61942-1.4323-0.45353-0.22448-0.096202-0.2056-0.12629-0.21972-0.21087-0.18827-0.29063-0.2586-0.67676-0.17803-0.81204-0.098036-0.72829-0.082602-1.1752-0.005402-1.5291 0.057444-1.1291 0.19707-2.1558 0.059248-1.0393-0.049308-0.97325-0.2384-0.85089-0.34077-0.52636-0.46542-0.43162-0.75292-0.42698-0.8673-0.2954-0.88417-0.17022-0.91952-0.034411-0.86542 0.11015-0.62568 0.13941-0.6323 0.18104-0.73712 0.26409-0.88195 0.41992-1.0396 0.64571-1.2804 0.87749-0.99697 0.62032-1.066 0.54849-0.70181 0.28796-1.1413 0.36179-0.80742 0.18299-0.94485 0.14487-0.73479 0.065886-0.99402 0.031678-1.3991-0.051594-1.5025-0.145-4.0177-0.57617-1.598-0.18775-1.5191-0.063639-0.88422 0.05566-1.1703 0.25816-0.86144 0.42984-0.2856 0.21912-0.51368 0.52794-0.45689 0.64619-0.59163 1.1328-0.55564 1.382-0.28036 0.80323-0.34959 1.1086-0.81742 2.9996-0.11509 0.32508-0.16927-0.070463-0.40888-0.24455-1.4963-0.9599-0.98411-0.76246-0.57585-0.54434-0.48297-0.53622-0.52394-0.67319-0.44636-0.65331-0.40637-0.65867-1.3695-2.384-0.3252-0.49115-0.41222-0.55203-0.57073-0.64655-0.56541-0.52222-0.62257-0.45297-1.2043-0.58952-1.3153-0.39813-1.3774-0.28274-2.7778-0.47955-1.3269-0.31524-1.2421-0.40808-1.2663-0.46462-1.213-0.52822-2.0058-1.1114-1.9966-1.0142-0.7071-0.39925-1.8749-1.2368-0.59491-0.34031-0.74099-0.35282-0.43112-0.16544-0.66781-0.20353-0.67467-0.14881-0.55915-0.083178-0.79765-0.052537-0.78778 0.040794-0.68035 0.1338-0.61369 0.21877-0.69912 0.34805-0.75743 0.46689-0.73674 0.52243-0.72473 0.57362-0.62599 0.54238-1.3804 1.3406-1.2456 1.3721-0.90438 1.1238-1.753 2.42-0.62844 0.80214-0.69837 0.80103-0.6534 0.67642-0.76418 0.72162-0.78484 0.68808-2.4266 1.9968-1.6499 1.4104-1.1918 1.1201-0.67886 0.68366-1.4822 1.5576-2.4011 2.6028-1.5403 1.7274-1.063 1.2772-0.50695 0.67344-0.46904 0.68327-0.47516 0.77631-0.43631 0.811-0.85052 1.7202-0.97162-0.37304-1.2727-0.55472-1.8225-0.84782-2.2395-1.1364-1.2675-0.69351-1.8918-1.0988-1.2753-0.79366-1.2001-0.78904-3.9432-2.719-0.98039-0.62097-1.0159-0.58758-1.0156-0.53098-1.1654-0.54687-1.3969-0.58213-1.7295-0.64762-2.9744-1.0553-1.3746-0.52428-1.3177-0.56706-0.96319-0.48366-0.54793-0.31356-1.1837-0.79081-2.0922-1.565-0.74231-0.51125-0.78631-0.46367-0.6021-0.3167-1.3666-0.6413-0.98846-0.37651-0.99507-0.31646-2.0295-0.56249-0.80472-0.27545-0.9987-0.44228-0.69789-0.39673-0.65783-0.46502-0.7878-0.71295-0.7182-0.7976-1.5804-2.0283-0.91855-0.99171-0.5956-0.49143-0.78507-0.53341-0.82535-0.4732-3.6824-1.8442-2.3936-1.3169-1.5595-0.98081-0.75463-0.53667-0.46502-0.36147-0.91498-0.78704-0.61712-0.59118-0.48063-0.5085-0.86937-1.0733-0.72206-1.091-1.5327-2.696-0.3929-0.61794-0.36217-0.4943-0.6761-0.77904-0.51313-0.51604-0.57714-0.52046-0.5474-0.40284-0.65518-0.36108-0.77497-0.31391-1.6543-0.50363-0.5144-0.1783-0.39697-0.17603-0.6157-0.42424-0.35232-0.44034-0.22917-0.64153-0.074122-0.74277 0.038201-1.624 0.07212-0.83118 0.37881-2.4289 0.12067-2.505 0.067349-0.71096 0.12788-0.71431 0.2395-0.80615 0.3282-0.8101 0.44159-0.89373 0.42695-0.74388 0.48753-0.75111 0.58785-0.80298 0.83413-1.0044 0.99716-1.0596 1.3348-1.2746 2.4222-2.1574 2.8442-2.9555 0.658-0.5908 0.52345-0.40951 0.59674-0.41499 0.75241-0.45776 2.5722-1.2938 1.3707-0.62635 0.96355-0.40187 3.1097-1.1262 1.0829-0.55432 1.0279-0.67016 0.83427-0.65262 0.71168-0.65279 0.53609-0.5905 0.30048-0.44148 0.040635-0.17614-0.016215-0.077847 0.040462-0.51146 0.21598-0.59382 0.36356-0.56684 0.50116-0.43358 0.48674-0.19498 0.59463-0.062605 0.66604 0.077572 1.6187 0.35051 0.71629 0.11589 0.7792 0.070461 0.78272-0.006628 0.92941-0.12887 0.89038-0.21895 1.6844-0.54011 0.72337-0.36929 0.5708-0.55037 0.34678-0.69245 0.097599-0.85508-0.17534-1.785 0.015646-0.81713 0.25268-0.68302 0.50939-0.4976 2.0328-1.2542 0.72618-0.37133 0.78363-0.33303 0.7662-0.26204 0.78278-0.21956 1.8197-0.44155 0.82997-0.265 0.73484-0.35962 0.67972-0.55837 0.52174-0.67621 1.0837-2.1066 0.50028-0.78532 0.57421-0.74054 0.6443-0.64693 0.71372-0.49984 0.74033-0.29909 0.7622-0.1372 0.86736 0.004299 1.5146 0.15952 0.79951 0.023836 0.79491-0.058548 2.0102-0.25452 1.7365-0.067035 0.39126 0.021372 0.28241 0.048688 0.39139 0.13855 0.33012 0.18567 0.39302 0.28036 0.34352 0.17146 0.20673 0.029899 0.24488-0.026259 0.34714-0.1207 0.47758-0.26062 0.54658-0.37106 1.8747-1.379 0.70435-0.42901 0.82081-0.39424 1.3068-0.40282 1.4129-0.2289 1.4734-0.085853 1.4929 0.03713 1.4736 0.14994 1.4144 0.26183 1.3118 0.38165 1.0678 0.43427 2.3496 1.023 0.93342 0.45849 1.5234 0.83114 0.83837 0.34597 0.84639 0.21744 0.82379 0.055119 0.46829-0.056662 0.65611-0.19504 0.67213-0.39084 0.581-0.52945 0.48124-0.61681 0.94836-1.6425 1.4499-2.336 0.40855-0.71235 0.36406-0.7295 0.22994-0.5836 0.26155-0.86336 0.58261-2.614 0.2254-0.67005 0.17953-0.3771 0.2133-0.3476 0.48261-0.56872 2.1651-1.8879 1.9677-1.9081 0.83215-0.96103 0.31014-0.44964 0.45806-0.83114 0.30787-0.72831 0.35219-1.0546 0.29834-1.0471 0.25136-1.1027 0.1501-0.93474 0.099517-0.95369 0.14067-2.7171 0.12038-1.3173 0.1643-1.1483 0.17986-0.84116 0.17377-0.3373 0.17031-0.002743 0.64762 0.16182 0.97183 0.28926 3.7065 1.2653 1.3165 0.359 1.3052 0.22912 1.2195 0.068628 2.6997-0.004782 6.2683 0.14461 1.6266-0.051084 1.5805-0.21611 1.0716-0.28783 1.0439-0.38855 1.0177-0.46873 0.92818-0.49593 1.0528-0.63074 2.1055-1.3771 1.2848-0.89893 1.2261-0.97411 0.86879-0.80423 0.8143-0.85216 0.69759-0.8103 0.83406-1.0789 0.44834-0.63706 0.82312-1.3259 0.36053-0.6862 0.77462-1.7422 0.51963-1.0939 1.906-3.6949 0.98954-1.9933 0.63539-1.3902 0.5656-1.3943 0.4284-1.2789 0.30977-1.2708 0.12773-0.88837 0.03621-0.87694-0.060596-0.8455-0.13124-0.83695-0.81528-3.6014-0.13365-0.78056-0.087246-0.99066-0.008708-0.40601 0.056596-1.7013 0.062944-0.36196 0.15255-0.3988 0.23308-0.31001 0.31885-0.25158 0.79937-0.2778 0.55781-0.023755 0.46351 0.042671 0.73748 0.14486 1.0549 0.30388 4.6412 1.5872 3.9977 1.431 4.5165 1.4712 1.5338 0.56039 0.78864 0.31844 2.036 0.92263 0.48921 0.15668 0.57944 0.10873 0.64565 0.028856 1.2002-0.11026 1.2568-0.20014 1.159-0.27714 1.0882-0.39441 2.7464-1.2593 1.7955-0.72039 3.3268-1.4107 0.9653-0.29273 0.55427-0.0872 0.55655-0.009493 0.35763 0.035191 0.6678 0.13702 0.44706 0.13404 2.2842 0.90277 1.0867 0.35871 1.3131 0.32678 1.1102 0.21426 0.57235 0.085917 1.1625 0.11286 3.7462 0.15867 1.0455 0.067891 1.4815 0.15786 0.57871 0.08763 1.2817 0.25582 1.0265 0.25852 1.377 0.40594 2.2624 0.77144 4.0126 1.4562 0.68768 0.22026 0.83213 0.22117 0.45055 0.089696 0.90415 0.099181 1.1014-0.029888 1.0605-0.20554 0.60269-0.21529 0.65807-0.32668 0.55865-0.35399 0.6024-0.45903 2.0591-1.8412 0.89464-0.76119 1.7282-1.3438 0.7866-0.67013 0.73269-0.76732 0.52867-0.6758 0.36926-0.5508 0.43109-0.767 0.34557-0.80496 0.3098-1.1315 0.17219-1.1708 0.17576-2.3058 0.17594-1.158 0.31064-1.0958 0.27749-0.72584 0.42662-0.93083 0.47145-0.88743 0.59141-0.99862 0.56799-0.88804 1.8732-2.7727 0.76664-1.2137 0.57548-1.0053 0.51099-1.0014 0.47793-1.074 0.40676-1.0624 0.31203-0.938 0.44949-1.5736 0.96682-3.7953 0.29971-1.0649 0.64014-2.0629 0.58836-1.751 0.48796-1.2339 0.36253-0.78726 0.53525-0.89232 0.3712-0.28786 0.1808 0.18769 0.50601 0.075663 0.35688-0.006246 0.56718-0.057022 0.83975-0.14158 0.92936-0.19865 3.8856-0.92114 1.1729-0.22505 1.4817-0.20151 1.6436-0.094704 2.6288-0.051168 1.438-0.062125 4.9411-0.40841 5.1683-0.35002 1.5856-0.058579 1.7607-0.021926 1.5874 0.031262 1.05 0.06008 0.81639 0.076796 1.2505 0.19354 1.0495 0.25762 0.86754 0.30593 0.84257 0.42737 0.88746 0.68202 0.62062 0.6626 0.69453 0.97691 0.48592 0.88452 0.23689 0.517 0.26472 0.67292 0.21063 0.65119 0.22127 0.97374 0.10325 0.94773 0.12149 3.0014 0.072648 0.63701 0.098399 0.51792 0.14514 0.50165 0.12838 0.32182 0.40865 0.70392 0.54043 0.63482 0.8019 0.67794 1.0591 0.63156 3.7414 1.6929 0.8947 0.48378 0.88021 0.54181 1.0508 0.74193 0.99347 0.82148 0.7791 0.76046 0.69641 0.81958 0.58942 0.87977 0.46673 0.9451 0.26098 0.72136 0.21463 0.83813 0.15157 1.1579-0.006682 0.79924-0.1275 0.69752-0.22746 0.30736" stroke="#bdc660"/>
    </defs>
    <g clip-path="url(#p2ca7be1263)">
     <use y="258.95053" fill="#bdc660" stroke="#bdc660" xlink:href="#m09bafbd6b6"/>
    </g>
   </g>
  </g>
 </g>
 <defs>
  <clipPath id="p2ca7be1263">
   <rect x="7.2" y="7.2" width="357.12" height="244.55"/>
  </clipPath>
 </defs>
</svg>
