<?xml version="1.0" encoding="UTF-8"?>
<!DOCTYPE svg  PUBLIC '-//W3C//DTD SVG 1.1//EN'  'http://www.w3.org/Graphics/SVG/1.1/DTD/svg11.dtd'>
<svg width="266.36pt" height="280.51pt" version="1.1" viewBox="0 0 266.36 280.51" xmlns="http://www.w3.org/2000/svg" xmlns:xlink="http://www.w3.org/1999/xlink">
 <metadata>
  <rdf:RDF xmlns:cc="http://creativecommons.org/ns#" xmlns:dc="http://purl.org/dc/elements/1.1/" xmlns:rdf="http://www.w3.org/1999/02/22-rdf-syntax-ns#">
   <cc:Work>
    <dc:type rdf:resource="http://purl.org/dc/dcmitype/StillImage"/>
    <dc:date>2024-07-04T12:11:22.887698</dc:date>
    <dc:format>image/svg+xml</dc:format>
    <dc:creator>
     <cc:Agent>
      <dc:title>Matplotlib v3.7.1, https://matplotlib.org/</dc:title>
     </cc:Agent>
    </dc:creator>
   </cc:Work>
  </rdf:RDF>
 </metadata>
 <defs>
  <style type="text/css">*{stroke-linejoin: round; stroke-linecap: butt}</style>
 </defs>
 <g id="figure_1">
  <g id="patch_1">
   <path d="m0 280.51h266.36v-280.51h-266.36v280.51z" fill="none"/>
  </g>
  <g id="axes_1">
   <g id="PatchCollection_1">
    <defs>
     <path id="ma73ae3a9ff" d="m152.93-246.73 0.13414 0.56842 0.55796 2.012 0.12686 0.55336 0.14222 0.7941 0.083211 0.72335 0.02786 0.43878 0.011409 0.43377-0.009615 0.60585-0.070369 0.97079-0.061396 0.47938-0.072091 0.40086-0.13853 0.54188-0.13734 0.39618-0.21894 0.49414-0.15178 0.28223-0.17436 0.28527-0.28146 0.40047-0.17019 0.21546-0.33161 0.36555-0.32511 0.30359-0.38063 0.30229-0.41414 0.27524-0.30144 0.16987-0.26432 0.12944-0.45184 0.18102-1.1854 0.36252-0.29883 0.10803-0.34109 0.16604-0.18877 0.12782-0.094261 0.084923-0.11378 0.15763-0.026075 0.071126-0.008365 0.098933 0.031472 0.099411 0.042419 0.055515 0.088743 0.064682 0.13232 0.052271 0.35349 0.072168 6.3375 0.99726 0.57336 0.053881 0.59732 0.016213 0.46127-0.015669 0.8932-0.077432 1.2924-0.16247 1.0944-0.17974 0.89876-0.17786 0.85847-0.21067 0.8743-0.25219 0.88239-0.27979 1.7755-0.61258 5.6422-2.1015 0.74882-0.23418 0.76695-0.1949 0.77627-0.16006 0.77697-0.12742 0.7689-0.094771 0.51954-0.04484 0.6362-0.028604 0.6113 0.005848 0.5782 0.044942 1.3308 0.20886 0.37046 0.030814 1.0236 0.015015 1.2859-0.06137 1.481-0.1534 2.3898-0.35547 0.82534-0.096293 1.6778-0.12506 2.6691-0.15243 1.5953-0.1448 2.5395-0.29903 1.7196-0.22393 0.95161-0.14543 1.282-0.2273 1.2902-0.26466 0.93554-0.21473 0.85063-0.21581 0.81564-0.22984 0.88596-0.27918 0.6713-0.23679 1.1321-0.45283 0.73709-0.32129 0.7044-0.34852 0.65485-0.39296 0.58523-0.45736 0.26813-0.26674 0.25476-0.2917 0.30191-0.38524 0.86985-1.1809 0.35914-0.42746 0.46829-0.45515 0.38295-0.28091 0.29274-0.16651 0.42782-0.18693 0.39416-0.12545 0.47687-0.10396 0.33736-0.049348 2.3889-0.20695 2.8185-0.30581 0.49027-0.036623 0.81877-0.02813 0.57474 0.003101 0.98145 0.046664 0.9556 0.10861 0.7369 0.17963 0.66794 0.31798 0.46181 0.38973 0.39818 0.49048 0.35172 0.56755 0.28145 0.54469 0.2657 0.57764 0.93515 2.2197 0.37185 0.83862 0.39572 0.82132 0.36018 0.67642 0.38109 0.64562 0.40139 0.60586 0.47991 0.65234 0.4587 0.66788 0.36786 0.6843 0.31949 0.75335 0.28049 0.80908 0.24858 0.85201 0.22152 0.8816 0.249 1.1537 0.18131 1.0348 0.13786 0.98639 0.097689 0.86763 0.079789 0.89893-0.048738 0.21955-0.022769 0.58076 0.015627 1.7338 0.042911 0.99761 0.072097 1.0219 0.31535 3.0807 0.042159 0.94782-0.044032 0.88986-0.16852 0.8195-0.29549 0.6955-0.39691 0.63308-0.45785 0.58009-1.2643 1.3817-0.44801 0.59351-0.31153 0.5255-0.27596 0.5505-0.52275 1.114-0.58564 1.1399-0.26043 0.5878-0.077489 0.22638-0.093179 0.39462-0.019077 0.6125 0.1147 0.60298 0.22713 0.56604 0.3261 0.49902 0.34179 0.35469 0.29075 0.24706 0.3109 0.22064 0.34732 0.19786 1.0684 0.5141 0.69587 0.28578 0.28348 0.15777 0.21732 0.1985 0.15193 0.37964-0.028365 0.34166-0.13655 0.3789-0.33679 0.57253-0.46836 0.61249-0.56564 0.64269-0.63744 0.66582-1.4214 1.3826-1.5484 1.4329-2.4793 2.2176-4.8751 4.188-1.1054 0.96449-0.16481 0.16041 0.90987 1.0721 1.0311 1.273 0.64718 0.82161 0.94963 1.2752 0.73139 1.0645 1.4511 2.2149 0.51437 0.75638 1.7462 2.4889 0.73744 1.1033 0.95756 1.5439 2.8176 4.7668 1.5415 2.506 3.1678 4.9905 9.0631 14.123 1.6072 2.5274 1.0545 1.704 0.5133 0.85989 0.49638 0.86612 0.47037 0.87297 0.43129 0.88012 0.37375 0.88706 0.29075 0.89285 0.17379 0.89608 0.014009 0.89463-0.10376 0.61884-0.14093 0.49341-0.12616 0.35059-0.30195 0.69106-0.39025 0.73825-0.29286 0.4764-0.17834 0.25949-0.30623 0.39808-0.42012 0.46288-0.36926 0.33533-0.22497 0.12944-0.036483-0.23383-0.20269-0.19699-0.33376-0.13084-0.57698-0.025935-0.69985 0.11329-0.7804 0.20982-4.1432 1.3309-1.0825 0.31934-0.75882 0.19078-0.55052 0.11382-0.88317 0.13793-0.54875 0.061586-1.0075 0.068068-0.53439 0.00651-0.52723-0.020701-0.76-0.092776-0.73757-0.17734-0.72456-0.24045-2.1554-0.83112-0.72571-0.23694-0.72954-0.18297-0.73351-0.10653-0.47411-0.017758-0.47373 0.022761-0.53803 0.072543-0.53473 0.11404-0.64384 0.18128-0.44792 0.14779-0.80301 0.30082-2.0753 0.90093-1.4384 0.60204-0.6945 0.31014-0.65687 0.32988-0.57386 0.33726-0.52008 0.34802-0.44675 0.3399-0.36364 0.3562-0.24988 0.39577-0.1234 0.54128 0.007982 0.61739 0.063038 0.57989 0.27968 1.9036 0.23672 2.0509 0.031767 0.4647 0.017397 0.82355-0.022584 0.71815-0.055632 0.73546-0.1175 0.94723-0.29683 1.7207-0.34218 1.7161-0.39233 2.5084-0.045355 0.52995 0.023519 0.58139 0.18501 1.3131 0.088242 0.95495 0.099352 0.36095 0.42343 0.79969 0.066249 0.28911-0.008463 0.27478-0.035027 0.15709-0.05224 0.14866-0.14254 0.27562-0.15758 0.22459-0.15213 0.18062-0.27381 0.24968-0.2904 0.18394-0.40928 0.18092-0.47338 0.14026-0.47922 0.068666-0.45957-0.031345-0.20157-0.056615-0.16066-0.064616-0.37375-0.2067-0.82851-0.55986-1.0122-0.53693-0.31258-0.21038-0.31221-0.2514-0.15749-0.14309-0.47414-0.50882-0.94858-1.1645-0.50757-0.56755-0.53102-0.53951-0.53723-0.49928-0.24068-0.20714-0.3652-0.28053-0.37249-0.24095-0.37344-0.19269-0.30034-0.11536-0.36591-0.084794-0.35311-0.013935-0.32639 0.057701-0.30591 0.11233-0.28803 0.1571-0.28688 0.20724-0.60949 0.49263-0.3989 0.27796-0.44863 0.2768-0.48774 0.2765-2.2545 1.1841-0.68044 0.37673-0.66291 0.39976-0.70253 0.48509-0.63807 0.53928-0.5451 0.61254-0.44657 0.7359-0.22447 0.50574-0.18805 0.53151-0.1484 0.51936-0.15731 0.68336-0.097711 0.51914-0.12545 0.83997-0.10823 0.95091-0.094167 1.0503-0.10865 1.5646-0.10982 2.4162-0.067544 2.9435-0.077497 0.66754-0.12538 0.54548-0.11143 0.35761-0.25146 0.60698-0.21893 0.39966-0.16797 0.25836-0.24103 0.31603-0.27595 0.30369-0.89284 0.80952-0.25979 0.27263-0.21084 0.29075-0.12119 0.23038-0.14404 0.38378-0.11419 0.46465-0.064318 0.41334-0.036911 0.38461-0.022692 0.50109-0.011379 2.2375-0.022506 0.46628-0.072704 0.73983-0.061817 0.37213-0.091527 0.39337-0.1706 0.51338-0.14428 0.33104-0.16927 0.32928-0.43958 0.71434-0.31304 0.44216-0.462 0.58157-0.48748 0.52644-0.30551 0.28674-0.44553 0.35707-0.41655 0.24734-0.31005 0.070086-0.12634-0.068781-0.045925-0.14857 0.016856-0.12927 0.063904-0.19321 0.23107-0.46906 0.85001-1.4434 0.26202-0.53158 0.21527-0.48112 0.18939-0.50185 0.21258-0.78489 0.13113-0.69015 0.10436-0.89417 0.045657-0.66654 0.037134-1.1432 0.004936-0.95724-0.018042-0.72778-0.056835-1.0085-0.07188-0.70138-0.42399-3.0429-0.13599-0.48753-0.086537-0.15772-0.089039-0.11324-0.13163-0.11286-0.15765-0.078817-0.1947-0.037621-0.23954 0.022111-0.277 0.10243-0.31531 0.21442-0.26818 0.275-0.60424 0.78428-0.24497 0.35992-0.97774 1.5731-0.36537 0.512-0.27263 0.31625-0.29226 0.27208-0.20392 0.1495-0.13906 0.083961-0.3808 0.16254-0.41028 0.080089-0.40832-0.008379-0.30881-0.066921-0.29115-0.11795-0.38973-0.27114-0.22329-0.2505-0.18032-0.30275-0.14114-0.37561-0.090489-0.39449-0.052571-0.37414-0.03603-0.53013 9.27e-4 -0.43835 0.0579-0.69285 0.25331-1.5009 0.1005-0.71631 0.06902-0.67323 0.034282-0.52976 0.013855-0.71513-0.021092-0.61527-0.084156-0.80092-0.14455-0.69992-0.20932-0.60893-0.19268-0.37137-0.15496-0.22168-0.1821-0.203-0.26672-0.22313-0.28976-0.17333-0.37226-0.14794-0.35148-0.07697-0.28772-0.027926-0.3713 0.004388-0.30806 0.036799-0.32135 0.06566-0.38438 0.10912-0.39724 0.14077-0.46761 0.19371-0.40495 0.19032-0.57118 0.3133-0.3807 0.23843-1.1923 0.81001-0.7946 0.51589-1.8548 1.0983-1.3301 0.76092-0.30747 0.19687-0.23234 0.1736-0.19984 0.18052-0.22175 0.25968-0.28242 0.5182-0.13774 0.56776-0.031113 0.71578 0.066218 0.74939 0.25175 1.4794 0.20271 0.9136 0.39924 1.6656 0.45122 2.1554 0.26613 1.1942 0.13276 0.71575 0.069501 0.64167-0.011648 0.62029-0.047718 0.30422-0.15844 0.56735-0.14725 0.37914-0.17583 0.3782-0.17566 0.32198-0.38483 0.57767-0.79772 1.1008-0.39393 0.53199-0.2253 0.27542-0.30266 0.34245-1.0697 1.1207-0.26245 0.32866-0.13253 0.21104-0.13646 0.26352-0.37324 0.88062-0.21216 0.42243-0.2707 0.42846-0.78992 1.1489-1.029 1.5692-1.0159 1.5993-0.8758 1.4288-0.1324 0.19396-0.31192 0.54855-2.5534 4.575-1.2203 2.1293-1.011 1.6908-0.50105 0.79386-0.50033 0.74837-0.50221 0.69126-0.50749 0.61874-0.51714 0.52602-0.53234 0.4071-0.55458 0.2547-0.50946 0.079909-0.53556-0.013665-1.1665-0.11276-0.5078-0.017543-0.5301 0.005275-2.1053 0.10519-0.84895 0.028019-0.92197-0.002487-3.8099-0.10947-3.5963-0.20129-0.9485-0.015656-1.3153 0.011506-1.317-0.011179-0.88907-0.037196-1.5057-0.092538-0.59426-0.004902-0.58546 0.029248-0.44677 0.047684-1.3842 0.20971-0.66991 0.055871-2.3913 0.098709-1.8526 7.4e-5 -0.63007 0.023795-1.2746 0.10911-3.7373 0.44236-1.0223 0.07817-0.99028 0.020672-0.25584-0.017584-0.011644-0.016905-0.22372-0.054886-0.32595-0.018753-0.40136 0.008281-0.66552 0.067956-0.61486 0.165-0.53833 0.28308-0.16845 0.1367-0.29008 0.32591-0.2716 0.47418-0.14292 0.49713 0.01545 0.48129 0.05355 0.17047 0.11292 0.22251 0.11813 0.1717 0.18954 0.22779 1.0779 1.113 0.20521 0.22708 0.23189 0.29347 0.21251 0.34333 0.096561 0.20693 0.1069 0.30235 0.11076 0.47915 0.051262 0.34912 0.057616 0.58406 0.033549 0.66531 0.030721 1.7217-0.030131 0.49759-0.055261 0.37089-0.08383 0.34824-0.38792 1.0805-0.094649 0.39072-0.026744 0.25301 0.052382 0.58028 0.054588 0.22234 0.16497 0.49706 0.20855 0.51451 0.93424 2.1932 0.10926 0.22624 0.25065 0.43573 0.21476 0.30052 0.54861 0.64137 2.6859 2.8506 1.0265 1.1389 0.55854 0.66892 0.5774 0.73841 0.4655 0.63354 0.49141 0.71252 0.47204 0.74415 0.42832 0.75274 0.27788 0.54463 0.21415 0.47754 0.28618 0.77738 0.18755 0.66079 0.10355 0.47705 0.12231 0.75544 0.087527 0.74147-0.52542 0.10484-1.5114 0.24081-3.288 0.62727-0.53576 0.080947-0.80092 0.093557-1.302 0.10512-0.99191 0.050587-3.5885 0.12092-0.96956 0.014898-0.98944-0.030464-0.67905-0.067049-0.58463-0.095153-0.83542-0.17134-0.92951-0.16309-1.1192-0.15602-0.67252-0.06963-0.74274-0.035256-1.3584-0.027332-1.4282-0.080229-2.0494-0.006682-0.71969-0.055281-0.47949-0.063641-0.60778-0.12222-0.36189-0.097725-0.41307-0.14379-0.41113-0.20105-0.48514-0.35991-0.33703-0.32982-0.43994-0.5062-1.396-1.7987-1.4255-1.7831-0.54564-0.7554-0.30538-0.46397-0.28726-0.47582-0.44756-0.85832-0.28754-0.68031-0.27474-0.84744-0.19917-0.89011-0.12371-0.84568-0.08982-0.99296-0.12495-2.7346-0.055259-0.49027-0.12979-0.34295-0.17654-0.10086-0.15078 0.025393-0.16176 0.096641-0.13352 0.11451-0.25032 0.26174-0.64377 0.78702-0.71298 0.94448-0.59612 0.81958-1.002 1.443-3.3532 5.0121-1.9684 2.8781-1.269 1.7399-0.84226 1.0783-0.57024 0.68425-0.48848 0.54967-0.7485 0.76818-0.75012 0.68211-0.78834 0.64905-0.81217 0.61844-0.81805 0.58567-1.5462 1.0343-1.288 0.81526-0.022442-0.034526-0.19192-0.06911-0.8453-0.15668-1.8944-0.23315-2.1745-0.21567-6.5297-0.58848-1.9185-0.21159-0.93449-0.12392-0.91513-0.14261-0.89213-0.16849-0.86383-0.20389-0.82817-0.25176-0.78261-0.31576-0.72405-0.40036-0.64369-0.49149-0.58482-0.57276-0.53578-0.63412-0.29152-0.38971-1.428-2.1173-0.53488-0.7159-0.35632-0.41928-0.30702-0.32494-0.68566-0.63249-0.73178-0.58854-1.9323-1.4056-0.81222-0.62581-0.57562-0.50521-0.52884-0.52302-0.47628-0.53122-0.31682-0.40212-0.1805-0.26588-0.16134-0.2835-0.12963-0.29217-0.085748-0.27219-0.076193-0.6144 0.050606-0.63465 0.14921-0.64203 0.22613-0.63638 0.28691-0.61682 0.31669-0.54812 0.41954-0.56693 0.48421-0.47073 0.55866-0.33724 0.25152-0.090036 0.30157-0.070853 0.33696-0.044015 0.38839-0.017127 0.33558 0.006603 0.66308 0.051422 1.6535 0.20469 1.0048 0.091385 0.49162 0.020918 0.45446-9.5e-4 0.76238-0.053807 0.43022-0.058549 0.63281-0.117 0.50443-0.11563 0.8508-0.22892 1.1016-0.33139 1.0602-0.35 0.58602-0.2105 0.55685-0.21713 0.58394-0.25202 0.51576-0.24798 0.43722-0.23158 0.56197-0.32809 0.45193-0.28508 1.0516-0.71316 1.7928-1.3219 1.167-0.80908 2.5901-1.7001 1.4071-0.89166 2.3956-1.4687 1.0425-0.69229 0.51501-0.38515 0.39334-0.32523 0.58025-0.54884 0.29762-0.33504 0.24615-0.33034 0.2223-0.38117 0.15104-0.37106 0.083215-0.35233 0.012098-0.68839-0.14585-0.70564-0.27106-0.70893-0.37346-0.69841-0.40397-0.59945-0.46136-0.57309-0.5109-0.53869-0.5561-0.49451-0.62922-0.46885-1.1517-0.7732-0.57854-0.36524-2.0835-1.2558-0.64665-0.411-0.64453-0.44726-0.55924-0.50148-0.31664-0.40158-0.27289-0.44729-0.21463-0.42694-0.18968-0.45361-0.25661-0.79274-1.0627-4.3078-0.31777-1.5502-0.34093-2.0551-0.099928-0.68516-0.20952-1.6771-0.2183-1.9843-0.05047-0.67632-0.005148-0.45244 0.0281-0.1375 0.15288 0.12075 0.21505 0.025985 0.17638-0.036834 0.16416-0.076524 0.15386-0.11486 0.13999-0.15229 0.10682-0.15907 0.1096-0.21987 0.080538-0.22273 0.079338-0.32801 0.03887-0.27101 0.015998-0.24832-0.025637-0.49118-0.14338-0.80291-0.023633-0.21629 0.008489-0.19726 0.045125-0.16076 0.085537-0.13669 0.097547-0.08698 0.13631-0.066636 0.22572-0.027288 0.1592 0.020824 0.68591 0.1805 0.42606 0.080142 0.304 0.033233 0.28348 0.011265 0.24014-0.011192 0.2649-0.049049 0.19674-0.083143 0.10503-0.07815 0.096025-0.12036 0.051544-0.13009 0.0159-0.13458-0.01611-0.15092-0.051737-0.15646-0.099544-0.16196-0.17962-0.17676-0.52177-0.39434-0.41432-0.3588-1.336-1.305-0.33147-0.27852-0.47362-0.34424-0.39483-0.24936-0.4057-0.23035-0.51533-0.25818-0.4485-0.19946-1.6242-0.64218-0.58467-0.27347-0.31133-0.17292-0.30057-0.1906-0.46977-0.35935-0.13203-0.11903-0.24437-0.24728-0.28554-0.33145-0.27874-0.3625-0.38017-0.55456-0.3153-0.51064-0.29822-0.51755-0.6213-1.1766-0.95886-1.9842-0.30239 0.11105-0.57299 0.085163-0.68221 0.017709-0.67226-0.089479-0.17408-0.049004-0.34872-0.13882-0.17764-0.09193-0.34827-0.2193-0.18766-0.14741-0.19803-0.20266-0.16089-0.25722-0.060789-0.17245-0.034978-0.17533-0.016328-0.22777 0.012237-0.25156 0.049739-0.29406 0.094292-0.32139 0.11507-0.29943 0.61204-1.4126 0.27564-0.7853 0.26602-1.0102 0.30755-1.4784 0.052015-0.35434 0.014315-0.39474-0.040052-0.25486-0.047071-0.13169-0.10312-0.17071-0.13679-0.13563-0.11649-0.076713-0.23963-0.10023-0.21855-0.052789-0.48847-0.046474-0.73057 0.025108-0.80228 0.090085-1.5902 0.24701-0.75686 0.14074-1.7261 0.36712-1.2398 0.21128-1.0425 0.1172-0.5363 0.029992-0.76411-0.006865-0.77899-0.097175-0.56565-0.16264-0.40067-0.1964-0.26886-0.19252-0.28753-0.29548-0.19516-0.2951-0.15392-0.34428-0.10705-0.37394-0.090739-0.76142 0.017254-0.67216 0.10611-0.85023 0.20573-1.2418 0.3991-2.0615 0.073426-0.67879 0.01746-0.49866-0.009303-0.5586-0.098724-1.2886-0.21618-2.0603-0.11938-1.5609-0.040526-0.63103-0.055752-1.6578-0.09905-1.4704-0.081008-0.59234-0.1733-0.74656-0.24434-0.74359-0.26087-0.64777-0.29573-0.64281-0.48372-0.92661-0.47101-0.78378-0.24548-0.36105-0.2155-0.29095-0.38447-0.4736-0.36746-0.41667-0.7528-0.79806-2.2717-2.3338-0.68549-0.75143-0.33507-0.40856-0.39311-0.56005-0.29677-0.56711-0.17976-0.65634 0.012461-0.60785 0.15329-0.62225 0.26151-0.63315 0.34397-0.64114 0.40637-0.64668 0.38717-0.55861 0.84838-1.1215 1.1488-1.3992 0.60144-0.69322 1.1306-1.2403 1.8367-1.9035 3.244-3.2621 1.967-2.0017 1.2562-1.3193 1.2077-1.3515 0.60137-0.73345 0.56497-0.75366 0.51521-0.77925 0.46948-0.84556 0.35954-0.76826 0.312-0.77817 0.2647-0.7787 0.21331-0.76881 0.14705-0.71283 0.077804-0.68021-0.011329-0.63193-0.12667-0.56399-0.27498-0.4718-0.50826-0.39294-0.68978-0.27206-0.92977-0.18785-0.50003-0.055281-0.52098-0.036653-0.75313-0.027279-1.4694 0.003158-1.5079 0.044029-0.22958-0.015527 2.8925-8.1714-0.19739 0.040481-1.3929 0.45605-0.98734 0.30402-1.0559 0.29694-1.0439 0.25704-1.0307 0.20601-0.99434 0.13473-0.93867 0.040111-0.86437-0.083214-0.76975-0.2427-0.61192-0.38775-0.53893-0.51475-0.48908-0.60385-0.60297-0.88374-1.3114-2.1367-0.62883-0.9302-0.31118-0.4061-1.3318-1.5808-0.42988-0.57058-0.33312-0.50103-0.24136-0.4329-0.27531-0.6121-0.30761-0.89102-0.18662-0.67294-0.18202-0.83187-0.047055-0.30727-0.036258-0.38249-0.007891-0.31944 0.035113-0.48492 0.11424-0.5225 0.46495-1.417 0.16568-0.61869 0.18509-0.80488 0.15769-0.93708 0.083787-0.40022 0.10218-0.3787 0.51807-1.528 0.19956-0.68946 0.096799-0.45403 0.02726-0.38728-0.015706-0.12669-0.058522-0.19904-0.23757-0.45127-0.034164-0.11886-0.003668-0.13697 0.076761-0.25418 0.088242-0.17494 0.41843-0.65889 0.15636-0.32459 0.089065-0.31228 0.05104-0.35953 7.1e-5 -0.51225-0.038084-0.31076-0.13211-0.51224-0.17467-0.38536-0.19254-0.28341-0.24073-0.24274-0.11261-0.084801-0.091317-0.059203-0.41088-0.19996-0.54666-0.18354-1.149-0.32845-0.56328-0.1902-0.42458-0.17445-0.2935-0.14129-0.42702-0.24617-0.2499-0.17446-0.22619-0.18315-0.28968-0.27493-0.31246-0.36547-0.25087-0.41252-0.19602-0.46048-0.12484-0.403-0.21052-0.87147-0.16091-0.81009-0.18269-1.1063-0.10971-0.95397-0.049768-0.96579 0.020919-0.74247 0.033913-0.32551 0.054304-0.31984 0.12763-0.47307 0.25438-0.59149 0.32658-0.57557 0.87196-1.3948 0.85543-1.4115 0.68262-1.2137 0.50671-1.0019 0.63584-1.377 0.30067-0.69927 0.53503-1.3318 0.54925-1.5025 0.53928-1.6637 0.37665-1.3629 0.46009-2.1098 0.20164-0.75183 0.27658-0.71253 0.16177-0.30904 0.20222-0.32806 0.53318-0.69954 0.62184-0.66417 0.49883-0.47222 1.0744-0.92365 2.0962-1.6802 1.3206-1.1034 0.64611-0.5899 0.74326-0.74374 0.72006-0.78769 0.4091-0.47587 0.77057-0.9521 0.79161-1.0497 0.41637-0.58088 0.63409-0.92784 0.60786-0.94047 0.4911-0.79703 0.39619-0.69811 0.021863 0.037875 0.06523 0.026411 0.26082 0.049377 1.1176 0.069566 3.8993 0.094323 3.4059 0.11631 1.7578 0.02096 1.2563-0.043938 2.2358-0.14136 1.1225-0.040845 1.0216-0.017615 1.9562 0.024729 2.7348 0.087649 0.74804 0.004546 0.6456-0.033826 0.53398-0.066292 0.45467-0.094892 0.49619-0.15693 0.32194-0.14781 0.25876-0.16792 0.14576-0.12876 0.16941-0.21096 0.11992-0.24476 0.068788-0.24439 0.03823-0.24846 0.020436-0.27317 0.008046-0.48852-0.023856-0.53616-0.10561-0.82938-0.21349-1.0822-0.66365-3.0994-0.17855-0.93379-0.14381-0.92323-0.073538-0.79421-0.00996-0.50456 0.027393-0.48247 0.069415-0.44343 0.10977-0.38435 0.14494-0.332 0.27775-0.41321 0.33521-0.32358 0.27056-0.18143 0.47628-0.20754 0.53299-0.12947 0.57717-0.065259 0.59063-0.012868 0.61476 0.026583 0.63266 0.057568 0.88998 0.11741 0.90237 0.14968 1.8709 0.37451 2.4771 0.56774 0.46724 0.093724 0.45515 0.07094 0.46442 0.040212 0.44408-6.16e-4 1.4379-0.11984 0.53524-0.024008 0.71088 0.025497 1.4522 0.14827 0.72075 0.054664 0.70235-0.006262 0.67112-0.1078 0.28583-0.09144 0.67511-0.32913 0.60012-0.40079 0.59874-0.46571 0.54762-0.49682 0.46295-0.52129 0.33854-0.54171 0.15898-0.42761 0.22087-0.85555 0.16331-0.41178 0.2226-0.34632 0.2631-0.29046 0.42032-0.33769 0.27916-0.1698 0.37362-0.18176 0.56759-0.21723 1.2364-0.39636 1.4061-0.48213 0.67513-0.21245 0.60842-0.15784 0.44447-0.086445 0.42386-0.055146 0.389-0.02602 0.49323-0.004723 0.85626 0.052224 0.86622 0.11386 0.87011 0.16284 0.86808 0.20342 0.85972 0.23942 0.84412 0.27439 0.81977 0.31179 0.78441 0.35521 0.73505 0.40846 0.44028 0.29682 0.37954 0.29606 0.30743 0.27324 0.33595 0.34465 0.21501 0.25674 0.25181 0.35632 0.29926 0.52537 0.59191 1.2829 0.39557 0.75741 0.56345 1.0151 0.38634 0.54358 0.45372 0.4799 0.5159 0.38368 0.57646 0.24722 0.61697 0.081854 0.67128-0.031474 1.7401-0.21882 0.85339-0.061245 0.66097-9.62e-4 0.39909 0.023961 0.8212 0.12416 0.68455 0.21395 0.57111 0.31736 0.40829 0.39402 0.19916 0.30124 0.12182 0.29042 0.036979 0.23406-0.052655 0.17976 0.11486 0.027968 0.34599 0.019606 0.71507-0.007088 0.57755-0.038412 0.6213-0.06779 0.59926-0.088237 1.1403-0.22043 1.7965-0.44262 1.0687-0.29941 0.68325-0.20982 0.65391-0.22512 0.4574-0.17979 0.43387-0.19508 0.34469-0.17883 0.35252-0.21466 0.32098-0.23559 0.35603-0.33308 0.21505-0.26328 0.17672-0.2812 0.16487-0.38097 0.087596-0.35496 0.032308-0.48017-0.069968-0.53663-0.091351-0.32488-0.12164-0.32203-0.15594-0.33807-0.17737-0.33265-0.67666-1.0922-0.40473-0.71437-0.19794-0.44731-0.13431-0.4396-0.041358-0.3367 0.038702-0.30026 0.16968-0.30524 0.27988-0.23887 0.33293-0.17093 0.47273-0.18566 0.44359-0.15082 1.0587-0.31972 0.46886-0.12611 0.63992-0.14545 0.40474-0.06957 0.59384-0.064191 1.7932-0.057257 0.42861-0.027687 0.5582-0.063164 0.77111-0.14831 0.99054-0.26621 0.91896-0.30951 0.79785-0.30015 0.82686-0.33541 0.87526-0.38918 0.75572-0.37586 0.5165-0.28767 0.61415-0.38951 0.24427-0.18894 0.070294-0.096712 0.046138 0.024142 0.069053 0.074221 0.30965 0.40148 0.68121 0.98921 0.90763 1.3632 0.64965 0.91706 0.39114 0.48318 0.32707 0.35487 0.37939 0.3529 0.32561 0.25112 0.32833 0.20774 0.48314 0.23858 0.575 0.21003 0.598 0.16045 1.0782 0.20056 2.0209 0.29161 0.65043 0.11669 0.72615 0.18281 0.54609 0.20714 0.39231 0.20741 0.33018 0.22397 0.32598 0.2776 0.24332 0.25563 0.21097 0.27091 0.25194 0.41907 0.24641 0.60962 0.17888 0.6582 0.29608 1.4063 0.45159 2.5525 0.11692 0.57301" stroke="#bdc660"/>
    </defs>
    <g clip-path="url(#p61ca7bdac0)">
     <use y="280.512" fill="#bdc660" stroke="#bdc660" xlink:href="#ma73ae3a9ff"/>
    </g>
   </g>
  </g>
 </g>
 <defs>
  <clipPath id="p61ca7bdac0">
   <rect x="7.2" y="7.2" width="251.96" height="266.11"/>
  </clipPath>
 </defs>
</svg>
