<?xml version="1.0" encoding="UTF-8"?>
<!DOCTYPE svg  PUBLIC '-//W3C//DTD SVG 1.1//EN'  'http://www.w3.org/Graphics/SVG/1.1/DTD/svg11.dtd'>
<svg width="284.35pt" height="280.51pt" version="1.1" viewBox="0 0 284.35 280.51" xmlns="http://www.w3.org/2000/svg" xmlns:xlink="http://www.w3.org/1999/xlink">
 <metadata>
  <rdf:RDF xmlns:cc="http://creativecommons.org/ns#" xmlns:dc="http://purl.org/dc/elements/1.1/" xmlns:rdf="http://www.w3.org/1999/02/22-rdf-syntax-ns#">
   <cc:Work>
    <dc:type rdf:resource="http://purl.org/dc/dcmitype/StillImage"/>
    <dc:date>2024-07-04T12:11:24.297133</dc:date>
    <dc:format>image/svg+xml</dc:format>
    <dc:creator>
     <cc:Agent>
      <dc:title>Matplotlib v3.7.1, https://matplotlib.org/</dc:title>
     </cc:Agent>
    </dc:creator>
   </cc:Work>
  </rdf:RDF>
 </metadata>
 <defs>
  <style type="text/css">*{stroke-linejoin: round; stroke-linecap: butt}</style>
 </defs>
 <g id="figure_1">
  <g id="patch_1">
   <path d="m0 280.51h284.35v-280.51h-284.35v280.51z" fill="none"/>
  </g>
  <g id="axes_1">
   <g id="PatchCollection_1">
    <defs>
     <path id="m22d614a42d" d="m194-239.39-0.10696 0.016819-0.39064 0.16025-0.912 0.48638-1.6624 1.0518-1.2576 0.88758-0.71427 0.57319-0.56873 0.50021-1.404 1.3437-1.3011 1.2971-0.8839 0.93586-0.72256 0.83657-0.52466 0.69378-0.48087 0.76753-0.24445 0.50162-0.11153 0.30076-0.10151 0.46957 0.013064 0.41027 0.12062 0.3429 0.099322 0.14896 0.15871 0.16238 0.267 0.18437 0.53403 0.23831 0.87992 0.25714 1.2427 0.26706 4.2402 0.74965 4.1301 0.89879 1.1043 0.22065 1.289 0.20304 1.1504 0.10981 1.5333 0.05694 2.373 0.041637 1.4909 0.10728 1.2002 0.18268 0.56803 0.12835 0.62006 0.18243 0.49997 0.18998 0.44317 0.21231 0.36762 0.21836 0.55403 0.42295 0.51032 0.49513 0.77175 0.92414 2.3734 3.3618 0.70066 0.92255 0.75459 0.92472 0.80491 0.91884 0.90605 0.96639 0.81114 0.81605 4.1337 3.9233 0.563 0.58001 0.56823 0.66316 0.38192 0.54669 0.26766 0.50893 0.15514 0.4501 0.071837 0.47025 0.001382 0.19648-0.090945 0.6112-0.12841 0.40648-0.18864 0.43879-0.25556 0.47743-0.53238 0.82006-1.3642 1.815-2.1454 2.5835-0.78354 1.0144-0.61093 0.89085-0.40255 0.65678-0.32568 0.5948-0.3633 0.79002-0.14002 0.38338-0.12931 0.47677-0.062812 0.77013 0.058715 0.35864 0.33184 0.67586 0.56676 0.59731 0.822 0.58403 0.55739 0.31664 0.95684 0.46206 0.77402 0.31717 0.70957 0.23545 0.64942 0.15244 0.497 0.065949 0.75222 0.007696 0.87417-0.088801 1.5249-0.23447 0.4482-0.046497 0.65064-0.002572 0.23869 0.029758 0.45658 0.12326 0.41814 0.20067 0.52078 0.40998 0.39419 0.54196 0.19282 0.48572 0.1249 0.65041-0.016007 0.78751-0.11842 0.63477-0.23295 0.7164-0.25626 0.56977-0.29393 0.55033-1.3523 2.2268-0.60107 1.1353-0.25794 0.60794-0.21281 0.66783-0.14126 1.0278 0.031763 0.52351 0.0755 0.43378 0.26335 0.85955 0.36573 0.8074 0.45015 0.78993 0.58352 0.86018 0.44754 0.58565 6.139 7.4145 1.2183 1.5553 0.76283 1.0718 0.554 0.82488 2.215 3.5155 2.7212 4.1475 1.2082 1.7821 1.4134 1.9388 2.6015 3.2565 1.0011 1.3831 0.52563 0.83768 0.46197 0.85406 0.41768 0.87801 1.5465 3.6829 0.33887 0.73899 0.36549 0.71687 0.85357 1.4286 0.60702 0.93354 0.76644 1.0249 0.86407 0.98088 0.95869 0.91552 1.0539 0.82161 1.1518 0.69166 0.79188 0.36087 1.0732 0.37989 0.72003 0.19806 0.70805 0.15204 0.96897 0.13995 0.64739 0.057641 2.3103 0.10263 0.32228 0.050504 0.037733 0.037878-0.25216 0.025526-0.39372 0.13605-0.67734 0.33991-0.52408 0.32952-0.50938 0.37355-0.50856 0.4378-0.41997 0.44547-0.3265 0.49023-0.12622 0.45596 0.02023 0.19257 0.036692 0.1145 0.20174 0.31344 0.32412 0.28558 0.62811 0.36372 1.0753 0.48596 0.38476 0.20237 0.50828 0.321 0.30247 0.22836 0.39224 0.35241 0.3334 0.36427 0.32075 0.4232 0.30799 0.49818 0.21001 0.41838 0.24221 0.61588 0.2192 0.7896 0.16937 1.0107 0.2211 1.6904 0.29687 1.8826 0.08187 0.77961 0.011677 0.58624-0.034189 0.47708-0.060427 0.36953-0.19545 0.67198-0.12062 0.28402-0.28183 0.50275-0.29952 0.40496-0.54818 0.56276-0.3579 0.29248-2.2518 1.5577-1.8203 1.3184-1.2178 0.92377-0.8409 0.75239-0.74898 0.83947-0.41714 0.58238-0.34838 0.55505-1.0541 1.8242-0.67713 0.98333-0.35197 0.43097-0.50248 0.525-0.53503 0.44715-0.4512 0.29194-0.41147 0.20519-0.4507 0.1669-0.44572 0.11024-0.47882 0.05561-0.8138-0.056199-0.82068-0.18395-0.83383-0.23397-1.0881-0.2512-0.9939-0.084075-0.56214 0.040875-0.5747 0.10261-0.94439 0.27394-0.96904 0.37863-1.0534 0.4833-0.89259 0.44798-1.8225 0.9837-7.9655 4.4887-2.3514 1.3945-1.124 0.71844-1.0954 0.75892-1.0107 0.7896-0.69667 0.63327-0.60832 0.66368-0.40121 0.54789-0.31786 0.57704-0.31429 1.0093-0.075164 0.66927 0.006064 0.58216 0.078052 0.66815 0.11089 0.53575 0.23569 0.79432 0.39326 0.96976 0.35796 0.70566 0.50842 0.82713 0.456 0.61355 0.29827 0.35107 0.58286 0.61448 0.61942 0.54886 0.66128 0.45747 0.80052 0.38842 0.63286 0.22038 0.76937 0.16964 0.78535 0.098672 1.2716 0.099113 0.94064 0.12261 0.93241 0.24923 0.40519 0.16783 0.59912 0.31281 0.79789 0.52482 0.45241 0.36038 0.42392 0.38306 0.54721 0.55364 0.84102 0.95506 2.4223 2.9388 1.1601 1.2672 0.90572 0.87308 0.93192 0.76894 0.7648 0.51471 1.9748 1.0358 0.56169 0.36955 0.65149 0.51657 0.74642 0.70929 0.547 0.60012 0.58853 0.73911 0.47036 0.69003 0.61016 1.1177 0.34842 0.84528 0.25632 0.84659 0.15984 0.79892 0.082499 0.6427 0.054318 0.71169 0.026176 1.0021-0.00901 0.67261-0.068935 1.1238-0.073188 0.65529-0.12582 0.79977-0.14892 0.65352-0.12652 0.4206-0.26642 0.69604-0.24123 0.50833-0.32552 0.57735-0.28281 0.43409-0.60306 0.79346-0.6467 0.7325-1.0078 1.0395-1.0666 1.0281-1.3392 1.219 0.016597-0.055282-0.046343-0.1319-0.18033-0.20444-0.21773-0.17357-0.5803-0.33307-0.61781-0.25174-0.65023-0.19517-0.58794-0.13176-1.078-0.16396-1.0414-0.092711-1.3717-0.058873-1.6104-0.013973-4.3322 0.041222-2.9843-0.010666-2.5053-0.063749-4.9285-0.19269-1.8605-0.035255-1.5785 0.041981-0.94597 0.078887-0.93088 0.13313-1.297 0.29722-1.2617 0.40454-1.2246 0.49036-1.1823 0.56198-1.131 0.62578-1.0662 0.68753-0.98284 0.75272-0.87473 0.82671-0.73467 0.91504-0.54834 0.95865-0.44618 1.0178-0.80282 2.0738-0.46121 0.98796-0.57383 0.90729-0.59192 0.66543-0.68994 0.59291-0.7714 0.52786-1.1177 0.60646-0.8478 0.37825-0.8834 0.34673-1.6134 0.56074-1.8768 0.59344-6.479 1.9445-8.2271 2.6457-1.0254 0.27618-0.92497 0.16214-0.51749 0.023709-0.46993-0.051083-0.71392-0.28506-0.60599-0.43267-0.55397-0.45103-0.55319-0.34211-0.3415-0.10305-0.34111-0.023854-0.366 0.056014-1.1159 0.32261-0.61225 0.11817-2.0122 0.13948-0.62029 0.011541-0.80872-0.023972-1.9735-0.14372-1.0286-0.11037-0.49165-0.089358-0.47263-0.13472-0.4239-0.18996-0.48746-0.32456-1.1123-0.9053-0.51342-0.31925-0.58091-0.26262-0.6487-0.21211-0.81248-0.18852-0.90298-0.14174-0.85806-0.085683-1.0794-0.05328-1.7181 0.008629-5.4363 0.20461-7.5216 0.1458-4.6952 0.025049-0.97412 0.035648-1.3413 0.10853-0.74685 0.10287-0.78157 0.15213-0.68444 0.18292-0.69281 0.25201-0.55819 0.27264-0.4052 0.25295-0.82791 0.71761-0.7391 0.85061-0.72922 0.91392-0.72746 0.85749-0.7659 0.82482-0.7816 0.76368-1.3122 1.2124-0.39118 0.43013-0.31717 0.43961-0.32886 0.72-0.10916 0.61888 0.088821 0.31882-0.12833-0.026385-0.40918-0.045446-1.632-0.070151-2.0362-0.016247-3.8249 0.032923-2.8833-0.056805-1.1956-0.064653-0.92157-0.0793-0.88341-0.11214-0.83954-0.15394-0.70464-0.17901-0.6566-0.22332-0.60638-0.26793-1.2815-0.68572-0.53256-0.32741-0.50342-0.35371-0.58655-0.48619-1.2257-1.2243-0.62333-0.56159-0.3166-0.23665-0.46988-0.29849-0.64176-0.30313-0.26908-0.092849-0.6906-0.17704-1.0017-0.17028-1.6562-0.20535-2.1385-0.21939-1.2108-0.16842-1.1411-0.24517-1.5636-0.37661-0.73567-0.13325-1.0157-0.090332-0.68458-0.008331-0.69697 0.026676-1.0542 0.095915-1.0715 0.15123-1.6742 0.3158-1.6018 0.36908-2.1394 0.57174-1.7591 0.52445-8.6098 2.7732-2.2688 0.6848-1.9822 0.54692-1.5214 0.37888-1.7831 0.38135-1.7469 0.30611-2.6141 0.37506-1.3178 0.15763-2.4917 0.25229-2.3971 0.19403-2.0984 0.12079-0.87125 0.027612-2.3683-0.010063-0.80388 0.033159-1.0773 0.098609-3.8296 0.51803-0.98255 0.086412-0.67409 0.01845-0.83562-0.047485-0.75288-0.1381-0.81151-0.3067-0.40024-0.24205-0.24284-0.1822-0.23734-0.20561-0.37092-0.37688-0.59999-0.74663-0.63794-1.004-0.43432-0.85405-1.6685-3.8469-0.82394-1.6384-1.1782-2.0131-1.1752-1.9452-0.89244-1.3893-1.7645-2.6313-0.41039-0.66302-0.62417-1.1863-0.43422-1.1947-0.25427-1.2372-0.058255-1.2614 0.077443-0.83001 0.1584-0.83206 0.26067-0.94554 0.38489-1.094 0.53399-1.293 0.64013-1.4013 1.9212-3.9711 0.35685-0.78673 0.52424-1.292 0.44569-1.3637 0.2231-0.89538 0.16118-0.89458 0.10052-1.0548-0.005368-1.2579-0.087289-1.7637-0.014966-1.0785 0.025734-2.1925-0.027784-0.95266-0.078113-0.65566-0.116-0.45403-0.16372-0.35352-0.31462-0.3427-0.35233-0.14529-0.32272 0.077531-0.17381-0.69974-0.16932-0.89238-0.2742-1.77-0.14572-1.1533-0.12207-1.4768-0.005107-1.1796 0.06979-0.75739 0.17446-0.80467 0.21948-0.54047 0.20385-0.31604 0.32154-0.29693 0.32997-0.13646 0.41977 0.001578 0.45529 0.14305 0.48267 0.25301 0.47081 0.31316 0.92695 0.7285 0.92886 0.79882 3.5351 3.2256 0.89018 0.74841 0.49404 0.36285 0.65419 0.40557 0.81288 0.37921 0.6568 0.19832 0.63863 0.085075 0.6768-0.065721 0.59757-0.25191 0.53817-0.40711 0.47731-0.52528 0.40981-0.61487 0.3298-0.68276 0.23044-0.73449 0.10371-0.7745-0.059381-0.89625-0.21167-0.92599-0.32619-0.94937-0.41216-0.96873-0.47681-0.98564-0.5256-1.001-1.1526-2.0419-1.2298-2.0704-2.6163-4.2884-0.10449-0.21332 0.0877 0.047377 0.23825 0.031269 0.65172 0.02656 0.9164-0.022352 1.1395-0.10099 1.0142-0.15559 0.6221-0.13021 1.2614-0.35664 0.66828-0.24505 0.63758-0.2744 1.1164-0.59602 0.88908-0.62689 0.7708-0.7386 0.37944-0.4944 0.28077-0.47777 0.14453-0.30467 0.14738-0.3732 0.16785-0.55071 0.10017-0.44667 0.083969-0.52462 0.06271-0.65702 0.021252-1.1363-0.073726-1.2417-0.18224-1.4442-0.20967-1.2052-0.48362-2.2254-0.30365-1.1603-0.21988-0.73436-0.49233-1.3664-0.28742-0.65742-0.3401-0.68876-0.45362-0.81538-0.45852-0.74252-0.54052-0.80949-1.813-2.6222-0.38746-0.61443-1.3535-2.3605-0.72342-1.136-0.7885-1.0857-0.85099-1.0186-1.3758-1.4405-0.94152-1.0559-0.45409-0.59175-0.4009-0.59597-0.36234-0.61801-0.29417-0.57153-0.24083-0.52514-0.2925-0.73069-0.22684-0.68272-0.20116-0.75857-0.18646-0.99622-0.070566-0.61553-0.08371-1.7767-0.085861-0.93035-0.18643-0.87622-0.25812-0.786-0.37054-0.88096-0.3367-0.67223-0.33858-0.57969-0.31505-0.45275-0.28219-0.3542-0.46668-0.51238-0.79447-0.74157-0.89868-0.68855-0.97038-0.624-1.8326-1.03-2.0909-1.2392-1.0193-0.57115-1.9186-0.96202-0.65398-0.36675-0.58579-0.41711-0.42961-0.41629-0.31114-0.39439-0.27012-0.45564-0.3349-0.79788-0.12834-0.43008-0.094465-0.44256-0.08464-0.87997 0.0665-0.86766 0.022693-0.11614 0.31499-0.8734 0.45088-0.65223 0.59507-0.61481 0.48457-0.42345 1.2332-0.95939 1.4928-1.0726 2.6247-1.8058 1.7934-1.1752 1.2135-0.74332 1.1952-0.66346 0.81121-0.39242 0.7934-0.31851 0.77118-0.22418 0.90356-0.11851 0.82892 0.06348 0.55017 0.16836 0.35967 0.17936 0.24052 0.1604 0.2143 0.18049 0.31891 0.35953 0.2604 0.3848 1.5383 2.5581 1.5885 2.5536 0.76347 1.4898 0.37215 0.80606 0.28345 0.713 0.2826 0.84862 0.25012 0.96075 0.27298 1.459 0.26996 1.1525 0.2363 0.76418 0.27767 0.77555 0.24527 0.64622 0.3395 0.7759 0.32539 0.54337 0.28564 0.34295 0.24396 0.23412 0.46302 0.34878 0.4458 0.25374 0.62542 0.28689 2.1985 0.89088 1.4082 0.53751 1.5427 0.54329 0.8215 0.25568 0.9736 0.25532 0.98967 0.19476 0.70942 0.092683 0.63654 0.046683 1.0052 5.47e-4 1.1106-0.080059 1.0326-0.11666 0.74263-0.12251 0.98985-0.24467 0.79674-0.2681 3.6931-1.5434 1.0261-0.36235 0.95683-0.29056 1.0899-0.27305 0.9581-0.18712 0.92967-0.12985 1.1539-0.085523 0.93061-0.007916 1.1513 0.060192 0.66781 0.064655 2.1201 0.30499 0.74778 0.059003 0.29985-0.012975 0.31984-0.057754 0.13056-0.042927 0.30678-0.16331 0.19237-0.15735 0.14384-0.15457 0.21948-0.33521 0.13894-0.34379 0.098017-0.42791 0.04474-0.41174 0.004165-0.92144-0.057491-0.85357-0.15491-1.6038-0.046559-1.2458 0.10053-1.6525 0.015114-1.3915 0.05372-0.97226 0.11965-0.75297 0.42313-1.7783 0.19956-0.96753 0.27425-2.127 0.166-0.74685 0.12002-0.37268 0.22931-0.53066 0.2014-0.3651 0.46894-0.68855 0.82401-0.97683 1.8156-1.8648 0.67361-0.73292 0.71353-0.85427 0.61932-0.85527 0.47457-0.81367 0.22176-0.48909 0.34942-1.219 0.15143-1.2234 0.028868-1.077-0.021351-0.74584-0.10621-1.39-0.23182-1.6905-0.35448-1.7942-0.46021-1.829-1.5789-5.7306-0.52409-2.1051-0.21571-0.66352-0.23953-0.57018-0.25577-0.47003-0.12721-0.13376-0.048862-0.1468-0.10816-0.11676-0.45029-0.30058-0.64042-0.29528-0.73715-0.23112-0.57881-0.11308-0.46266-0.052517-0.74231-0.033251-2.7456 0.031927-0.69105-0.036722-0.51426-0.063453-0.70201-0.16377-0.40784-0.14461-0.62247-0.30385-0.31563-0.19639-0.3239-0.2359-0.41114-0.36058-0.26557-0.27714-0.37082-0.4535-0.45214-0.65282-0.56568-0.9058-1.4468-2.5424-0.35163-0.56637-0.60402-0.82454-0.45694-0.51968-0.46134-0.46854-0.83558-0.7355-0.79682-0.62123-1.0435-0.7582-1.0087-0.65731-0.72088-0.39791-0.7364-0.31944-0.30424-0.1019-0.58915-0.15048-0.60345-0.08339-1.0844 0.035342-0.77815 0.13999-0.81771 0.22252-0.69118 0.23245-0.8927 0.34144-3.8914 1.6764-2.45 0.96577-1.3864 0.49006-0.85716 0.27677-0.85297 0.24769-1.2342 0.30674-1.3707 0.24909-0.90339 0.083271-0.60466-0.001977-0.52328-0.064984-0.40288-0.12072-0.24333-0.12131-0.21721-0.18746-0.11574-0.24004 0.030792-0.37356 0.19439-0.44571 0.28156-0.46726 0.38175-0.52991 0.60523-0.72576 1.9567-2.1499 0.42363-0.52505 0.42444-0.59056 0.30808-0.49527 0.32367-0.62068 0.24769-0.57497 0.30958-0.92743 0.15958-0.69228 0.076097-0.49922 0.063119-0.74312 0.031445-0.97783-0.022124-1.3541-0.19188-2.7509-0.013275-0.81928 0.06336-1.1159 0.074499-0.5808 0.19604-1.0055 0.27959-0.96162 0.26254-0.65755 0.41211-0.7791 0.40582-0.59128 0.57594-0.67983 0.46677-0.48055 0.6435-0.60629 0.96108-0.82646 1.3017-1.0502 1.4999-1.1399 0.12368-0.11909 0.058251-0.11155 0.17553-0.074264 0.26122-0.00248 0.20081 0.033359 0.27988 0.078731 0.47126 0.19086 0.69925 0.37503 0.46779 0.29616 1.1953 0.85237 4.4025 3.3289 0.48892 0.3868 1.002 0.89875 0.50785 0.42276 0.29467 0.20581 0.45675 0.24471 0.22247 0.082838 0.38219 0.068782 0.31774-0.040753 0.2117-0.11996 0.15055-0.16137 0.30162-0.46041 0.1874-0.24044 0.2098-0.20822 0.3069-0.23208 0.73082-0.40573 0.65334-0.28726 1.6188-0.59133 2.3545-0.73487 1.5392-0.39187 1.6467-0.30992 1.4148-0.19831 1.4359-0.15739 2.9088-0.23228 4.4005-0.23651 7.338-0.30908 2.9229-0.14534 2.7521-0.17808 3.2483-0.28224 1.6764-0.19707 1.0783-0.1791 0.79863-0.17066 0.78972-0.2042 0.72657-0.2213 0.71696-0.25125 1.2019-0.49594 1.0894-0.52361 0.83918-0.44799 0.82602-0.47699 1.1891-0.74726 0.7486-0.50638 0.73574-0.52656 1.196-0.92536 1.5222-1.3128 1.0026-0.9365 0.92604-0.90967 1.8972-1.9969 0.86567-0.97417 0.88831-1.056 0.63794-0.80887 0.69148-0.97296 0.54085-0.93455 0.34854-0.80447 0.27624-0.83534 0.22238-0.85558 0.17307-0.80386 0.35782-1.8821 0.23062-1.0442 0.31276-1.0331 0.43169-0.94365 0.22872-0.36479 0.49246-0.64396 0.70102-0.76745 1.0505-0.99663 1.8859-1.643 0.73508-0.57102 2.0851-1.5069 1.4127-1.1667 1.8487-1.6847 2.1022-2.047 2.3274-2.1969 1.0396-0.94902 0.88352-0.76028 0.98524-0.734 0.88352-0.5273 0.55906-0.26873 0.60778-0.23006 0.33019-0.094365 0.54237-0.10241 0.57264-0.03304 1.0148 0.13749 0.70913 0.20017 0.8354 0.31336 0.67413 0.29137 0.83371 0.38787 2.0693 1.0241 0.94613 0.41348 0.56724 0.21204 0.71424 0.22003 0.8746 0.19874 0.68623 0.11558 1.0577 0.1255 1.0799 0.075132 1.2007 0.034779 1.2165 6.71e-4 4.0478-0.10105 7.178-0.33039 2.3939-0.026104 1.5339 0.060877 0.83939 0.074404 0.81699 0.10878 1.093 0.21859 0.34373 0.090563 4.0559 1.2225 0.75864 0.27945 0.53841 0.24102 0.43542 0.22562 0.76282 0.477 0.39248 0.30147 0.29056 0.2587 0.73084 0.83916 0.62078 0.97527 0.54436 1.094 0.53408 1.3108 0.48919 1.3974 0.63223 2.023 1.3283 4.5614 0.48137 1.4992 0.38761 1.0398 0.1672 0.23799" stroke="#bdc660"/>
    </defs>
    <g clip-path="url(#p3546423711)">
     <use y="280.512" fill="#bdc660" stroke="#bdc660" xlink:href="#m22d614a42d"/>
    </g>
   </g>
  </g>
 </g>
 <defs>
  <clipPath id="p3546423711">
   <rect x="7.2" y="7.2" width="269.95" height="266.11"/>
  </clipPath>
 </defs>
</svg>
