<?xml version="1.0" encoding="UTF-8"?>
<!DOCTYPE svg  PUBLIC '-//W3C//DTD SVG 1.1//EN'  'http://www.w3.org/Graphics/SVG/1.1/DTD/svg11.dtd'>
<svg width="226.88pt" height="280.51pt" version="1.1" viewBox="0 0 226.88 280.51" xmlns="http://www.w3.org/2000/svg" xmlns:xlink="http://www.w3.org/1999/xlink">
 <metadata>
  <rdf:RDF xmlns:cc="http://creativecommons.org/ns#" xmlns:dc="http://purl.org/dc/elements/1.1/" xmlns:rdf="http://www.w3.org/1999/02/22-rdf-syntax-ns#">
   <cc:Work>
    <dc:type rdf:resource="http://purl.org/dc/dcmitype/StillImage"/>
    <dc:date>2024-07-04T12:11:23.926878</dc:date>
    <dc:format>image/svg+xml</dc:format>
    <dc:creator>
     <cc:Agent>
      <dc:title>Matplotlib v3.7.1, https://matplotlib.org/</dc:title>
     </cc:Agent>
    </dc:creator>
   </cc:Work>
  </rdf:RDF>
 </metadata>
 <defs>
  <style type="text/css">*{stroke-linejoin: round; stroke-linecap: butt}</style>
 </defs>
 <g id="figure_1">
  <g id="patch_1">
   <path d="m0 280.51h226.88v-280.51h-226.88v280.51z" fill="none"/>
  </g>
  <g id="axes_1">
   <g id="PatchCollection_1">
    <defs>
     <path id="mf20abfe271" d="m99.153-254.85 0.47623 0.056677 0.50721-0.046283 0.25372-0.071023 0.24279-0.094209 0.23965-0.11086 0.99526-0.50393 0.54258-0.22702 0.50704-0.17341 0.53134-0.15496 0.55063-0.14052 0.65441-0.14841 1.2566-0.24325 2.6349-0.46818 3.9084-0.78244 1.6296-0.28676 1.2292-0.1647 0.70577-0.057702 0.64832-0.006774 0.44098 0.039145 0.41455 0.090232 0.43318 0.192 0.24413 0.20787 0.11728 0.16879 0.15133 0.40594 0.063365 0.43998-0.00282 0.5091-0.070258 0.52048-0.15544 0.64857-0.1233 0.41507-0.2714 0.79391-0.28708 0.72394-0.30545 0.64723-0.1601 0.28799-0.29528 0.44212-0.27025 0.31973-0.46642 0.44942-0.56989 0.44402-0.61525 0.4141-0.99954 0.64407-0.62478 0.43965-0.30872 0.24231-0.43877 0.3703-0.4916 0.44597-0.62716 0.62842-1.3172 1.4422-0.65163 0.69002-1.2574 1.2529-1.1358 1.1718-0.31944 0.31381-1.0447 0.9532-0.396 0.37941-0.27651 0.29027-0.28672 0.3346-0.28189 0.36915-0.29327 0.43192-0.22389 0.36676-0.81424 1.5101-0.30271 0.50152-0.71301 1.106-0.15273 0.27875-0.12746 0.29789-0.090328 0.33146-0.052812 0.39529-0.009367 0.25547 0.032216 0.50674 0.070637 0.38713 0.10937 0.36041 0.11353 0.26686 0.16588 0.29462 0.13267 0.18155 0.20217 0.21006 0.29472 0.19894 0.20979 0.080608 0.30094 0.053581 0.1374 0.005001 0.19972-0.01403 0.1346-0.024402 0.19127-0.055368 0.2194-0.094521 0.16665-0.095213 0.21249-0.15189 0.25569-0.23191 0.24117-0.27422 0.58007-0.77828 0.46707-0.57847 0.39205-0.41317 0.43336-0.40271 0.4729-0.39397 0.56595-0.41092 0.60705-0.37006 0.47337-0.2407 0.75225-0.32151 1.5346-0.59505 0.75805-0.31301 4.114-1.7808 1.9316-0.85924 0.63761-0.25384 0.57874-0.20325 0.56912-0.17249 0.67141-0.16835 0.96296-0.18784 0.53491-0.070932 0.6658-0.037524 0.41218 0.013027 0.31582 0.038452 0.24261 0.056956 0.12145 0.079609 0.088032 0.11675 0.21395 0.22389 0.58217 0.5625 0.65326 0.60554 0.70656 0.61703 0.54406 0.44112 0.54399 0.41251 0.54922 0.3807 0.81939 0.52565 0.55518 0.39081 0.50243 0.40704 0.48789 0.46334 0.33847 0.40226 0.29075 0.41064 0.16588 0.25904 0.36972 0.64731 0.46584 0.90981 0.25729 0.46766 0.27625 0.44912 0.83688 1.2675 0.39345 0.53786 0.82237 0.99351 0.10932 0.16402 0.14491 0.040025 0.26552 0.099468 0.63421 0.27888 0.39967 0.21704 0.38193 0.25736 0.20393 0.16643 0.22458 0.218 0.18082 0.21383 0.15051 0.21388 0.1189 0.2002 0.15114 0.31683 0.12707 0.36765 0.1393 0.72405 0.039036 0.59427-0.007235 0.59895-0.042771 0.63055-0.12032 1.2198-0.017209 0.35889 0.01896 0.48942 0.053371 0.33037 0.083011 0.28793 0.10998 0.26218 0.18961 0.33275 0.16195 0.22723 0.24154 0.28825 0.26015 0.27233 0.85454 0.83062 0.39393 0.40899 0.48207 0.53613 1.5228 1.833 0.43624 0.50744 0.6519 0.71124 0.55007 0.56053 0.95258 0.93355 1.854 1.7402 0.23834 0.27159 0.16217 0.23715 0.18118 0.38441 0.10864 0.35994 0.056522 0.28095 0.038894 0.29893 0.023019 0.50211-0.029865 0.50763-0.045548 0.29974-0.077293 0.33548-0.079494 0.25919-0.10004 0.26367-0.16452 0.34974-0.19514 0.34941-0.69309 1.1044-0.32832 0.54832-0.24748 0.46832-0.1511 0.33578-0.1063 0.28022-0.12514 0.43772-0.093172 0.53917-0.055687 0.54467-0.041874 0.87108 0.011957 0.85744 0.042465 0.51808 0.058261 0.45411 0.082585 0.46935 0.055234 0.2413 0.090704 0.31645 0.098859 0.26859 0.22483 0.46654 0.11336 0.19312 0.28452 0.40241 0.189 0.2187 0.23813 0.24244 0.2841 0.25181 0.22456 0.1767 0.45629 0.30803 0.43408 0.24527 0.85738 0.4211 0.93647 0.42465 0.52239 0.21345 0.68764 0.25214 0.82907 0.27936 0.4626 0.12868 0.44228 0.08926 0.46073 0.061556 0.71147 0.046117 1.3752 6.51e-4 0.67318-0.028457 0.50073-0.045468 0.46253-0.065628 0.64823-0.12953 0.56086-0.14655 0.4756-0.15465 0.57178-0.22675 1.7904-0.81811 0.70689-0.3086 0.54116-0.20996 1.1659-0.40497 0.47673-0.17985 0.70925-0.29516 0.65596-0.31465 0.38995-0.21591 0.308-0.19614 0.22154-0.16199 0.37272-0.31728 0.31474-0.3215 1.0219-1.1931 0.34708-0.37024 0.2015-0.19365 0.3361-0.2774 0.21289-0.14586 0.21181-0.12209 0.17444-0.083275 0.28482-0.10156 0.29793-0.056794 0.22307-0.010314 0.24819 0.019242 0.27094 0.061172 0.23764 0.085426 0.17422 0.078728 1.0243 0.54431 0.2947 0.12425 0.56291 0.16405 0.75728 0.1322 1.3544 0.18149 0.4315 0.083086 0.5969 0.17147 0.50497 0.22179 0.43314 0.24006 0.36932 0.23199 0.51406 0.36198 0.39033 0.32119 0.3872 0.40835 0.2266 0.34922 0.11811 0.27477 0.08675 0.29382 0.10472 0.58815 0.076622 0.64994 0.15834 1.079 0.075098 0.39673 0.15915 0.69777 0.17857 0.62367 0.18062 0.51409 0.27504 0.63298 0.23676 0.4535 0.26518 0.43863 0.17321 0.25512 0.41033 0.53278 0.25449 0.295 0.38921 0.41637 0.37137 0.37049 0.34864 0.33239 0.76117 0.68086 0.80613 0.64447 1.5822 1.1641 1.3886 1.0505 0.47856 0.32766 0.39662 0.23789 1.7051 0.89674 0.67524 0.38531 0.86343 0.53465 2.3482 1.5115 0.8423 0.49799 0.44957 0.23916 0.51591 0.24291 0.44913 0.17996 0.54345 0.17595 0.53783 0.12714 0.41456 0.06382 0.42057 0.034442 0.35419 0.007531 0.3586-0.010923 0.54766-0.055768 0.27937-0.068332 0.044738-0.037289 0.096409 0.029983 0.12766 0.12612 0.13926 0.19098 0.12549 0.2281 0.076446 0.17434 0.085792 0.2444 0.060432 0.22137 0.081265 0.42471 0.051746 0.46084 0.031451 0.56851 0.03725 2.0996 0.05301 0.77038 0.12197 1.0429 0.36524 2.2764 0.096325 0.71319 0.071507 0.83591 0.026171 0.93634-0.011392 0.54923-0.047614 0.6597-0.057541 0.44896-0.079295 0.44426-0.078049 0.34409-0.15028 0.53717-0.12508 0.38648-0.58175 1.6035-0.15041 0.43757-0.19195 0.63203-0.12427 0.50017-0.12192 0.64173-0.080455 0.5874-0.089745 1.0477-0.020835 0.49867-0.002387 0.49776 0.016921 0.43866 0.037679 0.4365 0.10646 0.6783 0.093932 0.40732 0.11484 0.40281 0.21603 0.6155 0.22941 0.54582 0.37025 0.75243 0.217 0.39278 0.22916 0.38678 0.35028 0.54821 0.28716 0.42159 0.55602 0.76349 0.46954 0.57922 0.45238 0.50484 0.45559 0.46315 1.4164 1.3258 0.50792 0.51453 0.36866 0.428 0.7708 0.95735 0.21188 0.2311 0.24864 0.24276 0.2932 0.25318 0.43876 0.32664 0.25134 0.16408 1.7924 1.0263 0.28251 0.18238 0.25924 0.20333 0.11786 0.12427 0.10929 0.16843 0.027107 0.065912 0.02432 0.094135 0.007979 0.10596-0.01348 0.1139-0.029726 0.097395-0.11733 0.21359-0.22921 0.2654-0.26735 0.2259-0.25379 0.16901-0.30976 0.16565-0.2788 0.12123-0.33298 0.11647-0.31577 0.088358-0.34005 0.075659-0.56967 0.087234-0.64602 0.052546-1.2048 0.064095-2.4207 0.093977-2.1781 0.11029-0.73593 0.055859-0.5744 0.076119-0.65119 0.13194-0.74439 0.20341-0.70347 0.23141-0.81637 0.316-0.66411 0.29081-0.63457 0.32893-0.38569 0.22895-0.33601 0.2185-0.87591 0.62342-0.72338 0.56019-0.42684 0.38071-0.85015 0.83127-0.49823 0.42601-0.40443 0.30752-0.36462 0.25563-0.31701 0.19736-0.32344 0.17868-0.60826 0.2842-0.31334 0.12662-0.36846 0.12836-0.62859 0.16812-1.5289 0.33446-0.79848 0.20158-0.64882 0.21973-0.47637 0.22838-0.42848 0.26765-0.25999 0.20192-0.41659 0.39925-0.321 0.37415-0.51995 0.70961-0.73128 1.0643-0.50698 0.75412-0.32102 0.50871-0.19261 0.32814-0.2702 0.51331-0.20429 0.46251-0.12245 0.32793-0.15584 0.50708-0.46194 2.0344-0.18757 0.57496-0.18324 0.45948-0.14866 0.29762-0.22867 0.38253-0.25982 0.36804-0.19772 0.24682-0.31903 0.35312-0.47034 0.44593-0.28755 0.23885-0.29918 0.22569-0.39452 0.26519-0.29481 0.17514-0.37542 0.19476-0.42525 0.18088-0.48809 0.15064-0.37922 0.074467-0.63935 0.076899-0.60799 0.042917-1.4736 0.046185-0.63988 0.055899-0.40814 0.058406-0.66616 0.13287-0.29715 0.087969-0.30285 0.13003-0.18076 0.11659-0.13622 0.1191-0.21703 0.25339-0.24449 0.37406-0.38234 0.73005-0.24728 0.54378-0.22204 0.55366-0.11729 0.34236-0.095569 0.33743-0.081143 0.42654-0.016747 0.3336 0.015184 0.17763 0.13829 0.4612 0.15827 0.29123 0.19146 0.27036 0.20056 0.24028 0.23622 0.2531 0.6729 0.67522 0.22166 0.24457 0.61573 0.80234 0.19471 0.19218 0.23005 0.18233 0.27737 0.17489 0.39016 0.20077 0.36638 0.16268 0.48704 0.19013 0.57827 0.19444 0.67973 0.19458 1.9122 0.4604 0.37332 0.10252 0.34688 0.11197 0.29783 0.11831 0.25954 0.13264 0.26656 0.20044 0.068101 0.076903 0.072987 0.11608 0.055606 0.17912-0.03616 0.41409-0.12334 0.32384-0.18956 0.34598-0.38994 0.55269-0.22483 0.27325-0.30455 0.33805-0.49255 0.4885-0.5203 0.45676-0.49571 0.38881-0.5328 0.37593-0.52217 0.33499-0.83693 0.49164-1.3248 0.74131-0.78923 0.46047-0.61905 0.39392-0.16581 0.1281-0.021736 0.058653-0.69038 0.66057-0.6807 0.60152-0.47936 0.4005-0.72298 0.56495-3.0111 2.1171-0.31973 0.19971-0.46021 0.2341-0.49287 0.16958-0.16234 0.036491-0.43212 0.062031-0.62542 0.046707-0.71023 0.021963-2.6959-0.053187-0.50514 0.009132-0.56363 0.031943-0.65658 0.081516-0.28856 0.06059-0.2595 0.076617-0.37879 0.18622-0.2319 0.26326-0.03785 0.126 0.003789 0.23543 0.074208 0.25088 0.16718 0.31653 0.073191 0.10706 0.63759 0.75292 0.29421 0.4387 0.19915 0.50079 0.10618 0.47976 0.045979 0.40737 0.013309 0.47211-0.026444 0.48255-0.08262 0.56286-0.14356 0.5553-0.24237 0.59534-0.27324 0.4648-0.34237 0.45619-0.44587 0.48997-0.36901 0.3531-0.55462 0.47508-0.40869 0.32148-1.5724 1.1815-0.69877 0.57533-1.1284 0.98417-0.52678 0.42819-0.51072 0.36567-0.41372 0.25706-0.43141 0.23024-0.52999 0.23271-0.4148 0.14762-0.28128 0.085009-0.49014 0.12494-0.64302 0.1338-1.7319 0.32139-0.90136 0.22178-0.79124 0.25682-0.47259 0.18753-0.42931 0.196-0.30171 0.15527-0.38729 0.22266-0.40671 0.26244-0.40936 0.29294-0.40684 0.31811-0.9954 0.83723-0.29287 0.224-0.46881 0.31294-0.95729 0.57187-0.45844 0.29611-0.35373 0.26857-0.31818 0.30401-0.38292 0.51938-0.31415 0.59866-0.27301 0.65531-0.52274 1.4025-0.37094 0.9102-0.30182 0.65137-0.28194 0.5284-0.32408 0.53026-0.39399 0.56665-0.38509 0.50342-0.39408 0.47072-0.43232 0.45978-0.34871 0.31123-0.29576 0.20866-0.18902 0.091956-0.05638 0.014479-0.08164-0.020036 0.19294 0.30676 0.233 0.42662 0.2713 0.54363 0.22689 0.51565 0.15389 0.4018 0.17374 0.54769 0.12606 0.53833 0.07066 0.46059 0.045812 0.58896 0.004106 0.73909-0.15255 2.9111-0.009027 0.98538 0.010095 0.48999 0.056381 1.0112 0.045742 0.48413 0.058298 0.4781 0.13249 0.80656 0.090031 0.42023 0.10533 0.41125 0.11515 0.38003 0.13048 0.36948 0.1795 0.43271 0.20805 0.42359 0.1937 0.3409 0.25089 0.38732 0.24946 0.34437 0.70484 0.87058 0.18694 0.25039 0.20313 0.38002 0.058578 0.27619-0.010912 0.23942-0.074712 0.29291-0.097277 0.24272-0.1995 0.38851-0.11082 0.17789-0.17042 0.2314-0.1602 0.17698-0.18807 0.1644-0.16515 0.11222-0.32224 0.15943-0.30357 0.11057-1.5178 0.4263-0.42736 0.13736-0.53384 0.20823-0.29888 0.14424-0.3536 0.21496-0.19794 0.15358-0.16256 0.15759-0.067485 0.079141-0.16562 0.2651-0.050923 0.123-0.057183 0.23131-0.009332 0.24185 0.021839 0.19202 0.10469 0.53163 0.039509 0.41905-0.01727 0.29816-0.067907 0.3016-0.16504 0.36519-0.17699 0.2692-0.35584 0.41767-0.42781 0.41402-1.364 1.1806-0.69428 0.65484-0.30749 0.32669-0.2906 0.34066-0.23829 0.31162-0.21861 0.32344-0.25278 0.44556-0.13539 0.28928-0.14541 0.38607-0.10176 0.37073-0.074405 0.38197-0.055092 0.40906-0.037919 0.41822-0.10012 1.9602-0.07184 0.89844-0.052325 0.45008-0.13414 0.81479-0.11698 0.51608-0.28951 1.1428-0.082944 0.46281-0.021796 0.17146 0.005539 0.091879 0.007383 0.14924-0.070462 0.24556-0.19206 0.41874-0.25271 0.39592-0.15414 0.18887-0.16145 0.1654-0.29805 0.23802-0.36597 0.20769-0.47823 0.17811-0.5526 0.11546-0.426 0.033539-0.32419-0.007742-0.40615-0.052344-0.44019-0.10307-0.43997-0.14644-0.55874-0.23995-1.4352-0.72965-0.25758-0.11647-0.2033-0.076605-0.32828-0.078886-0.32838-0.014526-0.34453 0.034479-0.37367 0.075621-0.25716 0.069266-0.28031 0.089826-0.37669 0.14414-0.27965 0.12387-0.60034 0.31134-0.2676 0.15995-0.38258 0.25823-0.26949 0.20812-0.33762 0.29826-0.36959 0.40093-0.3024 0.42954-0.33649 0.63444-0.16627 0.38741-0.61683 1.6252-0.32567 0.73586-0.18981 0.37048-0.2374 0.40845-0.24808 0.36889-0.19981 0.25621-0.20267 0.22192-0.26253 0.22519-0.26546 0.14314-0.1558 0.039951-0.16855 0.013997-0.21361-0.009152-0.51752-0.055227-0.41619-0.018644-0.44702 0.02323-0.46384 0.081584-0.46323 0.15008-0.46305 0.20962-0.59748 0.33839-0.53181 0.35399-0.51506 0.38833-0.48883 0.41387-0.45199 0.43208-0.81284 0.84284-0.43244 0.34915-0.3531 0.21123-0.23533 0.10381-0.29963 0.094007-0.59875 0.10013-0.59158 0.026393-0.72782-0.027418-1.6382-0.15082-0.55645-0.024358-0.46069 0.004839-0.66504 0.057531-0.59627 0.10458-0.60643 0.14249-1.6358 0.43388-2.7471 0.76372-0.54083 0.14135-0.73115 0.1542-0.36019 0.055571-0.43395 0.047333-0.43294 0.024801-0.54696-0.00371-0.37409-0.027548-0.47549-0.065677-0.53277-0.11407-0.50758-0.1483-0.40872-0.15022-0.26213-0.11334-0.50004-0.25386-1.3201-0.75356-0.47054-0.21079-0.35383-0.11506-0.34542-0.081125-0.31452-0.053444-2.1682-0.27057-1.092-0.15967-1-0.19372-0.43135-0.11915-0.43431-0.16489-0.42806-0.2042-0.36128-0.19888-0.35896-0.21641-0.68026-0.44509-1.6994-1.1677-0.31571-0.20102-0.57876-0.32521-0.40185-0.18492-0.40826-0.15659-0.4999-0.15279-0.49868-0.11101-0.58647-0.073576-0.41128-0.013587-0.40121 0.01501-0.32013 0.033658-0.42843 0.082784-0.21891 0.063308-0.24244 0.091968-0.23629 0.12213-0.20771 0.15224-0.29761 0.35999-0.13095 0.23003-0.45802 0.97556-0.13625 0.2363-0.27743 0.34821-0.22993 0.1893-0.26587 0.16044-0.39104 0.17096-0.44179 0.13397-0.42002 0.088267-0.35486 0.053236-0.49752 0.046711-0.46574 0.013614-0.2456-0.006565-0.20492-0.014325-0.58245-0.085857-0.51563-0.13112-0.41355-0.14312-0.47714-0.20807-0.56654-0.30249-0.21108-0.12639-0.74774-0.48659-0.97608-0.67572-0.40692-0.30586-0.21898-0.18904-0.15499-0.15556-0.1614-0.20113-0.11832-0.21223-0.056733-0.17503-0.019681-0.19308 0.10157-0.41967 0.2517-0.43288 0.26256-0.3466 0.84285-1.0322 0.28155-0.37537 0.27118-0.39267 0.3017-0.49218 0.35296-0.6961 0.66338-1.5595 0.16399-0.35166 0.19176-0.37836 0.82775-1.5254 0.29033-0.6459 0.30161-0.74869 0.4533-1.2076 0.26251-0.78257 0.13063-0.50934 0.07722-0.3579 0.26831-1.4289 0.21513-1.052 0.39509-1.7283 0.17562-0.60165 0.12212-0.33076 0.23508-0.49271 0.28944-0.44868 0.28974-0.37674 0.41862-0.4805 0.34822-0.34701 0.4134-0.36117 0.42963-0.3317 1.2204-0.89387 0.43653-0.36596 0.2844-0.2808 0.23813-0.29166 0.2238-0.38443 0.089688-0.23847 0.073386-0.3196 0.025824-0.46645-0.045055-0.35555-0.089991-0.31201-0.13409-0.30236-0.079754-0.14234-0.21149-0.31555-0.21536-0.2678-1.1475-1.2588-0.35246-0.43436-0.23724-0.33617-0.20802-0.35092-0.1498-0.31209-0.12894-0.32233-0.12378-0.36885-0.13244-0.51401-0.18075-0.92447-0.23418-1.6132-0.266-1.55-0.212-1.4703-0.19054-1.0158-0.062532-0.40175-0.019521-0.19696-0.006049-0.29314 0.012935-0.15359 0.039639-0.18972 0.089654-0.19565 0.10344-0.10296 0.088707-0.024026 0.038237 0.006434 0.035963 0.008564 0.039235-0.056249 0.044406-0.20968 0.016164-0.21928-0.001141-0.51896-0.067593-0.94204-0.075885-0.61263-0.080458-0.5092-0.092497-0.48034-0.13103-0.55451-0.10039-0.34626-0.11873-0.34093-0.18463-0.42642-0.31206-0.52222-0.35437-0.38451-0.27563-0.19716-0.28752-0.15264-0.36882-0.15052-0.35201-0.11443-0.39544-0.10528-1.2583-0.25408-0.55856-0.12943-0.41044-0.13069-0.1894-0.077261-0.22057-0.11377-0.22568-0.16791-0.24-0.29213-0.11312-0.19537-0.11212-0.23888-0.12366-0.32182-0.19049-0.64107-0.10936-0.47809-0.25298-1.242-0.18939-0.65681-0.15236-0.40845-0.25169-0.5785-0.97104-2.0464-0.35264-0.82241-0.16994-0.45081-0.14872-0.44086-0.1697-0.5937-0.11898-0.53029-0.096329-0.55361-0.06622-0.48994-0.064387-0.62926-0.057696-0.78998-0.10904-1.9951-0.047207-0.62183-0.12425-1.1491-0.093178-0.64776-0.22555-1.4204-0.21544-1.1126-0.28391-1.2152-0.16604-0.56771-0.2211-0.6796-0.023565-0.11436-0.005366-0.11334 0.035788-0.098955 0.04124-0.029136 0.044419-0.011083 0.056306 0.001061 0.17446 0.056665 0.81512 0.45331 0.5045 0.25671 0.55788 0.23035 0.49116 0.14591 0.3667 0.072459 0.34897 0.040295 0.35194 0.012675 0.56324-0.039919 0.57279-0.12239 0.32877-0.11309 0.31451-0.14243 0.48388-0.30001 0.42312-0.3701 0.38792-0.48298 0.2263-0.41515 0.10947-0.28461 0.080334-0.28507 0.085414-0.45257 0.17579-1.6374 0.056304-0.40186 0.06939-0.40469 0.15274-0.70318 0.19618-0.71538 0.13727-0.42987 0.15014-0.42592 0.2687-0.67818 0.18681-0.42195 0.1983-0.41339 0.25716-0.49172 0.27584-0.47777 0.34272-0.5313 0.29973-0.41068 0.31353-0.38117 0.45912-0.48264 0.67695-0.63669 0.33212-0.37182 0.12852-0.19354 0.14109-0.29019 0.052944-0.1519 0.058052-0.23297 0.051701-0.40568 0.014256-0.33665 0.002513-1.1387 0.02231-0.55735 0.072217-0.59844 0.080564-0.38966 0.090642-0.34898 0.14924-0.49354 0.24029-0.69408 0.38494-0.96032 0.44446-0.95518 0.29471-0.57396 0.57017-1.0097 1.1566-1.8568 0.70833-1.1805 0.23738-0.37683 0.36647-0.52066 0.26573-0.32092 0.46682-0.47445 0.4279-0.37014 0.36845-0.28982 1.1428-0.85618 0.34436-0.28505 0.25054-0.23457 0.29372-0.31685 0.24304-0.31865 0.16199-0.26636 0.15242-0.3354 0.048251-0.14589 0.060955-0.27742 0.018972-0.22738-0.018099-0.29244-0.075063-0.31573-0.14846-0.33691-0.2442-0.34723-0.21382-0.21373-0.20785-0.16066-0.18355-0.11446-0.39469-0.18283-0.312-0.10713-0.34387-0.099009-1.2671-0.31034-0.28627-0.084263-0.27226-0.1047-0.25217-0.14612-0.14447-0.14099-0.087265-0.15351-0.042003-0.14448-0.016104-0.15243 0.007549-0.17338 0.030699-0.17926 0.083211-0.26642 0.13182-0.27252 0.16301-0.24186 0.14505-0.16854 0.16191-0.15686 0.2996-0.23468 0.36497-0.22115 0.4886-0.22527 1.26-0.44939 0.27713-0.10545 0.44309-0.19443 0.37793-0.20653 0.30119-0.20536 0.18374-0.15008 0.23714-0.23364 0.15101-0.18082 0.20418-0.29718 0.14511-0.26031 0.17685-0.41191 0.083824-0.28219 0.042662-0.23069 0.017103-0.2416-0.074391-0.59037-0.20574-0.6043-0.3012-0.61515-0.36834-0.6242-0.41277-0.63257-1.3268-1.956-0.41786-0.67916-0.37641-0.69936-0.3132-0.72535-0.18503-0.57236-0.14987-0.58719-0.38015-1.76-0.15828-0.61056-0.19482-0.5961-0.21673-0.51259-0.15169-0.29295-0.27287-0.43976-0.429-0.55477-0.30581-0.3314-0.30649-0.29462-0.39808-0.33617-0.28735-0.2077-0.15747-0.090585-0.058465-0.011317-0.073646-0.082701-0.69385-0.54814-0.8411-0.6153-0.64901-0.43918-1.387-0.8672-2.8154-1.7002-1.0993-0.7068-0.34164-0.23625-0.66861-0.49625-0.63514-0.53038-0.21256-0.19942-0.34166-0.35537-0.23533-0.27327-0.26484-0.33866-0.35355-0.50994-0.25691-0.41299-0.26213-0.45661-0.49876-0.96189-0.4324-0.93548-0.21821-0.52244-0.40707-1.0959-0.76292-2.3009-0.39991-1.1004-0.61858-1.5479-0.3466-0.82951-0.30732-0.67873-0.3162-0.61763-0.31862-0.53792-0.27103-0.39567-0.21814-0.28098-0.35226-0.3932-0.23319-0.2274-0.33684-0.29168-0.27005-0.20377-0.28467-0.18741-0.47695-0.26643-0.41092-0.1948-0.40344-0.16927-0.39383-0.14674-0.62316-0.19554-0.37059-0.093582-0.57643-0.10097-0.50641-0.038041-0.43613 0.002012-0.43427 0.025244-1.0447 0.10427-1.7268 0.22754-0.61662 0.033337-0.58405-0.025441-0.30068-0.036193-0.25938-0.045817-0.3507-0.084221-0.33941-0.10431-0.2895-0.10356-1.1995-0.48402-0.39096-0.14153-1.9012-0.59889-0.46298-0.1584-0.9933-0.38725-2.1616-0.91188-0.50833-0.19364-0.5892-0.20506-0.64267-0.19917-0.62579-0.1705-0.57535-0.13747-1.8102-0.37283-0.91037-0.21046-0.37284-0.10463-0.53362-0.17473-0.83416-0.31387-0.9583-0.39952-0.87445-0.39062-2.3961-1.1162-0.8703-0.36337-1.3655-0.53831-0.36724-0.17395-0.22315-0.1278-0.16038-0.11056-0.17533-0.15166-0.14605-0.17196-0.1199-0.20928-0.056858-0.16986-0.011453-0.16466 0.035569-0.076563-0.026332-0.097373-0.038185-0.32836-0.1172-1.5919-0.17713-2.1207-0.040941-0.69313-0.016437-0.68909 0.008749-0.68098 0.03052-0.5899 0.050165-0.55412 0.062523-0.51642 0.094066-0.55538 0.083562-0.38886 0.15072-0.57023 0.31218-1.004 0.22995-0.68143 0.89795-2.4822 0.14552-0.4844 0.11948-0.51912 0.090102-0.60974 0.038379-0.6782-0.021679-0.72246-0.077654-1.1702-0.009955-0.3078 0.012693-0.44975 0.058391-0.41956 0.044773-0.17934 0.11734-0.30528 0.18199-0.29216 0.09803-0.11534 0.15143-0.14503 0.2813-0.20251 0.3414-0.17093 0.34567-0.12219 0.4278-0.11007 0.34981-0.061831 0.99194-0.1413 0.74046-0.13706 0.70645-0.17211 0.45233-0.13684 0.38537-0.14872 0.24802-0.11478 0.43349-0.237 0.48567-0.3226 0.41251-0.33028 0.34774-0.32316 0.30492-0.30594 0.59242-0.65806 0.35918-0.43225 0.88036-1.1088 0.90249-1.069 0.4594-0.59379 0.4033-0.59329 0.48575-0.76617 0.86534-1.4317 0.2566-0.47801 0.2006-0.41263 0.14276-0.33995 0.14122-0.42943 0.074275-0.31813 0.045067-0.29829 0.018869-0.32312-0.008346-0.28585-0.027939-0.29489-0.051864-0.34803-0.35689-1.7234-0.097951-0.57766-0.064816-0.52173-0.033022-0.43491-0.013796-0.56016 0.026823-0.8251 0.031041-0.44596 0.085288-0.71844 0.16921-0.84636 0.26673-1.1182 0.92332-3.5999 0.16498-0.69338 0.048411-0.2382 0.091052-0.59308 0.036873-0.59001-0.013264-0.39886-0.034781-0.31296-0.10689-0.54107-0.20471-0.74877-0.37632-1.2696-0.12488-0.58492-0.038358-0.29867-0.025628-0.44358 0.002152-0.49726 0.027465-0.55554 0.057328-0.6055 0.070664-0.46691 0.11288-0.55122 0.088599-0.33537 0.21049-0.61174 0.57506-1.3643 0.088305-0.26267 0.091719-0.40844 0.032369-0.29972 0.00931-0.28131-0.023108-0.98472 0.01353-0.52053 0.029941-0.36377 0.047663-0.32769 0.10985-0.40363 0.10613-0.25443 0.11785-0.22721 0.16751-0.27508 0.20967-0.3 0.45957-0.59102 0.43096-0.48535 1.2113-1.199 0.49776-0.53043 0.31983-0.3786 0.24373-0.31404 0.99435-1.4145 0.26622-0.34605 0.27173-0.31979 0.25588-0.27144 0.39043-0.35286 0.27423-0.21298 0.58722-0.39717 1.1458-0.72019 0.41712-0.28489 0.49092-0.36836 0.34907-0.28476 0.60893-0.55238 0.35141-0.35679 0.28972-0.32956 0.25713-0.33379 0.20223-0.29865 0.30758-0.55331 0.19865-0.47469 0.090696-0.27507 0.088398-0.33701 0.094857-0.53669 0.035645-0.3542 0.019125-0.44076-0.006992-0.70373-0.021174-0.31977-0.034329-0.15858 0.02346 0.029976 0.057522 0.008776 0.2007-0.040908 0.29125-0.10903 0.66322-0.29991 0.3637-0.14348 0.34537-0.097653 0.23333-0.039004 0.18539-0.012968 0.22882 0.007663 0.22857 0.034434 0.19515 0.050186 0.22188 0.081793 0.19789 0.097412 0.16731 0.10235 0.41722 0.33951 0.28041 0.293 0.82995 1.0061 0.4724 0.52728 0.36769 0.36053 1.3931 1.3046 1.5844 1.5862 0.27805 0.2416 0.14058 0.10441 0.20631 0.12579 0.17985 0.082262 0.15742 0.051504 0.25011 0.046476 0.23655 0.009644 0.30293-0.029616 0.24012-0.05425 0.30613-0.10768 0.21935-0.10294 0.21082-0.11777 0.30366-0.19858 0.61022-0.42993 0.21901-0.13279 0.36316-0.17488 0.225-0.082617 0.29987-0.087833 0.38271-0.087773 0.41487-0.07178 1.2999-0.18138 0.53277-0.095701 0.40825-0.095129 0.53487-0.16155 0.34954-0.12872 0.43388-0.18321 0.74778-0.34414 0.55718-0.22123 0.33165-0.097023 0.29882-0.060497 0.3224-0.03454 0.30924-9.57e-4 0.37213 0.043196 0.28957 0.068965 0.26904 0.093111 0.34604 0.15913 0.30001 0.1674 1.109 0.69706 0.90961 0.54141 0.33836 0.17882 0.29157 0.1311 0.25327 0.091068 0.21231 0.05722 0.24922 0.04371 0.44246 0.031208 0.38012-0.005797 0.36647-0.039096 1.2301-0.18889 1.0066-0.072563 0.22572-0.028263 0.21224-0.044596 0.24913-0.084265 0.30104-0.15261 0.24735-0.15936 0.39411-0.31546 0.39104-0.39291 0.24714-0.28807 0.42856-0.56903 0.74237-1.1251 0.92181-1.4965 0.57653-0.91025 0.63863-0.9469 0.45181-0.6338 0.23457-0.3002 0.21309-0.24645 0.1907-0.19684 0.38842-0.34513 0.40352-0.29798 0.48618-0.30576 0.89229-0.47313 1.6765-0.82382 1.7817-0.8298 1.0657-0.43983 0.69543-0.24405 0.77549-0.22908 0.67678-0.15122 0.61476-0.061335 0.50834 0.025332 0.38525 0.075074 0.3902 0.13209 0.3752 0.1816 0.35765 0.22451 0.34025 0.26294 0.29373 0.26915 0.27844 0.2934 0.3553 0.43104 0.40218 0.55803 1.1703 1.706 0.27034 0.35777 0.28326 0.33901 0.35235 0.36481 0.26795 0.23913 0.22886 0.18315 0.29732 0.21184 0.30502 0.18477 0.38424 0.18144 0.48888 0.14868" stroke="#bdc660"/>
    </defs>
    <g clip-path="url(#pf5ec4ed730)">
     <use y="280.512" fill="#bdc660" stroke="#bdc660" xlink:href="#mf20abfe271"/>
    </g>
   </g>
  </g>
 </g>
 <defs>
  <clipPath id="pf5ec4ed730">
   <rect x="7.2" y="7.2" width="212.48" height="266.11"/>
  </clipPath>
 </defs>
</svg>
