<?xml version="1.0" encoding="UTF-8"?>
<!DOCTYPE svg  PUBLIC '-//W3C//DTD SVG 1.1//EN'  'http://www.w3.org/Graphics/SVG/1.1/DTD/svg11.dtd'>
<svg width="371.52pt" height="261.03pt" version="1.1" viewBox="0 0 371.52 261.03" xmlns="http://www.w3.org/2000/svg" xmlns:xlink="http://www.w3.org/1999/xlink">
 <metadata>
  <rdf:RDF xmlns:cc="http://creativecommons.org/ns#" xmlns:dc="http://purl.org/dc/elements/1.1/" xmlns:rdf="http://www.w3.org/1999/02/22-rdf-syntax-ns#">
   <cc:Work>
    <dc:type rdf:resource="http://purl.org/dc/dcmitype/StillImage"/>
    <dc:date>2024-07-04T12:11:25.260836</dc:date>
    <dc:format>image/svg+xml</dc:format>
    <dc:creator>
     <cc:Agent>
      <dc:title>Matplotlib v3.7.1, https://matplotlib.org/</dc:title>
     </cc:Agent>
    </dc:creator>
   </cc:Work>
  </rdf:RDF>
 </metadata>
 <defs>
  <style type="text/css">*{stroke-linejoin: round; stroke-linecap: butt}</style>
 </defs>
 <g id="figure_1">
  <g id="patch_1">
   <path d="m0 261.03h371.52v-261.03h-371.52v261.03z" fill="none"/>
  </g>
  <g id="axes_1">
   <g id="PatchCollection_1">
    <defs>
     <path id="m59837ea0c3" d="m118.59-240.18 1.0649 4.1518 0.8407 3.4327 0.39184 1.7734 0.34098 1.7785 0.204 1.2768 0.70331 5.5292 0.31339 2.8457 0.13814 1.5474 0.078552 1.0865 0.095298 2.0343-0.005668 2.0234-0.05674 1.0682-0.10922 1.1738-0.15675 1.1656-0.18429 1.0598-0.22147 1.0518-0.2513 1.0184-0.28654 1.0091-0.30227 0.93762-0.33497 0.92745-0.53153 1.302-2.1562 4.6652-0.81165 1.9597-0.68101 1.9312-0.30376 0.98622-0.2741 1.0011-0.23465 0.99878-0.23485 1.2856-0.15819 1.5221-0.022852 0.98594 0.04652 0.95054 0.15443 1.0665 0.27858 0.97278 0.51079 0.9717 0.54478 0.593 0.45598 0.3212 1.0213 0.3984 0.6336 0.10175 0.39211 0.021623 0.63412-0.023167 1.031-0.16241 1.1786-0.32235 1.0107-0.36047 1.0596-0.45061 0.87277-0.42436 0.98104-0.52655 1.8706-1.0678 1.3775-0.7283 1.4237-0.68736 1.458-0.6545 1.4832-0.6286 3.0159-1.2012 3.0499-1.15 3.0485-1.1073 2.9964-1.0449 2.8503-0.9186 1.3191-0.3731 1.2051-0.28187 1.0441-0.15372 0.82075 0.023727 0.51528 0.26601 0.14346 0.5618-0.16276 0.8045-0.3865 0.98174-0.54756 1.1091-0.66168 1.1987-0.74123 1.26-1.6287 2.6248-1.7342 2.6753-1.7946 2.6491-0.92016 1.2928-0.83021 1.1025-0.77683 0.93361-0.54119 0.59698-0.88068 0.90944-1.2748 1.243-3.0184 2.7551-0.79782 0.77258-2.8314 2.9647-2.7442 2.7725-0.68474 0.73867-0.59064 0.684-0.8674 1.1164-0.64607 0.96467-0.4586 0.80223-0.36002 0.75714-0.28593 0.80021-0.122 0.55155-0.021186 0.25013 0.020572 0.26964 0.10551 0.26774 0.31874 0.24632 0.47967 0.086099 0.40371-0.02845 0.63592-0.12723 1.9916-0.50938 4.7708-1.0623 1.4028-0.28378 1.185-0.19008 2.2325-0.27066 3.9361-0.40616 2.8898-0.23763 1.2107-0.065858 1.1904-0.032339 1.1026 0.009469 1.0743 0.05557 9.5935 0.89718 1.3488 0.09847 1.6688 0.073467 1.9352 0.007193 1.7314-0.082842 1.231-0.12935 3.5504-0.48696 1.1051-0.069445 0.52312 0.002982 1.2158 0.092703 0.76074 0.14718 0.52452 0.16974 0.65106 0.33861 0.18762 0.13967 0.60608 0.68502 0.44014 0.91952 0.23381 0.97063 0.044827 0.39933 0.017855 0.59732-0.018639 0.41013-0.061611 0.52674-0.15127 0.79596-0.50905 2.081-0.14799 0.71178-0.078058 0.49082-0.074216 0.9517 0.00911 0.44872 0.037195 0.39921 0.083557 0.46426 0.1563 0.52972 0.32205 0.69886 0.5412 0.75701 0.32688 0.33869 0.91413 0.72414 0.95477 0.57967 1.177 0.61062 1.7662 0.83636 1.7989 0.79912 0.77506 0.31593 1.4129 0.51634 4.3778 1.4659 0.77472 0.18644 2.0651 0.28034 0.85143 0.22222 0.45959 0.16507 2.3044 1.0497 0.93904 0.35928 1.9455 0.66097 0.73106 0.29967 2.0089 1.0428 0.87091 0.28194 0.34481 0.044184 0.46328 0.005824 0.61714-0.065392 0.85677-0.18774 0.84204-0.26568 1.0539-0.44302 0.60509-0.32707 0.61473-0.42325 0.48787-0.45634 0.45681-0.57966 0.66654-0.96834 0.45805-0.54885 0.43593-0.39802 0.65864-0.46933 0.64498-0.36994 0.98902-0.46581 0.96926-0.38253 0.82307-0.29172 1.2202-0.4074 2.3483-0.69838 1.7511-0.59715 0.96373-0.41783 0.87777-0.51769 0.68231-0.56561 0.6061-0.63884 0.54998-0.67398 0.87166-1.138 0.58612-0.66073 0.84115-0.72054 0.41413-0.29097 0.75805-0.44019 2.4359-1.1397 1.1486-0.48216 2.3925-0.88788 2.1391-0.72438 1.0963-0.27647 1.1122-0.18571 1.8098-0.17589 1.1538-0.14184 1.093-0.22838 0.84627-0.30078 0.74936-0.43676 0.43809-0.38532 0.39227-0.45009 0.47632-0.68638 0.69592-1.223 0.84442-1.5921 0.59639-1.0243 0.4615-0.65023 0.53169-0.569 0.85924-0.59321 1.0014-0.39688 0.25333-0.065118 0.97384-0.14684 0.92188-0.028983 0.78485 0.029406 1.6309 0.15288 3.2879 0.45112 7.6631 1.3061 3.6814 0.55021 5.4478 0.7154 2.8367 0.33454 2.9695 0.29607 2.5797 0.20916 2.6073 0.14982 2.8955 0.095193 8.094 0.13244 2.8891 0.012134 1.5316-0.030195 2.0472-0.11192 0.97269-0.093344 0.74478-0.10024 0.34186-0.066776 0.12337-0.053934 0.36829 0.024909 2.4189-0.070632 2.3572-0.005066 1.2082 0.043761 0.83576 0.058799 0.80215 0.088681 1.4915 0.30134 1.1065 0.43644 0.81535 0.63035 0.44112 0.75686 0.20321 0.90475 0.018173 1.0137-0.12481 1.0912-0.2359 1.1435-0.34219 1.2333-0.42464 1.2492-0.50051 1.2483-0.57677 1.2324-0.75314 1.3564-0.82649 1.2501-0.90633 1.209-0.96471 1.1766-1.9374 2.1681-2.0152 2.1164-3.1554 3.2111-5.2041 5.2331-2.9464 3.0537-1.8138 1.9897-0.96482 1.1121-1.8429 2.2446-1.361 1.7992-0.6211 0.89612-0.6519 1.0374-0.5518 1.0285-0.41951 1.0157-0.24591 0.99821-0.01999 0.97511 0.28837 1.0529 0.47607 0.90975 0.63063 0.89843 0.53752 0.6554 1.0997 1.2054 3.6443 3.7439 1.2076 1.2802 0.58948 0.66842 0.61676 0.75975 0.3457 0.46674 0.39379 0.5792 0.7556 1.2573 0.77598 1.4865 0.4744 1.0312 0.41848 1.0392 0.39197 1.1929 0.27801 1.1976 0.12995 0.95023 0.1589 2.3588 0.089437 2.6595 0.065013 1.0123 0.19151 2.504 0.3468 3.3051 0.15837 2.0672 0.014924 0.8961-0.02801 0.79995-0.11779 1.0889-0.64023 3.307-0.33003 1.9921-0.17022 1.3639-0.02768 1.0783 0.14556 1.2215 0.17172 0.59988 0.24692 0.55229 0.31308 0.47341 0.46126 0.47401 0.4313 0.30884 0.64275 0.31507 0.90741 0.26091 1.2497 0.15589 1.2258 0.011013 0.86033-0.048112 1.6724-0.188 1.9888-0.33893 2.769-0.58894 1.2142-0.22577 2.551-0.39625 1.287-0.14452 1.172-0.040278 0.7836 0.074554 0.3506 0.084684 0.38441 0.16079 0.18687 0.12306 0.21944 0.21757 0.16542 0.27385 0.075512 0.21126 0.064251 0.40885-0.022964 0.63324-0.083442 0.56844-0.49338 2.3716-0.42676 1.6205-0.44219 1.2598-0.98184 2.2661-0.18459 0.48035-0.15126 0.51557-0.079791 0.47172-0.019632 0.40355 0.026194 0.36539 0.056111 0.28126 0.097518 0.27664 0.25811 0.41264 0.31768 0.32511 0.30105 0.23648 0.55869 0.3518 0.28497 0.14747 0.55942 0.22269 0.27926 0.078613 1.0784 0.14354 1.0944-0.028409 0.91919-0.13662 0.48509-0.17815 1.5382 3.1831 0.99668 1.8875 0.47841 0.83026 0.5058 0.81917 0.60987 0.88962 0.44715 0.58153 0.45807 0.53171 0.39202 0.39668 0.2118 0.19095 0.7536 0.57646 0.48218 0.30575 0.49943 0.2774 0.93792 0.43871 2.6056 1.0302 0.71948 0.31998 0.82669 0.41418 0.65082 0.36952 0.63338 0.40002 0.75979 0.55223 0.53175 0.4468 2.1431 2.0934 0.66466 0.57559 0.83702 0.6326 0.28815 0.28356 0.15969 0.25982 0.082996 0.25099 0.025844 0.24211-0.025507 0.2159-0.082686 0.2087-0.15404 0.19308-0.16848 0.12537-0.3156 0.13338-0.42495 0.078684-0.38523 0.017954-0.45476-0.018071-0.48768-0.053311-0.68348-0.12856-1.1003-0.28955-0.2554-0.033406-0.3621 0.043776-0.21866 0.1069-0.15648 0.13953-0.13722 0.21928-0.072389 0.2579-0.013618 0.31644 0.037912 0.34696 0.23 1.288 0.041126 0.78795-0.025664 0.39835-0.062355 0.43475-0.12727 0.52619-0.1292 0.3573-0.17582 0.35272-0.17136 0.25519-0.22457 0.2443-0.24683 0.18426-0.26335 0.12276-0.28296 0.059089-0.34499-0.041686-0.24524-0.1937-0.035327-0.082137-0.14293-0.077398-0.20227 9e-6 -0.26005 0.059308-0.25186 0.092913-0.35155 0.17042-0.57206 0.34913-1.6953 1.2024-0.99128 0.65267-0.51161 0.29443-0.50877 0.25064-0.60421 0.24334-0.80456 0.23787-0.64727 0.1249-0.52584 0.059332-0.91559 0.010064-0.48224-0.046526-0.5481-0.10113-0.4894-0.13978-0.51319-0.20735-0.31208-0.16358-0.37523-0.2423-0.32357-0.25713-0.44472-0.44222-0.43602-0.55095-0.40933-0.63796-0.66327-1.1375-0.34121-0.48693-0.20919-0.24125-0.31355-0.28348-0.25351-0.16706-0.29677-0.13756-0.26233-0.078504-0.3358-0.05307-0.48026-0.006736-1.891 0.21589-0.34035 0.015461-0.50982-0.024243-0.53049-0.10225-0.29249-0.090637-0.47254-0.19312-1.0312-0.49741-0.27619-0.10032-0.41538-0.086367-0.2453-0.00678-0.27629 0.034947-0.24946 0.067524-0.38939 0.16443-0.31376 0.17409-0.95441 0.60919-0.42394 0.21641-0.34419 0.13322-0.48583 0.10677-0.27114 0.005637-0.35374-0.057483-0.39123-0.16762-0.33903-0.25328-0.34178-0.34956-0.54843-0.66452-0.97734-1.2586-1.6934-2.3307-0.64881-0.7941-0.36401-0.38711-0.4147-0.38857-0.46663-0.37944-0.44305-0.3159-0.9934-0.59696-3.7754-1.8552-3.7327-1.941-0.58768-0.2748-0.93912-0.3738-0.49716-0.15964-0.84779-0.21606-1.3926-0.25056-0.53395-0.071095-1.6139-0.15175-0.93044-0.045639-0.55276-0.003237-0.95321 0.053524-0.76492 0.11545-0.89712 0.22752-0.83688 0.35415-0.75123 0.5038-0.69129 0.63951-0.8619 1.0326-0.79741 1.1746-0.72813 1.2327-0.6985 1.2923-2.3709 4.6252-1.2626 2.355-0.41045 0.71716-0.57955 0.85572-0.68489 0.76849-0.54029 0.45379-0.85787 0.53772-1.1001 0.50836-0.74484 0.27767-0.77815 0.25328-1.5419 0.43351-3.2029 0.85425-1.1049 0.36517-1.4165 0.55281-0.78701 0.34547-0.9248 0.45735-0.40183 0.25056-0.19405 0.18008-0.018438 0.10395-0.10546-0.09208-0.031867-0.15409 4.77e-4 -0.23215 0.053002-0.39977 0.42246-2.0012 0.077861-0.55526 0.04474-0.65391-0.035194-0.71093-0.08009-0.42158-0.17308-0.5118-0.18711-0.37715-0.22522-0.35819-0.56901-0.69925-0.34934-0.35752-0.74388-0.67996-1.9782-1.6378-0.85284-0.77604-0.42159-0.44175-0.48285-0.58417-0.26665-0.36684-0.42012-0.67799-0.22326-0.43225-0.22037-0.50152-0.30558-0.91933-0.14791-0.62892-0.33414-2.0563-0.1785-0.91949-0.32687-1.1849-0.20199-0.57259-0.41003-0.97993-0.62055-1.2491-0.76131-1.3608-1.5754-2.5342-0.53986-0.99808-0.42157-0.90966-0.30104-0.77227-0.21611-0.73962-0.07866-0.37287-0.29408-1.8858-0.16263-0.56577-0.38522-0.71906-0.5756-0.59008-0.30018-0.19747-0.66788-0.29043-0.54483-0.14278-0.58125-0.092385-0.64692-0.050125-0.66736-0.007745-1.4085 0.091972-0.94299 0.13712-0.90226 0.22601-0.83584 0.35453-0.36791 0.2256-0.52413 0.40976-0.34001 0.32744-0.27704 0.3095-0.39486 0.52352-0.42366 0.71333-0.34367 0.8139-0.18502 0.65935-0.14139 0.83193-0.059882 0.8408-0.039273 1.4447-0.066823 0.71143-0.066944 0.35599-0.12254 0.41132-0.14121 0.31775-0.3122 0.46752-0.41302 0.42977-0.61445 0.48981-0.99437 0.67202-0.85799 0.5191-0.69524 0.3296-0.47928 0.15684-0.60463 0.097402-0.45509-0.002419-0.47722-0.073009-0.48362-0.1421-0.46334-0.20184-0.77114-0.458-1.4021-0.99425-1.1053-0.70876-0.80809-0.42822-0.87587-0.38232-0.91153-0.3156-0.72374-0.20551-2.3614-0.53306-0.95544-0.2498-0.80663-0.27754-0.53916-0.226-0.5588-0.26683-1.2367-0.68195-0.88431-0.54339-1.9347-1.2722-0.61585-0.32518-0.82995-0.30471-0.86466-0.20085-0.87643-0.12701-1.9568-0.17974-0.52918-0.087795-0.99974-0.26672-0.63962-0.23859-0.85332-0.3916-0.88454-0.47114-3.4591-1.9421-0.78824-0.40676-0.67087-0.28481-0.70257-0.21126-0.34139-0.065811-0.76685-0.07045-0.91761 0.030721-0.835 0.11948-0.8571 0.20481-0.60434 0.18993-0.89475 0.33882-0.87998 0.38252-2.228 1.0571-1.0028 0.4537-0.71521 0.29206-0.719 0.2594-1.2847 0.36208-1.2868 0.21577-0.95927 0.067367-1.9043 0.084308-0.45526 0.046483-1.4367 0.22864-2.3297 0.45789-0.90912 0.13085-4.2154 0.39597-0.96738 0.068376-1.0781 0.036729-1.0613-0.030625-1.0992-0.097019-1.1025-0.15432-1.026-0.18868-1.0237-0.22555-1.0192-0.2569-1.3785-0.39405-1.3581-0.44052-1.3286-0.48634-0.73969-0.29818-1.527-0.68854-2.5198-1.2688-1.3994-0.56624-0.9028-0.2882-0.48088-0.11774-0.9305-0.15552-0.76346-0.069242-0.77587-0.026494-1.5164 0.052189-1.2669 0.12856-0.7996 0.11004-2.0155 0.33543-2.6614 0.48636-1.2238 0.25127-1.1853 0.27964-0.80244 0.21532-1.0401 0.3182-0.65658 0.23173-0.689 0.28021-0.95869 0.46186-2.541 1.3665-0.82974 0.41226-1.1865 0.51366-0.90005 0.32598-0.89733 0.27002-1.3144 0.29886-1.2153 0.1939-1.2524 0.13352-1.4418 0.084894-1.3018 0.015046-0.98671-0.027122-1.2633-0.095059-1.044-0.1364-0.87854-0.16419-1.2002-0.31516-1.1497-0.39457-1.0898-0.45011-1.0168-0.48456-2.2151-1.2317-0.61824-0.25744-0.79478-0.14954-0.67073 0.022461-0.69606 0.17426-0.51707 0.24358-1.4489 0.92928-0.89025 0.468-0.73278 0.29273-1.3555 0.42724-1.0402 0.26264-1.4421 0.29964-1.2576 0.2207-1.3736 0.19636-2.0923 0.20651-2.5854 0.12794-1.2725 0.11813-1.0338 0.17451-1.3167 0.32866-0.99506 0.33321-3.1957 1.3339-0.92305 0.3356-1.297 0.42004-1.4488 0.37635-0.75896 0.14481-0.73984 0.094995-0.83247 0.03429-0.78065-0.068145-0.71203-0.19502-0.747-0.42433-0.63522-0.58913-0.53342-0.7008-0.43585-0.76582-0.22035-0.48104-0.30232-0.75768-0.27443-0.79968-0.75147-2.7377-0.24073-0.61235-0.38519-0.86932-0.36502-0.74332-0.72751-1.2453-0.8708-1.2776-0.98398-1.3059-1.0734-1.331-2.339-2.7201-2.4692-2.7344-4.3576-4.6771 0.23078-0.11287 0.33588-0.33088 0.34724-0.43355 0.3617-0.53642 0.3785-0.67307 0.33556-0.7462 0.23046-0.67193 0.16928-0.70378 0.13506-1.3247-0.026719-1.3812-0.2084-2.8833-0.033414-1.0856 0.003384-1.1 0.053556-1.5614 0.095708-1.5691 0.59392-7.0368 0.11289-2.3598 0.003355-1.1138-0.042852-1.0978-0.08142-0.91898-0.12989-0.90232-0.21493-0.99657-0.29926-0.96574-0.53427-1.2193-0.66213-1.1701-0.75344-1.1332-0.81504-1.1059-3.4203-4.2791-0.94709-1.2571-0.68412-0.96675-1.5206-2.3754-0.54035-0.93319-0.48808-0.96111-0.41348-0.99158-0.26694-0.85055-0.24475-1.1659-0.12524-0.93858-0.11554-1.5094-0.094514-3.0247-0.008303-2.3107 0.081933-3.554-0.07418-1.6626-0.084151-0.80778-0.11737-0.79449-0.1406-0.72368-0.17266-0.70665-0.30724-0.97207-0.55892-1.3244-1.169-2.5002-0.70706-1.4007-0.40825-0.72451-0.80216-1.2201-0.89147-1.1859-2.1819-2.7062-0.82137-1.0773-0.75401-1.0989-0.67907-1.1831-0.52299-1.2265-0.15331-0.49802-0.2623-1.241-0.1147-0.93432-0.060714-0.93974-0.015083-0.82852 0.17294-4.4781 0.12508-1.2133 0.12315-0.61415 0.32988-1.0678 0.27364-0.69501 0.36589-0.83143 1.2793-2.7162 0.36092-0.81928 0.4086-1.0121 0.37156-1.0462 0.29496-0.95353 0.41076-1.6362 0.18482-1.1773 0.029505-1.1091-0.10239-0.75451-0.12781-0.47304-0.26129-0.61284-0.236-0.37098-0.37465-0.40894-0.45413-0.34528-0.43608-0.24454-0.40536-0.17563-0.58761-0.17365-0.44327-0.064149-0.32284-0.007087-0.32136 0.032325-0.27914 0.071108-0.29456 0.1479-0.2342 0.22757-0.19605 0.33775-0.39213 1.0872-0.20902 0.42758-0.22064 0.27544-0.3498 0.18186-0.1051 0.009417-0.2151-0.025632-0.25159-0.078816-1.6167-0.76057-0.64289-0.26807-0.8506-0.27692-0.5601-0.12443-0.84862-0.099592-0.49939-0.010927-0.973 0.064589-1.7198 0.19597-0.77991 0.017802-0.49123-0.070734-0.48464-0.22368-0.33881-0.3536-0.12934-0.275-0.09585-0.39416-0.11126-0.84151-0.095078-0.47229-0.2024-0.61174-0.26583-0.57201-0.31539-0.53479-0.34638-0.48275-0.31514-0.37639-0.4779-0.49874-2.421-2.1624-0.71531-0.72666-0.76926-0.94984-0.47289-0.70438-0.32766-0.55834-0.46246-0.93072-0.26978-0.66657-0.21461-0.64646-0.1661-0.61766-0.20439-1.0838-0.072979-0.71065-0.021002-0.55996 0.019786-0.65896 0.063479-0.57791 0.076805-0.41325 0.32098-1.035 0.47194-0.99424 0.45777-0.76209 0.84508-1.258 4.8864-6.9904 0.92665-1.2122 2.5568-3.135 0.85586-1.1147 0.74905-1.086 0.42688-0.71672 0.31438-0.61586 0.40937-1.0451 0.28311-1.1992 0.17018-1.2655 0.15796-1.9632 0.057457-1.3839 0.018303-1.6606-0.028672-1.3562-0.072703-1.3683-0.10157-1.1979-0.1246-1.1153-0.29213-1.9992 0.28022-0.1514 0.65924-0.097998 4.8004-0.36439 1.5495-0.15117 1.5673-0.1897 1.5636-0.23824 1.0143-0.1877 1.6874-0.37332 1.6581-0.42633 1.6309-0.45983 6.3326-1.8955 2.2093-0.60724 3.7922-0.99216 3.1255-0.8987 6.118-1.9203 6.0601-1.8285 1.997-0.7064 3.8587-1.5906 1.642-0.59083 0.79589-0.24274 0.91862-0.24151 1.0574-0.22399 0.83307-0.13552 0.83897-0.10024 0.90176-0.066925 0.90611-0.02465 0.91516 0.018699 0.90389 0.05781 2.9748 0.30592 4.3345 0.3348 2.2311 0.21159 3.2767 0.37966 6.9483 0.88989 1.996 0.22774 0.32638 0.010572" stroke="#bdc660"/>
    </defs>
    <g clip-path="url(#p8032fb6eb0)">
     <use y="261.026727" fill="#bdc660" stroke="#bdc660" xlink:href="#m59837ea0c3"/>
    </g>
   </g>
  </g>
 </g>
 <defs>
  <clipPath id="p8032fb6eb0">
   <rect x="7.2" y="7.2" width="357.12" height="246.63"/>
  </clipPath>
 </defs>
</svg>
