<?xml version="1.0" encoding="UTF-8"?>
<!DOCTYPE svg  PUBLIC '-//W3C//DTD SVG 1.1//EN'  'http://www.w3.org/Graphics/SVG/1.1/DTD/svg11.dtd'>
<svg width="371.52pt" height="241.47pt" version="1.1" viewBox="0 0 371.52 241.47" xmlns="http://www.w3.org/2000/svg" xmlns:xlink="http://www.w3.org/1999/xlink">
 <metadata>
  <rdf:RDF xmlns:cc="http://creativecommons.org/ns#" xmlns:dc="http://purl.org/dc/elements/1.1/" xmlns:rdf="http://www.w3.org/1999/02/22-rdf-syntax-ns#">
   <cc:Work>
    <dc:type rdf:resource="http://purl.org/dc/dcmitype/StillImage"/>
    <dc:date>2024-07-04T12:11:27.633486</dc:date>
    <dc:format>image/svg+xml</dc:format>
    <dc:creator>
     <cc:Agent>
      <dc:title>Matplotlib v3.7.1, https://matplotlib.org/</dc:title>
     </cc:Agent>
    </dc:creator>
   </cc:Work>
  </rdf:RDF>
 </metadata>
 <defs>
  <style type="text/css">*{stroke-linejoin: round; stroke-linecap: butt}</style>
 </defs>
 <g id="figure_1">
  <g id="patch_1">
   <path d="m0 241.47h371.52v-241.47h-371.52v241.47z" fill="none"/>
  </g>
  <g id="axes_1">
   <g id="PatchCollection_1">
    <defs>
     <path id="mcba7e949f3" d="m228.57-223.75 0.38439 0.16292 0.38324 0.22178 0.42447 0.3148 0.7161 0.65907 0.76936 0.83733 1.6064 1.9198 0.77274 0.86863 0.817 0.8171 0.95713 0.84522 1.7512 1.3764 0.75691 0.55411 0.60141 0.40062 0.6006 0.34342 0.39887 0.18802 0.3575 0.13851 0.40238 0.11995 0.58712 0.10221 0.64838 0.020497 0.58352-0.062972 0.5967-0.14955 0.40208-0.1651 0.33527-0.18656 0.85886-0.59011 1.1814-0.87067 0.34085-0.20692 0.49354-0.22846 0.69739-0.21596 0.80379-0.15185 1.113-0.14896 0.25419-0.005052 0.24537 0.047057 0.10725 0.049768 0.049952 0.086495 0.082666 0.26204 0.055385 0.33509 0.057614 0.73491 0.11251 2.328 0.17165 1.5746 0.2487 1.4791 0.51828 2.6048 0.44719 2.9921 0.20384 1.1857 0.26024 1.1802 0.32572 1.2037 0.38472 1.2344 0.72634 2.1093 0.72079 1.7838 0.53534 1.2051 0.43592 0.90665 0.87924 1.6404 1.8508 3.0333 0.85517 1.5468 0.75284 1.5299 0.81453 1.9558 0.40935 0.80954 0.35038 0.55347 0.27697 0.35298 0.2242 0.23562 0.49604 0.38072 0.42788 0.20959 0.39232 0.10817 0.28509 0.031412 0.6809-0.061548 0.74293-0.20668 2.568-1.0218 1.0637-0.39267 1.8544-0.60909 2.7235-0.83401 1.5344-0.52346 1.7052-0.63571 3.362-1.3133 1.4172-0.49207 1.0453-0.27663 1.4979-0.2905 1.0136-0.12152 0.57821-0.018144 0.48765 0.021963 0.70251 0.09742 0.82304 0.19596 1.3068 0.43964 1.5064 0.63114 4.6041 2.1093 0.76173 0.31031 1.456 0.54361 0.7303 0.30913 0.89904 0.48029 0.64934 0.42117 0.97926 0.7303 1.129 0.90103 0.57958 0.41701 0.40014 0.24328 0.36362 0.1772 0.44666 0.14552 0.55256 0.035837 0.25558-0.053674 0.26994-0.10972 0.19917-0.1165 0.25755-0.19418 0.496-0.48687 0.41034-0.47707 1.6524-2.1917 0.31356-0.37929 0.49056-0.47543 0.40786-0.24523 0.27378-0.092538 0.47927-0.068296 0.51674 0.00373 1.3172 0.080332 0.8753-0.022169 0.70236-0.09546 2.2714-0.46487 0.4419-0.058179 0.5457-0.033706 1.067 0.06346 3.107 0.47121 0.84882 0.15559 2.167 0.5384 2.8012 0.53283 1.9406 0.51583 1.4292 0.48478 1.8528 0.70746 0.64615 0.30421 0.29518 0.17664 0.095184 0.095358-0.86283 1.1117-0.53943 0.85318-0.27216 0.53395-0.24179 0.58433-0.22042 0.68695-0.12479 0.5179-0.092553 0.6186-0.021961 0.4469 0.015341 0.4059 0.045671 0.3768 0.15591 0.6965 0.23634 0.70272 0.29804 0.69901 0.34953 0.70361 0.91583 1.593 1.2175 1.9055 2.9377 4.42 1.1976 1.8596 1.194 1.9697 0.55073 0.97302 0.91446 1.7586 0.47322 1.0252 0.4136 1.0092 0.3713 1.0723 0.50477 1.7167 0.29444 0.79592 0.34992 0.79294 0.59671 1.1532 0.61746 1.0386 0.7224 1.0774 0.37677 0.51116 0.46432 0.58047 0.47159 0.52686 0.38176 0.3738 0.40726 0.34723 0.49365 0.37174 0.61238 0.41745 0.37868 0.29778 0.21848 0.25122 0.13397 0.28404 0.03102 0.5629-0.14329 0.65773-0.47828 1.559-0.17617 0.7935-0.10686 0.69638-0.056442 0.69159-0.002813 0.50617 0.057997 1.3438-0.004295 0.64829-0.02761 0.35472-0.078509 0.50646-0.14668 0.55157-0.45786 1.0121-0.64657 0.98098-0.77421 0.94963-0.84755 0.91566-1.6102 1.6179-0.6568 0.73239-0.50563 0.75113-0.27701 0.79891-0.027883 0.45462 0.024782 0.30024 0.086818 0.44079 0.40289 1.0689 0.67774 1.2051 0.87098 1.2578 1.0088 1.2875 1.0917 1.2831 0.8993 1.0014 2.3372 2.4844 0.22589 0.28892-0.49662 0.48556-1.9489 2.0607-0.74194 0.74941-1.012 0.97034-0.83548 0.73028-0.58162 0.39694-0.53076 0.28144-0.45364 0.19799-1.1714 0.42876-0.60788 0.27812-0.29052 0.19035-0.34829 0.33579-0.35003 0.61063-0.22295 0.73168-0.13884 0.80543-0.21642 2.0855-0.15377 0.80319-0.10046 0.388-0.11658 0.36687-0.16178 0.39821-0.24399 0.47629-0.29841 0.39187-0.46315 0.30912-0.27528 0.075374-0.37897 0.022378-0.30287-0.030022-1.7778-0.44717-2.5306-0.52262-1.0216-0.1285-0.52997-0.006868-0.24731 0.018815-0.52552 0.10631-0.64901 0.32874-0.52445 0.50694-0.37384 0.6447-0.17565 0.57891-0.31438 1.8837-0.28203 1.1133-0.18371 0.52396-0.43645 0.92432-0.56386 0.84826-1.705 2.1503-0.41395 0.59307-0.42004 0.69536-0.24504 0.47132-0.32925 0.78848-0.15081 0.45407-0.31389-0.87566-0.23776-0.52077-0.31447-0.56146-0.36195-0.52715-0.38438-0.46282-0.34306-0.35059-0.34157-0.30452-0.51491-0.39451-0.89869-0.55535-0.9386-0.46447-1.3749-0.55612-1.5841-0.52744-2.1527-0.65261-1.9666-0.68178-1.8302-0.7392-1.7073-0.756-0.81716-0.40299-0.74445-0.40381-0.71-0.4273-0.74191-0.50042-0.69624-0.52864-1.6459-1.4361-0.80588-0.66214-0.85126-0.55985-0.93623-0.42737-1.002-0.33049-2.3183-0.6512-1.2761-0.44766-1.7208-0.77242-1.268-0.64242-2.5715-1.4178-6.4596-3.7483-1.2627-0.68354-1.2369-0.61812-1.1994-0.52246-1.1466-0.3869-1.0735-0.19893-0.97398 0.057283-0.34534 0.10871-0.38556 0.19566-0.61543 0.47562-0.81161 0.85364-0.75851 0.89141-0.67932 0.85647-0.59561 0.80772-0.55832 0.8097-0.77878 1.2086-0.63848 1.0952-0.49306 1.1278-0.22738 0.90374-0.10689 0.93651-0.007363 1.0326 0.15448 2.6974 0.1547 1.712 0.19813 1.6882 0.15788 1.084 0.242 1.3725 0.30087 1.3501 0.21489 0.8005 0.24223 0.78322 0.28527 0.79574 0.32042 0.76725 0.62182 1.1985 0.37907 0.5873 2.1945 2.9346 0.55544 0.69248 1.2874 1.4486 0.38003 0.46238 0.43882 0.5924 0.39814 0.61496 0.3184 0.571 0.2814 0.5799 0.30762 0.74896 0.22906 0.74863 0.069937 0.33077 0.066184 0.56476-0.014519 0.55904-0.13048 0.63397-0.20484 0.54255-0.27596 0.53185-0.60693 0.88375-0.74806 0.86118-0.92688 0.90336-1.0196 0.88281-1.1179 0.89117-2.3604 1.7372-3.7768 2.6676-1.986 1.3428-0.89861 0.54363-0.91643 0.48774-1.1195 0.50038-1.3728 0.52437-2.7248 0.96485-1.5281 0.59159-2.026 0.8838-1.1952 0.5972-1.492 0.82912-0.72613 0.4515-0.26024 0.19107-0.074473 0.10267-0.18099-0.31736-0.64578-1.3269-0.46918-0.88515-0.67372-1.1545-0.44897-0.71762-0.89218-1.34-2.8606-4.0391-0.75769-1.1961-0.45973-0.81561-0.50662-0.99901-0.63855-1.3964-1.2758-2.9327-0.39196-0.79825-0.25153-0.42845-0.29826-0.40428-0.53536-0.5228-0.61883-0.42364-0.68009-0.32358-0.72297-0.21571-0.75039-0.092751-0.33776 0.003113-0.59199 0.062599-0.64641 0.13186-0.56537 0.16186-0.85286 0.30721-0.72325 0.29759-0.79304 0.36322-1.1065 0.61562-0.48404 0.31902-0.71879 0.5372-0.51114 0.42279-0.80605 0.7235-1.7854 1.7464-0.73237 0.66264-0.66507 0.54927-0.50543 0.38147-0.67992 0.44668-0.44803 0.26111-0.78512 0.39885-0.9529 0.40936-0.93657 0.34223-0.6306 0.183-0.43624 0.092887-0.60777 0.085247-1.3291 0.10598-0.68369 0.080637-0.46993 0.10004-0.34155 0.10846-0.57001 0.26614-0.48706 0.3311-0.38122 0.37965-0.12495 0.22689-0.004227 0.094783-9.107-1.9159-3.2873-0.73323-3.0785-0.73988-1.4258-0.37499-1.3276-0.38103-2.4035-0.7564-2.5499-0.51667-0.87482-0.27388-1.2264-0.48355-0.82425-0.28871-0.83864-0.17354-0.78696-0.018496-1.2705 0.095195-0.89749 0.016111-0.87932-0.12974-0.68691-0.26121-0.66788-0.37417-1.0769-0.78681-0.5843-0.50358-1.0108-0.93115-1.7257-1.7523-0.63158-0.56538-0.50387-0.38031-0.87081-0.51403-0.93599-0.42763-3.2351-1.1908-2.3113-1.0473-0.423-0.16237-0.49664-0.15307-0.64255-0.1256-0.53844-0.043909-0.56019 0.005231-0.86386 0.098132-0.66207 0.13278-0.68728 0.17656-2.8884 0.87568-0.4993 0.11943-0.7088 0.12298-0.90601 0.063755-0.67221-0.037615-0.51883-0.089008-0.43202-0.12075-0.41717-0.16389-0.35752-0.18358-0.66637-0.45166-0.33121-0.27701-0.56489-0.56026-0.52268-0.61725-0.467-0.63176-0.30164-0.45271-0.298-0.50194-0.27554-0.53301-0.21269-0.47815-0.20504-0.55275-0.15486-0.54936-0.030894-0.1869 0.01102-0.11534-0.16712-0.051539-0.19386 0.00618-0.45912 0.1048-0.36027 0.13331-0.41301 0.19855-0.39397 0.23655-0.37596 0.27622-0.30983 0.27499-0.30286 0.32623-0.19912 0.25929-0.24196 0.38872-0.31206 0.68702-0.20488 0.64121-0.19093 0.82988-0.45781 2.7795-0.33911 1.7383-0.23576 0.93112-0.56231 1.8058-0.11213 0.57183-0.044159 0.71027 0.052951 0.70032 0.20302 1.0471 0.52194 2.0651 0.11518 0.60111 0.073302 0.54294 0.037692 0.58912-0.016653 0.62325-0.035932 0.32534-0.15794 0.71309-0.25822 0.63704-0.1953 0.33917-0.19721 0.27697-0.2819 0.32083-0.26674 0.24432-0.30206 0.22156-0.59512 0.30098-0.41421 0.12867-0.38729 0.076954-0.61413 0.056365-0.74322-0.009653-1.2349-0.13134-2.9767-0.51523-1.6606-0.23471-1.0757-0.061956-0.64364 0.023751-0.42547 0.044914-0.57408 0.097489-0.69036 0.17296-0.41937 0.13388-1.006 0.3957-1.5814 0.75009-0.52485 0.27924-0.56556 0.34651-0.65633 0.4986-0.47399 0.47636-0.23695 0.30784-0.3092 0.53569-0.10002 0.22138-0.22489 0.62772-0.23028 0.9002-0.18159 0.93811-0.34094 2.0292-0.27621 1.1342-0.26338 0.79349-0.25981 0.6482-0.30809 0.65151-0.33314 0.62099-0.62198 1.0409-0.81902 1.2934-1.0631 1.6244-0.70172 1.0192-2.642 3.5238-0.53243 0.6402-0.69334 0.74069-0.46586 0.44082-0.54633 0.46988-0.4032 0.31901-0.78805 0.55922-1.0569 0.64039-1.6202 0.82394-4.3463 1.9689-1.9829 0.83816-1.4419 0.52184-3.121 1.0096-0.77715 0.30645-0.56369 0.30182-0.32488 0.24158-0.22914 0.23515-0.16796 0.23509-0.14985 0.2889-0.10248 0.28408-0.09761 0.49257-0.010951 0.78515 0.19357 2.525 0.014433 0.90056-0.046333 0.88318-0.11489 1.2569-0.12637 0.86469-0.57526 2.8967-0.2539 1.6611-0.063142 0.87807-0.056174 2.345-0.081093 1.111-0.17578 0.83776-0.055705 0.15918-0.1484 0.2678-0.080213 0.036758-0.68186-0.003388-0.67136 0.044025-1.3914 0.16888-0.77318 0.048748-0.32484-0.002834-0.33628-0.020422-0.61371-0.085108-0.83079-0.20401-0.97313-0.32885-0.64877-0.25521-1.2611-0.55896-1.7305-0.88846-2.477-1.4564-0.96546-0.44417-0.5535-0.1792-0.51181-0.12783-2.7584-0.48513-1.6973-0.35521-2.1602-0.38547-0.59265-0.19702-0.34836-0.21042-0.27086-0.27322-0.20322-0.33608-0.18602-0.7167 0.021358-0.80191 0.1282-0.60087 0.26063-0.81399 0.22892-0.5307 0.29689-0.51312 0.38592-0.49058 0.22599-0.23999 0.84282-0.74512 1.1619-0.84211 2.1629-1.4269 0.39736-0.29987 0.4083-0.37536 0.28841-0.34226 0.34123-0.55007 0.43273-0.99992 0.25951-0.83722 0.091289-0.42669 0.078023-0.571 0.028959-0.98992-0.089509-1.1944-0.53699-3.7189-0.10799-1.2991 0.015362-1.2681 0.051046-0.49063 0.10449-0.62328 0.43865-1.9512 0.10518-0.5965 0.11168-0.81849 0.11931-1.2544 0.30434-4.7827 0.032737-0.94949-0.020567-0.53468-0.062351-0.51491-0.12337-0.5062-0.090471-0.23914-0.21022-0.38305-0.18249-0.23552-0.17938-0.18562-0.50178-0.39586-0.5848-0.35214-2.0493-1.0466-0.89909-0.51986-0.87734-0.58871-1.0686-0.83527-1.2444-1.131-1.3513-1.3832-1.328-1.5342-1.0362-1.3186-0.76042-1.0375-0.75924-1.1169-0.56539-0.91412-0.4662-0.83368-0.54735-1.172-1.0921-2.7865-0.43883-1.0585-1.3503-3.146-0.56776-1.2501-0.55144-1.1004-0.6282-1.0782-0.61165-0.85781-0.45318-0.51567-0.48134-0.44487-0.4133-0.30254-0.87088-0.44266-0.61596-0.21404-1.9958-0.51144-0.71248-0.20732-0.8839-0.34246-0.69932-0.36839-0.64173-0.40461-2.4121-1.7229-1.4952-1.0116-1.0858-0.80846-0.45045-0.3695-0.7055-0.6422-0.37472-0.43687-0.033203-0.11162 2.4692-1.1701 1.5434-0.64632 0.88069-0.30893 0.61538-0.17563 0.47315-0.10633 0.58053-0.099201 0.54981-0.055515 0.78225-0.002555 0.83871 0.057707 0.32045 0.044244 1.3115 0.25743 0.53558 0.044227 0.63302-0.035565 0.54521-0.087476 0.49233-0.11145 0.78982-0.22735 0.81379-0.28112 0.97291-0.38192 1.2971-0.55515 6.6551-2.9681 1.5499-0.61984 2.7117-0.99704 1.0163-0.42232 4.0512-1.8495 2.5608-1.1336 1.2379-0.6454 0.92096-0.56636 1.0352-0.75031 0.50796-0.43847 0.32883-0.33593 0.2188-0.26576 0.21958-0.33254 0.16108-0.34094 0.068333-0.21151 0.075424-0.39864 0.021436-0.4125-0.047729-0.62885-0.14733-0.74336-0.22382-0.75749-0.20588-0.57124-0.58176-1.3417-0.50585-0.9748-0.57358-0.95952-0.63488-0.90549-1.2188-1.4676-1.0131-1.3489-0.82164-1.1938-0.74782-1.2485-0.39865-0.77337-0.23228-0.51159-0.24783-0.63898-0.21642-0.74457-0.10795-0.64172-0.010658-0.68334 0.06145-0.41178 0.15755-0.48957 0.13976-0.2893 0.29195-0.45226 0.33769-0.40137 0.26803-0.26693 0.51341-0.43335 0.57968-0.40784 0.60618-0.36378 0.66611-0.34564 0.77508-0.34706 1.3562-0.54535 0.4203-0.19121 0.67704-0.36129 0.57429-0.386 0.5687-0.45444 0.43266-0.38354 0.48808-0.50422 0.2688-0.33592 0.28506-0.44215 0.25865-0.55406 0.27863-0.89722 1.1762-5.1179 0.47417-2.6229 0.18795-0.76879 0.24563-0.73056 0.33581-0.67181 0.40821-0.54652 0.43296-0.40932 0.40015-0.29205 0.68973-0.39688 0.72532-0.34223 0.85251-0.33316 0.78352-0.25132 1.3197-0.37356-0.36439-0.08849-3.6779-1.2561-3.2314-1.0701-3.3084-1.0116-1.6301-0.44611-1.6014-0.38565-1.5674-0.30569-1.5293-0.20076-1.4868-0.063526-1.4389 0.11542-0.71838 0.14158-0.80454 0.21609-0.91998 0.29851-1.3166 0.49078-1.2513 0.51402-4.5916 2.034-1.2854 0.53942-2.6266 1.0218-1.6178 0.53579-1.0624 0.21571-0.4719 0.040255-0.64243 0.012318-1.8997-0.050174-0.76134 0.013648-0.55668 0.042687-0.86695 0.1339-2.4546 0.55428-0.88742 0.15681-1.7009 0.14876-0.86593 0.043361-0.80438-0.008652-0.79295-0.090328-0.55318-0.12911-0.84786-0.29083-0.52463-0.22083-2.2615-1.0733-1.0525-0.46319-1.3454-0.50286-0.77389-0.31612-0.38119-0.18333-0.6678-0.38325-0.92012-0.62805-2.3961-1.8605-1.265-0.90545-0.73671-0.4408-0.58734-0.29067-0.48922-0.19395-0.72683-0.19263-0.46584-0.056709-0.29002-0.011812-0.596 0.024964-0.38183 0.047922-0.55233 0.10936-0.57621 0.15426-2.3018 0.71984-0.72406 0.15412-0.62228 0.066608-0.64437-0.00901-0.74954-0.10223-0.79794-0.20716-0.71597-0.26966-1.0739-0.54094-2.8494-1.6072 0.086766-0.07602 0.08445-0.16882 0.20719-0.64966 0.46019-2.07 1.1672-4.534 0.27874-1.2076 0.18024-1.0149 0.17665-1.3779 0.19464-1.7845 0.19276-2.355 0.12671-0.62889 0.19634-0.54674 0.16723-0.31239 0.33566-0.45252 0.29637-0.30968 0.62236-0.52366 1.6271-1.1577 0.98394-0.76622 0.49553-0.427 0.65015-0.61325 0.92913-0.98306 0.74126-0.87166 0.89793-1.1601 0.62522-0.92243 1.2448-2.0745 0.42385-0.57774 0.38634-0.43992 0.32101-0.31246 0.45662-0.37001 0.70877-0.44127 0.81403-0.39098 2.6002-1.1035 2.564-1.2089 2.3265-1.2245 1.101-0.66439 0.74998-0.50661 0.7594-0.55332 0.5504-0.45568 0.77898-0.76645 0.99551-1.1541 2.0499-2.6067 0.43709-0.48363 0.4381-0.43084 0.36487-0.3175 0.33271-0.25788 0.90438-0.58354 1.6188-0.9195 2.2406-1.3163 0.94238-0.49906 1.0834-0.48572 0.4811-0.17656 0.85471-0.24759 1.4004-0.29004 1.3008-0.17466 0.69585-0.048596 1.564-0.04897 0.60891-0.063116 0.45741-0.096822 0.62506-0.2293 0.45118-0.24684 0.41852-0.3095 0.35456-0.34219 0.34716-0.42026 0.46739-0.72684 0.3749-0.74109 0.37905-0.90678 0.2959-0.9334 0.11635-0.54421 4.0998 3.708 0.81702 0.67742 0.5228 0.40009 0.80377 0.55377 1.0306 0.60186 0.72774 0.35884 1.0062 0.422 1.0136 0.35495 0.77915 0.22709 0.7304 0.174 0.99241 0.18064 3.34 0.48908 0.84446 0.17178 0.95546 0.249 0.82375 0.26564 0.73159 0.29009 2.0404 0.94818 0.92854 0.38614 1.5017 0.53068 1.0463 0.30364 0.83212 0.1792 0.59981 0.084555 0.93207 0.08399 1.857 0.1172 1.208 0.13498 0.73507 0.14171 0.44944 0.1218 0.55595 0.19102 0.60771 0.25996 0.84547 0.45444 0.59102 0.3864 0.75012 0.57811 0.70433 0.63044 0.75282 0.76233 0.98028 1.117 0.72644 0.9285 0.91375 1.3431 0.24204 0.30201 0.14662 0.13831 0.47955 0.23311 0.24927 0.013947 0.21876-0.039453 0.19407-0.070154 0.31944-0.1764 0.39599-0.31926 0.28354-0.30871 0.30016-0.4204 0.26671-0.47441 0.22108-0.50175 0.19929-0.65284 0.074314-0.42013 0.03755-0.6095-0.12051-2.9481 0.002643-0.93077 0.039009-0.79535 0.43471-4.9765 0.13369-1.0178 0.17977-0.80683 0.12062-0.36419 0.16659-0.38126 0.50137-0.74485 0.42526-0.44933 0.85195-0.75132 0.36471-0.25866 0.47057-0.22793 0.48676-0.11974 0.55736-0.02905 0.37842 0.036832 0.3473 0.072043 0.55274 0.19583 0.29597 0.15392 0.46135 0.32533 0.74026 0.64861 0.48247 0.37059 0.43791 0.23464 0.34592 0.1158 0.65268 0.11433 0.86538 0.037821 0.78874-0.018533 1.1217-0.054525 2.2049-0.15899 2.6055-0.096221 2.5351-0.008268 1.7047 0.10298 1.4638 0.19642 4.3306 0.83079 5.4863 0.91527 2.1336 0.3306 1.051 0.12801 1.1476 0.092082 0.83278 0.028999 1.1261-0.024451 0.86448-0.070435 1.1213-0.15396 4.422-0.83488 1.409-0.31437 1.3267-0.39192 1.1229-0.39866 1.1772-0.46087 2.6407-1.1255 6.7698-3.1253 1.2406-0.59506 2.0785-1.0766 1.2338-0.56576 0.60223-0.24226 1.1663-0.38033 2.4589-0.70151 0.83933-0.19813 1.4951-0.30499 0.051628-0.091742 0.10829-0.06992 0.5097-0.17453 0.78776-0.15359 0.73181-0.077641 1.0946-0.035198 2.8177 0.084018 1.3514-0.005462 3.3557-0.12591 1.5786-0.10456 1.1487-0.14765 0.74224-0.14575 0.88363-0.22407 1.1618-0.3514 0.82793-0.30884 0.66327-0.30174 0.53315-0.29989 0.4968-0.32795 0.75502-0.54964 0.8625-0.674 3.7862-3.1585 1.1187-0.81552 0.72583-0.45371 0.94686-0.50803 1.6664-0.83216 0.64197-0.29246 0.72705-0.2916 0.52545-0.1835 0.75798-0.2141 0.84695-0.15601 0.72167-0.068213 0.82424-0.010218 2.2527 0.10437 1.1277 0.006064 1.0937-0.072813 1.7022-0.22516 0.7053-0.033661 0.39207 0.017332 0.50528 0.072663 0.41385 0.11546" stroke="#bdc660"/>
    </defs>
    <g clip-path="url(#p93b820fd64)">
     <use y="241.47464" fill="#bdc660" stroke="#bdc660" xlink:href="#mcba7e949f3"/>
    </g>
   </g>
  </g>
 </g>
 <defs>
  <clipPath id="p93b820fd64">
   <rect x="7.2" y="7.2" width="357.12" height="227.07"/>
  </clipPath>
 </defs>
</svg>
