<?xml version="1.0" encoding="UTF-8"?>
<!DOCTYPE svg  PUBLIC '-//W3C//DTD SVG 1.1//EN'  'http://www.w3.org/Graphics/SVG/1.1/DTD/svg11.dtd'>
<svg width="371.52pt" height="278.28pt" version="1.1" viewBox="0 0 371.52 278.28" xmlns="http://www.w3.org/2000/svg" xmlns:xlink="http://www.w3.org/1999/xlink">
 <metadata>
  <rdf:RDF xmlns:cc="http://creativecommons.org/ns#" xmlns:dc="http://purl.org/dc/elements/1.1/" xmlns:rdf="http://www.w3.org/1999/02/22-rdf-syntax-ns#">
   <cc:Work>
    <dc:type rdf:resource="http://purl.org/dc/dcmitype/StillImage"/>
    <dc:date>2024-07-04T12:11:30.815876</dc:date>
    <dc:format>image/svg+xml</dc:format>
    <dc:creator>
     <cc:Agent>
      <dc:title>Matplotlib v3.7.1, https://matplotlib.org/</dc:title>
     </cc:Agent>
    </dc:creator>
   </cc:Work>
  </rdf:RDF>
 </metadata>
 <defs>
  <style type="text/css">*{stroke-linejoin: round; stroke-linecap: butt}</style>
 </defs>
 <g id="figure_1">
  <g id="patch_1">
   <path d="m0 278.28h371.52v-278.28h-371.52v278.28z" fill="none"/>
  </g>
  <g id="axes_1">
   <g id="PatchCollection_1">
    <defs>
     <path id="m69b3e78fbb" d="m160.9-240.34 1.339 0.046516 0.9767-0.011641 0.95843-0.0596 0.76388-0.090442 4.258-0.85556 0.88732-0.14445 1.9401-0.21192 0.82948-0.039644 1.1491-0.005133 1.1471 0.046817 1.4156 0.12252 1.2 0.1555 2.0862 0.36219 2.3278 0.49076 11.538 2.7412 6.9754 1.612 5.8753 1.2666 3.7327 0.6715 0.41595 0.099665 0.76706 0.24333 1.0902 0.48467 0.96345 0.5794 0.98232 0.76551 1.015 0.99625 1.137 1.3363 1.1821 1.5799 1.6216 2.3633 2.0096 3.176 0.54541 0.79606 0.89159 1.1846 0.78163 0.91065 1.0467 1.0256 0.66632 0.54041 0.69632 0.48784 1.0646 0.6213 1.1017 0.50631 1.3136 0.43469 1.3231 0.24511 1.3117 0.02196 0.41656-0.047062 0.84567-0.17481 1.37-0.47114 0.79615-0.35518 2.2509-1.1503 0.81315-0.36289 0.83543-0.25882 0.70859-0.10479 0.82079-0.001556 0.6715 0.078933 0.94049 0.2078 0.7633 0.23785 1.3877 0.5665 0.69584 0.34492 0.90218 0.49987 1.8066 1.1294 4.8049 3.2881 1.6218 1.0433 1.9151 1.1333 3.8154 2.1526 1.1593 0.71135 1.0748 0.73836 0.84274 0.67709 0.73028 0.72215 0.77396 1.1097 0.12586 0.26842 0.27698 0.91636 0.11246 1.3526-0.073991 1.1153-0.18189 1.1612-0.35046 1.5254-0.2483 0.89721-0.83104 2.6039-1.7703 5.0328-0.96791 2.938-0.55286 1.9263-0.24722 0.9924-0.44655 2.2345-0.2813 1.8853-0.22018 1.8963-0.28628 3.3657-0.27731 4.5834-0.40224 8.9218-0.22312 6.3661-0.12516 5.4285-0.003329 5.1359 0.12547 3.6188 0.10992 1.9227 0.22263 2.9847 1.3363 14.028 0.19083 1.5528 0.23811 1.3953 0.30177 1.1699 0.13218 0.32512 0.053518 0.044576 0.13497 0.019479 0.82988 0.34964 1.721 0.83317 0.86563 0.46763 1.9189 1.1614 1.7736 1.2479 3.3167 2.6211 1.4173 1.064 1.5019 1.0702 2.1256 1.4667 0.57925 0.3093 0.49344 0.11695 0.4784-0.17455 0.15316-0.17862 0.17662-0.36637 0.11663-0.40557 0.35518-2.1911 0.21651-0.95997 0.26072-0.71062 0.2694-0.46955 0.22297-0.27051 0.33358-0.28311 0.46823-0.25866 0.45936-0.16086 0.43308-0.090605 1.006-0.053378 1.3011 0.067176 1.4387 0.18862 1.5231 0.3366 1.6126 0.52087 0.89369 0.34348 2.0751 0.88798 4.1837 1.8628 1.5211 0.61348 1.5301 0.54585 1.4385 0.42568 1.0435 0.24322 1.2591 0.20864 1.3547 0.12154 0.71797 0.021734 1.6629-0.06779 1.209-0.15388 1.0618-0.18144 1.0493-0.2435 0.55116-0.16466 1.6499-0.60119 2.0979-0.9213 1.9715-0.96575 4.1103-2.1087 1.4001-0.62898 1.28-0.42252 1.0545-0.20292 1.1376-0.094256 0.85256-0.002355 0.86098 0.042627 3.8907 0.39306 4.4328 0.23498 1.4447 0.14125 2.8701 0.35213 1.4008 0.14397 2.4568 0.19876 0.81881 0.11251 0.91251 0.19895 0.78423 0.25785 0.72909 0.31748 0.44097 0.23011 0.71129 0.4383 0.53132 0.39444 0.34452 0.31835 0.12428 0.20958-0.22421 0.37858-0.53844 0.76688-1.5479 2.0562-1.7424 2.1203-1.3669 1.5386-2.1828 2.2807-4.2863 4.237-1.7007 1.7418-5.0646 5.3119-1.1927 1.3356-0.69677 0.83836-0.82593 1.0563-1.1388 1.5827-5.5067 8.2669-1.22 1.976-0.90287 1.6336-0.37113 0.75802-0.52581 1.2673-0.14155 0.41992-0.21506 0.81487-0.12714 0.95302-0.008896 0.50054 0.06961 0.984 0.1001 0.7099 0.23807 1.241 0.33855 1.4181 1.6786 5.9503 0.43135 1.6689 0.30941 1.4182 0.14525 0.8349 0.15107 1.4213 0.011109 0.57851-0.096811 1.689 0.046484 0.22947 0.12664 0.081139-0.21176 0.21882-0.3118 0.084615-0.35112-0.027686-0.28905-0.094109-0.27249-0.14606-0.38289-0.303-0.48906-0.51416-1.1681-1.3861-0.64429-0.67921-0.53797-0.51047-0.57149-0.49537-0.90117-0.6952-0.95157-0.62928-0.82223-0.45886-0.97061-0.43715-1.0022-0.3213-1.1691-0.19791-0.67215-0.043068-0.6804-0.003751-1.4049 0.087938-1.7319 0.23318-1.2251 0.22041-3.5326 0.77974-10.497 2.6414-3.2995 0.76486-1.5611 0.31511-1.9805 0.31198-1.1104 0.093287-1.035-0.00982-0.95268-0.15338-0.76839-0.31698-0.7208-0.61523-0.41211-0.53026-1.3291-2.1566-0.40007-0.56611-0.61692-0.72495-0.58463-0.58219-0.66339-0.57982-0.5553-0.4317-0.63716-0.43736-0.921-0.50827-0.68722-0.25988-0.37006-0.085068-0.52186-0.037931-0.77718 0.14788-0.71775 0.33398-0.6201 0.42959-0.27221 0.2386-0.29392 0.3424-0.10884 0.26945-0.10519-0.11644-0.57114-0.25472-0.3588-0.10989-0.72742-0.15393-0.79429-0.08286-2.7599-0.17028-0.83651-0.02068-0.93595 0.032066-4.2226 0.4297-0.9589 0.044948-0.9884-0.035992-0.60667-0.085336-0.51658-0.12255-0.50323-0.15795-2.2141-0.85889-0.45741-0.14611-0.75398-0.1645-0.48196-0.042701-0.93761 0.026004-2.5564 0.30544-0.64028 0.009599-0.49974-0.062293-0.35367-0.099478-1.4625-0.64893-3.0458-1.1667-0.63246-0.28506-0.78278-0.40147-0.59644-0.35251-0.61586-0.42284-0.34622-0.2755-0.52186-0.48517-1.2185-1.2713-0.53905-0.46026-0.669-0.43943-2.4434-1.2743-0.44801-0.27052-1.8287-1.3068-0.60432-0.35736-0.36942-0.17142-0.58278-0.20918-0.88462-0.21481-0.40562-0.036227-3.3808 0.61537-1.6956 0.25166-1.2967 0.15839-2.0951 0.15406-1.3047 0.006401-1.4767-0.096316-1.9356-0.28632-2.7833-0.57864-2.1964-0.55462-2.2849-0.70091-2.7615-1.0449-1.2538-0.42061-1.6005-0.43604-3.3288-0.81931-1.0783-0.32683-0.89922-0.33256-1.0296-0.46909-1.005-0.53548-1.2181-0.71755-3.8543-2.4438-2.5787-1.5848-0.8774-0.59844-1.8597-1.4925-0.5936-0.40204-0.29104-0.13758-0.28523-0.081047-0.25227-0.018004-0.28486 0.046947-0.29553 0.13806-0.19651 0.15929-0.21286 0.27132-0.14778 0.31235-0.061599 0.20702-0.089578 0.62624-0.013993 0.48956 0.030265 0.82203 0.25446 3.0759 0.13212 2.2731 0.035073 1.5728-0.020872 1.5578-0.14418 2.7366-0.46026 5.8008-0.20902 3.1234-0.10276 2.5854-0.10399 5.1728-0.12006 2.0148-0.17698 1.6095-0.19937 1.1717-0.35907 1.4394-0.3211 0.89012-0.19826 0.43504-0.33969 0.6138-0.38427 0.57564-0.80206 0.98198-0.81208 0.81371-0.66038 0.56648-0.46179 0.35105-0.965 0.61663-0.77244 0.37693-0.50529 0.18589-0.42966 0.11751-0.79933 0.1126-0.63817-0.001526-1.0902-0.14395-0.88007-0.21161-1.322-0.4282-1.5097-0.60076-1.1054-0.4914-2.8718-1.4063-3.5154-1.8713-6.8623-3.826-3.6772-1.9974-4.1626-2.1398-2.2021-1.0646-2.051-0.93087-1.6118-0.66653-0.9829-0.36616-0.90482-0.30255-1.1115-0.31484-1.4714-0.28858-1.3579-0.052681-1.2044 0.27568-0.57397 0.32088-0.65029 0.56502-0.55024 0.67549-0.59157 0.97695-0.48567 1.0619-0.47469 1.3472-0.32132 1.2032-0.25142 1.4531-0.11199 1.4832-0.014559 0.79675 0.023631 1.2308 0.15072 2.2662 0.31903 2.9195 0.93991 7.0096 0.22776 2.3237 0.068066 1.5005-0.017533 1.0061-0.051664 0.6297-0.43055 3.3608-0.14649 0.60404-0.12332 0.30822-0.31736 0.45519-0.097536 0.089762-0.4647 0.28897-0.27337 0.1095-0.54276 0.14764-0.69214 0.10924-1.2625 0.079701-2.2524-0.02445-4.9215-0.17529-3.5547 0.009432-3.4508 0.12612-7.1692 0.38051-2.6675 0.068167-1.2314-0.001681-2.791-0.080947-1.7142-0.099861-1.1042-0.10526-0.27572-1.2329-0.32803-1.7535-0.3407-2.005-0.4013-2.7066-0.20792-1.6882-0.42552-4.6911-0.3951-3.2391-0.56588-3.9393-1.0978-7.0709-0.59576-4.0954-0.36012-2.7491-0.24651-2.6938-0.055088-1.2284 0.001599-1.5576 0.13072-1.941 0.223-1.7143 0.39921-2.0681 0.23551-0.95647 0.46093-1.5748 0.37147-1.1083 1.039-2.7823 0.34456-1.0273 0.28492-1.0267 0.18138-0.78316 0.3078-1.6984 0.14024-1.0328 0.16144-1.5653 0.10662-1.5157 0.077524-2.174 0.003684-1.9947-0.030937-1.2923-0.052235-1.1509-0.12786-1.7004-0.22066-1.7876-0.42142-2.5514-0.36627-3.6024-0.14706-0.89844-0.21766-0.91103-1.4133-5.0996-0.52824-2.4145-0.6686-3.7821-1.77-11.017-0.55223-3.0043-0.44739-2.1794-0.60263-2.5667-0.47755-1.769-0.71833-2.3137-2.0628-6.344-0.36629-1.349-0.28298-1.336-0.16078-1.3055-0.027672-0.6912 0.018167-0.70132 0.14071-1.095 0.51145-2.1349 0.06795-0.45314 0.028772-0.66941-0.057011-0.67267-0.15728-0.71439-0.23478-0.6302-0.43268-0.73599-0.64083-0.65206-0.53432-0.33226-0.64987-0.27128-0.79397-0.21908-0.80607-0.14624-0.77966-0.095894-3.2209-0.2144-0.96936-0.078403-0.94862-0.12019-1.0684-0.23158-0.63431-0.22206-0.56589-0.29311-0.46177-0.34857-0.32365-0.31941-0.37642-0.45871-0.24761-0.35396-0.86207-1.4281-0.31501-0.48781-0.25552-0.33489-0.40147-0.38944-0.29618-0.18029-0.20774-0.077042-0.4934-0.05398-0.3931 0.044226-0.40245 0.096839-0.98968 0.36149-2.0576 0.89102-1.4836 0.5995-1.1489 0.40348-0.87712 0.23304-0.422 0.078573-0.60288 0.065238-0.63616-0.009185-0.34883-0.056424-0.40884-0.1383-0.31247-0.18182-0.42522-0.39749-0.34679-0.50795-0.29717-0.62592-0.30106-0.8878-0.21622-0.84057-0.38097-1.964-1.1522-7.4899-0.48423-2.7687-0.55882-2.5699-0.61842-2.2076-0.59793-1.8123-0.49825-1.3627-0.50231-1.2577-0.42273-0.95377-0.54772-1.0812-0.45174-0.76012-0.43474-0.62478-0.37525-0.46052-0.29728-0.31659-0.7501-0.62778-1.2412-0.6304-1.4072-0.39772-0.88008-0.16147-1.5816-0.17602-2.2732-0.070147-1.3584 0.026822-1.3572 0.077427-0.93648 0.085426-1.6686 0.22508-2.6203 0.52274-0.85411 0.14276-0.6885 0.052182-0.30572-0.006258-0.40658-0.047698-0.33239-0.082021-0.44817-0.19325-0.66888-0.54408-0.54003-0.76088-0.43792-0.96819-0.2969-1.0469-0.093445-0.51756-0.072836-0.72731 3.41e-4 -0.61368 0.11524-0.53635 0.087825 0.043592 0.33635 0.037888 1.3162 0.004087 2.2156-0.15588 1.3946-0.16778 2.254-0.37841 2.0812-0.47733 1.2047-0.3315 1.1905-0.36606 2.1216-0.73646 1.9779-0.74897 1.6736-0.67694 1.5976-0.6929 1.5108-0.70819 3.1348-1.556 1.5123-0.6593 2.6275-1.0088 2.3372-0.77284 1.8748-0.53881 2.3729-0.5957 2.7569-0.5996 3.7323-0.68339 2.7715-0.41167 1.7905-0.21147 1.5832-0.13833 1.3023-0.069982 1.1622-0.02183 1.9465 0.063564 1.2864 0.11712 1.8633 0.26916 1.7685 0.34209 2.2972 0.36936 1.8104 0.20501 1.2463 0.09436 1.9426 0.059188 1.7731-0.041704 1.9204-0.1582 1.0168-0.132 2.431-0.42488 3.0751-0.71106 3.5808-1.0012 3.1456-0.98813 2.8494-0.99517 2.1721-0.84905 0.84043-0.36186 1.1228-0.53332 0.61633-0.3271 1.3657-0.8239 0.88186-0.61952 0.59882-0.48993 0.60361-0.58198 0.48991-0.55505 0.52787-0.70869 0.44906-0.72755 0.51569-0.99304 0.39627-0.91987 0.37321-1.0838 0.2411-0.9307 0.13609-0.72789 0.11753-1.0296 0.057759-1.708-0.024252-1.2319-0.21228-5.4744-0.082299-3.2679-0.00361-1.4262 0.035683-1.0615 0.13803-1.8419 0.15916-1.4057 0.23673-1.6611 0.34151-2.009 0.82387-4.0936 1.4313-6.2059 1.7351-7.0306 0.28249-0.091109 0.4699 0.17409 0.59983 0.39068 0.65359 0.55832 0.9525 0.97743 3.5532 4.1438 1.4389 1.4968 0.52414 0.47501 0.76694 0.62351 0.40089 0.29756 1.5258 1.0042 1.4012 0.79046 1.4426 0.72331 1.1957 0.549 2.362 0.9951 2.1768 0.8464 3.2438 1.1775 3.7977 1.3052 2.5905 0.81343 1.4525 0.39266 1.5843 0.35919 1.4874 0.27087 2.1251 0.27127 1.3612 0.10691" stroke="#bdc660"/>
    </defs>
    <g clip-path="url(#pc206b649ec)">
     <use y="278.276604" fill="#bdc660" stroke="#bdc660" xlink:href="#m69b3e78fbb"/>
    </g>
   </g>
  </g>
 </g>
 <defs>
  <clipPath id="pc206b649ec">
   <rect x="7.2" y="7.2" width="357.12" height="263.88"/>
  </clipPath>
 </defs>
</svg>
