<?xml version="1.0" encoding="UTF-8"?>
<!DOCTYPE svg  PUBLIC '-//W3C//DTD SVG 1.1//EN'  'http://www.w3.org/Graphics/SVG/1.1/DTD/svg11.dtd'>
<svg width="294.53pt" height="280.51pt" version="1.1" viewBox="0 0 294.53 280.51" xmlns="http://www.w3.org/2000/svg" xmlns:xlink="http://www.w3.org/1999/xlink">
 <metadata>
  <rdf:RDF xmlns:cc="http://creativecommons.org/ns#" xmlns:dc="http://purl.org/dc/elements/1.1/" xmlns:rdf="http://www.w3.org/1999/02/22-rdf-syntax-ns#">
   <cc:Work>
    <dc:type rdf:resource="http://purl.org/dc/dcmitype/StillImage"/>
    <dc:date>2024-07-04T12:11:33.794647</dc:date>
    <dc:format>image/svg+xml</dc:format>
    <dc:creator>
     <cc:Agent>
      <dc:title>Matplotlib v3.7.1, https://matplotlib.org/</dc:title>
     </cc:Agent>
    </dc:creator>
   </cc:Work>
  </rdf:RDF>
 </metadata>
 <defs>
  <style type="text/css">*{stroke-linejoin: round; stroke-linecap: butt}</style>
 </defs>
 <g id="figure_1">
  <g id="patch_1">
   <path d="m0 280.51h294.53v-280.51h-294.53v280.51z" fill="none"/>
  </g>
  <g id="axes_1">
   <g id="PatchCollection_1">
    <defs>
     <path id="m692164c813" d="m206.99-241.37 1.649 4.0272 2.1162 5.4477 0.69056 1.6827 0.67842 1.5087 0.98244 1.9196 0.64744 1.1117 0.87199 1.3424 0.85896 1.1803 0.8669 1.0754 1.1302 1.2709 1.0184 1.0562 7.7519 7.5068 0.93145 0.85192 1.1333 0.95994 1.2436 0.95349 0.61606 0.43722 1.3811 0.91138 1.5198 0.92714 4.0087 2.3568 1.6736 1.0635 0.84166 0.5724 1.831 1.3368 3.5208 2.7362 6.2333 4.7291-0.09446 2.2491 0.008243 0.77494 0.039214 0.5692 0.13183 0.88671 0.15482 0.61519 0.25999 0.71614 0.29508 0.64456 0.33435 0.62992 0.44364 0.71553 0.25592 0.3659 0.68081 0.86439 1.5063 1.7101 0.72054 0.87962 0.88684 1.2155 0.30697 0.476 0.38741 0.68482 0.25726 0.58873 0.10297 0.338 0.075879 0.43851 0.008406 0.27619-0.0277 0.27159-0.10243 0.36629-0.16721 0.35377-0.3754 0.54478-0.3277 0.37046-0.43102 0.42133-0.57461 0.49725-0.89004 0.66766-0.78553 0.49911-1.1324 0.60502-2.5715 1.236-1.0202 0.56401-0.39222 0.26004-0.29887 0.22826-0.45195 0.41456-0.34407 0.3653-0.30053 0.38523-0.27396 0.50524-0.076765 0.22804-0.066502 0.35677-0.018137 0.38086 0.04021 0.58374 0.22157 1.2211 0.49359 2.1128 0.34916 1.8159 0.19072 1.6275 0.08219 1.1207-0.010108 0.34093 0.071606-0.029241 0.15263 0.023806 0.22853 0.1879 0.26076 0.37859 0.31478 0.66653 0.21482 0.62276 0.14017 0.50604 0.51267 2.4395 0.13474 0.48122 0.20841 0.53372 0.21094 0.39395 0.27052 0.37401 0.22529 0.23266 0.15198 0.12497 0.48809 0.2614 0.63907 0.10262 0.68303-0.054819 1.7536-0.30456 0.50603-0.029482 0.62143 0.047985 0.66371 0.17733 0.75238 0.34049 0.74102 0.45168 0.59933 0.42963 1.8258 1.4149 0.70874 0.49959 0.91246 0.53454 1.1746 0.61783 0.45206 0.28885 0.41135 0.32427 0.46205 0.45188 0.28872 0.33866 0.33767 0.46916 0.21725 0.3618 0.23382 0.46583 0.55698 1.2399 0.45705 0.82429 0.3266 0.50596 0.32274 0.42702 0.3865 0.44514 0.54857 0.54982 0.62519 0.54188 0.84417 0.62109 0.61872 0.38272 1.4548 0.76198 0.4294 0.25827 0.42587 0.29702 0.37937 0.34039 0.35477 0.46102 0.17289 0.312 0.18066 0.43877 0.087325 0.29474 0.098913 0.48944 0.063824 0.80801-0.017033 0.55013-0.072469 0.69884-0.19126 1.0556-0.23723 0.93118-0.35118 1.1374-1.3606 4.0885-0.30588 1.1113-0.20256 0.91591-0.2072 1.3785-0.092867 1.2659-0.011626 0.9322 0.025885 0.69726 0.063835 0.56509 0.031087 0.092709 0.043211 0.03007-0.12856 0.13754-0.10008 0.15834-0.47976 0.94377-0.28183 0.69956-0.23584 0.73623-0.23367 1.1928-0.038687 0.55684 0.033062 0.99641 0.067431 0.48575 0.26956 1.0887 0.18593 0.53734 0.33816 0.81569 1.1232 2.426 0.4905 1.323 0.17425 0.61668 0.19771 0.84257 0.4007 2.0344 0.15443 1.0203 0.15715 1.3742 0.055392 0.87742 0.003911 0.67558-0.042935 0.66342-0.10421 0.75836-0.2268 0.94478-0.35602 0.88885-0.3975 0.66608-0.59355 0.74802-0.64186 0.64996-0.60384 0.52459-0.90578 0.68879-0.55527 0.38342-1.0827 0.68198-0.77848 0.43456-0.76094 0.36254-1.221 0.44158-1.6934 0.48331-3.1601 0.83804-1.9916 0.64268-1.0879 0.40697-1.1071 0.47234-1.1256 0.5658-0.67219 0.38855-0.85088 0.55428-0.73933 0.54672-0.64182 0.53641-0.65942 0.63563-0.51969 0.58388-0.55634 0.74615-0.43692 0.7453-0.24307 0.55594-0.25183 0.90848-0.11124 0.87185-0.01671 0.85481 0.055562 0.84661 0.1143 0.83132 0.13588 0.69892 0.93094 4.0392 0.15405 0.75631 0.10004 0.66295 0.041994 0.50827-0.00131 0.58844-0.038802 0.40689-0.11153 0.6039-0.18979 0.68246-0.22083 0.61699-0.22889 0.53454-0.41408 0.82901-1.4058 2.5007-0.64423 1.224-0.55907 1.2244-0.38722 1.0129-0.41215 1.2903-0.3427 1.3754-0.15472 0.88248-0.053472 0.44637-0.043339 1.0487 0.030136 0.61365 0.12657 0.8955 0.10781 0.44625 0.15908 0.49424 0.29615 0.7124 0.48042 0.9117 0.3692 0.59624 0.57054 0.82506 1.5248 2.0113 0.22329 0.34854 0.008031 0.090151-2.2216 1.1158-0.69521 0.37113-1.3474 0.78244-1.308 0.88728-0.60312 0.47676-0.84866 0.76882-0.81506 0.88169-0.5193 0.67543-1.4066 2.085-0.66085 1.1482-0.33632 0.70822-0.82011 1.8419-0.4556 1.1396-0.30738 1.0061-0.20991 0.82136-0.43829 2.0807-0.29098 0.94576-0.64564 1.8696-0.48026 1.8028-0.21393 0.97391-0.24277 0.94658-0.36385 0.8946-0.41225 0.64388-0.50311 0.60268-0.42972 0.44077-1.1239 1.001-2.0384 1.6078-1.0342 0.70552-0.59579 0.33114-0.50496 0.23515-0.55434 0.20884-0.36321 0.10819-0.44358 0.099443-0.68319 0.074822-0.4438-0.011125-0.55722-0.098026-0.4035-0.13252-0.90278-0.45045-1.8541-1.2106-0.99303-0.51142-3.0234-1.3249-0.74934-0.39824-0.96456-0.63562-0.94482-0.72715-1.9037-1.5583-0.99726-0.75088-0.92802-0.60439-0.48829-0.27694-0.92463-0.46052-1.1508-0.49314-3.4907-1.2882-2.0521-0.79566-0.64363-0.28193-1.1421-0.60638-0.66233-0.46477-0.52772-0.47152-0.48558-0.52762-0.55983-0.72684-0.51687-0.78424-0.66947-1.1563-1.1297-2.0909-0.87566-1.5596-0.57763-0.9356-0.78378-1.1012-0.53332-0.63901-0.72242-0.7773-2.6096-2.5822-0.69851-0.73915-0.71326-0.82831-0.75918-0.96814-0.58006-0.79086-2.055-3.0135-0.67029-0.94415-1.0614-1.3437-0.73846-0.79139-0.85315-0.77595-0.70079-0.53984-0.62095-0.40694-0.67784-0.3679-0.66037-0.28037-0.60826-0.18646-0.45131-0.090866-0.64797-0.053731-0.52622 0.025902-0.49277 0.075967-0.73125 0.19166-0.62031 0.21894-0.76254 0.32337-0.83029 0.40655-1.1729 0.6494-1.2776 0.78489-0.82245 0.53759-3.4531 2.4027-0.26216 0.16612-0.21943 0.068256-1.1116 2.7155-0.47566 1.0345-0.76848 1.4813-0.33248 0.50824-0.25787 0.30156-0.40507 0.33164-0.42061 0.23699-1.0281 0.47229-0.88222 0.31828-0.62442 0.34684-1.4688 1.0112-1.3307 1.0481-0.96965 0.72384-0.049202-0.064785-0.12603-0.028277-0.51198 0.001809-0.8421 0.097774-0.87301 0.15886-0.72404 0.17341-1.0474 0.30724-1.831 0.64711-1.5511 0.63348-2.1191 0.96825-3.2853 1.5889-4.7425 2.3379-1.3631 0.57473-0.54885 0.17805-0.49767 0.084489-0.22391-0.002438-0.43269-0.10486-0.4436-0.30136-0.36302-0.45105-0.29136-0.55466-0.12372-0.3169-0.13267-0.46843-0.09183-0.4991-0.067593-0.61819-0.12973-1.9556-0.011764-1.3603 0.037415-0.87698-0.024322-1.0648-0.083823-0.55685-0.12089-0.51621-0.1763-0.55724-0.27083-0.65229-0.39117-0.72251-0.54874-0.76072-0.50134-0.51244-0.5636-0.4038-0.72547-0.30861-0.79302-0.18421-0.83975-0.11117-0.65301-0.057438-0.66982-0.021497-0.93969 0.052075-3.1752 0.41025-2.0154 0.16988-1.3146 0.1788-1.3605 0.23751-3.9415 0.84302-1.2916 0.22221-1.2634 0.12843-1.2228-0.011288-0.86047-0.11611-1.3755-0.30959-1.8899-0.54416-0.93586-0.23655-0.93465-0.14814-0.8508-0.026894-0.85094 0.052231-0.77244 0.094708-1.1379 0.21072-0.83987 0.20424-3.5673 0.98675-0.51855 0.18914-0.26496 0.13528-0.30281 0.20304-0.28493 0.261-0.41992 0.60826-0.16242 0.33573-0.20303 0.5125-0.47717 1.3702-0.23883 0.51345-0.38664 0.58213-0.22798 0.26452-0.60452 0.50741-0.70065 0.34311-0.32544 0.087633-0.27669 0.043724-0.30211 0.015102-0.48215-0.049075-0.36229-0.098871-0.28538-0.1175-0.30461-0.16116-0.43874-0.28668-1.8672-1.4715-0.48892-0.28174-0.26509-0.032022-0.025036-0.16199-0.10991-0.27504-0.50965-1.034-0.68062-1.1636-0.82864-1.2153-0.93328-1.1652-0.53824-0.58973-0.74121-0.72664-0.7794-0.67566-0.84795-0.64842-1.0223-0.67527-0.84008-0.47718-0.89854-0.43639-1.1407-0.44864-1.1878-0.34179-0.96561-0.17594-1.117-0.067169-0.21707 0.007384-0.7897 0.082139-0.68136 0.12969-1.7789 0.44765-1.0295 0.30077-0.96804 0.36462-1.1634 0.54242-0.54872 0.29094-1.149 0.68034-1.1484 0.78004-2.0098 1.5084-0.62459 0.44221-0.67753 0.42486-0.69237 0.39006-0.73475 0.37762-0.94708 0.40382-1.1059 0.34449-1.1524 0.2552-1.1737 0.19588-3.9764 0.52077-0.67894 0.05617-2.0893 0.090889-0.82196 0.019064-0.80908-0.037715-0.64888-0.094135-0.64087-0.13533-0.67883-0.17389-0.82699-0.28177-1.0465-0.46083-0.93197-0.50588-0.57798-0.37462-0.69123-0.56568-0.32197-0.31901-0.8492-0.97967-0.70104-0.98679-0.60451-1.0783-0.39235-0.91288-0.42678-1.2313-0.6485-2.2115-0.23748-0.68383-0.24162-0.59539-0.30114-0.60222-0.35172-0.53737-0.34389-0.40425-0.36008-0.34996-0.53721-0.44069-0.6073-0.42056-0.73509-0.43544-1.0742-0.55142-2.5625-1.1458-4.2334-1.7605-0.85567-0.38676-1.2692-0.63188-0.92233-0.52104-1.0316-0.68099-0.44003-0.34753-0.48445-0.45968-0.34766-0.42676-0.21419-0.34833-0.15755-0.34875-0.12459-0.40416-0.056078-0.27972-0.049158-0.62955 0.021294-0.43572 0.10894-0.65364 0.11506-0.40762 0.27728-0.67077 0.41652-0.68088 0.20515-0.26169 0.36916-0.38688 0.55731-0.45802 1.6115-1.1199 0.43035-0.40756 0.20554-0.27165 0.25526-0.55879 0.083015-0.41896-0.001773-0.52612-0.082941-0.43722-0.16868-0.49631-0.2719-0.56479-0.32984-0.54665-0.68293-0.9358-0.57439-0.68929-0.80287-0.87464-0.36041-0.33905-0.12001-0.07998 0.13768-0.14733 0.16666-0.44532 0.24853-0.83209 1.1482-4.551 0.54629-1.9477 0.58684-1.7879 0.48282-1.2647 0.42357-0.98355 0.44949-0.9264 0.73529-1.2701 0.81329-1.0728 0.69474-0.66178 0.76181-0.48289 0.34242-0.14236 0.72091-0.1849 0.38153-0.049281 0.68579-0.028909 0.52966 0.013793 2.5817 0.16284 4.3279 0.16595 3.4158 0.086901 0.7348 0.044802 0.99552 0.11557 0.79882 0.18127 0.77602 0.29688 1.2016 0.5687 0.36404 0.11779 0.29819 0.037237 0.35186-0.05699 0.3758-0.22183 0.25692-0.32664 0.17017-0.43813 0.099886-0.53805 0.048311-0.65136-0.006426-1.4008-0.13532-2.4076-0.13508-1.5227-0.17773-1.5501-0.34241-2.297-0.74545-4.3919-0.21964-1.59-0.16745-1.8606-0.032884-1.3944 0.072131-1.4065 0.12246-0.97314 0.1842-0.9485 0.28117-1.0344 0.30258-0.85774 0.32022-0.74668 0.48361-0.9352 0.57906-0.91672 0.7705-0.98876 0.79786-0.83396 0.71615-0.62935 0.68773-0.52065 0.78791-0.51502 1.039-0.57129 0.95758-0.43576 1.1812-0.43176 1.2113-0.32968 0.89456-0.17534 0.90086-0.12031 0.99865-0.070722 0.89853-0.009403 0.90835 0.040607 1.1107 0.11583 1.081 0.1801 0.8518 0.18606 0.85831 0.22086 1.0869 0.31867 5.1706 1.7243 1.3545 0.40222 1.2013 0.30864 1.0713 0.22828 1.0456 0.17379 1.0236 0.11728 0.67964 0.041819 0.73257-0.004325 0.53623-0.074278 0.19582-0.15444 0.046357-0.013065 1.03-0.3888 1.4838-0.65569 1.8038-0.73637 1.0681-0.5709 1.623-0.99552 0.085495-0.046951 0.16485-0.17163 0.37704-0.47051 0.47806-0.67959 0.66384-1.0756 0.66421-1.2357 0.4761-1.0038 0.49237-1.1746 1.326-3.6924 0.58126-1.4728 0.30648-0.68038 0.58988-1.1422 0.52376-0.86444 0.50126-0.72302 0.54795-0.70351 0.55298-0.63014 0.76354-0.76634 0.57137-0.50919 1.2049-0.94788 0.7007-0.49411 2.325-1.5328 1.3757-1.002 0.62383-0.52132 0.48688-0.44882 0.4654-0.47146 0.59466-0.67523 0.74757-0.97331 0.80028-1.2368 0.81666-1.4728 1.6644-3.1786 0.69352-1.1656 0.69342-1.0523 0.87021-1.197 1.1412-1.4116 1.2896-1.4482 0.65188-0.67326 0.21546-0.19048 1.521-1.5534 1.287-1.3725 2.1545-2.4317 1.5518-1.8761 0.80271-1.0171 1.4029-1.8603 1.133-1.5885 0.95337-1.4108 1.8223-2.8916 1.7402-2.9806 1.8497-3.3914 0.98872-1.9906 0.46538-1.0326 0.50906-1.2639 0.43201-1.2964 0.21555-0.80519 0.19449-0.89767 0.14935-0.87018 0.13084-1.0342 0.28261-3.5381 0.21415-1.8148 0.29558-1.4713 0.28469-0.95904 0.3317-0.85088 0.35834-0.74048 0.40699-0.69689 0.48568-0.69128 0.42463-0.51118 0.67148-0.67407 0.73744-0.59595 0.83902-0.53409 0.50615-0.26128 0.68114-0.28799 0.60809-0.20066 0.66663-0.16416 0.61838-0.10446 0.56493-0.058501 0.58134-0.026476 1.2656 0.040737 1.6913 0.1961 3.4442 0.51151 0.92656 0.090918 0.98404 0.048002 0.78535-0.008251 0.72842-0.05289 1.0191-0.16352 0.30112-0.072859 0.80819-0.26562 0.40266-0.17744 0.39366-0.20881 0.65314-0.44236 0.42679-0.37214 0.39703-0.4233 0.34997-0.45211 0.49656-0.81534 0.39548-0.85323 0.20484-0.52899 0.80929-2.37 0.67113-1.7865 0.13251-0.40983 0.093137-0.39692 0.03584-0.36658-0.053466-0.44502-0.1283-0.32806-0.23373-0.36753-0.33342-0.38033-0.68577-0.5985-0.9198-0.65506-2.5899-1.6469-0.66502-0.45315-0.96802-0.75942-0.46046-0.44604-0.3751-0.45864-0.14665-0.22758-0.10176-0.19002-0.14057-0.3627-0.071231-0.35624-0.017966-0.33139 0.073686-0.70606 0.12055-0.52013 1.2556-3.8218 0.96324-3.5328 1.3925-4.861 0.93793-3.6802 1.2676-5.2731 0.22469-0.7627 0.18578-0.49048 0.22714-0.43578 0.20997-0.27057 0.14409-0.1292 0.3451-0.18386 0.43032-0.049602 0.22643 0.04077 0.2682 0.097061 0.3589 0.1947 0.51513 0.37058 0.56282 0.47409 2.8061 2.5198 0.71108 0.57481 0.42836 0.31081 0.54839 0.33789 0.46225 0.22404 1.6495 0.59955 0.86346 0.36694 0.61972 0.34605 0.62842 0.41874 0.67298 0.5117 0.74419 0.62888 1.2462 1.1706 0.95594 0.97739 2.6351 2.8501 0.60184 0.58678 0.10771 0.074159 1.6342-0.92183 0.6298-0.43244 0.4816-0.40937 0.34646-0.35272 0.25511-0.30363 0.89112-1.1575 0.35815-0.55325 0.1796-0.46662 0.063465-0.3181 0.040104-0.65364-0.007147-1.6305 0.034653-0.68688 0.09187-0.79076 0.19073-1.0011 0.092993-0.33643 0.166-0.44844 0.19955-0.38605 0.17851-0.26009 0.26793-0.30014 0.57586-0.48069 0.77445-0.50675 2.1221-1.2375 0.88657-0.61516 0.80133-0.67827 0.71297-0.73818 0.52743-0.48776 0.87743-0.70398 0.59304-0.42886 1.0933-0.72578 0.93935-0.56462 1.0674-0.56157 0.58407-0.26143 0.8738-0.32471 0.87202-0.24466 0.66409-0.13134 0.65476-0.080919 1.5279-0.062311 1.116-0.090594 1.0599-0.14255 1.4027-0.26516 1.2629-0.34498 1.916-0.7454 0.28701-0.079436 0.12826-0.007706-0.095931 0.1984-0.2233 0.73645-0.25932 1.0976-0.12825 0.68501-0.097986 0.64931-0.10492 0.98216-0.063419 1.2385 0.013693 1.7213 0.31955 6.389 0.13233 1.3895 0.11026 0.76898 0.20231 1.0396 0.30407 1.1527 0.18272 0.57516 0.44427 1.2193" stroke="#bdc660"/>
    </defs>
    <g clip-path="url(#pf767503e3f)">
     <use y="280.512" fill="#bdc660" stroke="#bdc660" xlink:href="#m692164c813"/>
    </g>
   </g>
  </g>
 </g>
 <defs>
  <clipPath id="pf767503e3f">
   <rect x="7.2" y="7.2" width="280.13" height="266.11"/>
  </clipPath>
 </defs>
</svg>
