<?xml version="1.0" encoding="UTF-8"?>
<!DOCTYPE svg  PUBLIC '-//W3C//DTD SVG 1.1//EN'  'http://www.w3.org/Graphics/SVG/1.1/DTD/svg11.dtd'>
<svg width="292.63pt" height="280.51pt" version="1.1" viewBox="0 0 292.63 280.51" xmlns="http://www.w3.org/2000/svg" xmlns:xlink="http://www.w3.org/1999/xlink">
 <metadata>
  <rdf:RDF xmlns:cc="http://creativecommons.org/ns#" xmlns:dc="http://purl.org/dc/elements/1.1/" xmlns:rdf="http://www.w3.org/1999/02/22-rdf-syntax-ns#">
   <cc:Work>
    <dc:type rdf:resource="http://purl.org/dc/dcmitype/StillImage"/>
    <dc:date>2024-07-04T12:11:29.590535</dc:date>
    <dc:format>image/svg+xml</dc:format>
    <dc:creator>
     <cc:Agent>
      <dc:title>Matplotlib v3.7.1, https://matplotlib.org/</dc:title>
     </cc:Agent>
    </dc:creator>
   </cc:Work>
  </rdf:RDF>
 </metadata>
 <defs>
  <style type="text/css">*{stroke-linejoin: round; stroke-linecap: butt}</style>
 </defs>
 <g id="figure_1">
  <g id="patch_1">
   <path d="m0 280.51h292.63v-280.51h-292.63v280.51z" fill="none"/>
  </g>
  <g id="axes_1">
   <g id="PatchCollection_1">
    <defs>
     <path id="me9143d4e22" d="m181.33-231.15 0.2761 1.3082 0.19214 1.1493-0.40416 0.13082-0.56027 0.48307-0.66789 0.87287-0.31467 0.58658-0.2495 0.64964-0.17369 0.73879-0.084614 0.78496 0.002954 0.95877 0.045655 0.57165 0.15494 1.0757 0.23071 1.0989 0.36031 1.3688 0.78241 2.5629 0.5644 1.7321 0.68957 1.9752 0.77246 2.0272 0.8548 2.1133 0.31544 0.84294 0.29385 0.94676 0.14223 0.62556 0.09065 0.58449 0.046546 0.54832 0.005182 0.80504-0.12217 1.4853-0.13034 0.80824-0.29681 1.2734-0.28998 1.001-0.41726 1.2602-1.2221 3.3606-0.4189 1.2472-0.55345 2.005-0.65202 2.8347-0.1705 1.0679-0.091854 1.0643 3.19e-4 1.2082 0.058796 0.64522 0.10723 0.61673 0.28303 0.89668 0.44603 0.76605 0.28078 0.30979 0.32869 0.27776 0.46899 0.30217 0.40674 0.20433 0.92803 0.34024 3.0788 0.8487 2.0499 0.65495 0.91595 0.17923 1.4043 0.2055 1.001 0.19552 0.74757 0.20724 0.65653 0.27434 0.60104 0.37668 0.52353 0.45939 0.49963 0.61482 0.31747 0.57513 0.15669 0.50778-0.044599 0.36975 2.5462-2.0492 1.4423-1.0691 1.3955-0.92907 0.68718-0.40972 0.77361-0.41761 0.78768-0.37444 1.3803-0.52678 1.4127-0.37384 1.1633-0.19566 1.9384-0.16283 2.7909-0.092139 1.6568-0.11206 1.0496-0.14369 0.73372-0.15004 0.71018-0.19686 0.61701-0.2235 0.59147-0.26891 0.69098-0.39483 0.66296-0.46814 0.75672-0.63 1.588-1.4473 0.79702-0.62778 0.7527-0.45722 0.7603-0.32226 0.57567-0.15919 0.59166-0.095041 0.89426-0.022242 0.70329 0.07395 0.78339 0.15896 1.1559 0.33798 3.0695 1.024 3.4909 1.0212 0.98622 0.33643 0.92983 0.39683 0.933 0.53557 0.84754 0.69244 0.63869 0.76127 0.48229 0.85727 0.2789 0.74916 0.24225 1.1265 0.10292 1.2985 0.0043 0.85504-0.16847 3.7091-0.025381 1.3466 0.062577 1.5582 0.17517 1.3829 0.26355 1.1172 0.31144 0.8408 0.39109 0.68039 0.27281 0.26386 0.24503 0.018649-0.45775 0.8355-0.56442 1.189-0.58111 1.3644-0.82133 2.2277-0.52758 1.7058-0.44971 1.725-0.37044 1.7349-0.25234 1.4877-0.21323 1.7307-0.11023 1.6559-0.01041 1.4102 0.073724 1.3787 0.24801 1.8244 0.43454 1.7367 0.5712 1.4792 0.73986 1.3802 1.0618 1.4636 1.2464 1.3215 1.3418 1.1428 1.4489 1.0335 0.87963 0.55716 3.958 2.257 1.2626 0.7509 1.2255 0.79405 1.1714 0.8531 0.96211 0.80214 0.90218 0.85886 0.83571 0.91563 0.99912 1.3075 0.86745 1.3966 0.73984 1.4908 0.60394 1.5571 0.37066 1.2331 0.2937 1.2598 0.21899 1.2816 0.14642 1.3112 0.07865 1.3249 0.017192 1.3348-0.057706 1.6832-0.13248 1.6897-0.17919 1.5711-0.48217 3.1451-1.35 7.1919-0.49868 2.998-0.43704 3.0981-0.17811 1.5043-0.25847 2.9945-0.067035 1.7482 0.014355 1.7209 0.084941 1.3642 0.16765 1.324 0.22144 1.0768 0.30963 1.0256 0.34751 0.82812 0.43038 0.76973 0.98572 1.1929 1.1938 0.87976 0.95905 0.44042 1.0873 0.31031 1.215 0.19385 1.086 0.093393 2.69 0.13716 1.69 0.13284 1.201 0.15344 1.0483 0.19832 0.89237 0.26993 0.36555 0.2137 0.064953 0.11594-0.005149 0.10718 0.066047 0.10874 0.080562 0.25255 0.099695 0.41917 0.13081 0.76284 0.096172 0.8355 0.065261 0.98403 0.018041 0.80527-0.02808 1.1505-0.060004 0.80245-0.11337 0.87236-0.13334 0.68396-0.1776 0.66847-0.27808 0.77884-0.31185 0.68282-0.35682 0.64962-0.76273 1.1435-0.87235 1.1145-2.67 3.1437-1.4139 1.5642-1.2847 1.2411-0.72045 0.6362-3.1393 2.6236-1.0068 0.93384-0.55585 0.57717-0.51604 0.6041-0.55231 0.76926-0.46609 0.8172-0.33018 0.76619-0.24752 0.79941-0.13928 0.6812-0.08139 0.6971-0.023184 0.7098 0.042725 0.79162 0.10779 0.80091 0.16723 0.80767 0.20761 0.76357 0.5309 1.5397 2.2443 5.4179 0.45882 1.2492 0.173 0.55638 0.017017 0.22454 0.12465 1.3387 0.056855 1.6251-0.0145 1.29-0.073733 1.0458-0.17312 1.2982-0.19783 1.0916-0.80671 3.1184 0.065311 0.2491-0.23866 0.50312-0.77585 0.86777-1.2559 0.91933-1.2765 0.64554-1.7287 0.5876-0.97268 0.22933-0.99816 0.18066-1.9636 0.23647-1.0698 0.073367-1.0683 0.029936-1.0973-0.023162-1.0856-0.084211-1.1898-0.17217-1.163-0.25764-1.0472-0.31648-1.0162-0.38985-0.97086-0.45445-0.9385-0.51652-1.1072-0.70666-1.0654-0.77464-0.98777-0.79701-0.95503-0.84142-0.98797-0.94401-0.95508-0.98134-1.4313-1.5902-1.9027-2.3144-1.6684-2.2383-0.79166-1.1439-0.75733-1.1653-1.0162-1.7189-1.2217-2.3425-2.8355-5.9966-1.7157-3.3933-0.77204-1.4068-0.79742-1.3553-0.72414-1.129-0.75903-1.0594-0.88988-1.0606-0.92984-0.89324-1.0002-0.75164-0.71169-0.43659-1.8912-0.99405-0.67259-0.38859-0.58398-0.42388-0.67682-0.79699-0.21301-0.54681-0.013822-0.9602 0.2734-0.80625 0.5345-0.86333 1.3926-1.6798 0.62364-0.81022 0.4419-0.70375 0.37141-0.81151 0.25308-1.1814-0.020808-0.65503-0.29523-1.0427-0.64167-1.0083-0.90318-0.81568-0.74005-0.42856-0.68661-0.27433-0.74112-0.20028-1.3407-0.17996-0.8187-0.02885-0.84378 0.012335-3.4436 0.21402-1.9853 0.067757-1.2178-0.023261-1.2635-0.082689-1.6649-0.20201-2.0036-0.37491-1.6498-0.40472-1.7218-0.49397-1.6195-0.52601-2.0349-0.72707-1.5306-0.59471-1.1151-0.48905-0.62817-0.3209-1.1461-0.69712-0.55925-0.40144-0.61447-0.49882-0.74806-0.72675-0.42428-0.52208-0.47507-0.71987-0.43416-0.79498-1.154-2.4197-0.53968-0.93854-0.43056-0.63094-0.93736-1.1415-0.90439-0.92936-1.0902-0.94727-0.92523-0.67198-0.85758-0.53668-1.1025-0.57311-0.89337-0.35824-0.72704-0.22465-0.68879-0.16062-0.88947-0.15028-4.0556-0.43898-1.385-0.21692-0.95892-0.22434-1.1194-0.34889-2.4151-0.97603-0.97328-0.35496-0.96077-0.25506-1.0808-0.1488-3.4506-0.26458-0.56695-0.0713-0.74393-0.1789-0.6791-0.32128-0.28829-0.21278-0.35057-0.33554-0.31914-0.38333-0.28367-0.40524-0.34113-0.56821-0.53546-1.0532-1.3935-3.0903-0.40362-0.74763-0.49066-0.72963-0.50356-0.54847-0.5763-0.40867-0.41034-0.17308-0.57097-0.12721-0.60064-0.032389-0.53943 0.037393-0.52563 0.085054-0.66198 0.16327-0.61696 0.19896-1.0682 0.43008-1.9092 0.9338-2.2987 1.1901-1.1245 0.66636-0.92023 0.66916-1.2985 1.1258-1.0122 1.0024-0.59818 0.63712-2.2449 2.517-0.50532 0.43874-0.15146 0.019242-0.37951-0.60364-2.9579-4.3422-3.4119-5.2475-0.70877-0.99079-0.66656-0.80096-1.7087-1.7202-0.63838-0.67948-0.59159-0.70433-0.4314-0.58509-0.38287-0.60952-0.26485-0.50784-0.30386-0.72302-0.19679-0.61975-0.11217-0.49046-0.086078-0.61612-0.021626-0.67197 0.034786-0.46839 0.11934-0.64393 0.38628-1.5093 0.083641-0.52082 0.038672-0.78942-0.030772-0.67114-0.065634-0.61042-0.17143-1.0343-0.23222-1.0464-0.30482-1.0573-0.39638-1.0485-0.34521-0.73008-0.48057-0.88038-1.902-3.1456-1.9265-3.5084-1.0808-1.8669-0.62957-0.96766-0.8031-1.0647-0.96558-1.0471-0.46299-0.45013-0.83542-0.71224-0.79307-0.52998-0.85338-0.40409-1.0178-0.31003-0.37396-0.065383-0.548-0.054809-1.0851-1.56e-4 -0.70655 0.054568-1.1628 0.14928-2.2701 0.38024-1.3022 0.18475-0.67214 0.056989-0.82458 0.004386-0.66679-0.076201-0.74969-0.21963-0.61724-0.34078-0.45655-0.36719-0.48346-0.51268-0.47971-0.65485-0.33591-0.56013-0.42197-0.8426-0.30684-0.7219-0.40781-1.1199-0.46429-1.5531-0.61322-2.626-0.42534-2.2411-0.42829-2.4845-0.71075-4.4571-0.50681-3.7797-0.50741-4.4436-0.28976-2.0359-0.32406-1.6761-0.27697-1.1562-0.42568-1.4692-0.13262-0.32817-0.090545-0.091462-0.031126 0.12209-0.14642 0.13936-0.51518 0.30446-0.54905 0.22263-0.69524 0.19592-0.72293 0.13821-0.74726 0.099508-2.3834 0.25449-0.65083 0.10729-0.71418 0.1614-0.74878 0.23273-0.74731 0.30553-0.56034 0.27909-0.59095 0.34576-0.48305 0.32628-0.8259 0.68024-0.6418 0.70068-0.53548 0.74703-1.0756 1.6496-0.67934 0.80596-0.975 0.87904-1.6738 1.3492-2.1205 1.7916-0.4085 0.3901-0.36906 0.49061-0.18398 0.3845-0.1144 0.38091-0.16238 0.93062-0.17304 0.45998-0.20812 0.26064-0.35551 0.21872-0.57132 0.12895-1.3458 0.11612-0.64636 0.093587-0.65233 0.14702-1.3391 0.42518-0.74924 0.19893-0.90252 0.13127-0.5319 0.027694-1.1434-0.033513-1.6401-0.12405-2.5561-0.11112-0.98024-0.11796-0.5805-0.13721-0.21552-0.083488-0.067214-0.068971-0.077302-0.15412-0.6179-0.61967-0.88027-0.76485-1.1676-0.91983-0.68257-0.48087-0.65192-0.4038-0.42274-0.22587-0.59249-0.2623-0.95626-0.28719-0.49776-0.091395-0.68732-0.075976-0.65804-0.03203-2.6256-0.005286-0.88345-0.070086-0.81378-0.14623-0.48453-0.12824-0.65347-0.22661-0.40355-0.17756-0.54034-0.30133-0.43982-0.32078-0.53047-0.50794-0.258-0.30037-0.42288-0.56654-0.36293-0.56214-0.20643-0.37039-0.26883-0.62285-0.13575-0.46677-0.094492-0.53285-0.027569-0.33435 0.009059-0.57388 0.066838-0.53481 0.099106-0.47936 0.31425-1.0479 0.54914-1.3561 0.62655-1.2579 2.2725-3.9365 0.63727-1.2764 0.42213-1.0325 0.24404-0.72016 0.26999-0.952 0.19845-0.86002 0.27911-1.6459 0.20403-1.9082 0.12721-2.2125 0.010557-1.415-0.044184-1.2229-0.10998-1.437-0.2282-2.1492-0.14434-1.0343-0.3377-1.6312-0.2964-1.1291-0.6011-2.001-3.3307-10.254-1.0571-3.0084-0.65985-1.7292-2.3347-5.8016-6.1033-15.459-1.5699-3.6644-0.63459-1.3668-0.54674-1.0874-0.25111-0.40106 2.5743-1.8821 1.9899-1.356 1.0468-0.6757 1.0803-0.66766 1.6525-0.95532 1.1862-0.62839 1.1993-0.57981 1.5732-0.66338 1.5974-0.53817 1.3347-0.34387 1.0861-0.22091 1.0282-0.1679 1.2523-0.1589 2.2742-0.18635 1.4559-0.063358 2.4329-0.026591 1.3543 0.026648 1.8106 0.084754 2.0547 0.17539 1.7237 0.23244 1.0909 0.20332 0.99898 0.23946 1.1702 0.36517 2.385 0.88245 0.60283 0.18436 2.2181 0.53089 2.3207 0.44749 1.8698 0.23837 0.65575 0.047521 1.1317 0.025479 0.85821-0.043006 0.60047-0.072231 0.97189-0.21038 0.44275-0.14087 1.1353-0.48588 0.69446-0.37576 1.1842-0.75298 1.8522-1.3777 4.0635-3.3297 1.8896-1.4691 1.0463-0.7548 0.9493-0.63838 1.4506-0.87832 1.2163-0.62597 0.85775-0.37641 0.782-0.29268 1.038-0.30485 0.76754-0.15684 0.88489-0.10176 0.96707-0.023066 0.6383 0.031605 0.96018 0.12792 0.60163 0.13571 0.46234 0.14217 0.63999 0.27382 0.44331 0.26266 0.32584 0.24142 0.44354 0.39985 0.59674 0.6683 0.52334 0.70085 0.46777 0.69935 2.2494 3.6258 1.3797 2.032 1.6987 2.269 4.2576 5.377 1.4732 1.9193 0.70278 0.95824 1.8347 2.6291 0.68116 0.84168 0.77789 0.80799 0.86844 0.72734 0.62905 0.42348 0.48156 0.27362 1.1195 0.5167 0.89243 0.31705 0.78416 0.21682 0.86962 0.18584 0.83806 0.13642 1.1284 0.12747 0.86251 0.057995 0.95965 0.027394 1.198-0.011096 2.7419-0.14874 2.9074-0.26454 3.0177-0.37272 2.1904-0.37036 1.2372-0.27152 2.3823-0.67777 1.131-0.3747 1.0389-0.40155 0.97979-0.46068 0.72719-0.42283 0.66533-0.48169 0.27892-0.24159 0.4701-0.48191 0.45135-0.56224 0.32381-0.46769 0.66054-1.115 1.295-2.3751 1.1927-1.9348 1.2466-1.9342 0.51899-0.72876 0.37725-0.4518 1.8816-1.9568 0.70265-0.92877 0.95416-1.3579 0.76436-1.002 0.69779-0.7643 0.85264-0.71583 0.96152-0.65562 2.9531-1.7471 0.8339-0.54323 0.86962-0.65572 0.81548-0.71708 0.74885-0.76827 0.60601-0.72171 0.5503-0.73417 1.8336-2.6931 0.51811-0.58622 0.45714-0.21113 0.13373 0.032406 0.12664 0.078719 0.17156 0.17936 0.21941 0.33862 1.3355 2.9361 0.61871 1.2358 0.62409 1.1158 1.1554 1.8371 1.1634 1.6745 1.1054 1.4742 2.8965 3.5916 1.3606 1.7744 0.75005 1.03 0.76839 1.1331 0.50822 0.8126 0.63314 1.1021 0.46347 0.88792 0.71963 1.5438 0.67079 1.6641 0.57229 1.6654 0.68668 2.3984 0.37562 1.5582" stroke="#bdc660"/>
    </defs>
    <g clip-path="url(#p7f29b30b6f)">
     <use y="280.512" fill="#bdc660" stroke="#bdc660" xlink:href="#me9143d4e22"/>
    </g>
   </g>
  </g>
 </g>
 <defs>
  <clipPath id="p7f29b30b6f">
   <rect x="7.2" y="7.2" width="278.23" height="266.11"/>
  </clipPath>
 </defs>
</svg>
