<?xml version="1.0" encoding="UTF-8"?>
<!DOCTYPE svg  PUBLIC '-//W3C//DTD SVG 1.1//EN'  'http://www.w3.org/Graphics/SVG/1.1/DTD/svg11.dtd'>
<svg width="219.22pt" height="280.51pt" version="1.1" viewBox="0 0 219.22 280.51" xmlns="http://www.w3.org/2000/svg" xmlns:xlink="http://www.w3.org/1999/xlink">
 <metadata>
  <rdf:RDF xmlns:cc="http://creativecommons.org/ns#" xmlns:dc="http://purl.org/dc/elements/1.1/" xmlns:rdf="http://www.w3.org/1999/02/22-rdf-syntax-ns#">
   <cc:Work>
    <dc:type rdf:resource="http://purl.org/dc/dcmitype/StillImage"/>
    <dc:date>2024-07-04T12:11:32.699934</dc:date>
    <dc:format>image/svg+xml</dc:format>
    <dc:creator>
     <cc:Agent>
      <dc:title>Matplotlib v3.7.1, https://matplotlib.org/</dc:title>
     </cc:Agent>
    </dc:creator>
   </cc:Work>
  </rdf:RDF>
 </metadata>
 <defs>
  <style type="text/css">*{stroke-linejoin: round; stroke-linecap: butt}</style>
 </defs>
 <g id="figure_1">
  <g id="patch_1">
   <path d="m0 280.51h219.22v-280.51h-219.22v280.51z" fill="none"/>
  </g>
  <g id="axes_1">
   <g id="PatchCollection_1">
    <defs>
     <path id="m74f8343ff6" d="m189.51-244.49-1.1089 0.55801-1.3679 0.77482-1.2115 0.75854-1.1525 0.78501-0.93096 0.68782-0.52216 0.41367-0.62618 0.53116-0.45598 0.41986-0.50235 0.51054-0.5358 0.6321-0.41868 0.6089-0.35563 0.7038-0.12217 0.34472-0.119 0.50343-0.0631 0.52191-0.015432 0.39199 0.02212 0.64801 0.071402 0.66541 0.093552 0.58301 0.10582 0.53042 0.25441 1.048 0.41014 1.4011 0.83764 2.4891 2.4762 6.8821 1.277 3.6346 0.73133 2.2305 0.39992 1.3236 0.26203 0.95548 0.23923 1.0003 0.15349 0.77271 0.11277 0.72427 0.069304 0.66003 0.025786 0.48208-0.003606 0.59862-0.13374 1.7835 0.004504 0.67294 0.039513 0.53494 0.05824 0.4613 0.14309 0.79738 0.19893 0.85063 0.37782 1.3047 0.42532 1.2494 0.24489 0.65797 0.64808 1.6072 0.7678 1.7355 0.87499 1.8313 0.40998 0.78071 0.36465 0.6334 0.3532 0.55367 1.2623 1.7552 0.70824 1.0688 0.68876 1.172 0.3133 0.60497 0.29162 0.62998 0.40248 1.0344 0.41991 1.3643 0.24733 0.98249 0.20067 0.92862 0.20401 1.1989 0.014504 0.2604 1.258 4.9093 0.26332 0.86166 0.23907 0.57477 0.33325 0.541 0.60388 0.7739 2.9439 3.4131-0.14378 0.10517-0.3835 0.12924-0.49456 0.11111-0.58211 0.086103-0.52678 0.0392-0.52238-0.002227-0.62204-0.058333-0.35436-0.060571-0.57028-0.13803-0.7432-0.25199-0.58952-0.26903-0.56687-0.32167-1.4624-0.93851-0.5728-0.33379-1.9533-0.98623-1.2072-0.55296-0.66985-0.25262-0.58951-0.19592-0.68969-0.20455-0.67099-0.16524-0.53922-0.10965-0.6014-0.09503-0.58628-0.055599-0.5352-0.013289-0.39487 0.016157-0.51066 0.058072-0.31758 0.059214-0.63866 0.17676-0.58052 0.22078-1.7097 0.71679-1.8187 0.68408-1.9364 0.80353-1.0797 0.40944-1.6499 0.55638-4.2369 1.2478-0.49939 0.16743-0.6813 0.26102-0.71462 0.32335-0.56582 0.29151-0.8147 0.46466-0.65636 0.41684-0.67396 0.47591-0.45508 0.36888-0.33553 0.32124-0.33342 0.40418-0.19022 0.30152-0.23418 0.48667-0.17676 0.50596-0.090595 0.34366-0.10751 0.53968-0.090745 0.62655-0.24472 2.1753-0.099643 0.50293-0.17327 0.53146-0.18298 0.35826-0.24974 0.3351-0.639 0.64349-0.69541 0.7598-0.2289 0.20779-0.26649 0.20576-0.42476 0.25905-0.44407 0.19875-2.3505 0.79607-0.64924 0.1873-1.0413 0.20791-2.5857 0.37842-1.804 0.33925-1.706 0.27552-0.61351 0.16888-0.42395 0.1792-0.4498 0.25809-0.35244 0.25243-0.45752 0.38868-0.83231 0.77857-0.64268 0.55189-4.7299 3.688-1.3988 1.0313-1.287 0.88075-1.5792 0.97568-2.7357 1.5882-1.2787 0.77003-1.2556 0.81203-2.3991 1.6292-0.77297 0.48993-0.67566 0.39899-1.2014 0.64196-1.1877 0.5658-0.89143 0.35639-0.64749 0.18686-0.39502 0.068333-0.22679 0.018549-0.32928-0.006993-0.39642-0.077524-0.22161-0.084646-0.261-0.15124-0.19129-0.16264-0.14006-0.1635-0.20212-0.36123-0.14099-0.45181-0.069322-0.42132-0.035205-0.5487 0.011187-0.64912 0.045007-0.58669 0.073284-0.60783 0.157-0.94699 0.51304-2.5041 0.12437-0.80198 0.077057-0.73289 0.033107-0.89806-0.033057-0.61953-0.080657-0.53373-0.11541-0.44812-0.11068-0.30771-0.20342-0.41571-0.18568-0.28133-0.14634-0.17888-0.38252-0.35316-0.50039-0.31977-0.52305-0.2375-0.47957-0.16326-0.46216-0.12473-1.1676-0.23088-1.0559-0.14462-0.17535 0.030165-0.28472 0.11414-0.24581 0.15844-0.42184 0.33659-0.2169 0.082118-0.18361-0.005238-0.14238-0.047348-0.59718-0.32072-0.23927-0.089911-0.26962-0.038859-0.27829 0.028158-0.24953 0.095774-0.15556 0.10466-0.48065 0.47756-0.18546 0.1506-0.2498 0.12928-0.20487 0.064693-0.16723 0.027151 0.092174 0.16932 0.13452 0.47944 0.10606 0.47313 0.14476 0.77369 0.18277 1.3097 0.10553 1.1901 0.038561 0.83943-0.004161 1.5543-0.093383 1.789-0.20592 2.3084-0.24196 2.1054-0.47131 3.7898-0.094532 0.93743-0.050645 0.6771-0.037858 0.96153 0.010186 1.0857 0.030247 0.5997 0.12518 1.281 0.14914 0.95093 0.1078 0.53797 0.28315 1.1117 0.27316 0.86261 0.26956 0.75496 1.3537 3.4268 0.25655 0.70158 0.29267 0.88371 0.30052 1.0588 0.37767 1.6501 0.20888 1.1465 0.22995 1.5818 0.16235 1.4544 0.09979 1.2007 0.064805 1.2241 0.021627 1.1488-0.04152 1.5731-0.072054 1.0039-0.1026 1.0506-0.60505 4.9366-0.21159 2.0653-0.10657 1.6881-0.021004 0.78368 0.004739 0.91481 0.035752 0.72115 0.093501 0.99126 0.080622 0.61647 0.21658 1.301 0.36882 1.7822 0.83129 3.5124 0.26825 1.2115 0.2245 1.2146 0.1205 0.84651 0.055626 0.57128 0.007397 0.82145-0.022775 0.31417-0.11239 0.90057-0.44148 2.9415-0.080501 0.75423-0.055431 0.94955 0.003591 0.68268 0.041644 0.60798 0.13348 0.91917 0.13741 0.65302 0.38341 1.4085 0.43681 1.3315 1.3128 3.6273 0.62299 1.6303 0.53883 1.2501 0.48683 0.96171 0.3204 0.54256 0.52125 0.74176 0.38448 0.44658 0.38581 0.37581 0.49361 0.40748 0.60826 0.42943 1.1132 0.66882 2.452 1.3166 0.84656 0.48368 0.94123 0.59679 0.78359 0.57106 0.40233 0.32696 0.57869 0.51178 0.97852 0.95298 2.0634 2.186 0.3001 0.33678 0.14811 0.20629-0.054672 0.079787-0.38664 0.31984-1.1247 0.81427-1.0115 0.67284-0.93983 0.57551-1.5651 0.85776-1.2315 0.61071-2.3767 1.1365-1.0533 0.54567-0.65555 0.37032-1.1404 0.70191-0.63926 0.42486-0.94815 0.67386-0.85335 0.66169-0.95196 0.80591-0.80308 0.76104-0.46624 0.51269-0.34579 0.44224-0.32858 0.49324-0.83014 1.4498-0.46999 0.76245-0.58653 0.79248-0.43579 0.46792-0.20828 0.18233-0.37563 0.26697-0.29908 0.17245-0.5691 0.27025-1.3145 0.55179-1.3751 0.69358-0.68526 0.26434-0.50118 0.14267-1.7282 0.34899-0.30335 0.072968-0.62265 0.19175-0.50393 0.20335-0.66884 0.31205-0.62231 0.35745-1.0712 0.79411-0.49261 0.30834-0.51008 0.24574-0.55072 0.17409-0.40094 0.057013-0.31453-0.005031-0.16641-0.023303-0.56511-0.19087-0.48225-0.27099-0.42099-0.28788-1.0412-0.76927-0.59042-0.39403-0.60929-0.3367-0.31035-0.14044-0.47064-0.16846-0.51738-0.11933-0.76879-0.070637-0.64895 0.017818-0.69487 0.083621-0.54035 0.1052-0.96741 0.26836-0.90881 0.34059-0.62668 0.27866-1.0862 0.54902-0.82302 0.45878-2.1328 1.2909-1.0269 0.66221-0.60278 0.41948-0.49532 0.37381-0.48794 0.40592-0.4869 0.45704-0.29982 0.3115-0.59627 0.68531-0.32822 0.41376-0.81573 1.1235-0.59048 0.88053-1.9475 3.0496-0.53529 0.79718-0.63525 0.87204-0.43378 0.53198-0.5507 0.58009-0.51167 0.42794-0.49912 0.30196-0.53965 0.18915-0.24982 0.03855-0.30088 0.011098-0.40367-0.035293-0.39966-0.082096-0.67538-0.22721-0.47851-0.22107-0.48806-0.27194-0.56467-0.36548-0.72387-0.53354-1.1641-0.9705-1.2784-1.1693-2.8246-2.6701-1.1841-1.043-0.64787-0.50774-0.42679-0.28464-0.2399-0.11272-0.11494 0.034889-0.13808 0.052651-0.27314 0.005474-0.38395-0.043121-0.42037-0.085303-0.36164-0.10106-0.30252-0.10523-0.49025-0.21631-0.64513-0.39084-0.43266-0.35063-0.42295-0.4521-0.28795-0.43034-0.21171-0.52505-0.054998-0.39704 0.032383-0.35148 0.095439-0.32645 0.27285-0.53076 0.4386-0.59153 1.4591-1.5904 0.52436-0.63974 0.43148-0.67717 0.29717-0.72258 0.10702-0.522 0.035394-0.53789-0.039634-0.69187-0.11393-0.69289-0.23494-0.89529-0.26763-0.75044-0.22866-0.52522-0.45312-0.93481-0.26782-0.70606-0.1723-0.64542-0.078473-0.45084-0.033998-0.37772 9.2e-5 -0.38279 0.07444-0.62171 0.14073-0.64276 0.14277-0.54293 1.2796-4.2384 0.17864-0.67406 0.25035-1.1172 0.1486-0.99257 0.054138-0.8108-4e-4 -0.8982-0.054056-0.87842-0.1208-0.98761-0.13144-0.72461-0.19012-0.78286-0.30716-0.92107-0.38441-0.8037-0.38523-0.55682-0.22228-0.23988-0.246-0.21122-0.21006-0.14282-0.32814-0.17302-0.40926-0.15644-0.53244-0.13659-0.55448-0.084905-0.48367-0.038483-0.65701-0.0119-0.62588 0.02263-1.0758 0.095377-0.67934 0.088379-1.0258 0.17096-0.58486 0.1183-0.56421 0.12923-1.233 0.33557-1.6201 0.54283-1.904 0.7497-2.2204 0.96832-2.3543 1.1365-0.87893 0.45166-1.4044 0.7735-1.1258 0.69799-1.2174 0.85559-2.1376 1.6056-2.2401 1.7667-0.22949 0.1556-0.057076-0.17523-0.19981-0.34628-0.51442-0.78897-3.5547-4.9301-0.5472-0.79313-0.78584-1.2201-0.98229-1.6761-1.1169-2.057-0.73237-1.4927-0.66976-1.5477-0.66488-1.7464-1.3711-3.4832-0.46139-1.3295-0.24263-0.78216-0.28433-1.0768-0.10092-0.48306-0.087031-0.55446-0.048172-0.6946 0.007643-0.32078 0.072716-0.65218 0.28053-1.3982 0.050917-0.36547 0.019073-0.33943-0.024678-0.41274-0.072471-0.39946-0.1382-0.47013-0.29344-0.77757-0.24438-0.53828-0.19466-0.35652-0.23255-0.36325-0.31451-0.40497-0.32156-0.33585-0.51921-0.45225-0.25002-0.1786-0.43831-0.24986-1.4636-0.61338-0.77486-0.36927-0.49094-0.30237-0.30375-0.24008-0.51278-0.51737-0.44381-0.56734-0.49463-0.77291-0.21211-0.41668-0.18043-0.43352-0.17957-0.56228-0.10708-0.4771-0.056086-0.37706-0.056677-0.71641 0.003509-0.75629 0.069545-0.99558 0.12318-0.69974 0.20697-0.70082 0.41581-1.0547 0.4335-0.89316 0.23514-0.42078 0.37513-0.59764 0.23637-0.33588 0.41241-0.50167 0.37417-0.3554 0.53131-0.38854 0.73081-0.42426 0.7662-0.37838 2.115-0.9414 1.0616-0.49569 1.965-0.99941 1.0318-0.58561 0.78469-0.52757 1.4261-1.0943 1.9048-1.5493 1.2443-1.0609 0.5403-0.53151 0.36977-0.43716 0.19211-0.27106 0.2114-0.35524 0.72302-1.4812 0.26755-0.45463 0.36802-0.55243 0.4502-0.61314 0.68527-0.81137 0.4931-0.51764 0.8626-0.84866 1.3127-1.2114 0.85505-0.72462 1.7221-1.3469 0.42482-0.3774 0.4814-0.50341 0.22059-0.26416 0.38177-0.5092 0.22164-0.34358 0.19159-0.35228 0.16701-0.38569 0.67971-1.9543 0.18465-0.58438 0.085372-0.38725 0.034984-0.27324 0.009201-0.3796-0.04924-0.51396-0.32227-1.558-0.1165-0.81877-0.011729-0.50502 0.022936-0.27413 0.049582-0.28205 0.17954-0.60036 0.26119-0.61566 0.33374-0.66175 0.89714-1.6595 0.40598-0.87784 0.1492-0.39843 0.11478-0.37798 0.10756-0.52182 0.045151-0.57191-0.009987-0.50255-0.045545-0.5287-0.32955-2.2649-0.07716-0.93191 0.028871-1.592-0.007349-0.83618-0.06488-1.7807-0.001665-0.95684 0.061703-0.79003 0.090992-0.50284 0.23657-0.69597 0.10134-0.19783 0.21624-0.34334 0.26645-0.3481 0.29302-0.33339 0.32873-0.33735 0.49504-0.46237 1.5753-1.3519 1.2435-0.97383 1.2899-0.90192 0.61876-0.39025 0.74198-0.43054 1.2501-0.6356 1.1009-0.47262 1.3523-0.48304 1.0486-0.30786 1.1044-0.26159 1.0992-0.20768 0.79331-0.10189 0.8025-0.055402 0.71064-0.014792 1.0128 0.014071 2.3252 0.085028 1.2742-0.018717 0.99918-0.069305 1.1552-0.13259 0.95539-0.16949 0.24698-0.072378 0.039929-0.039094-0.061492-0.072969-0.15605-0.29802-0.1715-0.37254-0.53807-1.3017-0.3397-0.92311-0.27687-0.84113-0.59984-1.9496-0.30684-0.84656-0.25046-0.61124-0.27477-0.59082-0.80889-1.5502-0.264-0.57014-0.37951-0.93408-0.45992-1.2558-0.16092-0.36904-0.28049-0.56876-0.42139-0.75036-0.55172-0.86918-0.85701-1.1842-1.8147-2.1807-0.49243-0.55911-0.68859-0.73053-1.8555-1.8228-0.6941-0.70856-0.55921-0.61807-0.38685-0.46756-0.65651-0.87942-0.40892-0.60479-0.5832-0.96106-0.42699-0.81167-0.44909-1.008-0.34752-1.0057-0.21711-0.98919-0.060674-0.64263-0.008666-0.53967 0.020159-0.55898 0.058149-0.55405 0.13206-0.66417 0.24624-0.93446 0.1534-0.48881 0.8266-2.3071 0.62054-2.0064 0.20977-0.6117 0.54168-1.4047 0.75586-1.6025 0.16707-0.40398 0.29062-0.83592 0.18951-0.62861 0.27866-1.0462 0.18744-0.80669 0.1644-0.77958 0.20125-1.1047 0.088968-0.59041 0.077839-0.70719 0.013316-0.3698-0.068145-0.29893-0.083295-0.05337-0.030575-0.15093 0.063677-1.1109-0.007307-0.38051-0.099367-0.93488-0.09554-0.54916-0.20352-0.9328-0.28372-1.0977-1.1041-3.9138-0.22268-0.93273-0.15659-0.81627-0.065841-0.46693-0.045786-0.64723 0.005851-0.32923 0.083627-0.62685 0.14146-0.53598 0.093103-0.2762 0.34585-0.83354 0.24411-0.49858 0.59386-1.0745 0.80246-1.2997 3.622-5.4376 0.74907-1.041 0.54325-0.6948 0.4583-0.55143 0.78453-0.8785 3.3313-3.4939 1.1186-1.1456 2.8193-2.7869 1.4357-1.5001 0.8991-1.012 1.1461-1.3946 1.0181-1.3525 0.35416-0.50441 0.14747-0.24901 0.12563 0.08018 0.34545-0.001429 0.45719-0.084931 0.3108-0.086934 0.66803-0.24765 0.45099-0.20388 0.67885-0.35032 0.66201-0.3783 1.1835-0.73292 1.4147-0.94202 4.9678-3.5436 1.1665-0.80446 1.6526-1.1011 1.9606-1.2542 1.5449-0.94286 1.4648-0.85123 1.3104-0.7222 1.426-0.73198 1.0835-0.51588 1.2025-0.53063 0.9083-0.35792 0.97893-0.3182 0.53052-0.12945 0.5347-0.087879 0.64444-0.027554 0.32707 0.029926 0.26944 0.053659 0.23337 0.071676 0.33328 0.14482 0.46246 0.28647 0.32944 0.26982 0.20636 0.19919 0.30728 0.34532 0.22246 0.29203 0.36731 0.58348 0.28197 0.58284 0.22389 0.64063 0.11092 0.48284 0.060675 0.48812 0.007527 0.54913-0.075308 0.74012-0.079073 0.42136-0.17389 0.68086-0.16685 0.52038-0.40462 1.0156-0.5033 1.0033-0.50587 0.83274-0.6215 0.8501-0.37014 0.4392-0.5193 0.56368-1.2775 1.2632-0.9592 0.87709-2.7425 2.3956-0.66709 0.61785-0.4633 0.46217-0.53532 0.60665-0.20963 0.27932-0.19021 0.29664-0.1315 0.25037-0.14446 0.37087-0.065941 0.27065-0.030196 0.25588 2.3e-5 0.29438 0.033051 0.29937 0.099941 0.43618 0.11197 0.33158 0.30951 0.67368 0.46315 0.7674 0.33108 0.47981 0.63314 0.85004 1.957 2.5044 0.38762 0.45228 0.36487 0.37723 0.20818 0.19056 0.37296 0.29164 0.20574 0.13189 0.31194 0.15934 0.42244 0.13772 0.53257 0.069091 0.6951-0.023265 0.6334-0.089771 0.6023-0.13338 0.83142-0.23783 2.0935-0.66752 0.63012-0.1602 0.51668-0.090043 0.48734-0.047738 0.60361-0.014621 2.3104 0.10986 0.70133-0.010358 0.5817-0.059319 0.44805-0.078268 0.57685-0.13583 0.8022-0.23043 1.4081-0.48052 1.6603-0.6646 2.0949-0.91647 1.4884-0.71552 1.086-0.5843 1.1001-0.67698 1.0326-0.72663 2.2313-1.6585 0.9564-0.62353 0.54689-0.28439 0.52253-0.19062 0.26732-0.044426 0.12004 0.004429 0.069966 0.017716 0.075323 0.04163-0.13357-0.44618-0.23015-0.87588-0.36662-1.6391-0.15826-0.90536-0.10064-0.7688-0.067247-0.96916 0.013999-0.82112 0.044599-0.44602 0.072035-0.41155 0.16927-0.57928 0.26499-0.58772 0.22119-0.38968 0.33001-0.51735 0.63101-0.87526 0.48905-0.55847 0.21124-0.20813 0.33698-0.29292 0.31381-0.2335 0.57381-0.35348 0.59937-0.30519 2.4457-1.046 1.2821-0.629 0.7288-0.333 0.55716-0.19069 0.52953-0.086103 0.49932 0.055321 0.22141 0.084106 0.24924 0.14218 0.26338 0.20321 0.42967 0.43945 0.28954 0.36288 0.30509 0.43058 0.41543 0.64948 1.3656 2.278 0.68773 1.0096 0.40333 0.51084 0.47717 0.52308 0.32302 0.30215 0.56952 0.42972 0.40994 0.22771 0.28562 0.11854 0.8101 0.17816 0.85073 0.005838 0.87026-0.12786 0.87037-0.23226 0.85174-0.31508 0.81414-0.38262 1.0778-0.595 0.91928-0.44666 0.99411-0.40625 1.0994-0.37816 1.4461-0.4137 2.2314-0.58994 1.2289-0.30323 0.93668-0.20111 2.5953-0.48094 0.77812-0.22802 0.4129-0.17394 0.50247-0.28434 0.37004-0.27254 0.24234-0.21002 0.35566-0.35168 0.33972-0.37929 0.459-0.56504 0.62984-0.85331 0.96378-1.4571 0.92241-1.3338 1.1329-1.751 0.37195-0.51601 0.31926-0.38764 0.42574-0.43562 0.40689-0.34227 0.41685-0.29174 0.74383-0.41526 0.85033-0.36519 0.84781-0.28736 1.016-0.27618 0.74641-0.16704 1.4712-0.26674 1.4672-0.20816 1.5176-0.14897 0.61882-0.016899 0.18977 0.017136 0.02862 0.018631 0.12046 0.2505 0.28711 0.24844 0.32816 0.24246 0.7816 0.50342 0.60939 0.34947 0.80751 0.42643 0.84536 0.41543 1.7987 0.84021 0.93466 0.4797 0.64884 0.39626 0.35267 0.24562 0.47193 0.36097 0.6185 0.52518 0.61888 0.58315 0.73929 0.77798 0.53305 0.62311 0.73918 0.9725 0.60022 0.92585 0.26021 0.46958 0.2465 0.52405 0.13095 0.34307 0.081294 0.26441 0.079823 0.36661 0.034479 0.36168-0.006733 0.24981-0.034378 0.24065-0.058316 0.21705-0.13999 0.31963-0.25067 0.36765-0.2663 0.28487-0.57037 0.45877-0.76683 0.46724-0.98319 0.48504-3.9218 1.6539-0.9892 0.45165" stroke="#bdc660"/>
    </defs>
    <g clip-path="url(#p30657a9664)">
     <use y="280.512" fill="#bdc660" stroke="#bdc660" xlink:href="#m74f8343ff6"/>
    </g>
   </g>
  </g>
 </g>
 <defs>
  <clipPath id="p30657a9664">
   <rect x="7.2" y="7.2" width="204.82" height="266.11"/>
  </clipPath>
 </defs>
</svg>
