<?xml version="1.0" encoding="UTF-8"?>
<!DOCTYPE svg  PUBLIC '-//W3C//DTD SVG 1.1//EN'  'http://www.w3.org/Graphics/SVG/1.1/DTD/svg11.dtd'>
<svg width="163.84pt" height="280.51pt" version="1.1" viewBox="0 0 163.84 280.51" xmlns="http://www.w3.org/2000/svg" xmlns:xlink="http://www.w3.org/1999/xlink">
 <metadata>
  <rdf:RDF xmlns:cc="http://creativecommons.org/ns#" xmlns:dc="http://purl.org/dc/elements/1.1/" xmlns:rdf="http://www.w3.org/1999/02/22-rdf-syntax-ns#">
   <cc:Work>
    <dc:type rdf:resource="http://purl.org/dc/dcmitype/StillImage"/>
    <dc:date>2024-07-04T12:11:35.392169</dc:date>
    <dc:format>image/svg+xml</dc:format>
    <dc:creator>
     <cc:Agent>
      <dc:title>Matplotlib v3.7.1, https://matplotlib.org/</dc:title>
     </cc:Agent>
    </dc:creator>
   </cc:Work>
  </rdf:RDF>
 </metadata>
 <defs>
  <style type="text/css">*{stroke-linejoin: round; stroke-linecap: butt}</style>
 </defs>
 <g id="figure_1">
  <g id="patch_1">
   <path d="m0 280.51h163.84v-280.51h-163.84v280.51z" fill="none"/>
  </g>
  <g id="axes_1">
   <g id="PatchCollection_1">
    <defs>
     <path id="m7bb8714ac8" d="m94.303-259.28 0.66418 0.92075 0.47346 0.8745 0.3278 0.78951 0.21339 0.67446 0.14632 0.6248 0.10146 0.67399 0.029439 1.2887-0.045286 1.0615 0.014238 1.6465 0.15702 2.367 0.081812 0.74824 0.11115 0.6041 0.16058 0.56697 0.14975 0.38357 0.35266 0.67134 0.43939 0.54594 0.53692 0.36476 0.52371 0.12691 0.27101 0.002951 0.60236-0.10226 0.66431-0.21551 1.6499-0.69563 5.7402-2.8297 3.9765-1.9231 2.5648-1.1719 1.8774-0.76675 2.2161-0.78324 1.2677-0.37188 0.87635-0.20989 1.0567-0.19228 1.0192-0.11834 0.61969-0.002189 0.15255 0.034226 0.059552 0.078413 0.002556 0.048126 0.10873 0.15717 0.36129 0.39536 0.98517 0.96671 0.58006 0.64391 0.46646 0.6125 0.54716 0.83928 0.46334 0.84056 0.54336 1.236 0.31361 0.93371 0.26334 0.98968 0.26784 1.2924 0.25626 1.5807 0.20236 1.7843 0.028554 0.58944-0.02064 0.97436-0.076834 0.72565-0.51959 3.0574-0.060933 1.052 0.057071 0.61031 0.11013 0.5659 0.18524 0.70087 0.22622 0.72098 0.4136 1.1055 0.55751 1.1049 0.67576 1.1133 2.217 3.3563 0.97592 1.5867 0.67018 0.95234 0.72775 0.92093 1.5651 1.7854 0.7155 0.8825 0.66259 0.94409 0.5831 1.0011 0.39904 0.86117 0.41712 1.2725 0.16734 0.87957 0.048275 0.48398 0.02027 0.83024-0.015481 0.42558-0.1255 1.2562-0.86904 5.1639-0.24604 1.2433-0.26889 1.0185-0.40246 1.1358-0.33192 0.78149-1.3706 2.9174-1.0153 1.9582-1.741 3.1131-0.76252 1.5345-0.51693 1.1953-0.43317 1.1906-0.23495 0.76085-0.38772 1.4726-0.35249 1.692-0.090832 0.60618-0.076864 0.84624 0.087394 1.2846 0.19206 0.62567 0.22253 0.49048 0.32489 0.56939 0.4509 0.66676 1.3946 1.7638 2.79 3.2222 2.2933 2.5657 2.9425 3.1483 0.81525 0.94538 0.78692 0.9948 0.4935 0.67664 0.96483 1.5005 0.64074 1.1531 1.0225 2.1407 0.99012 2.4957 0.69014 1.9934 0.4922 1.5774 0.5751 2.0569 0.48838 2.0341 0.4694 2.4499 0.19459 1.3262 0.19821 1.8135 0.069032 0.94528 0.041358 1.2102-0.026773 1.2871-0.1006 1.3637-0.17378 1.374-0.26917 1.4585-0.25773 1.0565-0.27386 0.93121-0.35655 1.0395-0.48471 1.2267-1.5929 3.4553-0.36887 0.90664-0.69863 2.0691-0.3289 1.2251-0.16666 0.76834-0.19816 1.284-0.12505 1.3397-0.063507 1.4276-0.00546 1.4196 0.070097 1.442 0.096458 0.97963 0.20689 1.3094 0.075678 0.31867 0.09486 0.21222-0.12393 0.069498-0.16716-0.003556-0.60007-0.16741-0.83136-0.39855-1.3209-0.78332-0.87897-0.48125-0.98412-0.44061-1.0117-0.36574-0.8694-0.26108-1.5459-0.3612-1.6034-0.19477-1.6527-0.042772-1.6687 0.074211-2.2547 0.23785-1.7644 0.26426-1.0518 0.19168-1.0587 0.25353-1.2269 0.37368-1.0414 0.37763-3.3533 1.3997-0.822 0.27379-1.0801 0.23612-0.90016 0.10082-0.91333 0.04108-4.6668-0.073259-1.0447 0.083191-0.99195 0.21874-1.0754 0.46687-1.0283 0.64041-2.0483 1.4985-1.9324 1.3336-0.95214 0.59155-0.94532 0.48637-0.9694 0.40868-3.9207 1.4008-3.1914 1.0036-1.5762 0.59322-1.1576 0.52706-1.512 0.8084-0.9477 0.60259-0.85424 0.65779-0.8181 0.80409-0.30588 0.35271-0.50665 0.6771-0.3871 0.70188-0.26306 0.79812-0.11474 0.58051-0.23494 2.488-0.13813 0.76346-0.20495 0.71972-0.16559 0.41901-0.51109 0.8235-0.40971 0.42073-0.33748 0.27153-0.73476 0.43847-0.70024 0.30042-0.3413 0.099997-0.62412 0.090735-0.6436-0.041522-0.6132-0.17728-0.59832-0.29428-0.4162-0.2768-0.78575-0.73627-0.36712-0.49694-0.39828-0.70853-0.17829-0.39651-0.2777-0.82295-0.075006-0.43914 0.001226-0.18945 0.055319-0.16183-1.3828 0.65121-0.92749 0.49823-0.97374 0.59632-1.2305 0.87766-0.50953 0.42961-0.68699 0.6996-0.49888 0.70468-0.39815 0.88978-0.35094 1.2005-0.33345 1.4081-0.094025 0.75154 0.015054 0.76344 0.22097 1.0179 0.19062 0.56284 0.70249 1.7217 1.1855 2.7088 0.27122 0.70301 0.23424 0.71886 0.17178 0.71132 0.093413 0.72832-0.024966 0.96617-0.1399 0.95654-0.18151 0.8743-0.25679 0.86295-0.48506 1.0858-0.72549 1.3021-1.1897 1.9807-0.54445 1.005-0.46194 1.0259-0.21042 0.6098-0.2676 1.0291-0.1242 0.78769-0.20125 1.9334-0.15251 0.88055-0.2727 1.019-0.50925 1.6497-0.25616 0.99656-0.68182 3.6967-0.47298 2.0299-0.46998 1.3228-0.64439 1.2411-0.79249 1.2097-0.88242 1.1916-1.5601 1.9968-1.5818 1.8294-1.3372 1.3975-1.4971 1.4745-4.9238 0.79223-1.218 0.11982-2.1802 0.14405-1.4039 0.19041-0.64764 0.16516-0.31146 0.11183-0.44287 0.21286-0.49411 0.35015-0.3142 0.33228-0.19267 0.29277-0.14623 0.3242-0.096617 0.32916-0.051961 0.29041-0.030108 0.58055 0.06043 0.6348 0.23603 0.93879 0.33294 0.87488 0.38706 0.84373 1.272 2.5077 0.69438 1.4738 0.57858 1.4178 0.39432 1.1719 0.24025 0.88984 0.21077 1.0044 0.23151 1.6678 0.049216 0.77338-0.014932 0.85889-0.10383 0.7744-0.083304 0.34728-0.20681 0.58249-0.2454 0.46399-0.2519 0.35062-0.53174 0.5508-0.91742 0.7239-1.3957 0.97173-0.68622 0.40448-0.71015 0.35308-0.80189 0.32055-0.87433 0.29138-1.1666 0.25395-0.66403 0.031936-0.99893-0.16695-1.0428-0.44501-0.79967-0.54914-0.44758-0.41312-0.33192-0.37793-0.51786-0.79074-0.2999-0.7201-0.18207-1.0713 0.029543-1.0096 0.14366-0.78765 0.19656-0.46434 0.3096-0.45166 0.69057-0.83332 0.27859-0.47881 0.18785-0.51706 0.052344-0.2646 0.019712-0.58731-0.15448-0.52851-0.26748-0.33957-0.37166-0.27073-0.57337-0.24578-0.61778-0.12704-1.4202 3.8e-4 -0.4408-0.056808-0.51994-0.20364-0.20931-0.13276-0.4025-0.39629-0.20537-0.37874-0.1036-0.3948-0.021132-0.22865 0.026293-0.45694 0.17061-0.67574 0.27682-0.65128 0.82019-1.6005 0.45258-1.0048 0.45563-1.2898 0.20508-0.81429 0.15002-1.0286 0.023341-0.63058-0.021085-0.47169-0.072228-0.5802-0.099891-0.48995-0.25236-0.83856-0.43309-1.0041-0.60413-1.0667-0.44979-0.663-0.88332-1.1265-0.69848-0.79792-1.5611-1.689-3.3812-3.4218-2.9412-3.1869-0.38559-0.44032-0.41188-0.54-0.25301-0.40674-0.30618-0.66456-0.20978-0.70317-0.061571-0.30668-0.098169-0.84943-0.11498-2.4996-0.22932-1.4165-0.25284-0.99477-0.81268-2.3461 0.11033-0.12728 0.32194-0.19589 2.9758-1.5926 1.8871-1.106 1.5904-1.1135 0.54109-0.44182 0.67912-0.6146 0.87084-0.9163 0.41729-0.5218 0.38198-0.55878 0.65368-1.2719 0.14632-0.36045 0.3105-0.88039 0.33612-1.1832 0.25019-1.3188 0.060952-1.3098-0.091336-0.87827-0.22074-1.0533-0.93302-3.2336-0.30736-1.2732-0.49728-2.4099-0.14087-0.82721-0.17407-1.3978-0.083604-1.3716 0.006284-0.94472 0.12588-1.237 0.1856-0.82681 0.2496-0.80454 0.43071-1.0968 1.7153-3.2878 0.607-1.3113 0.56995-1.3708 0.52071-1.4177 0.44601-1.42 0.26468-0.99486 0.85932-3.5893 0.71905-2.8304 1.3332-4.684 0.41745-1.5455 0.3529-1.5295 0.25166-1.4538 0.17252-1.447 0.05175-1.0465-0.008816-0.52605-0.16533-1.6154-0.63609-3.7304-0.17939-1.3005-0.033217-1.2939 0.16615-1.1982 0.32432-1.196 0.43111-1.1955 0.88004-2.083 0.44199-0.88454 0.85749-1.3553 1.0519-1.3423 1.2132-1.3271 1.4941-1.4388 1.9326-1.6729 2.6781-2.1292 5.4958-4.0974 0.67329-0.56299 0.04222-0.076024 0.038048-0.11211-0.47589-0.95-0.66504-1.5619-0.6935-1.8752-0.71905-2.137-0.7488-2.6128-1.0303-4.2036-0.36456-1.3556-0.37909-1.2256-0.45571-1.2905-0.69274-1.7301-0.88852-1.9788-1.8643-3.5874-0.47795-1.0758-0.36755-1.1505-0.16198-0.96133-0.26174-3.7091-0.18783-1.5851-0.23062-1.0546-0.36919-1.0682-0.48548-0.96889-0.59719-0.83162-0.70989-0.64988-0.55838-0.32496-0.76102-0.29537-1.6142-0.43188-0.73236-0.23775-0.33178-0.14101-0.65053-0.3619-0.59049-0.48671-0.4221-0.47072-0.36743-0.52116-0.30192-0.53862-0.33605-0.76804-0.26752-0.80207-0.28276-1.2317-0.17325-1.5255-0.097043-1.7813-0.067505-0.67036-0.23423-1.3913-0.30604-1.2324-0.21422-0.67268-0.28064-0.72304-0.24229-0.52338-0.52448-0.96111-0.59784-0.92484-0.69082-0.85622-0.53502-0.51613-0.46775-0.368-1.3322-0.74622-1.1603-0.42368-1.6372-0.40915-1.0194-0.2043-1.3009-0.21044-1.1223-0.12435-0.80163-0.047868-0.73377-0.014291-1.1882 0.030065-1.5493 0.096644-1.9196 0.1692-1.188 0.043252-0.60898-0.023572-0.35748-0.049061-0.23-0.077209-0.079369-0.069383-0.01607-0.082377 0.079203-0.14923 0.31152-0.23327 0.52444-0.30345 0.66475-0.32981 1.7052-0.72945 4.0524-1.5837 2.1079-0.94388 1.1898-0.62039 1.2017-0.69262 2.0592-1.3281 0.96168-0.69016 1.2178-0.96548 1.0033-0.90828 0.83044-0.853 0.60139-0.68542 0.80386-1.02 0.66754-0.9352 1.0112-1.5716 0.89589-1.5443 1.2063-2.2808 0.99499-2.0785 0.62336-1.4573 0.63856-1.7097 0.29434-0.91348 0.48694-1.8249 0.25929-1.2882 0.25056-1.826 0.091682-1.272 0.005603-1.9271-0.11531-1.6409-0.22824-1.7051-0.27102-1.4112-0.43449-1.7372-0.42636-1.3671 0.32086 0.038758 0.59177 0.34101 2.26 1.781 0.53103 0.34699 0.36869 0.19506 0.34541 0.14222 0.4385 0.11967 0.58358 0.059399 0.36566-0.01828 0.33489-0.052921 0.3939-0.10607 0.84804-0.41529 0.7317-0.61415 0.27593-0.32017 0.46798-0.70459 0.28907-0.62146 0.57756-1.6584 0.24574-0.62031 0.19658-0.40636 0.50825-0.73622 0.34486-0.31591 0.36651-0.24575 0.3207-0.16373 0.62763-0.22892 4.3177-1.1943 1.0166-0.2472 1.3773-0.25505 0.93494-0.11463 1.03-0.063218 1.0298 0.032551 1.1313 0.1793 1.1327 0.28632 2.2875 0.65863 1.6648 0.37472 1.0415 0.14053 1.4801 0.013662 1.5292-0.15545 1.5633-0.26896 4.7707-1.0204 1.6468-0.28747 1.5911-0.21642 2.4393-0.20561 3.8432-0.49655 1.1374-0.06303 0.81073 0.02602 0.79039 0.069521 1.0164 0.13456 0.95985 0.22296 0.87808 0.37354 0.68217 0.48875 0.60681 0.62023" stroke="#bdc660"/>
    </defs>
    <g clip-path="url(#p9cc431153e)">
     <use y="280.512" fill="#bdc660" stroke="#bdc660" xlink:href="#m7bb8714ac8"/>
    </g>
   </g>
  </g>
 </g>
 <defs>
  <clipPath id="p9cc431153e">
   <rect x="7.2" y="7.2" width="149.44" height="266.11"/>
  </clipPath>
 </defs>
</svg>
