<?xml version="1.0" encoding="UTF-8"?>
<!DOCTYPE svg  PUBLIC '-//W3C//DTD SVG 1.1//EN'  'http://www.w3.org/Graphics/SVG/1.1/DTD/svg11.dtd'>
<svg width="261.58pt" height="280.51pt" version="1.1" viewBox="0 0 261.58 280.51" xmlns="http://www.w3.org/2000/svg" xmlns:xlink="http://www.w3.org/1999/xlink">
 <metadata>
  <rdf:RDF xmlns:cc="http://creativecommons.org/ns#" xmlns:dc="http://purl.org/dc/elements/1.1/" xmlns:rdf="http://www.w3.org/1999/02/22-rdf-syntax-ns#">
   <cc:Work>
    <dc:type rdf:resource="http://purl.org/dc/dcmitype/StillImage"/>
    <dc:date>2024-07-04T12:11:32.031753</dc:date>
    <dc:format>image/svg+xml</dc:format>
    <dc:creator>
     <cc:Agent>
      <dc:title>Matplotlib v3.7.1, https://matplotlib.org/</dc:title>
     </cc:Agent>
    </dc:creator>
   </cc:Work>
  </rdf:RDF>
 </metadata>
 <defs>
  <style type="text/css">*{stroke-linejoin: round; stroke-linecap: butt}</style>
 </defs>
 <g id="figure_1">
  <g id="patch_1">
   <path d="m0 280.51h261.58v-280.51h-261.58v280.51z" fill="none"/>
  </g>
  <g id="axes_1">
   <g id="PatchCollection_1">
    <defs>
     <path id="ma46ae630d7" d="m199.87-247.86 0.42021 0.037529 0.91642 0.22253 0.60373 0.2167 0.3827 0.17758 0.62604 0.37021 1.8944 1.3538 0.46412 0.28025 2.5313 1.3202 0.69305 0.45523 0.55843 0.47681 1.2623 1.317 0.54062 0.50261 0.35866 0.28541 0.638 0.43804 0.61789 0.36518 0.81093 0.4159 0.6552 0.29531 3.1553 1.2087 1.5151 0.67226 0.36639 0.10306 0.51771 0.064533 0.6633-0.009945 2.6483-0.31642 0.97132-0.026939 0.49929 0.044237 0.78109 0.17041 0.47385 0.15136 2.2938 0.88977 0.52132 0.16363 0.53515 0.12695 0.62848 0.088404 1.0239 0.037286 0.99337-0.046564 4.3744-0.44515 0.9696-0.03322 0.86658 0.021424 2.8591 0.17641 0.82285 0.085839 0.75358 0.15946 0.3717 0.11384 0.59167 0.26388 0.10897 0.12062-2.5302 3.5358-0.80306 1.1595-0.4485 0.74931-0.72144 1.4618-0.54011 1.3029-0.65448 1.8033-0.49859 1.5952-0.26249 1.205-0.1319 1.2863-0.02657 1.3227 0.053551 3.1474-0.031255 1.0842-0.083425 0.97101-0.12071 0.79783-0.18847 0.90475-0.40668 1.5042-0.56222 1.7671-0.51066 1.462-0.55782 1.4023-0.40167 0.84169-0.40153 0.68746-0.36556 0.514-0.55647 0.65245-0.71153 0.69041-0.88071 0.71485-0.82685 0.59012-0.98963 0.64895-1.9709 1.2013-2.0334 1.1731-1.199 0.60023-0.91274 0.39281-1.1814 0.43943-1.2552 0.39189-1.6581 0.41236-1.5851 0.2986-4.365 0.67084-1.6214 0.32061-0.92695 0.22756-1.2378 0.36923-1.0935 0.38619-1.1188 0.43873-1.369 0.59613-1.1083 0.54823-1.1101 0.61434-0.89214 0.55317-0.92623 0.6598-0.52518 0.43789-0.40144 0.38671-0.42352 0.48368-0.46198 0.65429-0.38198 0.711-0.33664 0.8768-0.31377 1.1618-0.29758 1.4307-0.44761 2.5813-0.34968 1.573-0.27804 0.99957-0.72374 2.2767-0.89893 3.5061-1.7207 5.8552-1.2046 3.7882-0.88303 3.2804-0.83196 2.6931-0.44318 1.9154-0.58547 2.2348-0.28154 1.3493-0.19222 0.75191-1.111 3.7988-0.22888 1.1224-0.10658 0.85253 0.005848 0.9285 0.045134 0.37066 0.098239 0.29798 0.20937 0.23905 0.25825 0.11479 0.29337 0.04797 0.29583 0.00308 0.52855-0.056203 0.70593-0.14227 1.8123-0.51078 2.884-0.94334 0.99477-0.29232 3.608-0.86188 3.6898-0.93791 6.2005-1.4054 3.1893-0.84808 1.068-0.25134 0.61556-0.088992 0.2829 0.014407 0.20165 0.071282 0.11023 0.088131 0.18692 0.59556-0.0946 0.94083-0.23831 0.97666-0.39458 1.2535-0.95789 2.6219-1.8118 4.5053-3.2659 7.7248-1.7072 3.8487-1.7413 3.7136-0.84237 1.6826-0.87492 1.6432-0.89255 1.5552-1.5738 2.486-1.4689 2.1251-1.3837 1.9053-2.2757 3.0079-4.7858 6.1542-5.7257 7.2669-2.7223 3.3275-1.9227 2.2184-1.6337 1.7704-2.4597 2.4729-2.5387 2.3564-1.9824 1.7389-3.2114 2.6861-2.239 1.7636-2.6 1.9096-2.3184 1.5751-1.7812 1.1116-0.91385 0.5329-2.1022 1.1089-1.3398 0.59838-3.1579 1.2509-3.7222 1.5634-1.6424 0.77201-1.9748 1.0512-1.6641 1.0024-1.5023 1.0101-1.2444 0.9388-3.0942 2.5704-0.7594 0.55808-0.72955 0.47127-0.62945 0.34766-1.2568 0.54318-0.66962 0.23522-5.2669 1.537-2.1778 0.74994-0.98576 0.3914-1.6381 0.73078-1.8151 0.92864-0.98305 0.5564-2.157 1.3495-0.98468 0.6685-2.0545 1.4736-2.2269 1.6798-8.1772 6.3374-1.9494 1.4513-2.0673 1.4874-1.7141 1.1811-2.1296 1.3892-1.8394 1.1098-1.1067 0.62794-1.9414 1.0344-2.5971 1.2575-2.0469 0.89977-1.5624 0.6483-3.0144 1.1978-4.0872 1.5571-3.4156 1.2509-12.382 4.3384-4.9032 1.7596-4.081 1.5344-1.8054 0.72996-0.508 0.24446-2.2267-1.4469-1.0387-0.73541-1.0417-0.78538-1.0339-0.83807-1.3041-1.1748-0.88447-0.91189-0.9295-1.1202-0.80313-1.1327-0.74499-1.1926-0.85658-1.5233-1.1862-2.3714-0.8184-1.8714-0.73293-1.9348-0.67341-2.1369-0.46821-1.8326-0.31244-1.507-0.33377-2.1527-0.1961-1.8388-0.13473-1.9113-0.081531-1.9978-0.024491-2.4828 0.072699-3.917 0.30488-9.6212 0.013153-2.8591-0.081424-5.6361 0.035695-1.8893 0.18234-3.8245 0.032787-1.741-0.015588-1.2134-0.070599-1.3946-0.24508-2.282-0.61827-4.0581-0.33637-2.6559-0.1037-1.6162-0.038685-2.3417 0.13768-9.694-0.06234-8.4609 0.061923-2.7492 0.094592-1.6922 0.18243-2.2915 1.0147-9.9917 0.12196-1.7027 0.02849-0.09036 0.043377-0.82147-0.010216-1.5903-0.08465-1.7447-0.1624-1.8478-0.20323-1.6698-0.30281-2.0558-0.66298-3.9879-0.59441-3.3497-0.56886-2.783-0.5568-2.1326-0.6119-1.9708-0.38027-1.103-1.0402-2.6818-0.87103-1.954-0.46234-0.94176-0.67528-1.2606-0.55024-0.93033-0.70731-1.0717-0.9437-1.2158-0.92431-0.97166-0.59743-0.52834-0.57389-0.44626-0.54211-0.37846-0.94425-0.58638-2.8496-1.5887-0.92753-0.6085-0.47641-0.38046-0.43302-0.43234-0.35819-0.50596-0.22367-0.57811-0.068899-0.61161 0.04488-0.49142 0.070619-0.30551 0.1206-0.34513 0.25452-0.49933 0.49671-0.69068 0.49447-0.54274 0.54766-0.51832 0.81586-0.67932 0.8745-0.65104 0.81667-0.56002 1.0044-0.64382 1.403-0.83959 3.037-1.7452 0.8837-0.57323 0.65924-0.48396 0.71586-0.62548 0.58003-0.66193 0.41026-0.69338 0.1721-0.47348 0.15955-0.95268 0.008065-0.88334-0.34624-3.7378-0.001125-1.0054 0.071785-0.77739 0.12338-0.66837 0.45203-1.4598 0.36294-0.84189 0.40421-0.79058 0.43451-0.73827 0.42296-0.62796 0.46678-0.5703 0.32907-0.20902 0.062054 0.067851 0.17642 0.090939 0.5762 0.20119 0.88587 0.16594 0.55774 0.04515 2.2975 0.056545 0.5597 0.039406 0.5478 0.072763 0.48555 0.10272 0.47625 0.1316 0.97868 0.33673 2.3189 0.9181 0.82058 0.28965 0.78901 0.22439 0.73594 0.16733 2.1443 0.39599 3.2677 0.46216 2.4441 0.24501 2.3927 0.16012 4.3045 0.18697 1.1439 0.10905 1.7759 0.10345 2.8914 0.083858 1.2757 0.001741 2.7634-0.070617 7.427-0.39419 3.5749-0.13066 3.6826-0.00977 5.0984 0.18159 2.3334 0.025329 1.3079-0.082566 0.71702-0.11317 0.56227-0.15295 0.2832-0.11344 0.48141-0.29936 0.10104-0.092989 0.32877-0.47156 0.12775-0.3193 0.15176-0.62576 0.44603-3.4817 0.053522-0.65234 0.018163-1.0423-0.070513-1.5545-0.23595-2.4073-0.9737-7.2616-0.3305-3.0245-0.15613-2.3476-0.02448-1.275 0.015082-0.8254 0.11602-1.5365 0.26046-1.5053 0.33287-1.2464 0.49176-1.3957 0.50313-1.1001 0.61284-1.0121 0.57002-0.69978 0.67367-0.58533 0.5946-0.33242 1.2477-0.28559 1.4067 0.054574 1.5243 0.29896 1.1514 0.32616 0.93735 0.31343 1.0182 0.37933 1.6698 0.69049 2.1247 0.96434 2.2813 1.1028 4.3122 2.2168 3.8094 2.0692 7.109 3.9636 3.6418 1.9385 2.975 1.4569 1.1451 0.50907 1.564 0.62236 1.3695 0.44359 0.91171 0.21922 1.1294 0.14913 0.66111 0.00158 0.82807-0.11665 0.44511-0.12174 0.52346-0.19257 0.80022-0.39048 0.99969-0.6388 0.47839-0.36368 0.68412-0.58684 0.84128-0.84297 0.8309-1.0173 0.39809-0.59633 0.3519-0.63587 0.20538-0.45069 0.33264-0.92212 0.37198-1.4911 0.20654-1.2138 0.18334-1.6673 0.12437-2.0873 0.10773-5.3588 0.10645-2.6784 0.21654-3.2357 0.4768-6.0093 0.14936-2.835 0.021622-1.6138-0.036334-1.6294-0.13686-2.3548-0.26361-3.1865-0.031353-0.85158 0.014496-0.50716 0.092798-0.64876 0.063814-0.21446 0.15309-0.32358 0.22051-0.28107 0.20358-0.16501 0.30616-0.14303 0.2951-0.048635 0.26134 0.018652 0.29549 0.083961 0.30151 0.14252 0.61494 0.4165 1.9266 1.5462 0.90895 0.61996 2.6714 1.6418 3.9929 2.5316 1.2619 0.74335 1.0411 0.55473 1.0666 0.48596 0.93155 0.34452 1.1171 0.33858 3.4485 0.84877 1.6581 0.45171 1.2989 0.43573 2.8608 1.0825 2.367 0.72611 2.2753 0.57456 2.8833 0.59945 2.0052 0.29661 1.5298 0.09978 1.3516-0.006632 2.1704-0.1596 1.3433-0.16408 1.7565-0.2607 3.5023-0.63749" stroke="#bdc660"/>
    </defs>
    <g clip-path="url(#pe357145353)">
     <use y="280.512" fill="#bdc660" stroke="#bdc660" xlink:href="#ma46ae630d7"/>
    </g>
   </g>
  </g>
 </g>
 <defs>
  <clipPath id="pe357145353">
   <rect x="7.2" y="7.2" width="247.18" height="266.11"/>
  </clipPath>
 </defs>
</svg>
