<?xml version="1.0" encoding="UTF-8"?>
<!DOCTYPE svg  PUBLIC '-//W3C//DTD SVG 1.1//EN'  'http://www.w3.org/Graphics/SVG/1.1/DTD/svg11.dtd'>
<svg width="371.52pt" height="224.02pt" version="1.1" viewBox="0 0 371.52 224.02" xmlns="http://www.w3.org/2000/svg" xmlns:xlink="http://www.w3.org/1999/xlink">
 <metadata>
  <rdf:RDF xmlns:cc="http://creativecommons.org/ns#" xmlns:dc="http://purl.org/dc/elements/1.1/" xmlns:rdf="http://www.w3.org/1999/02/22-rdf-syntax-ns#">
   <cc:Work>
    <dc:type rdf:resource="http://purl.org/dc/dcmitype/StillImage"/>
    <dc:date>2024-07-04T12:11:35.093041</dc:date>
    <dc:format>image/svg+xml</dc:format>
    <dc:creator>
     <cc:Agent>
      <dc:title>Matplotlib v3.7.1, https://matplotlib.org/</dc:title>
     </cc:Agent>
    </dc:creator>
   </cc:Work>
  </rdf:RDF>
 </metadata>
 <defs>
  <style type="text/css">*{stroke-linejoin: round; stroke-linecap: butt}</style>
 </defs>
 <g id="figure_1">
  <g id="patch_1">
   <path d="m0 224.02h371.52v-224.02h-371.52v224.02z" fill="none"/>
  </g>
  <g id="axes_1">
   <g id="PatchCollection_1">
    <defs>
     <path id="m061639e25d" d="m132.93-196.13-0.005051 1.6177 0.25102 1.4188 0.25647 0.71581 0.69166 1.2935 0.86848 1.2374 1.9395 2.5599 2.6103 3.5336 1.5833 1.9388 0.99807 1.0667 1.0491 0.97009 1.1876 0.92694 2.4795 1.8493 2.5265 1.9653 0.96099 0.69791 0.99032 0.6438 1.7317 0.93506 2.722 1.3202 2.5778 1.1318 3.4364 1.3981 3.0711 1.1239 2.1655 0.71301 1.4628 0.41138 1.6022 0.39274 1.3164 0.28302 4.2381 0.74791 1.1734 0.24967 1.447 0.42478 2.8376 1.0129 1.4322 0.45138 0.96039 0.23451 0.9693 0.18636 1.9966 0.23881 1.6104 0.062909 1.5032-0.027247 2.2651-0.12239 0.9464 0.016218 0.92518 0.10184 1.1284 0.26586 0.77118 0.26028 0.74791 0.33315 1.2367 0.77689 2.3186 1.8896 1.1146 0.84132 0.4573 0.28923 0.61557 0.33655 0.47895 0.21614 0.53307 0.14179 0.15699-0.036142 0.098258-0.34848 0.33081-0.85552 0.78491-1.7844 0.98149-2.0192 1.238-2.3229 1.2118-2.0546 0.85351-1.3278 1.3548-1.9136 0.92742-1.156 0.82639-0.90995 0.76563-0.73342 0.77064-0.63005 0.45044-0.32092 0.71881-0.4445 0.46185-0.24247 0.86993-0.3644 0.87669-0.23815 0.76593-0.088482 0.84639 0.042402 0.85103 0.16744 0.85429 0.26696 1.1158 0.46274 1.1187 0.5591 2.4015 1.3947 4.5867 2.8747 2.216 1.3392 1.7292 1.0082 4.3344 2.4388 1.7714 1.0478 1.8888 1.2038 1.2037 0.81474 4.6786 3.2683 11.611 8.208 1.1845 0.90218 0.15643 0.10425 0.46978 0.44193 1.0465 1.14 0.74869 0.89844 0.89016 1.2198 0.42992 0.71253 0.35441 0.73617 0.21986 0.64691 0.10811 0.56989 0.002311 0.68577-0.1082 0.54608-0.33272 0.72835-0.26791 0.35408-0.56094 0.53123-2.1005 1.4597-0.72642 0.597-0.48118 0.50427-0.2674 0.3411-0.54291 0.88748-0.36142 0.87431-0.14998 0.53131-0.14199 0.85198-0.027756 0.56793 0.064075 0.82058 0.073094 0.3646 0.1624 0.5268 0.20536 0.45458 0.27918 0.45403 0.45315 0.55625 0.63145 0.59917 0.57355 0.45298 1.3446 0.88763 1.2022 0.67914 1.6544 0.82361 1.1153 0.50412 5.518 2.2947 3.3401 1.4935 1.4001 0.71874 0.95814 0.56756 0.79158 0.54817 0.70022 0.57441 0.46934 0.45615 0.44824 0.52691 0.45844 0.70042 0.39252 0.78495 0.31494 0.77606 0.30954 0.89133 0.84529 2.8826 0.55628 1.6049 0.5114 1.1899 0.78794 1.4055 0.91376 1.2862 1.1069 1.2769 0.41967 0.41581 0.90098 0.73732 0.75336 0.4883 1.2148 0.65938 1.3641 0.60066 1.0779 0.36727 0.88481 0.22666 0.83533 0.1764 0.84578 0.1227 1.0546 0.049158 1.0714-0.024848 2.7233-0.11847 0.88496-0.073214 5.1829-0.67879 1.5299-0.25532 1.5021-0.33264 1.4415-0.44902 1.2345-0.52636 0.9577-0.4922 0.90246-0.50842 0.88312-0.55377 0.81411-0.57639 2.6197-1.9661 1.4969-1.0167 1.4977-0.88679 0.71522-0.37922 1.5164-0.70702 1.2618-0.47526 1.3419-0.39204 2.3186-0.58348 0.88812-0.16904 1.0293-0.10706 0.28293-0.009625 1.456 0.08755 1.2586 0.22932 1.5482 0.4455 1.4868 0.58477 1.1712 0.56881 1.095 0.62197 1.3325 0.88018 1.1053 0.84518 1.0159 0.88068 0.96612 0.94713 0.70157 0.76868 1.2165 1.5187 1.0801 1.5841 0.88715 1.5167 0.6643 1.3478 0.14326 0.35849 0.032634 0.21115 0.45914 1.4722 0.4679 1.8708 0.29186 1.5197 0.24579 1.8362 0.12418 1.767-0.006034 2.0753-0.098732 1.3698-0.26982 1.9664-0.27923 1.3873-0.52438 1.9653-0.31697 0.98372-0.68767 1.8411-0.6713 1.5694-1.0715 2.2383-1.299 2.4562-0.96478 1.663-1.089 1.6925-0.71887 1.0071-0.86567 1.0984-0.64763 0.73813-0.8943 0.91859-1.0805 0.97812-1.3115 1.0397-1.0356 0.74323-2.2176 1.4302-1.2941 0.74588-1.2813 0.66809-2.27 1.0165-4.364 1.7055-1.8364 0.78554-0.71586 0.35517-0.56476 0.32679-0.33547 0.2512-0.085293 0.16071 0.017305 0.088711-0.13658 0.16593-0.42191 0.38842-0.69108 0.51573-0.72378 0.46844-0.90167 0.52034-1.2457 0.63975-1.2303 0.56411-1.2537 0.51491-1.2932 0.47097-1.0561 0.33784-1.1815 0.32297-1.1143 0.24933-1.6508 0.27653-1.8723 0.19458-2.1311 0.087814-1.7584-0.023648-1.5305-0.090265-1.3614-0.1413-1.2404-0.19685-1.9028-0.47132-1.7787-0.63699-2.5337-1.1957-1.5129-0.78173-1.3139-0.75202-0.72892-0.48595-0.57152-0.45472-0.52029-0.50744-0.50567-0.64963-0.32958-0.59587-0.24866-0.60874-0.31893-1.0942-0.2754-1.4024-0.11521-1.4486 0.026415-0.76568 0.15451-1.2169 0.43128-2.4022 0.069402-0.53865 0.080239-1.5932-0.14337-1.1938-0.43412-1.1708-0.64942-1.0688-0.54327-0.69359-0.81591-0.83517-1.5511-1.4565-1.9364-1.9164-1.1024-0.93689-2.3469-1.7176-3.4691-2.6329-1.2124-0.848-1.2503-0.77238-1.2938-0.65579-0.95525-0.37283-1.5622-0.40277-1.5858-0.17322-1.0484 0.013379-0.72323 0.071783-1.4176 0.24405-7.341 1.5047-1.4872 0.35708-1.0154 0.31827-0.94124 0.35175-1.4912 0.64144-0.90358 0.43302-3.3297 1.7167-2.8687 1.3038-1.1892 0.48906-1.6094 0.58619-1.1085 0.34481-1.119 0.30211-1.3793 0.31704-1.4217 0.27026-1.2288 0.18734-1.2482 0.13892-0.9567 0.072228-1.8716 0.075158-4.1092 0.09807-0.9137 0.05241-0.89121 0.095608-1.1015 0.18963-1.2285 0.30648-1.1558 0.39205-0.89057 0.39309-1.1956 0.72921-0.95032 0.87261-0.37518 0.49126-0.11909 0.18927-0.48588 1.0784-0.31289 1.102-0.17031 0.7853-0.12722 0.91387-0.038367 1.0352 0.12462 3.5073-0.033509 1.0583-0.12548 1.0293-0.26157 0.98359-0.25328 0.59018-0.20177 0.37512-0.69496 1.0378-0.76336 0.96664-2.4729 2.9057-1.8021 1.9887-1.2574 1.239-1.31 1.1138-1.6723 1.2401-1.781 1.1818-1.8497 1.1328-2.7884 1.6014-5.5197 3.044-0.26975 0.2875-0.59771 0.53887-0.89385 0.72938-0.92302 0.68518-1.7981 1.1977-3.7523 2.2508-2.1112 1.1172-1.3103 0.57101-0.8072 0.28564-0.78998 0.21449-0.71642 0.11984-0.81353 0.027701-0.55464-0.061335-0.76395-0.22663-0.75472-0.45695-0.67866-0.63052-0.62238-0.75277-0.58164-0.83388-2.3262-3.8239-0.523-0.722-0.57194-0.62997-0.65319-0.54448-1.4278-1.0256-0.76903-0.50728-0.8237-0.41902-0.82792-0.2618-0.66578-0.12746-0.80246-0.087777-1.0899 0.007031-0.78634 0.11327-0.49528 0.11593-0.73394 0.23079-0.72749 0.2913-1.1615 0.57382-1.7875 0.99136-1.4379 0.86964-1.4615 0.99103-0.79224 0.49653-0.84312 0.46907-1.1768 0.56443-1.234 0.51105-2.5125 0.87941-2.219 0.65442-1.0712 0.24639-0.57339 0.29644-1.1996-0.0141-1.5245-0.31441-1.6358-0.65323-0.87607-0.50676-0.86657-0.60078-1.1974-0.94889-2.566-2.2473-2.9701-2.678-2.0851-1.811-1.0857-0.88317-1.0798-0.81453-1.5487-1.011-0.82491-0.43836-0.78921-0.34168-0.77383-0.25666-0.74342-0.16305-0.7432-0.068035-0.47287 0.013427-0.84805 0.15022-0.38562 0.12714-0.42143 0.18887-0.91779 0.63786-0.48023 0.49696-0.23589 0.30141-0.50149 0.81849-0.44451 1.0407-0.30612 1.0764-0.14572 0.76687-0.12823 1.2418-0.004013 1.2697 0.059778 0.76621 0.23135 1.4266 0.35276 1.5049 0.68166 2.6319 0.31402 1.4976 0.11626 0.85742 0.042243 0.90072-0.0366 0.61849-0.11558 0.66802-0.23132 0.76328-0.2346 0.54615-0.25412 0.46472-0.32773 0.47314-0.28106 0.32395-0.48559 0.43071-0.56197 0.35878-1.0071 0.44857-4.5972 1.5748-3.465 1.3131-1.44 0.46901-1.5451 0.38199-1.6431 0.29279-1.6018 0.20562-5.4102 0.4508-2.742 0.31427-2.7758 0.45091-1.2122 0.24847-1.3365 0.34082-1.5182 0.51403-0.78482 0.33233-1.6218 0.8183-1.3478 0.83451-1.9456 1.3886-0.80227 0.43902-0.51622 0.20354-0.65454 0.1786-0.55092 0.082613-0.38393 0.015693-0.81683-0.10313-0.47422-0.16078-0.32981-0.15855-0.44893-0.27312-0.96344-0.76399-1.3221-1.2644-1.6796-1.5294-0.62141-0.63542-1.2675-1.3933-0.65328-0.64252-4.2561-3.7349-0.74131-0.66852-0.58868-0.58618-1.1288-1.3052-0.6704-0.90812-1.3217-1.9515-0.77551-0.90803-0.55956-0.51214-0.55517-0.4221-0.64778-0.41734-0.76818-0.37581-0.56513-0.1814-0.34892-0.067063-0.72181-0.038646-0.59947 0.055419-0.46654 0.091896-0.8122 0.24446-2.0868 0.84808-1.4387 0.51454-1.6101 0.39944-1.724 0.28215-1.8015 0.19572-3.6931 0.23757-2.019 0.086888-1.8297-0.006063-2.1866-0.15737-1.8478-0.27544-0.8209-0.18721-0.46942-0.13967-0.62483-0.24672-0.42506-0.21883-0.17254-0.1743 0.22599-0.54022 2.244-4.81 1.1749-2.7773 0.29146-0.78761 0.36128-1.209 0.18578-1.0181 0.085653-1.0285-0.001313-1.0325-0.069482-0.95347-0.12782-0.9484-0.18108-0.93991-0.30248-1.1941-0.35696-1.1758-1.2348-3.6995-0.33715-1.2461-0.21922-1.232-0.046799-1.2181 0.12593-1.0052 0.25162-0.9966 0.34387-0.98914 0.85579-1.9575 1.6033-3.3482 0.44794-1.0638 0.34848-1.0198 0.7569-3.0604 0.1087-0.72233-0.038579-0.71015-0.088103-0.32969-0.30021-0.65424-0.55194-0.81748-0.56101-0.69654-1.855-2.1584-0.95056-1.2075-0.57653-0.83683-1.7835-2.8608-0.72405-1.0235-0.90226-1.018-3.5857-3.4053 0.029017-0.25762 0.13238-0.28126 0.5776-0.90271 0.94765-1.1961 0.8814-0.93252 0.85816-0.77562 0.78833-0.63022 3.1693-2.2642 1.1182-0.86399 1.5248-1.314 1.9313-1.859 1.9803-2.1241 2.9047-3.263 6.8432-7.2292 1.4113-1.5823 1.6395-2.0085 1.594-2.1643 0.89349-1.3 1.4705-2.2736 0.76758-1.2489 1.5568-2.6683 0.78716-1.4194 3.5508-6.6781 1.4856-2.6572 1.3883-2.2812 1.6445-2.4335 0.93508-1.2603 0.99114-1.2439 1.029-1.2114 1.7257-1.9041 2.6455-2.8336 1.5807-1.8074 1.4701-1.8557 0.76256-1.0429 3.6595-5.3915 1.043-1.354 0.89597-1.0344 2.6017-2.7544 1.0323-1.1406 0.91478-1.0839 0.91961-1.1763 0.66334-0.90821 1.2626-1.8599 3.8-6.1373 2.7139-4.1556 1.8802-2.7107 1.0368-1.3852 1.0789-1.3324 1.4663-1.5972 1.056-0.96992 1.133-0.88156 1.2034-0.77634 0.55086-0.3058 1.6083-0.77239 1.6335-0.65024 1.5697-0.52956 1.3852-0.40169 1.4757-0.34581 0.67574-0.21402 0.80404-0.1962 1.0395-0.1842 0.60427-0.059444 1.2393 0.004249 2.786 0.24787 0.81077 0.044513 1.3981-0.009721 1.4062-0.096967 1.423-0.20919 0.84751-0.20959 0.89905-0.33307 0.45816-0.24128 0.39561-0.27775 0.27486-0.25446 0.65207-0.81431 0.40781-0.73033 0.44479-1.0378 0.49991-1.0039 0.5601-0.93319 0.57914-0.81375 0.51338-0.61898 0.54486-0.54473 0.97928-0.74614 0.36345-0.35066 0.65832-0.81974 1.0393-1.5074 0.11628-0.089449 0.06297 0.024997 0.011567 0.12395 0.032426 0.10648-0.074316 0.41858-0.20112 0.77851-1.6 5.5945-0.42489 1.8386-0.18951 1.0737-0.13668 1.201" stroke="#bdc660"/>
    </defs>
    <g clip-path="url(#p141c54f6e4)">
     <use y="224.021943" fill="#bdc660" stroke="#bdc660" xlink:href="#m061639e25d"/>
    </g>
   </g>
  </g>
 </g>
 <defs>
  <clipPath id="p141c54f6e4">
   <rect x="7.2" y="7.2" width="357.12" height="209.62"/>
  </clipPath>
 </defs>
</svg>
