<?xml version="1.0" encoding="UTF-8"?>
<!DOCTYPE svg  PUBLIC '-//W3C//DTD SVG 1.1//EN'  'http://www.w3.org/Graphics/SVG/1.1/DTD/svg11.dtd'>
<svg width="176.6pt" height="280.51pt" version="1.1" viewBox="0 0 176.6 280.51" xmlns="http://www.w3.org/2000/svg" xmlns:xlink="http://www.w3.org/1999/xlink">
 <metadata>
  <rdf:RDF xmlns:cc="http://creativecommons.org/ns#" xmlns:dc="http://purl.org/dc/elements/1.1/" xmlns:rdf="http://www.w3.org/1999/02/22-rdf-syntax-ns#">
   <cc:Work>
    <dc:type rdf:resource="http://purl.org/dc/dcmitype/StillImage"/>
    <dc:date>2024-07-04T12:11:39.388161</dc:date>
    <dc:format>image/svg+xml</dc:format>
    <dc:creator>
     <cc:Agent>
      <dc:title>Matplotlib v3.7.1, https://matplotlib.org/</dc:title>
     </cc:Agent>
    </dc:creator>
   </cc:Work>
  </rdf:RDF>
 </metadata>
 <defs>
  <style type="text/css">*{stroke-linejoin: round; stroke-linecap: butt}</style>
 </defs>
 <g id="figure_1">
  <g id="patch_1">
   <path d="m0 280.51h176.6v-280.51h-176.6v280.51z" fill="none"/>
  </g>
  <g id="axes_1">
   <g id="PatchCollection_1">
    <defs>
     <path id="me64a5052d1" d="m145.95-228.53-0.27331 0.16434-0.30478 0.1562-0.43484 0.16929-0.4519 0.10901-0.46935 0.05873-0.48976 0.019785-0.71207-0.023389-0.4895-0.04273-0.74144-0.10194-1.4294-0.29237-0.40812-0.064714-0.43046-0.002103-0.24869 0.057906-0.15624 0.079725-0.1242 0.1086-0.098434 0.14325-0.087584 0.2351-0.072701 0.38938-0.23136 1.7996-0.011535 0.34604 0.016322 0.41121 0.034531 0.27264 0.0651 0.32739 0.094513 0.3509 0.11589 0.34769 0.21062 0.53816 0.148 0.3303 0.34138 0.6404 0.40583 0.64681 0.35168 0.50823 1.3532 1.7922 0.32062 0.368 0.28455 0.26969 0.25448 0.19719 0.33667 0.21712 1.5883 0.87139 0.40483 0.25216 0.36802 0.25289 0.39534 0.3055 0.27199 0.23826 0.28657 0.28573 0.27877 0.32677 0.27725 0.39931 0.19594 0.35827 0.085572 0.19006 0.12445 0.33664 0.12036 0.44854 0.084631 0.48328 0.14307 1.5298 0.037039 0.2171 0.050574 0.16572 0.054067 0.048493 0.41553-0.060753 0.4616-0.030222 0.54249 0.010083 0.57807 0.067638 0.33276 0.070051 0.31773 0.093032 0.29812 0.11762 0.24529 0.12722 0.22384 0.14747 0.19958 0.16703 0.19412 0.21411 0.15578 0.2356 0.086361 0.18039 0.064644 0.18791 0.042219 0.19377 0.020895 0.27847-0.017939 0.28224-0.036299 0.22029-0.19815 0.90298-0.027902 0.23194-0.006001 0.24205 0.018265 0.2402 0.042773 0.23603 0.060969 0.20904 0.081576 0.20206 0.10217 0.19334 0.14585 0.21431 0.16828 0.2028 1.0498 1.0581 0.76836 0.88161 0.3363 0.42356 0.7061 1.0028 0.41084 0.47188 0.39142 0.35616 0.25878 0.19226 0.25514 0.16112 0.22742 0.12023 0.18262 0.076039 0.075462 0.020101 0.034007-0.004548-0.034138 0.040806-0.026367 0.12979-0.011072 0.19678 0.033766 0.70011 0.067997 0.5753 0.075597 0.46148 0.20119 0.91236 0.15719 0.54903 0.15024 0.451 0.36391 0.93831 0.62569 1.469 0.30852 0.87246 0.13902 0.52111 0.10465 0.52646 0.088285 0.71143 0.031366 0.46675 0.043414 2.1822 0.054692 0.8105 0.06027 0.50578 0.08071 0.50181 0.10665 0.52204 0.12806 0.51507 0.15574 0.52937 0.17678 0.51884 0.178 0.46105 0.19373 0.44948 0.31495 0.64248 0.36826 0.65416 0.58567 0.94751 0.2926 0.50476 0.17214 0.35737 0.1378 0.38222 0.089903 0.42139 0.025218 0.48608-0.049453 0.44819-0.12515 0.48117-0.16126 0.41886-0.41575 0.88023-0.084659 0.20911-0.084796 0.26754-0.048615 0.22114-0.028364 0.21827-0.008438 0.21319 0.028695 0.38655 0.12177 0.80236 0.038073 0.51524-0.006467 0.54385-0.055245 0.5579-0.1108 0.55802-0.17607 0.5443-0.23878 0.51002-0.78676 1.392-0.6015 0.96283-0.57529 0.8349-0.68208 0.87483-0.61769 0.72002-0.39493 0.40944-0.39057 0.36786-1.009 0.86825-2.977 2.4376-1.2528 0.98793-1.6002 1.1975-0.41919 0.33852-1.5977 1.3614-0.99798 0.82604-0.97657 0.78126-1.6732 1.2966-0.56906 0.8334-0.27988 0.49281-0.21385 0.48436-0.18571 0.51129-0.50076 1.4956-0.21048 0.79816-0.060699 0.45266 0.022629 0.42771 0.072838 0.26823 0.098081 0.22004 0.13106 0.21036 0.30375 0.33826 0.48091 0.35564 0.49403 0.25406 0.54825 0.2107 0.60298 0.18638 0.78461 0.20632 0.99205 0.23 2.0788 0.42856 0.92461 0.22503 0.39152 0.11862 0.5122 0.1916 0.44623 0.2162 0.38824 0.24992 0.18558 0.15226 0.17582 0.17578 0.15081 0.18982 0.080517 0.12575 0.14992 0.31762 0.098677 0.31459 0.078084 0.33607 0.17864 0.94635 0.065998 0.44803 0.085824 0.94897 0.056038 0.3864 0.055377 0.25576 0.083998 0.28694 0.14727 0.38748 0.24704 0.54582 0.25033 0.51405 0.6709 1.2915 0.56925 1.2098 0.41318 0.9323 0.61114 1.5245 0.38928 1.06 0.3697 1.1315 0.21083 0.76276 0.31696 1.4095 0.22656 0.78142 0.20379 0.53322 0.14396 0.30736 0.2082 0.37956 0.06106 0.070391-0.055186-0.008692-0.23043 0.039297-0.36604 0.097649-0.52372 0.1655-0.98969 0.36007-1.2911 0.53986-2.9965 1.3563-1.9754 0.98481-1.5123 0.79509-1.15 0.6698-1.9538 1.2446-0.35661 0.20244-0.53388 0.2535-0.35566 0.14043-0.80604 0.26809-0.98643 0.27939-1.0072 0.25235-0.6812 0.13786-0.39204 0.05749-0.39256 0.037696-0.38224 0.017402-0.95016 0.001001-0.46196 0.029893-0.5287 0.06685-0.53963 0.091845-1.3624 0.28128-0.84391 0.20097-0.53722 0.17052-0.37345 0.14879-0.33148 0.15993-0.30217 0.17894-0.38453 0.30882-0.27848 0.36574-0.14255 0.37222-0.070531 0.37416-0.03853 0.39675-0.018706 0.40046 0.013428 0.93425 0.061828 0.81888 0.15247 1.5955 0.031201 0.54128 0.009211 0.63185-0.052324 0.93252-0.072845 0.56697-0.17184 0.98207-0.14452 0.67326-0.11483 0.43472-0.18446 0.54867-0.15154 0.35381-0.15428 0.30215-0.15313 0.25534-0.20432 0.29265-0.25442 0.3162-0.29377 0.3174-0.4457 0.40184-0.25953 0.18658-0.34462 0.20009-0.24326 0.11386-0.35773 0.13522-0.87379 0.27566-0.99139 0.34873-0.63699 0.24414-1.8433 0.75433-0.82933 0.30788-1.0967 0.36002-2.4005 0.71333-0.54155 0.17587-0.61817 0.2227-0.42109 0.18022-0.4436 0.24996-0.31396 0.25431-0.18612 0.21861-0.21697 0.44566-0.076504 0.29258-0.082318 0.61057-0.036974 0.74665 0.016948 0.41622 0.047643 0.43036 0.37919 2.2923 0.072224 0.66283 0.060836 0.90659 0.090777 0.60824 0.25304 1.1529 0.086283 0.4874 0.013426 0.35324-0.046824 0.39314-0.091949 0.34642-0.10637 0.29103-0.18908 0.42371-0.29733 0.59498-0.21293 0.37717-0.2539 0.40538-0.37242 0.52585-0.32251 0.37275-0.35372 0.35364-0.38008 0.33553-0.33502 0.25045-0.37653 0.24497-1.4721 0.84034-0.54476 0.33201-0.52098 0.34205-0.62302 0.46816-0.22297 0.19363-0.28775 0.28402-0.26046 0.31563-0.2582 0.43432-0.17667 0.43102-0.079341 0.26857-0.04179 0.26428 0.017149 0.33566 0.096184 0.33183 0.1659 0.29653 0.10924 0.13343 0.17688 0.16273 0.21755 0.14909 0.29694 0.15566 0.46598 0.19495 0.86115 0.30972 0.3938 0.16103 0.26166 0.12703 0.40713 0.24275 0.39539 0.30025 0.33676 0.32402 0.33505 0.40553 0.22642 0.33382 0.27482 0.51302 0.57571 1.231 0.36596 0.70879 0.82268 1.4895 1.834 3.163 0.9404 1.6653 0.46056 0.85994 0.63014 1.2621 0.73679 1.6156 0.69366 1.6541 0.63775 1.6497 0.73559 2.001 0.13287 0.32796 0.055103 0.095014-0.031809-0.002341-0.17274 0.082247-0.15582 0.1442-0.11048 0.13462-0.13726 0.20932-0.12155 0.22753-0.17752 0.40945-0.079823 0.22923-0.071337 0.27327-0.048284 0.36872-0.001789 0.23302 0.028979 0.31703 0.13401 0.72202 0.046192 0.32275 0.011134 0.34561-0.022575 0.32109-0.068981 0.4501-0.24068 1.0497-0.2144 1.0687-0.42175 1.4502-0.16461 0.635-0.098724 0.51232-0.12757 0.91785-0.093595 0.40637-0.050641 0.14439-0.18243 0.35839-0.24059 0.34669-0.49558 0.62636-0.20305 0.28525-0.20116 0.36067-0.14734 0.41651-0.26201 1.2462-0.10276 0.34662-0.14553 0.32997-0.14748 0.23514-0.24273 0.29949-0.24972 0.25668-1.0662 0.96208-0.47725 0.48589-0.34222 0.39142-0.77183 0.94645-0.26227 0.28773-0.4415 0.41394-0.95179 0.768-0.58214 0.42818-0.62824 0.42049-0.77058 0.46165-0.75867 0.40116-0.45349 0.208-0.56553 0.21806-0.5233 0.15892-0.32135 0.07625-0.11057 0.011451-0.049476-0.040921-0.0748-0.023297-0.17894-0.010482-0.31349 0.041179-0.20814 0.0521-0.3637 0.12547-0.25194 0.1097-0.58248 0.30646-0.6583 0.40683-0.55681 0.4021-0.37732 0.32695-0.61127 0.58283-0.34744 0.28948-0.4474 0.2918-0.29883 0.15688-0.47788 0.21009-0.50982 0.18637-2.5766 0.75039-0.61872 0.20532-0.69282 0.26051-0.62601 0.27516-0.56268 0.29293-0.61267 0.36962-0.40134 0.27453-0.33566 0.25364-0.29752 0.24727-0.88469 0.82804-1.3296 1.3724-1.2501 1.2588-0.90275 0.9931-0.78637 0.92497-0.4898 0.62533-1.143 1.6293-0.93022 1.3978-0.58208 0.78772-0.47148 0.58104-0.41892 0.47428-0.40824 0.43338-0.54565 0.54785-0.54779 0.4995-0.50902 0.38621-0.18329 0.11602-0.31976 0.16979-0.40814 0.15631-0.37484 0.094609-0.28972 0.04555-0.24366 0.020713-0.39537-0.001986-0.16273-0.015924-0.29621-0.058711-0.48538-0.19988-0.44473-0.27301-0.42786-0.30886-0.38033-0.38304-0.10707-0.15118-0.1479-0.26052-0.17195-0.40245-0.18982-0.61754-0.174-0.79898-0.12795-0.8077-0.11382-1.1294-0.079835-1.3768-0.020741-1.1919 0.042514-0.77902 0.21561-1.8989 0.13501-1.571 0.10714-1.6872 0.016994-0.56883-0.005322-0.52751-0.03365-0.53471-0.079305-0.65378-0.39046-2.1957-0.092993-0.65529-0.092322-0.84614-0.070511-0.94206-0.02111-0.64524-0.001807-1.386-0.017979-0.7783-0.09152-1.0706-0.15332-1.0364-0.28025-1.4248-0.15849-0.64858-0.081735-0.27603-0.11473-0.31345-0.09422-0.20093-0.097749-0.16835-0.17925-0.23035-0.16067-0.14387-0.1374-0.088012-0.19231-0.077412-0.31817-0.032337-0.28356 0.040399-0.3207 0.09827-0.36425 0.16459-0.25101 0.14465-0.28727 0.19795-0.29255 0.23652-0.33342 0.30802-1.002 1.0499-0.40496 0.40728-0.3859 0.36105-1.3496 1.1551-0.96546 0.86052-0.32013 0.27236-0.4729 0.3705-0.56553 0.40031-0.44046 0.28728-2.3489 1.4213-0.81299 0.53215-0.39571 0.27843-0.46153 0.34759-0.47014 0.38398-1.4391 1.2896-0.63502 0.62271-1.1098 1.2499-1.1875 1.2124-0.40876 0.45317-0.31607 0.40048-0.23754 0.34926-0.18045 0.30499-0.26039 0.51324-0.45103 1.0061-0.15979 0.29509-0.23712 0.3759-0.22171 0.30415-0.29747 0.35464-0.2992 0.31219-0.47455 0.43246-0.29904 0.2428-0.43919 0.32386-1.3537 0.92906-0.28854 0.18361-0.60384 0.33194-1.4859 0.67999-0.92148 0.48568-0.53873 0.31804-0.48738 0.32414-0.30635 0.25663-0.057706 0.073138-0.013495 0.065133-0.073777-0.12185-0.11141-0.14147-0.49478-0.57474-0.43973-0.477-0.34846-0.33431-0.33646-0.27-0.21077-0.14065-0.2938-0.15941-0.23985-0.099376-0.27788-0.084108-0.2285-0.047141-0.28092-0.036031-0.38088-0.019764-0.57552 0.009304-1.1286 0.063795-0.67177 0.022473-0.51769-0.001007-0.57503-0.032759-0.42978-0.062057-0.36008-0.089528-0.33043-0.12181-0.38961-0.20343-0.28091-0.19559-0.13033-0.10867-0.17588-0.16899-0.15321-0.17483-0.17404-0.24245-0.11482-0.19561-0.18884-0.4235-0.12031-0.42341-0.050676-0.33028-0.012069-0.23042 0.011485-0.24455 0.039159-0.24123 0.039111-0.15019 0.12243-0.31892 0.12443-0.23379 0.13516-0.21127 0.18688-0.25498 0.27536-0.33436 0.30439-0.33963 1.1332-1.1907 0.56956-0.62023 0.71268-0.822 1.4286-1.6918 1.6478-1.8453 0.32332-0.3517 0.50288-0.51281 0.40976-0.38406 0.62189-0.54102 3.0965-2.5594 0.5523-0.41843 1.6923-1.1943 0.898-0.67993 0.53137-0.46309 0.49417-0.50221 0.4471-0.537 0.38706-0.56934 0.26376-0.48714 0.23306-0.52401 0.23882-0.63826 0.16776-0.53839 0.088186-0.38622 0.075449-0.44605 0.18151-1.2778 0.12265-0.50089 0.080001-0.21779 0.12454-0.25405 0.13772-0.21595 0.15112-0.18577 0.2241-0.21259 0.27703-0.20547 0.325-0.19812 0.37731-0.19248 1.0425-0.41809 1.7697-0.62259 0.75819-0.29514 0.67249-0.30297 0.5625-0.32815 0.50767-0.39479 0.48728-0.52902 0.38913-0.60064 0.28173-0.65479 0.15646-0.69585 0.015856-0.74057-0.055697-0.50197-0.097754-0.50827-0.10548-0.4149-0.12607-0.41562-0.18662-0.52725-0.1972-0.49068-0.45621-1.0505-0.52211-1.3243-1.5755-4.4502-0.24405-0.59715-1.3415-3.0683-0.37973-0.93799-0.2967-0.81605-0.24096-0.71944-0.75132-2.4345-0.39941-1.0638-0.4952-1.1394-0.2785-0.5906-0.19236-0.37071-0.52415-0.92245-0.7434-1.2-0.50406-0.75182-1.0069-1.4501-0.4609-0.71776-0.20313-0.35264-0.15055-0.28668-0.1938-0.42279-0.065304-0.16526-0.19341-0.60376-0.1676-0.61401-0.63817-2.0906-0.21336-0.77846-0.35804-1.2136-0.19189-0.74282-0.18116-1.0481-0.21864-1.6593-0.010172-0.71024 0.060538-0.41835 0.17372-0.60062 0.22982-0.5186 0.2931-0.48088 0.23948-0.27801 0.10657-0.059606-0.073059-0.081809-0.12824-0.2736-0.91-2.3351-0.20911-0.47383-0.26759-0.52464-0.30835-0.48724-0.31872-0.38994-0.30758-0.2898-0.3766-0.27991-0.27626-0.16945-0.47052-0.23938-0.37763-0.1588-0.48004-0.17232-0.54345-0.17361-2.0973-0.6171-0.7524-0.23935-0.89197-0.32549-0.67644-0.28965-0.95593-0.47131-0.4267-0.23082-0.81905-0.47628-1.0872-0.68063-1.3629-0.90982-0.48551-0.3382-1.0558-0.77195-0.89172-0.69758-0.50347-0.41364-1.1348-0.98408-0.72336-0.67842-0.36665-0.36704-0.64014-0.69393-0.33562-0.3989-0.585-0.77647-0.24984-0.37554-0.32916-0.55617-0.19501-0.37143-0.23745-0.51131-0.15429-0.37818-0.13264-0.38302-0.13702-0.52172-0.2976-1.5856-0.16946-0.69374-0.12553-0.40884-0.48015-1.3966-0.18262-0.6179-0.13849-0.65341-0.076299-0.65722-0.005489-0.65292 0.092149-0.7515 0.18016-0.7223 0.2474-0.67962 0.1257-0.27927 0.64357-1.1864 0.20008-0.46283 0.15451-0.56775 0.086662-0.61014 0.033603-0.64342-0.007272-0.66929-0.026884-0.52599-0.1253-1.3744-0.35032-2.6826-0.41835-2.6631-2.2447-12.789-1.7454-10.088-0.082413-0.31074-0.27725-1.3983-0.51014-2.8595-0.4789-2.9912-0.26193-1.9462-0.10394-0.95508-0.079525-0.94419-0.048605-0.93455-0.013735-0.94082 0.046616-2.7748-0.001742-0.90871-0.034927-0.89925-0.086016-0.88801-0.050052-0.33344-0.14108-0.71683-0.17673-0.70881-0.20288-0.70205-0.2212-0.69615-0.70932-2.0754-0.34252-1.059-0.2703-0.7675-0.61327-1.5377-1.7648-4.0547-1.0979-2.4709-1.5835-3.4901-3.066-6.6927 3.7128-1.929 2.2839-1.1683 1.5691-0.82574 1.5977-0.87375 4.597-2.5647 2.3153-1.244 3.9081-2.0189 2.3542-1.1892 2.563-1.2659 2.3013-1.1874 1.4527-0.76581 3.6275-1.9957 2.3907-1.2894 2.33-1.2133 1.1726-0.57993 0.53947-0.24937 2.889-1.6891 3.0847-1.7636 1.5097-0.8976 1.0221-0.6403 2.104-1.36 1.8993-1.206 1.8135-1.1262 2.6329-1.5971 2.5588-1.6133 1.2667-0.82452 1.4641-1.0043 1.3271-0.96834 2.7694-2.0753 0.91078-0.64676 0.67224-0.43403 0.65678-0.38356 0.33574-0.17995 0.82657-0.39482 0.39935-0.16731 0.92603-0.33498 0.85939-0.25629 1.9014-0.49733 1.3815-0.39359 0.85798-0.27852 1.2541-0.45494 1.3429-0.52942 1.8438-0.7552 2.6629-1.2156 2.4612-1.0709 1.5883-0.65046 1.8779-0.72546 1.03-0.42954 1.3314-0.61621 1.2984-0.64108 5.3265-2.7279 4.2886-2.2788 1.6768-0.92854 0.53065-0.32748 0.11853 0.17969 0.51468 0.91669 1.2232 2.2583 2.9762 5.6712 0.87168 1.5822 0.44217 0.75988 0.45116 0.73348 0.46524 0.70042 0.48596 0.65806 0.51529 0.60305 0.5557 0.53123 0.61025 0.43745 0.13061 0.074305 0.72544 0.32204 0.76177 0.22957 0.80007 0.16941 0.82743 0.12642 0.84653 0.096342 1.7266 0.13918 3.4752 0.23067 0.85228 0.07585 0.83651 0.094144 0.814 0.12012 0.78275 0.15591 0.74014 0.20431 0.68286 0.26881 0.39351 0.2087 0.29729 0.1869 0.65525 0.48582 2.0114 1.5817 0.45696 0.33008 0.35236 0.22296 0.36286 0.19554 0.46202 0.20178 0.93486 0.35249 1.2964 0.54529 0.54303 0.19311 0.51113 0.21064 0.37204 0.22262 0.30478 0.24815 0.23378 0.26708 0.11844 0.183 0.095279 0.18913 0.11178 0.32462 0.056514 0.29734 0.016734 0.19206-0.01739 0.46373-0.11343 0.73537-0.038113 0.45954 0.020256 0.56026 0.12975 1.0273 0.027599 0.3461 0.003331 0.35083-0.034745 0.37841-0.083717 0.37015-0.18009 0.45048-0.19741 0.33349-0.24099 0.30793-0.15302 0.16067-0.18434 0.16851-0.38676 0.29755-1.4733 0.97282-0.53189 0.3805-0.97014 0.72993-0.31856 0.21627" stroke="#bdc660"/>
    </defs>
    <g clip-path="url(#pf7560018ad)">
     <use y="280.512" fill="#bdc660" stroke="#bdc660" xlink:href="#me64a5052d1"/>
    </g>
   </g>
  </g>
 </g>
 <defs>
  <clipPath id="pf7560018ad">
   <rect x="7.2" y="7.2" width="162.2" height="266.11"/>
  </clipPath>
 </defs>
</svg>
