<?xml version="1.0" encoding="UTF-8"?>
<!DOCTYPE svg  PUBLIC '-//W3C//DTD SVG 1.1//EN'  'http://www.w3.org/Graphics/SVG/1.1/DTD/svg11.dtd'>
<svg width="363.01pt" height="280.51pt" version="1.1" viewBox="0 0 363.01 280.51" xmlns="http://www.w3.org/2000/svg" xmlns:xlink="http://www.w3.org/1999/xlink">
 <metadata>
  <rdf:RDF xmlns:cc="http://creativecommons.org/ns#" xmlns:dc="http://purl.org/dc/elements/1.1/" xmlns:rdf="http://www.w3.org/1999/02/22-rdf-syntax-ns#">
   <cc:Work>
    <dc:type rdf:resource="http://purl.org/dc/dcmitype/StillImage"/>
    <dc:date>2024-07-04T12:11:43.776030</dc:date>
    <dc:format>image/svg+xml</dc:format>
    <dc:creator>
     <cc:Agent>
      <dc:title>Matplotlib v3.7.1, https://matplotlib.org/</dc:title>
     </cc:Agent>
    </dc:creator>
   </cc:Work>
  </rdf:RDF>
 </metadata>
 <defs>
  <style type="text/css">*{stroke-linejoin: round; stroke-linecap: butt}</style>
 </defs>
 <g id="figure_1">
  <g id="patch_1">
   <path d="m0 280.51h363.01v-280.51h-363.01v280.51z" fill="none"/>
  </g>
  <g id="axes_1">
   <g id="PatchCollection_1">
    <defs>
     <path id="m9d6093bb6f" d="m250.34-255.35 0.76017 0.031543 1.164-0.022109 1.0015-0.062082 3.0249-0.25714 0.023309 0.10336-0.17273 0.46242-2.1058 4.4788-0.55586 1.3025-0.88907 2.4063-0.52492 1.7807-0.30866 1.4967-0.12664 1.0552-0.028566 0.92491 0.086925 1.0543 0.15212 0.84003 0.36622 1.3328 0.34728 0.91304 0.46036 0.96308 0.85318 1.4761 0.89833 1.3833 1.1439 1.6459 0.68243 0.90303 0.66352 0.814 1.2421 1.3467 1.185 1.0845 0.63042 0.508 1.1323 0.81127 0.61289 0.39062 1.282 0.71418 0.84734 0.40222 0.84895 0.35409 1.4116 0.49658 2.0939 0.56665 1.5345 0.30283 0.91484 0.13019 0.90518 0.081823 1.0168 0.023377 0.94491-0.053018 1.3004-0.17676 1.0692-0.2145 2.226-0.56744 2.2753-0.67528 1.3122-0.42983 1.4707-0.52429 1.6937-0.66669 2.5445-1.1453 1.3029-0.66179 1.1624-0.64307 1.2887-0.787 1.1214-0.7713 1.307-1.0443 0.79761-0.74069 1.1084-1.1745 0.76369-0.89694 2.8727-3.6784 1.4332-1.7391 0.85805-0.93837 0.7402-0.7342 1.1073-0.96597 0.73644-0.55354 0.81815-0.53977 0.58228-0.3411 1.0217-0.50921 1.195-0.42524 1.2865-0.23382 1.3121-0.065367 1.3264 0.037816 2.8727 0.18506 1.5103 0.19099 1.453 0.39399 0.99445 0.46732 0.91451 0.58933 0.86346 0.6982 1.026 1.0135 0.95198 1.098 1.4864 1.8181 1.2917 1.6723 0.65625 0.89126 1.5962 2.3708 0.13355 0.14541 3.7087 3.5221 0.9332 1.0529 0.74888 1.0586 1.8447 2.9589 0.5963 0.86552 0.98315 1.2489 1.9186 2.2324 0.58024 0.72042 0.57087 0.84551 0.3105 0.67667 0.091123 0.34099 0.039901 0.7345-0.11243 0.74709-0.78285 3.1653-0.36043 1.0547-0.4633 1.1003-1.6583 3.463-0.88513 2.0246-0.35566 1.0231-0.26025 1.0308-0.13025 1.0397 0.048403 1.2598 0.22674 1.2742 0.34871 1.2888 1.2772 3.8263 0.3692 1.2161 0.31285 1.235 0.18728 0.97214 0.13221 0.98092 0.071864 0.98616 0.001358 1.0679-0.088589 1.0637-0.19215 1.053-0.37367 1.2505-0.30145 0.81461-1.2151 2.8725-2.321 4.9749-0.23374 0.55874-0.092009 0.28325-0.20739 0.37144-0.35827 0.54854-0.40515 0.53799-0.44072 0.51318-0.77913 0.78329-0.86121 0.7492-0.88281 0.689-1.717 1.1865-0.93926 0.56831-0.93986 0.48748-0.94446 0.37882-0.57787 0.16356-0.58191 0.10481-0.64491 0.043622-0.79234-0.026283-1.561-0.20229-3.9111-0.82033-0.58997-0.078953-1.0217-0.053072-0.53703 0.02621-0.50834 0.074555-0.44654 0.12301-0.40964 0.18548-0.2869 0.19109-0.52016 0.50883-0.44169 0.63514-0.37402 0.73124-0.31226 0.80376-0.28696 0.99648-0.19045 0.93443-0.12707 0.9597-0.058398 1.147 0.040852 0.99358 0.29497 3.0856 0.056369 1.7841-0.080259 1.0111-0.19563 0.86877-0.307 0.7247-0.43082 0.6149-0.64548 0.55308-0.75155 0.43187-1.729 0.76294-0.63083 0.36293-0.61024 0.55126-0.43204 0.66888-0.2009 0.74135 0.046381 0.71264 0.2169 0.66359 0.3039 0.52684 0.30684 0.27346-0.47056 0.20837-1.5036 0.81905-4.5025 2.7102-0.88903 0.50218-0.99672 0.51823-1.8069 0.82793-5.1263 2.2603-2.5033 1.0331-2.5017 0.92958-1.1389 0.37529-1.235 0.36192-2.5188 0.65064-0.94165 0.2985-0.46354 0.17368-1.1357 0.52497-1.1193 0.64476-1.1025 0.74313-1.6487 1.2777-1.1151 0.94816-2.0678 1.8962-1.8345 1.8186-0.86319 0.90657-3.5344 3.9976-1.3817 1.3617-1.3065 1.0513-1.3848 0.96836-2.8547 1.8955-1.6798 1.2363-1.2959 1.0584-1.2474 1.1166-2.5173 2.4475-1.3004 1.1912-2.4625 2.0752-1.1333 0.8931-2.2704 1.6777-1.1525 0.79466-1.9213 1.2337-1.4619 0.85985-1.7848 0.95634-1.3293 0.64335-2.0826 0.91557-0.75594 0.28032-1.3092 0.2969-1.3424-0.02079-1.3769-0.29656-0.71019-0.24237-0.81464-0.36276-0.69638-0.37263-0.8551-0.5143-1.2536-0.81862-2.5959-1.7605-3.952-2.75-2.5603-1.6468-2.7777-1.6283-1.0111-0.5077-0.43957-0.083937-0.047379 0.022534-0.059903 0.16643-0.018734 0.55178 0.21052 2.7793 0.038097 1.7259-0.020974 1.1821-0.21074 3.7868-0.11337 1.4177-0.12871 0.76313-0.25181 0.82763-0.3126 0.62994-0.4003 0.59828-0.48972 0.59306-0.67953 0.6998-1.8372 1.6456-2.8363 2.3479-0.91229 0.858-0.87881 0.97529-0.79534 1.0466-0.70561 1.1059-0.6019 1.1579-0.47536 1.2074-0.20954 0.73213-0.1588 0.74596-0.13688 0.98868-0.066939 0.9997-0.004719 1.0411 0.055216 1.107 0.23624 2.6693 0.12646 1.0131 0.60688 3.2495 0.33598 2.3124 0.12831 1.0542 0.051132 0.76085 0.035294 1.7185 0.065179 1.0157 0.1792 0.94728 0.32278 0.86902 0.54134 0.97862 0.49924 0.75577 0.75551 1.0033 1.2135 1.3751 0.86344 0.8708 2.2602 2.0588 0.40881 0.41221-0.3987 0.11857-0.31004 0.46155-0.2132 0.73592-0.11446 0.87112-0.006325 0.99941 0.20199 1.4712 0.37956 1.5367 0.98686 3.2083 0.45226 1.612 0.32399 1.5896 0.11839 1.5519-0.071959 1.0531-0.17748 1.032-0.22223 0.88284-0.47325 1.3174-0.77423 1.5678-0.73973 1.2504-1.1682 1.8206-3.255 4.6226-0.85993 1.036-0.95032 1.0059-0.87407 0.83627-1.4779 1.2722-1.5421 1.1852-1.5679 1.0788-1.5592 0.9402-0.80077 0.41837-0.88392 0.40068-0.87196 0.32068-0.24434 0.073742-1.4943 0.24298-0.31116-0.002674-0.71765-0.082619-0.89404-0.265-0.88124-0.4241-1.0306-0.67532-1.0119-0.82557-0.81812-0.76901-1.5904-1.7054-1.5043-1.7854-3.4487-4.2104-1.8104-2.0466-1.6523-1.6792-1.6551-1.4798-1.3424-1.0145-2.5624-1.6334-2.8582-1.8784-3.2844-1.8704-4.4215-2.672-2.0259-1.2873-2.7006-1.8519-1.7306-1.2728-3.5058-2.7581-1.5359-1.1534-1.9302-1.3065-0.35495-0.19967-0.17758-0.047312-1.6055-0.79254-1.4635-0.54803-0.84649-0.23009-0.64283-0.12672-0.78709-0.094213-0.62625-0.028465-0.90384 0.025606-1.0774 0.11964-0.84624 0.15255-1.2553 0.30688-1.5601 0.50779-0.69281 0.27083-1.1425 0.51267-0.98543 0.54596-0.98468 0.68606-0.93138 0.8051-0.72171 0.75881-0.40297 0.50729-0.47846 0.77088-1.315 2.6513-0.59784 1.0714-0.44692 0.72955-0.48631 0.69076-0.50334 0.57705-0.49456 0.44842-0.37654 0.27228-0.58498 0.33428-0.63806 0.2804-1.3538 0.42255-0.71742 0.15868-1.1415 0.16963-1.2035 0.060186-0.94104-0.038367-1.2782-0.16495-0.73533-0.15196-0.92854-0.24898-0.65933-0.21126-2.8489-1.0368-0.95541-0.26879-0.77648-0.13936-0.7637-0.047968-0.89178 0.069548-0.72131 0.15212-0.71286 0.2322-0.88174 0.40146-0.65638 0.38205-0.8413 0.58394-0.64678 0.50658-2.1056 1.8123-2.6528 2.4256-2.2255 1.9751-2.013 1.7189-0.52153 0.41823-0.21497 0.121-1.3649-2.2717-3.3281-4.9169-3.3906-4.5314-2.0858-2.7195-1.0296-1.4734-0.74004-1.2521-0.74295-1.5217-1.8666-4.4871-0.74977-1.6139-0.29261-0.53645-0.4043-0.63043-0.45429-0.56746-0.61725-0.57532-0.6946-0.45171-0.31896-0.15069-0.50803-0.17773-0.53508-0.12753-1.325-0.16142-3.4824-0.13845-1.7886-0.18917-0.95938-0.21354-0.92973-0.37273-0.63812-0.44461-0.52596-0.58516-0.44179-0.70387-0.38906-0.79076-1.1192-2.7119-0.40503-0.90055-0.44822-0.89743-0.49367-0.87881-0.64043-0.99506-0.6757-0.92021-0.67364-0.80989-0.604-0.63488-0.47665-0.41777-0.25166-0.099235-0.90766-1.3611-1.1975-1.571-0.60649-0.87271-0.65192-1.1278-1.1818-2.4279-0.88263-1.6588-0.65007-1.0082-1.1317-1.4185 0.096284-0.028871 0.087421-0.096287 0.18784-0.33494 0.4625-1.2294 0.39795-1.374 0.79759-3.1254 0.48011-1.6721 0.49689-1.4275 0.56054-1.2917 0.65071-1.2007 0.50594-0.78266 0.80521-1.0605 0.49151-0.56417 0.79353-0.80928 0.95868-0.84729 0.62258-0.48874 1.0381-0.72459 1.2971-0.77881 1.4199-0.73876 3.5529-1.6472 1.1485-0.57885 1.0195-0.59441 0.88673-0.61916 0.64744-0.53758 0.89298-0.88803 0.79501-0.96509 0.94738-1.4545 0.73401-1.5472 0.50552-1.5548 0.59886-2.5204 0.37824-2.1627 0.12136-1.4805 0.006847-1.3202-0.10506-1.4583-0.24098-1.5004-0.29176-1.197-0.5679-1.8001-0.6782-1.7055-0.77067-1.5658-0.85558-1.3704-1.5593-1.9656-1.0446-1.5878-1.9737-3.5642-1.095-1.8286-0.68092-0.92034-0.47884-0.51091-0.54962-0.45289-0.53684-0.33245-0.72553-0.30737-0.27216-0.078348-1.1533-0.16255-0.93749 0.016159-1.057 0.12882-0.52313 0.10212-0.79859 0.19753-2.3619 0.7109-0.96572 0.23689-1.148 0.17557-0.7374 0.016634-0.59691-0.074189-0.47482-0.13441-0.30839-0.13541-0.47657-0.31302-0.524-0.54321-0.45613-0.67557-0.6881-1.3004-0.79379-1.7321-1.3489-3.1603-0.70652-1.3787-0.83063-1.3434-0.94609-1.2764-1.2606-1.3716-1.0005-0.87466-2.6357-2.0786-1.2397-1.1739-1.1338-1.2969-0.3319-0.43343-0.39577-0.55862-0.60492-0.96514-0.52504-0.99343-0.38979-0.89674-0.30716-0.90716-0.20336-0.86687-0.10688-0.86593 0.032498-1.3962 0.1988-1.3858 0.24993-1.3829 0.18553-1.3854 0.004099-1.39-0.29661-1.5058-0.56195-1.4693-0.74547-1.3796-0.68924-1.0097-0.82623-0.94592-0.79899-0.59567-0.54949-0.1478-0.37889 0.17768 0.060539-0.48896 0.04793-1.3131 0.022056-3.5594 0.074217-2.6029 0.004093-2.5514 0.040658-0.8114 0.090162-0.77597 0.1602-0.72956 0.69128-1.8104 0.16188-0.51343 0.11557-0.51854 0.057357-0.71338-0.06426-0.74867-0.42007-2.1382-0.34648-2.8036-0.37413-1.6662-0.48043-1.7138-1.2827-4.2831-0.59612-2.4278-0.22466-0.76092-0.85202-2.4286-0.59706-1.9229-1.5793-5.5708 0.98723-0.1596 1.0925-0.24738 1.0721-0.30521 1.2148-0.42335 1.3285-0.55067 1.2785-0.59494 1.742-0.89005 1.0823-0.60315 1.495-0.93896 2.825-2.0684 0.72404-0.56538 1.0372-0.91165 0.99051-0.96005 1.422-1.4745 1.7131-1.8663 0.38161-0.3646 0.8562-0.68132 0.55401-0.37605 1.1998-0.69582 0.61338-0.30364 1.3156-0.57288 2.1242-0.78822 3.362-1.0528 5.6153-1.4778 1.8998-0.46249 2.0701-0.45072 1.6089-0.30457 2.3978-0.39844 4.481-0.61681 1.6549-0.28341 1.5811-0.32005 1.4489-0.36835 0.6456-0.20852 0.57039-0.22926 0.72468-0.35843 0.34735-0.13077 0.36443-0.063562 0.52774 0.015891 0.46696 0.061148 2.084 0.35304 5.0785 0.93649 1.5503 0.34946 1.0166 0.35386 0.63624 0.2993 0.78841 0.45489 2.2274 1.4855 0.61878 0.32387 0.2545 0.086443 0.13746-0.025449-0.023818 0.12196-0.1669 0.33843-1.4436 2.7381-1.1032 2.3651-0.45714 1.1556-0.38953 1.1556-0.24282 0.87832-0.20567 0.98325-0.11945 0.96277-0.014941 1.0096 0.078389 0.7279 0.15165 0.68635 0.21534 0.66588 0.25311 0.61562 0.29254 0.59896 0.59192 1.0122 0.4329 0.63542 0.60511 0.78251 1.6456 1.9031 1.5965 1.997 1.5278 2.0627 1.3096 1.9341 0.69906 1.2592 2.4614 5.0281 1.2177 2.307 3.8336 6.8827 1.1527 1.9266 0.61211 0.95874 1.0106 1.4984 1.6806 2.352 6.8421 9.1093 2.4493-0.048929 1.3533-0.091225 1.2074-0.12266 1.2416-0.1805 1.4724-0.32942 1.1637-0.3825 1.1173-0.49319 0.92688-0.52365 1.0358-0.73129 1.1065-0.97458 0.99918-1.0849 0.98661-1.316 0.85511-1.4013 0.62751-1.241 0.69705-1.6461 0.53391-1.4853 0.4462-1.4877 0.30149-1.2663 0.21933-1.2545 0.11167-1.0079 0.046744-0.99093-0.044132-1.3112-0.42498-3.5065-0.015241-1.265 0.14314-1.2702 0.22491-0.93546 0.32598-0.92018 0.41684-0.88701 0.50278-0.86347 0.82326-1.1572 0.94569-1.1117 0.81226-0.84172 1.7111-1.5741 1.9757-1.6002 2.3383-1.6804 2.4045-1.5643 2.2489-1.3388 1.0754-0.59076 1.7526-0.88161 2.0116-0.88865 1.8143-0.70745 2.1704-0.74086 2.3002-0.6606 1.7619-0.40642 1.1632-0.21195 1.1691-0.16516 1.4825-0.13797 1.7718-0.059024 2.0067 0.067521 1.307 0.11627 1.692 0.22875 1.8452 0.35066 1.7429 0.43478 1.2362 0.37131 1.2097 0.41905 1.6251 0.66267 1.7608 0.86355 0.96889 0.54825 0.9202 0.57622 1.2057 0.85542 0.99832 0.82634 0.5939 0.5668 0.54872 0.6016 0.48198 0.62145 0.89407 1.3585 0.23707 0.3231 0.35813 0.39467 0.56879 0.42326 0.5276 0.2163 0.58657 0.06751 0.6287-0.1414 0.37469-0.21678 0.37489-0.35544 0.59558-1.0367 0.36466-1.2338 0.26302-1.5744 0.6003-4.8642 1.093-7.0599 0.19667-1.751 0.38582-4.4517 0.18164-1.164 0.2581-1.1117 0.29898-0.91015 0.37636-0.84829 0.43376-0.73582 0.55704-0.7125 0.64039-0.61239 0.99017-0.65117 0.67066-0.28672 0.61568-0.17451 0.72707-0.11388 0.98011-0.027425 0.83786 0.065077 1.015 0.15663 1.6706 0.3783 1.4884 0.41408 4.8372 1.5043 1.8221 0.51254 1.4053 0.3296 1.3922 0.23819 1.5684 0.1194 1.5282-0.0856 1.0819-0.2154 1.4921-0.52524 1.3306-0.70931 0.7552-0.5162 0.76152-0.6128 1.6365-1.5493 3.5288-3.6841 1.0092-1.1305 1.8263-2.3235 0.73654-0.82974 0.80266-0.68117 0.88186-0.48606 0.67365-0.18498 0.66384-0.009853 0.3457 0.072726 0.45386 0.18753 0.42116 0.2684 0.86926 0.78145 2.2022 2.3192 0.8025 0.6335 0.57083 0.33701 0.68118 0.31832 0.78839 0.29193 1.4278 0.37959 0.93446 0.16341 1.1129 0.11693" stroke="#bdc660"/>
    </defs>
    <g clip-path="url(#pd9eff33b57)">
     <use y="280.512" fill="#bdc660" stroke="#bdc660" xlink:href="#m9d6093bb6f"/>
    </g>
   </g>
  </g>
 </g>
 <defs>
  <clipPath id="pd9eff33b57">
   <rect x="7.2" y="7.2" width="348.61" height="266.11"/>
  </clipPath>
 </defs>
</svg>
