<?xml version="1.0" encoding="UTF-8"?>
<!DOCTYPE svg  PUBLIC '-//W3C//DTD SVG 1.1//EN'  'http://www.w3.org/Graphics/SVG/1.1/DTD/svg11.dtd'>
<svg width="291.96pt" height="280.51pt" version="1.1" viewBox="0 0 291.96 280.51" xmlns="http://www.w3.org/2000/svg" xmlns:xlink="http://www.w3.org/1999/xlink">
 <metadata>
  <rdf:RDF xmlns:cc="http://creativecommons.org/ns#" xmlns:dc="http://purl.org/dc/elements/1.1/" xmlns:rdf="http://www.w3.org/1999/02/22-rdf-syntax-ns#">
   <cc:Work>
    <dc:type rdf:resource="http://purl.org/dc/dcmitype/StillImage"/>
    <dc:date>2024-07-04T12:11:38.529766</dc:date>
    <dc:format>image/svg+xml</dc:format>
    <dc:creator>
     <cc:Agent>
      <dc:title>Matplotlib v3.7.1, https://matplotlib.org/</dc:title>
     </cc:Agent>
    </dc:creator>
   </cc:Work>
  </rdf:RDF>
 </metadata>
 <defs>
  <style type="text/css">*{stroke-linejoin: round; stroke-linecap: butt}</style>
 </defs>
 <g id="figure_1">
  <g id="patch_1">
   <path d="m0 280.51h291.96v-280.51h-291.96v280.51z" fill="none"/>
  </g>
  <g id="axes_1">
   <g id="PatchCollection_1">
    <defs>
     <path id="m9100f05f54" d="m180.73-257.28 0.60078 1.8339 0.71763 2.381 0.75693 2.6512 0.3631 1.1499 0.90932 2.5524 0.5453 1.4812 0.63736 1.619 0.33518 0.78388 0.33331 0.72073 0.34833 0.682 0.36637 0.62845 0.38888 0.55551 0.23304 0.274 0.4864 0.42749 0.52875 0.23592 0.26418 0.029211 0.25063-0.017117 0.27216-0.059286 0.29236-0.10328 0.29966-0.14195 0.24802-0.14127 0.33176-0.21741 0.65761-0.50029 1.6966-1.4229 1.2085-0.93962 1.1574-0.84637 0.83954-0.59098 1.004-0.67792 0.95993-0.61819 1.1592-0.69128 2.9195-1.6655 1.0588-0.57616 2.3597-1.2334 1.0534-0.58127 0.51882-0.30754 0.91705-0.58722 0.50354-0.34414 1.0946-0.78601 2.306-1.7517 1.6688-1.3134 1.9345-1.6003 0.31105 0.35572 0.74726 0.79988 0.66582 0.7755 0.46158 0.59529 0.60826 0.88895 0.43528 0.70755 0.41165 0.72463 0.77947 1.4948 1.3932 2.7631 0.80335 1.5112 0.43918 0.787 0.28622 0.48674 0.28923 0.42756 0.76308 0.88727 0.19848 0.26257 0.20055 0.33356 0.87893 1.9661 0.21212 0.57636 0.16859 0.53985 0.20561 0.73573 0.19033 0.72759 0.2233 0.94154 0.14677 0.71691 0.17891 1.072 0.12996 1.0022 0.088878 0.96848 0.041277 0.90399-8.16e-4 0.85252-0.040195 0.59911-0.057217 0.51876-0.073388 0.43508-0.077833 0.34311-0.11547 0.38047-0.16223 0.42554-0.31005 0.69075-0.71183 1.3924-0.28075 0.58018-0.21658 0.4698-0.19298 0.4812-0.09654 0.29471-0.14484 0.56497-0.12418 0.68179-0.083803 0.77931-0.024376 0.48328 0.002086 0.99293 0.072923 1.28 0.088474 0.88218 0.21134 1.6229 0.058352 0.73233 0.004589 0.29141-0.067006 1.2425 0.02107 0.543 0.077706 0.56691 0.12142 0.56058 0.21874 0.79595 0.19699 0.62293 0.44653 1.2724 0.48887 1.5179 0.20355 0.5694 0.32628 0.71691 0.24359 0.43476 0.32749 0.49402 0.71227 0.97039 1.8365 2.3759 0.77008 1.0337 0.49327 0.72969 1.1677 1.8084 1.0074 1.4738 0.44484 0.68084 0.58296 0.96081 0.60312 1.0937 0.54739 1.1331 0.87096 1.9593 0.040969-0.051733 0.081862 0.003434 0.23529 0.15136 0.29727 0.30079 0.32714 0.40116 0.22137 0.30435 0.34127 0.55384 0.3165 0.61356 0.29233 0.64893 0.27072 0.66487 0.48658 1.3202 0.19732 0.60013 0.1033 0.39986 0.087359 0.43761 0.1012 0.71822 0.068159 0.73373 0.075405 1.2175 0.11879 2.8051 0.058349 0.65274 0.084708 0.60664 0.11527 0.57254 0.15236 0.52506 0.19866 0.46025 0.19331 0.29889 0.12641 0.1425 0.14707 0.1278 0.16295 0.10308 0.18402 0.074913 0.15256 0.03329 0.15091 0.009777 0.15791-0.012776 0.14399-0.030577 0.17124-0.057502 0.47538-0.24677 1.181-0.7232 0.42118-0.23496 1.173-0.56744 0.58532-0.25941 0.39238-0.15285 0.69467-0.22136 2.9165-0.73862 0.98688-0.26387 1.0248-0.31574 2.2366-0.73032 1.5622-0.4922 0.11644-0.052372 0.20338 0.036739 0.14548 0.059159 0.19281 0.1045 0.22866 0.15104 0.49321 0.41436 0.44608 0.48935 1.0937 1.3798 0.75825 0.84863 0.58553 0.70225 0.31462 0.43293 0.26866 0.45986 0.26778 0.66816 0.19044 0.71622 0.38867 2.0268 0.12464 0.52684 0.14328 0.49575 0.24419 0.65449 0.22346 0.45187 0.13141 0.21884 0.29438 0.40463 0.18106 0.20879 1.0093 1.0308 0.28126 0.32973 0.24485 0.33042 0.20552 0.34381 0.15491 0.32343 0.12814 0.34342 0.074413 0.27388 0.033023 0.17364 0.038658 0.47543-0.009146 0.31435-0.052536 0.4881-0.091877 0.52212-0.10433 0.47827-0.425 1.6205-0.07473 0.43748-0.03398 0.45085 0.022598 0.57804 0.10318 0.65379 0.15068 0.57984 0.18661 0.52323 0.25454 0.56348 0.42652 0.81623 0.98514 1.7339 0.47311 0.77528 0.31611 0.45714 0.33348 0.4359 0.94 1.1393 1.1134 1.4198 0.30103 0.41191 0.39958 0.6245 0.26421 0.49375 0.31844 0.74612 0.21984 0.6994 0.13521 0.63999 0.10341 0.93975 0.021774 0.6646-0.043173 1.1391-0.21867 2.465-0.042127 0.73324-0.011243 1.0719 0.056823 0.99297 0.090824 0.62409 0.12367 0.51233 0.12146 0.39804 0.5176 1.5032 0.15307 0.49644 0.17334 0.65811 0.11496 0.53242 0.1242 0.77951 0.068176 0.78671 0.014784 0.54472-0.010699 1.2717 0.016477 0.017632 0.010383 0.088767-0.00577 0.19303-0.044621 0.40054-0.072019 0.44048-0.12891 0.59228-0.21244 0.72229-0.32352 0.87155-0.43615 1.0416-0.37471 0.80156-0.47447 0.88556-0.41828 0.67574-0.29857 0.42512-0.37704 0.46851-0.36663 0.38445-0.3577 0.3143-0.62528 0.44354-0.66854 0.37569-0.69922 0.31926-0.72021 0.27038-0.7619 0.23288-0.43095 0.10864-0.40989 0.086883-0.72042 0.12271-1.5475 0.21266-3.5257 0.53129-1.2727 0.14883-1.8755 0.1769-0.73259 0.062501-1.0407 0.058459-1.2126 2.7e-4 -2.0086-0.09676-0.82976 0.01527-0.84384 0.067611-0.8559 0.10499-2.2182 0.35462-0.80875 0.15292-1.2257 0.28318-1.0154 0.28489-0.85479 0.28362-0.82132 0.32268-0.76713 0.36714-0.68413 0.41874-0.56355 0.47743-0.39921 0.53861-0.16874 0.42279-0.06579 0.32099-0.021668 0.29226 0.012286 0.26884 0.032777 0.17838 0.043333 0.1093 0.044686 0.050233-0.22066 0.25583-1.3562 1.7245-0.47535 0.53155-0.28867 0.28322-0.26757 0.23282-0.37784 0.28106-0.66443 0.40024-0.60621 0.311-0.91211 0.43743-0.58103 0.20773-0.31422 0.064333-0.30361 0.032315-0.53412 0.015352-0.848-7.78e-4 -0.50633 0.049533-0.55611 0.13799-0.48553 0.17551-0.4122 0.17929-0.84964 0.43492-0.50929 0.28894-2.3526 1.4106-0.90927 0.51144-0.39692 0.20416-0.61364 0.28002-0.57495 0.2188-0.86542 0.29632-0.85658 0.26905-0.66102 0.24571-0.64161 0.26376-0.43228 0.22364-0.59048 0.38083-1.3151 0.94676-2.3196 1.5763-0.69966 0.42004-0.34463 0.17521-0.90968 0.39343-0.91622 0.34038-0.746 0.2354-2.2382 0.62154-0.6653 0.21048-0.5831 0.22226-0.40942 0.19516-0.14245 0.1271-1.4208 0.83219-0.81063 0.51933-0.84091 0.5835-1.1734 0.9061-0.44606 0.36975-0.81592 0.71475-0.48201 0.45223-0.44598 0.44793-0.4534 0.50179-0.21824 0.26903-0.3147 0.434-0.36414 0.58252-0.21351 0.47818-0.088283 0.45795 0.031452 0.46516 0.10325 0.33898 0.31517 0.58904 0.43545 0.58048 0.50729 0.5721 1.0701 1.1172 0.48953 0.54258 0.40847 0.52899 0.28345 0.51212 0.10616 0.49091-0.097561 0.44467-0.23954 0.43374-0.64527 0.8859-0.28486 0.47952-0.1776 0.525-0.02153 0.58746 0.11384 0.63707 0.21492 0.67388 0.28828 0.70052 0.33894 0.71902 1.5047 2.9395 0.32902 0.72404 0.27059 0.70797 0.18514 0.68418 0.065742 0.65086-0.051158 0.4946-0.1159 0.48576-0.44736 1.5973-0.18302 0.56796-0.15382 0.38976-0.18312 0.37462-0.261 0.41364-0.30868 0.38208-0.44062 0.44355-0.50065 0.42231-0.31057 0.23316-0.71762 0.47585-0.68575 0.38522-0.51738 0.25208-0.64983 0.27541-0.83999 0.29677-0.60704 0.17434-0.76617 0.15849-0.30579 0.028597-0.054168-0.018121-0.09662-0.26192-0.26674-0.48363-0.38574-0.56775-0.47156-0.54818-0.53695-0.44896-0.59157-0.28238-0.54267-0.072745-0.57002 0.064304-0.58958 0.17049-0.64202 0.26673-0.65029 0.32816-0.65306 0.36761-2.1865 1.3139-0.56952 0.31879-0.43759 0.2222-0.43447 0.19384-0.67305 0.23258-0.37055 0.0886-1.0575 0.20031-0.81739 0.19368-3.2873 0.88943-0.56103 0.16933-0.65648 0.22694-0.54558 0.21094-3.6528 1.5503-0.95613 0.45753-0.71121 0.41908-0.69659 0.48057-0.68574 0.52633-0.6779 0.55977-0.67249 0.5836-3.3463 3.0551-1.367 1.1976-0.70072 0.57328-0.71822 0.54655-0.74188 0.51018-0.73574 0.4466-0.75715 0.41402-0.7726 0.39111-3.9442 1.8614-1.2825 0.6645-0.69918 0.39304-0.76663 0.45473-2.9795 1.8589-0.72656 0.43085-0.71813 0.3938-0.7078 0.33956-0.69462 0.26324-0.67748 0.1585-0.65508 0.017381-0.23194-0.03655-0.20509-0.05168-0.32808-0.118-0.46674-0.2306-0.60218-0.37661-0.61813-0.44899-0.5731-0.46087-0.99232-0.84459-0.47772-0.35797-0.45718-0.29098-0.2757-0.15658-0.61634-0.2919-0.37897-0.1393-0.48686-0.144-2.4832-0.55128-1.4384-0.3743-0.75853-0.22496-0.76148-0.25679-2.1419-0.77287-0.58395-0.24146-0.48957-0.25287-0.53977-0.34193-0.57741-0.42921-0.6481-0.55126-0.58625-0.55039-0.52323-0.53795-0.55221-0.61099-2.1443-2.5217-1.754 2.2494-0.27727 0.39264-0.15866 0.27036-0.065429 0.14058-0.054819 0.15057-0.080803 0.31299-0.083273 0.48611-0.43686 3.4252-0.20599-0.082428-0.32653 0.093156-0.39692 0.224-0.42003 0.32278-0.40541 0.39711-0.15999 0.18568-0.31804 0.42774-0.26575 0.46332-0.25846 0.68749-0.34359 1.4479-0.12053 0.42979-0.29103 0.6978-0.39821 0.62686-0.48161 0.57501-0.52921 0.52358-0.54573 0.46872-0.31443 0.24119-0.25833 0.1719-0.43521 0.22979-0.39641 0.16942-0.66103 0.23822-0.35317 0.098653-0.36793 0.069803-0.35647 0.023454-0.36864-0.040525-0.29838-0.10266-0.29904-0.19193-0.25776-0.2455-0.34316-0.44013-0.22034-0.34073-0.41665-0.74145-0.5722-1.1719-0.772-1.7795-1.087-2.645-0.2751-0.61288-0.29459-0.58314-0.20222-0.34305-0.26641-0.37114-0.28628-0.29253-0.17802-0.12898-0.52005-0.19655-0.38235-0.02911-0.41635 0.049692-0.37451 0.10142-0.40426 0.15972-0.58786 0.31433-1.0401 0.70629-0.59776 0.42902-1.0136 0.76155-1.1929 0.97638-0.6229 0.55797-0.58016 0.56034-0.59879 0.61116-0.43715 0.41286-1.1531 0.98531-0.43307 0.41188-0.34668 0.42983-0.21754 0.44689-0.045441 0.23065 0.005977 0.27457 0.059472 0.24991 0.11183 0.25917 0.1449 0.24437 0.23404 0.31147 0.34671 0.39852 0.36081 0.374 0.38614 0.35869 0.54536 0.46467 1.6649 1.3595 1.3037 1.0381 0.43236 0.3954 0.35574 0.40892 0.36665 0.54214 0.37858 0.69247 0.24335 0.56863 0.13326 0.44393 0.1172 0.5789 0.063663 0.57189 0.017928 0.63902-0.011439 0.52538-0.028969 0.46241-0.16537 1.5956-0.031164 0.43643-0.007402 0.64378 0.049911 1.0547 0.004857 0.42971-0.036964 0.73064-0.10627 1.0177-0.056364 0.33607-0.13664 0.6015-0.17338 0.66521-0.1691 0.57551-0.3211 0.87735-0.21852 0.52505-0.23766 0.51695-0.40628 0.73645-0.45895 0.67259-0.27243 0.35591-0.24611 0.28768-0.51273 0.49828-0.43462 0.3573-0.62588 0.4632-0.41463 0.2789-0.52466 0.31568-0.64246 0.33755-0.64535 0.30673-0.45586 0.19978-0.82053 0.31728-0.5298 0.16614-0.40892 0.097448-0.41092 0.065481-0.42562 0.022355-0.56897-0.077804-0.35358-0.14653-0.12184-0.17213 0.023654-0.057596 0.025728-0.37519-0.032291-0.72006-0.045552-0.45627-0.13724-0.78502-0.22618-0.81959-0.20151-0.54344-0.12228-0.28102-0.13823-0.28758-0.34446-0.63231-0.3597-0.59804-0.37399-0.58708-0.44795-0.65911-0.3485-0.5593-0.56469-0.99105-0.63408-1.1831-0.30931-0.54361-0.36613-0.57695-0.24791-0.34285-0.23612-0.28795-0.2292-0.24409-0.39011-0.34265-0.61621-0.40509-0.50019-0.26851-1.2321-0.57262-0.62535-0.25058-0.61478-0.20669-0.44396-0.12093-0.46386-0.11644-0.48057-0.09617-0.57025-0.061341-0.57131-0.03165-0.51139 0.026061-0.40397 0.090163-0.26707 0.10788-0.56418 0.36433-0.54112 0.50324-0.52475 0.60402-0.51384 0.67519-0.50755 0.72317-1.5256 2.2848-0.52356 0.75141-0.53944 0.72154-0.4465 0.54456-0.45896 0.50705-0.47013 0.46051-0.48982 0.40946-0.49977 0.33372-0.50937 0.23865-0.51915 0.11939-0.64007-0.036156-0.65149-0.1884-0.65986-0.28553-1.3354-0.67517-0.67158-0.30334-0.67156-0.22198-0.6693-0.091683-0.28841 0.012914-0.22035 0.030608-0.35646 0.082808-0.51029 0.17935-0.61409 0.28709-1.013 0.54424-0.40122 0.19385-0.36659 0.13333-0.27582 0.056338-0.26118 0.007578-0.14326-0.020067-0.16477-0.04935-0.12028-0.055327-0.22352-0.14669-0.13156-0.11253-0.17252-0.17554-0.29521-0.37446-0.29143-0.48008-0.22409-0.48974-0.095274-0.26456-0.10163-0.36189-0.074842-0.47814-0.001948-0.35233 0.04139-0.31017 0.070194-0.28212 0.19943-0.52304 0.33832-0.64719 0.44398-0.69124 0.44605-0.6012 0.36758-0.437 0.27456-0.28909 0.29771-0.27438 0.30787-0.23885 0.51212-0.31032 0.60042-0.32931 0.50856-0.34155 0.13462-0.10914 0.30072-0.28925 0.22318-0.27929 0.23592-0.43693 0.086192-0.28233 0.043424-0.33584-0.003073-0.2394-0.031238-0.28087-0.073837-0.36343-0.12589-0.44093-0.27833-0.75903-0.16954-0.39771-0.18955-0.41028-0.32404-0.63934-0.79979-1.4308-0.54284-1.0173-0.22188-0.46436-0.32458-0.76464-0.27705-0.74921-0.27189-0.7999-0.95997-3.0161-0.24404-0.6755-0.21306-0.53237-0.17506-0.39554-0.31532-0.62425-0.29779-0.51826-0.84914-1.3894-0.62484-1.1202-0.29181-0.6179-0.20062-0.5932-0.041809-0.17431-0.071673-0.50658-0.04979-0.81988-0.069624-0.51102-0.080113-0.34706-0.10539-0.36064-0.35654-1.0431-0.27009-0.91258-0.2248-0.87091-0.15019-0.70004-0.19721-1.2654-0.1493-1.3436-0.097227-0.64307-0.22353-1.267-0.068252-0.49716-0.037264-0.48721 0.00193-0.39317 0.03887-0.38217 0.073088-0.34551 0.1307-0.42698 0.36853-1.0327 0.11271-0.41208 0.05745-0.3056 0.060554-0.57824 0.016164-0.59874-0.020529-0.70616-0.047913-0.70793-0.12601-1.2528-0.13304-0.67504-0.20319-0.65825-0.27612-0.6207-0.35734-0.55899-0.45285-0.46843-0.35016-0.24143-0.39454-0.19911-0.42905-0.16123-0.53004-0.14656-0.56063-0.11238-0.86122-0.11649-0.8984-0.071556-0.68313-0.028999-1.3961-0.00475-0.92556 0.033352-0.93228 0.06014-0.93625 0.08707-1.2542 0.16548-0.62804 0.1082-0.64285 0.13066-1.1801 0.29588-0.5367 0.16129-1.0131 0.35528-0.56395 0.2251-1.1163 0.50001-0.54998 0.27536-0.53832 0.29186-0.52827 0.30966-0.4987 0.31611-0.48308 0.33391-0.58506 0.45386-0.59177 0.53867-0.43288 0.46507-0.28331 0.34632-0.32568 0.44657-0.22559 0.34363-0.58761 0.97254-0.078603 0.10199-0.057765-0.099603-0.13929-0.34381-0.77112-2.0977-0.66856-1.7294-0.72717-1.734-0.77238-1.6937-0.66058-1.3231-0.48281-0.90149-0.98583-1.7457-1.9226-3.3158-0.86242-1.5614-0.38364-0.74303-0.60352-1.2905-0.2881-0.5378-0.23735-0.34995-0.35124-0.42512-0.35303-0.33967-0.41449-0.31475-0.4268-0.25448-0.2743-0.13316-0.41282-0.16881-0.90275-0.32468-0.48849-0.20436-0.31128-0.16319-0.22806-0.15629-0.18542-0.17059-0.11452-0.13988-0.17391-0.31086-0.10083-0.34786-0.017978-0.35188 0.043809-0.27705 0.083174-0.28154 0.1852-0.45185 0.27068-0.4553 0.27304-0.33088 0.30165-0.29774 0.23374-0.20299 0.65311-0.49078 0.54614-0.35857 0.57108-0.34804 1.5432-0.88093 0.39472-0.25681 0.35121-0.26254 0.39844-0.35174 0.37081-0.37072 0.33809-0.39076 0.39041-0.55125 0.26617-0.42496 0.22322-0.39539 0.31169-0.62372 0.19822-0.44418 0.11151-0.30509 0.096391-0.36315 0.049086-0.41214-0.014074-0.37031-0.090452-0.51094-0.26526-1.2086-0.095163-0.63763-0.063774-0.95038-0.075714-0.69485-0.39751-2.4031-0.049945-0.45115-0.017767-0.43633 0.038761-0.78272 0.086294-0.64007 0.080201-0.30671 0.22745-0.4672 0.19511-0.22917 0.32912-0.26659 0.46504-0.26203 0.44144-0.18892 0.64804-0.23346 0.56771-0.18436 2.5165-0.74779 1.1497-0.37742 0.8694-0.32275 1.9324-0.79077 0.66776-0.25594 1.0393-0.36557 0.916-0.28898 0.37502-0.14175 0.25501-0.11936 0.36126-0.20975 0.27206-0.1956 0.46723-0.42126 0.30796-0.33273 0.26671-0.33147 0.21419-0.30679 0.16053-0.26768 0.16173-0.31675 0.15886-0.3709 0.19338-0.57517 0.12038-0.45572 0.1515-0.70578 0.18014-1.0295 0.076364-0.59436 0.054852-0.97757-0.009656-0.66238-0.032708-0.56743-0.15983-1.6726-0.064816-0.85844-0.014076-0.97938 0.019609-0.41981 0.040392-0.41591 0.073938-0.39224 0.14944-0.3902 0.29194-0.38341 0.40311-0.32374 0.31677-0.18758 0.3475-0.16766 0.39149-0.15597 0.56318-0.17875 0.88468-0.21068 1.4282-0.29487 0.5657-0.096282 0.55424-0.07008 0.48428-0.031336 0.99606-0.001049 0.4007-0.018243 0.41152-0.039518 0.41098-0.060266 0.7141-0.14452 1.0558-0.26454 1.0341-0.29289 0.84498-0.28104 0.37284-0.14721 0.55967-0.26574 0.37384-0.21222 2.0482-1.3048 1.2055-0.70216 1.5854-0.8335 2.0708-1.0324 3.1413-1.4218 1.3535-0.56594 1.0375-0.37746 0.54902-0.1735 0.38373-0.10237 0.24157-0.041195 0.057852 0.009111-0.064009-0.073791-0.21826-0.3979-0.15092-0.32221-0.21364-0.55898-0.23751-0.81917-0.33227-1.4776-0.22101-0.79961-0.38756-1.1862-0.40808-1.1112-0.64066-1.5981-0.43314-0.97734-0.59675-1.2682-0.70331-1.3538-0.26242-0.53888-0.25897-0.57219-0.15438-0.40619-0.088056-0.30081-0.058052-0.26811-0.058745-0.40507-0.08997-0.99482-0.069187-0.46968-0.18726-0.99206-0.081856-0.3523-0.10344-0.32978-0.15716-0.33297-0.084406-0.13182-0.15809-0.19899-0.18432-0.18428-0.19454-0.15962-0.40699-0.262-0.46778-0.22665-0.53694-0.20085-0.41043-0.12435-0.96928-0.2359-2.1792-0.44926-1.04-0.24112-0.82252-0.21628-0.63211-0.19539-0.57473-0.22088-0.5179-0.26634-0.50415-0.37282-0.31843-0.3546-0.1374-0.22052-0.10282-0.23066-0.076357-0.28119-0.023722-0.44837 0.063631-0.47453 0.22065-0.83672 0.52495-1.5679 0.19469-0.53599 0.22418-0.50776 0.2934-0.51662 0.59656-0.87366 1.7541-1.3593 1.0237-0.819 1.0462-0.86595 1.6749-1.4271 0.43944-0.35487 1.6775-1.2553 1.3133-1.0357 3.1208-2.5553 1.0578-0.9102 0.40944-0.38563 0.41401-0.42922 0.64753-0.7548 0.71503-0.9171 0.60308-0.87523 0.63056-1.0093 0.82477-1.4592 0.25032-0.53466 0.18457-0.57059 0.11616-0.58498 0.057914-0.58486 0.006779-0.57012-0.039912-0.54013-0.12765-0.84112-0.030081-0.40522 0.008845-0.22349 0.029734-0.22882 0.050964-0.23182 0.088892-0.28047 0.088749-0.21921 0.43584-0.92275 0.16905-0.4391 0.1312-0.50441 0.051842-0.46984-0.026436-0.50956-0.094247-0.44175-0.14446-0.40068-0.18046-0.37463-0.30674-0.52915-0.61396-0.99328-0.38605-0.68576-0.33016-0.67352-0.20309-0.4712-0.1866-0.48332-0.18532-0.5439-0.16327-0.55494-0.13425-0.53996-0.1118-0.54725-0.084609-0.52606-0.063182-0.53021-0.057334-0.84966-0.045512-2.2876-0.032881-0.4893-0.09255-0.7458-0.10971-0.5519-0.14573-0.54629-0.32343-0.9146-0.65592-1.5399-0.38149-0.98364-0.1575-0.47279-0.16479-0.57555-0.21091-0.95644-0.079249-0.48377-0.071283-0.6031-0.035397-0.73393 0.011608-0.20629 0.02764-0.13606 0.035787-0.042778 0.057581-0.021788 0.08765-0.082227 0.75691-0.86829 0.25256-0.26805 0.69155-0.65959 0.29452-0.25094 0.58346-0.44837 0.52504-0.35572 0.45347-0.27586 0.46348-0.25381 0.61509-0.29206 0.62485-0.24667 0.87016-0.2762 2.4333-0.64533 1.6757-0.49228 0.60789-0.19841 1.0091-0.37141 0.75153-0.32385 0.47786-0.23008 0.86835-0.45362 0.62734-0.3503 0.66085-0.40147 0.54601-0.36746 0.77962-0.59244 1.4369-1.2461 0.46517-0.37249 0.63439-0.4405 0.61357-0.34971 0.7256-0.32884 0.49836-0.18308 0.50812-0.15918 0.61681-0.16434 1.7555-0.38687 0.59454-0.14871 0.73202-0.23043 0.46043-0.18112 0.31351-0.14176 1.5836-0.82906 0.4839-0.22784 0.54158-0.22643 0.83062-0.29965 1.3966-0.44482 2.3671-0.81206 0.48222-0.15145 0.46968-0.13303 0.49286-0.11737 0.6767-0.11125 0.50724-0.035937 0.3895 0.005277 0.41151 0.044334 0.4588 0.1091 0.06969 0.02347 0.098282 0.060189-0.055961 0.1114 0.015636 0.3181 0.1304 0.6624 0.12654 0.44624 0.16069 0.47587 0.25398 0.64047 0.37622 0.79673 0.25498 0.46815 0.50569 0.80243 0.47073 0.62309 0.47707 0.52965 0.43723 0.40802 0.44081 0.34766 0.60596 0.39286 0.57023 0.30096 0.35498 0.16087 0.38987 0.15692 0.6669 0.22536 0.54593 0.14427 0.32397 0.066908 0.57304 0.083981 0.36319 0.031461 0.77999 0.013282 0.54828-0.033224 0.33941-0.038181 0.73046-0.13226 0.52925-0.14808 0.27357-0.10032 0.24282-0.11012 0.26454-0.15851 0.20877-0.18476 0.14064-0.19853 0.083553-0.19329 0.053657-0.20816 0.12723-0.77298 0.078733-0.28883 0.10662-0.29286 0.23077-0.45712 0.31486-0.43935 0.25073-0.29314 0.23762-0.2429 0.99732-0.93055 0.53903-0.54957 0.43745-0.51149 1.1096-1.4002 0.52728-0.57647 0.47199-0.4338 0.35692-0.27151 0.46009-0.29062 0.36583-0.19042 1.9509-0.83397 0.59965-0.21106 0.40014-0.086641 0.25576-0.028884 1.0677-0.035281 0.55043-0.070201 1.86-0.369 1.297-0.27447 0.82018-0.21967 1.7129-0.58416 0.83142-0.25337 0.48561-0.17101 0.45549-0.21109 0.42112-0.25878 0.3951-0.31712 0.44393-0.42929 0.33082-0.39881 0.47797-0.66136 0.1568-0.18196 0.24544-0.21398 0.33042-0.1917 0.45564-0.19903 0.46726-0.18061 2.9961-1.0568 1.2884-0.49989 2.7733-1.2327 2.6832-1.238 0.93486-0.38438 0.85399-0.30563 0.93242-0.26945 0.67925-0.14617 0.39346-0.063244 0.62541-0.066556 0.88671-0.02888 0.78189 0.027218 0.54103 0.0505 0.3664 0.050613 0.52467 0.097541 0.3492 0.084013 0.30157 0.090248 0.19145 0.076053 0.070464 0.058932 0.098598-0.12182 0.16657-0.25502 0.151-0.29867 0.06666-0.20857 0.048068-0.37301 0.04096-0.18786 0.28242-0.85956 0.15441-0.71474 0.098484-0.23837 0.088772-0.12376 0.13871-0.13076 0.11917-0.079435 0.46072-0.21002 0.22802-0.13118 0.45362-0.35165 0.54189-0.35631 0.68882-0.50785 1.168-0.74193 0.19451-0.14927 0.062912-0.080989 0.077248-0.08142 0.074737-0.24871 0.069717-0.32556 0.31952-1.817 0.1332-0.58823 0.19863-0.67688 0.27818-0.69144 0.35775-0.6369 0.41604-0.53682 0.44893-0.42764 0.4485-0.31968 0.43614-0.23466 0.62298-0.23514 0.31925-0.081705 0.55995-0.086444 0.32252-0.019748 1.609 0.045206 0.43672-0.012044 0.35748-0.034181 0.54859-0.095492 0.56352-0.14631 0.51335-0.16873 0.6594-0.26179 0.68767-0.32941 0.62675-0.3617 0.52979-0.36826 0.47337-0.40103 0.30544-0.31771 0.2726-0.34553 0.58053-0.8446 0.19576-0.25268 0.3154-0.34526 0.25036-0.20374 0.13276-0.072824 0.16927-0.04536 0.14407 0.011862 0.2983 0.18186 0.28761 0.35609 0.27991 0.48766 0.27448 0.5858 0.27075 0.65799 0.3027 0.80531 0.29932 0.85076" stroke="#bdc660"/>
    </defs>
    <g clip-path="url(#pe96d113537)">
     <use y="280.512" fill="#bdc660" stroke="#bdc660" xlink:href="#m9100f05f54"/>
    </g>
   </g>
  </g>
 </g>
 <defs>
  <clipPath id="pe96d113537">
   <rect x="7.2" y="7.2" width="277.56" height="266.11"/>
  </clipPath>
 </defs>
</svg>
