<?xml version="1.0" encoding="UTF-8"?>
<!DOCTYPE svg  PUBLIC '-//W3C//DTD SVG 1.1//EN'  'http://www.w3.org/Graphics/SVG/1.1/DTD/svg11.dtd'>
<svg width="231.4pt" height="280.51pt" version="1.1" viewBox="0 0 231.4 280.51" xmlns="http://www.w3.org/2000/svg" xmlns:xlink="http://www.w3.org/1999/xlink">
 <metadata>
  <rdf:RDF xmlns:cc="http://creativecommons.org/ns#" xmlns:dc="http://purl.org/dc/elements/1.1/" xmlns:rdf="http://www.w3.org/1999/02/22-rdf-syntax-ns#">
   <cc:Work>
    <dc:type rdf:resource="http://purl.org/dc/dcmitype/StillImage"/>
    <dc:date>2024-07-04T12:11:44.140790</dc:date>
    <dc:format>image/svg+xml</dc:format>
    <dc:creator>
     <cc:Agent>
      <dc:title>Matplotlib v3.7.1, https://matplotlib.org/</dc:title>
     </cc:Agent>
    </dc:creator>
   </cc:Work>
  </rdf:RDF>
 </metadata>
 <defs>
  <style type="text/css">*{stroke-linejoin: round; stroke-linecap: butt}</style>
 </defs>
 <g id="figure_1">
  <g id="patch_1">
   <path d="m-0 280.51h231.4v-280.51h-231.4v280.51z" fill="none"/>
  </g>
  <g id="axes_1">
   <g id="PatchCollection_1">
    <defs>
     <path id="m784c1ae3fa" d="m202.86-244.62 1.0216 1.9457 0.7882 1.35 0.81414 1.5024 0.76849 1.5675 0.72372 1.609 4.496 11.016 1.0422 2.6474 0.56123 1.5971 0.38604 1.2505 0.27943 1.0596 0.2306 1.0598 0.2487 1.6104 0.067388 0.67958 0.049619 0.83279-0.004287 1.0371-0.082903 0.99082-0.14939 0.97406-0.3865 1.7789-0.2508 0.90921-0.3249 1.0382-0.31548 0.8686-1.3139 3.0981-0.36679 1.2235-0.33899 1.779-0.66389 4.7002-0.40581 2.0508-0.23973 0.89406-0.34319 1.0013-0.42056 0.91081-0.49129 0.76064-0.52672 0.56915-0.60438 0.4539-0.49935 0.26232-0.73513 0.27122-0.787 0.18094-1.0198 0.10885-3.0213 0.069135-2.9601 0.27846-0.86764 0.14729-0.60118 0.1589-0.44941 0.15032-1.0175 0.44026-0.9529 0.55948-0.37685 0.27208-0.73761 0.61831-0.9638 0.93837-0.82882 1.0078-0.59709 1.074-0.23338 0.83095-0.03882 0.83494 0.16886 0.80616 0.33857 0.67428 0.49887 0.61212 0.6414 0.55042 1.1937 0.78668 1.3895 0.75766 6.3656 3.0401 1.5693 0.84618 1.4752 0.92556 0.63163 0.46151 1.2434 1.118 1.17 1.4358 0.85159 1.4768 0.60702 1.3821 0.51728 1.4155 1.359 3.9974 0.35947 1.208 0.37723 1.5264 0.26813 1.4642 0.14128 1.0293 0.17488 1.8031 0.10411 1.8328 0.045717 1.8517-0.006443 1.8606-0.058395 1.8596-0.11649 1.8472-0.18787 1.821-0.28097 1.7766-0.40602 1.7077-0.57554 1.6059-0.80435 1.4598-0.81148 0.99027-1.076 0.93359-1.1232 0.70375-1.4676 0.67857-1.3315 0.47698-1.4347 0.42319-1.3686 0.33958-0.98558 0.2063-1.0155 0.16986-0.82495 0.10001-0.90422 0.068337-1.0588 0.025838-1.1244-0.033622-1.7014-0.17434-0.64483-0.12521-0.13761-0.06786 0.13033 0.31606 0.5017 0.74781 1.3803 1.8871 1.7827 2.3353 1.4235 1.7497 0.85034 0.98674 2.256 2.449 1.5288 1.7167 0.78254 0.95981 0.98186 1.3214 0.57275 0.84164 0.85784 1.3798 0.708 1.2833 0.62114 1.295 0.60396 1.5449 0.28232 0.9294 0.28322 1.2996 0.15249 1.2981 0.007936 1.5632-0.17113 1.5285-0.33942 1.4739-0.50866 1.3968-0.72421 1.3966-2.2005 3.4896-1.4428 2.4938-0.69967 1.0737-0.77255 1.0443-0.82358 1.0039-2.0375 2.2866-0.73593 0.97283-0.41089 0.68023-0.44113 0.9418-0.71312 1.8089-0.39398 0.84052-0.80128 1.2631-0.90171 1.1091-0.80754 0.87623-1.9473 2.0146-1.0838 1.211-0.66662 0.84317-0.79923 1.1797-0.6324 1.0579-1.5835 2.9213-0.81997 1.589-0.51808 1.1053-0.49145 1.2275-0.36737 1.2393-0.1432 0.66437-0.15804 1.3147-0.024208 1.1464 0.044236 0.76456 0.14868 0.79337 0.42603 0.98503 0.41981 0.5719 0.65432 0.67073 3.5637 3.0016 1.2446 1.1389 1.3764 1.385 0.75797 0.87353 0.54032 0.68982 0.75229 1.1069 0.60416 1.1102 0.35958 0.80731 0.19993 0.51863 0.40664 1.2998 0.2765 1.2137 0.19659 1.2097 0.17651 1.6791 0.24472 4.4654 0.1255 1.6695 0.22679 1.7634 0.44051 1.8948 0.38732 1.0364 0.32946 0.36659-0.032993 0.04176-0.35825 0.1722-0.90747 0.34343-1.8435 0.61601-2.9814 0.91994-1.8071 0.5933-1.1192 0.4108-1.344 0.5441-1.6591 0.74841-1.9564 0.98535-1.5964 0.86332-4.5513 2.5498-2.5888 1.3463-1.1782 0.54171-1.5171 0.61352-1.4382 0.50732-1.4386 0.42263-0.99592 0.18824-0.60667 0.016685-0.47468-0.061282-1.1199-0.30861-0.65535-0.267-0.97102-0.53352-2.5887-1.8125-0.66355-0.38266-0.66556-0.26885-0.66435-0.10247-0.54842 0.076532-0.38484 0.13765-0.37073 0.18612-0.5046 0.31937-0.47353 0.34934-1.4637 1.1799-0.44789 0.32553-0.84063 0.51556-0.36734 0.1844-0.6697 0.27483-0.81934 0.23095-0.74084 0.10843-0.85117 0.009783-0.82837-0.087596-0.77106-0.15469-0.66712-0.18862-0.29649-0.11483-0.083408-0.077345-0.23167-0.14877-0.14234-0.005376-0.15327-0.007403-0.12808-0.053109-0.71884-0.45743-0.85535-0.68078-0.94806-0.86655-0.65502-0.67564-1.106-1.3843-0.48689-0.75741-0.50862-0.94173-0.58176-1.3001-1.464-3.7245-0.56173-1.3119-0.58995-1.2291-0.81672-1.5276-0.87338-1.4999-0.911-1.4762-2.4726-3.8381-1.6065-2.6818-0.85711-1.5463-0.88584-1.6922-2.3378-4.6351-1.4554-2.6131-1.5765-2.5833-2.5215-3.7934-1.5927-2.501-1.9146-3.2099-0.82745-1.448-1.0124-1.9188-0.43806-0.91316-0.69175-1.5746-0.8978-2.362-0.68614-2.1558-0.3666-1.3733-0.19789-0.87152-0.21169-1.1752-0.12759-1.1549-0.054582-1.1004-0.039079-3.0106-0.16495-1.5092-0.30955-1.4752-0.21487-0.75324-0.25955-0.7245-0.51963-1.0508-0.42155-0.61608-0.62199-0.6776-0.72799-0.55226-1.051-0.48724-1.1828-0.28621-0.68988-0.080269-0.58697-0.029013-1.0091 0.016633-0.92642 0.072228-1.4523 0.19278-1.4452 0.2618-1.471 0.31825-1.6442 0.40037-8.3466 2.2736-3.0808 0.78053-1.5046 0.33107-1.5473 0.27966-1.8856 0.21851-0.8917 0.041683-0.77268-0.007476-0.5481-0.036763-0.74075-0.09942-0.5444-0.11262-0.98227-0.29954-0.91264-0.42579-1.1095-0.78456-1.0204-0.96329-2.5616-2.7795-1.194-1.2453-1.6671-1.6076-2.6439-2.3257-1.6585-1.3205-1.2332-0.86202-0.99576-0.62924-0.91816-0.52762-0.68326-0.33638-0.67985-0.25575-0.42687-0.10932-1.0661-0.090575-1.1395 0.19612-0.89059 0.38425-0.97032 0.68977-0.85077 0.88031-0.52109 0.68532-0.48422 0.74576-0.56921 1.0216-0.51801 1.0816-0.47073 1.1316-0.41771 1.1601-0.35973 1.1756-0.25897 1.0181-0.29021 1.507-0.38202 3.0363-0.29087 1.4092-0.25962 0.95793-0.57723 1.682-0.4108 0.98251-0.46737 0.98238-0.51233 0.95707-0.76288 1.2596-1.0822 1.5457-0.55303 0.70466-0.88794 1.0335-1.3908 1.4334-0.93316 0.86662-1.054 0.9074-0.8746 0.70125-1.5549 1.1228-0.60439 0.37517-0.35733 0.17826-0.10992 0.004993-0.52008-0.88586-2.2678-3.5455-2.7387-4.1088-1.644-2.324-3.9584-5.2995-1.1098-1.6087-1.0674-1.6839-0.71602-1.2565-0.86083-1.6925-0.79651-1.7675-1.4366-3.3832-1.2137-2.7035-0.47446-1.2091-0.65765-1.9183-2.2865-8.0665-0.36611-1.5291-0.22832-1.4756-0.027944-1.367 0.22568-1.2709 0.35185-0.84378 0.49042-0.7821 0.26547-0.34033 0.60184-0.63394 0.69146-0.58192 1.0544-0.70652 1.1662-0.60553 1.2592-0.49148 1.5221-0.41486 3.2216-0.62168 1.6465-0.34904 0.99751-0.26249 0.99324-0.30314 1.3395-0.47154 1.5297-0.62061 1.3079-0.58886 1.8078-0.88562 2.0746-1.1352 1.1724-0.72611 0.98056-0.67925 0.93312-0.73397 1.034-0.95007 0.96501-1.0256 1.2299-1.5077 1.0192-1.4452 0.93234-1.5168 0.68367-1.2707 0.70595-1.5039 0.56327-1.3866 0.34796-0.97362 0.57526-1.9369 0.2268-0.95982 0.21308-1.1045 0.24834-1.8995 0.14441-2.3272 0.035277-1.1997 0.003675-1.1902-0.14667-5.8503 0.045859-3.0834 0.13529-2.8043 0.39625-5.7801 0.11368-2.7067-0.020024-2.4222-0.080402-1.6296-0.092801-1.2657-0.22671-2.2189-0.24255-1.6992-0.3449-1.9365-0.32418-1.5463-0.56348-2.2934-0.084478-0.39372-0.014879-0.7239 0.096869-0.4948 0.44139-1.1167 0.1121-0.38049 0.047019-0.54398-0.069899-0.50357-0.14168-0.45835-0.19259-0.47763-1.3002-2.7344-0.45277-1.0266-1.5437-4.1483 1.2984 0.42766 0.81005 0.23034 1.8652 0.46776 1.8824 0.39768 1.3401 0.18863 1.1548 0.066978 0.93909-0.011327 1.2374-0.082413 1.0017-0.11732 0.77415-0.12649 1.815-0.43614 1.7311-0.54805 0.94118-0.3476 1.3872-0.61049 2.5646-1.2711 1.8405-0.9637 1.2426-0.58197 2.3166-0.89368 3.2743-1.1123 1.3834-0.52042 2.9712-1.2495 1.1257-0.52802 0.85497-0.46127 0.84606-0.50654 0.8299-0.54945 0.80469-0.59255 0.76863-0.63476 0.70712-0.64874 0.66652-0.67348 0.72726-0.81643 0.92757-1.1918 0.90692-1.2849 0.74454-1.4033 0.28073-0.61479 0.19114-0.53132 0.09369-0.39881 0.045891-0.45414-0.01064-0.34436-0.055813-0.34556-0.083891-0.27241-0.14069-0.29081-0.20806-0.28336-0.25467-0.23334-0.17858-0.11696-0.42344-0.16442-0.27668-0.014085-0.15224 0.058643 0.083187-0.43445 0.35166-0.7601 0.52059-0.89893 0.66146-0.96926 0.781-0.9669 0.88426-0.892 1.0793-0.81919 1.2683-0.64772 0.94322-0.3603 3.0173-1.0225 1.0349-0.40635 0.83476-0.37174 0.51218-0.25615 1.2502-0.75638 0.72484-0.54711 0.79282-0.71497 0.86034-0.95035 1.8447-2.339 1.4049-1.947 1.9521-2.8465 2.3066-3.0267 0.87197-1.1022 0.48346-0.55291 0.70886-0.72329 0.82432-0.7419 1.3456-1.0881 1.0859-0.78562 2.9726-1.9392 6.3204-4.3895 1.7125-1.3202 2.0936-1.812 0.95358-0.699 0.4725-0.26801 0.36375-0.15786 0.27542-0.084986 0.47729-0.069053 0.66764 0.057935 0.28113 0.077234 0.49215 0.20988 1.0996 0.67255 1.3141 0.90798 0.4583 0.38398 0.51914 0.55874 0.51003 0.68515 0.43194 0.75229 0.43529 1.1309 0.93176 3.0835 0.36777 0.95571 0.30711 0.68367 0.40982 0.7913 0.38116 0.63765 0.64479 0.91973 0.52586 0.64494 0.85077 0.88796 0.72792 0.61399 0.61633 0.41335 0.78293 0.39487 1.2091 0.40058 0.57452 0.10133 1.107 0.067298 1.411-0.075492 1.5362-0.18951 1.4901-0.27046 7.1821-1.5685 2.9647-0.71301 1.2692-0.26063 1.6051-0.27259 2.0474-0.42046 3.149-0.82814 2.0091-0.62597 0.75204-0.29613 0.87774-0.41172 1.4651-0.81616 1.7124-1.0863 4.1083-2.7858 2.1286-1.3773 1.2648-0.77288 1.2712-0.72355 1.2919-0.66732 1.8433-0.82755 1.8548-0.67272 1.3452-0.40035 1.3464-0.35108 1.0179-0.22932 0.48768-0.061497 0.33194 0.94316 1.4237 4.6921 0.92056 2.8888 0.79173 2.1851 0.49641 1.2396 1.3776 3.1772 0.68846 1.468" stroke="#bdc660"/>
    </defs>
    <g clip-path="url(#p1c9db4b769)">
     <use y="280.512" fill="#bdc660" stroke="#bdc660" xlink:href="#m784c1ae3fa"/>
    </g>
   </g>
  </g>
 </g>
 <defs>
  <clipPath id="p1c9db4b769">
   <rect x="7.2" y="7.2" width="217" height="266.11"/>
  </clipPath>
 </defs>
</svg>
