<?xml version="1.0" encoding="UTF-8"?>
<!DOCTYPE svg  PUBLIC '-//W3C//DTD SVG 1.1//EN'  'http://www.w3.org/Graphics/SVG/1.1/DTD/svg11.dtd'>
<svg width="213.91pt" height="280.51pt" version="1.1" viewBox="0 0 213.91 280.51" xmlns="http://www.w3.org/2000/svg" xmlns:xlink="http://www.w3.org/1999/xlink">
 <metadata>
  <rdf:RDF xmlns:cc="http://creativecommons.org/ns#" xmlns:dc="http://purl.org/dc/elements/1.1/" xmlns:rdf="http://www.w3.org/1999/02/22-rdf-syntax-ns#">
   <cc:Work>
    <dc:type rdf:resource="http://purl.org/dc/dcmitype/StillImage"/>
    <dc:date>2024-07-04T12:11:37.845539</dc:date>
    <dc:format>image/svg+xml</dc:format>
    <dc:creator>
     <cc:Agent>
      <dc:title>Matplotlib v3.7.1, https://matplotlib.org/</dc:title>
     </cc:Agent>
    </dc:creator>
   </cc:Work>
  </rdf:RDF>
 </metadata>
 <defs>
  <style type="text/css">*{stroke-linejoin: round; stroke-linecap: butt}</style>
 </defs>
 <g id="figure_1">
  <g id="patch_1">
   <path d="m0 280.51h213.91v-280.51h-213.91v280.51z" fill="none"/>
  </g>
  <g id="axes_1">
   <g id="PatchCollection_1">
    <defs>
     <path id="m9fb7f70465" d="m178.36-261.02 1.1611 2.145 0.68128 1.3615 0.31642 0.68901 0.28858 0.68781 0.25162 0.68542 0.204 0.68375 0.14332 0.68422 0.069617 0.62504 0.024184 0.6263-0.005755 0.6263-0.070431 1.8716-0.005136 0.64157 0.014387 0.6376 0.036073 0.63195 0.061552 0.62427 0.092773 0.61403 0.13205 0.60057 0.18212 0.583 0.25486 0.59181 0.30698 0.5734 0.34405 0.56044 0.36911 0.5519 1.1648 1.6391 0.37998 0.5511 0.36129 0.55887 0.33179 0.57052 0.28897 0.58685 0.24218 0.6287 0.19023 0.64489 0.14548 0.65469 0.10338 0.65877 0.059387 0.65738 0.008694 0.65032-0.053969 0.63696-0.1346 0.61623-0.22726 0.58366-0.30342 0.56196-0.3587 0.546-0.39823 0.53442-0.42601 0.52616-0.90332 1.0368-1.4143 1.5369-4.3091 4.6001-0.94234 1.0279-0.90719 1.0323-0.42694 0.51843-0.39703 0.52042-0.35328 0.52288-0.29029 0.5259-0.20098 0.52958-0.076184 0.53404 0.073515 0.51942 0.19635 0.52499 0.29089 0.53119 0.36359 0.53792 0.4195 0.54498 0.46238 0.55191 0.49476 0.55792 1.0497 1.1229 2.2551 2.3076 0.086877 0.12221 0.11673 0.089561 0.19777 0.19602 0.23474 0.26576 0.17513 0.22316 0.164 0.23689 0.14619 0.25053 0.11323 0.2514 0.053288 0.16906 0.024886 0.12329 0.008672 0.20979-0.02211 0.14573-0.066137 0.19857-0.13628 0.24901-0.23358 0.30138-0.22092 0.22888-0.32168 0.28493-0.30677 0.2405-1.4158 0.99132-0.20145 0.1608-0.22377 0.20624-0.23878 0.27794-0.16559 0.25976-0.13081 0.29045-0.093153 0.33216-0.04312 0.3195-0.00634 0.27572 0.011959 0.20964 0.051537 0.36658 0.057029 0.2553 0.12474 0.40709 0.22827 0.54899 0.12019 0.23957 0.23734 0.41625 0.28866 0.43965 0.41582 0.54963 0.38069 0.43586 0.25038 0.25829 0.52465 0.48516 0.74068 0.59854 0.98277 0.7593 0.33691 0.2836 0.40145 0.37019 0.29813 0.31216 0.16676 0.19696 0.16044 0.21205 0.23763 0.37472 0.22333 0.469 0.11871 0.3433 0.10065 0.40574 0.07336 0.43108 0.041733 0.33 0.057199 0.63877 0.016969 0.40164-0.005483 0.43977-0.041175 0.40034-0.078612 0.35652-0.067709 0.21152-0.15561 0.37025-0.19431 0.35765-0.14667 0.23281-0.56959 0.83318-0.14888 0.25887-0.12162 0.26407-0.073364 0.21041-0.060805 0.25383-0.027375 0.2057-0.007981 0.25172 0.008931 0.16085 0.050888 0.32687 0.1083 0.36627 0.1632 0.3647 0.16591 0.28207 0.16095 0.22643 0.26805 0.30764 0.26368 0.23348 0.19007 0.12218 0.11282 0.038968 0.037992-0.005775-0.006767 0.054338 0.030298 0.27186 0.050873 0.24604 0.060845 0.20671 0.095356 0.26888 0.28086 0.69775 0.45662 1.0374 0.081259 0.21404 0.11285 0.35789 0.095627 0.38077 0.23378 1.1675 0.13056 0.59196 0.16329 0.58574 0.19303 0.57643 0.21586 0.56407 0.23329 0.54863 0.24669 0.52981 0.47765 0.92077 0.23654 0.4782 0.22583 0.49854 0.41699 1.0027 0.79102 2.0318 0.42604 1.0595 0.27627 0.63687 0.44745 0.97016 0.75428 1.5475 0.30343 0.74691 0.28631 0.84479 0.222 0.8032 0.55109 2.4147 0.1564 0.81259 0.080068 0.53903 0.094945 0.92512 0.032975 0.53096 0.019757 0.58954-0.007705 1.0024-0.045776 0.68741-0.037091 0.30928-0.052942 0.31408-0.067402 0.29039-0.11367 0.34803-0.16936 0.3535-0.26955 0.38842-0.32916 0.35708-0.32066 0.28599-0.3491 0.26927-0.4127 0.28022-0.43501 0.26534-0.4522 0.25337-0.46478 0.24298-0.68833 0.33341-0.61342 0.27559-1.7256 0.72103-2.031 0.76962-1.2459 0.50436-1.6021 0.68849-1.2064 0.56263-0.56281 0.29479-0.34404 0.20095-0.3205 0.20989-0.26719 0.20096-0.23797 0.21118-0.21927 0.24353-0.057196 0.077327-0.17713 0.32591-0.090075 0.37816-0.005427 0.39653 0.048988 0.376 0.082536 0.37506 0.18378 0.65337 0.15228 0.46897 0.11313 0.25368 0.13159 0.2532 0.21078 0.3669 0.24193 0.34776 0.28916 0.30546 0.33828 0.24217 1.1511 0.61475 0.3542 0.25628 0.31085 0.32406 0.27146 0.37683 0.24502 0.41065 0.63044 1.1849 0.16222 0.33247 0.161 0.41558 0.12587 0.43133 0.093539 0.43771 0.062523 0.43524 0.063467 0.67133 0.045893 0.31838 0.12123 0.5957 0.14745 0.56682 0.15662 0.52635 0.51751 1.6178 0.16127 0.54638 0.11189 0.42738 0.12044 0.5616 0.276 1.5846 0.19427 1.3119 0.013181 0.13898 0.010385 0.52619-0.066743 0.44569-0.13388 0.44415-0.19126 0.4369-0.24218 0.42312-0.28973 0.40166-0.33233 0.37125-0.36637 0.34358-0.38998 0.31678-0.40478 0.28909-0.51982 0.32145-0.50305 0.25633-0.22878 0.087463-0.38092 0.10983-0.4057 0.082583-1.2366 0.18182-0.6162 0.10505-0.42109 0.084573-0.41479 0.098348-0.38071 0.10857-0.36539 0.12686-0.50833 0.23318-0.25746 0.15901-0.23064 0.18248-0.33658 0.37648-0.28554 0.426-0.2777 0.4438-0.30966 0.42869-0.34881 0.37027-0.37654 0.3177-0.3655 0.2513-0.30461 0.16146-0.18349 0.031435 0.078143 0.18536 0.20294 0.36953 0.28814 0.45442 0.3473 0.46674 0.3902 0.42506 0.42413 0.33942 0.45471 0.21354 0.24597 0.049661 0.4353 0.001596 0.51076-0.091087 0.38399-0.10924 1.2991-0.46041 0.40067-0.12242 0.49588-0.091698 0.5227-0.029539 0.53754 0.037208 0.38301 0.068829 0.42816 0.11076 0.40057 0.12836 0.6608 0.25425 0.73873 0.33685 0.51844 0.26356 0.5018 0.2768 0.4785 0.2885 0.38604 0.2596 0.35218 0.28133 0.30634 0.31729 0.19436 0.27049 0.16602 0.29497 0.14885 0.33016 0.12915 0.34792 0.17731 0.57846 0.38406 1.4287 0.26453 0.85249 0.18362 0.49661 0.20293 0.49191 0.34112 0.74633 0.28619 0.57126 0.30196 0.56475 1.4908 2.597 0.87205 1.5961 0.54742 1.0792 1.1607 2.4308 0.59851 1.2239 0.6737 1.2766 0.35496 0.62593 0.3678 0.61034 0.38175 0.58508 0.397 0.54546 0.41338 0.4857 0.42988 0.39993 0.4438 0.28503 0.31849 0.12459 0.92304 0.23479 0.13497 0.052991 0.060981 0.047153-0.20503 0.19865-0.45283 0.48745-0.36133 0.41373-0.49427 0.62071-1.3186 1.8654-0.28564 0.44394-0.24785 0.44104-0.14037 0.29408-0.30711 0.7131-0.15632 0.41839-0.11231 0.41976-0.045288 0.33357-0.007567 0.33152 0.020219 0.27043 0.027532 0.18671 0.030215 0.15226 0.1114 0.41629 0.18735 0.61102 0.080226 0.35444 0.03141 0.21395 0.003542 0.25137-0.022794 0.15624-0.035998 0.12218-0.17208 0.30717-0.47305 0.56538-0.26692 0.35642-0.26954 0.39882-0.36751 0.5791-0.59535 0.99595-1.1189 1.6845-0.47454 0.78476-0.38102 0.69357-0.34721 0.71453-0.27268 0.61212-0.55086 1.3295-0.23054 0.49707-0.30069 0.58667-0.34404 0.59059-0.598 0.93959-0.28307 0.40678-0.23049 0.2853-0.28778 0.30635-0.40772 0.36488-0.39602 0.30816-1.3671 0.94981-0.5173 0.38734-0.22305 0.18888-0.24548 0.2365-0.1832 0.20683-0.17568 0.23713-0.17662 0.31541-0.067264 0.15734-0.11179 0.3338-0.10987 0.46955-0.19943 1.0668-0.17944 0.61719-0.1932 0.49281-0.23791 0.49886-0.25657 0.4479-0.25097 0.37544-1.1938 1.5807-0.16367 0.24355-0.61961 1.002-0.32891 0.42761-0.37509 0.40979-0.40828 0.38498-0.42739 0.35023-0.20098 0.14701-0.45736 0.28657-0.42542 0.21538-0.3348 0.13215-0.16558 0.026157-0.11707 0.04078-1.2331 0.33059-1.064 0.29943-0.99857 0.31137-0.70416 0.26077-0.50318 0.21663-0.45019 0.21652-0.36053 0.20861-0.28921 0.21903-0.24035 0.2468-0.21314 0.27394-0.5756 0.84821-0.203 0.27308-0.21415 0.26063-0.22681 0.24296-0.31537 0.28634-0.77692 0.62465-0.20846 0.19459-0.3532 0.40879-0.18348 0.19346-0.084939 0.074578-0.22961 0.16833-0.25232 0.15321-0.88266 0.45652-0.35765 0.1411-1.2113 0.36834-0.42188 0.14066-0.4183 0.16976-0.39161 0.19952-0.38394 0.23095-0.37857 0.25509-0.74762 0.55881-0.73958 0.59044-0.7172 0.58764-0.35225 0.32706-0.33452 0.34655-0.31207 0.35185-0.51531 0.63772-0.23004 0.31628-2.1826-1.7556-0.53622-0.5402-0.68282-0.63555-0.46986-0.40294-0.46324-0.35212-0.22819-0.14683-0.22609-0.11977-0.22434-0.084898-0.22306-0.039933-0.22406 0.013565-0.22039 0.059891-0.2138 0.097028-0.77696 0.50294-0.35567 0.19639-0.25029 0.11392-0.41244 0.1496-0.83649 0.23648-0.35621 0.075292-0.77924 0.13006-0.23333 0.055535-0.40571 0.13015-0.81253 0.33492-0.79753 0.29992-0.39836 0.16657-0.41395 0.20475-0.91968 0.5329-0.382 0.19703-0.18129 0.066685-0.10203 0.023653-0.080218 0.007235-0.062719-0.024635 0.045757 0.21081-0.076036 0.23707-0.19092 0.20221-0.15444 0.076908-0.15657 0.047366-0.20829 0.040605-0.31834 0.041538-2.7601 0.27199-0.49337 0.060808-1.0186 0.15872-0.59366 0.075491-1.1947 0.12149-0.57998 0.081293-0.55383 0.11997-0.27839 0.086669-0.20012 0.079521-0.45966 0.25206-0.60174 0.4411-0.84635 0.70428-0.43872 0.3243-0.45999 0.27645-0.24329 0.11467-0.40084 0.13922-0.41108 0.080532-0.41611 0.01496-0.5006-0.074585-0.49655-0.15749-0.48816-0.2197-0.47489-0.2653-0.35473-0.22785-1.148-0.83067-0.37243-0.2365-0.36102-0.16937-0.35053-0.073231-0.16848 0.007672-0.19072 0.039765-0.19351 0.066929-0.24395 0.11546-0.25345 0.1516-0.24976 0.17201-0.41995 0.32282-0.32307 0.27894-0.2823 0.286-0.13648 0.16199-0.1331 0.18397-0.21994 0.3977-0.3709 0.83165-0.22775 0.39227-0.33461 0.39105-0.40068 0.35273-1.306 0.96052-0.38872 0.31216-0.30888 0.23017-1.1899 0.7888-0.29072 0.18402-0.47888 0.26248-0.89144 0.41769-0.41899 0.20888-0.37033 0.23092-0.29499 0.27095-0.087562 0.11843-0.086633 0.15011-0.12519 0.30735-0.081162 0.30127-0.10997 0.55383-0.088058 0.29282-0.11782 0.25302-0.1555 0.23208-0.16619 0.19212-0.20863 0.20313-0.77987 0.6612-0.18294 0.16715-0.82795 0.85443-0.3504 0.30311-0.75214 0.58464-0.36467 0.30581-0.33127 0.33227-0.27639 0.37367-0.21894 0.46463-0.14844 0.51704-0.096189 0.55635-0.058778 0.58522-0.033622 0.60569-0.049685 1.8759-0.030073 0.6269-0.053187 0.61877-0.10688 0.70097-0.13049 0.52959-0.069798 0.2273-0.21819 0.58297-0.14085 0.30512-0.15675 0.29236-0.14122 0.22975-0.13974 0.2015-0.18076 0.22913-0.14272 0.15915-0.16864 0.16552-0.3374 0.2651-0.45433 0.24062-0.49227 0.16333-0.51451 0.097521-0.52274 0.038353-0.51788-0.018651-0.5001-0.077707-0.45536-0.12683-0.61976-0.19515-1.2036-0.3192-0.42216-0.13607-0.49967-0.18302-0.74494-0.30114-0.48378-0.24383-0.31006-0.21334-0.41616-0.31263-0.2552-0.14973-0.33193-0.10986-0.35532-0.038943-0.35761 0.029695-0.33846 0.10003-0.29661 0.17612-0.17223 0.17109-0.1463 0.20186-0.10575 0.18524-0.14617 0.34121-0.28233 0.806-0.12667 0.2686-0.057199 0.098951-0.13799 0.19389-0.15736 0.15902-0.13139 0.092524-0.11413 0.058339-0.1602 0.051366-0.092084 0.015701-0.24284-0.005321-0.28498-0.078445-0.19135-0.081499-0.12229-0.063851-0.19129-0.12636-0.30091-0.27556-0.39144-0.42411-0.27821-0.27896-0.29666-0.2651-0.4436-0.33384-0.29292-0.17162-0.55162-0.26951-0.50211-0.26995-0.13464-0.045958-0.10315-0.012396-0.072789 0.006536-0.05756 0.015729-0.087804 0.043548-0.11615 0.094713-0.11473 0.13272-0.11608 0.18716-0.10221 0.2626-0.13046 0.59542-0.066679 0.24879-0.10215 0.29954-0.12825 0.329-0.46093 0.95868-0.54524 1.02-0.36058 0.81124-0.21207 0.36337-0.19431 0.22675-0.22854 0.19192-0.23306 0.15095-0.64499 0.3589-0.34288 0.21989-0.39425 0.31059-0.53132 0.45134-0.14103 0.094906-0.18498 0.090995-0.15378 0.039882-0.086059 0.006096-0.18556-0.021496-0.2096-0.072004-0.17318-0.093025-0.93269-0.63057-0.46916-0.29768-0.7168-0.41727-0.87064-0.5255-1.0975-0.62062-1.3835-0.83134-0.43024-0.24021-0.3306-0.16201-0.22982-0.098695-0.89722-0.32384-2.0561-0.79547-0.2085-0.088474-0.33241-0.16387-0.36967-0.23123-0.30318-0.23836-0.20809-0.20912-0.070789-0.13852-1.4085-2.1965-0.18657-0.2699-0.10249-0.12198-0.11628-0.097805-0.066504-0.03263-0.1389-0.022565-0.23315 0.025303-0.27343 0.067475-0.019748-0.025799-0.009312-0.046691-0.02113-0.27395-0.051622-2.0015-0.041568-1.0054-0.054499-0.60466-0.042466-0.27312-0.057672-0.24742-0.075975-0.20494-0.10535-0.16702-0.097025-0.10542-0.60483-0.51409-0.3045-0.32171-0.33227-0.43823-0.31112-0.47593-0.40643-0.69935-0.19003-0.36348-0.19215-0.40024-0.10291-0.24287-0.083792-0.23966-0.058784-0.23726-0.025609-0.23356 0.022577-0.27292 0.075996-0.25839 0.12438-0.23542 0.17202-0.20166 0.21426-0.15845 0.13752-0.078697 0.70187-0.331 0.48821-0.25389 0.21904-0.14017 0.18774-0.15105 0.143-0.16326 0.083601-0.1759 0.016322-0.17661-0.034236-0.17525-0.068312-0.1593-0.083972-0.12405-0.082219-0.064198-0.084603 0.04316-0.15431-0.065967-0.29507-0.24591-0.35137-0.37712-1.5727-1.8995-0.69457-0.76486-0.50675-0.50837-0.42325-0.40096-0.71189-0.63805-0.7274-0.61672-0.66391-0.52478-0.35974-0.26489-0.47156-0.29104-0.50183-0.24717-0.30462-0.12234-0.30423-0.10205-0.49737-0.12083-0.27338-0.037887-0.17527-0.011195-0.47519 0.021552-0.47251 0.046343-0.26382 0.013487-0.62125 0.002152-1.2941-0.096392-0.54201-0.015824-0.64091-0.035764-0.27612-0.007056-0.27764 0.009238-0.20324 0.020945-0.39977 0.074434-0.32319 0.087515-0.29708 0.0993-0.93023 0.35996-0.28871 0.099034-0.28748 0.081395-0.37715 0.077661-0.48829 0.082195-0.40108 0.050672-0.65862 0.060761-0.30947 0.048794-0.55447 0.11044-0.24517 0.059245-0.46807 0.15416-0.98037 0.40343-0.24951 0.093492-0.24527 0.073287-0.27854 0.059265-0.67234 0.10774-0.38814 0.051295-0.31696 0.027804-0.40544 0.00782-0.2989-0.01837-0.35925-0.050699-0.41388-0.091144-0.43215-0.12266-0.4927-0.15992-1.1693-0.45303-0.10855-0.035382-0.21735-0.046072-0.099841-0.007221-0.37418 0.037242-1.3293 0.34843-0.46994 0.064197-0.46462-0.032868-0.26636-0.081497-0.26203-0.124-0.23668-0.14409-0.23463-0.16846-0.29154-0.23881-0.40256-0.37132-0.19779-0.20153-0.26535-0.29962-0.30758-0.39429-0.28945-0.41677-0.28772-0.45724-0.4833-0.85857-0.44588-0.88766-1.0966-2.3726-0.28915-0.57158-0.29296-0.52226-0.30412-0.48614-0.33464-0.46603-0.13225-0.15674-0.18602-0.1912-0.15423-0.13272-0.17161-0.12015-0.14515-0.080576-0.22887-0.097481-0.26462-0.080449-0.4326-0.082237-0.45477-0.044692-0.36585-0.015753-0.55472 9.75e-4 -0.81285 0.043883-0.87176 0.094009-1.3604 0.19097-1.2577 0.20257-0.14809 0.004434-0.039545-0.20026-0.071411-0.27016-0.43122-1.4764-0.12481-0.48393-0.099948-0.50703-0.073796-0.60422-0.039676-0.61847-0.041035-1.2505-0.033371-0.6216-0.06337-0.61417-0.095221-0.55405-0.12691-0.5446-0.15222-0.53436-0.17298-0.52549-0.2043-0.54767-0.14078-0.34299-0.32773-0.72571-0.25132-0.50268-0.49025-0.92434-0.15513-0.31805-0.22808-0.52171-0.11413-0.32872-0.088118-0.41107-0.028662-0.41865 0.007578-0.20327 0.039166-0.34934 0.13503-0.65773 0.37035-1.4467 0.052275-0.30869 0.085707-0.71807 0.063689-0.4112 0.067164-0.27514 0.082388-0.22916 0.19038-0.34493 0.22493-0.29119 0.37068-0.3971 0.11804-0.16063 0.085315-0.21643 0.024067-0.33044-0.06884-0.84001 0.017483-0.38344 0.055274-0.26198 0.12483-0.39971 0.069619-0.19615 0.12224-0.29028 0.6477-1.1747 0.14432-0.24503 0.57539-0.87329 0.24584-0.47154 0.12459-0.36267 0.081918-0.38242 0.051129-0.50494 0.024208-1.0312 0.030005-0.50662 0.082331-0.48628 0.14415-0.42599 0.19287-0.40504 0.21733-0.39042 0.21634-0.35818 0.25417-0.34032 0.17848-0.18627 0.34328-0.29306 0.29794-0.21711 0.42661-0.27694 0.36865-0.21957 1.6508-0.92124 0.6098-0.36148 0.64442-0.42929 0.2314-0.17187 0.1287-0.12764 0.012422-0.029493-0.010529-0.026464-0.015091-0.10044-0.066258-0.10322-0.10292-0.12047-0.19904-0.18307-0.24491-0.18889-0.81227-0.56269-0.75918-0.59495-0.36934-0.24909-0.41171-0.21368-0.49323-0.20734-0.87839-0.31749-0.28647-0.12464-0.24092-0.14012-0.22681-0.1645-0.40326-0.32733-1.4258-1.2151-0.18965-0.17518-0.2184-0.25227-0.15368-0.22058-0.64461-0.97942-0.32178-0.52231-0.34557-0.61672-0.56635-1.1146-0.64611-1.2159-0.23833-0.41483-0.20145-0.32274-0.37809-0.5686-0.79797-1.0378-0.13658-0.16436-0.3611-0.3867-0.20035-0.1919-0.25226-0.20836-0.28182-0.19721-0.58873-0.38482-0.12225-0.092273-0.12979-0.13379-0.025268-0.062942 0.008063-0.023348-0.020231-0.058228 6.87e-4 -0.22581 0.047747-0.54504 0.094069-0.70381 0.13644-0.81155 0.10794-0.54543 0.1331-0.57086 0.40596-1.4509 0.17872-0.74002 0.1531-0.83611 0.12504-0.94737 0.034306-0.3916 0.031659-0.62844 0.004213-1.0152-0.048477-0.89013-0.058707-0.54685-0.06586-0.44838-0.06617-0.35457-0.15971-0.69023-0.13867-0.48362-0.18018-0.52803-0.20088-0.49791-0.16456-0.35303-0.12414-0.2384-0.28319-0.47408-0.25203-0.37138-0.46881-0.61395-0.46774-0.53985-0.27063-0.28825-0.46241-0.45004-0.26332-0.22694-0.20173-0.15774-0.59884-0.42595-0.36989-0.2888-0.15744-0.15379-0.09686-0.11893-0.083766-0.13984-0.052015-0.13344-0.036136-0.27153 0.028883-0.40833 0.095059-0.70908 0.023372-0.24807 0.009142-0.24352-0.016059-0.77944 0.035473-0.3587 0.051275-0.23234 0.11775-0.35381 0.18066-0.33633 0.20362-0.24526 0.11461-0.10734 0.2814-0.21226 0.25505-0.15994 1.5194-0.8482 0.51714-0.33242 0.42177-0.29532 0.45893-0.35338 0.45679-0.40515 0.35374-0.35969 0.37021-0.43765 0.29189-0.45803 0.12545-0.29448 0.10715-0.40126 0.163-1.1505 0.052671-0.2127 0.076703-0.19364 0.11789-0.18799 0.15146-0.1765 0.4855-0.4707 0.154-0.17566 0.10116-0.14533 0.098903-0.20081 0.062687-0.22941 0.027094-0.22668 0.005339-0.148-0.008151-0.28824-0.025471-0.28584-0.06148-0.41257-0.091268-0.44254-0.13532-0.53256-0.13397-0.46295-0.40862-1.3157-0.26456-0.78222-0.42545-1.0746-0.28284-0.645-0.34037-0.71906-0.82183-1.5831-0.9872-1.7871-0.27947-0.55435-0.1327-0.30192-0.1093-0.28515-0.14718-0.4724-0.066168-0.3214-0.015403-0.13521-0.00316-0.19368 0.025451-0.14287 0.086724-0.086642 0.018451 0.012884 0.083155 0.012286 0.13373-0.002491 0.27668-0.03557 0.26214-0.060602 0.31487-0.10404 0.30393-0.13475 0.24398-0.13619 0.21644-0.144 0.20731-0.15618 0.83956-0.65973 0.74932-0.5566 0.33738-0.28182 0.19919-0.20999 0.097818-0.12713 0.14069-0.21606 0.51539-0.97626 0.20324-0.30362 0.22617-0.29308 0.23158-0.26767 0.31699-0.32649 0.17125-0.1523 0.66574-0.52595 0.32078-0.28968 0.27048-0.31565 0.20078-0.30866 0.16634-0.30919 0.069534-0.16289 0.044012-0.13195 0.053969-0.23283 0.02667-0.23974 0.005049-0.24373-0.035363-0.80267 0.020369-0.32283 0.084612-0.29681 0.040129-0.078226 0.11449-0.16474 0.14428-0.15498 0.16987-0.14813 0.19499-0.14521 0.21379-0.14086 0.40815-0.23505 0.33994-0.16802 0.3611-0.15474 0.53746-0.19099 2.0626-0.59785 2.6796-0.88764 0.57978-0.21558 0.62346-0.27616 0.34266-0.18079 0.20276-0.1203 0.24995-0.17972 0.022666-0.044411 0.040546-0.057259 0.013131-0.17222-0.008771-0.28129-0.034971-0.36375-0.055368-0.39394-0.28115-1.6611-0.075887-0.69942-0.013276-0.35507 0.009224-0.36039 0.037778-0.37826 0.059786-0.36649 0.084383-0.39135 0.11059-0.37563 0.16138-0.39465 0.28103-0.52453 0.16767-0.26117 1.05-1.4812 0.33973-0.51242 0.48831-0.64051 0.25583-0.36363 0.14429-0.2694 0.079969-0.17776 0.13557-0.37492 0.081995-0.39826 0.015005-0.30178-0.022847-0.40737-0.098496-0.69161-0.26884-1.4663-0.048999-0.43264-0.016115-0.43754 0.02214-0.54837 0.19898-2.0216 0.07122-1.1819 0.057428-0.70184 0.062754-0.39828 0.088078-0.41755 0.098891-0.42516 0.19785-0.7611 0.037727-0.29801-0.003198-0.23554-0.055487-0.57992-0.085492-0.72247-0.054635-0.29506-0.23004-0.91165-0.095817-0.31-0.08298-0.2252-0.1482-0.32644-0.36783-0.65667-0.15125-0.31844-0.15157-0.41858-0.073153-0.26999-0.073065-0.33024-0.085257-0.43962-0.17166-1.0273-0.16239-0.72432-0.10595-0.32059-0.30888-0.79301-0.16924-0.49115-0.26391-0.8702-0.24504-0.87675-0.21739-0.72213-0.42971-1.319-0.19822-0.5649-0.20851-0.54541-0.22213-0.51319-0.32282-0.61879-0.26102-0.38501-0.28483-0.28567-0.85583-0.54152-0.8937-0.40611-0.325-0.29785-0.13545-0.46036 0.10827-0.48746 0.54156-0.40627 2.5583-0.76414 2.0458-0.20012 1.9109-0.1492 1.0963-0.060153 0.99053-0.037495 4.5261-0.068564 1.2426-0.036416 0.90908-0.053559 0.35983-0.04361 0.073374-0.027847-0.052846-0.10132-0.019915-0.22151 0.022893-0.29107 0.05133-0.24061 0.078631-0.24923 0.28953-0.69624 0.162-0.42082 0.17125-0.48054 0.13777-0.43043 0.14336-0.54305 0.056883-0.27314 0.13124-0.83827 0.092995-0.48 0.076448-0.28268 0.14801-0.39666 0.12248-0.23792 0.095696-0.1499 0.1251-0.15894 0.13949-0.14124 0.31151-0.24894 0.89433-0.59741 0.39122-0.28459 0.3006-0.26385 0.28339-0.30466 0.17397-0.24066 0.10951-0.20157 0.096694-0.23001 0.079964-0.24326 0.066534-0.256 0.053785-0.26428 0.062118-0.43036 0.1532-1.6123-0.002457-0.44167-0.035138-0.30293-0.071393-0.34995-0.088768-0.31797-0.10838-0.32022-0.20495-0.50979-0.18357-0.40029-0.40557-0.79492-0.84107-1.4962 0.060494-0.010921 0.2075-0.070771 0.30392-0.11733 2.2582-0.93043 2.782-1.0795 4.2009-1.5583 0.98817-0.39877 2.1374-0.90666 0.52477-0.20843 0.93474-0.33409 2.297-0.76541 3.4499-1.185 0.95251-0.36784 0.53584-0.24077 0.12363-0.065503 0.076914-0.055481 2.1894-0.77497 1.7872-0.67552 4.1069-1.641 1.01-0.42322 0.75446-0.34421 0.58699-0.29626 0.62464-0.34682 0.3064-0.18699 0.38435-0.26094 0.23866-0.18516 0.2153-0.19391 0.28671-0.33814 0.17908-0.33326 0.046633-0.137 0.062394-0.449-0.039113-0.48002-0.11616-0.50222-0.1746-0.51748-0.30285-0.72166-1.0727-2.3006-0.56307-1.2401-0.83764-1.9657-0.78771-1.9795-0.24505-0.66121-0.2302-0.66163-0.20896-0.66189-0.17871-0.66191-0.13604-0.66152-0.052364-0.37726-0.029995-0.37656-0.006101-0.31252 0.016908-0.37278 0.035064-0.30784 0.096474-0.48514 0.14566-0.4736 0.19239-0.4595 0.2739-0.51034 0.34295-0.52281 0.38249-0.50616 0.41108-0.49375 0.43154-0.48439 0.44615-0.47705 0.92143-0.93542 0.94932-0.90683 0.48521-0.43741 0.49439-0.42135 0.50654-0.39917 0.52294-0.36871 0.51447-0.31297 0.53297-0.27344 0.55147-0.2287 0.5808-0.18253 0.59613-0.14006 0.60737-0.107 0.61547-0.0807 0.62114-0.058841 0.62494-0.039361 0.6273-0.020368 0.62851-4.9e-5 0.62878 0.02342 0.68578 0.055217 0.68525 0.079682 0.68487 0.096955 1.369 0.22603 2.051 0.38019 1.3603 0.27426 0.67436 0.14748 0.66734 0.15894 0.65664 0.17585 0.64076 0.20038 0.6177 0.23529 0.30833 0.1403 0.34644 0.1829 0.28371 0.17485 0.2699 0.19242 0.25477 0.2103 0.35126 0.34834 0.31211 0.3857 0.2725 0.41934 0.24446 0.46857 0.24495 0.58937 0.20607 0.61627 0.17549 0.6364 0.1502 0.65164 0.1275 0.66347 0.10487 0.67301 0.079803 0.68111 0.049707 0.68836 0.011178 0.34179 2.18e-4 0.41989-0.015765 0.4603-0.12392 1.9545-0.006675 0.56094 0.016604 0.54441 0.054755 0.75803 0.082332 0.75307 0.20819 1.4264 0.23141 1.3859 0.020837-0.004622 2.3531-0.50584 2.1325-0.42213 0.71339-0.13053 1.3269-0.22042 2.0613-0.29893 1.109-0.20593 0.69466-0.16015 0.68302-0.18264 0.67119-0.20534 0.65847-0.23017 0.50734-0.1988 2.0806-0.86982 1.0831-0.41876 0.54358-0.1926 0.54533-0.17752 1.6687-0.48209 0.64585-0.2078 0.64338-0.22557 0.63901-0.24459 0.49895-0.20678 0.98943-0.44101 1.049-0.49267 1.6552-0.8172 1.0783-0.57808 0.86034-0.50013 1.1907-0.71344 0.51719-0.28225 0.52887-0.26454 0.55501-0.25305 0.5646-0.23592 0.57253-0.22071 0.5724-0.20447 1.1591-0.37581 1.1722-0.33913 1.747-0.47574 0.56564-0.17109 0.59097-0.194 1.1732-0.41796 1.7551-0.6464 1.2392-0.42764 0.6232-0.20166 1.2542-0.37254 0.63179-0.16607 0.55705-0.13129 1.9175-0.39008 0.62937-0.13831 1.1363-0.2801 1.0136-0.27818 3.0479-0.90397 1.3328-0.42722 2.6702-0.88758 1.3422-0.42175 0.67358-0.19463 0.67526-0.17779 1.2614-0.3048 1.0291-0.26844 1.2458-0.35774 0.74076-0.24792 1.3383-0.49442 0.36812-0.1255 0.24662-0.070894 0.29733-0.051684 0.068158-3.27e-4 0.097379 0.020622 0.037182 0.034778 0.007975 0.023324-0.00127 0.045879-0.04786 0.14269 0.016085 0.032686 0.069185 0.023481 0.24125 0.00144 0.25104-0.034096 0.3043-0.062997 0.34473-0.089279 1.6064-0.48932 0.46948-0.10183 0.18883-0.019279 0.15728 0.006952 0.06947 0.040579 0.072674 0.15224" stroke="#bdc660"/>
    </defs>
    <g clip-path="url(#p04e0cbc916)">
     <use y="280.512" fill="#bdc660" stroke="#bdc660" xlink:href="#m9fb7f70465"/>
    </g>
   </g>
  </g>
 </g>
 <defs>
  <clipPath id="p04e0cbc916">
   <rect x="7.2" y="7.2" width="199.51" height="266.11"/>
  </clipPath>
 </defs>
</svg>
