<?xml version="1.0" encoding="UTF-8"?>
<!DOCTYPE svg  PUBLIC '-//W3C//DTD SVG 1.1//EN'  'http://www.w3.org/Graphics/SVG/1.1/DTD/svg11.dtd'>
<svg width="347.63pt" height="280.51pt" version="1.1" viewBox="0 0 347.63 280.51" xmlns="http://www.w3.org/2000/svg" xmlns:xlink="http://www.w3.org/1999/xlink">
 <metadata>
  <rdf:RDF xmlns:cc="http://creativecommons.org/ns#" xmlns:dc="http://purl.org/dc/elements/1.1/" xmlns:rdf="http://www.w3.org/1999/02/22-rdf-syntax-ns#">
   <cc:Work>
    <dc:type rdf:resource="http://purl.org/dc/dcmitype/StillImage"/>
    <dc:date>2024-07-04T12:11:45.486590</dc:date>
    <dc:format>image/svg+xml</dc:format>
    <dc:creator>
     <cc:Agent>
      <dc:title>Matplotlib v3.7.1, https://matplotlib.org/</dc:title>
     </cc:Agent>
    </dc:creator>
   </cc:Work>
  </rdf:RDF>
 </metadata>
 <defs>
  <style type="text/css">*{stroke-linejoin: round; stroke-linecap: butt}</style>
 </defs>
 <g id="figure_1">
  <g id="patch_1">
   <path d="m0 280.51h347.63v-280.51h-347.63v280.51z" fill="none"/>
  </g>
  <g id="axes_1">
   <g id="PatchCollection_1">
    <defs>
     <path id="mc84315285c" d="m105.04-225.28 2.5502 0.022679 2.5169-0.198 2.3971-0.41194 2.1797-0.63675 1.8481-0.89053 1.2556-0.96542 1.7305-1.6632 1.0588-0.92654 1.1706-0.92572 1.518-1.0644 1.1927-0.67347 1.313-0.58843 2.2151-0.70368 1.8669-0.39732 1.9753-0.28283 2.5587-0.20553 4.1795-0.078522 2.8735 0.074672 2.2115 0.12687 2.9179 0.25321 8.1446 0.9281 3.2465 0.17661 1.082-0.022295 1.0068-0.095981 0.58291-0.12086 0.42602-0.18208 0.12598-0.14583 0.00304-0.13041 1.2933 0.39436 0.90475 0.39504 0.57068 0.3894 0.39277 0.55039 0.15219 0.53403 0.065279 0.76973-0.18509 3.2582 0.057625 2.0143 0.24327 0.049754 1.8621-0.25897 13.306-2.5062 4.8741-0.82683 2.433-0.35459 2.5039-0.30671 3.458-0.28802 2.1968-0.06517 1.7829 0.044133 1.9438 0.18201 1.7497 0.3288 1.0471 0.2998 1.8116 0.75137 1.713 0.92838 1.5023 0.91801 1.6615 1.144 1.667 1.2917 1.7917 1.5261 4.2822 3.8236 1.8105 1.4476 1.677 1.1045 1.3548 0.7359 1.7889 0.75392 1.0201 0.30435 2.3378 0.31443 0.44022 0.006664 1.6837-0.11682 1.5227-0.28786 1.2161-0.35672 1.3355-0.5042 7.2288-3.3613 2.2101-0.91688 1.7989-0.51365 0.82262-0.13398 0.75591-0.051749 0.69752 0.02318 0.66384 0.090671 1.0306 0.27773 0.75999 0.31383 0.83118 0.45764 1.3944 1.0422 2.7207 2.4558 1.7487 1.4269 1.3436 0.88192 1.5345 0.79366 1.4752 0.58176 2.0729 0.57999 2.1089 0.37177 3.4713 0.40879 1.6753 0.32549 1.1379 0.36893 0.84413 0.37571 0.97102 0.54286 0.66479 0.44404 0.92413 0.72541 1.1307 1.1198 0.87247 1.0836 0.9842 1.4931 0.70025 1.2686 0.52028 1.0775 0.60952 1.4447 0.80725 2.3558 0.4707 1.7485 0.46359 2.2991 0.28446 2.1234 0.60694 5.7387 0.33528 2.2766 0.27513 1.3644 0.34373 1.2965 0.79681 2.2013 1.2253 3.0909 0.47852 1.3975 1.8504 5.7337 0.9028 3.1331 0.56543 2.5184 0.47528 3.1339 0.22279 2.5143 0.10271 3.6657 0.1992 1.8732 0.17091 0.9036 0.38892 1.4126 0.56185 1.4415 0.85181 1.6653 0.54075 0.88235 1.1347 1.6084 0.95948 1.203 1.8201 2.0875 1.2171 1.2842 1.0963 1.0623 1.7484 1.5115 2.2934 1.6828 1.4749 0.9334 1.6216 0.92017 4.0808 2.0647 3.1769 1.4755 7.3148 3.092 2.7662 1.3402 1.6402 0.9523 1.0709 0.75404 0.62945 0.60901 0.15668 0.33372-0.069092 0.19212-0.65644 0.43421-3.1349 1.6988-3.6828 1.8295-1.2108 0.3874-1.7373 0.20819-0.73104 0.17003-0.60723 0.25428-0.84741 0.52133-3.904 2.9909-1.5257 1.3661-1.0159 1.1151-2.8844 3.4225-0.73748 1.1671-0.44627 1.1845-0.2055 0.87236-0.18205 1.2941-0.070572 1.1337-0.008662 1.7442 0.1881 6.9455-0.052109 1.8837-0.14564 1.4053-0.36256 1.7672-1.4873 4.668-0.7965 2.994-0.69551 3.3027-0.32556 2.6548-0.059083 2.154 0.1497 2.276 0.22912 1.6075 0.31692 1.5356 0.25944 0.89756 0.18517 0.44886 0.08304 0.082742-5.3635 1.6796-3.3888 1.2575-2.0988 0.91394-0.97855 0.48442-1.914 1.1101-0.88384 0.59993-1.3659 1.0869-0.6088 0.58166-2.733 2.9774-2.2685 2.3523-1.5802 1.5316-1.6548 1.4544-1.1551 0.90197-4.5068 3.2998-2.385 1.498-1.7266 0.96223-2.7792 1.4199-2.0396 0.94914-2.1195 0.87852-1.938 0.67538-1.7103 0.48692-1.7428 0.39465-1.575 0.25462-1.2416-0.56633-1.1867-0.44438-1.4209-0.4372-1.5661-0.41141-3.337-0.73361-3.4022-0.62525-3.3633-0.52268-3.3008-0.39825-3.2451-0.21145-2.7272 0.01408-9.9265 0.32356-3.0071 0.29593-2.9001 0.52674-1.3796 0.35714-1.3077 0.43193-3.3182 1.4379-0.91707 0.28268-0.4106 0.055862-0.82514-0.053626-0.50108-0.15924-0.60344-0.33421-0.66998-0.52916-2.0804-1.9508-1.5319-1.1027-1.3868-0.85233-2.2622-1.1599-5.2491-2.2765-2.476-0.99661-8.6751 2.5767-3.1453 0.84832-3.5966 0.89193-9.6646 2.156-12.706 2.473-2.4763 0.54987-2.3385 0.62246-3.0733 0.93128-2.2482 0.4964-2.3573 0.34491-2.4381 0.2237-2.4961 0.12358-2.5358 0.036496-4.1645-0.10775-4.1754-0.29759-3.8077-0.44966-9.1365-1.5669-2.4211-0.31451-1.108-0.054298-1.1467 0.028784-1.3665 0.13676-1.6188 0.27325-2.275 0.53788-2.304 0.68715-2.3259 0.80871-2.3407 0.91105-4.2288 1.8646-8.5452 4.1397-2.1826 0.93744-5.6929 2.2322-2.094 0.88651-2.9465 1.4229-2.5046 1.4662-1.438 0.98963-1.1119 0.89571-0.63646 0.65085-0.15407 0.37216-1.0657 0.082787-1.184 0.23071-1.1643 0.35987-1.0038 0.43723-1.1296 0.33203-1.1667 0.15236-1.1148-0.04515-0.50961-0.12054-0.45984-0.20904-0.35067-0.26494-0.31686-0.32636-1.581-1.9756-0.75202-0.65129-0.50945-0.35778-1.0853-0.65223-1.1399-0.59345-1.1742-0.54252-1.2051-0.47211-1.2469-0.34586-0.61884-0.096447-1.2773-0.082058-2.6924 0.070141-4.9639 0.34108-0.062445-5.1359 0.051695-6.2929 0.23972-7.3209 0.22955-3.9084 0.31278-3.8719 0.39905-3.8199 0.47512-3.7746 1.8867-13.45 0.56492-4.7715 0.34824-3.5546 0.27102-3.5327 0.18583-3.5132 0.096292-3.5039-0.028737-5.2471-0.13619-3.4843-0.37754-5.1961-0.36193-3.4434-0.44108-3.4392-0.89457-5.8811-2.0628-11.718-4.5764-24.401-1.0831-6.147-1.0258-6.5087-0.46013-3.4335-0.38747-3.438-0.3068-3.4527-0.29404-5.2078-0.074997-5.2217 0.078285-3.4795 0.17961-3.4838 0.52694-6.1412 0.60082-5.3086 1.2712-9.8719 1.5202-11.103 4.6993-32.58 0.31681-0.17748 0.74426-0.24142 1.0194-0.22564 1.6357-0.23082 1.3484-0.082874 1.3636 0.025741 1.3154 0.15693 1.2346 0.31673 1.108 0.49729 0.97197 0.65478 1.0733 0.95737 1.8187 1.8895 2.9948 3.3516 1.5021 1.5653 1.6317 1.4763 1.7443 1.3115 1.8462 1.0682 0.59567 0.27182 1.7353 0.65513 4.1196 1.3651 1.2963 0.53695 1.4034 0.7213 1.2891 0.84313 1.0706 0.87673 2.464 2.3937 3.9833 4.0496 1.7961 1.6831 1.9879 1.6602 1.7998 1.307 0.90403 0.55062 1.5227 0.78401 2.5495 0.90233 2.7253 0.62244 5.6323 0.90513 2.7469 0.50259 8.0206 1.7647 2.5026 0.26762" stroke="#bdc660"/>
    </defs>
    <g clip-path="url(#pf705ed9638)">
     <use y="280.512" fill="#bdc660" stroke="#bdc660" xlink:href="#mc84315285c"/>
    </g>
   </g>
  </g>
 </g>
 <defs>
  <clipPath id="pf705ed9638">
   <rect x="7.2" y="7.2" width="333.23" height="266.11"/>
  </clipPath>
 </defs>
</svg>
