<?xml version="1.0" encoding="UTF-8"?>
<!DOCTYPE svg  PUBLIC '-//W3C//DTD SVG 1.1//EN'  'http://www.w3.org/Graphics/SVG/1.1/DTD/svg11.dtd'>
<svg width="314.19pt" height="280.51pt" version="1.1" viewBox="0 0 314.19 280.51" xmlns="http://www.w3.org/2000/svg" xmlns:xlink="http://www.w3.org/1999/xlink">
 <metadata>
  <rdf:RDF xmlns:cc="http://creativecommons.org/ns#" xmlns:dc="http://purl.org/dc/elements/1.1/" xmlns:rdf="http://www.w3.org/1999/02/22-rdf-syntax-ns#">
   <cc:Work>
    <dc:type rdf:resource="http://purl.org/dc/dcmitype/StillImage"/>
    <dc:date>2024-07-04T12:11:46.464006</dc:date>
    <dc:format>image/svg+xml</dc:format>
    <dc:creator>
     <cc:Agent>
      <dc:title>Matplotlib v3.7.1, https://matplotlib.org/</dc:title>
     </cc:Agent>
    </dc:creator>
   </cc:Work>
  </rdf:RDF>
 </metadata>
 <defs>
  <style type="text/css">*{stroke-linejoin: round; stroke-linecap: butt}</style>
 </defs>
 <g id="figure_1">
  <g id="patch_1">
   <path d="m0 280.51h314.19v-280.51h-314.19v280.51z" fill="none"/>
  </g>
  <g id="axes_1">
   <g id="PatchCollection_1">
    <defs>
     <path id="ma573aeddcf" d="m183.59-200.69 0.44173 0.077993 0.18673-0.023828 0.092301-0.065883 0.011549-0.11499-0.010827-0.12495 0.12998-0.15359 0.89586-0.64718 1.5257-0.82474 1.4259-0.6281 1.4374-0.52604 1.5257-0.45177 1.4762-0.34244 1.7271-0.29248 1.0073-0.11915 1.9171-0.11917 1.8023 0.029934 1.5358 0.1569 1.1724 0.23181 0.89864 0.27751 0.80702 0.36819 0.64412 0.42195 0.67306 0.64219 0.49796 0.74863 0.1747 0.4006 0.12967 0.42717 0.091774 0.51368 0.034115 0.47909-0.021254 0.72495-0.092571 0.76084-0.16999 0.88884-1.1911 4.6737-0.66708 2.8417-0.34488 1.6586-0.29901 1.7948-0.1647 1.5782-0.047737 1.5256 0.088757 1.712 0.24219 1.7378 0.4207 1.9131 0.44359 1.535 0.83243 2.2481 0.82407 1.8123 1.4236 2.7355 1.3668 2.3896 1.4463 2.2865 1.4436 1.9768 1.3326 1.552 1.3855 1.3779 1.6959 1.4161 1.4849 1.036 1.7417 1.0356 2.0628 1.0379 1.7191 0.75503 4.7831 1.9837 3.8283 1.743 2.5329 1.2795 2.3688 1.3668 2.3851 1.5523 2.5335 1.8055 3.0016 2.2781 6.0884 4.7779 2.9878 2.2315 2.7438 1.8439 3.7446 2.2281 1.7356 0.89852 1.3633 0.51142 0.55449 0.13506 0.68524 0.089683 0.46486-4.61e-4 0.43381-0.054131 0.85936-0.257 0.57657-0.26911 1.0448-0.59686 1.4881-0.92553 0.76244-0.56631 0.62212-0.54863 0.81598-0.89035 1.433-1.9773 1.196-1.8193 1.1708-2.0629 1.0094-2.1567 0.51108-1.2545 0.62931-1.7356 0.40558-1.2874 0.30612-1.2466 1.8993 2.3321 1.2944 1.7183 1.281 1.8678 2.8385 4.4239 1.0736 1.6005 2.8721 4.0379 3.0622 4.0854 0.5873 1.0151 0.4147 1.0735 0.13007 0.62533 0.041482 0.6183-0.10021 0.85152-0.21631 0.65149-0.59161 0.97084-0.61302 0.63707-0.84572 0.626-1.9309 1.0757-0.81738 0.50647-0.8945 0.6489-0.74243 0.61526-0.79974 0.75223-0.45206 0.50546-0.39389 0.55383-0.26394 0.50482-0.19779 0.55438-0.12907 0.5959-0.197 1.3678-0.26684 0.82117-0.1567 0.29315-0.34053 0.46634-1.2465 1.2618-0.48078 0.62279-0.29531 0.66153-0.11174 0.51319-0.11926 1.0251-0.20336 0.67132-0.44391 0.68612-0.37086 0.39609-0.38357 0.33454-0.82392 0.5695-1.1257 0.58997-1.625 0.62523-1.0109 0.29648-1.0433 0.24837-1.534 0.27217-1.3129 0.14794-1.2431 0.05813-0.78581-0.023487-0.44545-0.10963-3.6843 0.31319-1.2198 0.075614-1.4178 0.026928-0.92587-0.038418-1.3555-0.14242-1.1382-0.19903-1.7391-0.46233-0.96024-0.35556-0.82967-0.38771-0.69526-0.41047-0.97743-0.77159-2.6822-2.8247-1.0587-0.95179-0.51296-0.32691-0.55279-0.22841-0.42106-0.088578-0.80855 0.012-0.82049 0.2253-1.0741 0.592-0.97762 0.82966-0.89709 1.0106-2.2244 2.83-1.2292 1.3769-4.298 4.4871-1.9932 1.887-0.92751 0.74638-0.91981 0.62872-1.6207 0.86393-1.8174 0.63974-1.3178 0.26236-1.8613 0.10426-1.9102-0.14543-1.6956-0.29011-1.7116-0.40145-2.2193-0.62426-5.8916-1.8322-1.8128-0.50434-2.0348-0.46076-1.2362-0.19077-1.0205-0.079263-1.1937 0.033403-0.88555 0.13871-0.74988 0.21255-0.81685 0.34922-1.206 0.79311-0.77998 0.74587-0.67846 0.86781-0.52831 0.89621-0.4584 1.0332-0.36414 1.1085-0.31436 1.354-0.22123 1.4178-0.46992 5.4221-0.23954 2.1326-1.3313 8.5988-0.73115 5.9245-0.32035 1.9176-0.44415 1.5028-0.7254 1.2626-0.45661 0.43292-0.45636 0.26404-0.76574 0.17222-0.71443-0.082226-0.64261-0.26345-0.69277-0.51552-0.4362-0.4807-0.28875-0.39353-1.089-1.6546-0.58704-0.75691-0.66833-0.73274-0.72335-0.69035-1.2159-1.0065-1.4685-1.0419-1.1208-0.70183-1.1801-0.66775-2.1446-1.0518-1.9794-0.80711-1.4734-0.51039-1.5056-0.45225-2.1228-0.52955-2.2474-0.4271-2.0609-0.27862-1.5918-0.14161-2.4442-0.082239-2.158 0.071889-1.8057 0.16805-1.4239 0.20116-1.4167 0.25815-2.1459 0.49501-2.8016 0.8046-2.6435 0.90234-2.2098 0.86166-2.45 1.0824-2.1346 1.0738-1.3099 0.71954-2.7392 1.6306-2.9287 1.9053-2.848 2.0467-2.4064 1.949-2.0841 1.9172-0.98932 1.0252-1.1518 1.3541-1.0027 1.4095-0.61237 1.0517-0.5077 1.0804-0.39704 1.1208-0.27393 1.1394-0.17435 1.5471 0.018562 1.5408 0.51762 4.2708 0.053751 1.597-0.056933 1.2069-0.13601 1.2276-0.26714 1.5279-0.36721 1.5423-0.54347 1.812-0.65029 1.8091-0.84899 2.005-0.76429 1.5115-1.0415 1.7068-1.2017 1.6029-1.217 1.3214-1.3476 1.187-1.2616 0.89069-1.1289 0.63779-1.3608 0.60069-1.4174 0.46588-1.7934 0.40122-1.5123 0.21984-1.4706 0.1494-1.6482 0.11111-2.9832 0.059595-8.3336-11.095-2.0469-2.8647-1.2308-1.825-0.74554-1.1677-1.4039-2.3466-4.6693-8.383-1.4832-2.8099-2.9979-6.1241-0.85144-1.5336-1.595-2.3557-1.8608-2.5123-1.9445-2.4323-2.0043-2.3179-0.73701-0.95308-0.52726-0.77393-0.72094-1.2328-0.3563-0.72952-0.30828-0.74981-0.26228-0.81102-0.18471-0.83596-0.095476-0.88657 0.018199-1.2297 0.14549-1.1726 0.2505-1.1976 0.29574-1.0698 0.47444-1.4075 0.55679-1.4075 1.3437-2.8806 1.7582-3.335 0.20328-0.4122 0.02901-0.14854-0.16742 0.030996-0.30998-0.10528-0.75366-0.39447-2.7129-1.8093-0.96026-0.55405-0.77493-0.36454-1.2382-0.431-1.8882-0.42563-6.1855-1.1406-2.5383-0.43-0.56875-0.074476-0.64278-0.019356-0.44387 0.077418-0.42307 0.15927-0.88265 0.43656-0.69472 0.27924-0.78632 0.25398-1.7647 0.44864-1.9257 0.38981-2.0156 0.34519-5.4577 0.75126-2.9204 0.48529-1.9596 0.37096-2.5213 0.54897-2.3139 0.56331-6.8393 1.7999-0.063397-0.06317-0.14137-0.34268-0.19807-0.68525-0.24195-1.1723-0.17492-1.2273-0.11429-1.7376 0.045107-1.6445 0.24855-2.0268 0.53099-2.5215 0.6081-2.2858 1.1355-3.5638 0.2768-1.3492 0.11119-1.0729 0.039783-1.4381-0.14361-5.3026 0.006613-1.3316 0.053879-0.86552 0.13899-0.98798 0.15689-0.666 0.34071-0.90432 0.56304-0.89105 2.2021-2.613 0.77558-0.85132 1.1648-1.043 2.9805-2.2834 0.64696-0.39801 0.46359-0.19413 0.55812-0.12981 1.3263-0.15894 0.92442-0.29576 2.8116-1.3967 2.3933-1.297 0.50116-0.3315 0.6363-0.26505 2.6584-0.93608 5.8008-1.8315 2.6277-0.89272 2.5851-1.0019 3.5696-1.4981 2.4981-1.1758 1.5275-0.82019 0.93748-0.55592 1.0301-0.67041 0.84863-0.61345 0.53412-0.42525 0.86424-0.78475 0.83293-0.95488 0.66567-1.0773 0.52825-1.3143 0.3566-1.3635 0.61109-2.8109 0.35208-1.1668 0.72556-1.9844 0.4738-1.1019 0.65165-1.3242 0.74198-1.3467 1.373-2.2487 1.8318-2.7083 2.2035-2.9811 1.1814-1.4808 1.2282-1.4429 1.281-1.3934 1.2095-1.2049 1.2667-1.1423 1.7689-1.4034 2.9555-2.0434 3.1395-1.976 5.0714-3.0817 3.1206-2.0403 1.6586-1.2014 1.1273-0.88763 1.1946-1.0221 1.182-1.1107 1.605-1.6223 1.5763-1.6853 1.5476-1.7318 2.9945-3.5555 6.1818-7.8929 1.8948-2.5741 3.5651-4.9979 2.2622-2.9434 1.0254-1.2149 1.1658-1.269 5.2272-5.1354 0.95609-1.0425 1.2881-1.5544 1.1819-1.6467 0.93457-1.5371 0.73978-1.4729 0.62577-1.4964 0.56674-1.7254 0.41468-1.782 0.15036-0.91301 0.14568-1.3697 0.019732-1.3861-0.10623-1.1988-0.16303-0.97565-0.31464-1.3256-0.45052-1.4552-0.57005-1.5208-0.55679-1.3076-1.17-2.427-1.2635-2.3053-1.1936-1.9479-1.1914-1.6951 5.5593-2.5977 2.2928-1.0203 1.7078-0.91118 2.8803-1.3085 0.79634-0.3152 2.7373-0.95343 1.8077-0.57762 2.8999-1.0792 0.6507-0.19046 0.36832-0.05938 0.68233-0.032611 0.70324 0.022423 0.93792 0.092821 0.94285 0.17626 0.46774 0.17113 0.20766 0.15629 0.14727 0.08291 0.4147 0.10296 3.669 0.74932 1.9821 0.54842 2.2864 0.81258 2.9703 1.3063 1.7609 0.91867 3.4204 1.9763 2.2423 1.1804 1.379 0.84724 0.77554 0.58322 0.82865 0.75881 0.59347 0.69192 0.47826 0.79085 0.21016 0.54747 0.10078 0.43435 0.056931 0.48767 0.00648 0.6068-0.048257 0.62517-0.23048 1.4281-0.39173 1.6451-0.36275 1.1582-0.3823 0.93523-1.1226 2.3682-0.58679 1.5197-0.44328 1.6009-0.96357 4.1045-0.57191 1.9521-0.54083 1.6503-0.49308 1.2681-0.6585 1.4852-2.2185 4.6491-0.70275 1.7811-0.93383 2.7344-0.49553 1.671-0.18974 0.93029-0.10035 1.1948 0.050707 0.77085 0.13805 0.75616 0.10515 0.39389 0.55216 1.3395 0.79397 1.2652 0.88035 1.0917 1.4274 1.6131 0.75236 0.7684 0.83439 0.75858 0.92465 0.74625 1.0596 0.75748 0.70395 0.44898 1.0786 0.60103 0.65622 0.30164 0.4773 0.1673" stroke="#bdc660"/>
    </defs>
    <g clip-path="url(#p92e9da2243)">
     <use y="280.512" fill="#bdc660" stroke="#bdc660" xlink:href="#ma573aeddcf"/>
    </g>
   </g>
  </g>
 </g>
 <defs>
  <clipPath id="p92e9da2243">
   <rect x="7.2" y="7.2" width="299.79" height="266.11"/>
  </clipPath>
 </defs>
</svg>
