<svg xmlns="http://www.w3.org/2000/svg" xmlns:xlink="http://www.w3.org/1999/xlink" width="495.4" height="371.5" viewBox="0 0 371.5 278.7"><defs><style>*{stroke-linejoin:round;stroke-linecap:butt}</style></defs><g id="figure_1"><path id="patch_1" fill="none" d="M0 278.7h371.5V0H0z"/><g id="axes_1"><g id="PatchCollection_1"><defs><path id="m48ed20ff6e" stroke="#f4f4e2" d="M311-258.6h1.8l.9-.1 1.8-.2h1.4l.5.1.3.2.2.1v.2l.7.8.5.5.6.7.5.5.6.6 1.3 1.3 2.2 2 1.3 1.3.9.8.7.8.7.8.6.8.7.7.3.4.4.4.3.3.6.6.5.4.6.5.7.5.3.2.8.5 1.2.8-1.1.4-1.1.5-.8.4-.8.5-.7.4-1.2.8-1.4.9-.7.4-.6.3-1 .4-.6.3-.3.1-.6.2-.4.2h-.4l-.4.1h-1.1l-.3-.2h-.1l-.2-.1-.1-.1-.2-.2-.1-.1-.1-.1-.2-.3-.2-.4-.1-.2-.1-.3v-1.2l.1-.3.3-.7v-.8l-.2-.1-.1-.2h-.9l-.2.2-.3.2-.3.1-.3.3-.3.2-.5.4-.2.3-.3.3-.3.4-.2.4-.2.4v1.7l.2.3v.3l.3.6.7 1.7.3.8.2.4.1.5.3 1v.5l.1.4.1 1 .1.6.5 2.3.2.8.1.4.4 1.2v.2l-1.2-.1-.8-.1h-2l-.4.1-.3.1-.3.2-.8.3-.9.4-.4.3-.6.3-.5.4-.4.3-2 1.7-.7.5-.8.7-.4.3-.6.5-.4.3-.4.3-.3.1-.3.2-.5.2-1 .3-.5.2-.7.3-.3.1-.4.3-.2.1-.1.2-.2.2-.1.2-.3.6-.4.6-.2.3v.2h-.1v.3l-.1.6v1.2l.7 2.9.2.4.1.5.4 1v.4l.2.5v2.3l-.2.2v.4l-.2.4-.3.4-.2.5-1.3 2.3-.4.6-.2.3-.2.3-.2.2-.3.3-.1.2-.3.2-.3.2-.4.2-.5.3-.7.4-1.3.6-.4.2-.5.2-.3.2-.4.3-.4.2-.4.3-.5.4-.3.2-.2.3-.2.1-.2.3-.3.5-.2.3-.3.4-.1.3-.6 1.1-.3.7-.3.4-.3.4-.3.4-.4.3-.3.4-.5.3-.4.3-.5.3-.8.4-1.5.7v.9l.2.9.1.5.1.3.1.4.3.8v.5l.2.6v.4l.3.6.1.4.4.8v.1l.1.3.8 2.3.3.9.4 1 .2.4.3.6.3.6.1.3.3.5.3.3.3.5.3.3.3.3.5.4.5.4.5.4.4.2.2.2h.3l.8.4.4.2h1.5l.1-.1.4-.1.3-.2.3-.1.3-.2 1.2-.8.5-.2.5-.3.4-.2.3-.1.3-.1h.4l.2.1.2.1.2.2.3.3.1.2.6.8 1.8 2.7.8 1 .4.6.4.5.6.7.4.5.3.2.4-.4.5-.4.3-.3.5-.4.7-.6 1-.8.7-.5.2-.2.4-.2.3-.2.4-.2.5-.3.6-.2.7-.3.6-.2.8-.2 1.7-.4.6-.1 1.1-.3h.6l.8-.3 1-.3.2-.1.4-.2.3-.1.8-.4.3-.2.3-.2.3-.1.2-.2.3-.2.2-.2v-.1h.2l.1.2.1.2.1.4.5 2.2.2.6.2.5.2.4.2.2.3.2.2.2h.2l.3.2.5.2.6.2.6.1.5.1.7.1 1.6.1.7.1 1.5.2h1l.5.1h.5l1-.1 1-.1.6-.1 1.2-.2.7-.1h1.3l.3.1.3.1.6.2.3.1.4.2.3.2.6.3.7.5.6.5.7.5.4.4.4.4.3.5.4.5.3.5.1.3.1.3.1.3.1.4v.4l.2.5v1.6l-.3 2.3v2.3l-.2.3v.5l-.2.5v.3l-.2.3-.2.5-.2.2-.2.3-1 1.5-.3.4-.2.5-.2.5-.2.5v.6l-.1.4v1.1l-.1.7-.1.5-.2.5-.2.6-.1.3-.2.3-.2.3-.2.3-.2.4-.3.3-.3.3-.3.3-.1.1-.3.3-.3.1-.3.2h-.2l-.1.1h-.2l-.2.1h-.7l-.1-.1-.2-.1-.3-.2-.5-.2-.5-.4-.3-.2-.4-.4-.9-.7-.4-.3-.3-.3-.3-.2-.3-.2h-.3l-.2-.1h-.5l-.1.2-.2.2v.3l-.1.4v.4l-.1.4v3.2l.1.5v1.7l-.1.7v.5l-.2.8v.3l-.3.6-.1.5-.2.3-.2.4-.2.4-.4.6-.2.3v.2l-.1.2v.1l-.1.2v.6l.1.2h-.8v.8l-.1 1.2v.3l-.1.3-.1.2-.2.3-.1.2-.3.2-.2.2-.8.6-.4.3-.3.3-.4.3-.3.2-.2.3-.3.3-.1.3v.2l-.1.2v.5l.1.1.1.3.2.3.3.3.5.5.1.1.2.2v.3l.1.3v.8l-.2.4v.3l-.2.3-.2.5-.3.4-.5 1-.4.6-.4.7-.2.4-.1.4-.2.4-.1.3v.3l-.1.3-.1.4-.1.7v2.6l.2.5.2 1v1.3l-.1.3-.1.3-.2.4-.2.5-.5.9-.3.5-.2.5-.2.4v.3l-.2.3v.5l-.1.5v1.1l.2.3.2.4.2.3.1.2.4.4.3.3.4.4.5.4.5.3.5.3.4.2.5.1.4.2h1l.4-.1.5-.1.6-.2h.2l.3-.1h.4l.2.2.2.2v.5l-.1.2-.2.2-.1.2-.3.4-1.1 1.3-.4.5-.6.7-.4.5-.3.6-.5.8-.5 1-1.1 2-.5.7-.2.4-.3.5-.3.3-.2.3-.3.3-.3.3-.3.2-.5.2-.4.1-.6.1h-1l-1.7.2h-1l-.5.2-.5.2-.2.1-.4.3-.2.3-.3.3-.2.4-.3.3-1 1.6-.5 1-.3.5-.2.5-.2.5-.2.6-.4 1.2-.2 1-.1.1v.1h.1l.2.2.1.1.1.2h.1l.1.4.3.9.1.6.6 1.7.1.3.2.7.1.5.1.2.4.7v.1l.3.4.1.2v.1l.1.2v.6l.1.2.1.4.1.3.1.3.2.2.1.2.2.1.1.2.1.1.2.1h.1v.2l-.2.3-.5.7-.4.6-.8 1-.6.9-.3.4-.2.5-.2.4-.3.7-.4.7-1.2 2.4-.3.7-.3.8-.2.7-.2.7-.2.8v.4l-.1.4v1.6l.1.3v.2l.2.2v.1l.2.2.2.1.3.1h.2l.5.2h.5l.5.3h.3l.7.4.1.1.4.3.5.3.2.2.4.5.3.2.2.2.3.1.7.4.3.1.1.2.2.1.2.2v.3l.1.3v.6l-.1.3v.2l-.2.2-.2.7-.2.2v.2l-.3.3-.6.7-.2.3-.2.4-.2.3-.4.9-.2.5-.2.4-.3.7-.2.5v.2l-.3.4-.1.2-.4.4v.2l-.1.1-.1.3-.2 1-.2.7-.2.5-.3.9v.3l-.1.3-.1 1-.1.3-.2.8-.1.7v.2l-.2.4-.1.2-.2.3-.1.2-.3.4-.5.7-.1.2v.3l-.1.3-.1.4-.2.4-.3.3-.3.4-.4.3-.4.2-.4.3-.5.1h-1.4l-.4-.1-.4-.2-.9-.4h-.2l-.4-.2h-.3l-1-.3h-.3l-.4-.3-.7-.4-.4-.2-.4-.2h-.5l-.3-.1h-1.3l-1 .2h-.9l-.3-.2-.3-.2-.8-1-.4-.5-.3-.4-.3-.4-.1-.3-.2-.3-.2-.4-.1-.5-.1-.3-.1-.1-.2-.1v-.1l-.3-.2-.2-.1-.4-.2h-.4l-.6-.2h-.9l-.7-.6-.5-.5-1.3-1.4-1.1-1.3-.4-.4-.4-.5v-.2l-.2-.2-.1-.2v-4.9l-.1-.2v-.3l-.2-.6-.2-.8-.1-.3v-1.2l.2-.7.2-.8v-1.1l-.1-.3-.2-.3-.2-.2-.2-.2-.2-.1-.2-.2-.4-.3-.6-.4-1.6-1-.5-.2-1.4-1-.4-.3-1.2-1-.5-.3-.5-.3-1.4-1-1-.6-.5-.2-.3-.2h-.2l-.5-1-1-2-.3-.6-.4-.7-.3-.4-.8-1-.9-1.2-.6-.8-.8-1-.8-.9-.2-.1v-.2h-.3l-.2-.2h-.3l-.2-.1h-.7l-.4-.2-1-.2-.4-.1-.4-.2-.5-.1-.7-.3-.7-.3-2-.9-.3-.1h-.1l-.2-.1H259l-.2.2-.4.2-.5.3-.3.2-.7.6-.3.1-.3.1h-.7l-.8-.2h-1.2l-.1.1h-.2v.2h-.2v.2l-.2.1v.2l-.1.3-.3.8v.4l-.2.3-.1.2-.2.3-.3.2-.6.6-.3.3-.3.3-.4.5-.5.7-.5.6-.2.2-1 1-1.4 1.3-.3.3-.2.3-.1.2-.2.3v.4l-.1.2.1.2v.3l-.1.2-.2.1-.2.2-.3.2-.5.2-.6.2-.6.2-1.1.3-.4.1-.3.2-.7.3-.5.3h-.3l-.3.1-.3.1H237l-.4.1h-.2l-.4.1h-.1l-.2.2h-.2v.2h-.1l-.2.3v.2l-.2.6-.1.2-.1.2-.2.2-.2.3-.2.3-.4.5h-.1v.1h-.1l-.2-.3-.2-.3-.3-.4-.5-.6-.3-.3-.5-.5-.4-.4-.4-.3-.3-.2-.5-.3-.6-.3-.3-.2-.4-.1-.4-.2-.5-.1-1.2-.3h-.4l-.2-.2h-.1l-.1-.1v-.2l-.1-.1v-.8l.4-1.3v-.4l.1-.4v-.7l-.1-.1-.1-.2-.1-.3-.3-.4-.7-1.1-.2-.3-.2-.3v-.3l-.1-.2v-.2l-.1-.3v-.5l.1-.4.1-.3.4-1v-.6l.1-.2v-.6l.1-.6v-.7l-.3-.2h-.1l-.2-.1-.6-.1h-.2l-.2-.1h-.1l-.2-.2-.3-.2-.2-.1-.1-.1-.1-.2-.1-.2-.3-.5v-.2l-.2-.1-.1-.2-.1-.1h-.3l-.2.1-.2.2-.3.2-.4.5-.3.2-.1.3-.2.3-.2.3-.6.9-.2.4-.2.2-.2.3-.2.3-.3.3-.2.2-.3.3-.4.4-.2.2-.3.2h-.3l-.1.2h-.3l-.1.1h-.7l-.5-.2-.4-.2-1-.7-.3-.2-.4-.1h-.1l-.3-.2h-.4l-1 .2h-1.7l-.2-.1h-1l-1.3.3h-1.7l-.5-.1-.5-.1-1-.4-.4-.1h-.4l-.7-.1h-.2l-.2-.1-.7-.2h-.3l-.3-.1h-.7l-.3.1-.3.1-.2.2-.4.1-1 .7-.4.2-.3.2-.4.2-.4.1h-1.3v-.1l-.3-.2-.3-.3-.1-.2-.2-.3-.2-.2-.2-.4v-.3l-.2-.4-.1-.3-.1-.3-.1-.6v-.4l-.1-.4.2-.1.7-.4.2-.2.3-.1.3-.3.1-.1.2-.2v-.1l.2-.2v-1l-.2-.1-.2-.2-.2-.2h-.5l-.9-.1h-.2l-.3-.1-.7-.4h-.4l-.3-.2h-2.2l-.6.1h-1.5l-.4-.1-.5-.2-.4-.1-.3-.1-.2-.1-.3-.3-.2-.3h-.1l-.2-.4-.2-.2-.2-.4-.3-.6-.2-.4-.3-.7-.6-1.4-.2-.6-.3-.6-.3-.5-.3-.4-.7-.8-1-1-.2-.4-.2-.2v-1.3l-.1-.1-.1-.2-.1-.1-.5-.6-.5-.7-.5-.5-.1-.1-.3-.3-.2-.2-.4-.3-.4-.3-.4-.3-.6-.3-.5-.3-.4-.1-.4-.2h-.3l-1.5-.5-.4-.1-.8-.3-1.4-.5-2.7-1-.4-.2-.7-.2-.3-.1-.4-.1h-.3l-.5-.1h-.6l-.3-.1h-.3l-.2-.1-.4-.2-.3-.2-.2-.3-.5-.5h-.2l-.3-.3-.3-.2-.5-.1-.4-.1h-.2l-.7-.2H156l-.5.1h-.2l-.3.2h-.3l-.4.3-.2.1-1.3.8-1.1.6h-.2l-.2.2v.1l-.2.2-.3.4h-.1l-.1.2-.7.4-.2.1h-.6l-1-.2-.8-.2h-.4l-.3-.1h-.8l-.3.1-.1.1-.2.1v.1l-.2.3-.1.2v.4l.1 1.5v.7l-.2.3-.2.4-.2.4-.1.2-.3.5-.8 1-.2.2-.3.5-.2.3-.1.2-.2.2-.1.1-.2.2h-.2l-.1.2-.3.1h-.2l-.1.1h-.6l-.1-.2-.2-.1-.1-.2-.2-.1-.1-.3-.2-.2v-.2l-.2-.3-.2-.6-.1-.2-.1-.1-.1-.2h-.1l-.1-.1h-.5l-.3.2-2 1.6-.4.3-.6.4-.3.2-.6.4-.4.2h-.3l-.8-.2h-.4l-.2-.1h-.4v.2l.3.2v.2h.1v.2h-.2l-.5.2-.6.1h-.3v-.1l-.2-1.8v-.3l-.1-.1h-.1l-.1.1h-.5l-.1-.1h-.1l-.2-.2-.5-.5-.1-.2-.2-.2-.2-.1h-.2l-.3-.1h-2.9l-.3-.1-.7-.2h-.6l-.2.1-.1.1-.5.4-.1.1-.2.1h-.2l-.1.1h-.3l-1.3.1h-1.7l-.2-.1-1.6-.5h-.3l-.5-.2-.5-.3-.4-.2-.7-.4-1.5-.8-1.2-.7-.4-.2-.6-.3-1.5-.6h-.4v.3l1 3 .5 1.3.1.4.1.4v.2l.1.4v2.5l-.1.4-.1.4-.2.7-.2.6-.5 1.1-.2.5-.1.4-.2.4-.2.3-.3.4-.3.3-.2.3-.2.3-.5.8-.2.3v.1l-.1.3v1l-.2.5v1l.2.3.2.3.5.9.3.4.2.4.3.7.2.5.3.5.5.8.2.4.4.7.6 1.4.1.3.2.2.1.2.2.3.2.2.2.2.3.1.3.2.3.1.4.2.3.1h.1l.2.2.2.2.1.2.1.1.1.2v.3l.1.3v.5l-.1.1v.2h-.1l-.2.2-.3.2-.1.1-.1.1-.1.2v.2l-.3.6v.2l-.2.2-.2.2-.2.2-.5.3-.2.2-.3.2-.2.3-.2.3-.2.4-.3.7-.2.2-.2.4-.2.2-.2.3-.2.1-.2.2-.1.1-.3.2-.2.1-.6.3-.3.2-.3.2-.4.3-.3.2-.3.1-.3.2-.4.2-.4.2h-.3l-.4.1h-2.9l-.9-.2h-.5l-.4-.1H98l-.4.1-.9.2-2.4.7-.5.1-.3.1H93l-.4.1H92l-.3-.2-.4-.2-.2-.2-.2-.2-.3-.3-.4-.4-.2-.3-.2-.3-.1-.3-.2-.4v-2.6l.1-.5.2-1.1.1-.6v-2.2l-.2-.4-.4-1.5-.1-.5-.1-.6-.2-.8v-.3l-.1-.5-.1-.4-.1-.3h-.1v-.2h.4l.2-.1.3-.1.2-.1.3-.2.5-.3.5-.3.2-.2.3-.3.2-.1.1-.2.2-.3.2-.3.2-.6.1-.2.1-.2.2-.1.3-.3.2-.2.4-.3.3-.3.2-.2.5-.5.2-.3v-.8h-.1l-.1-.1-.2-.2-.3-.1-.2-.1-.3-.1h-.3l-.2-.1h-.4l-.3-.1H89l-1.7-.1h-1l-.4-.1-.2-.1-1-.3h-1.1l-.8.1H82l-.1-.1h-.1v-.2l-.1-.1v-1l.1-1v-1.3l-.2-.3-.4-.7-.2-.3-.2-.2-.2-.3-.1-.1-.2-.2-.3-.1-.2-.1h-1.3l-.7.1H77l-.4-.1-1-.4-.5-.2-1-.4-.6-.3-.5-.3-.3-.2-.3-.2-.5-.4-.3-.3-.1-.1-.2-.2-.1-.3-.2-.2-.1-.2-.1-.3v-.2l-.1-.2v-.2l-.1-.2v-.4l.2-.3.2-.2.3-.3 1.2-1 .6-.5.6-.5.8-.7.4-.4.5-.5.2-.3.4-.4.2-.3.2-.2.2-.4.1-.3.2-.4v-.5l.1-.3v-1.2l-.1-.2v-.1l-.2-.3-.2-.3-.2-.3-.6-.5-.1-.2-.1-.2-.1-.1v-.3l-.2-.3v-.7h-.1l-.3.1-.5.2-.4.1-.4.2-.5.2-.3.2-.4.2-.4.2-.4.3-.4.3-.4.3-.3.2-.7.7-.3.3-.3.2-.4.2-.3.1h-.2l-.4.1h-1.2l-.3.1H66l-.2.2h-.4l-.3.2-.3.2-.2.2-.2.2-.2.2v.1l-.4.6-.2.3-.1.1-.2.2-.2.2-.2.1-.4.2-.5.1h-.2l-.3.1H61l-.1-.2h-.1l-.2-.2v-.2l-.1-.1v-.4l.2-.5v-.9l-.2-.1-.1-.2-.3-.1h-2.4l-.9.2-5.2 1-4.9.7-1.7.3-.6.2h-.6l-.6.2-.5.2-.6.2-.5.3-.6.3-.5.3-1.5 1-.5.2-.5.2-.4.2H37L34.4-82l-1.6-1-1.6-1.1L27-87l-1-.7-.5-.3-.5-.4-.4-.3-.4-.3-.3-.3-.2-.3v-.5h.2l.2-.2.1-.1 1-.6.4-.2v-.1H24l-.1-.2h-.2v-.2l-.2-.1v-1.1l.2-.3.2-.2.1-.2 1-1 .2-.4.3-.3v-.1l.2-.3.1-.2V-97h-.2v-.1l9.6-1.4h.1v.1l.3.6.1.2.1.1v.1l.2.1.1.1h.8l.3-.2.5-.3.4-.1.8-.3.3-.2.9-.2h.4l.7-.3.3-.1.1-.1h.1l.2-.2.1-.2v-.6l-.2-.2v-.2l-.8-1.2-.4-.7-.4-.8-.1-.4-.1-.2.2-.1.2-.1.3-.2.2-.2.4-.4.2-.2.3-.2.4-.1h.7l.3.2h.2l.2.2.3.2 1 .7.2.2h.3l.1.1.2.1h.7l.3-.3.3-.3.3-.3.3-.3.2-.4.8-1 .2-.3.1-.1.2-.2h.1l.2-.2h.6l.2.2.2.2.6.5.1.1.1.1h.7l.2-.2v-.1l.1-.2v-1l-.2-.4-.2-.3-.4-.6-.4-.7-1-1.5-.1-.2.3.1.3.2 1.1 1 .4.2.4.3.5.2h.3l.5.1h.7l.2-.1h.2l.3-.2.4-.2.4-.2.3-.2.8-.5.4-.4.6-.4.5-.5.5-.4.4-.3.2-.2.3-.4.2-.2.2-.4.2-.4.2-.2v-.3l.1-.2v-.3l.1-.3v-.7l-.1-.4-.1-.3-.3-.6v-.2l-.4-.5-.8-1.3-.3-.4-.1-.4-.2-.4v-.3l-.1-.2v-1l-.2-.4v-.5l-.4-1.3-.1-.6v-.5l-.1-.6-.1-1.4v-.7l.2-.3v-.2l.4-.5.2-.3.2-.2.3-.1.2-.2.2-.3.2-.3.1-.7.1-.1v-.1l.1-.2.2-.1h.1v-.1l-.1-.1-1.1-.6-.5-.4-.3-.2-.2-.2-.3-.4-.4-.4-.1-.2-.2-.2-.1-.3-.3-.6-.3-.6-.3-.8-.3-.7-1-2.6-.7-2-.4-1.2-1.5-4.2.4-.2 2.4-1.1 2.2-1.2 1-.4.5-.4.4-.2.3-.2.2-.2.1-.2.1-.3v-1.1l-.2-.9v-.5l-.1-.2v-.5l-.3-.8v-.2l-.1-.4v-.9l.1-.6v-.3l.1-.3v-1.5l.1-.2.4-.8.2.1h.8l.4-.1.4-.1.7-.2.2-.1.4-.2.6-.3.4-.1.8-.3.7-.3.3-.1.3-.1h.3l.8-.2 1.2-.1h1.2l.2.1.2.1h.1l.6.4h.6l.5-1 .2-.1.1-.2h.7l.4.2h2.6l.2.1h.4l.3-.2v-.3l.1-.2v-.2l.1-.3.2-.2h.1l.3-.3.2-.1.3-.2.4-.2 1-.5 1-.4 1.2-.5 1.5-.7.5-.2.8-.2.3-.2.3-.1.2-.1.1-.1.1-.1.1-.1.2-.2v-.3l.1-.2v-1.1l-.1-.5-.2-.7v-.4l-.1-.5v-.8l.1-.4.2-.4.1-.2.1-.2.3-.5.3-.3.2-.3.3-.3.3-.3.3-.3.5-.3.5-.3.6-.3.5-.2.6-.2 1-.3 1-.1.6-.1 1.5-.3h.4l1-.2h1.3l.2-.2.1-.1.1-.2.1-.2v-.2l.1-.2v-.4l.1-.5v-1.7l-.2-.6v-.5l-.2-.5v-.3l-.3-.6h-.2l-.2-.2-.1-.1v-.1l-.1-.2v-1l.1-.2.3-1 .2-.5.2-.7.1-1 .1-.4v-.8l-.1-.2-.1-.2h-.1l-.2-.2-.2-.1-.5-.2-.9-.4-.4-.1-.4-.2-.3-.2-1.2-.8-.2-.1-.9-.5-.3-.2-.3-.2v-.1l-.1-.1v-.1h-.2l-1.1-1.1-.5-.5-.5-.4-.6-.4-.5-.3-.5-.3-.6-.3H86l-.6-.1H85l-.6.2-.6.2-.5.3-.6.2-.5.3-1 .6-1.1.6-1 .5-.6.4-.2.2H78l-.2.2h-.4l-.3.1h-1.3l-.3-.2h-.2l-.2-.1v-.1l-.2-.1-.1-.1v-.1l-.1-.1-.1-.2v-.1l-.1-.4-.1-.5v-.6l-.1-.3-.1-.2v-.2l-.2-.2-.1-.1-.2-.2-.2-.2-1-.9-.4-.3-.3-.2-.3-.1-.2-.1-.2-.1-.4-.2h-.4l-.5-.2h-.4l-.4-.1h-.7l-.6-.1h-5l-.5-.1-.5-.2-.5-.1-.6-.3-1.5-.6-.6-.2-.3-.1-.5-.1-.4-.1-.7-.1h-.2l-.5-1.1-.1-.4-.2-.4-.2-.5-.2-.8-.2-.5v-.2l-.2-.2-.2-.2-.1-.2-.2-.2-.2-.2-.2-.2-.4-.3-.2-.1-.2-.1-1-.5-.2-.1-.2-.2h-.1l-.1-.3-.1-.2v-.5l.2-.3.2-.3.2-.3.3-.3.8-1 2.6-3 2.2-2.5.2-.2.3-.4.1-.2.2-.3v-.2l.2-.3v-.7l.1-.2v-.1l.1-.2.1-.2h.1l.5-.4.6-.5.4-.3.3-.3h.3l.2-.2h.6l.4.2h.5l.2-.1.2-.2.2-.2h.1l.3-.4.4-.6.2-.4.2-.2.3-.3.2-.1.2-.1.2-.1h.2l.2-.1h.2l.2-.1h1.1l.6.1.6.1.6.2 2 .6.8.2.3.1.2.1.2.1.2.1.2.2v.1l.1.2v1.8l.2.2v.1l.2.2.1.1.2.1.2.2.7.4.3.1.2.1h.5l.1-.1.2-.1v-1l.2-.1v-.1l.2-.1h.7l.4.3.3.2h.2l.1.1h.4l.2-.1.2-.2h.5l.3.4.1.2.2.3v.3l.4 1v.3l.1.5v.1l.1.1.1.1.1.1.1.1.3.2.3.1h.2l.1.1h.5l.2-.1v-.1l.4-.7.2-.2.1-.1.1-.2h.1l.2-.2h.3l.4-.1h1.2l.6-.2h1.4l.2.1.3.2.2.1h.4l.1-.2.2-.3v-.3l.1-.1v-.1l-.1-.2-.1-.3v-1l.1-.3.2-.4.2-.4.5-.7.2-.4.2-.4.2-.5.1-.5.1-.5.2-1 .2-2 .1-.4.1-.6v-.2l.2-.4.2-.3.2-.3.2-.2.4-.1.5-.2.5-.2h.2l.1-.1h.4l.4-.1h2.6l1.1.2h.8l.5.1h1.2l.2-.1.3-.1h.1l.3-.2.2-.2.1-.2.7-1 .4-.8.5-1 .2-.3.3-.3v-.1h.1l.4-.2 1.4-.4 1-.2 2.3-.7h.5l.3-.1.4-.1h2.7l1.7.3h1.7l.4-.2 1.5-.3.9-.2h.3l.6-.2.8-.4.8-.3 1-.4.7-.4 1-.4.4-.2.7-.3.5-.2h.2l.2.4.6 1.2.4 1 .2.4.8 1.3.1.2.2.2h.1l.2.2.2.1h.2l.3.2h.4l.3.1 1.6.3 1 .2h.4l.5.1.6.2.3.1.3.2h.2l.2.2.3.2.3.3v.2l.1.1v.7l-.1.2-.1.3-.2.4-.2.4-.4.8-.3.6-.7 1-2.3 3.8-.4.6-.3.4-.3.5-.3.2.2.1h.5l.5-.2h.4l.6-.3.3-.2h.2l.3-.3.2-.1.2-.2.1-.2.2-.2.2-.2.3-.4.2-.3.1-.3.2-.5.3-.6.3-1 .2-.4.4-1.6.2-.5.2-.5.1-.3.2-.3.2-.3.2-.3.2-.2.2-.2.3-.2.3-.3.6-.5.5-.3.7-.4 2.1-1.3.8-.4.7-.5.4-.3.3-.3.4-.3.3-.3.3-.4.3-.5.2-.4.2-.6.2-.4.1-.2.2-.2.1-.2.2-.2.2-.2.2-.1.2-.2.2-.1.2-.1.3-.1.2-.1.3-.1h.3l.2-.1h1l.7.1.5.1.7.2 1.4.3.6.2 1.4.4h.2l.2.1.4.1h1.1l.3-.1.2-.2.3-.1.3-.3.4-.4.6-.5.9-1 1-1 .8-1 1.2-1.4.8-.8.5-.6.3-.2.3-.2.3-.2.4-.2.3-.2.4-.2.7-.4.8-.3.8-.3.8-.4 1.7-.6.2.3.3.5.3.5.2.5.2.3.1.5.3 1 .3 1 .2.5v.2l.2.3.1.3.2.3.2.3.2.3v.1l.2.1.1.1.2.1h.2l.1.1h.5l.6.2.2.1h.1l.3.3.3.3.4.3.3.3.2.3.2.3.2.3v.2l.1.3.3.9v.2l.1.3.1.2.1.2.2.2.1.2.2.1.4.3.1.1.1.1.1.2.2.2v1l-.1.2v.4l.1.4v.3l.1.2v.6l-.1.2-.2.5-.1.4v1.5l.1.2.1.2h1.7l.4-.1h.4l.4-.2h.4l1.2-.4.5-.2h.4l.3-.1h2.7l1.8-.2h1.9l.5-.1h.6l.5-.1.4-.1.3-.1.3-.1.2-.2.5-.2.3-.2.7-.5.4-.2 1.1-.7.4-.2.3-.1.4-.2 1-.4.5-.1.2-.1.2-.1.3-.3.3-.2 1-1 .4-.3.3-.3.5-.3.5-.3.3-.1.4-.2.5-.2.4-.2h.3l.3-.1h.3l.3-.1h1.4l.3.2.4.1.5.2 1 .5.4.2h.2l.3.1h1.2l.3-.2h.3l.9-.5.5-.2.4-.1.4-.2.6-.1.4-.1h.2l.8-.2h.3l.2-.1.2-.1.3-.1.3-.2 1.2-.8.3-.3.2-.2.1-.2.2-.1v-.3l.2-.4.2-1 .1-.3.2-.4.1-.3.3-.4.1-.3.3-.3.2-.3.4-.4 1.1-1 .3-.2.3-.3.3-.2.3-.2.6-.2.5-.2 2.3-.7h.4l.4-.2h.7l.4-.1h3.7l.4.1.3.1h.2l.2.2.2-.1h.2l.3-.2h.9l.5-.1h.5l1-.3h1.2l.1-.1h.2l.3-.2.4-.2.3-.1.5-.3.8-.5h.2l.2-.2.2-.2.3-.3.4-.4.4-.5.2-.3h.1l.3-.3.6-.5.8-.6.9-.6 1.3-.9.2.6.3 1 .6 2.3.2.5.2.5v.3l.2.2.1.2.1.2.2.1.1.1.2.1h1.2l1.3-.5.6-.2h.8v.2l.2.2v1.7l.1.2v1.2l.2.3.3.2.3.2.3.1.5.1h1.1l.5-.2.6-.1.5-.2 1.1-.4.6-.2 1-.4 1-.4.7-.3.2-.1.3-.2.3-.2.9-.6.3-.2.2-.1.3-.1.2-.1.2-.1h.4l.1.1.2.1.1.3.2.3.5 1 .2.3.2.4 1 1.8.5.8.4.7.2.5.2.5.3.6.1.4.6 1.5.2.6.2.5.4 1.1.3.5v.2h.1l1-.2 3-.8 1.4-.4 1-.3 1-.3 1.2-.5.4-.1.3-.1h.3l.5-.1h.4l.5.1.4.1.5.1.5.2.4.2.4.2.4.3.4.2.3.4.3.3.3.3.2.4.5 1 .2.4.3.3.3.2h1.7l.4-.2.5-.2.2-.1.4-.2.6-.3.5-.4.9-.6.6-.4.6-.3 1-.5.4-.2.4-.2.4-.2.2-.2.2-.1.2-.2.2-.3.2-.2v-.1l.1-.2.2-.3v-1.5l-.2-.3v-.1l-.1-.2-.2-.3-.1-.2-.1-.2v-.6l-.2-1.5v-1.1l-.2-.6-.3-1.9-.1-.9-.1-.6-.1-1v-3l.1-.5.1-.3.2-.4.2-.3.1-.2.1-.2.2-.2.3-.2.3-.2.4-.2.5-.2.3-.2h.4l.3-.2h2.3l.6.1h.6l1.8.4h1l1 .2h1.1"/></defs><g clip-path="url(#p605ce4ce5a)"><use xlink:href="#m48ed20ff6e" y="278.7" fill="#f4f4e2" stroke="#f4f4e2"/></g></g></g></g><defs><clipPath id="p605ce4ce5a"><path d="M7.2 7.2h357.1v264.3H7.2z"/></clipPath></defs></svg>