<svg xmlns="http://www.w3.org/2000/svg" xmlns:xlink="http://www.w3.org/1999/xlink" width="272.8" height="374" viewBox="0 0 204.6 280.5"><defs><style>*{stroke-linejoin:round;stroke-linecap:butt}</style></defs><g id="figure_1"><path id="patch_1" fill="none" d="M0 280.5h204.6V0H0z"/><g id="axes_1"><g id="PatchCollection_1"><defs><path id="m829dadc684" stroke="#f4f4e2" d="m143-257-.1.4-.2.5-.1.4-.3.4-.6 1.2-.2.3-.1.3-.1.4-.1.4-.1.4v.9l.2.4.2.4.1.3.8 1.8.2.4.4.7.7 1.2.1.3.2.3v.3l.2.3v2.4l-.1.3-.1.4-.3.8-.3 1-.3.8-.2.4-.2.3-.2.4-.3.6-.2.3-.4.6-.3.4-1.5 2.2-.5.6-.3.4-.2.5-.2.4-.2.4-.2.3-.1.4-.2.4v.4l-.2.3v.8l.1.2.1.2.2.2.1.2.7.6.8.8.2.2.2.2.3.2.2.2.3.1h.2l.2.1.6.1.6.2.4.1h.2l.3.1h.5l.8.1 1 .1h.4l.3.1.3.1.4.2.7.3 1 .4h.2l.3.2h.2l.7.1.5.2.6.1.4.2h.3l.1.2.2.1.2.3.2-.2.3-.1v-.1l.2-.2.1-.2.2-.3.3-1 .3-.8.2-.3v-.2l.1-.1.2-.2.2-.1.5-.3.2-.1.3-.2.6-.1.6-.1.5-.1h.5l.4-.2h1.7l.6.5.2.2.2.3v.3l.1.2.2.9v.4l.1.2v.2l.3.4v.2l.2.1v.1l.2.1.1.1h.1l.1.1h1.5l.3-.2.4-.1.7-.3 1-.5 1.1-.6.7-.4.4-.1.5-.2.4-.1h1.4l.4.2.6.3.9.3.5.3.4.2.7.3.6.4.5.3.6.4.4.3.3.2.4.4.4.4.4.5.9 1.2.3.3v.2l.4.3.3.3.7.5.2.2.2.2.5.3.2.1v.2h.2v.3l.1.2v1.7l.1.3.2.3.2.4.2.3.2.4.3.4.5.7 1.4 1.7.3.5.2.3.1.2.1.3.2.4.7 1.5.4 1 .2.4.2.2.2.2.2.2h.2l.2.1.2.1h.2l-.5.3-.4.2-.7.3-.4.1-.7.2h-.2l-.2.1-.1.1-.4.2-.3.3-.3.2-.2.2-.1.2-.2.1-.4.6-2.7 4h-.1l-.3.3-.6 1-.2.2-.3.3-.3.3-.3.3-.4.3-.1.1-.3.2-.2.2-.5.3h-.3l-.3.2-.2.2h-.3l-.3.1h-.4l-.3.1h-3.4l-.3-.2-1-.3-.8-.3-.4-.2-.2-.1-.2-.2-.4-.2-.2-.3-.6-.4-.5-.6-.2-.2-.4-.3-.2-.1-.2-.1h-.7l-.2.2h-.1l-.1.2-.1.3v.9l.1.2.1.2.5.8.5.8.2.4.2.3.3.4.4.4.3.3.4.4.4.3.9.8.3.3.3.3.4.4.3.4.3.3.2.3.2.2v.2l.1.1.2.3.2.3.1.3.2.4.2.4v.4l.2.3v.5l.1.4v1.3l-.1.3-.1.3-.1.4-.4 1v.3l-.2.3-.2.3-.2.4-.3.3-.3.3-.4.3-.4.2h-.1l-.4.2h-.7l-.3-.1-.3-.1-.2-.2-.3-.1-.3-.2-.6-.5-.3-.2-.3-.1-.3-.2h-1.4l-.1-.1h-.2l-.2-.2-.3-.2-.2-.2-.2-.2-.3-.2-.4-.5-.5-.6-.1-.1-.2-.2-.3-.1-.1-.1h-.4l-.2.2-.1.1-.1.2v.2l-.1.2-.1.3-.1.5v.7l-.2 1v.3l-.1.4-.2.3-.3.3-.2.2-.4.3-.2.2-.6.4-.3.2-.3.3-.1.1-.2.3-.1.3-.1.3v.9l.1.4.1.1v.1h.1v.2h.3l.6-.1h.8l.6-.1h1l.6.1h.2l.3.1h.2l.1.1h.1l.2.3h.1l.1.2.2.3.2.3.3.6.6 1.3.5 1 .2.3.3.5.8 1.3.5 1 .2.2.1.2.2.2.2.3.3.3.4.4.8.6.4.3.1.2.3.3.2.2v.2l.2.2v.2l.1.3v.9l-.4 1.2v.3l-.1.4v2.6l-.1.3v.3l-.2.3-.4 1.1-.2.5-.1.5-.3 1-.1.5v.4l-.1.4v.9l.2.3.1.2.3.5.2.3.7 1 .1.3.4.6.2.4.5 1 .2.2.1.3.1.3.1.3.1.2v1.1l-.1.3-.2.3-.3.2-.6.4-.3.3-.3.3-.2.2-.1.3v1l.2.5.2.3.2.6.2.4-1.2.4-1.4.4-1 .3-.2.1h-.4l-.3.2h-2.2l-.5-.1-.3-.2h-.3l-1-.5-.4-.2-.4-.1-.3-.1-.4-.1-.6-.1h-.4l-1.6-.2h-.3l-.4-.1-.4-.1-.3-.2-.6-.2-.7-.3-.5-.4-.5-.3-.4-.2-.3-.2-1.3-1-.3-.2-.2-.2-.3-.1-.3-.2h-.2l-.3-.1h-.9l-.4.2-.4.2-.3.2-.2.3-.3.3-.2.4-.3.4-.4.5-.2.5-.3.5-.2.4-.2.4-.3.8v.1l-.1.1h-.1v.6l.1.1.1.2.2.1.2.2h.2l.4.3h.2v.1l.2.2v.8l-.2.5h.4l.3.2.4.1.2.2.2.1.3.2.2.2.2.2.3.2.1.3.1.3.1.3v1.7l.1.5v.4l.1.5v.4l.2.5v.4l.1.4.2.3.3 1.2.1.3v.4l.1.4v.3l-.1.4-.2.3-.2.4-.2.2-.3.3-.2.2-.2.2-.3.2-.3.1-.3.1-.3.2-.5.1-1 .3-.3.1-.3.2h-.2l-.1.2-.2.1v.4l.2.1.7.5.4.4.4.4.5.6.3.3.3.2.2.2.3.2.2.1.4.2h1.3l.4-.2.4-.2 1-.5.4-.2h.3l.3-.2h.9l.4.1.3.2 1.5.6.5.2.5.2.5.2h.3l.3.1h1l.3-.2.2-.2.2-.3.1-.2v-.3l.2-.3v-1.1l-.1-.2v-.3l-.3-.7v-.2l-.2-.8v-1.1l.1-.3v-.2l.2-.3.3-.7v-1.3l-.2-.2-.2-.3-.2-.2-.1-.2-.2-.2-.3-.1-.2-.2-.5-.2-.3-.2h-.1v-.2h-.2v-.3l-.1-.2v-.8l.1-.2.1-.2.2-.1.3-.2h.7l.2.2.2.2.8.5.2.2.3.2.2.3.2.2.4.6.2.2.2.2.2.2.1.1.2.2.5.3.2.1.2.2.5.4.6.6.4.3.2.3.2.4.2.3.3.7.1.3.2.2.3.1h.7l.8-.4.5-.1h.3l.3-.1h1.2l.3.2.3.1.1.1h.1v.3l-.3.6-.1.3-.2.4v.4l-.2.4v.8l-.1.3v1.2l.1.2.1.2v.1l.2.1h.1l.2.1h.6v-.2h.2l.3-.3.2-.1h.1l.2-.1h.3l.1.1.2.1.1.2.2.2.2.3v.2l.1.2.1.3v1.2l-.1.3-.1.2-.1.3-.2.4-.2.4-.3.4-.4.6-.3.5-.6.8-.6.8-.5.6-.5.5-.4.5-1.1 1-.9 1v.7l-.3.6v.3l-.2.6-.1.5-.1.3-.1.2-.1.2-.2.1v.7l.2.3 1.5 3.8 1.2 2.8 1.4 3.5v.1l.2.3.1.4.2.4.1.5.1.5v3.2l-.2 1-.8 6-.2 1.5-.2.9v.5l-.2.4v.4l-.2.4-.1.4-.2.2-.1.2-.2.1-.3.2h-1l-.4-.2-.4-.1-.4-.2-.3-.2-1-.7-.2-.2h-.2l-.2-.2h-.3l-.2-.1h-1.3l-.1.2-.1.1v.6l.2.3.1.2.7 1 1.5 2.3.8 1.3.7 1.2 1 1.6.8 1.2 2.1 3.7 3 4.8 1.4 2.5 2 3.4 5.9 9.9h-.3l-.6.1H179l-1.7-.1h-2.4l-.3.1H173l-.3-.1-.4-.1h-.2l-.3-.2-.4-.1-.7-.4-1-.5-.3-.2-.4-.2-.3-.2-.1-.1-.3-.3-.1-.1-.2-.2-.4-.4-.2-.4-.2-.2-.2-.2-.2-.1-.3-.2-.3-.2-.3-.1-.5-.2-.8-.2-.4-.1h-.2l-.2-.1h-.9l-.2.1h-.2l-.2.2h-.2l-.3.2v.1l-.3.2-.3.3-.2.2-.2.4-.6.8-.2.4-.2.2-.1.1-.2.2h-.1l-.3.2-.5.2-.6.3-.5.2-.4.1-.4.1-.3.1-1 .2-.3.1-.3.1-.6.3-.4.2-1 .3-.5.2-.2.1-.2.1-.2.2h-.2l-.1.2-.2.2v.1l-.2.2-.1.2-.1.2-.1.3-.1.2v.3l-.1.3v.8l-.1 1.1v4.1l-.2 3.3-.2 1.2v.5l-.1.7-.1.6-.2.7-.2.6-.1.7-.2.4-.1.4v.1h-.1v.1l-.2.3-.1.3-.2.3-.1.2-.2.2-.1.1-.2.2-.2.1-.1.1-.2.1-.2.2h-.3l-.2.1h-.2l-.2.1h-1.5l-1.3-.1-1.1-.1h-.4l-.3-.1-.4-.2-1.2-.4-.7-.3-.4-.1h-.2l-.1-.1h-1l-.2.1-.2.1-.2.1-.3.2-.2.1-.2.2-.2.1-.1.2-.1.1-.1.1-.2.3-.3.6v.2l-.2.2-.1.1-.2.2-.1.2-.2.1-.3.2h-.2l-.1.1h-.2l-.1.1h-.5l-.2-.1h-.2l-.3-.3-.4-.2-.2-.2-.2-.2-.2-.1-.2-.2-.2-.3-.3-.3-.3-.4v-.3l-.2-.1v-.3l-.1-.2v-.8l.1-.2.1-.1.1-.1.2-.1.1-.1.2-.1.2-.2 1-.4.2-.2.2-.1.2-.1v-.2h.1v-.2l.1-.1v-.1l.2-.7v-1.1l-.1-.3-.2-.3-.2-.4-.1-.2-.2-.3-.2-.2-.1-.2h-.1l-.3-.3-.3-.2h-3.2l-.2-.1-.1-.1-.1-.2-.1-.1v-.2h-.1v-.3l-.1-.6v-.3l-.1-.2v-.1l-.2-.3v-.1l-.3-.4-.2-.3-.3-.4-.6-.6-.2-.2-.2-.3v-.1l-.2-.3v-.5l.2-.2h.1l.3-.2h.4l.4-.2h1l.5-.1.4-.1.2-.1h.2l.2-.1.1-.1.2-.2v-.6l-.1-.2-.2-.4-.2-.2-.2-.3-.5-.7L126-42l-.5-.7-.5-.6-1-1.5-.4-.5-.4-.7-.3-.5-.2-.4-.3-.5-.2-.4-.1-.4-.2-.3-.2-.5-.3-.8-.2-.7-.1-.5-.2-.5-.1-.7-.3-1.4v-.2l-.1-.3-.1-.3-.1-.3-.1-.1-.1-.2-.3-.3-.5-.6v-.1h-.2v.1h-.2l-.3.1h-4.1V-57l-.2-.2-.1-.2-.1-.1-.2-.2-.3-.2-.4-.2-.5-.2h-.3l-.3-.1-.3-.1h-2.8l-.8.1-1.2.2-2.3.3-.7.1h-.4l-.3.1-.5.1-.8.2-1.3.4-1.1.3-.7.2h-.3l-.4.1-.5.1-1.6.3-1.8.3-.6.1h-2l-.6-.2-.5-.1-1.4-.4-.3-.1-.3-.2-.2-.2-.3-.4-.3-.4-.2-.4-.2-.3-.1-.2-.1-.3v-.3l-.1-.3v-.5l.2-.4.2-.4.2-.4.3-.4.3-.4 1-1 .2-.5.1-.3.2-.4.2-.4.1-.4.1-.5.4-1.5.1-.3.3-.6v-.4l.4-1.2.2-.8v-.4l.2-.3.6-1.5v-.4l.1-.3v-1.4l-.1-.3v-.3l-.4-1-.2-.3v-.2l-.1-.1v-1l-.1-.2v-.3l-.2-.3-.2-.4-.2-.4-.5-1-.2-.4-.1-.3-.2-.5v-.2l-.1-.2v-.1h-.6l-1.3.3h-.6l-.6.2-.9.2h-.6l-.4.1h-1.3l-.6-.2h-.5l-.3-.2-.3-.1-.3-.2-.3-.1-.2-.2v-.2l-.1-.1v-.8l.2-.3v-.4h-.3l-.3-.1H80l-.3-.1-.2-.1-.2-.1-.2-.2v-1.6l-.1-.3-.1-.3-.2-.5v-.1l-.1-.4v-.1l-.1-.1h-.1l-.1-.1h-.7l-.3.2-.3.2-.4.2-.4.3-.5.4-.2.1-.2.1h-.9l-.2-.1-.2-.2-.4-.4-.2-.3-.3-.4-.5-.8-.1-.1v-.2l-.1-.1v-1.1l.1-.3.1-.2v-.2l.2-.2.1-.1.2-.2v-.1h.1v-.1H73l-.2-.1h-.3l-.5-.1h-1l-.3.1h-.2l-.6.3h-.2l-.2.1h-1.7l-.3.1-.2.1-.6.4-.2.1-.3.2h-.8l-.7-.4h-.5l-.2-.2-.3-.2-.4-.3-.6-.3-.3-.2-.5-.2-1.3-.6h-.2l-.1-.2-.2-.1-.2-.1-.2-.2-.4-.4-.2-.2-.2-.1-.2-.1h-1l-.2.2h-.2l-.2.2-.3.2-.4.3-1.1 1H55l-.2.2-.3.2h-.2l-.2.2h-.4l-.1-.1h-.1l-.2-.2-.1-.2-.2-.2-.1-.4-.1-.2-.2-.5-.2-1v-.3l-.2-.4-.2-.5-.3-.5-.1-.3-.5-.7-.1-.3-.2-.4-.2-.4v-.3l-.2-.5v-.7l.2-1v-1.3l-.1-.1-.2.1v.2l-.9-1.5-.5-1-1-1.5-.3-.5-.1-.2-.2-.2-.3-.3-.2-.2-.2-.2-.2-.2-.4-.2-1-.7-.2-.1-.2-.2v-.1l-.2-.1-.2-.3v-.1l-.1-.3-.2-.3v-.4l-.1-.2v-1.3l.2-.4.5-1.8.1-.3.1-.2.1-.3.1-.1.2-.1v-.1l.2-.1.2-.1.2-.1h.1l-.3-.8-.3-.7-.2-.5-.2-.4-.3-.5-.3-.5-.2-.4-.3-.5-.3-.4-.3-.4-.3-.4-.3-.4-.4-.3-.3-.3-.3-.3-.3-.3-.6-.3-.2-.2-.2-.2v-.5l.1-.7v-.4l.1-.9v-1.4l-.1-.5-.2-.4v-.4l-.3-.3-.1-.3-.2-.2-.1-.2-1-1-.3-.3-.2-.1-.3-.3-.3-.1-.3-.2h-.4l-.4-.1h-1.4l-.4.2h-.2l-.3.2-.3.2h-.1l-.3.3h-.1l-.1.2-.1.2v.2h-.3l-.1-.1-.3-.2h-.5v-.2l-.1-.1v-.1l.1-.3.2-.1v-.1l-.4-.1h-.3l-.1-.1-.1-.1-.2-.3v-.3l-.1-.3v-1.3l.3-.9v-1.1l-.1-.1-.2-.4-.4-.8-.2-.3v-1.1l-.2-.6-.2-1v-.3l-.1-.4v-.3l-.1-.8v-.4h-.1l-.1-.2-.2-.2-.2-.2-.5-.3-.4-.3-.3-.4-.2-.1-.4-.5-1-1-.2-.2-.1-.3-.2-.3-.2-.3-.2-.6-.1-.3-.2-.3-.2-.3-.1-.2-.2-.2-.3-.3-.3-.3-.4-.3-.4-.3-1-.6-.4-.3-.5-.4-.8-.8-.4-.3-.5-.3-.3-.2-1.2-.7-.7-.4-.3-.2-.2-.2-.3-.2-.2-.2-.2-.3v-.2l-.2-.2v-.1l.1-.1.1-.2.1-.2.2-.1.1-.2.4-.4.4-.4.3-.3 1.7-1.5 1.2-1 .7-.7 1.4-1.2.4-.3.4-.3.4-.3.4-.3.4-.1h.1l.1-.1h.1l.6.4 1.2.9.6.3.9.7.6.5.4.2.3.2.3.1.3.1.4.1h.7l.3-.1h1.2l.5-.1h.4l.5-.1.4-.1 1-.2.4-.1.4-.1.4-.2.4-.1.4-.2.3-.2.1-.2.2-.2.2-.3v-.1l.2-.2.2-.2h.1l.2-.2h.4l.6-.2h.2l.5-.2h.2v-.1l.3-.2.2-.1.6-.6.3-.2.4-.2h.1l.3-.2h.4l.5-.2h.3l.7-.3.4-.2h.2l.2-.1v-.1l.4-.2.5-.5.6-.5.2-.2.1-.1.2-.2.3-.4.2-.3.1-.4.2-.3.1-.3.1-.3.2-.4v-.4l.2-.4v-.3l.1-.9v-.3l-.1-.2v-.2l-.1-.3-.1-.8v-.3l-.1-.3-.1-.4-.2-.6-.1-.3-.2-.4-.2-.3-.2-.2-.2-.3-.2-.1-.2-.2h-.3v-.1h-.5l-.2-.1h-.1l-.1-.2v-.1l-.1-.4-.2-.3v-.1l-.1-.2-.1-.1-.2-.3-.2-.1-.2-.2-1-.8-.2-.2-.3-.3-.2-.3-.2-.3-.2-.3-.2-.3v-.3l-.1-.2v-1l.1-.2.1-.2.1-.2.1-.3.4-.5.2-.4.3-.3.7-1 .1-.3v-2.7l-.1-.3-.2-.2-.1-.3-.3-.2-.4-.4-.2-.2-.3-.3-.2-.3-.1-.3v-1l.1-.9v-.5l.1-1.2v-5l.1-.4.2-.6v-.3l.1-.3.2-.4.6-1.2.2-.4.2-.9.2-.3.2-.4v-.1l.2-.3.3-.2.1-.1.2.4v.3h.2l.1-.2.6-1 .2-.3v-.3l.2-.2h3.3l.3.1.4.1h.3l.5.2h1.1l.3-.2.1-.2.2-.2v-.2l.2-.5.1-.4.3-.6.1-.3.1-.3.2-.2.1-.2.5-.6.6-.8.2-.3.2-.2.1-.2.2-.3v-.2l.1-.3v-2.8l.2-.3v-.2l.2-.3.2-.2.2-.1h.8l.2.1.2.2.5.4.4.4.2.1.7.6.2.1.3.3.1.2.2.2.2.4.1.3.2.3v.4l.1.5v.3l.1 1.3v.3l.1.5v.1l.2.4.1.3.2.3.2.3.2.1h.1l.2-.1v-.1l.3-.2.3-.2.1-.1.4-.3.3-.2.3-.2.6-.2 1.2-.6.3-.1.2-.2h.1l.2-.2.1-.1.7-.7.4-.5.4-.3.5-.4.4-.3.5-.3.4-.3 2-1.2.5-.3.5-.4.3-.2.6-.4.9-.8 1-.8.2-.2.2-.2.3-.1.3-.2.2-.1 1-.4.5-.2.2-.1h.1v-.3l-.2-.3-.5-.7-.2-.4-.3-.5-.1-.3-.1-.4v-.5l-.1-.4v-2.4l.1-.3.3-1 .2-.7v-.2l.2-.3.1-.2h.1l.2-.2.2-.1.3-.1h.6l.5.1.7.2h.6l.6-.3h.9l.3-.1h1.6l.5-.1h.4l.4-.2h.5l.4-.2.3-.2.2-.2.3-.2.1-.1.3-.3.2-.2.2-.2.1-.3.2-.2v-.2l.2-.3v-.3h.5l.6-.1h3.1l.5-.1.3-.1.3-.1.3-.1.3-.2.2-.2.1-.2.3-.4.3-.5.2-.5.4-.8.1-.3.2-.2.2-.3.3-.3.4-.2.3-.2.4-.1.4-.1.3-.1h.8l.3.1.5.1.2.1h1.4l.5.2h.5v-.2l.3-.5.1-.1.3-.3.3-.1 1.1-.7.6-.3h.3l.4-.3h.3l.4-.2 1-.2h.2l.3-.1h.8v-.8l-.1-.4v-.7l.2-.2.2-.3.4-.4.3-.3.3-.2.3-.3.3-.2.3-.1.3-.1h.2l.3-.1h1.2l.8.1h1.5l.2-.1.2-.1.2-.1 1.2-.8.3-.2.7-.4.4-.2.3-.2.3-.3.3-.2.4-.4.3-.3.2-.3.5-.6.5-.6.3-.4.3-.4.3-.3.2-.4.3-.4.2-.4.2-.5.2-.4.1-.4.2-.4v-.4l.2-.4v-.7l.2-.5v-.4l.1-.2.1-.2.1-.2.1-.2.3-.3.2-.3.2-.2h.2l.3-.2.3-.1.3-.1h.3l.4-.1h3.4l.4-.2.2-.1.6-.3h.2l.1-.1h.5l.2.1.4.2h.3l.2.1h1.3l.5.2h.4l.3.2 1 .4.2.1h.3l.1-.2.1-.2v-2.1l-.2-.3v-.5l-.1-.1v-.8l.2-.3h.8l.3.1.3.1.3.2.2.2.4.3.3.3.2.3.2.3.3.3.2.4.1.3.1.4v1"/></defs><g clip-path="url(#p15b829987d)"><use xlink:href="#m829dadc684" y="280.5" fill="#f4f4e2" stroke="#f4f4e2"/></g></g></g></g><defs><clipPath id="p15b829987d"><path d="M7.2 7.2h190.2v266.1H7.2z"/></clipPath></defs></svg>