<svg xmlns="http://www.w3.org/2000/svg" xmlns:xlink="http://www.w3.org/1999/xlink" width="260.3" height="374" viewBox="0 0 195.3 280.5"><defs><style>*{stroke-linejoin:round;stroke-linecap:butt}</style></defs><g id="figure_1"><path id="patch_1" fill="none" d="M0 280.5h195.3V0H0z"/><g id="axes_1"><g id="PatchCollection_1"><defs><path id="m9b30b36282" stroke="#f4f4e2" d="m135.9-261 1.3 2 .3.5.3.4.3.4.4.5.3.4.2.2.1.2h.1l.2.2.2.1.2.1.4.2h.3l.4.1 1 .2h.3l.9.2h1.1l.4-.2h1l.5.2.2.1.7.2.2.1.1.1h.2l.4.4.6.2.1.1.1.1.2.2.2.3.1.1h.1v.2h.6l.2.1h.5l.2.2h.2l.2.2v.6l-.1.3-.4.7-.2.2v.3l-.1.2v2.6l.1.3v.3l.1.3.1.2.1.3v.1l.2.1v.2h.2l.3.4.2.2.2.2.3.4.4.5 1 1.4.2.2.1.2.2.2h.1v.1l.2.1.2.1h.5l.2-.2.2-.1.2-.1 1-.8.4-.3.2-.1.2-.1.3-.2.4-.2 1-.3.3-.2h.3l.3-.3.5-.2.4-.3 1.7-1 .6-.5.4-.2.3-.3.2-.1.1-.2.3-.2.3-.3.3-.3.7-.9.2-.2.2-.2h.1v-.1h.1l.2-.2h.2l.3-.1h.1l.2-.1h.9l.3.1h.3l.1.2h.2l.3.2.2.2.2.2.2.2v.2l.1.2.1.3v.2l.1.1v.1h.1l.1.2h.2l.2.1h.1l.2.1h1.1l.2-.2h.2l.1-.1.3-.2.3-.2.2-.2.1-.1.2-.2.5-.5.1-.1h.2v-.1h.9l.3.2.2.2.2.1.2.2.2.2.2.2.2.2.2.3.2.4.1.1.1.2.1.2.2.2.1.1.3.3.1.1.2.2.2.3.1.2.1.1.1.2v.2l.1.2v1.6l.3.5v.7l-.2.3v.2l-.1.2-.1.2-.2.2-.2.2-.1.2h-.1l-.3.2-.1.2-.2.1-.2.2-.2.3-.7.9-.2.2v.1l-.7.7-.3.3v.1l-.2.2-.1.2v.1l-.1.1v.2l-.1.1v.6l.1.2.1.4.2.3.1.3.1.2.2.2.2.2.1.1.1.1.2.2.3.1.2.2.5.2.1.1h.2v.2l.2.1.1.1v.1l.1.1v.2l.1.1v.7l-.1.3v.1l-.1.1-.1.2-.2.1v.1l-.2.1-.4.3-.3.2-.1.1-.1.1-.2.2-.1.1-.2.3h-.1l-.2.2-.3.2-.4.3-.4.3-.5.4h-.1l-.1.2-.3.3h-.1l-.1.1-.2.1-.2.2-.3.1-.1.1-.3.1-.2.1-.4.2-.3.1h-.3l-.8.3-.8.3-.7.2h-.2l-.3.2h-.3l-.1.2h-.2l-.2.1-.2.2h-.2l-.1.2-.2.1-.3.3-.2.2-.2.2-.2.2-.2.3v.1l-.2.2v.3l-.1.2v.3l-.1.3v.9l.2.2v.2l.2.2v.1l.3.4.2.2.1.1.2.1.1.1h.3l.1-.2.2-.1.4-.5.2-.2.2-.2.2-.2.2-.3v-.1l.3-.6.3-.5.1-.2.1-.1.1-.2.1-.1.1-.1.2-.2.2-.2h.1l.2-.1h.2l.2-.1h.1l.2-.1h.9l.3.2h.3l1.2.4h.3l.4.2h1.2l.1-.1.2-.2.1-.1.1-.2h.1l.1.2.1.1.2.3.2.5.3.8.1.3v.2l.1.3v1.1l.1.3v.3l.1.5.2.9v.9l-.1.1-.1.2h-.1v.4l.2.2.2.2.1.1v.1l.2.1v.2l.1.1.1.3v.2l.1.2v.3l.1.2v1l-.1.2v.2l-.2.1v.1l-.2.2-.1.2-.2.1-.2.2h-.1l-.1.1-.5.3-.2.1-.1.1-.3.2-.4.4-.3.3-.3.2-.1.2-.3.2-.3.3-.3.2-.2.2h-.7l-.4.2h-.2l-.7.1h-.2l-.2.1-.2.1-.3.2h-.1l-.9.5-.1.1-.2.1v.1l-.5.5-.4.5-.2.2-.3.4v.2l-.3.3-.3.3-.2.2-.4.3-.5.4-.3.3h-.2l-.2.3-.2.1-.2.2-.4.5-.2.2-.2.3-.2.2v.1h-.1v.2l-.2.2-.2.4-.2.3-.3.3-.1.3-.2.2-.1.1-.3.3-.3.2-.3.2-.6.5-.3.3-.3.3-.8.6-.5.5-.4.3-.4.2-.2.2-.3.2-.2.1-.4.2-1 .4-.8.4-1 .5-.4.2h-.2l-.2.1h-.6l-.1-.1h-.1l-.2-.2-.2-.2-.2-.2-.1-.2-.3-.2-.6-.9-.2-.2h-.1l-.1-.2h-.1l-.1-.1h-.4l-.2.2h-.2l-.2.3-.5.4-.3.3-.2.1-.1.1-.2.2-.3.1-.2.2-.3.2-.4.1-.4.2-.4.1h-.2l-.3.1-.6.2-1 .2h-.3l-.2.1h-.2v.6l.2.1.4.5.2.2.1.3.2.2.1.2.1.2v.2l.2.2v.9l-.1.2-.1.2-.3.4-.1.1-.2.2-.2.1-.3.2-.3.1-.3.1-.6.3-1 .3-.6.2-.3.1-.3.1-.3.1h-1.4l-.1-.1-.2-.2h-.2l-.4-.5-.2-.1-.2-.2h-.8l-.2.1-.1.1-.2.1-.5.3-.4.2-.1.1h-.1l-.3.2-.4.2-.3.2-.1.2h-.2l-.3.4-.3.3-.2.2-.1.2-.2.1v.2l-.1.1v.4l.2.1.2.1h.3l1 .2.9.2h.2l.3.1h1.2l.3.1h.4l.2.1.2.1.2.1v.2l.3.2.5.7.2.2.1.2.2.3.2.2.2.2 1 .9.2.2v.2h.2v.7h-.1l-.2.2-.3.5-.5.5-.1.3-.2.2v.1l-.1.2-.1.1v.2l-.1.2v.2l.2.2.2.1h.1l.2.2h.2l.2.1h1.4l.2.2.1.2v.6l-.1.2-.4.6-.1.2v.2l-.1.1v.7l.1.2.1.1.1.2.1.2 1.4 1.6.3.4.2.2.1.2.5.8.6 1 .3.4.3.4.6.7.2.4.2.2v.1l.2.2.3.9v.1l.2.2.2.3.1.2.2.3.2.2.2.2.2.2.3.1.2.1.2.1h.2l.1.1h1l-.1.1-.2.1h-.1l-.1.2h-.1l-.1.2h-.1v.3h.1l.1.2h.3v.1h.2v.1l.1.1.1.1v.1l.2.1v.2l.1.2v.3l.1.3v1.3h-.1l-.2.2-.5.4-.5.3-.2.2-.2.2-.2.2v.1l-.2.2-.2.4-.2.2v.1l-.2.1v.1h-.2v.1h-.2v.1h-.6l-.1-.1h-1l-.2.1-.2.1-.3.1-.4.2-1.8 1-.5.4-.3.1-.2.2-.2.2-.2.1-.1.2-.1.1-.1.1v1l.1.2v.2l.2.2.1.1.2.2.1.2h.2l.2.1h.1l.2.1h.5l.2.1h.2v.1h.2l.2.2.2.2h.1l.2.3.6.7.2.3.2.2.2.1.2.1.5.3.2.2.2.1.1.2.2.1v.2l.2.3v.1l.1.2v.4l.1.1v1.1l-.1.1v.2l-.1.1-.1.1v.1l-.2.2-.1.2-.3.2-.2.3-.3.2-.1-.1h-.2v-.1h-.2l-.2-.1h-3.4l-1-.1h-1.6l-.3.2h-.2l-.3.2-.3.2-.2.1-.2.2-.2.2-.2.2-.1.2-.1.2-.2.5-.1.2-.1.2-.2.2-.1.1-.2.1-.3.2h-.1l-.2.1-.4.2h-.4l-1.5.5-1.9.6-.2.1h-.6l-.1-.1-.2-.1v-.1h-.7l-.5.1h-1l-.2-.1-.2-.1-.3-.2v-.1h-.2l-.2-.1h-.3l-.2-.1h-5l-.3.1h-.3l-.2.1h-.2v.1h-.2l-.2.2-.1.2-.2.2-.2.2-.1.2-.2.2-.3.3h-.1v.2l-.1.1v.2H117l-.2-.1h-.1l-.1-.1-.3-.2h-.2v-.2h-.2l-.3-.3-.1-.2h-.2l-.1-.2h-.5l-.4-.1h-.7l-.3-.1-.3-.1h-1.6l-.4.1-.5.2h-.4l-2 .7-.4.2h-.5l-.3.2h-.4l-.4.1-.6.1h-.3l-.6.1h-1.9l-.3.1-.8.1h-.9l-.1-.1-.1-.1h-.1l-.2-.3-.1-.2-.1-.2-.4-.8-.2-.4-.2-.5-.3-.4-.2-.3-.4-.6-.1-.2-.1-.2-.1-.3-.1-.3v-.7l.1-.2v-.2l.2-.3.2-.3.4-1v-.1l.2-.3v-.3l.1-.2v-.2l.1-.3v-1.8l-.1-.1v-.1h-.2v.2l-.5 1.4-.2.6v.3l-.5 2-.2 1.1-.1.5-.1.9-.1.3v.1l-.2.3-.2.7-.1.3v.1l-.1.3v1.7l-.1.2v.3l-.3 1-.1.4v.3l-.1.3v1.6h.1v.3h.1v.2l.1.1.1.1.2.2.1.1.3.2.1.2h.1l.1.2.1.2v.2l.1.1v.4l-.1.1-.1.1h-.1l-.2.2h-.4l-.5-.2h-.6l-.1.1v.5l.2.2.1.3.1.1v.1l.1.3v2.2l-.3.5-.2.3-.1.2-.2.2-.1.2-.3.2-.2.2-.2.1-.3.2v.1h-.2v.2l-.1.1v.1l-.1.2v1.1l-.1.2v.2l-.2.2v.1l-.2.2v.1l-.1.1-.2.2-.2.1-.3.2-.7.5-.3.1-.3.2-.2.2-.2.1-.2.2v.1l-.2.2v.1l-.3.4v.2l-.2.2-.1.2-.2.2-.1.1-.2.2-.1.1-.1.1-.2.1-.2.2-.3.2-.5.2-.3.2-.4.2-.2.1-.2.2-.1.1-.3.3-.2.1-.1.2-.1.1h-.3l-.2-.2-.3-.3-.9-.9-.2-.2-.3-.2-.1-.1h-.1l-.1-.2H83l-.2-.1h-.6v.1h-.1v.2H82l-.1.2v.1l-.2.2v.4l-.1.4-.1.6v.3l-.1.3v1.2l-.1.2v.4h-.1l-.1.2v.2l-.2.1-.1.2-.1.1-.2.2-.2.2-.3.1-.2.1h-1l-.5-.3h-.2l-.2-.1h-1.1l-.3.2h-.2v.2l.3.2.3.3.3.2.2.2.3.2.2.1.3.2.3.2.2.2.2.2.1.1.1.2.1.1.2.3.2.4v.2l.2.2.3.5.2.2.3.4v.1h.3l.2.2h.2l.2.2.1.1.1.1v.1h.1v.2l.1.2v.3l.1.2v1.7l.1.2v.1l.2.1.1.1.4.4.1.2.2.2.7.8.1.2.3.3.2.2.4.4.8.7.1.1v.1l.2.2v1.3l-.2.1v.2l-.3.4-.2.3v.2l-.1.1v.1l-.1.2v.5l-.1.3v1h.1v.3l.2.2v.1l.1.2h.1l.1.2h.1l.1.2h.2l.2.2.4.2.4.1.2.1.3.1.3.1.2.1h2.4l.2-.2h.3l.7-.4.3-.1.2-.1.5-.2h.2l.3-.2.3-.1.2-.1h.1v-.1l.2-.2.2-.1.4-.5.2-.2.2-.2h.2v-.1h.7l.5.2.1.1h.2l.4.1.5.1h.2l.3.1.2.1.1.1.2.1.2.1.2.2.1.2.1.1v.1l.1.1v.3l.1.3v.6l.2.3v.2l.1.2.1.3.1.2.1.2h.1l.2.3v.1l.2.2.2.2.2.1.3.3.3.3.7.4.5.5.2.1.2.1.7.4.3.2.4.2 1 .6.3.2.2.1.2.1h.2l.2.2h1.3l.1.1v.1l.1.1v.4l.1.2v1.4l.1.4.2 1v2.1l-.1.2v.1l-.3.7v.2l-.2.3v.4l-.1.3v1.7l.1.1v.3l.2.2.1.3.1.2.1.2.2.2.1.2.2.3.2.2.2.2.2.2.6.6.2.2.2.2.3.4.2.2h.1l.2.2.8.5h.2v.2h.1v.5h-.2v.2h-.3l-.2.1h-.1l-.2.1h-1l-1 .1H108l-.2.1h-.3l-.3.2h-.3l-.4.2-.2.1-.3.2h-.2l-.1.1-.4.3-.3.2-.1.2-.4.3-.2.2-.2.1-.1.2h-.2l-.1.1-.3.1-.2.1-.3.1-.6.1-.4.1-.2.1-.2.1-.2.1-.1.1-.2.2-.1.1-.3.3-.3.5-.2.3-.1.2v.1l-.2.3v.2h-.1l-.1.3-.2.9v.2l-.2.2v.1l-.1.2-.1.1-.1.1-.1.2-.2.2h-.2v.2h-.2l-.2.1-.1.1-.2.1h-.4l-.2.1H96l-.1.1h-.3l-.1.1h-.2v.1h-.1l-.1.2-.1.1-.2.3v.3l-.2.2v.9l.1.2h.1l.1.2.3.3.3.4h.1l.1.2h.1l.2.1.2.1h.2l.2.2h.3l.8.2h.1l.2.1h.1l.1.1.1.1.1.2v.3l-.1.1-.2.2v.2l-.2.1-.2.2-.2.2-.3.2-.2.1-.2.2-.3.2-.6.3-.3.2-.3.1v.1l-.4.3-.2.2-.2.2-.3.2-1.3 1h-.1l-.2.1h-.2l-.1.1h-2.6l-.1.1h-.1l-.2.1v.5l.3.4.1.2.1.2v1.2l-.1.3-.1.1-.2.2-.2.2-.1.2-.3.2-.1.1-.7.5-.3.3-.4.4-.3.1-.2.2-.2.1-.1.1-.3.1h-.1l-.1.1h-.2l-.3.1-.7.1-.4.1-.4.1-.1.1-.2.1h-.2l-.1.2h-.2l-.2.2-.1.1-.4.4h-.2l-.2.2-.4.2-.2.2h-.1l-.1.2-.2.2-.1.3-.1.2-.3.6-.1.4-.1.3-.2.2v.2l-.3.3-.1.2-.2.2-.2.2h-.1l-.1.2H79v.1l.1.2.1.3.1.2v.1l.2.3v3.6l.1.3v.2l.1.2v.1l.1.2v.2l.2.2v.1l.1.2.2.1.2.4h.1l.1.2v.4l-.1.2v.1l-.1.1h-.1v.1h-.2v.2H80l-.7.2h-.1l-.3.1-.2.2h-.1v.1h-.1v.2h-.1v1.1l-.1.1-.2.2-.2.1-.5.5-.3.3-.2.1v.2l-.2.1v.2l-.2.1v.3l-.1.2v.3l-.1.2v1.2l-.1.2v.3l-.1.2-.1.5v.5l-.2.1v.2h-.1l-.1.2h-.1l-.2.1-.2.1H74l-.2-.1-.6-.4h-1l-.2.1-.3.2h-.1l-.2.2h-.1l-.1.2-.2.1-.1.2-.2.3v.1l-.3.7-.1.3-.1.2-.1.2-.1.1-.1.1v.1l-.2.1H69l-.2.1h-.2l-.2.1-.2.2-.3.1-.2.2-.2.2-.2.2-.3.3-.2.2h-.2l-.2.1H64l-.3.1-.6.2-1.2.3h-.2l-.3.1H61l-.1.1H60l-.3-.1-.1-.1h-.1l-.2-.2-.6-.3h-.2l-.1-.1H58l-1-.2h-.4l-.4-.1H56l-.2-.2h-.1l-.2-.1-.1-.1-.3-.2-.7-.5h-.2l-.2-.2h-.2l-.1-.2H53l-.2-.1h-.5l-.2.1-.1.1-.2.2-.2.5-.2.2v.1h-.2l-.2.2h-.7l-.2.1h-.4l-.2-.1h-.2l-.2-.2H49l-.1-.1-.3-.2-.4-.3-.2-.1v-.1h-.2v-.2l-.1-.1v-.3l.1-.2.2-.1.3-.4.1-.2.1-.2.2-.2.1-.3.3-.6v-.2l.1-.1.4-.7.1-.2.1-.3.2-.6.1-.3v-.2l.1-.1.1-.6.1-.5.2-.7v-.3h.1l.1-.3.1-.2.1-.1.2-.2.2-.2.1-.1.2-.2.5-.4.2-.1.1-.1.1-.1.1-.2v-.2l.1-.2v-.3l-.1-.1v-.1l-.1-.1-.1-.1-.5-.6-.1-.2h-.1l-.1-.2-.1-.2v-.1l-.1-.2v-.2l-.1-.4-.1-.6-.1-.7-.1-.6-.1-.4v-.6h.1v-1.6l-.1-.2v-.1l-.1-.2v-.1l-.2-.3-.2-.1v-.1h-.2l-.2-.1H50l-.2-.1-.5-.1h-.2l-.2-.1-.2-.1-.2-.2v-.2l-.1-.1-.1-.3v-.2l-.1-.5-.1-.3v-.2l-.2-.2-.4-.9-.1-.3-.1-.2v-.2l-.2-.2v-.7l-.1-.2v-1.5l-.1-.5v-.2l-.2-.6v-.5l-.2-.5v-.2l-.1-.3v-.1l.4.1.2.2h.3l.2.1h1l.2-.1.2-.1.2-.2.1-.2.1-.2v-.2l.1-.2.1-.7v-.3l.1-.3.1-.3v-.2l.1-.2.1-.3.1-.1v-.2l.2-.2.1-.2.2-.2v-.2l.2-.2.2-.2.3-.2.1-.2.1-.2v-.1l.1-.2v-1.3l.1-.1v-.2l.2-.3.1-.4.2-.4.2-.3.2-.4.5-.8.3-.5v-.1l.2-.2.1-.2.2-.2.2-.1.2-.1.4-.4.2-.1v-.1l.2-.1.1-.2.2-.2v-.6l-.1-.1-.1-.1v-.1l-.2-.1-.2-.1h-.1l-.2-.1-.5-.1h-.1l-.2-.1-.1-.1v-.7h.2v-.1l.1-.1.2-.1.2-.1.5-.2h.1l.2-.1.2-.1.1-.1.2-.2.1-.2h.1v-.3h.1v-.8l-.2-.2-.2-.3-.1-.2-.6-.9-.2-.3-.1-.2-.2-.3v-.5l-.3-.8v-.2l-.1-.3v-.2l-.2-.1v-.2l-.2-.2-.2-.2h-.1l-.2-.2v-.1h-.2l-.3-.3-.4-.3-.2-.2-.6-.3L50-74l-.4-.3-.2-.1-.3-.2-.2-.3h-.1l-.2-.2v-.1l-.2-.1-.1-.3-.1-.1-.1-.2-.2-.4-.2-.4-.1-.2-.2-.5-.3-1-.2-.4-.2-.7-.2-.3-.1-.3-.1-.3-.2-.2v-.1l-.2-.2-.1-.1-.1-.1-.2-.1v-.1l-.2-.1-.2-.1-.2-.1h-.1l-.2-.1-.3-.1H44l-.2-.1H43l-.7.1h-1L41-82l-.5-.2h-.2l-.8-.3h-.2l-.4-.3-1-.3-.1-.1-.3-.1h-.2l-.3-.2h-.2l-.8-.2h-.4l-.1-.1h-.3L35-84l-.4-.2-.4-.1-1-.5-.3-.2-.6-.2H32v-.2h-.2v-.5l-.1-.7v-2.8l.1-.3.1-.4.1-.3.4-1v-.2l.1-.2v-1.9l.1-.2h.1v-.1h.1l.1-.2h.3l.2-.1h.1l.5-.1h.3l.3-.2h.3l.1-.1.2-.1.2-.2h.2l.1-.2.1-.2.3-.2.1-.2.4-.5.4-.4.2-.3.1-.2.2-.3.4-.6.1-.2.1-.2v-.2l.1-.1v-.8l-.1-.7v-.7l-.1-.2v-.8l.1-.4.1-.5.4-1.5.1-.3v-1.4l-.2-.5v-.3h-.1v-1.2l.1-.2v-.1l.1-.3.3-.6v-1.4l.1-.2.1-.2h.1v-.2l.3-.3.2-.2.5-.5.2-.2.1-.1.1-.2.4-.6.1-.1.1-.1.2-.2.1-.1.1-.1.3-.2.5-.3h.1l.2-.2.2-.2.2-.2.2-.1.1-.2.1-.1.1-.1.1-.3.1-.2v-.2l.1-.3v-1.6l-.1-.2-.1-.2h-.1l-.1-.2h-.2l-.1-.1H42l-.3-.1h-.2v-.1l-.2-.1h-.1l-.2-.2-.1-.1-.1-.1-.1-.1-.1-.2-.1-.2-.1-.2v-.2l-.1-.2v-.5l.1-.2v-.3l.1-.2.2-.4v-.2l.2-.2v-.2l-.2-.1-.2-.1v-.1l-.3-.1-.1-.1-.8-.4-.2-.2-.2-.1v-.2l-.2-.2v-1.3l.1-.2v-.1h.1v-.1l.2-.1.3-.2h.2l.4-.1.5-.1h.5l.6-.1h.4l.2-.1h.1l.2-.1v-.1h.2v-.2h.2v-.2l.2-.2.2-.3v-.2l.1-.2.1-.2.1-.4v-.2l.1-.3v-.1l.1-.4v-.3l.1-.2v-1.9l.1-.2.1-.1.4-.4.1-.2v-.8l-.1-.3-.3-.5-.2-.6-.2-.4-.3-.4v-.8l.1-.1.1-.1.2-.2.8-.6.2-.2.2-.1.1-.2.2-.2.2-.2.2-.3v-.1h.1l.2-.2h.9l.2.2h.2l.2.2h.2l.1.2.2.1v.1l.1.2.1.2.1.2v.2l.1.2.1.5v.3l.1.1v.1l.1.2.1.2.1.1.2.1.1.2.2.2.3.2.1.1.2.2h.1l.1.1h.2l.2.1h.4l.2-.1v-.2h.1l.1-.2.1-.3v-.1l.1-.2v-1l-.1-.1v-.1l-.2-.1-.2-.2-.3-.2-.1-.1-.2-.2v-1.1l.3-1.1.3-1v-.3l.1-.2v-1.4l-.1-.2v-.2l-.2-.3-.3-.9-.2-.6-.1-.3-.1-.3v-1l.1-.2v-.2l.2-.4.3-.4v-.2l.2-.1v-.2h.1l.2-.3.2-.1.5-.4.2-.2v-.1l.2-.2v-.1l.3-.4v-.2l.2-.1v-.1h.2l.1-.1h.2l.5-.1h.3l.2-.1.3-.1.1-.1.2-.1.2-.1.2-.2.4-.3.3-.3h.2v-.2l.2-.2.2-.2v-.3l.1-.2v-.5h-.1l-.1-.2h-.1l-.2-.1v-.1h-.3l-.3-.2h-.7l-.3-.1-.3-.1-.2-.1-.2-.1-.1-.1-.2-.2-.1-.2v-.2l-.4-.8-.1-.3v-.2l-.1-.3v-.2l-.2-.7-.1-.5-.1-.7-.1-.2-.4-.2H51l-.5.2-1.1.2H48l-1.2.1h-1.4l-.3-.1-.4-.1h-2.4l-.1-.1h-.4l-.1-.1-.2-.1-.1-.1-.1-.1-.2-.2-.5-.6-.4-.6-.2-.3-.1-.2-.1-.1-.2-.3v-.2l-.2-.3v-.6l-.1-.4v-1.1h-.1v-.1H39l-.1.2-.2.2-.3.3-.2.3-.3.5-1.2 1.7-.6 1-.5.6-.3.4-.2.2-.1.2-.3.3-.2.2-.3.2-.3.2-.3.2-.5.4-.4.3h-.1l-.3-.1-.6-.1H31l-2.2-.3H28l-.3-.1h-.3l-.3-.1h-.3l-.3-.2h-.2l-.3-.2-.2-.2-.2-.2-.2-.2v-.1l-.6-.7-.2-.3v-.1l-.2-.1-.2-.3-.3-.2-.6-.4-.3-.3-.2-.1-.2-.2-.1-.2-.2-.1v-.2l-.1-.1v-1l.2-.2v-.2l.2-.2.2-.1.2-.1h.2v-.1h1.1l.4.1h.9l.2-.1h.3l.3-.2.4-.1h.2l.2-.2h.2l.2-.1.1-.1.2-.1.2-.1.3-.3.6-.4.4-.3 1-.6.4-.3.8-.5.4-.2.2-.1v-.1l.3-.2v-.1l.2-.2.1-.2v-.6l-.1-.3-.1-.2-.2-.2-.1-.2-.2-.2-.2-.1-.2-.2-.4-.3h-.2l-.7-.5-.2-.2-.3-.1-.1-.2-.2-.1v-.2l-.1-.1v-.2l-.2-.2-.3-1.5-.1-.5-.2-.7v-.9l-.1-.6v-.4h.2v-.1h.1v-.2l.1-.2v-.8h1.1v-.4l-.3-.1v-.2l-.6-.4-.2-.2-.2-.1h-.1l-.2-.2h-.1l-.6-.3h-.2v-.1h-.2l-.1-.2-.2-.1v-.1l-.2-.2-.1-.1-.1-.2-.1-.2-.2-.4-.3-.7H26l-.1.1h-.7v-.1l-.2-.1-.1-.1v-.7l.2-.5.1-.2v-.4l.2-.5v-.4l-.1-.1h-1.7l-.6.2h-.4l-.3.1h-.9l-.2-.1-.2-.2v-.2l-.1-.1v-1.2l.2-.7v-1.8l-.1-.5v-.8l-.1-.5v-.4l-.2-.3v-.2l-.2-.2-.1-.4-.2-.2v-.1l-.1-.1-.2-.2-.1-.2-.3-.2-.7-.8-.3-.3v-.1l-.2-.2-.1-.2v-.9l.2-.2.1-.2.2-.2.2-.4.4-.4.2-.3.4-.4.7-.7 1-1 .7-.8.5-.4.4-.5.2-.2.2-.3.2-.2.1-.3.1-.3.1-.3.1-.2.1-.3v-1l-.2-.2h-.3l-.3-.1H22l.9-2.8-.5.1-.4.1-.3.1-.4.1-.3.1h-1.3l-.2-.2-.2-.2-.1-.2-.2-.3-.5-.7-.2-.3-.1-.2-.5-.5-.1-.2-.1-.2v-.1l-.2-.2v-.3l-.2-.3v-.9l.2-.5v-.5l.1-.3v-.1l.1-.2.2-.5v-1l.2-.2v-1h-.1l-.1-.1v-.1h-.2l-.2-.1-.4-.1-.2-.1h-.1l-.1-.1-.2-.1-.1-.1-.1-.1-.1-.1-.1-.2v-.1l-.1-.2-.1-.3v-.2l-.1-.4v-1.5l.2-.2.3-.5.3-.5.2-.4.2-.3.2-.5.1-.2.2-.5.2-.5.2-.6.1-.4.2-.8v-.2l.1-.3.1-.2.2-.2.2-.2.2-.2.4-.3.7-.6.4-.4.3-.2.2-.2.3-.3.1-.1.3-.4.2-.3.2-.2.2-.3.2-.4.2-.2.1-.3h.5l1.3.1h6.1l.2-.1h.1v-.1h.1l.1-.1v-1.4l-.3-1v-1.7l.1-.1.1-.1h.1l.2-.1h.2l.2-.1h.9l.3.1.6.1.9.2h1.5l.5.1h.8l.3-.2.2-.1.2-.2.2-.1.1-.2.1-.2v-.1l.2-.3v-.2h.1v-.2l.2-.1h.1l.2-.1h.1l.5-.2.5-.2h.2l.2-.1H42l.3.1h.3l.2.2h.3l.3.2.2.1.2.1.1.1.1.1.1.2h.1l.1.2.1.1.2.5.1.2.2.4.2.2.1.1.2.2h2.2l.2.1.2.1.1.1.1.1v.2l.2.1h.8l.4-.1.6-.2.4-.1h.2l.3-.1.1-.1h.2v-.1l.2-.1h.1l.1-.2h.1v-.2l.1-.1v-.8l-.1-.1-.3-.4-.1-.3v-.1l-.1-.2v-.2l.1-.2h.3l.2-.1.3-.1h.2l.2-.1h.3l.7-.1h.6l.3-.2h.3l.3-.2h.3l.3-.2.2-.2h.2l.2-.2h.3l.2.4.3.5.2.3.1.2h.2v.2l.2.1h.1l.2.1.2.1h.2l.3.1.7.1h.3l.2.1.2.1h.1l.1.2h.1l.1.1.1.1v.2l.2.2v.2l.1.5.2.9v.4l.3.6v.7l.1.2v1l-.1.2v.1l-.1.2-.2.2v.1H61l-.1.2-.1.1-.2.1-.1.1h-.1l-.1.1h-.1l-.5.2h-.2v.1l-.1.1v.1h.2l2.2.4h1.3l.3-.1h.3l.3-.1.3-.1.3-.1.6-.2 2-.7.2-.1h.3l.3-.1h.2l.3-.1h2.7l.8-.1h.2l.6-.1h1l.5-.1.8-.1h.6l.4-.1.4-.1.4-.1h.4l.2-.2h.3l.3-.1.3-.1.3-.2h.3l.2-.2.3-.1.2-.2.1-.2.1-.1.3-.4.2-.2.1-.1.1-.1h.1l.2-.1h.1l.2-.1h.9l1-.2h1.3l.2.1.3.1.1.1.2.2v.2l.2.2v.2l.4.7.1.3.1.3.2.2v.3l.2.2.2.2.2.2v.3l.2.2v.3l.2.3v.3l.1.4v.3l.1.4v.3l.1.3h.2v-.1h.1l.1-.1.1-.1v-.2h.1v-1.3l.1-.1.2-.2h.3l.3-.2h.2l.3-.2h.2l.1-.1.3-.2h.1v-.4l.2-.2.3-.3h.2v-.2l.1-.1v-.4l-.1-.1-.1-.1-.2-.2h-.1l-.2-.2h-.2l-.5-.2h-.2l-.2-.1-.2-.2-.2-.1-.2-.2-.1-.1-.1-.2-.1-.2v-.1l-.1-.1v-.9l.1-.2.2-.2.2-.1.2-.2 1.3-.8.2-.1.4-.3.6-.4.3-.2.5-.5.4-.3.3-.2.2-.1.2-.1.2-.1.2-.1h.8l.1.2h.1l.2.2.3.3.1.2.7.7.2.3.2.2.2.1v.1l.2.1.1.1.4.2.1.1.4.4.2.1.1.1.3.3v.1h.2l.1.1h.5l.4-.3h.1l.1-.1.4-.2.3-.1.3-.1.5-.3.4-.2.1-.1.2-.2.4-.3.3-.2.3-.3.4-.2 1.1-.8.4-.2.1-.1.2-.2.2-.1v-.1l.3-.4.2-.2v-.7l-.1-.2-.1-.1-.3-.4-.1-.1-.2-.3v-.2l-.1-.1v-.8l.1-.1.1-.2.2-.1v-.1h.1l.2-.2.2-.2.3-.2.4-.3.5-.4 1-.7.6-.4.3-.1.2-.1.2-.1.2-.1h.7v.1l.5.3.1.1h.9l.2-.1.2-.1.4-.3h.2v-.1l.2-.1v-.1l.1-.2.1-.1v-.4h.1v-.2h.1v-.1h.1l.2-.2h.1l.2-.2.1-.2.6-.7v-.2l.3-.4v-.7l-.1-.2-.3-.2-.1-.2-.1-.1v-.1l-.1-.2v-.4l-.2-.5v-.6l.1-.1v-.1l.2-.2v-.1l.4-.4.1-.1.2-.2v-.2l.3-.4v-.1l.1-.1.1-.1.2-.2.2-.2.4-.3.3-.2v-.1l.2-.1.2-.1.2-.1.2-.1h.2l.2-.2h.5l.3-.1h.5l.2.2h.4l.2.2h.1l.3.2.7.5.2.2.4.2h.2v.1h.2l.2.1.3.2h1.2l.2-.2h.2l.4-.3.2-.1.4-.2.1-.1h.2l.1-.1h.8l.2.1.1.2h.1v.2l.1.1.1.3v.1l.1.1.1.1.1.1.2.1.3.1h.1l.2.1h1.1l.4.2h.4l.2.1h.4l.2-.1.1-.2v-.1h.1v-.6l.1-.3.1-.5.1-.2v-.7l-.3-.7v-.2l-.1-.3v-.3l-.1-.3v-.4h.1v-.1h.2l.1-.2h.2l.2-.1h.5l.5.2h1l.1-.1h.2l.1-.2.2-.1.3-.2.2-.3.8-.9h.1v-.1l.2.1"/></defs><g clip-path="url(#pff31a7c506)"><use xlink:href="#m9b30b36282" y="280.5" fill="#f4f4e2" stroke="#f4f4e2"/></g></g></g></g><defs><clipPath id="pff31a7c506"><path d="M7.2 7.2h180.9v266.1H7.2z"/></clipPath></defs></svg>