<?xml version="1.0" encoding="UTF-8"?>
<!DOCTYPE svg  PUBLIC '-//W3C//DTD SVG 1.1//EN'  'http://www.w3.org/Graphics/SVG/1.1/DTD/svg11.dtd'>
<svg width="371.52pt" height="251.78pt" version="1.1" viewBox="0 0 371.52 251.78" xmlns="http://www.w3.org/2000/svg" xmlns:xlink="http://www.w3.org/1999/xlink">
 <metadata>
  <rdf:RDF xmlns:cc="http://creativecommons.org/ns#" xmlns:dc="http://purl.org/dc/elements/1.1/" xmlns:rdf="http://www.w3.org/1999/02/22-rdf-syntax-ns#">
   <cc:Work>
    <dc:type rdf:resource="http://purl.org/dc/dcmitype/StillImage"/>
    <dc:date>2024-07-04T12:07:20.724394</dc:date>
    <dc:format>image/svg+xml</dc:format>
    <dc:creator>
     <cc:Agent>
      <dc:title>Matplotlib v3.7.1, https://matplotlib.org/</dc:title>
     </cc:Agent>
    </dc:creator>
   </cc:Work>
  </rdf:RDF>
 </metadata>
 <defs>
  <style type="text/css">*{stroke-linejoin: round; stroke-linecap: butt}</style>
 </defs>
 <g id="figure_1">
  <g id="patch_1">
   <path d="m0 251.78h371.52v-251.78h-371.52v251.78z" fill="none"/>
  </g>
  <g id="axes_1">
   <g id="PatchCollection_1">
    <defs>
     <path id="m101c611213" d="m333.25-116.93 0.10256 0.62597 0.98082 3.355 0.81723 2.4069 1.0734 2.7903 1.0592 2.4341 0.89685 1.8391 2.1772 4.0787 1.068 2.2364 2.9717 6.8185 1.3953 3.5583 0.52632 1.6101 0.42533 1.6027 0.33118 1.8806 0.092991 1.9269-0.10383 1.3391-0.27074 1.4035-0.31735 1.0516-0.72146 1.7215-0.89997 1.6679-1.0229 1.6234-1.0749 1.5478-4.7784 6.1283-1.1442 1.6296-0.73089 1.173-1.0046 1.8828-0.53074 1.2022-0.60538 1.8761-0.26405 1.8377 0.041843 1.138 0.12578 0.76485 0.28411 0.9858 0.35323 0.82496 0.81441 1.3385 1.2423 1.4672 2.5738 2.5645 1.5392 1.7026 1.4914 2.0348 1.0603 1.8434 0.84953 1.8608 0.64624 1.6441 1.8775 5.1851 0.62403 2.0617 0.3515 1.4207 0.26208 1.3909 0.25369 1.9078-3.9451 1.25-2.089 0.45176-1.5879 0.20953-1.9353-0.11102-3.2808-1.5865-2.4842-1.0264-2.4955-0.82547-2.7944-0.63775-2.943-0.31803-2.326 0.009026-3.333 0.39074-2.023 0.42493-2.0059 0.53632-4.0453 1.342-8.7352 3.2911-2.7682 0.8805-1.7127 0.44808-1.7112 0.3609-3.2129 0.41249-1.273 0.05912-1.717-0.025516-1.9361-0.1865-1.2502-0.21295-2.1468-0.5435-2.4693-0.94453-1.6228-0.83692-0.84462-0.51145-1.775-1.2628-0.82163-0.67739-1.5316-1.4332-1.6552-1.7966-1.5879-1.9596-1.4534-1.9789-3.8165-5.5578-2.0553-2.7266-1.0847-1.2719-1.1478-1.2151-1.7767-1.62-1.218-0.93996-1.5486-1.0182-1.6036-0.86559-0.92777-0.41947-2.0938-0.74138-1.3996-0.34609-1.5766-0.25268-1.3826-0.1075-2.3257 0.052555-0.90621 0.099735-2.0248 0.38317-1.7157 0.49814-1.0005 0.36428-0.97257 0.40618-1.7581 0.86354-1.8244 1.0666-2.7868 1.9365-1.8102 1.4168-5.601 4.6214-3.3094 2.4648-1.8766 1.2295-2.3839 1.3721-2.794 1.3484-1.4118 0.58589-2.2366 0.81207-3.2091 0.92385-2.1176 0.4353-2.5896 0.29031-1.1668 0.018735-1.1064-0.071284-1.2758-0.23954-0.71539-0.26577-0.30223-0.18085-0.1872-0.176-0.10298-0.35978-2.4148-5.5966-1.7984-3.5097-1.9527-3.1992-1.174-1.6548-1.1206-1.4085-1.1812-1.3225-1.396-1.3708-1.4611-1.2415-1.8116-1.2977-1.8772-1.0949-1.7408-0.80264-1.7733-0.61434-2.304-0.48914-2.1393-0.1418-2.121 0.15587-2.0424 0.44349-1.9844 0.70361-2.0531 1.0151-1.9647 1.2387-1.8583 1.4103-1.7774 1.5476-1.2635 1.2033-4.4604 4.4507-2.5126 2.17-1.3875 1.0042-1.44 0.88339-1.2683 0.63904-1.3073 0.52265-1.7024 0.47738-1.7479 0.27132-2.3125 0.049147-2.3433-0.2485-1.8461-0.37643-1.8468-0.51419-1.8422-0.63699-3.377-1.4603-3.8032-2.0218-4.237-2.608-3.7493-2.5259-6.021-4.2751-12.115-8.7927-1.5773-1.0256 0.1934-0.24267 0.4436-0.87813 5.3334-11.41 2.1892-4.2633 1.8948-3.3538 2.3459-3.7246 1.7601-2.4822 2.1733-2.6732 2.1524-2.2282 1.5938-1.4112 1.9753-1.5388 3.0408-2.0708 1.9709-1.1535 1.6979-0.80855 2.2559-0.76342 2.3307-0.49222 2.3613-0.26116 1.7903-0.068722 5.6794 0.090817 2.9287-0.098252 1.7939-0.27716 0.83388-0.22595 1.5961-0.66805 1.3779-0.84939 1.4958-1.2357 0.94892-1.1048 0.31033-0.58056 0.15872-0.48157 0.082491-0.8309-0.057735-0.57195-0.23436-0.95202-0.41712-1.1148-0.63378-1.3523-0.81684-1.5129-1.822-2.9878-1.8499-2.7565-3.2383-4.2905-4.9314-6.2057-3.3242-4.0129-1.9237-2.1867-3.5251-3.6862-1.9082-1.8299-3.5573-3.1896-4.0757-3.4047-6.607-5.3172-2.736-2.0247-2.9671-2.012-3.1886-2.0402-3.6216-2.1663-2.0192-1.1214-3.3152-1.6958-2.757-1.3143-4.7333-2.119-4.2041-1.7123-2.3597-0.88043-2.4408-0.84322-2.9895-0.92883-20.849-5.4738-6.2895-1.5411-3.7195-0.77995-5.0143-0.83879-7.5861-0.88952-8.2799-10.225-1.7137-2.2524-0.43308-0.69781-0.32914-0.72917-0.13154-0.69908 0.034214-0.57734 0.083641-0.2809 1.3784-0.15467 9.2057-1.498 4.9978-0.57672 4.5131-0.29936 3.6908-0.14369 14.487-0.30071 4.0406-0.2062 5.1426-0.44434 2.5064-0.32726 2.8584-0.50705 2.7082-0.63939 3.4319-1.0648 1.9281-0.74912 1.8645-0.85603 2.6385-1.5137 2.0577-1.515 6.5277-5.719 1.4739-1.1676 1.8287-1.3209 3.8106-2.4761 8.2278-5.0936 2.4773-1.7193 4.1587-3.0741 2.0673-1.3027 1.1758-0.58696 1.2088-0.4615 0.87428-0.24031 1.9786-0.34482 5.6929-0.61599 2.3149-0.42393 1.2617-0.32896 1.2117-0.40639 2.1302-0.99655 1.499-0.96299 0.79492-0.63857 0.59736-0.59408 0.31367-0.43212 0.083799-0.42724 0.27743-0.54165 0.95194-0.22887 0.83296 0.022627 2.3107 0.46257 9.1689 2.9786 8.9927 2.3389 2.8867 0.83212 6.4049 2.2376 3.503 1.1432 2.917 0.7422 2.0278 0.40438 2.8912 0.33912 2.6535 0.16053 1.8123-0.03362 2.3155-0.34937 1.3274-0.39774 1.7248-0.70678 5.7929-3.0641 2.0125-0.79768 1.0173-0.23496 1.3979-0.062677 1.7392 0.42909 1.6516 0.89861 1.5512 1.2367 1.432 1.4623 0.66261 0.79074 1.0554 1.512 1.0439 1.914 0.45425 1.0732 0.36437 1.1601 1.7871 8.4236 0.63809 2.2853 1.3978 4.2143 0.89191 2.2522 0.67688 1.3209 1.3576 2.1364 1.1772 1.5433 1.3105 1.4846 1.3935 1.3586 1.0807 0.91884 2.2589 1.6105 1.4228 0.82976 2.268 1.0913 6.0165 2.5222 2.1621 1.0817 2.0438 1.177 1.5184 0.98775 2.0286 1.5332 1.6643 1.634 0.84554 1.1647 0.67567 1.1946 0.55314 1.1817 0.41229 1.1712 0.26494 1.4109 0.036487 1.4144-0.0605 3.4857 0.39187 6.887-0.042572 2.0895-0.24151 1.9367-1.2487 5.8031-0.21582 1.3597-0.19935 2.7867 0.2112 3.024 0.59466 3.0554 0.698 2.3865 0.869 2.2891 0.92348 1.9446 1.0432 1.7621 1.1609 1.5198 1.0842 1.0512 1.1779 0.77416 1.4693 0.49738 2.2355 0.089965 2.6164-0.37194 2.7643-0.73486 1.4612-0.53544 1.2676-0.58305 1.7076-0.95265 1.6405-1.0781 1.1776-0.86152 3.503-2.8491 4.7392-4.1315 1.9247-1.457 1.5727-0.85693 1.3511-0.50552 1.721-0.37189 0.78769-0.036635 0.59161 0.045591 1.3298 0.36169 0.83285 0.42943 0.60942 0.43151 0.96469 0.95684 0.91063 1.3812 1.9829 3.8815 1.4869 2.674 1.7663 2.7516 2.0905 2.6526 2.4797 2.3637 1.4134 1.0171 1.3891 0.82021 1.0905 0.54002 1.139 0.48106 1.4893 0.52503 2.4029 0.66502 3.1178 0.65102 6.8101 1.0681 2.2278 0.42578 2.5324 0.66118 2.2012 0.75509 1.6648 0.73601 0.87124 0.7291" stroke="#bdc660"/>
    </defs>
    <g clip-path="url(#pfda4272e99)">
     <use y="251.780418" fill="#bdc660" stroke="#bdc660" xlink:href="#m101c611213"/>
    </g>
   </g>
  </g>
 </g>
 <defs>
  <clipPath id="pfda4272e99">
   <rect x="7.2" y="7.2" width="357.12" height="237.38"/>
  </clipPath>
 </defs>
</svg>
