<?xml version="1.0" encoding="UTF-8"?>
<!DOCTYPE svg  PUBLIC '-//W3C//DTD SVG 1.1//EN'  'http://www.w3.org/Graphics/SVG/1.1/DTD/svg11.dtd'>
<svg width="297.76pt" height="280.51pt" version="1.1" viewBox="0 0 297.76 280.51" xmlns="http://www.w3.org/2000/svg" xmlns:xlink="http://www.w3.org/1999/xlink">
 <metadata>
  <rdf:RDF xmlns:cc="http://creativecommons.org/ns#" xmlns:dc="http://purl.org/dc/elements/1.1/" xmlns:rdf="http://www.w3.org/1999/02/22-rdf-syntax-ns#">
   <cc:Work>
    <dc:type rdf:resource="http://purl.org/dc/dcmitype/StillImage"/>
    <dc:date>2024-07-04T12:07:16.942955</dc:date>
    <dc:format>image/svg+xml</dc:format>
    <dc:creator>
     <cc:Agent>
      <dc:title>Matplotlib v3.7.1, https://matplotlib.org/</dc:title>
     </cc:Agent>
    </dc:creator>
   </cc:Work>
  </rdf:RDF>
 </metadata>
 <defs>
  <style type="text/css">*{stroke-linejoin: round; stroke-linecap: butt}</style>
 </defs>
 <g id="figure_1">
  <g id="patch_1">
   <path d="m0 280.51h297.76v-280.51h-297.76v280.51z" fill="none"/>
  </g>
  <g id="axes_1">
   <g id="PatchCollection_1">
    <defs>
     <path id="mc61086289a" d="m270.41-246.32 0.04737 0.45239 0.4715 2.6872 1.0147 5.0439 0.78936 3.6188 2.4596 10.716 0.70691 3.3908 0.50808 2.8156 0.50635 3.6128 0.39707 3.4977 0.28116 3.4788 0.073156 1.7349 0.016672 1.3955-0.082038 3.3661-0.25201 3.935-0.39707 3.976-0.24684 2.0078-0.58058 4.1712-0.58582 3.6298-0.32476 1.7871-0.72766 3.4832-0.41456 1.6752-0.45976 1.6122-0.53233 1.6975-0.4488 1.7307-0.36804 1.8157-0.30652 1.8849-0.48574 3.9332-0.38049 4.1074-0.31104 4.119-0.37342 6.1825-0.17283 4.1667-0.052674 3.9727 0.04716 1.7688 0.11537 1.484 0.1942 1.0329 0.25643 0.34772-5.3176 0.97063-5.5084 1.1068-3.9851 0.90425-3.6538 0.91938-6.1693 1.6926-14.767 4.2484-3.6401 1.1022-3.7888 1.2378-7.0362 2.4307-6.5238 2.3274-6.0656 2.2879-3.9132 1.5809-10.498 4.3516-3.6615 1.5587-1.816 0.80751-1.799 0.8389-1.5724 0.77745-1.551 0.81412-1.5254 0.85525-1.4938 0.90399-1.4537 0.96395-1.5413 1.1375-1.4933 1.2075-1.4554 1.2623-1.4239 1.3068-1.3954 1.3453-1.3663 1.3818-1.3332 1.4203-1.2919 1.4645-1.2378 1.5189-1.0904 1.4687-1.039 1.52-0.99456 1.5658-0.95297 1.609-0.91001 1.6523-0.86114 1.6978-0.8013 1.7477-0.72492 1.8038-0.67439 1.9948-0.58211 2.0531-0.503 2.095-0.42973 2.1145-0.35507 2.101-0.27209 2.0372-0.1752 1.8957-0.062925 1.6355 0.058742 1.2886 0.10156 0.38873-1.5748-0.49765-3.0322-0.73063-1.7466-0.37683-1.8738-0.35236-1.922-0.2926-1.9153-0.20124-1.869-0.077765-1.7918 0.081482-1.6886 0.28264-1.6843 0.54502-3.2791 1.3604-1.7187 0.55895-1.8002 0.4556-1.8561 0.37884-1.8913 0.32462-5.7169 0.83162-1.8667 0.28535-1.8162 0.31931-1.7408 0.3757-1.6331 0.45997-1.4838 0.57966-1.2803 0.74468-1.007 0.96765-0.66071 1.1891-0.41062 1.3945-0.23077 1.543-0.10778 1.6455-0.031967 1.7096 0.003204 3.4797-0.040051 1.707-0.12059 1.6396-0.2471 1.5318-0.42838 1.3746-0.67647 1.1563-0.97062 0.8842-1.2124 0.65381-1.3836 0.46833-1.4955 0.3127-1.5561 0.17312-1.5698 0.036514-1.5377-0.1101-1.4577-0.28021-1.3248-0.48842-1.1303-0.75099-0.86304-1.0201-0.43829-0.76535-0.30883-0.68154-0.46481-1.3259-0.41884-1.6108-0.33946-1.6845-1.0538-6.5967-0.29021-1.3747-0.34331-1.1404-0.42279-0.81755-0.34535-0.31406-0.22899-0.078243-0.60137 0.11866-0.67716 0.45048-2.2418 2.0653-0.75004 0.62497-0.8049 0.57522-0.71804 0.42634-1.0273 0.4804-1.3854 0.52625-2.7256 0.92834-1.415 0.51664-1.3838 0.57226-1.3836 0.63878-1.378 0.69824-1.3672 0.75381-1.2056 0.71693-2.37 1.548-1.6701 1.1986-3.2809 2.545-9.8721 8.1677-3.4513 2.7585-1.7775 1.3492-1.815 1.303-1.8501 1.2246-1.4062 0.84013-1.4139 0.74362-1.4072 0.6168-1.5672 0.52313-1.4285 0.33548-1.0623 0.1513-0.63022 0.015998-0.27369-0.092671-0.046737-0.2901-0.23589-0.69875-0.7858-2.0718-0.982-2.4047-0.81772-1.7786-0.88355-1.6244-2.1169-3.4662-0.60648-1.1045-0.26109-0.55777-0.20321-0.51411-0.24068-0.86903-0.072652-0.99175 0.2315-1.1075 0.49965-1.0901 0.68875-1.0801 0.81715-1.0771 1.702-1.9997 2.0131-2.1833 2.0949-2.1268 2.8428-2.7485 0.94071-1.0183 0.81609-1.0621 0.63305-1.1354 0.403-1.2351 0.21063-1.3181 0.068456-1.3815-0.035488-1.4301-0.11068-1.4682-0.16454-1.4989-0.20278-1.5249-0.47849-3.1186-2.7817-16.367-0.41694-2.6069 0.34142-0.17829 2.2627-0.9869 1.464-0.70641 1.4992-0.80808 1.443-0.89678 1.3139-0.984 1.1191-1.08 0.85756-1.1944 0.55193-1.3336 0.2907-1.4373 0.095788-1.5091-0.046741-1.5566-0.14965-1.5867-0.22358-1.6043-0.59326-3.23-0.34685-1.6155-0.7698-3.2162-0.87767-3.1804-0.49286-1.5702-0.57416-1.6543-0.61474-1.6393-1.3077-3.2492-2.0613-4.8417-15.229-35.024 7.2984-10.954 4.6531-6.882 8.9242-12.99 5.1308-7.2942 3.2402-4.4007 1.2167-1.5643 1.2472-1.5264 1.2902-1.4741 1.35-1.4021 1.4319-1.304 1.4165-1.102 1.488-1.0166 1.5414-0.9529 1.5806-0.90605 1.609-0.87213 4.9254-2.4992 16.304-7.9175 9.1059-4.5248 3.5207-1.8203 5.1101-2.7273 13.565-7.4298 4.776-2.5689 3.0991-1.5649 2.6199-1.1906 1.5128-0.60838 2.2059-0.7591 1.74-0.47971 1.3436-0.28386 1.7068-0.2399 1.4516-0.11766 1.9149-0.013815 1.9297 0.12456 1.9377 0.23652 1.9397 0.33245 1.9258 0.41436 1.9227 0.47702 3.838 1.0699 9.5617 2.8381 3.808 1.0093 1.8976 0.42658 1.8913 0.3455 1.8829 0.23397 1.8717 0.08273 1.5373-0.069961 1.5262-0.17238 1.5137-0.24422 3.8596-0.74395 1.6351-0.26525 7.7455-1.0669 1.7173-0.26175 3.4354-0.58577 3.4257-0.66453 3.402-0.7574 5.5397-1.3617 8.5041-1.7227 7.7278-1.7298 44.162-10.351 1.8729 14.898" stroke="#bdc660"/>
    </defs>
    <g clip-path="url(#p243829fdac)">
     <use y="280.512" fill="#bdc660" stroke="#bdc660" xlink:href="#mc61086289a"/>
    </g>
   </g>
  </g>
 </g>
 <defs>
  <clipPath id="p243829fdac">
   <rect x="7.2" y="7.2" width="283.36" height="266.11"/>
  </clipPath>
 </defs>
</svg>
