<?xml version="1.0" encoding="UTF-8"?>
<!DOCTYPE svg  PUBLIC '-//W3C//DTD SVG 1.1//EN'  'http://www.w3.org/Graphics/SVG/1.1/DTD/svg11.dtd'>
<svg width="310.64pt" height="280.51pt" version="1.1" viewBox="0 0 310.64 280.51" xmlns="http://www.w3.org/2000/svg" xmlns:xlink="http://www.w3.org/1999/xlink">
 <metadata>
  <rdf:RDF xmlns:cc="http://creativecommons.org/ns#" xmlns:dc="http://purl.org/dc/elements/1.1/" xmlns:rdf="http://www.w3.org/1999/02/22-rdf-syntax-ns#">
   <cc:Work>
    <dc:type rdf:resource="http://purl.org/dc/dcmitype/StillImage"/>
    <dc:date>2024-07-04T12:07:23.383938</dc:date>
    <dc:format>image/svg+xml</dc:format>
    <dc:creator>
     <cc:Agent>
      <dc:title>Matplotlib v3.7.1, https://matplotlib.org/</dc:title>
     </cc:Agent>
    </dc:creator>
   </cc:Work>
  </rdf:RDF>
 </metadata>
 <defs>
  <style type="text/css">*{stroke-linejoin: round; stroke-linecap: butt}</style>
 </defs>
 <g id="figure_1">
  <g id="patch_1">
   <path d="m0 280.51h310.64v-280.51h-310.64v280.51z" fill="none"/>
  </g>
  <g id="axes_1">
   <g id="PatchCollection_1">
    <defs>
     <path id="me847cac717" d="m69.762-260.51 2.2497 8.4922 8.583 31.603 1.8679 6.5006 0.83334 2.659 0.87898 2.5877 0.94202 2.4924 0.7645 1.7989 0.81259 1.7113 0.86232 1.6046 1.1564 1.8176 1.2627 1.5452 1.139 1.0078 1.5025 0.80188 1.5215 0.28884 1.6562-0.057159 2.2074-0.42273 2.332-0.69806 2.4241-0.87862 7.6399-3.0228 2.6439-0.94716 1.5562-0.49785 2.4064-0.66324 2.5343-0.56525 3.8339-0.65665 5.1136-0.6549 4.5846-0.47363 9.8893-0.91125 4.9907-0.53401 2.3482-0.29627 5.1861-0.79518 2.8233-0.56071 3.359-0.83018 3.8594-1.1124 2.1958-0.69187 4.1938-1.4119 14.546-5.308 5.9709-2.0572 4.5453-1.4594 10.979-3.3589 5.398-1.7031 4.3039-1.4378 7.6263-2.764 2.148-0.71642 1.2832-0.37087 1.2663-0.30233 2.0467-0.29913 1.9915 0.032835 1.2149 0.23037 1.19 0.38104 0.96999 0.41685 1.7089 0.95595 1.3906 0.97232 1.8352 1.5365 2.0386 2.0189 3.3946 3.7956 2.2222 2.6224 1.456 1.9086 1.2166 1.8602 1.2142 2.2296 0.95563 2.129 0.48811 1.4079 0.46233 1.8459 0.19681 1.2481 0.10457 1.4354-0.012332 1.4021-0.08139 1.2951-0.70774 5.7272-0.038963 1.4058 0.093377 1.404 0.19065 1.2778 0.27207 1.2843 1.1734 4.4075 0.53075 2.2306 0.39311 1.9218 0.63577 3.6081 0.31254 1.3783 0.29343 0.9968 0.39837 1.0966 0.57237 1.325 2.0582 3.9534 0.97487 1.5671 1.9039 2.5599 0.78178 1.1698 0.61263 1.1015 0.54926 1.2631 0.5591 1.7306 0.87566 4.2788 0.50728 1.939 0.42994 1.4362 0.49591 1.4352 0.69496 1.8019 1.8787 4.1975 0.77358 2.0419 0.65639 2.2214 0.75668 3.3302 0.39784 1.5211 0.56331 1.651 0.59982 1.3722 0.99362 1.8285 1.1456 1.7462 1.7291 2.3831 3.2133 4.2623 2.0377 2.9002 1.2781 2.0273 0.59233 1.1056 0.48262 1.0348 0.92431 2.3603 0.43364 1.3963 0.21981 0.92433 0.29094 2.0464 0.12738 3.0324 0.094106 1.0841 0.10645 0.58369 0.12904 0.26823-0.83302 0.64136-0.28375-0.86251-0.58439-2.8107-0.42994-1.3237-0.41695-0.79114-0.55556-0.69378-0.80937-0.62598-1.7219-0.6341-2.0888-0.20206-2.3467 0.12607-2.5188 0.36452-2.6284 0.53263-2.4309 0.58161-4.9407 1.3408-5.1152 1.513-7.8085 2.458-5.3597 1.8198-2.5923 0.95025-2.5064 0.99067-2.391 1.0456-2.2369 1.1196-2.0324 1.2178-1.7635 1.3466-3.4493 3.4785-1.8741 1.4308-1.2756 0.7863-1.2626 0.66964-1.8803 0.83376-1.3296 0.48889-1.3622 0.4267-0.93694 0.25403-2.3288 0.51663-3.3354 0.56169-2.1029 0.25429-1.7191 0.14453-1.2274 0.036039-1.3499-0.045622-2.3189-0.22712-2.3023-0.38525-2.2416-0.53374-2.1324-0.68462-1.7787-0.76037-1.2697-0.65995-1.366-0.81217-3.3119-2.2733-1.3371-0.7073-1.7247-0.58171-1.8898-0.35738-2.0191-0.18688-2.394-0.061601-2.4868 0.048441-8.9295 0.4457-3.7045 0.067264-1.8415-0.037688-2.6988-0.16719-1.4323-0.1383-3.0696-0.40249-3.7478-0.58373-1.4285-0.18105-1.9686-0.10679-1.9659 0.057103-1.4883 0.14716-1.4627 0.23269-1.8166 0.42148-1.8791 0.62731-1.7882 0.83434-2.3405 1.2847-4.0069 2.0746-1.8964 1.129-1.0752 0.76994-2.013 1.5512-3.8705 2.7516-1.2161 1.0271-1.3209 1.3782-3.1638 3.6897-1.4733 1.8383-2.396 3.2822-1.3644 1.5875-3.0436 3.3682-0.82732 1.0139-0.98527 1.3174-0.96128 1.4058-0.91333 1.4621-0.80739 1.448-0.69307 1.4262-0.83054 1.9795-2.18 5.6225-3.2381 7.572-1.1776 2.5415-3.9341 7.8241-1.902 4.0214-1.5796 3.5647-1.8382 4.3243-0.85221 2.1192-0.35789 1.0652-0.33452-0.072896-0.7488-0.32633-1.187-0.63176-1.4001-0.87492-1.442-1.0537-0.67257-0.55482-1.3944-1.3083-1.1803-1.3025-1.8722-2.4041-5.348-7.6463-2.5053-3.4073-2.7138-3.4642-2.2396-2.5995-2.105-2.1537-2.0633-1.8838-10.734-9.22-1.8968-1.6798-1.8625-1.7284-2.2754-2.3297-0.72872-0.83134-3.123-3.9032-0.81227-0.89366-0.94642-0.91077-1.021-0.81415-1.1634-0.73195-1.2185-0.61424-2.2537-0.89113-2.4645-0.75471 0.62592-1.001 0.65082-1.2037 1.2898-2.7499 0.86954-2.1449 0.44881-1.2314 0.66553-2.1019 0.26105-0.99955 0.22655-1.0601 0.23462-1.7738-0.015244-2.4197-0.33322-2.4141-0.5515-2.4009-2.1142-7.1075-0.61575-2.3448-1.9854-9.4769-0.61082-2.5782-0.64267-2.3418-0.42442-1.3352-0.46889-1.2899-0.87619-1.9689-0.62748-1.1331-0.92869-1.3496-1.2109-1.359-1.2887-1.1909-1.3747-1.164-1.2378-1.1542-0.96858-1.2749-0.36971-0.8021-0.34704-1.8367 0.08781-2.0615 0.40727-2.2283 0.63876-2.3505 0.80405-2.4388 0.92012-2.5017 1-2.5457 3.2526-7.7814 16.897-39.288 1.2408-2.9826 2.8832-7.3248 9.2718-24.158 2.3504-6.4967 1.9038-5.8144 2.8817-9.5509 2.3072-8.2011 2.2495 0.71086" stroke="#bdc660"/>
    </defs>
    <g clip-path="url(#pc7f05f9c29)">
     <use y="280.512" fill="#bdc660" stroke="#bdc660" xlink:href="#me847cac717"/>
    </g>
   </g>
  </g>
 </g>
 <defs>
  <clipPath id="pc7f05f9c29">
   <rect x="7.2" y="7.2" width="296.24" height="266.11"/>
  </clipPath>
 </defs>
</svg>
