<?xml version="1.0" encoding="UTF-8"?>
<!DOCTYPE svg  PUBLIC '-//W3C//DTD SVG 1.1//EN'  'http://www.w3.org/Graphics/SVG/1.1/DTD/svg11.dtd'>
<svg width="289.17pt" height="280.51pt" version="1.1" viewBox="0 0 289.17 280.51" xmlns="http://www.w3.org/2000/svg" xmlns:xlink="http://www.w3.org/1999/xlink">
 <metadata>
  <rdf:RDF xmlns:cc="http://creativecommons.org/ns#" xmlns:dc="http://purl.org/dc/elements/1.1/" xmlns:rdf="http://www.w3.org/1999/02/22-rdf-syntax-ns#">
   <cc:Work>
    <dc:type rdf:resource="http://purl.org/dc/dcmitype/StillImage"/>
    <dc:date>2024-07-04T12:07:31.623868</dc:date>
    <dc:format>image/svg+xml</dc:format>
    <dc:creator>
     <cc:Agent>
      <dc:title>Matplotlib v3.7.1, https://matplotlib.org/</dc:title>
     </cc:Agent>
    </dc:creator>
   </cc:Work>
  </rdf:RDF>
 </metadata>
 <defs>
  <style type="text/css">*{stroke-linejoin: round; stroke-linecap: butt}</style>
 </defs>
 <g id="figure_1">
  <g id="patch_1">
   <path d="m0 280.51h289.17v-280.51h-289.17v280.51z" fill="none"/>
  </g>
  <g id="axes_1">
   <g id="PatchCollection_1">
    <defs>
     <path id="m8c9bc19c6a" d="m262.3-192.75-0.1707 0.52001 0.13996 1.4706 0.15062 0.91961 0.85967 4.1958 0.60283 2.5541 1.3698 5.2034 2.9966 10.276 0.5927 2.3341 0.42656 2.225 0.2109 2.0454-0.060091 1.6178-0.30666 1.5928-0.51596 1.4311-0.68943 1.3716-1.0343 1.6535-1.5513 2.0363-1.6524 1.8567-2.1793 2.2024-1.3966 1.3191-2.0814 1.8243-2.1329 1.7069-3.2561 2.456-1.5034 1.0738-1.64 1.0364-0.97407 0.55033-1.7742 0.88371-5.3933 2.2559-1.9135 0.70174-1.4745 0.4543-8.9366 2.4701-9.1241 2.8004-9.9511 2.8043-10.906 3.3057-4.6914 1.3285-3.0761 0.66871-3.1454 0.42552-3.5685 0.19486-3.0856 0.041197-3.6732-0.07307-2.7701-0.12997-1.3839-0.12491-2.5488-0.35568-1.41-0.26383-1.6612-0.39359-6.7149-1.9415-3.873-0.94525-2.917-0.4589-3.9501-0.34792-2.374-0.28311-1.4223-0.28146-1.6584-0.52937-1.3071-0.60824-1.5798-0.92829-1.3737-0.97542-1.3201-1.1633-0.9327-1.0248-0.98249-1.2994-2.2583-3.6493-1.4152-2.0085-0.61393-0.63808-0.52987-0.41163-0.25728-0.15975-1.1549-0.48068-1.3428-0.26117-1.8818-0.052489-1.3957 0.12439-1.4356 0.2419-1.6133 0.3948-1.5951 0.51446-2.2539 0.96201-1.6992 0.97114-1.5972 1.2733-1.0665 1.3665-0.58747 1.6817-0.05699 1.5707 0.49126 1.9079 0.83932 1.4317 0.77014 0.82544 1.1354 0.81009 1.3289 0.65489 4.2038 1.45 1.718 0.64045 1.7205 0.73781 1.5877 0.78151 1.5208 0.86369 2.1883 1.5402 1.774 1.7577 1.0759 1.7567 0.24696 0.68703 0.25458 1.2508 0.066141 1.4133-0.14729 1.9285-0.25273 1.7076-0.81309 4.1763-0.27812 1.1961-0.57253 1.943-1.1241 2.7448-1.5213 3.1236-1.0542 2.3833-0.74359 2.0851-0.79583 2.9631-0.42963 2.1168-0.26466 1.9561-0.174 2.4918-0.14617 5.3637-0.30306 2.7404-1.1493 5.8706-0.42119 1.9014-0.63978 2.2725-0.69734 1.8639-0.63673 1.2643-0.80672 1.2702-3.7481 4.8122-1.8039 2.6979-0.69953 1.2058-2.9958 5.8966-0.92737 1.6035-0.70757 1.0936-1.3506 1.8207-0.90419 1.0948-4.2474 4.8731-2.3327 3.0627-1.8122 2.6504-1.7728 2.7248-2.3564 3.7237-0.58855 1.0497-1.6484 0.15652-0.85096-0.016147-0.87303-0.11257-0.84786-0.24196-1.0025-0.53146-0.78904-0.62605-0.72637-0.7344-0.64261-0.76557-1.1817-1.6511-0.87438-1.3929-1.2347-2.2089-0.78112-1.5911-0.62971-1.4689-0.4986-1.3402-0.75776-2.3755-1.8918-6.6964-1.6111-5.3622-0.93563-2.7766-0.78063-1.9537-1.3714-2.9463-1.5935-2.849-1.7216-2.569-1.4746-1.883-0.2764-0.35262-0.10111-0.77742 0.15238-1.7228 0.45767-2.1642 0.68998-2.3976 0.86231-2.477 1.7399-4.586 0.51239-1.7088 0.60588-2.6572 0.48843-3.2028 0.73135-7.3615 0.40122-2.513 0.71514-2.9258 3.918-13.507 1.8411-6.8369 0.8304-3.4228 0.72859-3.4046 0.58217-3.3688 0.37598-3.3117 0.077117-1.4288 0.007995-1.0838-0.084913-1.7882-0.25576-2.1239-0.45847-2.2575-0.74218-2.4915-0.61888-1.6218-0.70857-1.5604-1.4124-2.4778-0.88964-1.2451-0.97317-1.1432-0.89602-0.87873-0.66972-0.55945-0.80429-0.57064-1.0194-0.58055-0.95516-0.42476-1.0236-0.35612-1.8452-0.44845-2.4303-0.31714-1.0806-0.070803-2.9387-0.057829-5.9837 0.083552-2.7229-0.020397-4.1542-0.17006-2.4136-0.22477-1.9314-0.36276-0.98087-0.2712-1.6064-0.58828-1.0855-0.51034-1.2579-0.68739-2.0853-1.3505-1.2964-0.98653-1.6022-1.4143-1.1745-1.2368-1.4914-1.9305-0.9853-1.5133-0.85276-1.4628-0.82605-1.5916-1.3743-2.8888-0.76846-1.4324-1.258-2.0598-1.4882-2.0229-1.6059-1.7581-0.6507-0.63292-3.3266-3.0199-2.0047-1.9191-1.5157-1.7038-0.61386-0.93714-0.42324-0.9778-0.20793-1.0219 0.001848-0.83588 0.24557-1.2871 0.4436-1.2361 1.1541-2.2375 1.5572-2.4839 3.0664-4.5183 3.8469-5.4409 2.9735-4.1221 2.8191-3.7349 3.442-4.203 1.4203-1.5775 2.3243-2.4177 2.3298-2.1612 1.635-1.3012 1.2761-0.88674 1.2508-0.76521 1.5267-0.81 1.8153-0.80026 1.4278-0.50793 1.1684-0.33631 1.893-0.39536 2.691-0.23432 2.4436 0.12842 4.8334 0.72335 2.4086 0.29584 2.4163 0.047503 2.103-0.25843 2.1179-0.51097 2.1986-0.7406 2.9607-1.2703 2.9782-1.5173 2.9966-1.6991 6.0554-3.7489 9.2639-5.9511 3.1347-1.9318 3.1471-1.8339 3.1413-1.679 3.1021-1.4592 4.7453-1.9416 2.0984-0.99598 1.7951-1.1548 1.4637-1.4155 1.0158-1.4797 0.53368-1.3155-0.041071-0.89559 0.97647-0.13246 1.5961 0.36202 1.8771 0.79174 1.875 1.2097 1.6485 1.6402 1.4617 2.5112 0.95441 2.9921 0.55879 3.3184 0.27373 3.521 0.084053 3.6308-0.14241 10.935 0.03531 3.5038 0.18814 3.3568 0.42317 3.1523 0.75939 2.8747 1.2226 2.5025 1.6366 1.9139 2.0191 1.5461 2.2763 1.2093 2.4301 0.8782 2.4952 0.52871 2.2996 0.19209 7.3062 0.13367 1.7701 0.18553 1.6931 0.38868 1.5518 0.62187 1.4399 0.92667 1.2762 1.1097 2.1032 2.1545 0.67738 0.80836 0.495 0.7168 0.60252 1.159 0.47347 1.2262 0.32619 1.0336 1.0564 4.2744 1.3799 4.9204 0.33606 1.3873 0.36618 1.8803 0.28485 2.0862 0.15396 2.0364 0.021063 2.9602-0.3233 6.7582 0.020432 0.67894 0.29233 2.0974 0.63006 1.7505 0.55062 0.83097 0.5121 0.4961 0.9212 0.55786 0.58817 0.22688 1.3579 0.29444 0.8297 0.057993 1.4362-0.068209 1.441-0.23974 1.313-0.34522 1.347-0.46809 1.3632-0.58951 1.8121-0.94095 5.2332-3.0705 2.1768-1.2005 9.3271-4.793 4.5603-2.2489 4.8355-2.4767 1.4786-0.83006 4.4224-2.7482 2.997-1.7508 3.0771-1.5394 2.4976-0.99841 1.3859-0.43285 2.263-0.51604 2.1613-0.33346 8.5248-1.1001 2.1241-0.39901 5.1212-1.1032 2.3421-0.36237 1.7933-0.14677 1.8683 0.014705 1.0134 0.1078 1.1794 0.26824 0.44357 0.1954 0.21132 0.24835" stroke="#bdc660"/>
    </defs>
    <g clip-path="url(#p9be62881f2)">
     <use y="280.512" fill="#bdc660" stroke="#bdc660" xlink:href="#m8c9bc19c6a"/>
    </g>
   </g>
  </g>
 </g>
 <defs>
  <clipPath id="p9be62881f2">
   <rect x="7.2" y="7.2" width="274.77" height="266.11"/>
  </clipPath>
 </defs>
</svg>
