<?xml version="1.0" encoding="UTF-8"?>
<!DOCTYPE svg  PUBLIC '-//W3C//DTD SVG 1.1//EN'  'http://www.w3.org/Graphics/SVG/1.1/DTD/svg11.dtd'>
<svg width="319.02pt" height="280.51pt" version="1.1" viewBox="0 0 319.02 280.51" xmlns="http://www.w3.org/2000/svg" xmlns:xlink="http://www.w3.org/1999/xlink">
 <metadata>
  <rdf:RDF xmlns:cc="http://creativecommons.org/ns#" xmlns:dc="http://purl.org/dc/elements/1.1/" xmlns:rdf="http://www.w3.org/1999/02/22-rdf-syntax-ns#">
   <cc:Work>
    <dc:type rdf:resource="http://purl.org/dc/dcmitype/StillImage"/>
    <dc:date>2024-07-04T12:07:31.905650</dc:date>
    <dc:format>image/svg+xml</dc:format>
    <dc:creator>
     <cc:Agent>
      <dc:title>Matplotlib v3.7.1, https://matplotlib.org/</dc:title>
     </cc:Agent>
    </dc:creator>
   </cc:Work>
  </rdf:RDF>
 </metadata>
 <defs>
  <style type="text/css">*{stroke-linejoin: round; stroke-linecap: butt}</style>
 </defs>
 <g id="figure_1">
  <g id="patch_1">
   <path d="m0 280.51h319.02v-280.51h-319.02v280.51z" fill="none"/>
  </g>
  <g id="axes_1">
   <g id="PatchCollection_1">
    <defs>
     <path id="m1ec3b048e1" d="m213.27-252.15 0.26503 0.16986 0.65474 0.14106 0.91597 0.093795 1.0841 0.019595 1.1856-0.080605 0.76767-0.10874 1.2677-0.24791 1.0447-0.24865 7.7979-2.2053 2.4434-0.55244 1.3624-0.21381 0.83825-0.088508 1.3492-0.06382 1.3337 0.043573 0.65393 0.065266 1.2118 0.19443 1.1964 0.26566 1.1834 0.313 5.1064 1.5423 1.8996 0.62312 0.8858 0.34283 0.75449 0.34746 0.6922 0.3913 1.2791 0.95755 1.1877 1.0044 0.73574 0.76259 2.1196 2.5186 0.74462 0.77211 0.80052 0.66069 0.93608 0.55741 0.89681 0.44613 1.9818 0.88134 6.4176 2.6716 2.488 0.87076 1.2191 0.52496 0.74209 0.40886 0.72622 0.46056 1.0057 0.70931 0.95736 0.74186 1.1422 0.96802 0.83809 0.77539 0.43289 0.45339-1.2715 4.8149-0.28796 1.3379-0.23719 1.5203-0.0727 1.3028 0.091908 1.1219 0.10622 0.50555 0.16696 0.52729 0.20933 0.46904 0.34754 0.55668 0.78833 0.81255 0.9799 0.66499 1.5337 0.7546 1.6801 0.65238 3.4305 1.1814 1.4879 0.57292 0.80492 0.3766 0.73305 0.42722 0.95987 0.75661 0.85763 0.83993 0.95115 0.98289 0.86148 0.98724 0.64146 0.88973 1.5611 2.3927 0.89448 1.483 0.88594 1.6464 0.85438 1.7734 0.79592 1.8751 0.71643 1.993 0.5861 2.0702 0.43363 2.1855 0.296 2.239 0.19359 2.2748 0.11652 2.2967 0.056555 2.307 0.006652 2.307-0.039499 2.2965-0.11167 2.8491-0.27943 3.9028-0.24667 2.0975-0.28077 1.6502-0.46365 1.8211-0.35649 1.0209-0.38536 0.91912-0.92475 1.8416-2.421 4.0126-1.5938 2.9744-3.3762 5.7394-1.3728 2.4869-1.1058 2.1912-1.6671 3.5397-0.26644 0.61318-0.058472 0.30125-0.094971-0.054368-0.077656 0.024019-0.07075 0.27658 0.20836 1.8258 0.040591 0.65575-0.009654 0.67436-0.13973 1.3062-0.30335 1.136-0.48633 0.77849-0.44512 0.24234-0.70707-0.036946-0.83758-0.27156-1.0332-0.2696-0.72045-0.072674-1.0342 0.022626-1.1064 0.1332-2.1918 0.42178-1.0418 0.29651-1.2979 0.51912-1.4393 0.85226-1.3105 0.91247-0.85804 0.70531-0.30315 0.32182-0.44201 0.60211-0.21835 0.40018-0.34308 0.93348-0.49453 2.3548-0.3544 1.289-0.61823 1.13-0.77902 0.73664-0.9944 0.62088-1.1481 0.5564-2.682 1.1757-1.6575 0.86709-1.8002 1.128-3.0516 2.0665-0.91602 0.51757-1.1451 0.4942-0.94587 0.26775-0.58849 0.11215-1.034 0.12169-4.165 0.20602-1.9177 0.049695-1.5367 0.14604-0.91072 0.18888-0.92078 0.2677-1.23 0.46008-1.2379 0.5616-1.2807 0.66635-1.282 0.73714-1.6128 1.0072-1.5436 1.0343-2.3691 1.6984-3.6349 2.6961-1.9782 1.5279-0.66725 0.56271-2.6651 2.457-1.2567 1.0581-0.67268 0.4876-0.67508 0.42222-0.631 0.33254-0.70329 0.29807-0.68582 0.21357-0.48623 0.10195-1.992 0.2499-0.47719 0.1257-0.54942 0.26032-0.32587 0.24053-0.46823 0.47124-0.26192 0.32927-0.43163 0.64117-0.42293 0.72686-0.86476 1.6627-2.6947 5.4549-0.80607 1.4889-0.76709 1.3048-1.3983 2.1151-1.2958 1.784-0.7911 0.98633-0.64436 0.73405-0.73368 0.75916-1.2935 1.169-0.93161 0.73878-0.99934 0.72197-1.0028 0.66803-1.9124 1.1457-2.1919 1.133-2.0133 0.88364-1.3061 0.49248-1.1015 0.36785-1.547 0.44955-1.1197 0.27975-1.9093 0.39732-1.5757 0.25424-2.8662 0.37383-2.0407 0.31706-1.362 0.26676-1.3391 0.31591-1.8397 0.53648-2.0447 0.74109-3.0316 1.2987-1.8215 0.86242-2.3768 1.199-3.659 1.9566-6.9694 3.9048-5.791 3.3936-9.8631 5.9488-5.8935 3.4381-1.7471 1.0893-1.6678 1.1051-8.2351 5.8175-1.8757 1.2202-1.7718 1.0609-2.3533 1.2953-3.5082 1.7788-3.718 1.7718-3.1916 1.4501-2.9219 1.195-1.3769 0.4867-1.4024 0.43387-2.8491 0.72285-3.3503 0.64842-7.9694 1.1698-1.6922 0.31346-1.8156 0.40959-0.96219 0.25952-1.2253 0.38734-1.5138 0.59949-0.70735 0.36342-0.27845 0.18083-0.26795 0.26748-0.012636 0.1267-0.10942 0.12196-0.24496 0.14456-0.75209 0.28856-0.86391 0.17244-0.63598 0.037093-0.8085-0.06989-0.3643-0.075702-2.0861-0.67991-0.51467-0.13881-0.86697-0.13447-0.67187-0.028549-0.85354 0.03622-0.94558 0.12688-0.80414 0.20401-0.36087 0.13609-0.46743 0.23821-0.55358 0.40119-0.42787 0.4076-1.2821 1.461-0.43917 0.44869-0.71798 0.62745-1.0252 0.77463-1.2042 0.79673-0.7777 0.41848-0.40306 0.16852-0.78349 0.20053-0.3039 0.028562-0.64679-0.027258-0.46784-0.084151-0.83003-0.2723-0.51063-0.25731-0.58184-0.39671-0.61624-0.5597-0.23435-0.29009 0.15861 0.005199 0.37394-0.10299 0.29539-0.13898 0.37108-0.2592 0.27701-0.33985 0.13229-0.45151-0.045177-0.51487-0.25836-0.64171-0.43162-0.66107-0.55538-0.66791-1.3374-1.331-1.4904-1.3086-6.9974-5.6886-1.5086-1.2839-1.4497-1.3398-1.9189-2.0436-4.3031-5.0417-4.7207-5.4043-2.883-3.1659-2.8555-2.9938 0.37821-0.34678 6.832-4.6206 2.109-1.4651 2.0946-1.4966 2.0359-1.5123 1.9404-1.5217 1.8088-1.5323 1.6365-1.5497 1.4145-1.579 1.129-1.6254 0.76213-1.694 0.33403-1.756 0.037128-0.97637-0.048588-1.1356-0.21047-1.9429-0.33923-2.0128-0.45946-2.049-0.58454-2.0558-0.72682-2.0355-0.37403-0.89213-0.76811-1.6547-0.8992-1.7621-3.68-6.6859-1.0639-2.0445-1.3551-2.8153-1.1159-2.5307-0.59786-1.4572-0.48731-1.4539-0.33734-1.4317-0.25638-1.4372-0.15798-1.4593-0.023414-1.0239 0.11591-1.6158 0.16908-1.1126 0.40586-1.7576 0.48522-1.5598 0.79202-2.2206 1.3436-3.5652 0.45437-1.3897 0.22461-1.0863 0.055979-0.56723 0.008159-0.63458-0.050606-0.58795-0.11417-0.57105-0.29334-0.78143-0.3003-0.49571-0.25169-0.31058-0.59171-0.53279-0.46568-0.31702-0.4334-0.24568-1.1699-0.54068-4.3132-1.7202-1.3866-0.63905-1.219-0.70369-0.95776-0.79427-0.5866-0.91571-0.13145-0.66186 0.050434-0.70975 0.29838-0.95217 0.52655-0.97628 0.44602-0.6404 0.57651-0.71562 1.1659-1.2688 1.8357-1.7572 2.0309-1.7312 4.3532-3.274 3.1538-2.4684 2.4864-1.8665 0.82857-0.65709 0.83054-0.7436 1.0174-1.0817 0.56315-0.68053 1.1577-1.5723 0.75487-1.1603 0.94423-1.6811 0.47164-0.97746 0.56415-1.3355 0.39115-1.0865 0.31692-1.0201 0.4676-1.8117 0.49522-2.4291 1.2922-7.1135 0.78214-4.6624 0.75295-4.7778 0.28548-2.3471 0.31116-4.5162 0.15434-1.2504 0.12701-0.71435 0.19596-0.85021 0.25226-0.87395 0.35607-1.0227 0.50327-1.2187 0.49318-1.0365 0.44802-0.83633 1.021-1.6509 0.70433-0.94481 0.60998-0.67254 0.90246-0.79953 2.0576-1.5163 1.1416-0.92791 3.0392-2.7526 1.5176-1.4794 0.94385-1.0111 1.7976-2.1033 1.4108-1.7621 4.5601-6.2097 0.92031-1.3199 0.81999-1.2717 3.3399-5.4645 1.1536-2.0275 2.7171-5.0651 1.1074-1.8996 0.72842-1.1332 2.5401-3.7222 1.3639-2.1808 1.2163-2.1051 1.0388-1.9078 0.87933-1.8377 0.21153-0.55402-0.007592-0.12494 0.064868-0.15528 0.14252-0.18604 0.41495-0.37038 0.44202-0.24913 0.45611-0.153 0.36687-0.042512 0.30269 0.02663 0.33937 0.10222 0.84462 0.36688 0.20638 0.011699 0.16975-0.066709 0.12411-0.18817 0.028259-0.14764-0.080644-1.0209 0.051012-0.34387 0.19263-0.23071 0.79929-0.37636 0.31621-0.28374 0.833-1.4084 0.17537-0.459 0.076835-0.33933 0.46445 0.1558 0.82762 0.63934 1.0324 0.99276 1.1072 1.2649 1.0812 1.4858 1.089 1.8654 0.96551 2.024 0.86791 2.119 2.3469 6.4899 0.80978 2.108 0.88317 2.0423 0.99752 1.9551 1.2265 1.9775 1.3597 1.8802 1.4529 1.806 1.5152 1.7495 3.1268 3.3763 5.5667 5.7745 1.6645 1.8587 0.74735 0.94391 1.041 1.5576 0.71597 1.299 0.46172 0.93943 0.48868 1.0943 0.4555 1.1413 1.1775 3.4317 0.67424 1.4748 0.56836 0.95895 0.64918 0.87138 0.70289 0.72028 0.75584 0.53745 0.79545 0.30323 0.62642 0.050867 0.41584-0.043829 0.46872-0.11133 0.92061-0.35195 2.7379-1.4017 0.67797-0.2959 1.2066-0.30338 1.182 0.042807 1.0242 0.23568 1.0297 0.34832 2.1555 0.91874 1.3722 0.73196 1.0603 0.64958 2.393 1.6331 1.0641 0.63263 0.48595 0.23046 0.62466 0.24833 1.4457 0.46182 1.1051 0.29888 1.335 0.26323 0.8752 0.098343 0.86572 0.005955 0.45681-0.05297 0.98383-0.2984 0.89266-0.52505 0.6318-0.57615 0.42872-0.54895 0.47626-0.91101 0.31047-1.0676 0.59823-3.7456 0.5992-2.7527 0.77945-2.9031 0.54078-1.785 1.1207-3.3136 0.57074-1.5017 0.71843-1.7032 0.83734-1.7322 1.6485-2.838 0.74648-1.1047 0.84505-1.0127 0.89412-0.82038 1.0023-0.72825 0.73811-0.45159 1.4161-0.73689 1.4974-0.66452 6.4301-2.5646 2.4936-0.92661 1.4793-0.45495 1.5672-0.39848 1.882-0.41252 1.6731-0.43964 2.5956-0.77212 2.2672-0.75267 1.3555-0.52101 1.2998-0.64834 0.90676-0.59983 1.4621-1.2373 1.0176-1.0331 0.99791-1.1198 1.5169-1.8358 4.7848-6.1189 0.51413-0.51402 0.05944 0.00787" stroke="#bdc660"/>
    </defs>
    <g clip-path="url(#p233ba683a3)">
     <use y="280.512" fill="#bdc660" stroke="#bdc660" xlink:href="#m1ec3b048e1"/>
    </g>
   </g>
  </g>
 </g>
 <defs>
  <clipPath id="p233ba683a3">
   <rect x="7.2" y="7.2" width="304.62" height="266.11"/>
  </clipPath>
 </defs>
</svg>
