<?xml version="1.0" encoding="UTF-8"?>
<!DOCTYPE svg  PUBLIC '-//W3C//DTD SVG 1.1//EN'  'http://www.w3.org/Graphics/SVG/1.1/DTD/svg11.dtd'>
<svg width="263.32pt" height="280.51pt" version="1.1" viewBox="0 0 263.32 280.51" xmlns="http://www.w3.org/2000/svg" xmlns:xlink="http://www.w3.org/1999/xlink">
 <metadata>
  <rdf:RDF xmlns:cc="http://creativecommons.org/ns#" xmlns:dc="http://purl.org/dc/elements/1.1/" xmlns:rdf="http://www.w3.org/1999/02/22-rdf-syntax-ns#">
   <cc:Work>
    <dc:type rdf:resource="http://purl.org/dc/dcmitype/StillImage"/>
    <dc:date>2024-07-04T12:07:21.900186</dc:date>
    <dc:format>image/svg+xml</dc:format>
    <dc:creator>
     <cc:Agent>
      <dc:title>Matplotlib v3.7.1, https://matplotlib.org/</dc:title>
     </cc:Agent>
    </dc:creator>
   </cc:Work>
  </rdf:RDF>
 </metadata>
 <defs>
  <style type="text/css">*{stroke-linejoin: round; stroke-linecap: butt}</style>
 </defs>
 <g id="figure_1">
  <g id="patch_1">
   <path d="m0 280.51h263.32v-280.51h-263.32v280.51z" fill="none"/>
  </g>
  <g id="axes_1">
   <g id="PatchCollection_1">
    <defs>
     <path id="mc32fbad5a5" d="m188.77-259.17 0.44865 0.7763 0.87822 2.0738 1.0892 2.8943 0.8259 2.4158 1.5583 5.1255 3.4783 12.237 2.0113 6.299 1.0773 3.0717 2.3309 6.048 4.4522 10.968 3.4271 8.1899 0.87063 2.2653 0.70931 2.1071 0.71139 2.7266 0.30659 1.8891 0.10112 1.8221-0.14184 1.7737-0.22247 1.0423-1.046 2.5877-1.5857 2.4682-1.9751 2.3815-2.2471 2.3202-2.4257 2.2787-7.6209 6.7353-2.4352 2.2531-2.2626 2.278-1.9983 2.3181-1.6195 2.3768-1.0954 2.4587-0.23022 0.90439-0.13578 2.7543 0.51629 2.8697 0.99141 2.9544 1.3326 3.0158 1.5737 3.06 1.7412 3.0915 1.8553 3.1141 3.9113 6.273 27.022 42.12 6.7849 10.32 2.3387 3.4294 4.0216 5.641 2.346 3.1107 3.7501 4.7001 0.62242 0.85417-5.603 4.9391-5.3484 5.2531-1.7577 1.3614-4.045 2.8555 1.1008 3.7397-11.129 6.7754-2.802 1.594-1.0698 0.69657-1.5019 1.267-3.8117 3.7586-0.817 0.69062-0.89549 0.63921-1.2434 0.73998-1.3232 0.69272-5.1046 2.3978-0.26328 0.07774-1.584-0.36964-2.5499-0.84956-6.6215-2.4969-14.979-5.8261-6.5065-2.3822-16.267-5.747-7.0611-2.6151-3.4262-1.3592-3.3345-1.4222-3.2164-1.5152-3.0616-1.6475-2.8573-1.8313-2.5876-2.0818-0.95061-0.92665-1.1706-1.2745-6.8696-8.3731-1.7073-1.9248-1.3107-1.3714-2.5452-2.3899-2.6873-2.2742-5.56-4.4056-2.7589-2.2296-1.7933-1.5332-1.732-1.5894-1.3279-1.3243-1.4393-1.573-1.4933-1.8204-1.3855-1.8979-1.3569-2.1007-1.2431-2.1663-1.1218-2.1744-2.56-5.5682-4.3579-9.1843-1.3417-3.1134-1.1505-3.1821-1.1255-4.1347-3.6133-15.828-1.6396-6.4698-0.9384-3.1954-0.93523-2.8114-1.043-2.7617-1.2303-2.8317-1.3929-2.7409-1.8303-3.0237-2.0331-2.8874-2.1944-2.7575-2.3284-2.6199-2.448-2.4598-2.3531-2.0867-2.4564-1.8732-2.572-1.5981-2.7073-1.2423-2.4481-0.73335-2.5277-0.47788-3.146-0.34276-8.3817-0.51945-2.8229-0.34541-2.4702-0.58967-1.7853-0.78671-1.3463-0.94377-0.58305-0.62155-0.38972-0.87719-0.021936-0.23983 0.082266-0.65273 0.82322-1.6598 1.5101-1.8491 2.0044-1.9859 2.3542-2.0833 5.3589-4.3498 5.8106-4.48 30.114-22.83 31.268-24.083 4.9409-3.6984 17.415-12.773 0.18328-0.2412 0.52198-0.28956 0.76177-0.27942 0.93228-0.21191 1.324-0.11242 1.4373 0.046049 1.4987 0.17049 1.5261 0.26152 3.0591 0.69195 8.868 2.4227 2.8696 0.69552 1.4287 0.28347 1.4279 0.21965 2.4095 0.18637 2.7646 0.001388 4.0462-0.090696 2.545 0.089056 1.1902 0.153 1.1104 0.26281 2.4201 0.97741 0.8237 0.25804 1.0527 0.15612 1.1265 0.012125 1.1866-0.098457 2.5144-0.42677 7.6682-1.8152 9.4346-1.8368 2.4395-0.57263" stroke="#bdc660"/>
    </defs>
    <g clip-path="url(#pff711d4445)">
     <use y="280.512" fill="#bdc660" stroke="#bdc660" xlink:href="#mc32fbad5a5"/>
    </g>
   </g>
  </g>
 </g>
 <defs>
  <clipPath id="pff711d4445">
   <rect x="7.2" y="7.2" width="248.92" height="266.11"/>
  </clipPath>
 </defs>
</svg>
