<?xml version="1.0" encoding="UTF-8"?>
<!DOCTYPE svg  PUBLIC '-//W3C//DTD SVG 1.1//EN'  'http://www.w3.org/Graphics/SVG/1.1/DTD/svg11.dtd'>
<svg width="371.52pt" height="260.16pt" version="1.1" viewBox="0 0 371.52 260.16" xmlns="http://www.w3.org/2000/svg" xmlns:xlink="http://www.w3.org/1999/xlink">
 <metadata>
  <rdf:RDF xmlns:cc="http://creativecommons.org/ns#" xmlns:dc="http://purl.org/dc/elements/1.1/" xmlns:rdf="http://www.w3.org/1999/02/22-rdf-syntax-ns#">
   <cc:Work>
    <dc:type rdf:resource="http://purl.org/dc/dcmitype/StillImage"/>
    <dc:date>2024-07-04T12:07:24.795547</dc:date>
    <dc:format>image/svg+xml</dc:format>
    <dc:creator>
     <cc:Agent>
      <dc:title>Matplotlib v3.7.1, https://matplotlib.org/</dc:title>
     </cc:Agent>
    </dc:creator>
   </cc:Work>
  </rdf:RDF>
 </metadata>
 <defs>
  <style type="text/css">*{stroke-linejoin: round; stroke-linecap: butt}</style>
 </defs>
 <g id="figure_1">
  <g id="patch_1">
   <path d="m0 260.16h371.52v-260.16h-371.52v260.16z" fill="none"/>
  </g>
  <g id="axes_1">
   <g id="PatchCollection_1">
    <defs>
     <path id="m5c5add65e2" d="m317.15-205.45 0.078046 0.26947-0.1785 0.72184-0.47811 1.2151-1.0861 2.2708-3.2237 6.0948-1.3691 2.7231-1.1549 2.6462-0.50013 1.3725-0.42843 1.4356-0.30969 1.4355-0.13815 1.058-0.06095 1.054 0.016124 1.0455 0.092414 1.0119 0.16699 0.9947 0.24224 0.97222 0.3827 1.1032 0.48699 1.0558 0.65221 1.0935 0.76514 1.0182 0.73883 0.80789 0.80205 0.75034 0.96393 0.77656 1.0237 0.69825 1.0828 0.60554 0.89932 0.40273 0.93261 0.33594 1.1412 0.31625 1.1725 0.23897 2.1325 0.27343 7.7743 0.461 2.4719 0.239 1.2382 0.1766 1.5677 0.29998 1.5613 0.39611 1.1938 0.37817 1.1828 0.44286 1.1671 0.50826 1.3247 0.67067 1.285 0.74734 1.2292 0.80921 0.99028 0.7264 1.7228 1.437 0.72006 0.68178 0.65918 0.72586-8.8444 9.5101-3.2002 3.2448-2.8657 2.6864-5.5786 4.9526-3.4642 3.2827-2.0083 1.7625-2.7976 2.3125-3.3373 2.8616-1.5986 1.1479-3.3826 1.9547-0.60486 0.43695-0.38641 0.34367-0.35994 0.39974-0.35518 0.52592-0.42153 1.007-0.20528 0.99351-0.19014 1.6418-0.21668 0.88311-0.21511 0.52515-0.58777 0.98799-0.46269 0.62005-0.8149 0.96673-1.3999 1.4492-1.0424 0.90924-1.7674 1.3313-7.8365 5.4385-1.5556 1.2535-2.7927 2.5066-2.0818 1.7737-1.261 0.95264-1.0228 0.62594-1.4716 0.7191-1.0343 0.41061-1.2864 0.42328-1.0262 0.26246-1.3602 0.21976-1.0626 0.074857-1.7034-0.01768-4.6835-0.29077-3.2826-0.46569-1.6624-0.42135-1.0796-0.40564-2.9478-1.2379-1.3355-0.40905-0.91695-0.19845-1.2744-0.13623-0.85245-0.001611-0.98812 0.08198-0.77503 0.12631-1.5252 0.36708-1.4973 0.45931-1.3574 0.47984-3.3397 1.3389-5.4342 2.6184-2.9055 1.2402-7.3975 2.7323-3.6557 1.2134-2.0659 0.59052-2.116 0.44823-2.294 0.38754-2.4186 0.29873-1.694 0.088592-1.5645-0.024198-1.4643-0.1071-3.9963-0.6018-1.1579-0.017409-0.71063 0.10338-0.70835 0.20494-0.45292 0.19016-0.8866 0.52506-0.74669 0.6324-0.69845 0.81597-0.52683 0.84356-1.5574 3.334-1.0172 1.8025-1.2112 1.7078-1.1879 1.3444-1.3533 1.2224-1.4377 1.047-1.4011 0.79513-0.40691 0.14753-0.24494 0.037129-0.20064-0.048543-0.22312-0.17663-0.84793-0.47456-2.1013-0.97307-1.5266-0.54849-0.80816-0.23312-1.3346-0.29268-0.72135-0.10832-1.3374-0.11219-1.7032 0.006955-1.4665 0.12639-1.644 0.28925-1.2254 0.34219-1.3262 0.50232-1.2069 0.57209-1.7822 0.97814-5.4654 3.1556-2.1389 1.2955-2.8193 1.8261-2.6002 1.8595-2.2876 1.9018-2.0451 1.9856-1.4247 1.5867-0.76606 0.95836-0.93864 1.3389-0.83536 1.4576-0.68948 1.5106-1.9054 5.1547-1.0127 2.4135-0.90824 1.9401-0.61603 1.1507-0.67176 1.0947-1.1797 1.6892-1.4875 1.9285-1.1814 1.4077-1.1465 1.2572-1.6011 1.6576-3.6971 3.6605-1.392 1.5033-2.3039 2.628-1.5216 1.5443-1.6489 1.4333-1.7744 1.2836-1.905 1.0848-2.1215 0.87172-2.2353 0.63398-2.3146 0.42552-2.364 0.2328-2.3869 0.043258-6.5167-0.33322-2.8504-0.0266-3.2336 0.045386-4.4744 0.16378-2.9673 0.17677-3.2479 0.28048-4.7107 0.55436-4.207 0.69352-2.0808 0.4683-1.7793 0.51224-0.95868 0.34004-1.144 0.49857-0.87432 0.48873-0.55738 0.43539-0.15167 0.23079-0.1003-0.17905-0.56452-0.33001-1.3781-0.41685-1.6189-0.30626-1.8547-0.23696-2.6098-0.20514-4.1541-0.21182-1.6771-0.14423-1.8763-0.29936-1.6791-0.47921-1.481-0.68014-1.8435-1.3586-1.5222-1.8421-0.66464-1.1887-0.53665-1.2788-0.47817-1.5838-0.34197-1.6629-0.25889-2.0447-0.13117-2.1068-0.02217-2.6576 0.10352-2.6997 0.39915-4.6244 0.27506-2.323 0.67491-4.7844 0.7701-4.6298 2.0847-11.106 0.74461-4.8569 0.27672-2.4263 0.2046-2.6094 0.089113-2.5993-0.02655-2.0613-0.12146-2.046-0.22612-2.0249-0.33818-1.9791-0.45355-1.9455-0.57241-1.9042-0.93265-2.4047-1.1425-2.3022-1.3396-2.1568-1.5429-2.0191-1.2906-1.414-1.3932-1.3263-1.4858-1.2387-1.809-1.3174-1.8925-1.2262-1.9498-1.1596-6.1123-3.4854-1.3584-0.86041-2.2374-1.5961-2.0721-1.7648-1.9248-2.0408-1.6397-2.2602-1.1426-2.1314-0.88209-2.2844-0.67105-2.682-0.383-2.8173-0.11385-2.1291 0.016078-2.1778 0.17023-2.5572 0.32929-2.6726 0.38969-2.2975 0.57206-2.6792 0.69448-2.6639 0.81473-2.6343 1.2684-3.4402 0.8974-2.107 0.87164-1.8361 0.70689-1.2903 0.12898-0.27421 1.0318-0.92858 1.3527-1.0189 1.9493-1.3215 1.9937-1.2319 2.5237-1.4359 2.7837-1.4622 9.1789-4.52 2.6691-1.4272 2.0509-1.1932 2.7043-1.7311 2.6299-1.8677 2.1146-1.6387 2.0491-1.7073 1.468-1.296 1.9097-1.782 1.7483-1.7391 1.9653-2.0872 3.1613-3.6479 2.8726-3.5863 5.6083-7.2361 9.7493-12.984 1.1768-1.4613 1.9893-2.2918 1.2653-1.3151 1.4233-1.3274 1.5909-1.2903 1.5797-1.0835 1.5304-0.87142 1.3371-0.62729 1.4558-0.55496 1.6797-0.49385 1.5481-0.33537 1.9348-0.28316 2.3131-0.1692 2.4591-0.008178 1.8592 0.098212 2.4917 0.2647 2.7839 0.46687 2.6185 0.59159 2.6706 0.74846 1.9113 0.6242 2.0431 0.75056 2.5527 1.0514 2.3472 1.0649 2.3353 1.138 3.0624 1.5963 2.4852 1.3671 9.8953 5.7123 2.622 1.4553 2.5568 1.3289 3.2013 1.4818 1.5679 0.63223 1.8044 0.64055 1.8269 0.5494 2.6393 0.60889 1.7197 0.27768 1.7336 0.1888 1.7429 0.10468 2.8369 7.53e-4 1.6689-0.092087 1.6691-0.15412 2.4176-0.32179 2.7668-0.4935 1.6388-0.35213 3.1492-0.78885 2.9869-0.87563 3.723-1.2625 2.6656-1.0228 2.6592-1.1317 1.7035-0.7887 1.6859-0.83376 2.5814-1.385 1.4482-0.83067 2.9671-1.8062 8.321-5.4265 2.2611-1.4088 1.8315-1.0771 2.8102-1.5276 2.7821-1.3641 2.2362-0.98838 3.5672-1.3837 2.28-0.75958 2.6672-0.7737 2.9935-0.73107 1.7875-0.37221 2.5492-0.45417 2.8489-0.41419 2.3492-0.27495 3.4974-0.29972 1.7414-0.1005 2.9484-0.049983 9.5643 0.18304 4.012-0.050055 2.7716-0.14512 3.5539-0.27589 2.7849-0.2929 3.8705-0.50594 2.8438-0.45242 3.7161-0.68987 4.9596-1.039 2.5155-0.63737 1.764-0.5741 2.3166-0.96327 1.4087-0.7152 2.4078-1.4183-1.0564 1.8934-0.95742 1.9529-0.95315 2.2927-0.77377 2.2782-0.51442 2.1225-0.28548 2.0026-0.10342 1.9043 0.068171 2.0333 0.17424 1.3858 0.13523 0.68325 0.35344 1.3505 0.44437 1.3301 0.83474 2.0044 3.4428 7.3059 1.5192 3.6693 0.46629 1.2432 0.26869 0.88223" stroke="#bdc660"/>
    </defs>
    <g clip-path="url(#p451a7ea8f2)">
     <use y="260.155851" fill="#bdc660" stroke="#bdc660" xlink:href="#m5c5add65e2"/>
    </g>
   </g>
  </g>
 </g>
 <defs>
  <clipPath id="p451a7ea8f2">
   <rect x="7.2" y="7.2" width="357.12" height="245.76"/>
  </clipPath>
 </defs>
</svg>
