<?xml version="1.0" encoding="UTF-8"?>
<!DOCTYPE svg  PUBLIC '-//W3C//DTD SVG 1.1//EN'  'http://www.w3.org/Graphics/SVG/1.1/DTD/svg11.dtd'>
<svg width="221.92pt" height="280.51pt" version="1.1" viewBox="0 0 221.92 280.51" xmlns="http://www.w3.org/2000/svg" xmlns:xlink="http://www.w3.org/1999/xlink">
 <metadata>
  <rdf:RDF xmlns:cc="http://creativecommons.org/ns#" xmlns:dc="http://purl.org/dc/elements/1.1/" xmlns:rdf="http://www.w3.org/1999/02/22-rdf-syntax-ns#">
   <cc:Work>
    <dc:type rdf:resource="http://purl.org/dc/dcmitype/StillImage"/>
    <dc:date>2024-07-04T12:07:25.399507</dc:date>
    <dc:format>image/svg+xml</dc:format>
    <dc:creator>
     <cc:Agent>
      <dc:title>Matplotlib v3.7.1, https://matplotlib.org/</dc:title>
     </cc:Agent>
    </dc:creator>
   </cc:Work>
  </rdf:RDF>
 </metadata>
 <defs>
  <style type="text/css">*{stroke-linejoin: round; stroke-linecap: butt}</style>
 </defs>
 <g id="figure_1">
  <g id="patch_1">
   <path d="m0 280.51h221.92v-280.51h-221.92v280.51z" fill="none"/>
  </g>
  <g id="axes_1">
   <g id="PatchCollection_1">
    <defs>
     <path id="mc87ec9d059" d="m81.84-260.16 0.089541-0.13553 0.18542-0.09466 0.19786-0.018327 0.42878 0.084737 0.44783 0.1973 0.36532 0.22515 0.52763 0.41295 0.67759 0.6572 0.86277 0.98316 0.95867 1.2031 1.2082 1.6157 0.67092 0.80342 0.58807 0.5873 0.81957 0.66972 3.417 2.3084 3.2962 2.1026 1.3648 0.96528 0.91669 0.7633 0.92079 0.87039 1.1214 1.1378 0.49628 0.46364 0.43945 0.34802 0.36997 0.24002 0.49363 0.25615 1.566 0.59734 0.7151 0.31686 0.4973 0.2979 1.2793 0.95062 0.56232 0.35172 0.38736 0.1834 0.34302 0.11958 0.67511 0.14184 0.41077 0.043526 1.0965 0.021304 2.9223-0.14016 2.5341-0.026515 1.3911 0.091565 0.60046 0.085239 0.68848 0.1416 0.48728 0.12998 0.74236 0.24811 1.0929 0.47988 1.2644 0.66673 2.0708 1.2444 1.0534 0.58068 1.2023 0.60064 1.4825 0.65997 1.0639 0.39616 0.85344 0.24189 1.0821 0.19103 0.73125 0.05525 0.4546-0.005859 0.5401-0.059858 0.53335-0.11547 0.5757-0.17818 0.73329-0.31054 0.45188-0.24414 0.42213-0.27131 0.38933-0.29466 0.30974-0.27151 0.40368-0.41579 0.24462-0.29463 0.40214-0.57585 0.25039-0.4327 0.23564-0.4806 0.36138-0.96553 0.23007-0.894 0.18392-1.1829 0.27283-2.9512 0.23569-2.214 0.038011-1.0936-0.029282-0.46975-0.1208-0.75619-0.20466-0.81427-0.46636-1.557-0.25607-1.0715-0.11553-1.0314-0.002726-0.81104 0.055824-0.68414 0.11864-0.73611 0.08562-0.37306 0.16553-0.53281 0.30212-0.59438 0.19576-0.23307 0.25546-0.19629 0.41807-0.17353 0.64502-0.092234 0.61928-0.019538 2.2358 0.012304 0.61787-0.012995 0.93993-0.067919 6.4107-0.92266 5.1652-0.68205 1.2249-0.12707 1.4699-0.037284 0.91286 0.039121 1.0611 0.1121 1.0088 0.19958 0.93831 0.27143 1.4644 0.52824 1.3588 0.604 0.71732 0.37293 0.3917 0.23426 0.19765 0.16008 0.048569 0.11354-0.032547 0.058553 0.020661 0.13584 0.11078 0.36412 0.42065 0.99797 0.59201 1.0988 0.7966 1.3134 0.76335 1.112 0.87287 1.1414 0.84118 0.99434 1.0249 1.0795 0.92066 0.83032 1.0179 0.77661 0.69752 0.4592 1.6113 0.9805 0.72354 0.50198 0.66197 0.52158 0.84069 0.78812 1.6436 1.7183 1.7751 1.6067 1.4278 1.394 0.68111 0.70396 1.3344 1.4935 0.62489 0.62833 0.48604 0.41633 0.76571 0.56808 2.5486 1.6819 0.66665 0.4801 0.86422 0.74589 0.72114 0.75748 0.37126 0.45707 0.40194 0.57521 0.38202 0.64048 0.38722 0.7633 0.44693 1.0613 0.87221 2.4377 0.50721 1.1495 0.33941 0.61032 0.30582 0.46974 0.41323 0.5415 0.46131 0.51007 0.52134 0.49821 0.77735 0.63491 0.61052 0.42962 0.83453 0.5244 1.0946 0.62021 1.5205 0.7882 0.7628 0.33093 0.54531 0.16036-0.15066 0.62458-0.17428 1.0506-0.056614 0.74625 0.030503 0.36332 0.056784 0.23235 0.22749 0.45796 0.32943 0.42043 0.74225 0.83838 0.3081 0.47574 0.19506 0.49328 0.1224 0.54071 0.06509 0.5729 0.018966 0.59264-0.019831 0.602-0.054788 0.60235-0.089117 0.59435-0.12587 0.57802-0.16806 0.55279-0.19201 0.48525-0.44873 1.0242-0.50587 0.98207-0.28512 0.44902-0.31532 0.40414-1.0612 1.0644-0.33642 0.47846-0.29036 0.54505-0.25607 0.59566-0.44395 1.2976-0.57968 2.1108-2.3143 9.481 0.019362 0.42222-0.2516 0.62018-0.47891 0.69761-0.69005 0.66733-0.8463 0.5444-0.98929 0.46954-2.2372 0.91533-1.4625 0.68795-1.4809 0.79155-1.4837 0.86459-1.4778 0.91074-4.3674 2.8056-2.8548 1.7674-1.4127 0.80103-1.404 0.71531-1.3958 0.59888-1.0365 0.34915-0.99848 0.24089-0.99144 0.12183-1.1392-0.022395-1.1355-0.13947-2.2787-0.34102-1.152-0.060543-1.2686 0.11047-0.89245 0.18639-0.55085 0.15855-0.67312 0.23946-0.85583 0.37728-0.71976 0.38187-0.58966 0.36075-0.60162 0.41805-0.7708 0.61346-1.0984 1.0189-1.0958 1.1398-0.66958 0.74369-1.6227 1.9815-1.329 1.7608-1.4018 1.9433-1.8136 2.5651-1.4456 2.1301-0.73411 1.171-0.5441 1.0549-0.20913 0.58276-0.11577 0.60677-8.72e-4 0.39407 0.098029 0.48175 0.19954 0.46098 0.2894 0.44181 0.71454 0.80325 0.9451 0.90477 1.5683 1.4237 0.30677 0.29839 0.7571 0.82886 0.70162 0.9537 0.59309 0.97105 0.36228 0.67529 0.64792 1.3619 0.38943 0.75033 0.40202 0.68963 0.46451 0.71341 0.70312 0.9101 0.55372 0.58306 0.75535 0.66675 0.61119 0.46509 0.98309 0.63669 0.59301 0.32407 0.51174 0.2406 0.75733 0.27734 0.46242 0.12786 0.91053 0.17102 1.1379 0.10596 1.9585 0.080171 1.2837 0.009617 2.821-0.03939 1.3854 0.027262 0.50945 0.03338 1.1457 0.14951 0.86992 0.21142 0.48255 0.16789 0.4503 0.20025 0.48057 0.2737 0.37917 0.26902 0.31574 0.26375 0.42242 0.41427 0.4588 0.53897 0.41942 0.58697 0.66586 1.1682 0.33405 0.73563 0.29177 0.76459 0.3499 1.1746 0.21614 1.0643 0.12058 1.0013 0.040032 0.84304-0.00377 0.51095-0.036356 0.67361-0.17725 1.5613-0.27446 1.5882-0.34349 1.6051-0.39148 1.6136-0.86797 3.2232-1.8471 6.3677-0.33714 1.3794-0.18916 1.1847-0.34479 3.4705-0.23026 1.5099-0.28564 1.2527-0.24156 0.80562-0.82025 2.162-0.40653 1.1678-0.32528 1.1303-0.21577 1.0203-0.071841 0.81218 0.047669 0.36651 0.13031 0.16624-4.5116 1.7356-2.1721 0.86572-2.2001 0.91248-2.1302 0.92261-2.047 0.94615-0.98791 0.49271-0.95991 0.51501-0.92673 0.54695-0.88618 0.59133-0.7944 0.61014-0.77243 0.67008-1.4598 1.4357-2.0757 2.279-3.3842 3.8907-2.2526 2.5292-2.6075 2.8108-2.5416 2.6631-1.514 1.4965-1.1676 1.0616-0.83879 0.67999-0.60714 0.42471-0.73225 0.41461-0.5556 0.23431-0.25883 0.08292-0.99632 0.17276-1.027-9.54e-4 -1.0023-0.12511-0.8995-0.19668-0.68208-0.20317-0.29581-0.12224-0.3309-0.06718-3.6369-1.0985-1.6024-0.44293-3.8043-0.9483-2.0929-0.46338-1.2407-0.23844-1.9788-0.29029-0.76338-0.066908-0.84385-0.029336-0.96414 0.046387-0.66924 0.09612-0.85253 0.19673-0.71106 0.22155-0.5493 0.20552-0.77422 0.34235-0.53199 0.27291-0.67814 0.39715-0.49888 0.33325-0.57101 0.43462-0.61942 0.55661-0.35238 0.37128-0.45062 0.5592-0.43857 0.67642-0.34984 0.65195-0.39019 0.84652-0.76562 1.846-0.45627 1.0093-0.7094 1.2639-0.78233 1.0384-0.91057 0.96878-0.9702 0.87832-1.042 0.83614-0.98643 0.72359-1.8969 1.269-2.075 1.2676-5.7406 3.3659-2.0535 1.2831-1.204 0.80549-1.7942 1.3207-0.80939 0.66356-0.66508 0.59372-0.62771 0.6179-0.57086 0.6335-0.51846 0.66885-0.59376 0.94068-0.3889 0.73828-0.35261 0.76553-0.49882 1.2607-0.52874 1.5694-1.2758 4.269-0.43563 1.3534-0.86892 2.4292-0.74929 1.7801-0.59576 1.2442-0.38594 0.72928-0.49877 0.85437-0.84024 1.2393-0.45912 0.58059-0.4204 0.47767-0.40825 0.41828-0.53918 0.48939-0.58879 0.46305-0.75854 0.50387-0.5335 0.30306-0.95316 0.46204-1.5282 0.58495-0.94637 0.28799-1.4824 0.34832-0.6624 0.10432-0.613 0.047377-0.41725-0.033694-0.14564-0.13726 0.65389-0.75679 0.99145-1.2725 0.77657-1.0855 1.0354-1.5879 6.2633-10.138 1.7867-2.9568 0.96779-1.6683 1.1455-2.1176 0.59972-1.2379 0.37091-0.86072 0.30536-0.83377 0.19632-0.69292 0.12004-0.66478 0.030113-0.45377-0.009708-0.29398-0.063921-0.41758-0.11128-0.35247-0.27935-0.50906-0.61695-0.67336-0.90177-0.65295-0.56735-0.32174-0.60988-0.30024-0.77991-0.33477-0.82172-0.30736-1.6926-0.52-1.2887-0.3189-0.9532-0.20183-2.6799-0.48522-4.5564-0.67875-0.74208-0.13209-1.2164-0.27076-0.78275-0.23973-0.46602-0.18454-0.50846-0.25697-0.53505-0.36924-0.39436-0.37878-0.32163-0.39468-0.32973-0.48471-2.1955-3.7362-0.59685-1.1517-1.1695-2.466-1.6791-3.4115-0.35118-0.77067-0.13149-0.36457 0.052947-0.50054-0.060945-0.90769-0.18365-1.0978-0.32324-1.1199-0.48343-1.0134-0.67026-0.80117-0.60483-0.39922-0.92321-0.33586-0.60282-0.12485-0.98504-0.12336-3.113-0.18491-1.2706-0.13835-1.198-0.29827-0.86485-0.38162-0.81738-0.47044-1.7304-1.0917-0.61119-0.34863-3.5318-1.5618-3.2783-1.6171-1.2755-0.60243-1.2761-0.55118-1.7486-0.6743-1.2263-0.51845-0.65762-0.335-0.61257-0.37538-0.39504-0.29179-0.65269-0.61142-0.56731-0.67567-0.54798-0.78435-0.35727-0.67269-0.23401-0.65712-0.16386-0.71557-0.12754-1.0643-0.028417-1.1926 0.041177-0.948 0.12214-1.2062 0.2155-1.3195 0.29268-1.3102 0.3507-1.259 0.60115-1.7377 0.61242-1.3938 0.43849-0.82516 0.33152-0.54411 0.57386-0.80669 0.42734-0.50483 0.71805-0.70134 0.85592-0.65745 0.42657-0.27367 0.74106-0.40995 0.79629-0.36835 0.75027-0.29328 0.82786-0.27429 1.0336-0.28574 1.027-0.2355 1.0548-0.20328 1.4006-0.22458 1.9492-0.253 4.0885-0.41646 1.556-0.19142 1.5249-0.27246 1.0863-0.29273 0.60499-0.22406 0.69646-0.34304 0.39521-0.25417 0.40758-0.33146 0.52035-0.59164 0.31032-0.49956 0.18607-0.39178 0.18378-0.5087 0.13588-0.53204 0.11872-0.84264 0.022445-0.54403-0.012423-0.48141-0.11977-1.0015-0.21785-0.93064-0.29932-0.90961-0.4882-1.1821-0.47527-1.0014-1.8427-3.6263-0.35273-0.77196-0.44345-1.1064-0.34109-1.0686-0.17355-0.72716-0.091877-0.53195-0.085744-1.1349 0.063025-1.1307 0.089905-0.57839 0.17584-0.77716 0.2389-0.78934 0.25917-0.7015 0.57203-1.3064 1.5111-3.101 0.48078-1.0392 0.51785-1.2063 0.97858-2.4569 0.37091-0.86368 0.44082-0.84932 0.55686-0.93576 2.1077-3.2071 0.39784-0.83894 0.18481-0.70507 0.072442-0.70418-0.013811-2.3247 0.1165-1.167 0.14558-0.73368 0.20503-0.72684 0.87695-2.2789 0.39014-1.2069 0.11244-0.49728 0.10096-0.76978 0.012236-0.40792-0.052738-0.65073-0.11107-0.48821-0.079599-0.23362-0.36198-0.70733-0.47392-0.66662-1.2537-1.5007-1.0771-1.1492-1.2398-1.2226-0.66621-0.7129-0.63248-0.73636-0.54953-0.69032-2.2377-2.9957-0.48335-0.74506-0.26514-0.51069-0.25386-0.59496-0.14621-0.4038-0.51912-1.9718-0.15247-0.45583-0.21192-0.45248-0.14267-0.22695-0.62165-0.64726-0.51331-0.33614-0.58245-0.25993-0.75021-0.19386-0.7797-0.061018-0.78925 0.078664-0.96646 0.29678-0.84864 0.44005-0.62792 0.47239-0.26478 0.38301-0.13809-0.43621-0.30007-1.436-0.5152-2.7323-0.37533-2.2224-0.13057-0.9408-0.1032-1.0043-0.044806-0.81995 0.015576-1.1373 0.14104-1.2812 0.34007-2.2363 0.27168-2.0345 0.28144-1.6096 0.20761-0.80327 0.43311-1.1196 0.50968-0.869 0.40793-0.56291 0.64956-0.79188 1.8634-2.0329 1.0234-1.0262 0.58975-0.53356 0.61599-0.49714 0.43138-0.30714 0.5916-0.36639 1.095-0.54033 1.1504-0.41814 1.2461-0.31197 0.71486-0.12159 1.0619-0.12137 1.0501-0.073274 1.2431-0.04722 1.1576 0.013123 0.88926 0.062319 1.7698 0.21374 0.79284 0.04606 0.90009-0.024818 0.76673-0.08742 0.85138-0.19594 0.88022-0.3406 0.96224-0.52153 0.87075-0.61327 0.76487-0.65722 0.28396-0.29297 0.4585-0.55156 1.0763-1.4839 0.20926-0.34185 0.35665-0.6809 0.82801-1.7386 0.40439-0.91707 0.74083-1.8329 0.52101-1.3844 0.69924-1.9915 0.32892-1.0117 0.40006-1.4988 0.18482-0.9547 0.099437-0.71418 0.093093-1.3996-0.015555-0.85223-0.076803-0.84451-0.21199-1.1857-0.36412-1.4057-0.31481-1.0109-1.7905-5.3532-1.3138-4.1331-0.3569-0.92197-0.41305-0.85136-0.52039-0.85932-0.4452-0.61578-0.7779-0.93182-3.0555-3.3217-2.6782-2.7329-0.69898-0.79955-0.60402-0.84169-0.29848-0.51455-0.50146-1.1386-0.17679-0.65911-0.07826-0.65557 0.006569-0.42714 0.10887-0.72933 0.24995-0.79286 0.15187-0.33918 0.20475-0.35863 0.18156-0.22406 0.16017-0.098783 0.050788-0.13087 0.2013-0.24795 0.41457-0.33965 0.289-0.161 0.22438-0.089266 0.37529-0.087973 0.35876-0.023375 2.2742 0.17599 0.81573-0.017109 1.5198-0.15262 0.65144 0.032069 0.6319 0.1221 1.6861 0.51956 0.81864 0.21813 0.58018 0.10091 0.55658 0.022062 0.33376-0.038319 0.37845-0.094139 0.40102-0.15606 0.48767-0.25912 0.92635-0.55676 0.40233-0.19166 0.8125-0.327 1.462-0.51286 2.1984-0.65093 3.6986-1.2975 0.6929-0.29824 0.7596-0.38708 0.86082-0.49589 1.6684-1.0342 0.37736-0.169 0.4204-0.14205 1.9237-0.55434 0.33985-0.050799 0.32736 0.013511 0.40985 0.12738 0.44735 0.27933 0.41469 0.36938 0.23532 0.26321" stroke="#bdc660"/>
    </defs>
    <g clip-path="url(#pe6a27894b4)">
     <use y="280.512" fill="#bdc660" stroke="#bdc660" xlink:href="#mc87ec9d059"/>
    </g>
   </g>
  </g>
 </g>
 <defs>
  <clipPath id="pe6a27894b4">
   <rect x="7.2" y="7.2" width="207.52" height="266.11"/>
  </clipPath>
 </defs>
</svg>
