<?xml version="1.0" encoding="UTF-8"?>
<!DOCTYPE svg  PUBLIC '-//W3C//DTD SVG 1.1//EN'  'http://www.w3.org/Graphics/SVG/1.1/DTD/svg11.dtd'>
<svg width="215.35pt" height="280.51pt" version="1.1" viewBox="0 0 215.35 280.51" xmlns="http://www.w3.org/2000/svg" xmlns:xlink="http://www.w3.org/1999/xlink">
 <metadata>
  <rdf:RDF xmlns:cc="http://creativecommons.org/ns#" xmlns:dc="http://purl.org/dc/elements/1.1/" xmlns:rdf="http://www.w3.org/1999/02/22-rdf-syntax-ns#">
   <cc:Work>
    <dc:type rdf:resource="http://purl.org/dc/dcmitype/StillImage"/>
    <dc:date>2024-07-04T12:07:32.995503</dc:date>
    <dc:format>image/svg+xml</dc:format>
    <dc:creator>
     <cc:Agent>
      <dc:title>Matplotlib v3.7.1, https://matplotlib.org/</dc:title>
     </cc:Agent>
    </dc:creator>
   </cc:Work>
  </rdf:RDF>
 </metadata>
 <defs>
  <style type="text/css">*{stroke-linejoin: round; stroke-linecap: butt}</style>
 </defs>
 <g id="figure_1">
  <g id="patch_1">
   <path d="m0 280.51h215.35v-280.51h-215.35v280.51z" fill="none"/>
  </g>
  <g id="axes_1">
   <g id="PatchCollection_1">
    <defs>
     <path id="mf2c20722d5" d="m196.78-175.62-3.0822 3.3444-9.2488 9.9509-1.7398 1.9357-0.83457 0.96872-0.80121 0.97528-0.75646 0.98768-0.69597 1.0075-0.61422 1.0367-0.50432 1.0779-0.37194 1.1286-0.26429 1.17-0.18632 1.1999-0.13067 1.2211-0.091589 1.236-0.11124 2.4993-0.062251 2.518-0.35133 19.05-0.022281 2.6008 0.026897 2.6399 0.052598 1.4708 0.065413 1.0936 0.10349 1.1545 0.29835 2.3411 0.1834 1.1844 0.46079 2.64 1.1053 5.62-0.067839 0.26195-0.012325 0.61542 0.049082 0.84197 0.12253 0.97666 0.20935 1.0458 0.31172 1.0677 0.28631 0.74271 0.33577 0.73355 0.37011 0.71319 0.40121 0.70236 0.63127 1.0112 0.66379 0.99036 2.0914 2.9852 0.71652 1.0684 0.66987 1.0758 0.60378 1.0925 0.51393 1.1202 0.37975 1.0728 0.30028 1.099 0.23842 1.1181 0.18903 1.1318 0.18649 1.4871 0.12617 1.3954 0.084335 1.3647 0.041578 1.8161-0.021342 0.92492-0.053059 0.85481-0.07635 0.75042-0.17969 1.1644-0.12821 0.6125-0.15108 0.59637-0.17715 0.58149-0.20523 0.55809-0.26386 0.58338-0.30886 0.5424-0.56986 0.72523-0.36016 0.33051-0.63204 0.44717-0.59128 0.32663-0.49972 0.22992-0.68969 0.26503-0.60156 0.19013-0.60282 0.15774-0.60626 0.12816-0.78639 0.1224-1.1368 0.097745-1.3049 0.027802-1.3439-0.041219-1.5775-0.12742-1.1561-0.13967-1.14-0.17768-2.1439-0.43324-1.4078-0.33542-1.9269-0.50038-1.0703-0.24178-1.4374-0.24021-1.0879-0.12292-1.1417-0.083506-0.99846-0.040337-1.032-0.012428-1.2721 0.024327-1.0246 0.059652-0.80164 0.083055-1.0421 0.18438-0.84098 0.21585-0.51545 0.15707-1.5185 0.5365-1.5055 0.6114-1.2434 0.56892-0.67803 0.35061-0.60519 0.34314-0.75112 0.46651-1.5995 1.0895-0.57659 0.34585-0.33406 0.16118-0.34614 0.11605-0.28908 0.032803-0.2043-0.032767-0.14742-0.069785-0.09898-0.082032-0.24503-0.45878-0.10644-0.66678 0.009185-0.81369 0.11175-0.91132 0.21039-0.96849 0.31384-0.99141 0.29005-0.71068 0.32485-0.71758 0.86749-1.8026 0.38813-0.72724 0.37578-0.64868 0.68232-1.0541 0.31005-0.43496 0.93185-1.1928 1.0873-1.274 0.828-0.92325 2.7996-3.0141 1.5201-1.6941 0.79044-0.94173 0.72098-0.93766 0.62062-0.93108 0.4791-0.92024 0.28319-0.90278 0.044203-0.35113-0.046668-0.76738-0.070121-0.27502-0.3458-0.70327-0.55156-0.54912-0.6681-0.33044-0.7919-0.2-0.71505-0.094642-0.8897-0.06112-2.4475-0.086047-0.72253-0.044162-1.264-0.13309-0.92348-0.16508-0.60946-0.15331-1.4364-0.46318-0.57916-0.12116-0.40746-0.030612-0.35502 0.005685-0.46484 0.039058-0.89322 0.13316-1.4426 0.27905-4.3356 0.91306-1.3519 0.29229-0.96745 0.23581-0.86127 0.24425-0.91606 0.3079-1.055 0.42205-1.0162 0.47583-0.88319 0.49762-0.32964 0.22172-0.29074 0.22586-0.24007 0.22449-0.17697 0.20239-0.175 0.25635-0.096806 0.19263-0.082838 0.24228-0.056322 0.34083 0.010966 0.49044 0.15709 0.7176 0.17125 0.47107 0.2187 0.48139 0.46671 0.84011 0.40926 0.63594 0.47339 0.68042 1.6751 2.2783 0.861 1.2044 0.58208 0.87032 0.4448 0.73504 0.37606 0.72409 0.2373 0.57197 0.1641 0.56009 0.08407 0.78652-0.081566 0.67259-0.22861 0.58898-0.37793 0.4709-0.28866 0.20619-0.22997 0.11807-0.35232 0.13133-0.2919 0.077086-0.77182 0.11712-0.42299 0.029931-0.69068 0.01462-0.71643-0.015508-1.6383-0.088832-0.91227-0.014105-0.60935 0.012302-0.76719 0.044281-0.63744 0.067097-1.0022 0.17985-0.76244 0.22469-0.54745 0.23423-0.43909 0.2464-1.1266 0.74883-0.40374 0.23573-0.58528 0.28198-0.80131 0.30665-0.83972 0.24008-0.95927 0.21314-2.5132 0.4462-0.8884 0.11835-0.62975 0.044312-0.60002 0.015019-0.39926-0.009883-0.50581-0.047628-1.0819-0.1861-1.8861-0.43132-0.79142-0.13845-1.1877-0.14399-1.143-0.076301-0.82965-0.078165-2.4253-0.37494-0.34497-0.017189-0.26187 0.021012-0.20274 0.049642-0.2161 0.10378-0.082919 0.060038-0.32081 0.40106-0.24612 0.54146-0.22997 0.61741-0.26986 0.63537-0.72855 1.2808-0.21818 0.48726-0.13712 0.50211-0.038488 0.3285 0.013556 0.70186 0.077326 0.61359 0.50418 2.565 0.33993 2.2908 0.11936 0.96288 0.049223 0.56353 0.03031 0.78157-0.031946 0.77288-0.11654 0.75847-0.1571 0.56419-0.21085 0.55417-0.23027 0.49482-0.4029 0.72807-0.37439 0.58432-0.47103 0.66055-1.6987 2.2219-1.4045 1.9216-3.4719 4.9499-1.4055 1.9498-0.71894 0.94525-0.73698 0.91266-0.7625 0.8666-0.79769 0.80282-0.45891 0.41053-0.45733 0.38027-0.94269 0.68401-1.9829 1.2527-0.97258 0.64067-0.48805 0.35535-1.537 1.24-0.81709 0.5832-0.69035 0.39733-0.74228 0.35584-1.1015 0.44293-0.97838 0.34412-2.5329 0.79669-2.9443 0.82264-4.1948-0.24993-3.8033-0.26506-1.5161-0.073666-0.94588 0.007651-0.44061 0.036118-0.40938 0.068543-0.36787 0.11236-0.31298 0.17088-0.1445 0.12483-0.12571 0.14345-0.16948 0.25735-0.36447 0.7167-0.18062 0.25744-0.26012 0.2389-0.31958 0.20498-0.36408 0.18054-0.39626 0.16427-1.2842 0.46745-0.84906 0.36587-0.39414 0.22744-0.3578 0.27436-0.33298 0.35673-0.28772 0.39258-0.88714 1.3446-1.8056 2.3349-0.50837-3.2806-0.36941-2.6696-0.32614-2.7438-0.12964-1.3517-0.097758-1.3251-0.057234-1.2916-0.006259-1.2518 0.057446-1.2048 0.082819-0.79061 0.42171-2.6672 0.046493-0.83853-0.083509-0.95622-0.20388-0.92494-0.28527-0.88191-0.33564-0.80943-0.39449-0.71966-0.46898-0.59117-0.14268-0.13298-0.47567-0.34626-0.68722-0.37158-0.82766-0.37296-0.72447-0.26454-3.5108-0.92171-1.1304-0.37192-0.81574-0.31446-0.80984-0.38048-0.61703-0.36138-0.60449-0.428-0.74978-0.59743-0.33627-0.24258-0.38761-0.21696-0.27322-0.10846-0.60277-0.14594-0.55151-0.063064-1.896-0.081557-0.68181-0.063868-0.804-0.13532-0.8076-0.19424-0.64103-0.2126-0.29756-0.12598-0.46641-0.24174-0.45497-0.28205-0.55204-0.38651-0.81419-0.61577-0.7629-0.61161-1.147-1.005-0.4772-0.46288-0.81101-0.88491-0.52175-0.6691-0.56936-0.83049-0.53342-0.86682-0.50718-0.89301-0.71783-1.3507-1.4952-2.9574-0.56018-1.1753-0.33004-0.73348-0.5877-1.4124-0.40417-1.0783-0.37848-1.0893-0.71025-2.1984-1.4037-4.5638-0.6812-2.3076-0.6162-2.2734-0.26656-1.1205-0.22886-1.1229-0.17706-1.1264-0.10697-1.1312-0.021479-1.1707 0.053467-1.1765 0.10959-1.1816 0.15124-1.1863 0.18191-1.1909 0.42541-2.396 0.72692-3.6329 1.0872-5.0012 0.48193-2.3547 1.1989-5.2341 0.68088-3.1619 0.18218-0.94 0.19108 0.10258 0.18769 0.057239 0.22729 0.028311 0.27541-0.01715 0.3421-0.097589 0.45244-0.23585 0.34812-0.13422 0.35642-0.063698 0.33415-0.015931 0.33008 0.034445 0.38629 0.082283 0.84608 0.13703 0.75132 0.24269 0.19429 0.020344 0.21357-0.016728 0.53971-0.15788 0.16203-0.082801 0.13422-0.10023 0.12597-0.12226 0.23362-0.29013 0.46259-0.7361 0.13668 0.056489 0.31426 0.055335 0.69866 0.071095 1.167 0.044803 0.95669-0.022303 1.301-0.096913 1.3623-0.15646 1.3904-0.19917 1.3976-0.22818 4.1396-0.77162 7.9199-1.6271 10.177-2.1565 2.4996-0.55435 2.4603-0.58098 1.2057-0.30789 2.0828-0.59717 2.7886-0.89652 3.0551-0.92496 1.3418-0.44969 0.78582-0.30031 0.76284-0.32827 0.87986-0.43774 0.73566-0.42678 0.54535-0.36187 1.6309-1.2291 0.50856-0.34304 0.51028-0.28586 0.48388-0.19996 0.29956-0.082069 0.23517-0.038957 0.17863-0.013892 0.3784 0.011679 0.47158 0.083898 0.28301 0.082965 0.70194 0.2946 0.49237 0.27465 0.4291 0.26862 1.3537 0.97799 1.3118 1.0244 0.60436 0.50991 0.64423 0.58172 1.1704 1.1173 0.60941 0.5535 0.71942 0.5821 0.47975 0.3413 0.49186 0.3131 0.85736 0.46223 0.50881 0.22621 0.51214 0.19199 1.0008 0.26579 0.48288 0.072761 0.62761 0.052632 0.59864 0.008587 2.1939-0.05932 0.95274-0.066358 0.76073-0.10258 0.55422-0.11618 0.85002-0.24379 1.8039-0.57745 0.97779-0.35542 1.6134-0.65566 1.8802-0.68631 0.67666-0.28833 0.71507-0.36644 0.75267-0.42161 0.71286-0.47804 0.63394-0.54955 1.2189-1.1718 0.67019-0.50908 0.45641-0.25537 0.48662-0.20913 0.60154-0.19056 0.6222-0.13407 0.51704-0.068893 0.51828-0.030715 0.75812 0.027153 0.7298 0.10852 0.68113 0.18519 0.6102 0.26055 0.61039 0.38703 0.56137 0.40826 0.59149 0.34612 0.72126 0.22257 0.79274 0.069882 0.81578-0.079448 0.79097-0.23667 0.71628-0.4138 0.59864-0.59744 0.5139-0.73567 1.3859-2.4938 0.5192-0.76778 0.54021-0.62855 0.56452-0.60059 0.54173-0.63782 0.47755-0.7129 0.43913-0.78098 0.87852-1.6475 0.42857-0.70739 0.47934-0.67639 0.54534-0.62706 0.82861-0.72705 0.929-0.64394 0.9925-0.59169 2.0475-1.1348 0.99394-0.59494 0.93068-0.64988 0.82938-0.73653 0.22903-0.24982 0.58488-0.76224 0.50283-0.81961 0.4358-0.85308 0.87408-1.9498 0.49687-0.9017 0.55016-0.74439 0.60927-0.67513 1.1971-1.1978 0.48098-0.54212 0.32027-0.51264 0.084436-0.48659-0.2317-0.49034-0.50544-0.47169-0.70619-0.46053-0.84963-0.45608-4.0502-1.9218-1.0315-0.5521-0.98875-0.60905-0.91844-0.68776-0.49232-0.45024-0.7656-0.87514-0.67146-0.9691-0.60126-1.039-0.54968-1.0906-0.51244-1.1286-0.95424-2.335-1.3524-3.6242-2.2709-6.2932-4.3182-11.841-0.095366-0.3811-0.31592-1.0457-1.0455-3.1484-6.4662-18.559-0.5249-1.4472-0.55681-1.4316-0.29989-0.70116-0.32241-0.68296-0.35396-0.65471-0.39769-0.61221-0.45746-0.54999-0.53751-0.4616-0.61628-0.34388-0.69264-0.2536-0.74734-0.18279-0.77877-0.12693-0.78178-0.082668-2.0632-0.10101-5.6678-34.655 1.0784 0.29467 13.116 3.8618 2.5788 0.71888 1.2637 0.32739 1.2464 0.29511 1.2278 0.25044 1.2069 0.18875 1.182 0.10402 1.1514-0.011371 1.1126-0.16702 1.0099-0.33035 0.9775-0.46726 0.95474-0.56612 0.93984-0.6352 0.93158-0.68069 2.8035-2.1372 0.95722-0.69439 0.98016-0.66115 0.55578-0.34708 1.3521-0.77611 0.79883-0.42354 1.5684-0.7731 1.8462-0.83557 1.2841-0.54005 2.2139-0.88827 2.4013-0.92134 1.8558-0.65302 1.6726-0.52784 3.8877-1.0349 1.0877-0.32092 1.949-0.64164 0.9443-0.23877 0.9415-0.10321 1.0213 0.094734 1.0302 0.27343 1.0373 0.40487 1.0429 0.50012 1.0472 0.56802 1.0506 0.61551 1.0533 0.648 2.1123 1.3529 6.367 4.1773 3.1997 2.0761 10.549 6.7263 1.967 1.3138 0.94738 0.6705 0.9081 0.68538 0.85231 0.70658 0.77453 0.73619 0.66779 0.7769 0.5234 0.83206 0.20852 0.48521 0.25218 1.1068 0.050776 1.0762-0.071796 1.1238-0.15964 1.158-0.22148 1.182-0.26412 1.1985-0.60409 2.4265-3.2977 12.24-5.1866 19.583-0.63522 2.46-0.57975 2.4465-0.24288 1.2175-0.18801 1.2096-0.10741 1.1965-0.005176 0.94067 0.089689 0.92164 0.2115 0.89518 0.39536 0.94233 0.54408 0.91108 0.66273 0.88885 0.84667 0.9706 0.93361 0.95437 0.99351 0.9365 1.0245 0.91055 1.0197 0.8679 2.4068 1.9728 0.19688 0.21477" stroke="#bdc660"/>
    </defs>
    <g clip-path="url(#pf6d3cf97a0)">
     <use y="280.512" fill="#bdc660" stroke="#bdc660" xlink:href="#mf2c20722d5"/>
    </g>
   </g>
  </g>
 </g>
 <defs>
  <clipPath id="pf6d3cf97a0">
   <rect x="7.2" y="7.2" width="200.95" height="266.11"/>
  </clipPath>
 </defs>
</svg>
