<?xml version="1.0" encoding="UTF-8"?>
<!DOCTYPE svg  PUBLIC '-//W3C//DTD SVG 1.1//EN'  'http://www.w3.org/Graphics/SVG/1.1/DTD/svg11.dtd'>
<svg width="245.59pt" height="280.51pt" version="1.1" viewBox="0 0 245.59 280.51" xmlns="http://www.w3.org/2000/svg" xmlns:xlink="http://www.w3.org/1999/xlink">
 <metadata>
  <rdf:RDF xmlns:cc="http://creativecommons.org/ns#" xmlns:dc="http://purl.org/dc/elements/1.1/" xmlns:rdf="http://www.w3.org/1999/02/22-rdf-syntax-ns#">
   <cc:Work>
    <dc:type rdf:resource="http://purl.org/dc/dcmitype/StillImage"/>
    <dc:date>2024-07-04T12:07:33.318874</dc:date>
    <dc:format>image/svg+xml</dc:format>
    <dc:creator>
     <cc:Agent>
      <dc:title>Matplotlib v3.7.1, https://matplotlib.org/</dc:title>
     </cc:Agent>
    </dc:creator>
   </cc:Work>
  </rdf:RDF>
 </metadata>
 <defs>
  <style type="text/css">*{stroke-linejoin: round; stroke-linecap: butt}</style>
 </defs>
 <g id="figure_1">
  <g id="patch_1">
   <path d="m0 280.51h245.59v-280.51h-245.59v280.51z" fill="none"/>
  </g>
  <g id="axes_1">
   <g id="PatchCollection_1">
    <defs>
     <path id="m8ccd0140fd" d="m149.17-260.67 0.79196 2.9113 0.87901 2.752 1.1136 3.1251 1.3198 3.2744 1.5215 3.2688 1.7403 3.1505 1.2752 1.969 1.1912 1.6463 2.0368 2.5596 2.1512 2.4808 2.2209 2.4203 8.96 9.445 2.4543 2.7231 3.1127 3.7144 1.4535 1.9187 1.7291 2.5176 1.6181 2.5877 1.5352 2.639 1.4744 2.6757 1.5321 2.8982 2.9447 5.8498 3.1938 6.6841 3.0317 6.567 8.0216 17.877 9.4197 21.914 2.2829 5.0431 5.2985 11.403 1.0985 2.5354 1.0029 2.553 0.67114 1.9548 0.57158 1.9757 0.61958 2.9363 0.28002 2.1742 0.17146 3.3057-0.102 3.9588-0.21134 2.9681-0.33815 3.2704-0.44545 3.2624-0.42004 2.5261-0.37791 1.9789-0.71212 3.1558-0.95996 3.749-1.2013 4.2818-0.55338 1.6039-0.60592 1.4033-0.8984 1.5724-0.96743 1.2514-1.7389 1.6871-2.0205 1.5019-1.0872 0.68605-1.9708 1.0809-1.6209 0.7523-2.3896 0.91497-3.1034 0.88172-1.9325 0.45642-3.1929 0.64124-3.0805 0.4924-3.8718 0.4723-2.9115 0.21996-2.3668 0.089084-2.5766 0.011962-2.4956-0.066971-4.634-0.3062-2.3678-0.24658-0.60085-0.13706-2.6682-0.37419-2.9711-0.25054-1.0481-0.012426-1.41 0.084048-1.1429 0.17684-1.88 0.50335-6.2014 2.1726-4.8301 1.5851-7.0361 2.2296-3.0179 0.88972-0.81399 0.20062-2.744 0.4646-5.7331 0.59979-2.8459 0.45941-2.7391 0.78899-1.9994 0.92407-2.1131 1.3068-2.0218 1.4982-4.9233 4.0343-1.1917 0.90479-1.6086 1.0687-2.034 1.0773-3.7298 1.6981-2.2724 1.1009-2.6198 1.4139-4.0963 2.4922-9.2968 6.0981-2.7299 1.7024-3.3993 1.8774-1.123 0.5191-0.96517 0.3697-0.73887 0.23234-4.7224 1.0944-1.836 0.54074-5.6178 1.8972-2.8335 0.75925-1.8532 0.39505-1.8932 0.3226-1.2245 0.16422-2.8909 0.25289-2.8802 0.073167-7.2117-0.085698-3.41 0.086-2.5718 0.13936-1.5302 0.15083-0.63874 0.18522 0.085028-0.20852 0.021547-0.67409-0.16631-1.4246-1.2574-5.4295-0.26146-1.4707-0.19146-1.5389-0.50472-5.449-0.35517-1.6856-0.66037-1.5273-0.55376-0.72178-0.6018-0.56926-0.63139-0.4785-2.6293-1.6084-1.2415-0.87076-0.71243-0.6366-0.73854-0.87822-0.50964-0.86582-0.28633-0.62681-1.5196-4.2416-0.38229-0.84006-0.54715-0.99193-0.9191-1.3163-0.90328-1.0966-2.8004-3.0971-1.0519-1.2303-1.179-1.535-0.88022-1.3553-0.80234-1.5928-0.3286-0.85421-0.36806-1.2206-0.25136-1.1521-0.23308-2.2263-4.85e-4 -0.87636 0.16055-1.9575 0.31567-1.7647 0.62131-2.3032 0.84337-2.3366 1.2357-2.9462 0.58494-1.5643 0.72894-2.4545 1.2629-5.1141 0.57584-1.9801 0.72611-1.9283 0.75465-1.5317 0.86718-1.4391 1.1617-1.6116 0.99114-1.1871 0.93981-1.012 1.5816-1.5232 3.5948-3.1561 1.6033-1.3585 2.225-1.682 2.3733-1.6185 7.5184-4.8 2.4968-1.687 2.4233-1.7876 2.7085-2.2463 6.6712-6.072 2.8386-2.4378 2.7859-2.1202 9.1133-6.101 1.3723-1.3902 0.33578-0.54845 0.30567-0.64595 0.41303-1.1983 0.22799-0.88716 0.33684-1.7777 0.25871-2.2017 0.10946-1.6814 0.067706-2.5557 0.016162-6.7015 0.063762-2.1122 0.29989-3.859 0.29476-2.3176 0.38614-2.4109 0.45597-2.3872 0.95957-4.077 0.61508-2.1481 0.55221-1.6622 0.76436-1.8818 0.72346-1.4175 0.64603-1.1051 1.343-2.0865 4.5592-6.6953 1.0391-1.7682 0.76762-1.4919 0.90123-2.0822 0.65139-1.9349 0.45679-1.9162 0.31618-2.0567 0.18829-2.0925 0.078755-1.9673-0.014935-1.4449-0.12269-1.1892-0.22155-0.97996-0.26172-0.7358-0.36487-0.75751-1.0741-1.5176-1.233-1.4408-1.1473-1.6074-0.54394-1.101-0.46522-1.2231-0.42187-1.3295-0.51311-1.8142-0.79031-3.3449-0.50693-2.7905-0.33434-2.8143-0.047887-2.3645 0.057473-0.86568 0.18549-1.3524 0.19365-0.91689 0.33285-1.1514 0.79371-1.8681 0.99911-1.7706 1.0325-1.5536 1.2058-1.4639 1.5065-1.3912 1.7254-1.2699 2.8874-1.7903 3.198-1.8302 3.2415-1.7038 2.8109-1.3304 2.0876-0.84823 1.8263-0.57934 0.64574-0.1237 0.53103-0.020071 0.2519 0.076729 0.064615 0.078978-0.026205 0.16564 0.35179 0.43545 0.92504 0.84016 0.8734 0.59551 0.76652 0.38624 1.246 0.40875 0.70228 0.12632 0.9709 0.040917 0.45618-0.042874 1.1761-0.30102 0.60503-0.25297 1.1674-0.62818 1.8077-1.196 1.5389-1.1628 1.0778-0.94187 0.65924-0.67352 1.9246-2.1931 0.64228-0.61184 0.83098-0.60223 0.70166-0.35758 0.54171-0.20429 1.2071-0.30624 1.4194-0.19046 1.2813-0.05437 1.0086 0.042855 1.3014 0.20185 0.77258 0.20837 3.1314 1.0206 0.54685 0.11364 1.2136 0.10491 0.95467-0.05568 1.2968-0.25886 1.129-0.43315 0.3677-0.217 0.16425-0.18308" stroke="#bdc660"/>
    </defs>
    <g clip-path="url(#pd7af7fd4d8)">
     <use y="280.512" fill="#bdc660" stroke="#bdc660" xlink:href="#m8ccd0140fd"/>
    </g>
   </g>
  </g>
 </g>
 <defs>
  <clipPath id="pd7af7fd4d8">
   <rect x="7.2" y="7.2" width="231.19" height="266.11"/>
  </clipPath>
 </defs>
</svg>
