<?xml version="1.0" encoding="UTF-8"?>
<!DOCTYPE svg  PUBLIC '-//W3C//DTD SVG 1.1//EN'  'http://www.w3.org/Graphics/SVG/1.1/DTD/svg11.dtd'>
<svg width="317.2pt" height="280.51pt" version="1.1" viewBox="0 0 317.2 280.51" xmlns="http://www.w3.org/2000/svg" xmlns:xlink="http://www.w3.org/1999/xlink">
 <metadata>
  <rdf:RDF xmlns:cc="http://creativecommons.org/ns#" xmlns:dc="http://purl.org/dc/elements/1.1/" xmlns:rdf="http://www.w3.org/1999/02/22-rdf-syntax-ns#">
   <cc:Work>
    <dc:type rdf:resource="http://purl.org/dc/dcmitype/StillImage"/>
    <dc:date>2024-07-04T12:07:28.823048</dc:date>
    <dc:format>image/svg+xml</dc:format>
    <dc:creator>
     <cc:Agent>
      <dc:title>Matplotlib v3.7.1, https://matplotlib.org/</dc:title>
     </cc:Agent>
    </dc:creator>
   </cc:Work>
  </rdf:RDF>
 </metadata>
 <defs>
  <style type="text/css">*{stroke-linejoin: round; stroke-linecap: butt}</style>
 </defs>
 <g id="figure_1">
  <g id="patch_1">
   <path d="m-0 280.51h317.2v-280.51h-317.2v280.51z" fill="none"/>
  </g>
  <g id="axes_1">
   <g id="PatchCollection_1">
    <defs>
     <path id="m29d212627e" d="m294.64-127.51 0.20671 4.6524 0.81217 13.783 0.18913 2.3601 0.32184 2.4677 0.06585 0.87678-0.007018 0.57102-0.058934 0.57219-0.26825 1.096-0.59962 1.5286-0.66539 1.3845-0.31244-0.08883-0.68527-0.058363-0.9066 0.006616-1.0168 0.10442-1.0463 0.23219-1.0152 0.39074-1.0578 0.65508-0.96494 0.84146-0.88836 0.97327-0.82994 1.0603-0.78877 1.1131-2.2726 3.4271-0.77522 1.1175-0.81059 1.0822-0.8419 1.0178-1.7865 1.9364-2.8076 2.7692-8.3904 8.0572-1.8679 1.7533-1.8049 1.6034-2.9725 2.5003-2.1548 1.7031-1.1008 0.80033-1.1211 0.74042-1.1452 0.6511-1.1727 0.52166-1.2023 0.34004-0.81968 0.10091-0.78556 0.004472-0.59935-0.050894-0.68923-0.11278-0.68278-0.16097-1.3011-0.40769-0.81837-0.34307-1.0832-0.53568-0.20974-0.066748-0.056141 0.030843-0.69106-0.82157-5.3661-5.5924-1.5428-1.5487-1.2288-1.1185-1.3429-1.0562-1.6031-1.0807-1.4454-0.83302-1.6629-0.80127-1.3162-0.54047-1.1169-0.40737-1.168-0.37647-1.4752-0.40414-1.5409-0.34294-2.0995-0.3966-2.8972-0.44788-2.1462-0.19714-1.9616 0.006593-1.0662 0.070519-1.0765 0.12868-0.9882 0.18545-0.9124 0.22452-0.75276 0.23629-0.80318 0.33616-0.65174 0.35299-0.61923 0.42888-0.59219 0.53693-0.47188 0.57692-0.26077 0.42758-0.31633 0.71763-0.2365 0.76904-0.28453 1.3363-1.6993 10.056-0.75725 4.2218-0.48637 2.3366-0.37897 1.5949-0.46239 1.7239-0.30881 1.0271-0.4979 1.461-0.49629 1.2771-0.65384 1.4928-1.0561 2.1068-0.6526 1.1649-0.70722 1.166-1.0676 1.5836-1.2272 1.5736-0.91566 1.0142-0.88828 0.8543-1.2904 1.0415-2.1427 1.5229-1.9899 1.3303-1.6896 1.0663-7.1145 4.3119-3.3461 1.9011-2.6757 1.3705-1.5575 0.71298-1.6705 0.67826-1.2722 0.4209-1.2677 0.32482-2.8631 0.60875-2.2656 0.38287-2.4133 0.32319-2.1308 0.16732-2.1613 0.030217-0.9634-0.047577-1.1054-0.10928-1.1637-0.18615-2.5676-0.54233-1.7944-0.3363-1.142-0.15262-1.1903-0.07916-1.0753 0.006656-1.3437 0.08927-6.2268 0.67933-2.0274 0.11182-1.2249-0.021776-0.97408-0.071313-4.0525-0.52385-2.449-0.24456-2.1482-0.09471-1.5218 0.025838-0.95005 0.058083-1.5904 0.17845-0.92461 0.1574-2.004 0.48088-1.9975 0.64272-1.3117 0.4864-2.8411 1.1486-2.3421 0.81026-1.0852 0.31252-1.9045 0.44271-1.2499 0.20623-1.0449 0.11409-1.086 0.05909-2.5908-0.020194-3.4479-0.2244-4.4903-0.43608-1.0196-0.051453-1.3877 0.009861-1.4516 0.15308-1.0823 0.26681-0.40836 0.15972-0.45021 0.26166-0.16477 0.16431-0.065757 0.11151-0.17186-0.32051-0.30332-0.42631-0.67517-0.8273-0.85119-0.93868-2.138-2.2022-1.0592-1.1486-0.70577-0.83624-0.81101-1.0834-0.77734-1.241-0.49448-0.98046-0.3979-1.006-0.3309-1.0965-0.24294-1.0798-0.16556-1.0267-0.095275-0.85342-0.099582-1.7565-0.012737-1.3755 0.092542-2.9446 0.086096-1.3994 0.58837-8.0609 0.1577-4.2548 0.017475-1.9785-0.050146-2.2322-0.16448-2.4698-0.19808-1.7892-0.45601-2.841-0.21202-1.0132-0.50994-2.0518-1.0096-3.4217-0.83972-2.5094-0.85506-2.1845-0.55882-1.2182-0.46681-0.88938-0.43868-0.73089-0.48571-0.69231-0.72094-0.8098-0.6134-0.50043-0.35404-0.21954-0.58499-0.28069-0.48623-0.17564-0.82228-0.21192-0.74137-0.11736-0.71252-0.058417-1.0003-0.004613-0.8552 0.052573-3.4262 0.39301-2.585 0.40524-1.4416 0.3265-1.8918 0.55986-1.1928 0.43407-1.2879 0.56706-1.3615 0.7164-1.5321 0.86058-1.1097 0.69823-4.8025 3.3794-0.96352 0.58159-1.1022 0.53983-0.88269 0.34386-0.76952 0.25035-2.1567 0.5444-1.881 0.31326-1.8911 0.15885-0.85129 0.014141-0.8595-0.033369-0.64926-0.067018-0.89139-0.17287-0.9293-0.31426-0.63466-0.31735-0.92063-0.62132-0.64354-0.53981-0.61613-0.58559-1.156-1.2357-0.64045-0.7511-1.0458-1.3188-0.57406-0.81833-0.44959-0.86202-0.31411-1.0767-0.155-1.1767-0.14177-3.6911-0.21841-1.5832-0.34364-1.6344-1.0182-4.1096-0.28953-1.6449-0.13687-1.6862 0.10007-2.1207 0.35789-2.1642 0.56756-2.1952 0.7464-2.2142 0.90995-2.2201 1.0721-2.21 1.1294-1.9954 1.754-2.662 1.423-1.9545 4.2981-5.6324 0.97292-1.344 1.0308-1.5235 0.68178-1.134 0.14355-0.4923 5.2247-1.4598 4.4946-1.4137 1.7362-0.61065 1.9546-0.78599 1.3172-0.63144 1.225-0.70507 1.45-1.0349 2.7274-2.2004 0.86605-0.63057 1.7259-1.1369 3.5187-2.2229 1.6728-1.2138 0.81155-0.6748 0.81434-0.72849 1.4155-1.4246 1.3531-1.5378 1.3078-1.6195 1.2758-1.6774 2.4941-3.4599 6.161-8.7837 2.4922-3.4098 3.0143-3.9427 0.83585-1.1722 0.66437-1.0369 0.71495-1.292 0.40862-0.87806 0.37415-0.98338 0.27877-1.0012 0.2068-1.3459 0.056689-1.3715-0.053785-1.3869-0.087349-1-0.2118-1.7087-0.60321-4.0651-0.89467-4.5516-0.13722-1.0888-0.024055-1.2455 0.068297-0.58294 0.24332-0.891 0.38717-0.86465 1.2928-2.2727 0.47886-1.1275 0.40809-1.0956 0.43675-0.96084 0.56929-0.71168 0.14714-0.10654 0.38348-0.18415 0.35977-0.088091 0.4647-0.037285 0.61216 0.030501 4.3038 0.66534 1.4722 0.13871 2.0282 0.1354 2.1076 0.25552 1.4044 0.24569 3.3469 0.76539 1.9199 0.33023 0.89757 0.084517 0.70849 0.017537 1.0648-0.026651 1.1175-0.078633 1.5765-0.21002 4.4598-0.79179 1.7022-0.37822 1.4901-0.42602 1.4219-0.54416 1.0386-0.50037 0.71645-0.41832 1.9991-1.3288 0.77918-0.43725 0.97146-0.41565 1.353-0.39871 1.7785-0.31915 1.1311-0.11906 1.3614-0.078578 1.0813-0.021829 1.6188 0.025029 2.9071 0.15763 1.2713 0.02752 1.2256-0.025945 0.7506-0.053112 1.3696-0.20783 0.51798-0.13679 0.62521-0.23305 0.40808-0.20952 0.51223-0.36588 0.67064-0.83563 0.40567-1.0452 0.14474-1.1935-0.14919-1.3957-0.29119-0.99389-0.4211-1.015-0.66732-1.2849-0.78931-1.3044-1.0329-1.5444-1.5279-2.1372-2.9725-4.0429-0.84004-1.2074-0.72624-1.1285-0.82819-1.4908-0.38809-0.85424-0.30388-0.83593-0.27877-1.2734-0.019458-0.87029 0.099944-0.60482 0.147-0.42993 0.17178-0.34182 0.31054-0.4549 0.31403-0.35914 0.426-0.39836 0.51593-0.4008 0.58496-0.39345 1.5672-0.88304 1.8032-0.84437 1.8722-0.74894 1.6256-0.54638 1.5283-0.43343 1.7168-0.41845 2.399-0.51868 7.6936-1.6202 2.5599-0.49517 1.585-0.23629 0.82488-0.069309 0.63-0.010089 0.72305 0.054321 1.0277 0.21501 2.549 0.82193 1.0815 0.27205 1.6387 0.29293 2.243 0.23617 1.2822 0.078367 4.3432 0.15269 1.5788 0.10846 1.2689 0.16794 1.4053 0.35491 1.1856 0.58638 0.97876 0.97443 0.61362 1.248 0.12443 0.48802 0.082813 1.3617-0.078439 0.62309-0.50252 1.602-0.85017 1.633-1.1013 1.6522-1.2794 1.6639-1.4026 1.6711-2.6974 3.0063-4.9679 5.3487-1.4693 1.6383-1.9295 2.2608-1.6536 2.1167-0.5502 0.77185-1.2108 1.8705-0.66683 1.1511-0.68875 1.2905-1.5394 3.1988-0.57645 1.2734-0.51469 1.2611-0.55692 1.7593-0.37335 1.7186-0.1983 1.6172-0.016299 1.4439 0.18888 1.1832 0.43481 0.81412 0.17564 0.14557 0.26161 0.12384 0.36254 0.058145 0.51297-0.058209 0.61423-0.20594 0.5928-0.28601 1.0232-0.61372 2.8383-1.9334 1.3329-0.82784 1.0739-0.60891 1.2032-0.62217 2.2064-1.0096 2.6715-1.085 2.6946-0.95204 0.91468-0.27873 1.4923-0.38302 1.8492-0.32718 1.4225-0.14738 1.8181-0.10586 2.2575-0.043168 1.8314 0.022053 1.7718 0.07158 2.0259 0.14818 1.9305 0.21813 2.5507 0.42626 1.8993 0.42905 3.4193 0.88794 2.4982 0.59521 3.8045 0.7688 2.0229 0.31529 2.0515 0.24784 2.7993 0.22611 2.3847 0.073144 2.3156-0.049336 2.0172-0.17345 1.3955-0.2172 1.0758-0.22741 1.0697-0.27991 1.0675-0.33739 1.2239-0.47031 0.88676-0.408 1.0492-0.57961 1.1216-0.79351 0.63911-0.58649 1.0112-1.2869 0.54807-0.9625 0.46822-1.0352 0.36419-0.99034 0.31436-1.0319 0.2681-1.0583 0.22752-1.0869 0.31887-2.0663 0.13548-1.3316 0.094155-1.5169 0.037872-1.6413-0.073782-3.2228-0.14966-2.4217-0.22389-2.4762-0.33094-2.6388-0.33544-2.0084-0.42308-1.9841-0.53285-1.9501-0.67387-1.9036-0.91198-1.9879-1.0714-1.9387-1.1887-1.909-1.2715-1.8959-3.7113-5.2973-1.1779-1.7574-1.1202-1.7943-0.71196-1.2464-0.65676-1.2656-0.59583-1.3017-0.50807-1.318-0.55316-1.8946-0.3715-1.8557-0.21744-1.7331-0.087097-1.4941 0.02187-1.0921 0.12038-0.46484 0.58915-0.1029 1.1384 0.23778 1.4415 0.54016 1.557 0.84332 0.89733 0.62787 0.88098 0.71942 0.85905 0.79416 0.83746 0.85528 1.2205 1.3732 0.65605 0.79332 3.4612 4.4392 1.5407 1.8876 1.1414 1.284 0.81316 0.83803 1.0111 0.94314 0.53322 0.45209 1.8234 1.3662 1.9151 1.2393 1.9694 1.158 5.946 3.356 1.9095 1.1933 1.8277 1.2927 1.672 1.3767 1.591 1.4779 1.5314 1.5518 1.4883 1.605 2.8932 3.3121 4.2359 5.0947 6.9654 8.6001 5.3132 6.7541 3.3845 4.4405 1.7625 2.4429 0.89913 1.3338 0.85255 1.3554 0.70138 1.2115 0.65018 1.2333 0.89598 1.9852 0.70358 2.0007 0.35408 1.2637 0.28226 1.2176 0.32504 1.8182 0.24159 1.8971 0.2041 2.4946 0.096376 2.0706 0.046998 2.0778 0.007263 2.0808-0.075558 4.9584-0.006016 4.4777 0.22987 13.291 0.38574 13.405 0.30349 7.1119 0.22446 3.5314" stroke="#bdc660"/>
    </defs>
    <g clip-path="url(#p7ab6e6fb44)">
     <use y="280.512" fill="#bdc660" stroke="#bdc660" xlink:href="#m29d212627e"/>
    </g>
   </g>
  </g>
 </g>
 <defs>
  <clipPath id="p7ab6e6fb44">
   <rect x="7.2" y="7.2" width="302.8" height="266.11"/>
  </clipPath>
 </defs>
</svg>
