<?xml version="1.0" encoding="UTF-8"?>
<!DOCTYPE svg  PUBLIC '-//W3C//DTD SVG 1.1//EN'  'http://www.w3.org/Graphics/SVG/1.1/DTD/svg11.dtd'>
<svg width="343.14pt" height="280.51pt" version="1.1" viewBox="0 0 343.14 280.51" xmlns="http://www.w3.org/2000/svg" xmlns:xlink="http://www.w3.org/1999/xlink">
 <metadata>
  <rdf:RDF xmlns:cc="http://creativecommons.org/ns#" xmlns:dc="http://purl.org/dc/elements/1.1/" xmlns:rdf="http://www.w3.org/1999/02/22-rdf-syntax-ns#">
   <cc:Work>
    <dc:type rdf:resource="http://purl.org/dc/dcmitype/StillImage"/>
    <dc:date>2024-07-04T12:07:27.365361</dc:date>
    <dc:format>image/svg+xml</dc:format>
    <dc:creator>
     <cc:Agent>
      <dc:title>Matplotlib v3.7.1, https://matplotlib.org/</dc:title>
     </cc:Agent>
    </dc:creator>
   </cc:Work>
  </rdf:RDF>
 </metadata>
 <defs>
  <style type="text/css">*{stroke-linejoin: round; stroke-linecap: butt}</style>
 </defs>
 <g id="figure_1">
  <g id="patch_1">
   <path d="m-0 280.51h343.14v-280.51h-343.14v280.51z" fill="none"/>
  </g>
  <g id="axes_1">
   <g id="PatchCollection_1">
    <defs>
     <path id="me297b2c3e1" d="m253.92-256.47-0.22815 0.20216-0.02044 0.26457 0.32401 1.5711 0.86825 2.4733 2.9297 7.2418 1.8659 4.8349 0.95056 2.7496 0.82241 2.7266 0.83017 3.58 0.38375 2.7845 0.071904 2.6503-0.51564 3.3736-0.31577 0.94137-0.57874 1.2604-0.6195 1.0371-1.1992 1.5795-1.5155 1.5837-1.0841 0.95869-2.0639 1.5539-6.2099 3.9595-2.227 1.5842-1.7947 1.5108-0.6893 0.67644-1.3885 1.6242-0.55438 0.78543-0.62843 1.0239-0.66199 1.2904-0.82319 2.128-0.4572 1.7611-0.29696 2.2344-0.032287 1.3168 0.19254 2.3218 0.61218 2.7454 0.52091 1.6216 0.93844 2.3685 1.2746 2.5859 1.6839 2.8451 3.5363 5.5242 1.8634 3.0777 2.3874 4.3874 1.2308 2.7445 1.0568 3.2033 0.31921 1.3797 0.25868 1.6452 0.20424 2.4234 0.025657 5.3952 0.25281 1.7895 0.44914 1.6289 0.43243 1.0838 0.67181 1.2412 0.47549 0.6919 0.84996 1.0257 1.2662 1.2455 1.2086 0.99114 1.7909 1.2719 2.8461 1.6572 6.4127 3.1587 2.8128 1.6255 1.0158 0.7209 1.2403 1.0221 1.3631 1.3152 1.1066 1.2235 1.4344 1.8831 0.78721 1.2039 0.88799 1.5438 1.0167 2.0002 1.6677 3.8778 3.1188 8.1881 1.03 2.2573 1.2235 2.3834 1.5847 2.8104 1.7149 2.7919 4.889 7.002 6.7322 8.6154 2.2636 2.5055 2.4347 2.1335 2.814 1.7685 5.2978 2.6031 1.8422 1.2376 0.89341 1.337-0.28657 1.1049-2.0333-0.38382-2.3199-0.21033-3.4802-0.047004-2.5024 0.13282-2.1338 0.25538-1.8345 0.44079-1.7311 0.67411-1.5793 0.91602-1.6342 1.3861-1.3307 1.5102-1.0558 1.5752-0.97237 1.7666-3.2722 6.3026-1.7676 2.8888-0.95512 1.4001-1.6195 2.124-1.0326 1.1908-0.96453 0.99625-2.1205 1.7758-1.8302 1.2166-5.603 3.3571-1.3241 0.69435-1.5564 0.68323-2.5823 0.80038-13.775 3.6593-1.4983 0.27481-4.3582 0.56559-4.0416 0.84713-5.7329 1.4424-2.1271 0.38737-3.3351 0.30953-1.3887 0.026961-2.1651-0.10395-2.9655-0.46698-3.0243-0.78644-3.0686-1.0316-3.0927-1.2148-3.0866-1.3423-10.226-4.9352-1.3998-0.59978-1.547-0.43751-0.65524 0.18044-0.11119-1.2078-0.86693-2.9049-1.4673-3.7271-1.999-3.9502-2.5141-3.7449-2.4481-2.7106-2.082-1.8354-2.5917-1.8755-1.9486-1.1965-1.9412-1.0558-2.4696-1.1626-1.7931-0.66393-1.4529-0.38605-1.2866-0.19845-1.7717-0.00213-1.7779 0.33872-1.7453 0.62839-1.3895 0.67102-1.751 1.0063-2.2853 1.5076-3.6198 2.65-6.7685 5.2111-4.5784 3.8106-2.2673 2.1659-2.1377 2.3791-2.3504 3.0701-3.1909 4.6023-2.3568 2.7885-2.2592 2.2534-2.878 2.6282-2.5518 2.1586-1.9038 1.4713-2.7075 1.8084-5.4937 3.2885-3.2429 1.8142-2.5915 1.2503-2.1549 0.80393-2.2353 0.57852-1.6913 0.22101-1.7992-0.008915-2.1375-0.26773-7.9344-1.573-1.7528-0.37527-2.8934-0.75642-1.8024-0.57424-3.1474-1.1938-2.4607-1.1304-2.0921-1.1457-3.7293-2.4371-4.6696-3.5759-14.586-12.294-4.9815-3.9629-2.5173-1.8409-2.8186-1.8906-2.8096-1.6749-2.7492-1.4142-3.1584-1.3148-2.0235-0.65066-2.1066-0.51699-1.8307-0.31434-2.5055-0.20839-2.4604 0.10059-1.3638 0.26184-0.92776 0.63734-0.042709-0.56351-0.43417-1.3963-1.1515-3.135-5.6323-13.597-1.3324-3.8639-0.52103-1.9162-0.41967-2.0269-0.27052-2.01-0.10722-1.9867 0.058179-1.7813 0.20426-1.7494 0.34953-1.7095 0.62119-2.0062 0.82864-1.9228 1.1697-2.0509 1.3861-1.9305 1.295-1.516 1.395-1.4485 2.5268-2.3436 7.8784-6.5843 1.808-1.5966 3.224-3.1147 3.5483-3.9255 6.7006-7.8895 2.1892-2.797 1.9142-2.8698 0.89547-1.6303 0.78261-1.7136 0.69786-1.9546 0.4457-1.6776 0.33462-1.7165 0.28451-2.1893 0.15059-2.0138 0.070469-2.8872-0.045275-2.0209-0.16378-2.4695-0.24135-2.0968-0.32828-1.9144-0.25019-1.0519-0.20218-0.63379-0.16575-0.27289 0.012917-0.26898 0.24648-0.37505 0.9058-0.70755 1.4208-0.79424 1.8591-0.81022 1.5579-0.5526 2.8915-0.83244 3.3814-0.76102 6.8368-1.127 7.6553-0.90088 5.2781-0.4558 4.8222-0.28726 7.2714-0.26615 5.2549-0.073756 4.6322 0.043228 10.59 0.5415 3.879-0.070298 3.8418-0.37833 3.7614-0.69151 3.6326-1.0303 3.4476-1.4166 3.0958-1.7629 2.8835-2.086 2.6797-2.3293 2.4727-2.5096 3.7441-4.2708 2.2622-2.4431 6.0082-5.9486 2.6019-2.6937 1.8632-2.043 1.9199-2.2876 2.4174-3.134 1.9172-2.7452 1.0917-1.7791 1.0011-1.87 1.476-3.1528 1.6458-3.9222 3.0965-8.3768 1.1205-2.4549 1.3575-2.3687 1.5254-2.1758 1.2449-1.5574 2.3153-2.5786 3.3234-3.2268 3.7175-3.0906 4.2256-3.0219 4.5816-2.9676 3.4758-2.1053 8.8817-5.1281 2.8962-1.5896 1.9613-0.92969 2.1552-0.81631 1.9914-0.5561 2.6716-0.47006 2.3832-0.2054 2.7678-0.011301 2.1734 0.18232 1.1723 0.17604 2.1688 0.47564 1.3133 0.37885 2.4808 0.89135 3.4148 1.5813 1.378 0.77121 0.36259 0.28705" stroke="#bdc660"/>
    </defs>
    <g clip-path="url(#pe493ac836d)">
     <use y="280.512" fill="#bdc660" stroke="#bdc660" xlink:href="#me297b2c3e1"/>
    </g>
   </g>
  </g>
 </g>
 <defs>
  <clipPath id="pe493ac836d">
   <rect x="7.2" y="7.2" width="328.74" height="266.11"/>
  </clipPath>
 </defs>
</svg>
