<?xml version="1.0" encoding="UTF-8"?>
<!DOCTYPE svg  PUBLIC '-//W3C//DTD SVG 1.1//EN'  'http://www.w3.org/Graphics/SVG/1.1/DTD/svg11.dtd'>
<svg width="365.13pt" height="280.51pt" version="1.1" viewBox="0 0 365.13 280.51" xmlns="http://www.w3.org/2000/svg" xmlns:xlink="http://www.w3.org/1999/xlink">
 <metadata>
  <rdf:RDF xmlns:cc="http://creativecommons.org/ns#" xmlns:dc="http://purl.org/dc/elements/1.1/" xmlns:rdf="http://www.w3.org/1999/02/22-rdf-syntax-ns#">
   <cc:Work>
    <dc:type rdf:resource="http://purl.org/dc/dcmitype/StillImage"/>
    <dc:date>2024-07-04T12:07:26.440760</dc:date>
    <dc:format>image/svg+xml</dc:format>
    <dc:creator>
     <cc:Agent>
      <dc:title>Matplotlib v3.7.1, https://matplotlib.org/</dc:title>
     </cc:Agent>
    </dc:creator>
   </cc:Work>
  </rdf:RDF>
 </metadata>
 <defs>
  <style type="text/css">*{stroke-linejoin: round; stroke-linecap: butt}</style>
 </defs>
 <g id="figure_1">
  <g id="patch_1">
   <path d="m0 280.51h365.13v-280.51h-365.13v280.51z" fill="none"/>
  </g>
  <g id="axes_1">
   <g id="PatchCollection_1">
    <defs>
     <path id="m06f3aa367f" d="m273.42-251.74-0.013305 0.60614 0.1701 0.50496 0.436 0.72569 0.64825 0.67962 0.85501 0.53224 1.1602 0.42456 1.6302 0.3864 1.1238 0.15348 3.0494 0.25975 2.7487 0.54598 0.98141 0.29972 1.0715 0.45478 0.97177 0.55187 0.98787 0.74356 0.80518 0.7793 1.1785 1.409 1.0982 1.5567 3.3615 5.4327 3.0431 4.6195 2.3974 3.8953 1.1171 1.9219 1.5614 2.9043 0.90547 1.883 1.792 4.2588 0.70738 1.8843 1.7285 5.0222 3.6412 11.641 1.7034 4.8481 1.4296 3.6073 1.1461 2.6856 4.0762 8.8057 1.1962 2.7857 0.7435 1.947 0.91276 2.9041 2.6371 9.4723 0.85518 2.6785 1.1081 3.0793 1.6301 3.8467 1.2777 2.638 0.92405 1.7566 1.5598 2.7134 1.5966 2.4985 0.99991 1.4268 0.96111 1.2312 1.3053 1.367 0.49125 0.40678 0.93348 0.6192 0.86819 0.39038 0.69135 0.11581 0.36438-0.16466-0.93721 12.003-0.42878 3.5771-0.66916 4.1049-0.86665 4.4793-3.5685 17.456-1.8006 8.2323-5.1547 22.807-0.86939 4.246-0.74335 4.2968-0.38721 3.2329-0.092156 2.0636 0.068616 2.813 0.56282 7.7151 0.085002 4.6162-0.028854 0.95322-0.067039 0.38736-0.51896-0.58046-0.91451-0.81459-0.98655-0.61601-0.90385-0.28092-0.72193-0.029796-0.74946 0.11203-4.2424 1.2225-0.92711 0.31326-0.83218 0.37269-3.6793 2.2807-1.8984 1.0936-1.6751 0.85363-1.5281 0.6577-8.1565 2.8614-4.8481 1.4355-3.2242 1.131-1.7918 0.72113-0.88727 0.42266-2.0429 1.2278-1.0755 0.57143-0.88436 0.34415-0.83459 0.2076-0.73604 0.084506-1.2274-0.048654-1.2795-0.22254-1.8053-0.48104-3.7184-1.1458-1.3935-0.26926-1.4366-0.07072-3.3516 0.33658-1.7989 0.03773-5.0153-0.38811-0.79118 0.051549-0.82762 0.19401-0.49483 0.19686-0.63734 0.35506-0.91425 0.74902-0.44392 0.54681-0.112 0.28861-1.1662-3.442-1.3104-3.1177-0.38699-0.74623-0.67368-1.0813-1.0721-1.2728-0.66386-0.60673-0.78281-0.60335-1.3284-0.86554-1.533-0.88797-2.962-1.5783-5.0417-2.3724-2.7522-1.442-1.2265-0.73948-1.5223-1.045-1.6818-1.3858-1.6413-1.7085-1.7923-2.3632-1.4154-2.1978-3.0558-5.2188-0.99074-1.4767-1.2798-1.4857-1.1086-1.0009-1.6799-1.2274-2.408-1.507-5.2025-2.9843-3.0699-1.6357-3.5573-1.7236-2.1976-0.92835-1.5621-0.5341-1.8363-0.41051-0.90376-0.098485-1.6726 0.003729-1.1435 0.14129-1.319 0.30086-1.2641 0.42083-1.5423 0.67548-2.1825 1.2278-1.5216 1.0126-2.4717 1.82-6.5716 5.2111-10.999 9.8119-1.4128 1.2137-2.2996 1.8228-2.9691 2.0221-2.1393 1.2826-1.3678 0.73111-2.7152 1.3189-5.8959 2.6509-1.8613 0.77749-1.1151 0.37434-0.88108 0.22527-1.0648 0.18177-1.1777 0.093214-1.1382-0.001382-1.9389-0.17032-1.077-0.17447-3.7179-0.7999-1.976-0.2591-1.0881-0.016579-1.2355 0.089448-1.3163 0.19824-2.2228 0.49397-2.463 0.68205-2.0874 0.64968-7.7457 2.6462-1.3311 0.40719-1.3187 0.3354-1.6293 0.28627-1.6686 0.11932-1.521-0.053433-2.2804-0.34434-2.1308-0.57617-1.2296-0.44612-2.31-1.0012-8.3652-4.1755-2.5279-1.4259-3.8419-2.3297-1.4954-0.80603-1.433-0.65928-1.6991-0.69003-6.2524-2.3301-1.7909-0.81641-1.3562-0.72236-1.348-0.82149-1.3901-0.94682-3.6257-2.7307-2.1799-1.5083-4.065-2.433-0.71834-0.32905-0.34963-0.091579-0.23313 0.058421-0.052001-0.31402-0.34066-0.87259-1.0639-2.2111-0.91001-1.6133-0.98321-1.5307-1.095-1.4808-1.0363-1.2274-1.2829-1.3563-3.1202-2.9774-2.575-2.6005-3.768-4.2426-3.2555-3.526-3.5982-4.0668-1.0652-1.0922-3.0272-2.7762-1.1339-1.1396-0.86444-1.0649-0.69238-1.2518-0.40852-1.3093-0.13624-1.2177-2.18e-4 -1.5972 0.068074-1.5297 0.17714-1.2969 0.40044-1.6583 1.3886-4.4458 0.65054-2.3768 0.93338-3.8921 0.26462-1.8335 0.11641-1.4239 0.072305-2.3724-0.2274-10.355-0.25918-2.0375-0.46739-1.9878-1.5854-5.3288-1.0288-2.7287-0.45575-0.85689-0.63389-0.97429-0.82116-1.0708-1.9697-2.3474-0.74066-1.032-0.37614-0.70522-0.17967-0.52404-0.068382-0.49155 0.078938-0.63882 0.20553-0.51898 0.2423-0.38945 0.62635-0.70667 3.2932-2.6554 0.70593-0.80373 0.42482-0.74238 0.042649-0.57753 0.037296-0.12685 0.2102-0.24063 0.99286-0.83841 1.1775-0.83408 1.6724-1.0183 1.976-1.054 5.3258-2.6512 8.507-4.5326 11.951-7.3022 3.1755-2.2473 7.958-6.2358 2.9409-2.0536 6.0435-4.0762 4.4024-3.2038 9.7542-6.5284 1.7937-1.3632 1.1143-0.97486 1.1089-1.123 1.3422-1.6667 0.84326-1.2761 0.81094-1.4583 0.76883-1.5899 0.81468-1.9596 0.50068-1.4734 0.88403-2.9516 0.94669-2.4297 1.4777-2.8475 4.7155-8.2271 1.9865-2.9847 1.1038-1.4514 1.256-1.4862 1.2702-1.3639 1.4639-1.439 1.9756-1.7381 0.48954-0.3039-0.11995-0.15362 0.18549-0.44081 0.77672-0.87569 1.5087-1.2405 2.0837-1.4302 2.1652-1.3245 2.8911-1.6227 6.3-3.2213 6.3115-2.9901 5.3063-2.3924 6.3083-2.7154 4.592-1.868 4.3978-1.6557 2.2137-0.76832 4.2036-1.2985 2.1585-0.56382 3.7067-0.75006 3.5487-0.47811 2.3403-0.18459 1.6079-0.058392 2.6354-0.004743 1.8715 0.071236 1.6236 0.1382 1.6428 0.22828 1.292 0.24905 2.4453 0.61601 2.1149 0.66894 1.7106 0.63532 6.7202 3.0107 2.3051 1.1806 3.6401 2.2308 1.4921 0.85749 1.3215 0.64245 1.3735 0.48299 1.848 0.35578 1.5713 0.10441 1.7814-0.04179 3.002-0.2404 6.8085-0.74693 2.6744-0.14266 2.5154 0.026465 2.1318 0.15287 1.8262 0.21428 4.0871 0.7182 6.1594 1.3679 1.5818 0.29325 1.9708 0.27542 2.2392 0.14063 2.6913-0.098812 2.4665-0.31455 1.8849-0.36879 3.1802-0.82712 3.424-1.0765 1.8723-0.67211 1.4747-0.65357" stroke="#bdc660"/>
    </defs>
    <g clip-path="url(#p3d0e684465)">
     <use y="280.512" fill="#bdc660" stroke="#bdc660" xlink:href="#m06f3aa367f"/>
    </g>
   </g>
  </g>
 </g>
 <defs>
  <clipPath id="p3d0e684465">
   <rect x="7.2" y="7.2" width="350.73" height="266.11"/>
  </clipPath>
 </defs>
</svg>
