<?xml version="1.0" encoding="UTF-8"?>
<!DOCTYPE svg  PUBLIC '-//W3C//DTD SVG 1.1//EN'  'http://www.w3.org/Graphics/SVG/1.1/DTD/svg11.dtd'>
<svg width="195.56pt" height="280.51pt" version="1.1" viewBox="0 0 195.56 280.51" xmlns="http://www.w3.org/2000/svg" xmlns:xlink="http://www.w3.org/1999/xlink">
 <metadata>
  <rdf:RDF xmlns:cc="http://creativecommons.org/ns#" xmlns:dc="http://purl.org/dc/elements/1.1/" xmlns:rdf="http://www.w3.org/1999/02/22-rdf-syntax-ns#">
   <cc:Work>
    <dc:type rdf:resource="http://purl.org/dc/dcmitype/StillImage"/>
    <dc:date>2024-07-04T12:07:28.261099</dc:date>
    <dc:format>image/svg+xml</dc:format>
    <dc:creator>
     <cc:Agent>
      <dc:title>Matplotlib v3.7.1, https://matplotlib.org/</dc:title>
     </cc:Agent>
    </dc:creator>
   </cc:Work>
  </rdf:RDF>
 </metadata>
 <defs>
  <style type="text/css">*{stroke-linejoin: round; stroke-linecap: butt}</style>
 </defs>
 <g id="figure_1">
  <g id="patch_1">
   <path d="m0 280.51h195.56v-280.51h-195.56v280.51z" fill="none"/>
  </g>
  <g id="axes_1">
   <g id="PatchCollection_1">
    <defs>
     <path id="mda302af8c3" d="m170.72-76.809 9.4062 57.513-1.732-0.53052-12.459-4.0274-6.5637-2.0043-4.2446-1.1556-2.0888-0.48994-2.0713-0.40744-2.058-0.2996-2.049-0.15874-1.7629-0.004173-1.7613 0.090089-9.3535 0.89038-3.8949 0.2513-3.8999 0.1449-1.928 0.02863-3.8551-0.017675-3.8516-0.10798-1.9235-0.091462-3.8975-0.28578-1.9734-0.19737-3.939-0.48326-4.0334-0.60416-13.986-2.3217-5.898-0.86105-3.984-0.46737-2.0148-0.17717-2.0271-0.12616-2.0479-0.081643-2.0706-0.044496-4.2154 0.006986-4.317 0.13593-2.1899 0.12653-2.1992 0.17567-2.2319 0.23433-2.1933 0.27732-4.0479 0.60626-3.335 0.5639 1.5479-1.144 1.2271-0.99576 0.77151-0.67599 1.2114-1.1446 1.5141-1.6113 1.0128-1.2673 0.50082-0.73512 0.42717-0.7351 0.4257-0.94597 0.22919-0.78532 0.10408-0.99886-0.1046-1.0376-0.2781-0.97063-0.22898-0.5768-0.34283-0.72082-0.46897-0.82438-0.36557-0.56362-2.3137-3.2493-2.2518-3.5879-1.5813-2.3819-0.75867-1.0597-1.1461-1.4875-0.85189-0.97362-0.94441-0.93126-0.43724-0.37914-1.1296-0.84138-1.0806-0.58912-1.1337-0.39374-1.184-0.26312-2.7028-0.47003-1.447-0.37969-1.3476-0.59889-1.2439-0.93538-1.1155-1.2076-1.0203-1.4105-0.95063-1.5599-0.90051-1.6683-0.86499-1.746-0.84016-1.8006-2.4338-5.5821-1.5711-3.7873-1.507-3.8021-0.70968-1.903-0.66215-1.9039-0.59416-1.9053-0.49858-1.9077-0.36632-1.9116-0.18602-1.9176 0.03943-2.0141 0.23481-2.0211 0.37661-2.0262 0.47793-2.03 0.5491-2.0329 0.59815-2.0353 1.9507-6.1192 7.5746-22.958 7.6733-23.681 7.054-21.752 4.3403-13.238 1.8628-5.4953 1.0215-2.8007 0.7663-1.9352 1.6312-3.8268 1.71-3.7953 3.528-7.5776 5.4564-11.558 3.8387-8.0343 5.458-11.246 1.6264-3.306 1.4389-2.757 2.0683 2.2185 2.4019 2.6551 32.205 35.889 17.399 19.252 4.1805 4.6943 2.8353 3.2394 2.7771 3.3099 1.1066 1.4132 1.0634 1.4394 1.0079 1.4722 0.93684 1.5138 0.88342 1.6169 0.81666 1.656 2.3033 5.0595 0.79674 1.6736 0.85129 1.6449 1.0537 1.815 1.1373 1.7679 1.205 1.7266 1.2618 1.6879 1.3121 1.6486 1.5234 1.793 4.0292 4.4721 1.288 1.5023 1.2088 1.5359 1.0895 1.5898 0.9204 1.6681 0.72616 1.8094 0.54565 1.8944 0.4133 1.9569 0.31769 2.0023 0.24974 2.0349 0.20235 2.0579 0.45372 6.2517 1.378 23.318 2.1286 33.127" stroke="#bdc660"/>
    </defs>
    <g clip-path="url(#pc1f171a9d1)">
     <use y="280.512" fill="#bdc660" stroke="#bdc660" xlink:href="#mda302af8c3"/>
    </g>
   </g>
  </g>
 </g>
 <defs>
  <clipPath id="pc1f171a9d1">
   <rect x="7.2" y="7.2" width="181.16" height="266.11"/>
  </clipPath>
 </defs>
</svg>
