<?xml version="1.0" encoding="UTF-8"?>
<!DOCTYPE svg  PUBLIC '-//W3C//DTD SVG 1.1//EN'  'http://www.w3.org/Graphics/SVG/1.1/DTD/svg11.dtd'>
<svg width="280.84pt" height="280.51pt" version="1.1" viewBox="0 0 280.84 280.51" xmlns="http://www.w3.org/2000/svg" xmlns:xlink="http://www.w3.org/1999/xlink">
 <metadata>
  <rdf:RDF xmlns:cc="http://creativecommons.org/ns#" xmlns:dc="http://purl.org/dc/elements/1.1/" xmlns:rdf="http://www.w3.org/1999/02/22-rdf-syntax-ns#">
   <cc:Work>
    <dc:type rdf:resource="http://purl.org/dc/dcmitype/StillImage"/>
    <dc:date>2024-07-04T12:07:32.169857</dc:date>
    <dc:format>image/svg+xml</dc:format>
    <dc:creator>
     <cc:Agent>
      <dc:title>Matplotlib v3.7.1, https://matplotlib.org/</dc:title>
     </cc:Agent>
    </dc:creator>
   </cc:Work>
  </rdf:RDF>
 </metadata>
 <defs>
  <style type="text/css">*{stroke-linejoin: round; stroke-linecap: butt}</style>
 </defs>
 <g id="figure_1">
  <g id="patch_1">
   <path d="m0 280.51h280.84v-280.51h-280.84v280.51z" fill="none"/>
  </g>
  <g id="axes_1">
   <g id="PatchCollection_1">
    <defs>
     <path id="m102dc4bf2a" d="m261.52-226.85 0.007714 0.12695-0.21492 0.56292-0.89345 1.8672-1.0554 1.9385-1.2358 2.1389-1.3858 2.2158-2.5809 3.7819-0.74012 1.1514-1.1251 1.93-2.7607 5.1465-1.1722 2.06-3.3936 5.5523-0.83315 1.2921-0.93508 1.3411-4.6333 6.3094-1.4334 1.7904-1.8265 2.1371-0.959 1.0273-1.542 1.5032-3.088 2.7968-1.1599 0.9428-2.0906 1.5406-0.91695 0.81237-0.61977 0.68334-0.71564 0.95998-1.0374 1.6774-0.45521 0.84976-0.5011 1.0532-0.51135 1.2383-0.36178 1.0391-0.25631 0.88798-0.19911 0.86386-0.12905 0.72582-0.15681 1.2704-0.31616 4.5887-0.29007 2.3848-0.76504 4.8545-0.7947 4.7373-1.3129 7.2278-0.50317 2.4681-0.47511 1.8408-0.32201 1.0364-0.39743 1.1039-0.57321 1.3569-0.47922 0.99316-0.95939 1.7081-0.76699 1.1789-1.1762 1.5975-0.5722 0.69145-1.0338 1.099-0.84387 0.75554-0.84187 0.66764-2.5263 1.8965-3.2045 2.508-4.4231 3.3266-2.0635 1.759-1.8651 1.7854-1.1846 1.2892-0.58577 0.72711-0.45318 0.65068-0.535 0.99196-0.30318 0.96745-0.051243 0.72114 0.13356 0.67249 0.59602 0.93041 0.97314 0.80702 1.2385 0.71499 1.4088 0.64931 4.3824 1.7478 1.1887 0.54936 0.44036 0.24963 0.47316 0.3221 0.60121 0.54135 0.25573 0.31556 0.30512 0.50367 0.29805 0.79397 0.116 0.58022 0.051419 0.59739-0.00829 0.64476-0.056877 0.57634-0.22822 1.1038-0.46166 1.412-1.3651 3.6224-0.80474 2.2563-0.49301 1.5849-0.41237 1.7858-0.1718 1.1305-0.11777 1.6418 0.02379 1.0403 0.16052 1.4827 0.2605 1.4602 0.34276 1.4546 0.49514 1.4773 0.60746 1.4806 1.1338 2.5713 1.3768 2.8605 1.081 2.0773 3.7391 6.7933 0.91363 1.7904 0.78044 1.6812 0.38004 0.90645 0.73849 2.0682 0.59393 2.0888 0.46684 2.0819 0.34468 2.0451 0.21385 1.9741 0.049368 1.1539-0.037724 0.99204-0.3394 1.7842-0.77436 1.7212-1.1471 1.6515-1.4372 1.6044-1.6628 1.5745-1.8378 1.5569-1.9716 1.5462-2.0686 1.5366-2.1282 1.5207-2.1429 1.4886-6.9417 4.6948-0.38428 0.35235-0.31221-2.298-0.33483-1.8566-0.51204-2.4443-0.3655-1.4672-0.28097-0.95772-0.37483-1.0773-0.34943-0.85115-0.51636-1.0754-0.46064-0.83685-0.4875-0.79983-0.91922-1.3373-0.67761-0.86871-0.69596-0.78614-0.54738-0.53414-0.58637-0.47869-0.73478-0.45748-0.84918-0.32038-0.42631-0.075095-0.79673-0.016759-0.66367 0.082797-0.74303 0.1777-0.90961 0.32212-1.0536 0.50836-1.076 0.66787-1.5249 1.1934-5.0689 4.7005-1.793 1.5649-2.3025 1.908-1.7665 1.3914-1.5965 1.1366-0.96333 0.61629-1.6886 0.96082-1.7214 0.79099-1.244 0.45509-3.485 0.9877-2.5227 0.88514-5.0663 2.2865-1.5885 0.62476-0.8956 0.25728-0.95034 0.1669-0.85959 0.037459-0.39149-0.031262-0.23794-0.055268-0.12205-0.097067 0.044859-0.00968 0.14234-0.1978 0.42989-0.77171 0.40477-0.90733 0.38035-0.98853 0.45902-1.5441 0.19956-0.9293 0.11746-0.77119 0.07042-0.8566 0.010602-0.73655-0.051123-1.0206-0.1287-1.1249-0.19702-1.133-0.49758-2.0007-0.71397-2.0711-0.75771-1.6816-0.55332-1.012-0.60606-0.93511-0.72318-0.92628-0.66449-0.70179-1.2258-1.015-1.8084-1.0945-1.9429-0.86059-1.2206-0.42486-1.2528-0.36129-1.1819-0.27894-1.1994-0.22549-2.0947-0.26084-1.299-0.080965-1.3034-0.019855-1.357 0.046899-1.3544 0.12062-2.2284 0.36441-1.7506 0.40939-1.4129 0.39933-1.6494 0.53572-1.5948 0.58157-1.7069 0.67325-3.9082 1.6289-1.732 0.67509-1.3623 0.4668-1.2515 0.34972-1.1878 0.23838-0.87907 0.1046-1.7272 0.028941-1.3258-0.080378-0.9344-0.12076-1.1314-0.20562-0.72362-0.17858-1.4184-0.45808-1.0848-0.5055-0.84839-0.54821-0.79317-0.70443-0.642-0.76672-0.57919-0.89736-0.49856-0.96518-0.51287-1.2105-0.32616-0.8882-0.62632-1.9176-0.79497-2.7547-0.58596-2.2356-0.8651-3.8263-0.35978-1.9107-0.29914-1.8912-0.28839-2.6293-0.079104-1.6183-0.031204-4.0797-0.13132-3.4302-0.07188-0.92516-0.22495-1.3263-0.37695-1.3461-0.52733-1.3413-0.21224-0.4468-0.77399-1.3837-0.48706-0.76169-2.405-3.4909-0.7713-1.202-0.77644-1.3557-1.8796-3.5366-1.1487-1.8644-0.7645-1.0849-0.93652-1.18-1.1233-1.2779-5.2783-5.7117-1.889-1.963-2.2059-2.1411-1.7622-1.6136-3.8059-3.2998-2.7385-2.1745-2.0438-1.4444-0.87897-0.54317-0.87246-0.47389-2.7225-1.2008-1.0143-0.50227-1.4681-0.88045-3.0502-2.0811-5.375-3.4833-2.0571-1.4671-1.938-1.5376-1.9098-1.6513-1.8762-1.7292-3.5657-3.5112-1.5969-1.6488-2.7179-2.901 0.4846-0.63311 0.88057-1.3939 0.77347-1.3583 1.6223-3.0381 1.612-2.6695 0.65972-1.2687 1.566-3.4053 0.56027-1.1074 1.468-2.5588 0.96413-1.7929 1.1933-2.4703 0.73018-1.615 0.69128-1.6947 1.3362-3.5152 0.99886-2.3048 0.95726-1.9008 2.1684-3.9653 0.67186-1.3422 0.50866-1.1361 0.96622-2.5647 0.34094-1.0827 0.25824-1.0357 0.16138-0.89499 0.10026-0.84669 0.15477-2.3208 0.12549-1.2596 0.22277-1.2841 0.37905-1.6185 0.29991-1.1456 0.2982-0.94893 0.37716-0.92788 0.65787-1.3864 0.29222-0.72075 0.12024-0.47039 0.00458-0.13048-0.042835-0.088393 0.098349-0.01454 0.082809-0.086824 0.30212-0.67239 0.34821-1.2677 0.41688-1.866 0.60794-2.4322 0.8549-2.8592 0.62835-1.7172 0.858-1.9044 0.57633-1.1426 1.1045-1.9886 1.2886-2.0017 1.26-1.5186 0.65098-0.64315 0.88428-0.77928 1.3268-1.0083 1.3548-0.94795 1.4187-0.86034 0.7581-0.38432 1.7292-0.73238 1.2058-0.39247 4.4045-1.2211 1.5228-0.49206 1.5344-0.55513 1.5429-0.60546 3.0581-1.2989 7.89-3.5613 3.0349-1.3136 2.8775-1.1183 2.7998-0.9582 1.6369-0.51221 2.0629-0.58053 2.0483-0.47236 2.0291-0.32011 1.6319-0.11079 1.6087 0.057724 1.9884 0.33505 1.965 0.53257 4.3508 1.3219 1.061 0.2756 1.7825 0.39205 1.7588 0.27885 1.7152 0.1358 4.2406-0.041257 1.2985 0.12299 1.1528 0.20301 1.6205 0.3932 1.8036 0.52906 6.8131 2.4101 0.86437 0.26991 1.1913 0.30085 0.69795 0.11992 0.84836 0.054654 0.72152-0.070556 0.82596-0.26051 0.77405-0.44178 0.86729-0.75676 0.79488-0.95366 0.44629-0.65205 0.57472-1.0176 0.52555-1.1376 0.58246-1.5238 0.52677-1.645 0.478-1.7359 0.45869-1.9051 0.77592-3.8229 0.85166-5.0966 0.10475-0.36281 1.8234-0.81544 13.338-6.2361 7.0045-3.1258 2.2599-0.94579 2.2171-0.8744 2.1708-0.7823 2.1193-0.66254 2.0599-0.50613 1.9888-0.30185 1.9016-0.03598 1.8566 0.27216 3.5484 0.85374 1.7686 0.21797 1.7759-0.10826 1.7905-0.35673 3.5106-1.0201 2.1774-0.57491 1.2461-0.18138 0.86813 0.005381 0.64155 0.12076 0.55421 0.24127 0.62721 0.57206 0.4532 0.7807 0.38188 1.0871 1.2872 4.3171 0.99013 2.8539 0.9231 2.2535 0.65054 1.4681 0.69994 1.3595 0.54678 0.92629 0.60698 0.86992 0.74323 0.84431 0.85209 0.73446 1.5457 0.89651 1.7612 0.64824 1.9215 0.46265 2.0395 0.32563 2.1255 0.22578 2.1876 0.15407 4.5697 0.17393 14.31 0.20917 4.7483 0.15848 2.3297 0.13608 2.2724 0.19609 2.1817 0.28068 2.0428 0.39889 1.837 0.56196 1.542 0.78244 1.1377 1.0709 0.45516 0.81412 0.30449 0.9185 0.11466 0.52179 0.15204 0.99037 0.60207 5.3012 0.10883 0.57799 0.078248 0.12247" stroke="#bdc660"/>
    </defs>
    <g clip-path="url(#p828179d179)">
     <use y="280.512" fill="#bdc660" stroke="#bdc660" xlink:href="#m102dc4bf2a"/>
    </g>
   </g>
  </g>
 </g>
 <defs>
  <clipPath id="p828179d179">
   <rect x="7.2" y="7.2" width="266.44" height="266.11"/>
  </clipPath>
 </defs>
</svg>
