<?xml version="1.0" encoding="UTF-8"?>
<!DOCTYPE svg  PUBLIC '-//W3C//DTD SVG 1.1//EN'  'http://www.w3.org/Graphics/SVG/1.1/DTD/svg11.dtd'>
<svg width="371.52pt" height="227.01pt" version="1.1" viewBox="0 0 371.52 227.01" xmlns="http://www.w3.org/2000/svg" xmlns:xlink="http://www.w3.org/1999/xlink">
 <metadata>
  <rdf:RDF xmlns:cc="http://creativecommons.org/ns#" xmlns:dc="http://purl.org/dc/elements/1.1/" xmlns:rdf="http://www.w3.org/1999/02/22-rdf-syntax-ns#">
   <cc:Work>
    <dc:type rdf:resource="http://purl.org/dc/dcmitype/StillImage"/>
    <dc:date>2024-07-04T12:07:20.024160</dc:date>
    <dc:format>image/svg+xml</dc:format>
    <dc:creator>
     <cc:Agent>
      <dc:title>Matplotlib v3.7.1, https://matplotlib.org/</dc:title>
     </cc:Agent>
    </dc:creator>
   </cc:Work>
  </rdf:RDF>
 </metadata>
 <defs>
  <style type="text/css">*{stroke-linejoin: round; stroke-linecap: butt}</style>
 </defs>
 <g id="figure_1">
  <g id="patch_1">
   <path d="m0 227.01h371.52v-227.01h-371.52v227.01z" fill="none"/>
  </g>
  <g id="axes_1">
   <g id="PatchCollection_1">
    <defs>
     <path id="m257f87b5e5" d="m291.64-192.56-0.061677 0.98617 0.19423 2.1632 0.4156 2.3195 0.82925 3.2252 4.8684 16.713 1.1562 3.0105 1.0946 1.8515 0.6932 0.77545 0.75604 0.60039 2.6255 1.297 9.8604 3.3637 12.203 4.6014-0.16943 0.56902-0.069306 1.1695 0.26646 1.4161 0.66674 1.4771 0.8773 1.4136 3.4715 4.5627 16.773 20.714-3.1561 3.4206-8.5438 10.128-3.4072 3.505-2.5071 2.2234-11.206 9.0308-7.5079 6.2892-4.5755 4.0502-8.2535 7.6646-4.7694 3.9852-2.6747 2.022-4.6243 3.1577-4.3648 2.6775-6.5696 3.644-5.9606 2.7124-11.116 4.0113-7.3129 2.9028-5.3692 2.6781-6.1414 3.7037-3.9615 2.7004-3.9672 3.0259-6.12 5.4001-6.2637 6.4341-4.4041 5.1499-2.2979 2.9493-22.127-14.659-19.12-13.478-5.9385-4.4979-6.7386-5.7407-6.8076-6.4161-5.6173-5.8385-10.881-12.043-1.8616-2.0499-2.0335-1.9254-4.8655-4.0584-2.7967-2.0514-3.4713-2.2853-3.629-2.1106-3.741-1.894-3.296-1.4354-3.3404-1.2507-3.3714-1.068-4.4094-1.1186-4.4272-0.84716-3.4969-0.49873-6.981-0.67495-21.955-1.3019-6.0225-0.77219-3.3113-0.67488-3.2229-0.89313-2.6338-0.94872-2.5398-1.1374-3.0578-1.7101-2.8909-1.9719-2.7222-2.1931-2.2651-2.119-2.0865-2.2816-2.1608-2.8755-1.8419-3.0882-1.3753-2.9817-1.0808-3.1156-0.68411-2.7457-0.47158-2.8091-0.26099-2.8576-0.045536-2.9526 0.17213-2.9765 0.39014-2.988 0.87458-4.054 1.2099-4.0543 1.4124-3.8762 3.2615-7.4731 3.8664-7.6904 9.1041-17.212 3.0673-6.413 1.3502-3.4315 0.5041-2.0385-0.22041-0.76102 1.9667 0.26848 4.4984 0.04906 13.014-0.85321 8.343-0.034452 7.1149 0.60142 15.606 1.9814 3.9771 0.19639 3.0763-0.056398 10.867-0.70161 10.555-1.0773 7.5386-1.2606 9.9104-2.256 7.1487-1.3251 4.9443-0.47664 5.2648 0.066756 5.0832 0.37981 5.3205 0.66095 6.4063 1.0452 3.5084 0.71555 4.5127 1.1053 8.7695 2.4735 5.7179 1.7381 8.5558 2.8281 4.458 1.2438 6.1247 1.36 7.0843 1.1265 7.9753 0.92135 6.7284 0.58937 9.2073 0.60711 12.544 0.6065 15.945 0.44767 7.4046-0.071761 4.041-0.25237" stroke="#bdc660"/>
    </defs>
    <g clip-path="url(#pbadc3003c0)">
     <use y="227.014633" fill="#bdc660" stroke="#bdc660" xlink:href="#m257f87b5e5"/>
    </g>
   </g>
  </g>
 </g>
 <defs>
  <clipPath id="pbadc3003c0">
   <rect x="7.2" y="7.2" width="357.12" height="212.61"/>
  </clipPath>
 </defs>
</svg>
