<?xml version="1.0" encoding="UTF-8"?>
<!DOCTYPE svg  PUBLIC '-//W3C//DTD SVG 1.1//EN'  'http://www.w3.org/Graphics/SVG/1.1/DTD/svg11.dtd'>
<svg width="371.52pt" height="244pt" version="1.1" viewBox="0 0 371.52 244" xmlns="http://www.w3.org/2000/svg" xmlns:xlink="http://www.w3.org/1999/xlink">
 <metadata>
  <rdf:RDF xmlns:cc="http://creativecommons.org/ns#" xmlns:dc="http://purl.org/dc/elements/1.1/" xmlns:rdf="http://www.w3.org/1999/02/22-rdf-syntax-ns#">
   <cc:Work>
    <dc:type rdf:resource="http://purl.org/dc/dcmitype/StillImage"/>
    <dc:date>2024-07-04T12:07:16.108836</dc:date>
    <dc:format>image/svg+xml</dc:format>
    <dc:creator>
     <cc:Agent>
      <dc:title>Matplotlib v3.7.1, https://matplotlib.org/</dc:title>
     </cc:Agent>
    </dc:creator>
   </cc:Work>
  </rdf:RDF>
 </metadata>
 <defs>
  <style type="text/css">*{stroke-linejoin: round; stroke-linecap: butt}</style>
 </defs>
 <g id="figure_1">
  <g id="patch_1">
   <path d="m0 244h371.52v-244h-371.52v244z" fill="none"/>
  </g>
  <g id="axes_1">
   <g id="PatchCollection_1">
    <defs>
     <path id="m4ff3bb6cb1" d="m252.8-17.637-4.8323-3.0265-3.9405-2.0238-2.0314-0.88066-4.2148-1.4834-5.3045-1.266-5.0132-0.76427-5.0828-0.4922-16.081-0.82244-6.2743-0.62034-7.2446-1.0599-15.683-2.5867-6.2737-1.1777-4.4842-1.0387-9.9576-2.8541-4.2089-1.377-4.4896-1.6304-8.7583-3.6094-14.072-6.2464-10.656-5.737-2.6644-1.5686-4.1101-2.6376-3.882-2.8139-1.73-1.3949-3.2617-2.9133-2.0268-2.0269-3.3396-3.7911-3.93-5.2878-2.3301-3.567-7.6889-12.525-2.5812-3.9796-3.0248-4.3521-1.5918-2.1088-2.8213-3.3558-1.5109-1.5859-3.0394-2.7635-3.2997-2.5005-4.297-2.6759-11.879-6.3641-6.4893-3.6255-15.264-9.234 1.9759-2.5359 3.7868-4.428 5.3857-5.5323 5.2622-4.6432 3.4111-2.6018 3.4062-2.3219 5.2806-3.1846 4.6166-2.3027 6.2879-2.4959 9.5582-3.4491 5.1251-2.3322 5.6488-3.1332 3.753-2.3022 3.9762-2.7151 2.2998-1.7386 4.1009-3.4266 7.0966-6.5903 3.9342-3.4825 6.4555-5.4077 9.6354-7.765 2.1557-1.9118 2.9296-3.0137 7.3463-8.708 2.7137-2.9411 13.213 1.5493 8.7338 1.461 6.4786 1.3585 10.955 2.6842 36.314 9.5341 5.207 1.6178 4.2513 1.4687 4.1101 1.5335 7.3226 2.9824 8.2444 3.6909 4.8021 2.2892 5.7744 2.9537 3.517 1.9532 6.3079 3.7732 5.5538 3.5536 5.1679 3.5045 4.7654 3.5266 11.508 9.2613 7.099 5.9302 6.196 5.5555 3.3236 3.1872 6.14 6.4204 3.3506 3.8086 5.79 6.9896 8.5894 10.809 5.6403 7.473 3.2222 4.8012 3.1735 5.204 1.4227 2.6352 1.1039 2.3553 0.72654 1.9418 0.4082 1.6582 0.10056 0.9962-0.14368 1.4472-0.27644 0.83879-0.54052 1.0112-1.6528 1.9244-2.6054 2.1522-2.4001 1.4794-2.7801 1.1636-1.4524 0.39355-3.1246 0.48275-5.1011 0.17113-9.8922-0.15818-3.1183 0.1197-4.1129 0.45489-4.0595 0.85734-3.9292 1.3297-2.9574 1.4083-3.4328 2.0091-5.2963 3.6068-3.4405 2.6802-2.776 2.458-3.749 3.8811-3.7854 4.6561-3.0658 4.3234-4.086 6.4874-3.3002 5.8415-3.813 7.4256-9.2895 19.873-0.77264 1.5295-0.33686 0.42268" stroke="#bdc660"/>
    </defs>
    <g clip-path="url(#pa7bcc112b9)">
     <use y="244.004752" fill="#bdc660" stroke="#bdc660" xlink:href="#m4ff3bb6cb1"/>
    </g>
   </g>
  </g>
 </g>
 <defs>
  <clipPath id="pa7bcc112b9">
   <rect x="7.2" y="7.2" width="357.12" height="229.6"/>
  </clipPath>
 </defs>
</svg>
