<?xml version="1.0" encoding="UTF-8"?>
<!DOCTYPE svg  PUBLIC '-//W3C//DTD SVG 1.1//EN'  'http://www.w3.org/Graphics/SVG/1.1/DTD/svg11.dtd'>
<svg width="371.52pt" height="190pt" version="1.1" viewBox="0 0 371.52 190" xmlns="http://www.w3.org/2000/svg" xmlns:xlink="http://www.w3.org/1999/xlink">
 <metadata>
  <rdf:RDF xmlns:cc="http://creativecommons.org/ns#" xmlns:dc="http://purl.org/dc/elements/1.1/" xmlns:rdf="http://www.w3.org/1999/02/22-rdf-syntax-ns#">
   <cc:Work>
    <dc:type rdf:resource="http://purl.org/dc/dcmitype/StillImage"/>
    <dc:date>2024-07-04T12:07:21.039675</dc:date>
    <dc:format>image/svg+xml</dc:format>
    <dc:creator>
     <cc:Agent>
      <dc:title>Matplotlib v3.7.1, https://matplotlib.org/</dc:title>
     </cc:Agent>
    </dc:creator>
   </cc:Work>
  </rdf:RDF>
 </metadata>
 <defs>
  <style type="text/css">*{stroke-linejoin: round; stroke-linecap: butt}</style>
 </defs>
 <g id="figure_1">
  <g id="patch_1">
   <path d="m0 190h371.52v-190h-371.52v190z" fill="none"/>
  </g>
  <g id="axes_1">
   <g id="PatchCollection_1">
    <defs>
     <path id="m7bf7827846" d="m242.94-19.748-3.3476 0.20906-6.134 0.059448-13.209-0.37086-10.391-0.50243-7.6274-0.50293-5.5738-0.48824-6.6068-0.76325-5.8687-0.93322-5.0737-1.1266-3.6931-1.0304-7.0877-2.3428-4.7367-1.4399-7.2647-2.0491-3.7383-0.91562-2.9064-0.59277-5.307-0.86583-4.4075-0.54754-4.211-0.31464-4.3614-0.055301-4.0959 0.39486-5.922 1.0977-8.2098 1.8689-6.245 1.0443-8.7437 0.89245-9.0027 0.58122-2.5484 0.046719-3.2947-0.16269-12.928-1.6414-5.8941-0.49822-6.9114 0.02854-10.781 0.70681-3.7265-0.040642-1.6292-0.22241-0.62859-2.064-1.0909-2.9084-3.5543-8.5843-8.0545-17.092-1.9529-4.6894-1.0396-3.1118-0.82687-3.1596-0.31637-1.5985-0.40764-3.242-0.15949-4.7568 0.24195-4.4551 0.66788-4.6851 1.2035-4.9657 1.8102-5.3299 2.2299-5.3637 2.2399-4.5688 2.4713-4.4295 2.2389-1.4265 3.568-1.9426 14.446-7.2317 5.6867-3.2198 3.2398-2.0657 6.067-4.443 6.0155-4.8062 6.1809-5.3317 6.3896-6.0418 0.20371 0.32412 0.6295 0.57501 1.6019 1.1911 3.8934 2.3061 4.4833 2.0035 2.9912 0.96141 1.7918 0.40283 5.0133 0.61533 6.6203 0.42955 13.64 0.38592 3.4421 0.028318 2.4094-0.12109 4.566-0.50471 3.091-0.49187 3.1721-0.69814 4.2282-1.341 7.5307-2.8964 5.3907-1.7935 3.0571-0.85727 9.8037-2.3351 4.2408-1.2131 8.1228-2.9673 16.638-6.9496 4.5392-1.7825 3.9631-1.386 1.4746-0.39154 1.9547-0.29785 2.0116 0.030916 4.2247 0.51302 2.0077 0.087826 3.186-0.2108 2.0667-0.31742 2.982-0.61328 3.1161-0.84137 13.591-4.6605 0.60925-0.26509 2.7664 0.1137 2.234 0.35955 2.6553 0.6029 2.8091 0.80408 5.933 2.1534 3.3651 1.4477 5.1113 2.4699 3.8462 2.0886 2.7036 1.6414 3.3305 2.2945 2.5157 1.985 3.9743 3.7186 2.1996 2.4364 1.8387 2.2485 3.031 4.1357 3.1257 4.8261 2.1423 3.6352 2.2975 4.2007 2.6382 5.2307 4.8945 10.769 8.3519 20.276 1.4671 3.1626 1.7869 3.3785 2.5359 4.062 2.4626 3.5218 7.7921 10.137 2.9653 4.0314 1.9246 3.0179 1.3807 2.546 1.3676 3.0333 1.4473 4.3752 0.7156 3.9888 0.059455 2.8503-0.23091 1.858-0.70825 2.3791-0.75854 1.558-1.2754 1.9565-1.1377 1.3904-2.0128 2.0153-2.5803 2.1513-2.8878 2.1452-3.035 1.9805-3.8074 2.2053-6.7745 3.7315-5.7553 2.9654-4.2136 1.9705-4.2014 1.7612-3.5946 1.3076-3.4144 1.0295-3.4933 0.80343-3.8776 0.59601-4.2018 0.28901-3.2585-0.030457-3.3699-0.25494-3.8412-0.48578-20.014-3.429-8.4088-1.1609-3.5383-0.24678-2.8812 0.071477-0.69336 0.10306-0.95576 0.33424-0.23635 0.2926 0.012711 0.2402" stroke="#bdc660"/>
    </defs>
    <g clip-path="url(#p35d128633c)">
     <use y="190.00088" fill="#bdc660" stroke="#bdc660" xlink:href="#m7bf7827846"/>
    </g>
   </g>
  </g>
 </g>
 <defs>
  <clipPath id="p35d128633c">
   <rect x="7.2" y="7.2" width="357.12" height="175.6"/>
  </clipPath>
 </defs>
</svg>
