<?xml version="1.0" encoding="UTF-8"?>
<!DOCTYPE svg  PUBLIC '-//W3C//DTD SVG 1.1//EN'  'http://www.w3.org/Graphics/SVG/1.1/DTD/svg11.dtd'>
<svg width="290.11pt" height="280.51pt" version="1.1" viewBox="0 0 290.11 280.51" xmlns="http://www.w3.org/2000/svg" xmlns:xlink="http://www.w3.org/1999/xlink">
 <metadata>
  <rdf:RDF xmlns:cc="http://creativecommons.org/ns#" xmlns:dc="http://purl.org/dc/elements/1.1/" xmlns:rdf="http://www.w3.org/1999/02/22-rdf-syntax-ns#">
   <cc:Work>
    <dc:type rdf:resource="http://purl.org/dc/dcmitype/StillImage"/>
    <dc:date>2024-07-04T12:07:35.835892</dc:date>
    <dc:format>image/svg+xml</dc:format>
    <dc:creator>
     <cc:Agent>
      <dc:title>Matplotlib v3.7.1, https://matplotlib.org/</dc:title>
     </cc:Agent>
    </dc:creator>
   </cc:Work>
  </rdf:RDF>
 </metadata>
 <defs>
  <style type="text/css">*{stroke-linejoin: round; stroke-linecap: butt}</style>
 </defs>
 <g id="figure_1">
  <g id="patch_1">
   <path d="m-0 280.51h290.11v-280.51h-290.11v280.51z" fill="none"/>
  </g>
  <g id="axes_1">
   <g id="PatchCollection_1">
    <defs>
     <path id="m8f1a5abd92" d="m191.37-260.64 32.818 14.722 24.526 10.861 6.9516 3.1909 2.1554 1.0617 2.0101 1.0622 1.8042 1.0642 1.517 1.0684 1.1223 1.0759 0.58721 1.0882 0.008054 0.88659-0.30147 0.90918-1.1279 2.2508-0.45683 1.3615-0.12922 1.0753 0.057003 1.1206 0.2078 1.0566 0.51846 1.7061 0.92115 2.6259 0.31479 1.2558 0.11885 0.97928-0.007679 0.71937-0.10372 0.69303-0.19739 0.64624-0.28318 0.59307-0.32501 0.49103-0.33875 0.39831-0.48899 0.45047-0.73972 0.5127-0.67755 0.36814-1.0151 0.45317-1.5341 0.55878-2.5443 0.82651-1.2169 0.518-0.60268 0.42983-0.44338 0.501-0.38019 0.6757-0.27781 0.7613-0.2087 0.85954-0.24131 1.7987-0.074448 1.2108-0.014474 3.213 0.091382 2.3149 0.28193 3.8349 0.38107 3.2356 0.27734 1.7319 0.37755 1.8113 0.48557 1.6847 0.32961 0.84891 0.36937 0.73714 0.29092 0.45542 0.41449 0.49468 0.45446 0.36986 0.37574 0.1893 1.1294 0.098574 0.63023-0.13688 0.6234-0.21821 2.5096-1.1684 1.4698-0.545 1.1491-0.26732 0.70977-0.085214 0.79994-0.014298 0.59632 0.05396 0.55623 0.10918 0.66114 0.22186 0.50862 0.26029 0.5103 0.37475 0.41775 0.44256 0.35028 0.55356 0.23903 0.63176 0.099073 0.56211 0.010501 0.4757-0.061859 0.5371-0.1744 0.69338-0.46167 1.1417-1.0003 1.7857-2.4148 3.7329-0.91338 1.7177-0.33948 0.85203-0.33893 1.3535-0.079366 1.1095 0.084412 1.2094 0.20397 1.1203 0.36535 1.3814 1.4073 4.303 0.37124 1.2533 0.2897 1.1671 0.15982 0.83991 0.13184 1.1638 0.009393 0.9748-0.17506 1.2879-0.18592 0.61893-0.45701 0.94533-0.58624 0.84219-0.82866 0.94614-0.74267 0.74993-1.3504 1.2171-0.70785 0.5088-0.68643 0.40366-0.98648 0.47881-1.0131 0.41834-4.2816 1.5313-2.6435 1.0572-2.1177 1.0028-1.8768 1.032-1.3707 0.85961-0.73636 0.51559-0.95476 0.75422-0.74126 0.6854-0.63888 0.69948-0.35939 0.46-0.42117 0.63784-0.17315 0.31354-0.33552 0.80142-0.12155 0.4666-0.018234 1.7577 0.51032 1.882 0.89646 1.9843 1.1673 2.0715 3.2327 5.1433 1.0385 1.762 1.0174 1.9036 0.70455 1.4721 0.97261 2.3661 0.45454 1.3474 0.46422 1.7226 0.3355 1.6828 0.17464 1.2391 0.12913 1.8049-0.030267 1.221-0.12478 0.78098-0.36983 0.47325-0.68802 0.06163-1.5457 0.30386-3.3653 0.86352-1.8043 0.3929-5.2953 0.81292-1.143 0.21735-1.8514 0.42886-2.0872 0.5974-1.0871 0.37697-1.151 0.45863-1.4724 0.6917-0.87108 0.47222-1.044 0.63528-1.0337 0.7243-1.0932 0.89852-0.79978 0.75668-1.2801 1.405-1.3085 1.6982-2.8582 4.1851-1.9102 2.5663-1.0064 1.2309-1.1683 1.3362-1.2213 1.2999-1.1181 1.1106-1.8788 1.7352-3.3335 2.9567-1.9313 1.6843-1.2025 0.97821-1.0744 0.72731-0.90244 0.49822-1.5253 0.66158-2.0819 0.701-2.7218 0.76224-1.8627 0.37648-2.1805 0.37023-1.9796 0.41075-2.8713 0.69456-3.3053 0.89584-1.6143 0.38664-1.167 0.22311-1.2303 0.1771-5.4286 0.52767-2.2742 0.31782-2.0312 0.46161-4.3245 1.4374-1.6482 0.4775-1.7647 0.42369-1.7371 0.26307-2.8752 0.25087-1.2453 0.17338-3.3929 0.68257-4.1139 0.70228-1.1986 0.29641-1.5225 0.58651-1.5899 0.85183-1.6727 1.1047-3.6329 2.5632-1.917 1.2265-1.9013 1.1197-2.3114 1.2929-2.4907 1.2667-1.3603 0.60609-1.6336 0.64264-6.0038 2.2546-1.9561 0.66633-1.5977 0.44816-1.6944 0.36538-0.7796 0.09342-0.20423-0.006583-0.16109-0.045645-0.040273-0.062515-0.15354-0.18045-0.3223-0.14198-0.85695-0.1949-0.73636-0.078323-1.3575-0.010685-1.303 0.10664-1.7018 0.2633-3.721 0.80162-1.5434 0.28992-6.1941 0.79936-1.5704 0.24229-1.6443 0.37495-1.007 0.31451-1.8148 0.72544-2.2358 1.1186-2.1776 1.2721-3.2133 1.9968-1.0744 0.60312-3.5135 1.7996-3.3135 1.634-6.777 3.4826-1.5817 0.87231-3.8024 2.231-1.3166 0.68369-0.99052 0.42834-0.9787 0.34011-0.95403 0.25084-1.047 0.1742-1.0436 0.04956-0.60286-0.042137-0.98667-0.21394-0.42736-0.16485-0.66934-0.40534-0.37209-0.36047-0.40008-0.60378-0.4578-1.2719-0.2124-1.524-0.014846-0.49332 0.23491-4.9105-0.015304-2.1508-0.11187-1.4796-0.20697-1.5159-0.26607-1.3662-0.24418-1.008-1.0027-3.5751-0.7676-3.1058-0.23701-0.75101-0.34402-0.89093-0.43779-0.84215-0.35966-0.52082-0.49218-0.58735-1.5282-1.5655-0.92732-0.80633-1.0463-0.67331-1.1275-0.45185-1.2302-0.28241-1.2862-0.1348-5.3087-0.097126-1.6709-0.13957-1.813-0.38416-1.7657-0.6381-1.654-0.87868-1.4671-1.1234-1.1891-1.3906-0.88833-1.8183-0.55177-2.0888-0.30747-2.2905-0.1367-2.439-0.025656-2.5459 0.10348-7.9454-0.061073-2.6381-0.19889-2.5583-0.40601-2.4111-0.69347-2.1741-1.0621-1.8246-1.1978-1.1917-1.3624-0.87899-1.3639-0.57527-1.1597-0.26305-0.7095 0.096248 3.5669-14.612 0.8934-3.2532 0.68422-1.9998 0.39466-0.91804 0.44752-0.84005 0.5185-0.7374 1.6355-1.6404 0.48598-0.62286 0.43944-0.69203 0.77965-1.5136 0.69159-1.5785 0.29594-0.74787 0.25902-0.85198 0.194-0.89086 0.13735-0.91602 0.084442-0.92836 0.030563-0.92782-0.029231-0.91338-0.10032-0.88297-0.18864-0.83335-0.30064-0.76025-0.47484-0.73322-1.144-1.2921-0.50773-0.64798-0.35062-0.70582-0.087516-0.3581-0.047012-0.55995 0.087255-1.1501 0.26861-1.6192 0.23219-0.96261 0.16526-0.032398 0.58612 0.098104 3.8098 0.83715 2.2372 0.31188 1.487 0.12552 1.5587 0.061582 1.4059-0.01993 1.2021-0.082844 1.2513-0.159 0.90608-0.16756 1.0331-0.25534 1.3549-0.46425 1.0791-0.4884 0.85985-0.48474 0.73255-0.48973 1.1378-0.90152 0.6516-0.58917 1.0906-1.1033 1.4337-1.702 1.3119-1.8155 0.74688-1.203 0.38824-0.70961 0.84447-1.8396 0.72267-1.9062 0.95273-3.0364 1.601-5.4695 0.35014-0.91686 0.78222-1.7121 3.4913-6.7364 0.74547-1.317 0.86144-1.2592 0.68476-0.77635 0.5712-0.53779 1.3838-1.076 2.1433-1.3882 2.689-1.5779 6.4274-3.9069 1.1066-0.80812 0.92918-0.85908 0.46674-0.57428 0.40992-0.69788 0.26777-0.71954 0.15508-1.1026-0.082051-2.2971 0.059212-1.4606 0.28251-1.4442 0.39507-1.052 0.98978-2.1621 0.31709-0.8941 0.29197-1.3384 0.061937-0.72692-7.3e-4 -1.087-0.071812-1.1267-0.3029-3.534-0.039602-0.99124 0.01781-2.9921-0.087272-1.4261-0.25624-1.4498-0.75922-2.8536-0.3988-1.7664-0.14967-1.6687 0.26295-1.4949 0.18057-0.39323 0.35393-0.54914 0.57029-0.64489 0.72637-0.64846 2.7503-2.1267 0.79821-0.70954 0.71592-0.73047 0.52029-0.60738 0.57139-0.76381 0.42825-0.65696 0.41602-0.74701 0.31796-0.72521 0.24695-0.8224 0.13325-0.9718-0.002145-0.74399-0.077679-0.682-0.12969-0.58885-0.31693-0.82756-0.34062-0.50033-0.41871-0.26519 0.47438-0.13756 1.1364-0.11202 1.91-0.1035 2.5325-0.063869 5.3559 0.063645 2.139-0.054339 2.147-0.18781 0.90937-0.12196 1.406-0.23958 1.3763-0.29339 2.1044-0.56387 4.1722-1.409 1.3635-0.40159 3.5072-0.81275 0.54873-0.17255 0.7168-0.27457 0.83405-0.38552 2.5246-1.3943 2.0274-1.2644 6.9044-4.5289 3.0422-1.8509 1.9456-1.0501 1.6876-0.81761 2.77-1.2612 1.5106-0.80005 1.1946-0.7937 0.88502-0.67196 3.6564-2.9961 1.5015-1.1127 1.5694-0.97049 1.4849-0.68628 2.0342-0.58596 2.1135-0.34119 4.2578-0.44545 2.0379-0.34505 0.60452-0.14899 2.2413-0.66077 5.2255-1.6558 3.5872-1.1772 4.6056-1.6135 1.3962-0.37382 0.8488-0.13133 1.0472-0.06242 0.77839 0.009228 2.2066 0.18607 1.9816 0.2779 0.44623 0.10179" stroke="#bdc660"/>
    </defs>
    <g clip-path="url(#p88db567e71)">
     <use y="280.512" fill="#bdc660" stroke="#bdc660" xlink:href="#m8f1a5abd92"/>
    </g>
   </g>
  </g>
 </g>
 <defs>
  <clipPath id="p88db567e71">
   <rect x="7.2" y="7.2" width="275.71" height="266.11"/>
  </clipPath>
 </defs>
</svg>
