<?xml version="1.0" encoding="UTF-8"?>
<!DOCTYPE svg  PUBLIC '-//W3C//DTD SVG 1.1//EN'  'http://www.w3.org/Graphics/SVG/1.1/DTD/svg11.dtd'>
<svg width="245.5pt" height="280.51pt" version="1.1" viewBox="0 0 245.5 280.51" xmlns="http://www.w3.org/2000/svg" xmlns:xlink="http://www.w3.org/1999/xlink">
 <metadata>
  <rdf:RDF xmlns:cc="http://creativecommons.org/ns#" xmlns:dc="http://purl.org/dc/elements/1.1/" xmlns:rdf="http://www.w3.org/1999/02/22-rdf-syntax-ns#">
   <cc:Work>
    <dc:type rdf:resource="http://purl.org/dc/dcmitype/StillImage"/>
    <dc:date>2024-07-04T12:07:34.624348</dc:date>
    <dc:format>image/svg+xml</dc:format>
    <dc:creator>
     <cc:Agent>
      <dc:title>Matplotlib v3.7.1, https://matplotlib.org/</dc:title>
     </cc:Agent>
    </dc:creator>
   </cc:Work>
  </rdf:RDF>
 </metadata>
 <defs>
  <style type="text/css">*{stroke-linejoin: round; stroke-linecap: butt}</style>
 </defs>
 <g id="figure_1">
  <g id="patch_1">
   <path d="m0 280.51h245.5v-280.51h-245.5v280.51z" fill="none"/>
  </g>
  <g id="axes_1">
   <g id="PatchCollection_1">
    <defs>
     <path id="m2b0c875739" d="m227.79-230.68-0.12006 0.32252-0.18735 0.89072-0.3022 1.7404-1.9213 12.649-1.8438 11.081-1.0544 5.5065-0.57851 2.5479-0.65131 2.4684-0.75113 2.3733-0.88642 2.2566-1.0674 2.1106-0.83748 1.3313-3.3566 4.8912-1.2064 1.8525-1.1584 1.8907-1.0827 1.9315-0.97344 1.9779-0.5961 1.4204-0.6353 1.8933-0.50016 2.1787-0.3228 2.2357-0.1925 2.2782-0.099926 2.3093-0.038069 2.3309 0.010333 7.0435-0.039568 2.6819-0.097416 2.4567-0.18482 2.417-0.31892 2.3532-0.5122 2.2572-0.78014 2.1189-1.0616 1.9026-3.3047 4.7471-0.7215 1.1547-1.9353 3.3287-1.0186 1.6341-1.2849 1.7997-1.3123 1.6206-1.2148 1.3548-0.9472 0.95809-0.44705 0.36829-62.31 98.716-3.4912-1.6109-4.2595-1.8449-4.7806-1.9409-4.8391-1.8738-7.0965-2.6651-22.348-8.2418-24.275-9.0319-13.588-5.0793-9.4776-3.6059-4.8539-1.9136-4.7632-1.9805-2.2342-0.99019-4.1226-1.9779-1.2815-0.56268-0.34873-0.47288-0.2641-1.4047-0.1569-2.0182-0.064134-2.4055 0.071634-5.4026 0.23504-5.6665 0.50783-8.4078 0.423-5.6016 0.51745-5.5858 0.66058-5.3489 0.41685-2.5633 0.50051-2.4692 0.61034-2.3536 0.72393-2.3084 0.62525-2.1925 0.56377-2.2782 0.98957-4.7369 0.44166-2.4303 0.79668-4.9363 0.78956-5.6726 0.33568-2.7305 0.53999-5.4072 0.34271-5.3513 0.11157-4.5776-0.022672-1.8978-0.099488-2.3594-0.38236-4.7309-0.54-4.7567-0.68861-4.9133-0.69096-3.829-0.96136-4.6113-3.3449-14.573-1.0735-4.9214-1.38-6.8595-0.64122-3.6544-0.064421-0.61522 0.41696-0.51406 5.532-8.0807 3.552-4.867 1.8248-2.3309 1.8491-2.2003 1.8799-2.0258 1.9251-1.8023 1.992-1.5198 1.4892-0.89942 1.512-0.79 5.7333-2.8442 2.4744-1.0665 1.9612-0.72285 1.6694-0.5321 1.7068-0.43607 2.2201-0.39663 4.7155-0.7144 4.9876-0.93188 12.69-2.7273 5.0457-1.0382 2.4948-0.45674 2.4659-0.38911 3.1954-0.36378 1.9146-0.090299 1.7104-0.003973 5.7951 0.1505 3.9413 0.047031 7.6521-0.34212 1.0996-0.003153 1.1462 0.055968 1.035 0.11509 1.3481 0.26524 1.3459 0.37294 5.5934 1.9093 1.4563 0.41395 2.0312 0.41896 2.2067 0.19843 2.0031-0.00802 2.0245-0.15185 2.5711-0.36704 3.5512-0.76174 1.8359-0.46426 1.9284-0.55218 2.0917-0.72107 1.9377-0.83623 1.7238-0.97203 1.4348-1.1372 0.6515-0.732 0.40638-0.58013 0.4512-0.7779 0.60244-1.2384 0.86395-1.9831 0.68277-1.3213 0.62463-0.8946 0.46576-0.51199 0.38551-0.30014 0.31779-0.1036 0.19179 0.049563 0.18219 0.17043 0.42825 0.81362 0.45322 1.2674 0.62504 2.1062 0.4951 1.4756 0.50146 1.2039 0.53221 0.97427 0.83834 1.1925 0.86545 0.96212 0.85686 0.72576 0.54882 0.34862 0.50236 0.24365 0.99435 0.32546 2.0653 0.3555 3.6142 0.41941 4.9688 0.49773 2.2749 0.33995 1.4716 0.34007 4.2534 1.1311 3.0913 0.71371 5.7988 1.4486 5.7133 1.2187 1.3838 0.34658 0.86278 0.2808 1.0276 0.40066 4.0622 1.841 6.8108 3.5494 2.0514 0.99132 2.1341 0.95303 2.687 1.0137 2.4723 0.84876 5.4598 1.7271 0.86074 0.22113 0.53238 0.04104" stroke="#bdc660"/>
    </defs>
    <g clip-path="url(#p97dc3e526e)">
     <use y="280.512" fill="#bdc660" stroke="#bdc660" xlink:href="#m2b0c875739"/>
    </g>
   </g>
  </g>
 </g>
 <defs>
  <clipPath id="p97dc3e526e">
   <rect x="7.2" y="7.2" width="231.1" height="266.11"/>
  </clipPath>
 </defs>
</svg>
