<?xml version="1.0" encoding="UTF-8"?>
<!DOCTYPE svg  PUBLIC '-//W3C//DTD SVG 1.1//EN'  'http://www.w3.org/Graphics/SVG/1.1/DTD/svg11.dtd'>
<svg width="233.66pt" height="280.51pt" version="1.1" viewBox="0 0 233.66 280.51" xmlns="http://www.w3.org/2000/svg" xmlns:xlink="http://www.w3.org/1999/xlink">
 <metadata>
  <rdf:RDF xmlns:cc="http://creativecommons.org/ns#" xmlns:dc="http://purl.org/dc/elements/1.1/" xmlns:rdf="http://www.w3.org/1999/02/22-rdf-syntax-ns#">
   <cc:Work>
    <dc:type rdf:resource="http://purl.org/dc/dcmitype/StillImage"/>
    <dc:date>2024-07-04T12:07:15.322465</dc:date>
    <dc:format>image/svg+xml</dc:format>
    <dc:creator>
     <cc:Agent>
      <dc:title>Matplotlib v3.7.1, https://matplotlib.org/</dc:title>
     </cc:Agent>
    </dc:creator>
   </cc:Work>
  </rdf:RDF>
 </metadata>
 <defs>
  <style type="text/css">*{stroke-linejoin: round; stroke-linecap: butt}</style>
 </defs>
 <g id="figure_1">
  <g id="patch_1">
   <path d="m0 280.51h233.66v-280.51h-233.66v280.51z" fill="none"/>
  </g>
  <g id="axes_1">
   <g id="PatchCollection_1">
    <defs>
     <path id="m7f456c1546" d="m191.59-253.96-0.22657 1.0265-0.070638 1.3821 0.037486 1.9049 0.1802 2.1163 0.48507 2.6915 0.34516 1.1604 0.52542 1.2791 1.2079 2.1309 3.8063 5.6167 4.4614 7.5792 6.7876 10.399 1.4276 2.7319 0.73394 1.9733 0.59495 2.8803 0.47243 6.0222 0.34974 3.0757 0.25866 1.3744 0.70507 2.8529 1.6904 6.2484 0.39914 2.2225 0.28549 2.3251 0.20607 2.5867 0.23563 6.5278-0.022914 2.9051-0.42215 5.766-0.43524 3.5266-0.67244 3.3301-0.6261 1.9993-2.2843 5.7157-0.73574 2.2162-0.76089 2.9026-1.3842 6.2673-1.0579 3.2494-1.6291 4.1777-2.4517 7.3114-1.1889 3.028-3.0373 6.0259-1.6958 3.6314-6.6301 15.089-3.3953 7.4694-3.848 9.4225-0.94944 2.6132-0.56464 1.9082-0.29506 1.4739-0.081044 1.5439 0.32975 1.6345 0.75572 1.275 1.4333 1.0426 1.7564 0.55259 0.90616 0.13893 0.73506-0.031544-0.10519 0.53627-0.39372 0.54241-0.74981 0.74571-0.99781 0.80155-1.8816 1.2088-2.6739 1.2509-1.5209 0.51011-1.5837 0.41291-2.9057 0.53213-7.1458 0.7732-2.4836 0.43283-1.0974 0.30164-1.5174 0.57929-1.4759 0.73677-2.5949 1.6351-5.2201 3.8587-3.1096 2.1582-10.328 6.3936-4.7831 3.1081-2.2954 1.6581-1.8501 1.4656-8.1938 7.1786-2.5828 1.9017-3.3119 1.9-2.3403 1.0745-2.4202 0.94031-4.3078 1.3365-3.3993 0.80258-3.5879 0.63646-3.1461 0.41078-6.4551 0.55774-5.0718 0.25883-18.185 0.37746-4.6327 0.18036-5.6649 0.37576-6.2734 0.72391-11.555 1.8803-1.7302 0.19414-7.5617-2.8513-6.11-2.0843-1.6269-0.80368-0.46848-0.37203-0.42954-0.4805-0.67828-1.1473-0.71641-1.8655-3.0167-10.356-0.51384-1.9985-0.25752-1.4373-0.12035-1.3404 0.038217-0.61108-0.009507-0.17967 0.17679-0.21886 0.71491-0.25001 0.51863-0.077087 2.1552-0.053465 2.6466 0.18459 6.2898 0.86835 14.971 2.5649 2.8732 0.36336 2.5207 0.1907 2.4374 0.022782 3.143-0.21618 2.9004-0.44581 2.613-0.60097 2.554-0.77008 2.6887-0.9781 3.1426-1.3174 3.1518-1.4739 4.3049-2.2181 5.0674-2.7912 2.8479-1.6496 2.2701-1.4814 2.1601-1.6046 1.9301-1.6092 1.5056-1.5074 0.85102-1.04 0.95399-1.4634 0.56739-1.1654 0.52977-1.7796 0.17272-1.3898-0.044472-2.132-0.53526-2.9836-1.0826-3.2726-1.023-2.2689-1.0328-1.9044-1.4396-2.2574-2.218-3.0155-5.8285-7.5827-1.842-2.6343-1.8969-3.0384-1.3366-2.5271-1.0974-2.3656-6.2472-15.167-3.6611-8.0551-1.9734-3.9126-1.7185-3.1421-1.6024-2.7191-2.338-3.6099-2.2672-3.0935-1.3753-1.6819-1.6453-1.8224-2.9728-2.7815-1.8817-1.4848-2.4912-1.7163-2.0223-1.2278-2.877-1.5623-3.8233-1.8475-2.5171-1.0829-4.4379-1.6107-2.1012-0.60145-1.9862-0.45096-1.671-0.26894-2.0692-0.085051-0.45572 0.19829-0.2759-0.34469-0.14215-0.71837 0.05406-0.58734 0.16868-0.46259 0.30994-0.44806 0.83811-0.68606 2.1315-1.3647 4.0411-2.3179 0.78991-0.67326 0.77308-0.88818 0.75631-1.1879 0.35514-0.91438 0.14088-0.73009 0.022263-1.2694-0.12824-1.1365-0.77442-4.1423-1.3187-6.2547-1.2094-6.2765-2.2274-10.072-0.8339-5.4182-0.69739-3.9334-1.2063-5.2059-1.466-4.803-0.33018-1.4131-0.21113-1.4345-0.080301-3.5615-0.19104-3.1836-0.98756-9.1165-0.21941-1.1694-0.3892-1.1425-0.45345-0.78401-0.41167-0.26326 6.2029-1.7879 2.678-0.62621 2.7739-0.52931 3.6405-0.43762 3.6212-0.2861 2.0332-0.00274 2.008 0.20119 1.3154 0.27379 2.4472 0.8548 2.1039 1.2241 1.8628 1.4472 2.3653 2.2265 1.1428 1.1925 6.343 7.1343 2.1437 2.1853 3.0167 2.662 2.3472 1.7101 2.6874 1.5058 0.98982 0.42274 1.5361 0.50155 1.4042 0.29438 1.3044 0.14159 1.3594 0.022615 1.7457-0.12304 2.8058-0.43924 2.9139-0.7635 4.0076-1.3726 9.3216-3.4065 2.0932-0.92787 2.089-1.0729 10.267-6.2237 2.0542-1.1135 2.1922-1.0498 4.3916-1.7276 15.697-5.3397 2.8287-0.69142 1.8074-0.29624 4.1783-0.3588 2.3831-0.030806 2.3681 0.12005 2.3853 0.23095 4.0569 0.54562 1.7793 0.10985 1.6275-0.067183 1.2997-0.16422 1.0991-0.24017 1.188-0.3761 1.8448-0.84802 2.0905-1.3356 5.2279-4.3182 2.6588-1.9741 1.8738-1.2662 4.9519-2.9953 1.8809-0.98452 1.2894-0.5679 0.72434-0.13609 1.8025 5.1478 0.44836 0.89204 0.2724 0.25091 0.52718 0.2439 2.9226 0.72049" stroke="#bdc660"/>
    </defs>
    <g clip-path="url(#pddc33a03d5)">
     <use y="280.512" fill="#bdc660" stroke="#bdc660" xlink:href="#m7f456c1546"/>
    </g>
   </g>
  </g>
 </g>
 <defs>
  <clipPath id="pddc33a03d5">
   <rect x="7.2" y="7.2" width="219.26" height="266.11"/>
  </clipPath>
 </defs>
</svg>
