<?xml version="1.0" encoding="UTF-8"?>
<!DOCTYPE svg  PUBLIC '-//W3C//DTD SVG 1.1//EN'  'http://www.w3.org/Graphics/SVG/1.1/DTD/svg11.dtd'>
<svg width="274.72pt" height="280.51pt" version="1.1" viewBox="0 0 274.72 280.51" xmlns="http://www.w3.org/2000/svg" xmlns:xlink="http://www.w3.org/1999/xlink">
 <metadata>
  <rdf:RDF xmlns:cc="http://creativecommons.org/ns#" xmlns:dc="http://purl.org/dc/elements/1.1/" xmlns:rdf="http://www.w3.org/1999/02/22-rdf-syntax-ns#">
   <cc:Work>
    <dc:type rdf:resource="http://purl.org/dc/dcmitype/StillImage"/>
    <dc:date>2024-07-04T12:07:19.083106</dc:date>
    <dc:format>image/svg+xml</dc:format>
    <dc:creator>
     <cc:Agent>
      <dc:title>Matplotlib v3.7.1, https://matplotlib.org/</dc:title>
     </cc:Agent>
    </dc:creator>
   </cc:Work>
  </rdf:RDF>
 </metadata>
 <defs>
  <style type="text/css">*{stroke-linejoin: round; stroke-linecap: butt}</style>
 </defs>
 <g id="figure_1">
  <g id="patch_1">
   <path d="m0 280.51h274.72v-280.51h-274.72v280.51z" fill="none"/>
  </g>
  <g id="axes_1">
   <g id="PatchCollection_1">
    <defs>
     <path id="m1b09deff3f" d="m191.2-250.55 0.29623 0.12066 0.47351 0.33237 0.53844 0.48112 0.51043 0.5869 0.40816 0.66403 0.24211 0.72324 0.041128 0.65672-0.093125 0.68805-0.26326 0.91258-0.86163 1.9394-2.2377 4.039-1.0262 2.0062-0.40928 0.96856-0.31433 0.95889-0.17227 0.84641-0.036361 0.83527 0.16337 0.97055 0.34597 0.95239 0.48115 0.9323 0.58228 0.9076 0.6602 0.87501 1.0555 1.1698 0.57409 0.53178 1.2702 0.92845 0.70878 0.37965 1.2995 0.45681 0.57384 0.10244 0.78524 0.038941 1.0942-0.1212 0.66934-0.15726 3.9057-1.3867 1.2796-0.28279 0.60008-0.028559 0.73854 0.055535 1.0608 0.23627 2.315 0.72091 0.62908 0.12223 1.259 0.097234 1.4265-0.067934 1.5933-0.22018 1.6402-0.32763 1.8764-0.47063 3.6747 10.118 6.2848 16.401 1.9942 5.3996 1.2203 3.5154 2.8221 8.6485 1.7304 5.0417 15 42.679 1.6093 4.8007 1.4841 4.7723 1.5154 5.3419 1.4653 5.4578-6.8624 2.2243-3.3052 1.2873-1.7363 0.78506-2.0711 1.0706-2.2501 1.3747-1.9593 1.4535-1.0201 0.8909-1.266 1.2749-1.1642 1.3737-0.87788 1.1751-1.8568 2.84-1.8969 3.363-1.0589 2.1403-1.3546 3.1715-0.89553 2.4632-3.2196 10.199-2.585 7.7998-2.2516 7.1596-1.4648 4.2548-0.47146 1.9333-0.70471 3.869-0.11886 1.0898-0.032797 1.4474 0.17937 1.3598 0.57967 1.5809 1.6264 3.1585 0.60899 1.7222 0.38851 1.8663 0.12738 1.9485-0.19357 1.9693-0.59669 1.9261-1.1064 1.8856-1.5323 1.7963-1.8625 1.7291-2.11 1.6761-2.2796 1.6282-2.3669 1.5742-6.4498 4.0893-1.2797 0.91322-0.29813 0.43523-0.8017-0.67091-1.5319-0.67726-2.0255-0.69482-2.3303-0.6084-2.05-0.39179-6.2665-0.98284-2.869-0.59905-2.2111-0.61193-1.3704-0.48312-1.0481-0.44266-1.0035-0.49691-1.2782-0.75474-1.3006-0.93589-2.2818-2.175-1.9236-2.4408-1.6253-2.532-1.3682-2.4605-1.8246-3.5717-0.83794-1.2709-0.88769-0.88046-0.56077-0.39707-0.76637-0.39515-1.2236-0.33282-0.54438-0.041951-0.72481 0.03371-1.5837 0.34221-1.2433 0.46517-1.4472 0.78853-1.7711 1.3407-4.3609 3.8017-3.2234 2.6217-1.0836 0.79275-1.5096 0.992-1.5713 0.87661-1.1664 0.53651-1.3445 0.4927-2.5436 0.6762-2.4075 0.34225-2.0571-0.082784-1.352-0.45768-1.0839-0.71236-0.99764-0.96729-1.0682-1.3984-0.95994-1.6215-0.84977-1.7893-0.79964-2.1064-0.64228-2.196-0.54719-2.8115-0.19435-2.7826 0.18344-2.5642 0.19859-1.2511 1.149-5.3399 0.22223-1.7821 0.039174-1.9227-0.36058-6.3372 0.05567-3.2074-0.033574-1.3015-0.24379-1.2983-0.37938-1.0777-0.50898-1.0874-0.62174-1.0992-0.77805-1.0718-1.5315-1.5036-1.8667-1.4108-1.3972-0.90891-1.8807-1.0831-1.9896-0.99538-5.5363-2.3209-2.0869-1.0042-1.3092-0.76353-2.0786-1.4819-0.99443-0.8455-1.2823-1.2501-1.2059-1.3661-1.0833-1.4202-1.2492-1.9659-0.62285-1.2155-0.82072-2.0725-1.2862-3.8779-0.58715-2.1029-1.6445-7.7512-0.33528-1.0675-0.41799-0.98757-0.96056-1.7612-0.97119-1.3913-0.60972-0.72762-1.3177-1.3455-1.4274-1.138-1.5198-0.82688-1.6004-0.39484-1.2864 0.057673-0.93607 0.2162-1.8519 0.734-5.3305 2.8195-1.5871 0.65036-1.2215 0.36599-2.1307 0.32148-1.6677 0.030936-2.4417-0.14772-2.6604-0.31205-1.8659-0.3721-2.6842-0.68296-3.2234-1.052-5.8936-2.059-2.6562-0.7657-8.2749-2.1522-8.437-2.7408-2.1263-0.42565-0.76647-0.020821-0.87595 0.2106-0.25528 0.49842-0.53886 0.023124-0.66429-0.10185-1.2876-0.40509-1.0507-0.76431-0.554-0.93466-0.24173-1.1982 0.059412-1.1318 0.2163-1.0805 0.41393-1.3988 0.69601-1.9157 2.8209-6.9074 2.489-5.4757 4.8604-11.062 1.2432-2.6621 2.2266-4.4175 0.87159-2.2198 1.7973-5.3599 1.1943-3.0625 0.77554-2.3821 1.0148-4.5944 0.55779-2.1278 0.53936-1.6247 1.6746-4.19 0.45898-1.4657 0.49295-2.4413 0.31906-2.5853 0.30947-4.2269 0.016798-2.1297-0.17274-4.7854-0.15106-1.8963-0.20929-1.7045-0.2926-1.6293-1.2392-4.5805-0.51687-2.0914-0.18962-1.0075-0.25639-2.2547-0.34633-4.4147-0.43615-2.1115-0.53804-1.4466-1.0465-2.0027-4.9759-7.6232-3.2706-5.5562-2.7903-4.1175-0.88545-1.5621-0.38518-0.93771-0.25303-0.85065-0.35559-1.9731-0.1321-1.5514-0.027481-1.3965 0.051784-1.0132 0.16609-0.75251 0.89736 0.16621 1.7107 1.1463 1.3293 1.088 5.2982 4.5886 2.4864 1.9219 2.1245 1.4128 2.18 1.1351 2.2259 0.89057 2.5199 0.77976 2.1815 0.49985 3.5577 0.56332 1.9862 0.19862 1.6669 0.085967 2.7852-0.044255 1.8814-0.19114 1.4038-0.22442 2.6038-0.59488 2.8398-0.8688 3.3776-1.2227 7.7096-2.955 2.8656-0.94359 1.8468-0.51583 3.1865-0.69944 3.2779-0.50886 2.9062-0.20364 1.9134 0.062696 2.0077 0.30309 1.6136 0.46838 1.6685 0.73061 1.4906 0.87403 0.97677 0.68054 1.6097 1.2976 3.9869 3.8091 1.0543 0.93022 1.2293 0.94968 1.5667 0.96198 1.2274 0.58855 2.1431 0.74592 1.3087 0.30398 1.1882 0.20117 2.1794 0.23381 3.4692 0.10188 4.6881-0.19731 20.343-1.8229 7.3053-0.86831 3.0009-0.20834 3.245 0.14533 1.8633 0.29581 3.984 0.84824 1.2557 0.201 2.5008 0.25482 1.483 0.071757 2.2867 0.009039 2.0876-0.078173 4.2236-0.34875 1.4602-0.25397 1.3015-0.37702 0.74014-0.30044 1.6639-0.91091 1.7603-1.3152 1.6433-1.6067 0.81699-1.0567 0.23924-0.5586" stroke="#bdc660"/>
    </defs>
    <g clip-path="url(#p07aa94b8ba)">
     <use y="280.512" fill="#bdc660" stroke="#bdc660" xlink:href="#m1b09deff3f"/>
    </g>
   </g>
  </g>
 </g>
 <defs>
  <clipPath id="p07aa94b8ba">
   <rect x="7.2" y="7.2" width="260.32" height="266.11"/>
  </clipPath>
 </defs>
</svg>
