<?xml version="1.0" encoding="UTF-8"?>
<!DOCTYPE svg  PUBLIC '-//W3C//DTD SVG 1.1//EN'  'http://www.w3.org/Graphics/SVG/1.1/DTD/svg11.dtd'>
<svg width="371.52pt" height="252.92pt" version="1.1" viewBox="0 0 371.52 252.92" xmlns="http://www.w3.org/2000/svg" xmlns:xlink="http://www.w3.org/1999/xlink">
 <metadata>
  <rdf:RDF xmlns:cc="http://creativecommons.org/ns#" xmlns:dc="http://purl.org/dc/elements/1.1/" xmlns:rdf="http://www.w3.org/1999/02/22-rdf-syntax-ns#">
   <cc:Work>
    <dc:type rdf:resource="http://purl.org/dc/dcmitype/StillImage"/>
    <dc:date>2024-07-04T12:07:24.507848</dc:date>
    <dc:format>image/svg+xml</dc:format>
    <dc:creator>
     <cc:Agent>
      <dc:title>Matplotlib v3.7.1, https://matplotlib.org/</dc:title>
     </cc:Agent>
    </dc:creator>
   </cc:Work>
  </rdf:RDF>
 </metadata>
 <defs>
  <style type="text/css">*{stroke-linejoin: round; stroke-linecap: butt}</style>
 </defs>
 <g id="figure_1">
  <g id="patch_1">
   <path d="m0 252.92h371.52v-252.92h-371.52v252.92z" fill="none"/>
  </g>
  <g id="axes_1">
   <g id="PatchCollection_1">
    <defs>
     <path id="m6a1799d7be" d="m176.76-211.6 0.19008 0.76312-0.29789 0.97848-1.2339 2.9406-2.1552 4.8136-0.6459 1.8841-0.12873 0.79489-4.65e-4 0.4762 0.090301 0.5372 0.15727 0.4368 0.48774 0.74963 0.8476 0.76819 1.3242 0.78255 1.7926 0.76123 1.4129 0.47394 2.7868 0.71942 1.6864 0.32481 2.9138 0.39869 3.1378 0.249 3.6676 0.20857 3.6609 0.34736 1.425 0.23694 1.886 0.45857 1.7092 0.60183 0.76086 0.34047 1.6681 0.93018 1.5859 1.1058 1.6742 1.3671 1.6236 1.4741 3.9484 3.8233 2.024 1.8645 2.3847 1.932 2.3534 1.6121 2.6604 1.5547 1.7142 0.84508 1.765 0.76404 3.9623 1.4291 1.8046 0.55242 1.3307 0.30418 1.1123 0.14228 0.7558 0.021896 1.1946-0.074206 1.3638-0.19927 2.5254-0.5074 1.3687-0.37742 0.86366-0.31464 1.4222-0.64811 0.80742-0.45422 1.2995-0.86923 1.2649-1.0169 0.99472-0.92768 1.7236-1.9062 3.5405-4.4379 1.3706-1.4501 1.4329-1.2036 0.65899-0.43994 0.99328-0.55202 1.0431-0.46649 1.0865-0.38787 0.89292-0.2562 1.9527-0.41051 1.8607-0.26446 2.1152-0.15372 1.4173-0.007847 1.4627 0.066059 2.2455 0.23215 5.9245 0.87087 3.7373 0.38284 2.8116 0.19534 2.7419 0.10834 5.6509-0.03622 1.8918 0.13229 2.5758 0.31767 2.3686 0.42191 2.7399 0.62187 6.9853 1.979 4.3358 1.3927 1.3818 0.56085 1.3428 0.65785 2.3113 1.3996 1.687 1.2691 1.4516 1.3669 1.1795 1.373 1.1863 1.6473 3.4808 5.4884 2.0942 3.044 2.4933 3.3238 3.9889 4.9538 1.4733 1.9308 1.1672 1.7103 1.5192 2.7124 1.196 2.8282 0.6457 2.0188 1.0873 4.0011 0.40867 1.6703 2.184 10.353 0.88698 3.6835 0.46482 1.4512 0.52356 1.3542 0.34685 0.68037 0.32266 0.30479-0.27311 0.1403-0.47074 0.55528-1.3056 1.9552-1.0411 1.7496-3.0292 5.4801-2.5797 4.1018-3.4778 5.8979-0.91786 1.1915-1.1634 1.0885-1.3454 0.87077-0.76147 0.36046-1.5806 0.54295-1.2904 0.30618-1.0673 0.18443-2.6432 0.24697-3.019 0.049353-2.5787-0.075637-2.1096-0.1538-2.6416-0.29641-6.0444-0.89714-1.814-0.16357-4.5564-0.25046-2.7822-0.065306-1.9053 0.044191-3.755 0.12667-2.6361 0.20549-1.997 0.32851-0.80412 0.21784-0.80338 0.28455-2.9676 1.2369-3.1033 0.95907-1.8946 0.78885-1.549 1.1554-1.15 1.5592-0.90666 1.9641-0.7184 2.2762-0.21803 0.86733-0.67263 3.3677-0.33789 2.1461-1.4854 11.926-0.7796 5.0152-0.63992 3.0603-0.82738 2.9606-1.0841 2.8109-1.1489 2.2289-1.2952 2.1322-2.7455 4.3074-1.2309 2.2516-0.94295 2.3018-0.43805 1.6543-0.25622 1.6411-0.085351 1.2511 0.053557 1.811 0.12634 0.98077 0.2826 1.2049 0.19653 0.52581 0.27198 0.50897 0.36344 0.41341 0.42695 0.15233-0.19246 0.2265-0.29232 0.59795-0.68081 1.6528-0.6574 1.8711-0.3326 0.66027-0.4348 0.49493-0.41459 0.23526-0.4638 0.12023-0.48921 0.02828-0.60507-0.080358-0.42442-0.15193-0.96207-0.54796-1.6463-1.1011-1.1806-0.59815-0.66092-0.23006-0.89393-0.20986-1.482-0.16946-1.4564 0.033148-0.87064 0.11239-2.7714 0.50669-3.0543 0.81332-1.164 0.15844-1.5234 0.039961-3.0091-0.1783-1.5412-0.009779-1.9103 0.18172-1.0294 0.2355-1.0597 0.4781-0.71821 0.51585-0.67517 0.63191-0.64495 0.72089-0.55161 0.69313-0.98443 1.4057-2.0796 3.5408-0.18599 0.41676-0.3774 0.35018-0.77581 0.39592-1.0516 0.25849-0.7928 0.059361-1.0144-0.06182-0.89826-0.1736-0.97566-0.30576-1.5506-0.70608-1.6389-1.0186-0.68494-0.55305-0.53938-0.54421-0.54786-0.75401-0.26862-0.52501-0.25894-0.72722-0.53993-2.7754-0.37863-1.4609-1.6258-5.9236-0.29955-0.96938-0.36682-0.94132-0.69699-1.2611-1.0292-1.3584-1.4926-1.6898-0.80292-0.67958-0.39212-0.20883-0.60067-0.13575-0.36294 0.036866-0.29135 0.10101-0.43515 0.28527-1.1982 1.1711-0.47804 0.29876-0.42698 0.17234-0.80525 0.15496-1.3172-0.023189-0.91304-0.13974-0.54375-0.14932-0.6778-0.28086-1.4882-0.8874-2.105-1.4285-1.2362-0.61023-0.73651-0.24409-0.5463-0.096709-0.49712-0.021222-0.86306 0.14875-0.51624 0.26457-0.64668 0.62119-0.39615 0.56561-0.41084 0.81942-0.1742 0.66933-0.037736 0.37413 0.16442 1.9525-0.04593 0.79198-0.18246 0.57642-0.5024 0.79963-0.37569 0.41451-0.46061 0.39276-0.4564 0.28959-0.57327 0.25174-0.6652 0.1642-0.45774 0.043724-0.8914-0.054686-0.67447-0.1456-1.0413-0.37148-1.347-0.69291-4.0804-2.4411-1.201-0.78744-0.99021-0.78634-0.75698-0.73284-0.6018-0.69186-0.56406-0.77504-0.65093-1.088-0.43249-0.90405-0.32227-0.9694-0.1291-0.67744-0.061455-0.86749 0.072173-1.141 0.66345-3.293 0.097881-0.89302-0.11698-1.2552-0.17865-0.57454-0.29002-0.62485-0.53713-0.7975-0.90789-0.90609-0.98127-0.68033-1.2978-0.66074-1.1356-0.45005-1.7035-0.55803-4.2758-1.2234-11.604-3.4981-3.4514-0.93518-3.183-0.74769-3.7585-0.65273-1.0405-0.11662-1.9156-0.11354-1.1762 0.008245-1.7708 0.15584-0.87098 0.18584-0.29174 0.13563 0.2037-0.76483 0.050596-1.3899-0.12926-1.3936-0.28176-1.4002-0.43729-1.3888-0.65706-1.5654-0.53527-1.0612-0.72401-1.2604-1.0525-1.6361-1.0539-1.4756-1.0211-1.3023-2.1376-2.4958-5.2507-5.9121-3.1461-3.7044-1.8709-2.3507-2.2745-3.1259-2.5867-3.9999-0.77743-1.3487-0.68981-1.3559-0.90386-1.9655-0.72201-1.7487-2.3052-6.774-1.6806-5.4903-0.6866-1.88-0.48018-1.1145-1.015-1.9559-1.4385-2.296-1.2541-1.5868-1.0216-1.0573-1.0857-0.96911-1.4512-1.1358-1.5316-1.0759-6.7745-4.2982-6.5227-4.6355-2.5064-1.4798-1.3004-0.65403-1.5674-0.68545-1.7204-0.64438-1.95-0.63711-1.7686-0.49147-2.1445-0.45375-1.5941-0.23023-1.88-0.15901-5.96-0.24414-1.7925-0.13436-2.3382-0.34074-2.2484-0.54261-2.8599-0.93566-6.4656-2.4881-7.0861-2.2073-2.6293-0.98024-1.3953-0.68504-0.91931-0.63241-0.76314-0.76212-0.52866-0.82574-0.33426-0.84268-0.44911-2.0202-0.29318-0.87068-0.40026-0.74284-0.50045-0.7155-1.6572-2.0967-0.38462-0.77421-0.1212-0.70158 0.08839-0.79262 0.1571-0.5121 0.24278-0.52894 2.5011-3.8814 0.46696-0.6053 1.0227-1.1331 2.1419-2.2342 2.4127-2.9014 0.94047-1.041 2.065-1.9614 1.9629-1.5898 0.90794-0.63745 1.2276-0.75508 1.9822-1.0044 1.3112-0.57032 5.7224-2.241 1.7158-0.77393 1.1207-0.71441 0.2788-0.57664-0.19409-0.17606-0.25236-0.2129-0.2937-0.80536-0.29794-1.3383-0.20718-1.5354-0.084174-1.1043-0.042036-1.2994 0.093791-3.1005 0.25999-2.7673 0.34127-2.4531 0.56055-3.135 0.94637-4.1505 0.5811-1.9975 0.53877-1.5148 0.82621-1.8774 0.96627-1.7896 1.5212-2.2966 1.3236-1.6567 1.4392-1.5407 2.0132-1.8063 1.7738-1.3431 1.8517-1.2175 2.2322-1.2688 2.2875-1.114 2.9165-1.1794 2.9287-0.92246 3.0202-0.65669 2.9412-0.31309 1.6614-0.001513 1.6043 0.15519 1.1472 0.22433 1.2272 0.33389 1.4835 0.49915 3.5235 1.3311 1.4394 0.48372 1.3605 0.3736 1.6707 0.31684 3.4215 0.35071 1.9426 0.30528 1.9612 0.42718 8.9689 2.5447 8.6514 2.3608 4.0812 1.2371 2.5859 0.6337 10.733 2.4101 4.2736 1.0107 2.1756 0.39922 1.7494 0.17198 2.4588-0.036535 4.9842-0.44967 1.4573-0.048961 1.9403 0.094666 1.266 0.14168 1.218 0.22421 1.9201 0.60719 4.349 1.878 4.0622 1.4952 1.4833 0.64552 1.3436 0.71069 1.5 0.95276 1.0857 0.92575 0.21196 0.26516 0.12076 0.30782" stroke="#bdc660"/>
    </defs>
    <g clip-path="url(#p21ab6c574a)">
     <use y="252.921817" fill="#bdc660" stroke="#bdc660" xlink:href="#m6a1799d7be"/>
    </g>
   </g>
  </g>
 </g>
 <defs>
  <clipPath id="p21ab6c574a">
   <rect x="7.2" y="7.2" width="357.12" height="238.52"/>
  </clipPath>
 </defs>
</svg>
