<?xml version="1.0" encoding="UTF-8"?>
<!DOCTYPE svg  PUBLIC '-//W3C//DTD SVG 1.1//EN'  'http://www.w3.org/Graphics/SVG/1.1/DTD/svg11.dtd'>
<svg width="274.3pt" height="280.51pt" version="1.1" viewBox="0 0 274.3 280.51" xmlns="http://www.w3.org/2000/svg" xmlns:xlink="http://www.w3.org/1999/xlink">
 <metadata>
  <rdf:RDF xmlns:cc="http://creativecommons.org/ns#" xmlns:dc="http://purl.org/dc/elements/1.1/" xmlns:rdf="http://www.w3.org/1999/02/22-rdf-syntax-ns#">
   <cc:Work>
    <dc:type rdf:resource="http://purl.org/dc/dcmitype/StillImage"/>
    <dc:date>2024-07-04T12:07:54.315007</dc:date>
    <dc:format>image/svg+xml</dc:format>
    <dc:creator>
     <cc:Agent>
      <dc:title>Matplotlib v3.7.1, https://matplotlib.org/</dc:title>
     </cc:Agent>
    </dc:creator>
   </cc:Work>
  </rdf:RDF>
 </metadata>
 <defs>
  <style type="text/css">*{stroke-linejoin: round; stroke-linecap: butt}</style>
 </defs>
 <g id="figure_1">
  <g id="patch_1">
   <path d="m0 280.51h274.3v-280.51h-274.3v280.51z" fill="none"/>
  </g>
  <g id="axes_1">
   <g id="PatchCollection_1">
    <defs>
     <path id="mf5a9a3152f" d="m232.67-221.74-0.01777 0.097023-0.5084 0.031933-0.98145 0.44066-0.69156 0.42276-1.6645 1.3203-1.565 1.735-0.44103 0.62923-0.68632 1.1551-0.3165 0.61341-0.76192 1.7506-0.5494 1.7952-0.19139 0.88441-0.20909 1.3576-0.19314 2.1889-0.10301 2.9308 0.054073 1.6598 0.238 1.9598 2.1796 12.175 0.63594 4.4323 0.25462 2.6275 0.052746 2.5693-0.23092 2.7445-0.29002 2.2101-0.58234 3.1456-0.36358 1.4497-0.53057 1.697-0.61279 1.5806-0.59526 1.2929-0.67376 1.2706-0.98752 1.6492-2.6804 4.2029-1.0615 1.8501-0.51919 1.035-0.93392 2.3208-0.68052 2.3961-0.43368 2.4323-0.098152 0.92025-0.085008 1.7889 0.093107 2.2828 0.1222 1.1751 0.17234 1.1773 0.3291 1.6463 0.62086 2.14 0.53109 1.3318 0.62112 1.2586 1.6333 2.6571 3.3069 5.0239 0.9888 1.3863 1.2153 1.3402 1.0187 0.83319 0.50272 0.29026 0.66704 0.27476 0.93165 0.23642 0.96884 0.079273 0.80985-0.065759 1.2971-0.31614 0.86426-0.37905 0.84262-0.49378 4.7414-3.4744 1.2717-0.85418 1.2719-0.75299 1.6682-0.74165 1.5937-0.27808 1.3134 0.26222 1.3918 0.84122 1.284 1.1463 1.2973 1.4115 1.3103 1.6311 2.0743 2.8877 1.9696 2.9537 0.5396 0.66009 0.1829 0.059794-0.31066 0.50029-0.61513 0.79948-2.0671 2.3125-0.78933 0.9694-2.804 3.9145-0.69416 0.87983-0.79732 0.802-1.3536 1.0035-0.53688 0.43337-0.313 0.31769-0.51861 0.73576-0.8772 1.611-0.44106 0.55396-0.27494 0.25394-0.4385 0.29802-1.396 0.62838-0.50272 0.29773-0.4072 0.35343-0.22103 0.27979-0.56727 1.0458-0.77289 1.1837-0.55854 1.3149-0.25614 0.48917-0.39617 0.58029-0.33757 0.38797-3.6746 3.0797-3.14 2.8487-0.92541 0.94593-0.60207 0.88022-0.29719 0.73533-0.13869 0.812-0.011917 0.86146 0.15184 3.2168-0.090504 1.3349-0.20644 1.0728-0.35289 1.2519-0.23758 0.66295-0.53588 1.2685-1.4595 2.7459-0.64273 1.4765-0.35282 1.2011-0.31648 1.6502-0.10592 0.90179-0.09262 1.5832-0.048459 3.3244-0.12217 0.87373-0.095076-0.13676-0.70824-0.31218-0.71045-0.20977-1.2563-0.27964-7.8175-1.2027-5.2801-0.66474-2.9552-0.24869-2.3626-0.061542-1.7136 0.051962-2.5621 0.27682-1.8401 0.35524-1.6147 0.42987-1.3375 0.44665-1.7356 0.71004-2.2561 1.1238-5.454 3.1104-2.1339 1.1287-1.0803 0.51648-1.6747 0.68733-0.76106 0.25063-1.351 0.32189-1.3186 0.13274-0.6902-0.011227-0.75638-0.070257-1.0488-0.1889-1.1768-0.35718-2.2709-0.9774-4.3826-2.1113-1.5914-0.70704-1.6187-0.62325-1.6527-0.47433-1.2684-0.22866-2.5754-0.23081-1.9199-0.01737-4.3273 0.08927-1.9493-0.038362-2.018-0.19681-1.5155-0.3422-1.445-0.58051-1.0444-0.59736-0.60627-0.41403-0.91999-0.7196-0.77425-0.6807-3.0475-2.9141-1.3887-1.1304-1.4566-0.87638-1.5428-0.48741-1.723 0.023099-1.7984 0.50162-1.1045 0.49387-0.8422 0.45877-1.8664 1.2437-1.5164 1.2068-1.684 1.5037-1.4294 1.4198-0.84181 0.91301-1.356 1.6167-1.4257 1.922-1.0951 1.6562-0.83435 1.3786-0.94744 1.7046-0.57705 1.1575-0.4911 1.1181-0.56532 1.6262-0.38715 1.6673-0.22387 2.4387 0.10452 2.4423 0.73908 5.1488 0.09407 1.053 0.03668 1.3987-0.048384 1.0554-0.1861 1.3893-0.22902 0.93998-0.38596 1.0713-0.72506 1.4738-0.58669 0.94925-1.4743 1.882-1.7565 1.8042-1.9267 1.7232-6.0842 4.9301-0.5135 0.52681-0.78911-0.27477-1.0182-0.81334-1.0417-1.2034-0.87172-1.4975-0.47989-1.3463-0.12627-0.49164-0.85363-4.4926-0.49748-2.2786-1.251-4.8765-1.2922-4.3118-1.4526-4.2803-0.78336-2.1223-1.7075-4.2782-0.72269-1.6813-1.4748-3.1378-0.84865-1.6274-1.7728-3.1104-2.3571-3.706-1.3065-1.8748-1.8322-2.4256-1.1046-1.352-2.0786-2.3152-0.96705-0.96151-1.2686-1.1239-2.7923-2.1634-0.761-0.7125-0.71525-0.77233-3.4399-4.2499-1.3324-1.5538-1.4324-1.5729-2.8478-2.8907-8.1746-7.8942-3.3309-3.3349-3.5028-3.8329-3.8406-4.4979-1.6986-2.107-1.6189-2.1618-1.4265-2.113-2.1511-3.5993-3.817-6.7512-0.96727-1.5701-1.3711-2.0471-1.4292-1.8828-0.72814-0.85476-2.9857-3.2023-1.0529-1.248-0.6879-1.185-0.16477-1.1782 0.47744-1.2327 1.0104-1.2504 1.3655-1.2333 4.0145-2.994 0.30897-0.35642 0.57043-0.28745 1.4217-0.58703 6.8875-2.6591 3.0419-1.083 5.5101-1.8498 2.0489-0.7481 1.9258-0.78276 4.6124-2.0549 2.6964-1.0323 1.333-0.43305 2.3927-0.64247 4.9117-1.1321 2.9691-0.80186 4.4493-1.4222 3.4991-1.277 2.4561-0.97792 1.8173-0.78478 5.1182-2.4085 1.4279-0.60338 1.7467-0.64755 5.1342-1.7156 3.9551-1.4168 2.509-0.98336 3.52-1.5112 6.6395-3.1519 3.3267-1.7261 5.3404-2.8809 2.1323-1.0814 2.3438-1.0646 1.6115-0.61929 1.2284-0.39363 2.4094-0.57864 4.8398-0.86313 2.3593-0.54346 1.1139-0.34342 1.0442-0.3846 1.534-0.70295 1.3302-0.78209 1.5541-1.1563 1.0025-0.8962 0.66996-0.66323 1.7452-1.9202 2.2917-2.8259 1.2401-1.7803 0.69466-1.2162 0.68368-1.6017 0.4686-1.6581 0.2549-1.6822 0.050694-0.94795-0.10688-5.2159 0.11735-1.4579 0.29465-1.7021 0.59014-2.1728 0.44108-1.2739 0.41907-1.0361 0.89461-1.7914 1.6715-2.8514 0.35554-0.68824 0.51572-1.2042 0.30168-0.93145 0.31259-1.3919 0.084538-0.59373 0.090114-1.6824-0.091651-1.7448-0.24042-1.7938-0.58527-2.6922-0.89422-2.7034-1.1872-2.5521-1.4513-2.483-3.8354-5.7425-1.377-2.424-0.87021-1.8878-0.43598-1.183-0.3581-1.2631-0.24404-1.6221 0.15666-1.0721 0.49126-0.275 0.49361-0.21886 1.253-0.42806 1.7417-0.52648 2.0414-0.54083 2.2095-0.49114 2.2862-0.38919 2.2989-0.2404 0.9539-0.046089 4.9245 0.057038 2.391-0.040856 4.6169-0.27212 1.5727-0.017874 1.8941 0.12257 5.3629 0.65127 3.8076 0.61737 6.4487 1.2476 1.7183 0.4723 3.7757 1.264 3.6146 1.5711 2.182 0.77031 1.016 0.46183 0.83822 0.65042 0.73587 0.92937 2.1831 3.7679 0.96224 1.3191 1.2379 1.2792 1.4552 1.1893 1.6264 1.1087 1.76 1.0335 1.8625 0.95982 2.5049 1.1229 5.4902 2.1829 1.5844 0.75121 1.1705 0.66179 0.86866 0.56842 0.75748 0.56188 0.93122 0.79521 1.2575 1.321 1.0711 1.4779 1.0676 2.096 0.76255 2.2222 0.50421 2.2056 0.28258 1.9984 0.09249 1.523-0.05785 0.56934" stroke="#bdc660"/>
    </defs>
    <g clip-path="url(#p8815f492d5)">
     <use y="280.512" fill="#bdc660" stroke="#bdc660" xlink:href="#mf5a9a3152f"/>
    </g>
   </g>
  </g>
 </g>
 <defs>
  <clipPath id="p8815f492d5">
   <rect x="7.2" y="7.2" width="259.9" height="266.11"/>
  </clipPath>
 </defs>
</svg>
