<?xml version="1.0" encoding="UTF-8"?>
<!DOCTYPE svg  PUBLIC '-//W3C//DTD SVG 1.1//EN'  'http://www.w3.org/Graphics/SVG/1.1/DTD/svg11.dtd'>
<svg width="238.12pt" height="280.51pt" version="1.1" viewBox="0 0 238.12 280.51" xmlns="http://www.w3.org/2000/svg" xmlns:xlink="http://www.w3.org/1999/xlink">
 <metadata>
  <rdf:RDF xmlns:cc="http://creativecommons.org/ns#" xmlns:dc="http://purl.org/dc/elements/1.1/" xmlns:rdf="http://www.w3.org/1999/02/22-rdf-syntax-ns#">
   <cc:Work>
    <dc:type rdf:resource="http://purl.org/dc/dcmitype/StillImage"/>
    <dc:date>2024-07-04T12:08:05.897366</dc:date>
    <dc:format>image/svg+xml</dc:format>
    <dc:creator>
     <cc:Agent>
      <dc:title>Matplotlib v3.7.1, https://matplotlib.org/</dc:title>
     </cc:Agent>
    </dc:creator>
   </cc:Work>
  </rdf:RDF>
 </metadata>
 <defs>
  <style type="text/css">*{stroke-linejoin: round; stroke-linecap: butt}</style>
 </defs>
 <g id="figure_1">
  <g id="patch_1">
   <path d="m0 280.51h238.12v-280.51h-238.12v280.51z" fill="none"/>
  </g>
  <g id="axes_1">
   <g id="PatchCollection_1">
    <defs>
     <path id="m225269f1c0" d="m199.48-214.69-0.14761 1.0591-0.20337 1.0434-0.34643 1.2377-0.35778 0.93819-0.44631 0.97647-0.87789 1.6553-2.1584 3.7166-0.97281 1.8827-0.43636 1.0239-0.24776 0.70432-0.20187 0.71495-0.23606 1.2083-0.078162 1.1964 0.19611 1.6916 0.46218 1.6457 0.60615 1.586 0.95149 2.2686 0.33778 0.96655 0.24204 0.96717 0.14468 1.1622 0.019377 1.1655-0.15637 1.137-0.23811 0.75102-0.49918 1.0562-0.62041 0.9825-0.46748 0.60637-0.91954 0.96641-0.93243 0.77098-2.0262 1.5486-0.72744 0.70938-0.53792 0.67307-0.38586 0.69757-0.24123 0.7564-0.073781 0.58546-0.001026 0.47508 0.15842 1.0328 0.33661 1.0759 0.21623 0.53762 0.64626 1.2883 0.79715 1.3206 3.4076 5.1518 0.56865 0.93631 0.99779 1.7981 0.60904 1.2717 0.49824 1.2509 0.90814 3.028 0.73324 2.1368 0.67519 1.4472 1.1966 2.4041 0.56482 1.3028 0.33247 0.9377 0.31797 1.2648 0.15588 1.2746 0.11719 2.6538-0.014563 1.3717-0.098614 1.0677-0.16506 1.0355-0.40732 2.0125-0.1762 1.372 0.015116 1.4967 0.11602 1.0666 0.33723 1.4614 0.60726 1.677 0.51776 1.1435 1.5774 3.208 0.60054 1.4338 0.20415 0.64626 0.27254 1.1666 0.20344 1.3822 0.32403 4.1117 0.15381 1.4571 0.22167 1.2751 0.29644 1.1594 0.34757 0.97993 0.65711 1.317 0.80776 1.2784 1.8103 2.6037 0.94097 1.4864 1.376 2.3552 1.0762 1.7194 1.1613 1.7294 2.422 3.3793 1.6308 2.1715 0.98546 1.2309 1.8079 2.0755-0.37461 0.17647-1.6751 1.163-9.7067 7.114-2.1803 1.5066-1.8197 1.1601-1.9492 1.114-2.141 1.0618-1.7083 0.73164-1.9521 0.7244-2.1954 0.68993-1.7372 0.46485-1.6015 0.37564-2.906 0.57002-3.0807 0.44096-2.058 0.16222-1.3961 0.057666-2.8397 0.012266-4.0737-0.15607-6.7546-0.3816-3.172-0.028567-1.5573 0.067722-1.9431 0.19087-1.1671 0.18021-1.3585 0.27331-1.1802 0.29024-1.2927 0.36939-1.9825 0.66015-1.4154 0.5345-1.7125 0.71299-1.7465 0.80306-2.7885 1.4497-1.3299 0.77433-1.5426 0.99502-2.2927 1.6995-2.5464 2.0128-2.0945 1.5365-1.8323 1.1567-1.4987 0.76272-0.89005 0.35315-1.2596 0.34266-1.0707 0.13223-3.1479 0.053151-1.1732 0.091381-2.1611 0.31175-1.1618 0.22161-2.5643 0.58183-2.915 0.77066-3.9918 1.1775-1.6055 0.51422-0.76684 0.29479-0.50108-0.023193-0.24286 0.19987-0.13687 0.20956-0.20048 0.60608-0.083898 0.86133 0.028489 0.80847 0.092287 0.773 0.1648 0.87917 0.25328 1.0025 0.25406 0.82092 0.59496 1.5699 0.34626 0.7767 0.72168 1.4234 1.2132 2.0425 3.9457 5.7697 1.2271 2.0269 0.59466 1.1004 0.71826 1.4945 0.64422 1.6658 0.37227 1.4624 0.093562 0.87889-0.045102 0.80705-0.15186 0.6049-0.38667 0.78083-0.85186 0.89555-0.56109 0.32231-0.59616 0.17866-0.58053 0.018426-0.57499-0.14972-0.31049-0.16211-0.42396-0.31468-0.78187-0.83407-0.72843-1.0296-0.48419-0.79706-1.1383-2.151-0.59524-1.2531-2.2535-5.0882-1.0187-2.1993-1.2042-2.4527-0.85664-1.5067-0.51774-0.7915-0.82124-1.1009-0.9113-1.0441-1.152-1.1068-1.0292-0.81976-0.91342-0.61208-1.0547-0.5879-0.76885-0.35497-0.98144-0.3706-1.2246-0.33909-0.93228-0.17272-1.0938-0.11415-0.66224-0.024146-1.2792 0.041149-3.1796 0.3397-2.1902 0.16334-2.0434 0.001868-3.8187-0.12884-2.0364 0.052755-1.7983 0.20311-1.5785 0.3189-1.9865 0.57441-1.9694 0.73331-1.8624 0.84774-1.21 0.62865-2.9301 1.7112-1.5178 0.9837-1.9622 1.3774-2.6394 2.0356-2.4689 2.0427-2.9932 2.6456-2.7439 2.5488-1.3431 1.3178-2.8986 2.9333-4.0121 4.1494-1.0258 0.98093-0.85649 0.74385-0.73458 0.56388-0.6332 0.41734-1.1266 0.57067-0.76675 0.27666-2.1909 0.54331-1.0377 0.32162-0.4291 0.090246-0.47655-0.018939-0.43399-0.1882-0.3753-0.44371-0.22891-0.75467-0.061378-0.95789 0.064246-1.0825 0.24893-1.9464 0.07312-1.0288-0.022938-0.67532-0.24434-1.2311-0.45936-1.1837-0.92198-1.7092-0.72565-1.4626-0.6812-1.6244-0.5891-1.7271-0.44188-1.7776-0.22811-1.7798 0.067824-1.7343 0.10778-0.5799 0.23174-0.84868 0.49388-1.3153 1.3107-3.0756 0.35418-1.1143 0.28381-1.147 0.15607-1.1452-0.011868-0.9828-0.14809-0.963-0.17552-0.6472-0.47734-1.2364-0.64894-1.1747-0.82561-1.0573-0.8072-0.7514-1.8731-1.4388-1.475-1.2547-1.4381-1.4567-1.3122-1.6426-1.0883-1.819-0.54512-1.2558-0.45346-1.303-0.68189-2.2549-0.58932-1.7826-0.76951-1.7325-0.67035-1.0889-0.73234-0.94843-0.98256-1.0136-0.65122-0.49981-0.25006-0.11876-0.19318-0.005176 0.21116-0.20389 4.515-3.0748 1.4906-1.0941 1.9423-1.5351 1.2251-1.0521 1.3227-1.2348 1.9587-2.133 1.0883-1.4752 0.61119-0.98453 0.52684-0.99925 0.46825-1.0992 0.41578-1.3049 0.30026-1.2374 0.32672-1.9198 0.17579-1.8905 0.041267-1.9845-0.032438-1.1914-0.6681-10.591-0.12011-1.2493-0.30479-2.3396-0.40375-2.0514-0.38253-1.4398-0.45105-1.4186-0.47141-1.3047-0.60873-1.5217-0.60851-1.3897-1.2851-2.6496-3.9656-7.8535-0.86943-1.3568-0.7173-0.9004-0.85212-0.90214-1.9052-1.8695-0.61682-0.85195-0.23565-0.7052 0.032416-0.69273 0.49706-0.86791 0.89658-0.73769 2.9407-1.5523 0.67954-0.38408 1.0775-0.68726 1.053-0.80431 0.54386-0.48714 1.114-1.178 0.45731-0.55451 0.95442-1.2894 1.0359-1.6351 0.75057-1.3992 0.77042-1.7825 0.52906-1.7325 0.22985-1.2113 0.13048-1.5801-0.055075-1.3469-0.14343-0.88116-0.23799-0.80482-0.34794-0.74494-1.6724-2.5771-0.55568-0.99827-1.1294-2.1835-0.74513-1.5965-0.6658-1.6644-0.51818-1.7037-0.28943-1.7155 0.037227-1.6993 0.34363-1.4044 0.57682-1.3934 0.73428-1.4035 1.9654-3.4768 0.7359-1.5102 0.64047-1.6928 0.35864-1.3934 0.2341-1.4064 0.16087-1.93 0.02473-1.7666-0.10564-2.4303 0.42997 0.30879 0.76302 0.29193 1.3786 0.27154 1.4798 0.057023 0.94917-0.10462 0.83453-0.24137 0.77594-0.39827 0.70975-0.58211 0.28732-0.31802 0.71944-1.1425 0.5487-1.3236 0.42982-1.3572 0.64796-2.6799 0.26455-0.83809 0.31045-0.81387 0.41224-0.88916 0.19286-0.34363 0.8468-1.1696 1.0456-1.0901 1.1778-1.011 1.2534-0.92859 2.5349-1.7173 5.004-3.4928 1.5395-1.0268 1.5618-0.97052 3.8311-2.1999 3.6641-2.2771 5.2866-2.918 0.73173-0.49052 0.96713-0.8277 0.45057-0.50153 0.62461-0.92237 0.35297-0.64474 0.28413-0.62085 0.63586-1.9187 0.27407-0.70051 0.37116-0.64975 0.80241-0.81606 0.86696-0.52879 1.0191-0.46262 0.82738-0.29288 1.4488-0.35011 1.3475-0.16517 1.6436-0.13762 1.4861-0.19749 1.5608-0.37238 1.0451-0.32774 1.7619-0.64623 5.1212-2.0473 3.8011-1.2555 1.6445-0.48873 6.0627-1.6758 6.7418-1.5101 1.0555-0.28679 1.1803-0.43011 1.2895-0.66133 0.801-0.49581 4.8354-3.4136 1.3495-0.85443 1.3586-0.72124 1.3675-0.52975 1.408-0.31114 3.3066-0.44041 1.538-0.42559 0.88903-0.41356 0.4707-0.27429 0.63905-0.43145 0.75538-0.5938 1.0276-0.94289 1.5712-1.6973 2.3523-2.8605 0.50526-0.46224 0.18667-0.09482 0.18406-0.033449 0.109 0.021335 0.15404 0.12262 0.097911 0.18231 0.086198 0.30866 0.066862 0.68124-0.034653 0.92294-0.10383 0.83805-0.21209 1.1834-1.1053 4.8536-0.2859 1.5406-0.12161 1.0011-0.057336 1.04 0.016299 0.85734 0.089854 0.90201 0.19926 1.0275 0.24348 0.82159 0.38083 0.92709 0.56937 1.0257 0.81143 1.1024 1.0877 1.1606 1.2094 1.0487 0.79364 0.5911 0.9477 0.62392 1.5471 0.84408 1.5838 0.64258 0.74174 0.22068 1.4423 0.29792 1.4586 0.19599 1.7799 0.11005 1.6923-0.053885 1.0992-0.14213 1.3188-0.3008 0.80568-0.24474 1.2589-0.45568 4.3608-1.8341 0.79232-0.27261 1.073-0.27444 1.3397-0.15974 1.3312 0.00295 1.4519 0.15778 0.96322 0.22893 0.94739 0.31707 1.0301 0.42733 1.0056 0.48233 1.1056 0.60626 1.404 0.97528 1.3707 1.1289 2.7278 2.3734 1.5146 1.2349 2.6396 2.3838 3.7188 3.6392 1.7174 1.761 0.97204 1.0567 1.7583 1.9916 2.2032 2.5813 1.8249 2.2381 1.2049 1.5801" stroke="#bdc660"/>
    </defs>
    <g clip-path="url(#p7c4bc68294)">
     <use y="280.512" fill="#bdc660" stroke="#bdc660" xlink:href="#m225269f1c0"/>
    </g>
   </g>
  </g>
 </g>
 <defs>
  <clipPath id="p7c4bc68294">
   <rect x="7.2" y="7.2" width="223.72" height="266.11"/>
  </clipPath>
 </defs>
</svg>
