<?xml version="1.0" encoding="UTF-8"?>
<!DOCTYPE svg  PUBLIC '-//W3C//DTD SVG 1.1//EN'  'http://www.w3.org/Graphics/SVG/1.1/DTD/svg11.dtd'>
<svg width="310.53pt" height="280.51pt" version="1.1" viewBox="0 0 310.53 280.51" xmlns="http://www.w3.org/2000/svg" xmlns:xlink="http://www.w3.org/1999/xlink">
 <metadata>
  <rdf:RDF xmlns:cc="http://creativecommons.org/ns#" xmlns:dc="http://purl.org/dc/elements/1.1/" xmlns:rdf="http://www.w3.org/1999/02/22-rdf-syntax-ns#">
   <cc:Work>
    <dc:type rdf:resource="http://purl.org/dc/dcmitype/StillImage"/>
    <dc:date>2024-07-04T12:07:51.719556</dc:date>
    <dc:format>image/svg+xml</dc:format>
    <dc:creator>
     <cc:Agent>
      <dc:title>Matplotlib v3.7.1, https://matplotlib.org/</dc:title>
     </cc:Agent>
    </dc:creator>
   </cc:Work>
  </rdf:RDF>
 </metadata>
 <defs>
  <style type="text/css">*{stroke-linejoin: round; stroke-linecap: butt}</style>
 </defs>
 <g id="figure_1">
  <g id="patch_1">
   <path d="m0 280.51h310.53v-280.51h-310.53v280.51z" fill="none"/>
  </g>
  <g id="axes_1">
   <g id="PatchCollection_1">
    <defs>
     <path id="m2a51fdf68c" d="m268.21-100.37-9.2964 1.0406-15.317 1.5481-11.083 1.0086-10.605 0.82264-2.4617 0.26823-2.0666 0.42891-2.0503 0.62217-2.0167 0.79372-7.2203 3.5383-1.4614 0.60196-3.0573 1.0844-3.1933 0.96201-3.2908 0.87523-12.524 2.9598-5.3612 1.3755-2.3365 0.67249-2.2898 0.71379-3.3008 1.1435-2.9798 1.1956-2.8891 1.4295-2.5026 1.6882-1.9637 2.0661-1.2613 2.4226-0.78641 2.7884-0.33211 1.943-0.23939 2.036-0.31637 4.5511-0.15344 4.8976-0.11358 12.593-0.10976 3.4722-0.23294 3.3599-0.42284 3.185-0.69876 2.9268-1.0862 2.5576-1.6165 2.0433-2.2037 1.3848-2.7393 0.88207-3.1583 0.51407-3.474 0.26073-3.6894 0.10777-6.8757 0.089704-6.9314 0.24199-2.3478 0.19581-0.82621 0.30151-0.92484 0.42563-2.037 0.52941-2.6551 0.41305-2.9195 0.11487-2.9298-0.33716-1.7594-0.51134-2.7543-1.4853-2.4705-2.1357-2.2329-2.6117-2.0438-2.9438-1.8974-3.1673-1.7854-3.3133-1.7006-3.4058-1.6366-3.4626-3.1419-7.0097-7.539-17.538-3.0583-6.8245-1.5805-3.2982-1.6377-3.1728-1.7187-2.9919-1.8306-2.7351-1.7353-2.1214-1.8614-1.7639-2.0026-1.3034-1.8019-0.67652-1.1706-0.25343-1.2662-0.1463-1.4926-0.017735-1.0924 0.10965-0.89286 0.18818-0.93505 0.30682-1.0454 0.476-0.95986 0.55412-1.0701 0.7393-0.98266 0.77935-2.0562 1.8668-6.5838 6.5396-2.2228 2.1023-2.2097 1.9196-5.1249 4.0052-1.1372 1.2128-0.87373 1.3676-0.62784 1.8374-0.2661 1.9098-0.024827 1.9714 0.15118 1.9486 0.32667 1.9966 0.20778 0.80382 0.5966 1.5317 0.89466 1.1393 0.47247 0.31761 0.55492 0.23802 0.82591 0.18823 1.2335 0.027498 1.3207-0.19849 1.8227-0.53442 1.1451-0.46061 2.9157-1.4622 1.7637-1.0206 3.3652-2.1188 0.81404-0.47101 0.81432-0.35082 0.68324-0.055323 0.34623 0.19662 0.26682 0.48685 0.11996 0.67041 0.022769 0.80537-0.21016 2.3593-0.34514 1.9754-0.89639 4.2171-0.44962 2.8923-0.21006 2.0581-0.10331 3.1096 0.11237 2.2973 0.31086 2.248 0.22197 1.0231 0.67601 2.408 0.81511 2.3776 2.3436 6.2823 0.57797 2.0046 0.20537 1.1157 0.047554 1.6006-0.25274 1.2172-0.12336 0.23339-0.40722 0.42405-0.56305 0.23552-0.72316-0.008766-0.77288-0.16326-3.1868-0.93143-4.3331-1.6095-1.4565-0.44717-1.4753-0.24895-1.7611 0.12947-1.6507 0.38972-1.6118 0.29767-1.6396-0.16117-0.72296-0.29859-0.90768-0.58736-1.4776-1.3668-1.4807-1.7502-1.4546-1.974-2.5907-3.7807-1.1864-1.5603-0.3866-0.38309-0.27734-0.18-0.19264 0.055569-1.1873-9.5256-0.37862-3.7894-0.30374-3.9116-0.19097-3.9338-0.038558-3.8884 0.15937-3.7949 0.41211-3.6634 0.61873-3.1494 0.80918-3.0105 0.94199-2.8633 2.535-6.4486 0.48902-1.4204 0.38774-1.392 0.4423-2.42 0.14926-1.8691-0.050653-6.3565 0.11954-2.0314 0.25086-1.3777 0.25505-0.85399 0.37185-0.93619 0.42222-0.83623 1.0499-1.5666 1.5258-1.7647 1.9917-1.9569 2.3121-2.0035 2.2784-1.7131 4.1931-2.8566 2.5221-1.5745 2.1421-1.187 1.2836-0.60598 1.669-0.62975 2.5711-0.71834 2.3587-0.5318 2.3116-0.32564 5.3099-0.08339 2.0266-0.30294 1.8299-0.6337 1.4994-1.0064 0.41075-0.43613 0.8064-1.2092 0.33627-0.68742 0.52401-1.3645 1.621-5.1877 0.73953-3.0566 0.41465-1.4639 0.5402-1.4436 1.0875-2.0145 0.9248-1.3127 1.2466-1.4694 1.8271-1.8206 5.0513-4.3733 2.4952-2.4327 2.3498-2.5346 3.0671-3.4496 1.9107-1.8869 1.3096-1.0488 1.5609-1.0636 3.3419-2.0167 1.9808-1.3534 0.80994-0.68958 0.67161-0.66693 0.51038-0.57505 1.032-1.3776 0.94273-1.5596 1.0333-2.1132 0.87142-2.1823 0.8285-2.4624 1.2021-4.1619 0.73356-2.8107 1.9692-8.5506 0.38257-1.4029 0.18604-0.24532 0.22023-0.23616 0.46923-0.77827 1.0796-1.9737 3.848-7.5127 1.5584-2.8479 1.4568-2.2477 1.1378-1.4164 0.59902-0.64562 1.0496-0.93818 0.60058-0.44949 1.1144-0.74611 1.5013-0.81184 0.85923-0.32689 0.97-0.25792 2.677-0.58543 4.3186-1.4022 1.1667-0.53795 0.55681-0.36788 0.43186-0.44879 0.30071-0.62744 0.001579-0.47274-0.16532-0.41605-1.1007-1.1881-0.11797-0.30858 0.001238-0.35662 0.17595-0.50901 1.2809-2.2298 0.42636-0.89449 0.45952-1.2178 0.39933-1.3258 0.72688-3.102 0.32544-1.774 0.1696-1.8831-0.10114-1.4244-0.17366-0.79682-0.647-1.6207-0.49992-0.87053-1.2675-1.7462-2.8265-3.4292-0.6093-0.88457-0.68869-1.1779-0.50767-1.0833-0.53944-1.6337-0.24522-1.2428-0.092164-0.80849-0.029214-1.6496 0.053995-0.56211 0.083479-0.34066 0.083939-0.072866-0.21504-1.5036-0.080443-1.4355 0.13015-0.81576 0.15354-0.2928 0.19658-0.21461 1.2551-0.43945 1.9925 0.029317 2.545 0.39259 2.9289 0.65908 3.1789 0.84913 3.3294 0.98374 6.8409 2.2353 6.7831 2.4915 3.2787 1.3393 3.1519 1.4162 2.9766 1.5136 2.7399 1.6403 2.4241 1.8059 1.709 1.6141 1.0414 1.1314 0.93472 1.1884 1.3788 2.3413 2.9397 6.7129 0.79542 1.3913 1.098 1.3625 1.2237 0.90615 2.0288 0.58262 2.3801-0.029178 2.6435-0.48231 2.84-0.81436 2.9862-1.0552 3.0956-1.2282 3.1784-1.3516 9.8794-4.4871 28.248-13.237 19.589-9.0646 11.116-4.3549 0.095501 0.65894 0.68436 1.3634 1.3995 2.4389 4.948 8.2225 1.9745 3.5147 1.3727 2.6711 1.2158 2.6354 1.019 2.5733 0.72724 2.2998 0.47812 2.2105 0.17802 2.1047-0.28103 2.4122-0.94658 2.2711-1.5056 2.0721-1.2293 1.2681-1.3825 1.2022-1.6245 1.2244-1.7425 1.1647-3.0564 1.8004-2.5726 1.3532-11.76 5.6183-5.3183 2.6939-2.2744 1.2893-2.146 1.3469-1.5371 1.0843-1.4152 1.144-1.8947 1.9364-1.4212 2.1718-0.92328 2.7233-0.3635 2.9935 0.045857 3.192 0.34134 3.3363 0.55168 3.4408 0.69918 3.5161 0.80084 3.5709 2.7297 10.925 8.9666 34.426 7.597 29.973" stroke="#bdc660"/>
    </defs>
    <g clip-path="url(#p0e2b83ea2e)">
     <use y="280.512" fill="#bdc660" stroke="#bdc660" xlink:href="#m2a51fdf68c"/>
    </g>
   </g>
  </g>
 </g>
 <defs>
  <clipPath id="p0e2b83ea2e">
   <rect x="7.2" y="7.2" width="296.13" height="266.11"/>
  </clipPath>
 </defs>
</svg>
