<?xml version="1.0" encoding="UTF-8"?>
<!DOCTYPE svg  PUBLIC '-//W3C//DTD SVG 1.1//EN'  'http://www.w3.org/Graphics/SVG/1.1/DTD/svg11.dtd'>
<svg width="284.2pt" height="280.51pt" version="1.1" viewBox="0 0 284.2 280.51" xmlns="http://www.w3.org/2000/svg" xmlns:xlink="http://www.w3.org/1999/xlink">
 <metadata>
  <rdf:RDF xmlns:cc="http://creativecommons.org/ns#" xmlns:dc="http://purl.org/dc/elements/1.1/" xmlns:rdf="http://www.w3.org/1999/02/22-rdf-syntax-ns#">
   <cc:Work>
    <dc:type rdf:resource="http://purl.org/dc/dcmitype/StillImage"/>
    <dc:date>2024-07-04T12:07:46.650925</dc:date>
    <dc:format>image/svg+xml</dc:format>
    <dc:creator>
     <cc:Agent>
      <dc:title>Matplotlib v3.7.1, https://matplotlib.org/</dc:title>
     </cc:Agent>
    </dc:creator>
   </cc:Work>
  </rdf:RDF>
 </metadata>
 <defs>
  <style type="text/css">*{stroke-linejoin: round; stroke-linecap: butt}</style>
 </defs>
 <g id="figure_1">
  <g id="patch_1">
   <path d="m0 280.51h284.2v-280.51h-284.2v280.51z" fill="none"/>
  </g>
  <g id="axes_1">
   <g id="PatchCollection_1">
    <defs>
     <path id="md3e7a39a31" d="m241.14-205.77-0.11389 0.49-1.8663 5.0102-1.5359 4.3798-0.71481 2.239-0.63964 2.2241-0.53374 2.19-0.3912 2.1434-0.20229 2.0871 0.046449 2.0212 0.10501 0.79727 0.35678 1.5546 0.52919 1.4972 0.73082 1.5302 0.54872 0.94266 0.70101 1.0376 0.59644 0.7712 1.1524 1.288 1.6448 1.5501 1.6622 1.3734 3.6325 2.8514 1.635 1.4213 0.80135 0.77417 1.3442 1.4778 0.68153 0.87016 0.62809 0.90331 0.59219 0.97402 0.52532 1.0087 0.43775 1.0029 0.59173 1.7669 0.37854 1.6153 0.35505 2.3473 0.4083 4.0162 0.24249 2.0268 0.30531 2.0013 1.0105 5.285 0.6625 2.8748 2.3207 7.9204 1.2679 4.9672 0.99826 3.6301 0.8882 2.5787 0.51324 1.2673 0.57908 1.2806 0.46686 0.90304 0.2556 0.34018-0.16596 0.57894-0.50953 0.52589-0.94576 0.5368-1.7903 0.49349-2.1038 0.026554-1.5495-0.32046-2.1654-0.81866-1.6166-0.81337-1.615-0.93408-5.5592-3.5871-1.3782-0.82717-1.3458-0.71551-1.3513-0.58277-1.308-0.38166-1.0582-0.13075-1.0191 0.072974-1.5548 0.58213-0.75328 0.48864-0.69893 0.57026-0.66065 0.64233-1.2264 1.4564-1.7848 2.5744-4.2304 6.8378-2.1635 3.3298-2.7362 3.8778-1.6705 2.1734-0.70167 0.82469-0.92164 0.9905-1.6584 1.537-1.784 1.3804-3.9068 2.7412-1.6778 1.3844-1.6237 1.6744-4.0497 4.721-0.9239 0.92148-0.90172 0.74485-1.8524 1.1647-1.3054 0.67082-1.3973 0.60828-3.0103 1.0833-5.4966 1.8085-3.1097 1.204-1.0442 0.47859-1.9694 1.0447-3.1986 2.0001-4.2845 3.0289-3.0417 2.3869-1.8568 1.6045-1.526 1.4051-1.5812 1.5633-3.9741 4.1096-1.5716 1.5175-1.9014 1.7344-2.5292 2.1711-1.3012 1.0253-1.4987 1.0665-1.58 0.95253-1.1153 0.53838-1.1079 0.3992-0.73776 0.18169-1.3326 0.19876-2.2777 0.18513-1.9156 0.25211-2.3142 0.55234-3.1424 0.8898-1.6015 0.3729-1.0885 0.17731-1.8287 0.12416-3.2067-0.10366-1.487-0.004042-0.93158 0.082159-1.3452 0.28247-1.1191 0.55948-0.31439 0.27488-0.30913 0.36356-0.45814 0.83693-0.19196 0.58438-0.12991 0.6508-0.074969 1.3294 0.047763 0.80719 0.14045 1.0461 0.90116 4.41 0.51156 2.8966 0.47765 3.8089 0.18659 2.8377 0.027227 2.6788-0.12741 2.1315-0.11147 0.52147-0.062414 0.12215-0.10909 0.050341-2.989-0.8987-2.4503-0.66483-2.5094-0.53015-5.0128-0.81446-2.0324-0.39944-2.026-0.47966-6.7286-1.7495-3.0246-0.6949-2.7674-0.4783-4.5649-0.38531-0.66568-0.10355-1.3302-0.30992-1.3155-0.4282-1.3817-0.58654-1.0573-0.59903-1.0314-0.72766-0.71433-0.59188-1.6487-1.6364-1.8713-2.2504-2.3735-3.2751-2.5212-3.6368-2.1954-2.8931-1.8089-2.2658-3.0289-3.5264-4.4207-4.9027-1.5834-1.9119-1.4099-1.9587-3.9213-6.4134-1.0566-1.9792-0.6914-1.5707-1.1453-2.8438-0.924-2.0397-0.73964-1.4868-1.1646-2.1563-0.93671-1.5886-1.7351-2.678-1.0762-1.5366-2.2759-3.0314-16.698-20.725 0.10465-0.25302 0.42844-0.57528 3.77-4.6211 2.0083-2.7578 1.1303-1.7558 1.1803-2.0299 0.77234-1.5247 0.4517-1.0462 0.39672-1.1083 0.27829-0.99006 0.20814-1.0365 0.13629-1.2868 0.021702-1.5216-0.086508-1.5756-0.15008-1.458-0.29847-1.7018-0.55607-1.9153-0.40342-1.0513-0.49142-1.0489-1.0697-1.8426-0.68106-1.0031-0.91504-1.2182-1.3176-1.5855-1.9894-2.1742-11.086-11.355-1.1291-1.2571-1.0341-1.2955-0.96164-1.4452-0.30445-0.56468-0.31255-0.7337-0.2563-1.1105 0.001548-0.74291 0.075575-0.43147 0.24665-0.71834 0.5055-0.89288 0.74022-0.92266 0.73349-0.73045 1.0107-0.8488 1.3949-0.99276 1.2885-0.79788 1.2365-0.69012 1.4953-0.75898 2.9804-1.3115 2.5537-0.95316 5.6187-1.944 1.8905-0.73936 1.3931-0.62 1.7415-0.92438 1.8964-1.3736 1.0598-1.1069 0.75385-0.97931 0.92735-1.3838 1.1862-1.9102 0.79312-1.4275 0.80272-1.8934 0.3349-1.0038 0.59254-2.2013 0.56178-2.9073 0.3409-2.9795 0.08778-1.8642-0.012837-1.8077-0.47666-8.4255-0.12766-4.9711 0.015018-2.2206 0.10822-3.0562 0.24179-3.1944 0.28556-2.4809 0.42999-2.8336 0.49935-2.6392 1.0113-4.3605 0.91344-3.3527 1.0158-3.2908 0.66943-1.8416 0.24073-0.41598 0.42862-0.11803 1.0119 0.28619 0.91564 0.39234 6.6894 3.2283 2.0191 0.87802 2.0231 0.79464 2.0073 0.67484 1.9783 0.51444 1.9398 0.30547 1.4163 0.068001 0.90841-0.017637 2.1816-0.20248 1.3915-0.25339 3.7501-0.94354 2.6438-0.55414 2.8509-0.36997 0.98008-0.17977 9.0111-2.3937 1.6892-0.52356 1.0181-0.44693 0.86612-0.4542 3.6651-2.196 1.1972-0.79581 1.3871-1.1616 0.63094-0.65168 0.67545-0.77896 1.0594-1.3894 0.62478-0.91587 1.1563-1.8897 2.1405-4.1228 0.63607-1.1556 0.69065-1.0304 0.87049-0.98788 1.069-0.9067 1.0331-0.5992 1.1324-0.44096 1.2-0.28834 1.3958-0.16705 1.6369-0.086885 2.2765 0.030747 1.5175 0.13758 1.3301 0.25108 4.8999-0.7318 1.8981-0.16008 1.066-0.033858 1.5598 0.053005 1.0256 0.14937 0.64177 0.15796 0.95037 0.32631 1.383 0.68513 1.0847 0.75724 2.2954 2.0333 0.96084 0.7339 0.63076 0.39404 0.68637 0.34638 0.49845 0.20337 1.0748 0.33129 1.5562 0.29452 0.95672 0.11401 9.0412 0.71588 3.5543 0.36485 2.9854 0.37876 4.3861 0.74133 3.0028 0.6803 1.7349 0.46519 1.4767 0.44016 2.5625 0.86855 3.0646 1.1973 15.688 6.9645 2.3599 1.1097 1.3729 0.72241 1.2077 0.71156 1.7474 1.2025 1.3989 1.1176 1.204 1.072 1.1843 1.1565 1.0887 1.1551 1.9492 2.3031 1.3908 1.8279 1.4608 2.0605 5.0774 7.6267 1.6257 2.2765 1.2215 1.5495 1.2937 1.4938 1.4019 1.4749 1.1137 1.0828 2.1775 1.9292 2.5484 1.975 1.5555 1.0447 1.3634 0.78386 0.56156 0.2634 0.60164 0.10887" stroke="#bdc660"/>
    </defs>
    <g clip-path="url(#p6ac649fd1f)">
     <use y="280.512" fill="#bdc660" stroke="#bdc660" xlink:href="#md3e7a39a31"/>
    </g>
   </g>
  </g>
 </g>
 <defs>
  <clipPath id="p6ac649fd1f">
   <rect x="7.2" y="7.2" width="269.8" height="266.11"/>
  </clipPath>
 </defs>
</svg>
