<?xml version="1.0" encoding="UTF-8"?>
<!DOCTYPE svg  PUBLIC '-//W3C//DTD SVG 1.1//EN'  'http://www.w3.org/Graphics/SVG/1.1/DTD/svg11.dtd'>
<svg width="371.52pt" height="256.08pt" version="1.1" viewBox="0 0 371.52 256.08" xmlns="http://www.w3.org/2000/svg" xmlns:xlink="http://www.w3.org/1999/xlink">
 <metadata>
  <rdf:RDF xmlns:cc="http://creativecommons.org/ns#" xmlns:dc="http://purl.org/dc/elements/1.1/" xmlns:rdf="http://www.w3.org/1999/02/22-rdf-syntax-ns#">
   <cc:Work>
    <dc:type rdf:resource="http://purl.org/dc/dcmitype/StillImage"/>
    <dc:date>2024-07-04T12:07:50.539967</dc:date>
    <dc:format>image/svg+xml</dc:format>
    <dc:creator>
     <cc:Agent>
      <dc:title>Matplotlib v3.7.1, https://matplotlib.org/</dc:title>
     </cc:Agent>
    </dc:creator>
   </cc:Work>
  </rdf:RDF>
 </metadata>
 <defs>
  <style type="text/css">*{stroke-linejoin: round; stroke-linecap: butt}</style>
 </defs>
 <g id="figure_1">
  <g id="patch_1">
   <path d="m0 256.08h371.52v-256.08h-371.52v256.08z" fill="none"/>
  </g>
  <g id="axes_1">
   <g id="PatchCollection_1">
    <defs>
     <path id="me0433a258f" d="m345.4-168.59-0.1449 0.76441-0.69222 1.3909-1.0994 1.7074-1.4186 1.7711-1.6741 1.6802-3.5684 3.2235-0.9672 0.99025-2.0062 2.3856-3.8482 5.1052-1.3542 1.0862-0.81186 0.21248-0.80815-0.11884-0.46697-0.23531-0.55479-0.44155-0.79974-0.89474-2.6731-3.7562-0.99328-1.2863-0.98478-1.1208-0.74835-0.73549-1.2126-0.97618-1.9657-1.0636-2.0875-0.5548-2.1008 0.031193-1.7544 0.53638-1.7263 0.90085-1.7363 1.1359-2.4201 1.7949-1.3829 1.1814-4.8277 4.4001-2.5751 2.1844-4.4606 3.6278-2.8363 2.4642-2.2347 2.1644-4.3574 4.5977-1.8274 1.7898-1.8867 1.6626-3.468 2.6224-2.9219 1.9257-2.2934 1.2226-3.3261 1.333-3.5716 1.062-3.7371 0.87896-11.528 2.2612-3.7263 0.85273-3.5394 1.0241-3.2515 1.2857-2.8364 1.6571-1.4313 1.1964-0.98282 1.019-0.88062 1.0778-0.84845 1.208-0.72565 1.2164-0.75687 1.5962-0.65 2.0219-0.30561 1.8356-0.082649 1.9904 0.15856 2.1564 0.44843 2.2495 0.71936 2.0915 0.81697 1.5757 1.3044 1.8153 4.6356 5.3658 1.7864 1.851 1.8306 1.6447 1.9168 1.5308 2.0412 1.4369 1.922 1.1933 4.0183 2.2937 2.0801 1.3246 2.1092 1.578 1.6865 1.4685 1.991 2.1115 2.7026 3.3079 3.6886 4.0892 1.6723 2.0801 1.0077 1.4447 1.1436 1.9156 1.0083 2.1581 0.69083 1.8655 0.72453 2.8952 0.70181 5.0678 0.21044 1.2011 0.4641 1.911 0.87676 2.782 0.99592 2.6757 0.83694 1.9267 0.39272 0.53566-0.24449-0.005384-1.0826 0.30399-1.7012 0.63751-6.8954 2.8751-2.6604 0.97304-2.6104 0.75745-2.4969 0.43238-2.005 0.064337-2.665-0.18704-1.966-0.29187-4.9968-0.98577-4.3663-0.63533-1.7757-0.18883-1.6405-0.052388-1.1383 0.054833-2.3027 0.34256-2.7479 0.69954-3.953 1.3559-4.4417 1.8194-9.3427 4.1619-4.4528 1.7582-2.2405 0.72726-2.0464 0.54492-2.6408 0.49234-2.3301 0.23238-2.5926 0.086386-2.0112-0.041703-3.3506-0.18631-2.1233-0.2146-3.6499-0.61584-3.2554-0.86328-2.2774-0.79953-2.2133-0.9507-2.1314-1.1065-0.98523-0.58491-2.073-1.3522-5.5991-3.9817-1.6824-1.136-2.2078-1.3431-2.2439-1.1223-2.1673-0.81311-1.9127-0.54082-1.9666-0.33236-2.6185-0.033695-2.7001 0.3344-2.2275 0.46664-4.1892 1.1336-7.2937 2.2047-7.4646 2.0984-5.2205 1.3105-1.2747 0.26986-0.79104 0.045882-0.12687-0.95689-0.047447-1.7834-0.03219-7.179-0.12979-4.1928-0.42585-5.9457-0.50161-3.5935-0.71372-2.9536-0.66248-2.1088-0.91509-2.4846-2.8334-6.633-5.4498-11.995-1.2536-3.2787-0.77646-2.6271-0.67451-3.3727-0.30568-2.73-0.14819-3.2539 0.02106-7.5377-0.093483-3.5594-0.25246-3.7672-0.42898-3.5091-0.66856-3.3507-0.41063-1.4835-0.61686-1.8154-0.67846-1.6382-0.53027-1.0636-0.77301-1.255-0.70971-0.91509-0.95448-0.9875-1.1525-0.92769-1.2982-0.79858-1.4557-0.67672-1.4335-0.47773-1.4894-0.32904-1.585-0.21579-2.7524-0.15551-7.7219 0.14232-3.291-0.013874-8.2658-0.30665-2.6395 0.025745-2.6009 0.28449-3.0374 0.59247-2.3212 0.61298-5.8534 1.7435-2.8258 0.69024-1.5764 0.28257-1.8508 0.2029-1.7487 0.038554-1.8433-0.14295-1.5974-0.31774-1.1949-0.38678-1.1901-0.5251-1.678-0.97352-1.6774-1.3009-2.1247-2.0147-4.758-5.2869-3.4371-4.2657-0.65357-0.88808-0.62501-1.0031-0.44035-0.85739-0.33344-0.92223-0.16987-0.98002 0.009375-0.89525 0.1107-0.68985 0.5749-1.5578 0.59646-1.051 0.68665-0.99111 1.176-1.4243 0.7436-0.78702 1.3391-1.262 1.7789-1.467 1.858-1.3947 3.826-2.7371 6.0471-4.1806 2.0583-1.5866 1.363-1.1717 2.3036-2.2907 1.1007-1.2798 1.2888-1.6678 2.4081-3.4774 6.5883-10.191 1.9751-2.7947 4.2752-5.6854 2.3833-3.4065 1.6576-2.7475 0.53638-1.0203 1.1558-2.5888 0.96156-2.8845 0.67877-3.2016 0.22377-2.0701 0.063138-1.5361-0.028911-2.1602-0.3747-6.5766-0.035892-2.4254 0.054657-1.2385 0.23081-1.7016 0.20335-0.68589 0.33549-0.46715 0.15667-0.031419 6.4844 3.7876 1.9019 1.0365 3.5565 1.7317 2.844 1.1778 2.8918 1.0196 2.2535 0.66721 2.2281 0.53963 2.5437 0.44768 1.9149 0.19166 1.2474 0.032297 2.33-0.17828 2.314-0.43896 2.6681-0.73572 1.7573-0.56928 3.2511-1.1978 9.4512-3.8021 2.6756-1.0136 2.6013-0.82052 5.0737-1.4429 5.603-1.767 2.5137-0.52552 1.7527-0.23119 2.272-0.19642 3.4762-0.18184 4.0011-0.046914 1.8547 0.15818 9.4134 1.2141 6.1235 0.62062 1.5717 0.22063 1.5392 0.33826 1.5132 0.48516 1.0888 0.46059 1.705 0.94544 1.7593 1.2829 1.948 1.749 1.854 1.898 6.1092 6.8096 2.1535 2.0858 1.9105 1.5049 2.1184 1.1979 2.3133 0.97582 2.3343 0.65066 1.0518 0.15967 2.0454 0.029769 1.6321-0.34702 1.5935-0.63489 0.91085-0.47752 1.5964-1.0979 1.2093-1.076 1.8641-1.9021 1.6971-1.8495 3.6036-4.3294 2.5621-2.6679 2.0623-1.7947 2.2077-1.5028 0.81726-0.43557 2.5075-0.96654 2.6215-0.64605 6.7402-1.2235 3.5351-0.28928 2.2849 0.050788 0.86311 0.086625 5.5847 0.95173 2.2236 0.28356 1.2323 0.084914 1.8313 0.008012 3.0183-0.31382 3.1046-0.66723 3.1435-0.94966 3.122-1.1631 3.3717-1.4689 2.786-1.3812 2.6338-1.4815 2.0058-1.3418 0.43798-0.50038 0.004857 0.11504 0.20735 0.24526 0.70472 0.39424 1.6459 0.57172 1.1949 0.29449 2.3469 0.37595 2.7669 0.16268 3.963-0.082414 3.0587-0.21682 6.5031-0.78795 3.6118-0.34581 4.816-0.16546 3.5648-0.27169 4.5978-0.23906 2.2666-0.23876 2.172-0.47386 1.8955-0.71471 4.5425-2.1978 1.8289-0.58776 1.1296-0.1745 1.6958 0.055326 1.6246 0.37119 1.5847 0.63974 1.5741 0.92161 1.4471 1.1388 1.5123 1.615 1.1706 1.8388 0.71195 2.0373 0.16074 2.2939-0.29693 2.4397-0.59445 2.5413-1.5353 5.2598-0.68467 2.6708-0.44983 2.6724-0.058608 2.6564 0.46367 2.6579 0.89235 2.6445 1.1834 2.652 2.752 5.4113 1.3297 2.8035 1.1266 2.8991 0.77693 3.0154 0.31775 3.1802-0.087814 3.2428-0.38842 3.2091-0.58632 3.0359-0.66937 2.6543-0.6059 1.9578-0.34716 0.78674" stroke="#bdc660"/>
    </defs>
    <g clip-path="url(#pbfa1aaab26)">
     <use y="256.081764" fill="#bdc660" stroke="#bdc660" xlink:href="#me0433a258f"/>
    </g>
   </g>
  </g>
 </g>
 <defs>
  <clipPath id="pbfa1aaab26">
   <rect x="7.2" y="7.2" width="357.12" height="241.68"/>
  </clipPath>
 </defs>
</svg>
