<?xml version="1.0" encoding="UTF-8"?>
<!DOCTYPE svg  PUBLIC '-//W3C//DTD SVG 1.1//EN'  'http://www.w3.org/Graphics/SVG/1.1/DTD/svg11.dtd'>
<svg width="339.73pt" height="280.51pt" version="1.1" viewBox="0 0 339.73 280.51" xmlns="http://www.w3.org/2000/svg" xmlns:xlink="http://www.w3.org/1999/xlink">
 <metadata>
  <rdf:RDF xmlns:cc="http://creativecommons.org/ns#" xmlns:dc="http://purl.org/dc/elements/1.1/" xmlns:rdf="http://www.w3.org/1999/02/22-rdf-syntax-ns#">
   <cc:Work>
    <dc:type rdf:resource="http://purl.org/dc/dcmitype/StillImage"/>
    <dc:date>2024-07-04T12:07:43.942365</dc:date>
    <dc:format>image/svg+xml</dc:format>
    <dc:creator>
     <cc:Agent>
      <dc:title>Matplotlib v3.7.1, https://matplotlib.org/</dc:title>
     </cc:Agent>
    </dc:creator>
   </cc:Work>
  </rdf:RDF>
 </metadata>
 <defs>
  <style type="text/css">*{stroke-linejoin: round; stroke-linecap: butt}</style>
 </defs>
 <g id="figure_1">
  <g id="patch_1">
   <path d="m0 280.51h339.73v-280.51h-339.73v280.51z" fill="none"/>
  </g>
  <g id="axes_1">
   <g id="PatchCollection_1">
    <defs>
     <path id="m948bb24aab" d="m282.26-246.66 0.47547 0.10739 0.27469 0.4517 0.055426 0.87792-0.19876 1.1401-0.3949 1.2898-0.34289 0.88914-1.2334 2.7492-0.45646 1.2574-0.33775 1.3175-0.18546 1.3582-0.022736 1.2771 0.1949 2.3881 0.17467 1.1528 0.60728 2.8293 0.588 2.0478 0.61243 1.7886 0.8439 2.1617 1.9033 4.2771 3.1401 6.3012 3.332 6.1454 3.8582 6.602 0.98188 1.8586 0.5408 1.1548 0.88022 2.2354 0.86851 2.6691 2.5529 8.3474 2.7745 9.5724 0.70303 1.9938 0.83889 1.8108 1.0525 1.5454 1.0236 0.99244 1.1505 0.85427 5.9983 3.8746 1.1497 0.9536 0.83599 0.9573 0.62566 0.97407 0.37954 0.87493 0.067064 0.64435-0.044227 0.10926 0.21662 6.0561-0.10028 2.3843-0.37071 2.1753-0.44353 1.2094-0.46986 0.79884-0.81944 0.93203-0.90482 0.73799-0.56097 0.37829-1.4518 0.82654-8.7707 4.1911-3.0894 1.6519-1.4024 0.85038-1.7014 1.1252-2.8244 2.0969-2.8076 2.4374-3.7616 3.5493-1.8588 1.8578-7.2348 7.487-3.031 2.9381-1.8771 1.6831-3.0994 2.5027-4.0119 2.9621-4.9422 3.4837-6.4274 4.3123-2.195 1.6218-1.7748 1.4378-2.0129 1.8006-2.4016 2.4673-1.1418 1.3265-1.4668 1.866-3.8323 5.0924-3.169 3.8252-2.3931 2.5123-2.0128 1.8109-2.2632 1.755-4.1163 2.8124-4.737 2.8302-4.9805 3.0706-2.6166 1.5209-2.4841 1.3137-1.2378 0.57019-1.2008 0.48829-1.9476 0.64356-1.653 0.38726-1.3934 0.194-1.8319 0.049157-1.3181-0.089881-2.4011-0.37627-2.877-0.69125-4.4763-1.3331-14.139-4.4637-2.5278-0.71248-2.4571-0.61189-2.6871-0.52386-1.8772-0.22465-2.0607-0.038068-1.3763 0.15686-1.7752 0.49806-1.1084 0.48529-0.73812 0.39127-1.5696 0.98586-1.662 1.2253-2.1285 1.7536-5.2627 4.7624-2.6349 2.1986-1.1175 0.8297-1.5141 1.0131-1.5523 0.91636-1.636 0.84823-3.8087 1.6508-4.387 1.7352-5.0737 1.8887-5.381 2.2592-2.6698 1.0194-2.4398 0.70631-2.4255 0.41983-2.1482 0.10755-4.101-0.063266-2.4912 0.16779-2.1895 0.46219-2.1722 0.7025-2.1368 0.85028-1.5565 0.69886-1.4911 0.7896-1.5256 1.0097-1.7376 1.4732-1.7052 1.8981-0.80071 1.1544-0.26596 0.71091-0.34858-0.29165-0.50778-0.053867-0.433 0.025174-1.2667 0.26809-1.5701 0.56568-1.4997 0.70415-1.1417 0.60957-7.386 4.4096-2.9534 1.5942-2.9519 1.4094-6.7578 2.9661-0.93031 0.2999-0.94654 0.21409-1.0904 0.13634-1.0855 0.014255-1.249-0.18024-0.68641-0.23118-0.80327-0.43917-0.70041-0.56951-0.44468-0.4766-0.34247-0.45848-0.50503-0.97229-0.36965-1.1514-1.8471-7.3167-0.48613-2.6976-0.81979-5.622-0.89888-5.5649-1.1535-6.2816-0.252-2.4736-0.11559-4.2458-0.054752-0.20089 0.21541-0.5212 0.67435-1.0921 0.6666-0.92245 1.5022-1.776 0.86625-0.87573 0.85271-0.76043 1.0307-0.78121 1.5399-0.94389 5.1397-2.5544 2.204-1.295 1.0034-0.71504 1.3903-1.2147 0.95168-1.0317 0.75964-0.96648 1.0911-1.6982 0.99184-1.9963 0.80065-2.0441 0.52336-1.6607 0.40735-1.6631 0.24311-1.4191 0.12894-1.3987-0.029232-1.7523-0.2505-1.5405-0.22708-0.78099-0.32728-0.84832-0.4849-0.99679-0.53588-0.92872-1.5072-2.201-4.2793-5.7717-1.0549-1.6932-0.8614-1.8181-0.58782-1.6102-0.28242-0.94552-1.5161-5.9562-0.67562-2.3961-1.5203-4.3377-0.65143-2.1567-0.35203-1.4189-0.72163-3.9466-0.31357-1.2692-0.65773-1.8356-0.52521-1.0622-0.87377-1.3172-0.56115-0.62527-0.48996-0.4363-0.65742-0.45224-0.67301-0.32799-0.58498-0.19038-1.0303-0.17859-0.724-0.038405-1.8617 0.13241-2.006 0.39924-3.1948 0.90977-6.2875 2.2757-2.3794 0.76717-1.679 0.40985-1.7821 0.2206-0.91278-0.022481-0.5038-0.07405-0.85678-0.2626-0.60175-0.30825-0.69122-0.50941-0.53552-0.54378-0.73234-1.0229-0.61652-1.204-0.48546-1.2754-0.42928-1.4913-0.40208-1.9064-0.38649-2.7538-0.38132-4.3263-0.35682-4.9177-0.086494-3.0244-0.059215-6.2367-0.599-8.2333-0.1318-2.8013 0.010893-1.7593 0.1077-1.7918 0.46186-3.0914 0.58123-2.3572 0.53281-1.7259 1.1166-3.0481 1.2743-3.0472 2.8398-6.2461 6.8631-14.253 1.3146-2.8278 2.7397-6.1844 1.2027-2.541 1.156-2.1371 1.0614-1.7516 2.2008-3.3775 1.4549-2.0893 1.8381-2.2471 1.156-1.2341 1.9087-1.8573 1.9169-1.6679 10.209-7.766 1.4908-1.0385 2.779-1.6694 3.5569-1.7985 4.4974-2.139 2.1298-0.93071 1.9731-0.77488 1.9719-0.65803 2.1269-0.53651 2.6053-0.34643 2.0797 0.028128 1.9928 0.34684 1.0673 0.34412 1.271 0.54754 1.6851 0.91739 5.9724 3.9522 1.46 0.81631 1.8718 0.82218 4.6141 1.6526 1.8177 0.72418 1.7395 0.82859 1.6122 0.97751 0.92326 0.70769 0.81713 0.75418 0.58512 0.64472 0.46238 0.60096 0.50742 0.80301 0.5181 1.0778 0.46859 1.3505 0.52383 2.4364 0.21246 1.8264 0.086026 1.4737-0.033636 2.877-0.16379 1.8889-0.35777 2.4498-0.8399 4.1807-0.44188 2.5543-0.20045 2.4105 0.15656 2.1744 0.65379 1.8274 0.75564 0.9457 0.99565 0.73968 1.4177 0.60858 1.6422 0.39549 2.3923 0.31301 9.2741 0.85162 6.6827 0.49732 3.3378 0.11069 2.3428-0.02506 1.8799-0.10882 2.2275-0.26379 2.2544-0.48804 1.0706-0.34578 1.5068-0.63268 1.8891-1.0157 1.8923-1.2177 1.738-1.3142 1.4619-1.3008 1.5369-1.5615 0.97113-1.0956 1.5175-1.8948 1.4287-2.0246 1.0165-1.6293 1.4532-2.6777 1.2036-2.4656 1.3551-2.992 2.7281-6.4186 1.1331-2.3905 0.95148-1.7733 0.93393-1.5711 1.2028-1.8112 1.5647-2.0661 2.0218-2.3005 1.9042-1.9242 2.3254-2.0806 1.268-0.98674 1.4999-1.0193 1.4593-0.83444 1.1978-0.55857 0.88306-0.32392 1.0646-0.24643 0.58101-0.005529 0.40483 0.25253 0.1366 0.12797 0.31305 0.50219 2.9964 5.1865 2.2063 3.392 2.9036 4.0803 2.6814 3.5889 1.6299 1.997 1.1596 1.2832 1.9318 1.9156 1.804 1.5699 1.9726 1.4982 1.6194 1.0613 2.0187 1.1396 1.8133 0.88215 1.7111 0.6661 1.2103 0.31721 0.92207 0.10048 0.82755-0.088061 0.4503-0.16058 0.424-0.24816 0.68939-0.6201 0.65385-0.82467 1.523-2.4258 1.6361-2.8501 4.3486-8.2832 1.9777-3.5013 2.1653-3.4271 1.1484-1.6512 1.2082-1.6172 1.2611-1.5578 1.929-2.1258 0.97944-0.96265 2.1168-1.8169 2.2802-1.593 1.1895-0.71066 1.2446-0.67372 2.1634-0.99426 1.1722-0.39796 1.0588-0.22929 0.94907-0.076525 1.211 0.10287 0.46461 0.10283 0.86167 0.2808 1.3229 0.62365 1.6157 0.98424 9.2853 6.3575 2.4739 1.7555 4.6149 3.4407 1.2827 0.86854 0.20778 0.035911" stroke="#bdc660"/>
    </defs>
    <g clip-path="url(#pcc93cd9681)">
     <use y="280.512" fill="#bdc660" stroke="#bdc660" xlink:href="#m948bb24aab"/>
    </g>
   </g>
  </g>
 </g>
 <defs>
  <clipPath id="pcc93cd9681">
   <rect x="7.2" y="7.2" width="325.33" height="266.11"/>
  </clipPath>
 </defs>
</svg>
