<?xml version="1.0" encoding="UTF-8"?>
<!DOCTYPE svg  PUBLIC '-//W3C//DTD SVG 1.1//EN'  'http://www.w3.org/Graphics/SVG/1.1/DTD/svg11.dtd'>
<svg width="240.2pt" height="280.51pt" version="1.1" viewBox="0 0 240.2 280.51" xmlns="http://www.w3.org/2000/svg" xmlns:xlink="http://www.w3.org/1999/xlink">
 <metadata>
  <rdf:RDF xmlns:cc="http://creativecommons.org/ns#" xmlns:dc="http://purl.org/dc/elements/1.1/" xmlns:rdf="http://www.w3.org/1999/02/22-rdf-syntax-ns#">
   <cc:Work>
    <dc:type rdf:resource="http://purl.org/dc/dcmitype/StillImage"/>
    <dc:date>2024-07-04T12:07:47.457499</dc:date>
    <dc:format>image/svg+xml</dc:format>
    <dc:creator>
     <cc:Agent>
      <dc:title>Matplotlib v3.7.1, https://matplotlib.org/</dc:title>
     </cc:Agent>
    </dc:creator>
   </cc:Work>
  </rdf:RDF>
 </metadata>
 <defs>
  <style type="text/css">*{stroke-linejoin: round; stroke-linecap: butt}</style>
 </defs>
 <g id="figure_1">
  <g id="patch_1">
   <path d="m0 280.51h240.2v-280.51h-240.2v280.51z" fill="none"/>
  </g>
  <g id="axes_1">
   <g id="PatchCollection_1">
    <defs>
     <path id="m9a1cbfa395" d="m172.12-194.05-0.022618 0.52257-0.53513 4.7205-0.096702 1.5141-0.022663 1.1437 0.04902 1.4772 0.11139 1.1302 0.21425 1.2475 0.42557 1.6059 0.37108 1.0925 1.4268 3.8471 1.075 3.7512 0.6507 2.0677 0.38258 1.0599 0.95917 2.3494 1.0514 2.2291 1.6043 3.0433 4.9264 8.5366 0.67706 1.2314 0.94772 1.8624 0.78415 1.7952 0.49941 1.4231 0.37241 1.5357 0.13006 1.2272-0.004391 0.58845-0.066494 0.65668-0.33548 1.2888-0.57635 1.3467-2.1628 3.9772-0.89404 1.7186-0.59556 1.4061-0.31413 1.0894-0.12638 0.86138 0.013114 0.74895 0.1486 0.72663 0.36891 0.89659 0.57613 0.90447 0.48861 0.59478 1.151 1.1271 1.351 1.0819 1.7381 1.2069 1.8721 1.1804 6.0483 3.5654 3.4341 2.0825 2.668 1.7735 1.2948 0.97889 0.94841 0.84793 0.86549 0.90803 0.88609 1.1037 0.66468 0.9964 0.57992 1.0703 0.51673 1.2451 0.25483 0.84332 0.18056 0.90589 0.07211 0.89607-0.054733 0.91513-0.10116 0.53348-0.2619 0.85119-0.51804 1.1475-0.4956 0.88696-1.9997 3.2968-0.82171 1.6727-0.6413 1.8064-0.26907 1.429-0.10426 1.3149 0.023301 1.9838 0.20622 2.0366 0.37886 2.0563 0.28548 1.145 0.63005 2.066 1.1977 3.3338 0.90211 2.1719 0.47743 1.0084 0.62645 1.1811 0.68242 1.1138 1.8979 2.6004 1.0422 1.5508 1.0236 1.6874 1.0136 1.7944 3.2809 6.1398 1.1483 2.0624 1.0218 1.7005 0.99956 1.4785 0.93488 1.1416 0.53293 0.49949 0.27265 0.1953 0.18556 0.09312 0.096421 0.0087-0.43793 0.29924-0.86559 0.68718-6.1568 5.2404-1.3779 1.245-4.7188 4.4796-1.2282 1.1165-1.2045 0.9654-1.6469 1.1134-2.0903 1.1893-2.3541 1.1241-4.6548 1.9408-2.7923 0.79414-0.82546 0.25954-1.3011 0.48222-6.0007 2.623-2.9371 1.3776-1.0496 0.54134-0.29673 0.1096-1.2609 0.7537-5.285 3.4126-1.6755 1.0353-1.1751 0.66238-1.1144 0.54212-1.2458 0.47711-0.84187 0.22723-0.50466 0.088445-1.1909 0.031345-0.70981-0.10215-0.88731-0.2641-0.66783-0.34272-0.56496-0.49599-0.22112-0.42306-0.056573-0.46308 0.062581-0.34089 0.099731-0.27198 0.21513-0.41624 1.4875-2.1213 0.26539-0.56442 0.090383-0.3443 0.022359-0.44572-0.041522-0.26785-0.11209-0.33278-0.37159-0.56341-0.6104-0.477-0.88607-0.33298-1.0626-0.1947-2.9682-0.34817-1.5522-0.35279-0.9827-0.36049-0.98286-0.44253-3.0044-1.5004-1.1033-0.63437-1.0174-0.65141-2.7581-1.9034-2.923-2.1279-7.927-5.8887-2.1114-1.4999-2.2296-1.4731-1.8815-1.1189-1.2342-0.65699-1.224-0.57839-2.8181-1.1007-3.7417-1.1465-1.3978-0.52822-0.69583-0.34836-0.59721-0.36804-0.56519-0.40829-0.62401-0.52367-1.0081-1.0322-0.72526-0.90964-0.89219-1.3323-0.65027-1.1999-0.37543-0.88098-0.39574-1.1938-0.8483-3.496-0.50537-1.7352-0.30022-0.80626-0.32956-0.71274-0.30417-0.51622-0.24039-0.32625-0.34547-0.36834-0.28059-0.23268-0.79184-0.47469-1.1471-0.46971-3.1135-1.0121-1.4961-0.57592-1.3535-0.68987-0.60414-0.38605-0.74495-0.5606-0.76128-0.69075-0.70983-0.7501-0.45766-0.54556-0.6238-0.8391-1.5396-2.4265-1.1302-2.0596-0.8843-1.9473-0.79761-2.1639-0.43894-1.4547-0.4406-1.964-0.21147-1.2994-0.2026-1.5879-0.52794-5.4489-0.65039-5.1809-0.65188-5.9973-0.32104-2.1088-0.24073-0.89748-0.18214-0.44588-0.34137-0.55428-0.41838-0.44049-0.79934-0.53291-0.92018-0.3645-1.0078-0.16783-0.70957 0.047425-0.6835 0.14103-2.4405 0.74312-4.146 0.98232-3.005 0.98856-2.4998 0.69176-0.56302 0.18232-1.4316 0.56304-1.1592 0.6212-1.1077 0.73203-1.2928 1.0094-0.94343 0.84289-0.94625 0.94034-1.3483 1.5067-1.5177 1.9285-1.3642 1.9403-0.43153 0.65727-2.3782 3.9656-0.86088 1.207-1.0999 1.194-1.3403 1.0457-1.4499 0.72068-1.3588 0.3187-0.64898 0.038966-1.5461-0.2275-0.92029-0.34808-0.90002-0.47053-1.0206-0.64788-3.0912-2.1983-1.3121-0.77728-1.3594-0.55504-1.0732-0.22102-0.91661-0.071032-1.3557 0.013561-2.4516 0.11539-1.3803-0.039793-0.85559-0.10708-0.77062-0.15458-0.83558-0.24804-0.5614-0.23079-1.387-0.84005-0.35689-0.27295-0.94777-0.81198-0.91887-0.8899-1.1148-1.1873-1.0334-1.1836-1.2582-1.5203-3.582-4.4811-1.344-1.6059-0.98092-1.0809-0.46136-0.33555 0.11449-0.17798-0.095189-0.68713-0.7987-2.9444-0.42929-1.8531-0.2911-1.9118-0.061439-0.82182-0.017979-1.162 0.10856-1.2716 0.22518-1.0318 0.40207-1.1362 0.44306-0.90887 0.6324-1.018 0.74246-0.92684 0.64942-0.62705 0.69676-0.5138 0.78117-0.39723 0.4235-0.14183 0.47689-0.10049 0.40748-0.037972 0.49715 0.009362 0.83089 0.15337 0.89603 0.36741 0.4439 0.25513 0.79439 0.5652 0.92633 0.82142 0.79546 0.8408 0.98865 1.2308 0.89551 1.2932 1.1292 1.8439 1.1051 1.9981 0.67678 1.3111 1.1234 2.3328 1.8076 4.1584 0.77347 1.4211 0.44954 0.63681 0.47406 0.53645 0.63166 0.50112 0.66378 0.25455 0.8249-0.068755 0.50246-0.2188 0.38938-0.2529 0.60756-0.53761 0.48647-0.55633 0.80898-1.1351 1.3942-2.1056 0.65222-1.092 2.1487-4.0864 0.50517-0.87326 1.1578-1.6558 1.0047-1.2452 4.1892-4.8635 0.77528-0.78157 0.97852-0.77054 0.43986-0.29062 0.7403-0.40867 0.83464-0.33566 0.87273-0.24067 1.2571-0.21135 1.5991-0.13926 0.89044 0.004608 2.3009 0.12485 1.403-0.011054 1.6731-0.24129 1.6529-0.39688 1.0244-0.28299 1.0161-0.33896 1.8479-0.72967 0.8234-0.4002 1.3598-0.90902 1.1817-1.1361 0.63148-0.80615 0.50531-0.74235 0.41559-0.6913 0.54076-1.0814 0.22098-0.54437 0.28098-0.88017 0.1536-0.70783 0.12926-1.3872 0.01044-3.2671-0.079925-2.7587 0.11715-2.5064 0.11508-1.3407 0.17295-1.3366 0.27577-1.3144 0.38719-1.2091 0.48823-1.14 0.37199-0.69706 0.55128-0.90304 2.4478-3.6052 1.2145-1.9371 0.47964-0.92444 0.33818-0.78093 0.30025-0.93086 0.14135-0.70492 0.068126-0.81196-0.039143-1.0531-0.19642-1.2926-0.38303-1.4645-0.60883-1.6501-0.38789-0.8809-0.50082-1.0294-1.1162-2.0338-1.0198-1.6646-1.0492-1.58-1.1065-1.544-1.1592-1.4923-1.2116-1.421-1.1236-1.19-1.0742-1.034-0.80049-0.70038-0.97639-0.76303-1.19-0.77955-1.1342-0.58242-1.4184-0.49349-1.8899-0.26036-1.0339-0.006301-1.0415 0.056214-3.1903 0.32963-1.7256 0.098688-1.4976-0.076203-1.4073-0.16357-1.7658-0.26318-1.2604-0.24695-1.8726-0.49301-0.75247-0.26317-0.98299-0.43535-1.1208-0.68085-0.6598-0.51635-0.5586-0.51998-0.50205-0.54419-0.45615-0.56692-0.73019-1.0548-0.88252-1.5036-0.95347-1.9306-0.78911-1.879-0.86262-2.3345-1.6452-5.3213-0.6406-1.8763-0.3615-0.91327-0.46935-1.017-0.77732-1.3195-0.8024-1.0732-1.0754-1.202-1.1333-1.0874-1.4547-1.2055-1.1637-0.82236-1.4249-0.83539-1.469-0.73062-0.5134-0.18591-0.19681-0.006149-0.04428-0.36775 0.10865-0.10527 0.49672-0.22915 0.51777-0.12799 3.9868-0.46686 1.1868-0.11301 3.3342-0.21755 1.4695-0.14047 0.91282-0.12762 1.574-0.31302 1.5082-0.39674 1.9779-0.65237 1.2554-0.5086 1.5908-0.78882 0.90147-0.5886 0.58855-0.44712 0.74946-0.63267 2.8901-2.6778 1.044-0.87407 1.0446-0.79951 1.1502-0.80869 1.3406-0.85755 2.0312-1.1358 1.2653-0.62051 1.3095-0.58354 1.686-0.68818 4.6139-1.7658 0.70105-0.31531 1.9405-0.98204 2.3087-1.0158 3.1522-1.2648 0.91696-0.31197 1.9024-0.54428 0.71671-0.40565 0.51345-0.64407 0.35734-0.84511 0.70089-2.1132 0.581-1.2326 0.71293-1.2567 0.73129-1.1734 4.2879-6.4226 2.7403-3.6207 2.3816-3.2755 0.59504-0.75333 12.928 16.047 1.7622 2.3471 0.83328 1.1897 1.3434 2.0734 0.72526 1.23 0.9017 1.6695 0.57268 1.1512 0.71542 1.5793 0.88678 2.2018 0.53532 1.2161 0.81807 1.5324 3.0361 4.9657 1.0916 1.5166 1.226 1.4803 3.4228 3.796 2.3452 2.7304 1.4006 1.7544 1.6998 2.24 1.9521 2.8158 1.8377 2.5358 1.4489 1.7424 1.2766 1.267 0.55308 0.45827 0.7986 0.5634 0.81864 0.46381 1.0698 0.45413 1.0186 0.33154 1.0299 0.23996 0.51541 0.080172 3.5344 0.29833 2.1427 0.37033 2.3419 0.53803 5.2097 1.3546 1.5686 0.37138 1.5736 0.30927 3.8813 0.63061 1.943 0.41048 1.8972 0.51475 2.3143 0.69583" stroke="#bdc660"/>
    </defs>
    <g clip-path="url(#p2c7b9750a7)">
     <use y="280.512" fill="#bdc660" stroke="#bdc660" xlink:href="#m9a1cbfa395"/>
    </g>
   </g>
  </g>
 </g>
 <defs>
  <clipPath id="p2c7b9750a7">
   <rect x="7.2" y="7.2" width="225.8" height="266.11"/>
  </clipPath>
 </defs>
</svg>
