<?xml version="1.0" encoding="UTF-8"?>
<!DOCTYPE svg  PUBLIC '-//W3C//DTD SVG 1.1//EN'  'http://www.w3.org/Graphics/SVG/1.1/DTD/svg11.dtd'>
<svg width="323.68pt" height="280.51pt" version="1.1" viewBox="0 0 323.68 280.51" xmlns="http://www.w3.org/2000/svg" xmlns:xlink="http://www.w3.org/1999/xlink">
 <metadata>
  <rdf:RDF xmlns:cc="http://creativecommons.org/ns#" xmlns:dc="http://purl.org/dc/elements/1.1/" xmlns:rdf="http://www.w3.org/1999/02/22-rdf-syntax-ns#">
   <cc:Work>
    <dc:type rdf:resource="http://purl.org/dc/dcmitype/StillImage"/>
    <dc:date>2024-07-04T12:08:04.819829</dc:date>
    <dc:format>image/svg+xml</dc:format>
    <dc:creator>
     <cc:Agent>
      <dc:title>Matplotlib v3.7.1, https://matplotlib.org/</dc:title>
     </cc:Agent>
    </dc:creator>
   </cc:Work>
  </rdf:RDF>
 </metadata>
 <defs>
  <style type="text/css">*{stroke-linejoin: round; stroke-linecap: butt}</style>
 </defs>
 <g id="figure_1">
  <g id="patch_1">
   <path d="m0 280.51h323.68v-280.51h-323.68v280.51z" fill="none"/>
  </g>
  <g id="axes_1">
   <g id="PatchCollection_1">
    <defs>
     <path id="m597022e400" d="m267.46-186.6 0.09145 0.034354 0.42633 0.36487 0.94476 0.9316 2.3804 2.7474 1.041 1.084 1.178 1.1139 0.71145 0.61406 1.2562 0.9611 0.68379 0.44709 0.681 0.3825 0.78174 0.34544 0.77246 0.21355 0.46573 0.049662 0.54568-0.030278 0.54217-0.10825 0.71373-0.22462 1.9756-0.75356 0.63382-0.1731 0.56972-0.092285 1.8247-0.18202 0.55698-0.12011 1.6715-0.4848 0.56047-0.12802 0.47599-0.060434 0.46666 0.007005 0.65871 0.15611 0.62821 0.29806 0.58847 0.40022 0.53587 0.46926 0.46601 0.50982 0.37355 0.52459 0.5891 1.0925 0.26747 0.32006 0.29644 0.23637 0.29694 0.17906 1.8872 0.85463 0.50782 0.2013 0.5428 0.13945 0.56875 0.040469 0.66556-0.097375 1.9114-0.57209 0.39973-0.060663 0.2997 0.004009 0.14632 0.077015-0.31902 0.23148-0.31104 0.57417-0.29485 0.84321-0.19801 0.81645-0.14181 0.90127-0.054061 1.8109 0.23192 1.6956 0.32909 1.324 1.2856 3.8947 0.57018 1.9215 0.14931 0.69904 0.13623 1.0471-0.003968 1.0961-0.033406 0.29546-0.16057 0.79987-0.18642 0.62375-0.62032 1.5595-1.5994 3.0997-1.5857 3.2255-0.98508 2.1632-0.6651 1.7399-0.52718 1.6991-0.3763 1.3732-0.31328 1.5966-0.053361 0.46692-0.048728 1.1686 0.051192 2.5413 0.16371 2.8575 0.058995 0.72004 0.25551 1.9096 0.083211 1.1654-0.017618 0.80071-0.14834 1.0393-0.27366 1.0623-0.53008 1.4624-0.69614 1.5807-0.77956 1.5991-1.1115 2.1021-0.78282 1.3103-0.83688 1.2339-3.3975 4.5336-1.1204 1.3073-1.4208 1.5377-0.2566 0.2517-1.1328 0.91615-1.1444 0.67602-1.7116 0.90543-2.7572 1.5419-1.642 0.79908-1.3137 0.4785-0.63322 0.16741-3.2076 0.69559-4.0981 1.1578-0.79558 0.26901-0.75189 0.34986-0.6271 0.40577-0.53304 0.43138-0.55454 0.52649-0.62321 0.67217-0.78033 0.9684-0.64285 1.02-0.48708 0.97921-0.33954 0.8104-0.49857 1.474-1.0371 4.1311-0.50873 1.6406-0.6634 1.5537-0.48766 0.84361-0.56288 0.77678-0.46914 0.53423-1.1826 1.0834-1.2926 0.88427-1.3409 0.64174-0.69122 0.21761-0.66833 0.12598-1.4084 0.018915-1.2182-0.15871-1.3515-0.23874-0.81546-0.089366-0.53951 0.052348-0.19674 0.19476-0.11149-0.18419-0.45453-0.35811-0.9116-0.48871-0.71993-0.29678-1.0828-0.33426-1.5207-0.24341-0.58782-0.018162-1.1315 0.064653-3.2197 0.45002-1.1879 0.087529-1.4592 0.004934-2.9139-0.089204-0.73361 0.008691-1.2076 0.095909-1.1758 0.19909-1.1334 0.25554-1.1477 0.32667-1.2092 0.40681-1.8672 0.71544-6.6769 2.7956-2.3749 0.87676-2.5538 0.80345-2.1226 0.52208-2.6601 0.52044-1.8723 0.19036-1.8 0.2381-1.3261 0.31434-2.1838 0.62567-0.87366 0.21422-1.1392 0.18798-0.63432 0.044717-1.2139-0.015297-1.4081-0.13565-2.5728-0.42024-3.3413-0.69979-0.91111-0.23368-0.84204-0.26928-1.8289-0.75518-1.9944-0.72734-1.2502-0.39819-1.2037-0.27641-1.1816-0.069678-0.88651 0.13837-0.71986 0.23126-0.99036 0.522-0.57219 0.49984-0.49895 0.63538-0.4388 0.83616-0.34459 0.96244-0.36183 1.4858-0.18268 1.0201-0.81797 6.1874-0.47556 2.8257-0.22129 0.97126-0.43008 1.5855-1.948 6.4897-0.16137 0.6243-0.33594 1.7121-0.17914 1.7223-0.011362 1.7032 0.10627 1.2761 0.40674 2.994 0.084882 0.94368 0.013645 0.91928-0.17664 1.3088-0.51054 1.2965-0.80489 1.231-0.82134 0.9499-0.94647 0.91502-1.3272 1.0986-1.6741 1.2004-4.6857 2.9796-1.0908 0.74075-0.9339 0.69479-0.96236 0.80521-0.81597 0.78615-0.51319 0.56302-0.75799 0.95112-1.6353 2.2185-0.89275 1.0802-0.38429 0.41771-0.96809 0.93324-1.2041 0.95025-0.87673 0.54353-0.97082 0.45017-0.28142 0.078338-0.13808-0.013539-0.11415 0.052919-0.17906-0.015255-0.5629-0.1769-0.95843-0.42966-1.1499-0.58353-1.127-0.6338-0.67972-0.43306-0.95368-0.70477-0.5506-0.46282-1.1703-1.1187-0.85641-0.9322-0.67809-0.80745-1.0627-1.3865-1.9607-2.8011-0.81713-1.0265-0.58397-0.62749-0.51917-0.49156-0.51605-0.43284-0.63096-0.45921-1.3232-0.79423-2.2843-1.1416-1.1574-0.5026-3.3657-1.3265-1.3452-0.56608-1.8517-0.8614-1.5233-0.77836-1.7591-0.97331-2.5858-1.5557-3.186-2.0664-1.7826-1.2515-1.005-0.8566-0.88424-0.92618-0.73786-0.99379-0.52142-0.93706-1.185-2.8124-0.39161-0.83094-0.46047-0.77754-0.59635-0.74986-0.59047-0.57321-0.92054-0.68927-1.3428-0.70256-0.34681-0.13365-0.93272-0.25774-0.95597-0.11402-1.3879 0.083002-0.35462 0.05436-1.1 0.23296-3.5911 0.86149-1.2173 0.17712-0.88944 0.002119-0.80298-0.082406-0.71693-0.1347-0.5662-0.23148-0.29769-0.26811-0.22017-0.45135-0.074138-0.63946 0.04527-0.35011 0.20109-0.68229 0.9415-2.3317 0.21187-0.79112 0.092507-0.63952-0.005038-0.53217-0.071012-0.40085-0.18393-0.51596-0.35002-0.6471-0.46604-0.63672-0.54467-0.58916-0.60254-0.53766-0.50122-0.36499-1.0667-0.57751-1.1906-0.47999-1.0893-0.36535-2.5124-0.73611-2.2552-0.77907-1.0117-0.41376-0.93281-0.49158-0.6246-0.44292-0.39121-0.36141-0.60198-0.7878-0.35117-0.6556-0.26831-0.61753-0.32645-0.9004-1.1261-3.773-0.56866-1.5572-0.34079-0.73009-0.42247-0.73033-0.95086-1.2047-2.4191-2.5321-0.85648-1.0595-0.49705-0.68902-0.8012-1.1907-0.57947-0.96313-2.0506-3.7259-0.57631-1.1821-1.1111-2.4676-1.7253-4.3804-0.66677-2.3004-1.1116-4.7619-0.37798-1.2829-0.48821-1.2621-0.6881-1.3443-0.5026-0.83502-1.25-1.8549-2.2336-3.1518-0.79094-1.2009-0.61923-1.0498-0.4398-0.87639-0.25914-0.63385-0.19348-0.62193-0.1107-0.55646-0.035007-0.8383 0.038854-0.39476 0.13198-0.60641 0.22164-0.59575 0.52824-1.0102 1.6476-2.6026 0.89357-1.5733 0.38895-0.56897 0.595-0.63778 0.71069-0.58595 3.3009-2.3639 4.1758-3.106 2.4726-1.9629 1.4236-1.2272 1.435-1.3541 0.92565-0.97055 0.71864-0.82676 1.0977-1.4198 0.88524-1.3369 0.93705-1.6696 0.57808-1.2517 0.33719-0.89466 0.30885-1.0739 0.16794-0.90629 0.076654-0.94506-0.024167-1.3823-0.15813-2.083 0.012269-1.1903 0.16069-1.0169 0.34601-1.1464 0.4792-1.1125 0.29838-0.57888 0.56449-0.9712 0.82282-1.2456 0.82953-1.1385 2.4218-3.0768 0.43756-0.63228 0.19976-0.39285 0.060546-0.26407-0.089673-0.3035-0.26727-0.184-0.23055-0.062544-0.39283-0.034734-0.88177 0.060523-2.3162 0.33208-1.3206 0.14028-4.6446 0.38569-7.8411 0.4894-9.0837 0.73075-1.9219 0.11325-1.0622 0.023882-1.3549-0.055899-1.2688-0.12134-7.3343-0.99683-1.3084-0.23804-1.7873-0.41763-1.8433-0.51165-1.5731-0.49199-1.2886-0.46736-1.2065-0.49799-1.4088-0.65956-1.2221-0.64318-1.3331-0.78332-1.633-1.0999-1.3888-1.1102-0.93039-0.90086-0.7261-0.93103-0.27246-0.61456 0.021996-0.4274 0.308-0.18527 0.36365-0.11998 0.58701-0.38498 0.77264-0.5971 0.65077-0.56044 0.7707-0.73328 0.7649-0.81726 0.54454-0.652 0.64215-0.8693 0.59713-0.92941 0.64115-1.1594 0.42584-0.88696 0.53828-1.2968 0.62034-1.8514 0.29535-1.0995 0.27704-1.2501 0.32502-1.9905 0.55776-5.1754 0.19663-1.3642 0.16589-0.90544 0.32713-1.3862 0.57539-1.7349 0.75793-1.6753 1.1348-2.0849 3.5362-5.9747 1.2041-1.9467 1.0796-1.5673 0.46389-0.59877 0.58874-0.69128 1.1091-1.1118 0.76042-0.62509 0.84581-0.56252 0.99927-0.47663 1.1421-0.28495 0.92456-0.028443 0.88212 0.11136 0.64494 0.15015 0.83852 0.26646 0.81845 0.32382 1.8999 0.93796 2.1681 1.306 4.8651 3.2457 1.6567 1.0016 1.552 0.84774 0.96615 0.48132 1.4223 0.6506 1.4267 0.5814 1.4088 0.48126 1.4668 0.38172 1.3449 0.23345 1.562 0.12031 0.86994-0.0226 0.79284-0.091004 0.55603-0.11157 0.83566-0.25809 0.87274-0.40981 1.0017-0.65852 0.83232-0.69775 0.83586-0.83407 0.46341-0.5189 0.68703-0.842 0.66236-0.89045 1.0032-1.4907 1.0696-1.7684 1.1586-2.1195 1.8047-3.589 0.80113-1.4071 1.1594-1.7407 1.6458-2.1574 2.4352-2.8326 2.4786-2.6974 4.3124-4.3735 4.8848-4.7938 1.4586-1.5571 0.97084-1.1224 1.5831-1.9776 3.4298-4.6008 1.6808-2.1257 0.93575-0.98423 0.47833-0.34646 0.11991-0.002527 0.14462 1.5169 0.24124 1.5608 0.40181 1.9207 0.30496 1.1747 0.37166 1.2274 0.49367 1.3917 0.47498 1.1491 0.68694 1.4091 0.42874 0.75448 0.8256 1.235 0.52289 0.6542 0.8288 0.85841 0.3275 0.28309 0.69381 0.50123 0.36344 0.21125 0.9008 0.38086 0.58546 0.15367 0.51123 0.083448 0.63314 0.044762 0.96242-0.047429 1.1889-0.23274 1.3516-0.4578 1.504-0.69097 1.1086-0.5991 1.2557-0.74375 4.0264-2.5368 1.1801-0.67407 0.96753-0.50078 1.0308-0.45896 1.0556-0.34021 0.95568-0.16791 0.93026-0.043017 0.83558 0.054246 1.0431 0.16994 1.0201 0.2432 2.519 0.70637 0.92788 0.20221 0.77754 0.10592 2.4542 0.19049 0.67977 0.086096 0.88788 0.16948 1.5103 0.43352 3.7157 1.3304 1.5951 0.50186 1.9274 0.46578 0.79291 0.13011 0.94192 0.091525 1.1151 0.010242 1.9542-0.15849 1.6146-0.22132 4.5244-0.74784 1.3999-0.17316 1.1057-0.095017 1.145-0.035012 0.98837 0.037405 3.3686 0.32356 1.3569 0.055599 1.566-0.087355 3.3792-0.4958 0.72442-0.047591 0.93794 0.04628 0.94079 0.21668 0.54685 0.20202 1.2155 0.59242 1.0153 0.59414 4.0633 2.5948 1.537 0.82764 1.5349 0.59284 1.6068 0.22886 0.9381-0.11316 0.64762-0.1767 0.88665-0.34957 0.59285-0.29045 0.87529-0.49534 1.0727-0.71004 0.91343-0.72384 1.3049-1.1587 1.2325-1.1685 0.85984-0.8574 0.8583-0.94834 1.0093-1.2514 0.68503-0.9417 0.66812-1.0024 0.85489-1.3929 1.9294-3.3893 0.70414-1.1603 0.75269-1.113 0.66486-0.85567 0.8545-0.94597 1.7093-1.7279 0.94968-0.86652 0.72092-0.5725 0.40004-0.26334 0.35704-0.17181 0.44057-0.082095 0.26666 0.039334 0.24197 0.094526 0.52027 0.3706 0.49053 0.57103 0.29574 0.46277 0.37052 0.68609 0.89016 1.8242 0.52233 0.92817 0.35965 0.51649 0.36441 0.42967 0.69398 0.62634 1.1425 0.72466 0.67659 0.33334 0.54895 0.21652 0.64754 0.2018 0.87728 0.21035 2.0556 0.36409 0.73975 0.1743 0.48626 0.17768 0.64019 0.44552 0.17041 0.22767 0.17956 0.38179 0.12664 0.52914 0.048142 0.73975-0.050766 0.95747-0.25656 2.2311-0.16974 2.1135-0.1215 1.0191-0.19799 1.0021-0.22293 0.84711-1.3106 4.0112-0.30502 1.0338-0.28792 1.2294-0.17287 1.2193-0.033419 0.928 0.073832 0.91473 0.15262 0.7433 0.25053 0.79751 0.39772 0.95071 0.65209 1.2529 0.5522 0.92752 2.7442 4.2215 0.89598 1.4887 0.49098 0.92769 0.32904 0.73605 0.18774 0.51876 0.18498 0.70792 0.094566 0.69594 0.021153 0.60812-0.027297 0.65396-0.15175 1.2422-0.31494 1.6282-1.1085 4.6541-0.18378 0.94463-0.11002 0.84081-0.026344 0.66707 0.04844 0.58955 0.10644 0.44514 0.24514 0.49745 0.36178 0.38223 0.4273 0.2812 0.64135 0.28481 0.55078 0.17753 0.9733 0.24006 4.3565 0.89981 2.0675 0.56883 1.3681 0.47443 1.2991 0.53039 1.3805 0.65019 1.9946 1.0942 1.7384 1.0844 1.2318 0.85261 1.5092 1.1776 1.4713 1.3073 1.8766 1.8781 1.1262 1.2348 1.8128 2.1884 1.0161 1.36 0.94367 1.3509 0.49691 0.76648 0.15192 0.30964" stroke="#bdc660"/>
    </defs>
    <g clip-path="url(#p81cf6f6b3f)">
     <use y="280.512" fill="#bdc660" stroke="#bdc660" xlink:href="#m597022e400"/>
    </g>
   </g>
  </g>
 </g>
 <defs>
  <clipPath id="p81cf6f6b3f">
   <rect x="7.2" y="7.2" width="309.28" height="266.11"/>
  </clipPath>
 </defs>
</svg>
