<?xml version="1.0" encoding="UTF-8"?>
<!DOCTYPE svg  PUBLIC '-//W3C//DTD SVG 1.1//EN'  'http://www.w3.org/Graphics/SVG/1.1/DTD/svg11.dtd'>
<svg width="259.98pt" height="280.51pt" version="1.1" viewBox="0 0 259.98 280.51" xmlns="http://www.w3.org/2000/svg" xmlns:xlink="http://www.w3.org/1999/xlink">
 <metadata>
  <rdf:RDF xmlns:cc="http://creativecommons.org/ns#" xmlns:dc="http://purl.org/dc/elements/1.1/" xmlns:rdf="http://www.w3.org/1999/02/22-rdf-syntax-ns#">
   <cc:Work>
    <dc:type rdf:resource="http://purl.org/dc/dcmitype/StillImage"/>
    <dc:date>2024-07-04T12:07:56.438984</dc:date>
    <dc:format>image/svg+xml</dc:format>
    <dc:creator>
     <cc:Agent>
      <dc:title>Matplotlib v3.7.1, https://matplotlib.org/</dc:title>
     </cc:Agent>
    </dc:creator>
   </cc:Work>
  </rdf:RDF>
 </metadata>
 <defs>
  <style type="text/css">*{stroke-linejoin: round; stroke-linecap: butt}</style>
 </defs>
 <g id="figure_1">
  <g id="patch_1">
   <path d="m0 280.51h259.98v-280.51h-259.98v280.51z" fill="none"/>
  </g>
  <g id="axes_1">
   <g id="PatchCollection_1">
    <defs>
     <path id="md9c0e6c8f2" d="m177.87-224.59 13.013 13.837 7.3372 7.5561 4.8841 4.7505 2.4665 2.2547 2.5054 2.1544 1.8365 1.4757 2.3982 1.7924 2.5593 1.7811 2.5906 1.7057 5.2116 3.2533 10.036 6.1106 2.2673 1.4564 2.0779 1.4206 1.815 1.3761 1.4557 1.3197 0.9709 1.2475 0.32501 1.1553-0.30902 0.87014-0.72849 0.83029-1.0164 0.82799-1.9909 1.4629-0.86425 0.69798-1.0558 0.99717-0.89823 1.0665-0.75385 1.2226-0.69559 1.8637-0.44315 2.0149-0.92015 4.8847-0.31756 2.2213-0.55931 4.4278-0.46856 4.832-0.33285 2.6489-0.53473 2.5931-0.58981 1.9152-1.2043 3.5683-0.49193 1.6987-0.55278 2.3268-0.45122 2.4018-0.31898 2.1212-0.25564 2.1522-0.21965 2.5825-0.12677 2.6541-0.028157 2.6144 0.039143 1.9514 0.41044 7.6925 0.029928 2.4762-0.14062 2.408-0.39439 2.3196-0.58316 1.8879-0.32954 0.83611-0.85179 1.8444-1.1143 2.0394-1.4248 2.2825-2.7153 4.093-0.88656 1.1938-1.4252 1.6497-1.8697 1.7783-2.9545 2.3869-5.0055 3.7598-7.1712 5.0782-2.3306 1.7864-1.7288 1.4966-1.2539 1.2068-1.1959 1.2634-1.8763 2.2441-1.3889 1.8733-1.0301 1.5108-1.3596 2.1495-1.5736 2.715-1.1271 2.1919-2.5856 5.7238-1.9166 4.0512-1.681 3.2796-1.2961 2.2794-0.73744 1.1099-1.4 1.7655-1.2918 1.3552-0.83392 0.77146-1.1559 0.95546-1.2262 0.88227-1.0867 0.67694-1.2764 0.68109-1.5818 0.70603-1.6548 0.61321-1.755 0.54182-2.4311 0.61023-2.1082 0.43859-4.5668 0.75364-4.367 0.49586-6.4508 0.52808-2.9401 0.1641-5.9147 0.1581-2.2591 0.12375-1.5855 0.20907-0.48245 0.16214 0.06127-0.603-0.097958-1.6131-0.29929-2.1165-0.53402-2.336-0.80763-2.3536-1.1307-2.2199-1.1344-1.5653-1.3319-1.3991-0.98627-0.84222-0.80226-0.5951-0.92001-0.60202-1.2397-0.70091-1.6781-0.79562-5.8147-2.3119-2.6529-1.1893-1.9726-1.0166-1.8641-1.0946-1.7226-1.1742-1.5412-1.2596-1.3111-1.3548-1.0191-1.3971-2.3122-3.9906-0.77938-0.98432-0.88777-0.68887-1.0761-0.48914-2.311-0.81585-3.8282-1.664-3.9989-1.3387-1.8199-0.50023-6.83-1.3214-4.0327-0.65386-5.6799-0.68977-2.0061-0.12981-1.6657 0.01893-4.8899 0.28821-2.5324 0.043272-5.2157-0.06041-1.0103 0.048814-2.4348 0.25461-2.4213 0.4122-2.3401 0.52017-2.1621 0.5728-1.8447 0.5576-1.327 0.45337-0.52279 0.2318-0.47361-0.40921-0.46728-0.29196-6.3061-3.6775-3.1539-2.0006-2.0753-1.4914-1.8817-1.5719-0.64337-0.61524-0.95159-1.0268-0.6919-0.88619-0.59184-0.929-0.39913-0.79188-0.30525-0.76626-0.25272-0.83292-0.20556-0.97291-0.16213-1.5148 0.015093-1.8889 0.14147-1.4169 0.48067-2.8396 0.62337-2.7153 0.78251-2.8475 1.1417-3.6297 0.81737-2.1638 0.84394-1.8104 1.0571-1.8313 1.0759-1.565 4.727-6.0288 2.7213-3.1904 3.8817-4.0839 2.0334-2.2255 1.6652-1.9594 1.0155-1.3566 1.0131-1.6441 0.46534-0.95728 0.43374-1.1381 0.45238-1.7812 0.26016-2.1101 0.044989-1.3842-0.070486-1.8407-0.1806-1.6492-0.19513-1.1688-0.2763-1.2576-0.46421-1.6315-0.44826-1.2554-0.49632-1.1416-1.0106-1.806-0.55084-0.8088-1.5137-1.8977-1.4721-1.6188-1.5974-1.6544-3.4959-3.3899-1.4623-1.5034-0.44173-0.50159-1.1968-1.5835-0.43964-0.69925-0.54991-0.97985-0.57106-1.2095-0.66828-1.9165-0.84039-3.1933-1.0116-4.2819-0.32694-1.8569-0.20579-1.9451-0.048065-1.751 0.0859-4.9722 0.15662-3.1228 0.57957-8.6571 0.24812-6.9481 0.16065-2.9174 0.19676-2.4157 0.6563-6.3599 0.18487-3.3994-0.067024-3.1459-0.44957-7.0238-0.01604-1.5464 0.051281-0.60875 4.8618-0.56442 3.2971-0.45641 7.5245-1.319 2.2965-0.32711 5.4811-0.6407 4.3788-0.31677 1.0417-0.12908 0.94326-0.23828 0.80978-0.40948 0.65722-0.64453 0.50979-0.83639 0.38363-0.95474 0.29953-1.0549 0.23877-1.1276 0.35845-2.3973 0.23633-2.372 0.096835-2.4329-0.031104-1.2638-0.19982-2.5637-0.32637-2.613-0.42039-2.6616-0.51398-2.6903-0.62926-2.6466-0.36344-1.2564-1.1732-3.5487 0.15619 0.0217 0.55406-0.14678 8.7552-2.7746 3.2566-0.95614 3.4391-0.87003 2.5931-0.52699 3.0741-0.45303 3.3431-0.25807 2.4977-0.018121 2.9055 0.18211 2.2813 0.30845 1.4156 0.27154 2.484 0.66803 0.80665 0.28483 1.3956 0.59295 1.171 0.61404 1.6001 1.0824 1.3551 1.2999 1.1572 1.686 0.64118 1.3105 0.74756 2.0367 0.46217 1.6621 0.35956 1.6134 0.47546 2.7616 1.2204 8.8729 0.5027 2.7909 0.37538 1.693 6.5257 24.803 1.3729 5.0878 1.0584 3.7058 0.54335 1.7203 0.58288 1.6301 0.74656 1.7373 0.50716 0.96617 0.75576 1.1637 0.75579 0.88596 1.1801 0.96534 1.3047 0.59639 0.76269 0.14812 0.89457 0.026066 0.83609-0.08864 1.3153-0.29055 1.7465-0.53041 3.3534-1.1189 6.8157-1.9262 9.8757-2.9363 4.9147-1.608 3.5966-1.3784 1.7389-0.77446 1.6443-0.83717 5.8061-3.5062 1.9044-1.2686 1.5154-1.1007 2.0922-1.6507 1.0764-0.9312 1.065-1.0009 1.2634-1.3147 0.84728-0.97855 1.2399-1.6551 0.77974-1.2899 0.47271-0.96675 0.41918-1.0731 0.49709-1.8683 0.28837-1.8175 0.31455-3.5274 0.16065-0.82757 0.20523-0.27733" stroke="#bdc660"/>
    </defs>
    <g clip-path="url(#p464823b83f)">
     <use y="280.512" fill="#bdc660" stroke="#bdc660" xlink:href="#md9c0e6c8f2"/>
    </g>
   </g>
  </g>
 </g>
 <defs>
  <clipPath id="p464823b83f">
   <rect x="7.2" y="7.2" width="245.58" height="266.11"/>
  </clipPath>
 </defs>
</svg>
