<?xml version="1.0" encoding="UTF-8"?>
<!DOCTYPE svg  PUBLIC '-//W3C//DTD SVG 1.1//EN'  'http://www.w3.org/Graphics/SVG/1.1/DTD/svg11.dtd'>
<svg width="371.52pt" height="246.69pt" version="1.1" viewBox="0 0 371.52 246.69" xmlns="http://www.w3.org/2000/svg" xmlns:xlink="http://www.w3.org/1999/xlink">
 <metadata>
  <rdf:RDF xmlns:cc="http://creativecommons.org/ns#" xmlns:dc="http://purl.org/dc/elements/1.1/" xmlns:rdf="http://www.w3.org/1999/02/22-rdf-syntax-ns#">
   <cc:Work>
    <dc:type rdf:resource="http://purl.org/dc/dcmitype/StillImage"/>
    <dc:date>2024-07-04T12:07:39.762983</dc:date>
    <dc:format>image/svg+xml</dc:format>
    <dc:creator>
     <cc:Agent>
      <dc:title>Matplotlib v3.7.1, https://matplotlib.org/</dc:title>
     </cc:Agent>
    </dc:creator>
   </cc:Work>
  </rdf:RDF>
 </metadata>
 <defs>
  <style type="text/css">*{stroke-linejoin: round; stroke-linecap: butt}</style>
 </defs>
 <g id="figure_1">
  <g id="patch_1">
   <path d="m0 246.69h371.52v-246.69h-371.52v246.69z" fill="none"/>
  </g>
  <g id="axes_1">
   <g id="PatchCollection_1">
    <defs>
     <path id="m1180a402cd" d="m287.86-42.152-1.4714 0.5532-1.6835 1.5151-2.4215 2.6113-6.08 7.24-3.6215 3.9607-3.4434 3.0577-1.8297 1.3231-3.0198 1.6986-2.8492 1.0459-2.983 0.63915-5.5146 0.24524-5.4111-0.81098-2.9793-0.75047-6.0345-1.9037-3.3719-1.2264-5.5919-2.2135-6.7118-2.8676-31.878-14.41-8.442-3.5194-8.6464-3.213-5.769-1.7522-4.0178-0.94156-3.0789-0.52977-4.9881-0.43574-2.3968-0.013812-4.6954 0.30689-4.6195 0.68973-3.262 0.70533-12.834 3.4744-4.8643 1.1657-13.989 2.5117-4.2736 1.1805-6.7268 2.1903-3.5325 0.70397-2.7661 0.30471-2.7862 0.12605-3.792-0.08274-2.1995-0.16845-2.9272-0.35791-2.5685-0.50359-5.9358-1.9477-1.7333-0.33562-2.3905 0.16515-1.4543 0.51916-1.6115 0.95519-1.4247 1.3307-1.1213 1.6396-0.93424 1.919-2.1708 5.5201-1.2777 2.6023-1.3456 2.0031-1.7156 1.8185-2.9877 2.0523-1.9775 0.94375-2.014 0.75883-3.5638 1.0133-3.3704 0.7087-3.6856 0.59036-5.1158 0.53605-3.1573 0.052423-1.3164-0.15987-0.58647-0.26387-0.89364-4.4037-0.56102-2.1441-1.7329-5.2078-0.26997-1.6849 0.023357-1.1693 0.20177-1.1403 0.4256-1.2242 0.61864-1.1287 0.67325-0.86903 0.79161-0.75739 1.2237-0.81414 1.3619-0.5654 1.5705-0.33832 4.0294-0.4253 1.8524-0.39374 2.1101-0.86209 0.92542-0.59339 0.81394-0.70326 0.75357-0.92223 0.54917-1.0552 0.3987-1.7376 0.027467-1.8482-0.23341-1.9891-0.85477-3.7123-1.1757-3.7086-1.958-4.9145-2.069-4.0943-1.7369-2.8082-1.6758-2.3566-5.4267-6.9495-1.4514-2.0521-1.1263-1.9893-0.61976-1.9203-0.028111-1.6303 0.33571-1.3218 0.96605-1.7243 1.1433-1.2814 1.4236-1.1877 2.5188-1.5661 3.3472-1.5529 9.3039-3.6673 6.9357-2.8844 3.7968-1.7471 0.46149-0.3993 0.42588 0.42391 1.0647 0.2339 1.5219 0.14803 8.3264 0.22173 6.7947 0.36704 3.1482 0.01051 3.1759-0.23299 3.1596-0.51576 2.2841-0.57293 5.1135-1.7434 9.1926-3.9442 15.223-7.0104 4.7874-2.6619 1.7737-1.2314 1.5247-1.315 1.2083-1.4293 0.96364-1.8671 0.31768-1.0041 0.27064-2.0378-0.094194-2.06-0.33485-1.9845-1.0911-4.0461-0.051483-1.4597 0.3125-1.0804 0.57642-0.97968 0.76429-0.84426 2.8815-2.1308 0.77571-0.87312 0.4532-0.93326 1.0269-3.5474 0.90811-1.6782 1.9507-2.7804 3.6477-4.7716 1.1327-1.9507 1.1104-2.5656 2.5937-7.5786 0.96108-1.7842 1.0976-1.0256 0.81915 0.045382 0.33341-0.3117 0.91385-0.24236 1.5924-0.11188 2.737 0.14572 4.5426 0.70814 4.7817 1.2954 3.4386 1.3103 3.5933 1.7005 4.087 2.2579 7.6079 4.5148 3.5631 1.9808 4.1979 2.0026 4.7541 1.6209 3.24 0.64606 3.2951 0.36047 4.7092 0.18114 9.402-0.018249 4.5898 0.19192 4.4422 0.58958 2.7381 0.66134 3.9142 1.3132 3.7097 1.6634 3.4252 1.9946 3.043 2.3277 2.5402 2.6835 1.9829 3.1721 1.3145 3.3206 0.58369 2.0232 0.71512 3.5941 1.0881 6.9986 0.86456 3.1064 1.4245 2.6149 1.6912 1.6192 2.2973 1.2616 2.6076 0.79405 3.7714 0.4505 3.5855-0.082545 2.6416-0.31132 4.9572-1.1174 3.6958-1.348 2.0725-1.0132 3.0981-1.7723 3.0045-1.9725 2.8313-2.1058 1.4711-1.2239 1.9004-1.8544 1.6414-2.0217 1.4877-2.5802 0.70315-1.9891 0.33953-2.0919-0.15429-2.894-0.73822-3.0322-0.80188-2.2287-1.6821-3.8788-4.6193-9.1277-3.8947-6.8735-6.2752-10.541-0.42057-0.95322 42.355-54.517 0.90342 0.29024 1.2333 1.4958 1.0994 1.9581 1.7459 3.9837 1.0082 2.7441 1.9782 6.4803 0.99453 3.9751 0.72333 3.6369 0.63006 4.7926 0.78531 11.34 0.52214 3.0807 0.87395 2.8544 0.79739 1.7048 1.6862 2.5934 2.05 2.4073 2.8112 2.7511 8.1 7.2108 2.2322 2.3423 1.8417 2.4492 1.3651 2.8087 0.57822 2.8374 0.014147 2.9986-0.40079 3.107-0.85281 3.8061-2.7649 9.8683-1.5356 6.1803-0.70888 2.1868-2.3174 5.6166-1.6668 3.4555-3.7531 7.0596-6.5814 11.376-7.4878 12.348-10.948 17.571-8.6889 13.422-3.8081 5.4331-2.3252 2.9223-2.2407 2.3483-3.7318 2.9087-0.41819 0.43008" stroke="#bdc660"/>
    </defs>
    <g clip-path="url(#pe69e1bf15b)">
     <use y="246.685315" fill="#bdc660" stroke="#bdc660" xlink:href="#m1180a402cd"/>
    </g>
   </g>
  </g>
 </g>
 <defs>
  <clipPath id="pe69e1bf15b">
   <rect x="7.2" y="7.2" width="357.12" height="232.29"/>
  </clipPath>
 </defs>
</svg>
