<?xml version="1.0" encoding="UTF-8"?>
<!DOCTYPE svg  PUBLIC '-//W3C//DTD SVG 1.1//EN'  'http://www.w3.org/Graphics/SVG/1.1/DTD/svg11.dtd'>
<svg width="292.46pt" height="280.51pt" version="1.1" viewBox="0 0 292.46 280.51" xmlns="http://www.w3.org/2000/svg" xmlns:xlink="http://www.w3.org/1999/xlink">
 <metadata>
  <rdf:RDF xmlns:cc="http://creativecommons.org/ns#" xmlns:dc="http://purl.org/dc/elements/1.1/" xmlns:rdf="http://www.w3.org/1999/02/22-rdf-syntax-ns#">
   <cc:Work>
    <dc:type rdf:resource="http://purl.org/dc/dcmitype/StillImage"/>
    <dc:date>2024-07-04T12:07:44.224535</dc:date>
    <dc:format>image/svg+xml</dc:format>
    <dc:creator>
     <cc:Agent>
      <dc:title>Matplotlib v3.7.1, https://matplotlib.org/</dc:title>
     </cc:Agent>
    </dc:creator>
   </cc:Work>
  </rdf:RDF>
 </metadata>
 <defs>
  <style type="text/css">*{stroke-linejoin: round; stroke-linecap: butt}</style>
 </defs>
 <g id="figure_1">
  <g id="patch_1">
   <path d="m0 280.51h292.46v-280.51h-292.46v280.51z" fill="none"/>
  </g>
  <g id="axes_1">
   <g id="PatchCollection_1">
    <defs>
     <path id="m28ba657f28" d="m218.65-261.18 0.56873 0.29675 0.87167 0.9779 0.95945 1.4619 0.98041 1.9788 0.99813 2.2361 0.91142 1.8946 3.2526 6.3117 1.1103 2.3952 1.3388 3.3548 0.58299 1.6255 0.72428 2.5804 0.38571 2.4857 0.17398 2.5155 0.14248 4.9586 0.16995 2.3616 0.37234 2.2231 0.68769 2.0311 0.82445 1.4407 0.50084 0.6875 1.453 1.6539 3.4111 3.317 0.77725 0.82846 0.70766 0.847 0.9057 1.2846 1.6645 2.5462 0.93493 1.2023 0.77346 0.89102 1.6691 1.7299 1.3469 1.2465 2.1678 1.8624 0.98591 0.92656 4.16 4.2549 1.5795 1.4527 0.64641 0.78039 0.3098 0.65518 0.093352 0.88934-0.37023 0.99226-0.46484 0.60974-0.313 0.3127-0.70493 0.54887-2.2958 1.2613-0.74923 0.46529-0.55094 0.44872-0.43216 0.44689-0.61829 0.85217-1.117 1.906-1.7225 2.5732-0.66911 1.3272-0.40662 1.4248-0.069546 0.82146 0.054139 1.0263 0.15872 0.98966 0.61084 2.9833 0.2127 1.6651 0.081931 1.5421-0.048093 2.6483-0.55377 6.7892-0.016007 1.2636 0.072979 1.3895 0.16275 1.1769 0.33905 1.3912 0.54296 1.4922 0.90553 1.8016 0.72952 1.1446 1.0088 1.3198 1.4269 1.5493 1.5678 1.4231 1.657 1.2731 1.2492 0.83098 1.4255 0.8467 3.8776 2.0689-3.66e-4 0.38082 0.28985 1.6251 0.785 3.7317 0.71399 2.4248 0.83003 2.0984 0.89525 1.7712 0.76364 1.2483 1.2142 1.6984 2.5843 3.2845 0.66265 1.037 0.58217 1.1941 0.2973 0.87532 0.11648 0.49519 0.10371 0.99048-0.039457 0.59269-0.26561 0.96903-0.50128 0.9156-0.69982 0.83071-0.87288 0.76472-1.0457 0.72352-2.5495 1.3964-7.4719 3.665-7.1273 3.8056-3.4393 1.7271-3.9213 1.7659-4.2485 1.584-0.94423 0.47309-0.82424 0.54978-0.51221 0.45201-0.31175 0.35568-0.32 0.51131-0.22397 0.70196-0.007132 1.1356 0.20004 1.1136 0.28414 1.0523 0.36498 1.1055 0.79774 1.8893 0.40019 0.71376 0.88924 1.3115 1.4018 1.7129 4.6808 4.9899 1.3682 1.6064 1.2915 1.6312 2.9015 3.9902 0.70517 1.0435 0.8371 1.4615 0.72925 1.6 0.4104 1.2397 0.21846 1.0378 0.098558 1.7928-0.15688 1.2188-0.28995 1.1842-0.69382 2.2817-0.22173 0.89824-0.13971 0.90059-0.037438 1.0291 0.069495 1.1451 0.55795 4.2156 0.051553 1.8452-0.34459 1.6993-0.28385 0.60407-0.64544 0.9216-0.67228 0.7008-0.72 0.60908-1.3411 0.95001-1.3342 0.8444-1.2603 0.71825-1.6225 0.74654-1.2025 0.38892-1.3374 0.25094-1.1836 0.060831-1.577-0.06475-2.3804-0.27505-1.5967-0.12184-1.6738-0.008519-2.4829 0.16636-2.4362 0.3151-2.7175 0.50452-1.9725 0.49491-1.1234 0.40067-1.0408 0.4825-1.5086 0.89705-1.8724 1.3999-1.7066 1.4441-1.6576 1.5334-1.5522 1.5991-0.88547 1.024-0.62136 0.80994-1.0852 1.6905-1.0269 1.7325-0.89946 1.3742-0.98194 1.3298-1.049 1.2481-1.6119 1.5998-0.46897 0.3993-0.87508 0.65998-0.96907 0.56923-0.97772 0.40424-1.0369 0.2554-2.8864 0.34927-0.68739 0.22461-0.38196 0.2307-0.10372 0.14577-0.26114-0.39112-0.97801-2.0036-3.1354-7.1639-1.0716-2.1905-2.1782-4.0293-1.0479-1.75-1.1509-1.7629-1.3188-1.8069-0.96793-1.1769-1.0271-1.106-1.1958-1.1164-2.7797-2.3719-4.4627-3.5721-1.829-1.3415-1.7837-1.0654-1.1915-0.55626-1.6503-0.53549-4.6155-1.0453-4.2033-1.1485-1.6271-0.3655-2.4609-0.31957-5.7418-0.5171-2.363-0.35917-1.833-0.44891-5.1575-1.4583-2.0637-0.4351-2.0235-0.2205-1.4699-0.032256-1.4974 0.054065-1.6503 0.14177-3.2213 0.46825-4.3435 0.90762-6.7803 1.5931-6.0069 1.1195-4.0218 0.64139-4.7181 0.67424-8.3614 1.0482-5.0486 0.48766-5.7044 0.395-5.3794 0.21225-9.9048 0.15686-3.2682 0.15859-3.5564 0.28161-9.9348 1.0283 0.039239-0.096932-0.0595-0.57166-0.33672-0.77623-0.55508-0.86419-0.74168-0.84931-1.02-0.84603-5.3216-3.4375-1.0208-0.7579-0.9081-0.88048-0.9338-1.371-0.74426-1.6065-0.62373-1.7689-2.4615-8.4926-2.265-7.4058-0.77054-2.368-0.78092-1.9832-0.4798-1.0246-0.87111-1.6489-3.423-5.8572-2.9561-5.4521-2.7859-5.5904-1.6886-3.7946-0.7487-1.9179-0.54334-1.5868-0.52167-1.8168-0.53878-2.5101-0.15497-1.0228-0.17291-2.1188 0.020171-1.133 0.16454-1.205 0.29965-1.1689 0.40497-1.1156 1.0943-2.4391 0.30421-0.78884 0.35035-1.1443 0.17634-1.0115-0.049174-0.77888-0.2437-0.40075-0.42183-0.095275 0.44387-0.71444 0.68798-0.94506 1.0435-1.3125 2.543-2.9209 1.3906-1.709 1.1122-1.747 2.348-4.519 0.87514-1.4173 0.49394-0.66014 0.47038-0.55915 1.2922-1.3445 2.1889-2.07 1.2611-1.1109 1.0336-0.83855 1.3198-0.95592 1.5624-0.95968 2.5752-1.3014 1.5875-0.67575 1.4317-0.48829 1.7969-0.39577 1.6168-0.12381 3.0065-0.023367 1.4208-0.12062 2.0093-0.51766 0.77234-0.35902 1.4482-0.93626 1.6864-1.4779 1.7143-1.8507 8.7548-10.754 1.4231-2.1177 1.0175-2.0584 0.38562-1.0702 1.4275-4.9038 0.87303-2.0953 0.7981-1.5656 1.5149-2.6113 4.4572-7.326 2.7831-4.8295 2.0091-3.7229 1.2854-2.606 0.93558-2.117 0.69731-1.739 2.4239-6.4857 4.5637-11.697 1.3019-3.4906 0.80923-2.4462 0.51179-1.765 0.72694-2.9717 0.61532-3.3837 0.50956-4.0037 0.24686-1.2631 0.31577-1.1737 0.60653-1.6234 0.63421-1.2289 0.86172-1.2242 0.88513-0.86897 0.60219-0.34914 0.3501-0.033971 0.57534-0.03337 0.92714-0.19628 3.797-0.95319 5.4291-1.5262 5.3048-1.6035 3.0469-0.82451 1.6201-0.33939 1.9638-0.24322 1.9045 0.024507 1.4303 0.24173 1.3911 0.39335 1.5763 0.59139 1.632 0.81624 1.6058 0.97684 1.2236 0.82622 4.0724 2.896 1.5077 0.98351 0.71658 0.42542 1.5502 0.80479 1.6098 0.69147 1.6564 0.58151 2.3677 0.62788 2.6546 0.44792 1.5443 0.15609 2.437 0.13551 1.4628 0.030332 1.8857-0.062831 1.6947-0.16902 1.9207-0.35809 1.4884-0.39634 1.6295-0.52895 3.2386-1.2788 6.7952-3.027 3.2305-1.3233 2.8751-0.98614 1.9986-0.50879 1.6748-0.24916 0.8279-0.039881 1.1931 0.038103 1.2915 0.13734 3.1757 0.46209 3.6342 0.71697 1.4299 0.21228 1.9383 0.13604 1.4583-0.046794 1.816-0.31448 1.8986-0.55091 1.935-0.70771 5.0151-2.0911 1.2374-0.46367 0.78738-0.2211 0.17782 0.003916" stroke="#bdc660"/>
    </defs>
    <g clip-path="url(#p2774d46e98)">
     <use y="280.512" fill="#bdc660" stroke="#bdc660" xlink:href="#m28ba657f28"/>
    </g>
   </g>
  </g>
 </g>
 <defs>
  <clipPath id="p2774d46e98">
   <rect x="7.2" y="7.2" width="278.06" height="266.11"/>
  </clipPath>
 </defs>
</svg>
