<?xml version="1.0" encoding="UTF-8"?>
<!DOCTYPE svg  PUBLIC '-//W3C//DTD SVG 1.1//EN'  'http://www.w3.org/Graphics/SVG/1.1/DTD/svg11.dtd'>
<svg width="265.88pt" height="280.51pt" version="1.1" viewBox="0 0 265.88 280.51" xmlns="http://www.w3.org/2000/svg" xmlns:xlink="http://www.w3.org/1999/xlink">
 <metadata>
  <rdf:RDF xmlns:cc="http://creativecommons.org/ns#" xmlns:dc="http://purl.org/dc/elements/1.1/" xmlns:rdf="http://www.w3.org/1999/02/22-rdf-syntax-ns#">
   <cc:Work>
    <dc:type rdf:resource="http://purl.org/dc/dcmitype/StillImage"/>
    <dc:date>2024-07-04T12:08:06.488898</dc:date>
    <dc:format>image/svg+xml</dc:format>
    <dc:creator>
     <cc:Agent>
      <dc:title>Matplotlib v3.7.1, https://matplotlib.org/</dc:title>
     </cc:Agent>
    </dc:creator>
   </cc:Work>
  </rdf:RDF>
 </metadata>
 <defs>
  <style type="text/css">*{stroke-linejoin: round; stroke-linecap: butt}</style>
 </defs>
 <g id="figure_1">
  <g id="patch_1">
   <path d="m0 280.51h265.88v-280.51h-265.88v280.51z" fill="none"/>
  </g>
  <g id="axes_1">
   <g id="PatchCollection_1">
    <defs>
     <path id="m86cecb6c2b" d="m97.941-239.3 0.033934 0.22382 0.33244 1.0201 0.38683 1.0602 1.6354 3.9982 1.4964 3.284 3.2226 6.6479 1.5264 3.4002 1.7072 4.2193 3.2302 8.6934 1.1509 2.7947 0.5924 1.2845 0.62417 1.2159 0.5243 0.90628 1.1714 1.687 1.0884 1.1914 1.2413 0.94271 0.58813 0.29986 1.2492 0.37814 1.8297 0.19911 2.1276 0.018383 2.9183-0.11592 14.673-0.94634 5.0076-0.25644 9.3449-0.27051 3.6207-0.014533 1.7093 0.048676 2.2444 0.1552 1.8612 0.23578 2.3325 0.4536 2.2364 0.6105 2.5835 0.93442 1.1871 0.51675 2.5891 1.3215 1.9343 1.1717 1.5343 1.0387 2.0953 1.5515 2.6441 2.1145 1.9311 1.6082 5.6226 4.8276 2.8946 2.4194 1.7191 1.3652 1.9519 1.4625 1.9938 1.4023 3.1381 2.0323 2.6964 1.5855 6.4143 3.4326 1.8568 1.0446 1.926 1.2044 1.4408 1.0218 1.4255 1.1151 1.9906 1.7113 2.2526 2.1332 2.3011 2.3763 2.2789 2.5211 1.637 1.9024 5.8037 7.124 0.9942 1.1401 1.8259 1.8313 0.96238 0.81408 1.0781 0.80748 1.61 1.0436 1.3843 0.77105 1.553 0.74066 1.5206 0.57813 0.54918 0.13451 0.28147-0.023907-13.475 24.447-1.6588 3.0743-1.2136 2.4021-0.7375 1.6734-0.31917 0.86191-0.26464 0.87728-0.18885 0.88727-0.090988 0.78287-0.029716 0.75939 0.062599 1.3085 0.10096 0.61455-0.31846-0.18968-1.1977-0.40435-1.9399-0.54424-2.5651-0.61602-2.6609-0.54077-1.6036-0.27919-4.6109-0.63822-1.6844-0.17511-3.7511-0.27462-1.9801-0.066854-1.4769 0.003396-1.3566 0.070479-1.5178 0.21741-1.0254 0.31114-1.1458 0.69179-0.64974 0.66786-0.26579 0.38037-0.26187 0.50646-0.26067 0.88832-0.15249 1.1419-0.12578 1.4694 0.034411 1.3452 0.17894 1.1636 0.40028 1.4996 0.38874 1.0101 0.60508 1.1655 0.49454 0.6788 0.74549 0.7736 0.94107 0.75178 0.78375 0.50638 0.67656 0.36622 1.4337 0.5836 4.3265 1.2152 1.7592 0.683 1.7762 0.83374 0.86029 0.4669 1.1463 0.73154 0.75978 0.55951 0.87523 0.74078 0.62327 0.6308 0.90511 1.1694 0.78724 1.3211 0.75452 1.5741 0.67467 1.6858 0.67974 1.9697 0.62003 2.0454 0.98486 3.7845 0.41155 1.8092 0.62693 3.2495 0.21763 1.4292 0.26143 2.4821 0.059065 1.8922-0.057971 1.3227-0.16822 1.2921-0.30695 1.2828-0.42655 1.2574-0.93658 2.1158-1.2824 2.4007-0.83207 1.3792-1.2196 1.7943-0.95425 1.2612-1.5481 1.7979-0.9031 0.9-1.1272 0.98081-1.5779 1.1782-0.95126 0.63205-1.802 1.0563-1.0582 0.52811-0.90907 0.34281-0.883 0.22431-0.69005 0.11321-1.1872 0.10466-1.3505 0.024016-0.96916-0.051203-1.354-0.17286-1.7043-0.42298-4.2267-1.3571-1.5401-0.43044-1.4196-0.27156-1.1463-0.10544-1.9413-0.016424-1.2595 0.078596-1.2964 0.15189-1.3267 0.22196-1.3498 0.28938-1.8316 0.4896-1.8335 0.5929-2.9322 1.0994-5.3734 2.1245-2.862 1.1811-1.8831 0.86003-2.6829 1.4142-1.3251 0.77421-2.8417 1.8009-3.8369 2.6426-3.7462 2.7779-2.1454 1.7763-0.69695-0.56827-1.578-1.1512-5.563-3.8241-0.85237-0.65574-0.9554-0.81785-1.7428-1.7282-1.5407-1.7976-0.69081-0.91377-1.5177-2.2079-1.032-1.295-2.333-2.2813-3.9696-4.0627-1.652-1.5962-5.4062-4.7296-1.8521-1.5552-1.9548-1.5152-1.0316-0.71933-1.0789-0.6746-1.1117-0.6063-1.1528-0.55701-2.3585-0.99391-4.1059-1.4818-0.076045-0.10718 0.28409-0.88398 1.4234-3.4163 0.76872-2.1266 0.62318-2.232 0.36424-2.2544-0.004463-2.2168-0.22041-1.3076-0.17457-0.67073-0.38112-1.1385-0.79283-1.8376-2.9873-5.992-2.498-4.8698-1.4107-2.5901-0.73767-1.2527-1.0251-1.614-3.1094-4.636-1.8266-3.0254-0.98779-1.8226-0.89503-1.8623-0.31242-0.73534-0.72449-2.0044-0.44758-1.6441-0.17171-0.8249-0.20636-1.487-0.11429-1.9722 0.06574-3.3354 0.54763-7.6754 0.027561-1.3911-0.046734-1.202-0.093594-0.8681-0.16777-0.91044-0.26075-0.93008-0.48563-1.147-0.21213-0.37797-0.61358-0.88278-0.8766-0.96499-0.5844-0.52197-0.67764-0.51669-0.92701-0.59052-0.64217-0.34418-1.047-0.46001-3.131-0.98022-0.9013-0.3357-1.5408-0.78254-1.0888-0.68179-1.1971-0.83385-2.777-2.0413-1.1962-0.82553-1.5791-1.0104-1.3168-0.77291-2.9706-1.5622-6.3704-2.941-2.4322-1.2353-1.7861-0.99388-0.8049-0.5111-0.93245-0.68753-1.3237-1.3648-0.36604-0.56882-0.28074-0.54901-0.32292-0.81374-0.44756-1.6994-0.7946-4.8701-0.27402-1.2229-0.248-0.84829-0.34267-0.89685-0.43001-0.82402-0.74828-0.99572-0.86555-0.84236-0.87687-0.69591-2.6529-1.8985-1.0203-0.85948-0.7268-0.83415-0.42636-0.7769-0.26133-1.2436 0.015645-1.0587 0.24834-1.6672 0.88426-4.1911 0.17568-1.2324 0.065976-0.88579-0.027018-1.0593-0.16892-1.0609-0.2304-0.77858-0.43859-1.0075-0.66541-1.116-1.147-1.4736-1.341-1.3893-1.4795-1.3239-4.6096-3.712-0.84197-0.72209-2.2456-2.125-2.4403-2.6533-1.1963-1.4124-2.2102-2.7889-2.9212-4.0055-0.62088-0.90803-1.2091-1.9656-1.0354-2.0359-0.79712-2.0748-0.48109-2.074-0.08337-2.0203 0.1804-1.2506 0.34218-1.2187 0.44769-1.1056 0.56539-1.0676 0.33125-0.51377 0.38118-0.48413 0.22629-0.1909 0.013681-0.12684 0.16316-0.53894 0.44694-1.1361 0.66024-1.4536 2.4342-4.6329 3.7129-6.6934 1.0503-2.0264 0.79836-1.6811 0.6997-1.6629 0.86959-2.6746 0.97368-4.7279 0.36767-1.4458 0.52927-1.6177 0.69266-1.6158 0.60255-1.0898 0.67801-1.0464 0.78995-0.99388 0.63106-0.64044 0.56644-0.48145 0.7903-0.5281 0.74078-0.34663 0.91304-0.25883 1.2883-0.14824 1.1916 0.016434 1.232 0.13241 1.1411 0.20932 1.6841 0.4729 1.2151 0.52872 0.79985 0.48436 2.2474 1.6818 1.2808 0.81229 1.3839 0.69321 1.4367 0.52698 1.4407 0.30589 1.3951 0.019709 0.96908-0.19638 1.0216-0.37604 1.2178-0.61461 1.5253-0.94338 0.68772-0.49945 0.72572-0.67837 0.27248-0.42576 0.048664-0.61041-0.24515-0.42634-1.0441-0.91656-0.35609-0.41057-0.10825-0.41727 0.1768-0.38402 0.74948-0.33043 1.205-0.057013 1.4972 0.27783 1.0528 0.37916 1.71 0.79777 1.799 1.0236 1.6792 1.1126 1.6766 1.2083 1.1438 0.86489 0.99984 0.82375 0.99088 0.89177 3.6651 3.648 1.3193 1.2198 1.4398 1.2064 1.6527 1.2241 0.9372 0.63007 2.145 1.3252 5.3097 3.1012 3.0791 1.7171 1.0309 0.4661" stroke="#bdc660"/>
    </defs>
    <g clip-path="url(#p0f527ffa3f)">
     <use y="280.512" fill="#bdc660" stroke="#bdc660" xlink:href="#m86cecb6c2b"/>
    </g>
   </g>
  </g>
 </g>
 <defs>
  <clipPath id="p0f527ffa3f">
   <rect x="7.2" y="7.2" width="251.48" height="266.11"/>
  </clipPath>
 </defs>
</svg>
