<?xml version="1.0" encoding="UTF-8"?>
<!DOCTYPE svg  PUBLIC '-//W3C//DTD SVG 1.1//EN'  'http://www.w3.org/Graphics/SVG/1.1/DTD/svg11.dtd'>
<svg width="291.06pt" height="280.51pt" version="1.1" viewBox="0 0 291.06 280.51" xmlns="http://www.w3.org/2000/svg" xmlns:xlink="http://www.w3.org/1999/xlink">
 <metadata>
  <rdf:RDF xmlns:cc="http://creativecommons.org/ns#" xmlns:dc="http://purl.org/dc/elements/1.1/" xmlns:rdf="http://www.w3.org/1999/02/22-rdf-syntax-ns#">
   <cc:Work>
    <dc:type rdf:resource="http://purl.org/dc/dcmitype/StillImage"/>
    <dc:date>2024-07-04T12:07:43.660813</dc:date>
    <dc:format>image/svg+xml</dc:format>
    <dc:creator>
     <cc:Agent>
      <dc:title>Matplotlib v3.7.1, https://matplotlib.org/</dc:title>
     </cc:Agent>
    </dc:creator>
   </cc:Work>
  </rdf:RDF>
 </metadata>
 <defs>
  <style type="text/css">*{stroke-linejoin: round; stroke-linecap: butt}</style>
 </defs>
 <g id="figure_1">
  <g id="patch_1">
   <path d="m-0 280.51h291.06v-280.51h-291.06v280.51z" fill="none"/>
  </g>
  <g id="axes_1">
   <g id="PatchCollection_1">
    <defs>
     <path id="m297e10d271" d="m268.67-209.15-4.2667 5.4953-1.5773 2.2046-2.6642 3.9243-0.89358 1.2264-1.6745 2.1359-3.9112 4.6871-0.87836 1.229-0.75648 1.2747-0.62685 1.3211-0.49678 1.4033-0.27274 1.1049-0.1913 1.1984-0.1059 1.2461 0.013878 1.5732 0.20852 2.0671 0.24894 1.5594 0.57857 2.9939 0.48289 2.1343 0.60878 2.1705 0.54188 1.4947 0.38104 0.76219 0.6505 0.87278 0.77939 0.73504 0.84208 0.59716 1.8895 1.1165 0.85114 0.62921 1.9691 1.684 1.55 1.1684 2.0664 1.3212 4.9972 3.0268 0.73156 0.58408 0.63034 0.61933 0.43483 0.51724 0.31342 0.46163 0.14543 0.30802 0.008539 0.20651-0.18285 0.15821-1.5044 0.69224-2.7481 1.1429-3.6864 1.453-1.3262 0.61527-0.998 0.62053-0.56407 0.4706-0.45301 0.50772-0.38277 0.68321-0.13301 0.52372 0.011138 0.64598 0.24556 0.76088 0.44626 0.78821 0.57508 0.81308 2.1502 2.7535 0.664 0.93374 0.68818 1.1127 0.8198 1.6223 0.77582 1.9472 0.46584 1.4694 0.33868 1.4709 0.092484 0.78814-0.010883 0.7323-0.15798 0.68848-0.21759 0.41811-0.29858 0.36541-0.3225 0.27864-0.36667 0.23511-0.83607 0.34158-0.73395 0.15601-1.5965 0.16851-0.62225 0.13405-0.5396 0.22402-0.48487 0.32258-0.31365 0.3001-0.26676 0.34433-0.24512 0.4472-0.16863 0.48504-0.079944 0.45179-0.009254 0.4633 0.10697 0.6676 0.68661 2.0634 0.22229 0.84954 0.35408 1.7448-1.2257 8.6254-0.60395 3.0661-0.56181 1.9759-0.64472 1.781-0.7229 1.7336-0.86942 1.5458-1.1547 1.304-0.43075 0.33536-0.68536 0.42457-0.95288 0.43707-1.0366 0.34483-1.5212 0.35267-2.381 0.32574-4.8133 0.28454-1.0503 0.13508-1.2134 0.2467-0.91144 0.25671-0.87451 0.30646-1.2276 0.53646-3.3755 1.7615-1.5997 0.77391-1.6033 0.61188-2.0554 0.61722-3.0874 0.76386-7.1903 1.6209-2.3519 0.47632-4.5012 0.81573-2.2734 0.51733-0.87963 0.27922-1.2668 0.53573-1.1912 0.66837-1.5873 1.2034-0.6513 0.63867-1.0033 1.2245-0.79748 1.2945-0.63908 1.4816-0.23192 0.71695-0.30988 1.1781-0.28934 1.6933-0.56319 6.547-0.18717 1.3769-0.38874 2.2729-0.65539 2.6906-0.65201 1.9623-0.56309 1.4097-0.63804 1.3946-0.96941 1.8385-1.2671 2.0713-1.1573 1.6789-3.258 4.3083-2.7835 3.799-2.2159 3.1852-2.0025 3.1189-1.2938 2.3069-0.75873 1.6507-0.44105 1.2843-0.12927 0.52824-0.14544 1.0048 0.056386 0.8965 0.26264 0.32657-0.34082 0.063569-0.32712 0.73842-1.0916 4.1066-0.35109 1.1652-0.40077 1.1044-0.86252 1.6649-1.1225 1.1214-0.33587 0.17356-0.58436 0.18386-0.84118 0.081345-1.1468-0.11395-1.421-0.35687-1.6551-0.5727-2.0721-0.83834-2.4957-1.1981-1.2127-0.69154-2.1011-1.3537-0.93996-0.55061-0.92979-0.43729-0.58126-0.22372-1.0316-0.28477-2.1099-0.42712-0.62822-0.22723-0.7245-0.37846-0.98936-0.74644-1.1991-1.207-1.2489-1.537-1.1898-1.6769-0.80449-1.2347-1.4715-2.4378-1.504-2.6865-5.8024-11.174-1.1785-2.0781-1.2042-1.8689-1.2423-1.5744-0.93381-0.92728-0.68954-0.58996-0.67366-0.49008-0.66366-0.38053-0.75086-0.30727-0.68079-0.091799-0.59999 0.1731-0.62984 0.56844-0.5486 0.95232-0.32222 1.1748-0.16545 1.3469-0.15788 3.1239-0.12668 1.0513-0.35269 2.1545-0.087412 0.839-0.21664 3.5899-0.23935 1.4224-0.51423 1.1888-0.46822 0.50073-0.57502 0.34482-0.69599 0.19947-0.7242 0.055141-0.5875-0.020352-2.4362-0.17491-1.0449 0.049343-1.024 0.2104-1.2397 0.55488-0.27063 0.17498-1.3416 1.1666-1.2771 1.5228-0.70916 0.99761-0.60372 0.96058-1.1116 2.025-1.4265 3.042-0.9047 2.2996-0.66076 2.1672-0.47809 2.2163-0.12209 0.91649 0.054123 0.60724-0.050802 0.069438-0.16135-0.79739-0.46588-3.5428-0.46497-2.2865-0.57482-2.0659-1.0887-3.1448-2.9547-7.4503-2.4297-6.4159-1.0722-2.4562-1.1237-2.0643-0.81361-1.2328-0.73933-0.97952-1.0241-1.1659-0.62162-0.6121-1.2012-1.0217-1.5874-1.1667-8.1194-5.337-7.6356-4.6419-3.4624-1.9585-1.672-0.86341-2.2292-1.037-3.3338-1.3195-1.966-0.67186-3.8918-1.211-4.5226-1.5401-5.194-1.6279-2.4753-0.8436-1.7311-0.66509-3.0967-1.3653-1.4745-0.75763-1.272-0.738-1.7389-1.1699-1.841-1.4559-2.1842-1.9835-6.8519-6.9389-4.0159-4.191-1.8162-2.0626-1.4938-1.8681-1.6305-2.3026-0.66033-1.0416-0.80986-1.4111-0.54413-1.0891-0.20152-0.63615 0.28247-0.47915 0.95022-0.55116 1.443-0.52104 8.4416-2.3345 12.599-3.1286 2.4091-0.64585 1.1088-0.32669 2.4485-0.86682 1.3901-0.5842 1.3739-0.64268 2.1159-1.1196 1.2825-0.75603 2.4732-1.6335 2.3459-1.7889 1.126-0.95709 0.96205-0.87852 2.2264-2.2676 1.0926-1.242 1.9573-2.4627 1.9993-2.8253 2.2242-3.4448 4.0528-6.7742 3.4177-6.0105 3.5799-6.1195 2.2506-4.039 1.0612-2.1281 1.0887-2.4862 3.732-9.6161 1.5651-4.2539 0.62435-1.9087 0.52155-1.8281 0.2362-0.99536 0.33601-2.0766 0.37688-3.0862 0.27537-1.0822 0.3231-0.70968 0.38765-0.61955 1.7164-2.1533 0.80192-1.1508 0.57835-1.0564 0.48203-1.261 0.27762-1.394 0.046855-0.51561 0.021415-0.83586-0.053585-1.0397-0.24027-1.8007-0.91801-4.6049-0.33646-2.2265-0.13864-1.7085 0.004621-1.6362 0.18329-1.5264 0.18318-0.76724 1.0366-3.0338 0.27285-1.2171 0.060673-1.3058-0.14021-1.3912-0.31479-1.4508-0.17812-0.61787-0.45857-1.3316-0.44951-1.1241-0.77697-1.7352-0.91796-1.7203-1.1162-1.6561-1.6383-1.8271-1.9328-1.6994-2.164-1.6013-2.3457-1.5248-2.4879-1.4622-2.5561-1.3852-2.6298-1.3307-2.6686-1.2673-2.6634-1.1838-2.5975-1.0668-2.4447-0.90045-2.6987-0.80423-0.92026-0.18584-0.93654-0.080561-0.44035 0.074372 0.10602-0.30735 0.23934-0.33288 0.54227-0.62582 0.61756-0.60352 0.34234-0.2983 1.6961-1.2149 0.79561-0.46077 1.8681-0.89496 2.1822-0.8128 1.4298-0.43289 3.0966-0.74078 3.9661-0.68036 1.6745-0.21591 1.8202-0.17345 3.7754-0.20335 2.1146-0.037545 2.4928 0.028162 2.611 0.13278 3.1084 0.31618 3.3711 0.56637 5.0162 0.98802 2.5094 0.35165 1.1895 0.10685 1.8416 0.083898 0.91852-0.00357 1.0507-0.067873 1.3072-0.19576 0.85057-0.19624 1.113-0.33655 1.2932-0.51184 1.1111-0.5376 1.2402-0.68804 3.637-2.2766 1.4099-0.8085 1.4819-0.72615 0.90827-0.38253 1.4961-0.54397 1.4615-0.44094 1.6471-0.39294 1.3252-0.21829 1.4452-0.11083 1.2361 0.049905 1.0881 0.19251 4.2095 1.2101 1.1649 0.487 0.4773 0.26381 1.2905 0.82352 0.53647 0.39632 0.52767 0.4786 0.35778 0.43773 0.33616 0.64057 0.17266 0.54059 0.35849 1.6618 0.27853 1.0074 0.5016 1.3075 0.79177 1.4304 0.31447 0.44646 0.9889 1.1846 0.73212 0.74828 1.3698 1.2312 2.5043 1.9097 1.9098 1.272 4.7537 2.9355 2.0755 1.3353 2.4052 1.6917 1.2818 1.1075 1.1751 1.1856 2.6059 3.0202 1.0195 1.0432 1.002 0.89702 0.80759 0.55762 0.61761 0.29722 0.77084 0.22254 0.95229 0.067762 0.92324-0.15914 0.6457-0.23231 1.0476-0.56566 0.64304-0.45161 0.97402-0.82145 1.8795-1.8734 1.3195-1.1236 1.0167-0.64576 1.3261-0.64507 0.76342-0.29818 1.1552-0.36783 1.7139-0.38296 2.3263-0.2733 2.3988-0.0557 1.7151 0.070611 4.7716 0.30741 1.6549 0.052502 2.0953-0.013605 2.2956-0.13082 5.4342-0.50107 2.2346-0.11026 1.5757-0.025306 3.0157 0.03946 2.3383 0.11792 2.655 0.29524 1.569 0.28908 2.312 0.61105 1.8945 0.65087 2.0144 0.80954 2.0723 0.95299 2.3733 1.2168 2.1436 1.201 2.1882 1.3195 3.2895 2.0993 3.6978 2.5332 3.6352 2.7743 9.713 7.9375 6.3004 4.8983 0.47571 0.48294" stroke="#bdc660"/>
    </defs>
    <g clip-path="url(#p70fe118dbc)">
     <use y="280.512" fill="#bdc660" stroke="#bdc660" xlink:href="#m297e10d271"/>
    </g>
   </g>
  </g>
 </g>
 <defs>
  <clipPath id="p70fe118dbc">
   <rect x="7.2" y="7.2" width="276.66" height="266.11"/>
  </clipPath>
 </defs>
</svg>
