<?xml version="1.0" encoding="UTF-8"?>
<!DOCTYPE svg  PUBLIC '-//W3C//DTD SVG 1.1//EN'  'http://www.w3.org/Graphics/SVG/1.1/DTD/svg11.dtd'>
<svg width="371.52pt" height="254.86pt" version="1.1" viewBox="0 0 371.52 254.86" xmlns="http://www.w3.org/2000/svg" xmlns:xlink="http://www.w3.org/1999/xlink">
 <metadata>
  <rdf:RDF xmlns:cc="http://creativecommons.org/ns#" xmlns:dc="http://purl.org/dc/elements/1.1/" xmlns:rdf="http://www.w3.org/1999/02/22-rdf-syntax-ns#">
   <cc:Work>
    <dc:type rdf:resource="http://purl.org/dc/dcmitype/StillImage"/>
    <dc:date>2024-07-04T12:07:59.629993</dc:date>
    <dc:format>image/svg+xml</dc:format>
    <dc:creator>
     <cc:Agent>
      <dc:title>Matplotlib v3.7.1, https://matplotlib.org/</dc:title>
     </cc:Agent>
    </dc:creator>
   </cc:Work>
  </rdf:RDF>
 </metadata>
 <defs>
  <style type="text/css">*{stroke-linejoin: round; stroke-linecap: butt}</style>
 </defs>
 <g id="figure_1">
  <g id="patch_1">
   <path d="m0 254.86h371.52v-254.86h-371.52v254.86z" fill="none"/>
  </g>
  <g id="axes_1">
   <g id="PatchCollection_1">
    <defs>
     <path id="m3ca458f825" d="m236.76-223.7 0.16341-0.16567 0.95478-0.42886 1.4307-0.3478 1.9125-0.14422 1.5621 0.079581 1.7672 0.33689 2.8783 0.83051 2.8698 0.7497 1.8171 0.55374 1.6172 0.57972 1.7492 0.77991 0.90056 0.51209 0.73233 0.51997 0.62825 0.58974 0.35672 0.45319 0.28925 0.4846 0.39571 1.0339 0.21063 1.127 0.17205 1.4316 0.17441 0.74084 0.2632 0.55301 0.32898 0.33597 0.3477 0.14561 0.37709 0.011755 2.1229-0.61795 1.7247-0.23281 1.1077 0.034967 0.44059 0.099372 1.3338 0.54493 1.1779 0.65924 3.3078 2.0495 3.2313 2.2005 0.68663 0.39666 0.86223 0.30783 0.44831 0.05702 0.36782-0.028939 0.22419-0.089872 0.10677-0.15484 0.11539 0.11554 0.42063 0.8908 2.5475 7.0195 1.5034 3.5173 1.8682 3.8038 3.1027 5.9761 1.0652 2.3105 0.61457 1.5571 0.62868 1.9414 1.453 5.2152 1.6144 5.2853 0.88906 3.252 0.53754 2.3064 0.50537 2.7538 0.37242 3.2223 0.080216 1.583-0.008423 1.6341-0.12518 1.5696-0.37097 1.9027-0.85834 2.272-1.9752 3.8299-0.65311 1.6334-0.15574 0.57559-0.19676 1.7672 0.17577 1.7374 0.38391 1.3374 0.57434 1.2154 1.0312 1.3398 0.7684 0.62478 0.83466 0.50346 3.0241 1.4859 0.88414 0.56305 0.82327 0.69496 0.75274 0.88294 0.66757 1.0388 0.5768 1.124 0.52285 1.2184 0.52519 1.4136 1.3745 4.1538 0.82205 2.2376 1.0847 2.231 1.1984 1.6274 0.70173 0.66363 1.1542 0.78134 1.4995 0.66766 1.3671 0.40144 1.4777 0.29236 1.6451 0.20897 1.7365 0.12693 2.2545 0.065265 4.8467-0.07082 6.2999-0.25854 5.76-0.35494 3.6517-0.34971 0.10221 0.50034 3.0178 10.047 1.9898 6.9265 0.64499 2.4537 1.7207 7.0797 0.71728 3.2199 0.30788 1.6313 0.34293 2.5547 0.047196 2.2446-0.35063 1.8377-0.4868 0.93954-0.61814 0.69996-0.40953 0.31159-0.61152 0.31055-0.57945 0.16666-0.60848 0.062525-0.70858-0.075602-0.57709-0.1929-0.82394-0.49575-0.82413-0.71198-1.4008-1.4818-2.843-3.3086-1.6147-1.4934-1.8581-1.0918-1.7142-0.45219-2.2082-0.069593-2.3744 0.32929-2.4765 0.60724-2.7093 0.83045-4.2214 1.4566-5.0031 1.8933-1.567 0.66414-2.1469 1.0611-1.3967 0.91581-1.2292 1.161-0.77963 1.113-0.75584 1.6065-0.46175 1.466-0.34403 1.5641-0.33245 2.1609-0.80752 7.537-0.38435 3.0941-0.26911 1.5223-0.60716 2.2206-0.62535 1.3572-0.74502 1.0258-0.51368 0.51245-0.7895 0.61162-0.87316 0.52005-0.9809 0.46581-1.6893 0.63224-3.0676 0.91294-1.275 0.301-4.2513 0.70212-5.5048 0.74493-4.0562 0.3253-2.7559 0.085812-4.9469-0.14864-1.8119 0.073051-5.5302 0.74872-2.3564 0.25717-9.6241 0.67709-6.6167 0.5289-1.5281 0.020736-5.0432-0.25242-2.3636-0.1622-3.1929-0.32509-1.3594-0.19741-6.8585-1.2407-4.8376-1.0706-2.3973-0.31745-6.7732-0.57492-1.868-0.071809-1.221 0.094119-1.497 0.44024-0.59801 0.4437-0.11671 0.19704-0.022928 0.29666 0.053316 0.14333-0.2151 0.38552-0.62173 0.25078-0.84077 0.098414-1.1321-0.013294-1.4473-0.1524-4.8088-0.68249-1.5626-0.28874-1.3698-0.34098-1.9772-0.67004-1.6326-0.67483-1.5634-0.78546-1.0791-0.65755-4.3535-3.1406-1.1789-0.69629-0.88969-0.39272-0.8192-0.23877-0.99339-0.1235-0.59517 0.004435-0.9578 0.11193-1.5853 0.43126-1.4973 0.67011-1.1776 0.66804-1.1785 0.75834-1.2754 0.90371-2.0602 1.6289-1.993 1.7355-1.6947 1.6055-5.2799 5.5089-2.9449 2.9125-2.7119 2.39-2.261 1.7299-1.508 1.0148-3.8168 2.2995-1.4405 0.93531-4.7063 3.2453-4.179 3.0057-1.3951 0.88914-1.1697 0.61253-0.93877 0.35025-0.44218 0.10553-0.71396 0.076152-0.73387-0.073522-0.60215-0.25025-0.4062-0.35394-0.2212-0.30526-0.2332-0.4783-0.17719-0.59859-0.10636-0.64663-0.079549-1.554 0.04862-3.7352-0.06213-1.9292-0.72557-6.2527-0.45026-5.1371-0.25746-1.9609-0.34991-1.8814-0.54908-2.3484-0.72464-2.4161-0.78021-2.1326-1.0537-2.4546-1.0366-1.9827-0.63225-1.0344-1.5194-2.1903-1.0142-1.314-2.3287-2.7343-1.93-2.0457-1.538-1.3429-1.4243-1.1034-1.8242-1.1964-1.1358-0.57126-0.75633-0.28459-0.59788-0.16737-1.0817-0.1802-2.3604 0.047254-2.5321 0.41454-6.0881 1.2046-2.6435 0.41904-3.0214 0.31453-3.0139 0.067702-2.9299-0.27521-2.7569-0.71885-2.3393-1.0998-1.2336-0.7545-1.5414-1.0882-1.6525-1.3465-1.4712-1.3843-0.63365-0.71164-0.21903-0.42394-0.28167-0.15894-0.6089-0.5468-1.2936-1.33-2.245-2.6455-2.1743-2.9247-2.3051-3.5374-0.64697-1.1102-1.0029-1.9318-0.67456-1.5129-0.94625-2.6807-0.78278-2.9833-0.38363-2.4344-0.10153-1.369 0.021851-1.3167 0.16568-1.2729 0.52588-2.1555 0.36757-1.1947 0.51461-1.3299 0.29297-0.60112 0.75948-1.2855 2.1012-2.9986 0.47878-0.97365 0.18554-0.78671 0.020864-0.34725-0.098801-0.81631-0.2653-0.68973-0.30631-0.4762-0.42128-0.4514-0.9951-0.70231-4.4674-2.2978-0.92059-0.52174-1.8969-1.211-0.93171-0.69849-1.1926-0.9979-2.3631-2.2814-1.62-1.7855-1.394-1.7254-2.9343-3.913-3.5937-5.0928-1.2009-1.5531-8.371-9.8902-0.61614-0.84753-0.36788-0.61447-0.22975-0.47253-0.28276-0.79545-0.18852-1.1944 0.089559-1.1455 0.36962-1.1408 0.59178-1.1241 0.69507-1.0578 1.8492-2.5873 0.67043-1.0474 0.78095-1.5087 0.42159-1.1076 0.53683-1.9783 0.56215-3.0784 1.9264-13.149 0.59595-2.9398 1.1857-5.0508 0.22282-1.2433 0.13944-1.4699-0.003635-1.1665-0.17283-1.5579-0.20166-0.80885-0.19778-0.53802-0.55351-1.0072-0.49687-0.62356-0.73446-0.67707-0.6316-0.4576-2.8726-1.715-0.83283-0.57564-0.52528-0.4247-0.72085-0.70056-0.76964-0.94266-0.94527-1.5039-0.99505-2.0946-0.576-1.4822-0.93492-3.055-0.63835-2.757-0.31149-1.6862-0.45731-2.955-0.93793-7.1555-0.31798-2.0061-0.94108-5.0088-0.25254-1.7375-0.12972-1.5921 0.23277-0.07773 0.92863-0.10848 1.6775-0.09853 2.398-0.007395 1.7115 0.067285 4.0071 0.33639 2.3597 0.30712 3.0139 0.51159 1.8014 0.39924 1.8474 0.48822 3.9188 1.1766 3.6039 1.174 2.6779 0.74889 8.033 1.9153 4.9498 1.1329 3.5928 0.75916 1.4907 0.405 2.4693 0.88653 2.0842 0.89809 2.1159 1.1028 2.0491 1.3174 1.3869 1.0734 0.87908 0.78667 1.3559 1.3846 2.2016 2.4493 1.0836 1.0771 1.0433 0.8656 0.62052 0.42434 1.05 0.57278 1.6494 0.60681 0.80569 0.17815 1.4692 0.15602 1.6922 0.008495 2.4618-0.25979 1.7956-0.36606 4.962-1.2864 1.9763-0.40598 3.2117-0.49694 5.0035-0.56143 3.818-0.71046 2.4982-0.57742 3.1299-0.83977 7.6117-2.256 3.1977-0.73932 2.8897-0.39054 5.9837-0.44095 1.7386-0.24666 2.2299-0.43937 2.5903-0.67158 2.0972-0.66724 2.3533-0.89381 3.8828-1.6723 2.2574-0.75552 1.3788-0.35608 2.0708-0.40369 2.278-0.23117 3.4535-0.063837 3.5121 0.1212 6.9512 0.60578 3.2706 0.53067 4.1481 0.96918 3.6857 1.0357 2.0695 0.75482 3.622 1.5461 2.7893 1.0982 5.4093 1.7247 2.5614 0.64081 2.6956 0.52947 3.1038 0.47667 1.715 0.1459 2.0807 0.018325 2.7502-0.20696 3.3819-0.48217 4.6836-0.83226 1.3541-0.33075 1.9886-0.68231 1.1184-0.50094 2.8147-1.404 0.55074-0.20632" stroke="#bdc660"/>
    </defs>
    <g clip-path="url(#pd36b23ad9c)">
     <use y="254.858151" fill="#bdc660" stroke="#bdc660" xlink:href="#m3ca458f825"/>
    </g>
   </g>
  </g>
 </g>
 <defs>
  <clipPath id="pd36b23ad9c">
   <rect x="7.2" y="7.2" width="357.12" height="240.46"/>
  </clipPath>
 </defs>
</svg>
