<?xml version="1.0" encoding="UTF-8"?>
<!DOCTYPE svg  PUBLIC '-//W3C//DTD SVG 1.1//EN'  'http://www.w3.org/Graphics/SVG/1.1/DTD/svg11.dtd'>
<svg width="294.05pt" height="280.51pt" version="1.1" viewBox="0 0 294.05 280.51" xmlns="http://www.w3.org/2000/svg" xmlns:xlink="http://www.w3.org/1999/xlink">
 <metadata>
  <rdf:RDF xmlns:cc="http://creativecommons.org/ns#" xmlns:dc="http://purl.org/dc/elements/1.1/" xmlns:rdf="http://www.w3.org/1999/02/22-rdf-syntax-ns#">
   <cc:Work>
    <dc:type rdf:resource="http://purl.org/dc/dcmitype/StillImage"/>
    <dc:date>2024-07-04T12:07:54.033904</dc:date>
    <dc:format>image/svg+xml</dc:format>
    <dc:creator>
     <cc:Agent>
      <dc:title>Matplotlib v3.7.1, https://matplotlib.org/</dc:title>
     </cc:Agent>
    </dc:creator>
   </cc:Work>
  </rdf:RDF>
 </metadata>
 <defs>
  <style type="text/css">*{stroke-linejoin: round; stroke-linecap: butt}</style>
 </defs>
 <g id="figure_1">
  <g id="patch_1">
   <path d="m0 280.51h294.05v-280.51h-294.05v280.51z" fill="none"/>
  </g>
  <g id="axes_1">
   <g id="PatchCollection_1">
    <defs>
     <path id="m01f28090cf" d="m266.08-180.69-0.12541 0.009654-0.10725 0.14909-0.078272 0.33186-0.018062 0.45404 0.098356 1.1275 0.33828 1.9706 0.8585 4.0668 0.44343 2.6154 0.25115 1.2167 0.46632 1.695 1.2502 3.6311 0.36308 1.2936 0.20452 1.0278 0.41633 2.9825 0.4307 1.7222 0.86556 2.6447 0.65364 1.7946 1.7467 4.0428-0.18865-0.070341-0.87816 0.18135-1.9315 0.71008-3.9257 1.7413-3.411 1.6628-13.278 6.9379-3.4203 1.8749-5.2592 2.9758-6.6642 3.592-2.4242 1.1745-1.4635 0.52875-1.1745 0.26532-1.5413 0.11336-3.1383-0.034611-1.0955 0.077837-1.1382 0.13805-6.9774 1.1439-2.3197 0.29645-1.9485 0.1358-1.4564-0.017681-0.98562-0.10398-0.90578-0.19234-1.4592-0.65611-0.56515-0.50125-0.63934-1.1409-0.31004-1.3831-0.28639-3.7478-0.16333-0.93653-0.305-0.95163-0.49376-0.82628-0.35202-0.35914-0.52493-0.33654-1.3925-0.26326-1.6737 0.22748-1.3485 0.38411-4.0299 1.3479-1.756 0.47287-1.806 0.39984-4.4846 0.79578-1.5029 0.3069-2.0354 0.49888-1.2001 0.35672-1.4964 0.53662-1.6549 0.69305-2.0343 0.99673-0.79603 0.44429-1.1834 0.73232-2.7781 1.8859-2.0619 1.1363-2.314 1.0862-4.7839 1.8856-1.7215 0.75127-1.4991 0.75283-1.5672 0.94398-0.93634 0.66826-0.88429 0.71953-1.0828 1.0228-0.67595 0.7288-1.2792 1.56-2.3325 3.1138-5.4671 6.4588-1.4593 1.8191-1.6643 2.2768-1.5229 2.3474-1.0414 1.8822-0.94656 2.0806-0.32175 0.87289-0.37994 1.2461-0.42378 1.8263-0.3626 1.9477-0.17985 1.2724-0.29685 4.7073-0.74152 5.049-0.41901 3.3861-0.4361 1.7667-0.51181 1.525-0.38455 0.84504-1.1805 2.3146-1.3634 3.0768-0.56172 1.4009-0.41021 1.4675-0.14936 1.105-0.042332 0.89613 0.017601 1.528 0.4371 6.3433-0.030743 2.1261-0.16668 1.2512-0.31638 1.1856-0.48422 1.1044-0.62358 0.99852-1.1222 1.2697-0.85357 0.68822-0.70683 0.41363-0.64214 0.20679-0.33706-0.036297-4.9145 0.79176-2.3238 0.28897-1.7498 0.16102-3.5021 0.20179-3.4121 0.067489-1.6515-0.013968-3.1579-0.13872-1.487-0.13863-1.4073-0.1988-1.3078-0.27346-1.1824-0.36607-1.9712-0.9147-0.86254-0.3401-0.83015-0.1006-0.71751 0.18223-0.79986 0.43101-0.68098 0.48504-3.805 3.054-1.591 1.3712-4.3708 3.9848-1.5287 1.2593-1.9329 1.4514-1.5382 1.043-1.6504 1.021-4.1527 2.2082-1.211 0.72536-4.1041 3.0591-1.346 0.89634-1.3709 0.8301-3.0786 1.6846-1.4532 0.68102-0.35804 0.10156-0.063404-0.46028-0.30197-1.1349-0.49266-1.574-0.65519-1.8408-1.0554-2.6668-1.5855-3.7572-0.79998-1.7646-1.6137-3.2525-0.79934-1.4671-1.682-2.836-2.2969-3.4797-1.5612-2.1568-1.5775-2.0322-1.5802-1.8914-1.8304-1.9734-1.6786-1.5533-2.8232-2.2322-1.1359-1.0388-1.1348-1.3598-1.0051-1.5398-0.90373-1.6688-1.1511-2.4816-1.9591-4.6782-0.80175-1.7875-0.85156-1.6641-1.4444-2.4498-1.2591-2.5088-1.4338-3.2339-2.3201-5.5336-1.2761-2.8103-0.62574-1.6056-0.38496-1.3053-0.32096-1.4756-0.18471-1.2396-0.1262-1.489-0.024714-1.9241 0.082074-1.4241 0.16231-1.304 0.32304-1.5153 0.44246-1.32 0.52403-1.0668 0.57002-0.84028 0.42581-0.51099 0.8756-0.88138 2.498-2.1852 1.0696-1.0877 0.58143-0.69112 2.5836-3.356 1.0417-1.2132 1.1384-1.2212 1.1043-1.0673 1.4237-1.1802 1.344-0.93112 1.6938-0.99308 1.4277-0.72183 2.346-1.0248 3.2956-1.2798 2.8961-0.99985 1.4614-0.43168 1.9048-0.46964 4.042-0.85844 1.9039-0.45465 2.2579-0.65458 2.4486-0.9136 2.6556-1.2276 3.6294-1.8082 4.2358-2.2157 1.9553-1.0974 1.2414-0.7524 1.1746-0.77958 1.2725-0.96614 1.1183-1.0328 0.81724-0.97099 0.63422-1.0563 0.34668-0.88497 0.37357-1.9381 0.057877-1.3332-0.05121-1.3931-0.31211-2.7588-0.51812-3.0685-3.6539-18.576-1.5186-7.3857-1.0233-4.4268-0.52606-2.0142-0.88785-2.989-0.60476-1.8018-0.84963-2.2796-0.76568-1.8372-0.83068-1.8152-0.90463-1.814-0.96352-1.794-1.4298-2.4736-1.5103-2.4518-6.5101-9.9063-2.6889-4.3591-1.0556-1.8852-1.3559-2.5783-5.4286-11.068-0.82371-1.5618-0.016861-0.052524 0.042513-0.04808 0.30214-0.32094 0.59028-0.44558 0.87396-0.54451 1.8923-0.96529 2.3066-1.0049 1.5062-0.60134 1.722-0.60195 1.8123-0.54469 3.3348-0.816 2.956-0.55661 3.1814-0.47711 4.6793-0.57589 6.5151-0.6908 2.5315-0.23138 4.0787-0.28264 7.4478-0.27232 3.7642-0.25656 1.195-0.13935 1.9158-0.30877 1.5003-0.322 1.7401-0.47294 1.5128-0.51728 1.4383-0.61027 1.4345-0.76528 0.95177-0.61513 2.0367-1.5003 6.3974-4.9093 2.3903-1.6506 1.8586-1.1046 0.80729-0.41848 1.1699-0.52208 1.5218-0.48548 0.96773-0.15363 0.81796-0.003585 0.72865 0.12464 0.78696 0.32754 0.60531 0.46207 0.50234 0.57786 0.55953 0.92623 0.59071 1.4342 0.39518 1.3007 0.99451 4.1651 0.54201 1.8417 0.50294 1.3824 0.69617 1.6399 0.66196 1.3732 0.86165 1.6149 0.98174 1.6812 1.4368 2.2641 1.5977 2.3316 2.2084 2.9765 2.8334 3.5394 2.0496 2.415 2.3029 2.5326 1.4846 1.5045 0.92779 0.87342 4.1134 3.5822 0.80959 0.65746 0.79168 0.51254 0.58484 0.24682 0.78214 0.1483 1.0388-0.044237 0.77833-0.1835 0.75046-0.29557 0.47842-0.25158 1.227-0.83547 9.3634-7.2491 10.684-8.5003 2.7344-2.1215 2.7409-2.0009 1.4586-0.98617 1.958-1.2011 1.4571-0.77435 1.453-0.63948 1.2395-0.41501 1.2361-0.2676 1.7237-0.1113 1.7461 0.089991 1.7988 0.15559 1.8833 0.085857 0.96119-0.021578 1.5116-0.12063 1.5616-0.21602 2.3379-0.46461 2.3577-0.62161 2.5934-0.85382 1.6227-0.63168 1.5763-0.68879 2.2768-1.1322 2.3863-1.3729 1.4037-0.92858 0.53706-0.41932 0.16902-0.22777 0.031231 0.064152 0.25571-0.091473 1.6474-1.0304 8.7408-6.249 1.995-1.3782 3.2025-2.1113 2.3146-1.4025 0.57626-0.26894 0.44311-0.088292 0.11624 0.046823 0.012591 0.54374-0.45857 1.0192-3.9689 6.6926-1.0485 2.013-0.90579 2.0836-0.67451 2.1412-0.3492 1.9126-0.18483 1.93-0.16994 4.2095 0.035374 1.5951 0.21492 2.8033 0.24177 1.5592 0.50993 2.0828 0.69232 2.1133 0.83364 2.1326 0.94454 2.1422 1.4107 2.884 1.4646 2.7129 3.9927 6.5642 1.2953 2.222 1.4521 2.6553 2.325 4.616 2.4979 5.6292 1.4087 2.9951 1.5504 3.0174 1.3202 2.2962 1.3849 2.078 1.1431 1.4233 1.1782 1.1678 0.8946 0.69422 2.1512 1.4359 0.73139 0.66254 0.19536 0.4475" stroke="#bdc660"/>
    </defs>
    <g clip-path="url(#pf810823d14)">
     <use y="280.512" fill="#bdc660" stroke="#bdc660" xlink:href="#m01f28090cf"/>
    </g>
   </g>
  </g>
 </g>
 <defs>
  <clipPath id="pf810823d14">
   <rect x="7.2" y="7.2" width="279.65" height="266.11"/>
  </clipPath>
 </defs>
</svg>
