<?xml version="1.0" encoding="UTF-8"?>
<!DOCTYPE svg  PUBLIC '-//W3C//DTD SVG 1.1//EN'  'http://www.w3.org/Graphics/SVG/1.1/DTD/svg11.dtd'>
<svg width="286.7pt" height="280.51pt" version="1.1" viewBox="0 0 286.7 280.51" xmlns="http://www.w3.org/2000/svg" xmlns:xlink="http://www.w3.org/1999/xlink">
 <metadata>
  <rdf:RDF xmlns:cc="http://creativecommons.org/ns#" xmlns:dc="http://purl.org/dc/elements/1.1/" xmlns:rdf="http://www.w3.org/1999/02/22-rdf-syntax-ns#">
   <cc:Work>
    <dc:type rdf:resource="http://purl.org/dc/dcmitype/StillImage"/>
    <dc:date>2024-07-04T12:08:03.724374</dc:date>
    <dc:format>image/svg+xml</dc:format>
    <dc:creator>
     <cc:Agent>
      <dc:title>Matplotlib v3.7.1, https://matplotlib.org/</dc:title>
     </cc:Agent>
    </dc:creator>
   </cc:Work>
  </rdf:RDF>
 </metadata>
 <defs>
  <style type="text/css">*{stroke-linejoin: round; stroke-linecap: butt}</style>
 </defs>
 <g id="figure_1">
  <g id="patch_1">
   <path d="m0 280.51h286.7v-280.51h-286.7v280.51z" fill="none"/>
  </g>
  <g id="axes_1">
   <g id="PatchCollection_1">
    <defs>
     <path id="maec7472abd" d="m194.91-254.93 0.09895-0.003096 2.8297-0.28914 2.3207-0.10696 1.074 0.011941 1.0274 0.078843 0.96054 0.17296 0.87488 0.298 0.75568 0.42268 2.8667 2.1185 1.2932 0.79287 0.72453 0.36778 0.78853 0.33455 0.80163 0.26702 1.007 0.22199 1.0096 0.079805 0.96177-0.071212 0.95058-0.18416 0.93478-0.25996 0.88585-0.29501 2.2686-0.83824 0.94287-0.42087 1.4214-0.79395 1.7377-0.91555 1.8665-0.87342 0.95144-0.37987 0.94876-0.31266 0.93437-0.21573 0.90684-0.080246 0.86385 0.10513 0.86371 0.35973 0.82644 0.56227 2.3939 2.1103 0.83446 0.66078 1.1055 0.76591 0.83094 0.51077 1.8053 0.96098 1.8875 0.84653 2.5062 0.96479 1.0305 0.33785 0.19349 0.039905 0.055243-0.026355-0.012076 0.35686 0.21312 0.50215 0.35952 0.53702 0.52081 0.6106 0.75066 0.72441 0.67318 0.54057 0.36926 0.25477 0.91913 0.51617 1.8408 0.80859 2.6611 1.2335 0.99443 0.37863 1.1653 0.36569 1.09 0.3928 0.35055 0.16846 2.0995 1.2618 1.7051 0.83095 0.8018 0.46253 0.38154 0.27739 0.39936 0.35858 0.46769 0.58873 0.31556 0.63177 0.24194 0.71976 0.31972 1.3336 0.47563 2.4483 0.25548 1.6457 0.21708 2.6754 0.13944 1.0527 0.37029 1.8829 0.55561 2.3604 0.14329 0.88237 0.15132 1.3503 0.20327 2.4281 0.16987 1.0634 0.21153 0.81683 0.26269 0.78638 0.71432 1.8581 0.24571 0.81814 0.085416 0.44223 0.046815 0.53589-0.00154 0.34167-0.074676 0.75182-0.10484 0.5297-0.18875 0.68371-0.63591 1.7135-0.66584 1.3754-0.6307 1.0471-3.5162 5.1834-4.4025 5.9709-1.7835 2.476-0.72494 1.1087-0.87913 1.4951-0.631 1.2957-0.65886 1.7289-0.45557 1.6106-0.58886 2.5879-0.23564 1.4752-0.074218 1.0072 0.045357 0.93593 0.23218 0.98932 0.42037 1.004 0.56084 1.0514 1.4734 2.606 1.9354 3.2406 1.4876 2.6088 0.61157 1.1182 0.27516 0.5857 0.20577 0.59132 0.13758 1.1117-0.18855 1.1603-0.34948 0.82084-0.50587 0.81566-0.72782 0.92092-0.85935 0.91512-0.87814 0.83051-1.1265 0.96547-1.5512 1.2265-3.0311 2.232-1.6289 1.1276-1.0984 0.71171-1.4859 0.90243-2.9492 1.6406-2.4343 1.2372-2.1148 0.99736-4.9144 2.1321-0.88013 0.42512-0.78621 0.43575-1.0026 0.69749-0.42769 0.37852-0.47991 0.51504-0.6835 0.95934-0.53073 1.0349-0.356 0.98509-0.22821 0.99064-0.092788 0.95942 0.006818 0.45048 0.13704 0.88267 0.2955 0.81939 0.36994 0.62398 0.47877 0.53436 0.30979 0.24812 0.43028 0.26696 0.48144 0.23034 0.60101 0.22154 0.72829 0.20089 1.7855 0.3219 3.2394 0.50205 1.0795 0.12224 2.6891 0.22448 1.0828 0.15782 1.0318 0.26351 0.92495 0.3867 0.89328 0.48811 0.79732 0.49984 0.62437 0.4582 0.95216 0.86088 1.1023 1.173 1.2213 1.4549 1.0407 1.3447 2.1004 2.9421 1.7232 2.6133 1.2389 2.0645 0.22639 0.4676 0.047776 0.19923-0.031964 0.18085-0.19294 0.52034-0.81034 1.7265-0.80972 1.4315-1.0368 1.6051-1.3301 1.8573-1.21 1.5759-0.92415 1.082-0.62418 0.66528-0.81095 0.78625-1.0282 0.89623-1.0765 0.85065-1.0186 0.74238-1.4637 0.9809-1.8294 1.1082-1.1919 0.66422-3.1339 1.6086-2.2871 1.2367-1.6598 0.99769-1.6752 1.1202-1.5874 1.2059-0.80574 0.68488-0.91909 0.8558-1.1506 1.193-0.83751 0.97234-0.67581 0.85981-1.3855 1.947-1.657 2.5932-0.84296 1.4501-0.89212 1.674-0.68394 1.4516-0.37428 0.90053-0.97478 2.6834-0.35723 0.81942-0.43786 0.79588-0.55755 0.833-0.50408 0.65639-1.2919 1.4643-0.9823 0.98591-1.7258 1.5523-1.4201 1.1511-1.2905 0.95963-1.1657 0.79336-1.2705 0.78079-1.5969 0.86246-1.2762 0.59558-1.0284 0.41058-0.78434 0.2633-1.1037 0.28564-1.0082 0.1547-1.4645-0.009559-1.2046-0.28726-1.3891-0.76535-1.2721-1.1158-1.1903-1.3528-1.1371-1.4962-2.9691-4.1552-0.96666-1.208-0.98072-1.0458-1.0018-0.81599-0.72222-0.39295-0.74014-0.20532-1.0999 0.068589-1.1458 0.40914-1.196 0.64221-2.7259 1.7014-0.93649 0.53681-1.6477 0.81367-1.7483 0.72983-1.8166 0.66029-1.8577 0.60188-3.7442 1.057-3.6275 0.87736-1.7033 0.36559-2.5311 0.48054-2.9961 0.64784-2.209 0.27402-1.2069 0.19318-1.1951 0.25938-0.734 0.19425-0.69472 0.23685-0.67359 0.29198-0.81548 0.4402-3.561 2.0007-1.3916 0.82761-0.55463 0.37138-0.69914 0.53703-0.73735 0.67262-0.68913 0.76434-0.77953 1.1328-0.56109 1.2541-0.32087 1.5967-0.027569 1.7135 0.19473 1.7874 0.3659 1.824 0.50289 1.8257 0.62053 1.792 0.73236 1.7188 0.85148 1.5988 0.99128 1.4205 1.1663 1.1682 0.95543 0.6416 1.0411 0.5171 1.6319 0.62892 0.68496 0.22149 1.2878 0.33032 1.198 0.21343 3.9415 0.51257 1.3729 0.27212 1.1789 0.29592 1.3495 0.39368 1.2856 0.43958 1.1773 0.49522 1.0167 0.56189 0.49863 0.35953 0.47721 0.40836 0.63109 0.66614 0.34896 0.60669 0.08617 0.51236-0.023624 0.22448-0.23501 0.62192-0.35956 0.53634-0.43201 0.49009-0.51164 0.47377-0.59976 0.46589-0.7611 0.48916-0.53675 0.23881-0.17678-0.060744-0.4762 0.064406-0.91427 0.2167-1.1643 0.33564-2.5234 0.83919-2.0789 0.76372-2.366 0.92399-6.6843 2.7746-1.9672 0.72141-1.9201 0.63004-1.6704 0.48632-1.5631 0.38328-1.5048 0.25957-0.78142 0.068354-1.3428-0.053979-0.95213-0.19856-0.62452-0.21761-0.54724-0.25647-0.92334-0.57566-0.82864-0.65346-0.80508-0.72705-2.7907-2.751-1.4284-1.306-1.1416-0.95505-1.0432-0.75547-1.0846-0.65077-1.3865-0.63742-1.0014-0.3627-1.4949-0.42833-0.62147-0.13681-1.3158-0.21351-1.5786-0.14548-1.4487-0.048215-1.3736 0.016788-1.4083 0.072995-2.5509 0.25414-2.6644 0.40838-3.003 0.60116-1.258 0.20392-2.4862 0.28521-1.3913 0.1185-1.8621 0.10481-1.202-0.004861-1.0333-0.096296-0.70794-0.14071-0.54587-0.16424-0.56233-0.23602-0.85793-0.52289-0.52656-0.40898-0.94714-0.85682-1.0277-1.1203-3.2346-4.0372-0.95268-1.0371-1.1505-1.0379-1.2639-0.84823-1.0537-0.48732-0.7924-0.27509-1.222-0.32146-1.0888-0.20154-1.8342-0.17972-1.6849 7.95e-4 -1.2998 0.10702-1.2658 0.18091-1.2827 0.24574-6.5781 1.4901-2.2229 0.4177-2.2272 0.30231-1.198 0.090979-0.8356 0.024997-1.3654-0.029953-1.8982-0.10567-4.8035-0.13962-1.9024-0.1097-3.9647-0.32074-8.1902-0.7052-2.5396-0.27028-0.72791-0.11666-0.68012-0.15728-0.26842-0.091923-0.25536-0.2196-0.36749-0.19763-0.40071-0.42649-0.45991-0.60752-0.61-0.98093-0.6065-1.2354-0.59793-1.7356-0.19561-0.87219-0.17398-1.4484-0.003835-1.1115 0.035376-0.48574 0.10468-0.79589 0.19548-0.96123 0.34365-1.2506 0.741-2.2018 0.83308-2.1298 1.6113-3.5176 0.65137-1.4998 0.50013-1.2854 0.54992-1.7133 0.33736-1.4733 0.26062-1.4866 0.84715-5.8168 0.28182-1.4075 0.38592-1.2753 0.49149-1.0716 0.28363-0.45881 0.74751-0.94652 2.7915-2.9684 2.6867-3.3154 0.49206-0.5728 1.04-1.0753 1.1305-1.0189 1.1944-0.96186 1.2349-0.90138 2.8792-2.0065 1.9756-1.5045 1.4441-1.2078 0.72056-0.68762 0.65111-0.71796 1.3747-1.8504 2.8792-3.685 0.85782-1.2447 1.3157-2.308 0.57445-1.1573 0.90465-2.0515 0.83447-1.5708 0.41879-0.90066 0.2272-0.68048 0.14281-0.70139 0.0515-0.87788-0.029932-0.77433-0.1099-1.0963-0.21702-1.1176-0.37342-1.1105-0.33073-0.67848-0.78697-1.2763-0.75042-1.0459-0.7312-0.94786-6.4815-8.0733-1.1224-1.3066-1.2259-1.1125-0.95112-0.6061-1.0385-0.51339-1.7398-0.6954-1.7041-0.52649-1.2143-0.27856-1.278-0.2066-1.1048-0.11577-3.6607-0.20278-2.1457-0.15566-1.9609-0.19837-1.1196-0.15952-1.2289-0.24427-0.76116-0.18749-0.70339-0.26167-0.44236-0.28602-0.27499-0.31079-0.25863-0.76678 0.019182-0.9601 0.23151-1.094 0.39153-1.1768 0.50977-1.2143 1.5883-3.1097 0.23055-0.51904 0.50145-1.4211 0.81645-2.8256 0.35685-1.3612 0.52839-2.5833 0.17778-1.1075 0.12914-1.3441 0.002513-1.4253-0.094372-1.4518-0.26172-2.9747-0.072209-1.3877-0.038534-1.8124 0.027701-1.2288 0.078876-1.1257 0.13235-1.1004 0.18542-1.0905 0.26553-1.1925 0.32602-1.1679 0.36547-1.0858 0.4128-1.0514 0.53736-1.1812 0.54573-1.0342 0.59591-0.9598 0.9559-1.2612 0.95636-1.1538 0.82923-1.1307 0.57675-1.0991 0.41687-1.0859 0.25102-0.84358 0.10674-0.81116-0.17158-1.0039-0.48696-0.90771-0.42716-0.47936-0.50248-0.45248-0.80664-0.64334-0.90846-0.60566-1.9009-0.97683-2.3747-1.2836-1.2817-0.58992-0.96469-0.34136-0.83025-0.24079-0.85942-0.18801-0.9674-0.12752-0.99946-0.063332-1.29-0.019592-4.0468 0.073003-0.91788-0.028831-0.65486-0.058552-1.0491-0.23094-0.8341-0.41872-0.50807-0.52066-0.057394-0.53518 0.080434-0.027783 0.39944-0.29979 1.484-1.3218 0.95012-0.90348 1.8801-1.8886 1.7343-1.8676 3.9666-4.4517 1.7064-2.027 0.80772-1.0089 0.95495-1.2458 0.89389-1.2401 0.65625-0.98071 0.59806-0.97858 0.67975-1.2923 0.52038-1.2884 0.32486-1.3327 0.048076-1.313-0.19452-1.045-0.22852-0.70677-0.28485-0.7027-0.43164-0.91672-0.97603-1.945-0.459-1.0362-0.30853-0.88186-0.20052-0.88947-0.051255-0.47752-0.001006-0.7424 0.12624-0.92426 0.36132-1.1778 0.48744-0.98059 0.61812-0.88268 0.71361-0.75668 0.8679-0.65608 0.90628-0.40542 0.90707-0.076837 0.72658 0.23256 0.64552 0.40282 0.50288 0.4094 1.3624 1.3459 1.8282 1.9263 0.97773 0.9367 1.032 0.84153 1.0984 0.67852 1.179 0.43673 0.39479 0.07495 0.58353 0.05251 0.93504-0.039454 0.81836-0.14247 0.82165-0.23436 0.95176-0.37939 0.98786-0.50935 0.72222-0.44629 1.0972-0.80214 0.73374-0.62784 0.55456-0.53852 0.25556-0.29069 0.070289-0.1472 0.36249-0.27715 0.69535-0.6274 2.8649-2.6488 3.428-3.2059 3.5839-3.4335 0.94-0.83637 1.5248-1.2042 1.0138-0.70936 1.3821-0.88128 1.4558-0.84768 1.5516-0.8307 1.4818-0.73556 1.7092-0.77963 1.3273-0.53042 0.71241-0.2371 1.4448-0.37102 3.0706-0.65641 1.6048-0.38604 1.9836-0.53692 0.83285-0.26062 1.2-0.44328 2.1281-0.90733 1.2827-0.62903 1.6467-0.88843 2.6927-1.58 1.1734-0.74776 2.3918-1.6654 4.1563-3.0854 1.2531-0.86566 0.72912-0.46314 1.1993-0.62518 0.39046-0.15891 0.70777-0.22075 0.33745-0.070457 0.7392-0.0602 0.38125 0.035674 0.46769 0.13687 0.31584 0.17652 0.36882 0.35336 0.28388 0.44917 0.20092 0.46283 0.35147 1.1783 1.6797 7.092 0.35743 1.1493 0.55368 1.2983 0.7059 1.2388 0.85606 1.1573 1.2906 1.3224 1.475 1.1857 1.6104 1.0732 1.7088 0.97589 1.7798 0.8853 1.8308 0.79346 1.8675 0.69256 4.263 1.3079 1.8346 0.64474 1.9691 0.79958 6.3908 2.8546 2.1956 0.89902 1.2017 0.43811 1.1984 0.37521 1.258 0.30077 1.2616 0.17091 1.8237-0.02846 1.0734-0.15005 1.0723-0.23489 1.7334-0.54623 0.96112-0.39178 0.94962-0.44932 0.80837-0.43083 1.4121-0.84935 1.6898-1.1564 1.0244-0.76253 1.0156-0.79511 2.1276-1.7713 4.0495-3.5646 1.9757-1.6747 1.7547-1.3731 1.6805-1.179 1.0589-0.67112 1.0895-0.63585 1.6023-0.84571 2.1269-1.0093 2.8296-1.2421 4.0295-1.6023 4.9689-1.7931" stroke="#bdc660"/>
    </defs>
    <g clip-path="url(#p6ebbd07c47)">
     <use y="280.512" fill="#bdc660" stroke="#bdc660" xlink:href="#maec7472abd"/>
    </g>
   </g>
  </g>
 </g>
 <defs>
  <clipPath id="p6ebbd07c47">
   <rect x="7.2" y="7.2" width="272.3" height="266.11"/>
  </clipPath>
 </defs>
</svg>
