<?xml version="1.0" encoding="UTF-8"?>
<!DOCTYPE svg  PUBLIC '-//W3C//DTD SVG 1.1//EN'  'http://www.w3.org/Graphics/SVG/1.1/DTD/svg11.dtd'>
<svg width="351.02pt" height="280.51pt" version="1.1" viewBox="0 0 351.02 280.51" xmlns="http://www.w3.org/2000/svg" xmlns:xlink="http://www.w3.org/1999/xlink">
 <metadata>
  <rdf:RDF xmlns:cc="http://creativecommons.org/ns#" xmlns:dc="http://purl.org/dc/elements/1.1/" xmlns:rdf="http://www.w3.org/1999/02/22-rdf-syntax-ns#">
   <cc:Work>
    <dc:type rdf:resource="http://purl.org/dc/dcmitype/StillImage"/>
    <dc:date>2024-07-04T12:07:38.485882</dc:date>
    <dc:format>image/svg+xml</dc:format>
    <dc:creator>
     <cc:Agent>
      <dc:title>Matplotlib v3.7.1, https://matplotlib.org/</dc:title>
     </cc:Agent>
    </dc:creator>
   </cc:Work>
  </rdf:RDF>
 </metadata>
 <defs>
  <style type="text/css">*{stroke-linejoin: round; stroke-linecap: butt}</style>
 </defs>
 <g id="figure_1">
  <g id="patch_1">
   <path d="m-0 280.51h351.02v-280.51h-351.02v280.51z" fill="none"/>
  </g>
  <g id="axes_1">
   <g id="PatchCollection_1">
    <defs>
     <path id="m7c387b6b7d" d="m321.84-39.487 2.6483 3.8679 2.5063 4.6056 0.93158 2.3198 0.54932 2.191 0.039507 1.9787-0.61783 1.803-1.1707 1.4605-1.5596 1.0946-1.8183 0.68081-1.9772 0.18906-1.5648-0.23013-3.2148-1.2169-3.459-1.986-7.51-4.9397-6.1764-3.1919-6.8645-2.5262-7.5852-2.164-20.334-4.9858-12.59-2.4652-7.9476-1.0808-5.3262-0.50583-4.9647-0.25871-9.7157-0.071583 0.071821-0.43104-0.49404-0.79364-1.6675-1.6514-2.5019-1.9632-6.4984-4.3607-16.458-9.8249-7.1557-3.7265-5.3862-2.4785-3.4029-1.2217-3.4961-0.97606-7.1036-1.3385-7.158-0.75566-18.674-0.95083-6.055-0.71136-4.3192-0.97409-3.0307-0.95806-5.9169-2.438-4.1424-2.0714-4.0756-2.2773-7.2466-4.5605-6.3661-4.4619-7.0034-5.2779-32.758-26.649-38.522-30.418-0.85131-0.32125-0.80465-0.87394-0.60508-1.8549 0.29769-1.905 1.0744-2.1791 2.7004-3.4867 7.9038-8.1392 2.747-3.1382 2.2258-2.9579 3.897-6.5193 1.6368-2.1589 2.831-2.8624 3.2299-2.7683 8.69-6.8897 8.2265-6.0558 4.1119-3.5238 3.9485-4.1719 1.4884-1.9601 1.8546-3.0589 1.1325-2.5679 1.2303-4.1445 0.39561-2.19 0.15681-5.206-0.97637-7.1116-3.7211-16.453-0.25609-1.8129 0.11573-0.71594 11.417 1.267 18.041 2.419 23.586 3.9007 18.889 4.0512 37.65 9.7224 18.079 4.2041 7.4918 1.4324 8.8516 1.3986 24.524 2.8898 6.7082 1.2374 6.064 1.852 5.2082 2.7808 3.3973 3.0383 2.2912 2.8435 2.8299 4.5109 1.5984 2.9671 5.2672 10.877 1.7862 4.7353 1.4143 5.0266 4.7482 22.043 2.5758 8.2104 4.9386 13.452 1.7801 6.5264 1.0384 6.8684 0.042125 4.4934-0.94129 6.1943-1.4365 6.1204-1.0244 6.449 0.0582 6.3651 0.83881 6.1979 1.4573 6.517 1.9708 6.752 2.394 6.8947 2.8518 7.2064 3.1288 7.0846 3.303 6.7532 3.3474 6.138 3.2087 5.1406 2.7906 3.644 1.4085 1.3289 0.82707 0.19565" stroke="#bdc660"/>
    </defs>
    <g clip-path="url(#p290066faae)">
     <use y="280.512" fill="#bdc660" stroke="#bdc660" xlink:href="#m7c387b6b7d"/>
    </g>
   </g>
  </g>
 </g>
 <defs>
  <clipPath id="p290066faae">
   <rect x="7.2" y="7.2" width="336.62" height="266.11"/>
  </clipPath>
 </defs>
</svg>
