<?xml version="1.0" encoding="UTF-8"?>
<!DOCTYPE svg  PUBLIC '-//W3C//DTD SVG 1.1//EN'  'http://www.w3.org/Graphics/SVG/1.1/DTD/svg11.dtd'>
<svg width="330.12pt" height="280.51pt" version="1.1" viewBox="0 0 330.12 280.51" xmlns="http://www.w3.org/2000/svg" xmlns:xlink="http://www.w3.org/1999/xlink">
 <metadata>
  <rdf:RDF xmlns:cc="http://creativecommons.org/ns#" xmlns:dc="http://purl.org/dc/elements/1.1/" xmlns:rdf="http://www.w3.org/1999/02/22-rdf-syntax-ns#">
   <cc:Work>
    <dc:type rdf:resource="http://purl.org/dc/dcmitype/StillImage"/>
    <dc:date>2024-07-04T12:07:59.353157</dc:date>
    <dc:format>image/svg+xml</dc:format>
    <dc:creator>
     <cc:Agent>
      <dc:title>Matplotlib v3.7.1, https://matplotlib.org/</dc:title>
     </cc:Agent>
    </dc:creator>
   </cc:Work>
  </rdf:RDF>
 </metadata>
 <defs>
  <style type="text/css">*{stroke-linejoin: round; stroke-linecap: butt}</style>
 </defs>
 <g id="figure_1">
  <g id="patch_1">
   <path d="m0 280.51h330.12v-280.51h-330.12v280.51z" fill="none"/>
  </g>
  <g id="axes_1">
   <g id="PatchCollection_1">
    <defs>
     <path id="m9b43b172ad" d="m301.61-227.14 0.087586 0.66094 0.48526 2.029 2.0014 7.7984 3.0036 10.711 0.71256 2.7554 0.45808 2.3456 0.21281 2.0827-0.034638 1.806-0.12748 0.86425-0.56726 1.7499-1.6785 3.2168-1.0217 2.3383-1.0096 2.8276-0.40426 1.2788-0.30394 1.2861-0.20013 2.2139-0.055538 9.6419-0.21423 1.502-0.25816 0.95137-0.76837 2.1388-0.58737 1.1589-0.95113 1.2341-2.408 2.5371-1.8093 1.7828-1.2431 1.3772-0.80786 1.2464-1.0085 2.1486-0.37138 0.6489-0.77023 0.96907-0.64505 0.52308-1.3047 0.57934-0.60816 0.14383-2.8381 0.32765-1.8234 0.29963-1.8659 0.56962-1.7399 0.93656-1.0668 0.92288-1.0962 1.3578-0.81689 1.6083-0.18215 0.55685-0.34721 2.5178 0.17355 2.8205 0.55474 3.0381 0.8279 3.1913 1.0172 3.2955 1.1401 3.362 3.6352 10.2 1.1189 3.3516 0.9764 3.278 0.75585 3.1643 0.43413 2.9982-0.020026 2.7631-0.64729 2.4371-1.1511 1.7339-1.6395 1.4307-2.4384 1.3184-2.8433 1.003-3.1326 0.77481-3.3359 0.6122-3.4762 0.49814-3.5707 0.41969-7.3024 0.7005-18.404 1.5727-7.1276 0.78784-3.4249 0.49568-3.2767 0.60564-3.0672 0.76193-2.7749 0.98101-2.3717 1.2841-1.8224 1.6981-1.0908 2.0135-0.63613 2.3614-0.32735 2.6043-0.33631 8.4338-0.2708 2.7725-0.55108 2.6284-0.97789 2.3971-1.6814 2.2685-2.2186 1.9752-2.6166 1.7637-2.9055 1.6179-3.1077 1.5257-9.8631 4.4614-3.2584 1.5871-3.1211 1.7153-2.8825 1.903-2.5136 2.1616-1.9839 2.4992-1.3073 2.7814-0.8232 3.0121-0.50541 3.0623-0.66235 5.3125-0.33951 1.5415-0.16228 0.40243-0.11944 0.073925-0.27757 0.30795-0.46338 0.25129-0.40702 0.11328-0.88533 0.071249-1.2233-0.17005-0.74569-0.24604-0.64788-0.31211-0.75749-0.49502-0.86846-0.74476-2.7859-3.077-0.83223-0.82608-1.225-1.034-1.2503-0.78962-0.7177-0.31221-0.58206-0.17215-1.629-0.13252-3.584 0.34186-1.7256 0.006373-1.2287-0.063593-10.267-0.79454-1.5991-0.2162-4.2765-0.80464-1.2605-0.13296-0.82889 0.00586-0.93212 0.1419-1.4215 0.59861-0.77108 0.5178-2.732 2.244-0.76703 0.5335-1.1211 0.61131-0.97612 0.36302-0.83898 0.21395-1.3339 0.20312-7.5873 0.53422-2.1908 0.10185-2.5487 0.034192-2.5225-0.20074-2.5612-0.4369-1.4011-0.32928-9.5587-2.5625-1.8303-0.56773-2.8801-1.1011-2.7495-1.2784-2.4503-1.2896-4.0185-2.2911-8.4997-5.0119-7.0503-3.8735-2.5882-1.3516-3.0734-1.4102-9.022-3.7304-1.2164-0.35211-0.39652-0.06093-0.57793 0.09316-0.012265 0.10751-0.61214-0.21217-1.5138-0.23062-4.6318-0.63788-2.559-0.27-2.5059-0.13057-4.8078 0.08802-1.9108-0.19902-1.6814-0.607-0.97644-0.71675-0.84107-0.94819-1.1605-2.1073-0.59684-1.7185-0.44857-1.8764-0.28405-1.7491-0.19557-1.8168-0.1608-2.7283-0.044875-3.0464 0.16077-2.8927 0.26737-2.0044 0.2037-1.0795 0.75152-2.8947 1.0071-2.8389 1.2299-2.7642 1.4369-2.6675 1.643-2.5441 1.6057-2.1161 2.2229-2.6478 4.1884-4.7293 1.8346-2.1618 1.4601-1.8829 2.2701-3.267 3.2158-5.0447 2.1242-3.6255 0.94781-1.7824 2.4842-4.987 0.61991-1.3457 0.52159-1.4212 0.27424-1.1532 0.15129-1.6558-0.086876-2.0891-0.16368-1.0807-0.45922-1.7907-1.079-3.4936-0.38457-1.0203-1.0867-2.3979-0.64316-1.5803-1.4997-4.8899-0.42747-1.7895-0.35304-1.823-0.22017-2.0001-0.034365-1.2943 0.14948-1.9112 0.19435-1.0376 0.30147-1.0938 0.61681-1.7662 1.4776-3.2752 0.9062-2.6629 0.78867-2.0872 0.37095-1.189 0.24688-1.1689 0.55619-3.5866 1.0792-4.5718 0.39773-1.9983 0.11559-1.2301-0.04128-0.63436-0.14076-0.33592 0.14722-1.0529 0.058394-4.0059 0.11161-1.9078 0.12763-1.0867 0.38136-1.9885 0.42515-1.4473 0.7745-1.7792 1.7587-3.3088 0.64575-1.5286 0.28628-0.79887 0.42524-1.5086 0.24877-1.2927 0.10906-1.6086-0.18297-3.8763 0.014361-1.0381 0.16712-0.97847 0.35812-0.88608 0.72551-1.0607 1.1151-1.1399 3.7838-3.4327 4.428-3.7111 0.40677-0.46751 0.47739-0.69926 0.30866-0.58946 0.67305-1.5845 0.93135-1.4263 0.68357-1.2602 0.26635-0.33715 0.49069-0.42589 0.60578-0.35878 1.6823-0.75721 0.5284-0.35912 0.33131-0.306 0.53149-0.66753 1.057-1.9413 0.62493-0.88661 0.37717-0.38282 0.64696-0.52222 1.6311-1.2092 0.96079-0.96643 0.83648-1.0602 3.3788-4.7171 0.95116-1.1681 2.4909-2.7866 0.74125-0.96339 0.37436-0.60286 0.088245-0.32943 0.32666-0.39298 1.6783-1.4816 1.4623-1.0261 4.2811-2.647 1.8287-1.2801 1.8055-1.411 4.4194-3.7014 2.3487-1.783 1.7924-1.0886 1.3828-0.60325 1.4608-0.39195 1.5976-0.16843 1.1647 0.018062 1.0686 0.1031 1.3976 0.28251 1.2697 0.41405 1.1042 0.49017 0.98054 0.55175 0.96983 0.68369 1.025 0.92342 1.4548 1.8095 0.77541 1.2152 1.0418 2.0029 1.5411 3.4665 0.56998 1.5387 0.48482 1.5791 0.50393 2.4697 0.1566 2.8731-0.14198 2.8017-0.90792 8.9497-0.12152 2.1232-0.01675 1.9825 0.16932 3.396-0.007862 1.7628-0.17299 1.7406-0.26077 1.4255-0.38348 1.6598-0.45953 1.6098-0.5165 1.4419-0.63764 1.3362-1.0058 1.4706-2.4866 2.8762-0.74306 1.0587-0.59739 1.0216-0.67321 1.395-0.75255 1.9887-0.44208 1.4732-0.63132 2.7906-0.13711 1.1244-0.052647 1.4827 0.029822 1.1099 0.21846 3.1051 0.18108 1.2631 0.48996 1.6219 0.42415 0.97071 1.4259 2.7896 1.8012 4.2747 0.42397 1.2602 0.19794 0.75984 0.2385 1.9981-0.34121 1.9288-0.25175 0.63724-1.0413 1.8079-0.72614 0.93773-1.5553 1.4794-0.7738 0.58083-2.2327 1.4473-2.1733 1.2353-3.8925 2.0822-4.6476 2.276-0.80387 0.50976-0.56825 0.50496-0.37839 0.45723-0.27665 0.45191-0.23572 0.6117-0.069609 0.44658 0.010478 0.36013 0.14038 0.58039 0.28762 0.55345 0.37237 0.4519 0.38117 0.33539 1.6117 0.84265 1.2441 0.33851 1.6512 0.21642 1.9685 0.05685 3.1311-0.11923 3.4966-0.21912 4.1793-0.36222 3.6803-0.47711 10.229-1.6479 3.1283-0.62885 2.3906-0.55979 2.9725-0.75806 2.1193-0.62525 1.7644-0.68244 1.046-0.53145 1.2304-0.82663 0.59416-0.51942 0.93125-1.0766 0.77676-1.2037 2.7074-5.2908 2.2725-5.2965 1.1171-2.2291 0.98536-1.7021 1.4852-2.232 1.6497-2.0509 2.145-2.0929 3.5852-2.8906 1.7569-1.2747 1.857-1.0497 2.1955-0.79515 5.848-1.4553 2.3207-0.96363 1.1907-0.75342 1.694-1.4061 2.1724-2.3763 0.91287-1.2476 1.3095-2.0529 2.7385-4.5765 1.0851-1.6745 1.0396-1.4838 1.7634-2.285 1.8333-2.0811 1.8778-1.8013 3.0877-2.4071 2.8735-2.0176 1.3594-1.1647 0.75144-1.1509 0.37537-1.2662 0.21439-1.3616 0.31931-1.4604 0.26238-0.73497 0.73046-1.462 0.73852-1.1174 1.2142-1.4473 1.4161-1.304 0.96454-0.70453 2.0466-1.0913 1.4304-0.48223 1.4664-0.31367 7.8562-0.80637 1.556-0.10374 3.672-0.063193 2.1198 0.041915 4.9821 0.22846 5.4829 0.37991 9.6013 0.82713 13.341 1.3002 5.3826 0.61652 5.9765 0.79489 5.7029 0.88541 4.6658 0.83628 4.9132 1.0177 4.0628 0.97284 1.0483 0.31838" stroke="#bdc660"/>
    </defs>
    <g clip-path="url(#p003699bd7f)">
     <use y="280.512" fill="#bdc660" stroke="#bdc660" xlink:href="#m9b43b172ad"/>
    </g>
   </g>
  </g>
 </g>
 <defs>
  <clipPath id="p003699bd7f">
   <rect x="7.2" y="7.2" width="315.72" height="266.11"/>
  </clipPath>
 </defs>
</svg>
