<?xml version="1.0" encoding="UTF-8"?>
<!DOCTYPE svg  PUBLIC '-//W3C//DTD SVG 1.1//EN'  'http://www.w3.org/Graphics/SVG/1.1/DTD/svg11.dtd'>
<svg width="371.52pt" height="233.05pt" version="1.1" viewBox="0 0 371.52 233.05" xmlns="http://www.w3.org/2000/svg" xmlns:xlink="http://www.w3.org/1999/xlink">
 <metadata>
  <rdf:RDF xmlns:cc="http://creativecommons.org/ns#" xmlns:dc="http://purl.org/dc/elements/1.1/" xmlns:rdf="http://www.w3.org/1999/02/22-rdf-syntax-ns#">
   <cc:Work>
    <dc:type rdf:resource="http://purl.org/dc/dcmitype/StillImage"/>
    <dc:date>2024-07-04T12:08:00.455433</dc:date>
    <dc:format>image/svg+xml</dc:format>
    <dc:creator>
     <cc:Agent>
      <dc:title>Matplotlib v3.7.1, https://matplotlib.org/</dc:title>
     </cc:Agent>
    </dc:creator>
   </cc:Work>
  </rdf:RDF>
 </metadata>
 <defs>
  <style type="text/css">*{stroke-linejoin: round; stroke-linecap: butt}</style>
 </defs>
 <g id="figure_1">
  <g id="patch_1">
   <path d="m0 233.05h371.52v-233.05h-371.52v233.05z" fill="none"/>
  </g>
  <g id="axes_1">
   <g id="PatchCollection_1">
    <defs>
     <path id="m55e1945e4f" d="m293.08-207.64 2.5477 2.7961 2.6292 3.0594 1.5032 1.8658 2.2004 2.9675 1.6026 2.3845 1.1894 1.9344 1.2466 2.234 0.88456 1.7627 1.2686 2.8862 0.62861 1.6516 0.65258 2.0008 0.47852 1.8328 0.38617 2.2098 0.10418 1.4421-0.061245 1.5334-0.13708 0.9834-0.90718 3.8908-0.24609 1.3869-0.087156 1.3998 0.051033 0.89451 0.54758 2.3236 0.77474 1.8214 1.2259 2.1502 1.5329 2.1745 1.1739 1.458 1.2638 1.4331 2.989 2.9804 2.1744 1.8838 1.7504 1.3676 5.7425 4.044 1.506 1.154 2.0224 1.8052 1.0782 1.1502 1.4408 1.8496 0.91136 1.4541 0.53922 1.0172 0.96868 2.2613 0.59201 1.8031 2.6178 9.8769 1.9299 6.6972 1.6654 5.0926 2.1178 5.9467 0.99008 3.1628 0.93765 3.6662 0.44398 2.5952 0.13355 1.5592 6.58e-4 1.5117-0.25936 2.1993-1.6045 7.94-0.57696 2.2821-0.58463 1.6394-0.77813 1.5769-1.6382 2.2602-2.0824 2.1087-2.4084 2.0109-1.5732 1.1872-4.221 2.8997-1.6311 1.03-3.6106 2.1237-10.211 5.5916-1.9993 1.2071-1.8547 1.2433-1.6749 1.2948-1.7813 1.6779-1.6328 2.0463-1.4327 2.679-0.82154 2.2899-0.55228 2.2078-0.37203 2.237-0.27521 3.7156-0.001113 1.8649 0.10038 2.1195 0.14631 1.5638 0.20515 1.497 0.23828 1.1628 0.094358 0.19985-0.61084 0.22883-3.1218 1.5572-1.2404 0.5556-2.2056 0.75676-1.5018 0.36684-5.1947 0.92308-3.751 0.53478-3.0503 0.22954-2.3078-0.020324-1.9022-0.16182-3.4425-0.52869-2.9897-0.58725-2.8409-0.71074-5.9996-1.9129-3.0937-1.218-4.0173-1.7149-2.2954-0.83719-4.0879-1.1487-4.6007-1.0749-3.6275-0.58858-7.7097-0.67189-3.8953-0.13442-3.8303 0.070803-2.5266 0.2564-2.2968 0.44774-1.5292 0.39494-2.5038 0.83796-4.3066 1.8548-2.6101 0.99134-2.326 0.74005-2.873 0.74487-2.4733 0.48731-1.9283 0.27358-6.6366 0.48906-3.205 0.43316-3.5467 0.82-8.4424 2.5022-3.4715 0.9314-2.7708 0.64042-4.2346 0.78799-5.5495 0.62269-3.5622 0.55117-2.192 0.45028-5.5034 1.4267-1.9915 0.40601-2.7304 0.28814-1.8769-0.009421-1.6295-0.17305-0.89361-0.19759-1.8294-0.67303-1.1646-0.63528-0.68824-0.47064-1.1572-0.96005-1.2019-1.1946-2.4418-2.7166-1.5039-1.5357-0.97501-0.87251-1.5383-1.1905-2.2727-1.4612-2.3468-1.2231-2.3116-0.99609-2.7387-0.98327-1.6534-0.4492-3.9848-0.842-5.4899-1.2565-8.9096-2.1243-2.9701-0.83061-3.9972-1.3021-4.3465-1.3049-2.049-0.54149-1.998-0.4428-3.3427-0.56742-2.6172-0.34064-4.4444-0.3731-1.8982-0.074628-2.6596 0.008202-1.8605 0.10928-1.03 0.12032-0.25817 0.086213-0.13454-0.3018-0.56888-0.46726-0.85504-0.54012-1.5746-0.81568-4.7554-2.1453-1.4851-0.8593-1.0424-0.87182-0.48767-0.56007-1.4444-2.0223-0.66457-0.80113-1.4457-1.3952-1.5106-1.1822-2.3781-1.6123-1.488-0.77752-0.72387-0.25377-0.65068-0.14462-1.4199-0.075231-1.5102 0.17227-2.4363 0.50208-1.712 0.55221-0.60372 0.28644-1.0467 0.6796-2.0036 1.838-0.98367 0.75523-2.8785 1.5963-0.6597 0.26619-0.59079 0.15778-0.58494 0.0804-2.1334-3.68e-4 -1.1204 0.24054-0.79443 0.29338-1.3115 0.62737-1.4626 0.82623-0.66392 0.41753 0.20108-1.0164 0.14982-1.4339 0.043518-1.709-0.10519-1.9197-0.34048-3.7778-0.077842-1.7561 0.083269-2.2581 0.28338-2.0464 0.70997-2.5793 0.62076-1.4407 0.75983-1.3696 1.1317-1.6174 1.3082-1.4797 1.4738-1.3205 1.4245-1.016 1.5701-0.91833 1.6526-0.81254 1.9246-0.80948 1.9805-0.7215 2.2756-0.72536 2.301-0.64784 14.218-3.4413 2.0551-0.42732 2.0956-0.34817 2.1152-0.26894 5.7718-0.50469 2.4642-0.04835 2.9515 0.07989 4.444 0.26975 3.8299 0.32109 8.9523 0.9744 12.761 1.7478 4.3182 0.40552 2.1594 0.11248 2.0487 0.030619 2.0355-0.060338 1.8583-0.15208 1.8329-0.2601 2.1496-0.47617 2.4352-0.81362 1.4751-0.66677 1.408-0.78959 1.9107-1.3908 1.6427-1.6112 1.4772-1.8256 1.3592-1.9998 1.5308-2.6307 1.7236-3.4986 1.1356-2.6859 0.33048 0.31146 0.94681 0.076458 1.391-0.1075 1.5031-0.23673 3.3637-0.7904 2.1475-0.65349 3.4678-1.3273 2.1629-1.0484 1.2106-0.68769 1.7212-1.1434 1.336-1.0507 1.2235-1.1105 0.92639-0.94916 0.95396-1.0839 1.0418-1.3174 1.9066-2.8122 1.1318-1.9387 0.87575-1.6548 1.3519-2.8233 1.7003-4.0393 1.9717-5.5123 0.98852-3.071 2.8951-9.6869 1.1998-3.5612 1.1319-2.8608 0.80012-1.7371 0.88247-1.6753 1.3473-2.1345 1.1765-1.5177 1.2954-1.4375 1.4244-1.4021 1.5092-1.3472 1.8366-1.5057 4.0712-2.9968 2.7321-1.8278 4.6598-2.9116 13.026-7.6376 4.7085-2.8764 4.3044-2.8796 2.2384-1.6419 2.3644-1.8973 2.2015-1.9931 2.0662-2.1983 1.7752-2.3564 1.6098-2.8681 1.0354-2.2902 1.7373-4.1889 0.88539-1.9209 0.79384-1.4794 0.99518-1.5349 1.0225-1.2689 0.7996-0.8425 1.4056-1.263 1.2957-0.98621 1.132-0.75619 1.5388-0.90119 1.2072-0.61928 1.7568-0.77684 1.2465-0.46636 1.6135-0.50273 1.9345-0.4464 1.5186-0.21811 2.1878-0.10526 1.9148 0.066569 1.7322 0.15182 4.4903 0.65872 2.8153 0.54106 4.749 1.0515 8.6326 2.1518 3.6361 1.0051 8.2526 2.4928 0.75086 0.15244" stroke="#bdc660"/>
    </defs>
    <g clip-path="url(#p5d048b2bb8)">
     <use y="233.053204" fill="#bdc660" stroke="#bdc660" xlink:href="#m55e1945e4f"/>
    </g>
   </g>
  </g>
 </g>
 <defs>
  <clipPath id="p5d048b2bb8">
   <rect x="7.2" y="7.2" width="357.12" height="218.65"/>
  </clipPath>
 </defs>
</svg>
