<?xml version="1.0" encoding="UTF-8"?>
<!DOCTYPE svg  PUBLIC '-//W3C//DTD SVG 1.1//EN'  'http://www.w3.org/Graphics/SVG/1.1/DTD/svg11.dtd'>
<svg width="283.44pt" height="280.51pt" version="1.1" viewBox="0 0 283.44 280.51" xmlns="http://www.w3.org/2000/svg" xmlns:xlink="http://www.w3.org/1999/xlink">
 <metadata>
  <rdf:RDF xmlns:cc="http://creativecommons.org/ns#" xmlns:dc="http://purl.org/dc/elements/1.1/" xmlns:rdf="http://www.w3.org/1999/02/22-rdf-syntax-ns#">
   <cc:Work>
    <dc:type rdf:resource="http://purl.org/dc/dcmitype/StillImage"/>
    <dc:date>2024-07-04T12:07:39.065805</dc:date>
    <dc:format>image/svg+xml</dc:format>
    <dc:creator>
     <cc:Agent>
      <dc:title>Matplotlib v3.7.1, https://matplotlib.org/</dc:title>
     </cc:Agent>
    </dc:creator>
   </cc:Work>
  </rdf:RDF>
 </metadata>
 <defs>
  <style type="text/css">*{stroke-linejoin: round; stroke-linecap: butt}</style>
 </defs>
 <g id="figure_1">
  <g id="patch_1">
   <path d="m0 280.51h283.44v-280.51h-283.44v280.51z" fill="none"/>
  </g>
  <g id="axes_1">
   <g id="PatchCollection_1">
    <defs>
     <path id="mc53895ceb6" d="m264.01-75.125-43.375 55.829-10.025-18.697-1.7387-2.6017-1.3024-1.2701-0.73265-0.38231-0.73538-0.15403-0.78506-0.003597-4.2201 0.77241-5.5387 0.024611-1.9837 0.28646-4.3952 1.2003-7.3612 2.4797-0.47481-0.11232-0.80862-0.76292-1.6021-2.092-1.8421-2.9512-1.9217-3.5238-1.8962-3.877-1.7962-4.0672-1.6372-4.1371-1.3744-3.9581-1.1314-3.8762-0.83662-3.7413-0.48155-3.5581-0.033412-3.6542 0.58809-3.7023 0.8247-3.5137 0.54038-3.5561-0.024184-2.5796-0.59616-3.9431-1.0219-3.7467-2.8352-7.7225-1.4788-4.7135-2.7259-12.654-0.81193-2.8857-1.0254-2.7185-3.0239-6.2446-0.91764-1.7034-1.6246-2.5897-1.3154-1.6324-1.9503-1.7443-2.99-1.5964-3.4813-1.0632-3.8511-0.71036-14.079-1.659-5.0816-0.80291-4.301-0.82231-10.379-2.4135-21.615-5.5815-10.844-2.3257-13.54-2.2393-10.357-1.3887-6.5546-0.72736-0.23679-2.5781-0.45816-2.727-1.1672-5.1124-1.2886-3.9779-1.7166-3.9641-1.805-3.0097-1.0506-1.3207-5.5796-5.3964-2.4679-2.6523-1.0709-1.3146-1.7628-2.5343-1.6172-3.0703-1.1232-3.2309-0.54712-2.8868-0.18485-2.8795 0.034242-1.5541 0.38598-3.0376 0.38834-1.4567 0.47064-1.224 1.3101-2.2967 0.83671-1.052 0.82504-0.84865 1.7658-1.4188 2.6434-1.5173 3.2663-1.381 4.9659-1.6593 19.521-5.5635 4.1839-0.017616 7.9448-0.61052 3.931-0.42878 2.1527-0.3964 6.3527-1.5324 7.4631-1.256 2.5557-0.72524 3.0476-1.3373 2.5364-1.3456 18.26-10.768 9.4051-5.211 0.2077 0.39687 2.747 0.31427 4.1385-0.22005 5.1735-0.56816 16.776-2.1932 8.1144-0.64564 3.8898-0.073366 2.6436 0.073115 3.3201 0.2659 3.3213 0.49816 4.6245 1.1959 3.8925 1.6749 1.9933 1.2617 1.1847 0.94831 0.81394 0.76807 2.2897 2.9265 1.9144 3.4888 2.135 4.2407 4.7973 8.05 1.3787 3.2347 0.45102 1.7158 1.0538 10.217 0.28044 1.5278 1.2453 4.3297 1.8575 4.2199 2.4056 3.9022 2.9272 3.3557 3.4585 2.546 0.9047 0.45431 3.9166 1.2486 4.6552 0.58898 8.9911 0.20563 1.9523 0.1655 3.7887 0.79398 3.4744 1.5436 2.6425 2.0388 2.3255 2.5805 2.0798 2.9856 1.6869 2.9706 1.3053 2.9391 0.72578 1.9552 1.7511 5.5564 1.5188 6.0465 1.2313 6.4352 0.81084 5.9939 0.58278 6.1852 0.40699 6.3257 0.45706 13.616 0.18797 19.56 0.34743 6.1961 0.63871 6.1874 0.84915 6.0336 0.97624 5.6723 1.0407 5.1212 0.98738 3.9629 0.69786 1.9407 0.36217 0.34735" stroke="#bdc660"/>
    </defs>
    <g clip-path="url(#p727e77778b)">
     <use y="280.512" fill="#bdc660" stroke="#bdc660" xlink:href="#mc53895ceb6"/>
    </g>
   </g>
  </g>
 </g>
 <defs>
  <clipPath id="p727e77778b">
   <rect x="7.2" y="7.2" width="269.04" height="266.11"/>
  </clipPath>
 </defs>
</svg>
