<?xml version="1.0" encoding="UTF-8"?>
<!DOCTYPE svg  PUBLIC '-//W3C//DTD SVG 1.1//EN'  'http://www.w3.org/Graphics/SVG/1.1/DTD/svg11.dtd'>
<svg width="370.87pt" height="280.51pt" version="1.1" viewBox="0 0 370.87 280.51" xmlns="http://www.w3.org/2000/svg" xmlns:xlink="http://www.w3.org/1999/xlink">
 <metadata>
  <rdf:RDF xmlns:cc="http://creativecommons.org/ns#" xmlns:dc="http://purl.org/dc/elements/1.1/" xmlns:rdf="http://www.w3.org/1999/02/22-rdf-syntax-ns#">
   <cc:Work>
    <dc:type rdf:resource="http://purl.org/dc/dcmitype/StillImage"/>
    <dc:date>2024-07-04T12:08:05.097031</dc:date>
    <dc:format>image/svg+xml</dc:format>
    <dc:creator>
     <cc:Agent>
      <dc:title>Matplotlib v3.7.1, https://matplotlib.org/</dc:title>
     </cc:Agent>
    </dc:creator>
   </cc:Work>
  </rdf:RDF>
 </metadata>
 <defs>
  <style type="text/css">*{stroke-linejoin: round; stroke-linecap: butt}</style>
 </defs>
 <g id="figure_1">
  <g id="patch_1">
   <path d="m0 280.51h370.87v-280.51h-370.87v280.51z" fill="none"/>
  </g>
  <g id="axes_1">
   <g id="PatchCollection_1">
    <defs>
     <path id="mf9358bd57c" d="m342.14-110.92-0.21896 0.04814-0.20023-0.026039-1.1863-0.15516-5.9325-1.2961-7.9562-1.5976-7.8602-2.0053-2.8496-0.5807-1.9542-0.22384-1.8683-0.019233-1.806 0.10527-5.0562 0.35412-1.6154 0.28156-1.0952 0.32488-2.6357 1.1439-1.5065 0.82948-4.3529 2.6852-5.3285 2.9342-3.8641 2.322-2.2205 1.4535-3.4939 2.4755-8.3994 6.5092-5.4398 4.031-5.6912 3.8287-3.9635 2.4144-4.3373 2.4053-4.6305 2.3485-14.356 6.5058-4.6856 2.2969-5.3407 2.7802-0.52108 0.049204-1.1733 0.63841-1.8681 1.2303-2.211 1.6073-5.6681 4.5752-9.044 7.8186-2.9317 2.2043-1.9555 1.2638-1.958 1.0769-1.8111 0.80788-1.7991 0.60523-1.1724 0.2828-2.07 0.32648-2.0667 0.094969-2.0395-0.17741-2.4914-0.64438-2.395-1.0165-2.2794-1.2766-4.7334-2.9981-2.0483-0.97773-2.1926-0.83336-2.3042-0.72403-2.2341-0.60126-4.3987-0.94139-2.1348-0.34111-4.0773-0.42438-2.5625-0.1093-2.5567 0.023912-3.2698 0.25419-3.2043 0.53823-3.0994 0.87931-2.637 1.1166-2.5169 1.4022-1.7242 1.1541-1.4858 1.1177-2.471 2.1355-2.3621 2.3112-6.8506 7.2378-2.3263 2.2725-2.4074 2.0666-1.7201 1.2791-4.0152 2.7357-2.0818 1.2894-9.3839 5.2323-4.8995 2.9313-3.0471 1.9563-3.2277-0.61697-1.8295-0.49103-2.5619-1.0491-1.9854-1.308-0.6483-0.62824-0.87188-1.1904-0.61783-1.3164-0.54261-2.9614 0.052259-2.0402 0.35112-2.3596 0.59588-2.3925 1.8027-5.9856 1.6019-5.7885 0.37878-1.8291 0.18793-1.5129-0.08608-1.1446-0.24274-0.61573-0.38344-0.33886-0.57932-0.11073-0.54469 0.074588-0.97567 0.30049-3.466 1.4182-0.98374 0.28756-1.1018 0.044897-0.7231-0.24614-0.37939-0.24297-0.58759-0.62303-0.76324-1.5428-0.98428-2.7963-0.79836-1.9149-1.1747-1.9414-1.3422-1.5328-1.6471-1.478-2.4163-1.795-3.0845-1.8929-2.3751-1.2408-2.9185-1.336-2.3796-0.97464-10.953-4.0618-3.2678-1.3175-2.0435-0.93375-1.9241-1.0319-2.1964-1.503-1.8747-1.8012-2.0129-3.1623-1.3776-3.7646-0.89936-4.2374-0.54153-4.6094-0.27456-4.9002-0.075338-5.1196 0.073659-5.2659 0.18478-5.3227 0.57915-10.251 0.65414-9.0284-0.045104-0.61619 4.4112-2.9405 22.629-14.574 9.5987-6.3392 10.489-7.2524 7.4591-5.5438 5.7568-4.5407 4.015-3.2934 7.844-6.6586 11.489-10.068 22.624-20.107 7.5374-6.5255 3.9026-3.265 3.9061-3.1552 3.9044-3.0028 3.897-2.7897 3.8832-2.4928 3.8614-2.0826 3.14-1.3029 2.0112-0.60965 1.9824-0.39348 3.099-0.17693 1.3528 0.047436 2.8303 0.3 2.4598 0.39041 2.4732 0.5642 2.4059 0.78689 2.3862 0.98527 4.9153 2.3294 3.7381 1.5664 3.2214 1.1852 3.3337 0.97581 4.0753 0.73965 4.1998 0.40909 12.997 0.75662 4.3594 0.21288 4.1876-0.12334 2.6879-0.38293 2.5544-0.59176 6.1074-1.854 2.0768-0.42672 2.8523-0.16796 5.9259 0.16465 3.1347-0.27924 3.2513-0.8671 3.3518-1.4171 3.3946-1.8698 3.3713-2.2376 3.2707-2.527 4.3878-3.9373 3.1181-3.1737 2.5529-3.1799 1.0955-1.6194 0.85986-1.4408 0.69096-1.4049 0.12359-0.68002 4.7491 3.6736 3.4415 2.9793 1.7772 1.7137 2.3377 2.5283 2.4116 3.2654 1.6667 3.4954 0.7405 4.2297-0.29236 4.4739-0.37301 1.9379-0.65437 2.5064-1.6046 4.6289-1.9831 4.6576-2.2191 4.6569-6.9208 13.595-2.1055 4.377-1.8515 4.2747-1.4766 4.1358-0.95155 3.9462-0.16132 1.1858-0.097196 1.7492 0.053082 1.2114 0.36958 2.0834 1.0124 2.6144 1.4671 2.2084 1.8105 1.6965 2.0651 1.0499 2.07 0.31142 2.3545-0.21953 1.0213-0.22744 1.4537-0.48653 2.5413-1.438 4.6996-3.5785 2.2285-1.268 0.82172-0.26036 0.83457-0.13 1.6101 0.22033 1.533 0.93907 0.35016 0.36596 0.67656 1.0696 0.44803 1.3984 0.1617 0.89774 0.15157 2.0186-0.029721 5.2275 0.1871 2.4951 0.81592 6.7064 0.3933 2.0043 0.57535 1.954 1.3854 2.8254 1.9042 2.5832 0.47422 0.52747 1.9467 1.8798 1.9481 1.6186 2.3188 1.5838 3.3918 2.0231 2.6232 1.6841 4.496 3.5836 4.0122 3.4727 1.9831 2.0143 1.5544 1.9043 1.8578 2.6272 1.8199 3.0033 0.9067 2.0584 0.47806 1.5743 0.17704 1.0402 0.04843 1.0423-0.2659 1.6912-0.2333 0.6433-0.6931 1.2467-0.46755 0.59781-0.85346 0.85479-1.7595 1.1094-1.0549 0.23195" stroke="#bdc660"/>
    </defs>
    <g clip-path="url(#pf8ce0c3162)">
     <use y="280.512" fill="#bdc660" stroke="#bdc660" xlink:href="#mf9358bd57c"/>
    </g>
   </g>
  </g>
 </g>
 <defs>
  <clipPath id="pf8ce0c3162">
   <rect x="7.2" y="7.2" width="356.47" height="266.11"/>
  </clipPath>
 </defs>
</svg>
