<?xml version="1.0" encoding="UTF-8"?>
<!DOCTYPE svg  PUBLIC '-//W3C//DTD SVG 1.1//EN'  'http://www.w3.org/Graphics/SVG/1.1/DTD/svg11.dtd'>
<svg width="186.25pt" height="280.51pt" version="1.1" viewBox="0 0 186.25 280.51" xmlns="http://www.w3.org/2000/svg" xmlns:xlink="http://www.w3.org/1999/xlink">
 <metadata>
  <rdf:RDF xmlns:cc="http://creativecommons.org/ns#" xmlns:dc="http://purl.org/dc/elements/1.1/" xmlns:rdf="http://www.w3.org/1999/02/22-rdf-syntax-ns#">
   <cc:Work>
    <dc:type rdf:resource="http://purl.org/dc/dcmitype/StillImage"/>
    <dc:date>2024-07-04T12:07:50.830918</dc:date>
    <dc:format>image/svg+xml</dc:format>
    <dc:creator>
     <cc:Agent>
      <dc:title>Matplotlib v3.7.1, https://matplotlib.org/</dc:title>
     </cc:Agent>
    </dc:creator>
   </cc:Work>
  </rdf:RDF>
 </metadata>
 <defs>
  <style type="text/css">*{stroke-linejoin: round; stroke-linecap: butt}</style>
 </defs>
 <g id="figure_1">
  <g id="patch_1">
   <path d="m0 280.51h186.25v-280.51h-186.25v280.51z" fill="none"/>
  </g>
  <g id="axes_1">
   <g id="PatchCollection_1">
    <defs>
     <path id="me448cc9b24" d="m82.557-257.98 0.092617 0.65208-0.6902 4.0841-1.5208 7.3559-1.1601 4.603-0.73852 2.1753-0.87908 2.042-3.3854 6.1167-2.3458 5.0341-1.7895 4.6516-1.2814 4.115-0.58695 2.2992-2.441 11-0.774 4.5453-0.20747 3.6791 0.085085 2.1088 0.50934 3.5563 1.2101 4.2641 7.062 19.182 0.86327 1.8845 1.0252 1.8142 1.7851 2.3835 1.1833 1.1965 1.1073 0.90951 2.5713 1.5894 1.8849 0.87268 4.0804 1.4609 7.068 1.8952 9.4921 2.1708 2.0135 0.30272 0.68879-0.011032 0.40639-0.11922-0.037521-0.31512 3.4176 1.2416 2.1214 0.9571 2.1958 1.141 6.9499 4.1178 2.2187 1.4677 2.1541 1.7896 1.5603 1.6856 1.7866 2.3685 1.1962 1.8835 1.1881 2.2001 1.016 2.333 0.93794 2.7144 0.90087 3.1758 1.0159 4.2914 1.678 8.853 1.4947 9.2405 1.5333 6.8219 1.6855 8.5717 1.2178 9.1093 0.27365 1.3657 0.77154 2.6688 2.1548 5.4389 2.4924 5.8803 5.5236 14.019 2.0342 4.515 1.4058 2.745 2.9777 5.1926 2.8432 4.4605 4.406 6.5762 1.8717 3.1346 0.30266 0.6339 0.069393 0.43758-11.536 0.14993-16.85-0.36049-13.67 0.085111-3.2973-0.16679-3.1637-0.47908-1.4975-0.4392-1.3727-0.5958-1.3016-0.74041-2.3932-1.8004-3.5306-3.0779-3.7288-2.5732-2.7881-1.5061-2.2923-1.0884-9.2905-3.9143-2.3528-1.3936-0.64516-0.63654-0.093283-0.18945 0.078533-0.37084 1.0569-1.9646 5.7237-7.6152 2.3703-3.8381 2.8081-5.5406 2.1706-4.9305 0.88835-2.2879 1.1457-3.9115 0.37441-2.1776 0.10671-1.497-0.083828-1.7072-0.3891-1.8487-0.48284-1.2645-0.87075-1.4575-1.4322-1.556-11.019-8.9334-3.4542-3.2524-2.0113-2.3929-3.6433-5.1507-2.217-3.5468-3.274-5.69-2.2678-3.3889-1.2328-1.5865-1.5881-1.8245-2.0294-2.0937-3.5133-3.2069-1.9213-1.5262-2.1944-1.5299-3.2161-1.8887-2.9447-1.4841-4.3652-1.9572-9.0039-3.6111-17.738-6.4018-5.6658-2.2153-2.2022-1.034-2.3605-1.4318-1.3106-1.2413-0.72024-1.4005 0.046105-2.0406 0.94517-2.2971 1.0565-1.7015 1.3151-1.7847 1.8865-2.2871 9.8912-10.866 5.0007-5.68 2.3322-2.3735 2.0255-1.7663 5.9719-4.7855 2.4263-2.618 0.92913-1.5555 0.58167-1.4111 0.51301-1.8221 0.31169-1.6393 0.33086-2.9165 0.20759-4.4378 0.084358-7.4911 0.20898-3.3757 1.7008-10.747 0.36486-3.3185 0.81899-18.364 0.32169-10.392-4.79e-4 -6.1377-0.16572-1.6678-0.11519-0.24016 0.18927-0.11345 0.37775-0.002835 3.6546 0.45702 1.1103 0.005589 1.0109-0.20052 1.7168-0.63319 1.6148-0.082171 2.3011 0.34076 7.732 1.5815 8.8483 1.3159" stroke="#bdc660"/>
    </defs>
    <g clip-path="url(#p12c43e2040)">
     <use y="280.512" fill="#bdc660" stroke="#bdc660" xlink:href="#me448cc9b24"/>
    </g>
   </g>
  </g>
 </g>
 <defs>
  <clipPath id="p12c43e2040">
   <rect x="7.2" y="7.2" width="171.85" height="266.11"/>
  </clipPath>
 </defs>
</svg>
