<?xml version="1.0" encoding="UTF-8"?>
<!DOCTYPE svg  PUBLIC '-//W3C//DTD SVG 1.1//EN'  'http://www.w3.org/Graphics/SVG/1.1/DTD/svg11.dtd'>
<svg width="362.49pt" height="280.51pt" version="1.1" viewBox="0 0 362.49 280.51" xmlns="http://www.w3.org/2000/svg" xmlns:xlink="http://www.w3.org/1999/xlink">
 <metadata>
  <rdf:RDF xmlns:cc="http://creativecommons.org/ns#" xmlns:dc="http://purl.org/dc/elements/1.1/" xmlns:rdf="http://www.w3.org/1999/02/22-rdf-syntax-ns#">
   <cc:Work>
    <dc:type rdf:resource="http://purl.org/dc/dcmitype/StillImage"/>
    <dc:date>2024-07-04T12:08:07.962652</dc:date>
    <dc:format>image/svg+xml</dc:format>
    <dc:creator>
     <cc:Agent>
      <dc:title>Matplotlib v3.7.1, https://matplotlib.org/</dc:title>
     </cc:Agent>
    </dc:creator>
   </cc:Work>
  </rdf:RDF>
 </metadata>
 <defs>
  <style type="text/css">*{stroke-linejoin: round; stroke-linecap: butt}</style>
 </defs>
 <g id="figure_1">
  <g id="patch_1">
   <path d="m0 280.51h362.49v-280.51h-362.49v280.51z" fill="none"/>
  </g>
  <g id="axes_1">
   <g id="PatchCollection_1">
    <defs>
     <path id="m8b9bd6f7b6" d="m227.08-260.58 0.65135 0.11923 2.423 0.97692 15.25 6.9107 5.4373 2.3876 5.1968 2.0498 3.3835 1.1993 3.3246 1.0685 3.2512 0.92368 7.3725 1.6973 3.3762 0.68357 1.4024 0.20656 3.7625 0.37332 1.5355 0.28739 1.8652 0.61078 1.7546 0.81445 1.5702 0.93373 1.0508 0.83639 1.0883 1.0886 6.351 7.2487 5.8105 7.0126 4.8253 6.3166 6.5661 9.0056 6.1787 8.0772 2.1916 3.0963 3.1738 4.956 2.4552 4.4399 7.0917 14.729 4.0457 7.8318-0.52337 7.9963-0.48768 3.1849-1.6647 7.8287-3.5148 14.358-0.84395 4.1733-0.40213 2.6325-0.59127 5.3462-1.3132 15.384-0.19675 5.7666-0.056571 7.2096-0.37733 5.8409-0.3688 3.2736-1.2354 6.8024-0.57602 2.4271-0.82549 2.262-0.90772 1.6312-1.1123 1.4974-1.5782 1.6417-1.7617 1.3897-1.8291 1.0505-1.9176 0.70764-1.4749 0.28103-1.4914 0.11475-5.0953-0.056902-1.6716 0.13071-1.5877 0.39184-2.2399 1.2616-1.4243 1.239-5.0344 5.3881-2.0293 1.7493-2.0572 1.3502-2.2694 1.2195-3.2214 1.5238-10.083 4.2029-2.0341 0.92017-7.2656 3.3983-2.2287 1.1345-1.6988 1.004-3.4125 2.451-2.4649 2.1268-1.3139 1.2493-2.5375 2.7609-1.4008 1.7567-1.8214 2.765-1.4493 2.7541-0.44372 1.055-0.13553 0.66153-0.48393 0.16159-0.21834-0.001921-1.0179-0.43408-0.98055-1.056-0.77197-1.583-0.56788-2.0163-0.49785-3.0986-0.31449-3.3937-0.17403-3.2815 0.077317-3.9288 0.13003-1.9626 0.33927-2.9669 0.74224-4.7389 1.7356-9.3902 0.34172-2.8803 0.1058-3.1148-0.12371-2.3788-0.57265-3.2995-0.75088-2.216-1.0128-2.129-1.9431-3.0561-2.3058-2.7946-2.5617-2.4752-2.7372-2.0739-1.5726-0.95578-2.4733-1.3017-3.2106-1.3074-3.8196-1.1629-8.6398-1.9313-4.9917-1.2958-2.6055-0.34038-2.0445 0.038416-1.4801 0.17309-2.9794 0.62761-3.4592 1.0329-6.6896 2.2806-3.839 1.2109-2.9947 0.80157-3.9803 0.77423-2.7103 0.28444-3.3989-0.002468-2.7287-0.20456-2.6643-0.32663-2.5604-0.41686-1.1237-0.21588-2.9882-0.77627-5.9857-2.3458-2.6124-0.66863-3.299-0.46161-5.2258-0.31437-3.3548-0.36764-2.1468-0.40477-2.0315-0.58711-2.0217-0.80004-2.7278-1.4287-1.7755-1.1335-2.5327-1.8853-2.1773-1.8852-3.9345-3.891-1.6001-1.4832-1.4065-1.083-1.4615-0.82136-1.0789-0.37784-2.0721-0.20475-2.1867 0.30994-1.0725 0.29094-2.6391 1.0627-2.706 1.4221-10.289 5.812-1.3157 0.91679-1.1313 0.9149-1.2399 1.2203-0.44092 0.71134-0.30278-0.15936-0.62016-0.008294-0.82714 0.12552-3.9551 1.1838-1.3772 0.20149-1.1769-0.083739-1.1232-0.28856-1.0508-0.41654-3.9051-1.7684-0.61444-0.37051-0.61342-0.4891-0.55345-0.66228-1.219-2.2606-0.77296-1.0855-0.96428-1.0549-1.1088-0.971-1.2177-0.82814-1.2999-0.61675-1.363-0.32303-0.96562-0.014495-0.98493 0.12505-1.1598 0.26491-3.4587 1.0032-1.1525 0.24853-3.7757 0.37663-1.1789 0.19096-1.3115 0.35818-4.0879 1.5593-1.4769 0.46479-1.1219 0.224-1.1292 0.062653-0.96371-0.10276-1.5984-0.44189-1.6176-0.7148-1.4092-0.79149-1.4149-0.92514-2.5993-1.9887-1.4722-1.2706-2.4375-2.305-2.154-2.243-4.9257-5.6851-1.9549-1.9277-0.88217-0.755-0.18923-0.071087 0.56941-0.50138 0.87103-0.93859 3.0481-3.5272 1.7613-2.2263 1.4996-2.1102 0.88482-1.4275 0.76137-1.4512 0.85904-2.1386 1.3132-4.1664 0.7427-1.8826 0.99694-1.6449 0.26408-0.31646 1.0243-0.9618 0.92625-0.63915 1.5927-0.79204 1.0989-0.39727 2.604-0.64008 1.5016-0.23677 3.3386-0.2992 1.9749-0.071968 8.9276 0.016075 3.8928-0.13381 1.9156-0.17749 1.8856-0.28571 2.1355-0.49013 2.0868-0.63268 2.0382-0.73909 3.9145-1.6855 5.1809-2.629 2.5525-1.1265 3.036-1.0552 8.4182-2.3544 4.6699-1.4364 4.9026-1.7893 3.3191-1.4947 2.5434-1.4333 1.4777-1.0545 1.2002-1.1149 0.7044-0.92219 0.43284-0.93367 0.12537-1.247-0.3048-1.0234-0.60065-0.55024-0.13522-0.2102-0.029031-0.74645 0.20214-1.3757 0.35666-1.3638 0.52756-1.5007 0.91464-1.9894 1.1972-1.9811 1.7756-2.2337 2.0606-2.1305 11.039-10.39 6.863-6.8401 1.862-1.9779 3.8345-4.5344 3.8688-4.915 3.1618-4.177 1.8089-2.0984 2.3121-2.3071 4.9863-4.5147 1.8354-1.8728 1.5616-2.0686 0.99008-1.8745 0.76223-1.9334 0.88043-2.8806 1.7144-6.5018 0.82745-2.3172 0.45581-0.96119 0.9204-1.4504 0.73809-0.83731 0.69462-0.62224 0.88347-0.62722 1.0454-0.56614 1.2072-0.47593 1.8606-0.4491 2.0404-0.18092 2.4446 0.10471 2.0726 0.2939 6.4045 1.4436 1.4724 0.22502 2.0772 0.077755 2.0265-0.23718 1.9072-0.5792 2.2553-1.273 5.5609-4.3842 2.0291-1.379 4.3284-2.5323 2.4601-1.2941 2.1066-0.86485 1.5859-0.44277 1.6058-0.29463 1.2804-0.14271 2.0448-0.070273 1.651 0.10673 1.1803 0.2461 0.45112 0.2865" stroke="#bdc660"/>
    </defs>
    <g clip-path="url(#p2b6de0c705)">
     <use y="280.512" fill="#bdc660" stroke="#bdc660" xlink:href="#m8b9bd6f7b6"/>
    </g>
   </g>
  </g>
 </g>
 <defs>
  <clipPath id="p2b6de0c705">
   <rect x="7.2" y="7.2" width="348.09" height="266.11"/>
  </clipPath>
 </defs>
</svg>
