<?xml version="1.0" encoding="UTF-8"?>
<!DOCTYPE svg  PUBLIC '-//W3C//DTD SVG 1.1//EN'  'http://www.w3.org/Graphics/SVG/1.1/DTD/svg11.dtd'>
<svg width="193.5pt" height="280.51pt" version="1.1" viewBox="0 0 193.5 280.51" xmlns="http://www.w3.org/2000/svg" xmlns:xlink="http://www.w3.org/1999/xlink">
 <metadata>
  <rdf:RDF xmlns:cc="http://creativecommons.org/ns#" xmlns:dc="http://purl.org/dc/elements/1.1/" xmlns:rdf="http://www.w3.org/1999/02/22-rdf-syntax-ns#">
   <cc:Work>
    <dc:type rdf:resource="http://purl.org/dc/dcmitype/StillImage"/>
    <dc:date>2024-07-04T12:07:57.249709</dc:date>
    <dc:format>image/svg+xml</dc:format>
    <dc:creator>
     <cc:Agent>
      <dc:title>Matplotlib v3.7.1, https://matplotlib.org/</dc:title>
     </cc:Agent>
    </dc:creator>
   </cc:Work>
  </rdf:RDF>
 </metadata>
 <defs>
  <style type="text/css">*{stroke-linejoin: round; stroke-linecap: butt}</style>
 </defs>
 <g id="figure_1">
  <g id="patch_1">
   <path d="m0 280.51h193.5v-280.51h-193.5v280.51z" fill="none"/>
  </g>
  <g id="axes_1">
   <g id="PatchCollection_1">
    <defs>
     <path id="m5d0df8e490" d="m161.78-254.6 0.091282 0.21785 0.026771 0.41139-0.074959 0.79772-0.25794 1.2959-0.69985 2.9649-0.3607 2.326-0.16011 0.75808-0.24057 0.77109-0.51147 1.3536-0.58769 1.7269-0.95824 2.124-0.40001 1.1454-0.19551 0.70934-0.12604 0.67288-0.09694 1.2394 0.022286 0.83939 0.14279 1.2971 0.22896 1.1823 0.27722 1.1605 0.97257 3.1712 0.4171 1.0248 0.70472 1.5551 0.2494 0.66171 0.69974 2.2657 0.29781 1.1613 0.10615 0.70086 0.056341 1.3548-0.098117 1.0738-0.17785 0.74787-0.33826 0.92165-0.40202 0.87274-1.611 3.2341-0.61467 1.1559-1.3776 2.3512-2.0855 3.2716-1.4722 2.1187-0.94691 1.2211-1.1898 1.402-2.7163 3.067-1.4416 1.7172-1.0413 1.3723-1.0655 1.6499-0.93186 1.7299-0.79764 1.7926-0.65311 1.8411-0.48738 1.8773-0.1321 0.7001-0.17339 1.2999-0.10426 1.876 0.029102 1.9757 0.10428 1.7693 0.12683 1.1782 0.18421 1.1343 0.2909 1.2169 0.38706 1.1145 0.7526 1.3666 0.54545 0.61492 0.63324 0.46483 1.0904 0.39365 1.2392 0.12907 3.1179-0.057082 1.6251 0.084675 1.6596 0.1751 3.0038 0.41368 0.9817 0.14956 0.39698 0.1376 0.023629 0.27943 0.27038 0.89745 3.6265 11.295 1.7505 5.2398 0.40066 1.3249 0.36169 1.4057 0.21912 1.0478 0.21367 1.3293 0.20432 2.3426 0.030268 1.6273-0.021879 1.1028-0.1678 2.4302-0.25344 1.956-0.28384 1.478-0.44144 1.6126-0.79228 2.5601-0.74944 2.1683-1.6654 4.414-0.66798 1.7064-0.69875 1.6455-0.6892 1.424-0.77531 1.2989-1.0125 1.296-1.0605 1.1853-0.98501 1.1756-0.64154 0.93286-1.9496 3.1953-0.50355 0.97637-0.26343 0.66051-0.27074 0.9395-0.21629 1.2043-0.10383 2.5039-0.34846 2.114-0.11133 0.97534 8.57e-4 0.97671 0.066858 0.59883 0.24744 0.99682 0.57135 1.3448 0.63504 1.1362 1.9868 3.1826 1.0187 1.7207 0.80755 1.5555 1.0556 2.4386 0.8806 1.7571 1.1087 1.9707 1.8808 3.1153 0.87015 1.5864 1.2236 2.4877 2.4358 5.394 0.50213 0.98125 0.45794 0.79205 0.53354 0.81677 0.83679 1.1218 0.81128 0.86483 0.68121 0.55082 1.0529 0.6652 1.1524 0.59332 0.96638 0.40332 1.8004 0.66215 0.95633 0.434 0.47988 0.27476 0.67354 0.47607 0.65405 0.60207 0.60902 0.75875 0.40574 0.68035 0.24012 0.54062 0.20177 0.64938 0.1308 0.69307 0.079635 1.0908-0.035294 0.71786-0.12516 0.7062-0.15626 0.50256-0.17775 0.38318-0.28944 0.43831-0.21587 0.25478-0.57191 0.54634-1.2333 0.94089-0.40898 0.41376-0.32978 0.44412-0.28045 0.49858-0.32976 0.82018-0.63483 2.2817-0.32998 0.76463-0.45949 0.69043-0.77341 0.82727-0.92179 0.75405-1.8522 1.2332-0.7901 0.56849-1.0224 0.93188-0.93204 1.0833-0.8165 1.1853-0.67102 1.243-1.1488 2.7274-0.48723 0.88925-0.93643 1.3734-0.64985 0.82054-0.86034 0.97699-0.5563 0.5669-0.77941 0.70372-0.55743 0.43754-1.0042 0.672-0.92766 0.51381-2.1849 1.007-1.3124 0.69148-1.1261 0.7734-1.5079 1.1409-1.0365 0.72633-0.96692 0.61291-1.1162 0.63324-1.7243 0.8298-1.4436 0.54594-1.1545 0.29896-1.4612 0.23555-1.6146 0.18353-1.681 0.12404-1.7182 0.038918-1.5419-0.046843-1.6489-0.10573-1.096-0.1239-1.6772-0.29426-3.3366-0.65693-1.8332-0.21981-1.6899-0.10203-1.3961-0.015207-0.65396 0.038497-0.43903 0.19186-0.1198-0.23082-0.47672-0.090938-0.43646 0.011997-0.80374 0.10204-0.94884 0.18068-1.4081 0.32114-3.2779 0.84583-9.2583 2.6077-1.689 0.43009-1.357 0.27556-1.6176 0.23824-1.2984 0.094836-1.2873-0.035859-1.2242-0.20983-1.4542-0.56343-1.3141-0.83396-0.70509-0.58233-0.94167-0.8753-0.9262-0.95203-1.4636-1.7112-0.808-1.0968-0.72151-1.137-0.63274-1.2329-0.46918-1.2719-0.20836-0.87424-0.14391-0.88983-0.13066-1.2719-0.038071-1.285 0.18408-3.0474 0.2629-2.5611 0.33845-2.0345 0.8646-4.043 0.28398-2.0634 0.11346-1.5614 0.035693-1.1183-0.010347-1.5529-0.11521-1.9052-0.1583-1.3205-0.16324-0.96132-0.39169-1.694-1.5464-5.4028-0.52965-2.0534-0.40745-2.0378-0.53184-3.2721-0.23148-1.2256-0.36562-1.6353-0.46923-1.6541-0.38492-0.98319-0.27053-0.36251-0.067785-0.1238 0.012542-0.14399 0.10097-0.13575 0.1638-0.11001 0.47273-0.14718 0.98157-0.14939 0.85384-0.17947 0.8057-0.28582 1.0047-0.5018 0.98192-0.55773 2.1054-1.2652 1.5587-1.0109 0.98497-0.76789 1.0844-1.0007 0.59101-0.64873 0.56945-0.72749 0.65592-1.0079 0.61952-1.198 1.0497-2.357 0.35572-0.62284 0.41622-0.59162 0.58586-0.64284 1.1136-1.0147 0.85808-0.73383 1.5858-1.2137 1.0699-1.015 0.64035-0.67818 1.8902-2.1692 0.75423-0.95698 0.23929-0.45595 0.11907-0.37455 0.054717-0.40371-0.014232-0.48267-0.078688-0.42118-0.11068-0.3089-0.36402-0.5754-0.20784-0.23332-0.32987-0.31119-0.79316-0.58064-0.93892-0.51053-0.8942-0.37768-1.2609-0.4181-0.86365-0.22134-1.0161-0.20064-1.3805-0.18613-1.1855-0.087791-1.9639-0.050662-6.368 0.036-4.2944-0.049744-6.5328-0.23762-2.7637-0.15804-1.1923-0.12552-1.2898-0.22729-1.0086-0.25932-3.6016-1.063-1.697-0.30101-0.96522-0.040332-1.4102 0.10164-2.9994 0.53547-1.1933 0.17826-0.60279 0.039024-0.67923-0.038928-0.37935-0.083637-0.32245-0.12847-0.22823-0.13995-0.27244-0.24208-0.24401-0.3083-0.23584-0.4226-0.18801-0.48166-0.16742-0.65018-0.12403-1.0665 0.005567-0.96987 0.086998-0.95901 0.62874-3.711 0.15135-1.2084 0.040734-0.83883-0.02635-0.93949-0.067519-0.66944-0.12496-0.70856-0.15505-0.5656-0.48774-1.1033-1.541-2.5707-0.76952-1.1442-0.7771-1.0325-0.69-0.80717-0.61261-0.62229-0.64029-0.54588-1.1168-0.67156-0.72271-0.24318-0.71899-0.13726-1.0246-0.092261-1.3799-0.054449-0.82117 0.01737-0.98245 0.11793-2.7057 0.56092-1.2864 0.10628-0.48695-0.023171-1.1581-0.17426-1.518-0.40754-3.9744-1.4363-1.7847-0.69568-3.5216-1.5153-2.3948-1.1915-1.8274-1.0462-1.2515-0.81224-1.1402-0.79792-1.7334-1.3511-1.1508-1.0936-0.56436-0.64379-0.60193-0.79229-0.55567-0.83578-0.53784-0.91342-0.47638-0.90052-0.39406-0.85231-0.27249-0.69529-0.25464-0.81129-0.15875-0.70494-0.093768-0.81735 0.044524-0.9136 0.1555-0.64076 0.56503-1.0809 0.85239-0.9899 1.0508-0.93572 4.421-3.5699 2.4025-2.0447 2.2901-2.0278 3.0732-2.8243 1.2365-1.1818 2.0811-2.1009 0.85988-0.93173 1.5201-1.815 0.71343-0.97287 0.50483-0.7644 0.80672-1.4185 0.53006-1.141 0.52616-1.4395 0.27606-1.0095 0.17051-0.86426 0.14866-1.3594 0.023334-0.98244-0.068925-1.4043-0.11382-1.0161-0.15667-0.97795-0.22601-0.97425-0.11003-0.35412-0.35222-0.84776-0.84159-1.3161-0.96732-1.1553-1.945-1.9729-0.56295-0.68781-0.4868-0.7428-0.25893-0.50039-0.3227-0.79952-0.34682-1.3222-0.1365-1.116 0.031999-0.89199 0.23809-0.52783 0.49553-3.6292 0.18892-0.91679 0.23491-0.9039 0.26992-0.84126 0.31418-0.80738 0.34207-0.7306 0.38511-0.68676 0.48312-0.70295 0.56424-0.64473 0.54123-0.49094 0.58183-0.43188 0.68944-0.4154 0.98713-0.44848 1.1559-0.34024 2.2527-0.41679 1.4341-0.35495 0.62433-0.20728 1.1867-0.47994 1.6675-0.83943 1.3106-0.78515 2.9336-1.944 3.204-2.0247 1.004-0.75407 1.9312-1.6024 1.1884-0.9145 1.7703-1.1699 2.5342-1.4638 0.92591-0.67982 0.18153-0.19116 0.016711-0.06558 0.40129-0.41169 4.7547-3.8528 1.5056-1.3467 1.3727-1.41 1.1522-1.4707 0.45848-0.74182 0.56662-1.1517 0.30162-0.83722 0.17898-0.73457 0.14544-1.0857 0.037811-0.82478-0.028665-1.093-0.073513-0.8229-0.57757-4.0237-0.081679-1.9086 0.17495-1.9058 0.30255-1.303 0.44179-1.2709 0.38379-0.87374 0.45096-0.90452 0.7404-1.3321 0.65203-1.0774 0.85577-1.2943 1.1141-1.502 1.0597-1.2634 0.65785-0.7135 1.117-1.1095 1.316-1.1751 1.185-0.94309 1.4586-0.97191 0.65816-0.35852 0.86313-0.38595 1.4054-0.392 1.3465-0.018051 1.2057 0.3809 1.1383 0.68487 1.0852 0.8834 2.3816 2.2773 0.60506 0.53195 0.71896 0.56235 0.47378 0.32355 0.8162 0.46682 1.1292 0.45366 1.1843 0.26742 1.577 0.1538 1.5233 0.029979 3.3817-0.069763 1.5004 0.013575 2.0126 0.18038 0.99125 0.1787 1.2916 0.37068 1.265 0.48706 1.2436 0.55253 3.4249 1.6499 1.7747 0.76381 0.91965 0.27913 0.81964 0.14762 0.5911 0.054904 0.53938 0.008774 1.0305-0.10374 1.0558-0.25155 0.59475-0.19586 1.3087-0.53714 0.84424-0.40362 1.6676-0.88209 4.2622-2.4307 1.7631-0.87826 1.3563-0.55488 1.0453-0.34904 1.2619-0.33593 1.438-0.27762 2.0022-0.21632 1.3391-0.040607 1.8463 0.048094 2.3094 0.19435 4.1263 0.51948 6.1092 0.93987 0.98178 0.21854 0.5552 0.16393 0.55348 0.24396 0.0743 0.10688" stroke="#bdc660"/>
    </defs>
    <g clip-path="url(#p62c28de1ab)">
     <use y="280.512" fill="#bdc660" stroke="#bdc660" xlink:href="#m5d0df8e490"/>
    </g>
   </g>
  </g>
 </g>
 <defs>
  <clipPath id="p62c28de1ab">
   <rect x="7.2" y="7.2" width="179.1" height="266.11"/>
  </clipPath>
 </defs>
</svg>
