<?xml version="1.0" encoding="UTF-8"?>
<!DOCTYPE svg  PUBLIC '-//W3C//DTD SVG 1.1//EN'  'http://www.w3.org/Graphics/SVG/1.1/DTD/svg11.dtd'>
<svg width="233.53pt" height="280.51pt" version="1.1" viewBox="0 0 233.53 280.51" xmlns="http://www.w3.org/2000/svg" xmlns:xlink="http://www.w3.org/1999/xlink">
 <metadata>
  <rdf:RDF xmlns:cc="http://creativecommons.org/ns#" xmlns:dc="http://purl.org/dc/elements/1.1/" xmlns:rdf="http://www.w3.org/1999/02/22-rdf-syntax-ns#">
   <cc:Work>
    <dc:type rdf:resource="http://purl.org/dc/dcmitype/StillImage"/>
    <dc:date>2024-07-04T12:07:52.390700</dc:date>
    <dc:format>image/svg+xml</dc:format>
    <dc:creator>
     <cc:Agent>
      <dc:title>Matplotlib v3.7.1, https://matplotlib.org/</dc:title>
     </cc:Agent>
    </dc:creator>
   </cc:Work>
  </rdf:RDF>
 </metadata>
 <defs>
  <style type="text/css">*{stroke-linejoin: round; stroke-linecap: butt}</style>
 </defs>
 <g id="figure_1">
  <g id="patch_1">
   <path d="m-0 280.51h233.53v-280.51h-233.53v280.51z" fill="none"/>
  </g>
  <g id="axes_1">
   <g id="PatchCollection_1">
    <defs>
     <path id="m27904258bc" d="m191.42-97.356 0.29396 0.6186 1.31 2.0139 9.9951 15.078 4.5923 7.2627 3.8398 6.5943 1.4993 2.8625 1.7059 3.7303 0.95511 2.6629 0.48834 1.9083 0.25074 1.723 0.018195 1.8198-0.17622 1.4297-0.33565 1.3417-0.76973 1.7864-1.0858 1.5153-1.3164 1.1906-2.0248 1.0699-1.5591 0.33597-1.0496-0.010994-0.80669-0.15363-1.6243-0.72464-1.3037-0.92124-1.2135-1.0562-5.7003-5.6125-2.3731-1.8911-1.9839-1.1508-2.2332-0.72329-2.3524-0.036185-1.8934 0.45877-1.8067 0.80505-1.0192 0.61326-2.2908 1.8298-1.3149 1.3583-2.2402 2.7711-7.3178 10.651-2.7903 3.8584-2.8911 3.667-2.9831 3.3283-3.0731 2.8138-3.1681 2.0819-3.2749 1.0766-1.1276 0.082922-1.5688-0.10943-1.3785-0.28296-1.4936-0.47696-1.5906-0.67642-2.3994-1.2933-2.3284-1.4889-10.878-7.744-2.7967-1.8418-2.4033-1.4264-1.7461-0.90937-2.9008-1.2013-2.5849-0.651-0.86576-0.10438-3.8018 0.28301-3.6662 1.3192-3.3872 2.1251-2.0351 1.7219-4.0554 3.9068-2.68 2.3757-2.5939 1.9872-1.6494 1.0768-1.6625 0.92564-1.0428 0.21848-0.70969-1.5493-6.7616-17.269-1.9621-4.446-2.1314-4.1794-2.3513-3.7614-2.0765-2.6795-4.0763-4.8002-8.221-10.209-6.0348-6.9718-5.1393-5.2545-11.441-10.428-5.9873-5.6721-3.3692-3.4166-3.6439-4.002-3.379-4.1992-2.238-3.3429-0.87822-1.5947-1.1271-2.6568-0.61613-2.3071-0.45606-4.3893 0.17176-4.1793 0.45102-3.4093 1.1296-5.2239 1.4717-4.6705 2.087-5.5132 1.8337-4.4116 3.7833-8.4304 3.8844-7.9599 2.0799-3.9794 5.2653-9.2726 7.3385-12.098 2.1686-3.8493 1.1383-2.2318 2.2039-4.745 1.5521-3.6882 1.6636-4.518 0.93059-3.0175 1.1385-4.8831 0.70738-4.7377 1.0377-12.778 0.96982-8.7188 1.2762-8.0507 0.6449-2.8938 0.25886-0.8654 0.30315-0.49697 2.6752-0.73169 3.1352-0.67859 2.7617-0.38775 1.5556-0.10324 1.7021-0.002271 2.0756 0.17054 1.7327 0.31257 1.6129 0.49444 2.8058 1.5681 1.2388 1.058 1.3533 1.4212 1.0943 1.3464 2.9587 4.029 1.0505 1.2422 1.7631 1.8648 2.7033 2.5399 4.5671 3.7694 4.166 2.9566 2.8347 1.7161 2.261 1.1797 3.2706 1.3927 3.0796 0.97198 7.1464 1.6484 3.4186 0.90591 4.8842 1.6062 2.682 1.1733 1.4571 0.81904 2.0181 1.388 1.7322 1.429 2.1426 2.0459 2.7767 3.0342 1.6778 2.014 4.3831 5.7621 5.5344 7.9724 5.7881 8.7786 5.6888 8.9867 5.4658 9.1893 2.5699 4.6984 2.3901 4.7966 2.1308 4.9269 1.33 3.6791 0.81815 2.6687 1.2731 5.265 1.1185 6.727 1.6068 12.491 2.4337 14.577 1.9912 13.18 0.57429 2.884 0.71153 2.363 0.62841 0.81702" stroke="#bdc660"/>
    </defs>
    <g clip-path="url(#p1dd405e6b3)">
     <use y="280.512" fill="#bdc660" stroke="#bdc660" xlink:href="#m27904258bc"/>
    </g>
   </g>
  </g>
 </g>
 <defs>
  <clipPath id="p1dd405e6b3">
   <rect x="7.2" y="7.2" width="219.13" height="266.11"/>
  </clipPath>
 </defs>
</svg>
