<?xml version="1.0" encoding="UTF-8"?>
<!DOCTYPE svg  PUBLIC '-//W3C//DTD SVG 1.1//EN'  'http://www.w3.org/Graphics/SVG/1.1/DTD/svg11.dtd'>
<svg width="258.69pt" height="280.51pt" version="1.1" viewBox="0 0 258.69 280.51" xmlns="http://www.w3.org/2000/svg" xmlns:xlink="http://www.w3.org/1999/xlink">
 <metadata>
  <rdf:RDF xmlns:cc="http://creativecommons.org/ns#" xmlns:dc="http://purl.org/dc/elements/1.1/" xmlns:rdf="http://www.w3.org/1999/02/22-rdf-syntax-ns#">
   <cc:Work>
    <dc:type rdf:resource="http://purl.org/dc/dcmitype/StillImage"/>
    <dc:date>2024-07-04T12:07:40.786392</dc:date>
    <dc:format>image/svg+xml</dc:format>
    <dc:creator>
     <cc:Agent>
      <dc:title>Matplotlib v3.7.1, https://matplotlib.org/</dc:title>
     </cc:Agent>
    </dc:creator>
   </cc:Work>
  </rdf:RDF>
 </metadata>
 <defs>
  <style type="text/css">*{stroke-linejoin: round; stroke-linecap: butt}</style>
 </defs>
 <g id="figure_1">
  <g id="patch_1">
   <path d="m0 280.51h258.69v-280.51h-258.69v280.51z" fill="none"/>
  </g>
  <g id="axes_1">
   <g id="PatchCollection_1">
    <defs>
     <path id="mdac4504875" d="m145.21-261.16 0.2017 0.023466 3.8829 5.713 6.1905 12.855 2.644 5.9179 2.3788 5.8011 2.205 5.9325 3.3657 9.746 2.645 8.0931 4.8533 15.574 2.5249 7.5525 2.3721 6.1198 2.5783 5.6651 1.7786 3.507 2.0717 3.7955 3.9887 6.7437 7.3278 11.491 3.4574 5.1676 3.3386 4.7696 7.3328 9.7355 6.6621 8.1257 5.1789 5.8478 5.9513 5.9208 3.208 3.5755 2.463 3.2546 2.2147 3.4338 1.8887 3.5415 1.2175 2.8996 0.85136 2.8672 0.40716 2.7735-0.001783 1.9754-0.18323 1.8537-0.54696 3.6246-0.042747 1.3208 0.2153 0.55659 0.23188 0.37087-0.019693 0.80872-0.29043 1.0622-1.1127 2.453-2.1432 3.8328-0.69686 1.5283-0.25982 1.0885-0.13048 1.1429-0.17105 3.6005-0.1649 1.2116-0.31385 1.1682-0.51715 1.1277-0.68572 1.0753-0.81264 1.034-0.9077 1.001-2.0582 1.9684-3.4402 2.8918-12.206 9.5273-21.979 17.381-2.2508-3.6314-1.0451-1.5048-0.81835-0.75476-0.6045-0.10855-0.65601 0.21807-1.3841 0.86564-9.1303 6.7306-1.1816-4.0286-1.1149-3.1174-1.0095-2.344-1.7679-3.5465-1.9237-3.4305-2.1241-3.3487-1.6086-2.1445-1.8085-2.0674-1.912-1.9176-7.8469-7.2481-10.775-10.47-2.3234-2.1468-2.4401-2.0862-1.273-0.98858-2.2364-1.5156-2.2874-1.1936-1.1239-0.40764-1.0713-0.23623-1.087-0.042043-0.8181 0.13815-0.35444 0.24145-0.51856-0.10582-1.2126-0.46856-3.5456-1.706-3.587-2.1168-3.6504-2.4466-6.9386-5.1515-15.748-12.505-5.1732-3.9279-5.0767-3.5191-4.053-2.3328-1.9682-0.94059-3.7351-1.4651-1.7413-0.54959-5.2902-1.3915-3.5594-1.2293-25.064-9.7177-12.058-4.9019-3.8266-1.7338-1.5967-0.79586-1.5268-0.89487 0.58282-1.7137 4.763-17.474 3.6188-12.619 2.4413-7.676 1.5543-4.2887 1.6751-4.0341 1.8372-3.714 1.0694-1.8382 2.2167-3.2287 2.2025-2.5662 1.728-1.5919 2.2635-1.4466 1.7685-0.56963 0.72327-0.11533 1.5233-0.026128 3.2591 0.53378 1.7007 0.18734 2.3927-0.1304 2.5664-0.59608 1.145-0.4108 2.2026-0.982 4.7837-2.5665 6.042-3.6012 2.3109-1.5814 2.7582-2.2507 2.5379-2.7049 2.3107-3.0329 6.5493-10.031 2.3745-3.3598 3.3637-4.1043 3.4498-3.6974 3.003-2.9519 3.1297-2.9003 6.5445-5.6997 7.4016-6.058 3.7644-2.9213 3.964-2.8856 3.6476-2.2772 3.7501-1.9055 2.7988-1.1386 2.6973-0.89736 4.0335-0.99404 1.8524-0.26047 0.60105 0.057158" stroke="#bdc660"/>
    </defs>
    <g clip-path="url(#pd83481043a)">
     <use y="280.512" fill="#bdc660" stroke="#bdc660" xlink:href="#mdac4504875"/>
    </g>
   </g>
  </g>
 </g>
 <defs>
  <clipPath id="pd83481043a">
   <rect x="7.2" y="7.2" width="244.29" height="266.11"/>
  </clipPath>
 </defs>
</svg>
