<?xml version="1.0" encoding="UTF-8"?>
<!DOCTYPE svg  PUBLIC '-//W3C//DTD SVG 1.1//EN'  'http://www.w3.org/Graphics/SVG/1.1/DTD/svg11.dtd'>
<svg width="195.32pt" height="280.51pt" version="1.1" viewBox="0 0 195.32 280.51" xmlns="http://www.w3.org/2000/svg" xmlns:xlink="http://www.w3.org/1999/xlink">
 <metadata>
  <rdf:RDF xmlns:cc="http://creativecommons.org/ns#" xmlns:dc="http://purl.org/dc/elements/1.1/" xmlns:rdf="http://www.w3.org/1999/02/22-rdf-syntax-ns#">
   <cc:Work>
    <dc:type rdf:resource="http://purl.org/dc/dcmitype/StillImage"/>
    <dc:date>2024-07-04T12:07:58.741018</dc:date>
    <dc:format>image/svg+xml</dc:format>
    <dc:creator>
     <cc:Agent>
      <dc:title>Matplotlib v3.7.1, https://matplotlib.org/</dc:title>
     </cc:Agent>
    </dc:creator>
   </cc:Work>
  </rdf:RDF>
 </metadata>
 <defs>
  <style type="text/css">*{stroke-linejoin: round; stroke-linecap: butt}</style>
 </defs>
 <g id="figure_1">
  <g id="patch_1">
   <path d="m0 280.51h195.32v-280.51h-195.32v280.51z" fill="none"/>
  </g>
  <g id="axes_1">
   <g id="PatchCollection_1">
    <defs>
     <path id="m54cccf720d" d="m145.61-245.26 0.074953 0.021432 0.22154 0.25324 0.47149 0.76316 0.32214 0.69662 0.26092 0.71153 0.32816 1.058 0.30543 1.1454 1.4373 5.7869 0.32142 1.5554 0.20868 1.4987 0.041851 1.4164-0.074603 0.80913-0.13121 0.77878-0.2594 1.0724-0.39715 1.0131-0.40245 0.67337-0.51182 0.64074-0.6406 0.62685-0.57431 0.4669-0.52443 0.37681-0.68466 0.44782-1.3676 0.81745-1.6958 0.90044-2.3402 1.0834-1.4363 0.61696-2.1374 0.85511-1.0067 0.36727-1.4179 0.46695-3.4076 0.9761-0.644 0.22426-0.58704 0.25409-0.53881 0.29728-0.55653 0.41556-0.3889 0.40234-0.57631 0.81334-1.0657 1.7964-0.3964 0.53982-0.81465 0.845-1.0888 0.87565-1.4198 0.95982-1.0279 0.63136-3.4494 2.0184-1.132 0.73474-1.0734 0.79222-1.1898 1.0249-1.1228 1.161-0.5202 0.63566-0.41992 0.58543-0.6158 1.0398-0.3445 0.74001-0.21056 0.57806-0.34283 1.4215-0.10272 0.66973-0.11676 1.2473-0.024302 1.0038 0.050323 1.1704 0.13924 1.1708 0.18946 0.92492 0.22794 0.7362 0.2855 0.64578 0.33981 0.59207 0.3968 0.56282 0.45559 0.50758 0.57824 0.45211 0.23697 0.13538 0.86036 0.31878 2.9949 0.57492 5.1977 1.3643 1.4853 0.32669 1.5175 0.26157 1.5452 0.16217 1.713 0.032566 1.7354-0.092465 1.7522-0.18437 1.7654-0.2506 1.7766-0.29697 7.2212-1.3787 3.7039-0.65197 1.885-0.27408 1.9109-0.21584 1.9386-0.13383 2.0229-0.032054 2.0449 0.05903 2.0527 0.12827 2.0347 0.17869 1.9727 0.21123 5.0574 0.65924 0.009834 0.073919-0.088026 0.30116-0.35621 0.92059-1.0086 2.2487-5.5265 11.01-0.38231 0.86534-1.1077 2.9396-0.53621 1.2875-0.36542 0.76075-0.7936 1.4567-0.87068 1.4286-1.623 2.4992-0.49622 0.87356-0.19994 0.4309-0.18354 0.50499-0.11819 0.51413-0.035924 0.44261 0.036129 0.43501 0.14664 0.58229 0.54931 1.416 0.30562 0.87592 0.94152 3.3133 0.39654 1.0303 0.51812 0.89494 0.69956 0.68959 0.99422 0.45123 1.2112 0.22234 1.267 0.069504 1.1474-0.009965 1.4903-0.076284 6.7916-0.6076 1.7059-0.095261 1.6341-0.007503 1.5218 0.12514 0.93317 0.18688 0.83919 0.2945 0.7212 0.42838 0.73013 0.78106 0.52479 0.99444 0.34745 1.1559 0.18573 1.2754 0.027727 1.3607-0.13844 1.4177-0.3174 1.4708-0.46537 1.4979-0.57989 1.5207-0.66866 1.5411-0.73779 1.5601-1.7495 3.4042-2.0287 3.7069-4.8798 8.5825-0.58504 1.0419-0.18285 0.39862-0.28559 0.039511-0.47787 0.13979-1.6815 0.62265-1.4893 0.65497-1.2668 0.6721-1.2536 0.82126-0.71695 0.54907-0.90685 0.77947-0.66218 0.64007-0.9043 0.97536-1.371 1.6417-2.2484 2.9112-1.1729 1.4018-0.79028 1.0205-2.5018 3.3781-1.855 2.281-2.5917 3.0362-1.3612 1.5284-1.8045 1.8946-2.2703 2.3212-1.09 1.2296-0.75538 1.0042-0.65061 1.0445-0.51585 1.0857-0.34163 1.1307-0.066563 0.38081-0.082346 1.1009 0.046428 1.3583 0.19741 1.7912 0.29253 1.8171 0.41686 2.1967 0.5696 2.5224 0.56178 2.0302 0.60659 1.8935 1.9927 5.6155 0.76471 2.0272 0.76209 1.8449 0.47678 1.0599 0.79741 1.6205 0.58296 1.0692 0.19442 0.297-0.52432-0.15924-2.032-0.48657-2.4574-0.50901-2.3336-0.41827-2.8523-0.44284-2.9892-0.39757-2.6921-0.30836-6.6726-0.65028-4.8021-0.4137-2.7423-0.19002-2.4918-0.11427-1.0602-0.020964-1.8366 0.031607-0.77826 0.051888-3.9293 0.40331-0.73345 0.15688-0.71542 0.24119-1.0236 0.54583-0.48242 0.35238-0.70828 0.6522-0.60728 0.72387-0.36937 0.55889-0.36534 0.7312-0.13123 0.3676-0.15971 0.73043-0.10723 0.68103-0.18774 0.63328-0.37584 0.57565-0.6799 0.58254-1.4372 1.0091-1.5443 1.2039-0.93921 0.90095-0.91692 1.0409-0.88198 1.1429-0.51996 0.74213-0.54271 0.83753-1.3697 2.289-0.65496 1.0268-0.45658 0.62402-1.0866 1.1885-0.84725 0.70327-0.59554 0.37683-1.1607 0.48197-2.9249 0.72788-1.0981 0.3977-0.92878 0.52503-0.87873 0.63753-1.7932 1.4457-1.0728 1.0468-0.82508 1.0258-0.74281 1.1163-0.49283 0.85133-0.55872 1.1149-1.1366 2.6491-1.3541 2.6462-0.3885 0.60205-0.46577 0.53849-0.29718 0.25979-0.6154 0.41344-0.52318 0.26581-0.88249 0.34133-1.06 0.31272-1.4867 0.37915-1.1957 0.27998-1.5646 0.31452-5.1162 0.82421-1.8407 0.23863-2.0903 0.18116-1.7488 0.1096-1.5661 0.059632-0.98456-0.028434-0.82588-0.10824-0.62224-0.16931-0.80609-0.42146-0.19064-0.16775-0.18624-0.22602-0.14385-0.27681-0.070213-0.29029-0.005241-0.18012 0.034815-0.22336 0.1179-0.30595 0.13837-0.22603 0.18925-0.22868 0.28421-0.25256 0.40206-0.25496 2.3245-1.1383 1.9468-1.0414 1.087-0.61783 1.1167-0.72386 0.38702-0.29051 0.77791-0.73994 0.36319-0.46901 0.52082-0.90426 0.12592-0.31872 0.17066-0.9647-0.11928-0.99937-0.099002-0.38004-0.21205-0.63028-0.90089-2.138-0.71315-1.3952-0.21214-0.48551-0.24506-0.8112-0.09057-0.63173-0.10926-1.553-0.014915-0.55512 0.026331-0.74156 0.068576-0.56237 0.31576-1.3958 0.22111-0.73684 0.37639-0.99468 0.33671-0.69773 0.29879-0.51094 0.37165-0.52951 1.2437-1.4386 0.50306-0.73551 0.31892-0.6683 0.25833-0.72116 0.22984-0.80518 0.1918-0.83015 0.13043-0.713 0.08652-0.87058 0.003932-0.88169-0.084687-1.6985 0.008377-0.99157 0.060777-1.0619 0.4541-4.4762 0.071013-1.4013-0.078325-1.437-0.25204-1.2352-0.24248-0.7898-0.28508-0.76958-0.77079-1.7338-0.52104-1.0018-0.38783-0.60781-0.72764-0.90506-0.51265-0.46186-0.48506-0.34195-0.49042-0.27596-0.55229-0.24516-0.63502-0.20709-0.69904-0.1413-0.53449-0.051564-0.58255-0.009034-0.79907 0.084241-0.73065 0.19603-0.69159 0.30172-0.89649 0.54448-1.1747 0.89179-2.2104 1.8513-0.90304 0.70571-0.91462 0.64024-2.1412 1.3239-0.73137 0.51323-0.83941 0.74101-0.16338 0.19655-0.044136 0.16476-0.11023-0.036037-0.32522-0.39784-1.187-1.7802-1.2502-1.7404-0.78969-0.98306-0.7819-0.85071-0.77388-0.69088-0.83884-0.507-0.79156-0.15804-0.96052 0.1676-1.0054 0.44699-0.76655 0.45382-0.76643 0.51481-2.8576 2.094-0.50784 0.2976-0.52089 0.22845-0.78175 0.19053-0.48809 0.039633-0.58392-0.047778-0.56151-0.14249-0.40202-0.1656-0.30298-0.17494-0.61397-0.50216-0.73245-0.80774-0.59594-0.83551-1.9931-3.0279-0.98438-1.6014-0.37435-0.75855-0.32009-0.80264-0.37419-1.2898-0.19835-0.99221-0.10387-0.70954-0.073648-0.70823-0.056115-1.3759 0.051234-1.0782 0.059156-0.55463 0.26138-1.4659 0.41015-1.4441 0.56287-1.3987 0.31292-0.62381 0.63975-1.115 1.6155-2.5331 0.59517-0.99399 0.40607-0.76579 0.35876-0.77924 0.36933-0.95263 0.31978-1.0227 0.21913-0.8737 0.35098-1.8958 0.17479-1.332 0.13918-1.6541-0.03179-1.5485-0.15346-1.5836-0.38328-2.6714-1.3137-7.3377-0.14344-1.1812-0.032589-1.0004 0.062083-1.7664 0.11641-1.3192 0.12602-0.81824 0.11535-0.53303 0.33112-1.082 0.45921-1.0551 0.19075-0.3697 0.41364-0.69617 0.26581-0.37924 0.94322-1.0457 1.0032-0.79577 0.4168-0.2548 0.59152-0.26559 0.30641-0.019246 0.01071-0.058475 0.27454-0.092264 0.90223-0.11897 1.2855-0.070421 3.3658-0.08997 1.6731-0.093382 3.6709-0.30051 2.4851-0.28217 2.5988-0.42887 1.1997-0.24958 1.3834-0.34725 0.9987-0.30832 0.94168-0.34895 0.90013-0.40177 0.72632-0.38758 0.61839-0.38522 0.6978-0.50206 0.65778-0.54371 0.47455-0.43901 0.73513-0.77119 0.7967-1.0047 0.41964-0.6316 0.73755-1.2971 0.95657-1.8663 1.0906-2.3054 1.4713-3.2572 0.64136-1.2473 0.89547-1.545 0.77371-1.2232 0.58621-0.85972 0.79038-1.066 1.0677-1.277 0.68054-0.71895 0.71356-0.68671 0.98377-0.85167 1.3262-1.0166 4.0808-2.8898 2.8484-2.1395 1.6813-1.3583 1.064-1.012 0.81103-0.93877 0.5045-0.67936 1.5451-2.3292 0.81079-1.2989 0.63409-1.1605 0.48472-1.0496 0.18753-0.47579 0.33185-1.0743 0.22443-1.32 0.080018-1.3703-0.01703-1.4091-0.23356-4.3775-0.022274-1.1104 0.016023-1.4877 0.072139-1.5103 0.125-1.4696 0.14547-1.2247 0.18151-1.2071 0.25677-1.3668 0.31456-1.3241 0.27994-0.96663 0.68532-2.0306 0.33564-1.0899 0.30429-1.4756 0.18941-1.5074 0.26664-2.7497 0.31828-2.5197 0.18071-1.2641 0.52362-2.7797 0.25218-1.1466 0.39583-1.0605 0.42898-0.69575 0.51114-0.60692 0.60083-0.56744 0.49181-0.39719 1.1329-0.83246 0.57837-0.47117 0.41455-0.47248 0.17585-0.49516-0.18495-0.65744-0.5525-0.70989-0.82836-0.75097-1.0329-0.7831-1.1824-0.80841-1.2902-0.82878-5.7111-3.4773-2.9657-1.8513-1.4742-0.97063-1.4564-1.0135-1.3647-1.02-1.045-0.83978-1.4257-1.226-1.4036-1.283-2.7793-2.7033-4.1753-4.2998-7.405-7.874 0.71501-0.71702 0.74862-0.67674 1.9582-1.3551 0.37227-0.28495 0.61365-0.54055 0.90451-1.0053 1.6528-2.1436 0.31544-0.31864 0.70909-0.56497 0.7998-0.49798 0.42869-0.22334 0.43746-0.19738 1.2204-0.44741 0.59967-0.25816 0.78124-0.43876 0.87767-0.5393 0.72666-0.46955 0.80982-0.57665 0.68165-0.42593 0.87427-0.45972 2.4519-1.1651 1.3323-0.7054 1.0297-0.64404 0.76294-0.5516 0.96092-0.80762 0.46614-0.49221 0.11449 0.2216 0.33122 0.37198 0.76902 0.72357 0.8638 0.70383 0.80569 0.56881 0.64483 0.39439 1.2228 0.57486 1.4411 0.37575 1.5315 0.14386 1.5754-0.035389 1.5793-0.16441 1.3818-0.21904 3.1823-0.62968 1.3236-0.21669 1.2338-0.0247 0.5654 0.09419 0.31252 0.087487 0.39534 0.14876 0.59367 0.2986 0.95355 0.62535 0.74448 0.57675 0.80394 0.70195 1.0088 1.0693 1.2172 1.4292 0.53014 0.68684 0.79422 1.1449 0.33049 0.54067 0.54182 1.0364 0.5508 1.2831 0.40782 1.1148 0.37878 1.2629 0.28701 1.2275 0.1829 0.98344 0.13458 1.025 0.23536 2.6852 0.37926 3.2684 0.032477 1.0084-0.025415 1.9524 0.041582 0.81228 0.055595 0.338 0.092619 0.31289 0.1219 0.25002 0.11562 0.15956 0.21233 0.18501 0.31475 0.13081 0.3836 0.038431 0.37319-0.039805 0.23113-0.055164 0.49071-0.18308 0.61142-0.32018 0.72923-0.46476 2.1844-1.5711 2.46-1.6964 0.75296-0.4889 1.9951-1.202 0.78824-0.53042 1.1819-0.90424 1.4175-1.2493 1.5393-1.5224 2.7599-2.8796 0.88585-0.83923 1.0417-0.90716 1.0769-0.85146 0.66664-0.47238 0.61604-0.39639 0.61557-0.34919 0.78264-0.35028 0.82868-0.22542 0.50065-0.058509 0.3111-0.002318 0.51926 0.064552 0.42821 0.12481 0.46505 0.20528 0.61621 0.36396 2.2756 1.6417 0.56406 0.34371 0.81721 0.41057 0.8534 0.35274 1.0335 0.35024 0.71602 0.17824 0.81677 0.15093 2.5136 0.35674 0.75652 0.079659 0.59175 0.006949 0.43948-0.051442 0.32498-0.13109 0.11243-0.20152" stroke="#bdc660"/>
    </defs>
    <g clip-path="url(#p7f80720679)">
     <use y="280.512" fill="#bdc660" stroke="#bdc660" xlink:href="#m54cccf720d"/>
    </g>
   </g>
  </g>
 </g>
 <defs>
  <clipPath id="p7f80720679">
   <rect x="7.2" y="7.2" width="180.92" height="266.11"/>
  </clipPath>
 </defs>
</svg>
