<?xml version="1.0" encoding="UTF-8"?>
<!DOCTYPE svg  PUBLIC '-//W3C//DTD SVG 1.1//EN'  'http://www.w3.org/Graphics/SVG/1.1/DTD/svg11.dtd'>
<svg width="162.73pt" height="280.51pt" version="1.1" viewBox="0 0 162.73 280.51" xmlns="http://www.w3.org/2000/svg" xmlns:xlink="http://www.w3.org/1999/xlink">
 <metadata>
  <rdf:RDF xmlns:cc="http://creativecommons.org/ns#" xmlns:dc="http://purl.org/dc/elements/1.1/" xmlns:rdf="http://www.w3.org/1999/02/22-rdf-syntax-ns#">
   <cc:Work>
    <dc:type rdf:resource="http://purl.org/dc/dcmitype/StillImage"/>
    <dc:date>2024-07-04T12:07:51.102211</dc:date>
    <dc:format>image/svg+xml</dc:format>
    <dc:creator>
     <cc:Agent>
      <dc:title>Matplotlib v3.7.1, https://matplotlib.org/</dc:title>
     </cc:Agent>
    </dc:creator>
   </cc:Work>
  </rdf:RDF>
 </metadata>
 <defs>
  <style type="text/css">*{stroke-linejoin: round; stroke-linecap: butt}</style>
 </defs>
 <g id="figure_1">
  <g id="patch_1">
   <path d="m0 280.51h162.73v-280.51h-162.73v280.51z" fill="none"/>
  </g>
  <g id="axes_1">
   <g id="PatchCollection_1">
    <defs>
     <path id="m93e47a7543" d="m114.92-233.97-0.21342 0.34987-0.18224 0.60925-0.45402 2.0373-0.89846 5.6678-0.68276 6.1381-0.73055 8.996-0.498 3.3354-0.80149 3.4378-0.65515 2.1244-1.1712 3.1807-1.0927 2.5966-1.5516 3.3405-0.80137 1.5712-1.5267 2.7099-5.1664 8.5168-3.7068 6.528-1.4643 2.8016-2.7347 5.6038-2.6635 5.9351-1.2909 3.1058-1.4693 3.8814-1.0361 3.2881-0.79524 3.6777-0.31752 2.4002-0.12092 2.9422 0.32107 3.0901 0.43376 1.6243 0.79348 1.8704 0.61828 1.1227 1.5756 2.3534 2.3789 2.9563 2.5654 2.8174 2.3719 2.4053 4.2151 3.9932 8.0546 7.3412 3.6182 3.6992 4.2486 4.9082 5.7877 7.1869 2.8697 3.3794 1.4619 1.8864 1.6553 2.6481 1.5006 2.9423 1.3813 3.13 4.7602 12.158 0.49963 1.0908 0.64781 1.7131 1.2014 2.7555 2.7567 5.5861 2.9507 5.3856 5.0675 8.492 0.81252 1.548 0.6666 1.4867 0.4696 1.4136 0.20768 1.3235-0.13651 1.2106-0.52629 1.0515-0.57422 0.67222-0.83489 0.70746-0.90194 0.58924-1.0042 0.53475-2.2236 0.9297-4.9499 1.6067-2.8361 0.79992-6.1095 1.5571-2.5844 0.84057-5.8155 2.251-2.6479 1.1675-3.6005 1.7118-2.5563 1.0971-1.4244 0.48145-1.3703 0.31002-1.3376 0.073185-1.2296-0.26147-0.9135-0.51745-0.82535-0.75853-0.66358-0.83542-0.64462-1.028-0.60481-1.1745-1.7883-4.1802-0.55402-0.96022-0.34062-0.27994-0.27378 0.12276-23.039-49.271-3.9004-8.846-2.266-5.8237-0.95086-2.89-0.76953-2.8732-0.52505-2.8536-0.19862-2.8297 0.15204-2.5732 1.1575-7.777 0.12883-1.514 0.061493-3.375-0.11902-2.396-0.71301-7.4913-0.77316-10.619-0.38485-2.9491-0.53726-2.6521-0.70318-2.3392-0.76335-1.7916-0.95016-1.6545-2.212-3.2367-2.2003-3.5497-4.9057-8.8091-1.1622-1.8859-0.83578-1.1922-0.58567-0.70414-0.65086-0.55922-0.46925 0.057084-1.5813-5.866-0.58452-2.8261-0.049809-0.99054 0.45809-2.1689 0.10181-1.535-0.083521-1.5797-0.22409-0.99591-0.19744-0.45626-0.51291-0.69627-0.6665-0.58697-0.76431-0.49864-0.83127-0.42079-1.9981-0.7605-3.4196-1.1-1.0472-0.26872-0.44958-0.060549-0.4544 0.041295 0.17597-0.33616-0.043617-0.4587-0.52198-1.8219-0.59765-1.5182-1.2477-2.7355-1.3179-2.6137-2.6628-4.8165-5.6506-9.4609-1.6233-3.0465-2.6281-5.8368-0.98735-2.4955-0.68337-2.0832-1.4699-5.1226-1.764-6.6426-0.5688-1.6932-1.0381-2.4558-1.6843-3.6901-0.48479-1.454-0.35843-2.0418 0.004439-1.9985 0.26562-1.5259 0.29625-0.89835 0.40998-0.84902 0.40676-0.61736 0.41923-0.48953 0.97733-0.77753 1.1178-0.54818 1.0612-0.33359 1.9046-0.39546 1.3118-0.12118 1.0427 0.01671 1.4477 0.14844 5.9523 0.8447 2.9139 0.15362 5.4605-0.075045 5.1597-0.38109 1.2666-0.027194 1.8728 0.11661 1.537 0.279 4.1514 1.3864 1.858 0.52522 7.1714 1.5696 3.0012 0.72284 2.1472 0.62629 3.3217 1.1463 2.4947 0.68505 3.3249 0.51516 6.4601 0.55839 3.2795 0.54662 2.5353 0.67956 2.4031 0.98598 1.6954 1.0068 1.5969 1.2037 1.8278 1.6482 6.0255 6.0226 1.9575 1.7116 1.3848 1.0781 1.7662 1.1743 1.7713 0.97284 1.0581 0.4865 1.452 0.53337 1.3987 0.3742 1.0114 0.17047 0.7335 0.00214 0.3259-0.16271" stroke="#bdc660"/>
    </defs>
    <g clip-path="url(#p6a5cd517de)">
     <use y="280.512" fill="#bdc660" stroke="#bdc660" xlink:href="#m93e47a7543"/>
    </g>
   </g>
  </g>
 </g>
 <defs>
  <clipPath id="p6a5cd517de">
   <rect x="7.2" y="7.2" width="148.33" height="266.11"/>
  </clipPath>
 </defs>
</svg>
