<?xml version="1.0" encoding="UTF-8"?>
<!DOCTYPE svg  PUBLIC '-//W3C//DTD SVG 1.1//EN'  'http://www.w3.org/Graphics/SVG/1.1/DTD/svg11.dtd'>
<svg width="371.52pt" height="263.07pt" version="1.1" viewBox="0 0 371.52 263.07" xmlns="http://www.w3.org/2000/svg" xmlns:xlink="http://www.w3.org/1999/xlink">
 <metadata>
  <rdf:RDF xmlns:cc="http://creativecommons.org/ns#" xmlns:dc="http://purl.org/dc/elements/1.1/" xmlns:rdf="http://www.w3.org/1999/02/22-rdf-syntax-ns#">
   <cc:Work>
    <dc:type rdf:resource="http://purl.org/dc/dcmitype/StillImage"/>
    <dc:date>2024-07-04T12:07:36.403545</dc:date>
    <dc:format>image/svg+xml</dc:format>
    <dc:creator>
     <cc:Agent>
      <dc:title>Matplotlib v3.7.1, https://matplotlib.org/</dc:title>
     </cc:Agent>
    </dc:creator>
   </cc:Work>
  </rdf:RDF>
 </metadata>
 <defs>
  <style type="text/css">*{stroke-linejoin: round; stroke-linecap: butt}</style>
 </defs>
 <g id="figure_1">
  <g id="patch_1">
   <path d="m0 263.07h371.52v-263.07h-371.52v263.07z" fill="none"/>
  </g>
  <g id="axes_1">
   <g id="PatchCollection_1">
    <defs>
     <path id="m29a8ba681f" d="m331.67-237.44 0.77158 4.8227 0.47444 1.8447 0.50027 1.1011 0.49954 0.57913 0.62833 0.38444 0.7306 0.25161 2.3843 0.50767 0.7371 0.25296 0.64732 0.38116 0.53584 0.55915 0.43528 0.70263 0.36196 0.80672 0.82811 2.7855 1.9981 9.3387 1.2154 5.2762 3.6643 13.945-1.26 0.29218-1.786 0.57769-2.9335 1.2314-2.358 1.2636-2.3992 1.6421-1.1744 1.0116-0.82706 0.84411-1.38 1.7485-2.0176 2.846-1.2748 1.6252-5.1088 5.706-1.3755 1.8427-1.1451 2.0306-4.1097 9.8255-2.5401 4.818-1.8345 3.8853-1.3383 2.2044-0.93487 1.1681-1.0952 1.0928-1.2372 0.98077-1.4732 0.91474-2.8151 1.3234-5.3417 1.9952-0.68896 0.29732-0.16722 0.15473-0.59061 1.1151-1.0164 1.5791-5.2775 7.4442-4.0078 5.9772-2.4782 4.1794-4.0225 7.8478-1.9908 3.5653-1.9752 2.9588-3.0172 3.9491-2.9033 3.2818-1.5762 1.5781-2.6621 2.3455-3.2883 2.515-8.1914 5.5975-4.2163 3.1705-1.6718 1.3826-1.515 1.4704-1.3793 1.6803-4.3761 6.171-1.6153 2.4546-0.7324 1.3966-0.48324 1.1698-0.36072 1.303-0.18671 1.2779-0.06269 1.1079 0.037058 1.1144 0.29724 1.8321 1.3823 5.2467 0.22375 1.5508 0.098841 1.3435-0.028016 1.6087-0.23587 1.5354-0.69255 2.0108-0.36604 0.70216-1.1809 1.6549-1.4611 1.4115-1.231 0.8601-0.90293 0.46971-1.6543 0.52431-1.423 0.11283-0.66674-0.1445-0.20549-0.16698-6.5569-0.97514-5.7296-1.1719-1.7052-0.25252-1.1966 0.060891-1.2722 0.46921-0.74912 0.14859-0.82275-0.004141-2.7082-0.33866-0.27993 0.002101-0.14025 0.084072-1.5707 2.7407-2.371 3.5375-2.064 2.7543-1.0598 1.2561-1.3709 1.4575-2.3152 2.0878-2.8891 2.1937-3.1417 1.9882-2.3961 1.2283-3.0785 1.1769-3.6852 1.0714-13.207 3.2242-10.767 2.481-2.4356 0.40013-3.1915 0.26743-2.7849-0.038586-2.7582-0.27816-3.436-0.68262-2.8741-0.8464-2.9951-1.2134-2.9844-1.5921-2.4722-1.6013-1.786-1.3737-2.1451-1.8926-4.2799-4.0628-2.9715-2.4763-2.0834-1.4384-1.9049-1.0857-2.0296-0.93689-1.3499-0.51223-1.9991-0.6073-2.5453-0.55744-2.5743-0.37574-2.7943-0.23672-3.7913-0.10022-7.5229 0.1374-5.2177-6.78e-4 -2.4952-0.054285-2.7227-0.16891-1.9156-0.22594-1.6063-0.30939-1.6324-0.47475-1.6037-0.65957-1.5175-0.87233-2.1269-1.7902-1.9-2.2107-1.766-2.5102-3.5955-5.6835-2.2706-3.381-1.5707-2.1263-1.6375-1.9851-1.2211-1.3138-2.6541-2.3841-1.8584-1.3204-2.0098-1.1967-2.9441-1.4968-8.6634-4.0581-3.2162-1.2775-2.5556-0.62506-2.4953-0.13651-2.3635 0.31592-2.1158 0.69652-2.2076 1.2285-2.5086 1.5822-0.71744 0.20207-0.44182-0.54936-0.094854-1.5081 0.24467-1.6904 0.21746-0.88862 0.74194-2.1605 1.2764-2.7769 2.1764-3.8807 3.3686-5.2466 3.7276-5.3582 4.6825-6.3907 5.4807-7.2475 1.9469-2.8244 2.1315-3.4845 1.6308-3.0927 1.0733-2.3461 0.94725-2.3714 1.0968-3.301 1.1025-4.5262 0.65394-3.8236 0.31487-2.3162 0.94741-11.014 0.48674-2.8485 0.52129-1.9818 0.39014-1.2061 1.0751-2.4923 1.3415-2.1776 1.6877-2.0598 1.0956-1.0744 2.6702-2.0244 2.0039-1.1243 2.1311-0.90121 1.4797-0.46971 3.8243-0.87026 7.5721-1.3722 3.9564-0.80129 12.096-2.7267 5.1937-1.285 3.4577-1.0383 2.6971-1.0293 2.691-1.3019 5.6784-2.9633 2.0651-0.90245 1.4711-0.51554 1.5332-0.43184 2.0412-0.41501 1.7668-0.22723 8.0971-0.47867 4.0054-0.54798 2.559-0.59327 1.7438-0.58009 1.603-0.73525 1.1529-0.71423 0.72462-0.56415 1.9424-2.1937 1.4626-2.6004 1.2161-2.9163 1.0846-2.996 0.94509-3.324 1.016-5.1578 2.0619-14.51 0.3909 0.17588 0.87743 0.10656 2.1045-0.034941 3.4099-0.3573 2.4566-0.39349 2.2465-0.47237 2.3754-0.67539 1.3424-0.50579 1.3181-0.62904 1.9914-1.3679 1.1435-1.2121 0.89689-1.3351 0.8516-1.7345 1.4469-3.6793 0.6227-1.2791 0.7474-1.0929 0.94961-0.88693 1.0741-0.63667 0.96933-0.34603 1.5933-0.11008 1.1553 0.2237 3.9564 1.2982 1.712 0.33566 1.9511 0.23856 1.466 0.11228 2.5275 0.055148 1.8571-0.084016 1.8437-0.2031 2.3545-0.46922 4.4836-1.4599 2.8485-0.78684 9.324-1.6741 3.2422-0.777 8.554-2.3158 2.1742-0.47013 3.0791-0.45973 3.1296-0.20455 1.5976 0.009206 3.3248 0.29044 2.0522 0.35311 2.678 0.62758 3.8452 1.1679 5.7631 2.1416 5.6269 2.3458 21.247 9.6046 4.4736 1.9114 3.7272 1.4754 2.2475 0.81744 4.0222 1.2689 1.9858 0.50021 3.6067 0.54055 3.6757-0.16346 1.9883-0.42602 1.8991-0.69711 2.0128-1.1322 1.2195-0.88191 2.2952-2.0381 2.4138-2.6399 4.0525-4.8257 1.614-1.7405 1.1221-1.0099 0.98077-0.36873" stroke="#bdc660"/>
    </defs>
    <g clip-path="url(#p38ca0cb6bd)">
     <use y="263.071077" fill="#bdc660" stroke="#bdc660" xlink:href="#m29a8ba681f"/>
    </g>
   </g>
  </g>
 </g>
 <defs>
  <clipPath id="p38ca0cb6bd">
   <rect x="7.2" y="7.2" width="357.12" height="248.67"/>
  </clipPath>
 </defs>
</svg>
