<?xml version="1.0" encoding="UTF-8"?>
<!DOCTYPE svg  PUBLIC '-//W3C//DTD SVG 1.1//EN'  'http://www.w3.org/Graphics/SVG/1.1/DTD/svg11.dtd'>
<svg width="288.6pt" height="280.51pt" version="1.1" viewBox="0 0 288.6 280.51" xmlns="http://www.w3.org/2000/svg" xmlns:xlink="http://www.w3.org/1999/xlink">
 <metadata>
  <rdf:RDF xmlns:cc="http://creativecommons.org/ns#" xmlns:dc="http://purl.org/dc/elements/1.1/" xmlns:rdf="http://www.w3.org/1999/02/22-rdf-syntax-ns#">
   <cc:Work>
    <dc:type rdf:resource="http://purl.org/dc/dcmitype/StillImage"/>
    <dc:date>2024-07-04T12:08:13.668811</dc:date>
    <dc:format>image/svg+xml</dc:format>
    <dc:creator>
     <cc:Agent>
      <dc:title>Matplotlib v3.7.1, https://matplotlib.org/</dc:title>
     </cc:Agent>
    </dc:creator>
   </cc:Work>
  </rdf:RDF>
 </metadata>
 <defs>
  <style type="text/css">*{stroke-linejoin: round; stroke-linecap: butt}</style>
 </defs>
 <g id="figure_1">
  <g id="patch_1">
   <path d="m0 280.51h288.6v-280.51h-288.6v280.51z" fill="none"/>
  </g>
  <g id="axes_1">
   <g id="PatchCollection_1">
    <defs>
     <path id="m03b52313d8" d="m224.76-233.68 0.30727-0.1382 0.53669 0.096946 0.38389 0.15611 0.5088 0.27575 0.6034 0.39857 1.3015 1.0934 1.1771 1.2913 2.8861 3.6411 2.0009 2.2393 1.5451 1.8531 0.83021 1.1424 0.70894 1.2135 0.7066 1.7631 0.50254 1.89 1.0256 5.3483 0.32889 1.3902 0.37808 1.3082 0.64436 1.7271 0.58966 1.1924 0.34676 0.57746 0.77682 1.0677 0.47777 0.55094 2.6633 2.7202 0.74217 0.8701 0.6461 0.87192 0.54234 0.90724 0.40878 0.85346 0.33814 0.90622 0.19636 0.72272 0.087139 0.45819 0.10201 1.2546-0.024134 0.8295-0.13863 1.288-0.24244 1.3778-0.2753 1.262-1.1215 4.2761-0.1972 1.1544-0.089667 1.1897 0.059632 1.5253 0.27228 1.7252 0.3976 1.5301 0.49242 1.3807 0.67169 1.4869 1.1255 2.1539 2.5996 4.5755 1.2484 2.0458 0.83416 1.2063 0.87997 1.1502 2.4805 3.0063 2.9381 3.7466 0.79435 1.087 1.0544 1.6479 0.69721 1.3029 0.84029 1.9689 0.5801 1.8456 0.3568 1.6888 0.27287 2.4798 0.05746 1.7537-0.11393 3.0059-0.57702 6.5045-0.11116 1.9349-0.029669 2.8286 0.14994 2.6202 0.23967 1.6468 0.32633 1.3519 0.32052 1.0503 1.3658 3.9667 0.40392 1.31 0.4574 1.7366 0.30336 1.405 0.32773 2.057 0.1799 2.076 0.039009 1.4374-0.028231 3.3558 0.043478 0.046528 0.027401 0.23424-0.015227 0.50936-0.11775 1.057-0.19004 1.1623-0.34017 1.5629-0.56058 1.906-0.85369 2.2998-1.1509 2.7487-0.98877 2.1151-1.252 2.3368-1.1038 1.7831-0.78787 1.1218-0.99494 1.2363-0.96746 1.0145-0.9439 0.82936-1.65 1.1704-1.7642 0.99137-1.8451 0.84247-1.9005 0.71349-2.0105 0.61452-1.1372 0.28669-1.0816 0.22926-1.901 0.32382-4.0835 0.56117-9.3036 1.402-3.3584 0.39272-4.9491 0.4668-1.9331 0.16492-2.7461 0.15426-3.1997 7.12e-4 -5.3002-0.25533-2.1896 0.040294-2.2267 0.17841-2.2585 0.27704-5.8535 0.93576-2.1341 0.40354-3.2344 0.74725-2.6794 0.75176-2.2556 0.74841-2.1673 0.8515-2.0243 0.9688-1.8053 1.105-1.4871 1.2598-1.0534 1.4213-0.44526 1.1156-0.17361 0.84704-0.057179 0.7712 0.032422 0.7094 0.086491 0.4707 0.11435 0.28843 0.11792 0.13256-0.58228 0.67509-3.5788 4.5506-1.2543 1.4027-0.76173 0.74737-0.70606 0.61435-0.99704 0.74166-1.7533 1.0562-1.5997 0.82068-2.4069 1.1543-1.5332 0.54816-0.82918 0.16976-0.80117 0.085272-1.4094 0.040512-2.2377-0.002054-1.3361 0.13071-1.4675 0.36412-1.2812 0.46314-1.0877 0.4731-2.242 1.1477-1.3439 0.76246-6.208 3.7223-2.3994 1.3496-1.0474 0.53873-1.6193 0.73893-1.5172 0.57736-2.2837 0.78194-2.2603 0.70997-1.7443 0.64838-1.6931 0.696-1.1407 0.59014-1.5582 1.0049-3.4702 2.4983-6.121 4.1594-1.8463 1.1084-0.90941 0.46235-2.4005 1.0382-2.4177 0.8982-1.9685 0.62117-5.9061 1.6401-1.7556 0.55542-1.5387 0.58651-1.0804 0.51498-0.37589 0.33539-0.19995-0.57772-0.64882-1.162-0.95464-1.4788-1.1711-1.5975-0.5602-0.68861-0.79388-0.88146-0.8832-0.87882-1.7026-1.5569-5.5013-4.6819-1.7687-1.5553-1.6515-1.555-1.4835-1.5594-1.2594-1.5703-1.7569-2.7299-1.0441-1.4455-4.2612-5.2436-0.93081-1.0517-0.72182-0.66029-0.78643-0.60412-1.5544-0.94878-1.6648-0.72049-1.1034-0.32814-1.616-0.34404-2.624-0.37007-1.2844-0.29423-1.3697-0.53301-1.2243-0.6415-1.2154-0.7408-2.7426-1.793-1.4226-0.84175-1.4405-0.67909-1.4676-0.42493-1.451-0.10823-1.4762 0.11041-3.457 0.51832-0.92896 0.086643-0.7641 0.023963-1.6302-0.12499-0.63154-0.099594-5.3978-0.95729-1.2052-0.26444-1.5662-0.48999-5.4813-2.0995-1.2148-0.54502-1.0652-0.70364-0.2989-0.27891-0.58406-0.74839-0.34765-0.69034-0.22406-0.71798-0.14576-1.0901 0.004815-1.0211 0.20069-1.7148 0.29194-1.4327 0.40418-1.5118 0.25473-0.79772 0.53368-1.4083 0.39605-0.87608 0.66126-1.2449 0.8349-1.2995 0.3536-0.40889 0.063402-0.010356 0.021573-0.24658 0.2452-0.50515 0.8868-1.4041 0.96335-1.3067 0.65377-0.80753 1.4535-1.6537 1.7909-1.8884 4.0989-4.0904 2.9103-3.2007 2.8634-2.9956 2.1155-2.0639 2.9704-2.7747 1.3135-1.3678 1.6659-1.9772 1.4217-1.8956 0.84933-1.2642 0.75829-1.2884 0.63552-1.3098 0.39851-1.039 0.34117-1.0424 0.75357-2.4083 0.49552-1.8207 0.38978-1.8416 0.19488-1.4274 0.065522-1.3021-0.063941-1.2539-0.20693-1.1533-0.26151-0.90676-0.29354-0.80658-0.50316-1.1514-0.60205-1.1777-0.88585-1.5213-3.6389-5.5133-1.4451-2.4085-2.7442-4.9252-0.71307-1.1503-0.97499-1.3512-1.0511-1.2488-1.0983-1.1397-1.1179-1.0193-1.6285-1.3445-1.0309-0.94498-0.81216-0.84538-0.77186-0.9031-0.85043-1.1152-0.58315-0.85923-0.52853-0.87852-0.75211-1.5789-0.15701-0.44074-0.22703-0.82367-0.16079-1.111 0.005959-0.83541 0.1317-0.80287 0.24973-0.73232 0.37983-0.76236 0.60721-0.97434 0.6696-0.96599 1.5222-1.9685 1.0455-1.16 1.1273-1.0847 1.2714-1.0913 2.361-1.8087 1.4912-1.2217 1.4818-1.3621 1.1485-1.1603 1.3863-1.5152 0.92546-1.0902 1.5537-2.0598 0.84119-1.2617 0.7549-1.2393 0.71974-1.3046 0.70533-1.4367 0.4876-1.1199 0.69566-1.8443 0.75548-2.3367 0.67887-2.4644 0.59799-2.7082 0.63506-3.4309 0.23192-0.8454 0.1174-0.25428 0.10889-0.060224 3.5238 1.2711 0.88419 0.36691 1.0318 0.49102 1.9089 1.0371 3.6185 2.1246 8.5779 4.7393 3.7046 2.251 1.2189 0.59491 0.97239 0.34824 2.0993 0.56468 1.3052 0.24829 0.99694 0.086149 1.0117-0.040931 1.358-0.28764 1.3766-0.5053 1.3926-0.66044 1.718-0.93929 1.4271-0.85103 2.6871-1.8134 1.9061-1.4612 1.5427-1.2868 1.616-1.4291 1.5818-1.4829 1.2806-1.2738 1.2299-1.303 1.457-1.6857 2.1382-2.7574 3.619-5.083 1.344-1.7434 1.107-1.3497 0.78415-0.87001 0.7967-0.80019 0.88198-0.80512 1.1035-0.8826 0.58862-0.38896 1.5337-0.77808 0.91752-0.36025 1.0901-0.30181 1.5878-0.17091 0.79637-0.017546 1.2219 0.028958 2.2484 0.13358 1.6161-0.03069 1.0962-0.14671 0.84674-0.17475 1.3741-0.36939 1.3079-0.44417 1.4388-0.66155 0.89183-0.5205 0.90659-0.61396 0.80672-0.6204 0.89306-0.77229 1.124-1.1027 0.93629-1.0285 1.6427-2.0411 1.6435-2.2735 1.3194-1.9045 5.918-8.7177 2.4125-3.4558 1.5625-2.1448 1.4937-1.9597 1.8571-2.3021 1.2315-1.4407 1.9382-2.1312 1.6501-1.6842 1.3752-1.293 0.83349-0.72812 1.2729-1.031 1.8358-1.363 3.3514-2.343 0.10811-0.13651 0.21602 0.009061 0.62088 0.39941 0.78444 0.79373 0.86326 1.0586 0.58414 0.80311 0.90055 1.4615 0.83517 1.6191 0.7714 1.7124 0.71439 1.7545 1.284 3.4837 0.52068 1.5836 0.2726 1.0552 0.23052 1.1548 0.26705 1.8952 0.17986 1.9362 0.19898 3.2128 0.31347 7.4021 0.15397 1.7224 0.22353 1.6008 0.30417 1.5108 0.40205 1.3855 0.52421 1.2145 0.5101 0.78871 0.33358 0.37602 0.38809 0.33725 0.43 0.27202 0.48559 0.19768 0.40256 0.087846 0.39822 0.025799 0.41668-0.033712 0.37996-0.080688 0.45187-0.15174 1.2544-0.65118 3.1164-1.9084 1.1114-0.62 3.0954-1.4974 1.5445-0.68453 1.0354-0.40334 1.8331-0.58412 7.696-1.9491 2.6042-0.69629 2.7042-0.83318 5.9018-1.9272 4.1224-1.2988" stroke="#bdc660"/>
    </defs>
    <g clip-path="url(#p2d546d166e)">
     <use y="280.512" fill="#bdc660" stroke="#bdc660" xlink:href="#m03b52313d8"/>
    </g>
   </g>
  </g>
 </g>
 <defs>
  <clipPath id="p2d546d166e">
   <rect x="7.2" y="7.2" width="274.2" height="266.11"/>
  </clipPath>
 </defs>
</svg>
