<?xml version="1.0" encoding="UTF-8"?>
<!DOCTYPE svg  PUBLIC '-//W3C//DTD SVG 1.1//EN'  'http://www.w3.org/Graphics/SVG/1.1/DTD/svg11.dtd'>
<svg width="219.26pt" height="280.51pt" version="1.1" viewBox="0 0 219.26 280.51" xmlns="http://www.w3.org/2000/svg" xmlns:xlink="http://www.w3.org/1999/xlink">
 <metadata>
  <rdf:RDF xmlns:cc="http://creativecommons.org/ns#" xmlns:dc="http://purl.org/dc/elements/1.1/" xmlns:rdf="http://www.w3.org/1999/02/22-rdf-syntax-ns#">
   <cc:Work>
    <dc:type rdf:resource="http://purl.org/dc/dcmitype/StillImage"/>
    <dc:date>2024-07-04T12:08:25.955769</dc:date>
    <dc:format>image/svg+xml</dc:format>
    <dc:creator>
     <cc:Agent>
      <dc:title>Matplotlib v3.7.1, https://matplotlib.org/</dc:title>
     </cc:Agent>
    </dc:creator>
   </cc:Work>
  </rdf:RDF>
 </metadata>
 <defs>
  <style type="text/css">*{stroke-linejoin: round; stroke-linecap: butt}</style>
 </defs>
 <g id="figure_1">
  <g id="patch_1">
   <path d="m0 280.51h219.26v-280.51h-219.26v280.51z" fill="none"/>
  </g>
  <g id="axes_1">
   <g id="PatchCollection_1">
    <defs>
     <path id="me4801fe538" d="m161.99-261.06-0.66755 3.0437-0.28 2.2805-0.11074 2.3622 0.003644 2.548 0.22432 5.3854 0.38384 6.4004 0.22616 2.7307 0.26082 2.2771 0.63873 4.0716 0.8811 4.249 0.68278 2.7326 0.608 2.1547 0.64089 2.0439 0.64752 1.874 1.3446 3.3881 1.6706 3.6325 1.6765 3.3847 0.6739 1.5418 0.46113 1.3288 0.38988 1.6383 0.088454 0.65905 0.026692 1.2281-0.08256 0.72484-0.18313 0.83125-0.47329 1.3252-0.4993 1.0054-0.48103 0.80003-1.123 1.539-1.3997 1.5564-0.95203 0.92808-4.6505 4.0442-1.9379 1.8199-1.589 1.7413-0.67742 0.85263-0.78566 1.1115-0.88459 1.4717-0.67119 1.4095-0.40819 1.1561-0.2111 0.85747-0.10538 0.67567-0.050234 0.78512 0.055332 1.1896 0.084775 0.64655 0.31893 1.5149 0.22847 0.79345 0.45459 1.2818 1.0704 2.3544 1.2862 2.352 1.4136 2.3509 2.4996 3.984 1.5039 2.2526 2.0567 2.7998 5.3481 6.9039 1.7465 2.125 1.9202 2.1701 1.7482 1.8008 1.7418 1.6401 1.8588 1.6018 3.5489 2.8902 1.9399 1.7388 0.90873 0.90701 1.5063 1.6664 1.2787 1.5735 1.0971 1.5025 1.0145 1.5526 1.1911 2.1328 1.4322 2.7611 1.2884 2.7566 0.83692 1.962 1.3796 3.5462 0.75701 2.1699 1.1638 3.7729 0.90044 3.5465 0.72718 3.5559 0.47598 2.9879 0.39389 3.4269 0.24492 3.9407 0.024563 2.0387-0.10567 2.8506-0.38245 4.306-0.82882 6.4728-0.42427 5.0015-0.19288 1.7263-0.16031 1.2092-0.28842 1.5062-0.45233 1.2584-0.70182 0.99999-0.78549 0.59216-0.67954 0.087349-0.46944-0.027684-1.0746 0.32453-1.3049 0.53503-1.1239 0.53499-1.714 0.92744-1.4922 0.89951-2.049 1.3461-5.3005 3.7687-3.6375 2.4852-2.1714 1.339-4.9409 2.9127-8.8239 5.5763-2.0316 1.1766-1.8775 0.94541-1.7027 0.71457-1.532 0.52776-1.7624 0.4649-2.0783 0.38354-1.5647 0.18221-1.8329 0.069929-1.7502-0.075356-2.3244-0.2994-1.2306-0.26878-1.425-0.44338-0.87595-0.37222-1.0714-0.58709-0.81931-0.55694-0.96324-0.7908-0.74169-0.74625-0.57392-0.67602-1.8652-2.5736-0.84865-1.0477-1.1279-1.1017-1.6761-1.3958-1.0066-0.68117-1.0536-0.48123-0.79762-0.1963-1.3409-0.021967-1.3959 0.28111-1.4138 0.51528-1.3953 0.69255-0.7018 0.41582-1.4258 1.0468-1.3265 1.2495-2.7372 3.1781-0.71219 0.7621-2.2474 2.1336-1.2789 1.1281-1.7919 1.4434-1.3883 1.0248-2.4762 1.7179-3.4722 2.2709-6.7422 4.1327-1.0035 0.53602-2.8936 1.4093-3.4494 1.4854-2.6096 0.94743-1.4482 0.44694-1.7109 0.46267-2.348 0.53424-3.8021 0.66099-4.1815 0.48033-3.6692 0.20473-2.2045 0.037048-2.7263-0.06796-2.027-0.16106-1.1401-0.14482-1.6478-0.29489-1.0526-0.2716-0.46811-0.17372-0.036595-0.093049-0.32629-0.019527-0.41181-0.4464-0.32951-0.56669-0.40836-0.92538-0.34864-0.96725-0.55596-1.851-0.79164-3.2363-0.59936-2.8807-1.1063-5.959-0.54461-3.5393-0.37135-3.8299-0.10029-2.4121-0.027092-2.2117 0.051824-3.889 0.22978-8.9787 0.018435-2.6375-0.086166-2.6211-0.21985-2.6224-0.35262-2.6075-0.49498-2.5754-0.65811-2.524-0.84237-2.427-1.1295-2.5883-0.65143-1.2934-0.90024-1.6303-0.94248-1.5762-0.99253-1.5583-2.2497-3.2718-1.8285-2.4845-1.8003-2.3391-3.1715-3.8672-3.591-4.0369-1.6963-1.7994-1.9359-1.9329-3.4145-3.1533-1.4969-1.491-1.0242-1.1153-1.1937-1.4139-1.2699-1.6815-0.91114-1.3626-0.80939-1.3563-0.77498-1.4694-0.71472-1.5939-0.6969-1.9805-0.38222-1.4882-0.32616-1.9263-0.15111-2.3046 0.082748-1.9737 0.078076-0.67682 0.33783-1.8941 0.44878-1.8025 0.67452-2.1792 2.479-6.7569 0.81704-2.4486 0.41531-1.4718 0.37678-1.5975 0.48879-2.8304 0.3068-2.7773 0.23524-3.2787 0.6287-14.869-0.13279-2.586-0.32706-2.5963-0.43777-2.5818-0.93441-4.9517-1.3513-5.6667-0.24325-1.7242-0.048037-1.441 0.032273-2.6497-0.12205-1.4287-0.22017-1.1145-0.20816-0.49999 0.17302 0.028448 0.61158-0.11922 0.7402-0.28404 1.0556-0.50296 2.7437-1.547 3.3022-2.0921 2.0651-1.3765 2.056-1.4809 2.4171-1.9827 2.3138-2.1418 2.2214-2.2492 2.1432-2.3177 4.1054-4.7401 3.9369-4.7865 11.382-14.192 3.8195-4.5192 1.9556-2.1592 2.0076-2.0541 2.0822-1.907 2.1867-1.7036 2.33-1.4258 2.2432-0.99104 2.3619-0.75908 2.4509-0.58193 2.5164-0.44644 2.5631-0.34163 2.5947-0.25826 2.9598-0.2089 2.9686-0.13033 2.9624-0.052541 4.3427 0.085534 2.897 0.19235 1.5459 0.15322 2.9867 0.40692 1.4297 0.25378 2.2409 0.4957 2.079 0.61385 3.4431 1.3525 1.5697 0.5764 1.6144 0.50493 1.646 0.40477 1.9994 0.29376 1.3477 0.033689 1.0808-0.059079 1.6679-0.20932 1.6749-0.3154 3.7471-0.84018 2.3921-0.62953 5.1512-1.533 2.8459-0.78817 2.9931-0.77137 2.8883-0.64639 2.6539-0.43161 2.5367-0.23172 1.6945-0.061166 1.3321 0.006918 0.80578 0.058633 0.22756 0.093362" stroke="#bdc660"/>
    </defs>
    <g clip-path="url(#pb0ab357421)">
     <use y="280.512" fill="#bdc660" stroke="#bdc660" xlink:href="#me4801fe538"/>
    </g>
   </g>
  </g>
 </g>
 <defs>
  <clipPath id="pb0ab357421">
   <rect x="7.2" y="7.2" width="204.86" height="266.11"/>
  </clipPath>
 </defs>
</svg>
