<?xml version="1.0" encoding="UTF-8"?>
<!DOCTYPE svg  PUBLIC '-//W3C//DTD SVG 1.1//EN'  'http://www.w3.org/Graphics/SVG/1.1/DTD/svg11.dtd'>
<svg width="313.83pt" height="280.51pt" version="1.1" viewBox="0 0 313.83 280.51" xmlns="http://www.w3.org/2000/svg" xmlns:xlink="http://www.w3.org/1999/xlink">
 <metadata>
  <rdf:RDF xmlns:cc="http://creativecommons.org/ns#" xmlns:dc="http://purl.org/dc/elements/1.1/" xmlns:rdf="http://www.w3.org/1999/02/22-rdf-syntax-ns#">
   <cc:Work>
    <dc:type rdf:resource="http://purl.org/dc/dcmitype/StillImage"/>
    <dc:date>2024-07-04T12:08:17.196228</dc:date>
    <dc:format>image/svg+xml</dc:format>
    <dc:creator>
     <cc:Agent>
      <dc:title>Matplotlib v3.7.1, https://matplotlib.org/</dc:title>
     </cc:Agent>
    </dc:creator>
   </cc:Work>
  </rdf:RDF>
 </metadata>
 <defs>
  <style type="text/css">*{stroke-linejoin: round; stroke-linecap: butt}</style>
 </defs>
 <g id="figure_1">
  <g id="patch_1">
   <path d="m0 280.51h313.83v-280.51h-313.83v280.51z" fill="none"/>
  </g>
  <g id="axes_1">
   <g id="PatchCollection_1">
    <defs>
     <path id="mfa08007690" d="m287.28-85.746-0.30442 0.13941-0.18348 0.39326-0.14639 0.54519-0.88944 6.1451-0.14378 1.654-0.041574 6.2591-0.24806 2.1028-0.30092 1.1537-0.44609 1.0844-0.86698 1.3514-1.1142 1.2117-1.6695 1.3547-1.1829 0.76531-1.2002 0.66567-1.2383 0.60079-1.5469 0.65549-5.2883 1.9823-2.4488 1.0785-1.4089 0.74918-3.7593 2.348-5.2941 3.0659-1.627 1.0619-3.0983 2.1647-1.7807 1.1362-1.829 1.0539-1.8661 0.93628-1.8938 0.77719-1.0841 0.35926-1.4507 0.4197-2.4443 0.57029-1.5039 0.25239-4.2786 0.42153-1.2632 0.17571-1.6481 0.32486-5.1113 1.252-1.2152 0.23693-1.427 0.19172-1.4017 0.064645-1.4751-0.08803-2.8694-0.38258-3.9513-0.64316-1.7081-0.17117-1.7133-0.065904-1.6743 0.16687-1.5815 0.49674-1.5446 0.80554-1.4934 1.0683-1.0009 0.8791-0.72152 0.71483-1.1744 1.2876-4.1151 5.0009-1.6165 1.8473-0.90207 0.98239-1.8302 1.8178-1.9484 1.6888-2.0435 1.5111-1.7624 1.0812-2.1975 1.0344-1.0082 0.34177-1.0332 0.24691-0.88741 0.12429-1.7218-0.014663-0.82124-0.14205-1.0081-0.29469-0.94784-0.39621-0.67909-0.35708-0.75275-0.46504-0.80532-0.58244-0.25154-0.20594-0.49409-0.56814-0.61065-0.18833-0.91823-0.85418-1.0544-1.3424-0.96884-1.5656-0.61233-1.1735-0.66609-1.4349-2.2622-5.1329-1.9989-4.0877-5.5137-10.661-1.4088-2.4525-1.3096-2.0132-0.92952-1.2657-1.1003-1.3329-1.2491-1.3693-1.6672-1.6996-5.3112-5.0179-3.1266-2.7667-1.1263-0.92858-2.3632-1.802-3.1007-2.2371-6.1434-5.0322-6.6287-5.0638-2.6558-1.8615-0.73102-0.44599-1.2397-0.65403-1.7912-0.69332-1.1325-0.30944-1.2614-0.25018-1.9432-0.22691-2.2443-0.072197-1.6899 0.055128-1.8158 0.12564-4.362 0.41058-2.1209 0.070575-2.0568-0.17701-2.0117-0.52628-1.9419-0.80582-1.8873-0.98684-2.9411-1.7612-1.0738-0.73108-1.5911-1.2955-1.5231-1.4722-1.0871-1.1747-1.968-2.3938-1.2764-1.78-0.73315-1.1508-0.55034-0.96862-1.1236-2.4786-0.8988-2.6404-0.75129-2.7453-1.788-7.6436-0.64556-2.4755-0.74165-2.3693-0.89066-2.2075-1.1044-1.9751-1.1482-1.4299-1.3397-1.1661-1.5207-0.85536-1.5178-0.47216-1.6365-0.22921-2.2204-0.019442-3.0304 0.30504-6.9948 1.1485-2.9929 0.42539-1.6829 0.18988-2.5394 0.1155-2.4736-0.2394-1.2843-0.32042-1.5264-0.55784-2.0238-1.0096-1.6014-1.0015-1.5202-1.1163-1.1735-0.97516-1.2039-1.1286-0.8062-0.91462-0.18048-0.39342-0.56613-0.57084-3.13-2.8511-1.1957-1.2059-1.6805-1.9042-1.0462-1.3894-0.69136-1.0466-0.74965-1.3552-0.44699-1.2034-0.24815-1.3118-0.090262-1.4066-0.048876-2.3799-0.070807-1.0536-0.17769-1.4599-0.46528-3.2022-0.84041-4.5-0.17513-1.403-0.32715-3.6964-0.076465-1.5329 0.006537-1.4418 0.092698-1.3844 0.18955-1.3691 0.21992-1.033 0.29017-1.0139 0.65828-1.672 0.83352-1.6035 0.97714-1.5314 1.1014-1.4494 1.217-1.3506 1.2634-1.1882 3.9277-3.2514 2.5442-2.2788 0.94102-0.9691 0.67818-0.82128 0.55434-0.82851 0.43289-0.87235 0.34871-1.1461 0.17824-1.0568 0.157-1.9633 0.29183-5.2441 0.029045-1.637-0.052756-2.39-0.29153-3.8488 0.025945-0.76412 0.082953-0.23047 0.065612-0.031205 0.60873 0.11624 1.4002 0.70307 3.8466 2.2548 3.5455 2.2805 5.4728 3.8082 3.5949 2.4379 1.7361 1.1336 1.1842 0.71221 0.96436 0.51602 1.1281 0.50235 0.98349 0.33564 1.9067 0.41068 1.859 0.028793 1.8129-0.41116 1.0468-0.3882 2.884-1.2679 1.8409-0.89093 2.4717-1.3244 2.0245-1.1907 2.6606-1.7084 1.5959-1.1005 3.1441-2.3233 1.5695-1.2368 3.4102-2.8738 1.8008-1.6496 3.486-3.3894 1.7275-1.5463 1.7946-1.4657 2.3263-1.7121 3.9532-2.625 1.9177-1.341 1.8093-1.4558 1.9134-1.8857 4.8945-5.5359 1.1954-1.2554 2.5405-2.5185 2.8636-2.6259 1.5442-1.313 2.2832-1.7694 1.5267-1.0291 1.5501-0.89288 1.5728-0.72698 0.64191-0.24052 1.304-0.41337 3.488-0.90101 1.7103-0.50119 1.5771-0.5197 3.4644-1.2873 3.4666-1.4306 7.0989-3.1301 2.5022-1.1465 1.3803-0.71765 1.2311-0.69542 6.2352-3.7531 2.0821-1.1342 0.65165-0.28856 0.011001 0.1672 0.07898 0.158 0.56623 0.7128 1.1662 1.111 0.98224 0.82139 1.7813 1.3046 3.3377 2.03 2.4319 1.6162 2.4424 1.8523 5.2536 4.2451 2.8821 2.0344 0.98197 0.84893 0.4142 0.45282 0.71282 1.0157 0.45832 0.82942 0.94258 2.0323 0.66828 1.643 1.7184 4.7456 0.81994 2.1046 0.88701 2.0298 0.47361 0.9683 0.6354 1.1768 0.89603 1.3985 0.98933 1.1946 1.1035 0.93106 0.32083 0.1975 1.0616 0.44637 0.68557 0.14467 0.72978 0.062194 0.76191-0.015261 0.85211-0.097302 1.2393-0.26226 1.4656-0.45862 1.7647-0.72364 1.4158-0.68466 4.5391-2.4339 1.0992-0.5007 1.3585-0.53209 1.7612-0.52627 1.517-0.30751 2.5927-0.36205 1.4764-0.096584 1.4212 0.050518 1.6791 0.28752 0.91901 0.25998 1.6736 0.65258 1.3405 0.69076 1.2435 0.77047 1.3367 0.979 1.7182 1.4484 1.7148 1.6221 1.463 1.6011 0.86942 1.1043 0.66942 0.95572 0.90003 1.5913 0.53256 1.1819 0.77253 1.9681 2.8383 8.157 1.4087 3.5546 0.88862 1.9123 1.7645 3.4587 0.85412 1.5026 0.9283 1.4618 1.0046 1.3955 0.889 1.1226 1.47 1.7066 1.1045 1.1908 2.2625 2.2797 5.7969 5.3556 0.94189 0.9408 0.75317 0.84773 0.69594 0.92493 0.5588 0.95444 0.16865 0.3746 0.23818 0.74815 0.069224 0.40863-0.045686 1.3225-0.61369 2.6869-0.11182 0.80131-0.02848 0.90665 0.073757 0.82319 0.38222 1.5345 0.43971 1.0785 0.36294 0.68888 0.56476 0.86349 0.77814 0.9702 0.9583 0.96926 1.2719 1.0309 1.904 1.2765 1.5897 0.97139 1.6695 0.93412 5.8968 3.0315 2.7271 1.458 1.9875 1.2174 1.6153 1.272 0.82446 0.83738 0.98116 1.2264 0.58353 0.90426 0.39348 0.73507 0.46246 1.1224 0.27733 1.0556 0.11368 1.0674-0.004573 0.41713-0.04928 0.56812-0.1638 0.86965-0.32521 1.0393-0.60279 1.3147-0.62307 1.031-0.64459 0.88587-0.56418 0.67702-1.7657 1.7952-1.3886 1.2165-0.73345 0.571-1.9408 1.2993-1.2252 0.67856-1.264 0.60726-1.4371 0.5936-1.8916 0.6447-2.7836 0.76678-3.2408 0.6366-2.7816 0.41706-1.1609 0.30497-1.0105 0.48339-1.1136 1.1236-0.27917 0.52004-0.23986 0.7865-0.047389 0.34369 0.037277 1.003 0.38488 1.2069 0.44902 0.72268 0.29766 0.35165 0.60702 0.57455 0.71133 0.53563 1.2607 0.74659 1.2698 0.6103 2.9451 1.2804 0.82245 0.41225 0.6959 0.43165 0.85302 0.70564 0.42746 0.46781 0.34222 0.46563 0.41947 0.74016 0.41045 1.0263 0.39063 1.4213 1.2135 5.9494 2.2723 8.709 0.6859 2.2842 1.1161 3.0308 1.5928 3.7761 0.7828 1.6019 0.57605 1.0333 0.66403 0.98229 0.3081 0.28809" stroke="#bdc660"/>
    </defs>
    <g clip-path="url(#pf57f69ca85)">
     <use y="280.512" fill="#bdc660" stroke="#bdc660" xlink:href="#mfa08007690"/>
    </g>
   </g>
  </g>
 </g>
 <defs>
  <clipPath id="pf57f69ca85">
   <rect x="7.2" y="7.2" width="299.43" height="266.11"/>
  </clipPath>
 </defs>
</svg>
