<?xml version="1.0" encoding="UTF-8"?>
<!DOCTYPE svg  PUBLIC '-//W3C//DTD SVG 1.1//EN'  'http://www.w3.org/Graphics/SVG/1.1/DTD/svg11.dtd'>
<svg width="263.31pt" height="280.51pt" version="1.1" viewBox="0 0 263.31 280.51" xmlns="http://www.w3.org/2000/svg" xmlns:xlink="http://www.w3.org/1999/xlink">
 <metadata>
  <rdf:RDF xmlns:cc="http://creativecommons.org/ns#" xmlns:dc="http://purl.org/dc/elements/1.1/" xmlns:rdf="http://www.w3.org/1999/02/22-rdf-syntax-ns#">
   <cc:Work>
    <dc:type rdf:resource="http://purl.org/dc/dcmitype/StillImage"/>
    <dc:date>2024-07-04T12:08:20.755834</dc:date>
    <dc:format>image/svg+xml</dc:format>
    <dc:creator>
     <cc:Agent>
      <dc:title>Matplotlib v3.7.1, https://matplotlib.org/</dc:title>
     </cc:Agent>
    </dc:creator>
   </cc:Work>
  </rdf:RDF>
 </metadata>
 <defs>
  <style type="text/css">*{stroke-linejoin: round; stroke-linecap: butt}</style>
 </defs>
 <g id="figure_1">
  <g id="patch_1">
   <path d="m0 280.51h263.31v-280.51h-263.31v280.51z" fill="none"/>
  </g>
  <g id="axes_1">
   <g id="PatchCollection_1">
    <defs>
     <path id="m5d6cc4431b" d="m241.77-52.907-0.011986 0.35404 0.6107 1.8003 0.90139 2.083 1.0894 2.2492 0.35115 0.99081 0.089171 0.92387-0.15382 0.64075-0.31696 0.61984-0.44325 0.60831-0.76393 0.83394-0.88945 0.82715-3.732 3.0834-1.7295 1.5695-3.3981 3.6501-0.79601 0.75245-0.85725 0.66029-1.0258 0.58989-1.1027 0.46312-2.1393 0.59786-4.113 0.93758-1.9343 0.68564-1.8866 1.0022-4.4159 3.031-1.7316 1.0731-2.3733 1.2547-2.3213 0.98744-2.2222 0.70794-1.9936 0.41772-0.99129 0.12762-1.4201 0.088386-3.2039-0.084669-0.50153-1.0788-2.5929-8.9495-1.4547-4.5482-1.5785-4.2078-1.332-3.0993-1.8668-3.7962-2.0203-3.4917-2.1739-3.2352-2.2831-2.9473-2.3581-2.6199-2.0205-1.8926-1.8997-1.4151-2.6341-1.3485-2.3863-0.66842-3.1379-0.24003-1.625 0.050754-3.9114 0.3783-4.1058 0.64657-4.2411 0.83109-8.7295 1.9943-26.855 6.7041-8.9953 2.045-4.4973 0.89726-4.4957 0.76565-4.4926 0.58247-4.4869 0.3309-4.4772-0.010248-4.0816-0.3723-4.0725-0.66292-4.0654-0.88153-4.0578-1.0438-8.0755-2.4099-8.2276-2.7504-4.1411-1.4739-7.8135-2.9982-3.5172-1.5115-3.1062-1.5144-2.5331-1.5146-1.746-1.5123-0.68045-1.5073 0.24363-0.93851 0.72505-0.90231 1.0433-0.77688 1.3493-0.69971 2.9694-1.0192 3.5416-0.82599 12.325-2.2218 4.2271-0.96068 4.0849-1.249 3.8576-1.6773 1.9657-1.1301 1.815-1.2781 1.7441-1.5282 1.5193-1.6865 1.29-1.8668 1.0097-1.9954 0.7251-2.1526 0.41566-2.2292 0.11332-2.0467-0.1285-2.0573-0.81259-3.6015-1.4477-3.2669-1.2281-1.939-1.4436-1.8363-2.4968-2.531-2.6917-2.1633-2.6186-1.759-2.8529-1.6889-5.2874-2.928-2.1844-1.2961-3.3915-2.4157-2.6292-2.5168-2.3976-2.8858-2.2401-3.1791-2.1501-3.408-4.4854-7.6695-4.8011-8.5022-6.9984-12.896-3.8023-7.5052-1.9355-4.1648 4.3808-2.6988 19.207-11.396 13.733-7.8045 7.8187-4.5467 15.692-9.3555 19.152-11.577 17.416-10.259 22.979-13.326 15.46-8.7408 8.0026-4.7916 1.5261-1.0305 0.5234-0.43894 0.50311 0.86539 8.3491 12.722 5.246 8.2232 5.052 8.2765 6.2557 10.709 1.7899 3.2923 1.7751 3.5449 1.5871 3.5441 1.3674 3.5457 1.2135 3.8731 0.95144 3.8418 0.72208 3.7731 0.50905 3.6646 0.2974 3.5117 0.27974 5.769 0.79597 9.1782 0.031685 1.9008-0.25088 10.818 0.4655 14.373-0.066843 3.2641-0.91381 8.421-0.1201 3.2889 0.11524 4.103 0.77867 11.489 0.21703 2.7365 0.27254 2.1987 1.124 6.7435 0.65586 3.4541 0.67277 2.793 0.87312 2.6869 1.2734 2.8149 1.6449 3.0042 1.3584 2.2349 1.4863 2.2347 3.4387 4.6732 2.2579 2.8725 2.0693 2.4628 1.952 2.1991 4.0166 4.3081 2.7 2.7068 1.5792 1.4672 2.8 2.3706 7.867 5.744 1.1704 0.9802 0.8835 0.87712 0.3614 0.57068-0.043731 0.18308" stroke="#bdc660"/>
    </defs>
    <g clip-path="url(#pa3ffbf89aa)">
     <use y="280.512" fill="#bdc660" stroke="#bdc660" xlink:href="#m5d6cc4431b"/>
    </g>
   </g>
  </g>
 </g>
 <defs>
  <clipPath id="pa3ffbf89aa">
   <rect x="7.2" y="7.2" width="248.91" height="266.11"/>
  </clipPath>
 </defs>
</svg>
