<?xml version="1.0" encoding="UTF-8"?>
<!DOCTYPE svg  PUBLIC '-//W3C//DTD SVG 1.1//EN'  'http://www.w3.org/Graphics/SVG/1.1/DTD/svg11.dtd'>
<svg width="266.66pt" height="280.51pt" version="1.1" viewBox="0 0 266.66 280.51" xmlns="http://www.w3.org/2000/svg" xmlns:xlink="http://www.w3.org/1999/xlink">
 <metadata>
  <rdf:RDF xmlns:cc="http://creativecommons.org/ns#" xmlns:dc="http://purl.org/dc/elements/1.1/" xmlns:rdf="http://www.w3.org/1999/02/22-rdf-syntax-ns#">
   <cc:Work>
    <dc:type rdf:resource="http://purl.org/dc/dcmitype/StillImage"/>
    <dc:date>2024-07-04T12:08:22.182631</dc:date>
    <dc:format>image/svg+xml</dc:format>
    <dc:creator>
     <cc:Agent>
      <dc:title>Matplotlib v3.7.1, https://matplotlib.org/</dc:title>
     </cc:Agent>
    </dc:creator>
   </cc:Work>
  </rdf:RDF>
 </metadata>
 <defs>
  <style type="text/css">*{stroke-linejoin: round; stroke-linecap: butt}</style>
 </defs>
 <g id="figure_1">
  <g id="patch_1">
   <path d="m0 280.51h266.66v-280.51h-266.66v280.51z" fill="none"/>
  </g>
  <g id="axes_1">
   <g id="PatchCollection_1">
    <defs>
     <path id="m78d87f3b0f" d="m229.97-248.31-0.33772 0.33741-0.099111 0.55638 0.012304 0.75424 0.059984 0.52656 0.25767 1.2516 0.57314 1.8397 0.42566 1.1105 0.51678 1.1758 1.0883 2.1588 3.8444 6.9596 3.2004 6.1651 1.3255 2.8002 1.1015 2.5118 1.6568 4.1849 1.0303 3.0461 1.5913 5.1236 0.5217 1.8028 0.52698 2.0739 0.35542 1.7234 0.23942 1.6066 0.099189 1.1131 0.031744 1.1225-0.020793 0.57635-0.10551 0.88276-0.24412 0.89338-0.38515 0.78202-0.39396 0.56595-0.5997 0.68407-1.8907 1.833-0.58983 0.68733-0.45908 0.73208-0.2987 0.7541-0.20511 0.82832-0.63477 4.4804-0.41728 1.5626-0.48852 1.1468-1.1367 1.7837-1.4417 1.7043-1.3776 1.4007-1.7789 1.5777-1.7872 1.3761-1.6425 1.1501-2.0139 1.2945-5.9167 3.3031-0.99322 0.62285-1.0958 0.82657-0.44632 0.41799-0.79296 0.9551-0.70354 1.3098-0.45854 1.3778-0.19968 0.9048-0.13814 1.3969 0.062538 3.0353-0.035604 0.94832-0.091015 0.96606-0.37018 2.7613-0.11248 1.5901 0.14072 1.0574 0.20256 0.51964 0.3262 0.54455 0.3772 0.46314 0.61311 0.5989 1.4404 1.1247 2.332 1.6588 0.78558 0.61426 1.0255 0.88374 1.8007 1.7525 1.0539 1.1225 1.8215 2.1023 1.8257 2.3909 0.98145 1.4462 1.1028 1.8462 0.48344 0.92839 0.64082 1.3748 0.78229 1.939 0.70167 2.0563 0.54002 1.8833 0.62194 2.6879 0.25768 1.3808 0.25647 1.7461 0.22862 2.1296 0.18878 3.4664-0.016404 3.9533-0.12329 2.4473-0.13359 1.525-0.48693 3.6893-0.59622 3.256-0.69597 2.8818-1.5809 5.6501-0.51834 2.2231-0.42034 2.1241-0.53132 3.1604-0.36633 2.7408-0.18594 2.1225-0.002678 0.87937 0.078784 0.22676-0.36375-0.20372-1.1349-0.43355-2.0839-0.66509-1.6873-0.44292-1.9402-0.4033-1.9455-0.28244-1.8267-0.14243-1.5467-0.021842-2.2856 0.13316-1.973 0.27905-1.3888 0.29-1.9738 0.5457-1.5427 0.53557-1.7279 0.72532-1.9177 1.0002-1.7449 1.1754-0.91326 0.78948-0.79752 0.87787-0.67454 1.0379-0.30651 0.69581-0.38227 1.5354-0.082934 1.9779 0.223 1.8012 0.25594 1.0945 0.33754 1.1124 0.45489 1.28 1.4771 3.9683 0.51963 1.6955 0.37024 1.7076 0.21628 1.6988 0.066634 1.6597-0.052292 1.2257-0.16573 1.2717-0.24634 1.0612-0.34599 0.97026-0.6066 1.1251-0.61667 0.87256-0.8723 1.0383-1.037 0.93843-0.83767 0.55406-0.7679 0.41277-1.1823 0.52722-1.4642 0.52999-1.2711 0.39525-2.0347 0.53679-2.1642 0.40564-1.1221 0.15776-2.482 0.23834-2.1036 0.093048-2.4227 0.019401-7.2231-0.14053-1.6067 0.026478-1.8619 0.10801-2.7274 0.37033-2.3347 0.51587-2.3111 0.67738-2.2803 0.83027-2.4838 1.1028-2.4133 1.3062-1.3369 0.84428-2.2931 1.6306-4.601 3.5015-1.075 0.77336-3.3446 2.1932-2.6034 1.5357-2.5823 1.4177-2.4502 1.267-2.1516 1.0524-1.6013 0.72896-0.67462 0.22407 0.058673-0.66301 1.0132-6.9672 0.387-3.3069 0.20788-2.2148 0.16005-2.3185 0.1008-3.0035-0.01109-2.409-0.066837-1.9362-0.2483-3.0307-0.20679-1.4598-0.3688-1.9086-0.73644-2.7864-2.4634-7.8389-1.0791-3.0405-0.71499-1.7273-0.74364-1.4933-1.2496-2.124-4.4724-6.8643-4.272-6.2026-1.0117-1.3986-2.4148-3.1359-1.0475-1.4428-1.8036-2.7806-3.4749-5.8153-0.69836-1.0355-1.0373-1.3618-0.94373-1.0615-1.443-1.4278-1.4371-1.2862-1.1969-0.92748-0.91902-0.60179-1.0597-0.59453-4.7239-2.2592-2.1275-1.1058-1.2869-0.78446-0.9327-0.6598-0.7776-0.63366-0.80535-0.77082-0.75882-0.85763-0.79214-1.0525-0.75381-1.1698-0.7912-1.4316-1.0019-2.1497-2.7556-6.9352-0.98779-2.1828-1.1252-1.9981-1.338-1.7205-0.70574-0.66435-1.6317-1.1488-1.092-0.6088-1.1553-0.55418-1.5207-0.59942-1.6375-0.46878-1.6956-0.30818-1.733-0.13705-2.1377 0.073903-2.1331 0.29706-1.652 0.36035-1.6145 0.45368-1.5606 0.53426-2.6967 1.0719-1.9127 0.70664-1.9132 0.51828-0.79962 0.13414-1.6584 0.17261-5.0815 0.32652-4.1875 0.34401-8.397 0.98512-1.2099 0.092948-1.0427 0.015856-0.96994-0.063133-0.76099-0.11638-1.0343-0.27446-1.1221-0.46639-1.3125-0.8268-0.81972-0.82867-0.43158-0.62725-0.39996-0.7909-0.52749-1.4967-0.42867-1.7153-0.75423-3.9124-0.73627-4.3646-1.5606-10.842-0.61264-3.505-0.57768-2.4569-0.39056-1.2631-0.24193-0.61268-0.26939-0.48633-0.14628-0.14493-0.18895 0.008578-0.36957-0.73411-0.025432-0.52971 0.12052-0.42134 0.42252-0.50717 0.68231-0.31759 0.89618-0.14064 0.83606-0.003212 0.68642 0.049226 3.3699 0.30498 1.142 0.022712 0.95156-0.031961 1.0208-0.080993 1.494-0.2033 4.173-0.87924 2.0281-0.26586 1.3498-0.060169 0.92758 0.01947 1.1418 0.088684 1.9791 0.31166 1.5224 0.3891 0.96244 0.31563 1.1668 0.46369 1.6807 0.84793 1.8084 1.1063 1.9185 1.3437 0.74129 0.59169 1.6868 1.5525 2.5341 2.5368 1.57 1.4421 1.0632 0.88373 1.0966 0.82231 1.1157 0.73606 0.7862 0.45712 1.7964 0.87152 1.8144 0.66272 1.7913 0.44372 1.7254 0.19982 0.84245-0.003396 1.0759-0.12429 0.98932-0.27597 1.0173-0.51502 0.91755-0.67452 2.4476-2.2742 1.3012-1.3845 1.7202-2.1998 0.88561-1.2468 1.3361-2.0382 1.4031-2.3716 1.6042-3.0972 1.6134-3.3837 0.55298-1.0352 0.61166-0.97339 1.0048-1.2583 0.78694-0.80252 1.2868-1.0712 0.90163-0.60044 0.93323-0.49981 1.0755-0.41978 1.2837-0.26827 1.3893-0.02202 1.5332 0.20386 3.8357 0.89085 1.196 0.19625 0.65106 0.045014 1.2315-0.096864 1.1083-0.35093 0.88043-0.55954 0.65066-0.67019 0.59741-0.81529 0.9073-1.3983 4.498-7.3992 1.8335-2.74 6.1648-8.6715 0.72071-0.97049 1.8669-2.2851 0.80114-1.0467 3.7927-5.2473 0.8772-1.1508 0.79814-0.94027 1.6808-1.6267 1.8664-1.4975 3.9222-2.8176 1.8618-1.4158 1.6432-1.4831 0.98984-1.1496 0.61558-0.92579 0.44313-0.96009 0.22774-0.92643 0.04478-0.94974-0.21886-1.3078-0.46075-1.3344-0.6079-1.3712-1.2026-2.3516-0.82976-1.3566-1.8256-2.7059 1.8631 0.049234 0.8258-0.051396 0.57642-0.074211 1.1593-0.2429 1.2922-0.41166 1.3498-0.57419 1.38-0.72959 1.0069-0.62399 2.5678-1.7625 1.097-0.58274 1.1248-0.39869 2.3917-0.5452 1.244-0.34765 0.64122-0.2693 0.59649-0.34302 0.49848-0.38395 0.46287-0.43754 1.9759-2.1225 1.0057-0.91264 2.1701-1.7929 0.51721-0.48098 0.44422-0.48493 0.25774-0.35373 0.18431-0.36043 0.089447-0.37259-0.051852-0.53722-0.20419-0.57614-0.63346-1.3079-0.52415-1.2113-0.35512-1.0469 0.00697-0.20587 0.22399 0.10983 0.48575-0.025567 0.91394-0.20539 1.0014-0.33617 6.8787-2.9656 1.3848-0.72179 1.587-0.97036 0.7469-0.36761 0.60052-0.18951 0.62128-0.10426 0.5845-0.013615 0.46103 0.05142 0.93818 0.26311 1.1813 0.4414 0.83054 0.25236 1.3421 0.25905 1.4659 0.096994 1.0028-0.011914 1.64-0.12238 2.0107-0.29897 1.2386-0.36774 1.1323-0.50397 2.5844-1.4586 0.76141-0.3609 0.51772-0.18332 0.59834-0.13396 1.0881-0.054009 0.78626 0.051766 1.6352 0.1853 1.2737 0.24913 1.1848 0.47117 1.3952 0.6727 2.7971 0.95273 0.88638 0.39983 1.2222 0.77972 2.7622 2.2531 1.0429 0.73269 1.1499 0.65164 0.95132 0.41806 1.1992 0.42708 1.2708 0.37366 4.9617 1.1593 1.6788 0.44678 1.3277 0.41179 1.4345 0.50719 4.4812 1.7606" stroke="#bdc660"/>
    </defs>
    <g clip-path="url(#p21a902cda4)">
     <use y="280.512" fill="#bdc660" stroke="#bdc660" xlink:href="#m78d87f3b0f"/>
    </g>
   </g>
  </g>
 </g>
 <defs>
  <clipPath id="p21a902cda4">
   <rect x="7.2" y="7.2" width="252.26" height="266.11"/>
  </clipPath>
 </defs>
</svg>
