<?xml version="1.0" encoding="UTF-8"?>
<!DOCTYPE svg  PUBLIC '-//W3C//DTD SVG 1.1//EN'  'http://www.w3.org/Graphics/SVG/1.1/DTD/svg11.dtd'>
<svg width="371.52pt" height="249.06pt" version="1.1" viewBox="0 0 371.52 249.06" xmlns="http://www.w3.org/2000/svg" xmlns:xlink="http://www.w3.org/1999/xlink">
 <metadata>
  <rdf:RDF xmlns:cc="http://creativecommons.org/ns#" xmlns:dc="http://purl.org/dc/elements/1.1/" xmlns:rdf="http://www.w3.org/1999/02/22-rdf-syntax-ns#">
   <cc:Work>
    <dc:type rdf:resource="http://purl.org/dc/dcmitype/StillImage"/>
    <dc:date>2024-07-04T12:08:28.528183</dc:date>
    <dc:format>image/svg+xml</dc:format>
    <dc:creator>
     <cc:Agent>
      <dc:title>Matplotlib v3.7.1, https://matplotlib.org/</dc:title>
     </cc:Agent>
    </dc:creator>
   </cc:Work>
  </rdf:RDF>
 </metadata>
 <defs>
  <style type="text/css">*{stroke-linejoin: round; stroke-linecap: butt}</style>
 </defs>
 <g id="figure_1">
  <g id="patch_1">
   <path d="m0 249.06h371.52v-249.06h-371.52v249.06z" fill="none"/>
  </g>
  <g id="axes_1">
   <g id="PatchCollection_1">
    <defs>
     <path id="m490bd015eb" d="m337.02-64.809-0.082143 0.23252-0.084939 0.050765-0.78102 0.14911-1.4094-0.016862-1.4427-0.13448-2.1656-0.29592-5.845-0.97894-3.1213-0.41473-1.3664-0.12151-1.4581-0.063742-1.2021 0.019214-1.8328 0.14148-1.4809 0.18853-2.4909 0.42526-8.6128 1.8035-9.9986 1.6943-6.5764 1.219-1.743 0.41009-1.5394 0.44729-1.2405 0.42786-1.2778 0.52245-1.4469 0.76108-0.86086 0.59815-0.73496 0.68259-0.64364 0.81884-0.5493 1.0235-0.33152 0.97209-0.20146 1.1284-0.030983 0.98309 0.14777 1.4316 0.37612 1.7964 0.90277 3.137 0.89246 2.7718 0.5808 1.5107 0.58383 1.3164 1.9372 3.7931 0.79416 1.7075 0.6707 1.7688 0.33065 1.183 0.15885 0.91007 0.043108 0.58469-0.089987 1.091-0.18988 0.6322-0.36442 0.72007-0.4462 0.5898-0.54125 0.51372-0.93053 0.61426-0.87201 0.39124-0.7704 0.24821-0.65592 0.15124-1.0472 0.14297-1.1888 0.065779-4.2954-0.12019-4.3894-0.05431-6.6671-0.25308-2.3442 0.087615-2.552 0.30568-2.5929 0.51011-6.1924 1.638-4.0074 0.80468-3.9048 0.90798-2.1493 0.6313-6.3898 2.2053-0.92819 0.25371-1.2618 0.21667-1.4052 0.064864-1.4501-0.12179-1.5793-0.33298-0.91725-0.31158-0.55389-0.22652-1.7722-0.90542-1.5986-1.2292-0.61975-0.67824-0.72959-1.0244-0.48172-0.85248-0.64503-1.4319-0.62269-1.8215-1.441-5.2771-0.35623-1.0747-0.71191-1.7194-0.8747-1.5604-0.50313-0.697-0.55368-0.64077-1.1653-1.0782-0.91712-0.68749-0.93865-0.60706-1.8058-0.98688-2.7536-1.2432-2.4653-0.97063-2.3545-0.80025-1.2994-0.36846-2.58-0.54775-2.1265-0.24551-1.7021-0.068004-1.4534 0.030492-1.2546 0.10327-1.43 0.22298-1.2483 0.29336-1.394 0.4158-3.618 1.2446-5.5808 1.7753-2.3386 0.93248-2.7698 1.3306-2.5685 1.391-6.5094 3.7053-2.1501 1.1262-1.7927 0.8312-1.9112 0.72021-1.5463 0.38521-2.0205 0.17442-9.0797-0.19294-1.4324 0.048363-1.6888 0.22614-1.6501 0.41619-1.52 0.56768-2.9311 1.2411-0.78757 0.2668-0.91939 0.23753-1.8226 0.2878-1.6688 0.030455-1.6919-0.16399-1.6735-0.32752-3.9147-1.0289-4.4911-0.963-4.4773-0.83556-2.1121-0.3374-3.0665-0.40815-2.2216-0.15724-6.1899-0.24844-6.9345-0.52863-8.4767-0.76373-2.7664-0.18698-2.4082-0.074578-2.2511 0.054313-2.8811 0.2446-3.5903 0.48353-1.8459 0.35376-1.5416 0.40795-1.1117 0.44365-0.45759 0.32895-0.032187 0.12965-0.33102-0.41835-1.199-1.7665-1.0248-1.626-1.2497-2.1164-1.5465-2.7855-3.1983-6.0874-1.494-2.7264-2.3704-4.0677-3.4925-5.7797-0.85341-1.5836-1.6247-3.2841-2.3222-5.0841-3.7474-8.6325-8.517-20.306-4.9421-11.57-3.6241-8.627 9.6282-5.6295 10.281-5.8777 5.0316-2.9915 3.4066-2.134 7.0121-4.5324 6.3299-4.0195 6.044-3.7532 8.7748-5.3226 8.528-5.3767 4.2217-2.7479 4.8794-3.3472 4.4228-3.2273 9.2297-6.9165 3.0354-2.1555 2.2404-1.4465 2.1889-1.2783 1.1189-0.59974 2.7548-1.3158 1.3309-0.5576 3.0862-1.1164 2.8641-0.85416 6.3369-1.6575 4.6042-1.3117 2.8595-0.92824 4.1796-1.5162 4.4756-1.7644 6.1449-2.5169 8.8747-4.0512 8.2027-3.5691 5.2933-2.1678 6.2586-2.4178 3.4328-1.4315 4.4371-2.0537 4.3272-2.1366 17.752-9.0915 14.293-7.5947 5.5884-3.0946 1.7685-1.0914 0.39502 0.59887 1.7153 3.0551 4.0765 7.5265 9.9188 18.901 2.9051 5.2731 1.4737 2.5325 1.5036 2.4445 1.5505 2.3343 1.6196 2.1932 1.7173 2.0098 1.852 1.7704 2.0338 1.4579 0.4353 0.24764 2.4177 1.0733 2.5388 0.76508 2.6664 0.56462 2.7576 0.42132 2.8213 0.32109 5.7545 0.46384 11.582 0.76878 2.8404 0.25279 2.7879 0.31376 2.7129 0.40033 2.6087 0.51962 2.4667 0.68091 2.2758 0.89587 1.3115 0.69553 0.99079 0.6229 2.1838 1.6191 6.7035 5.2714 1.5229 1.1001 1.1743 0.74308 1.2093 0.6517 1.5398 0.67248 3.1157 1.1748 4.3205 1.8173 1.8098 0.6436 1.7035 0.70201 1.2399 0.74194 1.0158 0.82702 0.77913 0.89011 0.39473 0.60988 0.31754 0.63033 0.37255 1.0819 0.18835 0.99096 0.055769 0.64009-0.057958 1.5455-0.37805 2.4508-0.12702 1.5315 0.067506 1.8672 0.43242 3.4239 0.091981 1.1535 0.0111 1.1692-0.1158 1.2611-0.27901 1.2336-0.6002 1.5014-0.65793 1.1114-0.80317 1.0263-0.50999 0.53547-0.61434 0.56161-1.289 0.99168-4.9103 3.2422-1.7727 1.2681-3.2333 2.4327-1.0617 0.72077-0.91088 0.54772-1.0158 0.52059-1.4492 0.56422-1.5061 0.36331-1.5642 0.19573-1.6323 0.065944-2.3732-0.077952-1.6314-0.14241-2.471-0.33976-4.7638-0.9744-1.3602-0.21568-1.4346-0.007008-0.82882 0.19298-0.52073 0.2657-0.41393 0.36194-0.32806 0.47741-0.2919 0.78354-0.24229 1.2977-0.77109 5.9975-0.038443 1.1533 0.054397 1.3705 0.11508 0.90866 0.21696 1.0911 0.31499 1.1695 0.38622 1.1588 0.70194 1.7935 0.49326 1.1008 1.1377 2.1343 1.3525 2.1557 1.1721 1.6938 4.5099 5.9729 1.0685 1.2264 0.94833 0.8988 0.84811 0.65718 1.122 0.72361 5.2934 2.9041 1.3492 0.8404 1.2265 0.84283 1.3176 1.0182 0.90646 0.79408 0.95506 0.95226 0.92908 1.0891 0.92402 1.3308 0.65301 1.194 0.28519 0.63341 0.41475 1.1219 0.40114 1.4949 0.28206 1.6106 0.47681 5.0983 0.12344 0.72354 0.16855 0.55229 0.18019 0.16162" stroke="#bdc660"/>
    </defs>
    <g clip-path="url(#p971ccde85b)">
     <use y="249.064621" fill="#bdc660" stroke="#bdc660" xlink:href="#m490bd015eb"/>
    </g>
   </g>
  </g>
 </g>
 <defs>
  <clipPath id="p971ccde85b">
   <rect x="7.2" y="7.2" width="357.12" height="234.66"/>
  </clipPath>
 </defs>
</svg>
