<?xml version="1.0" encoding="UTF-8"?>
<!DOCTYPE svg  PUBLIC '-//W3C//DTD SVG 1.1//EN'  'http://www.w3.org/Graphics/SVG/1.1/DTD/svg11.dtd'>
<svg width="199.78pt" height="280.51pt" version="1.1" viewBox="0 0 199.78 280.51" xmlns="http://www.w3.org/2000/svg" xmlns:xlink="http://www.w3.org/1999/xlink">
 <metadata>
  <rdf:RDF xmlns:cc="http://creativecommons.org/ns#" xmlns:dc="http://purl.org/dc/elements/1.1/" xmlns:rdf="http://www.w3.org/1999/02/22-rdf-syntax-ns#">
   <cc:Work>
    <dc:type rdf:resource="http://purl.org/dc/dcmitype/StillImage"/>
    <dc:date>2024-07-04T12:08:23.904376</dc:date>
    <dc:format>image/svg+xml</dc:format>
    <dc:creator>
     <cc:Agent>
      <dc:title>Matplotlib v3.7.1, https://matplotlib.org/</dc:title>
     </cc:Agent>
    </dc:creator>
   </cc:Work>
  </rdf:RDF>
 </metadata>
 <defs>
  <style type="text/css">*{stroke-linejoin: round; stroke-linecap: butt}</style>
 </defs>
 <g id="figure_1">
  <g id="patch_1">
   <path d="m0 280.51h199.78v-280.51h-199.78v280.51z" fill="none"/>
  </g>
  <g id="axes_1">
   <g id="PatchCollection_1">
    <defs>
     <path id="mff966f6df5" d="m146.63-250.19-0.48134 0.60457-0.80026 1.2213-1.1865 1.9212-1.2631 2.1655-1.5457 2.8931-0.9487 2.1045-0.73492 2.0576-0.6662 2.3091-0.62005 2.6983-0.47996 2.9396-0.14594 1.4893-0.067183 1.6229 0.055397 1.7628 0.1904 1.7478 0.38401 2.1867 1.1518 5.03 1.4784 7.3701 0.52442 2.381 0.60931 2.4795 0.46089 1.6703 1.2699 4.1743 0.64186 2.2733 2.0695 8.3636 0.66022 2.1427 1.8206 5.3448 0.99357 3.3228 0.53112 2.4137 0.73596 4.931 0.39938 1.9515 0.56221 1.7863 0.30271 0.76966 0.67786 1.4614 0.98542 1.7369 1.0951 1.5981 1.004 1.2305 1.0602 1.0887 1.6009 1.3915 1.3713 1.0498 3.5207 2.4896 2.0598 1.6272 1.3593 1.2618 0.59491 0.61489 1.1902 1.3125 1.1444 1.3487 4.076 4.9533 1.1054 1.5051 0.9256 1.5664 0.62438 1.3839 1.5799 3.9768 0.45013 1.255 0.3925 1.306 0.29863 1.3038 0.2102 1.2634 0.16837 1.6304 0.10436 2.2009 0.069591 3.7419 0.096992 2.2896 0.22564 2.2735 2.6036 14.167 0.59659 3.6683 0.23875 1.8076 0.033982 0.5567 0.10478 0.24064 0.053305 0.59129-0.002269 0.7306-0.058908 0.86931-0.23522 1.5777-0.17587 0.78577-0.37531 1.3194-0.43661 1.2506-0.5031 1.2526-0.52137 1.1747-1.2202 2.4852-1.4596 2.7214-1.6144 2.8435-3.6838 6.1211-1.849 3.2274-1.7108 3.3222-3.8236 7.9213-1.3678 2.5615-0.78652 1.3357-1.3515 2.0524-1.4095 1.8754-1.9084 2.2443-0.70299 0.73238-1.9313 1.8421-0.74068 0.89616-0.87447 1.4195-0.60694 1.0989-0.54822 1.1824-0.407 1.2336-0.32069 1.3118-1.1572 5.8213-0.3088 1.3184-0.32154 1.0079-0.63218 1.368-0.96859 1.4032-1.1431 1.2724-0.72898 0.60866-0.21532 0.080307-2.6783 2.2596-1.7293 1.3126-1.0973 0.61797-0.53012 0.20986-0.52846 0.14124-0.79388 0.065793-0.54983-0.069383-0.69691-0.24193-0.58866-0.36062-0.38005-0.32573-0.74713-0.87485-1.4684-2.2954-0.39158-0.52763-0.42323-0.43052-0.47466-0.28986-0.52123-0.11306-0.57366 0.021913-0.61273 0.12079-1.305 0.43315-2.7851 1.1661-1.4496 0.54124-0.74024 0.21592-0.75309 0.15545-0.68985 0.07327-0.69948 0.013163-1.4157-0.13853-0.70903-0.15276-1.1847-0.40208-1.6004-0.8085-3.3646-2.048 0.061053-0.12142-0.020242-0.30342-0.16204-0.51738-0.32135-0.63212-0.78079-1.0263-2.2893-2.3759-1.2848-1.5449-0.61929-0.91594-0.36837-0.63282-0.81456-1.7382-0.67288-1.8515-1.3957-4.9102-0.68541-2.0563-1.0549-2.6272-1.7238-3.9077-0.77099-1.8836-0.62781-1.8359-0.79536-3.1401-0.5059-1.5788-0.28594-0.68382-0.71488-1.4666-0.97126-1.7247-0.9724-1.5566-1.1523-1.6816-1.4895-1.9212-0.91633-1.0609-1.4818-1.5942-1.6244-1.6496-11.746-11.329-2.6039-2.373-3.1859-2.7039-3.7901-2.9549-2.7355-1.9457-1.4725-0.95596-1.5158-0.80762-1.4976-0.56483-0.67106-0.19282-1.4111-0.31226-0.97287-0.15567-2.5805-0.24486-1.4203-0.053593-1.2571-0.007847-2.6551 0.079724-1.9677 0.12073-3.4523 0.29763-10.269 1.1471-1.7628 0.12686-1.9926 0.080044-3.0268-0.020379-2.7412-0.18011-1.5461-0.1817-1.7777-0.30396-1.6852-0.41382-1.1151-0.36664-1.2245-0.52158-0.96594-0.53594-0.68979-0.47942-0.73702-0.64863-0.35012-0.38572-0.392-0.53531-0.31114-0.5638-0.30129-0.76435-0.1998-0.72405-0.2009-1.0578-0.16391-1.2649-0.095401-1.2137-0.017743-0.8519 0.078737-0.89183 0.19153-0.89122 1.0449-3.6407 0.38277-1.4945 0.3139-1.6999 0.38664-2.5517 0.28672-1.4648 0.23251-0.90925 0.75148-2.5435 0.49992-1.5068 0.59312-1.4837 0.7709-1.5202 0.97428-1.5544 3.0002-3.8857 0.77685-1.0992 1.5309-2.4558 1.4689-2.5905 0.38153-0.60813 0.57405-0.78766 1.3252-1.368 1.5741-1.2475 1.7284-1.1649 5.377-3.2733 1.3301-0.70638 1.5-0.70885 1.7515-0.74338 3.3062-1.2768 1.3436-0.63276 0.36367-0.21221 0.5673-0.38487 0.5469-0.44957 0.55384-0.56645 0.73284-1.0807 0.58788-1.7489 0.17576-1.0378 0.11858-1.1036 0.25608-3.9752 0.16922-1.9414 0.35607-2.6431 0.27104-1.4133 0.47065-1.8507 0.64544-1.94 0.36583-0.91792 0.59424-1.2952 0.6762-1.2424 0.95006-1.4662 1.3612-1.8902 1.884-2.4264 5.0579-6.2144 1.618-2.0984 1.4437-1.9751 2.4873-3.5472 4.3102-6.3251 2.6476-4.0261 1.3479-1.9587 6.0046-7.9784 1.4272-2.0481 1.2958-2.0819 1.0989-2.1257 0.82212-2.1825 0.14337-0.52226 0.41371-2.0843 0.58838-4.1876 0.3504-1.8394 0.46751-1.8008 0.62445-1.7313 0.82917-1.627 0.77576-1.1281 1.2593-1.4672 1.3087-1.2967 2.0915-1.8469 2.3739-1.9075 2.4277-1.8104 1.5087-1.0547 2.2698-1.4784 2.2039-1.3253 2.2847-1.2733 2.362-1.2149 2.5896-1.2126 3.0031-1.2602 2.7814-1.0675 3.18-1.1406 2.903-0.98259 6.7806-2.1538 0.64282-0.24413 1.0993-0.27128 0.93738-0.10173 0.55843 0.090719 0.26737 0.13119 0.4675 0.39322 0.41204 0.49043 0.7501 1.0851 5.6626 8.8308" stroke="#bdc660"/>
    </defs>
    <g clip-path="url(#p44492404da)">
     <use y="280.512" fill="#bdc660" stroke="#bdc660" xlink:href="#mff966f6df5"/>
    </g>
   </g>
  </g>
 </g>
 <defs>
  <clipPath id="p44492404da">
   <rect x="7.2" y="7.2" width="185.38" height="266.11"/>
  </clipPath>
 </defs>
</svg>
