<?xml version="1.0" encoding="UTF-8"?>
<!DOCTYPE svg  PUBLIC '-//W3C//DTD SVG 1.1//EN'  'http://www.w3.org/Graphics/SVG/1.1/DTD/svg11.dtd'>
<svg width="268.17pt" height="280.51pt" version="1.1" viewBox="0 0 268.17 280.51" xmlns="http://www.w3.org/2000/svg" xmlns:xlink="http://www.w3.org/1999/xlink">
 <metadata>
  <rdf:RDF xmlns:cc="http://creativecommons.org/ns#" xmlns:dc="http://purl.org/dc/elements/1.1/" xmlns:rdf="http://www.w3.org/1999/02/22-rdf-syntax-ns#">
   <cc:Work>
    <dc:type rdf:resource="http://purl.org/dc/dcmitype/StillImage"/>
    <dc:date>2024-07-04T12:08:25.626487</dc:date>
    <dc:format>image/svg+xml</dc:format>
    <dc:creator>
     <cc:Agent>
      <dc:title>Matplotlib v3.7.1, https://matplotlib.org/</dc:title>
     </cc:Agent>
    </dc:creator>
   </cc:Work>
  </rdf:RDF>
 </metadata>
 <defs>
  <style type="text/css">*{stroke-linejoin: round; stroke-linecap: butt}</style>
 </defs>
 <g id="figure_1">
  <g id="patch_1">
   <path d="m0 280.51h268.17v-280.51h-268.17v280.51z" fill="none"/>
  </g>
  <g id="axes_1">
   <g id="PatchCollection_1">
    <defs>
     <path id="m95c0c709a4" d="m213.88-260.36 0.20463 0.1152 0.57621 0.14306 5.098 1.0411 2.754 0.76201 3.1769 1.129 4.1271 1.815 2.4467 1.2765 4.7525 2.7459 3.1155 1.6401 1.9161 1.1772 1.0776 0.81036 1.1514 1.0543 0.82461 0.9614 0.66452 1.0989 0.29201 0.76069 0.14003 0.60351 0.079104 0.6776 0.009005 0.84313-0.067052 0.86864-0.32025 1.9842-0.54429 2.2859-0.50402 1.6093-0.53119 1.2995-1.5599 3.2905-0.81532 2.1116-0.61592 2.2244-1.3388 5.703-0.79464 2.7124-0.75146 2.293-0.68512 1.7619-0.91496 2.0636-3.0825 6.4597-0.97644 2.4747-1.2975 3.7993-0.68852 2.3218-0.26364 1.2926-0.13943 1.6601 0.070457 1.0711 0.19181 1.0507 0.14611 0.54729 0.7672 1.8611 1.1032 1.7579 1.2232 1.5168 1.9833 2.2414 1.0454 1.0677 1.1593 1.054 1.2848 1.0369 1.4723 1.0525 0.97812 0.62384 1.4987 0.83511 0.9118 0.41911 0.6632 0.23246 0.61376 0.10837 0.25946-0.033107 0.12825-0.091542 0.016047-0.15978 0.25408-0.10473 0.2785 0.056047 0.15274 0.080253 0.58149 0.5492 0.5464 0.859 0.24351 0.4996 0.44319 1.129 0.37414 1.2523 0.37815 1.8487 0.21872 1.9804 0.053277 1.3821-0.022792 1.3029-0.17105 1.9679-0.42232 2.4691-0.39465 1.6745-0.66215 2.2548-0.88343 2.4272-1.1548 2.6208-1.2177 2.4865-1.5533 2.9326-1.2538 2.0759-3.2107 4.4475-0.82469 1.0553-1.7075 1.9005-1.5938 1.5513-2.2311 1.9644-2.7963 2.2851-4.0256 3.1677-2.2232 1.8828-1.7504 1.6179-2.4739 2.4734-1.4083 1.5192-2.3896 2.7968-1.8114 1.9906-5.8881 6.0313-1.9409 2.0994-3.896 4.5537-6.4843 7.2326-3.9754 4.6648-1.777 1.8408-2.6485 2.3446-5.9312 4.6271-1.7975 1.6692-1.2294 1.3778-2.0567 2.7077-2.0217 3.111-1.7129 2.9572-1.145 2.1356-2.4648 5.5083-1.1259 1.9952-0.75233 1.1416-1.4749 1.8136-1.4447 1.3387-1.7726 1.4136-3.2024 2.6958-0.99579 0.73446-1.7199 1.1089-3.5214 1.9632-2.9637 1.5341-5.968 2.9382-3.8514 1.7668-2.1812 0.90535-3.3148 1.1888-2.6578 0.76445-6.7213 1.6723-2.1145 0.66999-2.0421 0.74579-3.4041 1.3657-2.0034 0.71256-1.9349 0.52067-3.8977 0.89028-1.7939 0.58492-1.8187 0.83631-1.1118 0.62547-1.3172 0.83472-1.3058 0.91185-7.4147 5.5711-5.3779 3.8385-0.23263 0.043065-0.4307-0.14629-1.0472-0.5481-3.7695-2.514-1.3342-0.76983-1.0767-0.50651-1.7204-0.59886-2.6236-0.5914-8.5945-1.5849-3.5268-0.59747-0.79026-0.10348-0.89312-0.026893-0.61674 0.10757-0.58783 0.22131-1.2264 0.60658-0.96529 0.38798-1.0926 0.3529-2.452 0.62338-2.6757 0.54163-2.8006 0.47963-7.5833 1.0438-4.0578 0.67429-2.7228 0.51543-3.5033 0.76277-3.215 0.78269-9.503 2.501-0.088088-0.087773-0.19643-0.47614-0.27521-0.95213-0.33618-1.6289-0.24305-1.7052-0.1588-2.4144 0.062676-2.285 0.34535-2.8161 0.73779-3.5035 0.84492-3.1761 1.5777-4.9517 0.3846-1.8746 0.1545-1.4908 0.055276-1.9982-0.19954-7.3678 0.00919-1.8502 0.074862-1.2026 0.19312-1.3728 0.21799-0.92539 0.4734-1.2565 0.78232-1.2381 3.0598-3.6306 1.0776-1.1829 1.6185-1.4491 4.1413-3.1728 0.89892-0.55302 0.64415-0.26974 0.77549-0.18037 1.8429-0.22084 1.2845-0.41095 3.9066-1.9407 3.3254-1.8021 0.69634-0.4606 0.88412-0.36828 3.6937-1.3006 8.06-2.5448 3.6511-1.2404 3.5919-1.3921 4.9598-2.0816 3.4709-1.6337 2.1225-1.1396 1.3026-0.77243 1.4313-0.93151 1.1791-0.85236 0.74214-0.59086 1.2008-1.0904 1.1573-1.3268 0.92492-1.4969 0.73398-1.8262 0.49549-1.8945 0.84909-3.9056 0.4892-1.6212 1.0081-2.7573 0.65832-1.5311 0.90544-1.84 1.031-1.8712 1.9077-3.1245 2.5453-3.7631 3.0616-4.1421 1.6415-2.0575 1.7066-2.0049 1.7799-1.9361 1.6805-1.6742 1.76-1.5872 2.4578-1.9499 4.1066-2.8392 4.3622-2.7455 7.0466-4.2819 4.336-2.8349 2.3046-1.6693 1.5663-1.2333 1.6599-1.4201 1.6424-1.5432 2.23-2.2541 2.1902-2.3416 2.1504-2.4063 4.1608-4.9403 8.5894-10.967 2.6327-3.5766 4.9535-6.9444 3.1432-4.0897 1.4247-1.688 1.6199-1.7633 7.263-7.1354 1.3285-1.4485 1.7897-2.1598 1.6422-2.288 1.2985-2.1358 1.0279-2.0466 0.86948-2.0791 0.78746-2.3974 0.57619-2.476 0.20892-1.2686 0.20242-1.9032 0.027415-1.9259-0.14761-1.6656-0.22652-1.3556-0.43718-1.8419-0.62598-2.0219-0.79206-2.113-0.77364-1.8169-1.6256-3.3722-1.7556-3.2031-1.6585-2.7065-1.6554-2.3553 7.7245-3.6094 3.1857-1.4177 2.3729-1.266 4.0021-1.8182 1.1065-0.43795 3.8034-1.3248 2.5118-0.80258 4.0293-1.4995 0.90412-0.26464 0.51176-0.082505 0.94807-0.045309 0.97713 0.031155 1.3032 0.12897 1.3101 0.2449 0.6499 0.23778 0.28854 0.21716" stroke="#bdc660"/>
    </defs>
    <g clip-path="url(#pece850116e)">
     <use y="280.512" fill="#bdc660" stroke="#bdc660" xlink:href="#m95c0c709a4"/>
    </g>
   </g>
  </g>
 </g>
 <defs>
  <clipPath id="pece850116e">
   <rect x="7.2" y="7.2" width="253.77" height="266.11"/>
  </clipPath>
 </defs>
</svg>
