<?xml version="1.0" encoding="UTF-8"?>
<!DOCTYPE svg  PUBLIC '-//W3C//DTD SVG 1.1//EN'  'http://www.w3.org/Graphics/SVG/1.1/DTD/svg11.dtd'>
<svg width="371.52pt" height="260.51pt" version="1.1" viewBox="0 0 371.52 260.51" xmlns="http://www.w3.org/2000/svg" xmlns:xlink="http://www.w3.org/1999/xlink">
 <metadata>
  <rdf:RDF xmlns:cc="http://creativecommons.org/ns#" xmlns:dc="http://purl.org/dc/elements/1.1/" xmlns:rdf="http://www.w3.org/1999/02/22-rdf-syntax-ns#">
   <cc:Work>
    <dc:type rdf:resource="http://purl.org/dc/dcmitype/StillImage"/>
    <dc:date>2024-07-04T12:08:19.611973</dc:date>
    <dc:format>image/svg+xml</dc:format>
    <dc:creator>
     <cc:Agent>
      <dc:title>Matplotlib v3.7.1, https://matplotlib.org/</dc:title>
     </cc:Agent>
    </dc:creator>
   </cc:Work>
  </rdf:RDF>
 </metadata>
 <defs>
  <style type="text/css">*{stroke-linejoin: round; stroke-linecap: butt}</style>
 </defs>
 <g id="figure_1">
  <g id="patch_1">
   <path d="m0 260.51h371.52v-260.51h-371.52v260.51z" fill="none"/>
  </g>
  <g id="axes_1">
   <g id="PatchCollection_1">
    <defs>
     <path id="m03ee69083f" d="m232.26-234.43 0.032263 0.14307-0.23909 0.64004-2.9147 6.1993-0.76938 1.8028-1.2306 3.3307-0.72656 2.4647-0.42722 2.0717-0.17529 1.4605-0.039539 1.2802 0.12032 1.4593 0.21055 1.1627 0.5069 1.8448 0.48067 1.2638 0.6372 1.333 1.1809 2.0432 1.2434 1.9147 1.5834 2.2782 0.94458 1.2499 0.9184 1.1267 1.7192 1.8641 1.6403 1.5011 0.87258 0.70314 1.5673 1.1229 0.84831 0.54067 1.7744 0.98852 1.1728 0.55672 1.1751 0.49011 1.9539 0.68733 2.8982 0.78432 2.1239 0.41915 1.2663 0.1802 1.2529 0.11326 1.4073 0.032353 1.3079-0.073383 1.7999-0.24466 1.4799-0.29689 3.0811-0.78541 3.1493-0.93468 1.8163-0.59494 2.0356-0.72569 2.3443-0.92279 3.5219-1.5853 1.8034-0.916 1.6089-0.8901 1.7837-1.0893 1.5521-1.0676 1.809-1.4455 1.104-1.0252 1.5342-1.6256 1.0571-1.2415 3.9762-5.0914 1.9837-2.4072 1.1877-1.2988 1.0245-1.0162 1.5327-1.337 1.0193-0.76618 1.1324-0.74712 0.80596-0.47213 1.4142-0.70481 1.654-0.58858 1.7807-0.32364 1.8161-0.090476 1.836 0.052342 3.9762 0.25615 2.0905 0.26436 2.0112 0.54534 1.3764 0.64683 1.2658 0.81571 1.1951 0.96639 1.4201 1.4029 1.3177 1.5198 2.0574 2.5164 1.7879 2.3147 0.90833 1.2336 2.2094 3.2815 0.18485 0.20126 5.1333 4.875 1.2917 1.4574 1.0365 1.4653 2.5533 4.0955 0.82536 1.198 1.3608 1.7286 2.6556 3.09 0.80313 0.99716 0.79016 1.1703 0.42977 0.9366 0.12613 0.47198 0.055229 1.0166-0.15561 1.0341-1.0836 4.3812-0.49888 1.4599-0.64127 1.523-2.2953 4.7932-1.2251 2.8023-0.49228 1.416-0.36022 1.4267-0.18028 1.439 0.066995 1.7438 0.31384 1.7637 0.48266 1.7839 1.7678 5.2961 0.51102 1.6832 0.43303 1.7094 0.25923 1.3456 0.18299 1.3577 0.099471 1.365 0.00188 1.4781-0.12262 1.4723-0.26596 1.4575-0.51721 1.7308-0.41725 1.1275-1.6819 3.9759-3.2125 6.8859-0.32352 0.77337-0.12735 0.39205-0.28706 0.51413-0.4959 0.75925-0.56079 0.74465-0.61002 0.7103-1.0784 1.0842-1.192 1.037-1.2219 0.95367-2.3766 1.6422-1.3001 0.78661-1.3009 0.67474-1.3073 0.52434-0.79984 0.22639-0.80545 0.14506-0.89264 0.060378-1.0967-0.036379-2.1606-0.27999-5.4135-1.1354-0.81659-0.10928-1.4142-0.073459-0.74332 0.036278-0.70361 0.10319-0.61807 0.17026-0.56699 0.25673-0.39711 0.2645-0.71997 0.70429-0.61136 0.87913-0.5177 1.0121-0.43221 1.1125-0.3972 1.3793-0.2636 1.2934-0.17588 1.3284-0.08083 1.5876 0.056545 1.3752 0.40827 4.2709 0.078023 2.4695-0.11109 1.3995-0.27078 1.2025-0.42493 1.0031-0.59631 0.85111-0.89343 0.76553-1.0402 0.59777-2.3932 1.056-0.87316 0.50234-0.84466 0.76301-0.598 0.92582-0.27808 1.0261 0.064197 0.98639 0.30022 0.91849 0.42064 0.72922 0.4247 0.3785-0.65132 0.28842-2.0811 1.1337-6.2321 3.7512-1.2305 0.69508-1.3796 0.7173-2.501 1.146-7.0954 3.1285-3.4649 1.4299-3.4627 1.2867-1.5763 0.51945-1.7094 0.50094-3.4863 0.90056-1.3034 0.41317-0.6416 0.2404-1.572 0.72662-1.5493 0.89244-1.5259 1.0286-2.2821 1.7686-1.5434 1.3124-2.8622 2.6246-2.5392 2.5172-1.1948 1.2548-4.892 5.5332-1.9124 1.8848-1.8084 1.4551-1.9167 1.3403-3.9512 2.6237-2.3251 1.7112-1.7937 1.4649-1.7266 1.5455-3.4843 3.3877-1.7999 1.6488-3.4085 2.8723-1.5687 1.2362-3.1425 2.3222-1.5952 1.0999-2.6593 1.7076-2.0235 1.1901-2.4704 1.3237-1.84 0.89048-2.8826 1.2673-1.0463 0.38801-1.812 0.41095-1.8581-0.028778-1.9058-0.41048-0.983-0.33547-1.1276-0.5021-0.96388-0.51576-1.1836-0.71186-1.7352-1.1331-3.5931-2.4367-5.4701-3.8064-3.5437-2.2794-3.8447-2.2537-1.3995-0.70272-0.60843-0.11618-0.47842-0.15279-0.1755-0.20694-0.23797-0.45866-0.14531-0.43297-0.19473-0.97948-0.070715-0.78534 0.033298-1.6836 0.19912-1.6177 0.52533-2.8086 2.7486-10.838 0.52064-2.4474 0.37477-2.4276 0.16204-1.8814 0.064175-1.856-0.005099-1.6524-0.058382-1.5601-0.14632-1.7338-0.1625-1.1305-0.22504-1.0781-0.60035-1.9861-0.77397-1.9052-1.0511-1.9664-0.65521-0.95618-0.65495-0.78981-0.90681-0.86199-0.64362-0.48237-1.4208-0.82425-1.8383-0.72473-4.166-1.1837-5.0769-1.6171-1.56-0.4269-1.5035-0.34296-3.6056-0.55549-3.6857-0.39921-3.5599-0.20599-5.2401-0.14874-2.608-0.17555-1.3255-0.17357-1.9723-0.41794-1.8433-0.45359-1.5937-0.28366-0.6457-0.045985-1.7394 0.14597-1.6599 0.48115-3.9398 1.8123-1.5666 0.63417-7.2442 2.7126-8.872 3.4054-1.4241 0.57086-1.8415 0.85692-1.7368 0.98398-1.1625 0.75828-3.7754 2.6572-3.9247 3.0116-5.3864 4.3821-1.2047 0.86755-1.2504 0.80431-1.2132 0.69546-1.5975 0.81387-3.5809 1.6604-2.5512 1.0214-4.2778 1.559-1.6869 0.72217-0.29035 0.18672-0.32571-0.082808-0.38656-0.39281-0.57376-0.82443-0.59162-1.0792-0.6451-1.4612-0.59156-1.6503-0.55894-1.9354-0.47522-2.0995-0.34904-1.98-0.97495-6.6796-0.2592-1.4119-0.46376-1.9019-0.33314-1.0139-0.47944-1.1461-0.90051-1.619-0.84359-1.2029-0.83678-1.0279-1.3043-1.3707-1.3513-1.2304-0.96301-0.7673-0.66001-0.45593-1.0486-0.61863-0.98648-0.48257-1.4065-0.55941-5.1503-1.5943-2.9752-1.1327-2.0725-0.93549-1.717-0.8586-1.3931-0.75742-1.3333-0.80114-0.98957-0.67094-0.89248-0.69536-0.5511-0.49765-0.61238-0.65227-1.8751-2.4361-2.2566-2.6157-0.52676-0.6905-0.50402-0.77411-0.2969-0.55818-0.31826-0.81348-0.17886-0.86674 0.072131-1.5978 0.28236-1.1921 1.5163-4.379 0.55489-1.7602 0.87804-3.1408 1.5795-6.2818 0.63512-2.1954 0.76392-2.161 0.83817-1.8852 1.002-1.7941 0.94343-1.3662 1.0511-1.2632 1.897-1.7916 1.9992-1.399 1.2336-0.64814 1.1112-0.44078 1.1931-0.23321 0.28362 0.13216 3.3901-0.067725 1.8731-0.12627 1.6712-0.16978 1.7186-0.24983 2.038-0.45596 1.6107-0.52943 1.5465-0.68263 1.2829-0.7248 1.4337-1.0122 1.5315-1.349 1.383-1.5017 1.3656-1.8216 1.1836-1.9396 0.86855-1.7177 0.96481-2.2785 0.739-2.0559 0.6176-2.0591 0.4173-1.7527 0.30358-1.7363 0.15456-1.3951 0.064698-1.3716-0.061082-1.8148-0.58823-4.8534-0.021097-1.7509 0.19813-1.7581 0.3113-1.2948 0.4512-1.2737 0.57696-1.2277 0.69591-1.1952 1.1395-1.6017 1.309-1.5388 1.1243-1.1651 2.3684-2.1787 2.7347-2.2149 3.2365-2.326 3.3282-2.1652 3.1128-1.8531 1.4885-0.81769 2.4258-1.2203 2.7843-1.23 2.5113-0.97921 3.0042-1.0254 3.1838-0.91436 2.4386-0.56254 1.61-0.29336 1.6181-0.2286 2.052-0.19097 2.4524-0.081697 2.7776 0.093458 1.809 0.16093 2.342 0.31662 2.554 0.48536 2.4124 0.60179 1.711 0.51395 1.6744 0.58002 2.2494 0.91722 2.4372 1.1953 1.3411 0.75885 1.2737 0.79757 1.6688 1.184 1.3818 1.1438 0.82203 0.78452 0.7595 0.8327 0.66712 0.86016 1.2375 1.8804 0.32814 0.44721 0.4957 0.54628 0.78728 0.58584 0.73028 0.29939 0.81189 0.093441 0.8702-0.19572 0.51862-0.30006 0.5189-0.49198 0.82435-1.4349 0.50474-1.7078 0.36405-2.1792 0.83089-6.7327 1.5129-9.7719 0.27222-2.4236 0.53403-6.1617 0.25141-1.6112 0.35724-1.5387 0.41382-1.2598 0.52093-1.1741 0.60038-1.0185 0.77102-0.9862 0.88638-0.84763 1.3705-0.90131 0.92828-0.39685 0.85217-0.24155 1.0064-0.15763 1.3566-0.037961 1.1597 0.090078 1.4049 0.21679 2.3123 0.52362 2.0601 0.57315 6.6953 2.0821 2.522 0.70942 1.9451 0.45621 1.927 0.32969 2.1708 0.16526 2.1153-0.11848 1.4976-0.29814 2.0653-0.727 1.8418-0.98178 1.0453-0.71449 1.054-0.8482 2.2651-2.1444 4.8843-5.0993 1.3969-1.5647 2.5279-3.216 1.0195-1.1485 1.111-0.94284 1.2206-0.67276 0.93242-0.25604 0.91885-0.013638 0.4785 0.10066 0.6282 0.25956 0.58294 0.37151 1.2032 1.0816 3.0481 3.2101 1.1108 0.87685 0.7901 0.46647 0.94285 0.4406 1.0912 0.40406 1.9763 0.5254 1.2934 0.22618 1.5405 0.16184 1.0522 0.04366 1.6112-0.030602 1.3862-0.085928 4.1869-0.35592" stroke="#bdc660"/>
    </defs>
    <g clip-path="url(#p9017cbc2b2)">
     <use y="260.509011" fill="#bdc660" stroke="#bdc660" xlink:href="#m03ee69083f"/>
    </g>
   </g>
  </g>
 </g>
 <defs>
  <clipPath id="p9017cbc2b2">
   <rect x="7.2" y="7.2" width="357.12" height="246.11"/>
  </clipPath>
 </defs>
</svg>
