<?xml version="1.0" encoding="UTF-8"?>
<!DOCTYPE svg  PUBLIC '-//W3C//DTD SVG 1.1//EN'  'http://www.w3.org/Graphics/SVG/1.1/DTD/svg11.dtd'>
<svg width="371.52pt" height="276.72pt" version="1.1" viewBox="0 0 371.52 276.72" xmlns="http://www.w3.org/2000/svg" xmlns:xlink="http://www.w3.org/1999/xlink">
 <metadata>
  <rdf:RDF xmlns:cc="http://creativecommons.org/ns#" xmlns:dc="http://purl.org/dc/elements/1.1/" xmlns:rdf="http://www.w3.org/1999/02/22-rdf-syntax-ns#">
   <cc:Work>
    <dc:type rdf:resource="http://purl.org/dc/dcmitype/StillImage"/>
    <dc:date>2024-07-04T12:08:20.479166</dc:date>
    <dc:format>image/svg+xml</dc:format>
    <dc:creator>
     <cc:Agent>
      <dc:title>Matplotlib v3.7.1, https://matplotlib.org/</dc:title>
     </cc:Agent>
    </dc:creator>
   </cc:Work>
  </rdf:RDF>
 </metadata>
 <defs>
  <style type="text/css">*{stroke-linejoin: round; stroke-linecap: butt}</style>
 </defs>
 <g id="figure_1">
  <g id="patch_1">
   <path d="m0 276.72h371.52v-276.72h-371.52v276.72z" fill="none"/>
  </g>
  <g id="axes_1">
   <g id="PatchCollection_1">
    <defs>
     <path id="mac48239e10" d="m348.09-215.66-0.3475 2.3909-0.31753 4.537-0.32702 2.6516-0.56665 2.4896-1.0168 3.0142-1.579 3.7816-2.7211 5.8897-2.0207 4.0296-2.9967 5.5769-1.3019 2.7545-1.0841 2.7822-3.2362 10.014-1.0633 2.8695-0.91827 2.1777-0.93986 1.8008-0.83099 1.2279-1.0983 1.2528-1.4732 1.294-2.2961 1.5544-1.7812 0.99541-6.7391 3.3116-2.0207 1.1491-2.3653 1.6695-3.408 2.8478-1.9037 1.4566-4.2611 2.7588-2.6191 1.411-2.7837 1.3124-2.9251 1.2029-4.4165 1.5151-4.6192 1.2486-4.3433 0.89633-4.4458 0.71186-8.7974 1.0388-20.383 2.0939-5.5827 0.75015-2.763 0.48353-2.7373 0.58871-3.0775 0.82404-3.0189 1.0056-3.4508 1.4339-3.327 1.7089-3.1755 1.9884-3.182 2.4391-3.2758 3.1341-3.3417 4.1404-1.5929 2.4142-1.4697 2.4896-3.7947 7.0387-3.6605 6.517-1.0452 1.7666-1.2475 1.8336-0.26168 0.13206-0.60546 0.50618-0.6488 1.5953-0.62204 2.3479-0.53393 3.0209-0.94005 7.5303-0.47576 2.531-1.2531 4.7064-0.97685 2.9442-1.8587 4.9159-1.0593 2.5251-5.1942 11.371-2.0646 5.0207-3.2517 9.2458-1.3532 3.3622-1.7475 3.1126-1.3766 1.6123-1.5894 1.1361-2.1208 0.64173-2.3734 0.01892-2.5448-0.49795-1.3768-0.4336-3.4914-1.3974-3.6929-1.785-3.8102-2.0684-3.8538-2.2747-7.9988-5.1848-5.2946-3.8576-8.2369-6.5519-2.6296-1.894-3.6915-2.15-12.465-6.0333-6.5271-3.3453-4.1457-1.8994-2.4277-0.87948-9.9794-3.0431-3.2579-1.0834-4.1631-1.6656-3.0915-1.5658-4.8156-2.7861-1.7379-1.1471-3.8228-2.7604-3.578-2.7498-12.474-9.9335-3.1577-2.3589-3.1591-2.1784-1.9771-1.2489-2.4817-1.4324-2.3788-1.1911-2.2189-0.89906-1.5714-0.48091-0.9142-0.19712-1.9782-0.009803-0.60186 0.56-1.1123 0.67556 0.62729-3.9244 0.32155-1.1906 0.60402-1.5913 2.4452-4.5628 2.3794-5.1179 2.0424-3.3398 1.064-1.9861 1.404-3.101 1.2899-3.1713 2.0175-5.3335 1.8026-5.3228 0.98133-3.5589 1.2325-5.4362 0.64076-2.1126 1.3548-3.2226 0.95386-1.8407 0.86124-1.4155 1.4586-0.24113 2.4246-0.6622 2.1389-0.71651 5.6141-2.105 2.2096-0.65234 1.904-0.43844 3.1037-0.46656 7.4887-0.70125 6.227-1.0035 7.3905-0.94468 3.4098-0.59423 1.9004-0.52894 0.94232-0.40399 1.4601-1.0043 0.52699-0.53708 0.6124-0.85917 0.39044-0.93776 0.13818-1.0592-0.093342-1.0268-0.28394-1.1684-0.41543-1.2002-2.2132-5.2013-1.1117-2.9755-0.87959-2.7792-1.5716-5.6197-0.72875-3.383-0.24307-1.622-0.21078-2.3686-0.014445-3.2169 0.22094-2.637 0.51694-3.2122 0.71433-2.5925 1.1058-2.3667 1.0618-1.4653 1.2612-1.2228 1.5928-0.85079 1.7589-0.19923 1.9687 0.32188 1.055 0.32817 3.6413 1.6092 4.9882 2.486 4.66 2.043 3.4439 1.346 3.5584 1.2148 3.6447 1.0147 15.072 2.983 3.5624 0.50971 3.56 0.2363 3.5434-0.16638 4.5748-0.95042 4.4181-1.6077 4.1131-2.0057 2.8325-1.6492 3.6981-2.5572 0.79143-0.75753-0.12356 0.43904 0.038938 1.1111 0.4038 1.7654 0.81614 1.865 1.198 1.6292 1.5558 1.1148 1.9312 0.41002 2.1987-0.24515 2.3832-0.7478 2.5042-1.1157 2.5796-1.3761 2.6239-1.5552 5.3082-3.4248 14.178-9.4951 5.6739-3.5059 14.152-8.4775 5.5332-3.4764 5.3323-3.6627 2.5422-1.9473 3.0079-2.579 5.6691-5.2795 1.7192-1.387 2.3473-1.6602 1.5452-0.96591 2.3522-1.3214 2.4272-1.2248 4.2542-1.9082 2.9944-1.1776 3.061-0.99376 3.1491-0.70924 2.3281-0.28384 2.3767-0.12158 2.7771 0.004672 9.6939 0.3397 3.2497-0.079511 2.9922-0.31587 2.5539-0.48769 1.837-0.55533 0.69864-0.53315 0.45231 0.19584 1.2103 0.81808 1.7743 1.5788 1.7112 2.0033 2.4975 3.2154 3.548 3.8372 0.84889 1.0809 0.67442 1.1478 0.44787 1.2202 0.17297 1.1285 1.61e-4 1.1077-0.39076 2.4951-1.043 4.0958-0.25359 1.3212-0.18026 2.3883 0.05069 0.89856 0.24269 1.4786 0.37624 1.4202 0.66336 1.9104 0.64588 1.476 0.641 1.1979 0.68071 1.0584 1.1753 1.4776 2.2102 2.1488 1.1132 0.89969 1.5328 0.98576 2.4104 1.2431 6.0884 2.9285 1.104 0.44141 1.0986 0.30797 0.79637 0.10828 0.88499-0.021862 0.68473-0.12863 1.7949-0.7415 1.2143-0.74793 3.7845-2.7467 1.3715-0.84779 1.3979-0.62433 1.481-0.3398 1.36-0.047523 1.0587 0.18147 0.50228 0.38534" stroke="#bdc660"/>
    </defs>
    <g clip-path="url(#p4cf4c7f4c6)">
     <use y="276.724552" fill="#bdc660" stroke="#bdc660" xlink:href="#mac48239e10"/>
    </g>
   </g>
  </g>
 </g>
 <defs>
  <clipPath id="p4cf4c7f4c6">
   <rect x="7.2" y="7.2" width="357.12" height="262.32"/>
  </clipPath>
 </defs>
</svg>
