<?xml version="1.0" encoding="UTF-8"?>
<!DOCTYPE svg  PUBLIC '-//W3C//DTD SVG 1.1//EN'  'http://www.w3.org/Graphics/SVG/1.1/DTD/svg11.dtd'>
<svg width="247.52pt" height="280.51pt" version="1.1" viewBox="0 0 247.52 280.51" xmlns="http://www.w3.org/2000/svg" xmlns:xlink="http://www.w3.org/1999/xlink">
 <metadata>
  <rdf:RDF xmlns:cc="http://creativecommons.org/ns#" xmlns:dc="http://purl.org/dc/elements/1.1/" xmlns:rdf="http://www.w3.org/1999/02/22-rdf-syntax-ns#">
   <cc:Work>
    <dc:type rdf:resource="http://purl.org/dc/dcmitype/StillImage"/>
    <dc:date>2024-07-04T12:08:28.208028</dc:date>
    <dc:format>image/svg+xml</dc:format>
    <dc:creator>
     <cc:Agent>
      <dc:title>Matplotlib v3.7.1, https://matplotlib.org/</dc:title>
     </cc:Agent>
    </dc:creator>
   </cc:Work>
  </rdf:RDF>
 </metadata>
 <defs>
  <style type="text/css">*{stroke-linejoin: round; stroke-linecap: butt}</style>
 </defs>
 <g id="figure_1">
  <g id="patch_1">
   <path d="m0 280.51h247.52v-280.51h-247.52v280.51z" fill="none"/>
  </g>
  <g id="axes_1">
   <g id="PatchCollection_1">
    <defs>
     <path id="mf4a92f9514" d="m210-163.79-0.13568 0.12008-0.095132 0.38808 0.097639 0.66426 0.4853 1.333 0.43637 0.8715 0.53036 0.89639 1.109 1.5548 1.6793 1.8899 1.305 1.2537 1.8526 1.6243 5.3322 4.4082 1.9483 1.8028 1.532 1.6988 0.7617 1.0288 1.0185 1.7024 0.80635 1.8331 0.39398 1.2168 0.44442 2.0663 0.20164 2.0301 0.022934 1.8941-0.090716 1.7764-0.29984 2.9526-0.44293 3.2746-0.37222 1.983-0.49668 1.8378-0.27283 0.75919-0.63648 1.3274-0.3858 0.59421-0.74067 0.87422-0.71016 0.65384-1.2497 0.91544-1.6989 0.9453-0.97631 0.41758-1.8618 0.59561-0.92171 0.2175-2.741 0.43074-4.8164 0.43674-2.1814 0.27846-2.1537 0.50311-1.493 0.57314-1.9253 1.1895-1.4123 1.4458-0.78196 1.5582 0.018899 1.5362 0.88327 1.3395 1.5629 1.2333 2.0425 1.155 2.358 1.1002 7.6318 3.1664 2.3146 1.07 1.9719 1.1082 1.4584 1.1684 0.73587 1.2545 0.025045 0.67601-0.1255 0.49389-0.25107 0.53245-0.29738 0.45481-0.83498 0.95699-1.4558 1.2722-1.6761 1.2276-1.6724 1.0956-3.0561 1.8301-10.584 6.0124-3.125 1.4803-2.9032 1.1923-3.2133 1.205-3.2308 1.1294-7.2396 2.353-5.4972 1.6364-4.1869 1.1213-2.4078 0.58045-3.4138 0.70699-3.3832 0.48298-1.901 0.11857-3.8847-0.095022-1.8999 0.116-2.1649 0.388-1.927 0.55831-0.94284 0.36709-1.1937 0.57427-2.5561 1.343-4.0001 1.9291-5.6052 2.4743-9.1113 3.7675-22.368 8.9226-6.4553 2.6824-3.2066 1.4023-3.1726 1.4644-3.1143 1.5493-3.0214 1.6636-2.8812 1.815-2.6806 2.0099-5.9472 5.3734-5.0875 4.3449-4.5501 3.6748-1.6015 1.2171-0.7318 0.43996-0.3095-1.167-1.0412-5.2513-1.9158-10.739-1.7985-11.234-0.98368-7.3089-0.39034-3.5869-0.29866-3.5459-0.18254-3.5097-0.051583-3.5333 0.17507-10.421-0.006539-3.4127-0.13117-3.3771-0.32304-3.3349-0.18797-1.2522-0.52982-2.6921-0.66371-2.662-0.76193-2.6366-0.83072-2.6144-2.6639-7.7942-1.2863-3.9772-1.0151-2.8824-2.3032-5.7747-6.6278-15.228-4.1232-9.2797-5.9467-13.107-11.515-25.135 13.943-7.2443 8.5772-4.3878 5.8927-3.1011 6.0002-3.2814 17.264-9.6317 8.6954-4.6719 14.677-7.5821 8.8411-4.4662 9.6256-4.7542 8.6427-4.4594 5.4557-2.876 13.623-7.4948 8.9783-4.8422 8.7505-4.5565 4.4038-2.178 2.026-0.93653 4.0838 9.7213 5.569 13.038 9.5974 22.882 4.2228 9.7276 2.6168 5.729 1.8308 3.7007 0.96167 1.7845 3.9355 6.5129 2.6711 4.5837 1.6835 3.0722 3.604 6.8596 1.7427 3.1389 1.4083 2.3848 1.1548 1.8322 1.3511 1.9906 0.373 0.47142" stroke="#bdc660"/>
    </defs>
    <g clip-path="url(#pb2b4437bed)">
     <use y="280.512" fill="#bdc660" stroke="#bdc660" xlink:href="#mf4a92f9514"/>
    </g>
   </g>
  </g>
 </g>
 <defs>
  <clipPath id="pb2b4437bed">
   <rect x="7.2" y="7.2" width="233.12" height="266.11"/>
  </clipPath>
 </defs>
</svg>
