<?xml version="1.0" encoding="UTF-8"?>
<!DOCTYPE svg  PUBLIC '-//W3C//DTD SVG 1.1//EN'  'http://www.w3.org/Graphics/SVG/1.1/DTD/svg11.dtd'>
<svg width="361.18pt" height="280.51pt" version="1.1" viewBox="0 0 361.18 280.51" xmlns="http://www.w3.org/2000/svg" xmlns:xlink="http://www.w3.org/1999/xlink">
 <metadata>
  <rdf:RDF xmlns:cc="http://creativecommons.org/ns#" xmlns:dc="http://purl.org/dc/elements/1.1/" xmlns:rdf="http://www.w3.org/1999/02/22-rdf-syntax-ns#">
   <cc:Work>
    <dc:type rdf:resource="http://purl.org/dc/dcmitype/StillImage"/>
    <dc:date>2024-07-04T12:08:16.171571</dc:date>
    <dc:format>image/svg+xml</dc:format>
    <dc:creator>
     <cc:Agent>
      <dc:title>Matplotlib v3.7.1, https://matplotlib.org/</dc:title>
     </cc:Agent>
    </dc:creator>
   </cc:Work>
  </rdf:RDF>
 </metadata>
 <defs>
  <style type="text/css">*{stroke-linejoin: round; stroke-linecap: butt}</style>
 </defs>
 <g id="figure_1">
  <g id="patch_1">
   <path d="m-0 280.51h361.18v-280.51h-361.18v280.51z" fill="none"/>
  </g>
  <g id="axes_1">
   <g id="PatchCollection_1">
    <defs>
     <path id="m6d90d8debb" d="m121.84-243.59 0.065918 0.093413 0.34478 0.29098 1.2386 1.2277 1.0308 1.0754 2.8719 3.1138 5.8379 6.0729 1.8221 1.9826 3.0991 3.4567 1.1341 1.2052 1.6006 1.5294 2.6026 2.1568 1.6469 1.4628 0.5894 0.57216 0.97666 1.0177 0.60083 0.67211 0.97853 1.1833 1.4992 2.0685 2.979 4.4941 2.6993 4.2779 0.65375 0.90914 0.608 0.72292 0.64888 0.61 0.53302 0.37116 0.5657 0.27845 0.62912 0.18346 0.6713 0.074215 0.57828-0.018804 0.71802-0.11854 0.72586-0.22026 0.66437-0.27384 1.1774-0.57995 0.89453-0.47803 1.6091-0.91174 0.83556-0.50845 0.9941-0.65304 0.91714-0.66015 1.2416-0.96005 1.2479-1.022 1.3379-1.1703 1.0172-0.9778 0.90416-0.98018 0.75584-0.91571 0.66208-0.91932 0.57448-0.94156 0.21278-0.40435 0.25955-0.56735 0.44926-1.2364 0.48103-1.5918 0.74617-2.8056 0.27037-0.78459 0.41708-1.0004 0.48277-0.995 0.59999-1.1108 1.2217-2.0858 0.96853-1.5029 0.96644-1.3272 1.1757-1.4237 0.96276-1.0028 1.0176-0.86215 0.59337-0.39128 0.49024-0.25571 0.70977-0.25866 0.65124-0.12386 0.53387-0.02784 0.88126 0.081641 0.65334 0.17494 0.64944 0.28885 0.84168 0.5759 0.59146 0.56455 0.4992 0.59116 0.43867 0.63079 0.48798 0.91852 0.34971 0.95458 0.1964 0.86064 0.17021 1.3363 0.12332 1.3693 0.18188 1.3545 0.21143 0.94071 0.5749 2.1134 0.66638 2.1864 0.48206 2.2956 0.24129 0.94986 0.41765 1.1768 0.44181 1.0129 0.62628 1.247 0.56461 0.99429 0.62537 0.99176 0.68788 0.97915 0.75507 0.95488 0.60201 0.67843 1.3015 1.2529 1.4314 1.1619 1.5101 1.0756 1.528 0.98228 1.4657 0.86783 1.2901 0.71391 1.3089 0.67645 0.59267-0.7226 2.2333-2.5143 1.8493-1.9923 2.0143-2.0298 1.3522-1.3157 2.6558-2.3544 1.8896-1.5216 7.1251-5.3135 1.1224-0.67069 0.43918-0.19125 0.47876-0.1425 0.4979-0.067009 0.38158 0.008249 0.47585 0.077565 0.50483 0.15557 0.56014 0.24343 0.50899 0.27862 0.23464 0.14745 0.91647 0.70512 0.65398 0.62955 0.77448 0.83291 0.38852 0.47076 0.63552 0.89396 0.56742 0.94696 0.87272 1.6429 0.47224 0.82832 0.72058 1.1036 0.74028 0.87658 0.82891 0.71321 0.90184 0.49346 0.83418 0.21438 0.84758 0.04043 0.80007-0.07856 1.7945-0.32071 0.7118-0.19338 0.93028-0.32467 2.689-1.1643 1.1073-0.41668 1.276-0.31366 0.40761-0.035937 0.6241 0.020741 0.63113 0.11734 0.53393 0.16443 1.1036 0.48293 1.297 0.74701 3.137 1.9908 0.78827 0.43169 1.1323 0.51235 1.1604 0.32618 0.46101 0.059651 0.75203 0.020523 1.3693-0.1651 1.0206-0.27062 1.1575-0.43231 1.0037-0.44381 1.2017-0.59099 1.1971-0.64886 1.1795-0.69991 1.9512-1.2476 1.3995-0.84356 1.3859-0.77663 1.4095-0.7124 1.2419-0.52218 1.2232-0.36744 1.1984-0.156 0.35832 0.003759 0.61526 0.058218 0.84281 0.16256 2.9076 0.77455 1.307 0.23693 1.3696 0.17284 2.8404 0.29481 1.4289 0.1979 1.4053 0.28988 0.45542 0.12449 0.89784 0.29717 0.58777 0.23655 0.49982 0.23253 0.70103 0.38804 0.6586 0.45486 0.80744 0.72857 0.72564 0.85006 0.65245 0.954 0.69426 1.2645 0.62038 1.428 0.45247 1.312 0.45049 1.6871 0.33101 1.6732 0.28068 1.963 0.34582 3.3122 0.39089 4.2409 0.12468 0.91218 0.1216 0.28089-0.023159 0.11115 0.14495 0.16272 0.78527 0.46456 4.3002 1.9525 1.7467 0.85731 1.7185 0.95815 1.6319 1.0839 1.4912 1.2162 1.3791 1.3293 1.2878 1.4065 1.2136 1.4567 1.7179 2.2537 3.6256 5.1651 4.0986 5.3424 0.62491 0.94776 0.45613 0.78995 0.55084 1.0829 0.32589 0.73797 0.40171 1.0685 0.34904 1.1021 0.22551 0.88177 0.16939 0.89213 0.083354 0.68607 0.055991 1.0605-0.018901 0.81107-0.080511 0.84407-0.17265 1.0991-0.22646 1.0439-0.27763 1.0054-0.25342 0.72033-0.41864 0.82647-0.38857 0.5108-0.18184 0.1853-0.3313 0.28304-0.67469 0.44544-1.237 0.57284-1.4126 0.45014-1.5682 0.36467-1.9556 0.3492-3.214 0.49502-1.5119 0.25725-1.2357 0.24533-1.2322 0.28329-1.2373 0.32859-1.2278 0.37296-1.3893 0.4812-2.3271 0.93342-2.3806 1.085-7.0218 3.4825-1.5459 0.73924-3.5049 1.5962-5.2903 2.3377-5.3408 2.3137-4.4915 1.8883-1.0938 0.40248-0.26444-0.035109-0.63193-0.17731-0.85806-0.27477-1.4621-0.52551-4.8523-2.0232-1.3613-0.51625-2.1742-0.70049-2.155-0.59563-3.1896-0.76275-2.1043-0.41545-1.048-0.16591-1.1241-0.13344-1.1827-0.075923-0.90069-0.003593-1.0677 0.060071-1.7651 0.23385-1.0679 0.20232-1.8007 0.41513-6.2649 1.7282-1.3015 0.39146-1.4188 0.47242-1.7584 0.69578-1.6588 0.77136-1.6004 0.82731-4.3491 2.3752-1.6989 0.89083-1.6641 0.79357-0.85297 0.3128-0.09653-0.005769-1.0576 0.259-2.2209 0.47759-8.5443 2.4115-0.39109 0.14062-8.3145 2.3114-4.9535 1.4892-1.083 0.35033-1.3655 0.5008-1.4051 0.65942-0.89604 0.54817-0.4848 0.33554-2.7576 2.0837-2.5169 1.7384-1.4765 0.88302-2.3911 1.2972-1.153 0.67475-0.85457 0.57955-0.72657 0.57291-0.38154 0.3424-0.54661 0.56137-0.63528 0.83046-0.3465 0.64087-0.22815 0.67579-0.088961 0.59738-0.002284 0.62495 0.14475 1.0081 0.29452 1.0406 0.27268 0.72381 0.32206 0.72984 0.6214 1.2048 0.68538 1.1574 1.5313 2.4312 1.084 1.8248 0.51407 0.92637 0.76999 1.5046 0.67148 1.496 0.5413 1.4694 0.36795 1.4226 0.13666 1.3518-0.17101 1.252-0.49693 1.075-0.74404 1.0091-0.89113 0.99454-2.7697 2.9464-0.88496 1.0079-0.63276 0.78278-0.59129 0.79602-0.67324 1.0526-0.37334 0.74396-0.26995 0.76774-0.1666 1.1268 0.030945 1.0066 0.074976 0.5794 0.25538 1.1818 0.42764 1.3373 0.55066 1.3496 0.65117 1.3519 0.73717 1.3445 0.44877 0.75018 1.3058 2.0316 5.4811 8.0854 1.4325 1.9505 1.0698 1.2896 1.307 1.4224 0.70944 0.71662 1.1757 1.1051 2.6873 2.3529 0.70798 0.68251 0.66097 0.7515 0.62195 0.81485 0.56402 0.81596 0.54932 0.85075 2.7329 4.4408 2.9646 4.5832 0.73862 1.2629 0.47879 0.96923 0.40707 1.0903 0.20394 0.93115 0.048108 0.7438-0.02597 0.45036-0.11101 0.6528-0.26043 0.84786-0.23866 0.56289-0.46401 0.87434-0.32179 0.51731-0.52436 0.75235-0.53754 0.69028-0.57508 0.6754-0.82743 0.87796-0.8057 0.77634-0.82587 0.73285-0.37741-0.35709-1.1095-1.2337-1.3584-1.5962-1.1121-1.3851-1.6113-2.251-2.6248-3.8679-1.5963-2.5116-1.2658-2.1743-0.80762-1.5443-2.4561-5.0179-0.88829-1.5886-0.57586-0.90696-0.57726-0.81366-0.75127-0.91596-0.81913-0.8086-0.94111-0.68752-0.78601-0.38036-0.71396-0.20361-1.0512-0.12111-1.2269 0.044595-0.80425 0.1012-0.8202 0.14404-1.4629 0.33002-1.8583 0.51294-2.6399 0.84095-2.2917 0.64198-7.9683 1.9095-1.8394 0.52726-1.0004 0.33637-4.9205 1.7954-1.9454 0.79475-2.8967 1.2938-1.3136 0.50421-0.6467 0.19762-1.2182 0.23588-1.2359 0.003901-0.25525-0.02449-0.9846-0.16657-0.98145-0.25282-2.8899-0.90607-1.2283-0.41367-1.4306-0.5995-1.2505-0.61304-0.72378-0.42718-0.70919-0.47394-0.98333-0.72846-2.0717-1.6095-2.51-1.8296-0.90176-0.68996-3.2006-2.5996-0.86165-0.65858-1.7236-1.2445-1.3062-0.8871-2.0537-1.1979-1.054-0.63969-1.0055-0.65807-0.92007-0.6614-1.0578-0.81433-0.41217-0.28013-0.98193-0.56145-1.5605-0.77502-0.45351-0.26386-0.28168-0.19755-0.47945-0.45919-0.35886-0.52381-0.24486-0.54842-0.098708-0.2974-0.46488-1.8836-0.53107-1.9792-0.69549-3.1663-0.39789-1.2893-0.3562-0.85422-0.41347-0.84349-0.86696-1.6204-0.58649-1.1814-0.55523-1.2324-0.52488-1.2669-0.95512-2.5808-0.74194-2.223-0.5072-1.7788-0.30211-1.287-1.0516-5.1231-0.25956-1.5034-0.10309-0.81302-0.079961-1.0192-0.0099-1.1237 0.23041-2.6371 0.1142-2.1922 0.003173-2.3427-0.058109-1.3295-0.18774-2.1059-0.2133-1.3836-0.15014-0.66022-0.20843-0.66364-0.12676-0.30951-0.25794-0.48953-0.427-0.55117-0.4227-0.36886-0.26164-0.1817-0.64376-0.37184-1.4086-0.71542-0.83992-0.48522-0.69407-0.48403-2.0873-1.6812-0.65398-0.488-3.0727-2.0354-0.96116-0.59058-1.0135-0.52511-0.77627-0.32248-1.3344-0.45957-2.5408-0.7877-0.60989-0.22099-0.93751-0.41278-0.69222-0.3911-0.72789-0.51907-0.74977-0.65266-0.61998-0.64805-0.82335-1.058-0.70957-1.1424-0.59156-1.196-0.46162-1.2225-0.31172-1.2235-0.15816-1.2227-0.12334-1.7527-0.093621-0.72398-0.30057-1.0896-0.48995-0.94649-0.35523-0.45059-0.51703-0.4977-0.75144-0.49726-1.1856-0.61368-0.77283-0.54278-0.35055-0.42165-0.20384-0.40873-0.15714-0.71019-0.023291-0.70715 0.035476-0.5519 0.08056-0.62337 0.13005-0.70206 0.16892-0.72853 0.37554-1.3411 1.2864-4.0583 0.34333-1.2644 0.2543-1.2473 0.1223-1.2194-0.05971-1.1792-0.27628-1.1193-0.45626-1.0721-0.74684-1.2735-0.98535-1.4062-0.8572-1.103-0.80913-0.93688-2.1208-2.3204-2.5185-3.0675-0.81694-0.87375-0.5618-0.54037-0.62391-0.54744-0.87729-0.70038-1.0279-0.73667-0.91854-0.59674-0.9329-0.55691-1.03-0.56312-2.5907-1.2897-2.207-1.0362-2.6233-1.1374-3.1341-1.2205-0.63295-0.33667-0.92977-0.70217-0.73329-0.72523-0.71895-0.81454-1.5473-1.8669-1.3903-1.74-1.8366-2.4653-1.4165-2.0935-1.1616-1.899-0.71532-1.2854-0.49824-0.97779-0.45816-0.97877-0.56413-1.3472-0.70944-1.932-0.54183-1.3453-0.20602-0.42895-0.57713-1.0058-1.4494-2.1724-0.61953-1.1521-0.55509-1.2613-0.50952-1.3431-0.48561-1.4231-0.81015-2.6244-0.79595-2.8526-0.31262-1.2866-0.25515-1.2195-0.18659-1.0318-0.27116-1.8845-0.14654-1.7052-0.003134-0.83724 0.055028-0.6974 0.21043-1.284 0.72426-3.41 0.75645-2.9069 0.40578-2.0123 0.19176-1.1073 0.10426-1.2019-0.013462-0.65524-0.083256-0.64153-0.32054-1.0574-0.59118-1.1474-0.50587-0.72901-0.56555-0.66926-0.62961-0.66327-0.7599-0.7594-1.106-1.0406-1.7504-1.525-1.6203-1.3089-1.2564-0.91729-2.7079-1.7883-1.0231-0.709-0.62952-0.51162-0.18158-0.2311 0.018535-0.083626 4.28-2.4991 7.8952-4.7087 3.7137-2.1342 1.4052-0.87213 1.0843-0.73575 0.93312-0.69311 0.81826-0.66977 1.0527-0.98454 0.27003-0.28496 0.73983-0.89849 1.5739-2.3509 0.45198-0.55971 0.66425-0.71139 0.88154-0.82168 0.80717-0.65754 0.7553-0.51582 0.60057-0.32332 0.59244-0.22532 0.54387-0.10642 0.522 0.007824 0.50089 0.11905 0.52097 0.23287 0.34967 0.21383 0.59096 0.45621 0.99258 0.96435 0.84953 0.98272 0.99185 1.3285 4.6531 6.6614 1.9442 3.0209 2.3377 3.8183 0.58574 1.0406 0.75676 1.4733 0.62531 1.342 0.77536 1.8623 0.48856 1.3687 0.33995 1.0819 0.30828 1.0887 1.0714 4.1323 0.34051 1.1235 0.50983 1.4098 0.5002 1.1232 0.30972 0.6144 0.73752 1.2916 1.0694 1.5991 1.2869 1.7095 3.9846 4.9992 0.2675 0.3752 0.66645 1.0723 0.5069 1.1011 0.23221 0.77954 0.0708 0.37349 0.055007 1.2976-0.15876 1.316-0.84277 3.8756-0.11192 1.1942 0.13021 1.0969 0.12149 0.35354 0.15432 0.32522 0.33481 0.51988 0.57544 0.65583 0.67235 0.5996 0.7257 0.51784 0.5961 0.33526 0.6396 0.27002 0.72549 0.20681 0.85293 0.11615 0.95405-0.045736 0.94621-0.20608 0.80398-0.27727 1.2149-0.49736 2.4555-1.0655 1.1633-0.45442 0.51228-0.16992 0.5534-0.1418 0.527-0.082533 0.61558-0.02049 1.1607 0.053356 0.39256-0.014302 0.364-0.056586 0.23993-0.069492 0.64734-0.34366 0.61188-0.5424 0.55086-0.71039 0.46097-0.85565 0.1414-0.34815 0.32062-1.0198 0.23643-1.0087 0.17398-0.98052 0.35017-2.6113 0.32572-2.7596 0.24956-1.5797 0.29286-1.3648 0.16698-0.6407 0.32818-1.046 0.3634-0.94271 0.46685-1.0539 0.72086-1.4138 0.6955-1.1739 0.94493-1.4295 1.1502-1.6016 0.90579-1.1683 0.75652-0.86131 2.7059-2.8749 3.0155-3.4527 1.2429-1.4651 2.2417-2.7959 1.1773-1.6112 1.4004-2.0367 0.58259-0.75768 0.1825-0.18819 0.1696-0.1232 0.1587-0.012939" stroke="#bdc660"/>
    </defs>
    <g clip-path="url(#p530b0df3cb)">
     <use y="280.512" fill="#bdc660" stroke="#bdc660" xlink:href="#m6d90d8debb"/>
    </g>
   </g>
  </g>
 </g>
 <defs>
  <clipPath id="p530b0df3cb">
   <rect x="7.2" y="7.2" width="346.78" height="266.11"/>
  </clipPath>
 </defs>
</svg>
