<?xml version="1.0" encoding="UTF-8"?>
<!DOCTYPE svg  PUBLIC '-//W3C//DTD SVG 1.1//EN'  'http://www.w3.org/Graphics/SVG/1.1/DTD/svg11.dtd'>
<svg width="238.92pt" height="280.51pt" version="1.1" viewBox="0 0 238.92 280.51" xmlns="http://www.w3.org/2000/svg" xmlns:xlink="http://www.w3.org/1999/xlink">
 <metadata>
  <rdf:RDF xmlns:cc="http://creativecommons.org/ns#" xmlns:dc="http://purl.org/dc/elements/1.1/" xmlns:rdf="http://www.w3.org/1999/02/22-rdf-syntax-ns#">
   <cc:Work>
    <dc:type rdf:resource="http://purl.org/dc/dcmitype/StillImage"/>
    <dc:date>2024-07-04T12:08:23.041473</dc:date>
    <dc:format>image/svg+xml</dc:format>
    <dc:creator>
     <cc:Agent>
      <dc:title>Matplotlib v3.7.1, https://matplotlib.org/</dc:title>
     </cc:Agent>
    </dc:creator>
   </cc:Work>
  </rdf:RDF>
 </metadata>
 <defs>
  <style type="text/css">*{stroke-linejoin: round; stroke-linecap: butt}</style>
 </defs>
 <g id="figure_1">
  <g id="patch_1">
   <path d="m-0 280.51h238.92v-280.51h-238.92v280.51z" fill="none"/>
  </g>
  <g id="axes_1">
   <g id="PatchCollection_1">
    <defs>
     <path id="mb523f87600" d="m221.42-125.52-0.82847 0.548-3.9564 2.1441-4.6479 2.309-1.5282 0.48892-2.1926 0.26275-0.92263 0.21459-0.76638 0.32092-1.0695 0.65795-4.9271 3.7748-1.9256 1.7241-1.2821 1.4073-3.6404 4.3195-0.93076 1.473-0.56322 1.4949-0.25936 1.101-0.22976 1.6332-0.089068 1.4308-0.010933 2.2013 0.2374 8.7658-0.065765 2.3774-0.18382 1.7736-0.45758 2.2303-1.8771 5.8913-1.0052 3.7787-0.87779 4.1683-0.41088 3.3505-0.074568 2.7185 0.18894 2.8725 0.28917 2.0288 0.39997 1.938 0.32743 1.1328 0.2337 0.56649 0.1048 0.10443-6.7691 2.1198-4.2769 1.587-2.6488 1.1535-1.235 0.61137-2.4157 1.401-1.1155 0.75716-1.7239 1.3718-0.76836 0.7341-3.4492 3.7577-2.8631 2.9688-1.9943 1.933-2.0884 1.8356-1.4578 1.1384-5.688 4.1646-3.0101 1.8905-2.1791 1.2144-3.5075 1.7921-2.5741 1.1979-2.675 1.1088-2.4459 0.85239-2.1586 0.61453-2.1996 0.49808-1.9877 0.32135-1.567-0.71475-1.4977-0.56084-1.7933-0.55178-1.9766-0.51923-4.2116-0.92587-4.2939-0.78912-4.2447-0.65967-4.1659-0.50262-4.0956-0.26686-3.4419 0.017771-12.528 0.40835-3.7951 0.37349-3.6601 0.66478-1.7412 0.45074-1.6504 0.54513-4.1879 1.8148-1.1574 0.35676-0.51821 0.070503-1.0414-0.067679-0.63239-0.20097-0.76159-0.4218-0.84557-0.66784-2.6256-2.4621-1.9334-1.3917-1.7502-1.0757-2.855-1.4639-6.6248-2.8731-3.125-1.2578-0.096442-0.48615-0.007188-1.0644 0.19981-4.0008 0.27988-3.2791 0.40705-3.5579 0.54988-3.6833 1.0626-5.2036 2.8126-10.659 2.2721-9.4246 0.7887-3.6453 0.55189-3.4444 0.16434-3.1003-0.022535-0.84677-0.15114-2.0062-0.38122-2.4402-0.50997-2.0182-0.39813-1.1462-1.8651-3.9191-0.66197-1.7017-0.43855-1.7563-0.18781-1.8381 0.046656-1.9122 0.17928-1.5238 0.82104-4.7557 1.3832-6.4126 0.19366-1.4256 0.054075-2.1051-0.42036-2.3151-0.98655-2.0137-0.53269-0.77819-0.68515-0.85805-0.84723-0.84712-5.1938-4.0147-1.0786-0.97404-0.87163-0.91368-0.44671-0.53895-0.81575-1.1989-0.56525-1.1036-0.54338-1.4234-0.38087-1.3753-0.24154-1.2292-0.24882-2.4722-0.038658-2.392 0.070295-1.9524 0.42111-4.5615 0.99156-7.2459 0.29883-2.8133 0.26326-4.0639 0.070745-4.931-0.23241-6.0405-0.88683-13.209-0.26537-2.6922-0.37863-2.345-0.64045-2.5343-0.51676-1.4933-1.1523-2.5594-0.77602-1.3771-2.0368-2.9245-2.6456-3.4981-1.8506-2.7301-2.3262-3.9162-0.9806-1.8306-2.0684-4.2601-1.4352-3.312-1.398-3.5622-0.87408-2.5375-0.74691-2.7527-0.6178-3.1329-0.38381-3.1481-0.16055-2.7621-0.015027-3.6194 0.15785-3.136 0.39957-3.4918 0.54973-3.2601 0.30703 0.062794 2.3502-0.32684 16.793-3.163 6.1515-1.0435 3.0707-0.44751 3.1601-0.3871 4.3642-0.36351 2.7726-0.082251 2.2502 0.0557 2.4533 0.22971 2.2083 0.41496 1.3215 0.37837 2.2863 0.94829 2.162 1.1717 1.896 1.1586 2.097 1.4438 2.1039 1.6303 2.2613 1.9261 5.4044 4.8257 2.285 1.827 2.1165 1.394 1.7099 0.92876 2.2578 0.9515 1.2875 0.38411 2.9504 0.39684 0.55559 0.008409 2.125-0.14743 1.9218-0.3633 1.5348-0.4502 1.6855-0.63634 9.1233-4.2422 2.7893-1.1572 2.2704-0.64827 1.0382-0.1691 0.95402-0.06531 0.88032 0.029254 0.83782 0.11444 1.3007 0.35052 0.95916 0.39608 1.049 0.57758 1.7598 1.3154 3.4337 3.0994 2.207 1.8009 1.6957 1.1131 1.9366 1.0017 1.8618 0.73423 2.6161 0.73198 2.6615 0.4692 4.3811 0.51592 2.1144 0.4108 1.4361 0.46561 1.0654 0.47418 1.2255 0.68513 0.83901 0.56042 1.1663 0.91552 1.427 1.4133 1.1011 1.3676 1.2421 1.8844 0.88377 1.601 0.65663 1.3599 0.76926 1.8233 1.0188 2.9733 0.59406 2.2068 0.58509 2.9017 0.35901 2.6799 0.76601 7.2427 0.42315 2.8732 0.34723 1.722 0.43382 1.6363 1.0056 2.7782 1.5464 3.9009 0.60393 1.7637 2.3353 7.2363 1.1394 3.9542 0.71361 3.1784 0.59984 3.9552 0.28118 3.1733 0.12963 4.6264 0.25141 2.3641 0.2157 1.1404 0.49085 1.7828 0.7091 1.8193 1.075 2.1017 0.68248 1.1136 1.4321 2.03 1.2109 1.5183 2.2972 2.6345 1.5361 1.6208 1.3836 1.3406 2.2066 1.9076 2.8944 2.1239 1.8615 1.178 2.0466 1.1613 5.1502 2.6058 4.0094 1.8622 9.2318 3.9023 3.4911 1.6914 2.0701 1.2019 1.3516 0.95165 0.79442 0.76862 0.19774 0.42118-0.0872 0.24247" stroke="#bdc660"/>
    </defs>
    <g clip-path="url(#pc96537fdf2)">
     <use y="280.512" fill="#bdc660" stroke="#bdc660" xlink:href="#mb523f87600"/>
    </g>
   </g>
  </g>
 </g>
 <defs>
  <clipPath id="pc96537fdf2">
   <rect x="7.2" y="7.2" width="224.52" height="266.11"/>
  </clipPath>
 </defs>
</svg>
