<?xml version="1.0" encoding="UTF-8"?>
<!DOCTYPE svg  PUBLIC '-//W3C//DTD SVG 1.1//EN'  'http://www.w3.org/Graphics/SVG/1.1/DTD/svg11.dtd'>
<svg width="197.2pt" height="280.51pt" version="1.1" viewBox="0 0 197.2 280.51" xmlns="http://www.w3.org/2000/svg" xmlns:xlink="http://www.w3.org/1999/xlink">
 <metadata>
  <rdf:RDF xmlns:cc="http://creativecommons.org/ns#" xmlns:dc="http://purl.org/dc/elements/1.1/" xmlns:rdf="http://www.w3.org/1999/02/22-rdf-syntax-ns#">
   <cc:Work>
    <dc:type rdf:resource="http://purl.org/dc/dcmitype/StillImage"/>
    <dc:date>2024-07-04T12:08:18.435813</dc:date>
    <dc:format>image/svg+xml</dc:format>
    <dc:creator>
     <cc:Agent>
      <dc:title>Matplotlib v3.7.1, https://matplotlib.org/</dc:title>
     </cc:Agent>
    </dc:creator>
   </cc:Work>
  </rdf:RDF>
 </metadata>
 <defs>
  <style type="text/css">*{stroke-linejoin: round; stroke-linecap: butt}</style>
 </defs>
 <g id="figure_1">
  <g id="patch_1">
   <path d="m0 280.51h197.2v-280.51h-197.2v280.51z" fill="none"/>
  </g>
  <g id="axes_1">
   <g id="PatchCollection_1">
    <defs>
     <path id="m6955306945" d="m58.971-256.38 0.013427 0.069543 0.21463 0.32659 0.66846 0.84364 3.1377 3.6574 0.78114 0.95735 0.27709 0.37586 0.3594 0.55496 0.35142 0.68362 0.28855 0.71105 0.2437 0.72917 0.21355 0.73993 0.77369 2.9626 0.22116 0.71946 0.25239 0.70181 0.87182 2.0336 1.1904 2.9367 0.51658 1.1047 0.69117 1.2691 0.37744 0.61195 0.42216 0.62234 0.44783 0.59704 0.47397 0.56676 0.914 0.99816 0.98069 1.1515 0.44984 0.60252 0.40101 0.62426 0.33012 0.64992 0.23174 0.6803 0.10092 0.5825 0.033188 0.49231-0.011503 2.0921 0.033058 0.59159 0.091562 0.68022 0.10568 0.45663 0.19068 0.52728 0.17613 0.28225 0.13474 0.062347-0.048659 0.10265 0.005315 0.20951 0.036195 0.20287 0.13676 0.43316 0.18612 0.39417 0.36571 0.56451 0.46068 0.5596 0.52634 0.54543 0.56894 0.52838 1.2041 1.0073 1.853 1.4127 2.4507 1.7678 3.8 2.6451 1.0528 0.69879 1.0669 0.66966 0.8538 0.5008 1.2847 0.70146 2.463 1.251 6.4604 3.1107 2.2819 1.203 1.1133 0.65425 0.56665 0.36357 0.91775 0.6606 0.19219 0.19542 0.78558 0.98468 0.45127 0.69987 0.6127 1.1515 0.82036 1.6854 0.45255 0.78292 0.42101 0.60582 0.83126 1.0906 0.63008 0.94482 0.1747 0.068889 0.33088 0.29001 0.41928 0.44073 0.46763 0.56221 0.46906 0.63879 0.44458 0.69076 0.3427 0.61006 0.31115 0.62298 0.28116 0.62514 0.77693 1.8825 0.27008 0.54893 0.30668 0.48862 0.36511 0.4062 0.44297 0.30864 0.64541 0.25874 0.66599 0.14823 1.2416 0.13132 2.4174 0.096112 0.91979 0.11205 0.37144 0.08853 0.35266 0.12338 0.22142 0.10461 0.48218 0.31357 0.42848 0.39938 0.31536 0.39392 0.28066 0.43763 0.20312 0.3724 0.52048 1.1204 1.2957 3.1148 0.51574 1.0563 0.51373 0.86918 0.71476 1.0228 1.4479 1.8878 2.3537 3.1456 2.3103 3.4132 0.94748 1.577-0.40841 0.39215-0.71759 0.61305-0.82319 0.75407-0.76774 0.81628-0.46201 0.62826-0.29896 0.6613-0.084792 0.86568 0.18014 0.93582 0.39288 0.97812 0.2426 0.46343 0.54833 0.89059 0.77394 1.0665 2.2706 2.8014 1.2112 1.5733 1.3129 1.8214 0.99361 1.5062 0.28348 0.49843 0.26166 0.55559 0.19191 0.60445 0.063326 0.4439-0.0188 0.523-0.10833 0.52366-0.28988 0.76305-0.41213 0.75361-0.49847 0.7296-0.59289 0.70223-0.47358 0.46745-0.67514 0.56699-0.71679 0.51532-1.9711 1.3112-0.52598 0.39806-0.79962 0.68417-0.7388 0.74492-0.75523 0.90284-0.89531 1.155-0.73041 1.0028-0.88984 1.353-0.75398 1.2689-0.76834 1.457-0.67054 1.4425-0.35273 0.97772-0.16494 0.68908-0.063409 0.41009-0.04005 0.47489 0.021185 0.7727 0.1117 0.66983 0.22265 0.69222 0.31123 0.6498 0.50004 0.79529 0.84149 1.1902 0.89762 1.1613 0.4935 0.58323 0.71613 0.77433 0.8518 0.81808 0.73647 0.62478 0.65388 0.49034 0.85628 0.55269 1.002 0.51844 0.75017 0.29535 2.0591 0.57105 1.1576 0.37895 1.1797 0.46886 1.1884 0.54363 1.1837 0.60794 1.4297 0.82868 0.6471 0.41736 0.57457 0.4051 0.57594 0.44513 0.55346 0.46875 0.5067 0.47064 0.80738 0.86478 0.50609 0.63367 0.46199 0.65683 0.36066 0.5794 0.32574 0.58936 0.49692 1.0804 0.29081 0.80911 0.2137 0.79715 0.11431 0.66794 0.041284 0.64415-0.055503 0.69709-0.18176 0.64194-0.51497 0.84061-0.58551 0.63483-0.83815 0.78019-1.217 1.0244-2.5487 2.0241-0.8495 0.73155-0.83748 0.80404-1.0054 1.1123-0.83468 1.0504-0.67122 0.94505-0.38889 0.60312-0.53747 0.93373-0.45593 0.91797-0.36948 0.90264-0.25586 0.87669-0.11232 0.68621-0.046834 0.8254 0.051164 0.59415 0.12117 0.59004 0.13614 0.45686 0.41424 1.0854 0.30766 0.63718 0.36015 0.63097 1.2899 1.933 0.67372 1.1476 0.40852 0.80729 0.42826 0.91995 0.29203 0.69901 0.28317 0.79494 0.19001 0.65105 0.12786 0.53685 0.11655 0.64276 0.10621 0.97329 0.1165 1.9082 0.12745 0.9846 0.086691 0.47621 0.22979 0.9258 0.29657 0.92901 0.49794 1.3319 0.45521 1.0501 1.5063 3.1843 1.0867 2.6623 0.38284 0.88086 0.78736 1.6587 0.79984 1.4813 0.62954 1.0693 0.66028 1.0602 1.393 2.0851 0.72783 1.0176 0.7699 1.0195 0.79936 0.98172 0.83894 0.92839 0.88702 0.85592 0.99968 0.82347 0.6467 0.47338 0.86003 0.58289 1.1684 0.69605 1.081 0.49264 0.84186 0.26416 1.2416 0.27839 1.1004 0.19651 3.2098 0.50223 3.0557 0.58639 0.56895 0.13699 0.61271 0.18262 0.4596 0.17237 0.5293 0.24723 0.64801 0.37235 1.0735 0.73167 2.9426 2.0806 1.0624 0.8116 1.0882 0.92222 0.94317 0.91367 0.63531 0.68532 0.36758 0.43712 0.14796 0.19704 0.13811 0.27632-0.20658 0.19773-0.96528 0.66747-0.73934 0.43047-1.0736 0.52354-1.1532 0.41963-1.1941 0.24808-0.92491 0.043429-0.92922-0.06168-0.92986-0.13304-3.9342-0.77861-0.95133-0.26486-0.9288-0.31709-0.89892-0.35134-1.2164-0.53327-1.302-0.64889-0.95045-0.42004-0.27536-0.08566-0.51386-0.084016-0.45911 0.052002-0.41575 0.22207-0.3292 0.31916-0.27716 0.38247-0.28865 0.61775-0.18645 0.67669-0.13493 0.83845-0.05767 0.68831 0.00377 0.83968 0.055019 0.61824 0.063447 0.42338 0.19022 0.88303 0.41021 1.4669 0.22959 0.72542 0.29018 0.77667 0.57769 1.3576 0.10844 0.31328 0.074113 0.30497 0.024364 0.26802-0.036069 0.27646-0.10191 0.24477-0.15985 0.22426-0.13756 0.14019-0.38112 0.26214-0.24596 0.10545-0.49603 0.13806-0.89003 0.15511-1.9291 0.24658-1.6254 0.26194-1.9547 0.18304-0.81012 0.12178-0.49697 0.11444-0.57674 0.17028-1.4654 0.54946-0.5583 0.18702-0.63286 0.17285-0.38074 0.06294-0.24143-0.16004-0.52419-0.50871-0.88104-0.93869-0.70522-0.82834-0.45343-0.59252-0.43191-0.62709-0.46498-0.73982-0.3897-0.68875-0.43439-0.91447-0.32369-0.8889-1.0552-4.2533-0.18286-0.65725-0.229-0.6586-0.29543-0.67167-0.54672-1.0613-0.61931-1.0931-2.0728-3.4717-1.3385-2.1614-2.6339-4.0844-2.1685-3.2815-1.6245-2.3891-1.6715-2.3391-0.86296-1.1263-0.88011-1.0635-0.904-0.97428-0.93702-0.8493-0.98216-0.67675-1.043-0.44179-1.0112-0.15382-1.0595 0.040412-1.0918 0.1811-1.1101 0.27836-1.1928 0.37333-1.1703 0.45308-1.1177 0.54909-1.0558 0.66566-0.74392 0.5488-1.9527 1.5923-0.50099 0.35192-0.26789 0.15522-0.43927 0.20692-0.55474 0.18291-0.61517 0.1066-0.4962 0.017741-0.40658-0.022731-0.44288-0.063793-0.43452-0.10521-0.49045-0.17024-0.33454-0.14843-1.4953-0.82025-0.4304-0.20308-0.50815-0.19628-1.1311-0.31646-1.2341-0.21168-1.2455-0.10403-1.0589-0.011251-0.65467 0.025728-0.99787 0.082999-0.99563 0.1216-3.5264 0.50216-2.216 0.20428-2.0131 0.1028-2.3868 0.068509-1.8658-0.024557-1.758-0.10995-1.1556-0.12308-0.83565-0.11947-0.98545-0.18075-1.5397-0.37225-1.5722-0.45083-0.77454-0.25486-0.76804-0.27738-1.23-0.50231-0.60927-0.27964-0.95585-0.48183-1.6842-0.94613-2.4764-1.5221-0.99933-0.65692-1.1071-0.76991-2.088-1.5001-1.0594-0.72725-0.55374-0.34571-0.86846-0.45476-0.72101-0.28342-0.61032-0.18832-0.73623-0.18468-2.7889-0.5779-0.77004-0.21338-0.73703-0.27476-0.24347-0.11297-0.84918-0.49268-0.8285-0.58889-1.7861-1.4035-1.5681-1.3514-2.384-2.1819-1.3203-1.1725-1.3386-1.1339-1.2413-0.99062-1.225-0.8976-1.5434-1.0178-0.93324-0.50537-0.33205-0.14725-0.78227-0.29004-0.85489-0.24295-0.8248-0.16532-1.0705-0.1541-1.0483-0.084283-1.2447-0.001999-0.83152 0.050736-0.89522 0.13222-1.0202 0.28524-1.1304 0.47048-1.1224 0.59881-1.1342 0.7146-0.77449 0.54307-0.72662 0.54784-1.9609 1.6284-0.25001-0.27819-0.29392-0.78645-0.33428-1.4379-0.1721-1.3381-0.095243-1.2669-0.18571-3.3886-0.13395-1.2742-0.14919-0.91799-0.20983-0.92105-0.30858-0.98636-0.15172-0.39357-0.27287-0.61263-0.45848-0.8425-0.57088-0.84002-0.41003-0.52348-0.57519-0.66289-1.0445-1.051-0.9445-0.86428-2.7044-2.2778-0.49654-0.50899-0.31858-0.43399-0.3233-0.7475-0.11283-0.60206-0.033569-0.5802 0.01837-0.86999 0.11993-0.99771 0.10867-0.50417 0.27878-0.94044 0.37295-0.9315 0.39315-0.83874 0.62225-1.2058 1.2017-2.2169 0.47991-0.80281 0.6065-0.8952 0.50588-0.63985 0.82248-0.919 1.4777-1.5288 0.61281-0.66493 0.68427-0.84168 0.60806-0.95849 0.29897-0.63784 0.54116-1.3727 0.33476-0.7147 0.31181-0.5162 0.55847-0.73825 1.5462-1.7352 0.62498-0.76183 0.58626-0.79251 0.53095-0.81478 1.0949-1.8925 1.6698-2.6481 0.54958-1.0599 0.38601-1.06 0.25757-1.1185 0.12987-1.16-0.006023-1.1862-0.11572-0.98508-0.21492-0.9862-0.21424-0.70529-0.45832-1.1724-0.47136-0.98271-0.53728-0.97383-0.65098-1.0471-0.43464-0.63869-0.7451-1.0027-0.59384-0.72836-1.1601-1.3027-1.712-1.8585-0.64529-0.7488-1.0802-1.3278-1.3528-1.7721-1.0475-1.4321-0.38072-0.56748-0.098902-0.23984 0.10443 0.051495 0.48933 0.095015 1.2911 0.1323 0.85324 0.025514 0.80349-0.019606 0.68618-0.051858 0.62603-0.075892 0.77062-0.1289 0.74792-0.15655 1.0385-0.2577 1.0887-0.32114 1.0105-0.36196 1.1137-0.51494 0.85235-0.53405 0.81651-0.70846 0.6158-0.75148 0.61039-1.1078 0.43676-1.2186 0.30811-1.2959 0.21322-1.3482 0.14257-1.3819 0.088402-1.4018 0.044314-1.4111 0.004889-1.412-0.034693-1.4052-0.079005-1.3909-0.13271-1.3683-0.10721-0.78112-0.20347-1.1111-0.28627-1.1583-0.27279-0.91672-1.0313-3.0335-0.39255-1.0741-0.46064-1.0488-0.64624-1.1207-0.8879-1.0896-0.94359-0.8484-0.47932-0.35022-1.1194-0.70237-1.1909-0.64214-4.8306-2.307-1.0545-0.57496-0.90587-0.59698-0.48674-0.41769-0.37857-0.46452-0.25693-0.51169-0.12814-0.61176 0.029459-0.6336 0.1771-0.63058 0.45311-0.81502 0.62896-0.76475 0.7314-0.71209 0.55974-0.46921 0.28598-0.20647 0.72312-0.42456 0.77211-0.33409 0.34104-0.11407 0.45621-0.12058 0.65842-0.11177 2.2463-0.21132 2.2928-0.052465 0.77388-0.082604 0.59722-0.13731 0.55786-0.20581 0.37894-0.19906 0.45864-0.34445 0.39971-0.43191 0.37282-0.57722 0.31915-0.69118 0.26043-0.75983 0.18192-0.67847 0.30795-1.5563 0.5038-3.5668 0.25725-1.35 0.27834-0.92847 0.99706-2.351 0.2394-0.65915 0.24655-0.78787 0.19032-0.68996 0.2933-1.3499 0.11336-0.73918 0.062912-0.7519 0.003253-0.78698-0.037655-0.63197-0.051138-0.51571-0.18873-1.2221-0.17499-0.80424-0.21205-0.80407-0.29296-0.94897-0.42589-1.2119-0.79087-2.009-3.4119-8.3594-0.5492-1.221-0.58318-1.1895-0.61782-1.1401-0.59813-1.0245-0.77528-1.4765-0.52244-1.114-1.0454-2.411-0.3767-0.94072-0.60082-1.6582-0.69858-2.1922-1.0804-3.5607-0.2519-0.71573-1.5058-6.0029-1.1114-5.0149-0.091637-0.57118-0.025189-0.54396 0.028432-0.2506 0.18458-0.72664 0.025677-0.34942-0.03738-0.19042 0.11648-0.064686 0.28923-0.10126 0.41383-0.11762 0.69281-0.1545 0.78155-0.113 1.0304-0.042899 1.2168 0.047502 1.2403 0.13571 2.1686 0.41109 1.0551 0.17353 0.9537 0.12073 1.7047 0.16692 0.9211 0.1172 0.57598 0.099309 0.44307 0.14216 0.41603 0.20966 0.36715 0.26268 1.062 0.9067 0.34007 0.22742 0.74882 0.39437 0.4855 0.17952 1.4534 0.3857 0.43584 0.09145 0.65405 0.077548 1.2073 0.016832 3.3028-0.095689 1.5577 0.011448 0.76695 0.035355 0.7737 0.059655 1.2795 0.15449 3.0623 0.49171 0.81552 0.11008 1.5166 0.13062 0.82952 0.017047 0.73072-0.027315 0.65231-0.091236 0.13467-0.045743 0.072611-0.079388" stroke="#bdc660"/>
    </defs>
    <g clip-path="url(#paebf5bb3f8)">
     <use y="280.512" fill="#bdc660" stroke="#bdc660" xlink:href="#m6955306945"/>
    </g>
   </g>
  </g>
 </g>
 <defs>
  <clipPath id="paebf5bb3f8">
   <rect x="7.2" y="7.2" width="182.8" height="266.11"/>
  </clipPath>
 </defs>
</svg>
