<?xml version="1.0" encoding="UTF-8"?>
<!DOCTYPE svg  PUBLIC '-//W3C//DTD SVG 1.1//EN'  'http://www.w3.org/Graphics/SVG/1.1/DTD/svg11.dtd'>
<svg width="164.34pt" height="280.51pt" version="1.1" viewBox="0 0 164.34 280.51" xmlns="http://www.w3.org/2000/svg" xmlns:xlink="http://www.w3.org/1999/xlink">
 <metadata>
  <rdf:RDF xmlns:cc="http://creativecommons.org/ns#" xmlns:dc="http://purl.org/dc/elements/1.1/" xmlns:rdf="http://www.w3.org/1999/02/22-rdf-syntax-ns#">
   <cc:Work>
    <dc:type rdf:resource="http://purl.org/dc/dcmitype/StillImage"/>
    <dc:date>2024-07-04T12:08:21.292262</dc:date>
    <dc:format>image/svg+xml</dc:format>
    <dc:creator>
     <cc:Agent>
      <dc:title>Matplotlib v3.7.1, https://matplotlib.org/</dc:title>
     </cc:Agent>
    </dc:creator>
   </cc:Work>
  </rdf:RDF>
 </metadata>
 <defs>
  <style type="text/css">*{stroke-linejoin: round; stroke-linecap: butt}</style>
 </defs>
 <g id="figure_1">
  <g id="patch_1">
   <path d="m0 280.51h164.34v-280.51h-164.34v280.51z" fill="none"/>
  </g>
  <g id="axes_1">
   <g id="PatchCollection_1">
    <defs>
     <path id="m3df0ef8068" d="m111.11-259.31-0.02302 0.066654 0.072138 0.17968 0.37053 0.38194 0.349 0.26342 1.6807 1.0986 0.80454 0.56298 0.72015 0.59481 0.57196 0.54785 1.0309 1.1039 0.38992 0.46923 2.2781 2.9628 1.0794 1.6232 0.57511 0.92136 0.68039 1.1843 1.8445 3.4712 1.6168 3.1819 0.98653 1.7606 0.91863 1.4911 1.8402 2.796 0.43872 0.62972 0.62349 0.72017 0.54142 0.50009 4.0703 3.4689 1.1512 0.93446 0.6475 0.46962 0.68778 0.40003 0.81782 0.35581 2.5076 0.90638 1.4081 0.59191 1.1753 0.61002 1.0544 0.71111 2.1673 1.6985 2.3189 1.6064 0.69916 0.53926 0.56823 0.52263 0.2938 0.34392 0.18916 0.29466 0.043082 0.28673 0.030056 0.075549-0.03546 0.084198-0.3674 0.3644-0.66061 0.49064-1.8397 1.2255-1.7409 1.032-4.7126 2.63-1.0524 0.62683-1.2179 0.79062-0.85054 0.6198-0.97999 0.83663-0.50952 0.53176-0.72561 0.97154-0.61761 1.0225-0.62043 1.1146-0.55061 1.1563-0.41152 1.2161-0.23504 1.3882-0.085659 1.4463-0.069108 2.9439-0.14596 1.4415-0.23386 1.0917-0.35568 1.0353-0.70182 1.3462-1.6426 2.4931-0.41202 0.69952-1.849 3.3536-0.34898 0.82868-0.19874 0.55996-0.35637 1.1411-0.1578 0.7479-0.049912 1.0946 0.19653 2.3981-0.068707 0.94336-0.24356 0.61786-0.33698 0.45856-1.0582 1.1336-0.64212 0.83129-0.54351 0.9847-0.2352 0.65421-0.19174 0.78547-0.18182 1.1739-0.24468 2.05-0.14923 0.88125-1.0573 4.1299-0.38547 1.8777-0.11181 0.9973-0.021634 0.5803 0.081824 1.1952 0.25156 1.1735 0.32581 0.93842 0.65112 1.4894 0.44286 0.90798 1.3996 2.6388 0.71747 1.4351 0.93559 2.0718 0.40191 0.97917 0.58325 1.5635 0.49384 1.5002 0.43457 1.5255 0.36231 1.5547 0.27184 1.5817 0.18091 1.7533 0.095269 1.7745 0.11715 3.5699 0.11327 1.7656 0.21067 1.7249 0.28533 1.4475 0.35631 1.3815 1.231 4.2148 0.20386 0.77126 0.11289 0.57169-0.013802 0.36715-0.16651 1.3827-0.18296 2.3713-0.22078 1.4346-0.25849 0.86048-0.10854 0.26127-0.17848 0.36423-0.52266 0.82576-0.645 0.7533-0.62569 0.5706-0.40521 0.31594-0.541 0.36901-0.80574 0.46752-1.9368 1.0652-0.77208 0.51562-1.3705 1.0647-1.0216 0.89566-0.53706 0.51577-1.0926 1.1962-0.54845 0.69348-0.56306 0.78606-0.5038 0.7801-0.43089 0.75092-0.24516 0.48331-0.42028 1.0027-0.28532 0.97165-0.15448 0.9504-0.025359 0.74663 0.1824 1.3241 0.28424 0.92573 0.41264 0.94816 0.68562 1.1879 0.81884 1.1443 0.88056 1.0379 1.153 1.2032 0.82064 0.99058 0.73602 1.0486 0.58898 0.973 0.2745 0.52017 0.30962 0.72572 0.22338 0.73979 0.13811 0.93271-0.052683 0.90676-0.36669 1.102-1.2353 2.2503-0.42846 0.8615-2.159 4.555-4.055 8.713-1.7587 3.6824-16.73 34.276-3.2579 1.0264-4.6641 1.523-2.1371 0.65845-2.058 0.55027-6.082 1.5403-1.4487 0.46162-0.81828 0.31875-1.2206 0.54097-2.4462 1.1833-0.87833 0.48998-2.4629 1.5082-0.99136 0.51462-0.35711 0.11992-0.30028 0.063767-0.3293 0.026642-0.3147-0.020389-0.31814-0.069424-0.38376-0.15622-0.33982-0.21497-0.3067-0.26652-0.26362-0.29716-0.40312-0.62331-0.41428-0.9598-0.31774-1.095-0.24038-1.194-0.17665-1.2651-0.12168-1.3612-0.24773-5.8498-0.15725-2.5391-0.14214-1.5301-0.21105-1.4978-0.18218-0.91259-0.21543-0.83388-0.41149-1.2515-1.0147-2.7531-0.56457-1.3865-0.60963-1.3533-0.66002-1.2795-0.71169-1.155-0.46164-0.63469-0.68223-0.83659-0.61993-0.62728-0.49068-0.31565-0.17072-0.00716-0.085436 0.10788-1.8163-4.086-1.1415-2.3629-1.2578-2.2809-1.2157-2.0037-0.92766-1.4198-2.1009-3.0735-2.4351-3.7712-1.0287-1.5217-1.6059-2.1558-3.8299-4.9546-1.4854-2.0236-0.68295-1.0302-0.50799-0.90664-0.68042-1.495-0.42448-1.1874-1.0195-3.1655-0.9312-2.6534-0.41081-1.2991-0.45617-1.6599-0.2532-1.169-0.16205-1.1822-0.043939-1.1324 0.13974-2.591-0.00957-0.60771-0.12169-1.5272-0.44073-3.3845-0.1845-1.8397-0.15207-2.6693-0.004351-2.0707 0.050833-1.0078 0.17476-1.6252 0.25897-1.4218 0.30206-1.1782 0.20132-0.61459 0.40245-1.0035 0.45166-0.97971 0.58547-1.2099 1.4845-2.9037 0.64657-1.4405 0.33832-0.88743 0.2408-0.79343 0.16231-0.71553 0.15304-0.90731 0.11932-1.0818 0.083824-1.2494 0.001701-1.7778-0.086079-1.8852-0.18535-2.0197-0.27103-2.0901-0.37309-2.2355-0.30608-1.4951-0.46567-1.9635-0.39692-1.5173-0.42878-1.5343-0.35157-1.1258-0.44235-1.2019-1.8329-4.1002-0.41822-0.69562-0.41391-0.54757-1.5913-1.8503-0.60316-0.89163-0.59689-1.015-0.91587-1.6412-1.6753-3.1514-2.9053-5.7621-1.6255-3.1172-0.85845-1.5111-0.90772-1.4755-1.2685-1.8538-0.96259-1.2414-1.3885-1.6172-1.5583-1.6681-0.64867-0.74181 0.15205-0.075562 0.12841-0.16924 0.24529-0.57468 0.13723-0.68215 0.14362-1.5728 0.098103-0.46515 0.25212-0.6868 0.42921-0.79624 0.65269-0.97749 0.8617-1.1617 1.098-1.3361 1.3231-1.4595 2.8276-2.9836 2.4079-2.3915 1.4922-1.4323 0.90947-0.84024 0.89066-0.7503 2.9542-2.2421 1.1553-0.92817 0.97599-0.8862 0.74036-0.7951 0.30645-0.37813 0.59398-0.83401 1.1815-1.9103 0.75983-1.3863 1.134-2.2373 0.40395-0.85286 0.50274-1.2217 0.3212-1.0485 0.10697-0.49619 0.013161-0.24414 0.49455-0.16426 1.1739-0.53439 1.5773-0.7715 1.7962-0.9288 1.893-1.0393 1.9085-1.1258 2.4519-1.6078 0.7881-0.56694 3.3729-2.5669 1.681-1.1954 0.98007-0.61893 1.7692-0.95757 1.8208-0.80845 1.6717-0.60866 1.6943-0.49658 1.7115-0.37818 1.9994-0.27148 1.3649-0.079184 1.1779-0.01941 5.2952 0.10302 1.776-0.014223 1.5421-0.068211 1.8195-0.17472 0.82259-0.11565 1.5865-0.29737 1.4916-0.39351 0.93181-0.28975 1.0734-0.38853 0.86675-0.3865 0.56293-0.30259 0.61408-0.40617 0.76021-0.68795 0.63947-0.76115 0.45207-0.63966 0.44469-0.82476 0.25364-0.71128 0.18059-0.77797 0.1215-0.93229 0.038334-0.89857-0.048848-1.2167-0.15856-1.2454-0.27142-1.2518-0.38093-1.2429-1.0829-2.9091-0.33347-0.93834-0.24744-0.8155-0.18763-0.80235-0.16348-1.3204 0.060798-1.45 0.28024-1.1256 0.2247-0.51008 0.49449-0.76085 0.58465-0.64355 0.6695-0.57875 1.2792-0.86166 1.4058-0.73322 1.2667-0.53172 1.1309-0.39261 1.4469-0.40004 1.0181-0.2126 1.4464-0.20457 1.6755-0.097619 1.1339 0.016012 1.3391 0.10441 1.4262 0.20705 1.4223 0.29565 1.2369 0.3247 1.5277 0.48757 0.83197 0.31782 0.26666 0.14935" stroke="#bdc660"/>
    </defs>
    <g clip-path="url(#pf12486ad4a)">
     <use y="280.512" fill="#bdc660" stroke="#bdc660" xlink:href="#m3df0ef8068"/>
    </g>
   </g>
  </g>
 </g>
 <defs>
  <clipPath id="pf12486ad4a">
   <rect x="7.2" y="7.2" width="149.94" height="266.11"/>
  </clipPath>
 </defs>
</svg>
