<?xml version="1.0" encoding="UTF-8"?>
<!DOCTYPE svg  PUBLIC '-//W3C//DTD SVG 1.1//EN'  'http://www.w3.org/Graphics/SVG/1.1/DTD/svg11.dtd'>
<svg width="269.17pt" height="280.51pt" version="1.1" viewBox="0 0 269.17 280.51" xmlns="http://www.w3.org/2000/svg" xmlns:xlink="http://www.w3.org/1999/xlink">
 <metadata>
  <rdf:RDF xmlns:cc="http://creativecommons.org/ns#" xmlns:dc="http://purl.org/dc/elements/1.1/" xmlns:rdf="http://www.w3.org/1999/02/22-rdf-syntax-ns#">
   <cc:Work>
    <dc:type rdf:resource="http://purl.org/dc/dcmitype/StillImage"/>
    <dc:date>2024-07-04T12:08:26.263144</dc:date>
    <dc:format>image/svg+xml</dc:format>
    <dc:creator>
     <cc:Agent>
      <dc:title>Matplotlib v3.7.1, https://matplotlib.org/</dc:title>
     </cc:Agent>
    </dc:creator>
   </cc:Work>
  </rdf:RDF>
 </metadata>
 <defs>
  <style type="text/css">*{stroke-linejoin: round; stroke-linecap: butt}</style>
 </defs>
 <g id="figure_1">
  <g id="patch_1">
   <path d="m0 280.51h269.17v-280.51h-269.17v280.51z" fill="none"/>
  </g>
  <g id="axes_1">
   <g id="PatchCollection_1">
    <defs>
     <path id="maecfcc28bc" d="m27.546-254.17 0.4803 0.45611 1.2901 1.0188 1.815 1.352 2.1537 1.524 2.2522 1.5139 11.088 7.1665 3.1659 2.12 3.9447 2.7224 3.6887 2.6763 7.0332 5.3098 4.3625 3.1019 4.3018 2.8679 4.0384 2.5273 4.1035 2.3679 2.0867 1.1035 4.002 1.9211 2.304 1.0271 3.8348 1.5951 7.556 2.8268 2.4516 1.0179 2.3713 1.1604 1.9313 1.1388 1.8647 1.2626 1.8123 1.3599 1.7708 1.4364 1.4441 1.2382 2.8337 2.5725 2.6723 2.568 3.3547 3.3748 4.5009 4.6579 4.6946 4.9719 3.1834 3.4736 3.6946 4.2195 1.8112 2.2106 1.5478 2.0427 1.1079 1.7039 0.52643 1.0564 1.3442 3.2309 0.49164 0.957 0.72743 1.1261 0.66514 0.86504 0.83224 0.91615 1.7899 1.6943 0.96697 0.76622 1.3612 0.83666 2.1154 0.99553 2.051 0.83842 1.0262 0.37257 2.3154 0.70698 1.8486 0.47389 5.8812 1.0552 1.1851 0.28734 1.1686 0.35465 1.2152 0.45056 1.4578 0.70874 0.68352 0.38001 4.379 2.6516 1.6712 0.95199 2.1265 1.0733 6.4851 2.8743 2.0113 0.9495 1.8285 0.99794 0.98539 0.64242 2.6757 2.1863 1.0194 0.75612 1.0863 0.71178 1.0195 0.59708 0.90209 0.64501 0.48567 0.51441 0.30374 0.4394 0.27771 0.56864 0.17521 0.59193 0.13406 1.1727 0.008159 1.8569-0.13175 3.1017 0.030194 1.3389 0.11404 1.3928 0.17344 1.4161 0.32889 1.9226 0.29395 1.094 0.35532 0.93035 0.94863 1.6046 0.73324 0.83902 0.37335 0.3527 1.2218 0.93546 0.66052 0.40546 1.1007 0.56936 1.8508 0.75905 2.2646 0.70848 2.6247 0.59111 1.6536 0.2433 1.053 0.09286 4.4564 0.21289 1.7565 0.20649 1.2799 0.27359 1.146 0.32624 1.1471 0.41964 1.1671 0.53736 0.88728 0.47937 1.0705 0.67513 0.86423 0.64241 0.85573 0.71296 1.1762 1.0844 2.8178 2.8383 1.5373 1.4576 1.3413 1.1434 3.0134 2.3235 1.6129 1.3201 1.4236 1.2568 1.1079 1.1026 0.666 0.7896 0.48345 0.67771 2.7096 4.1331 0.39278 0.7872 0.20529 0.5426 0.16718 0.59431 0.12977 0.88484-0.018321 1.2049-0.15347 1.0345-0.25515 1.0149-0.57842 1.625-0.67781 1.4594-0.72505 1.2617-0.70835 1.0184-1.2734 1.5098-0.74782 0.77523-3.7248 3.5077-4.1681 4.1287-0.72301 0.60669-0.7879 0.55565-0.71415 0.41431-0.76479 0.36814-1.3247 0.46128-1.2731 0.24973-0.94418 0.091041-1.8522 0.021219-4.3707-0.30803-1.2737-0.043487-2.1166 0.066824-2.4309 0.2158-2.2061 0.36972-1.4214 0.40868-1.3765 0.60978-0.90575 0.56212-0.72695 0.576-0.7419 0.76596-0.49009 0.66703-0.30273 0.52245-0.39622 0.93757-0.28309 1.2231-0.012639 1.9313 0.37588 1.9585 0.62287 1.8194 0.70312 1.453 0.58181 0.76928 0.086432 0.036333-0.92078 1.2939-1.0655 1.3668-1.3037 1.524-0.91453 0.97065-1.4048 1.3519-1.6813 1.4253-1.9352 1.3722-0.82377 0.50966-3.12 1.7227-2.7237 1.3923-2.0688 0.94607-1.4158 0.59416-1.2401 0.43586-1.2603 0.36459-1.0742 0.25169-1.9456 0.26522-1.3936 0.03382-1.0868-0.077442-1.673-0.27851-2.1602-0.54075-5.7179-1.8813-2.113-0.46435-1.7297-0.1078-1.4234 0.13181-0.79604 0.15196-1.2232 0.336-0.76808 0.27052-1.996 0.86558-2.8676 1.4651-3.2829 1.8564-3.2343 1.9497-3.6071 2.3022-2.3182 1.6211-3.1916 2.3629-2.4807 1.7564-1.0182 0.62854-1.0413 0.56054-1.9756 0.88298-1.9742 0.73782-1.1683 0.35887-1.7807 0.41727-0.60152 0.10196-1.9938 0.19215-1.7254 0.017049-2.67-0.13236-1.6354-0.1857-1.5449-0.27734-1.1027-0.28336-1.0101-0.38939-1.4142-0.93325-0.9465-0.94702-0.92847-1.1017-0.70537-0.91682-1.1608-1.7694-0.82442-1.4133-1.5219-2.8366-1.339-2.6944-1.2044-2.6441-0.54662-1.3107-0.79826-2.1071-2.4849-7.3089-0.56351-1.5334-0.64226-1.5591-0.48889-1.0353-0.72347-1.2436-0.37064-0.49209-0.39415-0.41054-0.36176-0.2768-0.31089-0.16536-0.39214-0.1183-0.34132-0.023967-0.30177 0.034619-0.68077 0.24669-0.78381 0.52224-0.82337 0.71481-1.0222 1.1154-0.8384 1.1282-2.2911 3.4404-0.6052 0.77209-0.46658 0.49946-0.36963 0.32527-0.39322 0.26981-0.54427 0.23579-0.23056 0.048276-0.9781-0.10976-0.67168-0.29422-0.81531-0.51422-0.68886-0.52363-3.0743-2.5653-1.496-1.0994-0.96493-0.63146-1.9631-1.0887-4.7426-2.3915-1.5595-0.71983-1.7688-0.63056-0.96148-0.22354-0.8511-0.13166-1.5418-0.12809-2.9762-0.10087-1.8863-0.12515-1.6368-0.21558-1.1153-0.24844-0.88344-0.28141-0.69646-0.29365-1.1189-0.64703-0.71696-0.5663-0.61052-0.6052-0.72808-0.9207-0.45069-0.7253-0.38766-0.75014-0.47133-1.0708-0.36615-1.0069-0.31189-1.0902-0.19077-0.92426-0.14436-1.4359 0.059192-1.4479 0.17786-1.0731 0.39009-1.455 1.0029-3.0535 0.27148-0.95505 0.18859-0.77962 0.2739-1.5157 0.16894-2.0435-0.029322-1.3509-0.1696-1.4516-0.34577-1.6137-0.47716-1.6202-0.78695-2.2365-0.93983-2.3706-0.70729-1.5947-2.0777-4.195-3.4182-6.2802-1.8316-3.4879-1.6085-3.3157-0.51766-1.2005-0.1163-0.36061 0.016157-0.083634 0.098338 0.023593 0.14563-0.063921 0.20416-0.18358 0.28011-0.36124 0.54669-0.92089 0.41335-0.82378 0.32141-0.75668 0.47267-1.4924 0.40112-2.052 0.18929-1.9875 0.032969-2.0053-0.06472-1.4418-0.13762-1.4575-0.3141-2.0298-0.18889-0.90933-0.28731-1.1804-0.45597-1.5861-0.33818-1.0275-1.0238-2.6656-1.1695-2.6125-1.2597-2.5645-3.3145-6.3605-2.1418-4.273-1.0561-2.3236-0.9009-2.2874-0.67886-2.2478-0.37206-2.2019 0.042458-2.1465 0.554-2.1238 0.96572-2.0801 1.2507-2.0604 1.4345-2.0627 5.1265-7.0187 4.9029-7.0697 2.7209-4.0639 1.2719-2.0239 1.1742-2.0161 1.0374-2.0057 0.85032-1.9922 0.47405-1.4446 0.29004-1.1214 0.20062-1.1174 0.083308-1.5053-0.082848-1.0143-0.25751-1.2811-0.41826-1.2876-0.47278-1.0949-0.95342-1.772-0.99132-1.5838-1.1748-1.7536-2.8811-4.1768-2.8333-3.9045-6.721-8.6456-2.3799-3.1524-6.5305-8.9515-5.4235-7.2942-2.2701-3.1499-1.8919-2.7561-1.5611-2.4232-1.5796-2.6191-1.8749-3.4142-0.6788-1.4586-0.046895-0.23916 8.766 7.0509" stroke="#bdc660"/>
    </defs>
    <g clip-path="url(#p6f0131305e)">
     <use y="280.512" fill="#bdc660" stroke="#bdc660" xlink:href="#maecfcc28bc"/>
    </g>
   </g>
  </g>
 </g>
 <defs>
  <clipPath id="p6f0131305e">
   <rect x="7.2" y="7.2" width="254.77" height="266.11"/>
  </clipPath>
 </defs>
</svg>
