<?xml version="1.0" encoding="UTF-8"?>
<!DOCTYPE svg  PUBLIC '-//W3C//DTD SVG 1.1//EN'  'http://www.w3.org/Graphics/SVG/1.1/DTD/svg11.dtd'>
<svg width="249.71pt" height="280.51pt" version="1.1" viewBox="0 0 249.71 280.51" xmlns="http://www.w3.org/2000/svg" xmlns:xlink="http://www.w3.org/1999/xlink">
 <metadata>
  <rdf:RDF xmlns:cc="http://creativecommons.org/ns#" xmlns:dc="http://purl.org/dc/elements/1.1/" xmlns:rdf="http://www.w3.org/1999/02/22-rdf-syntax-ns#">
   <cc:Work>
    <dc:type rdf:resource="http://purl.org/dc/dcmitype/StillImage"/>
    <dc:date>2024-07-04T12:08:13.982524</dc:date>
    <dc:format>image/svg+xml</dc:format>
    <dc:creator>
     <cc:Agent>
      <dc:title>Matplotlib v3.7.1, https://matplotlib.org/</dc:title>
     </cc:Agent>
    </dc:creator>
   </cc:Work>
  </rdf:RDF>
 </metadata>
 <defs>
  <style type="text/css">*{stroke-linejoin: round; stroke-linecap: butt}</style>
 </defs>
 <g id="figure_1">
  <g id="patch_1">
   <path d="m0 280.51h249.71v-280.51h-249.71v280.51z" fill="none"/>
  </g>
  <g id="axes_1">
   <g id="PatchCollection_1">
    <defs>
     <path id="me80d393dfe" d="m118.42-261.2 0.21988 0.25061 0.11047 0.36978 0.35003 1.6508 0.55205 2.3262 0.87968 4.4721 0.357 1.4773 1.2134 4.6759 0.1304 0.4433 0.47662 1.2737 0.61444 1.1159 0.30037 0.40613 0.99662 1.1445 2.2183 2.7145 0.82364 0.92931 1.9391 2.003 0.76926 0.87073 0.81053 0.99606 1.0897 1.4586 0.58312 0.8537 1.0334 1.6551 0.75159 1.3984 0.69192 1.4334 0.4107 0.97312 0.35857 0.95652 0.45736 1.3525 0.31845 1.0485 0.27312 1.0394 0.4767 2.0755 0.32592 1.0613 1.2541 3.5972 0.35182 1.1794 0.28697 1.1748 0.35905 1.9204 0.31996 1.4052 0.28241 1.0474 0.47037 1.3177 0.58925 1.3356 0.83464 1.6547 3.4584 6.4325 0.73108 1.2612 2.9059 4.5048 0.99878 1.6225 1.4898 2.5141 0.90054 1.3846 0.75802 1.0045 1.4218 1.7496 0.71906 0.8049 0.64438 0.56843 0.59171 0.33322 0.66763 0.18174 0.49528 0.020653 0.46486-0.049209 0.42956-0.092623 0.82196-0.27721 1.1765-0.5685 1.9865-1.1559 1.2203-0.65128 0.43663-0.1666 0.13701-0.014516 0.082885 0.04554-0.052099 0.062162-0.006174 0.3187 0.0721 0.48926 0.21726 0.94794 0.45423 1.5833 0.59022 1.7976 1.0191 2.7708 0.56449 1.411 1.3615 3.1252 0.94336 1.988 2.9683 5.995 1.5184 3.1337 5.6865 12.24 1.9267 3.8858 1.4835 2.7044 0.79602 1.327 1.1746 1.794 0.78447 1.0968 0.70052 0.91726 0.72691 0.89227 1.3836 1.5327 1.0756 1.0407 0.67347 0.5866 1.2709 1.0014 1.8583 1.2939 1.7151 1.0934 6.2002 3.6974 1.6203 1.0119 1.7246 1.1309 1.4982 1.0384 2.1943 1.6121 3.199 2.5126 1.2676 1.0609 1.5383 1.375 1.0157 0.98271 4.0856 4.1184 2.2569 2.1345 1.3902 1.2023 3.4016 2.767 1.8603 1.6328 1.7444 1.676 0.55697 0.63698 0.10695 0.22401-3.5148 4.5076-0.55562 0.78682-0.31794 0.54178-0.13112 0.28172-0.10985 0.30173-0.16192 0.62721-0.16687 0.97413-0.87542 6.8639-0.4128-0.16518-0.65434 0.18668-0.79539 0.44888-0.8417 0.64683-0.81242 0.79577-0.3206 0.37209-0.63732 0.85716-0.53254 0.92845-0.51794 1.3777-0.68852 2.9015-0.24153 0.86126-0.58321 1.3983-0.79797 1.2562-0.96511 1.1523-1.0605 1.0492-1.0936 0.93928-0.63009 0.48333-0.51767 0.34448-0.87213 0.46049-0.79438 0.33951-1.3246 0.47738-0.70773 0.1977-0.7373 0.13988-0.71434 0.047-0.73872-0.081209-0.59794-0.20573-0.59925-0.38462-0.51652-0.49196-0.68767-0.88199-0.44154-0.6828-0.83494-1.4858-1.1466-2.3483-1.547-3.566-2.1783-5.3004-0.55128-1.2282-0.59034-1.1686-0.40523-0.68744-0.53386-0.74374-0.57368-0.58621-0.35673-0.25846-1.0421-0.39387-0.7662-0.058334-0.83434 0.099579-0.7505 0.20324-0.8101 0.32007-1.178 0.62989-2.0842 1.4154-1.1979 0.85972-2.0311 1.5261-2.3905 1.9566-1.2482 1.1181-1.1626 1.1229-1.1999 1.2247-0.87602 0.82734-2.3106 1.9745-0.86783 0.82539-0.69471 0.86134-0.43594 0.89554-0.091061 0.46221 0.011977 0.55021 0.11918 0.5008 0.22411 0.51936 0.29037 0.48969 0.46901 0.62417 0.69477 0.7986 0.72304 0.74947 0.7738 0.71879 1.0929 0.93116 3.3363 2.7244 2.6125 2.0803 0.86642 0.79236 0.71288 0.81944 0.73473 1.0864 0.75865 1.3877 0.48766 1.1395 0.26705 0.88961 0.23487 1.1601 0.12758 1.146 0.035927 1.2805-0.022924 1.0528-0.058051 0.92663-0.3314 3.1975-0.062449 0.87457-0.014833 1.2901 0.10002 2.1135 0.009734 0.8611-0.074073 1.4641-0.21296 2.0393-0.11295 0.67345-0.27381 1.2054-0.34744 1.333-0.33888 1.1533-0.64346 1.7582-0.43789 1.0522-0.47625 1.0359-0.81415 1.4758-0.91971 1.3478-0.54593 0.71322-0.49319 0.57649-1.0275 0.99852-0.87095 0.71601-1.2542 0.92821-0.83089 0.5589-1.0514 0.63259-1.2874 0.67642-1.2932 0.61467-0.91352 0.40035-1.6443 0.6358-1.0617 0.33293-0.81944 0.19528-0.82346 0.13122-0.8529 0.044796-1.1402-0.15591-0.70855-0.29364-0.24415-0.34494 0.047401-0.11542 0.051557-0.75186-0.064708-1.4429-0.091285-0.91434-0.27502-1.5731-0.45324-1.6424-0.40381-1.089-0.24504-0.56314-0.277-0.57628-0.69026-1.2671-0.7208-1.1984-0.74944-1.1765-0.89766-1.3208-0.69836-1.1208-1.1316-1.986-1.2706-2.3708-0.61983-1.0893-0.7337-1.1562-0.49679-0.68704-0.47316-0.57702-0.45931-0.48914-0.78175-0.68665-1.2348-0.81176-1.0024-0.53807-2.469-1.1475-1.2531-0.50216-1.232-0.4142-0.88966-0.24233-0.92954-0.23333-0.96302-0.19272-1.1427-0.12292-1.1449-0.063423-1.0248 0.052223-0.80953 0.18068-0.53518 0.21618-1.1306 0.73009-1.0844 1.0085-1.0516 1.2104-1.0297 1.353-1.0171 1.4492-3.0573 4.5785-1.0492 1.5058-1.081 1.4459-0.89475 1.0912-0.91972 1.0161-0.9421 0.92282-0.98157 0.82053-1.0015 0.66875-1.0207 0.47824-1.0403 0.23925-1.2827-0.072452-1.3055-0.37754-1.3223-0.57218-2.6761-1.353-1.3458-0.60787-1.3458-0.44483-1.3412-0.18373-0.57795 0.025878-0.44157 0.061337-0.71432 0.16594-1.0226 0.35941-1.2306 0.57531-2.0299 1.0906-0.80402 0.38845-0.73462 0.26718-0.55272 0.1129-0.52339 0.015186-0.2871-0.040213-0.33018-0.098893-0.24104-0.11087-0.44792-0.29395-0.26363-0.22549-0.34571-0.35177-0.59158-0.75038-0.58401-0.96205-0.44905-0.98141-0.19092-0.53016-0.20366-0.72521-0.14998-0.95816-0.003904-0.70604 0.082943-0.62157 0.14066-0.56535 0.39964-1.0481 0.67796-1.2969 0.88971-1.3852 0.89386-1.2048 0.73659-0.87571 0.55019-0.57931 0.59659-0.54984 0.61695-0.47864 1.0262-0.62186 1.2032-0.65991 1.0191-0.68444 0.26976-0.21871 0.60263-0.57964 0.44723-0.55968 0.47278-0.87557 0.17272-0.56576 0.087018-0.673-0.006157-0.47973-0.062599-0.56284-0.14796-0.72828-0.25227-0.88358-0.55776-1.521-0.33974-0.79697-0.37984-0.82218-0.64936-1.2812-1.6027-2.8672-1.0878-2.0385-0.44464-0.93054-0.65043-1.5323-0.55518-1.5014-0.54485-1.6029-1.9237-6.044-0.48903-1.3537-0.42697-1.0668-0.35081-0.79264-0.63187-1.2509-0.59675-1.0386-1.7016-2.7843-1.2521-2.2447-0.58476-1.2382-0.40202-1.1887-0.083783-0.34931-0.14363-1.0152-0.099777-1.643-0.13952-1.024-0.16054-0.69549-0.2112-0.7227-0.71448-2.0902-0.54124-1.8287-0.45048-1.7452-0.30097-1.4028-0.3952-2.5357-0.29918-2.6925-0.19484-1.2887-0.44793-2.5389-0.13677-0.99627-0.074673-0.97634 0.003866-0.78788 0.077894-0.76584 0.14646-0.69238 0.26192-0.85564 0.73851-2.0694 0.22587-0.82579 0.11512-0.6124 0.12134-1.1587 0.032392-1.1998-0.041138-1.4151-0.096015-1.4186-0.25252-2.5106-0.26659-1.3527-0.40718-1.3191-0.55333-1.2438-0.71607-1.1202-0.90748-0.9387-0.7017-0.48381-0.79064-0.399-0.85978-0.32309-1.0622-0.2937-1.1235-0.2252-1.7258-0.23343-1.8003-0.14339-1.3689-0.058115-2.7976-0.009517-1.8548 0.066834-1.8682 0.12052-1.8762 0.17448-2.5132 0.33161-1.2585 0.21683-1.2882 0.26184-2.3649 0.59292-1.0755 0.3232-2.0301 0.71196-1.1301 0.45108-2.237 1.002-1.1021 0.55179-1.0787 0.58487-1.0586 0.62054-0.99936 0.63346-0.96806 0.66912-1.1724 0.9095-1.1859 1.0795-0.86746 0.93197-0.56774 0.694-0.65265 0.89489-0.45207 0.68861-1.1775 1.9489-0.15751 0.20438-0.11576-0.1996-0.27912-0.68896-1.5453-4.2036-1.3397-3.4656-1.4572-3.4748-1.5478-3.394-1.3238-2.6513-0.96752-1.8065-1.9755-3.4983-3.8527-6.6447-1.7282-3.129-0.76878-1.489-1.2094-2.586-0.57733-1.0777-0.47564-0.70128-0.70385-0.85191-0.70744-0.68067-0.83062-0.63074-0.85528-0.50996-0.54968-0.26685-0.82727-0.33828-1.809-0.65064-0.9789-0.40953-0.62379-0.32701-0.45701-0.31319-0.37157-0.34184-0.22949-0.2803-0.34851-0.62294-0.20206-0.69708-0.036027-0.70514 0.087792-0.55518 0.16667-0.56419 0.37113-0.90547 0.54242-0.9124 0.54715-0.66305 0.60448-0.59664 0.4684-0.40677 1.3088-0.98348 1.0944-0.71856 1.1444-0.69746 3.0925-1.7653 0.791-0.51462 0.70379-0.52612 0.79845-0.70486 0.74308-0.74291 0.67751-0.78305 0.78236-1.1047 0.53338-0.8516 0.44731-0.79234 0.6246-1.2499 0.39722-0.8901 0.22345-0.61137 0.19316-0.72772 0.098365-0.82589-0.028203-0.74207-0.18126-1.0239-0.53157-2.4219-0.1907-1.2778-0.1278-1.9045-0.15172-1.3924-0.79658-4.8155-0.10008-0.90406-0.035605-0.87437 0.077673-1.5685 0.17293-1.2827 0.16072-0.61463 0.45579-0.93622 0.39098-0.45925 0.65954-0.53424 0.9319-0.52509 0.88461-0.37859 1.2986-0.46784 1.1376-0.36945 5.0429-1.4985 2.3039-0.75632 1.7422-0.64677 3.8723-1.5846 1.3382-0.51288 2.0827-0.73258 1.8356-0.57909 0.7515-0.28405 0.51103-0.23919 0.72395-0.42033 0.5452-0.39196 0.9363-0.84416 0.61714-0.66677 0.53446-0.66425 0.42923-0.61478 0.32169-0.53641 0.32409-0.63474 0.31834-0.74326 0.38751-1.1526 0.24123-0.91324 0.30359-1.4143 0.36099-2.0631 0.15303-1.1911 0.10992-1.959-0.01935-1.3274-0.065545-1.1371-0.32029-3.3517-0.12988-1.7202-0.028208-1.9626 0.039296-0.84126 0.080941-0.83346 0.14816-0.78601 0.29947-0.78194 0.58502-0.76833 0.8078-0.64874 0.63478-0.3759 0.69635-0.33597 0.78452-0.31256 1.1286-0.3582 1.7728-0.42219 2.8621-0.59091 1.1336-0.19294 1.1107-0.14044 0.97046-0.062794 1.996-0.002103 0.80298-0.036557 0.82466-0.079191 0.82357-0.12077 1.431-0.2896 2.1158-0.53012 2.0722-0.58692 1.6933-0.56318 0.74715-0.295 1.1215-0.53252 0.74914-0.42526 4.1044-2.6147 2.4158-1.4071 3.1769-1.6703 4.1497-2.0688 6.2949-2.8493 2.7124-1.1341 2.0791-0.75641 1.1002-0.34768 0.76896-0.20514 0.48408-0.082552 0.11593 0.018259" stroke="#bdc660"/>
    </defs>
    <g clip-path="url(#p794a7f469c)">
     <use y="280.512" fill="#bdc660" stroke="#bdc660" xlink:href="#me80d393dfe"/>
    </g>
   </g>
  </g>
 </g>
 <defs>
  <clipPath id="p794a7f469c">
   <rect x="7.2" y="7.2" width="235.31" height="266.11"/>
  </clipPath>
 </defs>
</svg>
