<?xml version="1.0" encoding="UTF-8"?>
<!DOCTYPE svg  PUBLIC '-//W3C//DTD SVG 1.1//EN'  'http://www.w3.org/Graphics/SVG/1.1/DTD/svg11.dtd'>
<svg width="231.15pt" height="280.51pt" version="1.1" viewBox="0 0 231.15 280.51" xmlns="http://www.w3.org/2000/svg" xmlns:xlink="http://www.w3.org/1999/xlink">
 <metadata>
  <rdf:RDF xmlns:cc="http://creativecommons.org/ns#" xmlns:dc="http://purl.org/dc/elements/1.1/" xmlns:rdf="http://www.w3.org/1999/02/22-rdf-syntax-ns#">
   <cc:Work>
    <dc:type rdf:resource="http://purl.org/dc/dcmitype/StillImage"/>
    <dc:date>2024-07-04T12:08:11.114844</dc:date>
    <dc:format>image/svg+xml</dc:format>
    <dc:creator>
     <cc:Agent>
      <dc:title>Matplotlib v3.7.1, https://matplotlib.org/</dc:title>
     </cc:Agent>
    </dc:creator>
   </cc:Work>
  </rdf:RDF>
 </metadata>
 <defs>
  <style type="text/css">*{stroke-linejoin: round; stroke-linecap: butt}</style>
 </defs>
 <g id="figure_1">
  <g id="patch_1">
   <path d="m0 280.51h231.15v-280.51h-231.15v280.51z" fill="none"/>
  </g>
  <g id="axes_1">
   <g id="PatchCollection_1">
    <defs>
     <path id="m16881878a3" d="m182.04-203.39 0.084997 0.54031 0.37035 1.1191 0.57696 1.4712 0.73709 1.6535 0.70414 1.4056 0.78025 1.3949 0.84789 1.3447 2.1706 3.0646 0.95752 1.5603 1.0519 1.9808 1.9785 4.1762 3.1767 7.0961 1.276 2.7451 1.9144 3.9695 4.6321 9.4122 3.5254 7.5231 2.3819 4.8802 0.75677 1.7341 0.70835 1.7545 0.65564 1.7575 0.72426 2.149 0.81966 2.6895 0.51821 1.9045 0.27229 1.2639 0.34152 2.439 0.095574 1.6017-0.078626 1.5293-0.28112 1.4053-0.39349 1.2741-0.42923 0.95289-0.57739 0.86259-1.2006 1.0744-1.3683 0.80736-1.5623 0.73337-7.5692 3.2467-1.8697 0.86504-1.8593 0.92132-2.4333 1.331-3.9985 2.45-2.2811 1.468-2.3956 1.6675-7.8341 6.0242-0.9478 0.78625-0.96937 0.90851-0.39038 0.4225-0.61244 0.81648-0.36187 0.67027-0.33464 0.97101-0.1821 1.0315-0.055319 1.136 0.032295 0.90958 0.11021 1.136 0.4472 2.6557 0.13537 1.014 0.052263 0.92708-0.008049 0.96176-0.085298 1.3043-0.12296 1.1311-0.30047 2.0754-1.1648 6.6998-0.59993 3.6883-0.71405 5.4645-0.2512 2.6491-0.085974 1.693-8.85e-4 0.85568 0.06658 0.93273 0.15645 0.89374 0.29748 0.92442 0.45215 0.83797 0.36748 0.4641 1.2562 0.98452 1.6189 0.73421 1.8474 0.52692 1.9214 0.35305 1.7974 0.20735 2.0131 0.097946-19.665 8.7553-6.3932 3.0501-1.9759 0.84099-4.7348 1.9254-3.2272 1.4762-4.1425 2.1079-10.239 5.4928-2.0674 1.0526-2.0878 1.0082-3.9278 1.727-3.3902 1.3635-5.0921 1.9025-4.2711 1.4839-6.0206 1.9138-2.7696 0.81424-1.6102 0.40975-1.5485 0.29467-2.709 0.26554-2.8832 0.19639-0.87477 0.12321-1.2851 0.26008-1.1398 0.27671-3.1269 0.92124-0.84492 0.17895-0.66039 0.091892-0.73743 0.052421-0.94821-0.004757-0.93473-0.066968-0.80661-0.10854-1.3626-0.28295-1.831-0.52153-1.6926-0.53858-1.4121-0.38852-0.7456-0.098628-0.23899 0.027622-0.092946 0.077506-0.05052-0.33623-0.22181-0.34554-0.34453-0.4033-0.66634-0.61286-0.81987-0.63236-2.7192-1.8837-2.5415-1.9917-1.2364-0.83388-1.3783-0.71534-1.6512-0.6941-2.9406-1.0629-0.95902-0.41724-0.80652-0.46909-0.75928-0.5507-1.35-1.0958-4.773-4.0678-0.63489-0.58643-0.73113-0.84451-0.51446-0.73844-2.158-3.2788-1.0772-1.7485-1.1568-2.0646-1.896-3.7313-2.163-4.0704-0.79786-1.3887-0.6744-1.0804-1.2657-1.9035-2.6714-3.4744-0.45724-0.55024-1.2088-1.2945-0.67071-0.64243-0.84448-0.69751-0.94345-0.66018-1.9709-1.2883-0.40926-0.3089-0.4345-0.44788-0.084592-0.21071 0.026994-0.078162-0.067727-0.19493 0.002303-0.75595 0.15984-1.8246 0.31491-2.3561 0.45675-2.7168 0.36134-1.8259 0.44559-1.911 1.359-4.8571 0.59829-2.4773 0.51254-2.799 0.41859-3.1715 0.11484-1.311 0.10598-2.1038 0.014102-3.3984-0.16228-2.9799-0.19653-1.8307-0.22048-1.501-0.22152-1.187-0.53465-2.3107-0.46422-1.619-0.60319-1.7677-0.6725-1.6669-0.55088-1.1818-0.41559-0.79809-0.94803-1.5871-0.8437-1.2433-1.5694-2.0553-1.5659-1.8072-0.90598-0.96498-1.548-1.5066-0.88153-0.75971-0.67532-0.52805-2.0047-1.426-1.2383-0.96682-0.52706-0.51485-0.32426-0.39814-0.28042-0.46812-0.17413-0.4467-0.12097-0.909 0.09669-1.367 0.31822-2.3738 0.078241-0.83047 0.030607-0.81522-0.053761-2.6093 0.11875-1.2008 0.17165-0.77781 0.39418-1.1844 0.6048-1.1259 0.68167-0.82104 0.38368-0.35932 0.94204-0.71056 0.85382-0.53543 5.0863-2.8395 1.7312-1.1128 1.412-0.98865 1.5364-1.183 1.5292-1.3563 1.1842-1.2041 1.2393-1.4651 0.97714-1.5333 0.41996-0.98581 0.35872-1.3433 0.54568-3.8516 0.17633-0.71207 0.25678-0.64826 0.39464-0.62933 0.50705-0.59086 1.6253-1.5758 0.51553-0.58806 0.33866-0.48652 0.33109-0.67226 0.20986-0.76799 0.090701-0.75886 0.017874-0.49546-0.027288-0.96494-0.085268-0.95688-0.20582-1.3811-0.30554-1.4815-0.45302-1.7828-0.44848-1.5498-1.3679-4.4045-0.88567-2.6186-1.4243-3.5975-0.94687-2.1593-1.1394-2.4072-2.7512-5.2998-3.3048-5.9828-0.93557-1.8558-0.44425-1.0107-0.36592-0.9546-0.4927-1.5815-0.22151-1.0759-0.051564-0.45265-0.010578-0.64838 0.085201-0.47829 0.29032-0.29005 0.061767 0.043132 0.27838 0.041129 0.44768-0.008337 0.92622-0.11908 0.87756-0.20288 1.0541-0.34829 1.0175-0.45111 0.81676-0.45593 0.72458-0.48205 0.69402-0.52283 2.8106-2.2086 2.5085-1.8633 1.1295-0.94342 0.66682-0.70296 0.32746-0.4256 0.47098-0.72329 1.7254-3.2682 0.68037-1.0164 0.75715-0.98114 0.77526-0.89606 1.0612-1.093 0.57328-0.50987 2.2287-1.7607 1.0739-0.96975 0.90548-1.0567 0.67215-1.0333 0.55684-1.0351 0.23278-0.54529 0.14734-0.44174 0.18067-0.77944 0.089283-0.80256 0.016905-0.81592-0.11838-2.6871 0.068187-1.0807 0.28325-0.99361 0.13434-0.26188 0.38327-0.55149 0.48302-0.51883 0.56868-0.49588 0.65276-0.4861 0.71571-0.47155 1.3663-0.78686 1.138-0.56249 1.2088-0.518 1.7993-0.63937 6.9048-2.0014 8.9706-2.9715 1.9409-0.72171 2.0871-0.9245 1.1471-0.60523 0.67876-0.40272 0.83674-0.60165 0.075881-0.14867 0.13574-0.19168 0.16234-0.08839 0.71634-0.16062 0.93697 0.089097 1.019 0.37361 0.87023 0.57813 0.31804 0.27784 0.62716 0.65417 0.51764 0.64231 0.65641 0.93958 0.69787 1.1505 0.90709 1.718 0.78216 1.6986 0.7377 1.8633 1.3452 3.7922 0.59282 1.9752 1.865 7.5766 1.1282 4.2336 0.61589 2.0127 0.67006 1.8999 0.91846 2.102 2.6034 4.9901 0.61104 1.1002 3.0878 4.9788 3.4365 5.771 1.3615 2.1252 1.0757 1.5853 0.89657 1.2283 0.70503 0.89531 1.1863 1.3421 0.90623 0.90901 0.70148 0.64254 0.8683 0.72223 0.91578 0.66798 0.64087 0.40408 0.94981 0.49846 0.52446 0.2229 0.88585 0.29105 0.98946 0.19492 1.0417 0.05479 1.0629-0.076615 1.4066-0.26125 1.4296-0.40899 2.1216-0.79931 1.8903-0.84094 5.3965-2.6106 3.1384-1.4514 2.0149-0.87702 4.0159-1.6356 8.7602-3.3521 8.6221-3.4273 1.4759-0.50468 1.901-0.50488 1.8478-0.22975 1.781 0.17033 0.75534 0.23474 1.0262 0.49158 1.5711 1.1323 1.4863 1.4647 1.4047 1.6985 1.3133 1.8306 1.2873 1.9909 1.9249 3.208 0.2714 0.37647 0.047402 0.005776" stroke="#bdc660"/>
    </defs>
    <g clip-path="url(#p100a77a7d0)">
     <use y="280.512" fill="#bdc660" stroke="#bdc660" xlink:href="#m16881878a3"/>
    </g>
   </g>
  </g>
 </g>
 <defs>
  <clipPath id="p100a77a7d0">
   <rect x="7.2" y="7.2" width="216.75" height="266.11"/>
  </clipPath>
 </defs>
</svg>
