<?xml version="1.0" encoding="UTF-8"?>
<!DOCTYPE svg  PUBLIC '-//W3C//DTD SVG 1.1//EN'  'http://www.w3.org/Graphics/SVG/1.1/DTD/svg11.dtd'>
<svg width="371.52pt" height="201.99pt" version="1.1" viewBox="0 0 371.52 201.99" xmlns="http://www.w3.org/2000/svg" xmlns:xlink="http://www.w3.org/1999/xlink">
 <metadata>
  <rdf:RDF xmlns:cc="http://creativecommons.org/ns#" xmlns:dc="http://purl.org/dc/elements/1.1/" xmlns:rdf="http://www.w3.org/1999/02/22-rdf-syntax-ns#">
   <cc:Work>
    <dc:type rdf:resource="http://purl.org/dc/dcmitype/StillImage"/>
    <dc:date>2024-07-04T12:08:19.021783</dc:date>
    <dc:format>image/svg+xml</dc:format>
    <dc:creator>
     <cc:Agent>
      <dc:title>Matplotlib v3.7.1, https://matplotlib.org/</dc:title>
     </cc:Agent>
    </dc:creator>
   </cc:Work>
  </rdf:RDF>
 </metadata>
 <defs>
  <style type="text/css">*{stroke-linejoin: round; stroke-linecap: butt}</style>
 </defs>
 <g id="figure_1">
  <g id="patch_1">
   <path d="m0 201.99h371.52v-201.99h-371.52v201.99z" fill="none"/>
  </g>
  <g id="axes_1">
   <g id="PatchCollection_1">
    <defs>
     <path id="m111422688a" d="m330.77-170.28 4.0118 14.151 1.5166 4.8846 2.1643 6.1691 0.57069 1.9329 1.5143 6.167 3.2584 10.88 1.2204 4.3535 0.95036 4.2323 0.88012 7.1216 1.0671 5.4315 0.16323 1.9018-0.1457 1.8121-0.29358 1.3172-0.41119 1.3042-1.756 4.5987-0.40695 1.8532-0.22903 1.9711-0.10328 2.0611-0.010398 6.4811-0.18852 6.6118-0.056026 9.0414-0.12175 3.3355-0.15378 1.242-2.3725-0.50931-1.6969-0.12829-1.0846 0.093681-1.1456 0.2322-1.2846 0.39164-2.2493 0.86768-5.6044 2.4938-2.4592 0.99806-1.9222 0.65048-1.645 0.39714-5.3221 0.78635-9.1178 0.96953-4.1767 0.59655-8.5813 1.9404-2.1709 0.35653-2.1101 0.19135-6.0582-0.00723-1.7948 0.22037-1.7321 0.41919-6.4002 2.4821-2.7473 0.87572-3.3985 0.88735-8.2402 1.734-1.6421 0.47187-1.1353 0.53512-0.85818 0.57967-2.4264 2.165-3.2847 2.5572-4.7675 3.3189-6.0755 3.8319-7.4566 5.5758-2.516 2.1497-2.3263 2.2165-1.9939 2.0706-1.441 1.6274-0.54967 0.76357-0.2657 0.2905-0.49281 0.16739-2.3869 0.33385-2.6739 0.099953-3.0354-0.062379-5.5497-0.47797-2.9842-0.40281-11.206-1.7993-4.6819-0.56531-2.8312-0.21829-2.8065-0.12937-5.6999-0.041892-12.086 0.35015-4.4178-0.061593-2.3933-0.28377-1.5948-0.33464-5.3184-1.4114-1.7766-0.65693-2.7401-1.4431-1.2444-0.8322-3.8862-3.3178-1.3435-0.96122-1.5223-0.76721-1.6213-0.52019-2.1076-0.36339-3.3705-0.42888-6.238-0.6108-3.4898-0.44178-3.8608-0.63498-7.9356-1.5043-4.5384-0.49661-4.4527-0.17382-3.7705 0.15698-2.8599 0.4135-2.5351 0.56536-1.5143 0.43039-1.0584 0.37054-0.42623 0.2367-0.55024-0.6012-6.182-9.2693-15.331-21.211-4.6335-6.8349-2.3941-3.9062-2.2016-3.9671-1.3269-2.653-4.2585-9.1022-1.2319-2.3223-1.3383-2.1828-1.4967-1.9848-1.7202-1.7112-1.8374-1.2858-2.029-1.0535-2.1614-0.89258-8.9758-3.1129-2.0742-0.93867-1.882-1.1301-1.6038-1.4057-1.3465-1.9155-1.0016-2.2674-0.74156-2.5459-0.5468-2.766-0.40148-2.9377-0.50433-6.2087-0.2505-6.2603-0.15684-7.2437-0.096443-0.66787 0.24532-0.59256 1.0134-1.0363 1.7704-1.4262 2.2896-1.5757 3.988-2.3346 4.6916-2.2656 3.3342-1.4116 9.0645-3.5541 3.4753-1.4926 13.606-6.5914 6.7333-2.9689 3.727-1.4506 3.7034-1.2877 3.6686-1.0941 3.6223-0.85643 2.5775-0.43508 2.1758-0.21775 1.8258-0.04583 1.7642 0.086455 3.855 0.50078 14.548 2.495 6.0628 0.71598 6.6483 0.47383 6.6309 0.17156 4.0376-0.058108 3.9745-0.19677 3.8821-0.35618 3.7534-0.54918 3.5797-0.7904 4.8935-1.4828 3.7235-0.9911 3.9429-0.87553 20.232-3.9376 15.388-3.4329 5.7266-1.4202 5.008-1.3507 13.813-4.1027 3.9425 1.5868 8.3579 3.6248 3.6019 1.8469 2.208 1.3571 2.4392 1.7558 3.3125 3.1061 1.0668 0.84255 0.96082 0.53214 0.79783 0.25354 1.3138 0.085384 0.65378-0.088946 1.4602-0.45009 5.2834-2.2896 2.0822-0.68775 2.1967-0.56865 4.6176-0.83869 4.788-0.4712 15.805-0.51518 4.3423-0.022421 5.167 0.33668 5.2557 0.63411 5.3551 0.83224 5.4172 0.99555 5.3134 1.1681 2.4937 0.65506 2.2624 0.69613 1.8894 0.70756 1.977 0.90173" stroke="#bdc660"/>
    </defs>
    <g clip-path="url(#pa23fd47311)">
     <use y="201.987817" fill="#bdc660" stroke="#bdc660" xlink:href="#m111422688a"/>
    </g>
   </g>
  </g>
 </g>
 <defs>
  <clipPath id="pa23fd47311">
   <rect x="7.2" y="7.2" width="357.12" height="187.59"/>
  </clipPath>
 </defs>
</svg>
