<?xml version="1.0" encoding="UTF-8"?>
<!DOCTYPE svg  PUBLIC '-//W3C//DTD SVG 1.1//EN'  'http://www.w3.org/Graphics/SVG/1.1/DTD/svg11.dtd'>
<svg width="271.53pt" height="280.51pt" version="1.1" viewBox="0 0 271.53 280.51" xmlns="http://www.w3.org/2000/svg" xmlns:xlink="http://www.w3.org/1999/xlink">
 <metadata>
  <rdf:RDF xmlns:cc="http://creativecommons.org/ns#" xmlns:dc="http://purl.org/dc/elements/1.1/" xmlns:rdf="http://www.w3.org/1999/02/22-rdf-syntax-ns#">
   <cc:Work>
    <dc:type rdf:resource="http://purl.org/dc/dcmitype/StillImage"/>
    <dc:date>2024-07-04T12:08:10.209147</dc:date>
    <dc:format>image/svg+xml</dc:format>
    <dc:creator>
     <cc:Agent>
      <dc:title>Matplotlib v3.7.1, https://matplotlib.org/</dc:title>
     </cc:Agent>
    </dc:creator>
   </cc:Work>
  </rdf:RDF>
 </metadata>
 <defs>
  <style type="text/css">*{stroke-linejoin: round; stroke-linecap: butt}</style>
 </defs>
 <g id="figure_1">
  <g id="patch_1">
   <path d="m0 280.51h271.53v-280.51h-271.53v280.51z" fill="none"/>
  </g>
  <g id="axes_1">
   <g id="PatchCollection_1">
    <defs>
     <path id="mbd66f25175" d="m230.96-87.931-0.4354-0.17271-2.2599 0.045232-3.4494 0.45881-4.0925 0.79648-4.5569 1.1411-4.5459 1.4787-4.3035 1.8857-3.8683 2.3971-1.0679 0.85273-1.6167 1.5025-1.4553 1.6073-1.7086 2.2528-1.6566 2.6026-1.6018 2.8805-3.2569 6.4176-1.2412 2.7504-0.93728 2.3486-2.1168 5.8135-0.83464 2.0571-0.91295 1.8628-1.4508 2.0383-1.3608 1.0862-1.5482 0.65083-1.5844 0.19383-1.7138-0.25461-3.7628-1.0061-1.6782-0.22873-1.9137-0.12537-2.4249-0.043641-2.45 0.054337-8.0082 0.48406-6.8819 0.16697-8.4596 0.53014-5.1772 0.56432-3.7607 0.58941-2.8242 0.58642-2.7211 0.71112-2.5958 0.84774-2.4187 0.98918-2.1828 1.1314-1.9178 1.2852-0.84356 0.6963-3.5458 3.4427-2.3354 1.9826-2.165 1.4763-2.2171 1.2335-2.3401 1.0636-1.9872 0.75943-13.899 4.6955-2.6143 0.78509-2.6693 0.61457-2.3214 0.32902-2.3636 0.19029-2.9626 0.11978-2.9997 0.01668-3.0076-0.080558-3.3143-0.20734-3.2438-0.35724-3.1246-0.54739-2.9492-0.79016-3.1791-1.3325-1.0657-0.61748-2.152-1.6492-1.8887-1.9112-3.3298-4.0989-2.4208-3.2164-1.2395-2.0833-3.0442-5.9817-2.3443-4.2576-1.0378-2.2556-0.74246-2.2554-0.28469-1.5231-0.32141-4.3804-0.27375-2.1499-0.8325-2.433-1.2726-2.2031-1.2457-1.5605-1.5477-1.7734-1.7456-2.2547-1.0353-1.4673-0.9842-1.6163-1.4663-3.2561-1.208-3.6829-1.0168-3.8608-1.914-8.3413-0.24206-1.2299-0.095273-1.0335-0.35352-0.6778-0.13322-1.4818 0.15314-1.9472 0.34338-1.6096 0.52601-1.6672 1.9368-4.6576 1.0837-2.8151 1.1456-3.2146 0.92165-2.8794 0.95898-3.6328 0.38052-1.8272 0.87794-5.6077 0.6221-3.211 0.5114-1.891 0.99011-2.6535 0.81935-1.5916 0.64017-1.0028 0.83687-1.0632 0.93311-0.94481 2.0839-1.6653 5.9827-3.9964 2.6171-1.9038 2.0109-1.765 1.8958-2.0381 1.1638-1.6099 0.73258-1.3484 0.64684-1.5387 0.53493-1.6273 0.44508-1.7125 0.3598-1.7679 0.41554-2.8789 1.0249-10.786-0.016434-2.9546-0.23506-2.0265-0.47759-2.341-0.59382-2.1271-0.72502-2.1421-1.371-3.4103-1.228-2.6778-2.7131-5.3177-5.6264-10.009 0.40468-0.073057 1.3881-0.47343 2.0331-0.78492 15.107-6.2242 18.611-7.2211 28.102-10.424 6.6104-2.6676 14.298-6.0652 3.5105-1.3943 6.2531-2.2349 15.366-5.1203 23.079-7.9273 6.3719-2.4607 3.5845-1.6107 0.82706-0.43818 0.51452-0.37115-0.050154 1.0456 0.3881 1.7364 0.75037 2.1193 1.3574 2.7138 1.8377 2.4958 2.3471 1.9606 3.0601 1.256 3.5347 0.49717 3.8636-0.087837 4.0732-0.51109 4.1902-0.797 13.258-3.1558 4.3633-0.88138 4.1925-0.54399 3.9533-0.030156 3.6262 0.69963 2.5523 1.1806 2.2997 1.6564 2.05 2.0233 2.0545 2.704 1.6502 2.9805 1.1655 3.1795 0.56474 3.3223-0.010409 2.2139-0.072756 0.80843-0.42312 2.5337-0.65608 2.5488-3.0755 9.8003-1.9884 7.053-0.78483 3.044-0.62281 2.7814-0.53951 2.8945-0.84528 5.2228-0.36386 2.8358-0.23595 3.2809 0.019665 3.7423 0.18416 2.888 1.13 12.615 0.17957 5.5108-0.13112 5.673-0.49649 9.6416-0.55491 5.041-0.52366 2.8101-0.56877 2.164-0.35506 1.0676-1.0492 2.4661-1.1639 2.1552-2.3642 3.6445-5.8719 8.0182-1.3178 1.9278-1.6289 2.6733-0.76648 1.4527-1.0647 2.3986-0.77939 2.4466-0.48676 3.2219-0.033311 1.876 0.17886 2.3298 0.52874 2.9761 0.60097 2.3049 1.3449 4.0495 2.9319 7.6092" stroke="#bdc660"/>
    </defs>
    <g clip-path="url(#pbb7baa7329)">
     <use y="280.512" fill="#bdc660" stroke="#bdc660" xlink:href="#mbd66f25175"/>
    </g>
   </g>
  </g>
 </g>
 <defs>
  <clipPath id="pbb7baa7329">
   <rect x="7.2" y="7.2" width="257.13" height="266.11"/>
  </clipPath>
 </defs>
</svg>
