<?xml version="1.0" encoding="UTF-8"?>
<!DOCTYPE svg  PUBLIC '-//W3C//DTD SVG 1.1//EN'  'http://www.w3.org/Graphics/SVG/1.1/DTD/svg11.dtd'>
<svg width="371.52pt" height="243.35pt" version="1.1" viewBox="0 0 371.52 243.35" xmlns="http://www.w3.org/2000/svg" xmlns:xlink="http://www.w3.org/1999/xlink">
 <metadata>
  <rdf:RDF xmlns:cc="http://creativecommons.org/ns#" xmlns:dc="http://purl.org/dc/elements/1.1/" xmlns:rdf="http://www.w3.org/1999/02/22-rdf-syntax-ns#">
   <cc:Work>
    <dc:type rdf:resource="http://purl.org/dc/dcmitype/StillImage"/>
    <dc:date>2024-07-04T12:08:34.952235</dc:date>
    <dc:format>image/svg+xml</dc:format>
    <dc:creator>
     <cc:Agent>
      <dc:title>Matplotlib v3.7.1, https://matplotlib.org/</dc:title>
     </cc:Agent>
    </dc:creator>
   </cc:Work>
  </rdf:RDF>
 </metadata>
 <defs>
  <style type="text/css">*{stroke-linejoin: round; stroke-linecap: butt}</style>
 </defs>
 <g id="figure_1">
  <g id="patch_1">
   <path d="m0 243.35h371.52v-243.35h-371.52v243.35z" fill="none"/>
  </g>
  <g id="axes_1">
   <g id="PatchCollection_1">
    <defs>
     <path id="m181ff83a35" d="m322.61-165.67-0.7466 0.24165-1.035 0.89235-1.2338 1.6124-0.58128 1.0836-0.46089 1.2-0.32084 1.3647-0.15631 1.45 0.005459 1.7711 0.084335 1.056 0.28622 1.987 0.42619 2.0299 0.66558 2.5285 1.4453 4.7343 1.0426 3.1997 1.2738 3.6487 1.4269 3.7448 1.579 3.9037 0.58271 1.5571 0.54282 1.7489 0.26273 1.1556 0.16745 1.0797 0.085982 1.0129 0.009574 1.4871-0.22568 2.7438-0.24077 1.493-0.5483 2.3523-0.53567 1.8491-0.77078 2.3279-2.2575 6.2079-0.77382 2.304-1.0224 3.7037-1.2045 5.2365-0.31496 1.9728-0.16968 1.966 5.89e-4 2.2318 0.10862 1.1919 0.19808 1.1393 0.52284 1.6564 0.82393 1.4151 0.51868 0.57226 0.60718 0.5131 0.86634 0.55819 0.75135 0.37745 1.7143 0.62851 5.6873 1.5678 3.7868 1.2099 1.692 0.33108 2.5941 0.3796 1.8492 0.36117 1.381 0.38283 1.2128 0.50678 1.1103 0.69583 0.96709 0.8486 0.92295 1.1357 0.58644 1.0624 0.28945 0.938-0.082386 0.68303-0.29822 0.30713-0.77558 0.32473-1.9081 0.50163-1.3087 0.23994-2.3642 0.291-5.8062 0.32206-2.4539 0.24838-0.95077 0.18608-1.1128 0.32214-1.3574 0.60402-1.3656 0.93091-1.2267 1.2049-1.0907 1.4334-0.84453 1.3571-2.2414 4.0445-0.78142 1.2256-0.86614 1.1188-0.88701 0.88688-0.70373 0.53839-1.0383 0.57322-1.1172 0.37956-1.1288 0.18055-1.079 0.011247-1.2289-0.16008-1.1782-0.3159-0.88535-0.33973-1.161-0.58041-1.0555-0.66093-1.1082-0.82941-1.8321-1.6522-3.9228-4.1797-2.0539-2.0108-1.0333-0.84447-1.1307-0.75149-1.0036-0.48708-0.80628-0.24795-0.6786-0.093164-0.87932 0.061974-0.88147 0.30237-0.93865 0.65414-0.76775 0.87401-0.54223 0.85284-1.4404 2.9381-0.8375 1.5204-0.50652 0.74772-0.61069 0.76043-0.74338 0.76843-1.1542 0.95927-1.1101 0.73269-0.95983 0.51806-1.2143 0.52268-1.6426 0.48724-1.0772 0.16186-0.86691-0.002289-0.40387-0.061994-0.36372-0.10653-0.42254-0.21631-0.36578-0.33438-0.32522-0.62025-0.1164-0.62162 0.047881-2.3986-0.081309-0.76227-0.11592-0.418-0.3232-0.61724-0.50149-0.50669-0.69307-0.3739-0.90449-0.19865-0.93396 0.008878-1.6076 0.33807-1.204 0.41995-1.2663 0.53384-5.7059 2.7389-1.3286 0.57891-9.8672 4.0031-1.3684 0.50208-2.4966 0.80129-1.8591 0.47878-1.4101 0.25737-1.4134 0.11363-1.4124-0.043112-1.202-0.17122-1.1851-0.30528-1.2534-0.46228-0.9513-0.44114-3.6827-2.0669-1.0257-0.49382-0.5853-0.21464-0.63556-0.14972-0.58672-0.029747-0.52945 0.096254-0.66336 0.33429-0.50084 0.43188-0.43926 0.49728-0.74066 1.0154-0.75785 1.2157-0.65636 1.2352-2.1913 5.1101-1.0466 1.9891-1.5118 2.2321-3.7546 4.7425-2.2824 2.7352-3.1894 3.5119-1.1415 1.4468-2.6264 3.5409-1.6746 1.9369-0.94921 0.90205-0.69535 0.56351-1.1648 0.73834-1.0033 0.41353-1.4419 0.24227-1.0801-0.11604-0.728-0.25201-0.97572-0.56951-0.73585-0.60517-1.1666-1.2807-1.0254-1.5066-0.75806-1.4217-0.76615-1.756-1.2976-3.4736-0.34165-1.1845-0.21883-1.044-0.25807-2.2875-0.050147-1.2646 0.060763-3.5237 0.42288-7.0552 0.090952-2.6611-0.089286-3.2177-0.2209-1.8425-0.41284-1.8001-0.32427-0.91894-0.59418-1.1734-0.4585-0.66272-0.82646-0.91686-0.52268-0.45681-0.76564-0.54524-1.1812-0.61113-0.69326-0.24728-1.3959-0.27161-0.59808-0.027071-0.94042 0.059763-0.87666 0.15559-2.5705 0.64798-1.3395 0.12601-0.61158-0.038383-0.7703-0.13842-0.85632-0.26255-0.84806-0.35925-0.91278-0.48658-0.94369-0.60594-1.7183-1.3717-1.4452-1.4447-3.8074-4.2922-1.7179-1.6147-1.3405-1.0754-2.0603-1.3972-1.6744-0.9061-1.5664-0.57122-1.1909-0.20718-0.45633-0.025158-0.88413 0.036294-0.62252 0.093332-0.88857 0.23006-0.71124 0.26581-1.4892 0.79116-0.81406 0.56594-0.97285 0.80043-1.2874 1.2924-1.1247 1.4657-0.91383 1.5941-1.7178 3.5931-0.72447 1.1706-0.79401 1.014-1.2296 1.2004-0.60388 0.47172-1.0307 0.65505-0.88363 0.40976-0.45196 0.13768-0.33363 0.045552-0.44488-0.1195-0.057494 0.22553-0.27048 0.25744-0.95166 0.56242-1.0142 0.41126-1.2843 0.36191-1.3354 0.25531-1.3804 0.18382-4.4028 0.47011-1.2023 0.1982-1.3193 0.29815-1.3832 0.42992-1.3805 0.5644-1.0351 0.51556-1.0916 0.63872-0.89232 0.60272-1.5257 1.2566-1.1856 1.2943-0.98917 1.38-1.9868 3.0472-1.2549 1.4888-1.8011 1.6238-3.0919 2.4924-3.9172 3.3095-0.75461 0.72062-0.68175 0.90628-0.33985 0.71028-0.21132 0.70365-0.29996 1.7191-0.31966 0.84971-0.38445 0.48146-0.65672 0.40402-1.0554 0.2382-2.486 0.2145-1.194 0.17288-1.205 0.27159-2.4736 0.78542-1.3841 0.36747-1.6672 0.24249-0.98256 0.051158-2.1122-0.061907-3.0297-0.22916-4.7218-0.20527-1.8108-0.21791-1.0723-0.25345-0.39813-0.15423-0.12416-0.12741-0.1428-0.2847-1.1414-1.1447-1.6261-1.4129-2.1569-1.6992-1.2609-0.88829-1.2043-0.74592-0.78091-0.41723-1.0945-0.48454-1.7665-0.53052-0.91949-0.16883-1.2696-0.14035-1.2156-0.059167-4.8501-0.009765-1.632-0.12947-1.5033-0.27012-0.89505-0.23689-1.2071-0.41861-0.74546-0.328-0.99815-0.55664-0.81247-0.59256-0.97991-0.9383-0.4766-0.55486-0.78117-1.0466-0.67042-1.0384-0.38134-0.68421-0.49661-1.1506-0.25077-0.86224-0.17455-0.9843-0.050925-0.61763 0.016733-1.0601 0.12347-0.98792 0.18308-0.8855 0.5805-1.9357 1.0144-2.5051 1.1574-2.3237 4.1979-7.2718 1.1772-2.3578 0.77978-1.9073 0.4508-1.3303 0.49874-1.7586 0.3666-1.5887 0.51558-3.0405 0.3769-3.525 0.23499-4.0871 0.019501-2.6138-0.08162-2.259-0.20316-2.6546-0.42154-3.9702-0.26664-1.9107-0.62381-3.0132-0.54753-2.0858-1.1104-3.6963-6.1527-18.942-1.9527-5.5573-1.2189-3.1943-4.3127-10.717-11.274-28.557-2.9-6.769-1.1723-2.5248-1.01-2.0087-0.46387-0.74086 4.7554-3.4768 3.6759-2.5049 1.9337-1.2482 1.9957-1.2333 3.0526-1.7647 2.1912-1.1608 2.2154-1.0711 2.9062-1.2254 2.9508-0.99414 2.4655-0.63522 2.0063-0.40809 1.8993-0.31015 2.3133-0.29354 4.2011-0.34425 2.6895-0.11704 4.4942-0.049121 2.5018 0.049229 3.3446 0.15656 3.7956 0.32399 3.1842 0.42937 2.0151 0.37558 1.8454 0.44234 2.1617 0.67457 4.4057 1.6301 1.1136 0.34056 4.0973 0.98069 4.287 0.82662 3.454 0.44033 1.2113 0.087786 2.0905 0.047066 1.5853-0.079445 1.1092-0.13343 1.7953-0.38863 0.81787-0.26023 2.0972-0.89754 1.2828-0.69412 2.1876-1.391 3.4216-2.5449 7.5063-6.1508 3.4905-2.7138 1.9327-1.3943 1.7536-1.1793 2.6797-1.6225 2.2469-1.1563 1.5845-0.69532 1.4446-0.54067 1.9174-0.56314 1.4178-0.28973 1.6346-0.18798 1.7864-0.04261 1.1791 0.058383 1.7737 0.2363 1.1114 0.25069 0.85407 0.26262 1.1822 0.50582 0.8189 0.4852 0.60191 0.44596 0.81933 0.73863 1.1023 1.2345 0.96674 1.2946 0.86409 1.2919 4.1552 6.6978 2.5486 3.7537 3.138 4.1915 7.8648 9.9327 2.7213 3.5454 1.2982 1.7701 3.3893 4.8566 1.2583 1.5548 1.437 1.4926 1.6042 1.3436 1.162 0.78228 0.88957 0.50544 2.068 0.95447 1.6486 0.58568 1.4485 0.40052 1.6064 0.3433 1.5481 0.252 2.0844 0.23548 1.5933 0.10713 1.7727 0.050604 2.213-0.020497 5.065-0.27476 5.3708-0.48869 5.5745-0.68851 4.0462-0.68416 2.2854-0.50156 4.4007-1.252 2.0893-0.69217 1.9192-0.74176 1.8099-0.851 1.3433-0.78108 1.229-0.8898 0.51524-0.44628 0.8684-0.89021 0.83377-1.0386 0.59816-0.86394 1.2202-2.0596 2.3922-4.3875 2.2032-3.5741 2.3028-3.573 0.9587-1.3462 0.69689-0.8346 3.4759-3.6148 1.298-1.7157 1.7626-2.5083 1.412-1.8509 1.289-1.4119 1.5751-1.3223 1.7762-1.2111 5.4551-3.2273 1.5404-1.0035 1.6064-1.2113 1.5064-1.3246 1.3833-1.4192 1.1195-1.3332 1.0166-1.3562 3.3871-4.9749 0.95708-1.0829 0.84446-0.39 0.24704 0.059864 0.23393 0.14542 0.31692 0.33132 0.40531 0.62552 2.467 5.4237 1.1429 2.2828 1.1529 2.0611 2.1343 3.3935 2.1492 3.0933 2.0419 2.7232 5.3507 6.6346 2.5134 3.2777 1.3855 1.9027 1.4194 2.0932 0.93881 1.5011 1.1696 2.0359 0.85615 1.6402 1.3293 2.8518 1.2391 3.074 1.0572 3.0764 1.2685 4.4306 0.69387 2.8785 0.51003 2.4166 0.35493 2.1231" stroke="#bdc660"/>
    </defs>
    <g clip-path="url(#p4f9f5aef82)">
     <use y="243.354007" fill="#bdc660" stroke="#bdc660" xlink:href="#m181ff83a35"/>
    </g>
   </g>
  </g>
 </g>
 <defs>
  <clipPath id="p4f9f5aef82">
   <rect x="7.2" y="7.2" width="357.12" height="228.95"/>
  </clipPath>
 </defs>
</svg>
