<?xml version="1.0" encoding="UTF-8"?>
<!DOCTYPE svg  PUBLIC '-//W3C//DTD SVG 1.1//EN'  'http://www.w3.org/Graphics/SVG/1.1/DTD/svg11.dtd'>
<svg width="231.07pt" height="280.51pt" version="1.1" viewBox="0 0 231.07 280.51" xmlns="http://www.w3.org/2000/svg" xmlns:xlink="http://www.w3.org/1999/xlink">
 <metadata>
  <rdf:RDF xmlns:cc="http://creativecommons.org/ns#" xmlns:dc="http://purl.org/dc/elements/1.1/" xmlns:rdf="http://www.w3.org/1999/02/22-rdf-syntax-ns#">
   <cc:Work>
    <dc:type rdf:resource="http://purl.org/dc/dcmitype/StillImage"/>
    <dc:date>2024-07-04T12:08:29.725634</dc:date>
    <dc:format>image/svg+xml</dc:format>
    <dc:creator>
     <cc:Agent>
      <dc:title>Matplotlib v3.7.1, https://matplotlib.org/</dc:title>
     </cc:Agent>
    </dc:creator>
   </cc:Work>
  </rdf:RDF>
 </metadata>
 <defs>
  <style type="text/css">*{stroke-linejoin: round; stroke-linecap: butt}</style>
 </defs>
 <g id="figure_1">
  <g id="patch_1">
   <path d="m0 280.51h231.07v-280.51h-231.07v280.51z" fill="none"/>
  </g>
  <g id="axes_1">
   <g id="PatchCollection_1">
    <defs>
     <path id="m2df6d05b71" d="m163.67-199.45 3.4329 3.6108 2.9595 3.28 2.7674 3.4405 1.4668 2.1337 1.1001 1.8727 1.6583 3.3882 1.893 4.3932 3.0959 7.5333 1.1241 2.3791 1.4142 2.5285 0.83847 1.3077 0.88706 1.2654 1.3713 1.7495 0.8332 0.94179 1.6179 1.5545 0.7789 0.6147 1.0826 0.71126 1.1774 0.60188 1.1931 0.45607 1.9362 0.50673 6.4754 1.0315 2.6982 0.6031 1.2338 0.42164 1.185 0.53542 1.0746 0.62982 1.0093 0.7355 0.93563 0.8289 0.9737 1.062 0.82842 1.1535 0.64642 1.2215 0.36638 1.0159 0.21836 0.9958 0.076601 0.92252-0.036159 0.77907-0.11371 0.54377-0.13959 0.18873-0.23525 0.086208-0.61811 0.66997-1.2518 2-0.8528 1.7261-1.1475 2.9369-0.52146 1.6541-0.65212 2.5763-1.7326 10.391-0.57066 2.3949-0.71393 2.3217-0.82301 2.2081-1.2422 2.838-3.1951 6.568-1.1919 3.1547-1.9708 4.8403-1.1976 3.2017-0.62933 1.9283-0.47047 1.7448-0.20413 1.1748-0.048871 1.9846 0.31566 2.2744 0.91894 3.1521 0.28394 1.4659 0.054915 1.313-0.19013 1.9341-0.34018 1.5701-0.35914 1.2457-0.92826 2.5551-1.2305 2.6947-1.3728 2.4614-0.87024 1.3656-2.6588 3.6331-2.8828 3.3224-1.8582 1.8224-1.2856 1.0904-1.2611 0.94173-1.5734 1.018-1.5423 0.86042-2.4625 1.1685-11.325 4.7152-4.8639 2.238-2.6833 1.0347-3.3277 1.0832-2.2213 0.82658-1.1898 0.56792-1.255 0.7432-1.5923 1.2271-1.3273 1.3503-0.93197 1.1946-0.94464 1.4682-4.2727 8.0146-1.4894 2.4431-0.50234 0.69762-0.32604 0.29323-1.3612-0.88192-2.3993-1.7367-3.4698-2.6226-2.0355-1.6474-0.87162-0.75642-1.6301-1.6189-1.2821-1.659-0.82285-1.6729-0.26089-1.1843-0.025091-1.6091 0.26088-2.8702 0.004532-1.413-0.15052-1.4351-0.36382-1.5813-0.2852-0.7095-0.44922-0.68241-0.74096-0.54401-0.79862-0.1856-1.0718 0.058232-1.3587 0.34967-1.4855 0.58781-2.2919 1.1539-2.4955 1.4361-4.9744 3.0682-8.7901 5.598-14.214 9.4409-2.0962 1.2875-2.2146 1.206-2.0704 0.89223-1.8792 0.46962-1.6266-0.091348-1.1729-0.64238-0.28093-0.26655-0.70587-0.95002-0.56528-1.1608-0.51194-1.5173-1.0076-4.4735-0.46694-1.8168-0.31949-0.87278-0.90106-1.2605-0.81842-0.36934-1.0267-0.056273-1.0155 0.19673-0.72741 0.24126-1.3264 0.58148-1.9761 1.0778-4.202 2.7447-3.2579 2.3855-3.98 3.1667-6.126 5.3727-1.165-1.9576-4.7762-7.1617-1.9589-2.7062-1.516-1.9212-1.4625-1.668-1.2948-1.3023-1.2829-1.1384-2.5424-1.8827-2.1027-1.2867-3.4271-1.9321-1.8692-1.2253-1.3935-1.2797-0.96128-1.4941-0.50175-1.6253-0.028782-1.7776 0.57845-1.9913 1.8355-3.6152 0.73491-1.7545 0.25277-0.87016 0.28493-1.585 0.12006-1.6128-0.010063-1.6811-0.12393-1.7347-0.27582-2.1163-0.35395-1.9678-1.3832-6.0062-0.23421-1.3021-0.095824-0.97292 0.060863-1.8661 0.52926-2.1844 0.65562-1.4373 0.724-1.2014 1.8354-2.4158 5.3867-6.1225 2.3499-3.0224 0.96426-1.4412 1.0141-1.7303 0.87257-1.7555 0.82397-2.0297 0.52473-1.6177 0.51236-2.071 0.74563-4.8259 0.25695-4.0164 0.014136-1.6723-0.46005-12.422 0.13532-3.3843 0.35735-2.5187 0.40407-1.6288 0.82795-2.2806 3.5686-7.3021 1.4109-3.3804 0.89161-2.8803 0.40139-1.8544 0.24068-1.8348 0.055442-1.4095-0.046929-1.2395-0.33943-2.2638-0.53399-1.7474-0.4257-0.98697-0.84787-1.561-0.87631-1.3421-2.3327-2.9948-1.8356-2.0762-4.6448-4.8713-1.0239-1.1932-0.67597-0.94536-1.2054-2.3101-0.56574-1.7422-0.30956-1.8327-0.029054-1.656 0.22952-1.7298 0.43603-1.5917 0.46936-1.2139 0.64457-1.3439 1.2351-2.1378 1.3526-2.0541 8.8021-12.284 6.2231-9.4648 2.563-3.6508 1.1102-1.4587 1.791-2.1131 1.6635-1.6799 0.73666-0.53634 0.01284-0.28798 0.37963-0.68934 1.1582-1.1535 1.4798-1.006 1.7318-0.80862 1.0377-0.32953 1.4278-0.30394 2.0772-0.245 4.0381-0.322 1.8466-0.25901 1.3254-0.28221 1.9159-0.55601 2.8455-1.0398 2.8952-1.2437 2.3854-1.2118 1.3612-0.79332 2.0658-1.3571 1.5356-1.159 2.0206-1.6688 2.2251-2.0133 5.4246-5.3059 2.449-2.1982 1.553-1.2845 2.1839-1.6321 1.4706-0.96926 3.3618-1.8704 2.4095-1.1036 2.1974-0.90415 2.5912-0.93337 1.7177-0.49176 1.964-0.40064 1.7986-0.1902 1.0262-0.009456 2.2799 0.2818 2.1966 0.65538 2.0663 0.98313 1.8802 1.2871 1.6266 1.5884 0.9062 1.2283 0.76422 1.3018 1.1909 2.4253 3.8762 8.9104 1.9401 4.2426 1.5393 3.0353 1.3968 2.478 2.3021 3.6341 8.6912 12.272 2.7107 4.0714 1.3641 2.1803 2.047 3.5077 1.4255 2.6893 1.962 4.0316 0.54989 0.96422" stroke="#bdc660"/>
    </defs>
    <g clip-path="url(#p1b29ec9f54)">
     <use y="280.512" fill="#bdc660" stroke="#bdc660" xlink:href="#m2df6d05b71"/>
    </g>
   </g>
  </g>
 </g>
 <defs>
  <clipPath id="p1b29ec9f54">
   <rect x="7.2" y="7.2" width="216.67" height="266.11"/>
  </clipPath>
 </defs>
</svg>
