<?xml version="1.0" encoding="UTF-8"?>
<!DOCTYPE svg  PUBLIC '-//W3C//DTD SVG 1.1//EN'  'http://www.w3.org/Graphics/SVG/1.1/DTD/svg11.dtd'>
<svg width="209.95pt" height="280.51pt" version="1.1" viewBox="0 0 209.95 280.51" xmlns="http://www.w3.org/2000/svg" xmlns:xlink="http://www.w3.org/1999/xlink">
 <metadata>
  <rdf:RDF xmlns:cc="http://creativecommons.org/ns#" xmlns:dc="http://purl.org/dc/elements/1.1/" xmlns:rdf="http://www.w3.org/1999/02/22-rdf-syntax-ns#">
   <cc:Work>
    <dc:type rdf:resource="http://purl.org/dc/dcmitype/StillImage"/>
    <dc:date>2024-07-04T12:08:42.878794</dc:date>
    <dc:format>image/svg+xml</dc:format>
    <dc:creator>
     <cc:Agent>
      <dc:title>Matplotlib v3.7.1, https://matplotlib.org/</dc:title>
     </cc:Agent>
    </dc:creator>
   </cc:Work>
  </rdf:RDF>
 </metadata>
 <defs>
  <style type="text/css">*{stroke-linejoin: round; stroke-linecap: butt}</style>
 </defs>
 <g id="figure_1">
  <g id="patch_1">
   <path d="m0 280.51h209.95v-280.51h-209.95v280.51z" fill="none"/>
  </g>
  <g id="axes_1">
   <g id="PatchCollection_1">
    <defs>
     <path id="m11f59e51d8" d="m192.35-130.95-3.6841 2.618-20.351 14.861-11.901 8.4158-5.0681 3.658-3.8731 3.0006-2.9748 2.6242-1.6763 1.7344-1.2625 1.4674-1.0444 1.311-1.9658 2.674-4.1016 6.1428-9.0722 14.275-2.0531 3.0062-2.1468 2.9031-2.6838 3.2347-3.6225 3.8639-3.6861 3.6058-4.7331 4.3758-3.9641 3.7695-7.1417 7.1861-1.5462 1.7973-1.9126 2.8471-0.59637 0.67286-0.68384 0.63792-2.4839 1.914-4.0008 2.7025-3.3414 2.0294-2.3315 1.219-3.5588 1.6106-2.3509 0.8724-1.147 0.33017-1.1126 0.22112-1.0615 0.069384-0.98799-0.13928-0.90274-0.39437-0.83451-0.58635-3.0327-2.7247-0.79669-0.63516-0.84091-0.455-0.88274-0.20184-0.85107 0.013258-0.69758 0.16931-0.38276 0.28603-0.10373-1.9768-0.10839-4.8305-0.17179-2.446-0.41337-2.5205-0.84116-2.7676-1.096-2.5071-1.3523-2.4672-1.9124-2.9199-2.2601-3.0205-2.4195-2.9335-1.9981-2.2471-4.1437-4.3078-4.7695-4.5287-2.53-2.1941-2.311-1.8012-1.669-1.1653-1.2378-0.96914-0.60336-0.62151-0.78292-1.2167-0.37775-1.0456-0.13439-0.73859 0.055736-1.8807 0.39573-1.7986 0.86148-2.5746 1.8465-4.6695 1.1814-2.4839 2.2225-4.3276 0.71807-1.6443 0.4373-1.2262 0.45631-1.8132 0.21579-1.6906 0.19569-3.1157 0.19149-1.6306 0.82479-4.0826 1.461-6.2263 0.63629-3.3434 0.38074-2.8984 0.1533-2.5493-0.057629-2.076-0.26457-1.9516-0.3657-1.4138-0.38315-1.0272-0.46763-0.97916-1.0218-1.6913-1.1956-1.6884-0.85495-1.0487-0.77166-0.8017-0.90551-0.75825-0.86274-0.55616-0.69789-0.3468-0.87452-0.31107-0.85218-0.15889-0.73962-0.00279-0.60721 0.10575-0.74524 0.27902-0.56214 0.32926-0.8404 0.67606-2.3787 2.2517-1.2739 0.87891-1.182 0.49854-0.9597 0.16839-1.2856-0.11338-1.4624-0.67243-0.99581-0.95157-0.68227-1.1307-0.37482-1.0757-0.19903-1.1357-0.046798-1.2978 0.13614-1.6222 0.45885-3.0371 0.47025-2.3631 0.4045-1.3594 1.139-2.5669 0.9866-1.6902 1.4327-2.0665 2.0531-2.4851 1.4806-1.5852 2.1091-2.0698 2.7004-2.4699 3.1947-2.733 4.7597-3.8055 9.8178-7.608 5.8452-4.9991 4.0498-3.1984 1.8097-1.5316 2.1204-2.0946 1.3687-1.6495 1.3336-1.9468 1.2879-2.3114 1.1912-2.636 1.114-3.274 0.55734-2.4602 0.33447-2.8624 0.037614-2.1969-0.091423-1.7964-0.36433-3.0567-0.49704-2.5504-1.0823-3.7103-1.3409-3.1775-0.75866-1.4471-1.1108-1.8501-3.8783-5.6892-0.56194-0.89522-0.24438-0.66318-0.19501-0.12638-0.07505-0.36184 0.071395-0.84492 0.57704-2.2336 0.91706-2.4104 1.2457-2.637 1.3399-2.4071 1.5333-2.4009 1.3231-1.8438 1.4162-1.7865 2.9742-3.2471 2.2737-2.1085 2.3691-1.9107 2.2743-1.5861 2.3229-1.3849 2.0967-1.0502 2.1144-0.86635 3.6579-1.0252 2.397-0.3315 2.3579-0.048278 2.1945 0.2269 1.5249 0.32816 1.4731 0.45458 1.9726 0.7853 7.9828 3.7793 4.2656 2.2277 3.7428 2.1986 2.5436 1.6774 5.8283 4.1908 2.2727 1.5286 3.0954 1.8945 4.9742 2.7746 2.5004 1.6552 1.2677 0.96657 1.3629 1.1498 2.4863 2.4256 1.1848 1.317 1.579 1.9041 2.9077 3.7723 3.3321 4.6021 2.4271 3.5993 3.299 5.1356 1.2217 1.7496 1.2534 1.4718 1.2964 1.0496 1.1418 0.56007 0.67734 0.20359 0.64378 0.12027 1.0885 0.065829 0.95678-0.066656 1.8302-0.40246 3.675-1.4224 0.71689-0.22066 1.0336-0.18611 0.79269-0.018056 0.73098 0.083033 1.5173 0.42646 1.2501 0.55715 1.1009 0.61699 1.1973 0.78458 1.2758 0.95082 1.3285 1.1045 2.3964 2.2686 1.9748 2.1257 2.2468 2.7099 2.6988 3.7385 2.1405 3.4441 0.68802 1.2571 0.78366 1.7405 0.43411 1.4806 0.20625 1.5458-0.047258 1.5985-0.36885 2.1014-0.5379 1.9006-0.72314 2.0839-2.2285 5.9273-1.1153 3.661-0.61843 2.709-0.57256 3.4862-0.19518 1.7028-0.20065 2.9568-0.002446 2.8195 0.13922 2.2983 0.26404 2.4421 0.4655 3.0262 0.52744 2.7087 0.72747 3.1487 1.281 4.667 1.1001 3.365 0.35771 0.93038 0.23387 0.40236" stroke="#bdc660"/>
    </defs>
    <g clip-path="url(#p3c3ec63b8c)">
     <use y="280.512" fill="#bdc660" stroke="#bdc660" xlink:href="#m11f59e51d8"/>
    </g>
   </g>
  </g>
 </g>
 <defs>
  <clipPath id="p3c3ec63b8c">
   <rect x="7.2" y="7.2" width="195.55" height="266.11"/>
  </clipPath>
 </defs>
</svg>
