<?xml version="1.0" encoding="UTF-8"?>
<!DOCTYPE svg  PUBLIC '-//W3C//DTD SVG 1.1//EN'  'http://www.w3.org/Graphics/SVG/1.1/DTD/svg11.dtd'>
<svg width="278.77pt" height="280.51pt" version="1.1" viewBox="0 0 278.77 280.51" xmlns="http://www.w3.org/2000/svg" xmlns:xlink="http://www.w3.org/1999/xlink">
 <metadata>
  <rdf:RDF xmlns:cc="http://creativecommons.org/ns#" xmlns:dc="http://purl.org/dc/elements/1.1/" xmlns:rdf="http://www.w3.org/1999/02/22-rdf-syntax-ns#">
   <cc:Work>
    <dc:type rdf:resource="http://purl.org/dc/dcmitype/StillImage"/>
    <dc:date>2024-07-04T12:08:31.480409</dc:date>
    <dc:format>image/svg+xml</dc:format>
    <dc:creator>
     <cc:Agent>
      <dc:title>Matplotlib v3.7.1, https://matplotlib.org/</dc:title>
     </cc:Agent>
    </dc:creator>
   </cc:Work>
  </rdf:RDF>
 </metadata>
 <defs>
  <style type="text/css">*{stroke-linejoin: round; stroke-linecap: butt}</style>
 </defs>
 <g id="figure_1">
  <g id="patch_1">
   <path d="m0 280.51h278.77v-280.51h-278.77v280.51z" fill="none"/>
  </g>
  <g id="axes_1">
   <g id="PatchCollection_1">
    <defs>
     <path id="m57c0ecb376" d="m247.02-249.73-1.5861 1.7697-0.75743 1.0194-0.53804 0.96618-0.20413 0.50049-0.15431 0.5092-0.18501 1.0377-0.062417 1.2681 0.07273 1.8005 0.30589 3.873 0.014628 1.2073-0.041064 0.59351-0.087125 0.57543-0.14 0.56209-0.28689 0.74952-0.43527 0.81566-0.28228 0.44344-0.94868 1.3003-4.2318 5.1413-2.1538 2.6831-0.080092 0.016062-0.17151 0.23882-0.10396 0.35064-0.118 0.86988-0.027942 0.63317 0.018349 1.2399 0.19156 3.3621 0.01478 1.1043-0.032278 0.78531-0.1144 1.0583-0.347 1.6367-0.49157 1.4746-0.59085 1.3234-0.27421 0.5216-0.84739 1.4046-1.2184 1.7415-2.1856 2.9065-1.0097 1.4287-3.3681 5.2099-1.2311 1.7777-0.65885 0.85263-0.5627 0.65424-1.1776 1.171-0.6968 0.59899-1.0522 0.81112-3.0914 2.1372-1.9559 1.3993-0.94982 0.71302-0.90942 0.74995-0.68459 0.64517-0.38014 0.40234-0.60121 0.72815-0.35103 0.50668-0.30492 0.53728-0.2939 0.79636-0.056592 0.35267-0.004793 0.45767 0.086843 0.50101 0.17046 0.47146 0.22512 0.43832 0.31952 0.5128 0.33412 0.45401 1.7571 2.1807 2.4324 2.7028 1.0862 1.03 0.8575 0.66503 0.85782 0.49768 0.6084 0.26844 0.61088 0.19773 0.81664 0.16243 0.94234 0.073078 0.89396-0.01971 0.94617-0.10372 0.80589-0.14446 1.4446-0.35286 2.9924-0.89133 1.1867-0.31337 1.5528-0.30288 1.3296-0.14544 1.3494-0.013161 4.2256 0.15676 1.6824 0.007093 3.9476-0.072755 1.4071 0.079498 0.8103 0.11032 0.76141 0.16821 0.73282 0.24422 0.7442 0.34595 0.66365 0.40825 0.58917 0.47425 0.48795 0.50483 0.36282 0.46781 0.39518 0.64156 0.27108 0.54375 0.34684 0.83749 0.31535 0.92805 0.20992 0.75837 0.34178 1.713 0.2193 1.7939 0.12906 1.9259 0.04779 1.8196-0.010766 3.8534 0.075757 1.6635 0.15627 1.3957 0.34482 1.7242 0.39694 1.343 0.64086 1.6761 2.7861 6.1319 1.4485 3.3909 0.46781 1.2702 0.33867 1.0781 0.36487 1.51 0.25644 1.8371 0.21771 3.0396 0.06635 2.1435 0.016456 3.67 0.024256 0.91172 0.064859 0.48918-0.24608 0.023878-0.42327 0.2454-0.62214 0.61078-0.60569 0.86046-0.44577 0.86376-0.42632 1.141-0.22195 0.82498-0.17351 0.8878-0.35816 2.8141-0.4325 2.3784-0.51096 2.0888-0.35973 1.2406-0.56879 1.7194-0.91506 2.4535-3.2077 8.2219-1.7037 4.5587-0.49013 1.2223-0.6576 1.488-0.90348 1.8317-1.4121 2.6168-1.9562 3.3945-3.1329 5.1493-1.0648 1.8354-0.56097 1.1004-0.61364 1.4727-1.0034 3.4468-0.27105 0.75221-0.71517 1.4468-1.0003 1.4885-6.1536 7.5585-1.2049 1.3008-1.1853 1.0388-1.0179 0.65808-0.54286 0.25235-1.4123 0.36386-0.99864 0.084779-2.1132 0.016424-1.1364 0.087021-1.263 0.27818-1.0063 0.34321-1.1158 0.47497-1.81 0.91472-1.0981 0.67454-0.92764 0.6719-0.72651 0.5894-0.88643 0.78084-1.5386 1.4549-0.90825 0.94501-0.33062 0.39302-0.34718 0.464-0.61512 0.99618-1.6503 3.1763-0.78176 1.228-0.97744 1.2013-1.7874 2.0531-0.73348 0.92254-0.48357 0.66427-0.31199 0.50217-0.12957-0.022394-0.79986-0.54162-2.8778-2.1456-1.5427-1.0947-5.7903-3.9645-1.0075-0.61377-0.82494-0.38891-0.53733-0.17511-0.28973-0.064127-0.75515-0.064149-0.59183 0.04772-0.66027 0.14298-0.73098 0.24816-1.3491 0.62001-0.77615 0.42013-0.74179 0.44316-1.4219 0.99339-1.32 1.133-0.61077 0.6003-1.2029 1.3256-0.78638 0.97146-0.75343 1.0085-0.71611 1.0297-1.3503 2.1371-1.2333 2.1834-2.7118 5.1653-1.0203 1.7773-0.94972 1.5127-0.40773 0.51426-0.4299 0.38669-0.26441 0.15475-0.2808 0.10014-0.51605 0.054914-0.57499-0.062658-0.75476-0.19781-1.067-0.41538-1.1308-0.5501-1.2589-0.71062-1.0098-0.6618-1.2301-0.93425-1.125-0.97898-1.2047-1.1945-0.7231-0.80021-1.0164-1.2453-1.6721-2.238-1.8107-2.5444-1.3758-2.1152-1.8685-3.2343-0.19522-0.31316-0.085185-0.079803 0.43143-0.15647 0.22032-0.57239-0.098385-1.0886-0.33194-1.0441-0.51692-1.1599-0.91949-1.6741-0.87545-1.413-1.4618-2.1777-2.2946-3.1907-6.5616-8.7213-5.4047-7.328-6.5031-8.4414-1.2793-1.6044-2.5195-3.0274-4.5912-5.6322-3.4723-4.3758-1.7588-2.0885-1.2032-1.2196-1.5284-1.3662-4.7563-3.9465-2.5804-2.2221-0.79534-0.80061-0.71509-0.83316-2.1098-2.7656-0.97697-1.1059-0.68881-0.59138-0.73386-0.4448-0.59924-0.22384-0.61497-0.13702-0.73165-0.086626-2.5362-0.11885-1.2277-0.12504-0.99199-0.17411-0.86994-0.22247-1.6199-0.5471-1.2333-0.54871-1.5885-0.84778-1.036-0.61812-3.146-2.0312-0.96026-0.46026-1.298-0.45541-0.60046-0.28574-0.59099-0.50197-0.60748-0.98722-0.51747-1.3174-1.2439-3.9142-1.1192-3.1861-0.55052-1.3838-0.57574-1.2965-0.5928-1.222-1.1418-2.1319-0.67521-1.0617-0.52831-0.56829-0.53546-0.3877-0.56379-0.29816-0.6195-0.26233-0.38557-0.1216-0.83446-0.10033-0.42477 0.047586-0.35036 0.089859-0.34908 0.14153-0.6127 0.38444-0.56071 0.52068-0.62565 0.83572-0.39465 0.77746-0.27333 0.84321-0.34131 1.5914-0.11649 0.82044-0.26278 2.7313-0.057994 0.28491-0.16794 0.4753-0.2506 0.30941-0.22106 0.098585-0.27968 0.01458-0.32705-0.072273-0.33184-0.13658-0.61398-0.37956-0.34881-0.2949-0.56366-0.6121-0.83711-1.1327-0.86225-1.337-3.1325-5.1737-0.80269-1.2452-0.82537-1.175-0.81992-1.0168-2.2846-2.4637-3.5391-4.0938-1.251-1.2742-1.3609-1.1482-1.402-1.1021-4.0815-3.3373-0.96432-0.84595-1.1681-1.1046-1.1509-1.2379-1.4483-1.6365-1.9114-2.0327-1.1832-1.1487-1.1835-0.97752-1.1556-0.70972-0.97151-0.34806-0.77532-0.065629-0.42976 0.22941-0.32663-0.33241-0.42198-0.85981-0.30341-0.82692-0.41922-1.702-0.13804-1.2093-0.002596-1.3281 0.05104-0.73669 0.19987-1.5917 0.40002-2.0809 0.37707-1.4405 0.24685-0.78324 0.47406-1.2821 0.45477-1.0475 0.70565-1.4065 0.7123-1.2518 0.87479-1.4118 2.7836-4.3142 1.2206-2.0057 0.75144-1.3562 0.46853-0.94591 0.26868-0.70751 0.2316-0.93268 0.17597-1.2438 0.11431-1.379 0.070902-1.6146 0.012844-1.9668-0.10693-3.12-0.22725-4.0125-0.045528-2.6871 0.031942-0.80398 0.12157-1.1909 0.11096-0.60878 0.15463-0.59395 0.20997-0.56896 0.4424-0.79991 0.33408-0.45597 0.81423-0.92649 0.7108-0.72165 0.78277-0.58936 0.60304-0.27787 0.40849-0.1216 0.54911-0.091957 1.1305 0.018208 1.7705 0.21978 1.1279 0.094296 1.6962 0.063993 2.0694-0.028192 2.4947-0.18592 1.9625-0.2598 1.6124-0.35118 1.1896-0.3824 1.0064-0.4111 1.5383-0.80558 0.7972-0.54655 1.2986-1.0552 1.2146-1.074 1.3895-1.3662 0.59178-0.66624 0.76449-0.99594 0.49762-0.77912 0.31594-0.58111 0.33628-0.73254 0.27292-0.732 0.39856-1.5087 0.80349-4.696 0.41718-1.6021 1.1128-3.5722 0.23875-1.0204 0.21864-1.2966 0.10047-1.2041 0.010162-1.3125-0.089657-2.4959 0.026791-1.6874 0.11146-0.72412 0.081945-0.27145 0.097555-0.19898 0.095644-0.10223 0.1099-0.028853 0.20762 0.022874 0.60091 0.27698 2.7363 1.5291 1.4284 0.74043 1.6227 0.7225 1.1271 0.40451 1.1622 0.30669 0.55646 0.099496 0.90855 0.07989 0.54736-0.013345 0.45852-0.055977 0.7492-0.20631 0.25771-0.11427 0.46227-0.2795 0.43204-0.36324 0.40512-0.4458 0.51158-0.72728 0.31023-0.53414 0.73823-1.5127 0.39503-0.90481 1.5671-3.9313 0.67715-1.3496 0.8151-1.2074 0.57074-0.6304 0.62477-0.57198 0.70297-0.54539 0.86892-0.5389 1.371-0.6487 1.6144-0.56476 1.376-0.35181 1.4755-0.25532 2.0201-0.18752 1.9075-0.028381 1.7878 0.085204 1.3464 0.16081 1.3924 0.2311 1.5816 0.32919 1.3526 0.35736 1.4689 0.48654 1.3619 0.51443 3.7901 1.6158 1.692 0.65553 1.8768 0.60385 1.5177 0.34338 0.83313 0.10416 1.6308 0.060073 5.6856-0.19868 2.1746-0.013644 1.5336 0.065252 0.88989 0.076525 0.91606 0.1177 0.99039 0.22392 0.41373 0.15667 0.29878 0.15855 0.3378 0.26224 0.27818 0.34587 0.15732 0.3 0.19321 0.6599 0.19164 1.4445 0.18287 0.85432 0.33661 1.0373 0.4318 0.97701 0.40557 0.72188 0.5948 0.84299 0.43351 0.50331 0.47617 0.46591 0.43769 0.35627 0.36917 0.25377 0.94118 0.51244 0.57602 0.2485 1.2849 0.44497 1.9166 0.50826 4.2442 0.92156 1.6443 0.42065 0.78904 0.2527 1.7893 0.68666 0.96913 0.32015 0.79752 0.17021 0.36011 0.042477 0.66615 0.020542 1.0329-0.086364 0.84386-0.14955 1.0922-0.25857 4.7117-1.3026 2.3924-0.5555 0.94378-0.15947 1.1018-0.12285 1.1145-0.045161 1.0423 0.030413 1.1878 0.11354 1.2069 0.18865 1.0917 0.23586 1.3662 0.39198 0.96124 0.33746 1.0518 0.41861 3.5421 1.6076 0.75241 0.2969 0.96199 0.31373 0.83646 0.21293 0.95484 0.17141 1.1313 0.095849 0.84611-0.00108 1.0827-0.090025 0.94529-0.15614 1.2913-0.32304 1.0262-0.34071 1.0784-0.42957 1.557-0.73924 1.4706-0.80737 0.97296-0.5856 2.2958-1.5236 2.2826-1.6849 3.2249-2.5444 5.6229-4.6417 0.4738-0.37021 0.10225-0.041975 2.837-2.4882 1.8432-1.4665 1.5088-1.1047 1.946-1.2711 0.91514-0.49913 0.61429-0.26929 0.33687-0.11173 0.47028-0.091109 0.47547 0.026061 0.37902 0.17105 0.41729 0.58376 0.14796 0.4042 0.21625 0.8414 0.46663 2.0718 0.23709 0.70267 0.26179 0.53757 0.3269 0.43997 0.1301 0.12344 0.5432 0.2975 0.7533 0.042305 0.8703-0.21749 0.95885-0.4132 1.0256-0.55852 0.9708-0.59627 6.5827-4.3722 4.0708-2.5925 2.3037-1.421 1.1557-0.6651 1.0614-0.53437 0.68795-0.27222 0.62924-0.16194 0.49635-0.026968 0.36985 0.085954 0.34315 0.25194 0.20804 0.31603 0.13208 0.32858 0.16849 0.73232 0.069711 0.66462-0.002099 0.6544-0.12082 1.3292 0.01162 0.74518 0.12082 0.54846 0.38107 0.77475 0.59377 0.76833 0.75492 0.74972 0.40366 0.35031 0.94266 0.76293 1.6069 1.2146 1.1112 0.8043 0.6304 0.40843" stroke="#bdc660"/>
    </defs>
    <g clip-path="url(#pe73a9f9eaf)">
     <use y="280.512" fill="#bdc660" stroke="#bdc660" xlink:href="#m57c0ecb376"/>
    </g>
   </g>
  </g>
 </g>
 <defs>
  <clipPath id="pe73a9f9eaf">
   <rect x="7.2" y="7.2" width="264.37" height="266.11"/>
  </clipPath>
 </defs>
</svg>
