<?xml version="1.0" encoding="UTF-8"?>
<!DOCTYPE svg  PUBLIC '-//W3C//DTD SVG 1.1//EN'  'http://www.w3.org/Graphics/SVG/1.1/DTD/svg11.dtd'>
<svg width="227.97pt" height="280.51pt" version="1.1" viewBox="0 0 227.97 280.51" xmlns="http://www.w3.org/2000/svg" xmlns:xlink="http://www.w3.org/1999/xlink">
 <metadata>
  <rdf:RDF xmlns:cc="http://creativecommons.org/ns#" xmlns:dc="http://purl.org/dc/elements/1.1/" xmlns:rdf="http://www.w3.org/1999/02/22-rdf-syntax-ns#">
   <cc:Work>
    <dc:type rdf:resource="http://purl.org/dc/dcmitype/StillImage"/>
    <dc:date>2024-07-04T12:08:43.924550</dc:date>
    <dc:format>image/svg+xml</dc:format>
    <dc:creator>
     <cc:Agent>
      <dc:title>Matplotlib v3.7.1, https://matplotlib.org/</dc:title>
     </cc:Agent>
    </dc:creator>
   </cc:Work>
  </rdf:RDF>
 </metadata>
 <defs>
  <style type="text/css">*{stroke-linejoin: round; stroke-linecap: butt}</style>
 </defs>
 <g id="figure_1">
  <g id="patch_1">
   <path d="m-0 280.51h227.97v-280.51h-227.97v280.51z" fill="none"/>
  </g>
  <g id="axes_1">
   <g id="PatchCollection_1">
    <defs>
     <path id="mcc6a665bad" d="m141.7-251.32 0.45899 0.6626-0.31579 1.1724-0.86025 1.2348-1.2908 1.3076-1.5895 1.3225-1.7759 1.3023-1.8704 1.2601-4.7336 3.0217-1.6199 1.1452-1.3698 1.1536-1.0357 1.1839-0.60526 1.2382-0.10093 1.4601 0.3286 1.5325 1.1257 3.1993 0.42925 1.6365 0.10801 0.80544 0.036471 0.67586-0.11466 1.417-0.35348 1.3573-0.22614 0.57356-0.46269 0.9204-0.58707 0.83096-0.86079 0.82571-1.0025 0.72557-2.5567 1.6702-1.2466 1.0995-0.63996 0.85764-0.57387 1.3491-0.31724 1.5614-0.12502 1.723 0.005508 1.5389 0.083414 1.6002 0.14289 1.5888 0.29165 2.0417 0.44139 1.9898 0.43123 1.4583 0.60563 1.6785 0.83855 1.9287 0.9512 1.8277 1.0558 1.6898 1.1605 1.506 1.2732 1.2648 1.4019 0.95227 0.63482 0.29075 0.87924 0.29692 0.77518 0.18863 1.3687 0.22279 3.6228 0.33403 1.6378 0.26044 1.5991 0.47894 3.3381 1.3107 0.98972 0.32648 0.96867 0.24948 1.279 0.24111 1.2233 0.10722 3.6689 0.073749 1.1572 0.10309 0.67494 0.11121 1.8523 0.53965 3.7694 1.5674 2.0079 0.7036 1.9592 0.45122 4.1315 0.62417 2.0959 0.37026 2.0666 0.54753 1.3189 0.50138 1.286 0.61489 1.0211 0.57812 1.0164 0.65395 1.1134 0.80532 1.0571 0.84972 0.97753 0.86784 0.95981 0.93733 1.5599 1.7061 2.0893 2.5945 1.4233 2.0221 1.101 1.8284 0.68484 1.3075 0.76755 1.6618 1.9264 4.6478 1.2501 2.7684 0.84191 1.6493 0.92108 1.6057 1.0548 1.6119 1.8541 2.4752 7.4489 9.2802 2.2659 2.6547 4.2851 4.6757 1.3013 1.5714 1.1554 1.6284 0.94494 1.7148 0.44099 1.1 0.18311 0.58892 0.41099 2.2119 0.068312 1.5829-0.068124 1.436-0.09559 0.93788-0.98474 6.2501-0.27558 2.4996-0.14591 2.3671-0.029133 2.0672 0.087176 1.524 0.2436 0.62715-0.2908 0.080745-0.48526 0.3451-0.60001 0.54752-0.83105 0.9322-0.80677 1.1125-2.3018 4.0232-1.5908 2.5214-0.5006 0.90155-0.44442 0.92278-0.45294 1.1325-0.34031 1.1252-0.64483 3.1405-0.2442 0.86187-0.69048 1.6693-2.1675 3.7462-2.6 4.682-4.3036 7.4178-1.209 1.9339-1.8249 2.5748-1.3655 1.698-1.1769 1.2786-1.256 1.2257-1.3032 1.1879-5.3017 4.6349-1.3048 0.95279-1.4229 0.89039-1.5075 0.85131-4.6764 2.5039-1.4635 0.86546-1.3176 0.89455-1.0972 0.91782-0.83804 0.90859-0.79783 1.0774-0.088303 0.26549-0.13404-0.34454-0.49512-0.44868-0.77175-0.46601-0.81093-0.3505-0.93162-0.27448-1.1548-0.18452-1.3968-0.065973-2.7809 0.14055-2.7418 0.32288-1.6941 0.31677-1.7507 0.45812-0.97916 0.32192-1.9312 0.7791-1.137 0.55142-1.4546 0.81144-3.9894 2.5219-1.3462 0.95142-2.4808 2.089-1.0953 0.85291-1.4374 0.86401-0.55996 0.25244-0.92795 0.33628-1.0092 0.27921-1.8849 0.3555-1.9204 0.22552-4.5037 0.28392-3.1386 0.30996-2.0838 0.30008-2.1542 0.37654-4.3639 0.85443-4.5273 0.97294-6.6509 1.6812-3.562 0.79316-12.47 2.4724-16.789 3.5536-7.3935 1.5016-4.5738 0.80986-2.9468 0.42494-3.8904 0.38904-1.2795 0.083599-0.50846-0.00595-0.43285-2.2689-0.61024-2.6325-0.53715-1.9793-1.5871-5.3385-0.70961-2.5463-0.93494-3.9491-0.51888-2.7862-0.35374-2.5773-0.24619-2.7633-0.23584-4.2471-0.14104-1.4592-0.18986-0.94819-0.33867-0.83799-0.50301-0.67983-0.37076-0.35645-0.70061-0.53135-1.293-0.77582-2.1191-1.0631-1.156-0.51674-3.3926-1.3946-1.9986-0.88406-1.0891-0.55868-1.0412-0.61037-0.79013-0.53544-0.73772-0.5855-0.61116-0.57471-0.96779-1.0914-0.60594-0.78138-0.75042-1.0672-0.75687-1.2891-0.64705-1.3552-0.53225-1.3972-0.40335-1.4171-0.25042-1.4156-0.062851-1.3922 0.12941-1.2847 0.4681-2.5645 0.14445-1.1693 0.16907-2.3996-0.0056-1.5012-0.20369-2.9577-0.20618-1.7256-0.34093-1.4838-0.52512-1.7345 0.15702 0.088194 0.82277-0.50217 0.83289-0.76655 1.3882-1.4887 1.4755-1.7176 4.6425-5.6016 2.6755-3.0734 1.2137-1.4924 0.75965-1.036 4.4016-6.5527 3.3495-4.7653 0.98004-1.6258 0.35329-0.67368 0.62402-1.3877 0.67532-2.0586 0.24804-1.197 0.12718-1.1901-0.013488-1.2262-0.18278-1.2011-0.48015-1.4461-0.71788-1.4006-1.0484-1.5571-1.2301-1.5204-1.3606-1.4949-1.7931-1.8164-4.7185-4.5143-1.5117-1.4983-1.4468-1.5311-1.3458-1.5799-1.2014-1.648-1.0033-1.7401-0.51446-1.1787-0.36963-1.0786-0.37609-1.4476-0.33959-1.8956-0.24091-2.1358-0.094307-2.1949 0.084221-2.4007 0.24372-2.4542 0.36567-2.5031 0.4587-2.548 1.1118-5.2092 1.2648-5.2786 2.7537-10.798 0.082918-0.54811-0.21846-0.1676-0.011403-0.3821 0.089259-0.31234 0.40934-0.82221 0.67894-1.0061 0.79783-1.0015 1.3795-1.5142 1.159-1.1441 4.1399-3.9103 1.26-1.3708 0.74949-0.91313 1.3052-1.8281 1.2069-1.9904 0.80592-1.5579 1.3621-3.1696 0.60987-1.1069 0.59728-0.8537 1.9399-2.2987 3.2385-4.5818 1.6809-2.1581 1.6035-1.8594 0.86297-1.0899 1.8788-2.6498 1.3121-1.7539 1.3612-1.5356 0.86014-0.82764 0.70756-0.61118 1.392-1.0251 0.6494-0.39898 1.0446-0.54171 1.1466-0.4604 0.93202-0.27344 0.94654-0.191 2.8738-0.3906 5.403-0.58588 1.973-0.17346 2.805-0.088779 4.8594 0.030657 0.64238-0.027441 0.23265-0.061015 11.3-4.2078 4.149-1.616 8.7758-3.6542 1.9119-0.88556 1.1681-0.60998 1.552-0.95781 0.76587-0.56893 0.7092-0.61829 0.52067-0.53916 0.94256-1.2538 2.2453-3.8094 0.54463-0.82248 0.58762-0.76418 0.54177-0.58204 0.59573-0.50701 0.9704-0.57906 1.0767-0.42298 1.1553-0.29746 1.2108-0.19255 1.2464-0.09903 1.2639-0.008009 1.2634 0.089534 1.2436 0.20324 1.2017 0.34355 1.1335 0.52171 0.47175 0.29723 0.74606 0.56985 0.74677 0.67648 0.97542 1.0058 1.3894 1.5923 2.2196 2.6844 1.2513 1.376 0.34602 0.3142 0.52094 0.33059 0.27495-0.10756" stroke="#bdc660"/>
    </defs>
    <g clip-path="url(#p69a8f3658a)">
     <use y="280.512" fill="#bdc660" stroke="#bdc660" xlink:href="#mcc6a665bad"/>
    </g>
   </g>
  </g>
 </g>
 <defs>
  <clipPath id="p69a8f3658a">
   <rect x="7.2" y="7.2" width="213.57" height="266.11"/>
  </clipPath>
 </defs>
</svg>
