<?xml version="1.0" encoding="UTF-8"?>
<!DOCTYPE svg  PUBLIC '-//W3C//DTD SVG 1.1//EN'  'http://www.w3.org/Graphics/SVG/1.1/DTD/svg11.dtd'>
<svg width="257.62pt" height="280.51pt" version="1.1" viewBox="0 0 257.62 280.51" xmlns="http://www.w3.org/2000/svg" xmlns:xlink="http://www.w3.org/1999/xlink">
 <metadata>
  <rdf:RDF xmlns:cc="http://creativecommons.org/ns#" xmlns:dc="http://purl.org/dc/elements/1.1/" xmlns:rdf="http://www.w3.org/1999/02/22-rdf-syntax-ns#">
   <cc:Work>
    <dc:type rdf:resource="http://purl.org/dc/dcmitype/StillImage"/>
    <dc:date>2024-07-04T12:08:32.538598</dc:date>
    <dc:format>image/svg+xml</dc:format>
    <dc:creator>
     <cc:Agent>
      <dc:title>Matplotlib v3.7.1, https://matplotlib.org/</dc:title>
     </cc:Agent>
    </dc:creator>
   </cc:Work>
  </rdf:RDF>
 </metadata>
 <defs>
  <style type="text/css">*{stroke-linejoin: round; stroke-linecap: butt}</style>
 </defs>
 <g id="figure_1">
  <g id="patch_1">
   <path d="m0 280.51h257.62v-280.51h-257.62v280.51z" fill="none"/>
  </g>
  <g id="axes_1">
   <g id="PatchCollection_1">
    <defs>
     <path id="m705fdc2cf5" d="m194.7-142.88-0.28741-0.088637-0.33341 0.010627-0.7896 0.18025-0.6196 0.22927-0.7103 0.34147-0.67756 0.40682-0.64657 0.47504-0.53285 0.47293-0.52086 0.56106-0.34245 0.44593-0.41613 0.66852-0.53668 1.1816-0.35237 1.1028-0.32836 1.4272-0.78735 4.7802-0.58321 2.9896-0.40547 1.6014-0.96707 3.1057-0.19285 0.98344-0.075944 1.2215 0.091064 1.2044 0.34916 1.8008 0.89765 3.5516 0.19808 1.0338 0.12607 0.93376 0.064823 1.0132-0.028639 1.0719-0.061797 0.55953-0.27163 1.2264-0.44408 1.0956-0.33588 0.58331-0.33917 0.47634-0.48482 0.55176-0.45874 0.42019-0.51949 0.38104-1.0235 0.51763-0.71237 0.22128-0.66607 0.13235-1.0562 0.096937-1.2782-0.0166-2.1237-0.22588-5.1193-0.8861-2.8559-0.40365-1.8501-0.10655-1.1069 0.040849-0.73172 0.077243-0.98732 0.16766-1.1873 0.29747-0.72124 0.23026-1.7301 0.68053-2.7197 1.29-0.90265 0.48024-0.97266 0.59594-1.1288 0.8575-0.81518 0.81925-0.4075 0.52943-0.53177 0.9213-0.17201 0.38073-0.38677 1.0796-0.39604 1.5482-0.31229 1.6134-0.58636 3.4898-0.47502 1.9506-0.45297 1.3647-0.44682 1.1148-0.52985 1.1205-0.57294 1.068-1.0697 1.7902-1.4086 2.2244-1.8284 2.7937-1.2068 1.7528-4.5438 6.0602-0.91568 1.101-1.1924 1.2739-0.8012 0.75814-0.93959 0.80811-0.69343 0.54865-1.3553 0.96175-1.8177 1.1014-2.7864 1.417-7.4748 3.3862-3.4102 1.4415-2.4799 0.89747-5.3675 1.7364-1.3366 0.52704-0.96945 0.51907-0.55873 0.41546-0.39407 0.40441-0.28885 0.40432-0.25771 0.49685-0.17624 0.48857-0.16787 0.84713-0.018832 1.3503 0.3329 4.3425 0.024822 1.5488-0.079685 1.5189-0.19758 2.1616-0.21734 1.4871-0.98935 4.9819-0.43666 2.8568-0.10859 1.5101-0.096608 4.033-0.13946 1.9107-0.30232 1.4408-0.095801 0.27376-0.25522 0.46057-0.13795 0.063217-1.1727-0.005828-1.1546 0.075714-2.393 0.29045-1.3297 0.083838-0.55866-0.004875-0.57834-0.035123-1.0555-0.14637-1.4288-0.35086-1.6736-0.56556-1.1158-0.43892-2.1689-0.9613-2.9761-1.528-4.2601-2.5048-1.6604-0.7639-0.95191-0.3082-0.88021-0.21985-4.7439-0.83434-2.919-0.6109-3.7152-0.66294-1.0192-0.33883-0.5991-0.36188-0.46583-0.46988-0.34949-0.57799-0.31992-1.2326 0.036733-1.3791 0.22048-1.0334 0.44824-1.3999 0.3937-0.9127 0.5106-0.88247 0.6637-0.8437 0.38866-0.41273 1.4495-1.2815 1.9983-1.4483 3.7199-2.4539 0.68338-0.51571 0.70221-0.64556 0.49601-0.58863 0.58685-0.94602 0.74422-1.7197 0.44631-1.4399 0.157-0.73383 0.13419-0.98201 0.049804-1.7025-0.15394-2.0541-0.92352-6.3959-0.18572-2.2341 0.026422-2.181 0.087788-0.84379 0.1797-1.0719 0.75439-3.3557 0.1809-1.0259 0.19206-1.4076 0.20519-2.1574 0.5234-8.2254 0.056302-1.633-0.03537-0.91955-0.10723-0.88554-0.21217-0.87057-0.15559-0.41128-0.36154-0.65877-0.31385-0.40506-0.30851-0.31923-0.86296-0.6808-1.0057-0.60561-3.5245-1.7999-1.5463-0.89407-1.5089-1.0125-1.8378-1.4365-2.1402-1.9451-2.324-2.3788-2.2839-2.6385-1.7821-2.2678-1.3078-1.7843-1.3058-1.9208-0.97237-1.5721-0.80178-1.4338-0.94134-2.0156-1.8782-4.7923-0.7547-1.8204-2.3222-5.4105-0.97645-2.15-0.94837-1.8924-1.0804-1.8543-1.0519-1.4753-0.77939-0.88686-0.82782-0.7651-0.7108-0.52031-1.4978-0.7613-1.0593-0.36812-3.4324-0.87958-1.2253-0.35656-1.5201-0.58897-1.2027-0.63356-1.1036-0.69586-4.1483-2.9631-2.5715-1.7398-1.8673-1.3904-0.7747-0.63548-1.2133-1.1045-0.64445-0.75134-0.057105-0.19196 4.2465-2.0124 2.6544-1.1116 1.5146-0.5313 1.0583-0.30205 0.81373-0.18286 0.9984-0.17061 0.94556-0.095474 1.3453-0.004395 1.4424 0.099246 0.55111 0.07609 2.2556 0.44274 0.92109 0.076062 1.0887-0.061166 0.93766-0.15044 0.84671-0.19167 1.3584-0.391 1.3996-0.48347 1.6732-0.65682 2.2307-0.95476 11.446-5.1046 2.6655-1.066 4.6636-1.7147 1.7478-0.72631 6.9673-3.1808 4.404-1.9496 2.1289-1.11 1.5839-0.97404 1.7803-1.2904 0.87361-0.75409 0.56553-0.57774 0.37629-0.45706 0.37763-0.57191 0.27704-0.58636 0.11752-0.36376 0.12971-0.68558 0.036867-0.70942-0.082085-1.0815-0.25338-1.2785-0.38493-1.3028-0.35407-0.98242-1.0005-2.3075-0.86996-1.6765-0.98646-1.6502-1.0919-1.5573-2.0961-2.524-1.7424-2.3198-1.4131-2.0531-1.2861-2.1472-0.68561-1.3301-0.39948-0.87984-0.42622-1.0989-0.3722-1.2805-0.18566-1.1036-0.01833-1.1752 0.10568-0.70818 0.27096-0.84197 0.24036-0.49755 0.5021-0.7778 0.58076-0.69029 0.46097-0.45908 0.88298-0.74528 0.99694-0.70142 1.0425-0.62564 1.1456-0.59443 1.333-0.59688 2.3325-0.9379 0.72284-0.32884 1.1644-0.62135 0.98767-0.66385 0.97806-0.78155 0.74409-0.65962 0.8394-0.86716 0.46229-0.57771 0.49026-0.76042 0.44483-0.95287 0.47919-1.5431 2.0228-8.8018 0.81548-4.5109 0.32324-1.3222 0.42244-1.2564 0.57754-1.1554 0.70205-0.93991 0.74462-0.70395 0.68818-0.50228 1.1862-0.68256 1.2474-0.58858 1.4662-0.57298 1.3475-0.43222 2.2696-0.64246 0.23761-0.19291 1.0111-0.56029 2.8312-1.3918 1.8449-0.80252 1.3063-0.50584 1.3303-0.45711 1.4871-0.43511 1.9654-0.44784 2.5081-0.44055 2.6623-0.34464 1.6805-0.095637 1.0214 0.024736 1.1937 0.13368 0.72214 0.14119 1.4561 0.43241 1.0575 0.43452 0.99928 0.50158 1.595 0.9389 0.50125 0.2438 0.48226 0.1228 0.40104-0.037974 0.2226-0.10223 0.28019-0.24158 0.33518-0.4817 0.3369-0.69379 0.81654-2.0952 0.46507-0.95443 0.87684-1.2734 0.52621-0.58908 0.84524-0.71682 0.98874-0.56209 0.73116-0.26704 1.4666-0.31637 1.8074-0.19978 3.3988-0.21405 3.7702-0.31401 1.6175-0.082855 1.8048-0.002347 1.4397 0.077409 1.7881 0.20361 1.9997 0.33049 3.3681 0.6499 2.2161 0.32078 1.0792 0.070325 2.1816 0.051332 4.9811-0.079779 1.2671-0.13952 1.3133-0.2292 2.1043-0.4839 5.7344-1.5629 1.7282-0.42216 1.9726-0.40289 1.4224-0.23676 1.487-0.1531 1.2407-0.012389 0.55984 0.040121 1.2385 0.20284 1.3615 0.36084 2.7763 0.90668 1.1277 0.30771 1.4529 0.27033 1.4819 0.16744 1.0837 0.07201 1.1835 0.012183 3.8511-0.17461 3.3124-0.087019 1.6355-0.11244 2.0412-0.2268 2.5615-0.42185 3.1803-0.63681 3.0109-0.83339 4.7411-1.568 1.4919-0.45022 5.3774-1.3552 1.4401 2.4611 1.347 2.5023 1.211 2.5732 0.79804 2.0231 0.64284 2.0645 0.29011 1.2984 0.18614 1.4197 0.021297 1.1736-0.041346 0.56532-0.16894 0.97806-0.11531 0.42333-0.38112 0.99945-0.61721 1.1258-0.86735 1.2185-1.0309 1.1648-1.4225 1.3417-1.3954 1.2119-2.9531 2.5194-4.1308 3.398-2.1415 1.8682-1.098 1.0213-1.219 1.2144-1.0127 1.0924-1.3133 1.5796-1.1374 1.6245-0.68593 1.2353-0.41514 0.99902-0.15794 0.49475-0.21977 1.0161-0.059892 0.7252 0.056916 0.9287 0.13428 0.72464 0.37959 1.3132 0.52629 1.5806 0.12604 0.4645 0.10678 0.65546 0.001174 0.44993-0.085235 0.49962-0.15029 0.44653-0.2204 0.4579-0.6576 0.95359-0.33623 0.3775-0.64143 0.58182-0.74172 0.53493-2.1862 1.326-1.0698 0.75365-1.41 1.1005-1.2999 1.1859-4.7358 5.0111-0.56473 0.65049-0.75633 1.0471-0.5846 1.1099-0.35769 1.1572-0.089011 1.3689 0.17726 1.5545 0.57239 3.1161 0.16134 1.2101 0.058176 1.3626-0.1855 1.5192-0.2973 0.92671-0.53698 1.1193-0.6592 1.0768-0.65649 0.93841-2.3932 3.1641-1.0391 1.5459-0.97432 1.8336-1.0905 2.4472-0.59245 1.6763-0.46455 1.4953-0.26329 1.0106-0.43446 2.1135-0.53158 2.9986-1.2591 5.7509-0.3297 1.6837-0.18347 1.5793-0.037498 1.7611 0.10896 1.2252 0.22365 1.1239 0.47534 1.4693 0.5012 1.1117 0.66519 1.1631 1.4631 2.3431" stroke="#bdc660"/>
    </defs>
    <g clip-path="url(#pa246fdcb33)">
     <use y="280.512" fill="#bdc660" stroke="#bdc660" xlink:href="#m705fdc2cf5"/>
    </g>
   </g>
  </g>
 </g>
 <defs>
  <clipPath id="pa246fdcb33">
   <rect x="7.2" y="7.2" width="243.22" height="266.11"/>
  </clipPath>
 </defs>
</svg>
