<?xml version="1.0" encoding="UTF-8"?>
<!DOCTYPE svg  PUBLIC '-//W3C//DTD SVG 1.1//EN'  'http://www.w3.org/Graphics/SVG/1.1/DTD/svg11.dtd'>
<svg width="371.52pt" height="248.38pt" version="1.1" viewBox="0 0 371.52 248.38" xmlns="http://www.w3.org/2000/svg" xmlns:xlink="http://www.w3.org/1999/xlink">
 <metadata>
  <rdf:RDF xmlns:cc="http://creativecommons.org/ns#" xmlns:dc="http://purl.org/dc/elements/1.1/" xmlns:rdf="http://www.w3.org/1999/02/22-rdf-syntax-ns#">
   <cc:Work>
    <dc:type rdf:resource="http://purl.org/dc/dcmitype/StillImage"/>
    <dc:date>2024-07-04T12:08:46.353040</dc:date>
    <dc:format>image/svg+xml</dc:format>
    <dc:creator>
     <cc:Agent>
      <dc:title>Matplotlib v3.7.1, https://matplotlib.org/</dc:title>
     </cc:Agent>
    </dc:creator>
   </cc:Work>
  </rdf:RDF>
 </metadata>
 <defs>
  <style type="text/css">*{stroke-linejoin: round; stroke-linecap: butt}</style>
 </defs>
 <g id="figure_1">
  <g id="patch_1">
   <path d="m0 248.38h371.52v-248.38h-371.52v248.38z" fill="none"/>
  </g>
  <g id="axes_1">
   <g id="PatchCollection_1">
    <defs>
     <path id="mfb7a51d7d6" d="m335.54-181.83 0.30344 0.24447 0.18816 0.5382 0.07748 1.2901-0.12307 1.834-0.36061 2.0264-0.42004 1.4059-2.0888 5.3917-0.28922 1.0927-0.14983 1.6158 0.095319 1.1552 0.27089 0.97182 0.51048 1.0296 1.2359 1.9028 0.68923 1.2449 0.49695 1.3731 0.22758 1.6543-0.05918 5.5785 0.10261 1.8902 0.24965 1.8002 0.78704 3.1636 0.23374 1.5257-0.02741 1.1582-0.23664 1.1568-0.85007 1.8351-1.2644 1.7412-1.4887 1.6372-1.5801 1.6269-1.0378 1.252-0.38889 0.55262-0.91252 1.6626-0.62797 1.826-0.19007 0.94478-0.1972 2.1347-0.014378 1.6104 0.14233 5.271-0.28201 6.1014 0.012724 2.1284 0.12284 1.5726 0.31457 2.2866 0.68357 3.3957 0.35677 1.4444 1.3494 4.6821 1.5877 4.7182 5.3928 14.369 0.74266 2.2275 0.83586 2.8184 1.0965 4.1451 2.0546 8.5377 0.88361 3.2413 1.0101 3.1971 2.1862 6.1291 0.49103 1.585 0.29468 1.2388 0.11048 0.83966-0.24938 0.80607-0.5834-0.085329-0.82303 0.22858-0.71186 0.2681-2.0227 0.94828-2.2973 1.2706-2.4247 1.4821-2.4589 1.6153-2.4327 1.6961-2.3658 1.7431-2.2688 1.7687-2.6422 2.2092-4.5625 4.0638-1.6622 1.1969-1.7876 0.92469-1.873 0.59334-1.039 0.17047-0.83734 0.055977-0.77028-0.011998-0.98864-0.10032-2.1313-0.48681-2.1336-0.76546-2.1329-0.95427-8.1953-4.122-6.2213-3.3028-1.5233-0.69459-1.9768-0.77114-2.029-0.6766-4.1679-1.1432-3.2878-0.74592-2.8772-0.55237-4.596-0.67477-2.6711-0.29602-9.3421-0.52378-9.9815-1.0842-2.4093-0.13676-2.4254-0.012283-2.8833 0.1814-1.9046 0.25091-2.0319 0.38649-2.4298 0.60942-5.3775 1.6721-0.65938 0.15663 0.053397-0.14642-0.12275-0.33773-0.63683-0.67343-0.48456-0.37316-0.98456-0.62241-1.8188-0.89595-1.1856-0.47081-1.715-0.56416-3.5147-0.82371-3.7461-0.48329-1.684-0.096768-3.0246 0.003127-3.0282 0.20252-3.0091 0.37389-3.3804 0.60935-2.1566 0.49415-3.5654 1.0061-2.0214 0.66982-1.9924 0.72262-2.9445 1.1679-2.8843 1.2499-9.6939 4.6393-2.8829 1.2479-2.4062 0.95815-5.0861 1.8769-5.3349 1.8279-1.7821 0.54958-7.7229 2.1398-3.1409 0.70459-3.4754 0.55571-3.6851 0.40993-6.4728 0.52612-3.1395 0.34088-3.5408 0.50077-5.4125 0.95475-3.2669 0.46512-3.2252 0.27236-1.8352 0.063996-3.7323-0.061329-3.6539-0.30911-2.7951-0.40707-2.3827-0.43027-17.731-3.5705-2.8966-0.70277-2.0273-0.68774-1.5006-0.72761-0.67947-0.43179-0.75284-0.61988-0.539-0.61998-0.47684-0.80756-0.22038-0.5428-0.65562-2.6516-0.39586-0.93826-0.8717-1.0544-1.4573-1.0158-0.46845-0.23245-1.2146-0.42371-1.2361-0.18552-0.62651-0.034088-3.1232 0.020197-2.4531-0.091235-0.83353-0.097338-2.0857-0.38155-1.4526-0.36073-1.7238-0.51689-3.0795-1.1256-5.9593-2.5856-2.5605-1.0409-1.2797-0.44614-2.4923-0.61351-1.7148-0.1591-1.7186 0.018098-1.8781 0.15293-3.8588 0.46632-1.3619 0.11551-1.2783 0.024338-1.2377-0.1177-1.001-0.27668-0.85284-0.47528-0.63047-0.62179-0.54104-0.87014-0.59296-1.6817-0.34933-1.8162-0.088018-0.76078-0.053058-1.3659 0.074695-0.95813 0.2106-0.88902 0.30256-0.51438 14.236-13.669 4.5609-4.4912 10.892-10.921 3.6173-3.5374 2.1407-1.9983 2.9533-2.5857 3.0257-2.4335 2.1686-1.6284 6.2595-4.4979 2.4533-1.884 2.5848-2.2169 2.4598-2.4162 1.391-1.5293 1.615-1.9504 2.3872-3.2756 2.0466-3.1851 4.5601-7.7074 2.2191-3.5819 2.3596-3.4944 2.5614-3.4538 2.2243-2.7846 2.2974-2.7273 4.4308-4.9343 2.1147-2.2136 2.1616-2.1576 2.2176-2.0862 2.3893-2.0802 3.008-2.337 2.7602-1.8528 2.8807-1.6553 3.3793-1.6296 1.902-0.78576 1.936-0.71024 3.6168-1.1053 4.3192-1.0321 6.3727-1.2724 3.9945-0.86502 3.0002-0.79728 2.9389-0.97605 1.9133-0.76922 1.4056-0.64523 2.7215-1.4765 1.6977-1.0993 0.93902-0.67647 1.3671-1.083 1.3144-1.1642 2.0652-2.1174 1.6524-2.0022 1.0125-1.3846 1.2701-1.928 1.732-3.0004 1.2307-2.4052 1.0011-2.1274 4.1529-9.7307 1.7621-3.9025 1.3113-2.597 0.62727-1.1016 0.55196-0.80566 0.3427-0.19875 1.797-2.1842 2.6002-2.9288 2.0031-2.0666 1.546-1.4478 2.3522-1.9952 1.6049-1.2066 1.6764-1.0968 1.7236-0.99112 1.7238-0.86535 1.7149-0.76027 4.3816-1.7024 5.4162-1.8335 9.5157-2.9995 6.9845-2.5368 3.2517 4.4269 1.4546 1.7667 3.8956 4.4608 2.0972 2.5686 4.1403 5.4222 12.687 17.774 3.8238 5.5806 2.7256 3.5291 1.3284 1.8278 1.4518 2.3806 5.1846 9.5411 6.0929 12.546 2.0575 3.8562 1.0564 1.751 1.2499 1.7865 1.6349 1.7319 1.4932 1.0096 1.2488 0.54601 1.5033 0.37908 1.0684 0.10445 1.2772-0.040994 1.1913-0.19137 1.9836-0.63333 1.2149-0.58148 0.76752-0.45024 1.1266-0.80162 1.4447-1.3399 0.63082-0.7114 0.97232-1.2957 0.90968-1.4808 1.0105-1.9898 4.5799-10.635 1.3468-2.805 0.91554-1.7093 0.98974-1.6595 0.88928-1.3322 0.85483-1.1539 1.3614-1.6213 2.112-2.1013 2.2629-1.81 2.3153-1.434 1.5343-0.71448 1.3972-0.46813 0.85631-0.19309 0.88958-0.12724 1.1617-0.051775 1.0796 0.077809 1.8476 0.43978 1.6022 0.70884 1.2352 0.8163 0.28494 0.24924 0.47963 0.76595" stroke="#bdc660"/>
    </defs>
    <g clip-path="url(#p123f820144)">
     <use y="248.384793" fill="#bdc660" stroke="#bdc660" xlink:href="#mfb7a51d7d6"/>
    </g>
   </g>
  </g>
 </g>
 <defs>
  <clipPath id="p123f820144">
   <rect x="7.2" y="7.2" width="357.12" height="233.98"/>
  </clipPath>
 </defs>
</svg>
