<?xml version="1.0" encoding="UTF-8"?>
<!DOCTYPE svg  PUBLIC '-//W3C//DTD SVG 1.1//EN'  'http://www.w3.org/Graphics/SVG/1.1/DTD/svg11.dtd'>
<svg width="311.57pt" height="280.51pt" version="1.1" viewBox="0 0 311.57 280.51" xmlns="http://www.w3.org/2000/svg" xmlns:xlink="http://www.w3.org/1999/xlink">
 <metadata>
  <rdf:RDF xmlns:cc="http://creativecommons.org/ns#" xmlns:dc="http://purl.org/dc/elements/1.1/" xmlns:rdf="http://www.w3.org/1999/02/22-rdf-syntax-ns#">
   <cc:Work>
    <dc:type rdf:resource="http://purl.org/dc/dcmitype/StillImage"/>
    <dc:date>2024-07-04T12:08:36.400867</dc:date>
    <dc:format>image/svg+xml</dc:format>
    <dc:creator>
     <cc:Agent>
      <dc:title>Matplotlib v3.7.1, https://matplotlib.org/</dc:title>
     </cc:Agent>
    </dc:creator>
   </cc:Work>
  </rdf:RDF>
 </metadata>
 <defs>
  <style type="text/css">*{stroke-linejoin: round; stroke-linecap: butt}</style>
 </defs>
 <g id="figure_1">
  <g id="patch_1">
   <path d="m0 280.51h311.57v-280.51h-311.57v280.51z" fill="none"/>
  </g>
  <g id="axes_1">
   <g id="PatchCollection_1">
    <defs>
     <path id="mfcec39e186" d="m202.12-258.66-0.36494 0.76944 0.14348 1.7041 0.80104 2.0108 1.3762 1.8975 1.908 1.4481 2.1673 0.73091 2.4925 0.22197 2.7216-0.16703 3.3068-0.52061 9.5976-2.1482 2.5317-0.49518 2.4637-0.3549 2.5591-0.15482 2.4239 0.16471 1.0166 0.19812 1.0506 0.30502 1.8151 0.75909 1.7322 0.93547 3.6692 2.1681 2.7062 1.4375 2.1633 1.2351 1.9779 1.3933 3.9685 3.0271 4.9378 3.2204 1.8194 1.2851 1.42 1.1541 1.6565 1.67 0.54025 0.64322 1.3683 1.8569 1.0061 1.5895 0.94104 1.6645 1.8138 3.6887 0.80078 1.8852 0.74496 1.9887 0.49611 1.5284 3.5483 13.165 0.42132 1.7615 0.21995 1.2273 0.12908 1.7297-0.21098 1.6315-0.4587 1.0414-0.56642 0.69186-1.0855 0.83223-1.8874 0.92234-1.5885 0.56592-5.1936 1.537-1.534 0.53882-1.3932 0.62182-1.6456 1.1218-0.6832 0.82249-0.57352 1.7405 0.1639 2.0164 0.65047 1.7853 1.0427 1.8891 1.3342 1.9438 1.5491 1.9824 1.9352 2.2813 4.1036 4.6468 2.0919 2.4645 1.9501 2.5008 1.7158 2.5451 1.3754 2.6026 0.58992 1.4884 0.50861 1.5215 0.97188 3.3495 2.6754 10.964 2.7755 10.893 1.3229 5.4748 0.76993 3.5534 0.6516 3.5369 0.48035 3.5077 0.40424 4.9484 0.35032 8.3484 0.064267 6.9973-0.16668 10.408-0.77203 22.26-0.23229 4.1775-5.8637-1.7275-6.0774-1.4966-3.1065-0.83152-10.104-3.2391-5.2395-1.4868-2.7028-0.58077-1.2531-0.15086-1.1607-0.014621-0.91723 0.12385-0.82415 0.2744-1.1496 0.79738-0.98694 1.0966-1.9629 2.4775-1.2103 1.0998-1.4534 0.83723-1.6814 0.63417-1.8463 0.4848-1.9592 0.37996-8.1384 1.1853-1.913 0.38192-1.7721 0.49493-1.5688 0.66106-1.2878 0.8935-0.71132 0.81092-0.84058 1.4089-1.3931 2.8747-0.88226 1.458-1.3031 1.5603-1.5994 1.4822-1.8359 1.4248-2.0241 1.3833-2.1718 1.3532-2.2824 1.3287-4.7309 2.571-8.3431 4.2301-0.38636 0.15114-0.73202-0.46454-0.48622-0.44151-1.7583-1.9336-3.119-3.7721-1.9523-2.2375-1.3707-1.4134-1.0494-0.95059-1.0484-0.80075-0.6629-0.41767-1.5928-0.7331-1.6886-0.48275-1.7475-0.28559-1.7753-0.12581-1.776 0.011254-1.7515 0.13916-1.7014 0.27057-1.6234 0.41799-1.513 0.59437-1.3636 0.8137-0.83712 0.71245-0.76129 0.81788-0.82572 1.0738-0.7653 1.1557-3.1551 5.3529-1.3245 1.7618-0.73165 0.75762-0.99656 0.86882-1.0762 0.79946-2.1809 1.3459-1.6414 0.85714-2.6865 1.2444-12.332 5.1348-5.8301 2.2708-15.879 5.9128-4.8821-13.026-4.4399-11.582-3.0486-7.6207-3.1184-7.3495-3.185-6.9596-3.2362-6.6246-11.459-22.416-4.4091-8.8659-3.0942-6.5819-1.5276-3.4993-1.4185-3.5265-1.1069-3.065-0.97277-3.0971-0.99478-3.9811-0.4688-2.4934-0.3695-2.5102-0.42984-3.996-0.62726-7.3516-0.52599-4.1356-0.34659-1.9411-0.42523-1.9206-1.0431-3.5412-1.0775-2.7713-1.2726-2.6994-1.2272-2.251-1.3337-2.2065-2.8166-4.1875-6.5159-8.8398-2.6219-3.6844-2.4746-3.8148-2.0875-3.6898-1.2067-2.4764-1.0719-2.5424-0.79563-2.2121-0.6933-2.2573-0.5343-2.0378-0.8985-4.28-1.279-7.6555-1.0047-5.192-0.54176-2.2911-0.62225-2.2861-0.72025-2.2884-0.82179-2.269-1.335-3.1492-1.5237-3.0768-1.5229-2.7105-1.6195-2.6068-1.3633-2.0297-2.57-3.5274-2.8386-3.5337-1.046-1.147 3.1318-2.2191 3.7516-2.4184 1.9438-1.1336 2.8499-1.497 2.9914-1.3381 1.8476-0.69484 1.4921-0.48407 2.3133-0.61249 1.4806-0.30979 3.689-0.54942 3.7014-0.30969 3.6877-0.1445 3.6559-0.041502 10.661 0.008113 9.0381-0.30996 3.7032-0.067616 11.261 0.021995 15.151 0.26222 62.211 1.3593 21.983 0.26895 6.5801 0.27977 2.2887 0.14607 1.994 0.21726" stroke="#bdc660"/>
    </defs>
    <g clip-path="url(#p52e9c8a7e5)">
     <use y="280.512" fill="#bdc660" stroke="#bdc660" xlink:href="#mfcec39e186"/>
    </g>
   </g>
  </g>
 </g>
 <defs>
  <clipPath id="p52e9c8a7e5">
   <rect x="7.2" y="7.2" width="297.17" height="266.11"/>
  </clipPath>
 </defs>
</svg>
