<?xml version="1.0" encoding="UTF-8"?>
<!DOCTYPE svg  PUBLIC '-//W3C//DTD SVG 1.1//EN'  'http://www.w3.org/Graphics/SVG/1.1/DTD/svg11.dtd'>
<svg width="343.86pt" height="280.51pt" version="1.1" viewBox="0 0 343.86 280.51" xmlns="http://www.w3.org/2000/svg" xmlns:xlink="http://www.w3.org/1999/xlink">
 <metadata>
  <rdf:RDF xmlns:cc="http://creativecommons.org/ns#" xmlns:dc="http://purl.org/dc/elements/1.1/" xmlns:rdf="http://www.w3.org/1999/02/22-rdf-syntax-ns#">
   <cc:Work>
    <dc:type rdf:resource="http://purl.org/dc/dcmitype/StillImage"/>
    <dc:date>2024-07-04T12:08:34.308189</dc:date>
    <dc:format>image/svg+xml</dc:format>
    <dc:creator>
     <cc:Agent>
      <dc:title>Matplotlib v3.7.1, https://matplotlib.org/</dc:title>
     </cc:Agent>
    </dc:creator>
   </cc:Work>
  </rdf:RDF>
 </metadata>
 <defs>
  <style type="text/css">*{stroke-linejoin: round; stroke-linecap: butt}</style>
 </defs>
 <g id="figure_1">
  <g id="patch_1">
   <path d="m0 280.51h343.86v-280.51h-343.86v280.51z" fill="none"/>
  </g>
  <g id="axes_1">
   <g id="PatchCollection_1">
    <defs>
     <path id="m6f287d4bd4" d="m296.02-241.57 0.33121 0.35114 0.55336 1.2949 0.41848 1.2918 0.54122 2.089 0.49072 2.3527 0.74437 4.6005 0.50961 4.106 0.61486 6.409 1.7902 25.217 0.59651 5.96 0.35598 2.8002 0.96292 6.1573 1.821 10.089 1.3892 6.8008 3.6741 17.201 1.1297 5.8768 0.8513 5.0573 0.69897 4.8393 0.7637 6.2012 0.49966 4.9591 1.2576 14.253 0.55776 4.4375 0.3261 1.9863 0.36549 1.8418 0.44679 1.8305 0.64864 2.0687 0.46614 1.1856 0.62403 1.2933 0.42031 0.71093 0.86921 1.1332 0.54674 0.50082 0.25196 0.135 0.14987-0.035549-2.0524 3.3879-2.9899 4.367-1.1759 1.9002-1.1925 2.3532-1.953 4.4284-0.51762 1.0489-0.67435 1.0343-0.84422 0.93703-0.95352 0.72867-0.53797 0.29853-1.1647 0.48413-1.176 0.3684-5.8249 1.4807-1.5992 0.45802-2.6484 0.89597-3.5442 1.3257-1.8628 0.79721-3.4571 1.6427-0.98495 0.50936-1.2311 0.73592-0.95162 0.76859-0.45633 0.49536-0.43217 0.59872-0.33689 0.60905-0.47 1.1996-0.99408 3.2769-0.45137 0.98761-0.47447 0.76878-0.5663 0.74308-1.4949 1.5635-1.2461 1.1047-2.6271 2.1054-4.7425 3.6276-1.4062 1.1456-0.67246 0.60006-0.17735 0.23818-0.26881 0.57155-0.81011 0.45654-0.76815 0.25131-0.93781 0.19758-1.2388 0.14099-1.3176 0.04127-1.62-0.063371-1.8063-0.17889-9.0248-1.3932-3.3187-0.29286-2.2339-0.082645-2.5888 0.016219-4.2013 0.25702-3.1598 0.36033-7.2598 1.0045-2.8135 0.29484-2.4953 0.1756-3.1395 0.06771-1.7209-0.071147-1.4802-0.14015-1.5538-0.24163-1.4468-0.32562-1.4624-0.43984-1.8362-0.73577-1.5314-0.80745-2.0408-1.3562-4.9188-3.791-2.9943-2.0758-3.206-1.9275-8.4008-4.8407-3.8737-2.1635-2.0585-1.0434-2.0204-0.82555-1.5821-0.37472-1.1204-0.07146-0.65179 0.054094-0.63312 0.14292-0.8476 0.37747-0.421 0.28566-0.50651 0.4517-0.45503 0.52434-0.51154 0.73314-0.63688 1.1358-1.0265 2.3437-2.028 5.7762-0.50863 1.3382-0.77631 1.7445-0.40636 0.74781-0.79391 1.1317-0.41365 0.42603-0.6414 0.46328-0.69391 0.29171-0.46445 0.11605-1.2522 0.13962-1.885-0.01899-4.5011-0.3876-3.7363-0.099041-2.1676 0.078167-1.3943 0.13225-2.0785 0.33059-2.0766 0.49281-1.2539 0.37246-2.2621 0.8022-2.2207 0.93382-4.2158 1.9113-3.1318 1.2113-3.5224 1.082-2.8398 0.68251-3.7796 0.63901-3.661 0.39438-2.4588 0.17124-15.286 0.75305-3.0585 0.27086-2.7036 0.3783-3.7941 0.80143-3.929 1.0491-2.6155 0.92359-4.9397 2.2872-1.5792 0.60854-2.6173 0.8091-2.5628 0.6187-4.3472 0.78695-4.3833 0.57703-4.3201 0.41324-5.1126 0.31788-5.2476 0.12633-4.2596-0.084325-3.801-0.25671-1.9904-0.22992-1.9369-0.30838-2.0449-0.44241-1.9361-0.56573-2.4056-0.98529-1.8655-1.0281-4.6414-2.9508-1.1443-0.58996 0.1347-0.94213 0.73646-8.3453 0.85043-7.7452 1.0409-8.3519 1.2513-8.9193 1.0829-6.8001 1.4419-7.7684 1.1529-5.0124 0.93736-3.2126 0.64224-1.8593 1.5446-3.7788 0.8051-1.7001 0.99842-1.914 1.4254-2.3909 1.2345-1.7442 0.98962-1.1828 0.82271-0.87864 1.6766-1.5906 2.9267-2.4709 1.4865-1.3413 1.0872-1.1327 1.1461-1.4364 0.92228-1.4251 0.68188-1.2677 0.66994-1.529 0.3793-1.0958 0.39212-1.5927 0.15731-1.1941 0.01964-1.2386-0.20715-1.4866-0.48677-1.445-0.49195-0.97521-1.0799-1.5712-1.2181-1.3326-0.81076-0.74417-1.4562-1.148-0.78331-0.53635-1.0359-0.63105-1.3085-0.67583-0.93547-0.40536-2.6029-0.88262-5.3254-1.3358-2.5172-0.73529-2.3424-0.88631-0.97827-0.49223-0.69354-0.43628-0.62331-0.49563-0.62345-0.67938-0.39164-0.61613-0.20195-0.4705-0.1956-1.065 0.033839-0.76698 0.4032-1.5093 0.50736-1.0458 0.81311-1.2638 0.87795-1.1383 1.3094-1.5065 4.771-5.0241 2.0191-2.2556 1.7515-2.1014 4.3745-5.5218 2.1458-2.5522 2.2302-2.5209 1.17-1.2171 1.4392-1.4086 2.5681-2.3596 5.7333-4.9444 9.0836-7.3542 7.2622-5.6044 0.34381-0.10436 0.7176 0.33716 1.2766 0.85141 1.9379 1.5188 3.5419 3.1197 8.449 7.9869 3.8239 3.4975 3.4821 2.903 2.1652 1.5959 1.689 1.0932 1.4599 0.81343 1.4313 0.66125 2.0202 0.67964 1.1955 0.24556 1.2075 0.10557 0.89999-0.033197 0.74726-0.11531 1.6142-0.56578 1.493-0.90321 1.5305-1.2801 1.6472-1.7352 1.2975-1.5913 1.9002-2.6085 1.6012-2.3845 5.8255-9.1221 1.7662-2.6339 2.44-3.3605 0.98176-1.2377 1.7836-2.0499 0.89683-0.93178 1.4564-1.3671 1.4595-1.2142 1.4816-1.1181 1.8031-1.2548 3.0716-1.9808 6.3796-3.8614 2.4618-1.3723 3.2491-1.6422 1.8745-0.83353 2.7184-1.0188 2.8937-0.80272 1.6163-0.31467 2.0785-0.25013 1.9411-0.053297 2.2996 0.21129 1.5476 0.35693 1.4078 0.5039 0.92831 0.4201 1.8225 1.0071 1.766 1.1786 3.1143 2.301 1.2593 0.8611 1.4425 0.81059 1.6904 0.57092 0.49776 0.069706 0.94082 0.015046 1.1993-0.17054 1.6473-0.52073 1.5258-0.73507 1.4735-0.92231 3.2042-2.3754 1.8614-1.0692 2.0006-0.9334 1.5074-0.60827 1.8625-0.57357 0.90738-0.21826 5.1695-1.0439 1.4991-0.42676 2.0497-0.79069 4.1131-2.0746 3.9318-1.6505 1.7023-0.80837 0.89462-0.51583 1.1236-0.79858 0.62301-0.54537 1.3035-1.3996 1.7544-2.3705 1.4058-2.2806 2.4831-4.3367 0.98286-1.4754 1.0343-1.3228 1.3946-1.5336 2.4022-2.2764 2.8475-2.4106 2.5526-1.9792 2.8361-2.0157 1.9122-1.2708 3.4112-2.0996 1.9609-1.1077 3.1505-1.6322 7.1093-3.3996 3.6836-1.8268 4.6814-2.5657 2.8112-1.7215 3.0255-2.0126 3.3641-2.4356 1.1565-0.95669 0.16353-0.23866 2.3552 3.3804 3.4765 5.4365 0.4869 0.61774 1.263 1.3286 0.90162 1.2009 2.4842 4.0863 1.9634 3.593" stroke="#bdc660"/>
    </defs>
    <g clip-path="url(#pfffccdce73)">
     <use y="280.512" fill="#bdc660" stroke="#bdc660" xlink:href="#m6f287d4bd4"/>
    </g>
   </g>
  </g>
 </g>
 <defs>
  <clipPath id="pfffccdce73">
   <rect x="7.2" y="7.2" width="329.46" height="266.11"/>
  </clipPath>
 </defs>
</svg>
