<?xml version="1.0" encoding="UTF-8"?>
<!DOCTYPE svg  PUBLIC '-//W3C//DTD SVG 1.1//EN'  'http://www.w3.org/Graphics/SVG/1.1/DTD/svg11.dtd'>
<svg width="295.86pt" height="280.51pt" version="1.1" viewBox="0 0 295.86 280.51" xmlns="http://www.w3.org/2000/svg" xmlns:xlink="http://www.w3.org/1999/xlink">
 <metadata>
  <rdf:RDF xmlns:cc="http://creativecommons.org/ns#" xmlns:dc="http://purl.org/dc/elements/1.1/" xmlns:rdf="http://www.w3.org/1999/02/22-rdf-syntax-ns#">
   <cc:Work>
    <dc:type rdf:resource="http://purl.org/dc/dcmitype/StillImage"/>
    <dc:date>2024-07-04T12:08:46.661018</dc:date>
    <dc:format>image/svg+xml</dc:format>
    <dc:creator>
     <cc:Agent>
      <dc:title>Matplotlib v3.7.1, https://matplotlib.org/</dc:title>
     </cc:Agent>
    </dc:creator>
   </cc:Work>
  </rdf:RDF>
 </metadata>
 <defs>
  <style type="text/css">*{stroke-linejoin: round; stroke-linecap: butt}</style>
 </defs>
 <g id="figure_1">
  <g id="patch_1">
   <path d="m-0 280.51h295.86v-280.51h-295.86v280.51z" fill="none"/>
  </g>
  <g id="axes_1">
   <g id="PatchCollection_1">
    <defs>
     <path id="maf27cb7177" d="m202.97-243.91 0.28042 0.31593 5.0809 4.8735 2.6475 2.6948 3.0495 3.377 2.7016 3.2358 2.5509 3.2322 2.2191 2.9498 1.9868 2.7641 6.2713 9.0209 10.104 13.606 1.641 2.3001 1.5119 2.2372 0.69712 1.1199 0.833 1.5493 0.69315 1.6672 0.54746 1.5152 1.8057 5.3321 0.42007 1.6738 0.16322 1.2276 0.02347 1.068-0.059439 1.0632-0.17457 1.547-0.47967 2.6258-0.22612 1.4166-0.19209 1.5823-0.035123 1.2634 0.059487 1.0058 0.21591 1.1838 0.38433 1.1841 0.55426 1.1543 0.81102 1.2326 1.9425 2.4594 1.0766 1.4654 1.0019 1.5507 0.88117 1.6142 0.70735 1.6584 0.21686 0.65905 0.19981 0.75988 0.17582 0.97638 0.092936 1.369-0.1334 1.6611-0.39618 1.7475-0.55938 1.387-0.31358 0.54976-0.42052 0.6129-0.5404 0.64296-2.2456 2.2391-1.0981 1.1601-1.0203 1.1474-1.439 1.7345-2.8539 3.7028-1.9828 2.7141-1.1077 1.6298-0.97381 1.5624-0.77124 1.4103-0.33794 0.73301-0.25948 0.69084-0.21408 0.85901-0.025209 1.425 0.37347 1.3371 0.74364 1.1782 0.8885 0.82014 0.47935 0.3335 1.4646 0.81363 2.7338 1.3138 1.2904 0.69502 1.9526 1.2596 2.8549 2.1577 1.1568 0.80784 1.432 0.84423 1.4926 0.69558 1.1144 0.39642 1.1324 0.31156 1.0531 0.20235 1.0432 0.10242 1.7635-0.057373 2.3886-0.28599 1.5343-0.13249 0.75759-0.001882 1.3322 0.15408 1.5075 0.37914 1.4011 0.47525 1.4156 0.54995 0.99023 0.53803 1.1531 0.9794 0.71103 0.89854 0.74996 1.5289 0.30224 1.72-0.024305 0.66093-0.34662 1.7955-0.46801 1.4723-1.1844 3.0365-1.2406 2.8062-1.2734 2.6366-1.1208 2.1442-1.0408 1.8592-1.9443 3.2008-2.0275 3.0077-1.2271 1.6712-1.3971 1.7773-1.5959 1.8929-1.284 1.4302-2.3717 2.4268-1.0782 1.0042-1.2031 1.0402-1.2403 0.97837-1.4639 1.028-1.5158 0.92719-1.5669 0.81626-2.3116 0.94721-2.3995 0.68489-2.457 0.40825-2.5088 0.16903-2.5274-0.030205-2.5483-0.16652-6.6934-0.63591-2.392-0.13983-2.3456-0.006148-2.3283 0.16054-1.8382 0.27011-1.8127 0.40038-1.7797 0.53432-1.9076 0.74902-1.8482 0.91845-2.0281 1.2545-1.9406 1.4525-1.5115 1.3101-1.4589 1.4132-1.4095 1.5041-1.6848 1.9749-4.0868 5.1409-1.2978 1.5324-1.4045 1.546-1.4346 1.4503-1.7662 1.6022-1.6916 1.3509-1.4205 0.97784-1.0826 0.59616-0.53919 0.070457-5.2238 1.8973-7.1169 2.2434-4.0509 1.3713-3.277 1.2732-1.2826 0.56862-1.2892 0.64721-1.2891 0.74127-1.2538 0.82032-1.2003 0.9024-1.7593 1.4922-1.1563 1.0828-1.4982 1.5456-1.9447 2.1905-1.344 1.6336-2.0917-2.2906-1.4106-1.6291-1.1735-1.4877-2.1965-2.9227-1.0789-1.2432-0.55585-0.52023-0.57671-0.4245-1.9319-0.9852-2.392-1.3937-0.49434-0.44317-0.45859-0.53733-0.846-1.2666-0.79207-1.4213-2.7082-5.3978-1.2476-2.3294-1.1384-1.8156-0.82533-1.0487-0.4377-0.42499-0.45142-0.31686-0.46226-0.17877-0.3403-0.032014-0.42966 0.066892-0.48675 0.2093-0.23771 0.19591-0.27661-0.25865-0.59617-0.8819-0.51717-0.92772-0.7028-1.4381-1.4301-3.3902-1.002-2.721-0.6158-2.0507-2.0401-7.819-1.0895-5.3414-0.35071-1.276-0.3685-0.9214-0.3766-0.66451-0.30724-0.41804-0.38377-0.42-0.76584-0.63352-0.62478-0.38754-0.73839-0.37012-2.6441-1.1495-1.1401-0.54793-1.1319-0.67028-0.63863-0.48089-0.54498-0.51583-0.26724-0.31571-0.40313-0.64882-0.34554-1.0835-0.033467-0.90046 0.042546-0.30857 0.21534-0.70611 0.25064-0.46689 0.99982-1.0088 0.90726-0.43399 1.0423-0.2738 2.4974-0.37443 2.9096-0.57153 2.4991-0.68841 1.6983-0.57881 1.2902-0.53294 1.1348-0.5452 1.0999-0.60921 1.7424-1.1665 0.65849-0.51265 1.2467-1.0921 1.5852-1.6118 0.50652-0.60783 0.57871-0.79533 0.55939-0.92561 0.54118-1.1803 0.29198-0.9331 0.14706-0.78077 0.044244-0.51005 0.004106-0.3745-0.10206-0.95827-0.24898-0.94775-0.4152-1.0077-0.35326-0.65994-0.52389-0.81184-0.88088-1.1011-0.7402-0.7518-1.4502-1.142-1.7844-1.093-2.4484-1.309-5.2942-2.7216-1.4989-0.83865-1.4272-0.87211-1.7094-1.1461-1.1419-0.9255-0.86036-0.8702-0.69862-0.87105-0.50704-0.77524-0.32585-0.61847-0.39477-0.96829-0.34315-1.3777-0.066219-0.73906 0.025569-0.81399 0.10039-0.71941 0.55097-2.4123 0.041016-1.1873-0.062148-0.36686-0.21384-0.67169-0.15141-0.33631-0.50169-0.85689-0.62481-0.8304-0.67619-0.76109-0.84563-0.84465-5.2045-4.8083-2.0313-2.0467-0.99158-1.0691-1.3197-1.5322-0.79815-1.0079-0.90192-1.2528-0.83343-1.3124-0.76682-1.3491-1.5842-3.1052-0.7978-1.7169-1.2647-3.1913-2.5482-7.3233-0.69358-1.767-0.47813-1.0611-0.80804-1.4286-0.601-0.85805-0.78056-0.99142-1.3134-1.4374-1.5396-1.4563-1.5426-1.3004-1.2001-0.87895-1.1164-0.69172-1.2035-0.62016-1.5026-0.58588-0.82508-0.23341-1.5075-0.25814-1.2759-0.045355-1.3255 0.086713-2.3277 0.32505-1.362 0.27609-1.5812 0.47248-1.2196 0.47771-0.98684 0.44953-4.0752 2.1852-1.2711 0.61469-1.5844 0.64968-1.3159 0.41175-1.1127 0.23546-0.76502 0.087357-0.68404 0.013701-0.65519-0.055837-0.61551-0.12989-0.95308-0.40075-0.28804-0.17731-0.9907-0.83591-0.88822-1.0726-0.80446-1.2556-0.57046-1.0565-0.42521-0.86934-0.79635-1.8223-0.73614-1.8895-1.5428-4.2606-0.59998-1.4751-0.84625-1.8246-0.41148-0.74465-0.63997-0.91188-0.37187-0.40654-0.88161-0.76216-2.5876-1.8265-4.7167-3.8112-2.1928-1.663-2.1834-1.4511-2.9966-1.8225-1.5993-1.1712-0.88185-0.73744-1.047-0.99748-0.50836-0.63995-0.070908-0.14185-0.009878-0.15012-0.38149-0.33998-0.37784-0.65502-0.26967-0.82503-0.057665-0.88602 0.24978-0.92172 0.53715-0.83161 0.75871-0.68537 0.78431-0.45122 2.1496-0.94856 0.9344-0.53694 0.80252-0.68763 0.53563-0.7645 0.38169-0.90101 0.24322-1.0801 0.099785-1.2571-0.070083-2.2182-0.36673-3.8363-0.050791-1.2353 0.072605-1.426 0.15798-1.1932 0.23678-1.1618 0.35678-1.2389 0.38823-0.9993 0.46502-0.90914 0.54915-0.78967 0.64671-0.63262 0.3567-0.23758 0.5093-0.2306 0.55518-0.15294 0.63201-0.092693 0.66768-0.032587 1.2703 0.065984 0.7335 0.09816 4.8627 1.0199 1.9408 0.2515 0.98511 0.032677 0.80181-0.054233 0.72349-0.1303 0.71845-0.20335 1.1742-0.47099 1.1685-0.60608 1.1678-0.70657 2.1348-1.4751 1.0976-0.85663 1.0707-0.93148 0.96868-0.97386 0.54794-0.63802 0.50372-0.66888 0.44544-0.68199 0.25785-0.46181 0.11439-0.35216 0.22187 0.22413 0.54659 0.28139 0.80348 0.31725 0.60364 0.1796 1.0556 0.24074 2.3761 0.3542 2.8118 0.20236 2.3528 0.007797 2.5963-0.11173 4.749-0.30549 2.3166-0.25168 2.2169-0.36282 2.0704-0.51364 1.85-0.66166 2.6834-1.0906 1.0444-0.31436 0.59993-0.11817 0.77087-0.071263 0.92818 0.049696 0.44868 0.086237 0.72671 0.23326 0.98782 0.48326 0.83299 0.53667 0.7139 0.54278 0.71954 0.65857 0.99724 1.1676 1.6996 2.5094 0.86207 1.1678 1.4515 1.6783 0.75699 0.75378 0.95326 0.85965 5.473 4.8027 0.84007 0.82622 1.6299 1.7916 0.79908 0.81709 2.1599 1.9667 1.7001 1.6259 1.2389 0.98242 0.57728 0.35121 0.42411 0.20388 0.6098 0.20675 1.0504 0.13261 0.4937-0.020181 0.70843-0.10623 0.84168-0.22967 0.66381-0.26173 1.0316-0.56454 2.5018-1.7856 1.7331-1.0731 2.0855-1.0523 1.0092-0.42735 1.9522-0.66099 1.7186-0.43827 1.5588-0.31952 3.5694-0.57983 3.5259-0.40412 6.9571-0.57968 2.0597-0.26441 2.1129-0.3765 1.9869-0.4912 1.8517-0.60311 4.4557-1.6885 5.9116-2.025 1.295-0.57682 0.72264-0.46136 0.62442-0.55386 0.36142-0.41657 0.42143-0.60842 0.32678-0.59758 0.30168-0.7023 0.29746-0.98152 0.14862-0.85902 0.047065-0.79533-0.054322-1.1582-0.1495-1.1026-0.4038-1.9257-0.87655-3.3843-0.45362-1.9352-0.2975-1.8345-0.076869-0.98528 0.005158-1.6327 0.16489-1.5969 0.18739-0.98613 0.39364-1.3841 0.5716-1.3382 0.64488-1.0525 0.30334-0.38758 0.61753-0.63904 1.1802-0.82023 0.54192-0.24287 0.49587-0.16349 1.0905-0.19316 0.60806-0.017267 0.9557 0.087486 0.95598 0.20967 0.99508 0.33004 1.0149 0.43938 1.0608 0.56369 1.9915 1.3001 1.3886 1.0474 1.3961 1.1357 2.6813 2.3288 3.8193 3.4437 3.2996 2.8899 1.5397 1.2202 1.1143 0.77256 1.1265 0.65166 2.1034 0.84 1.9604 0.40431 1.5425 0.018132 0.73733-0.3812" stroke="#bdc660"/>
    </defs>
    <g clip-path="url(#pfed50d8ce9)">
     <use y="280.512" fill="#bdc660" stroke="#bdc660" xlink:href="#maf27cb7177"/>
    </g>
   </g>
  </g>
 </g>
 <defs>
  <clipPath id="pfed50d8ce9">
   <rect x="7.2" y="7.2" width="281.46" height="266.11"/>
  </clipPath>
 </defs>
</svg>
