<?xml version="1.0" encoding="UTF-8"?>
<!DOCTYPE svg  PUBLIC '-//W3C//DTD SVG 1.1//EN'  'http://www.w3.org/Graphics/SVG/1.1/DTD/svg11.dtd'>
<svg width="237.2pt" height="280.51pt" version="1.1" viewBox="0 0 237.2 280.51" xmlns="http://www.w3.org/2000/svg" xmlns:xlink="http://www.w3.org/1999/xlink">
 <metadata>
  <rdf:RDF xmlns:cc="http://creativecommons.org/ns#" xmlns:dc="http://purl.org/dc/elements/1.1/" xmlns:rdf="http://www.w3.org/1999/02/22-rdf-syntax-ns#">
   <cc:Work>
    <dc:type rdf:resource="http://purl.org/dc/dcmitype/StillImage"/>
    <dc:date>2024-07-04T12:08:48.346428</dc:date>
    <dc:format>image/svg+xml</dc:format>
    <dc:creator>
     <cc:Agent>
      <dc:title>Matplotlib v3.7.1, https://matplotlib.org/</dc:title>
     </cc:Agent>
    </dc:creator>
   </cc:Work>
  </rdf:RDF>
 </metadata>
 <defs>
  <style type="text/css">*{stroke-linejoin: round; stroke-linecap: butt}</style>
 </defs>
 <g id="figure_1">
  <g id="patch_1">
   <path d="m-0 280.51h237.2v-280.51h-237.2v280.51z" fill="none"/>
  </g>
  <g id="axes_1">
   <g id="PatchCollection_1">
    <defs>
     <path id="m34afb5304c" d="m198.1-260.83 1.0894 5.0938 0.46833 3.0386 0.11562 1.86-0.043348 1.2512-0.16876 1.1845-0.24098 0.89031-0.34752 0.82632-0.63801 0.99008-0.60882 0.70116-0.66738 0.65582-1.369 1.2354-0.97246 0.96074-0.51451 0.61598-0.47003 0.70815-0.293 0.57966-0.21707 0.57034-0.22594 0.96757-0.080355 0.80662 0.005317 4.9412 0.064539 0.90197 0.096288 0.56625 0.28581 0.97017 0.18874 0.42714 0.33452 0.57746 0.35474 0.48808 0.52516 0.60579 1.1468 1.0727 1.218 0.93 0.67748 0.45086 0.58147 0.346 1.1163 0.54748 1.2649 0.41186 1.1033 0.19327 1.0083 0.077358 2.4969 0.03909 1.2553 0.066178 1.1031 0.14686 0.86691 0.19448 1.1027 0.32699 4.3771 1.5779 1.8918 0.62547 1.5008 0.41406 0.92992 0.17796 0.16399-0.016499-0.83316 3.5908-0.55948 2.8836-0.5005 3.0199-0.5617 4.2701-0.38752 4.1362-0.3056 5.0408-0.14647 3.6067-0.044007 3.9845 0.1138 5.6218 0.38971 6.8871 1.986 25.49 0.35238 3.8609 0.44317 3.8864 0.78507 8.4212 0.42491 7.0745 0.11274 3.6649 0.027185 3.5907-0.16991 6.1002-0.41451 6.216-0.81325 8.4135-1.083 8.9095-1.6509 12.03-0.5258 3.3409-0.60972 3.4443-1.237 6.1715-1.3388 5.817-0.83645 3.0497-0.47483 1.5283-1.1176 3.1203-0.63156 1.542-0.81325 1.8059-0.86566 1.7496-0.89806 1.6603-0.82616 1.4049-1.4692 2.249-0.70723 0.90307-2.6942 2.5476-2.6062 2.2482-2.5365 2.0266-2.5582 1.8734-1.3661 0.87104-2.3978 1.3577-6.0914 3.0493-1.5045 0.8191-0.94405 0.60148-2.3753 1.3991-1.3896 0.70553-2.2853 0.95024-1.7402 0.56634-2.4814 0.62874-4.8926 1.025-3.6659 0.68054-2.8053 0.4463-3.8182 0.4991-2.7472 0.28894-3.5058 0.27216-2.7341 0.14316-3.9577 0.049378-9.4349-0.18057-2.9085 0.049307-1.7179 0.09914-0.083607-0.79641-0.36342-1.7602-0.58012-2.2971-0.76454-2.5356-0.93698-2.5653-1.1149-2.4413-1.314-2.1948-0.41578-0.56734-0.88661-1.0765-1.9375-2.0972-1.0823-1.2525-1.2306-1.727-3.3418-5.5668-2.9437-4.2891-1.0161-1.7605-0.94212-1.8668-2.1734-4.5853-1.0051-2.4268-1.4978-4.1629-0.90418-2.3214-0.60139-1.3521-1.0836-2.088-0.74534-1.2591-1.1901-1.7988-1.2736-1.6995-1.5932-1.8511-1.6674-1.6325-1.6455-1.2918-1.6909-0.95108-1.732-0.50598-0.9752-0.048116-1.0263 0.12372-1.0141 0.28374-1.0507 0.45819-0.54744 0.30717-0.56401 0.36939-0.98749 0.77109-1.8441 1.7015-3.0328 2.997-1.6053 1.4678-1.1596 0.89325-1.1858 0.70875-0.80835 0.33971-0.94328 0.2401-1.023 0.074184-1.1048-0.14104-0.54346-0.14315-0.93236-0.34019-0.93352-0.44167-2.0801-1.1663-1.4119-0.72833-1.2732-0.52553-1.7431-0.6207-2.0462-0.62259-4.314-0.82973-1.2588-0.37653-0.80924-0.354-0.97393-0.61559-1.1164-1.107-0.59977-0.8126-1.0655-1.8371-0.74797-1.543-0.76634-1.7433-1.3933-3.4493-9.0432-23.54-1.6963-4.1723-2.8045-6.5878-1.6213-3.9752-2.5956-6.8365-1.3569-3.8864-2.9956-8.9628-1.2041-3.2659-0.70373-1.7328-1.1511-2.5199-0.60876-1.166-1.113-1.8475-0.94915-1.3325-0.75876-0.92476-0.61282-0.65039-0.4961-0.44108-0.27364-0.18461-0.28234-0.04884 0.72205-0.077793 2.1718-0.040218 1.9739-0.09489 1.9635-0.17177 1.438-0.1919 1.5243-0.28571 2.0403-0.4901 6.717-1.8796 2.6639-0.63036 1.9952-0.33042 7.6373-0.99687 3.0863-0.53599 2.0215-0.4936 1.5616-0.50372 1.7164-0.69682 2.5923-1.2907 2.132-1.2252 2.1152-1.3215 2.1036-1.3897 4.2232-2.9276 10.837-7.6792 4.5498-3.1027 3.4748-2.2729 4.148-2.5832 20.5-12.232 11.38-6.9269 6.7735-4.2097 4.3764-2.7795 3.5366-2.3313 4.0719-2.7977 3.2144-2.301 3.259-2.4353 2.8048-2.1901 3.5705-2.9114 2.9915-2.5326 3.3241-2.9081 10.315-9.3719 4.2833-3.7826 2.341-1.9665 1.6734-1.3337 1.3993-1.0561 1.6268-1.146 2.3211-1.454 2.3309-1.1859 2.3104-0.82283 1.0538-0.23689 0.86344-0.13324 1.8504-0.12417 1.0064 0.026287 1.0127 0.087935 0.80736 0.12697 0.36746 0.14751" stroke="#bdc660"/>
    </defs>
    <g clip-path="url(#p34bc11193e)">
     <use y="280.512" fill="#bdc660" stroke="#bdc660" xlink:href="#m34afb5304c"/>
    </g>
   </g>
  </g>
 </g>
 <defs>
  <clipPath id="p34bc11193e">
   <rect x="7.2" y="7.2" width="222.8" height="266.11"/>
  </clipPath>
 </defs>
</svg>
