<?xml version="1.0" encoding="UTF-8"?>
<!DOCTYPE svg  PUBLIC '-//W3C//DTD SVG 1.1//EN'  'http://www.w3.org/Graphics/SVG/1.1/DTD/svg11.dtd'>
<svg width="365.93pt" height="280.51pt" version="1.1" viewBox="0 0 365.93 280.51" xmlns="http://www.w3.org/2000/svg" xmlns:xlink="http://www.w3.org/1999/xlink">
 <metadata>
  <rdf:RDF xmlns:cc="http://creativecommons.org/ns#" xmlns:dc="http://purl.org/dc/elements/1.1/" xmlns:rdf="http://www.w3.org/1999/02/22-rdf-syntax-ns#">
   <cc:Work>
    <dc:type rdf:resource="http://purl.org/dc/dcmitype/StillImage"/>
    <dc:date>2024-07-04T12:08:49.661922</dc:date>
    <dc:format>image/svg+xml</dc:format>
    <dc:creator>
     <cc:Agent>
      <dc:title>Matplotlib v3.7.1, https://matplotlib.org/</dc:title>
     </cc:Agent>
    </dc:creator>
   </cc:Work>
  </rdf:RDF>
 </metadata>
 <defs>
  <style type="text/css">*{stroke-linejoin: round; stroke-linecap: butt}</style>
 </defs>
 <g id="figure_1">
  <g id="patch_1">
   <path d="m0 280.51h365.93v-280.51h-365.93v280.51z" fill="none"/>
  </g>
  <g id="axes_1">
   <g id="PatchCollection_1">
    <defs>
     <path id="mcf91a6cbfd" d="m232.77-232.87 0.27997 0.048431 0.27134 0.18306 0.49195 0.43738 0.60769 0.64494 0.7524 0.91701 0.94119 1.3213 1.1037 1.832 0.60366 1.1563 1.1414 2.4988 0.69784 1.7183 1.194 3.2385 2.9705 8.8877 1.3455 3.8538 2.5738 6.7792 1.6077 3.9419 2.781 6.5326 1.6821 4.1373 8.9674 23.343 1.3816 3.4204 0.75992 1.7287 0.7417 1.5301 1.0565 1.8217 0.59474 0.80579 1.107 1.0977 0.96577 0.61043 0.80245 0.35103 1.2482 0.37338 4.2779 0.82278 2.029 0.61737 1.7285 0.6155 1.2625 0.52113 1.4001 0.72222 2.0627 1.1565 0.92569 0.43797 0.92455 0.33734 0.5389 0.14195 1.0955 0.13986 1.0144-0.073562 0.93538-0.23809 0.80158-0.33687 1.1758-0.70281 1.1499-0.88576 1.5918-1.4555 3.0074-2.9719 1.8286-1.6872 0.97921-0.76462 0.55928-0.3663 0.54285-0.30459 1.0419-0.45435 1.0056-0.28136 1.0177-0.12268 0.96702 0.047713 1.7175 0.50174 1.6767 0.94311 1.6317 1.281 1.6534 1.6188 1.5798 1.8356 1.2629 1.6853 1.1802 1.7837 0.73909 1.2486 1.0745 2.0705 0.59635 1.3407 0.8966 2.302 1.4852 4.128 0.99666 2.4065 2.1552 4.5468 0.93422 1.8511 1.0076 1.7457 2.919 4.2532 3.3138 5.5201 1.2203 1.7125 1.0732 1.242 1.9213 2.0796 0.87918 1.0674 0.4123 0.56258 1.303 2.1764 1.1056 2.4209 0.92913 2.5438 0.75813 2.5144 0.57525 2.2778 0.36037 1.7455 0.082906 0.78973-3.4211 0.29319-2.298 0.26896-2.7868 0.40516-2.4937 0.44427-1.7486 0.36409-2.9283 0.71514-2.609 0.75684-2.2303 0.74303-3.4894 1.3535-2.1875 0.96684-2.7215 1.3343-2.7489 1.4943-1.7916 1.0537-2.2119 1.3781-8.1396 5.3082-2.9024 1.7669-1.4166 0.81257-2.5251 1.3548-1.6492 0.81558-1.6663 0.77151-2.6012 1.107-2.6075 1.0005-3.6419 1.235-2.9218 0.85654-3.0806 0.77166-1.6031 0.34446-2.7065 0.48274-2.3649 0.31477-1.6328 0.15076-1.6325 0.09008-2.7751-7.37e-4 -1.705-0.1024-1.6958-0.18469-1.6823-0.27163-2.5818-0.59562-1.787-0.53743-1.765-0.62659-1.5337-0.61845-3.1316-1.4495-2.501-1.3-2.5649-1.4236-9.6796-5.5878-2.4311-1.3373-2.9956-1.5615-2.2844-1.1132-2.2961-1.0417-2.4971-1.0285-1.9986-0.7342-1.8696-0.6106-2.6124-0.73214-2.5614-0.5787-2.7232-0.45669-2.4373-0.25893-1.8187-0.096072-2.4055 8e-3 -2.2627 0.16552-1.8927 0.27699-1.5143 0.32806-1.643 0.48308-1.4241 0.54286-1.308 0.61362-1.497 0.85243-1.5453 1.0599-1.5562 1.2622-1.3923 1.2984-1.2377 1.2865-1.946 2.2419-1.1511 1.4295-9.5368 12.701-5.486 7.0784-2.81 3.5081-3.0924 3.5684-1.9225 2.0417-1.7102 1.7012-1.868 1.7431-1.436 1.2677-2.0045 1.67-2.0685 1.603-2.5726 1.827-2.6453 1.6934-2.0062 1.1672-2.6109 1.3961-8.9789 4.4215-2.723 1.4303-2.4687 1.4046-1.9502 1.205-1.9068 1.2927-1.3232 0.99665-1.0093 0.90834-0.12617 0.26823-0.37014-0.028172-0.41212-0.39859-0.59079-1.0278-0.47048-1.2701-0.39812-1.6877-0.26461-2.089-0.094531-2.3538 0.038342-2.0342 0.2545-5.6031-0.006497-1.2916-0.15548-1.9616-0.36595-1.7018-0.42131-1.1317-0.72856-1.295-0.96482-1.15-1.2803-1.046-1.4094-0.80905-1.4046-0.59946-1.4898-0.50822-5.2734-1.5426-4.6369-1.5468-1.7461-0.51056-1.1834-0.24013-1.0624-0.11171-1.3509 0.033599-0.89377 0.14357-0.86962 0.24048-1.1485 0.48681-1.137 0.69068-1.204 0.94834-2.3988 2.1863-1.1431 0.9517-1.0015 0.70718-1.0438 0.59644-0.8935 0.40622-0.93207 0.33763-1.0728 0.29738-1.1084 0.22666-1.5856 0.21707-2.5028 0.16928-4.216 0.13919-2.9282 0.24598-1.7573 0.29556-2.134 0.56474-2.0852 0.79577-1.1899 0.56564-1.1686 0.63085-1.0381 0.61894-2.1081 1.4035-2.1788 1.615-3.8463 3.0956 0.067372-0.55856-0.2367-0.76706-0.47958-0.86882-0.75476-0.92877-0.79086-0.69396-0.90795-0.56903-0.99177-0.41443-1.1293-0.31306-1.5122-0.29536-2.1214-0.31043-1.3837-0.27074-3.0967-0.98938-4.6509-1.2821-1.4019-0.51397-0.61443-0.30867-0.70846-0.45647-0.49654-0.4196-0.42416-0.46797-0.67378-1.1572-0.42756-1.3545-0.16198-0.93165-0.088822-0.97468-4.82e-4 -1.8251 0.13876-1.6077 0.25756-1.6133 0.98496-4.2822 0.83606-3.0288 0.63281-1.8841 1.8461-5.0766 0.63032-1.9037 0.43805-1.5121 0.44838-1.9237 0.19689-1.221 0.18456-2.2438-0.007829-1.2161-0.070314-0.8283-0.13694-0.88295-0.21486-0.94499-0.4439-1.4302-0.47652-1.2734-1.2913-3.1923-1.1669-3.0624-1.0417-2.9838-0.85261-2.6166-1.1819-3.8716-0.54429-2.0677-0.34852-1.66-0.23406-1.6249-0.068966-0.86355-0.004465-1.4483 0.12782-1.1858 0.26237-1.116 0.3769-0.98136 0.47535-0.8861 1.0089-1.3186 0.84637-0.72973 0.61054-0.19762 5.2818-1.3398 3.4337-0.9248 4.1519-1.2161 2.7985-0.88558 3.438-1.1554 4.7169-1.7155 2.7049-1.0616 4.2418-1.807 2.2181-1.0305 2.2467-1.1184 3.3826-1.8302 3.0079-1.7691 4.9263-3.021 3.7784-2.2354 7.9706-4.495 2.855-1.4844 1.9735-0.88822 1.0996-0.41973 0.87757-0.29295 1.5472-0.42845 1.4434-0.29847 1.287-0.18282 2.3626-0.16053 4.5411-0.092504 1.4444-0.1153 1.3731-0.18109 1.3242-0.23673 1.3393-0.30408 1.056-0.30811 0.93474-0.35187 1.2544-0.62471 1.0215-0.65564 1.1632-0.90486 2.2443-1.9259 1.0964-0.86534 1.5899-1.1116 1.7272-1.0677 1.64-0.91028 1.6165-0.79795 7.5577-3.32 1.828-0.85044 1.985-0.99708 1.7494-0.96339 1.569-0.95863 1.4541-1.0032 1.0367-0.80995 1.056-0.93913 0.78911-0.80639 0.81865-0.97632 0.69361-1.0038 0.65088-1.1984 0.53929-1.2742 0.43795-1.3054 0.32461-1.1898 0.29314-1.3118 0.38037-2.2819 0.26079-2.331 0.47256-5.1609 0.79356-4.9741 0.21654-2.0357 0.67084-8.5326 0.28799-2.7318 0.25895-1.9628 0.31566-1.8354 0.18261-0.83077 0.37992-1.3438 0.91116-2.0587 0.92924-1.3046 0.98438-1.0417 1.5688-1.3308 0.69421-0.51648 2.0005-1.3492 5.6834-3.4627 1.6389-1.0598 2.051-1.4891 4.6675-3.556 2.518-1.7583 1.8722-1.1318 1.8137-0.89734 1.939-0.76016 3.2332-1.077 2.2615-0.98 0.81315-0.43935 0.85514-0.53783 0.72928-0.53851 0.63274-0.53831 0.76164-0.75779 0.5689-0.67775 0.739-1.0952 0.60241-1.1807 0.51423-1.2865 1.8278-5.6418 0.70642-1.6817 0.84201-1.5828 0.76827-1.2114 1.1186-1.5573 2.0968-2.5734 1.1812-1.3073 1.3162-1.3506 1.6195-1.539 2.1093-1.8555 1.869-1.5414 4.1678-3.2923 0.20038-0.1183 0.398-0.01883 0.49369 0.11016 0.64492 0.34935 0.51656 0.42794 0.49791 0.52807 0.4704 0.5955 0.75236 1.1281 0.68658 1.1988 0.70839 1.3621 1.0529 2.2549 1.0931 2.8188 0.94818 3.0526 0.34842 0.98785 0.48556 1.0732 0.56513 0.84386 0.84353 0.86997 2.171 1.7793 1.4894 1.415 1.4482 1.6586 1.9102 2.4566 1.3927 1.6608 1.3587 1.3864 0.46129 0.35583 0.12761 0.061766 0.10163-0.024853" stroke="#bdc660"/>
    </defs>
    <g clip-path="url(#p851addca23)">
     <use y="280.512" fill="#bdc660" stroke="#bdc660" xlink:href="#mcf91a6cbfd"/>
    </g>
   </g>
  </g>
 </g>
 <defs>
  <clipPath id="p851addca23">
   <rect x="7.2" y="7.2" width="351.53" height="266.11"/>
  </clipPath>
 </defs>
</svg>
