<?xml version="1.0" encoding="UTF-8"?>
<!DOCTYPE svg  PUBLIC '-//W3C//DTD SVG 1.1//EN'  'http://www.w3.org/Graphics/SVG/1.1/DTD/svg11.dtd'>
<svg width="282.93pt" height="280.51pt" version="1.1" viewBox="0 0 282.93 280.51" xmlns="http://www.w3.org/2000/svg" xmlns:xlink="http://www.w3.org/1999/xlink">
 <metadata>
  <rdf:RDF xmlns:cc="http://creativecommons.org/ns#" xmlns:dc="http://purl.org/dc/elements/1.1/" xmlns:rdf="http://www.w3.org/1999/02/22-rdf-syntax-ns#">
   <cc:Work>
    <dc:type rdf:resource="http://purl.org/dc/dcmitype/StillImage"/>
    <dc:date>2024-07-04T12:08:36.112144</dc:date>
    <dc:format>image/svg+xml</dc:format>
    <dc:creator>
     <cc:Agent>
      <dc:title>Matplotlib v3.7.1, https://matplotlib.org/</dc:title>
     </cc:Agent>
    </dc:creator>
   </cc:Work>
  </rdf:RDF>
 </metadata>
 <defs>
  <style type="text/css">*{stroke-linejoin: round; stroke-linecap: butt}</style>
 </defs>
 <g id="figure_1">
  <g id="patch_1">
   <path d="m0 280.51h282.93v-280.51h-282.93v280.51z" fill="none"/>
  </g>
  <g id="axes_1">
   <g id="PatchCollection_1">
    <defs>
     <path id="m501e508911" d="m258.71-117.47-0.18965 0.23212-0.39491 0.2784-0.67315 0.40967-1.2553 0.68454-1.3073 0.63677-1.4919 0.61807-0.65826 0.22549-2.188 0.6469-0.67622 0.28885-0.31156 0.17246-0.68724 0.48424-0.5958 0.54522-0.36445 0.39749-0.76887 1.0138-0.65666 1.065-0.5424 1.0335-0.53921 1.1964-0.45513 1.1756-1.0846 3.322-0.99669 3.2901-0.8351 2.961-0.72273 2.8692-0.30195 1.0875-0.2791 0.821-0.17567 0.41556-0.54028 1.0469-0.63779 1.0363-0.96169 1.3273-0.78987 0.89099-0.71619 0.6644-0.54734 0.42404-0.52216 0.34957-2.2953 1.3462-1.8418 1.0351-1.1992 0.80608-0.64449 0.4996-0.89688 0.78538-0.62558 0.63026-0.75167 0.90395-0.46809 0.71398-0.2748 0.53818-0.15916 0.40302-0.14082 0.4909-0.15457 1.0577-0.027752 0.70259 0.074794 2.7871-0.02509 0.94448-0.12018 0.8875-0.26901 0.8311-0.22517 0.41177-0.54713 0.66683-0.44117 0.37064-0.45458 0.28348-0.4938 0.20475-0.5494 0.014888-3.4094 0.62058-1.7099 0.25379-1.3076 0.15973-2.1129 0.15536-1.3158 0.006457-1.4892-0.097133-1.952-0.28874-2.8068-0.58355-2.215-0.55931-2.3042-0.70684-2.7849-1.0538-1.2644-0.42417-1.6141-0.43973-3.357-0.82625-1.0875-0.3296-0.90683-0.33538-1.0383-0.47306-1.0135-0.54002-1.2284-0.72363-3.887-2.4645-2.6005-1.5982-0.88483-0.60351-1.8755-1.5052-0.59863-0.40545-0.29351-0.13874-0.28765-0.081734-0.25441-0.018157-0.28727 0.047347-0.29804 0.13923-0.19818 0.16064-0.21466 0.27362-0.14903 0.315-0.062122 0.20877-0.090336 0.63154-0.014111 0.4937 0.030522 0.82899 0.25662 3.102 0.13323 2.2923 0.035371 1.5861-0.02105 1.571-0.1454 2.7598-0.46416 5.8499-0.21079 3.1499-0.10363 2.6073-0.10488 5.2166-0.12107 2.0319-0.17848 1.6231-0.20106 1.1816-0.36212 1.4516-0.32382 0.89766-0.19994 0.43873-0.34256 0.619-0.38753 0.58051-0.80886 0.9903-0.81896 0.82061-0.66597 0.57128-0.4657 0.35403-0.97317 0.62185-0.77899 0.38012-0.50957 0.18746-0.4333 0.11851-0.8061 0.11356-0.64358-0.001539-1.0995-0.14517-0.88752-0.2134-1.3332-0.43182-1.5225-0.60585-1.1148-0.49557-2.8961-1.4182-3.5452-1.8871-6.9204-3.8584-3.7083-2.0143-4.1978-2.158-2.2208-1.0736-2.0683-0.93876-1.6255-0.67218-0.99123-0.36926-0.91248-0.30511-1.1209-0.31751-1.4839-0.29102-1.3694-0.053127-1.2146 0.27802-0.57883 0.3236-0.6558 0.5698-0.5549 0.68121-0.59658 0.98523-0.48979 1.0709-0.47872 1.3586-0.32404 1.2134-0.25355 1.4654-0.11294 1.4958-0.014682 0.8035 0.023831 1.2412 0.15199 2.2853 0.32174 2.9443 0.94787 7.069 0.22969 2.3434 0.068642 1.5132-0.017681 1.0146-0.052103 0.63503-0.4342 3.3893-0.14773 0.60916-0.12436 0.31083-0.32005 0.45905-0.098363 0.090523-0.46864 0.29142-0.27568 0.11043-0.54736 0.14889-0.698 0.11016-1.2732 0.080376-2.2715-0.024656-4.9632-0.17678-3.5849 0.009512-3.48 0.12719-7.23 0.38374-2.6901 0.068744-1.2418-0.001695-2.8147-0.081633-1.7288-0.10071-1.1136-0.10616-0.27805-1.2434-0.33081-1.7683-0.34359-2.0219-0.40469-2.7295-0.20968-1.7025-0.42912-4.7308-0.39844-3.2666-0.57068-3.9726-1.1071-7.1308-0.6008-4.1301-0.36317-2.7724-0.2486-2.7166-0.055555-1.2388 0.001614-1.5708 0.13182-1.9574 0.22489-1.7288 0.40259-2.0856 0.23751-0.96457 0.46484-1.5882 0.37461-1.1177 1.0478-2.8059 0.34748-1.036 0.28733-1.0354 0.18292-0.7898 0.31041-1.7128 0.14143-1.0415 0.16281-1.5786 0.10752-1.5286 0.07818-2.1924 0.003715-2.0116-0.031198-1.3032-0.052677-1.1606-0.12895-1.7148-0.22253-1.8027-0.42499-2.573-0.36938-3.6329-0.14831-0.90606-0.2195-0.91874-1.4253-5.1428-0.53271-2.4349-0.67427-3.8141-1.785-11.11-0.55691-3.0297-0.45118-2.1978-0.60773-2.5884-0.4816-1.784-0.72442-2.3333-2.0803-6.3978-0.3694-1.3605-0.28538-1.3473-0.16214-1.3166-0.027905-0.69705 0.01832-0.70727 0.1419-1.1043 0.51578-2.153 0.068525-0.45698 0.029016-0.67508-0.057495-0.67837-0.15861-0.72044-0.23677-0.63554-0.43635-0.74223-0.64626-0.65758-0.53884-0.33508-0.65538-0.27357-0.8007-0.22093-0.8129-0.14748-0.78626-0.096706-3.2481-0.21621-0.97758-0.079067-0.95666-0.12121-1.0774-0.23354-0.63969-0.22394-0.57069-0.2956-0.46568-0.35152-0.32639-0.32212-0.37961-0.46259-0.24971-0.35696-0.86937-1.4402-0.31768-0.49195-0.25769-0.33773-0.40487-0.39274-0.29869-0.18182-0.20949-0.077694-0.49758-0.054438-0.39643 0.044601-0.40586 0.097658-0.99807 0.36456-2.0751 0.89857-1.4962 0.60458-1.1586 0.4069-0.88455 0.23502-0.42557 0.079239-0.60798 0.065791-0.64155-0.009262-0.35179-0.056903-0.4123-0.13948-0.31512-0.18336-0.42882-0.40086-0.34973-0.51226-0.29968-0.63123-0.30362-0.89533-0.21805-0.8477-0.3842-1.9807-1.162-7.5534-0.48834-2.7921-0.56355-2.5917-0.62366-2.2263-0.603-1.8277-0.50247-1.3743-0.50657-1.2684-0.42631-0.96185-0.55235-1.0903-0.45557-0.76656-0.43842-0.63008-0.37843-0.46442-0.29979-0.31928-0.75645-0.6331-1.2517-0.63574-1.4191-0.40109-0.88754-0.16284-1.5949-0.17751-2.2924-0.07074-1.3699 0.027049-1.3687 0.078083-0.94441 0.086149-1.6827 0.22699-2.6425 0.52717-0.86135 0.14397-0.69433 0.052624-0.30832-0.006311-0.41002-0.048103-0.33521-0.082715-0.45197-0.19489-0.67454-0.54869-0.54461-0.76733-0.44163-0.97639-0.29941-1.0557-0.094236-0.52195-0.073453-0.73347 3.43e-4 -0.61888 0.11622-0.5409 0.08857 0.043961 0.3392 0.038209 1.3274 0.004122 2.2343-0.1572 1.4064-0.1692 2.2731-0.38162 2.0989-0.48138 1.2149-0.33431 1.2006-0.36916 2.1396-0.7427 1.9947-0.75531 1.6878-0.68267 1.6112-0.69877 1.5236-0.71419 3.1614-1.5692 1.5251-0.66488 2.6498-1.0174 2.357-0.77939 1.8907-0.54337 2.393-0.60075 2.7803-0.60468 3.7639-0.68918 2.795-0.41516 1.8057-0.21326 1.5966-0.1395 1.3133-0.070574 1.1721-0.022016 1.963 0.064103 1.2973 0.11812 1.8791 0.27144 1.7835 0.34499 2.3166 0.37249 1.8257 0.20675 1.2568 0.095157 1.959 0.05969 1.7881-0.042056 1.9367-0.15954 1.0255-0.13312 2.4516-0.42847 3.1011-0.71708 3.6111-1.0097 3.1723-0.9965 2.8735-1.0036 2.1905-0.85624 0.84755-0.36492 1.1323-0.53784 0.62155-0.32987 1.3772-0.83088 0.88934-0.62477 0.6039-0.49408 0.60873-0.58691 0.49406-0.55975 0.53234-0.71469 0.45286-0.73372 0.52006-1.0015 0.39963-0.92767 0.37637-1.093 0.24315-0.93858 0.13724-0.73406 0.11852-1.0384 0.058247-1.7224-0.024457-1.2424-0.21408-5.5208-0.082996-3.2956-0.003641-1.4382 0.035984-1.0704 0.1392-1.8575 0.16051-1.4176 0.23873-1.6752 0.3444-2.026 0.83085-4.1283 1.4434-6.2584 1.7498-7.0901 0.28488-0.09188 0.47388 0.17556 0.60491 0.39399 0.65913 0.56305 0.96057 0.98571 3.5833 4.1789 1.4511 1.5095 0.52858 0.47903 0.77344 0.62879 0.40429 0.30008 1.5387 1.0127 1.4131 0.79716 1.4548 0.72944 1.2058 0.55365 2.382 1.0035 2.1952 0.85357 3.2713 1.1875 3.8299 1.3163 2.6125 0.82032 1.4648 0.39599 1.5977 0.36223 1.5 0.27317 2.1431 0.27357 1.3727 0.10782 1.3503 0.046911 0.98497-0.01174 0.96655-0.060104 0.77035-0.091208 4.294-0.86281 0.89484-0.14568 1.9566-0.21371 0.8365-0.03998 1.1589-0.005175 1.1568 0.047213 1.4276 0.12356 1.2101 0.15682 2.1039 0.36526 2.3475 0.49492 11.636 2.7644 7.0345 1.6257 5.925 1.2774 3.7644 0.67719 0.41947 0.10051 0.77356 0.24539 1.0994 0.48878 0.97161 0.58431 0.99064 0.772 1.0236 1.0047 1.1466 1.3477 1.1921 1.5933 1.6353 2.3833 2.0266 3.2029 0.55003 0.8028 0.89914 1.1946 0.78824 0.91836 1.0556 1.0342 0.67197 0.54498 0.70222 0.49198 1.0736 0.62656 1.111 0.5106 1.3248 0.43837 1.3343 0.24719 1.3229 0.022144 0.42008-0.047459 0.85284-0.17629 1.3816-0.47513 0.8029-0.35819 2.27-1.1601 0.82003-0.36596 0.84251-0.26101 0.71459-0.10568 0.82774-0.001569 0.67719 0.0796 0.94846 0.20956 0.76977 0.23986 1.3994 0.5713 0.70173 0.34784 0.90982 0.5041 1.8219 1.139 4.8456 3.316 1.6356 1.0522 1.9313 1.1429 3.8477 2.1709 1.1691 0.71737 1.0839 0.74462 0.84988 0.68283 0.73647 0.72827 0.78052 1.1191 0.12692 0.2707 0.27933 0.92412 0.11341 1.364-0.074617 1.1247-0.18343 1.171-0.35343 1.5383-0.2504 0.90481-0.83808 2.626-1.7853 5.0754-0.97611 2.9628-0.55754 1.9426-0.24932 1.0008-0.45034 2.2534-0.28368 1.9013-0.22205 1.9123-0.2887 3.3942-0.27966 4.6222-0.40565 8.9974-0.22501 6.4201-0.12622 5.4745-0.003357 5.1794 0.12653 3.6494 0.11085 1.939 0.22452 3.01 1.3476 14.146 0.19245 1.566 0.24012 1.4071 0.30433 1.1798 0.1333 0.32787 0.053973 0.044952" stroke="#bdc660"/>
    </defs>
    <g clip-path="url(#pd1e452dcaf)">
     <use y="280.512" fill="#bdc660" stroke="#bdc660" xlink:href="#m501e508911"/>
    </g>
   </g>
  </g>
 </g>
 <defs>
  <clipPath id="pd1e452dcaf">
   <rect x="7.2" y="7.2" width="268.53" height="266.11"/>
  </clipPath>
 </defs>
</svg>
