<?xml version="1.0" encoding="UTF-8"?>
<!DOCTYPE svg  PUBLIC '-//W3C//DTD SVG 1.1//EN'  'http://www.w3.org/Graphics/SVG/1.1/DTD/svg11.dtd'>
<svg width="129.42pt" height="280.51pt" version="1.1" viewBox="0 0 129.42 280.51" xmlns="http://www.w3.org/2000/svg" xmlns:xlink="http://www.w3.org/1999/xlink">
 <metadata>
  <rdf:RDF xmlns:cc="http://creativecommons.org/ns#" xmlns:dc="http://purl.org/dc/elements/1.1/" xmlns:rdf="http://www.w3.org/1999/02/22-rdf-syntax-ns#">
   <cc:Work>
    <dc:type rdf:resource="http://purl.org/dc/dcmitype/StillImage"/>
    <dc:date>2024-07-04T12:08:46.958888</dc:date>
    <dc:format>image/svg+xml</dc:format>
    <dc:creator>
     <cc:Agent>
      <dc:title>Matplotlib v3.7.1, https://matplotlib.org/</dc:title>
     </cc:Agent>
    </dc:creator>
   </cc:Work>
  </rdf:RDF>
 </metadata>
 <defs>
  <style type="text/css">*{stroke-linejoin: round; stroke-linecap: butt}</style>
 </defs>
 <g id="figure_1">
  <g id="patch_1">
   <path d="m0 280.51h129.42v-280.51h-129.42v280.51z" fill="none"/>
  </g>
  <g id="axes_1">
   <g id="PatchCollection_1">
    <defs>
     <path id="m81d1604e42" d="m113.42-162.72-2.4664 1.1615-1.6543 0.88865-1.7368 1.0636-2.1948 1.5654-0.9088 0.76627-1.2253 1.2478-0.8898 1.2569-0.71016 1.587-0.62595 2.1413-0.59475 2.5115-0.1677 1.3405 0.026849 1.3617 0.39414 1.8156 0.33999 1.0039 1.253 3.0708 2.1144 4.8314 0.48376 1.2539 0.4178 1.2822 0.3064 1.2687 0.16661 1.2991-0.04453 1.7233-0.24953 1.7061-0.32375 1.5594-0.45802 1.5392-0.86517 1.9367-1.294 2.3225-2.122 3.5329-0.97109 1.7926-0.82392 1.8298-0.37531 1.0877-0.47729 1.8355-0.22152 1.4049-0.35896 3.4485-0.27202 1.5706-0.48639 1.8176-0.9083 2.9425-0.4569 1.7775-1.2161 6.5935-0.84361 3.6206-0.83826 2.3594-1.1494 2.2136-1.4135 2.1576-1.5739 2.1254-2.7826 3.5615-2.8214 3.263-2.3851 2.4926-2.6703 2.6299-8.7822 1.413-2.1725 0.21372-3.8887 0.25692-2.504 0.33962-1.1552 0.29459-0.55553 0.19947-0.78991 0.37966-0.88131 0.62454-0.56041 0.59267-0.34365 0.52219-0.26082 0.57826-0.17233 0.5871-0.092679 0.51798-0.0537 1.0355 0.10778 1.1322 0.42099 1.6744 0.59384 1.5604 0.69036 1.5049 2.2688 4.4727 1.2385 2.6286 1.032 2.5289 0.70333 2.0902 0.42852 1.5871 0.37594 1.7915 0.41292 2.9747 0.08778 1.3794-0.026631 1.5319-0.18519 1.3812-0.14859 0.61942-0.36887 1.0389-0.4377 0.82758-0.44929 0.62538-0.94844 0.98242-1.6363 1.2912-2.4893 1.7332-1.224 0.72144-1.2666 0.62976-1.4303 0.57174-1.5595 0.51971-2.0807 0.45296-1.1844 0.056961-1.7817-0.29778-1.86-0.79373-1.4263-0.97945-0.79831-0.73685-0.59202-0.67408-0.92366-1.4104-0.53491-1.2844-0.32474-1.9108 0.052695-1.8008 0.25624-1.4049 0.35059-0.82822 0.55221-0.80558 1.2317-1.4863 0.4969-0.85402 0.33506-0.92224 0.093364-0.47196 0.035158-1.0475-0.27554-0.94266-0.47708-0.60566-0.66291-0.48288-1.0227-0.43837-1.1019-0.2266-2.5332 6.82e-4 -0.78621-0.10133-0.92738-0.36322-0.37333-0.23679-0.7179-0.70683-0.36631-0.67552-0.18478-0.70417-0.037694-0.40783 0.046896-0.81501 0.3043-1.2053 0.49374-1.1616 1.4629-2.8547 0.80724-1.7921 0.81268-2.3006 0.36579-1.4524 0.26757-1.8346 0.041633-1.1247-0.037606-0.84132-0.12883-1.0349-0.17817-0.87389-0.45011-1.4957-0.77247-1.7909-1.0775-1.9026-0.80226-1.1825-1.5755-2.0092-1.2458-1.4232-2.7844-3.0125-6.0308-6.1032-5.246-5.6842-0.68774-0.78536-0.73464-0.96317-0.45128-0.72546-0.54611-1.1853-0.37417-1.2542-0.10982-0.547-0.17509-1.5151-0.20508-4.4584-0.40902-2.5266-0.45098-1.7743-1.4495-4.1845 0.19679-0.22701 0.57422-0.34939 5.3076-2.8407 3.366-1.9727 2.8367-1.9861 0.9651-0.78804 1.2113-1.0962 1.5533-1.6343 0.7443-0.93069 0.68131-0.99666 1.1659-2.2687 0.26099-0.64291 0.55382-1.5703 0.59952-2.1104 0.44625-2.3522 0.10872-2.3361-0.16291-1.5665-0.39371-1.8787-1.6642-5.7675-0.54821-2.2709-0.88695-4.2983-0.25125-1.4754-0.31048-2.4932-0.14912-2.4465 0.011208-1.685 0.22452-2.2064 0.33104-1.4747 0.4452-1.435 0.76822-1.9563 3.0594-5.8642 1.0827-2.3388 1.0166-2.4451 0.92875-2.5286 0.79552-2.5327 0.47209-1.7744 1.5327-6.4019 1.2825-5.0484 2.3779-8.3545 0.74458-2.7565 0.62945-2.728 0.44886-2.593 0.30772-2.5809 0.092302-1.8665-0.015723-0.93827-0.29488-2.8813-1.1346-6.6536-0.31996-2.3196-0.059246-2.3079 0.29634-2.137 0.57846-2.1332 0.76894-2.1323 1.5697-3.7153 0.78834-1.5777 1.5294-2.4173 1.8762-2.3942 2.1638-2.367 2.6649-2.5663 3.447-2.9838 4.7767-3.7978 9.8025-7.3083 1.2009-1.0042-0.008265 0.080768-0.020372 0.28265 0.058661 1.284 0.17722 1.0415 0.49725 1.8363 0.67252 1.8145 1.0453 2.1818 0.80607 1.4318 1.2027 1.8604 1.0993 1.5078 2.157 2.7772 5.6132 7.1416 2.2534 2.7285 1.7374 1.8796 5.4952 5.4192 1.3841 1.5479 1.7255 2.1285 2.8433 3.6754 1.3733 1.8903 0.74975 1.1943 1.6504 3.1873 1.1867 1.7753 1.8924 2.26 2.47 2.5845 0.85531 0.97944 0.66497 0.89118 0.47275 0.752 0.60637 1.1892 0.32563 0.82056 0.30556 1.0405 0.26886 1.4867 0.14059 1.3585 0.10074 1.9321 0.051729 15.013 0.31619 6.9423-0.027791 2.1721-0.11004 1.2792-0.24533 1.5459-0.36301 1.5335-0.431 1.3962-0.50546 1.3279-0.72032 1.5522-0.7155 1.2289-0.30872 0.42726-0.15105 0.11396" stroke="#bdc660"/>
    </defs>
    <g clip-path="url(#p1b8e94c2ed)">
     <use y="280.512" fill="#bdc660" stroke="#bdc660" xlink:href="#m81d1604e42"/>
    </g>
   </g>
  </g>
 </g>
 <defs>
  <clipPath id="p1b8e94c2ed">
   <rect x="7.2" y="7.2" width="115.02" height="266.11"/>
  </clipPath>
 </defs>
</svg>
