<?xml version="1.0" encoding="UTF-8"?>
<!DOCTYPE svg  PUBLIC '-//W3C//DTD SVG 1.1//EN'  'http://www.w3.org/Graphics/SVG/1.1/DTD/svg11.dtd'>
<svg width="371.52pt" height="154.43pt" version="1.1" viewBox="0 0 371.52 154.43" xmlns="http://www.w3.org/2000/svg" xmlns:xlink="http://www.w3.org/1999/xlink">
 <metadata>
  <rdf:RDF xmlns:cc="http://creativecommons.org/ns#" xmlns:dc="http://purl.org/dc/elements/1.1/" xmlns:rdf="http://www.w3.org/1999/02/22-rdf-syntax-ns#">
   <cc:Work>
    <dc:type rdf:resource="http://purl.org/dc/dcmitype/StillImage"/>
    <dc:date>2024-07-04T12:08:31.066288</dc:date>
    <dc:format>image/svg+xml</dc:format>
    <dc:creator>
     <cc:Agent>
      <dc:title>Matplotlib v3.7.1, https://matplotlib.org/</dc:title>
     </cc:Agent>
    </dc:creator>
   </cc:Work>
  </rdf:RDF>
 </metadata>
 <defs>
  <style type="text/css">*{stroke-linejoin: round; stroke-linecap: butt}</style>
 </defs>
 <g id="figure_1">
  <g id="patch_1">
   <path d="m0 154.43h371.52v-154.43h-371.52v154.43z" fill="none"/>
  </g>
  <g id="axes_1">
   <g id="PatchCollection_1">
    <defs>
     <path id="m9f04cce8d4" d="m313.91-37.328-5.9428 1.4977-1.6487 0.49756-5.2396 1.7328-3.3275 0.92101-3.5147 0.70376-2.8308 0.4662-2.2558 0.25065-1.8074 0.12426-3.6606 0.096169-4.2561 0.19297-1.3079-0.013464-1.1977-0.07958-1.6377-0.18504-1.6056-0.29876-1.2462-0.34006-3.0682-1.002-1.5047-0.39878-1.3687-0.22417-0.6187-0.04434-1.3712 0.013692-1.6434 0.16919-1.5719 0.26166-2.18 0.44525-1.9099 0.46655-6.3373 1.7272-2.3255 0.53478-1.4514 0.25329-1.4003 0.15419-5.5048 0.088166-2.411-0.056729-1.1927-0.077718-2.4491-0.35451-3.7223-0.71823-2.21-0.36524-1.9761-0.22502-1.591-0.085548-1.9945 0.002593-1.7876 0.091567-4.1666 0.34702-3.7562 0.23655-1.9975 0.22079-1.6208 0.34964-0.80803 0.29511-1.0927 0.62118-0.93411 0.79219-0.58153 0.65102-0.96904 1.4073-0.51396 1.0548-0.90239 2.3154-0.37232 0.76673-0.37042 0.53234-0.30965 0.26699-0.24601 0.11297-0.4432 0.041967-0.53296-0.13572-0.55395-0.26943-1.7627-1.0376-1.1043-0.55431-1.1687-0.4802-1.6092-0.47787-0.79807-0.15604-1.3192-0.14773-1.1288-0.027337-1.8572 0.10569-2.9422 0.38087-2.7718 0.48686-2.1721 0.49493-1.6434 0.48086-1.4702 0.50517-1.4437 0.55902-2.0389 0.8869-3.1289 1.5382-1.1174 0.6192-0.26259 0.2132-0.69257-0.16819-6.9903-2.3874-6.1417-2.0338-6.288-1.9227-3.0983-0.84789-3.0437-0.73298-2.9791-0.581-2.9066-0.38158-2.8259-0.12074-2.7349 0.21936-1.3654 0.26908-1.5291 0.41071-1.7485 0.56736-2.5023 0.93279-2.3782 0.97697-8.727 3.8658-2.443 1.0253-4.9923 1.9421-3.0748 1.0183-2.0192 0.40999-0.8969 0.076508-1.221 0.023412-3.6106-0.095362-1.447 0.02594-1.0581 0.081132-1.6478 0.2545-4.6654 1.0535-1.6867 0.29804-3.2329 0.28274-1.6458 0.082412-1.5288-0.016442-1.5071-0.17168-1.0514-0.24539-1.6115-0.55276-0.99713-0.41972-4.2982-2.0399-2.0005-0.88034-2.5571-0.95576-1.4709-0.60083-0.7245-0.34844-1.2692-0.72842-1.7488-1.1937-4.5541-3.5362-2.4043-1.7209-1.4002-0.8378-1.1163-0.55246-0.92984-0.36863-1.3814-0.36611-0.8854-0.10778-0.55122-0.022449-1.1328 0.047449-0.72571 0.09108-1.0498 0.20785-1.0952 0.2932-4.3748 1.3682-1.3762 0.29293-1.1827 0.1266-1.2247-0.017128-1.4246-0.1943-1.5166-0.39375-1.3608-0.51252-2.041-1.0281-5.4157-3.0547 0.16491-0.14449 0.16051-0.32086 0.39379-1.2348 0.87465-3.9343 2.2183-8.6174 0.52979-2.2952 0.34256-1.929 0.33574-2.6189 0.36994-3.3917 0.36637-4.4759 0.24083-1.1953 0.37316-1.0392 0.31785-0.59374 0.63797-0.86008 0.56329-0.58859 1.1829-0.99528 3.0926-2.2003 1.8701-1.4563 0.94181-0.81157 1.2357-1.1656 1.7659-1.8684 1.4089-1.6567 1.7066-2.2049 1.1883-1.7532 2.3658-3.9428 0.80559-1.0981 0.73428-0.83613 0.61012-0.59387 0.86786-0.70326 1.3471-0.83869 1.5472-0.74311 4.9421-2.0973 4.8733-2.2976 4.4219-2.3273 2.0926-1.2628 1.4254-0.96289 1.4434-1.0517 1.0461-0.86608 1.4806-1.4567 1.8921-2.1935 3.896-4.9543 0.83075-0.91921 0.83268-0.81888 0.69348-0.60346 0.63236-0.49014 1.7189-1.1091 3.0768-1.7476 4.2586-2.5018 1.7911-0.94852 2.0591-0.92318 0.9144-0.33558 1.6245-0.47058 2.6616-0.55126 2.4724-0.33196 1.3226-0.092365 2.9726-0.093073 1.1573-0.11996 0.86937-0.18402 1.188-0.43581 0.85753-0.46916 0.79546-0.58826 0.6739-0.65037 0.65982-0.79876 0.88834-1.3815 0.71255-1.4085 0.72044-1.7234 0.5624-1.7741 0.22114-1.0343 7.7923 7.0475 1.5529 1.2875 0.99365 0.76042 1.5277 1.0525 1.9588 1.1439 1.3832 0.68202 1.9123 0.80206 1.9265 0.67462 1.4809 0.43161 1.3882 0.3307 1.8862 0.34333 6.3482 0.92956 1.605 0.32649 1.816 0.47325 1.5657 0.5049 1.3905 0.55136 3.878 1.8022 1.7648 0.73392 2.8541 1.0086 1.9887 0.57711 1.5816 0.34059 1.14 0.16071 1.7715 0.15964 3.5295 0.22276 2.296 0.25654 1.3971 0.26934 0.85423 0.2315 1.0567 0.36306 1.155 0.49409 1.6069 0.86371 1.1233 0.73441 1.4257 1.0988 1.3387 1.1982 1.4308 1.4489 1.8632 2.123 1.3807 1.7647 1.7367 2.5527 0.46003 0.57401 0.27868 0.26288 0.91144 0.44306 0.47377 0.026506 0.41577-0.074984 0.36885-0.13334 0.60714-0.33528 0.75263-0.6068 0.53892-0.58675 0.5705-0.79903 0.50692-0.90168 0.4202-0.95365 0.37878-1.2408 0.14124-0.79852 0.07137-1.1584-0.22905-5.6033 0.005022-1.7691 0.074144-1.5117 0.82622-9.4584 0.2541-1.9346 0.34167-1.5335 0.22925-0.69218 0.31662-0.72463 0.95292-1.4157 0.80827-0.85401 1.6192-1.428 0.69318-0.49161 0.89439-0.43321 0.92515-0.22759 1.0593-0.055214 0.71924 0.070002 0.66009 0.13693 1.0505 0.3722 0.56253 0.29255 0.87686 0.61834 1.407 1.2328 0.917 0.70436 0.83231 0.44598 0.65746 0.22008 1.2405 0.2173 1.6448 0.071883 1.4991-0.035224 2.132-0.10363 4.1908-0.30219 4.952-0.18288 4.8183-0.015714 3.2399 0.19572 2.7822 0.37332 8.2308 1.579 10.428 1.7396 4.0552 0.62834 1.9975 0.24329 2.1812 0.17501 1.5828 0.055118 2.1404-0.046472 1.6431-0.13387 2.1312-0.29262 8.4047-1.5868 2.678-0.59751 2.5216-0.7449 2.1342-0.7577 2.2375-0.87595 5.019-2.1391 12.867-5.9401 2.358-1.131 3.9504-2.0463 2.345-1.0753 1.1446-0.46045 2.2168-0.72286 4.6735-1.3333 1.5953-0.37657 2.8416-0.57967-0.41124 0.33208-0.25968 0.66611-0.18884 1.2538 0.024791 1.4179 0.23064 1.4682 0.17306 0.6706 0.41414 1.1966 0.4679 1.0355 0.6403 1.1425 0.91907 1.3204 1.2625 1.4604 1.6006 1.5635 3.1792 2.8782 1.2335 1.1928 1.1564 1.2219 1.4962 1.7206 0.71167 0.8765 0.75393 1.0304 0.6152 1.0406 0.36027 0.9284 0.10568 0.67359-0.02847 0.53283-0.09919 0.38659-0.18816 0.37941-0.15551 0.2029-0.79748 0.52953-0.54113 0.15118-0.57889 0.078703-2.9914 0.027944-1.4193 0.14746-0.6938 0.16637-0.71926 0.25067-0.80316 0.37431-0.63121 0.36022-0.61719 0.4033-1.1989 0.91118-1.0648 0.94804-0.72732 0.73204-1.3679 1.5809-0.70959 1.102-0.34867 0.69127-0.62799 1.6146-1.2377 3.7913-0.28596 1.0654-0.30505 1.7744-0.1207 1.3924-0.023811 2.3013 0.3077 4.3644 0.14834 3.3762-0.091612 1.8689-0.27862 1.743-0.11917 0.52265-0.63269 2.014-0.58327 1.471-0.64618 1.4103-1.5188 2.9508-0.5422 1.1871-0.36505 0.93704-0.48157 1.6323-0.26957 1.3858-0.13791 1.0647-0.055025 1.0565 0.090175 1.3849 0.2609 1.3517 0.21735 0.76075 0.68799 2.0003 1.5123 4.0648 0.49196 1.5822 0.21267 0.9448 0.1127 0.81131 0.021971 1.179-0.14359 1.1808-0.19776 0.86294-0.38045 1.1796-0.28242 0.70841-0.81737 1.7065-1.8135 3.2502-1.4936 3.0767-0.46505 0.76834-0.74828 0.85258-0.43263 0.34431-0.93412 0.55536-1.0366 0.44613-1.1122 0.34922-1.189 0.24712-0.87544 0.093018-1.2006-5.26e-4 -0.78719-0.063658-0.32308-0.072364" stroke="#bdc660"/>
    </defs>
    <g clip-path="url(#p5fb97517ce)">
     <use y="154.42907" fill="#bdc660" stroke="#bdc660" xlink:href="#m9f04cce8d4"/>
    </g>
   </g>
  </g>
 </g>
 <defs>
  <clipPath id="p5fb97517ce">
   <rect x="7.2" y="7.2" width="357.12" height="140.03"/>
  </clipPath>
 </defs>
</svg>
