<?xml version="1.0" encoding="UTF-8"?>
<!DOCTYPE svg  PUBLIC '-//W3C//DTD SVG 1.1//EN'  'http://www.w3.org/Graphics/SVG/1.1/DTD/svg11.dtd'>
<svg width="236.62pt" height="280.51pt" version="1.1" viewBox="0 0 236.62 280.51" xmlns="http://www.w3.org/2000/svg" xmlns:xlink="http://www.w3.org/1999/xlink">
 <metadata>
  <rdf:RDF xmlns:cc="http://creativecommons.org/ns#" xmlns:dc="http://purl.org/dc/elements/1.1/" xmlns:rdf="http://www.w3.org/1999/02/22-rdf-syntax-ns#">
   <cc:Work>
    <dc:type rdf:resource="http://purl.org/dc/dcmitype/StillImage"/>
    <dc:date>2024-07-04T12:08:35.227757</dc:date>
    <dc:format>image/svg+xml</dc:format>
    <dc:creator>
     <cc:Agent>
      <dc:title>Matplotlib v3.7.1, https://matplotlib.org/</dc:title>
     </cc:Agent>
    </dc:creator>
   </cc:Work>
  </rdf:RDF>
 </metadata>
 <defs>
  <style type="text/css">*{stroke-linejoin: round; stroke-linecap: butt}</style>
 </defs>
 <g id="figure_1">
  <g id="patch_1">
   <path d="m0 280.51h236.62v-280.51h-236.62v280.51z" fill="none"/>
  </g>
  <g id="axes_1">
   <g id="PatchCollection_1">
    <defs>
     <path id="m53af872960" d="m211.88-246.28 0.1135 0.37322 0.067153 0.54493 0.045174 1.4465-0.23099 3.8198 0.010107 1.0906 0.17652 1.4803 0.36784 1.3591 0.5911 1.3976 0.89041 1.4759 0.57963 0.7461 0.65948 0.74631 1.7857 1.9037 0.53048 0.62514 0.59905 0.81028 0.44256 0.73523 0.47631 1.1178 0.26034 1.1841 0.070255 0.93775-0.042206 1.2027-0.14639 1.1206-0.38216 1.6988-0.44184 1.4091-0.76384 1.864-0.72353 1.3614-0.52827 0.83162-2.3964 3.3656-0.89025 1.4042-0.57705 1.0702-0.58351 1.2847-0.38841 1.0241-0.37414 1.2014-0.44748 2.0544-0.19798 1.677-0.0415 0.87249-0.061939 8.5801 0.080421 2.0922 0.34994 5.2205 0.048278 1.9557-0.10054 2.203-0.095415 0.88233-0.25051 1.5436-0.36967 1.6173-0.51836 1.8131-0.99108 2.9973-0.74125 1.8814-0.89487 1.6997-2.3628 3.6519-1.1871 1.9616-0.57959 1.1705-0.37141 1.1646-0.11823 0.85314 0.009583 0.75723 0.10963 0.79785 0.21914 0.8714 0.35197 0.96737 1.0997 2.3095 0.38717 0.93486 0.62834 1.9694 0.485 1.9323 0.2686 1.4505 0.21753 1.9326 0.076678 1.5237-0.016784 1.7292-0.18376 2.0424-0.42201 2.5988-0.63234 3.0172-0.72905 2.9107-0.66506 2.3748-0.56177 1.6773-1.7674 4.3067-0.51518 1.4229-0.22273 0.90142 0.046471 0.24767-0.21489 1.0051-0.54651 1.724-0.70009 1.6748-0.69243 1.3688-0.86325 1.3424-0.64119 0.7762-0.65486 0.632-0.77299 0.57164-0.83331 0.45591-1.1544 0.4235-0.84482 0.17883-1.1246 0.11657-2.8886 0.090444-1.2852 0.089756-2.4026 0.32259-2.5864 0.53569-1.5786 0.45729-0.88858 0.3261-2.001 0.8971-1.7405 0.92174-4.1384 2.4311-2.9899 1.6983-1.6703 1.0778-0.6145 0.47629-0.6739 0.58641-0.80916 0.79575-0.80729 0.89325-3.786 4.8144-1.8387 2.1315-1.4387 1.4156-1.0166 0.84162-1.4026 1.0219-1.3852 0.93569-2.0335 1.2271-4.297 2.2616-4.7356 2.2327-4.8025 2.038-1.5035 0.72212-1.3091 0.815-0.84335 0.6834-0.59289 0.57709-0.71355 0.81251-0.78284 1.0671-2.299 3.8314-1.1548 1.7037-1.6584 2.1426-1.3691 1.6099-1.7161 1.8157-1.2008 1.1326-0.91521 0.78865-1.8173 1.4152-3.0052 2.1381-1.1495 0.96717-0.54738 0.57196-0.61995 0.83579-0.30887 0.57697-0.36262 1.0098-0.23402 1.1615-0.35602 4.3495-0.35949 3.296-0.32626 2.545-0.33289 1.8745-0.51482 2.2304-2.1557 8.3741-0.84995 3.8232-0.38267 1.1999-0.15598 0.3118-0.16025 0.14041 4.37e-4 0.12818-0.19252 0.30385-0.50948 0.51251-0.64547 0.45593-0.94668 0.50915-3.7493 1.6772-0.96648 0.47993-2.194 1.3236-0.94859 0.41518-0.979 0.31015-1.6143 0.32846-0.99323 0.028762-0.7791-0.12211-0.7134-0.29067-0.38473-0.27349-0.34936-0.33409-1.8791-2.4614-0.3906-0.38948-0.51288-0.38614-0.41318-0.23091-0.42831-0.1764-0.459-0.12249-0.45893-0.053315-0.58566 0.031749-1.7046 0.32657-0.57562 0.036726-0.72623-0.087632-0.52358-0.14534-0.51063-0.20431-0.71532-0.4033-0.6168-0.50264-1.3603-1.6472-0.61122-0.4765-0.42866-0.2334-0.45251-0.17881-0.70934-0.14914-0.44724-0.002194-0.43146 0.083993-0.69954 0.3699-0.62693 0.58144-0.56237 0.70282-0.97088 1.4203-0.56912 0.59127-0.77226 0.46152-1.023 0.36315-1.6443 0.32371-1.2221 0.11304-0.52349 0.004463-0.26607-0.055037-0.077634-0.054026-0.055854-0.16657-0.11469-1.0153-0.046507-1.2527 0.020889-1.6749 0.16685-2.2744 0.37228-2.4766 0.36393-1.6456 0.54957-1.9966 2.4446-7.3457 0.63096-2.0435 0.42623-1.673 0.34364-1.8966 0.1302-1.2556 0.0306-0.9884-0.11467-1.4517-0.17772-0.87937-0.1569-0.52956-0.32459-0.78833-0.31063-0.56056-0.63741-0.8283-0.6816-0.61156-0.76515-0.53366-0.7715-0.46402-2.6138-1.369-1.1116-0.68763-1.5167-1.1159-1.1233-0.97358-0.9856-0.98784-0.69441-0.79978-0.57985-0.76722-0.58679-0.90904-0.82117-1.481-1.0007-2.2277-0.4201-0.83695-0.39034-0.65004-0.60668-0.84293-0.51874-0.60845-0.83016-0.81188-0.73906-0.58261-0.8122-0.51896-2.1104-1.11-1.6394-0.9604-1.2734-0.8976-3.2804-2.542-1.0768-0.7719-1.3314-0.81153-1.3518-0.61175-1.1925-0.31861-1.1165-0.086212-0.90918 0.05297-3.1507 0.54719-1.2272 0.09849-1.1482-0.18438-0.87693-0.46964-0.27306-0.22453-0.40476-0.41801-0.48604-0.67198-0.37899-0.70779-0.37444-0.95892-0.24209-0.8646-0.9211-4.383-0.25183-0.9092-0.38596-1.1189-0.56557-1.1975-0.46849-0.6802-0.4106-0.3376-0.27423-0.04277-0.12865 0.052536 0.01816-0.61254-0.14767-2.0135-0.34266-2.9241-0.62733-3.2626-0.88682-3.7959-0.39809-2.1938-0.072243-1.0488 0.032584-0.68428 0.11948-0.641 0.13792-0.40971 0.49222-0.90776 0.53996-0.69214 0.61818-0.65633 0.812-0.74483 0.53698-0.41012 0.70469-0.4672 1.8329-1.0133 4.6201-2.2206 2.0346-1.087 1.4113-0.89674 1.5991-1.1996 1.0324-0.8934 0.77441-0.757 0.58878-0.66559 0.67446-0.97879 0.30042-0.63561 0.18403-0.6581 0.049771-0.48796-0.015105-0.49622-0.13633-0.78786-0.185-0.60727-0.46221-1.0578-0.69606-1.2304-0.55153-0.85522-1.5934-2.1839-1.2946-1.5804-2.7063-3.0726-1.2232-1.553-0.45981-0.6574-0.79707-1.2856-0.60072-1.1318-0.53016-1.1581-0.46711-1.2867-0.27816-1.1053-0.23686-1.5931-0.070456-1.0227-0.014809-1.3923 0.16971-4.0409 0.3013 0.25962 0.28326 0.1476 0.80125 0.22893 0.54188 0.060444 0.50303 5e-6 0.95662-0.15878 0.46123-0.1697 0.35603-0.18935 0.31164-0.2242 0.44623-0.469 0.41229-0.7193 0.23649-0.73751 0.13154-0.89436 0.02239-0.59563-0.020474-0.65404-0.14267-1.2264-0.15305-0.77693-0.31538-1.1903-1.3035-3.8942-0.34169-1.2594-0.32366-1.7966-0.12197-1.834 0.048833-1.1839 0.15468-1.1753 0.20687-0.96336 0.24961-0.8569 0.44326-1.204 1.2951-3.0122 0.34978-0.96786 0.31301-1.3896 0.061259-0.69952-0.009319-0.5851-0.055237-0.45444-0.1877-0.67432-0.20968-0.42718-0.2728-0.37714-0.36744-0.35142-0.49874-0.33512-0.6176-0.29424-0.73882-0.25358-1.0701-0.26123-4.8196-0.68536-1.9722-0.43325-1.7953-0.60626-1.3152-0.70631-0.46896-0.3467-0.54738-0.50524-0.79801-1.0009-0.30589-0.49597-0.43914-0.86497-0.36705-0.91556-0.45554-1.5145-0.38635-1.6887-0.42818-2.2484-0.91113-6.0751-0.20053-2.3648-0.25223-4.3333-0.54499-4.9862-0.038254-1.4078 0.053631-0.97743 0.25767-1.8607 0.45164-2.0658 2.3837-9.0644 0.37334-1.3043 0.48298-1.4062 1.052-2.4868 0.51162-1.0739 0.88058 0.454 3.5717 2.2707 1.4356 0.79119 1.8512 0.75821 1.4899 0.43534 1.5736 0.34045 1.4905 0.23731 1.5317 0.17693 2.925 0.19755 3.2779 0.064891 4.0382-0.097217 3.9343-0.24462 3.3245-0.318 3.3731-0.44404 3.3453-0.60558 1.9722-0.47611 2.0141-0.62263 1.2152-0.46829 3.8012-1.76 2.0127-0.71073 3.0235-0.80728 2.9196-0.61673 2.0805-0.29112 2.3536-0.20843 11.763-0.5795 1.8922-0.13178 2.8173-0.30348 2.9085-0.49174 2.1853-0.52521 2.7106-0.83263 2.41-0.93212 3.2442-1.4708 1.7089-0.71861 1.7408-0.61732 0.96491-0.28662 1.598-0.37923 1.5995-0.2544 1.073-0.10177 1.668-0.060151 2.8752 0.076215 3.4637 0.29827 1.4506 0.014613 0.96358-0.10744 0.35741-0.089302 0.53399-0.22448 0.49358-0.3565 0.31832-0.32784 0.61094-0.87085 0.3127-0.57546 0.5974-1.3425 0.39141-1.0298 1.5606-4.445 0.78993-1.8036 0.4901-0.87406 0.39365-0.56417 0.35016-0.40349 0.38977-0.34759 0.32398-0.21983 0.65226-0.29048 0.48721-0.10998 0.50157-0.041627 0.86218 0.05499 1.2174 0.28836 1.5548 0.63529 1.5841 0.80294 2.9809 1.6649 6.4647 3.7251 2.4671 1.4833 2.3042 1.5974 3.7852 2.9173 1.5705 1.0436 1.1785 0.62136 1.413 0.5662 1.1253 0.33847 1.1133 0.25057 1.1957 0.18594 1.139 0.10785 1.3243 0.05475 2.4159-0.052105 1.9202-0.13513 2.165-0.22689 5.5866-0.77301 2.4315-0.27728 3.2331-0.19778 1.9922-0.012482 1.719 0.063598 2.5538 0.22537 6.9449 1.0721 1.39 0.13766 1.2466 0.048766 1.0139-0.031759 0.95326-0.10849 0.72168-0.15204 0.59112-0.19339 0.6234-0.35132 0.20686-0.43982" stroke="#bdc660"/>
    </defs>
    <g clip-path="url(#pd4f4c00983)">
     <use y="280.512" fill="#bdc660" stroke="#bdc660" xlink:href="#m53af872960"/>
    </g>
   </g>
  </g>
 </g>
 <defs>
  <clipPath id="pd4f4c00983">
   <rect x="7.2" y="7.2" width="222.22" height="266.11"/>
  </clipPath>
 </defs>
</svg>
