<?xml version="1.0" encoding="UTF-8"?>
<!DOCTYPE svg  PUBLIC '-//W3C//DTD SVG 1.1//EN'  'http://www.w3.org/Graphics/SVG/1.1/DTD/svg11.dtd'>
<svg width="267.72pt" height="280.51pt" version="1.1" viewBox="0 0 267.72 280.51" xmlns="http://www.w3.org/2000/svg" xmlns:xlink="http://www.w3.org/1999/xlink">
 <metadata>
  <rdf:RDF xmlns:cc="http://creativecommons.org/ns#" xmlns:dc="http://purl.org/dc/elements/1.1/" xmlns:rdf="http://www.w3.org/1999/02/22-rdf-syntax-ns#">
   <cc:Work>
    <dc:type rdf:resource="http://purl.org/dc/dcmitype/StillImage"/>
    <dc:date>2024-07-04T12:08:42.558054</dc:date>
    <dc:format>image/svg+xml</dc:format>
    <dc:creator>
     <cc:Agent>
      <dc:title>Matplotlib v3.7.1, https://matplotlib.org/</dc:title>
     </cc:Agent>
    </dc:creator>
   </cc:Work>
  </rdf:RDF>
 </metadata>
 <defs>
  <style type="text/css">*{stroke-linejoin: round; stroke-linecap: butt}</style>
 </defs>
 <g id="figure_1">
  <g id="patch_1">
   <path d="m0 280.51h267.72v-280.51h-267.72v280.51z" fill="none"/>
  </g>
  <g id="axes_1">
   <g id="PatchCollection_1">
    <defs>
     <path id="m48de2d5d89" d="m205.62-255.68 0.11994-0.048978 0.25566 0.039873 0.38278 0.31474 0.43676 0.63413 0.52726 1.1164 0.35981 1.0431 0.23477 0.84761 0.85871 4.0862 0.22569 0.80603 0.34908 0.89397 0.35332 0.65985 0.45312 0.62646 0.37735 0.38969 0.25457 0.20932 0.81753 0.43783 1.0704 0.1719 1.1441-0.091819 2.9373-0.51013 0.84759-0.049382 1.0409 0.080372 1.1117 0.29703 1.2602 0.57031 1.2412 0.75656 1.0039 0.71962 3.0582 2.3699 1.1871 0.8368 1.5284 0.89535 1.9674 1.0349 0.75719 0.48381 0.689 0.54315 0.77393 0.75689 0.4836 0.56724 0.56559 0.78583 0.3639 0.60601 0.39165 0.78026 0.93293 2.0768 0.76555 1.3807 0.54704 0.84747 0.54058 0.71526 0.64737 0.74561 0.91884 0.92093 1.0472 0.90764 1.414 1.0403 1.0364 0.64105 2.4368 1.2763 0.71924 0.43259 0.71332 0.49751 0.63543 0.57014 0.59424 0.77219 0.28959 0.52259 0.3026 0.73493 0.14627 0.49369 0.16568 0.8198 0.1069 1.3534-0.028527 0.92146-0.12139 1.1705-0.32036 1.7682-0.39736 1.5597-0.58822 1.9051-2.279 6.8481-0.51235 1.8614-0.33928 1.5341-0.34706 2.3089-0.15555 2.1203-0.019474 1.5614 0.043357 1.1679 0.10692 0.94651 0.052071 0.15529 0.072376 0.050366-0.21534 0.23038-0.16764 0.2652-0.80358 1.5808-0.47205 1.1718-0.39502 1.2332-0.39139 1.9979-0.064799 0.9327 0.055379 1.669 0.11294 0.81362 0.4515 1.8236 0.31143 0.90003 0.56642 1.3663 1.8813 4.0635 0.82157 2.216 0.29187 1.0329 0.33116 1.4113 0.67117 3.4076 0.25867 1.709 0.26322 2.3018 0.092779 1.4697 0.006552 1.1316-0.071915 1.1112-0.17455 1.2702-0.37988 1.5825-0.59633 1.4888-0.66581 1.1157-0.99419 1.2529-1.0751 1.0887-1.0114 0.87867-1.5172 1.1537-0.93006 0.64222-1.8136 1.1423-1.3039 0.72788-1.2746 0.60725-2.0452 0.73964-2.8364 0.80954-5.2931 1.4037-3.3359 1.0765-1.8223 0.68166-1.8543 0.79116-1.8853 0.9477-1.1259 0.65081-1.4252 0.92841-1.2384 0.91574-1.075 0.89847-1.1045 1.0647-0.87047 0.97798-0.93186 1.2498-0.73184 1.2484-0.40714 0.93118-0.42182 1.5217-0.18633 1.4603-0.027989 1.4318 0.093065 1.4181 0.19146 1.3924 0.22759 1.1707 1.5593 6.7656 0.25803 1.2668 0.16756 1.1104 0.070341 0.85134-0.002197 0.98562-0.064992 0.68153-0.18681 1.0115-0.31789 1.1431-0.36989 1.0334-0.38338 0.89535-0.69357 1.3886-2.3546 4.1885-1.0791 2.0501-0.93643 2.0509-0.64858 1.6965-0.69035 2.1612-0.57402 2.3038-0.25915 1.4781-0.089562 0.74766-0.072592 1.7565 0.050477 1.0278 0.212 1.4999 0.18058 0.74745 0.26646 0.82785 0.49605 1.1933 0.80469 1.5271 0.6184 0.99869 0.95565 1.382 2.554 3.3688 0.374 0.5838 0.013453 0.151-3.7212 1.869-1.1645 0.62164-2.2569 1.3106-2.1908 1.4862-1.0102 0.79856-1.4215 1.2878-1.3652 1.4768-0.86982 1.1313-2.356 3.4923-1.1069 1.9232-0.56333 1.1862-1.3737 3.0852-0.76312 1.9087-0.51485 1.6852-0.35159 1.3758-0.73413 3.4851-0.48739 1.5841-1.0814 3.1315-0.80442 3.0196-0.35832 1.6313-0.40663 1.5855-0.60943 1.4984-0.6905 1.0785-0.8427 1.0095-0.71977 0.73829-1.8826 1.6766-3.4142 2.6931-1.7323 1.1817-0.99793 0.55465-0.84579 0.39388-0.92851 0.3498-0.60837 0.18121-0.74299 0.16656-1.1443 0.12533-0.74335-0.018634-0.93333-0.16419-0.67585-0.22196-1.5121-0.7545-3.1055-2.0277-1.6633-0.85661-5.0642-2.2192-1.2551-0.66704-1.6156-1.0646-1.5826-1.218-3.1886-2.6102-1.6704-1.2577-1.5544-1.0123-0.81787-0.46387-1.5487-0.77136-1.9276-0.826-5.8469-2.1577-3.4372-1.3327-1.0781-0.47222-1.913-1.0157-1.1094-0.77848-0.88392-0.78978-0.81333-0.88374-0.93771-1.2174-0.86574-1.3136-1.1213-1.9369-1.8922-3.5021-1.4667-2.6123-0.96751-1.5671-1.3128-1.8445-0.8933-1.0703-1.21-1.302-4.3711-4.3251-1.17-1.2381-1.1947-1.3874-1.2716-1.6216-0.97159-1.3247-3.442-5.0475-1.1227-1.5814-1.7779-2.2506-1.2369-1.3256-1.429-1.2997-1.1738-0.90422-1.0401-0.68162-1.1354-0.61622-1.1061-0.46961-1.0188-0.31232-0.75594-0.1522-1.0853-0.089999-0.8814 0.043388-0.82537 0.12724-1.2248 0.32102-1.039 0.36672-1.2772 0.54164-1.3907 0.68096-1.9647 1.0877-2.1399 1.3147-1.3776 0.90045-5.7839 4.0244-0.4391 0.27824-0.36754 0.11433-0.16986-0.32523-0.67424-0.81934-0.78304-0.81575-1.011-0.9521-1.7665-1.4874-0.76608-0.58902-1.1091-0.76964-1.16-0.66845-0.91725-0.41844-0.72274-0.27231-1.1828-0.35507-1.8069-0.35168-2.0044-0.18008-2.0233-0.053052-2.3293 0.025441-1.8517 0.16209-2.4361 0.35855-4.6814 0.81366-7.8088 1.4527-1.7508 0.26831-0.866 0.091366-1.319 0.048602-1.1561-0.085928-0.99975-0.20444-0.6334-0.2093-0.92252-0.44147-0.46364-0.2861-1.1871-0.96864-0.99134-1.0902-0.9583-1.3212-1.0897-1.8674-0.84939-1.7948-0.6798-1.7522-0.52675-1.7056-0.334-1.4475-0.29501-2.1082-0.068905-0.84043-0.029399-1.4758 0.10276-1.1949 0.2062-1.0482 0.41088-1.1904 0.37881-0.70496 0.64558-0.83126 0.60469-0.58905 0.73038-0.59327 0.76554-0.54514 4.3287-2.6941 1.8525-1.2178 14.049-9.755 1.214-0.89114 2.159-1.6817 2.2973-2.0211 1.2734-1.2957 1.3259-1.5446 1.1233-1.5061 1.1767-1.8689 0.73087-1.3644 0.84796-1.7932 2.4979-5.8983 1.7546-3.5037 2.655-5.6866 1.0672-2.1825 1.4068-2.594 0.61248-1.0156 1.037-1.5535 1.155-1.5358 0.91204-1.1218 1.365-1.5772 1.4304-1.5551 2.2642-2.2776 4.3719-4.0575 1.2164-1.2724 0.7705-0.88627 0.75054-0.94944 0.76341-1.1103 0.58952-1.0835 0.47318-1.4179 0.084412-1.7598-0.31239-1.8254-0.55844-1.8681-0.33437-0.93441-0.67421-1.5855-0.78999-1.5981-3.1604-5.6992-0.88004-1.9092-0.24788-0.64372-0.38026-1.1873-0.28753-1.2354-0.14142-0.92838-0.063808-1.5613 0.052461-0.63547 0.22853-1.1114 0.27418-0.79798 0.52164-1.1401 0.70564-1.2601 0.88764-1.4063 2.0635-2.9013 1.6065-2.0474 2.1268-2.5108 2.3894-2.5814 1.9228-1.8933 1.7129-1.5799 5.0435-4.4357 5.6952-4.9145 2.565-2.4417 4.0057-4.0156 2.879-3.0157 2.0039-2.2187 3.7641-4.3038 2.632-2.898 1.1636-1.1798 1.0726-0.89908 1.4747-1.0435 0.65308-0.39787 1.3689-0.67527 0.57131-0.20814 0.90823-0.23508 2.5016-0.37099 1.1102-0.25466 0.48446-0.16307 0.8271-0.36028 1.0676-0.62731 0.6365-0.48292 0.46784-0.42355 0.48842-0.52273 0.40848-0.52084 0.54401-0.82633 1.5564-2.7926 0.74681-1.0791 0.50698-0.55316 0.43224-0.36554 0.38739-0.23048 0.14839-0.042509 0.12063 0.027053 0.13956 0.070302 0.55992-0.060308 0.8985-0.19997 1.0227-0.29692 7.6087-2.7902 1.7407-0.53788 0.7115-0.13611 0.97016-0.072409 0.87801 0.045484 0.924 0.15236 1.206 0.35676 1.2694 0.5829 1.3538 0.8736 1.6209 1.2017 1.88 1.3119 1.153 0.89323 1.9286 1.6974 3.8323 3.7687 1.0338 0.89689 0.50776 0.36477 0.53725 0.31678 0.6318 0.25747 0.82784 0.12314 0.82307-0.0856 0.78954-0.26035 0.72613-0.4095 0.63082-0.51377 1.2783-1.18 0.53862-0.42114 0.98271-0.60002 1.0076-0.47376 1.2987-0.4882 1.0462-0.33044 2.2001-0.58153 1.3527-0.30615 2.0314-0.40212 4.7988-0.816 3.7813-0.71174 1.454-0.20699 1.093-0.072478 0.86681 0.009532 4.0823 0.35184 3.6005 0.075918 0.67989 0.044153 0.30715 0.069021" stroke="#bdc660"/>
    </defs>
    <g clip-path="url(#p3bf9915877)">
     <use y="280.512" fill="#bdc660" stroke="#bdc660" xlink:href="#m48de2d5d89"/>
    </g>
   </g>
  </g>
 </g>
 <defs>
  <clipPath id="p3bf9915877">
   <rect x="7.2" y="7.2" width="253.32" height="266.11"/>
  </clipPath>
 </defs>
</svg>
