<?xml version="1.0" encoding="UTF-8"?>
<!DOCTYPE svg  PUBLIC '-//W3C//DTD SVG 1.1//EN'  'http://www.w3.org/Graphics/SVG/1.1/DTD/svg11.dtd'>
<svg width="371.52pt" height="199.08pt" version="1.1" viewBox="0 0 371.52 199.08" xmlns="http://www.w3.org/2000/svg" xmlns:xlink="http://www.w3.org/1999/xlink">
 <metadata>
  <rdf:RDF xmlns:cc="http://creativecommons.org/ns#" xmlns:dc="http://purl.org/dc/elements/1.1/" xmlns:rdf="http://www.w3.org/1999/02/22-rdf-syntax-ns#">
   <cc:Work>
    <dc:type rdf:resource="http://purl.org/dc/dcmitype/StillImage"/>
    <dc:date>2024-07-04T12:08:40.092757</dc:date>
    <dc:format>image/svg+xml</dc:format>
    <dc:creator>
     <cc:Agent>
      <dc:title>Matplotlib v3.7.1, https://matplotlib.org/</dc:title>
     </cc:Agent>
    </dc:creator>
   </cc:Work>
  </rdf:RDF>
 </metadata>
 <defs>
  <style type="text/css">*{stroke-linejoin: round; stroke-linecap: butt}</style>
 </defs>
 <g id="figure_1">
  <g id="patch_1">
   <path d="m0 199.08h371.52v-199.08h-371.52v199.08z" fill="none"/>
  </g>
  <g id="axes_1">
   <g id="PatchCollection_1">
    <defs>
     <path id="mf4d2fdda8e" d="m333.32-137.81-0.089852 0.59396-2.9841 11.701-1.3706 5.7201-1.2048 5.6449-0.49707 2.7612-0.39625 2.7124-0.26411 2.6594-0.091266 2.6015 0.1022 2.3785 0.26106 2.3145 0.368 2.0542 0.40754 1.5686 0.40055 1.1688 0.55749 1.2773 1.0872 1.8857 1.3019 1.7858 1.4584 1.712 1.5678 1.6592 1.6381 1.6236 5.1132 4.8919 1.9431 1.9683 1.4744 1.6199 1.333 1.6475 1.1361 1.6874 0.77793 1.5177 0.52031 1.5671 0.19807 1.3015 0.014616 1.3287-0.13782 1.2897-0.26879 1.2971-0.73181 2.2307-0.67622 1.5037-0.38284 0.73003-1.062 1.7618-3.6296 5.1638-4.7698 7.1007-0.82319 1.1227-1.3152 1.6172-2.8993 3.3305-5.0308 6.0702-1.5989 1.8612-1.5043 1.6132-0.90255 0.83066-0.89159 0.54417-0.17016-0.09557-0.52748-0.42037-0.93045-0.34056-1.2891-0.34129-1.41-0.28211-1.4433-0.21188-1.2818-0.1303-2.2512-0.073767-2.2377 0.15805-2.2823 0.34686-8.1532 1.7521-2.6605 0.53016-3.4412 0.63864-6.2271 1.0163-3.0927 0.55645-2.0531 0.45153-3.0607 0.76258-2.3177 0.63482-3.4115 1.0686-3.3612 1.2547-7.3349 2.9524-2.4821 0.90489-1.6116 0.51718-1.6169 0.44162-1.3983 0.30402-1.5533 0.23764-1.4254 0.12403-1.7377 0.040803-1.6066-0.054843-2.8451-0.28362-1.6785-0.27572-2.5638-0.59494-2.4526-0.8099-1.94-0.85683-1.5094-0.83299-2.3649-1.4916-6.4653-4.4481-2.0623-1.3554-1.6527-0.96698-2.4272-1.2469-3.1359-1.403-3.508-1.3754-1.5847-0.56153-10.677-3.3892-4.9313-1.6784-3.3306-1.2374-5.3014-2.1296-3.0049-1.0968-2.3909-0.71654-1.9001-0.49063-5.9751-1.4124-1.8041-0.54357-1.8165-0.7218-1.964-0.99054-1.5351-0.92944-2.9503-1.9807-5.0522-3.2448-1.5666-0.9136-2.1112-1.1383-1.7234-0.83622-1.2185-0.45262-0.98315-0.22817-1.2732-0.10762-1.5322 0.11162-1.6881 0.35906-1.4443 0.48871-2.0262 0.9937-2.0052 1.2727-1.993 1.4655-6 4.8865-2.0441 1.6039-2.0901 1.5001-2.1553 1.335-2.2446 1.0992-1.1463 0.43411-1.7841 0.543-1.6294 0.40224-7.6277 1.58-1.4083 0.36211-1.5718 0.47084-2.3797 0.85798-2.2351 0.96952-1.8933 0.94181-4.9839 2.6185-2.4021 1.0643-1.6316 0.58311-1.6647 0.4606-2.5758 0.45561-2.7009 0.27817-2.7678 0.13697-2.7839 0.011751-2.8235-0.082377-5.7399-0.34915-8.8061-0.76306-42.182-4.0541 0.7013-0.11078 1.4179-0.55968 1.8018-0.9122 1.937-1.2137 0.85119-0.62262 1.8101-1.4833 1.7292-1.6305 1.5886-1.7356 1.393-1.811 2.6242-4.2437 0.69316-1.0315 5.056-6.6949 1.0629-1.5901 1.0866-1.897 1.0076-2.1128 0.81826-2.0872 0.75998-2.614 0.84465-4.518 0.46533-1.9887 0.47347-1.4137 0.28488-0.66636 0.74802-1.3358 0.74408-1.0043 0.77588-0.87597 1.0397-1.0016 0.94468-0.79996 2.1909-1.6405 5.7901-4.0227 1.6772-1.3051 1.7268-1.5454 1.2188-1.2975 0.97618-1.2083 1.1989-1.7228 2.5327-3.9794 1.4571-2.5013 1.2735-2.4847 0.97638-2.1052 2.333-5.6308 1.1549-2.5925 1.4705-3.0262 1.6137-2.9375 2.0098-3.3237 4.739-7.1343 2.5215-4.2181 1.5565-2.4526 1.1416-1.6891 1.1305-1.5095 2.0035-2.3945 0.72879-1.3009 0.15246-0.51748 0.096537-0.6617-0.015002-1.0646-0.13303-0.90612-0.33978-1.5011-0.79348-2.5878-0.47183-1.7631-0.12797-0.64486-0.11661-0.79077-0.085628-1.1453 0.032047-1.4041 0.1918-1.4128 0.47566-1.7778 0.66204-1.772 1.3007-3.0201 0.59451-1.2455 1.0497-1.8679 1.2098-1.8802 5.5848-7.9003 2.0934-2.6288 1.5303-1.7522 1.9178-2.0645 0.86834-0.84132 0.39438 0.19419 1.046 0.31423 3.5845 0.91244 2.3102 0.78691 2.4569 1.0011 3.6154 1.6297 2.6393 1.2509 5.2965 2.6199 15.243 7.8037 6.8304 3.4339 4.9457 2.4163 5.3526 2.4917 4.194 1.7952 3.4672 1.3382 2.6955 0.93009 1.3873 0.4296 2.7389 0.72688 2.1643 0.43334 2.0784 0.25304 1.9639 0.024722 1.8142-0.26548 0.94397-0.3072 1.7193-0.98291 1.5528-1.2997 1.502-1.4104 1.5636-1.3238 1.7417-1.0355 1.9194-0.57342 2.1336-0.21857 2.2955 0.048515 2.4167 0.2458 2.5066 0.38773 2.5728 0.48555 10.67 2.2777 2.725 0.52014 2.7429 0.4468 3.9355 0.47588 4.8221 0.39142 8.9121 0.44696 6.249 0.21214 3.1088 0.048225 7.3011-0.10215 12.864-0.47033 1.8211-0.007466 1.7812 0.12583 1.0786 0.18298 2.0352 0.5598 1.2558 0.46227 2.162 0.94469 8.2238 3.9199 5.2615 2.3477 5.483 2.2375 2.8183 1.0358 2.8649 0.94766 2.9041 0.8266 2.842 0.67709 3.2957 0.70841 6.1295 1.1158 4.6563 0.70761 1.1037 0.093228" stroke="#bdc660"/>
    </defs>
    <g clip-path="url(#p9a480e8eed)">
     <use y="199.07525" fill="#bdc660" stroke="#bdc660" xlink:href="#mf4d2fdda8e"/>
    </g>
   </g>
  </g>
 </g>
 <defs>
  <clipPath id="p9a480e8eed">
   <rect x="7.2" y="7.2" width="357.12" height="184.68"/>
  </clipPath>
 </defs>
</svg>
