<?xml version="1.0" encoding="UTF-8"?>
<!DOCTYPE svg  PUBLIC '-//W3C//DTD SVG 1.1//EN'  'http://www.w3.org/Graphics/SVG/1.1/DTD/svg11.dtd'>
<svg width="358.46pt" height="280.51pt" version="1.1" viewBox="0 0 358.46 280.51" xmlns="http://www.w3.org/2000/svg" xmlns:xlink="http://www.w3.org/1999/xlink">
 <metadata>
  <rdf:RDF xmlns:cc="http://creativecommons.org/ns#" xmlns:dc="http://purl.org/dc/elements/1.1/" xmlns:rdf="http://www.w3.org/1999/02/22-rdf-syntax-ns#">
   <cc:Work>
    <dc:type rdf:resource="http://purl.org/dc/dcmitype/StillImage"/>
    <dc:date>2024-07-04T12:08:47.640345</dc:date>
    <dc:format>image/svg+xml</dc:format>
    <dc:creator>
     <cc:Agent>
      <dc:title>Matplotlib v3.7.1, https://matplotlib.org/</dc:title>
     </cc:Agent>
    </dc:creator>
   </cc:Work>
  </rdf:RDF>
 </metadata>
 <defs>
  <style type="text/css">*{stroke-linejoin: round; stroke-linecap: butt}</style>
 </defs>
 <g id="figure_1">
  <g id="patch_1">
   <path d="m-0 280.51h358.46v-280.51h-358.46v280.51z" fill="none"/>
  </g>
  <g id="axes_1">
   <g id="PatchCollection_1">
    <defs>
     <path id="m7d40a409a7" d="m246.07-229.53 1.4052 4.0566 0.43719 1.7201 0.39651 2.4493 0.19881 4.3221 0.16974 1.4687 0.10646 0.53028 0.36273 1.2158 0.52941 1.1491 0.43748 0.70328 0.71218 0.93372 0.66671 0.76135 5.0856 5.5104 5.8464 5.9166 2.6992 2.9204 1.2077 1.3797 1.5273 1.9477 0.77773 1.1464 1.0446 1.8444 0.74886 1.7362 0.43635 1.45 0.17272 0.84717 0.12489 1.0032 0.036457 0.81559-0.04036 1.0903-0.25939 1.7785-0.35461 1.408-0.78783 2.2302-0.78256 1.7373-1.4182 2.7675-0.47865 1.1261-0.29499 1.1684-0.045462 0.79009 0.036541 0.39536 0.17913 0.68264 0.35511 0.65487 0.69595 0.68522 0.36192 0.22955 0.89903 0.35212 0.76218 0.09823 2.4557-6.61e-4 1.0682 0.21967 0.99141 0.42497 0.64264 0.46811 0.4625 0.58714 0.26712 0.91384-0.034082 1.0155-0.09051 0.45752-0.32481 0.89404-0.48171 0.82791-1.1941 1.4409-0.53532 0.78095-0.33987 0.8029-0.24841 1.3619-0.051084 1.7458 0.31482 1.8524 0.51856 1.2451 0.89542 1.3673 0.57392 0.65347 0.7739 0.71432 1.3827 0.94951 1.8032 0.76946 1.7272 0.28868 1.1482-0.055219 2.0171-0.43911 1.5118-0.50382 1.3865-0.55426 1.2279-0.61051 1.1865-0.69938 2.4132-1.6802 1.5863-1.2517 0.91944-0.95238 0.43556-0.60626 0.42432-0.80228 0.3576-1.0072 0.14404-0.60048 0.17953-1.339 0.025816-1.4851-0.085095-1.3372-0.4003-2.8837-0.36445-1.7367-0.41542-1.5386-0.68182-2.0263-1.0004-2.4516-1.2007-2.5483-2.1995-4.336-0.66926-1.4589-0.57569-1.5127-0.40812-1.6233-0.10449-1.0976 0.052058-1.0038 0.089846-0.50214 0.16706-0.56915 0.25284-0.56058 0.33314-0.50622 0.54328-0.57455 0.85436-0.60544 0.76576-0.36805 0.53854-0.19337 1.1198-0.28558 2.4274-0.32923 3.7698-0.24907 2.1061-0.20718 8.5137-1.3698 0.15767-0.043517 0.13969 0.053675 0.3755 0.29338 0.84957 1.054 0.50648 0.80288 1.0033 1.8716 1.5426 3.3783 4.2205 10.183 0.98593 2.4761 0.77833 2.19 0.51386 1.7234 0.29495 1.1931 0.59624 3.2882 0.36587 3.3108 0.21966 3.3034 0.2841 6.4781 0.19186 3.1199 0.31002 2.997 0.49914 2.832 0.77064 2.6136 0.30346 0.74944 0.77057 1.5991 0.88657 1.5046 2.7716 3.9276 0.85419 1.3748 0.99778 2.0934 0.29447 0.88973 0.25348 1.0042 0.20272 1.1059 0.1526 1.2486 0.10344 1.6418-0.043118 3.2702-0.09139 1.0611-0.16478 1.0409-0.42291 1.5179-0.49382 1.0732-0.98301 1.5202-1.257 1.5388-2.7298 3.0779-1.423 1.9436-0.96123 1.5744-0.70785 1.5432-0.34518 1.4741 0.046191 1.0568 0.15316 0.58544 0.72188 1.2626 1.0072 0.82523 1.293 0.64829 4.6291 1.6286 0.75792 0.32155 1.2981 0.72395 1.415 1.2619 1.088 1.5894 0.3758 0.81246 0.39026 1.0897 0.49773 1.8803 0.31126 1.92 0.072844 1.8046-0.21588 1.5001-0.22226 0.57152-0.35481 0.49454-0.42781 0.18639-1.0642 1.0355-3.1045 2.7233-5.427 4.4213-2.5016 2.1334-1.9152 1.8428-3.517 3.8804-1.6033 1.6892-3.6799 3.6422-2.5467 2.3533-3.0356 2.6442-1.3341 1.0567-1.421 0.975-0.84024 0.44045-0.56679 0.20726-0.53307 0.10979-0.55318 0.01967-0.454-0.045377-0.86244-0.19328-2.2852-0.73928-1.6889-0.38401-1.386-0.12976-0.9386-0.007464-2.3403 0.15386-4.5084 0.45541-0.98266 0.12574-0.94573 0.18961-0.57662 0.17612-0.4982 0.22165-0.44939 0.30932-0.38283 0.46406-0.098953 0.24746-0.01468 0.19334 0.061164 0.15097-0.92019 0.8008-1.6859 1.6431-2.6984 2.9404-1.3803 1.3961-1.2524 1.0329-0.47256 0.27266-0.46603 0.17175-0.45851 0.043836-0.53475-0.13842-0.52553-0.29995-0.51898-0.40838-2.05-1.9508-0.51486-0.40171-0.51976-0.29439-0.52733-0.13857-0.5248 0.051566-0.53391 0.19848-2.229 1.3705-0.58906 0.29494-0.60902 0.19479-0.55356 0.061171-0.90978-0.053339-2.6342-0.58645-0.63322-0.086243-0.59913 0.013648-0.54727 0.16055-0.49646 0.35652-0.43017 0.51464-0.37027 0.61965-0.55444 1.3045-0.22034 0.74231-1.7059 0.37083-2.6096 0.33541-1.5293 0.045721-1.6278-0.052415-3.0047-0.28874-6.2266-1.0246-2.5024-0.64009-1.9265-0.80037-1.8601-1.0475-1.5512-1.0729-1.4821-1.1956-2.072-1.9742-1.2035-1.3368-1.2885-1.6062-1.3969-1.9882-0.67591-1.1363-0.96971-2.0232-1.7522-4.1165-0.9681-1.8125-1.4552-2.2574-4.138-5.4326-1.2401-1.8965-3.8789-6.8825-1.3096-2.064-1.2123-1.6362-1.1621-1.4134-1.3564-1.459-0.38397-0.30687-0.6004-0.33782-0.31349-0.11006-0.63523-0.079478-0.32005 0.047761-0.38889 0.15787-0.39652 0.30965-0.38319 0.49063-0.50799 1.1446-0.27658 1.4048-0.006415 1.5585 0.25007 1.5496 0.68773 3.3644 0.31103 2.2304 0.2656 2.9426 0.06981 2.441-0.10743 2.4945-0.28845 2.237-0.48232 2.207-0.78845 2.4206-0.96521 2.2003-0.57836 1.106-1.1296 1.896-1.2876 1.9239-1.0732 1.4807-2.2806 2.8546-1.2701 1.4294-1.0955 1.1395-2.0639 1.8925-1.4676 1.1045-0.76692 0.4858-0.72065 0.39784-0.99715 0.45812-0.66518 0.24634-1.0449 0.28615-1.1575 0.16806-1.6722 0.00855-2.1603-0.26123-5.5517-0.9536-0.73377-0.095755-2.6304-0.17036-2.7118 0.066718-2.7493 0.28431-2.7456 0.49539-2.7011 0.7133-2.6139 0.95191-1.7747 0.82571-2.4194 1.3317-5.243 3.2806-2.1097 1.155-1.8957 0.76557-1.457 0.43491-1.6598 0.3758-1.4402 0.24773-2.7626 0.31398-2.1432 0.10417-4.2272 0.038941-2.5216 0.18741-1.5968 0.2535-1.9534 0.41414-5.1061 1.2449-2.9723 0.63211-2.2019 0.3775-4.5012 0.5981-5.995 0.57477-3.5253 0.24617-3.5264 0.14452-2.0711-0.003542-2.0775-0.078769-3.7721-0.33058-9.8048-1.4168-3.46-0.32356-1.5279-0.065213-2.0804-0.004657-1.8479 0.076843-1.8567 0.15395-3.4868 0.49602-3.3494 0.71518-3.5737 0.98998-3.257 1.0756-2.8517 1.0653-6.1066 2.5265-1.0253 0.35506-0.19241-0.003194 0.23289-0.75276-0.10317-0.78413-0.2752-1.1569-0.45855-1.4801-2.0416-5.7237-0.94333-2.9856-0.82517-3.0269-1.9187-7.973-1.024-3.8709-0.78058-2.632-0.69355-2.0802-5.0361-13.418-1.4827-4.4062-1.2602-4.3724-0.33318-1.3488-0.63836-3.1711-0.29377-2.1354-0.11472-1.4686-0.011884-1.9876 0.26336-5.6979-0.13292-4.9224 0.013428-1.5039 0.18415-1.9935 0.1775-0.8823 0.58644-1.7052 0.85217-1.5527 0.36317-0.51607 0.96919-1.1692 1.4756-1.5193 1.3902-1.5289 1.1808-1.626 0.79385-1.7137 0.22099-1.0803 0.025598-1.0816-0.21828-1.4248-0.73499-2.9544-0.23314-1.6812-0.095821-1.7652 0.055266-5.2095-0.21253-1.5449-0.46409-1.2823-0.64364-1.1625-1.1541-1.7769-0.47672-0.96149-0.25297-0.90755-0.089016-1.0788 0.13992-1.5089 0.27009-1.0204 1.9507-5.0351 0.39226-1.3129 0.33676-1.8924 0.11493-1.7127-0.072356-1.2048-0.17572-0.50261-0.28338-0.2283 0.32114-0.36597 0.14479-0.96124-0.021665-1.0794-0.12426-1.7066-0.033892-1.8566 0.2796-1.8966 0.72666-1.7814 1.1586-1.6834 1.3124-1.3667 1.5138-1.2842 3.1598-2.3123 1.5675-1.0305 2.5421-1.4448 2.1189-1.0132 7.4715-3.2603 1.5448-0.59462 2.0656-0.58156 4.1802-0.8249 2.6027-0.58529 2.1459-0.6572 1.8934-0.81175 1.5706-1.0767 1.4623-1.3648 1.3496-1.5508 1.2228-1.6466 1.0714-1.6597 0.88344-1.5935 0.64191-1.5115 0.14509-0.58087 0.06849-0.65117-0.12498-1.1244-0.37714-1.136-0.42904-0.8931-2.6848-4.5952-0.77988-1.469-0.57636-1.4296-0.3032-1.4269-0.20771-2.4956-0.57374-5.0203 0.03425-1.6819 0.31622-1.5014 0.69708-1.8474 1.281-2.4118 0.74764-1.2638 1.1909-1.8277 0.45513-0.63334 1.8729-2.3183 2.1054-2.2891 2.2595-2.2674 2.3505-2.2505 11.172-10.426 2.1309-1.7752 1.4615-1.0587 1.4512-0.87469 1.4392-0.64235 0.93184-0.26672 0.73148-0.11076 0.56546-0.019597 0.67566 0.050892 0.78927 0.14758 0.72757 0.20419 0.79307 0.28536 1.1276 0.50876 1.1569 0.63322 1.6259 1.0222 2.1539 1.4532 2.2408 1.4295 1.7449 0.96592 3.4224 1.7032 1.3211 0.74916 5.3853 3.6393 1.0477 0.61546 0.9532 0.44785 1.0293 0.3227 0.89328 0.12928 1.0547 0.00384 2.6502-0.33085 0.73071-0.047587 1.2642 0.1408 0.85053 0.30953 0.45072 0.2823 1.3508 1.2468 0.58673 0.46552 1.0775 0.47691 0.91636 0.079258 1.169-0.44441 1.0085-0.96073 0.94445-1.4025 0.87373-1.7394 0.79322-1.9902 0.534-1.6095 0.48046-1.682 1.2639-5.3771 0.62557-2.4399 0.75945-2.2806 0.95152-1.9631 0.76451-1.0952 1.4229-1.5406 1.5682-1.3536 1.1653-0.87381 1.2376-0.7512 0.79839-0.36967 1.1422-0.39048 2.3724-0.39916 2.5301-0.066465 4.8365 0.24882 9.1105 0.97635 2.1419 0.014015 2.1228-0.22192 2.0377-0.47886 1.8821-0.76983 1.0026-0.59439 1.0897-0.78329 1.8761-1.5002 1.4951-1.1032 1.1157-0.67089 1.5933-0.70471 1.904-0.57421 2.2944-0.44066 1.6954-0.19104 1.7419-0.10042 2.9847 0.021771 3.0154 0.26906 1.7413 0.28443 1.7195 0.39992 1.1455 0.3487 0.89128 0.32716 2.5434 1.2286 2.4831 1.5739 2.4194 1.8185 2.1373 1.7791 6.887 6.0406 4.1792 3.4189 2.5712 2.2448 1.3033 1.2551 1.336 1.3948 1.4066 1.5897 3.8822 4.7285 1.8378 2.0906 0.70992 0.6647 0.45164 0.30485 0.45432 0.085055 0.12282-0.1847" stroke="#bdc660"/>
    </defs>
    <g clip-path="url(#pe60a633f69)">
     <use y="280.512" fill="#bdc660" stroke="#bdc660" xlink:href="#m7d40a409a7"/>
    </g>
   </g>
  </g>
 </g>
 <defs>
  <clipPath id="pe60a633f69">
   <rect x="7.2" y="7.2" width="344.06" height="266.11"/>
  </clipPath>
 </defs>
</svg>
