<?xml version="1.0" encoding="UTF-8"?>
<!DOCTYPE svg  PUBLIC '-//W3C//DTD SVG 1.1//EN'  'http://www.w3.org/Graphics/SVG/1.1/DTD/svg11.dtd'>
<svg width="312.08pt" height="280.51pt" version="1.1" viewBox="0 0 312.08 280.51" xmlns="http://www.w3.org/2000/svg" xmlns:xlink="http://www.w3.org/1999/xlink">
 <metadata>
  <rdf:RDF xmlns:cc="http://creativecommons.org/ns#" xmlns:dc="http://purl.org/dc/elements/1.1/" xmlns:rdf="http://www.w3.org/1999/02/22-rdf-syntax-ns#">
   <cc:Work>
    <dc:type rdf:resource="http://purl.org/dc/dcmitype/StillImage"/>
    <dc:date>2024-07-04T12:08:33.997827</dc:date>
    <dc:format>image/svg+xml</dc:format>
    <dc:creator>
     <cc:Agent>
      <dc:title>Matplotlib v3.7.1, https://matplotlib.org/</dc:title>
     </cc:Agent>
    </dc:creator>
   </cc:Work>
  </rdf:RDF>
 </metadata>
 <defs>
  <style type="text/css">*{stroke-linejoin: round; stroke-linecap: butt}</style>
 </defs>
 <g id="figure_1">
  <g id="patch_1">
   <path d="m0 280.51h312.08v-280.51h-312.08v280.51z" fill="none"/>
  </g>
  <g id="axes_1">
   <g id="PatchCollection_1">
    <defs>
     <path id="m38ddc0c403" d="m246.59-230.98-0.65452 1.1947-0.80706 1.7001-0.83091 1.9509-1.1744 3.1853-0.75437 2.4391-0.64303 2.4665-0.52968 2.4807-0.36082 2.1273-0.30489 2.4746-0.15762 2.3677-0.014886 2.0164 0.10542 1.9714 0.35462 2.6086 0.62134 2.4833 0.81674 2.1151 1.0579 1.9735 1.5182 2.0927 1.7822 1.8896 1.9186 1.634 2.0717 1.4778 1.2578 0.79667 5.6595 3.2272 1.8053 1.0737 1.7523 1.1354 1.675 1.2198 1.3757 1.147 1.29 1.2281 1.195 1.3092 1.4286 1.8695 1.2403 1.997 1.0579 2.1316 0.86355 2.2265 0.53 1.7631 0.41995 1.8014 0.31312 1.8325 0.20937 1.8749 0.11246 1.8944 0.024583 1.9086-0.082511 2.4067-0.18944 2.4161-0.25622 2.2465-0.68944 4.4971-1.9303 10.284-0.71304 4.2868-0.62491 4.43-0.25468 2.1509-0.36958 4.2818-0.095851 2.4997 0.020528 2.4607 0.12145 1.9507 0.23971 1.8932 0.31663 1.5397 0.44274 1.4665 0.49689 1.1841 0.6154 1.1006 1.4095 1.7057 1.7069 1.2579 1.3713 0.62975 1.5547 0.44371 1.7373 0.27718 1.5529 0.13354 3.8464 0.19612 2.4165 0.18994 1.7173 0.2194 1.499 0.28358 1.276 0.38596 0.52269 0.30556 0.092874 0.16579-0.00736 0.15325 0.094437 0.15548 0.11519 0.36111 0.14255 0.59936 0.18704 1.0908 0.13751 1.1947 0.093315 1.407 0.025795 1.1514-0.04015 1.645-0.085799 1.1474-0.1621 1.2474-0.19065 0.97798-0.25394 0.95583-0.39761 1.1136-0.4459 0.97634-0.5102 0.92887-1.0906 1.6351-1.2473 1.5936-3.8178 4.4951-2.0217 2.2366-1.8369 1.7746-1.0302 0.90969-4.4888 3.7515-1.4396 1.3353-0.7948 0.82528-0.73787 0.86379-0.78974 1.0999-0.66645 1.1685-0.47212 1.0956-0.35393 1.1431-0.19915 0.97403-0.11638 0.99677-0.033148 1.0149 0.061089 1.1319 0.15413 1.1452 0.23911 1.1549 0.29686 1.0918 0.75912 2.2015 3.2091 7.7469 0.65606 1.7862 0.24738 0.79555 0.024333 0.32107 0.17823 1.9142 0.081295 2.3236-0.020731 1.8446-0.10543 1.4954-0.24754 1.8562-0.28287 1.5609-1.1535 4.4589 0.093386 0.35618-0.34126 0.7194-1.1094 1.2408-1.7957 1.3145-1.8252 0.92304-2.4718 0.84019-1.3908 0.32792-1.4272 0.25832-2.8077 0.33812-1.5296 0.10491-1.5275 0.042803-1.569-0.033119-1.5523-0.12041-1.7012-0.24618-1.663-0.36839-1.4974-0.45254-1.453-0.55743-1.3882-0.64981-1.3419-0.73857-1.5832-1.0104-1.5234-1.1076-1.4124-1.1396-1.3656-1.2031-1.4127-1.3498-1.3656-1.4032-2.0466-2.2738-2.7207-3.3094-2.3857-3.2004-1.132-1.6357-1.0829-1.6662-1.453-2.4578-1.7469-3.3495-4.0545-8.5744-2.4532-4.852-1.1039-2.0116-1.1402-1.938-1.0354-1.6143-1.0853-1.5148-1.2724-1.5166-1.3296-1.2772-1.4302-1.0748-1.0176-0.62427-2.7041-1.4214-0.96172-0.55564-0.83502-0.6061-0.96776-1.1396-0.30458-0.78187-0.019764-1.373 0.39093-1.1528 0.76426-1.2345 1.9912-2.4019 0.89172-1.1585 0.63186-1.0063 0.53106-1.1604 0.36187-1.6893-0.029751-0.93661-0.42214-1.491-0.91751-1.4418-1.2914-1.1663-1.0582-0.61279-0.98176-0.39226-1.0597-0.28638-1.917-0.25732-1.1706-0.041252-1.2065 0.017638-4.924 0.30602-2.8387 0.096884-1.7414-0.033259-1.8066-0.11824-2.3805-0.28885-2.865-0.53607-2.359-0.5787-2.462-0.70632-2.3156-0.75214-2.9096-1.0396-2.1885-0.85036-1.5944-0.69928-0.8982-0.45884-1.6388-0.9968-0.79966-0.574-0.87862-0.71325-1.0696-1.0392-0.60666-0.7465-0.6793-1.0293-0.62079-1.1367-1.6501-3.4599-0.77167-1.342-0.61565-0.90216-1.3403-1.6322-1.2932-1.3289-1.5588-1.3545-1.323-0.96085-1.2262-0.76738-1.5764-0.81947-1.2774-0.51224-1.0396-0.32122-0.98488-0.22967-1.2718-0.21488-5.799-0.62769-1.9804-0.31017-1.3711-0.32078-1.6006-0.49887-3.4533-1.3956-1.3917-0.50754-1.3738-0.36471-1.5455-0.21276-4.9339-0.37832-0.81067-0.10195-1.0637-0.2558-0.97104-0.4594-0.41222-0.30425-0.50127-0.47978-0.45633-0.54812-0.40562-0.57944-0.48777-0.81247-0.76564-1.5059-1.9925-4.4187-0.57712-1.069-0.70158-1.0433-0.72002-0.78425-0.82404-0.58434-0.58673-0.24748-0.81642-0.18189-0.85885-0.046311-0.77131 0.053468-0.75158 0.12161-0.94654 0.23346-0.88217 0.28449-1.5274 0.61496-2.7299 1.3352-3.2869 1.7017-1.6079 0.95282-1.3158 0.95681-1.8567 1.6098-1.4473 1.4333-0.85532 0.911-3.21 3.599-0.72255 0.62734-0.21656 0.027514-0.54265-0.86312-4.2294-6.2087-4.8785-7.5033-1.0134-1.4167-0.9531-1.1453-2.4432-2.4597-0.9128-0.97157-0.84591-1.0071-0.61685-0.8366-0.54746-0.87153-0.3787-0.72615-0.43449-1.0338-0.28138-0.88617-0.16039-0.7013-0.12308-0.88098-0.030921-0.96084 0.049739-0.66974 0.17063-0.92073 0.55233-2.1581 0.1196-0.74471 0.055298-1.1288-0.044001-0.95964-0.093848-0.87282-0.24512-1.479-0.33204-1.4963-0.43585-1.5118-0.56678-1.4992-0.4936-1.0439-0.68716-1.2588-2.7197-4.4978-2.7546-5.0166-1.5454-2.6694-0.90021-1.3836-1.1483-1.5223-1.3807-1.4972-0.66202-0.64364-1.1945-1.0184-1.134-0.7578-1.2202-0.5778-1.4553-0.4433-0.53471-0.09349-0.78357-0.07837-1.5516-2.24e-4 -1.0103 0.078027-1.6626 0.21346-3.246 0.54369-1.8619 0.26417-0.96107 0.081488-1.179 0.006271-0.95342-0.10896-1.072-0.31404-0.88258-0.48727-0.65281-0.52503-0.69129-0.73306-0.68592-0.93635-0.48032-0.80091-0.60337-1.2048-0.43875-1.0322-0.58311-1.6013-0.66388-2.2207-0.87683-3.7548-0.60818-3.2046-0.6124-3.5526-1.0163-6.373-0.72467-5.4045-0.72554-6.3538-0.41432-2.9111-0.46337-2.3966-0.39603-1.6532-0.60868-2.1008-0.18963-0.46924-0.12947-0.13078 0.34436 0.092503 0.25824-0.03526 0.34984-0.10657 0.68398-0.31717 0.79778-0.50704 0.46744-0.36514 0.9518-0.92917 0.61461-0.78492 0.56078-0.90608 1.3296-2.7813 0.70735-1.2339 0.87055-1.1345 0.9965-1.0004 0.75304-0.61957 0.63012-0.43807 1.1527-0.6124 0.55054-0.20575 0.6878-0.17808 0.48186-0.072244 0.68436-0.028093 0.35322 0.019474 0.92182 0.16037 1.2124 0.44216 1.2961 0.70137 1.5948 1.0815 1.0376 0.8324 1.3297 1.2499 2.9471 3.3224 1.1187 1.1182 1.3301 1.0618 0.73046 0.46902 0.70654 0.37664 0.65644 0.27808 0.66283 0.20322 0.59625 0.10715 0.47339 0.02971 1.0369-0.09754 1.9897-0.50157 0.67858-0.12044 0.72793-0.04626 0.46295 0.020954 1.0805 0.21024 0.53662 0.19141 0.91433 0.47304 0.59264 0.42205 0.40458 0.35359 0.63972 0.7097 0.3549 0.51298 0.45993 0.90827 0.251 0.7113 0.31956 1.3934 0.17099 1.4262 0.069113 2.4907-0.070402 2.0598-0.32733 5.4611-0.047034 2.7275 0.038816 0.97888 0.19976 1.7706 0.16938 0.80813 0.26446 0.91687 1.0044 2.6887 0.59304 1.3592 0.58677 1.1004 0.79375 1.1662 0.90302 0.99135 0.56959 0.46843 0.75526 0.44083 0.56351 0.19507 0.83603 0.089824 1.1161-0.18753 0.77658-0.32009 0.90159-0.57151 0.53824-0.43619 0.73474-0.69823 1.2962-1.4992 2.033-2.7408 0.88358-1.1199 2.4687-2.7184 1.7667-2.1172 2.9063-3.6709 1.1702-1.7278 0.81015-1.5397 1.6962-3.9555 0.50806-0.95614 0.58662-0.94103 0.57331-0.786 0.34001-0.38492 0.38767-0.3343 0.51348-0.25876 0.40982-0.074505 0.45415 0.023026 0.49196 0.11589 0.45306 0.16614 0.79391 0.38224 2.8506 1.5999 0.73636 0.34147 0.97019 0.35783 0.91732 0.2363 0.93039 0.13253 1.0933 0.033371 1.0941-0.087957 1.0915-0.19922 1.439-0.3706 1.9325-0.62024 1.0592-0.38864 7.6377-3.0986 1.0284-0.44811 4.4166-2.12 0.98017-0.41322 0.93198-0.32507 1.2443-0.26169 0.72293-0.006872 0.70012 0.15377 0.53647 0.28942 0.38818 0.3922 0.25018 0.47777 0.089732 0.32356 0.062937 0.59004-0.037062 1.8566 0.090097 0.48117 0.25174 0.4801 0.28313 0.25882 0.32707 0.16743 0.28154 0.082463 0.31262 0.047987 0.67103 0.001772 0.8338-0.12529 1.2714-0.37715 0.93996-0.40458 0.74296-0.40101 0.85928-0.56714 0.89341-0.74253 0.57542-0.59481 0.4727-0.58861 0.39207-0.57877 0.64826-1.1769 1.1149-2.2742 0.41971-0.66014 0.59428-0.67653 0.72656-0.50634 0.6823-0.23405 0.68064-0.047971 0.52527 0.072113 0.6241 0.19192 0.77683 0.37703 0.87522 0.58169 0.79982 0.65367 1.5898 1.5565 3.0364 3.2353 1.4181 1.2789 0.85784 0.642 0.81704 0.51159 0.89864 0.44927 0.6853 0.26297 0.91197 0.24452 0.95125 0.12391 0.83518-0.008706 0.87374-0.13976 0.86474-0.2938 0.80373-0.4437 0.54472-0.41674 0.68659-0.68649 0.67044-0.86598 0.60486-0.94869 1.7349-3.1306 0.65371-1.0505 0.84424-1.1095 0.94956-0.93269 1.057-0.72057 1.0507-0.46754 0.8614-0.24936 0.73595-0.14404 1.8994-0.19226 4.4943-0.24929 1.83-0.22525 1.013-0.18573 1.477-0.38828 0.60034-0.25135 0.23084-0.23774 3.6407-2.9301 2.0623-1.5286 1.9954-1.3284 0.98258-0.58585 1.1062-0.59713 1.1263-0.5354 1.9737-0.75323 2.0199-0.53455 1.6634-0.27976 2.7717-0.23283 3.9906-0.13175 2.369-0.16024 1.5008-0.20546 1.0491-0.21455 1.0155-0.28148 0.88225-0.31958 0.84573-0.38451 0.98801-0.56456 0.94795-0.66938 1.082-0.90083 2.2706-2.0695 1.1396-0.89764 1.0763-0.65376 1.0871-0.46078 0.82314-0.22763 0.846-0.1359 1.2787-0.031803 1.0056 0.10574 1.1201 0.22729 1.6528 0.48327 4.389 1.4641 4.9915 1.4602 1.4102 0.48105 1.3295 0.56741 1.3341 0.7658 1.2119 0.9901 0.91324 1.0885 0.68961 1.2258 0.39878 1.0712 0.34639 1.6108 0.14716 1.8567 0.00615 1.2226-0.2409 5.3036-0.036292 1.9255 0.089478 2.228 0.25047 1.9773 0.37684 1.5975 0.44533 1.2022 0.55921 0.97287 0.39009 0.37728 0.35036 0.026667" stroke="#bdc660"/>
    </defs>
    <g clip-path="url(#pf4bc72af6c)">
     <use y="280.512" fill="#bdc660" stroke="#bdc660" xlink:href="#m38ddc0c403"/>
    </g>
   </g>
  </g>
 </g>
 <defs>
  <clipPath id="pf4bc72af6c">
   <rect x="7.2" y="7.2" width="297.68" height="266.11"/>
  </clipPath>
 </defs>
</svg>
