<?xml version="1.0" encoding="UTF-8"?>
<!DOCTYPE svg  PUBLIC '-//W3C//DTD SVG 1.1//EN'  'http://www.w3.org/Graphics/SVG/1.1/DTD/svg11.dtd'>
<svg width="216.03pt" height="280.51pt" version="1.1" viewBox="0 0 216.03 280.51" xmlns="http://www.w3.org/2000/svg" xmlns:xlink="http://www.w3.org/1999/xlink">
 <metadata>
  <rdf:RDF xmlns:cc="http://creativecommons.org/ns#" xmlns:dc="http://purl.org/dc/elements/1.1/" xmlns:rdf="http://www.w3.org/1999/02/22-rdf-syntax-ns#">
   <cc:Work>
    <dc:type rdf:resource="http://purl.org/dc/dcmitype/StillImage"/>
    <dc:date>2024-07-04T12:08:46.062753</dc:date>
    <dc:format>image/svg+xml</dc:format>
    <dc:creator>
     <cc:Agent>
      <dc:title>Matplotlib v3.7.1, https://matplotlib.org/</dc:title>
     </cc:Agent>
    </dc:creator>
   </cc:Work>
  </rdf:RDF>
 </metadata>
 <defs>
  <style type="text/css">*{stroke-linejoin: round; stroke-linecap: butt}</style>
 </defs>
 <g id="figure_1">
  <g id="patch_1">
   <path d="m0 280.51h216.03v-280.51h-216.03v280.51z" fill="none"/>
  </g>
  <g id="axes_1">
   <g id="PatchCollection_1">
    <defs>
     <path id="mf9a35c1650" d="m116.48-257.35-0.031727 0.09168 0.005137 0.27962 0.10646 0.4967 0.32062 0.94331 0.35993 0.82832 0.57254 1.0789 0.4275 0.67218 0.3796 0.52013 0.4241 0.50287 0.65194 0.62938 0.32262 0.25462 0.66651 0.42614 0.77604 0.37298 0.69283 0.25471 1.3605 0.34897 1.7568 0.21481 4.0521 0.094305 1.2275 0.082375 0.91456 0.12911 0.73402 0.16203 0.80857 0.25791 1.098 0.50941 0.56062 0.33578 0.96218 0.70758 0.88169 0.8279 0.59656 0.6975 0.2804 0.38827 0.53893 0.90446 1.0112 1.9305 1.4547 2.6515 0.62182 1.2485 0.53296 1.3025 0.64394 1.9201 0.36251 0.90824 0.59138 1.1628 0.7053 1.1414 0.80517 1.1447 2.166 2.8551 0.86718 1.3536 0.2404 0.4548 0.4937 1.0925 0.42828 1.1522 0.45154 1.474 0.25048 0.99881 0.28718 1.5542 0.13776 1.1298 0.077447 0.97229 0.071624 2.5189-0.039148 2.7764 0.010073 2.1695 0.08784 1.6455 0.11095 0.80439 0.12653 0.58776 0.45036 1.3722 1.5075 3.2103 1.6118 3.9907 0.50031 1.6319 0.33521 1.6976 0.14577 1.297 0.077018 1.2745 0.027217 1.2814-0.027665 1.4591-0.093472 1.4197-0.23208 2.5683 0.014537 1.1345 0.10092 1.0515 0.20576 1.141 0.18341 0.71549 0.29783 0.91766 0.43509 1.0629 0.53379 1.0691 0.66886 1.1295 0.69549 1.0116 0.47842 0.62572 0.77716 0.92352 0.81113 0.86775 1.1114 1.0573 1.0306 0.84838 0.9545 0.65026 0.80383 0.39239 0.46858 0.090207 0.2217-0.13719-0.062481 0.16098-0.32636 0.50786-3.5683 5.3395-1.4218 2.0506-1.1676 1.5693-1.7338 2.1452-1.06 1.2199-3.0366 3.2928-0.97367 1.1009-0.71962 0.90396-0.78158 1.1855-0.33942 0.65346-0.29499 0.74781-0.19948 0.88106-0.048718 0.77122 0.069066 0.78379 0.10271 0.47246 0.2335 0.68095 0.34288 0.70201 0.54642 0.83111 0.37845 0.46103 0.65517 0.64958 0.666 0.50877 1.1379 0.6497 4.2962 1.9648 1.0302 0.53741 1.4048 0.84094 1.0683 0.73376 1.0132 0.76536 2.5202 2.0466 1.8398 1.4151 2.3407 1.6732 0.91639 0.61721 1.0515 0.66311 0.88624 0.5046 1.1157 0.54687 0.85348 0.34354 0.76744 0.25238 0.82956 0.21575 0.71202 0.14243 1.3039 0.16138 1.0511 0.035453 1.4345-0.079592 0.88018-0.12504 1.1888-0.25719 1.3124-0.3683 3.7797-1.1943 1.2834-0.36744 3.0625-0.72663 1.3446-0.25892 1.0734-0.16497 1.0887-0.12242 0.9484-0.06151 0.83676-0.007603 1.1227 0.09901 0.48666 0.12175 0.51149 0.25561 0.17972 0.15759 0.14446 0.18649 0.19625 0.51924 0.031646 0.63941-0.051204 0.45657-0.11796 0.57788-0.2314 0.81272-0.34146 0.99027-1.6742 4.439-1.5472 4.3171-0.60944 1.8324-0.25537 1.0892-0.053777 0.62818 0.027711 0.33331 0.072893 0.21899 0.12226 0.11795 0.16148 0.004301-0.42697 0.30309-7.17e-4 0.93807 0.3227 1.3112 0.38433 1.0542 0.26515 0.61245 0.60838 1.1917 0.32041 0.54409 0.46508 0.71758 1.8058 2.5168 0.50136 0.78309 0.3053 0.52451 0.52665 1.1474 0.26603 1.0668-0.05515 0.91392-0.33977 0.61001-0.56105 0.41572-0.53773 0.1785-1.0008 0.12578-0.89267 0.038308-0.95656-0.033958-0.99372-0.15278-1.208-0.37495-2.4416-1.0512-1.2219-0.48037-1.2158-0.32018-1.348-0.08632-0.64149 0.047571-0.86472 0.1746-1.0127 0.39278-0.60554 0.38843-0.33781 0.27268-0.79127 0.7865-0.94922 1.1967-0.72876 1.1312-0.3802 0.73395-0.30159 0.74968-0.20384 0.76209-0.083516 1.0016 0.061418 0.65098 0.10572 0.53459 0.1339 0.48624 0.31338 0.84827 0.77681 1.494 0.75115 1.0889 0.85762 0.97991 2.2116 1.9534 0.4708 0.46172 1.7193 1.94 1.0135 1.2716 0.76135 1.0378 0.59738 0.9177 0.6297 1.1547 0.48985 1.2136 0.13596 0.4833 0.1206 0.68545 0.027931 0.51387-0.06797 0.79024-0.45918 2.2351-0.056853 0.43164-0.004933 0.70708 0.1914 0.93737 0.38389 0.97372 0.53205 0.98789 0.64162 0.9808 1.5252 2.1415 0.73454 1.1625 0.68431 1.2182 0.60205 1.2564 0.53117 1.398 1.4444 4.4265 0.44466 1.5012 0.30186 1.457 0.064895 0.72552-0.011061 0.5945-0.087737 0.59601-0.36754 1.0224-0.58662 0.99086-0.73882 0.98572-2.9525 3.5926-0.94346 1.3378-0.67866 1.2168-0.52514 1.5506-0.11813 1.3547 0.12074 1.4364 0.29638 1.5108 0.62885 2.3025 1.5691 4.8946 0.42635 1.4129 0.3346 1.302 0.21272 1.1943 0.034126 0.86313-0.08032 0.29541-0.1288 0.073551-0.18225 0.24425-0.53983 0.27031-0.94939 0.26999-1.2484 0.15388-1.1011 0.043203-4.1181 0.050592-8.3455 0.25106-3.0873 0.14675-2.4636 0.24556-2.7239 0.40156-3.9421 0.70081-2.1447 0.43951-3.8723 0.87444-1.2661 0.24429-4.1338 0.57911-4.0482 0.49411-1.0065 0.056107-0.60626-0.001913-0.86547-0.060028-3.2045-0.41903-1.2782-0.11478-1.2863-0.00759-1.0055 0.097702-1.0038 0.17418-0.82702 0.18557-3.2025 0.87614-1.0874 0.24093-1.9264 0.24268-0.42708 0.086769-0.17208 0.074111-0.28612-0.43223-0.49538-1.0761-0.6125-1.4762-0.65476-1.7088-0.64018-1.8269-0.58081-1.8661-0.83238-2.9556-0.41253-1.2159-0.26644-0.67383-0.75436-1.5949-1.4858-2.7471-0.80194-1.4267-0.83841-1.3467-1.0173-1.4895-1.4975-1.9922-0.67555-0.80065-1.0287-1.1145-3.3187-3.2603-1.6781-1.7476-1.1789-1.322-0.66921-0.80907-0.37586-0.48561-0.91699-1.3166-0.77979-1.3157-0.79285-1.6074-4.7245-11.595-1.0044-2.1761-1.2961-2.6027-0.61429-1.3406-0.41705-1.0518-0.34945-1.0972-0.24198-1.1277-0.098512-1.0499 0.026527-1.0924 0.13687-1.0033 0.31782-1.2596 0.61209-1.6139 0.79837-1.6328 1.3547-2.4194 0.63291-1.2279 0.4388-0.99212 0.49858-1.4224 0.18719-0.73119 0.13426-0.77961 0.032742-0.95288-0.033262-0.31933-0.15277-0.5966-0.22035-0.41905-0.28355-0.30362-0.24492-0.15202-0.29647-0.097602-0.65662-0.016332-0.59795 0.12531-0.52716 0.17793-1.2367 0.56418-1.1779 0.6396-1.6645 1.0421-1.8193 1.3415-3.5183 2.8453-1.3079 0.92985-1.0645 0.64402-0.69144 0.35544-1.3117 0.53837-1.3345 0.428-2.9301 0.85336-0.88383 0.31934-1.5599 0.71846-0.68872 0.41048-1.2306 0.87102-3.2138 2.6816-1.7307 1.323-1.416 0.91833-0.72722 0.37886-0.96152 0.38824-1.093 0.33144-0.81688 0.19752-2.0454 0.37476-1.8432 0.23425-2.569 0.21596-1.3475 0.1481-1.3691 0.19655-2.3819 0.43921-1.9317 0.43725-2.4567 0.64784-3.197 0.90551-4.7208 1.41-2.3818 0.66322-1.0392 0.24211-1.0015 0.18091-1.3532 0.11168-0.7213-0.036781-0.6615-0.12164-0.57183-0.19582-0.48289-0.24729-0.52175-0.36563-0.48873-0.44394-0.50594-0.56855-0.51376-0.70824-0.35096-0.58425-0.51444-1.093-0.20444-0.60421-0.17105-0.73052-0.13719-1.2898-0.087256-2.5124-0.097414-0.64803-0.20028-0.70845-0.33198-0.73703-0.49066-0.80467-0.53456-0.71927-1.1605-1.3946-0.30021-0.43737-0.24032-0.4471-0.2044-0.54215-0.21145-1.3512 0.046975-1.5511 0.2368-1.6927 0.36288-1.6972 1.3878-4.8614 0.19122-0.92347 0.12606-1.0152 0.018244-0.40017-0.021528-0.68811-0.078796-0.56631-0.39242-1.1696-0.4972-0.68232-0.56004-0.19035 0.27876-0.12145 0.23119-0.32223 0.14482-0.3724 0.14066-0.97742-0.047464-1.1758-0.20281-1.251-0.32431-1.2252-0.25428-0.71002-0.24487-0.52938-0.70891-1.0356-0.92198-0.8222-0.84585-0.47171-0.49385-0.20952-3.0162-1.0612-0.84251-0.42241-0.65628-0.53771-0.47037-0.82269-0.0998-0.38146-0.030097-0.68862 0.22491-0.96049 0.46122-1.0055 0.62632-1.0258 0.92723-1.2664 1.7787-2.0055 0.81907-1.0026 0.64052-0.99054 0.32177-0.69927 0.27556-0.98902 0.10737-0.67822 0.059549-0.6914 0.028095-2.1308-0.067398-1.0697-0.099431-0.81354-0.13209-0.72061-0.16516-0.6543-0.19187-0.57973-0.65013-1.3641-0.55658-0.8958-1.8059-2.5592-0.57767-0.9804-0.50209-1.0419-0.19773-0.48833-0.50213-1.703-0.32523-1.8453-0.202-1.9528-0.12501-2.0329-0.18512-4.2211-0.14313-2.1524-0.23839-2.1573-0.3885-2.1425-0.19219-0.77739-0.33482-1.1229-0.50714-1.427-0.64241-1.6134-2.75-6.6352-1.0051-2.2012-0.65372-1.2195-0.33001-0.52315-0.55356-0.68679-0.24467-0.19116-0.091021-0.034973-0.10274 0.028355 1.6867-1.6612 1.5066-1.5745 1.7821-2.0611 1.7577-2.2497 0.99418-1.3425 0.89286-1.3629 0.726-1.3982 0.5295-1.4903 0.53288-2.287 0.76817-4.1649 0.2886-1.1228 0.57374-1.8586 0.30723-1.1481 0.17183-0.99207 0.22674-2.1783 0.13992-0.88745 0.30149-1.1594 0.23707-0.68703 0.52044-1.1558 0.6134-1.1323 1.3404-2.2316 0.81737-1.467 0.54649-1.2233 0.28931-0.97224 0.2045-0.98502 0.15762-1.0777 0.028127-1.0885-0.10524-0.82056-0.19354-0.8014-0.26391-0.8099-0.30558-0.79204-1.3356-3.0518-0.79146-1.9397-0.21476-0.63413-0.24896-1.1469-0.016959-0.86013 0.10593-0.84672 0.37568-1.5864 0.39539-1.3526 0.44858-1.0025 0.56206-0.79392 0.77399-0.7882 0.57406-0.48402 1.3863-0.98882 1.0971-0.67184 1.045-0.56133 1.5579-0.73368-0.062324 0.18233-0.001382 0.21344 0.084507 0.49476 0.31286 0.92717 0.20087 0.44672 0.44872 0.79827 0.41361 0.55988 0.88526 0.82952 0.46891 0.31186 0.67409 0.33155 0.69086 0.19973 0.72511 0.046781 0.70317-0.10223 0.38452-0.11266 0.78893-0.33847 0.82781-0.494 0.38022-0.30591 0.4616-0.47402 0.57582-0.9278 0.18656-0.47207 0.23091-0.81087 0.15562-0.86014 0.26469-2.8031 0.12928-0.65403 0.29637-0.8992 0.43613-0.79078 0.57081-0.76286 0.34462-0.39738 0.92172-0.90592 0.96243-0.7411 1.0677-0.67891 1.7034-0.91079 1.3042-0.5938 1.7758-0.66835 3.5956-1.1307 4.4172-1.5782 1.0922-0.46044 1.065-0.54796 1.0727-0.66647 2.1771-1.5024 2.3077-1.6883 1.1585-0.72151 1.2116-0.526 1.1176-0.24644 1.177-0.093728 5.2578 0.082538 1.029-0.046284 1.0142-0.11359 1.2169-0.26603 0.9261-0.30846 3.778-1.577 1.1733-0.42546 1.3823-0.421 1.1928-0.28563 1.185-0.21595 1.9879-0.29772 2.5403-0.26797 1.88-0.083609 1.862 0.048188 1.8065 0.21944 1.7417 0.40694 0.97951 0.29414 1.1398 0.41206 1.1088 0.49642 0.99029 0.54219 1.4882 0.88253 0.93665 0.44902 0.67607 0.18861 0.18833 0.004006 0.13962-0.0783" stroke="#bdc660"/>
    </defs>
    <g clip-path="url(#pe5c6b44928)">
     <use y="280.512" fill="#bdc660" stroke="#bdc660" xlink:href="#mf9a35c1650"/>
    </g>
   </g>
  </g>
 </g>
 <defs>
  <clipPath id="pe5c6b44928">
   <rect x="7.2" y="7.2" width="201.63" height="266.11"/>
  </clipPath>
 </defs>
</svg>
