<?xml version="1.0" encoding="UTF-8"?>
<!DOCTYPE svg  PUBLIC '-//W3C//DTD SVG 1.1//EN'  'http://www.w3.org/Graphics/SVG/1.1/DTD/svg11.dtd'>
<svg width="371.52pt" height="262.45pt" version="1.1" viewBox="0 0 371.52 262.45" xmlns="http://www.w3.org/2000/svg" xmlns:xlink="http://www.w3.org/1999/xlink">
 <metadata>
  <rdf:RDF xmlns:cc="http://creativecommons.org/ns#" xmlns:dc="http://purl.org/dc/elements/1.1/" xmlns:rdf="http://www.w3.org/1999/02/22-rdf-syntax-ns#">
   <cc:Work>
    <dc:type rdf:resource="http://purl.org/dc/dcmitype/StillImage"/>
    <dc:date>2024-07-04T12:08:33.675317</dc:date>
    <dc:format>image/svg+xml</dc:format>
    <dc:creator>
     <cc:Agent>
      <dc:title>Matplotlib v3.7.1, https://matplotlib.org/</dc:title>
     </cc:Agent>
    </dc:creator>
   </cc:Work>
  </rdf:RDF>
 </metadata>
 <defs>
  <style type="text/css">*{stroke-linejoin: round; stroke-linecap: butt}</style>
 </defs>
 <g id="figure_1">
  <g id="patch_1">
   <path d="m0 262.45h371.52v-262.45h-371.52v262.45z" fill="none"/>
  </g>
  <g id="axes_1">
   <g id="PatchCollection_1">
    <defs>
     <path id="m31d85cd67f" d="m343.35-147.7 0.97035 0.91918 0.93206 0.99358 0.95908 1.1462 0.71549 0.98406 0.58918 0.98213 0.48144 1.1894 0.093231 1.0853-0.33514 0.89468-0.6795 0.78164-0.77034 0.58483-0.90701 0.53286-1.0094 0.49078-1.057 0.44584-2.2561 0.82556-3.2953 1.0722-8.9008 2.7399-4.9483 1.6555-5.8711 2.0559-2.1026 0.6687-6.6712 1.9885-2.2139 0.76042-1.3166 0.49942-2.8914 1.2161-4.425 1.9796-2.4282 1.1296-2.4131 1.2134-2.4047 1.3796-1.9767 1.2939-3.4398 2.3516-0.50933 0.27399-0.24715 0.005611-0.44974 0.15034-0.70178 0.3288-0.91895 0.5237-0.67135 0.43648-0.96022 0.70165-0.83441 0.67471-1.1711 1.0643-2.1906 2.267-0.82817 0.79586-2.0415 1.85-1.2016 1.2267-1.2362 1.3437-1.2009 1.3562-1.0252 1.252-2.7632 3.8304-0.97098 1.2025-1.4183 1.6061-3.627 3.8227-2.1912 2.188-1.1713 1.0916-1.21 0.99292-1.3789 0.93749-1.065 0.5805-0.81154 0.34978-0.86197 0.26793-0.66542 0.12448-0.79613 0.058484-1.3228-0.076973-3.2504-0.49766-2.6049-0.31314-3.3749-0.26179-1.8126-0.060619-1.607 0.025085-0.993 0.062344-1.7323 0.23257-1.7324 0.39181-2.4292 0.68669-2.6343 0.83568-4.0111 1.3469-4.9099 1.7929-1.3462 0.54996-3.0199 1.3206-1.9239 0.71723-1.4992 0.40054-1.9279 0.31041-2.5319 0.24584-1.101 0.06292-0.80802 0.003123-0.71785-0.053364-0.64789-0.10061-0.90456-0.22098-0.84226-0.28094-1.1882-0.48005-0.81625-0.38998-2.2474-1.214-1.4383-0.86995-0.64538-0.46941-0.79228-0.66251-2.5297-2.4777-0.47641-0.35922-0.49965-0.2916-0.79279-0.33735-1.2705-0.3646-2.33-0.56808-2.0542-0.36898-1.2993-0.32083-0.66446-0.27329-0.5223-0.27383-0.8318-0.53425-0.77707-0.59202-0.85464-0.74152-0.48753-0.48466-2.5964-2.999-2.9107-3.4853-1.2052-1.304-0.84449-0.80736-1.1584-0.93874-0.99784-0.66213-0.61036-0.34523-0.74123-0.35917-0.61886-0.2504-0.5507-0.1879-1.1615-0.30099-1.3111-0.19647-0.7345-0.049271-0.94936-0.008338-0.72294 0.031213-1.0926 0.10784-1.4619 0.26232-1.5837 0.45564-1.3914 0.55546-0.86088 0.42856-0.93256 0.54613-0.81135 0.56587-0.62511 0.50626-0.5661 0.51472-0.59768 0.61676-0.80096 1.0317-0.36314 0.58639-0.38292 0.72466-0.37577 0.85095-0.29529 0.80989-0.3933 1.4434-0.24283 1.5176-0.06458 0.90166 0.022965 1.5376 0.086103 0.86589 0.15399 0.95087 0.17752 0.80176 0.23752 0.85911 0.32819 0.97923 0.37675 0.95712 0.91783 1.9457 0.57288 1.0664 2.3948 4.0999 1.0723 1.9383 0.45682 0.90937 0.7187 1.6059 0.32366 0.82494 0.48522 1.4247 0.53163 2.0005 0.16617 0.78488 0.29458 1.7591 0.1344 1.1311 0.13284 1.8984 0.023995 1.0655-0.071062 2.3002-0.10365 1.2211-0.16668 1.3371-0.27991 1.6185-0.5215 2.2204-0.36893 1.299-0.53202 1.6651-1.0289 2.8101-1.1415 2.771-1.7783 3.9615-2.8359 5.997-0.1117 0.37066-0.37049-0.071052-0.3838 0.007626-1.6805 0.22491-1.2137 0.22929-1.053 0.32608-0.74521 0.34496-0.51466 0.31243-1.7839 1.3146-1.2968 0.89101-0.50624 0.2817-0.60712 0.24929-0.90096 0.22581-0.88106 0.095083-0.97901-0.03095-0.88649-0.15433-0.60756-0.18112-0.5398-0.20914-0.60225-0.28389-0.90685-0.51854-0.90809-0.6049-1.1429-0.83666-2.6442-2.0782-1.4452-1.2762-1.2336-1.2338-1.1668-1.3116-2.4256-2.8987-1.1617-1.2643-1.0813-0.99514-0.64091-0.47532-0.57866-0.33488-0.58039-0.246-0.62488-0.17434-0.76294-0.10972-0.592-0.026169-1.0649 0.050825-2.5702 0.33997-1.6514 0.10994-1.7028-0.009157-3.4013-0.15758-1.2445 0.015429-1.0897 0.103-1.2788 0.23556-1.1445 0.32328-0.79338 0.27707-1.0978 0.44029-0.96933 0.44159-2.5162 1.2565-1.4297 0.76709-1.096 0.68506-1.6891 1.2314-5.7168 4.7691-1.3023 1.0177-1.14 0.82992-0.75013 0.49518-0.80502 0.4528-1.0015 0.4556-1.2501 0.46632-1.7543 0.53058-1.3342 0.33833-1.1207 0.22007-1.7345 0.22293-2.3836 0.15788-5.0668 0.19012-2.0405 0.008246-4.2546-0.12686-1.6527 0.053147-1.105 0.11723-1.1895 0.23191-0.7696 0.26352-0.16351 0.10557-0.077954 0.13852-2.2575 0.46051-1.2673 0.29916-3.7128 1.0592-1.7611 0.57426-0.90932 0.36579-1.8629 0.85425-3.1383 1.6256-1.0172-1.8657-1.3494-2.2627-0.8136-1.2598-1.1406-1.5953-1.4848-1.7943-4.2004-4.6816-1.4319-1.7839-0.79118-1.141-0.49926-0.82076-0.56552-1.0484-0.71829-1.5634-0.58323-1.5697-0.28627-0.93724-0.28374-1.1193-0.39399-1.9684-0.22397-1.5107-0.16626-1.7752-0.071805-1.9938 0.032168-2.8374 0.12522-2.4307 0.26926-3.2776 0.29813-2.4453 0.19731-1.2038 0.28652-1.3182 0.52525-1.6473 0.60079-1.5984 0.35032-0.72445 0.43328-0.66017 0.33874-0.38191 0.34738-0.30925 0.49632-0.32012 0.31193-0.065329 0.12331-0.10971 0.30527-0.10211 1.9825-0.40844 1.795-0.27597 6.9456-0.89225 2.2956-0.33633 2.77-0.48756 2.1615-0.46343 2.3389-0.60815 2.6391-0.85431 1.1575-0.44095 1.6861-0.72639 1.2583-0.61572 1.0315-0.5596 1.2274-0.7377 1.3735-0.92695 1.7349-1.3361 2.1655-1.9119 4.3633-4.1235 1.8327-1.583 3.0681-2.4114 7.7691-5.6657 8.857-6.8442 2.3908-1.9555 0.87335-0.78377 1.4556-1.4602 0.83677-0.97569 0.50302-0.65731 0.74455-1.1098 0.74382-1.3446 0.50588-1.1247 0.30614-0.8112 0.30047-0.9427 0.25224-0.96015 0.31868-1.6118 0.16559-1.2568 0.12063-1.7005 0.026128-1.3694-0.032835-1.6357-0.16444-2.767-0.56778-7.3566-0.12379-2.8058-0.13883-5.6464-0.16412-2.6181-0.19059-1.6677-0.11268-0.16279-0.031145-0.22096 0.011526-0.47298 0.21694-1.2583 0.3712-1.2688 0.28069-0.7642 0.50122-1.1651 0.92764-1.8059 1.7776-3.1133 0.93969-1.7485 1.0078-2.0385 2.4685-5.2817 1.1141-2.1747 1.0179-1.7921 1.3524-2.1197 0.83461-1.1892 1.5843-2.0586 0.96588-1.1477 1.2487-1.3841 1.2311-1.2721 1.1694-1.1386 2.3015-2.0706 1.2917-1.0638 1.1396-0.87282 1.545-1.073 1.2863-0.78777 1.4569-0.77656 0.97618-0.45752 1.8815-0.75451 1.0505-0.35633 1.8037-0.51746 2.1276-0.4707 0.89518-0.15522 0.8982-0.12984 1.799-0.17394 2.0739-0.037814 3.7906 0.207 1.0449 0.021923 0.98283-0.035035 0.85575-0.086843 1.6939-0.32461 3.8797-1.0133 2.5369-0.49966 1.2957-0.29972 0.79234-0.28659 0.33056-0.17334 0.33665-0.2413 0.21863-0.22191 0.26036-0.42863 0.13349-0.4628 0.02873-0.47838-0.037675-0.36856-0.099297-0.44218-0.18933-0.55036-0.40252-0.87442-1.4529-2.6848-0.41531-0.92059-0.21597-0.75389-0.061491-0.40308-0.015426-0.63627 0.056831-0.47527 0.2186-0.78636 0.45488-0.97643 0.59482-0.95376 0.88283-1.196 1.7659-2.2348 0.60801-0.82884 0.71838-1.1279 0.33163-0.63426 0.32658-0.78748 0.2322-0.73856 0.55484-2.3944 0.22233-0.81522 0.36151-0.9276 0.30803-0.56822 0.41246-0.59682 0.42186-0.49096 0.42012-0.40329 0.87518-0.646 0.72554-0.4062 1.141-0.48591 0.67481-0.21927 0.68939-0.1784 3.1365-0.56036 1.201-0.35502 0.58884-0.22416 1.3041-0.61098 0.92165-0.5295 1.277-0.86803 1.0164-0.7874 0.63388-0.55576 1.2949-1.3642 0.59855-0.77798 0.70056-1.0525 0.6114-1.0879 1.7383-3.8509 0.38962-0.66679 0.30198-0.41753 0.26071-0.28446 0.42501-0.17411 0.18472-0.023468 0.61632-0.53511 2.738-3.0699 0.72957-0.77707 1.2345-1.2226 1.5837-1.3731 1.1224-0.81614 1.3715-0.81273 2.8036-1.4515 2.3285-1.1389 1.3029-0.52455 0.75247-0.24266 0.80738-0.19914 0.64108-0.10373 0.65792-0.045607 0.73258 0.039502 0.69639 0.15515 0.50047 0.2111 0.70288 0.49843 0.61416 0.66895 0.59843 0.8899 0.49228 0.91185 1.6996 3.7691 0.65307 1.2845 0.41606 0.69302 0.34598 0.49425 0.38924 0.46753 0.42757 0.40924 0.35162 0.25952 0.82827 0.39186 0.90734 0.21819 0.69148 0.086961 4.2085 0.32269 1.3182 0.18148 1.1718 0.31109 1.1871 0.43292 2.9456 1.1904 1.3653 0.42553 1.1695 0.27362 1.6892 0.26456 4.9464 0.53541 1.0848 0.18329 0.84008 0.1959 0.88674 0.27399 1.0896 0.43693 1.3447 0.69899 1.0459 0.65456 1.1285 0.81959 1.3296 1.1553 1.103 1.1335 1.1433 1.3923 0.52514 0.76952 0.65822 1.1447 1.4075 2.9512 0.52952 0.96959 0.57942 0.87799 0.51747 0.63675 0.91237 0.88638 0.74944 0.60839 0.68209 0.48961 1.3978 0.85025 0.76614 0.39138 1.36 0.59647 1.8668 0.72534 2.4818 0.88677 1.9752 0.64156 2.1 0.60247 2.0122 0.49362 2.4437 0.45726 2.0305 0.24638 1.541 0.10085 1.4853 0.02837 2.4213-0.08264 4.2-0.26103 1.0291-0.015045 0.99853 0.035187 1.6352 0.21949 0.90391 0.24428 0.83742 0.33459 0.9026 0.5227 1.1016 0.99485 0.78261 1.2298 0.36008 1.2718 0.025377 0.7989-0.30867 1.4409-0.45298 0.98976-0.53896 0.85833-0.76062 0.98818-1.6985 2.0488-0.6519 1.053-0.33346 0.98334 0.016857 1.1711 0.2598 0.66692 0.82548 0.97205 0.71226 0.51699 0.82033 0.47395 2.3066 1.2124 0.86802 0.53249 1.2199 0.91674 1.1341 1.0894 1.0854 1.2936 0.92575 1.2921 0.8832 1.377 0.97258 1.653 0.94162 1.7158 2.0925 4.1386 3.4584 7.3138 1.49 2.8571 1.2394 2.0965 0.92368 1.4212 0.96556 1.3952 2.0349 2.7299 2.3207 2.8228 1.7457 1.9395 1.1649 1.1969 1.205 1.1514 1.1648 1.0262 1.2047 0.97207 1.2994 0.9448 1.3505 0.86188 1.1446 0.62998 1.1841 0.55427 1.2394 0.47548 1.2773 0.386 1.4185 0.31423 1.4511 0.20998 1.3241 0.10271 1.3383 0.028249 1.3029-0.03651 1.3047-0.089482 2.3949-0.28841 1.2174-0.22034 1.1863-0.2797 2.1084-0.71666 1.5568-0.78733 1.5317-1.1213 0.94627-1.0584 0.29108-0.61363-0.079656-0.30381" stroke="#bdc660"/>
    </defs>
    <g clip-path="url(#pee70d03be0)">
     <use y="262.452794" fill="#bdc660" stroke="#bdc660" xlink:href="#m31d85cd67f"/>
    </g>
   </g>
  </g>
 </g>
 <defs>
  <clipPath id="pee70d03be0">
   <rect x="7.2" y="7.2" width="357.12" height="248.05"/>
  </clipPath>
 </defs>
</svg>
