<?xml version="1.0" encoding="UTF-8"?>
<!DOCTYPE svg  PUBLIC '-//W3C//DTD SVG 1.1//EN'  'http://www.w3.org/Graphics/SVG/1.1/DTD/svg11.dtd'>
<svg width="371.52pt" height="262.42pt" version="1.1" viewBox="0 0 371.52 262.42" xmlns="http://www.w3.org/2000/svg" xmlns:xlink="http://www.w3.org/1999/xlink">
 <metadata>
  <rdf:RDF xmlns:cc="http://creativecommons.org/ns#" xmlns:dc="http://purl.org/dc/elements/1.1/" xmlns:rdf="http://www.w3.org/1999/02/22-rdf-syntax-ns#">
   <cc:Work>
    <dc:type rdf:resource="http://purl.org/dc/dcmitype/StillImage"/>
    <dc:date>2024-07-04T12:08:45.423396</dc:date>
    <dc:format>image/svg+xml</dc:format>
    <dc:creator>
     <cc:Agent>
      <dc:title>Matplotlib v3.7.1, https://matplotlib.org/</dc:title>
     </cc:Agent>
    </dc:creator>
   </cc:Work>
  </rdf:RDF>
 </metadata>
 <defs>
  <style type="text/css">*{stroke-linejoin: round; stroke-linecap: butt}</style>
 </defs>
 <g id="figure_1">
  <g id="patch_1">
   <path d="m0 262.42h371.52v-262.42h-371.52v262.42z" fill="none"/>
  </g>
  <g id="axes_1">
   <g id="PatchCollection_1">
    <defs>
     <path id="m2dcd14f6f7" d="m348.09-199.35-0.29854 1.151-1.2449 4.0372-1.0625 3.8606-0.66981 1.8148-1.1905 2.2483-1.4842 2.1553-4.8196 6.0229-1.0498 1.549-0.94223 1.8163-0.47157 1.3991-0.22252 1.4489-0.007335 1.4558 0.062436 0.7759 1.2109 8.0979 0.10548 1.0415 0.021126 0.82811-0.19353 1.8885-0.47627 1.9338-0.45041 1.2807-0.82331 1.7258-0.84448 1.4286-1.1718 1.7073-1.1348 1.4623-2.0691 2.3411-1.9463 1.9061-2.5747 2.1372-1.9823 1.3238-2.4922 1.3363-1.6796 0.76724-4.5181 1.8769-1.3878 0.69289-1.1648 0.73737-1.0142 0.87069-0.65899 0.78027-0.50442 0.77003-0.87291 1.7826-0.72173 1.9986-2.4022 8.3757-0.95813 2.8565-0.77458 2.0864-0.71799 1.6869-0.82204 1.6363-0.75773 1.2804-0.72136 1.0927-1.8088 2.3598-2.0264 2.2629-2.1856 2.1909-2.2993 2.1387-2.3771 2.1022-9.754 8.2784-2.3786 2.0903-2.2967 2.1236-2.1731 2.1746-1.995 2.2488-1.745 2.3536-1.4006 2.4988-0.33038 0.76813-0.55533 1.5511-0.62394 2.1719-0.76458 3.2659-0.79869 3.9308-0.6816 3.8152-0.66669 4.3539-0.33881 2.8301-0.43573 4.9735-0.16194 2.5382-0.2478 5.5674-0.16963 8.3106-0.034566 9.4696-0.056062 2.0553-0.15819 0.90438-0.20022-0.077806-0.9808 8.93e-4 -2.5322 0.16555-2.9142 0.26791-3.9924 0.45182-8.6191 1.1004-2.9107 0.16865-1.651-0.055354-2.2726-0.24926-1.8828-0.34286-1.6804-0.39248-2.8787-0.80478-2.1002-0.68746-2.8376-1.1605-2.0232-1.0174-1.501-0.87899-2.8405-1.8998-1.6079-1.18-1.4505-1.1543-1.0205-0.88569-1.7334-1.6435-1.8113-1.8381-1.495-1.5879-2.5621-2.9003-3.0733-3.8659-1.3539-1.9175-3.096-4.9129-1.1539-1.6285-0.59386-0.72018-1.2653-1.3058-1.1065-0.97285-1.2572-0.97936-1.8017-1.1723-1.7296-0.89944-1.0566-0.43257-1.2687-0.40823-1.4182-0.36115-1.6414-0.33961-2.6473-0.41929-1.9713-0.17952-3.5943-0.13807-4.6431-0.080481-1.9837 0.00414-1.9891 0.077622-2.0705 0.20238-2.4602 0.44265-0.89167 0.22723-1.5744 0.49934-1.871 0.74114-7.609 3.6132-2.4234 0.99096-2.0138 0.7418-2.1013 0.67432-2.0718 0.54419-2.5123 0.52438-2.011 0.30127-1.6391 0.14544-1.9816 0.064186-7.2066-0.26455-2.966-0.059646-6.3358-0.032169-3.868 0.053354-2.9689 0.1626-2.9773 0.27767-3.5862 0.41259-4.725 0.62754-2.0191 0.20817-2.7895 0.1489-2.0967-0.049414-1.4202-0.16331-1.5655-0.33666-1.1823-0.36512-1.2496-0.48635-2.1455-1.0749-2.4974-1.5534-2.1917-1.5653-2.0939-1.8377-5.9985-6.0995-2.1139-1.8702-2.2798-1.5979-2.5792-1.2419-2.6705-0.7987-1.2967-0.24019-1.8959-0.19251-2.3098-0.016715-2.3431 0.16395-1.2416 0.14458-2.7661 0.47445-4.9963 1.1364-3.5762 0.67935-3.4096 0.4279-2.9042 0.16999-1.6501-0.009556-2.0131-0.14118-2.3232-0.40352-1.0765-0.34742-0.77286-0.44338-0.2163-0.27051 0.062218-0.47766-0.18471-0.097747-0.11562-0.35537 0.005641-0.56416 0.20167-0.98786 0.3927-1.1972 1.0485-2.4935 0.81322-1.7096 4.2521-8.2629 0.70534-1.5614 0.68122-1.8444 1.2447-4.215 1.1996-4.7031 0.85562-3.6386 0.74054-3.7933 0.31817-2.077 0.2392-2.0463 0.13815-1.7216 0.19911-3.8929 0.13848-1.9051 0.20499-1.8805 0.073603-1.8471-0.19362-1.6272-0.41267-1.6778-0.58134-1.7187-0.70982-1.7519-0.80643-1.7789-1.8264-3.6552-5.8262-10.612-2.8834-5.5531-1.7282-3.7506-0.80011-1.9811-0.73389-2.1028-0.6005-2.1436-0.29842-1.3963-0.30898-2.1434-0.10287-1.5528 0.013374-1.554 0.10602-1.25 0.19233-1.2293 0.42035-1.7476 0.5444-1.6606 0.79797-1.9659 0.84514-1.7717 1.5533-2.7799 0.60711-0.14422 4.9512-1.5395 2.2372-0.56112 1.8708-0.35585 1.7536-0.23102 2.6547-0.16702 2.2332 0.01131 2.2183 0.12592 9.1903 0.99828 8.6016 0.48226 2.4593 0.27256 4.2317 0.62128 2.6491 0.50858 3.0272 0.68679 3.8375 1.0525 1.8682 0.62296 1.8201 0.71001 1.4025 0.63953 5.7282 3.041 7.5457 3.7952 1.9638 0.87863 1.9645 0.70478 1.9623 0.44822 0.91028 0.092369 0.70922 0.011047 0.77096-0.05154 0.95668-0.15695 1.7245-0.5463 1.6459-0.85139 1.5305-1.102 4.2008-3.7417 2.4328-2.0341 2.089-1.6285 2.1783-1.605 2.2399-1.5617 2.264-1.4872 2.2325-1.3646 2.1152-1.1699 1.8623-0.87311 0.65543-0.24685 0.75779-0.21046 0.53715 0.078565 0.18971 0.003149 1.0108-0.35006 6.0207-2.491 2.8116-1.0503 3.2112-1.0604 3.5234-0.97605 3.3023-0.70512 3.4378-0.48905 1.8306-0.15178 1.8219-0.075762 2.0512 0.004591 1.5064 0.064296 3.4114 0.31901 9.6669 1.3969 3.719 0.32594 2.0483 0.07766 2.042 0.003493 3.4768-0.14248 3.4757-0.24271 5.9107-0.56668 4.4379-0.58969 2.1709-0.3722 2.9305-0.62322 5.0343-1.2274 1.9259-0.40831 1.5743-0.24994 2.4862-0.18478 4.1677-0.038393 2.1131-0.10271 2.7238-0.30956 1.4199-0.24425 1.6364-0.37051 1.4365-0.42879 1.869-0.75481 2.0801-1.1388 5.1692-3.2345 2.3853-1.313 1.7497-0.8141 2.5771-0.93852 2.6631-0.70327 2.707-0.48842 2.7106-0.28031 2.6737-0.065779 2.5934 0.16796 0.72345 0.094409 5.4736 0.94018 2.1299 0.25755 1.6486-0.008429 1.1412-0.16569 1.0302-0.28213 0.65582-0.24288 0.98313-0.45168 0.71052-0.39224 0.75613-0.47897 1.447-1.089 2.0349-1.8659 1.0801-1.1235 1.2522-1.4093 2.2486-2.8145 1.0581-1.4598 1.2695-1.8969 1.1137-1.8694 0.57023-1.0904 0.95164-2.1693 0.77736-2.3865 0.47553-2.1759 0.2844-2.2056 0.10592-2.4595-0.068827-2.4067-0.26187-2.9012-0.30666-2.199-0.67806-3.3171-0.24655-1.5278 0.006325-1.5366 0.27269-1.385 0.50085-1.1285 0.3778-0.48373 0.39094-0.3053 0.38342-0.15565 0.31555-0.047089 0.62629 0.07836 0.30908 0.10852 0.59196 0.33308 0.37856 0.30256 1.3373 1.4384 1.1458 1.3935 1.1953 1.6132 1.2911 2.035 3.8243 6.7857 1.2227 1.8698 4.0798 5.3562 1.4348 2.2256 0.95448 1.787 1.7275 4.0586 0.95607 1.9947 0.66641 1.1204 1.3773 1.9603 1.2704 1.5836 1.1866 1.318 2.0428 1.9464 1.4612 1.1788 1.5294 1.0578 1.834 1.0327 1.8994 0.78912 2.4672 0.63109 6.1391 1.0102 2.9625 0.28468 1.6049 0.051677 1.5078-0.045078 2.5729-0.33069 1.6819-0.36562" stroke="#bdc660"/>
    </defs>
    <g clip-path="url(#pa40a11ad39)">
     <use y="262.423052" fill="#bdc660" stroke="#bdc660" xlink:href="#m2dcd14f6f7"/>
    </g>
   </g>
  </g>
 </g>
 <defs>
  <clipPath id="pa40a11ad39">
   <rect x="7.2" y="7.2" width="357.12" height="248.02"/>
  </clipPath>
 </defs>
</svg>
