<?xml version="1.0" encoding="UTF-8"?>
<!DOCTYPE svg  PUBLIC '-//W3C//DTD SVG 1.1//EN'  'http://www.w3.org/Graphics/SVG/1.1/DTD/svg11.dtd'>
<svg width="168.85pt" height="280.51pt" version="1.1" viewBox="0 0 168.85 280.51" xmlns="http://www.w3.org/2000/svg" xmlns:xlink="http://www.w3.org/1999/xlink">
 <metadata>
  <rdf:RDF xmlns:cc="http://creativecommons.org/ns#" xmlns:dc="http://purl.org/dc/elements/1.1/" xmlns:rdf="http://www.w3.org/1999/02/22-rdf-syntax-ns#">
   <cc:Work>
    <dc:type rdf:resource="http://purl.org/dc/dcmitype/StillImage"/>
    <dc:date>2024-07-04T12:08:48.869219</dc:date>
    <dc:format>image/svg+xml</dc:format>
    <dc:creator>
     <cc:Agent>
      <dc:title>Matplotlib v3.7.1, https://matplotlib.org/</dc:title>
     </cc:Agent>
    </dc:creator>
   </cc:Work>
  </rdf:RDF>
 </metadata>
 <defs>
  <style type="text/css">*{stroke-linejoin: round; stroke-linecap: butt}</style>
 </defs>
 <g id="figure_1">
  <g id="patch_1">
   <path d="m0 280.51h168.85v-280.51h-168.85v280.51z" fill="none"/>
  </g>
  <g id="axes_1">
   <g id="PatchCollection_1">
    <defs>
     <path id="m4752093464" d="m147.31-73.543-0.20405 0.066159-0.47503 0.28221-1.4004 0.96037-2.0481 1.5439-1.1024 0.88049-3.2955 2.8024-7.8827 7.0741-2.1772 1.8494-2.609 2.0565-1.3854 1.0192-1.3975 0.9708-1.3068 0.84749-1.3236 0.79057-1.3968 0.74812-1.4265 0.65569-0.6878 0.27123-1.6049 0.52118-1.7218 0.44601-1.7431 0.39295-2.7014 0.55787-2.9438 0.5051-1.0827 0.1327-1.1413 0.093669-1.8815 0.05475-1.6225-0.032408-1.6072-0.080394-4.2403-0.26208-1.2218-0.026097-1.1547 0.034285-1.0682 0.11825-0.92699 0.22145-0.67954 0.28054-0.58842 0.37197-0.46724 0.40708-0.43098 0.52437-0.23704 0.37042-0.41799 0.79569-0.60931 1.4336-0.4211 1.2492-0.34089 1.2067-0.23266 1.2376-0.16275 1.3088-0.40527 4.1809-0.15474 1.21-0.21829 1.182-0.31249 1.1031-0.3052 0.74789-0.50681 0.94241-0.44594 0.61542-0.4983 0.56207-0.54175 0.51713-0.60372 0.45315-1.247 0.59694-1.0211 0.29268-1.0019 0.18496-1.2563 0.13737-1.1764 0.059826-1.3277 0.007137-1.5134-0.057864-1.65-0.13155-1.6442-0.19193-4.5074-0.64421-1.6479-0.16719-1.0438-0.069797-1.2149-0.040934-0.93916 0.004448-1.025 0.04765-1.2251 0.1242-1.4399 0.24494-0.69292 0.17005-0.83651 0.27031-0.61602 0.25945-0.73787 0.40862-0.44817 0.32073-0.78037 0.70246-0.78619 0.87321-1.6385 2.0575-0.48594 0.57064-0.85766 0.85627-0.41305 0.32808-0.46298 0.29923-0.36748 0.18414-0.44589 0.16213-0.79993 0.16046-0.97188 0.030828-0.87415-0.078173-1.4144-0.26284-1.1393-0.29036-1.9752-0.61293-1.6026-0.56406-1.6653-0.6428-1.5772-0.6681-1.8842-0.86629-1.9466-0.95075-2.7792-1.4358-2.085-1.1265-2.3739-1.3474-2.0833-1.2499-1.8821-1.1853-3.789-2.4582-1.8433-1.2959-0.51271-0.42352-0.077469-0.11263 0.095635-0.010339 0.2125-0.1693 0.43429-0.47302 0.56304-0.72352 0.64729-0.92353 3.7976-5.874 2.6115-3.7225 0.85066-1.2635 1.1392-1.846 0.55471-1.0028 0.4816-0.96868 0.62101-1.5202 0.18529-0.57474 0.28621-1.0988 0.27213-1.3687 0.67658-4.2711 0.3762-2.0356 0.3183-1.3623 0.5683-1.9236 0.71236-1.938 0.37396-0.88638 0.77042-1.6179 0.38044-0.70744 0.54202-0.91081 0.79999-1.1778 0.67271-0.87295 0.72529-0.84072 0.67837-0.70266 0.71726-0.66129 0.94888-0.75137 0.73093-0.48227 0.74173-0.40586 0.88704-0.37949 0.46441-0.16234 0.82578-0.24249 1.4341-0.31454 1.1694-0.18174 1.0906-0.12419 1.557-0.10351 2.8942-0.071526 3.7745-0.14019 0.85214-0.076848 0.92519-0.18282 0.47126-0.14603 0.47815-0.19026 0.69431-0.36518 0.67279-0.49708 0.55645-0.61802 0.50241-1.0162 0.28703-1.1367 0.57055-3.3676 0.16202-1.9376 0.027086-0.70238-0.013573-0.73638-0.14157-0.93115-0.32918-0.90585-0.68326-1.0246-0.91749-0.98146-2.1578-2.0154-1.0731-1.1296-1.014-1.3106-0.64223-0.96155-0.61207-0.99724-2.572-4.4885-0.6801-1.0894-0.75114-1.0823-0.6527-0.80946-0.69467-0.70686-0.7491-0.57712-0.54972-0.3093-0.70111-0.30004-2.5221-0.82665-0.71813-0.31074-0.63514-0.36711-0.45486-0.33204-0.46857-0.4027-0.52324-0.52008-0.77372-0.89786-0.55222-0.7336-0.59685-0.8816-0.6064-1.0169-0.27047-0.51174-0.41721-0.91078-0.3008-0.83378-0.34046-1.3626-0.20151-1.1667-0.099686-0.98997-0.013702-1.094 0.11858-1.119 0.14179-0.64736 0.15042-0.4958 0.2031-0.51983 0.44343-0.84633 0.62129-0.91026 1.0135-1.1917 1.1746-1.1534 1.4813-1.2885 0.84734-0.65376 0.70811-0.47164 0.99814-0.56068 1.7857-0.89778 0.68908-0.40887 0.33312-0.23218 0.76252-0.69115 0.52197-0.8108 0.19519-0.69709 0.038404-0.38606-0.017-0.66135-0.083458-0.59098-0.18948-0.79765-0.58628-1.6913-0.65192-1.5571-2.4699-5.6157-0.96445-2.3347-1.1077-2.8689-0.48299-1.1177-0.68674-1.3746-0.94098-1.6682-1.5715-2.5229-2.4634-3.7882-0.55987-0.92945-0.51778-0.94013-0.39167-0.79576-0.42588-0.9786-0.50242-1.3703-0.31493-1.0498-0.22887-0.95921-0.14715-1.0373 0.086898-0.4313-0.070302-0.037518-0.009169-0.080677 0.12489-0.2113 0.30354-0.29253 0.43086-0.33162 4.4046-2.8606 2.4114-1.6825 5.2829-3.9865 8.6205-6.2879 5.0956-3.8392 5.3289-3.5794 11.678-8.2695 8.6289-6.1943 18.833-13.628 38.729-27.644 8.5703-6.0212 3.8795-2.6267 1.8068-1.1518-0.77468 2.8908-0.86733 3.5039-0.42569 1.8994-0.3919 1.9344-0.20773 1.1479-0.31545 2.0611-0.25203 2.051-0.20376 2.0328-0.16791 2.0111-0.26358 3.9566-0.28819 5.7974-0.14137 3.7994-0.093638 3.7643-0.021605 3.7387 0.035687 3.9485-0.036459 3.259-0.114 2.8335-0.12502 1.8305-0.30284 3.013-0.45055 3.0953-0.28845 1.6771-0.76232 3.8639-0.56537 2.5188-1.8023 7.5132-0.96745 4.3688-0.33082 1.7456-0.24685 1.554-0.18321 1.5499-0.077552 1.0522-0.031321 1.0491 0.043909 1.3831 0.11922 1.1274 0.18454 1.1227 0.23745 1.125 0.65807 2.5274 0.99496 3.4829 0.46062 1.7457 0.39394 1.7087 0.81176 3.9877 0.6453 2.7316 0.8733 3.2547 2.1741 7.7075 0.46785 1.8118 0.47939 2.0518 0.4937 2.5377 0.28983 1.8165 0.097023 1.1097 0.006001 0.73392-0.066157 0.81487-0.10469 0.55361-0.16216 0.52871-0.54557 1.0531-0.71659 0.97045-1.4093 1.7689-0.62015 0.93225-1.5081 2.5381-0.96702 1.8104-0.59911 1.2452-0.71806 1.6842-1.6075 4.1639-0.88614 2.0983-0.78218 1.6227-1.5589 3.0222-0.59849 1.3001-0.39515 0.9886-0.26354 0.75413-0.43524 1.4875-0.2907 1.253-0.20221 1.0985-0.20068 1.5618-0.076222 1.2093 0.003029 1.1044 0.041567 0.62877 0.09855 0.73669 0.054031 0.27706 0.46664 1.503 0.68737 1.4883 2.5372 4.5631 0.64327 1.2467 0.65739 1.3633 0.62356 1.4024 0.66296 1.6556 0.58808 1.6855 0.5147 1.7505 0.42172 1.7135 0.2617 1.2556 0.24284 1.425 0.14126 1.1504 0.0315 0.60309-0.053402 0.23314" stroke="#bdc660"/>
    </defs>
    <g clip-path="url(#p9c5e06c5b5)">
     <use y="280.512" fill="#bdc660" stroke="#bdc660" xlink:href="#m4752093464"/>
    </g>
   </g>
  </g>
 </g>
 <defs>
  <clipPath id="p9c5e06c5b5">
   <rect x="7.2" y="7.2" width="154.45" height="266.11"/>
  </clipPath>
 </defs>
</svg>
