<?xml version="1.0" encoding="UTF-8"?>
<!DOCTYPE svg  PUBLIC '-//W3C//DTD SVG 1.1//EN'  'http://www.w3.org/Graphics/SVG/1.1/DTD/svg11.dtd'>
<svg width="230.61pt" height="280.51pt" version="1.1" viewBox="0 0 230.61 280.51" xmlns="http://www.w3.org/2000/svg" xmlns:xlink="http://www.w3.org/1999/xlink">
 <metadata>
  <rdf:RDF xmlns:cc="http://creativecommons.org/ns#" xmlns:dc="http://purl.org/dc/elements/1.1/" xmlns:rdf="http://www.w3.org/1999/02/22-rdf-syntax-ns#">
   <cc:Work>
    <dc:type rdf:resource="http://purl.org/dc/dcmitype/StillImage"/>
    <dc:date>2024-07-04T12:08:42.282579</dc:date>
    <dc:format>image/svg+xml</dc:format>
    <dc:creator>
     <cc:Agent>
      <dc:title>Matplotlib v3.7.1, https://matplotlib.org/</dc:title>
     </cc:Agent>
    </dc:creator>
   </cc:Work>
  </rdf:RDF>
 </metadata>
 <defs>
  <style type="text/css">*{stroke-linejoin: round; stroke-linecap: butt}</style>
 </defs>
 <g id="figure_1">
  <g id="patch_1">
   <path d="m-0 280.51h230.61v-280.51h-230.61v280.51z" fill="none"/>
  </g>
  <g id="axes_1">
   <g id="PatchCollection_1">
    <defs>
     <path id="m1038262e9a" d="m168.23-259.3 0.14345 0.090357 0.70643 0.71105 1.3815 1.5858 1.1849 1.4371 5.5598 6.9785 5.9097 7.3225 0.95824 1.2646 0.62426 0.94307 0.45728 0.8292 0.25588 0.56712 0.3839 1.1603 0.31006 1.6027 0.14614 1.6373 0.038491 1.6419-0.079313 1.8581-0.27344 1.7267-0.46569 1.7525-0.76238 2.1652-0.86314 2.104-2.0253 4.511-0.93017 2.1939-0.43925 1.2561-0.23592 1.0566-0.051878 0.63032 0.019147 0.58031 0.047696 0.37164 0.16512 0.69006 0.12466 0.35352 0.35645 0.73885 0.5864 0.82516 0.47146 0.48277 0.62632 0.48612 0.37586 0.22796 0.97138 0.44256 0.63517 0.21097 1.3457 0.32857 3.7604 0.68528 2.3706 0.51375 2.3923 0.63036 2.448 0.80931 2.9225 1.1799 2.1369 0.96826 3.0498 1.4728 4.0104 2.0612 1.5646 0.74742 1.0464 0.42292 1.0505 0.3301 0.76876 0.12306 0.11246-0.019817 0.065001-0.074641-0.002575 0.17139-0.2614 0.48246-0.82573 1.2237-1.4426 1.9166-3.5254 4.5048-2.1799 2.9181-1.7468 2.4639-2.7541 4.0643-2.4042 3.2734-0.86276 1.2409-0.83372 1.4205-0.42305 0.92847-0.33981 1.0641-0.13221 0.68873-0.050275 0.97715 0.12919 0.74267 0.32121 0.64452 0.47378 0.53683 0.22436 0.18528 0.61113 0.36039 1.1309 0.3627 1.5911 0.39854 1.465 0.46255 1.1918 0.53873 1.2033 0.69636 1.1851 0.83042 0.56497 0.45066 1.3423 1.2532 0.6612 0.74326 0.87168 1.1951 0.5176 0.92572 0.28153 0.61935 0.47216 1.3701 0.19664 0.81169 0.2029 1.2174 0.10351 1.1858 0.012652 0.64748-0.096182 1.4563-0.33215 1.7781-0.51418 1.6543-0.65224 1.4704-1.4447 2.5229-0.66991 1.5181-0.21872 0.69309-0.21207 1.1052-0.14737 1.0986-0.22651 1.0989-0.32656 0.90027-0.23422 0.49635-0.89499 1.4951-4.8999 6.9597-1.4072 1.8649-0.70119 0.83096-0.98926 1.0567-1.4353 1.299-1.0691 0.77999-1.2903 0.70565-0.82878 0.31294-0.84438 0.24048-2.4833 0.59738-1.0918 0.34068-0.63466 0.24863-0.98727 0.48873-0.95214 0.59547-0.50285 0.36592-0.96023 0.79511-1.3277 1.3016-2.2809 2.5953-1.8227 2.2064-0.70162 0.90383-0.7981 1.1614-0.70374 1.2197-0.58666 1.2735-0.34914 0.97244-1.2511 4.367-0.42732 1.1963-0.52142 1.1712-0.48647 0.88717-1.1777 1.7585-0.72503 0.9513-3.4132 4.2276-1.0205 1.3712-0.89138 1.2918-1.0827 1.6897-2.1564 3.6915-1.9156 3.5667-1.8686 3.6567-3.2942 6.6512-0.74222 1.5357-4.5765 10.005-2.4072 5.0618-1.8445 3.645-3.2149 6.0031-1.9124 3.8029-0.74686 1.5406-0.54562 1.248-0.57915 1.1069-0.49385 0.65835-0.54231 0.55986-0.65887 0.56708-1.6317 1.2077-0.97441 0.92164-0.89382 1.1105-0.66516 1.0525-0.67941 1.1842-0.64914 1.2401-0.723 1.5862-1.2066 3.1696-0.49833 1.099-0.6849 0.92803-0.63015 0.50524-0.808 0.43556-0.58382 0.2314-1.0833 0.30182-0.81557 0.14078-1.0832 0.10489-1.1533 0.041642-1.8687-0.019314-2.5392-0.1702-1.7093-0.19995-2.3863-0.36262-3.0835-0.60545-1.8509-0.45437-1.832-0.52036-1.6608-0.52067-1.3697-0.50267-1.2585-0.56229-0.84057-0.46314-0.76733-0.52206-1.2359-1.2413-0.1962-0.28954-0.57008-1.1468-0.36975-1.1564-0.28844-1.3734-0.25673-1.9509-0.56186-6.8981-0.17286-1.6683-0.23887-1.7892-0.44204-2.3058-0.27928-1.0491-0.33531-0.99074-0.40609-0.92261-0.49522-0.83851-0.47636-0.60835-0.63651-0.63854-0.62212-0.50321-0.9599-0.61895-0.79157-0.40154-0.55999-0.23316-1.2037-0.39841-2.9918-0.76326-4.3646-1.2402-1.1223-0.25104-0.9788-0.15429-1.3464-0.071606-1.6316 0.17216-1.114 0.24247-1.4452 0.41818-2.2277 0.8104-1.8744 0.79409-1.8909 0.86823-5.5604 2.6673-2.0271 0.92525-2.0213 0.84496-1.4179 0.5226-2.1331 0.63371-1.1771 0.25039-1.1614 0.16048-1.9861 0.017608-1.3232-0.21088-1.2914-0.34017-0.95229-0.30787-1.2658-0.48603-1.3959-0.65474-1.0849-0.60112-0.9488-0.60269-0.8507-0.61682-0.59969-0.48642-1.3915-1.3108-1.2789-1.4428-1.2876-1.7126-1.0372-1.5678-2.5855-4.1791-1.3444-2.0175-1.0421-1.2473-0.2672-0.26114-0.80809-0.66907-0.67198-0.4574-1.8671-1.0589-1.4942-0.709-0.86251-0.31452-0.71209-0.20457-0.87585-0.18692-0.55497-0.076321-0.52876-0.031815-0.84918 0.035831-0.69592 0.10072-0.79003 0.20478-0.54502 0.20178-0.48315 0.25289-0.34732 0.30854-0.07769 0.16461 0.015649 0.16345-0.092396-0.094608-0.10084-0.26886-0.2016-0.75969-0.32089-1.6882-0.25053-1.6927-0.39039-3.2018-0.20674-2.0654-0.18519-2.453-0.067512-2.174 0.021312-1.0798 0.089726-1.3641 0.15778-1.3103 0.29598-1.571 0.31708-1.1597 0.31741-0.88013 0.84611-1.7173 0.85505-1.3676 0.89877-1.1859 0.81822-0.9494 2.4539-2.6371 1.0226-1.1686 0.85941-1.1318 0.69108-1.0661 0.56659-0.99501 0.42388-0.83533 0.6931-1.645 0.4336-1.4392 0.27337-1.5023 0.1215-1.1559 0.025738-1.1582-0.071839-0.98029-0.11064-0.80069-0.69772-3.4192-0.36922-2.1543-0.12863-1.171-0.29858-3.6971-0.19807-1.3506-0.47333-2.3675-0.24226-1.8361-0.14066-1.9439-0.16504-4.5309-0.018609-2.0132 0.13044-2.1629 0.26122-2.4989 0.5739-4.7701 0.46648-4.4153 0.26369-1.3147 0.22383-0.69087 0.50414-1.1387 0.72833-1.2351 1.0213-1.3586 0.93209-1.041 0.992-1.0016 3.1571-3.0379 1.0488-1.2108 0.77821-1.2621 0.27668-0.75492 0.1417-1.5175-0.1442-1.0412-0.44363-1.4219-0.52422-1.1206-0.55813-0.93953-0.92231-1.2828-3.066-3.8149-1.1149-1.5552-1.0529-1.6177-0.97866-1.6632-0.88823-1.6943-0.7764-1.7127-0.6366-1.7198-0.34764-1.2149-0.24982-1.2067-0.13881-1.0687-0.51924-6.684-0.065013-1.5592 0.065395-1.3569 0.11114-0.76979 0.18113-0.75475 0.3391-0.92195 0.66316-1.2669 0.92336-1.3645 0.645-0.83914 3.7896-4.5123 1.795-2.03 3.394-3.6832 1.3631-1.6013 0.91567-1.1628 1.2964-1.7899 1.089-1.6727 1.2305-2.1599 1.1147-2.1777 0.55946-0.97323 0.92496-1.4678 0.79046-1.1602 0.96355-1.3153 1.325-1.582 1.6231-1.6581 1.7225-1.5461 1.5598-1.2613 1.8749-1.3565 0.67388-0.42514 1.144-0.63727 1.5215-0.70308 2.5799-0.957 1.0897-0.30351 0.24964-0.016281 0.45525 0.005327 1.1456-0.074851 3.4833-0.34833 2.6384-0.38048 4.0952-0.72511 6.6198-1.3445 15.032-3.1817 11.165-2.2137 3.1892-0.71016 5.9549-1.5053 4.0535-0.87113 3.9073-0.76502 1.9287-0.33714 1.8657-0.26868 2.8101-0.27752 4.0324-0.25421 1.7195-0.20192 1.6877-0.3183 0.90357-0.24999 0.83084-0.30109 0.50136-0.22603 1.287-0.7736 0.98068-0.76366 2.2212-1.8704 1.2053-0.85186 3.5719-2.258 1.3024-0.72652 1.0181-0.49372 1.7291-0.69757 0.8767-0.28823 1.5675-0.41018 1.5168-0.28362 2.4548-0.28909 2.4899-0.12584 1.2506 0.059069 1.0339 0.16521 0.83413 0.24576 0.72607 0.31382 0.69099 0.41724 0.44331 0.40173 0.12001 0.30849" stroke="#bdc660"/>
    </defs>
    <g clip-path="url(#p654006720f)">
     <use y="280.512" fill="#bdc660" stroke="#bdc660" xlink:href="#m1038262e9a"/>
    </g>
   </g>
  </g>
 </g>
 <defs>
  <clipPath id="p654006720f">
   <rect x="7.2" y="7.2" width="216.21" height="266.11"/>
  </clipPath>
 </defs>
</svg>
