<?xml version="1.0" encoding="UTF-8"?>
<!DOCTYPE svg  PUBLIC '-//W3C//DTD SVG 1.1//EN'  'http://www.w3.org/Graphics/SVG/1.1/DTD/svg11.dtd'>
<svg width="309.53pt" height="280.51pt" version="1.1" viewBox="0 0 309.53 280.51" xmlns="http://www.w3.org/2000/svg" xmlns:xlink="http://www.w3.org/1999/xlink">
 <metadata>
  <rdf:RDF xmlns:cc="http://creativecommons.org/ns#" xmlns:dc="http://purl.org/dc/elements/1.1/" xmlns:rdf="http://www.w3.org/1999/02/22-rdf-syntax-ns#">
   <cc:Work>
    <dc:type rdf:resource="http://purl.org/dc/dcmitype/StillImage"/>
    <dc:date>2024-07-04T12:08:54.041988</dc:date>
    <dc:format>image/svg+xml</dc:format>
    <dc:creator>
     <cc:Agent>
      <dc:title>Matplotlib v3.7.1, https://matplotlib.org/</dc:title>
     </cc:Agent>
    </dc:creator>
   </cc:Work>
  </rdf:RDF>
 </metadata>
 <defs>
  <style type="text/css">*{stroke-linejoin: round; stroke-linecap: butt}</style>
 </defs>
 <g id="figure_1">
  <g id="patch_1">
   <path d="m0 280.51h309.53v-280.51h-309.53v280.51z" fill="none"/>
  </g>
  <g id="axes_1">
   <g id="PatchCollection_1">
    <defs>
     <path id="mfb885adcf0" d="m261.41-202.78 2.6572 2.4928 2.5751 2.93 2.4312 3.4311 3.3266 5.7169 1.2845 1.9948 1.95 2.4304 2.761 2.7575 2.7901 2.3194 1.2497 0.77877 1.4472 0.60713 0.7624 0.17285 1.5637 0.034416 1.4774-0.25816 1.2279-0.40318-0.50852 0.77454-0.49942 1.7956-0.44008 2.4661-0.93312 6.929-1.01 3.6409-0.82981 1.8678-2.1046 3.331-1.8043 2.1314-2.0306 1.9689-2.2963 1.9118-2.6436 1.9623-3.0505 2.054-3.6186 2.2191-5.858 3.1646-3.7157 1.7114-3.2618 1.3057-15.096 5.1815-5.7069 2.1036-2.9305 1.2161-3.1513 1.4753-2.7359 1.4725-2.1742 1.3119-2.2497 1.4873-3.042 2.2309-2.3165 1.8889-2.1912 1.9632-2.2628 2.2519-2.052 2.3207-1.5537 2.0314-1.0696 1.6208-0.99163 1.7805-0.87342 1.9837-0.67817 2.1658-0.42579 2.678 0.017553 2.068 0.22724 1.4662 0.24826 0.90849 0.46187 1.1618 0.92248 1.5362 0.63036 0.7662 0.89541 0.86899 1.9433 1.3514 2.5058 1.1505 6.0262 1.9329 3.5557 1.3794 1.3845 0.71464 1.575 0.99382 1.7976 1.4163 2.1978 2.2472 1.3942 1.8044 2.1788 3.6293 1.8329 4.1176 1.0138 2.8792 0.88371 2.9879 1.2957 5.5305 0.81118 4.6422 0.65127 5.4764 0.25102 4.3016-0.069901 5.108-0.21625 2.4665-0.7562 4.3286-1.2637 4.1894-1.2706 2.8756-1.6376 2.6525-1.3773 1.6169-1.2245 1.0949-1.3369 0.90687-1.1326 0.57197-1.4425 0.50738-1.4118 0.29441-2.0764 0.13849-2.7167-0.26081-1.7536-0.42018-2.1492-0.76885-2.5841-1.2625-2.884-1.7864-2.2771-1.62-9.3543-7.2892-3.2661-2.3975-3.8524-2.5054-2.2326-1.2459-2.0195-0.99518-3.4507-1.4984-3.9388-1.5359-7.2563-2.6112-3.8589-1.2862-6.8989-2.0712-13.335-3.3256-1.7827-0.52096-3.7269-1.3577-2.8513-1.3931-1.8611-1.0895-6.4224-4.2258-3.1854-2.009-3.5186-2.0465-4.871-2.4882-4.075-1.727-4.9572-1.627-3.2574-0.72677-3.7551-0.39648-1.5469 0.004162-3.2053 0.36403-2.451 0.65566-2.4566 1.16-0.96073 0.80185-0.33354 0.79504-7.3005 0.41382-3.2058 0.038261-2.1813-0.092619-3.024-0.35695-3.2162-0.73331-2.9299-1.0221-2.2904-1.0444-2.2028-1.2181-3.6792-2.5515-2.7418-2.388-2.6925-2.8492-2.2166-2.8574-1.2509-1.8916-2.302-4.1295-1.064-2.2198-1.9507-4.5943-3.5967-9.6408-2.9707-7.3091-1.8564-4.9834-1.2662-4.4505-0.4456-2.3971-0.22113-2.3698 0.026097-2.0369 0.19622-1.7735 0.44846-2.1252 0.69511-2.0642 1.5151-3.199 1.9224-3.201 2.1667-3.1624 6.4147-8.9367 1.7853-2.8607 0.95798-1.7609 0.82882-1.7762 0.76404-2.0258 0.73525-2.532 0.44749-2.5432 0.064302-2.5461-0.37734-2.4823-0.7462-2.4935-0.84013-2.0974-0.99864-2.1151-1.4975-2.7896-1.6685-2.8055-2.9648-4.5368-2.5304-3.5447-1.9328-2.4604-2.4964-2.7401-2.9042-2.5664-2.3879-1.7248-2.1781-1.364-7.8001-4.0619-2.662-1.6627-2.2265-1.839-0.56133-0.65597-0.22325-0.42251 0.070493-0.44406 0.34709 0.15885 1.1113-0.36987 1.2315-0.67511 1.7354-1.131 3.2741-2.4718 3.623-3.0851 3.7748-3.5751 2.7229-2.8052 3.3954-3.7636 9.6456-11.069 6.62-6.9962 2.403-2.3398 2.8145-2.5282 2.8911-2.2722 1.983-1.3285 1.8625-1.0654 2.211-1.0373 1.8869-0.70194 2.335-0.66901 2.0502-0.45658 2.432-0.4141 2.8275-0.33478 4.7339-0.28332 5.5688 0.013427 5.9463 0.36303 4.5332 0.51578 4.464 0.73174 3.1028 0.66551 4.0735 1.1528 4.473 1.7834 3.3652 1.6522 13.829 7.8577 4.5041 2.3692 2.6023 1.2287 3.1834 1.2879 1.7222 0.5935 2.9782 0.85799 3.1188 0.65737 3.1008 0.30651 3.0528-0.11806 3.1076-0.45104 4.2118-0.94162 3.7163-1.0219 12.958-4.0936 2.9577-0.74925 2.8531-0.45322 1.5703-0.073113 2.526 0.22532 2.6436 0.67073 2.8619 1.1828 2.4359 1.372 1.6161 1.1099 2.2733 1.8983 1.8708 1.9603 0.95739 1.2075 0.90411 1.3549 0.9295 1.8282 1.6859 3.7919 1.8779 2.96 2.6553 3.1227 3.4269 3.0493 2.4442 1.7255 4.9515 2.9552 6.082 3.0455 6.6588 2.9444 19.021 7.8945" stroke="#bdc660"/>
    </defs>
    <g clip-path="url(#p8708b96d9a)">
     <use y="280.512" fill="#bdc660" stroke="#bdc660" xlink:href="#mfb885adcf0"/>
    </g>
   </g>
  </g>
 </g>
 <defs>
  <clipPath id="p8708b96d9a">
   <rect x="7.2" y="7.2" width="295.13" height="266.11"/>
  </clipPath>
 </defs>
</svg>
