<?xml version="1.0" encoding="UTF-8"?>
<!DOCTYPE svg  PUBLIC '-//W3C//DTD SVG 1.1//EN'  'http://www.w3.org/Graphics/SVG/1.1/DTD/svg11.dtd'>
<svg width="296.93pt" height="280.51pt" version="1.1" viewBox="0 0 296.93 280.51" xmlns="http://www.w3.org/2000/svg" xmlns:xlink="http://www.w3.org/1999/xlink">
 <metadata>
  <rdf:RDF xmlns:cc="http://creativecommons.org/ns#" xmlns:dc="http://purl.org/dc/elements/1.1/" xmlns:rdf="http://www.w3.org/1999/02/22-rdf-syntax-ns#">
   <cc:Work>
    <dc:type rdf:resource="http://purl.org/dc/dcmitype/StillImage"/>
    <dc:date>2024-07-04T12:08:51.722753</dc:date>
    <dc:format>image/svg+xml</dc:format>
    <dc:creator>
     <cc:Agent>
      <dc:title>Matplotlib v3.7.1, https://matplotlib.org/</dc:title>
     </cc:Agent>
    </dc:creator>
   </cc:Work>
  </rdf:RDF>
 </metadata>
 <defs>
  <style type="text/css">*{stroke-linejoin: round; stroke-linecap: butt}</style>
 </defs>
 <g id="figure_1">
  <g id="patch_1">
   <path d="m0 280.51h296.93v-280.51h-296.93v280.51z" fill="none"/>
  </g>
  <g id="axes_1">
   <g id="PatchCollection_1">
    <defs>
     <path id="m941cd9596f" d="m274.37-102.73-0.6703 0.1809-0.46088 0.87238-0.19363 0.94338-0.078512 1.1635 0.019977 1.0455 0.1589 1.7212 0.22617 1.4747 0.64896 3.1412 1.6298 7.1118 0.57073 3.4882 0.38544 3.5255 0.23404 3.7009 0.045899 3.1588-0.12476 2.6823-0.17634 1.7114-0.26313 1.7246-0.42374 2.0147-0.62973 2.2317-0.64032 1.789-0.83069 1.9262-0.80469 1.639-1.2784 2.3454-4.0285 6.5728-1.7025 3.1686-0.8595 2.2125-1.2552 4.229-0.6517 1.8152-0.71452 1.2942-0.94732 0.93494-0.44342 0.24311-0.74544 0.24601-1.3997 0.14028-1.9082-0.15729-1.8003-0.34476-2.1002-0.60731-1.8823-0.69313-7.133-3.0654-3.5818-1.4329-2.5953-0.85122-4.3309-1.2531-6.4499-1.699-5.2343-1.7514-1.86-0.45061-1.5711-0.1919-1.0519-0.007906-2.1458 0.3127-2.7864 0.94178-2.2111 1.0625-2.2615 1.2849-2.3134 1.4507-2.5794 1.7282-3.3008 2.4295-2.2446 1.8618-2.1898 1.9957-2.115 2.0875-2.4863 2.6483-2.262 2.5768-4.188 5.0917-0.18216 0.02333-0.40743-0.089547-0.79344-0.23839-2.9187-1.0677-4.6656-1.953-3.5591-1.5877-4.078-1.8914-6.7223-3.3156-4.9478-2.5761-6.6773-3.6221-3.9471-2.0025-2.3603-1.0799-2.3678-0.98121-3.975-1.3922-2.7892-0.76568-1.6507-0.36968-2.094-0.38149-2.0882-0.29585-3.1942-0.3212-8.921-0.54392-3.5583-0.45483-2.7912-0.51306-2.2799-0.50812-6.7318-1.8139-4.522-1.0918-3.2085-0.58606-5.3447-0.76973-2.9288-0.55024-2.7314-0.74885-1.8684-0.69206-2.4015-1.1106-2.897-1.6421-2.7725-1.8538-2.8815-2.2166-2.5443-2.2135-2.9256-2.8569-2.4489-2.6599-2.1755-2.6011-2.955-3.9116-7.4574-10.6-3.5426-4.696-1.6313-2.3472-1.4204-2.4283-1.112-2.494-0.85655-2.5935-0.6311-2.6566-0.38976-2.3244-0.98983-7.3294-0.32148-1.6262-0.44419-1.749-0.52929-1.6222-0.59543-1.5429-3.3814-7.924-0.78935-2.2488-0.68577-2.5101-0.76347-3.9063-1.2394-7.9168-0.64627-3.1747-1.5958-6.6366-0.66593-3.1494-1.368-8.1383-0.6537-3.3537-0.45934-1.7733-0.6877-2.1347-2.4514-6.2043-0.32112-1.0113-0.28456-1.209-0.12135-0.89787 0.10802-2.7129 0.62567-2.8752 2.2109-7.3502 0.50445-2.0161 0.76371-3.6747 0.70246-4.2678 0.28321-2.2239 0.26081-3.1099 0.057171-1.5402-0.036001-2.7778-0.40208-3.7992-0.4049-2.1017-0.49466-1.9641-0.87463-2.6748-0.77196-1.7043-0.18849-0.27608-0.21573-0.13692-0.075031-0.1852 0.018008-0.23717 0.12139-0.30356 0.46962-0.56927 0.55126-0.37944 0.61114-0.27189 0.70734-0.21605 1.1601-0.23259 1.2054-0.15424 5.5305-0.55865 2.8709-0.18874 1.1514 0.009156 1.7001 0.15917 2.0717 0.47106 2.8032 0.90688 1.058 0.2371 0.55692 0.055664 0.67859-0.024129 0.65392-0.13468 0.69528-0.25425 1.0307-0.5403 1.7431-1.196 1.6365-1.2963 3.7237-3.2437 3.1241-2.8868 4.5141-4.4679 1.9668-2.0721 4.3143-4.76 2.3494-2.2606 3.0687-2.617 6.6572-5.4236 3.8083-3.3406 1.3055-1.2702 1.0543 0.35836 0.93606 1.2846 0.73878 2.202 0.14834 1.0662 0.040529 1.2955-0.034347 0.75338-0.23732 1.9112-0.35999 1.7386-2.6127 9.1523-0.68318 3.1952-0.44581 3.1867-0.088436 2.9202 0.39808 2.5438 0.3848 1.0207 0.45244 0.84172 0.56519 0.8234 2.1848 2.6256 1.0064 1.3541 0.92373 1.5149 0.625 1.3876 0.37706 1.3338 0.1834 1.22 0.16427 4.73 0.25829 2.4282 0.32203 1.3753 0.38489 1.1375 0.96851 2.0578 0.66073 1.0999 0.96724 1.3334 0.95251 1.0704 0.9201 0.83579 0.98227 0.68835 0.90911 0.46556 1.0765 0.36866 1.2454 0.22901 1.358 0.069245 2.5475-0.21025 1.8854-0.3406 1.9565-0.45581 4.4841-1.2486 8.8875-2.6546 6.0189-1.7048 4.6251-1.2196 3.6367-0.82318 4.4843-0.82688 2.5776-0.37003 2.537-0.27882 4.8365-0.40658 3.4702-0.44101 3.8507-0.70555 1.5379-0.37185 2.0578-0.62399 1.8102-0.73092 1.3691-0.71327 2.6657-1.7289 3.2583-2.4907 6.0505-5.0485 2.3169-1.6398 1.2966-0.77278 2.9368-1.3526 1.6639-0.6012 5.5162-1.6066 2.5124-0.80578 2.4695-1.0136 1.3017-0.66917 2.0041-1.2125 2.4623-1.7506 6.6238-5.3567 3.4251-2.5255 3.1337-1.962 2.2175-1.2041 2.3283-1.0621 0.99246-0.33498 1.1257-0.23591 1.2362 0.030748 0.55816 0.18375 0.46109 0.2862 0.53383 0.57161 0.41484 0.78892 0.28762 1.1232 0.062619 0.60118-0.061642 1.7939-0.25277 1.4677-0.35242 1.3766-0.93865 2.6779-0.82611 1.8678-1.1915 2.3118-2.5504 4.555-1.503 3.0739-1.1524 3.0383-0.59835 2.3714-0.25768 1.8888-0.049942 2.0567 0.18546 1.9766 0.45556 2.123 0.6579 2.0656 0.78516 1.9801 1.1565 2.5239 2.4401 4.8999 1.891 4.0968 8.8946 21.829 1.4927 3.0262 1.4681 2.4769 1.7264 2.4787 0.7076 0.91424 1.2599 1.5232 2.2194 2.4889 3.1593 3.2901 6.2479 6.138 1.9367 2.0981 1.2718 1.5073 2.8193 3.7507 1.9152 2.8042 1.5784 2.5354 1.5098 2.686 2.7972 5.1719 1.4202 3.0026 0.5016 1.2686 0.77665 2.2892 1.5671 5.5644 1.0935 3.5133 1.2052 3.4395 1.2327 3.2172 1.1531 2.7791 0.93263 2.0258 0.53866 0.81373" stroke="#bdc660"/>
    </defs>
    <g clip-path="url(#pf73332be9f)">
     <use y="280.512" fill="#bdc660" stroke="#bdc660" xlink:href="#m941cd9596f"/>
    </g>
   </g>
  </g>
 </g>
 <defs>
  <clipPath id="pf73332be9f">
   <rect x="7.2" y="7.2" width="282.53" height="266.11"/>
  </clipPath>
 </defs>
</svg>
