<?xml version="1.0" encoding="UTF-8"?>
<!DOCTYPE svg  PUBLIC '-//W3C//DTD SVG 1.1//EN'  'http://www.w3.org/Graphics/SVG/1.1/DTD/svg11.dtd'>
<svg width="278.23pt" height="280.51pt" version="1.1" viewBox="0 0 278.23 280.51" xmlns="http://www.w3.org/2000/svg" xmlns:xlink="http://www.w3.org/1999/xlink">
 <metadata>
  <rdf:RDF xmlns:cc="http://creativecommons.org/ns#" xmlns:dc="http://purl.org/dc/elements/1.1/" xmlns:rdf="http://www.w3.org/1999/02/22-rdf-syntax-ns#">
   <cc:Work>
    <dc:type rdf:resource="http://purl.org/dc/dcmitype/StillImage"/>
    <dc:date>2024-07-04T12:09:06.093035</dc:date>
    <dc:format>image/svg+xml</dc:format>
    <dc:creator>
     <cc:Agent>
      <dc:title>Matplotlib v3.7.1, https://matplotlib.org/</dc:title>
     </cc:Agent>
    </dc:creator>
   </cc:Work>
  </rdf:RDF>
 </metadata>
 <defs>
  <style type="text/css">*{stroke-linejoin: round; stroke-linecap: butt}</style>
 </defs>
 <g id="figure_1">
  <g id="patch_1">
   <path d="m-0 280.51h278.23v-280.51h-278.23v280.51z" fill="none"/>
  </g>
  <g id="axes_1">
   <g id="PatchCollection_1">
    <defs>
     <path id="mf9d59fff3f" d="m129.55-247.92 0.79989-0.68269 0.51147-0.39096 0.76583-0.52143 1.0467-0.57909 1.0012-0.41074 0.82381-0.24597 0.85739-0.18498 0.97091-0.13895 0.98807-0.079776 1.8304-0.025945 3.4082 0.09804 1.2489-0.056493 1.1191-0.14866 1.0927-0.23938 0.98391-0.28955 0.83704-0.29473 1.2042-0.48099 6.2478-2.8052 2.0126-0.81608 1.2606-0.3761 0.69482-0.12344 0.682-0.040818 1.1089 0.15141 0.52203 0.18225 0.59952 0.31069 0.62612 0.4529 0.86189 0.85007 0.62101 0.7639 0.59601 0.82682 1.0801 1.621 1.2207 1.9086 2.4442 3.9734 0.78188 1.1257 0.4624 0.56551 0.52818 0.53559 0.53194 0.40942 0.60694 0.31373 0.75185 0.17732 0.90972-0.074777 0.60394-0.22082 0.57792-0.34771 0.48923-0.41588 0.44949-0.50503 0.39855-0.58204 0.34568-0.65537 0.31334-0.79859 0.23822-0.86762 0.17182-1.021 0.079747-1.0757-0.005866-1.065-0.078096-1.0858-0.13671-1.0691-0.18144-1.0574-0.84305-3.7979-0.084997-0.52676 0.039206-0.10891-0.020183-0.050708 0.036263-0.12365 0.067105-0.091199 0.41957-0.3484 0.37302-0.225 0.52892-0.26175 0.75656-0.30181 1.2715-0.37855 0.94296-0.20125 0.97591-0.1471 1.5624-0.11212 1.2654 0.025165 1.7601 0.24371 1.5055 0.47632 0.89 0.45995 0.6199 0.44028 1.0082 1.0315 0.64906 0.95059 0.59589 1.1184 1.6128 3.6222 1.0397 2.1325 0.89554 1.5892 0.62016 0.90149 0.39236 0.47946 0.64021 0.64301 0.7494 0.59386 0.76146 0.50347 2.1553 1.3052 1.2953 0.85828 1.277 0.96582 1.1252 1.0074 0.47744 0.49066 0.62308 0.71351 0.66797 0.85579 0.95682 1.331 0.82756 1.2474 2.3487 3.8388 0.78142 1.141 1.3311 1.7164 1.3962 1.6158 0.95716 1.0083 0.69704 0.67122 0.92644 0.81227 0.97054 0.765 1.2676 0.88495 0.92564 0.57914 1.9059 1.0527 0.97582 0.47532 1.9564 0.82998 1.8482 0.63881 1.6015 0.44912 1.8938 0.4318 1.8021 0.3438 3.5973 0.58035 4.3332 0.64689 4.5182 0.63672 3.7725 0.46054 2.0288 0.20831 2.4241 0.18747 2.3194 0.1043 2.1593-0.023119 0.81577-0.055987 0.83446-0.1066 0.60288-0.13991 0.15862-0.06232-0.2097 0.27387-4.1224 6.1702-2.5762 3.797-2.5595 3.6488-1.249 1.7005-1.2222 1.5811-1.1918 1.4263-1.1571 1.2252-1.1169 0.9626-1.0689 0.61902-1.0101 0.16994-0.78067-0.25621-0.90663-0.67925-0.60729-0.61716-1.9604-2.2722-0.53531-0.54561-0.70422-0.56074-0.4969-0.24421-0.28986-0.067933-0.18413-0.009867-0.5806 0.1426-0.77774 0.53592-0.66601 0.69508-0.67706 0.86296-0.7144 1.0243-0.9527 1.483-0.88179 1.4637-0.87466 1.542-1.3125 2.5305-1.1362 2.4348-0.67009 1.5495-1.0828 2.7466-0.61585 1.8039-0.33921 1.1493-0.28747 1.151-0.28603 1.5284-0.12319 0.97997-0.078392 0.97318-0.044243 1.6501 0.11676 4.5264-0.044604 0.8155-0.14137 0.90815-0.25908 0.78578-0.48391 0.79072-0.5853 0.64533-0.47266 0.41626-0.32889 0.24579-1.065 0.62883-1.1284 0.61428-0.46737 0.29313-0.47177 0.33693-0.71475 0.62498-0.67591 0.73224-0.71756 0.90746-0.69684 0.98414-0.82391 1.2719-2.1344 3.4946-0.75779 1.076-0.75351 0.83558-0.58677 0.4887-2.167 1.4603-0.37477 0.3039-0.47709 0.49905-0.33848 0.61219-0.085776 0.46118 0.026991 0.47162 0.17076 0.65403 0.26575 0.72738 1.4251 3.6242 0.17292 0.68294 0.059981 0.67166-0.017942 0.28252-0.11702 0.49598-0.093587 0.21859-0.35261 0.55126-0.57273 0.63698-2.6008 2.3179-1.054 1.029-0.89315 0.99918-0.85682 1.1245-0.4859 0.73299-0.57831 1.0161-1.2633 2.7137-0.53784 0.96128-0.66203 1.0376-2.4609 3.524-2.1239 3.1966-0.80494 1.3979-0.25884 0.5458-0.32351 0.91616-0.14485 1.0442 0.026391 0.61913 0.029547 0.2089 0.40674 1.4618 0.11742 0.53718 0.063144 0.55302-0.008979 1.6853 0.063538 0.58047 0.22752 0.97269 0.49383 1.501 0.2532 0.50214 0.28769 0.37811 0.36385 0.33576 0.78388 0.46537 1.8616 0.84762 0.91433 0.60403 0.46516 0.44216 0.43208 0.51469 0.46072 0.66832 0.41989 0.73311 0.34827 0.71823 0.31144 0.75083 0.37209 1.0903 0.29148 1.1105 0.69176 3.5635 0.37737 1.4304 0.50073 1.4146 0.6169 1.3513 0.73416 1.2341 0.86134 1.0529 1.008 0.79336 0.6371 0.3029 0.84114 0.25088 0.88803 0.15156 0.8845 0.083551 2.0569 0.11189 1.0943 0.1111 1.2116 0.2978 0.67262 0.32407 0.60127 0.41181 0.50847 0.43648 1.8147 1.7495 1.7386 1.4855 0.4271 0.43058 0.78918 1.023 0.65026 1.0854 0.37554 0.74034 0.30385 0.77145 0.23904 0.99679 0.28975 2.6143 0.13529 0.74089 0.084184 0.26031 0.11258 0.21095 0.11676 0.080394-0.1958 0.38006-0.20266 0.94777-0.18512 1.2939-0.13563 1.4843-0.1585 3.0615-0.11213 1.0746-0.16912 1.0532-0.28321 1.2425-0.33616 1.1798-0.39683 1.1882-0.34689 0.82062-0.51611 0.93649-0.34945 0.50663-0.93762 1.0828-2.217 2.1499-2.4395 2.1272-0.54377 0.6408-0.24034 0.39166-0.20228 0.42489-0.25396 0.75497-0.65646 2.9453-0.2947 0.97278-0.25909 0.65756-0.4102 0.82196-0.46033 0.80264-1.6337 2.6321-1.0686 1.8507-0.54224 0.69498-0.65463 0.59656-0.75731 0.44038-0.73927 0.21975-0.52764 0.063844-0.9282-0.062104-0.95366-0.245-0.94463-0.38982-1.7164-0.93648-1.0517-0.5166-2.6474-1.1527-1.2032-0.48931-1.4781-0.43002-1.5937-0.29502-1.6603-0.16894-1.6822-0.041834-1.6601 0.096734-1.592 0.25792-1.4724 0.45388-0.92484 0.44421-0.79362 0.48338-2.1123 1.5538-0.61586 0.41809-0.53811 0.29365-0.39114 0.136-0.27592 0.029586-0.23294-0.033686-0.38706-0.19319-0.44283-0.31589-0.37196-0.2092-0.441-0.15611-0.3182-0.054858-0.44085-0.024081-1.9566 0.075532-2.265 0.28678-0.89566 0.065967-0.90084-0.026857-1.7065-0.17974-0.97729-0.004844-0.8588 0.15459-0.83416 0.33699-0.80417 0.5632-0.72596 0.72892-0.64698 0.83439-0.56369 0.88485-1.2211 2.3736-0.58786 0.76192-0.76587 0.62914-0.82797 0.40521-0.93517 0.29858-2.0503 0.49751-0.88199 0.24739-0.86331 0.29525-0.88295 0.37524-0.81822 0.4184-2.2904 1.4131-0.57395 0.56067-0.2847 0.76958-0.01763 0.92069 0.19756 2.0112-0.10997 0.96346-0.39073 0.78021-0.64314 0.62012-0.81505 0.41609-1.8979 0.60857-1.0032 0.2467-1.0472 0.1452-0.88192 0.007468-0.87796-0.079391-0.80708-0.13057-1.8238-0.39493-0.75045-0.087404-0.66999 0.07054-0.54843 0.2197-0.56467 0.48853-0.40964 0.63868-0.24336 0.66909-0.045591 0.57628 0.01827 0.087712-0.11112-0.036127-0.062086-0.08859-0.072572-0.2323-0.056158-0.69716 0.032671-0.72948 0.23205-1.7549 0.42297-1.9828 0.45802-1.6005 0.37882-1.1382 2.0061-5.2973 0.55185-1.5785 0.645-2.2524 0.30917-1.6703 0.080603-1.1194-0.01547-1.1545-0.14845-1.1568-0.43101-1.8447-0.34964-0.99892-0.33321-0.63743-0.43611-0.56578-0.82039-0.65867-0.65206-0.35536-0.72343-0.30501-0.82528-0.27663-0.87561-0.23929-1.6558-0.3603-5.0624-0.90308-1.6595-0.3973-0.84272-0.2698-0.57083-0.23225-0.88955-0.51398-0.65805-0.64791-0.436-0.70163-0.18112-0.44912-0.080245-0.45267 0.03098-0.39506 0.11707-0.39017 0.39358-0.74722 0.5725-0.81192 1.4612-1.7241 0.65195-0.84179 0.59838-0.86683 0.4277-0.74684 0.31326-0.73698 0.1474-0.55858 0.0757-0.53484 4.68e-4 -0.70211-0.18608-0.62864-0.23541-0.34236-0.28534-0.28524-0.54189-0.40267-0.68266-0.40747-1.5795-0.86286-3.4592-1.9838-3.2074-1.7832-1.861-0.99653-1.7922-0.91176-2.4937-1.1574-1.8046-0.72279-2.3686-0.78028-4.4232-1.2271-5.8375-1.8107-4.1107-1.1426-1.4013-0.43571-2.7697-0.94294-1.3857-0.37497-1.2878-0.20985-0.85554-0.062243-0.83046 3.36e-4 -0.80719 0.062995-0.9812 0.17872-0.81049 0.25038-0.77578 0.31974-0.97626 0.50271-0.72354 0.46542-0.65344 0.49312-0.56458 0.48944-0.47187 0.48623-0.45816 0.56326-0.20831 0.34224-0.65091-0.34132-3.3106-1.9046-3.9554-2.0459-1.9788-1.1011-1.2338-0.79153-2.1298-1.5938-0.78691-0.54308-0.74612-0.4587-1.0377-0.46821-0.61122-0.15118-0.61554-0.02716-0.571 0.1196-0.53588 0.24637-0.54398 0.38119-0.62627 0.5603-4.1954 4.5753-0.75017 1.105-0.58145 1.1942-1.0711 2.9948-0.37407 0.89592-0.46204 0.75879-0.26937 0.23129-0.50868 0.10761-0.36739-0.13718-0.33578-0.30236-0.10305-0.12981-0.45935-0.83174-0.95992-2.2756-0.42231-1.1308-0.37438-1.2752-0.21917-0.87742-1.2602-5.4879-0.68907-2.5094-0.28872-0.91944-0.61077-1.6998-0.58117-1.4187-0.45527-1.0121-0.5336-0.90255-0.45555-0.58615-0.35103-0.35988-0.72785-0.56061-0.77888-0.5126-0.81381-0.60599-0.36805-0.31214-0.74127-0.73193-0.55305-0.69063-0.18116-0.27544-0.37411-0.70675-0.65171-1.5873-0.1888-0.56546-0.16166-0.87985 7.26e-4 -0.65387 0.067758-0.60752 0.136-0.59931 0.33301-0.86496 0.39231-0.87915 0.38398-1.0653 0.21737-0.87747 0.096034-1.1639-0.050035-2.5499 0.016426-0.68288 0.14524-1.3472 0.3111-1.2941 0.36211-0.95958 0.57883-1.3863 0.2959-0.92399 0.16192-0.95401-0.048021-1.2367-0.28473-1.2477-0.46032-1.2249-0.50224-0.98922-0.6401-0.90428-0.90053-0.85944-1.0645-0.76065-1.947-1.1703-1.1705-0.62441-3.5111-1.7547-1.2885-0.71413-1.2189-0.78029-0.70923-0.53117-0.82786-0.71983-3.1706-3.0817-0.67848-0.70593-0.54127-0.65097-0.35601-0.52808-0.36191-0.77698-0.12272-0.63461 0.14419-0.3723 0.38997-0.16353 0.4519-0.44598 0.50024-0.61471 0.65855-0.9731 0.5792-1.0537 0.5577-1.3071 0.4388-1.4145 0.23693-1.0265 0.1906-1.0551 0.16889-1.2096 0.12983-1.2251 0.45589-6.3183 0.16547-1.4941 0.21372-1.4576 0.23112-1.2321 0.2794-1.1918 0.27006-0.94326 0.4394-1.2367 0.26317-0.60733 0.57863-1.0796 0.32613-0.49094 0.64659-0.79925 0.73477-0.71936 0.4584-0.38166 1.0253-0.73577 0.89733-0.55844 1.8275-1.0311 0.9169-0.54707 0.66468-0.44198 0.6651-0.49342 0.69345-0.57216 0.72289-0.65825 0.70794-0.70319 1.5494-1.706 1.5876-1.8977 2.6044-3.2589 1.1529-1.3583 0.90631-0.99011 1.0465-1.0414 0.79065-0.70169 0.78874-0.60661 0.41712-0.27514 0.55914-0.30587 0.56091-0.21656 0.42834-0.075189 0.37753 0.058968 0.24042 0.18249 0.14007 0.22858 0.10298 0.30136 0.078421 0.39821 0.18118 1.4349 0.13135 0.70847 0.2908 1.0917 0.48399 1.4745 0.25134 0.63834 0.23809 0.47518 0.20724 0.32394 0.25935 0.31625 0.56827 0.48853 0.91285 0.54253 2.9131 1.3826 1.7852 0.88871 0.9321 0.41069 0.60211 0.21452 0.73114 0.1601 0.75791-0.01131 0.44909-0.10197 0.33557-0.12082 0.73083-0.37785 0.7149-0.47644 1.4965-1.079 3.4582-2.2469 0.85161-0.52006 3.9462-2.0915 2.668-1.2464 1.7121-0.95772 1.0736-0.68261 0.8181-0.59879 1.0801-0.86858 0.78405-0.68045 0.60756-0.58783 0.62858-0.69225 0.58498-0.74197 0.60242-0.89295 0.71087-1.267 0.66251-1.3997 1.2549-2.8852 0.57113-1.1772 0.71229-1.2446 0.60564-0.8507 0.5146-0.58035 0.48029-0.43911 0.77719-0.55183 0.89888-0.47598 1.2587-0.57162 0.72385-0.47623 0.66947-0.7607 0.58407-0.97354 0.53583-1.1663 0.51417-1.4281 0.28651-1.0255 0.2076-0.97969 0.19924-1.3042 0.31331-2.6427 0.54778-5.6457 0.19187-1.4482 0.39376-2.0321 0.70653-2.889 0.91264-3.2095 1.1931-3.7767 0.50421-1.4654 2.0626-5.6293 0.80521-2.4699 0.54954-1.9342 0.84893-3.3746 0.6462-2.849 1.7553-8.1417 0.6036-2.5121 0.31383-1.1253 0.48127-1.4424 0.36853-0.88719 0.31318-0.49676 0.18781-0.16619 0.15897-0.063383 0.22158 0.040835 0.21388 0.16444 0.19918 0.23494 0.30043 0.4641 0.77854 1.508 0.67405 1.5919 0.50209 1.4666 0.29015 1.1829 0.67621 3.3017 0.38529 1.3774 0.46698 1.3485 0.32303 0.72891 0.22007 0.40087 0.52141 0.7454 0.55583 0.603 0.73712 0.59229 0.71297 0.41152 0.5638 0.2455 0.78578 0.2439 0.40718 0.083602 0.58769 0.070815 0.65722 0.012066 0.41453-0.028299 0.65969-0.10134 0.99905-0.27107 1.3384-0.51864 2.1398-0.99163 3.2479-1.613" stroke="#bdc660"/>
    </defs>
    <g clip-path="url(#p658ce882f6)">
     <use y="280.512" fill="#bdc660" stroke="#bdc660" xlink:href="#mf9d59fff3f"/>
    </g>
   </g>
  </g>
 </g>
 <defs>
  <clipPath id="p658ce882f6">
   <rect x="7.2" y="7.2" width="263.83" height="266.11"/>
  </clipPath>
 </defs>
</svg>
