<?xml version="1.0" encoding="UTF-8"?>
<!DOCTYPE svg  PUBLIC '-//W3C//DTD SVG 1.1//EN'  'http://www.w3.org/Graphics/SVG/1.1/DTD/svg11.dtd'>
<svg width="222.75pt" height="280.51pt" version="1.1" viewBox="0 0 222.75 280.51" xmlns="http://www.w3.org/2000/svg" xmlns:xlink="http://www.w3.org/1999/xlink">
 <metadata>
  <rdf:RDF xmlns:cc="http://creativecommons.org/ns#" xmlns:dc="http://purl.org/dc/elements/1.1/" xmlns:rdf="http://www.w3.org/1999/02/22-rdf-syntax-ns#">
   <cc:Work>
    <dc:type rdf:resource="http://purl.org/dc/dcmitype/StillImage"/>
    <dc:date>2024-07-04T12:08:53.607572</dc:date>
    <dc:format>image/svg+xml</dc:format>
    <dc:creator>
     <cc:Agent>
      <dc:title>Matplotlib v3.7.1, https://matplotlib.org/</dc:title>
     </cc:Agent>
    </dc:creator>
   </cc:Work>
  </rdf:RDF>
 </metadata>
 <defs>
  <style type="text/css">*{stroke-linejoin: round; stroke-linecap: butt}</style>
 </defs>
 <g id="figure_1">
  <g id="patch_1">
   <path d="m-0 280.51h222.75v-280.51h-222.75v280.51z" fill="none"/>
  </g>
  <g id="axes_1">
   <g id="PatchCollection_1">
    <defs>
     <path id="mf0c9bebf01" d="m200.71-125.06-0.014483 0.078435 0.20818 0.63493 1.5579 3.9286 1.0493 2.7944 0.79587 2.3765 0.64498 2.2406 0.61168 2.6142 0.38714 2.2533 0.13221 1.6396-0.009834 0.51637-0.084214 0.87183-0.2142 1.0216-0.2178 0.67704-0.56356 1.2748-0.56721 1.0146-0.7368 1.1611-1.2928 1.8665-4.1657 5.6904-0.68669 1.0308-0.47124 0.77897-0.76318 1.4694-0.64023 1.5035-0.69486 2.0123-0.64714 2.274-1.0953 4.2537-0.561 1.8824-0.52999 1.3797-0.30483 0.61308-0.32184 0.51913-0.37381 0.4576-0.30347 0.27167-0.29483 0.19029-0.31529 0.13575-0.39766 0.095952-0.43568 0.038185-0.9449-0.053441-3.2569-0.46514-1.6794-0.10666-1.3417 0.013786-0.70361 0.042226-1.743 0.20172-0.83381 0.1426-1.8892 0.43081-0.78705 0.2265-1.425 0.49253-1.048 0.44568-0.57567 0.28728-1.5591 0.9491-1.5264 1.1807-1.0115 0.94523-1.1493 1.3053-0.88373 1.2693-0.35204 0.60599-0.53784 1.0858-0.50393 1.1983-1.3736 3.4997-0.59588 1.3684-0.56024 1.1545-0.97219 1.7364-0.50423 0.80009-0.89854 1.2863-0.71783 0.8834-0.87973 0.90697-0.73702 0.66109-0.80355 0.65457-1.6341 1.1916-1.7289 1.1341-5.464 3.2777-2.9845 1.8529-1.1312 0.76152-1.2393 0.89683-1.1963 0.94851-1.1426 1.01-1.4581 1.4845-1.3672 1.5865-1.3032 1.6593-1.2615 1.707-3.4839 4.8671-1.3292 1.7794-1.3453 1.6928-1.3632 1.5563-1.3805 1.3524-1.1668 0.93741-1.0083 0.67892-0.99682 0.47773-1.0139 0.20444-1.3975-0.2063-1.4073-0.594-2.4504-1.3933-0.47969-0.21032-0.27051-0.02669-0.21978 0.053401-0.33777-0.17443-0.19725-0.16679-0.40927-0.44856-0.47533-0.64543-1.7784-2.8014-0.6028-0.83664-1.2137-1.4825-0.72597-1.0387-0.66036-1.2556-0.43395-1.0235-0.43821-1.1815-0.80207-2.4051-0.92247-3.1264-0.32388-0.96769-0.57109-1.4512-0.70558-1.4179-0.38631-0.64078-0.42243-0.6105-0.39655-0.49774-0.69045-0.7269-0.70351-0.61842-0.97837-0.72119-1.054-0.64259-0.71179-0.37049-1.1572-0.52556-1.9624-0.76686-5.7425-2.025-0.75292-0.34382-0.74018-0.47408-0.49472-0.47251-0.42179-0.53096-0.36591-0.58915-1.1949-2.5562-0.61728-1.1645-0.68923-1.191-0.74831-1.1886-0.77151-1.1147-0.73437-0.9401-0.77695-0.84408-0.82479-0.70286-0.87918-0.50666-0.94056-0.24662-0.67658 0.007715-0.70081 0.13499-0.64512 0.21085-0.65222 0.2778-0.68403 0.34461-3.122 1.8748-0.13229 0.04801-0.12599-0.20895 0.11309-0.99696 0.44604-1.9884 0.39469-1.4273 0.93912-2.9313 2.6355-7.3477 0.25592-0.79775 0.45887-1.6698 0.23111-1.3434-0.007959-0.96994-0.28587-0.75312-0.28016-0.25387-0.27646-0.13214-0.50917-0.10121-0.62564 0.003287-0.98871 0.13466-1.132 0.23006-2.3573 0.56433-1.1033 0.3054-1.4795 0.4774-1.9536 0.76966-1.9757 0.90038-1.9908 0.98722-7.6291 3.9592-2.7612 1.3017-1.3482 0.58864-3.0999 1.2397-2.5708 0.90593-2.1259 0.66701-1.8335 0.51217-1.9921 0.47776-1.6289 0.31051-1.5317 0.20617-1.1683 0.084096-0.79594 0.011822-1.144-0.064664-1.1834-0.19874-0.83618-0.25362-0.53486-0.2333-0.96068-0.61631-0.82431-0.75025-0.57729-0.65368-0.53633-0.8104-0.40815-0.97217-0.087395-0.29242-0.27941-1.4637-0.084479-1.5857 0.1018-1.6566 0.15516-1.0732 0.40779-2.0979 0.41574-1.6528 1.4448-5.1434 0.46393-1.9486 0.39544-1.9725 0.26137-1.5552 0.39815-3.1166 0.39486-4.7042 0.49797-4.4566 0.15873-2.2438 0.046882-1.701 0.010701-3.6211 0.096594-3.2944 0.17038-2.8137 0.38676-4.5144 0.26252-4.0662 0.81939-8.0695 0.81927-6.6591 0.26623-2.7644 0.098946-2.7248-0.05767-7.1514 0.081495-1.5886 0.22968-1.7533 0.34898-1.5439 0.16626-0.56809 0.47522-1.3355 0.39762-0.9248 0.44547-0.90666 1.0446-1.8191 0.64762-0.95683 0.70038-0.92558 1.7938-2.1616 2.0995-2.4149 0.82441-1.0293 1.0462-1.4443 0.61255-0.9926 0.65841-1.3354 0.28509-0.78453 0.18022-0.77502 0.052545-0.64586-0.037616-0.54083-0.10803-0.49419-0.18904-0.50446-0.24811-0.4743-0.34936-0.52789-0.48509-0.60619-0.67075-0.71784-0.73686-0.70824-3.7709-3.3552-1.3302-1.287-1.4042-1.5174-0.6363-0.75841-0.54065-0.68512-1.1461-1.592-1.2086-1.8994-1.2721-2.2236-1.1681-2.1931-3.4541-6.7544-1.1881-2.1707-0.77405-1.3223-1.1644-1.8353-0.81948-1.1732-0.71548-0.94255-1.3795-1.621-0.6989-0.73368-0.78256-0.75995-0.96707-0.8566-0.88818-0.7131-1.0597-0.76552-1.2278-0.77005-0.79395-0.41082-0.42581-0.15796-0.17686 0.011613-0.06379-0.16873 0.13528-0.50242 0.33617-0.625 0.52919-0.71839 1.1448-1.2285 2.4732-2.3823 0.75884-0.82481 1.7046-2.1363 0.67267-0.68676 0.73877-0.63735 0.78331-0.58086 0.82578-0.53578 1.512-0.84226 2.5815-1.2886 1.4849-0.87609 0.57355-0.411 0.8099-0.68302 0.67717-0.66817 0.64144-0.71143 0.65116-0.79488 1.1839-1.612 1.5505-2.4075 0.56256-0.98389 0.90806-1.8173 1.1214-2.7079 0.60262-1.3263 0.64757-1.1728 0.90646-1.3161 2.4187-3.053 1.5522-2.0463 0.73364-0.87988 0.77552-0.84826 2.0985-2.1057 1.5258-1.4395 1.5293-1.2793 0.44108-0.31844 0.44258-0.2418 0.060493 0.31109 0.09716 0.15602 0.86056 1.0613 1.9362 2.009 5.1164 5.0014 1.3203 1.3998 0.995 1.1754 0.57112 0.76582 0.62672 0.99431 0.33299 0.65478 0.3031 0.71518 0.50052 1.5169 0.5669 2.0705 0.18372 0.54631 0.33875 0.74432 0.16422 0.27041 0.52933 0.64641 0.61088 0.5441 1.3509 1.0151 1.608 1.4134 0.61377 0.65592 0.63093 0.90954 0.5599 1.0123 0.43966 0.89652 1.953 4.4072 0.45407 0.97921 0.70115 1.3779 0.8485 1.4511 1.0181 1.4947 0.76872 0.98912 0.85406 0.98632 0.84332 0.88286 1.1883 1.1317 0.97926 0.85114 1.5497 1.2178 3.412 2.3929 5.2911 3.4319 1.418 0.96968 1.2122 0.89824 2.2539 1.8163 2.4405 2.1138 1.6292 1.4626 4.8105 4.4389 3.6935 3.5017 3.7676 3.7417 4.0025 4.1846 4.015 4.4402 3.1481 3.6593 2.1288 2.5758 1.6852 2.1133 2.1161 2.8368 1.4099 2.1273 1.083 1.8188 2.0048 3.6512 1.2767 2.1157 0.95909 1.3775 1.0438 1.2501 1.1901 1.0485 0.83663 0.51873 0.4982 0.24874 1.2487 0.48734 1.7228 0.47078 3.0862 0.62363 2.6314 0.41546 6.8464 0.91746 0.97288 0.079302 1.1198 0.036272 0.63253-0.011363 0.97015-0.083725 0.68477-0.12458 0.57832-0.15126 0.72577-0.2498 0.61308-0.26129 1.1483-0.59481 0.68852-0.41264 1.009-0.67587 1.1338-0.8603 2.4795-2.108 0.95841-0.86118 2.0034-1.9267 0.51898-0.44622 0.60149-0.42318 0.23452-0.11501 0.331-0.1026 0.37392-0.028555 0.26924 0.040594 0.35643 0.13547 0.28456 0.17457 0.28467 0.23322 0.31071 0.3327 0.2569 0.37435 0.23896 0.53584 0.11858 0.424 0.23503 1.3496 0.43175 3.531 0.16024 1.0522 0.40137 2.0028 0.46934 1.7807 0.43685 1.3333 0.62169 1.6584 0.56961 1.2933 0.51884 1.0342 0.66319 1.0804 0.8322 1.0698 0.91073 0.88165 1.0613 0.81767 1.0485 0.68461 0.91416 0.48593 1.014 0.45934 2.7488 1.1461 0.88453 0.41376 0.65911 0.35745 0.79974 0.52429 0.718 0.58149 0.62695 0.60966 0.6827 0.78922 0.5732 0.78494 0.47896 0.7627 0.41351 0.7567 0.67686 1.5124 0.56967 1.7151 0.38027 1.64 0.24562 1.6472 0.16136 1.7825 0.12554 2.2425 0.095482 0.84264 0.15121 0.56985 0.1774 0.2285 0.17522 0.007101 0.13754-0.10972" stroke="#bdc660"/>
    </defs>
    <g clip-path="url(#pa0d68dff6a)">
     <use y="280.512" fill="#bdc660" stroke="#bdc660" xlink:href="#mf0c9bebf01"/>
    </g>
   </g>
  </g>
 </g>
 <defs>
  <clipPath id="pa0d68dff6a">
   <rect x="7.2" y="7.2" width="208.35" height="266.11"/>
  </clipPath>
 </defs>
</svg>
