<?xml version="1.0" encoding="UTF-8"?>
<!DOCTYPE svg  PUBLIC '-//W3C//DTD SVG 1.1//EN'  'http://www.w3.org/Graphics/SVG/1.1/DTD/svg11.dtd'>
<svg width="296.7pt" height="280.51pt" version="1.1" viewBox="0 0 296.7 280.51" xmlns="http://www.w3.org/2000/svg" xmlns:xlink="http://www.w3.org/1999/xlink">
 <metadata>
  <rdf:RDF xmlns:cc="http://creativecommons.org/ns#" xmlns:dc="http://purl.org/dc/elements/1.1/" xmlns:rdf="http://www.w3.org/1999/02/22-rdf-syntax-ns#">
   <cc:Work>
    <dc:type rdf:resource="http://purl.org/dc/dcmitype/StillImage"/>
    <dc:date>2024-07-04T12:08:55.541739</dc:date>
    <dc:format>image/svg+xml</dc:format>
    <dc:creator>
     <cc:Agent>
      <dc:title>Matplotlib v3.7.1, https://matplotlib.org/</dc:title>
     </cc:Agent>
    </dc:creator>
   </cc:Work>
  </rdf:RDF>
 </metadata>
 <defs>
  <style type="text/css">*{stroke-linejoin: round; stroke-linecap: butt}</style>
 </defs>
 <g id="figure_1">
  <g id="patch_1">
   <path d="m0 280.51h296.7v-280.51h-296.7v280.51z" fill="none"/>
  </g>
  <g id="axes_1">
   <g id="PatchCollection_1">
    <defs>
     <path id="mcd69daf56b" d="m275.58-37.63-0.3996 0.042076-2.2853 0.75-4.4424 1.7533-2.4518 1.1474-3.2908 1.8799-1.7469 0.85327-1.3441 0.37243-1.3645 0.13147-1.3496-0.10965-1.2999-0.36689-1.1148-0.56104-1.9378-1.3785-3.446-2.9581-2.2516-1.81-1.2093-0.84047-1.2434-0.7388-1.3033-0.61671-1.3321-0.45395-1.6821-0.30234-1.1278-0.036572-1.1064 0.092135-0.83426 0.15844-0.8044 0.23379-1.0449 0.44992-1.2744 0.82146-1.0897 0.86425-1.9843 1.8806-2.9808 3.4217-2.2398 2.3747-1.6464 1.4708-2.138 1.5881-2.3171 1.4833-6.4725 3.9079-1.7286 0.87671-1.3692 0.60005-1.1846 0.32605-0.30043-0.032259-0.16042 0.20258-0.35051 0.13771-1.3322 0.30918-1.844 0.23556-1.8027 0.12372-4.7715 0.051089-5.1253-0.23047-5.3567-0.41428-4.4832-0.46033-8.3363-1.0177-9.9843-1.407-9.5755-1.4295-7.9492-1.2825-3.9822-0.75972-4.1848-0.95418-3.5391-0.99246-4.084-1.4116-4.3233-1.8341-2.1564-1.0503-4.2116-2.3262-2.0455-1.2798-2.8011-1.9556-2.1447-1.6905-2.0472-1.7949-1.5403-1.4833-2.1151-2.2282-3.0853-3.5705-2.9414-3.7928-1.7268-2.5214-5.1901-8.483-1.8287-2.7566-2.1144-2.9412-1.4761-1.8911-1.3769-1.5767-1.055-1.0842-2.4864-2.2261-2.8218-2.1343-2.8623-1.8966-4.7628-2.8843-1.6827-1.1126-1.656-1.3123-1.4147-1.4209-0.86704-1.0595-1.3704-1.9921-1.9789-3.5119-2.2975-4.7123-3.564-8.0044-1.3168-2.4715-1.4343-2.1006-2.228-2.2795-1.3699-0.97293-1.9667-1.0164-3.3268-1.0526-3.8894-0.53855-2.7962-0.055608-3.4525 0.24776-2.1565 0.32506-2.0837 0.44471-2.8098 0.83652-1.6718 0.66694-1.1688 0.5784-0.8243 0.49721-0.92716 0.7699-0.14829 0.20153-0.080134 0.27323 0.0446 0.11205-0.54117-0.27309-0.69482-0.88269-0.59606-0.98207-0.57239-1.1263-0.70635-1.6723-0.56779-1.6369-0.59439-2.1078-0.45419-2.0208-0.41743-2.394-0.34939-2.6819-0.30543-3.3482-0.19412-4.6995 0.039876-3.2788 0.20153-3.422 0.42099-3.7632 0.47004-2.8591 1.0102-4.5862 1.1306-4.1785 1.3784-4.3587 1.1107-3.0246 1.0572-2.5235 0.89403-1.8896 1.5095-2.7704 1.6538-2.6738 2.1197-3.1248 2.3217-3.1333 1.6202-2.0233 1.6908-1.963 3.2454-3.417 4.798-4.6759 6.338-5.9463 3.6017-3.6542 5.0827-5.439 4.851-5.5289 3.6405-4.4671 2.9206-3.9806 1.6931-2.5965 2.3463-4.1176 2.1441-4.3774 2.4596-5.6767 1.4724-3.7694 1.1345-3.1985 0.62304-1.9758 0.56057-2.2365 0.40756-2.2376 0.56596-4.9186 0.25451-3.8869 0.3064 0.22024 0.54376 0.19143 2.7802 0.72176 12.637 2.5346 2.4214 0.64442 1.7456 0.67821 1.3609 0.78713 1.0576 0.93474 1.308 2.1936 0.71198 2.7371 0.2965 3.1113 0.037179 3.3429-0.17328 6.9165 0.03104 3.3722 0.27193 3.185 0.64858 2.8921 1.1822 2.4782 1.9837 2.0998 2.5288 1.6197 2.8334 1.2645 7.6083 2.5012 1.9596 0.98756 0.96077 0.72802 0.72205 0.69052 2.6337 3.2026 1.7188 1.823 2.0256 1.85 2.2471 1.8191 2.1354 1.5521 1.8937 1.2461 2.5093 1.4402 2.4908 1.1287 2.416 0.69682 1.1774 0.14373 0.8604-1.07e-4 1.1515-0.16781 0.75422-0.2311 0.90996-0.40856 0.99239-0.59099 3.7792-2.9024 1.3019-0.84262 1.5441-0.553 1.3824 0.030534 0.60833 0.26862 0.48013 0.36157 0.70932 0.76507 1.7033 2.3112 0.81765 0.86582 0.95762 0.7875 1.3404 0.90879 5.3951 3.1349 2.0997 1.3561 1.0795 0.79578 1.8063 1.6142 0.91875 1.0814 1.167 1.9178 0.64366 1.4494 0.59748 1.8129 0.4216 2.5061 0.00968 1.3924-0.093189 1.2334-0.9053 6.1836-0.17187 2.0398-0.04778 1.5072 0.03708 2.1972 0.14766 2.0246 0.29389 2.3472 0.5886 3.5499 0.73545 3.6589 1.1425 4.8971 4.4422 16.808 1.2215 4.0509 0.93202 2.8248 1.1544 3.1176 2.4848 6.1955 0.68921 2.1471 0.49773 2.0213 0.29841 1.7311 0.19917 2.4184-0.015698 2.0034-0.29181 6.3065 0.14948 3.1095 0.34347 2.1514 0.1585 0.59559 0.29474 0.87125 0.88865 1.8556 1.0892 1.5665 0.6965 0.7584 0.74865 0.67048 1.3036 0.91238 1.4881 0.73706 2.1774 0.64642 4.802 0.79677 3.957 0.90134 1.8502 0.62544 1.1335 0.46158 1.6875 0.78037 1.9449 1.0069 4.2632 2.5275 10.736 7.1345 5.0285 3.1489 2.4299 1.3958 2.5332 1.3409 2.5106 1.1908 4.9383 2.1217 2.976 1.5389 2.7944 1.7622 2.8411 2.1096 2.2675 1.955 1.7534 1.7179 1.9374 2.1937 1.5384 2.1176 1.0623 1.8433 1.0008 2.4151 0.68551 3.3221 0.074642 2.5573-0.19848 1.9198-0.42209 1.5679-0.46964 0.59571" stroke="#bdc660"/>
    </defs>
    <g clip-path="url(#p7c7b68aa18)">
     <use y="280.512" fill="#bdc660" stroke="#bdc660" xlink:href="#mcd69daf56b"/>
    </g>
   </g>
  </g>
 </g>
 <defs>
  <clipPath id="p7c7b68aa18">
   <rect x="7.2" y="7.2" width="282.3" height="266.11"/>
  </clipPath>
 </defs>
</svg>
