<?xml version="1.0" encoding="UTF-8"?>
<!DOCTYPE svg  PUBLIC '-//W3C//DTD SVG 1.1//EN'  'http://www.w3.org/Graphics/SVG/1.1/DTD/svg11.dtd'>
<svg width="272.09pt" height="280.51pt" version="1.1" viewBox="0 0 272.09 280.51" xmlns="http://www.w3.org/2000/svg" xmlns:xlink="http://www.w3.org/1999/xlink">
 <metadata>
  <rdf:RDF xmlns:cc="http://creativecommons.org/ns#" xmlns:dc="http://purl.org/dc/elements/1.1/" xmlns:rdf="http://www.w3.org/1999/02/22-rdf-syntax-ns#">
   <cc:Work>
    <dc:type rdf:resource="http://purl.org/dc/dcmitype/StillImage"/>
    <dc:date>2024-07-04T12:08:57.158823</dc:date>
    <dc:format>image/svg+xml</dc:format>
    <dc:creator>
     <cc:Agent>
      <dc:title>Matplotlib v3.7.1, https://matplotlib.org/</dc:title>
     </cc:Agent>
    </dc:creator>
   </cc:Work>
  </rdf:RDF>
 </metadata>
 <defs>
  <style type="text/css">*{stroke-linejoin: round; stroke-linecap: butt}</style>
 </defs>
 <g id="figure_1">
  <g id="patch_1">
   <path d="m0 280.51h272.09v-280.51h-272.09v280.51z" fill="none"/>
  </g>
  <g id="axes_1">
   <g id="PatchCollection_1">
    <defs>
     <path id="m48a389c3b8" d="m222.85-221.69 0.25254 0.067529 1.2326 0.088196 1.0744-0.049088 1.2214-0.14158 1.8941-0.29662 5.2461-1.0393 1.2455-0.16739 1.1926-0.064153 1.123 0.080243 1.0337 0.27416 0.90392 0.48871 0.81552 0.67235 0.74003 0.81225 0.67235 0.91939 0.93681 1.6252 2.8098 5.886 3.6506 6.8957 1.2333 2.6207 0.7028 2.023 1.0055 5.257 0.32816 2.3583 0.59617 2.7311 0.27368 1.898 0.13875 5.384-0.08461 0.74537-0.14013 0.56276-0.15253 0.26801-0.23427 0.008592-0.57622 0.24561-1.1562 0.72353-1.7248 1.2527-2.6169 2.055-1.7205 1.659-0.49057 0.58872-1.0788 1.6381-2.7737 5.6673-1.1933 1.7576-1.0326 1.0902-1.0693 0.93075-2.821 2.239-1.0969 0.94954-1.6727 1.7045-1.4293 1.8237-0.97476 1.4593-1.7976 3.1245-0.77052 1.5031-1.3455 2.8727-0.98248 2.3328-0.81898 2.1572-0.8124 2.4105-0.56911 1.9271-0.57242 2.2419-0.60245 2.7957-2.0068 10.331-1.1914 5.0665-0.97835 3.2618-0.80613 2.1233-0.48536 1.0614-1.2389 2.1121-0.93579 1.179-1.2482 1.2567-1.1511 0.96942-2.9521 2.1978-2.6122 2.1916-1.4016 1.0682-3.5974 2.1055-2.3379 1.2037-3.5607 2.0633-1.8555 0.99527-3.6402 1.6104-1.218 0.59868-1.2011 0.71297-1.6662 1.2904-1.5875 1.5713-1.8192 2.2213-1.5152 2.2361-1.3786 2.4244-1.2128 2.5861-0.84935 2.2232-1.0668 3.5484-0.6649 2.9466-0.32569 1.8508-0.25722 1.8595-0.21849 2.3077-0.097455 2.2974 0.048115 2.5722 0.33038 4.8975 0.32021 7.5355 0.39439 3.7279 0.71721 3.4475 1.1075 3.198 1.3901 2.6149 1.8097 2.3445 2.0075 1.9669 2.0851 1.6402 1.3364 0.8891 1.078 0.6203 0.78211 0.28763-3.3721 2.8917-2.0939 1.5802-1.1586 0.78866-1.8882 1.1311-2.0893 0.98844-1.1762 0.40446-1.4372 0.30216-1.3861 0.033582-1.7297-0.4095-1.4504-0.74673-1.3765-1.0406-2.1155-2.1861-1.8852-2.4598-3.8675-5.7374-1.2258-1.7476-1.3021-1.6625-1.4809-1.6006-1.595-1.4586-2.0955-1.6259-3.7543-2.5792-2.2384-1.3197-2.7647-1.2685-2.9573-1.1213-3.2212-1.034-2.5745-0.6666-2.168-0.44099-6.6453-1.04-1.8903-0.4658-2.0875-0.83258-0.58585-0.3255-0.86186-0.56611-1.0755-0.84743-1.7425-1.6705-5.0892-5.9129-2.122-2.2284-1.856-1.6644-1.0317-0.77932-1.7282-1.0281-1.2753-0.53327-1.7116-0.5008-1.9592-0.37558-2.1015-0.25736-2.3976-0.18577-11.491-0.5969-7.3774 0.058198-3.215-0.030767-1.8257-0.085343-3.0265-0.29555-1.8524-0.30851-2.1674-0.52662-1.2869-0.41469-1.5598-0.59334-2.8838-1.2733-3.9542-2.0052-2.2893-1.4155-2.3139-1.71-1.1995-0.99799-1.7345-1.5749-2.6571-2.7076-1.8253-2.0646-3.7479-4.5139-5.5348-6.9399-3.0313-3.9166-2.4452-3.2679-3.3296-4.7009-2.1525-3.2612-1.307-2.136-1.5343-2.7754-1.1413-2.4347-0.6496-1.8207-0.17898-0.8333-9.31e-4 -0.64556 0.23613-0.24436 1.676-0.45021 3.2419-1.1147 9.2144-3.5681 3.3793-1.2143 3.3845-1.0894 20.16-5.8614 2.5564-0.85385 9.2685-3.4035 1.7496-0.72793 1.475-0.76546 0.76857-0.51691 0.70228-0.58616 0.7366-1.0448 0.13665-0.72596-0.11839-0.76162-0.61446-1.1462-2.176-2.5312-1.23-1.5294-0.81256-1.2205-0.77373-1.3291-1.7648-3.4206-0.96894-1.9918-1.1968-2.9145-1.0582-3.1445-0.93178-3.3035-0.98504-4.2387-0.59696-3.4124-0.44644-3.499-0.4074-4.7442-0.68806-11.078-0.37898-3.5423-0.58722-3.3744-0.90238-3.1252-1.351-2.7698-0.87607-1.206-1.1286-1.2354-1.3588-1.2309-4.8606-3.7062-5.4376-4.5156-1.0303-0.98865-0.90252-0.98597-2.7362-3.4495-1.3833-1.5631-0.73669-0.64469-0.66589-0.41048-0.29318-0.10226-0.32574 0.048059 0.20743-0.72038 0.71931-1.8334 3.9088-8.1217 2.16-4.0401 1.1821-2.0403 2.3894-3.728 2.2611-2.9817 2.4774-2.6344 2.7485-2.1674 3.1359-1.6452 3.3957-1.1739 3.5763-0.83237 3.6991-0.59039 3.7805-0.42286 3.8331-0.3103 7.751-0.4336 17.888-0.78092 6.9735-0.12039 6.8467 0.048748 4.6438 0.15899 4.8541 0.31129 3.0652 0.30497 2.7664 0.4312 2.3544 0.61636 1.7948 0.87636 1.0451 1.2314 0.19034 1.0874-0.1952 1.3029-0.46237 1.3303-1.1377 2.2648-2.2783 3.5882-4.8312 6.8376-1.5866 2.3776-1.4872 2.4994-1.1347 2.3467-0.5916 1.8013-0.15264 0.86622-0.022736 0.93508 0.15233 0.82047 0.31201 0.69874 0.45968 0.6206 0.69068 0.62835 1.1172 0.69214 1.1091 0.49526 1.0827 0.38377 2.3329 0.64109 1.944 0.4027 1.9203 0.30801 1.917 0.23578 6.5632 0.63363 4.016 0.57534 3.9449 0.79752 1.6589 0.50264 1.1141 0.45723 2.0729 1.2275 1.9317 1.5812 1.8313 1.8326 1.7674 1.9921 3.7923 4.4797 2.1196 2.2525 2.2509 1.9277 2.4592 1.4102 1.1423 0.39587 1.718 0.34435 1.4808 0.10882 2.4691-0.10952 2.5469-0.40194 2.5919-0.64024 1.9004-0.59308 1.8943-0.68568 2.6337-1.1066 1.3823-0.65506 3.365-1.8037 4.5652-2.688 2.4097-1.2687 2.6563-1.2596 2.5019-0.9869 1.5333-0.43857 5.1314-1.2691 2.4988-0.75929 2.6705-1.0678 0.68107-0.33765 1.3809-0.78976 1.0054-0.70907 0.48905-0.56485" stroke="#bdc660"/>
    </defs>
    <g clip-path="url(#p0b7ec14269)">
     <use y="280.512" fill="#bdc660" stroke="#bdc660" xlink:href="#m48a389c3b8"/>
    </g>
   </g>
  </g>
 </g>
 <defs>
  <clipPath id="p0b7ec14269">
   <rect x="7.2" y="7.2" width="257.69" height="266.11"/>
  </clipPath>
 </defs>
</svg>
