<?xml version="1.0" encoding="UTF-8"?>
<!DOCTYPE svg  PUBLIC '-//W3C//DTD SVG 1.1//EN'  'http://www.w3.org/Graphics/SVG/1.1/DTD/svg11.dtd'>
<svg width="241.66pt" height="280.51pt" version="1.1" viewBox="0 0 241.66 280.51" xmlns="http://www.w3.org/2000/svg" xmlns:xlink="http://www.w3.org/1999/xlink">
 <metadata>
  <rdf:RDF xmlns:cc="http://creativecommons.org/ns#" xmlns:dc="http://purl.org/dc/elements/1.1/" xmlns:rdf="http://www.w3.org/1999/02/22-rdf-syntax-ns#">
   <cc:Work>
    <dc:type rdf:resource="http://purl.org/dc/dcmitype/StillImage"/>
    <dc:date>2024-07-04T12:08:55.248553</dc:date>
    <dc:format>image/svg+xml</dc:format>
    <dc:creator>
     <cc:Agent>
      <dc:title>Matplotlib v3.7.1, https://matplotlib.org/</dc:title>
     </cc:Agent>
    </dc:creator>
   </cc:Work>
  </rdf:RDF>
 </metadata>
 <defs>
  <style type="text/css">*{stroke-linejoin: round; stroke-linecap: butt}</style>
 </defs>
 <g id="figure_1">
  <g id="patch_1">
   <path d="m-0 280.51h241.66v-280.51h-241.66v280.51z" fill="none"/>
  </g>
  <g id="axes_1">
   <g id="PatchCollection_1">
    <defs>
     <path id="mc5116e22d5" d="m224.13-150.28-0.47528 0.32469-0.59256 0.96059-0.6473 1.4581-1.8711 4.6233-1.5387 4.0983-0.64529 1.3143-0.93518 1.2973-0.44275 0.45868-1.2532 1.0399-1.7792 1.1992-1.5111 0.88016-3.575 1.9253-2.2168 1.3944-1.1588 0.80125-2.404 1.7668-7.5372 5.798-7.5578 5.408-1.5168 1.1614-1.8296 1.5887-1.504 1.6152-0.78036 1.0757-0.61206 1.1216-0.24929 0.61922-0.50376 1.8925-0.3213 2.3028-0.098863 2.1784-0.052973 3.4664 0.025513 2.6859 0.74102 12.558 0.52514 5.1027 1.5311 9.9459 0.6 2.9532 1.8053 7.0358 0.48611 2.2344 0.4633 2.615 0.27282 2.1966 0.13582 2.8959-0.068338 1.4047-0.12513 0.88076-0.25942 0.51696-0.8056 0.5854-3.4687 2.8232-1.9015 1.4332-2.4605 1.5401-2.3299 1.0581-1.4553 0.43887-2.3183 0.345-2.4232-0.006596-2.6382-0.31222-2.1861-0.44603-1.8011-0.49513-2.4609-0.95643-1.767-0.99057-1.7699-1.2469-1.858-1.5283-1.6587-1.6301-3.4574-4.1837-1.1849-1.2004-1.8463-1.4231-1.5503-0.98808-1.7236-0.90075-1.7306-0.65054-1.3016-0.29768-0.76246-0.089765-1.5629 0.00817-6.8525 0.769-6.5398 0.48675-5.4675 0.23536-1.8839 0.15934-2.0559 0.33032-0.57135 0.13173-2.7801 0.92646-2.7566 1.321-2.728 1.6276-2.6925 1.8682-2.6473 2.0609-3.9311 3.4086-5.2184 4.8446-8.9959 8.5611-1.6621 1.4688-1.5659 1.2332-1.2504 0.86403-2.2543 1.3237-1.8361 0.86806-2.9005 1.0744-1.8233 0.5236-1.8426 0.42756-1.8222 0.3307-1.8053 0.24027-2.5864 0.19034-1.2464 0.023151-8.0408-0.33496-0.85672 0.081721-0.71563-0.41437-0.6115-1.0633-0.33319-1.4848 0.013743-1.1322 0.20622-1.2038 0.62666-1.8872 0.5125-1.1653 3.2066-6.285 1.5941-2.9453 1.4389-2.3885 1.2632-1.9174 1.3538-1.8526 1.3941-1.6773 1.6485-1.6799 4.5351-4.0459 2.235-2.151 1.479-1.6208 3.1158-3.6525 1.0893-1.3599 1.0051-1.3588 1.3667-2.0086 0.88259-1.5899 0.47495-1.2607 0.082111-0.5688-0.10315-0.75774-0.66321-0.99541-1.1618-0.89709-1.5264-0.83432-5.3926-2.3293-2.1051-0.97555-0.93025-0.48674-2.0805-1.3-2.0111-1.4978-6.4357-5.4767-1.4614-1.1641-1.3932-0.98382-1.1512-0.66062-1.0621-0.40741-0.95122-0.085954-0.1845 0.029878-1.0148 0.53589-0.85195 0.99473-1.5322 2.5958-0.82926 1.2193-0.95989 0.91112-0.87243 0.41266-0.93038 0.18316-0.68553 0.015638-0.64266-0.10115-0.75768-0.36686-0.47014-0.62238-0.24952 0.019522-0.2717-0.21945-0.39452-0.4996-0.43819-0.69998-0.89887-1.8687-0.67745-2.0629-0.3503-1.6131-0.29123-2.0744-0.48898-6.4119-0.22346-2.109-0.23351-1.4825-0.36652-1.6539-0.44124-1.49-0.48606-1.3338-0.80323-1.8518-0.91202-1.7988-1.3536-2.3161-1.0851-1.6695-1.9348-2.6916-1.9991-2.4708-1.2514-1.4271-5.0355-5.4684-1.1044-1.3425-0.93072-1.3438-0.68386-1.357-0.34449-1.3832 0.022241-1.132 0.10917-0.63177 0.37569-1.2947 0.34576-0.90291 0.90416-1.9989 2.8458-5.7766 1.3936-3.1134 1.3771-3.4937 2.135-6.2669 1.97-6.5771 1.089-4.1398 0.43559-1.9202 0.31672-1.7121 0.14821-1.3732-0.078614-0.84764-0.27614-0.12224-2.2755-0.73087-0.79336-0.35416-1.0314-0.58946-1.3751-0.93034-0.956-0.73754-0.89121-0.80941-0.78027-0.86265-0.41313-0.61788-0.25539-0.65191-0.38409-2.285-0.3823-1.1607-0.36892-0.74969-1.6872-2.864-1.2277-2.3075-0.60977-1.2855-0.14968-0.52554-0.070093-0.5514 0.049669-0.66378 0.17392-0.66815 0.59939-1.3228 1.212-1.9198 4.4375-6.0594 2.679-3.9133 1.6943-2.1845 3.9208-4.6726 1.3996-1.8813 0.7328-1.3009 0.2404-0.65212 0.1149-0.63626-0.072841-0.81794-0.23766-0.56968-0.12331-0.097818 2.9122-3.0229 2.651-3.0128 2.7737-3.4101 2.3113-3.2064 1.1213-1.7805 1.0337-1.8342 0.71594-1.4092 1.0797-2.4303 0.94189-2.7274 0.44966-1.7699 0.27686-1.4654 0.29919-2.7613 0.042831-2.1648-0.1778-2.648-0.43748-2.7562-0.4567-1.8535-0.32585-1.0532-0.78494-2.0483-1.2763-2.6858-0.45095-1.183-0.071274-0.63928 0.085106-0.31544 0.28114-0.32322 0.13328-0.069477 0.8343-0.0401 0.54403 0.1559 1.0871 0.50204 1.8767 1.1122 4.0734 2.5619 1.9337 1.1251 1.7674 0.9348 2.0005 0.92948 2.9933 1.1306 2.3904 0.66679 3.207 0.59962 2.2281 0.27475 7.5394 0.63739 1.8283 0.25076 1.3676 0.26696 2.7559 0.79904 2.6635 1.0582 2.5753 1.2215 3.4934 1.8472 4.8932 2.9063 2.0449 1.1506 2.9373 1.4419 4.1908 1.6869 15.29 5.4187 2.6566 1.1356 1.968 1.0071 1.77 1.0372 2.2949 1.5 2.9218 2.0461 2.0875 1.566 2.4314 1.9723 4.3584 3.6803 2.2537 2.068 1.3625 1.517 0.90191 1.2539 0.70606 1.3194 0.28596 0.74118 0.51748 2.0252 0.81051 4.8688 0.42918 2.1561 0.52729 1.8716 0.62041 1.5761 0.34129 0.6769 0.90365 1.4112 2.9389 3.5725 0.77159 1.0459 0.79684 1.3612 0.69124 1.7991 0.25136 0.95269 0.22776 1.1259 0.74943 5.565 0.46354 2.2793 0.36232 1.169 0.7501 1.7477 0.94938 1.6633 1.4688 2.0079 1.674 1.7977 1.094 0.9814 2.3161 1.8381 1.6594 1.1285 1.8981 1.077 0.69059 0.32987 3.0187 1.2251 0.95139 0.30844 1.3725 0.32543 1.4151 0.16523 1.1017 6.56e-4 1.0212-0.080881 2.6568-0.42462 4.9888-1.0842 2.6003-0.33925 2.6966 0.014497 2.7536 0.27043 5.0769 0.66617 2.2871 0.39288 2.2776 0.61917 1.2389 0.47862 1.5136 0.72702 1.6578 0.97597 1.2888 0.89337 1.2268 0.9585 1.6404 1.4329 1.6515 1.6004 5.7971 6.2633" stroke="#bdc660"/>
    </defs>
    <g clip-path="url(#p2c2814e822)">
     <use y="280.512" fill="#bdc660" stroke="#bdc660" xlink:href="#mc5116e22d5"/>
    </g>
   </g>
  </g>
 </g>
 <defs>
  <clipPath id="p2c2814e822">
   <rect x="7.2" y="7.2" width="227.26" height="266.11"/>
  </clipPath>
 </defs>
</svg>
