<?xml version="1.0" encoding="UTF-8"?>
<!DOCTYPE svg  PUBLIC '-//W3C//DTD SVG 1.1//EN'  'http://www.w3.org/Graphics/SVG/1.1/DTD/svg11.dtd'>
<svg width="142.33pt" height="280.51pt" version="1.1" viewBox="0 0 142.33 280.51" xmlns="http://www.w3.org/2000/svg" xmlns:xlink="http://www.w3.org/1999/xlink">
 <metadata>
  <rdf:RDF xmlns:cc="http://creativecommons.org/ns#" xmlns:dc="http://purl.org/dc/elements/1.1/" xmlns:rdf="http://www.w3.org/1999/02/22-rdf-syntax-ns#">
   <cc:Work>
    <dc:type rdf:resource="http://purl.org/dc/dcmitype/StillImage"/>
    <dc:date>2024-07-04T12:08:52.299812</dc:date>
    <dc:format>image/svg+xml</dc:format>
    <dc:creator>
     <cc:Agent>
      <dc:title>Matplotlib v3.7.1, https://matplotlib.org/</dc:title>
     </cc:Agent>
    </dc:creator>
   </cc:Work>
  </rdf:RDF>
 </metadata>
 <defs>
  <style type="text/css">*{stroke-linejoin: round; stroke-linecap: butt}</style>
 </defs>
 <g id="figure_1">
  <g id="patch_1">
   <path d="m0 280.51h142.33v-280.51h-142.33v280.51z" fill="none"/>
  </g>
  <g id="axes_1">
   <g id="PatchCollection_1">
    <defs>
     <path id="m9b717f723a" d="m123.16-79.167-0.25419 0.17454-0.37469 0.34858-3.6247 3.5541-1.4992 1.3407-1.4399 1.1608-0.90879 0.66405-2.0764 1.3314-1.1678 0.64962-2.5289 1.221-2.4334 1.0208-5.7991 2.2481-2.4884 1.0667-1.4485 0.68204-2.5846 1.3378-1.907 1.1217-0.60926 0.39785-1.1841 0.87231-0.81103 0.75336-0.64314 0.82029-0.45285 0.81748-0.22223 0.49232-0.47119 1.2642-1.1439 3.6006-0.33418 0.83139-0.40385 0.85094-0.61334 1.0599-0.69896 1.0245-0.75953 0.9985-2.7629 3.4076-0.68805 0.94953-0.70129 1.1203-0.57425 1.1739-0.27275 0.75099-0.25961 0.9528-0.71338 4.0243-0.48318 2.0085-0.3972 1.2921-0.4579 1.2667-0.76757 1.7683-0.84028 1.5885-0.95387 1.5308-1.3359 1.8925-2.3802 3.1708-0.63104 0.99329-0.072268 0.19211 0.021996 0.08225-0.055302-0.01698-0.071983-0.27148-0.2158-3.8633-0.11532-1.0319-0.18345-0.9857-0.35586-1.1039-0.54006-0.92798-0.46334-0.48276-0.54464-0.39785-0.60673-0.32196-0.66028-0.25902-1.329-0.34102-0.95624-0.14882-1.1667-0.1208-3.8588-0.24781-2.0448-0.061972-1.9261 0.012722-1.4013 0.074445-1.1442 0.11301-1.8733 0.27284-1.4049 0.25701-3.9208 0.88261-3.7223 1.0335-2.6885 0.92464-1.1205 0.47126-0.91781 0.43976-3.3581 1.8734-0.85968 0.3916-0.6717 0.25166-0.69022 0.2209-1.4677 0.38145-2.6012 0.50161-5.0467 0.81017-1.0218 0.07644-1.0462 0.010909-1.3592-0.070101-2.0731-0.26517-1.6358-0.32511-1.8754-0.51456 0.58532-0.60317 0.60155-0.71394 1.5587-2.0015 1.3514-1.845 0.97175-1.4951 0.77535-1.4255 0.25556-0.56297 0.5947-1.6644 0.26188-0.98987 0.2844-1.3922 0.25029-1.805 0.11898-1.481 0.041011-2.6602-0.23494-4.5709-0.00187-1.1179 0.14883-1.9196 0.35204-1.9617 0.85212-3.3031 0.67308-2.211 0.41282-1.1778 0.512-1.2531 0.71083-1.4035 1.564-2.4808 0.83586-1.5058 2.3655-4.7655 1.3178-2.2666 0.77011-1.0786 0.68281-0.76129 0.7573-0.71642 0.83246-0.69928 3.3405-2.5869 1.0817-1.0089 0.92666-1.1299 0.7474-1.3372 0.5661-1.479 0.43562-1.5806 0.34973-1.6465 0.99013-5.3686 0.42352-1.6837 0.54092-1.5601 0.80259-1.6392 0.83108-1.4876 0.65729-1.4152 0.26351-1.4169-0.035625-0.46103-0.10999-0.52708-0.2878-0.80413-0.371-0.7383-0.49328-0.79681-0.70446-0.97765-1.298-1.594-1.1265-1.2791-1.9558-2.0483-4.4858-4.3109-1.8566-1.8664-1.7317-1.8716-1.6035-1.9129-0.77735-1.0312-0.90644-1.3301-0.53759-0.88224-0.87074-1.6464-0.92367-2.1722-0.61114-1.7824-0.52412-1.8367-0.37719-1.5599-0.33072-1.5894-0.44882-2.6353-0.37773-2.8888-0.43041-4.5091-0.40943-4.9816-0.15043-2.4907-0.039834-2.4385 0.081313-4.0542-0.006845-0.71319-0.031807-0.3554-0.052378-0.095577 0.17935-0.3574 0.086512-0.60892 0.047245-0.97112-0.093901-2.0021-0.18862-1.5186-0.3203-1.8079-0.33607-1.5448-1.2481-4.8642-0.41481-2.0417-1.0585-6.8761-0.36306-3.5277-0.5123-8.682-0.017639-1.8569 0.036623-2.3965 0.068349-1.5061 0.22213-1.5921 0.34828-1.3084 0.17235-0.4281 0.42315-0.7754 0.5395-0.74366 1.0398-1.1167 1.2649-1.0984 1.0487-0.80291 5.2251-3.7388 5.2109-4.0084 1.662-1.2215 0.80115-0.55394 1.5326-0.964 2.4716-1.3311 1.0447-0.6085 1.2301-0.82906 0.86643-0.7189 0.3061-0.31711 0.64654-0.89691 0.44612-0.90863 1.0638-2.8334 1.2936-3.1963 0.44752-1.0081 0.40966-0.6641 0.32859-0.22448 0.44715-0.29012 0.36217-0.32207 0.37674-0.40067 0.34993-0.46276 0.28952-0.51577 0.16711-0.43378 0.12331-0.48435 0.074096-0.50177 0.034867-0.64629-0.088097-2.4751 0.02597-1.2996 0.27653-3.1363 0.08229-1.591-0.009277-0.71501-0.12629-1.872 0.005055-0.89218 0.078831-0.6019 0.176-0.66008 0.20438-0.52656 0.53178-1.022 0.84986-1.2523 1.0751-1.2817 2.3686-2.4935 0.59974-0.83413 0.25334-0.48011 0.35611-1.0151 0.54759-2.9297 0.50924-2.2077 0.20357-0.013367 0.49013 0.18182 0.91388 0.47287 1.4133 0.88637 1.2198 0.88115 1.0223 0.82081 1.1131 0.98599 0.90077 0.87474 0.80446 0.8445 1.5879 1.8658 0.82355 1.0849 0.94326 1.3504 1.3403 2.1125 0.89097 1.522 1.3675 2.4985 3.9758 7.7747 1.3446 2.5243 1.4643 2.5594 1.3912 2.1863 1.3193 1.8325 0.62232 0.78861 0.73241 0.87297 1.6163 1.7466 1.5311 1.4815 4.3405 3.862 0.84817 0.81522 0.77206 0.82628 0.55836 0.69776 0.40213 0.60763 0.28559 0.54594 0.21759 0.58066 0.12435 0.56884 0.043297 0.62252-0.060481 0.74341-0.20744 0.89209-0.32815 0.90303-0.75786 1.5371-0.70508 1.1425-1.2043 1.6624-0.94894 1.1848-2.4166 2.7797-2.0648 2.4882-0.80618 1.0654-0.74545 1.1014-1.2024 2.0939-0.51276 1.0436-0.45768 1.0645-0.54701 1.5373-0.19138 0.6539-0.40169 1.7771-0.26437 2.0181-0.093804 1.8286 0.066381 8.2316-0.11389 3.1364-0.30644 3.182-0.94302 7.665-0.94316 9.2884-0.30217 4.6803-0.44518 5.1963-0.19611 3.2387-0.11118 3.792-0.012317 4.1681-0.053964 1.958-0.1827 2.5827-0.57319 5.1298-0.45451 5.4148-0.45829 3.5873-0.30085 1.7902-0.45518 2.2704-0.53401 2.243-1.6631 5.9203-0.47853 1.9024-0.46939 2.4148-0.17859 1.2354-0.11718 1.9069 0.097239 1.8253 0.32162 1.6848 0.1006 0.33659 0.4698 1.119 0.61734 0.93282 0.6645 0.75242 0.94882 0.86357 1.1058 0.70941 0.61565 0.26854 0.96248 0.29193 1.3621 0.22876 1.3168 0.07443 0.91617-0.013607 1.3447-0.096799 1.763-0.23731 1.8749-0.35742 2.293-0.54993 2.1105-0.58954 2.447-0.76776 2.9592-1.0428 3.5682-1.4269 1.5519-0.67756 3.1783-1.4983 8.7815-4.5573 2.2916-1.1363 2.2741-1.0364 2.2487-0.88592 1.703-0.54951 1.2699-0.35152 2.7134-0.64958 1.303-0.2648 1.1381-0.155 0.72014-0.003784 0.58608 0.1165 0.31822 0.1521 0.32248 0.29221 0.32906 0.86689 0.009161 1.1164-0.26602 1.5463-0.52818 1.922-0.29458 0.91825-3.0336 8.4576-1.081 3.3741-0.45431 1.6429-0.51342 2.2887-0.13017 1.1476 0.14503 0.24051" stroke="#bdc660"/>
    </defs>
    <g clip-path="url(#p591b906fc7)">
     <use y="280.512" fill="#bdc660" stroke="#bdc660" xlink:href="#m9b717f723a"/>
    </g>
   </g>
  </g>
 </g>
 <defs>
  <clipPath id="p591b906fc7">
   <rect x="7.2" y="7.2" width="127.93" height="266.11"/>
  </clipPath>
 </defs>
</svg>
