<?xml version="1.0" encoding="UTF-8"?>
<!DOCTYPE svg  PUBLIC '-//W3C//DTD SVG 1.1//EN'  'http://www.w3.org/Graphics/SVG/1.1/DTD/svg11.dtd'>
<svg width="359.28pt" height="280.51pt" version="1.1" viewBox="0 0 359.28 280.51" xmlns="http://www.w3.org/2000/svg" xmlns:xlink="http://www.w3.org/1999/xlink">
 <metadata>
  <rdf:RDF xmlns:cc="http://creativecommons.org/ns#" xmlns:dc="http://purl.org/dc/elements/1.1/" xmlns:rdf="http://www.w3.org/1999/02/22-rdf-syntax-ns#">
   <cc:Work>
    <dc:type rdf:resource="http://purl.org/dc/dcmitype/StillImage"/>
    <dc:date>2024-07-04T12:09:07.719729</dc:date>
    <dc:format>image/svg+xml</dc:format>
    <dc:creator>
     <cc:Agent>
      <dc:title>Matplotlib v3.7.1, https://matplotlib.org/</dc:title>
     </cc:Agent>
    </dc:creator>
   </cc:Work>
  </rdf:RDF>
 </metadata>
 <defs>
  <style type="text/css">*{stroke-linejoin: round; stroke-linecap: butt}</style>
 </defs>
 <g id="figure_1">
  <g id="patch_1">
   <path d="m0 280.51h359.28v-280.51h-359.28v280.51z" fill="none"/>
  </g>
  <g id="axes_1">
   <g id="PatchCollection_1">
    <defs>
     <path id="m6a99573a52" d="m320.13-151.47-0.48683 0.47916-4.4139 3.4609-2.4243 2.0044-2.3092 2.0571-2.2976 2.3735-1.3277 1.7433-0.65694 1.1026-0.50228 1.0981-0.20836 0.61769-0.26333 2.2517 0.090796 0.74066 0.30227 1.1354 0.50349 1.2 0.63526 1.1869 1.5895 2.7029 2.0814 4.1135 3.0164 5.2085 1.2074 1.707 1.3827 1.5028 1.481 1.3398 1.5979 1.2993 3.7534 2.9028 6.0701 4.3924 1.7987 1.4685 1.5914 1.5152 1.3846 1.5458 1.1528 1.5279 0.67863 1.1041 0.59166 1.4079 0.26074 1.4574-0.15525 1.6746-0.31687 1.0783-0.26781 0.67045-0.67232 1.3776-4.8438 8.9094-1.2116 2.0264-1.2265 1.8499-1.4119 1.7911-0.53836 0.53099-0.9137 0.75604-1.6726 1.1128-2.6928 1.5074-4.2474 2.2516-2.0638 1.3856-3.0228 2.3756-1.7473 1.5511-1.6538 1.6678-1.5044 1.7514-1.2904 1.8056-1.0005 1.8329-0.50786 1.3072-1.3493 4.4418-0.55887 1.4277-0.81834 1.4334-1.0541 1.3357-1.2642 1.1985-1.1277 0.83334-2.87 1.8017-6.9676 4.0291-8.6941 5.188-3.0599 1.7583-4.7781 2.52-6.3638 3.0816-1.8687 1.0571-0.60379 0.56784 0.16352 0.32129-0.1183 0.31517-0.30092 0.21938-0.45616 0.1537-3.4641 0.2837-2.8101 0.50909-2.9486 0.83293-1.5553 0.54569-4.7002 1.8572-1.0935 0.34213-1.0517 0.2151-0.93225 0.04827-1.2317-0.20645-1.2175-0.42776-2.661-1.1491-2.3028-1.1826-4.5714-2.5166-5.73-2.799-1.6804-0.73115-1.4314-0.49813-3.5691-1.0426-2.4679-0.94452-6.2962-2.7756-1.6904-0.82696-5.1206-2.6863-1.5145-0.71628-1.2134-0.51012-1.5179-0.51852-1.627-0.32453-0.92253-0.034858-1.1854 0.13349-1.1918 0.27646-3.2801 0.93484-1.7789 0.55783-1.4456 0.52604-1.2956 0.57157-0.74012 0.40254-0.53485 0.35793-0.18968 0.20634-5.0873 0.77889-2.9384 0.33267-2.8193 0.17151-2.271-0.013997-2.016-0.16457-1.7748-0.29859-1.4897-0.39371-1.087-0.39346-2.1363-1.1047-1.8014-1.3093-1.4963-1.368-0.83304-0.86868-1.7529-2.0422-1.7167-2.3072-1.3403-2.0361-1.0717-1.7813-3.8829-7.0684-1.5154-2.5817-1.5925-2.3791-1.6972-2.0698-1.8336-1.6334-1.4853-0.87786-0.795-0.34561-0.98117-0.31608-1.3209-0.22065-1.1508 0.017809-1.1161 0.24307-0.8746 0.3887-0.73628 0.5153-0.69529 0.71822-0.61841 0.92569-0.57135 1.1542-0.92457 2.3158-0.46277 1.6551-0.16992 1.2278-0.00521 1.5536 0.52639 3.898-0.041063 1.1094-0.49872 1.5478-0.45654 0.71966-0.63141 0.74705-0.8881 0.84621-1.5938 1.2467-1.1497 0.77792-1.192 0.70791-2.0579 0.96946-1.8732 0.63818-1.2593 0.3006-1.7971 0.17285-1.7867-0.21229-1.8057-0.59326-1.7225-0.93202-1.7314-1.3488-1.3734-1.3838-1.6553-2.2499-1.316-2.353-1.2096-2.6402-1.1449-2.8877-1.2088-3.3299-0.86018-2.7396-0.31454-1.3182-0.3966-2.3095-0.27417-2.6506-0.34745-7.4009-0.73238-6.6416-0.32296-6.0677-0.26434-2.007-0.31711-1.2756-0.74805-1.867-1.2803-1.9459-1.9741-1.8293-2.4299-1.5304-2.0021-0.98711-2.1331-0.90671-10.012-3.7749-2.1649-0.96254-2.5263-1.3572-2.4035-1.5815-2.2447-1.7853-2.1213-1.9634-2.0169-2.1024-2.3973-2.786-1.6749-2.1428-1.3835-1.9104-1.7583-2.6614-2.1042-3.6437-4.2764-8.1785-2.014-3.6736-1.486-2.9346-2.7603-5.8738-0.89355-1.7665-0.86754-1.4871-0.87134-1.3271-1.2866-1.8329-2.8342-3.743-2.5347-3.095-2.5972-2.8977-1.2734-1.2621-1.8063-1.5347-1.2406-0.84041-1.2299-0.63193-1.9787-0.55448-1.5797 0.023494-0.77655 0.49344-0.075386-0.44128 0.24782-1.2788 0.49865-1.9934 0.74328-2.387 1.074-2.5413 1.1082-1.9531 1.7139-2.377 2.3307-2.457 2.653-2.1978 2.8568-1.9377 2.9624-1.6729 2.9867-1.3926 2.9405-1.0828 2.8274-0.72738 1.399-0.22663 4.3619-0.54829 1.5933-0.43317 1.7922-0.99446 1.3929-1.4476 0.77922-1.4369 0.44366-1.2495 0.28312-1.3535 0.09625-1.3869-0.12722-2.678-0.5556-6.0103-0.08853-3.0917 0.18469-3.3004 0.3299-2.8828 0.53434-2.6948 1.9881-8.0158 0.26424-0.91973 0.7995-2.2189 1.0438-2.336 1.2503-2.4066 1.4316-2.4326 1.5865-2.4128 1.6069-2.251 1.6814-2.2009 1.7179-2.1023 1.8966-2.1391 1.9301-1.9514 1.9545-1.693 2.2491-1.4872 1.3005-0.56619 1.3336-0.31625 0.65073-0.050947 0.89978 0.030224 0.81086 0.11579 1.1302 0.28478 1.3858 0.51342 1.4875 0.71008 2.2149 1.2711 8.5291 5.605 2.3289 1.4516 2.5063 1.4485 3.3125 1.7376 1.8749 0.83701 1.7008 0.54777 2.4446 0.31729 1.8073-0.038963 1.5669-0.16922 2.1682-0.42233 0.92041-0.24364 2.3566-0.746 3.4543-1.219 8.4746-3.2312 3.6148-1.5245 8.3399-3.8141 8.1373-3.9497 3.3936-1.4766 2.2744-0.77 1.9557-0.41385 1.9078-0.080919 1.4533 0.21293 1.9774 0.66374 1.1295 0.55927 2.0905 1.3508 9.4283 7.5269 4.3517 3.5488 6.5279 4.8999 2.0451 1.6412 1.8373 1.7026 1.5293 1.803 1.196 1.9702 1.748 3.5254 0.82973 1.4207 1.0759 1.3957 1.5148 1.4061 1.7392 1.2553 1.6831 1.058 5.5767 3.1485 2.0644 1.4819 0.89431 0.79635 1.6686 1.8445 1.1715 1.5615 1.1562 1.9137 0.70097 1.4619 0.64992 1.7344 0.43335 1.7655 0.27022 1.8501 0.15801 2.1172 0.057669 2.1631 0.011627 5.818 0.1578 2.9995 0.5934 3.9522 1.1957 5.9875 1.2081 4.5193 0.54104 1.6328 0.36622 0.87886 0.76088 1.4626 1.2415 1.8269 0.68444 0.83919 1.6348 1.5805 0.97159 0.73742 1.2378 0.70788 1.6354 0.64724 3.5642 1.1275 1.7717 0.66381 1.5197 0.92955 0.55343 0.50466 0.78916 1.1757 0.2151 0.78628 0.03939 0.64359-0.082061 0.7984-1.0433 3.6333-0.2633 1.1362-0.25665 1.4968-0.10776 1.8913 0.096709 1.1621 0.13449 0.69185 0.22642 0.76328 0.49634 1.1064 0.69725 0.93384 0.76319 0.60832 0.87693 0.42757 1.3177 0.33837 1.4605 0.14565 1.8891-0.046693 3.2572-0.42735 6.7263-1.3585 3.5348-0.64904 3.3435-0.41059 4.5537-0.24761 8.4621-0.19548 9.4701 0.12475 3.7612-0.077373 2.4247-0.12771 2.9356-0.27431 3.2615-0.50082 5.963-1.2388 2.4912-0.35201 2.4036-0.060644 2.226 0.29538 2.0176 0.56815 0.58128 0.22 1.4988 0.73665 1.0404 0.76152 0.3951 0.66853" stroke="#bdc660"/>
    </defs>
    <g clip-path="url(#pb12b4c742c)">
     <use y="280.512" fill="#bdc660" stroke="#bdc660" xlink:href="#m6a99573a52"/>
    </g>
   </g>
  </g>
 </g>
 <defs>
  <clipPath id="pb12b4c742c">
   <rect x="7.2" y="7.2" width="344.88" height="266.11"/>
  </clipPath>
 </defs>
</svg>
