<?xml version="1.0" encoding="UTF-8"?>
<!DOCTYPE svg  PUBLIC '-//W3C//DTD SVG 1.1//EN'  'http://www.w3.org/Graphics/SVG/1.1/DTD/svg11.dtd'>
<svg width="319.72pt" height="280.51pt" version="1.1" viewBox="0 0 319.72 280.51" xmlns="http://www.w3.org/2000/svg" xmlns:xlink="http://www.w3.org/1999/xlink">
 <metadata>
  <rdf:RDF xmlns:cc="http://creativecommons.org/ns#" xmlns:dc="http://purl.org/dc/elements/1.1/" xmlns:rdf="http://www.w3.org/1999/02/22-rdf-syntax-ns#">
   <cc:Work>
    <dc:type rdf:resource="http://purl.org/dc/dcmitype/StillImage"/>
    <dc:date>2024-07-04T12:09:02.751712</dc:date>
    <dc:format>image/svg+xml</dc:format>
    <dc:creator>
     <cc:Agent>
      <dc:title>Matplotlib v3.7.1, https://matplotlib.org/</dc:title>
     </cc:Agent>
    </dc:creator>
   </cc:Work>
  </rdf:RDF>
 </metadata>
 <defs>
  <style type="text/css">*{stroke-linejoin: round; stroke-linecap: butt}</style>
 </defs>
 <g id="figure_1">
  <g id="patch_1">
   <path d="m-0 280.51h319.72v-280.51h-319.72v280.51z" fill="none"/>
  </g>
  <g id="axes_1">
   <g id="PatchCollection_1">
    <defs>
     <path id="m3b8dddef27" d="m140.55-249.79 1.0952 0.56945 0.74438 0.33526 0.83535 0.29124 0.68207 0.13476 0.36723 0.011806 0.55584-0.057462 0.36441-0.078249 0.98253-0.3065 0.71296-0.091362 1.0856 0.038276 1.918 0.21436-0.15085 0.18485-0.29077 0.49178-0.3599 0.68315-0.72588 1.5588-0.53851 1.3289-0.3221 0.89127-0.39594 1.2406-0.29768 1.0887-0.49543 2.324-0.22193 1.5312-0.11036 1.5196 0.034848 1.9005 0.52248 6.5607 0.10997 2.2607 0.038559 2.2928 0.11484 1.6377 0.6057 5.049 0.50894 4.7924 0.23847 1.4973 0.3526 1.5749 0.43987 1.5543 0.50435 1.5314 0.54927 1.5049 1.5476 3.9616 0.5306 1.4545 0.46233 1.4246 0.31991 1.193 0.23445 1.2257 0.07831 1.5314-0.05658 0.56456-0.11839 0.64679-0.16778 0.67702-1.0543 3.7466-0.2896 0.90928-0.39179 0.95369-2.2779 4.7082-0.23965 0.64757-0.11936 0.4377-0.069978 0.40994-0.009527 0.50612 0.12726 0.56291 0.31034 0.52044 0.29471 0.30022 0.47864 0.36126 0.74586 0.44986 0.68702 0.35832 3.6942 1.6783 1.5749 0.75334 1.4029 0.75169 1.3735 0.81994 1.3238 0.87978 1.3756 1.0391 1.2394 1.1218 1.0467 1.226 0.47566 0.72701 0.63068 1.1967 0.58198 1.3933 0.51238 1.4661 0.43272 1.6122 0.24138 1.2156 0.19822 1.2459 0.13358 1.263 0.042382 1.0751-0.017869 1.0792-0.093366 1.29-0.21489 1.425-0.27411 1.1133-0.1702 0.52508-0.47444 1.144-0.58492 1.1021-0.67291 1.0615-1.7707 2.4501-1.69 2.4653-1.191 1.9466-0.81991 1.5034-0.67726 1.4066-0.5757 1.3501-0.58196 1.5503-0.35545 1.0779-0.40291 1.4258-0.4411 1.9662-0.23618 1.3735-0.17767 1.3651-0.10099 1.1131-0.05735 1.0959-0.008259 1.2019 0.046989 1.0904 0.08291 0.89588 0.2381 1.3848 0.14502 0.5384 0.48923 1.1581 0.65453 0.88735 0.666 0.63083 0.58828 0.45001 1.0597 0.67222 0.9671 0.50678 0.85577 0.35996 0.69202 0.22065 0.45286 0.10812 0.89075 0.12306 0.41708 0.009393 0.74475-0.088826 0.51159-0.16241 0.96885-0.56922 0.91432-0.805 0.79163-0.85517 0.79747-0.98781 1.9871-2.6039 1.2371-1.4893 1.1458-1.2417 1.2268-1.1899 1.0514-0.91508 1.6239-1.2722 4.9946-3.6097 1.6294-1.2397 2.1126-1.7051 1.9672-1.6725 2.0871-1.8519 1.4781-1.4363 1.5145-1.6615 1.7158-2.0914 2.1477-2.8185 1.2777-1.8471 3.1752-5.1565 2.0917-3.2243 1.5156-2.1374 4.8929-6.4348 1.5173-2.2161 1.2412-2.0419 1.507-2.6859 1.6105-3.0562 4.4092-9.0112 2.8615-5.5573 2.7792-5.2282 1.7943-3.2371 2.3402-4.025 3.3821-5.3095 4.041-6.6951 1.407-2.5638 3.4506-6.8641 0.72528-1.3202 0.44986-0.7303 0.4583-0.65304 0.74005-0.82584 0.289-0.23911 0.70213-0.42843 1.3557-0.62275 0.6004-0.4133 0.59913-0.70293 1.1616-1.8736 0.7235-0.98917 0.49586-0.53399 0.55218-0.50352 0.8359-0.63926 1.1124-0.67837 1.172-0.52739 0.8575-0.25632 0.91791-0.12572 0.89187 0.071492 1.1866 0.47729 1.1222 0.82657 1.0728 1.0676 1.0348 1.2216 0.71996 0.94728 0.81227 1.2554 0.75122 1.3508 0.64285 1.3026 0.6318 1.4376 0.7515 1.8596 0.80736 2.1879 1.7622 5.2299 1.5041 4.3133 0.7165 1.9046 0.49548 1.1671 0.69781 1.4365 0.95532 1.6339 0.89752 1.2912 1.1038 1.3524 0.98635 1.0522 0.89141 0.84516 0.64404 0.55323 0.85743 0.66616 0.60343 0.42392 1.4055 0.8658 1.2905 0.68516 1.6315 0.76841 3.6057 1.6025 1.1694 0.58476 1.3188 0.72522 1.0205 0.66032 0.65718 0.52611 0.62653 0.60552 0.57372 0.67916 0.76546 1.2609 0.40248 1.3463 0.036487 0.72226-0.039166 0.54253-0.13266 0.78926-0.25541 0.98513-0.94367 2.8319-0.41532 1.4557-0.18854 1.0332-0.043759 1.2089 0.067928 0.61079 0.30696 1.2404 0.42881 1.1159 0.65273 1.3392 1.212 2.0936 0.94418 1.4416 0.97512 1.3765 0.66088 0.86578 0.88515 1.0647 0.67011 0.71852 0.67175 0.64036 0.47954 0.4019-1.1916 0.53978-0.53738 0.2777-1.0779 0.6742-3.4152 2.3927-2.1413 1.3895-1.8595 1.0524-1.4984 0.79304-3.7822 1.8355-1.0801 0.5739-1.0856 0.65631-1.1259 0.81875-1.0076 0.87302-0.88147 0.88773-0.64945 0.73612-0.86945 1.0922-1.8645 2.5514-0.65434 0.83253-0.69326 0.81584-1.5573 1.6645-1.291 1.2616-1.2554 1.1449-3.5606 2.9942-1.9917 1.7626-2.2428 2.1396-4.1638 4.1131-0.98586 0.89532-0.72122 0.59756-0.7491 0.55865-1.4915 0.94136-2.7001 1.4718-3.5994 1.8445-1.0385 0.58997-1.0595 0.6964-0.99669 0.75187-1.0878 0.92539-0.88374 0.83664-1.006 1.0596-0.58687 0.68494-0.6089 0.79804-0.3089 0.52212-0.009373 0.10326-2.6887 0.34217-2.2433 0.32434-3.4024 0.54988-2.0531 0.38779-1.5702 0.34778-1.8716 0.50229-1.6305 0.56524-1.634 0.7353-1.5749 0.83211-1.1406 0.67331-1.418 0.95731-1.3022 1.0125-1.1327 0.97236-1.1624 1.0882-1.1939 1.221-3.4879 3.8723-0.55787 0.57172-0.8319 0.71715-0.47915 0.31844-0.8221 0.38533-0.88444 0.18801-0.90193-0.055312-0.87485-0.22418-1.7861-0.62023-0.95329-0.25193-0.66832-0.1099-0.62845-0.059932-0.61299-0.015031-1.1533 0.071023-1.5526 0.23511-0.93977 0.19233-2.4635 0.61877-3.1087 0.86999-1.8594 0.55854-3.1203 1.0177-3.0751 1.099-2.3884 0.93685-6.5523 2.6719-0.6063 0.29559-0.642 0.38017-0.451 0.33754-0.43461 0.40611-0.45023 0.55672-0.27776 0.4634-0.30574 0.72016-0.16702 0.62217-0.091054 0.60701-0.024876 0.86856 0.031474 0.47312 0.062992 0.51253 0.23716 1.2281 2.1144 8.4571 0.81316 3.5309 0.27054 1.4135 0.22269 1.4194 0.1953 1.7947 0.068925 1.2358 0.008864 1.234-0.033962 0.89625-0.077659 1.0324-0.3166 2.5192-0.35525 1.9871-0.2686 1.211-0.31304 1.1963-0.46205 1.4702-0.62329 1.6559-0.42776 1.0112-1.1651 2.4854-1.1574 2.2154-0.9354 1.4717-0.38917 0.5135-0.62178 0.7294-0.95074 0.95223-1.5529 1.2762-1.564 1.2068-1.1226 0.94686-0.83652 0.81825-0.7268 0.88673-0.70481 1.2223-0.50226 1.3358-0.31892 1.4134-0.1549 1.355-0.19988 2.7314-0.12026 0.97024-0.15392 0.87956-0.28109 1.1324-0.23009 0.6939-0.58843 1.3661-0.44882 0.84797-0.39936 0.6681-0.58426 0.86946-1.1136 1.3885-0.79842 0.84414-1.3102 1.202-0.55752 0.45392-1.1385 0.84092-0.90417 0.60672-0.98448 0.6083-1.767 0.986-1.1318 0.55886-0.84885 0.36698-0.74081 0.25991-0.23622 0.021835 0.061718-0.35404-0.30712-0.55986-0.58802-0.69034-0.39326-0.38068-1.1484-0.9435-1.1466-0.80861-1.7444-1.0954-3.4288-2.0534-1.1779-0.78544-0.94338-0.7176-0.84936-0.76341-0.75129-0.84226-0.60651-0.91486-0.63099-1.5832-0.32584-1.7341-0.11196-1.8372 0.028656-1.9032 0.14752-2.4667 0.20423-2.5053 0.18778-1.7577 0.55798-4.4594 0.13437-1.5234 0.007027-1.3642-0.057514-0.59558-0.090667-0.49032-0.42367-1.0936-0.70966-0.77448-0.64401-0.30014-0.31204-0.076644-0.76916-0.073948-1.2367 0.070888-3.4394 0.50259-1.6637 0.20312-2.2703 0.17014-1.757 0.040663-1.1953-0.070763-1.3523-0.24946-1.2863-0.40779-1.1977-0.5308-0.47477-0.25662-0.63396-0.4023-0.45967-0.34081-0.54111-0.46442-0.35108-0.34865-0.49686-0.59288-0.44053-0.7135-0.27579-0.77572-0.019962-0.82173 0.23444-0.69749 0.35212-0.47516 0.43565-0.42396 0.60002-0.56102 0.42857-0.35156 0.86159-0.51915 2.5922-1.2509 2.1583-0.92868 0.55587-0.32672 0.5289-0.38883 0.9043-0.87409 0.4748-0.55729 0.66352-0.99676 0.24512-0.46064 0.33399-0.84066 0.19652-0.88062 0.025204-0.88774-0.041086-0.32102-0.18435-0.66793-0.30069-0.60787-0.40368-0.55708-0.18678-0.20628-0.6434-0.55292-0.96967-0.53386-1.0971-0.41604-1.2274-0.38327-1.0466-0.30076-1.0905-0.25197-1.3112-0.16972-1.2814-0.050439-1.0693 0.016972-1.0547 0.066249-1.3976 0.17842-0.91718 0.19434-0.58731 0.17651-0.76075 0.33555-0.7224 0.5142-0.61591 0.66387-0.75526 1.0781-1.5022 2.4445-0.9895 1.4618-0.9558 1.1724-1.1382 1.148-0.72717 0.59699-0.75242 0.50106-0.86603 0.42042-0.89054 0.24136-1.1176 0.020019-1.1332-0.23274-1.1322-0.42259-0.35678-0.16544-0.73037-0.3822-1.1341-0.68885-1.0736-0.75226-0.98109-0.78376-1.6865-1.4441-0.70362-0.51634-1.7989-1.2128-1.1056-0.87872-0.34244-0.31147-0.77753-0.81787-1.2236-1.5399-0.71918-0.75598-0.81387-0.69532-0.95023-0.63758-1.2183-0.5495-1.1675-0.2561-1.2119-0.13842-1.2524-0.17599-0.39859-0.085757-1.4382-0.4153-2.5409-0.88516-1.2081-0.29687-1.2836-0.18661-1.3219-0.052264-0.48214 0.018742-0.63503 0.056476-0.8194 0.12555-0.73906 0.1659-0.69564 0.2063-0.82311 0.32053-0.63626 0.33889-0.32104 0.2577-0.086958 0.1909-0.067148 0.089164-0.13422-0.018288-0.23674-0.17445-0.27558-0.30942-0.29669-0.40135-1.2624-1.9381-0.45256-0.64213-0.54457-0.65943-0.89763-0.91338-0.19611-0.25457-0.092028-0.1998-0.046364-0.30002 0.078188-0.73415-0.012635-0.38841-0.093865-0.3692-0.70559-1.6039-0.13144-0.4164-0.22327-1.2699-0.16143-0.40629-0.2207-0.39963-1.0871-1.5747-0.29357-0.355-1.3448-1.4206-0.28996-0.37298-0.63887-1.0009-0.26429-0.28731-0.40818-0.2826-0.49381-0.22407-0.55313-0.17685-0.5836-0.1376-0.57829-0.10351-1.0228-0.12043 0.61343-0.15922 0.26991-0.178 0.32864-0.27745 0.55179-0.61541 0.4858-0.73664 0.34441-0.70756 0.26832-0.75688 0.67527-2.6943 0.45997-1.5237 0.89324-2.4263 0.54184-1.2913 1.1728-2.5226 1.0602-2.0548 1.1672-1.9882 1.2173-1.7789 0.95483-1.2177 0.92362-1.0648 1.7219-1.7666 2.0985-1.9268 4.8063-4.1246 1.4314-1.2737 0.61762-0.61724 0.75894-0.86582 0.93316-1.2991 0.75085-1.3531 0.53574-1.3672 0.19284-0.74303 0.17239-0.92359 0.10125-0.90455 0.14234-4.0988-0.041893-0.80206-0.11634-0.79341-0.22428-0.83333-0.31265-0.83619-0.5596-1.054-0.88246-1.109-1.1077-1.0464-1.2718-1.003-1.3866-0.97606-4.4774-2.9125-1.4982-1.0137-1.4555-1.062-0.96777-0.77361-1.0124-0.89555-1.1579-1.1592-1.431-1.5964-2.69-3.1274-1.0099-1.1225-1.1066-1.1191-1.1343-0.95355-0.63402-0.43105-3.0806-1.817-0.69922-0.48181-0.5493-0.45466-0.76935-0.76831-0.84618-1.0364-0.55203-0.79205-0.52259-0.83247-0.66293-1.1593-0.99558-1.9007-1.5604-3.3873-0.62394-1.2323-0.73658-1.2677-0.58983-0.8758-0.53478-0.70052-0.86218-0.98882-1.0451-1.0356-2.2114-1.9875-0.47639-0.49588-0.78616-0.9704-0.38333-0.57264-0.69945-1.2831-1.1722-2.3423-1.3213-2.3611-1.3968-2.2687-1.4307-2.0974-0.56277-0.93363-0.26093-0.53887-0.36432-0.95393-0.23141-0.80814-0.17687-0.83561-0.16745-1.425-0.014884-0.93807 0.068336-0.93953 0.15757-0.95106 0.22297-0.95113 0.91032-3.3925 0.50774-1.6937 0.37177-0.9976 0.64065-1.4391 1.0033-1.9144 0.49857-0.833 0.58345-0.8676 0.54011-0.63899 0.17522-0.091335 0.054951 0.048163 0.10964-0.01248 0.50592-0.19384 1.0089-0.53022 0.90934-0.55137 1.3376-0.92841 0.53733-0.42452 0.96361-0.85962 0.72232-0.75418 0.38854-0.45675 0.64497-0.86591 0.3435-0.52501 0.867-1.5333 1.0485-2.0742 0.2009-0.33825 0.44522-0.59319 0.42227-0.3922 0.26599-0.19491 2.5733-1.4973 0.76778-0.55893 0.62616-0.52819 0.65366-0.61822 0.9314-1.0081 0.45234-0.55411 1.3989-1.8755 0.65996-0.71877 0.42681-0.3578 1.0164-0.67871 2.6055-1.5401 1.9059-1.2212 1.4821-1.1044 1.8054-1.6222 0.45005-0.32476 1.3248-0.75684 2.9666-1.3925 1.3215-0.69863 1.2264-0.79816 0.60276-0.46557 0.82975-0.74339 0.48124-0.49853 0.56739-0.66149 0.63603-0.83324 0.80001-1.1806 0.40382-0.6591 0.75594-1.4205 0.31984-0.72027 0.3756-0.99685 0.37557-1.1918 0.063109 0.12739 0.22556 0.18107 0.36191 0.19132 0.57859 0.20831 0.6945 0.14142 1.033 0.033711 0.87761-0.097097 1.3117-0.30684 1.4874-0.45209 0.89281-0.23548 2.9274-0.50301 1.016-0.20819 1.78-0.4068 2.71-0.68447 0.96076-0.18328 0.64581-0.078513 1.6675-0.11681 0.60009-0.12593 0.4602-0.17103 0.35109-0.1706 1.2642-0.72066 1.5601-0.83029 0.76372-0.28003 0.59048-0.084051 0.36964 0.005801 0.34133 0.045095 0.73712 0.23642 0.8872 0.55783 0.51536 0.49916 0.48742 0.57569 0.72669 0.96902 0.66554 1.0684 0.40801 0.82367 0.52584 1.1774 0.54514 1.0816 0.18978 0.31073 0.72626 0.95319 0.56494 0.54097 0.63788 0.44655 0.82655 0.37638 0.85106 0.24811 1.4308 0.25387 3.8638 0.49132 1.4668 0.17006 1.876 0.093518 1.0786-0.039129 1.0668-0.091998 3.4809-0.51141 2.2253-0.21978 2.4886-0.10883 2.5157 0.024744 1.4313 0.082074 1.4865 0.14014 2.5382 0.34919 2.243 0.41052 3.6529 0.75082 1.6843 0.21963 1.068 0.034255 0.65976-0.038747 0.54954-0.086931 0.33313-0.10019 0.17629-0.090774 0.098542-0.093468 0.032035-0.13365" stroke="#bdc660"/>
    </defs>
    <g clip-path="url(#p04f089ec0c)">
     <use y="280.512" fill="#bdc660" stroke="#bdc660" xlink:href="#m3b8dddef27"/>
    </g>
   </g>
  </g>
 </g>
 <defs>
  <clipPath id="p04f089ec0c">
   <rect x="7.2" y="7.2" width="305.32" height="266.11"/>
  </clipPath>
 </defs>
</svg>
