<?xml version="1.0" encoding="UTF-8"?>
<!DOCTYPE svg  PUBLIC '-//W3C//DTD SVG 1.1//EN'  'http://www.w3.org/Graphics/SVG/1.1/DTD/svg11.dtd'>
<svg width="258.9pt" height="280.51pt" version="1.1" viewBox="0 0 258.9 280.51" xmlns="http://www.w3.org/2000/svg" xmlns:xlink="http://www.w3.org/1999/xlink">
 <metadata>
  <rdf:RDF xmlns:cc="http://creativecommons.org/ns#" xmlns:dc="http://purl.org/dc/elements/1.1/" xmlns:rdf="http://www.w3.org/1999/02/22-rdf-syntax-ns#">
   <cc:Work>
    <dc:type rdf:resource="http://purl.org/dc/dcmitype/StillImage"/>
    <dc:date>2024-07-04T12:08:50.891296</dc:date>
    <dc:format>image/svg+xml</dc:format>
    <dc:creator>
     <cc:Agent>
      <dc:title>Matplotlib v3.7.1, https://matplotlib.org/</dc:title>
     </cc:Agent>
    </dc:creator>
   </cc:Work>
  </rdf:RDF>
 </metadata>
 <defs>
  <style type="text/css">*{stroke-linejoin: round; stroke-linecap: butt}</style>
 </defs>
 <g id="figure_1">
  <g id="patch_1">
   <path d="m0 280.51h258.9v-280.51h-258.9v280.51z" fill="none"/>
  </g>
  <g id="axes_1">
   <g id="PatchCollection_1">
    <defs>
     <path id="mf54942ff80" d="m202.17-220.94 0.11321 0.019531 1.7022 0.20042 0.9624 0.17227 0.97124 0.22899 0.92053 0.29431 0.8218 0.3729 0.67929 0.4703 0.43983 0.47815 1.0632 1.6657 0.48256 0.62071 2.238 2.3642 0.48856 0.59079 1.8091 2.6207 0.36729 0.66507 0.26866 0.67616 0.37157 2.1133 0.21874 0.69298 1.1743 2.6693 0.15621 0.61442 0.021027 0.64639-0.13012 1.2218 0.07716 0.49929 0.15315 0.33251 0.32637 0.42366 1.4939 1.5201 0.90628 1.0974 0.75317 1.0686 2.101 3.2254 0.49376 0.66794 0.45862 0.51494 0.39399 0.29033 0.22336 0.030436 0.11175-0.14839 0.94975 1.8469 1.3062 2.8245 4.0738 9.7992 3.3815 7.8092 2.057 5.2732 1.289 3.8023 0.71486 2.3575 0.79176 2.9291 0.62292 2.7179 0.32036 1.8203 0.13655 1.0554 0.14577 2.1031-0.030635 1.9646-0.21247 1.9017-0.59814 2.5971-0.37556 1.297-1.1192 3.3405-0.60364 1.6156-5.4491 13.401-0.83292 1.9614-0.89017 1.8782-1.904 3.4452-2.0835 3.5413-0.92535 1.4647-1.7456 2.3959-1.9559 2.3595-6.2032 6.9377-1.8683 2.2765-1.5848 2.2573-0.68348 1.2009-0.71824 1.7212-0.30505 1.4263 0.047266 1.5014 0.26098 0.92363 0.29948 0.67477 0.61833 1.0475 0.93867 1.2565 1.4727 1.6373 2.8934 2.7322 7.4574 6.2865 3.3926 3.0041 1.9276 1.9078 0.91451 1.0177 0.72686 0.9032 0.6454 0.92109 0.7765 1.4329 0.42396 1.2815 0.077836 0.41393 0.023124 1.8086-0.4053 1.725-0.72303 1.5815-0.44442 0.69932-0.50055 0.62899-0.81253 0.7876-0.73623 0.51732-0.56147 0.30318-0.83902 0.35093-0.82794 0.26422-2.1332 0.45369-3.6484 0.49937-1.7705 0.30375-5.6175 1.1659-1.727 0.44921-1.7151 0.53468-0.81406 0.30198-1.8995 0.84202-1.861 1.0137-1.8059 1.1735-1.9046 1.4693-2.1595 1.9513-6.2037 6.2437-3.0138 2.8725-1.9947 1.7035-1.4035 1.0747-1.9856 1.3378-1.7421 0.97841-2.1522 0.96042-7.3326 2.9878-2.1971 1.0789-4.3506 2.3524-2.17 1.0232-2.1761 0.73661-2.1887 0.2876-2.2497-0.30226-2.2453-0.81273-2.215-1.1998-2.1548-1.4915-2.0589-1.7109-1.919-1.8768-1.7243-2.0042-1.4611-2.1048-1.1124-2.1882-0.36552-1.0111-0.28171-0.9776-0.98506-4.5395-0.40517-1.3634-0.54152-1.2903-1.0554-1.6746-1.3083-1.5378-2.9185-2.892-1.3932-1.4584-2.1667-2.6568-1.0981-1.2249-1.2568-1.1067-1.1099-0.8053-1.6801-1.0173-1.2497-0.60228-2.1188-0.91201-0.63288-0.38838-1.2855-1.0636-1.3711-1.2303-1.6507-1.1659-1.7847-0.80669-2.0819-0.61733-1.5954-0.33494-1.693-0.26402-3.4326-0.32544-3.4863-0.13237-2.8613-0.013595-3.7958 0.068136-14.757 0.58331-6.7839 0.17432-4.9426 0.057256-4.1124-0.049596-4.3973-0.14762-5.7501-0.33061-2.0989-0.20898-0.31209-0.1109-0.31064-0.55697-0.2217-0.8958-0.10397-0.78568-0.039296-0.8671 0.11907-1.5377 0.34764-1.5875 1.6307-4.5353 0.47545-1.7401 0.29106-1.7443 0.074007-1.2344 0.001798-1.4418-0.097466-2.4862-0.12954-1.7135-0.23573-1.6926-0.2549-1.1849-0.59107-2.2194-0.70028-2.0572-0.3017-0.67972-0.63759-1.1755-3.0115-4.7436-2.9662-3.9008-0.8935-1.3065-0.81101-1.3263-0.69865-1.3324-1.3931-3.0646-0.97598-1.5458-1.2062-1.5347-1.3807-1.5279-3.1197-3.0497-10.514-9.3495-3.4441-3.3061-1.6109-1.721-1.4806-1.7808-1.2894-1.8531-1.0188-1.9383-0.65254-2.0336-0.21471-1.7706 0.030639-1.8003 0.19686-1.7806 0.76649-4.1687 0.11809-0.79356-0.017013-0.20799 0.3179 0.091795 0.40693-0.19738 0.4189-0.47757 0.44571-0.94359 0.35286-1.2745 1.0615-6.017 2.016-8.4033 0.87651-3.9736 0.73264-3.9544 0.70963-4.9403 0.39381-1.812 0.36135-1.2691 0.64232-1.8565 0.55212-1.325 0.50982-1.012 0.78969-1.3123 0.78754-1.107 2.1318-2.5369 1.4671-1.5766 2.0325-2.0267 3.2874-3.0528 1.3238-1.402 0.88232-1.057 0.94328-1.2509 1.3606-2.0377 3.2255-5.4524 1.7973-2.7404 1.1497-1.5207 1.1631-1.42 1.6704-1.9249 1.6861-1.833 4.726-4.7161 2.1139-2.039 2.1437-1.912 2.222-1.6928 2.3549-1.3659 1.8856-0.75804 1.9688-0.57857 7.819-1.6971 3.2021-0.91145 10.144-3.3525 5.2123-1.459 1.7131-0.66711 1.9369-1.0273 1.6517-1.3434 0.97354-1.103 4.5253-5.6783 1.1738-1.293 1.2315-1.1329 1.3939-0.98992 1.4235-0.87465 1.6783-1.1287 1.5061-1.2898 1.8925-1.8228 0.80174-0.69648 0.75758-0.53653 1.0592-0.53439 1.1229-0.37578 1.2097-0.23932 1.3643-0.047996 1.0178 0.085072 1.2822 0.24755 1.097 0.46096 0.91947 0.70603 0.63284 0.72178 0.32251 0.45739 0.67574 1.1841 0.48994 1.0853 0.677 2.015 0.53973 2.1861 1.1311 5.5533 0.90658 3.3983 0.51191 1.4816 0.86056 1.9429 0.61003 1.0815 1.2394 1.8326 1.3814 1.6131 1.5096 1.3037 1.7244 1.0022 3.0432 1.4777 0.99344 0.6072 1.7134 1.2366 3.4077 2.6604 2.1271 1.5734 2.0459 1.3768 2.1318 1.2352 1.9191 0.91593 2.5564 1.1239 4.4925 1.8129 2.0262 0.63799 2.1071 0.52196 2.8095 0.52363 2.2973 0.31458 4.1811 0.44812 2.0441 0.29055 2.697 0.56873 3.5254 0.86972 2.5726 0.4787 2.4973 0.17952 2.3088-0.24693 1.3098-0.436 1.1353-0.67211 1.2807-1.358 0.86644-1.596 0.46978-1.5606-0.033215-1.0695" stroke="#bdc660"/>
    </defs>
    <g clip-path="url(#p727642ae82)">
     <use y="280.512" fill="#bdc660" stroke="#bdc660" xlink:href="#mf54942ff80"/>
    </g>
   </g>
  </g>
 </g>
 <defs>
  <clipPath id="p727642ae82">
   <rect x="7.2" y="7.2" width="244.5" height="266.11"/>
  </clipPath>
 </defs>
</svg>
