<?xml version="1.0" encoding="UTF-8"?>
<!DOCTYPE svg  PUBLIC '-//W3C//DTD SVG 1.1//EN'  'http://www.w3.org/Graphics/SVG/1.1/DTD/svg11.dtd'>
<svg width="256.06pt" height="280.51pt" version="1.1" viewBox="0 0 256.06 280.51" xmlns="http://www.w3.org/2000/svg" xmlns:xlink="http://www.w3.org/1999/xlink">
 <metadata>
  <rdf:RDF xmlns:cc="http://creativecommons.org/ns#" xmlns:dc="http://purl.org/dc/elements/1.1/" xmlns:rdf="http://www.w3.org/1999/02/22-rdf-syntax-ns#">
   <cc:Work>
    <dc:type rdf:resource="http://purl.org/dc/dcmitype/StillImage"/>
    <dc:date>2024-07-04T12:08:56.226399</dc:date>
    <dc:format>image/svg+xml</dc:format>
    <dc:creator>
     <cc:Agent>
      <dc:title>Matplotlib v3.7.1, https://matplotlib.org/</dc:title>
     </cc:Agent>
    </dc:creator>
   </cc:Work>
  </rdf:RDF>
 </metadata>
 <defs>
  <style type="text/css">*{stroke-linejoin: round; stroke-linecap: butt}</style>
 </defs>
 <g id="figure_1">
  <g id="patch_1">
   <path d="m0 280.51h256.06v-280.51h-256.06v280.51z" fill="none"/>
  </g>
  <g id="axes_1">
   <g id="PatchCollection_1">
    <defs>
     <path id="m2926d35251" d="m108.46-250.84 0.10202-0.20758 0.078693-0.080885 0.17687-0.10816 0.3589-0.094016 0.16936-0.014075 0.71111 0.086989 0.4791 0.19378 0.34536 0.20477 0.40098 0.30183 2.4292 2.2842 0.6794 0.55692 0.53008 0.38646 0.83029 0.52102 0.54885 0.29332 0.60301 0.28228 0.74848 0.29792 1.3424 0.42163 1.0823 0.26332 1.1142 0.21045 0.86501 0.12407 4.2727 0.44179 1.8533 0.10964 1.6082-0.029321 1.5636-0.1483 3.2004-0.44884 3.5384-0.63589 2.9376-0.61204 1.0815-0.2967 0.80311-0.25942 2.2573-0.86713 0.90423-0.21079 0.54353-0.02781 0.6166 0.085012 0.43034 0.15291 0.49555 0.2999 0.41101 0.3622 0.33602 0.36108 1.8401 2.2233 1.0313 1.0872 1.4562 1.2561 2.3334 1.7511 0.8985 0.7211 1.0776 0.98147 1.0882 1.1423 0.60384 0.70589 0.73722 0.93784 1.063 1.537 1.5114 2.4594 1.8066 3.3465 0.49989 0.79618 0.6178 0.87856 0.7529 0.95187 1.1428 1.2702 4.6084 4.6111 3.2479 3.4412 1.7634 1.9787 1.042 1.2233 2.0683 2.5141 1.093 1.4067 0.91587 1.3443 0.46189 0.80182 0.38854 0.80144 0.53988 1.561 0.39863 1.3399 0.46327 1.2543 0.91757 2.0714 1.754 3.6103 0.78758 1.7545 0.76198 1.9048 1.2774 3.4868 0.48632 1.1338 0.26964 0.52205 0.30296 0.48926 0.53399 0.65738 1.0626 0.99904 0.5194 0.39529 0.78012 0.44828 0.68544 0.29108 0.92696 0.24878 1.1988 0.15268 1.2595 0.015429 0.77635-0.051873 1.2085-0.14596 0.93155-0.16929 1.8697-0.42529 1.0595-0.075392 2.1372 0.13717 0.97567-0.055009 2.2839-0.32007 0.88976-0.090265 1.9662-0.085289 0.87436-0.073354 1.7242-0.23482 1.6387-0.32626 4.2059-1.1357 1.6707-0.41787 1.704-0.37585 1.7198-0.30584 1.7181-0.20206 1.6974-0.056563 1.5337 0.11168 1.4743 0.26733 1.387 0.41882 1.2656 0.57553 1.1018 0.74716 0.72596 0.72177 0.58889 0.82112 0.46305 0.94589 0.30845 1.0993 0.091132 0.86145 0.00296 0.64703-0.061966 0.8224-0.10755 0.71878-0.36201 1.5506-0.37211 1.1331-1.3173 3.4285-0.76628 2.1218-0.41987 1.4842-0.17419 0.85717-0.10485 0.82915-0.013503 1.1399 0.33918 3.8045 0.25651 1.5099 0.5202 2.4986 0.13211 1.1647 0.010246 1.171-0.14071 1.1544-0.25966 0.98145-0.35202 0.99164-0.62358 1.5561-0.37609 0.85726-0.68134 1.41-1.099 1.9773-0.67526 1.0274-0.64518 0.82518-0.90975 0.95133-0.57203 0.50047-1.2105 0.88581-1.2958 0.76934-2.9146 1.4474-0.18886 0.36986-0.59338 0.21037-0.87019 0.048247-0.9459-0.1117-4.0318-0.9195-0.91974-0.14056-0.93109-0.06782-1.523 0.078131-1.2225 0.19929-1.5306 0.3644-1.9834 0.58386-2.2648 0.76575-1.319 0.53037-1.0175 0.47812-0.76717 0.41998-1.0785 0.73948-0.46844 0.41814-0.3105 0.33321-0.43756 0.57756-0.42349 0.71609-0.27964 0.62377-0.33187 1.0237-0.3312 1.5872-0.61379 4.0021-0.74542 3.7867-0.16676 1.0411-0.12521 1.0635-0.077231 1.1319-0.008175 1.3571 0.07035 1.0614 0.15532 1.0503 0.21817 0.89324 0.34241 0.94632 0.28761 0.6044 0.41828 0.72131 0.8803 1.3086 2.1643 2.9556 2.035 2.6187 1.352 1.5545 1.8337 1.8602 1.1659 1.0855 3.53 3.1449 0.70208 0.64766 1.1349 1.1461 0.83862 1.0293 0.38741 0.58933 0.3189 0.6348 0.1895 0.58209 0.073226 0.44492-0.02851 0.82928-0.30359 1.068-0.52719 1.0235-0.51822 0.75309-0.88273 1.0368-0.89517 0.87547-0.6297 0.55326-1.2771 1.0177-1.6363 1.1653-1.2729 0.81767-1.5466 0.90433-1.581 0.83652-1.3313 0.63252-1.046 0.44381-0.94256 0.35018-0.37214 0.088745-0.40396 0.2207-0.40259 0.29066-1.3958 1.1677-1.3926 1.3139-1.9154 1.922-0.70785 0.77425-0.66962 0.80311-1.4168 1.8678-2.2076 2.7866-0.82736 1.2012-0.59107 1.0704-0.55003 1.2106-1.0235 2.4716-0.82882 1.6587-0.51347 0.89804-1.4152 2.1974-1.0806 1.4714-0.59434 0.72552-0.58547 0.64936-0.61808 0.60987-0.73923 0.62343-0.5235 0.37513-1.3553 0.79964-2.3562 1.1762-1.3801 0.76877-0.75373 0.48903-0.71496 0.53018-0.6743 0.58174-0.61398 0.62684-1.5559 1.9499-0.69262 0.75284-2.2574 2.1744-1.0449 1.1213-0.48301 0.65571-0.30683 0.57046-0.12348 0.45858 0.058224 0.154-0.40381 1.7506-0.43422 2.3231-0.28238 0.80497-0.20089 0.38071-0.47558 0.66144-1.8782 1.9773-0.8525 1.0163-0.67391 0.99305-0.42169 0.8104-0.16207 0.41755-0.13956 0.52342-0.06251 0.47729-0.004008 0.70746 0.10014 1.4844 0.007357 0.56698-0.065254 1.2616-0.21928 2.4869-0.020594 1.0306 0.069858 1.9626-0.027649 0.51249-0.058755 0.39788-0.097782 0.38407-0.13252 0.34398-0.22958 0.40899-0.27748 0.36695-0.29874 0.31771-0.28718 0.25539-0.35457 0.23005-3.1781-3.4336-0.90538-0.87735-0.89929-0.78554-0.67254-0.52547-0.70655-0.48976-0.90885-0.53504-0.82979-0.39856-0.67918-0.26239-1.2486-0.33944-1.2538-0.21538-2.7833-0.36521-1.5096-0.14825-1.4783-0.007948-1.4256 0.18598-2.735 0.59436-1.4565 0.23278-0.55982 0.04434-0.60398-3.6e-4 -0.7758-0.090582-0.75244-0.17841-0.52157-0.16909-1.6549-0.67161-0.37859-0.18084-1.0406-0.59042-0.90972-0.61865-1.2697-1.0077-0.59974-0.53802-0.91772-0.98554-0.80524-1.1008-0.52047-0.91182-0.41122-0.95811-0.19863-0.64085-0.25412-1.2496-0.41085-3.0508-0.12486-0.61722-0.1378-0.52228-0.37895-0.98629-0.43684-0.74626-0.423-0.57339-1.6111-1.9585-0.4954-0.77363-0.1871-0.37109-0.34012-0.86406-0.28907-1.0261-0.23528-1.182-0.44433-2.6692-0.28369-1.1103-0.15677-0.40633-0.38707-0.72333-0.49444-0.68741-0.74694-0.83164-1.2355-1.1337-2.3894-2.0176-1.3329-1.0812-1.1444-0.85848-1.6018-1.1217-1.2581-0.82234-0.97036-0.56859-1.0789-0.55213-1.4564-0.62257-8.3821-2.9706-2.2975-0.92476-1.6103-0.7905-1.1211-0.63079-2.6825-1.5933-1.9151-1.0127-1.4118-0.66962-1.4602-0.58011-1.5108-0.43805-0.74975-0.14635-1.0023-0.13747-4.1332-0.34943-1.2215-0.15062-1.7581-0.32872-1.3105-0.36554-1.641-0.61983-1.0967-0.50956-0.96891-0.51248-1.0601-0.61681-2.2331-1.4045-1.0289-0.60973-0.59597-0.27523-0.29825-0.085467-0.45738 0.021984-0.073064 0.038088-0.15413 0.1772-0.046656 0.17293 0.039073 0.35046 0.24722 0.64856 0.69972 1.4724 0.43032 1.1229 0.17864 0.57739 0.25037 1.0161 0.23983 1.511 0.097473 1.4517-0.02348 1.1868-0.16402 1.5138-0.15178 0.80337-0.24651 0.97031-0.51636 1.4952-0.59191 1.3323-0.39249 0.77255-0.56672 1.0056-0.6147 0.97612-1.2671 1.7578-1.5206 1.8695-1.4533 1.6517-1.5965 1.6572-1.1-1.2139-1.2871-1.3514-3.352-3.3833-2.2265-2.126-2.4872-2.2196-1.9608-1.6349-4.3825-3.3953-1.5065-1.2452-2.2139-1.9298-7.7991-6.9722-2.6464-2.2709-1.7308-1.3516-1.2902-0.93904-1.6556-1.1253-1.077-0.67569 0.073199-0.11937 0.48476-1.5301 3.0219-10.341 1.8668-6.5914 1.5277-5.7123 0.41321-1.2922 0.82246-2.0043 0.90096-1.8764 0.52971-0.90297 0.63823-0.82335 0.73956-0.70495 0.83408-0.56214 0.98463-0.43076 1.0765-0.3312 2.4362-0.59623 1.122-0.21798 1.2219-0.1919 2.0163-0.19534 1.0214-0.030305 0.95373 0.020784 0.97996 0.060586 1.2541 0.13385 2.3169 0.3909 1.1135 0.13571 1.5645 0.061304 1.7035-0.065176 1.7824-0.19752 1.0606-0.17499 1.6124-0.32735 2.4762-0.60868 2.3877-0.72792 0.95983-0.35165 1.1309-0.49616 0.76223-0.39034 1.1098-0.6395 1.0973-0.69568 1.6352-1.1129 1.5873-1.1722 0.88636-0.70642 1.1721-1.0297 0.68547-0.67468 0.64064-0.70273 0.9357-1.2304 0.7091-1.215 0.59027-1.2744 0.50498-1.3088 0.79289-2.4384 0.28161-1.1319 0.21718-1.4288 0.077172-1.0004 0.031569-1.0115-0.01157-1.3752-0.23914-5.7872-0.16698-1.6875-0.31581-1.4156-0.44567-1.418-0.55916-1.5202-1.8671-4.5189-0.50427-1.1856-0.48902-1.0377-0.51369-0.93731-0.68653-1.0572-0.80347-1.0571-1.7578-2.1653-0.57975-0.87654-0.56862-1.1002-0.45423-1.3056-0.2115-1.1278-0.062276-1.5496 0.027177-0.57281 0.056482-0.63635 0.2413-1.3755 0.38512-1.2083 0.54194-1.131 0.99441-1.45 1.0201-1.1272 1.1584-1.0825 2.6321-2.25 0.88341-0.82484 1.4093-1.4921 0.90084-1.0944 0.91793-1.2508 0.86109-1.3204 0.80196-1.3719 0.65576-1.2737 0.44432-1.0184 0.34534-0.9849 0.12967-0.4645 0.15384-0.74993 0.054649-0.90133-0.20831-1.2019-0.31902-0.89489-0.5361-1.1051-0.43295-0.7396-2.025-3.0138-0.48614-0.81821-0.37641-0.74395-0.4139-1.1527-0.1715-1.054-0.031549-1.1105 0.0572-1.1679 0.096185-1.0862 0.15015-1.1199 0.37324-1.8362 0.51955-1.902 0.48653-1.5142 0.40369-1.1231 0.42548-1.0285 0.23652-0.48329 0.1368-0.18638 0.081506-0.39086 0.25966-0.48936 0.95575-1.5293 0.71031-1.044 1.2019-1.6672 3.3346-4.4794 1.4957-2.1339 0.88611-1.3609 0.78011-1.4077 0.32232-0.68521 0.31663-0.77781 0.20496-0.61333 0.19917-0.78586 0.10804-0.64229 0.072822-1.1141-0.045581-0.9576-0.081483-0.64483-0.28158-1.3297-0.30292-0.97712-0.26781-0.6801-0.28785-0.61606-0.61574-1.0877-1.8706-2.7884-1.0232-1.7304-0.32664-0.64614-0.38286-0.87321-0.30429-0.88036-0.13622-0.52807-0.1825-1.0595-0.07009-0.87377 0.00129-0.97039 0.089215-1.0031 0.19099-1.0424 0.23084-0.83161 0.326-0.73431 0.32481-0.45048 0.24324-0.2319 0.24614-0.1774 0.42275-0.21624 0.32346-0.11751 1.0672-0.2464 1.4099-0.14285 1.8347-0.02264 2.9249 0.10093 1.1113 0.005158 1.3482-0.052734 2.0335-0.14152 0.62843 0.002348 0.56701 0.058369 0.41971 0.10325 0.49828 0.22986 0.25917 0.18573 0.36237 0.3534 0.49654 0.66789 0.32719 0.54154 0.36741 0.71545 0.29473 0.72013 0.30259 0.99294 0.40145 1.5145 0.27454 0.88226 0.24778 0.65255 0.23588 0.51001 0.3705 0.62907 0.53186 0.7012 0.60022 0.65942 0.56092 0.4536 0.45364 0.24283 0.45063 0.15274 0.56166 0.096516 0.48058 0.022904 0.56892-0.029061 0.88948-0.14539 0.85885-0.26203 0.20152-0.10838 0.17468-0.16465" stroke="#bdc660"/>
    </defs>
    <g clip-path="url(#p4452496ecf)">
     <use y="280.512" fill="#bdc660" stroke="#bdc660" xlink:href="#m2926d35251"/>
    </g>
   </g>
  </g>
 </g>
 <defs>
  <clipPath id="p4452496ecf">
   <rect x="7.2" y="7.2" width="241.66" height="266.11"/>
  </clipPath>
 </defs>
</svg>
