<?xml version="1.0" encoding="UTF-8"?>
<!DOCTYPE svg  PUBLIC '-//W3C//DTD SVG 1.1//EN'  'http://www.w3.org/Graphics/SVG/1.1/DTD/svg11.dtd'>
<svg width="253.96pt" height="280.51pt" version="1.1" viewBox="0 0 253.96 280.51" xmlns="http://www.w3.org/2000/svg" xmlns:xlink="http://www.w3.org/1999/xlink">
 <metadata>
  <rdf:RDF xmlns:cc="http://creativecommons.org/ns#" xmlns:dc="http://purl.org/dc/elements/1.1/" xmlns:rdf="http://www.w3.org/1999/02/22-rdf-syntax-ns#">
   <cc:Work>
    <dc:type rdf:resource="http://purl.org/dc/dcmitype/StillImage"/>
    <dc:date>2024-07-04T12:08:59.763547</dc:date>
    <dc:format>image/svg+xml</dc:format>
    <dc:creator>
     <cc:Agent>
      <dc:title>Matplotlib v3.7.1, https://matplotlib.org/</dc:title>
     </cc:Agent>
    </dc:creator>
   </cc:Work>
  </rdf:RDF>
 </metadata>
 <defs>
  <style type="text/css">*{stroke-linejoin: round; stroke-linecap: butt}</style>
 </defs>
 <g id="figure_1">
  <g id="patch_1">
   <path d="m0 280.51h253.96v-280.51h-253.96v280.51z" fill="none"/>
  </g>
  <g id="axes_1">
   <g id="PatchCollection_1">
    <defs>
     <path id="mf4c9bec4eb" d="m126.55-259.54 0.11031 0.11276 0.024605 0.14355-0.10252 0.40079-0.36661 0.66486-0.74918 0.94896-0.99646 1.0147-3.725 3.223-0.96487 0.94067-0.93144 1.078-0.22482 0.30825-0.65353 1.0922-0.28324 0.6197-0.26482 0.75266-0.21456 0.93855-0.1022 1.2233 0.026335 0.709 0.15647 1.225 0.27672 1.2383 0.27486 0.91547 0.33038 0.90435 0.34028 0.79076 0.54608 1.0587 0.65244 1.0009 0.62419 0.76429 1.1461 1.1461 1.3019 1.0939 0.80931 0.61154 1.7764 1.2209 1.7169 1.0888 4.4025 2.6798 1.9304 1.2602 1.0635 0.75128 0.96949 0.74193 0.91688 0.76886 1.2692 1.1623 1.2668 1.2228 2.528 2.5461 1.8316 1.9961 1.5853 1.92 3.979 5.1549 0.5452 0.7908 0.60614 0.99761 0.27168 0.52239 0.47872 1.1718 0.28793 1.0154 0.18102 0.90314 0.44986 3.0242 0.59074 2.9389 0.72794 3.0569 0.36722 1.1923 0.23936 0.62219 0.3386 0.73746 0.54884 0.96683 0.727 1.0082 0.73719 0.82582 0.98018 0.89875 0.96408 0.7304 1.1155 0.7104 1.2654 0.68073 1.299 0.60743 1.3665 0.53784 1.6104 0.53958 2.5084 0.73878 1.3579 0.34211 10.555 2.1931 2.6723 0.60051 1.0205 0.2645 1.5772 0.4727 1.3795 0.49975 0.84568 0.34762 1.6263 0.74771 1.8691 0.96477 1.3171 0.73436 1.4582 0.86521 2.142 1.4026 2.3721 1.6756 1.4483 0.96941 4.5327 2.8467 1.0023 0.56589 0.86921 0.44012 1.0954 0.48572 1.985 0.65504 0.8218 0.17497 1.4438 0.15443 1.4463-0.027995 1.4263-0.20308 1.3818-0.37976 1.3574-0.56601 0.95394-0.48152 0.93464-0.52761 2.4855-1.5431 0.94885-0.51439 0.9986-0.43043 1.3725-0.39683 1.6793-0.27303 1.0322-0.073522 1.3927 0.013967 0.85328 0.067264 1.8533 0.29334 1.1688 0.27803 1.1296 0.33118 1.0951 0.38214 1.2327 0.51472 0.50021 0.25908 0.19521 0.16848-0.35424 0.32028-5.6333 4.2873-3.529 2.7892-1.7428 1.4376-1.6942 1.4574-1.6261 1.4802-1.5387 1.512-1.4298 1.5585-1.2952 1.6252-1.183 1.7748-1.0491 1.8453-0.95128 1.8938-0.88066 1.9264-1.625 3.9092-2.2608 5.9207-3.6316 9.9197-2.8791 7.6703-1.2306 2.9916-1.9485 4.3946-0.36836 1.04-0.28076 1.3162-0.074909 1.2961 0.057815 0.79456 0.14224 0.75421 0.37768 1.0158 0.35744 0.5648 0.45768 0.47607 0.74997 0.46689 0.69271 0.25815 0.77114 0.17829 0.88317 0.11321 0.94388 0.048681 1.3357-0.017098 1.4035-0.091826 1.6324-0.16953 7.7962-1.1025 1.9238-0.2338 1.869-0.16147 1.7853-0.052064 1.6653 0.10434 1.4987 0.32116 1.2718 0.61586 1.0136 0.9994 0.44622 0.68494 0.38259 0.76394 0.53412 1.4604 0.40823 1.6075 0.27738 1.5315 0.20174 1.5964 0.10271 1.2351 0.05901 1.2564 0.011603 1.3558-0.045871 1.3691-0.093218 1.2274-0.1905 1.62-0.59438 4.0239-0.20666 1.6642-0.5714 5.3476-0.319 2.2244-0.21124 1.179-0.4019 1.8164-0.37311 1.3606-0.42792 1.3526-0.51545 1.4562-0.55652 1.4364-1.3476 3.1245-0.72435 1.5412-1.7004 3.4343-1.3024 0.40618-1.2604 0.25076-5.1363 0.55378-1.1885 0.020299-0.78802-0.031045-3.5859-0.29408-1.4185-0.065312-1.3274-0.010333-1.8523 0.12649-5.6476 0.712-0.95702 0.052469-0.64588-0.0328-0.80575-0.15904-0.83524-0.32369-1.8743-1.0181-4.0696-2.3259-1.3407-0.62724-1.3866-0.49065-0.95086-0.23898-4.0682-0.86119-1.189-0.19269-1.7807-0.20675-1.314-0.2059-0.58227-0.039679-0.32904 0.023282-0.48849 0.12488-0.33657 0.14554-1.9725 1.1306-0.43572 0.31707-0.54522 0.49274-0.68081 0.81522-1.107 1.6428-0.57288 0.76028-0.84756 0.89034-0.74584 0.65174-1.0941 0.80579-1.9488 1.2001-1.6577 1.0943-0.69569 0.51455-1.0348 0.84857-0.90006 0.85986-0.31917 0.3712-0.40227 0.57141-0.43535 0.8689-0.46584 1.5547-0.25536 1.6887-0.077717 1.0341-0.035607 1.0731 0.019187 1.8225 0.054883 1.2049 0.17947 2.3498 0.26154 2.343 0.1669 1.1932 0.33014 1.9058 0.39415 1.6271 0.29733 0.86424 0.73379 1.4256 0.7644 0.94897 0.52591 0.23924-0.26899 0.31068-0.55297 0.39-0.75954 0.43438-0.3746 0.18571-1.4688 0.5873-1.3744 0.41762-2.8224 0.69805-0.84333 0.24122-1.3761 0.54281-1.461 0.69278-1.3254 0.6978-2.511 1.4785-1.8508 0.99209-0.76031 0.3603-1.4486 0.60867-1.0419 0.37714-1.0453 0.3262-1.4256 0.35215-1.4009 0.22108-1.3581 0.060239-0.81449-0.059854-0.94494-0.1894-0.6283-0.21774-1.3526-0.77562-1.238-1.0603-1.1658-1.2389-2.0858-2.4639-0.97212-1.0957-1.0072-1.008-1.0625-0.86968-1.1401-0.67517-0.61279-0.25148-0.91244-0.27646-2.1698-0.43865-2.2089-0.31645-3.6099-0.34851-1.0544-0.12968-1.0562-0.16941-1.0692-0.22149-1.2831-0.35261-0.59552-0.21108-0.61001-0.2724-0.61445-0.38069-0.37988-0.34561-0.25283-0.34134-0.17161-0.38432-0.083782-0.45127 0.012505-0.51431 0.083955-0.47644 0.32539-0.99077 0.6241-1.2907 0.81799-1.3747 0.87264-1.3077 2.6572-3.7608 1.2531-1.9736 0.62577-1.2457 0.25431-0.73167 0.10736-0.7166-0.10469-0.59811-0.57484-0.67727-0.98718-0.48202-1.295-0.33901-1.5216-0.23717-1.6859-0.16774-2.6698-0.17122-2.5542-0.087448-3.7658-0.026813-3.8355 0.066216-9.8386 0.42952-4.2632 0.23849-2.1083 0.17067-2.0794 0.23258-2.0346 0.32472-1.967 0.45782-1.8677 0.64564-1.7248 0.90487-1.5117 1.1921-1.3626 1.449-1.2437 1.64-1.3142 2.0505-0.65017 1.1222-1.188 2.2221-2.1499 4.4671-0.39563 1.0084-0.11409 0.39622-1.382-0.33999-1.8138-0.59058-0.84429-0.3717-1.2696-0.71473-0.30728-0.14174-0.45113-0.13002-0.45063-0.00638-0.24587 0.062223-0.28575 0.14558-0.20498 0.15877-0.73682 0.71516-0.39348 0.19184-0.16247 0.028979-0.28951-0.008406-1.0208-0.22998-1.0607 0.038417-0.50527-0.026991-0.37708-0.08744-0.34043-0.12516-1.3504-0.65786-0.80883-0.33973-0.9408-0.24977-1.3618-0.18274-0.64952-0.12727-0.7036-0.22274-1.5487-0.67894-0.41146-0.10363-0.12626-0.34031-0.50375-0.81168-3.645-5.3169-1.1891-1.8302-1.1564-1.9784-0.69685-1.3204-1.2748-2.6413-1.026-2.3328-0.22276-0.62413-0.29908-1.1409-0.11542-0.75877-0.036403-0.60922 0.08982-1.2924 0.19572-1.0322 1.1551-4.3245 0.17518-0.90063 0.58177-3.616 0.3757-2.0479 0.37046-1.7269 0.66206-2.629 1.2726-4.1132 1.9205-6.6606 0.54596-1.7205 0.99178-2.6124 1.7706-4.3804 0.47999-1.4286 0.22111-0.92134 0.19086-1.3671 0.18472-2.4682 0.16557-1.2831 0.66295-3.8615 0.16841-1.2069 0.14089-1.6045 0.015364-1.6005-0.14553-1.615-0.30656-1.5676-0.1093-0.41235-0.54721-1.7505-0.46842-1.311-1.9591-5.1623-2.4839-6.3335-1.5924-4.2723-0.55299-1.2883-0.8576-1.7215-0.96965-1.706-1.059-1.6983-1.1303-1.6968-1.1871-1.6997-2.4965-3.4141-2.6831-3.5402-5.6736-7.2255-0.47951-0.75571-0.067241-0.35198 0.45554-0.29621 0.85373-0.67307 1.2576-1.0936 1.7782-1.7376 1.4978-1.6185 1.0339-1.1761 1.0102-1.2042 1.5381-2.001 1.0796-1.625 0.84752-1.5303 0.63785-1.439 0.56412-1.7207 0.37201-1.6427 0.16871-1.0547 0.18082-1.7236 0.072317-1.4374 0.008029-1.396-0.11298-2.3739-0.0895-0.88759-0.22633-1.5123-0.49572-2.573-0.2841-1.2039-0.38392-1.1836-0.52479-1.1305-0.69212-1.0524-0.65077-0.80277-0.6484-0.72146-2.2305-2.2864-0.39047-0.46608-0.77186-1.2129-0.50814-1.3128-0.19012-1.3589 0.13326-1.1701 0.39108-1.1266 0.31405-0.58926 0.59628-0.89376 1.278-1.6811 0.69988-1.0036 0.5967-1.0722 0.38345-0.99686 0.30374-1.4383 0.093887-1.5031-0.073026-1.5279-0.33068-2.597-0.1085-1.3098 0.055565-1.7125 0.27207-1.7027 0.47131-1.6427 0.66934-1.5252 0.88275-1.339 0.43098-0.4815 0.44985-0.43564 6.084-5.3236 1.3172-1.0579 4.0235-3.0153 1.1835-0.94511 2.3011-1.9245 0.87394-0.8147 0.59312-0.65396 0.16503-0.33632 0.091848 0.1244 0.34644 0.32413 1.2617 0.99452 1.5348 1.0576 1.7914 1.114 1.494 0.83497 1.4995 0.76223 1.7809 0.83457 1.6675 0.71442 1.5789 0.6032 2.0604 0.66275 2.2454 0.59158 1.2209 0.26191 1.3638 0.21591 1.0997 0.08595 1.0268-0.028236 0.73028-0.11195 0.71846-0.21359 0.67758-0.33183 0.53331-0.38956 0.52263-0.52158 0.61421-0.82952 0.59358-1.0766 0.66466-1.6192 1.1059-3.4772 1.4995-4.2201 0.31532-0.74025 0.4095-0.82555 0.49828-0.85366 0.47625-0.70488 0.44496-0.58978 0.72147-0.85884 0.88867-0.94159 1.6099-1.5006 1.2147-1.0078 0.88923-0.65685 0.70788-0.45751 0.53304-0.29998 1.1351-0.56044 1.3818-0.6188 1.4374-0.53962 1.0696-0.30751 1.0918-0.2488 2.3316-0.43637 1.2459-0.27272 3.5032-0.94592 2.2007-0.68314 4.661-1.5862 1.4484-0.43255 1.5043-0.38461 6.5991-1.4973 1.2893-0.22149 0.80695-0.087406 1.2235-0.036411 1.1028 0.074894 1.3259 0.25405 3.8731 1.033 1.3457 0.30004 0.24788 0.015677" stroke="#bdc660"/>
    </defs>
    <g clip-path="url(#p4eef2d04a6)">
     <use y="280.512" fill="#bdc660" stroke="#bdc660" xlink:href="#mf4c9bec4eb"/>
    </g>
   </g>
  </g>
 </g>
 <defs>
  <clipPath id="p4eef2d04a6">
   <rect x="7.2" y="7.2" width="239.56" height="266.11"/>
  </clipPath>
 </defs>
</svg>
