<?xml version="1.0" encoding="UTF-8"?>
<!DOCTYPE svg  PUBLIC '-//W3C//DTD SVG 1.1//EN'  'http://www.w3.org/Graphics/SVG/1.1/DTD/svg11.dtd'>
<svg width="371.52pt" height="276.61pt" version="1.1" viewBox="0 0 371.52 276.61" xmlns="http://www.w3.org/2000/svg" xmlns:xlink="http://www.w3.org/1999/xlink">
 <metadata>
  <rdf:RDF xmlns:cc="http://creativecommons.org/ns#" xmlns:dc="http://purl.org/dc/elements/1.1/" xmlns:rdf="http://www.w3.org/1999/02/22-rdf-syntax-ns#">
   <cc:Work>
    <dc:type rdf:resource="http://purl.org/dc/dcmitype/StillImage"/>
    <dc:date>2024-07-04T12:08:54.961395</dc:date>
    <dc:format>image/svg+xml</dc:format>
    <dc:creator>
     <cc:Agent>
      <dc:title>Matplotlib v3.7.1, https://matplotlib.org/</dc:title>
     </cc:Agent>
    </dc:creator>
   </cc:Work>
  </rdf:RDF>
 </metadata>
 <defs>
  <style type="text/css">*{stroke-linejoin: round; stroke-linecap: butt}</style>
 </defs>
 <g id="figure_1">
  <g id="patch_1">
   <path d="m0 276.61h371.52v-276.61h-371.52v276.61z" fill="none"/>
  </g>
  <g id="axes_1">
   <g id="PatchCollection_1">
    <defs>
     <path id="mf1c582127e" d="m88.685-256.03 0.28264 0.10382 0.70939 0.42866 3.5908 2.451 4.1213 3.053 3.7553 3.0067 3.5448 3.0901 7.4259 6.8966 2.032 1.7562 1.4144 1.1306 3.7487 2.829 1.3229 1.1744 2.7684 2.69 1.5081 1.3906 1.5457 1.2407 1.6014 1.048 1.8567 1.0246 1.94 0.75127 1.7443 0.33435 1.7205 0.090416 1.881-0.14192 1.8146-0.29444 1.3628-0.28793 2.09-0.54348 6.7227-2.2448 3.108-0.82532 1.5594-0.31819 2.2765-0.35152 2.3531-0.22825 2.3375-0.1005 2.7816 0.027351 6.1369 0.34318 3.428 0.061228 2.6566-0.11588 5.6236-0.51787 2.1925-0.013727 2.1089 0.21694 1.8699 0.37637 1.7977 0.49623 4.3389 1.4162 1.7354 0.47478 2.0121 0.35532 2.2026 0.21987 5.1682 0.22044 5.4366 0.082175 12.544-0.022633 3.3795-0.11865 2.3382-0.1905 3.836-0.51132 2.7556-0.48872 5.5695-1.2098 12.115-3.0768 2.5635-0.7114 2.2857-0.74515 1.7051-0.67757 2.1081-0.98934-0.35472 0.22484-0.35512 0.71535-0.23785 1.003-0.076528 0.95531 0.047302 0.9584 0.2301 1.1494 0.32017 0.86859 0.44441 0.8217 0.97508 1.2056 1.2239 1.0514 1.4009 0.92797 1.4496 0.80195 1.5115 0.74322 4.1631 1.8509 2.8633 1.1273 1.3833 0.45819 1.1507 0.30838 1.1208 0.21251 1.2079 0.093908 1.1623-0.10297 1.2096-0.37391 1.1707-0.59916 1.3862-0.93653 4.0638-3.1494 1.6229-1.1475 2.8103-1.7884 2.3832-1.38 2.0978-1.0651 9.2031-4.4353 5.7515-2.8481 1.7994-0.85061 2.4624-1.0534 1.8362-0.69554 3.3866-1.0845 2.1781-0.57298 1.7225-0.37459 4.9752-0.78067 11.718-1.4528 2.2999-0.41504 0.84523-0.19157-0.042128 0.061693 9.66e-4 0.47034 0.23687 0.85885 0.74355 2.1439 0.19798 0.84493 0.088392 0.68398 0.007987 0.92492-0.13902 1.0398-0.28028 0.99893-0.31798 0.78236-0.631 1.2226-1.1859 2.088-1.107 1.7611-0.82462 1.0882-0.68898 0.7571-0.95702 0.89148-3.9914 3.4448-0.78917 0.863-1.4407 1.7967-0.5394 0.54333-0.74293 0.55581-1.6516 0.98721-0.55389 0.51816-1.0732 1.3229-0.43178 0.57052-0.44593 0.73999-1.1928 2.7228-0.69939 1.3932-1.5042 2.6471-1.6865 2.7824-0.35812 0.77168-0.074268 0.24608 0.022661 0.2028 0.073817 0.13851 0.026319 0.23985-0.032166 1.2525-0.17379 2.118-0.29553 2.424-0.49928 2.8035-1.2468 5.9332-0.25688 1.5602-0.22643 1.8795-0.090329 1.2695-0.016386 2.1438 0.088051 1.4615 0.23804 2.0774 0.40608 2.1703 0.24833 0.99805 0.42129 1.4137 0.64717 1.759 0.5785 1.3105 0.73412 1.4561 3.8755 6.8025 1.1882 2.5853 0.66223 1.8633 0.43714 1.5675 0.37544 2.0468 0.11382 1.2568-0.022889 1.71-0.4352 2.3634-0.79691 2.3414-1.0202 2.3235-2.231 4.6006-1.2108 2.6929-0.79284 1.9488-0.48143 1.372-0.37885 1.3428-0.33742 2.2889 0.11314 2.0001 0.43771 2.0192 0.8953 1.8311 1.0378 1.1532 1.322 1.0329 1.8877 1.1467 7.4292 3.7407 2.3491 1.3676 2.0867 1.5278 1.6759 1.7555 0.81847 1.3175 0.62209 1.4178 0.70296 2.2538 1.2404 4.7323 0.34854 1.73 0.27116 1.6793 0.45349 3.5529 0.37081 3.5559 0.27711 3.5382 0.10696 2.1529 0.055185 3.8496-0.052364 2.3654-0.23198 4.0208-0.31826 3.4524-0.32903 2.6979-0.34751 2.0557-0.46258 2.0105-0.59482 1.9421-0.82229 2.0327-0.86521 1.7076-1.0335 1.681-2.7841 3.7903-1.0027 1.592-0.84178 1.7941-0.72945 2.3651-0.48556 1.2575-0.64599 1.0828-1.4379 1.7654-0.67737-0.021943-4.1425-0.47265-14.42-1.8469-6.8004-0.78794-4.6305-0.43914-8.9958-0.69483-6.1739-0.6349-1.8759-0.11998-1.8993-0.038807-1.8805 0.051159-1.8715 0.1389-1.7412 0.20803-1.7289 0.28125-2.1945 0.46486-1.9065 0.50123-1.6518 0.50378-3.4077 1.2262-8.0082 3.3012-4.1445 1.4661-12.577 3.7948-12.697 3.9854-6.4867 1.8651-7.8702 2.0591-4.5852 1.2603-13.143 3.9339-3.3848 0.95432-3.4411 0.8848-3.502 0.77477-2.1051 0.38954-3.2451 0.49443-3.2526 0.39371-3.2158 0.31374-9.9626 0.75625-1.3682 0.20338-0.58156 0.31421 0.42876-0.57938 0.24034-1.3148 0.012594-1.5066-0.28572-2.1827-0.40459-1.5799-0.49195-1.3598-0.87981-1.7815-1.1111-1.6584-1.3128-1.5449-1.4686-1.4335-1.8727-1.5485-1.9807-1.3985-1.6592-1.0213-1.6865-0.91194-7.0525-3.1912-1.9964-1.1905-1.5116-1.2779-1.0187-1.1967-0.77032-1.3269-0.24201-0.60663-0.27359-0.94563-0.18549-0.97629-0.13694-1.2008-0.22902-5.6577-0.19463-1.7865-0.4171-1.8355-0.39703-1.2275-0.49901-1.2685-0.44654-0.97455-0.91598-1.6673-1.3092-1.8415-1.1699-1.249-1.6729-1.2856-1.5883-0.8056-1.6353-0.57668-1.9784-0.48563-2.3572-0.36483-1.5389-0.14476-1.9792-0.11325-2.9923-0.05893-3.319 0.041329-2.9889 0.11042-9.7424 0.6598-9.314 0.76987-2.7107 0.1171-4.9554 0.096456-3.0983 0.17852-2.7931 0.37985-2.2109 0.42423-7.3244 1.7364-1.7519 0.37446-1.583 0.26688-1.0691 0.10749-0.67272 0.011775-0.95385-0.14263-0.34081-0.3538 0.042827-0.61338 0.59272-3.646 0.31145-2.2649 0.55248-5.4528 0.5625-9.1991 0.37637-5.1498 0.1421-2.5225 0.051014-2.4824-0.089991-2.4393-0.24208-2.2596-0.31485-2.0247-0.39592-2.0026-0.48102-1.9741-0.62906-2.1348-1.4604-4.1598-1.6407-4.2322-1.2677-2.9088-1.4231-2.7603-2.8995-4.6064-3.6113-6.3396-1.559-2.5093-0.98366-1.4242-1.038-1.3807-4.0363-4.9261-1.5402-2.0511-0.7396-1.1227-0.66791-1.1391-1.0052-2.0073-0.95866-2.3762-0.58993-1.7491-0.58258-1.9707-0.82789-3.4408-1.0189-5.082-0.71553-2.9881-1.7957-6.7038-1.5007-4.6218-1.5288-3.9897-1.1624-2.5986-0.932-1.8516-1.3698-2.4488-0.82552-1.306-0.79405-1.0061-0.20566-0.17579-0.20114-0.043598-0.67-3.8045-0.4018-2.6948-0.36704-2.9492-0.28605-3.053-0.16403-3.0568 7.38e-4 -2.9924 0.21484-2.8778 0.32126-2.0931 1.244-6.4881 0.50033-1.978 0.68055-2.1218 0.86822-2.1784 0.75224-1.6431 2.0288-4.0434 1.2011-2.5641 2.1075-5.3913 0.70202-1.6731 0.6744-1.327 0.84514-1.3939 0.99592-1.5167 1.125-1.4246 1.0634-0.97178 0.58437-0.38359 0.85481-0.39821 0.65736-0.20822 0.84646-0.18226 3.2548-0.45058 3.5761-0.59676 1.3883-0.29798 3.9081-1.0018 1.2465-0.18353 0.79822-0.044505 1.5753 0.062806 3.7212 0.46172 2.7397 0.45942 0.82851 0.19151 1.8697 0.55878 5.7839 2.1623 1.2187 0.34683 2.0506 0.31173 1.6918-0.073987 1.9587-0.40482 1.9119-0.6391 3.8662-1.6439 1.8697-0.64324 0.68857-0.15361 0.49578-0.031828 0.42914 0.14307 0.11265 0.35425" stroke="#bdc660"/>
    </defs>
    <g clip-path="url(#pe9c00070ac)">
     <use y="276.607281" fill="#bdc660" stroke="#bdc660" xlink:href="#mf1c582127e"/>
    </g>
   </g>
  </g>
 </g>
 <defs>
  <clipPath id="pe9c00070ac">
   <rect x="7.2" y="7.2" width="357.12" height="262.21"/>
  </clipPath>
 </defs>
</svg>
