<?xml version="1.0" encoding="UTF-8"?>
<!DOCTYPE svg  PUBLIC '-//W3C//DTD SVG 1.1//EN'  'http://www.w3.org/Graphics/SVG/1.1/DTD/svg11.dtd'>
<svg width="256.77pt" height="280.51pt" version="1.1" viewBox="0 0 256.77 280.51" xmlns="http://www.w3.org/2000/svg" xmlns:xlink="http://www.w3.org/1999/xlink">
 <metadata>
  <rdf:RDF xmlns:cc="http://creativecommons.org/ns#" xmlns:dc="http://purl.org/dc/elements/1.1/" xmlns:rdf="http://www.w3.org/1999/02/22-rdf-syntax-ns#">
   <cc:Work>
    <dc:type rdf:resource="http://purl.org/dc/dcmitype/StillImage"/>
    <dc:date>2024-07-04T12:09:08.719954</dc:date>
    <dc:format>image/svg+xml</dc:format>
    <dc:creator>
     <cc:Agent>
      <dc:title>Matplotlib v3.7.1, https://matplotlib.org/</dc:title>
     </cc:Agent>
    </dc:creator>
   </cc:Work>
  </rdf:RDF>
 </metadata>
 <defs>
  <style type="text/css">*{stroke-linejoin: round; stroke-linecap: butt}</style>
 </defs>
 <g id="figure_1">
  <g id="patch_1">
   <path d="m0 280.51h256.77v-280.51h-256.77v280.51z" fill="none"/>
  </g>
  <g id="axes_1">
   <g id="PatchCollection_1">
    <defs>
     <path id="m58ef3c5e8d" d="m108.21-259.9 0.51193 0.15042 0.2869 0.79022 0.036605 1.1702-0.10448 1.0848-0.34087 2.6455-0.11668 1.5048-0.018527 1.564 0.058661 1.5256 0.24677 1.9447 0.26684 1.0711 0.38184 1.0228 0.66068 1.2078 0.67324 0.9383 0.80746 0.93367 1.0041 0.9889 1.5923 1.3311 1.7903 1.2717 0.92403 0.57908 1.1193 0.63242 1.7041 0.8417 1.4525 0.54849 1.4547 0.31444 0.84929 0.054204 0.85358-0.017887 1.3301-0.12108 1.225-0.21558 1.3428-0.29615 1.3709-0.39492 1.6721-0.66743 1.2133-0.59885 1.4159-0.81602 1.3203-0.91309 0.80862-0.64745 1.3655-1.2784 1.1908-1.3884 0.96558-1.4852 0.7122-1.5569 1.1444-3.0872 0.70807-1.3779 0.76727-0.9765 0.92171-0.80244 1.0461-0.59906 1.1454-0.35675 0.82748-0.086609 1.1729 0.056383 0.7029 0.10829 1.1879 0.29112 1.1293 0.3922 1.3477 0.5936 1.4967 0.84511 0.86164 0.58112 1.2549 0.96536 1.2482 1.106 1.2685 1.318 0.80909 0.99908 0.44019 0.6375 0.77211 1.464 0.28046 0.79617 0.19986 0.77874 0.54356 2.5998 0.43141 1.177 0.81836 1.64 2.5134 4.1946 1.0052 1.9579 0.64734 0.9487 0.81187 0.92834 0.9419 0.84845 1.1342 0.80446 3.5297 2.214 0.84808 0.64355 0.54984 0.54444 0.49522 0.60947 0.72597 1.1881 0.40483 0.97372 0.27168 1.3655-0.087466 1.2631-0.3197 1.2732-0.88383 2.4926-0.34538 1.1746-0.08793 0.47492 0.009268 1.2231 0.21378 0.7245 0.36179 0.70315 0.48659 0.67293 0.46836 0.51539 0.62367 0.57624 1.2316 0.90793 1.1846 0.68206 1.2612 0.5514 1.0535 0.32841 2.4645 0.62442 1.4092 0.31142 2.9954 0.52252 1.7349 0.44273 2.3149 0.65508 1.079 0.25959 4.5852 0.87573 1.6741 0.26212 1.6352 0.064775 1.6381-0.23838 1.2598-0.38618 1.2151-0.60857 3.0014-1.8808 3.1394-1.7199 1.3067-0.75472 2.6383-1.6213 1.2298-0.68561 1.7394-0.82144 0.34313-0.13506 0.54203-0.10775-0.10105 0.17632-0.15086 0.79311-0.1705 1.4503-0.13126 2.1626-0.028699 1.5811 0.029246 1.7373 0.21377 4.2667 0.084474 3.1202-0.045941 2.6331-0.092822 1.6267-0.15875 1.697-0.18395 1.404-0.38103 2.181-1.2158 5.3644-0.7175 3.4309-0.32253 1.9405-0.25355 2.0479-0.15936 1.9329-0.10204 2.0294-0.066864 3.2191 0.095243 2.9928 0.12249 1.5464 0.33869 2.577 0.41441 2.0695 0.54886 2.0318 0.42941 1.2819 0.48884 1.26 0.8922 1.9612 0.62886 1.2308 1.3032 2.341 3.5387 6.0109 0.8604 1.6178 0.56907 1.2372 0.65941 1.8492 0.30107 1.1698 0.17668 1.3478-0.078548 1.5935-0.25626 1.2872-0.47654 1.4949-0.49797 1.151-0.35993 0.69009-0.61323 1.0015-0.73672 1.0163-0.93258 1.1196-1.106 1.1848-0.96191 0.93842-1.1808 1.0439-1.6551 1.2786-2.6477 1.8631-1.207 0.96371-0.77237 0.71885-0.81334 0.89727-0.66207 0.88614-0.5407 0.87344-0.45114 0.88668-0.52436 1.3949-0.20851 0.86968-0.098019 0.828 0.037048 0.86573 0.21456 0.76147 0.36836 0.59349 0.50102 0.5015 0.22712 0.17776 0.79003 0.47646 0.85598 0.34232 0.91093 0.25949 2.3976 0.49251 2.1872 0.63876 0.90289 0.36725 0.71644 0.36284 0.47365 0.32556 0.41689 0.38362 0.4406 0.57178 1.7463 3.1389 0.39078 0.85124 0.14408 0.5784 0.046919 0.56261-0.20084 1.8216-0.022418 0.48522 0.030734 0.2658 0.18373 0.43233 0.10768 0.1268 0.55399 0.3672 0.66262 0.21939 0.52867 0.10106 0.92809 0.080755 0.76927-0.017395 0.88332-0.10768 1.0302-0.22893 0.91626-0.27979 2.6647-0.99601 0.66516-0.21444 0.83412-0.1898 0.46331-0.047339 0.48928 0.014241 0.27375 0.047238 0.97639 0.4955 0.76074 0.8879 0.50628 1.1567 0.19237 1.3149-0.2011 1.3711-0.52534 1.1649-0.63406 0.998-2.0964 2.9933-0.85044 1.3899-0.67945 1.3307-0.50689 1.4383-0.010699 0.961 0.46636 0.38438-0.16072 0.24742-0.12575 0.4186-0.18856 0.91907-0.60824 4.1826-0.42339 2.1226-0.2632 0.93856-0.31925 0.89857-0.67097 1.4255-1.4272 2.5946-0.51241 1.2656-0.19883 0.95932-0.033124 0.49368 0.097588 1.0425 0.1587 0.56329 0.3838 0.86228 0.50513 0.81213 0.60914 0.78439 1.0886 1.1467 0.77858 0.70513 3.5669 2.9252 1.4772 1.4177 0.96921 1.1081 0.36833 0.57932 0.16072 0.56323-0.043603 0.43415-0.16872 0.44709-0.39233 0.63894-0.56256 0.70765-1.3581 1.5491-0.69113 0.8702-0.4565 0.67691-0.41667 0.77854-0.26378 0.69946-0.16416 0.87037-0.010238 0.77042 0.41061 3.9154 0.005829 0.57488-0.083783 0.98193-0.20645 1.2396-0.31073 1.2915-0.42519 1.3084-0.55817 1.2884-0.7188 1.2274-0.91661 1.1199-1.324 1.1028-1.5693 0.93861-1.7485 0.8083-1.8616 0.70058-1.8985 0.60456-1.8351 0.5095-3.2632 0.80366-0.29046-0.39835-1.6601-2.8042-1.1538-1.8344-1.2809-1.889-1.371-1.829-1.4411-1.6778-1.5042-1.4451-1.5707-1.1299-1.4175-0.65271-0.93589-0.2314-0.59972-0.070041-0.64294-0.015885-1.229 0.11192-1.2619 0.27022-1.7544 0.57847-1.5952 0.68921-1.0502 0.5241-2.7426 1.527-5.0417 2.9208-2.5245 1.3578-1.2161 0.60022-1.1941 0.54519-1.6025 0.66086-1.3966 0.51056-2.3508 0.71536-1.9529 0.46303-1.7774 0.32724-1.7764 0.23723-2.1077 0.15491-2.2212-0.006115-1.7525-0.15885-1.6853-0.31599-1.6257-0.46569-1.551-0.60559-0.82628-0.39885-0.80992-0.45806-1.1945-0.82919-0.81075-0.68994-0.62902-0.62306-1.0639-1.2576-2.0663-2.941-0.75076-0.97742-0.99392-1.1879-1.5562-1.6888-3.141-3.1808-0.70519-0.79807-0.71286-0.95406-0.58781-0.96405-1.2823-2.5495-0.72744-1.0041-0.89908-0.8847-1.0665-0.7261-1.1718-0.51937-1.2283-0.27865-0.80132-0.033601-0.72068 0.067946-0.79676 0.16031-0.64536 0.18054-1.5256 0.54494-3.5958 1.5396-1.5352 0.58537-1.9794 0.61206-1.8262 0.39269-1.7813 0.22922-1.2639 0.066554-3.0162 0.07648-3.6888 0.3722-5.2375 0.3488-1.3491 0.1726-3.6885 0.57681-1.7228 0.30438-0.97773 0.21091-0.83911 0.22609-1.0681 0.34844-4.0817 1.517-1.5133 0.70782-2.9978 1.6014-1.57 0.67548-1.1339 0.41644-0.73746 0.22548-1.6058 0.34727-1.3912 0.13379-1.5656-0.040401-2.3937-0.23351-5.0841-0.67601-1.4837-0.12444-1.4749-0.061263-1.5422 0.007896-1.4099 0.053617-5.0899 0.40011-1.1327 0.031943-0.42274-0.041784-0.038762-0.052692-0.1298-0.028792-0.32313 0.01578-0.53102 0.097641-0.67856 0.19695-1.6865 0.68793-1.7852 0.8409-1.0279 0.53656-1.3226 0.77425-1.8361 1.2113-3.9014 2.6859-1.7071 1.0654-1.6111 0.91417-1.4451 0.71001-4.3022 1.8451-1.9358 0.88603-2.5315 1.3053-2.9811 1.6615-2.5942 1.271-2.6316 1.2001-1.9754 0.76714-1.4397 0.41835-0.94754 0.13539-0.8148-0.028987-0.6229-0.1372-0.27516-0.10095-0.68748-0.38313-0.63185-0.52656-0.55015-0.60633-0.2684-0.36171-0.28466-0.44299-0.43687-0.81676-0.62119-1.5197-0.29363-0.88742-0.62364-2.2883-0.44195-2.2978-0.33301-2.4524-0.10256-1.6749-0.017294-2.5841-0.102-1.9855-0.14889-1.3877-0.47133-3.5783-0.15-1.4638-0.071434-1.4469 0.10543-1.9607 0.23765-1.2593 0.56889-1.9389 0.62969-1.6261 0.73768-1.5867 0.81032-1.5285 1.1632-1.942 1.3292-2.0517 2.8181-4.1281 1.0979-1.426 1.8369-2.251 1.162-1.2615 1.1076-0.97758 1.5034-1.1269 3.4974-2.4239 1.5509-1.1348 2.058-1.6657 2.3874-2.1283 1.9787-1.9354 1.4531-1.5981 1.2867-1.5929 0.44931-0.62972 0.7793-1.2424 0.79887-1.5804 0.4293-1.0663 0.31401-0.92448 0.2479-0.85473 0.85421-3.6252 1.4877-5.5805 0.46375-1.9049 0.50044-2.5685 0.33284-2.1725 0.22395-2.4911 0.12012-2.6916-0.063039-1.2413-0.21026-1.0447-0.26432-0.70864-0.28532-0.55167-0.39104-0.59729-0.80508-0.93877-0.81973-0.73601-0.74132-0.56256-1.5157-0.97926-5.4114-3.0517-5.1607-3.1791-1.652-0.91888-2.0192-0.9759-1.5242-0.68914-5.3171-2.1696-1.4644-0.50125-0.9993-0.26523-1.8736-0.37641-1.6682-0.24318-0.35368-0.024819-0.28995 0.033229 0.38552-0.36257 1.1931-0.67498 4.0633-1.9676 3.0509-1.609 1.9538-1.1227 5.5512-3.3126 4.4489-2.5726 1.8325-1.1504 0.72003-0.53209 0.80718-0.76525 0.67306-0.85288 0.52251-0.9152 0.35684-0.91157 0.86152-2.8361 0.32427-0.83464 0.63885-1.1703 0.82392-1.1529 0.96054-1.1183 1.0559-1.0649 1.1157-0.99037 1.9301-1.5169 1.3178-0.88474 2.712-1.4377 1.7194-0.96246 1.068-0.71056 0.5834-0.48274 0.34375-0.33904 0.90148-1.1436 0.78311-1.1811 0.77361-1.2938 3.0928-5.6887 0.42928-0.87958 0.171-0.42808 0.20232-0.6885 0.099125-1.0693-0.16648-0.93055-0.37777-0.89897-0.43331-0.70499-0.73609-0.9756-0.88408-0.98702-1.0161-0.96749-1.1485-0.93765-3.8758-2.8045-2.3965-1.8534-1.0203-0.8296-0.9456-0.85547-0.88289-0.95952-0.7709-1.0899-1.926-3.3256-1.329-2.6265-1.0149-1.7258-0.40562-0.75782-0.32148-0.76623-0.193-0.72493-0.057974-0.47292 0.16814-1.4377 0.13304-0.3944 0.32071-0.70115 0.41946-0.704 0.84774-1.1131 1.467-1.5155 1.4744-1.3135 1.5479-1.2798 2.8183-2.2098 0.31084-0.30594 0.30426-0.21317 0.54054-0.60386 0.67046-0.8675 0.60288-0.8693 2.833-4.5743 1.6755-2.5206 0.73048-0.97461 0.77466-0.87232 0.75828-0.69411 1.5648-1.3256 0.90005-0.91294 0.86611-1.0075 3.3388-4.2748 0.85218-0.97442 1.4118-1.4703 0.64934-0.77419 0.55114-0.81994 0.4982-0.89201 2.0484-4.3394 3.1357-6.3592 0.68491-1.287 0.9895-1.5779 0.72536-0.95104 0.7791-0.84834 0.83656-0.72081 0.68634-0.45971 0.71831-0.41202 0.992-0.53048 1.5499-0.75627 2.5959-1.0855 0.74162-0.35706 0.73006-0.38422 1.2447-0.73312 1.1556-0.84233 2.2586-1.7633 1.209-0.72098 0.53655-0.23629 1.1839-0.37188 1.2059-0.17821 1.1706 0.041741 0.57815 0.11305 1.0016 0.34749 0.66916 0.35403 0.33711 0.25119 0.14422 0.21265" stroke="#bdc660"/>
    </defs>
    <g clip-path="url(#p9440e4c844)">
     <use y="280.512" fill="#bdc660" stroke="#bdc660" xlink:href="#m58ef3c5e8d"/>
    </g>
   </g>
  </g>
 </g>
 <defs>
  <clipPath id="p9440e4c844">
   <rect x="7.2" y="7.2" width="242.37" height="266.11"/>
  </clipPath>
 </defs>
</svg>
