<?xml version="1.0" encoding="UTF-8"?>
<!DOCTYPE svg  PUBLIC '-//W3C//DTD SVG 1.1//EN'  'http://www.w3.org/Graphics/SVG/1.1/DTD/svg11.dtd'>
<svg width="327.1pt" height="280.51pt" version="1.1" viewBox="0 0 327.1 280.51" xmlns="http://www.w3.org/2000/svg" xmlns:xlink="http://www.w3.org/1999/xlink">
 <metadata>
  <rdf:RDF xmlns:cc="http://creativecommons.org/ns#" xmlns:dc="http://purl.org/dc/elements/1.1/" xmlns:rdf="http://www.w3.org/1999/02/22-rdf-syntax-ns#">
   <cc:Work>
    <dc:type rdf:resource="http://purl.org/dc/dcmitype/StillImage"/>
    <dc:date>2024-07-04T12:09:01.640927</dc:date>
    <dc:format>image/svg+xml</dc:format>
    <dc:creator>
     <cc:Agent>
      <dc:title>Matplotlib v3.7.1, https://matplotlib.org/</dc:title>
     </cc:Agent>
    </dc:creator>
   </cc:Work>
  </rdf:RDF>
 </metadata>
 <defs>
  <style type="text/css">*{stroke-linejoin: round; stroke-linecap: butt}</style>
 </defs>
 <g id="figure_1">
  <g id="patch_1">
   <path d="m0 280.51h327.1v-280.51h-327.1v280.51z" fill="none"/>
  </g>
  <g id="axes_1">
   <g id="PatchCollection_1">
    <defs>
     <path id="m84fffefebf" d="m284.16-240.37 7.4052-4.0786 1.5385-0.77855 1.5452-0.71502 1.2322-0.50191 1.5738-0.51936 0.77566-0.19129 1.0676-0.17716 1.0155-0.054202 0.75525 0.052916 0.85565 0.18832 1.3216 0.67351 0.75824 0.64944 0.63463 0.74954 0.38557 0.60114 0.30293 0.61742 0.30141 0.98336 0.057132 0.95209-0.23437 0.83665-0.3189 0.4468-0.31366 0.28314-0.46382 0.29384-0.42878 0.20023-0.71053 0.24252-0.81653 0.18547-2.5975 0.47877-2.3395 0.5108-2.5386 0.70244-1.7105 0.64046-1.6507 0.77308-1.5521 0.87043-5.3815 3.5298-0.69029 0.35784-0.73307 0.27502-0.91836 0.17834-0.39744 0.033707-3.3803 0.02691-1.2096 0.19766-1.2035 0.36465-1.1507 0.52558-0.3654 0.21267-1.0704 0.81244-0.91092 0.99954-0.70764 1.1559-0.45073 1.2893-0.13584 0.9467-0.01834 0.85401 0.04041 0.71349 0.1487 1.2418 0.34433 1.9768 0.46542 2.0483 0.58724 2.0636 0.72114 2.0252 0.878 1.9327 0.83861 1.4549 2.1488 3.0083 0.98491 1.5156 0.8905 1.8908 0.60522 2.0042 0.31023 2.055 0.034861 0.67496-0.042881 1.8915-0.23175 1.8038-0.87973 4.4114-0.1838 1.2093-0.15983 1.7057-0.25782 4.8752-0.27046 2.3258-0.30502 1.7676-0.60103 2.9376-1.7301 7.549-0.45256 2.5273-0.20013 1.6013-0.12564 2.2499 0.007005 0.87516 0.29757 6.1504 0.026454 2.1291-0.076361 1.6608-0.30381 2.1592-0.60074 2.4137-0.49517 1.5054-0.67656 1.7671-4.9479 11.305-0.61145 1.5327-0.22031 0.7144-0.071731 0.39145 0.14875 0.41295-0.51426 0.83234-0.8378 1.1415-1.5557 1.8963-1.5093 1.6178-1.2672 1.205-1.0145 0.86271-1.2272 0.9218-1.2571 0.82336-5.7214 3.1485-2.0886 1.261-2.9069 1.8549-4.1399 2.7167-1.9439 1.325-1.7743 1.3066-1.491 1.2714-0.6796 0.68967-0.64196 0.79387-0.46776 0.80888-0.2875 0.91632-0.093234 0.66845-0.085007 1.4793-0.14847 0.69724-0.2529 0.51213-0.28869 0.25453-1.1203 0.58116-0.54731 0.49749-0.57783 0.67264-1.9056 2.5735-1.9774 2.4693-2.2786 3.1546-0.98252 1.1999-0.74899 0.83322-0.84534 0.8257-1.3659 1.0782-0.89567 0.56806-0.86116 0.42333-0.77413 0.23596-0.67368 0.008719-0.31588-0.25248-0.62151-0.52089-0.87063-0.82995-0.8685-0.93125-1.1472-1.3799-0.85655-1.1221-1.2638-1.7841-1.2237-1.8684-1.5709-2.7135-0.84598-1.7357-0.55576-1.4463-0.39785-1.6077-0.088039-0.79162 0.056715-1.5669 0.24436-1.3391 0.53828-1.8867 1.2231-3.6704 0.33103-1.2768 0.17194-1.0229 0.050761-0.70315-0.047289-0.9361-0.52165-1.7449-0.99208-1.6342-0.74358-0.88023-0.81203-0.78479-0.85175-0.68187-1.3226-0.85581-1.7093-0.93994-1.5156-0.75788-4.6732-2.077-2.1145-0.99591-1.6726-0.88801-1.8216-1.1221-0.78208-0.54943-1.1113-0.86339-0.83471-0.71702-1.1553-1.0954-1.2784-1.3637-1.4306-1.7528-1.1632-1.6735-1.2382-2.1177-0.90441-1.8618-0.64217-1.5126-0.92863-2.4685-1.9494-5.5903-2.2839-6.7782-1.0464-2.8356-0.974-2.4101-0.81885-1.8632-0.83318-1.6883-0.97363-1.7507-1.0528-1.6271-0.93311-1.2277-1.3411-1.5832-1.3905-1.3837-1.4544-1.0713-1.5379-0.6186-1.1559-0.092657-1.1897 0.16294-1.1114 0.33221-1.5189 0.68353-1.4418 0.87921-1.0834 0.82852-0.71567 0.6526-0.64267 0.69208-0.9377 1.282-1.5055 2.4283-0.77651 0.91104-0.77816 0.53566-1.757 0.80712-0.91 0.55527-0.37456 0.3099-0.95915 1.0703-0.59399 0.84638-0.58304 0.94652-0.94001 1.711-4.4722 8.8963-1.8235 3.3229-5.2373 8.6773-4.3834 6.8815-3.033 5.2166-2.3256 4.1955-3.602 6.776-3.7086 7.2027-5.7146 11.679-2.0874 3.961-1.9532 3.481-1.6086 2.6464-1.9665 2.8723-6.3415 8.3399-1.9643 2.7702-2.711 4.1788-4.1153 6.6832-1.6559 2.3939-2.7835 3.6529-2.2237 2.7106-1.9629 2.1534-1.9157 1.8616-2.705 2.4002-2.5496 2.1677-2.738 2.2099-2.1118 1.6067-6.4733 4.6784-2.1047 1.6488-1.3627 1.186-1.59 1.5422-1.485 1.6093-1.6033 1.9303-2.5754 3.3749-1.0336 1.2803-1.026 1.1083-1.185 1.0433-1.2557 0.73774-0.66305 0.21049-0.96524 0.11512-0.54056-0.012174-1.1545-0.15949-0.58693-0.14013-0.89691-0.28598-1.1091-0.46654-1.2534-0.65682-1.3734-0.87123-0.76245-0.58324-0.86317-0.81759-0.84831-1.1501-0.63407-1.501-0.18795-0.6978-0.3086-1.7948-0.10746-1.1611-0.060901-1.4132 0.010705-1.5577 0.074329-1.4204 0.13089-1.4427 0.23028-1.7693 0.3061-1.7801 0.5717-2.5483 0.5222-1.8479 0.46069-1.397 0.75425-2.0093 0.74614-1.7498 0.87777-1.823 1.0626-1.9485 1.5436-2.5229 2.1903-3.1952 2.2949-3.1755 0.87213-1.3757 0.75809-1.4284 0.61491-1.4826 0.22059-0.68054 0.35526-1.4429 0.27852-1.8469 0.12101-1.672 0.023159-1.3987-0.054929-1.3934-0.17313-1.6369-0.2569-1.6148-0.31284-1.5755-0.56083-2.0896-0.66407-1.9001-0.75428-1.8058-0.81741-1.551-0.61648-0.94225-1.3566-1.5889-1.6063-1.4539-1.7828-1.3468-1.7157-1.1403-1.7802-1.0627-1.8182-0.97424-2.0412-0.97638-4.7879-2.1752-0.89042-0.4644-0.96668-0.58304-0.62035-0.46822-0.38196-0.3891-0.40222-0.67452-0.16493-0.72957 0.012347-0.65597 0.090695-0.53131 0.1547-0.56729 0.3106-0.83929 2.9523-6.1021 0.50779-1.236 0.37535-1.1785 1.3664-4.8558 0.21746-0.87746 0.15344-0.83828 0.073332-0.7317-0.1015-1.9848-0.30386-1.5886-0.41463-1.5462-0.59921-1.8464-0.6877-1.8851-2.0057-5.1345-0.71189-1.9504-0.65367-1.9848-0.5701-2.0144-0.45699-2.0412-0.30907-1.9405-0.65962-6.2113-0.78503-6.5438-0.14884-2.1226-0.049975-2.9716-0.14253-2.93-0.67717-8.5031-0.045165-2.4632 0.14304-1.9695 0.28764-1.9845 0.6421-3.0121 0.38581-1.411 0.51316-1.6079 0.41746-1.1551 0.69795-1.7223 0.94079-2.0202 0.46645-0.8854 0.37686-0.63737 0.19551-0.23958 0.038521-0.15929 0.091645-0.11243 0.47394-0.28164 0.45873-0.16481 0.80556-0.20066 0.67382-0.11608 0.92155-0.10359 1.0484-0.054385 1.7957 0.040707 0.6991 0.058972 1.3587 0.18554 1.7563 0.37259 7.1373 2.0589 2.0322 0.47296 2.0466 0.39065 1.745 0.28069 7.0147 0.95592 6.2431 0.75815 1.4034 0.11416 1.6861 0.053167 1.8512-0.075436 0.96832-0.10957 1.3488-0.24372 1.1822-0.30304 1.4392-0.50648 1.3798-0.66279 1.0011-0.605 0.70406-0.48645 1.2071-0.94682 1.5817-1.4409 0.94722-0.96205 5.3042-5.9763 2.6297-2.7485 3.0937-3.0862 1.8696-1.7989 3.1494-2.8221 1.406-1.1347 1.9609-1.4261 1.0998-0.71761 1.119-0.67156 2.5081-1.3411 3.056-1.4486 2.1493-0.90412 1.2501-0.42804 1.1722-0.24978 0.62451-0.046324 0.60645 0.017711 1.2182 0.20172 1.0536 0.34009 0.49781 0.23838 0.45307 0.28239 0.65072 0.5396 0.53298 0.54482 2.6252 3.136 0.73476 0.81714 1.9189 1.8673 1.0285 0.87699 1.0595 0.75646 0.8407 0.4812 1.1191 0.48574 1.2165 0.35708 1.0641 0.22465 5.8239 1.0904 3.2538 0.48007 2.0977 0.19754 2.529 0.10875 2.296-0.001622 1.9629-0.11879 1.3925-0.1754 1.1212-0.19127 1.5666-0.3736 0.95413-0.29641 1.0164-0.37764 1.1603-0.51979 2.0959-1.1443 2.7824-1.788 6.458-4.5984 3.7283-2.5416 8.1573-5.3698 2.2746-1.33 1.1007-0.55116 1.1986-0.52389 1.2185-0.44411 1.2642-0.3567 1.0628-0.21258 1.0697-0.1333 1.1094-0.053096 1.0538 0.032227 1.5758 0.21674 1.1764 0.31499 0.74466 0.27962 0.80704 0.38356 0.49024 0.28055 0.839 0.57903 0.99864 0.87728 0.63824 0.67909 0.6089 0.73824 1.1828 1.6779 3.0304 5.0246 0.88852 1.3545 0.90432 1.1519 0.92612 0.85627 0.3562 0.22873 1.166 0.32917 1.2471-0.39355 1.2342-1.0257 1.2266-1.4929 1.2231-1.8354 1.2232-2.0851 1.2262-2.2671 2.4709-4.901 2.5074-5.2171 7.3287-15.796 5.8299-11.763 0.092943 0.33428 0.48358 0.38252 0.53399 0.26906 0.80631 0.28439 0.54139 0.1366 1.5322 0.23285 0.9216 0.059626 1.2456 1.73e-4 1.5075-0.11186 1.8239-0.29413 6.1075-1.4788 5.2029-1.1791 1.3-0.40694 2.1374-0.93718 0.59736-0.20462 0.54457-0.1003 0.54736 0.063574 0.31279 0.19368 0.2237 0.30498 0.14688 0.4887 0.19931 2.2501 0.18459 0.79186 0.27753 0.836 0.5063 1.1976 0.62126 1.2319 0.71032 1.2444 0.7804 1.2365 0.83744 1.2073 0.8866 1.154 0.93254 1.0717 0.9797 0.95261 1.0325 0.78653 1.0955 0.55996 1.0562 0.27441 1.1046 0.11518 2.3009 0.088051 1.1718 0.13905 1.2756 0.32983 1.2646 0.48876 1.2429 0.59794 3.2766 1.7736 1.8222 0.76017 1.7945 0.6143 1.0036 0.24081 0.72431 0.021499 0.33847-0.16969" stroke="#bdc660"/>
    </defs>
    <g clip-path="url(#p20fc805369)">
     <use y="280.512" fill="#bdc660" stroke="#bdc660" xlink:href="#m84fffefebf"/>
    </g>
   </g>
  </g>
 </g>
 <defs>
  <clipPath id="p20fc805369">
   <rect x="7.2" y="7.2" width="312.7" height="266.11"/>
  </clipPath>
 </defs>
</svg>
