<?xml version="1.0" encoding="UTF-8"?>
<!DOCTYPE svg  PUBLIC '-//W3C//DTD SVG 1.1//EN'  'http://www.w3.org/Graphics/SVG/1.1/DTD/svg11.dtd'>
<svg width="284.41pt" height="280.51pt" version="1.1" viewBox="0 0 284.41 280.51" xmlns="http://www.w3.org/2000/svg" xmlns:xlink="http://www.w3.org/1999/xlink">
 <metadata>
  <rdf:RDF xmlns:cc="http://creativecommons.org/ns#" xmlns:dc="http://purl.org/dc/elements/1.1/" xmlns:rdf="http://www.w3.org/1999/02/22-rdf-syntax-ns#">
   <cc:Work>
    <dc:type rdf:resource="http://purl.org/dc/dcmitype/StillImage"/>
    <dc:date>2024-07-04T12:09:05.501669</dc:date>
    <dc:format>image/svg+xml</dc:format>
    <dc:creator>
     <cc:Agent>
      <dc:title>Matplotlib v3.7.1, https://matplotlib.org/</dc:title>
     </cc:Agent>
    </dc:creator>
   </cc:Work>
  </rdf:RDF>
 </metadata>
 <defs>
  <style type="text/css">*{stroke-linejoin: round; stroke-linecap: butt}</style>
 </defs>
 <g id="figure_1">
  <g id="patch_1">
   <path d="m0 280.51h284.41v-280.51h-284.41v280.51z" fill="none"/>
  </g>
  <g id="axes_1">
   <g id="PatchCollection_1">
    <defs>
     <path id="ma909f3f6b5" d="m106.06-251.35 0.55176 0.6942 0.71022 1.0535 1.4079 2.4843 0.30752 0.5857 0.17568 0.50331 0.08204 0.42585 0.027504 0.66081-0.18406 2.0143-0.015659 1.5403 0.089575 0.76207 0.222 0.56477 0.33388 0.50037 0.40316 0.41637 0.86619 0.67047 0.44273 0.45107 0.16556 0.2318 0.19333 0.45627 0.029903 0.20613-0.033224 0.44778-0.14402 0.49927-0.55686 1.3565-0.15796 0.53696-0.052392 0.36533 0.007686 0.36653 0.14045 0.54256 0.27176 0.5399 0.42749 0.60661 0.52004 0.60851 1.7848 1.879 1.1764 1.4097 0.7106 1.0206 0.34104 0.57601 0.4902 1.0685 0.17303 0.58786 0.11205 0.75422 0.017441 0.64-0.033926 0.65158-0.13799 1.1209-0.5246 2.8521-0.20972 0.27389-0.29095 0.72564-0.54179 1.907-0.42472 2.2374-0.20896 2.154-0.040287 1.8724 0.069572 1.9251 0.20641 2.232 0.44284 2.9956 0.40164 2.1169 0.9238 4.1447 0.66805 2.6829 2.515 9.5754 0.56134 2.3955 0.44065 2.2956 1.099 6.5372 0.33624 1.713 0.49161 2.1591 0.58848 2.1698 0.5598 1.7236 0.42824 1.1134 0.68497 1.4406 0.51171 0.835 0.90834 1.0741 0.21839 0.19366 1.3706 0.84348 1.4287 0.50297 0.9419 0.22063 0.96702 0.17175 4.2032 0.56926 1.8175 0.3368 1.2026 0.169 1.2181 0.098787 2.913 0.11356 1.5348 0.1285 0.88602 0.12525 0.80636 0.17282 0.84801 0.24403 1.0914 0.37018 2.6544 0.99513 0.87945 0.36986 1.03 0.49594 0.57435 0.31829 1.508 0.96214 2.2479 1.6056 1.0719 0.73583 0.8554 0.53192 0.97995 0.51552 1.0034 0.40323 0.92657 0.25919 1.1504 0.1894 1.1129 0.094907 2.807 0.14226 1.5828 0.17345 1.2806 0.27729 1.3986 0.5279 1.2944 0.81918 0.85341 0.84998 0.74246 1.2028 0.28246 0.75168 0.21335 0.93136 0.11249 1.0927-0.005665 4.2377 0.076288 1.162 0.19093 1.1084 0.27908 0.91544 0.47896 1.0261 0.75718 1.0942 1.2276 1.1756 1.7868 1.0719 1.1868 0.46564 1.2658 0.34155 1.3865 0.22188 1.4163 0.086961 1.6586-0.060437 1.2728-0.161 1.176-0.23985 1.0133-0.28933 0.80088-0.30965 0.47678-0.268 0.16045-0.22826-0.18419 0.4756 0.15676 0.81068 0.46232 0.99255 0.45478 0.6746 0.69145 0.83158 0.86673 0.90178 4.0502 3.9367 1.0576 0.91955 0.906 0.67854 1.5571 0.99678 1.646 0.91226 4.4852 2.2415 1.4952 0.79766 2.4872 1.495 1.3599 0.97169 1.1504 1.0979 0.81769 1.1552 0.64158 1.2637 0.58803 1.5648 0.36373 1.5938 0.061345 1.5798-0.20685 1.2187-0.37799 1.1803-0.73943 1.7709-0.46257 1.2258-0.39742 1.6531-0.18554 1.721-0.020984 0.87234 0.063918 3.2574-0.12268 1.4868-0.27768 1.1209-0.49052 1.3609-0.50115 1.1231-0.4254 1.1049-0.17373 0.76558-0.086557 0.77608-9.28e-4 0.83528 0.20651 1.124 0.24118 0.72235 0.83252 2.0277 0.4779 0.90283 0.23143 0.35186 0.7065 0.88224 0.94694 0.935 0.47016 0.39874 1.0396 0.77412 0.99498 0.65482 0.92979 0.71615 0.44842 0.45972 0.58194 0.74878 0.68165 1.153 0.58158 1.2929 0.74242 1.8124 0.78023 2.1715 0.36883 1.1745 0.88025 3.2057 1.6099 7.0106 0.27997 1.1209 0.47824 1.6289 0.53948 1.4445 1.2262 2.9069 0.58679 1.0625 0.13164 0.16583 0.42894 0.38625 0.46932 0.17524 0.64982-0.13746 0.3441-0.29546 0.59022-0.96932 0.47785-1.1445 1.3683-3.8257 0.74277-1.5255 0.9583-1.4116 5.3594-5.8447 0.80003-0.71576 0.6949-0.48695 0.68456-0.31472 0.72942-0.15279 0.78632 0.034695 0.7808 0.19313 1.3256 0.59812 0.95312 0.58596 1.0052 0.69376 2.7207 2.036 1.5762 1.0111 2.5278 1.4066 5.0529 2.6135 4.2291 2.433 0.8315 0.43602-0.26646 0.20855-0.58396 0.76566-0.57827 0.85227-4.5241 7.356-1.514 2.7757-3.03 6.2401-0.60976 1.1-0.59913 0.94986-0.45417 0.63088-0.76532 0.90944-0.83582 0.83892-0.81366 0.71074-0.97041 0.75196-1.1888 0.81227-1.0931 0.65903-1.1606 0.60925-1.5451 0.65622-1.5936 0.5176-1.8565 0.46604-0.67599 0.13286-1.9196 0.26288-1.9561 0.13616-1.9804 0.047084-3.9998-0.065139-4.2191-0.18137-12.729-0.91786-7.6942-0.41316-5.8277-0.14072-3.9605 0.054586-1.9976 0.10168-1.5316 0.12436-2.4998 0.31756-2.0532 0.41273-1.1878 0.31571-1.5749 0.50033-1.275 0.46285-2.2261 0.90432-3.2209 1.3873-0.026865-0.1292-0.20522-0.24586-0.73192-0.70792-2.1389-1.8738-5.3269-4.5269-2.3289-2.103-2.2839-2.2682-1.2807-1.4095-0.73462-0.87437-1.1221-1.4681-0.88172-1.3158-0.94102-1.6694-0.71963-1.6144-0.56373-1.5619-0.50572-1.5614-0.56057-1.481-0.69866-1.4268-1.0652-1.6651-2.0949-3.0161-1.0752-1.6661-0.71012-1.2231-0.63759-1.2449-0.58432-1.3753-0.20854-0.60175-0.46677-1.8485-0.70312-3.7035-0.54897-1.7874-0.5126-1.1092-0.6217-1.0875-2.6426-3.9851-0.90928-1.4705-0.86179-1.5309-0.97258-2.003-0.58146-1.4393-0.39451-1.1375-0.42189-1.4056-0.43617-1.7375-0.42577-2.136-0.27118-1.832-0.13326-1.2448-0.091661-1.2423-0.058349-1.6196 0.031001-4.2571-0.047979-1.7894-0.17738-1.7305-0.25977-1.2844-0.30737-1.001-0.5264-1.1834-0.62659-0.95861-0.61528-0.65514-0.84142-0.60736-0.76381-0.3809-0.85942-0.30227-1.2202-0.23646-1.984-0.090425-2.0543 0.10611-5.2485 0.49749-1.9966 0.14036-1.9876 0.056458-1.9738-0.065314-1.9148-0.21844-1.2716-0.25627-1.2191-0.34916-1.8016-0.75049-1.7003-0.98862-1.5785-1.0314-1.5201-1.0811-1.1834-0.92198-0.94334-0.7945-2.9393-2.6836-3.0964-2.9855-2.1399-2.2063-1.1859-1.1505-1.2365-1.0696-1.2545-0.95583-1.2399-0.80352-1.7594-0.95142-1.0831-0.65758-1.0547-0.75687-0.98208-0.84652-1.5317-1.6138-0.80483-0.7933-0.61435-0.51388-1.4745-1.0172-2.6178-1.5212-0.89234-0.56333-1.025-0.76103-0.55127-0.49577-0.54092-0.57124-1.487-1.911-0.64334-0.75895-0.48016-0.46802-0.61308-0.47721-1.1314-0.60822-1.0525-0.33777-1.1841-0.19356-1.2636-0.045982-1.0422 0.056801-0.97144 0.11159-2.0973 0.37178-2.5341 0.60656-3.2332 0.8859-1.0419 0.20862-0.67656 0.085448-1.1583 0.032873-1.1635-0.095402-0.62828-0.09988-1.844-0.51902-1.5815-0.70392-1.567-0.89164-1.5571-1.0335-1.548-1.1349-1.5447-1.206-3.4675-2.8146-3.2558-2.5444-2.2698-1.8766-1.8426-1.7028-0.73685-0.7364-1.104-1.1697-4.0413-4.5457-1.6446-1.6893-0.93042-0.84494-0.95135-0.76277-1.1176-0.75627-1.037-0.57107-1.1682-0.49804-1.1792-0.335-1.0605-0.0539 0.066186-0.080075 0.50323-0.67646 0.82471-1.2932 2.7992-5.1015 1.155-1.966 1.7066-2.532 2.6781-3.7021 0.73882-0.92366 1.4397-1.5571 1.2977-1.164 1.9805-1.5021 1.0767-0.91504 1.0165-1.0041 0.92348-1.0722 1.2643-1.8004 0.38934-0.65441 0.96503-1.8238 0.88515-1.9034 0.33958-0.61667 2.3718-3.7353 0.96569-1.6846 0.91872-1.3581 0.67839-0.8649 0.99902-1.0407 0.52507-0.47055 1.0199-0.82985 2.986-2.2505 0.96911-0.84969 0.81125-0.93787 0.69488-1.1481 0.55667-1.301 0.52845-1.7652 0.37928-1.8948 0.21399-1.6407 0.1036-1.2291 0.059912-1.2404 0.002425-2.0772-0.097773-1.7692-0.14202-1.3986-0.29405-1.9074-0.29076-1.3275-1.3263-4.5307-1.0145-2.9167-0.1955-0.73984-0.32514-1.5382-0.26478-0.93424-0.49051-1.1589-1.0494-1.6525-0.34482-0.80183-0.14546-0.93768 0.062187-1.0497 0.18795-0.86728 0.26381-0.92382 0.7713-2.464 0.32817-0.89246 0.43732-1.0175 0.8252-1.5456 0.96056-1.5272 3.0168-4.3708 1.1223-1.4384 0.99203-1.1187 0.70149-0.6944 1.1174-0.93854 0.82027-0.56489 1.1467-0.65438 2.2932-1.1277 1.1572-0.48432 1.0519-0.34245 1.1112-0.21553 1.2679-0.033823 0.83632 0.071451 3.3619 0.55817 3.042 0.44887 1.2119 0.13784 1.708 0.094764 1.813-0.018276 3.6286-0.32912 1.4761-0.059535 2.2384 0.013065 2.0044 0.13914 1.8581 0.25136 1.4203 0.3635 1.5979 0.54415 2.0491 0.77024 1.1768 0.47837 1.0808 0.528 0.7568 0.47358 0.58476 0.44628 1.1001 1.0194 0.78704 0.89776 1.8104 2.466 0.40522 0.46104 0.15481 0.1109" stroke="#bdc660"/>
    </defs>
    <g clip-path="url(#p3388df3247)">
     <use y="280.512" fill="#bdc660" stroke="#bdc660" xlink:href="#ma909f3f6b5"/>
    </g>
   </g>
  </g>
 </g>
 <defs>
  <clipPath id="p3388df3247">
   <rect x="7.2" y="7.2" width="270.01" height="266.11"/>
  </clipPath>
 </defs>
</svg>
