<?xml version="1.0" encoding="UTF-8"?>
<!DOCTYPE svg  PUBLIC '-//W3C//DTD SVG 1.1//EN'  'http://www.w3.org/Graphics/SVG/1.1/DTD/svg11.dtd'>
<svg width="318.06pt" height="280.51pt" version="1.1" viewBox="0 0 318.06 280.51" xmlns="http://www.w3.org/2000/svg" xmlns:xlink="http://www.w3.org/1999/xlink">
 <metadata>
  <rdf:RDF xmlns:cc="http://creativecommons.org/ns#" xmlns:dc="http://purl.org/dc/elements/1.1/" xmlns:rdf="http://www.w3.org/1999/02/22-rdf-syntax-ns#">
   <cc:Work>
    <dc:type rdf:resource="http://purl.org/dc/dcmitype/StillImage"/>
    <dc:date>2024-07-04T12:09:02.461430</dc:date>
    <dc:format>image/svg+xml</dc:format>
    <dc:creator>
     <cc:Agent>
      <dc:title>Matplotlib v3.7.1, https://matplotlib.org/</dc:title>
     </cc:Agent>
    </dc:creator>
   </cc:Work>
  </rdf:RDF>
 </metadata>
 <defs>
  <style type="text/css">*{stroke-linejoin: round; stroke-linecap: butt}</style>
 </defs>
 <g id="figure_1">
  <g id="patch_1">
   <path d="m0 280.51h318.06v-280.51h-318.06v280.51z" fill="none"/>
  </g>
  <g id="axes_1">
   <g id="PatchCollection_1">
    <defs>
     <path id="m796b424b34" d="m297.06-197.91-0.20303 1.034-0.53606 1.8872-0.75541 2.3937-0.90447 2.661-1.0074 2.7735-1.0834 2.7838-1.1475 2.7226-1.2173 2.6156-1.294 2.4458-1.3924 2.2202-1.5232 1.9276-0.79472 0.80593-0.83079 0.7211-0.92211 0.6717-0.86882 0.51497-0.74579 0.34914-0.71776 0.25162-0.6333 0.1529-1.1399 0.14716-0.79747 0.030757-0.94717-0.023396-0.92931-0.08127-2.0015-0.35103-1.3768-0.35005-8.9827-2.7634-1.5807-0.39054-0.92336-0.1249-0.92482-0.021492-1.4058 0.18055-1.3997 0.36363-3.3728 1.0923-1.0187 0.26197-0.65752 0.12412-1.064 0.10215-1.4859-0.073186-4.6211-0.55238-3.0884-0.46079-3.6858-0.64736-1.9054-0.22618-1.2985-0.001261-0.78494 0.089131-0.64326 0.13581-0.62473 0.19352-0.89558 0.39976-0.67306 0.4172-0.49206 0.38926-0.41708 0.40524-0.41099 0.49462-0.40478 0.63186-0.20619 0.40236-0.44467 1.145-0.36201 1.3104-0.57618 2.4222-0.25489 0.8759-0.37816 0.98617-0.34488 0.65411-0.2366 0.3529-0.51856 0.59164-0.66351 0.53333-0.70908 0.39341-0.55149 0.21638-2.8687 0.66293-1.8224 0.68933-2.3118 1.2456-4.3991 2.6115-1.1912 0.76244-1.0228 0.73762-1.3762 1.1521-1.2516 1.2464-0.76064 0.87908-0.7182 0.91139-1.2031 1.6862-3.1146 4.967-0.77613 1.354-1.3125 2.4527-1.4072 2.6859-0.58867 1.2238-1.0059 2.3816-0.51755 1.4351-0.57151 1.8398-0.32176 1.2102-0.25102 1.1648-0.63862 4.1366-0.20663 0.8413-0.33093 1.0747-0.30703 0.8466-0.48702 1.0568-0.4776 0.74454-0.60927 0.68239-0.99866 0.81123-1.2384 0.76003-2.2332 1.0925-2.3269 0.9725-1.8639 0.68285-3.7833 1.2497-7.9515 2.4263-4.5245 1.4449-2.1935 0.76949-2.1121 0.81977-1.9956 0.88976-1.8345 0.98547-1.6162 1.1145-1.3254 1.2863-0.72723 1.0364-0.36392 0.66527-0.29482 0.6232-0.7446 1.8735-0.79479 2.2448-0.34351 1.0944-0.34858 1.4523-0.2267 1.3893-0.24403 3.0301-0.40728 8.0884-0.19153 2.7337-0.32698 2.9721-0.60637 4.2788-0.16257 1.3687-0.13841 1.7189-0.040969 1.0553 0.010102 1.6166 0.25582 5.0216 0.006123 3.1896-0.054609 1.3179-0.16686 1.7305-0.1785 1.0519-0.27669 1.1828-0.35778 1.1594-0.25602 0.68035-0.38494 0.88665-0.56657 1.1302-0.57968 1.0204-0.89278 1.4094-1.5633 2.2212-2.5706 3.4194-3.1933 4.0903-1.5896 1.8663-1.2478 1.3136-0.99831 0.9447-1.0341 0.90188-1.6005 1.2935-2.2141 1.6637-3.6194 2.5527-2.093 1.3828-1.1903 0.70593-0.95508 0.49218-0.90189 0.37987-0.91308 0.27666-0.88402 0.13626-1.0949-0.04502-1.0759-0.23074-1.1051-0.39792-3.4649-1.8137-0.64246-0.26674-1.3121-0.37786-0.77955-0.12212-0.91366-0.046542-1.2511 0.10066-0.70372 0.12573-1.0233 0.2623-2.0039 0.68926-5.1051 2.0568-2.222 0.8339-1.8616 0.57213-0.92608 0.2096-1.009 0.15042-0.93912 0.052551-1.3089-0.077411-0.94464-0.16172-0.80902-0.20692-0.82284-0.27921-1.0297-0.47303-0.43342-0.27886-0.24954-0.23174-0.079721-0.11463-0.035691-0.29563-0.052359-0.18753 0.048919-0.19001 0.34064-0.4467 0.642-0.51572 0.76692-0.46397 1.2576-0.55039 0.86146-0.28603 2.3583-0.65875 0.9672-0.36522 0.53247-0.3629 0.40332-0.77804-0.22836-0.86766-0.55782-0.5843-1.0421-0.66089-1.3181-0.62461-1.5375-0.62036-2.2847-0.80852-4.2535-1.2928-11.265-3.0548-4.3211-1.2257-2.0077-0.60784-3.4883-1.1665-2.7587-1.0956-1.5396-0.74051-1.1497-0.69361-0.8268-0.69291-0.44855-0.5998-0.17706-0.40514-0.078567-0.33366 0.013412-0.7307 0.13899-0.59644 0.78026-2.2395 0.39233-1.2664 0.25836-1.3262 0.048704-0.62718-0.032349-1.2078-0.043473-0.33957-0.16098-0.79463-0.23919-0.80513-0.34225-0.90701-1.2125-2.8253-1.2289-3.4151-0.919-2.2837-1.0287-2.2768-0.9674-1.8769-1.6443-2.8318-1.1393-1.8057-1.8214-2.6693-0.80866-1.106-2.9892-3.7509-4.6471-6.0819-1.4578-2.0954-1.2894-2.1616-1.1771-2.2704-1.0927-2.3576-1.2966-3.0887-0.87458-2.2594-2.5587-6.9861-0.89886-2.3616-0.95564-2.3548-1.0318-2.3283-2.7821-5.6708-1.2007-2.6555-0.83702-2.1348-0.67678-2.094-0.4006-1.6511-0.028398-0.3657 0.045454-0.07503 0.044993-0.37404 0.24641-0.63059 0.4135-0.8465 0.88035-1.4891 1.1121-1.5372 0.92648-1.0671 0.87966-0.87243 1.8108-1.4859 1.0739-0.73718 1.1087-0.67607 7.8519-4.1166 2.7826-1.3789 1.8294-0.8412 1.8786-0.75027 1.2873-0.42803 1.1944-0.33961 1.5778-0.37439 1.8143-0.33815 3.1909-0.40878 5.1376-0.38151 14.094-0.61156 1.9483-0.17196 1.7175-0.25913 0.66628-0.14508 1.1755-0.35227 1.2994-0.60432 0.73081-0.49706 0.87194-0.78051 0.69838-0.78811 0.63668-0.85785 0.64634-1.0277 0.4301-0.78903 0.7996-1.7742 0.54054-1.5622 0.36253-1.3501 0.28834-1.3862 0.24833-1.6234 0.19853-1.8209 0.15107-2.051 0.048672-1.329 0.00229-2.1379-0.06133-1.7501-0.27662-3.7394-0.47586-4.4785-1.148-9.0502-0.48008-4.6354-0.09891-1.5552-0.046075-1.5362 0.012077-1.2412 0.068822-1.2691 0.15109-1.3516 0.2624-1.3694 0.21321-0.78612 0.61632-1.6984 0.44875-0.98832 0.58756-1.1322 0.90832-1.544 1.0884-1.6126 1.4037-1.7468 1.0558-1.1281 0.67307-0.65409 1.8802-1.6202 0.94177-0.71319 1.0568-0.73065 1.0861-0.67667 0.94567-0.52869 1.4968-0.72075 1.4994-0.56629 1.263-0.37438 1.8015-0.38395 1.4424-0.18278 1.3403-0.077944 2.1721 0.028332 1.3222 0.092955 1.6593 0.19021 1.6861 0.27271 1.6704 0.32377 4.2495 0.89066 2.5214 0.48428 0.9074 0.13794 1.862 0.15857 1.3534 0.015135 1.9396-0.11111 1.1133-0.13506 1.4814-0.25202 4.1218-0.90848 1.3181-0.17213 0.95366-0.065658 1.3461-0.021497 1.7692 0.12558 1.2756 0.20576 5.2036 0.98301 1.3772 0.15895 2.2024 0.097733 1.4866-0.036432 1.9985-0.22201 1.5671-0.27664 1.7379-0.40077 1.2241-0.33096 2.667-0.8265 2.4912-0.9002 1.5801-0.66255 0.54865-0.25223 1.9946-1.0589 0.74799-0.47536 1.9509-1.4661 1.8222-1.6723 1.6949-1.8444 0.8304-1.016 3.388-4.4985 1.3725-1.7126 1.2843-1.4683 5.2143-5.5313 0.96397-1.112 0.9268-1.1527 1.4866-2.0889 0.97753-1.5529 1.1451-2.056 1.0615-2.2549 0.78916-2.0523 0.60676-1.9265 0.42474-1.6642 0.23324-1.2117 0.014975-0.495 2.6106-0.89486 1.5601-0.44638 4.8616-1.2085 2.6011-0.56696 1.424-0.24577 2.1123-0.2511 1.32-0.076592 1.6693 0.002898 1.7383 0.13524 2.1677 0.34298 1.5144 0.34339 2.046 0.5813 1.7706 0.59677 1.8753 0.72151 1.8086 0.80061 1.7253 0.8916 4.3494 2.6262 5.6938 3.3408 1.8727 1.1564 5.0423 3.2514 4.5092 2.7136 1.7612 1.2478 4.7637 3.7916 1.6653 1.2488 5.5322 3.7142 2.2937 1.8355 1.7416 1.6126 1.6472 1.6758 2.8115 3.0307 1.3795 1.6693 1.3 1.768 1.2226 1.8335 2.9939 4.9339 1.1055 1.6154 1.2121 1.6043 1.4893 1.7523 1.6501 1.6716 1.5999 1.3829 1.089 0.84832 1.8048 1.295 7.4513 4.8883 2.8073 1.9768 0.42211 0.40681" stroke="#bdc660"/>
    </defs>
    <g clip-path="url(#pa469d3c162)">
     <use y="280.512" fill="#bdc660" stroke="#bdc660" xlink:href="#m796b424b34"/>
    </g>
   </g>
  </g>
 </g>
 <defs>
  <clipPath id="pa469d3c162">
   <rect x="7.2" y="7.2" width="303.66" height="266.11"/>
  </clipPath>
 </defs>
</svg>
