<?xml version="1.0" encoding="UTF-8"?>
<!DOCTYPE svg  PUBLIC '-//W3C//DTD SVG 1.1//EN'  'http://www.w3.org/Graphics/SVG/1.1/DTD/svg11.dtd'>
<svg width="241.6pt" height="280.51pt" version="1.1" viewBox="0 0 241.6 280.51" xmlns="http://www.w3.org/2000/svg" xmlns:xlink="http://www.w3.org/1999/xlink">
 <metadata>
  <rdf:RDF xmlns:cc="http://creativecommons.org/ns#" xmlns:dc="http://purl.org/dc/elements/1.1/" xmlns:rdf="http://www.w3.org/1999/02/22-rdf-syntax-ns#">
   <cc:Work>
    <dc:type rdf:resource="http://purl.org/dc/dcmitype/StillImage"/>
    <dc:date>2024-07-04T12:09:03.865052</dc:date>
    <dc:format>image/svg+xml</dc:format>
    <dc:creator>
     <cc:Agent>
      <dc:title>Matplotlib v3.7.1, https://matplotlib.org/</dc:title>
     </cc:Agent>
    </dc:creator>
   </cc:Work>
  </rdf:RDF>
 </metadata>
 <defs>
  <style type="text/css">*{stroke-linejoin: round; stroke-linecap: butt}</style>
 </defs>
 <g id="figure_1">
  <g id="patch_1">
   <path d="m-0 280.51h241.6v-280.51h-241.6v280.51z" fill="none"/>
  </g>
  <g id="axes_1">
   <g id="PatchCollection_1">
    <defs>
     <path id="maa54c2fa19" d="m182.25-213.17-0.036772 0.1594-0.27192 0.39952-0.48513 0.53437-0.64403 0.59074-0.75497 0.59059-0.93018 0.60645-0.97993 0.50163-2.8141 1.0191-0.87196 0.36367-1.2404 0.56681-2.3277 1.1709-0.68089 0.41425-0.54001 0.37554-0.47369 0.37058-0.59545 0.53464-2.5738 2.6745-2.1919 1.9523-1.208 1.1535-0.90238 0.9589-0.75484 0.90892-0.53197 0.72666-0.44119 0.67972-0.38637 0.67317-0.39962 0.80878-0.297 0.7331-0.21674 0.72952-0.11572 0.64641-0.060947 0.64338-0.1092 2.2669-0.3428 2.198-0.065265 0.75217-0.03457 1.4696 0.067077 0.67217 0.20738 0.58055 0.31884 0.39848 0.55717 0.38391 0.35923 0.1593 0.46551 0.16136 1.497 0.45575 0.70131 0.28407 0.5929 0.32675 0.49537 0.36455 0.52228 0.47099 0.46436 0.46699 0.61183 0.70499 0.32774 0.44732 0.35555 0.5592 1.387 2.4397 0.65343 0.98726 0.78673 0.97126 0.43494 0.46017 0.55846 0.53499 0.828 0.71223 0.42082 0.32711 0.6829 0.48566 1.4113 0.88758 2.166 1.1918 3.3324 1.6689 0.7469 0.42822 0.71045 0.48271 0.53898 0.44472 0.83124 0.89744 1.4302 1.8355 0.64993 0.72179 0.71292 0.64518 0.5953 0.42082 0.63156 0.35902 0.90377 0.40024 0.72823 0.24927 1.8366 0.50902 0.90048 0.28638 0.89451 0.34072 1.2367 0.58034 0.54486 0.2866 0.71157 0.4196 0.67175 0.46266 1.8934 1.4162 1.0711 0.71564 0.49585 0.28375 0.87164 0.43769 1.1924 0.51316 1.2439 0.47445 2.6917 0.95495 1.5651 0.58606 1.2641 0.5268 1.0546 0.49489 0.91905 0.48051 0.91933 0.53173 0.8872 0.56194 3.5684 2.4605 1.0861 0.71404 1.1541 0.71822 1.7119 0.99438 1.147 0.62759 2.0266 1.0284 1.6493 0.76723 1.1518 0.50199 0.87927 0.33758 0.061683 0.3541 0.071237 0.74894 0.046741 1.013-0.033515 1.3579-0.15188 1.4703-0.28363 1.5071-0.42968 1.4898-0.43548 1.1102-0.50778 1.0773-0.60345 1.1358-1.5905 2.8552-0.62578 1.2183-0.56526 1.211-0.4876 1.2017-0.39044 1.1907-0.67152 2.6955-0.38494 1.361-0.44829 1.3441-0.53167 1.3013-0.64088 1.2297-0.55813 0.85307-0.97104 1.2732-1.0635 1.2955-1.6158 1.8335-1.1307 1.3468-0.49375 0.53716-0.52028 0.51739-0.9662 0.84257-0.64804 0.48496-0.77975 0.49994-0.48881 0.27066-1.071 0.52203-0.49275 0.20897-0.77882 0.27566-1.0438 0.27333-1.3431 0.21038-1.01 0.058352-1.2461-0.036123-1.0706-0.092214-2.6963-0.33275-1.296-0.24098-1.2991-0.29826-4.4246-1.1723-1.1271-0.24474-1.0913-0.16063-1.423-0.090144-1.439 0.018126-1.4506 0.10136-1.4584 0.16583-1.4626 0.21698-1.4631 0.25959-1.4594 0.29803-1.4506 0.33644-1.4354 0.37894-1.4116 0.42992-1.4739 0.52664-1.4255 0.59152-1.3631 0.65444-1.2794 0.72247-1.1656 0.80306-1.0103 0.90456-0.79985 1.0365-0.53181 1.1526-0.34082 1.2712-0.20933 1.3552-0.12643 1.4115-0.24874 4.1476-0.12892 1.2307-0.19494 1.2091-0.31907 1.3512-0.71906 2.6335-0.13582 0.60315-0.23924 1.6166-0.036925 0.78621 0.048696 1.0517 0.095667 0.64912 0.14976 0.6208 0.28828 0.7665 0.40071 0.68886 0.50617 0.58715 0.59551 0.51404 1.009 0.68126 1.378 0.82272 0.68372 0.44696 0.60547 0.47388 0.40255 0.40141 0.30897 0.41081 0.22735 0.43568 0.20421 0.77074 0.026831 0.93675-0.14685 1.0698-0.22966 0.95656-0.33452 1.1081-1.6213 4.8465-0.30508 0.99375-0.28667 1.0513-0.1732 0.76312-0.13018 0.74101-0.087566 0.86102-0.00242 0.63295 0.089163 0.68726 0.1788 0.56016 0.15153 0.29757 0.24588 0.34655 0.47293 0.45568 0.41474 0.29604 0.30416 0.18106 0.76029 0.36094 0.39147 0.14823 0.85775 0.2705 2.3733 0.66145 0.87945 0.29141 0.66447 0.26238 0.49842 0.24449 0.51985 0.32434 0.3063 0.2402 0.68765 0.73574 0.53613 0.81155 0.33896 0.6494 0.29837 0.68497 0.36043 1.0235 0.28847 1.0447 0.19452 0.95112 0.14075 1.2497 0.040972 1.0105-0.038551 0.89056-0.072118 0.49001-0.085388 0.37315-0.19462 0.57763-0.16414 0.33771-0.18391 0.28271-0.19957 0.2304-0.36507 0.30108-0.24722 0.15358-0.28767 0.1478-0.56615 0.22888-2.1971 0.66697-1.4496 0.5386-0.79281 0.35362-1.9255 0.93579-0.84764 0.37379-3.1669 1.2983-0.73728 0.33791-0.86455 0.46441-0.47598 0.30922-0.60269 0.47731-0.46345 0.47042-0.48642 0.66131-0.2082 0.37456-0.22386 0.55414-0.19784 0.86846-0.17557 1.2538-0.11389 0.62373-0.23399 0.79794-0.33614 0.8221-0.50356 0.96578-1.2215 1.9747-0.46024 0.84916-0.31128 0.67337-0.25231 0.64923-0.21947 0.74352-0.074257 0.36442-0.057455 0.57427 0.019259 0.38482 0.045577 0.22503 0.050327 0.13495 0.090821 0.12506 0.08886 0.041904-0.18284-0.00944-0.2325-0.088864-0.82699-0.45154-0.59399-0.3899-0.44473-0.32688-0.55932-0.46517-0.52151-0.49911-0.45875-0.49399-1.3781-1.6443-0.5612-0.6329-1.2477-1.2651-2.269-2.1328-2.0713-1.9908-0.73423-0.67134-0.40348-0.33791-0.72412-0.54368-0.71122-0.48342-1.6402-1.0169-1.0053-0.56882-1.0884-0.56513-0.91922-0.43088-1.2007-0.49274-0.78874-0.27676-0.79871-0.23796-1.1649-0.27324-0.83531-0.16018-3.4568-0.5745-0.79918-0.16593-1.228-0.32113-0.66858-0.21761-0.81315-0.31067-0.98533-0.44902-1.2463-0.69692-0.63753-0.42912-0.60087-0.47133-0.79493-0.75811-0.83208-0.94643-1.7698-2.2064-0.69724-0.80329-0.64597-0.67599-0.67326-0.63745-0.66565-0.57114-0.74422-0.57697-0.74749-0.52162-1.2173-0.75366-3.0847-1.7058-1.3187-0.78475-4.9408-3.1148-3.3128-1.8373-0.99735-0.66114-0.58594-0.46823-0.64668-0.65675-0.36727-0.50978-0.33315-0.67289-0.1538-0.45002-0.11001-0.44845-0.071196-0.43534-0.047899-0.60258 0.004246-0.63929 0.038305-0.5066 0.14483-0.9772 0.25388-1.156 0.32891-1.2296 0.99861-3.1739 0.40462-1.177 0.53967-1.4548 0.11527-0.3839 0.052481-0.28547-0.014823-0.3427-0.12663-0.26142-0.25591-0.2271-0.33276-0.166-0.47669-0.1386-0.42512-0.071784-0.62348-0.051734-0.48606-0.008385-0.79053 0.032416-1.2714 0.14629-1.0005 0.1862-0.95175 0.23002-0.96927 0.28287-1.0084 0.34577-0.89084 0.3448-4.418 1.9217-1.3971 0.57052-0.61028 0.21582-0.85854 0.24264-0.61194 0.11047-0.59178 0.038598-1.082-0.1396-0.65824-0.19639-0.786-0.31107-2.295-1.0013-0.51455-0.30293-0.45512-0.38704-0.35877-0.4622-0.30004-0.55146-0.19872-0.48387-0.21525-0.6764-0.17901-0.72628-0.14475-0.72842-0.47365-3.1733-0.68707-4.0892-0.15071-0.63468-0.17677-0.57962-0.20092-0.5082-0.28669-0.55183-0.33473-0.50077-0.36604-0.44524-0.46511-0.47017-0.55449-0.47212-0.62087-0.4547-0.89632-0.56248-1.3451-0.72124-2.1675-1.0918-0.91202-0.52753-0.3506-0.27235-0.20389-0.21461-0.14559-0.21856-0.087366-0.20502-0.055023-0.28596 0.010356-0.28842 0.049893-0.2393 0.21251-0.53175 0.1809-0.32347 0.33271-0.49875 0.36242-0.47757 1.1078-1.3736 0.40138-0.5523 0.36652-0.56005 0.58609-1.0266 0.35829-0.7275 0.32777-0.75244 0.41762-1.1242 0.39766-1.3407 0.2268-1.0045 0.22577-1.4408 0.21947-2.0964 0.067146-1.3998-0.041187-0.77066-0.05335-0.33607-0.085616-0.32588-0.082609-0.21553-0.21191-0.366-0.18303-0.21574-0.22351-0.20308-0.51162-0.33086-0.28806-0.13719-0.88168-0.30114-1.0706-0.24231-4.7508-0.92378-1.1629-0.28108-1.1804-0.33447-1.1577-0.36305-8.1433-2.7499-3.0733-1.0692-3.0517-1.1284-4.3502-1.7536-0.96048-0.34088-1.4954-0.47592-1.3226-0.37055-1.4114-0.35237-1.654-0.36095-1.4781-0.2778-1.4932-0.23432-1.5015-0.18068-1.4997-0.11344-1.4828-0.030354-0.92555 0.029078-0.90301 0.06083-2.7102 0.26989-2.2368 0.27052-0.054801-0.29018 0.21824-0.39464 0.64648-0.59774 0.89998-0.60018 1.2808-0.74418 0.64548-0.35223 1.3635-0.66969 0.40761-0.23089 0.54663-0.40373 0.28213-0.27463 0.23047-0.30505 0.16506-0.3134 0.085722-0.23752 0.091851-0.40905 0.080006-0.71021 0.10893-0.39913 0.16238-0.32966 0.23644-0.34521 0.3478-0.39642 1.8982-1.8762 0.57407-0.60097 0.31588-0.37742 0.46447-0.6252 0.44363-0.67234 0.52842-0.89683 0.48728-0.92265 0.56415-1.1748 0.66342-1.515 1.1921-2.9847 2.5145-6.7812 0.895-2.2081 0.59917-1.3333 0.59748-1.108 0.51139-0.79922 0.88487-1.1991 0.96432-1.1544 1.0196-1.122 2.1317-2.1798 3.2568-3.1876 1.0871-1.0266 1.0886-0.9595 1.1001-0.85727 0.5003-0.34027 0.40522-0.24813 0.50753-0.26829 1.0405-0.40579 1.0034-0.2758 2.9819-0.68761 2.404-0.67439 0.96942-0.32622 0.9211-0.40378 0.52305-0.29623 0.69325-0.46728 0.67296-0.51286 0.63286-0.54603 1.9554-1.8804 0.90418-0.79575 0.91026-0.731 0.7666-0.56818 2.3429-1.6579 1.3831-1.0447 1.4364-1.182 0.99035-0.91706 0.80637-0.80908 0.90273-0.96655 0.84536-0.96148 1.355-1.658 0.80134-1.0599 0.75274-1.0752 0.40922-0.63306 0.37635-0.62893 0.54337-1.0304 0.20694-0.45041 0.30685-0.74613 0.34273-0.96698 0.36349-1.2419 0.21494-0.9033 0.19538-1.0446 0.13874-1.2878 0.027134-0.74212-0.008313-0.79081-0.029974-0.44787-0.11606-0.86993-0.24648-1.0634-0.3161-0.92769-0.34638-0.7854-0.50151-0.94058-0.7781-1.2325-1.8362-2.5282-0.78353-1.1336-0.5485-0.91168-0.42401-0.78728-0.60705-1.2233-2.871-6.1965-0.72882-1.5135-0.9825-1.9138-0.56371-1.0036-0.62565-1.0064-0.93885-1.3039-1.009-1.2253-1.4695-1.5893-0.8192-0.78494-0.61072-0.51258-2.0677-1.5049 0.51402-0.98373 0.24152-0.51708 0.88372-2.2623 0.21176-0.41138 0.24487-0.36331 0.2878-0.30268 0.3362-0.23356 0.37565-0.1814 0.40262-0.14917 1.1371-0.37486 0.74923-0.33388 2.6831-1.436 0.76058-0.48661 0.32026-0.27556 0.26138-0.30895 0.20923-0.38715 0.14933-0.42044 0.23791-0.86488 0.14528-0.40646 0.20246-0.36111 0.24657-0.2663 0.3001-0.21867 0.33816-0.17583 0.36685-0.13655 0.37819-0.094195 0.61543-0.0563 0.41584 0.04278 0.31215 0.097991 0.46587 0.29852 0.25824 0.12277 0.30894 0.054322 0.37591-0.003345 0.49918-0.072807 0.54454-0.13471 0.88705-0.29526 1.1523-0.43319 0.21495-0.068185 0.12827-0.009124 2.0251-0.87219 1.3996-0.56856 0.80164-0.291 0.99015-0.31457 0.74678-0.1985 1.2909-0.25949 1.5716-0.19966 0.96292-0.078186 1.2559-0.063928 2.49-0.03432 3.664 0.088476 4.8375 0.25976 8.0032 0.57708 2.6526 0.11403 2.5148 0.040954 1.2451-0.029602 1.2298-0.085606 1.2069-0.16527 0.425-0.083533 1.1672-0.293 1.0019-0.32542 0.97141-0.41258 0.72969-0.38305 0.68728-0.41434 0.74744-0.51069 0.61012-0.47277 0.51156-0.44685 0.52549-0.52744 0.48117-0.57178 0.28555-0.39665 0.37668-0.5972 0.38336-0.69162 1.905-3.9232 0.95189-1.7451 2.8444-4.6248 0.36357-0.53584 0.36714-0.48138 0.16753-0.13112 0.1673-0.27487 0.36798-0.45238 0.37898-0.39052 0.45344-0.3931 0.52482-0.39605 0.58111-0.3738 0.78409-0.40375 0.62307-0.2568 0.65095-0.20109 0.78806-0.14354 0.64829-0.050595 0.66699-2.69e-4 0.68713 0.049991 1.0343 0.16854 1.1129 0.30116 2.2245 0.75732 1.1255 0.34994 3.3015 0.91765 4.6884 1.4543 3.5525 0.98555 1.9023 0.62668 1.4493 0.58051 2.0028 0.92961 1.4394 0.73228 1.4947 0.80037 2.5761 1.4321 2.7783 1.5933 1.2686 0.69301 0.54828 0.32726 0.43522 0.32341 0.22917 0.22909 0.18907 0.27497 0.14945 0.50489-3.76e-4 0.5639-0.060798 0.42956-0.11839 0.44863-0.2516 0.59191-0.34351 0.59982-0.4806 0.6962-0.52361 0.67608-1.1736 1.3847-0.4598 0.6521-0.3161 0.60013-0.094028 0.31337-0.024881 0.3173 0.064449 0.36356 0.14546 0.36071 0.35018 0.56352 0.52852 0.52037 0.71444 0.41281 0.45847 0.18653 0.67684 0.21669 1.3328 0.31909 4.0659 0.72531 1.3299 0.28938 0.70325 0.19218 0.66283 0.22217 0.58102 0.24497 0.5237 0.28541 0.6589 0.52901 0.35027 0.45441 0.26762 0.51195 0.28081 0.80228 0.34616 1.4816 0.11923 0.92912 0.012425 0.92726-0.064737 0.89906-0.24831 1.3415-0.51803 1.809-0.44322 1.2678-1.6112 4.2545-0.30425 0.91418-0.36786 1.2854-0.33971 1.5925-0.18637 1.4095-0.02624 0.58588 0.045104 0.55992 0.058286 0.18657 0.049865 0.071152 0.089247 0.029015" stroke="#bdc660"/>
    </defs>
    <g clip-path="url(#pfb97d4a999)">
     <use y="280.512" fill="#bdc660" stroke="#bdc660" xlink:href="#maa54c2fa19"/>
    </g>
   </g>
  </g>
 </g>
 <defs>
  <clipPath id="pfb97d4a999">
   <rect x="7.2" y="7.2" width="227.2" height="266.11"/>
  </clipPath>
 </defs>
</svg>
