<?xml version="1.0" encoding="UTF-8"?>
<!DOCTYPE svg  PUBLIC '-//W3C//DTD SVG 1.1//EN'  'http://www.w3.org/Graphics/SVG/1.1/DTD/svg11.dtd'>
<svg width="289.37pt" height="280.51pt" version="1.1" viewBox="0 0 289.37 280.51" xmlns="http://www.w3.org/2000/svg" xmlns:xlink="http://www.w3.org/1999/xlink">
 <metadata>
  <rdf:RDF xmlns:cc="http://creativecommons.org/ns#" xmlns:dc="http://purl.org/dc/elements/1.1/" xmlns:rdf="http://www.w3.org/1999/02/22-rdf-syntax-ns#">
   <cc:Work>
    <dc:type rdf:resource="http://purl.org/dc/dcmitype/StillImage"/>
    <dc:date>2024-07-04T12:09:07.037287</dc:date>
    <dc:format>image/svg+xml</dc:format>
    <dc:creator>
     <cc:Agent>
      <dc:title>Matplotlib v3.7.1, https://matplotlib.org/</dc:title>
     </cc:Agent>
    </dc:creator>
   </cc:Work>
  </rdf:RDF>
 </metadata>
 <defs>
  <style type="text/css">*{stroke-linejoin: round; stroke-linecap: butt}</style>
 </defs>
 <g id="figure_1">
  <g id="patch_1">
   <path d="m0 280.51h289.37v-280.51h-289.37v280.51z" fill="none"/>
  </g>
  <g id="axes_1">
   <g id="PatchCollection_1">
    <defs>
     <path id="m1babc18ff8" d="m231.54-251.1 0.08398 0.15324 0.050996 0.56982 0.010976 1.1435-0.13037 6.5003 0.063867 3.9097 0.24119 3.9935 0.65646 7.9871 0.6901 7.2296 0.60564 4.6318 0.71962 4.2252 0.53025 2.5483 0.60476 2.5011 0.84034 2.9449 0.97986 2.8577 1.481 3.4827 1.3961 2.6397 0.86194 1.4145 1.4533 2.1326 1.2464 1.6534 2.571 3.0671 2.7764 3.0008 2.9767 2.9924 7.1922 6.9118 3.1358 3.2842 1.8062 2.0508 2.0812 2.5557 1.1295 1.5675 0.7909 1.2776 0.59483 1.1837 0.46143 1.2893 0.17635 0.84508 0.057119 0.73918-0.42249 2.2718-1.0539 2.269-1.3325 2.3852-1.2868 2.6282-0.86727 2.5014-0.67905 2.6996-1.5875 8.6076-0.56074 2.6399-0.69844 2.5342-0.90765 2.3713-1.1983 2.144-1.4857 1.8117-1.7343 1.6176-5.356 4.1476-1.3347 1.1212-1.2142 1.1487-1.0948 1.2206-1.2347 1.7294-2.1128 3.6341-3.7928 7.6407-1.3402 2.4143-2.5076 3.9775-1.1397 2.2503-0.82092 2.0092-0.66189 1.8883-1.0792 3.545-1.3662 5.296-0.56445 3.1453-0.23863 3.0777 0.002999 1.7924 0.3767 7.3286-0.065755 4.2652-0.19076 2.3745-0.4013 2.8941-0.456 2.2322-0.41989 1.5871-0.95351 2.6685-0.40975 0.90264-1.2432 2.2855-1.558 2.3971-2.1667 2.9582-2.4991 3.209-0.96449 1.1447-0.93846 0.96709-0.80986 0.090399-1.4587 0.31151-4.3762 1.1953-3.6721 1.1464-3.7258 1.3686-0.40142 0.028318-0.34569-0.058582-2.4354-1.0079-1.309-0.37557-1.3637-0.23589-1.7636-0.019763-1.0503 0.12794-1.2796 0.27738-1.5119 0.4494-2.2383 0.80187-1.4562 0.63081-1.3908 0.74654-1.215 0.8728-0.49942 0.48113-0.62545 0.82802-0.22336 0.42424-0.069713 0.32122-0.25027-0.006565-1.3349 0.2529-15.364 3.2263-4.5859 0.88904-7.1716 1.171-3.8395 0.50136-2.186 0.19446-2.6077 0.13585-2.4205 0.021307-2.7088-0.1152-3.4416-0.40823-1.7932-0.37198-2.2825-0.69144-2.0527-0.91598-1.2288-0.75-2.2452-1.9474-3.994-4.5306-1.9642-1.927-5.5307-5.0533-9.1461-9.0173-5.1125-4.5717-8.3298-8.079-1.0946-1.1886-1.6485-2.1309-1.1688-1.7505-1.6406-2.7045-4.8137-8.4735-1.665-2.8014-2.4354-3.8377-2.6214-3.7297-1.3456-1.7262-1.3871-1.6292-1.1365-1.2115-2.1319-1.9449-2.3507-1.6161-2.5137-1.0684-3.0145-0.42428-3.2131 0.22668-3.3704 0.68163-2.7908 0.76052-9.5748 2.8713-3.8347 0.85608-3.8023 0.41204-3.7043-0.25207-1.3599-0.31142-1.7014-0.56862-0.96607-0.40744-2.0738-1.067-1.388-0.85577-2.5283-1.8533-1.7168-1.5015-1.3545-1.3771-0.94363-1.1712-0.31231-0.7587 0.56416-0.60658 2.7834-2.389 1.5373-1.1643 3.2614-2.1172 3.9417-2.1827 2.7692-1.3945 9.8902-4.6522 1.5578-0.86818 0.98447-0.69118 0.88475-0.78138 1.2698-1.5313 6.6029-10.37 2.8668-5.1709 1.869-3.1571 2.8766-5.1668 0.6301-1.3232 1.787-4.4788 0.72918-1.5463 0.82032-1.5198 0.90687-1.4441 1.9794-2.7151 0.94682-1.4104 3.8671-6.4999 0.64199-1.2217 0.53398-1.1972 0.55592-1.5613 0.50982-1.8939 0.90924-4.494 1.9183-8.055 0.87075-4.6946 0.38501-2.6191 0.46276-4.5729 0.082158-2.0378-0.017499-1.4002-0.10594-1.3791-0.16095-0.68557-2.6474-1.0961-2.0736-0.73111-6.802-1.8865-0.75678-0.23373-0.31433-0.16316 0.58595-0.063206 4.5653 0.042974 2.281-0.11161 2.9426-0.35226 2.4349-0.46459-0.18014-0.17468-0.15488-0.37554-0.080229-0.48788 0.044858-0.53654 0.21146-0.55672 0.35835-0.54491 0.46874-0.52752 0.547-0.5093 1.2339-0.96989 3.9249-2.6752 1.1557-0.8624 0.90997-0.86667 0.30089-0.43783 0.149-0.44209-0.031796-0.42276-0.17848-0.39486-0.31841-0.38637-0.4181-0.34053-0.49152-0.28255-0.54567-0.20818-2.2498-0.36016-2.0351-0.65803-0.96412-0.24157-2.1715-0.15502-0.39638-0.10419-0.28144-0.20781-0.13756-0.33142-0.025925-0.44661 0.17566-1.1549 1.2086-4.4177 0.94964-0.090585 8.913 0.37129 1.3817-0.025662 2.8669-0.21098 2.0011-0.26633 2.0199-0.36657 2.0425-0.47394 2.0211-0.58039 3.2152-1.1909 2.0353-0.96222 2.4988-1.4673 1.386-0.95775 1.7357-1.3669 1.8424-1.6281 9.9717-9.4898 5.7845-5.3701 4.3575-3.7783 2.9344-2.2845 2.9845-2.0708 3.0239-1.8041 3.0556-1.4643 3.0817-1.027 0.63333-0.14602 2.2789-0.36615 2.0883-0.17662 6.0606-0.26088 7.2492-0.53954 7.5958-0.85241 1.7324-0.009057 0.84516 0.099502 1.4428 0.32996 1.9183 0.7211 1.9105 0.99845 1.7184 1.0953 2.0466 1.5775 1.3134 1.3307 3.8325 4.6375 1.8386 1.8069 2.0596 1.6941 1.9619 1.3821 1.9587 1.098 2.7279 1.0602 1.9965 0.54883 2.4232 0.49441 2.9244 0.34608 2.6861 0.007311 2.5698-0.38242 1.6132-0.48648 2.5826-1.1729 2.7274-1.7071 2.1078-1.5887 3.8449-3.1294 0.89299-0.6489" stroke="#bdc660"/>
    </defs>
    <g clip-path="url(#pff9b486ba1)">
     <use y="280.512" fill="#bdc660" stroke="#bdc660" xlink:href="#m1babc18ff8"/>
    </g>
   </g>
  </g>
 </g>
 <defs>
  <clipPath id="pff9b486ba1">
   <rect x="7.2" y="7.2" width="274.97" height="266.11"/>
  </clipPath>
 </defs>
</svg>
