<?xml version="1.0" encoding="UTF-8"?>
<!DOCTYPE svg  PUBLIC '-//W3C//DTD SVG 1.1//EN'  'http://www.w3.org/Graphics/SVG/1.1/DTD/svg11.dtd'>
<svg width="302.3pt" height="280.51pt" version="1.1" viewBox="0 0 302.3 280.51" xmlns="http://www.w3.org/2000/svg" xmlns:xlink="http://www.w3.org/1999/xlink">
 <metadata>
  <rdf:RDF xmlns:cc="http://creativecommons.org/ns#" xmlns:dc="http://purl.org/dc/elements/1.1/" xmlns:rdf="http://www.w3.org/1999/02/22-rdf-syntax-ns#">
   <cc:Work>
    <dc:type rdf:resource="http://purl.org/dc/dcmitype/StillImage"/>
    <dc:date>2024-07-04T12:09:18.138436</dc:date>
    <dc:format>image/svg+xml</dc:format>
    <dc:creator>
     <cc:Agent>
      <dc:title>Matplotlib v3.7.1, https://matplotlib.org/</dc:title>
     </cc:Agent>
    </dc:creator>
   </cc:Work>
  </rdf:RDF>
 </metadata>
 <defs>
  <style type="text/css">*{stroke-linejoin: round; stroke-linecap: butt}</style>
 </defs>
 <g id="figure_1">
  <g id="patch_1">
   <path d="m0 280.51h302.3v-280.51h-302.3v280.51z" fill="none"/>
  </g>
  <g id="axes_1">
   <g id="PatchCollection_1">
    <defs>
     <path id="m5bb3d73266" d="m272-211.66 0.35184 1.0763 1.6697 4.4503 1.5305 4.2843 1.7505 5.3143 1.4562 4.755 0.74518 2.6994 0.31858 1.395 0.34179 2.0727 0.16281 2.1485-0.01118 2.6834-0.12737 1.8861-0.28647 2.1454-0.28985 1.3712-0.59389 2.0672-1.3606 4.1408-0.49267 2.1077-0.18117 1.7702-0.054958 3.3206 0.19671 5.5253 0.25815 3.2673 0.01876 1.0987-0.060892 1.7424-0.19357 2.884 0.093972 1.3302 0.39211 1.3236 0.62236 1.2977 1.4375 2.5779 0.69804 1.6026 0.48805 1.5731 0.26539 1.2374 0.45982 3.1209 0.24689 3.0059 0.15499 3.7937-0.065765 2.0566-0.26405 2.1653-0.4231 2.1904-1.0056 4.0684-0.57927 1.8574-1.0146 2.4997-1.2424 2.447-1.4061 2.3496-1.499 2.1876-2.0383 2.5753-2.3001 2.5753-1.5567 0.66792-4.0885 1.9319-3.0454 1.3078-3.1124 1.1463-1.7728 0.54108-2.0928 0.49985-1.9018 0.27418-1.3819 0.045381-1.341-0.10801-2.8796-0.50182-1.8215-0.23951-1.2483-0.025163-1.2011 0.15368-1.5001 0.51613-2.9833 1.6029-1.6327 0.79449-1.7457 0.61564-1.8771 0.47274-2.2603 0.4159-1.7608 0.24981-2.8467 0.31878-8.6007 0.81523-5.1383 0.63402-3.4549 0.55018-2.4993 0.54354-0.91595 0.24837-1.651 0.53835-0.8392 0.32886-1.6462 0.78025-0.81395 0.46309-1.4701 0.98989-1.4646 1.2244-0.88546 0.88387-0.72313 0.81925-0.83574 1.0817-1.0241 1.6025-0.80056 1.6556-0.52969 1.6883-0.1963 1.7029 0.024106 0.61614 0.24822 1.513 0.51121 1.6405 0.57234 1.3659 0.68337 1.3674 0.59403 1.0551 1.0044 1.6158 1.3928 2.0781 1.3652 1.9364 4.4674 6.079 1.8237 2.6125 1.3133 2.0574 1.4691 2.6456 1.0324 2.4622 0.2708 0.85721 0.39205 1.5443 0.33805 1.8367 0.29087 2.7399 0.055445 1.3738-0.015807 1.2982-0.09646 0.9029-0.13285 0.2679-2.6162-0.31027-1.7649-0.32089-1.4703-0.39345-1.1386-0.41094-1.1464-0.49237-5.0889-2.4228-7.1926-3.1287-2.6036-1.2462-0.96117-0.53409-0.96128-0.62071-0.78543-0.63783-0.71231-0.8955-0.20344-0.53451-0.060335-0.30395-0.065907-2.5388-0.12166-0.45128-0.44346-0.68815-0.33863-0.30208-0.7049-0.44244-0.67212-0.30503-1.0451-0.38431-0.91453-0.22136-0.74308-0.054763-0.88982 0.10752-0.89659 0.28492-1.0258 0.52783-2.075 1.326-1.1261 0.60452-1.0372 0.40355-1.0945 0.32879-3.1785 0.84718-1.5228 0.47218-1.2138 0.4103-1.1955 0.49429-1.2944 0.72606-1.2403 0.88417-0.77839 0.65102-1.3193 1.3724-1.1946 1.5766-0.47586 0.73251-0.78307 1.4124-0.71368 1.5094-1.1107 2.7665-1.494 4.2356-0.9454 2.4379-0.84404 1.9615-1.6034 3.3422-0.60206 1.0849-0.32337 0.36375-7.275-6.2626-4.6106-3.7656-2.1794-1.645-1.9911-1.3964-3.409-2.1265-2.259-1.2357-1.5651-0.77555-1.6832-0.7425-1.5729-0.58501-1.0977-0.33141-1.399-0.31438-2.2183-0.26198-2.0969-0.16114-1.9898-0.33678-1.6337-0.59872-1.543-0.84966-2.1053-1.5348-1.5716-1.3791-1.6786-1.6049-1.32-1.0888-1.433-0.96919-2.6521-1.425-4.4151-2.1807-3.9446-2.244-1.7592-1.1786-1.7214-1.2935-2.63-2.1141-1.3285-1.1764-1.1127-1.1405-0.83773-0.97859-0.72381-0.96055-0.82517-1.3433-0.39714-0.98144-0.098791-0.8988 0.098293-0.46753 0.16521-0.35769 1.1704-1.7348 0.63394-1.124 0.54098-1.2719 0.25429-0.85211 0.50907-2.1881 0.21503-1.3312 0.12377-2.8198 0.12292-1.3472 0.35036-1.2648 0.45679-0.83052 1.1669-1.321 4.332-3.8268 1.7861-1.6623 1.0054-1.0118 2.2369-2.466 1.9049-2.3042 1.9572-2.6219 0.92087-1.4338 0.72482-1.3789 0.26018-0.6379 0.34375-1.6699-0.21328-1.6326-0.62649-1.5891-0.8593-1.5311-0.68164-1.0416-0.98406-1.368-0.97384-1.5289-0.79068-1.6299-0.47481-1.6819-0.049412-0.38528-0.034769-0.77778 0.1167-1.3967 0.23981-1.1179 0.24263-0.70124 0.5455-0.99953 0.43207-0.52907 0.68612-0.64334 0.64807-0.49632 2.9058-1.852 1.2323-0.85385 1.3778-1.1599 0.81485-0.91371 0.82187-1.3576 0.62023-1.4995 0.51742-1.7531 0.14264-0.7689 0.12007-1.0891-0.013699-1.89-0.21466-1.9892-0.71241-4.1168-0.43856-2.0649-0.52096-2.0388-0.63265-1.9715-0.8271-2.0221-1.7157-3.5464-0.91915-1.511-1.2646-1.4895-1.4897-1.237-1.6664-0.93625-1.8066-0.56876-2.2194-0.15644-2.3423 0.18336-2.4503 0.28254-3.0249 0.14428-1.7087-0.1106-1.0634-0.13312-2.6275-0.50971-1.3069-0.34073-1.8362-0.56563-2.1661-0.78218-1.6261-0.6581-6.8742-3.0626-2.3131-0.96863-1.7317-0.64615-1.8814-0.58384-1.4436-0.32929-1.3982-0.18352-1.5965 0.017483-1.4876 0.33684-1.0741 0.52351-0.58662 0.39953-0.80509 0.68392-1.0344 1.1129-0.66901 0.86053-0.83535 1.2276-1.0134 1.7156-1.0511 2.0386-0.98465 2.1325-2.3277 5.3383-1.6738 3.2772-1.1337 1.8856-0.9799 1.4421-0.98843 1.3195-2.348 2.8011-0.91481 0.9555-0.51025 0.31512-2.3764-1.4225-5.6898-3.2292-1.6787-1.0266-1.4755-1.0772-0.619-0.57161-0.49927-0.59198-0.27771-0.46319-0.17361-0.47927-0.05682-0.66144 0.083658-0.68538 0.44691-2.1493 0.048898-2.3161-0.08205-3.7438-0.41016-2.5433-0.091125-0.82173 0.020288-0.79925 0.12615-0.61466 0.20349-0.60093 0.83057-1.9278 0.20833-0.68299 0.1399-1.2525 0.083989-2.1172-0.034246-0.74661-0.13221-0.74478-0.3073-0.83769-0.44111-0.80134-0.52203-0.73565-0.52648-0.6138-0.45687-0.44963-0.28438-0.19774 0.03458-0.15738 0.20873-0.29759 0.54898-0.62261 0.80048-0.80427 1.1967-1.0912 1.642-1.339 0.83268-0.61819 2.0126-1.3589 1.9022-1.1432 2.0205-1.094 3.3212-1.6286 7.1214-3.2605 1.6353-0.85395 1.3694-0.86406 0.68565-0.50419 0.9933-0.828 0.79403-0.74526 4.0524-4.211 2.486-2.4021 2.1021-1.8599 2.9742-2.395 2.6977-1.9806 2.6192-1.7869 2.7359-1.7489 11.542-7.0896 2.7139-1.7495 3.0086-2.0667 1.8415-1.3493 3.3434-2.6013 5.3085-4.2849 5.7234-4.8081 1.523-1.2119 1.5438-1.1478 1.559-1.0547 1.5709-0.93348 1.577-0.78119 5.4914-2.0716 3.4048-1.4102 1.054-0.47182 0.48152-0.30704-7.4e-5 0.27452 0.32047 0.77219 0.7842 1.3442 0.74671 1.0432 1.5091 1.8225 1.2058 1.316 6.8469 7.2586 1.006 1.1652 1.5816 1.9573 1.1848 1.5758 2.2833 3.3285 1.2854 2.0661 2.9559 5.0279 0.94483 1.52 0.9586 1.4051 1.0111 1.3045 0.80356 0.86801 0.83638 0.73046 0.59454 0.40695 0.85905 0.42308 1.3809 0.27433 0.98437-0.11961 1.3645-0.51946 0.89397-0.49787 3.0746-2.0036 1.1931-0.63946 0.64279-0.27809 1.4804-0.5072 2.8963-0.81423 0.77999-0.26972 0.68305-0.28026 1.178-0.59526 1.1093-0.70122 1.0754-0.82228 1.4454-1.3532 1.3299-1.5098 1.2392-1.6585 0.89857-1.3817 0.83196-1.4497 0.6558-1.2948 0.59762-1.336 0.97381-2.6265 0.46501-1.4881 1.8726-6.7068 1.0114-3.3091 0.7748-2.0962 0.89061-1.9893 0.93646-1.7056 1.0535-1.5662 1.3567-1.6168 1.1702-1.1429 0.83712-0.69873 1.4815-1.1067 6.6838-4.7703 1.6896-1.1337 3.5958-2.1848 1.5847-0.88183 2.4423-1.2414 2.471-1.1213 1.749-0.721 1.7023-0.63867 1.6873-0.56309 1.8148-0.50821 1.6719-0.35538 1.95-0.23815 2.103 0.047478 1.1401 0.23533 1.0115 0.42035 0.75144 0.53511 0.49955 0.5241 0.50044 0.70341 0.65971 1.2721 0.83966 2.2505 2.4792 8.2608 0.85004 2.6138 0.67827 1.8145 0.78729 1.8751 1.1763 2.4806 2.5183 4.8249 3.7145 7.4021 1.2428 2.2253 1.6604 2.4407 0.80368 1.0097 1.9613 2.1044 1.6511 1.5423 1.121 0.92871 1.8484 1.316 1.98 1.1471 2.0825 1.0028 1.8897 0.75074 1.7647 0.561 2.1203 0.52609 2.5227 0.47265 1.6182 0.21904 2.453 0.19559 1.4233 0.037096 1.9412-0.062248 2.9574-0.39492 2.5794-0.63195 1.8873-0.66398 0.70584-0.4276" stroke="#bdc660"/>
    </defs>
    <g clip-path="url(#pa50df061ca)">
     <use y="280.512" fill="#bdc660" stroke="#bdc660" xlink:href="#m5bb3d73266"/>
    </g>
   </g>
  </g>
 </g>
 <defs>
  <clipPath id="pa50df061ca">
   <rect x="7.2" y="7.2" width="287.9" height="266.11"/>
  </clipPath>
 </defs>
</svg>
