<?xml version="1.0" encoding="UTF-8"?>
<!DOCTYPE svg  PUBLIC '-//W3C//DTD SVG 1.1//EN'  'http://www.w3.org/Graphics/SVG/1.1/DTD/svg11.dtd'>
<svg width="324.92pt" height="280.51pt" version="1.1" viewBox="0 0 324.92 280.51" xmlns="http://www.w3.org/2000/svg" xmlns:xlink="http://www.w3.org/1999/xlink">
 <metadata>
  <rdf:RDF xmlns:cc="http://creativecommons.org/ns#" xmlns:dc="http://purl.org/dc/elements/1.1/" xmlns:rdf="http://www.w3.org/1999/02/22-rdf-syntax-ns#">
   <cc:Work>
    <dc:type rdf:resource="http://purl.org/dc/dcmitype/StillImage"/>
    <dc:date>2024-07-04T12:09:21.868630</dc:date>
    <dc:format>image/svg+xml</dc:format>
    <dc:creator>
     <cc:Agent>
      <dc:title>Matplotlib v3.7.1, https://matplotlib.org/</dc:title>
     </cc:Agent>
    </dc:creator>
   </cc:Work>
  </rdf:RDF>
 </metadata>
 <defs>
  <style type="text/css">*{stroke-linejoin: round; stroke-linecap: butt}</style>
 </defs>
 <g id="figure_1">
  <g id="patch_1">
   <path d="m0 280.51h324.92v-280.51h-324.92v280.51z" fill="none"/>
  </g>
  <g id="axes_1">
   <g id="PatchCollection_1">
    <defs>
     <path id="mfbf468b95f" d="m213.72-241.26-0.50422 0.17648-0.37076 0.31117-0.37829 0.42282-0.47211 0.7256-0.34115 0.85131-0.11983 0.67296 0.030829 0.82878 0.2105 0.83228 0.38615 0.84933 0.53115 0.81613 0.65685 0.77347 0.67386 0.6439 0.91183 0.73127 1.3472 0.91646 0.77762 0.45152 0.87227 0.43064 1.0656 0.41553 0.92967 0.25755 0.68196 0.12812 0.82672 0.09585 0.78031 0.040121 2.3165-0.003759 1.4591 0.074217 0.90284 0.13318 1.137 0.29538 0.96031 0.37066 1.0275 0.50167 0.99404 0.55879 2.8962 1.7713 4.5253 2.8317 1.2042 0.66453 0.42723 0.18994 0.51856 0.18632 0.8691 0.21647 1.2859 0.17776 0.89212 0.069311 3.0185 0.15416 0.84621 0.069866 1.1601 0.15101 0.89252 0.17069 0.8853 0.2244 1.1121 0.36903 1.107 0.4593 1.0868 0.53337 1.4465 0.82813 1.4072 0.927 1.0662 0.78033 1.0405 0.82487 1.1014 0.94286 1.0654 0.98797 0.81192 0.81256 0.78188 0.84252 0.87661 1.0317 1.0058 1.31 1.2455 1.8033 0.63029 0.98751 1.7024 2.877 1.9423 3.535 2.1297 4.1379 0.84638 1.7142 1.3855 2.9178 2.9196 6.5207 0.91287 1.8148 0.88575 1.5439 0.71381 1.0991 0.76875 1.0497 0.78006 0.93372 1.6463 1.8022 1.0228 1.2082 0.76017 1.0486 0.51942 0.89867 0.30917 0.63837 0.44261 1.0241 1.8998 4.5279 0.55589 1.4893 0.3055 0.94499 0.4747 1.7908 0.21002 1.1501 0.065916 0.59666 0.036324 0.71093-0.012944 0.90889-0.12509 1.5131-0.14448 1.1301-0.37212 2.1166-0.36359 1.5165-1.1302 3.8697-0.44775 1.9187-0.12602 0.71537-0.1515 1.1452-0.26346 2.9123-0.14758 0.89715-0.20133 0.78584-0.36697 0.97731-0.50605 0.98976-0.43632 0.6958-1.4495 2.0051-0.6395 0.93392-0.53463 0.8936-0.3122 0.59411-0.40674 0.89007-0.36679 0.98975-0.4591 1.6287-0.42167 1.9461-0.27778 1.6344-0.12443 1.2717-0.017025 1.1554 0.088043 1.2287 0.14145 0.97843 0.21122 1.0809 0.34728 1.4766 1.2071 4.472 0.21962 1.0568 0.1555 1.086 0.061641 0.75214 0.027142 0.93203-0.10382 3.0323-0.007242 0.99891 0.07293 1.2168 0.16424 1.1599 0.1809 0.94059 0.20381 0.84897 0.20475 0.69725 0.28264 0.81254 0.33516 0.8466 0.401 0.88832 0.38505 0.75344 0.48474 0.83995 0.59514 0.89582 0.50832 0.67557 0.76586 0.93853 2.8066 3.2884 0.61228 0.77884 0.78301 1.0826 0.63638 0.95062 0.78489 1.2735 2.9168 5.1967 1.2797 2.0889 2.0546 3.0526 2.5382 3.2645 0.5501 0.76503 0.53213 0.85428 0.52165 0.95316 0.37774 0.78698 0.28397 0.70513 0.20822 0.66602 0.10589 0.50444 0.031843 0.4917-0.036386 0.29348-0.23671 0.3332-0.22784 0.091017-0.43982 0.25182-3.0175 1.8397-1.8385 0.99645-0.88988 0.41662-0.95578 0.37614-1.1618 0.32492-0.42469 0.076-0.76937 0.081672-0.60672 0.019481-1.3229-0.064861-1.1803-0.14033-1.0913-0.1751-3.4337-0.72236-1.3497-0.21841-0.99762-0.078143-4.0562-0.17465-0.53693-0.001604-0.56858 0.037038-0.63081 0.12547-0.31381 0.10879-0.43377 0.20346-0.49224 0.2994-0.7543 0.58037-0.61072 0.56089-0.48501 0.50031-0.49442 0.56766-0.46512 0.62288-0.26355 0.42064-0.3022 0.58218-0.27229 0.65523-0.17591 0.50991-0.39773 1.5021-0.23964 1.2604-0.1963 1.463-0.23871 2.3064-0.17308 1.346-0.24115 1.4412-0.50957 2.4618-0.31676 1.2832-0.53236 1.7878-1.5966 4.7407-0.45698 1.2061-0.39786 0.87541-0.62235 1.117-0.6874 0.99677-0.59448 0.68086-0.43808 0.37407-0.49583 0.27816-0.49893 0.13586-0.34385 0.023526-0.34646-0.028381-0.53806-0.14266-0.53449-0.25803-0.66818-0.48982-0.50934-0.49966-0.43408-0.51115-0.52721-0.72465-0.77696-1.2896-4.8861-9.477-1.1721-2.0935-1.0503-1.622-1.0925-1.4996-0.67744-0.83618-1.6169-1.7992-0.45599-0.59489-0.37819-0.56724-0.33494-0.58426-0.44823-0.96405-0.42445-1.1904-0.57752-1.9009-0.37327-1.1069-0.29491-0.75992-0.49796-1.1312-0.62761-1.2841-0.92374-1.7139-0.5671-0.9673-0.89264-1.3535-0.90339-1.1684-1.1279-1.2867-2.5982-2.7952-2.9286-3.2493-1.1056-1.1216-0.72361-0.56276-0.69912-0.28626-0.36376 0.007026-0.456 0.19629-0.20419 0.15744-0.31072 0.32826-0.61668 0.84994-0.64465 1.0385-0.32139 0.65803-0.36133 1.0058-0.84426 3.199-0.32387 0.98424-0.26069 0.63032-0.38447 0.76183-0.46664 0.74614-0.46673 0.60834-0.47132 0.51374-1.7954 1.6555-0.87886 0.87007-0.62672 0.70644-0.64673 0.80266-1.8274 2.4632-0.83872 1.2001-0.41973 0.72857-0.17153 0.38488-0.14753 0.44817-0.10126 0.62863 0.016861 0.51933 0.14923 0.62086 0.22065 0.46615 0.43186 0.5495 0.13076 0.11841 0.47014 0.31856 0.52626 0.24453 1.4868 0.50619 0.43238 0.17841 0.50581 0.27456 0.38758 0.29689 0.25849 0.2976 0.12012 0.22569 0.060421 0.22744-0.006523 0.26898-0.23352 0.47508-0.47684 0.43451-0.66997 0.37142-0.82216 0.28311-0.62214 0.12927-0.99908 0.10947-2.6006 0.085722-0.95265 0.081255-0.91468 0.12366-0.91464 0.1664-1.1369 0.27728-0.89308 0.29846-1.0149 0.52574-0.35051 0.28532-0.54065 0.58762-0.41488 0.55653-0.58466 0.90228-0.8726 1.5216-1.4852 2.8271-0.73404 1.188-0.62633 0.829-1.493 1.7746-0.88755 1.1182-0.60562 0.87639-0.65019 1.1615-0.3843 0.94641-0.34355 1.4408-0.18324 1.5313-0.34329 4.1285-0.099624 2.188 0.008091 2.5286 0.05093 1.6359 0.033711 0.36048 0.066005 0.2873 0.33562 0.11797 0.122 0.13053 0.11645 0.20648 0.092748 0.29935 0.039985 0.38478-0.033448 0.40119-0.10785 0.3957-0.15894 0.33378-0.13081 0.19701-0.36879 0.3868-0.24578 0.17719-0.34771 0.18172-0.66953 0.21316-0.44608 0.081434-0.74432 0.070131-0.88108 0.007215-0.81064-0.046177-1.0386-0.11563-0.82567-0.12666-2.2187-0.41309-4.3396-0.95126-1.3631-0.20285-1.1906-0.088438-1.0605 0.001588-0.87562 0.056795-1.9442 0.22207-0.55247 0.02903-0.38726-0.011483-0.45504-0.069757-0.31375-0.090699-0.65499-0.30156-0.40831-0.29044-0.18996-0.18557-0.22829-0.33195-0.106-0.26243-0.33996-1.7521-0.69034-2.7911-0.3037-1.5632-0.11075-0.96569-0.04918-1.1901 0.1348-3.6366-0.004415-0.9278-0.056135-0.88372-0.15516-1.002-0.2153-0.72483-0.30432-0.65001-0.26393-0.41923-0.7204-0.82339-0.65616-0.54705-0.73135-0.48064-0.98346-0.49525-0.92413-0.3415-3.2227-0.80621-0.89118-0.27598-0.53811-0.19742-0.83728-0.36671-0.77282-0.38691-1.8031-0.96856-1.1491-0.7276-1.1195-0.84302-1.0635-0.95208-0.97741-1.0617-0.8424-1.1375-0.60088-0.97669-0.86415-1.6873-2.2262-4.7422-0.55475-1.1064-0.50177-0.89712-0.56292-0.81707-0.32895-0.39556-0.40139-0.4195-0.60642-0.52088-0.46405-0.31777-0.68539-0.36083-1.1044-0.40985-1.4118-0.35555-1.0047-0.18988-4.1738-0.66827-1.665-0.33067-1.479-0.35601-2.4217-0.71244-4.355-1.4234-1.3459-0.34641-0.44585-0.078223-0.98955-0.027157-0.85769 0.26714-0.39336 0.29637-0.41679 0.49636-0.3577 0.61921-0.44153 1.0834-0.25499 0.81848-0.231 0.87405-0.36759 1.6397-0.37022 1.9405-0.53107 3.5591-0.21151 1.1669-0.27912 1.1408-0.33217 1.0034-0.38968 0.95169-0.4399 0.9199-0.77033 1.3701-0.86118 1.2488-0.26267 0.33166-0.81051 0.9245-0.85807 0.80871-0.91259 0.64769-0.18824 0.10461-0.46082 0.21206-0.63306 0.1979-0.68289 0.12725-0.73017 0.069832-6.2722 0.077698-1.3505-0.006015-1.3532-0.061167-0.66449-0.05947-1.3864-0.2074-0.95988-0.19759-3.8514-0.88948-1.7533-0.43605-1.1441-0.32934-0.99127-0.33733-1.0769-0.45802-0.51367-0.26896-0.572-0.35401-0.77605-0.60565-0.69806-0.72258-0.62849-0.80709-0.59327-0.86741-0.85835-1.3369-1.6779-2.6768-0.78006-1.3245-0.69753-1.3748-0.41386-0.99496-0.35191-0.97146-1.1034-3.3765-0.63926-1.7568-0.58112-1.3399-0.58101-1.0934-0.60113-0.91757-0.6704-0.85562-0.72927-0.79214-0.69127-0.64827-0.72587-0.59133-1.0164-0.69226-0.6035-0.34099-0.60564-0.29171-0.62311-0.25125-1.148-0.34249-2.5-0.43008-0.93369-0.20014-0.71391-0.1888-0.67108-0.20709-1.278-0.47155-3.1641-1.4082-1.5669-0.64547-2.0442-0.71204-1.1915-0.35587-1.5849-0.41879-3.902-0.90798-0.90918-0.25097-1.1024-0.37505-0.98129-0.44082-1.1468-0.76214-0.70009-0.72666-0.47056-0.62984-0.42971-0.66065-0.93837-1.6501-0.59102-1.1583-0.98374-2.0812-9.8209-22.378-1.7049-4.0183-1.0411-2.7034-0.47544-1.3678-0.45681-1.458-0.48532-1.8039-1.3688-5.9064-0.30937-1.1337-0.33819-1.0907-0.50874-1.3913-0.28748-0.68833-0.56708-1.2221-0.81272-1.5437-0.8157-1.3727-0.59126-0.91552-1.3295-1.9037-1.9828-2.5917-2.2804-2.8004-2.9934-3.5941-0.31096-0.39161-0.1265-0.20426 0.18794 0.10398 0.41038-0.062656 1.037-0.4458 1.2849-0.77901 1.3941-1.0088 1.4118-1.1627 1.366-1.2654 1.2727-1.3367 3.4979-4.1962 1.0069-1.1435 1.0922-1.1172 2.8406-2.7119 0.82452-0.88124 0.39376-0.4712 0.42998-0.56306 0.61717-0.90596 0.72397-1.2202 1.0491-2.0463 0.58596-1.3051 0.27219-0.70474 0.34584-1.1805 0.16182-1.0312 0.21833-3.2873 0.17031-1.0857 0.31778-1.0348 0.26114-0.54702 0.29703-0.50028 0.43704-0.625 0.94307-1.1583 1.29-1.4513 3.3356-3.6328 3.7781-4.2748 0.52728-0.56063 1.1031-1.0853 2.8883-2.5635 1.789-1.6734 6.4164-6.3506 1.1896-1.073 0.68125-0.56704 0.92159-0.70242 0.93096-0.64071 0.73255-0.45811 1.108-0.62018 0.79769-0.39782 1.1142-0.49568 0.76767-0.30196 0.99735-0.32584 0.2756-0.057614 0.07448 0.010074 0.18027 0.092911 0.62711 0.51205 1.9914 1.7947 0.58906 0.47911 0.46198 0.32515 0.67554 0.38167 0.69787 0.25125 1.0066 0.087005 0.87051-0.13219 0.66995-0.20094 0.52593-0.20863 0.63308-0.31011 0.6193-0.37308 0.69702-0.52076 0.69479-0.65849 0.63512-0.78471 0.2138-0.32434 0.60273-1.1458 0.42479-1.1266 0.2554-0.94555 0.12028-0.59623 0.1869-1.3869 0.2065-1.8861 0.22286-1.0872 0.39022-1.01 0.42392-0.67049 0.52738-0.61924 0.57464-0.54723 0.63034-0.51378 5.1895-3.7616 1.246-0.84425 0.70169-0.43276 1.5408-0.8598 2.3378-1.1812 3.8102-1.8153 2.4947-1.3235 3.0534-1.72 1.9926-1.0156 0.88279-0.38535 1.4119-0.51928 3.0836-0.91139 2.0161-0.66886 1.0663-0.41469 1.1677-0.51616 0.87705-0.43986 0.8514-0.48542 0.88754-0.58476 0.85484-0.6396 0.76649-0.63343 0.74454-0.66619 0.85256-0.81995 0.82848-0.84876 3.6695-4.046 1.0454-1.0624 0.77326-0.69883 0.94809-0.74085 1.103-0.74092 1.6666-0.98282 2.0176-1.0714 0.9682-0.5768 0.57574-0.43235 0.63623-0.62844 1.1299-1.3703 0.65541-0.70872 3.0516-2.9024 0.54334-0.46922 0.55322-0.40668 0.73466-0.39299 0.95925-0.21089 0.93565 0.10265 0.8137 0.36318 0.64746 0.44166 0.80349 0.72386 0.8192 0.87472 0.30525 0.28658 0.30942 0.20986 0.28805 0.10092 0.14402 0.01458 0.34125-0.051802 0.38263-0.19652 0.28963-0.2479 0.23686-0.2559 1.6153-2.0397 0.678-0.72396 0.97836-0.94358 0.6549-0.58182 0.71309-0.57707 0.34181-0.23349 0.20893-0.077339 0.039325-0.081882 0.10112 0.055379 0.78484 1.0803 0.85306 1.0061 0.94745 0.99281 1.378 1.333 1.908 1.7199 0.67547 0.55088 0.94039 0.6336 0.53745 0.28125 0.55049 0.22031 0.92641 0.21416 0.47593 0.044618 1.0785 0.003786 2.158-0.06964 1.1077 0.025679 0.73471 0.068875 0.7364 0.13146 0.49171 0.12552 0.7411 0.26866 0.70413 0.38472 0.68818 0.51361 0.62376 0.5875 0.56071 0.63329 0.87928 1.1117 0.42338 0.47307 0.83661 0.81736 3.3631 2.8685 0.76523 0.7373 1.348 1.4674 0.62163 0.55449 0.71046 0.4202 0.714 0.20489 0.56699 0.059334 0.59974-0.003271 0.78993-0.075502 1.5547-0.28704 3.8377-0.8974 2.3567-0.42671 1.265-0.17469 1.3696-0.1155 0.7806-0.015277 1.1944 0.035792 1.1651 0.13021 1.1073 0.25901 0.36942 0.12625 1.0104 0.45196 0.89678 0.53049 0.55979 0.4041 0.33936 0.30016 0.11679 0.18905" stroke="#bdc660"/>
    </defs>
    <g clip-path="url(#p166285e39f)">
     <use y="280.512" fill="#bdc660" stroke="#bdc660" xlink:href="#mfbf468b95f"/>
    </g>
   </g>
  </g>
 </g>
 <defs>
  <clipPath id="p166285e39f">
   <rect x="7.2" y="7.2" width="310.52" height="266.11"/>
  </clipPath>
 </defs>
</svg>
