<?xml version="1.0" encoding="UTF-8"?>
<!DOCTYPE svg  PUBLIC '-//W3C//DTD SVG 1.1//EN'  'http://www.w3.org/Graphics/SVG/1.1/DTD/svg11.dtd'>
<svg width="242.5pt" height="280.51pt" version="1.1" viewBox="0 0 242.5 280.51" xmlns="http://www.w3.org/2000/svg" xmlns:xlink="http://www.w3.org/1999/xlink">
 <metadata>
  <rdf:RDF xmlns:cc="http://creativecommons.org/ns#" xmlns:dc="http://purl.org/dc/elements/1.1/" xmlns:rdf="http://www.w3.org/1999/02/22-rdf-syntax-ns#">
   <cc:Work>
    <dc:type rdf:resource="http://purl.org/dc/dcmitype/StillImage"/>
    <dc:date>2024-07-04T12:09:23.029629</dc:date>
    <dc:format>image/svg+xml</dc:format>
    <dc:creator>
     <cc:Agent>
      <dc:title>Matplotlib v3.7.1, https://matplotlib.org/</dc:title>
     </cc:Agent>
    </dc:creator>
   </cc:Work>
  </rdf:RDF>
 </metadata>
 <defs>
  <style type="text/css">*{stroke-linejoin: round; stroke-linecap: butt}</style>
 </defs>
 <g id="figure_1">
  <g id="patch_1">
   <path d="m0 280.51h242.5v-280.51h-242.5v280.51z" fill="none"/>
  </g>
  <g id="axes_1">
   <g id="PatchCollection_1">
    <defs>
     <path id="m770a8bcfdf" d="m204.04-221.3 0.057923 0.18297 0.11396 0.16945 0.78222 0.96026 1.4269 1.5871 3.3019 3.5516 1.1569 1.3231 1.2183 1.467 1.1762 1.482 1.1349 1.4864 2.1486 2.9672 1.0109 1.4796 0.96239 1.48 1.3339 2.2342 0.95643 1.7799 2.2455 4.31 0.64158 1.4291 0.25672 0.69267 0.4415 1.479 0.16907 0.71457 0.19936 1.1307 0.13974 1.4502 0.021855 1.3001-0.037579 1.0202-0.25419 4.0595-0.27533 7.81-0.12124 2.1531-0.12683 1.492-0.1387 1.1695-0.15571 1.01-0.2865 1.3923-0.33592 1.1829-0.51303 1.2966-0.18883 0.38098-0.64159 1.0989-0.69299 1.0019-1.2672 1.6003-0.73818 0.86118-1.5737 1.7394-1.7085 1.7775-2.9718 3.0096-1.164 1.1645-1.4902 1.4142-1.0261 0.87541-0.9074 0.69933-1.1233 0.77457-0.82496 0.51819-0.62188 0.35742-0.78844 0.39748-0.56029 0.24061-0.82971 0.28619-0.54829 0.13406-0.87069 0.10815-0.8586-0.025428-0.67042-0.11848-0.54588-0.15989-0.64528-0.26244-0.33749-0.17023-0.47475-0.27645-0.76714-0.53939-1.5292-1.3173-0.6106-0.46801-0.32257-0.20488-1.0001-0.4541-1.1303-0.30312-1.2207-0.16656-1.276-0.034903-1.2994 0.10176-1.2923 0.25393-1.2544 0.43302-0.20396 0.092509-0.27869 0.13789-1.1128 0.67843-1.0612 0.82202-1.0209 0.9304-0.98937 1.0114-0.96443 1.0715-0.9442 1.1158-1.5952 2.0069-1.871 2.5384-1.6766 2.4927-1.0841 1.7363-1.1432 1.9438-1.2993 2.3582-0.63406 1.2442-0.55694 1.1698-0.62157 1.4085-2.2615 5.6533-0.56822 1.3484-0.52902 1.1728-0.83305 1.6945-0.75827 1.422-1.6091 2.7984-1.6846 2.7568-2.6689 4.2577-0.81494 1.3481-0.77703 1.3516-0.72152 1.3576-0.64374 1.3662-0.53765 1.3777-0.39572 1.3927-0.22521 1.357-0.2733 3.1789-0.19635 1.4481-0.25312 1.2369-0.79656 3.1014-0.2077 0.92657-0.14353 0.87268-0.052974 0.94031 0.082945 0.70077 0.15205 0.46749 0.26735 0.51702 0.26711 0.41076 0.83454 1.2724 0.2121 0.28089 0.29949 0.30064 0.79582 0.58079 0.21957 0.27198 0.099344 0.31392-0.039279 0.63261-0.23315 0.79345-0.38895 0.91396-0.78376 1.4913-0.88483 1.5047-1.0398 1.6586-1.2636 1.9072-4.062 5.7779-1.3527 2.0174-1.1325 1.879-0.68841 1.318-0.39236 0.86537-0.34536 0.88134-0.45062 1.4377-0.35503 1.4025-0.36272 1.6266-0.682 3.5097-0.42313 2.6755-0.12253 0.98731-0.20575 2.6009-0.18577 5.1326-0.16634 2.5654-0.18437 1.6648-0.28849 1.702-0.23174 0.96856-0.3551 1.1358-0.58306 1.4263-0.45804 0.91715-0.51478 0.89578-0.99503 1.4509-0.60754 0.75006-0.91389 0.9782-0.62148 0.58499-1.0647 0.89035-1.0932 0.79892-0.54318 0.36047-1.0964 0.66428-0.9712 0.52666-1.0779 0.5037-0.10978-0.1777-0.31899-0.28214-0.52619-0.37985-0.84295-0.49865-0.94973-0.42484-0.34724-0.11867-1.0409-0.24346-1.0952-0.1224-1.1227-0.033644-0.73375 0.01436-1.2874 0.10857-1.1891 0.16421-2.2153 0.4011-3.6073 0.84353-1.4614 0.26981-0.74252 0.07097-0.56375 0.003075-0.53296-0.055773-0.67114-0.19259-0.66782-0.39498-0.58432-0.52121-1.2671-1.3793-0.7193-0.69304-3.1612-2.6964-0.7864-0.7683-0.39797-0.44467-0.8265-1.045-0.52705-0.59528-0.58632-0.55224-0.64688-0.48278-0.66187-0.36162-0.69662-0.25253-0.4622-0.11799-0.69219-0.12356-0.69061-0.064741-1.0412-0.024138-2.0285 0.06546-1.0138-0.003558-0.44736-0.041941-0.8708-0.20131-0.51745-0.20709-0.50519-0.26437-0.88395-0.59557-0.63493-0.51782-1.7935-1.6167-1.2953-1.253-0.89058-0.93322-0.80186-0.9457-0.73774-1.0154-0.095052-0.052055-0.036965 0.076967 0.076624-1.2864-0.005431-1.4022-0.10492-1.5419-0.22982-1.6036-0.43784-1.9251-0.37409-1.3429-0.34308-1.1103-1.2762-3.7293-0.34501-1.1013-0.30305-1.0835-0.5583-2.3723-0.3547-1.3491-0.15735-0.4958-0.45298-1.2102-0.55278-1.0533-0.59474-0.75661-0.22316-0.22777-0.42303-0.36385-0.44288-0.30703-0.53242-0.2831-0.50527-0.17597-0.44476-0.099445-0.66696-0.063364-2.0806 0.039203-0.78734-0.006239-0.82679-0.061936-0.83373-0.13733-0.6453-0.16165-0.88323-0.29341-0.85916-0.35408-1.0197-0.49233-1.2599-0.7112-1.6747-1.0726-3.0311-2.0771-1.127-0.69215-0.65634-0.35662-0.66718-0.32375-1.6586-0.68591-3.4988-1.2893-2.7677-1.0771-1.823-0.80714-1.3037-0.67893-0.78365-0.49558-0.77264-0.65772-0.30922-0.39029-0.24918-0.51646-0.13802-0.72402-0.036431-0.89546-0.013422-0.84517 0.12841-2.7138-0.013938-1.1718-0.052513-0.83212-0.1589-1.4426-0.6164-4.3278-0.551-3.0766-0.072439-0.72314-0.005218-0.33154 0.035719-0.46891 0.084514-0.43613 0.13506-0.45029 0.44564-0.95351 0.99687-1.5803 1.78-2.5765 0.6579-1.0949 0.31545-0.61407 0.31658-0.71409 0.28229-0.7581 0.2481-0.8085 0.15369-0.60706 0.17803-0.89417 0.098412-0.74828 0.035398-0.66788-0.04857-0.7724-0.14646-0.72489-0.80755-2.5072-0.26275-1.1527-0.18613-1.3186-0.42656-3.5486-0.39118-3.8144-0.18459-2.2349-0.26413-5.1411-0.33754-8.4998-0.21001-7.2276-0.070993-1.206-0.12738-1.4603-0.19407-1.5421-0.25226-1.5122-0.43934-2.0987-0.30023-1.1801-0.49253-1.6534-1.0147-2.9235-1.8111-4.8602-0.85997-2.5022-0.6291-1.9889-0.61819-2.2285-0.36953-1.5487-0.3336-1.5592-0.51047-2.7447-0.3997-2.5462-0.27939-2.0595-0.26259-2.3313-0.19126-2.1251-0.12603-1.8796-0.21849-6.6689-0.099421-1.764-0.085086-0.96812-0.1394-1.1019-0.13129-0.75928-0.21626-0.94914-0.26228-0.89298-0.38459-1.0413-0.52282-1.13-0.58632-1.0149-0.63725-0.86595-0.73503-0.74907-0.92608-0.66307-1.262-0.6692-3.2536-1.4979-1.0987-0.57457-0.78127-0.4526-0.76234-0.48428-0.73154-0.51307-0.70118-0.54666-0.85088-0.7569-1.019-1.0867-0.55378-0.69819-0.50098-0.72067-0.59413-1.0186-0.55473-1.28-0.24848-0.89751-0.1364-1.0085-0.003226-0.77192 0.077165-0.75308 0.16954-0.98558 0.39624-1.9941 0.21752-0.90788 0.28793-1.0148 0.48429-1.3757 0.52869-1.2034 0.30137-0.6078 0.65597-1.1955 0.6169-1.0115 1.0099-1.4891 1.0323-1.346 0.52444-0.62102 0.89062-0.96604 0.91788-0.88763 0.81139-0.69947 0.87137-0.67155 1.5918-1.0946 1.9743-1.2545 1.3482-0.89235 5.1245-3.6196 2.8052-2.1444 0.85881-0.59609 0.89405-0.54589 0.93024-0.4846 0.58014-0.25935 1.7648-0.66164 1.9864-0.6342 4.1021-1.1972 4.9536-1.2735 4.3259-0.87364 3.1774-0.72562 1.4159-0.36019 1.418-0.4296 1.7255-0.60644 7.1127-2.6636 6.7924-2.6877 5.3141-1.8928 1.511-0.60956 0.56382-0.27168 0.13552-0.084935 0.032091-0.048064 1.182-0.18761 1.8914-0.20596 1.9832-0.11642 1.293-0.01178 1.5661 0.060315 1.2939 0.11787 1.9301 0.27075 0.99337 0.18679 0.72635 0.17003 0.90651 0.27201 0.69864 0.26691 0.70048 0.33707 0.96464 0.62305 0.47525 0.38088 0.70678 0.66837 0.68044 0.73967 0.70371 0.8332 2.324 2.8764 0.43621 0.56956 0.54056 0.8227 0.19578 0.38224 0.16244 0.40733 0.18457 0.78979 0.23609 1.5839 0.3169 0.93483 0.49239 0.91709 0.47863 0.6714 1.2525 1.5905 0.60102 0.90443 1.218 2.1098 2.0175 3.6678 1.2445 2.13 1.017 1.6614 1.9423 2.9513 0.63767 1.1174 0.73554 1.483 0.72514 1.6242 0.65131 1.6916 0.33405 1.0865 0.23678 1.1117 0.090968 0.66749 0.077822 1.051 0.039313 1.2579 0.057073 0.844 0.14015 0.83016 0.24574 0.76736 0.34582 0.74129 0.30254 0.52046 0.5612 0.822 0.62962 0.76651 0.68862 0.67987 0.74158 0.55652 0.66668 0.34324 0.49726 0.1623 0.49599 0.086349 0.29069 0.014491 0.97344-0.14083 0.4672-0.14827 0.74648-0.33907 0.43853-0.243 2.072-1.299 0.7223-0.42534 1.1824-0.62416 0.86734-0.42315 1.1042-0.49258 2.1256-0.89233 3.1536-1.1555 0.97089-0.38071 1.6496-0.70025 1.2119-0.56633 0.5433-0.27864 1.0755-0.6204 4.2778-2.6845 0.99734-0.5797 1.3538-0.71518 0.9084-0.41547 0.89208-0.34015 0.32806-0.10383 1.099-0.2333 0.66752-0.044031 0.6499 0.042584 0.75873 0.17687 0.71174 0.30043 0.33588 0.19195 0.18561 0.12152 0.75067 0.60602 0.21428 0.204 1.5511 1.6873 0.56122 0.51991 0.32545 0.25938 0.36791 0.24702 0.58744 0.30071 0.78599 0.26966 0.89728 0.18233 1.0233 0.097307 0.64909 0.014765 0.67444-0.023129 0.70915-0.074154 0.56397-0.10551 0.58803-0.1641 0.59706-0.23191 0.7772-0.40596 0.89908-0.59489 0.86163-0.66455 3.0513-2.644 1.2687-0.97755 1.0206-0.66443 1.1253-0.57308 1.0733-0.34862 0.8964-0.12517 0.9211-0.004982 1.32 0.1385 3.2436 0.58718 3.2262 0.46267 0.87177 0.16359 0.6497 0.15215 0.70089 0.20203 0.7072 0.25479 0.54973 0.24284 0.95235 0.53777 1.1664 0.92081 1.0223 1.0747 0.86876 1.1334 0.67585 1.0564 0.38637 0.71598 0.13775 0.37753" stroke="#bdc660"/>
    </defs>
    <g clip-path="url(#pf88174a6c9)">
     <use y="280.512" fill="#bdc660" stroke="#bdc660" xlink:href="#m770a8bcfdf"/>
    </g>
   </g>
  </g>
 </g>
 <defs>
  <clipPath id="pf88174a6c9">
   <rect x="7.2" y="7.2" width="228.1" height="266.11"/>
  </clipPath>
 </defs>
</svg>
