<?xml version="1.0" encoding="UTF-8"?>
<!DOCTYPE svg  PUBLIC '-//W3C//DTD SVG 1.1//EN'  'http://www.w3.org/Graphics/SVG/1.1/DTD/svg11.dtd'>
<svg width="293.98pt" height="280.51pt" version="1.1" viewBox="0 0 293.98 280.51" xmlns="http://www.w3.org/2000/svg" xmlns:xlink="http://www.w3.org/1999/xlink">
 <metadata>
  <rdf:RDF xmlns:cc="http://creativecommons.org/ns#" xmlns:dc="http://purl.org/dc/elements/1.1/" xmlns:rdf="http://www.w3.org/1999/02/22-rdf-syntax-ns#">
   <cc:Work>
    <dc:type rdf:resource="http://purl.org/dc/dcmitype/StillImage"/>
    <dc:date>2024-07-04T12:09:24.736262</dc:date>
    <dc:format>image/svg+xml</dc:format>
    <dc:creator>
     <cc:Agent>
      <dc:title>Matplotlib v3.7.1, https://matplotlib.org/</dc:title>
     </cc:Agent>
    </dc:creator>
   </cc:Work>
  </rdf:RDF>
 </metadata>
 <defs>
  <style type="text/css">*{stroke-linejoin: round; stroke-linecap: butt}</style>
 </defs>
 <g id="figure_1">
  <g id="patch_1">
   <path d="m0 280.51h293.98v-280.51h-293.98v280.51z" fill="none"/>
  </g>
  <g id="axes_1">
   <g id="PatchCollection_1">
    <defs>
     <path id="m3a9f0f9803" d="m229.97-179.15 0.095598-0.12206 0.23914-0.11323 0.8404-0.22079 1.0832-0.13799 0.67934-0.027449 0.98983 0.033931 1.2565 0.14595 1.3028 0.24984 1.8468 0.49937 1.5364 0.53723 1.5309 0.64993 1.6015 0.81578 1.1209 0.67237 0.82252 0.55979 0.63038 0.47634 0.70306 0.59147 0.87706 0.84202 1.0558 1.1776 0.5823 0.72816 1.0169 1.385 0.68516 0.99548 1.0476 1.5862 3.2093 5.0496 0.60125 1.1491 0.2138 0.65073 0.14914 0.69112 0.097995 0.75356 0.060653 1.0821-0.019884 1.8181-0.13396 3.3796-0.073762 0.98019-0.15242 0.95343-0.35875 1.2847-0.75956 2.2202-0.77037 2.474-1.9668 6.8257-0.76634 2.4268-0.41981 1.1909-0.52706 1.3421-0.57812 1.2815-0.53108 1.0123-0.77718 1.2249-2.0664 2.6692-1.9896 2.7489-2.3118 2.7634-0.47954 0.66918-0.59818 1.0901-0.37662 1.1439-0.12237 1.3009 0.1179 1.2994 0.30857 1.5303 0.19269 1.1408 0.08712 1.0261-0.036452 1.0633-0.23134 1.0604-0.20234 0.49996-0.61886 1.0533-0.92925 1.1895-2.9046 3.3205-0.72839 0.91676-0.82223 1.155-0.59705 0.99723-1.4293 2.9301-0.49244 0.88343-0.53267 0.8446-0.72577 0.98061-0.4339 0.5081-1.8327 1.9884-0.59175 0.74198-0.5058 0.78641-0.28493 0.57481-0.33569 0.87458-0.35107 1.2159-0.782 3.2187-0.15495 0.98104-0.054623 0.99422 0.072932 2.8951 0.042803 0.90053 0.1129 0.8373 0.16338 0.59671 0.16348 0.39741 0.30043 0.48319 0.30027 0.31013 0.58906 0.36065 0.86971 0.27091 1.1099 0.12919 1.0636-0.007827 1.2652-0.11963 1.4985-0.2391 6.063-1.2956 2.4218-0.48437 3.0313-0.52867 1.8128-0.26672 3.1188-0.34978 2.3286-0.14327 2.2731-0.008977 2.2425 0.13863 1.0175 0.10514 2.0241 0.27652 2.9108 0.52637 3.215 0.70519 2.2946 0.57894 2.1243 0.61827 1.0077 0.33672 1.0635 0.40962 0.66773 0.30713 0.57941 0.32515 0.73511 0.61267 0.16851 0.23868 0.14344 0.31106 0.078956 0.38091-0.026591 0.40288-0.31263 0.67304-1.1743 1.3925-1.8326 2.3921-0.48989 0.59671-0.9201 0.96159-0.85592 0.71341-1.219 0.94963-0.88297 0.80357-0.75061 0.88517-0.63032 0.93148-0.53874 0.96457-0.53166 1.1323-0.38427 0.92698-1.9726 5.4599-0.5965 1.4975-0.32338 0.68805-0.35642 0.64697-0.3507 0.53325-0.77859 0.85883-0.8001 0.57542-0.92265 0.46852-1.0206 0.38584-1.4371 0.41324-4.2225 0.95272-1.373 0.35207-1.9017 0.59718-1.7064 0.63672-1.6952 0.71578-1.2291 0.5673-2.5339 1.2887-1.3031 0.71616-5.9463 3.4097-2.5881 1.361-1.0096 0.47881-1.3535 0.57678-1.3284 0.4978-4.6427 1.5748-1.5348 0.51206-1.0387 0.29397-1.0134 0.20808-1.0464 0.098188-0.49534-0.001829-0.97022-0.095238-1.275-0.30271-1.3848-0.55871-1.1958-0.67341-0.95218-0.60524-3.8078-2.5593-1.471-0.8837-1.5174-0.75175-1.6396-0.57912-1.6776-0.34154-1.6907-0.070867-0.71025 0.06073-1.2163 0.21048-1.169 0.29296-3.8036 1.1506-1.4732 0.40421-1.153 0.27141-1.2371 0.24437-1.4273 0.23485-2.6968 0.39371-3.2291 0.5211-1.6083 0.31646-1.2652 0.33768-1.3242 0.528-0.79965 0.49928-0.70003 0.68425-0.52304 0.80372-0.29047 0.68046-0.23203 0.72672-0.33022 1.2946-0.53964 3.0719-0.8791 4.366-0.47075 2.1522-0.28258 1.062-0.30385 0.89905-0.33164 0.67524-0.36694 0.3786-0.30649 0.042884-0.20774-0.10133-0.22027-0.24014-0.25577-0.4928-0.12477-0.33994-0.31677-1.1951-0.57669-2.6964-0.43582-1.6318-0.20987-0.65493-0.43763-1.1184-0.3559-0.70233-0.66496-1.0032-1.7456-2.1889-0.57839-0.8753-1.129-1.9782-0.42514-0.59891-0.55488-0.63813-0.69754-0.66043-0.43083-0.3448-0.80802-0.56446-0.45785-0.27411-0.89017-0.43091-0.84559-0.29149-0.89302-0.22569-1.5994-0.27141-0.95021-0.094429-1.3644-0.042574-1.4132 0.030415-2.0727 0.12107-1.7319 0.19158-1.0543 0.15578-2.0374 0.37121-2.5452 0.56218-4.5173 1.0836-2.2141 0.43401-0.56932 0.08351-1.3047 0.1159-1.5019-0.078165-1.4855-0.31617-0.46554-0.14927-1.2481-0.49198-1.074-0.49578-1.39-0.70504-1.5249-0.82188-4.1182-2.3279-1.3809-0.74646-1.6201-0.80092-1.368-0.59029-1.4692-0.52009-1.6873-0.44052-1.9038-0.32474-1.022-0.11007-1.0515-0.063773-0.83845-0.011664-1.3428 0.060252-1.0913 0.12424-1.0753 0.18486-0.95664 0.21205-0.96937 0.25849-1.3909 0.43971-4.8227 1.7494-2.0541 0.79682-1.6569 0.75543-0.93012 0.51762-0.63436 0.41233-0.77262 0.58361-0.69514 0.62857-1.001 1.1091-1.8791 2.4282-1.4559 1.7389-1.0723 1.1135-0.90132 0.79597-0.86362 0.6326-0.87373 0.5336-1.0301 0.52008-0.69702 0.29634-1.3351 0.46128-1.7927 0.47489-1.8242 0.36723-1.3355 0.19522-1.2743 0.12165-1.3099 0.071272-1.7653 0.022977-1.0111-0.019138-2.0081-0.087846-1.712-0.12124-1.3277-0.12852-1.6609-0.21496-6.9082-1.2094-5.0641-0.62425-1.3163-0.24777-1.005-0.32144-0.34568-0.26657-0.80387-1.3637-0.7771-1.5539-0.55678-1.3441-0.31875-0.96522-0.18466-0.72491-0.10738-0.57038-0.078791-0.69647 0.013519-1.0952 0.13167-0.78832 0.14284-0.52007 0.2313-0.63482 0.4577-0.95666 0.47706-0.80898 0.59098-0.86608 0.67924-0.88999 1.307-1.5487 3.1181-3.4697 1.9574-2.2492 2.1754-2.631 1.0323-1.3244 0.96029-1.2991 0.78246-1.1267 0.94709-1.4936 0.65654-1.1741 0.69767-1.4574 0.61123-1.4991 0.43574-1.2129 0.581-1.8153 0.45556-1.6092 0.64611-2.6623 0.46478-2.2013 1.6266-8.6283 0.75884-3.6879 0.77499-3.4063 0.45083-1.5343 0.40904-1.0209 0.48668-1.0001 0.48537-0.8746 0.52637-0.86254 0.70663-1.0647 1.1518-1.5888 1.2224-1.4964 0.88869-0.96422 1.1387-1.1131 1.294-1.142 2.1877-1.8454 1.0604-0.96391 1.4093-1.4789 0.73015-0.93418 0.55486-0.89246 0.57027-1.2904 0.39454-1.3475 0.20301-1.0401 0.10476-1.0886 0.00367-1.01-0.045793-0.8633-0.14486-1.3987-0.19466-1.1153-0.1808-0.66908-0.28886-0.74782-0.39508-0.71642-0.49143-0.66754-0.7767-0.77716-1.2244-0.78034-1.4469-0.59144-1.609-0.45047-1.7247-0.34588-1.8052-0.26817-1.859-0.20967-1.8922-0.16412-3.8224-0.21828-3.7887-0.074813-1.8504 0.029031-1.8011 0.087246-1.7325 0.16059-1.6394 0.25299-3.5575 0.81095-1.0407 0.1432-0.74558-0.00317-0.69628-0.10772-0.94059-0.29942-0.52875-0.23911-0.52952-0.28627-1.1224-0.74789-0.97014-0.79099-1.1672-1.1212-1.1567-1.2884-0.80076-0.99703-0.78947-1.0618-2.7245-3.8689-3.0681-4.0379-1.1701-1.591-0.66413-0.96187-1.118-1.7661-0.98284-1.7476-0.55973-1.0858-0.73762-1.5311-1.1891-2.682-1.1545-2.8603-0.67883-1.8119-0.6053-1.7185-0.92993-2.8549-3.8302-13.005-0.82555-2.9821-0.44993-1.9134-0.16342-0.88198-0.14118-1.2426-0.006687-0.65501 0.061419-0.58692 0.16784-0.58551 0.22418-0.39606 0.3595-0.33523 0.63177-0.27012 2.3796-0.5521 1.2-0.38784 1.1996-0.51514 1.1076-0.65923 0.78865-0.59726 0.74124-0.65085 0.55843-0.5422 0.92029-1.0128 0.57605-0.84741 0.50254-0.92896 0.44985-0.97762 0.36855-0.90364 0.30655-0.92175 0.32563-1.4423 0.22088-1.192 0.19403-1.4982 0.06769-1.4098-0.006009-1.0392-0.066305-1.2385-0.099576-0.99158-0.26605-1.6734-0.30496-1.3333-0.55899-1.888-1.2977-3.5822-0.25088-0.77032-0.26843-1.0705-0.10134-0.68783-0.028625-0.46129 0.045622-0.79445 0.1394-0.69427 0.24516-0.84162 0.97408-2.9457 0.23831-0.90086 0.20906-1.1122 0.084299-0.94636-0.010564-0.81661-0.077512-0.71094-0.24261-1.4767-0.060277-0.56432-0.004752-0.48281 0.071309-0.56845 0.20953-0.68446 0.18964-0.40305 0.27834-0.47086 0.30851-0.44217 0.96395-1.1678 1.6807-1.8693 1.0284-1.1955 1.1165-1.3702 1.3155-1.7798 0.8615-1.31 0.45463-0.76277 0.51354-0.95057 0.44276-0.92657 0.37224-0.89018 0.29319-0.80554 0.28236-0.90922 0.22455-0.87775 0.27454-1.5414 0.05293-0.50521 0.034359-1.5193-0.086511-1.0254-0.12102-0.68046-0.14101-0.45298-0.18113-0.20052 0.30096 0.016844 0.50024-0.18326 0.78121-0.42645 0.83764-0.59723 0.69809-0.63948 0.42752-0.48883 0.49084-0.65216 1.343-1.9368 0.68297-0.7542 0.64056-0.53349 0.55575-0.36753 0.63355-0.34056 0.5214-0.23642 0.54202-0.19702 0.88864-0.20799 0.9399-0.1041 0.8416-0.01991 0.89011 0.036676 0.81459 0.07333 5.0175 0.63811 2.8316 0.27366 1.2528 0.050648 1.1167-0.026094 0.89219-0.086308 0.75302-0.12539 0.74482-0.16998 0.73816-0.2117 1.4501-0.54243 0.64018-0.28974 1.2545-0.63751 3.0099-1.7083 1.8214-0.98115 1.5465-0.69713 0.64912-0.2392 1.328-0.39952 1.8741-0.41134 2.8083-0.48121 3.6494-0.80493 1.2964-0.2188 4.1351-0.53283 4.9669-0.53459 0.017562 0.2836 0.21705 0.68901 0.38114 0.9578 0.48101 1.0469 2.0186 4.0708 2.2441 4.6831 1.0007 1.9168 0.53929 0.92651 0.76168 1.1491 0.47231 0.60822 0.37548 0.42476 0.61608 0.59527 1.1332 0.96413 0.63504 0.59404 0.43408 0.48277 0.42894 0.56531 0.39808 0.59949 0.50471 0.86149 0.31245 0.5907 1.7179 3.5687 0.47825 0.90696 0.93397 1.6155 1.0586 1.5754 0.51752 0.67407 1.1332 1.315 0.90655 0.9322 0.99626 0.92868 1.3317 1.1321 1.1242 0.88992 4.0759 2.9886 6.9701 5.2781 5.514 4.3655 2.2023 1.5628 1.545 0.96595 0.69214 0.38742 1.2458 0.62868 0.81072 0.3569 0.86352 0.32439 1.2026 0.35554 1.0834 0.22136 1.2117 0.14772 1.3399 0.056089 1.3527-0.076983 1.6228-0.21388 1.4563-0.25823 1.4886-0.35597 2.3384-0.72592 4.6538-1.6039 7.2998-2.2878 4.2861-1.3034 4.2845-1.1846 2.8146-0.82658 2.1404-0.6635 1.9401-0.65655 1.3218-0.49883 1.4636-0.62522 4.9898-2.395 1.3833-0.63406 1.7456-0.7119 0.72125-0.24544 1.2151-0.33514 0.75873-0.1626 0.87342-0.14745 1.3387-0.13694 0.62425-0.006456 0.53663 0.049431 0.56623 0.1388 0.40478 0.18504 0.33325 0.24139 0.28292 0.29556 0.31801 0.47478 0.18917 0.38484 0.14716 0.38191 0.15352 0.54124 0.15864 0.93028 0.10947 1.3848 0.04008 1.4565-0.067206 4.6857 0.02887 2.2797 0.1138 1.3328 0.14949 1.0036 0.19593 0.95518 0.24438 0.93449 0.26726 0.85857 0.34974 0.99116 1.0852 2.807 0.70813 2.051 0.67299 2.217 0.4712 1.7745 0.48136 2.0364 0.49593 2.4718 0.24018 1.5079 0.5864 4.2806 0.20841 1.0883 0.19828 0.82318 0.31759 1.0567 0.39249 1.0484 0.46643 1.03 0.88785 1.5972 0.84019 1.2889 4.3674 6.4004 1.2302 1.7051 0.87722 0.9844 0.66258 0.58065 0.985 0.67142 0.62444 0.33204 0.6377 0.269 0.70501 0.21044 0.76299 0.10626 0.60566-0.03004 0.50192-0.12813 0.35132-0.16408 0.29449-0.20029 0.56745-0.62038 0.42541-0.785 0.34635-1.0355 0.30919-1.7602 0.097003-1.2219 0.034751-1.0616-0.002465-1.4846-0.15261-4.1753 0.029565-0.24464" stroke="#bdc660"/>
    </defs>
    <g clip-path="url(#p25cf1b75cd)">
     <use y="280.512" fill="#bdc660" stroke="#bdc660" xlink:href="#m3a9f0f9803"/>
    </g>
   </g>
  </g>
 </g>
 <defs>
  <clipPath id="p25cf1b75cd">
   <rect x="7.2" y="7.2" width="279.58" height="266.11"/>
  </clipPath>
 </defs>
</svg>
