<?xml version="1.0" encoding="UTF-8"?>
<!DOCTYPE svg  PUBLIC '-//W3C//DTD SVG 1.1//EN'  'http://www.w3.org/Graphics/SVG/1.1/DTD/svg11.dtd'>
<svg width="208.1pt" height="280.51pt" version="1.1" viewBox="0 0 208.1 280.51" xmlns="http://www.w3.org/2000/svg" xmlns:xlink="http://www.w3.org/1999/xlink">
 <metadata>
  <rdf:RDF xmlns:cc="http://creativecommons.org/ns#" xmlns:dc="http://purl.org/dc/elements/1.1/" xmlns:rdf="http://www.w3.org/1999/02/22-rdf-syntax-ns#">
   <cc:Work>
    <dc:type rdf:resource="http://purl.org/dc/dcmitype/StillImage"/>
    <dc:date>2024-07-04T12:09:10.325084</dc:date>
    <dc:format>image/svg+xml</dc:format>
    <dc:creator>
     <cc:Agent>
      <dc:title>Matplotlib v3.7.1, https://matplotlib.org/</dc:title>
     </cc:Agent>
    </dc:creator>
   </cc:Work>
  </rdf:RDF>
 </metadata>
 <defs>
  <style type="text/css">*{stroke-linejoin: round; stroke-linecap: butt}</style>
 </defs>
 <g id="figure_1">
  <g id="patch_1">
   <path d="m0 280.51h208.1v-280.51h-208.1v280.51z" fill="none"/>
  </g>
  <g id="axes_1">
   <g id="PatchCollection_1">
    <defs>
     <path id="m4c860b91a9" d="m186.46-161.67-3.8606 2.1721-3.2388 1.9358-1.6669 1.0593-3.2058 2.1793-3.0452 2.2785-1.5744 1.2908-1.4903 1.3233-1.3911 1.3632-1.3211 1.4728-1.1653 1.5399-0.72196 1.1537-0.6164 1.1956-0.55036 1.3694-0.41623 1.411-0.27304 1.3524-0.1724 1.3741-0.091976 1.7348 0.024964 1.7483 0.11922 1.6769 0.3816 2.8346 0.45569 2.2983 0.58845 2.4436 0.86293 3.0865 0.57196 1.7562 0.53788 1.4447 0.61002 1.3994 4.4936 8.4434 2.4853 5.1801 0.79847 1.7732 0.47359 1.259 0.74519 2.827 0.69404 2.3063 1.1675 3.5322 1.06 2.9637 0.7107 1.7505 1.4397 3.2064 0.85286 1.6168 0.35119 0.5583 0.18841 0.19232-1.41 1.4395-0.64312 0.7491-1.4627 2.1106-1.7473 2.2145-0.65621 1.0089-0.51842 0.94358-0.49964 1.2982-0.4616 1.4614-0.76504 3.3904-1.2074 3.7498-0.58467 1.4319-1.4941 3.2367-0.41533 1.1278-0.13372 0.52171-0.1429 1.1109-0.007461 0.43849 0.067747 0.77502 0.2345 0.83259 0.41717 0.83978 0.58988 0.84432 0.88027 1.0211 0.53296 0.52143 1.9484 1.6525 0.88564 0.89375 0.59637 0.77351 0.12054 0.27738-0.041538 0.12981-0.14211 0.031937-0.46703 0.45176-1.8544 2.3945-0.79723 0.88654-0.73792 0.66071-0.77717 0.56793-1.005 0.57049-2.9516 1.3431-2.0326 1.1046-3.2345 2.0029-4.9443 2.9391-1.8963 1.2988-1.219 0.93461-2.1512 1.8626-2.3806 2.3286-1.0228 1.103-0.97596 1.1506-2.6058 3.5279-0.3464 0.37188-0.47079 0.36057-0.19391 0.062966-0.061835-0.10969-0.19328-0.14741-0.78122-0.15608-1.0507-0.017503-1.057 0.06644-3.6471 0.38112-9.0449 1.0992 0.068302-0.18021 0.035326-0.36114-0.072714-0.76824-0.204-0.99198-0.5087-1.8074-1.2623-3.6086-0.94265-2.4202-1.071-2.3839-0.88849-1.6084-1.2648-1.8744-1.5817-1.8616-1.2247-1.1715-0.60307-0.50695-1.2111-0.90399-1.9281-1.2282-3.6938-2.0604-1.7816-1.0851-1.9032-1.4047-1.7916-1.5773-1.682-1.7101-1.5679-1.8121-1.4421-1.8912-1.2966-1.9532-1.1226-2.0031-0.9103-2.0441-0.67203-2.0366-1.1009-3.9666-0.67649-1.8199-0.93226-1.6265-1.124-1.2348-1.3727-1.069-1.5688-0.9404-1.7222-0.84234-2.2476-0.92529-2.376-0.84759-2.4692-0.7925-5.1207-1.481-4.8545-1.2955-4.9285-1.2501-4.9877-1.1963-5.7399-1.2573-2.9058-0.57906-2.9338-0.53501-5.1253-0.78779-2.5978-0.32283-4.7304-0.44468-7.6808-0.48791-3.5467-0.27232-2.0057-0.21804-2.0836-0.32614-1.8487-0.44858-0.86749-0.30963-0.98112-0.50352-0.61904-0.50889-0.17067-0.27978-0.014672-0.27958 0.10007-0.16805-0.085064-0.1899-0.08247-0.53698-0.043202-0.66204 0.041763-1.0795 0.11154-0.74961 0.18073-0.75171 0.25065-0.75117 0.75108-1.8326 0.23947-0.72342 0.14872-0.70985 0.063763-0.71388-0.020169-0.70787-0.10638-0.69229-0.36737-1.1706-0.42944-1.0886-1.0412-2.3739-0.53268-1.4124-0.22342-0.71984-0.30701-1.3987-0.079815-0.70809-0.017196-0.91984 0.069949-0.92238 0.10388-0.69867 0.3038-1.393 1.0625-3.6989 0.39784-1.6126 0.1995-1.459-0.009086-2.7659 0.14162-1.7678 0.41231-2.7457 0.38515-1.5491 0.25277-0.73602 0.30789-0.70671 0.37298-0.66439 0.41391-0.57707 0.92956-1.0035 1.3757-1.168 0.27753 0.15845 0.354 0.065053 1.583 0.077744 1.6524-0.12454 1.9376-0.34955 2.3231-0.60326 1.6833-0.51294 1.9991-0.67556 1.9214-0.7316 2.1288-0.95395 1.9222-1.0391 1.3923-0.88289 1.577-1.1516 1.3876-1.1582 1.9128-1.759 1.5463-1.5689 1.2659-1.4065 0.62527-0.75692 0.86296-1.1651 0.8423-1.3681 0.85496-1.7062 0.67319-1.5742 1.5515-4.0542 1.0109-2.1542 0.99276-1.7378 3.958-6.2139 0.9894-1.7646 0.67353-1.3433 0.68691-1.5957 0.40995-1.1202 0.9313-2.917 0.45148-1.5966 0.30198-1.3441 0.12525-0.80544 0.085812-1.5591-0.079395-1.1911-0.52565-3.0065-0.18192-1.7858 0.034228-1.3446 0.44909-3.4045 0.020039-0.83005-0.068564-0.79351-0.37247-2.2484-0.13553-1.8017 0.023402-1.0202 0.068587-0.7623 0.17189-1.0864 0.30024-1.2304 0.30885-0.94652 0.77769-1.792 0.80605-1.4028 1.1899-1.6405 1.0104-1.2206 1.2216-1.3866 1.2871-1.3395 0.80872-0.76883 3.6624-3.2232 0.42441-0.44788 0.064604 0.48727 0.23316 0.57575 0.36824 0.68879 0.73682 1.0097 0.61222 0.66003 0.63905 0.58266 1.1503 0.82594 0.8882 0.45832 0.9327 0.31597 1.2698 0.16846 1.3036-0.072646 1.5495-0.32138 1.5284-0.49579 1.6916-0.68839 2.0446-0.94516 1.1872-0.64212 0.62681-0.43486 0.61744-0.54451 1.8714-2.0501 0.5171-0.50549 0.92065-0.72406 0.59664-0.3609 0.58475-0.28782 0.93424-0.34387 0.7201-0.17596 0.73381-0.10734 2.3908-0.2051 0.94555-0.13626 1.1982-0.26815 0.85442-0.27163 0.90057-0.37914 0.9262-0.50838 11.229-6.8689 2.8109-1.8161 1.3172-0.90586 2.8722-2.1586 1.3496-1.1214 1.3325-1.2075 1.265-1.2787 1.2221-1.4165 1.111-1.5116 1.2104-2.0065 1.0693-2.1188 0.98083-2.1906 1.8765-4.4362 0.9765-2.1553 0.94836-1.8619 1.0161-1.7238 1.8219-2.6772 0.9493-1.6155 0.59927-1.4642 0.35102-1.3546 0.11986-1.0708-0.11861-0.56328 0.57012 0.52676 3.7823 2.9394 4.4296 3.639 4.637 3.9625 2.6243 2.3784 2.8085 2.6981 1.6369 1.6809 2.075 2.265 2.6695 3.0673 1.4925 1.8218 1.0008 1.3559 1.0291 1.5516 1.1421 1.924 1.0314 1.9172 1.1322 2.2858 2.0815 4.5244 0.7427 1.7877 0.60726 1.7896 0.32306 1.2731 1.0907 5.1071 0.53935 1.8264 0.33627 0.95516 0.89413 2.1903 0.80956 1.7605 3.0849 6.2699 1.1659 2.4981 1.0212 2.3646 0.56495 1.4287 0.8548 2.5047 0.46285 1.6549 0.53126 2.5288 0.18389 1.4082 0.069723 1.1367-0.01829 1.102-0.1178 1.046-0.232 0.99513-0.24064 0.66999-0.4139 0.85205-0.71704 1.1051-0.86313 1.063-1.5913 1.7713-0.8439 1.0828-0.62858 1.0332-0.56171 1.2179-0.31174 0.89434-0.27269 1.0631-0.13756 0.79085-0.11462 1.5951 0.070002 1.5367 0.13988 1.1638 0.25052 1.3323 0.19442 0.72565 0.3339 0.90081 0.44182 0.58654" stroke="#bdc660"/>
    </defs>
    <g clip-path="url(#p15d0eb85c1)">
     <use y="280.512" fill="#bdc660" stroke="#bdc660" xlink:href="#m4c860b91a9"/>
    </g>
   </g>
  </g>
 </g>
 <defs>
  <clipPath id="p15d0eb85c1">
   <rect x="7.2" y="7.2" width="193.7" height="266.11"/>
  </clipPath>
 </defs>
</svg>
