<?xml version="1.0" encoding="UTF-8"?>
<!DOCTYPE svg  PUBLIC '-//W3C//DTD SVG 1.1//EN'  'http://www.w3.org/Graphics/SVG/1.1/DTD/svg11.dtd'>
<svg width="353.01pt" height="280.51pt" version="1.1" viewBox="0 0 353.01 280.51" xmlns="http://www.w3.org/2000/svg" xmlns:xlink="http://www.w3.org/1999/xlink">
 <metadata>
  <rdf:RDF xmlns:cc="http://creativecommons.org/ns#" xmlns:dc="http://purl.org/dc/elements/1.1/" xmlns:rdf="http://www.w3.org/1999/02/22-rdf-syntax-ns#">
   <cc:Work>
    <dc:type rdf:resource="http://purl.org/dc/dcmitype/StillImage"/>
    <dc:date>2024-07-04T12:09:23.327835</dc:date>
    <dc:format>image/svg+xml</dc:format>
    <dc:creator>
     <cc:Agent>
      <dc:title>Matplotlib v3.7.1, https://matplotlib.org/</dc:title>
     </cc:Agent>
    </dc:creator>
   </cc:Work>
  </rdf:RDF>
 </metadata>
 <defs>
  <style type="text/css">*{stroke-linejoin: round; stroke-linecap: butt}</style>
 </defs>
 <g id="figure_1">
  <g id="patch_1">
   <path d="m-0 280.51h353.01v-280.51h-353.01v280.51z" fill="none"/>
  </g>
  <g id="axes_1">
   <g id="PatchCollection_1">
    <defs>
     <path id="mf7ee382d2e" d="m275.53-213.53-2.4539 4.8454-0.69896 1.6622-0.77037 2.3987-0.37264 2.0967-0.034639 1.9758 0.11048 1.0412 0.1702 0.90916 0.52994 1.7375 0.72071 1.5336 1.3842 2.0445 1.2277 1.3959 1.4132 1.3718 2.0135 1.6852 1.0878 0.77816 2.7978 1.5899 5.7045 2.4772 1.6916 0.90063 1.9372 1.347 2.2965 2.2102 4.1037 4.5944 3.1411 2.9586 8.8983 7.1508 3.0864 2.6717 1.921 1.8117 1.9437 2.0907 0.89539 1.1492 0.95541 1.4518 1.2766 2.387 1.2652 2.7885 0.7848 2.0182 0.84872 3.0316 0.28715 1.9535 0.10431 2.35-0.093872 2.3451-0.48236 3.8319-1.5578 6.2616-0.89388 4.5423-0.22674 1.7448-0.22352 3.5079 0.11164 3.4724 0.22811 1.8506 0.36546 1.821 0.57028 1.9446 0.74018 1.8822 1.6871 3.2094 3.3445 5.3452 1.2846 2.4776 1.0308 2.7521 0.63638 3.0273 0.10921 1.6443-0.073177 1.5472-0.43727 2.0517-0.8727 1.6897-0.90398 0.535-0.26026-0.36185-0.55643-0.48587-1.628-1.117-1.2548-0.70592-1.3431-0.60734-1.3576-0.4521-1.6154-0.32318-1.0957-0.091861-2.2018 0.089891-1.8241 0.31801-1.7154 0.48202-1.6525 0.62354-1.8862 0.9021-1.6746 0.97572-1.8147 1.2544-1.3509 1.077-2.9277 2.7477-6.2006 6.4169-2.8417 2.511-2.4298 1.8691-2.7488 1.8373-4.208 2.3023-3.5509 1.5043-3.8595 1.1943-3.642 0.72554-2.8294 0.30884-2.4966 0.11621-17.169-0.29972-6.2208 0.093909-3.2867 0.17209-3.2695 0.25807-13.434 1.4447-11.941 0.9871-2.8598 0.44166-2.0292 0.4449-3.3413 0.9753-3.2368 1.2251-3.3494 1.5483-11.163 6.0965-3.0093 1.3975-2.0825 0.74247-3.6941 0.72478-6.0462 0.53587-3.1024 0.76188-1.3165 0.59082-1.9194 1.2886-1.8413 1.7093-2.3696 2.5876-5.1129 6.1179-2.082 2.1013-1.1039 0.96496-2.9181 2.0406-2.4573 1.2224-2.5055 0.82051-1.3356 0.25697-2.8477 0.2252-2.8123 0.065296-2.9203 0.18936-2.6569 0.42918-9.2851 2.2605-3.1115 0.54115-3.1216 0.26476-3.5-0.08908-6.1818-0.58842-4.1065-0.14048-5.5571 0.17236-10.018 0.49375-6.1152-0.013048-3.0239-0.21377-6.614-0.97126-4.9187-0.19527-1.9757-0.37425-2.0369-0.671-1.7813-0.81646-3.8367-2.0056-2.0963-1.1862-3.0533-2.0169-3.1089-2.3997-2.9093-2.5536-2.866-2.7957-3.0002-3.2307-2.872-3.4151-2.6279-3.4666-3.8863-5.7774-1.6129-2.6685-2.7074-5.1055-1.0693-2.4105-0.9794-2.6789-0.67181-2.6085-0.37828-3.224-0.11986-5.6166 0.042391-2.4401 0.38046-5.0359 0.17821-4.7961 0.23776-3.5663 0.34051-2.0518 0.8964-2.9772 1.2475-2.8234 2.9989-5.5013 1.4794-3.2166 1.5371-4.2768 0.94635-3.2937 0.88604-3.8978 0.41596-2.6351 0.19501-2.7494 0.14605-6.1311 0.29228-4.1879 0.75615-4.1545 0.76454-2.4067 0.97202-2.3609 5.9504-11.631 1.5186-3.6972 0.89617-3.8137 0.08179-1.4137-0.22157-2.3522-0.63561-2.302-1.0276-2.2662-1.3157-2.1461-1.9511-2.6119-1.9832-2.2501-1.7163-1.6538-1.107-0.75321 0.15197-0.22262 1.3364-0.68015 3.5037-1.1032 3.3946-0.70957 7.6607-0.96521 1.6768-0.28805 0.78329-0.20653 1.3321-0.52328 0.86142-0.46405 1.9164-1.4082 1.0225-0.96177 1.666-1.8554 1.2645-1.7185 2.0734-3.7078 0.64886-0.82412 0.73564-0.66784 0.83758-0.5557 0.92646-0.46413 1.5435-0.56409 1.8712-0.48332 5.6835-0.89736 1.6907-0.34528 6.7154-1.8932 7.2581-2.4654 16.219-5.9278 8.0002-3.3192 6.5386-2.4995 3.9252-1.7174 4.1087-2.0539 9.6556-5.1249 3.7949-1.6715 4.1476-1.2971 10.468-2.586 2.0099-0.65462 1.9433-0.78633 1.6983-0.85598 4.4579-2.7167 2.7731-1.956 1.3593-1.0724 2.575-2.3674 5.1174-5.4652 1.532-1.4898 1.6122-1.4075 1.7168-1.2871 1.7085-1.0641 1.7956-0.96367 6.0652-2.9239 5.5482-2.8263 3.733-1.4519 1.8967-0.49856 0.1239 0.36584 1.2414 1.5206 2.0559 1.865 2.0708 1.4169 4.8882 2.887 2.3536 1.8823 2.1358 2.1413 6.616 7.9383 3.2408 3.4981 2.2641 2.1384 2.3478 1.9483 2.4307 1.7436 4.221 2.6876 1.2611 1.0121 0.96154 0.97554 3.6835 4.5258 2.0466 2.3202 2.438 2.3449 1.3252 1.039 1.6516 1.0393 0.99725 0.49581 1.844 0.6414 1.2261 0.2691 3.2165 0.37413 7.7104 0.27509 4.4258 0.34429" stroke="#bdc660"/>
    </defs>
    <g clip-path="url(#p83ec1b3271)">
     <use y="280.512" fill="#bdc660" stroke="#bdc660" xlink:href="#mf7ee382d2e"/>
    </g>
   </g>
  </g>
 </g>
 <defs>
  <clipPath id="p83ec1b3271">
   <rect x="7.2" y="7.2" width="338.61" height="266.11"/>
  </clipPath>
 </defs>
</svg>
