<?xml version="1.0" encoding="UTF-8"?>
<!DOCTYPE svg  PUBLIC '-//W3C//DTD SVG 1.1//EN'  'http://www.w3.org/Graphics/SVG/1.1/DTD/svg11.dtd'>
<svg width="371.52pt" height="217.55pt" version="1.1" viewBox="0 0 371.52 217.55" xmlns="http://www.w3.org/2000/svg" xmlns:xlink="http://www.w3.org/1999/xlink">
 <metadata>
  <rdf:RDF xmlns:cc="http://creativecommons.org/ns#" xmlns:dc="http://purl.org/dc/elements/1.1/" xmlns:rdf="http://www.w3.org/1999/02/22-rdf-syntax-ns#">
   <cc:Work>
    <dc:type rdf:resource="http://purl.org/dc/dcmitype/StillImage"/>
    <dc:date>2024-07-04T12:09:26.645105</dc:date>
    <dc:format>image/svg+xml</dc:format>
    <dc:creator>
     <cc:Agent>
      <dc:title>Matplotlib v3.7.1, https://matplotlib.org/</dc:title>
     </cc:Agent>
    </dc:creator>
   </cc:Work>
  </rdf:RDF>
 </metadata>
 <defs>
  <style type="text/css">*{stroke-linejoin: round; stroke-linecap: butt}</style>
 </defs>
 <g id="figure_1">
  <g id="patch_1">
   <path d="m0 217.55h371.52v-217.55h-371.52v217.55z" fill="none"/>
  </g>
  <g id="axes_1">
   <g id="PatchCollection_1">
    <defs>
     <path id="m8e688498db" d="m111.26-198.34 0.095686 0.1545 0.2352 0.29621 2.2642 2.7185 1.7249 2.1182 1.4998 1.9603 1.0056 1.4399 0.44722 0.69248 0.61698 1.0383 0.61473 1.1677 0.42893 0.92437 0.21745 0.52064 0.3848 1.0524 0.2558 0.82497 0.234 0.85748 1.0353 4.4675 0.36709 1.3644 0.34552 1.1028 0.35962 1.0346 0.7875 2.0448 1.2896 3.0394 7.4284 16.927 0.74408 1.5742 0.44704 0.87614 0.70977 1.2481 0.32503 0.49971 0.35593 0.4764 0.52954 0.54964 0.86746 0.57647 0.74224 0.33343 0.83381 0.28368 0.68769 0.18983 2.9514 0.68678 1.1988 0.31677 0.90122 0.26917 1.5462 0.53857 1.1852 0.48822 2.3932 1.0651 0.96667 0.35668 0.50759 0.15664 0.53999 0.1428 0.70623 0.15138 1.891 0.32531 0.86832 0.25905 0.47131 0.19004 0.4581 0.22065 0.45648 0.25792 0.76881 0.52361 0.54904 0.44727 0.52286 0.49034 0.55161 0.59917 0.50708 0.64718 0.45468 0.69404 0.43946 0.82702 0.43955 1.0135 0.48353 1.3288 0.83457 2.5539 0.26618 0.7348 0.31303 0.75257 0.5276 1.0399 0.59003 1.0018 1.2691 2.0247 0.64924 1.0112 0.44874 0.65609 0.47538 0.61047 0.528 0.54655 0.58699 0.4581 0.43265 0.26777 0.38853 0.20344 0.81456 0.34644 0.74978 0.25515 0.86541 0.24911 1.3262 0.32982 2.9131 0.67279 0.72604 0.14946 1.0487 0.15687 0.50261 0.044983 1.0235 0.046265 1.0215 0.00455 4.7442-0.05877 0.55229-0.052819 0.51653-0.096252 0.47884-0.14968 0.34856-0.1604 0.14238-0.079124 0.69027-0.48991 0.64903-0.6117 0.61306-0.69928 0.19868-0.25087 0.65138-0.94456 0.58267-1.0363 0.33273-0.6958 0.29474-0.71985 0.25125-0.75899 0.21112-0.86285 0.15998-0.88263 0.4017-2.6921 0.28002-1.4678 0.27804-1.2402 0.17472-0.66112 0.19287-0.61908 0.33397-0.81947 0.27056-0.46836 0.31525-0.37544 0.29753-0.22417 0.64874-0.20206 0.74848 0.020541 0.33724 0.059167 1.018 0.26202 3.294 1.0767 1.8317 0.53888 1.1187 0.26928 1.2594 0.25012 3.157 0.50547 0.75995 0.14362 1.0678 0.26894 0.83537 0.31 0.51842 0.27292 0.351 0.24036 0.45868 0.39399 0.3036 0.3173 0.24882 0.2992 0.42578 0.61802 0.37953 0.67856 0.4196 0.83688 1.6839 3.5869 0.65363 1.2762 0.4545 0.73876 0.63718 0.8604 0.7393 0.80303 0.80441 0.72014 0.84676 0.63765 0.86914 0.55034 1.3638 0.73261 0.58455 0.29266 0.63331 0.27737 0.40702 0.14933 0.67407 0.20874 2.4376 0.60981 0.699 0.2583 0.74388 0.3746 0.55318 0.36355 0.49631 0.41378 0.5449 0.6228 0.19963 0.3171 0.23018 0.49166 0.16285 0.54825 0.11736 0.75791 0.04246 0.66843 0.003339 0.70177-0.10196 2.7507 0.037198 0.90015 0.083769 0.73043 0.22971 1.1824 0.52216 2.1112 0.25714 1.3253 0.080178 0.1985 0.17268 0.25108 0.14368 0.14036 0.30884 0.21968 0.49542 0.22809 0.23731 0.068603 0.34418 0.052764 0.29292 0.008685 0.41788-0.021957 1.4706-0.16797 0.66231-0.042959 0.80216-0.001201 0.90053 0.066893 1.031 0.15343 3.2824 0.71952 1.6782 0.31245 0.62452 0.095807 0.78558 0.087458 0.61315 0.034928 0.66643-0.005457 0.56299-0.053047 0.33741-0.061595 0.50642-0.16123 0.263-0.13745 0.1859-0.13403 0.27894-0.29257 0.098942-0.14902 0.12022-0.25247 0.081577-0.2993 0.0253-0.30346-0.030244-0.29104-0.070153-0.22642-0.088078-0.15618-0.092276-0.098732-0.25386-0.089228-0.049925-0.21731-0.025499-0.27266-0.038522-1.2374-0.00612-1.9126 0.075353-1.655 0.25966-3.1227 0.1386-1.1582 0.25986-1.0898 0.29068-0.71585 0.4918-0.87856 0.45808-0.66289 0.67133-0.84575 1.1293-1.3422 0.47375-0.62704 0.55522-0.89861 1.1233-2.1384 0.66002-1.1509 0.44223-0.68247 0.31381-0.42095 0.40894-0.44446 0.26512-0.21581 0.76762-0.39766 0.67551-0.22575 0.85994-0.20973 0.69182-0.12587 0.69185-0.093538 0.72057-0.06146 1.967-0.064839 0.75568-0.082803 0.47058-0.097777 0.62187-0.21414 0.50676-0.28094 0.36067-0.32866 0.17663-0.35934 0.004934-0.20345-0.045701-0.17203-0.09086-0.17071-0.19552-0.2251-0.29316-0.22457-0.38259-0.20767-0.32705-0.13495-1.1246-0.38287-0.39806-0.18496-0.35561-0.24096-0.098906-0.089566-0.32665-0.41564-0.16689-0.35259-0.11288-0.46961-0.012753-0.39281 0.076588-0.47548 0.11159-0.33899 0.12974-0.29112 0.31748-0.55108 0.63439-0.90776 1.3822-1.8631 0.48917-0.60712 0.47404-0.53434 0.66475-0.65811 1.358-1.2522 0.3565-0.38858 0.35303-0.46014 0.35296-0.56437 0.29081-0.57623 0.19718-0.47676 0.24497-0.74446 0.63858-2.4197 0.2733-0.76074 0.24309-0.49772 0.4876-0.78549 0.46645-0.64288 0.23502-0.24829 0.15444-0.11908 0.34491-0.14847 0.27514-0.005315 0.5288 0.21652 0.54733 0.42566 0.83628 0.84832 2.2152 2.4577 1.9652 2.1142 0.8531 0.97326 0.68331 0.88374 0.67518 1.0238 0.42894 0.73165 0.6987 1.2963 0.47471 0.9713 0.37665 0.85561 0.22307 0.57479 0.28233 0.83728 0.43682 1.4378 0.32105 0.90043 0.33903 0.72919 0.25334 0.44192 0.28606 0.42906 0.34491 0.44997 1.223 1.3609 0.5124 0.63248 0.82633 1.1343 0.79441 1.2269 0.88653 1.5835 3.6958 7.1683 0.58768 0.97544 0.39878 0.54811 0.32833 0.38663 0.38525 0.37794 0.5054 0.37049 0.40428 0.19517 0.40698 0.10791 0.26205 0.021467 0.26008-0.017795 0.37738-0.10276 0.37504-0.21039 0.33136-0.28294 0.44965-0.51499 0.51994-0.75394 0.47074-0.84487 0.30094-0.66214 0.34565-0.91226 1.2076-3.5858 0.40267-1.3523 0.23959-0.97056 0.38543-1.8621 0.1824-1.0901 0.13091-1.0181 0.18056-1.7446 0.14848-1.1066 0.18126-0.95333 0.30084-1.1361 0.13306-0.38569 0.20596-0.4956 0.22858-0.44036 0.19934-0.31817 0.35181-0.47114 0.37397-0.42937 0.36686-0.37842 0.46194-0.42425 0.57054-0.43898 0.37232-0.22646 0.3281-0.15389 0.23736-0.082288 0.47714-0.094903 0.43006-0.028015 0.40612 0.001213 3.068 0.1321 0.75458 0.059106 1.0209 0.1652 2.5972 0.54638 0.82541 0.13244 0.89277 0.10614 1.0006 0.049059 0.45891-0.014734 0.58194-0.061776 0.32123-0.057486 0.87879-0.24576 0.72294-0.28451 0.6731-0.31513 1.3906-0.7537 2.2824-1.3915 0.33267-0.19047 0.17233-0.068843 0.16052 0.010605 0.43032-0.042612 1.1038-0.19446 0.63024-0.16139 0.5994-0.21984 0.36064-0.17851 0.45144-0.27429 2.2446-1.5112 0.39216-0.19566 0.43162-0.12511 0.33907-0.053904 1.3569-0.14425 2.754-0.16474 0.72456 0.028358 1.5888 0.24941 0.4329-0.019426 0.47053-0.14775 0.24156-0.12814 0.56785-0.35936 0.25437-0.13003 0.66078-0.25142 0.45769-0.1309 0.71-0.15753 0.58207-0.091475 0.49679-0.050195 1.1013-0.034073 1.0832 0.017142 1.2653 0.067624 1.5801 0.13197 0.037711 0.094109-0.012848 0.072549-0.090417 0.14216-0.20308 0.18344-0.57037 0.34968-0.53831 0.23776-0.44855 0.15048-0.65122 0.16842-0.74628 0.1476-1.5249 0.24073-1.5133 0.28983-0.68027 0.17321-0.75793 0.25689-0.7017 0.30625-0.74557 0.40471-0.48868 0.32332-0.4121 0.30492-0.52823 0.46228-0.3339 0.38567-0.13241 0.19944-0.23418 0.47652-0.16938 0.58071-0.063604 0.52349-0.04891 1.1428 0.007915 0.95203 0.073217 0.78434 0.048191 0.29267 0.29937 1.2471 0.1132 0.6278 0.027851 0.38565-0.019546 0.66722-0.081411 0.62647-0.15458 0.66772-0.19432 0.5099-0.98119 1.9836-0.62286 1.4868-0.33838 0.68406-0.72073 1.2589-1.1703 1.6102-0.2644 0.40826-0.59206 1.1183-0.27158 0.46544-0.32463 0.48226-0.61369 0.74052-1.8679 1.9553-0.33724 0.40616-0.33606 0.4893-0.32083 0.64775-0.19215 0.6589-0.089905 0.61998-0.029082 0.63278 0.047847 1.854-0.007431 0.43956-0.058621 0.71156-0.18926 1.3398-0.12642 1.6246-0.079686 0.44896-0.22208 0.7379-0.27421 0.67178-0.1771 0.3109-0.080849 0.040514-0.12394 0.32484-0.008502 0.3152 0.035744 0.37154 0.13488 0.64452 0.19016 0.60093 0.38368 0.90269 0.38263 0.73627 0.53104 0.88344 0.51675 0.74818 1.025 1.3884 0.71311 1.0789 0.33512 0.56223 0.52612 0.98601 0.41956 0.96748 0.25617 0.82049 0.094909 0.44627 0.067209 0.52967 0.017684 0.48624-0.019525 0.48032-0.052079 0.45589-0.07345 0.40603-0.21787 0.78322-0.32645 0.78247-0.40969 0.74294-0.52144 0.77783-0.34622 0.4521-0.37058 0.43572-1.9963 2.1043-0.94173 1.0973-1.0026 1.3067-0.83735 1.1703-0.52136 0.78333-1.3424 2.1289-0.8124 1.1622-0.56319 0.70342-0.58713 0.66083-0.48617 0.4876-0.4502 0.39706-0.30701 0.23296-0.33546 0.21288-0.49901 0.23976-0.40855 0.13812-0.74362 0.14381-2.6007 0.1904-1.0388 0.12633-0.50726 0.10184-0.93335 0.24868-0.96171 0.30378-1.864 0.71916-0.80959 0.28717-0.50159 0.14313-0.40412 0.089055-0.55362 0.080335-0.67988 0.049066-0.87295 0.012561-0.75796-0.033091-0.54872-0.061699-0.57944-0.10701-0.78368-0.22341-2.192-0.77033-0.75849-0.12546-0.54036 0.023148-0.55219 0.11235-0.82891 0.31098-0.83243 0.44679-2.9849 1.9526-0.96828 0.60468-1.1793 0.68864-1.2628 0.67237-0.64508 0.31843-1.5232 0.68668-1.5314 0.60407-0.8491 0.27362-0.8395 0.22279-0.90884 0.19641-1.2058 0.20597-1.0081 0.12897-1.1062 0.085501-1.498 0.050186-0.60257 0.068835-0.6421 0.12723-0.6678 0.19605-0.55326 0.21562-0.56072 0.2599-0.85496 0.45393-2.5333 1.4694-2.1683 1.1789-1.732 0.85969-1.4434 0.67697-0.98084 0.50734-0.49496 0.29725-0.81028 0.57919-1.3251 1.062-1.5865 1.1906-0.55672 0.36863-0.25014 0.14126-0.223 0.10776-0.33557 0.1216-0.50839 0.069047-0.32153-0.0297-0.68504-0.13601-0.23323-0.023829-0.30437-0.004389-0.4643 0.05059-0.5852 0.17457-0.27072 0.13123-0.42032 0.26152-0.29766 0.21864-2.4146 2.0193-0.87 0.64703-1.3464 0.8356-0.68587 0.47517-0.39835 0.3369-0.55013 0.55821-0.50696 0.61916-0.50976 0.7438-0.40596 0.73994-0.16857 0.394-0.15834 0.45281-0.5287 1.867-0.73476 2.251-0.45522 1.5928-0.42298 1.3068-0.37096 1.0101-0.67168 1.7133-0.87989 2.0808-0.66198 1.4538-0.58859 1.2131-0.35717 0.68107-0.38989 0.67787-0.46372 0.70394-0.54088 0.70343-0.3483 0.4019-0.60338 0.625-0.56463 0.52273-0.3927 0.33021-0.74277 0.5498-0.36612 0.23617-0.59713 0.3379-0.48756 0.23302-0.56686 0.22647-0.70269 0.22688-0.694 0.17134-0.54009 0.10185-1.1509 0.14404-1.0806 0.066077-3.434 0.066699-0.87486 0.062903-0.94578 0.12509-0.64176 0.12234-0.92503 0.23041-0.71015 0.21995-1.0997 0.4192-1.3462 0.61824-1.3447 0.70566-0.72244 0.44286-0.46481 0.32404-0.27376 0.21041-0.53845 0.47083-0.62755 0.67949-0.48571 0.65781-0.31478 0.49679-0.2915 0.51877-0.30268 0.65149-0.14446 0.40574-0.082219 0.30601-0.060808 0.37915-0.001974 0.22814 0.025027 0.13206 0.03407 0.060781-0.15698-0.035007-0.44418 0.029577-0.56634 0.11157-1.4125 0.33349-0.49009 0.078197-0.41193 0.038092-0.77197-0.0095-0.41795-0.058308-0.39668-0.092009-0.75114-0.25331-1.8963-0.83739-1.0734-0.40929-1.1702-0.36698-2.3283-0.62143-1.319-0.42901-2.8961-1.1232-2.4612-0.90602-1.8329-0.75196-1.1702-0.42853-0.56223-0.18484-0.54655-0.14172-0.62-0.089934-0.47578-0.020956-0.46626 0.015537-0.40958 0.041585-0.53358 0.11674-0.36936 0.14686-0.40318 0.27323-0.16661 0.19372-0.1849 0.3554-0.091733 0.27501-0.32709 1.3626-0.16631 0.57681-0.19632 0.54696-0.20624 0.4613-0.2081 0.37834-0.35957 0.51299-0.27601 0.31197-0.40958 0.37865-0.38455 0.29004-0.40306 0.25284-0.59227 0.29573-0.64318 0.23675-0.57405 0.14583-0.37892 0.065396-0.48473 0.050454-0.53364 0.017125-0.83064-0.042433-0.80638-0.11368-0.668-0.14659-0.67801-0.20064-0.63293-0.24045-0.47386-0.22268-0.40085-0.2253-0.51752-0.35792-0.36191-0.31281-0.36411-0.38638-0.45653-0.59911-0.42554-0.66391-0.33636-0.58241-0.37683-0.72286-0.38066-0.83814-0.50197-1.3528-0.29623-0.95655-0.54832-1.9462-0.32435-0.89095-0.23194-0.50788-0.31324-0.56113-0.19314-0.28779-0.28692-0.36362-0.25328-0.27078-0.60366-0.51851-0.54711-0.39242-0.57012-0.35231-1.3515-0.69936-1.204-0.67766-0.38958-0.1911-0.46197-0.18195-0.70075-0.18653-0.50146-0.08798-0.73511-0.08461-0.63173-0.037315-0.7001-0.007585-0.74923 0.029114-0.97433 0.096726-0.54315 0.084776-2.614 0.56127-0.64863 0.099152-1.0769 0.051266-1.0762-0.061896-2.9704-0.42218-1.1928-0.13635-0.72778-0.058765-2.6-0.085937-2.2724-0.24706-1.0255-0.13324-1.3344-0.2592-3.6683-0.88356-1.4185-0.30857-1.3934-0.24458-0.86988-0.10988-0.85566-0.0632-0.83549-0.004258-0.92319 0.07239-2.0205 0.24526-0.93428 0.021546-0.39082-0.032439-0.66008-0.10582-1.7568-0.3864-0.48147-0.065412-0.49079-0.028384-0.79352 0.022012-0.91967 0.096764-1.2598 0.16677-0.49086 0.013822-0.093657-0.017857-0.07156-0.057893-0.11206 0.081351-0.14121 0.034572-0.22118-0.016782-0.21468-0.069582-0.20682-0.10529-0.24888-0.17263-0.20814-0.19221-0.16973-0.20209-0.15408-0.23327-0.1823-0.34543-0.88677-2.0523-0.55449-1.1683-0.27947-0.5258-0.29045-0.47131-0.3727-0.50252-0.35002-0.39701-0.37451-0.37069-0.52139-0.44561-0.63365-0.46015-0.7229-0.45256-1.3979-0.78135-1.0051-0.61086-0.99557-0.67572-0.75714-0.58813-0.68914-0.61866-0.63689-0.65068-0.52202-0.60772-0.88313-1.1311-0.50145-0.60121-1.0366-1.11-0.76124-0.72919-1.0751-0.91056-2.1572-1.7049-0.93518-0.77198-0.78525-0.72744-2.1757-2.1372-0.8737-0.79212-0.64819-0.54489-0.63022-0.48726-0.80782-0.54589-0.73589-0.41832-0.60661-0.2915-0.72856-0.29486-0.57772-0.20065-0.68311-0.19373-0.69806-0.14697-5.2889-0.66986-11.116-1.6284-2.6859-0.36296-1.8599-0.21969-2.395-0.20814-3.1317-0.16702-5.7453-0.19306-5.9764-0.13668 0.001317-0.23336-0.10032-1.3391-0.46574-4.828-0.098358-1.6585-0.074721-4.918 0.020925-2.3278 0.053035-1.5142 0.11329-1.6515 0.25438-2.7564 0.29986-3.783 0.16157-1.632 0.16067-1.3173 0.231-1.5973 0.64691-3.808 0.10953-0.79417 0.085945-0.85336 0.072858-1.3187 0.092865-3.6538 0.088177-2.0055 0.21647-2.986 0.53507-5.1639 0.081707-1.6608-0.008888-0.94706-0.057761-0.87695-0.061309-0.50079-0.19473-1.0038-0.44614-1.5586-0.61263-1.7978-0.38829-1.4483-0.6398-2.8044-0.94032-4.724-0.36447-1.7182-0.33472-1.2654-0.17894-0.53144-0.40831-0.97078-0.37357-0.71043-0.4711-0.75066-0.42594-0.57918-0.56604-0.65762-0.56018-0.54994-0.72182-0.59455-0.7499-0.51605-0.85126-0.49943-0.72858-0.36894-1.2789-0.54734-1.3951-0.50393-2.8304-0.93404-0.94934-0.33741-0.97623-0.37453-2.4627-1.0029-6.4766-2.4103-1.7699-0.68971-1.3226-0.59457-0.8061-0.43913-0.7797-0.51635-0.49204-0.39565-0.40488-0.38683-0.44959-0.52247-0.43016-0.59598-0.37827-0.58827-0.70446-1.1917-0.67156-1.2184-0.69796-1.3932-0.41154-0.93185-0.37832-0.99981-0.26087-0.85195-0.19739-0.86652-0.095496-0.63266-0.047045-0.57968 0.011964-0.9886 0.080251-0.88384 0.1529-1.1962 1.1943-0.14413 2.1479-0.18804 2.3742-0.15587 1.1518-0.038006 1.8397 0.03747 2.726 0.16974 1.4389 0.064536 0.92596 0.007353 0.83174-0.030465 0.82347-0.071865 0.8471-0.14518 0.3995-0.10889 0.50611-0.19353 0.4263-0.22775 0.31585-0.21848 0.29854-0.25102 0.37135-0.37835 0.43946-0.54363 0.77404-1.1536 0.41818-0.72954 0.19778-0.41066 0.16093-0.41491 0.12496-0.49617 0.035029-0.362-0.008113-0.36498-0.07275-0.50176-0.13685-0.49168-0.18706-0.45298-0.23563-0.42387-0.19732-0.28041-0.22003-0.25366-0.29112-0.25652-0.32986-0.19617-0.4704-0.14803-0.31011-0.046787-0.68412-0.024239-1.9679 0.1103-0.28559-0.017153-0.12394-0.03194-0.046053-0.044259 0.030296-0.062757 0.33467-0.39305 0.49823-0.5262 3.7584-3.6845 2.4577-2.5231 0.54912-0.50505 0.62911-0.52116 0.65562-0.46352 0.57829-0.33834 0.5754-0.27985 0.54259-0.22145 0.65477-0.22018 0.55359-0.14801 0.9718-0.17277 2.5077-0.25317 0.75026-0.09448 0.86918-0.14686 1.2212-0.27456 2.7903-0.75015 1.3828-0.45286 1.0572-0.4388 0.71248-0.39715 0.36694-0.27505 0.19034-0.17132 0.28029-0.30503 0.16055-0.21797 0.23686-0.44811 0.11308-0.34544 0.071422-0.33757 0.077614-0.80705 0.011589-0.77218-0.03028-0.6813-0.26959-3.0057-0.12086-1.9825-0.056211-0.4682-0.095118-0.53364 0.64836-0.26797 1.2712-0.4757 1.5793-0.54707 1.1985-0.38038 1.7224-0.48735 0.9821-0.25464 3.4006-0.81115 1.5946-0.30698 1.7787-0.23828 1.4709-0.12616 2.0545-0.09217 1.6176-0.027037 3.1094-0.007147 4.4965 0.020955 2.2375 0.042502 1.3757 0.066823 1.104 0.095644 2.5322 0.35253 0.85284 0.09942 0.70459 0.038139 1.2169-0.038598 0.70233 0.023602 0.75718 0.073151 0.72207 0.1003 0.75428 0.12749 1.5226 0.3068 2.4471 0.57195 3.5098 0.90018" stroke="#bdc660"/>
    </defs>
    <g clip-path="url(#p9e26f70951)">
     <use y="217.553926" fill="#bdc660" stroke="#bdc660" xlink:href="#m8e688498db"/>
    </g>
   </g>
  </g>
 </g>
 <defs>
  <clipPath id="p9e26f70951">
   <rect x="7.2" y="7.2" width="357.12" height="203.15"/>
  </clipPath>
 </defs>
</svg>
