<?xml version="1.0" encoding="UTF-8"?>
<!DOCTYPE svg  PUBLIC '-//W3C//DTD SVG 1.1//EN'  'http://www.w3.org/Graphics/SVG/1.1/DTD/svg11.dtd'>
<svg width="371.52pt" height="176.07pt" version="1.1" viewBox="0 0 371.52 176.07" xmlns="http://www.w3.org/2000/svg" xmlns:xlink="http://www.w3.org/1999/xlink">
 <metadata>
  <rdf:RDF xmlns:cc="http://creativecommons.org/ns#" xmlns:dc="http://purl.org/dc/elements/1.1/" xmlns:rdf="http://www.w3.org/1999/02/22-rdf-syntax-ns#">
   <cc:Work>
    <dc:type rdf:resource="http://purl.org/dc/dcmitype/StillImage"/>
    <dc:date>2024-07-04T12:09:29.047998</dc:date>
    <dc:format>image/svg+xml</dc:format>
    <dc:creator>
     <cc:Agent>
      <dc:title>Matplotlib v3.7.1, https://matplotlib.org/</dc:title>
     </cc:Agent>
    </dc:creator>
   </cc:Work>
  </rdf:RDF>
 </metadata>
 <defs>
  <style type="text/css">*{stroke-linejoin: round; stroke-linecap: butt}</style>
 </defs>
 <g id="figure_1">
  <g id="patch_1">
   <path d="m0 176.07h371.52v-176.07h-371.52v176.07z" fill="none"/>
  </g>
  <g id="axes_1">
   <g id="PatchCollection_1">
    <defs>
     <path id="mdc44b60a55" d="m340.55-49.498-0.041243 0.085433 0.062693 0.060251 0.16873 0.043481 0.38878 0.023351 2.679-0.15015 0.93131 0.032997 0.42216 0.063692 0.64037 0.20152 0.44904 0.26705 0.3963 0.34921 0.29953 0.34531 0.26861 0.38173 0.32076 0.57702 0.25465 0.61665 0.1863 0.66933 0.099037 0.68306 0.011044 0.49686-0.047686 0.49279-0.17012 0.67544-0.21908 0.56482-0.26924 0.55904-0.56928 0.99314-1.0537 1.5704-0.59825 0.74005-0.50552 0.51506-0.40642 0.34172-0.42997 0.29742-0.58034 0.31004-0.68898 0.26346-0.54385 0.14824-1.1532 0.19764-1.121 0.097831-1.1323 0.041473-1.2605-0.010011-1.9589-0.087854-3.711-0.23108-2.5044-0.051008-1.568 0.051738-3.2321 0.2122-2.924 0.25599-1.6258 0.19621-0.109-0.005805-0.46948 0.098422-1.128 0.27283-10.323 2.5572-2.359 0.5177-1.8894 0.34334-2.2313 0.29302-1.035 0.082011-1.0041 0.036042-0.91583-0.014802-0.88119-0.070105-1.0548-0.18192-0.98389-0.30927-0.64644-0.30759-0.7862-0.50828-0.72798-0.59906-0.92612-0.90628-0.87086-0.96235-1.4499-1.72-2.6059-3.2283-0.95684-1.0965-0.72805-0.76496-1.0726-1.0118-1.1191-0.93746-1.4798-1.091-1.3885-0.89798-1.2728-0.7073-1.2949-0.63222-1.2253-0.48929-1.5522-0.47618-1.9821-0.48513-5.0444-1.1321-1.8547-0.32266-1.3267-0.1311-1.0914 7.89e-4 -0.57706 0.060165-0.5186 0.094453-0.69772 0.19884-0.28868 0.11049-0.75907 0.38029-0.79622 0.54288-0.82401 0.69781-3.1518 3.0272-0.79277 0.69017-0.78612 0.62697-1.3515 0.95842-1.0849 0.68417-1.3715 0.75031-0.77727 0.3531-0.9734 0.35736-1.3454 0.34958-1.0483 0.17335-0.97699 0.081597-1.1621 0.012667-1.1394-0.072429-1.1143-0.13982-1.0658-0.19266-1.8458-0.45221-2.4254-0.72032-6.6967-2.1648-1.4461-0.50389-0.82322-0.32002-1.064-0.45891-1.0215-0.4892-4.0579-2.0769-1.1165-0.58873-3.0847-1.724-2.1436-1.1049-1.6836-0.75973-1.0494-0.35142-0.78968-0.19704-1.5202-0.27811-0.9328-0.12449-1.3467-0.12825-1.5596-0.095608-2.046 0.016454-4.2931 0.25864-1.0641 0.028961-1.0001-0.018114-0.97433-0.076263-1.471-0.23222-1.7438-0.39191-1.8477-0.49228-1.9503-0.62366-0.84759-0.31216-1.6223-0.66417-3.2511-1.4462-6.4509-2.6994-2.8921-1.3091-2.0902-1.0296-2.4025-1.2936-2.0307-1.1792-3.4561-2.0777-1.2981-0.70732-0.79519-0.35804-0.43898-0.15596-0.52656-0.13164-0.60723-0.04703-0.33198 0.03962-0.25419 0.070112-0.52496 0.25921-0.41879 0.31422-0.70735 0.7225-0.51794 0.65684-0.6555 0.95386-1.18 1.8557-1.2806 2.0994-1.8033 3.1081-0.64106 1.1762-0.93691 1.8464-2.9119 6.1352-0.70432 1.6548-0.7068 1.8523-0.55857 1.7051-0.48073 1.8931-0.30667 1.6771-0.2879 2.2921-0.12069 1.4253-0.12381 2.2654-0.12524 6.3604-0.075468 1.8956-0.045007 0.23794-0.02767 0.22897 0.14283 3.9077 0.002307 1.3895-0.032525 0.99354-0.090788 1.1436-0.28938 1.6474-0.32416 0.96914-0.39815 0.7347-0.53109 0.58063-0.27562 0.18746-0.32881 0.15357-0.46976 0.11992-0.56685 0.028115-0.7141-0.099447-0.65984-0.19695-0.59684-0.25177-0.58443-0.31076-0.92188-0.6284-0.62013-0.54344-0.82101-0.92133-1.1513-1.5958-4.0875-5.9903-0.78636-1.2063-0.83096-1.4949-0.43654-0.96396-0.36734-0.98118-0.29724-0.98902-0.18557-0.77043-0.19506-1.0186-0.54882-4.0063-0.22479-1.4113-0.46416-2.3134-0.45051-1.906-0.44101-1.6608-0.62987-2.0749-0.66275-1.9196-1.0157-2.6271-0.32733-0.92765-0.25014-0.80355-0.22872-0.87462-0.18338-0.89398-0.13991-0.9393-0.10651-1.2474-0.02702-2.1337 0.0629-4.3854-0.037512-1.3631-0.10246-1.296-0.14848-0.87067-0.14368-0.50656-0.13773-0.35744-0.17705-0.36018-0.29763-0.44436-0.26479-0.27662-0.3119-0.22592-0.37885-0.17318-0.52995-0.1299-0.50225-0.046263-0.58425 0.006042-1.2529 0.12816-0.81746 0.138-0.71012 0.15218-1.1372 0.31367-0.67504 0.22971-1.6337 0.66628-1.2946 0.59343-4.6701 2.2415-1.3698 0.58516-1.2371 0.46687-1.8158 0.61448-2.0032 0.62098-2.6343 0.77362-4.01 1.1087-4.0115 1.2199-6.832 2.1412-4.3556 1.5011-2.1886 0.6794-1.3933 0.33316-1.363 0.24168-1.5188 0.20018-1.266 0.07205-1.254-0.052496-1.1341-0.13826-1.014-0.20718-1.1256-0.33276-0.80819-0.3036-0.75877-0.33403-1.166-0.5884-0.64779-0.36259-1.446-0.90406-2.0612-1.4626-5.1607-4.0858-6.5235-4.9399-3.8147-2.7971-1.0522-0.8329-1.2464-1.0596-0.93242-0.86917-0.84846-0.87247-1.0606-1.2308-0.48436-0.63088-0.99074-1.4744-0.87413-1.512-0.4476-0.84884-1.6078-3.34-0.29243-0.55285-0.47237-0.80629-0.37257-0.56108-0.40145-0.52909-0.40627-0.45184-0.59435-0.55598-1.0606-0.90236-0.57661-0.55713-0.35142-0.39754-0.44205-0.56925-0.71287-1.0755-0.50473-0.86714-0.93658-1.794-2.1003-4.3831-1.8892-3.81-0.45019-0.97978-0.35672-0.89643-0.20314-0.64487-0.016437-0.26543-0.09417-0.27896 0.24277-0.41379 0.52653-0.46864 0.75818-0.49826 0.93262-0.51885 1.0991-0.55525 1.3518-0.6337 2.8888-1.249 5.9081-2.4286 4.9625-2.1031 7.5399-3.3022 7.1844-3.2479 7.5351-3.2386 2.319-0.91552 1.2617-0.42815 1.5771-0.44344 1.7191-0.36915 0.94745-0.16507 2.2113-0.31924 5.563-0.66407 3.4969-0.462 1.2877-0.20582 2.3657-0.46924 1.4136-0.3463 1.2066-0.33954 1.4031-0.45163 1.283-0.47428 1.7027-0.74315 0.94598-0.48857 3.6074-2.1394 1.4893-0.79097 3.7505-1.8891 1.1029-0.59424 1.8372-1.0934 2.2196-1.5217 8.0754-6.0117 0.84326-0.59168 1.1947-0.77919 1.0028-0.58217 1.0088-0.50252 1.0173-0.41411 1.3754-0.42904 2.3216-0.62918 1.3017-0.45242 1.1404-0.56144 0.94626-0.61028 0.91627-0.70266 0.89751-0.77058 2.0131-1.8645 1.2956-1.1501 2.131-1.7015 1.0537-0.88035 3.4187-3.2473 0.93964-0.79743 0.60921-0.46128 0.79734-0.51775 0.33875-0.16269 0.18333-0.011171 0.038074 0.12754 0.39912 0.44058 0.87715 0.76964 1.1599 0.90241 1.3307 0.93391 1.4258 0.89033 1.47 0.78723 1.4165 0.62606 2.1506 0.82589 1.1431 0.48356 1.0067 0.58667 0.29238 0.22738 0.63391 0.61125 0.66584 0.83643 0.7945 1.2434 1.2291 2.1442 0.40561 0.57149 0.65369 0.68233 0.52424 0.40758 0.91803 0.53686 1.0927 0.4603 1.4203 0.41466 0.85992 0.17714 0.87808 0.13391 0.85065 0.089544 1.7305 0.081866 3.6955-0.049722 0.71962 0.023695 0.66012 0.074226 0.70865 0.19115 0.55137 0.30507 0.43184 0.42179 0.18872 0.29017 0.21136 0.48643 0.1612 0.60548 0.12772 0.8265 0.18062 1.7658 0.08617 0.53864 0.21162 0.69972 0.23718 0.37328 0.29085 0.23479 0.23367 0.076702 0.32275 1.77e-4 1.0777-0.29148 0.29726 0.064111 0.22181 0.3275 0.053398 0.4811-0.023844 0.41128-0.3271 2.3678-0.02557 0.51286 0.057094 0.68985 0.15473 0.51508 0.23709 0.38956 0.33963 0.30426 0.48361 0.2332 0.61808 0.13549 0.62033 0.036756 0.44305-0.013263 0.75978-0.074112 1.2531-0.2093 1.9921-0.40568 1.5853-0.28304 1.8218-0.25441 1.5466-0.1525 1.8595-0.10154 1.9595-0.030888 2.2024 0.057733 2.5254 0.12056 1.2336 0.021112 1.128-0.03805 1.2191-0.13204 1.1294-0.24542 0.84764-0.3 0.64747-0.32467 0.52483-0.34371 0.52072-0.43488 0.4106-0.42796 0.71995-0.96964 0.5088-0.86299 1.0731-2.0601 0.53787-0.88537 0.5671-0.764 0.63879-0.72438 0.68619-0.64835 0.36776-0.27752 0.40865-0.24059 0.36315-0.14987 0.4571-0.10344 0.47373-0.011599 0.52956 0.10288 0.26976 0.10322 0.37882 0.20683 0.43292 0.3278 0.53051 0.53085 0.61627 0.76864 1.5077 2.1889 0.57135 0.76157 0.62186 0.73704 0.7477 0.77047 0.53341 0.48411 1.4213 1.1166 3.4167 2.4181 3.74 3.0291 0.73398 0.54414 1.2321 0.79753 0.86981 0.4474 0.92848 0.35633 0.9682 0.2799 3.8473 0.87873 1.1176 0.30412 1.6647 0.51753 2.4466 0.87667 4.3128 1.7115 1.4942 0.47323 1.5847 0.35641 1.383 0.19995 1.4033 0.10758 1.1184 0.02171 1.2858-0.038793 1.453-0.11962 1.4767-0.20856 1.465-0.30128 1.1767-0.31536 1.9614-0.64502 3.2819-1.2084 1.7273-0.57841 1.66-0.47191 1.6799-0.40434 1.693-0.34533 1.7-0.29038 1.7009-0.23482 1.6956-0.17361 1.6832-0.10117 1.6624-0.011077 1.6313 0.1041 1.5874 0.25313 1.4975 0.41357 1.4554 0.53214 4.2176 1.7553 3.9328 1.3795 0.93422 0.38034 0.77594 0.40325 0.43916 0.30032 0.26132 0.21896 0.47653 0.49415 0.55008 0.7398 0.43391 0.72464 0.59441 1.2107 0.38527 0.91444 1.1253 3.0104 0.65546 1.567 0.76003 1.5243 0.88862 1.4379 1.0515 1.3013 0.6483 0.62802 0.88154 0.71559 0.85151 0.59248 1.1536 0.69646 1.2122 0.62377 1.2639 0.54404 1.3116 0.45312 1.2178 0.32273 1.2465 0.25601 1.4992 0.24081 4.2664 0.5703 2.3626 0.41827 0.92554 0.20991 1.6901 0.45444 1.3362 0.42912 1.244 0.46867 1.3878 0.62058 1.2671 0.67242 1.4456 0.92064 1.0195 0.77354 0.71842 0.62478 0.84787 0.84821 0.76729 0.91475 0.39454 0.55262 0.83224 1.4512 0.67965 1.5582 0.5723 1.633 0.50099 1.6821 1.8123 6.8387 0.51074 1.6531 0.9476 2.7336 0.42615 1.3502 0.29475 1.266 0.15781 1.2038 0.033317 0.65186-0.004025 0.93408-0.2097 3.8995-0.03566 4.2478-0.046728 0.90757-0.10373 1.1033-0.26686 1.8438-0.63544 3.3344-0.54172 2.4957-1.0792 4.6004-0.096259 0.4591-0.014285 0.22449" stroke="#bdc660"/>
    </defs>
    <g clip-path="url(#p6fc9ba4cea)">
     <use y="176.068738" fill="#bdc660" stroke="#bdc660" xlink:href="#mdc44b60a55"/>
    </g>
   </g>
  </g>
 </g>
 <defs>
  <clipPath id="p6fc9ba4cea">
   <rect x="7.2" y="7.2" width="357.12" height="161.67"/>
  </clipPath>
 </defs>
</svg>
