<?xml version="1.0" encoding="UTF-8"?>
<!DOCTYPE svg  PUBLIC '-//W3C//DTD SVG 1.1//EN'  'http://www.w3.org/Graphics/SVG/1.1/DTD/svg11.dtd'>
<svg width="159.01pt" height="280.51pt" version="1.1" viewBox="0 0 159.01 280.51" xmlns="http://www.w3.org/2000/svg" xmlns:xlink="http://www.w3.org/1999/xlink">
 <metadata>
  <rdf:RDF xmlns:cc="http://creativecommons.org/ns#" xmlns:dc="http://purl.org/dc/elements/1.1/" xmlns:rdf="http://www.w3.org/1999/02/22-rdf-syntax-ns#">
   <cc:Work>
    <dc:type rdf:resource="http://purl.org/dc/dcmitype/StillImage"/>
    <dc:date>2024-07-04T12:09:15.397799</dc:date>
    <dc:format>image/svg+xml</dc:format>
    <dc:creator>
     <cc:Agent>
      <dc:title>Matplotlib v3.7.1, https://matplotlib.org/</dc:title>
     </cc:Agent>
    </dc:creator>
   </cc:Work>
  </rdf:RDF>
 </metadata>
 <defs>
  <style type="text/css">*{stroke-linejoin: round; stroke-linecap: butt}</style>
 </defs>
 <g id="figure_1">
  <g id="patch_1">
   <path d="m0 280.51h159.01v-280.51h-159.01v280.51z" fill="none"/>
  </g>
  <g id="axes_1">
   <g id="PatchCollection_1">
    <defs>
     <path id="m888d877264" d="m120.49-216.61 0.25106 0.17457 0.40334 0.39695 0.46479 0.54188 0.46086 0.64946 0.38943 0.70745 0.2713 0.73954 0.11672 0.65752 0.030234 0.65913-0.074148 1.8692-0.12351 1.1058-0.18392 0.60296-0.73326 1.702-0.17965 0.53052-0.11137 0.54264-0.01791 0.7056 0.080448 0.72545 0.36211 2.2453 0.072436 3.3051-0.043169 2.0447-0.39455 1.8975-0.073856 0.60507 0.050162 0.58394 0.15327 0.42312 0.24517 0.40892 0.44077 0.52262 0.54648 0.50464 1.3026 0.95103 1.482 0.90629 5.0232 2.8509 2.098 1.2559-0.22761 0.35026-1.0172 0.92047-1.5567 1.2697-4.0022 3.0776-4.4982 3.3314-6.8631 4.9336-7.0784 4.9258-4.3586 2.8977-4.5674 2.9225-0.99161 0.74251-1.5702 1.3373-1.0198 0.99678-1.2349 1.3906-0.70394 0.91273-0.63593 0.92772-0.84176 1.4628-0.68286 1.6234-0.35941 1.6846-0.016489 0.4776 0.041296 0.567 0.14362 0.68937 0.19569 0.58714 0.80048 1.5693 1.2686 1.7354 1.5691 1.718 1.1002 1.0614 1.171 1.0501 2.5854 2.1276 1.4244 1.0856 1.868 1.3437 2.9989 1.9875 6.2881 3.8562 1.6521 1.0539 1.5989 1.0877 1.1789 0.87108 1.2646 1.0304 1.4855 1.3653 1.3553 1.4235 0.95635 1.1405 0.85586 1.1634 0.85914 1.4021 0.6575 1.431 0.40893 1.4624 0.13727 1.6085-0.11144 2.1168-0.31608 2.2282-0.44576 2.2958-1.5066 6.8959-0.36724 2.1623-0.19248 2.0097 0.064188 1.7899 0.42205 1.4865 0.37621 0.60092 0.25373 0.29436 0.76472 0.64378 1.246 0.72632 2.2866 1.051 1.3062 0.72878 1.3017 0.92929 1.361 1.219 2.3487 2.2196 6.9335 6.0412 1.049 0.99284 1.3231 1.4015 0.7245 0.91805 0.60555 0.94982 0.7495 1.7445 0.22258 0.74914 0.23005 1.0981 0.16791 1.8913-0.021371 3.3992-0.14585 1.4899-0.35924 1.5505-0.53631 1.5528-0.7733 1.8072-1.4641 3.2234-0.4454 1.2367-0.59409 1.8586-0.69799 2.3968-0.76972 2.9553-0.7207 3.2336-0.29344 1.554-0.27057 1.7506-0.19483 1.7698-0.1114 1.7724 0.002279 2.6813 0.15835 2.0557 0.35603 2.1555 0.41901 1.5255 0.64742 1.6224 0.63637 1.3879 0.4639 1.1902 0.10692 0.67542-0.10874 0.056131-41.721 4.4343-12.816 1.227-1.6986 0.11049-1.688 0.038673-1.6602-0.042146-3.7354-0.28087-4.8046-0.47234-2.386-0.32731-3.4162-0.65604-12.579-2.901-3.2146-0.6874-1.5055-0.2726-0.13224-0.077197-0.28292-0.52453-0.35687-0.87941-0.34861-1.1464-0.32297-1.6311-0.47391-3.7197-0.2955-1.9247-0.36944-1.7162-0.42046-1.6924-0.84349-3.1169-0.68922-1.835-0.83439-1.734-0.95343-1.5964-1.0546-1.4154-1.1457-1.1818-0.98767-0.76637-1.2786-0.7927-1.2726-0.54506-0.64617-0.16172-2.389-0.30214-0.74705-0.22281-0.64105-0.42958-0.47542-0.60971-0.30564-0.78505-0.45681-1.8861-0.55897-1.4717-0.34307-0.72245-0.41688-0.72379-0.67879-0.91603-1.0211-1.1146-1.0153-0.97136-1.1715-1.044-4.5448-3.8565-1.5068-1.3443-1.4308-1.3873-1.303-1.4434-1.1122-1.5166-0.90421-1.6678-0.69339-1.7042-0.5479-1.6744-0.27611-0.98504-0.17361-0.8256-0.098538-1.4718 0.19845-1.4525 0.27962-1.0243 0.45458-1.251 0.47608-1.0968 0.55013-1.1261 0.72542-1.3356 1.7478-2.7998 1.2488-1.8046 1.2873-1.7597 3.8023-4.89 0.1631-0.28819 0.2712-0.44159 0.2315-1.0963 0.10274-1.7381 0.015964-2.5409 0.10782-3.4244-0.035503-3.3163-0.17323-1.7873-0.27372-1.2867-0.47961-1.4387-0.76994-1.4472-0.98059-1.3113-1.1165-1.1644-2.2548-1.9408-1.2813-1.1798-1.3865-1.5338-0.96192-1.4402-0.64692-1.5835-0.24841-1.6002 0.014616-1.6893 0.17469-1.7439 0.68976-4.79 0.32444-2.7116 0.38943-6.1215 0.035362-1.7733-0.20714-3.4704 0.002271-1.5636 0.14196-3.2044 0.026394-1.6084-0.20759-5.7043 0.048788-2.9076-0.038336-2.7786 0.049343-1.2199 0.24972-1.9663 0.4083-2.0792 0.78738-3.3413 0.31679-1.1905 0.48067-1.5326 0.87313-2.1948 3.0858-6.4642 0.86326-2.1162 1.3939-4.2596 0.65649-1.6913 0.97433-1.9236 0.45839-0.75333 1.0224-1.3975 1.2441-1.3311 0.68861-0.54351 0.44136-0.15442 0.32038 2.1225 0.22752 0.94026 0.20151 0.50882 0.22415 0.34418 0.23586 0.14178 0.17545-0.038842 0.36657-0.33035 0.56723-0.82289 3.0494-5.3475 0.69468-1.3649 0.608-1.6874 0.41677-0.87734 0.30346-0.41678 0.14268-0.10515 0.10665-0.016369 0.065882 0.057476 0.31182 0.1852 0.88012 0.12512 3.5536-0.03915 3.2307 0.051249 3.8829 0.1156 3.3494 0.221 1.6024 0.17831 1.7871 0.26198 1.6941 0.31879 1.5685 0.37164 2.6563 0.74546 1.0839 0.22148 1.0324 0.098961 0.78968-4.82e-4 1.4024-0.19928 1.3968-0.4679 1.5203-0.90099 0.89014-0.84128 0.7009-0.98686 0.54477-1.2316 0.81244-2.7609 0.54878-1.6108 1.2945-3.281 0.75732-1.804 0.59793-1.1691 0.6966-1.1398 0.74877-1.0546 2.6183-3.4265 3.0651-3.809 1.177-1.5553 0.89867-1.3156 0.58736-0.98348 0.70484-1.4325 0.4148-1.1333 0.37886-1.7494 0.15629-1.8263 0.002937-1.8745-0.29406-5.2282-0.042255-1.8444 0.047678-1.2598 0.14378-1.1865 0.34847-1.4122 0.46867-1.3205 0.55841-1.3147 0.65775-1.1768 0.82351-0.96018 1.2243-0.75617 1.4259-0.36948 1.5149 0.014473 1.4976 0.42498 1.0434 0.59121 1.0073 0.77694 2.5877 2.4207 1.8348 1.6404 1.1834 0.98094 3.5308 2.7508 1.0541 0.86672 1.4726 1.4238 0.8701 1.0032 0.80075 1.0709 1.0982 1.8417 0.70742 1.6382 0.54943 1.736 0.51255 2.3066 0.35405 2.3091 0.15808 1.4491 0.42955 6.7445 0.20774 1.922 0.39114 2.465 0.15575 0.69646 0.48266 1.6316 0.82297 1.8362 0.9988 1.6134 1.0438 1.31 0.92797 0.8817 0.63036 0.25896" stroke="#bdc660"/>
    </defs>
    <g clip-path="url(#p6fa8cffc81)">
     <use y="280.512" fill="#bdc660" stroke="#bdc660" xlink:href="#m888d877264"/>
    </g>
   </g>
  </g>
 </g>
 <defs>
  <clipPath id="p6fa8cffc81">
   <rect x="7.2" y="7.2" width="144.61" height="266.11"/>
  </clipPath>
 </defs>
</svg>
