<?xml version="1.0" encoding="UTF-8"?>
<!DOCTYPE svg  PUBLIC '-//W3C//DTD SVG 1.1//EN'  'http://www.w3.org/Graphics/SVG/1.1/DTD/svg11.dtd'>
<svg width="365.61pt" height="280.51pt" version="1.1" viewBox="0 0 365.61 280.51" xmlns="http://www.w3.org/2000/svg" xmlns:xlink="http://www.w3.org/1999/xlink">
 <metadata>
  <rdf:RDF xmlns:cc="http://creativecommons.org/ns#" xmlns:dc="http://purl.org/dc/elements/1.1/" xmlns:rdf="http://www.w3.org/1999/02/22-rdf-syntax-ns#">
   <cc:Work>
    <dc:type rdf:resource="http://purl.org/dc/dcmitype/StillImage"/>
    <dc:date>2024-07-04T12:09:13.139754</dc:date>
    <dc:format>image/svg+xml</dc:format>
    <dc:creator>
     <cc:Agent>
      <dc:title>Matplotlib v3.7.1, https://matplotlib.org/</dc:title>
     </cc:Agent>
    </dc:creator>
   </cc:Work>
  </rdf:RDF>
 </metadata>
 <defs>
  <style type="text/css">*{stroke-linejoin: round; stroke-linecap: butt}</style>
 </defs>
 <g id="figure_1">
  <g id="patch_1">
   <path d="m0 280.51h365.61v-280.51h-365.61v280.51z" fill="none"/>
  </g>
  <g id="axes_1">
   <g id="PatchCollection_1">
    <defs>
     <path id="med9b95726c" d="m277.39-191.28 0.1228 0.42283 0.53938 4.4176 0.51395 3.214 0.38059 1.788 0.35677 1.4026 0.73689 2.3696 0.47496 1.2655 0.65316 1.5059 1.0148 1.9792 1.2094 1.9763 1.335 1.8288 1.0316 1.1969 1.1359 1.1139 0.97173 0.78632 1.0945 0.7009 1.1658 0.53265 1.3519 0.34191 1.1282 0.059955 0.41209-0.024637 1.448-0.25484 1.1778-0.36187 1.3404-0.52485 6.4384-2.913 3.5902-1.5043 2.0694-0.70572 1.409-0.33594 1.4257-0.17967 1.371-0.024959 1.1769 0.080912 1.4032 0.19526 6.721 1.3919 1.6719 0.38867 1.5428 0.45771 1.0474 0.39646 1.7898 0.862 2.1598 1.2529 1.9292 1.2835 1.3364 0.99643 1.1665 0.95713 0.94142 0.84959 1.0903 1.1113 0.81169 0.95933 0.75119 1.0392 0.38129 0.61199 0.8679 1.7182 0.70842 1.8001 0.50329 1.4921 0.43774 1.511 0.47666 2.1821 0.23542 2.1323-0.031968 1.8132-0.1906 1.3876-0.25184 1.1843-0.66517 2.5306-0.42727 1.3501-0.87411 2.1876-1.6061 3.7315-1.7498 4.5099-1.1162 2.6457-0.53627 1.0603-0.67291 1.0854-0.90854 1.1098-0.90287 0.8672-1.0531 0.82948-0.76234 0.51351-1.5327 0.86675-1.1908 0.54372-1.0642 0.39792-1.273 0.37356-1.912 0.40042-4.8547 0.78763-6.3549 1.1465-6.5154 0.93954-1.2874 0.25653-2.0378 0.61547-1.945 0.88459-1.4238 0.87395-1.148 0.83219-1.3562 1.0997-1.9051 1.7004-2.8657 2.8286-2.1172 2.3469-1.1836 1.5712-0.62972 1.0888-0.26501 0.58804-0.2803 0.81151-0.19136 0.82116-0.10422 0.73811-0.056131 0.93987 0.02128 1.0835 0.10341 1.1273 0.1766 1.1474 0.62714 2.7265 0.57408 1.8932 2.8147 8.4947 0.47041 1.3503 0.86455 2.1473 1.3467 2.6649-0.18776-0.048717-1.0433 0.096458-2.5278 0.47997-3.4049 0.8825-3.2095 0.95679-2.8572 0.99009-2.3731 0.97007-1.5271 0.71713-1.8996 1.0264-1.6783 1.0683-1.2345 0.90447-1.0833 0.87859-4.3622 3.7409-1.2568 0.98362-1.1116 0.78519-1.9899 1.2576-1.4942 0.83692-1.6994 0.82803-3.7468 1.7084-1.2748 0.65274-1.1028 0.63186-2.842 1.8544-4.4279 3.2637-1.0045 0.6876-1.9866 1.2299-2.4053 1.2705-1.4275 0.65918-4.8682 2.0474-5.1844 2.3398-2.7681 1.4616-2.6853 1.5825-1.8847 1.2673-1.5917 1.2459-1.483 1.3197-4.2026 3.9678-3.9422 3.4649-1.3057 1.0939-5.2635 4.2019-1.3429 0.93418-1.039 0.55785-0.89637 0.32966-0.6416 0.14382-0.48871 0.059707-0.84416 0.012142-0.99765-0.11777-1.4673-0.37062-4.7288-1.7435-1.8228-0.57797-2.3449-0.58414-2.7864-0.58826-2.2744-0.64118-0.90538-0.33748-0.82241-0.41106-0.56129-0.3788-0.51798-0.47402-0.4132-0.52596-0.23831-0.41343-0.22306-0.54197-0.13274-0.51432-0.073807-0.56575-0.015928-0.88021 0.2176-2.3926-0.011181-1.209-0.21671-1.1089-0.38527-1.0855-0.44303-0.95353-0.48387-0.90263-2.8296-4.6203-1.0641-1.5134-3.0317-3.9107-0.76656-1.1211-0.63032-1.1113-0.3395-0.73853-0.56915-1.6811-0.26163-1.0831-0.43448-2.5191-0.19536-0.89506-0.25542-0.64673-0.19249-0.30278-0.40302-0.40532-0.3974-0.24419-0.84674-0.27807-0.69687-0.096982-0.83318-0.02976-1.0456 0.033027-3.5865 0.20274-1.7598 0.023093-2.6278-0.1253-2.7562-0.36481-1.5829-0.30429-2.0567-0.50878-1.4916-0.47024-2.1802-0.8685-2.356-1.145-2.1377-1.2194-1.3964-0.89899-1.7657-1.2672-1.9312-1.6241-1.5128-1.5201-0.70118-0.81923-0.71706-0.96649-0.77707-1.2738-0.65176-1.2978-1.3113-2.9381-0.73926-1.3793-0.86793-1.3938-0.83156-1.188-0.91172-1.1819-1.3629-1.5812-1.3261-1.357-1.8409-1.6286-1.4068-1.0577-1.7435-1.1077-1.3697-0.72573-1.4165-0.62318-1.768-0.60844-1.7826-0.45829-2.3134-0.40687-1.3102-0.14617-1.1921-0.080132-1.4444-0.012663-0.67617 0.0591-0.27154 0.11118-0.080915-0.037235-0.35796-0.7074-0.41364-1.3524-0.38423-1.7527-0.27558-1.9856-0.11869-1.9366-0.1304-3.9836-0.19076-2.0475-1.0653-7.5574-0.47287-3.8937-0.23534-1.4188-0.57119-2.0214-0.70013-1.7536-1.0671-2.1421-0.83978-1.462-1.3084-2.0629-2.3232-3.3054-1.4717-1.9109-0.82122-0.95148-0.85153-0.86417-1.1312-0.92339-1.2305-0.69487-1.5285-0.46139-1.6596-0.18255-1.7604 0.021674-1.8374 0.16367-6.2666 0.87776-2.1709 0.21353-1.1321 0.059829-2.4733 7.18e-4 -2.5017-0.14046-2.5269-0.24176-4.7946-0.62936-7.6749-1.2882-10.876-2.0811-17.883-3.5613 5.663-3.1708 2.4571-1.3227 2.5885-1.327 2.6555-1.2731 2.6825-1.1708 2.6857-1.0231 2.6765-0.82803 2.6621-0.57933 2.3846-0.27127 2.3542-0.048745 2.3062 0.1518 2.2405 0.33952 1.9323 0.44205 3.7782 0.97902 1.5092 0.31601 2.1969 0.33079 1.8879 0.16874 2.3575 0.011751 1.6591-0.16112 1.7888-0.32006 2.2439-0.61081 1.5185-0.56396 1.4403-0.67897 1.8401-1.1594 1.5808-1.4383 1.2512-1.694 1.0589-1.919 3.4164-7.4392 1.1412-2.3607 1.2326-2.318 1.359-2.2337 1.5278-2.1037 1.6614-1.8733 1.8014-1.7514 1.8834-1.6708 5.6774-4.8431 1.7362-1.6195 1.5474-1.6567 1.2742-1.7253 0.89827-1.8297 0.43361-1.8537 0.11503-1.9447-0.088652-2.0003-0.37996-4.0376-0.09663-1.9737 0.099602-1.8986 0.31446-1.6179 0.45476-1.5681 0.48479-1.4314 0.48415-1.1946 0.97195-2.1708 0.48078-0.98218 1.1029-1.8923 2.479-3.7979 0.93342-1.5298 0.99796-1.5331 0.76996-1.0215 0.85002-1.0131 1.6566-1.7734 1.8198-1.7662 7.5483-6.7946 3.384-3.2987 1.8457-1.976 1.3318-1.5632 1.2217-1.6069 1.4285-2.2727 1.0602-2.3287 0.57126-2.1458 0.15647-2.0764-0.18007-1.8253-0.39415-1.3593-0.49652-0.5969 0.73001-0.028326 9.8667-0.85571 3.1333-0.3651 8.1649-1.2542 6.7508-1.2442 1.2071-0.19139 1.7775-0.19626 1.0195-0.043742 1.2215 0.037941 0.92268 0.10958 0.92387 0.20003 0.73678 0.24868 0.46076 0.21442 0.72855 0.47799 0.60961 0.58056 0.807 1.1878 1.1221 2.3757 1.2197 2.7606 2.6954 6.3746 0.58922 1.5245 0.78259 2.2739 0.46122 1.5056 1.268 4.7713 0.95853 4.1935 1.1323 6.1728 0.648 3.1428 0.49784 1.8289 0.53215 1.4985 0.45948 1.0109 0.70862 1.1966 0.96492 1.1882 0.97706 0.95593 1.068 0.89621 1.1915 0.88792 1.2499 0.83171 1.3788 0.81163 1.925 0.95997 1.901 0.763 1.2567 0.39192 2.7707 0.7132 1.5065 0.30834 1.5023 0.1835 1.3152 0.024992 1.3092-0.071446 2.9008-0.2714 2.3898-0.11478 1.8209-0.14778 1.7535-0.2833 1.0924-0.23189 1.9701-0.49334 2.8869-0.8026 2.0054-0.44265 1.1188-0.14191 1.0657-0.021906 0.9734 0.12577 1.0219 0.35115 0.96628 0.55611 1.1382 0.94896 0.85099 0.93276 0.39358 0.49889 2.5996 3.6244 0.89095 1.0871 1.2561 1.3663 1.1083 1.0847 1.0358 0.93465 1.0017 0.83656 1.4032 1.0468 1.461 0.91138 1.5577 0.80424 1.5502 0.6597 1.3467 0.47021 1.5301 0.42342 1.5798 0.33364 2.3499 0.34728 2.4133 0.23682 6.52 0.49389 3.4224 0.43204 2.4461 0.46659 2.0659 0.51647 1.4594 0.48786 0.51351 0.38127" stroke="#bdc660"/>
    </defs>
    <g clip-path="url(#p7657f859b0)">
     <use y="280.512" fill="#bdc660" stroke="#bdc660" xlink:href="#med9b95726c"/>
    </g>
   </g>
  </g>
 </g>
 <defs>
  <clipPath id="p7657f859b0">
   <rect x="7.2" y="7.2" width="351.21" height="266.11"/>
  </clipPath>
 </defs>
</svg>
