<?xml version="1.0" encoding="UTF-8"?>
<!DOCTYPE svg  PUBLIC '-//W3C//DTD SVG 1.1//EN'  'http://www.w3.org/Graphics/SVG/1.1/DTD/svg11.dtd'>
<svg width="297.47pt" height="280.51pt" version="1.1" viewBox="0 0 297.47 280.51" xmlns="http://www.w3.org/2000/svg" xmlns:xlink="http://www.w3.org/1999/xlink">
 <metadata>
  <rdf:RDF xmlns:cc="http://creativecommons.org/ns#" xmlns:dc="http://purl.org/dc/elements/1.1/" xmlns:rdf="http://www.w3.org/1999/02/22-rdf-syntax-ns#">
   <cc:Work>
    <dc:type rdf:resource="http://purl.org/dc/dcmitype/StillImage"/>
    <dc:date>2024-07-04T12:09:30.927633</dc:date>
    <dc:format>image/svg+xml</dc:format>
    <dc:creator>
     <cc:Agent>
      <dc:title>Matplotlib v3.7.1, https://matplotlib.org/</dc:title>
     </cc:Agent>
    </dc:creator>
   </cc:Work>
  </rdf:RDF>
 </metadata>
 <defs>
  <style type="text/css">*{stroke-linejoin: round; stroke-linecap: butt}</style>
 </defs>
 <g id="figure_1">
  <g id="patch_1">
   <path d="m0 280.51h297.47v-280.51h-297.47v280.51z" fill="none"/>
  </g>
  <g id="axes_1">
   <g id="PatchCollection_1">
    <defs>
     <path id="ma6f196d868" d="m249.01-246.19-0.22354 0.20484-0.2827 0.51073-0.28231 0.71432-0.22545 0.84414-0.14039 0.97699-0.16362 2.0563-0.1644 1.0293-0.24928 0.87192-0.33182 0.85275-1.0879 2.3481-0.39448 1.0733-0.18823 1.0684 0.016174 0.58976 0.16421 0.9084 0.1997 0.68684 1.2599 3.2631 1.5244 3.0296 0.44784 0.97818 0.35708 1.05 0.16134 1.053-0.083663 1.0456-0.26692 1.0443-1.1551 3.0811-0.2734 0.99105-0.095047 0.96023 0.11614 0.84368 0.25293 0.82512 0.60332 1.655 0.19436 0.86124 0.038707 0.87512-0.072351 0.91127-0.24881 1.9112-0.41392 4.4906-0.03034 1.0254 0.053342 1.0129 0.17464 0.98626 0.32914 0.9743 0.43988 0.93882 1.1054 1.9514 0.79744 1.265 0.49424 0.56997 0.29703 0.18519-0.24824 0.39484-3.5946 4.4712-1.2193 1.6458-1.1479 1.6692-1.235 2.0313-0.69513 1.3386-0.75144 1.6985-0.71877 2.0044-0.37803 1.3564-0.23637 1.3293-0.062493 1.3921 0.090377 1.395 0.17936 1.2593 0.44839 1.8263 0.64454 1.8575 0.77422 1.8304 0.88527 1.8399 1.7696 3.2632 1.9825 3.3114 4.9804 7.9682 0.83634 1.4347 1.0667 2.036 0.97289 2.243 0.47285 1.3293 0.46652 1.9033 0.13156 1.9007-0.097706 1.0065-0.24727 1.1741-0.43158 1.3663-0.61568 1.5178-1.275 2.5891-1.9969 3.446-1.4408 2.1962-1.5034 1.902-1.5958 1.7507-2.1326 1.9934-0.80928 0.8036-0.65457 0.75751-0.43593 0.63206-0.22439 0.41758-0.25773 0.71761-0.10076 0.71288 0.004391 0.3823 0.11606 0.73918 0.29522 0.95674 1.7928 4.9202 0.30008 1.1196 0.15862 1.6364-0.057438 1.1585-0.18083 1.1345-1.261 4.6111-0.17916 1.0223-0.083694 1.0413 0.016923 0.95453 0.24405 2.7759 0.066601 1.4914 0.08353 4.703 0.10053 1.2937 0.14498 1.0693 0.41302 2.2351 0.18529 0.58107 0.24065 0.53699 0.407 0.64499 0.40556 0.44899 0.51082 0.40706 0.61524 0.34163 0.70149 0.24538 0.7811 0.16506 1.3658 0.15426 4.0384 0.3096 2.1109 0.34698 6.2564 1.5027 1.5985 0.41889 1.7211 0.55889 2.9983 1.1265 1.2665 0.58362 1.1478 0.73804 1.13 1.1203 0.94511 1.3801 0.66624 1.3159 0.58354 1.4238 0.92231 2.6574 0.8713 2.9497 0.49348 2.2998 0.15559 1.1954 0.057394 1.5677-0.08398 1.2926-0.1592 1.1643-0.2041 1.0748-0.39877 1.6432-0.46818 1.5371-0.49582 1.3255-0.7622 1.7537-1.571 3.3982-0.60001 1.6013-0.21076 0.79009-0.15094 0.87293-0.051268 0.74758 0.022018 0.65244 0.27591 1.4329 0.59379 1.578 0.66423 1.3543 1.5805 3.0088 0.60485 1.4725 0.10751 0.43003-0.014641 0.20102-4.015 2.4339-5.0949 2.9168-3.7525 1.9971-3.3427 1.6087-1.4643 0.62505-1.5781 0.59262-1.5354 0.46843-1.8795 0.37084-1.787 0.052785-1.616-0.29126-1.5414-0.52563-2.9448-1.2792-2.7952-1.163-1.4197-0.5416-2.4712-0.68955-1.2293-0.41573-1.2264-0.58777-1.2136-0.72156-3.647-2.395-2.9499-1.7064-1.4951-0.75707-1.3721-0.5184-2.0442-0.59043-5.2877-1.0742-1.2366-0.37098-1.1431-0.46988-2.2804-1.086-1.5297-0.63581-4.156-1.5982-1.4733-0.64885-2.231-1.1292-3.4659-1.9628-1.1939-0.59386-1.062-0.43974-1.1389-0.32383-0.98124-0.123-0.98833 0.011903-1.9333 0.17629-0.35355-0.054313-0.38681-1.0807-1.4491-3.326-0.5454-1.4443-0.61248-2.0901-0.3707-1.8466-0.14726-1.1785-0.081915-1.582 0.006428-1.6118 0.15124-5.2087-0.005322-1.8259-0.059313-1.8386-0.14374-2.3475-0.45946-4.7003-0.32096-2.5401-0.66521-4.5012-0.59931-3.4071-0.72582-3.3992-0.56708-1.7806-0.63711-1.5525-0.5412-1.124-0.59572-1.1074-0.76582-1.2761-0.91643-1.3115-1.3924-1.6939-1.2198-1.282-1.0749-1.0138-1.2059-1.0456-2.7882-2.1907-5.257-3.6575-1.3758-1.0088-2.3145-1.8168-6.5427-5.3272-3.6439-2.8188-7.2237-5.2716-2.9593-2.0793-3.1608-2.1094-2.182-1.3371-0.93475-0.52357-1.7355-0.86721-1.7687-0.71734-1.128-0.35685-1.1251-0.26398-1.0069-0.14598-0.77898-0.045473-0.86443 0.02908-1.1576 0.19725-1.2887 0.47332-1.3977 0.7863-0.88878 0.61351-1.3114 1.0066-4.4293 3.6575-2.6108 2.0508-4.2742 3.1727-6.3802 4.5611-3.1858 2.372-5.5994 4.527-2.7237 2.1433-2.587 1.9004-4.6638 3.2017-2.3168 1.6873-1.2336 0.9728-5.4535 4.7125-1.753 1.2686-1.7897 0.91646-1.3522 0.38259-1.1003 0.16087-2.0618 0.089674-1.5382-0.017642-1.5341-0.14-1.5166-0.36058-1.7069-0.77624-1.5967-1.0208-1.6044-1.2175-5.2992-4.402-2.1868-1.6374-2.1417-1.3445-1.4574-0.73364-0.89099-0.38227-1.4084-0.51321-1.168-0.34589-1.4849-0.34848-2.2446-0.37624-2.8465-0.29339-4.1823-0.21391-5.5187-0.16986-1.7404-0.0991-1.9683-0.20168-1.6111-0.32266-1.1035-0.47359-0.43289-0.53801 0.18552-0.5619 0.12441-2.0838 0.048555-3.3908-0.19134-13.002 0.10822-4.9958 0.23803-5.6502 0.035043-2.0594-0.047578-2.3006-0.1552-2.6522-0.29394-3.0433-0.76151-5.3831-1.0133-5.7642-1.7495-8.8783-0.56125-3.2653-0.15393-1.4171-0.094014-1.8937 0.038019-1.6166 0.12276-1.324 0.28281-1.7047 0.21682-0.94872 0.47079-1.7438 1.1706-3.7111 0.65384-1.8167 0.70297-1.7465 0.68065-1.5001 1.1931-2.3779 0.52489-0.89753 0.52151-0.73182 0.3278-0.38256 0.45835-0.44215 1.0989-0.71736 1.1142-0.46112 3.0033-0.97717 1.5198-0.58084 1.579-0.72042 1.1085-0.63286 0.90543-0.64694 0.87442-0.81332 0.65718-0.7655 1.582-2.0046 0.79902-0.8413 0.49256-0.43224 1.1767-0.85039 1.778-1.0352 1.1994-0.50627 1.1698-0.37921 0.86086-0.33317 1.0911-0.59062 0.77992-0.5085 0.62052-0.48052 0.70713-0.72929 0.56168-0.80226 0.30166-0.57501 0.51959-1.6784 0.23318-1.9389 0.006351-2.0965-0.1768-2.1634-0.32872-2.1457-0.59248-3.0135-0.2729-2.0376-0.058281-1.48 0.067568-1.9237 0.30795-1.8113 0.68096-1.6123 1.2036-1.3744 1.632-1.0881 1.9546-0.81304 1.3182-0.35926 1.0986-0.21146 1.2243-0.15711 1.2608-0.089337 2.37-0.00539 1.6021 0.096037 1.948 0.21053 1.6064 0.23979 1.9573 0.36945 1.6162 0.36717 3.5058 0.9706 8.4582 2.6663 3.1966 0.94041 2.929 0.71691 2.104 0.4108 1.8897 0.29729 3.3746 0.37346 2.2813 0.13715 1.4668 0.025161 1.3197-0.034198 1.3345-0.10372 1.4123-0.20153 1.4873-0.34134 1.397-0.48965 1.0847-0.5399 0.6741-0.40748 1.0415-0.72174 4.3734-3.4355 1.5671-1.005 1.2686-0.6105 0.69215-0.2462 1.7387-0.43991 2.2099-0.47143 1.6124-0.48268 1.1207-0.47801 1.1219-0.596 1.9098-1.2449 2.0232-1.5642 1.8367-1.5722 5.8116-5.1739 2.1523-1.7697 2.2457-1.745 2.3191-1.72 4.7549-3.331 4.6211-3.0221 3.1123-1.8845 1.2635-0.69453 0.57-0.27078 0.22206-0.043917 1.168 0.41298 8.224 3.4125 3.2744 1.3149 1.483 0.53157 1.6937 0.499 2.1817 0.48912 2.0326 0.25195 3.9788 0.2817 1.9245 0.27089 1.0647 0.24573 3.4961 1.0477 1.9168 0.49714 1.2604 0.22639 1.868 0.20205 2.4172 0.067559 2.688-0.14873 3.4166-0.46994 3.3825-0.62124 1.4987-0.33049 1.8865-0.50225 1.9526-0.63216 1.5666-0.57618 7.2866-2.9666 3.9029-1.5173 2.882-1.0262 1.3048-0.40987 1.7918-0.4609 1.1305-0.19198 1.2147-0.086723 1.3393-0.029552 1.2799-0.00735 1.2644 0.1829 1.1373 0.49687 1.1409 0.74366 0.74224 0.56413 0.8556 0.756 1.1036 1.1402 0.75162 0.86689 0.90246 1.1048 1.4233 1.9087 0.49528 0.82475 0.42776 0.95004 0.21604 0.64542 0.31819 1.3814 0.26223 2.5299 0.15894 0.68377 0.2019 0.24927" stroke="#bdc660"/>
    </defs>
    <g clip-path="url(#p2f48a062de)">
     <use y="280.512" fill="#bdc660" stroke="#bdc660" xlink:href="#ma6f196d868"/>
    </g>
   </g>
  </g>
 </g>
 <defs>
  <clipPath id="p2f48a062de">
   <rect x="7.2" y="7.2" width="283.07" height="266.11"/>
  </clipPath>
 </defs>
</svg>
