<?xml version="1.0" encoding="UTF-8"?>
<!DOCTYPE svg  PUBLIC '-//W3C//DTD SVG 1.1//EN'  'http://www.w3.org/Graphics/SVG/1.1/DTD/svg11.dtd'>
<svg width="329.48pt" height="280.51pt" version="1.1" viewBox="0 0 329.48 280.51" xmlns="http://www.w3.org/2000/svg" xmlns:xlink="http://www.w3.org/1999/xlink">
 <metadata>
  <rdf:RDF xmlns:cc="http://creativecommons.org/ns#" xmlns:dc="http://purl.org/dc/elements/1.1/" xmlns:rdf="http://www.w3.org/1999/02/22-rdf-syntax-ns#">
   <cc:Work>
    <dc:type rdf:resource="http://purl.org/dc/dcmitype/StillImage"/>
    <dc:date>2024-07-04T12:09:16.715639</dc:date>
    <dc:format>image/svg+xml</dc:format>
    <dc:creator>
     <cc:Agent>
      <dc:title>Matplotlib v3.7.1, https://matplotlib.org/</dc:title>
     </cc:Agent>
    </dc:creator>
   </cc:Work>
  </rdf:RDF>
 </metadata>
 <defs>
  <style type="text/css">*{stroke-linejoin: round; stroke-linecap: butt}</style>
 </defs>
 <g id="figure_1">
  <g id="patch_1">
   <path d="m0 280.51h329.48v-280.51h-329.48v280.51z" fill="none"/>
  </g>
  <g id="axes_1">
   <g id="PatchCollection_1">
    <defs>
     <path id="m40ae85783b" d="m177.44-258.97 0.14331 0.013204 0.28708 0.29195 0.70653 0.98463 1.337 2.2807 2.8923 5.4224 1.8206 3.74 2.0342 4.7127 1.1725 3.1207 1.0215 3.1573 0.79838 3.0218 0.60857 3.0284 0.34742 2.4983 0.20805 2.4886 0.071383 2.4607-0.061797 2.4391-0.21131 2.5615-0.36157 2.5254-0.44516 2.1923-0.56269 2.1563-0.73384 2.2744-0.85765 2.2288-0.9878 2.2193-1.0902 2.1752-1.4733 2.6402-1.5848 2.585-1.6787 2.5419-1.7507 2.5002-7.5829 10.39-1.5165 2.2444-1.9483 3.1105-1.6252 2.8493-1.7027 3.238-1.5641 3.2284-1.4287 3.2626-1.1596 3.0149-0.99106 3.0339-0.88235 3.4626-0.57085 3.4542-0.19088 2.7541 0.068293 2.7091 0.28388 2.2811 0.5116 2.2081 0.78 2.1659 1.0358 2.0456 0.77866 1.2141 1.503 1.9061 1.3051 1.353 1.4249 1.2516 2.6125 1.8449 2.8634 1.5469 3.5779 1.4193 3.4815 0.97566 3.7861 0.7591 3.7284 0.55374 4.0744 0.39407 3.8148 0.11105 2.0999-0.057934 4.3286-0.32208 6.8809-0.80735 3.2713-0.28222 3.0855-0.036954 2.5703 0.20876 2.519 0.4532 3.3057 1.0333 2.2878 1.0458 1.7987 1.0285 1.7326 1.1599 1.618 1.2248 1.5703 1.3008 5.8201 5.248 1.5936 1.3577 1.5904 1.2339 1.6324 1.1068 2.6412 1.4 2.3665 0.84449 1.9648 0.40996 2.1521 0.13319 1.7283-0.15209 1.5162-0.34534 1.9063-0.77755 1.5967-1.037 1.5137-1.4212 1.3954-1.7702 1.246-2.0129 1.22-2.4236 1.37-3.377 1.005-3.039 2.0438-7.3546 1.163-3.839 1.2909-3.5714 1.1191-2.6301 1.0475-2.1518 1.1578-2.0657 2.3166-3.2918 2.3817-2.4714 2.3684-1.7892 2.5875-1.386 2.0623-0.75104 2.1161-0.48682 3.4802-0.22245 2.1261 0.21462 1.9354 0.4505 1.5155 0.57236 1.1663 0.65824 0.65594 0.60304 0.17103 0.55762 0.21764 0.69571 3.4952 8.724 3.7267 9.0696 1.702 4.6822 0.83902 3.0721 0.24652 1.3361 0.13964 1.3015-0.018126 1.6818-0.31335 1.7294-0.4287 1.354-0.54192 1.348-4.21 8.9403-2.0685 4.5552-1.7203 3.471-2.0533 3.5812-1.2005 1.8475-4.4672 6.3995-2.6608 4.1813-1.6448 3.0297-1.0977 2.7758-0.60282 2.0859-0.5337 2.6174-0.48882 4.1228-0.24436 3.2891-0.043687 2.5708 0.055749 2.219 0.69328 10.853 0.15478 3.3408-0.025048 3.2942-0.23489 1.8046-0.46944 1.7456-0.45772 1.1342-0.80659 1.6142-1.9102 3.5169-1.2701 2.7717-0.68775 1.9241-0.28385 1.0146-0.25916 1.3015-0.01955 0.57169 0.068466 0.16106-0.95888 0.65802-0.5975 0.30227-1.2854 0.48535-2.1032 0.47118-1.5711 0.14508-1.5512 0.024663-2.2483-0.11226-7.6125-0.82607-2.2088-0.14608-2.788 0.088074-4.9305 0.59457-2.202 0.14868-3.6213-0.049068-4.5932-0.3525 0.30509-0.65304 0.11875-0.77679 0.053241-1.1276-0.051294-1.3194-0.19542-1.6002-0.19785-1.0268-0.4973-1.8079-0.74623-1.8344-1.0502-1.7541-0.74744-0.91762-1.3089-1.2446-0.976-0.73608-1.6972-1.0349-2.9092-1.3658-3.9102-1.441-2.4761-0.75026-2.5693-0.64296-2.6262-0.49697-2.0941-0.27147-2.1181-0.17899-3.6392-0.13481-3.1138 0.021533-5.8042 0.29586-5.493 0.49716-5.9007 0.67694-10.289 1.4067-18.189 2.8747-5.3343 0.72888-3.3679 0.39001-2.5059 0.37713-3.77 0.74095-6.144 1.5091-10.395 2.9043-9.0779 2.6993-5.1719 1.3328-3.001 0.66645-3.2643 0.63584-3.8417 0.64825-12.816 1.9763-14.403 2.6892-4.7068 0.70792-2.2168 0.23891-2.2307 0.1562-3.243 0.040825-3.9902-0.2874-4.3584-0.66975-4.3496-0.94383-4.2808-1.1202-11.07-3.2736-2.1988-0.50736-0.65764 0.089709-1.7431-1.6802-1.2941-1.38-2.8993-3.44-2.1192-2.9065-2.0845-3.3407-1.1306-2.1386-0.96614-2.1596-0.83301-2.3698-0.55454-2.3592-0.22877-2.4335 0.37698-3.5658 1.0774-3.4745 1.5877-3.3784 1.9497-3.2781 2.2002-3.172 2.3679-3.0569 7.3416-8.5143 2.0953-2.9378 1.3967-2.5595 1.4232-3.3058 1.0874-3.0451 1.142-3.6761 1.0389-3.6869 3.2322-12.325 0.56968-1.7538 1.9766-5.1676 0.90767-3.0175 2.2289-9.6227 1.7816-6.7675 0.80611-2.6201 0.86052-2.4897 4.5286-12.287 0.78763-2.6957 0.58029-2.7424 0.35289-2.7568 0.093923-2.7382-0.21698-2.8869-0.5058-2.7797-0.74694-2.6206-0.67688-1.8201-2.8765-7.5506-1.3317-2.9203-0.31279-0.8143-0.2626-0.93307-0.1344-0.85343-0.058846-1.0061-0.009321-4.1349-0.33327-2.7258-0.41684-1.9662-0.57143-2.0617-0.8768-2.5298-1.3064-3.075-1.6386-3.2972-4.2442-7.8646-1.4609-2.9597-1.2696-2.8179-1.3863-3.4478-0.62664-1.764-0.44848-1.4483-0.2291-1.0181 0.06518-0.41245 6.622-2.8893 3.1134-1.4601 3.2348-1.6228 2.8215-1.5217 3.1044-1.8248 8.1005-5.3155 4.7697-2.9469 1.9532-1.0416 1.9056-0.83838 1.2932-0.4318 1.1-0.26534 1.4622-0.21637 1.1312-0.036198 1.679 0.22689 1.1578 0.34343 2.1625 0.93187 1.7866 0.95399 6.1001 3.5317 2.4252 1.2298 2.2738 0.91201 1.915 0.4986 1.4135 0.16082 1.4163-0.030679 1.5195-0.23136 1.4036-0.36737 1.4082-0.48734 3.0865-1.3709 3.1559-1.6932 10.209-5.9836 1.9666-1.041 3.5262-1.6493 1.5441-0.62428 2.7969-0.97792 2.8842-0.82247 2.1764-0.52733 6.1821-1.2435 7.5122-1.2269 3.0923-0.38396 3.0364-0.26294 2.5412-0.11038 2.9347 0.029291 2.5824 0.21564 1.6725 0.26625 1.7496 0.40007 1.4236 0.40601 2.658 0.92707" stroke="#bdc660"/>
    </defs>
    <g clip-path="url(#pf11278b553)">
     <use y="280.512" fill="#bdc660" stroke="#bdc660" xlink:href="#m40ae85783b"/>
    </g>
   </g>
  </g>
 </g>
 <defs>
  <clipPath id="pf11278b553">
   <rect x="7.2" y="7.2" width="315.08" height="266.11"/>
  </clipPath>
 </defs>
</svg>
