<?xml version="1.0" encoding="UTF-8"?>
<!DOCTYPE svg  PUBLIC '-//W3C//DTD SVG 1.1//EN'  'http://www.w3.org/Graphics/SVG/1.1/DTD/svg11.dtd'>
<svg width="267.97pt" height="280.51pt" version="1.1" viewBox="0 0 267.97 280.51" xmlns="http://www.w3.org/2000/svg" xmlns:xlink="http://www.w3.org/1999/xlink">
 <metadata>
  <rdf:RDF xmlns:cc="http://creativecommons.org/ns#" xmlns:dc="http://purl.org/dc/elements/1.1/" xmlns:rdf="http://www.w3.org/1999/02/22-rdf-syntax-ns#">
   <cc:Work>
    <dc:type rdf:resource="http://purl.org/dc/dcmitype/StillImage"/>
    <dc:date>2024-07-04T12:09:28.115423</dc:date>
    <dc:format>image/svg+xml</dc:format>
    <dc:creator>
     <cc:Agent>
      <dc:title>Matplotlib v3.7.1, https://matplotlib.org/</dc:title>
     </cc:Agent>
    </dc:creator>
   </cc:Work>
  </rdf:RDF>
 </metadata>
 <defs>
  <style type="text/css">*{stroke-linejoin: round; stroke-linecap: butt}</style>
 </defs>
 <g id="figure_1">
  <g id="patch_1">
   <path d="m0 280.51h267.97v-280.51h-267.97v280.51z" fill="none"/>
  </g>
  <g id="axes_1">
   <g id="PatchCollection_1">
    <defs>
     <path id="m10152d0e71" d="m76.778-253.79 0.54478 0.37065 0.84459 0.81383 0.97591 1.1073 0.96014 1.2853 0.64747 1.0561 0.50568 1.1152 0.31278 1.1328 0.10903 1.1575-0.040249 0.69568-0.441 1.8767-0.7473 1.8194-2.9282 5.7237-0.47833 1.1618-0.37623 1.1844-0.3721 2.0444-0.14383 2.0608-0.071869 3.0171-0.095964 1.353-0.20469 1.2967-0.43602 1.9181-0.4657 1.6208-0.7564 2.1046-0.728 1.5829-1.4757 2.7072-0.6139 1.3894-0.44112 1.4651-0.16756 1.0097-0.117 1.755-0.087695 2.3602-0.18722 2.4781-0.02086 1.2007 0.058981 2.7639 0.18615 1.5865 0.3306 1.2836 0.48196 1.3183 0.52618 1.1862 1.3323 2.5124 0.79372 1.3131 1.9125 2.8431 1.2932 1.7059 1.4133 1.6806 1.4764 1.5898 1.4103 1.3758 1.4317 1.2566 1.5299 1.1809 1.5025 0.99253 1.0316 0.58375 1.888 0.98695 0.87656 0.40178 1.0024 0.3302 0.97225 0.18416 2.4205 0.096094 3.2547 0.47796 1.4881 0.1052 3.0093 0.006421 4.9299-0.24297 2.7346-0.084818 2.0208 0.069131 3.042 0.28956 1.7223 0.043836 1.5361-0.13029 1.5311-0.2663 4.5692-1.1124 1.3074-0.2112 1.4371-0.093183 1.3839-0.032131 1.4014-0.11082 0.65726-0.12646 1.233-0.40377 1.2092-0.60152 1.436-1.0042 0.54321-0.47485 1.0246-1.0341 2.5161-3.0106 1.1661-1.2734 0.90609-0.84115 0.94453-0.63411 0.64786-0.29074 1.5267-0.37492 2.9753-0.2637 1.8178-0.35666 1.0248-0.36537 1.4809-0.68771 5.493-3.0001 1.6482-0.76192 1.5928-0.60289 1.6442-0.47994 0.99855-0.21894 1.4073-0.21734 5.8762-0.48575 6.611-0.71092 1.6089-0.127 1.6174-0.084686 3.0612-0.046212 8.4486 0.14749 1.2286-0.057189 1.3923-0.15198 1.7922-0.35704 1.8993-0.5877 1.7474-0.74027 2.0707-1.1329 1.3527-0.90415 1.1957-0.91979 1.3984-1.2357 3.0513-3.1577 1.4407-1.3522 0.66476-0.52998 0.89303-0.61729 0.82409-0.48015 0.92819-0.44392 0.81321-0.30684 0.84416-0.2372 0.89762-0.15649 1.0835-0.044235 0.53917 0.045205 0.79496 0.15904 0.66807 0.22248 0.66095 0.29887 0.61746 0.34738 0.80115 0.54969 0.27382 0.23909 0.12807 0.17807 0.22475 0.39928 1.2096 1.6823 4.7312 6.2736 1.4983 1.7685 2.4088 2.62 1.2449 1.5965 0.80475 1.2716 0.45924 0.91102 0.29741 0.74814 0.29666 1.0421 0.16359 0.9918 0.091982 1.1184 0.17488 7.809 0.23768 3.8535 0.25718 2.3237 0.19242 1.2803 0.19435 1.0699 0.45312 1.9651 0.57497 1.8911 0.35655 0.98423 0.96252 2.2649 1.2535 2.4971 2.7659 5.1661 2.6265 5.3441 0.95381 2.1161 0.80627 2.2819 0.65367 2.4496 0.42762 2.1396 0.87817 5.8164 1.0741 6.0376 0.33485 2.2873-0.42091 0.068337-1.5027 0.094598-2.1539-0.003954-2.3205-0.16304-1.1881-0.13642-1.7707-0.27414-2.0462-0.43107-1.1259-0.28743-2.2811-0.70201-1.4432-0.54168-1.5876-0.69614-1.9847-0.98985-2.332-1.28-1.8076-1.1491-4.3002-3.0178-1.1921-0.74134-0.91124-0.48395-0.65944-0.29614-1.0408-0.36479-1.214-0.27515-1.0149-0.11857-0.9295-0.024356-1.0714 0.081521-0.75255 0.12857-0.86211 0.22428-0.99556 0.35376-1.1687 0.51801-1.604 0.86832-2.1194 1.3882-1.0318 0.78327-0.91817 0.7768-1.4232 1.4007-0.70504 0.80534-0.72106 0.94483-0.42188 0.64443-0.6838 1.3319-0.38303 1.1066-0.18207 0.85627-0.070058 0.74872 0.07768 1.0346 0.16258 0.60147 0.2277 0.54358 0.43676 0.742 0.90015 1.107 1.3128 1.2791 0.93564 0.81783 1.4969 1.2056 1.9811 1.4949 4.2629 3.0685 1.2476 0.99585 1.208 1.1041 0.74637 0.80133 0.60135 0.73655 0.79646 1.1588 0.4959 0.90149 0.29253 0.63527 0.50595 1.3731 0.27338 0.97136 0.23085 1.0797 0.19352 1.3423 0.12469 1.9088-0.042785 2.5538-0.16845 2.5504-0.74624 7.7773-0.18508 2.4285-0.068962 2.1693 0.10563 1.7276 0.23668 0.90092 0.35839 0.25652-0.43926 0.25765-1.0546 0.39988-5.9159 1.8962-1.3728 0.51624-1.3408 0.61822-1.0302 0.5906-1.5527 1.1276-1.4455 1.3203-1.3486 1.4707-0.61727 0.74768-1.2363 1.6005-1.7162 2.3851-1.0756 1.613-1.4125 2.2753-2.3049 4.011-1.6985 2.7761-2.9137 4.2593-1.3508 1.806-0.65298 0.8008-1.018 1.1183-1.0715 1.036-2.0468 1.7377-1.4211 1.0454-2.234 1.3715-1.0674 0.53902-1.9184 0.80387-1.9909 0.65482-2.6303 0.64458-2.6901 0.45198-2.3696 0.25471-2.3796 0.15767-5.7492 0.25518-2.211 0.18091-2.532 0.30863-3.3767 0.60749-2.3559 0.5436-2.7816 0.74507-2.7676 0.84041-2.7495 0.92963-2.7254 1.0207-2.6933 1.1212-4.2865 2.0289-7.146 3.611-2.4092 1.1419-2.4405 1.0544-2.813 1.0484-2.2659 0.72182-2.2701 0.64993-5.3111 1.367-2.5295 0.57752-2.3759 0.48046-2.1481 0.34898-1.8214 0.16817-1.3637-0.080545-0.73345-0.42033 0.037596-0.83436 0.67312-1.1761 1.1399-1.4278 1.4773-1.6113 3.5975-3.5839 8.1877-7.9121 2.0287-2.0723 1.949-2.1088 1.8218-2.1504 1.6327-2.1989 0.85211-1.3335 1.0975-2.0348 0.84589-2.005 0.55912-1.9152 0.21512-1.7535-0.20903-1.505-0.73309-1.1543-1.268-0.70773-1.717-0.35092-2.0234-0.059681-2.1731 0.17031-1.9204 0.29266-1.7132 0.35724-1.2721 0.33877-0.51306 0.21988-0.50879 0.066742-5.767 1.6417-5.3806 1.3716-2.8485 0.6154-2.8427 0.50736-2.8003 0.35985-2.7307 0.16728-2.6385-0.079595-2.5248-0.39334-2.4902-0.7938-2.371-1.1141-2.2748-1.3488-2.195-1.5185-1.935-1.4852-3.4369-2.8956-2.0182-1.8324-1.9379-1.8666-1.5235-1.57-1.4245-1.5983-0.93102-1.153-0.85123-1.1767-0.96835-1.5889-0.71301-1.5259-0.4314-1.2619-0.31373-1.2855-0.22618-1.5348-0.074977-1.5363 0.06108-1.3815 0.18237-1.3564 0.27077-1.2019 0.33524-1.1152 1.1942-3.3844 0.60177-2.0504 0.44668-2.131 0.58392-3.267 0.46035-2.0314 0.55915-1.7338 0.59648-1.329 0.67314-1.1779 1.8894-2.9378 0.45749-0.87314 0.34296-0.87908 0.14709-0.58484 0.077391-0.63751-0.026377-0.791-0.091495-0.52847-0.22556-0.77908-0.70192-1.5586-0.78626-1.2404-0.58065-0.72804-0.52643-0.54715-0.35974-0.32148-1.0239-0.75336-1.337-0.7806-3.8647-2.0682-1.5144-0.97571-1.1533-0.92019-1.1154-1.0726-1.3162-1.5427-0.83493-1.1512-0.95311-1.4627-1.6097-2.6549-0.97134-1.7269-1.0372-2.0971-1.3619-3.1048-1.0536-2.7262-0.51554-1.5689-0.5124-1.8548-1.8751-7.5927-0.33618-1.7339-0.19476-1.4183-0.12596-1.4452-0.062642-1.7331 0.064481-2.8699 0.46253-7.2718 0.041396-2.4274-0.034227-1.2756-0.21253-2.7947-0.33592-2.4317-0.54842-2.4247-0.71241-1.9837-0.84446-1.7312-0.856-1.3843-0.66298-0.83275-0.45026-0.27969 0.22776-0.17929 0.55333-0.57688 0.81529-0.94855 1.8499-2.4168 1.1397-1.683 1.092-1.7831 1.0025-1.8238 0.90508-1.8822 0.71365-1.8744 0.44913-1.8634 0.083279-0.68552-0.047274-2.0886-0.43894-2.0717-0.75191-2.0405-1.0014-1.9963-1.2026-1.9395-1.3184-1.8192-1.4153-1.7766-4.256-5.1702-2.6125-3.486-2.431-3.5749-1.7265-2.7696-1.2674-2.2046-1.4274-2.8162-0.6431-1.6022-0.33788-1.2988-0.097492-1.2817 0.19683-1.3191 0.45442-1.3221 0.68043-1.3825 0.85389-1.3907 0.99822-1.389 1.5556-1.8812 1.3805-1.4919 1.4647-1.4685 1.5254-1.4442 3.2577-2.8742 1.264-1.0396 1.9378-1.442 1.4213-0.88934 1.2278-0.66734 2.3245-1.0842 2.2432-0.89292 2.3143-0.78548 2.1271-0.60363 2.1686-0.51168 2.5403-0.48337 2.5669-0.38982 2.576-0.31561 5.0953-0.45445 2.4638-0.14561 3.6437-0.092798 1.2261 0.035113 2.0208 0.247 1.7608 0.6229 0.94347 0.63006 0.81944 0.78273 0.71779 0.89384 0.79519 1.2358 0.67365 1.2572 0.81189 1.7205" stroke="#bdc660"/>
    </defs>
    <g clip-path="url(#p8b52b27ca5)">
     <use y="280.512" fill="#bdc660" stroke="#bdc660" xlink:href="#m10152d0e71"/>
    </g>
   </g>
  </g>
 </g>
 <defs>
  <clipPath id="p8b52b27ca5">
   <rect x="7.2" y="7.2" width="253.57" height="266.11"/>
  </clipPath>
 </defs>
</svg>
