<?xml version="1.0" encoding="UTF-8"?>
<!DOCTYPE svg  PUBLIC '-//W3C//DTD SVG 1.1//EN'  'http://www.w3.org/Graphics/SVG/1.1/DTD/svg11.dtd'>
<svg width="218.82pt" height="280.51pt" version="1.1" viewBox="0 0 218.82 280.51" xmlns="http://www.w3.org/2000/svg" xmlns:xlink="http://www.w3.org/1999/xlink">
 <metadata>
  <rdf:RDF xmlns:cc="http://creativecommons.org/ns#" xmlns:dc="http://purl.org/dc/elements/1.1/" xmlns:rdf="http://www.w3.org/1999/02/22-rdf-syntax-ns#">
   <cc:Work>
    <dc:type rdf:resource="http://purl.org/dc/dcmitype/StillImage"/>
    <dc:date>2024-07-04T12:09:23.925863</dc:date>
    <dc:format>image/svg+xml</dc:format>
    <dc:creator>
     <cc:Agent>
      <dc:title>Matplotlib v3.7.1, https://matplotlib.org/</dc:title>
     </cc:Agent>
    </dc:creator>
   </cc:Work>
  </rdf:RDF>
 </metadata>
 <defs>
  <style type="text/css">*{stroke-linejoin: round; stroke-linecap: butt}</style>
 </defs>
 <g id="figure_1">
  <g id="patch_1">
   <path d="m-0 280.51h218.82v-280.51h-218.82v280.51z" fill="none"/>
  </g>
  <g id="axes_1">
   <g id="PatchCollection_1">
    <defs>
     <path id="m676db0e49f" d="m109.01-261.17 0.20984 0.24791 1.624 2.3505 0.51901 0.67741 0.83282 0.99224 6.8399 7.7443 4.3199 4.5505 1.5886 1.7268 2.1547 2.5264 1.9121 2.4327 0.8527 1.0078 0.78203 0.76981 0.76962 0.5911 0.83161 0.48672 0.99974 0.42034 1.0467 0.30582 0.97625 0.20225 2.6121 0.43614 1.9553 0.43929 1.0725 0.30663 0.86698 0.29926 0.66067 0.26367 0.49105 0.23471 0.63531 0.38878 0.84463 0.70796 0.53945 0.56788 1.226 1.4425 0.6819 0.75428 0.55108 0.54582 0.63575 0.54023 0.85835 0.59354 1.7633 1.0346 3.7142 2.268 0.74711 0.41592 1.2605 0.61542 1.2939 0.48011 1.0411 0.24163 0.99322 0.089597 0.88658-0.018203 1.0178-0.10797 2.9794-0.5928 0.21677 0.012472 0.00499 0.15059 0.074525 0.15976 0.8105 1.3165 0.84334 1.1787 1.0734 1.3349 1.3977 1.543 1.0164 1.0102 3.0951 2.8882 2.2764 2.2621 0.80039 0.87761 0.71783 0.87825 0.50998 0.72111 0.42992 0.72359 0.26881 0.5551 0.22276 0.58202 0.22296 0.83745 0.070501 0.4015 0.073954 0.82713-0.029751 0.61177-0.032807 0.22276-0.25466 0.85502-0.36187 0.62601-0.37055 0.45388-0.83938 0.80068-0.76213 0.59863-0.83649 0.58028-3.4674 2.2301-5.476 3.696-1.4443 0.89859-1.3646 0.7172-1.0722 0.44923-1.1666 0.36318-1.1703 0.23603-2.5127 0.3149-0.95645 0.20231-0.71021 0.23185-0.67452 0.30844-0.59051 0.36388-0.6949 0.56702-0.90681 1.0442-0.61696 1.0426-0.38557 0.9796-0.18938 0.82293-0.075433 1.0315 0.061267 0.98491 0.11797 0.73387 0.32656 1.32 0.30481 0.98124 0.75801 2.1591 1.8532 4.9081 2.2406 5.765 1.0934 3.1232 0.95984 3.1397 0.74992 2.9073 0.97028 4.0963 0.32896 1.2105 0.32645 1.004 2.4688 6.4749 0.70024 1.5792 1.0103 1.9472 0.77394 1.3135 0.81457 1.276 1.1473 1.6681 3.4461 4.6485 1.9229 2.2237 1.0432 1.1755 0.91091 0.94027 1.7454 1.6556 1.1634 0.96647 3.2833 2.455 0.87366 0.75125 0.53945 0.58275 0.50125 0.62358 0.79856 1.1041 0.78756 1.2805 0.91734 1.8437 0.88884 1.5327 0.68791 1.0567 0.50304 0.60538 0.62369 0.59982 2.0671 1.6849 3.1009 2.6054 0.68018 0.65452 0.71306 0.81173 0.68128 0.91306 0.86356 1.3507 1.5005 2.6934 0.93219 1.9519 0.53112 1.3344 0.61534 1.8531 1.2364 4.2226-5.514 2.0153-2.4676 0.83817-2.2831 0.64363-0.57478 0.11739-1.9322 0.30508-0.63616 0.16432-0.52476 0.19178-0.31497 0.15779-0.28476 0.18892-0.2501 0.22705-0.2206 0.28018-0.70489 1.2606-0.42988 0.58425-0.56641 0.63078-0.34763 0.32698-0.65153 0.47874-0.29286 0.15777-0.45288 0.1779-0.2663 0.070214-0.57006 0.09793-2.6045 0.32815-1.1541 0.24124-1.1912 0.37506-0.45435 0.23123-0.051667 0.075686-0.5609-1.1886-0.46541-0.86856-0.54937-0.85378-0.4959-0.61752-0.56613-0.54077-0.65181-0.43528-1.2165-0.43034-1.3961-0.17064-0.84709-0.024258-2.5173 0.064111-1.7022 0.1006-3.5202 0.31397-1.7797 0.21805-1.7734 0.26931-1.755 0.33394-1.4982 0.3535-1.4695 0.41703-1.5989 0.54267-1.5498 0.61689-1.6059 0.74906-0.84824 0.46104-0.98193 0.61442-1.3388 0.99625-0.87327 0.7182-2.2506 1.9857-1.0539 0.99772-1.0119 1.0146-0.95372 1.0307-1.0747 1.2997-0.68964 0.95964-0.58992 0.96077-0.47009 0.95514-0.31394 0.91342-0.13598 0.9113 0.067354 0.8855 0.23343 0.89729 0.4443 1.1069 0.98612 1.9456 0.87559 1.5231 1.1928 1.9134 1.6795 2.4698 1.8049 2.4084 2.9403 3.5719 0.97781 1.2274 0.91085 1.2569 0.83084 1.34 0.6918 1.3792 0.51947 1.4097 0.30325 1.4313 0.03266 1.4429-0.057535 0.4736-0.31029 1.2874-0.49304 1.295-0.62529 1.3004-0.69261 1.26-0.75445 1.2319-0.78736 1.1627-1.278 1.6697-0.56326 0.65532-0.38228 0.39854-0.15735 0.12387-0.21276 0.18379-0.65584 0.28047-1.196 0.36915-2.5117 0.61396-5.3834 1.2129-1.557 0.39848-1.5265 0.43314-1.9275 0.62281-3.4225 1.1854-1.0801 0.31031-1.4432 0.31587-1.3672 0.17194-1.3473 0.002457-1.4673-0.23075-1.4507-0.42717-1.4406-0.56426-1.0976-0.49413-2.1461-1.0634-3.41-1.8355-3.0165-1.7197-3.7832-2.2758-1.1634-0.56615-1.178-0.34968-1.2134-0.066169-1.2435 0.17013-1.2626 0.34155-1.3702 0.49266-0.85492 0.34398-1.0178 0.46594-1.8747 0.95586-2.5788 1.4282-1.171 0.72357-1.1687 0.77535-1.1658 0.82155-4.992 3.6946-2.3339 1.5903-3.5379 2.2643-3.4156 2.1157-1.724 0.93726-0.34509 0.13998-0.14168 0.002383-1.3691-4.3345-0.49516-1.7629-0.17007-1.0214 0.003719-0.59728 0.072705-0.79001-0.02129-0.65251-0.15889-0.99822-0.26604-1.0013-0.23067-0.63654-0.40968-0.94402-0.30714-0.61814-0.3397-0.59363-0.38646-0.53754-0.21666-0.23202-0.81738-0.72468-0.26252-0.34628-0.082994-0.21158-0.84634-1.6943-1.038-2.3729-0.45553-1.1352-0.55672-1.6096-0.36701-1.4743-0.1156-0.81723-0.018795-0.7793 0.10562-0.75966 0.45837-1.1452 0.75632-1.1064 0.97024-1.0228 1.1793-0.96031 2.4051-1.6677 1.0447-0.82489 0.84416-0.93113 0.58887-1.1954 0.17377-0.84295 0.024078-1.3063-0.11085-1.0276-0.21267-1.0573-0.2432-0.85551-0.38968-1.1204-0.43555-1.0813-0.61002-1.3258-0.47241-0.93124-1.9611-3.6869-0.77032-1.3918-1.5073-2.5118-0.722-1.1113-2.6005-3.8106-0.73876-1.1474-1.0693-1.7729-0.47675-0.92752-0.41908-1.083-0.21836-0.88349-0.1596-1.3538 0.006669-1.3914 0.14507-1.3853 0.26851-1.4456 0.48822-1.9828 1.1086-3.9405 0.56448-1.8656 0.65107-1.9009 1.6143-4.1888 0.34994-1.0911 0.27981-1.1221 0.18656-1.1497 0.079517-1.2012-0.002895-1.2251-0.12178-3.1124-0.022428-1.9942 0.065305-1.3585 0.14442-1.3563 0.20725-1.2545 0.26401-1.2403 1.2085-4.5826 0.20375-0.94755 0.1405-0.93099 0.045717-1.2838-0.044208-0.49342-0.18601-0.91588-0.29262-0.87432-0.38856-0.84305-0.49958-0.84826-0.5881-0.815-1.0597-1.1871-0.64825-0.62194-1.2069-1.0295-3.0796-2.4359-1.8211-1.5741-1.1753-1.1629-0.76043-0.89989-0.61971-0.85893-0.48858-0.76524-0.5168-0.8937-2.1142-3.836-3.0403-4.9298-1.1134-1.9339-0.76295-1.4336-1.8217-3.6693-2.5249-4.833-1.1815-2.4508-0.62207-1.1913-0.71768-1.1283-0.31903-0.38704-0.46652-0.46445-0.84156-0.62418-0.34666-0.20352-0.40134-0.20065-0.87097-0.32423-1.0134-0.24787-0.80818-0.13198-2.4562-0.25528-2.6817-0.14091-1.1077-0.016358-2.3041 0.039934-1.8611 0.13021-1.0213 0.1236-2.322 0.35246-0.59152 0.070811-0.13081-0.002322-0.043399-0.034681-0.053845 0.014026-0.1438-0.10177-0.20569-0.22742-0.24185-0.35783-0.20516-0.37802-0.2506-0.56398-0.41893-1.2945-0.23832-1.4626-0.018303-1.1034 0.12299-1.1025 0.30049-1.1694 0.47032-1.0992 0.6372-0.99873 0.52645-0.61032 1.2033-1.0689 1.105-0.80373 2.1725-1.4747 0.99609-0.71959 1.4984-1.216 0.78272-0.72417 1.0362-1.1486 0.76953-1.2585 0.4021-1.238 0.21092-1.3426 0.25062-3.8706 0.08958-0.98851 0.22803-1.81 0.30367-1.6323 0.3035-1.1788 0.291-0.88518 0.25867-0.65353 0.37204-0.75473 0.41925-0.62191 0.66538-0.57954 0.14562-0.070819 0.36633-0.10913 0.26124-0.026812 0.4674 0.038881 0.24456 0.053903 0.71452 0.25812 0.72521 0.41408 0.35468 0.26576 0.62529 0.57664 0.41096 0.44818 1.9303 2.2993 1.6126 1.7456 1.0187 1.039 0.73929 0.70135 0.93236 0.8101 0.93497 0.69659 0.74609 0.44433 0.744 0.31924 0.51948 0.13899 0.68842 0.094413 2.2476 0.016022 1.1872 0.053683 1.1985 0.22754 1.174 0.47292 1.1738 0.67506 1.1838 0.80752 2.2699 1.6411 1.0902 0.73823 1.1169 0.67722 1.0254 0.52538 1.0465 0.42014 1.0661 0.28471 0.72 0.10102 0.58692 0.032973 1.5032-0.1035 1.523-0.38532 0.49465-0.19321 1.4392-0.79054 1.3321-1.032 1.2225-1.2063 1.1001-1.3298 0.9529-1.4154 0.59829-1.0756 0.57426-1.1706 0.53463-1.3701 1.1988-3.5363 0.51487-1.5925 0.30782-1.1173 0.25592-1.1481 0.2213-1.4173 0.11045-1.4523 0.007014-0.93656-0.04982-1.2031-0.18118-1.7118-0.31803-1.7242-0.39758-1.5153-0.49311-1.4905-0.57002-1.4439-0.60029-1.3204-0.61875-1.2186-0.7839-1.3918-0.61212-0.98015-0.2504-0.33815-0.053903-0.22293-0.30446-0.51321-0.6477-0.93497-0.86271-1.1402-1.0174-1.2552-1.2822-1.4712-1.3942-1.4665-1.1827-1.1384-1.2252-1.0982-3.528-2.9996-1.488-1.3303-1.4265-1.3565-1.3467-1.3923-1.2455-1.4404-1.2231-1.6192-0.64647-0.92241-1.0842-1.6308-1.9736-3.2079-1.6613-2.9675-0.35532-0.70053-0.35148-0.80678-0.25865-0.79922-0.18212-1.2533 0.004058-0.5508 0.14716-1.0916 0.36371-0.95272 0.37939-0.51848 0.51706-0.44935 0.70924-0.38399 0.25799-0.10558 0.98775-0.27159 0.69272-0.047448 0.45849 0.04242 0.41279 0.09099 0.78637 0.29694 0.48894 0.26768 0.39501 0.26416 1.2531 1.022 0.84088 0.79812 2.1741 2.2614 1.9462 1.8825 0.94016 0.81385 1.3968 1.0102 0.89232 0.56319 0.97156 0.55178 1.4902 0.71314 3.07 1.1943 3.5353 1.2624 1.2145 0.33576 0.95664 0.20131 1.0134 0.1433 1.3623 0.098874 6.481 0.026212 3.1921-0.089672 1.3369-0.11719 0.57827-0.076759 0.99668-0.18793 1.1089-0.29859 1.0443-0.36877 1.0397-0.44382 1.1523-0.56984 0.9584-0.52558 1.7535-1.0476 1.0695-0.68352 1.0571-0.7261 0.50945-0.3752 1.3189-1.064 1.2589-1.1504 1.1852-1.2231 1.0934-1.2794 0.67938-0.88422 2.5814-3.6166 0.78341-0.87922 0.37954-0.26831 0.34682 0.045678" stroke="#bdc660"/>
    </defs>
    <g clip-path="url(#p6b7febf33b)">
     <use y="280.512" fill="#bdc660" stroke="#bdc660" xlink:href="#m676db0e49f"/>
    </g>
   </g>
  </g>
 </g>
 <defs>
  <clipPath id="p6b7febf33b">
   <rect x="7.2" y="7.2" width="204.42" height="266.11"/>
  </clipPath>
 </defs>
</svg>
