<?xml version="1.0" encoding="UTF-8"?>
<!DOCTYPE svg  PUBLIC '-//W3C//DTD SVG 1.1//EN'  'http://www.w3.org/Graphics/SVG/1.1/DTD/svg11.dtd'>
<svg width="371.52pt" height="211.45pt" version="1.1" viewBox="0 0 371.52 211.45" xmlns="http://www.w3.org/2000/svg" xmlns:xlink="http://www.w3.org/1999/xlink">
 <metadata>
  <rdf:RDF xmlns:cc="http://creativecommons.org/ns#" xmlns:dc="http://purl.org/dc/elements/1.1/" xmlns:rdf="http://www.w3.org/1999/02/22-rdf-syntax-ns#">
   <cc:Work>
    <dc:type rdf:resource="http://purl.org/dc/dcmitype/StillImage"/>
    <dc:date>2024-07-04T12:09:33.210126</dc:date>
    <dc:format>image/svg+xml</dc:format>
    <dc:creator>
     <cc:Agent>
      <dc:title>Matplotlib v3.7.1, https://matplotlib.org/</dc:title>
     </cc:Agent>
    </dc:creator>
   </cc:Work>
  </rdf:RDF>
 </metadata>
 <defs>
  <style type="text/css">*{stroke-linejoin: round; stroke-linecap: butt}</style>
 </defs>
 <g id="figure_1">
  <g id="patch_1">
   <path d="m0 211.45h371.52v-211.45h-371.52v211.45z" fill="none"/>
  </g>
  <g id="axes_1">
   <g id="PatchCollection_1">
    <defs>
     <path id="mc047e5418c" d="m63.759-195.06 81.066 6.1487 30.125 2.5913 7.1517 0.6832 7.204 0.77735 6.6917 0.84379 6.7824 0.9865 6.9661 1.1699 7.1033 1.3574 7.2645 1.5885 7.3018 1.7871 6.9141 1.82 7.7635 2.159 55.061 15.732 46.933 14.546-0.523 1.5545-3.1331 11.088-1.2385 4.1608-1.5739 5.053-2.7313 8.3712-4.4349 13.031-14.771 42.604-2.8777 8.1286-1.4771 3.9577-1.5319 3.8376-1.6178 3.6617-1.7455 3.4088-1.9292 3.0507-2.1875 2.5513-2.5445 1.8643-1.8922 0.75537-2.061 0.43311-3.1877 0.1754-3.4013-0.22522-2.9011-0.40568-2.9838-0.55464-6.9612-1.6221-7.9893-2.1536-28.277-8.211-11.086-3.0588-7.6961-1.8585-4.0209-0.82524-3.9484-0.66834-3.9029-0.46361-3.6408-0.16428-3.2192 0.21991-2.5808 0.67833-1.1641 0.64629-0.70296 0.65398-0.37087 0.89245 0.13376 0.44515 0.14768 0.38131-0.37365 0.83013-1.3105 1.6641-1.9959 1.9706-2.4516 2.122-2.734 2.1836-5.8539 4.3664-5.1091 3.6497-5.2215 3.5367-2.5555 1.5578-2.5236 1.3488-2.4965 1.076-2.4743 0.72573-0.80685 0.14557-2.0233 0.1386-2.3097-0.1843-2.2981-0.46265-2.2729-0.66108-2.5303-0.90734-2.4525-0.99973-6.2085-2.7446-1.4086-0.50492-1.4346-0.38802-4.6548-0.78907-2.7173-0.65919-3.927-1.242-2.4882-0.909-2.8786-1.1551-3.1006-1.3658-3.1164-1.4714-8.122-4.1164-2.8049-1.6474-2.4929-1.6511-2.3037-1.4078-5.8056-3.1235-2.4406-1.1612-2.4988-1.0533-5.8583-2.0683-1.9475-0.8004-3.1481-1.5766-10.239-5.7593-1.9872-0.95941-0.7517-0.18972-0.2715 0.25348-0.82972-0.52332-1.7261-0.24618-2.2031 0.046345-1.3724 0.17658-3.1575 0.56942-2.4974 0.31902-2.729 0.024055-2.8815-0.26549-3.839-0.62454-4.6602-0.93746-10.408-2.4555-1.7339-0.47684-2.5693-1.0126-2.2357-1.3025-0.50562-0.37698-1.6066-1.6274-1.0029-1.9394-0.27376-1.5843 0.04899-1.7098 0.44703-2.5102 1.4018-5.5056 1.7983-8.6854 0.82487-3.0118 3.0222-9.3371 0.59427-2.1022 0.7798-3.4796 0.30608-2.5203 0.044511-2.0172-0.37281-13.44 0.12877-3.871 0.28191-2.5408 0.17444-0.98049 0.55432-2.1022 0.80232-2.0129 0.88994-1.6542 3.0086-4.7919 0.8143-1.5132 1.3075-3.1852 1.0124-3.482 0.78503-3.6951 0.61018-3.8374 0.47493-3.9167 0.62453-7.5163 0.15858-3.4926-0.00627-8.9115 0.16496-2.7834 0.19939-1.651 0.72054-2.9099 1.2754-2.6245 1.9293-2.1519 2.3748-1.4289 2.8009-0.96124 3.005-0.57378 2.8071-0.25272 2.1349-0.036622 1.6156 0.082411 0.78215 0.15676" stroke="#bdc660"/>
    </defs>
    <g clip-path="url(#p52fcbc694f)">
     <use y="211.453282" fill="#bdc660" stroke="#bdc660" xlink:href="#mc047e5418c"/>
    </g>
   </g>
  </g>
 </g>
 <defs>
  <clipPath id="p52fcbc694f">
   <rect x="7.2" y="7.2" width="357.12" height="197.05"/>
  </clipPath>
 </defs>
</svg>
