<?xml version="1.0" encoding="UTF-8"?>
<!DOCTYPE svg  PUBLIC '-//W3C//DTD SVG 1.1//EN'  'http://www.w3.org/Graphics/SVG/1.1/DTD/svg11.dtd'>
<svg width="289.96pt" height="280.51pt" version="1.1" viewBox="0 0 289.96 280.51" xmlns="http://www.w3.org/2000/svg" xmlns:xlink="http://www.w3.org/1999/xlink">
 <metadata>
  <rdf:RDF xmlns:cc="http://creativecommons.org/ns#" xmlns:dc="http://purl.org/dc/elements/1.1/" xmlns:rdf="http://www.w3.org/1999/02/22-rdf-syntax-ns#">
   <cc:Work>
    <dc:type rdf:resource="http://purl.org/dc/dcmitype/StillImage"/>
    <dc:date>2024-07-04T12:09:16.989206</dc:date>
    <dc:format>image/svg+xml</dc:format>
    <dc:creator>
     <cc:Agent>
      <dc:title>Matplotlib v3.7.1, https://matplotlib.org/</dc:title>
     </cc:Agent>
    </dc:creator>
   </cc:Work>
  </rdf:RDF>
 </metadata>
 <defs>
  <style type="text/css">*{stroke-linejoin: round; stroke-linecap: butt}</style>
 </defs>
 <g id="figure_1">
  <g id="patch_1">
   <path d="m0 280.51h289.96v-280.51h-289.96v280.51z" fill="none"/>
  </g>
  <g id="axes_1">
   <g id="PatchCollection_1">
    <defs>
     <path id="m3d49f3105f" d="m270.24-132.34-3.0866 1.435-2.4939 1.0913-3.871 1.5335-2.551 0.82016-3.8226 0.9742-1.2101 0.3946-1.1041 0.46687-1.0665 0.54478-2.0443 1.2553-1.9417 1.413-1.8245 1.5519-0.85239 0.83795-0.85142 0.94406-0.80671 0.98823-2.2654 3.1212-15.557 23.513-0.5221-0.068764-0.57136 0.40392-1.1794 1.3236-3.886 5.4445-1.0227 1.3311-1.646 1.9261-1.7842 1.8412-1.8952 1.7319-1.9855 1.6017-0.76693 0.56484-1.5913 1.0931-1.61 1.029-2.6397 1.577-1.4428 0.79121-1.7346 0.85785-1.5652 0.66813-1.572 0.55515-1.6693 0.4495-1.5004 0.28291-0.87053 0.11555-2.0126 0.17642-4.8054 0.13499-9.7566-0.039459-2.0508-0.14885-1.5256-0.21572-1.4401-0.30306-1.8284-0.50546-5.322-1.9005-4.6216-1.7979-2.2434-1.0736-1.4626-0.83064-1.3433-0.84783-2.1027-1.5208-1.4153-1.2252-2.9298-2.8339-3.2729-3.4044-1.2659-1.2015-1.8864-1.5386-0.59465-0.39766-0.73605-0.40298-1.1838-0.44702-0.62142-0.13698-0.69022-0.063858-1.0428 0.071428-1.487 0.40885-0.38838 0.15895-1.0677 0.57806-0.77839 0.67646-0.57114 0.78053-0.54753 1.4342-0.22153 1.6433-0.006108 0.82918 0.27416 1.8867 0.38938 1.2031 0.52912 1.2145 0.5349 1.0546 2.501 4.4673 2.9711 4.8292 1.6322 2.455 0.9732 1.3886 1.8413 2.4376 1.875 2.1685 2.0273 2.096 2.1475 2.0421 2.2401 2.0026 5.3111 4.5157 1.8444 1.6532 1.7805 1.7137 2.0988 2.2077 1.9302 2.2148 1.5316 1.8895 1.2987 1.7164 0.97505 1.4075 0.45834 0.7726 0.081145 0.3356-1.0592 2.9832-0.47136 1.1253-0.51494 1.0199-0.56739 0.93658-0.78588 1.0673-0.77239 0.86504-0.81328 0.76575-0.68138 0.55339-0.96009 0.67597-1.276 0.76052-1.5605 0.78352-2.4414 1.0302-2.0094 0.74038-2.4434 0.77035-1.1291 0.28705-1.9123 0.35454-1.9196 0.17783-2.0531 0.011797-2.1932-0.15556-1.1219-0.13488-3.4448-0.59912-8.7856-1.9828-1.4835-0.43031-0.79324-0.28851-1.0595-0.50624-0.64056-0.41569-0.86105-0.7674-0.89802-1.1263-0.39212-0.61809-0.62673-1.1902-0.73208-1.8732-0.50817-1.7918-0.44518-2.281-0.2631-2.0226-0.5256-5.0159-0.33248-2.3891-0.29625-1.5207-0.73708-2.7425-0.92746-2.7083-1.049-2.6751-3.3131-7.8002-2.0186-5.2273-0.56774-1.308-0.65322-1.3336-0.93688-1.6884-1.111-1.7026-1.9792-2.5264-4.1918-5.0843-6.3129-7.4158-3.9807-4.8015-1.0757-1.1799-0.81432-0.80404-1.4671-1.3009-1.3997-1.1224-2.8872-2.1218-1.2892-0.87053-1.1803-0.71844-1.7388-0.8822-1.0672-0.42777-1.4042-0.4159-0.9884-0.18226-1.4443-0.1049-1.4584 0.055994-1.3118 0.16455-1.3088 0.25403-2.1891 0.58629-1.9416 0.64343-2.7505 1.0556-2.0435 0.98274-1.6779 1.0846-0.84573 0.71428-0.98741 0.97515-1.4466 1.7011-3.3228 4.5605-0.89409 1.1609-0.9397 1.1082-1.4817 1.4656-1.868 1.4196-3.0715 1.8964-1.2687 0.70202-1.6565 0.82361-6.4922 2.838-1.5037 0.48185-1.0079 0.18851-1.2089 0.077339-0.43151-0.020761-1.3282-0.23646-1.296-0.45215-1.2443-0.6145-1.01-0.63131-0.86755-0.68655-0.74514-0.73612-0.55491-0.62723-1.0794-1.3882-1.1284-1.8115-0.80228-1.6477-0.82187-1.9717-1.4548-4.0639-0.43714-0.78493-0.31558-0.33177-0.22729-0.033868 1.2197-2.168 7.1516-12.047 2.7332-4.941 1.5182-2.9929 1.0181-2.2401 1.0454-2.7734 0.52282-1.8762 0.17986-0.87524 0.22782-1.594 0.14931-2.3703-0.031131-2.8323-0.20706-3.531-0.23122-2.6074-0.37448-2.9453-1.2679-7.2311-0.21714-1.4649-0.14948-1.429-0.060199-1.3962 0.010781-0.77057 0.17987-2.0755 0.30063-1.6797 0.21487-0.87753 0.57943-1.7733 0.38192-0.877 0.39804-0.7465 0.38715-0.59739 0.59432-0.72338 0.33644-0.32392 0.65571-0.48683 0.45329-0.24096 0.53217-0.19843 1.1008-0.193 1.8126 0.10072 1.3262 0.29037 1.3696 0.43582 1.3738 0.54777 1.3816 0.6479 1.976 1.0874 1.5771 1.0164 1.6944 1.2963 1.4583 1.3303 0.97215 1.0027 1.038 1.1991 2.8306 3.5468 0.49899 0.51331 0.66234 0.54552 1.1887 0.56676 1.0817 0.067233 0.47395-0.16096 0.26341-0.17428 0.3038-0.32999 0.24974-0.50911 0.097896-0.66357-0.022116-0.3925-0.10121-0.49599-2.3243-6.2481-0.42815-1.4725-0.31261-1.497-0.3428-2.639-0.25973-4.9696-0.51722-4.5777-0.064819-1.0998 0.010354-0.84433 0.16422-1.4444 0.55895-2.7298 1.1557-4.7586 0.96162-4.5108 1.1551-4.9034 0.44068-1.6936 1.4993-4.8153 0.5478-2.0955 0.25103-1.4288 0.19263-1.5772 0.11665-1.4256 0.044194-1.4977-0.15473-2.3839-0.20638-1.4781-0.17879-0.8849-0.50608-1.8168-1.2526-3.7155-0.55216-1.8682-0.58124-2.3066-0.54-2.5909-0.2688-1.8996-0.38248-4.1627-0.38148-2.5666-0.010968-0.66457 0.093849-0.24332 0.94388-0.76082 1.5257-1.0882 0.57135-0.50554 0.7537-0.8604 0.75853-1.22 0.83024-1.8722 2.0875-5.2441 1.7869-5.0986 0.80086-1.9336 0.45702-0.82159 0.59279-0.86553 0.85274-0.93933 0.9186-0.7416 3.1148-1.7323 0.97325-0.6974 1.8257-1.0577 3.4132-0.68816 3.4075-0.55901 3.2399-0.55898 2.5224-0.37315 2.7285-0.46537 2.8371-0.26121 3.1458-3.5e-4 3.6812 0.42808 3.7308 2.5241 1.1076 1.3356 0.87679 1.4105 0.63038 1.7455 0.32919 1.6269 0.66406 4.6682 0.21428 1.3273 0.2762 1.3248 0.32364 1.1347 0.39058 1.1108 1.0426 2.2818 0.70689 1.1619 0.47878 0.62825 0.47534 0.51577 0.82 0.71053 0.87811 0.57141 0.42874 0.21917 0.65264 0.26847 1.2162 0.33439 1.6837 0.15611 1.8027-0.11121 1.8898-0.33286 2.1608-0.58496 1.3565-0.45819 2.275-0.89153 4.0749-1.8394 5.8261-2.8793 6.7621-3.488 4.0773-1.9223 2.2238-0.92176 2.6919-0.96871 2.1829-0.6238 1.3795-0.27526 1.2313-0.14224 1.2135-0.030429 0.90088 0.054212 1.8736 0.32661 1.4951 0.42793 2.6232 0.95202 3.5908 1.4531 4.7289 2.0546 3.0664 1.4381 2.5079 1.2556 3.7968 2.0114 3.4997 1.9717 3.0696 1.8493 3.3987 2.2302 2.1792 1.617 1.7343 1.4248 2.3774 2.1909 2.2844 2.4211 2.1601 2.6541 5.3996 7.2008 1.5711 1.8841 0.72312 0.79877 1.816 1.8321 1.8481 1.6629 3.6992 3.0607 1.4115 1.0956 1.3704 0.97695 2.5844 1.7352 1.1363 0.99375 0.58434 0.67505 0.53853 0.8068 0.54836 1.0848 0.39505 1.1557 0.22033 1.2471 0.055754 1.0807-0.010644 1.1028-0.16983 4.2655 0.013432 0.70716 0.11142 1.3001 0.3746 1.7101 0.7507 2.0346 1.0211 2.0706 1.2268 2.0968 1.3811 2.1157 1.4949 2.129 3.0343 4.0573 7.9664 10.347 1.8262 2.5446 1.0307 1.6462 0.85494 1.5295 0.80006 1.5714 0.97826 2.1 3.8435 9.1253 2.6568 5.8177 0.99582 1.8251 1.1761 1.5878 1.1778 1.1039 1.3029 0.88591 0.8049 0.42564 1.1021 0.46876 1.5404 0.48328 0.90564 0.18793 0.50057 0.001156" stroke="#bdc660"/>
    </defs>
    <g clip-path="url(#p354db2bd56)">
     <use y="280.512" fill="#bdc660" stroke="#bdc660" xlink:href="#m3d49f3105f"/>
    </g>
   </g>
  </g>
 </g>
 <defs>
  <clipPath id="p354db2bd56">
   <rect x="7.2" y="7.2" width="275.56" height="266.11"/>
  </clipPath>
 </defs>
</svg>
