<?xml version="1.0" encoding="UTF-8"?>
<!DOCTYPE svg  PUBLIC '-//W3C//DTD SVG 1.1//EN'  'http://www.w3.org/Graphics/SVG/1.1/DTD/svg11.dtd'>
<svg width="197.73pt" height="280.51pt" version="1.1" viewBox="0 0 197.73 280.51" xmlns="http://www.w3.org/2000/svg" xmlns:xlink="http://www.w3.org/1999/xlink">
 <metadata>
  <rdf:RDF xmlns:cc="http://creativecommons.org/ns#" xmlns:dc="http://purl.org/dc/elements/1.1/" xmlns:rdf="http://www.w3.org/1999/02/22-rdf-syntax-ns#">
   <cc:Work>
    <dc:type rdf:resource="http://purl.org/dc/dcmitype/StillImage"/>
    <dc:date>2024-07-04T12:09:12.256276</dc:date>
    <dc:format>image/svg+xml</dc:format>
    <dc:creator>
     <cc:Agent>
      <dc:title>Matplotlib v3.7.1, https://matplotlib.org/</dc:title>
     </cc:Agent>
    </dc:creator>
   </cc:Work>
  </rdf:RDF>
 </metadata>
 <defs>
  <style type="text/css">*{stroke-linejoin: round; stroke-linecap: butt}</style>
 </defs>
 <g id="figure_1">
  <g id="patch_1">
   <path d="m0 280.51h197.73v-280.51h-197.73v280.51z" fill="none"/>
  </g>
  <g id="axes_1">
   <g id="PatchCollection_1">
    <defs>
     <path id="m720aa67892" d="m98.706-242.27 1.4429 3.2128 0.32729 0.56491 0.96096 1.4049 0.3722 0.80376 0.095378 0.42047 0.015877 0.43225-0.26841 1.7652 0.02138 0.74586 0.09021 0.37096 0.16295 0.41095 0.22737 0.41987 0.27011 0.38349 0.13723 0.12461-0.020082 0.16177-0.23656 0.34336-0.75307 0.60511-1.6795 0.97124-3.8019 1.8725-1.0161 0.5948-0.97223 0.73693-0.91405 1.014-0.40688 0.69606-0.17674 0.42788-0.22388 0.89524-0.065273 0.97607 0.077569 0.80768 0.11859 0.54175 0.26861 0.78278 0.45991 0.87938 0.58253 0.76601 0.46355 0.45861 0.75506 0.57878 0.67759 0.40364 0.63519 0.31273 0.70714 0.28311 0.86014 0.25885 0.61824 0.13414 1.1806 0.15438 1.0179 0.045178 2.2424-0.07458 1.5456-0.10973 3.2753-0.31951 3.996-0.1989 2.0285-0.23912 3.2997-0.5891 1.125-0.14892 1.6452-0.089579 1.6557 0.11387 0.83244 0.15902 0.84856 0.24949 0.90025 0.37846 0.80519 0.44596 0.89837 0.59584 0.97413 0.76063 0.66589 0.61618 0.66536 0.72048 0.64723 0.82812 0.52166 0.77877 0.77633 1.3869 4.2194 8.9551 1.436 2.7143 1.0578 1.8165 1.0158 1.5528 1.0513 1.4398 5.3365 6.6093 2.0975 2.7258 0.87308 1.298 0.53325 0.92964 0.54021 1.1217 0.2916 0.71488 0.67521 2.1271 0.46575 1.9996 0.85116 4.7082 0.22666 2.1468 0.003594 1.9774-0.11716 1.5212-0.6899 5.2145-0.049512 1.5296 0.09383 1.6909 0.14562 1.0301 0.33467 1.3929 0.4743 1.3071 0.71993 1.4558 1.1301 1.858 4.3553 6.4098 1.0296 1.4299 1.5698 1.9884 3.1427 3.6318 4.3956 4.8802 2.3408 2.5086 2.143 2.0814 3.3714 2.8685 0.99798 0.90199 1.2525 1.2218 1.1749 1.2742 0.81966 1.0045 1.1189 1.6589 0.44385 0.78921 0.50402 1.0682 0.3326 0.90794 0.233 0.88009 0.11566 0.66533 0.074647 1.1257-0.045319 0.94951-0.17735 1.1934-0.42747 1.5986-0.57495 1.4894-0.75179 1.5242-2.007 3.3528-1.0054 1.9281-0.39196 0.93395-0.31542 0.92133-0.28187 1.1236-0.15652 1.0108-0.072324 1.0249 0.010596 1.1881 0.14312 2.4846 0.015177 1.0964-0.040837 0.96416-0.16219 1.2892-0.32589 1.3411-0.47407 1.3469-0.84387 1.8385-1.0271 1.8457-1.0344 1.6507-1.1222 1.6572-1.2994 1.8119-4.615 6.0945-1.2591 1.7766-1.1752 1.8333-1.0503 1.9034-0.90209 2-0.75814 2.0506-0.63735 2.064-0.83334 3.3401-0.3171 1.6662-0.17264 1.5497 0.038773 1.765 0.25927 1.2938 0.37926 0.53035-0.67919 0.67187-1.5916 1.3022-1.9878 1.3875-1.3172 0.77655-1.3702 0.67536-1.3079 0.50697-1.3187 0.37354-1.3131 0.22817-1.2939 0.067796-1.5606-0.14202-4.5369-0.9917-0.71994-0.099005-1.2854-0.094867-0.9953-0.020131-2.6728 0.09923-3.7004 0.30685-1.4019 0.20621-0.63183 0.13639-1.153 0.41269-0.87783 0.48243-0.8553 0.69718-0.31356 0.3692-0.44223 0.77259-0.87058 2.1379-0.42769 0.8143-0.50168 0.79103-0.56544 0.75446-0.69392 0.68052-0.81316 0.57521-0.90584 0.44106-0.6532 0.21259-2.0197 0.49488-0.80116 0.24623-1.5666 0.60862-1.1801 0.55953-1.9215 1.0633-2.6961 1.7093-2.3183 1.5964-3.6293 2.6367-8.0202 6.0474-1.1331 0.77485-0.28555 0.11697-0.32592-0.23113-0.52956-0.62902-1.0086-1.4694-0.9833-1.7199-0.55748-1.1387-0.50634-1.1888-0.51998-1.4845-0.38482-1.5027-0.27853-1.9273-0.13783-2.3948-0.021383-2.7848 0.15757-2.2603 0.19627-1.266 1.2629-6.4545 0.2559-1.9065 0.074723-1.947-0.13769-1.9297-0.13934-0.86172-0.51877-1.9168-0.73696-1.8585-0.87867-1.7991-0.52648-0.96122-1.0185-1.5987-1.0726-1.4276-1.1603-1.3438-1.1947-1.21-1.245-1.0902-1.3234-0.96527-1.3654-0.76484-1.2026-0.47683-1.4304-0.40029-1.3343-0.21376-2.6591-0.27194-1.6193-0.32408-0.65654-0.22585-1.0982-0.55689-1.0552-0.74652-0.9267-0.81987-0.89449-0.93296-1.2035-1.4656-0.73071-0.99379-0.87777-1.2883-0.89754-1.4245-0.95595-1.623-1.7457-3.1733-5.3707-10.39-1.9116-3.5597-3.3871-5.9551-4.7194-7.8905-1.7709-3.2647-1.2302-2.6074-1.1341-2.8881-2.0144-5.8306-4.1051-11.418-1.1375-3.3074-2.6309-7.9999-1.2579-3.5354-1.6065-4.0832-1.0535-2.4299-0.67961-1.4288-0.73273-1.402-1.3565-2.2673-1.4701-2.1907-2.9677-4.1803-1.3251-1.956-2.0306-3.2216-0.52087-0.69352-0.38798-0.35068-0.21131-0.003775 2.4833-8.7455 1.5212-4.9039 0.83678-2.4527 0.8971-2.4117 0.97139-2.3489 1.065-2.2677 1.5095-2.7533 1.5551-2.4983 1.5711-2.3109 1.1429-1.5795 2.9314-3.7737 2.1478-2.5429 1.5646-1.7137 1.0317-1.0475 1.5195-1.3948 3.0839-2.4863 1.3455-1.3189 0.66414-0.85892 0.5312-0.85357 0.6276-1.325 0.28651-0.81062 0.22498-0.80524 0.20925-0.9812 0.23815-1.6658 0.31662-3.3549 0.1721-1.3202 0.21654-1.3078 0.53856-2.5537 0.69659-2.5667 0.4324-1.3131 0.58985-1.5283 0.81262-1.7573 1.1551-2.0143 1.3323-1.8164 1.2174-1.3262 1.3542-1.3246 1.4285-1.2567 1.4149-1.1155 2.0508-1.4845 1.1134-0.72973 1.69-1.0151 1.2243-0.65528 1.847-0.86125 3.5297-1.4026 1.9724-0.64138 1.0439-0.2895 1.7035-0.36141 0.96279-0.13923 1.3906-0.10608 0.79671-0.003082 1.7221 0.15397 0.81712 0.14674 0.95706 0.22668 1.3251 0.40641 1.3505 0.5223 1.5532 0.74524 0.82422 0.47689 1.1631 0.78192 1.6379 1.3822 0.98976 0.96825 1.6493 1.756 1.8211 2.036 1.0391 1.2503 1.0178 1.396 1.0166 1.5606 0.96813 1.6386 1.2804 2.3846 0.42232 0.69556 0.19679 0.2568 0.26713 0.22302 0.10336 0.01255 0.088247-0.079087" stroke="#bdc660"/>
    </defs>
    <g clip-path="url(#p6c449133dc)">
     <use y="280.512" fill="#bdc660" stroke="#bdc660" xlink:href="#m720aa67892"/>
    </g>
   </g>
  </g>
 </g>
 <defs>
  <clipPath id="p6c449133dc">
   <rect x="7.2" y="7.2" width="183.33" height="266.11"/>
  </clipPath>
 </defs>
</svg>
