<?xml version="1.0" encoding="UTF-8"?>
<!DOCTYPE svg  PUBLIC '-//W3C//DTD SVG 1.1//EN'  'http://www.w3.org/Graphics/SVG/1.1/DTD/svg11.dtd'>
<svg width="371.52pt" height="275.86pt" version="1.1" viewBox="0 0 371.52 275.86" xmlns="http://www.w3.org/2000/svg" xmlns:xlink="http://www.w3.org/1999/xlink">
 <metadata>
  <rdf:RDF xmlns:cc="http://creativecommons.org/ns#" xmlns:dc="http://purl.org/dc/elements/1.1/" xmlns:rdf="http://www.w3.org/1999/02/22-rdf-syntax-ns#">
   <cc:Work>
    <dc:type rdf:resource="http://purl.org/dc/dcmitype/StillImage"/>
    <dc:date>2024-07-04T12:09:25.264540</dc:date>
    <dc:format>image/svg+xml</dc:format>
    <dc:creator>
     <cc:Agent>
      <dc:title>Matplotlib v3.7.1, https://matplotlib.org/</dc:title>
     </cc:Agent>
    </dc:creator>
   </cc:Work>
  </rdf:RDF>
 </metadata>
 <defs>
  <style type="text/css">*{stroke-linejoin: round; stroke-linecap: butt}</style>
 </defs>
 <g id="figure_1">
  <g id="patch_1">
   <path d="m0 275.86h371.52v-275.86h-371.52v275.86z" fill="none"/>
  </g>
  <g id="axes_1">
   <g id="PatchCollection_1">
    <defs>
     <path id="m03a2d6408a" d="m262.75-255.2 0.22606-0.038591 0.17292 0.1202 0.062027 0.28353-0.059595 0.50684-0.22969 0.75923-1.2554 2.9701-0.72429 2.0283-0.58842 2.4316-0.22804 1.4932-0.18207 2.691 0.038128 1.893 0.1578 1.7821 0.20672 1.3838 0.49373 2.2288 0.34712 1.1844 0.6786 1.8765 0.57752 1.3011 1.7032 3.0265 2.0411 2.8256 2.2966 2.6196 2.4943 2.3982 2.6547 2.1488 3.167 2.0727 1.626 0.86098 1.4133 0.653 9.5545 3.7479 2.7909 1.2711 2.9536 1.6589 7.0571 4.4483 2.3761 1.4091 2.0546 1.0768 6.5444 3.0831 2.3926 1.3496 2.0476 1.3254 2.6303 1.9205 2.0398 1.694 2.0767 1.941 1.7314 1.8122 1.9506 2.2741 1.9498 2.533 1.6973 2.4403 1.9234 2.9929 2.5881 4.5695 4.2933 7.2184 1.0383 1.9396 1.2971 2.7603 0.80202 1.9865 0.66574 1.8642 0.79483 2.4961 1.1841 4.2208 0.94139 3.8583 0.52245 2.812 0.3031 2.8357 0.043142 1.1481-0.15533 3.596-0.50631 3.499-0.73567 3.2545-0.82463 2.7947-0.73396 2.0201-0.4067 0.78553-0.29243-0.12635-0.81829 0.033295-1.3207 0.22203-6.9783 1.7179-9.5736 1.9959-5.5631 1.5576-2.8975 1.0188-2.8278 1.3484-2.578 1.5162-1.7602 1.1672-4.3405 3.1238-4.8471 3.256-1.9209 1.1355-1.7534 0.8099-1.4742 0.56926-2.1456 0.67252-2.3832 0.62247-1.8502 0.81488-0.99832 0.72057-0.70114 0.70267-0.46906 0.62723-0.48393 0.88025-0.58212 1.4967-1.4254 4.4509-1.1186 3.0599-1.7002 3.9955-1.3642 2.6337-1.4939 2.2849-1.6855 2.0348-1.8263 1.7114-1.9255 1.2954-1.8994 0.80844-0.8493 0.26873-3.1362 0.75829-3.2319 0.87425-6.0538 1.152-8.4479 1.4718-1.6542 0.20011-4.1024 0.25547-1.3863 0.21966-1.5864 0.45801-0.71311 0.27624-1.685 0.77954-2.3974 1.3313-2.3823 1.5664-3.3433 2.4825-1.9685 1.6302-1.9041 1.7372-2.5383 2.6313-1.8554 2.2136-2.1558 2.7525-1.7755 2.0095-2.6328 2.8141-1.3744 1.5891-1.3076 1.6465-4.3504 5.8438-2.3583 2.9381-1.794 2.0466-1.2041 1.2563-1.2977 1.0804-2.33 1.2032-2.7118 0.72293-2.9501 0.2519-3.0584-0.24933-1.9482-0.43112-2.0837-0.62521-3.8471-1.2848-2.734-0.76324-1.6357-0.31072-2.3156-0.16447-1.724 0.13394-1.755 0.33949-2.5634 0.79503-3.2354 1.3831-2.4785 1.2588-2.4857 1.3843-3.4066 2.035-9.1064 5.8574-2.4079-2.397-5.2762-4.9012-6.4329-5.6717-3.3736-2.8497-5.6416-4.5823-17.082-13.319-5.2234-4.1481-2.2388-1.851-2.1782-1.8888-2.9209-2.7503-3.0581-3.2669-2.2166-2.6303-3.6354-4.7636-3.7677-5.4314-3.9125-6.0789-4.4066-7.355-9.6774-17.147-3.717-6.4202-4.0027-6.51-2.1852-3.299-1.4439-2.0603-3.2296-4.2808-1.6852-2.0902-3.7165-4.3503-4.321-4.7545-7.2378-7.7485-3.8873-4.3827-1.8051-2.2078-2.0252-2.748-1.7162-2.7924-1.2825-2.8548-0.53598-1.9589-0.19646-1.6383 0.086727-2.253 0.42874-2.3026 0.71107-2.3476 1.1952-2.9555 1.4773-3.012 1.7024-3.0626 1.8838-3.1066 2.2621-3.4873 2.4107-3.5114 2.5308-3.5054 2.4016-3.1718 3.1619-3.9482 3.3377-3.9037 4.3085-4.7733 0.61646-0.75419 3.0417-3.3355 1.6495-1.7042 2.5011-2.321 2.4983-2.151 10.572-8.8537 12.942-10.595 3.4815-2.7239 4.2822-3.0753 0.14371-0.019138 0.64783 0.61146 0.86261 1.368 1.0267 2.0323 2.1296 4.9314 1.409 2.9675 0.74154 1.3997 1.6002 2.721 0.94463 1.4439 1.3475 1.8809 1.2687 1.6185 1.7329 2.0368 1.2519 1.3125 1.2007 1.1123 1.6796 1.3266 0.94723 0.63544 1.5767 0.89602 1.4666 0.68737 3.3502 1.2142 5.2526 1.5807 8.5458 2.69 3.4096 0.84226 4.1741 0.77137 2.5332 0.37384 2.3064 0.23858 4.7396 0.15727 1.7501-0.005162 2.1407-0.095754 6.9299-0.63593 1.9958-0.014397 2.0873 0.19783 3.1219 0.58115 4.9343 1.0725 7.8948 1.0649 4.4683 0.8074 1.6607 0.40004 6.8602 2.128 2.2335 0.4444 2.4517 0.10837 1.8634-0.15375 1.8435-0.39539 2.2059-0.87862 1.1977-0.6642 1.467-0.98796 2.1276-1.7566 2.2424-2.2408 2.1494-2.493 2.0591-2.6877 1.9639-2.8408 2.2505-3.6361 2.7653-5.0232 2.5096-4.8994 1.3349-2.7978 3.8182-8.3972 1.0237-2.0654 1.1321-1.834 1.3795-1.5336 0.61737-0.48904 0.869-0.55267 1.0267-0.50986 1.9429-0.69077 1.2924-0.32583 1.6672-0.31188 2.3533-0.28659 1.9878-0.12876 3.2852-0.009703 2.2413 0.13787 3.331 0.41209 6.8458 1.1442 1.5699 0.10606 0.38657-0.032311 0.26998-0.19311" stroke="#bdc660"/>
    </defs>
    <g clip-path="url(#pc8aa8c65cf)">
     <use y="275.858974" fill="#bdc660" stroke="#bdc660" xlink:href="#m03a2d6408a"/>
    </g>
   </g>
  </g>
 </g>
 <defs>
  <clipPath id="pc8aa8c65cf">
   <rect x="7.2" y="7.2" width="357.12" height="261.46"/>
  </clipPath>
 </defs>
</svg>
