<?xml version="1.0" encoding="UTF-8"?>
<!DOCTYPE svg  PUBLIC '-//W3C//DTD SVG 1.1//EN'  'http://www.w3.org/Graphics/SVG/1.1/DTD/svg11.dtd'>
<svg width="290.93pt" height="280.51pt" version="1.1" viewBox="0 0 290.93 280.51" xmlns="http://www.w3.org/2000/svg" xmlns:xlink="http://www.w3.org/1999/xlink">
 <metadata>
  <rdf:RDF xmlns:cc="http://creativecommons.org/ns#" xmlns:dc="http://purl.org/dc/elements/1.1/" xmlns:rdf="http://www.w3.org/1999/02/22-rdf-syntax-ns#">
   <cc:Work>
    <dc:type rdf:resource="http://purl.org/dc/dcmitype/StillImage"/>
    <dc:date>2024-07-04T12:09:26.349816</dc:date>
    <dc:format>image/svg+xml</dc:format>
    <dc:creator>
     <cc:Agent>
      <dc:title>Matplotlib v3.7.1, https://matplotlib.org/</dc:title>
     </cc:Agent>
    </dc:creator>
   </cc:Work>
  </rdf:RDF>
 </metadata>
 <defs>
  <style type="text/css">*{stroke-linejoin: round; stroke-linecap: butt}</style>
 </defs>
 <g id="figure_1">
  <g id="patch_1">
   <path d="m0 280.51h290.93v-280.51h-290.93v280.51z" fill="none"/>
  </g>
  <g id="axes_1">
   <g id="PatchCollection_1">
    <defs>
     <path id="m4427057d2f" d="m271.16-69.959-0.038684 0.18043-0.66432 1.2868-1.253 2.1822-1.1904 1.9469-0.84504 1.3134-1.4533 2.1467-2.965 4.1798-0.82796 1.2129-0.74237 1.1909-0.62229 1.1798-0.46299 1.1796-0.25811 1.191-0.007064 1.4307 0.22222 1.47 1.0632 4.6334 0.33643 1.604 0.29208 1.6172 0.22397 1.6178 0.12728 1.6051 0.005696 1.5614-0.10836 1.5127-0.2161 1.4377-0.32678 1.3291-0.45004 1.1776-0.5963 0.97052-0.77712 0.69255-1.0428 0.36889-1.2299 0.066727-1.3662-0.15374-1.4641-0.31193-1.5334-0.42316-1.5816-0.49929-1.6146-0.5494-8.2744-2.9768-5.0733-1.7625-1.6704-0.61736-1.6285-0.66905-1.5679-0.7525-1.4834-0.87543-1.3487-1.0048-1.2667-1.1275-1.2063-1.2178-1.1626-1.2833-1.1316-1.3296-1.1104-1.3613-5.4562-6.9171-1.1086-1.3351-1.1285-1.2868-1.1574-1.216-1.1978-1.1155-1.2533-0.9753-1.3284-0.78305-0.7284-0.31197-0.95188-0.29485-0.65965-0.1368-0.94587-0.10941-0.79585-0.020439-0.63748 0.025661-0.85416 0.084491-0.91847 0.1435-1.5178 0.3285-2.2614 0.61126-1.2657 0.30691-0.74564 0.1373-0.78476 0.096025-0.84787 0.038157-0.97238-0.053727-0.92821-0.12877-1.3064-0.27733-7.6869-2.1347-1.1983-0.40302-1.2339-0.50952-0.61409-0.29445-0.74989-0.40786-0.57676-0.35253-1.0785-0.72379-1.8132-1.3665-2.7253-2.2147-0.86162-0.58068-0.79736-0.40659-0.44121-0.13338-0.45659-0.028448-0.43119 0.10289-0.45729 0.25379-0.46222 0.40228-0.42003 0.50585-0.30929 0.48727-0.56956 1.0717-0.5696 1.2332-0.35719 0.91203-0.42833 1.2544-0.45298 1.6758-1.0006 4.6542-0.55226 2.0975-0.786 2.4609-2.6176 7.5877-0.5271 1.6518-0.28607 1.0065-0.46655 1.9229-0.25937 1.303-0.80207 5.2773-0.2506 1.4365-0.31839 1.5783-0.3587 1.5515-0.39493 1.5067-0.43006 1.4384-0.46715 1.3389-0.50959 1.1984-0.56113 1.0041-0.6261 0.73995-0.70954 0.38594-0.87913-0.0604-0.97269-0.46658-1.0409-0.76204-1.0901-0.97354-1.1251-1.1222-1.1497-1.2245-2.3454-2.6306-7.1549-8.2983-2.3561-2.7625-2.275-2.7519-1.0781-1.3753-1.0135-1.3778-0.9214-1.3836-0.79224-1.3936-0.61386-1.4093-0.37104-1.4324-0.044591-0.34756-0.038405-1.2269 0.10443-1.4594 0.14976-1.1968 0.19172-1.1907 0.83564-4.0388 0.473-2.872 0.59744-3.2487 0.15845-1.1119 0.12696-1.4347 0.027446-1.0911-0.025846-1.034-0.41341-6.1962-0.095845-1.0329-0.19366-1.5613-0.32139-1.8117-0.37015-1.5702-0.45797-1.5769-0.53457-1.5191-0.61804-1.4392-0.7167-1.3292-0.83986-1.1796-0.99817-0.97799-1.2966-0.79264-1.3635-0.53967-0.89963-0.26564-1.5821-0.36101-2.8227-0.53229-3.0183-0.69316-1.5347-0.32285-1.2217-0.19894-1.5681-0.1697-1.5852-0.098913-1.5941-0.049165-5.5417-0.030853-1.5844-0.083115-0.93537-0.10707-1.6768-0.31714-1.4127-0.36008-4.24-1.2478-1.4326-0.36964-2.1028-0.40397-1.5081-0.1932-1.514-0.12225-1.5128-0.052126-1.5038 0.02175-1.7326 0.13016-1.7014 0.26116-1.494 0.36111-1.256 0.42234-1.1344 0.48424-0.67934 0.33249-2.1255 1.1419-0.58716 0.28508-0.60913 0.242-0.36641 0.10768-0.64788 0.10003-0.22942 0.002754-0.93582-0.16853-0.51342-0.19224-0.41877-0.19759-0.50117-0.28207-0.76124-0.5376-0.38757-0.33759-0.67632-0.73198-0.39955-0.54792-0.3127-0.51353-0.31921-0.63363-0.38726-1.0082-0.28878-1.0292-0.72663-3.1413-0.95717-3.5146-0.25296-1.1968-0.29705-1.9061-0.1357-1.2869-0.068864-1.5019-0.008514-1.0847 0.04618-1.2255 0.086259-1.0605 0.13661-0.75892 0.11481-0.33715 0.36012-0.61786 0.45944-0.60048 0.39107-0.60376 0.31451-0.6786 0.22873-0.85662 0.12719-0.6606 0.18716-1.7337 0.12645-0.7632 0.37656-1.8604 0.1356-0.95079 0.015614-0.85094-0.12114-1.0833-0.26225-1.0286-0.25584-0.72986-0.82738-2.1065-0.38077-0.7543-0.54152-0.79603-0.6783-0.85968-0.70395-0.82782-2.239-2.5134-0.92837-1.1546-0.66994-0.92459-0.39099-0.62824-0.49556-0.9421-0.63841-1.3349-0.55587-1.3039-0.46188-1.3354-0.30263-1.3455-0.062155-1.3333 0.16697-0.99701 0.2975-0.85308 0.61593-1.1422 0.71995-1.0196 1.5364-1.9106 0.80514-1.1362 0.38197-0.81104 0.11469-0.72371-0.19623-0.74859-0.053566-0.097924-0.58124-0.67684-0.64633-0.46017-0.43838-0.23565-0.74274-0.29073-0.38765-0.061312 0.18406-0.3555 0.33216-0.91424 0.3732-1.2648 0.33294-1.4729 0.22914-1.5835 0.070297-1.6274-0.019524-0.51959-0.13717-1.2833-0.23644-1.2726-0.42604-1.7461-0.53588-1.9102-0.35971-1.1296-0.30129-0.84366-0.36296-0.899-0.587-1.2492-0.46991-0.87779-1.943-3.2668-1.1713-2.068-0.87045-1.3545-0.76812-1.1044-0.88241-1.1463-0.88275-1.0292-0.78358-0.82015-0.93982-0.87844-0.92315-0.76664-1.1904-0.86913-0.92667-0.59981-1.0828-0.61079-2.9617-1.3953-0.92984-0.48733-1.0753-0.6377-3.1938-2.0131-1.3367-0.75073-1.2631-0.57527-4.324-1.6961-0.63961-0.29552-0.73587-0.38965-1.4332-0.93804-1.2014-0.97248-1.1288-1.0853-1.0394-1.1855-0.92371-1.2788-0.77079-1.3697-0.26136-0.58884-0.30711-0.84922-0.1571-0.53602-0.22344-1.0087-0.093552-0.62624-0.071415-0.80649-0.017255-0.8567 0.082399-1.2179 0.1032-0.67574 0.2663-1.1004 0.32778-0.91793 0.56817-1.3442 0.10395-0.3436 0.026971-0.22938-0.028071-0.12832-0.078255-0.0544-0.10231 0.017465-0.002691-0.051999 0.13756-0.097432 0.64838-0.28016 3.3507-1.2342 3.7916-1.4478 0.9145-0.29422 0.87038-0.2316 1.6815-0.33414 0.97909-0.22547 0.42294-0.14858 0.57233-0.31109 0.47113-0.36708 0.56717-0.56623 3.7797-4.8331 1.9676-2.6063 0.51802-0.72876 0.6321-1.0047 0.41031-0.77968 0.59458-1.3009 0.20191-0.62557 0.068134-0.44931 0.01137-0.47591-0.11101-0.91634-0.26785-0.80639-0.39773-0.813-1.3123-2.1365-0.49052-0.87628-0.43794-0.90917-0.35095-0.93086-0.22352-0.94218-0.047447-0.94347 0.0642-0.50339 0.12184-0.49403 0.28274-0.75508 0.37493-0.75267 0.55787-0.93829 1.2439-1.9177 0.59287-0.99895 0.50687-1.039 0.36548-1.0881 0.1373-0.7317 0.059122-0.72689-0.020743-0.92759-0.15016-1.0798-0.19654-0.76874-0.41787-1.0894-0.48869-0.92037-0.46057-0.65312-0.31478-0.23893 0.42573 0.11657 4.2059 1.4307 3.7039 1.1895 1.9078 0.56731 1.9078 0.52294 1.7364 0.41991 1.5295 0.30432 1.3915 0.20847 1.5493 0.14692 1.5406 0.071101 1.5306 0.0123 3.0282-0.10097 2.7575-0.19 4.0011-0.38009 2.1509-0.26928 2.4685-0.42159 3.6416-0.78068 1.2497-0.19702 1.2869-0.11829 2.5134-0.17523 1.2216-0.18468 1.1754-0.30537 2.6551-0.83856 1.1787-0.30267 1.2158-0.24558 1.2715-0.18642 1.2939-0.12827 0.92652-0.060525 2.2228-0.068839 1.289-9.75e-4 2.0454 0.055061 2.266 0.1571 1.384 0.15706 0.98238 0.15576 1.0324 0.24886 1.0254 0.33791 0.78084 0.31674 0.76747 0.36574 0.7411 0.41097 0.71972 0.45851 0.95394 0.70587 1.0989 0.93997 1.4379 1.392 0.5679 0.61616 0.65604 0.77439 0.52022 0.67842 0.73985 1.0973 0.64474 1.1006 0.30948 0.58345 0.67616 1.4226 0.79179 1.9466 1.4163 4.0344 1.179 3.2382 0.4645 1.4334 0.38212 1.4492 0.21508 1.0755 0.16335 1.0781 0.40142 4.0221 0.22498 1.2407 0.40176 1.3224 0.54607 1.2975 0.65789 1.278 0.74202 1.2633 0.80344 1.2527 0.84625 1.2456 3.0028 4.2571 0.94713 1.3865 1.4285 2.2028 0.62382 1.0452 1.6343 2.9866 0.97005 1.5549 1.2353 1.6634 0.9792 1.169 2.6394 2.9045 0.70958 0.86784 0.51682 0.71079 1.7267 2.5812 1.2912 2.0097 0.65605 1.1114 0.41661 0.81654 0.35424 0.83244 0.28812 0.85409 0.288 1.2053 0.42451 2.4929 0.32259 1.5787 0.39445 1.5882 0.45303 1.582 0.50265 1.5593 0.54778 1.5183 0.41901 1.034 0.47688 0.99088 0.45696 0.78096 0.90108 1.3332 1.2724 1.7043 1.9472 2.4525 1.1138 1.2391 0.45933 0.45294 1.1217 1.004 1.178 0.95611 3.6091 2.7487 1.1436 0.92535 1.0682 0.95374 2.7963 2.8338 2.8975 2.6807 0.64153 0.67969 0.40393 0.51047 0.2631 0.38792 0.28786 0.50497 0.3773 0.88262 0.23149 0.73751 0.93757 3.4202 0.88578 2.865 0.49875 1.479 0.5426 1.4901 0.47691 1.2049 0.51608 1.1969 0.56181 1.1822 0.66822 1.2605 0.72377 1.2356 0.85563 1.3347 0.90807 1.3051 0.95595 1.2745 1.0029 1.2406 1.1362 1.2961 1.1885 1.249 1.2604 1.2184 1.3096 1.1616 1.3585 1.097 1.2535 0.92045 5.0214 3.4207 0.9119 0.68386 1.0885 0.91817 0.96408 0.9551 0.8061 0.98819 0.60375 1.0191 0.26139 0.66236 0.19048 0.67159 0.16707 0.81881 0.11141 1.0248 0.16743 2.232 0.011202 0.97613-0.05791 0.61471-0.129 0.59051-0.30953 0.81541-0.44702 0.75953-0.52091 0.68973-0.56632 0.64786-0.65206 0.66431-0.73596 0.66773-0.68633 0.55421-0.5599 0.40507-0.60353 0.38922-0.58181 0.32722-0.80762 0.3841-0.58761 0.23634-0.82434 0.26898-0.80329 0.19847-2.4739 0.53338-2.4953 0.50606-0.696 0.186-0.42226 0.14987-0.73026 0.36355-0.53491 0.40368-0.31315 0.35553-0.12981 0.20535-0.10578 0.22588-0.090834 0.3211 0.044772 0.94696 0.38368 1.0524 0.63439 1.1295 0.81722 1.1852 0.94834 1.2247 1.0403 1.2522 2.2446 2.5536 4.6363 5.1699 1.1021 1.2881 1.0437 1.2814 0.95948 1.2717 0.84176 1.2585 0.69657 1.296 0.421 1.315 0.073843 1.2087-0.16766 1.2315-0.35014 1.2317-0.34463 0.88904-0.34908 0.90557-0.19268 1.0765-0.002083 1.3967 1.0628 1.5595 1.3119 0.68974 1.7496 0.49969 1.1642 0.24004 1.1086-0.016189 0.96351-0.697 0.78899-0.95018 0.67764-0.99431 0.48621-0.94074 0.82417-1.9234 0.56259-1.0976 0.57567-0.85141 0.64406-0.83134 0.7991-0.9925 0.84197-0.98178 0.89469-0.92289 0.96118-0.81076 0.4152-0.28521 1.0926-0.5704 1.1486-0.34162 0.43184-0.061728 0.56514-0.035325 0.72149 0.010615 0.60057 0.042149 1.3119 0.15837 0.99889 0.19136 2.0983 0.48814 0.47457 0.086557 0.86764 0.10365 1.8948 0.060786 1.3191 0.077312 4.3344 0.52526 1.0423 0.10304 3.1428 0.17387 1.4315 0.03263 2.9562-0.10811 3.9527 0.014134 1.3843 0.080717 1.532 0.26052 1.564 0.42447 1.5941 0.55221 1.6232 0.65173 1.6515 0.7294 1.6788 0.79004 3.4118 1.7008 3.4295 1.7864 3.2748 1.7544 3.6077 1.9914" stroke="#bdc660"/>
    </defs>
    <g clip-path="url(#p59401a615b)">
     <use y="280.512" fill="#bdc660" stroke="#bdc660" xlink:href="#m4427057d2f"/>
    </g>
   </g>
  </g>
 </g>
 <defs>
  <clipPath id="p59401a615b">
   <rect x="7.2" y="7.2" width="276.53" height="266.11"/>
  </clipPath>
 </defs>
</svg>
