<?xml version="1.0" encoding="UTF-8"?>
<!DOCTYPE svg  PUBLIC '-//W3C//DTD SVG 1.1//EN'  'http://www.w3.org/Graphics/SVG/1.1/DTD/svg11.dtd'>
<svg width="302.7pt" height="280.51pt" version="1.1" viewBox="0 0 302.7 280.51" xmlns="http://www.w3.org/2000/svg" xmlns:xlink="http://www.w3.org/1999/xlink">
 <metadata>
  <rdf:RDF xmlns:cc="http://creativecommons.org/ns#" xmlns:dc="http://purl.org/dc/elements/1.1/" xmlns:rdf="http://www.w3.org/1999/02/22-rdf-syntax-ns#">
   <cc:Work>
    <dc:type rdf:resource="http://purl.org/dc/dcmitype/StillImage"/>
    <dc:date>2024-07-04T12:09:25.801589</dc:date>
    <dc:format>image/svg+xml</dc:format>
    <dc:creator>
     <cc:Agent>
      <dc:title>Matplotlib v3.7.1, https://matplotlib.org/</dc:title>
     </cc:Agent>
    </dc:creator>
   </cc:Work>
  </rdf:RDF>
 </metadata>
 <defs>
  <style type="text/css">*{stroke-linejoin: round; stroke-linecap: butt}</style>
 </defs>
 <g id="figure_1">
  <g id="patch_1">
   <path d="m0 280.51h302.7v-280.51h-302.7v280.51z" fill="none"/>
  </g>
  <g id="axes_1">
   <g id="PatchCollection_1">
    <defs>
     <path id="md060bae3fe" d="m253.39-223.8 0.201 0.51242 0.63577 0.83863 1.9796 1.755 0.5247 0.5619 0.93593 1.3018 0.8227 1.4377 0.74384 1.497 0.99216 2.2863 0.55865 1.5416 0.6443 2.425 0.38481 2.4175 0.051559 1.5803-0.17608 1.9133-0.009008 1.4465 0.41188 2.4736 1.1992 4.2694 3.3156 10.497 10.606 34.368 1.4323 4.8335 1.3128 4.7973 1.0778 4.6962 0.79555 4.604 0.48606 4.5956 0.080022 2.289-0.049919 2.017-0.17246 2.0038-0.30626 1.9845-0.55336 2.3399-0.72454 2.307-0.86238 2.2763-0.90428 2.0851-2.0548 4.0874-1.1392 1.9951-1.2158 1.9528-4.7677 6.8186-1.0662 1.713-0.92582 1.7896-0.80478 2.0845-0.60519 2.1927-0.44135 2.2768-0.30534 2.3349-0.5806 9.118-0.21714 1.8891-0.33678 1.4939-0.41174 0.85716-0.44891 0.20557-0.17644-0.59531-0.75164-0.68495-1.5343-0.92075-2.0397-0.9136-3.478-1.1151-3.9103-0.77547-3.6183-0.31479-3.6524 0.074364-2.8663 0.35218-2.7832 0.58795-4.1477 1.2999-7.5642 2.9945-2.185 0.68248-2.8108 0.39373-1.6625-0.18758-2.3698-1.1067-1.8789-2.0414-1.5092-2.7098-2.6639-6.44-1.5022-3.3285-1.8497-3.1644-2.1435-2.68-3.4434-3.4625-5.6276-5.2585-4.4719-3.9139-1.9392-1.4845-1.7946-1.2077-4.841-2.9358-1.7092-1.1578-1.6345-1.2782-1.8929-1.7996-1.6854-1.9402-1.5759-2.0708-3.943-5.4871-1.7103-2.084-2.0486-2.1555-2.1811-1.9634-2.0726-1.6144-7.6417-5.5065-1.7177-1.1266-2.3112-1.3344-1.327-0.61484-1.0814-0.3635-1.484-0.26876-1.3991 0.021847-1.3679 0.28717-2.3145 1.1795-0.4149 0.32797-1.2957 1.4157-0.89335 1.5864-0.63527 1.786-0.54864 2.9565-0.124 2.9805 0.099548 1.5597 0.32965 1.7011 0.61597 1.6105 0.46569 0.81379 0.876 1.1604 0.59756 0.62847 1.1965 1.0384 2.166 1.4094 4.7484 2.3776 2.3261 1.2699 2.0925 1.4359 2.3505 2.0187 1.3213 1.3813 1.8886 2.3526 1.6125 2.5088 0.9464 1.854 0.73347 1.8909 0.35183 1.3049 0.1763 1.0401 0.046859 2.7057-0.4417 2.6782-0.60028 2.1084-2.4643 6.7388-0.98906 2.8287-0.65422 2.1481-0.54719 2.172-0.58269 3.6375-0.069264 3.5298 0.43382 3.8352 1.3725 6.7757 0.65383 2.6052 1.8759 6.4643 0.53407 2.1335 0.49284 2.3983 0.34258 2.4169 0.11451 1.4712-0.013019 3.1715-0.36028 3.1094-0.70672 2.9868-0.85407 2.334-1.0906 2.1658-1.525 2.214-1.8055 1.8757-2.7495 1.8221-2.1302 0.78323-2.2604 0.36141-2.2627-0.047963-2.911-0.4559-3.0484-0.74247-2.2643-0.64058-5.2506-1.7659-3.9413-1.5092-4.9958-2.036-14.104-6.1354-3.0301-1.0768-3.0465-0.77885-2.8855-0.36993-2.8996 0.003237-2.6575 0.33606-2.6388 0.6187-3.5282 1.2066-3.4854 1.5151-9.6728 4.8591-3.2844 1.489-3.3069 1.2164-3.4518 0.82916-2.4048 0.24646-2.4047-0.029965-3.8286-0.61847-3.6934-1.2939-2.064-1.0638-2.5964-1.705-2.4832-1.9782-2.3946-2.177-2.8999-2.9007-4.9573-5.2454-3.9546-4.0066-3.5151-3.1243-6.3613-4.8365-1.1964-1.0588-0.60885-0.72026-0.41575-0.82191-0.09968-0.74678 0.49643-1.3479 1.426-1.4847 1.4688-0.98285 1.7809-0.92076 2.9555-1.2127 3.3199-1.13 8.9685-2.8012 4.0609-1.394 2.7487-1.0369 2.6956-1.1531 2.9143-1.4964 2.7611-1.7261 2.127-1.5915 1.9878-1.7336 2.4183-2.5056 2.1304-2.6925 1.8048-2.8503 1.5656-3.3559 0.98056-3.5089 0.29759-3.2246-0.23156-3.5607-0.68131-3.6145-0.77079-2.8697-3.4084-10.62-1.0154-3.5233-0.91489-3.5845-0.87236-3.9309-0.75251-3.9714-0.63202-3.9972-0.53504-4.2996-0.36361-4.2949-0.16813-3.7654-0.2331-10.255-0.17924-3.1371-0.33044-3.0263-0.58195-2.872-1.0038-2.7957-1.5365-2.5734-2.1561-2.4437-2.0857-1.8489-2.2778-1.7469-2.2111-1.5381-2.2166-1.3963-2.2467-1.2549-3.2897-1.5467-2.8895-1.1003-2.3297-0.59188-1.1475-0.011436 1.4746-4.1424 0.42166-1.5508 0.2445-1.5427 0.016678-1.5136-0.085944-0.72995-0.32437-1.247-0.49639-1.1648-0.65059-1.0556-0.39234-0.47002-0.81605-0.71091-1.1037-0.67078-4.4123-2.0434-1.9203-1.0561-1.6178-1.2422-1.3686-1.3806-1.1128-1.4895-0.29646-0.57836-0.43562-1.2548-0.25152-1.5249-0.063509-2.7206 0.30006 0.093799 0.40832-0.44709 0.40763-0.71827 0.67598-1.4937 2.886-7.1331 1.6565-3.7962 1.7799-3.6165 2.6634-4.8889 2.6979-4.5245 3.3527-5.12 2.3099-3.3857 2.3256-3.2236 2.3933-2.9805 2.5201-2.6456 2.7139-2.2038 3.3524-1.8513 3.5739-1.2243 3.5312-0.63792 2.609-0.14726 2.5981 0.15249 2.3985 0.45041 2.5182 0.83161 2.5604 1.1999 2.5133 1.4646 2.4863 1.6598 2.6823 1.9496 11.74 8.9658 3.2621 2.3144 3.0091 1.995 4.4816 2.7153 5.3934 2.9621 6.3538 3.1517 5.2669 2.2334 3.1276 1.1055 3.9909 1.09 2.9944 0.53177 3.0411 0.36987 15.12 1.3871 3.9129 0.49899 4.7792 0.88996 4.2204 1.1015 3.0913 0.99836 3.0583 1.1244 3.5798 1.4505 9.5736 4.1518 2.4945 1.0211 3.6831 1.33 3.7522 1.0436 1.7256 0.3481 3.0142 0.40747 4.6633 0.19976 4.7198-0.23751 3.3938-0.40236 3.3958-0.55192 3.2194-0.6363 3.1965-0.76891 2.7796-0.79138 8.931-2.6867 13.054-4.0602 10.123-3.3067 1.0255-0.2422" stroke="#bdc660"/>
    </defs>
    <g clip-path="url(#p2a4d932233)">
     <use y="280.512" fill="#bdc660" stroke="#bdc660" xlink:href="#md060bae3fe"/>
    </g>
   </g>
  </g>
 </g>
 <defs>
  <clipPath id="p2a4d932233">
   <rect x="7.2" y="7.2" width="288.3" height="266.11"/>
  </clipPath>
 </defs>
</svg>
