<?xml version="1.0" encoding="UTF-8"?>
<!DOCTYPE svg  PUBLIC '-//W3C//DTD SVG 1.1//EN'  'http://www.w3.org/Graphics/SVG/1.1/DTD/svg11.dtd'>
<svg width="246.5pt" height="280.51pt" version="1.1" viewBox="0 0 246.5 280.51" xmlns="http://www.w3.org/2000/svg" xmlns:xlink="http://www.w3.org/1999/xlink">
 <metadata>
  <rdf:RDF xmlns:cc="http://creativecommons.org/ns#" xmlns:dc="http://purl.org/dc/elements/1.1/" xmlns:rdf="http://www.w3.org/1999/02/22-rdf-syntax-ns#">
   <cc:Work>
    <dc:type rdf:resource="http://purl.org/dc/dcmitype/StillImage"/>
    <dc:date>2024-07-04T12:09:16.176659</dc:date>
    <dc:format>image/svg+xml</dc:format>
    <dc:creator>
     <cc:Agent>
      <dc:title>Matplotlib v3.7.1, https://matplotlib.org/</dc:title>
     </cc:Agent>
    </dc:creator>
   </cc:Work>
  </rdf:RDF>
 </metadata>
 <defs>
  <style type="text/css">*{stroke-linejoin: round; stroke-linecap: butt}</style>
 </defs>
 <g id="figure_1">
  <g id="patch_1">
   <path d="m-0 280.51h246.5v-280.51h-246.5v280.51z" fill="none"/>
  </g>
  <g id="axes_1">
   <g id="PatchCollection_1">
    <defs>
     <path id="m138b6fadb2" d="m189.04-187.92 1.2817 8.3996 0.47056 2.5319 0.88937 4.1647 1.2782 4.8962 1.6265 4.9882 2.0067 4.9469 1.5094 3.1142 1.859 3.3786 2.0004 3.3035 3.0414 4.6663 5.2543 7.5183 13.855 19.04 2.7256 4.0123 1.4726 2.7867 0.43544 1.5855-0.20574 1.7175-0.88437 0.97049-1.4203 0.52958-1.8273 0.061997-1.7254-0.30498-2.2999-0.68689-2.3231-0.88228-2.4642-1.096-5.454-2.8748-3.8024-2.211-10.362-6.3572-4.8208-2.6821-4.4797-2.2909-3.2827-1.5622-3.2632-1.4248-3.392-1.3103-2.9166-0.98187-3.7798-1.0308-3.5697-0.57862-2.2412-0.053425-2.1136 0.27601-2.5122 0.9364-2.0531 1.5701-2.0044 2.6654-1.2063 2.4317-0.70479 1.8176-0.77702 2.5879-0.53481 2.4319-1.0508 7.7518-0.79159 4.5815-1.7175 6.5417-0.74394 3.2059-0.38888 3.2258 0.14375 3.5203 0.4782 3.1093 1.3356 6.2794 0.67141 3.7548 0.26091 2.5108 0.034344 2.4577-0.15533 1.8546-0.48893 2.8796-1.1035 4.9002-0.57484 3.35-0.12545 3.0947 0.37477 2.8346 0.44588 2.542-0.056737 2.3845-0.53891 1.4734-0.93612 1.401-1.2503 1.242-1.5356 1.0749-2.1879 1.0202-2.4583 0.63917-1.6852 0.17034-1.7687-0.045126-3.0792-0.46306-11.649-3.0511-2.257-0.44222-3.5149-0.40088-1.9739-0.04346-3.915 0.20451-4.1127 0.52576-2.6013 0.51166-2.6181 0.65962-2.71 0.83666-5.1537 1.9614-15.542 7.1664-15.53 6.4196-5.1673 1.7036-5.8167 1.3892-0.24008-0.020879-1.5793 0.38918-5.323 1.8524-2.51 0.56687-1.6961 0.09851-2.5724-0.13532-0.72749-0.14236-0.83998-0.41338-0.19321-0.30074-0.024145-0.2427 0.27042-0.74133 0.77511-1.0631 2.1752-2.5134 1.024-1.4283 1.0389-1.7449 1.0069-2.0456 0.74176-1.8428 0.75786-2.562 0.2425-1.5371-0.02833-1.1302-0.34147-0.84895-0.27691-0.29001-0.34867-0.23718-0.75675-0.30213-0.90563-0.19584-4.5674-0.49181-2.1156-0.35732-1.89-0.48918-1.2449-0.49078-0.13526-0.16452-1.3647-0.95353-1.6945-1.3866-1.7309-1.6375-1.6995-1.9393-1.4212-2.0772-1.1025-2.2645-0.75064-2.653-0.36118-2.7855-0.1217-2.8759-0.005074-2.5442 0.26545-3.9621 0.46121-2.8685 0.90862-3.4861 1.9612-5.4842 0.58172-1.9211 0.43119-1.9753 0.24676-2.2533 0.010189-2.2987-0.083588-1.1915-0.68964-3.8524-1.1951-3.9517-1.144-3.1461-3.6698-8.5692-0.51066-1.5423-0.16049-1.1893 0.12438-0.81356 0.75603-1.0911 1.3031-0.83974 1.6778-0.70284 1.6199-0.54093 6.7776-1.6241 3.0927-1.0475 2.5805-1.3059 1.658-1.2226 1.965-2.2014 1.588-2.564 1.3711-2.8161 2.7827-6.4121 1.287-2.2916 0.99012-1.2178 0.88892-0.8528 1.9422-1.3894 1.2055-0.6064 2.0372-0.71706 2.1955-0.53043 2.123-0.25402 1.4244-0.011106 1.2705 0.1093 1.5019 0.27716 5.867 1.683 3.2555 0.73026 3.5452 0.43823 1.566 0.066498 3.1018-0.19785 1.898-0.32365 1.9595-0.4941 3.2226-1.3697 1.7497-1.2491 1.3602-1.3384 1.3408-1.6295 3.6219-5.0487 2.9774-3.7929 4.4452-6.2642 2.7459-3.2602 3.4355-3.65 0.53245-0.7427 0.95902-1.8654 0.40678-1.3466 0.24164-1.4382 0.0154-1.458-0.1951-1.2084-0.31593-1.0732-0.74128-1.8085-1.7166-3.0867-1.2629-1.8146-6.0859-8.0666-2.3398-3.2368-1.1611-1.8073-3.534-6.1409-1.0445-1.6378-1.5173-2.0695-7.6932-9.1708-2.3841-2.4365-3.3263-2.8959-1.5241-1.5027-1.1746-1.5854-0.87746-1.7667-0.43039-1.3864-0.2883-1.6802-0.035378-1.6226 0.28403-2.1581 0.8799-3.0153 3.4324-8.682 1.0429-3.36 0.3135-1.4893 0.14982-1.9224-0.092599-0.78342-0.32494-0.77064-0.56758-0.30412 0.073241-0.20898-0.007956-0.16219 0.047527-0.10878 0.83498-1.5107 1.1723-1.6504 0.78938-0.94392 1.8208-1.8299 1.3009-1.0522 1.8947-1.1705 1.7738-0.707 0.97704-0.23177 0.84709-0.10991 1.35-0.014318 1.5185 0.19412 1.1673 0.30143 1.0483 0.39491 0.98204 0.49007 0.97438 0.609 1.2802 0.97766 3.0823 2.7011 3.9699 3.3098 5.3142 4.8011 1.3834 1.1148 1.4732 1.0243 3.827 2.2677 3.5706 1.7478 3.1802 1.2928 5.8148 1.892 1.9906 0.77257 1.0564 0.52221 1.273 0.78621 1.6873 1.3075 2.3959 2.2648 2.8493 2.9306 1.6973 1.912 1.6547 2.0457 1.7518 2.3582 7.0203 10.091 1.9258 2.5603 2.0208 2.4789 2.1453 2.3532 2.3082 2.1713 2.3873 1.8962 4.729 3.3879 2.239 1.4435 2.3123 1.3949 4.7499 2.6243 3.0141 1.5182 5.4713 2.4541 2.0483 0.75284 1.1409 0.24635 0.083641-0.091941" stroke="#bdc660"/>
    </defs>
    <g clip-path="url(#pf848feb2dc)">
     <use y="280.512" fill="#bdc660" stroke="#bdc660" xlink:href="#m138b6fadb2"/>
    </g>
   </g>
  </g>
 </g>
 <defs>
  <clipPath id="pf848feb2dc">
   <rect x="7.2" y="7.2" width="232.1" height="266.11"/>
  </clipPath>
 </defs>
</svg>
