<?xml version="1.0" encoding="UTF-8"?>
<!DOCTYPE svg  PUBLIC '-//W3C//DTD SVG 1.1//EN'  'http://www.w3.org/Graphics/SVG/1.1/DTD/svg11.dtd'>
<svg width="248.87pt" height="280.51pt" version="1.1" viewBox="0 0 248.87 280.51" xmlns="http://www.w3.org/2000/svg" xmlns:xlink="http://www.w3.org/1999/xlink">
 <metadata>
  <rdf:RDF xmlns:cc="http://creativecommons.org/ns#" xmlns:dc="http://purl.org/dc/elements/1.1/" xmlns:rdf="http://www.w3.org/1999/02/22-rdf-syntax-ns#">
   <cc:Work>
    <dc:type rdf:resource="http://purl.org/dc/dcmitype/StillImage"/>
    <dc:date>2024-07-04T12:09:18.753325</dc:date>
    <dc:format>image/svg+xml</dc:format>
    <dc:creator>
     <cc:Agent>
      <dc:title>Matplotlib v3.7.1, https://matplotlib.org/</dc:title>
     </cc:Agent>
    </dc:creator>
   </cc:Work>
  </rdf:RDF>
 </metadata>
 <defs>
  <style type="text/css">*{stroke-linejoin: round; stroke-linecap: butt}</style>
 </defs>
 <g id="figure_1">
  <g id="patch_1">
   <path d="m-0 280.51h248.87v-280.51h-248.87v280.51z" fill="none"/>
  </g>
  <g id="axes_1">
   <g id="PatchCollection_1">
    <defs>
     <path id="m010e246883" d="m227.82-153.67 0.062196 0.36801-0.32707 1.4999-0.50617 1.5144-0.70006 1.7071-1.5802 3.2369-2.5264 4.7233-1.2658 2.4789-1.2519 2.6773-1.1224 2.6896-1.45 4.0435-2.5016 8.1746-1.2902 3.9111-1.3007 3.5478-1.6065 3.9134-1.5454 3.2313-1.5389 2.788-0.87828 1.4637-2.8852 4.5376-1.8645 3.1421-0.84805 1.657-0.86191 2.0435-0.55458 1.8239-0.36391 1.9453-0.15866 1.4472-0.4147 5.4926-0.51591 4.0307-0.7205 3.9989-0.90099 4.1718-0.50601 2.1103-1.1374 4.2091-0.74753 2.3765-0.7296 2.0216-0.68819 1.6489-0.7771 1.599-0.55163 0.97666-0.43548 0.65163-0.24233 0.20918-2.3388 4.3009-0.73323 1.1576-1.001 1.3922-1.268 1.5051-1.4686 1.5373-1.9429 1.8469-1.4111 1.2249-1.4623 1.1483-1.0203 0.73031-1.9907 1.2334-11.844 6.1401-3.4925 1.9639-2.7008 1.6758-1.099 0.80164-2.663 2.0925-2.6716 1.9455-2.0952 1.6168-0.041283-0.062191 0.1256-0.47687 3.069-7.2304 0.91196-2.2869 0.78219-2.1924 0.67084-2.3828 0.3361-2.3725-0.084545-1.5353-0.16034-0.70592-0.27029-0.74604-0.66725-1.2127-0.88558-1.1341-0.88237-0.89803-0.9877-0.85701-1.2684-0.96331-1.3608-0.93223-2.2456-1.4163-1.8885-1.1241-3.9123-2.2246-15.886-8.7389-15.313-8.839-4.0894-2.4309-3.4296-2.1501-1.9013-1.2505-5.5911-3.8925-4.8922-3.6179-1.1492-0.75491-1.1572-0.62303-1.1672-0.4453-1.4618-0.30362-1.5061-0.11995-7.8878-0.11204-1.7049 0.039355-2.5011 0.2439-2.5344 0.42612-2.5254 0.54913-2.4728 0.62193-6.4716 1.7647-2.5503 0.76283-1.0783 0.23822-1.1043 0.13311-2.1953-0.10253-2.2818-0.45446-4.7019-1.354-2.3566-0.61323-6.2635-1.0824-0.99494-0.32883-0.91189-0.43444-1.0784-0.71728-2.1117-1.581-0.91113-0.48241-0.37165-0.14713-1.7722-0.39958-2.0021-0.094991-2.0763 0.13473-1.9538 0.28818-1.569 0.35633-0.84358 0.33941 2.2833-2.5565 2.0235-2.5565 1.4881-2.1717 1.3958-2.3325 1.2333-2.4291 1.0072-2.4814 0.57505-1.8438 0.9983-4.0387 0.42001-2.1745 0.26212-2.1495 0.065285-2.0416-0.15386-3.766-0.24509-2.984-0.45646-3.0981-0.26346-1.2284-0.48449-1.5616-0.69295-1.5909-1.427-2.5591-0.61782-1.2883-0.38925-1.314-0.093287-1.3205 0.19216-2.863 0.060448-1.7297-0.018623-1.0907-0.25627-3.2434-0.19528-5.485 0.054558-3.2963 0.17985-1.7573 0.48908-2.0923 1.3507-4.1106 0.58956-2.0521 0.28774-1.3612 0.28438-2.1298 0.12644-1.8724 0.011097-2.6638-0.16162-2.1329-0.3393-2.0575-0.31626-1.3848-0.73975-2.6797-1.4456-4.7204-1.7377-5.2756-1.5193-4.2531-1.6575-4.4178-0.34927-1.0684-0.29076-1.2241-0.2629-1.6787-0.33258-2.9973-0.22408-3.3163-0.10304-3.5508 0.020721-3.3961 0.13131-3.2206 0.28244-3.151 0.32879-2.2152 0.60174-2.9139 0.6008-2.2782 0.71128-2.285 2.0221-5.7955 0.87863-2.7322 0.5156-1.8087 1.0683-4.2742 0.53236-1.937 0.54775-1.4581 0.46856-0.83224 0.53906-0.58602 0.52845-0.27046 1.0863 0.083611 0.78239 0.35391 0.7121 0.44041 0.86631 0.63299 3.4357 2.8385 1.4218 1.0324 1.3771 0.73554 0.78736 0.25099 0.83784 0.082628 1.3811-0.33386 1.2311-0.6955 1.3208-1.0383 1.5264-1.4528 1.0784-1.1395 3.5266-3.9685 0.89678-0.94322 1.0019-0.90855 0.76773-0.54774 0.61038-0.32897 0.7709-0.28142 1.6238-0.15734 1.7097 0.21695 1.1496 0.25128 1.1957 0.3527 9.339 3.148 1.6259 0.6366 1.7683 0.91306 1.5772 0.99273 2.3593 1.6978 4.3441 3.4448 6.3784 5.2574 2.012 1.5831 1.9129 1.3935 1.6303 1.0022 1.4965 0.57842 1.2685 0.16314 1.3371-0.079296 1.9936-0.45397 2.0762-0.77101 2.3689-1.1346 2.4167-1.3454 1.8939-1.1419 7.2433-4.5369 2.5084-1.4068 4.3782-2.2516 2.0542-1.1423 1.9941-1.1853 1.8947-1.2178 2.2052-1.5814 1.8071-1.5274 1.0607-1.1667 2.4979-3.4098 1.4426-1.8126 1.5285-1.7805 0.42902-0.44372 0.19321-0.13807 0.056658-0.18938 0.16915-0.18439 0.35224-0.16375 0.78453-0.069861 0.88609 0.093429 0.89967 0.16191 0.98446 0.25903 0.8166 0.29701 0.7697 0.34599 1.3689 0.76457 0.97766 0.66631 1.7457 1.4224 2.8473 2.5878 0.86661 0.69526 1.6952 1.1832 6.6912 4.0664 2.2553 1.2006 1.6171 0.76407 1.6523 0.65699 1.6965 0.57082 2.4151 0.68949 7.4531 1.7008 3.1926 0.91569 1.1657 0.41515 1.6422 0.6891 2.1978 1.0385 2.7448 1.6009 1.4151 0.96019 1.3161 1.0874 1.1581 1.266 1.0169 1.602 0.81177 1.8168 0.67194 2.0626 0.53701 2.1984 0.43421 2.2986 0.39687 2.6693 0.32602 2.7251 1.0447 11.087 0.41401 3.1327 0.26156 1.4308 0.32415 1.3625 0.44308 1.3742 0.57145 1.2585 0.72565 1.1069 1.1802 1.1804 1.4335 0.96725 1.2431 0.62424 1.3413 0.53619 1.6105 0.51632 1.5363 0.40256 3.5231 0.71214 5.7291 0.8724 2.3439 0.384 1.6318 0.32834 1.5602 0.39903 1.4542 0.49261 1.3341 0.6196 1.4857 1.0394 0.93189 1.0253 0.62462 0.9703 0.71178 1.5881 0.58758 2.1056 0.38602 2.5393 0.12966 1.7398 0.049448 1.8112-0.050898 2.5991-0.19835 2.9232-0.26332 2.5659-0.32842 2.5912-0.76615 5.0122-1.5877 8.6175 0.004299 0.15668" stroke="#bdc660"/>
    </defs>
    <g clip-path="url(#pf5cc35a03c)">
     <use y="280.512" fill="#bdc660" stroke="#bdc660" xlink:href="#m010e246883"/>
    </g>
   </g>
  </g>
 </g>
 <defs>
  <clipPath id="pf5cc35a03c">
   <rect x="7.2" y="7.2" width="234.47" height="266.11"/>
  </clipPath>
 </defs>
</svg>
