<?xml version="1.0" encoding="UTF-8"?>
<!DOCTYPE svg  PUBLIC '-//W3C//DTD SVG 1.1//EN'  'http://www.w3.org/Graphics/SVG/1.1/DTD/svg11.dtd'>
<svg width="371.52pt" height="194.37pt" version="1.1" viewBox="0 0 371.52 194.37" xmlns="http://www.w3.org/2000/svg" xmlns:xlink="http://www.w3.org/1999/xlink">
 <metadata>
  <rdf:RDF xmlns:cc="http://creativecommons.org/ns#" xmlns:dc="http://purl.org/dc/elements/1.1/" xmlns:rdf="http://www.w3.org/1999/02/22-rdf-syntax-ns#">
   <cc:Work>
    <dc:type rdf:resource="http://purl.org/dc/dcmitype/StillImage"/>
    <dc:date>2024-07-04T12:09:22.173876</dc:date>
    <dc:format>image/svg+xml</dc:format>
    <dc:creator>
     <cc:Agent>
      <dc:title>Matplotlib v3.7.1, https://matplotlib.org/</dc:title>
     </cc:Agent>
    </dc:creator>
   </cc:Work>
  </rdf:RDF>
 </metadata>
 <defs>
  <style type="text/css">*{stroke-linejoin: round; stroke-linecap: butt}</style>
 </defs>
 <g id="figure_1">
  <g id="patch_1">
   <path d="m0 194.37h371.52v-194.37h-371.52v194.37z" fill="none"/>
  </g>
  <g id="axes_1">
   <g id="PatchCollection_1">
    <defs>
     <path id="mb216246103" d="m242.21-150.87 0.75488 0.14875 1.4336 0.39955 3.1321 1.066 1.8521 0.76426 1.9151 0.90721 1.9977 1.0862 1.9763 1.2211 2.0905 1.459 2.0157 1.5792 1.6386 1.4197 1.568 1.4867 2.2571 2.4007 2.0729 2.5314 1.9055 2.6266 1.7605 2.6954 1.5015 2.5206 1.3989 2.5563 1.2982 2.5884 1.3009 2.8451 5.0244 12.106 2.1432 4.681 1.5412 3.026 1.2234 2.2008 1.5174 2.4949 1.816 2.6724 2.2773 2.9879 1.4048 1.7018 7.8897 9.0234 10.672 12.843 5.0277 6.3245 9.0137 11.731 3.4435 4.1857 3.2061 3.5559 1.8095 1.8644 3.5385 3.4586 6.7839 6.2807 2.8728 2.4518 0.80656 0.53377-1.1081 1.6759-0.81331 0.95587-0.84845 0.88202-2.5337 2.3497-2.7762 2.2336-1.0794 0.96957-0.42598-0.86857-1.0291-1.076-2.2735-1.9423-2.2245-1.6094-2.5883-1.6189-1.7526-0.97941-1.8091-0.94262-6.892-3.3452-4.1628-2.171-3.1563-1.9148-1.5235-1.0681-1.2866-0.99778-1.8707-1.6384-2.247-2.2839-1.5757-1.7909-6.7945-8.0602-2.6856-2.9848-2.9316-3.019-3.4345-3.2786-3.149-2.7812-2.5249-2.0295-2.8711-2.0319-3.4262-2.2277-2.9395-1.7463-2.0047-1.0109-2.5205-1.0105-3.4384-1.1465-2.8969-0.67046-1.9818-0.32175-4.1484-0.46983-1.5432-0.30671-1.1884-0.39635-0.49856-0.22877-0.69686-0.40144-0.56337-0.40907-0.65426-0.59425-0.49966-0.55573-0.52342-0.69692-0.55983-0.9337-0.49434-1.048-0.5002-1.266-1.5307-4.3282-1.07-2.5281-0.78422-1.5221-0.83276-1.4082-0.82403-1.217-0.97566-1.2604-1.397-1.5751-1.2772-1.2511-1.2587-1.0745-1.3264-0.95446-1.478-0.87564-1.5145-0.7236-0.83969-0.32344-1.4361-0.39006-0.60788-0.094412-0.84487-0.061128-0.93619 0.021356-1.7281 0.28299-1.2603 0.41403-1.0095 0.47077-0.93965 0.57904-0.84957 0.66487-1.2504 1.2827-0.93086 1.2106-0.72824 1.1168-2.4288 4.1021-1.9979 2.9757-1.3601 1.7919-2.3272 2.7232-7.7855 8.1863-2.9614 2.8436-2.2269 1.8941-2.4988 1.927-1.7109 1.0976-1.0907 0.57661-1.3368 0.60879-1.4473 0.56889-5.5618 1.823-1.5549 0.56511-8.725 3.4805-3.1114 1.156-5.4058 1.8552-7.5118 2.3071-6.676 1.7997-3.3192 0.82694-3.4952 0.79202-3.8288 0.72728-3.8481 0.57005-2.2741 0.20105-6.3159 0.29166-1.5689 0.15576-1.3007 0.23704-1.1102 0.33297-0.63467 0.29006-0.50809 0.35266-0.20411 0.30438-0.00897 0.16914-0.39405-0.022672-5.416 1.0776-1.8502 0.19626-1.6116 0.03309-1.8055-0.16287-1.8924-0.43924-2.3521-0.87274-2.2913-1.1187-1.3581-0.75606-6.7516-4.1227-3.2054-1.8806-1.5603-1.0789-1.1557-0.98203-1.0018-0.99218-1.2396-1.3711-2.2287-2.6223-0.98061-1.0323-1.5354-1.2869-1.1549-0.70673-0.89263-0.42666-1.201-0.4793-1.576-0.544-1.9496-0.55739-3.5544-0.79855-4.7484-0.79281-1.7746-0.36765-1.9026-0.55592-1.8173-0.76409-1.5117-0.88477-1.399-1.0745-1.4216-1.3994-1.55-1.8319-3.4758-4.4222-3.9169-4.5926-2.8877-3.1389-7.8528-8.2719-12.434-14.078-1.5139-1.8037-0.94345-1.2314-2.9521-4.2728-0.38145-0.45066 18.785-28.392 2.7355-3.7689 0.97411-1.1933 1.0281-1.14 1.0293-1.0118 2.2032-1.8739 2.3447-1.7063 2.4685-1.5158 1.2878-0.65783 1.3332-0.56375 1.4612-0.47648 4.6158-1.1764 3.0803-0.99036 4.6742-1.8517 3.0115-1.3177 3.7271-1.7328 0.22239 0.36448 0.76467 0.39329 0.95596 0.31135 2.1701 0.41836 2.643 0.23838 2.7195 0.064546 5.224-0.14981 4.9406-0.28076 6.1112-0.47296 3.5093-0.36564 3.1231-0.39658 3.0798-0.46703 3.1558-0.57122 3.1007-0.67335 4.0049-1.0584 8.8747-2.7121 3.5929-1.0376 3.5727-0.89496 2.2501-0.49074 3.9559-0.75596 4.7966-0.77365 2.9549-0.41239 8.6306-1.0354 3.1809-0.46563 7.9977-1.4628 2.8546-0.44323 2.8778-0.27583 3.1895-0.066209 2.3211 0.1019 2.3198 0.22496 1.9519 0.28706 1.944 0.37673 2.0122 0.48887 1.997 0.58748 3.1508 1.1415 2.5226 1.0974 2.22 1.0807 8.3887 4.3757 9.2079 4.6514 4.8891 2.7456 3.6881 2.2836 2.5419 1.674 9.3378 6.4844 0.8145 0.47736 0.25203 0.033069" stroke="#bdc660"/>
    </defs>
    <g clip-path="url(#p34622acb71)">
     <use y="194.365458" fill="#bdc660" stroke="#bdc660" xlink:href="#mb216246103"/>
    </g>
   </g>
  </g>
 </g>
 <defs>
  <clipPath id="p34622acb71">
   <rect x="7.2" y="7.2" width="357.12" height="179.97"/>
  </clipPath>
 </defs>
</svg>
