<?xml version="1.0" encoding="UTF-8"?>
<!DOCTYPE svg  PUBLIC '-//W3C//DTD SVG 1.1//EN'  'http://www.w3.org/Graphics/SVG/1.1/DTD/svg11.dtd'>
<svg width="271.74pt" height="280.51pt" version="1.1" viewBox="0 0 271.74 280.51" xmlns="http://www.w3.org/2000/svg" xmlns:xlink="http://www.w3.org/1999/xlink">
 <metadata>
  <rdf:RDF xmlns:cc="http://creativecommons.org/ns#" xmlns:dc="http://purl.org/dc/elements/1.1/" xmlns:rdf="http://www.w3.org/1999/02/22-rdf-syntax-ns#">
   <cc:Work>
    <dc:type rdf:resource="http://purl.org/dc/dcmitype/StillImage"/>
    <dc:date>2024-07-04T12:09:24.195415</dc:date>
    <dc:format>image/svg+xml</dc:format>
    <dc:creator>
     <cc:Agent>
      <dc:title>Matplotlib v3.7.1, https://matplotlib.org/</dc:title>
     </cc:Agent>
    </dc:creator>
   </cc:Work>
  </rdf:RDF>
 </metadata>
 <defs>
  <style type="text/css">*{stroke-linejoin: round; stroke-linecap: butt}</style>
 </defs>
 <g id="figure_1">
  <g id="patch_1">
   <path d="m0 280.51h271.74v-280.51h-271.74v280.51z" fill="none"/>
  </g>
  <g id="axes_1">
   <g id="PatchCollection_1">
    <defs>
     <path id="m6815ecbaa3" d="m252.77-123.22-4.2564 0.4995-2.7674 0.35524-3.567 0.40546-1.0535 0.16391-0.39868 0.1004-0.11768 0.062774-7.4414 4.8349-2.9204 1.8435-2.8889 1.7778-2.5035 1.4892-7.6599 4.4213-3.4628 2.0373-15.512 9.3119-9.7442 5.7909-2.4667 1.521-2.4575 1.6314-1.2118 0.87806-1.3017 1.0164-1.2841 1.0632-4.9526 4.2624-2.9295 2.352-0.41058 0.070539-0.44307 0.24031-0.49409 0.32197-0.90017 0.69564-0.56246 0.50574-0.70367 0.71044-0.852 0.96247-1.1434 1.4634-0.88156 1.2473-2.0837 3.0664-1.3681 1.7893-0.95966 1.1484-0.91797 1.0331-0.92413 0.9745-0.79233 0.77442-0.87982 0.76243-0.90077 0.63089-0.82804 0.45483-0.60508 0.26586-0.53976 0.19959-0.47468 0.14981-1.0306 0.253-0.57404 0.1076-1.3196 0.19418-4.0355 0.51366-2.8189 0.3161-1.7613 0.13592-3.6917 0.17722-1.0668 0.097247-0.7526 0.098681-1.5781 0.29584-1.3949 0.38767-0.67231 0.24036-1.1561 0.51762-0.90453 0.52476-0.8578 0.5984-0.81704 0.65508-0.64988 0.57917-0.51149 0.50105-0.65789 0.71698-0.63417 0.78572-0.65201 0.94161-0.64967 1.128-1.2125 2.2806-0.69802 1.0769-0.81275 0.96794-0.92988 0.8961-1.0214 0.83993-1.0925 0.79644-1.1471 0.76315-2.4904 1.5058-2.4375 1.3738-2.333 1.2759-3.459 1.8565-5.7501 3.0339-2.3459 1.2814-2.2486 1.3035-2.1318 1.3546-0.856 0.59289-1.4786 1.1086-1.4462 1.1828-1.1714 1.0239-2.3785 2.2282-2.2082 2.2089-1.8647 1.9246 0.021245-0.14931-0.17215-0.37127-0.55172-0.83545-0.81026-1.058-3.0638-3.7575-1.0228-1.3164-0.94782-1.3182-0.8335-1.3141-0.67801-1.3089-0.47624-1.306-0.14167-0.60932-0.11313-0.70068-0.19582-1.7347-0.20753-1.335-0.28235-1.3805-0.33969-1.4109-0.79596-2.8647-1.0976-3.5569-0.60725-2.1809-0.606-2.5228-0.55996-2.7318-0.1535-0.62947-0.18433-0.59344-0.24889-0.54485-0.32117-0.42925-0.14844-0.13071-0.56072-0.273-0.6428-0.058805-0.67529 0.14123-0.70124 0.33658-1.6677 1.0095-0.56692 0.29486-0.55302 0.24678-0.68402 0.24008-0.54743 0.13184-0.40441 0.058145-0.40829 0.021186-0.42763-0.022474-0.369-0.060198-0.5749-0.17566-0.56305-0.26303-0.58859-0.36075-0.57998-0.4304-0.59203-0.50446-0.58726-0.55361-0.82127-0.84171-1.3439-1.511-0.52415-0.65147-0.52753-0.71349-0.54826-0.81666-0.72705-1.2219-0.56634-1.0816-0.67726-1.4679-1.5065-3.5725-0.78419-1.5697-0.51476-0.89581-0.67443-1.0399-0.55131-0.76668-0.74828-0.93983-0.6893-0.79568-1.0543-1.1198-0.71014-0.69247-1.0094-0.89253-0.84311-0.65698-0.9513-0.65089-0.98978-0.5991-1.9429-1.1149-0.65806-0.40868-0.79264-0.57118-0.45144-0.38568-0.72443-0.75095-0.5096-0.64885-0.33188-0.49643-0.40781-0.78615-0.13281-0.35026-0.12919-0.45453-0.12116-0.80349-0.013908-0.72207 0.032967-0.52315 0.12101-0.82225 0.27402-1.0336 0.86456-2.2582 0.19254-0.63268 0.087703-0.55602-0.005189-0.4456-0.051938-0.35194-0.11169-0.43472-0.17671-0.48927-0.27739-0.54256-0.45853-0.66456-0.67046-0.83572-1.0195-1.0922-1.1844-1.1112-1.0292-0.90897-1.1356-0.94316-0.98633-0.7315-1.0689-0.66963-1.0349-0.5071-0.76724-0.29719-0.89505-0.26467-0.74864-0.1295-1.344-0.003361-1.348 0.22118-0.82046 0.21913-0.75474 0.24868-0.95187 0.376-0.37853 0.18198-0.10996 0.081211 0.67259-2.0865 0.60576-2.1279 0.46186-1.8322 0.35215-1.6068 0.19375-1.0101 0.27004-1.6822 0.13376-1.2358 0.050395-1.0584 0.006821-1.0368-0.038592-1.68-0.18922-4.6095-0.55778-8.4311-0.32647-5.9342-0.18141-2.3228-0.12686-0.97239-0.24854-1.2135-0.96436-3.5379-0.46185-1.9226-0.20445-1.2145-0.077105-0.80877-0.014257-0.53048 0.033191-0.62885 0.094897-0.6201 0.13098-0.53828 0.17404-0.53611 0.26393-0.63742 0.3884-0.74677 0.3886-0.62656 0.43058-0.61079 0.42689-0.54833 0.76957-0.87929 1.1534-1.1266 0.83378-0.72774 0.62491-0.50525 1.3254-0.95337 0.7987-0.51024 0.76467-0.44096 0.9441-0.46588 0.69935-0.29696 1.7738-0.63028 1.551-0.4125 1.1934-0.2166 3.0381-0.4385 1.8366-0.15549 0.73641-0.024141 0.83051 0.031154 0.94299 0.10917 2.1309 0.30672 0.73398 0.067113 0.93448 0.033942 0.72583-0.01879 5.1469-0.37041 0.70055-0.067555 1.0777-0.16893 0.62522-0.15491 0.6404-0.22032 0.61636-0.29057 0.47852-0.30346 0.34172-0.28394 0.1877-0.19287 0.32404-0.41652 0.33956-0.59892 0.18067-0.41539 0.17812-0.49423 0.26389-0.91314 0.61568-2.6256 0.37427-1.3374 0.48207-1.3503 0.20249-0.46988 0.47102-0.91995 0.79395-1.2363 0.78448-1.0446 1.1704-1.3869 2.3285-2.6275 0.93579-1.1862 0.37486-0.55025 0.42417-0.70616 0.34434-0.68339 0.34814-0.89149 0.25293-0.96023 0.1576-1.01 0.04586-1.0543-0.084157-0.91649-0.22036-0.92492-0.29815-0.87772-0.43265-1.0946-1.011-2.3102-1.5052-3.1978-1.0639-2.1504-1.2031-2.2838-1.4221-2.5012-0.81159-1.3293-1.7017-2.5822-1.4497-2.0489-1.8163-2.4742-0.2093-0.14981-0.13822-0.52614-0.06169-1.0089 0.040274-1.2669 0.10809-1.4182 0.43581-4.5419 0.098378-1.4895 0.024987-1.4915-0.072821-1.1147-0.11302-0.78389-0.13482-0.63053-0.15965-0.56728-0.29548-0.80192-0.17084-0.371-0.28961-0.52647-0.46513-0.67673-0.35119-0.43015-0.43589-0.46798-0.70548-0.64481-0.7286-0.58158-2.4895-1.792-1.1569-0.87305-0.87421-0.70406-0.54642-0.47761-0.76666-0.74702-0.52569-0.64648-0.25507-0.43333-0.13297-0.31745-0.094948-0.35126-0.045366-0.60422 0.040914-0.43725 0.10633-0.50006 0.22369-0.64627 0.39934-0.77785 0.24638-0.37635 0.4211-0.55178 0.41175-0.47032 0.83115-0.81799 0.53621-0.45365 0.6026-0.45743 1.2378-0.81073 0.93673-0.5071 0.68251-0.30252 0.58141-0.2066 0.50347-0.13098 0.43949-0.075084 0.6257-0.047609 0.54283 0.014224 0.59271 0.069245 0.70899 0.16069 0.60783 0.21304 0.38512 0.17295 0.53217 0.28263 0.69616 0.43295 2.5113 1.7624 1.0557 0.67107 1.3619 0.74753 1.1591 0.57808 0.92715 0.40655 0.84281 0.31634 1.3322 0.40998 0.65753 0.16786 1.195 0.25174 1.0341 0.1601 0.69385 0.07967 1.3552 0.095218 1.2579 0.00231 0.87758-0.055246 0.24581-0.039909-0.011807 0.10594 0.1231 0.54336 0.21201 0.68061 0.3171 0.82726 0.35423 0.76524 0.44739 0.80689 0.39819 0.60911 0.33713 0.45484 0.32966 0.40112 0.73999 0.77648 0.76876 0.66918 0.93886 0.67156 0.36574 0.22477 0.59665 0.32836 0.76097 0.36094 1.055 0.40746 1.1604 0.33125 1.0757 0.20578 1.0852 0.12343 1.4017 0.053746 1.3957-0.051588 0.85951-0.081734 0.85116-0.11959 1.0907-0.21447 0.83232-0.21636 0.7315-0.23067 0.9209-0.3415 0.77517-0.32788 1.1631-0.55747 2.9348-1.6248 1.2004-0.60752 1.4372-0.65588 3.3758-1.4488 2.1446-1.0228 0.95607-0.51547 1.1526-0.69926 0.91373-0.6343 0.64275-0.49918 0.86882-0.7567 0.86895-0.86798 0.78928-0.91603 0.43716-0.59521 0.62162-1.023 0.30741-0.61474 0.52273-1.2694 0.84358-2.2697 0.34414-0.75925 0.41593-0.77532 0.64824-1.0013 0.97992-1.2864 0.90485-1.0701 1.0106-1.1207 1.5709-1.5772 1.1553-1.0311 1.4484-1.1835 4.1792-3.3066 0.82336-0.59448 0.74734-0.48744 0.75923-0.43444 0.55151-0.27892 0.92252-0.41182 0.49346-0.19267 0.1888-0.037145-0.072898 0.17974-0.083194 0.30752-0.10431 0.63936-0.069237 1.0867 0.061744 1.4159 0.28046 1.5976 0.54285 1.5364 0.4376 0.82697 0.3498 0.53445 0.47628 0.61535 0.69649 0.75731 1.1478 1.0491 0.79688 0.6463 1.0781 0.79291 1.3274 0.8455 0.61136 0.34158 1.2284 0.61367 1.0895 0.48223 1.2938 0.51 1.5051 0.49962 1.282 0.32247 0.82719 0.14111 3.1361 0.26816 4.3505 0.5164 1.3274 0.25074 1.1534 0.31014 1.1495 0.42893 1.1275 0.57236 0.51156 0.30867 0.72203 0.48669 0.86671 0.67301 0.54628 0.48439 0.67964 0.70132 0.57495 0.70743 0.8217 1.2209 0.39378 0.70572 0.43548 0.93744 0.40202 1.1998 0.19018 0.97308 0.067884 0.84323-0.009497 0.91147-0.094407 1.4035-0.047793 1.4501 0.049288 1.9492 0.082481 0.92645 0.065953 0.41041 0.15329 0.63614 0.25068 0.68587 0.36504 0.695 0.35559 0.50908 0.40082 0.45953 0.68963 0.61121 0.78218 0.5124 1.1219 0.56664 1.8086 0.82005 0.63939 0.31722 0.93526 0.56266 0.56419 0.41275 0.37932 0.31548 0.56373 0.53035 0.69713 0.76101 0.63592 0.81719 0.5554 0.82571 1.6053 2.5766 0.6253 0.84181 0.77797 0.89438 0.61575 0.6249 0.93205 0.83451 0.62901 0.51942 1.0801 0.81897 1.1668 0.75841 1.5342 0.86917 2.8691 1.5108 1.2714 0.7404 1.1 0.70269 2.221 1.5529 1.3615 1.0462 1.001 0.87951 0.94252 0.95602 0.58326 0.67699 0.55945 0.76711 0.43384 0.71279 0.2388 0.44941 0.46742 1.0387 0.93352 2.5676 0.30728 1.0202 0.61205 2.3024 0.37552 1.2817 0.40222 1.2468 0.45864 1.1411 0.5431 1.042 0.49408 0.79991 0.67121 0.88982 0.56687 0.58716 0.49956 0.42026 0.73076 0.51777 0.78757 0.47866 0.65023 0.34797 2.1366 1.0059 4.2199 1.8416 1.9032 0.86922 1.7675 0.89447 2.1757 1.2581 0.92841 0.5766 0.74959 0.5058 1.8977 1.3397 1.1902 0.89313 0.59534 0.48447 0.60017 0.53826 0.60688 0.59795 0.59122 0.64653 0.58592 0.70683 0.66526 0.88277 0.66794 0.96188 0.91067 1.3844 1.4643 2.3732 3.3629 5.7324 1.4161 2.2232 1.5551 2.306 1.3354 1.819 1.5659 1.9953 4.3541 5.1664 3.2513 3.9853 2.1185 2.7766 1.0182 1.4388 0.96851 1.4809 0.89287 1.5297 0.78215 1.5841 0.62729 1.6405 0.43409 1.6625 0.27322 1.6562 0.14479 1.5737 0.046299 1.3802-0.019667 1.0226-0.046949 0.42244" stroke="#bdc660"/>
    </defs>
    <g clip-path="url(#pf1d5f34b8d)">
     <use y="280.512" fill="#bdc660" stroke="#bdc660" xlink:href="#m6815ecbaa3"/>
    </g>
   </g>
  </g>
 </g>
 <defs>
  <clipPath id="pf1d5f34b8d">
   <rect x="7.2" y="7.2" width="257.34" height="266.11"/>
  </clipPath>
 </defs>
</svg>
