<?xml version="1.0" encoding="UTF-8"?>
<!DOCTYPE svg  PUBLIC '-//W3C//DTD SVG 1.1//EN'  'http://www.w3.org/Graphics/SVG/1.1/DTD/svg11.dtd'>
<svg width="328.73pt" height="280.51pt" version="1.1" viewBox="0 0 328.73 280.51" xmlns="http://www.w3.org/2000/svg" xmlns:xlink="http://www.w3.org/1999/xlink">
 <metadata>
  <rdf:RDF xmlns:cc="http://creativecommons.org/ns#" xmlns:dc="http://purl.org/dc/elements/1.1/" xmlns:rdf="http://www.w3.org/1999/02/22-rdf-syntax-ns#">
   <cc:Work>
    <dc:type rdf:resource="http://purl.org/dc/dcmitype/StillImage"/>
    <dc:date>2024-07-04T12:09:11.715483</dc:date>
    <dc:format>image/svg+xml</dc:format>
    <dc:creator>
     <cc:Agent>
      <dc:title>Matplotlib v3.7.1, https://matplotlib.org/</dc:title>
     </cc:Agent>
    </dc:creator>
   </cc:Work>
  </rdf:RDF>
 </metadata>
 <defs>
  <style type="text/css">*{stroke-linejoin: round; stroke-linecap: butt}</style>
 </defs>
 <g id="figure_1">
  <g id="patch_1">
   <path d="m0 280.51h328.73v-280.51h-328.73v280.51z" fill="none"/>
  </g>
  <g id="axes_1">
   <g id="PatchCollection_1">
    <defs>
     <path id="mfe5b209cc9" d="m227.6-211.55-0.30058 0.48803-0.20311 1.1807-0.074347 2.0821 0.070538 1.3157 0.1641 1.3915 0.62161 2.8008 0.37523 1.1424 0.51684 1.3179 0.46392 1.0327 0.85983 1.6766 0.69178 1.1897 1.7212 2.5682 2.0249 2.6068 4.2651 4.9786 1.2631 1.644 0.67795 0.97726 1.0499 1.7387 0.69793 1.4544 0.65698 2.0814 0.18266 1.3741-0.012235 1.1144-0.16785 1.26-0.33621 1.406-1.8991 5.6525-1.7504 4.6099-0.55675 1.6877-0.2633 1.1289-0.11698 1.0798 0.17817 1.4698 0.17619 0.46897 0.7109 1.1302 0.94148 0.96919 1.5625 1.1884 0.97872 0.6205 2.8218 1.55 5.6764 2.8713 2.2828 1.3137 0.99295 0.64489 1.5094 1.1246 2.2478 1.9297 1.1837 0.79994 1.1173 0.60608 1.3895 0.62244 1.4749 0.50969 0.56045 0.15074 2.09 0.3809 1.7567 0.086061 4.48 0.06947 3.8927 0.25347 4.5845 0.43849 4.8679 0.58411 2.6082 0.3986 2.4209 0.50365 2.3071 0.70503 1.6247 0.68991 1.1151 0.5491 1.6763 0.91826 1.8488 1.1495 1.3056 0.91854 1.0846 0.84623 1.8007 1.6092 1.3769 1.472 0.7444 0.95253 0.62817 0.96947 0.36944 0.70819 0.31883 0.79701 0.19411 0.71195 0.093765 0.59965 0.027134 0.60412-0.3125 1.81-0.45128 1.1735-1.7788 3.44-1.0622 2.1625-2.6709 4.9289-1.0472 1.7531-1.2258 1.6352-1.9334 2.1624-6.3516 6.2814-2.6629 2.8267-3.3159 3.748-3.3434 3.948-1.2029 1.5217-1.1266 1.5286-1.022 1.5057-1.3667 2.1268-1.2056 2.044-1.7615 3.3148-0.53846 0.86582-1.0836 1.3654-1.3009 1.3135-1.4592 1.2718-1.565 1.2374-8.7256 6.7494-1.063 0.77521-3.3391 2.2547-2.6335 1.9971-1.0311 0.87334-1.7467 1.6133-1.1803 1.2205-0.52245 0.62325-0.55223 0.78248-0.55017 1.104-0.11443 0.34524-0.1889 1.0236-0.013671 0.58023 0.058241 0.63176 0.27868 1.0973 0.59074 1.2434 0.66442 0.93055 0.47553 0.50104 0.90917 0.5325-1.027 0.63707-1.1649 0.64124-2.7784 1.4355-8.4115 3.9828-0.91531 0.50169-3.9332 2.3887-2.2713 1.3246-4.5367 2.5112-4.4219 2.3415-4.1971 2.5176-2.1953 1.2505-3.2249 1.6459-1.6089 0.73873-2.1725 0.89718-1.7968 0.62104-2.6665 0.77921-1.6912 0.66538-1.083 0.36491-1.1681 0.2329-0.92484 0.062119-1.1328-0.070085-1.1636-0.21788-1.159-0.37818-0.69567-0.31965-1.2746-0.73517-3.3041-2.2727-1.4664-0.93823-2.0822-1.1369-2.1056-1.0773-1.987-0.88268-3.6089-1.5042-1.7507-0.58696-3.4275-1.0534-1.1442-0.4305-1.7051-0.80232-1.5628-0.87925-1.5333-1.0424-1.3821-1.1684-0.84699-0.85234-1.1863-1.3621-0.83662-1.0778-3.2027-4.5839-2.0569-2.5589-1.0901-1.5225-0.9872-1.6144-0.85089-1.673-0.67318-1.7011-0.44453-1.6999-0.16476-1.3534-0.027665-1.1147 0.098396-3.0975-0.13915-1.487-0.27376-1.4377-0.55403-2.2287-0.16165-0.87616-0.05243-0.8394 0.073191-1.0335 0.40894-2.3808 0.12424-1.0084 0.018057-1.0489-0.23535-1.5806-0.51104-1.6415-0.73627-1.6595-0.82305-1.4835-0.93053-1.4447-0.81707-1.143-0.84434-1.0886-2.0149-2.3968-0.80711-1.0724-0.50968-0.85996-0.34907-0.83255-0.14854-0.62802-0.028531-0.54879 0.028016-0.26888 0.148-0.51718 0.19398-0.36495 0.51052-0.58666 0.59666-0.55971 0.6323-0.77736 0.43571-0.98023 0.089337-0.68474-0.053385-0.72424-0.1882-0.75572-0.53743-1.3384-0.77427-1.3485-0.99219-1.2279-0.86068-0.73383-1.4429-0.76294-1.7577-0.57848-1.9965-0.43842-2.1756-0.33393-2.308-0.25784-4.8782-0.37362-6.6579-0.36158-31.691-1.5017-12.186-0.63778-9.8154-0.6029-21.641-1.4486-23.707-1.3842 0.26903-0.082079 0.4929-0.43469 0.85792-0.96714 1.0409-1.3771 1.6852-2.5357 0.79139-1.33 1.9592-3.5484 0.98178-1.6167 1.0788-1.3802 0.63115-0.60606 0.9302-0.6844 0.80182-0.4599 1.0435-0.49521 7.041-2.8377 2.3557-1.0546 1.0535-0.56321 1.0867-0.68287 3.0664-2.1856 1.4625-0.92738 1.1913-0.70557 3.7175-2.0275 1.43-0.86702 1.3191-0.96816 1.159-1.1173 0.95023-1.2584 0.69458-1.3909 0.25218-0.80863 0.16876-0.85199 0.09347-1.0405-0.018182-1.1123-0.12782-1.1508-0.21931-1.1423-0.44021-1.6411-0.47279-1.477-0.71798-1.9677-0.67044-1.6095-0.91815-1.9901-1.5219-2.9593-2.8817-5.1304-0.64376-1.2464-1.1599-2.4943-0.84881-2.2364-0.52248-1.9711-0.22724-1.8576 0.094041-1.8755 0.39131-1.8095 0.39348-1.1283 0.48596-1.0669 0.8969-1.4958 1.6217-2.0824 1.2372-1.687 0.91325-1.4478 0.20672-0.62569 0.094247 0.012287 0.31494-0.41994 0.4068-0.91852 0.82374-2.3645 0.72947-2.4669 0.71945-2.8052 0.45429-2.0684 0.38221-2.0996 0.32567-2.3307 0.65064-6.7808 0.39687-3.261 0.45089-2.3462 0.51936-1.8647 0.44749-1.2598 0.57586-1.3393 0.68113-1.2743 0.87251-1.281 0.57378-0.68097 0.60367-0.60009 0.67516-0.54775 1.0068-0.63279 1.0864-0.44714 1.8225-0.28012 1.1195 0.020248 1.1664 0.12504 2.3116 0.46926 2.1953 0.63882 2.3708 0.84362 1.5474 0.62167 2.0891 0.92806 3.1412 1.6141 5.8512 3.3839 2.7159 1.4707 6.0304 2.8954 1.3616 0.6876 1.8274 1.0016 3.4315 2.1143 6.3201 4.3361 1.0524 0.66867 1.031 0.58555 1.6797 0.72483 1.1775 0.26167 0.83889 0.021914 1.7147-0.44276 1.6206-0.99619 1.4988-1.4307 1.3392-1.7805 0.77479-1.3277 0.43661-0.858 1.1234-2.5542 2.4615-6.2729 3.3143-7.329 1.1848-2.7964 0.83243-2.1387 0.68468-2.1138 0.49291-2.2176 0.41362-2.8209 0.78751-6.3369 0.38063-2.3661 0.48947-1.9598 0.56184-1.5199 0.80232-1.5336 0.85506-1.3256 1.1097-1.5166 1.1743-1.4748 1.5362-1.8078 2.2209-2.3897 1.4331-1.347 1.4819-1.1565 1.2523-0.73576 1.5174-0.54906 1.2-0.17335 0.78626-0.015362 1.6389 0.1635 1.3573 0.30458 0.84616 0.259 1.1501 0.43147 0.91754 0.40595 1.3821 0.70635 2.2481 1.3671 1.927 1.3684 1.6124 1.2646 2.0215 1.6982 3.836 3.398 3.0648 2.8242 2.5423 2.4771 2.0318 2.1468 0.89918 1.0278 0.90845 1.1393 2.4528 3.4533 2.2897 3.4755 1.3887 2.3669 2.2223 4.0073 1.0853 1.7185 0.79914 1.0438 0.64159 0.70508 0.69587 0.63977 0.9723 0.70821 0.67526 0.38602 0.95276 0.42666 3.5705 1.3134 1.6004 0.8238 5.4349 3.3912 1.4049 0.77388 1.3538 0.64499 1.422 0.55509 0.88231 0.27938 1.7486 0.43924 2.8224 0.49488 2.2934 0.28495 6.4875 0.61618 0.72493 0.13947" stroke="#bdc660"/>
    </defs>
    <g clip-path="url(#pfe73159944)">
     <use y="280.512" fill="#bdc660" stroke="#bdc660" xlink:href="#mfe5b209cc9"/>
    </g>
   </g>
  </g>
 </g>
 <defs>
  <clipPath id="pfe73159944">
   <rect x="7.2" y="7.2" width="314.33" height="266.11"/>
  </clipPath>
 </defs>
</svg>
