<?xml version="1.0" encoding="UTF-8"?>
<!DOCTYPE svg  PUBLIC '-//W3C//DTD SVG 1.1//EN'  'http://www.w3.org/Graphics/SVG/1.1/DTD/svg11.dtd'>
<svg width="317.72pt" height="280.51pt" version="1.1" viewBox="0 0 317.72 280.51" xmlns="http://www.w3.org/2000/svg" xmlns:xlink="http://www.w3.org/1999/xlink">
 <metadata>
  <rdf:RDF xmlns:cc="http://creativecommons.org/ns#" xmlns:dc="http://purl.org/dc/elements/1.1/" xmlns:rdf="http://www.w3.org/1999/02/22-rdf-syntax-ns#">
   <cc:Work>
    <dc:type rdf:resource="http://purl.org/dc/dcmitype/StillImage"/>
    <dc:date>2024-07-04T12:09:30.692857</dc:date>
    <dc:format>image/svg+xml</dc:format>
    <dc:creator>
     <cc:Agent>
      <dc:title>Matplotlib v3.7.1, https://matplotlib.org/</dc:title>
     </cc:Agent>
    </dc:creator>
   </cc:Work>
  </rdf:RDF>
 </metadata>
 <defs>
  <style type="text/css">*{stroke-linejoin: round; stroke-linecap: butt}</style>
 </defs>
 <g id="figure_1">
  <g id="patch_1">
   <path d="m0 280.51h317.72v-280.51h-317.72v280.51z" fill="none"/>
  </g>
  <g id="axes_1">
   <g id="PatchCollection_1">
    <defs>
     <path id="m06fbcfa6fe" d="m274.53-232.38-0.37012 0.48849-0.87567 2.345-0.64072 3.2348-0.33396 3.4218-0.23612 5.0997-0.085907 6.3036 0.27361 5.48 0.29192 2.6337 0.69531 3.9729 0.71985 3.2348 1.6542 6.3551 2.5994 9.2268 1.2776 3.9954 1.4016 3.8422 1.5383 3.5822 2.5512 5.1963 1.3826 3.5124 1.6159 5.5055 2.2841 9.6343 0.42649 2.8257 0.1604 2.2191 0.037039 4.3038-0.23361 5.7915 0.091439 3.3128 0.26867 2.1493 0.56346 2.8877 2.5112 9.2819 1.5804 6.5139 0.60166 3.3605 0.31436 2.637 0.13869 3.9515-0.25644 3.5861-0.52656 3.4364-0.90828 4.0654-0.72136 2.6076-1.2057 3.7688-2.9055 7.9588-1.8063 4.4847-4.9705 11.451-2.6219 6.6242-0.93015 2.0893-1.108 2.2162-1.4978 2.6532-1.1513 1.8087-1.4402 2.005-3.0078 3.7092-2.7487 2.7527-1.8879 1.553-1.42 0.9877-2.3812 1.2994-1.7753 0.66755-2.6529 0.54148-2.7998 0.18743-8.3511-0.28806-3.8199 0.034433-4.5286 0.49588-6.0101 1.1715-5.5017 1.3447-4.0494 1.0967-4.7397 1.4931-1.3201 0.57096-0.29692 0.19707-0.12167 0.2126-0.1018-0.47647-0.44889-0.8008-0.74757-1.1095-1.834-2.3856-2.9167-3.3211-1.9909-2.0373-2.4878-2.3275-2.6265-2.2108-3.2417-2.38-3.2457-1.9786-3.8318-1.8264-3.7052-1.3851-3.6877-0.89066-3.5499-0.28155-3.5415 0.1086-7.5328 0.47302-2.3104-0.045561-2.2492-0.25002-3.0669-0.84039-3.2617-1.7845-3.0545-2.5037-2.9039-3.0161-2.7999-3.3589-5.0035-6.625-6.9023-9.7153-2.6767-3.344-2.8157-2.8152-3.0556-2.0494-3.3984-1.1196-2.6293-0.33488-1.674-0.02606-2.6364 0.22326-1.7977 0.32066-2.876 0.74894-2.0602 0.68659-1.9902 0.84953-3.0201 1.7878-5.8058 4.2988-2.9955 1.9708-3.4399 1.6261-3.3694 0.92907-2.5716 0.22013-2.4404-0.2429-2.4093-0.56535-4.5561-1.351-2.2829-0.5463-2.3503-0.33396-2.6819-0.030562-2.7379 0.27732-8.5371 1.5753-5.711 0.93394-4.1152 0.40158-4.1905 0.11272-4.181-0.23128-4.0765-0.65099-4.0249-1.2314-3.6472-1.9179-3.1456-2.6641-2.6239-3.137-1.64-2.4069-1.9963-3.4816-1.3547-3.0637-0.56693-1.5674-0.98576-3.4948-0.16072-0.84265-0.005643-0.54237-0.006827-0.11632 0.30839-0.36407 1.6025-1.5035 6.4834-5.5634 8.0301-6.5048 13.989-11.049 3.6563-3.0381 4.0916-3.6506 4.0018-3.8762 3.212-3.3512 2.7063-3.0448 2.6809-3.3286 2.0455-2.9029 1.5095-2.4159 1.5082-2.858 0.74693-1.7821 0.41339-1.2397 0.48835-2.2306 0.14522-2.8041-0.092515-1.4505-0.55969-4.0289-0.54769-2.8898-1.0449-3.8246-1.3978-4.0128-1.6479-4.1318-1.8182-4.1893-3.0124-6.4693-4.2728-8.5066-2.6396-4.6599-2.7618-4.2036-1.8045-2.2307-1.3774-1.378-1.6996-1.3593-2.3394-1.4996-6.4822-3.4395-2.9176-1.7484-1.6236-1.2568-2.0586-2.2918-1.4209-2.6416-0.78268-3.091-0.25753-2.9126 0.14758-3.0495 0.5807-3.859 3.038-13.995 0.91206-2.8581 1.1545-2.5503 0.99642-1.6196 1.8044-1.7991 1.8749-0.98783 2.0968-0.64215 3.8406-0.84088 2.2064-0.6258 1.8577-0.75973 3.6047-1.764 1.4782-0.52568 0.98639-0.19199 1.5921-0.012464 1.6439 0.31866 1.558 0.57098 1.6122 0.75701 6.8578 3.5747 5.8389 2.7502 7.2131 3.7338 2.5366 1.219 2.3676 1.0859 3.6227 1.4501 4.9251 2.2939 7.3565 3.6915 2.6924 1.4408 5.6129 3.2219 2.7281 1.4242 2.5152 1.1578 3.4104 1.2714 3.0022 0.61073 1.7313 0.14424 2.0964-0.017509 2.4979-0.30106 2.8619-0.72192 3.7849-1.4369 8.5713-4.162 4.4095-2.0005 4.5495-1.8988 12.208-4.8432 3.0001-1.1095 4.8433-1.4743 1.9619-0.49838 4.46-0.86001 3.8164-0.46633 3.6255-0.25151 3.6428-0.092129 9.8955 0.088495 11.447-0.49191 5.2075-0.030861 5.2877 0.19005 5.3262 0.43138 5.5585 0.75132 5.4709 1.1162 5.2836 1.5624 4.9659 2.105 4.2712 2.5011 3.8604 2.7809 6.3176 5.1354 1.6532 1.2334 1.1853 0.71012 0.77887 0.30528 0.24876-0.13306" stroke="#bdc660"/>
    </defs>
    <g clip-path="url(#p720a0016b2)">
     <use y="280.512" fill="#bdc660" stroke="#bdc660" xlink:href="#m06fbcfa6fe"/>
    </g>
   </g>
  </g>
 </g>
 <defs>
  <clipPath id="p720a0016b2">
   <rect x="7.2" y="7.2" width="303.32" height="266.11"/>
  </clipPath>
 </defs>
</svg>
