<?xml version="1.0" encoding="UTF-8"?>
<!DOCTYPE svg  PUBLIC '-//W3C//DTD SVG 1.1//EN'  'http://www.w3.org/Graphics/SVG/1.1/DTD/svg11.dtd'>
<svg width="160.33pt" height="280.51pt" version="1.1" viewBox="0 0 160.33 280.51" xmlns="http://www.w3.org/2000/svg" xmlns:xlink="http://www.w3.org/1999/xlink">
 <metadata>
  <rdf:RDF xmlns:cc="http://creativecommons.org/ns#" xmlns:dc="http://purl.org/dc/elements/1.1/" xmlns:rdf="http://www.w3.org/1999/02/22-rdf-syntax-ns#">
   <cc:Work>
    <dc:type rdf:resource="http://purl.org/dc/dcmitype/StillImage"/>
    <dc:date>2024-07-04T12:09:25.524887</dc:date>
    <dc:format>image/svg+xml</dc:format>
    <dc:creator>
     <cc:Agent>
      <dc:title>Matplotlib v3.7.1, https://matplotlib.org/</dc:title>
     </cc:Agent>
    </dc:creator>
   </cc:Work>
  </rdf:RDF>
 </metadata>
 <defs>
  <style type="text/css">*{stroke-linejoin: round; stroke-linecap: butt}</style>
 </defs>
 <g id="figure_1">
  <g id="patch_1">
   <path d="m-0 280.51h160.33v-280.51h-160.33v280.51z" fill="none"/>
  </g>
  <g id="axes_1">
   <g id="PatchCollection_1">
    <defs>
     <path id="md09e0a63e3" d="m146.49-63.296-0.052403-0.007088-0.19391 0.040536-0.70172 0.22925-0.54012 0.21245-0.78391 0.34875-0.56124 0.2799-0.77956 0.43635-0.51541 0.32232-0.65501 0.45079-0.64842 0.49421-0.47931 0.39896-0.83702 0.75494-4.5145 4.4682-1.2587 1.1774-2.0322 1.8037-0.7761 0.76358-0.37098 0.39445-2.6582 3.0077-2.3469 2.556-0.90762 1.0211-0.66353 0.81498-0.30749 0.43974-0.20898 0.35199-0.18374 0.38487-0.22358 0.72804-0.11983 0.76385-0.15361 2.3129-0.11385 0.72551-0.24332 0.83056-0.19151 0.49585-0.41227 0.91825-0.73816 1.4397-0.50937 0.85851-0.43423 0.63742-0.30253 0.39616-0.27704 0.33153-0.58012 0.62002-1.9986 1.9081-0.76846 0.78607-0.70846 0.80455-2.4611 2.9524-0.89544 0.94047-0.96113 0.89033-0.99332 0.81804-0.98089 0.7098-0.90406 0.5481-0.72964 0.31366-0.28873 0.044084-0.13223-0.07316-3.2648-0.83734-2.2763-0.53202-1.4163-0.28538-0.70162-0.11859-0.67166-0.093302-0.70432-0.068044-0.6533-0.021954-1.132 0.035903-0.6554-0.035476-0.7933-0.09248-2.3554-0.32792-1.0269-0.088967-1.2797-0.062159-2.0813-0.039535-4.1826-0.019492-2.8924 0.006648-1.5047 0.02515-1.911 0.085735-1.3682 0.11736-1.6546 0.22164-1.4833 0.28555-3.1632 0.75453-0.91354 0.23687-1.6021 0.45333-1.1149 0.35382-1.4691 0.50888-1.1824 0.4425-0.6031 0.24926-0.031037-0.019545-0.024845-0.071677-0.008518-0.17656 0.07409-0.57751 0.93892-3.9863 0.54495-1.827 1.1028-3.3481 0.33071-1.1162 0.24193-0.91373 0.31869-1.427 0.24489-1.2742 0.1763-1.107 0.34236-2.4674 0.24181-1.2535 0.3428-1.3194 0.98242-3.2642 0.10196-0.39302 0.12527-0.62091 0.062868-0.59852-0.007932-0.53128-0.038647-0.3105-0.05334-0.26485-0.13716-0.46734-0.27671-0.66622-0.2514-0.47433-0.28825-0.45459-0.24784-0.33353-0.3345-0.38585-0.43247-0.42648-0.43906-0.37187-0.81671-0.5999-2.9816-1.9735-2.0653-1.2252-1.9208-1.1872-1.4224-0.83424-1.0216-0.65116-1.0014-0.77046-1.5927-1.3348-2.1701-1.6975-1.3936-1.0395-0.69545-0.48172-0.77721-0.46962-0.66996-0.34456-0.91208-0.37604-1.2417-0.4337-0.5253-0.25672-0.27702-0.19028-0.38304-0.36196-0.25349-0.31795-0.21422-0.32722-0.33817-0.64006-0.37755-0.88755-0.70048-1.8468-0.40511-1.1694-0.28334-0.69325-0.284-0.512-0.24218-0.32233-0.26588-0.27339-0.27628-0.21939-0.32633-0.18831-0.19208-0.078185-0.24364-0.068249-0.37746-0.051599-0.50995 0.0134-0.40771 0.082829-0.29797 0.11513-0.26911 0.17338-0.13523 0.1787 0.008296 0.031026-0.021451 0.038018-0.078353 0.084561-0.23087 0.18038-0.33632 0.20728-0.51888 0.26832-0.87378 0.38855-1.0822 0.43256-0.51813 0.18014-0.61933 0.17017-0.34291 0.068276-0.51561 0.068937-0.60805 0.033532-0.40968-0.005306-0.89633-0.086354-0.67925-0.13226-0.53365-0.14616-0.44013-0.14858-0.7151-0.28738-3.0866-1.4746-0.71727-0.37513-0.64617-0.37388-0.69634-0.46588-0.50482-0.40388-0.28984-0.27085-0.52601-0.59844-0.33148-0.46649-0.29528-0.48982-0.2282-0.44557-0.15674-0.36176-0.18374-0.5432-0.094877-0.43879-0.02793-0.31604 0.002464-0.17085 0.097801-0.54958 0.20127-0.51476 0.28502-0.50134 0.52674-0.69136 0.62074-0.62997 1.0608-0.87975 0.5117-0.45473 0.4391-0.51086 0.336-0.62262 0.14332-0.40926 0.1075-0.43603 0.095723-0.61869 0.049839-0.77407-0.0088-0.79136-0.077118-1.6027 0.006669-0.85156 0.068725-0.70617 0.14349-0.97684 0.10801-0.95792 0.017835-0.54228-0.013208-1.6973 0.032997-0.5718 0.085317-0.57048 0.2094-0.73536 0.29838-0.74233 0.64106-1.3417 1.9153-3.8152 0.59298-1.2884 0.52207-1.293 0.39454-1.2059 0.28641-1.1269 0.1001-0.56025 0.057259-0.54488 0.009766-0.29934-0.017048-0.3988-0.12798-0.6791-0.35823-0.81667-0.50938-0.73214-0.58808-0.66074-0.71813-0.7523-0.38414-0.47949-0.2047-0.28802-0.41889-0.65907-1.1898-2.0135-0.99107-1.5901-0.28948-0.52502-0.31495-0.6586-0.29496-0.73732-0.27404-0.81606-0.40524-1.4477-0.64611-2.6152-0.39253-1.2119-0.33465-0.87446-1.4043-3.2604-0.71778-1.75-0.81077-2.1126-1.5561-4.2549-0.50596-1.258-0.41495-0.93882-0.52816-1.0827-1.7225-3.2651-0.26074-0.56841-0.33955-0.81633-0.28678-0.77113-0.158-0.4959-0.21104-0.84855-0.1124-0.74808-0.022231-0.74813 0.025479-0.34304 0.059959-0.40465 0.10806-0.45501 0.16483-0.48135 0.30182-0.62042 0.309-0.46459 0.49128-0.55064 0.35087-0.30776 0.23339-0.17053 0.24-0.14742 0.40582-0.19679 0.78765-0.27686 1.0258-0.22837 5.5278-0.97366 2.2485-0.42452 1.3394-0.32317 2.5372-0.70425 2.805-0.71432 0.98484-0.20184 0.87141-0.11613 0.55956-0.050148 0.96496-0.042684 0.7622 0.005654 1.1209 0.068733 0.92045 0.1076 1.002 0.16827 1.1734 0.24016 3.0522 0.74043 0.67294 0.1207 0.50443 0.064812 0.9122 0.057667 0.93517-0.017744 0.73884-0.061616 0.75202-0.1172 0.594-0.15134 0.49789-0.16267 0.61559-0.23811 0.50183-0.23018 0.8985-0.46262 1.6817-0.93068 0.95764-0.58629 0.61739-0.44927 0.34192-0.27725 0.38674-0.34518 0.33563-0.34108 0.30993-0.36549 0.30721-0.44726 0.16764-0.30664 0.15207-0.35359 0.16846-0.54683 0.1168-0.67819 0.10311-1.934 0.042055-0.39118 0.092618-0.53445 0.16559-0.64113 0.2555-0.78187 0.45357-1.2159 0.64867-1.6516 0.33004-0.95357 0.18796-0.74491 0.075083-0.49975 0.020038-0.52561-0.05602-0.52683-0.14205-0.52052-0.13685-0.3278-0.15098-0.28991-0.29678-0.46093-0.48734-0.60411-1.5863-1.7056-0.40921-0.47149-0.56451-0.7259-0.70012-1.0546-0.55885-0.96162-0.5196-1.0021-0.47637-1.0358-0.42613-1.0654-0.45987-1.3862-0.30895-1.1222-0.23709-1.0135-0.20828-1.0646-0.1267-0.80854-0.12192-1.0634-0.078266-1.0421-0.063928-1.3945-0.032762-1.9969 0.009369-1.2041 0.069595-2.4104 0.10888-2.1087 0.33775-4.7808 0.11277-2.0363 0.010257-1.1601-0.083228-1.2453-0.11488-0.75073-0.1601-0.74782-0.18045-0.68477-0.20763-0.68441-0.39066-1.1277-0.44034-1.1317-0.48038-1.1381-0.44623-1.0011-1.0845-2.3271-1.7317-3.5855-2.0955-4.2714-0.76448-1.488-0.59304-1.0775 2.2186-1.7813 3.7509-3.2282 0.97252-0.80523 0.98584-0.7698 0.91776-0.66501 1.8612-1.2355 1.8682-1.1519 7.3798-4.3858 11.748-7.0525 2.6226-1.5429 5.8013-3.3485 1.896-1.1279 2.1879-1.3465 2.2118-1.3962 5.6358-3.6618 0.68892 1.7714 0.41693 1.0048 0.486 1.1177 0.53212 1.1555 0.57427 1.1613 0.64707 1.1984 0.45448 0.77882 0.47044 0.76389 0.91684 1.3964 1.2089 1.7251 0.7047 0.96915 2.2105 2.9079 2.2222 2.7929 5.0746 6.1545 1.281 1.6173 0.89742 1.1778 0.79453 1.0855 0.73024 1.0411 1.2541 1.8992 0.88763 1.4652 0.7335 1.3548 0.38537 0.81004 0.4253 1.0281 0.37794 1.0499 0.34362 1.0661 0.31995 1.0776 1.5627 5.601 0.6259 2.021 1.025 3.0404 0.64986 1.8034 0.59413 1.569 0.70196 1.7984 1.4534 3.5535 0.52539 1.443 0.18226 0.64186 0.067742 0.31548 0.065157 0.4469 0.03405 0.4821 7.27e-4 0.4843-0.034681 0.5557-0.062733 0.54102-0.24601 1.3685-0.233 0.92621-0.21002 0.71386-0.15554 0.48169-0.33028 0.87625-0.28173 0.60928-0.30879 0.53672-0.29729 0.42764-0.90221 1.1231-0.5549 0.74941-0.40324 0.62932-0.43855 0.77841-0.68283 1.4335-0.71472 1.6865-0.38462 1.0439-0.14164 0.45105-0.19149 0.83576-0.081193 0.68311-0.022503 0.3921-6.16e-4 0.84373 0.048998 0.53995 0.058546 0.34033 0.37786 1.4752 0.094214 0.59566 0.01223 0.49001-0.13229 1.7235-0.01795 2.1643 0.095219 1.1341 0.28782 2.6361 0.071529 1.1577-0.031671 0.99369-0.061267 0.62108-0.1011 0.67529-0.17388 0.76784-0.079729 0.25748-0.1212 0.3225-0.18182 0.38139-0.16417 0.27619-0.32179 0.42904-0.40101 0.42463-0.54009 0.47942-0.50706 0.36457-0.4815 0.26824-0.45796 0.18981-0.59998 0.16997-0.43384 0.083353-0.83137 0.095964-0.53112 0.024093-1.7217-0.026547-0.62724 0.008681-0.5932 0.045596-0.57129 0.086125-0.63966 0.14865-0.75904 0.24641-0.72252 0.31347-0.49176 0.27112-0.52144 0.35684-0.42754 0.35247-0.40332 0.37534-0.7454 0.77597-1.8089 2.0304-1.3679 1.4524-0.31549 0.39088-0.20781 0.30543-0.21459 0.41691-0.099784 0.30872-0.039568 0.25116 4.09e-4 0.25011 0.040079 0.2404 0.071285 0.21746 0.1196 0.23857 0.15169 0.22251 0.16955 0.20312 0.29912 0.30641 0.43545 0.39389 0.5303 0.42618 0.8092 0.53772 2.4261 1.3511 0.886 0.41299 0.61204 0.22998 2.0583 0.68517 2.2572 0.66561 0.87 0.2382 1.6011 0.38452 3.177 0.66165 0.54731 0.14726 0.73155 0.30152 0.6043 0.3912 0.36765 0.36128 0.16804 0.23802 0.15148 0.34499 0.041957 0.66838-0.17941 0.73426-0.32859 0.77903-0.21793 0.42412-0.54898 0.85615-0.62451 0.78198-0.68068 0.72118-0.45836 0.42799-0.48561 0.4152-1.0583 0.80456-1.1737 0.77808-0.99708 0.59273-3.1245 1.7272-1.2561 0.73356-1.3583 0.86929-1.2686 0.86336-1.6237 1.1556-0.88518 0.72539-0.43564 0.43842-0.25709 0.33563-0.13983 0.26255-0.046412 0.13973-0.024291 0.17454 0.022885 0.19432 0.060758 0.1631 0.11919 0.1895 0.18412 0.20106 0.27902 0.22926 0.6112 0.39026 1.5931 0.86954 0.38817 0.23692 0.73765 0.4964 0.77176 0.5717 0.68634 0.54578 0.5613 0.51214 0.43457 0.46996 0.23075 0.29118 0.37946 0.58034 0.19161 0.37322 0.17055 0.41983 0.19499 0.67898 0.095141 0.48783 0.094198 0.8404 0.008487 0.84593-0.045713 0.67506-0.1349 1.0755-0.1471 0.89477-0.57555 2.9853-0.61217 2.8284-0.48516 2.0064-0.54489 1.9413-0.17137 0.67744-0.13574 0.66647-0.10795 0.80544-0.13974 1.545-0.10554 0.72764-0.14838 0.63021-0.41469 1.557-0.21428 1.3138-0.40537 2.0871-0.18991 1.5713-0.12995 0.83134-0.36488 1.779-0.14371 0.91694-0.10655 1.6297-0.087403 0.54299-0.19412 0.66418-0.86308 2.2897-0.2501 0.84396-0.19492 0.99321-0.029814 0.47304 0.043221 0.52287 0.17214 0.58453 0.2941 0.6113 0.38448 0.59846 0.45573 0.5691 1.3592 1.3757 0.48824 0.56954 0.35634 0.609 0.11321 0.34283 0.069456 0.43406 0.012424 0.3497-0.016779 0.37716-0.11822 0.83746-0.091683 0.36568-0.8352 2.4544-0.74149 2.6092-0.23779 0.92528-0.086985 0.45634-0.051508 0.4564 0.002404 0.56106 0.091368 0.56233 0.17397 0.53599 0.32946 0.66098 0.41247 0.59827 0.41922 0.4921 1.0065 1.1151 2.4447 2.8462 0.76119 0.84861 1.1854 1.2227 0.57202 0.5297 0.5848 0.49774 3.0503 2.4038 0.67191 0.50407 0.62791 0.37072 0.3466 0.14448 0.56403 0.14118 0.31545 0.040274 0.47401 0.025669 0.85914-0.021872 0.54956-0.05177 0.78078-0.12283 0.65543-0.14927 0.39818-0.11412 0.58425-0.20858 0.67577-0.30371 0.77732-0.43027 1.0417-0.70399 1.1724-0.90476 1.7903-1.4649 0.69659-0.53616 0.53963-0.37383 0.62468-0.38277 0.90808-0.48597 0.8401-0.39689 0.82221-0.32631 0.69871-0.23243 0.85535-0.2411 2.0938-0.49656 2.0427-0.52659 0.50935-0.12011 0.7402-0.13656 0.85972-0.083008 0.72714 4.86e-4 0.41133 0.035613 0.68634 0.13029 0.37113 0.11516 0.23735 0.10702 0.13784 0.14792" stroke="#bdc660"/>
    </defs>
    <g clip-path="url(#p3c623c4101)">
     <use y="280.512" fill="#bdc660" stroke="#bdc660" xlink:href="#md09e0a63e3"/>
    </g>
   </g>
  </g>
 </g>
 <defs>
  <clipPath id="p3c623c4101">
   <rect x="7.2" y="7.2" width="145.93" height="266.11"/>
  </clipPath>
 </defs>
</svg>
