<?xml version="1.0" encoding="UTF-8"?>
<!DOCTYPE svg  PUBLIC '-//W3C//DTD SVG 1.1//EN'  'http://www.w3.org/Graphics/SVG/1.1/DTD/svg11.dtd'>
<svg width="173.57pt" height="280.51pt" version="1.1" viewBox="0 0 173.57 280.51" xmlns="http://www.w3.org/2000/svg" xmlns:xlink="http://www.w3.org/1999/xlink">
 <metadata>
  <rdf:RDF xmlns:cc="http://creativecommons.org/ns#" xmlns:dc="http://purl.org/dc/elements/1.1/" xmlns:rdf="http://www.w3.org/1999/02/22-rdf-syntax-ns#">
   <cc:Work>
    <dc:type rdf:resource="http://purl.org/dc/dcmitype/StillImage"/>
    <dc:date>2024-07-04T12:09:33.488319</dc:date>
    <dc:format>image/svg+xml</dc:format>
    <dc:creator>
     <cc:Agent>
      <dc:title>Matplotlib v3.7.1, https://matplotlib.org/</dc:title>
     </cc:Agent>
    </dc:creator>
   </cc:Work>
  </rdf:RDF>
 </metadata>
 <defs>
  <style type="text/css">*{stroke-linejoin: round; stroke-linecap: butt}</style>
 </defs>
 <g id="figure_1">
  <g id="patch_1">
   <path d="m-0 280.51h173.57v-280.51h-173.57v280.51z" fill="none"/>
  </g>
  <g id="axes_1">
   <g id="PatchCollection_1">
    <defs>
     <path id="m240012d5a4" d="m128.44-197.25 0.23265 0.39972 0.69319 0.73982 2.0665 1.9337 2.3706 1.9522 2.5576 1.916 1.2814 1.0759 0.57367 0.54606 0.40444 0.4592 0.37902 0.54881 0.28566 0.57334 0.22578 0.64606 0.14548 0.61343 0.11233 0.77798 0.35359 4.6896 0.23626 2.033 0.31156 2.1094 0.39028 2.0786 1.0466 5.0187 0.78986 3.5046 0.16394 1.1694 0.042262 0.83341-0.027711 2.1074 0.025268 0.51871 0.13774 0.89218 0.2561 0.86655 0.70098 1.6261 2.6572 4.9172 0.86334 1.8224 0.36189 0.9551 0.42362 1.7745 0.069272 1.0672-0.040568 0.97482-0.13098 1.0643-0.26213 1.3733-1.1471 4.886-0.30154 2.1836-0.098614 1.5816-0.009556 2.3484 0.098301 1.6638 0.22309 1.6831 0.39021 1.543 0.56776 1.2086 0.34566 0.45343 0.51184 0.44538 0.7692 0.38223 1.0038 0.25439 0.2948 0.03353 0.33186-0.030072 2.0054 0.67513 0.35599 0.1986-0.12458 0.1403-0.98574 0.50995 0.080129 0.14655-0.028076 0.30101-0.52353 1.1471-0.10926 0.43646-0.01453 0.41863 0.093585 0.64306 0.19097 0.64506 0.28813 0.59644 0.22499 0.26437 0.22409 0.11565 0.27311-0.003889 1.1266-0.41438 0.51115 0.005295 0.62403 0.2311 1.3812 0.71808 0.68059 0.29494 0.94247 0.30754 0.76903 0.15773 0.03324 0.11429-0.10276 0.29734-0.28594 0.50409-1.1034 1.4895-3.4216 4.1162-1.1884 1.3414-1.8908 2.0138-1.9714 1.9872-3.6509 3.485-2.1552 1.8888-6.0956 5.0045-1.997 1.7605-7.813 7.3505-1.9522 1.9931-1.3243 1.5954-0.66702 0.94218-0.80425 1.3482-0.58869 1.2506-0.40067 1.1325-0.26242 1.0652-0.19124 1.5117 0.026324 1.634 0.12978 0.9591 0.17147 0.79174 0.34914 1.1653 0.33848 0.90202 0.64659 1.4773 1.3428 2.8297 1.1477 2.0573 1.9779 2.7988 1.0146 1.5995 0.58563 1.264 0.37305 1.1603 0.17003 0.9626-0.10888 1.3677-0.71152 1.2987-0.8643 0.89902-1.0904 0.86383-1.681 1.0892-1.9057 1.0721-2.1007 1.0889-4.5641 2.2057-9.586 4.3919-3.1469 1.3917-2.448 1.0212-4.1322 1.6124-10.02 3.7394-4.6267 1.8896-2.7252 1.1963-5.466 2.5673-5.1471 2.5931-4.6506 2.4594-6.7624 3.6625-0.4579-0.60789-0.34605-0.9336-0.2015-0.75207-0.25964-1.3808-0.14497-1.2061-0.07255-1.5926 0.11879-1.6532 0.14256-0.81964 0.28262-1.1017 0.32309-0.9269 0.58216-1.2622 0.65146-1.0708 0.87463-1.1222 1.6492-1.8358 0.89455-1.1017 0.74314-1.1453 0.42897-0.88307 0.2494-0.69438 0.24044-1.0314 0.12209-1.084 0.018956-1.1421-0.072262-1.1781-0.19059-1.4594-0.5506-2.6208-0.4797-1.7152-0.88592-2.5958-0.58551-1.4807-1.0584-2.4507-1.2083-2.5891-3.1972-6.4982-0.83903-1.8246-0.92668-2.27-0.34851-0.98994-0.55898-1.8929-1.1304-5.293-0.33482-1.3195-0.62937-1.8548-0.76974-1.8528-2.1573-4.6891-1.1734-2.369-1.0689-1.987-1.1837-1.994-1.0666-1.6081-1.0372-1.4053-1.5468-1.8881-2.7667-3.179-2.1505-2.3474-1.6964-1.7421-2.9107-2.7963-2.7198-2.4649-4.8058-4.1067-4.5909-3.7715-3.92-3.0464-0.59087-0.54593-0.059627-0.28216 0.22365-0.27466 0.6806-0.3381 6.1644-1.8459 1.5431-0.54257 1.4428-0.73073 1.4467-1.146 1.2827-1.4022 0.7173-0.93158 1.1703-1.8791 3.8757-7.2033 1.5616-2.5285 2.5364-3.7175 0.95191-1.5476 0.78282-1.6001 0.53389-1.6575 0.18906-1.2044 0.049504-0.94621-0.027529-1.18-0.08238-1.0756-0.382-3.5591-0.054039-1.1307 0.062371-1.5729 0.51364-4.3988 0.11557-1.6529 0.009367-0.61944-0.21044-4.5576 0.13103-3.9388-0.041312-1.9623-0.14683-1.3344-0.22548-1.1397-0.30519-1.112-0.38588-1.1317-1.2-3.0819-0.42549-1.2637-0.26139-1.3032-0.011669-1.3201 0.17589-0.9442 0.34969-1.0465 0.38318-0.86584 1.171-2.1434 2.4419-3.9932 0.73618-1.3216 0.6922-1.4569 0.49114-1.3797 0.18806-0.76881 0.20031-2.1049-0.13242-2.1161-0.17599-1.1875-0.23434-1.0846-0.29914-1.0545-1.7797-4.9169-0.31144-1.0587-0.25175-1.0773-0.14976-0.8334-0.13885-2.1081 0.23623-2.353 0.41526-1.7948 0.5848-1.7479 0.74529-1.6384 0.90749-1.459 0.61569-0.75811 0.77753-0.82311 2.8699-2.7047 1.4405-1.4265 1.4741-1.5932 1.7704-2.0957 1.2683-1.6461 1.2207-1.735 0.80715-1.2524 1.074-1.824 0.96859-1.8822 1.022-2.3898 0.8648-2.3899 0.75092-2.3001 0.54821-1.8191 0.49364-2.0989 0.23658-1.597-0.048756-0.69861 0.78889-0.14348 0.003133 0.51351 0.3504 1.0008 0.64305 1.2566 0.91783 1.3383 1.2456 1.3662 1.4689 1.2863 1.6204 1.2051 1.7155 1.134 3.5626 2.1101 7.0854 3.9713 1.6941 1.0223 2.575 1.7212 2.452 1.9345 4.86 4.2477 2.9137 2.3806 2.4273 1.7606 5.5487 3.6971 1.9778 1.3958 2.1454 1.6835 2.0272 1.8532 1.7282 1.8708 0.90656 1.136 0.84263 1.1825 1.0073 1.6281 0.85163 1.6303 0.69028 1.5212 1.4672 3.5024 0.76988 1.6347 1.1922 2.2003 0.82239 1.2212 0.92308 1.1274 6.068 6.1913 2.0917 2.2404" stroke="#bdc660"/>
    </defs>
    <g clip-path="url(#p31d41f8fdf)">
     <use y="280.512" fill="#bdc660" stroke="#bdc660" xlink:href="#m240012d5a4"/>
    </g>
   </g>
  </g>
 </g>
 <defs>
  <clipPath id="p31d41f8fdf">
   <rect x="7.2" y="7.2" width="159.17" height="266.11"/>
  </clipPath>
 </defs>
</svg>
