<?xml version="1.0" encoding="UTF-8"?>
<!DOCTYPE svg  PUBLIC '-//W3C//DTD SVG 1.1//EN'  'http://www.w3.org/Graphics/SVG/1.1/DTD/svg11.dtd'>
<svg width="224.22pt" height="280.51pt" version="1.1" viewBox="0 0 224.22 280.51" xmlns="http://www.w3.org/2000/svg" xmlns:xlink="http://www.w3.org/1999/xlink">
 <metadata>
  <rdf:RDF xmlns:cc="http://creativecommons.org/ns#" xmlns:dc="http://purl.org/dc/elements/1.1/" xmlns:rdf="http://www.w3.org/1999/02/22-rdf-syntax-ns#">
   <cc:Work>
    <dc:type rdf:resource="http://purl.org/dc/dcmitype/StillImage"/>
    <dc:date>2024-07-04T12:09:15.183548</dc:date>
    <dc:format>image/svg+xml</dc:format>
    <dc:creator>
     <cc:Agent>
      <dc:title>Matplotlib v3.7.1, https://matplotlib.org/</dc:title>
     </cc:Agent>
    </dc:creator>
   </cc:Work>
  </rdf:RDF>
 </metadata>
 <defs>
  <style type="text/css">*{stroke-linejoin: round; stroke-linecap: butt}</style>
 </defs>
 <g id="figure_1">
  <g id="patch_1">
   <path d="m0 280.51h224.22v-280.51h-224.22v280.51z" fill="none"/>
  </g>
  <g id="axes_1">
   <g id="PatchCollection_1">
    <defs>
     <path id="mf378571077" d="m175.02-118.75 0.29015 0.64288 0.33346 1.5589 0.32573 2.1175 0.2621 2.4262 0.14904 2.5599-0.010237 2.5687-0.20125 2.6584-0.25927 2.5264-0.12908 2.3735 0.19565 2.2049 0.48386 1.6249 0.7069 1.5462 2.1916 3.9619 0.65458 1.4441 0.4719 1.4989 0.26539 1.9384 0.006223 2.0072-0.2954 4.052-0.082936 1.9638 0.10707 1.866 0.41695 1.7207 0.86795 1.6125 1.2132 1.4187 0.76396 0.70714 3.1238 2.646 0.98704 0.90245 5.4254 5.2442 1.8843 1.6896 1.9299 1.5486 1.9765 1.3244 1.9768 1.0408 1.9101 0.9116 1.7216 0.95777 1.395 1.1827 0.7152 1.0618 0.46702 1.2304 0.22492 1.4548-0.017134 1.5663-0.25542 1.853-0.29288 1.313-0.47241 1.6574-0.75204 2.1035-1.1412 2.5443-1.3498 2.8035-0.75778 1.8371-1.9442 5.5916-0.72243 1.7175-0.53218 0.90563-0.96706 1.1648-0.32772 0.30077-0.55956 0.40687-0.82843 0.40547-0.91022 0.27268-1.2728 0.17135-1.5203 0.057721-2.0931-0.079948-1.6427-0.14598-6.1246-0.96202-4.1659-0.39296-2.1388-0.28323-2.4092-0.52178-7.1573-2.0416-3.2906-0.82823-1.4327-0.28614-1.6848-0.25279-1.4014-0.12176-1.9628 0.006894-1.5344 0.1942-0.95391 0.22917-0.33576 0.10439-1.9552 0.88889-1.6863 1.19-1.345 1.3169-0.8899 1.2284-0.23286 0.52849-0.040368 0.23936 0.037978 0.18821-0.065605 0.044239-0.56673-0.44712-2.4721-2.3727-1.2545-1.023-0.41383-0.24865-0.41433-0.17814-0.4172-0.086924-0.41273 0.018256-0.41729 0.10054-0.84723 0.3578-2.0248 1.081-1.2642 0.59608-3.2344 1.2541-3.0057 0.98466-7.7113 2.3075-0.14902-0.26766-1.1039-1.5205-5.9005-7.6324-2.5278-3.1918-1.1593-1.6228-0.57258-1.0068-0.41159-1.0445-0.20779-1.1218-0.1543-2.2495-0.20697-1.1082-0.35282-0.9233-0.49279-0.91772-0.4795-0.75472-0.53033-0.75946-1.3422-1.7442-1.6581-1.8911-1.1811-1.1521-1.1242-0.9465-0.72597-0.53322-0.75456-0.49224-1.2049-0.66308-1.5613-0.66172-1.1862-0.37414-1.0053-0.24472-2.4862-0.39616-2.4475-0.19786-3.189-0.10483-3.4514-0.040317-5.9646 0.058057-3.15-0.026568-1.8878-0.14334-0.97077-0.17876-0.86184-0.29786-0.37579-0.20735-0.60153-0.52456-0.39895-0.60023-0.19059-0.57019 0.046535-0.42683 0.12027-0.062082-0.11826-0.74702-0.51308-1.3164-0.70383-1.535-0.71606-1.7944-0.46343-1.6872-0.39378-2.3841-0.17514-2.2737-0.00252-2.9656 0.12321-1.9603 0.21548-1.9574 0.29926-1.9362 0.32454-1.7188 0.7971-3.5765 0.85132-3.2687 0.77199-2.6509 0.65707-2.0557 0.49262-1.3678 1.6193-3.5651 0.85529-1.9988 0.59317-1.7174 0.39732-1.7149 0.16131-1.6478 0.023636-3.7596-0.18571-2.0918-0.25444-1.2145-0.24618-0.82857-0.82896-1.9295-0.66975-1.0505-0.80131-1.0154-1.4634-1.5501-1.1602-1.0981-7.6685-6.6817-2.5977-2.4549-1.5053-1.3483-1.4397-1.0278-1.4447-0.80605-2.529-1.1624-1.3781-0.80333-0.84579-0.71203-0.28063-0.32556-0.4161-0.66463-0.4668-1.6441-0.070993-1.9797 0.21289-2.2227 0.40617-2.3915 1.6664-7.6269 0.49301-2.5392 0.34959-2.4645 0.12325-2.3412-0.15183-1.7791-0.45228-1.6175-0.72721-1.5828-0.95023-1.5508-0.9466-1.2867-1.0577-1.2614-1.499-1.5745-1.6429-1.51-1.3987-1.1397-1.3039-0.96343-1.7684-1.2031-1.8273-1.1656-6.9548-4.2651-3.3169-2.1982-2.066-1.4862-1.5754-1.2007-2.8595-2.3531-1.2952-1.1614-1.2168-1.1739-1.7355-1.9001-1.4031-1.9194-0.88535-1.7357-0.21643-0.64939-0.15885-0.76246-0.045673-0.62711 0.018237-0.52823 0.39751-1.8632 0.75525-1.7955 0.931-1.6179 0.70335-1.0261 0.77858-1.0095 1.3658-1.538 1.1279-1.1025 1.7366-1.479 1.0967-0.82123 5.0516-3.2324 4.8207-3.2049 7.8289-5.448 7.5907-5.4566 4.9751-3.6846 4.4265-3.4038 1.7217-1.4043 1.125-1.0181 0.25174-0.3874 0.49822-0.30769 0.89325-0.93297 2.2926-2.7351 0.96513-1.2884 0.9568-1.4081 1.1069-1.8412 1.6343-3.1999 2.2728-5.2125 0.96144-2.0822 1.0263-1.9905 0.98953-1.6752 0.81566-1.1986 0.65324-0.84024 1.0101-1.0867 0.78611-0.6678 0.57279-0.39012 1.0488-0.51117 1.4526-0.3289 1.5589-0.01707 1.3653 0.17919 1.4096 0.32152 1.8371 0.57008 1.6909 0.63092 2.2586 0.9458 6.7122 2.9904 1.5878 0.64259 2.1151 0.76375 1.793 0.5523 1.2761 0.3327 2.5656 0.4977 1.0383 0.12998 1.6684 0.108 2.9536-0.14088 2.3925-0.27588 2.2871-0.17904 2.1671 0.15275 1.764 0.55536 1.6271 0.91418 1.4546 1.2078 1.2347 1.4544 0.89748 1.4754 1.6753 3.4628 0.8076 1.9745 0.61774 1.925 0.50868 1.9908 0.42822 2.0163 0.69562 4.0198 0.2096 1.9423 0.013376 1.8455-0.11724 1.0634-0.13927 0.75078-0.50523 1.7118-0.60561 1.4641-0.8025 1.3256-0.79564 0.89218-1.3453 1.1325-1.2033 0.83372-2.8373 1.8083-0.63279 0.48463-0.66995 0.62817-0.42189 0.5166-0.53265 0.97597-0.23691 0.68471-0.23416 1.0915-0.11395 1.3638 0.03395 0.75945 0.048248 0.3762 0.46362 1.6422 0.77204 1.5915 0.95088 1.4929 0.96086 1.3358 0.66558 1.0171 0.83904 1.495 0.61172 1.5517 0.20825 1.5941-0.33565 1.6306-0.25405 0.62287-0.70774 1.3464-0.89917 1.4-1.9111 2.5601-1.86 2.2499-2.1841 2.4078-0.98166 0.98796-1.744 1.6231-4.2298 3.7366-1.1394 1.2898-0.44602 0.81094-0.3421 1.235-0.12002 1.3155-0.12086 2.7534-0.20997 1.2999-0.49707 2.1366-0.2483 0.83203-0.52823 1.2419-0.61899 1.0975-1.1428 1.6939-0.16132 0.34926-0.095976 0.45651 0.096463 0.87762 0.38778 0.95831 0.80572 1.3117 0.70675 0.93791 0.81798 0.95552 1.0865 1.1136 1.2972 1.1487 2.568 2.0642 1.6809 1.263 1.7177 1.1508 3.8516 2.1912 4.3111 2.1293 2.5896 1.3914 1.3992 0.94635 1.2888 1.0631 1.6391 1.5671 1.5346 1.3466 2.0557 1.4987 1.5067 0.82963 1.5952 0.58461 1.9429 0.32884 2.0475 0.15735 2.166 0.2558 1.366 0.30697 1.0719 0.3236 1.5358 0.57122 1.6435 0.725 1.5282 0.75727 2.2058 1.2066 3.3287 2.0764 1.9442 1.3635 2.128 1.6062 4.5019 3.6769 7.1035 6.115" stroke="#bdc660"/>
    </defs>
    <g clip-path="url(#p224e7bc667)">
     <use y="280.512" fill="#bdc660" stroke="#bdc660" xlink:href="#mf378571077"/>
    </g>
   </g>
  </g>
 </g>
 <defs>
  <clipPath id="p224e7bc667">
   <rect x="7.2" y="7.2" width="209.82" height="266.11"/>
  </clipPath>
 </defs>
</svg>
