<?xml version="1.0" encoding="UTF-8"?>
<!DOCTYPE svg  PUBLIC '-//W3C//DTD SVG 1.1//EN'  'http://www.w3.org/Graphics/SVG/1.1/DTD/svg11.dtd'>
<svg width="264.83pt" height="280.51pt" version="1.1" viewBox="0 0 264.83 280.51" xmlns="http://www.w3.org/2000/svg" xmlns:xlink="http://www.w3.org/1999/xlink">
 <metadata>
  <rdf:RDF xmlns:cc="http://creativecommons.org/ns#" xmlns:dc="http://purl.org/dc/elements/1.1/" xmlns:rdf="http://www.w3.org/1999/02/22-rdf-syntax-ns#">
   <cc:Work>
    <dc:type rdf:resource="http://purl.org/dc/dcmitype/StillImage"/>
    <dc:date>2024-07-04T12:09:32.339159</dc:date>
    <dc:format>image/svg+xml</dc:format>
    <dc:creator>
     <cc:Agent>
      <dc:title>Matplotlib v3.7.1, https://matplotlib.org/</dc:title>
     </cc:Agent>
    </dc:creator>
   </cc:Work>
  </rdf:RDF>
 </metadata>
 <defs>
  <style type="text/css">*{stroke-linejoin: round; stroke-linecap: butt}</style>
 </defs>
 <g id="figure_1">
  <g id="patch_1">
   <path d="m0 280.51h264.83v-280.51h-264.83v280.51z" fill="none"/>
  </g>
  <g id="axes_1">
   <g id="PatchCollection_1">
    <defs>
     <path id="m521d8a7018" d="m167.27-247.06 0.085661-0.11522 0.2385-0.14298 0.76509-0.31137 1.2568-0.34729 1.093-0.20625 1.0629-0.11251 0.56698-0.024953 1.3098 0.023219 0.79516 0.065685 1.5042 0.23208 7.2699 1.5609 1.2742 0.25921 1.2406 0.20098 1.2005 0.11285 2.7245 0.039693 0.84712 0.055025 1.0178 0.14012 0.87034 0.18616 0.7094 0.19399 1.1121 0.37285 1.0084 0.40496 1.2045 0.56319 0.79948 0.42316 0.77168 0.45087 0.89297 0.58558 0.82751 0.62474 2.0231 1.739 3.191 2.5054 0.86445 0.73652 0.76583 0.77586 0.57147 0.7239 1.0871 1.4738 0.60874 0.66244 0.94941 0.84611 0.46882 0.36521 2.4071 1.7481 2.2264 1.5388 2.2747 1.4129 1.5855 0.89486 3.9177 2.1003 2.5229 1.3886 1.7198 1.0083 1.1594 0.72463 0.68538 0.45801 0.31746 0.26685-0.1204 0.16016-0.22502 0.49616-0.28495 0.79243-0.1294 0.46645-0.16575 0.85779-0.069994 0.92116 0.098466 1.3595 0.60257 3.2752 0.1511 1.309-0.015302 1.2821-0.22226 1.1446-0.3635 1.1254-0.82014 2.2398-1.2415 4.2654-0.73724 3.245-0.19558 1.5722-0.067772 0.97989 0.033806 0.96305 0.14923 0.78724 0.18408 0.61444 0.44977 1.0921 0.56514 1.0333 0.6488 0.93509 2.0889 2.4611 0.87276 1.226 0.52054 0.67139 0.3805 0.39112 0.51189 0.43952 4.504 3.4517 2.1865 1.7634 1.4859 1.2831 0.49315 0.48611 0.62397 0.7079 1.8136 2.3066 1.0721 1.4465 0.44715 0.71324 0.60589 1.166 0.50057 1.2055 0.39848 1.212 0.29176 1.1856 0.089084 0.49899 0.075345 0.7396-0.005238 0.72157-0.058376 0.51162-0.22459 0.93657-0.40603 0.87093-0.6124 0.77069-0.79393 0.69251-0.93612 0.6278-1.0461 0.57355-1.3396 0.61847-1.419 0.56913-2.9594 1.0348-5.2992 1.7093-1.2628 0.50294-0.91045 0.42247-0.89038 0.45904-0.84415 0.4788-1.2815 0.83344-0.71284 0.55027-0.84162 0.78698-0.64244 0.75444-1.2536 1.6727-0.82218 1.1836-0.66887 1.127-0.42344 0.89192-0.22725 0.62974-0.17988 0.75606-0.072444 0.75797 0.012821 0.76684 0.14833 1.1484 0.334 1.1392 0.37864 0.89429 0.62216 1.1761 0.43687 0.7254 1.8776 2.8539 0.50726 0.71635 0.7627 0.95241 1.2847 1.3906 4.9414 4.9648 1.1412 1.2396 0.96898 1.1667 0.69216 1.0186 0.20042 0.40664 0.086633 0.26494-0.08522 0.32317-0.14532 0.028741-0.37303 0.17721-0.82689 0.45452-2.0368 1.2333-3.0242 1.9777-3.1118 2.1799-1.5177 1.1256-1.4696 1.142-1.4085 1.1581-3.8033 3.386-1.202 1.0289-1.3241 1.0237-1.2498 0.81467-0.73421 0.39004-0.73343 0.31282-1.0552 0.31588-1.4463 0.30852-1.1379 0.28789-0.45296 0.16112-0.83022 0.39953-1.0255 0.65768-2.8621 2.2483-0.68158 0.47233-0.44115 0.26667-0.70987 0.35333-0.91422 0.32044-0.97333 0.22338-0.92424 0.13189-0.87336 0.067875-0.86368 0.02238-0.9599-0.016466-1.493-0.089755-2.2084-0.2444-1.2367-0.19455-1.3769-0.26884-1.9168-0.46917-2.092-0.61543-5.5353-1.7449-2.2943-0.63519-1.0577-0.24028-1.2809-0.24178-1.0513-0.15693-1.2748-0.13778-1.0485-0.062849-1.551 0.003527-0.8251 0.058465-0.80122 0.10282-0.71894 0.13838-0.86268 0.23511-1.2792 0.53208-1.068 0.7121-0.78768 0.89944-0.44564 1.0551-0.20153 1.1854-0.044218 1.259 0.03814 0.96857 0.1786 1.3335 0.38773 1.9721 0.21512 1.4042 0.1157 1.4158-0.004156 1.372-0.1526 1.2688-0.34004 1.0984-0.19741 0.3763-0.36758 0.52503-0.46276 0.47727-0.40609 0.31447-0.5104 0.33277-0.71407 0.38652-0.56337 0.21804-0.76553 0.24817-0.7849 0.33132-1.1636 0.67744-0.77008 0.55652-0.32235 0.28287-0.5229 0.55057-1.0353 1.3119-0.43008 0.50097-0.57225 0.53226-0.59254 0.42338-0.72542 0.41416-1.0333 0.47147-0.99458 0.38012-1.9654 0.63949-0.72919 0.30177-0.71918 0.46946-0.29996 0.28936-0.21452 0.25036-0.34129 0.47893-0.3435 0.58737-0.78082 1.5561-0.44544 0.98174-0.46004 1.1429-0.42789 1.1889-0.76607 2.4287-0.3081 1.1412-0.14189 0.62087-0.18508 1.1156-0.080341 0.86648-0.02488 1.0579 0.061525 1.2393 0.10074 0.92741 0.3673 2.1369 1.1449 5.8102 0.66311 3.7722 0.49835 3.5229 0.19236 1.9916 0.10157 1.7357 0.031136 1.5056-0.022933 1.3478-0.15577 3.6977-0.070826 3.2694 0.12522 8.5089-0.031776 2.219-0.081417 1.3637-0.1731 0.033803-2.6327 0.85144-1.6784 0.50672-1.6839 0.44392-0.82722 0.17886-0.8133 0.13731-0.7974 0.08305-0.77957 0.012471-0.69756-0.062915-0.67846-0.12717-0.65633-0.18308-0.62988-0.2348-0.5975-0.28629-0.55721-0.34132-0.50664-0.4037-0.50516-0.53977-0.44635-0.60564-0.40596-0.64796-1.4789-2.639-0.385-0.57632-0.41127-0.49416-0.44951-0.37643-0.48905-0.22412-0.50587-0.08004-0.48817 0.059098-0.43391 0.20507-0.18963 0.16523-0.27695 0.36077-0.31596 0.60111-0.44036 1.0288-0.239 0.47719-0.28218 0.4004-0.35198 0.2774-0.31014 0.0989-0.35287 0.017264-0.52932-0.09025-0.5775-0.1995-1.0111-0.5074-0.67391-0.41369-1.2561-0.88434-1.0477-0.83135-0.78724-0.68389-0.021086-0.18662-0.22947-0.39233-0.58068-0.79995-0.93995-1.158-4.2673-4.7898-1.0027-1.2033-0.83917-1.087-0.67869-0.95249-0.97003-1.4981-0.65335-1.1082-0.61407-1.1208-0.6296-1.2356-0.6262-1.3192-0.67228-1.5097-2.0515-4.955-1.2794-3.3293-0.83664-2.5258-0.48097-1.7565-0.40783-1.8965-0.25367-1.7304-0.089429-1.1342-0.013073-1.1195 0.071212-1.0411 0.16868-1.0211 0.47202-1.5368 0.67669-1.4933 0.82189-1.461 0.92003-1.437 0.98003-1.4192 2.9886-4.1875 0.91278-1.379 0.81434-1.3719 0.67215-1.3647 0.40144-1.0694 0.39652-1.4391 0.16915-0.77579 0.16975-1.3509 0.015846-1.4288-0.1021-1.487-0.17812-1.5291-0.44508-3.1325-0.32065-2.671-0.17809-2.7852-0.10104-3.5509-0.078565-1.1066-0.136-1.0734-0.30515-1.3552-0.2906-0.81227-0.38605-0.75078-0.79584-1.0092-1.0017-0.8756-1.1512-0.7721-1.2545-0.69082-1.3197-0.62485-1.3526-0.56802-1.357-0.5146-1.3354-0.45901-1.1261-0.33729-0.72608-0.16424-0.62956-0.09155-0.96929-0.0353-0.99001 0.063954-0.96415 0.12296-3.2111 0.50614-0.89536 0.095006-0.90611 0.047197-1.5437-0.053425-1.5662-0.19114-1.5811-0.29054-1.5892-0.35648-4.7509-1.1638-1.5528-0.31601-1.5207-0.21924-1.4744-0.075317-1.4098 0.12679-0.76038 0.18478-0.71856 0.2643-0.68148 0.34209-0.55052 0.35357-0.62297 0.50434-0.56554 0.58151-0.53242 0.69214-0.64595 1.0622-0.64303 1.3381-0.60423 1.5326-1.3136 3.6943-1.3492 3.4829-0.80149 1.8514-0.80495 1.5663-0.74726 1.2392-0.60569 0.89666-0.71525 0.9468-0.75954 0.84056-0.53277 0.45939-0.67428 0.41514-0.45987 0.17743-0.65736 0.11344-0.91197-0.084868-0.65321-0.19502-0.6641-0.28451-1.1828-0.66136-3.3514-2.2325-1.0447-0.60774-1.113-0.53927-1.3655-0.50913-1.396-0.36489-1.3872-0.22559-0.96475-0.082637-1.3005-0.022447-1.5042 0.069031-2.9283 0.22316-1.2924 0.048239-1.0932-0.024441-0.6858-0.059581-0.98514-0.1607-0.97108-0.26172-0.80666-0.31608-0.60439-0.31044-0.85429-0.56992-0.80278-0.68454-0.71143-0.73172-0.67482-0.80753-0.65245-0.89175-0.61713-0.95084-0.97289-1.7408-0.79872-1.7155-0.77588-2.023-1.4516-4.344-0.20047-0.52139-0.17828-0.25697-0.10572-0.36569-0.10451-0.85544-0.069166-1.8208-0.17818-3.1852-0.041439-1.7518 0.072324-1.7202 0.18886-1.697 0.26724-1.5271 0.27794-1.2262 0.52-1.8449 0.49435-1.4426 0.39886-1.0202 0.46955-1.0806 0.61592-1.267 0.44186-0.8241 0.8278-1.4074 1.4267-2.1675 1.145-1.5787 1.2897-1.6522 4.0962-4.9025 1.0186-1.2689 0.94623-1.2697 0.80448-1.2136 0.67734-1.2228 0.50879-1.2358 0.28824-1.2536 0.046133-0.83024-0.053004-0.83762-0.1995-1.1601-0.24842-0.96277-0.28733-0.90954-0.39811-1.0505-1.6127-3.6201-0.4774-1.1139-0.32428-0.88756-0.21992-0.789-0.17265-0.91857-0.084931-0.80099-0.022218-0.70908 0.023292-0.765 0.095206-1.1098 0.41846-3.1056 0.14025-1.5099 0.044802-1.8046-0.008368-1.1361-0.080563-1.8477-0.09186-1.0491-0.33403-2.9351-0.09975-1.2904-0.051193-1.1548-0.00682-1.1882 0.042864-1.063 0.10227-1.222 0.24087-2.1564 0.25495-1.4882 0.37248-1.5949 0.8482-3.186 0.22672-1.0606 0.16996-1.0055 0.21345-1.6 0.46879-3.8565 0.26081-1.6491 0.46856-2.1504 0.44453-1.5755 0.5256-1.5307 0.33716-0.84263 0.54778-1.1618 0.639-1.1133 0.95447-1.3112 1.1659-1.2076 1.6568-1.3654 1.821-1.2799 1.3799-0.86413 1.1268-0.65745 3.3123-1.8468 1.5685-0.92341 1.7332-1.1346 0.5711-0.42338 0.97883-0.83346 0.48756-0.48348 0.49625-0.54861 0.54761-0.68726 0.43672-0.63536 0.3445-0.60303 0.22664-0.54716 0.05376-0.34122-0.078933-0.17728 1.9831 2.0382 1.2489 1.1407 0.98997 0.81226 0.88076 0.65449 0.7962 0.53394 0.95134 0.56126 0.73161 0.36888 1.6735 0.63362 1.3499 0.33673 1.2289 0.19884 1.0106 0.098038 0.98308 0.043127 1.1969-0.012781 1.4608-0.10615 0.93637-0.11819 1.2814-0.22419 1.8472-0.44843 0.88348-0.26773 0.93185-0.32444 1.4512-0.61136 0.72324-0.36833 0.53001-0.30732 0.57859-0.38614 0.47886-0.37906 0.73134-0.73771 1.0459-1.2234 0.36977-0.36459 0.44778-0.3557 0.64667-0.39437 0.8562-0.38387 2.075-0.71846 1.1787-0.47405 1.1138-0.48669 2.5734-1.2174 1.1127-0.49661 1.122-0.46926 2.8031-1.0501 1.8254-0.7319 1.8898-0.80975 1.2802-0.64444 0.54252-0.29914 0.69852-0.43533 0.90434-0.68028 1.4448-1.2983 1.6393-1.5921 0.66937-0.7067 0.64361-0.82408 0.51152-0.88182 0.35941-0.97407 0.12958-0.74938-0.019486-0.86308-0.1671-0.87026-0.34606-1.0711-0.86331-2.0959-0.55767-1.6095-0.35918-1.3051-0.64317-2.5521-0.62721-2.1315 0.28077-0.082641 0.54417-0.057478 0.70648-0.004498 1.41 0.14028 1.8547 0.25105 1.1478 0.26844 1.1105 0.46158 0.57831 0.32026 0.69725 0.50163 0.34427 0.3079 0.3494 0.3803 0.32488 0.47754 0.30485 0.65423 0.50452 1.4656 0.5163 1.2785 0.46253 0.97654 0.42766 0.8133 0.71431 1.2017 0.88017 1.2649 1.4016 1.677 2.3268 2.5897 0.89423 0.74158 0.81853 0.44575 0.76453 0.2208 0.88682 0.042147 0.9382-0.11484 3.1002-0.6949 1.1325-0.15492 1.0318-0.028165 0.80208 0.043834 0.83378 0.095262 1.0085 0.17952 1.3618 0.3648 1.1376 0.43752 1.1806 0.60451 2.17 1.2912 1.2138 0.56622 0.93512 0.28048 2.915 0.60128 0.87922 0.24996 1.2111 0.43039 0.64539 0.26186 2.7621 1.1957 1.1827 0.4345 1.1364 0.32319 1.219 0.22491 1.0463 0.075932 0.94258-0.038428 0.97223-0.16133 1.3615-0.45717 1.2973-0.66458 1.224-0.80556 1.0027-0.79715 1.0674-1.0931 0.75994-1.0486 0.53425-1.0979 0.35588-1.1176 0.19681-1.035 0.037069-0.49451-0.037607-0.17849" stroke="#bdc660"/>
    </defs>
    <g clip-path="url(#pe7eff55bdc)">
     <use y="280.512" fill="#bdc660" stroke="#bdc660" xlink:href="#m521d8a7018"/>
    </g>
   </g>
  </g>
 </g>
 <defs>
  <clipPath id="pe7eff55bdc">
   <rect x="7.2" y="7.2" width="250.43" height="266.11"/>
  </clipPath>
 </defs>
</svg>
