<?xml version="1.0" encoding="UTF-8"?>
<!DOCTYPE svg  PUBLIC '-//W3C//DTD SVG 1.1//EN'  'http://www.w3.org/Graphics/SVG/1.1/DTD/svg11.dtd'>
<svg width="104.3pt" height="280.51pt" version="1.1" viewBox="0 0 104.3 280.51" xmlns="http://www.w3.org/2000/svg" xmlns:xlink="http://www.w3.org/1999/xlink">
 <metadata>
  <rdf:RDF xmlns:cc="http://creativecommons.org/ns#" xmlns:dc="http://purl.org/dc/elements/1.1/" xmlns:rdf="http://www.w3.org/1999/02/22-rdf-syntax-ns#">
   <cc:Work>
    <dc:type rdf:resource="http://purl.org/dc/dcmitype/StillImage"/>
    <dc:date>2024-07-04T12:09:20.011446</dc:date>
    <dc:format>image/svg+xml</dc:format>
    <dc:creator>
     <cc:Agent>
      <dc:title>Matplotlib v3.7.1, https://matplotlib.org/</dc:title>
     </cc:Agent>
    </dc:creator>
   </cc:Work>
  </rdf:RDF>
 </metadata>
 <defs>
  <style type="text/css">*{stroke-linejoin: round; stroke-linecap: butt}</style>
 </defs>
 <g id="figure_1">
  <g id="patch_1">
   <path d="m-0 280.51h104.3v-280.51h-104.3v280.51z" fill="none"/>
  </g>
  <g id="axes_1">
   <g id="PatchCollection_1">
    <defs>
     <path id="m1d6f1f33a0" d="m46.725-167.42-0.030197 0.047852 0.025318 0.32628 0.12441 0.38888 0.20425 0.46039 0.34874 0.61243 0.44622 0.61721 0.49199 0.54937 1.875 1.8426 2.274 2.3722 0.76624 0.71306 0.49511 0.41192 1.0722 0.81406 0.60304 0.38683 0.81617 0.38498 0.5853 0.19937 0.58796 0.15486 1.6448 0.37425 1.8988 0.58689 1.0143 0.287 0.60574 0.14079 0.82452 0.14326 0.8277 0.094382 0.81745 0.050975 2.2836 0.079865 3.1618 0.23378 0.93494 0.14476 0.96879 0.22975 0.98004 0.30589 1.2432 0.46807 1.9282 0.79776 2.8812 1.2557 0.79591 0.30222 0.66965 0.21451 0.67246 0.17042 2.0074 0.3696 1.608 0.38111 1.565 0.44845 1.2615 0.40186 0.34158 0.1328 0.47772 0.23485 0.42013 0.27337 0.44916 0.39067 0.80238 0.81158-0.047911 0.12422 0.0056 0.33927 0.19474 1.3103 0.19526 2.1251 0.13722 0.96978 0.27567 1.3227 0.29673 1.1775 0.28188 0.95375 0.63944 1.8968 0.25836 0.92747 0.091273 0.45174 0.10536 0.75458 0.078991 1.217-0.022561 0.76457-0.059553 0.72778-0.098338 0.80517-0.12815 0.72939-0.27966 1.0698-0.76539 2.4582-0.22497 0.86457-0.58969 2.5032-0.49091 2.3028-0.59001 2.4293-0.28535 1.3936-0.083836 0.73739-0.005286 0.43103 0.033091 0.56147 0.26404 2.337 0.13259 2.537 0.175 1.3472 0.15959 0.76421 0.21858 0.7517 1.1866 3.1897 0.051667 0.25321 0.01129 0.20037-0.049976 0.33876-0.1275 0.2599-0.15509 0.16846-0.13447 0.088973-0.24195 0.082173-0.55222-0.034323-0.60683-0.28933-0.33813-0.27849-0.25474-0.26205-1.445-1.8106-0.5299-0.61216-0.49629-0.51188-0.74448-0.67911-0.86498-0.66179-0.80512-0.51885-1.0088-0.55513-0.7053-0.33076-0.70133-0.27964-0.69917-0.22249-0.67702-0.14823-0.92533-0.051419-0.56196 0.09853-0.27168 0.1013-0.2314 0.12301-0.33474 0.24853-0.17176 0.16536-0.3034 0.36929-0.19764 0.30497-0.2032 0.38109-0.19497 0.44771-0.2958 0.90526-0.10969 0.44798-0.15347 0.85751-0.091824 1.0596-0.005503 0.39338 0.030731 0.71277 0.076312 0.72949 0.11085 0.74784 0.64726 3.6915 0.19117 1.5036 0.11804 1.3311 0.10571 1.8026 0.015893 1.4459-0.076225 1.21-0.1163 0.81376-0.091822 0.44681-0.2669 0.9578-0.53369 1.4158-0.51975 1.1436-0.77504 1.5279-1.3953 2.5224-3.6509 6.1501-0.62266 1.1068-0.11204-0.041443-0.10984 0.058097-0.086182 0.095558-0.12614 0.19814-0.24559 0.53357-0.46366 1.3667-0.66559 2.4637-0.70196 3.0043-0.54385 2.6775-1.0039 6.1303-0.55396 2.8119-0.33056 1.4766-0.40331 1.5764-0.25284 0.8122-0.20893 0.56153-0.2358 0.52495-0.40199 0.67878-0.57742 0.67173-1.4637 1.339-1.455 1.5064-1.0652 1.1583-0.52492 0.60685-0.80559 1.0549-0.81374 1.2365-0.69127 1.1745-0.95578 1.8701-1.2341 2.6246-0.35911 0.70548-0.62137 1.0929-0.94776 1.5111-0.4098 0.59888-0.50982 0.68409-1.6617 2.0305-0.84992 0.92428-1.9471 1.8694-0.76596 0.78244-0.50681 0.58113-0.47306 0.60898-0.51326 0.7325-0.68959 1.0837-1.3239 2.2983-1.0015 1.9691-0.39162 0.89748-0.10809 0.36312-0.087654 0.0288-0.2489-0.089624-0.26657-0.17645-0.22802-0.19978-0.28065-0.3068-1.1071-1.4258-2.2366-2.6745-0.52583-0.58743-0.36958-0.37844-0.32663-0.28581-0.28714-0.18868-0.49341-0.21823-1.5745-0.53414-0.48236-0.22632-0.87714-0.58978-0.79692-0.62882-0.35581-0.34871-0.29863-0.3768-0.24312-0.43585-0.66281-1.4674-0.22469-0.44126-0.34276-0.46968-0.98824-1.136-0.71374-0.95121-0.29326-0.46381-0.7124-1.2828-0.78918-1.2263-0.25281-0.45052-0.17654-0.46083-0.074161-0.4999 0.013017-0.46366 0.23607-1.9016 0.18017-1.1547 5.971-3.0955 1.0036-0.62179 0.51439-0.36818 0.73722-0.57891 0.7114-0.61755 0.97951-0.93107 0.7404-0.77504 0.63925-0.75879 0.50464-0.70188 0.36965-0.5836 1.1791-2.1683 0.12217-0.10546 0.21954-0.32851 0.2781-0.49237 0.39177-0.80611 0.34694-0.83127 0.36782-1.0192 0.37686-1.1981 0.57343-2.122 0.2551-1.0639 0.45422-2.1032 0.36323-2.016 0.26009-2.032 0.20906-2.7691 0.079986-0.72959 0.18346-0.98072 0.27959-0.91948 0.43452-1.0302 0.42754-0.83535 0.93998-1.5841 1.4546-2.2876 0.44278-0.73789 0.77581-1.4055 0.77911-1.629 0.80989-1.9729 0.65575-1.7886 0.65046-1.9717 1.2612-4.1212 0.731-2.0385 0.56584-1.3559 0.63112-1.3497 0.63812-1.2497 1.2737-2.3812 0.79665-1.6318 0.35293-0.86061 0.25518-0.76348 0.16489-0.75618-0.031355-0.18553-0.002167-0.07899 0.80045-4.3444 0.38625-2.5269 0.16557-1.3063 0.13275-1.2936 0.099994-1.4737 0.02566-1.3103-0.024929-0.9131-0.065365-0.87709-0.19461-1.2801-0.29622-1.0615-0.35884-0.80063-0.3149-0.48917-0.4698-0.51688-0.749-0.52398-0.67257-0.31237-0.73312-0.24834-0.78657-0.20117-0.82265-0.16553-1.1817-0.19359-2.8883-0.43981-1.7762-0.35902-0.77452-0.20295-0.81193-0.2603-0.67619-0.27031-0.62669-0.3147-0.72268-0.48763-0.59499-0.59509-0.36583-0.55802-0.28809-0.63445-0.22338-0.69278-0.16342-0.68689-0.13186-0.72134-0.20872-1.5793-0.52669-5.5896-0.16436-1.3738-0.20008-1.3457-0.2189-1.1588-0.27073-1.1083-0.33876-1.0399-0.40925-0.91594-0.51266-0.80762-0.58386-0.63825-0.66351-0.54822-0.7134-0.48407-1.3838-0.80708-1.108-0.52356-0.8279-0.3474-0.58766-0.2093-1.6095-0.46164-3.7574-0.85745-1.2176-0.3476-0.85528-0.28777-0.83298-0.33122-0.81523-0.3852-1.137-0.60528-3.3733-2.05-0.85462-0.5965-0.43689-0.35051-1.4355-1.3046-0.88007-0.71708-0.49288-0.33592-0.69012-0.38545-0.38804-0.17443-0.41168-0.14974-0.49631-0.13059-0.45356-0.081624-0.44672-0.047102-0.39551 0.03522-0.17758 0.082555-0.085274 0.09296-0.028564 0.095476-0.17442-0.091996-0.14919-0.29286-0.085063-0.45511-0.004417-0.50897 0.13925-0.87534 0.29114-0.96986 0.3399-0.86856 0.40081-0.88446 1.6684-3.2692 0.49292-1.2237 0.38162-1.2219 0.28039-1.1863 0.18605-1.1173 0.14814-1.2667 0.16253-1.0193 0.2645-1.0206 0.2508-0.65901 0.40022-0.86181 0.64981-1.2648 0.8912-1.5733 0.42019-0.86168 0.37737-0.9261 0.24526-0.70898 0.29033-1.0241 0.21729-1.0546 0.12234-0.94004 0.045639-0.54346 0.042812-1.0033-0.040506-3.5617 0.08441-1.0125 0.082066-0.44827 0.16413-0.64037 0.19698-0.61757 0.75167-2.0516 0.20872-0.43684 0.22321-0.35234 0.18448-0.19773 0.27105-0.1451 0.31705-0.006024 0.12102 0.030566 0.35385 0.16654 0.24872 0.16842 1.7424 1.4609 0.57996 0.4465 0.84378 0.55269 0.73695 0.38101 0.38331 0.15715 0.66384 0.181 0.66725 0.052808 0.65233-0.099445 0.55107-0.22903 0.6576-0.44406 0.58373-0.53385 0.56704-0.63042 0.81442-1.0738 0.51578-0.76948 0.50343-0.81132 0.73074-1.2806 0.69258-1.3392 0.64219-1.3868 0.57807-1.4042 0.71863-1.9001 2.0164-5.799 0.74786-2.2777 0.26584-0.91944 0.23314-0.93473 0.40869-2.1138 0.15158-0.60125 0.67979-1.5889 0.31479-0.65733 0.46041-1.2014 0.25805-0.58184 1.2707-2.3694 0.34531-0.73786 0.29901-0.74843 0.34075-1.0145 0.60466-1.6367 0.79379-2.0291 0.56374-1.5918 0.32116-1.0526 0.2109-0.78412 0.34415-1.4804 0.47829-2.3836 0.97972-5.1884 0.4309-2.0287 0.64958-2.5522 0.48639-1.6906 0.11599-0.32079 0.021662-0.043644 0.094666-0.10433 0.18774-0.30088 0.18449-0.34983 0.20161-0.4598 0.16924-0.5584 0.051528-0.28383 0.042245-0.51624-0.033237-0.79383-0.24589-1.6414 0.010033-0.5008 0.10999-0.89575-0.036968-0.55092-0.17712-0.58791-0.39881-0.92371-0.24015-0.71008-0.13047-0.66873-0.044346-0.50583 0.001394-0.56398 0.10071-0.79777 0.19121-0.75911 0.36415-0.99393 0.065039-0.024816 0.38477-0.024213 0.86071 0.007735 0.96607 0.10428 0.92101 0.23258 0.95306 0.40095 0.17237 0.093181 0.61329 0.38589 0.77603 0.59418 1.0466 0.96115 0.75856 0.80092 0.72175 0.84763 0.72598 0.95671 0.65221 0.99314 0.55674 1.0278 0.41324 0.98744 0.30194 1.0104 0.17989 1.0267 0.047889 1.0741-0.081795 1.0764-0.19992 1.0697-0.40999 1.3461-0.54242 1.3221-0.63545 1.2979-1.9024 3.4228-0.46817 0.89588-0.42099 0.90357-0.43384 1.1522-0.30084 1.1713-0.1442 1.248 0.037029 1.253 0.23518 1.3229 0.3993 1.3092 0.39063 0.99277 0.43769 0.99121 2.3708 5.15 0.62934 1.3174 1.0654 2.0303 2.0241 3.5947 0.49565 0.99792 0.38008 0.8806 0.32468 0.89619 0.22932 0.7848 0.17953 0.79525 0.14571 0.9604 0.060915 0.73866 0.019838 0.74282-0.024952 0.8608-0.071791 0.86285-0.14054 1.0268-0.19331 1.0259-0.24717 1.0553-0.28568 1.0532-0.75549 2.4131-0.93384 2.6526-0.97124 2.4793-0.51191 1.1681-0.54754 1.154-0.58555 1.1381-0.96762 1.699-0.57912 0.94017-1.2212 1.8566-0.81535 1.1708-4.4935 6.2491-1.2615 1.8217-0.8882 1.3584-0.8446 1.3978-0.59567 1.0848-0.55124 1.1045-0.49924 1.1163-0.44483 1.1327-0.37626 1.1115-0.30032 1.0607-0.25492 1.1703-0.12827 0.91865-0.014036 0.38627 0.045063 0.15682" stroke="#bdc660"/>
    </defs>
    <g clip-path="url(#pb7715aa35a)">
     <use y="280.512" fill="#bdc660" stroke="#bdc660" xlink:href="#m1d6f1f33a0"/>
    </g>
   </g>
  </g>
 </g>
 <defs>
  <clipPath id="pb7715aa35a">
   <rect x="7.2" y="7.2" width="89.896" height="266.11"/>
  </clipPath>
 </defs>
</svg>
