<?xml version="1.0" encoding="UTF-8"?>
<!DOCTYPE svg  PUBLIC '-//W3C//DTD SVG 1.1//EN'  'http://www.w3.org/Graphics/SVG/1.1/DTD/svg11.dtd'>
<svg width="371.52pt" height="178.43pt" version="1.1" viewBox="0 0 371.52 178.43" xmlns="http://www.w3.org/2000/svg" xmlns:xlink="http://www.w3.org/1999/xlink">
 <metadata>
  <rdf:RDF xmlns:cc="http://creativecommons.org/ns#" xmlns:dc="http://purl.org/dc/elements/1.1/" xmlns:rdf="http://www.w3.org/1999/02/22-rdf-syntax-ns#">
   <cc:Work>
    <dc:type rdf:resource="http://purl.org/dc/dcmitype/StillImage"/>
    <dc:date>2024-07-04T12:09:20.286692</dc:date>
    <dc:format>image/svg+xml</dc:format>
    <dc:creator>
     <cc:Agent>
      <dc:title>Matplotlib v3.7.1, https://matplotlib.org/</dc:title>
     </cc:Agent>
    </dc:creator>
   </cc:Work>
  </rdf:RDF>
 </metadata>
 <defs>
  <style type="text/css">*{stroke-linejoin: round; stroke-linecap: butt}</style>
 </defs>
 <g id="figure_1">
  <g id="patch_1">
   <path d="m0 178.43h371.52v-178.43h-371.52v178.43z" fill="none"/>
  </g>
  <g id="axes_1">
   <g id="PatchCollection_1">
    <defs>
     <path id="m3c8d653528" d="m347.37-129.55 0.21316 0.29336 0.23426 0.63987 0.19106 0.85753 0.080314 0.76982-0.004463 0.92683-0.27732 4.8454-0.29659 2.68-0.22304 1.4876-0.81811 4.4426-0.92299 4.2861-0.89575 3.8362-1.7848 7.127-2.0657 10.547-0.27956 1.1252-0.76351 2.4193-0.26777 1.1437-0.56916 2.9661-0.31012 2.5395-0.068554 1.3246 0.01719 1.3515 0.095504 1.1865 0.21591 1.5993 0.25348 1.356 0.31317 1.3397 0.46214 1.6364 0.83696 2.6829 0.21526 0.77997 0.050253 0.39253-0.26196 0.18566-0.58326 0.64504-3.9086 4.7783-2.3825 2.6799-1.7522 1.8766-1.4686 1.4045-0.77241 0.66934-2.4603 1.8929-1.9908 1.3057-1.1036 0.61914-1.0568 0.50614-1.0517 0.40899-1.1966 0.33258-1.1703 0.16224-0.825-0.005905-0.79792-0.12478-0.93221-0.32123-0.90612-0.46697-3.6149-2.3699-4.1265-2.5623-3.0994-2.0125-4.8708-2.9709-2.2275-1.4443-0.79942-0.42398-0.56032-0.21634-1.0828-0.20988-0.59931 0.034641-0.61056 0.13991-0.73453 0.29328-0.73174 0.41941-0.94349 0.72721-1.0343 1.028-1.6896 2.0225-4.9405 6.5373-2.1245 2.5017-1.0252 1.0837-1.8186 1.7151-0.73401 0.61065-0.8598 0.62339-0.346 0.1074-0.13258-0.41689-0.53305-1.1003-0.84228-1.3617-0.97346-1.2129-0.81754-0.78666-0.51343-0.38576-1.5077-0.7966-0.97209-0.3749-4.5491-1.4683-1.8561-0.64112-1.505-0.68086-1.8471-1.0362-1.477-0.99194-1.7605-1.403-1.3581-1.3227-2.185-2.4498-1.2348-1.2529-2.0332-1.7044-1.9048-1.6778-0.60032-0.47941-0.63018-0.42769-0.68279-0.36758-0.61185-0.25404-0.85816-0.26076-0.91648-0.18779-1.0202-0.13315-2.1362-0.12925-2.3428-3.63e-4 -1.6635 0.10529-1.758 0.20849-1.9748 0.3489-4.9674 1.0746-2.4751 0.37344-0.95552 0.064542-1.5105-0.018477-3.1094-0.27472-1.1025-0.058113-1.1986 0.011767-1.2304 0.080148-1.4164 0.15392-3.1458 0.51684-4.9605 1.0814-3.0025 0.59895-5.5925 1.03-3.4759 0.56322-1.2108 0.24924-2.1006 0.66477-2.1267 0.92304-2.1476 1.1162-2.1642 1.2586-4.194 2.6826-4.053 2.7633-14.71 10.312-4.4159 2.975-4.4931 2.8391-3.8058 2.1739-1.9392 1.0173-1.9662 0.963-1.993 0.89948-2.0233 0.83416-2.0547 0.7638-2.1724 0.71576-2.2036 0.64804-2.2308 0.59464-4.5337 1.0706-2.64 0.56103-8.0987 1.5665-24.101 4.364-8.6347 1.6164-1.9793-2.12-5.742-5.8587-0.87349-1.0668-0.77821-1.1556-1.1281-2.0821-0.72852-1.5469-1.3884-3.3143-0.6532-1.4395-0.80588-1.5428-0.95318-1.5407-0.79736-1.119-0.85786-1.075-1.6353-1.7703-1.9183-1.7536-2.0301-1.5931-1.8716-1.3208-5.2506-3.4984-2.2969-1.666-2.7572-2.2527-4.5989-4.0195-2.3203-1.8305-2.4366-1.6288-1.6031-0.96735-6.7047-3.758-3.3712-1.9967-1.6233-1.0731-1.5334-1.1404-1.39-1.2172-1.1787-1.2928-0.86853-1.2664-0.60851-1.1891-0.33158-0.94706-0.002965-0.48593 0.081613-0.27625 0.31269-0.61848 0.4848-0.82152 0.62256-0.92505 0.79999-1.0387 0.89424-1.0415 1.941-2.0319 2.0137-1.9397 2.0122-1.8566 8.7336-7.8309 6.5373-6.0294 3.7161-3.2914 7.7353-6.6528 2.0664-1.6861 2.1626-1.656 2.2736-1.5459 2.1875-1.2461 1.9805-0.95735 0.75643-0.31348 0.52354-0.14313 0.57983 0.29076 3.1957 2.078 6.5702 4.4757 2.9931 2.1164 4.9419 3.7561 3.3379 2.2911 2.2411 1.3982 1.8164 1.0111 1.5166 0.70889 1.3726 0.49761 2.0042 0.42282 1.9438 0.018797 1.9792-0.25326 1.9943-0.35546 2.0351-0.29399 4.3092-0.21128 2.355-0.17704 2.4314-0.27736 2.4792-0.35551 2.5017-0.41841 4.9748-0.99491 2.4216-0.57509 2.3367-0.63503 2.2126-0.70838 2.0393-0.8017 1.8041-0.9225 0.4695-0.29648 1.1817-0.93857 0.85386-0.91467 0.81962-1.062 1.1651-1.7253 0.60718-0.83404 0.8125-0.99417 0.6862-0.70937 0.72176-0.57499 0.79322-0.45704 0.89911-0.34138 0.43792-0.12031 1.2392-0.22373 2.9981-0.42378 1.4311-0.39612 2.3988-0.88266 0.95591-0.43178 0.61939-0.33253 1.02-0.64061 1.1844-0.8721 3.5366-2.9607 1.6529-1.2123 1.7159-1.036 0.88013-0.43066 1.2539-0.53428 1.2662-0.426 1.2896-0.29845 2.5694-0.49916 1.3799-0.40311 3.8737-1.4826 2.1946-0.68549 1.0651-0.41028 1.0239-0.55808 0.64462-0.44091 1.4523-1.1492 2.8396-2.3981 3.5132-2.8444 1.0939-1.0154 0.58265-0.61861 0.92666-1.1242 1.4087-2.0206 0.97441-1.6781 1.0172-2.0581 0.73904-1.689 0.69948-1.7561 0.65353-1.8034 0.67894-2.0948 0.58791-2.1013 0.44684-1.9359 0.32747-1.8701 0.5056-4.6563 0.13766-0.91369 0.11526-0.31785 1.5621 0.28286 3.3356 0.71327 13.053 3.0102 3.5448 0.68074 2.4758 0.33963 4.9854 0.49012 3.8759 0.29144 1.7227 0.043733 1.7515-0.040129 1.7626-0.11465 13.298-1.2731 43.291-4.6012-0.043658 0.40044 0.1788 0.53494 0.37429 0.56312 0.56434 0.49213 0.35256 0.19453 0.80856 0.27945 0.91075 0.16771 1.7711 0.13448 2.9552 0.024925 5.5959-0.054468 3.238 0.037825 2.9919 0.098349 2.2962 0.18563 2.3325 0.37167 0.94316 0.22959 1.1128 0.35101 1.4648 0.62081 1.1304 0.62208 0.70791 0.4618 0.68109 0.50025 1.0547 0.88799 1.1081 1.0809 1.5556 1.7742 1.2592 1.6364 0.49754 0.71251 0.44986 0.70806 0.46232 0.86099 0.33101 0.86622 0.19418 1.0397 0.14476 2.1104 0.19494 1.0524 0.38615 0.97994 0.53718 0.94455 1.0877 1.5225 2.3715 2.9945 5.5357 7.1605 1.0357 1.4265 0.13981 0.25112" stroke="#bdc660"/>
    </defs>
    <g clip-path="url(#p8e21c06d10)">
     <use y="178.429851" fill="#bdc660" stroke="#bdc660" xlink:href="#m3c8d653528"/>
    </g>
   </g>
  </g>
 </g>
 <defs>
  <clipPath id="p8e21c06d10">
   <rect x="7.2" y="7.2" width="357.12" height="164.03"/>
  </clipPath>
 </defs>
</svg>
