<?xml version="1.0" encoding="UTF-8"?>
<!DOCTYPE svg  PUBLIC '-//W3C//DTD SVG 1.1//EN'  'http://www.w3.org/Graphics/SVG/1.1/DTD/svg11.dtd'>
<svg width="211.11pt" height="280.51pt" version="1.1" viewBox="0 0 211.11 280.51" xmlns="http://www.w3.org/2000/svg" xmlns:xlink="http://www.w3.org/1999/xlink">
 <metadata>
  <rdf:RDF xmlns:cc="http://creativecommons.org/ns#" xmlns:dc="http://purl.org/dc/elements/1.1/" xmlns:rdf="http://www.w3.org/1999/02/22-rdf-syntax-ns#">
   <cc:Work>
    <dc:type rdf:resource="http://purl.org/dc/dcmitype/StillImage"/>
    <dc:date>2024-07-04T12:09:19.253317</dc:date>
    <dc:format>image/svg+xml</dc:format>
    <dc:creator>
     <cc:Agent>
      <dc:title>Matplotlib v3.7.1, https://matplotlib.org/</dc:title>
     </cc:Agent>
    </dc:creator>
   </cc:Work>
  </rdf:RDF>
 </metadata>
 <defs>
  <style type="text/css">*{stroke-linejoin: round; stroke-linecap: butt}</style>
 </defs>
 <g id="figure_1">
  <g id="patch_1">
   <path d="m0 280.51h211.11v-280.51h-211.11v280.51z" fill="none"/>
  </g>
  <g id="axes_1">
   <g id="PatchCollection_1">
    <defs>
     <path id="md040256afa" d="m128.11-215.68 0.18534 0.43512 0.67689 0.95683 1.0186 1.2384 1.2888 1.3931 1.5007 1.4427 1.6742 1.4122 2.2479 1.6067 2.4084 1.4347 2.5213 1.2451 2.3119 0.94117 2.3539 0.79781 2.3794 0.66963 2.6437 0.60659 2.648 0.4941 2.6428 0.40597 4.386 0.52959 4.0337 0.37216 6.2282 0.4979 2.4803 0.25434 2.0578 0.29304 1.9449 0.39683 1.1684 0.32747 1.0979 0.40422 1.0128 0.49861 0.91592 0.61252 1.0425 1.0032 0.69436 0.93513 0.66614 1.2165 0.44508 1.092 0.39523 1.2751 0.36351 1.5675 1.1305 6.476 0.69899 3.1431 0.55953 2.1116 0.99173 3.0772 3.7234 10.533 0.86583 2.6803 0.48792 1.7312 0.35167 1.4815 0.2798 1.4368 0.27855 2.0592 0.057536 1.5154-0.1036 1.0411-0.27677 0.95925-0.86493 1.3682-1.277 1.2092-1.5562 1.1097-3.5107 2.1279-1.7612 1.116-1.6409 1.2187-1.4223 1.3795-1.051 1.4339-4.0952 7.2556-0.87339 1.7781-0.63036 1.4812-0.55075 1.5206-0.35972 1.1876-0.303 1.2004-0.3026 1.5338-0.21456 1.5297-0.13246 1.5082-0.06454 1.4719-0.010552 1.5853 0.098845 3.5197-0.00917 1.3351-0.069577 0.63001-0.19202 0.531-0.22077 0.15249-0.28754-0.006996-0.48215-0.15147-0.97383-0.4136-1.5022-0.88036-0.67307-0.31073-0.73036-0.20003-0.72273-0.034413-1.0597 0.21631-1.0713 0.4896-1.0238 0.73139-0.91379 0.95256-0.47461 0.67842-0.38212 0.68922-0.52938 1.3677-0.27585 1.4881-0.025314 0.85226 0.17054 1.6435 0.32957 1.4528 0.4778 1.4721 0.90418 2.0516 0.81319 1.4451 0.66897 1.0578 3.5901 5.3176 0.9059 1.5431 0.63459 1.2571 0.49843 1.1466 0.57824 1.5578 0.71445 2.2946 0.31111 1.1869 0.19296 0.90739 0.1739 1.116 0.15466 1.8356 0.009548 1.0125-0.23264 4.9924-0.040451 2.4013 0.073857 2.5523 0.10046 1.4437 0.14066 1.4037 0.2291 1.6838 0.24624 1.3993 0.26039 1.1973 0.31751 1.1092 0.26027 0.41619-0.24714 0.045282-0.36665-0.033871-2.4351-0.50569-0.89276-0.25946-1.9632-0.68506-0.43644-0.11488-0.44028-0.059759-0.42534 0.021909-0.65019 0.12627-3.1112 0.8945-3.3969 1.4009-23.634 10.029-19.658 8.1778-12.737 5.5503-6.7958 3.1127-4.5695 2.2065-3.3244 1.7071-5.8169 3.1805-2.0116 1.0544-4.9207 2.492-1.0996 0.53875-1.608 0.71383-1.1705 0.39872-1.0788 0.21442-0.67878 0.027339-0.6464-0.083423-0.54646-0.19326-0.28596-0.17187-0.41778-0.39556-0.32416-0.47602-0.29532-0.61535-0.29004-0.83318-0.43075-1.8202-0.21482-1.2286-0.39736-3.0902-0.14051-1.8268-0.040117-1.0042 0.004569-2.3946 0.071497-1.6666 0.17106-2.2344 0.51909-4.3122 1.1908-8.066 0.19502-2.2839 0.089547-2.4109-0.020998-1.5183-0.099319-1.7232-0.17045-1.6456-0.17978-1.2173-0.16233-0.90958-0.43869-1.9324-0.45764-1.5266-0.57528-1.535-0.76137-1.6123-0.97791-1.6893-0.98931-1.4735-1.2468-1.6525-1.9939-2.4282-1.9123-2.136-1.5776-1.6168-1.4594-1.3639-1.9643-1.6431-2.2525-1.6738-2.3311-1.555-1.3121-0.80726-2.6477-1.5037-2.4992-1.2763-2.014-0.87338-0.57949-0.19274-0.21311-0.018649-0.13013-0.01526-0.21767-0.31073-0.23472-0.56062-0.28757-0.94297-0.35192-1.5177-0.78379-3.961-0.37886-1.444-0.59071-1.7815-0.77353-1.7743-0.8594-1.4791-0.49886-0.68502-0.66038-0.7658-0.80584-0.77407-0.6485-0.52914-1.0877-0.75842-1.3444-0.80056-1.0523-0.56831-1.2481-0.62768-1.6116-0.72309-1.8075-0.67279-2.2494-0.73051-1.5952-0.56863-1.2393-0.55822-0.98558-0.60163-1.1303-0.9764-0.78615-0.98554-0.40661-0.69581-0.4488-1.0558-0.12884-0.40504-0.19724-0.82226-0.087289-0.55954-0.065841-1.435 0.088184-1.0958 0.17145-1.0099 0.34291-1.3675 0.35515-1.1071 0.37191-0.99302 0.89805-2.0178 0.8422-1.5953 1.0049-1.6598 0.89069-1.3154 1.212-1.6413 3.5848-4.5631 1.6868-2.2924 0.8468-1.3153 0.49023-0.85846 0.46415-0.91193 0.69979-1.6176 0.67961-1.8996 0.52416-1.7031 0.45793-1.7014 0.39182-1.685 0.37522-1.9054 0.27548-1.6337 0.17516-1.5878 0.023535-3.3005 0.063943-1.6654 0.24608-1.683 0.47773-1.8716 0.6743-1.8842 0.50753-1.1594 0.57071-1.1521 0.8402-1.507 0.92101-1.4873 1.3146-1.9411 3.8026-5.2179 0.97367-1.3924 0.89658-1.3864 0.78588-1.3849 0.81798-1.8798 0.43051-1.8953 7.4e-5 -1.5394-0.25334-1.5595-0.43087-1.5835-2.5319-7.1808-1.1211-3.4764-0.65012-1.685-2.1441-5.0508-1.1582-3.1748-0.49543-1.6061-1.6761-6.2841-0.36095-1.1912-0.71563-2.0788-0.32175-0.81162-1.1159-2.3763-1.3276-2.2536-1.2274-1.7148-0.97597-1.1747-0.91571-1.0019-2.7744-2.817-0.81687-0.89718-0.66893-0.88671-0.30239-0.58487-0.042364-0.48148 0.17456-0.14696 0.33315-0.10341 0.82786-0.60024 0.70674-0.58796 1.751-1.6514 0.98713-1.0434 2.0456-2.4087 4.757-6.2945 1.6269-1.9473 0.99588-0.98982 0.90844-0.7002 0.70455-0.40383 0.70724-0.28239 0.58787-0.13471 0.57705-0.033354 1.0426 0.20208 0.5395 0.20831 0.76972 0.40823 2.1447 1.3907 4.6899 2.8606 2.9842 1.9378 3.9732 2.4671 3.4806 2.2819 0.87246 0.44962 0.89758 0.3093 0.76828 0.12014 0.79436 0.005686 1.1268-0.15622 1.1522-0.32022 1.0126-0.3938 1.0175-0.48734 1.0626-0.59614 1.9169-1.2572 2.3689-1.8226 0.74372-0.64447 1.4141-1.3523 1.6871-1.8069 2.294-2.5803 3.7634-4.6008 0.5616-0.62108 0.25223-0.17876 0.22605 0.44844 0.82913 0.44416 0.67822 0.19847 1.788 0.30277 3.801 0.42097 3.2771 0.64671 1.5638 0.22577 1.3968 0.14509 1.4856 0.060367 4.6921-0.089635 1.1721-0.1166 3.1502-0.53566 0.87534-0.035479 0.76483 0.16699 0.50181 0.30744 0.42784 0.44676 0.47809 0.81479 0.32547 0.97036 0.14349 0.86369 0.027047 0.89959-0.10767 0.93187-0.13173 0.52292-0.52598 1.2907-1.3969 2.5759-0.59113 1.3492-0.36339 1.4283-0.14374 1.456 0.044568 1.4225 0.35956 2.9125 0.029837 1.3353-0.031463 2.8727 0.066212 1.1948 0.16234 1.1815 0.31347 1.2154 0.50207 1.1482 0.84984 1.2161 0.91598 0.98235 1.0504 0.96174 1.2993 1.0821 4.39 3.49 1.6795 1.4121 1.6407 1.4556 1.2559 1.1736 2.2218 2.2279 0.92979 1.0208 0.61828 0.75548 0.15268 0.33514" stroke="#bdc660"/>
    </defs>
    <g clip-path="url(#p32e9ed9952)">
     <use y="280.512" fill="#bdc660" stroke="#bdc660" xlink:href="#md040256afa"/>
    </g>
   </g>
  </g>
 </g>
 <defs>
  <clipPath id="p32e9ed9952">
   <rect x="7.2" y="7.2" width="196.71" height="266.11"/>
  </clipPath>
 </defs>
</svg>
