<?xml version="1.0" encoding="UTF-8"?>
<!DOCTYPE svg  PUBLIC '-//W3C//DTD SVG 1.1//EN'  'http://www.w3.org/Graphics/SVG/1.1/DTD/svg11.dtd'>
<svg width="371.52pt" height="270.6pt" version="1.1" viewBox="0 0 371.52 270.6" xmlns="http://www.w3.org/2000/svg" xmlns:xlink="http://www.w3.org/1999/xlink">
 <metadata>
  <rdf:RDF xmlns:cc="http://creativecommons.org/ns#" xmlns:dc="http://purl.org/dc/elements/1.1/" xmlns:rdf="http://www.w3.org/1999/02/22-rdf-syntax-ns#">
   <cc:Work>
    <dc:type rdf:resource="http://purl.org/dc/dcmitype/StillImage"/>
    <dc:date>2024-07-04T12:09:23.656976</dc:date>
    <dc:format>image/svg+xml</dc:format>
    <dc:creator>
     <cc:Agent>
      <dc:title>Matplotlib v3.7.1, https://matplotlib.org/</dc:title>
     </cc:Agent>
    </dc:creator>
   </cc:Work>
  </rdf:RDF>
 </metadata>
 <defs>
  <style type="text/css">*{stroke-linejoin: round; stroke-linecap: butt}</style>
 </defs>
 <g id="figure_1">
  <g id="patch_1">
   <path d="m0 270.6h371.52v-270.6h-371.52v270.6z" fill="none"/>
  </g>
  <g id="axes_1">
   <g id="PatchCollection_1">
    <defs>
     <path id="mceda117861" d="m106.44-251.7 0.36491 0.057716 0.69917 0.27367 0.41267 0.22182 0.60841 0.43318 0.54714 0.63714 0.050423 0.092179 0.18472 0.70468-0.10796 0.68126-0.35956 0.76346-0.75791 1.0696-1.4462 1.7985-0.67772 0.95975-0.5798 1.0752-0.28005 0.80304-0.15717 0.93852 0.058509 1.2551 0.28488 1.2666 0.43479 1.257 0.52327 1.2274 0.60096 1.2566 0.46649 0.88684 0.36806 0.59139 0.63064 0.87035 0.87391 1.0869 2.1076 2.366 0.66265 0.77926 0.63851 0.80926 0.50975 0.74934 0.35844 0.71005 0.77884 1.9829 0.24083 0.68705 0.24687 0.96822 0.11403 1.0198-0.014697 0.80102-0.12765 0.89501-0.35447 1.7512-0.11904 0.71843-0.17618 1.632-0.11973 0.62185-0.21531 0.80637-0.29606 0.6388-0.36813 0.56834-0.43249 0.56526-0.33899 0.58161-0.10808 0.31738-0.12859 0.71441-0.0812 0.99833-0.043471 1.1536 0.008015 1.0211 0.064824 1.4138 0.12774 1.2114 0.27962 1.7942 0.23812 1.1266 0.90102 3.3084 0.68401 2.957 0.27184 0.96881 0.36454 0.94901 0.30048 0.59646 0.29436 0.4834 0.37611 0.51578 0.63664 0.68904 0.36484 0.31778 0.71658 0.50606 0.47177 0.26552 0.39421 0.186 0.4833 0.18096 0.88092 0.15865 0.21596-0.002592 0.60987-0.094163 0.34491-0.10137 0.5734-0.2278 0.55272-0.26836 2.0008-1.0749 0.63949-0.31298 1.0679-0.45584 1.1823-0.39757 1.4063-0.33993 1.6016-0.24584 1.631-0.12252 1.4155-0.020474 1.424 0.049069 1.4252 0.11508 1.4197 0.18186 1.9795 0.38027 1.3486 0.34796 3.9913 1.1746 1.3298 0.33896 1.5785 0.29854 0.8805 0.10079 1.4914 0.078239 5.2166 0.029044 1.5006 0.04628 1.4922 0.093111 1.4761 0.15975 1.15 0.18727 1.4447 0.30391 2.8413 0.6525 2.6571 0.50107 1.4893 0.33984 0.84686 0.25005 1.2835 0.50801 1.2205 0.74614 0.93962 0.92062 0.7906 1.1104 0.67466 1.2513 0.58178 1.3547 0.50321 1.43 0.43111 1.4844 0.34844 1.4781 0.30253 1.7054 0.1823 1.4697 0.090223 0.97231 0.38916 5.8328 0.024331 0.97333-0.025836 1.0271-0.11951 1.3505-0.14916 1.0466-0.5624 3.0581-0.44525 2.7035-0.78662 3.8018-0.18048 1.1208-0.14098 1.1266-0.0983 1.3738 0.036152 1.1549 0.041976 0.32717 0.34928 1.3484 0.57785 1.3266 0.74576 1.3119 0.86735 1.3024 0.95407 1.297 1.0149 1.2946 2.1416 2.5905 2.2179 2.6005 6.7352 7.8115 2.2078 2.4763 1.0823 1.1527 1.0591 1.0564 1.0261 0.91643 0.97987 0.71734 0.91563 0.43921 0.82756 0.056856 0.66792-0.3633 0.58937-0.69654 0.52821-0.94518 0.4797-1.1281 0.43975-1.2603 0.40483-1.354 0.37177-1.4183 0.33765-1.4605 0.29971-1.4857 0.2359-1.3522 0.75502-4.9677 0.24416-1.2266 0.43918-1.8101 0.26929-0.94742 0.49618-1.5549 2.464-7.1426 0.73989-2.3166 0.51986-1.9745 0.94194-4.3812 0.42641-1.5775 0.4032-1.1808 0.33624-0.85853 0.53619-1.1609 0.53615-1.0088 0.29114-0.45869 0.39539-0.47618 0.4351-0.37868 0.43046-0.23891 0.4059-0.096854 0.42981 0.026779 0.41533 0.12556 0.75058 0.38274 0.81108 0.54662 2.5654 2.0847 1.7069 1.2863 1.0153 0.68133 0.54293 0.33186 0.7059 0.38393 0.57807 0.27718 1.1615 0.47963 1.128 0.37938 7.236 2.0095 1.2297 0.26106 0.87376 0.12122 0.91534 0.050576 0.79814-0.035919 0.73873-0.090393 0.7019-0.12925 1.1915-0.28891 2.1287-0.5754 1.4288-0.30923 0.86459-0.13508 0.80405-0.079535 0.60009-0.024156 0.74917 0.01924 0.89039 0.103 0.62096 0.12878 0.89605 0.27755 0.68567 0.29367 1.2504 0.73711 1.1798 0.91809 1.1275 1.05 1.0895 1.1447 1.0623 1.2113 1.0436 1.2568 5.1361 6.5113 1.0452 1.2814 1.0653 1.2516 1.0944 1.208 1.1356 1.1464 1.1924 1.0614 1.2696 0.94584 1.3964 0.82408 1.476 0.70836 1.533 0.6298 1.5724 0.58115 4.7757 1.6591 7.789 2.8022 1.5198 0.51717 1.4889 0.47001 1.4435 0.39834 1.3782 0.29364 1.286 0.14472 1.1577-0.062813 0.98164-0.34725 0.73154-0.65192 0.56132-0.91359 0.42364-1.1085 0.30761-1.2512 0.20342-1.3533 0.10201-1.4239-0.005362-1.4698-0.11981-1.5109-0.21083-1.5229-0.27495-1.5223-0.3167-1.5099-1.0008-4.3616-0.20918-1.3838 0.00665-1.3468 0.24297-1.1212 0.43583-1.1104 0.58578-1.1105 0.69882-1.1211 0.7794-1.1417 2.7911-3.9346 1.3681-2.0207 0.79547-1.2363 1.1206-1.8327 1.1795-2.0542 0.62535-1.2113 0.036415-0.16985 1.394-0.27683 2.8942-0.44409 10.612-1.3927 3.4765-0.50596 3.3691-0.57051 1.6384-0.32034 3.195-0.67593 1.3466-0.2392 1.327-0.15974 1.3066-0.042138 1.198 0.094516 1.1731 0.21084 1.0149 0.27105 0.98137 0.34635 1.0944 0.5047 1.0132 0.62061 0.48897 0.37393 0.86908 0.81016 0.64861 0.74732 0.80146 1.2031 0.39155 0.82812 0.2923 0.82118 0.25422 0.98142 0.15328 0.84129 0.12982 1.1282 0.052967 0.97993 5.66e-4 1.1057-0.054906 1.0376-0.082594 0.82452-0.11861 0.8236-0.24204 1.2019-0.18221 0.70955-0.27735 0.91578-0.30498 0.86868-0.53634 1.3258-0.55424 1.2104-0.5991 1.1952-1.0171 1.8551-1.0465 1.7594-1.1215 1.7604-1.5161 2.2119-1.3313 1.7848-1.375 1.6736-0.85199 0.95048-0.83075 0.86726-0.85522 0.84127-0.87657 0.81649-1.101 0.97052-1.1188 0.94065-3.5621 2.8849-1.1679 1.0222-1.2099 1.2417-0.46538 0.57815-0.68515 1.0383-0.37756 0.74752-0.30117 0.77923-0.20243 0.71969-0.14182 0.73839-0.12174 1.451 0.013642 1.479 0.16886 3.6631-0.03568 1.5207-0.066522 0.73389-0.13932 0.99023-0.19257 0.98871-0.30692 1.2094-0.37488 1.2005-0.51944 1.4095-0.58571 1.3919-1.0771 2.2415-1.1703 2.182-1.3193 2.3214-0.59375 0.99032-0.70472 1.086-0.73429 0.97118-0.78889 0.81038-0.53992 0.40393-0.58272 0.29973-1.0808 0.24592-1.1934-0.0093-1.1271-0.16176-1.1761-0.26294-1.2113-0.32955-3.7539-1.0994-1.2643-0.313-1.247-0.23635-1.2174-0.12528-1.2385 0.027156-1.161 0.21576-1.0502 0.43481-0.94747 0.70634-0.57974 0.60432-0.56619 0.71794-0.45024 0.663-0.54375 0.91121-0.62399 1.2288-1.5045 3.6003-0.91253 1.924-0.49403 0.93671-0.65418 1.1443-0.59207 0.9479-0.96678 1.3651-0.97583 1.1859-0.74722 0.83175-0.86069 0.90607-1.1408 1.1085-1.2237 1.0896-1.4643 1.2157-4.3807 3.4118-1.3238 1.1358-0.933 0.94978-0.5395 0.70426-0.46832 0.74307-0.39676 0.72042-1.9338 3.7003-0.45185 0.91217-0.96926 2.0916-0.52269 0.94679-0.61601 0.92725-0.71677 0.89113-1.1532 1.1409-1.32 1.0577-1.4516 0.98646-1.5522 0.91864-1.6225 0.84448-1.6577 0.75265-1.6459 0.63015-1.5648 0.46368-1.3765 0.24466-1.0083 6.26e-4 -0.39723-0.18994-0.40082-0.1016-7.6751-2.3209-5.4908-1.6029-3.5142-0.95932-1.684-0.41835-1.6212-0.35747-1.5434-0.27456-1.4447-0.16175-1.3175-0.008806-1.1519 0.19731-0.93527 0.47295-0.68353 0.81074-0.47284 1.082-0.32092 1.2772-0.21338 1.4155-0.1393 1.5115-0.090709 1.5763-0.16444 4.9114-0.069878 1.6503-0.10358 1.6377-0.15685 1.6137-0.23472 1.5766-0.3443 1.5233-0.49499 1.4497-0.60277 1.2343-0.30809 0.53543-0.62768 0.99013-0.80626 1.1431-0.81929 1.0781-1.0441 1.2972-1.0902 1.2223-1.2174 1.1701-0.66755 0.57189-0.94526 0.74686-1.4253 1.0304-1.6804 1.0885-1.789 1.0544-3.4524 1.898-2.027 1.0489-1.5021 0.66866-0.72535 0.27894-1.0357 0.34796-0.96357 0.269-0.95792 0.21363-1.4399 0.2265-1.116 0.11506-2.7454 0.20923-1.1133 0.12768-0.67864 0.15906-0.20028 0.091637-0.12122 0.12994 0.009056 0.075184-0.36654-0.5497-0.98691-1.7595-1.32-2.269-0.48318-0.92301-0.5301-1.2297-0.28783-0.84875-0.24933-0.95647-0.14259-0.77669-0.093452-0.82947-0.041144-0.86257-0.003681-0.75592 0.063952-3.3002-0.038755-0.90228-0.070799-0.72371-0.1834-1.0863-0.20177-0.77322-0.31278-0.87288-0.50591-1.0728-0.58323-1.0451-1.3546-2.1952-1.4647-2.2006-1.0553-1.4696-0.8424-1.0926-0.87342-1.0475-1.1106-1.2108-2.3509-2.3881-1.1702-1.2559-1.9508-2.2481-0.97018-1.1857-1.1606-1.5445-0.65436-0.99676-0.46627-0.84302-0.25638-0.53632-0.3597-0.88176-0.42715-1.3226-0.20056-0.82468-0.12464-0.69168-0.1537-1.324-0.28684-3.8081-0.39862-3.5559-0.28396-2.2471-0.18122-1.205-0.32297-1.8296-0.56418-2.5811-0.42528-1.5557-0.44488-1.3316-0.22329-0.58538-0.37191-0.88231-0.41191-0.87655-0.36803-0.68517-0.32698-0.53567-0.35426-0.51977-0.53715-0.70262-0.58625-0.6851-1.4288-1.5157-1.1781-1.3192-2.4644-2.9527-0.83029-0.88472-0.78016-0.75679-2.7646-2.4543-3.3798-3.5066-0.62424-0.7408-0.70916-0.97025-1.1902-1.7528-1.022-1.3395-0.96445-1.1056-0.74164-0.66287-0.62859-0.42013-0.39561-0.21053-0.94612-0.3922-0.64895-0.19698-0.93772-0.1883-0.57055-0.061748-0.86486-0.018547-1.1478 0.085893-0.82235 0.11007-3.03 0.48772-1.3067 0.14929-1.0476 0.038572-0.60517-0.026977-0.6217-0.070142-1.1951-0.2483-1.3518-0.40561-1.7587-0.64103-2.9343-1.1972-1.0853-0.38905-1.2554-0.39193-1.2488-0.35616-1.3003-0.32552-1.0622-0.19817-1.1589-0.12171-1.2891-0.027655-2.7695 0.094151-1.4752-0.036968-1.2264-0.12045-3.373-0.53577-1.2081-0.09347-0.75422 0.011345-0.70699 0.064582-1.0551 0.17928-0.72202 0.17396-0.88047 0.26158-1.1703 0.41793-2.2792 0.91187-0.92298 0.31492-0.42959 0.10763-0.67258 0.081796-0.36789-0.00954-0.365-0.050041-0.41775-0.10839-0.43517-0.17208-0.48608-0.26272-0.68208-0.49165-0.63544-0.60926-0.31333-0.36701-0.31574-0.42547-0.33998-0.52778-0.61975-1.1548-0.63164-1.4061-0.37062-0.9293-1.0994-2.9892-0.34324-0.82454-0.60478-1.2551-0.53024-0.9483-0.47566-0.76083-1.8508-2.7029-1.7967-2.873-0.76693-1.114-0.47725-0.61886-3.1986-3.6999-1.7866-1.9778-1.0038-0.98543-1.0503-0.85304-1.1251-0.65374-1.2111-0.4005-1.2757-0.20026-1.3023-0.062561-1.2929 0.023053-2.1578 0.10537-1.2549-0.048758-1.1625-0.18796-1.1567-0.28086-2.247-0.60312-1.0608-0.20363-0.61502-0.061354-1.2796-0.061193-0.74181-0.074414-1.7305-0.43004-0.4107-0.027877-0.35146 0.039491-0.36 0.098187-0.92349 0.41705-2.7174 1.5298-1.0238 0.53725-0.95634 0.4329-1.3462 0.4846-1.0925 0.28384-0.38975 0.071338-0.60212 0.063141-0.51816-0.012691-0.59535-0.11508-0.56406-0.213-0.68113-0.40904-0.5975-0.55364-0.48673-0.67641-0.33679-0.60701-0.82972-1.7133-0.53616-0.93825-0.95441-1.3911-0.82943-1.0648-0.49485-0.58615-1.2161-1.3291-0.88999-0.89822-2.1238-2.0597-1.5718-1.6081-0.94628-1.0612-0.89011-1.1293-0.80034-1.1957-0.61126-1.0836-0.58819-1.2413-0.24929-0.61229-0.31356-0.89212-0.17316-0.59136-0.18489-0.81312-0.084931-0.56081-0.049816-0.8441 0.024658-0.5734 0.078931-0.61719 0.14232-0.66462 0.16082-0.54748 0.24508-0.65729 0.4616-0.95876 0.66617-1.0807 1.6998-2.4224 0.53584-0.89368 0.47655-0.96052 0.35185-0.94256 0.22322-1.0818 0.010509-1.0049-0.16281-1.0084-0.066211-0.25345-0.29994-0.88139-0.18412-0.43684-0.35922-0.74357-0.77125-1.3675-2.205-3.4881-0.65484-1.167-0.48785-1.1633-0.23576-1.1623 0.0055-0.61853 0.061595-0.49695 0.25153-1.0476 0.39406-1.1039 1.3484-3.212 0.29436-0.83917 0.24601-0.88455 0.12722-0.69603 0.045694-0.49784-0.002884-0.60673-0.062088-0.53695-0.36328-1.2445-0.61822-1.2404-0.8128-1.2277-0.94956-1.199-1.025-1.144-1.0276-1.0478-0.93419-0.88914-0.9927-0.88988 3.8795-2.4953 1.4513-0.86693 1.0589-0.58972 1.0559-0.53627 1.3783-0.58922 1.0921-0.33869 0.74767-0.14463 0.73443-0.057061 0.98648 0.070068 0.69683 0.13237 1.1647 0.32515 1.6389 0.54736 0.88767 0.26635 0.82996 0.18366 1.3029 0.10622 1.2568-0.10731 1.1553-0.30798 0.9926-0.5126 0.55284-0.46025 0.51295-0.5352 0.76427-0.87187 1.0047-1.2517 1.8534-2.4896 0.55705-0.70143 0.58554-0.67698 1.1216-1.1989 0.75639-0.85608 0.91839-1.1726 0.79045-0.94302 1.0814-1.121 0.81117-0.74007 0.8386-0.69449 1.4243-1.0576 1.0149-0.66731 1.0213-0.56716 0.71783-0.3321 0.30379-0.11768 0.67583-0.19512 0.59056-0.093579 1.7477-0.10884 0.70472-0.085251 3.5989-0.62702 2.579-0.49078 1.3768-0.37244 1.3361-0.32304 0.36182-0.11448 0.80915-0.34441 0.82028-0.55188 0.77802-0.72907 0.71805-0.86686 0.6364-0.9734 0.58117-1.122 0.72433-1.7021 0.47653-1.3036 0.60723-1.8961 0.24799-0.6376 0.20616-0.375 0.19982-0.26721 0.29869-0.29935 0.4253-0.30697 0.78822-0.34715 1.0153-0.26518 0.91405-0.2865 0.62802-0.24251 0.74698-0.34503 0.81832-0.48374 2.0649-1.3871 1.8491-1.3308 0.74989-0.49723 1.0983-0.64592 1.2047-0.57444 1.2344-0.43403 2.3699-0.66355 4.0785-0.8503 2.9728-0.73184 0.56262-0.094588 0.3486-0.014184 0.12458 0.053827" stroke="#bdc660"/>
    </defs>
    <g clip-path="url(#p97dac68c75)">
     <use y="270.597442" fill="#bdc660" stroke="#bdc660" xlink:href="#mceda117861"/>
    </g>
   </g>
  </g>
 </g>
 <defs>
  <clipPath id="p97dac68c75">
   <rect x="7.2" y="7.2" width="357.12" height="256.2"/>
  </clipPath>
 </defs>
</svg>
