<?xml version="1.0" encoding="UTF-8"?>
<!DOCTYPE svg  PUBLIC '-//W3C//DTD SVG 1.1//EN'  'http://www.w3.org/Graphics/SVG/1.1/DTD/svg11.dtd'>
<svg width="265.07pt" height="280.51pt" version="1.1" viewBox="0 0 265.07 280.51" xmlns="http://www.w3.org/2000/svg" xmlns:xlink="http://www.w3.org/1999/xlink">
 <metadata>
  <rdf:RDF xmlns:cc="http://creativecommons.org/ns#" xmlns:dc="http://purl.org/dc/elements/1.1/" xmlns:rdf="http://www.w3.org/1999/02/22-rdf-syntax-ns#">
   <cc:Work>
    <dc:type rdf:resource="http://purl.org/dc/dcmitype/StillImage"/>
    <dc:date>2024-07-04T12:09:41.941882</dc:date>
    <dc:format>image/svg+xml</dc:format>
    <dc:creator>
     <cc:Agent>
      <dc:title>Matplotlib v3.7.1, https://matplotlib.org/</dc:title>
     </cc:Agent>
    </dc:creator>
   </cc:Work>
  </rdf:RDF>
 </metadata>
 <defs>
  <style type="text/css">*{stroke-linejoin: round; stroke-linecap: butt}</style>
 </defs>
 <g id="figure_1">
  <g id="patch_1">
   <path d="m0 280.51h265.07v-280.51h-265.07v280.51z" fill="none"/>
  </g>
  <g id="axes_1">
   <g id="PatchCollection_1">
    <defs>
     <path id="me7a54eeff4" d="m240.32-68.944-0.12168 0.1795-0.082847 0.26742-0.18839 0.87088-0.43419 2.4499-0.29678 1.9531-0.17476 2.0932-0.004852 2.1571 0.088768 1.8287 0.24641 2.4493 0.34209 1.9587 0.85937 3.2954 0.23209 1.1411 0.12553 1.2999-0.007798 1.2285-0.092864 1.1515-0.24387 1.8686-0.57402 3.5926-0.41514 2.2213-0.3304 1.352-0.20143 0.61034-0.22486 0.48628-0.22442 0.30069-0.16574 0.068057-0.045082 0.027887-0.28644-0.11983-3.5451-2.0895-2.5796-1.3787-1.6808-0.78378-1.8804-0.77116-1.9669-0.67228-0.84289-0.23973-2.1663-0.49906-2.4143-0.40968-2.1757-0.26043-2.3024-0.034685-1.3724 0.10284-1.6619 0.24765-1.7194 0.41026-1.5743 0.53571-1.1397 0.50468-0.89297 0.4802-1.0058 0.64051-1.6808 1.3002-1.7572 1.6287-1.6806 1.7431-1.9943 2.1934-2.2428 2.5954-3.7384 4.5656-1.5312 1.728-1.365 1.3281-1.2516 0.9492-1.3663 0.60489-0.85306 0.068906-0.79356-0.16457-0.79312-0.39785-0.66655-0.48183-0.54688-0.49248-2.5852-2.6175-1.0918-0.85606-2.3431-1.6157-2.3459-1.7692-1.1526-0.78331-1.163-0.5924-1.4668-0.33673-1.3982 0.2085-0.69185 0.37042-0.65277 0.52897-0.85403 0.92448-0.83359 1.0887-2.5296 3.5526-1.0077 1.2573-0.91547 0.98104-0.943 0.80379-0.69846 0.43398-0.50688 0.21741-1.0343 0.16883-1.1567-0.23587-1.1789-0.59296-1.2192-0.85003-1.2797-1.0211-2.6233-2.2188-2.6665-2.4594-1.6196-1.6309-0.84542-0.91281-1.056-1.2408-0.99881-1.3274-0.88908-1.3857-0.81734-1.5566-0.70122-1.5997-1.3309-3.5224-0.75875-1.8479-0.88939-1.9043-0.994-1.875-1.115-1.8076-1.2604-1.697-1.4396-1.5363-1.8485-1.4795-2.0558-1.275-2.2071-1.1254-2.3158-1.0178-2.3923-0.94214-4.9238-1.7455-9.675-3.1387-6.95-2.0957-2.6106-0.70377-2.054-0.48025-2.0596-0.38072-2.0636-0.25029-2.0664-0.081086-2.3661 0.15075-2.3678 0.36534-2.3694 0.525-2.3709 0.64222-2.3726 0.72701-4.7516 1.6161-14.795 5.3892-5.0683 1.7092-2.5511 0.77682-2.5615 0.6932-2.5707 0.57346-2.5773 0.40334-2.579 0.16446-2.5724-0.16564-2.3306-0.50565-2.3231-0.79989-2.3193-1.0315-2.313-1.2097-2.2958-1.3395-2.2561-1.4211-2.1772-1.4482-5.797-4.0552-0.36268-0.17049 1.8634-2.184 2.2703-2.7819 7.1113-9.0261 8.4002-10.776 10.818-13.492 6.6327-8.3457 6.2344-8.0221 5.7969-7.7066 2.9467-4.0489 4.5352-6.3962 17.551-25.179 13.888-19.383 9.3452-12.941 22.085-30.177 7.108-9.83 6.0356-8.5996 10.926-15.937 1.9236-2.7436 0.029848 0.78115 0.27227 1.4582 0.4541 1.7993 0.60521 1.8832 0.74256 1.7733 0.8797 1.507 1.0282 1.1021 0.41748 0.279 0.44457 0.22041 0.57116 0.20096 0.53235 0.13088 2.5044 0.37671 0.49754 0.10832 0.62538 0.21434 1.1229 0.73991 0.89793 1.1103 0.55334 1.4091 0.098045 0.6472 0.008681 1.2708-0.14089 1.3673-0.39301 2.6682-0.14198 1.2579-0.067479 1.2989 0.029446 1.1757 0.17355 1.4573 0.35326 1.6733 0.36781 1.2959 0.44071 1.2955 0.56119 1.4184 0.63528 1.3991 0.96329 1.8225 1.0976 1.736 1.3843 1.7748 1.5831 1.5712 1.6161 1.2109 1.7488 1.0429 1.8497 0.92383 1.5456 0.67781 1.5576 0.61247 2.4059 0.81494 1.9304 0.52989 1.9783 0.39871 1.065 0.13045 0.99611 0.045867 1.0621-0.06972 0.91751-0.22243 0.50449-0.23125 0.52904-0.34719 1.4206-1.2747 0.52595-0.43561 0.42131-0.26543 0.33716-0.13751 0.31714-0.058067 0.23596 0.006293 0.34184 0.098509 0.20871 0.12749 0.22067 0.20701 0.18939 0.25068 0.23166 0.42405 0.30587 0.80714 0.66226 2.1279 0.27623 0.73596 0.50469 1.1234 0.6465 1.1901 0.89075 1.3755 0.65355 0.8438 0.70138 0.72562 0.69399 0.56134 0.41662 0.275 0.83498 0.43949 0.64436 0.25311 0.86889 0.24048 1.4754 0.23324 3.1081 0.25064 1.2573 0.26925 0.95264 0.36806 2.3453 1.1971 0.66877 0.28533 0.98729 0.31504 1.832 0.48636 0.81776 0.30605 0.73995 0.39175 0.58356 0.38333 0.60203 0.46183 0.60846 0.55128 0.64444 0.70836 0.48157 0.65625 0.42403 0.71458 0.34514 0.7662 0.4868 1.5605 0.1778 0.85973 0.13311 1.1191 0.02821 0.77562-0.029963 1.2357-0.31741 3.5797-0.080549 1.6362 0.076344 1.7902 0.29789 1.8159 0.49745 1.7168 1.9973 4.8491 1.7057 4.5518 0.63814 1.8541 0.45347 1.5218 2.0712 7.6414 2.1817 8.6793 1.4872 5.5595 0.5132 2.2526 0.29225 1.484 0.34718 2.3389 0.15828 1.7674 0.027815 1.201-0.098339 1.6088-0.18014 1.0771-0.2863 1.0496-0.52492 1.4079-0.63611 1.4141-0.82166 1.5832-1.4636 2.5979-0.68139 1.3969-0.33821 0.87258-0.29737 0.96551-0.21512 1.0439-0.10396 0.93102-0.038034 1.36 0.12212 1.984 0.3244 2.9003 0.60543 3.8231 0.22319 1.7263 0.12583 1.7797-0.001007 1.2076-0.086659 1.2688-0.18058 1.4032-0.97875 5.6599-0.43823 3.1711-0.42535 4.3059-0.93712 8.1693-0.19354 2.4208-0.07386 2.2171 0.056004 1.851 0.23808 2.2134 0.43863 2.3369 0.57684 2.5625 0.14077 0.4444" stroke="#bdc660"/>
    </defs>
    <g clip-path="url(#pc7872de12f)">
     <use y="280.512" fill="#bdc660" stroke="#bdc660" xlink:href="#me7a54eeff4"/>
    </g>
   </g>
  </g>
 </g>
 <defs>
  <clipPath id="pc7872de12f">
   <rect x="7.2" y="7.2" width="250.67" height="266.11"/>
  </clipPath>
 </defs>
</svg>
