<?xml version="1.0" encoding="UTF-8"?>
<!DOCTYPE svg  PUBLIC '-//W3C//DTD SVG 1.1//EN'  'http://www.w3.org/Graphics/SVG/1.1/DTD/svg11.dtd'>
<svg width="344.3pt" height="280.51pt" version="1.1" viewBox="0 0 344.3 280.51" xmlns="http://www.w3.org/2000/svg" xmlns:xlink="http://www.w3.org/1999/xlink">
 <metadata>
  <rdf:RDF xmlns:cc="http://creativecommons.org/ns#" xmlns:dc="http://purl.org/dc/elements/1.1/" xmlns:rdf="http://www.w3.org/1999/02/22-rdf-syntax-ns#">
   <cc:Work>
    <dc:type rdf:resource="http://purl.org/dc/dcmitype/StillImage"/>
    <dc:date>2024-07-04T12:09:44.666463</dc:date>
    <dc:format>image/svg+xml</dc:format>
    <dc:creator>
     <cc:Agent>
      <dc:title>Matplotlib v3.7.1, https://matplotlib.org/</dc:title>
     </cc:Agent>
    </dc:creator>
   </cc:Work>
  </rdf:RDF>
 </metadata>
 <defs>
  <style type="text/css">*{stroke-linejoin: round; stroke-linecap: butt}</style>
 </defs>
 <g id="figure_1">
  <g id="patch_1">
   <path d="m0 280.51h344.3v-280.51h-344.3v280.51z" fill="none"/>
  </g>
  <g id="axes_1">
   <g id="PatchCollection_1">
    <defs>
     <path id="me751a053a3" d="m244.68-169.44 0.15695-0.053041 0.65699 0.22207 2.9459 1.4728 2.0924 0.85031 2.144 0.7003 2.5249 0.60872 2.5331 0.41698 2.3324 0.30372 4.5142 0.3978 3.4691 0.1232 4.5112-0.14143 1.8398 0.001644 1.7186 0.082561 2.0878 0.23556 2.1978 0.40243 7.9305 1.6938 7.165 1.1384 3.6448 0.81819 1.9055 0.61132 1.6131 0.80586 0.8663 0.68564 1.0481 1.2401 0.51617 0.7625 0.89888 1.5776 0.39543 0.93854 0.58347 1.9394 0.52145 3.0492 0.26728 2.7329 0.5006 7.6711 0.53911 5.5415 0.68629 4.3792 0.68159 2.9537 0.92895 3.1409 4.3771 12.559 0.9609 3.0234 1.5698 5.5497 1.173 4.828 0.92823 4.3069 1.189 6.093 0.80241 4.5023-0.62704 0.3606-2.3154 0.61374-3.877 0.69886-3.9411 0.47552-2.7985 0.2266-6.1156 0.3126-8.5894 0.29553-9.0988 0.22179-3.8549 0.19974-3.1403 0.25513-10.455 1.1047-8.038 0.64232-5.5708 0.5664-9.1961 1.0731-6.2254 0.90315-2.9447 0.55651-2.8271 0.6639-2.8893 0.86352-2.5855 0.97445-2.1976 1.0198-2.206 1.2378-2.0354 1.3667-1.6598 1.3013-1.9181 1.7397-1.4841 1.5511-1.7362 2.0852-2.7047 3.622-4.7596 6.6802-1.9409 2.4083-2.2673 2.4445-1.6715 1.5998-2.1814 1.8932-1.9926 1.5201-3.3359 2.1794-5.8831 3.5051-4.4227 2.4007-1.7129 0.814-2.3269 0.9737-3.9535 1.4232-5.1487 1.6708-3.3574 0.95436-7.2253 1.5633-8.2006 1.5263-9.7939 1.95-2.5887 0.41166-3.8031 0.49198-3.2295 0.3017-3.3812 0.20295-5.2185 0.13593-4.4654-0.013952-13.642-0.36212-10.188-0.47874-9.7285-0.8192-1.1171-0.058486-0.27894 0.016716-0.083259 0.058793-0.16618 0.016545-0.52573-0.24693-0.88063-0.58504-1.0055-0.79274-1.4045-1.2435-2.2337-2.1935-5.4595-5.9296-0.91004-0.86965-1.4265-1.2033-1.2776-0.91889-1.2817-0.79864-4.5141-2.4455-1.2563-0.75503-1.4786-0.99057-2.6086-2.0285-1.1405-1.0127-1.2559-1.2287-1.7709-2.0064-3.9642-5.0864-2.625-3.0755-2.2265-2.2477-4.3097-3.9586-1.8931-1.8812-1.7779-1.9651-3.3251-3.889-2.3129-2.5513-2.2552-2.7028-3.462-4.6411-1.5823-1.7031-0.38454-0.55548-0.22533-0.47081-0.037121-0.30073 0.46236-0.45269 0.36448-0.95534 2.7099-10.175 1.0817-3.5236 0.95695-2.6395 0.8535-1.9854 1.1091-2.2305 3.0893-5.3824 1.1613-2.1602 0.88712-1.903 0.77812-1.9666 0.6741-2.0575 0.54275-2.1634 1.4756-6.7816 0.45899-1.8785 0.5908-2.0613 0.71722-2.014 0.4026-0.94814 0.63969-1.3391 0.83378-1.5445 1.184-1.8981 1.2773-1.7361 1.7295-2.0318 2.1606-2.2335 2.1597-2.0219 2.4639-2.1399 7.202-5.8406 3.8178-3.2336 2.3089-2.1303 1.4913-1.5818 0.73728-0.87277 1.3408-1.782 1.1357-1.779 0.83284-1.4885 0.75422-1.5981 0.46941-1.2805 0.29938-1.0457 0.39015-1.9965 0.26043-2.3166 0.086683-1.7687-0.11405-2.0809-0.31693-1.5343-0.52249-1.272-0.66474-0.99462-1.0813-1.0887-0.93128-0.68714-2.1497-1.2003-1.7137-0.77482-3.1018-1.1608-1.7696-0.54081-1.4257-0.37656-2.8348-0.61642-9.6755-1.6553-2.4507-0.48328-2.8587-0.71617-1.3092-0.40818-1.6942-0.67286-1.0076-0.57937-0.40269-0.36313-0.12315-0.18682-0.047348-0.21214 0.11075-0.24037 0.14473-6.8902 0.3282-4.9262 0.45211-3.5909 0.32246-1.7641 0.77769-3.0084 0.98334-2.6254 0.56436-1.2026 1.2627-2.2322 0.91295-1.3478 1.0147-1.3033 0.96155-1.0996 1.5809-1.5996 1.8835-1.6688 2.6361-2.0785 2.0987-1.4725 2.5196-1.5751 3.9182-2.1453 10.886-5.4294 3.1118-1.7517 2.7664-1.7005 3.0679-2.0541 1.9107-1.3782 6.2439-4.9259 2.021-1.5019 4.0438-2.6926 4.1285-2.5499 1.7209-0.9047 1.0285-0.46502 1.1144-0.43424 1.7631-0.52451 1.2086-0.2309 1.035-0.11275 1.4254-0.031043 1.251 0.10258 1.3333 0.23278 1.0305 0.25843 1.5991 0.55076 1.1945 0.56284 1.6573 0.99327 2.4093 1.7502 2.276 1.9383 2.7473 2.6753 1.7399 1.964 1.0437 1.3828 0.86009 1.2922 1.1182 1.8523 1.0062 1.8771 0.98044 2.2162 0.49346 1.4296 0.57029 2.2631 0.37415 2.1502 0.42904 3.6502 0.25396 1.2026 0.67048 2.0413 0.60765 1.3205 0.62464 1.0708 0.91302 1.2933 0.88926 1.0755 1.0241 1.0837 2.3539 2.0259 1.969 1.5351 1.1695 0.83308 2.0388 1.2121 2.7941 1.2607 4.7676 1.8993 3.5956 1.1638 2.1364 0.52811 2.1576 0.3631 7.5582 0.60106 2.8223 0.32374 6.1603 1.0361 3.2844 0.62942 3.4897 0.83624 3.1866 0.97096 3.362 1.2484 3.9982 1.75 2.0959 1.0853 2.2451 1.3627 2.5011 1.7208 3.1423 2.4203 1.4129 1.2305 2.1144 2.0063 6.3975 6.6357 3.8552 3.7446 1.926 1.6901 2.7523 2.25 2.6986 2.0852 2.1406 1.544 2.5795 1.6965 1.9725 1.1741 1.4585 0.78383 2.3492 1.1158 2.6351 1.0733 2.4943 0.86611 2.8889 0.74726 0.89385 0.14459 0.34898-0.052385" stroke="#bdc660"/>
    </defs>
    <g clip-path="url(#pab963d2b51)">
     <use y="280.512" fill="#bdc660" stroke="#bdc660" xlink:href="#me751a053a3"/>
    </g>
   </g>
  </g>
 </g>
 <defs>
  <clipPath id="pab963d2b51">
   <rect x="7.2" y="7.2" width="329.9" height="266.11"/>
  </clipPath>
 </defs>
</svg>
