<?xml version="1.0" encoding="UTF-8"?>
<!DOCTYPE svg  PUBLIC '-//W3C//DTD SVG 1.1//EN'  'http://www.w3.org/Graphics/SVG/1.1/DTD/svg11.dtd'>
<svg width="299.55pt" height="280.51pt" version="1.1" viewBox="0 0 299.55 280.51" xmlns="http://www.w3.org/2000/svg" xmlns:xlink="http://www.w3.org/1999/xlink">
 <metadata>
  <rdf:RDF xmlns:cc="http://creativecommons.org/ns#" xmlns:dc="http://purl.org/dc/elements/1.1/" xmlns:rdf="http://www.w3.org/1999/02/22-rdf-syntax-ns#">
   <cc:Work>
    <dc:type rdf:resource="http://purl.org/dc/dcmitype/StillImage"/>
    <dc:date>2024-07-04T12:09:47.888453</dc:date>
    <dc:format>image/svg+xml</dc:format>
    <dc:creator>
     <cc:Agent>
      <dc:title>Matplotlib v3.7.1, https://matplotlib.org/</dc:title>
     </cc:Agent>
    </dc:creator>
   </cc:Work>
  </rdf:RDF>
 </metadata>
 <defs>
  <style type="text/css">*{stroke-linejoin: round; stroke-linecap: butt}</style>
 </defs>
 <g id="figure_1">
  <g id="patch_1">
   <path d="m0 280.51h299.55v-280.51h-299.55v280.51z" fill="none"/>
  </g>
  <g id="axes_1">
   <g id="PatchCollection_1">
    <defs>
     <path id="mc9267dd796" d="m277.55-257.02-0.040372 0.16976 0.045362 0.48242 1.0532 6.3296 0.29411 1.9988 0.24373 2.0347 0.14059 1.6199 0.084656 1.6137 0.020758 1.5997-0.080798 2.0558-0.20766 2.0109-0.28227 1.6715-0.38352 1.6274-0.55019 1.7538-0.67287 1.6913-0.86433 1.771-0.98434 1.6971-0.76404 1.1614-0.80942 1.1291-1.1327 1.4584-1.1797 1.4202-4.8272 5.4634-1.1267 1.3526-1.1471 1.4835-1.084 1.5274-1.0837 1.6756-1.0215 1.7153-0.94715 1.695-3.2741 6.1236-1.701 3.0152-0.924 1.4818-0.98506 1.427-1.0271 1.312-1.1094 1.2327-1.3502 1.2771-1.448 1.1661-1.2145 0.85356-1.2554 0.79513-1.5538 0.89973-3.1884 1.7667-1.5701 0.95-1.5732 1.1195-0.81265 0.68966-0.76374 0.74118-0.87669 0.98894-0.79901 1.0585-0.73234 1.1327-0.66963 1.1832-0.74928 1.4819-1.9712 4.1168-0.68693 1.2947-0.73175 1.2784-1.3243 2.087-0.90096 1.2876-1.9163 2.5439-5.0312 6.3278-2.4646 3.2232-1.1815 1.6386-1.0649 1.5653-1.0009 1.5875-0.91503 1.6125-0.79989 1.6416-0.60932 1.5529-0.45633 1.5754-0.23474 1.2524-0.11527 1.2543 0.025852 1.4541 0.19859 1.4288 0.3828 1.4197 0.55517 1.3575 0.9448 1.6046 1.0848 1.3173 1.2678 1.158 1.1369 0.80415 1.2237 0.68302 1.5578 0.64998 1.6352 0.46615 1.2507 0.22301 1.2716 0.11531 1.5811-0.008171 1.5847-0.16419 1.7915-0.3666 1.7596-0.54714 1.3835-0.56946 1.3435-0.67872 1.6644-1.0256 1.2947-0.93222 1.2541-0.99661 3.4828-2.983 1.1197-0.90238 1.106-0.80594 1.138-0.72154 1.0456-0.55503 1.0746-0.45758 1.1558-0.36138 1.1795-0.23418 1.1615-0.10167 1.1689 0.017462 1.2843 0.15002 1.2746 0.27885 1.7418 0.58812 1.6889 0.79393 1.691 1.0253 1.6004 1.1951 0.89294 0.77422 0.85186 0.82125 0.87718 0.94412 0.81962 0.98952 1.0755 1.5042 0.92639 1.5717 0.67893 1.4456 0.5191 1.4772 0.31683 1.3875 0.14547 1.3895-0.021622 1.1744-0.15979 1.1517-0.31772 1.1647-0.46943 1.1127-0.67874 1.1367-0.83651 1.051-0.75547 0.76179-0.82658 0.71188-0.9597 0.72734-3.9283 2.6678-1.287 0.91592-1.2468 0.9614-1.4468 1.2674-1.0331 1.0702-0.92941 1.1492-0.67132 1.0004-0.59145 1.0514-0.50556 1.0754-0.44258 1.1115-0.38637 1.1204-2.3159 7.8776-1.0829 3.3577-0.58933 1.6639-1.0967 2.7883-0.60151 1.3686-0.78518 1.6272-0.85499 1.5886-0.71407 1.1973-0.76035 1.1692-0.94642 1.3339-0.99575 1.3022-2.1221 2.5759-4.0164 4.7161-1.3068 1.6338-1.2598 1.6713-1.0831 1.5342-1.0384 1.5664-0.99224 1.598-0.73987 1.2696-1.384 2.5977-0.81552 1.7131-0.74975 1.7476-0.67334 1.7849-0.45631 1.3964-0.4034 1.4198-0.35004 1.4426-0.36671 1.8723-0.2779 1.907-0.20982 2.1953-0.1197 2.2334-0.11671 5.7489-0.093319 2.3154-0.18065 2.2515-0.28732 2.2053-0.33497 1.8071-0.40576 1.6872-0.39116 1.3147-0.39864 1.1189-0.45329 1.0125-0.30982 0.36385-0.58667-0.19636-0.27258-0.40958-0.21541-0.56822-0.13424-0.68017-0.066447-0.77742-0.014091-1.1261 0.058367-2.9254-0.028377-2.7863 0.051843-1.1096 0.30548-3.3325 0.10028-2.0062-0.04311-1.1616-0.14299-1.092-0.35039-1.2417-0.60968-1.0637-0.99378-0.84769-1.2613-0.54545-1.4379-0.26726-1.5407 0.009461-1.582 0.30684-0.69048 0.23463-0.90213 0.38738-0.90306 0.46215-1.7734 1.0647-1.4316 0.96123-2.8908 2.0258-1.1835 0.78956-1.3003 0.80658-1.3212 0.74652-1.5734 0.80919-2.038 0.94649-1.7142 0.73224-3.4915 1.3777-1.7388 0.63375-2.6389 0.85908-1.4073 0.3669-0.75433 0.14697-0.65623 0.070677-0.66447-0.049706-0.42849-0.24378-0.15414-0.65666 0.22654-0.96969 0.50877-1.2013 0.71531-1.3704 0.86435-1.4921 0.97019-1.5782 1.9957-3.1001 5.9509-8.943 2.2234-3.4568 1.8397-3.0437 1.4402-2.6307 0.92067-1.919 0.79325-1.9482 0.46151-1.3836 0.37391-1.3954 0.23419-1.1387 0.17275-1.1394 0.13306-1.4235 0.046974-1.407-0.056981-1.7724-0.17988-1.6973-0.3094-1.6209-0.44642-1.4583-0.62226-1.259-0.83474-0.94412-0.53718-0.3401-0.48594-0.20508-0.72396-0.19646-1.0228-0.15298-2.7048-0.22101-0.94826-0.10831-0.73998-0.13535-1.0986-0.31172-1.0902-0.43174-1.0708-0.53161-1.037-0.6057-3.2945-2.0847-1.2968-0.65089-1.3519-0.43482-1.6182-0.14909-1.6945 0.15644-1.742 0.38532-1.7641 0.55555-1.7623 0.68163-1.7363 0.77504-1.6843 0.84458-1.6022 0.8968-1.4845 0.93626-1.3233 0.96571-1.6866 1.4551-0.67484 0.52012-0.18983 0.12396-1.2519 0.59572-1.3565 0.35402-0.89334 0.11519-0.91788 0.035015-1.0878-0.064653-1.0858-0.18923-0.8252-0.2337-3.2981-1.191-1.4778-0.49703-3.1546-0.96846-2.5074-0.69294-7.6511-1.9988-3.2451-0.92817-2.8403-0.69854-1.4515-0.42433-1.5239-0.57363-0.87039-0.41927-0.80653-0.48111-0.67187-0.49078-2.2383-1.8768-1.0727-0.7881-1.4514-0.7642-1.6417-0.61726-1.7836-0.50842-1.8876-0.4298-1.9622-0.37519-10.285-1.6387-2.0635-0.37562-1.9569-0.40364-1.927-0.44848-1.8864-0.49501-1.8321-0.54575-2.5178-0.89348-3.3808-1.4207-1.6663-0.57449-1.5226-0.3878-1.5756-0.25116-1.6098-0.099271-1.6267 0.077974-0.75573 0.10568-1.8554 0.44245-1.85 0.64889-1.8474 0.80093-1.8477 0.91194-1.8506 0.99254-3.721 2.1447-3.7664 2.2759-17.905 11.03-6.9365 4.2252-0.22144-2.086-0.77314-8.3621-0.47206-4.5694-0.26539-2.2569-0.57126-4.2186-3.5323-22.685-4.4766-27.453-4.8881-31.226-0.027977-0.40485 1.1689-32.083 0.60846-14.011 0.23578-3.9431 0.18196-2.0615 0.25202-2.0158 0.35576-1.9479 0.50433-1.8488 0.7124-1.7068 0.91618-1.4489 1.1123-1.2738 1.2611-1.0881 1.3746-0.87329 1.4625-0.60842 1.5331-0.26886 1.4834 0.11266 1.5291 0.40488 1.5722 0.6217 1.616 0.77645 6.2465 3.3263 4.2714 2.0706 2.1946 1.0044 4.3262 1.9031 3.7221 1.5688 1.2567 0.49918 0.47628 0.13259 0.51344 0.17182 5.0172 1.9819 2.1681 0.81633 2.246 0.80596 2.2776 0.76422 2.4855 0.75183 1.9445 0.50637 1.927 0.41033 1.6005 0.25883 2.0146 0.23135 1.172 0.094813 2.7258 0.13652 2.1133 0.039435 3.6581-0.019304 5.019-0.13011 7.1959-0.28274 2.6237-0.14954 2.9105-0.2492 1.5305-0.18427 1.4782-0.2257 1.4602-0.28289 2.0121-0.5214 1.5005-0.51423 1.7906-0.73222 1.7707-0.81247 9.1172-4.5594 3.722-1.7768 1.8823-0.83093 1.8294-0.74433 1.8507-0.67811 1.8757-0.59626 1.7027-0.45336 1.7217-0.38929 1.7365-0.34007 2.0393-0.35007 4.1103-0.60252 6.2114-0.78708 14.572-1.748 6.1846-0.69398 4.0006-0.3521 1.9232-0.10565 1.8416-0.031023 1.7275 0.073301 1.5704 0.21683 1.357 0.41152 1.0713 0.67205 0.72765 0.95683 0.41385 0.89706 0.72079 2.0761 0.43063 1.0835 0.55629 1.027 0.69074 0.89867 0.7234 0.64901 0.70057 0.44991 0.45068 0.21224 0.26983 0.097446 0.85777 0.16573 0.87634-0.03478 0.40498-0.083093 1.0848-0.37945 2.552-1.1763 1.0185-0.37777 1.5282-0.40868 3.1932-0.62052 1.5673-0.36487 3.801-1.2288 1.1793-0.40277 1.1036-0.48912 1.0435-0.65127 1.9593-1.4776 3.1624-2.1714 0.9274-0.75511 0.65332-0.60526 0.333-0.36443 0.34309-0.46927 0.21486-0.39144 0.20934-0.50368 0.32846-1.0225 0.40862-1.0263 0.32468-0.53714 0.40256-0.52006 0.46353-0.48952 0.51863-0.45644 0.65481-0.47515 1.156-0.66948 0.93718-0.46918 1.862-0.83329 0.90586-0.45338 0.408-0.24957 0.78315-0.5812 0.65193-0.60525 0.5601-0.63309 0.64888-0.91026 0.37733-0.62528 1.408-2.5643 0.47333-0.75953 0.51818-0.70923 0.63191-0.70912 0.4281-0.39379 0.49661-0.37153 0.7782-0.41656 0.59499-0.19367 0.65242-0.086574 0.65624 0.027586 0.47665 0.081649 1.1129 0.33062 1.1182 0.46644 1.0806 0.53377 1.7249 0.96715 0.61458 0.48141 0.3379 0.39566 0.21878 0.34677 0.78306 1.7051 0.5055 0.94845 0.64477 0.8645 0.53414 0.4993 0.86183 0.53804 0.71119 0.27548 0.54937 0.1343 0.57956 0.085816 0.72048 0.050908 1.7782-0.00145 3.0341-0.1344 1.8063-0.19782 1.4874-0.22525 1.1946-0.22263 1.6358-0.37935 1.2639-0.358 2.0903-0.69586 1.8521-0.7319 2.4446-1.2272 0.66666-0.30912 0.25327-0.057576" stroke="#bdc660"/>
    </defs>
    <g clip-path="url(#p20f5f38aa4)">
     <use y="280.512" fill="#bdc660" stroke="#bdc660" xlink:href="#mc9267dd796"/>
    </g>
   </g>
  </g>
 </g>
 <defs>
  <clipPath id="p20f5f38aa4">
   <rect x="7.2" y="7.2" width="285.15" height="266.11"/>
  </clipPath>
 </defs>
</svg>
