<?xml version="1.0" encoding="UTF-8"?>
<!DOCTYPE svg  PUBLIC '-//W3C//DTD SVG 1.1//EN'  'http://www.w3.org/Graphics/SVG/1.1/DTD/svg11.dtd'>
<svg width="320.98pt" height="280.51pt" version="1.1" viewBox="0 0 320.98 280.51" xmlns="http://www.w3.org/2000/svg" xmlns:xlink="http://www.w3.org/1999/xlink">
 <metadata>
  <rdf:RDF xmlns:cc="http://creativecommons.org/ns#" xmlns:dc="http://purl.org/dc/elements/1.1/" xmlns:rdf="http://www.w3.org/1999/02/22-rdf-syntax-ns#">
   <cc:Work>
    <dc:type rdf:resource="http://purl.org/dc/dcmitype/StillImage"/>
    <dc:date>2024-07-04T12:09:43.323418</dc:date>
    <dc:format>image/svg+xml</dc:format>
    <dc:creator>
     <cc:Agent>
      <dc:title>Matplotlib v3.7.1, https://matplotlib.org/</dc:title>
     </cc:Agent>
    </dc:creator>
   </cc:Work>
  </rdf:RDF>
 </metadata>
 <defs>
  <style type="text/css">*{stroke-linejoin: round; stroke-linecap: butt}</style>
 </defs>
 <g id="figure_1">
  <g id="patch_1">
   <path d="m0 280.51h320.98v-280.51h-320.98v280.51z" fill="none"/>
  </g>
  <g id="axes_1">
   <g id="PatchCollection_1">
    <defs>
     <path id="mefd84a59bc" d="m198.61-146.77 7.5424 10.026 12.063 16.176 3.8544 5.015 1.303 1.6074 1.3262 1.5576 1.3619 1.49 1.4138 1.3981 1.4868 1.2735 1.5872 1.1055 1.6537 0.87725 1.7486 0.72033 1.8187 0.60442 1.8698 0.51972 1.9067 0.45841 3.8846 0.79723 3.9383 0.70349 12.216 1.9663 5.8147 0.98891 4.1167 0.79132 2.0009 0.44056 1.9374 0.48745 1.8377 0.56148 1.4136 0.54482 1.3043 0.64026 1.1617 0.75795 1.0903 0.97533 1.9903 2.1029 1.1333 0.93892 0.24998 0.1643 1.4019 0.71189 1.6008 0.54623 1.7559 0.41891 1.8671 0.32403 1.9297 0.25681 6.4525 0.68927 0.86482 0.11146 0.33854 0.080064-5.7787 25.323-0.4621-0.024459-1.1899-0.15567-9.8992-1.3949-6.3966-0.84379-4.1054-0.45174-1.9928-0.16341-1.9476-0.10006-1.8963-0.013031-1.8358 0.10576-1.762 0.26661-1.6697 0.48252-1.5734 0.74759-1.4855 0.96067-1.4209 1.1147-1.3737 1.2249-1.339 1.303-1.3133 1.3579-2.5717 2.8207-4.0516 4.6468-2.6526 2.8961-4.2615 4.4219-11.258 11.48-4.3862 4.6326-2.7831 3.1309-1.2454 1.507-1.1401 1.4927-0.68045 0.98354-0.40744 0.68669-0.057031 0.20922-68.733-20.695-5.4815-1.5312-3.727-0.93464-3.7506-0.8153-3.3743-0.58777-3.394-0.46421-1.703-0.18619-3.8752-0.30687-3.8871-0.1728-2.0372-0.041049-4.0791-0.007526-7.504 0.13878-31.888 0.8867-14.208 0.3179-6.2025 0.10575 0.17883-0.56291-0.10333-0.90579-0.18062-0.63424-0.26262-0.65581-0.52398-0.9354-0.5111-0.65952-0.60105-0.56924-0.77864-0.50685-1.1586-0.49277-1.0057-0.30567-2.6034-0.63786-0.80312-0.25823-0.85884-0.4332-0.55851-0.51867-0.34339-0.84634 0.039183-0.90149 0.32107-1.1283 0.34989-0.88496 1.1165-2.5168 0.69942-1.6841 0.7029-1.9763 0.32896-1.12 0.27301-1.128 0.43394-2.5139 0.15158-1.1811 0.10425-1.148 0.02642-0.5345-0.043389-1.6806-0.20298-1.6501-0.14726-0.78077-0.30886-1.1612-0.33862-0.97268-0.57836-1.4202-0.78307-1.7392-2.7361-5.717-2.122-4.1691-1.5006-2.6639-0.8357-1.3552-0.86973-1.3161-0.71888-1.0183-1.5237-1.9691-1.7414-1.9805-0.93517-0.97478-2.728-2.7055-0.74485-0.93499-0.4918-0.79309-1.9127-3.5016-0.7579-1.6877-0.74503-2.179-0.41185-1.4659-0.46112-2.1371-0.48246-3.032-1.2479-8.6743-0.63013-4.9572-0.20242-2.1739-0.12027-2.1134-0.036556-2.0262 0.016264-1.3381 0.094395-2.3384 0.11408-1.7877 0.46899-5.3967 2.5685-25.504 0.72627-6.6813 0.5748-4.7609 0.15534-1.4215 0.28334-1.7845 0.38406-1.9271 0.22525-0.96537 0.4482-1.6626 2.6511-8.9196 0.79945-2.8815 0.51132-2.0369 0.42011-1.9303 0.29906-1.8282 0.093299-0.91367 0.040999-0.91394-0.03288-1.1229-0.10704-1.1241-0.3594-2.253-0.46841-2.2613-1.5504-6.8584-1.089-5.1828-0.69033-2.7112-0.13665-0.84711 0.02366-0.84493 0.15479-0.85596 0.24328-0.8239 0.284-0.73229 0.26546-0.55693 0.17428-0.26745 4.0273-0.58654 1.653-0.19495 1.8172-0.12658 2.368-0.040277 1.7233 0.055187 1.7477 0.16433 2.1484 0.3392 2.3655 0.47714 2.0094 0.50322 1.8239 0.58235 1.8844 0.78679 1.0348 0.50609 0.8352 0.4556 0.9501 0.59355 0.87236 0.65012 0.85609 0.79261 1.1279 1.1453 0.55469 0.52018 0.72714 0.60514 1.078 0.78848 1.1986 0.59703 1.3975 0.29632 1.5612 0.04856 1.6726-0.1179 5.2767-0.711 1.7254-0.16608 1.6472-0.031587 1.5253 0.17414 1.3514 0.46538 1.0859 0.76536 0.95136 0.99749 1.7779 2.2601 0.9664 1.0625 1.1121 0.86875 1.3253 0.58968 1.4988 0.33793 1.6236 0.13864 1.7073-0.023387 1.7551-0.16196 1.7695-0.29002 1.7506-0.4203 1.6958-0.56599 1.5996-0.7415 1.4534-0.96316 0.64774-0.57386 1.0061-1.1243 0.89259-1.2724 0.79669-1.3932 0.76246-1.6044 0.68032-1.699 0.60648-1.7789 0.55947-1.9276 0.49734-1.9916 0.44522-2.0464 0.3741-1.9472 0.34371-1.9796 0.62242-4.0109 0.55116-3.9551 0.8199-6.3394 0.0935-0.3842 2.0985 2.1021 2.4734 2.5792 2.6653 2.9762 1.1373 1.3613 1.0743 1.3638 0.97069 1.3311 0.87081 1.2862 0.82873 1.3015 1.1789 1.9693 1.1196 1.9759 7.652 14.209 2.1909 3.8444 2.032 3.4324 4.1336 6.7819 3.3065 5.2311 2.3164 3.4748 1.1933 1.6887 1.2292 1.6394 1.2785 1.5722 1.3456 1.4815 0.45393 0.45566 1.7239 1.5381 2.5162 2.0811 1.1453 1.0225 1.1254 1.0646 2.2059 2.2245 2.8513 3.0637 2.8148 3.1498 2.7995 3.1992 16.657 19.283 13.763 15.759" stroke="#bdc660"/>
    </defs>
    <g clip-path="url(#p8de3ba78dc)">
     <use y="280.512" fill="#bdc660" stroke="#bdc660" xlink:href="#mefd84a59bc"/>
    </g>
   </g>
  </g>
 </g>
 <defs>
  <clipPath id="p8de3ba78dc">
   <rect x="7.2" y="7.2" width="306.58" height="266.11"/>
  </clipPath>
 </defs>
</svg>
