<?xml version="1.0" encoding="UTF-8"?>
<!DOCTYPE svg  PUBLIC '-//W3C//DTD SVG 1.1//EN'  'http://www.w3.org/Graphics/SVG/1.1/DTD/svg11.dtd'>
<svg width="333.11pt" height="280.51pt" version="1.1" viewBox="0 0 333.11 280.51" xmlns="http://www.w3.org/2000/svg" xmlns:xlink="http://www.w3.org/1999/xlink">
 <metadata>
  <rdf:RDF xmlns:cc="http://creativecommons.org/ns#" xmlns:dc="http://purl.org/dc/elements/1.1/" xmlns:rdf="http://www.w3.org/1999/02/22-rdf-syntax-ns#">
   <cc:Work>
    <dc:type rdf:resource="http://purl.org/dc/dcmitype/StillImage"/>
    <dc:date>2024-07-04T12:09:35.916647</dc:date>
    <dc:format>image/svg+xml</dc:format>
    <dc:creator>
     <cc:Agent>
      <dc:title>Matplotlib v3.7.1, https://matplotlib.org/</dc:title>
     </cc:Agent>
    </dc:creator>
   </cc:Work>
  </rdf:RDF>
 </metadata>
 <defs>
  <style type="text/css">*{stroke-linejoin: round; stroke-linecap: butt}</style>
 </defs>
 <g id="figure_1">
  <g id="patch_1">
   <path d="m0 280.51h333.11v-280.51h-333.11v280.51z" fill="none"/>
  </g>
  <g id="axes_1">
   <g id="PatchCollection_1">
    <defs>
     <path id="me696789c2f" d="m308.13-194.3 0.41296 0.33238 0.65072 0.83127 0.68158 1.138 0.62034 1.4122 0.34482 0.95628 0.27599 0.97996 0.16744 0.93477 0.13932 1.779-0.03052 1.3834-0.14986 2.2074-0.084103 0.83761-0.18956 1.065-0.48418 1.7433-0.51568 1.2336-0.625 1.1189-0.86184 1.2941-0.58052 1.0247-0.48423 1.1024-0.34799 1.1431-0.40846 2.4976-0.29077 1.1524-1.7189 5.0213-0.8256 2.0006-2.1498 4.6257-2.3322 4.8006-0.45562 0.80909-0.59383 0.82197-1.5679 1.9438-0.53236 0.94599-0.37499 1.2958-0.13968 1.4839 0.017238 1.1476 0.099742 1.2114 0.27045 1.8505 0.63959 3.1645 1.8548 8.2673 1.0238 4.8849-0.2559 0.66256-0.39531 0.77157-1.9797 3.5263-0.5748 1.1039-0.74879 1.6384-0.6689 1.7866-0.53192 1.8878-0.47804 2.3743-0.20688 1.6736-0.23237 3.0152-0.20708 1.3911-0.33901 1.2004-0.58945 1.3209-0.90619 1.5324-1.0321 1.5414-0.80843 1.1031-0.6722 0.76904-1.3422 1.2544-1.0917 0.84603-1.1559 0.7656-1.5422 0.8622-0.12871 0.068849-0.40299-0.15795-0.6133-0.36742-0.85536-0.63816-3.2688-2.6571-1.9974-1.4389-2.2099-1.2941-2.5694-1.0892-2.7338-0.80837-2.8307-0.57755-2.876-0.38874-2.7558-0.2232-2.7359-0.098331-2.6944 0.015967-5.9225 0.25452-5.12-0.045788-1.8848 0.047668-1.8759 0.13013-1.9746 0.24128-2.3076 0.44497-1.0151 0.25786-2.506 0.76283-1.5523 0.57406-6.3162 2.5059-2.3539 0.98245-2.2815 1.0351-4.4348 2.1534-1.9583 0.74346-1.4808 0.37352-1.2924 0.15577-1.0847 0.009059-0.89581-0.074629-1.5533-0.316-1.7645-0.65784-1.3014-0.59906-1.4115-0.73687-2.9041-1.667-1.3931-0.74549-3.8063-1.91-2.5483-1.1869-1.8744-0.75028-1.225-0.56183-1.3124-0.63069-3.7321-1.9319-3.0211-1.423-3.5483-1.8496-0.83416-0.39168-0.80611-0.29543-0.85055-0.16488-0.82378 0.006449-0.51036 0.099338-0.76484 0.27199-1.8651 0.91272-0.9612 0.39309-1.1416 0.32379-1.9872 0.43508-1.0849 0.33225-0.97006 0.51111-0.93358 0.93088-0.51555 0.83801-0.59733 1.3195-0.4719 1.4788-1.5719 7.241-0.30046 1.9967-0.076359 1.5778 0.13325 1.507 0.40496 1.5993 0.7352 1.3668 1.0651 1.1858 0.84003 0.65029 1.5096 0.90465 3.3539 1.7796 1.2104 0.77587 0.87939 0.70331 0.71267 0.71299 0.93365 1.1542 1.429 2.175 1.3657 2.411 2.2108 4.4013 1.5586 3.3473 0.94076 2.1676 0.85264 2.1378 0.72324 2.0763 0.54061 1.9788 0.28338 1.4952 0.28959 2.0846 0.047868 0.7505-0.075135 1.4509-0.25268 1.1541-0.21389 0.64142-0.38647 0.92204-0.78034 1.4787-0.781 1.25-1.0583 1.502-1.3871 1.7222-1.4003 1.5754-1.6619 1.7339-2.0706 2.0056-2.117 1.8888-1.8918 1.5719-7.238 5.717-4.1548 3.3656-3.3546 2.8785-0.82914 0.77791-0.15956 0.18837 0.003533 0.060184-0.34922-0.17729-0.67029-0.23937-2.9411-0.81578-1.6107-0.64028-2.1153-1.1227-4.9923-3.0532-1.9353-1.1177-1.2816-0.61167-0.63796-0.22973-0.63555-0.15288-0.63242-0.048554-0.50642 0.053926-1.0038 0.31344-0.55352 0.26464-0.96649 0.58376-1.0568 0.77962-4.425 3.6998-1.4614 1.083-1.0883 0.69528-1.1885 0.60857-1.2991 0.43917-1.2592 0.22031-0.61778 0.00115-0.49708-0.41783-1.0732-0.71714-1.8153-1.1346-2.6928-1.5788-3.9504-2.1742-6.1343-3.2886-2.4826-1.4011-3.5617-2.2123-3.486-2.4095-3.769-2.7371-0.73406-0.57184-1.4866-1.3248-0.95314-1.0372-1.7021-2.3076-0.8948-1.1335-1.1991-1.2148-1.3535-1.1532-4.9964-3.9228-3.1678-2.7229-1.2957-0.9782-1.3982-0.91689-1.2083-0.70597-1.2518-0.66258-1.8859-0.88183-1.5789-0.63407-1.7413-0.58379-1.1108-0.30374-1.3627-0.29149-1.5936-0.21939-1.3264-0.086157-4.2659-0.06215-1.8797-0.1767-1.9425-0.31468-1.9951-0.40586-11.383-2.444-2.3552-0.36339-1.245-0.10285-2.0509-0.036356-0.88777 0.039071-1.6642 0.17617-1.7115 0.32294-1.9678 0.54377-1.198 0.48753-0.37343 0.22387-0.13412 0.18042 0.037157-0.20112 0.47264-0.82514 2.5938-3.5252 1.072-1.5906 0.75838-1.2281 0.71309-1.3062 0.47554-1.0519 0.71375-1.8881 0.19909-0.72698 0.52024-3.0836 0.89962-3.8284 0.3564-1.8164 0.64652-4.4931 0.2604-1.2507 0.4387-1.5895 1.3516-4.0975 0.68764-2.2918 0.95834-3.6211 0.93684-4.3441 0.41971-1.2448 0.31477-0.61215 0.42782-0.66114 1.4464-1.8927 0.69135-0.99666 1.1054-1.8462 0.44738-0.85642 1.0078-2.2704 1.3911-3.673 0.60446-1.4543 1.2034-2.5582 1.7297-4.0753 0.8299-1.6323 0.93096-1.5826 1.0294-1.4775 2.5367-3.0834 1.2033-1.6216 0.45416-0.70879 0.68899-1.2933 1.349-2.8545 0.40164-1.0208 0.27898-0.89989 0.37179-1.4596 0.25506-1.4905 0.059375-1.4651-0.22772-1.3815-0.60002-1.265-0.4949-0.65127-0.31291-0.33186-0.72836-0.64051-0.80908-0.56588-1.3729-0.75383-3.1447-1.5728-1.1407-0.64425-1.0627-0.7433-1.2912-1.1796-2.1651-2.2105-0.94761-0.86436-2.1019-1.6381-1.7339-1.1421-0.88212-0.50295-3.2259-1.6814-1.14-0.48458-2.5585-0.88099-1.1365-0.32682-0.82858-0.17681-2.7392-0.42498-0.86335-0.22085-1.2509-0.54293-0.86151-0.58054-0.76208-0.75554-0.4409-0.6341-0.33816-0.642-0.36602-0.92885-0.39339-1.5259-0.18787-1.2087-0.10947-1.2759-0.024703-1.8196 0.063901-1.3502 0.15993-1.7356 0.23723-1.7735 0.33816-1.9846 0.77658-3.6171 0.89329-3.4177 1.0028-3.1883 1.38-3.7007 1.4609-3.2941 5.6943-11.216 1.5651-3.3836 1.3665-3.1763 0.87926-1.726 1.3736-2.3441 1.2573-1.9556 2.617-3.7635 3.8925-5.2873 1.7264-2.4861 2.3491-3.5166 0.76594-1.2141 0.27601-0.54544 0.10682-0.17219 0.40204-0.15482 1.0957-0.17087 3.2258-0.27122 4.4518-0.57248 4.8795-0.35236 2.3508-0.26923 1.8814-0.39261 2.5793-0.68972 1.661-0.59462 1.6644-0.84354 2.8151-1.6912 1.4512-0.80081 1.4994-0.66462 1.4928-0.45862 1.5234-0.33147 1.9236-0.2876 1.4409-0.062485 1.4501 0.057818 1.4363 0.15261 6.6056 1.1795 1.9978 0.4993 1.8868 0.58915 4.0964 1.4151 2.9451 0.91568 2.8315 0.69697 2.7683 0.46868 5.3677 0.68379 2.0829 0.35229 2.565 0.60038 4.0331 1.2416 1.7786 0.47068 1.7581 0.32769 1.7156 0.11413 1.425-0.10994 1.8594-0.40805 1.0061-0.39535 0.98594-0.50886 1.7196-1.1267 1.6877-1.319 4.0297-3.4334 0.69807-0.54289 1.1508-0.77597 1.1745-0.58823 1.1038-0.30778 5.3489-0.54484 3.0008-0.23262 2.8699-0.32349 9.4178-1.7496 1.9948-0.32176 1.9188-0.38997 3.4758-1.1245 0.8293-0.21009 1.1341-0.15986 1.8479 0.1055 1.9039 0.42988 6.8554 2.2539 3.8473 1.1467 1.4619 0.58431 0.84149 0.41602 1.5027 0.83639 1.6809 0.84053 3.3864 1.4711 1.9792 0.73724 1.1431 0.30697 1.8298 0.34193 1.3369 0.14107 1.4229-0.021952 1.2689-0.23038 0.96231-0.29226 0.84166-0.34645 0.923-0.50022 1.4831-1.0494 1.8811-1.5465 2.5075-2.182 1.2484-1.0023 1.3298-0.91922 0.77317-0.45189 0.9609-0.44454 2.1896-0.86527 0.69309-0.3568 1.5238-1.1053 2.7669-2.3548 0.80067-0.57516 0.8488-0.48062 1.3312-0.48926 1.2268-0.24674 2.969-0.33823 0.97702-0.059257 1.9871-0.063491 2.0098 0.022746 5.0495 0.40459 3.3017 0.46831 16.003 1.0638 3.7642 0.38481 3.4332 0.54998 1.799 0.39556 2.05 0.57196 1.4248 0.49524 1.3617 0.57269 1.3082 0.67366 1.2125 0.77639 1.511 1.2986 0.62357 0.71275 0.55789 0.763 0.83113 1.4252 0.58582 1.2848 0.66903 1.8811 0.36191 1.2765 0.41728 1.7779 0.38301 1.9588 0.42336 2.5118 1.2514 8.739 0.60918 3.7513 0.51403 2.739 0.60831 2.748 0.48753 1.8914 0.54576 1.8897 0.94082 2.8489 0.81466 2.1554 1.2323 2.9071 1.0127 2.1674 1.2304 2.4122 1.3702 2.5059 2.5412 4.3617 1.9797 3.1813 0.74404 1.0684 0.2744 0.28238" stroke="#bdc660"/>
    </defs>
    <g clip-path="url(#pf65e5d5245)">
     <use y="280.512" fill="#bdc660" stroke="#bdc660" xlink:href="#me696789c2f"/>
    </g>
   </g>
  </g>
 </g>
 <defs>
  <clipPath id="pf65e5d5245">
   <rect x="7.2" y="7.2" width="318.71" height="266.11"/>
  </clipPath>
 </defs>
</svg>
