<?xml version="1.0" encoding="UTF-8"?>
<!DOCTYPE svg  PUBLIC '-//W3C//DTD SVG 1.1//EN'  'http://www.w3.org/Graphics/SVG/1.1/DTD/svg11.dtd'>
<svg width="371.52pt" height="275.8pt" version="1.1" viewBox="0 0 371.52 275.8" xmlns="http://www.w3.org/2000/svg" xmlns:xlink="http://www.w3.org/1999/xlink">
 <metadata>
  <rdf:RDF xmlns:cc="http://creativecommons.org/ns#" xmlns:dc="http://purl.org/dc/elements/1.1/" xmlns:rdf="http://www.w3.org/1999/02/22-rdf-syntax-ns#">
   <cc:Work>
    <dc:type rdf:resource="http://purl.org/dc/dcmitype/StillImage"/>
    <dc:date>2024-07-04T12:09:45.526913</dc:date>
    <dc:format>image/svg+xml</dc:format>
    <dc:creator>
     <cc:Agent>
      <dc:title>Matplotlib v3.7.1, https://matplotlib.org/</dc:title>
     </cc:Agent>
    </dc:creator>
   </cc:Work>
  </rdf:RDF>
 </metadata>
 <defs>
  <style type="text/css">*{stroke-linejoin: round; stroke-linecap: butt}</style>
 </defs>
 <g id="figure_1">
  <g id="patch_1">
   <path d="m0 275.8h371.52v-275.8h-371.52v275.8z" fill="none"/>
  </g>
  <g id="axes_1">
   <g id="PatchCollection_1">
    <defs>
     <path id="m660bff11d5" d="m324.58-191.86 0.31276 0.25484 0.54513 0.59125 1.7528 2.1297 0.63932 0.88277 2.3961 3.7242 1.0012 1.4589 1.2884 1.5211 1.2092 1.1637 1.712 1.3389 1.7168 1.1016 1.0689 0.59403 1.0308 0.49384 2.5559 0.97748 0.67574 0.35595 1.5669 1.0422 0.73096 0.42189 2.0879 0.93834 0.50544 0.3312 0.2902 0.32366 0.27288 0.53307 0.12031 0.49984 0.029403 0.63159-0.14483 1.238-0.61156 3.2728-0.28756 1.4305-1.1071 4.746-0.3151 1.624-0.24291 1.6337-0.099563 1.1441-0.006966 1.3254 0.08381 1.336 0.53114 3.0055 0.036388 1.2503-0.071791 0.49297-0.42352 1.3345-0.61274 1.2983-0.46813 0.86827-0.64222 1.0399-1.3685 1.9626-1.2518 1.5626-2.7231 3.1101-1.2839 1.54-0.94735 1.2791-1.7347 2.5435-1.0814 1.2329-1.1427 1.0313-1.9066 1.423-1.0521 0.87278-0.95847 0.97284-0.53667 0.67242-0.49548 0.74821-0.28376 0.65572 0.086223 0.63009-0.54369 0.33671-4.1449 3.0568-3.4269 2.4565-2.9125 2.0191-3.4163 2.2492-2.2741 1.3573-2.0635 1.0658-1.2641 0.54417-1.2346 0.42625-1.6552 0.35841-1.5896 0.03353-0.46189-0.062922-1.0765-0.28174-1.3076-0.57644-1.5065-0.89964-4.8134-3.2911-1.2062-0.72118-1.04-0.55144-1.3659-0.62318-1.4089-0.52462-2.3883-0.65782-1.7909-0.38051-2.4687-0.36063-2.5389-0.21747-2.5876-0.11074-2.6196-0.02971-2.6381 0.034643-5.2874 0.23481-2.6281 0.20476-2.6022 0.27871-2.5622 0.37521-2.5043 0.5046-2.4238 0.67934-2.3143 0.91453-2.2566 1.2455-2.1403 1.4932-2.0553 1.6728-1.9943 1.8009-1.9513 1.8905-1.9218 1.9516-11.354 12.115-3.8581 3.9626-1.9757 1.9238-2.0233 1.8652-1.9441 1.668-1.0965 0.88092-1.9972 1.5076-2.0858 1.4776-4.0804 2.7307-6.1091 3.9212-8.5947 5.3833-4.162 2.5329-4.0024 2.2765-1.9456 0.98443-2.8209 1.3286-1.327 0.75719-1.6113 1.229-1.4942 1.4813-1.3885 1.6832-1.2849 1.8442-1.1737 1.9717-1.0441 2.0715-0.83571 2.0166-0.34254 0.9952-0.44235 1.6022-0.12086 0.572-0.31421 2.7984 0.001618 2.1771 0.62195 9.8185-0.063892 0.88478-0.21359 0.33135-0.10394-0.019807-0.29396 0.093569-1.3314 0.6086-3.165 1.2988-1.1065 0.36033-0.68927 0.15828-0.98968 0.11513-0.87888-0.045663-0.19779-0.03424-1.4891-0.55166-1.4508-0.96513-1.7-1.5558-1.6241-1.9164-0.95802-1.3088-1.9007-2.8678-0.95672-1.2647-1.0373-1.1315-2.5708-2.3683-1.721-1.6678-1.0395-0.87111-1.1155-0.81124-1.1676-0.73039-1.3743-0.79506-1.4356-0.72608-1.4557-0.59634-3.2112-1.1512-1.3821-0.41777-1.1066-0.25492-6.5186-1.1078-0.58138-0.14436-1.7751-0.63688-1.7259-0.88757-0.73662-0.45454-2.0561-1.4044-2.2772-1.6521-1.7172-1.1551-0.72588-0.44059-1.7679-0.88104-1.2229-0.45596-1.7382-0.43167-1.315-0.13543-1.2254 0.073432-1.282 0.35728-1.2225 0.53428-1.6916 0.85578-0.90121 0.57975-1.4671 1.1024-3.1811 2.5457-0.69944 0.61767-1.0618 1.0759-0.45184 0.53897-0.93905 1.3568-2.5789 4.5548-0.74037 1.1394-6.3177 9.2376-0.84526 1.3395-2.4709 4.1967-0.77131 1.0986-0.44408 0.53505-0.71978 0.74791-0.70309 0.62606-0.77086 0.59864-1.6308 1.0538-1.7236 0.874-1.0975 0.47435-2.0265 0.8041-2.038 0.72393-1.7514 0.52059-1.1271 0.24121-1.0904 0.16418-1.7018 0.13493-2.315-0.006757-1.1369-0.063706-1.4352-0.1237-2.5929-0.32051-3.6939-0.60705-3.7576-0.73969-2.3771-0.56662-1.7181-0.49732-1.356-0.46319-1.9487-0.79522-0.92529-0.44308-1.0795-0.59241-0.64423-0.40594-0.92236-0.67499-0.65616-0.56836-0.78984-0.80044-0.51762-0.60116-0.86971-1.1603-1.234-1.9906-0.93218-1.8044-0.44337-0.97948-0.59316-1.4816-0.48538-1.4139-0.37044-1.2473-0.38087-1.5068-0.41709-2.0533-2.1662-12.818-0.23481-0.99406-0.1012-0.086088-0.98147-4.6828-1.778-7.9252-0.61313-3.0336-0.25926-1.7739-0.095614-1.1613-0.016525-1.1002 0.1339-1.4225 0.35948-1.2422 0.51033-0.90684 1.503-1.8634 0.56926-0.78796 0.43676-0.77561 2.2357-4.602 2.0608-4.4343 0.79144-1.9179 1.6478-4.8135 0.27874-1.1048 0.39156-2.3943 0.33359-1.0958 0.46419-1.0568 0.5565-0.98226 0.82618-1.2406 0.59914-1.0726 0.49434-1.1825 0.46414-1.6711 0.18172-1.021 0.080624-0.80295 0.14365-2.1161 0.029258-1.3262-0.13356-1.7054-0.16052-0.89609-0.26457-0.93942-0.33055-0.91671-0.59468-1.3538-0.65338-1.0909-0.6238-0.79688-0.39587-0.31863 0.74705-0.27165 3.3836-0.90245 5.4551-1.3672 2.5668-0.56119 4.3653-0.81062 5.7714-0.74411 1.2392-0.21927 3.9137-0.83849 3.5806-0.64956 1.3245-0.35348 0.94998-0.34977 3.1999-1.4461 2.3086-0.92418 1.5355-0.46193 1.7341-0.34079 1.2086-0.1175 1.0513-0.044855 1.78 0.02009 0.66616 0.056663 1.1541 0.19429 1.0603 0.2963 0.75776 0.27032 0.79083 0.33144 1.5815 0.8302 2.3518 1.6011 1.1573 0.73782 1.4548 0.7005 1.457 0.49226 2.7258 0.60004 0.74438 0.10734 0.3683 0.005475 0.55908-0.11077 0.28723-0.14959 0.17945-0.15488 0.1926-0.28093 0.1147-0.39387-0.058371-0.66343-0.1677-0.42901-0.31509-0.53069-0.80879-0.97196-1.0767-1.0105-4.9491-4.0127-1.4337-1.3149-0.95166-0.98834-0.82218-0.96938-0.72331-0.97327-0.60044-0.92098-0.70381-1.2824-0.54592-1.292-0.27952-0.89832-0.37634-1.7005-0.27503-1.9056-0.11079-1.467 0.061359-1.483 0.27512-1.696 1.2838-5.5273 1.6583-6.5519 1.8939-7.8465 1.4337-5.2134 0.52083-2.342 0.22563-1.8105 0.030888-1.9149-0.21112-1.7045-0.15812-0.62342-0.34167-1.0261-0.38747-0.98487-0.3861-0.77954-0.88222-1.5078-0.16221-0.34421-0.26319-0.89686-0.024906-0.66205 0.073796-0.63034 0.7872-3.4673 0.18164-1.1066 0.047034-0.63636-0.031545-0.75446-0.12358-0.58612-0.30931-0.7005-0.30842-0.47379-0.70974-0.85872-1.5854-1.7346-0.42188-0.55984-0.21858-0.3675-0.16542-0.38871-0.075295-0.31311-0.004622-0.4368 0.12984-0.4453 0.19238-0.34608 0.35487-0.44357 0.68066-0.60829 1.1309-0.7502 1.0942-0.60529 2.8853-1.381 2.1241-0.88288 2.0461-0.7708 14.345-5.0421 2.5215-0.92059 1.9598-0.76967 1.7545-0.90726 0.58132-0.40671 0.6054-0.51461 0.57863-0.60982 0.42977-0.56064 0.45933-0.74782 0.34782-0.72154 0.42505-1.2164 0.20917-0.90702 0.16572-1.3264 0.025896-1.1522-0.072502-1.1144-0.21309-1.3532-0.34709-1.3667-0.43667-1.2877-0.83102-1.9571-0.75496-1.5412-3.7406-6.8094-5.23-10.117-1.0288-2.2899-0.41561-1.1824-0.071747-0.28513 0.048328-0.45641 0.48603 0.061053 8.0211 0.15781 6.8965 0.22838 4.9019 0.29336 2.6787 0.24881 2.5617 0.33881 2.4163 0.46078 2.2385 0.6226 2.0214 0.83397 1.0627 0.5976 1.8967 1.3008 1.2528 1.0093 2.6483 2.3069 6.8573 6.5962 1.2109 1.2503 1.563 1.747 1.2496 1.3025 1.817 1.6617 1.4792 1.1534 1.3274 0.80203 0.76595 0.33088 0.96942 0.26319 0.99904 0.079246 0.65502-0.039892 0.7976-0.15117 0.90725-0.29482 0.60646-0.26443 1.0873-0.67114 0.27296-0.21526 0.60297-0.58433 1.4085-1.7747 0.51669-0.4596 0.62025-0.39315 0.67757-0.28758 0.82053-0.24203 0.88082-0.19297 0.88242-0.13135 3.0947-0.35772 3.1443-0.58208 1.475-0.14746 0.93583 0.015469 0.64539 0.081945 1.3249 0.34534 1.3516 0.55031 1.3653 0.71389 2.0602 1.3118 6.1621 4.4692 4.9744 3.3254 1.4225 1.0835 0.77391 0.66557 0.68715 0.64309 1.0172 1.0514 2.5138 2.8571 4.2022 4.4214 4.8393 5.6741 1.9947 2.1299 0.96222 0.89728 1.1035 0.85676 0.83578 0.49567 1.0361 0.37943 0.86548 0.11514 0.55285-0.004249 0.71921-0.08018 0.78192-0.16886 0.70286-0.21428 1.0998-0.43935 2.0602-1.0866 2.7083-1.5901 6.3836-4.0543 1.4317-0.80353 1.2424-0.60325 1.247-0.48472 1.0915-0.31126 0.99354-0.22666 7.4039-1.5115 2.0146-0.45123 1.9694-0.53906 1.6211-0.56201 1.3807-0.58756 1.5287-0.81487 1.0905-0.75392 0.57258-0.49763 0.55055-0.59974 0.88456-1.3676 1.0499-2.0505 0.97727-1.7447 1.7184-2.6679 0.56626-0.78445 0.57674-0.6871 0.81673-0.69268 0.59421-0.28649 1.2886-0.13705 1.4684 0.30904 1.5963 0.66062 1.6798 0.9416 1.7244 1.1725 1.6683 1.3089 2.6978 2.3766 1.9682 1.8727 1.9597 1.9609 1.9389 2.0334 1.9039 2.1002 2.2528 2.6622 1.7024 2.1676 1.6554 2.2175 3.2106 4.5323 6.4663 9.6195 1.4812 2.0641 1.565 1.8781 1.7074 1.5925 1.907 1.1891 2.1374 0.70213 2.2684 0.28067 2.2556-0.037781 2.051-0.25115 1.5772-0.34147 0.72588-0.28286" stroke="#bdc660"/>
    </defs>
    <g clip-path="url(#p0782cc2486)">
     <use y="275.804836" fill="#bdc660" stroke="#bdc660" xlink:href="#m660bff11d5"/>
    </g>
   </g>
  </g>
 </g>
 <defs>
  <clipPath id="p0782cc2486">
   <rect x="7.2" y="7.2" width="357.12" height="261.4"/>
  </clipPath>
 </defs>
</svg>
