<?xml version="1.0" encoding="UTF-8"?>
<!DOCTYPE svg  PUBLIC '-//W3C//DTD SVG 1.1//EN'  'http://www.w3.org/Graphics/SVG/1.1/DTD/svg11.dtd'>
<svg width="288.32pt" height="280.51pt" version="1.1" viewBox="0 0 288.32 280.51" xmlns="http://www.w3.org/2000/svg" xmlns:xlink="http://www.w3.org/1999/xlink">
 <metadata>
  <rdf:RDF xmlns:cc="http://creativecommons.org/ns#" xmlns:dc="http://purl.org/dc/elements/1.1/" xmlns:rdf="http://www.w3.org/1999/02/22-rdf-syntax-ns#">
   <cc:Work>
    <dc:type rdf:resource="http://purl.org/dc/dcmitype/StillImage"/>
    <dc:date>2024-07-04T12:09:47.285057</dc:date>
    <dc:format>image/svg+xml</dc:format>
    <dc:creator>
     <cc:Agent>
      <dc:title>Matplotlib v3.7.1, https://matplotlib.org/</dc:title>
     </cc:Agent>
    </dc:creator>
   </cc:Work>
  </rdf:RDF>
 </metadata>
 <defs>
  <style type="text/css">*{stroke-linejoin: round; stroke-linecap: butt}</style>
 </defs>
 <g id="figure_1">
  <g id="patch_1">
   <path d="m0 280.51h288.32v-280.51h-288.32v280.51z" fill="none"/>
  </g>
  <g id="axes_1">
   <g id="PatchCollection_1">
    <defs>
     <path id="m1d3eee29ad" d="m206.8-260.81 0.14816 0.67427 0.31703 2.417 0.56349 3.5885 0.3944 2.2597 0.88364 4.6701 0.83387 4.0714 0.86102 3.9841 0.98155 4.3079 1.0327 4.1916 1.0737 3.8793 0.58562 1.9028 0.62993 1.8763 0.64267 1.7436 0.68569 1.7205 1.4848 3.3782 0.79873 1.6572 1.6785 3.178 0.89288 1.5564 0.92973 1.5328 0.97071 1.506 1.0749 1.5584 1.1219 1.5259 1.1659 1.4942 1.21 1.4611 2.4171 2.6914 2.5134 2.6179 8.7074 8.7956 2.068 2.205 1.0708 1.2103 1.4524 1.7827 0.8692 1.2062 0.46739 0.72737 0.42215 0.73694 0.33171 0.66676 0.27357 0.65455 0.19243 0.57186 0.21756 0.98877 0.0499 0.5274 0.0033 0.52358-0.058395 0.70705-0.10236 0.62187-0.34666 1.3266-0.48823 1.348-0.66622 1.5259-0.7517 1.5424-2.4961 4.7914-1.2002 2.4598-0.47905 1.1089-0.41407 1.091-0.32167 1.0305-0.2254 1.0034-0.10176 1.521 0.1144 0.79658 0.30684 0.86926 0.48919 0.8572 0.2502 0.35271 1.0754 1.2432 0.63381 0.62382 1.5413 1.3576 1.9012 1.4949 1.5424 1.1099 1.9371 1.3001 3.8796 2.5146 1.5959 1.1499 1.1348 0.913 0.92368 0.80221 1.1533 1.0866 1.1187 1.1312 1.6551 1.8055 0.91837 1.0835 1.2541 1.6567 0.56468 0.84792 0.32626 0.5375 0.85529 1.6144 1.0909 2.3292 0.97196 2.2867 0.16489 0.34214 0.10109 0.10076-0.028889 0.48125-0.29909 1.024-0.5308 1.3125-0.41191 0.82693-0.48097 0.83288-0.61897 0.91563-0.76601 0.95411-0.83046 0.90859-1.0699 1.0613-0.70623 0.62316-1.0183 0.80375-1.0975 0.72466-1.1704 0.62547-1.6557 0.66732-1.7323 0.50247-1.7759 0.36714-1.792 0.25363-1.7844 0.15459-6.6776 0.21902-1.3472 0.090196-1.5832 0.16468-0.94093 0.15287-0.93438 0.21056-2.5009 0.7797-0.54673 0.11179-0.77083 0.076643-0.81554-0.013842-0.55955-0.063501-2.7811-0.54182-2.1649-0.47693-0.93914-0.11898-0.64903-0.010935-0.97696 0.11926-1.0153 0.30459-0.83339 0.41357-0.74953 0.55985-0.35935 0.36536-0.69277 0.98034-0.54334 1.1463-0.31182 0.89519-0.6727 2.6172-1.1758 4.0662-0.33934 1.4665-0.21234 1.2722-0.11211 1.2753-0.013832 0.66681 0.12634 3.2279 0.044394 3.2112 0.1638 1.9105 0.15225 1.1036 0.16216 0.83933 0.37551 1.4038 0.53821 1.3618 1.0098 1.9724 1.0042 1.655 1.9807 3.1187 0.61233 1.1096 0.2646 0.66185-0.004193 0.33942-0.33512 0.21369-0.73353 0.32837-2.3696 0.98141-3.8218 1.4417-1.0975 0.54368-1.0933 0.64967-1.085 0.73401-1.0744 0.7988-1.06 0.8434-3.9833 3.3462-3.6945 2.9821-2.3269 1.8104-1.2816 0.93904-2.0938 1.4383-1.8888 1.2176-8.0327 4.9341-1.9041 1.2171-1.8229 1.2436-1.8775 1.3785-2.0699 1.6668-1.463 1.2944-1.7302 1.6717-2.8203 2.9307-0.55261 0.51867-0.6913 0.57626-0.47719 0.3509-0.95302 0.60136-1.1381 0.59432-4.9563 2.2692-2.3115 1.1334-1.4062 0.76142-1.3239 0.7956-1.4007 0.94572-0.57951 0.43024-1.1428 0.93189-0.83283 0.75946-0.5571 0.55974-0.38207 0.43331-0.14527 0.20711-0.024067 0.10953-0.49693-0.20414-0.73154-0.69507-0.82288-1.0327-0.78738-1.2719-0.64877-1.4475-0.38049-1.2862-0.12279-0.54904-0.30835-1.9432-0.16377-1.5152-0.33863-5.3168-0.12462-1.1424-0.27911-1.8204-0.40406-1.8184-0.43313-1.3685-0.55768-1.2914-0.86578-1.4518-0.63125-0.84422-0.68593-0.79084-1.1609-1.1224-0.83098-0.68326-2.7835-2.1685-0.9329-0.7733-1.4464-1.2932-2.04-1.9083-0.79412-0.61248-0.82253-0.46606-1.1806-0.33502-1.1942-0.011409-1.1241 0.29127-0.96517 0.59611-0.64919 0.75694-0.51853 0.92767-0.44021 1.0364-0.36947 1.041-0.27471 1.1133-0.11334 0.93532-0.037586 0.99314 0.033311 1.454 0.23182 4.1215-0.002315 1.4777-0.12321 1.4398-0.29867 1.3791-0.327 0.89339-0.55564 1.1293-0.46304 0.7753-0.70845 1.0372-0.92787 1.2261-2.4163 3.0028-2.0641 2.7012-0.59028 0.83134-0.54915 0.89851-0.47137 0.9216-0.59702 1.4221-1.0205 2.5865-0.43262 1.2698-0.64047 2.1765-0.42946 0.97091-0.55254 0.77797-0.70172 0.66321-1.1985 0.71028-1.1011 0.36886-1.1055 0.1571-0.62253 3.8e-4 -0.81385-0.078014-0.85444-0.1746-2.0941-0.58766-1.2365-0.29298-1.3355-0.25131-1.4088-0.20653-1.2632-0.14056-2.6404-0.17422-3.061-0.091133-2.5469-0.040401-2.8014 0.030864-0.69383-0.098637-0.24582-0.146 0.042561-0.13111-0.15497-0.27031-1.3958-1.5369-0.74144-0.89038-0.74082-1.0092-0.68195-1.0978-0.34574-0.65337-0.40884-0.84636-0.58191-1.4103-0.84261-2.4879-0.90534-3.2362-0.38487-1.7254-0.22192-1.2623-0.4229-2.841-0.13824-0.77896-0.28007-1.223-0.29151-0.92908-0.25768-0.68195-0.30958-0.64104-0.37535-0.58029-0.754-0.87848-0.77043-0.71689-0.81581-0.668-2.54-1.9408-0.6985-0.41516-0.39746-0.18037-0.68184-0.18844-0.68999-0.026395-0.66891 0.16613-0.78232 0.51659-0.71983 0.79676-0.67327 1.0056-0.63932 1.1605-0.61528 1.275-1.1878 2.784-1.1648 2.9852-6.5614 17.74-2.0205-0.59406-2.7077-0.91526-1.114-0.43901-1.1066-0.49658-0.88338-0.45936-0.82653-0.50519-0.60829-0.4411-0.47308-0.40222-0.51096-0.51518-1.4576-1.7765-0.93887-0.9875-0.48812-0.44243-0.53229-0.41806-0.80266-0.49343-1.6955-0.84852-0.79887-0.44989-0.61963-0.43364-0.67991-0.5525-0.76242-0.80349-0.38958-0.52325-0.2971-0.47031-0.24856-0.50644-0.20987-0.66655-0.13355-0.72945-0.12722-1.596-0.083316-2.8371-0.086511-1.4761-0.14961-1.2312-0.12923-0.70387-0.25468-1.0128-0.59971-1.6957-0.63112-1.3451-0.31499-0.53379-0.5293-0.71136-0.6316-0.59326-0.56716-0.35688-0.37404-0.18072-1.0631-0.38038-1.1457-0.24973-1.3078-0.11785-1.6173 0.030609-1.1981 0.12813-0.82933 0.14954-0.77482 0.19156-0.6204 0.19622-0.3972 0.17095-0.081885-0.18673-0.49238-2.8436-0.78988-3.5544-0.19267-1.1349-0.069973-1.0885 0.020943-2.7151-0.12798-2.0495-0.55581-4.8036-0.27664-1.5091-0.2464-1.0846-0.29879-1.0851-0.44576-1.3318-0.55955-1.4745-0.66682-1.5841-0.8026-1.6632-0.55195-0.99871-0.51416-0.84166-0.76122-1.1093-0.066405-0.48527 0.21854-0.50501 0.3816-0.57624 0.41332-0.51787 0.73817-0.74924 0.81027-0.67218 1.4684-1.0959 0.88002-0.79423 0.83287-0.94953 1.336-1.9589 0.72961-0.98511 0.98882-1.186 2.0972-2.3953 0.96405-1.2034 1.054-1.5115 0.49461-0.80088 0.36054-0.66871 0.47191-0.99989 0.32618-1.0278 0.055291-0.37967-0.028025-0.96295-0.40906-2.3147-0.064547-1.029 0.005365-1.0208 0.076679-0.88112 0.18708-1.2582 0.24267-1.2507 0.85262-3.6551 0.22147-1.1017 0.471-2.5206 0.11154-0.95345-0.022645-0.48642-0.092661-0.38496-0.21016-0.41055-0.2235-0.24927-0.38927-0.25508-1.608-0.72267-0.56295-0.32492-1.2067-0.80264-0.52043-0.27414-1.9685-0.75282-0.79387-0.38033-0.82321-0.4575-1.3222-0.84841-1.3185-1.0311-0.9313-0.89627-0.99227-1.1715-0.7711-1.1236-1.8454-2.8682-0.49238-0.67988-1.3499-1.6402-0.41984-0.45536-0.24088-0.19626 0.42507-0.14877 4.9368-1.0142 3.5066-0.85053 1.1919-0.33389 2.055-0.65498 0.8257-0.30061 1.5191-0.63613 1.3823-0.71895 0.96502-0.63171 0.84545-0.69985 0.90856-1.0507 0.55318-1.0041 0.28487-0.76182 0.18702-0.67699 0.15384-0.72946 0.18462-1.1795 0.58832-5.5019 0.26365-2.0361 0.36509-2.0978 0.9722-4.8848 0.21995-1.51 0.098382-1.3288-0.031053-1.9357-0.16165-1.8087-0.36027-2.4461-0.86875-4.9549-0.18502-1.2895-0.14572-1.3395-0.080329-1.3951 9.69e-4 -0.90532 0.068822-1.091 0.32275-2.5587 0.41523-2.3555 0.41509-1.7526 0.54011-2.05 1.1026-3.8606 0.46919-1.7864 0.33324-1.6163 0.1037-0.75832 0.052899-0.85063-0.020706-0.68651-0.051468-0.44584-0.30855-1.1939-0.4462-1.0344-0.41284-0.76622-2.0589-3.2566-0.66306-1.1779-0.69668-1.6005-0.42228-1.6869-0.083896-1.7159 0.11919-1.678 0.65151-5.0314 0.3396-3.1068 0.2574-3.2308 0.1925-3.2484 0.040647-1.3133-0.029619-0.28263-0.040682-0.035824 0.33217-0.021115 0.7622 0.28876 2.6977 1.3615 1.2447 0.49667 1.183 0.2739 3.0441 0.39574 0.59634 0.046889 1.4236-0.023139 4.0632-0.36921 2.4749-0.3568 0.7484-0.20625 0.69097-0.29853 0.62878-0.35821 0.45903-0.3074 0.69764-0.5671 1.1487-1.1659 0.98956-1.1657 5.1071-6.3578 1.5013-1.7178 1.0328-1.0725 2.1688-2.0561 1.0722-0.9639 1.6622-1.4206 2.3381-2.1737 2.3772-2.1474 0.58334-0.57892 0.50898-0.57025 0.38693-0.51959 0.6483-1.1683 0.33953-0.53932 0.42474-0.42165 0.45394-0.22788 0.12244-0.024112 0.33698 0.018005 0.23381 0.12199 0.037403 0.19791 0.11326 0.21592 0.50305 0.59277 0.53643 0.45282 0.84546 0.53159 0.83634 0.36427 1.1429 0.26006 0.67396 0.025268 0.85194-0.085922 0.48337-0.098936 0.90845-0.26697 1.1975-0.47223 2.0965-0.96756 1.7124-0.70958 1.5679-0.52535 0.69184-0.19354 0.98422-0.20335 1.0006-0.12871 0.78215-0.053524 1.7248 3.68e-4 0.60888 0.0386 1.2292 0.15389 0.7786 0.16752 0.71599 0.24591 0.8922 0.50355 2.5425 2.025 0.8156 0.5018 1.8623 1.0043 0.99286 0.59789 0.68111 0.48013 1.9972 1.6183 1.1126 0.73511 1.2337 0.68099 1.3172 0.63206 1.3675 0.58515 2.7766 1.0302 0.71472 0.23052 1.4029 0.3697 1.3753 0.19929 1.3383-0.012487 1.0014-0.11613 0.81141-0.17111 0.59385-0.18284 1.103-0.50541 0.63332-0.42129 0.71053-0.65346 0.4927-0.57396 1.1255-1.4867 0.6138-0.74243 0.66693-0.66869 1.0486-0.72179 0.78379-0.29738 0.84926-0.1599 0.45298-0.032866 0.6493 0.001892 1.3158 0.11968 1.1619 0.19898 1.518 0.34508 1.8832 0.56971 1.164 0.42163 2.5678 1.0096 2.4744 0.88412 2.1431 0.63789 2.2187 0.53417 1.4523 0.2777 1.4576 0.21821 1.0763 0.11838 1.0765 0.07417 1.521 0.023394 1.9264-0.060121 1.6929-0.10513 4.3265-0.36628 4.7544-0.62544 2.2329-0.39981 2.3902-0.55395 2.4874-0.64971 1.1669-0.33413 0.99959-0.34156 1.7852-0.7438 1.5472-0.75126 1.6148-0.92052 1.1201-0.73715 1.103-0.7909 2.0376-1.5834 1.3734-1.1805 1.4458-1.4083 1.3772-1.4203 1.3469-1.3268 1.3447-1.1132 1.3536-0.77044 0.59993-0.20447 0.64118-0.13389 0.58137-0.053283 0.58824 0.013648 0.48181 0.078099 0.54833 0.31515" stroke="#bdc660"/>
    </defs>
    <g clip-path="url(#pc2ed166c42)">
     <use y="280.512" fill="#bdc660" stroke="#bdc660" xlink:href="#m1d3eee29ad"/>
    </g>
   </g>
  </g>
 </g>
 <defs>
  <clipPath id="pc2ed166c42">
   <rect x="7.2" y="7.2" width="273.92" height="266.11"/>
  </clipPath>
 </defs>
</svg>
