<?xml version="1.0" encoding="UTF-8"?>
<!DOCTYPE svg  PUBLIC '-//W3C//DTD SVG 1.1//EN'  'http://www.w3.org/Graphics/SVG/1.1/DTD/svg11.dtd'>
<svg width="296.12pt" height="280.51pt" version="1.1" viewBox="0 0 296.12 280.51" xmlns="http://www.w3.org/2000/svg" xmlns:xlink="http://www.w3.org/1999/xlink">
 <metadata>
  <rdf:RDF xmlns:cc="http://creativecommons.org/ns#" xmlns:dc="http://purl.org/dc/elements/1.1/" xmlns:rdf="http://www.w3.org/1999/02/22-rdf-syntax-ns#">
   <cc:Work>
    <dc:type rdf:resource="http://purl.org/dc/dcmitype/StillImage"/>
    <dc:date>2024-07-04T12:09:37.209532</dc:date>
    <dc:format>image/svg+xml</dc:format>
    <dc:creator>
     <cc:Agent>
      <dc:title>Matplotlib v3.7.1, https://matplotlib.org/</dc:title>
     </cc:Agent>
    </dc:creator>
   </cc:Work>
  </rdf:RDF>
 </metadata>
 <defs>
  <style type="text/css">*{stroke-linejoin: round; stroke-linecap: butt}</style>
 </defs>
 <g id="figure_1">
  <g id="patch_1">
   <path d="m-0 280.51h296.12v-280.51h-296.12v280.51z" fill="none"/>
  </g>
  <g id="axes_1">
   <g id="PatchCollection_1">
    <defs>
     <path id="mc8773b0ba5" d="m228.15-234.02 1.1473 2.3363 6.1365 11.75 1.3772 2.4523 0.86142 1.4429 1.3356 2.1062 1.5899 2.305 2.4324 3.1633 10.167 12.246 2.7756 3.1652 1.1477 1.2729 1.056 1.0918 1.2154 1.1269 1.2714 1.0501 1.627 1.1849 1.6706 1.0548 1.7034 0.91386 1.0928 0.49486 2.9476 1.0893 1.317 0.53848 0.9039 0.46207 0.76269 0.48838 0.60989 0.47128 0.57831 0.53044 0.77918 0.89226 0.51278 0.76075 0.34462 0.64923 0.33513 0.85838 0.1955 0.81781 0.059698 0.49578 0.016921 0.54264-0.12363 1.2436-0.34037 1.2714-0.25949 0.65003-0.56705 1.1105-0.75066 1.1675-0.84344 1.1024-0.67804 0.78238-1.0446 1.0797-1.1979 1.1318-2.298 2.0078-2.8179 2.208-2.6387 1.8918-1.3717 0.86649-1.4155 0.80038-1.3486 0.68711-1.3763 0.63572-1.9648 0.80731-1.9886 0.71902-1.8824 0.60648-4.4063 1.2588-1.8735 0.59631-1.087 0.427-1.0992 0.52862-1.1918 0.73147-1.2127 1.0138-0.85766 1.0473-0.53652 1.0641-0.29546 1.5083 0.095216 1.7997 0.47612 1.8614 0.84077 1.8438 0.86806 1.3381 1.0213 1.308 4.1713 4.7844 1.3174 1.6494 1.0019 1.3508 1.1341 1.6472 1.2297 1.9512 1.1251 1.9867 0.99317 2.0113 0.82379 2.0266 0.60491 2.0335 0.35175 1.9038 0.59931 4.3251 0.43403 2.0329 0.56809 2.0735 1.2155 3.8088 0.93206 2.4169 0.81503 1.9043 1.1324 2.4728 1.1783 2.4258 2.2501 4.3108 0.87757 1.5461 0.52323 0.79191-0.018183 0.063413 0.2007 0.45871 2.338 4.4778 1.4906 3.0654 1.1649 2.7209 0.54219 1.4975 0.36876 1.1913 0.29547 1.1454 0.20704 1.0348 0.12576 0.97215 0.013964 1.2769-0.12075 0.75263-0.13134 0.40444-0.20375 0.3976-0.69442 0.71183-0.9451 0.53203-2.5488 0.96898-1.0983 0.48903-0.93984 0.55887-0.92409 0.67492-1.0321 0.87871-1.0084 0.97221-0.97936 1.0459-0.94369 1.1042-1.1336 1.4625-0.74072 1.0406-0.70131 1.053-1.0587 1.7519-0.53906 1.0543-0.39378 0.90032-0.3972 1.0614-1.0846 3.6534-0.30865 0.777-0.34508 0.63695-0.41772 0.56712-0.25201 0.26953-0.40081 0.3506-0.86081 0.56127-1.2561 0.56757-1.1418 0.36456-1.6458 0.36783-1.1252 0.17294-2.4893 0.219-1.1813 0.037584-2.0201-0.020234-3.9458-0.17008-1.3327-0.13094-0.85352-0.14008-1.4408-0.34866-1.0932-0.34388-3.2659-1.1609-1.0883-0.32577-1.0875-0.21387-0.53123-0.035894-0.81768 0.083917-0.41681 0.1562-0.17121 0.13394-0.029019 0.053356-0.027012-0.16925-0.084756-0.20534-0.15306-0.19028-0.40898-0.26935-0.65903-0.18236-1.9726-0.16415-1.2275-0.04284-2.7258 0.016717-1.6146-0.082504-1.0641-0.12051-1.4393-0.27875-1.1209-0.29763-1.1368-0.35416-4.9177-1.7175-5.7458-1.8663-1.4822-0.53368-8.8309-3.5083-2.385-0.8771-2.0538-0.67141-1.3664-0.38696-0.95732-0.23551-1.9538-0.39098-2.7203-0.39283-1.4062-0.12421-1.6751-0.061037-1.327 0.024998-2.369 0.16872-4.5497 0.40955-3.0654 0.13401-4.3522 0.002335-2.2759 0.17267-1.1635 0.16247-2.2512 0.41514-3.1723 0.72963-9.2059 2.3601-3.8727 0.93189-7.5172 1.5561-3.9157 0.93829-5.1595 1.1508-1.7165 0.49754-1.162 0.39683-2.2414 0.82813-1.9572 0.79452-1.6516 0.72649-2.1904 1.0415-1.839 0.95207-2.2705 1.2906-3.1173 1.931-6.3679 4.0589-8.0528 5.3596-1.8689 1.1747-3.2788 1.9347-3.3592 1.789-3.3711 1.613-2.7662 1.1689-1.1781 0.44347-1.7658 0.58192-1.1271 0.30524-1.0561 0.23185-1.7807 0.29544-6.3213 0.76362-2.936 0.47895-2.1267 0.43166-2.3879 0.55338-1.3131 0.40659-3.0396 1.22-1.5176 0.52446-1.4737 0.33108-1.5069 0.21739-1.8327 0.16788-1.2876 0.06017-1.8625-0.016226-1.8633-0.25431-1.7215-0.43178-1.3542-0.47727-0.67658-0.36535 0.41073-0.40432-0.070302-0.37858-0.65404-0.63187-0.81976-0.43017-1.0561-0.40332-1.3899-0.42954-3.5806-0.98984-2.3164-0.73844-0.98797-0.38092-0.90597-0.40927-1.3333-0.79815-0.84038-0.81574-0.32429-0.54578-0.18593-0.54958-0.074035-0.45927-0.022681-0.61699 0.092014-0.85527 0.065104-0.22329 0.153-0.35135 0.45774-0.64139 0.80408-0.76736 2.3727-1.7601 0.72354-0.60975 1.2328-1.3245 0.84617-1.1743 0.7755-1.3062 0.70106-1.4127 0.83818-2.0541 2.1182-6.1764 0.77501-1.9595 0.91187-1.8662 0.98246-1.5456 1.4665-1.6979 1.7104-1.5286 1.5657-1.1801 1.7869-1.2058 1.8684-1.1525 1.5165-0.87483 3.1152-1.6929 10.816-5.5734 4.2089-2.2317 2.0142-1.1301 1.916-1.1469 1.777-1.1719 1.4514-1.1018 1.2587-1.1977 0.32203-0.38513 0.22957-0.31024 0.61818-1.0822 0.45576-1.5642 0.11924-1.6912-0.098529-1.4626-0.10388-0.72702-0.21825-1.0332-0.29961-1.0509-0.38511-1.0959-0.45368-1.1046-0.55008-1.1805-1.1087-2.0644-0.67603-1.1353-1.5964-2.4733-3.6737-5.2746-1.8986-2.8412-1.1563-1.8947-0.87752-1.6165-0.8334-1.8421-1.2404-3.6318-0.43956-1.1639-1.0364-2.2774-1.5382-2.9137-3.7554-6.7294-0.68316-1.3194-0.91192-1.9261-0.81289-1.9988-0.7373-2.2768-0.64188-2.6445-0.2906-1.6897-0.014273-0.42295 0.054121-0.036997-0.070666-0.38894-0.21201-0.67369-1.6336-4.6589-0.58155-1.9042-0.78067-3.1985-1.9165-9.7465-0.34714-2.2697-0.46994-4.227-0.24829-1.621-0.42903-1.9949-1.089-4.166-0.6098-2.0132-0.66875-2.0136-1.0914-2.9869-2.9945-7.111-0.94564-2.4589-0.50058-1.5582-0.30903-1.1429-0.34288-1.6411-0.20951-1.8354-0.010729-1.3917 0.093175-1.0258 0.20327-1.0362 0.66364-1.8086 0.96381-1.6987 1.1763-1.5926 1.0468-1.1794 1.1668-1.1511 1.9475-1.7453 1.295-1.0536 1.1832-0.88152 1.201-0.80408 1.3905-0.75884 0.89214-0.37451 0.85947-0.26566 0.62768-0.12437 0.64312-0.050996 1.2755 0.2449 0.77508 0.60338 0.40202 0.63368 0.24501 0.7224 0.091114 0.65811-0.008893 0.59608-0.13152 0.79439-0.14281 0.5365-0.9878 2.826-0.36774 1.2561-0.26606 1.2788-0.11461 1.3117 0.068321 1.1524 0.20714 1.1631 0.32576 1.1698 0.39969 1.0452 0.89236 1.6701 0.70042 0.96824 0.48776 0.55724 0.56991 0.55116 0.67362 0.54134 0.63333 0.42075 0.68136 0.37716 0.59483 0.27659 1.2136 0.43335 1.2594 0.27753 1.0974 0.1124 1.1178 0.011717 1.1358-0.078166 1.5703-0.23698 1.3884-0.31241 2.0693-0.59129 2.1832-0.75741 1.4017-0.5454 2.8103-1.2033 3.6865-1.7704 2.612-1.3995 2.7231-1.6153 5.8499-3.7185 5.2456-3.4217 2.6645-1.5798 3.4076-1.8338 3.3064-1.6408 4.5114-2.0908 4.5378-1.9734 0.14689 0.016729 0.88952 0.44494 1.1055 0.61785 3.7302 2.175 1.9015 1.1893 3.6637 2.4842 10.044 7.1532 3.2589 2.1479 2.211 1.2734 1.0051 0.488 0.98104 0.39443 1.1899 0.33275 0.52927 0.083583 0.71651 0.041842 0.5697-0.033297 0.66062-0.1176 0.98374-0.34967 0.51387-0.27945 0.37618-0.24771 0.85565-0.681 1.2114-1.1494 1.6408-1.7731 1.1519-1.4458 1.059-1.5062 0.74692-1.2028 0.57796-1.0349 1.8133-3.5317 1.2438-2.0532 0.94694-1.3712 1.2098-1.56 1.2633-1.4027 1.0354-0.99188 2.2002-1.8069 1.2575-0.89896 1.087-0.67175 1.7602-0.90444 2.5504-1.1927 5.262-2.3368 2.1614-1.1837 1.8968-1.2116 2.2217-1.6441 2.3145-1.9143 0.91562-0.85767 1.2734-1.3526 0.78025-0.93725 0.69832-0.93924 0.58495-0.89109 0.56263-0.981 0.58717-1.2073 0.2879-0.69222 0.49459-1.4497 0.24501-0.92387 0.26906-1.2493 0.2345-1.3973 0.12679-1.3147 0.023197-0.92239-0.033019-1.1504-0.1396-1.6506-0.37797-2.4769-0.66722-3.1745-0.32546-1.8377-0.12594-1.1097-0.030463-0.91654 0.026326-0.5143 0.11982-0.77066 0.37622-1.1024 0.19777-0.31941 0.25619-0.29665 0.27928-0.22331 0.27962-0.13556 0.34166-0.037266 0.48147 0.2161 0.45841 0.48407 1.6715 2.8391 0.95277 1.3574 1.1267 1.3532 0.36243 0.38149 0.88271 0.81578 1.2011 0.89417 1.2661 0.7383 1.8069 0.81532 3.0512 1.166 3.9152 1.7082 3.3138 1.1623 5.9427 1.7786 2.5626 0.86456 1.3487 0.49622 1.6096 0.65941 2.0457 1.0268 1.7821 1.2143 0.33331 0.28147 1.2965 1.3365 1.0723 1.4631 0.84011 1.4701 0.54309 1.2173 0.29891 0.94994-0.006505 0.50185" stroke="#bdc660"/>
    </defs>
    <g clip-path="url(#p67eda45f04)">
     <use y="280.512" fill="#bdc660" stroke="#bdc660" xlink:href="#mc8773b0ba5"/>
    </g>
   </g>
  </g>
 </g>
 <defs>
  <clipPath id="p67eda45f04">
   <rect x="7.2" y="7.2" width="281.72" height="266.11"/>
  </clipPath>
 </defs>
</svg>
