<?xml version="1.0" encoding="UTF-8"?>
<!DOCTYPE svg  PUBLIC '-//W3C//DTD SVG 1.1//EN'  'http://www.w3.org/Graphics/SVG/1.1/DTD/svg11.dtd'>
<svg width="362.5pt" height="280.51pt" version="1.1" viewBox="0 0 362.5 280.51" xmlns="http://www.w3.org/2000/svg" xmlns:xlink="http://www.w3.org/1999/xlink">
 <metadata>
  <rdf:RDF xmlns:cc="http://creativecommons.org/ns#" xmlns:dc="http://purl.org/dc/elements/1.1/" xmlns:rdf="http://www.w3.org/1999/02/22-rdf-syntax-ns#">
   <cc:Work>
    <dc:type rdf:resource="http://purl.org/dc/dcmitype/StillImage"/>
    <dc:date>2024-07-04T12:09:45.254472</dc:date>
    <dc:format>image/svg+xml</dc:format>
    <dc:creator>
     <cc:Agent>
      <dc:title>Matplotlib v3.7.1, https://matplotlib.org/</dc:title>
     </cc:Agent>
    </dc:creator>
   </cc:Work>
  </rdf:RDF>
 </metadata>
 <defs>
  <style type="text/css">*{stroke-linejoin: round; stroke-linecap: butt}</style>
 </defs>
 <g id="figure_1">
  <g id="patch_1">
   <path d="m0 280.51h362.5v-280.51h-362.5v280.51z" fill="none"/>
  </g>
  <g id="axes_1">
   <g id="PatchCollection_1">
    <defs>
     <path id="m87aea53d54" d="m334.56-148.54 0.054941 0.048379 0.040001 0.38169-0.054893 1.7735-0.25997 4.387-0.34761 4.3632-0.45863 4.1957-0.87986 6.7949-0.16096 2.2661 0.1133 2.3173 0.57028 2.2781 0.94086 2.1614 0.89546 1.5908 2.7805 4.398 0.55754 1.0348 0.60259 1.397 0.4167 1.6123 0.069508 0.6021 0.027963 0.92713-0.071439 1.1488-0.14005 1.0241-0.45004 2.1828-0.63363 2.4125-1.4891 5.2137-0.72942 2.7686-0.56057 2.3668-0.56076 3.1811-0.43587 3.4555-0.092943 1.4734-0.001309 1.2226 0.10848 1.8841 0.1968 1.809 0.24987 1.7415 1.1732 6.6916 0.48655 3.3035 0.21831 2.4426 0.041937 2.6141-0.13286 1.7945-0.29704 2.0392-1.3129 6.5969-0.49305 2.833-0.35606 2.7497-0.79453 7.4303-0.24933 1.5929-0.20776 0.98512-0.25256 0.91426-0.38472 1.0288-0.74706 1.3561-1.227 1.419-1.1418 0.94514-1.3033 0.85312-1.8668 0.97094-2.0516 0.85908-1.1151 0.40596-2.7752 0.88455-1.6096 0.45092-4.7357 1.1486-6.6672 1.3696-0.57405 0.20091-0.75498 0.2942-1.6405 0.35516-2.1332 0.26122-2.3461 0.039296-2.3594-0.29192-2.2231-0.73028-1.9834-1.2368-1.7758-1.6564-1.6277-1.9534-1.5406-2.1469-6.7256-10.005-3.3393-4.714-1.7218-2.3064-1.7707-2.2545-2.3431-2.769-1.9802-2.1844-2.0167-2.115-2.0382-2.0395-2.0471-1.9478-2.8059-2.4718-1.7352-1.3614-1.7935-1.2195-1.7471-0.97935-1.6603-0.68711-1.5272-0.32143-1.3402 0.14254-0.61803 0.29798-0.84947 0.72046-0.59986 0.71464-0.58897 0.8159-1.7873 2.7748-1.0164 1.8147-1.092 2.1327-0.92003 1.4224-0.57262 0.62379-0.59554 0.51758-1.1342 0.78415-1.59 0.84754-1.4361 0.61112-1.6861 0.58454-2.0484 0.56068-2.0954 0.46932-7.7008 1.5721-1.0334 0.23575-1.1352 0.32374-1.297 0.50415-1.2922 0.62744-1.4891 0.83574-6.6396 4.2168-2.8169 1.6539-2.1428 1.1302-1.1439 0.45696-0.73104 0.22287-0.81327 0.17564-0.74805 0.083394-0.57501 0.004419-0.90018-0.11976-1.0777-0.39464-0.86928-0.51554-1.1477-0.89111-1.0008-0.93326-2.0747-2.2153-5.0333-5.9016-4.3707-4.5987-2.6145-2.9716-1.058-1.0935-0.7147-0.66888-0.80493-0.69225-1.4796-1.127-5.1739-3.4588-6.4092-4.6484-2.1428-1.3644-1.42-0.74251-1.4058-0.57238-1.3781-0.35918-0.67127-0.085231-0.97335-0.016088-1.5342 0.15337-3.2704 0.60541-3.2188 0.37206-0.9178 0.13661-0.91614 0.20071-0.85343 0.25173-0.70474 0.29911-0.64512 0.40891-0.53741 0.47802-1.465 1.8458-0.62715 0.60776-0.28391 0.22389-1.1309 0.69805-0.63077 0.27503-0.94362 0.30664-0.82958 0.15723-0.68128 0.041491-1.0391-0.082423-1.0083-0.27374-0.79666-0.34414-1.3806-0.83419-1.5385-1.1997-1.8899-1.7284-1.2997-1.3547-1.6256-1.8171-1.2595-1.3004-7.1323-6.8607-2.7545-2.3994-1.3031-1.0498-1.9727-1.3529-1.1053-0.62156-2.1025-0.86741-2.3283-0.64756-2.5132-0.47925-2.6644-0.35239-2.7861-0.25878-5.0984-0.30513-7.173-0.23754-8.3427-0.16414-0.50552-0.0635-4.5169 0.42332-3.3754 0.26378-2.939 0.17012-4.0935 0.14-3.5594 8.54e-4 -11.609-0.33073-10.434 0.10783-3.6709-0.051906-3.1693-0.19208-1.4401-0.1602-2.1352-0.3681-1.9304-0.55262-1.0177-0.43653-1.044-0.63307-0.93053-0.83336-0.76198-0.96632-0.68439-1.1814-0.38517-0.83936-0.40193-1.134-0.2384-0.84121-0.21731-0.9897-0.1848-1.5059-0.029695-1.5582 0.10279-1.7092 0.17129-1.4434 0.48324-3.1401 0.22008-2.3031 0.073934-1.9217-0.089155-6.0588 0.062967-3.756-0.022818-3.419-0.24683-8.2763 0.079653-2.0414 0.26295-1.9455 0.4055-1.5684 0.33363-0.97914 0.47106-1.1114 0.52278-1.0588 1.7298-3.1733 0.6522-1.4064 0.66714-2.0539 0.4567-2.1545 0.57093-4.04 0.33829-1.7989 0.57245-1.7103 0.21392-0.4432 0.81269-1.3014 1.0457-1.2611 1.6987-1.6276 1.9322-1.5578 1.8099-1.3218 1.8797-1.2908 5.8645-3.8394 5.345-3.5829 5.6087-3.9347 5.4169-3.8953 3.2881-2.4937 1.4378-1.161 2.8085-2.4082 2.6605-2.4817 1.4944-1.5 3.0963-3.3753 1.783-1.8689 1.8688-1.8221 1.9206-1.7689 5.0655-4.39 1.1692-1.0939 0.85268-0.9125 1.1597-1.4348 0.81257-1.152 0.73274-1.1568 1.1367-2.0706 0.64919-1.4142 0.28132-0.81227 0.006445-0.16122 0.47969-0.51021 1.2582-0.27433 1.6038 0.08409 1.8472 0.37263 0.9266 0.24878 0.9194 0.28787 1.7532 0.701 1.941 1.0961 1.8591 1.3818 1.7562 1.6041 1.9155 2.1043 1.6974 2.2376 1.564 2.3367 2.9471 4.748 4.1574 6.853 0.68986 1.3999 0.4047 1.3809 0.030401 1.6775-0.29434 1.716-0.40153 1.7573-0.30364 1.8034-0.068909 1.4731 0.018943 1.1196 0.10393 2.381 0.16722 1.4923 0.48854 2.0017 0.71448 1.9959 2.2804 5.2336 0.32458 0.64351 0.6203 1.0393 0.74937 1.0415 1.007 1.1839 0.61845 0.64215 1.532 1.3817 1.3223 0.96014 1.106 0.57508 1.219 0.33869 0.46016 0.03341 0.62297-0.050321 0.84336-0.2566 0.51487-0.25484 0.92929-0.60869 1.1001-0.90452 1.7177-1.6942 4.9652-5.3328 2.5255-2.4802 2.9928-2.5908 7.2878-5.9674 2.1807-1.9773 1.445-1.451 1.7288-1.8416 4.2008-4.703 1.4-1.4608 1.2327-1.0177 0.32641-0.21417 0.74926-0.40395 0.80217-0.31377 1.012-0.21352 1.528 0.066698 1.5708 0.43865 1.5853 0.71934 1.5726 0.92485 1.8009 1.2311 4.1658 2.9892 2.1722 1.4001 2.0128 1.1159 1.5598 0.68655 2.9227 1.0205 1.5184 0.44561 1.5365 0.2938 1.0235 0.041271 1.2848-0.17006 1.2756-0.36924 1.2593-0.50273 3.0018-1.3934 1.4686-0.54198 1.6651-0.35338 1.2785-0.16576 1.2604-0.026724 1.4825 0.21818 1.4704 0.3327 1.49 0.22844 1.2737-0.05137 1.6575-0.5289 1.3801-0.77098 1.3958-1.0105 1.406-1.1989 1.4112-1.3462 1.2447-1.2849 1.591-1.767 1.3252-1.5753 1.3714-1.7208 2.727-3.6356 1.6684-2.3136 3.1686-4.5688 3.5493-4.8161 2.4509-3.1681 7.3892-9.2584 2.0916-2.7491 2.217-3.0484 2.6468-3.8204 1.5773-2.3755 2.7469-4.4006 1.977-3.4323 1.5824-2.9813 1.9196-3.8984 1.2066-2.6057 1.4979-3.4128 0.41566 0.826 0.98352 0.63222 1.3353 0.35569 1.532-0.052258 0.81278-0.2178 0.89188-0.37093 1.0789-0.59515 1.4641-0.98763 3.5602-2.6789 1.9766-1.3865 1.9853-1.1777 1.1849-0.56639 1.0727-0.40786 0.96844-0.27002 0.76366-0.1409 1.2725-0.088039 0.84792 0.050872 0.96279 0.1813 1.0687 0.39239 0.85627 0.52659 0.94844 0.96326 0.70314 1.1858 0.31598 0.819 0.37327 1.517 0.53406 3.0525 0.4217 1.6571 0.43494 1.1031 0.94981 1.6367 1.1907 1.5449 3.2851 3.7279 3.1535 4.138 0.85298 1.0586 1.4593 1.5467 1.6357 1.4938 1.7564 1.4531 1.8281 1.4222 5.3173 4.0206 2.4684 2.0332 1.1235 1.0573 0.72428 0.75637 2.1066 2.4133 1.9621 2.4317 0.90104 0.81122 0.74643 0.45712 0.80325 0.32008 0.91468 0.17304 1.794 0.19542 0.54937 0.1482 1.1086 0.49432 0.62346 0.39052 0.50042 0.53309 0.26892 0.56618 0.14823 0.69708 0.012955 0.89707-0.1201 1.0971-1.144 5.7948-0.74505 4.1546-0.4772 2.257-0.6158 2.3357-0.57641 1.8398-1.8033 5.2213-0.85876 3.0954-0.30146 1.4309-0.21679 1.4719-0.12978 1.4947-0.06514 1.6151 0.046823 1.8728 0.25849 2.4876 0.57731 3.7891 1.0461 6.0999 1.0612 7.1682 1.0054 5.4867 0.50668 2.4618 0.58583 2.23 0.34406 1.047 0.17105 0.35776" stroke="#bdc660"/>
    </defs>
    <g clip-path="url(#p97ba49f704)">
     <use y="280.512" fill="#bdc660" stroke="#bdc660" xlink:href="#m87aea53d54"/>
    </g>
   </g>
  </g>
 </g>
 <defs>
  <clipPath id="p97ba49f704">
   <rect x="7.2" y="7.2" width="348.1" height="266.11"/>
  </clipPath>
 </defs>
</svg>
