<?xml version="1.0" encoding="UTF-8"?>
<!DOCTYPE svg  PUBLIC '-//W3C//DTD SVG 1.1//EN'  'http://www.w3.org/Graphics/SVG/1.1/DTD/svg11.dtd'>
<svg width="330.29pt" height="280.51pt" version="1.1" viewBox="0 0 330.29 280.51" xmlns="http://www.w3.org/2000/svg" xmlns:xlink="http://www.w3.org/1999/xlink">
 <metadata>
  <rdf:RDF xmlns:cc="http://creativecommons.org/ns#" xmlns:dc="http://purl.org/dc/elements/1.1/" xmlns:rdf="http://www.w3.org/1999/02/22-rdf-syntax-ns#">
   <cc:Work>
    <dc:type rdf:resource="http://purl.org/dc/dcmitype/StillImage"/>
    <dc:date>2024-07-04T12:09:42.895198</dc:date>
    <dc:format>image/svg+xml</dc:format>
    <dc:creator>
     <cc:Agent>
      <dc:title>Matplotlib v3.7.1, https://matplotlib.org/</dc:title>
     </cc:Agent>
    </dc:creator>
   </cc:Work>
  </rdf:RDF>
 </metadata>
 <defs>
  <style type="text/css">*{stroke-linejoin: round; stroke-linecap: butt}</style>
 </defs>
 <g id="figure_1">
  <g id="patch_1">
   <path d="m-0 280.51h330.29v-280.51h-330.29v280.51z" fill="none"/>
  </g>
  <g id="axes_1">
   <g id="PatchCollection_1">
    <defs>
     <path id="m8901f82964" d="m307.9-234.19 0.097804 0.079123 0.13177 0.2884 0.18723 0.61601 0.12885 0.58271 0.16884 1.185 0.11299 1.8942-0.010744 2.3238-0.10509 2.1852-0.20689 2.1547-0.32899 2.1248-0.34203 1.5433-0.32006 1.0837-0.53892 1.5039-0.77731 1.8221-0.41878 0.85624-0.88996 1.6068-0.53023 0.87419-1.092 1.6255-0.71632 1.001-0.86429 1.1061-0.91459 1.0739-1.2309 1.3184-1.3665 1.315-3.1686 2.6701-0.90828 0.80768-1.9944 1.9565-2.8321 2.9547-2.8625 2.5466-1.0188 0.95188-1.1392 1.1489-0.85064 0.93358-1.1239 1.3208-0.77335 0.97578-0.54227 0.75571-0.74014 1.1755-0.47656 0.87832-0.39315 0.82996-0.6429 1.6478-1.3337 4.2136-0.47826 1.2408-0.74738 1.6127-0.66536 1.2528-0.90625 1.4982-1.0275 1.4553-0.75964 0.94405-0.97811 1.0936-0.79003 0.80222-1.4679 1.3371-1.3093 1.0656-3.8554 2.8748-4.9514 3.3239-3.7916 2.7014-1.9289 1.4749-1.0001 0.82332-1.4383 1.3001-1.2514 1.2874-0.74579 0.85647-0.70498 0.88514-0.69551 0.96081-0.64798 0.98765-0.61902 1.0455-0.56465 1.0684-0.68984 1.5317-0.5854 1.6758-0.34835 1.4024-0.24873 1.5691-0.10181 1.1514-0.060149 2.2204 0.026215 1.4695 0.15581 2.2203 0.32304 3.5336 0.057213 1.6502-0.029413 1.1787-0.093883 1.2171-0.14736 1.1414-0.25556 1.5375-0.50558 2.2473-0.66309 2.3256-2.2436 6.7679-0.53486 1.7959-1.4881 6.1942-1.4044 5.0897-0.66075 3.0228-1.6764 8.7303-0.18899 1.233-0.14426 1.635-0.005229 1.1183 0.059607 0.87538 0.082914 0.62257 0.15506 0.75262 0.17848 0.60906 0.6258 1.4292 1.2639 2.3138 0.6166 1.2876 0.74472 1.9233 1.341 3.9047 0.61495 1.611 0.68556 1.5684 0.56254 1.118 0.65246 1.1633 1.4941 2.3619 0.62047 0.87267 0.12321 0.12006-0.10277 0.42228-0.90117 6.9678-0.60579 4.3471-0.68411 4.4084-0.37778 2.1758-0.41118 2.1401-0.48935 2.2492-0.54663 2.189-0.61492 2.1186-0.6666 1.9552-0.74775 1.8674-0.83802 1.7635-0.87565 1.5313-0.98106 1.3985-1.1058 1.2358-0.71194 0.63073-1.5975 1.0586-1.7581 0.815-1.8638 0.62209-1.9241 0.46196-1.9449 0.31876-1.929 0.17802-1.8765 0.025705-1.7845-0.15238-1.6473-0.37142-1.4567-0.64812-1.2223-0.95485-1.0622-1.1678-1.9541-2.4841-1.0457-1.0964-1.1935-0.84122-1.4853-0.51151-1.6765-0.1914-1.8104 0.034718-1.8964 0.18254-5.7997 0.78147-1.8384 0.12958-1.716-0.053373-1.5361-0.32569-1.3174-0.6562-1.1849-0.86663-0.79921-0.66512-0.60966-0.57173-1.2397-1.2588-0.94094-0.87116-0.95882-0.71456-1.0443-0.65238-0.91798-0.50075-1.1373-0.55625-2.0712-0.86477-2.0047-0.64006-2.2086-0.55309-2.5999-0.52443-2.3614-0.37282-1.921-0.18062-1.8941-0.060657-2.6026 0.044269-1.9973 0.13913-1.8168 0.21427-4.4265 0.64468-0.18486-0.13536-0.49124-0.056459-0.91056 0.058382-1.0015 0.17121-1.1326 0.30522-1.6468 0.63858-2.5591 1.2115-1.6154 0.70354-1.2286 0.46641-1.1384 0.33879-0.93725 0.18746-0.87713 0.090906-1.0177-0.004764-0.79897-0.078588-0.80122-0.13194-1.2811-0.29531-1.2834-0.37523-1.2632-0.42614-2.4114-0.9063-4.5082-1.7854-7.0724-2.5832-2.8195-1.0928-3.4952-1.4856-2.4955-1.1972-1.7465-0.95197-1.3516-0.83895-1.7066-1.2135-2.22-1.7866-2.5152-2.1925-3.8232-3.4878-7.769-7.1985-1.9924-1.8123-0.59478-0.49569-28.367-50.969-3.4808-6.1069-2.3994-4.0228-1.2455-1.9851-1.2439-1.8971-2.5794-3.7494-4.0137-5.5892-23.949-32.54 0.68134-1.4177 0.61399-1.5652 0.27468-1.1223 0.060347-0.5859 0.007186-0.58471-0.067428-0.89779-0.32956-2.5268-0.19366-2.4166-0.83163-14.113-0.21166-4.7638 0.29785 0.092371 0.74658 0.023339 0.80099-0.041818 5.8438-0.58611 4.9489-0.54201 4.4222-0.34835 5.2279-0.29239 5.039-0.12396 2.3759 0.025003 1.719 0.10546 1.962 0.23942 3.2847 0.51214 1.4777 0.19491 1.6488 0.15024 1.4622 0.030877 1.2673-0.12342 1.0493-0.26196 1.0501-0.45398 0.89514-0.53024 1.0646-0.74196 2.5765-1.9807 1.3309-1.1015 1.3359-1.168 1.3235-1.2353 1.5407-1.5578 1.5084-1.6321 1.4846-1.6847 4.3715-5.2323 6.8672-8.5259 7.298-9.18 15.124-19.203 2.6102-3.259 1.4562-1.7552 0.31499 0.14807 5.0347 3.5219 1.8909 1.2578 1.9594 1.2342 1.9939 1.1634 2.0088 1.0506 2.0143 0.89585 2.0176 0.69471 2.0241 0.43916 2.2341 0.14386 2.2398-0.14284 2.2384-0.3503 2.2327-0.49805 2.2247-0.60205 2.2157-0.67467 4.4018-1.4844 12.85-4.6805 4.1268-1.4036 2.0606-0.63141 2.0592-0.55777 2.0578-0.45596 2.0564-0.3173 2.0549-0.13092 1.7947 0.070423 1.7923 0.21738 1.7887 0.33065 1.7839 0.4171 2.2674 0.61123 6.0361 1.8201 8.4027 2.726 4.2763 1.516 2.0777 0.81825 2.0113 0.884 1.9169 0.9774 1.7855 1.1074 1.6055 1.285 1.2503 1.3343 1.0947 1.4739 0.96838 1.5699 0.86329 1.6285 0.77243 1.6539 0.65898 1.6049 1.1558 3.0592 0.60901 1.3893 0.70987 1.3519 0.77217 1.2034 0.86747 1.1529 0.91718 1.0776 0.73425 0.79278 1.4066 1.4164 2.3158 2.136 2.2784 1.927 1.1114 0.88685 1.0589 0.73826 1.0239 0.51499 1.0046 0.20485 0.89829-0.14663 0.44022-0.18882 0.60662-0.37692 0.819-0.69809 0.79509-0.85204 0.87519-1.092 2.1969-3.0854 0.72398-0.94552 0.74173-0.80291 0.56693-0.45941 0.60088-0.32171 1.2144-0.18109 1.2739 0.29245 1.01 0.5145 1.0011 0.68031 2.0374 1.5365 2.035 1.4033 0.94826 0.74349 2.2452 2.2733 0.47497 0.42772 0.5789 0.41847 0.68883 0.34554 0.68921 0.14293 0.74088-0.059845 1.1866-0.52535 1.087-0.82438 1.1855-1.1535 1.3299-1.5008 3.2469-3.9652 1.9479-2.2541 1.732-1.9049 1.4596-1.5138 1.5261-1.4146 1.4598-1.1292 0.87357-0.55628 0.77555-0.41706 0.98983-0.43832 1.3673-0.46526 1.4933-0.35632 1.4433-0.21508 1.1919-0.089318 1.9996 0.030125 1.8896 0.22618 2.0968 0.35581 1.8814 0.43344 0.73205 0.20821 1.7083 0.58388 1.6331 0.66976 1.4598 0.68071 2.2404 1.1974 3.079 1.8147 0.24878 0.10408 0.039153-0.02422" stroke="#bdc660"/>
    </defs>
    <g clip-path="url(#pac7f1e2e11)">
     <use y="280.512" fill="#bdc660" stroke="#bdc660" xlink:href="#m8901f82964"/>
    </g>
   </g>
  </g>
 </g>
 <defs>
  <clipPath id="pac7f1e2e11">
   <rect x="7.2" y="7.2" width="315.89" height="266.11"/>
  </clipPath>
 </defs>
</svg>
