<?xml version="1.0" encoding="UTF-8"?>
<!DOCTYPE svg  PUBLIC '-//W3C//DTD SVG 1.1//EN'  'http://www.w3.org/Graphics/SVG/1.1/DTD/svg11.dtd'>
<svg width="269.31pt" height="280.51pt" version="1.1" viewBox="0 0 269.31 280.51" xmlns="http://www.w3.org/2000/svg" xmlns:xlink="http://www.w3.org/1999/xlink">
 <metadata>
  <rdf:RDF xmlns:cc="http://creativecommons.org/ns#" xmlns:dc="http://purl.org/dc/elements/1.1/" xmlns:rdf="http://www.w3.org/1999/02/22-rdf-syntax-ns#">
   <cc:Work>
    <dc:type rdf:resource="http://purl.org/dc/dcmitype/StillImage"/>
    <dc:date>2024-07-04T12:09:35.383727</dc:date>
    <dc:format>image/svg+xml</dc:format>
    <dc:creator>
     <cc:Agent>
      <dc:title>Matplotlib v3.7.1, https://matplotlib.org/</dc:title>
     </cc:Agent>
    </dc:creator>
   </cc:Work>
  </rdf:RDF>
 </metadata>
 <defs>
  <style type="text/css">*{stroke-linejoin: round; stroke-linecap: butt}</style>
 </defs>
 <g id="figure_1">
  <g id="patch_1">
   <path d="m0 280.51h269.31v-280.51h-269.31v280.51z" fill="none"/>
  </g>
  <g id="axes_1">
   <g id="PatchCollection_1">
    <defs>
     <path id="mecae9ece9a" d="m250.53-175.44-0.21404 0.29103-1.06 1.1386-3.6338 3.715-6.8276 6.8286-7.0096 6.9025-6.8433 6.5686-4.5047 4.1298-2.2544 1.9666-2.2658 1.8811-2.2601 1.7598-3.1486 2.2375-1.611 1.0322-1.5994 0.95611-4.6562 2.5183-2.0075 1.1717-0.77697 0.5549-0.70442 0.62863-0.86024 1.1742-0.20218 0.42255-0.27968 0.84092-0.1748 0.97017-0.099859 1.4602-0.081328 3.8773-0.1703 2.8114-0.17206 1.3081-1.0795 6.531-0.52859 2.4625-0.68199 2.4582-0.76564 2.275-1.4272 3.5534-0.92214 2.0502-0.99013 2.0507-1.8941 3.544-4.1241 6.9818-2.8534 5.1797-4.0175 7.8887-4.0888 7.4046-1.0013 2.1362-0.16896 0.50461 0.004168 0.28098-0.063219 0.21801 0.056537 0.47572 0.17124 0.63692 0.3745 0.90373 0.77805 1.3212 0.90607 1.22 1.5574 1.7753 1.5967 1.5376 1.1367 0.9611 4.404 3.4428 0.82 0.71445 1.1122 1.1019 1.5691 1.8352 1.6647 2.2604 1.0143 1.6051 0.46534 0.82687 0.78723 1.6045 0.68361 1.6475 2.7078 7.3626 0.21752 0.68603 0.23069 1.035 0.033187 0.41223-0.034152 0.4726-0.19794 0.65076-0.38242 0.67623-0.41748 0.52639-0.48582 0.49388-0.98347 0.78815-0.8602 0.52153-0.39547 0.17943-0.60118 0.16176-0.54685-0.029977-0.45501-0.2296-0.35324-0.3626-0.19508-0.40176-0.024985-0.33134-0.53438-0.54401-0.6759-0.58852-2.7145-2.1261-1.9558-1.3673-2.182-1.394-2.865-1.6585-2.4925-1.3166-2.7642-1.3371-3.7074-1.5807-2.2399-0.79286-1.5736-0.42648-1.4152-0.25431-1.1625-0.1083-2.5637 0.031025-2.1667 0.23284-1.9557 0.31234-3.2299 0.68196-2.9553 0.84137-1.4729 0.50684-2.5939 1.0579-0.94346 0.44638-1.9925 1.0752-2.0177 1.302-3.8455 2.7645-2.9298 1.9052-1.1567 0.6692-1.4082 0.73879-0.96735 0.45959-2.6876 1.0952-2.4098 0.79403-2.2998 0.65896-7.5247 1.9472-2.2467 0.63176-1.7431 0.53172-3.0179 1.0047-1.4403 0.41739-1.648 0.32294-0.80579 0.060818-1.2715-0.077293-1.106-0.25197-0.73246-0.27084-0.91404-0.44188-1.2137-0.73561-1.1065-0.79721-1.3182-1.0615-6.2568-5.5435-1.9124-1.493-1.7082-1.1469-1.6402-0.96461-1.6015-0.78288-1.3123-0.49604-1.5825-0.42114-1.4135-0.2187-1.9875-0.12732-3.7743-0.050708-5.7234 0.087419-2.606 0.10564-2.1799 0.18044-6.4121 0.68199-3.2914 0.20069-1.585-0.004147-1.8396-0.099582-1.8386-0.19243-1.2675-0.19259-1.7548-0.37524-1.0946-0.30675-1.3783-0.46742-1.8506-0.77638-2.3863-1.2213-8.428-4.6025-2.565-1.2743-1.845-0.85266-1.4022-0.56667-1.6455-0.53536-1.4398-0.32056-0.44738-0.02743-0.16815 0.066492 0.38868-0.40766 0.63368-0.9383 0.55088-0.9256 0.67094-1.3858 0.58551-1.5957 0.44078-1.7337 0.26901-1.7811 0.36943-3.2455 0.27929-1.8135 0.57536-2.8174 0.39122-1.6153 0.36973-1.3595 0.88687-2.7957 0.66642-1.8157 2.0875-5.1635 0.6745-1.9608 0.4248-1.7284 0.14001-1.0395 0.028175-0.91297-0.054801-0.79599-0.18338-1.0679-0.72209-2.2569-1.0512-2.2697-1.2532-2.2921-2.6982-4.7-1.2652-2.4559-1.4842-3.4113-0.85535-2.2826-0.75026-2.2751-0.63241-2.2437-0.49293-2.1867-0.1511-0.85299-0.40177-3.1491-0.13305-1.381-0.068513-1.3404 0.045642-1.3322 0.26718-1.7891 0.48815-1.7379 0.26278-0.6931 0.54402-1.1451 0.92084-1.4996 0.63783-0.87561 0.72687-0.89101 1.0362-1.1269 1.2126-1.1889 6.2217-5.4175 3.0194-2.8136 1.2319-1.2369 1.0095-1.092 1.3834-1.62 1.1032-1.394 0.87686-1.1888 1.2719-1.8984 1.7901-2.8927 0.96875-1.7256 0.47504-0.98018 0.44198-1.138 0.32045-1.1627 0.19222-1.1995 0.03337-1.3682-0.089476-0.98612-0.27919-1.4882-0.28815-1.0723-0.35431-1.0862-0.63142-1.5865-0.61217-1.3134-0.54592-1.0527-1.8423-3.2858-0.87435-1.8063-0.3513-0.83754-0.57627-1.6221-0.60683-2.3218-0.32013-1.8119-0.22222-2.1112-0.16575-5.547-0.18846-2.1508-0.19724-1.0536-0.27393-1.0878-1.176-3.59-0.16643-0.71677-0.11246-0.79314-0.004637-1.0749 0.1493-0.96418 0.2085-0.75875 0.30249-0.81151 0.36201-0.78075 0.55198-0.98698 0.81727-1.2065 0.7923-0.98793 1.2236-1.2821 1.1666-1.0111 1.7472-1.2687 2.5897-1.5883 1.8526-1.0432 3.582-1.8825 1.4061-0.67236 2.5947-1.0447 1.8511-0.65122 6.2398-2.0574 12.93-4.4755 4.671-1.7268 2.4234-1.0239 1.6277-0.75567 2.0935-1.052 3.8792-2.1405 3.9067-2.2865 3.9258-2.3771 2.8972-1.8626 3.6996-2.5745 2.2273-1.6546 4.3505-3.4428 3.3802-2.8376 2.5871-2.2652 2.964-3.3513 1.5702-1.6327 1.5473-1.5107 1.6475-1.5122 2.0545-1.7552 1.5195-1.207 2.4301-1.7756 2.7361-1.8086 2.0876-1.2448 1.4807-0.81642 1.5907-0.80361 1.4427-0.64614 1.442-0.54128 1.012-0.29951 1.0087-0.2184 1.5125-0.14897 0.6642 0.013647 0.71594 0.078533 0.81989 0.19096 1.6639 0.79326 1.6054 1.1638 1.416 1.1574 7.5966 6.5939 1.6514 1.3818 2.5628 2.0057 1.607 1.1455 1.6462 1.0655 1.6141 0.9249 1.658 0.8151 0.87947 0.37405 2.3802 0.85165 4.8436 1.4785 2.3914 0.85294 2.3339 1.0556 2.2809 1.2336 2.2411 1.3676 2.2118 1.4672 4.5219 3.2483 6.708 5.1537 11.15 8.8623 4.4705 3.6103 4.4667 3.6833 4.4307 3.8203 2.1809 1.9945 2.1386 2.0768 1.4739 1.5302 1.5979 1.7772 1.808 2.1693 3.192 4.162 3.1044 4.3474 3.2449 4.7575 4.3771 6.584 0.97684 1.4389 0.42627 0.55086" stroke="#bdc660"/>
    </defs>
    <g clip-path="url(#p171ada46d1)">
     <use y="280.512" fill="#bdc660" stroke="#bdc660" xlink:href="#mecae9ece9a"/>
    </g>
   </g>
  </g>
 </g>
 <defs>
  <clipPath id="p171ada46d1">
   <rect x="7.2" y="7.2" width="254.91" height="266.11"/>
  </clipPath>
 </defs>
</svg>
