<?xml version="1.0" encoding="UTF-8"?>
<!DOCTYPE svg  PUBLIC '-//W3C//DTD SVG 1.1//EN'  'http://www.w3.org/Graphics/SVG/1.1/DTD/svg11.dtd'>
<svg width="201.92pt" height="280.51pt" version="1.1" viewBox="0 0 201.92 280.51" xmlns="http://www.w3.org/2000/svg" xmlns:xlink="http://www.w3.org/1999/xlink">
 <metadata>
  <rdf:RDF xmlns:cc="http://creativecommons.org/ns#" xmlns:dc="http://purl.org/dc/elements/1.1/" xmlns:rdf="http://www.w3.org/1999/02/22-rdf-syntax-ns#">
   <cc:Work>
    <dc:type rdf:resource="http://purl.org/dc/dcmitype/StillImage"/>
    <dc:date>2024-07-04T12:09:46.067329</dc:date>
    <dc:format>image/svg+xml</dc:format>
    <dc:creator>
     <cc:Agent>
      <dc:title>Matplotlib v3.7.1, https://matplotlib.org/</dc:title>
     </cc:Agent>
    </dc:creator>
   </cc:Work>
  </rdf:RDF>
 </metadata>
 <defs>
  <style type="text/css">*{stroke-linejoin: round; stroke-linecap: butt}</style>
 </defs>
 <g id="figure_1">
  <g id="patch_1">
   <path d="m-0 280.51h201.92v-280.51h-201.92v280.51z" fill="none"/>
  </g>
  <g id="axes_1">
   <g id="PatchCollection_1">
    <defs>
     <path id="md7f00563d3" d="m186.19-43.306-0.7532-0.43289-0.66183-0.10728-0.80801-0.018748-0.79858 0.073191-0.88074 0.18391-0.82408 0.28087-1.8593 1.0583-1.8471 1.5292-1.8501 1.8225-1.8917 1.951-1.9859 1.9344-1.8866 1.6216-2.7988 2.175-1.5151 1.0864-1.5386 1.0126-2.2182 1.2644-2.1253 1.0319-2.4522 1.0217-1.3731 0.46918-1.6028 0.45897-3.4168 0.89246-3.2832 0.76092-3.0671 0.54919-6.5308 0.85912-5.9429 0.50314-2.3254 0.14441-2.6462 0.082584-2.0892-0.032134-1.4787-0.10188-1.4784-0.16261-2.0021-0.29974-1.9949-0.38146-3.0477-0.73374-2.9438-0.87623-3.399-1.2144-3.5272-1.3869-1.5989-0.57916-2.5868-0.78256-2.0851-0.47401-1.596-0.27332-1.8075-0.16439-0.8919-0.002599-0.62222 0.045146-1.1666 0.21964-1.0766 0.40849-1.4403 0.99146-0.91611 0.91854-0.84312 1.0198-1.5459 2.0421-0.67678 0.78841-0.976 0.89761-0.86995 0.57869-1.5151 0.69424-0.81572 0.25115-1.1146 0.23505-1.3755 0.15952-1.8383 0.017152-1.8891-0.27375-1.927-0.50783-0.98175-0.31664-3.814-1.4151-1.8784-0.80378-1.8093-0.86821-1.6946-0.93542-1.5283-1.0098-2.7434-2.2229-0.93559-0.65952-1.3638-0.82128-2.5581-1.3795-1.1203-0.68929-3.4924-2.7816-1.2255-0.69169-0.9835-0.33779-1.0695-0.23011-1.6885-0.21138-0.83638-0.05302-2.3692-5.07e-4 -1.0744 0.073522-1.3744 0.1768-1.352 0.27932-0.95034 0.26586-2.1537 0.72163-2.3521 0.97469-2.8798 1.3291-1.6449 0.64867-1.2479 0.36672-0.66397 0.1359-1.1702 0.11802-0.92577-0.034708-1.57-0.35723-1.1488-0.50037-1.1613-0.7302-0.73686-0.62201-0.69101-0.81424-0.15557-0.29659-0.051377-0.27186-0.98439-0.8244-0.73628-0.69318-0.53085-0.58621-0.41357-0.57-0.2607-0.50146-0.12601-0.4445 0.001575-0.54005 0.10676-0.38462 0.26854-0.49295 0.47617-0.58768 2.7262-2.7051 1.006-1.093 0.6131-0.77533 0.78064-1.1457 0.87008-1.49 0.57775-1.1099 3.9221-8.3261 1.444-2.7412 0.90766-1.4867 0.95704-1.4249 1.3827-1.8821 2.9344-3.7442 1.1055-1.5214 0.94235-1.5136 0.5637-1.1187 0.48105-1.1083 0.65709-1.7713 0.15967-0.57001 0.21118-1.1657 0.040597-1.0932-0.26122-1.7849-0.57695-1.8669-0.79313-1.944-2.7426-5.9504-5.0107-11.419-1.6269-3.8997-1.2401-3.3899-0.58852-2.0323-0.31248-1.4482-0.27152-2.4115 0.001516-1.1083 0.1226-1.3143 0.25174-1.2555 0.66611-1.841 0.6901-1.176 0.82433-0.98907 1.4584-1.3044 1.5782-1.0723 1.6477-0.98446 4.657-2.6028 1.9086-1.1763 1.8194-1.2731 1.108-0.88193 1.8727-1.6284 1.7155-1.7091 1.4567-1.7927 0.8507-1.4148 0.56063-1.4876 0.22009-1.8893-0.026809-0.72519-0.12848-1.12-0.20594-1.0944-0.37451-1.4288-0.61706-1.8833-1.4296-3.9226-0.68544-2.0499-0.39321-1.3486-0.60411-2.384-0.84307-4.1563-0.38464-2.5045-0.31061-2.7332-0.30598-4.4822-0.10718-3.7629 0.059764-5.4132 0.21111-5.5817 0.33812-5.3406 0.51064-6.089 0.5922-4.8145 0.3961-2.6239 1.8478-10.503 0.64648-3.9497 0.42436-3.1596 0.14615-1.8425-0.051073-0.41322 0.19695 0.40562 0.35664 0.36609 0.45939 0.23181 0.55211 0.030266 0.60696-0.16331 0.39927-0.18115 0.86847-0.52655 0.99293-0.79573 0.49049-0.49863 0.4215-0.53145 0.3861-0.68274 0.19985-0.65702 0.03448-0.47714-0.033506-0.4162-0.23291-1.0449-0.21962-0.69263-2.7339-7.4334-0.69018-1.6633-0.7948-1.6199-0.46981-0.83482-1.024-1.6205-1.6807-2.2822-1.5842-1.8529-1.1229-1.1125-0.82788-0.72132-4.4463-3.4759-1.1477-0.97034-1.6121-1.5524-1.5724-1.7924-0.91478-1.2318-0.78553-1.3339-0.3781-0.91242-0.17289-0.64305-0.057081-0.4803 0.063827-0.2201 2.2923 1.2875 19.123 11.22 5.4326 3.0829 2.6401 1.4438 2.5825 1.3538 2.5179 1.2368 2.4428 1.083 2.3527 0.87957 2.2414 0.61011 2.1011 0.25403 1.9224-0.21396 0.68854-0.23404 0.50603-0.23059 0.71276-0.40203 1.3974-0.99037 3.4493-2.9206 1.9235-1.454 0.84511-0.54729 1.0472-0.56229 0.6548-0.27092 0.68421-0.20974 1.2953-0.23152 1.0584-0.080491 0.7038-0.017407 3.7986 0.11496 2.3828 0.14223 0.83194 0.11421 1.4816 0.4051 0.8447 0.40452 1.1677 0.85432 0.75102 0.72497 1.6164 1.8933 2.3593 2.9678 1.691 1.9592 3.6347 3.9705 1.2908 1.5507 1.0133 1.3851 0.92553 1.4575 1.264 2.4237 0.79338 1.814 2.993 7.6666 1.1347 2.538 0.74274 1.43 0.81698 1.3888 1.447 2.1029 1.5995 2.0134 1.7073 1.9521 7.2138 7.6653 1.7426 1.9726 3.3566 4.0702 3.1978 4.206 1.5334 2.1519 1.4802 2.1885 1.5705 2.472 1.508 2.5122 1.4572 2.5436 2.7824 5.1622 1.3231 2.6162 1.2678 2.6425 1.0885 2.4093 1.0409 2.4302 1.9561 4.911 1.7801 4.9739 0.80674 2.5142 0.7675 2.6348 0.70864 2.6532 1.2988 5.3432 2.4411 11.14 8.3422 39.721 9.5474 43.616" stroke="#bdc660"/>
    </defs>
    <g clip-path="url(#pbac8e5aa45)">
     <use y="280.512" fill="#bdc660" stroke="#bdc660" xlink:href="#md7f00563d3"/>
    </g>
   </g>
  </g>
 </g>
 <defs>
  <clipPath id="pbac8e5aa45">
   <rect x="7.2" y="7.2" width="187.52" height="266.11"/>
  </clipPath>
 </defs>
</svg>
