<?xml version="1.0" encoding="UTF-8"?>
<!DOCTYPE svg  PUBLIC '-//W3C//DTD SVG 1.1//EN'  'http://www.w3.org/Graphics/SVG/1.1/DTD/svg11.dtd'>
<svg width="188.3pt" height="280.51pt" version="1.1" viewBox="0 0 188.3 280.51" xmlns="http://www.w3.org/2000/svg" xmlns:xlink="http://www.w3.org/1999/xlink">
 <metadata>
  <rdf:RDF xmlns:cc="http://creativecommons.org/ns#" xmlns:dc="http://purl.org/dc/elements/1.1/" xmlns:rdf="http://www.w3.org/1999/02/22-rdf-syntax-ns#">
   <cc:Work>
    <dc:type rdf:resource="http://purl.org/dc/dcmitype/StillImage"/>
    <dc:date>2024-07-04T12:09:39.176051</dc:date>
    <dc:format>image/svg+xml</dc:format>
    <dc:creator>
     <cc:Agent>
      <dc:title>Matplotlib v3.7.1, https://matplotlib.org/</dc:title>
     </cc:Agent>
    </dc:creator>
   </cc:Work>
  </rdf:RDF>
 </metadata>
 <defs>
  <style type="text/css">*{stroke-linejoin: round; stroke-linecap: butt}</style>
 </defs>
 <g id="figure_1">
  <g id="patch_1">
   <path d="m0 280.51h188.3v-280.51h-188.3v280.51z" fill="none"/>
  </g>
  <g id="axes_1">
   <g id="PatchCollection_1">
    <defs>
     <path id="m1f09f8084c" d="m155.54-133.99 0.21261 1.5236 1.1554 10.23 0.43037 3.2733 0.77332 5.0709 0.82404 4.4859 0.60397 2.7589 0.67121 2.6358 0.60625 2.1409 1.2872 4.1018 2.1474 6.1864 0.83376 2.5537 0.48736 1.596 0.76091 2.7699 0.64007 2.7107 1.244 5.8706 1.0189 5.2832 0.50444 2.914 0.70121 4.8051 0.46448 4.1817 2.1891 23.57 0.09779 1.9768-0.04207 1.9452-0.26256 1.8163-0.57576 1.6468-0.75808 1.19-0.77379 0.85936-0.33593 0.31507-1.631 1.2507-1.8755 1.1108-2.0554 0.99781-1.5132 0.63606-1.8168 0.66969-1.8744 0.58515-1.9223 0.48072-2.3848 0.40284-2.0124 0.14889-2.031-0.031766-2.034-0.22715-2.0205-0.44711-1.2663-0.40957-1.239-0.49867-1.1943-0.57119-2.0127-1.1495-1.9687-1.3274-1.9203-1.4651-1.9565-1.6454-1.8686-1.6941-1.5787-1.5084-3.5765-3.5282-0.442-0.38189-0.1662-0.045073-0.56667-0.48561-2.6324-1.9008-13.93-9.7181-4.031-2.6076-3.761-2.2161-3.5428-1.8968-1.4668-0.71142-2.2732-0.99215-2.2845-0.85566-2.2926-0.70229-2.2986-0.52033-1.4175-0.21522-0.87473-0.093545-2.0315-0.12412-2.0132-0.011933-2.1917 0.09458-1.7623 0.15685-1.8912 0.28936-1.4556 0.3413-0.76444 0.22969-1.7344 0.66142-1.6936 0.80574-1.6622 0.9057-3.1739 1.9415-3.6985 2.4799-1.5039 0.97148-1.365 0.79944-0.86193 0.43966-1.3893 0.55039-0.7536 0.20891-1.854 0.32356-2.966 0.28857-8.3672 0.48415-3.4054 0.080036-1.7273-0.039956-1.7179-0.1118-1.4206-0.16001-1.4292-0.23071-1.4005-0.29308-1.6361-0.42728-1.5661-0.50595-1.2991-0.50979-1.1744-0.56162-0.76734-0.45792-0.90101-0.67968-0.46394-0.42094-0.83542-0.91722-0.7738-1.0865-0.69247-1.2046-0.69754-1.4638-0.64106-1.5634-0.70139-1.9113-2.8475-8.5539-0.83262-2.3907-0.75239-1.9154-0.46717-0.92118-0.32225-0.23612 0.28611-0.45304 2.0828-2.564 9.0068-10.669 3.2481-3.9095 2.5974-3.2365 2.6963-3.5651 0.86193-1.2146 1.3684-2.0542 1.4265-2.4144 1.0785-2.1962 0.64256-1.6489 0.39567-1.2869 0.44417-1.9043 0.37952-2.3445 0.39487-3.845 0.4867-6.0183 0.40678-3.6705 0.51644-3.6138 1.3357-8.0415 0.38527-2.9711 0.24554-2.7199 0.14404-2.3283 0.13317-3.5916 0.31662-13.759 0.10903-7.2168 0.15936-4.7894 0.16169-3.6861 0.42737-7.1057 0.37521-9.3219 0.18377-3.0325 0.12762-1.3947 0.31582-2.4445 0.22518-1.3018 0.26796-1.2842 0.41598-1.6242 0.44574-1.4137 0.56981-1.5124 0.8098-1.7945 0.74839-1.4016 0.9372-1.4844 0.99948-1.3037 0.78058-0.85012 0.54028-0.51037 0.87805-0.70662 0.99997-0.63787 0.95315-0.46143 0.86314-0.3087 1.1961-0.2554 0.77074-0.051971 1.0757 0.078106 0.72557 0.13565 1.0107 0.27395 2.0683 0.77035 2.8315 1.2267 0.72471 0.26962 0.89451 0.23862 1.1562 0.02063 0.59625-0.18707 0.63261-0.35679 0.61973-0.49016 0.81028-0.80831 0.82124-0.95088 2.1499-2.653 1.2228-1.3857 1.653-1.6266 1.8173-1.5799 1.9134-1.5256 2.0002-1.4981 2.0642-1.4763 2.1114-1.4597 4.3197-2.8868 6.6349-4.3017 36.636-23.34 6.0462 38.624 5.5372 33.957 4.3691 28.059 0.70659 5.218 0.32826 2.7915 0.5839 5.652 0.9563 10.343 0.2739 2.5802" stroke="#bdc660"/>
    </defs>
    <g clip-path="url(#p7320b0d080)">
     <use y="280.512" fill="#bdc660" stroke="#bdc660" xlink:href="#m1f09f8084c"/>
    </g>
   </g>
  </g>
 </g>
 <defs>
  <clipPath id="p7320b0d080">
   <rect x="7.2" y="7.2" width="173.9" height="266.11"/>
  </clipPath>
 </defs>
</svg>
