<?xml version="1.0" encoding="UTF-8"?>
<!DOCTYPE svg  PUBLIC '-//W3C//DTD SVG 1.1//EN'  'http://www.w3.org/Graphics/SVG/1.1/DTD/svg11.dtd'>
<svg width="371.52pt" height="249.7pt" version="1.1" viewBox="0 0 371.52 249.7" xmlns="http://www.w3.org/2000/svg" xmlns:xlink="http://www.w3.org/1999/xlink">
 <metadata>
  <rdf:RDF xmlns:cc="http://creativecommons.org/ns#" xmlns:dc="http://purl.org/dc/elements/1.1/" xmlns:rdf="http://www.w3.org/1999/02/22-rdf-syntax-ns#">
   <cc:Work>
    <dc:type rdf:resource="http://purl.org/dc/dcmitype/StillImage"/>
    <dc:date>2024-07-04T12:09:37.855174</dc:date>
    <dc:format>image/svg+xml</dc:format>
    <dc:creator>
     <cc:Agent>
      <dc:title>Matplotlib v3.7.1, https://matplotlib.org/</dc:title>
     </cc:Agent>
    </dc:creator>
   </cc:Work>
  </rdf:RDF>
 </metadata>
 <defs>
  <style type="text/css">*{stroke-linejoin: round; stroke-linecap: butt}</style>
 </defs>
 <g id="figure_1">
  <g id="patch_1">
   <path d="m0 249.7h371.52v-249.7h-371.52v249.7z" fill="none"/>
  </g>
  <g id="axes_1">
   <g id="PatchCollection_1">
    <defs>
     <path id="m50d1b2d7d0" d="m339.66-206.43 0.12208-0.12219 0.31367-0.045377 1.1005 0.1271 1.3702 0.48356 0.81885 0.42704 1.0742 0.74594 0.96306 0.91379 0.73359 0.94233 0.35732 0.58186 0.52206 1.0895 0.69709 2.4197 0.22409 1.5299 0.11854 1.6772 0.013695 1.5469-0.077181 1.3427-0.28675 1.8864-0.63116 2.2423-0.72339 1.8241-1.0055 2.01-0.97086 1.6273-1.5182 2.2355-3.559 4.8562-0.90358 1.3733-0.92718 1.7741-0.32482 0.87024-0.29375 1.2021-0.1037 1.0417 0.057608 3.0496-0.10408 1.1737-0.32723 1.3017-0.6239 1.4351-0.6139 0.95692-0.62181 0.76584-4.6115 4.725-6.1471 7.2199-1.7029 2.1037-1.8531 2.5512-2.3334 3.4387-5.4246 7.483-1.2327 1.955-1.9665 3.5355-1.0266 1.6891-1.7529 2.5169-1.6639 2.0418-1.3231 1.3389-1.6122 1.4391-2.412 1.9501-2.242 1.6469-1.4748 0.97225-2.3345 1.4094-5.5176 3.0194-1.0981 0.6913-0.40302 0.38366-0.11368-0.005342-0.16227 0.10577-0.21151 0.23733-0.89229 1.5505-1.037 2.4339-0.88992 2.6362-1.1382 4.1993-2.3765 10.395-0.79106 3.1453-1.3263 4.859-1.0568 3.3807-1.1548 3.2576-1.0858 2.6826-1.1373 2.4259-1.3684 2.5835-3.0179 5.2528-3.0162 4.8067-3.7124 6.1342-4.0905 6.1598-3.0926 4.4296-1.6899 2.2333-1.1563 1.378-1.5497 1.6429-1.1784 1.0964-1.6101 1.3092-1.5918 1.1475-1.7113 1.0565-1.5672 0.80924-1.3966 0.59833-2.1541 0.68698-1.2022 0.24057-1.1148 0.1235-3.197-0.10921-3.3642-0.61227-3.5059-0.93198-4.5601-1.4086-17.917-6.1174-7.0728-2.2306-3.544-0.96627-3.5484-0.81152-3.5535-0.6025-4.3217-0.35136-3.9381 0.10152-3.9502 0.40223-7.5967 1.2088-48.073 8.907-63.302 11.38-31.926 0.28268 11.492-50.358 1.5438-7.1835 8.342-40.532 1.8638-8.6641 1.9807-8.4137 1.0875-4.0988 1.1962-4.0089 1.3517-3.8963 1.569-3.7512 1.8672-3.5616 2.1372-3.2082 2.4187-3.0304 2.0302-2.2607 2.8155-2.887 2.9318-2.8144 6.0799-5.4877 9.3833-7.9931 6.3438-5.1168 3.1997-2.4388 3.227-2.3112 3.2657-2.1302 3.3208-1.8772 3.3978-1.5286 3.5039-1.0552 3.7182-0.48819 3.8282-0.007281 3.907 0.32847 3.9617 0.54758 12.048 2.0438 4.0308 0.54203 4.0226 0.32699 4.0055 0.004644 3.5081-0.3351 3.4914-0.60747 3.478-0.81714 3.467-0.9774 3.4579-1.0994 3.8179-1.3231 7.6171-2.8652 15.201-6.1319 38.005-15.745 7.5773-3.0035 3.7705-1.4102 3.7497-1.3076 3.719-1.1581 3.6749-0.9446 3.6126-0.64425 3.5259-0.22764 3.4069 0.34274 3.3473 1.0721 3.2328 1.6546 3.165 2.0503 9.4993 7.0378 3.3078 2.1913 3.4613 1.872 1.9246 0.80667 1.7686 0.6011 2.6335 0.70253 2.9897 0.6332 21.739 3.9711 6.6425 0.95948 9.9431 1.1401 1.3905 0.23502 0.22917 0.10705" stroke="#bdc660"/>
    </defs>
    <g clip-path="url(#p8d3d2c8eb3)">
     <use y="249.698107" fill="#bdc660" stroke="#bdc660" xlink:href="#m50d1b2d7d0"/>
    </g>
   </g>
  </g>
 </g>
 <defs>
  <clipPath id="p8d3d2c8eb3">
   <rect x="7.2" y="7.2" width="357.12" height="235.3"/>
  </clipPath>
 </defs>
</svg>
