<?xml version="1.0" encoding="UTF-8"?>
<!DOCTYPE svg  PUBLIC '-//W3C//DTD SVG 1.1//EN'  'http://www.w3.org/Graphics/SVG/1.1/DTD/svg11.dtd'>
<svg width="355.86pt" height="280.51pt" version="1.1" viewBox="0 0 355.86 280.51" xmlns="http://www.w3.org/2000/svg" xmlns:xlink="http://www.w3.org/1999/xlink">
 <metadata>
  <rdf:RDF xmlns:cc="http://creativecommons.org/ns#" xmlns:dc="http://purl.org/dc/elements/1.1/" xmlns:rdf="http://www.w3.org/1999/02/22-rdf-syntax-ns#">
   <cc:Work>
    <dc:type rdf:resource="http://purl.org/dc/dcmitype/StillImage"/>
    <dc:date>2024-07-04T12:09:54.931330</dc:date>
    <dc:format>image/svg+xml</dc:format>
    <dc:creator>
     <cc:Agent>
      <dc:title>Matplotlib v3.7.1, https://matplotlib.org/</dc:title>
     </cc:Agent>
    </dc:creator>
   </cc:Work>
  </rdf:RDF>
 </metadata>
 <defs>
  <style type="text/css">*{stroke-linejoin: round; stroke-linecap: butt}</style>
 </defs>
 <g id="figure_1">
  <g id="patch_1">
   <path d="m0 280.51h355.86v-280.51h-355.86v280.51z" fill="none"/>
  </g>
  <g id="axes_1">
   <g id="PatchCollection_1">
    <defs>
     <path id="m694ea034ad" d="m333.14-135.32-0.32438-0.015439-0.52934 0.44523-0.38296 0.58603-0.29218 0.61918-0.24963 0.70269-0.23627 0.89741-0.2006 1.023-0.62762 4.1556-0.21348 0.9661-0.28322 1.0007-0.46239 1.2474-0.64242 1.3111-0.81832 1.3085-0.80478 1.0594-0.80413 0.91622-1.371 1.3589-1.2332 1.1024-0.76321 0.64296-1.5313 1.2034-3.4007 2.5315-3.9972 3.2509-0.83809 0.59379-0.81633 0.47437-0.59769 0.27206-0.83378 0.27638-0.74775 0.1529-1.114 0.075713-1.0048-0.074669-0.7453-0.1297-3.0943-0.81529-1.1347-0.26121-1.3967-0.25856-0.81564-0.093491-1.077-0.040965-1.4285 0.069069-0.76398 0.09762-0.69811 0.13502-0.66794 0.17552-0.70176 0.23844-0.66068 0.28326-1.145 0.66045-0.47977 0.34802-0.43935 0.36233-0.71046 0.70074-0.42626 0.50561-0.49722 0.67485-1.9069 2.977-1.0596 1.4643-0.79741 0.98101-0.95776 1.0819-1.294 1.2998-1.6534 1.5145-0.99784 0.82649-2.7683 1.9913-1.7045 1.3205-1.3707 1.1926-3.6739 3.3017-1.3644 1.0724-1.0554 0.64719-1.1858 0.53729-1.5234 0.48456-1.0111 0.23753-1.1523 0.20256-0.90571 0.11179-0.92753 0.077568-3.7983 0.16364-1.1229 0.12024-0.87895 0.16275-1.5135 0.46493-0.71934 0.29034-0.57197 0.27619-0.59866 0.35597-0.56775 0.43438-0.41793 0.40992-0.46309 0.5855-0.30278 0.48034-0.35089 0.68964-0.18617 0.47015-0.21016 0.7158-0.24893 1.4521-0.1046 1.471-0.014309 1.64 0.19508 4.9351-0.030026 0.53025-0.051791 0.085914-0.13777-0.078631-0.32789-0.040311-0.48833-0.003293-1.9895 0.14946-4.4081 0.15972-1.2871 0.014156-1.4305-0.053289-1.6522-0.12594-4.0978-0.15557-1.1246-0.15114-1.0713-0.28194-1.0345-0.35505-1.0468-0.41545-1.043-0.46154-2.301-1.1377-1.0128-0.58098-1.0085-0.73026-0.41472-0.36796-0.64429-0.67761-0.57244-0.70628-1.095-1.5444-0.675-1.101-0.7253-1.3793-0.40787-0.7034-0.46969-0.64907-0.82563-0.91914-0.9268-0.94009-0.93021-0.86222-0.8545-0.69428-1.3373-0.94032-1.2371-0.78306-1.4481-0.82531-1.7815-0.90046-1.6952-0.73692-1.3262-0.49305-1.2608-0.40984-1.3778-0.3883-1.4293-0.32002-1.4426-0.21213-1.311-0.091685-1.1693-0.016578-1.7272 0.052275-3.6174 0.19762-3.5097 0.11482-5.1786 0.35306-1.7086 0.006822-3.2676-0.074061-2.1973 0.05058-1.3272 0.087456-0.76813 0.095051-0.70552 0.15507-0.53933 0.19398-0.62681 0.34281-0.92437 0.70161-1.8982 1.5538-1.3022 0.96528-1.408 0.97314-1.4896 0.95837-1.5524 0.92031-1.6012 0.85633-1.6396 0.76181-1.6706 0.63007-1.4023 0.39512-1.4046 0.2736-0.74153 0.097417-7.4411 0.67345-1.4865 0.083594-0.88354 0.014155-3.3043-0.14916-1.4026-0.006635-3.0214 0.078475-1.7694 0.15847-1.0485 0.17962-0.82347 0.184-1.466 0.44886-1.0802 0.43199-1.1415 0.52127-1.5557 0.84838-1.6832 1.0906-1.7029 1.2774-0.69966 0.6-0.96179 0.90939-1.2367 1.2846-0.80768 0.909-0.89653 1.1487-1.16 1.6455-1.5233 2.3053-2.3741 3.8019-2.0604 2.9514-0.81771 1.0804-0.98602 1.2092-1.4425 1.6843-1.1919 1.3269-1.1695 1.2594-3.1511 3.253-5.171 4.8347-3.5143 3.4311-2.4607 2.5417-3.8954 4.2102-0.86569 0.85896-1.1241 0.98448-1.3752 1.0035-0.69822 0.43919-0.83133 0.46407-1.841 0.88398-1.912 0.7891-1.4705 0.50912-1.602 0.4848-7.6782 2.0171-3.7489 1.1119-2.2396 0.76345-1.9695 0.75976-1.2931 0.5957-0.2559 0.1577-0.10238 0.14025-0.15522 0.06579-0.076819 0.038069-0.27016 0.073632-0.47839 0.079954-0.67458 0.039368-0.85641-0.094097-0.60954-0.19676-0.65682-0.37195-0.76117-0.65419-0.81087-0.96833-0.57402-0.85857-0.54538-0.93936-0.72651-1.4043-3.2706-7.0181-4.0689-9.2801-1.0355-2.4193-0.66255-1.6414-0.58888-1.6075-0.47882-1.5393-0.37465-1.5451-0.752-3.6837-0.27181-1.0893-0.32634-1.0557-0.3596-0.91906-0.43363-0.87417-0.79756-1.2163-0.92781-1.1397-1.9111-2.1256-2.9133-3.472-0.56119-0.5972-0.92031-0.87082-3.9266-3.3475-1.5214-1.4635-0.74697-0.79637-1.1456-1.3487-1.0704-1.4397-0.56825-0.86047-0.53442-0.89031-0.81902-1.5696-0.61471-1.3971-0.43426-1.1392-0.43219-1.2874-1.4802-5.0654-0.51366-1.6264-0.12539-0.26871 0.00861-0.054174 0.24924-0.30686 1.8048-1.8816 0.85113-0.93353 1.4118-1.6885 0.99094-1.2971 0.74968-1.0616 0.81876-1.2811 0.50131-0.88647 0.74011-1.5731 0.59561-1.7815 0.085572-0.35464 0.1164-0.57003 0.23456-1.8477 0.072732-1.8781-0.034786-1.8157-0.099301-1.8226-0.4929-6.8329-0.082956-1.9835-0.005588-1.9565 0.049598-1.1631 0.099956-1.1489 0.26102-1.6662 0.32925-1.3279 0.40598-1.2584 0.52839-1.3763 1.8164-4.4515 1.4547-3.915 2.3033-6.5119 2.0669-6.4005 0.64158-1.8712 1.0555-2.7458 1.8812-4.3478 1.3069-2.9162 1.0485-2.1688 0.56353-1.0744 0.77931-1.3654 0.84535-1.3083 0.93594-1.2362 0.96-1.0709 1.3103-1.2323 1.405-1.1181 1.4782-1.0079 1.5358-0.89219 1.5828-0.76064 1.7265-0.63312 1.7716-0.40252 0.75225-0.084611 0.65581-0.032506 1.6793 0.062323 1.1186 0.13454 1.1245 0.19188 1.2274 0.25908 2.4871 0.63516 3.4696 0.99724 2.3572 0.6333 10.629 2.3837 0.88017 0.14986 0.81022 0.082911 0.92263-0.005195 0.74613-0.11591 0.61503-0.2078 0.56543-0.29778 0.3542-0.24109 0.55896-0.47237 0.80937-0.86476 2.7244-3.3481 0.99908-1.0984 0.45973-0.43457 0.74814-0.58731 0.5199-0.33473 0.67608-0.3519 0.5132-0.20331 0.5616-0.1642 0.71885-0.13202 0.8563-0.057874 0.68109 0.015189 2.3728 0.2204 1.5418 0.085463 1.6331-0.0482 0.90472-0.093124 0.7366-0.11939 1.3916-0.3426 1.1169-0.38401 1.1677-0.49256 0.73657-0.36457 0.91338-0.51984 0.76598-0.50056 1.2495-0.94523 1.0957-0.97285 1.2018-1.2296 1.3899-1.6036 0.58972-0.74776 1.0169-1.418 0.88959-1.4301 0.58943-1.1492 0.43281-1.0776 0.33339-1.1031 0.18031-0.86563 0.10334-0.99617 0.005212-0.71818-0.095951-1.1336-0.16075-0.8769-0.2537-0.93246-0.31837-0.90306-0.5884-1.3387-0.35408-0.679-0.64816-1.0877-2.7266-4.0986-0.99133-1.7073-0.58921-1.1656-0.52586-1.1874-0.68686-1.9223-0.45113-1.5337-0.23054-0.90474-0.34373-1.6214-0.23147-1.3702-0.17397-1.2701-0.23804-2.2934-0.15414-2.0445-0.17686-3.1953-0.11628-1.3425-0.23636-1.5961-0.36985-1.6734-0.60708-2.3118-0.58897-2.0546-0.83216-2.5607-0.6337-1.7922-1.1276-2.892-1.8373-4.3103-0.62505-1.6605-0.20885-0.72599-0.17156-0.93067-0.032899-0.78951 0.10611-0.86688 0.25169-0.77229 0.34406-0.66414 0.56676-0.78447 0.67742-0.7123 0.98333-0.79911 0.96328-0.61967 0.85966-0.44845 1.0645-0.45318 0.83414-0.29836 1.5433-0.46873 1.7409-0.44732 1.6922-0.36664 1.3819-0.24044 1.3276-0.18506 2.1993-0.23284 0.37487-0.075011 0.1069-0.012214 0.36022 0.10252 1.1443 0.47443 2.5318 1.2151 1.935 0.99212 1.164 0.65464 1.0007 0.62931 0.98715 0.70833 0.49998 0.39972 0.71121 0.63236 0.51954 0.52394 0.62104 0.7264 0.86127 1.2585 1.6837 3.0422 0.62607 1.0636 0.61408 0.94131 1.0931 1.489 0.7181 0.89242 2.1884 2.5076 2.3929 2.5749 1.7629 1.9528 3.3197 3.9498 0.70666 0.80782 1.3202 1.4 0.80363 0.77684 1.1299 1.0145 1.8859 1.5617 1.0737 0.78094 1.0707 0.67823 0.97057 0.5346 1.1358 0.55733 1.2691 0.56591 1.1291 0.45188 1.5896 0.51852 1.263 0.28401 0.74895 0.11092 1.1366 0.068128 0.75509-0.048562 0.48946-0.083352 0.46429-0.12604 0.78448-0.33379 0.62997-0.37407 1.239-0.97547 0.97732-0.94689 1.9881-2.0871 1.8327-1.7715 1.2698-1.1035 1.3376-1.0199 0.66604-0.44577 0.48131-0.2928 1.155-0.59982 1.2121-0.50045 1.5644-0.49244 1.6207-0.36963 1.6104-0.2552 1.6404-0.16608 1.4731-0.080569 2.5966-0.021761 2.0922 0.057393 2.8399 0.14534 8.8286 0.64134 2.1673 0.24894 1.3502 0.25134 0.97104 0.23699 1.7872 0.55445 1.3165 0.50163 1.2492 0.54989 4.3215 2.0845 1.6258 0.88109 0.821 0.55992 0.86396 0.83682 0.57663 0.7065 0.49069 0.79152 0.14595 0.2936 0.26891 0.69543 0.1786 0.73027 0.10698 1.1762 0.050351 2.3288 0.2199 1.0756 0.31312 0.67987 0.69622 0.99644 0.92068 1.1266 0.5828 0.79892 0.48938 0.84804 0.47692 1.1895 0.26349 0.8518 0.52155 1.874 0.76235 3.0947 0.2777 0.87594 0.41461 1.0184 0.48193 0.90449 0.32762 0.52154 0.47486 0.65317 0.55764 0.66441 0.70176 0.72416 0.6983 0.60958 0.67407 0.48544 0.91225 0.53088 1.4109 0.57254 1.3843 0.24842 1.5351-0.13573 1.0779-0.29499 1.0922-0.422 0.69428-0.31979 0.94382-0.48465 1.3229-0.75594 2.0918-1.3325 2.1245-1.4618 1.4491-1.0436 1.2197-0.95543 0.63136-0.55499 1.2604-1.3034 0.71136-0.873 0.67718-0.91483 1.3161-1.9388 0.67772-1.1464 0.66878-1.3142 0.94387-2.2206 1.1016-3.019 0.4466-1.5538 0.49191-2.451 0.22853-0.75242 0.16898-0.41343 0.37007-0.68177 0.61055-0.83474 0.26466-0.30396 0.77772-0.80392 0.82852-0.75528 0.87758-0.70668 1.7275-1.2149 1.0347-0.5984 0.72414-0.32659 0.83026-0.21574 0.81804 0.12613 0.58003 0.57204 0.33024 0.62443 0.28645 0.76079 0.25752 0.8579 0.79913 2.9927 0.53657 1.6545 0.32488 0.78035 0.58142 1.0179 0.41912 0.49334 0.48101 0.38181 0.88788 0.35382 1.0095 0.1134 1.0862-0.047474 3.683-0.48408 1.1427-0.11523 0.82062 0.010823 0.42936 0.065476 0.29183 0.080991 0.46084 0.22528 0.38469 0.33684 0.29169 0.37788 0.3047 0.52179 0.90367 2.0638 0.88037 1.8681 3.1074 6.0161 0.85363 1.5313 0.58517 0.94692 0.61635 0.89394 0.70895 0.8913 0.75946 0.7906 0.66733 0.557 0.71164 0.45852 1.2777 0.53284 1.0414 0.26968 3.7705 0.66866 0.87808 0.2401 0.9974 0.41902 0.99749 0.67686 0.91683 0.86923 0.58814 0.6693 0.57071 0.72012 0.84083 1.1657 1.019 1.5669 2.2508 3.8212 0.72957 1.1278 1.7397 2.4157 0.6798 1.1717 0.67241 1.3744 0.49533 1.1113 0.57104 1.4134 0.47716 1.3538 0.49522 1.6413 0.32854 1.291 0.83285 3.7915 0.78074 3.2472 0.18221 1.0133 0.091067 1.0135 0.001573 0.50168-0.10753 1.3487-0.18665 1.2456-0.43545 2.2708-0.26221 1.6393-0.097898 1.0848-0.021805 0.67071 0.013455 0.70502 0.093911 0.99202 0.18802 0.97185 0.28846 0.96676 0.34838 0.86211 0.34143 0.71114 0.66014 1.2016 0.87596 1.4028 2.1526 3.2548 0.87002 1.4409 0.71566 1.2641 2.1181 4.1741 0.83052 1.5155 1.8447 3.2106 1.2479 2.3541 0.52253 1.0942 0.54882 1.258 0.35872 0.91004 0.061157 0.27945" stroke="#bdc660"/>
    </defs>
    <g clip-path="url(#p0fb963fab2)">
     <use y="280.512" fill="#bdc660" stroke="#bdc660" xlink:href="#m694ea034ad"/>
    </g>
   </g>
  </g>
 </g>
 <defs>
  <clipPath id="p0fb963fab2">
   <rect x="7.2" y="7.2" width="341.46" height="266.11"/>
  </clipPath>
 </defs>
</svg>
