<?xml version="1.0" encoding="UTF-8"?>
<!DOCTYPE svg  PUBLIC '-//W3C//DTD SVG 1.1//EN'  'http://www.w3.org/Graphics/SVG/1.1/DTD/svg11.dtd'>
<svg width="207.08pt" height="280.51pt" version="1.1" viewBox="0 0 207.08 280.51" xmlns="http://www.w3.org/2000/svg" xmlns:xlink="http://www.w3.org/1999/xlink">
 <metadata>
  <rdf:RDF xmlns:cc="http://creativecommons.org/ns#" xmlns:dc="http://purl.org/dc/elements/1.1/" xmlns:rdf="http://www.w3.org/1999/02/22-rdf-syntax-ns#">
   <cc:Work>
    <dc:type rdf:resource="http://purl.org/dc/dcmitype/StillImage"/>
    <dc:date>2024-07-04T12:09:55.254381</dc:date>
    <dc:format>image/svg+xml</dc:format>
    <dc:creator>
     <cc:Agent>
      <dc:title>Matplotlib v3.7.1, https://matplotlib.org/</dc:title>
     </cc:Agent>
    </dc:creator>
   </cc:Work>
  </rdf:RDF>
 </metadata>
 <defs>
  <style type="text/css">*{stroke-linejoin: round; stroke-linecap: butt}</style>
 </defs>
 <g id="figure_1">
  <g id="patch_1">
   <path d="m0 280.51h207.08v-280.51h-207.08v280.51z" fill="none"/>
  </g>
  <g id="axes_1">
   <g id="PatchCollection_1">
    <defs>
     <path id="m8049182400" d="m116.05-256.34-0.34534 0.41721-0.40225 0.56015-0.77771 1.2003-0.73717 1.3033-0.69391 1.4186-0.33797 0.78936-0.30561 0.801-0.3414 1.0592-0.35879 1.5065-0.15746 0.93154-0.11486 0.9161-0.094462 1.1244-0.051495 1.5699 0.044815 1.0937 0.1223 0.8896 0.22221 0.77593 0.43018 0.73433 0.51104 0.42325 0.62876 0.26927 0.71349 0.12489 0.42787 0.009901 0.53681-0.032843 2.2464-0.30548 1.1204-0.11545 1.1516-0.066494 1.6153-0.033006 0.93231 0.014771 0.93334 0.056655 3.4256 0.36909 1.6661 0.10252 1.3672-0.002922 0.75979-0.049822 0.79102-0.089542 2.9149-0.48446 2.8343-0.38156 0.62464-0.11985 0.67642-0.16939 0.92512-0.29642 0.8302-0.33261 1.0914-0.49421 2.6366-1.2672 1.2597-0.5271 0.69757-0.24004 0.75027-0.20744 0.5829-0.11174 0.72307-0.062998 0.31198 0.001286 0.52615 0.046391 0.36475 0.062211 0.48225 0.11623 1.0597 0.35399 2.0291 0.81807 1.1061 0.40131 0.9891 0.28463 1.1286 0.24979 0.92836 0.16446 1.4493 0.2115 0.98936 0.12017 1.0513 0.078014 0.87009-0.002125 0.39528-0.043043 0.24977-0.071372 0.066985-0.076127 0.12866 0.14244 0.10017 0.32176 0.085968 0.48335 0.061452 0.72835-0.024407 1.0792-0.037598 0.35887-0.19501 1.0949-0.1595 0.6235-0.20057 0.64585-0.20826 0.5722-0.26442 0.63233-0.31451 0.65818-0.36479 0.67522-0.32294 0.54182-0.61196 0.93054-0.93443 1.2643-0.7931 0.97333-0.73054 0.8492-1.1939 1.3278-0.68473 0.82951-0.21914 0.31409-0.19771 0.33447-0.1347 0.2863-0.14884 0.48619-0.050653 0.40379 0.003375 0.34296 0.042818 0.40086 0.17233 1.0489 0.05506 0.50501 0.007504 0.58007-0.059881 0.67223-0.1485 0.79003-0.16928 0.63992-0.69192 2.0925-0.17414 0.59783-0.099022 0.49317-0.032407 0.56432 0.020334 0.32767 0.071983 0.48859 0.19068 0.76044 0.17821 0.54718 0.9218 2.5446 0.39707 1.3411 0.21663 0.94711 0.18899 1.1886 0.070732 0.70435 0.047099 0.87976 0.004269 0.73818-0.048083 1.0014-0.13783 1.0642-0.1569 0.84674-0.2313 1.0245-0.21775 0.65476-0.2618 0.64189-0.31954 0.69444-0.35697 0.65988-0.40919 0.60194-0.65372 0.71946-0.39667 0.38514-0.52653 0.46232-0.56021 0.42425-0.78678 0.46828-0.85211 0.36592-0.85239 0.27549-1.6903 0.39218-0.44877 0.19187-0.25537 0.23813-0.15924 0.28134-0.11922 0.41591-0.043628 0.41691 0.00475 0.46528 0.10028 0.88264 0.11608 0.6265 0.3196 1.3592 0.58642 2.1183 2.7207 9.2379 0.66056 2.0279 0.42996 1.2207 0.4822 1.2871 0.82011 2.0318 0.84466 1.9051 0.52396 1.0876 0.39759 0.77128 0.69815 1.2414 0.79418 1.2545 0.47176 0.68325 0.83116 1.1301 2.1794 2.8683 1.9353 2.7482 0.56079 0.75427 0.56881 0.70822 0.82162 0.91522 0.82912 0.79646 0.68913 0.56187 0.79727 0.53125 0.37614 0.20335 0.37559 0.16985 0.66813 0.21269 0.49459 0.076517 0.52961 0.002251 0.73927-0.10172 2.527-0.57605 1.1646-0.17971 1.2306-0.11408 1.2794-0.061974 1.3144-0.020622 2.6913 0.053142 2.7152 0.15506 1.3441 0.11658 1.3205 0.14893 1.2823 0.19049 1.2251 0.24569 1.1429 0.31999 1.0278 0.42012 0.86971 0.5543 0.55172 0.55204 0.34908 0.47418 0.28064 0.5089 0.20519 0.5312 0.12843 0.47527 0.13828 0.79222 0.1029 0.99354 0.032529 0.61323-0.002607 0.71744-0.074414 0.77326-0.1442 0.7388-0.28026 0.95716-0.40508 0.9166-0.39414 0.63395-0.51865 0.66358-1.001 1.0505-0.75325 0.6847-1.554 1.3109-0.91917 0.81118-0.80884 0.79064-0.63127 0.68492-0.86832 1.063-0.81816 1.1286-0.50194 0.75631-0.3739 0.61269-0.34478 0.62126-0.3457 0.71038-0.29056 0.72517-0.32024 1.0899-0.5505 2.4196-0.53903 2.6197-1.1554 6.129-0.33015 1.5637-0.45896 1.8911-0.3236 1.1431-0.4127 1.2895-0.30952 0.86154-0.43418 1.0649-0.49558 1.0353-0.46636 0.83398-0.67275 1.061-0.55581 0.80034-0.68213 0.92283-0.73328 0.94077-1.5453 1.8689-1.3904 1.5977-2.2149 2.4647-0.92839 1.1001-0.48248 0.63219-0.41979 0.61521-0.33887 0.57465-0.32512 0.67955-0.1643 0.45093-0.10146 0.36942-0.093528 0.55997-0.009603 0.77799 0.055969 0.49473 0.076279 0.40516 0.13117 0.51493 0.22642 0.68563 0.3955 0.95479 0.552 1.1038 0.57102 0.96866 0.062423 0.253 1.6217 4.7422 1.1234 3.4187 0.66148 2.2216 0.28382 1.0867 0.23882 1.0708 0.17919 1.0552 0.10014 1.0399-0.004405 1.0244-0.13069 1.0194-0.23292 1.0067-0.30618 0.99692-0.35793 0.98959-0.81245 1.9643-0.88071 1.9528-3.6669 7.8119-2.1092 4.5523-1.264 2.653-1.6091 3.2181-2.9351 5.6628-0.74859 1.5061-0.32222 0.73849-0.12406 0.023454-0.3912 0.1592-0.93377 0.42473-2.693 1.318-1.9042 0.98303-5.725 3.0609-1.6481 0.85121-1.4702 0.66868-0.88966 0.33514-0.88877 0.26683-0.88156 0.19895-0.98558 0.15802-1.0916 0.10993-1.2391 0.065715-1.0122 0.024977-1.9701 0.006115-2.1039-0.036189-2.1524-0.082474-3.6935-0.19362-2.1818-0.051437-1.4041 0.025671-1.4306 0.088125-1.4532 0.14665-1.1233 0.14409-1.7599 0.27275-1.2446 0.23744-1.0376 0.23087-1.8534 0.49845-1.1952 0.3941-1.1528 0.44648-3.3233 1.4466-1.5139 0.6029-0.86354 0.28465-0.7064 0.18699-0.74161 0.14357-0.7261 0.083705-0.68464 0.024713-0.6515-0.025389-0.66273-0.07304-0.59736-0.10604-0.91499-0.23678-0.97255-0.34541-1.3125-0.57726-3.377-1.7546-0.74574-0.33878-0.93471-0.37265-1.1647-0.39855-1.1266-0.31845-1.091-0.21937-0.99107-0.12202-0.7033-0.045987-0.69679-0.016776-1.4616 0.041319-2.4923 0.18474-1.5687 0.040244-0.72462 0.10816-0.36585 0.12325-0.41464 0.23165-0.20909 0.16237-0.33566 0.33969-0.24215 0.31902-0.41657 0.70823-0.87482 1.8595-0.16649 0.27013-0.2062 0.26584-0.4848 0.44255-0.66582 0.37514-0.51751 0.13302-0.56367 0.040422-0.43531-0.019119-0.68654-0.10651-0.45976-0.14438-0.77669-0.36073-0.62634-0.36851-0.45067-0.32893-0.5411-0.47262-1.1455-1.1126-0.28342-0.23635-0.38614-0.26351-0.19441-0.10372-0.25964-0.10727-0.34279-0.089444-0.81276-0.031688-0.69241 0.12608-0.90666 0.33899-0.52224 0.27757-0.51301 0.33228-0.72001 0.57702-0.48627 0.47504-0.45971 0.52537-0.38472 0.50714-1.8097 2.795-1.2087 1.7674-0.1942 0.25388-0.29269 0.011725-0.54236-0.056575-0.90062-0.16205-0.9934-0.26259-0.86876-0.32286-0.78302-0.41247-0.64097-0.51185-0.34516-0.42536-0.27164-0.46896-0.22069-0.49493-0.46974-1.2345-0.66731-1.5157-0.50461-1.2538-0.21029-0.42424-0.34373-0.533-0.36705-0.42097-0.57683-0.5278-0.56589-0.44663-3.2732-2.2962-0.89899-0.66932-0.81714-0.65885-0.86531-0.77267-0.63449-0.63503-0.47863-0.52845-0.66634-0.81779-0.43989-0.59129-1.0193-1.5006-1.7604-2.6843-0.3899-0.54662-0.8593-1.1181-1.0073-1.1756-0.94547-0.99557-0.96198-0.92773-0.80022-0.71963-0.99514-0.83959-1.2328-0.975-1.0065-0.75941-2.6623-1.9464-0.6704-0.54486-0.44095-0.40541-0.4738-0.51511-0.19462-0.25433-0.21122-0.32892-0.27102-0.58243-0.17472-0.56655-0.18543-0.97747-0.31378-2.2882-0.14821-0.70486-0.16176-0.57328-0.16118-0.45223-0.21764-0.49456-0.25539-0.46976-0.28648-0.43114-0.3823-0.46968-0.42684-0.42621-0.40364-0.33559-0.58926-0.40354-0.37474-0.20034-0.2146-0.078961-0.10679-0.014308-0.073262 0.019856-0.48627-1.1672-0.2897-0.80096-0.26681-0.97219-0.22691-1.1612-0.12737-1.1339-0.021089-1.1004 0.034899-1.0188 0.14386-1.344 0.10716-0.69938 0.15627-0.80329 0.18864-0.75601 0.19709-0.63611 0.38247-1.007 1.2326-2.7028 0.34732-0.88478 0.30351-0.99293 0.43656-1.9403 0.16573-0.55874 0.2478-0.53449 0.18008-0.25076 0.14041-0.13712 0.15409-0.10374 0.33705-0.10302 0.37619 0.013986 0.25272 0.063463 0.4038 0.15485 1.9203 0.95598 1.2908 0.58709 0.92928 0.38438 1.2567 0.46233 1.0339 0.32926 3.1065 0.92485 2.8468 0.89636 1.2417 0.30216 2.0522 0.39974 0.27677 0.070277 0.17969 0.062776 0.035658 0.032872-0.060647-0.16592-0.061499-0.75971-0.004153-0.49572 0.029871-0.52952 0.10249-0.75021 0.1528-0.7008 0.14057-0.50726 0.24125-0.73389 0.361-0.93687 0.40226-0.93147 1.9916-4.1885 0.9241-1.7519 1.7717-3.0246 1.8519-3.2573 0.73322-1.1661 0.93403-1.3696 0.82505-1.1274 1.5667-2.0577 1.0776-1.5296 0.51527-0.85961 0.24602-0.4877 0.42741-1.1098 0.65488-2.2964 0.57317-1.8283 0.25642-0.92592 0.18588-0.94736 0.046385-0.38787 0.045965-0.73202 0.003269-0.74577-0.039469-0.91756-0.074283-0.92892-0.30971-2.9363-0.067597-0.82426-0.052349-1.2092 0.028394-1.0684 0.15303-1.1958 0.2741-1.1607 0.38331-1.1132 0.488-1.0507 1.2852-2.1516 0.39919-0.73917 0.46666-1.0285 0.31679-0.84176 0.48839-1.5828 0.35174-1.3735 1.1055-5.0879 0.40094-1.5998 0.25316-0.86599 0.28444-0.85562 0.48812-1.2518 0.46856-1.06 0.49993-1.0501 0.97658-1.9435 2.0316-3.9398 1.6084-3.0106 1.1113-1.9598 0.58473-0.95558 0.56847-0.86446 0.59833-0.83919 0.63321-0.8087 0.76418-0.88078 1.4243-1.5079 0.73907-0.73262 1.3085-1.2133 1.0507-0.8802 0.67234-0.51296 0.73165-0.51163 0.9334-0.59249 1.0126-0.58517 1.0351-0.55377 1.2047-0.60596 4.5755-2.196 1.0938-0.54633 0.93574-0.49299 0.90589-0.51352 0.86559-0.54221 0.89509-0.64522 0.80823-0.70874 0.69414-0.79254 0.49732-0.77861 0.40636-0.84575 0.43582-1.2218 0.33694-1.2928 0.29781-1.5531 0.14068-0.9146 0.25299-2.007 0.23684-2.3227 0.65684-7.2692 0.68361-6.2508 0.22633-2.3217 0.15206-2.1716 0.033951-0.99737-0.004845-0.92613-0.045281-0.72684-0.095686-0.63762-0.16069-0.52585-0.37305-0.49874-0.17905-0.092836-0.135-0.039207-0.23593-0.027683-0.34452 0.016404-0.57978 0.11229-0.93488 0.27703-3.877 1.4248-3.3848 1.1753-1.7715 0.55586-1.6619 0.44143-1.2827 0.27062-1.367 0.2474-3.1421 0.42764-4.2719 0.736-0.68691 0.083633-0.82487 0.0639-0.69501 0.023413-0.69192-0.010804-1.2426-0.12275-0.93509-0.18214-0.49405-0.12703-0.68905-0.21343-0.58372-0.21733-0.70586-0.31388-0.92537-0.52095-0.89235-0.60902-1.7766-1.3051-0.80029-0.52862-0.78779-0.45678-0.83676-0.43882-1.5176-0.77396-1.8424-0.89353-2.6759-1.2105-1.1581-0.47886-0.82119-0.30902-0.81487-0.2644-0.59976-0.14196-0.65988-0.085569-0.44949-0.015282-0.42736 0.01344-0.76056 0.078816-0.71658 0.11742-1.6599 0.35819-2.574 0.71242-1.184 0.2927-0.85793 0.15975-1.0744 0.15579-1.3163 0.14518-1.3085 0.080001-0.85312 0.004603-1.942-0.074406-0.61556 0.006695-0.58906 0.082446-0.25276 0.095879-0.042867-0.41205-0.089351-0.5442-0.21442-1.0823-0.30626-1.3527-0.67907-2.6182-1.2984-4.5674-0.26756-1.0539-0.16403-0.80755-0.079696-0.69284-0.014609-0.43403 0.010831-0.3753 0.060165-0.5469 0.092841-0.41462 0.17641-0.46942 0.29801-0.49788 0.4796-0.55954 0.76361-0.69597 0.90432-0.7145 0.98685-0.71533 2.1269-1.4357 5.6444-3.6347 2.2684-1.4872 1.9295-1.3093 1.8226-1.29 1.7035-1.2801 0.92402-0.7384 4.3426-3.6372 1.6203-1.3182 0.7724-0.59551 2.0421-1.4441 0.21732-0.17388 0.41968-0.38477 1.0744-1.1596 2.0237-2.0497 0.71876-0.77893 0.46133-0.56303 0.33307-0.47488 0.26479-0.46631 0.13952-0.31503 0.1679-0.55683 0.11407-0.70604 0.15452-1.2635 0.12388-0.46726 0.17398-0.40302 0.34626-0.54249 0.48865-0.57024 0.66572-0.62013 0.64018-0.51904 2.1686-1.6444 0.95846-0.82372 0.37748-0.36142 0.42666-0.46105 0.14446-0.18966 0.10197-0.18101 0.004104-0.12857 0.16568 0.10197 0.42925 0.1441 1.2902 0.33738 0.79186 0.223 0.43112 0.14557 0.64522 0.25392 0.85246 0.39291 0.89615 0.47605 0.91253 0.54502 0.78753 0.51421 7.4716 5.2495 0.85594 0.5275 0.49551 0.26457 0.7045 0.32098 0.83211 0.29364 1.011 0.23885 1.1515 0.16111 1.0946 0.080899 1.4691 0.034348 1.6101-0.034817 1.3357-0.080756 1.3651-0.12593 1.8713-0.2317 1.5669-0.23282 1.7405-0.31505 2.2801-0.52826 2.3786-0.64288 1.6334-0.47744 3.014-1.0015 4.9648-1.7561" stroke="#bdc660"/>
    </defs>
    <g clip-path="url(#p5008d742c1)">
     <use y="280.512" fill="#bdc660" stroke="#bdc660" xlink:href="#m8049182400"/>
    </g>
   </g>
  </g>
 </g>
 <defs>
  <clipPath id="p5008d742c1">
   <rect x="7.2" y="7.2" width="192.68" height="266.11"/>
  </clipPath>
 </defs>
</svg>
