<?xml version="1.0" encoding="UTF-8"?>
<!DOCTYPE svg  PUBLIC '-//W3C//DTD SVG 1.1//EN'  'http://www.w3.org/Graphics/SVG/1.1/DTD/svg11.dtd'>
<svg width="371.52pt" height="274.5pt" version="1.1" viewBox="0 0 371.52 274.5" xmlns="http://www.w3.org/2000/svg" xmlns:xlink="http://www.w3.org/1999/xlink">
 <metadata>
  <rdf:RDF xmlns:cc="http://creativecommons.org/ns#" xmlns:dc="http://purl.org/dc/elements/1.1/" xmlns:rdf="http://www.w3.org/1999/02/22-rdf-syntax-ns#">
   <cc:Work>
    <dc:type rdf:resource="http://purl.org/dc/dcmitype/StillImage"/>
    <dc:date>2024-07-04T12:10:00.477364</dc:date>
    <dc:format>image/svg+xml</dc:format>
    <dc:creator>
     <cc:Agent>
      <dc:title>Matplotlib v3.7.1, https://matplotlib.org/</dc:title>
     </cc:Agent>
    </dc:creator>
   </cc:Work>
  </rdf:RDF>
 </metadata>
 <defs>
  <style type="text/css">*{stroke-linejoin: round; stroke-linecap: butt}</style>
 </defs>
 <g id="figure_1">
  <g id="patch_1">
   <path d="m0 274.5h371.52v-274.5h-371.52v274.5z" fill="none"/>
  </g>
  <g id="axes_1">
   <g id="PatchCollection_1">
    <defs>
     <path id="mc77742a7b0" d="m343.94-195.92-0.59993 0.29141-0.87957 0.50081-2.3144 1.5036-1.4229 1.0352-1.3933 1.0915-1.5934 1.3428-1.175 1.0623-1.2433 1.2137-1.1524 1.2563-0.87438 1.0977-0.60314 0.88137-0.44506 0.75372-0.62532 1.2911-0.44245 1.1972-0.32595 1.2018-0.19844 1.0314-0.13204 1.0955-0.045257 1.3586 0.057758 0.99213 0.12898 0.91857 0.24692 1.0798 0.37705 1.1493 0.52238 1.1722 0.34985 0.61338 0.38952 0.55684 0.53758 0.59316 1.3117 0.93468 1.5819 0.76043 4.0405 1.661 2.119 0.9499 2.1098 1.1362 0.64202 0.40638 1.2301 0.88398 0.57222 0.47559 1.3861 1.4426 0.68962 1.0312 0.75823 1.7326 0.43334 1.8512 0.12733 1.9018-0.18122 1.8897-0.51327 1.8169-0.6609 1.3777-2.4266 3.8664-0.75089 1.312-0.68068 1.3456-0.84879 1.9452-0.76329 2.0397-1.162 3.6892-0.44454 1.6254-1.7052 6.8153-0.56293 1.8288-1.0292 3.0468-0.2394 0.93158-0.1372 0.80517-0.051373 0.62668 0.038917 1.3463 0.13314 1.0318 0.54579 2.7322 0.28944 1.7118 0.078048 1.7374-0.29574 2.0073-0.61551 2.0533-2.543 6.4481-1.594 4.6684-0.83817 2.0226-0.95991 1.9765-1.0597 1.9102-1.1007 1.7215-0.88316 1.1619-1.4668 1.6882-2.7328 2.8949-1.3753 1.577-1.2837 1.6733-1.3062 1.9755-0.83037 1.3654-0.9329 1.6616-0.68618 1.3534-0.59183 1.2977-0.73215 1.8429-0.43353 1.2869-0.45282 1.6264-0.31774 1.5263-0.1622 1.1314-0.095377 1.1235-0.031858 1.1022 0.035403 1.5021 0.34229 4.5459 0.07323 2.2696-0.079558 2.2598-0.26329 2.2037-0.4905 2.0942-0.75292 1.9798-0.75003 1.573-0.68667 1.308-0.75216 1.2275-0.92914 1.2054-1.005 1.0834-0.91676 0.85538-1.2246 0.87279-1.1435 0.55529-1.2292 0.41539-2.325 0.52516-3.5766 0.67002-4.33 0.6522-1.9558 0.46354-0.36026 0.12079-0.72467 0.2955-0.62886 0.34137-0.5289 0.37857-0.50462 0.49149-0.38644 0.6121-0.028162 0.73355-0.72002 0.20838-1.3993-0.027898-1.7247-0.25504-0.72843-0.17187-1.1433-0.37075-1.1215-0.51044-1.2691-0.79496-1.2064-0.95364-1.0474-0.95433-0.98835-1.0536-0.9778-1.2741-0.96003-1.4991-2.3957-4.2254-1.0974-1.8025-0.83908-1.2066-0.70254-0.88816-1.0813-1.1478-1.0489-0.88618-1.0623-0.73955-1.1396-0.64437-0.71018-0.32208-0.89784-0.32206-1.2843-0.30675-1.1285-0.13323-1.2344-0.012083-1.4003 0.14721-1.3938 0.31936-1.395 0.51425-0.92711 0.47976-0.9435 0.63581-0.65102 0.54834-0.73449 0.76156-0.76751 1.0305-0.57258 1.0395-0.29576 0.7155-0.33149 1.0683-0.3156 1.3674-0.26883 1.4292-0.50864 3.4105-0.52689 5.3191-0.18983 1.0058-0.28882 0.97084-0.48894 1.1752-0.64521 1.2122-0.47219 0.71695-0.57987 0.719-0.96433 0.91986-1.2366 0.87277-1.2324 0.65234-1.9836 0.73934-1.5792 0.37423-1.2792 0.17613-1.1056 0.059604-1.417-0.046393-1.4138-0.14743-2.2591-0.37275-3.5578-0.80752-1.5147-0.243-0.91149-0.076673-1.2305 0.005561-1.0891 0.16231-0.64605 0.17244-1.2575 0.52383-1.2089 0.68818-2.0979 1.306-0.97552 0.51701-1.4014 0.57134-1.493 0.47601-1.4731 0.39463-1.5464 0.28189-1.3043 0.09977-1.4267-0.010891-1.4746-0.14501-1.7539-0.36096-1.7926-0.57762-2.0653-0.88543-2.008-1.0427-1.8686-1.0988-3.8798-2.4977-0.4898-0.24149-0.055213 0.059701-0.59221-0.052836-6.6436 0.15013-2.9008-0.011134-2.9932-0.089118-3.0068-0.1926-2.9661-0.32599-2.8853-0.49676-2.6305-0.6577-2.5185-0.8255-2.395-0.97571-2.2554-1.1196-2.0931-1.2689-1.8996-1.4355-1.6644-1.6317-0.96142-1.2135-0.85561-1.3005-0.82261-1.4735-0.74288-1.5384-0.70904-1.6631-1.2612-3.4234-0.57555-1.7414-1.3675-4.4649-3.7072-12.796-1.6667-5.5576-2.0555-6.5537-3.4064-10.536-0.50206-1.7699-0.7091-3.0043-0.39976-2.4084-0.20267-1.8273-0.11748-2.4225 0.19257-6.6125-0.15044-2.1398-0.32665-1.6724-0.6318-2.0014-1.0057-2.2687-0.91075-1.6377-1.1534-1.759-0.96885-1.3018-1.219-1.4769-1.5503-1.6818-1.2537-1.2339-1.552-1.3924-1.2714-1.0377-2.2628-1.6374-1.3219-0.85047-4.7638-2.8413-1.391-0.96434-0.67733-0.542-1.6364-1.5916-0.49349-0.5488-1.4683-1.8327-1.2422-1.7334-5.7766-8.9783-1.7307-2.509-2.0577-2.6704-1.0095-1.1731-1.0551-1.1237-1.8485-1.7124-1.6426-1.2742-1.7268-1.1586-1.5491-0.92337-2.1561-1.152-6.845-3.3391-1.8488-1.0871-1.2333-0.89662-1.1559-1.0005-0.62431-0.61405-1.3306-1.4893-1.2414-1.591-3.4643-4.9756-1.289-1.7747-0.83092-1.0446-0.87371-0.99108-0.90391-0.90492-0.95869-0.86008-1.3255-1.0801-1.8916-1.374-2.5441-1.6365-1.6477-0.95554-2.2666-1.1277-2.1413-0.93455-1.9746-0.79566-13.559-5.0429-2.8408-1.199-1.6998-0.81522-1.6578-0.88689-1.9697-1.1565-1.9708-1.2506-2.1565-1.451-1.4716-1.0486-0.75378-0.59632-0.62297-0.56595-0.30946-0.37867-0.018039-0.12 0.23153-0.29258 0.55065 0.085581 0.56447 0.29111 0.80423 0.55064 4.4339 3.3602 1.6872 1.204 2.4298 1.585 1.7161 0.97158 1.3225 0.65425 1.3094 0.57725 1.9351 0.76344 3.3487 1.2074 3.6074 1.1923 1.7565 0.4715 1.6292 0.32224 1.2653 0.15932 1.5309 0.077853 1.8391-0.076159 1.1972-0.1543 0.92725-0.18665 1.21-0.35464 1.5744-0.68937 1.418-0.80113 2.423-1.6182 2.5723-1.9703 1.9215-1.628 1.1097-1.014 1.9872-1.992 0.87765-0.97036 1.5746-1.9143 1.2113-1.6277 1.1339-1.645 1.174-1.8332 1.1182-1.8608 3.3835-5.8653 1.5407-2.35 0.78152-1.0162 1.3441-1.4212 0.7687-0.62187 0.83071-0.52211 0.85824-0.39251 0.78699-0.24729 0.92293-0.17614 1.0285-0.079207 1.0718 0.019171 1.2118 0.11049 4.8619 0.74844 2.0493 0.2464 1.7674 0.066321 0.97048-0.064691 0.95722-0.15759 0.83945-0.2286 0.76214-0.30489 0.66652-0.39034 0.29876-0.24993 0.29852-0.39468 0.022864-0.55605 4.4677-2.335 3.3639-1.5661 1.5041-0.6019 1.9845-0.66687 3.8624-1.1305 1.3585-0.45515 1.2406-0.46596 2.0999-0.93402 2.1438-1.1834 5.6836-3.6576 6.827-4.1855 3.4836-1.9057 6.7596-3.3774 1.9279-1.0568 1.9947-1.2421 4.8993-3.471 2.0954-1.3208 0.96698-0.52314 1.2483-0.58406 1.0428-0.40269 0.99114-0.29692 1.0759-0.1999 0.73287-0.044257 0.89377 0.065857 0.72329 0.15982 0.71134 0.25997 0.94754 0.52478 0.72817 0.56687 0.62169 0.62104 0.6637 0.81907 0.32994 0.47843 0.74361 1.2768 1.0598 2.2318 1.3025 3.2181 0.90636 2.0535 0.95474 1.7493 1.0285 1.4906 0.88913 1.0519 0.65077 0.66263 1.027 0.8882 0.608 0.44521 1.2165 0.73759 0.98166 0.48025 1.4628 0.56427 1.4394 0.39464 1.126 0.20301 1.1771 0.11457 0.88551 0.020737 1.2683-0.062903 3.7734-0.45942 2.347-0.1884 1.7587 0.002535 1.6376 0.09722 3.1516 0.35948 5.2329 0.7968 3.1484 0.42597 3.1392 0.2796 1.9778 0.07744 1.9742-0.007539 1.5637-0.070773 1.5527-0.12885 2.7988-0.38515 2.7675-0.5702 5.0215-1.3135 1.7208-0.42876 1.3486-0.27444 1.2787-0.16574 1.3499-0.006097 0.76634 0.11624 0.73918 0.23042 0.37041 0.17151 0.94717 0.63322 0.7827 0.73457 0.83441 1.0025 0.49846 0.74851 0.59238 1.0761 1.9683 4.4411 0.65152 1.138 0.42112 0.58029 0.72615 0.75472 0.70936 0.49804 0.73903 0.32022 0.70982 0.15763 0.40442 0.03258 0.64319-0.038165 1.0393-0.27937 1.4176-0.66718 0.80844-0.47597 0.948-0.63647 1.7424-1.3926 0.98126-0.90109 1.9582-1.9897 2.9388-3.1862 0.72794-0.69376 0.91664-0.78477 0.69998-0.5371 0.97726-0.66394 1.2208-0.68977 1.1958-0.53102 1.2219-0.40485 0.8544-0.20469 2.0048-0.30587 5.0036-0.4598 1.8517-0.23866 1.2764-0.2143 2.5294-0.53979 6.0415-1.5678 3.4596-0.84921 3.9494-0.83866 2.9949-0.49761 2.646-0.3039 3.0933-0.18968 1.742-0.028439 1.7289 0.038081 2.0261 0.14778 1.9901 0.27596 1.8988 0.41148 1.8394 0.56026 1.5597 0.62179 1.4964 0.73496 1.3404 0.78281 1.2805 0.85843 1.3946 1.0522 5.037 4.2389 1.5317 1.4653 1.3887 1.712 0.98236 1.4616 1.1557 1.9668 0.83382 1.5369 1.9891 3.8484 0.83887 1.9172 0.9775 2.6547 0.65826 2.1659 0.54618 2.1598 0.4138 2.0117 0.3502 2.1963 0.25019 2.2909 0.11284 2.0194 0.01584 1.6337-0.083456 4.6346 0.12909 1.3232 0.18599 0.69923 0.16261 0.33051 0.23569 0.25521 0.4358-0.025962" stroke="#bdc660"/>
    </defs>
    <g clip-path="url(#p107b822fad)">
     <use y="274.501489" fill="#bdc660" stroke="#bdc660" xlink:href="#mc77742a7b0"/>
    </g>
   </g>
  </g>
 </g>
 <defs>
  <clipPath id="p107b822fad">
   <rect x="7.2" y="7.2" width="357.12" height="260.1"/>
  </clipPath>
 </defs>
</svg>
