<?xml version="1.0" encoding="UTF-8"?>
<!DOCTYPE svg  PUBLIC '-//W3C//DTD SVG 1.1//EN'  'http://www.w3.org/Graphics/SVG/1.1/DTD/svg11.dtd'>
<svg width="356.44pt" height="280.51pt" version="1.1" viewBox="0 0 356.44 280.51" xmlns="http://www.w3.org/2000/svg" xmlns:xlink="http://www.w3.org/1999/xlink">
 <metadata>
  <rdf:RDF xmlns:cc="http://creativecommons.org/ns#" xmlns:dc="http://purl.org/dc/elements/1.1/" xmlns:rdf="http://www.w3.org/1999/02/22-rdf-syntax-ns#">
   <cc:Work>
    <dc:type rdf:resource="http://purl.org/dc/dcmitype/StillImage"/>
    <dc:date>2024-07-04T12:09:58.325976</dc:date>
    <dc:format>image/svg+xml</dc:format>
    <dc:creator>
     <cc:Agent>
      <dc:title>Matplotlib v3.7.1, https://matplotlib.org/</dc:title>
     </cc:Agent>
    </dc:creator>
   </cc:Work>
  </rdf:RDF>
 </metadata>
 <defs>
  <style type="text/css">*{stroke-linejoin: round; stroke-linecap: butt}</style>
 </defs>
 <g id="figure_1">
  <g id="patch_1">
   <path d="m-0 280.51h356.44v-280.51h-356.44v280.51z" fill="none"/>
  </g>
  <g id="axes_1">
   <g id="PatchCollection_1">
    <defs>
     <path id="m7ace7eb4b4" d="m237.31-226.84 0.11257 0.24124 0.46116 1.4602 1.3289 4.5476 0.38801 1.1558 0.38987 1.0227 0.55187 1.2543 0.7353 1.4092 0.47979 0.7993 0.51016 0.77251 0.96099 1.2925 1.0285 1.2108 0.67062 0.71496 1.3659 1.3139 3.5252 3.0053 0.82624 0.7818 0.50382 0.53616 2.6155 3.1171 1.7157 1.9083 0.83296 1.0232 0.71603 1.092 0.3893 0.78481 0.32284 0.82512 0.29298 0.94783 0.24403 0.97795 0.67512 3.3072 0.33635 1.3872 0.42988 1.382 0.52868 1.4432 0.59482 1.4736 0.92966 2.172 3.653 8.3315 2.9363 6.3007 0.65224 1.2608 0.48963 0.84333 0.51534 0.7708 0.72798 0.86934 0.68336 0.58732 0.58967 0.33393 0.54723 0.17664 0.76886 0.084479 0.60562-0.035344 0.42948-0.07178 0.24254-0.066106-0.16926 0.13796-0.20413 0.26747-0.16638 0.297-0.13609 0.32216-0.13674 0.47919-0.083052 0.73403 0.10962 1.0368 0.44312 1.373 0.36582 0.77778 0.43788 0.78532 0.72339 1.1182 1.0548 1.4272 3.0074 3.7503 0.78127 1.0616 1.0603 1.5874 1.4358 2.3868 2.8903 5.0803 1.4702 2.7769 0.70982 1.5355 0.44918 1.2206 0.36362 1.5126 0.17792 1.4966 0.071059 1.965 0.092463 1.3465 0.25121 1.8854 0.19536 0.99034 0.16399 0.6649 0.32786 1.013 0.28356 0.6368 0.31115 0.52031 0.30675 0.37161 0.44592 0.31952 0.2974 0.072271 0.51753-0.06213 1.1578-0.34516 0.6885-0.024563 0.3783 0.077254 0.83418 0.3274 0.71642 0.38988 0.76093 0.48217 1.1665 0.82458 1.1819 0.90127 4.7092 3.7133 1.6563 1.1667 0.83141 0.52601 0.85159 0.49537 0.99415 0.52436 1.2972 0.60306 1.6188 0.60516 1.2048 0.32746 0.87149 0.16766 0.93172 0.11827 1.7567 0.08565 1.8178-0.047822 2.0018-0.18277 1.0877-0.15748 1.0886-0.20027 1.4067-0.32476 1.4157-0.40449 1.1227-0.3738 3.5192-1.2961 1.265-0.42445 1.0343-0.30593 1.1281-0.26718 0.42055-0.052225 0.21005 0.072645 0.099229 0.37826-0.072081 0.59368-0.24846 0.80761-0.32698 0.69315-0.40869 0.63515-0.39018 0.4672-0.61218 0.56485-0.71433 0.51113-0.78564 0.45583-0.85285 0.41547-1.2708 0.52172-1.3431 0.47078-2.0194 0.62051-4.9613 1.4322-2.587 0.78881-1.5742 0.55-1.6606 0.70684-1.1699 0.59952-1.1203 0.6654-0.93631 0.63539-0.8919 0.68287-1.3251 1.187-0.98795 1.0562-0.66713 0.81259-0.61936 0.83974-0.59611 0.90409-0.54056 0.92463-0.41344 0.79981-0.3932 0.8778-0.2383 0.63153-0.25839 0.86218-0.17184 0.8248-0.11556 0.841-0.086931 1.0673-0.16396 4.3264-0.13986 1.6649-0.18502 1.7141-0.21843 1.5817-0.35647 1.7353-0.27808 1.0809-0.3133 1.0779-0.59148 1.7895-0.88079 2.3071-0.39691 0.92437-0.78864 1.6354-0.62393 1.1546-0.66571 1.1319-1.0031 1.5529-0.96536 1.3612-0.97147 1.2646-0.99243 1.2016-1.2362 1.3549-1.1987 1.1407-1.1877 0.969-1.5057 1.0846-2.8205 1.8513-3.8424 2.4393-1.2993 0.867-1.2472 0.9038-1.1144 0.90204-0.62534 0.5609-0.79524 0.77339-3.2322 3.439-1.0785 1.0271-1.0296 0.84865-0.79014 0.5631-0.82046 0.50884-1.4874 0.74267-0.80503 0.31722-0.83407 0.27355-1.1059 0.276-1.3363 0.19614-1.6678 0.076729-1.7282-0.074433-1.074-0.11238-1.8442-0.29179-2.1317-0.43886-1.9765-0.49299-1.7132-0.53101-6.5234-2.433-0.93172-0.3236-0.96032-0.27331-1.4689-0.27916-1.5258-0.15729-1.5661-0.068339-1.5918-0.007305-4.8015 0.10952-1.5659 0.006635-1.5237-0.048041-1.6568-0.16165-1.3444-0.2684-1.128-0.37441-0.46016-0.19684-1.1511-0.56751-0.92027-0.50518-0.68419-0.42145-1.1557-0.7889-0.96045-0.69872-6.7755-5.0724-0.79881-0.52138-0.57334-0.33131-1.0873-0.51493-0.96106-0.30563-0.58688-0.10416-0.5517-0.02673-0.83364 0.12879-0.68908 0.31626-0.2942 0.26933-0.23274 0.32176-1.1334 2.3676-0.50375 0.9232-0.91916 1.5177-0.99566 1.5027-1.3571 1.9192-1.0098 1.2871-0.52282 0.59968-0.45748 0.48214-0.70629 0.66134-0.61744 0.49845-1.1924 0.83242-2.6494 1.6544-0.9957 0.69299-0.67256 0.53912-0.80885 0.76027-0.75662 0.84643-0.82645 1.1101-0.81509 1.3356-1.4936 2.7083-0.80134 1.2171-0.83318 1.1069-1.1781 1.3693-0.6823 0.70919-0.71335 0.68362-0.69912 0.6163-0.72332 0.58674-1.2891 0.925-0.8134 0.50322-0.83645 0.45131-1.0086 0.4523-1.04 0.35708-0.45914 0.12174-1.783 0.34022-5.18 0.70376-4.246 0.72684-3.7595 0.7022-1.4571 0.32988-1.1864 0.30764-2.3105 0.69959-1.6046 0.55879-1.9013 0.73513-2.0764 0.91149-1.162 0.58793-0.99709 0.55069-0.4897 0.21306-0.064164-0.080538-0.16803-0.49267-0.36944-1.3932-1.0514-4.808-1.3711-6.0231-0.58219-1.9303-0.27871-0.74566-0.35542-0.80472-0.53941-1.0105-1.6823-2.7887-1.916-3.4778-1.2228-2.0094-0.55749-0.985-0.44182-0.84237-1.3507-2.8003-2.1233-3.7954-1.0346-1.9984-0.81893-1.7852-0.67876-1.6703-0.43328-1.338-0.65038-2.5675-0.39023-1.0615-0.37378-0.74853-0.34214-0.54237-0.3051-0.40187-0.66557-0.69006-0.62522-0.51396-2.1941-1.5737-0.78917-0.71654-0.33543-0.37316-0.38241-0.50385-0.24731-0.38651-0.29769-0.55174-0.25145-0.56475-0.81709-2.2845-0.19758-0.46435-0.23942-0.46067-0.18193-0.27874-0.27951-0.32545-0.41464-0.312-0.54917-0.24958-0.28716-0.078784-0.63426-0.082096-0.54731 0.01225-0.50719 0.054027-0.99273 0.18317-0.75454 0.20977-1.1308 0.38043-1.2049 0.45159-2.3616 0.99548-2.3265 1.1339-3.4522 1.7812-1.1927 0.53941-1.0607 0.37851-0.74999 0.14503-0.56762-0.035323-0.15479-0.053061-0.47298-0.40257-0.24663-0.41008-0.75031-1.4625-0.4306-0.59478-0.42766-0.39937-0.49779-0.29405-0.65958-0.19122-0.2325-0.036896-0.58675-0.05013-2.0495-0.04812-1.1214-0.074326-1.0161-0.14671-0.74919-0.18161-0.74889-0.26422-0.62934-0.30342-0.57416-0.36886-0.42905-0.36565-0.37688-0.43138-0.28012-0.4438-0.30634-0.70021-0.22675-0.76564-0.16151-0.80006-0.13035-1.0179-0.12547-1.6442-0.040243-1.0763-0.002245-1.2283 0.05909-1.4393 0.11538-1.1052 0.11162-0.68965 0.23106-1.0497 0.54229-2.0663 0.24942-1.2524 0.085396-0.73419 0.096543-1.6503-0.024317-1.378-0.17516-1.502-0.58068-2.9991-0.498-3.1566-0.21959-1.0215-0.17532-0.5602-0.27185-0.65441-0.20319-0.38197-0.37876-0.56607-0.56311-0.64553-0.60937-0.5754-1.6448-1.4468-0.57085-0.58642-0.64843-0.79354-0.23235-0.32821-0.35956-0.56874-0.30764-0.56753-0.38463-0.89244-0.17712-0.53789-0.20332-0.81705-0.13469-0.75792-0.46255-3.4304-0.39289-1.9591-0.20541-0.76272-0.32722-0.99921-0.31298-0.79422-0.58627-1.2183-0.47942-0.84113-1.5749-2.4723-0.75904-1.355-0.54716-1.2548-0.91798-2.5306-0.3956-0.8688-0.20662-0.36785-0.55406-0.75089-0.81666-0.70629-1.0428-0.59749-1.1332-0.46794-0.84876-0.2791-1.5997-0.42833-1.6937-0.36533-1.7605-0.31885-3.6051-0.53616-5.5593-0.6607-3.7467-0.34712-1.8784-0.12928-3.5189-0.1543-5.9065-0.15717-1.684-0.010952-1.6486 0.027656-1.2627 0.061061-1.2202 0.10902-1.1642 0.17249-1.354 0.33434-1.1949 0.50398-0.64737 0.4182-0.62074 0.53629-0.54165 0.64288-0.29473 0.44865-0.35355 0.70524-0.20924 0.54811-0.20546 0.74454-0.1265 0.64902-0.30982 1.9886-0.11931 0.54417-0.17985 0.61163-0.30871 0.72647-0.7776 1.1405-1.0254 1.0217-1.1599 0.88561-1.1589 0.7106-0.98227 0.46636-0.58446 0.10075 0.13493-0.4771-0.032979-1.0869-0.17214-1.4033-0.52673-3.1691-0.22712-1.5596-0.12481-1.4461 0.035203-1.2738 0.10686-0.60495 0.1782-0.55294 0.31069-0.61612 0.84404-1.2487 0.47044-0.7497 0.41699-0.82608 0.30541-0.90632 0.1266-0.71342 0.070297-1.0002 0.028917-2.3464 0.080144-1.012 0.23454-1.3025 0.26282-0.91751 0.33913-0.8981 0.45751-0.95843 0.61798-1.0478 0.70211-1.0311 0.80948-1.0475 0.68718-0.76182 4.0017-4.031 1.3104-1.3788 1.3988-1.5587 0.90662-1.0715 1.2608-1.6129 1.2873-1.882 1.7155-2.7144 0.81867-1.2431 1.1927-1.6725 1.7958-2.3953 0.54799-0.7896 0.56259-0.9246 1.4739-3.0782 1.0834-2.075 0.63565-1.0441 0.40028-0.56147 0.44303-0.52979 0.67896-0.6555 1.0171-0.71461 0.88067-0.4284 2.2861-0.86278 0.69043-0.34539 0.45136-0.26329 2.9904-2.0454 1.2168-0.7698 2.9746-1.7119 1.6942-1.0461 0.97965-0.70426 0.97461-0.84626 0.50481-0.53286 0.59827-0.73782 0.58292-0.8521 0.66604-1.1876 0.59487-1.3135 1.0776-2.8659 0.44652-1.0769 0.77886-1.6092 1.3259-2.3977 0.45642-0.71698 0.55545-0.72913 0.65692-0.66826 0.6162-0.47675 0.59326-0.35169 1.9459-0.95161 3.6396-1.9421 2.5061-1.2495 0.81709-0.47605 1.4677-0.92386 0.9029-0.47264 0.88404-0.38297 2.0374-0.8027 1.7198-0.62006 1.7687-0.57129 2.8442-0.79818 1.4987-0.32437 0.73481-0.11762 2.448-0.29464 0.87871-0.14048 1.0176-0.2058 1.1132-0.30039 0.5033-0.17636 0.79799-0.36025 0.64496-0.39258 0.62821-0.50227 0.79701-0.8256 1.2914-1.5475 1.0706-1.1724 0.49482-0.46821 0.55055-0.46049 0.80254-0.5564 1.0773-0.56444 2.4974-1.0365 1.9627-0.89025 4.4782-2.1696 4.6842-2.3665 4.8305-2.3845 1.6364-0.93019 0.93011-0.62146 0.83525-0.6704 0.26675-0.24996 0.39384-0.41381 0.54816-0.6886 0.56879-0.91342 0.27804-0.56752 0.20949-0.54859 0.075632-0.33831-0.028834-0.16802 0.43153 0.24277 0.75604 0.17829 0.84261 0.080494 0.67542-0.015693 0.56604-0.074597 0.4811-0.11431 0.82113-0.3255 0.70312-0.45934 0.57817-0.58005 0.52999-0.74533 0.34418-0.60676 1.0203-2.124 0.40915-0.71795 0.54111-0.74022 0.62812-0.68325 1.0806-0.94654 0.75342-0.56544 2.3516-1.578 1.0049-0.7796 0.74535-0.64758 0.58631-0.56866 0.6478-0.70823 2.4914-3.0144 0.30348-0.29443 0.24922-0.1908 0.22994-0.12988 0.22831-0.086552 0.25839-0.053562 0.34678-0.01665 0.71662 0.075953 5.0943 0.85821 4.9337 0.98255 2.1712 0.3156 1.1051 0.094985 1.0039 0.032203 1.1941-0.027661 1.4039-0.10272 1.363-0.17351 1.2162-0.21914 1.2532-0.30443 1.2449-0.3817 1.4651-0.54288 3.5892-1.5118 1.7399-0.68672 4.694-1.6786 1.7477-0.53944 1.3412-0.27828 0.77524-0.098551 0.64007-0.046312 1.2371-0.004267 1.566 0.14244 0.91217 0.15577 1.0872 0.25911 1.6415 0.47977 1.4049 0.46654 1.2736 0.47269 1.5638 0.65267 1.6186 0.75249 1.2393 0.6308 1.9184 1.1093 0.74957 0.48277 1.0522 0.73781 0.71795 0.54642 1.3899 1.1366 2.1442 1.9207 2.349 2.2714 1.5043 1.5518 1.2948 1.4689 0.97908 1.2386 1.5074 2.1189 3.635 5.4474 2.9852 4.2752 3.1335 4.8621 0.39146 0.53213 0.3587 0.42225 0.25504 0.22407 0.10111 0.014618" stroke="#bdc660"/>
    </defs>
    <g clip-path="url(#paffca554aa)">
     <use y="280.512" fill="#bdc660" stroke="#bdc660" xlink:href="#m7ace7eb4b4"/>
    </g>
   </g>
  </g>
 </g>
 <defs>
  <clipPath id="paffca554aa">
   <rect x="7.2" y="7.2" width="342.04" height="266.11"/>
  </clipPath>
 </defs>
</svg>
