<?xml version="1.0" encoding="UTF-8"?>
<!DOCTYPE svg  PUBLIC '-//W3C//DTD SVG 1.1//EN'  'http://www.w3.org/Graphics/SVG/1.1/DTD/svg11.dtd'>
<svg width="298.16pt" height="280.51pt" version="1.1" viewBox="0 0 298.16 280.51" xmlns="http://www.w3.org/2000/svg" xmlns:xlink="http://www.w3.org/1999/xlink">
 <metadata>
  <rdf:RDF xmlns:cc="http://creativecommons.org/ns#" xmlns:dc="http://purl.org/dc/elements/1.1/" xmlns:rdf="http://www.w3.org/1999/02/22-rdf-syntax-ns#">
   <cc:Work>
    <dc:type rdf:resource="http://purl.org/dc/dcmitype/StillImage"/>
    <dc:date>2024-07-04T12:10:00.174728</dc:date>
    <dc:format>image/svg+xml</dc:format>
    <dc:creator>
     <cc:Agent>
      <dc:title>Matplotlib v3.7.1, https://matplotlib.org/</dc:title>
     </cc:Agent>
    </dc:creator>
   </cc:Work>
  </rdf:RDF>
 </metadata>
 <defs>
  <style type="text/css">*{stroke-linejoin: round; stroke-linecap: butt}</style>
 </defs>
 <g id="figure_1">
  <g id="patch_1">
   <path d="m0 280.51h298.16v-280.51h-298.16v280.51z" fill="none"/>
  </g>
  <g id="axes_1">
   <g id="PatchCollection_1">
    <defs>
     <path id="mdff9582928" d="m193.03-259.54-1.8725 1.2486-1.5219 1.1304-1.1556 0.96699-0.56482 0.52279-0.82126 0.84637-0.75874 0.91124-0.42827 0.58855-0.3992 0.60486-0.62846 1.072-0.56664 1.0978-0.50762 1.0885-0.4732 1.0965-0.90166 2.2614-1.2841 3.4716-5.0072 14.164-3.5155 10.088-1.0847 3.2892-0.53975 1.8846-0.20102 0.87961-0.13176 0.81387-0.040019 0.72704 0.08027 0.61366 0.23642 0.46711 0.44496 0.30941 0.60419 0.17284 1.5124 0.18746 0.81973 0.13685 0.79205 0.25297 0.66724 0.38184 0.591 0.51093 0.49708 0.61554 0.38053 0.70138 0.16911 0.47035 0.20669 0.85877 0.14833 1.1567 0.049432 1.3135-0.014058 1.4867 0.05791 0.71755 0.065175 0.33003 0.085588 0.29076 0.14098 0.34956 0.19445 0.37978 0.6594 1.139 0.25801 0.56512 0.21338 0.74092 0.076003 0.65417-0.003331 0.50159-0.051176 0.51309-0.11505 0.6011-0.17036 0.60575-0.22548 0.61631-0.2725 0.61199-0.54158 1.0017-1.6367 2.5918-0.36384 0.66812-0.25241 0.54435-0.20956 0.55096-0.17575 0.62542-0.10325 0.62861-0.005908 0.87756 0.1107 0.6582 0.13155 0.43636 0.28118 0.66512 0.31336 0.5834 0.35928 0.57705 0.36007 0.52507 2.0051 2.7084 0.5835 0.87871 0.34643 0.60616 0.37715 0.79613 0.30861 0.83814 0.26743 0.98299 0.20164 1.0092 0.32988 1.9608 0.14646 0.75004 0.1385 0.57377 0.165 0.53366 0.19928 0.48142 0.24348 0.42055 0.39984 0.43482 0.23904 0.16069 0.35944 0.15905 0.25383 0.071134 0.59732 0.079151 0.75915-0.010157 0.81894-0.094654 0.54097-0.099527 0.64799-0.15523 1.0683-0.32791 1.9447-0.65517 0.60107-0.17066 0.80734-0.15927 0.33817-0.034959 0.59281-0.008447 0.76547 0.098546 0.57188 0.16774 0.47954 0.22432 0.60354 0.43707 0.38041 0.38386 0.52788 0.66746 1.0197 1.4383 0.61049 0.71139 0.50218 0.52771 0.43757 0.40401 0.30424 0.24576 1.0424 0.76136 0.61908 0.48094 0.43556 0.40242 0.17204 0.24732 0.09985 0.23817 0.057123 0.23789 0.074394 0.51889 0.077527 0.30696 0.074474 0.1714 0.21718 0.33668 1.0677 1.3981 0.81968 1.3632 0.51366 0.72932 0.85355 1.0463 0.3799 0.41195 0.88448 0.88841 2.6504 2.582 0.66637 0.62558 2.2047 1.9711 0.62757 0.60149 0.67274 0.68282 1.8721 2.0585 0.83112 0.97621 0.36281 0.5391 0.15402 0.29314 0.10702 0.25091 0.13608 0.47141 0.038847 0.29416 0.004805 0.28293-0.02126 0.27621-0.062416 0.38664-0.094571 0.40505-0.18313 0.6309-0.29844 0.88864-0.33218 0.84676-0.35449 0.77533-0.57124 1.0887-0.70843 1.1172-1.316 1.8584-0.61527 0.93974-0.57631 0.97223-1.2126 2.1692-0.44838 0.72668-0.42944 0.6484-1.3756 1.8605-0.58119 0.83014-1.5922 2.4896-0.41573 0.61446-0.80119 1.0309-1.6097 1.9302-0.70249 0.9628-0.48144 0.78828-0.19991 0.38504-0.26306 0.57875-0.22502 0.56679-1.0754 3.082-0.1449 0.4914-0.13813 0.60365-0.1063 0.62215-0.33605 3.0208-0.10544 0.70406-0.1462 0.77353-0.27781 1.1833-0.1601 0.58821-0.35186 1.1384-0.34745 0.96991-0.31338 0.77252-0.35988 0.78848-0.27176 0.53522-0.92837 1.6246-0.44198 0.83444-0.29055 0.70808-0.22661 0.90206-0.10042 0.91419 0.001231 0.94206 0.11249 1.0884 0.22196 1.0948 0.34704 1.143 0.45444 1.1207 0.4505 0.89494 0.51492 0.86387 0.595 0.85006 0.6579 0.8007 0.4956 0.52361 0.52411 0.4925 0.59015 0.4897 0.61844 0.44848 0.67344 0.41998 0.69995 0.36689 0.59564 0.2584 0.61235 0.21394 0.61575 0.16339 0.62926 0.12288 0.92763 0.11811 1.1962 0.065329 0.96492-0.002399 0.9329-0.037305 0.83295-0.059731 1.2794-0.14978 0.71229-0.11863 0.7071-0.14526 0.95563-0.24374 1.2351-0.40069 0.98091-0.38633 0.87605-0.39023 0.85434-0.41896 0.75461-0.40271 0.72896-0.42382 0.89912-0.58708 0.82545-0.63888 0.54194-0.50852 0.47767-0.55288 0.44053-0.66435 0.23858-0.44686 0.32462-0.72978 0.65348-1.7552 0.4688-1.1172 0.76335-1.5444 0.88667-1.5946 0.47319-0.71374 0.27282-0.31785 0.12916-0.12077 0.24865-0.17284 0.16613-0.068619 0.16722-0.029808 0.13443 0.00565 0.15477 0.044297 0.1926 0.12593 0.12488 0.12876 0.15013 0.20852 0.15631 0.28879 0.24037 0.62989 0.3717 1.2722 0.17538 0.50422 0.27832 0.62018 0.25492 0.43168 0.24914 0.33815 0.33994 0.37374 0.5617 0.48133 0.5894 0.39418 0.61815 0.33232 0.66098 0.28528 0.71572 0.25296 5.0151 1.6368 0.71166 0.26514 1.1046 0.48281 0.76552 0.40224 0.75728 0.45948 1.8877 1.3258 0.71437 0.43747 1.5096 0.86235 0.66929 0.42399 0.67752 0.52182 0.29709 0.2708 0.34878 0.36322 0.33261 0.40622 0.28208 0.40498 0.43818 0.77311 0.82739 1.7774 0.30002 0.56688 0.33672 0.51838 0.38988 0.44146 0.42828 0.30369 0.24382 0.10112 0.60759 0.10332 0.70464-0.049466 0.4896-0.10296 0.5104-0.14818 0.89752-0.32807 0.94975-0.40459 1.0615-0.50283 0.64005-0.32872 0.76478-0.42027 1.0036-0.589 3.8062-2.3833 1.6154-0.95864 1.1368-0.6135 2.8251-1.422 0.85484-0.46206 0.89747-0.52969 0.73853-0.48842 0.4284-0.31701 0.39809-0.32671 0.32111-0.29501 0.3477-0.38406 0.015434-0.028904 0.11941 0.62592 0.29629 1.2499 0.71854 2.7394 0.75047 2.5634 0.67083 1.9987 0.32563 0.85314 0.29117 0.69622 0.37655 0.8211 0.49163 0.97634 1.7923 3.3296 0.60974 1.3062 0.2179 0.5528 0.16382 0.48446 0.13303 0.4851 0.11582 0.62748 0.038522 0.59249-0.014973 0.39116-0.12426 0.82915-0.14129 0.56093-0.17616 0.56132-0.45579 1.2015-1.2485 2.977-0.34901 0.94843-0.34529 1.1374-0.30737 1.2679-0.16062 0.77758-0.82174 4.5745-0.46415 2.2323-0.41031 1.6061-0.89226 3.0572-0.49127 1.7614-0.43247 1.7637-0.010278 0.24997-0.1342 0.17742-0.13431 0.11235-0.29963 0.17547-0.34262 0.13706-0.37737 0.10276-0.43031 0.070843-0.43627 0.029081-0.79454-0.029814-0.92122-0.11077-2.1856-0.33645-0.54474-0.049668-0.48182-0.008618-0.46235 0.035607-0.41489 0.07918-0.35379 0.11117-0.38581 0.17645-0.37344 0.23471-0.34556 0.27956-0.60423 0.63889-0.35133 0.45682-0.69263 1.0564-1.521 2.6367-0.50267 0.8365-0.52776 0.82411-0.50972 0.73951-0.54451 0.73172-0.70785 0.86056-0.39454 0.43622-0.89335 0.89548-0.49884 0.45586-0.86381 0.73186-1.1564 0.88574-1.0892 0.72747-0.63743 0.36014-0.70777 0.3099-0.54396 0.15943-0.41684 0.083905-0.53819 0.069362-0.82674 0.034236-0.68821-0.034998-0.56882-0.071623-0.7324-0.14486-0.78961-0.21196-1.6217-0.53601-1.5054-0.5428-0.86993-0.3432-0.58865-0.2595-0.59454-0.29412-0.77148-0.43676-1.0923-0.71253-0.75849-0.54127-1.9932-1.5105-0.36153-0.24754-0.25375-0.13087-0.24754-0.038473-0.10408 0.13153-0.013339-0.059921-0.076614-0.040234-0.20611-0.036067-0.26992-0.014897-0.40506 0.008517-1.6682 0.13738-0.87259 0.043133-0.85342-0.008588-1.0458-0.075422-1.3399-0.18218-1.3142-0.25514-0.8958-0.23988-0.66838-0.24661-0.44555-0.21121-0.27682-0.15563-0.6299-0.42738-1.7906-1.469-0.70944-0.55188-0.60411-0.43013-1.9485-1.3089-1.4593-1.0089-0.99758-0.73868-2.1624-1.7135-0.48206-0.35743-0.72726-0.46587-0.44861-0.23091-0.53502-0.21879-0.51232-0.1523-0.37754-0.079352-0.44051-0.059954-0.60238-0.02373-0.58251 0.049202-0.53989 0.12321-0.36281 0.13584-0.49707 0.2757-0.40727 0.3208-0.37611 0.37747-0.46196 0.56274-0.45813 0.67278-0.31368 0.54897-0.33746 0.70548-0.29964 0.75944-0.26334 0.77854-0.13491 0.47063-0.19887 0.82793-0.25554 1.3341-0.23306 1.4947-0.19747 1.4448-0.20059 1.1574-0.25174 1.0394-0.23429 0.75201-0.39343 1.0128-0.39356 0.83797-0.49225 0.93485-0.80866 1.4086-0.50924 1.1191-0.21396 0.38648-0.18107 0.24816-0.30756 0.31261-0.23816 0.19041-0.30888 0.20559-0.36588 0.19799-0.6538 0.25855-0.35025 0.098487-0.4421 0.094071-0.58654 0.085525-0.87578 0.063123-1.342-0.012077-1.7665-0.081661-0.62236 2.07e-4 -0.85645 0.049357-0.66476 0.073018-0.77798 0.12289-0.82432 0.17388-0.93781 0.24915-0.47282 0.15084-0.74049 0.27242-0.60562 0.25122-1.6282 0.72916-1.4309 0.53847-1.0098 0.48682-0.5141 0.31056-0.41615 0.29831-1.3947 1.1435-0.8967 0.68572-0.50163 0.32949-0.40869 0.20803-0.29274 0.099639-0.24894 0.05037-0.28816 0.021147-0.30896-0.027759-0.19633-0.052842-0.26132-0.12266-0.23563-0.16746-0.17669-0.16637-0.28452-0.36099-0.21795-0.36758-0.14202-0.29478-0.30633-0.80959-0.32006-1.0916-0.82019-3.19-0.22818-0.74997-0.34814-0.99414-0.19033-0.4713-0.41147-0.8918-1.4513-2.719-0.7662-1.5663-0.86581-2.0595-0.38729-1.0543-0.22214-0.72193-0.10522-0.41878-0.13144-0.68522-0.21057-1.6431-0.12533-1.5144-0.029045-1.1586 0.020581-0.79283 0.054979-0.79222 0.074868-0.66315 0.11355-0.70233 0.14274-0.65586 0.1732-0.64432 0.35899-1.1042 0.27187-0.73846 0.62606-1.545 1.3591-3.1363 0.33509-0.72092 0.53589-1.0136 0.34281-0.56037 0.45543-0.68225 1.6229-2.2969 2.4448-3.6877 2.4406-3.7593 1.2223-1.9791 0.41642-0.5941 0.65535-0.77064 0.67438-0.67733 1.0379-0.93528 1.4845-1.2285 1.2901-0.98957 0.73385-0.52697 2.6078-1.7542 2.5839-1.8171 0.69562-0.51801 0.16608-0.16786 0.022933-0.036128 0.00351-0.071011-0.081125-0.40774-0.2529-0.71705-0.34412-0.74855-0.57427-1.0933-0.58907-1.0384-0.74535-1.1883-0.74325-1.055-0.5111-0.65687-0.47442-0.5615-0.72062-0.79358-2.3614-2.4989-3.4343-3.748-1.8693-1.9374-1.7001-1.7001-1.4578-1.5275-1.8725-1.8768-1.7612-1.6684-0.53773-0.53395-2.4006-2.5327-0.69854-0.63658-0.40226-0.32648-1.0599-0.7711-0.62918-0.41285-2.2408-1.3367-1.9586-1.2118-2.0309-1.1833-2.9449-1.8343-1.0657-0.76848-0.69397-0.57051-0.56492-0.51665-2.5715-2.5201-1.7406-1.7606-0.74226-0.69095-1.1982-1.0434-0.70894-0.65327-0.40597-0.41747-0.47723-0.55729-0.42766-0.57021-0.36087-0.53324-2.0018-3.1061-0.34226-0.66535-0.84516-1.8235-0.3727-0.71921-0.38817-0.65972-0.75438-1.0743-0.72598-0.88359-0.71334-0.78777-0.7233-0.74711-1.2548-1.2021-1.1097-0.96689-1.0251-0.83521-1.054-0.80577-0.51551-0.3699-0.87777-0.57666-0.65264-0.37126-0.74626-0.34658-0.77906-0.25922-0.38225-0.084869-0.84647-0.085946-0.65263 0.019537-0.77378 0.10639-0.66494 0.15034-0.77106 0.22135-1.6963 0.53273-1.5894 0.52756-1.3627 0.52065-1.0811 0.50496-0.5846 0.32754-0.55945 0.3662-0.4412 0.3364-0.45966 0.39647-0.52303 0.49898-0.80306 0.83563-1.1506 1.3359-2.7057 3.4178-0.38485 0.44432-0.64836 0.68463-0.67356 0.63879-0.53338 0.45724-0.59202 0.45495-0.71082 0.46789-0.6947 0.36888-0.6588 0.2461-0.54914 0.084827-0.40317-0.062416-0.49871-0.34973-0.42283-0.57758-0.86982-1.4629-0.57647-0.71974-0.65773-0.5584-0.73392-0.45068-0.48191-0.23828-1.0592-0.43587-2.5249-0.89258-1.6225-0.51908-0.47313-0.12137-0.67791-0.13173-1.0631-0.097105-0.97645 0.033739-0.97882 0.14225-0.83355 0.19476-0.85497 0.26052-0.58308 0.20532-4.6539 1.8405-0.51588 0.17625-0.68221 0.19191-0.60287 0.11765-0.59395 0.060765-0.48285 0.00354-0.57292-0.062949-0.50045-0.12839-0.37812-0.14219-0.4984-0.24324-0.28854-0.17-0.3905-0.26417-0.41222-0.31732-0.64074-0.55671-0.99906-0.96597-1.197-1.2084-2.2519-2.3583-0.57516-0.54038-0.55016-0.46241-0.62447-0.44236-0.55261-0.30392-0.50673-0.20677-0.6115-0.15791-0.35315-0.043773-0.34478-0.006793-0.60497 0.080828-0.61524 0.18302-0.64678 0.27568-0.54145 0.28442-1.8339 1.1008-0.75109 0.36849-0.38701 0.15151-0.43468 0.13683-0.53268 0.12047-0.3788 0.054305-0.47593 0.028236-0.38366-0.014122-0.25795-0.032433-0.45944-0.11552-0.50259-0.2117-1.1637-0.57269-0.66061-0.2657-0.73794-0.23627-0.63952-0.14315-0.35179-0.056108-0.74166-0.072129-0.45269-0.013354-0.92286 0.03-3.1115 0.23936-1.3004 0.039951-3.3332 0.035819-0.73794 0.028284-1.292 0.086264-2.4268 0.26131-3.7686 0.57025-1.4177 0.13095-0.7847 0.03759-1.0653 0.007214-0.75933-0.034395-0.45954-0.043839-0.49543-0.074959-0.48701-0.11452-0.26366-0.085814-0.36227-0.15416-0.33241-0.18865-0.24305-0.17767-0.2487-0.2336-0.19679-0.24217-0.3305-0.58411-0.2891-0.82022-0.27598-1.2351-0.25289-1.5816-0.13337-1.4123-0.038869-1.1701 0.005672-0.72509 0.044787-1.0209 0.08329-0.94876 0.1562-1.2199 0.23154-1.5151 0.80804-4.6925 0.13935-1.2122 0.042655-0.74551 0.008101-0.48412-0.024103-0.86874-0.048175-0.63038-0.090206-0.78095-0.10126-0.64994-0.13676-0.69237-0.2451-0.93322-0.16221-0.48104-0.19126-0.4747-0.22004-0.46208-0.25738-0.46879-0.53497-0.83764-0.55002-0.76917-0.84111-1.1048-0.565-0.69029-0.70035-0.77807-0.85981-0.84765-0.89302-0.79082-0.98698-0.78349-0.76598-0.53624-0.74393-0.46057-0.90873-0.49566-0.97786-0.46331-0.5372-0.21829-0.34416-0.11701-0.26515-0.061472-0.085363 0.00172-0.015783 0.020299-0.82351-1.4939-0.99372-1.9312-0.92188-1.8606-0.47544-1.0169-0.331-0.78517-0.40125-1.135-0.31449-1.1765-0.11178-0.57653-0.087577-0.69459-0.023763-0.82657 0.060806-0.6735 0.15833-0.70237 0.3105-0.78004 0.45873-0.73177 0.35286-0.40218 0.39131-0.34501 0.67841-0.41417 0.48446-0.17653 0.64309-0.10296 0.49898-0.007843 0.51535 0.035204 0.59605 0.077139 1.0371 0.18657 1.2399 0.26158 0.30346 0.024525 0.21212-0.013703 0.18463-0.046212 0.12764-0.062507 0.13395-0.11491 0.085014-0.12558 0.054173-0.12702 0.061485-0.27648 0.023775-0.61941-0.15883-2.6448-0.083652-2.6205-0.096927-1.1405-0.15275-0.96551-0.21958-0.96412-0.65045-2.4144-0.63391-2.9883-0.32524-1.235-0.3951-1.1755-0.9755-2.4403-0.13882-0.39348-0.26599-0.89065-0.2017-0.96258-0.093643-0.70861-0.035515-0.44426-0.022277-1.2955 0.022331-0.5695 0.072189-0.79114 0.16019-1.0339 0.41138-2.1813 0.13798-1.126 0.039905-0.91698-0.007078-1.6676 0.016289-0.8231 0.10952-1.3307 0.11525-0.79222 0.29422-1.3997 0.32806-1.3018 0.3437-1.0994 0.34983-0.84722 0.33064-0.58006 0.6289-0.73609 0.6752-0.56335 0.76634-0.50596 0.76835-0.42398 0.81383-0.38955 0.84823-0.35927 1.0882-0.40774 1.1138-0.3666 1.6072-0.4824 0.90571-0.29164 0.69129-0.24851 0.6648-0.27063 0.77609-0.36598 0.73666-0.40147 0.81728-0.51017 1.081-0.77097 0.8539-0.67283 1.7665-1.4626 0.90117-0.65126 0.54343-0.35171 0.90316-0.53746 3.0337-1.6474 0.79326-0.47582 0.70001-0.4718 0.49365-0.3632 0.55686-0.45192 0.40668-0.36634 0.45068-0.45784 0.31384-0.36658 0.36494-0.50087 0.22364-0.36041 0.3352-0.65829 0.1881-0.48089 0.19443-0.69179 0.074498-0.38334 0.097628-0.7984 0.033907-0.61647 0.005787-0.60024-0.041906-0.91966-0.12555-1.1147-0.44299-2.6348-0.080757-0.60133 7.9439-0.22288 2.0264-0.034812 0.98019-7.18e-4 1.1773 0.030461 0.57615 0.047775 0.40936 0.057497 1.1256 0.24503 0.70886 0.19941 0.66461 0.21834 0.79218 0.31958 0.3602 0.17045 0.67312 0.36514 0.69991 0.4434 1.3377 0.8998 0.41964 0.23246 0.43774 0.19916 0.64384 0.22728 0.98459 0.24635 1.076 0.17858 0.6783 0.066013 0.66922 0.01379 0.61341-0.047484 0.4542-0.079213 0.49543-0.12832 0.66988-0.22718 1.3459-0.53052 0.5808-0.19425 0.60826-0.13335 0.55303-0.020726 0.60335 0.12162 0.60366 0.25168 0.60247 0.35098 0.59691 0.42224 0.58292 0.46548 1.4764 1.2946 0.27922 0.21021 0.069736 0.006895 0.043629 0.04963 0.11321 0.29579 0.56546 1.7035 0.48823 1.6262 0.37864 1.4301 0.29038 1.2835 0.16205 0.83155 0.14298 0.82528 0.43345 2.9187 0.1687 0.98736 0.20252 0.90598 0.2921 0.8959 0.30039 0.60442 0.46051 0.59564 0.48739 0.35825 0.49814 0.13378 0.36315-0.060235 0.29468-0.17906 0.23761-0.27618 0.20036-0.3943 0.16001-0.51505 0.13443-0.69128 0.091207-0.67988 0.19988-2.1798 0.15849-2.4146 0.052542-1.1111 0.073086-3.0755-0.02888-4.3967 0.007513-0.75132 0.048671-0.93335 0.081365-0.50027 0.13516-0.36229 0.25022-0.25199 0.19507-0.029921 0.23828 0.093239 0.24702 0.2193 0.31297 0.41473 0.30028 0.49695 0.96761 1.8161 0.43283 0.69095 0.50524 0.62747 0.60586 0.52097 0.66504 0.33316 0.583 0.1217 0.60634-0.010703 0.49424-0.087102 0.5472-0.15456 0.75392-0.27412 1.4883-0.59588 0.69438-0.25417 0.92935-0.29113 0.8162-0.19851 0.66843-0.11032 0.75228-0.042202 0.5219 0.043352 0.52051 0.12241 0.64618 0.2952 0.43694 0.32658 0.31628 0.33117 0.3714 0.51271 0.75234 1.1864 0.24082 0.31762 0.28547 0.32091 0.33721 0.31619 0.58855 0.45057 1.6786 1.0629 0.73335 0.48771 0.78552 0.58538 0.82986 0.69614 1.4586 1.2733 0.65682 0.4913 0.81852 0.46938 0.63717 0.24964 0.77754 0.1879 0.908 0.085987 0.78684-0.024701 0.9961-0.12883 1.3514-0.23015 0.98757-0.11299 0.85999 0.004325 0.8826 0.16047 0.72092 0.31051 0.5491 0.40785 0.51185 0.58525 0.29919 0.46521 0.2642 0.49726 0.72309 1.6125 0.27852 0.553 0.28896 0.46081 0.34017 0.39913 0.31816 0.26381 0.28471 0.17854 0.32273 0.15595 0.56787 0.18259 0.34906 0.067015 0.3736 0.042467 0.59389 0.014222 0.33297-0.019667 0.40988-0.054319 0.51858-0.12284 0.51383-0.1929 0.43428-0.22778 0.38855-0.25863 0.40471-0.32236 0.69991-0.63958 0.82625-0.80033 2.0537-2.1035 1.5417-1.4428 0.58137-0.57253 0.66662-0.73943 0.3718-0.4699 0.34359-0.48075 0.55646-0.89538 0.29555-0.54616 0.53338-1.1388 0.96394-2.2574 0.41318-0.82406 0.39453-0.69932 0.39339-0.63954 1.0701-1.6494 0.55048-0.9517 0.32096-0.63558 1.24-2.6845 0.38099-0.71978 0.41038-0.67669 0.29001-0.4232 0.45919-0.60518 0.55047-0.66018 1.4498-1.5887 0.52803-0.53498 0.60678-0.5372 0.72842-0.48075 0.58594-0.24364 0.87634-0.16655 0.93664-0.00903 0.98141 0.10196 1.0139 0.17395 2.0892 0.43189 1.0617 0.1976 1.0662 0.14481 1.0667 0.058383 0.78737-0.027908 0.79056-0.072393 2.7121-0.33239 3.8941-0.59248 1.7592-0.30993 0.89546-0.18086 3.9377-0.8852 1.0058-0.18058 1.0157-0.13014 1.0256-0.059551 1.27 0.043087 1.2711 0.15195 1.2535 0.23343 1.2064 0.28804 1.1139 0.31303 0.95263 0.30114 0.96198 0.3445" stroke="#bdc660"/>
    </defs>
    <g clip-path="url(#p7304eb2834)">
     <use y="280.512" fill="#bdc660" stroke="#bdc660" xlink:href="#mdff9582928"/>
    </g>
   </g>
  </g>
 </g>
 <defs>
  <clipPath id="p7304eb2834">
   <rect x="7.2" y="7.2" width="283.76" height="266.11"/>
  </clipPath>
 </defs>
</svg>
