<?xml version="1.0" encoding="UTF-8"?>
<!DOCTYPE svg  PUBLIC '-//W3C//DTD SVG 1.1//EN'  'http://www.w3.org/Graphics/SVG/1.1/DTD/svg11.dtd'>
<svg width="371.52pt" height="267.73pt" version="1.1" viewBox="0 0 371.52 267.73" xmlns="http://www.w3.org/2000/svg" xmlns:xlink="http://www.w3.org/1999/xlink">
 <metadata>
  <rdf:RDF xmlns:cc="http://creativecommons.org/ns#" xmlns:dc="http://purl.org/dc/elements/1.1/" xmlns:rdf="http://www.w3.org/1999/02/22-rdf-syntax-ns#">
   <cc:Work>
    <dc:type rdf:resource="http://purl.org/dc/dcmitype/StillImage"/>
    <dc:date>2024-07-04T12:09:53.864090</dc:date>
    <dc:format>image/svg+xml</dc:format>
    <dc:creator>
     <cc:Agent>
      <dc:title>Matplotlib v3.7.1, https://matplotlib.org/</dc:title>
     </cc:Agent>
    </dc:creator>
   </cc:Work>
  </rdf:RDF>
 </metadata>
 <defs>
  <style type="text/css">*{stroke-linejoin: round; stroke-linecap: butt}</style>
 </defs>
 <g id="figure_1">
  <g id="patch_1">
   <path d="m0 267.73h371.52v-267.73h-371.52v267.73z" fill="none"/>
  </g>
  <g id="axes_1">
   <g id="PatchCollection_1">
    <defs>
     <path id="md3ff5adfed" d="m225.8-248.91 0.18982 0.31088-0.20649 0.64592-0.17708 0.32304-0.59368 0.87032-1.5785 2.0441-0.71745 1.0139-0.67888 1.11-0.40472 0.79466-0.36382 0.89767-0.23556 0.80624-0.1442 0.81579-0.045834 0.8055 0.089829 1.2178 0.12977 0.71318 0.31718 1.175 0.43778 1.2293 0.44062 1.0617 0.443 0.97362 0.64784 1.3173 0.93569 1.7718 0.46406 0.79688 0.38097 0.60117 0.79339 1.1403 1.0837 1.3958 0.94513 1.1337 1.1254 1.29 1.0898 1.1884 2.4186 2.4987 3.6076 3.4508 1.0031 0.9217 0.9643 0.81979 0.70687 0.53646 0.91243 0.57462 0.68904 0.31584 0.86364 0.21524 0.47787 0.024094 0.36284-0.024216 0.45732-0.076926 0.46788-0.12409 0.52421-0.18349 0.76771-0.33755 0.59564-0.30892 0.58884-0.34201 0.99648-0.66133 1.1006-0.82158 0.92586-0.6515 1.6363-1.0391 2.3116-1.3122 1.2768-0.6608 1.129-0.53084 0.85525-0.34436 0.68161-0.19301 0.45857-0.035777 0.45816 0.13583 0.28956 0.30349 0.086265 0.42425-0.086359 0.37225-0.17217 0.36016-0.2674 0.41194-0.30077 0.38639-1.0992 1.2264-2.3852 2.4341-1.2822 1.4034-1.3268 1.5946-1.2172 1.6245-0.9058 1.3783-0.96853 1.6495-0.83639 1.5528-1.6616 3.2034-1.0689 1.8729-0.46411 0.72566-0.75024 1.0442-0.6862 0.84224-0.6981 0.79734-0.92357 0.9887-0.97158 0.94152-1.7169 1.5687-1.0398 0.8645-0.66623 0.50219-1.2356 0.86316-3.5083 2.3182-1.2519 0.8619-1.6636 1.2134-0.97921 0.78009-1.1673 1.051-0.56858 0.60288-0.67725 0.88709-0.1613 0.26112-0.44136 0.87147-0.32135 0.81916-0.20361 0.82533-0.04161 0.38891-0.00337 0.57392 0.035609 0.43501 0.17125 0.96871 0.11267 0.41849 0.20713 0.58232 0.24476 0.52922 0.95377 1.8518 0.28813 0.4912 0.38505 0.54946 0.35135 0.36285 0.37059 0.27985 1.4045 0.80591 1.9906 1.2499 0.7385 0.42177 0.60926 0.30801 0.91431 0.35287 0.86535 0.17965 0.39937 0.024448 0.77884-0.045222 0.69575-0.12242 0.62046-0.16156 0.9626-0.33559 0.93191-0.4293 0.79233-0.43255 0.70728-0.4273 1.3159-0.86977 1.774-1.2682 2.7658-2.0888 3.2919-2.703 1.8622-1.4584 2.0613-1.4893 0.8387-0.52192 0.47086-0.25335 0.60698-0.27339 0.6215-0.19984 0.39786-0.072531 0.39655-0.021298 0.37153 0.023542 0.62087 0.11612 0.92805 0.30322 0.73726 0.34171 0.67841 0.39986 0.87403 0.6848 0.838 0.83774 0.58308 0.68742 0.55245 0.73785 0.52776 0.79765 0.48359 0.83019 0.43551 0.86057 0.37404 0.87759 0.37308 1.1489 0.14185 0.61168 0.36222 1.9224 0.21736 0.89872 0.39965 1.3112 0.28478 0.79442 0.38032 0.92954 0.46878 0.99181 0.51982 0.94687 0.60591 0.93018 0.65874 0.82691 0.67429 0.68202 0.752 0.59368 0.50052 0.30717 1.0085 0.4502 0.99498 0.31661 2.7237 0.72867 1.4172 0.44657 0.68576 0.2685 0.54545 0.25365 0.38083 0.20336 0.87876 0.552 0.7377 0.54778 0.74824 0.63038 0.6957 0.64654 0.80964 0.81474 2.1336 2.3047 0.98539 0.99139 1.0045 0.864 0.59692 0.42446 0.61118 0.3543 0.83178 0.33618 0.58394 0.13114 0.62594 0.061383 1.0032-0.024693 2.071-0.24347 1.0153-0.060817 0.98479 0.089805 1.0247 0.345 0.95669 0.56769 0.86967 0.7369 0.75549 0.86327 0.60183 0.94814 0.40974 1.006 0.16031 1.0351-0.015098 0.36585-0.068718 0.45395-0.19578 0.70174-0.21169 0.54547-0.51249 1.0699-1.3345 2.4912-0.23473 0.49835-0.19369 0.50126-0.12889 0.49981-0.033851 0.44558 0.037248 0.27425 0.068905 0.21121 0.12006 0.22995 0.22093 0.28958 0.22867 0.22794 0.33174 0.26243 0.48259 0.3074 2.0545 1.1099 0.77963 0.3645 0.89397 0.37434 1.6396 0.57349 2.2206 0.62555 2.2469 0.54344 0.79037 0.1339 0.30631 0.010998 0.48548 0.80318 0.41636 0.89002 0.30079 0.85971 0.53619 1.7872 0.3117 0.83451 0.27681 0.61489 0.93631 1.8924 0.24577 0.59359 0.18941 0.5919 0.12325 0.5905 0.22714 1.8999 0.13956 0.66801 0.19471 0.61801 0.22125 0.55554 0.42144 0.88523 1.4432 2.5901 1.5395 2.6582 0.68304 1.1079 1.9927 3.0761 1.5269 2.2648 1.4211 1.911 1.0214 1.2672 0.81976 0.9137 1.8186 1.8853 0.84592 0.91693 1.2978 1.5066 0.50876 0.64934 0.39868 0.56429 0.58358 0.95378 0.76855 1.4262 0.32047 0.7304 0.32482 0.9838 0.24286 1.0605 0.16348 1.0737 0.16217 1.8166 0.19186 3.5574 0.092069 1.2475 0.48377 3.5428 0.15894 0.97306 0.22138 0.95515 0.14108 0.46243 1.9388 5.4419 0.6257 1.512 0.63588 1.3447 0.73809 1.3956 0.83332 1.4566 0.74187 1.2167 1.6808 2.6031 0.4864 0.81162 0.26014 0.49861 0.3856 0.88573 0.30917 0.93938 0.24667 1.1283 0.12042 0.98754 0.045709 0.75044 0.015829 1.1793-0.034724 1.4892 1.61e-4 1.9785 0.26015 6.0627 0.043908 1.9676 0.093515 1.3041 0.094188 0.58836 0.1391 0.58671 0.26667 0.81284 0.45883 1.0305 0.3372 0.61828 0.78603 1.24 2.5028 3.4734 0.69289 1.0344 0.38435 0.63246 0.11073 0.31088-0.060663 0.14946-0.39548 0.14417-0.54932 0.26686-1.0438 0.60332-1.5603 1.109-0.26167 0.21566-0.27789 0.29543-0.2479 0.35706-0.29232 0.63642-0.21472 0.68903-0.46349 1.7729-0.2429 0.67667-0.15562 0.31878-0.19526 0.31356-0.46798 0.58161-0.5352 0.53827-0.58158 0.49892-0.62781 0.44326-0.33654 0.18868-0.64539 0.26735-0.64618 0.19774-0.9493 0.2337-1.2161 0.24118-0.63981 0.067508-1.2148 0.022926-0.63539 0.21689-1.2668 0.33075-1.446 0.2911-1.4124 0.22435-1.5702 0.17925-1.119 0.074848-1.0301 0.024246-1.084-0.0267-1.5084-0.1382-0.94139-0.15849-0.90183-0.21833-1.3374-0.48797-0.76708-0.40887-1.1916-0.91823-1.0374-1.1219-0.92566-1.2643-0.76914-1.2288-0.71954-1.2828-1.1829-2.3508-0.95569-2.0831-0.60102-1.3824-1.0769-2.6028-0.75076-1.9256-0.66006-1.8043-0.39258-0.97059-0.63149-1.2005-0.75674-1.1402-0.84885-1.0749-0.91438-0.99956-0.95846-0.90843-0.98492-0.79544-1.7355-1.2237-0.8422-0.72306-0.82522-0.826-0.81216-0.90252-2.7366-3.3297-0.51472-0.59355-1.0043-1.0456-0.93513-0.82292-0.50713-0.38414-0.9116-0.59499-0.92926-0.52767-0.90706-0.46936-0.91545-0.39791-0.93727-0.2845-0.83631-0.12496-1.0372 9.91e-4 -0.71092 0.090927-0.56059 0.12218-0.64782 0.19842-0.64958 0.26361-0.80089 0.3985-0.81228 0.46116-2.6317 1.6068-1.1689 0.67817-4.8112 2.5896-1.3973 0.78077-2.268 1.3544-1.613 1.058-0.84326 0.6001-0.80776 0.61948-1.039 0.89162-0.96364 0.97459-1.8514 2.2143-1.211 1.3215-1.1447 1.16-1.6234 1.4987-1.0587 0.88823-0.90814 0.70764-3.1303 2.2413-1.7369 1.3535-0.67736 0.44457-0.73803 0.36208-0.62074 0.2221-0.58495 0.15249-0.60804 0.10695-0.4552 0.048159-1.0012 0.014985-0.9367-0.097781-0.68889-0.14748-0.83694-0.28677-0.50061-0.2508-0.42907-0.29021-0.32706-0.30209-0.19663-0.24473-0.20253-0.36181-0.11252-0.34012-0.065137-0.3841-0.017757-0.54044 0.037013-0.50731 0.2014-1.1699 1.4198-5.9573 0.83333-3.6624 0.35305-1.8062 0.17101-1.2205 0.072217-1.094-0.021272-0.8013-0.073429-0.72297-0.35135-2.4852-0.098195-1.139-0.036857-1.1479-0.021837-2.2777-0.070763-1.8759 0.007146-1.1067 0.064729-0.97428 0.07344-0.55531 0.27804-1.164 0.77134-2.4227 0.18547-0.94373-0.013865-1.0018-0.22392-1.0146-0.42579-0.98729-0.3142-0.51235-0.7614-0.98968-0.75472-0.85302-1.3842-1.4878-0.64648-0.75395-0.58268-0.78354-0.66618-1.0789-0.38716-0.75691-0.29767-0.66068-0.53537-1.34-0.29667-0.82992-0.47989-1.5137-0.41645-1.7341-0.16093-0.43806-0.24066-0.42263-0.34876-0.39889-0.20153-0.17688-0.60891-0.4296-1.2063-0.68229-0.93526-0.45183-1.8727-0.77818-0.70275-0.36229-0.52264-0.31896-0.75752-0.52338-1.5213-1.1381-0.51673-0.35168-0.52856-0.30718-0.95495-0.40806-1.7952-0.60256-0.91617-0.3976-1.1947-0.58148-0.71806-0.28402-2.4664-0.76866-0.42462-0.18329-1.2035-0.67978-0.42473-0.1799-0.43834-0.09069-0.48176 0.015204-0.48118 0.10361-0.46036 0.15322-1.1494 0.51562-0.59916 0.32745-0.52409 0.32511-1.0584 0.75701-1.7731 1.4427-0.92966 0.81509-1.6505 1.5145-2.6791 2.2275-2.3721 1.9272-4.5004 3.5864-1.5297 1.1856-1.4254 1.0359-2.2559 0.60694-1.268 0.39884-1.0854 0.42648-0.61602 0.28643-0.66553 0.35029-1.4904 0.90163-0.93068 0.66493-0.78347 0.60629-1.0278 0.89617-0.59604 0.62639-0.31441 0.38756-0.69056 1.0613-0.58271 1.1692-0.55035 1.369-0.44266 1.3025-0.4356 1.4711-0.39166 1.543-0.30886 1.5241-0.46594 2.9749-0.25393 1.3658-0.20516 0.86242-0.35076 1.1183-0.33273 0.76695-0.26623 0.46891-0.51696 0.70702-0.33127 0.36331-0.36042 0.33549-0.63185 0.45663-0.37601 0.20184-0.316 0.13176-0.51528 0.13058-0.31432 0.026472-0.36992-0.014161-1.1622-0.16235-1.3666-0.11676-1.0045-0.037754-0.95944 0.030515-0.81476 0.07601-0.60939 0.11844-0.27665 0.082805-0.40368 0.16582-0.55134 0.33081-0.59008 0.48731-0.50872 0.52871-0.35542 0.42744-1.6439 2.2965-0.84222 1.1301-0.79095 0.96018-1.9515 2.2255-1.0922 1.3523-0.67975 0.9331-1.1334 1.6638-0.71221 0.94647-0.75835 0.8961-0.79269 0.83178-1.5828 1.4732-0.63447 0.64895-0.44165 0.54234-0.33586 0.49219-0.29819 0.53936-0.165 0.38407-0.2045 0.82535 0.009159 0.72346 0.11158 0.5149 0.27392 0.66978 0.4157 0.65256 0.42161 0.48666 0.27935 0.26733 0.62683 0.5064 1.1207 0.79464 0.51047 0.39794 0.40487 0.39189 0.33608 0.47847 0.15511 0.39728 0.053248 0.25067 0.02398 0.47846-0.021509 0.23478-0.091479 0.4272-0.12106 0.34207-0.22582 0.44926-0.16686 0.25836-0.40514 0.49349-0.80753 0.69689-0.96421 0.61452-1.1192 0.57405-1.369 0.59327-4.4148 1.6735-3.9789 1.6426-1.2724 0.47474-1.2917 0.39792-1.0293 0.22987-0.58208 0.083721-1.0259 0.062795-1.0458-0.006028-5.901-0.21903-1.2814-0.004992-1.277 0.04166-1.0349 0.070505-1.544 0.15761-4.922 0.6615-0.93652 0.087595-1.1209 0.06294-1.5521 0.003636-0.97804-0.045573-1.1074-0.092523-1.6994-0.21481-0.68148-0.11396-1.3335-0.30413-0.46002-0.15302-0.26763-0.13078-0.066468-0.093847-0.042579-0.042744-0.36368-0.056991-2.607-0.11581-0.73054-0.065044-1.0934-0.15792-0.799-0.17156-0.81251-0.2235-1.2111-0.42868-0.89359-0.40722-1.2997-0.7805-1.1893-0.92714-1.0818-1.0331-0.97505-1.1069-0.86488-1.1565-0.68499-1.0534-0.9632-1.6121-0.41244-0.80895-0.3824-0.8339-1.7452-4.1559-0.47133-0.99079-0.52131-0.96376-0.59314-0.94528-1.1297-1.5608-2.9357-3.6748-1.5949-2.1878-1.3634-2.011-3.0707-4.6802-2.4995-3.9671-0.62515-0.93083-0.86081-1.2095-1.3748-1.7551-6.9274-8.3668-0.50502-0.66087-0.65847-0.97066-0.50797-0.89138-0.41271-0.9111-0.29718-0.96995-0.085197-0.4895-0.035843-0.59075 0.1594-1.1598 0.24015-0.7536 0.29107-0.68603 0.67827-1.2811 1.526-2.5128 0.33168-0.62102 0.28918-0.64295 0.26287-0.80841 0.13364-0.7163 0.018064-0.88866-0.14094-0.73395-0.21758-0.54811-0.44482-0.61157-0.58767-0.46264-0.47185-0.22644-0.51522-0.13909-0.26934-0.033579-0.73422 0.002901-0.50577 0.05247-1.7207 0.26459-0.98645 0.10021-0.84883-0.008684-0.56083-0.074421-0.73284-0.17201-0.80071-0.26569-0.87344-0.3579-1.0797-0.5214-0.62898-0.35731-0.92758-0.65904-0.63955-0.67403-0.37446-0.76266-0.066257-0.4047 0.07088-0.86905 0.14592-0.53801 0.158-0.43262 0.40996-0.89149 0.36751-0.67119 0.45426-0.74114 0.6894-1.0053 0.88418-1.1447 2.4209-2.9154 1.5394-2.0481 0.60075-0.92539 0.28839-0.53875 0.21287-0.49514 0.1449-0.45868 0.10262-0.6897-0.001558-0.22171-0.081064-0.53066-0.17506-0.50792-0.30204-0.57429-0.43098-0.61691-0.64122-0.74833-0.63532-0.6545-4.6646-4.4272-0.91532-0.92086-1.0224-1.0905-0.9083-1.0369-0.85151-1.0435-0.79065-1.041-2.6782-3.7936-0.87087-1.0428-0.57587-0.55873-0.62519-0.47727-0.41484-0.24641-0.50009-0.23958-0.56418-0.21438-0.6997-0.20586-0.64099-0.14484-1.3544-0.20614-1.6824-0.12106-2.6778-0.046983-1.7302-0.064254-1.2981-0.12392-1.4546-0.22912-1.2462-0.24899-4.6605-1.0142-4.7849-0.84594-1.4023-0.30136-0.99293-0.29016-0.60263-0.26892-0.3013-0.20805-0.17909-0.18324-0.11208-0.16809-0.13611-0.38694-0.014743-0.46296 0.11455-0.52989 0.12585-0.33939 0.27585-0.56605 0.54264-0.86611 0.59204-0.78289 0.81537-0.94402 0.99743-1.0561 1.4683-1.4637 1.5843-1.5163 0.64178-0.56446 0.80602-0.64681 1.4192-1.0016 1.8759-1.1868 1.0291-0.54885 0.44082-0.18084 0.1207-0.018978 0.050185 0.021765 0.18541-0.069873 0.7795-0.43676 1.9232-1.1795 2.3195-1.4787 1.0054-0.58076 0.7484-0.3893 0.97362-0.43248 0.8041-0.25938 0.81016-0.14366 0.65868-0.013915 0.45777 0.06083 0.4324 0.11805 0.72283 0.31786 0.85827 0.53918 0.90525 0.70622 2.4121 2.1145 0.60724 0.49386 0.98357 0.70606 0.75714 0.44609 1.1249 0.46583 1.3222 0.2345 1.4027-0.001939 1.4612-0.17426 1.5032-0.29817 1.533-0.38603 1.5537-0.44746 1.5676-0.48978 3.1561-1.0569 4.7165-1.6885 3.057-1.1858 1.4687-0.623 1.4036-0.65491 1.3109-0.70043 1.1809-0.76448 1.0012-0.85331 0.62144-0.72403 1.1815-1.7124 0.58119-0.98358 0.47565-1.0358 0.30101-1.101 0.072111-0.90562-0.060742-0.94395-0.12296-0.72974-0.18282-0.74166-0.3852-1.1488-0.45286-1.0565-0.47565-0.9468-0.56742-0.99955-0.78962-1.2331-0.82554-1.1506-0.89773-1.1352-2.0014-2.392-0.58798-0.80249-0.42967-0.72655-0.26394-0.71435-0.042803-0.39206 0.022589-0.2497 0.22472-0.48009 0.50818-0.20612 0.20822 0.037945 0.55372-0.038315 1.0441-0.15019 1.0294-0.19232 5.4605-1.2227 2.796-0.67725 1.3747-0.37452 1.2078-0.36649 2.0249-0.69035 2.0188-0.79017 1.6562-0.74429 1.6677-0.85676 1.2298-0.71516 1.2052-0.78136 0.93299-0.6655 0.73439-0.56372 1.0131-0.83288 1.4188-1.2505 2.3777-2.1837 1.1742-0.99828 0.76352-0.57082 0.66296-0.40764 0.49343-0.23955 0.52404-0.17877 0.39154-0.064813 0.47529 0.019712 0.36813 0.10065 0.36204 0.17019 0.30324 0.1923 0.33207 0.25645 0.53931 0.49856 0.50545 0.53195 0.91937 1.0556 3.3957 4.1009 1.1936 1.3906 0.82178 0.90903 0.9045 0.93817 1.0519 0.97217 0.61968 0.48874 0.6272 0.4163 0.69179 0.35195 0.81747 0.24427 1.0633 0.03506 0.84048-0.1376 1.0839-0.31873 0.7963-0.30069 2.0343-0.89594 5.0413-2.4383 4.4162-2.0674 4.6073-1.9169 1.8498-0.86444 1.3413-0.7349 1.2155-0.75968 1.3451-0.93319 1.6798-1.2528 1.936-1.5303 2.7123-2.2547 3.7437-3.3028 1.621-1.3885 1.6609-1.3386 3.0508-2.3866 1.2619-1.0312 1.5533-1.3672 1.2023-1.1804 0.77112-0.82792 0.84909-0.98794 0.85316-1.0846 1.1841-1.6768 0.92038-1.417 1.1992-1.9818 0.54531-0.99548 0.29079-0.59747 0.16675-0.39774 0.054752-0.21407 0.24491-0.23086 0.99587-1.1905 1.2729-1.6406 0.77718-0.9315 2.0825-2.2392 0.97015-0.9687 0.76604-0.65793 1.4402-1.005 0.64471-0.48685 1.7919-1.5128 2.3572-1.7557 1.9084-1.6308 1.0939-1.0387 1.2069-1.3226 1.2567-1.5784 0.68241-0.96673 1.2785-1.9992 0.97852-1.3008 1.9153-2.1619 2.2706-2.3981 0.47376-0.47075 0.64156-0.53195 0.8488-0.57043 4.2738-2.4787 0.70668-0.35849 1.2519-0.57719 1.1539-0.47265 1.0131-0.2971 0.93463-0.20563 3.419-0.52301 0.98274-0.18163 2.1539-0.57291 0.9343-0.20659 0.33065-0.04394 0.3038-0.007301 0.24569 0.042623 0.07342 0.060825" stroke="#bdc660"/>
    </defs>
    <g clip-path="url(#p3105b698d4)">
     <use y="267.733067" fill="#bdc660" stroke="#bdc660" xlink:href="#md3ff5adfed"/>
    </g>
   </g>
  </g>
 </g>
 <defs>
  <clipPath id="p3105b698d4">
   <rect x="7.2" y="7.2" width="357.12" height="253.33"/>
  </clipPath>
 </defs>
</svg>
