<?xml version="1.0" encoding="UTF-8"?>
<!DOCTYPE svg  PUBLIC '-//W3C//DTD SVG 1.1//EN'  'http://www.w3.org/Graphics/SVG/1.1/DTD/svg11.dtd'>
<svg width="272.62pt" height="280.51pt" version="1.1" viewBox="0 0 272.62 280.51" xmlns="http://www.w3.org/2000/svg" xmlns:xlink="http://www.w3.org/1999/xlink">
 <metadata>
  <rdf:RDF xmlns:cc="http://creativecommons.org/ns#" xmlns:dc="http://purl.org/dc/elements/1.1/" xmlns:rdf="http://www.w3.org/1999/02/22-rdf-syntax-ns#">
   <cc:Work>
    <dc:type rdf:resource="http://purl.org/dc/dcmitype/StillImage"/>
    <dc:date>2024-07-04T12:09:57.267602</dc:date>
    <dc:format>image/svg+xml</dc:format>
    <dc:creator>
     <cc:Agent>
      <dc:title>Matplotlib v3.7.1, https://matplotlib.org/</dc:title>
     </cc:Agent>
    </dc:creator>
   </cc:Work>
  </rdf:RDF>
 </metadata>
 <defs>
  <style type="text/css">*{stroke-linejoin: round; stroke-linecap: butt}</style>
 </defs>
 <g id="figure_1">
  <g id="patch_1">
   <path d="m0 280.51h272.62v-280.51h-272.62v280.51z" fill="none"/>
  </g>
  <g id="axes_1">
   <g id="PatchCollection_1">
    <defs>
     <path id="m2aa25a7d9c" d="m78.115-260.28 0.041012 0.11464 0.21236 3.6475 0.19701 2.1669 0.13086 1.0297 0.16816 1.0335 0.16642 0.81709 0.18013 0.72575 0.27847 0.89417 0.31116 0.76344 0.30085 0.56876 0.37497 0.54217 0.43532 0.45908 0.80998 0.54009 0.9408 0.35802 1.0394 0.21727 1.1123 0.11014 1.1946 0.029374 1.2329-0.034453 1.8385-0.1351 1.1263-0.11984 6.5687-0.83247 1.2556-0.10307 1.1496-0.026057 0.59334 0.023415 0.82532 0.083532 0.87644 0.15163 0.95185 0.2225 2.617 0.72585 1.3748 0.34225 1.3793 0.30392 3.4495 0.69605 1.3951 0.35322 0.68688 0.24056 0.55703 0.25068 0.8429 0.50834 0.66207 0.49394 1.7256 1.4098 1.3237 0.95206 1.5836 0.98459 3.3315 1.8838 0.98494 0.58462 1.1586 0.75101 4.4795 3.1447 1.6202 1.1849 0.52003 0.34576 0.49975 0.29594 0.64961 0.32194 1.0032 0.33344 0.54178 0.079856 0.52332-0.0098 0.69058-0.19052 0.69682-0.48316 0.60784-0.72035 0.51566-0.89115 0.41711-0.99006 0.33568-1.0741 0.39353-1.564 0.055057-0.11269 0.49384-0.085128 0.82997-0.39405 0.97919-0.60043 0.98003-0.7483 0.86638-0.86333 0.65703-0.9637 0.26085-0.61383 0.15196-0.5168 0.10081-0.4598 0.26178-1.6803 0.10688-0.54839 0.1736-0.6291 0.1768-0.46312 0.29874-0.5959 0.24903-0.37908 0.45767-0.5432 0.5245-0.45314 0.547-0.35336 1.0096-0.42584 1.144-0.2825 0.98369-0.14575 1.031-0.092114 1.0669-0.051594 1.393-0.023368 1.4229 0.009254 4.9907 0.1328 2.9733 0.13037 1.5872 0.10924 3.1658 0.2933 4.6974 0.55826 3.0461 0.45303 1.4876 0.26941 1.4311 0.30868 1.3517 0.36192 0.71716 0.23583 0.95748 0.39539 0.88108 0.50485 0.69004 0.59678 0.46816 0.63446 0.17458 0.31082 0.33426 0.7341 0.77565 2.1383 0.46233 1.0602 0.64136 1.1449 1.3307 2.089 0.40509 0.71072 0.49537 1.0294 0.26446 0.67107 0.27649 0.84428 0.17356 0.64446 0.33197 1.6554 0.39083 2.8985 0.1138 0.6404 0.17179 0.69037 0.14966 0.45449 0.325 0.75407 0.25994 0.47954 0.30381 0.48056 0.19632 0.27732 0.54789 0.67051 0.48234 0.4955 1.3898 1.2225 0.51489 0.48618 0.4758 0.54544 0.32003 0.47831 0.17169 0.32275 0.2297 0.55294 0.14814 0.47334 0.18554 0.86312 0.42078 2.6671 0.49064 2.5341 0.148 1.2691 0.020547 1.1644-0.081575 1.3945-0.072155 0.62035-0.21075 1.0582-0.45821 1.7459-0.19524 0.88699-0.094312 0.58272-0.097495 0.93385-0.049928 1.2161 0.001897 1.0378 0.034004 0.90946 0.10601 1.3893 0.11014 0.86007 0.13647 0.67601 0.1916 0.64693 0.25884 0.59164 0.23669 0.37499 0.31845 0.3645 0.36253 0.30895 0.48514 0.31167 0.53176 0.25637 0.63277 0.22325 0.63303 0.15345 0.85855 0.12396 0.94756 0.062802 1.7317 0.040659 0.49578 0.042358 0.19645 0.031175 0.55731 0.16157 0.42061 0.24846 0.36135 0.33744 0.36384 0.50256 0.63398 1.2357 0.20839 0.34649 0.39964 0.34015 0.13079 0.044834 0.47961 0.029847 0.6337-0.12254 0.89623-0.31982 1.0078-0.45578 2.9169-1.505 1.9658-0.95812 1.9954-0.84113 1.0181-0.38157 0.9555-0.32145 0.63755-0.17724 0.83881-0.15477 0.42855-0.04565 0.46245-0.010351 0.53592 0.069367 0.24264 0.066569 0.46402 0.21088 0.35035 0.26363 0.23617 0.27499 0.15372 0.23552 0.2023 0.38925 0.16694 0.39235 0.6904 1.9303 0.21246 0.47719 0.25154 0.46619 0.20896 0.32658 0.32312 0.42573 0.28342 0.3153 0.66681 0.60544 1.8539 1.3297 0.52828 0.43427 0.56238 0.58306 0.25779 0.33956 0.28909 0.45828 0.31583 0.63247 0.32972 0.8969 0.54954 2.1694 0.3661 1.1305 0.57352 1.4113 0.69195 1.5084 0.87418 1.6885 1.7941 3.2069 1.1412 2.3662 0.37331 0.71176 0.47105 0.83228 1.0332 1.6979 1.6189 2.9386 1.4215 2.3563 0.45578 0.85384 0.30031 0.67995 0.23549 0.63005 0.49192 1.631 1.1585 5.0892 0.88842 4.0625 0.31216 1.1772 0.14198 0.41628 0.054215 0.068051 0.18078 0.30566 0.33849 0.78863 1.0847 3.1329 0.75793 1.935 0.74106 1.5839 1.3091 2.423 0.28986 0.58089 0.35918 0.85634 0.19651 0.61047 0.19774 0.90988 0.11452 1.0591 0.029254 0.74798 0.025542 2.6234 0.080101 1.123 0.15062 1.1341 0.16366 0.83536 0.23514 0.92095 0.67044 2.1138 0.16563 0.59802 0.12777 0.64041 0.063077 0.54554 0.023567 0.50921-0.014434 0.65797-0.094187 0.84932-0.23922 1.0755-0.40527 1.3067-0.59264 1.678-1.9813 5.2894-0.42528 1.002-1.0057 2.1106-0.28921 0.65596-0.24318 0.61025-0.24392 0.70689-0.2017 0.71063-0.18505 0.82617-0.11882 0.68689-0.11777 1.0073-0.049834 1.3023 0.074273 1.3883 0.15535 1.1867 0.25075 1.2617 0.22772 0.88779 0.37349 1.225 0.30262 0.86831 0.85383 2.272 0.40141 1.2286 0.44456 1.7422 0.14473 0.71781 0.1716 1.0566 0.14374 1.2563 0.091431 1.3803 0.026327 0.83709 0.001333 1.4047-0.029619 1.1339-0.059446 0.98171-0.26473 3.0142-0.20004 2.8415-0.10986 2.6844-0.034499 1.7116 0.001121 2.3538 0.03036 1.2549 0.11111 1.7658 0.11474 0.97703 0.13238 0.84615 0.21027 1.0697 0.2519 1.0562 0.28991 1.0463 0.61985 1.8912 1.7376 4.7011 0.36453 1.1535 0.30297 1.2325 0.14754 0.88193 0.093854 0.91792 0.03473 0.9189-0.017825 0.81092-0.042573 0.58848-0.05944 0.51952-0.1755 0.99908-0.26067 1.014-0.25908 0.8167-0.78504 2.1374-0.9991 2.5662-0.55874 1.3007-0.61328 1.2736-0.38127 0.68873-0.35465 0.57116-0.63738 0.89338-0.83914 1.0229-0.97562 1.0631-0.46918 0.46527-0.53322 0.48759-0.6516 0.52584-0.81763 0.54544-0.85798 0.46182-0.65941 0.29433-0.59717 0.22621-1.1832 0.34296-1.1002 0.21242-0.80396 0.10495-0.95973 0.079009-1.186 0.044014-2.1484-0.00161-2.0101-0.070531-10.326-0.56944-1.3118-0.10002-1.1616-0.144-0.045633-0.087271-0.11813-0.048407-0.31256-0.019712-0.74338 0.11545-0.38742 0.093304-3.2085 0.85449-3.9381 1.1475-3.9882 0.96712-1.7613 0.47933-2.1605 0.67713-4.2187 1.4487-1.1589 0.42729-2.7618 1.0833-2.2514 0.77736-3.2284 0.97098-1.3396 0.35473-1.3478 0.27446-0.93288 0.12234-1.3664 0.089146-1.3288 7.17e-4 -1.3483-0.075987-1.3443-0.14887-1.4595-0.22807-1.7052-0.3226-1.3843-0.33208-2.3763-0.71953-1.5796-0.4439-1.7689-0.46646-3.1144-0.74851-0.93676-0.28841-0.86223-0.32218-1.0408-0.4525-2.6557-1.2837-1.9865-1.0297-1.7225-0.78964-0.46586-0.23786-1.2151-0.70186-1.9914-1.3082-4.8928-3.4695-3.1726-2.165-0.76984-0.55224-0.73527-0.57499-0.48544-0.41739-0.77818-0.7194-0.81938-0.80863-1.0693-1.1791-0.43145-0.52203-0.69522-0.92336-0.66204-1.0413-0.3946-0.77311-0.35273-0.84894-0.3403-1.1402-0.34041-1.5796-0.26869-1.003-0.19048-0.51888-0.37013-0.75649-0.17322-0.28437-0.34359-0.47786-0.47371-0.48477-1.4394-1.0661-0.58088-0.38946-0.67452-0.32598-2.8054-1.1838-0.99215-0.37199-2.4806-0.83624-3.5926-1.1205-4.7395-1.4204-2.9732-0.81277-1.6243-0.41274-3.0381-0.70796-2.7365-0.57007-2.6225-0.50147-3.9207-0.69011-2.8973-0.45641-2.5085-0.34454-2.0938-0.24231-0.95563-0.090023-0.8013-0.043358 0.055868-0.11224-0.005034-0.057501-0.21187-0.28134-0.70299-0.45502-1.0354-0.46585-0.76737-0.26874-0.75083-0.2147-0.77248-0.18076-0.87904-0.16978-2.2283-0.37186-0.85438-0.16995-0.68104-0.16963-0.6011-0.18308-0.67312-0.2492-0.65193-0.29306-0.64974-0.36004-0.66698-0.49594-0.34661-0.38352-0.22277-0.42052-0.083952-0.43598 0.026628-0.47024 0.22105-0.773 0.40146-0.82031 0.67068-1.0232 0.73084-0.92549 0.892-0.99837 0.88526-0.91785 1.3097-1.2941 7.0394-6.6206 0.80837-0.78494 0.95073-0.97263 0.86545-0.98374 0.51596-0.6746 0.44845-0.68791 0.37921-0.73189 0.15043-0.36986 0.20396-0.64524 0.1535-0.81744 0.074976-1.0437-0.021653-1.0174-0.14353-1.1337-0.14233-0.64044-0.24708-0.8444-0.85891-2.4143-0.96901-2.8357-0.41586-1.052-0.23269-0.51487-0.28206-0.54932-0.32008-0.54583-0.59144-0.85805-1.449-1.866-0.75451-1.0268-0.51308-0.7535-0.55307-0.92942-0.37466-0.77276-0.24983-0.6958-0.15667-0.67944-0.073846-0.79608 0.018782-0.63354 0.052146-0.44923 0.12122-0.57926 0.12793-0.42106 0.15022-0.39228 0.21552-0.45335 0.40058-0.64817 0.2325-0.3071 0.57429-0.62528 0.30429-0.27858 0.80362-0.63415 0.96966-0.66444 1.4073-0.8652 1.024-0.66511 0.78697-0.59784 0.53288-0.48566 0.57882-0.66058 0.37656-0.5897 0.23588-0.57033 0.13058-0.77765-0.004098-0.5206-0.072726-0.5802-0.10533-0.49743-0.33565-1.161-1.0531-3.0813-0.2178-0.78582-0.10938-0.55806-0.065358-0.66072-0.002761-0.64193 0.047502-0.87849 0.16408-1.9652 0.013464-0.60132-0.020113-0.45769-0.063493-0.48598-0.11456-0.46521-0.19235-0.48328-0.24353-0.42267-0.27673-0.36042-0.25342-0.25302-0.52884-0.37152-0.67848-0.31437-1.8087-0.66727-0.37898-0.17868-0.51564-0.29577-0.51812-0.35383-0.37913-0.30531-0.35746-0.32675-0.49136-0.50719-0.70178-0.82701-0.57795-0.75906-0.97124-1.3928-0.78968-1.1987-0.62057-1.0387-0.44979-0.8093-1.3143-2.5982-0.76421-1.3715-1.1166-1.7266-1.0421-1.4529-0.6155-0.75275-0.99776-1.0464-3.1171-2.8564-0.90715-0.95927-1.7381-2.1892-0.67612-0.72568-0.70606-0.62563-0.73475-0.48195-0.76295-0.28613-0.62188-0.056967-0.69393 0.095343-0.6538 0.22107-0.46513 0.23171-0.59287 0.40098-0.44054 0.40688-0.44258 0.6002-0.22909 0.5048-0.13352 0.44193-0.14896 0.80635-0.24558 2.4389-0.10104 0.52123-0.14823 0.49875-0.20243 0.44649-0.4341 0.54886-0.22886 0.16955-0.3441 0.16808-0.49854 0.12635-0.50699 0.039057-0.59887-0.028134-0.91617-0.14199-1.4775-0.35228-0.58146-0.11235-0.43221-0.042863-0.32553 2.6e-5 -0.49636 0.058137-0.53724 0.14609-0.40851 0.18923-0.36616 0.27324-0.15576 0.1682-0.14552 0.20734-0.19125 0.4534-0.070143 0.52563 0.051287 0.7379 0.36387 1.9281 0.13528 1.0475-0.004223 0.82363-0.22563 0.96341-0.41883 0.69898-0.55402 0.57453-0.67329 0.49725-0.69205 0.38103-0.74515 0.30376-0.78003 0.21513-0.82978 0.11438-0.8294-0.013036-0.80937-0.16115-0.44554-0.16506-0.51476-0.25224-0.51731-0.30928-0.65693-0.46717-1.0167-0.86393-0.94249-0.91885-0.93108-0.98885-0.92-1.0327-2.3818-2.7994-1.1455-1.4097-0.45082-0.60831-0.58846-0.90565-0.40858-0.7799-0.31877-0.73484-0.24503-0.64501-0.79906-2.3101-0.34058-0.72105-0.1745-0.27766-0.23629-0.30298-0.61834-0.59299-1.4947-1.164-0.47035-0.45211-0.29944-0.3855-0.27001-0.55878-0.12447-0.56-0.016125-0.32498 0.027257-0.79774-0.018084-0.24498-0.14839-0.47904-0.3091-0.39231-0.23914-0.15423-0.42686-0.15711-0.60133-0.092379-0.4574 0.006751-0.28484 0.04812-0.27607 0.097079-0.23107 0.13178-0.30411 0.25764-0.24682 0.28784-0.34897 0.55446-0.26831 0.57664-0.19058 0.50915-0.12163 0.42117-0.030234 0.2823-0.32337 0.13979-0.69982 0.24306-0.89134 0.26356-0.53727 0.12926-0.54231 0.10203-0.91659 0.084979-0.80115-0.062955-0.3848-0.10074-0.32564-0.12981-0.50573-0.29755-0.23957-0.19128-0.30335-0.30597-0.17596-0.22288-0.1475-0.22432-0.19889-0.38472-0.096899-0.2438-0.14236-0.49425-0.078369-0.40678-0.083158-0.77794-0.018615-0.70286 0.049858-1.0319 0.13342-1.1475 0.22307-1.2587 0.31387-1.2465 0.3671-1.1802 0.47029-1.2288 0.43938-0.86948 0.30965-0.48868 0.35482-0.46714 0.44656-0.50858 1.7442-1.7928 0.34495-0.43781 0.1959-0.30745 0.24294-0.55764 0.10118-0.41896 0.047211-0.48479-0.017694-0.45515-0.10403-0.59801-0.12115-0.42079-0.1591-0.42807-0.45548-0.94546-0.29479-0.51619-0.79219-1.2385-0.63683-0.9065-0.78231-1.016-1.7467-2.1151-0.64457-0.90797-0.40994-0.68345-1.0476-1.958-1.2466-2.086-0.30296-0.56722-0.26026-0.5663-0.18813-0.50437-0.1554-0.57288-0.077946-0.48562-0.02453-0.47043 0.014951-0.33753 0.10731-0.64787 0.21684-0.66336 0.25613-0.5392 0.5361-0.85239 1.0357-1.4626 0.35034-0.58885 0.34118-0.70361 0.26981-0.74094 0.14609-0.53488 0.13225-0.61513 0.33228-1.9867 0.25857-1.1326 0.26642-0.71716 0.37447-0.63495 0.32879-0.37878 0.53974-0.465 0.47587-0.3315 0.48201-0.29497 0.96161-0.52354 2.2479-1.1353 1.0956-0.60401 0.6366-0.3853 1.0391-0.6916 2.4951-1.8229 0.48679-0.30957 0.59901-0.33391 0.57895-0.2693 0.46493-0.17761 0.72913-0.21506 0.58327-0.12608 1.298-0.1821 2.2881-0.21256 1.2568-0.1894 0.45184-0.1045 0.55708-0.16585 0.60748-0.23327 0.76275-0.38687 0.80914-0.55587 0.65801-0.60985 0.49086-0.60549 0.40338-0.67708 0.33106-0.85001 0.14612-0.5683 0.18916-1.2245 0.098237-1.711-0.012486-1.9622-0.097298-1.5911-0.075374-0.5488-0.10401-0.48933-0.13627-0.43832-0.15282-0.3585-0.17853-0.32276-0.47816-0.64952-1.7568-1.8429-0.71206-0.84647-0.71344-1.0015-1.6584-2.5813-0.97455-1.435-0.98669-1.3361-0.80385-0.96947-0.81758-0.87696-1.0892-1.034-1.1097-0.95867-2.3178-1.9101-0.45213-0.40582-0.72357-0.7491-0.38786-0.53928-0.14099-0.29508-0.055656-0.22284 0.002362-0.14211 0.066192-0.14642 0.082011-0.071964 0.18537-0.035711 0.083162 0.022493 0.058352-0.012116 0.10044-0.067185 0.12479-0.152 0.12146-0.21051 0.28559-0.72594 0.26261-1.0275 0.14656-0.88568 0.094266-1.0561 0.020596-0.92149-0.066509-2.11 0.017818-0.68459 0.10347-0.70872 0.19592-0.61174 0.24388-0.48726 0.35198-0.50366 0.36714-0.38938 0.27595-0.23293 0.65797-0.42774 0.51671-0.25469 0.67063-0.24894 0.59557-0.16042 0.74943-0.13579 0.84914-0.074557 0.81163-0.006742 0.9412 0.065851 0.58216 0.085089 0.89546 0.19379 2.5245 0.73106 1.0916 0.27377 1.095 0.17505 1.3474 0.093392 1.6274-0.003666 1.3023-0.10874 0.54644-0.080593 2.277-0.42906 0.79922-0.11761 0.65153-0.065202 1.6996-0.068441 0.76124 0.014996 0.80237 0.070921 0.75423 0.1379 0.55765 0.15256 0.97906 0.35826 2.4334 1.0162 1.1128 0.39547 1.1489 0.33442 1.1828 0.24431 1.215 0.11808 1.185-0.032185 1.2067-0.15459 1.2202-0.25027 1.2214-0.3225 1.2038-0.37259 2.2235-0.79701 1.8189-0.71901" stroke="#bdc660"/>
    </defs>
    <g clip-path="url(#p454ac085c9)">
     <use y="280.512" fill="#bdc660" stroke="#bdc660" xlink:href="#m2aa25a7d9c"/>
    </g>
   </g>
  </g>
 </g>
 <defs>
  <clipPath id="p454ac085c9">
   <rect x="7.2" y="7.2" width="258.22" height="266.11"/>
  </clipPath>
 </defs>
</svg>
