<?xml version="1.0" encoding="UTF-8"?>
<!DOCTYPE svg  PUBLIC '-//W3C//DTD SVG 1.1//EN'  'http://www.w3.org/Graphics/SVG/1.1/DTD/svg11.dtd'>
<svg width="356.79pt" height="280.51pt" version="1.1" viewBox="0 0 356.79 280.51" xmlns="http://www.w3.org/2000/svg" xmlns:xlink="http://www.w3.org/1999/xlink">
 <metadata>
  <rdf:RDF xmlns:cc="http://creativecommons.org/ns#" xmlns:dc="http://purl.org/dc/elements/1.1/" xmlns:rdf="http://www.w3.org/1999/02/22-rdf-syntax-ns#">
   <cc:Work>
    <dc:type rdf:resource="http://purl.org/dc/dcmitype/StillImage"/>
    <dc:date>2024-07-04T12:09:58.674730</dc:date>
    <dc:format>image/svg+xml</dc:format>
    <dc:creator>
     <cc:Agent>
      <dc:title>Matplotlib v3.7.1, https://matplotlib.org/</dc:title>
     </cc:Agent>
    </dc:creator>
   </cc:Work>
  </rdf:RDF>
 </metadata>
 <defs>
  <style type="text/css">*{stroke-linejoin: round; stroke-linecap: butt}</style>
 </defs>
 <g id="figure_1">
  <g id="patch_1">
   <path d="m0 280.51h356.79v-280.51h-356.79v280.51z" fill="none"/>
  </g>
  <g id="axes_1">
   <g id="PatchCollection_1">
    <defs>
     <path id="mbd08a10b9d" d="m231.19-257.6 5.8065 2.8196 4.3476 2.0432 4.3255 1.9749 4.1128 1.8152 4.3501 1.8275 10.485 4.1565 1.8329 0.75772 3.0766 1.3527 1.2542 0.595 2.6859 1.3937 1.1029 0.62015 2.986 1.7958 1.9596 1.2876 1.0073 0.75065 0.66393 0.57922 0.52041 0.52995 0.47146 0.5658 0.38012 0.54937 0.40414 0.7358 0.40992 0.95947 0.90705 2.4916 0.33327 0.75584 0.62824 1.212 1.2353 1.9504 1.1139 1.4772 0.63003 0.73597 1.5531 1.5979 1.4325 1.2678 2.5803 1.9275 3.1412 2.5498 1.4316 1.2027 2.9746 2.6222 2.5301 1.9028 1.1787 0.81926 1.7129 1.0177 5.3444 2.567 2.3889 1.0346 2.7474 1.0698 1.8988 0.56972 1.7687 0.32566 1.7116 0.13192 3.2024-0.008995 1.5231 0.21011 1.3841 0.51652 1.4572 0.94182 1.3749 1.3651 1.0895 1.5874 0.49913 0.98254 0.39129 0.97326 0.4165 1.5378 0.072053 0.67655-0.077589 0.40208 0.04046 0.23578-0.10613 0.47473-0.29396 0.76979-0.39016 0.79636-0.79814 1.2817-0.76919 0.96626-0.55265 0.58067-0.37431 0.35075-1.172 0.94073-1.3052 0.87204-2.2962 1.3053-6.7783 3.346-6.573 3.3208-6.284 3.0444-2.7541 1.2492-3.5044 1.4544-1.5117 0.79203-1.1262 0.78076-0.77255 0.64617-0.69434 0.65701-1.5023 1.6452-1.8121 2.1715-1.1184 1.1585-0.88153 0.7048-0.90503 0.55087-1.1198 0.50552-0.70624 0.24748-1.5621 0.42152-1.428 0.28879-1.233 0.19713-3.4351 0.41345-1.0311 0.16505-2.103 0.45516-3.9911 1.12-2.4818 0.80165-2.4132 0.87008-2.859 1.1264-1.2405 0.53739-1.267 0.66322-2.0595 1.2964-1.1466 0.66801-3.5166 1.7533-5.1072 2.7253-2.7305 1.3353-0.83249 0.4935-0.86466 0.66898-0.92181 0.93772-0.77942 1.0231-0.64046 1.0061-1.8606 3.3646-1.0929 2.2581-0.62657 1.5112-1.5122 4.0215-0.83474 1.8432-0.9346 1.6664-0.81797 1.1957-0.83951 1.0353-0.70836 0.74772-1.3676 1.1875-1.3747 0.98824-2.3774 1.4679-4.174 2.4022-1.7075 1.0802-4.1963 2.8702-0.63336 0.36945-0.96883 0.48466-3.208 1.2107-1.2358 0.60114-1.4272 1.0028-0.95274 0.91982-0.62167 0.74342-0.56169 0.78787-0.89196 1.4651-1.5202 2.9117-2.0683 4.3194-0.78944 1.2974-0.76896 1.108-2.52 3.3612-1.6736 2.3469-1.1488 1.7443-2.4073 3.8089-1.8064 2.6409-1.7691 2.2633-1.2722 1.5036-1.9629 2.1872-1.8389 1.9348-5.6153 5.6564-0.96428 1.069-1.1359 1.4698-0.98522 1.4468-0.86716 1.4702-0.64199 1.3449-0.47588 1.2602-0.3688 1.2875-0.32911 1.8277-0.11246 1.42-0.040578 3.2926-0.098643 1.4035-0.17765 1.0011-0.42856 1.2718-0.58513 1.1592-0.66013 1.052-1.1844 1.7523-0.43598 0.86457-0.25005 0.7759-0.14996 0.84888-0.049398 1.7874 0.17513 2.0292 0.3187 2.1885 0.73912 4.447 0.24155 1.9692 0.046278 1.5252-0.18934 0.66948-0.091435 0.18715-0.65354 2.5973-0.55746 1.7838-0.69271 1.6442-0.85637 1.48-1.0095 1.1963-1.1572 0.80239-1.1469 0.31641-0.86908 0.016276-0.89974-0.13262-1.6661-0.55375-1.0788-0.53466-0.82995-0.49148-0.86363-0.57422-2.6907-1.9678-7.4392-5.2225-1.9241-1.2472-1.6357-0.97089-5.5326-3.1285-2.63-1.6351-2.1982-1.5811-2.8657-2.3412-1.0995-0.8203-1.3998-0.8442-0.92508-0.41631-1.1407-0.3995-2.3169-0.58659-5.7287-1.156-2.2907-0.50472-2.2832-0.56838-4.3462-1.2054-1.5808-0.36952-1.4555-0.25182-1.3706-0.13872-0.98536-0.038885-1.9092 0.043273-2.0852 0.17116-10.909 1.3825-1.8704 0.19902-3.0532 0.22437-2.0476 0.057217-1.9839-0.048783-1.8473-0.18292-1.7262-0.36082-1.5624-0.59458-1.3452-0.89693-0.72295-0.76241-0.62272-0.90039-0.49962-0.94456-0.51676-1.2679-0.46246-1.485-0.29914-1.2053-0.27637-1.357-0.27927-1.7164-0.21732-1.71-0.32718-3.5987-0.35267-6.0575-0.06811-0.19038-0.12933-0.63932-0.47482-1.5904-1.6699-5.1657-1.1938-4.0424-0.69007-2.6661-0.84164-3.5941-1.155-6.0422-0.47429-2.2128-0.45497-1.7271-1.5828-4.8105-0.6845-2.3095-1.5739-5.8625-1.125-4.6211-0.90178-4.1765-0.40184-2.1324-0.38158-2.3201-1.3737-9.8467-1.445-8.6069-0.60999-3.1551-0.36385-1.5809-0.50936-1.8571-0.656-1.9336-0.93307-2.1622-1.3261-2.6953-0.61282-1.1535-0.96846-1.6237-0.4777-0.7069-1.0034-1.309-2.5277-2.8015-1.6253-1.9568-0.96-1.3301-1.1799-1.8942-1.1337-2.1028-1.1647-2.4511-0.91391-2.1721-0.54912-1.4641-0.49372-1.4766-0.37836-1.2971-0.32053-1.303-0.29419-1.5725-0.17377-1.5776-0.035921-2.0278 0.2304-6.437 0.011751-2.448-0.07498-2.4722-0.20604-2.4325-0.23281-1.594-0.22881-1.1619-0.41326-1.5921-0.6639-1.8472-0.68187-1.4009-1.0846-1.6584-0.81751-0.92492-0.63961-0.60486-1.172-0.9365-1.3128-0.87439-1.8422-1.0316-2.6612-1.2358-1.1491-0.46028-0.7035-0.23399-0.027503-0.063037-0.15522-0.55714 0.19077-1.0815 0.57468-1.2582 0.55426-0.76823 0.68359-0.75167 2.2932-2.1188 1.3659-1.3346 1.3384-1.4414 1.2712-1.4985 1.2743-1.5971 1.2916-1.4865 1.4468-1.254 0.7081-0.44204 0.97546-0.47645 1.2107-0.44038 1.1961-0.31966 1.3658-0.26586 1.3051-0.17976 2.344-0.18966 1.7023-0.062294 8.2049-0.043773 13.144-0.25478 9.5001-0.35755 3.0024-0.015081 1.8863 0.093108 1.4995 0.14974 1.578 0.2477 1.4198 0.32945 1.1336 0.37067 1.0152 0.45893 0.89722 0.5579 1.9438 1.582 0.85185 0.56718 0.74078 0.33196 0.82594 0.23543 0.85918 0.15615 1.7975 0.19287 3.4487 0.25115 1.4133 0.041893 1.084-0.020169 3.5164-0.24375 1.0699-0.2065 1.9501-0.56377 0.63959-0.097885 0.59609 0.041687 0.59678 0.18008 0.96672 0.59784 0.96807 0.78819 1.059 0.7561 1.2476 0.49815 0.82121 0.089267 0.90432-0.041432 1.6164-0.28335 1.792-0.48263 14.377-4.6234 11.322-3.3981 3.2798-1.037 2.8194-0.97991 1.5438-0.60592 1.4816-0.661 1.9532-1.0598 1.348-0.92245 1.2057-1.0361 1.0344-1.1629 1.0028-1.5855 0.80598-1.7265 1.4029-3.624 0.77971-1.7787 0.95824-1.6753 1.2839-1.5991 1.5286-1.4447 1.7175-1.3154 1.8632-1.2015 1.9764-1.0936 2.0662-0.98208 2.1401-0.85692 2.2049-0.70694 2.2665-0.5194 1.6267-0.23265 1.6531-0.13786 2.7584-0.073362 3.2514 0.061608 8.6127 0.33673 4.378 0.1114 5.2152 0.018639 7.5705-0.072037 2.8142 0.024418 2.397 0.10288 1.8198 0.16202 1.8839 0.28652 1.0274 0.23025 1.1363 0.34107 1.0796 0.43992 1.0141 0.58205 0.38049 0.30331 0.31513 0.35727 0.080987 0.2305-0.029003 0.096606" stroke="#bdc660"/>
    </defs>
    <g clip-path="url(#p6ede5ec71a)">
     <use y="280.512" fill="#bdc660" stroke="#bdc660" xlink:href="#mbd08a10b9d"/>
    </g>
   </g>
  </g>
 </g>
 <defs>
  <clipPath id="p6ede5ec71a">
   <rect x="7.2" y="7.2" width="342.39" height="266.11"/>
  </clipPath>
 </defs>
</svg>
