<?xml version="1.0" encoding="UTF-8"?>
<!DOCTYPE svg  PUBLIC '-//W3C//DTD SVG 1.1//EN'  'http://www.w3.org/Graphics/SVG/1.1/DTD/svg11.dtd'>
<svg width="314.75pt" height="280.51pt" version="1.1" viewBox="0 0 314.75 280.51" xmlns="http://www.w3.org/2000/svg" xmlns:xlink="http://www.w3.org/1999/xlink">
 <metadata>
  <rdf:RDF xmlns:cc="http://creativecommons.org/ns#" xmlns:dc="http://purl.org/dc/elements/1.1/" xmlns:rdf="http://www.w3.org/1999/02/22-rdf-syntax-ns#">
   <cc:Work>
    <dc:type rdf:resource="http://purl.org/dc/dcmitype/StillImage"/>
    <dc:date>2024-07-04T12:09:56.917412</dc:date>
    <dc:format>image/svg+xml</dc:format>
    <dc:creator>
     <cc:Agent>
      <dc:title>Matplotlib v3.7.1, https://matplotlib.org/</dc:title>
     </cc:Agent>
    </dc:creator>
   </cc:Work>
  </rdf:RDF>
 </metadata>
 <defs>
  <style type="text/css">*{stroke-linejoin: round; stroke-linecap: butt}</style>
 </defs>
 <g id="figure_1">
  <g id="patch_1">
   <path d="m0 280.51h314.75v-280.51h-314.75v280.51z" fill="none"/>
  </g>
  <g id="axes_1">
   <g id="PatchCollection_1">
    <defs>
     <path id="mfb53365684" d="m247.34-261.09-0.041152 0.15492-0.36574 0.56833-1.0339 1.3044-0.44284 0.59869-0.28236 0.42185-0.4286 0.72151-0.35996 0.6969-0.26464 0.56658-0.31323 0.7451-0.16164 0.43245-0.36695 1.1653-0.62229 2.5127-0.94374 3.4692-0.27401 1.1942-0.27234 1.5555-0.14303 0.68916-0.19648 0.70265-0.10068 0.28609-0.25145 0.56297-0.22559 0.37621-0.33174 0.42068-0.46321 0.4357-0.45593 0.32717-0.55044 0.30172-0.72658 0.28136-1.993 0.53453-1.1919 0.40783-0.47163 0.20168-0.60341 0.29654-0.54813 0.30134-0.52197 0.31997-0.49597 0.34435-0.48777 0.38874-0.32635 0.3072-0.25931 0.28446-0.2662 0.34076-0.28078 0.46221-0.12858 0.29834-0.083374 0.31621-0.022779 0.33976 0.044822 0.41106 0.28946 1.3509 0.063095 0.54922-0.022423 0.89744-0.12044 0.97169-0.15487 0.96166-0.19973 1.0255-0.21635 0.91732-0.26761 0.96855-0.2333 0.75087-0.33831 0.98606-0.31141 0.9888-0.16842 0.705-0.13254 0.71755-0.23059 1.6987-0.18247 1.8034-0.097371 1.2251-0.025259 0.92424 0.097672 1.6423 0.1332 1.1118 0.30058 1.8292 0.062009 0.61909 0.014057 0.57974-0.044277 0.60842-0.11113 0.63124-0.15851 0.64355-0.89943 2.8781-0.35922 1.2785-0.21203 1.0295-0.040529 0.3274-0.0332 0.5665 0.014592 0.51934 0.073239 0.55533 0.042987 0.18949 0.21128 0.61408 0.14183 0.28306 0.32388 0.50147 0.79227 0.91592 0.35935 0.51745 0.17487 0.36781 0.21333 0.61281 0.25102 0.90933 0.30656 1.28 0.12184 0.64555 0.10145 0.72724 0.059872 0.60539 0.049403 0.76706 0.03329 1.3807-0.030117 1.5126-0.16129 3.1917-0.066655 2.5251-0.065473 0.50128-0.12402 0.53537-0.10125 0.2907-0.14008 0.31645-0.18273 0.33576-0.30617 0.45474-0.31049 0.37202-0.34897 0.32288-0.25706 0.18189-0.4034 0.22576-1.6595 0.69316-0.42124 0.21735-0.30214 0.20894-0.43026 0.47808-0.097889 0.18364-0.1383 0.3949-0.071512 0.3476-0.059634 0.57708-0.014313 0.60245 0.036095 0.74026 0.11246 0.8199 0.15025 0.66269 0.55977 1.8084 0.16409 0.73165 0.050594 0.41706 0.00863 0.4276-0.045275 0.39627-0.06262 0.24313-0.10021 0.25129-0.16516 0.28528-0.24124 0.29891-0.2344 0.22461-0.29918 0.2358-0.30874 0.20985-0.7541 0.428-0.56233 0.25861-0.86719 0.34187-1.5118 0.5243-3.0531 1.0132-0.72664 0.27543-0.69748 0.30102-0.56242 0.28346-0.52564 0.3151-0.49808 0.36862-0.57775 0.5627-0.50277 0.62251-0.82168 1.2177-0.36637 0.62256-0.3399 0.68425-0.2571 0.71574-0.077565 0.42737 0.013077 0.37611 0.068889 0.2184 0.24047 0.2983 0.36339 0.20735 0.5689 0.14565 0.64609 0.001685 0.67354-0.17952 0.5977-0.34509 0.5706-0.49543 0.46171-0.51807 0.43657-0.56175 1.4223-1.9793 0.67694-0.86101 0.74399-0.81118 0.8165-0.72555 0.42562-0.31114 0.73563-0.45139 0.61836-0.31204 0.89672-0.36597 0.60717-0.20074 0.66102-0.17497 0.37033-0.074515 0.64304-0.077423 0.37442-0.005256 0.29718 0.023996 0.30627 0.058071 0.33246 0.11361 0.2656 0.14445 0.25951 0.21368 0.23267 0.29751 0.21051 0.41186 0.25193 0.76736 0.27237 1.0766 0.26634 0.91387 0.28058 0.75935 0.2334 0.52831 0.25116 0.4915 0.76628 1.3057 0.43451 0.8562 0.15503 0.1898 0.32023 0.16074 0.29726 0.012653 0.20971-0.062579 0.27717-0.15961 0.97107-0.76362 0.37728-0.24021 0.35407-0.16753 0.23546-0.082846 0.40931-0.093236 0.57347-0.024532 0.54989 0.085565 0.55201 0.19542 0.90886 0.3987 0.20039 0.049766 0.21835 0.025198 0.30852-0.005533 0.58648-0.10255 0.98128-0.2781 0.41596-0.090484 0.42948-0.059205 2.4184-0.097879 1.7627-0.23976 0.56661-0.056773 6.7916-0.21835 1.7578-0.13139 0.78211-0.087401 1.4356-0.21233 0.65039-0.1218 2.4897-0.5501 1.393-0.24257 1.809-0.21045 0.74004-0.055823 1.0004-0.004691 0.83031 0.11889 0.42076 0.14757 0.58271 0.38677 0.46672 0.5286 0.36054 0.61862 0.25839 0.66039 0.31522 1.2718 0.2285 0.56817 0.46335 0.56005 0.45494 0.3195 0.40972 0.21316 0.50102 0.21295 1.0369 0.36027 2.276 0.6613 0.69222 0.23037 0.3107 0.17096-0.027127 0.16185-0.077613 0.028455-0.037726 0.11441 0.14432 0.16111 0.9847 0.65324 0.38425 0.35768 0.3237 0.46063 0.22695 0.53951 0.10869 0.59207-0.044515 0.79802-0.18179 0.82016-0.90063 3.1679-0.081156 0.63465 0.018944 0.56386 0.099837 0.42973 0.04445 0.094857 0.10172 0.13259 0.10871 0.034166 0.046475-0.020414 0.12281-0.15886 0.44999-1.0077 0.36395-0.71601 0.3972-0.65403 0.48661-0.71231 0.44565-0.58579 0.78848-0.92982 0.87061-1.1578 0.47403-0.53179 0.52204-0.49755 0.429-0.3342 0.40675-0.24957 0.46598-0.21639 0.50602-0.16714 0.37267-0.083357 0.61577-0.073053 0.55287-0.004242 1.6536 0.17348 1.109 0.044934 0.41748 0.038655 0.25796 0.047575 0.33691 0.1012 0.29888 0.13862 0.18026 0.11337 0.28065 0.22921 0.24436 0.25962 0.20697 0.27257 0.19384 0.31039 0.20078 0.39231 0.22748 0.53943 0.68332 1.9388 0.37162 0.83615 0.42963 0.81539 0.45793 0.75444 0.44916 0.637 0.39102 0.43926 0.28579 0.11538 0.18123 0.17209 0.35425 0.62672 0.42611 0.9256 0.45096 1.1082 0.44954 1.2129 0.43229 1.2668 0.40401 1.2887 0.36613 1.291 0.31774 1.2818 0.25623 1.2662 0.1775 1.2472 0.07589 1.2263-0.022974 0.83873-0.088219 0.80808-0.22854 1.183-0.31504 1.1663-0.37565 1.1532-0.4174 1.1429-0.91004 2.2638-1.4491 3.3633-8.4964 19.303-2.1944 4.9132-1.1402 2.4677-1.1013 2.2547-0.71264 1.3044-0.22526 0.34316-0.089594 0.083767-0.225-0.18505-0.59493-0.22692-0.8315-0.20639-0.97703-0.12971-1.0378-0.020049-3.7108 0.22345-1.359 0.041279-2.3011 0.027135-1.0371 0.03409-0.7343 0.075273-0.67581 0.14499-0.33539 0.11312-0.70071 0.31299-0.96052 0.49946-1.192 0.68568-0.56512 0.29969-1.4823 0.67617-0.94686 0.46466-1.5583 0.8478-1.8108 1.053-0.87492 0.5357-0.76766 0.5033-0.79525 0.58598-0.64848 0.55795-0.46536 0.47043-0.44632 0.54013-0.45823 0.70968-0.26026 0.52515-0.28277 0.74152-0.37084 1.2112-0.20458 0.59442-0.17816 0.43839-0.28002 0.59227-0.53535 1.0033-0.27084 0.56564-0.38997 0.99971-0.59596 1.8264-0.24198 0.63142-0.22455 0.48266-0.30106 0.5244-0.30722 0.42231-0.44963 0.4646-0.58076 0.39495-0.39419 0.16051-0.40886 0.083451-0.69826-0.033131-0.72594-0.19008-0.43368-0.15802-0.55734-0.25187-0.55103-0.317-0.59228-0.43451-0.41182-0.35486-1.9641-1.9137-0.683-0.59273-0.55915-0.42587-0.83314-0.5273-0.51496-0.26034-0.83159-0.32302-0.99364-0.26846-2.5294-0.45011-0.71307-0.17451-0.39228-0.13619-0.3777-0.18174-0.49296-0.37428-0.32508-0.38328-0.23033-0.35491-0.87881-1.6098-0.31012-0.45836-0.34306-0.40465-0.37227-0.33136-0.29653-0.18436-0.3501-0.12324-1.4397-0.24062-0.41157-0.097346-0.50078-0.16694-0.34485-0.14495-0.48441-0.25082-0.83508-0.58827-0.4522-0.36029-0.85546-0.78166-0.36847-0.31166-0.52292-0.38064-0.58804-0.33274-0.70367-0.2578-0.71019-0.15302-0.54012-0.065472-0.61038-0.053851-0.60415 0.008775-0.55869 0.10928-0.53123 0.20648-0.53512 0.31723-1.1169 0.73313-0.61869 0.34306-1.1425 0.58909-0.39204 0.24812-0.77765 0.59199-0.56463 0.5255-0.36236 0.37734-0.89026 0.98199-1.6816 2.0855-0.4373 0.49825-0.37093 0.36876-0.3924 0.34662-0.39053 0.30623-0.62737 0.40648-0.59526 0.32452-0.63288 0.30395-0.6167 0.26476-1.3286 0.49299-0.70499 0.22796-1.1809 0.33608-1.4253 0.32331-0.83148 0.14545-1.2675 0.15052-0.98984 0.030952-0.9749-0.068547-0.70291-0.12723-1.0807-0.34608-1.0552-0.47586-2.6877-1.418-0.59757-0.28431-0.91482-0.37775-0.94068-0.3235-0.96095-0.27095-0.97658-0.21764-0.98836-0.161-1.0313-0.10846-5.4628-0.40987-1.6586-0.063355-1.1735 0.007747-0.79048 0.040884-1.0089 0.10434-0.86068 0.13446-1.4315 0.30881-0.50692 0.13669-0.74856 0.24444-0.64812 0.30817-0.51872 0.41707-0.37112 0.56973-0.24172 0.69697-0.14557 0.794-0.077064 0.86644-0.034586 1.0318-0.031018 2.1771-0.12496 3.236 0.015486 0.95463 0.12458 2.5074-0.009212 0.62881-0.050614 0.62284-0.075998 0.48687-0.13425 0.59543-0.19835 0.67192-0.24344 0.68249-0.51402 1.2247-0.34955 0.73945-0.435 0.83222-0.4993 0.83502-0.50853 0.71023-0.37815 0.43815-0.40408 0.39541-0.5112 0.41456-0.80604 0.49514-0.73467 0.29336-0.52827 0.11157-0.73501 0.011347-1.3897-0.18246-0.64592-0.008057-0.48332 0.11307-0.42943 0.237-0.42175 0.46015-0.31549 0.60953-0.07213 0.19595-0.13737 0.51024-0.065831 0.37241-0.055677 0.48677-0.097776 1.5514-0.085115 1.0023-0.18674 1.371-0.16728 0.91577-0.24353 1.1093-0.3408 1.2933-0.18704 0.56997-0.32831 0.7893-0.3151 0.60768-0.74894 1.3505-0.90698 1.9543-0.22767 0.44145-0.31365 0.53798-0.67511 1.0733-0.92665 1.6016-0.4154 0.58288-0.28429 0.31818-0.28581 0.25434-0.33996 0.22946-0.37402 0.17503-0.64014 0.15345-0.69472 0.041872-0.74543-0.035961-0.87406-0.099884-1.7363-0.24521-0.83964-0.096699-0.81572-0.060221-0.81709-0.013546-0.49978 0.020915-0.80371 0.085011-0.92768 0.17787-0.70814 0.19086-1.0464 0.35015-1.6846 0.68148-0.70749 0.33478-0.45618 0.258-0.45548 0.31122-0.64797 0.49173-0.33424 0.2073-0.38756 0.14576-0.34545 0.036276-0.3945-0.034934-1.156-0.25274-0.79412-0.10491-0.87073-0.050974-2.0845-0.07725-1.0828-0.065017-3.2004-0.28309-0.8224-0.048201-0.56354-0.009341-0.7081 0.0264-1.1161 0.14456-0.65099 0.15165-0.62818 0.20299-0.66492 0.29112-0.61873 0.36845-0.77405 0.65477-0.56233 0.63959-0.59965 0.86202-0.42204 0.74031-0.39251 0.80781-0.91699 2.0727-0.36601 0.72205-0.36582 0.61884-0.47524 0.69431-0.37626 0.48492-0.60892 0.69586-0.50699 0.51929-1.0243 0.9433-0.49194 0.4142-0.84824 0.63996-0.36136 0.21478-0.096005 0.03532-0.06763-0.00828-0.91006-0.9257-1.3006-1.2106-2.7547-2.4684-1.5307-1.2856-1.5356-1.1486-1.0413-0.70902-1.1638-0.71113-2.3873-1.3863-0.6699-0.41862-0.70392-0.47932-0.78843-0.59768-0.79418-0.686-0.56808-0.55143-0.59611-0.64482-0.72188-0.88966-0.68881-0.95962-0.6714-1.0484-0.61013-1.0632-0.45818-0.89684-0.38153-0.84178-0.34838-0.88748-0.72538-2.0154-0.31693-0.7608-0.42815-0.90836-0.51012-0.86777-0.38994-0.52552-0.44643-0.52314-0.48302-0.50954-0.95268-0.90097-1.0446-0.88979-1.9682-1.5681-1.1843-1.0138-0.54532-0.51806-0.53185-0.54472-0.51034-0.56553-0.49018-0.5888-0.86969-1.1511-1.775-2.5602-1.414-1.9957-0.63785-0.86743-4.1469-5.4337-2.7011-3.6411-3.2373-4.0621-0.66296-0.89617-0.63274-0.91606-0.4077-0.63491-0.71185-1.2248-0.30552-0.5877-0.37688-0.7917-0.74798-1.6965-0.52049-1.2519-1.0561-2.7562-0.34788-0.84876-0.33912-0.72039-0.39224-0.67923-0.30883-0.43041-0.79977-0.8317-0.95392-0.71788-1.0624-0.61594-1.1213-0.51645-1.1192-0.40979-1.0347-0.2868-0.83143-0.14091-0.39717 0.001007-0.080047 0.043838-0.068069-0.14636-0.26003-0.11566-0.48999-0.076352-0.64101-0.003957-0.54619 0.037882-2.0368 0.21008-3.2346 0.27643-0.87154 0.038407-0.6503-0.010766-0.53-0.04493-0.75989-0.13212-2.6429-0.66916-1.5447-0.34186-1.0397-0.2998-0.4034-0.15062-0.7688-0.36333-0.35849-0.21383-0.31308-0.21785-0.28794-0.23342-0.30639-0.29751-0.25911-0.31597-0.25038-0.42971-0.089183-0.23595-0.079713-0.41224 0.005925-0.48454 0.041485-0.28477 0.21684-0.95605 0.020329-0.18586-0.012661-0.13324-0.11925-0.13248-0.088269-0.003128-0.19834 0.07135-0.24222 0.1501-1.2917 1.0312-0.33285 0.22227-0.3472 0.17712-0.44177 0.12336-0.37107 0.00259-0.44166-0.13077-0.41522-0.27125-0.4311-0.46592-0.32179-0.52165-0.19502-0.42308-0.16999-0.4573-0.14258-0.46085-0.28241-1.097-0.50371-2.2213 0.46758-0.18108 0.99767-0.4685 2.9085-1.4916 1.3371-0.6637 0.92415-0.42845 0.95929-0.4074 1.1045-0.41784 0.62401-0.21079 1.0558-0.31665 1.4599-0.35466 0.87884-0.15446 1.8905-0.2143 0.40275-0.06411 0.71486-0.16206 0.31483-0.097726 0.90396-0.39549 0.34521-0.1848 3.3236-1.9192 1.1264-0.71377 0.82166-0.56016 0.74178-0.5389 0.63842-0.50958 0.76535-0.69544 0.4972-0.53104 0.38382-0.48654 0.38302-0.60781 0.27281-0.56014 0.24098-0.58729 0.83889-2.1574 0.48374-1.1788 0.4217-0.93931 0.41573-0.8349 0.24382-0.44859 0.43925-0.73315 0.46567-0.69982 1.3137-1.8369 1.4347-1.7773 1.0566-1.3541 0.46763-0.55423 0.58392-0.62138 0.77182-0.74562 2.3374-1.9992 0.65327-0.5964 1.5248-1.6236 0.4105-0.4856 0.93251-1.2242 0.70571-0.82481 0.32429-0.31614 0.26902-0.21367 0.30248-0.1982 0.3842-0.2028 0.73169-0.27526 0.60012-0.12894 0.62169-0.053845 0.62051 0.0155 0.89132 0.11774 0.36326 0.077712 0.56697 0.16432 1.4656 0.58608 0.56792 0.16139 0.7528 0.13558 0.47934 0.056129 1.0165 0.072318 1.0677 0.021298 0.76705-0.021113 1.9931-0.11796 0.73837 0.009247 0.59426 0.079827 1.2149 0.25602 0.5233 0.08479 0.50858 0.036695 0.50671-0.005912 0.57483-0.058607 0.5478-0.13497 0.58339-0.27259 0.32544-0.21732 0.4113-0.36423 0.28479-0.3088 0.41961-0.52022 1.476-2.076 0.67032-0.88013 0.36281-0.42533 0.38256-0.40204 0.53917-0.48108 0.58446-0.41189 0.93354-0.45933 1.0386-0.34153 0.94234-0.22052 0.61002-0.11241 1.2195-0.16857 0.59992-0.053088 0.86398-0.023948 0.70465 0.044242 3.3425 0.39392 0.87449 0.15919 0.70496 0.2184 0.61083 0.25154 0.3463 0.17599 0.70368 0.41502 0.67716 0.43681 0.5544 0.42707 1.4281 1.1833 0.3993 0.29555 0.29764 0.19726 0.37385 0.21078 0.63005 0.27139 0.45865 0.1545 0.53704 0.15126 0.59133 0.13187 0.37164 0.060359 0.74719 0.043527 0.65416-0.089841 0.50831-0.25171 0.068463-0.062189 0.14286-0.17384 0.11125-0.19649 0.16041-0.47569 0.083945-0.44857 0.17134-1.3565 0.12843-0.66112 0.14893-0.59028 0.20491-0.58582 0.37456-0.73628 0.41387-0.63375 0.76429-1.0515 0.46884-0.68614 1.3948-2.157 0.46807-0.75865 0.38224-0.6682 0.76367-1.4811 0.51126-0.92418 0.54863-0.9167 0.57244-0.90515 0.71472-1.0645 0.46548-0.63009 0.40438-0.49653 0.42657-0.46772 0.61907-0.58503 2.1456-1.7717 0.51504-0.49669 0.44197-0.51604 0.34542-0.5403 0.2724-0.75418 0.042927-0.77045-0.092595-0.46592-0.18661-0.50537-0.17583-0.35774-0.22376-0.38778-0.67431-1.0202-0.43798-0.71859-0.2182-0.42368-0.3358-0.79209-0.30626-0.92201-0.17619-0.65159-0.30328-1.4449-0.48064-2.7328-0.23968-1.0239-0.16635-0.55756-0.33782-0.88339-0.24783-0.51543-0.28267-0.50261-0.43828-0.65523-0.58821-0.7053-0.43709-0.42804-0.7869-0.6669-0.60142-0.46657-3.6703-2.7429-0.486-0.37931-0.94633-0.79499-0.47783-0.45755-0.62832-0.74259-0.27299-0.42607-0.32409-0.65191-0.3135-0.88228-0.25672-1.068-0.58855-3.6255-0.19026-0.96538-0.18339-0.81724-0.75197-3.0521-0.28823-1.3438-0.085897-0.6497-0.026747-0.58616 0.048237-0.68865 0.093364-0.43802 0.28179-0.67624 0.1839-0.29048 0.31495-0.39624 0.51019-0.51376 0.61043-0.51383 0.483-0.36294 0.77643-0.54324 3.1142-2.0913 0.70857-0.49885 0.84186-0.64003 1.5629-1.2426 0.94944-0.67673 0.93215-0.56606 1.9571-1.0366 0.63883-0.3674 0.82406-0.54823 0.61634-0.47533 0.53574-0.46026 0.55758-0.52494 0.69213-0.71296 0.7769-0.84384 1.7427-2.0404 0.63269-0.69672 0.62018-0.58961 0.5896-0.48283 0.4916-0.34174 0.2208-0.11887 0.12751-0.021235 0.035007-0.052815 0.10009-0.026655 0.1641-1.2e-4 0.26537 0.032093 0.44824 0.093848 0.77721 0.23055 2.9445 1.0838 0.80112 0.2765 0.99455 0.30048 1.4378 0.3634 1.1005 0.23085 1.4388 0.23042 1.1259 0.11035 1.0702 0.046421 0.87572-0.052824 0.30886-0.043658 0.6843-0.14218 0.67566-0.18665 0.53665-0.1724 1.0608-0.39554 2.1062-0.87987 1.0406-0.4129 1.0284-0.34699 1.0124-0.24094 0.99152-0.088222 0.79994 0.068352 0.78025 0.16782 0.75855 0.2293 1.3735 0.45871 0.68124 0.16288 0.72952 0.075268 0.81826-0.0101 0.53362-0.029482 0.92641-0.099072 1.8809-0.27219 0.63088-0.061749 1.0032-0.029625 0.50049 0.015385 0.73564 0.061695 1.9879 0.32001 0.68489 0.079531 0.84415 0.06119 0.83474-0.005321 0.69272-0.038 0.69072-0.074336 0.67966-0.12653 0.69248-0.20232 0.37164-0.14151 0.55464-0.26747 0.41192-0.24202 0.58499-0.39763 0.64067-0.48312 1.2938-1.074 0.75286-0.69186 0.58078-0.59202 0.55281-0.62831 0.51826-0.65709 0.4758-0.67983 0.93604-1.4801 0.66108-0.97456 0.52822-0.73404 0.58408-0.75239 0.69084-0.76617 0.40367-0.39888 0.57728-0.51844 0.70543-0.56056 0.70758-0.4941 0.51399-0.32274 0.54063-0.30965 0.64048-0.33419 0.64332-0.30731 3.2008-1.426 1.1064-0.52831 1.0969-0.56221 2.1609-1.2009 2.1025-1.2785 1.0196-0.66522 0.99019-0.68394 0.95203-0.70569 0.90259-0.73213 1.3622-1.1843 1.1326-0.93799 1.0128-0.78943 1.1503-0.85395 6.4343-4.5678 3.1197-2.127 2.3673-1.5341 1.4857-0.88451 0.78854-0.4352 0.79844-0.4172 1.677-0.80834 1.8535-0.80332 1.4097-0.55982 1.6692-0.62866 2.7068-0.97882 1.5236-0.60642 0.97142-0.45335 2.8923-1.4683 1.6755-0.81312 2.3063-1.0447 2.5901-1.1257 0.86499-0.36037 1.7495-0.68226 1.4919-0.51171 0.73272-0.21463 0.97169-0.21691 0.41806-0.044602 0.32586 0.029578 0.052575 0.026022 0.035584 0.073181" stroke="#bdc660"/>
    </defs>
    <g clip-path="url(#pa8ce5d3fb4)">
     <use y="280.512" fill="#bdc660" stroke="#bdc660" xlink:href="#mfb53365684"/>
    </g>
   </g>
  </g>
 </g>
 <defs>
  <clipPath id="pa8ce5d3fb4">
   <rect x="7.2" y="7.2" width="300.35" height="266.11"/>
  </clipPath>
 </defs>
</svg>
