<?xml version="1.0" encoding="UTF-8"?>
<!DOCTYPE svg  PUBLIC '-//W3C//DTD SVG 1.1//EN'  'http://www.w3.org/Graphics/SVG/1.1/DTD/svg11.dtd'>
<svg width="160.83pt" height="280.51pt" version="1.1" viewBox="0 0 160.83 280.51" xmlns="http://www.w3.org/2000/svg" xmlns:xlink="http://www.w3.org/1999/xlink">
 <metadata>
  <rdf:RDF xmlns:cc="http://creativecommons.org/ns#" xmlns:dc="http://purl.org/dc/elements/1.1/" xmlns:rdf="http://www.w3.org/1999/02/22-rdf-syntax-ns#">
   <cc:Work>
    <dc:type rdf:resource="http://purl.org/dc/dcmitype/StillImage"/>
    <dc:date>2024-07-04T12:10:01.368270</dc:date>
    <dc:format>image/svg+xml</dc:format>
    <dc:creator>
     <cc:Agent>
      <dc:title>Matplotlib v3.7.1, https://matplotlib.org/</dc:title>
     </cc:Agent>
    </dc:creator>
   </cc:Work>
  </rdf:RDF>
 </metadata>
 <defs>
  <style type="text/css">*{stroke-linejoin: round; stroke-linecap: butt}</style>
 </defs>
 <g id="figure_1">
  <g id="patch_1">
   <path d="m0 280.51h160.83v-280.51h-160.83v280.51z" fill="none"/>
  </g>
  <g id="axes_1">
   <g id="PatchCollection_1">
    <defs>
     <path id="m6c0f1314f9" d="m93.575-189.95-0.036386 0.11505-0.013364 0.18627 0.028766 0.69309 0.087468 0.70378 0.15128 0.81699 0.16421 0.63075 0.2128 0.62137 0.32442 0.72822 0.21531 0.40743 0.32189 0.53258 0.53718 0.75971 0.70452 0.84654 0.80376 0.82464 1.3745 1.2311 0.64426 0.61939 0.58031 0.63847 0.57535 0.75213 0.81118 1.2152 0.57008 0.94632 0.36637 0.65756 0.55325 1.1691 0.23954 0.59054 0.24295 0.67637 0.34846 1.1752 0.42898 1.8533 0.24147 1.377 0.17061 1.5994 0.07949 1.6395 0.00898 1.0558-0.018002 0.76589-0.10066 1.1112-0.21928 1.6056-0.04346 0.71826 0.041723 0.63345 0.10287 0.46371 0.2032 0.52263 0.26506 0.39129 0.29164 0.29431 0.32216 0.24513 0.8046 0.47189 0.24922 0.17233 0.45563 0.38575 0.5257 0.52865 0.39374 0.48667 0.71623 0.9547 0.79571 0.98722 1.078 1.2174 1.1391 1.1581 0.41816 0.51045 0.21393 0.33204 0.28204 0.56723 0.12872 0.33285 0.14302 0.4787 0.079913 0.39829 0.060182 0.62563 0.042053 1.7518 0.034457 0.62239 0.034405 0.31867 0.085498 0.46896 0.10628 0.36289 0.1822 0.43467 0.2788 0.51015 0.36586 0.52243 0.65515 0.66277 0.79372 0.57595 0.88595 0.47699 0.62985 0.26534 1.0214 0.36971 0.74248 0.21404 0.73332 0.16318 0.55648 0.089262 0.71482 0.054834 0.78732-0.012127-0.17184 0.1856-0.018705 0.15851 0.042923 0.14169 0.26198 0.30456 0.4976 0.35403 1.6683 0.91306 1.1598 0.7041 1.9927 1.3259 1.7458 1.0879 0.84565 0.61718 2.0404 1.7094 0.84081 0.77701 1.6494 1.6058 2.0397 1.8261 0.67821 0.68244 0.87036 0.9697 0.63464 0.7838 0.59301 0.79768 1.5679 2.3248 0.50636 0.61282 0.41624 0.38248 0.32544 0.24204 0.31201 0.19782 0.7796 0.40544 0.39955 0.16072 0.2233 0.067558 0.88532 0.15671 0.41366 0.1136 0.31745 0.15163 0.2035 0.13403 0.32472 0.28679 0.27259 0.30881 0.35592 0.45447 0.42098 0.63902 0.25484 0.53574 0.11508 0.32133 0.16516 0.69811 0.053407 0.6977-0.052959 0.6287-0.15246 0.59377-0.30633 0.66379-0.30576 0.4911-0.38797 0.53111-0.53176 0.642-0.65964 0.71977-1.308 1.3003-0.65631 0.69099-0.5355 0.67335-0.73334 1.1145-0.36926 0.64429-0.48428 0.99594-0.40734 1.0227-0.32888 1.0253-0.12419 0.48003-0.13692 0.75604-0.052553 0.63239 0.004929 0.48836 0.050079 0.57258 0.12656 0.79124 0.24779 1.0402 0.21775 0.75464 0.88686 2.5587 0.41393 1.4047 0.15796 0.65643 0.11823 0.60514 0.119 0.9253 0.043311 0.61746 0.056821 2.4071 0.015273 2.298-0.10775 5.6959-0.034951 0.69129-0.07181 0.73607-0.08298 0.50485-0.20694 0.78432-0.23645 0.59091-0.18105 0.34728-0.18655 0.29887-0.27284 0.36448-0.22775 0.25722-0.29759 0.28909-0.36142 0.29542-0.50586 0.33542-0.53119 0.28279-0.3963 0.17766-0.62023 0.23602-0.48593 0.15764-0.7361 0.20226-0.76051 0.17292-0.92142 0.17295-1.5344 0.2353-3.3084 0.41947-0.67198 0.11588-0.71712 0.1681-0.35778 0.1098-0.53542 0.21393-0.49419 0.28223-0.63628 0.57433-0.34988 0.47118-0.24347 0.44035-0.19606 0.47506-0.1725 0.60837-0.11406 0.67323-0.06478 0.81325-0.01676 0.71227 0.02538 1.2595 0.068768 0.96957 0.11258 0.89613 0.093697 0.54568 0.5342 2.6157 0.33224 2.0895 0.22532 1.227 0.28241 1.1958 0.31682 1.073 0.95511 2.9044 0.48598 1.5727 1.3331 4.9112 0.44566 1.5099 0.66218 2.114 0.4119 1.3954 0.26698 0.98991 0.2493 1.0786 0.17013 0.91147 0.11635 0.86184 0.049367 0.68769 1.64e-4 0.67614-0.045853 0.44304-0.041136 0.17962-0.064505 0.15218-0.10081 0.066498-0.060149 0.025505-0.24141 0.25652-0.51792 0.73614-0.58161 1.0006-0.85942 1.6718-0.3458 0.5107-0.49573 0.5347-1.4997 1.3113-0.58659 0.60402-0.37908 0.50653-0.26621 0.43331-0.29794 0.55034-0.2582 0.57046-0.14017 0.40512-0.091864 0.35426-0.10247 0.65026-0.027239 0.75746 0.048012 0.81603 0.070335 0.52606 0.1197 0.54799 0.42485 1.3858 0.39193 1.6121 0.053871 0.33249-2.7e-4 0.40738-0.029976 0.13477-0.11565 0.25322-0.11345 0.14958-0.1396 0.1338-0.18958 0.13282-0.21154 0.10708-0.26568 0.092038-0.26261 0.05504-0.21759 0.019863-0.16623-0.005634-0.082051-0.02826-0.051093 3e-3 -0.20314 0.012102-0.10986-0.11896-0.075799-0.15406-0.086694-0.32593-0.060175-0.61678 0.038902-2.1603-0.007384-0.76154-0.052598-0.9413-0.11662-1.0679-0.16324-1.0238-0.19288-0.93771-0.25459-1.0067-0.30683-1.0096-0.45565-1.2374-0.39102-0.89369-0.92717-1.7939-0.38867-0.71639-0.53871-0.9168-0.45791-0.68129-0.64731-0.79804-0.71396-0.68303-2.3479-1.9759-0.65008-0.49045-0.59687-0.40014-0.62479-0.36489-0.6975-0.34259-0.727-0.28984-0.8574-0.26115-0.88508-0.1918-0.92767-0.12863-0.94442-0.068886-0.8059-0.017751-0.81199 0.013256-1.4419 0.088417-1.2334 0.14166-1.396 0.23195-1.8409 0.39093-1.6126 0.39584-2.8161 0.7308-1.1791 0.25161-0.59497 0.099893-0.86315 0.11125-2.3323 0.21433-0.93452 0.14258-0.39826 0.095415-0.56957 0.18871-0.55739 0.24752-0.56908 0.32152-0.45553 0.30948-0.32628 0.25036-0.42727 0.3658-0.33932 0.32338-1.3699 1.4852-0.91279 0.92746-0.4574 0.42003-0.8122 0.64912-0.4419 0.29668-0.37684 0.22186-0.66081 0.31099-0.48446 0.13022-0.29981 0.01779-0.18851-0.015186-0.33087-0.073476-0.34448-0.14927-0.33066-0.23216-0.33848-0.3518-0.1963-0.27049-0.3037-0.53045-0.91751-2.0701-0.27613-0.5016-0.23235-0.3489-0.38894-0.46731-0.36484-0.34241-0.4415-0.29516-0.17266-0.079948-0.34456-0.10741-0.35722-0.054185-0.62922 0.002842-0.59602 0.077256-0.62865 0.12793-0.80212 0.19986-2.3407 0.61224-1.29 0.26579-1.3046 0.17953-0.72378 0.060063-0.72888 0.032989-0.92023 0.003515-0.92192-0.036098-1.4633-0.13033-1.4676-0.19856-2.4392-0.37142-1.469-0.16756-0.76332-0.045317-0.8198-0.001182-1.094 0.087818-1.7589 0.21415-0.5912 0.029321-0.41276-0.009666-0.54868-0.053404-0.52487-0.094628-0.67095-0.18395-0.68188-0.26302-0.45758-0.22386-0.56705-0.34382-0.28341-0.20753-0.47873-0.41402-0.30334-0.30887-0.41445-0.49034-0.47941-0.6948-0.44504-0.8154-0.42248-0.9572-0.60716-1.5001-0.49402-1.0403-0.34662-0.59518-0.15379-0.22301-0.30937-0.38179-0.28979-0.28949-0.33942-0.26424-0.44168-0.24462-0.33158-0.12118-0.33715-0.074495-0.41661-0.030698-0.34161 0.02063-0.5015 0.09318-0.462 0.1384-0.48609 0.18771-0.58189 0.27225-0.45074 0.24385-0.97674 0.61567-2.2837 1.6179-0.92978 0.57899-0.89864 0.49259-3.1509 1.5743-1.6238 0.88832-3.1823 1.951-2.6493 1.7049-0.99931 0.55162-0.97881 0.43538-0.5783 0.2172-0.63326 0.21216-1.8004 0.52694-0.92505 0.31085-0.70113 0.28056-1.568 0.73001-2.0825 1.0884 0.44843-1.8288 0.5094-1.8264 0.92519-3.17 0.42546-1.6654 0.48128-2.3147 0.85206-4.7433 0.16655-0.80628 0.31871-1.3147 0.35803-1.1794 0.36189-0.98344 1.2946-3.0869 0.47261-1.2459 0.18267-0.58203 0.1465-0.58164 0.12885-0.85975 0.015524-0.4056-0.039943-0.61435-0.1201-0.65064-0.13794-0.503-0.16986-0.50234-0.22594-0.57321-0.63224-1.3544-1.8585-3.4525-0.50977-1.0124-0.39044-0.8514-0.30191-0.72191-0.33765-0.88463-0.69558-2.0724-0.77816-2.658-0.74506-2.8405-0.30723-1.2961-0.12382-0.64902 0.006815-0.049708 0.075544-0.019437 0.45151-2.19e-4 4.0381 0.10785 2.7435 0.033901 1.3605-0.012414 1.326-0.042393 1.2764-0.082489 1.2124-0.13546 1.133-0.20485 1.0353-0.29513 0.91529-0.4117 0.79899-0.55403 1.4235-1.2821 1.3782-1.1526 0.65535-0.61443 0.5775-0.66137 1.0877-1.3921 0.58036-0.65323 0.65223-0.57205 0.62792-0.39673 0.68645-0.32897 0.72326-0.27934 1.6632-0.55323 0.89789-0.32599 0.60849-0.26513 0.57174-0.30559 0.46625-0.31358 0.41761-0.36027 0.43403-0.5132 0.33976-0.58362 0.28462-0.79142 0.17057-0.8604 0.06399-0.5841 0.04307-1.0069-0.021409-2.8002 0.025584-2.0522-0.007271-1.1287-0.050645-0.98174-0.19148-2.5297-0.1093-2.7143-0.057727-0.7013-0.12462-0.80685-0.22346-0.90105-0.2701-0.83853-0.6694-1.8653-0.18482-0.58501-0.16632-0.73683-0.10767-0.77867-0.051346-0.76266-0.004172-0.78059 0.028228-0.59759 0.079534-0.79256 0.12603-0.7598 0.18051-0.75428 0.2363-0.73586 0.22807-0.56184 0.26525-0.5408 0.4057-0.67195 0.46973-0.61808 0.75379-0.7452 0.50148-0.37432 0.90667-0.51774 0.40557-0.18465 0.57607-0.22056 0.52334-0.16847 0.517-0.13853 1.0138-0.21562 2.0132-0.33544 0.81792-0.17751 0.73988-0.24089 0.63084-0.33964 0.24164-0.19631 0.19926-0.20485 0.42012-0.62843 0.31447-0.71568 0.48336-1.5083 0.22504-0.58014 0.26104-0.49774 0.31291-0.48306 0.33504-0.44243 0.37647-0.41645 0.52424-0.46549 1.6633-1.2065 0.5589-0.42614 0.39395-0.33393 0.43761-0.42102 0.39884-0.45046 0.26782-0.35741 0.21915-0.36406 0.25235-0.64651 0.083384-0.34368 0.058454-0.42619 0.026067-0.8172 0.038271-0.49988 0.11652-0.49694 0.089156-0.25376 0.43294-1.0075 0.64279-1.9196 0.33588-0.78795 0.20664-0.38122 0.24124-0.35986 0.25495-0.2998 0.31431-0.28282 0.40258-0.24832 0.32512-0.1157 0.26261-0.051149 1.0291-0.081701 1.2638-0.21022 0.75565-0.064566 0.63892 0.027583 0.36557 0.056481 0.2883 0.063739 1.0979 0.31782 0.59147 0.14663 0.37609 0.057461 0.53958 0.016338 0.42587-0.046808 0.34335-0.075711 0.37789-0.12346 0.35174-0.14689 0.37822-0.18693 0.35981-0.24282 0.26024-0.30737 0.052643-0.10696 0.061232-0.18686 0.041338-0.28209-0.008874-0.432-0.033254-0.28576-0.21578-1.3252-0.18589-1.3389-0.24701-2.6727-0.17544-1.0705-0.24261-0.9238-0.24624-0.67091-0.3763-0.77658-0.50377-0.80277-0.22717-0.30969-3.8455-4.7569-0.4679-0.54678-0.66064-0.62269-0.71622-0.546-1.7772-1.1955-0.4116-0.33382-0.47814-0.53061-0.43093-0.60344-0.28998-0.44917-0.31669-0.56631-0.80209-1.6259-1.0793-1.8241-0.47666-0.67681-0.28093-0.32036-0.62813-0.60768-1.8462-1.6449-2.4165-2.2734-0.45392-0.38957-0.47686-0.3592-0.95108-0.54915-1.0534-0.4499-1.1239-0.38005-1.167-0.33483-2.3639-0.6185-1.1463-0.32382-1.0837-0.36227-0.98464-0.42642-0.83975-0.52186-0.63668-0.65634-0.31032-0.59945-0.18294-0.68064-0.077-0.74414 0.02457-0.95911 0.13302-1.0083 0.13561-0.66324 0.17198-0.67227 0.23993-0.7813 0.2775-0.78653 0.39153-0.99464 0.89645-2.0268 2.7232-5.5926 0.5813-1.2416 0.47088-1.0837 0.41531-1.0721 0.33908-1.0557 0.23571-1.0331 0.09697-1.0025-0.087372-0.96159-0.34977-1.0014-0.56616-0.95332-0.72328-0.91852-0.83557-0.89375-0.91443-0.8765-0.96872-0.8648-1.0052-0.85714-3.1255-2.5505-8.4601-6.7812-2.0999-1.6645-2.0815-1.6044-1.0278-0.7608-1.0134-0.71769-0.7329-0.49102-1.1379-0.69626-1.5412-0.8529-0.50594-0.32574-1.2114-1.001-0.33429-0.21292-0.3305-0.16324-0.57617-0.22022-2.0515-0.61984-0.64044-0.2383-0.5346-0.23832-0.35484-0.18288-0.42382-0.25522-0.47406-0.35638-0.49553-0.50021-0.39158-0.61605-0.13421-0.50998 0.017461-0.32929 0.17092-0.49067 0.33535-0.53135 0.33515-0.40406 0.43643-0.43906 0.7615-0.64779 1.3998-1.0758 0.83946-0.69371 0.52187-0.48056 0.86701-0.90091 0.51221-0.61942 0.30235-0.41755 0.47491-0.75002 0.47863-0.91533 0.2866-0.81508 0.14832-0.82139-0.004778-0.80464-0.11141-0.57324-0.15152-0.45938-0.28748-0.68406-0.81709-1.682-0.15859-0.34338-0.1969-0.5089-0.13626-0.4815-0.12524-0.74976-0.03077-0.50415 0.006649-0.5047 0.059778-0.6993 0.1223-0.73655 0.19188-0.74199 0.33364-0.88067 0.43657-0.87574 0.55135-0.91136 0.63379-0.90105 0.64971-0.81903 0.70378-0.80125 0.53346-0.55882 0.55615-0.54265 0.68713-0.61672 0.71386-0.57792 0.90173-0.63719 0.78036-0.46847 0.42024-0.22237 0.6267-0.2959 0.78249-0.30859 0.50319-0.15828 0.39409-0.092417 0.28858 0.012351 0.082465-0.045162 0.40917-0.001038 0.85655 0.14517 1.0659 0.29547 1.153 0.42217 1.1552 0.53205 1.0945 0.63455 0.98274 0.73956 0.82393 0.85683 0.31816 0.44342 0.40409 0.69975 0.34937 0.74216 0.35839 0.8744 1.088 2.8395 0.53621 1.2897 0.77057 1.7477 0.38826 0.81561 0.31475 0.60546 0.73336 1.2618 0.42002 0.65409 0.65186 0.94374 0.68299 0.92325 3.3351 4.1848 2.7827 3.7511 4.2722 5.5978 0.65712 0.89364 1.4567 2.056 1.8286 2.6376 0.89596 1.1859 0.50499 0.60658 0.52575 0.58262 0.54792 0.56117 0.5618 0.53372 1.2201 1.0445 2.0277 1.6155 1.0762 0.91667 0.98147 0.92819 0.49762 0.52493 0.45992 0.53894 0.40172 0.54139 0.52553 0.89399 0.44109 0.9358 0.3265 0.78379 0.7473 2.0762 0.3589 0.91429 0.39306 0.86721 0.47203 0.92393 0.62857 1.0953 0.69168 1.0801 0.70962 0.98862 0.74368 0.91654 0.61412 0.6643 0.58525 0.56809 0.81818 0.70672 0.81225 0.61574 0.72518 0.4938 0.69014 0.43127 2.4594 1.4282 1.1989 0.73261 1.0727 0.73044 1.582 1.1833 1.577 1.3245 2.8379 2.543 1.3399 1.2472 0.93755 0.95366" stroke="#bdc660"/>
    </defs>
    <g clip-path="url(#p14d66c7b29)">
     <use y="280.512" fill="#bdc660" stroke="#bdc660" xlink:href="#m6c0f1314f9"/>
    </g>
   </g>
  </g>
 </g>
 <defs>
  <clipPath id="p14d66c7b29">
   <rect x="7.2" y="7.2" width="146.43" height="266.11"/>
  </clipPath>
 </defs>
</svg>
