<?xml version="1.0" encoding="UTF-8"?>
<!DOCTYPE svg  PUBLIC '-//W3C//DTD SVG 1.1//EN'  'http://www.w3.org/Graphics/SVG/1.1/DTD/svg11.dtd'>
<svg width="371.52pt" height="261.08pt" version="1.1" viewBox="0 0 371.52 261.08" xmlns="http://www.w3.org/2000/svg" xmlns:xlink="http://www.w3.org/1999/xlink">
 <metadata>
  <rdf:RDF xmlns:cc="http://creativecommons.org/ns#" xmlns:dc="http://purl.org/dc/elements/1.1/" xmlns:rdf="http://www.w3.org/1999/02/22-rdf-syntax-ns#">
   <cc:Work>
    <dc:type rdf:resource="http://purl.org/dc/dcmitype/StillImage"/>
    <dc:date>2024-07-04T12:09:52.784684</dc:date>
    <dc:format>image/svg+xml</dc:format>
    <dc:creator>
     <cc:Agent>
      <dc:title>Matplotlib v3.7.1, https://matplotlib.org/</dc:title>
     </cc:Agent>
    </dc:creator>
   </cc:Work>
  </rdf:RDF>
 </metadata>
 <defs>
  <style type="text/css">*{stroke-linejoin: round; stroke-linecap: butt}</style>
 </defs>
 <g id="figure_1">
  <g id="patch_1">
   <path d="m0 261.08h371.52v-261.08h-371.52v261.08z" fill="none"/>
  </g>
  <g id="axes_1">
   <g id="PatchCollection_1">
    <defs>
     <path id="me67a970140" d="m251.93-239.1 0.075975-0.10164 0.37896-0.14375 0.88318-0.12361 0.9229-0.010037 2.9117 0.11156 1.2791-0.006902 1.9619-0.11994 1.9735-0.21766 1.6109-0.23358 1.2863-0.23951 1.7752-0.43884 3.8592-1.0681 2.4887-0.53704 1.0744-0.17605 1.1403-0.11817 0.64074-0.02015 0.67392 0.022911 0.98935 0.1283 0.89921 0.21283 1.2217 0.39641 1.2312 0.46331 1.7363 0.71796 4.0119 1.8149 2.7624 1.3397 2.2753 1.1604 1.2545 0.65791 1.1811 0.68485 1.1999 0.79256 2.6636 1.9567 1.3379 0.91311 1.3874 0.78106 1.0583 0.4706 0.87517 0.32585 1.0331 0.32 0.74073 0.19045 1.402 0.27309 1.863 0.18404 1.0374 0.016198 1.042-0.035103 1.2367-0.095805 1.0299-0.12539 6.4049-1.1035 4.7109-0.64116 2.0495-0.37092 1.9232-0.40573 2.4917-0.66183 2.656-0.8334 5.0749-1.7621 5.8128-2.1362 1.4017-0.41535 0.86926-0.16835 0.51654-0.024596 0.35374 0.041506 0.20241 0.058782 0.26844 0.13919 0.55931 0.74775 0.24092 0.7884 0.14346 0.95598 0.06789 1.0898 0.007264 1.3885-0.050902 1.4954-0.22798 3.2558-0.33933 3.4809-1.0249 9.3718-0.98481 10.899-0.35509 3.4824-0.3793 3.0091-0.21092 1.3713-0.4465 2.3285-0.50518 1.9383-0.65342 1.8318-0.60925 1.268-0.74563 1.1674-1.0407 1.1883-1.2118 1.0626-1.342 0.96737-1.2978 0.81293-1.3582 0.76992-1.4029 0.73914-1.6399 0.81911-6.86 3.2925-1.8063 0.90851-1.5519 0.83027-1.5182 0.87735-1.3994 0.88832-1.097 0.76708-1.008 0.76907-1.5752 1.3197-1.9618 1.8191-1.1081 1.0984-2.1355 2.2607-1.1457 1.3206-0.94937 1.2125-0.89707 1.2582-0.8523 1.2961-0.87668 1.4327-1.6661 2.9384-2.4115 4.5138-3.0459 5.9069-1.4642 2.9139-0.74954 1.5745-0.70251 1.5893-0.73184 1.8769-0.42646 1.2828-0.37956 1.2984-0.60113 2.3986-1.6575 7.6282-0.52736 2.0593-0.73225 2.3731-0.47497 1.2621-0.69966 1.542-0.59851 1.1082-1.9269 3.2258-0.73165 1.5752-0.57469 1.669-0.41095 1.7402-0.22944 1.7928-0.042571 1.6018 0.078487 1.813 0.10135 1.2358 0.46434 4.4023 0.11137 1.3927 0.059175 1.3757-0.004902 1.1181-0.068915 1.0975-0.069545 0.58153-0.2787 1.4204-0.38444 1.3882-0.85934 2.7411-0.98186 3.443-0.64082 1.6639-0.36886 0.73121-0.77254 1.2888-1.6156 2.2934-2.349 3.0851-1.237 1.6903-1.4004 2.0535-1.0993 1.7484-2.7765 4.8836-2.6563 4.5348-1.3855 2.6267-2.9861 6.2798-0.6031 1.3966-0.54125 1.4046-0.36171 1.1003-0.21076 0.76054-0.22909 1.0507-0.15367 1.1248-0.044786 0.7939 0.006227 0.74323 0.092204 1.139 0.090928 0.24876-0.053461-0.049286-0.26941-0.094119-0.41496-0.10537-3.0768-0.59933-1.8617-0.45303-4.2682-1.3439-4.6576-1.3866-1.5501-0.49366-1.8842-0.69318-1.3933-0.57631-1.9354-0.88022-2.8791-1.4333-0.60542-0.23217-0.3789-0.09515-0.56402-0.02097-0.50534 0.15446-0.23103 0.15554-0.21052 0.20558-0.26999 0.37597-0.37153 0.80135-0.24848 0.83772-0.65453 2.9091-0.45505 1.4887-0.52073 1.3266-1.8481 4.0522-0.57343 1.5098-0.29549 0.95372-0.28283 1.1335-0.2343 1.2044-0.16066 1.0486-0.21569 2.015-0.052324 1.5274 0.031618 1.6498 0.19097 1.7 0.34021 1.7409 0.40003 1.4576 0.43434 1.2009 0.72907 1.7499-5.9529-0.72198-2.0276-0.17775-2.0968-0.091507-1.348-0.015049-3.9291 0.054587-1.4352-0.017284-1.6007-0.1229-1.7732-0.26888-1.3993-0.31417-1.5378-0.45766-1.6075-0.59949-2.2183-1.0018-2.1139-1.1023-1.6174-0.92074-2.643-1.6281-2.4276-1.62-1.6455-1.1868-1.6228-1.2426-1.4884-1.1998-1.5432-1.3006-1.9439-1.7351-1.9116-1.8468-0.71932-0.77513-0.64344-0.76654-0.85568-1.1753-0.74606-1.226-0.63951-1.2453-2.0124-4.5622-0.47198-0.93917-0.52744-0.9066-0.26632-0.39054-0.43269-0.5389-0.31081-0.31496-0.58462-0.42847-0.4514-0.18128-0.53535-0.055964-0.56435 0.08108-0.70951 0.24657-0.66961 0.34043-1.026 0.66119-2.5915 1.8474-1.2809 0.81154-1.2009 0.63967-1.3456 0.562-0.6357 0.2009-0.65528 0.15329-1.1229 0.12807-1.2691-0.028579-1.4376-0.22167-1.1656-0.31116-0.75836-0.26116-0.74425-0.29877-1.0779-0.493-0.93198-0.4785-1.2544-0.7161-2.884-1.8326-1.3495-0.95109-1.1016-0.86064-1.3432-1.1844-1.5719-1.481-0.80687-0.71375-1.0718-0.87518-2.0623-1.5643-0.72386-0.4744-1.0383-0.59402-0.79989-0.37834-0.9327-0.34073-0.83361-0.20477-0.82383-0.12301-1.8316-0.10314-4.1907-0.033985-1.0381 0.046816-1.2098 0.1289-1.7064 0.32287-0.75929 0.20216-1.7914 0.63512-0.82844 0.35816-1.172 0.58832-0.63288 0.36697-1.0909 0.73399-1.6811 1.3636-1.3869 1.3057-3.2315 3.3846-0.31018 0.25987-0.12084-0.27413-0.23777-0.40189-2.9567-4.5672-0.9591-1.6335-0.77898-1.4427-1.7039-3.4964-2.5389-5.6551-1.2809-2.7119-0.60871-1.1803-0.80312-1.4282-0.46406-0.75946-0.79798-1.1889-1.1681-1.5731-1.0929-1.3201-2.6286-3.0186-0.95719-0.99325-0.49682-0.45702-0.67759-0.54951-1.0408-0.68134-0.93302-0.46273-1.8077-0.7466-0.36678-0.1772-0.56831-0.35262-0.34257-0.30971-0.26111-0.32834-0.20302-0.33497-0.19698-0.43325-0.16694-0.57392-0.055039-0.47967 0.14024-1.055 0.36001-1.0688 0.41386-1.0389 0.30774-0.96374 0.037102-0.83947-0.15667-0.40461-0.44217-0.54039-1.1711-1.1025-0.49202-0.73437-0.12769-0.3156-0.137-0.55235-0.062468-0.54982-0.009234-0.67935 0.11274-1.3491 0.33771-2.0156 0.97626-4.3111 0.22976-1.2021 0.19735-1.4591 0.28528-2.8231 0.039689-0.77122-0.023319-0.97621-0.14796-0.91456-0.26452-0.66743-0.339-0.44868-0.49116-0.39483-0.54917-0.28498-0.53639-0.18781-1.5306-0.39024-0.37633-0.15668-0.82852-0.50344-0.55342-0.42371-1.0312-0.87384-3.612-3.25-1.6767-1.4257-1.4982-1.1665-1.6791-1.229-1.3694-0.94944-1.357-0.88185-2.7082-1.5748-2.532-1.2997-1.9213-0.84354-0.66083-0.23545-0.68606-0.19403-0.5279-0.10013-0.40332-0.036709-1.011 0.16019-0.67032 0.45399-0.59539 0.72433-0.55907 0.96775-0.47438 1.01-1.368 3.1895-0.89396 1.8482-0.54863 0.9783-0.57608 0.87047-0.59902 0.70909-0.51254 0.42795-0.5309 0.25111-0.76895 0.020799-0.80262-0.28918-0.83186-0.51118-0.52102-0.39694-0.94791-0.91911-0.90797-1.1545-0.42961-0.66112-0.72596-1.2653-1.1431-2.2488-1.5877-3.3921-0.89142-1.8182-0.85947-1.5807-0.81716-1.3419-0.82111-1.2067-1.345-1.7665-1.6468-2.0287-1.9116-2.1954-1.68-1.7155-1.7065-1.5389-1.8028-1.441-1.2557-0.89009-0.81191-0.51901-1.1384-0.65026-1.0794-0.54816-1.042-0.48067-2.6556-1.123-0.46124-0.24532-0.090595-0.093996 0.074397-0.048744 2.3839-1.6415 2.2443-1.3672 6.4634-3.3381 1.0766-0.62765 2.5259-1.5804 1.0126-0.58502 1.1724-0.61565 1.7449-0.81832 1.6077-0.66246 1.3078-0.41989 1.9428-0.44661 1.3158-0.36398 0.79229-0.32063 0.5376-0.28562 0.58704-0.38189 0.817-0.62466 4.9881-4.0785 2.7382-2.2979 1.0862-0.96544 0.55768-0.5514 0.63466-0.7626 0.098093-0.22612-1.1982-1.9683-1.2787-2.3669-0.50714-1.0654-0.47175-1.0979-0.52956-1.434-0.41506-1.4391-0.33229-2.028-0.026886-0.9238 0.12955-1.3995 0.17334-0.89678 0.22953-0.86252 0.45868-1.289 0.5553-1.2146 0.88782-1.5992 1.9582-3.0902 0.53899-0.9084 0.87066-1.6966 0.55656-1.3185 0.3405-0.97986 0.70948-2.3742 0.31718-0.76738 0.34171-0.66559 0.64864-1.0113 0.80291-0.96721 0.66608-0.62014 0.45812-0.31984 0.49982-0.21217 0.32672-0.052895 0.39811 0.023912 0.67906 0.20913 0.99231 0.55224 0.75159 0.53632 3.5092 2.8659 0.81222 0.57659 0.50619 0.31924 0.85938 0.46959 1.4179 0.59066 2.3265 0.80913 1.1847 0.37129 1.1864 0.25038 0.85808 0.072205 2.6807-0.005858 0.78629 0.058091 0.66633 0.1059 1.0458 0.2672 0.73896 0.2579 0.75432 0.32941 0.79949 0.42931 1.0818 0.69666 1.0397 0.76225 1.8792 1.5042 0.77701 0.58096 1.416 0.81928 0.57864 0.44794 0.38889 0.52298 0.22 0.54624 0.11353 0.7638-0.003756 0.71004-0.071811 0.77054-0.1725 1.0973-0.57645 2.9079-0.26261 1.6711-0.064404 0.76716-0.010909 0.63524 0.04442 0.66508 0.16984 0.89918 0.3975 1.2237 0.86668 2.0319 1.0176 2.5881 0.40128 1.2312 1.25 4.2785 0.19234 0.73357 0.31318 1.5669 0.68051 4.8879 0.31544 1.5966 0.45548 1.5293 0.23307 0.58174 0.4358 0.91222 0.84884 1.4502 0.4809 0.71414 0.55234 0.73584 0.61662 0.71413 0.4667 0.4693 0.56273 0.49606 0.84943 0.64596 1.8866 1.2503 1.4108 0.87809 1.7084 0.99026 1.6522 0.89529 1.2895 0.59075 0.76922 0.31437 2.4226 0.86468 5.043 1.6337 4.6827 1.6562 1.6235 0.48172 0.84529 0.1687 0.80267 0.072594 0.46721-0.011253 0.94895-0.16426 0.93969-0.29413 2.0664-0.77234 1.0708-0.44394 0.6791-0.30422 1.1709-0.61167 1.1592-0.71889 1.118-0.80925 1.0448-0.88821 0.46498-0.44819 1.097-1.1702 0.95232-1.2347 1.8796-3.157 1.3091-1.9665 0.74486-0.93577 1.7678-1.8994 1.1134-1.3421 0.62505-0.68305 0.87682-0.78672 0.98948-0.72847 1.0743-0.66019 0.50368-0.26911 1.0188-0.45396 0.66668-0.23729 0.80137-0.22916 1.3829-0.27226 1.7433-0.15702 0.63592-0.016561 2.0683 0.039445 7.3365 0.36935 2.2382 0.15102 1.6174 0.06126 0.78502-0.026344 1.013-0.14272 0.70546-0.2282 0.3496-0.17653 0.24579-0.15381 0.55319-0.44785 0.61566-0.69926 0.81572-1.2023 0.49145-0.87374 0.59668-1.2393 1.0873-2.5647 0.58313-1.2679 3.3359-6.1457 0.792-1.5359 0.80221-1.6459 0.40956-0.92655 0.87427-2.1752 0.41873-0.81708 0.43745-0.50097 0.40322-0.23918 0.42467-0.12292 1.1396-0.1258 0.43691-0.15065 0.32446-0.27736 0.16019-0.23356 0.13409-0.29241 0.10331-0.66254-0.13422-0.80704-0.47584-0.98236-0.75414-1.061-0.94688-1.1174-3.301-3.5338-1.0445-1.2016-0.57919-0.74158-0.69737-1.0813-0.45106-0.94256-0.15326-0.4346-0.16081-0.69973-0.044734-0.70101 0.058938-0.69861 0.14653-0.70597 0.19118-0.65936 0.38333-1.1006 1.4918-3.8611 0.55383-1.7043 1.5325-5.232 0.59298-1.6368 0.5783-1.2716 0.65029-1.1426 0.71741-0.97658 0.78349-0.76414 0.56618-0.3657 0.60405-0.22091 0.77099-0.05371 0.82412 0.14404 1.3414 0.52265 1.4144 0.79948 1.4632 0.99611 1.381 1.0417 1.394 1.1125 4.1506 3.3987 1.3335 1.0352 1.3944 0.99304 1.3112 0.7865 1.1962 0.49388 1.0399 0.09267 0.42971-0.1322 0.15361-0.082063 0.30923-0.23143 0.34324-0.38297 0.32529-0.53835 0.15182-0.34162 0.23286-0.74004 0.13428-0.76146 0.05996-0.75934 0.11523-5.8988 0.058586-0.99844 0.11911-0.66909 0.15575-0.45563 0.20427-0.34303 0.2315-0.22143 0.35154-0.16459 0.32279-0.05238 1.3175 0.021943 1.6235-0.12295 0.99165-0.003303 1.0145 0.16 2.0626 0.57057 1.4536 0.26462 1.0325 0.10204 2.0583 0.12497 1.4192-0.004504 1.5736-0.14916 1.0743-0.20307 0.95193-0.31407 0.38866-0.16563 0.90265-0.49256 1.3031-0.94119 0.68525-0.56376 0.63376-0.62287 0.52745-0.67 0.57694-0.9035 0.33231-0.5854 1.4547-2.744 1.3444-2.1564 0.69601-1.2112 1.6797-3.1005 0.65396-1.2849 1.074-2.6369 0.20361-0.32945 0.22985-0.23529 0.38376-0.19248 0.46398-0.043087 0.60368 0.12836 0.75328 0.3644 0.40466 0.27113 0.71328 0.58397 1.7739 1.8017 0.42586 0.35974 0.19083 0.088903 0.094732-0.032216" stroke="#bdc660"/>
    </defs>
    <g clip-path="url(#p9798eef3dd)">
     <use y="261.075868" fill="#bdc660" stroke="#bdc660" xlink:href="#me67a970140"/>
    </g>
   </g>
  </g>
 </g>
 <defs>
  <clipPath id="p9798eef3dd">
   <rect x="7.2" y="7.2" width="357.12" height="246.68"/>
  </clipPath>
 </defs>
</svg>
