<?xml version="1.0" encoding="UTF-8"?>
<!DOCTYPE svg  PUBLIC '-//W3C//DTD SVG 1.1//EN'  'http://www.w3.org/Graphics/SVG/1.1/DTD/svg11.dtd'>
<svg width="318.21pt" height="280.51pt" version="1.1" viewBox="0 0 318.21 280.51" xmlns="http://www.w3.org/2000/svg" xmlns:xlink="http://www.w3.org/1999/xlink">
 <metadata>
  <rdf:RDF xmlns:cc="http://creativecommons.org/ns#" xmlns:dc="http://purl.org/dc/elements/1.1/" xmlns:rdf="http://www.w3.org/1999/02/22-rdf-syntax-ns#">
   <cc:Work>
    <dc:type rdf:resource="http://purl.org/dc/dcmitype/StillImage"/>
    <dc:date>2024-07-04T12:09:49.680910</dc:date>
    <dc:format>image/svg+xml</dc:format>
    <dc:creator>
     <cc:Agent>
      <dc:title>Matplotlib v3.7.1, https://matplotlib.org/</dc:title>
     </cc:Agent>
    </dc:creator>
   </cc:Work>
  </rdf:RDF>
 </metadata>
 <defs>
  <style type="text/css">*{stroke-linejoin: round; stroke-linecap: butt}</style>
 </defs>
 <g id="figure_1">
  <g id="patch_1">
   <path d="m0 280.51h318.21v-280.51h-318.21v280.51z" fill="none"/>
  </g>
  <g id="axes_1">
   <g id="PatchCollection_1">
    <defs>
     <path id="m3e831db4da" d="m297.2-164.21-0.14449 0.097834-0.50177 0.56958-1.0249 1.3642-1.3242 2.0336-1.0778 1.9618-0.77207 1.7116-0.43946 1.1564-0.37263 1.1546-0.36371 1.3775-0.22477 1.0647-0.30864 2.0238-0.13787 1.4212-0.11785 2.502 0.004068 2.2057 0.081574 1.8404 0.10738 1.3768 0.24311 1.8993 0.4126 2.6783 0.088058 0.87269 0.067563 1.7824-0.074178 1.6596-0.29408 4.1118-0.11176 0.89537-0.22864 1.2057-0.22278 0.87468-0.37205 1.0843-0.18768 0.42535-0.71652 1.2483-0.62538 0.8233-0.65714 0.72056-0.71982 0.68523-1.4107 1.1678-1.159 0.84957-1.716 1.0955-1.752 0.98405-1.2163 0.63215-5.1182 2.5115-1.4354 0.80348-1.0665 0.66846-2.6885 1.9002-7.744 5.7895-1.6876 1.2283-2.8543 1.9815-1.9527 1.2955-3.3701 2.1245-9.054 5.3601-1.4519 0.9696-0.13105 0.16618-2.4419 3.102-2.1797 2.989-2.4511 3.6028-1.7332 2.7607-1.3568 2.3604-1.0307 1.9219-1.0892 2.1514-1.0296 2.1755-0.81175 1.8949-0.51703 1.3739-0.39609 1.2467-0.23855 0.93549-0.19009 0.97295-0.13088 0.95342-0.088942 1.473 0.11891 2.0718 0.34028 2.2391 0.77419 3.9158 0.67364 3.0218 1.0205 4.2354 0.37142 2.4346 0.10926 1.614 0.009949 1.5979-0.18676 4.0907 0.004461 0.93753 0.149 2.8404 0.009555 2.0416-0.1191 1.292-0.15875 0.90258-0.2049 0.88191-0.43517 1.4741-0.41203 0.98257-0.58176 0.95555-0.54057 0.62389-0.49538 0.44781-0.43021 0.32487-0.4988 0.3225-0.7297 0.39298-1.3466 0.53597-0.6247 0.175-1.0113 0.18978-0.733 0.074448-0.74995 0.023207-0.75096-0.029996-0.82024-0.092038-1.1781-0.24017-0.81984-0.24185-0.96438-0.36896-0.89607-0.43847-0.46167-0.26965-0.92517-0.6445-2.1723-1.8204-1.1211-0.82734-0.48231-0.28004-0.50131-0.21518-0.38422-0.10699-0.36136-0.053665-0.46551-0.004298-0.68194 0.10614-0.82543 0.26129-1.956 0.85446-0.95026 0.38164-0.79127 0.25167-0.8504 0.19216-1.3616 0.12127-0.83345-0.079899-1.3878-0.40968-1.5337-0.81556-0.91988-0.6546-1.2561-1.0132-4.2252-3.7228-1.8572-1.5561-3.1595-2.5214-3.1027-2.3342-2.005-1.4433-1.7436-1.1717-1.9789-1.2565-3.1669-1.8823-2.6679-1.6944-2.3982-1.6513-2.4449-1.8393-2.3512-1.9748-8.9043-7.8565-2.6529-2.369-2.3949-2.2374-0.71814-0.58561-0.38049-0.253-0.96161-0.46572-2.1003-0.69758-2.9459-0.76579-0.98946-0.30428-1.6628-0.63782-1.198-0.54605-1.4673-0.81759-1.4403-0.90166-5.4639-3.6341-2.4143-1.3818-3.611-2.2252-0.90814-0.50871-1.2037-0.57303-1.2154-0.44334-1.4538-0.35222-1.1374-0.19526-1.1332-0.1029-1.2721 0.028444-1.1273 0.12227-0.94088 0.1928-1.5402 0.54335-2.9342 1.3512-1.2753 0.43234-1.335 0.18462-1.4416-0.16198-1.4854-0.46441-1.0926-0.47865-1.0968-0.56862-1.2958-0.75779-5.1385-3.2127-1.3473-0.89502-1.2243-1.0173-2.3403-2.0949-1.2747-0.85645-1.4263-0.61335-1.7553-0.51252-5.5033-1.4664-6.0943-1.5177-1.6388-0.34144-1.6353-0.22747-1.1249-0.070847-1.8992 0.011653-1.8707 0.24413-1.0121 0.26796-1.0601 0.38128-1.0349 0.46822-0.73324 0.38988-1.2875 0.80069-1.4626 1.0758-3.29 2.7533-0.82952 0.60647-0.8117 0.48823-0.54932 0.2513-0.53739 0.1618-0.868-0.012656-0.53769-0.36372-0.26759-0.40331-0.32974-0.8236-0.76451-3.2885-0.24865-0.65059-0.36292-0.58048-0.46536-0.39557-0.4321-0.157-0.47073-0.02465-0.74802 0.17913-2.3443 0.96678-0.96149 0.26923-0.79419 0.089506-0.6263-0.054252-0.54216-0.17747-0.27529-0.15855-0.33196-0.28971-0.30892-0.44099-0.20387-0.48257-0.14308-0.52341-0.61731-2.9361-0.19514-1.1826-0.019058-0.99024 0.10675-1.0327 0.2257-1.0368 0.2547-0.80005 1.1815-2.986 0.16828-0.52396 0.5241-2.0316 0.52849-1.8445 0.22652-1.1155 0.085595-1.014-0.029415-1.0432-0.16922-1.2308-0.36368-1.6634-0.49686-1.8475-0.52583-1.4371-0.6276-1.2234-0.78766-1.2073-0.70864-0.91802-0.78765-0.89505-0.88583-0.88622-0.96079-0.84435-1.2299-0.92931-1.3331-0.83337-1.1777-0.604-1.2353-0.53828-1.7349-0.64894-7.644-2.4626-0.99858-0.38439-0.686-0.32672-0.23619-0.28403 0.056086 0.009694 0.18634-0.16558 0.204-0.35 0.28665-0.7206 0.30486-1.0232 0.83796-3.2784 0.6788-2.0607 0.30254-0.71761 0.54145-1.1025 1.3754-2.4441 0.68106-1.0571 1.0601-1.3875 1.0397-1.1775 2.6662-2.7669 1.2373-1.3479 0.50358-0.60139 0.71245-1.0287 0.19966-0.42824 0.079164-0.2747 0.02689-0.37414-0.047638-0.245-0.15261-0.27144-0.39274-0.25644-1.2913-0.4131-0.36532-0.15394-0.27338-0.1808-0.1334-0.21401 0.06461-0.29228 0.25849-0.3311 0.39835-0.35644 0.49139-0.3695 1.9817-1.3267 0.31811-0.28809 0.26158-0.35962 0.25155-0.61674 0.16103-0.74093 0.28273-2.5862 0.13845-0.83676 0.21132-0.72759 0.24188-0.47845 0.25848-0.29805 0.23033-0.047376 0.092536 0.27591 0.44443 0.21091 0.95437 0.12772 1.2648-0.00891 4.469-0.30264 1.8183-0.034096 1.0001 0.056731 0.97696 0.12414 1.3216 0.28396 2.2135 0.63378 1.2597 0.31215 1.2812 0.19441 1.3889 0.026575 1.4094-0.10527 3.2825-0.3876 1.8589-0.38664 1.1254-0.38663 0.96462-0.4257 1.8006-0.95764 3.1983-1.8953 1.4177-0.78926 1.6446-0.77969 0.96639-0.36845 1.3258-0.39836 1.7734-0.39987 1.9119-0.22535 1.403 0.010304 1.4588 0.21067 4.0201 0.91038 7.7299 1.329 2.6525 0.38434 2.3047 0.19746 2.4205 0.036994 0.98664-0.059964 0.98318-0.121 0.79457-0.1504 0.98268-0.27726 0.89653-0.37195 0.98501-0.56452 1.2374-1.068 1.034-1.3109 0.83472-1.4765 0.62608-1.5769 0.29889-1.0649 0.30473-1.3681 0.48829-2.8803 0.51655-3.7982 0.26364-1.6536 0.3906-1.6062 0.39263-1.1332 0.496-1.1951 0.53902-1.0459 0.41824-0.65496 0.89927-1.0954 1.0338-0.84393 0.93099-0.45828 0.98212-0.29954 0.66964-0.13586 0.59374-0.069433 0.85471 0.001567 0.72179 0.097278 2.5851 0.68007 0.65639 0.13692 1.2139 0.10247 1.1476-0.12876 0.97645-0.40211 0.46437-0.3941 0.23401-0.29463 0.42532-0.84482 0.24541-0.99356 0.12682-0.91141 0.060449-0.96888-0.027384-0.92765-0.14583-0.97917-0.23709-0.94441-0.25958-0.79787-0.76156-1.8457-0.94763-1.8482-1.3673-2.3052-1.8463-2.8096-0.68939-1.2108-0.46011-1.0226-0.27823-0.82588-0.19419-0.78491-0.20791-1.3676 0.009786-1.3328 0.25083-1.18 0.36564-1.0127 1.1852-2.9437 0.32643-1.0318 0.41373-1.8684 0.28422-1.9914 0.10929-1.0413 0.14057-2.4721 0.22268-6.1063 0.15713-2.0418 0.34301-2.8753 0.42173-2.5073 0.24368-1.0927 0.33294-1.1875 0.48873-1.2901 0.57065-1.0655 0.76365-0.99743 0.78573-0.75739 0.7411-0.56012 0.87186-0.51222 0.98842-0.39652 0.90196-0.15737 0.91545 0.13294 0.75123 0.44834 0.67595 0.72704 0.82688 1.3993 0.56058 1.3589 0.31738 0.95574 0.83866 2.9046 0.4711 1.4333 0.42572 1.1089 0.51056 1.1455 0.57232 1.1083 0.55944 0.94635 0.46504 0.69806 0.69529 0.90074 0.79904 0.83043 0.88938 0.71182 0.92889 0.56158 1.3862 0.55808 0.87585 0.18041 0.80373 0.019887 0.57225-0.10086 0.50926-0.18077 1.753-1.0086 0.52016-0.20982 2.4062-0.61068 0.49936-0.19757 0.66762-0.43231 0.59045-0.57696 0.60825-0.88614 0.3877-0.74912 0.67858-1.6455 1.1719-3.3665 0.82015-2.1009 0.76963-1.7355 0.67586-1.3599 0.74151-1.2646 0.84323-1.1617 1.8535-2.3102 0.58025-0.85588 0.80568-1.5275 0.64443-1.5912 1.1398-3.5003 0.59672-1.6727 0.63344-1.4403 0.67849-1.1349 0.81804-0.80835 0.50187-0.21222 0.524-0.03749 0.84841 0.29301 0.98908 0.79997 0.51221 0.59405 0.4765 0.67425 0.40108 0.68064 1.3136 2.743 0.79839 1.5385 3.7604 6.6662 1.2592 2.4792 0.63821 1.4051 1.0586 2.5895 0.59538 1.9736 0.23319 1.1094 0.18067 1.8272-0.022969 1.9111-0.1894 1.9655-0.3293 1.9928-0.452 1.9939-0.5658 1.968-0.55429 1.5921-0.63309 1.5355-0.7164 1.4575-0.84235 1.4409-1.6038 2.5176-0.65673 1.1123-0.43503 0.84155-0.33563 0.80366-0.25867 1.1202 0.16864 1.1949 0.66084 0.89083 0.4644 0.27706 1.096 0.28375 1.2759-0.013733 1.2804-0.2783 1.2719-0.54525 1.4469-0.99768 1.8352-1.5632 3.8016-3.0967 1.2391-1.1051 2.6112-2.6047 0.96571-0.87089 1.6183-1.3417 1.1999-0.90993 0.77291-0.54304 0.9384-0.57456 0.91401-0.44524 1.3536-0.42349 1.0941-0.14454 0.42703-0.007839 4.8565 0.40183 0.84115 0.13725 1.0508 0.28381 4.6986 1.6784 1.5829 0.65957 3.424 1.8307 1.1457 0.54043 1.2459 0.53992 0.82448 0.30895 1.419 0.37611 1.3713 0.084447 1.3598-0.28719 1.3084-0.54194 1.5378-0.75078 1.192-0.496 1.1985-0.27258 0.86504 0.007487 0.85436 0.16911 1.2857 0.50195 1.1242 0.54393 1.1797 0.62351 2.338 1.3674 1.1872 0.64792 1.6205 0.68322 1.5149 0.51299 4.2165 1.2993 3.0867 1.0489 0.97184 0.24232 1.5563 0.29394 1.1541 0.16655 1.9194 0.21099 4.7247 0.41482 1.0594 0.14747 1.6048 0.3542 1.6462 0.65328 1.4709 1.0065 1.3038 1.3059 0.76892 0.97308 0.71912 1.0509 0.77048 1.273 0.72714 1.3329 1.3269 2.7463 0.84421 1.9984 0.74768 2.0068 0.64155 2.0494 0.3233 1.3196 0.26053 1.6812 0.084844 1.044 0.15292 3.4616 0.1351 1.4672 0.20362 1.2036 0.2668 1.1365 0.28888 0.89684 0.54338 1.1754 0.85063 1.2276 0.92613 1.0045 1.2911 1.1374 1.4049 1.0565 1.2529 0.84983 4.1693 2.6168 1.7816 1.2106 1.7841 1.3764 1.1366 0.99121 0.90486 0.85777 3.4122 3.3648 1.3649 1.3833 1.0224 1.1038 0.36225 0.51076" stroke="#bdc660"/>
    </defs>
    <g clip-path="url(#p8e160465f4)">
     <use y="280.512" fill="#bdc660" stroke="#bdc660" xlink:href="#m3e831db4da"/>
    </g>
   </g>
  </g>
 </g>
 <defs>
  <clipPath id="p8e160465f4">
   <rect x="7.2" y="7.2" width="303.81" height="266.11"/>
  </clipPath>
 </defs>
</svg>
