<?xml version="1.0" encoding="UTF-8"?>
<!DOCTYPE svg  PUBLIC '-//W3C//DTD SVG 1.1//EN'  'http://www.w3.org/Graphics/SVG/1.1/DTD/svg11.dtd'>
<svg width="255.44pt" height="280.51pt" version="1.1" viewBox="0 0 255.44 280.51" xmlns="http://www.w3.org/2000/svg" xmlns:xlink="http://www.w3.org/1999/xlink">
 <metadata>
  <rdf:RDF xmlns:cc="http://creativecommons.org/ns#" xmlns:dc="http://purl.org/dc/elements/1.1/" xmlns:rdf="http://www.w3.org/1999/02/22-rdf-syntax-ns#">
   <cc:Work>
    <dc:type rdf:resource="http://purl.org/dc/dcmitype/StillImage"/>
    <dc:date>2024-07-04T12:09:50.869748</dc:date>
    <dc:format>image/svg+xml</dc:format>
    <dc:creator>
     <cc:Agent>
      <dc:title>Matplotlib v3.7.1, https://matplotlib.org/</dc:title>
     </cc:Agent>
    </dc:creator>
   </cc:Work>
  </rdf:RDF>
 </metadata>
 <defs>
  <style type="text/css">*{stroke-linejoin: round; stroke-linecap: butt}</style>
 </defs>
 <g id="figure_1">
  <g id="patch_1">
   <path d="m0 280.51h255.44v-280.51h-255.44v280.51z" fill="none"/>
  </g>
  <g id="axes_1">
   <g id="PatchCollection_1">
    <defs>
     <path id="m7ea5698a54" d="m144.27-239.78-0.022619 0.2914 0.30463 0.51284 0.30731 0.36499 0.35262 0.36514 0.98958 0.95626 0.43204 0.45534 0.43312 0.56981 0.13022 0.22902 0.24692 0.68596 0.0527 0.67638-0.13876 0.61727-0.3344 0.5074-0.23821 0.1946-0.28926 0.16353-0.32057 0.13167-0.34923 0.1097-0.55431 0.13402-2.3253 0.45298-0.7466 0.20962-0.34813 0.13073-0.50066 0.24556-0.41199 0.28193-0.34483 0.34124-0.24618 0.37071-0.18001 0.4146-0.13314 0.5137-0.063037 0.54203-0.002696 0.4616 0.04171 0.46416 0.18509 0.80111 0.34164 0.74659 0.56705 0.72625 0.6981 0.64112 1.4715 1.1265 0.62036 0.52346 0.43326 0.51655 0.057041 0.10535 0.095419 0.26809 0.027297 0.25754-0.099232 0.36687-0.16416 0.16911-0.29904 0.13505-0.32244 0.0629-0.40401 0.026472-1.6359-0.060316-0.49679 0.05015-0.31254 0.090735-0.39177 0.20078-0.328 0.28356-0.12536 0.16132-0.11468 0.20327-0.13633 0.47904-0.013516 0.33313 0.037652 0.35263 0.067943 0.3105 0.17117 0.51124 0.24046 0.52086 0.26436 0.46502 0.35142 0.53062 0.60258 0.77791 0.66274 0.72724 0.44628 0.43 0.74298 0.6445 2.7041 2.1032 0.81396 0.70579 0.60266 0.56084 0.67728 0.66915 0.50905 0.53614 2.5216 2.776 0.71 0.70538 1.661 1.5539 0.46682 0.50222 0.3687 0.45508 0.31581 0.46422 0.29279 0.56842 0.23096 0.71108 0.18051 0.74626 0.23157 0.81495 0.31453 0.8437 0.39543 0.8306 0.9402 1.7257 0.61106 1.0585 0.70076 1.1341 2.5158 3.7848 1.2525 1.9812 3.1075 5.1437 0.61187 1.041 0.58899 1.0746 0.35662 0.71314 0.38614 0.85009 0.35303 0.86212 1.1744 3.2771 0.62699 1.6021 0.48558 1.0486 0.48812 0.90583 0.35056 0.57693 0.37111 0.55628 0.39091 0.53484 0.40698 0.51184 0.76011 0.85394 0.50086 0.49292 0.59341 0.5116 0.5555 0.41299 0.41962 0.27297 1.3021 0.77386 0.4765 0.3542 0.67924 0.62192 0.41038 0.44047 0.40002 0.473 0.60142 0.78434 0.82354 1.1893 1.0969 1.688 0.7003 1.1328 0.63412 1.1302 0.29552 0.58615 0.51465 1.1303 0.23558 0.57964 0.30315 0.83322 0.16416 0.5135 0.15579 0.55093 0.21513 0.90912 0.1902 1.1545 0.079401 0.8857 0.035056 1.0022-0.016328 2.4003 0.04894 2.2707-0.0169 0.65129-0.076762 0.62199-0.10812 0.41786-0.14444 0.40409-0.58541 1.3801-0.68047 2.1918-0.27187 0.66936-0.24618 0.53585-0.38699 0.71263-1.3375 2.1812-0.39742 0.74621-0.84639 1.9614-0.31272 0.60382-0.64158 1.1455-0.32117 0.64782-0.32737 0.76158-0.1197 0.40409-0.029167 0.34803 0.061802 0.19831 0.11703 0.11258 0.11704 0.053312 0.1754 0.036023 0.19401 0.00246 0.25396-0.035595 0.52186-0.14856 1.8665-0.71176 0.89385-0.29727 3.2009-0.79238 0.54528-0.10281 0.43851-0.04676 0.33073-0.011143 0.45285 0.019615 0.55248 0.073755 0.44008 0.096031 0.46988 0.15077 0.37653 0.1568 1.5048 0.77568 0.34168 0.11076 0.17393 0.014808 0.28101-0.078423 0.13465-0.10272 0.18947-0.26315 0.1188-0.30158 0.06375-0.2718 0.11374-0.93439 0.070352-0.34982 0.058155-0.15128 0.16119-0.24926 0.116-0.12451 0.17783-0.1424 0.21683-0.092866 0.24412-0.024256 0.20577 0.022919 0.31334 0.078332 0.28132 0.097265 0.42424 0.18199 0.55848 0.31248 0.53467 0.38952 0.47667 0.41801 0.4373 0.44405 0.54382 0.6384 0.64146 0.88349 0.36924 0.55174 0.46864 0.72901 1.1671 1.9012 0.52866 0.80832 0.35611 0.47751 0.25223 0.29656 0.37732 0.36138 0.21708 0.16166 0.43774 0.25584 0.45331 0.20137 0.685 0.22848 0.60499 0.13187 0.58919 0.061707 1.0675-0.009717 0.77487 0.042602 0.60414 0.08846 0.51599 0.11805 0.51607 0.16455 0.59434 0.25958 0.50274 0.28707 0.2697 0.18379 0.29879 0.23358 0.6321 0.62649 0.24712 0.29364 0.6103 0.83149 0.5768 0.90144 1.6887 2.8616 0.79737 1.2847 0.56822 0.96209 1.6715 2.9699 0.44688 0.75303 0.86289 1.342 1.0181 1.4908 0.45433 0.72829 0.60127 1.071 1.3797 2.6542 0.3213 0.66865 0.29903 0.68947 0.27142 0.7199 0.29362 0.68849 0.42317 0.69384 0.54556 0.65431 0.1431 0.14499 0.7229 0.64927 2.0396 1.7055 0.78301 0.70881 1.0836 1.0351 1.102 1.1216 1.5402 1.7062 0.38546 0.39974 0.5797 0.5061 0.71593 0.48632 1.2878 0.72528 0.7128 0.36197 0.72326 0.30047 0.72344 0.19719 0.708 0.052658 0.61741-0.097536 0.55091-0.20325 0.52558-0.32436 0.22795-0.30375 0.040142 1.4514 0.027648 4.002-0.027233 1.9355-0.053558 1.0746-0.067028 0.83972-0.21656 1.7841-0.21683 1.3777-0.31138 1.5842-0.25986 0.96842-0.32949 0.9314-0.3901 0.91682-1.1283 2.4238-1.1228 2.5155-0.53657 1.266-0.4287 1.0991-0.56232 1.597-0.40435 1.2646-0.32062 1.1448-0.19191 0.81292-0.15594 0.81774-0.14242 1.1491-0.048192 1.2154 0.00796 0.62798 0.087001 1.6436 0.27353 3.0725 0.12662 1.6853 0.063224 1.4107 0.00383 1.4609-0.052627 0.95954-0.14814 1.1565-0.1155 0.56944-0.14687 0.55296-0.22413 0.63962-0.313 0.66947-0.3667 0.60331-0.46266 0.60008-0.54555 0.5626-0.59032 0.49544-0.61935 0.43205-0.45165 0.2635-0.55813 0.26217-1.2922 0.46936-2.0864 0.70355-1.1299 0.40406-1.5809 0.61717-1.3911 0.6117-1.03 0.51188-0.72551 0.39866-0.70613 0.42316-0.8096 0.53698-0.76676 0.57923-0.58454 0.50917-0.69723 0.70483-1.4521 1.5539-0.69472 0.69192-0.6575 0.62428-1.939 1.7562-0.91695 0.89236-0.40507 0.4414-0.44676 0.54029-0.42185 0.56885-0.60911 0.93741-0.35269 0.61961-0.56261 1.1512-0.29138 0.69659-0.26038 0.70135-0.20848 0.63604-0.3158 1.1876-0.18805 1.0148-0.0667 0.58098-0.022015 0.42547 9.97e-4 0.14918 0.057903 0.24061-4.758-1.5685-0.71178-0.30943-0.7329-0.35657-0.73639-0.30462-0.82854-0.23934-1.0133-0.23375-0.8169-0.21416-0.7239-0.25951-0.46413-0.2194-1.5868-0.91868-0.4221-0.20806-0.61218-0.23589-0.60718-0.16835-0.52526-0.096598-0.5858-0.058861-0.92258-0.005811-0.80201 0.066981-0.82266 0.12488-1.2309 0.25052-2.3497 0.61435-0.70789 0.15578-0.61617 0.10883-0.60671 0.079309-0.63689 0.048279-0.61118 0.003702-0.57469-0.049287-0.53232-0.11683-0.37864-0.14846-0.60576-0.41485-0.49583-0.55729-0.39513-0.65126-0.29673-0.70333-0.19394-0.71785-0.080164-0.69714 0.00445-0.31028 0.11907-1.2965-0.005789-0.21099-0.069482-0.4432-0.1957-0.59615-0.55332-1.3695-0.2132-0.62257-0.19281-0.69866-0.15734-0.6778-0.30568-1.4829-0.19078-0.79198-0.20576-0.66136-0.22812-0.58926-0.18952-0.41304-0.26736-0.4978-0.28721-0.45959-0.5064-0.71557-0.76561-0.9339-1.8706-1.999-0.3458-0.39824-0.27814-0.36098-0.34155-0.56062-0.18485-0.43763-0.18283-0.88368-0.016712-0.93096 0.066608-0.73953 0.14157-0.73786 0.23435-0.72044 0.32331-0.66137 0.40086-0.63194 0.45353-0.60307 1.1424-1.3753 0.35536-0.49282 0.38676-0.69576 0.20436-0.6038 0.080509-0.68801-0.046351-0.71963-0.1481-0.74407-0.21612-0.72328-0.27558-0.73486-0.38142-0.86395-0.43506-0.86672-0.39921-0.72354-0.42562-0.71787-0.42417-0.67195-0.75248-1.1-0.88949-1.1843-1.5993-1.9763-1.3832-1.7742-0.73771-0.87821-1.2812-1.3271-1.4138-1.3389-0.63418-0.52533-0.42937-0.28461-0.61161-0.30104-0.64861-0.19242-0.53327-0.067565-0.52259-0.001991-0.67566 0.066763-1.6824 0.3182-0.81467 0.098045-0.649-0.006584-0.246-0.024759-0.51364-0.096743-0.47179-0.14998-0.23874-0.10174-0.51055-0.28666-0.3375-0.24427-0.25264-0.21163-0.38512-0.36042-0.38513-0.39852-0.31612-0.37795-0.94926-1.2346-0.8884-1.1986-0.30509-0.4901-0.38184-0.7107-0.36007-0.76484-0.60666-1.4641-1.0418-2.806-0.46562-1.327-1.1009-3.3135-0.65266-1.8128-0.63015-1.5288-0.32404-0.6931-0.34108-0.66254-0.37448-0.64987-0.39732-0.59948-0.5716-0.69625-0.16646-0.16529-0.4251-0.34784-0.20981-0.13607-0.33518-0.17914-0.43871-0.17973-0.44754-0.13556-0.50084-0.10881-0.49097-0.07272-1.1051-0.11904-0.55107-0.090661-1.2183-0.27412-0.34005-0.039549-0.54789-0.003171-0.4448 0.073862-0.4332 0.14422-0.58551 0.3075-0.45942 0.29494-0.58878 0.43873-0.357 0.30829-0.32348 0.32647-0.2905 0.36546-0.20268 0.34495-0.077475 0.17969-0.10244 0.34633-0.042367 0.26414-0.018335 0.37591 0.010867 0.30835 0.046086 0.45316 0.12422 0.85155 0.02975 0.73616-0.063934 0.52322-0.068049 0.24007-0.1381 0.33138-0.21808 0.40188-0.35308 0.55025-0.41339 0.56113-0.44041 0.53505-0.46078 0.50776-0.46048 0.46535-1.9949 1.8048-0.788 0.779-0.31676 0.35797-0.39219 0.50814-0.32596 0.50984-0.21785 0.40747-0.30173 0.68231-0.66137 1.8191-0.30956 0.76723-1.2976 2.7946-1.2926 3.0816-0.46556 1.0404-1.2616 2.5997-0.28754 0.6518-0.25882 0.655-0.35263 1.094-0.12825 0.48823-0.15516 0.68167-0.49497 2.5772-0.29918 1.2766-0.20605 0.63065-0.23164 0.50926-0.22864 0.3632-0.39046 0.42709-0.46711 0.33943-0.52935 0.24878-0.52089 0.14586-0.65636 0.096076-0.79738 0.045664-1.7669 0.043069-0.45246 0.041065-0.47213 0.081056-0.7548 0.24511-0.26748 0.12069-0.63167 0.3523-0.41014 0.2742-0.73269 0.56542-0.87364 0.78026-0.67438 0.67476-0.3991 0.47407-0.15974 0.22242-0.25295 0.44491-0.12 0.29378-0.12893 0.41639-0.13055 0.52527-0.16038 0.85654-0.17986 0.47465-0.2733 0.43458-0.39946 0.46683-0.27728 0.22521-0.18243 0.10105-0.17487 0.056944-0.15116 0.013432-0.12827-0.018465-0.16407-0.068181-0.22645-0.17244-0.15619-0.16478-0.35844-0.46862-1.0208-1.5304-0.84146-1.194-0.51763-0.63042-0.47639-0.46109-0.62398-0.4614-0.63928-0.35928-0.39373-0.16791-0.41113-0.12408-0.44525-0.066754-0.86752 0.071628-0.53085 0.14719-0.54247 0.21152-0.62314 0.3037-0.62708 0.36017-0.59173 0.38268-0.5819 0.40992-0.80169 0.612-0.79082 0.6656-0.47096 0.44348-0.40549 0.46279-0.097481 0.1751 0.069063 0.1125-0.18955 0.10911-0.26493 0.070653-0.61008 0.095917-0.6311 0.036433-0.57807-0.022386-0.65831-0.098726-0.75959-0.23161-0.53734-0.25861-0.70826-0.50583-0.21951-0.20544-0.48749-0.56251-0.22286-0.32186-0.24307-0.45645-0.12033-0.29786-0.34097-1.1186-0.12683-0.32686-0.19602-0.34938-0.12376-0.1477-0.28271-0.22967-0.13702-0.082707-0.54066-0.22953-1.1343-0.37954-0.34465-0.1035-1.2998-0.25474-0.59143-0.17303-0.16212-0.07409-0.31318-0.18553-0.94013-0.663-0.95528-0.50697-0.47368-0.29096-0.28932-0.22932-1.1662-1.1217-1.7326-1.7789-0.46107-0.54162-0.52674-0.70253-1.3514-2.0183-0.43517-0.54983-1.0445-1.0207-0.60001-0.63338-1.9561-2.3208-0.69627-0.79484-0.98148-1.0685-0.47122-0.55268-0.57034-0.749-0.22043-0.32102-0.57274-0.93308-0.58196-1.062-1.5254-3.0467-0.36066-0.75754-0.27476-0.64873-0.21434-0.59254-0.74161-2.5011-0.14498-0.38993-0.24206-0.53789-0.31022-0.54909-0.43403-0.5983-0.36088-0.39607-0.49883-0.43823-0.40198-0.28294-0.3279-0.1959-0.41816-0.21448-0.50895-0.22058-0.94803-0.3331-2.4127-0.7104-0.76788-0.26558-1.0567-0.42319-1.6903-0.77143-3.4855-1.6663-0.793-0.34678-0.4063-0.14541-0.51445-0.14035-0.44048-0.074414-0.3364-0.021586-0.25512 0.01465-0.16554 0.038293-0.078398 0.040896-0.045601 0.071063-0.45481-0.41216-0.69106-0.68586-0.59623-0.63847-0.63076-0.73902-0.70582-0.93783-0.66287-1.0671-0.4572-0.93548-0.29369-0.75644-0.34341-1.1599-0.18528-0.87675-0.1326-0.99815-0.030512-0.77853 0.038301-0.62824 0.10232-0.59769 0.30272-0.86657 0.21476-0.38566 0.3417-0.4706 0.44658-0.49751 0.84066-0.85269 0.36638-0.3983 0.4601-0.57614 0.43873-0.70407 0.37844-0.86392 0.15054-0.48935 0.12897-0.5626 0.099379-0.5791 0.10474-0.79031 0.29364-3.0189 0.096965-1.5495 0.020584-0.80101-0.019651-1.0519-0.15031-2.0158-0.053615-0.53034-0.091646-0.50546-0.11362-0.36849-0.21406-0.4364-0.41662-0.49972-0.54857-0.38106-0.78884-0.29947-0.73734-0.14234-1.5123-0.18047-0.53643-0.10585-0.81255-0.27842-0.80815-0.48936-0.70078-0.6597-0.34461-0.41156-0.83013-1.1459-1.1113-1.6301-0.52204-0.87388-0.22747-0.47783-0.16689-0.47123-0.10256-0.53149 6.16e-4 -0.49977 0.072612-0.34913 0.13308-0.30985 0.27618-0.34548 0.41844-0.25161 0.5026-0.086701 0.37007 0.042 0.56427 0.2035 0.42157 0.24775 0.65074 0.51613 1.0637 1.0677 0.54679 0.49929 0.58096 0.35578 0.4669 0.11628 0.51259-0.064988 0.33108-0.1611 0.30477-0.24717 0.32093-0.39624 0.26956-0.48914 0.2042-0.53096 0.15604-0.5869 0.11102-0.65313 0.063478-0.69102 0.018043-0.94378-0.025239-0.70827-0.051046-0.72123-0.13047-1.2085-0.16419-1.0958-0.22862-1.1805-0.20584-0.86365-0.24074-0.83608-0.19345-0.56271-0.2187-0.53944-0.43258-0.83507-0.57674-0.79182-0.67332-0.63114-0.7565-0.44943-0.57777-0.19778-0.82754-0.11373-0.91719 0.054403-0.85429 0.18473-0.51047 0.15629-1.9937 0.72161-0.42238 0.11937-0.41396 0.075831-0.51354 0.014491-0.57264-0.10975-0.45317-0.1898-0.41797-0.25333-1.0935-0.84164-0.33286-0.20739-0.53584-0.21248-0.49945-0.05652-0.55487 0.10165-0.48253 0.24525-0.35192 0.29198-0.435 0.53757-0.29934 0.53577-0.1928 0.47273-0.1286 0.43344-0.099717 0.53259-0.040353 0.58819 0.026833 0.60403 0.044904 0.35677 0.063032 0.3522 0.23964 1.0361 0.067791 0.47901-0.026742 0.30186-0.091655 0.19078-0.19307 0.12862-0.22481 0.010506-0.31119-0.11137-0.18612-0.11617-0.33102-0.27659-0.15884-0.15822-0.27188-0.30393-0.2857-0.36324-0.40727-0.61783-0.21827-0.41212-0.17465-0.41208-0.17227-0.59246-0.06399-0.41878 0.001852-0.77625 0.07951-0.51446 0.11751-0.45557 0.14008-0.41418 0.24488-0.58926 0.27171-0.55919 1.1044-1.9924 0.3602-0.68736 0.39686-0.86628 0.29646-0.81608 0.24362-0.96847 0.11747-0.78711 0.040218-0.47792 0.094383-2.0774 0.1142-0.75199 0.14543-0.52393 0.097404-0.26766 0.56882-1.2557 0.15997-0.42918 0.10527-0.45087 0.033304-0.39387-0.018265-0.40714-0.11329-0.62559-0.26013-0.82295-0.29268-0.71917-0.32181-0.70556-1.1826-2.397-0.28566-0.61868-0.18648-0.50362-0.097075-0.41883-0.031463-0.40749 0.038901-0.51436 0.17747-0.71982 0.34292-0.80297 0.27715-0.49172 0.54178-0.79233 2.1208-2.7072 0.56598-0.62533 0.37882-0.36912 0.63001-0.56745 0.39339-0.32562 0.62006-0.45858 0.43965-0.28004 0.93346-0.49476 0.50465-0.22992 0.35351-0.13807 0.40815-0.1194 0.49158-0.097532 0.8138-0.11776 0.31204-0.073199 0.26451-0.11006 0.13064-0.077484 0.23271-0.18448 0.18272-0.22386 0.10326-0.21714 0.04573-0.15692 0.062292-0.43262 0.033983-0.71521 0.003768-0.60749 0.05316-0.33981 0.16618-0.37973 0.29705-0.378 0.45711-0.36545 0.57723-0.34696 0.66451-0.35326 1.6335-0.8345 0.81863-0.39078 1.0872-0.47879 1.2831-0.51976 1.3895-0.50737 2.0503-0.71361 0.41522-0.18028 0.48578-0.2581 0.2772-0.1818 0.37074-0.30031 0.44982-0.46153 0.51028-0.61732 0.50468-0.66599 0.60108-0.88617 0.45507-0.7801 0.85528-1.6772 0.4254-0.77148 1.1644-1.8687 0.88171-1.3598 0.19445-0.26167 0.042438-0.042754 0.09055-0.16658 0.42255-0.88032 1.4651-3.2207 0.87492-2.1031 1.1828-3.0139 0.66914-1.4898 0.41679-0.80852 0.50408-0.8749 0.54037-0.83274 0.61757-0.83125 0.64894-0.73929 0.38565-0.37727 0.37111-0.32188 0.47112-0.35782 0.85201-0.53045 0.92528-0.44164 0.87775-0.32367 0.95991-0.2835 2.5854-0.62714 0.83745-0.22451 0.99839-0.29215 2.2573-0.71498 0.36627-0.084602 0.29803-0.043399 0.32092-0.009987 0.3301 0.042838 0.37025 0.1302 0.31357 0.18496 0.35587 0.30184 0.34317 0.40388 0.31246 0.50248 0.30966 0.68272 0.18054 0.54628 0.093679 0.37022 0.11605 0.58922 0.10766 0.7015 0.14958 1.4134 0.21523 2.8166 0.19438 1.8575 0.39162 3.253 0.11593 0.70169 0.15217 0.73322 0.20723 0.73168 0.1961 0.51724 0.2538 0.51673 0.19415 0.30692 0.27245 0.32703 0.27133 0.22762 0.11479 0.072242 0.54945 0.20903 0.59946 0.068683 0.86401-0.068398 0.73849-0.16244 0.94807-0.30519 5.2516-1.9874 7.8329-3.1248 1.0327-0.43766 0.90573-0.42874 0.62106-0.3398 0.45434-0.28547 0.39861-0.28215 0.3507-0.28051 0.4672-0.44483 0.28635-0.33901 0.26202-0.38924 0.21569-0.39775 0.19108-0.42306 0.25452-0.68155 0.22997-0.75951 0.22396-0.90813 0.14902-0.84241 0.048943-0.65467-0.011504-0.44097-0.032478-0.31652-0.078963-0.43985-0.097157-0.37063-0.23956-0.62834-0.34802-0.62291-0.41594-0.55347-0.46021-0.4893-0.51659-0.45341-0.80542-0.60096-0.86347-0.56384-0.63732-0.36813-0.82257-0.41879-2.1193-0.95526-0.81989-0.39988-0.83656-0.4651-0.71925-0.46473-0.70386-0.55442-0.46974-0.44436-0.31801-0.34662-0.46196-0.61146-0.28489-0.4696-0.23878-0.47067-0.18766-0.48808-0.054403-0.19063-0.11746-0.63705-0.039874-0.60076 0.032446-0.89215 0.24073-1.8983 0.11525-1.2164 0.016377-0.80523-0.017629-0.74684-0.071009-0.95032-0.077782-0.5872-0.17336-0.87711-0.27705-1.0986-1.1215-3.9408-0.32773-0.93226-0.22286-0.50847-0.37029-0.66793-0.1979-0.29255-0.28574-0.36997-0.74407-0.79782-0.59842-0.54132-0.52914-0.43192-0.87479-0.63946-0.8944-0.5751-0.66214-0.38678-5.0251-2.7234-0.74209-0.4231-0.56583-0.35544-0.701-0.51892-0.48404-0.44685-0.50488-0.56919-0.40792-0.61544-0.2968-0.67696-0.21456-0.71922-0.41212-1.6634-0.3562-1.0851-0.39908-1.049-0.60392-1.4632-0.54304-1.2106-0.15578-0.30634-0.10002-0.13148 0.22308-0.17475 0.62727-0.41832 0.81271-0.48672 0.97659-0.51142 0.58132-0.26907 1.2333-0.49617 1.1406-0.38098 0.89575-0.25022 1.1233-0.2551 1.5427-0.25474 1.7663-0.21058 4.2073-0.43917 1.1284-0.15473 0.68042-0.11981 0.93353-0.23247 1.0396-0.3626 1.0449-0.44207 2.1135-1.0124 0.671-0.26652 0.52056-0.16708 0.29348-0.075711 0.56008-0.10333 0.75109-0.063615 0.90472 0.017857 0.83725 0.10323 0.83491 0.17527 0.7961 0.2168 0.69307 0.21975 0.93045 0.32951 2.1012 0.83602 3.9775 1.686 1.9568 0.77022 1.8096 0.67226 1.8908 0.65316 2.4043 0.76844 2.0725 0.61455 2.3038 0.63087 1.1313 0.33176 1.0988 0.37871 0.52737 0.21317 0.95056 0.43862 0.59461 0.31574 0.69879 0.42531 0.45908 0.32344 0.62 0.5059 1.642 1.478 1.2027 1.195 0.72156 0.77188 0.54963 0.64852 0.53409 0.70821 1.2258 1.6964 0.55324 0.70888 0.62826 0.71979 0.6887 0.69763 0.73431 0.65139 0.78153 0.58877 0.72934 0.44889 0.69268 0.3369 0.4287 0.17117 0.56081 0.18841 0.6396 0.15882 0.78 0.11952 0.99503 0.054741 0.84627-0.010549 1.8177-0.10261 3.7667-0.32698 1.4385-0.10196 0.86514-0.032882 0.1619 0.005959 0.086482 0.031457" stroke="#bdc660"/>
    </defs>
    <g clip-path="url(#p437b856515)">
     <use y="280.512" fill="#bdc660" stroke="#bdc660" xlink:href="#m7ea5698a54"/>
    </g>
   </g>
  </g>
 </g>
 <defs>
  <clipPath id="p437b856515">
   <rect x="7.2" y="7.2" width="241.04" height="266.11"/>
  </clipPath>
 </defs>
</svg>
