<?xml version="1.0" encoding="UTF-8"?>
<!DOCTYPE svg  PUBLIC '-//W3C//DTD SVG 1.1//EN'  'http://www.w3.org/Graphics/SVG/1.1/DTD/svg11.dtd'>
<svg width="277.04pt" height="280.51pt" version="1.1" viewBox="0 0 277.04 280.51" xmlns="http://www.w3.org/2000/svg" xmlns:xlink="http://www.w3.org/1999/xlink">
 <metadata>
  <rdf:RDF xmlns:cc="http://creativecommons.org/ns#" xmlns:dc="http://purl.org/dc/elements/1.1/" xmlns:rdf="http://www.w3.org/1999/02/22-rdf-syntax-ns#">
   <cc:Work>
    <dc:type rdf:resource="http://purl.org/dc/dcmitype/StillImage"/>
    <dc:date>2024-07-04T12:10:04.023144</dc:date>
    <dc:format>image/svg+xml</dc:format>
    <dc:creator>
     <cc:Agent>
      <dc:title>Matplotlib v3.7.1, https://matplotlib.org/</dc:title>
     </cc:Agent>
    </dc:creator>
   </cc:Work>
  </rdf:RDF>
 </metadata>
 <defs>
  <style type="text/css">*{stroke-linejoin: round; stroke-linecap: butt}</style>
 </defs>
 <g id="figure_1">
  <g id="patch_1">
   <path d="m0 280.51h277.04v-280.51h-277.04v280.51z" fill="none"/>
  </g>
  <g id="axes_1">
   <g id="PatchCollection_1">
    <defs>
     <path id="m21251d71f3" d="m202.27-254.28 1.5972 1.882 1.81 2.2345 1.136 1.4422 1.6669 2.2384 1.2839 1.8686 2.5472 3.888 0.9029 1.3277 3.0653 4.369 1.2945 1.9368 1.6809 2.71 4.9459 8.3675 2.7059 4.3989 5.5607 8.7601 15.909 24.791 2.8213 4.4365 1.851 2.9912 0.90103 1.5094 0.87133 1.5204 0.82567 1.5324 0.75707 1.5449 0.65607 1.5571 0.51037 1.5673 0.30506 1.5729 0.024591 1.5704-0.18214 1.0863-0.24738 0.86612-0.22145 0.61541-0.53004 1.2131-0.68503 1.2959-0.51408 0.83627-0.31306 0.4555-0.53754 0.69878-0.73747 0.81252-0.6482 0.58863-0.3949 0.22722-0.064039-0.41046-0.3558-0.34579-0.58587-0.22968-1.0128-0.045526-1.2285 0.19886-1.3699 0.36832-7.2729 2.3362-1.9001 0.56055-1.332 0.3349-0.96636 0.19979-1.5503 0.24212-0.96326 0.10811-1.7685 0.11948-0.93804 0.011428-0.92548-0.036337-1.3341-0.16286-1.2947-0.3113-1.2719-0.42208-3.7835-1.4589-1.2739-0.41592-1.2806-0.32118-1.2876-0.187-0.83224-0.031172-0.83158 0.039954-0.94444 0.12734-0.93865 0.20018-1.1302 0.31822-0.78626 0.25943-1.4096 0.52804-3.643 1.5815-2.5249 1.0568-1.2191 0.54442-1.153 0.57907-1.0073 0.59201-0.91292 0.61091-0.78421 0.59664-0.63832 0.62527-0.43864 0.69473-0.21661 0.95014 0.014013 1.0837 0.11065 1.0179 0.49095 3.3415 0.41553 3.6 0.055764 0.81572 0.030538 1.4456-0.039645 1.2606-0.097653 1.291-0.20625 1.6627-0.52104 3.0204-0.60065 3.0124-0.68868 4.4032-0.079614 0.93026 0.041283 1.0206 0.32476 2.305 0.1549 1.6763 0.1744 0.6336 0.74327 1.4037 0.11629 0.5075-0.014855 0.48234-0.061486 0.27574-0.091701 0.26096-0.25022 0.48382-0.27662 0.39424-0.26704 0.31706-0.48064 0.43829-0.50975 0.32289-0.71844 0.31759-0.83096 0.2462-0.8412 0.12053-0.80671-0.055022-0.35384-0.099379-0.28202-0.11343-0.65607-0.36284-1.4543-0.98277-1.7769-0.9425-0.54869-0.3693-0.54804-0.4413-0.27646-0.25118-0.83229-0.89316-1.6651-2.0442-0.89097-0.99626-0.93213-0.94704-0.94303-0.87643-0.42248-0.36361-0.64106-0.49243-0.65385-0.42296-0.65553-0.33825-0.5272-0.20251-0.64231-0.14884-0.61983-0.02446-0.57293 0.10129-0.53698 0.19718-0.50559 0.27576-0.50357 0.36379-1.0699 0.86474-0.70021 0.48793-0.78752 0.48588-0.85617 0.48535-3.9575 2.0786-1.1944 0.6613-1.1636 0.70172-1.2332 0.85151-1.1201 0.94663-0.95686 1.0752-0.78389 1.2918-0.39403 0.88776-0.3301 0.933-0.26049 0.91166-0.27613 1.1995-0.17152 0.91128-0.22021 1.4745-0.18998 1.6692-0.1653 1.8437-0.19072 2.7464-0.19277 4.2413-0.11856 5.167-0.13604 1.1718-0.22008 0.95751-0.1956 0.62773-0.4414 1.0655-0.38431 0.70156-0.29485 0.45353-0.4231 0.55475-0.4844 0.53309-1.5673 1.421-0.45602 0.47857-0.3701 0.51038-0.21274 0.40439-0.25285 0.67368-0.20045 0.81563-0.1129 0.72556-0.064792 0.67513-0.039832 0.8796-0.019976 3.9277-0.039507 0.8185-0.12762 1.2987-0.10851 0.65323-0.16067 0.69051-0.29947 0.90116-0.25327 0.5811-0.29713 0.578-0.77163 1.2539-0.54951 0.77616-0.81098 1.0209-0.85571 0.9241-0.53629 0.50334-0.78208 0.6268-0.73119 0.43416-0.54425 0.12303-0.22177-0.12074-0.080616-0.26079 0.029587-0.22691 0.11218-0.33916 0.40562-0.82338 1.4921-2.5336 0.45994-0.93311 0.37787-0.84454 0.33245-0.88093 0.37315-1.3778 0.23019-1.2115 0.1832-1.5696 0.080143-1.17 0.065184-2.0067 0.008666-1.6803-0.031672-1.2775-0.099766-1.7704-0.12618-1.2312-0.74426-5.3414-0.23871-0.8558-0.1519-0.27686-0.1563-0.19879-0.23106-0.19812-0.27673-0.13835-0.34178-0.066039-0.42049 0.038814-0.48624 0.17981-0.55348 0.37638-0.47075 0.48272-1.0607 1.3767-0.43002 0.63179-1.7163 2.7613-0.64136 0.89875-0.47857 0.55513-0.51302 0.47761-0.35795 0.26243-0.24411 0.14738-0.66844 0.28533-0.7202 0.14059-0.71676-0.014709-0.54207-0.11747-0.51107-0.20704-0.68412-0.47596-0.39196-0.43971-0.31653-0.53143-0.24776-0.65933-0.15884-0.69247-0.092282-0.65675-0.063247-0.93057 0.001628-0.76946 0.10164-1.2162 0.44465-2.6346 0.1764-1.2574 0.12116-1.1818 0.060178-0.92992 0.024319-1.2553-0.037023-1.08-0.14772-1.4059-0.25374-1.2286-0.36744-1.0689-0.33822-0.65189-0.27201-0.38914-0.31965-0.35634-0.46818-0.39168-0.50863-0.30426-0.65345-0.25969-0.61698-0.13511-0.50505-0.04902-0.65176 0.007702-0.54076 0.064596-0.56409 0.11526-0.67473 0.19155-0.6973 0.2471-0.82083 0.34003-0.71083 0.33408-1.0026 0.54995-0.66826 0.41853-2.0929 1.4219-1.3948 0.90558-3.2558 1.9279-2.3349 1.3357-0.53972 0.34558-0.40784 0.30473-0.35079 0.31687-0.38926 0.45584-0.49575 0.90963-0.24179 0.99662-0.054616 1.2565 0.11624 1.3155 0.44192 2.5969 0.35584 1.6037 0.70081 2.9237 0.79206 3.7836 0.46715 2.0963 0.23303 1.2564 0.122 1.1264-0.020446 1.0888-0.083763 0.53402-0.27811 0.99591-0.25847 0.66553-0.30864 0.66388-0.30835 0.56519-0.67551 1.014-1.4003 1.9323-0.69148 0.93385-0.39549 0.48347-0.53128 0.60113-1.8777 1.9673-0.46069 0.57691-0.23264 0.37046-0.23954 0.46258-0.65517 1.5458-0.37241 0.74152-0.47517 0.75211-1.3866 2.0168-1.8063 2.7544-1.7833 2.8073-1.5373 2.5081-0.23242 0.34047-0.54753 0.96291-4.4821 8.0309-2.1421 3.7378-1.7747 2.9679-0.87953 1.3935-0.87826 1.3137-0.88156 1.2134-0.89084 1.0861-0.90777 0.92336-0.93445 0.71461-0.97349 0.44709-0.8943 0.14027-0.9401-0.023987-2.0476-0.19793-0.89138-0.030794-0.93053 0.009261-3.6956 0.18465-1.4902 0.049185-1.6184-0.004366-6.6878-0.19216-6.3128-0.35334-1.665-0.027482-2.3089 0.020198-2.3118-0.019624-1.5607-0.065293-2.643-0.16244-1.0431-0.008606-1.0277 0.051341-0.78424 0.083703-2.4297 0.36812-1.1759 0.098074-4.1976 0.17327-3.252 1.31e-4 -1.106 0.041769-2.2375 0.19153-6.5603 0.7765-1.7945 0.13722-1.7383 0.036288-0.44909-0.030866 0.24836-0.51945 0.021864-0.89953-0.18683-1.0975-0.43657-1.1225-0.50982-0.78693-0.82596-0.93882-1.7705-1.6961-0.43615-0.47595-0.42558-0.56998-0.34049-0.64148-0.22568-0.73738-0.096311-0.68447-0.014006-0.71183 0.0423-0.58969 0.14339-0.88143 0.22365-0.88924 0.35921-1.1358 0.53649-1.5037 0.70766-1.8635 0.31271-0.92741 0.27084-0.94251 0.50878-2.0421 0.24901-0.89222 0.32493-0.90979 0.39305-0.90514 0.66698-1.2925 0.48636-0.81236 0.77527-1.1036 0.54073-0.64692 0.65016-0.69025 1.0849-1.0327 1.4946-1.3164 1.1737-0.97347 1.5836-1.237 1.026-0.84063 0.92243-0.90388 0.71044-0.91349 0.53016-0.86802 0.57083-1.1775 0.28664-0.71187 0.62836-1.7461 1.2165-2.8824 0.46633-1.1991 0.35384-1.1067 0.23592-1.0574 0.1054-0.83199 0.025059-0.55131-0.014406-0.57633-0.078934-0.80166-0.27126-1.6602-0.26482-1.1802-0.48549-1.7116-0.33268-1.5306-0.1926-1.3061-0.025847-1.0787 0.079782-1.0202 0.21173-1.2382 0.33323-1.2479 0.31294-0.89565 0.50822-1.1614 0.53649-0.98347 0.78106-1.1494 0.72906-0.86622 0.90687-0.87864 0.77973-0.61942 1.2076-0.77581 1.0434-0.53836 1.0936-0.46768 1.2656-0.44822 1.3005-0.39406 3.9389-1.0716 1.4002-0.41882 1.0581-0.35798 1.0322-0.39949 1.1761-0.53804 1.1165-0.61663 0.84894-0.56009 0.79569-0.615 0.75132-0.68248 0.68595-0.73342 0.65309-0.83317 0.5642-0.88252 0.62266-1.3211 0.25935-0.80655 0.17968-0.8296 0.11946-1.4959-0.092235-1.3723-0.25586-1.4227-0.45378-1.7231-1.4357-4.5127-0.65592-2.2595-0.27875-1.1226-0.25945-1.2194-0.2123-1.2269-0.17772-1.3842-0.11437-1.3882-0.051018-1.3205 0.001503-1.3179 0.03289-0.97466 0.16319-2.246 0.22405-1.8852 0.20092-1.3165 0.11588-0.648 0.29224-1.2909 0.37786-1.1806 0.34585-0.8161 0.45996-0.87277 0.73294-1.1276 1.0314-1.3148 1.7546-2.0171 1.1341-1.3502 0.58674-0.65091 0.60452-0.60743 2.6354-2.2491 0.43252-0.49014 0.22225-0.4122 0.04824-0.32679-0.023985-0.14315-0.33541-0.47877-0.66668-0.42299-0.92973-0.38128-0.93593-0.29363-1.0547-0.27465-1.5995-0.3471-1.711-0.3111-4.8994-0.80123-4.6016-0.89994-1.2179-0.18926-1.0406-0.059189-0.33503 0.095764 0.14788-0.080367 0.24131-0.28601 0.16439-0.28155 0.24807-0.56279 0.22982-0.72433 0.11738-0.50863 0.10361-0.71708 0.002172-0.97592-0.10162-0.5895-0.10632-0.34069-0.14588-0.33693-0.2539-0.43506-0.23435-0.31541-0.51401-0.54897-0.47457-0.41371-0.79751-0.59653-2.5697-1.7128-0.6044-0.43314-2.0915-1.6831-1.2233-1.0518-0.71749-0.727-0.2887-0.34955-0.31699-0.45371-0.2122-0.3669-0.30953-0.73711-0.12928-0.74491 0.016321-0.39007 0.12861-0.60341 0.23893-0.64014 0.21803-0.4589 0.42766-0.76864 0.50108-0.75778 1.5802-1.9868 0.69746-0.99414 0.55902-0.9846 0.18876-0.41963 0.20873-0.69302 0.048596-0.66727-0.14355-0.61959-0.26004-0.43656-0.2517-0.28809-0.56986-0.49599-0.36256-0.26528-0.67124-0.44581-3.4612-2.0869-1.0911-0.69735-1.0462-0.72935-0.96471-0.766-0.8418-0.80937-0.67029-0.86181-0.33427-0.61461-0.25599-0.63503-0.21557-0.73874-0.11306-0.75456 0.031206-0.91329 0.19081-0.91631 0.1798-0.53493 0.4947-0.98216 0.23359-0.3558 0.55875-0.72223 0.49519-0.55356 1.042-1.0206 1.207-1.0299 1.0152-0.78205 1.5408-1.0933 1.1487-0.76589 2.3559-1.4686 1.1599-0.67266 1.1677-0.63618 1.1741-0.58821 1.4552-0.63887 1.4589-0.516 1.4574-0.35574 1.3248-0.15642 1.2943-0.010637 0.99933 0.073697 1.777 0.25178 2.8273 0.56123 0.95513 0.069135 0.27339-0.012425 0.43638-0.075521 0.3987-0.17198 0.30304-0.25975 0.1627-0.22302 0.1723-0.35334 0.14926-0.52541 0.080372-0.6204 0.008943-0.68653-0.025417-0.40287-0.045093-0.40262-0.20397-1.1271-0.35345-1.4322-1.0272-3.4798-0.78536-2.5168-0.66405-2.017-0.98786-2.7086-0.85912-2.0113-0.45262-0.92133-0.45018-0.83059-0.62236-1.0373-0.85173-1.2492-0.89293-1.1276-0.9076-0.96167-0.8849-0.738-0.8059-0.44556-0.63536-0.099882-0.30468 0.25798 0.30356-1.0099 0.064156-0.38454-0.017934-0.38991-0.082267-0.27694-0.13724-0.27064-0.37553-0.48799-1.1536-1.0717-0.44045-0.49375-0.11075-0.19283-0.067801-0.19753-0.018996-0.18204 0.051025-0.29112 0.081181-0.18872 0.17589-0.2797 0.72517-0.88054 0.67988-0.70489 0.31306-0.36463 0.23626-0.35972 0.12106-0.26664 0.082379-0.33223 0.017273-0.34363-0.073144-0.48355-0.46013-1.3842-0.074599-0.40726 0.051479-0.35883 0.23132-0.30824 0.3838-0.25566 0.49732-0.21721 0.58116-0.18959 0.64269-0.1702 1.4086-0.30568 4.6711-0.88544 1.5981-0.35598 0.78229-0.20505 0.75476-0.22974 0.70848-0.25902 0.63794-0.28949 1.1657-0.64276 0.33344-0.1363 0.028629 0.11744-0.073239 0.46412-1.1218 4.8846-0.36593 1.7197-0.30992 1.681-0.27504 1.9044-0.16137 1.6314-0.089151 1.6435-0.017119 1.2537 0.042706 1.5579 0.079214 1.125 0.17914 1.5186 0.17294 0.98691 0.18171 0.78772 0.20581 0.68245 0.2351 0.57758 0.25176 0.43296 0.28519 0.30485 0.44006 0.1852 0.45705-0.067882 0.4205-0.30926 0.3806-0.61934 0.29634-0.84327 0.238-1.0016 0.5908-3.449 0.15647-0.79581 0.31499-1.2291 0.24215-0.67845 0.36467-0.75272 0.35121-0.53434 0.54722-0.59725 0.93156-0.63241 0.97207-0.43464 2.1948-0.74317 2.1567-0.6463 2.3702-0.63561 7.9665-1.969 1.6619-0.45743 1.8093-0.56544 0.98298-0.34849 1.0664-0.46366 0.92625-0.47611 0.74147-0.44474 0.8283-0.61033 1.5451-1.2673 2.3621-1.7521 0.81078-0.64072 0.96892-0.84543 0.7014-0.69288 0.86837-0.98915 0.55509-0.73216 0.56593-0.86187 1.2734-2.2365 0.38847-0.5978 0.34771-0.47141 0.73572-0.84716 0.57342-0.56892 0.56525-0.50824 0.86675-0.7035 1.5343-1.1211 1.1133-0.75447 1.1424-0.721 1.167-0.67395 2.7052-1.403 2.7932-1.4994 1.3705-0.69337 1.3611-0.57963 1.3577-0.39779 1.096-0.15675 2.2436-0.15879 1.3657-0.18404 2.8634-0.51527 1.5906-0.24996 3.223-0.45065 4.0451-0.61553 1.2142-0.072948 1.3323 0.087311 1.326 0.2507 1.3061 0.39275 1.2711 0.5223 1.2187 0.64753 1.2125 0.80945 1.1534 0.89434 2.1994 1.8372 1.0745 0.84288 1.0743 0.72162 0.54838 0.3054 0.73995 0.35851 2.8319 1.0853 1.6083 0.7744 0.61228 0.26174 1.2764 0.39282 1.3736 0.25 1.4271 0.11331 1.4409-0.029256 1.4165-0.19029 0.72188-0.16852 4.3896-1.217 11.497-3.2894 1.2803-0.3231 1.2953-0.27844 1.2999-0.21032 1.3227-0.1151 1.0254-0.00673 4.9075 0.19471 1.0693 0.09482 1.2632 0.18683 1.0357 0.22936 1.0168 0.30332 0.79226 0.29503 0.91832 0.41115 0.58105 0.31283 0.23013 0.18788" stroke="#bdc660"/>
    </defs>
    <g clip-path="url(#pac7cebe106)">
     <use y="280.512" fill="#bdc660" stroke="#bdc660" xlink:href="#m21251d71f3"/>
    </g>
   </g>
  </g>
 </g>
 <defs>
  <clipPath id="pac7cebe106">
   <rect x="7.2" y="7.2" width="262.64" height="266.11"/>
  </clipPath>
 </defs>
</svg>
