<?xml version="1.0" encoding="UTF-8"?>
<!DOCTYPE svg  PUBLIC '-//W3C//DTD SVG 1.1//EN'  'http://www.w3.org/Graphics/SVG/1.1/DTD/svg11.dtd'>
<svg width="279.79pt" height="280.51pt" version="1.1" viewBox="0 0 279.79 280.51" xmlns="http://www.w3.org/2000/svg" xmlns:xlink="http://www.w3.org/1999/xlink">
 <metadata>
  <rdf:RDF xmlns:cc="http://creativecommons.org/ns#" xmlns:dc="http://purl.org/dc/elements/1.1/" xmlns:rdf="http://www.w3.org/1999/02/22-rdf-syntax-ns#">
   <cc:Work>
    <dc:type rdf:resource="http://purl.org/dc/dcmitype/StillImage"/>
    <dc:date>2024-07-04T12:10:12.723798</dc:date>
    <dc:format>image/svg+xml</dc:format>
    <dc:creator>
     <cc:Agent>
      <dc:title>Matplotlib v3.7.1, https://matplotlib.org/</dc:title>
     </cc:Agent>
    </dc:creator>
   </cc:Work>
  </rdf:RDF>
 </metadata>
 <defs>
  <style type="text/css">*{stroke-linejoin: round; stroke-linecap: butt}</style>
 </defs>
 <g id="figure_1">
  <g id="patch_1">
   <path d="m-0 280.51h279.79v-280.51h-279.79v280.51z" fill="none"/>
  </g>
  <g id="axes_1">
   <g id="PatchCollection_1">
    <defs>
     <path id="m6821cd0eb2" d="m237.64-243.79 4.942 5.9316 3.8961 4.8911 2.4948 3.2742 2.3905 3.2333 2.2806 3.1909 1.1108 1.6125 2.0898 3.1962 0.95541 1.579 0.8687 1.561 0.70702 1.437 0.57416 1.4044 0.40044 1.3576 0.1721 1.2923-0.12766 1.2033-0.33194 0.82734-0.79222 1.082-0.80304 0.74065-0.78647 0.56863-0.73982 0.44452-0.8482 0.42833-0.53771 0.23247-0.7729 0.28546-0.67506 0.20647-0.94262 0.22418-1.3987 0.19086-1.0787 0.029908-0.72224-0.040423-0.78872-0.099231-4.805-0.76436-0.86203-0.047711-0.7975 0.12011-0.46084 0.19087-0.33915 0.20675-0.73173 0.64706-0.3985 0.4761-0.67444 1.0375-0.57728 1.1939-0.46194 1.3108-0.31979 1.3954-0.11107 0.83582-0.071201 0.85206-0.30355 4.3309-0.077584 1.3702-0.012199 0.94657 0.027043 0.68156 0.11318 1.0443 0.37855 1.6267 0.56569 1.5946 0.66199 1.5086 1.4369 2.89-0.17347-0.012429-0.36254 0.18374-0.54587 0.37815-0.66134 0.5279-1.0994 0.96606-1.1995 1.1296-1.2511 1.2335-1.2708 1.2957-2.5245 2.6732-2.0763 2.2818-3.7674 4.2406-1.1801 1.2723-1.9075 1.8369-1.2589 1.0548-2.3962 1.8494-1.0702 0.73397-1.1127 0.68868-1.1431 0.64736-1.8177 0.93296-1.6423 0.76508-5.4629 2.3031-0.386 0.18946-0.55296 0.33355-0.78113 0.69-0.4203 0.6022-0.21374 0.50093-0.14071 0.57423-0.053147 0.78068 0.070363 1.5953-0.006275 0.65074-0.13522 0.89432-0.14782 0.46415-0.21262 0.38485-0.14644 0.16901-0.31222 0.19622-0.4003 0.008262-0.41153-0.19455-0.27208-0.2306-1.1817-1.2353-2.7167-2.347-1.7224-1.5584-2.869-2.4115-0.48599-0.32304-0.44801-0.18289-0.088092-0.014743-0.52196 0.13962-0.3189 0.49231-0.056968 0.51331 0.053609 0.61883 0.42206 2.215 0.12419 1.1638-0.012754 0.71295-0.19885 2.2063-0.008968 1.494-0.076482 0.80776-0.1734 0.72068-0.25591 0.75844-1.0663 2.7023-0.46944 1.2559-0.42604 1.2749-0.35024 1.2727-0.49988 2.3187-0.33138 1.0755-0.43637 0.95475-0.55191 0.93826-0.63837 0.92445-0.74826 0.97579-2.5235 3.0872-0.84985 1.1592-0.4242 0.67042-0.35684 0.66846-0.37733 1.0065-0.12342 0.9992 0.22482 1.1305 0.53546 1.1352 0.74772 1.1554 1.8109 2.4433 0.95385 1.3531 0.93229 1.4163 0.89951 1.4622 0.85505 1.4939 0.79721 1.5135 0.72326 1.5221 1.8346 4.3494 0.66446 1.2758 0.77831 1.1871 1.1852 1.6386 0.64697 0.77942 0.47476 0.50729 1.6307 1.6025 0.61977 0.67345 0.31929 0.39494 0.5038 0.7505 0.2954 0.58512 0.20603 0.5728 0.15065 0.73672 0.021133 0.94334-0.15966 0.94553-0.16125 0.51044-0.22515 0.52431-0.41549 0.76307-0.98328 1.6238-0.32411 0.63817-0.2427 0.63316-0.12019 0.49915-0.044686 0.63334 0.095233 0.66994 0.19354 0.6186 0.44538 0.95957 0.39147 0.67339 0.44708 0.68486 0.87128 1.2074 4.4961 5.8104 1.2881 1.7529 0.47696 0.72201 0.39394 0.67193 0.32827 0.67063 0.25794 0.71386 0.14128 0.72031-0.002901 0.82892-0.17839 0.90884-0.2954 0.8265-0.21043 0.45786-0.46278 0.84607-0.99141 1.4757-0.96098 1.2423-1.3516 1.623-3.4421 4.0035-0.65122 0.81445-0.97021 1.4228-0.7381 1.4809-0.4225 1.5283-0.073497 0.82003 0.016103 0.82978 0.11347 1.0035 0.23631 1.1794 0.36834 1.3361 0.30264 0.86432 0.16105 0.299-0.49995 0.11132-3.8022 0.62804-1.0874 0.21366-1.5135 0.36791-1.4741 0.46277-0.4803 0.19421-1.3023 0.62949-0.52061 0.19914-0.71924 0.1569-1.2713 0.15494-0.65826 0.11859-0.71252 0.20924-0.72381 0.28706-0.59536 0.28063-0.59572 0.31709-0.94218 0.57834-0.81497 0.59024-0.85222 0.71346-1.0421 1.0087-2.4479 2.6574-1.0176 1.0499-1.4035 1.3061-1.4563 1.1838-1.4165 0.99754-0.8645 0.54909-3.3374 1.9297-1.3295 0.81502-1.6845 1.1702-3.3479 2.5248-1.4115 1.002-0.70298 0.45506-1.011 0.57481-0.86487 0.38321-0.72694 0.19534-0.83106 0.035687-0.74468-0.12915-0.56792-0.2205-0.26489-0.23509-1.4503-0.74396-17.647-9.473-3.4945-1.8157-3.4332-1.6714-1.7015-0.75074-1.6958-0.66714-1.6936-0.55397-1.6951-0.40123-1.7007-0.19646-1.43 0.026386-1.4347 0.17569-1.7007 0.35594-1.7032 0.47389-1.7052 0.55679-1.707 0.61305-6.8485 2.6555-3.4448 1.2533-1.7311 0.55484-1.7388 0.47851-1.7484 0.37369-1.8749 0.25109-1.5939 0.11704-4.7529 0.16683-1.5475 0.089492-4.2142 0.41341-1.5204 0.059749-1.4013-0.12464-1.242-0.41388-0.84914-0.59768-0.74411-0.80614-0.66298-0.96973-0.60151-1.0967-0.62818-1.3611-0.58744-1.4523-0.56096-1.5166-2.2567-6.4831-0.61745-1.6422-0.70451-1.7044-0.77925-1.6189-0.76416-1.2981-0.87937-1.1638-1.0328-0.98236-0.55591-0.3891-0.73421-0.41395-1.4065-0.59212-0.70112-0.22947-0.87197-0.24275-0.99125-0.23152-1.4426-0.26466-1.3978-0.18841-1.2619-0.12119-1.6651-0.10618-1.8649-0.070333-2.3968-0.015854-1.3511 0.030637-2.0355 0.11806-1.2819 0.15129-0.41934 0.07723-0.37349 0.1214-0.1249-0.33025-3.0582-6.9727-1.574-3.7087-2.0213-4.954-1.3275-3.5138-1.0838-3.2263-0.3631-1.2052-0.595-2.1849-0.23462-0.98203-0.28166-1.3858-0.20605-1.373-0.11106-1.3594-0.004767-1.0844 0.084497-1.0729 0.16583-0.98069 0.2996-1.1684 0.2854-0.86909 0.5072-1.306 0.71817-1.6317 0.56751-1.2052 3.0318-6.1413 3.5843-7.9872 0.4732-1.1876 0.36492-1.1771 0.11558-0.53921 0.072745-0.56259-0.045664-1.0724-0.11053-0.43861-0.53853-1.1349-0.44902-0.64309-0.529-0.63123-0.63528-0.65874-1.2301-1.1098-1.6661-1.3488-4.2688-3.2983-1.4122-1.0075-3.6005-2.4336-1.1276-0.83023-0.96386-0.79972-0.80348-0.76083-0.71948-0.77216-0.5441-0.64867-0.84288-1.151-0.73993-1.2001-0.40571-0.7332-0.54263-1.0943-0.30532-0.72969-0.22758-0.65652-0.24799-0.95001-0.21492-1.191-0.10353-0.90592-0.048149-0.87054 0.00814-0.8828 0.076972-0.8969 0.1486-0.83747 0.23975-0.79591 0.5746-1.1436 0.75-1.0603 1.6564-2.0055 0.72154-1.0073 0.51625-1.0512 0.22974-1.1373-0.040657-1.2305-0.15359-0.79871-0.23726-0.77153-0.47738-1.1195-1.4483-3.1522-0.41532-1.0289-0.26742-0.90241-0.29543-1.4433-0.10946-0.78645-0.077264-0.86148-0.004481-1.058 0.062541-0.43352 0.091687-0.1788 0.13729 0.013283 0.20803-0.033005 3.0722-0.84051 0.55341-0.12039 1.2229-0.16364 1.2798 0.019593 1.2316 0.24329 0.98751 0.3298 2.4373 1.0518 0.98252 0.38657 0.9819 0.27794 0.94382 0.12984 0.93598 0.026949 2.1661-0.082058 0.64924 0.028798 0.66332 0.114 0.32434 0.096464 0.52522 0.2173 0.73811 0.43845 0.4207 0.33657 0.66059 0.67697 1.5661 1.9432 0.50099 0.5087 0.57073 0.45031 0.67594 0.35761 1.0218 0.24503 1.148 0.027017 1.2449-0.14077 1.3184-0.26889 1.3735-0.36604 1.4141-0.43934 2.6626-0.94045 2.307-0.89042 5.3251-2.1644 3.3803-1.4549 1.8327-0.85025 4.0703-1.9685 1.4444-0.76305 1.2887-0.88283 0.51999-0.46634 0.7663-0.81618 0.88651-1.0952 0.71513-1.0134 0.75089-1.2359 0.64028-1.2999 0.35876-0.97054 0.2321-0.96601 0.074611-0.79154-0.055734-0.77819-0.40582-1.2483-0.72219-1.2127-0.95183-1.1875-1.1133-1.1719-1.2209-1.1652-3.9037-3.5522-1.269-1.2423-1.1978-1.2979-1.0886-1.3754-0.76064-1.1527-0.68692-1.2033-0.63222-1.2413-0.61663-1.3236-0.68723-1.608-0.64021-1.6306-0.59522-1.6451-0.54778-1.6529-0.49316-1.655-0.42622-1.6518-0.34109-1.6434-0.23103-1.6292-0.1975-2.8821-0.1823-1.7244-1.1062-7.0677-0.18605-1.7715-0.34496-5.8008-0.047755-2.5224 0.10905-3.8416 0.16488-3.5551 0.17475-2.3112 0.10995-0.89878 0.078618-0.26194 0.36447-0.55385 3.082-3.5297 0.99773-1.0392 1.0741-0.94695 1.5609-1.2227 2.5568-1.8316 1.4487-0.96147 1.2789-0.68834 1.3361-0.58288 1.3593-0.48974 1.3511-0.40215 1.2351-0.2882 1.0225-0.14413 0.8497-0.021294 0.8234 0.09876 0.71039 0.20452 0.69117 0.30053 1.1969 0.721 0.8916 0.67878 1.1348 1.0021 2.1896 2.0707 1.095 0.92152 1.1214 0.74519 0.60684 0.3004 1.8668 0.75554 1.3401 0.64131 1.3938 0.77379 1.4298 0.86332 4.2683 2.7088 1.3965 0.84727 1.0397 0.59 1.0229 0.52957 1.0009 0.45028 1.6276 0.60841 1.1836 0.4831 3.035 1.3084 0.88521 0.3204 1.7399 0.5275 0.83923 0.30662 0.60184 0.2852 1.0371 0.61192 0.72828 0.49616 1.2769 0.96565 2.2048 1.7766 0.92339 0.67354 0.87067 0.56554 0.85775 0.47169 0.70344 0.30127 0.6691 0.18677 0.69857 0.05715 0.65557-0.066164 2.1326-0.45246 1.1795-0.33257 0.90667-0.33937 0.90545-0.44737 0.79413-0.54218 0.3498-0.31916 0.31409-0.35243 0.38314-0.56856 0.34352-0.7945 0.20788-0.86654 0.085416-0.86026 0.004275-0.52333-0.10092-1.374-0.33591-2.9642-0.2448-1.2872-0.40499-1.1726-0.75632-1.7031-0.3629-0.8915-0.27539-0.93727-0.1126-0.97024 0.086659-0.96959 0.31376-0.97841 0.38626-0.76529 0.59436-0.91088 0.68461-0.8809 0.49771-0.58127 0.73518-0.79211 0.9389-0.90416 1.1773-0.96077 1.0795-0.68909 1.0559-0.50595 1.7549-0.74823 3.4767-1.5798 0.71764-0.29626 0.72206-0.24899 0.93166-0.23009 2.4536-0.40287 0.69896-0.14848 0.64794-0.18577 1.2555-0.48972 2.2841-1.1221 0.61789-0.22551 0.46829-0.11552 0.71696-0.097451 0.35203-0.019631 0.74013 0.018694 0.45055 0.059964 1.0299 0.24163 1.5569 0.46011 1.133 0.26596 0.63142 0.073884 0.60629-0.009085 0.5164-0.086423 0.75664-0.24071 1.4888-0.66204 0.4946-0.25851 0.15052 0.004033 0.19483 0.092527 0.50739 0.38942 0.76556 0.78974 0.5706 0.73896 0.5223 0.84843 0.59956 1.3499 0.45917 1.3889 0.53129 1.7569 0.35331 1.0152 0.42472 0.97843 0.84792 1.4173 1.0224 1.2799 1.1205 1.135 1.1492 0.97761 1.4594 1.121 0.62892 0.58545 0.64327 0.8238 0.50562 0.91527 0.37191 0.96335 0.13676 0.50426 0.11538 0.75032 0.009247 0.76575-0.1216 0.89231-0.22113 0.8937-0.27596 0.86818-1.0212 2.3963-0.3848 1.0248-0.18056 0.66125-0.083975 0.45182-0.052845 1.3513 0.17773 1.3867 0.34429 1.385 0.45899 1.3457 0.53075 1.2657 0.56539 1.1396 0.71836 1.3317 0.35791 0.92225 0.19037 0.95922 0.017872 0.52618-0.056971 0.80155-0.19396 1.5165-0.050057 0.84342 0.047823 0.74634 0.17835 0.588 0.29242 0.34572 0.33814 0.14664 0.3713 0.014757 0.33433-0.070315 0.80856-0.25059 1.707-0.42332 0.59741-0.21556 0.8778-0.44464 0.49336-0.32517 0.57234-0.43935 0.66733-0.57957 0.79924-0.76429 3.126-3.233 2.2585-2.2855 1.0465-1.0268 2.1379-1.9859 2.3322-2.0613 1.9236-1.5916 2.0565-1.5861 1.5289-1.0732 1.1826-0.76645 2.283-1.3333 0.94276-0.48981 1.4511-0.66051 1.5345-0.57135 1.5478-0.44755 1.2299-0.24847 1.4011-0.15825 1.5867-0.041104 2.9753 0.10038 1.5921-0.001455 1.7065-0.12726 2.4774-0.26468 0.99667-0.032061 0.51598 0.018813 0.8522 0.088939 0.72638 0.13458 0.95418 0.2642 0.76469 0.28875 0.59905 0.27657 0.82173 0.45806 0.71168 0.4769 0.80191 0.63871 0.89754 0.86232 0.71004 0.81349 0.63986 0.85775 0.40339 0.6167 0.66744 1.1739 0.93824 1.911 0.79368 1.7136 1.7558 3.9644 0.46378 0.97636 0.8869 1.6759 0.37725 0.62103 0.56756 0.80217 0.60919 0.64986 0.33033 0.24518 0.24192 0.12631 0.448 0.11665 0.45232-0.014356 0.4645-0.1392 0.43717-0.25113 0.66372-0.69776 0.30127-0.60838 0.11832-0.4713 0.035141-0.62881-0.072898-0.68478-0.29005-1.1394-0.50194-1.2979-0.55963-1.1644-0.46333-0.85739-0.95607-1.5792-3.0743-4.4955-0.94527-1.5914-0.56229-1.1091-0.26979-0.60516-0.46356-1.2232-0.19795-0.63962-0.19734-0.78106-0.1284-0.685-0.071905-0.60228-0.022197-0.62992 0.065369-0.6711 0.1562-0.47222 0.10664-0.16328 0.18922-0.15573 0.39042 0.018071" stroke="#bdc660"/>
    </defs>
    <g clip-path="url(#p3aba38abf7)">
     <use y="280.512" fill="#bdc660" stroke="#bdc660" xlink:href="#m6821cd0eb2"/>
    </g>
   </g>
  </g>
 </g>
 <defs>
  <clipPath id="p3aba38abf7">
   <rect x="7.2" y="7.2" width="265.39" height="266.11"/>
  </clipPath>
 </defs>
</svg>
