<?xml version="1.0" encoding="UTF-8"?>
<!DOCTYPE svg  PUBLIC '-//W3C//DTD SVG 1.1//EN'  'http://www.w3.org/Graphics/SVG/1.1/DTD/svg11.dtd'>
<svg width="368.11pt" height="280.51pt" version="1.1" viewBox="0 0 368.11 280.51" xmlns="http://www.w3.org/2000/svg" xmlns:xlink="http://www.w3.org/1999/xlink">
 <metadata>
  <rdf:RDF xmlns:cc="http://creativecommons.org/ns#" xmlns:dc="http://purl.org/dc/elements/1.1/" xmlns:rdf="http://www.w3.org/1999/02/22-rdf-syntax-ns#">
   <cc:Work>
    <dc:type rdf:resource="http://purl.org/dc/dcmitype/StillImage"/>
    <dc:date>2024-07-04T12:10:09.582790</dc:date>
    <dc:format>image/svg+xml</dc:format>
    <dc:creator>
     <cc:Agent>
      <dc:title>Matplotlib v3.7.1, https://matplotlib.org/</dc:title>
     </cc:Agent>
    </dc:creator>
   </cc:Work>
  </rdf:RDF>
 </metadata>
 <defs>
  <style type="text/css">*{stroke-linejoin: round; stroke-linecap: butt}</style>
 </defs>
 <g id="figure_1">
  <g id="patch_1">
   <path d="m0 280.51h368.11v-280.51h-368.11v280.51z" fill="none"/>
  </g>
  <g id="axes_1">
   <g id="PatchCollection_1">
    <defs>
     <path id="mf46afe5461" d="m266.13-223.15 0.10247 0.46107 2.264 6.2445 1.9309 5.8054 0.75682 1.9629 1.2085 2.8825 0.66488 1.7195 0.47382 1.6338 0.16732 1.1516-0.036817 1.1085-0.32781 1.2031-0.62311 1.1926-0.99475 1.3044-1.2236 1.2513-1.2046 1.0552-1.3022 1.0324-1.8838 1.3769-1.9783 1.3521-2.045 1.3291-3.1803 1.9627-3.4533 1.9995-3.1385 1.7137-8.2055 4.3485-6.0012 3.3165-1.8912 1.1149-1.7928 1.1209-1.6534 1.1282-1.4589 1.1371-1.1914 1.1483-0.8284 1.1622-0.34205 1.1795 0.14425 0.93489 0.46407 0.93845 0.72451 0.9325 0.72915 0.73133 0.84077 0.72127 1.06 0.80207 1.1554 0.78766 2.3925 1.4477 3.1715 1.7031 3.7944 1.8669 4.5687 2.0637 4.8271 2.0338 1.6325 0.63178 1.623 0.55578 1.5051 0.4178 1.1094 0.22898 1.4241 0.21963 1.7262 0.19077 4.5397 0.33764 1.1063 0.15223 2.0799 0.42648 1.707 0.44051 1.6512 0.60001 0.97226 0.49586 0.94409 0.59266 1.1935 0.89827 1.1574 1.0151 1.2661 1.2507 1.2405 1.3411 1.2614 1.4549 2.4731 3.0581 7.3049 9.5577 3.4994 4.3213 2.1185 2.4559 1.0514 1.1408 1.3118 1.3102 1.3094 1.1273 1.1738 0.7997 1.1786 0.54233 1.1857 0.21377 1.522-0.27259 1.0291-0.46029 1.0355-0.62771 1.4412-1.0716 4.4434-3.8391 1.0228-0.82784 1.0268-0.74955 1.3899-0.82706 0.92893-0.39552 1.6038-0.31223 1.2048 0.12423 1.1933 0.37454 1.2011 0.53846 0.92094 0.47868 0.70487 0.41517 4.28 2.8032 1.8231 1.0167 1.8194 0.76444 1.3095 0.36089 1.3332 0.24514 4.1416 0.477 1.1555 0.1943 1.3749 0.38673 1.1907 0.61294 1.0675 1.0499 0.70827 1.3475 0.21342 0.75175 0.1648 1.0807 0.019308 1.1224-0.15064 1.3059-0.20485 1.0267-0.56757 2.324-0.033648 0.49105-2.6466 1.945-2.3622 1.8723-1.9484 1.7317-0.86032 0.88546-0.76402 0.91448-0.55767 0.79959-0.48024 0.81174-1.5015 2.9775-0.61015 0.95524-1.1117 1.4658-0.82018 0.93515-2.5293 2.6781-0.73092 0.87983-0.82222 1.2416-0.38598 0.82187-0.30515 0.84045-0.20759 0.69281-0.15924 0.70636-0.061341 0.42205-0.029183 1.2374 0.13153 1.2746 0.71029 3.8575 0.29265 1.933 0.21396 0.93209 0.33549 0.92692 0.39064 0.77659 0.68398 1.0666 0.87104 1.0996 1.9773 2.0112 0.69828 0.97174 0.51868 1.0835 0.21602 0.73434 0.1056 0.74523-0.024328 0.75694-0.2893 1.0752-0.50833 1.0417-1.4898 2.3803-0.85342 1.4769-3.7512 5.3963-1.0218 1.1283-1.1249 1.0257-1.1151 0.87682-0.95877 0.66249-0.71138 0.42592-0.28563 0.20019-0.33108 0.56706-0.33826 0.79895-0.29911 0.93684-0.52601 2.329-0.37149 1.1257-0.53018 0.95871-0.69881 0.8572-0.83127 0.73712-0.59525 0.41128-1.3141 0.78602-2.8596 1.5738-1.3448 0.67757-1.3471 0.61676-1.6434 0.61752-0.96098 0.24395-0.80444 0.11183-0.88331 0.010362-0.85772-0.1239-1.1447-0.40666-1.0904-0.60479-3.0821-2.1891-0.65278-0.41446-0.92399-0.45437-0.70361-0.20893-0.84198-0.086737-0.882 0.053136-0.74374 0.12784-0.761 0.19089-1.6309 0.56008-1.2278 0.52009-1.4767 0.71787-1.8584 1.0753-4.5278 3.1827-7.4641 5.0702-3.3401 2.359-3.3448 2.4784-1.7491 1.383-1.415 1.183-1.0673 0.95179-0.38311 0.40308-0.42688-0.37781-0.68409-0.94096-0.79082-1.3074-0.77162-1.5341-0.65196-1.6622-0.447-1.7208-0.20441-1.9309-0.001964-3.3297 0.056916-1.3889 0.13726-1.3726 0.39416-2.0068 0.4861-1.9668 0.39737-1.9474 0.18594-1.9223 0.14169-4.1385-0.06533-1.2607-0.434-4.9316-0.21244-1.2049-0.54619-1.6642-0.81357-1.7764-0.81983-1.5379-1.2133-2.0259-0.75701-1.1121-0.77016-0.9961-1.3154-1.4708-0.75631-0.92228-1.0645-1.4299-0.42566-0.47946-0.77586-0.53118-0.9525-0.18793-0.98625 0.21019-0.9799 0.44213-1.0556 0.62534-6.1471 4.3316-4.5329 3.0488-1.3301 0.83796-1.0106 0.58128-1.3818 0.65702-0.55321 0.2007-0.8659 0.23368-0.92801 0.13822-1.7691-0.0982-1.132-0.35709-1.099-0.55781-1.0835-0.7246-1.0599-0.85206-1.0341-0.9434-0.9807-0.96805-1.8417-1.9836-3.4914-3.9797-0.95207-0.98146-0.98216-0.8592-1.0505-0.68757-1.0444-0.43822-0.57461-0.15285-1.5394-0.1753-1.4006 0.060974-1.451 0.2196-1.515 0.35436-1.5432 0.46321-1.5608 0.55453-1.3841 0.55417-2.5219 1.1392-1.7899 0.90321-6.9341 3.7755-1.7012 0.81259-1.0113 0.43158-1.5051 0.54204-0.943 0.26546-1.1228 0.23582-1.3019 0.16799-1.5866 0.09522-1.5351-0.082313-1.4599-0.35454-1.5521-0.82619-1.4522-1.1984-1.3795-1.4716-1.3277-1.6686-1.2923-1.8078-1.2696-1.9032-5.0355-8.0089-2.6018-3.9902-1.3527-1.9414-1.0439-1.4211-2.1383-2.7588-3.491-4.379-1.1048-1.4749-1.236-1.8006-1.2344-1.9029-1.1903-1.9509-3.3735-5.9465-2.8501-4.4122-2.5832-4.2752-1.5855-2.3287-1.5345-2.0065-1.3143-1.5173-1.963-2.0176-6.4333-5.9557-4.1549-4.1414-1.0532-0.95939-1.1865-0.99584-1.1977-0.85908-1.223-0.65759-1.2635-0.38039-0.68783-0.06415-0.70457 0.023583-0.79488 0.11474-0.97739 0.25091-1.1683 0.45035-1.0765 0.55248-1.1876 0.75402-1.136 0.87301-0.89654 0.81813-0.66985 0.7048-0.75033 0.90753-0.51607 0.71264-0.69881 1.1066-0.65296 1.1958-0.52617 1.1199-0.77023 2.0141-1.0668 3.4137-0.40539 1.1502-0.50597 1.1722-0.58722 1.0758-0.56943 0.82912-0.62828 0.73728-0.65733 0.6145-0.69911 0.50692-0.82619 0.42743-0.85474 0.2636-1.0511 0.098839-1.0936-0.065207-4.5751-0.53922-1.7919-0.25863-1.7682-0.35588-1.6831-0.50729-1.5309-0.72378-1.2358-0.90147-1.0882-1.0464-1.8903-2.1215-0.86628-0.86946-0.84984-0.59243-0.74099-0.20686-0.67991 0.10692-0.63686 0.48182-0.54977 0.75447-1.1448 1.8265-0.75328 0.83326-0.59906 0.4425-0.68124 0.38642-1.2956 0.58252-1.4068 0.45541-0.8118 0.17086-0.8198 0.078853-0.98339-0.055388-1.1347-0.25637-0.8619-0.34497-1.0115-0.62092-0.86442-0.813-0.35903-0.4763-0.70725-1.4945-0.33116-1.1346-0.63993-2.8083-0.28735-1.1036-0.40587-1.284-0.47531-1.2203-0.49538-1.0763-0.87061-1.6139-0.96824-1.5478-0.70222-1.0066-0.71402-0.94289-0.96905-1.1666-0.98714-1.0677-0.95741-0.93068-0.77738-0.68497-3.1902-2.4905-0.7723-0.70402-0.39806-0.42165-0.35526-0.47062-0.045581-0.25821-0.002952-0.10007-0.15718-0.35006-0.54134-1.0038-2.6207-4.5662-1.5958-2.9001-0.82206-1.6227-0.60469-1.3015-0.51779-1.2411-0.62384-1.8451-0.31727-1.3962-0.099187-0.729-0.018961-1.4264 0.22687-1.2942 0.49577-1.437 0.4103-0.89655 0.55286-1.0619 1.6381-2.9354 0.81031-1.5797 0.45668-0.97453 0.60556-1.4391 0.37263-1.0336 0.28605-0.97252 0.19788-0.9538 0.070639-0.61374 0.018757-0.68688-0.040843-0.62162-0.2336-1.2087-0.42653-1.2404-0.37634-0.84025-0.42503-0.81857-0.91212-1.5006-0.65051-0.93782-0.85158-1.1148-1.2528-1.4728-1.242-1.3033-1.5557-1.4458-0.8988-0.76439-2.9715-2.3449-1.3577-1.1176-4.2471-3.7499-1.9828-1.8858-1.5892-1.7153-0.55674-0.68385-0.53896-0.74801-0.39494-0.65161-0.32922-0.69735-0.23948-0.88032 0.046136-0.81069 0.19131-0.43213 0.48222-0.57713 0.65752-0.52581 0.64632-0.42372 2.2477-1.3214 1.5583-1.0063 0.6996-0.53898 0.58108-0.52016 0.80342-0.87838 0.80356-1.1034 0.61298-1.0271 0.51695-1.0229 0.42299-0.98026 0.52228-1.4509 0.35751-1.1939 0.49429-2.1519 0.24367-1.7022 0.072916-1.0446 0.010051-0.80204-0.04352-0.92058-0.12059-1.0002-0.25951-1.2423-0.17613-0.62925-0.2748-0.82249-0.51106-1.2599-0.68243-1.4011-0.5969-1.0587-0.54151-0.81669-0.17345-0.1901-0.078127-0.030821 0.12536-0.46749 0.63742-0.86936 1.0958-0.97799 1.4729-0.92652 1.734-0.75914 1.9007-0.49833 1.0066-0.13102 0.81997-0.054825 1.4296-0.014115 1.4182 0.068354 1.4635 0.14432 0.81266 0.11876 1.4033 0.27593 3.5831 0.80859 1.8374 0.36182 2.7886 0.40017 2.1769 0.18993 2.0444 0.080647 1.9702-0.018 1.3168-0.076 1.6069-0.17205 1.7188-0.3213 0.73053-0.20842 1.022-0.4052 0.87613-0.4919 0.73884-0.56908 0.8733-0.96281 0.7594-0.98058 0.76796-0.7918 0.70908-0.50047 1.3818-0.69762 2.6102-1.0046 1.7124-0.54691 2.7581-0.7205 1.0148-0.18343 1.2142-0.10891 1.2474-0.004005 1.2041 0.079096 1.7173 0.21712 1.5284 0.25777 1.5235 0.33492 1.4996 0.44832 1.0111 0.39164 0.99101 0.45134 1.4414 0.75233 3.1021 1.7573 1.1136 0.58658 1.6631 0.73817 1.4081 0.47282 4.0195 1.0385 0.99556 0.312 3.5865 1.2455 1.0576 0.31542 1.4645 0.34534 1.4899 0.18574 1.4651-0.026227 1.4938-0.20621 1.5147-0.35235 1.911-0.60512 1.7894-0.69804 4.1145-1.8558 2.1361-1.0214 2.1302-1.0848 2.0016-1.1 5.947-3.4524 1.994-1.1027 2.0174-1.025 2.0539-0.90767 0.69158-0.26691 1.0629-0.36556 1.5103-0.43047 2.2609-0.49126 2.3014-0.36306 2.3311-0.26906 2.3526-0.20102 2.3679-0.1525 4.7652-0.21346 16.787-0.46053 7.1828-0.26416 4.7442-0.29326 2.3427-0.21433 2.3109-0.28326 2.2655-0.37746 2.202-0.50471 2.1145-0.67466 1.6673-0.71676 1.4684-0.77985 1.6217-1.0192 0.82464-0.5815 1.6431-1.2755 1.7108-1.4312 1.3697-1.0412 0.95503-0.55024 0.95518-0.37001 0.64919-0.14406 1.3529-0.083486 1.3156 0.10482 0.93306 0.14241 1.5768 0.32351 1.4817 0.36852 2.8576 0.78226 1.8081 0.57472 1.7463 0.7035 1.2643 0.65164 1.2177 0.72312 2.799 1.767 1.3503 0.75997 3.1258 1.4668 0.91892 0.51537 0.97823 0.67333 0.95242 0.7846 1.0637 1.0203 1.0388 1.1275 0.76282 0.89933 1.6468 2.1198 0.88373 1.2244 4.3518 6.3728 1.4736 2.0687 1.5389 2.037 2.0257 2.4519 1.5903 1.7333 3.4319 3.4444 1.0892 1.1944 0.65478 0.8507 0.41434 0.68387 0.074996 0.5007" stroke="#bdc660"/>
    </defs>
    <g clip-path="url(#pdaddb0579a)">
     <use y="280.512" fill="#bdc660" stroke="#bdc660" xlink:href="#mf46afe5461"/>
    </g>
   </g>
  </g>
 </g>
 <defs>
  <clipPath id="pdaddb0579a">
   <rect x="7.2" y="7.2" width="353.71" height="266.11"/>
  </clipPath>
 </defs>
</svg>
