<?xml version="1.0" encoding="UTF-8"?>
<!DOCTYPE svg  PUBLIC '-//W3C//DTD SVG 1.1//EN'  'http://www.w3.org/Graphics/SVG/1.1/DTD/svg11.dtd'>
<svg width="220.53pt" height="280.51pt" version="1.1" viewBox="0 0 220.53 280.51" xmlns="http://www.w3.org/2000/svg" xmlns:xlink="http://www.w3.org/1999/xlink">
 <metadata>
  <rdf:RDF xmlns:cc="http://creativecommons.org/ns#" xmlns:dc="http://purl.org/dc/elements/1.1/" xmlns:rdf="http://www.w3.org/1999/02/22-rdf-syntax-ns#">
   <cc:Work>
    <dc:type rdf:resource="http://purl.org/dc/dcmitype/StillImage"/>
    <dc:date>2024-07-04T12:10:12.086272</dc:date>
    <dc:format>image/svg+xml</dc:format>
    <dc:creator>
     <cc:Agent>
      <dc:title>Matplotlib v3.7.1, https://matplotlib.org/</dc:title>
     </cc:Agent>
    </dc:creator>
   </cc:Work>
  </rdf:RDF>
 </metadata>
 <defs>
  <style type="text/css">*{stroke-linejoin: round; stroke-linecap: butt}</style>
 </defs>
 <g id="figure_1">
  <g id="patch_1">
   <path d="m-0 280.51h220.53v-280.51h-220.53v280.51z" fill="none"/>
  </g>
  <g id="axes_1">
   <g id="PatchCollection_1">
    <defs>
     <path id="md99c78e56a" d="m189.84-219.34-0.068278 0.89248-0.00531 1.7676 0.14454 6.0896 0.11504 2.2276 0.5008 6.7139 0.064097 1.3315 0.015142 2.1286-0.073607 1.578-0.10428 1.1551-0.3116 2.2857-0.19904 1.1312-0.43193 2.0636-1.2797 5.496-0.32442 1.8527-0.10576 1.0879-0.03862 1.36 0.045187 1.3617 0.090384 1.165 0.13472 1.1646 0.34865 2.0512 0.5096 2.0763 0.33208 1.0448 0.46249 1.1961 0.86799 1.772 0.59801 1.035 1.0121 1.5045 1.0036 1.2401 1.0992 1.1196 3.5955 3.1519 2.5016 2.1087 1.5965 1.4775 0.68422 0.7231 0.92789 1.1149 0.38535 0.5784 0.028219 0.1976-0.031357 0.086598-0.35431 0.16771-1.8845 0.56146-9.2399 2.301-3.9011 1.0577-3.4482 1.0825-2.2576 0.8533-1.04 0.45458-1.9106 0.96087-2.7313 1.5586-1.9528 1.2123-1.2114 0.88082-0.7271 0.62823-0.64786 0.70928-0.37502 0.56047-0.30982 0.6861-0.15703 0.59245-0.096247 0.93734 0.058836 1.1379 0.11888 0.77637 0.21727 0.98825 1.5366 5.5774 0.93031 3.9135 0.26095 1.5998 0.084216 0.93819 0.022748 1.7527-0.13459 2.0002-0.27825 2.4732-0.2471 1.7842-0.2972 1.6039-0.35617 1.452-0.50863 1.6651-0.84432 2.522-0.36293 1.2574-0.44132 1.9424-0.48123 2.4734-0.4331 1.8528-0.44689 1.4923-0.8823 2.3335-2.2524 5.0952-1.0358 2.4604-0.5103 1.3138-1.0005 2.8031-0.55823 1.4102-0.71151 1.4655-0.65767 1.0822-0.7349 0.98177-0.81052 0.8628-1.1338 0.92701-1.4376 1.0281-0.87297 0.68549-0.68888 0.63774-0.79895 0.87774-0.98924 1.3262-0.5884 0.94862-0.56806 1.0641-0.66748 1.4705-2.2503 5.6824-1.9086 4.5257-0.50571 1.2493-0.83236 2.2554-0.50073 1.6105-0.44853 1.801-0.23826 1.1923-0.65659 4.0291-0.44634 2.3521-0.38688 1.5382-0.4081 1.2768-0.39319 0.98952-0.48818 1.0079-0.76651 1.2428-0.53367 0.67312-0.37729 0.3762-0.49641 0.33135-0.35254 0.004184-0.59006 0.20138-1.247 0.57641-1.0738 0.63356-0.70217 0.52897-0.51265 0.50604-0.46863 0.6473-0.86978 1.4878-0.61241 0.84848-0.45141 0.51639-0.88124 0.87914-1.1921 1.0212-6.8877 5.027-1.8163 1.1505-1.7619 0.92934-1.5507 0.63327-0.99805 0.29459-0.54872 0.11068-1.961 0.32852-3.439 0.41266-1.3801 0.22063-3.9094 0.80276-5.9004 0.86995-2.0881 0.42481-1.3109 0.34623-0.086258-0.38542-0.3489-0.95483-1.2937-3.1417-1.6708-3.6812-2.5752-5.3962-1.0714-2.3852-1.3455-3.2392-1.2887-3.4314-0.71677-2.0565-1.5642-4.7731-1.2741-4.0594-1.357-4.5167-0.9004-3.1702-0.83969-3.2856-0.72716-3.3257-0.20547-1.2204-0.19624-1.7497-0.032705-1.5287 0.21997-2.8593 0.016032-0.81894-0.1616-1.1262-0.59802-1.2155-0.98902-1.0506-0.8724-0.62555-4.5475-2.696-2.8365-1.7356-2.7252-1.7692-2.7374-1.9097-4.2903-3.1803-1.7905-1.3906-1.4961-1.251-1.4136-1.3734-1.288-1.4953-1.1054-1.4666-2.9883-4.3775-3.7673-5.2987-2.048-3.0674-1.3199-2.2049-1.4466-2.6908-1.85-3.8004-1.245-2.8816-1.061-2.9137-0.67465-2.2681-0.32254-1.3299-0.23586-1.2128-0.16934-1.1499-0.16448-1.9204-0.021809-1.5719 0.099751-1.7346 0.18293-1.4143 0.33392-1.5884 0.24132-0.85858 0.53279-1.573 1.5681-3.8955 1.3932-3.1063 1.445-2.8422 0.64934-1.1493 1.3084-2.0945 1.0688-1.5436 2.5156-3.4902 0.5996-0.8968 0.6257-1.0167 0.46569-0.83931 0.53361-1.1089 0.40449-1.0504 0.22723-0.78747 0.20316-1.1885 0.035941-1.2145-0.042475-0.58082-0.12598-0.85464-0.35958-1.4532-0.35745-1.0555-0.62854-1.518-0.82893-1.6887-0.95882-1.7193-0.98628-1.6035-1.1029-1.6603-0.98503-1.3953-2.2214-2.9239-3.0607-3.772-2.5172-2.9614-1.7047-1.8496-1.2403-1.2179-1.8272-1.6629-1.9075-1.5795-3.9663-3.0972-0.40862-0.36311-0.83071-0.84976-0.65176-0.84132-0.37535-0.59722-0.33015-0.62864-0.28834-0.66341-0.36949-1.0808-0.18049-0.66223-0.27028-1.1568-0.10791-0.65716-0.22142-0.30348-2.1749-2.5421-0.85581-1.0618-0.79011-1.0715-0.7798-1.3314-0.64019-1.4452-0.49275-1.5115-0.4929-2.2444-0.24432-1.6524-0.13844-1.6292-0.011832-1.5711 0.14561-1.4782 0.67866-2.8935 0.18397-1.1495 0.41909-3.6408 0.20463-1.0605 0.27367-1.04 0.34986-1.005 0.55858-1.2285 0.45614-0.85176 0.79249-1.1956 0.38007-0.4696 0.54018-0.57964 1.0565-0.94752 1.0484-0.79705 0.97065-0.65408 0.9915-0.59821 1.0544-0.55787 1.6575-0.73187 1.0791-0.40746 2.4073-0.81017 1.518-0.5908 0.9826-0.43288 5.4956-2.7689 8.0299-3.8372 1.3641-0.71443 1.2859-0.78946 1.1452-0.86605 0.92747-0.94002 0.623-0.9991 0.25324-0.92382 0.019522-0.54476-0.072533-0.46729-0.3375-0.5257 0.46329-0.15059 0.52016-0.095799 1.5901-0.18766 2.5249-0.14645 1.676-0.038002 2.9731 0.019665 2.3132 0.087244 2.0654 0.13171 1.5653 0.15033 1.7339 0.23371 1.7895 0.32829 1.2296 0.28719 1.0816 0.30111 0.86969 0.28464 1.7447 0.73449 0.91074 0.51348 0.68956 0.48265 1.2811 1.2185 1.0908 1.4436 0.94789 1.6102 0.96661 2.0082 0.8739 2.1142 0.7659 2.0371 2.7993 8.0418 0.69583 1.8813 0.72868 1.8015 0.77922 1.6883 0.74613 1.3604 0.82238 1.2029 0.92302 0.99996 1.0533 0.74138 1.5407 0.51339 1.7382 0.15461 1.886-0.074114 5.2275-0.5128 1.9196-0.11101 5.8957-0.20694 1.9772-0.14518 2.3256-0.31146 2.1687-0.46353 2.1569-0.59356 2.1473-0.68824 4.273-1.5547 8.4951-3.294 2.1174-0.76044 2.1152-0.69066 2.1128-0.58783 2.1096-0.44152 1.7796-0.21793 1.7738-0.03273 2.1096 0.2437 2.1026 0.4977 2.1008 0.68716 2.1036 0.82755 2.1106 0.93124 4.2586 2.0732 4.3347 2.2522 21.89 11.751 1.799 0.92283" stroke="#bdc660"/>
    </defs>
    <g clip-path="url(#pf949e0fc81)">
     <use y="280.512" fill="#bdc660" stroke="#bdc660" xlink:href="#md99c78e56a"/>
    </g>
   </g>
  </g>
 </g>
 <defs>
  <clipPath id="pf949e0fc81">
   <rect x="7.2" y="7.2" width="206.13" height="266.11"/>
  </clipPath>
 </defs>
</svg>
