<?xml version="1.0" encoding="UTF-8"?>
<!DOCTYPE svg  PUBLIC '-//W3C//DTD SVG 1.1//EN'  'http://www.w3.org/Graphics/SVG/1.1/DTD/svg11.dtd'>
<svg width="323.07pt" height="280.51pt" version="1.1" viewBox="0 0 323.07 280.51" xmlns="http://www.w3.org/2000/svg" xmlns:xlink="http://www.w3.org/1999/xlink">
 <metadata>
  <rdf:RDF xmlns:cc="http://creativecommons.org/ns#" xmlns:dc="http://purl.org/dc/elements/1.1/" xmlns:rdf="http://www.w3.org/1999/02/22-rdf-syntax-ns#">
   <cc:Work>
    <dc:type rdf:resource="http://purl.org/dc/dcmitype/StillImage"/>
    <dc:date>2024-07-04T12:10:10.261735</dc:date>
    <dc:format>image/svg+xml</dc:format>
    <dc:creator>
     <cc:Agent>
      <dc:title>Matplotlib v3.7.1, https://matplotlib.org/</dc:title>
     </cc:Agent>
    </dc:creator>
   </cc:Work>
  </rdf:RDF>
 </metadata>
 <defs>
  <style type="text/css">*{stroke-linejoin: round; stroke-linecap: butt}</style>
 </defs>
 <g id="figure_1">
  <g id="patch_1">
   <path d="m0 280.51h323.07v-280.51h-323.07v280.51z" fill="none"/>
  </g>
  <g id="axes_1">
   <g id="PatchCollection_1">
    <defs>
     <path id="mef08cd0340" d="m232.26-253.55 0.12756 0.3091 0.072712 0.7502 0.03052 1.0108-0.015121 1.1427-0.068169 1.1821-0.26917 2.7845-0.002854 1.0858 0.19837 0.93151 0.48222 0.74914 0.72623 0.5189 0.54557 0.19792 0.60802 0.13269 3.3989 0.44124 1.383 0.31019 0.31482 0.10118 1.0098 0.43585 0.93158 0.5584 0.83446 0.64764 0.71154 0.70995 0.55407 0.75024 0.35129 0.77209 0.090183 0.7778-0.24116 0.81782-0.53245 0.78708-0.75592 0.73507-0.24968 0.19775-0.89853 0.62174-1.8921 1.1996-0.88607 0.61556-0.8438 0.6533-0.78582 0.7012-0.68589 0.73253-0.55356 0.75719-0.33507 0.65252-0.18659 0.66046 0.023536 0.95184 0.30977 0.92145 0.52947 0.85288 0.55224 0.62895 0.79322 0.77831 0.64176 0.55395 1.0268 0.76456 0.74595 0.47817 0.79302 0.42585 0.35611 0.16206 0.81416 0.31998 0.9443 0.31102 0.85369 0.24058 1.1019 0.25336 0.7306 0.12691 1.4332 0.19816 2.7138 0.33223 0.78411 0.070589 0.77166-0.003031 0.8785-0.17314 0.49166-0.2124 0.46819-0.28867 0.56866-0.46646 0.60117-0.64165 0.36584-0.47781 0.33758-0.51114 0.45386-0.80983 0.38963-0.81013 0.34667-0.80646 0.49477-1.2596 0.29743-0.85206 0.39557-1.3348 0.20778-0.85139 0.22717-1.1179 0.71126-4.7915 0.14635-0.82394 0.20951-0.93424 0.3165-1.0999 0.4798-1.2416 0.62687-1.3411 0.45241-0.86466 0.6533-1.1212 0.59693-0.90736 0.56967-0.76413 0.66109-0.75364 0.62092-0.57308 0.29689-0.23015 0.4894-0.32436 0.65939-0.34084 0.3216-0.1287 0.90246-0.2431 0.84169-0.078724 0.77524 0.08062 0.76155 0.25998 0.7297 0.38063 0.85125 0.54762 0.65823 0.54674 1.3312 1.2834 0.67825 0.57442 0.35176 0.24462 1.5858 0.97569 0.41677 0.33428 0.51584 0.55908 0.94779 1.3182 0.51594 0.67234 0.58883 0.62705 0.64909 0.56884 0.68495 0.49918 0.63231 0.37263 0.84718 0.35251 0.82947 0.2624 2.2184 0.51459 0.89321 0.32667 0.82884 0.46135 0.80363 0.59942 0.76892 0.71334 0.61383 0.67472 0.57162 0.72418 0.59114 0.87366 0.49694 0.88995 0.43357 1.0443 0.20406 0.93388-0.052916 0.70524-0.27478 0.29562-0.08423 0.12359-0.29843 0.28445-1.4092 1.2539-1.0674 1.0021-0.51194 0.54336-0.4911 0.60959-0.40511 0.65413-0.27964 0.77698-0.034342 0.75015 0.17206 0.75283 0.34634 0.74383 0.38196 0.57989 0.46054 0.56479 0.76625 0.77366 0.58226 0.50586 0.62146 0.4891 0.64095 0.46442 1.3005 0.8621 1.4286 0.87363 3.4361 2.0142 0.85866 0.52606 0.84239 0.54917 0.7944 0.56588 0.61121 0.48528 0.55916 0.50606 0.44176 0.46875 0.38432 0.49268 0.37763 0.61695 0.47509 1.0091 0.25528 0.67325 0.24535 0.73802 0.29966 1.1214 0.1009 0.5493 0.058169 0.48489 0.028055 0.74501-0.024605 0.58884-0.092883 0.88919-0.28536 2.0333-0.063209 0.76248-0.020549 0.93216 0.075724 1.4618 0.35646 3.0842 0.097029 1.042 0.030432 0.91901-0.034038 1.1776-0.12904 1.573-0.16427 1.0913-0.092098 0.45695-0.42469 1.6523-0.59911 1.9953-0.4415 1.2155-0.53872 1.2391-0.7254 1.4111-0.78884 1.3188-0.61241 0.90328-0.742 0.98869-0.89384 1.0489-0.77472 0.81948-0.66948 0.66712-0.67069 0.61813-0.67881 0.55064-1.8574 1.2809-0.55368 0.46935-0.83727 0.84472-1.4413 1.6269-0.85025 1.048-1.1811 1.5525-2.1055 2.8721-0.83581 1.2036-0.59559 0.97994-0.35297 0.73281-0.23708 0.74887-0.077666 0.5044-0.021044 0.44586 0.041231 0.69832 0.087526 0.5551 0.17535 0.72289 0.27751 0.84344 0.30066 0.74726 0.45672 0.97545 0.38519 0.73433 0.36148 0.63876 1.16 1.9027 0.56934 1.0671 0.21376 0.48312 0.18886 0.51826 0.17075 0.68761 0.069806 0.83495-0.044183 0.8615-0.074598 0.60288-0.26452 1.4719-0.30531 1.3074-0.18954 0.67674-0.4966 1.4683-0.73068 1.8271-0.64398 1.3964-0.96885 1.8746-0.3782 0.87179-0.15571 0.44206-0.18022 0.64767-0.12615 0.71799-0.029515 0.3254 0.006324 0.77978 0.11564 0.74317 0.20835 0.72097 0.45933 1.0412 0.35413 0.59307 0.56052 0.7103 0.56541 0.43978 0.41059 0.1011 0.26805-0.15431 0.048125 0.018985 0.10684 0.1171 0.33356 0.50307 0.36768 0.65216 0.42037 0.86303 0.3148 0.77605 0.16927 0.50664 0.1085 0.3876 0.15985 0.76525 0.074281 0.61608 0.026808 0.56706-0.006192 0.49404-0.044914 0.64345-0.1501 1.0485-0.30447 1.3255-0.22022 0.73545-0.32171 0.89373-0.26055 0.60382-0.31844 0.63006-0.37759 0.63268-0.49498 0.67967-0.49489 0.54107-0.35793 0.32041-0.43094 0.332-0.9599 0.61985-1.3845 0.81398-0.39812 0.261-0.40502 0.32389-0.29704 0.3555-0.11784 0.26618-0.028419 0.49937 0.14752 0.54226 0.20279 0.42956 0.24328 0.40138 0.33199 0.46076 0.34294 0.42124 0.97894 1.0566 1.2214 1.1616 2.6161 2.3099 0.83634 0.68842 1.8304 1.4444 0.55364 0.47085 0.95831 0.89056 0.76506 0.80279 0.77169 0.9072 0.52456 0.68669 0.4007 0.57768 0.56185 0.92437 0.26181 0.50422 0.23182 0.51758 0.26273 0.76406 0.1439 0.74454 0.025159 0.38291-0.011555 0.4231-0.043512 0.37805-0.12189 0.58752-0.1762 0.59905-0.22954 0.6367-0.37302 0.88645-0.28131 0.6003-0.49914 0.97308-1.009 1.8081-0.34056 0.65411-0.25274 0.55226-0.30539 0.88519-0.13975 0.79718 0.01168 0.87863 0.061097 0.44905 0.19543 0.86001 0.38427 1.1365 0.31895 0.76448 0.37248 0.80168 0.50638 0.99955 0.98296 1.7864 1.6143 2.8127 0.33346 0.61834 0.096821 0.21563 0.001819 0.061641-0.078622 0.088493-0.32079 0.25527-0.52783 0.38793-1.3742 0.93734-1.3694 0.85548-0.89687 0.51967-2.1252 1.1341-5.8425 2.9608-0.94134 0.52743-1.1077 0.71966-2.4199 1.7336-1.2245 0.84231-0.72771 0.47445-0.90093 0.52408-0.94855 0.40828-1.0265 0.17789-1.0461-0.17341-1.0601-0.45932-1.0682-0.6599-1.0704-0.79348-1.0662-0.87299-3.0855-2.6479-0.94729-0.74338-0.87381-0.58463-0.77069-0.35417-0.62865-0.032928-0.33286 0.21245-0.22742 0.3418-0.071349 0.17117-0.12715 0.48698-0.05643 0.43461-0.016194 0.94133 0.1237 1.7387 0.021703 0.88916-0.079672 0.89004-0.22164 0.88062-0.33538 0.8653-0.40684 0.84843-1.0007 1.9168-0.36483 0.84338-0.25943 0.84759-0.1208 0.88799 0.027408 0.85602 0.39022 2.0861 0.028953 0.88598-0.086767 0.95476-0.19542 1.0003-0.25549 0.89479-0.34894 0.96997-0.61914 1.4084-0.7364 1.4145-0.34423 0.59357-0.88583 1.3697-1.0554 1.5059-0.61036 0.80486-0.65095 0.77403-0.83522 0.9035-0.35006 0.35283-0.83681 0.74306-0.85561 0.58983-0.24772 0.14706-1.0739 0.54027-1.1402 0.46272-3.517 1.2574-1.1 0.48605-1.0016 0.58206-0.85498 0.72467-0.42089 0.5189-0.3984 0.65161-0.41737 0.90402-0.3539 0.97185-0.82665 2.7239-0.59301 1.7537-0.35862 0.87896-0.52442 1.0712-0.60972 0.98326-0.73178 0.86393-0.5308 0.40169-0.18715 0.084763-0.20287 0.048783-0.16678-0.006792-0.098333-0.036686-0.12928-0.12968-0.036064-0.029295-0.13704-0.030063-0.3212-0.044852-5.206-0.58482-1.9382-0.26944-1.0358-0.17815-1.3327-0.32229-1.0723-0.3311-0.84123-0.31152-0.51593-0.22711-0.49166-0.25021-0.82295-0.50864-0.66272-0.5273-0.49285-0.51189-0.34129-0.47661-0.17792-0.32888-0.17246-0.41144-0.10957-0.33694-0.15946-0.70244-0.11471-1.0328-0.077216-1.376-0.12876-1.1287-0.23862-0.90493-0.16268-0.37961-0.24021-0.41659-0.40669-0.51766-0.47429-0.45723-0.68519-0.51092-0.4725-0.2849-0.4829-0.24997-0.53862-0.23982-0.63562-0.24238-0.64413-0.21275-1.0212-0.28551-1.1056-0.25088-0.89619-0.16879-1.028-0.16074-1.9166-0.21756-1.894-0.10981-1.8574-0.005051-1.5815 0.065338-1.9374 0.18203-1.0284 0.15315-0.69975 0.14368-0.66798 0.18128-0.90796 0.34984-0.6008 0.33311-0.53372 0.40954-0.44622 0.47644-0.38727 0.54389-0.47784 0.8646-0.42177 0.9372-0.98952 2.4395-0.41773 0.91418-0.3862 0.71986-0.43563 0.6659-0.63218 0.72363-0.42805 0.35911-0.52256 0.34865-0.70148 0.37292-0.87338 0.37494-0.80678 0.28265-0.68436 0.19723-0.36888 0.091834-1.3085 0.25446-1.6437 0.20485-1.4278 0.11417-1.7231 0.070078-1.1277 0.007038-2.0809-0.058198-1.0713-0.073758-1.7723-0.20968-1.5912-0.29601-4.1997-0.95609-1.2457-0.31895-1.2016-0.40088-0.77984-0.35615-0.63488-0.38166-0.60866-0.44025-0.45976-0.36925-3.1662-2.7572-2.9912-2.3563-1.544-1.2666-1.1188-1.0285-0.79741-0.81075-0.76902-0.84306-1.3079-1.5766-0.95113-1.267-0.7925-1.1579-0.71425-1.1742-0.41019-0.76187-0.37398-0.77847-0.44924-1.1051-0.3682-1.1378-0.80897-2.9797-0.31057-1.0346-0.34187-0.99853-0.36866-0.92032-0.39299-0.82946-0.63195-1.0838-0.7707-1.028-0.97152-0.9949-1.0905-0.89404-1.1652-0.80223-1.1883-0.71068-1.1456-0.60952-1.0131-0.4873-1.0653-0.44942-0.094837-0.16356-0.18567-0.57934-2.0417-7.2528-0.93005-3.0798-0.48434-1.4749-0.47885-1.3471-0.49686-1.2717-0.52335-1.1904-0.54837-1.0713-0.5791-0.92152-0.47702-0.58797-0.50656-0.44952-0.54326-0.28232-0.30781-0.072367-0.37491-0.016953-0.46688 0.06748-0.42326 0.12977-0.51381 0.23075-0.34877 0.1972-0.85019 0.59348-2.906 2.35-0.52168 0.49846-1.0212 1.1113-0.78221 0.79302-0.44264 0.39364-0.79812 0.66061-0.58294 0.44079-1.0211 0.67318-0.64006 0.35374-0.68859 0.32082-0.78806 0.30354-1.7592 0.6002-1.1706 0.47528-1.2189 0.58151-2.5667 1.3806-0.95576 0.46913-0.72035 0.31449-0.65548 0.24777-0.52941 0.1676-0.64544 0.15767-0.6956 0.10956-0.70105 0.064325-1.4939 0.079631-3.7991 0.12996-0.77361 0.007239-0.92411-0.028208-1.2061-0.080263-1.6942-0.17068-1.227-0.17893-0.66432-0.14677-0.71202-0.19846-0.65974-0.26817-0.22146-0.12337-0.53156-0.4226-0.49387-0.72535-0.22087-0.55576-0.1514-0.59081-0.14378-0.99363-0.06359-0.82665-0.14121-3.439-0.093491-1.3741-0.6278-6.439-0.14464-1.9723-0.1493-2.5413-0.027886-1.5087 0.022855-0.86696 0.14225-1.9984 0.10212-0.92795 0.33129-2.272 0.51737-2.7626 0.34546-1.5168 0.30656-1.1839 0.33503-1.1676 0.57986-1.7789 0.35744-0.96404 0.38333-0.93668 0.50023-1.0866 0.54501-1.0251 0.38848-0.63725 0.4125-0.59775 1.3873-1.7341 0.36194-0.49062 0.39112-0.60278 0.29122-0.54088 0.20365-0.46403 0.15304-0.43177 0.16389-0.62633 0.085172-0.49798 0.054101-0.57038 0.012144-0.89154-0.050054-1.734 0.031817-0.93211 0.18261-2.4099 0.024915-0.6423-0.005827-0.63515-0.082521-0.87976-0.19928-0.84853-0.21849-0.56053-0.2755-0.55056-0.47947-0.81104-1.2689-1.9227-6.3656-9.2425-1.9902-2.9752-1.2273-1.8997-1.1794-1.8946-1.2096-2.0525-0.87841-1.6032-1.3597-2.5654-0.68826-1.198-0.71616-1.1692-0.73831-1.1357-0.75659-1.0937-0.77289-1.0388-0.78919-0.96545-0.80766-0.86673-0.50668-0.46406-0.79016-0.56474-0.8745-0.43629-0.99822-0.30513-1.0631-0.16806-1.1098-0.051994-1.141 0.050671-0.95715 0.11454-0.74807 0.13224-0.74897 0.17056-1.2583 0.37402-0.78482 0.2844-1.2311 0.51409-1.119 0.52358-1.208 0.60633-3.4484 1.845-1.6148 0.82232-1.0667 0.49413-0.96554 0.40558-1.125 0.41079-0.61931 0.18904-1.0197 0.24226-1.0375 0.16985-1.03 0.10535-1.0403 0.053825-1.0476 0.009505-1.3186-0.043144-1.3189-0.099915-1.3689-0.16477-1.3497-0.23189-0.95895-0.21674-0.93386-0.26536-1.0879-0.3995-1.0185-0.49422-0.92477-0.60277-0.5273-0.44936-0.4681-0.5063-0.27602-0.37225-0.2081-0.32945-0.31485-0.59919-0.31139-0.74765-0.3607-1.1256-0.26606-1.0649-0.22364-1.1485-0.17956-1.2174-0.15284-1.5344-0.042221-0.12748-0.018175-0.12726-0.24819-0.37253-0.59762-0.71804-0.44068-0.46572-1.0282-0.95159-1.6112-1.3581-2.3157-2.03-0.70796-0.72107-0.64635-0.79871-0.65186-0.96898-0.38516-0.66661-0.55904-1.1413-0.29788-0.77037-0.21388-0.67292-0.32821-1.3373-0.22455-1.3211-0.086765-0.7501-0.058213-0.75035-0.029103-0.87704 0.024874-0.87592 0.068115-0.7007 0.20894-1.1932 0.82418-3.5397 0.27819-1.3291 0.12819-0.72855 0.20069-1.4721 0.067161-0.74398 0.047407-1.0164-0.009752-1.371-0.041282-0.8576-0.32254-4.3241-0.074093-1.4347-0.093091-3.922 0.00342-1.1384 0.043975-0.57481 0.21162 0.18782 0.45372 0.17616 0.59494 0.10318 0.66395-0.028511 0.58076-0.15606 0.69095-0.30615 0.8077-0.45922 0.56162-0.36356 1.1277-0.80048 2.6747-2.0171 1.3458-0.9349 1.0621-0.65113 2.6663-1.5416 0.69066-0.43868 1.1317-0.79695 1.1634-0.94575 1.1213-1.0435 0.81297-0.83879 1.9556-2.123 0.83254-0.80588 0.68086-0.57 0.65109-0.47155 0.75272-0.46204 0.47593-0.25333 0.47564-0.2242 0.57826-0.22934 0.56924-0.16717 0.52589-0.094739 1.0157-0.12378 0.57461-0.12535 0.41592-0.1591 1.0404-0.50291 0.38372-0.15516 1.1777-0.36972 1.2092-0.29393 0.86871-0.1707 3.0376-0.50175 0.39942-0.08894 0.18804-0.067574 0.36715-0.038759 0.44517-0.00513 0.56952 0.030896 0.98787 0.11978 0.91245 0.18231 0.51527 0.15074 0.62783 0.26283 0.56973 0.34954 0.51778 0.42671 0.86002 0.94085 0.67231 0.88505 1.5508 2.0665 1.7389 2.5267 0.44565 0.58207 0.38166 0.43588 0.4069 0.39011 0.54023 0.40829 0.57237 0.35052 1.6062 0.86211 0.45884 0.28747 0.42249 0.32914 0.49583 0.52756 0.42212 0.6092 0.13148 0.22644 1.1858 2.3077 0.41904 0.73005 1.5555 2.4625 0.61456 0.8181 0.71411 0.64528 0.87435 0.41484 1.0112 0.26873 2.8893 0.62148 2.2164 0.40925 1.1635 0.17338 1.1898 0.13964 1.9921 0.13448 1.3813 0.026438 1.6579-0.035738 1.4205-0.091926 1.3836-0.15354 1.8073-0.30706 1.664-0.39237 1.1726-0.33305 3.458-1.0966 0.85237-0.24624 0.756-0.18547 0.73871-0.13858 0.72528-0.078783 1.1502 0.042893 1.1012 0.29667 1.0696 0.50937 1.0467 0.66849 0.93835 0.71093 0.92955 0.78273 0.92448 0.83438 3.7571 3.5611 1.8584 1.6961 0.9693 0.82246 0.73247 0.58054 0.74332 0.54947 0.66547 0.45575 0.67234 0.42388 1.0751 0.59837 0.70242 0.3394 0.698 0.2961 0.66573 0.24092 0.65356 0.19078 0.81605 0.1597 0.77834 0.045751 0.83906-0.12065 0.63472-0.25928 0.31654-0.18359 0.82577-0.60499 0.80932-0.68284 0.73117-0.65916 0.63687-0.62942 0.47062-0.52195 0.43227-0.53415 0.54532-0.7627 2.0091-3.2087 1.1805-1.7193 1.2562-1.6025 1.8816-2.2336 0.39536-0.53413 0.28227-0.44923 0.19614-0.37934 0.20147-0.527 0.14662-0.78956 0.015615-0.8011-0.25173-2.7632-0.29505-1.4764-0.086829-0.57457-0.01519-0.57879 0.076281-0.56149 0.14573-0.55028 0.2423-0.63463 0.36711-0.58994 0.70726-0.6468 0.93614-0.56468 1.0993-0.50795 1.2101-0.47221 3.902-1.377 1.282-0.50202 1.2195-0.55546 1.1207-0.63327 0.66512-0.46228 3.0246-2.2754 1.1144-0.89496 0.45868-0.42005 0.4895-0.51539 0.41364-0.52748 0.3249-0.52745 0.41084-0.99654 0.26884-1.0635 0.388-2.187 0.24819-1.0566 0.37133-0.98565 0.55039-0.90461 0.6684-0.83003 1.3781-1.5745 0.55051-0.80958 0.34077-0.86886 0.068747-0.80248-0.053268-0.56388-0.11803-0.58146-0.18196-0.62313-0.23109-0.63133-0.39927-0.90865-0.40694-0.79959-0.49586-0.87718-1.1416-1.8537-0.28274-0.49663-0.1569-0.3208-0.16954-0.46309-0.041621-0.1786-0.026333-0.4229 0.19886-0.62619 0.43716-0.58126 0.60478-0.54357 0.71236-0.50996 0.7678-0.47739 0.57524-0.32315 0.4768-0.23484 0.9918-0.35414 1.1131-0.22009 1.8684-0.2254 1.1504-0.18198 1.2425-0.30067 1.1268-0.35344 0.54848-0.22558 0.69983-0.40509 0.49338-0.36425 0.48905-0.42255 0.50915-0.37988 0.39758-0.20277 0.60444-0.20783 1.5406-0.378 0.91371-0.17579 0.88626-0.11655 0.90245-0.083434 1.7133-0.13086 0.78013-0.035016 0.73027 0.022684 0.4825 0.070125 0.52893 0.16482 0.33451 0.17813 0.20127 0.14647 0.43762 0.44958 0.38976 0.54139 0.46117 0.72706 0.44525 0.76239 0.76134 1.4248 0.18983 0.31017 0.2162 0.2918 0.12858 0.14407 0.36688 0.31898 0.41537 0.26089 0.30961 0.14904 0.42641 0.1474 0.45401 0.10514 0.92951 0.088354 0.77806-0.078591 0.70936-0.16654 0.73417-0.23359 2.1569-0.79345 0.83594-0.27072 0.74434-0.1939 0.68904-0.11838 0.65982-0.038436 0.50211 0.037064 0.46135 0.10771 0.46058 0.21042 0.3133 0.21095 0.38895 0.33994 1.0872 1.1671 0.26535 0.22209 0.35994 0.21697 0.47926 0.16126 0.51713 0.070758 0.59472-0.007149 0.59064-0.11628 0.55484-0.25821 0.44201-0.37578 0.50921-0.77556 0.23657-0.72493 0.096831-1.0304-0.094127-1.2562-0.13937-0.81835-0.18135-0.80458-0.24773-0.90438-0.23224-0.7366-0.24175-0.64535 0.84188-0.46095 1.7475-1.0929 1.2808-0.86156 1.2285-0.87852 1.1286-0.87755 0.51235-0.43615 1.2944-1.2546 0.39828-0.31416 0.31025-0.16193 0.31667-0.086789 0.3161-5.28e-4 0.40764 0.14068 0.39796 0.26579 0.39107 0.35032 1.5371 1.6433 0.38663 0.339 0.39152 0.25227 0.39898 0.12784 0.40542-0.023873 0.41426-0.13927 1.2903-0.6731 0.44763-0.17317 0.45924-0.073745 0.47949 0.0633 0.37248 0.12368 0.38348 0.17498 0.39336 0.21688 0.87981 0.57528 4.1812 3.0916 1.5434 1.0831 0.47745 0.2995" stroke="#bdc660"/>
    </defs>
    <g clip-path="url(#p3639a529ca)">
     <use y="280.512" fill="#bdc660" stroke="#bdc660" xlink:href="#mef08cd0340"/>
    </g>
   </g>
  </g>
 </g>
 <defs>
  <clipPath id="p3639a529ca">
   <rect x="7.2" y="7.2" width="308.67" height="266.11"/>
  </clipPath>
 </defs>
</svg>
