<?xml version="1.0" encoding="UTF-8"?>
<!DOCTYPE svg  PUBLIC '-//W3C//DTD SVG 1.1//EN'  'http://www.w3.org/Graphics/SVG/1.1/DTD/svg11.dtd'>
<svg width="371.52pt" height="280.03pt" version="1.1" viewBox="0 0 371.52 280.03" xmlns="http://www.w3.org/2000/svg" xmlns:xlink="http://www.w3.org/1999/xlink">
 <metadata>
  <rdf:RDF xmlns:cc="http://creativecommons.org/ns#" xmlns:dc="http://purl.org/dc/elements/1.1/" xmlns:rdf="http://www.w3.org/1999/02/22-rdf-syntax-ns#">
   <cc:Work>
    <dc:type rdf:resource="http://purl.org/dc/dcmitype/StillImage"/>
    <dc:date>2024-07-04T12:10:02.629736</dc:date>
    <dc:format>image/svg+xml</dc:format>
    <dc:creator>
     <cc:Agent>
      <dc:title>Matplotlib v3.7.1, https://matplotlib.org/</dc:title>
     </cc:Agent>
    </dc:creator>
   </cc:Work>
  </rdf:RDF>
 </metadata>
 <defs>
  <style type="text/css">*{stroke-linejoin: round; stroke-linecap: butt}</style>
 </defs>
 <g id="figure_1">
  <g id="patch_1">
   <path d="m0 280.03h371.52v-280.03h-371.52v280.03z" fill="none"/>
  </g>
  <g id="axes_1">
   <g id="PatchCollection_1">
    <defs>
     <path id="ma32aa60197" d="m280.45-231.19-0.2528-0.1447-0.62545-0.042342-1.0644 0.073646-1.2867 0.21318-2.023 0.56982-1.6897 0.73041-1.7937 1.1437-1.2209 1.1484-1.1319 1.616-0.60046 1.3436-0.39484 1.425-0.20424 1.5885 0.008999 1.6242 0.34315 2.2819 0.40291 1.465 0.52127 1.4517 0.73878 1.686 0.85165 1.6586 1.2144 2.0618 1.3299 2.0101 1.0936 1.5205 2.1864 2.7609 1.0783 1.2409 1.1981 1.2894 1.244 1.2308 1.3696 1.2197 1.4353 1.1278 2.0649 1.3811 2.1472 1.2371 5.0445 2.61 1.5653 0.87643 1.3558 0.86905 1.2623 0.95605 1.2021 1.1178 1.0507 1.2385 0.89887 1.3946 0.72095 1.5067 0.62287 1.8665 0.42185 1.9642 0.27277 2.2946 0.1112 2.3583 0.001298 2.3634-0.094849 4.582-6.24e-4 2.1975 0.050436 1.6022 0.10652 1.598 0.28245 2.3763 0.43818 2.3504 0.75796 2.8777 2.8061 8.5443 1.2837 4.1824 1.3295 4.7694 1.9378 7.3336 0.68368 2.28 0.49001 1.4509 0.5113 1.3457 0.56512 1.3219 0.70028 1.4496 0.76788 1.4161 1.3357 2.1597 0.78804 1.1396 0.82837 1.1149 1.7704 2.1626 2.3135 2.5197 2.6235 2.6062 3.1995 2.9941 8.1795 7.3835 3.6915 3.5201 2.2601 2.3981 1.0072 1.1868 0.94968 1.2298 1.4745 2.2645 1.0213 2.0144 0.75262 1.902 0.59334 1.9843 0.32813 1.5036 0.23507 1.5396 0.14501 1.6203 0.05471 1.6465-0.033612 1.8796-0.11859 1.8901-0.25242 2.4393-0.54583 3.7842-0.93813 5.5386 0.014913 0.38004-0.50919 0.20813-1.78 0.98152-0.97416 0.44207-1.0819 0.39553-1.1526 0.35082-1.1946 0.31312-2.4403 0.5436-7.1331 1.3521-2.1509 0.46679-0.98142 0.2599-0.88746 0.28951-0.75944 0.33169-0.58609 0.3904-0.35324 0.47069-0.07861 0.54796 0.11392 0.6219 0.70265 2.1137 0.1117 0.73841-0.026377 0.52474-0.1258 0.50732-0.18487 0.40718-0.36078 0.54931-0.47806 0.5568-1.0382 1.0764-1.1074 1.3446-0.2686 0.42712-0.12397 0.28818-0.077918 0.44456 0.029007 0.27799 0.10354 0.30164 0.16912 0.29445 0.67259 0.75397 1.7617 1.6365 0.57345 0.74518 0.20957 0.41328 0.12563 0.4229 0.027386 0.59541-0.097969 0.58722-0.46355 1.5422-5.3908 2.8993-2.2589 1.1412-2.3842 1.1308-2.4561 1.0709-2.7406 1.0626-2.054 0.71621-2.7975 0.89053-2.7472 0.76967-2.6763 0.62043-2.5851 0.43077-2.47 0.18566-2.3248-0.13347-1.5356-0.32242-1.4463-0.47902-1.4114-0.63991-1.7213-1.1424-1.3024-1.2138-0.91663-1.1289-0.73877-1.2168-0.53008-1.291-0.26668-1.1109-0.1814-1.4069-0.2834-3.3037-0.29681-1.8647-0.43788-1.7831-1.5889-5.2735-0.37305-1.7347-0.14666-1.1143-0.375-3.7888-0.23692-1.5693-0.17049-0.826-0.33944-1.2328-1.0296-3.1402-0.35814-1.348-0.443-1.9268-0.33203-1.0565-0.33202-0.80561-0.49746-0.90737-0.48395-0.62486-0.48651-0.45961-0.42956-0.32386-0.77896-0.47381-1.373-0.60294-0.28161-0.084379-0.95195-0.20267-0.79761-0.10167-1.8404-0.064357-1.2434 0.082505-3.5893 0.43085-1.8393 0.087185-2.7078 0.023299-1.4331 0.056879-1.4029 0.15408-1.0516 0.20821-3.3502 0.86772-1.8282 0.3649-1.6296 0.11914-1.33-0.15444-1.364-0.51189-1.2454-0.7662-2.201-1.7543-0.97256-0.72146-0.68052-0.35843-0.82532-0.10076-0.40006 0.15916-0.2731 0.19605-0.38884 0.39183-0.39167 0.50757-0.73442 1.1692-1.9922 3.5405-0.78846 1.2014-0.88614 1.1316-1.2164 1.3555-1.0251 1.0415-1.1707 1.1081-3.5902 3.1198-0.42601 0.45449-0.33812 0.55454-0.083183 0.49676 0.052846 0.33081 0.30306 0.65169 0.43358 0.57787 1.7804 1.801 0.63976 0.79351 0.34909 0.54866 0.29105 0.57539 0.42587 1.3254 0.17891 1.5647 0.024791 0.99295-0.033864 1.0084-0.45378 3.8181-0.31987 1.5086-0.40347 1.3112-0.47025 1.1745-0.45716 0.83956-0.51786 0.71224-0.6805 0.6876-0.68284 0.52977-0.67613 0.41393-1.0202 0.45748-0.83064 0.25259-1.0055 0.1969-1.2453 0.12729-0.89289 0.030364-1.301-0.050528-1.6815-0.24666-0.82216-0.19901-1.3364-0.45091-0.82895-0.37403-0.95015-0.53434-0.76667-0.52346-1.0735-0.88108-0.95166-0.90862-1.1579-1.2762-1.958-2.4959-2.3699-2.8031-0.96094-1.2436-1.45-2.1406-2.5189-4.2566-2.5193-4.0827-0.63401-1.2154-1.4357-3.0915-0.27551-0.65391-0.36368-1.0635-0.15373-0.61421-0.15544-0.91261-0.079283-0.87929-0.034568-1.1714 0.060583-1.9094 0.15496-1.1366 0.19385-0.80261 0.34518-0.98026 0.23762-0.51878 0.69969-1.1967 1.056-1.3868 1.5794-1.7711 0.67306-0.82203 0.54341-0.78006 0.52918-0.94891 0.29713-0.68959 0.20056-0.60655 0.16003-0.64324 0.11416-0.71847 0.020601-0.57218-0.072383-0.53718-0.27857-0.63753-0.95148-0.85678-1.4526-0.6688-1.82-0.53414-2.0829-0.44251-2.2641-0.38652-7.2848-1.1249-2.4343-0.4633-2.3633-0.56615-2.2425-0.71526-2.0626-0.92236-1.8099-1.2026-0.6456-0.58744-0.461-0.49034-0.99164-1.2948-0.89705-1.4985-0.45483-0.90872-0.57241-1.3161-0.64758-1.7991-0.40959-1.3932-0.32867-1.3245-0.60299-2.9413-0.27425-1.133-0.16445-0.50726-0.64304-1.2482-0.89521-0.84941-0.82644-0.31031-0.88099-0.064918-0.90138 0.12013-1.1744 0.39486-1.238 0.77462-0.61722 0.62614-0.44686 0.64939-0.51523 1.0852-0.35935 1.089-1.0482 4.413-0.56642 2.0693-0.61022 1.7447-0.55879 1.42-0.62528 1.3418-0.37614 0.67501-2.7957 4.3992-1.4852 2.6664-1.521 2.4479-0.40798 1.0288 0.012677 0.87263 0.11876 0.3971 0.41061 0.80605 1.5001 2.1499 0.55307 0.89765 0.4573 0.99257 0.21345 0.74859 0.10164 1.1105-0.17274 1.4847-0.44422 1.4464-0.58678 1.2686-0.69158 1.3006-2.2549 3.9911-1.8802 3.686-0.79842 1.4582-1.4423 2.377-1.5082 2.3048-1.4423 1.9711-2.0844 2.6567-1.026 1.2104-1.0551 1.1517-0.85396 0.85144-0.87526 0.79135-0.7595 0.6158-0.71112 0.51383-1.2723 0.76789-1.2786 0.59393-1.2547 0.41721-1.2874 0.23979-1.0888 0.008799-0.60224-0.10534-0.5851-0.21684-0.59003-0.39377-0.37147-0.36404-0.54524-0.74689-0.46594-0.8535-0.58534-1.3387-0.62838-1.9569-0.41944-1.0674-0.55814-0.99354-0.74966-0.88275-1.035-0.85114-2.3983-1.6397-0.52613-0.3194-1.2006-0.62748-1.3226-0.57623-1.3023-0.48779-1.3691-0.44914-2.6274-0.71854-1.5591-0.34784-1.5826-0.28959-1.4313-0.19978-1.4341-0.13467-1.1513-0.055074-1.2473-4.77e-4 -2.0742 0.13211-1.4743 0.20062-1.3065 0.28519-1.1076 0.33609-1.0292 0.40048-1.0471 0.51486-0.92406 0.57641-0.48785 0.37048-1.4099 1.4474-0.67309 0.93645-0.55622 1.0231-0.59029 1.8084-0.25403 1.5311-0.12152 1.6269-0.021117 1.6893 0.14047 3.2417 0.48114 6.2115 0.062525 1.9669-0.077886 1.8299-0.16494 1.1739-0.25673 1.0071-0.67002 1.4525-1.2232 1.4044-1.2263 0.87765-1.2562 0.60948-1.1021 0.31119-0.74296-0.059215-0.5291 0.10851-3.7336 1.2225-2.6466 0.81494-2.8304 0.79595-2.7982 0.689-2.7628 0.55221-2.6653 0.36115-2.5161 0.10752-2.317-0.22306-2.0633-0.65056-1.6403-1.0394-1.4446-1.3798-1.311-1.6186-1.6163-2.3689-3.5153-5.7276-1.6856-2.4934-0.83414-1.0885-3.57-4.2374-1.1523-1.5294-0.89294-1.343-0.64697-1.1604-0.73798-1.6408-0.82456-2.3884-0.50025-1.8038-0.48792-2.2298-0.12613-0.82365-0.097191-1.0253-0.021152-0.85626 0.094122-1.2998 0.30622-1.4006 1.2463-3.7984 0.44412-1.6584 0.49614-2.1575 0.42268-2.5119 0.22459-1.0728 0.27391-1.0151 1.3887-4.0957 0.53492-1.8481 0.25947-1.2171 0.07307-1.0381-0.0421-0.3396-0.15687-0.53354-0.63682-1.2096-0.091578-0.3186-0.009834-0.36715 0.20576-0.68132 0.23654-0.46893 1.1216-1.7662 0.41913-0.87008 0.23874-0.83709 0.13681-0.96374 1.92e-4 -1.3731-0.10209-0.83299-0.35413-1.3731-0.46821-1.033-0.51612-0.7597-0.64528-0.65068-0.30185-0.22731-0.24478-0.1587-1.1014-0.536-1.4653-0.492-3.0799-0.88043-1.5099-0.50985-1.1381-0.4676-0.78674-0.37874-1.1447-0.65986-0.66985-0.46765-0.60632-0.49094-0.7765-0.73696-0.83756-0.97966-0.67246-1.1058-0.52544-1.2343-0.33462-1.0802-0.5643-2.336-0.43132-2.1715-0.48971-2.9654-0.29407-2.5571-0.1334-2.5888 0.056074-1.9902 0.090904-0.87253 0.14556-0.85735 0.34212-1.2681 0.68188-1.5855 0.8754-1.5428 2.3373-3.7389 2.293-3.7835 1.8298-3.2533 1.3583-2.6855 1.7044-3.6911 0.80596-1.8744 1.4342-3.5699 1.4723-4.0276 1.4455-4.4595 1.0096-3.6532 1.2333-5.6555 0.5405-2.0153 0.74139-1.9099 0.43364-0.82841 0.54206-0.87936 1.4292-1.8751 1.6669-1.7803 1.3371-1.2658 2.8799-2.4759 5.6188-4.5039 3.5399-2.9578 1.7319-1.5812 1.9923-1.9936 1.9301-2.1114 1.0966-1.2756 2.0655-2.5521 2.1219-2.8138 1.1161-1.5571 1.6997-2.4871 1.6294-2.521 1.3164-2.1365 1.062-1.8713 0.058604 0.10152 0.17485 0.070795 0.69914 0.13236 2.9958 0.18647 10.452 0.25284 9.1297 0.31177 4.7119 0.056184 3.3674-0.11778 5.9931-0.37891 3.009-0.10948 2.7386-0.04722 5.2438 0.066287 7.3306 0.23495 2.0051 0.012184 1.7305-0.09067 1.4314-0.1777 1.2188-0.25436 1.3301-0.42065 0.86297-0.3962 0.69361-0.45012 0.39072-0.34515 0.45411-0.5655 0.32145-0.65609 0.18439-0.65508 0.10248-0.66602 0.054779-0.73223 0.021568-1.3095-0.063947-1.4372-0.2831-2.2232-0.57227-2.9009-1.7789-8.3081-0.47861-2.5031-0.38548-2.4748-0.19712-2.1289-0.026699-1.3525 0.073428-1.2933 0.18607-1.1886 0.29424-1.0303 0.38851-0.88993 0.74452-1.1076 0.89854-0.86736 0.72523-0.48632 1.2767-0.55633 1.4287-0.34705 1.5471-0.17493 1.5832-0.034494 1.6479 0.071254 1.6959 0.15432 2.3856 0.31472 2.4188 0.40123 5.0149 1.0039 6.64 1.5219 1.2524 0.25123 1.22 0.19016 1.2449 0.10779 1.1904-0.001653 3.8544-0.32124 1.4347-0.064356 1.9055 0.068348 3.8927 0.39744 1.932 0.14653 1.8827-0.016787 1.799-0.28896 0.76618-0.24511 1.8097-0.88224 1.6087-1.0743 1.6049-1.2483 1.4679-1.3317 1.2409-1.3973 0.90746-1.4521 0.42616-1.1462 0.59205-2.2933 0.43776-1.1038 0.59668-0.92833 0.70524-0.77858 1.1267-0.90519 0.7483-0.45514 1.0015-0.4872 1.5214-0.5823 3.3142-1.0625 3.769-1.2924 1.8097-0.56948 1.6309-0.42308 1.1914-0.23172 1.1362-0.14782 1.0427-0.069745 1.3221-0.012664 2.2952 0.13999 2.3219 0.3052 2.3324 0.43649 2.3269 0.54527 2.3045 0.64176 2.2627 0.7355 2.1974 0.83577 2.1026 0.95214 1.9703 1.0949 1.1802 0.79564 1.0174 0.79359 0.82407 0.73244 0.90051 0.92384 0.57633 0.68822 0.67498 0.95513 0.80216 1.4083 1.5866 3.4388 1.0603 2.0303 1.5103 2.721 1.0356 1.4571 1.2162 1.2864 1.3829 1.0285 1.5452 0.66268 1.6538 0.21941 1.7994-0.084369 4.6644-0.58654 2.2875-0.16417 1.7717-0.002575 1.0698 0.064224 2.2013 0.33282 1.835 0.5735 1.5309 0.85068 1.0944 1.0562 0.53386 0.80749 0.32653 0.77848 0.099122 0.6274-0.14114 0.48186" stroke="#bdc660"/>
    </defs>
    <g clip-path="url(#pc7767e064c)">
     <use y="280.031568" fill="#bdc660" stroke="#bdc660" xlink:href="#ma32aa60197"/>
    </g>
   </g>
  </g>
 </g>
 <defs>
  <clipPath id="pc7767e064c">
   <rect x="7.2" y="7.2" width="357.12" height="265.63"/>
  </clipPath>
 </defs>
</svg>
