<?xml version="1.0" encoding="UTF-8"?>
<!DOCTYPE svg  PUBLIC '-//W3C//DTD SVG 1.1//EN'  'http://www.w3.org/Graphics/SVG/1.1/DTD/svg11.dtd'>
<svg width="279.4pt" height="280.51pt" version="1.1" viewBox="0 0 279.4 280.51" xmlns="http://www.w3.org/2000/svg" xmlns:xlink="http://www.w3.org/1999/xlink">
 <metadata>
  <rdf:RDF xmlns:cc="http://creativecommons.org/ns#" xmlns:dc="http://purl.org/dc/elements/1.1/" xmlns:rdf="http://www.w3.org/1999/02/22-rdf-syntax-ns#">
   <cc:Work>
    <dc:type rdf:resource="http://purl.org/dc/dcmitype/StillImage"/>
    <dc:date>2024-07-04T12:10:09.915732</dc:date>
    <dc:format>image/svg+xml</dc:format>
    <dc:creator>
     <cc:Agent>
      <dc:title>Matplotlib v3.7.1, https://matplotlib.org/</dc:title>
     </cc:Agent>
    </dc:creator>
   </cc:Work>
  </rdf:RDF>
 </metadata>
 <defs>
  <style type="text/css">*{stroke-linejoin: round; stroke-linecap: butt}</style>
 </defs>
 <g id="figure_1">
  <g id="patch_1">
   <path d="m0 280.51h279.4v-280.51h-279.4v280.51z" fill="none"/>
  </g>
  <g id="axes_1">
   <g id="PatchCollection_1">
    <defs>
     <path id="ma78066921b" d="m248.49-186.95-0.72941 1.2853-0.90416 1.4674-1.1191 1.7315-1.1674 1.7082-0.76658 1.0694-1.4574 1.9326-1.4187 1.7529-0.75319 0.87612-1.3257 1.4502-1.3684 1.3693-1.1895 1.0861-2.4313 2.0315-3.8592 3.0935-1.978 1.7005-0.91838 0.8694-1.1449 1.2228-0.98162 1.2879-0.3723 0.60398-0.29784 0.56898-0.50921 1.3118-0.37123 1.3842-0.84706 3.8844-0.69345 2.5091-0.99285 3.0629-1.0112 2.7663-0.98502 2.4519-0.55356 1.2874-1.1706 2.5352-0.9329 1.8445-1.2567 2.2345-1.5749 2.5986-1.6054 2.568-0.60126 1.0597-0.46834 1.089-0.23498 0.87096-0.099979 0.58886-0.062435 0.59928-0.038514 1.367 0.091627 1.7781 0.20198 1.7563 0.33635 2.0367 0.29625 1.4914 0.38758 1.6044 0.22983 0.74195 0.36089 0.84778 0.46187 0.75948 0.57526 0.67287 0.53333 0.50617 0.41644 0.33719 0.46008 0.3212 0.78619 0.45322 0.54036 0.26013 0.7817 0.32117 1.037 0.35018 2.1154 0.60471 1.0064 0.33792 0.75646 0.36814 0.16812 0.109 0.20732 0.15613 0.4432 0.44691 0.35449 0.52178 0.32158 0.70947 0.24323 0.94308 0.070116 0.57212-1.32e-4 0.94309-0.093967 0.66193-0.16398 0.57494-0.28787 0.5976-0.77036 1.2131-0.16246 0.32208-0.14132 0.46796 0.006754 0.25217 0.062899 0.21882 0.43739 0.83082 0.10774 0.36645 0.028916 0.23325-0.050187 0.71302-0.17822 0.83591-0.3674 1.2693-0.95381 2.8131-0.18813 0.69721-0.15426 0.73684-0.29031 1.7252-0.34076 1.4819-0.30504 1.1391-0.85602 2.6089-0.21032 0.96197-0.064645 0.89278 0.014527 0.5881 0.066755 0.7042 0.086631 0.56571 0.33512 1.5315 0.34359 1.2389 0.56634 1.6404 0.50687 1.1269 0.44436 0.797 0.6133 0.92244 0.79144 1.0505 2.452 2.9104 0.57291 0.74765 1.1577 1.7126 2.4144 3.9339 1.1101 1.627 0.90043 1.1117 0.9922 0.9477 1.1266 0.71388 1.4172 0.44683 1.5914 0.1532 1.7282-0.073849 1.8307-0.24805 1.8976-0.37928 1.9219-0.47323 1.944-0.54669 1.8178-0.55973 2.5644-0.83963 0.3634-0.074528-5.3253 15.044-0.14159 0.061897-0.39234 0.076637-0.85476 0.11504-1.1163 0.10713-2.3495 0.12844-1.7578 0.034655-3.3157-0.013927-9.2892-0.152-3.323-0.10925-2.9923-0.17195-2.9607-0.24005-3.408-0.33979-3.2555-0.38394-6.2523-0.82104-4.225-0.63146-8.7947-1.4989-3.7734-0.51773-1.8717-0.17545-0.90074-0.033746-1.058 0.033261-1.1176 0.16853-0.29074 0.074733-1.1492 0.45549-0.98613 0.6808-0.6102 0.65302-0.52964 0.74625-0.68445 1.1756-0.96912 1.8272-0.79868 1.4036-0.54666 0.78773-0.45019 0.51655-0.50278 0.44222-0.86001 0.50126-0.97124 0.3452-1.2544 0.2621-1.3241 0.16279-2.0771 0.20186-1.2765 0.21313-1.2582 0.31729-2.455 0.83135-2.7458 1.019-1.3182 0.55336-2.7957 1.308-0.86999 0.50519-0.47528 0.33394-0.96536 0.82693-0.67267 0.7583-1.0004 1.3061-0.63119 0.77351-0.6956 0.73317-0.78306 0.64913-1.0074 0.59414-1.106 0.47953-2.0097 0.68533-2.695 0.8015-1.4003 0.46756-0.9446 0.3348-1.1124 0.43902-1.1351 0.5346-0.74023 0.42456-0.7559 0.53863-0.5003 0.4568-0.52569 0.62989-0.76497 1.1113-0.52427 0.66526-0.55991 0.52372-0.7055 0.48574-0.69444 0.37536-1.2095 0.50844-0.96638 0.30491-0.98328 0.21546-0.70827 0.075048-0.53168-0.006684-0.39572-0.050708-0.99951-0.32358-2.3055-1.1967-0.83901-0.34392-2.2328-0.75857-1.0777-0.41233-2.6447-1.2047-0.52745-0.18945-0.97715-0.25504-2.37-0.32174-0.88912-0.21397-5.0242-1.6824-1.6216-0.59258-0.88951-0.36258-2.0645-0.91713-2.027-0.95986-1.3508-0.70078-1.0958-0.66526-1.0491-0.83107-0.37515-0.3887-0.62111-0.86879-0.36961-0.80206-0.17938-0.60794-0.095896-0.53282-0.042685-0.45816-0.010457-0.51497 0.085176-1.0922 0.089584-0.5633 0.16984-0.81688 0.58422-2.3883 0.17361-0.9135 0.07071-0.60452 0.021391-0.4707-0.020493-0.68552-0.051446-0.4583-0.26833-1.114-0.50513-1.0553-0.69557-0.78618-0.21532-0.1603-0.7472-0.38861-0.60198-0.1948-0.87308-0.16891-1.3953-0.10639-0.60036-0.003423-1.2682 0.0797-4.0747 0.55887-1.4128 0.14844-1.987 0.095076-2.221-0.008255-1.9152-0.084317-1.548-0.11301-11.01-1.0297-1.233-0.063777-1.2655-0.010868-1.3662 0.037115-1.3895 0.075583-3.3165 0.27272-4.5173 0.46613-2.5622 0.31063-1.36 0.21815-1.6099 0.32569-5.4753 1.2191-2.2856 0.5846-0.72982 0.14602-0.46332 0.032652-0.55049-0.098812-0.36581-0.28269-0.12109-0.30728-0.02361-0.30946 0.024315-0.28707 0.14002-0.633 0.32815-0.91837 0.41318-0.86895 0.52631-0.92069 0.74147-1.1071 0.99549-1.2813 0.67786-0.78501 0.78585-0.84775 3.1494-3.1819 3.2494-3.4025 0.91562-0.88666 3.4642-3.162 1.463-1.4265 1.0107-1.0437 0.6211-0.68514 0.89154-1.0715 0.9528-1.2652 1.056-1.4837 2.0596-3.0403 1.9903-3.0703 1.8692-3.0124 0.85068-1.4461 0.75939-1.3757 0.62842-1.2728 0.44358-1.1267 0.18679-0.92329-0.16465-0.64476-0.59137-0.30529-0.94194-0.027231-1.1983 0.17642-1.383 0.32349-1.5139 0.4282-3.2712 1.0542-3.4389 1.1992-3.4986 1.2709-3.5002 1.3198-3.4613 1.3786-1.7023 0.72143-1.6733 0.75115-1.634 0.78886-1.5809 0.83585-2.1468 1.2255-1.1259 0.60431-1.0017 0.48702-1.216 0.51715-1.1599 0.41369-1.3527 0.36995-1.1832 0.18639-0.72776 0.026588-0.45001-0.024816-0.72716-0.11678-1.1721-0.45723-0.52331-0.36863-0.62523-0.68057-0.58622-1.1152-0.31972-1.1164-0.17724-1.2239-0.053389-1.0909 0.026226-1.1315 0.18155-1.7468 0.26953-1.4755 0.2693-1.1463 0.31458-1.149 0.34861-1.1319 0.78157-2.2163 0.9315-2.2491 2.4746-5.3541 0.61002-1.4942 0.38444-1.0644 0.3469-1.0761 0.32886-1.1581 0.2884-1.1688 0.25418-1.2071 0.2115-1.2163 0.1799-1.3377 0.12535-1.3471 0.065118-1.226 0.006506-2.3222-0.10937-2.3347-0.090151-1.2469-0.15854-1.7759-0.35966-3.266-0.80716-6.3457-0.23413-1.4654-0.39133-2.0411-0.44971-2.0353-0.96485-3.9396-1.2221-4.7649 0.79512-0.97626 0.35722-0.59878 0.26851-0.6954 0.40338-1.3079 0.4655-0.99211 0.55451-0.88039 1.5396-2.096 0.57153-0.9296 0.47845-0.94427 0.45472-1.1241 0.32893-1.074 0.2558-1.1118 0.19217-1.1368 0.18195-1.4919 0.17599-1.9092 0.12828-2.2235 0.028957-1.308-0.030517-2.1288-0.05915-1.1905-0.15324-1.9566-0.20506-1.9664-0.25078-1.9647-0.14995-0.92861-0.19274-0.9567-0.68594-2.6169-0.38873-1.2464-0.34401-0.78405-0.45261-0.72859-0.92674-0.97079-1.1539-0.84487-1.299-0.7563-4.1083-2.0686-1.0439-0.63413-0.73104-0.5712-0.57389-0.63768-0.49509-1.0126-0.24205-1.1166-0.062566-1.106 0.18659-1.2657 0.2095-0.74253 0.26623-0.75872 0.43844-1.0777 0.66957-1.4892 1.2337-2.5441 0.56414-1.2849 0.44068-1.2948 0.24066-1.307 0.012657-0.94559-0.062942-0.69498-0.20762-1.1319-0.24174-0.8668-0.36621-1.0304-0.65708-1.4296-2.1431-3.7617-0.40596-0.80519-0.3199-0.72468-0.35788-0.97272-0.23297-0.78175-0.13732-0.55192-0.22456-1.2002-0.13163-1.1488-0.048692-0.80817 0.009062-1.1855 0.049951-0.70204 0.12522-1.0394 0.14205-0.8628 0.68946-3.281 0.2761-1.5503 0.16343-1.3404 0.096103-1.1713 0.017787-0.69261-0.014554-0.13264-0.04082-0.076595 0.038373-0.15754 0.29008-0.34052 0.52686-0.45272 0.92104-0.64356 0.90768-0.52513 0.77743-0.38438 0.73151-0.31064 1.521-0.47956 2.8962-0.6002 1.4595-0.33853 1.187-0.39985 1.1306-0.56373 0.96598-0.60805 1.6317-1.0949 0.91855-0.49043 0.65481-0.23906 1.1682-0.19276 1.1549 0.023551 0.94052 0.12666 1.1673 0.24515 0.85659 0.24157 1.3311 0.48104 0.86399 0.40189 1.2334 0.77471 1.0678 0.92718 0.4842 0.54032 0.42473 0.57796 0.49724 0.87534 0.35167 0.7528 0.46469 1.1943 0.29578 1.0335 0.76327 3.3514 0.3483 1.1671 0.39736 1.0325 0.48907 1.0203 0.60861 0.9566 0.65164 0.676 0.76135 0.4181 0.52752 0.13982 0.52392 0.067424 0.54007 0.011023 0.358-0.025237 0.63165-0.12058 0.65959-0.2276 1.6896-0.78325 0.4833-0.20838 0.69109-0.2446 0.89614-0.18018 0.49248-0.019769 0.6148 0.043907 0.58308 0.089055 1.7164 0.34322 1.5193 0.24878 0.71825 0.07052 1.1277 0.044766 1.5182 0.001675 0.73669 0.039193 1.2107 0.20288 2.3811 0.60005 0.96769 0.18814 0.71703 0.052737 0.9173-0.086401 0.51179-0.18197 0.17559-0.11336 0.16885-0.15765 0.21172-0.33135 0.17244-0.59276 0.049307-0.70952-0.014565-0.3858-0.28976-2.6128-0.006144-0.89233 0.061215-0.53151 0.17825-0.71775 0.26744-0.71528 0.80712-1.6441 0.74217-1.275 0.38652-0.55774 0.35764-0.4473 0.51868-0.54586 0.53985-0.4589 0.68696-0.44868 0.51647-0.25343 0.55302-0.20178 0.41953-0.10954 1.1853-0.18124 2.4915-0.20863 0.66929-0.087647 0.98483-0.20508 1.112-0.37443 3.4166-1.5273 1.3449-0.49038 0.80179-0.23971 0.81979-0.20721 1.5573-0.29235 1.3918-0.15197 1.1663-0.047997 0.72676 0.010091 1.6662 0.13065 1.0203 0.13732 1.2055 0.20675 1.8079 0.38578 1.9981 0.52428 4.6526 1.4946 1.2546 0.3485 4.7485 1.0739 1.5663 0.48532 1.5277 0.61656 1.5191 0.76407 2.9771 1.6981 2.0334 1.0823 1.5122 0.71123 1.4266 0.56851 1.3769 0.42262 0.76529 0.16676 0.62793 0.090772 0.97343 0.043305 0.46687-0.02573 0.59545-0.079413 0.59413-0.13462 0.50983-0.16308 0.54459-0.22198 0.72999-0.37056 1.3654-0.85506 1.6754-1.2585 1.9706-1.6299 3.0074-2.6648 4.173-3.5443 1.8544-1.7635 2.4398-2.4918 0.70702-0.62348 0.46281-0.34071 0.41874-0.25802 0.78623-0.3788 0.79606-0.279 1.4035-0.35079 1.4883-0.28423 1.158-0.17918 1.7033-0.21331 2.9741-0.28397 5.2861-0.44167 1.6022-0.20243 1.0906-0.21199 0.56583-0.14353 0.84521-0.26769 1.0188-0.42609 0.61217-0.3227 0.44597-0.27204 1.1855-0.88815 1.1174-1.0113 1.9862-1.9079 1.9511-1.7653 2.2005-1.9386 1.8868-1.554 3.7759-3.0142 0.75692-0.48073 0.69518-0.28631 1.0487-0.1484 0.74995 0.019461 0.8921 0.089298 3.1505 0.41334 1.2088 0.11205 2.13 0.098085 1.2991-0.00696 1.3741-0.055783 2.711-0.20533 3.0906-0.33067 3.4833-0.46926 6.1987-0.98561 1.6222-0.19952 3.3308-0.26656 0.72885-0.1081 0.29896-0.089583 4.6239 0.1977 1.7812 0.12892 1.7682 0.1841 1.6825 0.25181 1.5352 0.33561 1.3288 0.44037 0.55566 0.26071 0.33002 0.19101 0.76009 0.64778 0.32224 0.52807 0.097 0.27239 0.083072 0.4533-0.006014 0.51202-0.20657 0.84918-0.42085 0.9525-0.86313 1.6744-0.34956 0.85206-0.20958 0.7803-0.11173 0.67267-0.012193 1.0191 0.12817 0.8372 0.20345 0.68474 0.72514 1.6906 0.11567 0.42612 0.43612 2.3818 0.22749 0.8344 0.28112 0.76253 0.46337 0.94567 0.39636 0.67186 1.003 1.4438 0.92526 1.1634 0.99279 1.1628 3.1053 3.4657 1.6343 1.8848 0.76404 0.94023 0.80274 1.0649 0.82473 1.2443 0.65837 1.2333 0.31544 0.75293 0.5503 1.7907 0.26297 0.7184 0.36428 0.5487 0.43002 0.30734 0.52454 0.20173 1.2933 0.2807 0.69704 0.18345 0.57986 0.26123 0.37313 0.27323 0.3751 0.39192 0.27491 0.39735 0.20889 0.42352 0.12998 0.43142 0.031012 0.43494-0.16283 0.61203-0.39762 0.55736-0.22104 0.19732-0.28702 0.20725-0.63626 0.36685-2.2118 1.0685-1.1563 0.61092-1.2761 0.77596-1.4582 1.0376-0.68518 0.58418-0.68157 0.71125-0.3401 0.44615-0.38956 0.66234-0.29104 0.7148-0.15117 0.56718-0.16918 1.186-0.047377 1.2858 0.032805 1.3702 0.15585 3.0383 0.04871 1.6117-0.014552 1.9827-0.086412 2.0336-0.1426 2.0612-0.39482 4.0563-0.4308 3.4782-0.17191 1.1673-0.098455 0.43046" stroke="#bdc660"/>
    </defs>
    <g clip-path="url(#p755bddb0e5)">
     <use y="280.512" fill="#bdc660" stroke="#bdc660" xlink:href="#ma78066921b"/>
    </g>
   </g>
  </g>
 </g>
 <defs>
  <clipPath id="p755bddb0e5">
   <rect x="7.2" y="7.2" width="265" height="266.11"/>
  </clipPath>
 </defs>
</svg>
