<?xml version="1.0" encoding="UTF-8"?>
<!DOCTYPE svg  PUBLIC '-//W3C//DTD SVG 1.1//EN'  'http://www.w3.org/Graphics/SVG/1.1/DTD/svg11.dtd'>
<svg width="292.58pt" height="280.51pt" version="1.1" viewBox="0 0 292.58 280.51" xmlns="http://www.w3.org/2000/svg" xmlns:xlink="http://www.w3.org/1999/xlink">
 <metadata>
  <rdf:RDF xmlns:cc="http://creativecommons.org/ns#" xmlns:dc="http://purl.org/dc/elements/1.1/" xmlns:rdf="http://www.w3.org/1999/02/22-rdf-syntax-ns#">
   <cc:Work>
    <dc:type rdf:resource="http://purl.org/dc/dcmitype/StillImage"/>
    <dc:date>2024-07-04T12:10:06.344456</dc:date>
    <dc:format>image/svg+xml</dc:format>
    <dc:creator>
     <cc:Agent>
      <dc:title>Matplotlib v3.7.1, https://matplotlib.org/</dc:title>
     </cc:Agent>
    </dc:creator>
   </cc:Work>
  </rdf:RDF>
 </metadata>
 <defs>
  <style type="text/css">*{stroke-linejoin: round; stroke-linecap: butt}</style>
 </defs>
 <g id="figure_1">
  <g id="patch_1">
   <path d="m0 280.51h292.58v-280.51h-292.58v280.51z" fill="none"/>
  </g>
  <g id="axes_1">
   <g id="PatchCollection_1">
    <defs>
     <path id="mf1bb09c90d" d="m257.48-200.58 0.39525-0.33468 0.82424 0.12958 1.0455 0.57802 1.148 0.95741 1.1774 1.2476 1.1584 1.4628 1.1049 1.6206 0.80738 1.3457 0.58401 1.0775 0.58718 1.1952 1.1145 2.6093 1.2815 3.5139 0.86146 2.6166 1.0188 3.265 1.3326 4.5143 0.45852 1.858 0.26461 1.4621 0.058499 0.52232 0.032973 0.52264-0.011601 0.89062-0.10427 0.80485-0.19364 0.68161-0.22353 0.45839-0.21107 0.28932-0.39314 0.33697-0.51723 0.22311-0.56612 0.097972-0.35467 0.016119-1.2391-0.089688-3.6678-0.72808-2.3053-0.32664-1.2964-0.095607-1.6791 0.0138-1.7186 0.20292-1.8906 0.4615-1.8926 0.66941-1.8879 0.8288-1.5232 0.76308-1.5148 0.82532-1.5047 0.87263-3.0563 1.9053-1.4902 0.99358-1.9989 1.4183-1.317 1.0145-1.5658 1.3361-1.3518 1.324-0.64241 0.71813-0.72486 0.93695-0.30303 0.46157-0.64178 1.2742-0.23326 0.69396-0.24754 1.1887-0.040484 1.1848 0.14667 0.97888 0.27966 0.95836 0.3321 0.82382 0.43365 0.79734 0.86956 1.118 1.0921 1.05 1.2515 0.99372 1.3572 0.94618 1.4154 0.90467 4.4902 2.7073 0.8708 0.57835 0.47035 0.34415 0.73928 0.64345 0.32653 0.37373 0.33735 0.56634 0.18623 0.80379-0.063044 0.86564-0.27079 0.89906-0.24488 0.54438-0.72522 1.2773-0.90482 1.2897-2.05 2.5774-0.65005 0.98307-0.5548 0.99714-0.28285 0.59533-0.30996 0.83045-0.16684 0.7828-0.021174 0.50603 0.16772 0.96636 0.40155 0.95625 0.27529 0.47597 0.41123 0.58859 0.37453 0.45347 0.9308 0.94314 1.587 1.3645 2.7133 2.1834 0.78409 0.56191 3.3336 2.222 1.0346 0.77388 0.61566 0.5367 0.66682 0.71217 0.30402 0.40918 0.32938 0.5644 0.18925 0.4371 0.13793 0.44198 0.13184 0.76475-0.002818 1.2661-0.13441 0.93027-0.15228 0.65984-0.29814 0.93967-0.32181 0.7301-0.21327 0.36526-0.31305 0.37104-0.19184 0.10426-3.3444 3.5674-1.1034 1.06-1.0305 0.89436-1.8549 1.472-4.5304 3.4525-1.0547 0.86139-2.9682 2.5889-1.4713 1.1745-1.5421 0.99556-0.98533 0.48421-1.0249 0.39809-1.7304 0.481-1.6365 0.28179-2.0573 0.17907-1.8446 0.042328-4.6202-0.049656-1.0126 0.05011-1.0857 0.1211-1.3221 0.29431-0.92583 0.37165-0.79739 0.53747-0.85536 1.0683-0.65345 1.3557-1.2922 3.3282-0.7688 1.8731-1.7081 3.9358-1.8667 4.0573-0.97899 2.0408-2.0494 4.0535-1.0812 1.9904-1.1333 1.9474-1.203 1.8854-1.2973 1.7985-1.4246 1.6788-1.5012 1.4632-1.6173 1.3516-1.7034 1.267-1.7661 1.2018-1.8111 1.1494-1.8426 1.1038-1.8638 1.0594-1.8768 1.0103-1.8834 0.95034-1.8844 0.87234-1.8799 0.76795-1.8696 0.62707-1.8526 0.4374-1.8273 0.18407-0.73452-0.013215-0.78705-0.067044-1.0951-0.17136-0.69695-0.14939-1.4074-0.37842-3.3148-1.1308-2.7314-0.81101-1.6503-0.55718-0.87361-0.22216-1.0255-0.10148-0.94798 0.023473-0.80142 0.084307-2.1231 0.31938-1.0724 0.072954-1.361-0.062782-2.4874-0.245-1.0899-0.15686-0.43597-0.1019-0.84426-0.28689-0.79898-0.3658-1.1834-0.62465-0.75195-0.35453-3.3705-1.2711-1.0314-0.50537-0.7502-0.48125-1.0252-0.97933-0.56642-0.90188-0.43234-1.0437-0.33945-1.2125-0.19501-0.9525-0.82584-5.0552-0.63131-2.8097-0.49501-1.817-0.53057-1.6979-0.52641-1.4892-0.53105-1.3603-0.60386-1.4207-0.71219-1.5511-0.80532-1.6228-0.87294-1.6192-0.9205-1.5541-1.9714-3.0195-0.78242-1.1244-0.96668-1.2312-0.66743-0.71192-0.95603-0.80399-0.68919-0.42852-0.9293-0.43664-0.98866-0.34231-1.2082-0.2988-1.2471-0.20353-1.696-0.13932-1.68-0.003818-1.289 0.087512-1.1113 0.1526-1.0333 0.23901-1.0156 0.38782-0.85602 0.54964-0.77582 0.88262-0.58541 1.0765-0.47712 1.1979-0.87473 2.4549-0.38129 1.2454-0.29635 1.4707-0.48198 3.1266-0.37715 1.5837-0.52226 1.44-0.57054 1.2089-0.63063 1.0984-0.96055 1.3813-4.1391 5.1212-1.0789 1.4497-0.9641 1.4631-0.79482 1.4778-0.62593 1.5823-0.91306 2.8728-0.30623 1.2575-0.47913 2.4558-0.37666 1.4324-0.66832 1.783-0.40569 0.92213-0.43153 0.82582-0.44913 0.71081-0.45932 0.64056-0.85355 1.0708-1.5064 1.6816-1.3952 1.326-1.9396 1.5808-1.6055 1.2019-2.3363 1.5946-2.2273 1.3659-4.5629 2.6637-0.96286 0.64077-0.85659 0.64686-0.92243 0.82122-0.47973 0.4916-0.67426 0.78506-0.61326 0.86912-0.21485 0.40069-0.091351 0.28512 0.043723 0.19778-0.68861 0.25289-1.3048 0.19394-1.5535 0.040326-1.5309-0.20376-0.39642-0.11159-0.79412-0.31613-0.40453-0.20934-0.79309-0.49939-0.42735-0.3357-0.45096-0.4615-0.36639-0.58575-0.13843-0.3927-0.079652-0.39927-0.037185-0.51869 0.027869-0.57285 0.11327-0.66963 0.21472-0.73187 0.26204-0.68188 1.3938-3.2169 0.6277-1.7883 0.6058-2.3004 0.70037-3.3666 0.11845-0.80692 0.032597-0.89891-0.091208-0.58038-0.10719-0.29989-0.23482-0.38874-0.31151-0.30886-0.26527-0.17469-0.54569-0.22825-0.49769-0.12021-1.1124-0.10583-1.6637 0.057177-1.827 0.20514-3.6213 0.56249-1.7236 0.32049-3.9307 0.83602-2.8232 0.48113-2.3741 0.26688-1.2213 0.068299-1.7401-0.015632-1.7739-0.22129-1.2881-0.37037-0.91241-0.44725-0.61225-0.43841-0.65478-0.67288-0.44444-0.67202-0.35051-0.784-0.24377-0.85155-0.20663-1.7339 0.039294-1.5307 0.24164-1.9362 0.4685-2.8279 0.90883-4.6945 0.16721-1.5458 0.039763-1.1356-0.021187-1.2721-0.22482-2.9345-0.49229-4.6917-0.27185-3.5546-0.092287-1.437-0.12696-3.7752-0.22556-3.3483-0.18447-1.3489-0.39465-1.7001-0.55642-1.6933-0.59405-1.4751-0.67344-1.4638-1.1015-2.1101-1.0726-1.7848-0.55901-0.8222-0.49074-0.66256-0.87552-1.0785-0.8368-0.94886-1.7143-1.8174-5.1732-5.3146-1.561-1.7112-0.76303-0.93037-0.8952-1.2754-0.67581-1.2914-0.40935-1.4946 0.028379-1.3842 0.34907-1.417 0.59552-1.4418 0.7833-1.46 0.9254-1.4726 0.88168-1.2721 1.9319-2.554 2.6161-3.1863 1.3696-1.5786 2.5747-2.8244 4.1825-4.3348 7.3874-7.4286 4.4793-4.5583 2.8606-3.0043 2.7502-3.0777 1.3694-1.6702 1.2866-1.7162 1.1732-1.7745 1.0691-1.9255 0.81875-1.7495 0.7105-1.7721 0.6028-1.7733 0.48575-1.7508 0.33486-1.6233 0.17718-1.549-0.025796-1.439-0.28846-1.2843-0.62619-1.0744-1.1574-0.89481-1.5708-0.61954-2.1173-0.42777-1.1387-0.12588-1.1864-0.08347-1.7151-0.062119-3.3461 0.007191-3.4338 0.10026-0.5228-0.03536 6.5868-18.608 0.63118 0.050306 0.93632-0.26437 1.0672-0.51778 1.0418-0.7456 1.0392-1.1931 0.56921-1.2339 0.2181-0.85555 0.14012-0.9973 0.066168-1.5546-0.053117-1.6709-0.40875-5.2769-0.11933-2.7539 0.01794-1.4351 0.10323-1.3821 0.21581-1.3007 0.50148-1.5363 0.47253-0.86916 0.57182-0.79556 1.1978-1.2296 0.41445-0.31474 0.78503-0.48968 0.8896-0.43739 0.87435-0.34022 0.94092-0.28552 1.1099-0.24228 1.2524-0.17044 1.7621-0.11223 1.0597 4.06e-4 0.97808 0.046787 1.2183 0.11441 1.2159 0.16972 1.3445 0.24602 1.3246 0.29551 2.2321 0.61043 1.1631 0.38156 1.1064 0.4144 1.1236 0.48954 1.02 0.53307 0.44697 0.27135 2.0375 1.393 0.87931 0.72308 0.63686 0.74994 0.47417 0.84405 0.35633 0.90682 0.53383 1.6624 0.49727 1.1373 0.39584 0.72509 0.46321 0.63451 0.31558 0.30926 0.50126 0.33453 0.49707 0.18422 0.51163 0.089495 0.92496-0.007475 1.0937-0.20371 1.0659-0.35444 1.0862-0.50457 1.0809-0.65236 0.60413-0.43652 0.64522-0.52315 0.74357-0.67228 0.72548-0.72334 0.89634-0.97844 0.87163-1.0283 1.7708-2.257 1.2253-1.6745 1.2813-1.958 1.2253-2.0193 0.6783-1.2388 1.5973-3.1314 1.9156-3.3906 0.58752-1.105 0.4985-1.0778 0.37738-1.2288 0.14675-1.2613-0.086343-0.94344-0.18134-0.63596-0.3885-0.84323-0.46986-0.7626-1.2744-1.8265-0.34883-0.68478-0.10089-0.33735-0.01077-0.74134 0.3466-0.87404 1.2921-2.0796 1.2617-2.2652 2.3751-3.7373 0.31954-0.57345 0.5312-1.1399 0.47472-1.2063 0.51841-1.4822 0.4812-1.7579 0.89052-3.7491 0.30528-0.92512 0.43771-0.92191 0.37963-0.55168 0.52436-0.53194 1.0517-0.65807 0.99772-0.33545 0.76576-0.10205 0.74844 0.05515 0.70209 0.26362 0.76052 0.72161 0.54629 1.0604 0.13971 0.43094 0.23299 0.96257 0.51227 2.4988 0.27922 1.1252 0.34796 1.1836 0.55015 1.5284 0.48628 1.1181 0.3864 0.772 0.76208 1.273 0.84244 1.1 0.39164 0.41657 0.54847 0.49906 1.5376 1.0216 1.7522 0.78358 1.9051 0.60765 2.0077 0.48096 2.068 0.39359 6.1887 0.95567 1.9235 0.32837 1.7695 0.37593 1.5462 0.45377 1.2341 0.56818 0.80832 0.72787 0.23666 0.54161 0.061493 0.45636-0.017502 0.4861-0.096988 0.61037-0.13596 0.54646-0.17038 0.51529-0.25242 0.58583-0.44956 0.80614-0.46165 0.6627-0.5718 0.69835-1.3418 1.5047-0.89712 1.1781-0.59441 1.0167-0.20187 0.44072-0.29324 0.83277-0.16468 0.68186-0.13164 0.96556-0.051468 1.6221 0.029367 0.99516 0.067354 0.747 0.13205 0.7753 0.1306 0.5218 0.30897 0.90351 0.23405 0.55553 1.2197 2.6263 0.53862 1.0325 2.1403 3.4684 2.1399 3.6161 1.2318 1.8185 0.81636 1.0565 2.0134 2.3813 1.6634 2.1204 0.98371 1.0842 0.80848 0.77191 0.91202 0.74852 0.65132 0.4447 0.80719 0.45394 0.70423 0.31776 1.1354 0.38307 0.69846 0.16906 1.4285 0.20955 1.1053 0.042926 0.75855-0.025795 1.0579-0.10814 0.85419-0.16728 0.70566-0.21459 0.8667-0.38865 0.5744-0.35165 0.5801-0.45006 0.57811-0.58414 0.43994-0.60508 0.38838-0.71324 0.39949-0.99776 0.34277-1.114 0.27174-1.2816 0.38551-3.2436 0.028769-0.8567-0.021061-0.84355-0.15199-1.3293-0.3618-1.126-0.24726-0.48882-0.29657-0.46611-0.54351-0.67412-1.5125-1.53-0.36835-0.49093-0.25747-0.55364-0.044895-0.28104 0.070668-0.42202 0.28725-0.47111 0.36191-0.38611 3.05-2.6504 0.99456-0.9414 0.87085-0.88482 1.0334-1.1516 0.75281-0.96134 0.66983-1.0206 1.6925-3.0078 0.62392-0.99326 0.33274-0.4312 0.33034-0.33287 0.23201-0.16656 0.33987-0.13521 0.70114 0.085596 0.57813 0.3045 0.82623 0.61291 1.8698 1.4904 1.058 0.65092 1.1588 0.43487 1.1299 0.13121 1.3844-0.10121 1.5531-0.31 2.8462-0.73717 0.89338-0.17688 1.1918-0.1309 1.2175-0.04832 2.3004-0.019795 1.5626-0.074067 3.0493-0.36603 1.0563-0.070092 1.5635 0.054675 0.6776 0.086375 0.80873 0.17218 0.23924 0.071684 1.1664 0.51223 0.66176 0.40252 0.36493 0.27514 0.41331 0.39046 0.41114 0.53085 0.42261 0.77085 0.28206 0.6844 0.28207 0.89756 0.37634 1.6369 0.30426 1.1452 0.87473 2.6677 0.28837 1.0473 0.14484 0.70172 0.20127 1.3332 0.31858 3.2187 0.12459 0.94668 0.31692 1.4737 1.3499 4.4801 0.372 1.5148 0.25215 1.5842 0.24076 2.8067 0.1541 1.1952 0.22655 0.94372 0.45033 1.0968 0.62762 1.0337 0.77871 0.95906 1.1065 1.0311 1.4624 0.9705 1.199 0.54363 1.2287 0.40695 1.3046 0.27391 1.975 0.11339 2.0984-0.15773 2.1961-0.36596 2.2737-0.52708 2.3339-0.65387 2.3766-0.75654 1.745-0.60845 2.3282-0.90273 2.0866-0.9098 2.0255-0.96064 1.919-0.96953 4.5797-2.463" stroke="#bdc660"/>
    </defs>
    <g clip-path="url(#pb5e533ff9c)">
     <use y="280.512" fill="#bdc660" stroke="#bdc660" xlink:href="#mf1bb09c90d"/>
    </g>
   </g>
  </g>
 </g>
 <defs>
  <clipPath id="pb5e533ff9c">
   <rect x="7.2" y="7.2" width="278.18" height="266.11"/>
  </clipPath>
 </defs>
</svg>
