<?xml version="1.0" encoding="UTF-8"?>
<!DOCTYPE svg  PUBLIC '-//W3C//DTD SVG 1.1//EN'  'http://www.w3.org/Graphics/SVG/1.1/DTD/svg11.dtd'>
<svg width="371.52pt" height="194.2pt" version="1.1" viewBox="0 0 371.52 194.2" xmlns="http://www.w3.org/2000/svg" xmlns:xlink="http://www.w3.org/1999/xlink">
 <metadata>
  <rdf:RDF xmlns:cc="http://creativecommons.org/ns#" xmlns:dc="http://purl.org/dc/elements/1.1/" xmlns:rdf="http://www.w3.org/1999/02/22-rdf-syntax-ns#">
   <cc:Work>
    <dc:type rdf:resource="http://purl.org/dc/dcmitype/StillImage"/>
    <dc:date>2024-07-04T12:10:09.284774</dc:date>
    <dc:format>image/svg+xml</dc:format>
    <dc:creator>
     <cc:Agent>
      <dc:title>Matplotlib v3.7.1, https://matplotlib.org/</dc:title>
     </cc:Agent>
    </dc:creator>
   </cc:Work>
  </rdf:RDF>
 </metadata>
 <defs>
  <style type="text/css">*{stroke-linejoin: round; stroke-linecap: butt}</style>
 </defs>
 <g id="figure_1">
  <g id="patch_1">
   <path d="m0 194.2h371.52v-194.2h-371.52v194.2z" fill="none"/>
  </g>
  <g id="axes_1">
   <g id="PatchCollection_1">
    <defs>
     <path id="m0ab3a1f121" d="m348.09-96.463-0.13296 0.15588-0.40299 0.26748-0.76264 0.42426-0.98846 0.47999-1.3789 0.57344-1.4518 0.49452-1.4597 0.39442-1.7662 0.36575-1.8133 0.28066-1.7621 0.20498-3.5311 0.26707-3.769 0.13841-4.727 0.078228-2.9192 0.091365-2.4758 0.13674-3.0387 0.26137-2.3903 0.31817-2.4555 0.46716-1.2546 0.31277-1.2286 0.36129-1.0785 0.3648-1.5514 0.60945-1.4829 0.69807-2.4621 1.3749-1.3338 0.70234-2.9966 1.4344-4.6796 2.0628-6.9975 2.9043-1.2607 0.57528-1.2579 0.62908-0.92482 0.50516-1.2087 0.72344-1.5093 0.99741-1.7061 1.2246-4.1236 3.0943-2.5039 1.7259-1.5477 0.96145-1.848 1.057-3.3381 1.7914-1.9893 1.1138-0.80674 0.50397-1.4596 1.0252-0.34274 0.1027-0.83558 0.12393-3.8186 0.3056-1.8598 0.22874-7.1064 1.1299-3.9934 0.53798-3.5431 0.37909-3.108 0.2354-1.5753 0.063952-1.4894 0.007979-2.4419-0.11245-1.3858-0.12846-3.6118-0.47387-1.0227-0.10238-0.85977-0.022311-1.2022 0.17013-0.79699 0.32824-0.86777 0.55113-4.3288 3.4556-2.163 1.7816-2.5228 2.2225-2.2368 2.0238-2.2771 2.1873-1.281 1.1594-1.3591 1.0182-0.51128 0.31188-0.70182 0.36996-1.168 0.48848-0.96898 0.30689-0.6487 0.16455-1.2504 0.24304-1.8369 0.23207-6.0602 0.50635-3.4096 0.32555-1.9527 0.24455-1.3275 0.20542-1.7063 0.32586-1.6091 0.40216-0.91264 0.31985-0.90137 0.43427-0.48006 0.2958-0.53058 0.39061-0.81056 0.71478-2.7971 2.8567-2.126 2.0218-4.784 4.0633-3.4478 3.055-2.2592 1.8686-1.9208 1.4428-1.5653 0.98028-0.83689 0.42483-0.62434 0.25449-0.58449 0.18696-0.68114 0.15434-0.68265 0.091042-0.53524 0.029498-1.116-0.049646-0.71989-0.10406-0.87736-0.19118-1.5786-0.48451-1.6355-0.65176-1.7337-0.81538-2.3311-1.2408-3.4131-1.9468-1.7416-0.87596-1.7515-0.70685-1.7956-0.55639-5.4439-1.2312-1.4383-0.39954-5.334-1.7135-2.2907-0.60105-2.0727-0.44227-1.382-0.23702-1.1697-0.15743-1.9103-0.14978-0.83319-0.011569-1.3371 0.055025-1.5956 0.17422-1.7854 0.33517-0.93985 0.23755-0.91921 0.27481-1.5418 0.56219-3.917 1.7509-1.2749 0.42926-1.129 0.23512-0.7673 0.10048-2.8564 0.23919-1.3589 0.20778-0.48096 0.12558-0.634 0.23133-0.5921 0.29054-0.78756 0.51439-0.61891 0.52611-0.59464 0.6258-0.41001 0.5128-0.44312 0.63942-0.85086 1.4617-0.92532 1.8848-0.30661 0.82002-0.20435 0.82286-0.070179 0.60934 0.007043 1.023 0.33219 2.9954 0.016698 0.4423-0.056528 0.81342-0.19769 0.67956-0.24273 0.37987-0.19357 0.18073-0.20131 0.12996-0.58674 0.20862-1.0516 0.099054-0.82204-0.06046-1.1094-0.21569-2.7298-0.68792-1.388-0.2326-0.84457-0.044933-1.7406-0.00192-1.2928-0.051322-0.82343-0.080846-1.7418-0.28521-1.9678-0.39348-0.66847-0.1021-0.70483-0.050338-0.5646 0.022664-1.0274 0.20656-0.7923 0.28042-0.55408 0.2389-1.937 0.89795-0.75618 0.26094-0.72415 0.13823-0.41043 0.028933-0.61916-0.012638-0.60064-0.077296-0.60477-0.16029-0.87285-0.47933-0.74707-0.775-0.69773-1.0967-0.56069-1.1698-0.45555-1.1837-0.3993-1.338-0.87504-3.8422-0.3391-1.1849-0.53274-1.3692-0.40317-0.86304-0.57005-1.0035-0.48693-0.6626-0.55511-0.61945-1.2242-1.063-1.414-0.88816-0.99052-0.46074-1.526-0.55148-0.98203-0.27695-1.3382-0.28105-1.0783-0.14521-1.3241-0.027-1.3393 0.22098-0.7507 0.27407-1.0531 0.56224-1.8706 1.2552-1.1074 0.6971-1.2962 0.64628-1.3608 0.4584-1.6732 0.38811-3.3204 0.6881-1.7437 0.54979-0.83864 0.35613-0.89127 0.44067-1.0406 0.60203-1.0559 0.7378-0.60401 0.51902-0.33256 0.39039-0.043992 0.18061-0.014367-0.12857 0.047084-0.156 0.22704-0.48922 1.0692-1.764 0.95362-1.6782 0.44339-0.88327 0.75619-1.7261 0.28271-0.46914 0.27373-0.3617 0.68036-0.83868 0.35115-0.3285 1.0471-0.62586 0.471-0.35237 0.34197-0.34446 0.91333-1.1391 0.50031-0.54712 2.5304-2.1839 0.60672-0.56517 0.43679-0.47998 0.52279-0.68989 0.70183-1.1165 0.75181-1.3237 0.40003-0.77507 0.20159-0.49599 0.17769-0.6333 0.088134-0.65923-0.005063-0.58638-0.056039-0.43362-0.12551-0.53566-0.47139-1.3592-0.15017-0.54449-6.12e-4 -0.29818 0.026708-0.039112 0.091466-0.070267 0.14496-0.13747 0.14768-0.6982 0.11116-1.5233 0.045668-1.5743-0.052084-1.7489-0.49539-4.0768-0.033616-1.0874 0.04627-0.43264 0.14168-0.53206 0.23-0.47353 0.51829-0.67822 0.46402-0.4386 0.88474-0.64269 0.6385-0.37938 1.2352-0.63523 1.8558-0.88837 5.0749-2.3011 1.8837-0.91153 1.5108-0.85914 0.60137-0.41731 0.60919-0.48959 0.59048-0.57151 0.42487-0.53438 0.61314-1.2948 0.19395-0.83222 0.084808-0.86693-0.039036-1.0763-0.29544-1.3852-0.49765-1.1408-0.394-0.62315-0.47064-0.61395-0.76745-0.83457-1.142-1.0008-1.2562-0.88308-0.85274-0.51774-1.1495-0.63411-3.3511-1.7396-1.1691-0.65012-2.1224-1.2854-1.1498-0.75442-1.4322-1.0026-2.9111-2.1373-1.4648-1.2174-1.1364-1.0606-1.9048-1.9426-2.3182-2.5654-0.79989-0.94202-0.77997-0.98832-0.95832-1.3526-0.30162-0.48353-0.44522-0.84396-0.24168-0.60262-0.15845-0.54201-0.07963-0.40339-0.052039-0.59789 0.055629-0.72436 0.090178-0.36525 0.12917-0.3461 0.20976-0.40529 0.30888-0.43539 0.27555-0.2934 0.64842-0.48568 1.2322-0.50986 1.426-0.30536 3.0793-0.4156 1.4953-0.31104 1.361-0.52214 0.67569-0.4223 0.70222-0.58791 0.81419-0.88 1.5479-1.888 0.73737-0.73125 1.2549-1.0152 1.927-1.2932 1.5051-0.89955 1.4071-0.747 2.7701-1.2956 0.88329-0.50096 0.56267-0.40031 0.46599-0.41382 0.85258-1.0732 0.40083-0.67464 0.74735-1.5269 1.552-3.5228 0.36846-0.70075 0.7317-1.1482 0.63749-0.75942 0.31465-0.29814 0.53635-0.39238 0.33926-0.17115 0.27055-0.085016 0.2351-0.021092 0.17202 0.036898 0.15362 0.10865 0.10483 0.067599 0.14735 0.39591 1.0624 4.0574 0.49313 1.7622 0.5683 1.7569 0.69344 1.7395 0.6149 1.2368 0.68273 1.1559 1.0549 1.4821 0.68131 0.79248 0.80809 0.79096 0.48193 0.39984 0.60911 0.42558 0.40108 0.22943 0.53911 0.24232 0.81494 0.22386 0.71138 0.073713 1.0831-0.058807 1.3951-0.31415 1.2638-0.46532 1.2146-0.57137 1.3098-0.72443 1.4064-0.88692 1.3413-0.9525 1.2042-0.94595 3.1617-2.7135 1.515-1.2167 1.9008-1.2676 3.5388-2.1653 1.6347-1.1395 1.7387-1.3272 1.9947-1.6182 1.6649-1.4115 4.6684-4.1564 7.755-7.1328 2.3507-2.2564 1.1491-1.1893 1.131-1.2676 0.69523-0.83255 1.1945-1.575 0.58324-0.87722 0.57647-0.97838 0.70923-1.4356 0.73297-1.7925 1.1968-3.2982 1.169-2.898 0.51407-1.4421 0.20185-0.8503 0.36355-2.4669 0.2219-0.90758 0.26072-0.54435 0.20649-0.2646 0.27772-0.24706 0.56802-0.28778 0.64645-0.098455 0.76716 0.13957 0.61027 0.30551 0.62313 0.44566 0.6789 0.57859 1.3349 1.2824 3.5639 3.7056 3.1576 3.1933 0.98046 1.0775 1.7792 2.162 0.83654 0.90771 0.56074 0.51139 0.95522 0.68065 1.5216 0.65382 1.6798 0.31318 1.7704-0.011662 0.69392-0.090109 0.93134-0.18169 0.73472-0.18699 0.97502-0.30578 1.3762-0.55463 1.166-0.61194 0.48567-0.30903 0.60484-0.44757 0.41708-0.36371 0.40607-0.417 0.41031-0.51964 0.2885-0.46916 0.3771-0.94111 0.15401-0.90698-0.070295-0.87927-0.33297-0.45281 1.1778-0.31106 1.876-0.38166 5.3011-0.78158 3.5123-0.72122 1.2399-0.19822 3.0897-0.37075 1.7618-0.29515 0.49299-0.099435 0.89668-0.26467 1.3932-0.56894 1.5829-0.83494 1.6318-1.0336 6.1881-4.5164 1.071-0.91745 0.79172-0.78984 0.40555-0.46393 0.5502-0.76229 0.78143-1.3367 0.42102-0.58155 0.46058-0.45464 0.63085-0.47524 0.9647-0.56921 1.1203-0.51786 0.53012-0.18092 3.0049 3.3106 2.9063 3.0308 2.928 2.8388 1.8225 1.597 0.99712 0.7823 1.0202 0.7423 1.1995 0.81562 4.9372 3.0879 1.8279 1.1655 1.6342 1.0995 1.8868 1.3693 1.3643 1.066 1.3543 1.1448 1.5635 1.4974 0.85666 0.92934 0.9842 1.1656 2.3196 2.9425 1.2359 1.4809 0.75659 0.79364 0.76306 0.67155 0.93876 0.60036 0.97181 0.30408 0.78105-0.005679 0.80852-0.18703 0.84033-0.33128 0.8663-0.43988 1.9471-1.1731 3.2951-2.1013 1.3569-0.96302 2.6886-2.0352 1.3505-0.9653 1.3687-0.85471 1.3994-0.6789 1.4446-0.42684 1.6141-0.11219 1.6685 0.18641 1.7091 0.40876 1.7389 0.57198 1.7606 0.68982 1.7762 0.77309 3.5815 1.6972 8.9904 4.4334 3.5493 1.6226 1.7449 0.72966 2.1818 0.81473 1.7564 0.55114 1.0548 0.27756 2.2257 0.46477 1.0141 0.258 0.68022 0.24615 0.63122 0.32657 1.0853 0.9165 0.94957 1.2067 0.87803 1.3917 1.7779 2.9758 1.0213 1.4131 1.2017 1.2441 0.94722 0.70279 1.0466 0.59915 1.1282 0.51208 1.7251 0.60861 1.8257 0.49694 1.8987 0.41529 1.951 0.35657 4 0.6031 10.17 1.3621 2.0116 0.32356 1.9861 0.37138 1.9483 0.44086 1.894 0.5394 1.8175 0.6769 1.7113 0.86616 1.5597 1.0828 1.4554 1.2759 1.3806 1.4253 1.3289 1.5416 1.2955 1.6332 1.2762 1.7068 1.2677 1.7672 2.5378 3.6774 2.5563 3.8077 5.8115 8.7854 0.70226 1.0412 0.30033 0.3823" stroke="#bdc660"/>
    </defs>
    <g clip-path="url(#p23a75d5912)">
     <use y="194.198286" fill="#bdc660" stroke="#bdc660" xlink:href="#m0ab3a1f121"/>
    </g>
   </g>
  </g>
 </g>
 <defs>
  <clipPath id="p23a75d5912">
   <rect x="7.2" y="7.2" width="357.12" height="179.8"/>
  </clipPath>
 </defs>
</svg>
