<?xml version="1.0" encoding="UTF-8"?>
<!DOCTYPE svg  PUBLIC '-//W3C//DTD SVG 1.1//EN'  'http://www.w3.org/Graphics/SVG/1.1/DTD/svg11.dtd'>
<svg width="352.12pt" height="280.51pt" version="1.1" viewBox="0 0 352.12 280.51" xmlns="http://www.w3.org/2000/svg" xmlns:xlink="http://www.w3.org/1999/xlink">
 <metadata>
  <rdf:RDF xmlns:cc="http://creativecommons.org/ns#" xmlns:dc="http://purl.org/dc/elements/1.1/" xmlns:rdf="http://www.w3.org/1999/02/22-rdf-syntax-ns#">
   <cc:Work>
    <dc:type rdf:resource="http://purl.org/dc/dcmitype/StillImage"/>
    <dc:date>2024-07-04T12:10:10.607563</dc:date>
    <dc:format>image/svg+xml</dc:format>
    <dc:creator>
     <cc:Agent>
      <dc:title>Matplotlib v3.7.1, https://matplotlib.org/</dc:title>
     </cc:Agent>
    </dc:creator>
   </cc:Work>
  </rdf:RDF>
 </metadata>
 <defs>
  <style type="text/css">*{stroke-linejoin: round; stroke-linecap: butt}</style>
 </defs>
 <g id="figure_1">
  <g id="patch_1">
   <path d="m-0 280.51h352.12v-280.51h-352.12v280.51z" fill="none"/>
  </g>
  <g id="axes_1">
   <g id="PatchCollection_1">
    <defs>
     <path id="m7ed547a2b5" d="m329.57-105.36-0.10718 0.523-0.36373 1.112-0.55986 1.304-0.38201 0.73948-0.71094 1.1748-0.72147 1.0216-0.44302 0.55967-0.94214 1.0269-1.7464 1.5535-5.1247 3.9656-1.9848 1.6442-6.5443 5.9564-5.8528 5.0951-4.9535 4.6207-0.32126 0.24558-0.76711 0.82052-6.0681 6.9316-2.0191 2.0885-2.1104 1.8727-1.4615 1.07-1.1815 0.72789-1.2009 0.6146-1.3301 0.52939-1.4771 0.39039-0.83979 0.12505-1.035 0.062051-0.96964-0.026005-0.96919-0.099082-1.3691-0.24396-1.1517-0.27682-3.7374-1.0549-1.1109-0.25298-1.1789-0.1644-0.75924-0.023642-1.3392 0.15434-1.0577 0.29388-0.79639 0.31995-0.79167 0.40823-1.1472 0.79362-0.64531 0.60272-0.52898 0.63946-0.38202 0.60633-0.30133 0.64631-0.22734 0.72016-0.19114 1.7338 0.14364 1.883 0.21112 1.2354 0.27691 1.2678 0.5505 2.1265 0.52178 1.7853 1.817 5.6524 0.45084 1.8761 0.20116 1.8328-0.1413 1.9504-0.39783 1.918-0.94045 3.8187-0.30182 2.0052-0.38741 3.0881-0.21343 1.0634-0.203 0.70894-0.46508 1.0383-1.0382 1.1815-1.4043 0.75161-1.0555 0.2332-1.4382 0.090383-1.1832-0.053998-1.3645-0.17552-1.14-0.22185-1.5633-0.40029-3.916-1.3016-1.8365-0.54322-1.7201-0.284-1.0576 0.010299-0.89778 0.11206-1.395 0.2645-1.3565 0.13916-1.3466-0.16969-1.2227-0.34725-2.5662-0.93191-1.2612-0.69646-0.74938-0.67793-0.62531-0.81723-0.48653-0.91299-0.35324-0.98302-0.64454-2.0745-0.48009-1.0609-0.61502-1.0364-0.73434-0.97293-1.0106-1.0139-1.1534-0.78617-1.0521-0.4324-1.1181-0.27377-0.91524-0.12887-0.94533-0.027298-1.0739 0.11868-1.2092 0.29284-1.2326 0.43004-1.2921 0.55732-1.2999 0.63884-2.7664 1.4583-1.5976 0.92163-3.5629 2.1637-1.3143 0.74557-1.6903 0.82639-1.1676 0.43884-1.1747 0.29459-1.4705 0.13455-1.4822-0.068164-2.3759-0.36302-1.7217-0.41789-2.6807-0.80462-1.3952-0.50075-0.83145-0.36098-0.81386-0.40484-1.6644-0.97418-2.5612-1.6911-2.0543-1.2927-5.6104-3.968-1.9885-1.1578-1.2686-0.64283-1.3156-0.60172-1.3655-0.55805-1.4017-0.50266-1.5956-0.48175-1.6278-0.38259-2.6158-0.34762-2.631 0.051944-2.2188 0.40365-1.8546 0.55446-1.6395 0.62204-1.4341 0.6371-1.3683 0.68835-1.4094 0.7966-1.5245 0.97785-1.1311 0.82572-0.44306 0.37212-0.13505 0.17161 0.037058-0.54082 0.6251-2.5596 0.22562-1.1308 0.16591-1.4382-0.021265-1.2362-0.1815-1.1903-0.23506-0.82794-0.78006-1.4841-1.1757-1.1563-1.3114-0.67507-1.5142-0.42592-1.2726-0.21399-4.5614-0.52535-1.4683-0.26999-1.4422-0.39746-2.0038-0.84192-2.0078-1.1197-4.7138-3.0873-0.77631-0.45725-1.0143-0.5272-1.3229-0.59303-1.3143-0.41251-1.3269-0.13682-1.7663 0.34388-1.0231 0.4356-1.5308 0.91089-1.1309 0.82552-1.1265 0.91175-4.8937 4.2282-1.5872 1.1802-1.1405 0.69134-1.1334 0.50694-1.6763 0.30022-1.3059-0.23544-1.2981-0.5973-1.2928-0.88076-1.4421-1.2415-1.4448-1.443-1.1579-1.2565-2.3332-2.7048-3.8541-4.7593-8.0453-10.526-2.7238-3.368-1.3893-1.6023-1.3662-1.4771-1.3944-1.3775-1.2747-1.118-1.3145-0.98932-1.0398-0.65273-1.0708-0.54611-1.8186-0.66082-1.88-0.48516-2.2907-0.4697-1.2185-0.16766-4.9999-0.37186-1.9011-0.2101-1.5685-0.24189-1.2218-0.25219-1.6576-0.46014-1.7875-0.61211-1.798-0.69582-5.3163-2.2399-5.0318-2.2729-4.179-2.0561-3.493-1.8757-2.635-1.5945-1.2725-0.8675-1.1675-0.88337-0.92598-0.79438-0.80306-0.80545-0.79794-1.027-0.51111-1.0336-0.15887-1.0296 0.37672-1.299 0.91236-1.28 1.3121-1.2647 1.6067-1.2524 1.821-1.2425 1.9746-1.2345 2.0829-1.2279 6.6095-3.6526 9.0371-4.7892 3.4567-1.8874 3.8034-2.2022 3.5026-2.1616 2.2523-1.4639 2.1788-1.4891 2.0747-1.5165 1.4342-1.137 1.3267-1.1621 1.3476-1.3781 1.0956-1.4366 0.68626-1.3134 0.36104-1.325 0.040548-1.2208-0.18428-1.2684-0.52184-1.7994-0.73228-1.8937-1.3309-3.1747-0.83353-2.1619-2.1266-6.3939-2.4934-6.8775-0.11286-0.5078 0.47507-0.28264 2.4725-1.2145 10.968-5.1801 9.5707-4.6057 2.3355-1.2114 2.241-1.2885 2.1228-1.3727 1.9753-1.4707 1.7911-1.5896 3.5128-3.8013 1.6957-1.7317 1.7803-1.6725 1.8521-1.596 3.9386-3.0813 3.4809-2.6195 1.5879-1.1146 0.88694-0.56236 1.6798-0.92349 2.9878-1.3457 4.8871-2.0467 1.727-0.65873 2.0577-0.68142 1.6969-0.45442 1.4842-0.31835 1.7866-0.30897 7.4012-0.99337 3.0234-0.49736 1.3867-0.28702 1.9663-0.50424 1.3093-0.41853 1.9213-0.74355 2.3337-1.0877 3.6703-1.9909 5.9582-3.3797 8.2045-4.9466 3.0113-1.7081 1.5481-0.82598 2.4619-1.2387 3.8244-1.7475 2.4977-1.0232 0.86807-0.31951 0.59389-0.1449 3.4728-0.86443 1.978-0.5464 1.8341-0.59239 2.2594-0.86834 1.5741-0.70579 1.6984-0.88142 1.3229-0.79132 1.0278-0.69607 0.87998-0.67314 0.86348-0.73887 1.6706-1.6424 2.0982-2.3955 3.5099-4.4423 4.8356-6.3671 0.88132-0.99443 0.79535-0.66724 0.88966-0.55224 0.73626-0.3406 0.77858-0.28006 1.2572-0.33532 1.3192-0.24933 2.7623-0.33263 6.1245-0.51466 1.383-0.18213 1.3567-0.25065 1.3168-0.34857 1.2597-0.48223 1.2331-0.66692 1.1882-0.79528 2.3846-1.7477 1.2631-0.83856 1.1068-0.62826 1.1463-0.56518 1.1622-0.5059 1.5038-0.57448 2.3115-0.71346 0.67128-0.14757 0.28844-0.00396 0.21136 0.003776 0.38807 0.35076 0.52099 0.69368 2.0311 3.2223 1.3254 1.9564 2.9684 4.1813 1.4704 2.1912 1.3568 2.2679 0.7329 1.4023 0.67977 1.4291 1.0537 2.4305 1.6069 4.0842 1.2582 3.5362 2.6315 8.0017 1.1378 3.3082 4.106 11.421 2.0148 5.8319 1.1344 2.8888 1.2305 2.608 1.7713 3.2655 4.7204 7.8923 3.3879 5.9564 1.9121 3.5605 5.372 10.392 1.7461 3.174 0.95617 1.6233 0.89774 1.4249 0.87797 1.2886 0.73088 0.99402 1.2038 1.4659 0.8947 0.93317 0.92692 0.82006 1.0555 0.74669 1.0984 0.55701 0.6567 0.2259 1.6197 0.32416 2.6597 0.272 1.3346 0.21381 1.4307 0.40038 1.2029 0.47694 1.3657 0.76502 1.3237 0.96549 1.2453 1.0904 1.195 1.2103 1.1606 1.3441 1.0728 1.428 1.0188 1.5991 0.52661 0.96144 0.87887 1.7996 0.73713 1.8589 0.51889 1.9172 0.13938 0.86192 0.13772 1.9302-0.074741 1.9475-0.25596 1.907-1.2632 6.456-0.19631 1.2662-0.1576 2.2608 0.021388 2.7854 0.13786 2.3953 0.27859 1.9278 0.38491 1.5031 0.5201 1.4848 0.50645 1.189 0.5576 1.139 0.98353 1.7203 1.0089 1.4697 0.52968 0.62916 0.326 0.23118" stroke="#bdc660"/>
    </defs>
    <g clip-path="url(#pd8a7e00ce0)">
     <use y="280.512" fill="#bdc660" stroke="#bdc660" xlink:href="#m7ed547a2b5"/>
    </g>
   </g>
  </g>
 </g>
 <defs>
  <clipPath id="pd8a7e00ce0">
   <rect x="7.2" y="7.2" width="337.72" height="266.11"/>
  </clipPath>
 </defs>
</svg>
