<?xml version="1.0" encoding="UTF-8"?>
<!DOCTYPE svg  PUBLIC '-//W3C//DTD SVG 1.1//EN'  'http://www.w3.org/Graphics/SVG/1.1/DTD/svg11.dtd'>
<svg width="326.06pt" height="280.51pt" version="1.1" viewBox="0 0 326.06 280.51" xmlns="http://www.w3.org/2000/svg" xmlns:xlink="http://www.w3.org/1999/xlink">
 <metadata>
  <rdf:RDF xmlns:cc="http://creativecommons.org/ns#" xmlns:dc="http://purl.org/dc/elements/1.1/" xmlns:rdf="http://www.w3.org/1999/02/22-rdf-syntax-ns#">
   <cc:Work>
    <dc:type rdf:resource="http://purl.org/dc/dcmitype/StillImage"/>
    <dc:date>2024-07-04T12:10:14.234941</dc:date>
    <dc:format>image/svg+xml</dc:format>
    <dc:creator>
     <cc:Agent>
      <dc:title>Matplotlib v3.7.1, https://matplotlib.org/</dc:title>
     </cc:Agent>
    </dc:creator>
   </cc:Work>
  </rdf:RDF>
 </metadata>
 <defs>
  <style type="text/css">*{stroke-linejoin: round; stroke-linecap: butt}</style>
 </defs>
 <g id="figure_1">
  <g id="patch_1">
   <path d="m0 280.51h326.06v-280.51h-326.06v280.51z" fill="none"/>
  </g>
  <g id="axes_1">
   <g id="PatchCollection_1">
    <defs>
     <path id="mc21beb36c5" d="m92.939-253.21 4.2346 4.545 2.3994 2.6572 2.273 2.6433 1.0431 1.2934 0.95619 1.269 0.8462 1.2415 0.70696 1.2101 0.35472 0.72233 0.37431 0.84477 0.23394 0.59506 0.73024 2.6604 0.26668 0.77709 0.29378 0.73628 0.21413 0.46746 0.42354 0.74419 0.51835 0.68101 0.61728 0.57249 0.72591 0.41235 0.69192 0.18952 0.7586 0.06622 0.80896-0.033321 0.71894-0.092312 0.73752-0.14072 1.4079-0.36572 1.2604-0.40817 0.89698-0.32613 3.1055-1.2962 0.96696-0.3238 1.2795-0.31938 1.0046-0.16959 1.2366-0.11479 2.5124-0.12433 2.0332-0.20068 1.3348-0.19081 1.2221-0.21447 1.4014-0.29118 1.0108-0.25522 1.3172-0.41518 0.71209-0.28446 0.86511-0.45479 1.408-0.90304 0.50247-0.2367 0.6764-0.16934 0.65179-0.021828 0.77234 0.14531 0.60078 0.25017 2.1526 1.1969 0.9881 0.47088 1.059 0.4374 1.1173 0.38342 1.1663 0.30626 0.85373 0.15956 1.0145 0.13255 1.2276 0.092376 0.95884 0.026356 1.265-0.014621 1.401-0.082497 1.217-0.12975 1.181-0.18843 1.2773-0.29042 0.87199-0.26239 0.87463-0.31677 1.153-0.49916 0.80631-0.40062 2.4692-1.3279 0.93162-0.44881 0.66954-0.2723 0.63803-0.22518 1.0107-0.30922 0.77977-0.20924 1.1518-0.27175 1.1892-0.24418 2.5862-0.47262 1.9586-0.32596 0.77702-0.10694 1.2311-0.12493 1.4736-0.050716 0.75396 0.025748 0.7419 0.067285 0.90422 0.15113 0.4673 0.11442 0.87731 0.28007 1.3599 0.55024 2.4486 1.233 1.4839 0.6691 0.7188 0.28976 1.2911 0.47261 1.3197 0.42808 1.3396 0.38292 0.99044 0.24965 0.99481 0.21918 0.99706 0.18335 1.0714 0.14996 1.0681 0.094279 1.0313 0.02976 1.0476-0.035692 0.94006-0.066444 4.0963-0.38479 0.88345-0.12716 2.2639-0.44496 1.3961-0.22218 0.4424-0.045169 1.8506-0.081928 0.93218-0.065464 1.2505-0.20968 1.2484-0.35186 0.6987-0.25208 0.69501-0.28381 0.97448-0.44089 2.165-1.0273 0.85513-0.37171 0.86948-0.32925 0.58728-0.18456 0.8329-0.19903 0.81142-0.1161 0.8917-0.029854 0.74519 0.06846 0.33175 0.063953 0.68273 0.2053 0.65192 0.27677 0.76598 0.39527 3.3614 1.8873 0.85956 0.45784 0.82922 0.38055 0.62155 0.23185 0.97151 0.25919 0.51424 0.085317 1.9016 0.17466 0.85168 0.12343 0.84024 0.19518 0.80651 0.2961 0.59845 0.31599 1.88 1.2363 0.85933 0.52804 1.2017 0.66269 0.54302 0.2593 0.52393 0.21962 0.78385 0.2697 0.92846 0.24275 2.2947 0.518 0.7033 0.1997 0.88579 0.30669 0.85113 0.37152 0.78527 0.41612 1.074 0.68874 1.3625 0.96617 0.74936 0.44507 0.45025 0.19614 0.46996 0.13809 0.46374 0.070947 0.44224 0.002349 0.58755-0.09465 0.46574-0.15241 0.6756-0.32029 0.83376-0.50444 0.96628-0.65304 0.5971-0.47598 0.40135-0.41763 0.30338-0.45432 0.13723-0.30878 0.11908-0.3997 0.065053-0.34594 0.064936-0.69134 0.038163-1.4039 0.058191-0.81706 0.1374-0.80844 0.17979-0.64073 0.33396-0.79091 0.4117-0.69319 0.38371-0.50874 0.26921-0.30076 0.3304-0.31819 0.50933-0.39819 0.35752-0.21922 0.81224-0.34452 0.87678-0.21963 0.91636-0.13324 1.3687-0.089376 0.64851 0.007528 0.62865 0.048709 0.56484 0.089774 0.52945 0.13875 0.64901 0.28223 0.2917 0.1919 0.55935 0.57341 0.37434 0.69875 0.15804 0.54979 0.28578 1.8326 0.076439 0.36234 0.21 0.71873 0.29254 0.75045 0.40966 0.88397 0.52461 0.9699 1.5309 2.4626 0.73981 1.3224 0.60302 1.2138 0.39845 0.95225 0.19628 0.55642 0.31764 1.1514 0.17345 0.89352 0.3247 1.9982 0.14373 0.61116 0.29695 0.89337 0.21414 0.48735 0.21695 0.42004 0.40826 0.65884 0.25912 0.35648 0.46921 0.56767 0.40968 0.42927 0.82875 0.75413 1.9223 1.5915 0.72288 0.66075 0.33948 0.34742 0.55294 0.67951 0.21886 0.34807 0.18183 0.3665 0.16819 0.49734 0.077829 0.40967 0.0342 0.69085-0.043478 0.63544-0.07566 0.53958-0.41053 1.9447-0.051506 0.38848-4.62e-4 0.22559 0.030966 0.14974 0.10249 0.08948 0.2246 0.15167 0.11122 0.1665 0.19902 0.51101 0.10686 0.5332 0.034711 0.3767 8.91e-4 0.48293-0.04963 0.49375-0.099047 0.47711-0.1729 0.54136-0.25864 0.60254-0.21017 0.41355-0.43981 0.75438-1.0996 1.7661-0.18019 0.34287-0.22062 0.52573-0.16671 0.58701-0.18462 1.0267-0.1252 0.97601-0.046414 0.96269 0.093507 0.91224 0.3031 0.82392 0.36976 0.51016 0.30661 0.31353 0.67976 0.56168 1.981 1.4301 0.55927 0.47033 0.6261 0.63787 0.65644 0.9598 0.38675 1.0304 0.20622 1.1434 0.069078 1.1555-0.022432 1.211-0.090663 1.2518-0.14061 1.2813-0.1994 1.4632-0.93268 5.9655-0.19887 1.4952-0.15444 1.4892-0.089041 1.4794 0.002995 1.4651 0.12913 1.4451 0.22415 1.1792 0.31515 1.1642 0.38548 1.1519 0.4391 1.1416 0.47933 1.1325 0.54365 1.1979 0.56841 1.1869 1.1867 2.3308 1.2384 2.2761 0.7002 1.224 0.74184 1.1527 0.83577 1.0435 0.70848 0.68723 0.55439 0.46257 2.09 1.5574 0.91461 0.7226 0.88172 0.7875 0.63237 0.68316 0.23618 0.30575 0.62837 1.0796 0.28303 0.68106 0.23239 0.71393 0.28736 1.248 0.18143 1.3869 0.060604 1.3542-0.034227 1.1526-0.12893 1.216-0.23396 1.1665-0.36428 1.1241-0.52419 1.0493-0.5014 0.70544-0.47084 0.53752-0.59094 0.57508-0.73504 0.61409-0.65743 0.48186-1.2887 0.81385-0.9848 0.5436-1.7066 0.85863-1.3439 0.62018-1.4153 0.58469-0.74071 0.27751-1.3285 0.44866-0.75021 0.22381-0.75463 0.20101-0.95329 0.21469-1.8204 0.27648-1.1001 0.10728-4.3709 0.33497-1.1185 0.12902-0.83573 0.12908-1.1459 0.22403-0.70441 0.16678-1.3037 0.36586-0.9967 0.33408-1.294 0.52064-1.0302 0.49299-1.3046 0.69784-3.0923 1.7636-1.2051 0.72763-0.47439 0.3154-1.9505 1.4428-0.43607 0.28549-0.60948 0.31829-0.54269 0.19176-0.3853 0.088421-0.54943 0.065109-0.57038-0.002705-0.59353-0.076333-0.52628-0.12978-0.32039-0.1074-0.63055-0.273-0.58022-0.31989-0.55084-0.35765-1.1631-0.8647-1.8962-1.658-0.9946-0.9067-0.9929-0.95184-1.0369-1.0655-1.8946-2.0243-1.0749-1.0646-0.79671-0.70509-0.71975-0.5846-0.80462-0.60975-1.0683-0.74575-0.82577-0.5212-2.3949-1.3872-1.1602-0.71894-4.2252-2.8333-0.99977-0.6106-0.91509-0.47443-0.7888-0.31096-0.23124-0.068861-0.77733-0.14814-0.38427-0.030579-0.5946-0.006578-1.0916 0.076408-0.75423 0.11826-0.6941 0.1526-0.80238 0.23619-0.81163 0.29456-0.85968 0.37281-2.2377 1.0704-2.9557 1.5286-1.9235 0.90296-2.5089 1.0531-1.5278 0.59201-1.2277 0.41424-1.1816 0.31159-0.96543 0.19243-0.90019 0.12916-0.90952 0.077898-0.9313 0.025935-0.83348-0.012988-1.1136-0.064655-1.3282-0.12573-2.1424-0.25043-0.64391-0.049677-1.0606-6.07e-4 -0.99348 0.084088-1.4443 0.20164-1.5626 0.30263-1.2565 0.28527-2.5362 0.67472-1.2343 0.26634-1.1169 0.1591-2.6188 0.14344-1.3992 0.16741-0.90524 0.1646-0.71365 0.1679-0.83798 0.22968-0.84971 0.26803-2.5624 0.92935-1.1366 0.45727-0.87891 0.38669-1.3149 0.63542-1.01 0.52544-2.9267 1.6395-1.4619 0.89837-1.1559 0.76577-2.411 1.7174-3.8713 2.9067-0.68352 0.47354-0.10951 0.060642-0.08765 0.010631 0.16872 0.12259 0.26811 0.5592 0.18733 0.60059 0.16151 0.77213 0.10248 0.96911 0.009933 1.0128-0.049543 0.81367-0.094371 0.82851-0.12994 0.81134-0.16329 0.81057-0.34593 1.3719-0.43272 1.4023-1.2389 3.5321-0.30382 0.98228-0.54872 2.0063-0.15253 0.43006-0.36918 0.87843-0.55892 1.1272-0.61787 1.1167-0.71672 1.1817-0.49977 0.69314-0.36193 0.42017-0.85047 0.83231-0.93984 0.77766-1.0175 0.74698-1.0755 0.72339-1.1182 0.70507-2.3195 1.3693-6.2413 3.4979-1.2086 0.73207-1.1362 0.74742-1.0326 0.76976-0.88734 0.80149-0.6868 0.84588-0.4135 0.90717-0.090502 0.87353 0.11205 0.9415 0.23709 1.0156 0.71066 2.4898 1.2809 4.0639 2.4033 7.2502 1.7443 5.3985 1.1166 3.3703 0.34147 0.95422 0.23501 0.55375-0.1332-0.014768-0.2918 0.044453-0.85174 0.26829-0.38211 0.1544-0.69949 0.33231-0.55796 0.31979-0.51936 0.3591-0.44748 0.3828-0.33785 0.36306-0.28016 0.38678-0.23134 0.43719-0.17609 0.49805-0.068075 0.28046-0.097211 0.69488-0.022469 0.55027 0.065262 1.287 0.25603 2.1682 0.088696 1.047-0.011209 0.99801-0.063772 0.56515-0.11831 0.57852-0.19894 0.61701-0.56898 1.0804-0.77712 1.0107-0.9279 0.9584-1.0354 0.9195-1.111 0.89049-1.1633 0.86847-1.199 0.85099-2.4626 1.657-2.5103 1.5891-1.2672 0.75759-1.2755 0.72128-1.2859 0.67162-1.2998 0.60382-1.3188 0.5119-0.96769 0.29938-0.97571 0.24453-1.395 0.26707-1.115 0.13653-1.133 0.075439-0.96398 0.027569-2.2902 0.01-1.8139 0.068839-1.3259 0.12155-1.3385 0.17096-1.3504 0.21216-1.5486 0.28265-1.5645 0.31817-6.0044 1.3507-3.0901 0.64529-1.5492 0.27318-1.5318 0.21646-1.4872 0.13813-1.4009 0.038597-1.1279-0.052312-0.94966-0.095167-0.6879-0.096633-0.27549-0.076196-1.5459-5.2168-1.5117-4.7813-4.9037-14.796-1.2618-3.6579-0.94441-2.4727-0.44981-1.0594-0.47339-1.0096-0.54136-1.0056-0.59125-0.90779-0.45171-0.56162-0.48846-0.48749-0.89906-0.60185-0.71279-0.24782-1.0553-0.13959-0.65945 0.004404-0.68212 0.059316-1.23 0.21476-0.86222 0.20934-4.8512 1.4338-2.0188 0.52047-1.1052 0.2327-1.7645 0.27009-1.3843 0.10118-0.71678 0.001824-1.2339-0.088286-0.93285-0.14543-0.95724-0.22015-0.82406-0.25175-0.77312-0.28732-0.57701-0.25486-0.58301-0.30319-0.51396-0.31264-0.80854-0.58542-0.96015-0.84193-0.96323-0.9891-0.92192-1.0612-0.8923-1.1123-0.87158-1.1475-1.706-2.3551-4.1941-5.9245-3.5482-4.835-0.51634-0.76189-0.67905-1.2185-0.55838-1.2974-0.43666-1.3633-0.30399-1.3677-0.19755-1.285-0.14634-1.3101-0.42617-5.1734-0.1624-1.4579-0.22511-1.4464-0.27434-1.2633-0.3284-1.1477-0.45713-1.242-0.42026-0.92181-0.64884-1.1549-0.6618-0.9392-0.73208-0.83167-0.87502-0.78453-1.1161-0.79663-1.0345-0.60748-0.7514-0.38587-0.76763-0.3541-1.2026-0.48213-0.87093-0.29905-0.89021-0.26204-1.2528-0.28836-0.64886-0.09874-0.52945-0.023675-0.28935 0.13314-0.094058-0.34753 0.080166-0.80076 0.099318-0.50485 0.30234-1.1265 0.40405-1.1873 0.36976-0.94467 0.61805-1.4055 0.33417-0.69635 1.8132-3.5468 0.49383-1.1487 0.28378-0.82236 0.2265-0.81683 0.57485-2.5606 0.30765-1.1293 0.94586-3.0187 0.39636-1.0347 0.46564-1.0207 0.53447-0.99711 0.4959-0.80766 2.0823-3.0697 0.94739-1.5541 0.77955-1.482 0.38346-0.81397 0.35478-0.80526 0.66663-1.6313 0.15846-0.45006 0.21019-0.76048 0.14459-0.89154 0.083265-1.0305 0.029707-0.75179 0.01477-2.9943 0.051306-1.7308 0.058474-0.75563 0.13627-1.0203 0.12527-0.61775 0.15981-0.58957 0.34551-0.93393 0.20125-0.44093 0.33126-0.64197 0.32419-0.55937 0.73351-1.1068 3.0098-4.0723 0.58286-0.83802 0.48325-0.83838 0.26864-0.64664 0.23207-0.76838 0.45641-1.986 0.21177-1.1403 0.56058-3.4507 0.18011-0.84449 0.22169-0.82947 0.23777-0.70238 0.2901-0.6791 0.55287-0.98412 0.65448-0.93911 2.1844-2.759 0.68272-0.96859 0.72096-1.2177 1.3191-2.5421 0.70809-1.2533 0.71092-1.0698 0.78425-1.0175 0.84792-0.95834 0.90541-0.88877 0.95972-0.80494 1.0595-0.7482 1.899-1.2447 0.72626-0.55632 0.46185-0.39892 0.80106-0.80919 0.44494-0.55365 0.28285-0.4275 0.51632-1.0981 0.34923-1.2107 0.22628-1.2952 0.13818-1.3579 0.077627-1.4037 0.039144-1.4364 0.090037-5.6208 0.062059-1.3422 0.087231-1.2113 0.12908-1.201 0.18526-1.1859 0.2973-1.3553 0.36038-1.3274 1.1992-3.9732 0.30763-1.226 0.18132-1.1103-0.005133-0.94964-0.2674-0.7289-0.33453-0.3149-0.61528-0.24437-0.56522-0.060356-0.57735 0.032288-0.63249 0.11059-0.66782 0.17905-0.72845 0.2514-0.63129 0.25662-1.1333 0.537-1.4896 0.81471-1.0016 0.60055-3.0292 1.9635-1.393 0.82687-1.0578 0.53704-1.0694 0.45866-0.94447 0.32652-0.88236 0.23508-1.0529 0.21542-1.0442 0.13016-1.0273 0.014979-0.99274-0.12184-0.96276-0.23706-0.92664-0.3248-0.87426-0.4012-1.0384-0.67662-0.98221-0.83846-0.93844-0.95152-1.1453-1.3165-0.63958-0.81857-0.98382-1.4282-1.8353-2.9213-0.71536-1.2001-0.53635-1.007-0.42139-0.87646-0.63975-1.4831-0.60085-1.5432-0.93054-2.5918-2.8908-8.3906-0.24004-0.66328-0.11104-0.23294 1.3678-0.73035 1.9356-1.117 4.467-2.641 3.9158-2.383 1.3254-0.72485 0.60845-0.29512 1.2173-0.52892 0.72419-0.28727 4.1123-1.5654 0.72907-0.23321 2.6959-0.74419 0.6677-0.2134 0.73184-0.27028 0.7167-0.31873 0.83671-0.4906 0.81608-0.69093 0.4924-0.59852 0.33791-0.52528 0.18465-0.33398 0.82194-1.6283 0.54862-0.88264 0.62653-0.85966 0.74202-0.88224 0.82859-0.76754 0.65742-0.4973 0.57002-0.3734 0.81311-0.45295 0.8214-0.36536 0.77308-0.25445 0.60866-0.13743 0.75477-0.1082 0.83223-0.060254 0.8949-0.016785 2.859 0.047853 2.2057-0.066272 3.2424-0.19829 6.1687-0.47366 2.9811-0.1763 1.9514-0.035298 0.84546 0.035259 0.84586 0.089391 0.70113 0.13685 0.78941 0.26424 0.62592 0.34955 0.48507 0.41511 0.42811 0.5055 0.49166 0.77771 0.28538 0.5606 0.29248 0.65963 0.86039 2.1989 0.44992 1.0215 0.4007 0.73821 0.28669 0.25015" stroke="#bdc660"/>
    </defs>
    <g clip-path="url(#p128a87c92a)">
     <use y="280.512" fill="#bdc660" stroke="#bdc660" xlink:href="#mc21beb36c5"/>
    </g>
   </g>
  </g>
 </g>
 <defs>
  <clipPath id="p128a87c92a">
   <rect x="7.2" y="7.2" width="311.66" height="266.11"/>
  </clipPath>
 </defs>
</svg>
