<?xml version="1.0" encoding="UTF-8"?>
<!DOCTYPE svg  PUBLIC '-//W3C//DTD SVG 1.1//EN'  'http://www.w3.org/Graphics/SVG/1.1/DTD/svg11.dtd'>
<svg width="238.95pt" height="280.51pt" version="1.1" viewBox="0 0 238.95 280.51" xmlns="http://www.w3.org/2000/svg" xmlns:xlink="http://www.w3.org/1999/xlink">
 <metadata>
  <rdf:RDF xmlns:cc="http://creativecommons.org/ns#" xmlns:dc="http://purl.org/dc/elements/1.1/" xmlns:rdf="http://www.w3.org/1999/02/22-rdf-syntax-ns#">
   <cc:Work>
    <dc:type rdf:resource="http://purl.org/dc/dcmitype/StillImage"/>
    <dc:date>2024-07-04T12:10:13.022748</dc:date>
    <dc:format>image/svg+xml</dc:format>
    <dc:creator>
     <cc:Agent>
      <dc:title>Matplotlib v3.7.1, https://matplotlib.org/</dc:title>
     </cc:Agent>
    </dc:creator>
   </cc:Work>
  </rdf:RDF>
 </metadata>
 <defs>
  <style type="text/css">*{stroke-linejoin: round; stroke-linecap: butt}</style>
 </defs>
 <g id="figure_1">
  <g id="patch_1">
   <path d="m-0 280.51h238.95v-280.51h-238.95v280.51z" fill="none"/>
  </g>
  <g id="axes_1">
   <g id="PatchCollection_1">
    <defs>
     <path id="ma6608690bd" d="m175.96-214.53 0.13127 0.27538 0.28378 0.78415 3.4175 9.9196 1.1001 3.0641 0.71034 1.8244 0.75633 1.7533 0.49817 1.0362 0.63409 1.1906 0.84572 1.4187 2.1698 3.4536 1.1631 1.6885 0.75614 0.96774 1.354 1.5564 1.1094 1.1249 1.1612 0.99125 1.2276 0.79992 1.0336 0.47431 1.0955 0.38399 1.1382 0.28026 1.1736 0.14404 1.2145-0.017709 1.2344-0.15388 1.2448-0.25467 1.0431-0.27792 1.1166-0.38602 1.2643-0.54224 1.2505-0.6349 1.6469-0.97755 3.5812-2.3213 1.1841-0.70999 1.7611-0.96317 1.3399-0.63486 0.74633-0.30339 0.86119-0.29722 0.78951-0.21168 0.74775-0.13075 0.68256-0.038172 0.66822 0.071355 0.7274 0.2889 0.39549 0.37228 0.31613 0.86173 0.00607 1.1227-0.21436 1.3126-0.36369 1.4494-1.4177 4.6972-0.42606 1.5693-0.35147 1.6022-0.21902 1.402-0.1526 1.4199-0.10313 1.4321-0.073368 1.5868-0.10644 6.645-0.046278 1.6982-0.091772 1.6595-0.16336 1.6053-0.26752 1.5312-0.41287 1.4313-0.61041 1.2982-0.33439 0.5054-0.52602 0.65455-0.94704 0.95664-0.54601 0.47162-0.85861 0.6577-2.245 1.4715-1.2526 0.88454-1.1346 0.95162-1.0704 1.0507-1.0024 1.133-0.92717 1.2029-0.84047 1.2647-0.83712 1.4816-1.5595 3.0053-0.85235 1.4396-0.80714 1.1451-2.5824 3.2617-0.77375 1.1102-0.65362 1.1635-0.34297 0.80284-0.2811 0.83037-0.26208 0.98062-0.21293 0.99838-0.66273 4.0795-0.25036 1.3481-0.53958 2.3479-0.27436 0.9084-0.31759 0.76447-0.57131 0.99116-0.68908 0.99073-3.5583 4.8144-0.86717 1.3085-0.38327 0.6613-0.39162 0.75896-0.23792 0.52128-0.40847 1.1041-0.18893 0.697-0.1481 0.73032-0.1611 1.2062-0.06913 0.89333-0.060655 2.0462-0.017462 3.54-0.03512 0.88879-0.098438 1.2183-0.17094 1.054-0.2485 0.89907-0.18734 0.53208-0.78811 1.9286-0.41943 0.952-0.45334 0.9623-0.92161 1.7521-1.12 1.8373-2.4617 3.6291-0.58626 0.95484-0.63187 1.1788-0.55049 1.2067-0.46859 1.2232-1.1182 3.5687-0.36371 1.3351-0.6796 3.0272-0.26778 0.96568-0.33549 0.97222-0.58382 1.358-2.1436 4.1932-0.39506 0.82325-0.73068 1.6616-0.43714 1.1168-0.47768 1.4037-0.35743 1.3317-0.11742 0.59685-0.094775 0.94668 0.1112 0.41086-5.5478 3.9837-1.3356 0.89603-1.1659 0.72131-1.3409 0.74797-1.1312 0.55205-0.88696 0.37667-1.0695 0.38619-1.1024 0.31952-0.88479 0.19604-1.1139 0.16766-1.0348 0.086467-1.8713 0.032411-4.0213-0.13281-1.037-0.00302-1.2729 0.056078-1.3679 0.13361-1.3728 0.19111-2.1914 0.36155-4.1299 0.84326-1.1097 0.18504-2.6754 0.38186-0.84582 0.18115-0.60252 0.22122-0.54042 0.31277-0.2939 0.24025-0.31114 0.31621-0.60599 0.7718-1.0296 1.5994-0.60043 0.83428-0.69094 0.83836-0.41984 0.46323-0.82546 0.81622-0.79964 0.66758-0.72817 0.48016-0.57738 0.30137-0.5445 0.2312-0.54672 0.19048-1.002 0.27385-3.0744 0.6831-2.4822 0.63713-1.8453 0.5701-2.9645 1.0571-1.657 0.53282-0.98518 0.25489-0.88124 0.18644-1.0371 0.17121-1.0293 0.11896-1.287 0.074761-1.4179-0.022295-0.74164-0.068487-0.56764-0.08756-2.0557-0.46186-1.2527-0.21695-0.66025-0.03691-0.47823 0.018326-0.47108 0.057421-0.68518 0.14766-0.97166 0.32473-0.69783 0.30613-0.54282 0.27967-0.75527 0.45118-1.3564 0.95422-2.6772 2.1163-1.3669 1.0447-1.211 0.88659-1.3593 0.93764-1.4715 0.94227-2.4592 1.46-1.3594 0.73337-1.5374 0.73381-1.007 0.38969-0.78363 0.21985-0.784 0.13746-1.0069 0.076566-1.0774-0.017916-1.1152-0.094953-1.8834-0.24642-0.8795-0.19939-0.14344-0.080715-0.16172-0.17253-0.69825-0.94551-1.8581-3.0022-1.122-1.6664-0.77476-1.0327-0.81139-0.97457-1.0036-1.1044-2.7786-2.936-1.1031-1.0008-2.4078-1.9244-0.88832-0.86278-0.65322-0.78394-0.53633-0.76656-0.81093-1.3701-1.5826-3.0433-1.5112-2.8019-0.34529-0.74221-0.22794-0.58127-0.27161-0.94626-0.11951-0.76768-0.026906-1.0348 0.069583-0.87663 0.16216-1.0775 0.23198-1.1595 1.1881-4.8053 0.37043-1.7284 0.20148-1.2356 0.13637-1.2041 0.052103-0.79892 0.018394-1.1526-0.031395-0.91072-0.14543-1.5613-0.29738-1.7839-0.28948-1.2687-0.45578-1.5816-0.42789-1.2145-0.50718-1.2163-0.75617-1.5354-0.92307-1.573-0.94635-1.3432-1.1738-1.4034-1.2671-1.3286-1.1533-1.0417-1.1681-0.8764-0.69306-0.43275-2.1713-1.186-0.75771-0.45207-0.8762-0.63392-0.62273-0.57877-0.29406-0.31333-1.9845-2.4043-0.50835-0.54053-0.72864-0.64224-1.1593-0.74179-1.2998-0.60741-1.3877-0.51756-2.8493-0.91972-1.3678-0.4747-1.2617-0.53505-1.0954-0.6547-0.59374-0.53357-0.51534-0.62261-0.67848-1.1436-0.32669-0.73885-0.27434-0.77076-0.30416-1.1549-0.20054-1.3026-0.11613-2.2037-0.14757-1.4424-1.1586-6.8656-0.23184-1.5842-0.1846-1.5912-0.090452-1.3601-0.004706-0.89887 0.027155-0.52728 0.052478-0.49595 0.15815-0.81202 0.22571-0.69103 0.19558-0.43027 0.20429-0.36376 0.58966-0.80948 0.50352-0.54649 0.72572-0.66266 0.69871-0.54497 0.95535-0.6392 0.52402-0.30817 1.6128-0.81858 1.5378-0.64322 2.8935-1.0752 4.7511-1.8651 2.0511-0.90583 1.7049-0.90667 1.8523-1.1257 5.013-3.2989 5.1557-3.248 2.0259-1.1899 3.941-2.1796 0.98077-0.58675 0.6767-0.44688 0.61698-0.45265 0.59187-0.48572 0.4372-0.39727 0.66206-0.67522 0.58254-0.67749 0.5837-0.76596 0.43015-0.62093 0.43656-0.68136 0.49481-0.88071 0.24772-0.51527 0.32051-0.80017 0.28337-0.97928 0.14152-0.82946 0.042548-0.62091-0.028843-0.87449-0.32589-2.7551-0.3557-4.3257-0.13339-0.82888-0.17831-0.79847-0.52072-1.8363-0.51196-1.3465-0.38618-0.84381-0.36949-0.6876-0.63618-0.95691-0.62527-0.71525-0.64702-0.5771-0.40146-0.29901-0.88676-0.56079-1.5699-0.8388-0.26144-0.1872 0.1344-0.14041 0.10205-0.21759 0.12077-0.36792 0.1268-0.53815 0.085936-0.52396 0.060363-0.62934 0.015497-0.60581-0.036109-0.74062-0.092335-0.73409-0.51419-2.5626-0.23518-1.4469-0.075834-1.032 0.009823-0.70417 0.035583-0.46632 0.11425-0.80606 0.25699-1.1284 0.95488-3.0829 0.2852-1.0827 0.2955-1.5483 0.17612-1.3068 0.093074-1.3361 0.020181-0.97894-0.02006-1.2358-0.074214-1.4425-0.2533-2.6132-0.060947-1.5123 0.011385-1.0829 0.052401-1.1055 0.15743-1.7156 0.22035-0.93868 0.25483-0.64562 0.48445-0.83766 0.44639-0.58912 0.24265-0.25043 0.34012-0.28676 0.76818-0.52809 0.59825-0.31339 1.3283-0.60226 0.31839-0.18498 0.49215-0.3467 0.29733-0.26892 0.33479-0.40871 0.24984-0.4607 0.12918-0.38797 0.076097-0.45614 0.016042-0.48436-0.048962-0.65756-0.11805-0.76203-0.45734-2.3101-0.19605-1.3313-0.050117-0.75522-0.04039-2.0295-0.073569-0.67197-0.23978-1.1822-0.62861-2.2585-0.17989-0.99369-0.062344-1.0024 0.062634-0.99996 0.23338-1.4237 0.23517-0.87076 0.28778-0.7318 0.77724-1.7974 0.54947-1.6803 0.40772-0.92413 1.6901-2.5848 0.52416-1.139 0.41291-1.2036 0.26143-0.94421 0.29124-1.4458 0.063751-0.84664-0.011771-0.60399-0.14252-2.4345-0.047664-0.611-0.12367-0.93565-0.29578-0.93044-0.15988-0.28451-0.33704-0.42429-0.43639-0.3814-0.67781-0.39094-1.3039-0.4456-1.1819-0.22661-1.3454-0.13485-0.89506-0.034532-0.72779 0.006224-0.34715 0.041062 0.12009-0.33921 0.85295-3.13 0.36478-1.1568 0.29254-0.83814 0.57979-1.4421 0.61735-1.182 0.47675-0.67428 0.53601-0.55089 0.29801-0.22865 0.89889-0.44852 1.2211-0.26939 0.92265-0.058078 1.5851 0.066404 1.6674 0.19591 4.1924 0.60122 1.5678 0.1513 1.4599 0.053838 1.0372-0.033056 0.76673-0.068749 0.98592-0.15116 0.84251-0.19094 1.1909-0.37752 0.73231-0.30047 1.1123-0.57233 1.0403-0.64728 1.3361-0.91564 1.0848-0.67378 0.92029-0.43817 0.76916-0.27557 0.65978-0.18891 0.65287-0.14547 0.90303-0.11494 0.95949 0.035906 0.9226 0.17762 0.905 0.30824 0.78565 0.44554 0.48565 0.45039 0.35558 0.54924 0.24876 0.88788 0.051452 1.0156-0.061824 1.0845-0.20564 2.2496-0.059941 1.1782 0.005635 1.5955 0.086194 1.2263 0.1023 0.75995 0.18577 0.84734 0.26984 0.70618 0.19645 0.30326 0.22927 0.22004 0.21454 0.13178 0.23424 0.10038 1.4946 0.47324 1.4137 0.64635 1.7554 0.95523 4.9191 2.8718 0.53594 0.28468 0.78622 0.36044 0.79885 0.27494 0.64515 0.15149 0.54152 0.088746 2.3744 0.27398 1.0445 0.2303 0.93079 0.30599 5.9327 2.2735 1.3976 0.47565 0.92232 0.20836 0.39119 0.042867 0.26676 0.009592 0.7793-0.068579 0.77067-0.19059 0.73497-0.25955 2.0495-0.8254 0.93543-0.30647 0.7652-0.18355 0.76675-0.12946 0.78793-0.085512 1.5302-0.050298 1.0118 0.044085 1.1561 0.1321 0.89157 0.16965 1.2659 0.35259 1.566 0.58341 1.577 0.70037 4.0615 1.9583 1.1053 0.4793 1.8347 0.68467 3.7732 1.2233 1.1784 0.40502 1.1228 0.43304 1.0711 0.4834 1.0394 0.57494 0.94253 0.67258 0.3321 0.2915 0.85418 0.9488 0.73988 1.0794 0.67515 1.1723 0.66905 1.2732 0.64861 1.3178 1.2211 2.7041 1.6673 4.0906 0.47449 0.9493 0.48801 0.76635 0.57768 0.67067 0.78104 0.6218 0.81172 0.4545 0.65799 0.27895 0.5718 0.18634 0.82399 0.19528 1.0998 0.15357 1.4725 0.047624 1.067-0.066436 1.1963-0.16314 1.676-0.36597 1.2136-0.36244 0.88126-0.33198 0.38677-0.22024" stroke="#bdc660"/>
    </defs>
    <g clip-path="url(#pb0210cc8da)">
     <use y="280.512" fill="#bdc660" stroke="#bdc660" xlink:href="#ma6608690bd"/>
    </g>
   </g>
  </g>
 </g>
 <defs>
  <clipPath id="pb0210cc8da">
   <rect x="7.2" y="7.2" width="224.55" height="266.11"/>
  </clipPath>
 </defs>
</svg>
