<svg xmlns="http://www.w3.org/2000/svg" xmlns:xlink="http://www.w3.org/1999/xlink" width="210.5" height="374" viewBox="0 0 157.9 280.5"><defs><style>*{stroke-linejoin:round;stroke-linecap:butt}</style></defs><g id="figure_1"><path id="patch_1" fill="none" d="M0 280.5h157.9V0H0z"/><g id="axes_1"><g id="PatchCollection_1"><defs><path id="m9966af57f9" stroke="#0c1321" d="M81.7-259.3h.6l.1-.1.3-.1.2-.2.2-.2.4-.3h.1v2.3l.2.7v.9l.1.2v.3l.2.3v.2l.2.4.1.2.1.2.2.2v.1l.3.3.3.3.3.3.7.7.3.3.2.2.2.2v.2l.2.1v.9l-.2.2-.1.2v.3l-.2.2-.1.9v.2l-.1.3-.1.2-.1.2-.2.2-.1.1-.6.5h-.1l-.1.2H85l-.1.3-.2.3-.4.8-.1.2-.3.4-.1.2v.2l-.1.2-.1.3-.2.5v2.4l-.1.3v.1l-.2.3-.1.3-.2.2-.2.3-.2.3-.1.1-.1.1h.3l.2.1h1.7l.4-.1h.2l.1-.1h.1l.2-.1.5-.3h.1l.2-.2.4-.1.6-.2h.6l.2-.1h.5l.2-.1h1.6l.2.1.2.1.1.2.1.1v.3l.1.2v1.4l-.1 1-.1 1v.5l-.1 1.4v1.2l-.1.4v.6l-.1.4-.1.5v1.1l-.1 1.1v3.4l.1.2.1.9v.4l.1.3.2.7v.8l.1.4v.2l.1.2v.2l.2.1v.2l.1.2.3.2.4.6.3.5.1.1v.2l.2.2v.2l.1.2.2.7v.2l.3.8v.3l.1.3v1.2l.1.2v.3l.2.2v.1l.2.1.2.1.2-.1.1-.1.2-.1.2-.1.2-.1h.3l.2-.1h1.8l.2-.1h.2l.2-.1.2-.1 1.3-.6.4-.2h1l.1.1.2.2.1.2.1.1.3.4.2.4.5.8.2.2v.1l.2.1v.1h.2l.2.1h.3v-.1l.2-.1v-.1l.2-.1v-.3l.1-.2v-1.3l-.2-.8v-.1l.1-.1h.1l.1-.1h.2l.2-.2h1.7l.1.2h.2l.2.3.1.2.1.2.4.7.2.5.2.3v.2h.2v.2l.2.1.2.1.4.3.3.2.3.2.2.2.2.2.2.2.2.3.1.2.5.8.2.2.2.4.3.3.2.2.2.2.1.1.2.2.3.2h.2l.4.3.2.1.4.2.4.1h.3l.4.2h.3l.8.2.9.1.9.1.7.1h.5l.5.1h1.4l.1-.1h.1l.2-.1.6-.4.2-.1.2-.2.2-.1.2-.2.2-.3.2-.2.1-.1h.1l.1-.1h.8l.1.1.1.1.2.2.3.3h.2l.1.1h.7l.3-.2.2-.1.4-.2h.5l.2-.1 1.1-.3h.5l.3-.1h1.1l.1.1.2.1.4.3h.1l.1.1.2.3v.2l.1.2.2.7.2.3v.2l.1.1.1.1.1.2h.2l.3.2h1.4l.3-.2.3-.1.2-.2.3-.1.1-.1.2-.2.4-.3.4-.3.3-.3.4-.4.2-.2.7-.7.2-.3.2-.2.3-.2h.2l.2-.2h.3l.1.2.1.1.2.3.1.2.1.4.2.4.2.6.2.8.1.4.1.6.1.4.1.3v.2l.2.3.1.2.1.2v.1l.3.2.5.6.1.2.1.2.2.3.5.8.3.5.2.4.1.3.2.5.2.5v.3l.1.2.1.3v3.2l-.1.6v.3l-.1.5-.1.1-.2.2v.2l-.2.3v.4l-.2.4-.1.3-.2.9-.1.3-.1.2v.3l-.2.2-.1.3-.2.2-.1.3-.5.6v.2l-.2.2-.1.2-.1.3-.1.1v.3l-.1.2v.8l-.2.3v.2l-.1.2-.1.1-.1.2-.2.1-.2.2-.4.3-.2.2-.5.4h-.1l-.1.2h-.2l-.1.1h-1.2l-1-.4-.4-.2-.3-.1h-.3l-.3-.1h-.7l-.9-.1h-.4l-.2-.1h-.3l-.3-.2-.5-.2h-.8l-.8.4-.4.1-.6.3-.3.1h-.2l-.3.1h-.6l-.6-.2-.1-.1-.4-.1-1-.4-1-.3-1-.4h-.9v.1l-.1.1v1l.2.8v1.1l-.2.3v.3l-.2.3-.3.5-.4.8-.1.3-.2.4v.1l-.3.4v.1l-.3.2-.1.2-.2.2-.2.2-.3.2-.3.2-.5.4-.2.1-.2.1-.3.1-.2.1h-.2l-.4.1h-3l-.3-.1-.9-.3-.2-.1h-.2v.2l-.1.3v.9l-.1.2v.5l-.2.3v.2l-.1.2-.1.2-.3.3-.4.4-.5.5h-.1v.2h-.1v.2l-.2.6v.2l-.1.1-.1.2-.1.2-.3.5-.3.4v.1l-.2.2h-.3l-.1.1h-.4l-.2-.1-.3-.2-.3-.1-.5-.3h-.2l-.3-.2h-1.7l-.3.1h-.2l-.2.2-.4.3h-.1l-.1.2h-.2l-.2-.1-.2-.1h-2.1l-.1.1-.2.1-.1.2-.2.2v.1l-.3.5-.2.2-.1.1h-.2l-.2.2h-.4l-.2.1h-.1l-.2.1-.2.1-.5.3v.1l-.1.2v.8l-.1.1-.1.2h-.2l-.4.2h-1.8l-.1.2v.3l-.1.1-.2.2-.1.1-.2.2-.3.1-.2.1-.7.3h-.2l-.4.2-.5.3-.2.1-.2.1v.1l-.2.2-.7.6-.5.5-.3.3-.3.3-.2.2-.1.2-.1.2-.1.1-.1.2v.2l-.1.2v.3l-.1.6-.1.6v.9h.1l.2.2h.2l.4.2h.1l.2.1.1.1.1.1.2.1.1.2.1.1v.2l.4.6.2.2.2.3.1.1.2.1.2.2v.1l.3.1.3.3.6.3.8.4h.2l.2.2.1.1.2.3.4.4.2.2.1.2h.2l.1.2h.3l.2.1.4.2h.3l.2.1.3.2h.1l.2.1.2.2.5.3.2.2h.2l.2.2.3.1.3.1.7.3.4.1.3.2h.3l.2.2.2.2h.3l.9.7.3.2.2.2.5.2.3.2.5.3.4.2h.3l.2.2.2-.4.1-.2.1-.2.1-.2.2-.1.2-.3.4-.4.5-.6.3-.4.2-.1.3-.3.4-.3.5-.5.2-.1.2-.2.1-.1.2-.2.1-.2.4-.6.2-.2.3-.3.3-.3.2-.2.2-.1.1-.1.2-.1.2-.1h1.1l.2.1.2.1.4.3h.2l.4.3.5.3.3.1.2.1.3.1h.3l.7.2h.3l.3.1.3.2h.1l.1.2.2.1v.2h.1l.4.6v.2l.2.1v.2l.2.1.1.1.2.2.4.2v.1h1.1l.3.2h.2v.2h.1v.1l.1.2v1.7l-.1.3-.1.3-.4.5-.1.2-.1.4-.2.4v.2l-.1.2v.9l.1.5v.9l.1.1v.3l.1.5v.8h-.1v.1h-.2v.1l-.3.2h-.2l-.1.1-.1.1-.2.2v.2l-.1.1v.2l-.1.4v3.1l-.1.3-.2.6v.3l-.1.2v.8l.2.5v.9h-.1v.1l.3.2.2.2h.1l.2.2.1.1.1.2.1.2.1.2.1.3.1.4v.1l.1.2v1l.2.6v.5l-.1.2-.1.2v.1l-.2.2v.2h-.2v.3l-.2.1-.2.2-.2.2h-.1l-.2.2h-.2l-.9.6-.4.2-1.1.7-1.1.8-.5.2-.3.2-.5.2-1 .4-.7.3-.3.1-.4.2-.3.2-.1.1-.2.2h-.1l-.1.3-.1.1v.2l-.1.2v1.4l.3 1.5v.8l.1.3.1.2v.2l.1.2.2.2.1.2h.1l.3.2.2.1.4.2.6.2h.3l.3.2.2.2.2.1.1.1.4.6h.1l.1.2h.2l.2.2.5.3h.1l.3.2.2.3.3.3.3.3.2.3.2.3.2.4v.2l.2.3v.3l.1.3v.4l.1.4v1.1l-.1.4-.3 1v.6l-.1.1v.7h.1l.1.2.3.7.4.6.2.3v.2l.2.2.2.2.6.4.2.2.6.7.2.2.2.2.2.2.2.4.4.7.2.2-.2.2h-.1l-.1.1-.2.1v.1l-.1.1v.1l-.2.1v.1l-.2.7-.1.3-.2.3-.1.2v.1l-.3.2-.2.2-.1.1-.5.4-.2.2-.1.1-.2.2-.1.1-.1.1-.1.3-.1.1-.1.2-.3.8-.2.5v.2l-.1.2v.9l.5 2 .1.8.3 1.7v.5l.1.6.1.9v.5l.1.3.2 1 .2 1.1v.6l.3.8v.9l.1.3v.5l-.2 1.4-.2 1.1-.2 2v2.1l.2.3v.3l.2.2v.2l.2.4.1.2.1.2v.5l.1.4v1l-.1.2v.2l-.4.9-.2.6v.3l-.1.2v.6l.1.1.1.1.1.2h.2l.1.1h.1l.3.1h.2l.3-.1.6-.2.2-.1h.6l.3.3h.3l.2.1h.2l.2.2h.1l.2.2.1.2v.2l.2.2.1.4.1.3v1.3l-.2.5v1.9l.2.3.1.4.1.6.1.4.1.6.1.5v1l.1.5.1.6.1.7.1.6.1.5.2.7.3 1.3.2.9.1.5v.4l.1.5v.3l.1.4v2.2l-.3 1.7v2l.1.2.1.3.1.2v.1l.5 1 .2.2v.3l.1.2.2.4.1.5.2.6v.4l.2.3.2.4.1.4.2.4.2.4.3.5.2.4.2.3.4.6.6 1 1 1.4.3.3.3.4.2.3.2.5.2.5.2.3.1.3.3.6.4 1.1.3.8.7 1.8.1.4.2.4.1.6v.5l.1.3v1.4l-.1.2-.1.2-.2.4-.1.2-.2.3-.4.6-.3.5-.1.2-.3.4-.4.4-1 1.2h-.1v.1h-.2l-.2-.2-1.5-.8-.3-.1-1-.5-.7-.4-.2-.1-.3-.1h-.1l-.3-.1-1-.2-.7-.2-.9-.2-.6-.2h-4.5l-.2-.2-.5-.3-.4-.2-1-.7-.1-.1-.2-.1-.1-.1h-.3v-.1h-1l-.9.2h-2.9l-.6-.1h-2.5l-.3-.1h-.2l-.2-.1h-.1l-.1-.1-.2-.1-.2-.1-.1-.1-.2-.2-.2-.1-.2-.2-.1-.2-.6-.7-.4-.4-1.3-1.4-.3-.3-.1-.1-.3-.2-.3-.2-.2-.1h-.2l-.1-.1h-.4l-.9-.1h-.5l-.4-.1-.5-.1h-.4l-.3-.2h-.2l-.4-.2-.3-.1-.4-.2-.3-.1-.5-.3-.4-.3-1-.6-.2-.1-.2-.1h-.2l-.2-.1h-.3l-.1.1v.1h-.3v.1l-.4.2-.6.4-.3.3-.4.1-.4.2-.3.1-.3.1-.6.2-.7.1h-2.9l-.4-.1h-1.8l-1-.2h-1l-.3.1-1 .3h-.7l-.5.1-.5.1h-.3l-.4.2-1 .3-1.1.2-.5.1-.6.2-.2.1-.2.1-.3.2-.7.5-.3.1-.2.1h-.2l-.3.2h-.3l-.2.1h-1.6l-.6-.1h-1.4l-.6.2h-.3l-.3.1h-1.4l-.4.1-1 .1h-.4l-.4.1-.5.1-.5.2-.6.1-.4.1h-.6v-.2h-.1v-.2l-.1-.1v-2l.1-.5.2-.6v-1l-.2-.2v-.2L62-31l-.2-.1-.1-.1-.2-.1-.3-.3-.5-.2-.2-.1-.3-.2h-.2l-.9-.5-.3-.1-1-.3-.2-.2-.3-.1-.3-.2-.2-.2-.2-.1-.1-.2-.4-.4-.1-.1-.2-.2-.1-.1-.3-.1-.2-.2H55l-.3-.1h-1.3l-.5.1h-.3l-1.5.3-.6.1h-1.3l-.6-.2h-.4l-.5-.2h-.3l-.1-.1-.2-.1v-.1l-.2-.1v-.2h-.1v-.6l.1-.3.4-.5.2-.3.2-.3.2-.2.1-.1.2-.1v-.2l.3-.1.3-.2.7-.5.2-.1.1-.1.2-.1.1-.2.2-.2.1-.2.1-.2.2-.2v-.2l.2-.2.5-1.1.5-1 .1-.3.1-.3v-.3l.1-.1v-1.4l-.1-.2-.1-.4-.2-.2v-.2l-.1-.1-.2-.2-.1-.1h-.1l-.2.1-.2.1H51l-.2.1h-1.1l-.3-.2-.3-.2-.2-.1-.3-.2-.2-.2-.1-.2-.1-.1-.2-.3v-.2h-.1l-.1-.2v-.1l-.2-.1-.1-.1-.3-.2H47l-.1-.1v-.4l-.1-.2-.2-.2-.1-.2-.4-.3-.2-.2-.1-.2-.2-.3-.2-.3-.1-.2-.1-.3-.1-.3-.1-.2-.1-.3v-.2l-.1-.2v-.3l-.1-.3v-1.1l.1-.3v-.2l.2-.4.2-.3.1-.3.2-.3.1-.3 1-1.5.3-.6.4-.6.1-.3.1-.1.1-.2.4-.4.3-.3.1-.2.2-.3.1-.3.2-.3.6-1.2.3-.8.2-.4.2-.5.4-.5.2-.5.3-.3.2-.4.4-.5.2-.3.2-.2.1-.1.2-.1.2-.1h.7l.4.1.3.1.8.3.9.3H57l.4-.1.3-.1.4-.2h.2l.2-.2 1-.5h.2l1-.4.3-.1.2-.1h.2v-.1l.2-.2.2-.1v-.2l.2-.2.5-1.2.2-.3.1-.2.1-.1.2-.2.1-.1h.1l.1-.1.2-.1h.2l.4-.2 1.3-.4.5-.2.6-.2 1-.4.5-.2.3-.1.3-.2.3-.2h.2l.4-.3h.1l.1-.1.4-.4.8-.7.1-.2.2-.2.2-.2.1-.3.2-.3v-.2l.2-.2.1-.4v-.3l.1-.2v-.5l.1-.4v-.8l-.2-.4v-.5l-.2-.3-.4-1-.2-.5-.1-.4-.3-1-.2-.2v-.2l-.1-.2-.1-.1-.2-.2-.2-.2-.5-.4-.3-.3-.2-.3-.2-.2v-.1l-.2-.2v-.2l-.5-.9-.3-.5-.1-.2-.2-.2-.1-.3-.2-.1-.1-.2-.2-.1-.2-.2-.2-.2-.2-.1h-.1l-.5-.3h-.2l-.2-.2-.2-.1-.1-.2-.2-.1-.2-.3-.1-.1-.2-.2v-.2l-.1-.1v-.2l-.1-.2v-.4l.1-.3.2-.2.2-.4v-.1l.1-.2v-.1l.1-.2-.1-.2-.1-.1-.1-.1h-.2l-.1-.1-.5-.2h-.2l-.2-.1-.2-.1v-.1h-.1v-.2L63-95v-.7l.1-.2.1-.2.1-.3.4-.8.2-.3v-.2l.2-.4v-.3l.1-.2v-3.2l-.2-.3-.2-.5-.2-.5-.1-.2v-.3l-.1-.2v-2.6h-.1v-.2h-.1l-.1-.2H63l-.2-.1-.2-.1h-1.5l-1.4.3h-.7l-.4.1h-2.6l-.6-.1-1.4-.3-.6-.1h-.3l-.5-.1h-.9l-.2.1-.2.1-.1.2h-.1v.1l-.2.2-.2.4v.2l-.3.6-.1.3-.1.1-.1.1-.2.2h-.2l-.2.1H47l-1.3-.6-.4-.2-.4-.1-.2-.1-.3-.2-.3-.2-.3-.2-.1-.1-.2-.2-.2-.2-.2-.4-.1-.1v-.1l-.2-.2v-1.2l.2-.3v-.2l.2-.2.1-.2.1-.1.1-.2.4-.4.2-.3.2-.3v-.2l.1-.1v-.2l.1-.2v-.2l.2-.6v-.4l.3-.9.1-.4.1-.3.2-.3v-.2l.2-.2v-.1l.1-.2.2-.2.3-.4.4-.4.5-.4.3-.3.4-.4.3-.3.6-.4.2-.1.2-.2.3-.2.2-.2.1-.2.2-.2.1-.3.2-.3v-.2l.1-.2v-.3l.1-.2v-2.5l-.1-.2-.1-.2v-.2h-.1l-.1-.2-.2-.2-.6-.5v-.1l-.2-.1v-.2l-.1-.2v-.9l.2-.3v-.3l.2-.2v-.2l.1-.1.1-.2.3-.3.1-.2.3-.6.2-.6.1-.3.1-.4.1-.3.1-.4v-.5l.2-.7v-1l.1-.2v-.2h.1l.1-.2.3-.3v-.2l.1-.1.1-.3.1-.2v-.6l.1-.4v-1.2l-.1-.2-.1-.4v-.1l-.2-.2-.1-.3-.1-.2-.7-.8-.3-.5-.4-.7-.1-.1v-.2l-.1-.1v-.2l-.1-.3-.2-1v-.5l.1-.2h.1v-.1h.2l.2-.1.8-.2.2-.1h.3l.2-.1 1.3-.2h.6v-.2l.2-.2.2-.1.4-.2.1-.1.4-.2.2-.1v-.1h.1v-.2h.1v-.4l.1-.1.2-.2.5-.5.1-.1v-.1l.2-.2.1-.1.1-.3.2-.2.1-.3.2-.4.3-.7.6-1.8.2-.5.2-.4.2-.2v-.3l.3-.3.3-.2.2-.3.6-.6.8-.8.3-.3.2-.2.3-.2.1-.1h.1l.2-.1.2-.1.3-.1.7-.2.7-.2h.2l.2-.1.2-.1.1-.1.2-.2.2-.1.5-.5.2-.2.2-.2.2-.1.6-.4.4-.3.3-.3.3-.2.2-.2.2-.3.2-.2.4-.5.2-.2.2-.3v-.2l.2-.1.1-.3.2-.3v-.2l.1-.3v-.3l.1-.2v-1.4l-.1-.2v-.2l-.2-.2-.2-.3-.5-.7-.2-.3-.1-.2-.1-.2-.2-.3-.7-1.6-.2-.4-.2-.5-.2-.2-.2-.3-.2-.3-.2-.3-.4-.4-.2-.2-.2-.2-.5-.3h-.1l-.2-.1H64l-.9.2h-1.3l-.7-.2h-.3l-1-.1h-.5l-.6-.1h-.4l-.2-.1-.3-.1-.2-.1-.2-.2h-.1l-.1-.2-.1-.2-.1-.2-.2-.2v-.4l-.1-.1v-1.6l-.1-.2-.1-.3-.1-.2-.2-.2-.1-.1-.2-.1-.4-.3-.2-.1-.1-.1-.2-.2-.3-.4-.1-.2-.2-.2H54l-.2-.1H53l-.2.2-.2.2-.4.4-.2.1-.2.1h-.1l-.5.3h-.1l-.2.2h-.1l-.1.2v.1l-.1.2-.3.9v.3l-.1.2-.1.2-.1.3-.1.2-.4.6-.2.2v1.1h.1l.1.1.1.1.1.1.3.2h.2l.5.3.4.2.7.3.3.1.2.1.2.1.1.1.2.2.2.2.6.9.3.4.1.2.1.1.1.3.1.3v1.8l-.1.3-.2.2v.1l-.1.1-.1.2-.2.2-.3.2-.2.2-.3.2-.3.1-.3.1-.2.1h-.4l-.3.1h-2l-.3-.1-.6-.2h-.3l-.2-.1h-2.4l-.2-.1v-.1l-.1-.2-.1-.1v-.5l.1-.2v-.2l.1-.2v-1.3l-.1-.2-.1-.2-.2-.4-.1-.2v-.2l-.1-.1v-2.9h-.1v-.1h-.1v-.1h-.2v-.1h-.2l-.1-.1h-2.2v-.1h-.1l-.1-.2-.2-.2v-.3l-.1-.2v-1.2l.3-.6v-.4l.2-.6v-.8l.1-.5v-2.2l-.1-.4-.1-.7-.1-.4-.1-.5-.2-.4v-.3l-.1-.3-.1-.2-.1-.2-.1-.2-.1-.2-.6-.8-.3-.7-.1-.1-.2-.2h-.1l-.1-.1H38l-.2-.1h-.1l-.1-.1-.1-.1-.1-.1-.1-.1-.2-.2v-.1l-.3-.3-.3-.6-.3-.5-.3-.4-.3-.4-.3-.4-.2-.2-.2-.2-.3-.3-.3-.2-.3-.1-.3-.1h-2l-.2.1-.3.1H31l-.5.4-.2.1-.2.1-.2.1h-.2l-.1.1h-.5v-.1l-.2-.1-.1-.2v-.2l-.1-.2-.1-.4-.1-1-.2-1.3v-.2l-.1-.2v-.3h-.1v-.2l-.1-.2-.1-.1-.1-.1-.1-.2-.3-.2-.1-.2-.9-.9-.3-.2-.1-.2-.3-.3-.4-.5-.3-.4-.4-.6-.1-.2-.2-.2-.1-.1-.2-.2-.2-.1-.3-.2-.3-.2-.9-.4-.1-.1-.2-.1-.1-.1-.1-.1-.2-.2-.1-.2-.3-.5v-.3l-.3-.6-.1-.2-.1-.2-.2-.2h-.1l-.2-.2-.3-.2h-.5l-.3-.1-.9-.1h-.2v-.1h-.2v-.1l-.2-.1-.3-.2-.1-.2-.2-.1-.4-.5-.2-.2v-.1l-.1-.1-.1-.2-.3-.6-.2-.4-.1-.2v-.2l-.1-.2v-.6l-.3-.7v-.1l-.2-.4v-.5l-.1-.1h-.1v-.1h-.1l-.1-.3-.2-.4v-.3l-.2-.3-.4-.5v-.1l-.1-.2v-.3h2.3l.3-.1h.3l.2-.1.2-.1.2-.3h.2v-.2h.7l.6.1h.6v-.1l.2-.2.2-.1v-.2l.1-.2v-.4l-.2-.6v-.6l.2-.3.1-.2.4-.6.4-.4.2-.3.2-.2.1-.2v-1.1l-.2-.6-.1-.4-.1-.4-.3-.8v-.2l-.1-.3v-.6l.1-.5v-.6l-.1-.3-.1-.2-.2-.2v-.2l-.2-.2-.3-.4-.2-.2-.1-.2-.1-.3-.1-.3-.1-.3-.1-.3-.3-.7v-.3l-.1-.2-.2-.4-.3-.6-.2-.3v-.3l-.2-.4v-1.3l.1-.7v-.2l-.1-.1h-.1v-.2l-.1-.1v-.6l.1-.3.1-.2.2-.2.1-.3.3-.2.4-.4.2-.2.1-.2.1-.2.1-.2.1-.2.1-.2.3-.4.2-.2v-.2l.1-.2v-.5l.1-.2v-2.1l.1-.2h.2l.4-.3h.1l.6-.5.2-.1.4-.4.2-.2.3-.3.2-.1.1-.2.2-.2v-.3l.1-.2v-1.3l-.3-.8-.2-.7v-.1h-.1v-.1h-.1v-.2l-.1-.2v-2.6l.1-.3v-.3l.1-.2.1-.1.1-.1.2-.2.3-.3.1-.1.1-.1h.2l.2-.2.4-.1h.1l.3-.1h.8l.2.1 1 .3h.3l.8.2h1.5l.3.1h.6l.3.2.6.1.4.1.3.1.5.2.5.1.3.2.2.1.3.2.8.4.1.1h.1l.2.1h.4l.1-.1.2-.1.4-.3.2-.1.2-.2h.3l.2-.2H38l.2.1.2.1v.1l.4.2.7.7.2.1.3.2.3.2h.1l.2.1h1.1l.2-.1.2-.1h.2l.2-.2h.1l.4-.3.8-.7.5-.3.3-.2.3-.1.1-.1.2-.1.5-.2h.2l.2-.2.2-.2.2-.4.1-.1.1-.1v-.1h.2v-.1h.2l.3-.1h.7l1-.3H51l.3.1.4.2h.2l.3.2h.2l.2.1h.9l.3-.2.3-.2.3-.2 1-.6.3-.1.3-.2.3-.1h.3l.2-.1h.5l.2.2h.1l.2.2.2.2h.1l.2.3.4.5.3.3.2.1h.2l.2.2h1.9l.2.1h.2l.3.2.2.2.2.1.2.2.1.2.1.1h.1l.3-.2.1-.1.3-.2.4-.2.3-.2 1-.4.1-.1h.1v-.1l.2-.2.6-1 .3-.5.2-.3.3-.5v-.1l.2-.5v-.1l.2-.2v-.1l.3-.3v-.1l.4-.6v-.2h.1v-.2l.1-.2.1-.4.2-.8v-.5l.1-.2v-1l-.2-.1h-.2l-.7-.3h.9l.3-.1v-.3h.1l.1-.2.4-.2.1-.1h.1v-.3h-.1l-.3-.1h-.2l-.3-.1v-.6h1.6l.2-.1h.2l.2-.1.3-.1.2-.1.3-.2h.1l.2-.2.2-.1 1-1 .5-.5.4-.3.3-.3.3-.2.3-.1.3-.2h.3v-.1h1l.8-.1.7-.1h.4l.2.1.2.1.1.1.2.2h.1l.4.5.2.2.2.2.2.1.2.1.2.1h.2l.3.1h.2"/></defs><g clip-path="url(#pf222fd6e9b)"><use xlink:href="#m9966af57f9" y="280.5" fill="#0c1321" stroke="#0c1321"/></g></g></g></g><defs><clipPath id="pf222fd6e9b"><path d="M7.2 7.2h143.5v266.1H7.2z"/></clipPath></defs></svg>