<svg xmlns="http://www.w3.org/2000/svg" width="347.5" height="374" viewBox="0 0 260.6 280.5"><defs><style>*{stroke-linejoin:round;stroke-linecap:butt}</style></defs><g id="figure_1"><path id="patch_1" fill="none" d="M0 280.5h260.6V0H0z"/><g id="axes_1"><g id="PatchCollection_1" fill="#0c1321" stroke="#0c1321"><path d="M223.5 99.6h.6l.2-.3.2-.2.6-1 .3-.6.4-.4.5-.6 1-1 .6-.7.5-.5.2-.3.2-.1.5-.2h.5l.3.2.7.5.4.3.2.2.2.3.2.4v.3l.1.2v.1l-.1.2-.3.2-.5.5-.7.6-.3.3-.2.3-.2.4v1.1l.2.3.2.6.2.2.2.2.3.2h.3l.5.1h.5l.4-.2.3-.2.3-.3v-.1l.3 1.2v.7l-.3.7-.1.1v.5l.2 1h-.5l-.2.4-.1.3v1.1l.3 1v.5l.1.4v.8l-.2.7-.1.4-.3.5-.6.5-.1.1-.6.3-.6.2h-1.7l-2-.3-.6-.2h-.4l-.4-.3-.4-.1-.5-.3-.8-.6-1.1-.8-.5-.4-.5-.2-.6-.3-2-.8-2.4-1-.5-.2-.3-.2-.2-.2-.1-.2v-.3l.2-.2.1-.2.5-.4.5-.5.3-.4.2-.5.2-.6.2-1 .1-.5.1-1 .1-1.4.1-.6.3-1.2.1-.7v-1.2l-.1-1v-.4l-.3-.8v-.6l.2-.2.2-.2.4-.1.6-.2h1l.2.1.2.1-.2.1-.1.2v.7l.2.4v.2l.2.3 1 1.3.2.5.1.2.2.5.2.8.2.8.3.8.2.3.1.3.3.3M238.5 89.6H237l-.4.2-.4.2-.4.2-1.6 1-.3.2-.3.1-.6.2h-.8l-.5-.3-1.1-.7-.7-.4-1-.9-.5-.4-.4-.5-.4-.5v-.2l.9-.2 1.8-.3 1.7-.3 1.2-.3 2.9-.4.8-.2.8-.2 1.2-.3.6-.3.2-.1.5-.3.2-.2.7-.5.3-.2h.4l.2.3.1.3.1.3v.7l-.2.7-.2.5-.3.4-.4.6-.8.7-.6.5-.5.3-.2.2h-.2l-.3.1M114.5 26.6h1.7l.5-.1 1.2-.3h2.8l.5.2.6.1.5.2 2.2.8 1.9.7 1.1.4 1.6.7 1 .5 1.4.6 1.1.7.5.3.4.3.5.4.5.5.4.4.4.6.3.6.3.6.1.5.2.5.2.8.4 1.9.2.6.2 1 .2.6.4 1 .4.8.4.8.2.5.3.5.2.4.3.4.3.3.3.3.6.4.3.2.6.3.6.3h.3l.3.2 1 .2 1 .2 1.2.1.8.1 2.3.1h.8l.8.2.6.1.4.1.5.2.5.2.3.2.5.3.3.4.3.4.3.6v.8l.1.8v2l-.2 1v.9l-.2 1-.2 1-.2 1-.3 1-.5 2-.4 1.4-.3 1.1-.2 1.1-.1 1v1l-.1.8v1.8l.1.8.2.7.2.6.3.5.3.5.4.4 1.4 1.4.3.3.2.3.3.5.1.5v.7l-.2.5-.4.4-.3.3-.6.3h-.4l-.3.1h-.7l-1-.2h-1l-.3.1-.3.2-.6.4v.1l-.5.5-.5.7-1 1.4-2.1 3.2-.8 1.1-1.4 1.8-.3.5-.4.7-.3.7-.2.9-.2.9v3l.2 2 .4 4.3.2 2 .1 1.1.1 2.4v1l.2 1 .3 2.2.1 2.2v4.9l-.1 2.3h-1l-2.3-.1-2.1-.3-1.3-.3-.6-.3-1.6-.6-1-.4-.5-.2-1.5-.4-.8-.3-.9-.4-2-1-.7-.4-.6-.1-2.8-.6h-1l-1.6-.2h-1.4l-.7-.2h-.5l-.6-.2-.4-.2-.3-.1-.6-.3-1.5-.8-.5-.3-1.3-1-.6-.3-.8-.4-.5-.2-.6-.1-.6-.1h-3l-.8.1-1 .2-1.7.3-1 .2-1.2.4-.8.3-1 .4-.6.3-.5.2-.2.1-.2.2v.2l-.1.1v1.7l.6 2 .2 1 .1 1.2.2 1.8v1.3l-.1 1.7v2.6l.2.5.1.5.5 1.5.3.8.6 1.2.6 1.7.4.9v.1h.1l.2-.1h1l.4.2.7.2.6.3.6.2 2.3 1.3 1.2.6 1 .5.7.3 1.7.8.7.2.7.1.6.1h.8l1.7-.1h1.3l.7-.2.9-.2 2.8-.6 3.2-.7 4.3-.8 5.4-1 3.2-.5 3.3-.6 3.3-.4 2.2-.3 1.1-.1 1.2-.1 1.2-.1h3.5l1.1.1 1.1.2 1 .3 1 .3.6.3.2.2 3.7 1.5.2-.3.1-.2.1-.1h.6l.8.5.2.2h.4l.4-.2h.3l.3-.1h1.1l.5.1.5.1.9.2.6.1v.1l.1.2.1.2.2.2.3.3.2.2.5.1.5.1 1.3.2h.9l.4.1.3.1.2.1h.2l.2.3.4.3.4.5v-2l.1-.3.2-.3.1-.3.1-.2.4-.5.5-.5.6-.6.8-.5.6-.4 1.3-.8.5-.3.7-.3.6-.1.6-.2h.5l1.2-.2.4-.1.4-.1 2.6-.8.4-.1.5-.1h1.1l.5.2.8.2 1.6.5 1 .4.5.2.6.3 1.8 1 .5.2 1 .4.3.1.4.1h.6l.3-.2.7-.5.2-.1.3-.1.4-.1h.4l.2.1.1.1.3.2v.1l.1.2v1.7l.1.4.2.1.2.2h1.2l.3.3.2.2.4.7.8 1 .5.8.9 1 .4.8.3.5.3.7.4 1.5.3.7.3.9.5.7.5.7.6.7.7.6 1.5 1 .6.6.6.5.3.5.7.8.2.2.3.2.4.3.3.2.5.2.9.3.4.2.3.2.1.2v.5l-.2.2-.4.2-.8.3-1.5.5-.8.3-.9.3-.8.4-.6.3h-.2v.1l-.7-.2h-1v.2l-.5.4-.3.3-.3.1-.8.4-.5.3-.2.2-.6.8-.3.1h-.5l-1-.5-.2-.1h-.2l.4.5 1 1.7 7 10.2 4 5.7 4.6 6.6 1.3 1.8.6 1 .6.9.5 1 .5.8.4 1 .2.8v1.8l-.4.8-.4.9-.6.8-.6.8-.6.9-2 2.4-1.8 2.1-7.9 9-4.4 5.1-1.4 1.8-.8.9-.7 1-.7.8-.7 1-.6 1-.6 1-.5 1-.6 1-1 2.2-1.4 3.5-1.6-.2-4.4-.5-2.5-.2-2.3-.2-6.2-.5-1.9-.2-2-.2-1-.2-2.3-.3-2.1-.4-2.2-.5-4.7-1-4.3-1-8.4-2.2-3.2-.8-2.1-.4-1.1-.3-1.1-.2-1.1-.1-1.1-.1-1.1-.1h-2.4l-3.5-.1h-6.4L105 261.3l-1.4-.6-1.8-.8-2-.8-2-.8-2.8-1-9.2-3.4-10-3.7-5.5-2.1-3.9-1.5-2-.8-2-.8-.8-.4-1.7-.8-.5-.2-.2-.2v-.6l-.2-.8v-3.2l.1-2.3.3-3.5.1-2.3.2-2.3.3-2.2.2-1 .2-1 .2-1 .3-1 .3-.8.2-1 .4-1.9.2-1 .3-2 .4-2.3v-1.2l.3-2.2.2-2.2V204l-.2-2-.2-1.9-.3-2-.3-1.5-.4-2-1.4-5.9-.4-2-.6-2.8-.2-1.5v-.3l-1-8.3-.4-3.5-.7-7.7-.3-2.2-.4-4.5-.4-3-.4-3-.3-2-.3-2.1-.2-1-.2-1-.3-1-.2-1-.3-1-.4-.8-.5-1-.3-.4-.7-.7-.7-.7-.8-.6-1-.7-2-1.2-1.9-1.2-8.5-5-2-1-1.8-1.1-4-2.5-8.7-5.5v-1l-.6-4.3-1.1-9.5-.2-1.2v-1l-.1-1.2v-2l.3-1 .3-.9.5-.7.7-.7.7-.7.8-.6.9-.5.9-.6.9-.5 1-.5 1.8-1 2-1 2.5-1.1 1-.5.9-.4 2.1-.8.9-.4.8-.4.7-.5.5-.4.4-.4.4-.4.3-.5.5-.8.5-.8.4-.9.9-1.7.8-1.9 1-2.7.5-.9.6-1.3.7-1.4.6-1.1.7-1.1.3-.5.3-.3.3-.3.7-.6.8-.4.9-.4 1-.3 1.8-.7.9-.3.8-.4.8-.4.6-.5.5-.5.8-1.4 1.9-2.5.7-1.1.7-1.1.5-.9 3-5.6 1.2-1.9.6-.9.6-.8.7-.9.8-.9.9-.7 1-.6 1-.7 1-.6 1-.6 2.4-1.1 4.8-2.3.2-.1.1-.3.5-1.5.8-2.4.4-1.5.5-2 .2-.8.4-.9.5-.8.5-.8.6-.7.7-.6.8-.7.8-.5 1.8-1 .4-.3 1.6-1 .4-.4.8-.4.7-.3 1-.4.9-.4 1-.3 1-.4 1-.3.9-.2 1-.2 1-.2h.5l.5-.1h1.2l.7.1.7.1.4.2.7.2h.2l.6.4.5.3.3.3.4.5.6.9 1 1.5.6.7.2.2.3.3.6.4.6.3.6.3.6.2.8.2.7.1.5.1" clip-path="url(#p566a93b193)"/></g></g></g><defs><clipPath id="p566a93b193"><path d="M7.2 7.2h246.2v266.1H7.2z"/></clipPath></defs></svg>