<svg xmlns="http://www.w3.org/2000/svg" width="466.7" height="374" viewBox="0 0 350 280.5"><defs><style>*{stroke-linejoin:round;stroke-linecap:butt}</style></defs><g id="figure_1"><path id="patch_1" fill="none" d="M0 280.5h350V0H0z"/><g id="axes_1"><g id="PatchCollection_1" fill="#0c1321" stroke="#0c1321"><path d="m73.7 103.2-.1 1-.3 1-.4 1-.6.8-.9.9-1 .6-.8.3h-.4l-.3-2.3-.2-.7-.3-.8-.3-.5-.7-.7-.5-.3-.6-.2h-.6l-1.4.1-4 1-1.4.1h-1.6l-3.5-.8-1.8-.4h-2l-1.3.2-.8.3-.8.4-.4.4-.4.5-2.5 3.3-.5.5-.7.4-.9.3-1 .2-1 .2-2.4.3h-2.7l-8 .4-3 .2v-.4l-.7-1.7-.4-1.2v-1.7l.3-.4.2-.2.3-.1.8-.1h2.6l1-.1.5-.2.4-.3.3-.3.8-1.1.3-.8.7-2.1 1.3-2.7.7-1.7.5-1.1.5-1.7.5-1.3.8-1.9.7-1.2.1-.3.4-1.3 1-3 .5-1.5.5-1.2.4-.7 1-1.3 1-1.2 1.1-1.2 2.2-2 1.2-1.2 1-1.2.3-.5.2-.6.2-.7.2-1.5V66l-.4-1.5-1.1-3.1-.2-.7V60l.1-1.7.1-.6.2-.7 1-3 .4-1.3v-.6l4.8 7.4 3.7 6 .9 1.1 1.8 2.5 1.7 2.4.5.8.7 1.4.6 1.4.7 1.3 1.1 1.9 1.2 1.5.6.9.3.8.3 1 .7 3 .4 1 .6 1.1.8 1.2 2.5 3.5.8 1.3.4 1 .4 1 .7 2.1.4 2.2v3.1M92 31.1h1.5l.7-.3.6-.3.5-.4-.2.3v.2l-.1.8v1.4L95 35l.3 1.2.4 1.4.4 1 1.8 3.2.5 1.1.4 1.2.1 1.3v1.4l-.8 4.1-.2 1.4v1.4l.3 1.4.4 1.4.4.8.9 1.7 1 1.4 1.6 2.2 2.4 3 4.3 4.9 4.6 5.4.9 1 .9.7 1 .7.9.4 1 .3h1.2l1.2-.4 1.3-.6 1.3-.7 1.3-1 2.8-2 4.8-4.2.3-.2.5-.5.7-.4.4-.2h.7l.4.1.8.5 2.5 2 .7.5.3.2h1.1l.8-.4 1.2-.7 8.5-5.9h.3l.5.4.8.7 4.4 4.1 2 1.8 2 1.8 2.6 2 2 1.5 1.5.9.7.4 2 1 2 .5 3.4.8 2.8.4 1.4.1h2l1.6-.3 1.7-.4 1.4-.5 2.2-1 2.2-1.2 6.8-4 2.2-1.2 2.1-1 2-.8 2-.5h3.2l1.6.2 2.2.7 2.1.9 1.9 1 2.2 1.2 6.9 4.6L229 81l2.3 1.2 1.2.5 1.2.4 1.4.3 1.6.2h1l3.7-.3 2-.1h2.2l2.2.2 2 .4 1.1.3 1.3.4 1.3.6 1.7.8 1.6 1 1 .5 2.6 2 1.6 1.3 1.7 1.5 1.5 1.7.8 1.1.3.6v.1l.6.4.5.6.4 1 .2 1 .1 1v1l-.3 1.2-.5 1.3-.7 1.4-.5.7-1.3 1.7-1.3 1.6-4.9 5.3-.8 1.1-.8 1.2-.7 1.2-.7 1.9-.1 1.6.1.8.3 1 .2.4.4.7.5.6.7.6.8.6.7.3.6.2.7.2h2l3-.6h.5l.2.1v.2l-.3.2-1.7 1-5.1 3.2-1 .6-.7.6-.6.6-.3.5-.2.6.3 1.3 1 1.5 1.6 1.5 1.9 1.7 2.2 1.6 2.4 1.8 2.5 1.7 5.3 3.6 22.1 14.3 8.3 5.5 8 5.5 12.9 9-.2.2v.3l.2.5.4.4 1.8 2 .3.4.2.5v.7l-.3.2-.3.3-.4.2-1 .6-7.6 3-16.4 7-8.3 3.5-3.8 1.7-2.3 1-2.2 1.4-4.1 2.7-12.3 8.5-2.3 1.7-4.4 3.3-1.3 1-1.2.7-24.7 14.4-4.7 2.6-3 1.5-1.6.6-1 .4-1.2.2-1 .2h-.9l-1.2-.2-2.3-.7-1.2-.2h-1.3l-1.3.2-1.4.4-1.5.5-2.9 1.3-7.4 3.6-6.2 2.8-13.5 5.8-9.5 3.7-.3-.2-.6-1-3-4-12-18.3-6.6-9.5-2.2-3.4-2.4-4-4.2-8-1-1.9-.8-1.8-1-2.4-.3-1.2-.2-1.2v-1.5l.2-1.2.5-1.1.7-1.1 1-1.2 3.7-4 1.5-1.8 1.2-1.8.8-1.5.3-.9.2-.9.1-1.1-.1-1.2-.1-.5-.3-.8-1.6-3.5-.7-1.8-.4-1.3-.3-1.1v-.6l.3-.7.5-2.4v-.8l-.5-1.2-1-1.8-3.1-5.5-1-1.2-3.8-5.3-.5.5-1.5.3h-1.6l-1.8-.5-2.5-1.1-2.2-1.4-1.7-1.3-2.2-2.3-1.4-1.8-1.3-1.9-1.2-2-1.2-2.1-.5-1.2-1-2.4-.8-2-3.6-10.5-2-5.2-.5-1.6-1.5-3.4-.8-1.5-1-1.7-.8-1.2-.9-1.1-1.3-1.2-1-.5-1-.4-2.7-.9-.8-.3-.6-.3-1.2-.8-1.3-1-1-1.1-1-1.2-1.4-1.6-2.5-3.4-2.6-4L82 91l-4.8-8.2-2.3-3.6-1.3-1.8-4-5.2-1-1.4-1.7-2.7-1.2-2.1-.8-1.6-.7-1.5-1.5-3.7-.8-1.8-.7-1.2-.8-1.1-1.5-1.4-3-2.6-1.7-1.5-1.6-1.6-2-2.3-1.5-2-1-1.6-1.2-2-.6-1.5-.4-1.5v-.8l.3-2 .9-1.9 1-1.3 1.1-1.3 1.7-1.4 1.9-1.4 2.3-1.4 2.4-1.2 2-.8 5.3-1.7 4.2-1.2L71 20l2.1-.3 2.1-.2 3.7-.2h1.7l1.5.5 1.3.7 1.5 1.2 1.2 1.7 2.7 5.1.6 1 .8.9 1.2.6.6.1" clip-path="url(#pf02abc2ae9)"/></g></g></g><defs><clipPath id="pf02abc2ae9"><path d="M7.2 7.2h335.6v266.1H7.2z"/></clipPath></defs></svg>