<svg xmlns="http://www.w3.org/2000/svg" xmlns:xlink="http://www.w3.org/1999/xlink" width="396.6" height="374" viewBox="0 0 297.4 280.5"><defs><style>*{stroke-linejoin:round;stroke-linecap:butt}</style></defs><g id="figure_1"><path id="patch_1" fill="none" d="M0 280.5h297.4V0H0z"/><g id="axes_1"><g id="PatchCollection_1"><defs><path id="m91d1dc166b" stroke="#0c1321" d="m130.2-207-1 .1h-2.7l-.8.2-.4.1-.2.2-.2.4-.1.5v1.2l.4 1.3.7 1.7v.3l3-.1 8.3-.3 2.8-.2 2.5-.2 1-.2 1-.2.9-.4.7-.4.6-.5 2.5-3.3.4-.5.4-.4.8-.5.9-.3 1.3-.2h2l1.9.4 3.5.8h1.7l1.4-.1 4.2-1h1.9l.7.1.5.4.7.6.3.5.3.9.2.7.3 2.3-.1.3v.8l.3 2.6.5 2.4.7 2.6.8 2.8 1 2.6 1.1 2.6 1 2 2.2 4 1 2.2.2 1 .4 2 .4 4.6.4 2.7.5 2.6.8 2.6.6 1.3.6 1.4 1 1.8 1 1.5.9 1.2 1 1.1 3.1 3.4.7 1 .8 1.7.5.6 1.1.7 1.6.7 2 .6 4.6 1.3 5.2 1.2 5.6 1.2 34.8 7.2v.5l.2 1.1.4 1.4.7 1.9 1.6 3.5.3.9.2.5.1 1.2v1.2l-.3.9-.4.9-.8 1.5-1.2 1.8-1.5 1.9-3.8 4-1 1.3-.7 1-.5 1.2-.3 1.3v1.6l.2 1.2.3 1.2 1 2.5.9 1.8 1 2 4.4 8 2.4 4.2 2.2 3.5 6.7 9.7 12.5 18.7 2.9 4.2.7 1 .3.2-17.1 7.9-24.7 11.6-8.6 3.9-2.8 1.2-2.7 1-2.6 1-2.5.7-2.3.4h-2l-1.9-.5-1-.8-1-1.2-.7-1.2-2.5-5.9-1.2-2-.9-1-.9-1-1.5-1.4-2-1.6-2.5-1.4-2.6-1.4-2.7-1.2-2.9-1.2-5.9-2.1-6-2-2.9-.9-2.8-.7-2.5-.6-2.2-.3h-1.8l-1 .3-.2.2-.2.3v1.9l.2 1.4-.2-.3-.7-.6-.6-.5-1.2-.7-1.5-.8-1.7-.7-1.9-.7-2-.7-3.9-1.1-2-.5-6.2-1.4-2.6-.6-2.6-.8-8.4-2.7-1.7-.6-1.1-.3-1.7-.2h-2.7l-1.1.2-.9.2-1.4.4-4.1 1.4-2.2.7-1.5.4-1.4.1h-3l-1.5-.1-1.5-.3-1.5-.3-1.8-.4L96-55l-1.6-.6-1.5-.6-1.9-1-1.8-1-1.1-.8-1-.8-1.3-1.3-1.4-1.5-3.7-4.6-4.3-5-1.5-1.3-.7-.5-.4-.2h-.2v-.2l-.2-.3-1-1.6-2.1-3.3-1.5-2.2-1.5-2.6-.7-1.4-1-2.3-2.8-7-1.3-3-1-2.8-.4-1.3-.2-.7-.6-4.6-.8-4.3-.8-3.5-.8-4.6-.8-4.5-.5-2.2-.5-1.6-.4-1.3-.6-1.2-.6-1.1-.6-1-.9-1.2-.8-.8-1-1-1.2-.6-3.5-2.1-1-.6-1.1-.5-1.8-.6v.2h-.5l-1-.1-4.8-1.1-3.6-1-2-.7-1-.5-1.3-.8-.5-.4-.6-.6-1-1.2-.4-1-.5-.9L21-158l-.6-2.1-.3-1.8v-3l.5-2.2 1.2-5.6.3-1.1.6-2.1 1-2.3 1.1-2.6 1.7-3 .5-1.1.3-1 .6-2.4.8-3.7.3-2v-.4l.1.1.5.1h1l1-.4.7-.4.8-.5 1-1 .8-1.1.3-.5.4-1.4.2-1v-2.1l-.2-1-1-3.5-.1-1.3v-1.5l.1-.9.3-.9.3-.8.5-1 1-1.6 3-4.2 1-1.1 1-1 1.2-1 2.8-2.1 5.6-3.8 2.2-1.7 1.9-1.6 1-1.1 2-2.2 2-2.7 1.4-2 1.4-2.5 2.7-5.3 1.7-2.8 2.7-4.1 3.6-5 .7-1.2.4-.7 4.8 1.8 3 1.3 1.6.8 3.1 1.6 1.5.8 2.8 1.7 1.3 1 1.3 1 .8.8 3.4 3.4 3.2 3 2 2 2.4 3 3.3 4.5 1.1 1.3 1.3 1.4 1.5 1.3 1.1 1 1.3.7 1.2.7 1.4.5 1 .4 4.1 1 3.2.8 1.6.3 2.6.3 7.5.7v.4l-.8 1.2-.8 1.9-.5 1.3-.6 1.8-.4 1.2-.8 1.6-1.3 2.8-.7 2.2-.3.8-.8 1.1-.3.4-.4.2-.5.2"/></defs><g clip-path="url(#p5b4ea82ea5)"><use xlink:href="#m91d1dc166b" y="280.5" fill="#0c1321" stroke="#0c1321"/></g></g></g></g><defs><clipPath id="p5b4ea82ea5"><path d="M7.2 7.2h283v266.1H7.2z"/></clipPath></defs></svg>