<svg xmlns="http://www.w3.org/2000/svg" xmlns:xlink="http://www.w3.org/1999/xlink" width="378.6" height="374" viewBox="0 0 284 280.5"><defs><style>*{stroke-linejoin:round;stroke-linecap:butt}</style></defs><g id="figure_1"><path id="patch_1" fill="none" d="M0 280.5h284V0H0z"/><g id="axes_1"><g id="PatchCollection_1"><defs><path id="m2e6444eb8b" stroke="#0c1321" d="m183.8-240.8 3 1.8 1.4 1 .8.5.7.5.6.5 1 .9.8.8 1.8 1.8 1.3 1.4 1.1 1.4 2.8 3.6.4.6.4.7.2.3.3.9.2.7.2.6.3 2.1.4 2.1.5 2.2.3.8.1.4.3.6.4.6.5.8.5.5.7.7.7.5.8.5.9.5.9.4 1 .4 1 .4 1.8.5 1 .2 7.4 1.6 2 .4.6.2 1.1.3 1 .4.6.2 1.2.5 1.3.7.9.5 1 .6 1.5 1 1.7 1.2 1 .7 3.2 2 .7.4.6.3.8.3 1.4.5.6.1 1 .1h1l1-.1 1-.3 1-.4.6-.3.7-.4 1.8-1 .6-.5.7-.3 1-.2 1.2-.2h2.3l1.3.2.8.2.8.2.8.3.9.3.3.2.1.1-.2.3-4 3-2.5 2-1.2 1-1.2 1-1.1 1-1.1 1.1-1 1.1-1 1.2-.8 1.2-.7 1.3-.7 1.3-.6 1.4-1.1 2.8-1.6 4.1-2.6 7-2 5.4-.9 2.1-1.4 3.1-.2.8-.2.9v2l.3.7.3.4.3.3.5.4.5.2h.6l.6.2h2.6l1.1-.2 5.5-.8 1.4-.1 1.3-.2h2.4l1 .3 1 .4.7.7.3.5.3.6.4 1 .2 1.1.2 1.1.2 1.1v.9l.1.9v2.8l-.2 1.1-.4 2.8-.2 1.2-.4 3.8-.2 1.6-.2.8-.3 1.3-.2 1-.3.9-.4 1-.4 1-1 2.2-.4 1.1-1.2 2.4-.1.2-.1.3v.4l-.1 1v2.7l.3 1.5.4 3 1.6 9 .2 1.2.3 1.2.3 1 .3.8.5 1 1.6 3.3.8 1.4.7 1.1 1.6 2.3.4.7.3.6.2.5.2.6.4 1.7.7 3 .2 1 .3 2 .7 3.7.1.6.2.7.8 2.5.3.9.3 1.2.2 1.3.5 3.3.1 1.3v1.3l-.1 1-.3 1-.2.3-.4-.3-.8-.2-.4-.1H261l-1 .4-.5.1h-2.4l-.5-.1h-.8l-.3.2-.3.2-.2.3-.1.3-.2.4-.3 1-.3 1.2-.7 3.1-.4 1.6-.3 1.3-.2.5-.3.5-.3.6-.2.4-2.2 2.9-.3.3-.2.2-.3.2h-.3l.1-.3v-.3l-.2-.4-.2-.4-.2-.3-1.6-2-.4-.6-.6-1-.9-1.6-.8-1.3-.3-.6-.8-1.5-.5-1.2-.9-2.7v-.2l-.4-.4h-1l-.5.3-2.4 1.6-.6.4-.6.5-1.6 1.4-1 .9-.3.3-.8.4-.8.2h-.9l-.5-.1-.4-.3-.4-.6-.2-.8-.1-.5v-.9l.1-1 .7-3.3.2-.8.1-1.3v-.7l.1-.7v-1.3l-.3-.7-.2-.7-.3-.8-.3-.6v-.2l-.6-.8-1.2-1.5-.3-.5-.3-.5-.3-.8-.2-.7v-2l.2-2.2v-3l-.3-.6-.5-.7-.6-.5-.6-.3-.7-.1-2-.2h-.5l-.5-.2-.3.1-.4.3-.7.5-1 .8-.7.6-.2.3-.4.6-1 2.2-.5.7-.4.4-.4.3-1.1 1-.5.3-.6.6-.6.8-.3.5-.7 1.2-.3.6-.6 1.1-.3 1-.4.8-.3.9-.2.7-.2 1-.3 1-.7 4-.5 2-.4 1.2-.3.9-.2.4-.5.8-.3.4-.5.5-.4.4-1.2.9-1 .8-.5.4-1.4.8-1 .5-1.3.8-.7.4-1.5.6-.4.2-.5.3-.6.5-.7.6-.7.9-.6.9-.5.9-.5 1-.3.9-.4 1.3-.3 1.2v.7l-.2.7v1l-.1.8v1l.1 1.9.2 3 .1 1.4.3 1.3.4 1.2.6 1 .7 1 .7.7.9.7.5.3.4.2.3.2-1.3 1-.8.7-.5.3-.7.4-.8.4-.5.2h-.5l-.6.1-.6-.2-.6-.2-.5-.4-.9-.9-.7-1-1.5-2.2-.5-.6-.5-.7-.5-.6-.7-.6-.8-.6-1.4-1-.9-.5-1-.5-1.2-.4-1.3-.4-1-.3-.8-.2-2.6-.4-.7-.2-.8-.3-.2-.1-.4-.2-.4-.4-.7-.6-2-2.3-.8-.9-.7-.6-.4-.3-.7-.4-.4-.2-.7-.2-.8-.2h-.8l-1-.1-4.4-.3h-6l-.7-.2-.8-.2-.5-.2-.6-.2-1.1-.5-1.6-.8-.9-.5-.9-.7-.4-.4-.7-.6-1-1-.7-.8-1.5-1.8-2.1-2.7-1.2-1.5-1-1.3-1.2-1.8-.9-1.2-.5-.9-.6-1-.4-1-.3-.7v-.8h-1l-1.1.4-3 1-1.3.4-1.8.5-1.9.4-6.2 1.2h-.7l-1.1.2h-2l-1.7.3-.6.1-.6.2-.5.2-.6.3-1 .7-.8.5-.3.3-.3.2-.9.9-1 1-1.1.9-.9.7-.4.3-.5.2-.5.2-.5.2-.5.1h-.4l-.4.1-.4.1-.5.1h-1l-.4-.2-.5-.4-.6-.6-.8-1-.8-.8-.9-.9-1.8-1.7-3.6-3.1-.7-.7-1.6-1.5-.5-.4-.4-.2-.7-.2-1-.2-1-.2-1.7-.1-1.1-.2-1.2-.2-2.3-.5-1.3-.3-2.4-.8-1.4-.4-1.3-.2h-2.5l-.6.2-.7.3-.5.4-.5.6-.4.5-.4.5-.5.4-.7.2h-.7l-.7-.1-1-.2-1.8-.4-5.2-1.3-3.1-.6-3.8-.8-1.6-.2-2-.3-2.5-.4h-.6l-.3-.3-.2-.3-.2-.2-.3-.5-.2-.4-.3-.8-.2-.7-.2-.8-.1-.8-.2-1.6v-1.6L34-75l-.1-4.5-.1-4.3-.1-1.6-.1-2-.2-1.2-.1-.6-.2-.6-.3-.8-.3-.6-.3-.5-.6-.8-.4-.6-.6-.7-.5-.6-1.7-1.6-1-1-.6-.7-.4-.5-.4-.6-.4-.6-.3-.5-.4-1-.2-.6-.2-.8-.3-1.4v-2l.3-.7.3-1.2.6-1.8 1.3-3.4.3-1.2v-.5l.1-.6v-1.2l-.2-1.4-.3-1.3-.1-.5-.3-.9-.4-1-.6-1.1-.7-1-.8-1.2-.8-1-3.5-3.8.2-.3.3-.2.6-.4 1.1-.6.7-.3 1.2-.4.7-.2h.6l1-.1H28l4 .6 2.9.3.8.1 1.4.3.8.2 1.1.3.7.3 1 .4 1 .5 2 1.4 1.5.9.6.4 1 .8.3.2 2.2 1.3 3.4 1.7 4 1.7 2.9 1.2 1 .5 1.1.6.8.5.8.6.6.6.8.8.4.4.5.3.5.3 3.2 2 2 1.3 2.8 1.7.5.4 1.9 1.4.9.6 1.2.7.9.4.5.3 1.4.5 1.2.4.6.2.8.2 2.2.5.7.2.6.2.6.3.5.3.7.4 2.6 2 .8.5.6.3.4.3.8.3.6.2.6.2 1.2.2 1.2.2h2.3l.3-.2.3-.2.6-.5.3-.2h1.4l.3.1 1 .4.6.3 1.3.7.5.2.4.1.5.1h2.5l.7-.2 1-.4 1.1-.4 3.2-1.5 1.3-.5 1.2-.5 1-.3 1-.3 1.3-.3.6-.2h.2l-.1-.2-.4-.6-2.5-3.7-.9-1.3-.8-1.4-.5-1-.9-1.8-.7-1.7-.2-.4-.2-.8v-1.9l.1-.7.8-3 .2-.7.4-2.5.2-1.5.3-1.2.5-1.9.9-2.8 1.3-4.7.4-1.3.7-1.8 1.2-3 .4-1 .1-.7.2-1 .1-1.7.1-1 .5-2.7.1-.8.1-1.1v-2.3l-.3-1.1v-.3l-.5-1.2-.3-1-1.4-3.6-1.7-4.5-1.1-3-.4-.9-.6-1.2-.7-1.2-.8-1.2-.8-1.2-.8-1.2-1.8-2.4-1.9-2.5-4-5-.3-.6v-.3l.3-.2.6-.5.9-.7 1.2-1.2 1-1.2.8-.8.7-.9 1.1-1.4.8-1.1.6-1.1.4-1 .4-1.2.3-1.2v-.7l.2-1.2v-4.3l-.2-1.1-.4-1.8-.2-.9-.2-.8-.4-.8-.5-.7-.5-.6-.4-.5-1.6-1.6-.3-.4-.5-.8-.4-1-.1-.9v-.8l.4-.8.2-.4.4-.7 1-1.1.4-.7.4-.8.3-.7.2-1v-2.2l-.2-1.8v-2.1l.1-1.2.4-1.2.4-1 .7-1 .3-.3.3-.3 4.3-3.8.9-.7 2.8-2.2.9-.6 1.6-1.4.6-.6.4-.4.1-.3.1.1.3.3.8.7 1.1.7 1.3.8 1 .6 1.1.5 1.3.6 1.1.5 1.1.4 1.5.5 1.6.4.8.2 1 .2h2l.5-.2.5-.3.4-.2.3-.4.5-.6.4-.8.5-1 .7-2.5 1-3 .3-.5.3-.6.4-.6.3-.5.3-.4.5-.6.6-.7 1.2-1 .8-.8.7-.4.5-.4.3-.2.8-.4 1-.4 1-.4.8-.2.7-.2 1.7-.3.9-.2 2.4-.6 1.6-.5 3.3-1.1 1-.3 1-.3 4.7-1 1-.2h.5l.8-.1h.8l1 .2 2.7.7 1 .3h.1l.1.2v.2l-.3.5-.6.7-.7.7-2.6 2.3-.7.6-.6.8-.2.2-.4.8-.2.4-.2.5-.2.7v2.2l.3.9.2.6.2.7.2.5.4.8.5.7.4.5.8.8 1 .8.5.4 1.3.9 1.2.8"/></defs><g clip-path="url(#pe1b0c089e4)"><use xlink:href="#m2e6444eb8b" y="280.5" fill="#0c1321" stroke="#0c1321"/></g></g></g></g><defs><clipPath id="pe1b0c089e4"><path d="M7.2 7.2h269.6v266.1H7.2z"/></clipPath></defs></svg>