<svg xmlns="http://www.w3.org/2000/svg" xmlns:xlink="http://www.w3.org/1999/xlink" width="333.8" height="374" viewBox="0 0 250.3 280.5"><defs><style>*{stroke-linejoin:round;stroke-linecap:butt}</style></defs><g id="figure_1"><path id="patch_1" fill="none" d="M0 280.5h250.3V0H0z"/><g id="axes_1"><g id="PatchCollection_1"><defs><path id="m4d48707545" stroke="#0c1321" d="m129.9-242.8 1.1 1.4.6.8.5.8.3.7.2.7.1.7.1 2.5.1 1.3.2.8.2.6.5 1.1.4.6.5.7.5.6.5.4.6.4.4.3.6.2h.7l.7.1 1.4-.1 1-.2 1-.2 2.5-.7 4.8-1.4 3.2-1 2.5-.6 2-.4 2.3-.5 1.4-.2 1.4-.1 2.6-.3 1.9-.2 2-.4.9-.2 1-.3 1-.4.8-.4 1.4-1 1.8-1.3 3.2-2.7 1.3-.8.7-.5 1.5-.7 1-.3 2.9-.9 1.3-.4 1.4-.6.7-.3 1-.7 1.4-1 3.5-2.8 1.9-1.3 1.7-1.1 1.2-.7 1.2-.5.5-.2.6-.1h1l.3.2.2.3.3.5.1.6v1.3l-.1.8-.2.7-.5 1.4-.4 1-.7 1.3-1.4 2.4-.8 1.7-.6 1.6-.3 1.3-.1 1v2.1l.3 1.2.3 1.1.4 1 .7 1.5 1.3 2.6 1 2.2 4.8 11.7.8 1.7.8 1.3.9 1.3.4.5.7.8 1.2 1.4 1.6 1.7 3.4 3.3 1 1.2.7.8 1.6 2 1 1.5.8 1.4.8 1.4 1.5 2.8.8 1.6.3.7.4 1.2.8 3 .6 1.9.7 1.8.6 1.8.7 1.5.5 1 .2.5-.3.1-.3.5v.5l-.1.6v1.5l.2.8.4 1.7.8 3.8.3 1.9.3 1.9v2l.1 1.7v1.4l-.2 1-.1.8-.2 1.1-.4 1.2-.3 1-.5 1-.4 1-.7 1.2-2.1 3.5-1 1.7-.4 1.2-.7 2.3-.3 1-.4.6-.5.5-.3.2-.4.1h-1.7l-1-.2-1.2-.3-1-.4-3.8-1.6-2-.8-1.3-.5-2.4-.6-3.4-1-2.8-.9-1-.2-.9-.1h-.5l-1.2.1-1.5.5-1.2.6-1.2.7-1.3.8-1.3.9-1.8 1.3-1.2 1-1.2 1-1.1 1.2-1.4 1.4-1.2 1.4-2.2 2.8h.3l.2.2 1.2.8 1.3 1 1.5 1.3 1.5 1.4 1.6 1.5 4 4 1.3 1.5.8 1 .5.7.6 1 1.8 3.7.6.9.6.8.9 1 1 .7 1 .7 2.1 1.3.8.5.5.4.5.4.6.6.4.7.3.7.3 1 .2.7.3 2.6.1 1 1 5.1.3 1.7.2 1.8.3 4.5.4 3.7.2 1.6.1.8.4 1.4 1.1 4.2.2 1v2.8l-.3.6-.4 1.3-2.3 6-1.2 3.4-.8 1.8-.5 1-.6 1.2-.9 1.5-2.7 4.2-1 1.3-.3.4v-.5l-.5-.5-.8-.5-.9-.3-1-.1h-1.4l-.8.3-1 .3-.8.4-.7.5-.7.6-.6.8-1.1 1.7-.8 1.2-.4.9-.4 1-.2 1.1-.2 1.7v1.8l.1 1.2.3 2.6.3 1.6.5 1.7.6 1.8 1.1 2.7.3.8.2 1v1.2l-.3.5-.3.6-.2.2-.4.3-.5.4-.6.3-.6.3-1 .3-.7.2-.6.2h-1l-1 .1h-2.3l-1.3-.2-1.6-.3-1.4-.4-1.3-.4-4.1-1.3-1.4-.4-1.4-.3-2-.3-4.8-.6-8-1.1-1.5-.3-1-.2-2.8-.8-1-.3h-.9l-.2-.1-.3-.4-1.5-2.4-1.6-2.2-1.2-1.5-1.1-1.4-1.7-2-1.3-1.3-1.2-1-1.3-1.2-1.3-1-1.9-1.4-1.3-.8-2.1-1.2-1.4-.6-1.2-.6-1.4-.5-1.1-.4-1.7-.4-1.2-.2-1.7-.2H121l-1.5.1-2.4.4-5.9 1.2-3.5.7-2.5.4-1.6.1h-4.1l-3-.3H96l-1.1.1-1.2.2-1.2.4-1 .4-1 .6-.7.5-.5.5-1 1-.4.3-.3.1-.6.3-.7.1h-1.2l-1.3-.2-1-.2-.6-.2-1.3-.4-2.5-1-.7-.3-1-.3-.8-.1h-1.7l-1.5.4-2.4.8-1 .2-.5.1h-1.6l-.7-.1-.4-.2-.6-.2-.2-.2-.6-.9-.1-.3-.2-.6v-1.5l.3-1.3.3-1 .4-1 .6-1.2.4-.7 1-1.7 7-9.4.7-1 .8-1.4.4-.6.2-.6.2-.5V-67l-.4-.7-.3-.4-.3-.2-.6-.3-.3-.2-.7-.2-1-.2-2.2-.5-2.4-.3-6.5-.7L50-72l-2-.4-1.5-.2-2.5-.7-1.3-.3-1.3-.5-2-.7-4.2-1.9-2.5-1.2-1.2-.6-1.9-1.1-1.4-1-1.3-1-1.3-1-1-1.1-.7-.7-1-1.3-.6-.7-.4-.8-.4-.7-.3-.6-.1-.5v-1.9l.4-.9.4-.8.3-.5 1.6-2.1 1-1.5.2-.3.2-.6.1-.5v-.6l-.2-.4-.2-.4-.6-.6-.8-.6-2.9-1.8-.6-.5-.7-.6-.4-.4-.3-.3-.6-1.2-.1-.8v-.9l.1-1.7.2-1 .5-2 .5-1.7.3-.8.3-.7v-.6l.1-1.4v-6.3l.2-5.6.1-3.7.1-1.7.3-3.3.2-2 .5-2.8.4-2.6.6-2.6.5-2.2.4-1.4.4-1 .2-.6 1-1.7L26-156l1.3-1.5 1.5-1.5 1.5-1.4L32-162l6.5-5.6 1.6-1.4 1.6-1.4 1.4-1.5 1.4-1.5 1.2-1.6.5-.7.5-.8.5-1.1.5-1.2.5-1.4.7-1.9 1.6-5.6.5-1.3.6-1.2.3-.5.4-.5.7-.6.8-.5 1-.5 3-1.2 1-.6 1.7-.8 1.4-1 1.7-1.4 1.3-1.2 1.4-1.6.7-1 .8-1.1.6-1 .5-1.1.3-.9.4-1.3v-2.5l-.8-5.4v-1.5l.1-1 .3-1 .6-1.1.7-1 3.3-4.1 1-1.4.8-1.5.4-1.3.7-2.5.9-2.7.2-.8.1-.5.4-.9.2-.4.3-.3.3-.2.4-.1h.8l1.7.4h1l.4-.1.4-.2 1.5-1h.3l.4-.1h.3l.3.3.4.2 1.3 1.3.4.3.3.2h1l.3-.2.8-.7 1-1 1.7-1.9 1.1-1 .6-.6v-.4l.3-.3.3-.2.3-.1.4-.2h.7l.6-.2 3-.3h3.1l1 .3 1.6.5h.5l.3.1h.8l.3-.2.6-.3 1-.6.8-.7 2-1.8 1.7-1.5 2.4-2.4 1-1.1 2.4-2.6 1.3-1.2 1.6-1.4 3.6-3 2-1.7.7-.7.6.2.5.7.4 1.1v.6l.1.7v.4l-.1 1-.2 1-1.4 5-.4 1.6-.3 1.7v1.6l.2 1.4.2.5.3.5.3.4"/></defs><g clip-path="url(#p445e8c124e)"><use xlink:href="#m4d48707545" y="280.5" fill="#0c1321" stroke="#0c1321"/></g></g></g></g><defs><clipPath id="p445e8c124e"><path d="M7.2 7.2h235.9v266.1H7.2z"/></clipPath></defs></svg>