<svg xmlns="http://www.w3.org/2000/svg" width="495.4" height="262" viewBox="0 0 371.5 196.5"><defs><style>*{stroke-linejoin:round;stroke-linecap:butt}</style></defs><g id="figure_1"><path id="patch_1" fill="none" d="M0 196.5h371.5V0H0z"/><g id="axes_1"><g id="PatchCollection_1" fill="#0c1321" stroke="#0c1321"><path d="m91.4 72.4 1.5.4.7.2 1.2.1 2 .1h1.9l1.4-.3 1.3-.2 1.4-.2 1.3-.4 1.1-.3 3.7-1 5.3-1.7 4.1-1.4h.5v.1l.3.4.8.7.2.2.4.5.3.6.4.6.4 1 .2.6.2 1 .2 1v2l.1 1 .5 1.8 1.4 4.3 4.3 14 .6 2 .5 2 .5 1.9.3 1.9.2 1.8v2.6l-.2.8-.2 1-.3 1-.4.9-.3.8-.9 1.7-.4.8-.5.8-2 2.8-.4.7-.4.7-.3.9-.3.9-.2 1v.9l-.3 3.7-.1.8-.1.6-.2.3-.2.1v-.2l-.4-.3-.6-.4-.8-.4-1.5-.4-1.6-.3-1.4-.2H115l-1.2.2-1.1.2-1.7.6-3.1 1.2-1 .3-1 .1h-.8l-1-.5-.7-.8-.6-1.1-1.1-2.7-.6-1.3-.8-1.3-.9-1.1-1.4-1.4-2.3-2.2-1.8-1.6-.8-.6-.7-.5-2-1.2-.7-.5-.7-.5-.7-.7-.7-.8-.7-.9-1.6-2.2-.7-.9-.8-.8-1-.8-.8-.7-3-2.3-.8-.4-1-.6-.5-.2-.4-.2h-1.8l-1 .5v.2l-.6.6-.4.6-.2.7-.3 1.2v1.9l.2.7.2.7.2.3.4.5.2.2.5.4.9.6 2 1 .9.5.8.6 1 .8.5.6.8 1 .7 1 .4.7.3.8.1.5v2.7l-.3.8-1 2.8-.4 1.1-.3 1-.2.8-.3 1.5v1.4l.2 1.6.5 2.8.3 1 .8 2.7.2.9.2 1 .1 1v3.1l-.4 1.2-.3 1-.5.9-.6.9-.7.7-1.1.8-1 .3-.8.2h-1l-1.2-.3-1.2-.3-1-.2-2-.7-1.7-.7-2-.8-5.8-2.5-1.2-.4-1.3-.4-1.2-.1h-1.2l-1 .1-1.1.3-1.5.5-1.4.6-4 2-1.3.6-1.3.5-1.5.3-1 .1h-1l-1.5-.2-1.5-.6-.8-.4-1.1-.7-1-.8-1-.9-1.2-1.2-2-2.1-1.6-1.7-1.5-1.2-2.6-2-.5-.5-.2-.3-.2-.3v-.3l.2-.5.6-.7.6-.4.7-.3 1.2-.5 1.4-.5 3.6-1.1 1.7-.6 1.1-.4 1.1-.5 1.2-.6 1.1-.7 1-.7.7-.7 1-1 .9-1.1.7-1.2.7-1.3.4-1.5v-2.8l-.3-1.4-.3-1.2-1.4-4.3-.4-1.5-.4-1.5-.3-1.6-.4-1.6-.2-1.6-.2-1.8-.2-1.7v-1.6l-.1-4.2-.1-1.3-.1-1.2-.3-1.2-.4-1.1-.6-1-1-1-.8-.8-.9-.7-.9-.7-.9-.5-1-.5-1.3-.7-1.1-.4-1-.3h-.5l.6-1.7.2-.6.1-.6v-1l-.2-.5-.2-.4-.2-.5-.2-.2-.3-.3-.5-.2-1.8-.9-.8-.4-.6-.5-.6-.6-.4-.6-.2-.2-.1-.5-.1-.6v-1.2l.2-.1.2-.3.3-.6 1.1-3 .7-1.5.8-1.5 1-2L29 62l1.4-2.1 1-1.4 1-1.3.9-1.2 1-1.1 1.1-1 1.4-.7 1.5-.5 1.4-.2h2.1l1 .2 1 .3 1.1.5 1 .6 1 .7 1.1.8 4.8 3.6 1.4 1 1.2.8 1.8 1.1 2.2 1.2 2.6 1.3 2.2 1 1.3.4 1.6.4 1.2.2 1.3.2 6.2.6 1.6.2 2 .3 1.6.5 1.3.4 1.3.4 1.4.6 4 1.7 1 .4 1.5.6M245.2 75h2l3.4-.1h3.3l2 .2h2.3l1-.3 3.2-.7.9-.2h1.9l1-.1.4-.1.9-.3.8-.4 1-.7.3-.3.7-.7 1.8-2 .8-1 .6-.5.6-.5.5-.2 1-.2 2-.2 1.3-.3.7-.2 1-.5 3.8-2 1-.6 1.2-.4 1.1-.3.7-.1 1-.2 4-.3 4.5-.5 1.1-.1h9.8l1-.1 1.2-.3 1.3-.4 1.2-.5 1.4-.8 1-.6.8-.6 1-.8 2-2.2 1-1 .4-.3.7-.4.5-.3.7-.4.5-.2.6-.1.6-.1h1.7l.4.2.5.2.4.3.5.3.2.2.1.1.2.3.8 1.2 3.2 4.3 1 1.2 1.7 1.8.9 1 .5 1 .3.5.2.6.2.7.1.6.1.8.1 5.4.2 2.6.2 1.6v.9l.2.7.3 1.3.4 1.3.3.7.6 1.6.9 1.7 1.9 3.5 1.8 3.7.6 1.4.6 1.6.4 1.6.3 1.5.6 4 .8 4.1.2 1.6h-4.4l-.8-.1-1.2-.2-1.4-.3-.8-.2-1.5-.5-1-.3-1.1-.5-1.4-.7-1.6-.9-1.2-.8-3-2-.8-.5-.6-.4-.4-.2-.8-.2-.8-.2h-.7l-.6-.1h-.8l-.5.1-.6.2-.6.2-.8.4-1.1.6-1.5 1-.7.5-.6.5-1 1-.5.5-.5.7-.3.4-.4 1-.3.7-.1.6v1.2l.1.4.2.4.3.5.6.7.9.9.6.6 1 .8 1.4 1 3 2.1.8.7.8.7.5.6.4.5.6.8.3.6.2.4.3 1 .2.6.2.8.1.9.1 1.3v1.8l-.1 1.7-.5 5.3-.2 1.7v2.6l.2.7.3.1-.3.2-.8.3-4 1.3-1 .3-.9.5-.7.4-1 .7-1 1-1 1-.4.5-.8 1-1.2 1.7-.7 1-1 1.6-1.6 2.8-1.1 1.9-2 3-1 1.1-.4.6-.7.8-.7.7-1.4 1.2-1 .7-1.5 1-.8.3-1.3.5-1.3.5-1.8.4-1.9.3-1.6.2-1.6.1-4 .2-1.5.1-1.7.2-2.3.4-1.6.4-2 .5-1.8.6-2 .6-1.8.7-1.8.8-3 1.4-4.8 2.5-1.7.7-1.7.8-1.9.7-1.5.5-1.6.4-3.6 1-1.8.3-1.6.4-1.5.2-1.2.1h-1l-.4-.3v-.6l.5-.8.7-1 1-1 2.5-2.5 5.6-5.4 1.4-1.5 1.3-1.4 1.3-1.5 1.1-1.5.6-.9.7-1.4.6-1.4.4-1.3.1-1.2-.1-1-.5-.8-.9-.5-1.1-.2H254l-1.3.3-1.2.2-.9.2-.3.2h-.4l-4 1.2-3.6.9-2 .4-1.9.4-2 .2-1.8.1h-1.8l-1.7-.3-1.7-.5-1.6-.8-1.6-1-1.5-1-1.3-1-2.4-2-1.4-1.2-1.3-1.3-1-1-1-1.2-.6-.7-.6-.9-.7-1-.5-1-.3-1-.2-.8-.1-1v-3l.3-.8.2-.8.8-2.3.4-1.4.3-1.5.4-2.2.3-1.4.4-1.2.4-.9.5-.8 1.3-2 .3-.6.2-.6.1-.4V120l-.1-.6-.5-1-.6-.9-.4-.5-.3-.4-.3-.2-.7-.5-.9-.5-2.6-1.4-1-.7-.9-.6-.7-.8-1-1-.5-.8-.6-1-1.1-1.8-.7-1.2-.7-1.5-1-2-.7-2-.3-1-.4-1.3-1.3-5.2-.2-1.2-.1-1-.1-1v-3.1l.3-5v-2.5l-.1-1.9-.3-1.7-.3-1.6-.5-1.4-.6-1.2-.6-1-.4-.5-.3-.2.1-.1.4-.4.5-.6L201 67l.8-1.2.7-1.2.7-1.2.6-1.3.5-1.3.3-1.3v-1.9l-.2-1.4-.6-1.4-.6-1.3-.9-1.4-.9-1.2-1-1.2-2.8-3.6-1.8-2.4-1.7-2.4-1.2-1.9-.8-1.5-1-2-.5-1-.2-1v-1.7l.4-.9.5-1 .5-.9.7-1 1-1.2 1-1 1-1 1-1 2.3-2 .9-.7 1.3-1 1-.6.8-.5 1.6-.7 1.5-.6 1.6-.6 1.5-.4 1.5-.3 1.7-.4 1.8-.2 1.7-.2 3.5-.4h1.7l2.5-.1h.8l1.4.2 1.2.4.7.4.5.6.5.6.5.8.5.9.6 1.2.3.2.6.6.7.7.6 1 .5.6.3.8.2.8.1.8v.4l-.3 1.3-.5 1.3-2 3.9-.4.8-.2.8-.3 1.4v1.4l-.1 2v1l-.2.9-.3 1.3-.3 1.1-.6 1.4-.5 1.1-1 1.9-.4 1-.3 1-.1.6V52l-.1 1.6-.2 1.7V58l.2 1 .2 1 .3.8.4.8 1 1.7.5 1 1.3 1.9.9 1.1 1 1.2 1 1 .9 1 1 .9 1 .8 1 .7.8.4 1.2.7.6.2.7.3h.7l1.7.1 2.2.4h1" clip-path="url(#p040fd9ba14)"/></g></g></g><defs><clipPath id="p040fd9ba14"><path d="M7.2 7.2h357.1v182.1H7.2z"/></clipPath></defs></svg>