<svg xmlns="http://www.w3.org/2000/svg" xmlns:xlink="http://www.w3.org/1999/xlink" width="321.2" height="374" viewBox="0 0 240.9 280.5"><defs><style>*{stroke-linejoin:round;stroke-linecap:butt}</style></defs><g id="figure_1"><path id="patch_1" fill="none" d="M0 280.5h240.9V0H0z"/><g id="axes_1"><g id="PatchCollection_1"><defs><path id="m83c831d7f5" stroke="#0c1321" d="m134.1-246.2 9.4 3.7 10.5 4 3 1.3 3.1 1.2 2.6 1.1 1.7.8.8.5.8.4.8.5.8.5.6.6.6.5.6.7.4.7.3.8.2.8v.8l-.2.7-.2.8v1.5l.2 1 .3.8.4 1 .5 1 .6 1 1.1 2 .6 1 1 1.6v.2h.1l.7.5 5.4 4 2.8 2 1.8 1.5.9.7.8.7.8.8.7.8.8.9.7.9.6.8.9 1.2.5.8.5.8.4.7.3.6 1 2 .4.8.4.6.3.5.4.7.7.8.6.8.7.8 1.3 1.6 2.2 2.2 1.4 1.5 1.5 1.5.8.7.8.6.9.7 2.6 2 .8.6.8.7.7.8.7.8.6.8.7.9.6.9.5.9.6.9.5.9.5.9.4 1 .3.8.3 1v2.4l-.2.7-.3.7-.2.6-.4.8-.7 1.5-.2.5-.3.7v.5l-.1.4v.6l.1.5.3.6.3.6.4.5 1.6 2 .6.8.5.7.5.9.6.8.6 1.2 1.3 2.3 1.1 2.3.5 1v.2h-1.8l-1.1-.3-.6-.2-.8-.2-1.4-.5-2.3-.8-.9-.3-.7-.1h-.5l-.4-.1h-2.9l-3.7-.1h-1.3l-2 .1h-4.2l-1 .2h-.8l-.9.2-.8.2-3.1.8-.5.1-.5.3-.4.1-.4.3-.2.2-.3.2-.1.2-.2.4-.1.4-.1.3v1.2l.1 1.5v1.5l.1.7v.3l.1.3.2.5.1.6.5 1.2.1.5v.3l.1.3v.4l-.2.3-.1.3-.4.4-.3.3-.6.5-.7.4-1.3 1-1.4.9-.5.3-.3.3-.3.2-.2.2-.2.4-.2.4-.1.5-.2 1.8-.2 1-.7 3.9-.4 2.6-.2.8v.6l-.3.5-.2.6-.2.5-.4.7-.3.6-.4.4h-.2v.2l-.2.3v.5l-.2 2.2-.4 3.7-.1 1.1-.2 2.6v2.4l.2.6v.2l.2.4.2.5.4.6.5.8.3.5.2.4.1.6v1.6l-.2.4-.2.4-.2.4-.3.4-.4.5-1 1.3-.6.6-.7.6-1.2.9-.6.5-.5.5-.5.5-.4.6-1 1.7-.4.4-.9 1.6-.2.3-.4.5-.3.3-.5.5-.7.6-.7.5-.8.7-1.5 1-2.7 1.9-.9.7-.6.4-.6.5-.5.4-.4.4-.5.6-.3.3-.4.5-.5.7-.3.5-.4.8-.3.5-.3.4-.4.4-.4.2-.6.2-.6.2-1.3.3-.5.1-.3.2-.4.2-.2.1-.1.3-.1.2v.9l.2.4.1.3.6 1 .3.6.1.3v1.2l-.1.8-.4 1-.4.8-.5 1-.5.8-.5.7-.4.6-.1.1h-.5l-2.6-.3-1.8-.3-5.8-1-.8-.2-.6-.2-.5-.1-.5-.2-1-.5-.8-.6-2.5-1.9-.9-.5-.8-.5-1-.3h-1.8l-1 .2-.9.2-1 .3-1 .4-1 .4-2 .8-10 4.1-4 1.7-2.1.7-1 .4-1 .3-.8.2-1 .2-.9.2h-3l-1.1-.1-3.2-.6-1-.1-1.1-.1h-1l-1 .1-1 .3-.8.4-1 .5-.8.6-.8.6-.9.6-1.7 1.4-2.4 2-1.7 1.5-.7.8-.8.8-.5.6-.7.8-.5.8-.5 1-.4 1-.4 1-.3 1-.3 1.1-.5 2.3-.5 2.3-2.2 10.7-.4 1.9h-.2l-.5-.1-3.4-.4-1-.1-1-.2-1-.2-.7-.3-.8-.4h-.1l-.6-.5-1-1.1-.6-.6-.7-.4-.6-.3-.8-.3-1-.3-1-.2-1-.3-2.2-.4-3-.5-6.5-1-2-.4-2.1-.4-1-.3-1-.2-1-.4-.9-.3-.9-.5-.8-.6-.8-.7-.7-.7-.8-.8-.7-.8-.6-.9-2-2.6-6.4-8.5-4-5.3.2-.1 1.6-.7 9.2-3.8 3.3-1.4 1-.5 1-.5 1-.5 1-.5.8-.6.7-.7.7-.7.4-.8.4-1 .2-.9.2-1 .1-1 .2-2.1.3-3.3.3-5.4.1-3.2v-5.3l-.2-1-.2-1-.5-2.1-.2-1-.2-1v-3.7l-.1-.5-.1-.8-.1-.4-.3-.8-.3-.8-.4-.5-.3-.6-.9-1.2-.4-.7-.6-.8-.6-1.2-.5-1-.4-.8-.5-1.2-.5-1.3-.2-.8v-.6l-.1-.8v-.8l.1-1 .1-1 .2-.5.2-.6.3-.6.3-.5.5-.7.7-.8.7-.7 5.6-5.3 1.5-1.4 1-1 1.3-1 .9-.6 1.5-1 1.6-1 1.9-1.2 2-1.2 1-.5 2.8-1.5.5-.3.5-.3.7-.6.6-.5.8-.8 1.2-1.5.5-.6.5-.6.3-.5.3-.5v-.2l.2-.6.1-.7.2-.7.1-.3.2-.4.5-1 .1-.5v-.9l-.2-.3-.3-.2-.4-.4-1-.7-.3-.3-.2-.2-.3-.3-.1-.3v-.2l-.1-.2v-.7l.2-.2.1-.2.3-.4.4-.4.3-.2.6-.5.5-.3 2-1.2.8-.6.4-.3.3-.2.4-.5.3-.4.3-.4 1.5-2.6 1.2-2 2.2-3.1 1.1-1.6 1.1-1.3.6-.7.5-.6.4-.4.1-.1.1-.1.2-.2.3-.1.5-.2 1.8-.6 2.3-.6 2.1-.7.6-.2.6-.2.4-.3.5-.3.4-.3.2-.2.3-.4.2-.2v-.2l.1-.3v-.4l-.2-.5-.3-.9-.7-1.5-.7-1.4-.5-1.3-.3-.9-.3-.8-.6-1.8-.5-1.9-.7-3-.3-1-.4-1.5-.8-2.4-2.3-6.7-1-3.2-.1-.2-.2-.2h-.1l-.2-.1H76l-1.7.4h-.7l-1.1.1h-2.1l-1-.1-1.1-.2-1.1-.1-2.2-.4-2.1-.4-1-.3-1.3-.3-5-1.5-1.5-.4-1.4-.3-.8-.2h-.8l-.8-.2h-4.7l-.7-.1h-.7l-.8-.2-.8-.2-.6-.2-.6-.3-.5-.3-.4-.3-.4-.4-.9-.8-.6-.7-.6-.8-.7-.9-.6-.9-.6-1-.6-1-.6-1.1-.5-1-1.2-2.5-.2-.2.2-.3.2-.3L35-219l.6-.6.4-.5.3-.5.4-.6.6-.8.5-1 .4-.8.4-.9.3-.8 1.4-3.9.2-.8.8-2.4.8-3.4.3-.7.1-.4.2-.4.3-.4.4-.5.2-.2.3-.3.6-.4.3-.3 1.4-1 .6-.3.4-.4.2-.2.2-.2.2-.3.3-.5.3-.7.2-.7.4-1.6.2-.7.2-.7.4-.5.6-.5.7-.3.7-.2 1-.1.9-.1h4.2l1.1.2 1.2.1 2.2.4 1 .2h2.2l1-.2.6-.4.4-.3.4-.3.5-.5.4-.5.3-.4.1-.2h.1l1.2 1.7.5.6.5.6.6.5.5.5.5.3.6.2h.2l.4-.1.4-.2.5-.3.4-.4.3-.3.5-.5.4-.5 1.6-2.2.5-.8.5-.5.7-.7.4-.4.5-.4.4-.4.3-.1.5-.3.4-.2.9-.3 2.7-1 1.5-.8 1.7-.8 2.5-1.4 1.4-.8 2-1 1.7-.7.4.3.6.4.7.4 2 .8 2.2 1 2.2.8 7.4 2.9 5.8 2.2 6 2.4 5.9 2.3 3.8 1.5"/></defs><g clip-path="url(#p8257387e1f)"><use xlink:href="#m83c831d7f5" y="280.5" fill="#0c1321" stroke="#0c1321"/></g></g></g></g><defs><clipPath id="p8257387e1f"><path d="M7.2 7.2h226.5v266.1H7.2z"/></clipPath></defs></svg>