<svg xmlns="http://www.w3.org/2000/svg" xmlns:xlink="http://www.w3.org/1999/xlink" width="495.4" height="358" viewBox="0 0 371.5 268.5"><defs><style>*{stroke-linejoin:round;stroke-linecap:butt}</style></defs><g id="figure_1"><path id="patch_1" fill="none" d="M0 268.5h371.5V0H0z"/><g id="axes_1"><g id="PatchCollection_1"><defs><path id="ma3b3a734b3" stroke="#0c1321" d="m210.4-239.8.3.2 2.3 2.4 2 2 2.2 2 1 .8 1.2.7 1.1.6 1.2.5 1 .2 1.1.1h1l2.2-.3 4.5-1 2.2-.4 2-.2h1.7l.8.2.4.1 1 .4 1 .6.8.7 2.7 2.2.8.6 1 .5.9.3h1l1-.2 1.1-.3.9-.4 1.9-1 5.3-2.9 7.1-3.7 1-.5.7-.5.2-.2.5.4 1 1.2 1 1.3 4.6 7.1.7 1.3.6 1.4.3 1 .3 1.5.2 1.6.2 2.2v6.1l.2 1.2.3 1.1.5 1 .7.7 1.7 1.5 1 .9 1.5 1.6 1.1 1.5 1 1.6.8 1.7.4 1.3.4 1.8.2 1.6.1 1.5.2 1.6.3 1 .4 1.2.5 1.2.7 1 .6.6.7.5.9.7.8.5 1 .5 1.4.7 1.5.6 1.6.5 6.4 2 2.2.7 1.5.3 1 .1 1.2.1h3.3l1 .1 1.2.2 2.5.5 1.4.4 2.4.7 3.2.9 2 .7.7.3 1 .5 1 .7.6.5 1.3 1.1 2.7 2.6 1 .8 1 .8 1 .6.8.4 1 .4 1.4.4 2.4.4 1.4.4 2.7.9.7.2.3.2-.6 1.7-.4 1.3-.1 1.4v1.8l.3 1.1.4 1.2.6 1.6.3 1 .1 1-.2 1.5v.8l.4 2.8v2.8l-.4 1-.3.7-.3.6-.3.5-.2.2h-.4l-.9-.2-1.5-.6-4.6-2-1.5-.6-2-.6-2.4-.4-2.1-.2-3.6-.1h-1l-1-.2-.7-.2-.8-.3-2-1-.9-.3-.7-.2h-1.7l-.8.2-.5.2-.7.3-2.7 1.3-1.3.6-1.9.6-1.4.3-.8.1-1.3.2H302l-6.1-.3h-2.5l-1.8.2-1.3.2-1.9.6-1.5.5-1.5.7-1 .6-1.1 1-1 1-1 1.8-.6.9-.5 1.2-.5 1.2-.3.8-.5 2-.5 2.3-.5 3.7-.4 2-.6 2-.8 2-.8 2.2-1 2-1 2.3-1 2-1.2 2-1.3 2-1.3 2-1.5 1.8-1.4 1.9-2.5 3-2.5 3-1.3 1.4-1.7 1.8-2 1.9-1.4 1.2-1.4 1.1-1.5 1-1.9 1.2-3.7 2-1.6 1-6 3.8-.9.5-1 .5-1.1.4-1 .3-1.2.2-2.5.2h-1l-1.9-.1-3.7-.5-1.1-.1-3.7-.2h-1.5l-1.6.2-1 .2-1.5.6-1.5.8-1.5 1-1.6 1.2-1.2 1-1.7 1.7-1.8 1.9-1 1.3-.8 1.4-.5 1.3v1.2l.1 1 .6 1.8.2.9v.7l.1.7v1l-.3.6-.3.2-.6.1-3-.1-1.7.1-1.2.3-5 1.2-1.8.5-1.7.7-1.8.8-1.5.7-3 1.5-5.8 3.1-1.3.8-1.1 1-.4.3-.5.7-1.2 2.3-.6.8-.4.3-.4.1h-1.8l-2.3-.6-1.3-.2-1.1-.1H160l-1.7-.2-1.3-.2-2.5-.7-1.3-.2-.9-.2-1.6-.2h-1.6l-1.8.3-1.8.6-1.9.6-1.8.9-1.6 1-1.5 1.3-.3.4-1 1.2-.8 1.3-.8 1.4-1.8 4.3-1 2.1-1.8 3-1.2 1.8-.8.9-1 1-1.3.9-1.5.7-1.5.4-1.4.4-2.6.3h-1.6l-5 .2h-7l-2 .2-3 .3h-2.3v-.1l-.3-.5-1.2-2.8-1.3-2.8-1-2-.5-.7-.7-1-1.5-2-1.1-1.4-2-2.2-1.4-1.4-1.4-1.3-1.2-1-1.4-1-2-1.5-4.7-3-2.4-1.7-1.9-1.3-2.3-1.9L69-50l-.8-.8-1.3-1.5-.3-.5-.6-1-.4-1-.1-1 .1-2 .3-1.2.4-1.2.5-1.4.6-1.3 1.5-3 3-6 1-1.8.8-1.9.6-1.6.4-1.7.1-.7v-2.2l-.2-1.2-.3-.7-.3-.8-.4-.8-.5-1-.6-.8-1-1.5-1.9-2.2-1.3-1.5-2.5-2.7L55-105.8l-3-3.2-3-3.3-1.5-1.8-1.5-1.8-1.3-1.9-1.4-1.9-1.1-1.8-1.2-1.9-1-2-2.1-3.8-1-2-1.8-4.2-.9-2.1-.8-2.1-.7-2.3-.8-2.4-1.3-4.7-1.2-5.2-1.2-5.3-1.1-4.8-1-5-1.1-5.8-.5-2.7-.7-4.4-.4-3 .3.1h.3l.8-.3.8-.3 6-3.2 1.8-.8 1.7-.6 1.6-.3h1.4l.5.1 1.6.5 3.9 1.8 1.1.4 1.5.6 1.6.4 2.4.4 1.4.2 4.5.3 2.2.3 2 .3 4.8 1.2.7.2h1l1.3.1 1 .2.7.1.8.4 1.2.8 1.2 1 3.7 3.8.8.7.6.5.9.6.7.3 1.5.6.6.2 1.3.3h2.1l2.2-.2 2-.4 2-.7 2-.8 2-.9 2-1 2.1-1.1 4.1-2.4 6-3.8 4.7-3 2-1.5 1.7-1.4 1.6-1.5 1.3-1.5 1-1.5.5-1.6v-1.3l-.3-.7-.2-.5-.4-1-.8-1.3-1-1.6-2.5-3.5-1.1-1.8-.7-1.3-.5-1.3v-.6l-.1-.8.1-1.6.5-1.5.3-.8 1.8-3.8 1.2-2.8.4-1v-.6l.5-3v-6.1l.2-.3.2-.5.3-.3.3-.2h.1l.8-.3.7-.1h1.5l2 .2 4.8.6 1.2.1 1.5.1h2.9l1.7-.3 1-.2 1.6-.4 4.2-1.2 4.2-1 2-.4 3.3-.4 1.3-.3 1.2-.2 1.9-.6 2-.7 2.8-1.2 1.7-.9 3.3-1.7 4.2-2.5 2.2-1 1.5-.7 1-.3 2-.4 1.2-.2 2 .1 1.3.3 1.4.5 1.4.7 2 1.2 4.4 2.7 2 1.1 1.6 1 1.6.8 1.7.8 2 .8 2.2.5 1.1.2 1.5.2h1.3l.8-.2.8-.2.4-.5"/></defs><g clip-path="url(#p74a1794a4a)"><use xlink:href="#ma3b3a734b3" y="268.5" fill="#0c1321" stroke="#0c1321"/></g></g></g></g><defs><clipPath id="p74a1794a4a"><path d="M7.2 7.2h357.1v254.1H7.2z"/></clipPath></defs></svg>