<svg xmlns="http://www.w3.org/2000/svg" xmlns:xlink="http://www.w3.org/1999/xlink" width="495.4" height="348" viewBox="0 0 371.5 261"><defs><style>*{stroke-linejoin:round;stroke-linecap:butt}</style></defs><g id="figure_1"><path id="patch_1" fill="none" d="M0 261h371.5V0H0z"/><g id="axes_1"><g id="PatchCollection_1"><defs><path id="m4e6e4685e6" stroke="#0c1321" d="m118.6-240.2 1 4.2.9 3.4.4 1.8.3 1.8.2 1.2.7 5.6.3 2.8.2 1.6v1l.2 2v2.1l-.1 1-.1 1.2-.2 1.2-.2 1-.2 1.1-.2 1-.3 1-.3 1-.3 1-.6 1.2-2.1 4.7-.8 2-.7 1.9-.3 1-.3 1-.2 1-.3 1.2-.1 1.6v1.9l.1 1 .3 1 .5 1 .6.6.4.3 1 .4.7.1h1l1-.1 1.2-.4 1-.3 1.1-.5.9-.4 1-.5 1.8-1 1.4-.8 1.4-.7 1.5-.7 1.5-.6 3-1.2 3-1.1 3-1.1 3-1 3-1 1.2-.4 1.2-.3 1-.1h1l.4.3.2.5-.2.8-.4 1-.5 1.1-.7 1.2-.7 1.3-1.7 2.6-1.7 2.7-1.8 2.6-1 1.3-.7 1.1-.8 1-.6.6-.8.9-1.3 1.2-3 2.8-.8.7-2.9 3-2.7 2.8-.7.7-.6.7-.8 1.1-.7 1-.4.8-.4.7-.3.8-.1.6v.8l.4.2.5.1h.4l.6-.1 2-.6 4.8-1 1.4-.3 1.2-.2 2.2-.3 4-.4 2.8-.2h1.2l1.2-.1h2.2l9.6 1h1.4l1.6.1h3.7l1.2-.2 3.6-.5h2.8l.8.2.5.2.7.3.1.2.6.6.5 1 .2 1v1.9l-.1.8-.6 2-.1.8v.5l-.2.9v.9l.2.4.1.5.3.7.6.8.3.3 1 .8.9.5 1.2.7 1.7.8 1.8.8.8.3 1.4.5 4.4 1.5.8.2 2 .3.9.2.4.1 2.3 1 1 .4 2 .7.7.3 2 1 .8.3h1.5l.8-.2.9-.2 1-.5.6-.3.6-.4.5-.5.5-.6.7-1 .4-.5.4-.4.7-.4.7-.4 1-.5 1-.4.7-.3 1.3-.4 2.3-.7 1.8-.6 1-.4.8-.5.7-.6.6-.6.5-.7.9-1.1.6-.7.8-.7.4-.3.8-.4 2.4-1.2 1.2-.4 2.4-1 2.1-.7 1.1-.2 1.1-.2 1.8-.2 1.2-.1 1-.3 1-.3.7-.4.4-.4.4-.4.5-.7.7-1.2.8-1.6.6-1 .5-.7.5-.6.9-.6 1-.4h.2l1-.2h1.7l1.6.2 3.3.4 7.7 1.3 3.7.6 5.4.7 2.9.3 3 .3 2.5.2 2.6.2h3l8 .2h4.4l2-.1 1-.1.8-.1h.3l.2-.1h7.1l.8.1 1.5.3 1.1.4.9.7.4.7.2 1v1l-.1 1-.2 1.2-.4 1.2-.4 1.3-.5 1.2-.6 1.2-.7 1.4-.9 1.3-.9 1.2-1 1.1-1.9 2.2-2 2.1-3.1 3.2-5.2 5.3-3 3-1.8 2-1 1.1-1.8 2.3-1.4 1.8-.6.9-.6 1-.6 1-.4 1-.3 1v1l.3 1 .5 1 .6.9.5.6 1.1 1.2 3.7 3.8 1.2 1.3.6.6.6.8.4.5.3.5.8 1.3.8 1.5.5 1 .4 1 .4 1.2.2 1.2.2 1 .1 2.3.1 2.7v1l.3 2.5.3 3.3.2 2.1v1.7l-.2 1-.6 3.4-.3 2-.2 1.3v1.1l.1 1.2.2.6.2.6.4.5.4.4.5.4.6.3.9.2 1.3.2h2l1.7-.2 2-.4 2.8-.6 1.2-.2 2.5-.4 1.3-.1h2.3l.4.2.2.2.2.2.2.3v.2l.1.4v1.2l-.6 2.4-.4 1.6-.4 1.2-1 2.3-.2.5-.2.5v1.5l.1.3.3.4.3.3.3.3.6.3.2.2.6.2h.3l1 .2h1.1l1-.2.5-.1 1.5 3.2 1 1.8.5.9.5.8.6.9.4.6.5.5.4.4.2.2.7.6.5.3.5.2 1 .5 2.6 1 .7.3.8.4.7.4.6.4.8.6.5.4 2.1 2.1.7.6.8.6.3.3.2.3v.9l-.2.2h-.1l-.4.2-.4.1h-1.3l-.7-.2-1-.3h-.7l-.2.1-.2.2-.1.2v.3l-.1.3v.3l.3 1.3v1.6l-.2.6-.1.3-.2.4-.2.2-.2.3-.3.2h-.2l-.3.1h-.4l-.2-.2-.2-.2h-.2l-.2.1-.3.1-.3.2-.6.3-1.7 1.2-1 .7-.5.3-.5.2-.6.3-.8.2-.7.1h-2.4l-.5-.2-.6-.2-.3-.2-.3-.2-.4-.3-.4-.4-.4-.6-.5-.6-.6-1.1-.4-.5-.2-.3-.3-.2-.2-.2-.3-.1-.3-.1h-.8l-1.9.1h-1.4l-.3-.2-.4-.2-1-.5h-.4l-.4-.2h-.5l-.2.1-.4.2-.3.2-1 .6-.4.2-.4.1-.5.1h-.6l-.4-.2-.3-.2-.3-.4-.6-.6-1-1.3-1.7-2.3-.6-.8-.4-.4-.4-.4-.5-.4-.4-.3-1-.6-3.8-1.8-3.7-2-.6-.3-1-.3-.4-.2-.9-.2-1.4-.3h-.5l-1.6-.2H290l-.7.1-1 .3-.8.3-.7.5-.7.7-.9 1-.8 1.2-.7 1.2-.7 1.3-2.4 4.6-1.2 2.4-.4.7-.6.8-.7.8-.5.5-.9.5-1 .5-.8.3-.8.2-1.6.5-3.2.8-1 .4-1.5.6-.8.3-.9.5-.4.2-.2.2h-.1v-.8l.4-2 .1-.5v-1.8l-.2-.5-.2-.4-.2-.4-.6-.7-.4-.3-.7-.7-2-1.7-.8-.7-.5-.5-.4-.6-.3-.3-.4-.7-.3-.4-.2-.5-.3-1-.1-.6-.4-2-.1-1-.4-1.1-.2-.6-.4-1-.6-1.2-.8-1.4-1.5-2.5-.6-1-.4-1-.3-.7-.2-.8v-.3l-.4-2-.1-.5-.4-.7-.6-.6-.3-.2-.7-.3-.5-.1-.6-.1h-2.7l-1 .2-.9.2-.8.3-.4.3-.5.4-.3.3-.3.3-.4.5-.4.7-.4.9-.2.6-.1.9v.8l-.1 1.4v.7l-.1.4-.2.4-.1.3-.3.5-.4.4-.6.5-1 .7-.9.5-.7.3-.5.2h-1.5l-.5-.1-.5-.2-.7-.5-1.4-1-1.1-.7-.8-.4-1-.4-.8-.3-.7-.2-2.4-.6-1-.2-.8-.3-.5-.2-.6-.3-1.2-.7-.9-.5-2-1.3-.5-.3-.9-.3-.8-.2-1-.1-1.9-.2h-.5l-1-.4-.6-.2-.9-.4-.9-.5-3.4-1.9-.8-.4-.7-.3-.7-.2h-.3l-.8-.1h-1l-.8.1-.8.2-.6.2-1 .3-.8.4-2.2 1-1 .5-.7.3-.8.3-1.2.3-1.3.3h-1l-1.9.1h-.4l-1.5.3-2.3.4-1 .2-4.1.4h-4.2l-1.1-.2-1-.2-1.1-.2-1-.3-1.4-.4-1.4-.4-1.3-.5-.7-.3-1.5-.7-2.6-1.2-1.4-.6-.9-.3-.5-.1-.9-.2h-3l-1.3.1-.8.1-2 .4-2.7.4-1.2.3-1.2.3-.8.2-1 .3-.7.2-.7.3-1 .5-2.5 1.3-.8.5-1.2.5-.9.3-.9.3-1.3.3-1.2.2H128l-1.4.2h-2.3l-1.3-.1-1-.2-.9-.1-1.2-.3-1.1-.4-1.1-.5-1-.5-2.3-1.2-.6-.3-.8-.1h-.6l-.7.2-.6.2-1.4 1-.9.4-.7.3-1.4.4-1 .3-1.5.3-1.2.2-1.4.2-2 .2-2.7.2h-1.2l-1 .3-1.4.3-1 .3-3.2 1.3-1 .4-1.2.4-1.5.4-.7.1-.8.1h-1.6l-.7-.2-.7-.4-.7-.6-.5-.7-.4-.8-.3-.5-.3-.7-.2-.8-.8-2.8-.2-.6-.4-.8-.4-.8-.7-1.2-.9-1.3-1-1.3-1-1.4-2.4-2.7-2.4-2.7-4.4-4.7.2-.1.4-.3.3-.5.4-.5.4-.7.3-.7.2-.7.2-.7.1-1.3v-1.4l-.2-2.9v-3.7l.1-1.6.6-7 .1-2.4v-2.2l-.1-1-.1-.8-.2-1-.3-1-.6-1.2-.6-1.2-.8-1.1-.8-1.1-3.4-4.3-1-1.3-.7-1-1.5-2.3-.5-1-.5-.9-.4-1-.3-.8-.2-1.2-.2-1v-1.4l-.2-3v-2.4l.1-3.5v-1.7l-.2-.8v-.8l-.2-.7-.2-.7-.3-1-.6-1.3-1.1-2.5-.7-1.4-.4-.8-.8-1.2-1-1.2-2.1-2.7-.8-1-.8-1.1-.7-1.2-.5-1.3-.1-.4-.3-1.3-.1-1v-.9l-.1-.8.2-4.5.1-1.2.1-.6.4-1 .2-.8.4-.8 1.3-2.7.3-.8.4-1 .4-1 .3-1 .4-1.7.2-1.2v-1.8l-.2-.5-.3-.6-.2-.4-.4-.4-.4-.3-.5-.3-.4-.1-.6-.2h-1.3l-.3.2-.2.2-.2.3-.4 1.1-.2.4-.3.3-.3.2H42l-.3-.1-1.6-.8-.6-.2-.9-.3-.6-.1-.8-.1h-1.5l-1.7.2h-1.3l-.5-.3-.3-.3-.1-.3-.1-.4-.1-.8-.1-.5-.2-.6-.3-.6-.3-.5-.4-.5-.3-.4-.4-.5-2.5-2.1-.7-.8-.8-1-.4-.6-.4-.6-.4-.9-.3-.7-.2-.6-.2-.6-.2-1.1v-2.5l.1-.4.3-1 .5-1 .4-.8.9-1.3 4.9-7 1-1.2 2.5-3.1.8-1.1.8-1.1.4-.7.3-.7.4-1 .3-1.2.2-1.3.1-2v-1.3l.1-1.7v-1.3l-.1-1.4-.1-1.2-.1-1.1-.3-2 .3-.2h.6l4.8-.4 1.6-.2 1.5-.2 1.6-.2 1-.2 1.7-.4 1.7-.4 1.6-.5 6.3-1.8 2.2-.7 3.8-1 3.2-.8 6-2 6.1-1.8 2-.7 3.9-1.6 1.6-.6.8-.2 1-.3 1-.2.8-.1.9-.1h.9l.9-.1h1.8l3 .4 4.3.3 2.2.2 3.3.4 7 .9 2 .2h.3"/></defs><g clip-path="url(#p2d0aff1a38)"><use xlink:href="#m4e6e4685e6" y="261" fill="#0c1321" stroke="#0c1321"/></g></g></g></g><defs><clipPath id="p2d0aff1a38"><path d="M7.2 7.2h357.1v246.6H7.2z"/></clipPath></defs></svg>