<svg xmlns="http://www.w3.org/2000/svg" xmlns:xlink="http://www.w3.org/1999/xlink" width="495.4" height="345.3" viewBox="0 0 371.5 258.9"><defs><style>*{stroke-linejoin:round;stroke-linecap:butt}</style></defs><g id="figure_1"><path id="patch_1" fill="none" d="M0 259h371.5V0H0z"/><g id="axes_1"><g id="PatchCollection_1"><defs><path id="m29c668aa7c" stroke="#0c1321" d="m314.8-212.5.3 2.2.2 1.2v1.4l.2 1.5v3.3l-.1 1.5-.2 2.2-.2 1.4-.3 1.3-.4 1.1-.4.7-.4.8-.9 1.2-1 1.2-2.7 3.5-1 1.3-5.4 7.7-1 1.4-.5.8-.5 1.1-.3 1.2-.1.4v.7l-.1.7v.6l.1.8.2 1.2.2.7.2.7.3.7.5 1 .4.6.5.8.9 1 .8.9 2.6 2.4.6.5.3.4.4.5.3.6.3.7.2.6.2.6v.9l.2.4.1.3.4.4.5.3h1.4l2-.2h2.5l.6.2 1 .3.6.3 1.8.8.3.1h.3l.4-.2.3-.3.2-.4.4-1.2.3-.4.2-.3.3-.1.3-.1h1.2l.7.2.4.2.5.3.5.4.4.4.3.4.3.7.1.5.1.9v1.2l-.2 1.3-.5 1.8-.3 1-.4 1.2-.4 1-.4 1-1.5 3-.4.9-.3.8-.3 1.1-.2.7v1.4l-.3 4.9v.9l.1 1 .1 1 .3 1.4.2.6.6 1.3.7 1.3.8 1.2 1 1.2 2.3 3 1 1.3 1 1.4.4.7.7 1.6 1.3 2.7.6 1.5.4 1 .2.8.1.8.2 1v.8l.1 1.8v9.8l.2 1.7.1 1 .3 1.3.3 1 .4 1 .6 1 .6 1.1 1.6 2.6.8 1.1 1 1.4 3.8 4.7.9 1.2.8 1.3.8 1.2.5 1.4.4 1 .2 1.2.2 1v6l-.7 7.7-.1 1.8v4.1l.2 3.2v1.5l-.1 1.4-.2.8-.3.8-.3.8-.4.7-.4.6-.4.5-.4.4h-.2l-.4-.2-.4-.8-.5-1.2-1-2.5-.3-.7-.4-.7-.5-.9-.5-.5-.6-.5-.7-.4-.9-.3-.8-.1-1-.1h-3.1l-3.4.1-7 .6-3.6.2h-6.8l-1 .1-.8.1-.7.2-.8.3-1 .4-.9.5-.6.4-.8.6-1 .9-.8 1-.7 1-.6 1-1 1.8-.1.4-.4.6-.6.6-.9.8-1 .6-.8.3-.8.3-.7.3-3 .8-1 .3-4.6 1.8-.8.3-1.4.6-.7.3-1.5.8-4.4 2.7-5 3-2.3 1.3-1.5.8-.4.2-.8.4-1.2.3-1.6.4-1.1.1H263l-1-.1-.8-.2-.6-.2-.6-.2-.8-.5-.7-.6-.6-.6-.4-.8-.5-.9-1.6-3.9-1.2-2.6-.6-1.2-.6-1.3-.7-1-.7-1.1-.8-1-.3-.2-1-.6-1-.6-1-.5-1-.4-1.2-.4-3.6-1.1-1.7-.7-1-.5-4-1.8-1.5-.7-1.5-.6-1.2-.3-.9-.2h-1l-1-.1h-1.5l-.8.1-.7.1-.7.2-1 .3-1.9.8-.7.2-.7.2h-1.4l-.9-.2-1.3-.4-5.7-2.2-1-.3-1-.2-2.2-.3h-.5l-.6-.2-.8-.3-.7-.3-.6-.3-4.7-2.7-1.7-1-1.3-.6-1.4-.4-.3-.1-.2-.2-.2-.2-.2-.3-.2-.6-.2-.8-.1-.8v-1.1l-.1-1.6v-1.1l.3-2.2v-2l-.3-.8-.3-.6-.5-.4-.7-.4-.9-.3-.9-.2h-.9l-.9.1-.6.1-.6.2-.8.3-.8.4-1 .6-1.4 1-1 .5-1 .6-.7.3-1.2.3-.8.2-1 .2h-3.1l-1.5-.1-4-.6-1.6-.2H164l-1.1.3-.9.4-.3.2-.5.5-.5.7-.6 1.1-.5 1.4-.3.8-.3 1.1-.9 3v.3h-.2l-.4-.3-1.5-1-1-.7-.6-.5-.5-.6-.5-.7-.5-.6-.4-.7-1.3-2.4-.4-.4-.4-.6-.5-.6-.6-.6-.6-.4-1.2-.6-1.3-.4-1.4-.3-2.8-.5-1.3-.3-1.3-.4-1.2-.5-1.3-.5-2-1.1-2-1-.7-.4-1.8-1.2-.6-.4-.8-.3-.4-.2-.7-.2-.6-.2h-2.9l-.6.3-.7.3-.7.5-.8.5-.7.6-.6.6-1.4 1.3-1.3 1.4-.9 1-1.7 2.5-.6.8-.7.8-.7.7-.8.7-.7.7-2.5 2-1.6 1.4-1.2 1.1-.7.7-1.5 1.6-2.4 2.6-1.5 1.7-1 1.3-.6.6-.5.7-.4.8-.5.8-.8 1.7-1-.3-1.3-.6-1.8-.8-2.2-1.2-1.3-.7-1.9-1-1.3-.9-1.2-.7-3.9-2.8-1-.6-1-.6-1-.5-1.2-.6-1.4-.5-1.7-.7-3-1-1.4-.6-1.3-.5-1-.5-.5-.3-1.2-.8-2-1.6-.8-.5-.8-.5-.6-.3-1.4-.6-1-.4-1-.3-2-.6-.8-.2-1-.5-.7-.4-.6-.4-.8-.8-.7-.8-1.6-2-1-1-.5-.5-.8-.5-.8-.5L42-70l-2.4-1.3-1.6-1-.7-.6-.5-.3-1-.8-.5-.6-.5-.5-.9-1-.7-1.2-1.5-2.7-.4-.6-.4-.5-.7-.8-.5-.5-.5-.5-.6-.4-.7-.4-.7-.3-1.7-.5-.5-.2-.4-.1-.6-.5-.4-.4-.2-.6v-3.2l.4-2.5.1-2.5.1-.7.1-.7.3-.8.3-.8.5-.9.4-.7.5-.8.6-.8.8-1 1-1 1.3-1.3 2.4-2.2 2.9-3 .6-.5.6-.5.6-.4.7-.4 2.6-1.3 1.4-.6 1-.4 3-1.2 1.1-.5 1-.7.9-.6.7-.7.5-.6.3-.4v-.8l.3-.6.4-.6.5-.4.5-.2H53l1.6.4h.8l.7.2h.8l1-.2.8-.2 1.7-.5.7-.4.6-.6.4-.6v-.9l-.1-1.8v-.8l.3-.7.5-.5 2-1.2.7-.4.8-.3.8-.3.8-.2 1.8-.5.8-.2.7-.4.7-.5.5-.7 1.1-2.1.5-.8.6-.8.6-.6.8-.5.7-.3.8-.1h.8l1.5.1h1.6l2-.3H86l.3.2.4.2.4.2.3.2h.5l.3-.1.5-.3.5-.3 2-1.4.6-.4.8-.4 1.3-.4 1.5-.3h2.9l1.5.1 1.4.3 1.3.4 1 .4 2.4 1 1 .5 1.5.8.8.4.9.2h1.3l.6-.2.7-.4.6-.5.5-.6 1-1.7 1.4-2.3.4-.7.3-.8.3-.5.2-1 .6-2.5.2-.7.2-.4.2-.3.5-.6 2.2-1.9 2-1.9.8-1 .3-.4.4-.8.3-.8.4-1 .3-1 .3-1.2.1-.9.1-1 .1-2.7.2-1.3.1-1.1.2-.9.2-.3h.1l.7.1 1 .3 3.7 1.3 1.3.4 1.3.2h3.9l6.3.2h1.6l1.6-.3 1-.3 1.1-.3 1-.5 1-.5 1-.6 2.1-1.4 1.3-1 1.2-.9.9-.8.8-.8.7-.9.8-1 .5-.7.8-1.3.4-.7.7-1.7.6-1.1 1.9-3.7 1-2 .6-1.4.6-1.4.4-1.3.3-1.2.1-1v-1.7l-.1-.8-.8-3.6-.2-.8v-3.4l.2-.4.2-.3.3-.3.8-.3h1.1l.7.2 1 .3 4.7 1.6 4 1.4 4.5 1.5 1.6.5.7.4 2 .9.6.1.5.2h.7l1.2-.1 1.2-.2 1.2-.3 1-.4 2.8-1.3 1.8-.7 3.4-1.4 1-.3h2.1l.4.2 2.3 1 1 .3 1.4.3 1.1.2.6.1 1.1.1 3.8.2h1l1.5.2.6.1 1.3.3 1 .2 1.4.4 2.2.8 4 1.4.7.3.9.2h.4l1 .2h1l1-.3.7-.2.6-.3.6-.4.6-.4 2-1.9 1-.7 1.7-1.4.8-.6.7-.8.5-.7.4-.5.4-.8.4-.8.3-1.1.2-1.2.1-2.3.2-1.2.3-1 .3-.8.4-1 .5-.8.6-1 .6-.9 1.8-2.8.8-1.2.6-1 .5-1 .5-1 .4-1.1.3-1 .4-1.5 1-3.8.3-1 .6-2.2.6-1.7.5-1.2.4-.8.5-1 .4-.2.2.2h1.4l.8-.1 1-.2 3.9-1 1.1-.2 1.5-.2h1.7l2.6-.1 1.4-.1 5-.4 5.1-.4h6l.8.1 1.3.2 1 .3.9.3.8.4 1 .7.5.7.7 1 .5.8.3.5.2.7.2.7.3 1v.9l.2 3v.6l.2.5.1.5.1.4.4.7.6.6.8.7 1 .6 3.8 1.7.9.5.9.5 1 .8 1 .8.8.8.7.8.6.9.4.9.3.7.2.9.2 1.1v.8l-.2.7-.2.3"/></defs><g clip-path="url(#pc6cc4f2908)"><use xlink:href="#m29c668aa7c" y="259" fill="#0c1321" stroke="#0c1321"/></g></g></g></g><defs><clipPath id="pc6cc4f2908"><path d="M7.2 7.2h357.1v244.6H7.2z"/></clipPath></defs></svg>