<svg xmlns="http://www.w3.org/2000/svg" xmlns:xlink="http://www.w3.org/1999/xlink" width="451.3" height="374" viewBox="0 0 338.5 280.5"><defs><style>*{stroke-linejoin:round;stroke-linecap:butt}</style></defs><g id="figure_1"><path id="patch_1" fill="none" d="M0 280.5h338.5V0H0z"/><g id="axes_1"><g id="PatchCollection_1"><defs><path id="mbae2aab20f" stroke="#0c1321" d="m183-260.7 4.2 6.3.8 1.3 1 1.4 1 1.2 1.2 1.6.8 1 .6.7.4.5.4.3.6.5.6.4.3.2.4.1.8.3 1 .3 1.3.2 2.9.4 1.2.2 2.6.5.9.2h1.6l.5-.2h.4l1-.4.6-.2h.4l.4-.1h1.2l.6.3 1.5.6.6.2 2 .6.7.3.5.3.3.2 1.4.9 1.6.8.5.3.4.3.4.5.8.9.3.4.2.2.2.2.3.1.6.2.7.1h.7l.7.1.8.2.7.2.6.4.4.4.3.5v.5l-.1.4-.2.4-.3.7-1.3 2.2-.3.7-.3.7-.1.3-.1.4v.3l-.1.5v4l.2 1.9.1 1.4.1.8.2.8.2 1 .2.7.4.8.2.4.2.3.3.4.4.4 1 1 .4.5.7.8.8 1 1.4 1.7 3.1 4.3.5.5.4.6.6.6.3.3.2.2.3.1.4.2.3.1h1l.5-.3.5-.2.7-.5.5-.3 3.3-2.5 1.2-.8.5-.3.6-.4 1-.4 1.2-.5 2.8-1.1 1.1-.4.8-.4 1-.5 1.5-.9 1.3-.8 5-3.2 2-1.3 1-.8 1-.7.5-.4.5-.5.8-.8.9-.8.9-1 2.2-2.6.7-.7.5-.6.3-.2h.2v-.1l.2-.2.5-.2.7-.3.7-.3h.4l.5-.2h2.7l1.1.3.9.3.4.2.4.2.9.5.7.5.6.6.5.6.3.7.2.5.2 1 .2.7.1.3.2.3.3.3.3.2.3.2h.2l.4.2.5.2.6.2h.6l.4.1h1l.4-.2h.4l.5-.2.6-.3.6-.3.3-.2 1-.5.7-.6.7-.5.5-.4.6-.6 1.3-1.5.3-.3.2-.1.3-.2.5-.2h1.3l.5.1.7.3.8.5.6.4.7.5.6.6.7.6.4.4.6.8.7.9.6 1 .3.5.3.5v.1l.1.2.3.4.4.4.5.5.8.8.4.5.5.5.7.9.3.5.3.4.3.7.2.5.1.7v4.4l.2.5.6 1.3.1.4v.7l-.1.6-.2.5-.2.8-.3.7-.2.5-.3.7-.2.3-.4.5-.5.5-.4.5-.4.3-.7.5-.5.4-.5.5-.6.6-.7.8-2 2.7-.5.5-.4.5-2 2.1-.7.8-.3.5-.4.5-.3.5-.2.4-.2.4-.1.4-.1.4v1.7l.3.8.4 1 .4 1 .5 1 .3.6.2.2.4.5.4.6.4.3.4.3.5.4.8.5.8.4 1.4.7.5.3.3.2.4.3.4.4.3.3.3.4.1.3.2.5v1.5l-.2 1-.3.9v.4l-.2.3-.3.5-.1.1-.3.3-.4.3-.3.3-1.3.8-.7.6-.5.3-.4.4-.5.5-.4.4-.6.8-.3.3-.4.3-1 .7-1.1.9-1.2.8-1.5 1.2-.4.3-.4.3-1 1-.2.2-.3.2-.5.4-.7.4-.7.5-.6.2-.7.4-.7.3-1.2.4-1 .4-.9.2-2.5.7-2.4.8-1.9.6-.8.3-.9.3-.8.3-.5.3-.5.3-.5.2-.7.4-.4.3-.6.4-.5.5-1 .8-.5.5-.6.7-.6.7-.6.8-.3.4-.2.5-.2.4-.2.6-.1.4-.1.5v.5l-.2.8v1.5l.2.7.1.6.3.7.3.7.4.5.2.4.8 1 .6.7.3.4.4.3.3.1.2.1h.4l.4-.2.4-.3.4-.4 1.4-1.5.6-.6.7-.7.5-.6.4-.7.3-.5.9-1.8.8-1.4.4-.7.3-.5.2-.3.4-.5.3-.3.4-.4.4-.3.4-.3.3-.2.6-.3.5-.2.5-.2h.5l.5-.1h1.7l1 .2 1 .2 1 .3 3.4 1 1 .3 1.2.3.9.2h.6l.5.1h.6l.5-.1.6-.3.4-.2.2-.1.3-.3.4-.4.2-.2.2-.3v-.2h.2l.2.3.2.2.3.6.3.7.7 1.7 1 2.3.3.8.2.8.2.8v3.5l.2.8v1l.3 1.3.5 2.8.2.8v1.3l-.1.3-.1.2-.1.2-.2.3-.4.5-.2.3v.8l.1.3.2.2.3.4.8.6.3.3.1.3.3.3.3.6.2.4.3.7.2.6.1.8.2.8v1.1l.1.7v.6l-.1.6-.2.7-.1.5-.2.5-.3.5-.2.4-.4.4-.5.6-.5.5-.5.4-.5.3-.3.2-1.5.8-.5.3-.4.3-.8.7-1.2 1-1 .9-.8.8-.5.5-.7.6-1.1 1-.9.6-.7.5-.2.1-.3.1h-.8l-.6.1-1.3.4-.6.1-2 .3-.7.1-.6.2-.7.3-.7.4-.5.2-2.6 1.5-.5.3-.4.4-.3.3-1.4 1.4-1.1 1.3-.6.8-.8 1.2-.4.6-.8 1-.7.8-.7.6-1.2 1-1.4 1.1-1 1-.5.2-.9.6-.4.4-.6.6-1.3 1.4-.5.6-.7 1-.6.7-.2.1v.2l-.1.2-.2.4-.3.6-.8 1.2-.5.8-.8 1-.5.7-.5.6-.5.5-.7.8-1 .8-.7.6-1.9 1.5-1 .8-1 .8-2.3 2-1.6 1.4-1.2 1-1 .7-.8.6-.8.5-.8.4-1.1.5-2.8 1.2-2.7 1.3-3.1 1.5-1.2.5-.5.2-.7.2H239l-.4-.1-.5-.2-.4-.3-.3-.3-.7-.6-.5-.5-.5-.6-.8-.8-2-2.5-.6-.7-.3-.3-.3-.3-.2-.2h-.2l-.2-.2H230l-.3.2-.4.3-.5.3-.7.6-1.4 1.4-1 .7-.5.5-.5.4-.5.4-.8.5-.7.4-1 .5-1 .5-1.3.5-1.2.4-.8.2-.8.2-1.7.4-3.3.8-.7.1h-.6l-.3.1h-.2l-.3.1-.1.3v.4l.2.4.2.5.4.5 1.2 1.4.6.7.5.7.4.8.4.6.3.6.3.6.2.7.1.5v.4l.1.6v.5l-.2.7-.3.6-.4.6-.7 1-.4.5-.6.5-.7.5-.8.4-.8.4-1 .4-1.8.7-2.9 1-2 .7-.9.3-1 .3-.8.2-1 .2-.9.1h-.8l-.8-.1-.7-.3-.5-.3-.6-.4-.3-.3-1.5-1.3-.6-.4-.5-.4-.4-.2h-1.5l-.4.2-.6.2-.5.3-.6.3-1.4 1-1.2.7-.5.2h-.1l-.1-.1-.3-.7-.3-1-1-3.2-.4-1.4-.3-1-.4-.9-.4-.7-.4-.7-.5-.6-.2-.1-.3-.2-.5-.4-.3-.1-.4-.2-.5-.2-2.8-.8h-.2l-.8-.2-.5-.1h-.6l-1-.1h-1.7l-5 .2-2.7.1h-2.4l-.8-.2h-.4l-.6-.2-.5-.1-.4-.2-.7-.2-1.4-.8-.6-.2-.4-.2-.6-.2-.5-.2H151l-.4.2-.4.2-.6.4-.7.5-.6.5-.7.7-1.6 1.5-1.4 1.4-1.3 1.2-1 .8-1.4 1-.5.4-1.3 1.1-.8.7-.4.5-.4.5-.1.2-.3.7-.2.7-.2.7-.2 1.3-.2.6-.1.5-.2.6-.2.6-.4.6-.5.7-.4.5-.6.8-.6.6-1.3 1.4-.7.6-.7.7-1 .9-.8.6-.6.4-.5.3-.8.5-.6.4-.5.3-.8.3-.8.4-.5.2-.5.1-.5.2h-.6l-.7.2-1.2.1-2.2.2-2 .1-2 .1-5 .3-3 .1-2 .2h-1l-1 .2-1.1.2-1 .3-1.7.5-1.1.4-.4.2-.6.3-.2.2-.1.1-.1.2-.2.3h-.1l-.2.2h-.5l-.1-.1-.3-.2-.2-.1-.4-.3-.7-.6-.3-.3-3-2.3-.9-.6-.3-.2-.5-.2-.3-.2h-.6v.1H87l-.2-.1-.2-.2-.3-.3-.4-.4-.5-.6-.3-.4-.4-.4-.6-1.2-1.6-2.8-1.5-2.8-.3-.5-.3-.6-.4-.4-.3-.4-.3-.4-.5-.5-.4-.3-.3-.2-.6-.3-1-.5-.4-.2-.7-.4-.8-.6-1.3-1-.6-.5-.5-.2-.3-.1-.5-.2h-.6l-.5-.1h-1.8l-.8.3-.8.2-2.4.9-.8.2-.7.2-.8.1h-.7l-.7-.2-.7-.3-.6-.4-1.4-1-1.6-1-.7-.7-.5-.4-.5-.6-.6-.6-.5-.6-1.8-2.3-.3-.5-.3-.3-.9-1-.5-.5-.4-.5-.3-.7-.3-.7v-.4l-.1-.3v-1.9l.1-.6.1-.5.1-.6.2-.7.3-.8 1-3.2.5-1.6.3-1.5.2-1 .1-.6v-.3l.2-.2.4-.4.4-.5.4-.4.1-.2.3-.5.4-.8.4-.7v-.4l.2-.5.1-.6v-1l-.2-.9-.3-.9-.3-1-.5-.8-.5-1-.5-.8-.5-1-1.1-1.7-1.7-2.6-9.4-14.6-3.2-5.2-1.6-2.6-3-5-1-1.5-.7-1.2-1.8-2.5-.5-.8-1.5-2.3-.8-1.1-1-1.3-.7-.9-1-1.3-1-1.1.2-.2 1.1-1 5-4.3 2.7-2.3 1.6-1.5 1.4-1.4.7-.7.6-.7.5-.6.3-.6.2-.4v-.4l-.2-.3-.2-.3-.3-.1-.7-.3-1.1-.5-.4-.2-.3-.3-.3-.2-.4-.4-.3-.5-.2-.6-.1-.6v-1.1l.2-.2.2-.6.6-1.2.6-1.1.3-.6.3-.6.4-.6 1.4-1.4.4-.6.4-.7.3-.7.2-.8v-2l-.3-3.1v-1l-.1-1.1v-2.6l.5-.2h.3l.2-.2.3-.1.2-.2.1-.2.2-.2v-1.3l-.1-1.4v-1.3l.2-.2.1-.2.2-.2.1-.2.4-.3h.2l.3-.2.4-.2 1-.3.6-.1.8-.4.6-.2.6-.3.7-.4.5-.4-.2-.1v-.6l.3-.3.4-.5 1-.8.3-.4.3-.4.2-.4v-.8l-.2-.4-.2-.3-.3-.3-.6-.5-.3-.2-.5-.3-.7-.2-1.4-.4-.8-.2-.6-.3-.6-.5-.5-.4-.5-.5-.4-.5-.4-.5-.2-.5-.2-.4-.2-.4-.2-.7v-1.3l.3-.6.4-.6.5-.5.5-.4.8-.5 3.8-2.4.7-.5 1.3-.8 1.6-1.3 1-.7 1.6-1.3 1-.9 1.1-.7.5-.3.7-.4.6-.3.5-.2.6-.2H57l.6.3.6.4.3.2.6.6.8.7.5.6 1.8 2.3.9.9.5.5.5.5.3.3.3.3.5.3 1 .6.5.3 1.2 1 .4.4.5.4.8 1 .2.2.3.2.5.1h.9l.4-.2 1.4-.8.3-.2.4-.2 1.2-.4.9-.4.7-.4 1.7-1 1.2-.6.3-.1.6-.5 1.3-1.1.8-.6 1-.8 1.1-.7 3.5-2.2 1-.7.5-.4.5-.5.4-.4.4-.4.8-1 .3-.6.3-.5.1-.5v-.6l-.1-.3-.3-.5-.2-.4-.3-.4-.9-1.1-.3-.5-.4-.7-.4-.7-.1-.4-.2-.4v-1.4l.3-.4.3-.5.3-.5.4-.4.3-.3h.2l.2-.2.4-.4.6-.5.7-.6 1.5-1 1.4-1 3.1-2.2 2-1.3.7-.5.6-.3.5-.2.7-.2.3-.1h.4l.3-.1h.4l.3.1.4.2.2.2 1.3 1 .5.2.5.1h1.5l.7-.3.5-.3.6-.3 1.2-.6.6-.4.2-.1.4-.4.2-.3.3-.4.1-.5.2-1 .2-.4.1-.3.2-.2v-.1l.4-.2.4-.3.5-.4.4-.4.5-.5 1.5-2.2.4-.7.6-1 .2-.4.2-.5v-.6l-.2-.3-.2-.5-.3-.4-.8-.8-.4-.5-.3-.4-.1-.4-.2-.3v-.4l-.2-.9-.3-1.6v-1.5l.2-.3v-.4l.2-.3.4-.5.3-.4 1-1.1.4-.4.5-.6.2-.4.7-1.3.2-.3.2-.4.3-.4.4-.3.8-.8 1-.8 1.1-.8.2-.2.5-.3.6-.4.5-.3.5-.2.6-.3.6-.2.7-.2.9-.2h1l1 .1.6.2.6.2.5.1.6.3.5.2.4.2.8.5 2.2 1.5.7.5 1 .6.7.4.3.2.3.1.5.2 1 .3.7.2 1 .1h1l.5-.1.4-.2.7-.3.5-.3 1.4-.8.6-.4 1-.5.5-.3.5-.2.5-.2h.5l.4-.1h.7l.4.1.4.2.4.3.4.4.3.4.3.4.1.4.3.8.1.3.2.4.2.3.3.3.5.2 1 .4.5.1h1.5l.4-.1h1l.7.3 1.5.5.6.2h.5l.5.1h1l.4-.1.5-.3.4-.4.2-.4v-.3l.2-.4.1-1.2.1-.8.4-1.4.2-.8v-1.4l-.2-.7-.7-2.2-.2-.7-.3-.8v-.5l-.1-.4v-1.7l.2-.2.1-.3.2-.2.3-.3.4-.3.3-.1.3-.1.4-.2h1.3l.4.2 1.4.4h.5l.5.2h1.5l.5-.2.5-.2.5-.2.5-.3.5-.4.8-.8.8-.8 2.3-2.6.3-.3.1-.1.4.5"/></defs><g clip-path="url(#p7b75550f73)"><use xlink:href="#mbae2aab20f" y="280.5" fill="#0c1321" stroke="#0c1321"/></g></g></g></g><defs><clipPath id="p7b75550f73"><path d="M7.2 7.2h324.1v266.1H7.2z"/></clipPath></defs></svg>