<svg xmlns="http://www.w3.org/2000/svg" xmlns:xlink="http://www.w3.org/1999/xlink" width="302.5" height="374" viewBox="0 0 226.9 280.5"><defs><style>*{stroke-linejoin:round;stroke-linecap:butt}</style></defs><g id="figure_1"><path id="patch_1" fill="none" d="M0 280.5h226.9V0H0z"/><g id="axes_1"><g id="PatchCollection_1"><defs><path id="mcb8ed6b5fc" stroke="#0c1321" d="M99.2-254.8h.9l.3-.1.2-.1.3-.1 1-.5.5-.2.5-.2.5-.2.6-.1.7-.2 1.2-.2 2.6-.5 4-.8 1.6-.2 1.2-.2h2.2l.5.2.2.3.1.1.2.4v1.5l-.2.6-.1.5-.3.8-.3.7-.3.6-.1.3-.3.5-.3.3-.5.4-.5.5-.7.4-1 .6-.6.5-.3.2-.4.4-.5.4-.7.7-1.3 1.4-.6.7-1.3 1.2-1.1 1.2-.3.3-1 1-.5.4-.3.3-.2.3-.3.4-.3.4-.2.4-.9 1.5-.3.5-.7 1-.1.3-.1.3-.1.4v.4l-.1.2v.5l.1.4.1.4.1.3.2.2.1.2.2.2.3.2.2.1h1l.2-.1.2-.1.2-.2.2-.2.3-.3.6-.7.4-.6.4-.4.5-.4.4-.4.6-.4.6-.4.5-.3.7-.3 1.6-.6.7-.3 4.1-1.8 2-.8.6-.3.6-.2.6-.2.6-.1 1-.2h.5l.7-.1h1v.2h.2l.2.3.6.6.6.6.7.6.6.4.5.4.6.4.8.6.5.3.5.5.5.4.4.4.3.4.1.3.4.6.5 1 .2.4.3.5.8 1.2.4.6.8 1 .2.1h.1l.3.2.6.2.4.3.4.2.2.2.2.2.2.2.1.2.2.2.1.3.1.4.2.7v1.9l-.2 1.2v.8l.1.4v.2l.2.3.2.3.1.3.3.3.3.2.8.9.4.4.5.5 1.5 1.8.4.5.7.8.5.5 1 1 1.8 1.7.3.3.1.2.2.4.1.3.1.3v2l-.2.2v.3l-.2.3-.2.4-.7 1.1-.4.5-.2.5-.2.3v.3l-.2.5v.5l-.1.6v2.7l.1.4v.3l.2.3v.2l.3.5.1.2.3.4.2.2.2.3.3.2.2.2.5.3.4.3.9.4 1 .4.4.2.7.3.8.2.5.2h.5l.4.1h3.7l.7-.2.5-.1.5-.2.6-.2 1.8-.8.7-.4.5-.2 1.2-.4.5-.1.7-.3.6-.4.4-.2.3-.2.3-.1.3-.3.3-.4 1-1.2.4-.3.2-.2.4-.3.2-.2h.2l.1-.2h.3l.3-.1h.8l.2.1.2.1 1 .6h.3l.6.3h.7l1.4.3h.4l.6.2.5.2.4.3.4.2.5.4.4.3.4.4.2.4.2.2v.3l.1.6.1.7.2 1v.4l.2.7.2.7.2.5.2.6.3.5.2.4.2.3.4.5.3.3.4.4.3.4.4.3.8.7.8.6 1.5 1.2 1.4 1 .5.4.4.2 1.7.9.7.4.9.5 2.3 1.5.8.5.5.3.5.2.5.2.5.2.5.1h.9l.3.1h.9l.3-.1h.2l.2.3.1.2.1.2.1.2v.2l.2.5v3.1l.1.8.1 1 .4 2.3.1.7v.8l.1 1v1.2l-.1.4v.5l-.2.3-.1.6-.1.3-.6 1.6-.2.5-.2.6v.5l-.2.7v.5l-.2 1v2l.2.6v.5l.2.4.2.6.2.5.4.8.2.4.2.3.4.6.3.4.5.8.5.6.4.5.5.4 1.4 1.4.5.5.4.4.8 1 .2.2.2.2.3.3.5.3.2.2 1.8 1 .3.2.2.2.2.1v.2l.1.1v.3l-.1.3-.3.2-.2.3-.3.1-.3.2-.3.1-.3.1-.3.1h-.4l-.5.2h-.7l-1.2.1h-2.4l-2.2.2h-.7l-.6.1-.6.2-.8.2-.7.2-.8.3-.7.3-.6.3-.4.3-.3.2-.9.6-.7.6-.5.3-.8.9-.5.4-.4.3-.4.3-.3.2-.3.1-.6.3-.3.2h-.4l-.6.3-1.6.3-.8.2-.6.2-.5.2-.4.3-.3.2-.4.4-.3.4-.5.7-.8 1-.5.8-.3.5-.2.3-.3.6-.2.4v.3l-.2.6-.5 2-.2.6-.2.4-.1.3-.2.4-.3.4-.2.2-.3.4-.5.4-.3.3-.3.2-.4.2-.3.2-.3.2-.5.2-.5.1-.3.1-.7.1h-2.1l-.6.1-.4.1-.7.1-.3.1-.3.2h-.2v.2l-.3.2-.2.4-.4.7-.3.6-.2.5-.1.4-.1.3v.5l-.1.3v.2l.1.4.2.3.2.3.2.2.2.3.7.7.2.2.6.8.2.2.3.2.2.2.4.2.4.1.5.2.6.2.6.2 2 .5h.3l.4.2h.3l.2.2.3.2v.1l.1.1.1.2v.4l-.2.3-.2.4-.3.5-.3.3-.3.3-.5.5-.5.5-.5.4-.5.3-.5.4-.9.5-1.3.7-.8.5-.6.4-.2.1-.7.7-.7.6-.4.4-.8.6-3 2.1-.3.2-.5.2-.5.2h-.1l-.4.1h-5.1l-.7.1-.3.1h-.3l-.3.3-.3.2v.6l.2.4h.1l.7.8.3.5.1.5.2.4v2l-.2.5-.3.6-.3.5-.3.4-.4.5-.4.4-.6.5-.4.3-1.5 1.2-.7.5-1.2 1-.5.4-.5.4-.4.3-.5.2-.5.2-.4.2h-.3l-.5.2-.6.1-1.7.3-1 .3-.7.2-.5.2-.4.2-.3.2-.4.2-.4.2-.4.3-.5.4-1 .8-.2.2-.5.3-1 .6-.4.3-.4.3-.3.3-.4.5-.3.6-.3.6-.5 1.4-.4 1-.3.6-.2.5-.4.6-.4.5-.3.5-.4.5-.5.5-.3.3-.3.2h-.3l.1.4.3.4.3.6.2.5.1.4.2.5.1.6.1.4v1.3l-.1 3v2.4l.1.5v.5l.2.8v.4l.2.4.1.4.1.4.2.4.2.4.2.4.3.4.2.3.7.9.2.2.2.4v.8l-.1.3-.2.4-.1.1-.2.3-.2.1-.1.2-.2.1-.3.2h-.3l-1.6.5-.4.2-.5.2-.3.1-.4.2-.2.2-.1.1v.1l-.3.3v2.3l-.2.4-.1.3-.4.4-.4.4-1.4 1.2-.7.6-.3.3-.3.4-.2.3-.2.3-.3.5-.1.3-.2.3v.4l-.1.4-.1.4v.4l-.1 2-.1.9v.4l-.2.8-.1.6-.3 1.1v.5l-.1.1v.5l-.3.4-.2.4-.2.2-.1.2-.3.2-.4.2-.5.2-.5.1h-1.2l-.4-.1-.5-.1-.5-.3-1.4-.7-.3-.1-.2-.1h-.3l-.4-.1h-.3l-.4.1h-.2l-.3.2-.4.1-.3.1-.6.4-.2.1-.4.3-.3.2-.3.3-.4.4-.3.4-.3.6-.2.4-.6 1.7-.4.7-.1.4-.3.4-.2.3-.2.3-.2.2-.3.2-.3.2h-2.3l-.5.2-.5.2-.6.4-.5.3-.5.4-.5.4-.5.4-.8.9-.4.3-.4.2-.2.2h-.3l-.6.1H98l-1.6-.1h-1.7l-.6.1-.6.2-1.7.4-2.7.8-.6.1-.7.2H87l-.4.1h-.9l-.5-.1-.5-.1-.5-.2-.5-.1-.2-.1-.5-.3-1.3-.7-.5-.2-.4-.2h-.6l-2.2-.4-1-.1-1-.2-.5-.1-.4-.2-.5-.2-.3-.2-.4-.2-.7-.5-1.7-1.1-.3-.2-.6-.4-.4-.1-.4-.2-.5-.2h-.5l-.6-.1h-1.5l-.2.1-.3.1-.2.2-.2.1-.3.4-.2.2-.4 1-.2.2-.2.4-.3.2-.2.1-.4.2-.5.1-.4.1h-.3l-.5.1h-1.5l-.5-.2-.5-.2-.4-.2-.6-.3-.2-.1-.8-.5-1-.7-.3-.3-.3-.2-.1-.1-.2-.2-.1-.2v-.8l.3-.4.2-.4.9-1 .3-.4.2-.4.3-.5.4-.7.7-1.5.1-.4.2-.4.8-1.5.3-.6.3-.8.5-1.2.2-.8.2-.5v-.3l.3-1.5.2-1 .4-1.8.2-.6.1-.3.3-.5.3-.4.2-.4.5-.5.3-.3.4-.4.5-.3 1.2-1 .4-.3.3-.3.2-.3.3-.3v-.3l.1-.3v-1.1l-.2-.3-.1-.2-.2-.3-.2-.3-1.2-1.2-.3-.5-.3-.3-.2-.3-.1-.4-.2-.3v-.3l-.2-.6-.2-.9-.2-1.6-.3-1.6-.2-1.4-.2-1V-63h.3v-.1l.1-.2V-65l-.1-.5-.1-.5v-.5l-.2-.6-.1-.3-.1-.4-.2-.4-.3-.5-.4-.4-.3-.2-.3-.2-.3-.1-.4-.1-.4-.1-1.2-.3-.6-.1-.4-.1-.2-.1-.2-.1-.2-.2-.3-.3v-.2l-.2-.2-.1-.3-.2-.7-.1-.5-.3-1.2-.2-.7-.1-.4-.3-.5-1-2.1-.3-.8-.2-.5-.1-.4-.2-.6-.1-.5-.1-.6v-.5l-.1-.6v-.8l-.2-2v-.6l-.2-1.2v-.6L53-89l-.2-1.1-.3-1.3-.2-.5-.2-.7v-.3h.4l.8.4.5.3.5.2.5.2h.7l.4.1h.5l.6-.2h.4l.3-.2.4-.3.5-.4.4-.5.2-.4.1-.3v-.3l.2-.4.1-1.6v-.5l.2-.4.1-.7.2-.7.2-.4.1-.4.3-.7.2-.4.2-.4.2-.5.3-.5.3-.5.3-.5.3-.3.5-.5.7-.7.3-.3.1-.2.2-.3v-.4l.1-.4v-2l.2-.6v-.4l.1-.4.2-.5.2-.7.4-1 .4-.9.3-.5.6-1 1.2-2 .7-1.1.2-.4.4-.5.2-.3.5-.5.4-.4.4-.2 1.2-.9.3-.3.2-.2.3-.3.3-.4.1-.2.2-.4v-.1l.1-.3v-.8l-.2-.4-.3-.3-.2-.2-.2-.2h-.2l-.4-.3h-.3l-.3-.2-1.3-.3h-.3l-.2-.2-.3-.1-.1-.2-.1-.1v-.9l.2-.3.1-.3.2-.1.1-.2.3-.2.4-.2.5-.3 1.3-.4.2-.1.5-.2.3-.2.4-.2.1-.2.3-.2.1-.2.2-.3.2-.2.1-.5.1-.2v-1.1l-.2-.6-.3-.6-.4-.6-.4-.7-1.3-2-.4-.6-.4-.7-.3-.7-.2-.6-.1-.6-.4-1.8-.2-.6-.2-.6-.2-.5-.1-.3-.3-.4-.4-.6-.3-.3-.4-.3-.4-.3-.2-.2-.2-.1-.1-.1-.7-.6-.9-.6-.6-.4-1.4-.9-2.8-1.7-1.1-.7-.4-.2-.6-.5-.7-.6-.2-.2-.3-.3-.3-.3-.2-.3-.4-.5-.2-.4-.3-.5-.5-1-.4-.9-.2-.5-.4-1.1-.8-2.3-.4-1.1-.6-1.6-.4-.8-.3-.7-.3-.6-.3-.5-.3-.4-.2-.3-.4-.4-.2-.2-.3-.3-.3-.2-.3-.2-.5-.3-.4-.2-.4-.1-.4-.2-.6-.2H47l-.5-.2H45l-1 .1-1.8.2h-1.7l-.4-.1-.3-.1-.3-.1-1.2-.5-.4-.1-2-.6-.4-.2-1-.4-2.1-1-.5-.1-.6-.2-.7-.2-.6-.2-.6-.1-1.8-.4-.9-.2-.4-.1-.5-.2-.8-.3-1-.4-.9-.4-2.4-1-.8-.5-1.4-.5-.4-.2-.2-.1-.2-.1-.1-.2-.2-.1v-.2l-.2-.2v-.7l-.1-1.6-.2-2v-3.3l.1-.5.1-.6v-.4l.2-.5.4-1 .2-.7.9-2.5.1-.5.1-.5.1-.6v-3.9l.2-.3.2-.3v-.1l.2-.2.3-.2.3-.2h.4l.4-.2h.4l1-.2.7-.1.7-.2.5-.1.3-.2.3-.1.4-.2.5-.4.4-.3.4-.3.3-.3.6-.7.3-.4 1-1.1.8-1.1.5-.6.4-.6.5-.8.8-1.4.3-.5.2-.4.1-.3.2-.4v-.7l.1-.3v-.9l-.4-1.7-.1-.6-.1-.5v-2.3l.1-.7.2-.9.2-1 1-3.7.1-.7v-.2l.2-.6v-1.3l-.2-.6-.2-.7-.3-1.3-.2-.6v-2.4l.1-.4.1-.6.1-.3.2-.6.6-1.4.1-.2.1-.5v-2.4l.1-.3.1-.4.1-.3.1-.2.2-.3.2-.3.5-.6.4-.5 1.2-1.2.5-.5.3-.4.3-.3 1-1.4.2-.4.3-.3.3-.2.4-.4.2-.2.6-.4 1.2-.7.4-.3.5-.4.3-.3.6-.5.4-.4.3-.3.2-.3.2-.3.3-.6.2-.5.1-.2.1-.4.1-.5v-2h.3l.3-.1.6-.3.4-.1.4-.1h.2l.2-.1h.4l.2.1h.2l.2.2h.2l.4.4.3.3.8 1 .5.5.4.4 1.4 1.3 1.6 1.6.2.2.2.1.2.2h.2l.1.1h1l.4-.1.2-.1.2-.2.3-.2.6-.4.2-.1.4-.2h.2l.3-.2h.4l.4-.1 1.3-.2.5-.1h.4l.6-.3h.3l.5-.3.7-.3.6-.2.3-.1h.3l.3-.1h1l.3.2.3.1.3.2 1.1.7 1 .5.3.2.3.2h.2l.2.1h1.5l1.2-.2h1.2l.2-.1h.3l.3-.2.2-.2.4-.3.4-.4.3-.3.4-.6.7-1 1-1.6.5-.9.7-1 .4-.6.3-.3.2-.2.2-.2.3-.4.5-.3.4-.3 1-.4 1.6-.9 1.8-.8 1-.4.8-.3.7-.2.7-.2h1.5l.4.2.4.2.3.2.4.3.3.3.2.2.4.5.4.5 1.2 1.7.2.4.3.3.4.4.2.2.3.2.3.2.3.2.4.2.5.1"/></defs><g clip-path="url(#p4ad358eb47)"><use xlink:href="#mcb8ed6b5fc" y="280.5" fill="#0c1321" stroke="#0c1321"/></g></g></g></g><defs><clipPath id="p4ad358eb47"><path d="M7.2 7.2h212.5v266.1H7.2z"/></clipPath></defs></svg>