<svg xmlns="http://www.w3.org/2000/svg" xmlns:xlink="http://www.w3.org/1999/xlink" width="414.1" height="374" viewBox="0 0 310.6 280.5"><defs><style>*{stroke-linejoin:round;stroke-linecap:butt}</style></defs><g id="figure_1"><path id="patch_1" fill="none" d="M0 280.5h310.6V0H0z"/><g id="axes_1"><g id="PatchCollection_1"><defs><path id="ma29c287ee8" stroke="#0c1321" d="m153.8-231.2 1.5 2.1.4.5.5.7.4.4.7.5.7.5.7.4.8.4.5.2 1.6.5.8.2 1.7.7 1 .5 1 .5.9.5.7.4 1.5 1 .6.4.3.2.5.1.6.1h1.5l.5-.2.8-.3 1.2-.4.8-.3 1-.4.8-.4 1.5-.7 1-.6 2-1.2 2-1 2.1-1.2 1.1-.6 1.8-1.2.5-.2 3.9-1.8 1.3-.7.5-.3.5-.3v.7l.2.4.2.4.8 1.3.5 1 .8 1.4v.2l-.4.3-1 .9-1.3 1-1.2.9-1.5 1-1.3.8-3 1.7-.6.4-.8.5-.8.6-.6.7-.4.7-.1.8v.7l.1.6.2.8 1 3.3.2 1.4.2 1.4.1.8v4.3l.1 1.2.1.9.1.4.2.8v.3l.3.5.1.4.3.6.2.3.3.4.4.4.7.6.4.4.7.4.6.4.7.4.5.3.4.1.5.1.6.2 1 .1 1.9.1h2.3l.9-.1.7-.2 2-.6 3-.9 1-.2.6-.1.7-.1h1.4l.2.2.2.1.1.2.3.3.1.2.1.3v.6l-.1.6-.3.5-.6.8-.5.5-1.7 2-.6.7-.6.8-.2.2-.4.8-.2.5v1.7l.2.6.2.5.3.7.4.6.2.3 1 1.2.4.5.6 1 .3.6.5 1.1.3 1 .7 1.8.2.6.3.5.5 1 .3.5.9 1.2.7.9 2 2.3.7.8.6.9.5 1 .2.7v.4l1.7-.4 1-.3 1-.3 1-.5.8-.3.9-.5.7-.4.5-.3.4-.3.5-.4.8-.9 1-1.2 1.8-2.2 2.5-3.2.4-.5.4-.4.5-.2.3-.2.4-.1.7-.2.6-.1 1.4-.2 3.1-.3h.7l.7-.2.7-.2.6-.2.6-.3.6-.4 1.2-1 .7-.3.5-.4.6-.3.6-.2.8-.3 1.1-.4h.6l.2.1.3.4 1 1.6.7 1 1.5 2.1.7 1.1.7 1.2.4.7.3.7.5 1.2.8 2 .7 1.9 1.3 4 .6 1.7 2 5.7 1 3 .6 1.4.7 1.4.9 1.6 2.3 4 1.8 3 1 1.8 2.6 5.2 1 1.6.4.9.4.7.5.6.4.5.6.8.4.4.5.5.5.3.6.3.3.1.8.2 1.4.1.6.1.8.2.6.3.7.4.6.5.7.5.6.6.5.7.6.7.5.8.3.5.4 1 .4.9.2 1 .1.4v2.9l-.7 3.2-.1.7-.1 1.1v2.6l.2 1 .2.8.3.7.2.6.3.6.5.9.5.7.3.3.2.1-.1.3-.2.6-.3.6-.2.4-.3.6-.4.5-.2.3-.5.5-.9.8-2.6 2-1 .8-3.3 3-3 2.6-2.4 2.3-.2.1-.4.5-3 3.5-1 1-1.1 1-.7.5-.6.4-.6.3-.7.2-.8.2-.4.1h-1.5l-.7-.2h-.6l-1.8-.6-.6-.2h-1.7l-.5.2-.4.1-.4.2-.6.4-.3.4-.3.3-.2.3-.1.3-.1.4-.1.8v1l.2.6v.7l.4 1 .2 1 1 2.8.2 1v1.9l-.2 1-.5 1.8-.1 1-.2 1.6-.1.5-.1.4-.3.5-.5.6-.7.4-.5.1h-2l-.6-.2-.8-.2-2-.6-.9-.3-.9-.1h-1l-.7.2h-1.3l-.6-.2-1.3-.5-.7-.4-.4-.3-.3-.4-.2-.5-.2-.5-.3-1-.3-.5-.3-.6-.3-.5-.6-.5-.5-.4-.6-.2-.5-.1h-.5l-.5-.1h-.5l-.6.2-.6.2-.7.3-.7.3-1.3.8-.9.4-1.8 1.1-.6.4-.9.4-.6.2-.6.2h-1.4l-1.2-.2-1-.2-1.3-.4-.7-.2-.4-.2-.4-.2-.8-.5-1.3-.9-1-.6-2.9-2-1-.6-.6-.3-.7-.3-.7-.3-.7-.3-.8-.2-.8-.2-1.4-.2h-1.3l-1.1.2-1 .3-.8.3-.7.4-.7.3-.7.4-.8.5-.5.4-.3.2-1.5 1.2-1.3 1-1 1-.6.5-.4.5-.3.4-.3.5-.8 1.6-.3.6-.7.8-.4.5-1.4 1.5-.4.5-.5.7-.2.4-.2.5v.4l-.2.4v1.6l.4 2.1.2 1.1.1.5.2.5.2.5.4.6.5.6 1 1.1.5.5.3.6v.5l.1.4v.4l-.1.6-.3.6-.8 1.3-.5.8-2.1 3-.6.6-.6.6-.6.5-.5.4-.4.2-.2.1-.2.3-.2.5-.1.5-.3 1.3-.2.6-.3.5-.4.5-.5.4-.3.3-.7.4-1.6.9-.8.3-.7.4-1 .3-.5.2h-1.4l-.6-.3-.6-.3-1.7-1.2-.4-.2-.5-.3-.4-.1h-1.4l-.4.1-1 .4-.6.2-.8.4-1 .6-2.6 1.8-4.1 2.8-1.9 1.3-1.8 1.4-1 .8-.8.6-.6.6-.2.2-.2-.2-.4-.5-.5-.8-.4-.8-.3-1-.3-.9-.1-1v-2.7l.1-.8.2-1 .3-1.2.2-1 .1-1.1v-3l-.2-2.8-.1-.6-.3-1-.5-1-.4-.8-.7-1.1-.4-.6-.4-.6-.8-.8-.4-.5-.6-.8-.2-.3-.4-.3h-1.1l-.6.3-.6.3-3.4 2.4-2.5 1.7-.7.5-.6.3-.8.4-.3.1-.5.1-.5.1h-1l-.6-.2-.6-.4-.6-.4-.6-.4-.6-.6-.5-.5-1-1.1-2-2.2-.5-.6-.5-.4-.6-.4-.6-.3h-.3l-.9-.1h-.8l-.8.1-.8.2-.9.3-.8.3-.8.3-1.4.6-1 .5-3.9 2.1-.9.5-.6.2-.8.3-.5.2h-.7l-.7.2h-1.7l-.8-.2-.9-.5-.8-.6-.8-.9-.7-.9-.7-1-.7-1-2.8-4.5-1.5-2.2-.7-1-.6-.9-1.2-1.5-2-2.4-.5-.9-.7-1-.7-1-.7-1.1L89-67l-1.5-2.5-1.5-2.3-.9-1.3-.8-1.2-.7-.8-1.1-1.1-3.6-3.3-2.3-2.3-.6-.6-.7-.5-.6-.5-.7-.4-.7-.2H72l-.6.2-.6.3-.6.3-.7.4-.6.5-.5.4-.4.4-.4.5-.3.4-.4.6-.3.7-.3.6-.5 1.1-.5 2-.3.6-.3.6-.3.6-.3.5-.3.4-.4.3-.4.3-.5.3-.4.1H61l-2.6-.3-1-.1-1-.2-.9-.3-.8-.4-.7-.5-.6-.6-1-1.2-.6-.5-.4-.3-.4-.1h-.4l-.4.3-.3.5-.6 1-.4.4-.4.3-.3.2-.8.3-.7.3h-.5l-.5.1h-.5l-.6-.2-.5-.2-.6-.3-.5-.5-.2-.2-.3-.9-.2-.6-.4-1.5-.1-.7-.3-.7-.2-.6-.3-.6-.5-1-.5-.8-.4-.6-.4-.5-.6-.6-.5-.6-.5-.5-.5-.4-1.7-1.4-.5-.4-.2-.2-.2-.3v-.2l-.1-.2-.3-.6-1.5-2.5-.9-1.6-.4-.9-.3-.7-.3-.7-.4-1-.2-.8v-1.2l.1-.7.3-.8.2-.5.3-.6 1-1.7.4-.8.2-.6.4-.8.2-.6.1-.5.1-.5v-1.8l-.3-.7-.2-.4-.2-.5-.6-.8-.3-.5-.5-.6-.7-.9-.7-.7-.8-.8-.5-.4-1.7-1.3-.7-.6-2.4-2.1-1.1-1-.9-1-.3-.4-.3-.4-.2-.4-.2-.4-.1-.5v-.4l.1-.3.3-.3.3-.3.4-.2 1.2-.7 1-.6.3-.3.3-.3.5-.5.4-.6.4-.6.2-.5.3-.6.3-.8.2-.6.2-1.2.2-1v-2.1l-.2-.7-.1-.3-.2-.5-.3-.7-.3-.8-.4-.5-.3-.5v-.1h-.1l-.2.1h-.4l-.5-.5-.5-.6-.4-.5-.4-1-.2-.6v-2.4l.2-.5.2-.4.3-.8.9-1.7.6-1.3.6-1.6.5-1.4.2-.6.2-1.1.3-1.4v-2l-.1-.7-.2-.4-.2-.5-.5-1-1-1.6-.4-.6-.3-.7-.4-.9-.3-.6-.3-.8-.1-.7-.1-.5v-1.4l.3-.7.3-.7.5-.9.8-1 1.9-2.6 1-1.4.8-1 1.3-1.5.8-.7.5-.4 1.6-1.2.6-.5.7-.6.6-.6.7-.7.8-1 .6-.8.6-.9.7-1.1.6-1.3.5-1.1.4-1.1.6-1.8.4-1.5v-.4l.2-1 .1-1.4v-2.9l-.4-2.8v-2.8l.3-1.8v-2.5l-.1-.5-.3-1-.2-.7-.2-.6-.4-.9-.4-.5-.3-.5-.4-.4-.5-.5-.6-.4-.7-.5-.8-.5-.7-.5-3.1-1.8-1.3-.8-1.2-.8-.6-.4-.5-.4-.6-.5-.7-.7-.4-.5-.3-.5-.3-.7-.2-.7v-.6l.3-.7.4-.6.4-.6.5-.5 1-.9 1.2-1.1.3-.3.1.3.3.4.5.5.6.3.8.3H34l.8-.3.4-.1.4-.2.8-.5 1-.6 2.2-1.9 1.1-.8 3-2 1.2-.6.8-.5.7-.3.7-.3.9-.3.6-.2 1.4-.4 1-.1h.6l.6-.1h5.7l.8.1 1.8.3.8.2.8.3.5.3.6.4.8.5 1.4 1.2.6.4.6.4.7.2.5.1h2l.7-.1.8-.3 1-.4 1.9-1 .5-.2 1.3-.5.7-.3.4-.3.4-.3 1-1 2-1.9 1.2-1.2.4-.5.6-.8.5-.9.3-.7.1-.8.1-.8v-3.2l-.1-1v-1.2l.2-.9.2-.7.5-1.9.4-1.2.5-1.3.3-.8.5-.8.5-1 .5-.7.2-.4.6-.8.6-.7.8-.7.6-.6.3-.2.1-.1 11 .6 10.1.7 4.6.3 5.6.3 14.8.7 3 .1 2.3.2 1.1.1 1 .2 1 .2.8.3.6.3.4.4.5.5.3.7.3.6v.3l.1.4v.3l-.2.4-.3.4-.3.3-.2.2-.1.2-.1.2v.7l.2.4.3.4.3.5 1 1.1.4.5.3.6.5.6.4.7.3.8.2.7.2.8v.5l-.1.4-.2 1.1v1.3l.3 1 .1.7.1.7v2.6l.3.8.3.8.4.8.4.7.5.7 1 1.2"/></defs><g clip-path="url(#p4278701d93)"><use xlink:href="#ma29c287ee8" y="280.5" fill="#0c1321" stroke="#0c1321"/></g></g></g></g><defs><clipPath id="p4278701d93"><path d="M7.2 7.2h296.2v266.1H7.2z"/></clipPath></defs></svg>