<svg xmlns="http://www.w3.org/2000/svg" xmlns:xlink="http://www.w3.org/1999/xlink" width="368.8" height="374" viewBox="0 0 276.6 280.5"><defs><style>*{stroke-linejoin:round;stroke-linecap:butt}</style></defs><g id="figure_1"><path id="patch_1" fill="none" d="M0 280.5h276.6V0H0z"/><g id="axes_1"><g id="PatchCollection_1"><defs><path id="m287d79d86f" stroke="#0c1321" d="m251.2-164 .6 2.7.8 3 2 7.2.5 1.7.4 2 .5 2.4.2 1.7.1 1v1.5l-.1.5-.2.5-.5 1-.7.9-1.3 1.6-.6.9-1.4 2.4-.9 1.7-.6 1.2-.6 1.5-1.5 4-.9 2-.7 1.4-1.5 2.9-.5 1.2-.4 1-.2.6-.5 1.4-.2 1.2-.2 1-.2 1.5v3.4l.1.3.4 1.4.7 1.4 2.4 4.3.6 1.2.6 1.3.6 1.3.6 1.5.6 1.6.4 1.6.4 1.7.3 1.1.2 1.4.1 1v.8l-.2.1-.4.3-1.3.9-2 1.4-1 .8-3 2.7-7.5 6.6-2 1.7-2.5 2-1.3 1-1.3.8-1.2.8-1.3.8-1.3.7-1.3.6-.6.3-1.6.4-1.6.5-1.6.3-2.5.6-2.8.4-1 .2h-5.9l-4-.3h-2.2l-1 .2-.9.2-.6.2-.6.4-.4.4-.4.5-.2.3-.4.7-.6 1.4-.4 1.2-.3 1.1-.2 1.2-.2 1.2-.4 4-.1 1-.2 1.2-.3 1-.3.7-.5.9-.4.6-.5.5-.5.5-.5.4-1.2.6-1 .2-.9.2-1.2.1h-1l-1.3.1h-1.4l-1.6-.2-1.5-.2-4.3-.6-1.5-.1h-1l-1.1-.1h-1.9l-1.1.1-1.4.3-.6.1-.8.3-.6.2-.7.4-.4.3-.7.7-.8.8-1.5 2-.5.5-.8.8-.4.3-.4.2-.3.2-.5.2-.7.1h-1.7l-1.4-.3-1-.2-1.9-.6-1.5-.5-1.6-.6-1.4-.7-1.8-.8-1.8-.9-2.7-1.3-2-1-2.1-1.4-2-1.1-1.8-1.1L128-47l-1.7-1.3-.5-.4h-.1l-.1-.2-.6-.4-2.3-1.3-2-1-2-.9-1.2-.5-1.2-.4-4.5-1.5-2-.7-2.4-1-1.2-.5-1.9-.9-1.6-.9-2-1-1-.6-.6-.3h-.5l-.4-.1h-.7l-.3.1-.6.3-.4.2-.7.5-.6.5-1 1-2 2-1.6 1.5-1.5 1.4-2 1.5-1 .9-2.6 1.8-7.8 5.5-6 4.2-6.1 4.4-4.4 3.2-4.3 3.3-3.4 2.6-2.2 1.8-4 3.4-1.7 1.3-.3.2v-.4l-.3-1.6-.3-1.3-.3-1.4-.6-2-.6-1.4-.4-.9-.4-.8-1-1.6-1-1.5-1.7-2.5-.5-.8-.5-.9-.6-1-1.2-2.6-1.1-2.4-1-2.3-.3-1-.6-1.7-.5-1.8-.3-1.2-.2-1.1v-.7l-.1-.7v-1l.2-2.4V-58l-.2-.9-.1-1-.2-1-.4-1.5-.3-1.3-.6-1.9-1-3-1.8-5.2-3.5-9.6-1.1-3.5-.6-2-.4-1.4-.1-.8-.1-.8-.1-1v-2.1l.2-.7.2-.5.5-1 .6-.8.7-1 .7-.6.6-.6 1-.8.7-.5 1.3-1 1.6-1.1 1.7-1 1.9-1.2 1.5-.7 1.4-.7 5.5-2.3 1.4-.7 1-.6.9-.7.3-.4.4-.5.2-.4v-.3l.1-.4v-.8l-.1-.5-.2-.4-.1-.5-.4-.7-.3-.7-.9-1.3-1-1.3-.8-.9-1-1-.9-1-.8-.6-.7-.5-.5-.4-.9-.5-1.3-.7-2.5-1.2-1.2-.6-1.1-.6-.9-.5-1-.7-.5-.3-.4-.4-.2-.3h.2l.3-.2.5-.5.5-.7.8-1.3 1.7-3.1 1.8-3 1-1.8 1.1-1.6.6-.7 1-1.2.5-.5.5-.6 1-.7 2.1-1.5 2.8-2 1.7-1.3 1.3-.8 4.4-2.6.9-.5.8-.6 1-.8 2.2-2 1.8-1.6 1.3-1 1-.7 1.2-.9 1.8-1.1 2.2-1.4 1.3-.7 1.8-1 1.2-.4 1.1-.4 1.1-.3 1.4-.3h1.1l1.4-.1H77l.8.2.7.2.7.3.7.3.6.4 2.5 1.5.4.2.8.3.6.2h.5l1 .1h.8l1-.2 1.2-.2.8-.2 2-.5 3.3-1.2 1-.2.8-.1h.7l.6.2.4.2.7.3 1 .7 1.3 1 .7.6.7.4.6.3.5.2.7.2.8.1.9.1h3.5l1.6-.2 2.4-.4 1.3-.2 2.5-.5 2.1-.5 1.8-.5 1.8-.7 1.1-.5 1-.4 1.4-.8 1-.7 1.1-.8.7-.6 1.3-1.2 3-2.8.8-.7 1.2-1 1.8-1.4 1.3-1 1.2-.7h.3-.1v-.2l.1-.1.3-.3.4-.3 4.1-2.7 2.3-1.6 5-3.7 8-6 4.8-3.5 5-3.4 11-7.8 8-5.8 17.8-12.8 36.3-26 8-5.6 3.7-2.4 1.7-1.1-.7 2.7-.8 3.3-.4 1.8-.4 1.8-.2 1-.3 2-.2 2-.2 1.8-.2 2-.2 3.6-.3 5.5-.1 3.5-.1 3.6v10.2l-.2 2.7v1.7l-.4 2.8-.4 3-.3 1.5-.7 3.7-.5 2.3-1.7 7-.9 4.2-.3 1.6-.2 1.5-.2 1.4v1l-.1 1v1.3l.1 1 .2 1.1.2 1 .7 2.4.9 3.3.4 1.6.4 1.6.8 3.8"/></defs><g clip-path="url(#p6a3302862a)"><use xlink:href="#m287d79d86f" y="280.5" fill="#0c1321" stroke="#0c1321"/></g></g></g></g><defs><clipPath id="p6a3302862a"><path d="M7.2 7.2h262.2v266.1H7.2z"/></clipPath></defs></svg>