<svg xmlns="http://www.w3.org/2000/svg" xmlns:xlink="http://www.w3.org/1999/xlink" width="348.8" height="374" viewBox="0 0 261.6 280.5"><defs><style>*{stroke-linejoin:round;stroke-linecap:butt}</style></defs><g id="figure_1"><path id="patch_1" fill="none" d="M0 280.5h261.6V0H0z"/><g id="axes_1"><g id="PatchCollection_1"><defs><path id="mbc67502d07" stroke="#0c1321" d="M199.9-247.9h.4l1 .3.5.2.4.2.6.4 2 1.3.4.3 2.5 1.3.7.5.6.5 1.2 1.3.6.5.3.3.7.4.6.4.8.4.6.3 3.2 1.2 1.5.7h.4l.5.1h.7l2.6-.3h1.5l.8.2.4.1 2.3 1h.6l.5.2.6.1h2l4.4-.5h1.8l2.9.2.8.1.8.2h.3l.6.3.2.2-2.6 3.5-.8 1.1-.4.8-.8 1.5-.5 1.3-.6 1.8-.5 1.6-.3 1.2-.1 1.3v5.5l-.1 1-.1.8-.2.9-.4 1.5-.6 1.8-.5 1.4-.6 1.4-.4.9-.4.6-.3.6-.6.6-.7.7-.9.7-.8.6-1 .7-2 1.2-2 1.1-1.2.6-1 .4-1.1.5-1.3.4-1.6.4-1.6.3-4.4.6-1.6.4-1 .2-1.2.4-1 .3-1.2.5-1.3.6-1.1.5-1.2.6-.8.6-1 .7-.5.4-.4.4-.4.5-.5.6-.4.7-.3.9-.3 1.2-.3 1.4-.5 2.6-.3 1.5-.3 1-.7 2.3-1 3.5-1.6 5.9-1.2 3.8-1 3.3-.8 2.6-.4 2-.6 2.2-.3 1.3-.2.8-1 3.8-.3 1.1-.1.9v1.3l.1.3.3.2.2.1h1.1l.7-.1 1.8-.5 3-1 1-.3 3.5-.8 3.7-1 6.2-1.4 3.2-.8 1-.3h1.2v.1l.3.6-.1 1-.3 1-.3 1.2-1 2.6-1.8 4.5-3.3 7.7-1.7 3.9-1.7 3.7-.9 1.7-.8 1.6-1 1.6-1.5 2.5-1.5 2-1.4 2-2.2 3-4.8 6.2-5.8 7.2-2.7 3.3-1.9 2.3-1.6 1.7-2.5 2.5-2.5 2.4-2 1.7-3.2 2.7-2.3 1.8-2.6 1.9-2.3 1.5-1.8 1.1-.9.6-2 1-1.4.7-3.2 1.2-3.7 1.6-1.6.8-2 1-1.7 1-1.5 1-1.2 1-3.1 2.5-.8.6-.7.5-.6.3-1.3.6-.7.2-5.2 1.5-2.2.8-1 .4-1.6.7-1.8 1-1 .5-2.2 1.3-1 .7-2 1.5-2.3 1.7L105-43l-2 1.5-2 1.4-1.8 1.2-2 1.4-2 1.1-1 .7-2 1-2.6 1.2-2 1-1.6.6-3 1.2-4 1.5-3.5 1.3-12.4 4.3-4.9 1.8-4 1.5-1.9.8-.5.2-2.2-1.4-1-.8-1-.8-1.1-.8-1.3-1.2-1-.9-.8-1.1-.8-1.1-.8-1.2-.8-1.6-1.2-2.3-.9-1.9-.7-2-.7-2-.4-1.9-.3-1.5-.4-2.2-.2-1.8-.1-2v-2l-.1-2.4v-4l.4-9.5v-2.9l-.1-5.6v-2l.2-3.7v-4.4l-.3-2.3-.6-4-.3-2.7-.1-1.6v-23.2l.2-1.7.1-2.3 1-10 .2-1.7v-4.3l-.2-1.8-.2-1.7-.3-2-.7-4-.6-3.4-.5-2.8-.6-2.1-.6-2-.4-1-1-2.8-1-2-.4-.9-.6-1.2-.6-1-.7-1-1-1.2-.9-1-.6-.5-.5-.5-.6-.4-1-.5-2.8-1.6-.9-.6-.5-.4-.4-.5-.4-.5-.2-.5v-1.4l.2-.4.2-.5.5-.7.5-.5.6-.5.8-.7.9-.7.8-.5 1-.7 1.4-.8 3-1.8.9-.5.7-.5.7-.6.6-.7.4-.7.1-.5.2-1v-.8l-.3-3.7v-1.8l.2-.7.4-1.5.4-.8.4-.8.4-.7.4-.7.5-.5.3-.2.3.1.5.2 1 .2h.5l2.3.1h.5l.6.1.5.1.5.1 1 .4 2.2.9.9.3.8.2.7.2 2.1.4 3.3.4 2.5.3 2.3.1 4.3.2 1.2.1 1.8.1 2.9.1h4l7.4-.4 3.6-.2h3.7l5 .2h3.7l.7-.2.6-.1.3-.1.5-.3v-.1l.4-.5.1-.3.2-.6.4-3.5v-3.3l-.2-2.4-1-7.2-.3-3-.2-2.4v-2.1l.1-1.6.3-1.5.3-1.2.5-1.4.5-1.1.6-1 .6-.7.7-.6.6-.3 1.2-.3h1.4l1.6.3 1.1.4 1 .3 1 .4 1.6.6 2.2 1 2.2 1.1 4.3 2.2 3.9 2.1 7 4 3.7 1.9 3 1.5 1.1.5 1.6.6 1.4.4.9.3 1.1.1h.7l.8-.1.4-.1.6-.2.8-.4 1-.7.4-.3.7-.6.9-.8.8-1 .4-.7.3-.6.2-.4.4-1 .4-1.5.2-1.2.1-1.6.2-2.1v-5.4l.2-2.7.2-3.2.5-6 .1-2.8v-3.3l-.1-2.3-.3-3.2v-2l.1-.3.2-.3.2-.3.2-.1.3-.2h.9l.3.2.6.4 2 1.6.8.6 2.7 1.7 4 2.5 1.3.7 1 .6 1 .5 1 .3 1.1.4 3.5.8 1.6.5 1.3.4 2.9 1 2.4.8 2.2.6 3 .6 2 .3h2.8l2.2-.1 1.3-.2 1.8-.2 3.5-.7"/></defs><g clip-path="url(#p1b52f8002f)"><use xlink:href="#mbc67502d07" y="280.5" fill="#0c1321" stroke="#0c1321"/></g></g></g></g><defs><clipPath id="p1b52f8002f"><path d="M7.2 7.2h247.2v266.1H7.2z"/></clipPath></defs></svg>