<svg xmlns="http://www.w3.org/2000/svg" xmlns:xlink="http://www.w3.org/1999/xlink" width="441.6" height="374" viewBox="0 0 331.2 280.5"><defs><style>*{stroke-linejoin:round;stroke-linecap:butt}</style></defs><g id="figure_1"><path id="patch_1" fill="none" d="M0 280.5h331.2V0H0z"/><g id="axes_1"><g id="PatchCollection_1"><defs><path id="m7dfcfd9fbe" stroke="#0c1321" d="M244.3-252.2h3.7l1.4-.2 7.7-.8 2.6-.3h1.5l2-.1h2l2 .2.7.1 1.1.3.5.1 1.1.5 1.2.6 1 .7 2.2 1.5 2.8 2.2 2.4 2 2 1.8 8.9 8.6 1.2 1.2 1.1 1.2.7.8 1.1 1.5.9 1.2.7 1.2.8 1.3.5 1.1.2.5.4 1.2.6 2.4.5 1.4.6 1.4 1.3 3 .8 2 .5 1.5 1 3.7.5 1.4.6 1.3.3.5.5.7 1 1.2 1.7 1.8.6.7.2.5.1.4v.3l-1.2.9-1.6 1-2.8 1.8-3.2 1.8-3.3 1.9-5.3 2.7-1.4.9-1.7 1-1.7 1-3 2-7.3 5.3-1.5 1.2-1.2 1-1.2 1-1 1.2-.4.4-.8 1.2-2.7 4.3-.8 1.1-1 1.3-2.8 3-.8.8-1.1 1-.8.6-1.6 1-1.4 1-.7.7-1.2 1.1-.5.7-.7 1-1.6 2.6-2 3-.8 1.3-.3.4-.8.8-1 .8-1 .9-2.7 1.8-4.6 3-1.7 1.3-2.3 2-3.4 3-.9.8-1 .7-1.6 1-1.3.7-1.2.6-.9.4-1 .3-1.5.4-1.5.3-1.8.1-3.4.3-1.4.1-.8.2-1.3.3-.6.2-.7.3-.8.4-1 .6-1 1-.8 1-.4.5-.4.8-.3 1-.3 1.4-.2 1.5v2.8l.1 1 .2.9.5 1.3 1.3 3.3.7 2 .8 2.3 2.1 6.4 1 3 .3 1.5.6 2.3.3 1.6.2 1.7.1 1.2v4.9l-.3 4-.3 1.8-.3 1.7-.6 1.6-.7 1.6-.6 1.2-.6.8-.7 1.1-1.2 1.5-1.1 1.3-5.2 5.6-3.4 3.9-2 2.2-1.5 1.7-5.5 5.6-4 4.5-1.5 1.3-1.8 1.7-1.2 1-1.2.8-1.8 1.2-2 1-.7.4-1 .5-.5.1-.5.1-2 .7-2.7.7-1 .2-1.3.1-1.5.2-1.7.1h-2.8l-1.1-.2-1.1-.2-1.1-.4-.5-.1-1.4-.7-.7-.4-1.1-.9-1.1-.9-1.3-1.2-1.6-1.7-3.1-3.5-.6-.5-.5-.5-.2-.2-.8-.4-.5-.2-.6-.1H143l-1.6.3-1.6.3-1.3.4-1.2.4-2.2 1-1.5.7-4.2 2.2-3.5 1.7-2 1-2 .7-1.8.4-1.1.3-7.5 1.5-2.5.6-4.9 1.1-8.1 2-2 .5-2.1.6-1.4.5-1.4.5-6 2.5-2.3.9-4.3 1.6-3.4 1.3-2.5 1-2.3 1-1.5.9-.5.2-.1.2-.3-.4-.5-1-.6-1.6-.6-1.8-.6-2-.5-2.2-2-8.9-1.2-4.1-1.2-4-1.2-4-2.3-7.3-2.6-8.2-.9-2.7-.9-3-2.7-9.8-2.9-10.4-.7-2.8-.4-1.1-.6-1.5-.9-1.3-1-1.2-1.3-1-1.4-.9-1.7-.6-1.7-.5-4.2-.9-1-.2-1-.4-1.3-.4-1.3-.7-1.2-.8-1.2-.8-1.9-1.5-.6-.5-.2-.4h.8l1.7-.4 1.3-.4 1.9-.6 1.4-.6 1.2-.6 1.5-.9 1.6-1 .7-.5 1.1-1 1-1 .7-.8.5-1 .4-.7.4-1 .4-1.2 1-3.5.2-1 .2-1.2-.2-1.4-.4-1.5-.6-1.6-.7-1.6-3.4-6.5-.7-1.6-.7-1.6-.4-1.5-.3-1.4v-1.3l.5-1.2.6-1 1.4-2 .6-1 .2-1-.3-1-.6-1.2-.9-1.1-1-1.2-2.5-2.5-1-1.3-1-1.3-.8-1.3-.2-.7v-1l.1-1 .5-1.1.8-1.3.7-1 .5-.6 1-1.1 1-1 1-1 1.9-1.6 1-.8 2.6-2 1.8-1.3 1.8-1.2 3.2-1.8.3-.3 1-.4 1.2-.5 1.5-.5 5-1.4 1.6-.5 2-.7 2-1 .8-.3 1.6-1 5.1-3.4 3-2.1 1.2-.9 1-.5 1.4-.6 1.5-.5 1.9-.6 1.9-.7 1.3-.4 1.3-.7 1-.4 2-1.1 5.2-3.2 1-.6 2-1 .9-.4 1-.4 1.3-.3h3l1.2-.1h.7l.7-.2 1.2-.5 2-1 1.4-.7 1.5-.8.8-.7.6-.5.7-.6 1-1.2 3-3.8.5-.6h-.1v-.3l-.2-.4v-1.3l.2-.7.4-1 .9-1.1 1.2-1 1.5-1 1.7-.8 1.9-.7 1.8-.7 2.3-.6 2.7-.6 1.8-.4 5-.7 1.8-.3 1.9-.1h1.8l4.5.1h5l1.6-.2 4.2-.4 2.8-.3 7.8-1.2 3.5-.5 1.5-.3 1-.2 1-.2 1.6-.5 1.6-.6 1.6-.7 1.4-.9 1.4-1 .8-.6.8-.9.9-1 .6-1 1-1.5 1-2 .8-1.7 1-2.3.7-2 .5-1.6.3-1.3.1-1 .1-.8v-.7l1.9.2 1.9.2 5.7 1.2 1.1.3 4 1.5 1.4.3 1.1.2 1.1.1h2l.5-.2.8-.2.8-.3 4.5-1.8 1.3-.4.7-.2.8-.2 1.6-.3 3.6-.4.9-.2.7-.2.6-.2.6-.4.2-.2.5-.7.2-.5.2-.5.8-2.5.2-.5.2-.4.4-.4.2-.3.3-.2.6-.2 1.2-.4.5-.1h.1v2.3l.2.9.2.8.1.5.2.6.3.4.3.4.2.3.6.5.5.4.7.4 1 .4.8.3 1.3.3 1.3.2 1.2.1 2 .2"/></defs><g clip-path="url(#p2d55a0c292)"><use xlink:href="#m7dfcfd9fbe" y="280.5" fill="#0c1321" stroke="#0c1321"/></g></g></g></g><defs><clipPath id="p2d55a0c292"><path d="M7.2 7.2H324v266.1H7.2z"/></clipPath></defs></svg>