<svg xmlns="http://www.w3.org/2000/svg" xmlns:xlink="http://www.w3.org/1999/xlink" width="453.9" height="374" viewBox="0 0 340.4 280.5"><defs><style>*{stroke-linejoin:round;stroke-linecap:butt}</style></defs><g id="figure_1"><path id="patch_1" fill="#fff" d="M0 280.5h340.4V0H0z"/><g id="axes_1"><g id="PatchCollection_1" fill="#f1edea" stroke="#f1edea"><path d="m191.6 104.1.5.2.2.1h.2l.3.2h.2l.2.1.1.1h.1v.1h.1v.2l.2.1v.1h.1v.3h.1l.2.3v.1h.1v.2h.1v.2l.2.2v.2l.1.1v.1h.1v.1h.1v.1h1.1l.1.1h.2l.2.1h.1v.4h-.1l-.2.2v.4l.1.1v.1h.1v.1h.5l.3-.2h1l.1.1h1.5l.2.2h.5l.1-.1v-.1h.1v-.1h.1v-.2l.2-.2v-.1h.1l.1-.1v-.1h.2v.2h.1l.1.1h.3v1.2l.1.2v.1h.1v.8h.1l.2.1h.2l.1.1h.1v.1h.1l.1.1.2.2.1.1.1.1h.1l.1-.1v-.1l.1-.1v-.1h.1l.1-.1h.6l.2-.1h.2v-.1h.2l.1-.1h.2v-.1h.1v-.3h.1v-.1l.3-.3.2-.2.1-.1.1-.1v-.1h.1v-.1l.2-.1v-.1h.1v-.3h.1v-.1h.1v-.1h.5l.2-.1.2-.1h.3l.4.1h.1l.1.1h.2v.1h.5v.1h.1l.2.2.1.2.1.1.2.2.1.2v.1l.1.1v.1l.3.4v.9h-.1v1.1l-.1.2v.1h-.1v.1h-.4v.1h-.1l-.1.2h-.1l-.1.1-.3.1h-.2v.1l-.1.1h-.1v.1h-.1v.2h-.1l.1.1.1.1v.6l.2.2h.1l.1.2h.1l.3.1.1.1h.1v.1l.1.1v.3h.1v.1l.1.1.2.2v.2h.2v.2h-.1v.1h-.1l-.1.2h-.1l-.2.1-.2.1-.2.2v.1h-.1v.1l-.1.2v.2l-.1.3v.4l-.1.1v1.7l.1.3v.6h-.1v.2l-.3.2v.1l-.1.1-.1.2h-.1v.2l-.1.2v.9h-.2v.1l-.1.1-.1.1v.1h-.1v.1h-.4l-.1-.1h-.1l-.2-.2v-.1l-.2-.1v-.1h-.1v-.1h-.6v.1h-.9v.1h-.1l-.2.2-.1.1h-.1v.4l-.1.1v.3h-.1v.2h-.1l-.3.3-.3.4-.1.1-.1.1h-.2v.1h-.4l-.1.1h-.6l-.3-.2h-.5v.5h-.1l-.1.1h-.5l-.1.1h-.3v.1h-.2l-.6.2-.2.1h-.4l-.2.1h-.3l-.1.1h-.2l-.2.1-.1.1h-.1l-.1.1-.4.3h-.1l-.1.1h-.1l-.1.1h-.2v.1h-.3l-.2.1H195l-.1.1h-.2v.1h-.1l-.1.1h-.1l-.1.2h-.1l-.1.1h-.4l-.1.1h-.2l-.3.1h-.1v.4l.1.2.2.2v.1h.1v.4h-.2v-.2l-.2-.2v-.3h-.1v-.1h-.1v-.1h-.2v-.1h-1.3v.1h-.2v.1l-.1.1h-.2v.2l-.2.1-.1.1-.2.2-.2.2h-.1v.1h-.3v-.3l-.1-.1v-.2h-.1v-.6h.1v-.3h-.1l-.1-.1v-.1h-.1l-.1-.1v-.1l-.1-.1v-.2l-.1-.1-.1-.1h-.9v.1h-.3l-.3.2h-.1l-.1.1h-.1v.1l-.1.1v1.1h-.2l-.2.1h-.2v-.1l-.2-.1h-.1v-.1h-.3v-.1h-.2v-.1h-.2v-.1h-.1l-.3-.2h-.1l-.1-.1-.2-.1-.1-.1-.2-.1v-.1h-.1v-.1h-.5v.1h-.2l-.2.2-.1.1-.3.3v1.9h.1v.3l.1.1v.2l.1.1v.2h.1v.1h.1l.1.1v.1l.3.2.1.2h.1v.5h-.1v.1h-.1v.1h-.1l-.3.2h-.1l-.2.1-.3.2h-.3l-.2.1h-.3l-.1-.2h-.4l-.1-.1h-.2v-.1h-.5l-.1.1h-.1l-.1.1h-.1l-.1-.1v-.2l-.1-.1v-.1h-.1v-.1h-1.4v.1h-.3v.1h-.1l-.2.2h-.1l-.2.2h-.1l-.2.1h-.2v.1h-.4l-.2.1v1.1l.1.1v.4l.1.2v.4l-.4.2-1 .4h-.1l-.6.3-.2.1-.3.1-.2.1h-.3v.1h-.4v.1l-.3.1-.2.2h-.1l-.2.1h-.1l-.1.1h-.9l-.1-.1h-.2v-1.2h-.9v.1h-.1l-.2.1-.1.1h-.9v.1h-.1v.1l-.1.2-.2.2v.1h-.2l-.1-.2v-1.5l.1-.2v-.1l.1-.1.1-.1h.1v-.1l.3-.2v-.1h.1v-.4h-.2v-.1l-.1-.1-.1-.2v-.1h-.5v.1l-.4.2h-.8l-.1-.2h-.1v-.1h-.1l-.2-.1h-1.5v-.1h-.1l-.2-.3h-.1v-.1h-2.8v.1l-.1.2-.2.2h-.2l-.2-.1h-.2l-.1-.1h-.5v-.1h-.2v.3l-.1.1v.1h-.1v.1h-.2l-.2.1-.1.1-.2.1-.1.1v.1h-.1v.5h-.1v.1l-.1.1-.1.2h-.1l-.1.1h-.6l-.2-.2v-.1l-.1-.1v-.2h.1v-.1h.1v-.1h.1l.1-.2v-.2h.1v-1l.1-.2v-.4l-.1-.1h-.2l-.1-.1h-.5l-.2.1h-.5v.1h-.7v-.1h-.1v-.1l-.1-.2v-.1l-.1-.1v-.2l-.1-.1v-.1l-.1-.1v-.1h-.1v-.2h-.2v-.2h-.1l-.2-.2-.2-.3h-.1v-.1l-.2-.3-.1-.2-.1-.1h-.1l-.2-.2v-.1l-.2-.1h-.9v.1h-.7v-.1h-.1l-.1-.1-.1-.1h-.2v-.2l.2-.2v-.4l-.2-.7v-.5l.2-.2h.1v-.1h.1v-.1h.1l-.1-.1-.1-.1-.2-.1v-.1l-.2-.1-.3-.2h-.1v-.1h-.3l-.1-.1h-.2l-.1-.1h-1.6v-.1h-.3l-.1-.1h-.3v-.1l-.1-.1v-.6l-.1-.2v-.4l.1-.2v-.2l.1-.2v-.2l.1-.1v-.6h-.1v-.2h-.1v-.1h-.1l-.3-.2v-.1l-.2-.1v-.1l-.2-.2-.1-.1-.3-.3h-.1v-.1h-.2v-.1h-.2l-.2.2h-.1l-.2.3-.1.1v.1h-.1v.1l-.1.2-.2.3-.1.2v.1l-.1.1-.1.2h-.1v.1h-.1l-.3.3-.2.2-.1.1-.1.1v.1l-.1.1-.1.2-.1.2v.1l-.1.1h-.1v.2h-.3v.1h-.2l-.1.1h-.6l-.1-.1h-.1l-.3-.2h-.2v-.1h-.9l-.1-.2v-.1l-.2-.2-.1-.1v-.1l-.1-.2v-.3l-.1-.1v-.3h-.1v-.2h-.1v-.2l-.2-.2v-.2h.3v-.2l.1-.1v-1.2l-.1-.1h-.1l-.1-.1h-.1v-.1h-.1v-.1l.2-.5v-.1l.1-.2v-.7l.1-.4v-.5l.1-.2v-.4l-.1-.1v-.1h-.1v-.2l-.1-.1v-.5h.4v-.1l.3-.1.1-.1h.3l.1-.1h.1v-.2l-.1-.1h-.3l-.1.1-.3.2v-.1l-.1-.1v-.1l.2-.2.2-.2.2-.3.1-.1v-.1h.2v.2h.9l.2-.1.1-.1h.5v-.1h.1l.1-.3.1-.2.1-.1v-.2l.1-.2v-.1l.1-.1v-.1h.6l.1.1h.4v-.2h.3v.1h.1v.1h.1l.1.2h.1l.1.1.1.1.2.1h.2v.3l.1.2.2.2v.3l.2.3v.2h.1v.1h.1v.1h2.1v.1h.2v.1h.1v.1h.2v.1l.3.2v.1h.1l.1.1h.1l.1.2h.1l.3.2h.1l.1.1.2.2.2.2.2.3.1.1h.1v.1h.2v.1h.1l.2-.2.4-.5.2-.2v-.1h.2v-.1l.2-.1h1.3l.1.1h.1l.1.1h.1l.1.1.2.1h.6l.3-.2.2-.1.2-.1.2-.1.1-.1v-.1l.1-.1v-.1l-.1-.1v-.5l.1-.2v-.5h.1v-.3l.1-.3.1-.1h.6l.1.2.1.1h.3l.2.1h.1v-1.1h-.2l-.1.1h-.2l-.1-.1v-.3l.2-.2h.2l.1-.3h.2v-.1h.3v.1h.1v.2h.1v.1l.1.1.1.2.2.5.1.2v.1l.1.1v.1l.1.1.1.2h.2l.1.1h1l.1-.1h.1v-.1l.1-.2v-1l.1-.2h.1l.1-.1h.2v-.1h.3l.3-.1h.2l.1-.1.3-.1.1-.1h.7l.5-.1h.2l.8-.1h.1l.5-.4.2-.1.2-.2h.1l.1-.2h.1l.2-.2.2-.2.5-.4.2-.1.1-.2h.2v-.1h.1l.1-.1h.5l.1.1h.3l.3.1h.7l.1-.1.2-.1.1-.1v-.1h.1v-.1h.2v.1h.1v.1h.1v.5l-.1.2-.1.2v.1l-.1.1v.4h.5v.4l.1.1.1.1.1.1h.1v.1h.2v.2h.1v.3l.3.2h.3v.1h.7l.1-.1.1-.1v-.6l-.1-.1v-.3l.1-.1h.4l.2-.1h.1v-.1l.2-.1h.1l.3-.3h.2l.1-.1.1-.1h.1l.1-.1h.3v.1l.2.1h.2v-.1h.1v-.1h.6v-.1h.1l.2-.3v-.2h.1v-.1l.1-.2v-.3h.1v-.1l.1-.1h.1l.1-.1.1-.1h.1l.1-.1h.2l.1-.1h.1l.2-.2.1.1v.4l.1.1v.3h.1v1.4l.1.2h.1l.1.1h.5l.4-.1h1.4l.1-.1h.1v-.1h.2v-.1h.2v-.1h.1v-.1h.1v-.2l.1-.1.1-.1v-.1h.1l.1-.1.1-.1v-.2h.1l.1-.1v-.4h-.2l-.1-.1h-.1v-.1h-.1v-.1l-.2-.3v-.2l-.2-.2v-.1l-.1-.1v-.2l-.2-.1v-.7l.1-.2h.1v-.1h.1v-.1l.1-.2.1-.2v-.3h.1v-.7l-.1-.3-.2-.5v-.1l.3.1h.1l.1.1.2.1.3.2h.2v.1h.1l.4.1h.8v-.1h.9v.1l.2.1h.1v.1l.1.3h.2v-.1h.5l.1-.1h.1v-.1l.4-.3h.2v.2h.1v.1h.1v.1h.3l.1-.1v-.1h.1v-.1l.2-.2v-.1h.1v-.7h.1l.1-.1h.8l.1-.1h.1v-.1l.2-.1.2-.1.2-.1h.8l.2.2h.1v.1h.5l.2.1M203 27l.1-.1v-.1l.1-.1.1-.1.1-.1h.3v.3h-.1v.3h.2l.1.1v.3l-.1.1v.5h-.8l-.1-.2h-.2l-.2-.1-.2-.1h-.1v-.2h.1v-.3l.1-.1v-.8h.2v.1h.1v.2h.1v.2l.1.1v.1M204.4 26h-.2v.1l-.2.1h-.4l-.1-.2h-.1v-.1h.2l.2-.1h.4l.1-.1h.2v-.1h.1l.1-.1v.3l-.1.1-.1.1" clip-path="url(#p6313ca4dd2)"/><path d="M192.5 20h1l.1.1h.2l.1.2h.2l.1.1h.1v.1h.1v.1h.1v.2l.1.2v.2l.1.1v.2l.1.1v.1h.1v.1h.1l.1.1h.2l.1.1h.7v.1h.1l.1.1v1l-.1.2v.4l-.1.1v.5h.1v.1l.2.2v.3h-.5v.1h-.1l-.1.2-.2.3-.1.1-.1.2v.1l-.1.1V29h-.6l-.2-.2h-.3l-.1-.1-.2-.1h-.1l-.3-.1h-.6v-.1l-.2-.1-.2-.1-.1-.1h-1l-.1.1h-.2v1.5l.1.2v.2l.1.1v.1h.3l.1.1.3.1.2.1.2.1h1l.3-.1h.4l.5-.2h.6l.4-.1h1.3l.4.2h.6v.1h.4l.1.1h.1v.1-.2l.1-.1.1-.1h.1v-.1l.2-.1h.2l.2-.1.3-.1h.5v.1h.1l.3.1v.1h.5v.2h.2v.1l.1.1v.1l.2.1v.2l.1.1v.1l.1.2.1.1.2.2h.1v.1h.1v.1h.2v.1h.1v.1l-.2.1-.2.1h-.1l.4.2h.2l.4-.2 2.2-2.7.2-.3.2-.1v-.1h.1l.2-.2.2-.2.4-.4 1.3-1 .1-.1.2-.2.1-.1.1-.1.1-.1.2-.2v-.1l.1-.1v-.1l.2-.4v-.2l.2-.3v-1.2l-.1-.1v-.6l.1-.1v-.1h.1V23l.1-.1.3-.3v-.1l.1-.1.2-.3.1-.1V22l.2-.1v-.1h.2l.2-.3h.1l.1-.1h.5v.9l.1.1v.1l.2.3h.1v.2h.1l.1.1h.2v.1h2.2v.1h.1v.2l.1.1.1.2.1.2.3.8.3.6.5 1.2.3.7v.2l.1.1v.7l-.1.1-.2.3-.2.2v.2l-.2.2v.2l-.2.3-.2.3-1 1.9-.2.6.2.2 1.6 1.8.9 1 .2.3.2.1.1.2.1.1v.1h.1v.2l.2.3v.1h.1v.2h.1v.1l.1.1.1.1v.1l.3.2v.1h.1v.2h.1v.2l.1.1v.7l.1 1.2.1 1.6h.1l1.1.4h.3l.2.1h.7v-.1h.2l.2-.3h.2v-.1h.1v-.1h.2l.2-.1v-.1h.3l.2-.1.1-.1h.2l.3-.1h.1l.2-.1h.4l.2.1.1.1.2.1.5.4.3.2 1 .5v.1h.2v.2h.1l.1.1v.1l.1.1v.5l-.1.2-.3 1-.4 1.7v.2l-.1.2v.7l.1.1.1.2h.1l.1.1h.1l.2.3-.2.3-.8.8-.2.2-.1.1v.1h-.1v.2h-.1v.4h-.1V54l.1.5h.3v.1h.1v.1h.1l.2.3.1.1.1.1.1.1h.1l.1.1.3.2.2.1.1.1v.1h.2v.2l.3.3.3.4.3.3.1.2.1.1v.1h.1v.1l.1.2v.3h.1V61l.1.7v.5h-.3v.1h-.1v.1l-.2.2v.1h-.1v.2h-.2l-.4.5h-.1l-.1.1-.1.1-.1.1-.1.1h-.5l-.3-.3h-.1v-.1h-.1l-.1-.1-.2-.1h-.2V63h-.8v.1h-.1v.1l-.1.5v.4h-.1v.2l-.1.1v.1l-.1.1v.1l-.1.1h-.1v.1l-.2.1-.2.1-.3.2-.2.1-.2.1h-.2v.1H220l-.1.1h-.2v.1h-1v.6h-.1v.2l-.2.2v.1h-.1v.1h-.2l-.2.3-.1.1-.2.1-.1.1-.1.1h-.1l-.2.2v.1l-.1.1-.3.2v.1h-.1v.1l-.1.1-.1.1v.1l-.2.1v.5h-.1v.2h-.1l-.1.1h-.2l-.2.1h-.2l-.1.1h-.2l-.4.1h-.1l-.3.1h-.2l-.2.1h-.1l-.1.1-.2.1-.3.1-.1.1h-.1l-.2.1h-.2l-.2.1h-.3l-.2.1h-.1l-.2.1h-.2l-.1.1h-1.4v.1h-.1v.8l-.1.2v.2l-.1.2v.3h-.1v.1h-.1v.1h-.1l-.3.2h-.1l-.1.1v.1l-.2.3-.5 1-.6 1v-.3h-.8v-.2l-.1-.1-.1-.4v-.2h-.3l-.2.2h-.1l-.1.1h-.1v.1l-.1.1v.1h-.1l-.1.1-.2.1-.1.1h-.4l-.2.1h-.4v.1h-1.1l-.5.1h-.2v.1h-.1v.1l-.3.2v.1h-.1v.1l-.1.1v.1l-.1.2v.2h-.1l-.3.2h-.1v.1h-.3l-.2.1h-.1l-.2.2h-.5l-.2-.1-.1-.1h-.7v.1h-.2v.1h-.1l-.1.1-.2.2v.1h-.2l-.2.1h-.1l-.1.1-.2.1-.2.2h-.2l-.2.1h-1.3l-.2.1h-.3v.1h-.5v-1l-.1-.1-.1-.1v-.1l-.1-.1v-.2l-.1-.1V77h-.1V77h-.1l-.1-.1h-.3v-.1l-.1-.1v-.1h-.1v-.2l-.1-.2V76h-.1v-.2h-.1v-.2h-.4l-.1.1-.2.1h-.1l-.1.1h-.1l-.1.1h-.1v.1l-.2.1-.1.2-.2.2-.2.2-.1.2-.2.1v.1h-.2v.1h-.1v.1h-.3l-.3-.1h-.4l-.1-.1h-.7v.1h-.1v.1l-.1.1v.2l-.1.1-.1.1h-.1v.1h-.1l-.1.2h-.2l-.3.3h-.2v.1h-.2v.1l-.1.1-.1.1v.2l-.1.1-.1.3v.2l-.1.1v.1h-.1v.2h-.1v.1h-.1l-.1.1h-.2v.1h-.2v-.1h.1V80l.5-.6v-.2l.1-.1.1-.2.1-.1v-.3h-.1l-.1-.1h-.3l-.2-.1h-.4v-.1h-.1l-.1-.1-.2-.3v-.2l-.2-.2v-.1h-.3v.1l-.2.1h-.1l-.2.1-.1.1h-.2l-.1.1h-.4l-.1.1h-1.3l-.4.1h-.2l-.2.1-.1.1-.2.3-.1.3h-.2v.1H179l-.1.1v.1h-.1v.7l-.1.1v.3h-.1v.1l-.1.1v.1h-.1v.5h-.9l-.1.1-.1.2h-.3v-.2l-.1-.3h-.1v-.1h-.3l-.1-.1h-.2v.2h-.4v-.1h-.1v-.4l-.1-.1h-.1l-.2-.1-.3-.1h-.4V80h-.3l-.1.1-.1.1v.2h-.2v.1h-.5v.1l-.1.1h-.1v.3h-.1v.1l-.1.2-1.2-.8-.3-.3-.6-.4-.2-.2h-.2v-.1h-.1l-.1-.1h-.3v.1h-.1v.2l-.1.1V81h-.1l-.1.1-.2.2h-.1v.1h-.6l-.1-.1h-.1l-.1-.1h-.2l-.1-.1-.2-.2v-.1l-.2-.3-.1-.2h-.1l-.1-.2v-.1h-.2v-.1h-.5l-.3.2-.4.1-.2.1h-.1v.1h-.2l-.2.2h-.2l-.1.1-.1.1h-.4v-.1h-.1l-.1-.1h-1l-.3.2h-.3v-.1h-.1V80l-.1-.1v-.2h-.1v-.6h-.2V79h-.2l-.1-.1h-.3l-.4-.1h-.1v-.1h-.1v-1h.1v-.1l.2-.2.1-.2.2-.2V77l.1-.1v-.1h-.4l-.1.1v.1h-.1l-.1.1-.2.2h-.1v.1h-.2v.2h-.1v.1l-.1.2-.1.2h-.1v.1h-.1l-.1.1h-1v-.5l.1-.1v-.1h.1v-.4h-1.8l-.1-.1-.2-.1v-.1h-.1v-.1h-.1v-.1l-.2-.3h-.1v-.1l-.1-.1-.1-.1-.1-.1h-.2l-.5-.3h-.1l-.1-.1h-.5l-.1-.1h-.5v-.1h-.1v-.1h-.9l-.1.1v.2h-.1v.1h-.1v.1h-.1l-.1.1h-.1l-.4.2h-.8l-.3-.2h-.1v-.2l-.1-.1v-.1h-.1l-.1-.1h-.6l-.1.2h-.1v.1h-.1v.1l-.1.1v.1h-.1l-.1.1h-.1v.1l-.2.1h-.1l-.1.1h-.4l-.1-.1h-.1l-.1-.1h-.1l-.3-.4h-.2v-.1h-.1l-.1-.1h-.3l-.1-.2-.1-.3v-.5l.1-.1.2-.2h.1l.1-.2.2-.2v-.1h.1v-.6h-.6V73h-.2v-.3h-.1v-1l.2-.4v-.8l-.1-.1v-.2h-.1v-.1h-.1V70h-.2V70h-.1l-.2-.2h-.2v-.1l-.1-.1-.1-.2v-1l.1-.2.1-.1.1-.1h.1l.1-.1h.1l.3-.2h.1l.1-.1h.1l.1-.1v-.1h.1l.1-.1.1-.1.1-.1.1-.1.1-.2.2-.2.4-.5.1-.1v-.1h.1l.1-.1h.1v-.1h1l.1.1h.1l.2.2.4.2h.1l.1.1h.2v.1h1.3v-.1h.2v-.1h.2V66h.1l.3-.3h.1l.2-.1.2-.1h.2v-.1h.6l.1-.1h1.3l.2-.1h.2v-.1h.2V65l.3-.1.1-.1h.1l.1-.2h.1l.1-.1v-.2h.1v-.1l.1-.1V64h.1v-.4l.1-.2v-.2l.1-.5v-.6l.1-.2v-1.4l-.1-1V58h-.1l-.2-.1h-.4v-.1h-.1v-.6h.1v-1l-.1-.2v-.1l-.1-.1v-.2h-.7l-.1-.1-.1-.1v-.2l-.1-.1v-.2l.1-.1h.1v-.1h.1v-.1h.1v-.3l-.1-.2-.1-.2v-.2l-.1-.1-.3-.7v-.2l-.1-.1v-1l-.1-.2v-.7l-.1-.1v-.3h-.1v-.1l-.1-.1h-.1V50l-.1-.2V49h.1l.2-.1h.2v-.1h.2v-.2h.1v-.1l.1-.2h.1V48h.1V48h.1l.1-.2.2-.1v-.1l.2-.2h.1v-.2h.1V47h.1v-.2h.1v-.2h.1v-1h-.1v-.1l-.1-.1v-.1h-.1v-.1h-.2v-.1l-.1-.1h-.2V45h-.2v-.1h-.2l-.3-.1h-.2l-.2-.1h-.3l-.2-.1-.1-.1h-.1l-.1-.1h-.1v-.1h-.1l-.1-.1-.2-.1V44h-.1v-.2h-.1v-.1l-.1-.1-.1-.2v-.1l-.1-.1V43l-.1-.2v-.3l-.1-.1v-.7l.1-.2v-.2l.1-.2v-.4l.1-.2v-.9l-.1-.2v-.1l-.1-.1V39h-.1v-.2h-.1v-.1l-.1-.1-.1-.1-.2-.2h-.1v-.1h-.2V38h-.1l-.1-.1h-.1l-.1-.1h-.4v-.1h-.5l-.2-.2h-.2v-.1h-.1v-.1l-.2-.1-.1-.1V37h-.2v-.2h-.1l-.1-.2-.1-.1-.1-.1v-.1l-.1-.2v-.1l-.1-.2v-.1l-.1-.1v-.4l.2-.1h.5l1-.1h.7l2.7-.2 1.8-.1h1.7l.1.1.1.2v.1l.1.2v.2l.1.4v.3l.1.2v.2l.1.1v.1h.1v.1h.1l.1.1h1.3l.1.1h.3v.1h.4l.3.1h.5l.2.1h.4l.3-.1h.1l.1-.1.2-.1.5-.3.7-.4h.1l.2-.2h.7v-.6h-.1v-.4l.1-.1v-.5l-.1-.1-.1-.2h-.1l-.1-.2-.7-1-.5-.5-.7-1-.2-.2-.1-.2h-.1V31h-.1v-.2h-.1v-.1l-.1-.2-.1-.2v-.2l-.1-.1v-.2l-.1-.1v-.4l.1-.1.1-.2.2-.2h.2v-.1h.1v-.6h.1V28h.1v-1h-.1v-.2l-.1-.1v-.1h-.2v-.1h-.4v-.1h-.3V26h.1l.2-.1h.1l.2-.2.3-.1.8-.4 1-.6.5-.2.8-.5h.1l.2-.1h.2v-.1h.3l.1-.1h.4l.2-.1h.3v-.1h.3v-.1h.1l.1-.1v-.1l.3-.2v-.1h.2v-.1h.1v-.1h1.3l.3-.1h.4l.8-.2 1-.2h1.1l.1.1v.1l.2.1v.2h.1v.1h.1v1l-.1.1-.1.2-.5.9-.3.6v.3h-.1v1.3l.1.5.2 1.5 1-.4 1.2-.4.2-.1h.1l.1-.1h.4l.1-.1h.6l.3.1h.2l.3.1 1.2.3.8.1h.3l.2.1h.1l.1.1h.1l.2.1.2.1h.1v.1h.6V29h.1l.1-.1.1-.1h1.3l.2-.1v-.5l-.2-1v-.6l.2-.2h.1v-.1h.2v-.1h.1l.2-.2h.2l.3-.2h.1l.2-.1h.1l.1-.1.1-.1.1-.1v-.1h.1v-.2l.1-.1.1-.2.1-.3.1-.2.1-.1v-.1l.1-.1V24h.1l.1-.1h.1l.1-.1h.2v-.1h.2l.1-.1.1-.2.2-.2V23h.1v-.1l.4-.6v-.2h.1l.1-.1v-.1h.2v-.2h.2l.1-.1.1-.1.2-.1.5-.2V21l.2-.2v-.4l.1-.1v-.1l.1-.1.1-.1h.1v-.1l.3-.1.1-.2h.2l.1-.1h.2l.1-.1h.4v-.1h.5v.1h.1v.2l.2.1v.1h.1l.1.1h.3v.1" clip-path="url(#p6313ca4dd2)"/><path d="M216.9 74.3h.8v-.1h.3l.1.1.1.2.2.2.2.2.2.2.4.3.2.3.2.1v.1l.2.2.1.1.1.1v.1h.2v.1l.1.1h.1l.1.2h.1v.1h.2l.2.2-.2.1h-.1l-.2.2h-.1l-.1.1-.3.1-.2.2h-.1l-.1.1-.2.1h-.1l-.1.1h-.6V78l-.1-.1v-.6h-.3l-.1.1h-.1v.1h-.1v.2h-.1v.6l.2.3v.2l.1.3v.3l.2.5v.2l.1.2h-.8l-.2.1-.2.1-.1.1h-.1v.1l-.4.3-.2.1-.1.1-.2.2h-.1l-.1.1h-.1l-.2.1-.2.1h-.1v.1h-.1v.2h-.1v.2l-.1.1v.2l.1.5v.2l.1.2v.9l-.3.4-.1.1v.1h-.1l-.1.1-.1.1h-.1l-.1.1-.3.1h-.1v.1h-.1l-.1.1-.2.1v.1l-.1.1-.1.1v.1l-.2.2v.2l-.1.1-.1.1h-.1v.1l-.2.1-.2.1-.2.1v.6l.1.1v.4h.1v.2l.2.4v.2l.1.2.1.1v.1h.1v.2l.2.1v.1l.1.1h.1l.1.1.1.1h.2v.1h.5V90l.3-.1.2-.1.1-.1h.2v.1l.2.2.3.5.1.1.1.1v.1l.2.1v.1h.3v-.2h.2l.2-.2.1-.1h.1v-.1h.1l.1-.1h.1l.2-.1h.2l.3-.1h.1l.2-.1h.2l.2-.1h.1l.2-.2h.1l.1-.1h.1l.1.5.1.1v.1h.1v.1h.1l.2.1h.4l.2.1h2.1v.1h.2v.2h.2l.1.1v.1h.1l.1.2.1.1v.2l.1.1v1.4h-.1v.2h-.1l-.2.4-.1.1v.6h-.1v.3l-.1.1v.1h-.1v.1l-.1.1h-.1v.1h-.1v.1h-.5l-.1-.1-.1-.1-.2-.2h-.1v-.1h-.3v1.6h-.1v.2l-.1.1v.1l-.1.1v.1h-.1v.2h-.1v.5h-.1v.1h-.1l-.2.2-.1.1-.1.1-.1.1v.2l.1.1v.1h.1v.6l-.2.2v.1l-.1.1v.1l-.1.1v1.5h-.1l-.1.2v.2l-.1.1v.6l.1.1v.1h.1l.1.1h.1v.1h.2v.1h.7v.2l-.2.3h-.1v.2h-.2v.2l-.1.1-.1.2-.2.3v.2h-.1v.1h-.1v.1h-.1v.1h-.1v.1h-.9l-.1.1h-.1v.1h-.1v.1h-.1v.1l-.2.3-.1.2-.1.2v.2l-.1.2v.1h-.1v.1h.1v.3h.1l.1.4v.2l.1.2h.1v.3l.1.1v.1l.1.1v.3h-.1l-.1.2-.1.2-.1.1v.1l-.1.1v.2l-.3.4v.1l-.1.1v.2l-.1.2v.6h.3l.1.1.2.1h.1v.1h.1l.1.1v.1h.2l.1.1v.1h.1v.4h-.1v.1l-.2.2v.1l-.1.2v.1h-.1v.2l-.1.1v.1l-.1.1-.1.3v.2l-.1.1v.3l-.1.2v.2l-.1.1v.1l-.2.1v.3h-.1v.1h-.1l-.1.1-.2.1h-.3l-.2-.1h-.1l-.2-.1h-.1l-.2-.1-.1-.1h-.8l-.1-.2-.1-.1-.1-.2-.1-.1v-.2h-.1l-.1-.1h-.3l-.2-.1v-.1l-.3-.3-.2-.2-.1-.2h-.1v-1.2l-.1-.1v-.8h-.1v-.1l-.2-.1-.3-.2-.3-.2-.3-.2-.2-.1-.2-.2h-.2v-.1h-.1l-.1-.2-.2-.4-.1-.2-.2-.2-.2-.3v-.1l-.2-.2-.2-.1v-.1h-.4l-.1-.1h-.2l-.2-.1-.4-.2h-.5l-.2.2h-.6v.1h-.1v.3h-.1v.1h-.1l-.1.2h-.1v.2h-.2v.2l-.3.2-.2.2v.1h-.1v.3h-.1v.1h-.2v.1h-.4v.1h-.1l-.1.1h-.6l-.1.1h-.2v.1l-.1.2-.1.1-.1.2-.1-.1-.2-.2-.1-.1v-.1h-.1l-.1-.1-.2-.1h-.1l-.2-.1h-.3v-1l-.2-.2v-1.1h-.2l-.1-.1-.1-.1v-.1l-.1-.1h-.1l-.2.1v.1l-.1.1-.1.2v.1h-.1v.1h-.1v.1h-.1v.1h-.1v.1h-.5l-.1-.2H198l-.1-.1h-.8l-.2.1-.1.1h-.5v-.1l-.1-.1v-.2l-.1-.2v-.1l.1-.1h.1v-.1h.1v-.3l-.1-.1h-.4v-.1h-1l-.1-.1h-.1v-.1h-.1v-.2l-.1-.1-.1-.2-.1-.2v-.1l-.1-.1v-.1h-.1l-.1-.2-.2-.2v-.3h-.1v-.1l-.1-.1-.1-.1v-.1h-.1v-.1h-.2v-.1h-.1l-.1-.1-.2-.1-.3-.1h-.3l-.2-.2-.5-.2h-.5l-.1-.1h-.1l-.1-.1-.1-.1-.1-.1h-.9l-.3.2h-.2v.1l-.1.1-.2.2h-.4v-.1h-.3l-.1.1v.6h-.1v.1l-.1.1-.1.2-.1.1-.1.1-.1.1h-.3v-.1l-.1-.1v-.2h-.2l-.4.3-.2.1-.1.1h-.4v.1h-.2l-.1-.3h-.2l-.1-.2h-.7l-.2-.1h-.1l-.1.1H183l-.1-.1h-.1l-.1-.1-.3-.2h-.2v-.1h-.2l-.2-.2v.6l.2.2v1l-.2.3v.2l-.1.1-.1.1-.2.2v.6l.1.2.1.2.1.1v.1l.1.2.1.2.1.2v.1h.1v.1h.1l.1.1h.2v.1h.1v.4h-.1v.3h-.1l-.2.2-.1.1-.1.2v.1h-.1v.1h-.1v.1h-.2v.1h-.2v.1h-.1l-.1.1h-1.5l-.4.2h-.5l-.1-.1-.1-.1v-.1h-.1v-1.7h-.1v-.5h-.4l-.2.1h-.1v.1h-.2l-.2.2-.1.1h-.1v.1h-.1v.4l-.1.1v.1l-.1.1-.1.2-.2.2v.1h-.5l-.1.1h-.1v.1h-.1v.1h-.3v-.1h-.1v-.1h-.5v.2h-.2l-.2.1-.3.2-.2.2h-.2l-.2.1h-.4v.1h-.1v.5h.1v.6l-.1.1-.1.1h-.7l-.3-.1-.3-.2v-.3l-.1-.1h-.1l-.1-.2h-.1l-.1-.1-.1-.1v-.5h-.6v-.5l.2-.3v-.2l.1-.1v-.4l-.1-.1h-.1l-.1-.2v.1l-.1.1-.2.1v.1h-.1l-.1.1h-.5v.1h-.8l-.2-.1h-.1v-.1h-.5l-.1.1h-.1v.1l-.2.1-.2.2-.5.4-.2.2-.2.2-.2.1-.1.1-.2.2-.2.1-.5.3-.8.2h-1.1l-.3.1h-.2l-.2.2h-.3l-.4.1h-.2v.1h-.2l-.2.1v.1l-.1.1v1.1l-.1.1v.1h-.2v.1h-.9l-.2.1h-.1l-.1-.1-.1-.1-.1-.2-.1-.2-.2-.3-.2-.5v-.2h-.1v-.2h-.1v-.1h-.1v-.1h-.1l-.1-.1h-.2l-.1.1-.2.2h-.1v.1l-.2.2v.4h.3l.1-.1h.1v1.1h-.5l-.1-.1v-.1l-.1-.1h-.1l-.1-.1h-.5v.1l-.1.3v.2h-.1v.5l-.2.3v.6h.1v.2l-.1.1h-.1v.1h-.2l-.2.2h-.2l-.2.2-.2.1h-.7v-.1l-.2-.1h-.2l-.1-.1h-.2l-.2-.1h-1l-.1.1-.1.1-.1.1-.2.2-.4.5-.2.2h-.2v-.1h-.1l-.1-.2-.3-.3-.1-.1-.1-.1-.1-.1-.1-.1-.2-.1-.3-.2-.2-.1-.1-.1h-.1l-.1-.2-.2-.2h-.1l-.1-.1-.1-.1h-.2v-.1h-.3l-.1-.1h-1.8v-.1l-.1-.1v-.2l-.2-.3v-.2h-.1l-.2-.3v-.3h-.1v-.1h-.2l-.2-.2-.1-.1-.1-.1-.2-.2h-.1v-.1h-.2v-.1h-.2v.1l-.1.1h-.3l-.2-.1h-.4l-.1.1v.2l-.1.2v.2h-.1v.1l-.2.3v.1h-.1v.1h-.4l-.2.1h-.1l-.2.2h-.8v-.1h-.1v-.1h-.1l-.1.1-.3.4-.2.2-.1.1v.3h-.4v-.1h-.4v-.1h-.1v-.1l-.1-.1v-.1h-.1v-.2h-.5l-.2.1h-.4l-.2.4-.3.7-.1.2-.1.2-.1.1v.1h-.1v.1h-.2l-.1-.1-.1-.2v-.1h-.1v-.1h-.7l-.4.3h-.1l-.3.3h-.2v.1h-1.2v-.1l-.1-.1-.2-.2h-.4l-.2.1-.2.1-.1.2h-.1l-.1.2-.2.1-.2.2v.1h-.1v.1h-.2l-.1.1h-.8l-.1-.1h-.1l-.3-.1h-1.4l-.2-.1h-1.3l-.1-.1v-.1h-.1v-.1l-.1-.1-.1-.1h-.3l-.2.1h-.3l-.2.1h-.3v-.4l.1-.1v-.3l-.2-.2v-.1l-.3-.4-.2-.3v-.2h-.4l-.2-.1h-.2v-.1h-.1v-.9l.3-.7v-1h.4v.1h.2l.1.1h.1l.1.1h.3v-.1h.4v.1h.1v.1h1.1l.1-.1h.4l.4.1h.1v-.1h.1v-.1l.2-.1h.1v-.1h.1v-.1h.1v-.6l-.2-.2v-.1l-.1-.3v-.2l-.1-.2v-.1h-.1v-.1h-.6v.1h-.2v-.1h-.1V109l.1-.3.2-.4.2-.3v-.1l.1-.2.1-.1.1-.1.4-.3h.1l.1-.1h.2v-.1h.5l.2.1h.1l.2.1h.1v.1h.1v.2h.1v.8h.7v.1h.4l.1-.1.1-.1h.1v-.1l.1-.1v-.1l.1-.1v-.1l.1-.2.1-.1v-.1l.1-.1.1-.1.1-.1h.1v-.1h.1l.2.2.1.2.1.1.1.1.1.1h.1v.1h.4v-.1l.2-.3v-.1l.1-.1v-.1h.1v-.1h.1v-.1h.2v-.1h.3l.3.2h.1l.2.2v-.1l.2-.1v-.1l.1-.2h.1v-.1h.1v-.1h.1l.1-.1h.1l.1-.1h.4v-.1l.1-.1.3-.4.1-.1v-.2l.1-.1v-.1l.2-.3.1-.2.1-.1v-.2h.1l.1-.2.2-.5v-.4l.1-.2v-.1l.1-.1v-1l-.2-.3v-.2h-.1v-.8h-.1v-.1l-.1-.1H136l-.2-.2v-.5h.1l.1-.1.2-.1.1-.1v-.1l.1-.1.2-.3.2-.2v-.1l.1-.1v-.6l.2-.2.2-.2v-.2h.1v-.6l.1-.2h.1l.1-.2v-.1h.1l.1-.1h.2V96l.3-.1h.1v-.1h.1l.1-.1v-.1h.1v-.2l.1-.1v-.6l.2-.2V94l.1-.1v-.2h.1v-.2h-.2l-.2-.1h-.1v-.1h-.1v-.1h-.1V93l-.1-.1-.1-.1v-.2h-.2v-.1l.1-.1h.1l.2-.1.3-.1.1-.1h.2v-.2l.4-.2h.1v-.1l.2-.1v-.1h.1v-.5l-.1-.1v-.1h-.1l-.2-.3v-.1h-.1v-.5l-.1-.2v-.5l.1-.1.1-.1.1-.2h.5l.2.1.4.3h.2v.1h.2l.2.1h.1l.1.1.2.2h.1l.1.1h.2l.1.1h.1l.2.1h.1v.1h.2v.1h.1v.1l.1.1v-.1h.1l.1-.2.1-.1v-.3h.1v-.1h.6l.1-.1V89h.1V89h.2v-.1h.1v-.1h.1l.2-.2-.2-.3-.1-.1V88h-.1v-.2h-.1v-.2l.2-.2.1-.1v-.2h.1v-.7h-.1v-.1h-.1v-.1l-.1-.1V86l-.1-.1v-.2h-.1v-.2h-.1l-.1-.2-.3-.4v-.1l-.1-.1v-.1h-.1v-.4l.2-.2v-.3h.1v-.2h.2v-.1h.1v-.1h.1V83h.1v-1h.1v-.2h.1v-.1h.2v-.1h.7l.2.1h.1v.1h.1v.1h.1l.2.1.3.2h.2v.1h1l.2-.1h.1v-.1l.2-.1.1-.1h.1l.1-.1.1-.1.3-.1h.1l.1-.1h.2v-.1h.1v-.2h.1v-.1l.3-.3v-.2l.2-.1.2-.2v-.2h.1v-.8h-.1v-.1l-.5-.4v-.1h-.1v-.2l.1-.1h.1v-.1h.2v-.1h.3v-.1h.2V78l.1-.1v-.1h.1v-1.5l.1-.2V76h.1v-.1h.1l.2.1h.1l.1.1h.7l.3-.1h.1l.2-.1v-.1h.1v-.1l.1-.1v-.1h.1v-.1l.1-.1h1v.1h.5l.1.1h.4v.1h.2l.6.3h.1l.1.1.1.1.2.2v.1l.2.3h.1v.1h.1v.1l.1.1h.1v.1h1.9v.1h.1v.4l-.1.2-.1.1v.3h.6v.1h.5l.1-.1V78l.2-.2v-.2h.1v-.2h.2v-.1h.1l.1-.1.2-.1V77h.1V77h.1v-.2h.5v.2l-.1.1-.2.2v.2l-.2.1v.2h-.1v.2l-.1.2v.6h.1l.5.1h.2l.2.1h.2v.1l.1.1v.5l.1.1v.1h.1v.6h.1v.1l.1.1h.3l.2-.1h.6v-.1h.6l.1.2h.5v-.1h.2v-.1l.3-.2h.2l.1-.1h.2l.4-.2.3-.1h.2v-.1h.3l.1.1.2.2v.1l.1.1.1.1.1.3h.1v.1l.1.1.1.1h.1l.2.1h.2l.1.2h.6l.3-.2V81h.1v-.1h.1v-1.3h.1v-.1h.1v-.1h.4l.1.1h.1l.1.1.2.2.6.4.3.3 1.2.8v-.1l.1-.1v-.3h.1v-.1h.2v-.1h.1v-.1h.4l.1-.1v-.2h.2V80h.2l.1-.1h.5l.3.2h.2l.1.1v.4h.1v.1h.1l.1.1h.2v-.1h.1v-.1h.5v.1h.1v.1l.1.2v.2h.1l.1.1h.2v-.1l.1-.1h.4l.1-.1h.5v-.6h.1v-.2h.1V80l.1-.1v-.5l.1-.2v-.1l.1-.1h.1l.2-.1h1.4v-.1l.2-.2v-.1l.1-.2.1-.1h.1l.3-.1h.1l.4-.2h1.6l.2-.1h.1l.2-.1h.1l.2-.1.1-.1h.2v-.1h.2v-.1h.1l.1.3.1.1v.1l.2.3h.1v.1h.5l.2.1h.2l.1.1h.1v.1h.1v.4l-.1.2h-.1l-.1.3-.4.6v.1h-.1l-.1.2h.3l.1-.1h.1v-.1l.1-.1.1-.1v-.2h.1v-.2l.1-.1v-.3h.1V79h.1v-.1l.1-.1.1-.1.2-.1.2-.1.3-.3h.2V78h.1l.1-.1.1-.1v-.1h.1v-.1l.1-.2v-.1h.1l.1-.1h.1v-.1h1v.1h.3l.1.1h.3l.1-.1h.1l.1-.2.2-.1.1-.2.2-.2.2-.2.1-.2h.1V76h.1l.1-.1h.1l.2-.1.1-.1h.2l.1-.1.3-.1v.1h.1v.2h.1v.3l.1.2v.1h.1v.2h.1v.1h.3l.1.1h.1v.1h.1v.2h.1v.1l.1.2v.1l.1.1h.1v.2h.1v1h.8v-.1h1.4l.1-.1h.2l.2-.1.1-.1.3-.2h.1l.3-.1.1-.1h.1l.2-.3h.1v-.1h.2l.1-.1h.2v-.1h.6l.2.1h.1v.1h.3l.2-.1h.2v-.1h.4v-.1h.2l.2-.2h.1V77l.1-.2v-.3h.1v-.1h.1v-.1h.1l.2-.3h.1V76h.2l.1-.1.4-.1h1.6l.2-.1h.3v-.1h.2l.2-.2h.1v-.2h.1l.1-.1.2-.1.1-.1.2-.1.2-.2v.3l.2.4v.2h.1v.1h.8v.5l.1.1h.1l.1.1h.5l.2-.1.2-.2h.3v-.1h.1l.2-.2h.4l.1.2v.2l.3.3v.1l.1.1v.2l.1.1.1.3v.1l.1.1v.2l.1.1h.2l.6-.1.2-.1h.2l.1-.1h.2l.1-.1h.6l.1.1h.1v.1h.1v.1h.1v.1l.2.2v.1h.7v-.1h.1l.2-.2h.1l.1-.1h.2v-.1h.1v-.1h.1l.1-.1v-.1h.1v-.5h-.1V76l-.1-.3v-1.3h.1v-.1h.2v-.1h1.7m-55 18-.2.2-.2.2h-.7l-.3-.2h-.2l-.1-.1h-1l-.2-.1h-.9l-.1.1h-.1l-.2.1-.2.2h-.1l-.1.1-.1.1v.1h-.1v.1h-.1l-.1.1h-.1l-.2.2h-.2l-.2.2h-.4l-.2.1h-.3v.1h-.2v.5h.2v.4l.1.2v.2h-.1v.1h-.2v.2l-.2.1v.2h-.2l-.2.2v.1l-.2.2v.1l-.2.2h-.1v.9h.2v.1h.1v.1h.2l.1.2h.1v.1h-.1l-.2.1-.1.1v.1l.1.2v.1h.1v.3h-.2v.9l-.1.1v.1h-.2l-.2.1h-.3l-.2.1-.2.1-.3.1h-.4v.1h-.2v.2h-.1v.6l-.1.1v.1l-.1.1v.2l-.2.1-.1.2h-.1v.2h-.1v.3h.6v.1h.1v.1h.1v.1h.1v.2h.1v.1h.1l.1.1h.8l.1.1.1.1h.1v.1h.1v.1h.2l.1.1h.5l.3-.1h.1l.1-.1h.1v-.1h.1v-.1h.1v-.2h.6v.3h-.1v.2l-.1.1v.3l-.1.1v.2l.1.3v.1h.1v.1h.3l.2.1h.1l.1.1h.1v.1h.1v.3l.1.2v.4l.1.1v.1l.1.2v.2l.1.1.1.1v.1l.1.1.1.1.2.2.1.2h.1v.1h.2v.1h1.4v.1h.4l.2.1h.1v.1h.6l.2.1h.2l.1.1h.2v.1h.1v.1h.1v.1l.2.3h.6l.3-.2.8-.4.6-.2.3-.1.4-.2.2-.1.3-.2h.6l.1-.1h.2l.8-.6h.1l.1-.1.1-.1.4-.3h.2v-.1h.1l.2-.1.2-.1.6-.3h.2v-.1h.1v-.1l-.5-.4-.3-.2-.3-.2-.7-.4-.2-.2h-.2v-.1l-.1-.1v-.2l.2-.1h-.2v-.1h-.1v-.3l.3-.3v-.1h.1v-.3l1.6-.2-.5-1.2-.1-.2v-.2l-.1-.1v-1.2h-.1V99l-.1-.1-.1-.2v-.1h-.1v-.4h-.1v-.1h-.2l-.3-.1h-.3V98h-.1l-.1-.1v-.1h-.1v-.1l-.1-.2h-.1v-.1h-.7v-.1h-.2v-.1h-.1l-.1-.2h-.2l-.3-.4v-.1h-.1v-.3l.3-.3v-.2l.1-.1v-.4h.2l.2-.1h.3v-.4l-.2-.1v-.2l-.2-.3-.1-.2v-.7h.1v-.3h-.1l-.1-.2v-.1l-.1-.1v-.1h-.1v-.1l-.1-.1-.1-.1h-.1l-.2-.2h-.1l-.1-.2h-.1v-.2l-.1-.1v-.2l-.1-.1-.1-.1h-.2v-.1h-.7l-.2.1-.1.1h-.1l-.2.1h-.1v.1h-.1v.1h-.1v.2l-.1.2h-.1v.2h-.1v.1M85 35.4l.2.3v.2l.1.2.1.2v1.1l.1.1v.3l.1.1.1.2.2.2v.1l.1.1.1.2.1.2v.8H86v.1l-.1.1-.2.2-.2.2-.7.7-.1.2-.1.1-.1.1-.1.2-.1.1v.3l.1.1v.1l.2.1.2.3.3.3h.1v.1l.1.1v.3h-.1v.1l-.3.2-.1.1v.5l.1.1.1.1.1.1v.1h.2l.1.2h.1v.1h.1v.1l.1.2v.7l-.1.1v.5l.1.1v.1l.1.1v.1l.1.2v.3h.1v.2l.1.1v.2l.1.2.1.1v.2l.2.3v.1l.1.1v.2l.2.2v.3l.1.1.1.4v1l-.1.1-.1.1h-.1l-.1.1-.2.1-.3.2h-.4l-.1.2h-.3l-.2.2H85l-.1.1-.1.1v.5h.1v.1l.1.1.2.1.1.1.1.1.1.2v.3l.1.1v.3l.2.3v1.1h-.1v.1h-.1v.1h-.2v.1H85l-.1.1h-.3v.1h-.1v.2h-.1l-.1.2h-.2v.2l.1.1.2.1h1.1l.2.1h.1v.1h.1v.1h.1v.2l.1.1v.2l.1.2v.1l.1.1v.1l.1.1.2.4.2.2v.2l.2.4.1.2.1.2.1.2.2.1v.1l.2.1h.1v.2l-.2.2-.2.2v.2l-.1.1v.8h-.1v.1l-.1.1-.1.2-.2.2v.2h-.1v.2h-.1l-.1.3v.1l-.1.1-.1.2h-.1v.1l-.1.1-.3.2h-.1v.1h-.1v.2l-.1.2v.2h-.1v.2l-.3.3v.2H85l-.2.1v.1h-.1v.1h-.4l-.1.1H84l-.1.1h-.1l-.1.1-.1.1-.1.2h-.1v.1l-.2.1v.1h-.1v.1H83v.1h-.3v.1h-.2v.1h-.2l-.1.2h-.1v.1H82v.1l-.1.1v.1l.1.1.1.1.5.3.2.2h.2l.2.3h.2l.2.2.1.1h.2v.1l.2.1h.1l.2.1.2.1h.1l.1.1h.1l.2.1v.1l.2.1v.1l.2.2.2.2.2.1v.2l.2.1.1.1v.1h.1v.2l.1.1.1.1.1.1h.2v.1h.4l.1.1h.1l.2.2h.2l.2.2h.2v.1h.1v.1h.1v.1h.1v.6h.1v.1h.2l.1.1h.5v.1h.2v.1h.1l.1.2h.1l.1.2h.1l.1.1.2.2v.3l-.1.1v.1h-.1l-.2.2-.1.1h-.1v.1H89v.1h-.1v.5h.1l.1.1.1.1v.1h.1v.5l.1.1.1.1v.1h.2v.2l.2.3v.1l.1.1.2.3.1.1.1.1v.2l.1.2v.2h.1l.1.2v.1l.1.1v.5l-.1.2-.1.1v.1l-.1.1v.7h-.1l-.1.1h-.1l-.2.2h-.2v.1h-.1l-.1.1v.1h-.1v.2l-.1.2-.1.1-.1.2H89v.1h-.2v.7l.1.1v.1l.1.1v.1h.1l.1.1v.1h.1l.1.1h.2v.1l.3.1v.1l.1.1v.1l-.1.1h-.1v.1h-.1l-.2.1h-.2l-.1.1-.1.1H89l-.1.1h-.1l-.2.1h-.2l-.2.1-.1.1H88v.6l.1.1.2.2.1.1h.1l.3.1.2.1h.6l.3-.2h.8v.2h.3v.1l.1.1.2.2v.4h-.7l-.2-.1H90l-.2.1v.1h-.1v.3h.1l.1.1h.6v.1h.3v.1h.1v.6l-.1.1v.1h-.2v.1H90v-.1h-.1v-.1l-.2-.1-.1-.1H89v.1h-.1v.1h-.1v.1l-.1.1v.4l.1.2.1.1v.1l.2.2.1.1v.3H89v.1H89v.1l-.1.1v.1h-.1v.2h-.1v.1h-.4v.1l-.1.2-.1.2v.6l.2.2v.1h.1l.1.1h.1v.1h.3l.1.1h.4l.2-.1h.1l.1-.1h.1l.1-.1.2-.1v-.1l.2-.2.1-.1v-.1h.1l.1-.1h.8v.1l.2.1v.1l.1.2.2.2h.1l.1.2v.1l.2.1v.5l-.1.2v1.3l-.2.2v.2H92v.1h-.2v.1H91v.1l-.1.1v.6h-.2v.1l-.1.1v.1h.1v.1h.1l.1.1.1.1h.1l.2.2.1.1v.1h.1v.1l.1.2v.2h.1v.1h.1l.1.1h.3l.2-.2h.6l.1.1.1.1v.1h.1v.2l.2.3v.1l.1.2v.1h.1v.1h.1v.1l.1.1.2.2h.1v.5h.1v.1h.1v.1h.2l.2.2h.1v.1h.1l.1.1v.4l-.1.1-.1.1h-.1l-.2.1h-.3v.1h-.1v.2h.1v.1h.2v.1h.1v.4l.2.3v.3h.1v.1h.1l.1.1.1.2.1.2v.1h.1l.1.1h.1v.1l.2.2.2.2-.1.1v.1l-.2.3v.2h-.1v.1l-.1.1h-.1v.1h-.1v.1h-.2l-.1.1h-.2l-.2.1h-.3v.1h-.2v.1H94v.1l-.1.1-.2.1-.2.2v.2l-.2.1v.1l-.1.1-.1.3H93v.1l-.1.1-.1.1h-.1v.2h-.3v.1l-.1.1h-.1v.1l-.2.2-.3.3-.2.1-.4.4H91v-.1l-.1-.1v-.3h-.2v.6l.1.1v.5h-.1v.2h-.2l-.3.1h-.8v.3H89v.7l-.2.1h-.2v.1h-.1v.1H87v.1h-.2v.1l-.1.2v.3l-.1.1v.2h-.1v.3h-.1l-.1.2v.2h-.1l-.2.2h-.2v.1h-.1l-.1.1h-.2l-.2.1h-.7v.1h-.2l-.1.1-.2.1v.2l-.1.1-.1.2-.1.1v.4h-.1v.1l-.1.3-.1.2v.1h-.1v.1H83l-.1-.1-.2-.2h-.1l-.2-.1-.1-.1-.2-.1-.2-.1-.3-.1h-.1l-.2-.1v-.1h-.1l-.3-.3h-.1l-.1-.1h-.1v-.3l.1-.1v-.2l.1-.1v-.2l.1-.1v-.1l-.1-.2h-.1v-.2h-.1v-.4h-.1v-.2h-.1l-.2-.3v-.2l-.3-.3-.1-.2-.1-.2-.2-.2v-.1h-.1l-.1-.1v-.1h-.6l-.1.1h-.1l-.2.2h-.6l-.2-.1h-1.9v-.1l-.2-.1-.2-.1-.1-.1-.2-.1-.1-.1h-.2l-.2-.1h-.1l-.1-.1-.2-.2H74l-.2-.2v-.1h-.2v-.2h-.2l-.1-.1H73l-.1-.1h-.5v.1h-.1v.1h-.1l-.2.2h-.3l-.1.1h-.2l-.1.1-.1.1-.3.1-.1.1h-.2v.1h-.3l-.2-.1h-.3l-.1.1h-.4l-.1-.1-.1-.1v-.1H69v-.3H69v-.2l-.1-.1-.2-.3-.1-.1v-.1l-.1-.1-.1-.3-.1-.1-.1-.2-.1-.2H68l-.1-.3-.1-.2-.1-.2v-.1l-.1-.1v-.6l-.1-.1-.1-.1h-.6l-.5.1h-.2l-.1.1h-.4l-.1-.1-.2-.2-.1-.1-.2-.2h-.1l-.1-.1h-.4v.1h-.1v.2l-.1.1v.4l-.1.1v.2H64v.1h-.1v.1l-.1.1-.1.1h-.1v.1h-.1l-.2.1-.1.1-.2.2-.2.2h-.2v.1H62l-.1-.1-.2-.1-.3-.2-.2-.1-.1-.1-.2-.1h-.1l-.1-.1h-.8l-.2.1-.3.2h-.1l-.1.1H59l-.1.2-.1.1-.2.2-.1.1h-.9v-.1h-.1l-.2-.1v-.2l.1-.1.2-.1.2-.2.1-.1v-.2l-.2-.1-.2-.1h-.2v-.1h-.2v-.1H57v-.1H57v-.6l-.1-.2-.1-.2v-.3l-.1-.1v-.4l.1-.1.1-.2v-.5l-.1-.2h-.1l-.1-.1h-.2l-.1-.1H56v-.1h-.2l-.4.2h-.1l-.1.1h-.1l-.2.2-.5.2H54l-.2.1h-.4v.1h-.2v.1h-.1v.1l-.1.1-.1.1h-.1v.1h-.5l-.1.1-.2.1v.1h-.6l-.2.1h-.2l.1.1.3.1.2.1.1.2h.1l.1.1v.1l.2.1.2.4.2.3h.1v.2l.1.1v.6h-.1l-.1.1h-.3l-.2.1h-.3v.1h-.3l-.2.2-.4.2-.3.1-.3.1-.3.2-.3.1v.8l-.1.1h-.2l-.2.1H49l-.4.1h-.2l-.1.1h-1l-.1-.1v-.1H47l-.1-.2-.2-.3-.1-.1-.1-.1h-.2v.2l.1.1v.5H46v-.2l-.1-.2v-.2h-.5l-.3.2h-.3v.1l-.2.1-.2.1-.2.2H44v.1H44v.5l.1.2.1.1v.2h.1v.5l-.2.3H44v.1l-.1.1v.5l.1.1.1.2.4.5.1.2h.1l.1.1.2.2v.1h.1v.1l.2.3.2.3v.6h-.1v.1h-.2l-.1-.1v-.1l-.2-.1-.1-.3-.1-.1v-.2h-.1l-.2-.3v-.2h-.1v-.1h-.1l-.1-.1h-.6l-.2.1-.4.1h-.2l-.3.2h-.1l-.2.1h-.7l-.1-.1-.1-.1H41l-.1-.2-.3-.2-.1-.1-.2-.1-.1-.1-.2-.1-.1-.1h-.1v-.2l-.1-.2v-.2l-.1-.1v-.1l-.1-.1v-.1l-.1-.2v-.1l-.1-.1v-.4l-.1-.1v-1H39v-.1h-.2v-.1l-.2-.1-.2-.2h-.2l-.2-.1H38v-.1h-.1v-.1l-.1-.1v-.1l-.1-.1v-.3l-.1-.1-.1-.1h-.1v-.7h.1v-.5h-.1v-.1h-.1l-.1-.2-.2-.2-.1-.1h-.1v-.1h-.2l-.2-.2h-.2l-.2-.2h-.1l-.1-.1-.1-.1v-.1l-.2-.2v-.1l-.2-.1v-.2l-.1-.2v-.1H35v-.2H35v-.2l-.1-.1v-.2l-.1-.1v-1.5l-.1-.1-.1-.1h-.1l-.1-.2-.3-.1v-.1h-.2v.1h-2.4v-.1l-.1-.1-.1-.2-.2-.2v-.1H31v-.1h-.2v-.1h-.1l-.2.2-.2.2-.2.1v.1h-.2v.1h-.1l-.1.1h-.2v.1h-1.3l-.1-.1-.1-.1-.1-.2-.1-.2v-.1l-.1-.2v-.3l-.1-.3v-.2l-.1-.5v-.3l-.1-.1v-.1l-.1-.1-.1-.1-.1-.1-.2-.1v-.1h-.1v-.5l-.1-.3v-.1l-.1-.1-.1-.1h-.1V97h-.8l-.1-.1v-.6h.1v-.1l.3-.2.2-.3.1-.1v-.1h.1v-.2h.1v-.7l-.1-.1-.1-.2v-1.4l-.1-.2v-.8l.1-.3V91l-.1-.2v-.3l-.1-.1V90l.1-.2h.1v-.6l-.1-.1V89h-.8l-.1-.1-.1-.1v-.4l.2-.2v-.1l.2-.1.1-.2.2-.2.1-.1.2-.1.3-.3.3-.2v-.1h.2v-.1l.1-.1v-.1l.1-.1V86h.1V86h.1v-.1h.2l.2-.1.2-.1h.1v-.2h.1v-.7l-.1-.2-.2-.5-.2-.4v-.2h-.1v-.1l-.1-.3v-.2h-.1v-.2l-.1-.1-.1-.2-.2-.2V82h-.1v-.2l-.2-.3v-1.4h-.1V80h-.1V80h-.1l-.1-.1H26l-.3-.1h-.2v-.1h-.2v-.1h-.1l-.2-.1-.1-.2h-.2l-.1-.2-.2-.1-.1-.1-.1-.1-.1-.2-.1-.1v-.1l-.1-.1V78l-.1-.2V77h.1v-1.2l-.3-1.5-.2-1.2v-.2l-.1-.3-.1-.4v-1.4h-.1v-.2l-.1-.3v-.1L23 70v-.2l-.3-.5-.1-.3-.2-.4-.4-.8.5-.2.2-.1.2-.1.2-.1.5-.3.3-.2.5-.2.3-.2.3-.1.2-.2h.2l.4-.3.3-.1.3-.2h.1l.4-.3.4-.2.2-.1h.1l.2-.2.3-.2.2-.1.3-.2.3-.2h.2l.1-.2.2-.1.3-.3h.1l.2-.1.1-.1h.2v-.1h.3l.2-.1h.2l.2-.2h.2l.3-.2.3-.1h.2l.2-.2h.1l.2-.1h.1l.7-.4.5-.3h.2v-.1l.5-.3.2-.1.1-.1.1-.1h.1l.3-.3.1-.1h.2v-.1l.2-.1h.1l.3-.2h.3l.2-.2h.1l.3-.2.4-.2.5-.2.2-.2h.2l.2-.2h.1l.3-.2.1-.1.1-.1.4-.2.2-.2.7-.4.3-.1.2-.2.3-.2.3-.2.5-.3.1-.1.2-.1.7-.5.2-.1.2-.1.4-.3.6-.4 1.5-1 .3-.2.3-.2.2-.1.1-.1.2-.2.3-.2.2-.1.3-.2.4-.4.3-.1.1-.1h.1l.1-.1h.2V52l.1-.1h.2v-.1l.2-.1.1-.2h.1l.1-.1.1-.2.2-.1V51h.2v-.1h.3l.1-.1.2-.1.1-.1h.1l.2-.1.2-.1h.1l.2-.2h.2l.2-.2h.1l.1-.1.5-.3.3-.2h.2l.3-.3.5-.3.4-.2.5-.3.3-.2.2-.1.3-.2.2-.1.2-.1.4-.3.4-.3.4-.2.7-.5.7-.4.2-.1.5-.4.3-.1.6-.5.2-.1.3-.2.2-.2.3-.2.1-.1.3-.2.1-.1.1-.1.3-.3.1-.1h.1l.1-.1.2-.1.1-.1.2-.1h.1l.5-.3.2-.1.7-.3.4-.2h.1v-.1l.4-.1.4-.2.7-.3h.1l.4-.2h.2l.3-.2.6-.1.1-.1h.1l.4-.2h.3l.6-.3.1-.1h.2l.1-.1.2-.1v-.1l.1-.1v-.4l-.3-.4v-.2l-.2-.3V38h-.1v-.2H70V37l.1-.1v-.1h.1l.1-.2.2-.2.2-.1.1-.1V36h.2V36h.2l.1-.1h1.8l.1.1h.3l.1.1h.1v.1h.1l.1.1.1.1v.2l.1.1v.4l.1.1v1.4h.8v-.1h.3l.3-.1h.4l.1-.1h.1l.4-.2h.2V38h.1l.3-.1h.2v-.1h.2l.1-.1h.2l.2-.2.2-.1h.1l.2-.2h.1l.2-.1h.1l.1-.1h.2l.2-.1.3-.1h.1l.2-.1.3-.1h.2v-.1h.3v-.1h.5v-.1h.4l.4-.2.3-.1.4-.1.2-.1h.2l.2-.1h.1l.2-.1h.1l.2-.1h.4l.3-.1h.1" clip-path="url(#p6313ca4dd2)"/><path d="M155.6 48.8h-.4l-.1.1-.1.1v.1l-.1.1v.7l.1.1.1.2.1.1v.2l.1.2v.7l.1.2v.9h.1v.2l.1.2.3.7v.2l.2.3v.3h.1v.2h-.1v.1h-.2v.1l-.1.1v.4l.1.1.1.1h.6v.1h.1v.1h.1v.2l.1.1v.4h.1v.7l-.1.1v.5l.1.1h.4l.2.2h.1v3.1l.1.3v1.3l-.1.5v.2l-.1.2v.3h-.1v.3h-.1v.1l-.1.1v.1l-.2.2-.2.1-.1.1h-.1l-.2.2h-.2v.1h-.3l-.2.1h-.4l-.2.1H154l-.1.1h-.2l-.1.1h-.2l-.1.1h-.1v.1l-.4.2v.1h-.2l-.1.1h-.2v.1h-.3l-.1.1h-1.1v-.1h-.2l-.3-.3h-.1l-.1-.1h-.1l-.2-.1h-.1l-.1-.1h-.8l-.2.1v.1h-.1v.1h-.1l-.4.6-.2.2v.2h-.2v.2h-.2v.1l-.1.1h-.1l-.1.1h-.1v.1h-.2l-.3.2-.1.1h-.1l-.1.1-.1.1v.1l-.1.1v.1l-.1.1v1l.1.1.1.1h.1v.1l.3.2h.2v.1h.1v.1l.1.1.1.2v.3l.1.1v.5l-.1.4v.4l-.1.2v.5l.1.2h.7v.1h.1v.6h-.1v.1l-.2.2v.1h-.1v.1l-.3.2-.1.1v.5l.1.3v.1h.3l.1.1h.1v.1h.1l.2.1.3.3v.1h.2v.1h.2l.3.1h.3l.1-.2h.2V76l.1-.1.1-.2h.1v-.1l.2-.1.1-.1h.1v-.1h.5l.1.1.1.1v.1l.1.1v.4l-.1.2v1.3h-.1v.2h-.1v.1l-.1.1h-.1v.1h-.1l-.2.1h-.2v.1h-.2v.1l-.1.1v.2h.1l.4.5.1.1.1.1v.7l-.2.2v.1h-.1l-.1.2-.2.2-.1.3h-.1v.2h-.1v.1h-.3l-.1.1-.1.1h-.2v.1h-.2v.1h-.2v.1l-.2.2h-.1l-.1.1h-.5l-.2.1h-.5l-.1-.1h-.1l-.3-.2h-.1l-.1-.1h-.1v-.1h-.2l-.1-.1h-.5v-.1h-.4v.1h-.1v.1l-.1.1v1h-.1v.2l-.1.1h-.1v.1h-.1l-.1.1-.1.1v.1l-.1.2v.1l-.1.1v.1l-.1.1v.3l.1.2.1.1.2.3v.1l.2.2v.2h.1v.1l.1.2v.1l.1.2h.1v.1h.1v.1h.1v.8h-.1v.1l-.1.1-.1.1-.1.1v.3l.1.1.2.2.2.2-.2.2v.1h-.2v.1h-.1l-.1.1v.3h-.1v.2h-.7v.3h-.1v.1l-.2.2v.2h-.1v-.1h-.1V90h-.2V90h-.2l-.2-.1h-.1l-.1-.1h-.2v-.1h-.1v-.1h-.1l-.1-.1-.1-.1h-.1l-.2-.1h-.1l-.1-.1h-.1l-.2-.1-.5-.3h-.1l-.1-.1h-.3l-.1.1-.1.1-.1.2-.1.1v.9l.1.1v.2h.1l.2.3v.1h.1v.1l.1.1v.4l-.1.1h-.1v.1l-.3.1-.2.2-.2.1v.1h-.2l-.2.1h-.1l-.2.1-.2.1v.2h.1v.1l.1.1.1.2v.2h.1v.1h.1v.1h.1l.1.1h.3v.2h.1v.1l-.1.2v.4h-.1v.1l-.1.2v.1l-.1.1v.5l-.1.1v.2h-.2v.1h-.1l-.3.2h-.2v.1h-.2v.1h-.1l-.1.3-.1.1-.1.1v.7h-.1l-.2.3-.1.2v.5h-.1v.2l-.1.1-.1.2h-.1l-.2.3v.1l-.1.1h-.1l-.2.2-.1.1h-.1v.1l-.1.1v.1l.1.2.2.1.1.1h1.5v.1h.1v.8l.1.1v.2l.2.3v.2h.1v.9l-.1.1v.4l-.1.1v.1l-.2.5v.2h-.1v.2l-.2.1v.2l-.2.3v.1h-.1v.2l-.1.1v.1l-.4.4v.1h-.5v.1h-.2v.1h-.1v.1h-.2v.2l-.2.2v.1l-.1.1-.1.1-.2-.1-.3-.3h-.4l-.1.1h-.1v.2h-.1v.1l-.2.1v.1l-.2.3v.1h-.4l-.1-.1h-.1v-.1l-.2-.2v-.1l-.1-.1-.1-.2h-.2v.1h-.2v.2h-.1v.1h-.1v.1l-.1.3-.1.2h-.1v.2h-.1l-.1.1-.1.1h-.3v.1h-.8l-.1-.1v-.9h-.1v-.1h-.1l-.1-.1h-.2v-.1l-.3-.1h-.7v.1h-.2v.1l-.3.3h-.1v.1h-.1v.1l-.1.1-.1.2-.1.2v.1l-.3.4v.2l-.1.1v.3h-.1v1.2h.1v.1l.1.1h.2l.2-.1h.4v.1l.1.2v.3h.1v.2l.1.2.2.2v.6h-.1v.1h-.2l-.1.2h-.1l-.1.1v.1h-.4l-.1-.1h-.9l-.2.1h-.5v-.1l-.2-.1h-.4l-.1.1h-.3l-.1-.1h-.1l-.1-.1-.2-.1h-.1v-1l-.1-.1-.2-.2v-.1h-.1v-.2l-.1-.1v-.1h-.1v-.2h-.2v-.1h-.2l-.1-.1h-.3l-.2.1h-1.3v.1h-.2l-.2.1h-.2l-.2.2h-.1l-.1.1h-.1l-.2.2-.1.1h-.9l-.4-.2h-.2v-.1l-.1-.1-.1-.1v-.2h-.1v-.2h-1.5l-.3.1h-.2l-.2.1h-1v-.3l-.1-.2-.1-.2v-.1h-.1v-.1l-.1-.1v-.1h-.1v-.1l-.2-.2h-.1v-.1h-.1v-.1l-.1-.1-.3-.7v-.2h-.1v-.7h.1v-.4h-.1l-.2.1-.2.2h-.1v.1h-.2l-.2.1h-.1v.1l-.2.1-.1.1h-.1l-.1.1h-.5l-.1.1h-.3l-.1.1h-.3v.1h-.4v-.1h-.1v-.4l-.1-.1v-.1h-.1v-.7h.1v-.1h-.2l-.2.2-.1.1-.1.1h-.1l-.1.2h-.1l-.1.2h-.7v.1h-.1l-.1.2h-.7v.3l-.1.1v.1l-.1.1-.2.2v.8h-.1v.1l-.2.2h-.1v.1h-.1l-.1.1h-.2v.1h-.1v.2l-.1.3v.1l-.1.1v.1l-.2.1v.2h-.2l-.4.4-.1.1-.2.1v.2l-.1.1v.4l-.1.2v1.1h-.4l-.3.1h-.4l-.2-.1-.2-.1v-.1h-.1l-.1-.1v-.1h-.2v-.2h-.1l-.1-.2v-.1h-.1v-.1h-.2v-.1h-1l-.3.1h-.1v.1h-1.5l-.1.1h-.4l-.1-.1-.1-.1-.2-.2-.1-.1-.2-.1h-1.2v-.2l.2-.3v-.1l.1-.2v-.2l.1-.2v-.7l-.1-.2-.2-.3v-.2l-.1-.1-.1-.1v-.6l.1-.1v-.1H97l-.1-.1h-.6v.1H96l-.3.2h-.1v.1h-.2l-.2.1h-.3v.1h-.7l-.1.1h-.7l-.5-.1h-.2v-.2h-.1v-.1h-.4l-.1-.1H92l-.2-.1h-.6v-.1H91v-.2l.4-.5.2-.1.3-.3.1-.2h.2v-.2h.1l.2-.1v-.1h.2v-.1l.1-.2.2-.1v-.3h.2v-.2h.1v-.2h.1l.2-.2.1-.1v-.1h.1l.1-.1h.1l.1-.1h.1v-.1h.2l.2-.1h.4v-.1h.1l.1-.1h.1v-.1h.2v-.2l.1-.1v-.1l.2-.4.1-.2v-.1l-.1-.1-.1-.2h-.1l-.2-.1v-.2l-.2-.2v-.1l-.1-.1H95l-.1-.1v-.2l-.1-.1v-.1l-.1-.3v-.2l-.1-.1v-.1h-.2v-.1h-.1l-.1-.1v-.2h.4l.1-.1h.1l.1-.1.1-.1.1-.1v-.4l-.1-.1-.2-.1-.2-.1h-.1v-.1h-.1v-.1h-.1V99h-.1V99l-.3-.2v-.1h-.1v-.1h-.1v-.1l-.1-.2-.1-.2-.1-.3v-.1h-.1v-.1l-.1-.1-.1-.1H93v-.1h-.6l-.2.1h-.1l-.1.1h-.2v-.1l-.1-.1v-.1l-.1-.3h-.1v-.1l-.1-.1h-.1l-.2-.2v-.1H91v-.1h-.2V96h-.1v-.2h.2v-.1l.1-.1V95h.1V95h.7l.1-.1h.1v-.1l.1-.1.1-.3.1-.1v-1.4l.1-.1v-.3l-.1-.2h-.1V92H92V92l-.3-.2v-.1l-.1-.2h-.1v-.1h-.1v-.1h-.9v.1h-.1v.2l-.2.1-.1.2H90l-.1.1h-.2v.1h-.2v.1h-.3l-.2.1h-.4v-.1h-.1l-.1-.1h-.1v-.2h-.1l-.1-.1v-.2H88V91l.2-.3h.3v-.1h.1v-.1l.1-.1v-.1h.1V90h.1V90h.2v-.3l-.1-.2-.1-.2-.2-.2V89l-.2-.2v-.2l.1-.1v-.1h.1v-.1h.1v-.1h.2V88h.6l.1.2h.2v.1h.2l.1.1h.5v-.1l.1-.1v-.1l.1-.1v-.5h-.3v-.1H90v-.1h-.1v-.1l-.1-.1V87h.1l.1-.1h.1l.1-.1h.4l.2.1h.5v-.3l-.2-.3v-.1H91V86h-.2l-.1-.1h-.1l-.1-.1h-.6l-.3.1-.2.1h-.6l-.2-.1h-.1v-.1h-.1l-.1-.1-.1-.1-.1-.1-.1-.1V85l.1-.1h.1l.1-.1h.2l.1-.1h.2l.2-.1.2-.1.2-.1.2-.1h.2l.1-.1.1-.1V84h.1v-.2H90l-.2-.2h-.2l-.1-.1h-.1v-.1l-.2-.1v-.1L89 83l-.1-.2v-.1h-.1v-.5l.1-.1h.1V82l.1-.1.1-.1v-.1l.1-.2v-.1h.1l.1-.2h.1l.1-.1h.1V81h.1l.2-.1.1-.1h.1v-.1h.1v-.8l.2-.2v-.2h.1v-.7l-.2-.1v-.3l-.1-.2V78h-.1V78l-.1-.1v-.1l-.3-.3v-.1h-.1v-.1l-.1-.3h-.1v-.1h-.1l-.1-.2-.1-.1V76h-.1V76l-.1-.1v-.1H89v-.1h-.1v-.5h.8l.1-.1.2-.2.2-.2.1-.1V74l-.1-.1-.2-.1v-.1h-.1v-.1l-.2-.1v-.1h-.1l-.1-.1h-.6v-.1h-.2v-.1h-.1V73l-.1-.1v-.4l-.1-.1h-.1l-.1-.1-.1-.1H88l-.2-.2h-.1l-.3-.1-.1-.1H87l-.2-.1h-.2v-.1l-.1-.1-.1-.1v-.2h-.1l-.1-.2-.2-.2-.1-.2-.2-.1-.2-.2-.1-.2h-.1l-.1-.2H85v-.1l-.2-.1h-.2l-.2-.2h-.2l-.2-.2h-.1l-.2-.1-.1-.1-.2-.1-.2-.1-.2-.2-.2-.1-.1-.1-.1-.1-.5-.3-.1-.1h-.1v-.3h.1v-.1l.2-.1.1-.1h.1v-.1h.1l.1-.1h.1l.2-.1.2-.1h.1v-.1h.1l.1-.2h.1v-.1l.2-.2.1-.1h.1l.2-.1h.2l.1-.1h.2l.1-.1h.1v-.1h.1l.1-.1.1-.1.1-.2.2-.3.1-.1v-.2l.1-.2v-.2h.1v-.1h.1l.1-.1.2-.2h.1V64h.1v-.1l.2-.2v-.2l.2-.2V63l.1-.1.1-.2.2-.2v-.2h.1v-.1h.1V62h.1v-.8l.1-.2.2-.2.1-.1v-.1h.1v-.1h-.1l-.1-.1-.1-.2h-.1v-.1l-.1-.1V60l-.2-.2v-.2l-.3-.4V59l-.2-.2-.2-.4v-.2h-.1V58h-.1v-.2l-.1-.2v-.1l-.1-.1v-.1H86v-.1h-.2V57h-.2l-.1-.1h-1.1v-.1h-.1v-.1l-.1-.1.1-.1.1-.1.1-.1v-.1h.1l.1-.1h.1l.2-.1h.4V56h.2v-.1h.1l.1-.1v-.1l.1-.1v-1l-.1-.3V54h-.1v-.4l-.1-.1-.1-.2v-.1h-.1L85 53V53H85v-.2l-.1-.1v-.4h.2l.1-.1.2-.1.3-.1.1-.1.4-.1.2-.1h.1l.1-.1h.1v-.1h.2v-.1h.1v-.2h.1v-1.4l-.1-.1v-.2h-.1l-.1-.3V49h-.1l-.1-.2-.1-.3v-.2h-.1v-.1l-.1-.2-.1-.2v-.2l-.1-.1v-.3l-.2-.2v-.2h.3v.1h.1v.1h.1l.1.2.2.3.1.2.1.1h.1v.1h.1v.1l.2.1.1.1h.1v.1h.1l.2.3.1.1h.8l.1.1v.1h.2v.3h.1v.3h.1v.5h.1v.1l.1.1h.1l.3.1h.1l.2.1.4.2h.2l.2.1h2.5l.9-.2h1l.7-.1h.5v-.1h.3V50h.1v-.6l-.2-1.2-.3-1-.2-1.1v-.8l.1-.1h.3v-.1h.5l.1.1.2.2.1.1h.4v-.2h.1l.1-.2V45h.1l.1-.1h.6l.1-.1h.1v-.1h.1l.2-.2v-.1h.6l.1.1.2.1v.1l.1.1.1.1h.1v.1h.1l.1.1h.4v-.3h.1v-.2h.1v-.2l-.1-.2v-.6l.1-.1v-.1h.1l.1-.1.1-.1h.1l.6.2.8.4.2.1.1.1h.1v.1h.1l.1.1.2.2h.1v.1h.2l.1.1h.2l.2.1v.1h.3l.1.2h1.8l.2.1.2.1.2.1.2.2.2.1.2.2.2.1.2.1h.3l.1.1h.2v.1l.3.3.1.1h.1l.1.1h.2v.1h.2l.2.2h.4v.1h1.6l.7.2.4.1h.3l.2.1h.2v.1h.1v.2h.2v.2l.2.2v.1h.1v.1h.1l.1.1h.6v-.1h.4v.1h.2l.3.2v.1h.2l.2.2h.1v.1l.1.1v.6l-.1.3v.1l-.1.1v.4l-.1.2v3.3h.2v.1h.2l.1.1.2.2.2.1.1.1.1-.2v-.1h.7l.3.2h.3l.1.1h.5v-.1h.2l.2-.2h1.6v.1h.3l.2-.1.1-.1.4-.3h.1l.2-.2h.1l.2-.2h.1l.1-.1h.1l.1-.1h.2l.1-.1h.3v.1h.1v.7l-.1.1-.1.1-.1.1h-.1l-.3.3-.1.1v.4l.1.1.2.3h.1v.1h.5l.1-.1h.7l.2-.1.1-.1h.2v-.1h.2v-.2l.2-.1h.2v-.9h.1v-.1h.1V54h.1l.3-.1.1-.1h.2l.1.1.2.3.1.1v.1h.5l.2-.1h.1l.1-.1h.4v-.1h.4V54h.1l.1-.1.1-.2h.1v-.2l.2-.2.1-.1h.1l.2-.1h.2l.2-.1h.2V53h.1l.1-.3.1-.2h.1v-.2h.1v-.1h.1l.2-.2.2-.1.2-.1.2-.2h.1l.1-.1.1-.1.2-.1v-.1h.1V51h.2l.1-.1.1-.1h.1l.2-.1h.6l.2.1h1.2v.1h1.2l.1-.1h.2v-.1h.1v-.1h.1v-.1l.3-.2h.1l.1-.2h.2V50l.3-.2.1-.1.3-.2.5-.4.3-.2.3-.2.7-.5.5-.4 1.1-.8 2.2-1.6.5-.3.3-.2h.1l.1-.2.3-.4 1.8-2.2.7-.9 1-1.3 1.8-2.3h.4l.1.1h.4v.1h.2v.1h.1l.1.1h.1v.1h.2v.1l.1.1v.1h.2v.2l.1.1v.1l.1.1.1.2v.2l.1.1v.4l.1.1v1.1l-.1.2v.2l-.1.2v.2h-.1v.9l.1.2v.2h.1v.2l.1.1v.1h.1v.2h.1l.1.1v.1h.1l.1.1v.1h.2v.1h.1l.1.1h.2l.1.2h.4v.1h.5l.3.2h.3l.1.1h.1v.1h.2v.1h.1v.1l.1.1.1.2h.1v.2l.1.1v.9l-.1.1v.1l-.1.1-.1.1-.1.1-.3.3-.2.2v.1h-.1v.2h-.1l-.1.1v.1l-.1.2-.1.1v.1h-.1" clip-path="url(#p6313ca4dd2)"/><path d="m110.3 107.4.1.1v.3l.1.1v.1h.1v.1h.4l.3-.1h.3v-.1h.6l.1-.1h.1l.2-.2h.1v-.1h.1l.1-.1h.3v-.1h.1l.2-.2h.1l.1-.1.1-.1h.1v.5h-.1v.7l.1.1.3.6v.2h.1v.2h.2l.1.2h.1l.1.2v.1l.1.1.1.1v.2l.1.2v.1l.1.1v.1h1.4l.2-.1h.5l.2-.1h.8v.1h.1v.2h.1v.1l.1.1h.1v.1h.1l.1.1.3.1h.1l.2.1h.8l.2-.2h.1v-.1l.2-.1.2-.1h.1l.1-.1h.3v-.1l.1-.1h1.5l.1-.1h.3l.1.1h.1v.1h.1v.1h.1v.2h.1l.1.2.1.2.1.1.2.2v.3h.1v.2l-.1.2v1.1l-.1.1v.1l-.2.7-.1.2v.7h.3l.1.1h.3l.1.1.1.2.1.2.4.5.1.2v.2h.1v.5l-.2.2h.9v-.1h.2l.2-.1h.2v.2h.1v.1l.1.1h.1l.1.1h1.9v.1h1.2v.1h.5l.3.1h.4v-.1h.1v-.1h.1l.2-.3.2-.1v-.1l.2-.1v-.1h.1l.1-.1h.1l.1-.1h.1l.1-.1h.3l.1.2h.2v.1h.1l.1.1h1.1l.1-.1.3-.2.1-.1.4-.2v-.1h.7v.1l.2.3.1.1h.2v-.2h.1v-.1l.2-.2v-.2l.4-.7.2-.5v.1h.6l.2-.1h.2l.1.1v.1l.1.1v.1h.1v.1h.4v.1h.1l.1.1h.2l.4-.1h.1l.1-.1h.3v.3h-.4l-.1.1-.3.2h-.4v.1l-.1.1v.6h.1l.1.2v.1l.1.1v.9l-.1.2v.4l-.1.1v.8l-.3.4v.2h.1l.2.1.1.1v.1l.1.1v1.2l-.1.2h-.3v.2l.1.2.1.1v.2h.1v.2l.1.2v.4h.1v.3h.1v.1l.2.2.2.2v.1h1l.1.1.3.1.2.1.2.1h.6l.1-.1h.1v-.1h.1v-.1h.2v-.2l.1-.1v-.2l.1-.1v-.1h.1v-.2h.1v-.1h.2v-.1l.2-.2.3-.2v-.1h.1v-.1l.1-.1.1-.2.1-.1.1-.2.1-.2v-.1l.1-.2.1-.1h.1v-.2h.1l.2-.2v-.1l.2-.2h.4v.1h.2v.1l.2.2.2.2.1.1.1.2h.1v.1h.1l.3.2v.1h.1v.1l.1.1v.1l.1.1v.9l-.1.1v.2l-.2.2v1.1h.1v.2h.3l.1.1h.3v.1h1.6l.2.1h.2v.1h.2l.1.1h.2v.1l.2.1.1.1h.1l.1.2.2.1h.1v.2h.1-.1v.1l-.2.1-.2.2v.4l.2.7v.5l-.1.2h-.1v.1h.1l.2.2h.1v.1h.5l.1.1h.6l.1-.1h.4l.1.1.1.1.2.1v.1h.1l.1.1v.1l.1.2.1.1v.1h.1v.1l.3.3.2.1v.2h.1l.1.1.1.1v.1h.1v.2l.1.2.1.2v.2l.2.2v.1h.1v.1h1.2l.2-.1h.8l.1.1v.6h-.1v1.1l-.1.1v.1l-.1.1h-.1v.1h-.1l-.2.1v.1l.1.1.1.1.2.2.1.1h.6v-.1l.1-.1v-.1l.2-.1v-.4l.1-.1v-.1l.2-.1.2-.2h.1l.1-.1.2-.1h.1v-.1h.1v-.4h.1v-.1h.5l.2.1h.3l.1.1h.2v.1l.2-.1v-.1l.2-.1v-.2h2.8l.1.1.2.2v.1h.1v.1h1.6l.1.1.2.1.1.2h.7l.4-.2h.3v-.1h.2l.1.1v.1l.1.1.1.1.1.1v.1h.1v.3h-.1l-.2.3h-.2v.2h-.1v.2l-.1.2v.9l-.1.2v.5l.1.1h.1l.1-.1.1-.1.2-.3v-.1h.1l.1-.1h.9l.1-.1h.1v-.1h.4l.3-.2h.2l.1.1v1.1h.1l.2.1.4.2h.4l.2-.1h.1l.2-.2h.1l.2-.2h.2v-.1h.4l.1-.1h.1l.2-.1h.2l.3-.2h.2l.6-.3.2-.1 1-.4.3-.2.1.4v.1l.1.2v.9l-.2.3v.3l-.1.1v.1h-.1v.1h-.1l-.1.1-.2.1-.1.1-.1.1v.2h-.1v.4h-.1v.2l-.2.4v.1l-.1.2v.9h.1v.9h.4v-.1l.2-.2.3-.2v-.1h.2v-.1h.1v-.1h.6v.1h.4v-.1h.2v.1l-.2.2v.1l-.1.1v.7h.1v.1l.2.3v.1l.4.4v.1l.1.2v.6l-.2.3v.3h-.1v.1h-.1l-.2.3v.1h-.1v.2l-.1.2v.3l-.1.1v.1h-.1v.1h-.1l-.1.1h-.2l-.2.1h-.1v.2l.1.2.1.1.1.2v.1h.1v.4l-.1.1-.1.1h-.5v.1h.1v.1l.1.2h.1v.1h.4v.1l.1.1v.5h.1v.1h.5v.1l.2.1.1.1h.2v.1h.2l.1.1h.5l.2-.1h.3v.1h.1v.4l-.2.2v.1l-.1.1v.2h-.1v.4l-.1.3v.2l-.1.3v.1h-.1v.1h-.1v.2l-.1.1v.1h-.1l-.2.1-.2.1v.1h-.1l-.1.2h-.1l-.1.1h-.4v.5h.1l.1.2.1.1.2.1.1.1v.1h.1l.1.1h.1l.2.1.1.1h.1v.1l.1.1v.3l-.1.1h-.1l-.1.1-.3.1-.1.1h-.1v1l-.1.1v.1h-.1l-.2.2v.1h-.1v.1h-.1v.1l-.1.2v.2l-.1.1v.9l.2.2v.8h-.1v.2h-.1v.3h.1l.3.2h.1v.1h.1v.2l.1.2v.5l.1.1v.6h-.1v.2l-.2.1v.2l-.1.1h-1l-.3-.1h-.9l-.2.2h-.2l-.4.2h-.4l-.2.2h-.4l-.4.2h-.4l-.1.1h-.6v-.2l-.1-.1v-.1h-.2v-.1h-.1l-.3-.2-.1-.1v-.5h-.1v-.1l-.1-.1-.1-.1h-2v.1h-.2l-.1.1v.2l-.1.1v.3l-.1.1v.2h-.1v.2l-.2.2-.1.1v.4l-.1.1v.1l-.1.1-.1.1-.1.1-.2.2h-.7l-.1-.1h-.5l-.2-.1h-.3l-.1-.1h-.5v.1h-.2l-.1.1h-.6l-.3-.2h-.2l-.3-.1h-.2v.9l-.1.1v.1l-.2.3v.1h-.1v.2h-.1v.1h-.1v.1h-.2v.1l-.2.1-.1.1h-1.5v.5l-.1.1v.1h-.1l-.1.2-.2.1v.3h-.1v.1l-.1.2-.1.1-.1.1h-.3l-.2-.1-.2-.1h-.5l-.2.2h-.8l-.1.1-.1.2h-.1l-.2.1h-.1l-.2.2v.2l-.1.1h-.2v.1h-.4v.1h-.1v.1h-.1v.1h-.2l-.1.1h-.1l-.2.2h-.2l-.2.3h-.1l-.1.2h-.1v.1l-.1.1v.4l-.1.2v.2h.1l.1.1h.1v.1h.1v.1l.2.2v.2h.2v.1h.2l.1.2h.2l.1.1.1.1.1.1v.1h.2v.1h.3v.1h.1l.1.1.2.1.1.1h.2l.2.2h.2l.1.1h.1l.3.2.2.1v.1h.1l.2.1h.1v.1h.1l.1-.1v-.1h.1v-.1l.2-.1.1-.2.1-.1.1-.1.1-.1.2-.1v-.1l.1-.1.2-.2.1-.1.1-.1v-.1h.2v-.1h.4l.1.2h.2l.1.1h.2v.1h.5v.1h.1v.1l.2.2v.1l.1.1.2.1h.3v.1h.1v.7l-.1.2v.1l-.1.1v1.2l-.1.1h-.1v.1h-.1v1.1l-.1.2v.8h.1v.1h.1v.1l.1.1v.2l.1.3v.5h-.1v.1l-.1.1-.1.1h-.1l-.2.2h-.2l-.3.2-.3.2v.1h-.2v.1l-.4.1h-.1l-.1.1h-.1l-.1.1-.1.1v.1l-.1.1v.4l.1.4v.4l.1.1.1.1h.2l.2.1h.1v.1h.1v.1l.2.1v.1h.1l.2.1v.1h.1l.1.1v.1l.1.1.1.2v.1l.1.1v1.6l.2.1v.2h.1l.2.2.2.2.1.1.1.2.1.2v.1h-.1v.1l-.1.3-.1.1-.1.1-.1.1-.1.1-.1.1h-.1v.2h-.1v.3l-.1.1v.9l.1.2v.5h.1v.7l.1.2v.5l.1.2v1.2l-.1.5v.7h.1v.2h.1v1l-.1.1v.4h.9v.1h.2v.2h.1v1.3l.1.3v.4l.1.2v.7h.1v.3l.1.3v.2l.1.2v2.2l.2.2v.2l.1.2.1.3v.1l.1.1v.1l.1.2.1.2.1.2.1.1.2.3.3.4.1.2.1.2h.1v.2l.2.2v.3l.2.2.1.5v.2l.1.2v.8l-.1.1-.1.2h-.1v.2h-.1l-.1.2-.3.3h-.1l-.4-.2h-.1l-.3-.2-.2-.1h-.1l-.1-.1h-.2l-.3-.1h-.2l-.2-.1h-1.2l-.1-.1-.1-.1-.3-.2h-.2v-.1h-2.3l-.1-.1h-.1v-.1h-.1v-.1l-.2-.2-.1-.1-.3-.4h-.1l-.1-.1h-.1v-.1h-.6l-.1-.1h-.4l-.1-.1-.2-.1-.2-.1h-.1l-.3-.3h-.4v.1l-.2.1h-.1l-.1.1h-.1l-.1.1h-.3l-.2.1H152l-.1.1h-.1l-.3.1h-.3v.1h-.3v.1h-.1l-.2.2h-.2l-.1.1h-1.8v.1h-.6l-.2.1h-.2l-.1.1h-.1l-.1-.1V205h-.1l-.2-.1v-.1h-.2v-.1l-.3-.1-.3-.1h-.1v-.1h-.2v-.1l-.2-.2-.1-.1h-.1l-.1-.1h-.6l-.4.1h-.9l-.1-.1h-.1v-.5h.1v-.2h.1v-.1h.1l.2-.1.1-.1h.1v-.1h.1v-.1l.1-.1v-.1l.1-.1.1-.3.2-.3v-.9h-.8v-.1h-.1v-.1h-.1v-.1h-.1v-.2h-.1l-.1-.1v-.2h-.1v-.1l-.2-.1v-.1h-.1v-.2h-.1v-.2l-.1-.1v-.8l.1-.2v-.1l.3-.4.1-.2.1-.1v-.1h.1v-.1l.1-.1.1-.1v-.1l.1-.1.2-.4v-.2l.1-.1.1-.1.1-.2v-.1l.1-.1.1-.1.1-.1v-.1h.1v-.1h.7l.3.2h.4l.1-.1h.2l.3-.2.3-.1h.1l.1-.1.1-.1v-.1l.2-.3v-.1h.1v-.1h.1v-.1h.3l.3-.2h.3l.3-.2h.2v-.1h.1l.2-.1.1-.2.2-.2h.1v-.1l.1-.1v-.1h.1v-.3l.1-.2v-.5l-.1-.1-.1-.2v-.2l-.1-.1v-.3h-.1v-.1l-.1-.1-.2-.2-.1-.1h-.1v-.2l-.2-.2v-.2h-.1v-.1l-.1-.1h-.1v-.1h-.1v-.1h-.2v-.1h-.1l-.1-.1-.1-.1v-.1h-.1v-.5h.1v-.3h-.3v-.1h-.1v-.5l.1-.3v-.1h.1V186l-.1-.1v-.8l-.1-.1v-.1H145l-.1-.1h-.5v.1l-.1.2-.1.2v.1h-.1l-.1.1h-.7l-.4-.2h-.2l-.1-.1-.2-.1v-.1h-.1v-.1l-.1-.1v-.5l.1-.1v-.1l.2-.1v-.2h.1v-.4l.2-.3v-.3h.1v-.2l.2-.1v-.1l.2-.1v-.1l.2-.1.2-.2h.1l.1-.1v-.1h.1v-.1l.1-.2v-.2l.1-.2v-.6h-.1v-.1l-.2-.2h-.1v-.5l.1-.1v-.1h.1v-.1l.1-.2v-.2h.1v-.3l.1-.2v-.5h.1v-.2h.1v-.1l.1-.1v-.7l-.1-.2-.2-.2-.1-.2-.1-.1v-.2l-.1-.1v-.4l.1-.1h.3l.1-.1h.5v-.1l.1-.1h.1l.1-.1h.1v-.2h.1v-.1l.2-.1v-.1l.1-.1v-.1l.1-.2.1-.2.2-.5v-.1l.1-.2.1-.1.2-.2v-.1l.3-.2.2-.2h.2v-.1h.3l.1-.1h.2v-.1h.1l.2-.2v-.1h.1l.2-.2.2-.1.1-.1.1-.2h.1v-.1l.1-.1v-.1h.1v-.3h.1v-.7h-.1l-.2-.2v-.2h-.1l-.2-.5v-.1l-.1-.1v-.1h-.1v-.2h-.1l-.1-.1v-.1h-.1l-.2-.1h-1.3l-.2-.1h-.3l-.1-.1h-.1v-.1h-.1v-.7h-.1v-.2h-.1v-.1h-.2v-.1h-.1v-.2h-.1l-.2-.1h-.3l-.1.2h-.1l-.2.1h-.1v.2l-.1.2v.1l-.1.1v.1l-.2.2v.4h.1l.1.1h.2v.1l.3.1h.1v.1h.1v.1l.2.3h.1v.1l.1.1v.7l-.1.1-.1.1h-.1v.1h-.1l-.1.1h-1.8v-.1h-.1v-1h-.1v-.8l-.1-.1h-.7v-.1l-.1-.1v-.9h.1v-1.4l-.1-.1v-.2h-.1v-.1l-.2-.3-.1-.2h-.1v-.1h-.5l-.1-.1v-.1l-.1-.1-.1-.2h-.1v-.2l-.2-.1v-.1h-.1v-.1h-.1l-.1-.1h-.1v-.1h-.7l-.2.2h-.4v-.1l-.1-.2v-.6h-.1v-.2h-.1v-.1l-.1-.1-.3-.3-.1-.1v-.1l-.2-.1v-.1l-.2-.2v-.1h-.1v-.1h-.2v-.1l-.3-.1v-.1h-.1v-.1l-.2-.2v-.2l-.1-.1-.1-.1h-.2l-.1-.1h-.4v-.1h-.1v-.1l-.2-.2-.1-.1v-.2l-.1-.1v-.3h-.1v-.2l-.1-.1v-.2h-.1v-.2h-.1v-.2l-.1-.1v-.1h-.6v.1h-.1v.1h-.1v.1l-.1.1v.2h-.1v.1h-.1l-.1.1h-.3l-.2.1h-.3l-.2.1-.1.1h-.4v.1h-.1l-.1.1h-.1v.1l-.1.2h-.1v.1h-.5l-.3-.2-.1-.1h-.3l-.1.3-.1.1h-.1v-.7h-.4l-.1.1-.2.1-.5.3-.2.1-.5.3-.4.2-1.6 1h-.2l-.2.1h-.1l-.1.1h-.1l-.2.1h-1.4V160h-1.4l-.2-.1-.1-.1h-.1v-.1l-.1-.1v-.1h-.4v-.5l-.1-.1v-.1h-.1v-.1h-.1v-.1h-.1v-.1h-.2l-.1-.1h-.1l-.1-.1h-.2l-.4-.2-.1.1h-.7v.1h-.1l-.1.1v.1l-.1.2v.1l-.1.1v.1h-.1l-.1.1h-.2l-.1.1h-.2l-.1-.2-.1-.1-.1-.2-.1-.2-.1-.1H116l-.2-.1h-1.4l-.1.1h-.1l-.1.1v.1h-.1v.1h-.7l-.2-.1h-.4l-.1.1h-.2v.1l-.1.1h-.1v.1l-.2.1v.1l-.1.2v.3l-.1.1v.7l-.1.3-.1.1-.1.1v.1l-.1.1v1.4l-.1.1v.6h-.5v-.1l-.1-.1-.2-.3v-.1l-.1-.1-.1-.1-.1-.1h-.3v.5l.2.2v.1l.1.1v.2l.1.3v.3h-.2l-.1.1h-.2l-.1-.1v-.2h-.1v-.1l-.2-.2v-.1h-.2v-.1l-.1-.1-.3-.2v-.1h-.1v-.1l-.1-.2-.1-.1-.1-.1h-.1l-.2-.2h-.1.4v-.3l-.2-.2-.1-.2h-.1l-.1-.2-.1-.1-.2-.2h-.1v-.2l-.2-.1-.1-.2v-.1l-.1-.1v-.9l-.1-.1-.2-.2-.2-.2v-.1h-.1V157l-.1-.1v-.1h-.1v-.1l-.2-.1-.1-.1v-.1h-.1v-.7h.1l.2-.3.1-.2.1-.1v-.1l.1-.2.1-.2v-.2l.2-.2.1-.1v-.1l.1-.1v-1.3l.1-.3v-1.1l-.1-.4v-1h-.1v-.5l-.1-.3V148h-.1v-.1l-.1-.1v-.1l-.2-.1-.1-.1v-.1h-.1v-.2l-.1-.2v-.3l.2-.3v-.6l-.1-.1v-.1h-.1l-.1-.1-.2-.3-.1-.1h-.2l-.1-.1h-.5v-.1h-.1v-.1l-.1-.1-.1-.1-.1-.2-.1-.1v-.2h-.1l-.1-.2v-.1l-.1-.1v-.2l-.1-.2v-.2h-.1v-.2l-.1-.1-.1-.2-.2-.1-.2-.2-.2-.2-.2-.1v-.1l-.1-.1-.1-.1-.1-.2-.1-.2-.1-.1h-.1v-.1h-.7l-.2.2h-.1v.1h-.2l-.2.1h-.8v-.1h-.1v-.1l-.2-.1v-.1l-.1-.1-.2-.1v-.1l-.1-.2-.1-.1h-.5v.1h-.9v.1h-.4l-.2.1h-.1l-.2.1v.1h-1.5v.1h-.2l-.1.2H95v.1H95l-.2.1h-.1l-.1.1-.2.1h-.1l-.1.1h-.4v-.2l-.1-.1v-1.3l.1-.1.2-.3.1-.1v-.1h.1l.1-.1.2-.1.1-.1.1-.1.1-.1.2-.2v-.2l.1-.2.1-.3v-.8H95l-.2-.2-.2-.1h-.1l-.1-.1-.3-.1h-.2v-.1h-.4l-.2.1H93l-.2-.1h-.2v-.1h-.2l-.2-.2H92v-.1h-.4v.2l-.1.1-.1.2-.1.1-.1.2H91v.1l-.2.1-.2.2v.1l-.2.1v.1l-.1.1v.2l-.1.2v.3l-.1.1v.2l-.1.1v.1l-.1.1v.1h-.1l-.1.1h-.5v-.1h-.1l-.1-.1h-.3l-.2.1-.1.2h-.1l-.1.1H88v.1h-.2v.1h-.3l-.2.1h-.2l-.1.2h-.2l-.2.1-.2.1h-.3v.1H86l-.1.1h-.5v.1h-.1v.1H85v.2h-.3l-.1.1h-.1v.1H84l-.1-.1-.1-.1v-.1l-.1-.1-.1-.2-.1-.2-.3-.3v-.1l-.1-.1H83v-.1h-.2v-.1h-.2l-.3-.1h-.2l-.1-.1-.4-.2h-.5l-.2-.1h-.2v-.1h-.1v-.1h-.1v-.3h-.1v-.1h-.1l-.2-.3-.1-.2H80l-.1-.1h-.3l-.2-.1h-.2l-.2-.1H79l-.2-.1-.2-.1-.2-.1-.1-.1-.2-.1h-.1v-.1h-.1l-.1-.2h-.1v-.1l-.1-.1v-.2l-.1-.2v-.1l-.1-.2v-.1l-.2-.2-.1-.2v-1.3h-.1v-.4l.1-.1v-.4l-.1-.1v-.2l.2-.2v-.4H77v-.2h-.1v-.8l.1-.2v-.2h.1v-.4l-.1-.1-.2-.2v-2l-.1-.2v-.3l-.1-.2v-.2h-.1v-.2l-.1-.2v-.2l-.1-.2-.1-.1v-.2l-.2-.1-.1-.2-.1-.2-.3-.2v-.1l-.2-.2v-1.1l-.2-.2-.2-.3-.1-.2-.2-.3-.1-.1v-.4l.1-.2v-.9l-.2-.2v-.2h-.1v-.2l-.1-.1v-1.2h.1v-.1h.1v-.1h.1v-.1l.3-.2h.2v-.1h.2l.2-.1.2-.1h.1v-.1h.1v-.5h-.1v-.2h-.1v-.2l-.1-.1v-.1l-.1-.2-.1-.2v-.2l.1-.1.2-.1v-1.3l-.3-.2h-.1v-.1l-.1-.1-.2-.4-.1-.2-.1-.1v-.2h-1.5v.1h-.3l-.1.1h-.3l-.1-.1h-.7v-.8h-.1v-.1h-.1l-.3-.1-.2-.1-.1-.1-.1-.1-.1-.1-.1-.1v-.5l.2-.2.1-.1v-.1l.1-.1v-.4l-.1-.1-.1-.1h-.1l-.1-.2-.2-.1v-.1h-.1v-.1l-.1-.1v-.1l-.1-.2v-.3l-.1-.1v-.2l-.1-.1-.1-.1v-.2l-.2-.2v-.1h-.1.2v-.1h.1l.1-.1h.4v.1h.5l.2-.2.3-.1.2-.1h.1l.1-.1h.3v-.1h.1l.2-.2h.2v-.1h.2v-.1h.5l.1.1h.1l.1.1.1.1.1.1h.1l.2.2.1.1.1.1.2.1.3.1h.1l.1.1h.1l.2.2h.1l.2.2h.1l.1.1h.2l.1.1H78l.2.1h.3l.2-.1v-.1h.2l.1-.1h.4l.2.1v.2h.1l.2.2v.2l.2.2.2.3.1.2.2.2v.2h.1v.4h.1v.2h.1v.1l.1.1.1.1v.3l-.1.2v.1h-.1v.1l-.1.2v.1l.1.1h.1v.1h.1l.3.2.1.1.1.1h.2l.2.1.1.1h.2l.2.2h.1l.2.2.2.1.2.1h.1v.1h.2v-.1l.1-.3.2-.3v-.4h.1v-.2l.2-.2v-.1l.1-.2h.1l.1-.1h.2v-.1h.7l.1-.1h.3l.1-.1h.1l.1-.1h.1v-.1l.2-.1h.1v-.2h.1v-.2l.1-.1v-.2h.1v-.2h.1v-.5l.1-.1.1-.1.1-.1h1.4v-.1h.1l.1-.1h.2l.1-.1h.1v-.8h.3v-.1l.1-.1.1-.1h1.1v-.2l.1-.1.1-.1v-.5h-.1v-.6h.1v.2h.1v.2h.1v.1h.1v.3h.7l.2.2h.5v.1h.1v.2h.3l.5.2h1.4l.1-.1h.3l.2-.1.1-.1h.2l.3-.2h.2v-.1h.4v-.1h.5l.1.1h.1v.2h-.1v.6l.1.2.1.2.2.3v.2h.1v1.1l-.1.2-.2.4v.1h-.1v.1h1.3l.1.1.3.3h.1v.1h.2l.1.1h1.7v-.1h.2l.3-.2h1.1v.1h.1v.1l.2.2.1.2.1.1.1.1.1.1h.1l.1.1.1.1h.3v.1h.9v-.9l.1-.3v-.4l.1-.1v-.2h.1v-.2h.1v-.1h.2v-.1l.4-.3.1-.1v-.1h.2v-.3h.1v-.2l.1-.3.1-.1.1-.1.2-.1h.1l.1-.1.1-.1.1-.1v-.1h.1v-.8l.1-.1.2-.2v-.2l.1-.1v-.2h.1v-.1h.6l.2-.1v-.1h.3v-.1h.5l.1-.1v-.1l.2-.1.2-.2.1-.1.2-.2h.2v.4l-.1.1v.3M57.4 106.7h-.1l-.1.1-.1.1v.1H57v.1l-.1.1-.1.1-.2.1v.1l-.4.2-.2.2-.2.2h-.2v.1l-.2.1h-.1l-.2.2-.2.1-.3.1v.1h-.2v.1l-.2.2-.1.2h-.2v.1h-.2v.1H53v-.1H53l-.1-.1h-.3l-.1-.1h-.2l-.1.1H52v.1h-.2l-.1.2v.1h-.2v.1l-.2.2-.2.1v.2H51v.6l.2.2v.2h.1v.4l-.1.1h-.1l-.3.2h-.1l-.1.1-.1.1v.1l-.1.1v1.6h-.1v.2l-.1.2-.2.2v.2H50v.1h-.1v.1h-.2v.1H49v.1h-.1v.8h-.1v.2h-.1v.1H48l-.1-.1-.1-.1v-.1l-.2-.2-.2-.4-.1-.1-.1-.2-.1-.1H47v-.1h-.6v.1h-.7v-.1h-.1l-.1-.1-.2-.2-.1-.1v-.1h.1v-.1l.1-.1v-.2h.1v-.2l-.1-.1-.2-.3-.2-.3v-.1H45v-.1l-.2-.2h-.1v-.1l-.2-.1v-.1l-.4-.5v-.1l-.1-.2v-.1l-.1-.1v-.4h.1v-.1l.2-.2h.1v-.7h-.1v-.2l-.2-.1v-.6l.1-.1h.1l.1-.1h.1l.2-.2.1-.1h.2l.1-.1.4-.1.5-.2v.6h.1l.1.1h.4v-.6l-.1-.2h.2l.1.1v.1l.2.2.2.2v.1h.1v.1h.1l.1.1h1.2l.4-.1h.2l.2-.1h.1l.1-.1h.1v-.9l.3-.1.3-.2.3-.1h.2l.1-.1.4-.2.2-.1h.2v-.1h.3l.3-.1h.3v-.1h.1v-.1l.1-.2v-.5l-.1-.1v-.1l-.3-.3-.2-.4H52l-.1-.2-.2-.1v-.1h-.1l-.1-.1h-.1l-.3-.2h.1l.1-.1h.5l.1-.1h.1l.1-.2h.5l.1-.1h.1l.1-.1.1-.2h.1v-.1h.1l.1-.1h.3l.2-.1h.4l.1-.1h.1l.4-.2h.1l.2-.1.2-.1.1-.1.3-.2h.4l.2.1h.1l.2.1.1.1v.1h.1v.8h-.1v.4h-.1v.4l.2.3v.7h.1v.1h.1l.1.1h.1l.1.1h.2l.1.1.1.1h.1v.1h.1v.2l-.1.1-.2.2h-.1l-.2.2M262.5 103v.3l-.1.1-.2.3v.8l.2.3v.1l.1.2.1.2.1.1v1l-.1.2v.1l-.1.1-.1.2-.1.2h-.1v.2l-.4.4v.1l-.1.1v.1l-.1.1-.1.2v.3h-.1v.2h.1l.1.2.2.2.2.1h.1v.1h.3l.1.1h.7l.2.1h.1l.2.2h.4l.1.1h.1l.1.1h.2v-.1l.1-.3.1-.1v-.1l.1-.1h.2v-.1h.2l.1-.1h.8v.2l.1.2v.2l.1.1v.1h.6l.1-.1.3-.1.2-.1.1-.1h.2l.1-.1h.4l.1.1h.2v.1h.2l.1.2h.2l.2.2h.1l.1.2.2.1.1.3h.1v.1h.1v.1l.2.1.1.1.1.1v.1h.1v.6h.1v.1l.1.1.1.2.3.3.1.1v.2h.1l.2.4v.2h.1v.1l.1.1h.2l.1.1h1.1l.2-.1.2-.1h.4l.2-.1h.4l.2-.1h.8l.1.1.3.2h.2l.2.2h.2l.2.3h.1v-.1l.2-.3v-.3h.2v-.2l.2-.2.2-.3v-.1l.2-.1v-.2h.2l.2-.3.2-.2.2-.3v-.1l.1-.1v-.2h.1v-.4l-.1-.2-.1-.2h-.1v-.1l-.2-.1-.2-.2h-.2v-.1h-.1v-.1h-.1l-.1-.2v-.1h-.1v-.2h-.1v-.5l.3.1h.1l.1.1h.3l.1-.1v-.1h.7l.1.1v.1h.1v.1h.6v-.1l.4-.3h.1l.1-.1h.1l.3-.2h.3l.1-.1h.2l.2-.2h.2l.3-.1.2-.1h1v.1h.2v.1l.1.1.1.2.1.1.1.1h.1l.1.1h.2v.1h1.6l.5-.1h.2l.1-.1h.6v.1l.3.2v.1h.1l.1.1v.1h.4v.1h.1v.1h.2v.1h.1v.1l.1.1v1l-.2.3v.2l-.1.2v.7l.1.1v.3h.1v.2h.1v.1h.2v-.2l.1-.1v-.3h.1v-.2h.1v-.1h.3l.4.2h.2l.2.1.3.1.2.1h.3l.1.1h1.3l.2-.1h.4l.2-.1h1.2l.1.1h.1v.2h.1v.1h.1v.1h.1v.2l.2.3v.3l.1.1v.5h.1v.2l.1.1.3.3v.1l.1.2.2.2v.2h.1l.2.2v.1l.2.2v.1h.1v.3l.1.2v.2l.1.1v.3h.1l.2.2v.1l.1.1h.1l.1.1.2.2.2.1.1.2.2.2.1.1v.3l.1.2.1.1v.3h.1v.1h.1v.2h.1l.1.1.1.2h.1l.1.1.2.1.3.2v.1h.1v.2h.1v.6l-.1.1h-.1v.1h-.2l-.2.1h-.2v.1h-.1v.4h.1v.1l.2.2.3.3.1.1v.1h.1v.1l.1.1v.6h.4v-.1l.1-.1v-.1h.1v-.1h.1v-.1h.1v-.1h.2v-.1h1v.1h1l.2.1.2.1.2.1.2.1.2.1.2.1h1l.2-.1h.3l.2-.1h.6l.1.1.1.1v.1h.1v.9h-.1v.2h-.1v.2l-.2.1v.1l-.1.2h-.1v.1h-.1v.1h-.1l-.1.2-.3.2-.2.1v.2h-.1v.9l-.1.2-.1.2v.1l-.2.2v.1h-.1v.1h-.1v.1h-.4l-.2-.1h-.5l-.1.1v.1h-.1l-.1.3v.1l-.1.1-.1.1v.1l-.1.1-.1.1h-.1v.2h-.2l-.3.2v.1h-.1v.2l-.2.3-.1.1v.1l-.1.1v.1h-.2v.1h-.2v.1h-.2v.1h-.3v.1h-.1l-.2.2-.3.3-.2.2-.1.1-.1.1v.7l.1.2v.8l.1.2h.1v.1h.1l.2.1h.2l.1.1h.1l.1.2h.2l.1.2.1.1v.1h.1v.3l-.1.1-.2.2-.1.1v.1l-.1.1v.6l.1.1v.1h1l.1.1.1.1.2.3h.1v.3l.1.1v.1h.1l.1.2.1.2.1.2.2.3v.1l.1.1v.1l.1.1v.4l.1.1.1.1h.1v.1h.2l.2-.1.1-.1h.1l.2-.1h.2v-.1h.2v-.1h.1l.3-.2.1-.1h.4l.2.1v.1h.6l.3-.3h.1l.2-.1h.7v.1h.1l.1.1.1.2h.1v.1h1.1l.2-.1h.2v-.1h.6l.1.1.2.2.1.1.1.1h.1l.3.2.3.1h.1l.1.1h.1l.2.2h.2l.1.1h.7v.1h.1v.2l-.2.2v.1l-.2.1v.3l-.1.1v.4l-.1.2v.5h.1v.2h.1v.9l.1.2.2.1v.1l.2.1h.1l.1.1h.1l.2.1h.2l.2.1h.8l.1.1h.1v.1l.1.1v.2h.1v.3l.1.2v.5l.1.2v1.1h-.1l-.1.4v.1l-.1.2v.1l-.2.3v.1h-.1v1.4l.1.1v.5h-.1v.2h-.1v.2l-.1.1-.1.1-.2.3v.2h-.1v.1l-.1.1v.2l-.1.1v.2h-.1v.1l-.1.1-.2.1-.1.2h-.1l-.1.2-.1.2-.1.1v.4h.1l.2.3.3.2.1.1.3.2h.1v.1h.1v.1h.1v.2h.1v.1h.1l.2.3v.2l.2.2v.4h.1l.1.1h.2v.1h.1v.1h.1l.2.2h.2l.1.1h.2v.1l.2.1.1.2h.2l.1.2.2.1v.1h.1v.1h.1v.2h.1v.3l.1.1v.2h.1v.1h.1v.1l.2.1v.1h.1v.3l.1.1v.7l-.1.1v.2h-.1v.1h-.1l-.1.1h-.1l-.2.1h-.3l-.2.1h-.7v.1l-.2.1v.2h-.1l-.1.1-.1.3h-.1v.1h-.1l-.1.1h-.9v.7l.1.1h-.1l-.3-.2-.2-.2h-.1v-.1l-.2-.1v-.2h-.2l-.2-.1h-.1v-.3h-.6l-.1-.2v-.2h-.1v-.1l-.1-.1h-.2v-.1h-.2l-.1.1-.2.1h-.1v.1h-.9v.1h-.1v.1h-.1v.8h.1v.2h-.1v.1h-.4l-.1.1h-.1l-.1.1v.8l-.1.2-.1.1v.1l-.2.2v.1l-.1.1-.2.2v.4l-.1.2v.7l.2.1v.2l.1.1v.5l-.1.1-.2.2-.1.2h-.1v.1l-.1.2h-.1v.1h-.1v.1h-.1v.1h-.6v.1h-.2v.1h-.9l-.3.1-.1.1h-.1v.1h-.2l-.1.1h-.4v.1h-.4l-.1.1-.2.1-.2.1h-.1l-.1.1h-.1v.1h-.1l-.1.1-.1.1h-.3l-.1.1-.3.2-.1.1h-.1v.1l-.1.1v.1l-.1.2v.2l-.1.1v.1l-.1.2-.1.2-.1.2-.1.1v.1h-.1v.1h-.1v.1h-.2l-.1.1h-.7l-.1.1h-.2l-.1.1h-.1v.1l-.1.1h-.1v.5l.1.1v.3h-.1v.1h-.1l-.2.1-.1.1-.1.1v.4h.1l.2.2h.1l.2.1.1.2h.1l.1.2v.1h.1v.1l.1.1v.2h.1v.2h.1v.1l.2.2v1.8l.2.3v.6l.1.1v.3h-.2l-.1.1h-1.5v.1h-.1v.1h-.1v.1h-.1l-.1.3v.1l-.1.1h-.3l-.1-.1-.1-.1-.1-.1h-.1l-.1-.1h-.2v.2h-.1v.5h-.1l-.1.2-.1.1v.3l.1.1.2.2v.7h-.1v.1h-.1l-.1.1h-.1l-.2.1-.1.1v.2l.1.1.1.1.1.1h.9l.1.1v.2l.1.2v.7l-.2.1v.2h-.1l-.1.1-.1.1-.3.1-.1.1h-.1v.1l-.1.1-.1.3h-.5v-.1l-.2-.2h-.1l-.1-.1h-.1v-.1h-.2l-.1-.1h-.3l-.1-.1h-.1v-.1h-.1v-.6h.1v-.2l.2-.2v-.1l.1-.1.2-.2v-.1h.1v-.2l-.2-.1v-.1l-.2-.2v-1.1h-.1v-.1h-.2l-.1-.2h-.2l-.1-.2h-.2v-.1h-.2v-.1h-1l-.3-.1h-.5v1.2l-.1.2v.1h-.1v.1h-.1l-.2.1h-.1l-.1.1-.3.1v.1h-.9l-.2-.1-.3-.1-.3-.2h-.1l-.2-.1-.2-.1-.2-.1-.2-.1v-.1l-.1-.1-.1-.1v-.1h-.1v-.5l-.1-.2v-.5l-.1-.1-.1-.3-.1-.3v-.3l-.1-.2-.2-.4v-.7l.1-.1.3-.3.1-.1v-.1l.1-.1v-.1h.1v-.4h.1v-.3h-.1v-.1h-.1l-.2-.1h-.5l-.1.2h-.5l-.1-.1v-.6l.1-.1v-.4l-.1-.2v-.8l-.1-.1v-.1l-.1-.3v-.6l-.1-.3v-.6l.1-.2.1-.2v-.1l.2-.3v-1.2l-.1-.2v-.1l-.2-.5v-2.3l.1-.3v-.9l.1-.4v-.7l-.1-.1v-.2l-.1-.4v-.2l-.1-.1v-.1l-.1-.1-.1-.1h-.1l-.1-.1-.2-.1-.3-.1h-.1l-.2-.1-.5-.2h-.2v-.1h-.1l-.1-.1-.1-.1v-.1l-.1-.1v-.1l-.1-.1-.1-.2v-.4h-.1l-.6.1h-.2l-.2.1h-.4v-.1h-.1v-.1l-.1-.1-.2-.2v-.1h-.2v-.1h-.1v-.1h-.2v-.1h-.3l-.3-.2h-.4v.1h-.1l-.2.2-.1.1h-.1v.1h-.3v.1h-.5l-.5-.2h-.1l-.1-.1-.3-.1-.2-.2h-.2l-.1-.1H278v-.1h-.2l-.2-.2-.4-.1-.2-.1-.2-.1-.1-.1-.2-.1h-.1l-.1-.1h-.1l-.1.1-.1.2v.1l-.2.2v.2l-.2.3v.1l-.1.1v.2l-.1.1v.8h.4l.2.1.1.1h.1v.1l.1.1.1.1.1.2.2.2v1l-.2.3v.3h-.1v.2l-.2.1v.2l-.2.1v.2h-.1v.6l-.2.2h-.1v.1l-.1.2-.1.1-.1.2h-.1v.4h-.1v.4h1.1l.2-.1h.9v.1h.3v.1h.1v.2l-.1.2h-.1l-.1.1-.1.1v.1l-.1.1-.1.3v.1h-.1v.1l-.1.1h-.2l-.2.1h-.2v.1h-.2l-.2.1-.4.3h-.1l-.1.1h-.1l-.3.1h-.5l-.3-.2h-.1l-.1-.1h-.6l-.1.1h-.5l-.1.1h-.1v.1h-.1v.4l-.1.2v.2h-.2v-.3l-.1-.1-.1-.2-.1-.1v-.1h-.1v-.1h-1.9l-.3-.2h-.2v-.1h-.3v-.1h-.5l-.3.2h-.2l-.1.1-.1.1-.1.2h-.1v.1h-.1l-.1.1h-.2v.1h-1.5l-.1-.1-.1-.1v-.2h-.1v-.4h.1v-.2l.3-.1v-.2l.2-.1v-.1l.1-.1.1-.2v-.1h.1v-.2l.1-.2v-.1l.1-.5v-.2l.1-.2v-.1l.1-.1v-.1l.1-.1.1-.1h.1v-.2h.2v-.1h.1v-.1l.1-.2v-.5l-.1-.1h-.3l-.1-.1h-1.5l-.1-.2h-.1v-.1l-.2-.2-.2-.3v-.1h-.1v-.2h-.1v-.1l-.1-.2v-.1l-.1-.1v-.3l-.3-.7v-.5h.3v-.1h.1v-.1l.1-.1v-.1l.1-.1v-.8l-.1-.2v-.8l.1-.1.1-.2h.1v-.1l.1-.1.1-.1v-.2h.1v-.4h-.5l-.1-.1-.2-.1h-.6l-.2.1-.1.1h-.4l-.2.1h-1.4v-.1l-.1-.1v-.6l.1-.1v-.2h.1l.1-.2-.3.1h-.2l-.2.1h-.2l-.1.1h-1.3l-.6-.5h-.1l-.2-.1h-.2v-.1l.1-.1.1-.1v-.2l-.1-.1-.4-.2h-.1l-.5-.3-.2-.1-.1-.1h-.1l-.1-.1-.1-.2h-.1l-.1-.1v-.1h-.1l-.2-.3v-.1l-.2-.1v-.1l-.3-.2-.1-.1v-.2h-.2v-.1l-.1-.1h-.1l-.2-.1h-1l-.1.1h-.3l-.1.1-.1.1-.2.1-.1.2-.2.1h-.1v.2h-.3v.1h-1.2l-.1-.1h-.1l-.2-.1-.2-.1-.2-.1v-.1l-.1-.1v-.3h.1l.1-.2v-.1h.1v-.2l-.1-.1h-.9l-.1-.1v-.5l-.1-.1v-.1h-.1v-.1h-.2l-.2-.2h-.1v-.1h-.1v-.5l.1-.1v-.2h.1v-.3l-.1-.1v-.2h-.4l-.2.1-.1.1h-.1l-.2.2-.1.1h-.1l-.2.1-.2.2h-.2v.1l-.2.1-.2.1h-.2v.1l-.2.1h-.1v.1l-.2.2-.2.1-.2.2h-.8v-.1h-.1v-.4l-.2-.2-.1-.2v-.1h-.1v-.3h-.8v-.1h-.2v-.1h-.1l-.1-.1-.1-.1v-.1h-.1v-.2h-.1v-.1l-.1-.1-.1-.1h-.1v-.1h-.2v-.1h-.6l-.2.2h-.1l-.1.1h-.1v.1h-.1v.1h-.1v.1h-.1v.1l-.1.1v1.3h.1l.2.1h.9v.1h.1v.1h.1v.2h.1v.2l.1.2v.6l-.1.1-.1.1-.1.1-.2.1v.1l-.3.1-.2.2-.2.1-.2.2-.2.2-.3.3-.3.3v.1h-.1v.2l-.1.2-.1.1v.1h-.1v-.1l-.1-.1v-.1h-.2v-.2h-.1l-.1-.1-.2-.1h-.3l-.2.2h-.1v.1l-.2.1-.1.1h-.7v-.3h-.1v-.1l-.2-.1v-.1h-.1l-.1-.1h-.8v.1h-.1v.1l-.3.3-.1.1h-.1v.2h-.1l-.2.1-.1.1-.2.2-.5.3h-.2l-.1.2h-.2l-.1.1-.3.1h-.1l-.1.1h-.1l-.2.2-.3.2-.2.1h-.3l-.1-.1v-.1l-.4-.4-.1-.2-.1-.1-.1-.1-.2-.2v-.1l-.1-.1v-.5l-.1-.2v-.7l.2-.2v-.3l-.1-.1h-.4v-.1h-.1v-.2h-.2l-.2-.2h-.1l-.1-.1-.3-.1h-.2v-.1H228l-.1-.1h-.2v-.1h-.1v-.1h-.1v-.1l-.1-.1-.2-.2v-.1l-.2-.2v-.1l-.5-.7.2-.2.2-.2.3-.2v-.1l.2-.2h.1l.1-.1v-.5h-.1v-1.3h-.1v-.1h-.1v-.1l-.1-.1h-.4v-.1h-.1l-.1-.1v-.1h-.1v-.1l-.1-.1v-.1l-.3-.4v-.2l-.2-.2-.2-.3v-.2h-.1v-.2l-.1-.2-.2-.5v-.1l-.1-.3v-.2l-.2-.1v-.2l-.1-.1v-.1l-.2-.2-.1-.2h-.3l-.1.1-.1.1h-.2v.1h-.6l-.1.1-.3.3-.1.2v.1h-.1v.1h-.2v.1h-.2l-.1.1h-.2v-.1h-.1v-.1l-.2-.2-.2-.2v-.2l-.1-.1v-.2h-.1v-.1l-.2-.2v-.5l.2-.2.1-.1v-.2h-.6l-.1.1h-.7l-.1-.1h-.1v-.1h-.1v-.2l-.1-.1v-.8l-.1-.3v-.3l.1-.1.3-.2h.1l.2-.1v-.1h.2v-.3l-.1-.2v-.1h-.1l-.1.1-.3.1-.2.2-.3.1h-.1l-.2.2h-.2v.1h-.3v.1h-.3l-.2-.1h-.1v-.1h-.2v-.1h-.3v-.1h-.2v-.1l-.1-.1-.2-.2v-.1l-.1-.1v-.1l-.1-.1v-.8l-.1-.1v-.1h-.1v-.1h-.1v-.5l-.1-.1h-.8l-1.1-.1h-.8l-.8-.1h-.9v-.1h.1v-.2h.1v-.2h.1v-.1h.1l.3-.2h.2l.1-.1h.1l.1-.2h.1l.1-.1v-.6l-.1-.1-.1-.2v-.1l-.1-.1v-.5h.1v-.2h-.1v-.1l-.1-.1v-.5l-.1-.1v-.1h-.1l-.1-.2-.1-.1h-.1v-.2h-.1l-.3-.2v-.1l-.1-.1v-.1l-.1-.1-.1-.2v-.3h-.1v-.9l-.1-.2-.1-.2v-.1l-.1-.1h-.2l-.2-.1-.2-.1-.2-.1-.5-.4h-.1l-.2-.2h-.1l-.2-.2v-.1h-.1v-1.2l-.1-.1-.1-.1-.2-.1v-.1h-.1l-.1-.1h-.1l-.3-.2-.2-.1-.2-.1-.1-.1h-.1v-.2l.1-.1.1-.1v-.1h.1v-.1l.1-.1v-.2h.1v-.4l-.2-.4v-.1h-.1v-.3l.1-.1.2-.1v-.4l-.1-.1-.2-.2v-.1l.1-.1.1-.1h.1v-1l.1-.1v-.1l.1-.1v-.1l.2-.2.1-.2.2-.2.1-.1.1-.2v-.1h.1v-.4l-.2-.2V118l.1-.2v-.4l.1-.1v-.2h.1v-.2h.1l.1-.1h.1l.1-.1.3-.2.2-.1.1-.1v-.1h.1v-.1l-.1-.1-.1-.2-.2-.2v-.1h-.1v-.3l-.1-.1v-.1h-.1l-.2-.2h-.3v-.1l-.2-.1-.1-.1-.1-.1v-.7h-.2v-.1h-.1v-.2h.1v-.1h.1v-.1h.1l.1-.1h.2v-.1l.3-.1h.1v-.1l.2-.2h.4v-.1h.1v-.2l.1-.2v-1l.1-.1v-.3l.1-.2v-.3h.1l.1.1.2.1.2.2h.1l.1.1.2.2h.1l.2.2h.1l.3.2h.1v.1h.1v.1h.1v1.2l.1.2v.7l.1.1v.1l.3.2.2.3h.1l.1.2h.4l.1.1.1.2v.1l.1.1.2.2v.1h.1v.1h.9l.1.1h.1l.2.1h.2l.2.2h.5v-.1h.1v-.1h.1v-.2h.1v-.1h1.4l.1.1h.2v.1h.1l.1.1.1.1.2.1.1.1v.2h.2l.2.2.2.1.1.1.2.1.2.1.2.1h.2l.2-.2h.3l.3.1h.1l.1.1.2-.1.2-.1.2-.3h.1l.2-.2.1-.2h.1v-.7l-.1-.2-.1-.1v-.1l-.1-.1h-.1v-.1h-.2v-.1h-.1v-.8h.3v-.1h.4l.1.1h.2v.1h.2l.2.2h.1l.1.1h.6v-.1h.1l.3-.2h1.5l.2.1.2.2h.1l.1-.1v-.1h.1v-.1l.1-.1v-.4l.1-.1.1-.2.1.5v.1l.1.1v.1l.1.2h.1v.1h.1l.1.1h.4l.1.1h.7l.1-.1h.1v-.1l.1-.1.1-.2.3-.4.1-.2.1-.1.2-.1v-.1h.6l.1.1.1.1h.1l.3.1h.2l.1.1h.1v.1h.1l.1.1.1.1v.1l.2.1v.1l.1.1h.4v-.7h.1v-.2l.1-.1.1-.2h.2l.1-.1.2-.2h.2l.3-.3.3-.1.1-.1h.1l.1-.1.1-.1.1-.1.2-.2.5-.5v-.1h.1v-.1l.2-.1.1-.1h.3l.1-.1h1.2v.1l.3.2h.5v-.1l.2-.1.2-.2.2-.1.1.1v.2h.1v.6h.1v.6h.5l.1.1v.1l.1.1v.5h.1v.1h.1v.1h.2v.1l.2.2.1.1h.3v.2l.1.1v.1h.1l.1.1h.2l.1-.1h.1l.1-.2h.1v-.1h.2v.2h.1v.1l.1.1v.1l.2-.3v-.1h1.4v-.2l.1-.2.1-.1v-.1l.2-.2v-.1h.1v-.1l.1-.1v-.7l.1-.1v-.1h.3l.2.1.1.1.1.1.1.1.1.1v.1l.1.1v.7h.1v.2h.1v.1h.1l.1-.1.1-.1h.1l.2-.1.2-.1h.1v-.1h.1l.2-.2v-.1h.1l.1-.2h.1l.1-.1h.1l.4-.3h.1l.1-.1h.1l.1-.2.2-.1.2-.2h.1v-.1h.1l.3-.2h.1v-.1l-.1-.2-.1-.2V109h.1v-.1h1.4l.2-.1h.2l.1-.1h.1v-.1l.1-.1.1-.1v-.2h1.1v-.1h.2v-.1l.1-.1v-.2h.1l.1-.2v-.1h.1v-.1h.2v-.1h1.1v-.1h.1v-.1h.1l.3-.2h.2v-.1h.1l.3-.1h.2v-.4l.1-.1h.1v-.2h.2l.1-.1h.9l.1-.1.3-.2h.2v-.1h.1v-.1h.1l.1-.2h.1l.2-.2v-.1l.1-.1.1-.2.1-.1v-.1l.1-.1v-.1l.1-.2v-.3h.1v-.2l.1-.1v-.1h.1v-.1h.3l.1-.1h.8l.2-.1h.7l.1.1.3.1h.1v-.9h.3l.1.1.1.1v.1h.1v.1l.1.1v.2h.1v.2" clip-path="url(#p6313ca4dd2)"/><path d="M269.4 107.3h.6l.1.1v.1h.1l.1.2.2.3.1.2.1.1v.1h.1l.1.2h.2v.1h.6l.3-.2h.3l.3-.1h.1v-.1h.1l.2-.1.2-.2.1-.1h.1l.1-.1h.3l.1.1v.2l.2.2v.4l.1.1h.1v-.1l.2-.1v-.2l.2-.1.2-.1v-.1l.1-.1h.1l.1-.1.1-.1h.1l.1-.1h.2v-.1l.4-.1h.2v-.1l.4-.2h.4l.1.2v.1l.1.1v.8l.1.1v.2h.1v.7h.1v.2h.1v.1h.1v.1h.1v.1h.2v.1h.1l.1.1h.1l.1.1v.1h.1v.1l.1.1.1.1v.3h.1v.4l-.1.1-.1.2-.2.3-.2.1v.1l-.2.2-.1.1-.1.2-.1.1v.1l-.3.3-.1.2-.1.1-.1.1v.2h-.1l-.2.4-.3-.1h-.1l-.1-.1-.2-.1-.2-.2h-.3v-.1h-.2v-.1h-1.3l-.2.1h-.3v.1h-.3l-.2.1h-.4l-.2.1h-.7v-.1h-.1l-.1-.1-.1-.3-.2-.3v-.2h-.1v-.2l-.4-.3v-.2h-.1v-.1l-.1-.1v-.5h-.1v-.2h-.1l-.1-.1h-.1l-.1-.2h-.1v-.1l-.2-.1-.1-.3h-.1l-.1-.1v-.1h-.2v-.1l-.2-.1-.2-.1-.1-.1h-.1l-.1-.1h-.2l-.1-.1h-.1l-.1-.1h-.4v.1h-.2l-.2.2-.3.1h-.1v.1h-.5l-.1-.1v-.2l-.1-.2v-.2h-.1l-.2-.1h-.9v.1h-.2v.3l-.2.1v.3h-.1v.1h-.3v-.1h-.5v-.1h-.1l-.2-.1h-.1l-.1-.1h-.6l-.1-.1h-.3l-.1-.1h-.2l-.1-.1v-.1l-.3-.2v-.1h-.1v-.1l-.1-.1h.2l.2.1h.3v.1h.5l.1-.1h.1l.2-.2h.2v-.1h.2v-.1h.2v-.1h.2l.1-.1h.1l.1-.1.1-.1h.4v.2h.1v.1h.1v.1h.2v.1h.6l.1-.1.2-.1v-.5l.1-.2.1-.1v-.2h.1v-.1l.1-.1.2-.2v-.1h.2l.1-.3h.2v-.1l.2-.3.2-.2h.1v-.1l.2-.1.1-.1h.1l.1-.1h.5v.1h.1v.2h.1v.2l.1.4v.1l.1.1v.2h.1v.2h.1l.1.1h.1v.1M249.3 46.4h.2v.2h.2l.1.2h.1v.1h.2l.3.3.2.1v.1h.1v.2l.1.1V51l.2.8.1.7v.3h.1l.1.1h.2l.2.2h.2l.8.3.5.3.6.2.6.2.3.2 1 .3 1 .4.3.1.3.1.2.2h.2l.1.1h.1v.1h.1l.1.1.1.2v.6l.1.1v.1l.1.1.1.2v.1l.2.2h.1V57h1.1v.1h1.8v.1h.3l.1.1h.6l.3-.1h.1l.1-.1h.2l.1-.1h.7V57h.5v-.1h.1l.2-.1.2-.1h.5l.3.2h.1v.1h.3l.2.1h.2l.1.1h.1l.1.1h.1v.2h.2v.2h.1v.6l.1.1v.1h.1v.2h-.1l-.2.2h-.1v.5h.3v.1h.1v.1h.1v.9h-.1v.3h.1v.1h.5v-.1l.2-.1.1-.1h.1l.1-.2h.1l.3-.1.2-.1V60h.2l.1-.2h.1v-.1h.3l.2.1h.3v-.1l.2-.1v-.1l.1-.2h.1l.1-.1.1-.1h.3l.2.2.1.1v.1h.1v.2l.1.1v.1h.1l.2.2v.4h.1v.1l.1.1.2.2.2.1.2.2.3.2.2.1.2.2h-.1l-.3.2-.2.1v.1h-.1v.2h-.1v.2l-.1.3v.1l-.1.1v.1l-.1.1h-.1v.1h-.3l-.2.1h-.4v.1h-.1l-.1.1h-.1v.1h-.1v.1h-.1l-.1.2-.2.3-.1.1-.1.1-.1.1v.1h-.1v.1l-.1.1v.1l-.1.1v.7l.1.1.1.1h.2v.1h.8l.1.1h.2v.1l.1.1.1.1v.1h.1v.8l-.1.1v.1l-.1.1h-.1v.1h-.1l-.2.1h-.4l-.3-.2h-.9l-.1.1h-.1v.1h-.1v.1h-.1v.1l-.1.1v.5l.1.1v.1l.2.3h.1v.2l.1.1v.5h-.1l-.1.1v.1l-.1.1v.9h.1v.6l-.1.1-.2.1h-.7l-.2-.1v-.1h-.4v-.1h-.3v.1l-.1.1v.7l-.1.2v.3l-.1.2v.2l-.2.2v.2l-.1.1v.1l-.1.2-.2.2v.2h-.1v.3h-.1v.4l.1.1.1.1h.1l.3.2h.2l.1.1.1.1.1.1v.1h.1v.7l-.1.1-.3.5v.2h-.1v.2l-.1.1v1.6h-.1v.1h-.1v.1l-.1.1-.3.3v.1l-.1.1-.1.1-.1.2-.2.3v.1l-.1.1-.1.1v.1h-.1l-.1.1-.1.1h-.1l-.2.2h-.1l-.1.1v.1h-.1v.2l-.2.2v.2h-.1v.1l-.2.2-.2.3-.1.1-.1.1v.1h-.1v.2h-.1v.8h.2l.2.1h.6l.1-.1.2-.1.1-.1.1-.1h.1v-.1h.7l.1.1v.1h.1v.1l.1.1.1.2v.5h-.1v.1l-.3.2h-.1v.1h-.1v.1h-.1v.1l-.1.1v.1l-.1.4v.2h-.1v.2h-.1v.2h-.1v.1l-.1.1-.2.2-.2.2v.1l-.1.1-.1.2v.1l-.2.1v.3h-.1v.9l-.1.1v.5h-.1v.2h-.2l-.1.1h-.4l-.3-.2h-.8v.1h-.1v.1h-.1v.2l-.1.2v.9l-.1.1v.2h-.1v.2h-.1v.1h-.1v.1l-.2.1-.1.2-.2.1v.2h-.1v.1h-.1v.2l-.2.2v.2h-.1l-.1.1h-.4l-.1.1h-.1l-.1.1h-.2v.1h-.1l-.1.1-.2.1-.2.2h-.2v.1h-.2v.1h-.1l-.1.1h-.1v.7l-.1.2-.1.1v.1h-.1v1l-.1.2v.7l-.1.1v.5l.1.2.1.2.1.2v.2h.1l.1.1.2.3v.6h.1v.1l.1.2h.1v.1h.1v.2l.1.1v.3h.1v.1h.1l.1.1h.1l.3.1h.4l.2.1h.3v.1h.1v.1h.1l.1.2h.2l.1.1h.3v1h-.3v-.1h-.6l-.1-.1h-.5v.1h-1v.1h-.1l-.1.2v.1l-.1.1v.4l-.1.1v.1l-.1.2-.1.1v.1l-.1.1-.1.2h-.2v.2h-.1v.1l-.2.1v.1h-.1l-.1.1h-.2v.1l-.3.2h-1v.1h-.1v.1h-.1l-.1.1-.1.1v.4h-.2l-.1.1h-.3v.1h-.2l-.1.1-.3.2h-.1v.2h-1.3v.1h-.1v.1h-.1v.3h-.1v.2h-.1l-.1.1h-.1v.1h-1.1v.2h-.1v.1l-.1.1-.1.1h-.1v.1h-.3l-.1.1h-.8v.1h-.7v.3l-.2.2v.9l.1.1v.1l.2.2-.1.1-.2.1h-.1v.1h-.1l-.1.1-.2.2-.2.1-.1.1-.2.1-.5.3v.1h-.2v.1l-.2.1-.1.2-.2.1-.1.1-.3.2h-.2v.1h-.1l-.1.1h-.1v.1h-.1v-.1l-.1-.1v-.7h-.1v-.2l-.1-.1-.1-.1-.2-.2h-.1l-.1-.2h-.4v.8l-.1.1v.1h-.1l-.1.2-.1.2h-.1v.1l-.1.2v.2h-.1v.1h-1.3l-.1.1-.1.2h-.1v-.1l-.1-.2h-.1v-.1h-.2v.1l-.2.1-.1.1h-.1l-.1.1h-.2v-.1h-.1v-.2l-.1-.1h-.2v-.1h-.1l-.1-.1-.1-.1-.1-.1h-.1v-.1h-.1l-.1-.1v-.5l-.1-.2v-.1h-.2l-.2-.1h-.2v-.1l-.1-.2v-.7l-.1-.1v-.1l-.1-.2-.1-.1-.2.1-.1.1h-.1l-.2.2h-.1l-.1.1h-.3l-.2-.2h-.2l-.1-.1H236v.1h-.1l-.1.2-.2.1-.5.5-.1.2h-.1v.1l-.2.1v.1h-.2l-.1.2-.3.1-.3.2-.2.1-.1.1-.2.1h-.1v.1l-.1.1-.1.2-.1.1v.7h-.1l-.1.1h-.4v-.1l-.1-.2h-.1l-.1-.2h-.1v-.1h-.1l-.1-.1h-.2l-.3-.1h-.1l-.1-.1h-.1l-.1-.1v-.1h-.6l-.2.2v.1l-.2.2-.3.4v.2h-.1v.1h-.1l-.1.1h-.2l-.1.1h-.9v-.1h-.2v-.1h-.1v-.1l-.1-.1v-.1h-.1v-.3l-.2-.5v.1l-.1.1v.3l-.1.1v.2h-.1v.1l-.1.1h-.1v.1h-.1l-.2-.1v-.1h-.2l-.1-.1h-1.4l-.3.1-.1.1h-.2v.1h-.4l-.2-.1-.2-.1h-.1v-.1h-.1l-.2-.1-.2-.1h-.5v.2l-.1.3v.3l.1.1h.1v.1h.1v.1h.1v.2l.2.1v.3l.1.1v.5l-.1.1-.1.1-.1.1h-.1v.1l-.3.3h-.2l-.1.2h-.3l-.2-.2h-.3l-.2.1h-.1v.1h-.3l-.1-.1h-.2l-.2-.2-.2-.1-.2-.1v-.1h-.1v-.1h-.1v-.1h-.1v-.1h-.1l-.2-.2-.1-.1h-.1v-.1h-.2l-.1-.1h-.5l-.5-.2h-.5.1v-.1l.1-.1v-.3l.1-.1v-.3l.1-.2v-.2l.1-.2v-.1h.1v-.1l.1-.1v-.2h.1v-.2l.1-.1v-.1l.1-.1.1-.1v-.1h.1v-.2h.1v-.3h-.1v-.1h-.2v-.1h-.1v-.1h-.1l-.1-.1-.1-.1h-.1l-.2-.1h-.2v-.1h-.1v-1l.1-.1v-.1l.3-.4v-.2h.1v-.2h.1v-.1l.1-.2.2-.2.1-.2v-.2h-.1v-.3l-.1-.1v-.1l-.1-.1v-.3h-.1l-.1-.3v-.3h-.1v-.1h-.1v-.2l.1-.2v-.2l.1-.1v-.1l.2-.2.1-.3h.1v-.1h.1v-.1h.1l.2-.1h.7l.1-.1h.1v-.1h.1v-.1h.1v-.2h.1l.1-.2.2-.3v-.2l.2-.1v-.1l.1-.1v-.1l.2-.1.1-.2.1-.1v-.2h-.8v-.1h-.2v-.1l-.1-.1-.2-.1v-.9l.2-.2v-1.6h.1v-.2h.1l.1-.2.1-.2v-.1h.1v-.4l-.1-.2-.1-.1v-.3h.1V98h.1l.1-.1.2-.1v-.1l.1-.1v-.5h.2v-.3l.1-.1.1-.1v-.3h.1v-1.5l.1-.1h.3l.1.1.2.2h.1v.1h.2v.1h.4v-.1h.1l.1-.1V95l.1-.1v-.1h.1v-.3l.1-.1v-.5l.1-.1v-.1l.3-.3v-.2h.1v-.7l.1-.4v-.6l-.1-.2h-.1v-.1l-.1-.1h-.1l-.1-.2h-.1l-.1-.1h-.1l-.1-.1h-.1l-.1-.1h-2.5v-.1h-.2v-.1h-.1l-.1-.2V90l-.1-.4v-.1h-.3v.1h-.1l-.1.1h-.2l-.2.1h-.1l-.1.1h-.3l-.3.1h-.1l-.1.1h-.2l-.2.1v.1h-.2l-.1.2-.2.1-.1.1h-.1v.1l-.1.1h-.2l-.1-.2h-.1v-.2l-.2-.1-.3-.5-.1-.2h-.1v-.1h-.3l-.1.1h-.1l-.2.2h-.1l-.1.1h-.5V90h-.1l-.2-.1v-.1h-.1l-.1-.1-.1-.2-.1-.1v-.1l-.1-.2-.1-.2v-.2l-.2-.4-.1-.2v-.2l-.1-.1v-.3h-.1V87l.2-.2h.2v-.1h.1v-.1h.1l.1-.1.1-.2.1-.2.1-.1v-.2h.1v-.1h.1v-.1h.1l.1-.1h.1v-.1h.1v-.1h.2l.3-.2.2-.1.1-.1h.1v-.1l.1-.1v-.1l.3-.4V84h.1V83l-.2-.5V82l.1-.1v-.1h.1v-.1h.2v-.1h.2l.2-.2h.2l.1-.1.1-.1.2-.2h.1l.4-.4h.2v-.2h.3l.1-.1h.2v-.1h.7v-.2h-.1v-.2l-.1-.4V79l-.1-.2v-.2l-.1-.1-.1-.3v-.1h-.1v-.6h.1v-.1h.2v-.1l.1-.1h.3v.7h.1v.1h.7l.1-.1h.2v-.1l.2-.1.2-.2.3-.1.2-.1.1-.1h.2l.2-.2-.2-.1-.1-.1-.2-.1-.1-.1-.2-.2-.1-.1-.2-.2v-.1l-.2-.2-.1-.1-.2-.1-.2-.3-.4-.3-.2-.2-.1-.1-.1-.1-.1-.2-.2-.2h-.3v-.1H215v.1h-.1v.1h-.1v.4l-.1.1v.8l.1.3v.6h.1v.2h.1v.4l-.1.1-.1.1h-.1l-.1.1-.2.1h-.1l-.1.1-.2.1-.1.1h-.1l-.1.1h-.5l-.1-.3h-.1v-.1l-.1-.1h-.2v-.1h-.1l-.2-.1h-.7l-.1.1h-.2l-.3.2-.5.1h-.2v-.3h-.1v-.2l-.2-.2v-.2l-.1-.2-.1-.2-.2-.3V76h-.1l-.1-.2v-.1h-.3l-.2.1-.1.1h-.2l-.2.1-.1.1h-.1l-.2.1h-.3l-.1.1h-.2l-.1-.1V76l.5-1 .5-1.1.1-.3.1-.1h.1v-.1h.1l.3-.1v-.1h.1V73h.1v-.3h.1v-.5l.1-.2v-.7h.1v-.1h1.5v-.1h.3l.2-.1h.1l.2-.1h.3l.2-.1h.2l.2-.2h.2l.3-.2.2-.1h.1l.2-.1h.1l.2-.1h.3l.1-.1h.4l.2-.1h.3l.2-.1.2-.1h.1v-.1l.1-.1v-.4h.1V69l.1-.1v-.1h.1v-.2h.1v-.1h.1v-.1l.1-.1.2-.2h.1l.1-.1.2-.2.1-.2h.2l.2-.2.1-.1.2-.2h.1V67h.1V67l.2-.3v-.2h.1V66h.1v-.1h1.2l.1-.1h.2v-.1h2.5l.1-.1h.1l.2-.2.3-.2h.2l.1-.2h.1v-.1h.1v-.2h.1v-.2h.1v-.2h.1v-.5l.2-.5v-.1h.1V63h1l.1.1.2.1v.1h.2l.2.4h.6l.2-.2h.1v-.1l.2-.1.4-.4.1-.1v-.1h.1v-.1h.1l.1-.3.1-.1h.1l.1-.1h.2v-3.9l-.1-.1v-.4l-.1-.1-.1-.1v-.1l-.2-.2-.1-.2-.3-.3-.3-.4-.2-.3-.1-.1-.1-.1-.2-.1v-.1h-.1l-.1-.1-.3-.2h-.1v-.1h-.2v-.1l-.1-.1-.1-.1-.2-.2v-.1h-.1v-.1h-.1l-.1-.1h-.1l-.2-.5v-3.8l.1-.1V50h.1l.1-.2.1-.1.2-.2.8-.8.2-.3h.2l.2-.2.7-.2h.2l.1-.1h.2l.1-.1h1l1 .3.3.1h1.5l.2-.1h1.8V48h.2v-.1h.1v-.1h.1v-.2l.1-.1v-.2l.1-.2.1-.3.1-.1h.8l1 .3 1 .3.7.2h.2l.4.2.4.1.8.3.3-.4.1-.1.2-.3.4-.6.2-.2h.1v-.1h.3v-.2l.1-.1V46h.1v-.1h.1v-.1h.2v-.1h.2l.2-.1.5-.1h.2l.1-.1h.1l.2-.1.1-.1h.1V45l.2-.2.2-.1v-.1h.1v-.2h.1v-.1l.2-.2V44l.1-.1.1-.1v-.1h.1v-.1h1.1l.6.2h.3l.1.1h.1l.1.1.2.1v.1l.1.1.1.1v.2h.1v.2h.1l.1.1v.1l.2.2.1.1.2.2.2.2.1.2.2.2.2.3M243.9 149.8h.4v.2h.1v.1l.2.2.1.2v.4h.1l.1.1h.3l.2.2h.2v-.1l.3-.2.2-.1.1-.2h.1l.1-.1h.1l.1-.1.2-.1h.2v-.1h.1l.1-.1.2-.1.1-.1.2-.1h.1l.1-.1.1-.1.2-.1v-.1h.1l.1-.1h.2l.1-.1h.3v.3l.1.1v.2h-.1v.2l-.1.3v.3h.1l.1.1.2.1h.1v.1h.1v.1h.1v.6l.1.1h.1v.1h.9l.1.1v.3h-.1l-.1.1v.1h-.1v.3l.1.1.1.1h.1l.1.1h.1l.1.1.2.1h.1l.4.1h.9v-.1h.1l.1-.1.2-.2.2-.1.1-.2h.1l.2-.1h.3l.1-.1.5-.1h.7v.1h.1l.1.1.1.1v.1l.2.1v.1l.2.1v.1h.1l.1.2.3.3v.1l.2.2.1.1.1.1h.2l.1.2h.2l.4.3.2.1.3.2h.2v.3l-.2.2h.2l.1.1h.1l.1.1.6.4.1.1h1.3l.2-.1h.1l.3-.1.4-.1h-.1v.1l-.1.1v.1h-.1v.4l-.1.2v.3h.1v.1h1.9v-.1h.2l.2-.2h.7l.2.1h.5v.6h-.1v.1l-.1.2h-.1v.1l-.1.1h-.1v.5l-.1.3v.4l.1.1v.8l-.1.1-.1.1-.1.1h-.3v.6l.2.7v.2l.1.2v.1l.2.2v.2h.1v.1l.1.1.2.2.1.3h.1l.1.1v.1h.1l.1.1h1.7l.1.1v.1h.1v.7h-.2v.1l-.1.1-.1.1-.1.1-.1.2h-.1v.2l-.1.1v.4l-.2.5v.4h-.1v.2l-.1.1-.1.1v.1h-.1l-.1.2-.1.1-.2.2v.1h-.1v.1l-.1.1v.4l.1.2h.4l.4.1h1l.1-.1.1-.1h.1v-.2h.2v-.1l.1-.1.2-.1.4-.1h.1v-.1h.7v.1h.1l.3.2h.2v.1h1.1l.2-.1h.4v.1h.1v.1l.1.1v.1l.1.1.1.1v.3l.1.1h.1v-.2l.1-.3v-.2l.1-.1h.1v-.1h.5l.1-.1h.2l.2-.1h.6v.1l.2.1.2.1h.7v-.1h.1l.2-.1.3-.2h.1l.1-.1h.1l.1-.1h.2l.3-.1h.1v-.1h.1v-.1h.1v-.2l.2-.3v-.1l.1-.1.1-.1.1-.1.1-.2h.1v-.2h-.3l-.1-.1h-.4v-.1h-1.1l-.3.1h-.3l-.1-.1v-.6h.1v-.1l.2-.1v-.2l.2-.2v-.1l.2-.2.1-.1v-.6l.2-.2.1-.2.1-.1v-.1l.1-.1v-.1l.1-.2.1-.3v-.2h.1v-.7l-.2-.4-.1-.2h-.1v-.1h-.1v-.1h-.2l-.1-.1h-.5v-1.2l.1-.1v-.1l.2-.4.1-.1.1-.2v-.1l.2-.1v-.1l.1-.1h.3l.2.2.2.1h.1l.2.2.4.1.2.1h.1l.1.1h1.2v.1h.2v.1l.3.1.3.2h.2l.4.2h.3l.1.1h.4v-.1h.1l.1-.1h.1l.2-.3h1.1v.1h.1v.1h.2v.1h.1v.1l.1.1.2.2v.1h.1v.1h.2v.1h.7l.6-.2v.3l.1.1v.1l.1.2.1.2.1.1.2.1.1.1h.2l.5.2.2.1h.1l.2.2h.3v.1h.1l.1.1.1.1v.1l.1.1v.3l.1.4.1.2v.2l.1.2v1.6l-.1.4v.6l-.1.2v1.4l.1.6v.1l.1.2.1.3v.8l-.1.4-.1.1v.2l-.1.2v.1l-.1.1v1.3l.2.2v1l.1.1v.3l.1.1v.7h-.1v.3h.6l.1-.1.1-.1h.2v-.1h.2l.2.1v.1h.1v.9h-.1v.1l-.1.1-.1.1-.3.3v.1l-.1.1v.6l.2.4v.2l-.2.1-.2.1-.2.2h-.2v.1h-.2l-.2.2h-.2l-.2.1h-.1l-.1.1h-.6l-.2.1h-1.3l-.1.1h-.2v.1l-.2.1h-.1v.1l-.1.1v.8l-.1.2v.5l.2.3v.3h-.1l-.2.2v.1h-.1v2.4h-.1v.1h-.3l-.1.1h-.1l-.1.1h-.1l-.4.1h-.2l-.4.2h-.2l-.2.1-.2.1-.4.2-.1.1-.2.1h-.1l-.2.1h-.1l-.1.1h-.1l-.3.3-.2.1h-.1v.2h-.2v.1l-.2.1-.2.2v1l-.1.2v.3h-.1l-.1.2-.1.3v.2l-.1.1v.1l-.1.1v1.6h-.1v.1h-.1l-.1.1-.2.1h-.2v.1h-.2l-.1.1h-.1v.1h-.2v.1h-.1v.1l-.2.2h-.1l-.2.2v.1h-.1v.1l-.1.1-.1.2v.1l-.1.2v.7l.1.1.1.1.2.1v.1l.1.1h.1v.1l.1.1v.1h.1v.2h.1v.5l-.1.1-.2.2v.1l-.1.2-.2.2v.1h-.1v.9l-.1.1-.1.1-.1.1v.1h-.1v.1l-.1.2v.1h-.1v.1h-.1l-.1.1-.1.1-.2.1h-.1v.1h-.4l-.1.1h-.1l-.1.1-.2.2h-.2v.1h-.1l-.2.1h-.1l-.1.1-.1.1v1.4l.1.1v.2h.1v.1l.1.1h.1l.1.2h.1v.2l.2.1h.1v.1h.1v.1h.2v.1h.1l.1.1v.1l.1.1v.7h-.1v.1l-.1.1v.1h-.1v.1l-.2.1v.1h-.1v.1h-.1l-.2.1h-.2l-.1.1h-.1l-.2.2h-.1l-.2.1h-.1l-.1.1v.1h-.1v.3l-.1.1v.3h-.1v.1h-.1v.1h-.8v-.1h-.3l-.1.1h-.1v.1h-.1l-.1.1h-.8v.1l-.1.1v.2l-.1.1v.4l-.1.1v.2l-.1.1v1.2l.1.1v.4l-.1.1-.1.2v.2l-.1.1h-.1l-.1.2h-.1v.1l-.1.2v.5l-.1.1v.9h-.1v.1l-.1.1h-.1l-.1.1-.4.3h-.2v.2h-.1l-.1.2-.1.1-.1.1-.2.1v.1l-.1.1-.2.3v.5l.1.1.1.1.2.1h.2v.1l.2.1h.1l.1.1.2.1h.1l.2.1.4.2h.3l.2.2h.2l.2.2.2.1.1.1v.1l.2.1.1.2.1.1v.3h-.1v.5l-.1.1-.1.1-.1.2h-.3v-.1h-.1l-.1-.1h-.9v-.1h-.2l-.1.1v1.1h.1v.3l.1.1v.1l.1.1v.1h-.1l-.2.1-.3.1h-.3v.2h.2v.1h.3v.1h.1l.1.1v.1h.1v.4h-.5v.2l-.1.1v.5h-.2v.1h-.2l-.1.1-.1.1v.5l.2.2v.2h.1v.2l.1.2v1.2l.1.1.1.1.1.1v.6l.1.2v.2l.2 1v.4l.1.1v.2h.5v-.1h.3l.2-.1h1.1v-.1h.1l.2-.1.1-.1h.2l.1.1.1.2v.2h.1v.5h.1v.2l.1.1.1.2.1.1v.1l.2.2v.1l.1.1.2.2v.1h.1v.2l.2.1v.2l.1.3v.2h.1v.1l.1.1.2.2v.1l.1.1v.1l.1.1.1.4v.1l.1.1v.1l.2.3.1.1h.1v.1h.3v.1h.1l.1.1.1.1v.9l-.1.1v.4l-.1.2v.8l-.1.1v.4h.7l.3.1h.1l.1.1h.3l.2-.1.2-.1.3-.2h.2l.1-.1h.7v.1h.1v.1l.2.1.1.1.1.1.1.1v.2l.1.1v.2l.1.1.3.3.1.1v.1h.1v.1h.1v.4l-.1.2-.2.2v.1l-.1.1-.1.2h-.1l-.3.3v.1h-.1v.1h-.1l-.2.3v.1l-.1.2v.3h-.1v.3l-.1.2v.8h.1v.2h.1l.1.1h.1v.1l.4.2h.3l.1.1h.1l.1.1.2.1v.1h.2v.1h.4v.1h.1v.1h.7v.1h.1v.1h.3v.1h.2v.3l-.1.2h-.1v.2l-.1.1v.6h-.1v1l.1.1v.2l.1.3v.3h-.1v.1h-.1v.1h-.8l-.2.1h-.1v.1h-.1l-.1.1v.1l-.1.1v.7l-.1.1v.1l-.2.1-.1.1v.1l-.1.1v.2l-.1.2v1.2h-.1l-.1.1-.1.1h-.1l-.3.2-.2.1-.3.3h-.1l-.1.1h-.1l-.2.2-.3.2h-.1v1h.1v.1l.1.1h.2v.1h.8l.2-.2h.2l.1.1v.1l.1.2v.2l-.1.1v.1h-.1v.2h.1v.8h-.2v.2l-.3.1v.1h-.1v.1l-.2.2v.1h-.1l-.2.2h-.1l-.1.1h-.1l-.1.2-.2.1-.1.1v.1h-.1v.6h-.1v.1h-.1v.1h-.1v.1h-.1l-.5.2h-.3v.1h-.4l-.1.1h-.1v.1h-.1v.1h-.1l-.1.1h-.4l-.2-.2h-.9l-.1-.1h-.1l-.2-.1h-.1v-.1l-.2-.1v-.1h-.1l-.2-.3-.1-.1h-.1l-.2-.2h-.1l-.1-.1h-.1l-.1-.2h-.1l-.1-.1h-.5l-.5.1h-.1v.2l-.1.1v.2h-.1v1.7h-.1v.1h-.1v.1l-.2.1h-.1v.1h-.2l-.2.1h-.5v-.1h-.1v-.1h-.1v-.2h-.1v-.1h-.1v-.2l-.4.1h-.1l-.1.1h-.1v.1l-.2.2-.1.1h-.2l-.1.1h-1.4v-.2h-.1l-.1-.1-.3-.2h-.1v-.1h-.5l-.1-.1h-.2v-.1h-.1v-.1h-.1l-.1-.1h-.6v-.1h-.2l-.1-.2h-.1v-.1h-.7l-.2.1h-.4l-.1.1h-.2v.1h-.1v.1h-.1v.1l-.1.1-.1.1-.2.1h-.1v.1l-.1.1-.1.2-.1.2v.1h-.1l-.3.3-.1.1-.1.1h-.1v.2h-.1v.1h-.1v.2h-.1v.2l-.1.1v.4l.1.2v.2l.1.1v.8h-.1v.1l-.2.3-.1.1v.2l-.2.1v.1h-.1l-.1.1h-.3v-.2l-.1-.1v-.1l-.1-.2-.1-.1v-.3h-.1v-.1l-.1-.1-.1-.1v-.1h-.1l-.1-.1-.1-.1h-.1v-.1h-.1l-.1-.1h-.3l-.3-.2h-.1l-.2-.1-.5-.2h-.9l-.2-.1h-.6l-.1.1-.1.1-.1.1v.1h-.1v.1l-.1.2-.1.3v.1l-.1.1v.1h-.1v.1h-.1v.1h-.2l-.3.2h-.1l-.1.2h-.2l-.2.1-.3.1-.2.1h-.2l-.3.1-.2.1h-.3l-.2.1h-1.5v.1h-.1v.1h-.1v.1l-.1.1v.1l-.1.2v.1h-.1v.1h-.1v.2h-.2l-.1.1h-.4v-.1h-.1v-.1h-.1v-.9h-.1v-.2h-.1v-.1l-.2-.2h-.1l-.1-.1h-.1l-.1-.1h-.1v-.1l-.1-.1-.2-.1-.1-.1v-.3h.2v-.2h.1l.4-.3v-.2h.2v-.1l.2-.1h.1v-1.5h-.1v-.1h-.1v-.1l-.2-.1-.4-.4-.2-.1-.3-.3-.2-.2h-.1l-.1-.1v-.4h.1v-.1l.1-.1.1-.2.2-.2v-.2l.2-.3.2-.4v-.1h-.9v-.1h-.1l-.1-.1h-.1v-.1h-.1v-.1h-.1v-.1l-.1-.1v-.2l-.1-.2-.2-.5v-.2l-.1-.2-.1-.4v-.3h-.1v-.7l-.1-.1v-.1h-.1l-.1-.1-.1-.1-.1-.1-.3-.2h-.1v-.1l-.1-.1-.2-.4h-.1v-.2h-.1l-.1-.1h-.1v-.1h-.1l-.1-.1-.3-.1v-.1h-.1l-.1-.1-.2-.3v-.1h-.1l-.1-.1-.2-.1-.1-.1h-.1l-.6-.3h-.2l-.1-.1-.2-.1v-.1h-.8l-.1-.1h-.1l-.2-.2-.2-.2h-.2v-.1l-.2-.2h-.2v-.1h-.4v.1l-.1.1v.2h-.1v.5l-.1.2v.1l-.1.1-.1.2v.1h-.1v.1h-.8l-.1.1h-.2l-.2.1h-.1v.1h-.1l-.2.2h-.3v-.1l-.1-.1v-.3l-.1-.1v-.1l-.2-.3-.1-.3v-.1l-.1-.1v-.8l.1-.2.1-.3.1-.1v-.1l.2-.2.2-.3.2-.4.1-.1.1-.1.2-.2.2-.2.3-.1.2-.2v-.4l-.1-.1h-.1v-.1l-.1-.1-.3-.3-.2-.3-.2-.2-.1-.1-.2-.1-.1-.2-.2-.1-.2-.3h-.1l-.1-.1-.2-.2h-.2l-.2-.2-.2-.1-.1-.1h-.1l-.2-.3-.2-.1v-.1h-.2v-.2h-.1v-.1l-.2-.3-.1-.2v-.1l-.1-.1h-.1v-.1l-.1-.1-.1-.1h-.1l-.1-.2h-.1l-.1-.1h-.2l-.1-.1h-.4l-.1.1h-.1l-.1.1h-.1v.1h-.1l-.1.1-.1.2-.2.2-.1.1v.1h-.1l-.1.1h-.3v-.1h-.1v-.1h-.2v-.1l-.3-.1h-.6l-.5.1h-.5l-.1-.2h-.1l-.2-.3h-.1v-.1h-.4l-.2.1h-.1l-.1.1h-.3v-.1h-2.3v-.2l-.1-.2v-.7l.1-.4v-.6l-.1-.1-.1-.1v-.1l-.1-.1-.1-.1-.1-.1h-.1v-.1h-.2v-.1h-.2l-.2.3v.2h-.1v.1h-.1v.1l-.1.1h-.4v-.1h-.6l-.2-.1h-.3v-.1h-.1v-.2l-.2-.2v-1.3l-.1-.3v-.1l-.2-.3v-.1l-.1-.3v-.1l-.1-.2-.2-.2v-.1l-.2-.3-.1-.3-.2-.2-.3-.5-.2-.3-.1-.1-.2-.3-.3-.4v-.1h-.1l-.1-.1h-.1v-.1h-.3l-.2.1h-.1v.1h-.2l-.3.1h-.2v.1h-.6l-.2-.1v-.1l-.2-.2v-.1h-.1v-.1h-.1l-.2-.1-.4-.2h-.3l-.3-.1-.2-.1h-.2l-.1-.1-.2-.1-.4-.2-.3-.2-.3-.1-.3-.2-.2-.1h-.1l-.2-.1v-.1h-.1v-.1h-.1v-.1h-.1v-.2h-.1v-.3h-.1v-.2l-.2-.2-.1-.3h-.1l-.1-.2v-.1h-.1v-.4h-.1v-.1h-.2l-.1-.1h-1.2l-.3-.1h-.4v-.6l.1-.3v-.3h.1v-.1h.1v-.1l.1-.1.2-.2h.1v-.5h.1l.1-.1h.1l.3-.1.1-.1v-.1h.1v-.2l-.1-.2h-.1v-.2h-.1v-1.4h-.1v-.2l-.1-.1v-.2h.1v-.1l.1-.1.1-.2v-.1l.1-.1.1-.2v-.1l.1-.2h.1l.2-.1.1-.1.1-.1h.1v-.1h.2v-.1h.2l.1-.1h.4l.1-.1h.1l.1-.1.1-.1.2-.1v-.1l.3-.2h.1v-.1h.1v-.1l.1-.1v-.6l-.1-.1v-.2h1v-.1h.1l.4-.3h.1v-.1l.2-.1v-.1h.2v-.1l.2-.1.2-.1v-.1h.2v-.1l.1-.1.1-.1v-.2l-.1-.1h-.3l-.1-.1h-.2v-.1h-.1l-.1-.2-.1-.1h-.1v-.6l.1-.1h.1v-.1h.7l.1-.1h.1l.1-.1.1-.1.1-.1v-.1l.1-.2v-.3h.1v-.2h.1l.1-.2.1-.1v-.1h.1v-.1h.1l.1-.1h.2l.2-.1h.1l.2-.1h.1v-.1h.1l.1-.2.2-.1.1-.1.2-.1h.2v-.1h.7l.3-.1h.5v-.1h.1v-.2l-.3-.2-.1-.1-.2-.2v-.1l-.3-.2v-.1l-.1-.1-.1-.1-.1-.1v-.1l-.1-.1v-.2l-.1-.1v-.8l.2-.3v-1.7h-.1v-.2h-.6l-.1-.1h-.1l-.4-.3-.2-.1-.2-.1-.1-.1-.2-.1-.2-.2h-.1l-.1-.2-.1-.1-.1-.1v-.1h-.1v-.2l-.1-.1v-.5h-.1v-.1h-.1l-.1-.1h-.1v-.1h-.5v-.1h-.1l-.1-.1h-.4v.1l-.2.2h-.1v.1h-.1l-.1.1h-.1l-.2.1h-.2l-.2.2h-.3l-.1.1h-.7v-.1h-.2v-.1h-.2l-.1-.1-.1-.1v-.1h-.1v-1l.2-.2v-.6l-.3-.2-.1-.1-.1-.1v-.1h-.1l-.2-.3-.1-.1-.2-.2v-.1h-.1v-.8l-.1-.1-.1-.1h-.2v-.1l-.1-.1v-.1l-.2-.2-.1-.2v-.1h-.1v-.1l-.1-.1h-.1v-.1h-.2v-.1h-.1l-.1-.1-.1-.1v-.1h-.2v-.1h.2l.1-.1h.3l.2.1h.5v-.1h.1v-.1l.1-.1v-.3l.1-.1v-.8h.1v-.2h.1v-.1h.4l.2.1v.1l.3.3h.1v.1h.2v-.1h.2v-.1l.2-.1.2-.1.1-.1h.1l.1-.1.1-.1.1-.1.1-.2.1-.2h.1v-.1h.1v-.1h.1l.1-.1h.1l.2-.2h.1v-.1h.1v-.1l.1-.1v-.1h.1v-.6h.1v-.1h.2v-.1l.2-.1v-.2h.1v-.1l.1-.2v-1h-.1v-.1h.6v-.5l-.2-.1v-.1h-.1v-.2l-.1-.2v-.6l.1-.4v-.6l.1-.1v-.1l.1-.3v-.1l.1-.1v-.5l.2-.3v-.6l.1-.2v-.1l.2-.5h.1v1h-.1l-.2.3v.3l-.1.1v.4h.1l.2.3.1.2v.2h.1l.2.4v.1h.1v.1h1.8l.1-.1h.2l.2-.1h.2l.6-.2h.1l.2-.1h1.3v.1h.1v.1h.1l.1.1h.1v.1h1.2v-.1l.2-.1v-.1h.1v-.2h.2v-.1h2.3v.1h.9v.1h.2l.7-.2.4-.2h.4v-.1h.1v-.1h.1v-.1h.1v-.2l.1-.1v-.2h.2l.1-.1.2-.1h.3v-.1h1.8l.1.1h.1l.1-.1.1-.1v-.1h.1v-.3l.1-.1v-.4l-.1-.1v-.1h-.1l-.1-.1-.2-.1-.1-.1h-.1v-.2l-.3-.2v-.1h-.1l-.1-.1h-.4v-.1h-.1l-.1-.1v-.1h-.1v-.6l.2-.1.1-.1.2-.1.6-.3v-.1h.2v-.1h.7l.1-.1v-.1l.2-.1v-.1l.1-.1.1-.1.1-.1.2-.1v-.1h.1v-.7h-.1v-.1h-.1l-.1-.1h-.1v-.2h.1v-.1h.1-.3l-.1-.1h-.2v-.2h-.1l-.1-.2-.1-.1v-.1l-.2-.3v-.1h-.1v-.2l-.3-.2v-.2h-.1l-.2-.4-.2-.2-.1-.2-.5-.6-.1-.1v-.5l.1-.2v-.3h-.5v-.1h-.2v-.1h-.1v-.3l.1-.1v-.1l.2-.2.1-.1v-.1h.1v-.3h-.1l-.3-.4h-.2v-.2h-.1l-.2-.3v-.1h-.1l-.1-.1h-.8l-.3-.2h-.5v-.4h.2v-.2h.2v-.1l.1-.1h.2v-.1h.1l.1-.1.2-.1h.1v-.1h.4l.2.2.1.1h.8l.2-.1.3-.1.1-.1h.1l.1-.1h.1l.2-.1v-.2h.1v-.6l-.1-.1v-.1l-.1-.1-.2-.1v-.2h.1v-.1h.4l.2-.1h.2v-.1h.2l.1-.1h.1l.1-.1.1-.1h.2v-.2l.2-.1.1-.1h.3v.1l.3.3.1.1.2.1v.1h.5l.3-.2.3-.1.3-.2h.2v-.1h.2v-.2h.2l.2-.2.2-.2.1-.1h.1l.2-.2v-.1h.2v-.2h.1l.1-.1v-.2h.2v-.3h.1v-.1l.2-.1.1-.2h.1v-.1h.1v-.1l.2-.1.1-.1.2-.1.1-.2.1-.1.1-.2.2-.2.1-.1h.1v-.1l.3-.2h.3v-.1h.5v-.1h.3v-.1l.2-.1v-.1l.2-.1v-.1l.2-.1v-.1h.1l.2-.2h.1l.1-.1.1-.1v-.2h.1v-.6l-.1-.1v-.1h-.1v-.2h-.1V163l-.1-.2-.1-.2-.1-.2v-.1h-.2l-.1.1h-.6l-.4-.1-.2-.1h-.5l-.1.1-.1.1v.1h-.1v.1l-.1.2-.1.2h-.1v.1l-.1.1-.2.2-.1.1h-.2l-.1-.1v-.1h-.1v-.2h-.1v-.7l.1-.1.1-.2h.1l.1-.2h.2v-.1h.1l.1-.1h.2v-.1h.3l.2-.1.3-.1h.2l.1-.1h.1l.1-.1h.1v-.1h.1v-.1l.2-.1.2-.2h.1l.2-.2h.1v-.1h.1v-.1h.1v-.1l.2-.1.1-.1h.1v-.3l.1-.1v-.3h-.1v-.1h-.1l-.2-.1-.2-.1v-.1h-.1v-.1l-.1-.1v-.1l-.1-.1v-.2h-.1v-.3l.1-.1v-.1l.1-.1.3-.2v-.1l.3-.3.1-.2h.1v-.1h.1l.1-.1v-.1h.1v-.3l.1-.1v-.7l-.1-.2v-.1h-.1v-.2h-.1l-.2-.2-.1-.1h.1v-.2l.1-.2v-.1h.1v-.2h.1l.2-.3h.1l.2-.2.1-.1.1-.1.1-.1.2-.2.2-.1.1-.1h.1l.2-.2h.1l.2-.2.1-.1.1-.1v-.1l.1-.1v-.8l-.1-.1-.1-.1v-.1h-.1v-.1h-.1l-.1-.1h-.9l-.1-.1v-.3l-.1-.2v-1h.1l.1-.1h.1v-.1h.1l.2-.2h.1l.2-.1h.1l.1-.1h.5l.1.1.1.1.1.1v.1h.1v.2h.1v.1l.1.1.1.1h.1l.1.1h.1v.1h.4" clip-path="url(#p6313ca4dd2)"/><path d="M206.9 123h.1l.1.1.2.2v.1h.2v.1h.4v-.1l.2.1.1.2.1.1v.2l-.2.1v.1h-.1v.5l.2.4v.7h-.1v.2h-.1l-.1.1h-.1l-.1.2h.2v.1l.3.2h.2l.3.2.2.1.1.1.1.1.2.2v1.2h.1v.1l.1.1.2.1.1.1.2.2h.1l.4.3h.1l.1.1h.1l.1.1.2.1h.2l.1.1h.1v.4l.1.1.1.1v1.2l.1.1.1.2.1.1.1.2.2.2h.1v.1h.2v.2l.1.1h.1v.2h.1v.6h.1v.1h.1l.1.1v.3h-.1v.5l.2.3v.2h.1v.5l-.1.1-.2.1h-.1l-.1.1-.2.1-.2.1h-.1v.1h-.1v.1l-.1.2-.1.1v.1h-.1.9l.8.1h.8l1.1.1h.7l.1.1.1.1v.6h.1l.1.1v.8l.1.1v.1l.1.1.1.2.1.1.1.1v.1h.2v.1h.3l.1.1h.1v.1h.2l.1.2h.5l.2-.1h.1l.1-.1.2-.1.1-.1.2-.1.2-.1.4-.2h.1v-.1.1l.1.1v.1l.1.1v.1l-.2.1-.2.1v.1l-.3.1-.1.1-.1.1v1.4h.1v.2h.1v.1h.1l.1.1h.1l.1.1h.7l.3-.1h.3v.2l-.2.2v.1h-.1v.5l.1.1v.1h.1v.2l.1.2.1.2.1.1.2.3h.1v.2h.5v-.1h.1l.1-.1.1-.1v-.1l.2-.2.2-.2v-.1h.4l.2-.1h.3v-.1h.2v-.1h.1l.1-.1h.1l.2.1v.1l.1.2.1.2.1.2.1.1v.2l.2.3v.1l.2.5v.3l.1.1.1.2.2.3.1.2.1.1.2.5.1.2h.1v.1l.1.1h.1l.1.1h.3l.1.1.1.1v.1h.1v.2h.1v1.3h.1v.4l-.2.1-.2.2-.3.3-.2.2-.2.2.4.7.1.1.1.2.1.1.1.2h.1v.1h.1v.1h.1v.1h.3v.1h.5l.1.1h1.3l.2.2h.1l.2.1.2.1.1.1v.1h.1v.1h.5v.1h.1v.3l-.1.3v.1h-.1v1.2l.1.2h.1v.1l.2.1v.2h.2v.2l.4.5.1.1h.1v.1h.4l.4-.3.1-.1h.1l.1-.1h.2l.3-.2h.2v-.1l.2-.1.2-.1.5-.3.2-.2h.1l.1-.1.1-.1v-.1l.2-.1v-.1l.3-.3.1-.1h.1l.1-.1h.9v.1l.1.1v.1l.1.1v.2h.1v.1h.7l.1-.1h.1v-.1h.1l.1-.1.1-.2h.5l.2.1v.2h.2v.2h.1v.1h.1v.2h.1l.1.1.1.1v.1h.1v.1l.1.2v.7h.1v.3l-.1.1v.1l-.1.1-.1.1h-.1l-.1.1v.1h-.1l-.3.4-.3.3v.1h-.1v.2l-.1.1v.3l.1.2.1.1v.1h.1v.1h.1l.1.1h.1l.1.1h.1v.1h.1v.1h.1v.6h-.1l-.1.1h-.1l-.1.1-.1.1-.1.1v.1h-.1l-.1.1-.2.1v.1l-.2.1-.1.1-.1.1h-.1l-.1.1-.1.1h-.1l-.2.1h-.2l-.3.2h-.2l-.2.1h-.1l-.2.1h-.1l-.1.1h-.1v.1l-.2.1v.1l-.1.1-.1.1v.2h-.1v.7h.1l.1.2h.1v.1h.2l.2-.2.1-.2h.1v-.1l.2-.2v-.2h.1v-.1l.1-.1.1-.1h.1l.1-.1h.6l.4.2h.6l.1-.1h.1v.1l.2.2v.2l.1.1v.7l.1.2v.8l.1.1v.1h.1v.3l.1.1v.5l-.1.1v.1h-.1v.1h-.1l-.2.1h-.1l-.1.2h-.1l-.1.2h-.1v.1h-.1l-.2.2h-.1v.1h-.4l-.2.1h-.2l-.1.1-.3.2h-.1l-.2.2-.1.2-.2.2v.1l-.2.1-.2.2-.1.1-.1.1-.2.1v.1l-.2.1v.1l-.1.1h-.1v.2l-.2.2v.2h-.1l-.1.1-.1.1-.1.1h-.1l-.2.2-.1.1h-.1l-.2.3-.2.1-.1.1-.1.1h-.1l-.1.1-.2.1-.3.2h-.3l-.3.2-.1.1h-.4l-.1-.1-.1-.1-.1-.1-.2-.3h-.1v-.1h-.3l-.1.1-.2.1v.1h-.1v.1h-.1l-.1.1-.2.1h-.2l-.1.1h-.2l-.2.1-.3.1h-.2v.2l.1.2h.1v.2h.1v.2h.1v.5l-.1.1-.1.1-.2.1h-.2l-.2.2h-.3l-.2.1-.2.1h-.5l-.1-.1-.2-.1-.1-.1h-.4l-.2.2h-.1l-.2.1-.2.2-.2.1v.1h-.1v.2h-.1v.2h.2l.3.1.3.1h.7v.1h.2v.1h.1l.2.3v.1l.1.1h.1v.1l.4.3v.1l.1.1v.2l-.2.2-.1.2-.1.1v.1h-.1v.3h.1l.1.1h.6v.4l-.1.2v.5l.5.6.1.1v.1h.1l.2.3.1.3.1.1.1.2.2.2.1.1v.1l.1.1.1.3.1.2.1.1.1.1.1.1h.1l.1.1h.4v.1h-.1v.1h-.1v.1l.1.1h.1v.1h.1v.2l.1.2v.4h-.1l-.2.2-.1.1-.1.1h-.1v.1l-.1.2h-.1v.1h-.1v.1h-.8l-.2.2-.5.3h-.2v.1h-.2v.1l-.1.1v.1l-.1.1v.3l.1.1.1.1h.1v.1h.5v.1h.1v.1l.1.1.2.2.1.1.1.1.2.1.1.1.1.1v.1h.1v.3l.1.1v.4h-.1v.1l-.1.1-.2.2H229l-.4-.1h-.5l-.1.1h-.2v.1h-.2v.2h-.1v.2l-.1.1v.1h-.1v.1h-.1l-.1.1h-.1l-.1.1h-.2l-.4.2-.6.2h-.3l-.1-.1h-.8v-.1h-2.3l-.1.1v.1h-.1v.1h-.1l-.1.2h-.1v.1h-1.3v-.1h-.1l-.1-.2h-.2l-.2-.1h-1.3l-.6.3h-.4l-.2.1h-.7l-.2.1h-1v-.1h-.1v-.1l-.2-.3v-.1l-.1-.2v-.1l-.2-.1v-.2h-.1v-.2l-.1-.1v-.4l.1-.2.2-.2v-.4h.1v-.7h-.1l-.1.5v.1l-.1.2-.2.6v.5l-.1.3v.2l-.2.2v.9l-.2.4v.9h.1v.1h.1l.1.2h.1v.4h-.6v.2l.1.2v1l-.1.1v.1h-.1l-.1.1v.1h-.1l-.1.1h-.1v.5l-.1.1v.1l-.1.1v.1h-.1v.1h-.1l-.3.2-.2.1-.1.1-.1.1v.1l-.1.1v.1l-.1.1-.1.1-.1.1h-.1v.1h-.2l-.1.2h-.2l-.1.1-.1.1-.1.1-.1.1h-.1l-.2-.1-.3-.3-.1-.1-.1-.1h-.4v.2h-.1v.6l-.1.3v.3l-.1.1v.1h-.1v.1h-.2v.1h-.6l-.1-.1h-.5v.1l.1.1.2.2h.1l.1.1h.1v.1l.1.1h.1v.1h.1v.1l.1.2.1.1.1.2.2.2h.1v.1h.1l.1.1v.1l.1.2v.7h.1l.1.1v.1h.2l.2.3.1.2.2.2.2.2h.1v.6l-.1.2-.1.1v.9l.1.1.1.1h.1l.1.1h.2v.1h.3v.1h.8v-.1l.3-.1h.1l.2-.1.2-.1h.1l.1-.1v-.1l.2-.2h.1l.1-.1h.4l.1.1h.4v.1h.1l.2.1v.1l.1.1v.4l.1.2v.1h.1v.1l.1.1.1.1.1.1.1.1.1.1.2.2.2.1h.1l.2.2h.1l.1.1.4.2.1.1h.2v.1h.4v.1h.1v.8l.1.3v.7l-.1.3v.1l-.1.2v.8h.1v.1l.1.1v.1l.2.1v.1l.1.1.2.2.1.1.1.1h.1v.1h.1l.3.2v.3h-.4l-.2.1h-.9l-.1.1h-.1l-.1.1h-.1l-.1.1h-.1l-.1.2-.2.1-.1.1h-.1v.1h-.2l-.3.1h-.1l-.1.1h-.1v.1h-.1l-.1.2-.1.1v.1h-.1v.2h-.1v.1l-.1.3v.2h-.1v.1h-.1v.2h-.2v.1h-.7l-.1.1h-.1v.1h-.1v.1l-.1.1v.5h.1v.1l.2.1v.1h.2v.1h.4v.1h.2v.3l-.1.1-.1.2h-.1l-.1.1h-.2l-.1.2h-.2v.1h-.1l-.1.2h-.2l-.4.4h-1v.1h-.1v.3h.1v.7h-.1v.1h-.2v.1l-.2.2h-.1l-.2.2-.1.1h-.1l-.1.1h-.2l-.3.1h-.2l-.1.1-.1.1h-.1l-.2.2-.2.1-.1.1-.1.1v.1l-.2.3v.2l-.1.1-.1.2h-.1v.1h-.1v.4l.1.1v1.3h.1v.2l.1.1.1.2h.1v.2l-.1.1h-.1l-.2.1h-.1l-.1.1h-.1v.5h-.1v.1l-.3.2-.1.1-.1.1v.2l-.1.1v.7l-.1.2v.2h-.1l-.1.1h-.4l-.3-.1h-.5v.1h-.1v.1l-.1.1v.1l-.2.3v.1l-.1.1-.1.1h-.4l-.1.1h-.1v.1h-.1l-.1.1-.1.1-.1.1h-.9l-.3.1-.3.1h-.8l-.2-.1h-.1l-.4-.1h-.3v-.1h-.1l-.1-.1h-.1l-.2-.2h-.2v-.1h-.6l-.1.2-.1.1h-.2l-.1.1h-.4v-.1h-.1l-.1-.1h-.1v-.1h-.1v-.3l.1-.2.1-.1v-.1l.2-.2v-.1l.1-.2v-.2l.2-.2v-.5l.1-.3.1-.1v-.1l.1-.1.1-.1.3-.2v-.1h.1v-.4l-.2-.2h-.1v-.3l-.1-.1v-.5l-.1-.2v-.9h-.1v-.2h-.2l-.1-.1h-.3v-.1h-.1v-.2l-.1-.1v-.3h-.1l-.1-.4-.1-.1v-.3l-.1-.2v-.8l-.1-.2v-.2l-.1-.1h.2l.2.1h.3l.1-.1h.1v-.5h.1v-.4h.1v-.2h.1v-.2h.1v-.1h.1l.1-.2h.1v-.6l.1-.2v-.1l.1-.1v-.1l.1-.1.2-.3v-.1h.1v-.2h.1l.1-.1.2-.2h.1v-.1h.1v-.4h-.2l-.2-.1h-.1v-.3h.1v-.1h.2l.1-.1h.1v-.1h.1v-.7l-.3-.2v-.2l-.1-.1v-.2l-.1-.2v-.2h-.1v-.2h-.1l-.1-.1h-.1v-.1l-.2-.1-.3-.2-.3-.2-.2-.1-.1-.1h-.1v-.1l-.1-.1v-.1h-.1v-.1l-.1-.2-.1-.1v-.2l-.2-.3v-.1l-.1-.2v-.2l-.1-.1v-.1h-.1v-.1h-.1v-.1h-.2v-.1h-.2v-.1h-1.2v-.1h-.3l-.1-.1h-.1l-.3-.2h-.4l-.2-.1h-.2v-.1h-.2l-.1-.1h-.1l-.4-.2-.3-.1v-.1h-.1v-1.5l.2-.4v-.8h.1l.1-.1h.5v-.1h.1l.1-.1.1-.1.1-.1h.1l.1-.2.1-.2.1-.1.1-.1.1-.2v-.1h.1v-1.4l.2-.5v-.5l-.1-.2v-.7l.1-.1v-.5h.1v-.1l.1-.2.2-.2h.1v-.1l.2-.2v-.1h.1v-.1h.1l.2-.2h.2v-.1l.1-.1.1-.1v-.1l.1-.1v-.8h-.2v-.1h-.5l-.1-.1h-.1v-.2h-.1v-.8h.1v-.1l-.1-.1h-.1v-.1l-.3-.1-.1-.1v-.1h-.1v-.5l.1-.1h.1l.1-.1h.7v-.1h.2v-.1h.1l.1-.2v-.1h.1v-.3l.1-.1v-1h.1l.1-.2v-.5l-.1-.2v-.2h-.2v-.3l.1-.1.3-.2v-.1h.1v-.1h.1v-.1l.2-.1v-.1h.5v.1h.1v.1h.1v.2h.1v.4l.1.1v.1h.1v.1h.1l.1.1.1.1h.1l.1.1h.2v-.2l.1-.1v-.4l-.1-.1-.1-.1h-.1v-.8l.2-.3v-.7l-.1-.1-.1-.3v-.2h-.1v-.7l.2-.2v-.1l.1-.1.2-.2h.1v-.1h.1v-.2l.1-.1h.2l.2-.1h.1l.1-.1h.1l.1-.1.2-.1v-.1h.1v-.1h.1v-.5h-.2l-.2-.1h-.2l-.1-.1h-.1l-.1-.1v-.1l-.2-.3v-.3l-.1-.2v-.4h-.1v-.1H199l-.1.1h-2v-.1h-.2v-.1h-.1l-.2-.3-.1-.2-.1-.1-.1-.1v-.3h-.1v-.6h-.1l-.1.1v.1l-.1.1-.2.2-.3.5-.2.3-.2.2v.1l-.1.1-.2.2-.1.1h-.1v.1l-.3.1-.1.1-.4.3-.3.2-.2.1-.2.1-.1.1h-.1l-.2.1-.3.1h-.1l-.1.1-.1.1h-.2v.1l-.1.1-.1.1-.1.1v.1l-.2.5v.3l-.2.1v.3h-.1v.1h-.1v.1h-.2l-.1.1-.1.1v.4l.1.1v.6h-.1v.2h-.2l-.1.1h-.1l-.2.2-.4.1-.2.2-.5.2h-.2l-.3.2-.2.1-.1.1-.3.2v.1h-.1l-.1.1h-.2l-.2.2h-.2v.1h-.1v.1l-.2.2v.1l-.1.2-.2.3v.2h-.1l-.1.2-.1.2v.2h-.1v.2l-.1.1v.3l-.1.1v.3h-.1v.2h-.1v.1l-.1.1h-.1v.2h-.1v.4l.1.1.2.4v.1l.1.1h.1v.1h.6v.1h.1v.1l.1.3v.5l-.1.1v.7l-.1.1v.1l-.2.5-.1.3v.1l-.2.2v.3l-.1.1v.1l-.1.1v2.9l.1.2v.1h.1v.2l.2.2v.2h-2l-.1.1h-.1v.1h-.2l-.2.1-.4.1-.2.1-.4.1-.3.2h-.3l-.1.1h-.1v.1h-.5l-.1.1h-.4l-.1.1h-2l-.1.1-.6.2h-.2l-.1.1h-.1l-.1.1h-.1l-.1.2h-.1v.1h-.1v.2l-.1.1v.2h-.1l-.1.1-.1.2-.2.1-.1.1-.1.1h-.2l-.1.1h-.3l-.1.1h-1l-.1.1-.1.1-.3.3-.2.2v.1l-.1.1-.1.2v.1l-.2.3-.1.1-.2.4-.1.1h-.1l-.1.1h-.2v.1h-.1l-.3.2h-.1v.1h-2.6l-.1.1-.3.1-.3.2-1 .4-.1.1h-.1l-.1.1h-.1l-.2.1h-.5l-.1-.2h-.2l-.3-.1h-.1v-.1l.3-.3v-.2h.1v-.1l.2-.1v-.2h.1v-.2h.1v-1l-.3-.6v-.2l-.2-.3v-.2l-.1-.1v-.1l-.1-.2-.2-.2-.3-.4-.2-.3v-.1l-.1-.1v-.1l-.2-.1v-.3h-.1v-.4l-.1-.1v-.2h-.1v-.3l-.2-.2v-.1l-.1-.1V199l-.1-.3v-.2l-.1-.2v-.3l-.1-.2v-.6l-.1-.2v-.2l-.1-.1v-1.2l-.1-.1-.1-.1h-.2l-.1-.1h-.7v-.6l.1-.2v-.8h-.1v-.3l-.1-.1v-.9l.1-.3v-1.2l-.1-.4v-.7l-.1-.1v-.1l-.1-.5v-.2l-.1-.5v-.7h.1v-.1l.1-.1v-.1h.1l.2-.2.1-.1v-.1h.1v-.2l.1-.1v-.1h.1v-.1h.2v-.1l-.2-.2v-.1h-.1v-.1l-.1-.1-.2-.2-.2-.1v-.1h-.1v-.2l-.1-.1-.1-.2v-1.6l-.1-.1v-.1h-.1l-.1-.2-.1-.1h-.1l-.2-.2h-.1l-.1-.2h-.1v-.1h-.2l-.2-.1-.2-.1v-.1h-.1v-.3l-.1-.1v-.6l-.1-.1v-.3l.1-.1.1-.1h.2v-.1h.2l.3-.2h.1l.1-.1h.1l.3-.3.3-.2h.2l.2-.1v-.1h.1l.1-.1v-.1h.1v-.2h.1v-.8l-.1-.1v-.2h-.2l-.1-.1v-2h.1v-.1h.1v-.1h.2V174l.2-.2v-.7h-.4l-.1-.1-.1-.1-.1-.1-.1-.2-.1-.1-.1-.1h-.4v-.1h-.2l-.2-.2h-.1l-.2-.1h-.1v-.1h-.3l-.1.1h-.1v.2h-.2v.1l-.1.2h-.1l-.1.1-.2.2h-.1v.2h-.2l-.1.2-.1.2h-.1v.1l-.1.1v.1h-.3l-.2-.2h-.2v-.1h-.1l-.2-.2h-.1v-.1h-.2v-.1h-.2l-.2-.1h-.1v-.1h-.2l-.1-.2h-.2l-.1-.1h-.2l-.1-.1-.1-.1-.2-.2-.1-.1-.3-.1-.1-.1h-.1v-.1h-.1v-.1h-.1v-.1h-.1l-.1-.3h-.1v-.1h-.1v-.1h-.2l-.1-.1v-.7l.1-.1v-.1h.1v-.1l.2-.1.1-.2.2-.1.1-.1.2-.1h.1l.2-.2h.2v-.1h.1v-.2h.6l.1-.1v-.3l.2-.1h.2l.1-.1h.1v-.1l.1-.2h.1v-.1h.9l.1-.1h.1v-.1h.6l.2.1h.2v.1h.2l.2-.2v-.2h.1v-.3h.1l.2-.2v-.1h.1v-.1l.1-.2v-.5h1.7l.2-.2h.1v-.1h.1v-.1l.1-.1v-.1h.1v-.2l.2-.3.1-.2v-.2l.1-.1v-.6h.5l.2.1.3.1h.1l.2.1h.5l.1-.1.2-.1h.6l.1.1h.7v.1l.3.1h.4l.2-.2h.2v-.1l.1-.1v-.2h.1v-.4l.1-.1v-.1l.2-.2v-.1h.1v-.2l.1-.2v-.2l.1-.2v-.1h.1v-.2h.5l.2-.1h1.6l.1.1v.1h.1v.6h.1l.1.1.3.1.1.1h.1v.1l.1.1v.1l.1.2h.9l.2-.1.4-.1h.2l.2-.2h.2l.4-.1.4-.2h.2l.2-.1h.3v-.1h1.2l.5.1h.2v-.1l.1-.1.1-.2v-.1h.1v-1.6l-.1-.1h-.1v-.1l-.3-.1h-.1v-.1l-.1-.2v-.2l.1-.1v-.2h.1v-.6l-.2-.2V157l.1-.1v-.1h.1v-.1h.1v-.1h.1v-.1l.2-.1v-.1l.1-.1v-1h.1v-.1h.2l.3-.2h.2v-.1l.1-.2v-.2l-.1-.1-.1-.1h-.1l-.2-.2h-.2v-.1h-.1l-.1-.2h-.1l-.2-.2-.1-.1v-.1h-.1v-.4h.3v-.1h.2v-.1l.1-.1.1-.1h.1l.1-.1.2-.1h.1v-.1l.1-.2v-.1h.1v-.1h.1v-.2l.1-.2v-.3l.1-.3v-.3h.1v-.2l.1-.2.1-.1.1-.2.1-.1v-.3h-.1v-.1h-.5l-.1.1h-.6l-.1-.1h-.1l-.1-.1-.2-.2h-.4l-.1-.1h-.1v-.1h-.1v-.6h-.4l-.1-.1v-.1h-.1v-.2h-.1l-.1-.1h.4l.1-.1.1-.2.1-.2v-.2l-.1-.1v-.1h-.1v-.2l-.2-.1v-.2l.1-.1h.3v-.1h.2v-.1l.1-.1.1-.1v-.4l.1-.1v-.2h.1v-.1h.1l.2-.3v-.2h.1v-.1l.1-.2.2-.3v-.8l-.1-.1-.3-.3v-.1h-.1v-.1l-.2-.3v-.5l-.1-.2v-.2l.1-.1.2-.2v-.1h-.4l-.1.1h-.3v-.1h-.4l-.2.1-.1.1-.3.3-.2.2h-.1v.1h-.3v-1h-.1v-1.1l.2-.4v-.1h.1v-.5h.1v-.1l.1-.1v-.1h.1l.2-.2h.2v-.1h.1v-.2h.1v-.3h.1v-.1l.2-.2V136l-.2-.3v-1.1l-.1-.1v-.2l-.1-.1v-.8h.4l.1-.1h.3l.1-.1h.1l.1-.1.2-.1.3-.2.1-.1h.2v-.1h.2v-.1h1.3v.2h.1v.2h.1v.1h.5l.2-.1h.4v.1h.5v.1l.2.1v.1h.7v-.1l.4-.2h.2v-.1l.3-.1h.1v-.1h.1v-.1l.1-.1.1-.1v-.4l-.1-.1h-.1l-.2-.3h-.1v-.1l-.1-.1-.1-.1v-.1l-.1-.2v-.2h-.1v-.3l-.1-.1v-.7l-.1-.1v-1.1l.2-.2.1-.1.1-.1.2-.1.1-.1h.2l.1-.1h.3v.1h.1l.2.2h.1l.1.1h.1v.1h.2l.2.2h.1l.1.1h.2v.1h.2v.1h.2v.1h.2l.1.2h.1l.1.1h.4v-.1h.1V128l.1-.1.1-.1.1-.1h.1l.2-.1h.1l.2-.1h.2l.1-.1h.7l.1.1v.2h.1v.3h.2v.1l.2.1v.2h.1v.4h-.1v.5l.1.2v.3h.4l.1-.1.2-.2.1-.1.2-.2.1-.1.1-.1.1-.1h.1l.1-.1h.1v-.1h.2l.1-.1h1.1l.1.1h.1v.1l.1.1v.2h.1l.1.3v.1h.1v.1h.2v-.5l-.3-.2v-.2l-.1-.1v-.2h.1l.2-.1h.1l.2-.1h.4l.1-.1.2-.1v-.1h.2v-.1h.1l.1-.1h.1l.1-.1h.3v-.1h1.5l.1-.1h.2v-.1h.2v-.1h.2l.4-.4.2-.1h.1l.2-.1h.2v-.1h.4l.2-.1h.3v-.1h.3l.6-.3h.4l.2-.1h.4l.1-.1h.1v-.6h.5l.4.1h1.2l.1-.1.1-.1h.1l.3-.5.3-.3v-.1h.1v-.3h.1v-.6h.2l.3-.2v-.1h.2v-.1h1v-.1h.4v.1M164.3 91.7l.2.1v.1l.3.2h.1v.1h.1v.1h.1v.1l.1.2v.1l.2.1v.1l.1.1v.2l-.1.2v.2h-.1v.3l.1.1v.1l.2.3.1.2.1.1.2.3h-.4l-.2.1h-.1v.4h-.1v.4h-.1l-.2.3h-.1v.3l.1.1.3.3h.1l.1.1v.1h.1l.1.1h.1v.1h.6l.1.1.1.1.1.2.1.1v.1h.2v.1h.3l.1.1h.4v.1h.1v.5h.1l.2.3v.1h.1v.6l.1.1v.9l.2.2.5 1.2-1.7.2.1.1v.2h-.1v.1l-.2.2v.1l-.1.1v.2h.3l-.2.2v.2l.1.1h.1l.1.1.2.2.7.4.3.2.3.2.4.3v.1h.1v.1l-.3.1-.6.3h-.3v.1h-.2v.1l-.2.1-.4.3-.2.2-1 .5v.1h-.6l-.1.1h-.1l-.3.2h-.2l-.4.3h-.3l-.6.3-.8.4-.3.1h-.1v.1h-.5l-.1-.2-.1-.1v-.1h-.1l-.1-.1h-.2v-.1l-.3-.1h-.2l-.2-.1h-.5l-.2-.1h-.3l-.1-.1-.3-.1H158v-.1h-.1v-.1l-.2-.2-.2-.1v-.1l-.2-.2v-.2h-.1l-.1-.3v-.2h-.1v-.4l-.1-.2v-.3l-.1-.1v-.1h-.1l-.2-.1h-.1l-.2-.1h-.2v-.1h-.1v-.1l-.2-.4v-.5l.1-.1v-.1l.1-.1v-.3l-.2-.1h-.2v.1h-.1v.1h-.1l-.1.1-.1.1h-.2l-.3.1h-.2v.1h-.4l-.1-.1h-.1v-.1l-.2-.1-.1-.1h-.8v-.1h-.2v-.1h-.1l-.1-.2v-.1h-.1v-.1h-.1v-.1h-.1l-.3-.1h-.3v-.3l.1-.1v-.1l.2-.2.1-.1v-.1h.1v-.2l.1-.1v-.5l.1-.1v-.1l.1-.1.1-.1h.4v-.1h.4l.1-.1h.1l.2-.1h.1l.2-.1h.3v-.1l.1-.2v-.2l.1-.3v-.3h.2v-.5h-.1v-.1h-.1V98h.1l.2-.1.1-.1v-.1l-.3-.1v-.1h-.2v-.1h-.1v-.2l-.1-.1v-.7l.2-.2.1-.1.1-.2.2-.3h.2l.1-.1v-.1h.1v-.1l.1-.1h.1V95h.1V95l.1-.1v-.5h-.1v-.1l-.1-.1h-.1v-.4l.1-.1.4-.1h.5v-.1l.3-.2h.2l.2-.1.1-.1h.1V93h.1v-.2h.1l.1-.1.2-.1.2-.2h.2l.1-.1h.4v-.1h1l.2.1h.8v.1l.3.1h.1l.2.1h.4l.3-.2.1-.2V92l.1-.1v-.1l.2-.1v-.3h.1v-.1h.1v-.1h.1l.3-.1.1-.1h.1l.2-.1.1-.1h.7v.1h.1l.1.1v.2h.1v.3l.1.1" clip-path="url(#p6313ca4dd2)"/></g><g id="PatchCollection_2"><defs><path id="m4c3ce2745f" stroke="#bdc660" d="M262.5-177.4v.2l-.1.1-.2.2v.8l.2.4.1.2.1.3.1.1v.9l-.1.2v.2h-.1v.2h-.1v.2h-.1l-.1.2-.4.5v.1l-.1.1v.1h-.1v.2h-.1v.4h-.1v.2h.1l.1.2.2.2.2.1h.1l.2.1h.3v.1h.6l.2.1h.1l.2.1h.1l.2.1h.2l.1.1h.1v.1h.2v-.1l.1-.3.1-.2.1-.1.2-.1.2-.1h.9v.2l.1.2v.3h.1l.1.1h.5l.1-.1.3-.1.2-.1.1-.1h.2v-.1h.6l.2.2h.2l.1.1.1.1h.1l.2.2h.1l.1.1v.1l.2.1.1.3h.1l.1.1v.1l.2.1h.1v.1h.1v.1l.1.1v.5l.1.2.1.1.1.1.3.4.1.1v.1l.1.2.2.3v.2h.1v.1h.1v.1h.4v.1h.9l.1-.1h.2l.2-.1h.3l.1-.1h.6l.2-.1h.8l.1.1.3.1.2.2h.2v.1h.2l.2.3h.1v-.1l.2-.3v-.3h.2v-.2l.2-.2.2-.3v-.1l.2-.1v-.2h.2l.2-.3.2-.3.2-.3v-.1h.1v-.2l.1-.1v-.4h-.1v-.1l-.1-.2-.1-.1-.2-.1v-.1h-.2v-.1h-.2v-.1h-.1v-.1h-.1v-.1h-.1v-.2l-.1-.1v-.1l-.1-.1v-.4h.3v.1h.6v-.1h.8v.2h.1v.1h.6v-.1l.4-.3.1-.1h.1l.1-.1h.3l.2-.2h.2l.2-.1.2-.1h.2v-.1h.3l.2-.1h1v.1h.2v.1l.1.1.1.2.1.1.1.1h.1l.1.1h.3v.1h1.2l.3-.1h.5l.2-.1h.7l.3.3.1.1.1.1.1.1h.3v.1h.1l.1.1h.1v.1h.1v.1h.1v1l-.2.3v.3l-.1.2v.7l.1.1v.3h.1v.2h.3v-.1l.1-.1v-.3h.1v-.2h.1v-.1h.3l.4.2h.4v.1l.3.1h.2l.1.1h.3l.1.1h1.2l.2-.1h.4l.2-.1h1.2l.1.1h.1v.2h.1l.1.1v.1h.1v.3l.2.2v.4h.1v.4l.1.2v.1l.1.1.3.3v.1l.1.1v.1l.2.2v.2h.1l.2.2v.1l.2.2v.1h.1v.2l.1.2v.3l.1.1v.2h.1v.2h.2v.2h.1v.1h.1l.1.1.2.2.2.1.1.2.2.1v.1l.1.1v.3l.1.1v.1l.1.1v.2l.1.1.1.2.1.1.1.1.1.1.1.1h.1v.2h.2l.3.2v.1h.1v.1l.1.1v.6l-.1.1h-.1v.1h-.2l-.2.1h-.2l-.1.1v.3l.1.1.2.2.3.3v.1l.1.1.1.2.1.1v.6h.4v-.1l.1-.2h.1v-.1h.1v-.2h.1l.2-.1h1.8v.1h.2l.2.1h.2l.2.2.2.1.2.1.2.1h.3l.7-.1h.4l.1-.1h.9v.1h.1v.2h.1v.8l-.1.2-.1.2-.2.2v.1l-.1.1-.1.1v.1h-.1v.1h-.1l-.1.1-.3.3-.2.1v.2h-.1v1h-.1v.1l-.1.2v.1l-.2.2v.1h-.1v.1h-1.3v.1l-.1.2-.1.2v.1h-.1v.2h-.1v.1h-.1v.1h-.1l-.1.2-.2.1-.3.2v.1h-.1v.2l-.2.2-.1.2v.1l-.1.1-.2.1v.1h-.2v.1h-.2v.1h-.3v.1h-.1l-.2.2-.3.3-.2.1v.1l-.1.1-.1.1v.7l.1.2v.9h.1v.1h.1v.1h.3l.1.1h.1l.1.1h.1l.1.1.2.2h.1v.1l.1.1.1.2v.2h-.1v.1l-.2.2-.1.1v.1h-.1v.7h.1v.1h.8l.1.1h.2v.1l.1.1.2.2v.1h.1v.3h.1v.2h.1l.1.2.1.2.1.1v.1l.2.2v.2l.1.1v.1h.1v.5l.1.1.1.1h.5l.1-.1h.1l.2-.1.2-.1h.1l.1-.1h.1l.3-.2.1-.1h.4l.2.1.1.1h.5v-.1l.3-.2h.1v-.1h.9v.1h.2v.2h.1v.1h.1l.2.1h.9l.2-.1.2-.1h.6l.1.1.2.2.1.1h.1l.1.1.3.2h.3l.1.1h.1v.1h.1l.2.2h.3l.1.1h.6l.1.1v.2l-.2.2v.1h-.2v.4l-.1.1v.4l-.1.2v.5h.1v.1l.1.1v.9l.1.1v.1h.2v.1l.2.2h.1l.1.1h.3l.2.1.2.1h.9v.1h.1v.1l.1.1v.2h.1v.3l.1.1v.6l.1.2v1l-.1.2-.1.3v.2l-.1.1v.1l-.2.3v.1h-.1v1.4h.1v.6h-.1v.2h-.1v.2l-.1.1-.1.1-.2.3v.1l-.1.1v.1h-.1v.3l-.1.1v.1l-.1.1v.1h-.1l-.2.2-.1.2h-.1l-.1.2-.1.1v.1l-.1.1v.4h.1l.2.3.3.2.1.1.3.2h.1v.1h.1v.1h.1v.1h.1v.2h.1l.2.3v.2l.2.2v.4h.2v.1h.2v.1h.1l.1.2h.2v.1h.2l.1.1h.2v.1l.2.1.1.1.2.1.1.2.2.1.1.1v.1h.1v.1l.1.1v.2l.1.2v.1l.1.1.1.1.2.2.1.1v.3l.1.1v.7l-.1.1v.1l-.1.1-.1.1h-.1l-.1.1h-.2v.1h-.6l-.3.1h-.3v.1l-.2.1v.1l-.1.1-.1.1-.1.3h-.1v.1h-.2l-.1.1h-.8v.7l.1.1h-.1l-.3-.2-.2-.2h-.1v-.1l-.2-.1v-.2h-.2v-.1h-.2l-.1-.1v-.1l-.1-.1h-.5l-.1-.2v-.2h-.1v-.2h-.1l-.2-.1h-.3l-.2.2h-.1v.1h-.9v.1h-.1v.1h-.1v.8h.1v.2h-.2l-.1.1h-.3v.1h-.1l-.1.1v.8l-.1.2-.1.1v.1l-.2.2v.1l-.1.1-.2.2v.4l-.1.2v.7l.2.1v.2h.1v.6h-.1l-.2.3-.1.1-.1.1v.1l-.1.2h-.1v.1h-.1v.1h-.1v.1h-.6l-.2.1h-.9l-.3.2-.1.1h-.1l-.2.1h-.1v.1h-.6l-.1.1h-.2l-.2.2-.2.1h-.1l-.1.1h-.1l-.1.1-.1.1-.1.1h-.4v.1l-.3.2h-.1v.1h-.1v.1l-.1.1v.1l-.1.2v.2h-.1v.2l-.1.2-.1.2-.1.2-.1.1v.1h-.1v.1h-.1l-.1.1h-.2v.1h-.8l-.1.1h-.1l-.1.1h-.1v.1h-.1v.1h-.1v.5h.1v.3l-.1.1-.1.1-.2.1h-.1v.1l-.1.1v.4h.1l.2.2h.1l.2.1.1.1v.1h.1l.1.2.1.1v.1l.1.1v.2h.1v.1l.1.1v.1l.2.1v2l.2.1v.7l.1.1v.2l-.1.1h-.2l-.1.1h-1.4v.1h-.1v.1h-.1v.1h-.1l-.1.3v.1h-.1v.1h-.3l-.1-.1-.1-.2h-.2v-.1h-.3v.2h-.1v.5h-.1l-.1.1v.1l-.1.1v.3h.1l.2.3v.6l-.1.1v.1h-.2v.1h-.3v.1h-.1v.3h.1l.1.2.1.1h.6l.1-.1h.2v.1l.1.1v.2l.1.2v.7l-.2.1v.2h-.1l-.1.1h-.1v.1l-.3.1-.1.1h-.1v.1h-.1v.2l-.1.2h-.5v-.1l-.2-.2h-.1l-.1-.1h-.1v-.1h-.2v-.1h-.2l-.2-.1h-.2v-.1h-.1v-.6h.1v-.3l.2-.1v-.2h.1v-.1l.2-.2h.1v-.2l-.2-.2v-.1h-.2v-1.2l-.1-.1-.2-.1-.1-.1-.2-.1-.1-.1h-.2v-.1h-.1l-.1-.1h-1l-.3-.2h-.4v.1h-.1v1.3h-.1v.2h-.1v.1h-.1l-.2.1h-.2l-.3.2-.1.1h-.8l-.2-.1-.3-.1-.3-.2h-.1l-.2-.1-.2-.1-.2-.1-.2-.2-.1-.1-.1-.1v-.1l-.1-.1v-.4l-.1-.2v-.5l-.1-.1-.1-.4-.1-.2v-.4l-.1-.2-.2-.3v-.7l.1-.1.3-.3v-.1h.1v-.2h.1v-.1l.1-.1v-.3h.1v-.3l-.1-.1h-.1l-.2-.2h-.3l-.1.1h-.1l-.1.1h-.1v.1h-.4l-.1-.1v-.7h.1v-.4l-.1-.2v-.8l-.1-.2v-.1l-.1-.2v-.7l-.1-.2v-.7h.1l.1-.3v-.1l.2-.3v-1.2l-.1-.2v-.1l-.2-.5v-2.3l.1-.3v-.9l.1-.5v-.6l-.1-.1v-.2l-.1-.4v-.2l-.1-.2-.1-.1-.1-.1-.1-.1h-.1l-.2-.1-.3-.1h-.1l-.2-.2-.5-.2h-.3l-.1-.1-.1-.1v-.1l-.1-.1v-.1l-.1-.1v-.1h-.1v-.5h-.1l-.6.1h-.9v-.1l-.1-.1-.2-.2v-.1h-.2v-.1l-.1-.1h-.2v-.1h-.1l-.2-.1h-.4v-.1h-.3l-.1.1-.2.2-.1.1h-.1v.1h-.8l-.5-.1h-.1v-.1h-.1l-.3-.2h-.2l-.1-.1h-.1v-.1h-1.1l-.2-.1h-.1l-.1-.1h-.2l-.4-.2-.2-.1-.2-.2h-.1l-.2-.1h-.1v-.1h-.2l-.1.1-.1.2-.2.3v.1l-.2.4-.1.2v.2h-.1v.9h.4l.2.1h.1v.1h.1v.1h.1v.1l.1.1.1.1.2.3v1l-.2.3v.2l-.1.2-.2.2v.2l-.2.1v.1l-.1.1v.5l-.2.3h-.1v.1l-.1.2-.1.1-.1.2h-.1v.4h-.1v.4h1l.1-.1h1.1v.1h.3v.1h.1v.2l-.1.1-.1.1-.1.1-.1.1v.1h-.1v.1l-.1.3v.1h-.1v.1h-.1v.1h-.2l-.2.1h-.2l-.2.1-.2.1-.4.2-.1.1h-.1l-.1.1h-.3v.1h-.5l-.3-.2-.1-.1h-.8l-.2.1h-.4l-.1.1-.1.1v.3l-.1.3v.1l-.1.1h-.1v-.4h-.1v-.1l-.1-.1-.1-.2h-.1v-.1h-.2l-.1-.1h-.8l-.2.1h-.6v-.1l-.3-.1-.2-.1h-.1l-.1-.1h-.6l-.3.1h-.1l-.1.1-.1.1-.1.1-.1.1-.1.1-.1.1h-.1v.1h-.2l-.2.1h-1.1l-.2-.1h-.1l-.1-.1v-.1l-.1-.1v-.4h.1v-.2l.3-.2.2-.2v-.1l.1-.1v-.1h.1v-.2l.1-.1v-.2l.1-.1v-.1l.1-.5v-.2l.1-.2v-.1l.1-.1v-.1l.1-.1v-.1h.1l.1-.1.2-.2.1-.1v-.1h.1v-.6l-.1-.1h-.2l-.1-.1h-1.5l-.1-.1h-.1v-.1l-.1-.1-.2-.3-.2-.2v-.1l-.1-.1v-.1h-.1v-.1l-.1-.2v-.1l-.1-.1v-.3l-.3-.7v-.5h.1l.2-.1.1-.1.1-.1v-.1l.1-.1v-.8l-.1-.2v-.9h.1v-.1l.1-.1h.1v-.1l.1-.1v-.1h.1v-.2h.1v-.4h-.4l-.1-.1h-.1l-.2-.1h-.6l-.2.1h-.1v.1h-.4l-.2.1h-1.4v-.1l-.1-.1v-.7h.1v-.2h.1l.1-.2h-.3l-.2.2h-.5l-.2.1h-1.1l-.6-.5h-.1v-.1h-.3v-.1h-.1l.1-.2h.1v-.2l-.1-.1-.4-.2-.1-.1-.5-.2-.2-.1-.1-.1h-.1v-.1h-.1l-.1-.2h-.1l-.1-.2-.1-.1-.2-.2v-.1l-.2-.1v-.1l-.3-.2-.1-.2-.1-.1-.1-.1-.1-.1h-.1v-.1H254l-.1.1h-.3l-.1.1h-.1v.1l-.2.1-.1.2-.2.1h-.1v.1h-.2v.1h-.1l-.1.1h-1.1v-.1h-.2l-.2-.1-.2-.1v-.1h-.2v-.2h-.1v-.3l.1-.1.1-.1v-.1h.1v-.3h-1l-.1-.1v-.5l-.1-.1v-.1h-.1v-.1h-.2l-.2-.2h-.1v-.1h-.1v-.5l.1-.1v-.2l.1-.1v-.2l-.1-.1v-.2h-.6v.1h-.1v.1h-.1l-.2.2-.1.1h-.1l-.2.1-.2.1-.2.2h-.2v.1h-.2l-.2.2h-.2v.1h-.1v.1l-.2.2h-.2v.1l-.2.2h-.7l-.1-.1h-.1v-.4l-.2-.2v-.1l-.1-.1v-.1h-.1v-.3h-.8v-.1h-.2v-.1h-.1v-.1h-.1l-.1-.1v-.1h-.1v-.2h-.1v-.1l-.1-.1-.1-.1h-.1v-.1h-.1l-.1-.1h-.6l-.2.1-.1.1-.1.1h-.1v.1h-.1l-.1.1-.1.1v.1l-.1.1v1.2l.1.1h.2l.1.1h.8v.1h.1v.1h.1v.1l.1.2v.2h.1v.7l-.1.1-.1.1-.1.1-.2.1-.3.2-.2.2-.2.1-.2.2-.2.1v.1l-.3.2v.1l-.3.3v.1h-.1v.2l-.1.2-.1.1h-.1l-.1-.1v-.1l-.2-.1v-.1h-.1l-.1-.1-.2-.1h-.3l-.2.2h-.1v.1h-.2v.1h-.1l-.1.1h-.6v-.3h-.1v-.2h-.2v-.1h-.1v-.1h-.9l-.1.1v.1l-.3.3h-.1l-.1.2-.1.1-.2.1-.1.1-.2.1-.5.4h-.2l-.1.1-.1.1h-.2l-.3.2h-.1l-.1.1h-.1l-.2.2-.3.2h-.2v.1h-.3v-.1h-.1v-.1l-.4-.5-.1-.2h-.1l-.1-.1-.2-.2v-.1l-.1-.1v-.5l-.1-.2v-.7l.2-.3v-.3h-.4l-.1-.1h-.1v-.2h-.1l-.1-.1h-.2l-.1-.2h-.1l-.3-.1-.2-.1h-1.5l-.1-.1h-.2l-.1-.1h-.1v-.1h-.1v-.1l-.1-.1-.2-.2v-.1l-.2-.2v-.1l-.5-.7.2-.2.2-.2.3-.3.2-.2h.1v-.1h.1v-.6h-.1v-1.2h-.1v-.1h-.1v-.1l-.1-.1h-.2v-.1h-.3v-.1h-.1v-.1l-.1-.1-.1-.1v-.1l-.3-.5v-.1l-.2-.2-.2-.4-.1-.2v-.1l-.1-.2-.2-.5v-.1l-.1-.3v-.2l-.2-.2v-.1l-.1-.2-.2-.2-.1-.2h-.3l-.1.1h-.1v.1h-.3l-.3.1h-.3v.1l-.3.3-.1.2-.1.1-.1.1h-.1v.1h-.3v.1h-.2v-.1h-.1v-.2l-.2-.1v-.1l-.2-.1v-.2l-.1-.2v-.1h-.1v-.1l-.2-.2v-.5l.2-.2.1-.1v-.2h-.7v.1h-.7l-.1-.1h-.1v-.1l-.1-.1v-.1l-.1-.1v-.8l-.1-.3v-.4h.1l.3-.2h.1l.2-.1v-.1l.2-.1v-.3l-.1-.1v-.1h-.2l-.3.2-.2.1-.3.2h-.1l-.2.2h-.2l-.1.1h-.2v.1h-.3l-.2-.1-.1-.1h-.2v-.1h-.2l-.1-.1h-.1l-.1-.1-.1-.1-.2-.2v-.1l-.1-.1v-.1l-.1-.1v-.8l-.1-.1v-.1h-.1v-.1h-.1v-.5l-.1-.1h-.5l-.3-.1H214l-.3-.1h-.8l-.9-.1.1-.1v-.1h.1v-.2h.1v-.1h.1l.3-.2h.2l.1-.1.1-.1h.1l.1-.1.1-.1v-.6l-.1-.1-.1-.2v-.2h-.1v-.5l.1-.1v-.1l-.1-.1-.1-.1v-.5l-.1-.1v-.1l-.1-.1h-.1v-.2h-.1l-.1-.1-.1-.2-.3-.2-.1-.2-.1-.1v-.1h-.1v-.3l-.1-.2v-.9h-.1v-.2h-.1v-.3h-.3v-.1h-.2l-.2-.1-.2-.1v-.1l-.5-.3h-.1l-.2-.2-.1-.1-.2-.1v-.1l-.1-.1v-1.1l-.1-.1-.1-.1v-.1h-.2v-.1h-.1l-.1-.1h-.1l-.3-.3h-.2l-.2-.2h-.2v-.2l.1-.1v-.1h.1v-.1h.1v-.2h.1v-.2h.1v-.4l-.2-.4v-.1h-.1v-.4h.1l.2-.2v-.3l-.1-.1-.2-.2v-.2h.1v-.1h.2v-1l.1-.1v-.2h.1v-.2h.2v-.2h.1l.2-.4h.1v-.1h.1v-.2l.1-.1v-.3l-.2-.2v-2.2l.1-.1v-.4l.1-.1v-.2l.1-.1.1-.2h.1l.1-.1h.1v-.1l.3-.1.2-.1v-.1h.1v-.1h.1v-.1l-.1-.2h-.1l-.2-.3v-.1l-.1-.1v-.3h-.1v-.1h-.1v-.1h-.2l-.3-.2-.2-.1v-.1h-.1l-.1-.2v-.6h-.1l-.1-.1h-.1v-.2h.1v-.1h.1v-.1h.1v-.1h.1l.2-.1.3-.1h.1v-.1l.2-.2h.4v-.1h.1v-.2l.1-.2v-1l.1-.1v-.3l.1-.2v-.3h.1l.1.1.2.1.2.2h.2l.2.3h.1l.2.2h.1l.3.2h.1v.1h.1v.1h.1v1.1l.1.3v.7l.1.1.3.3.2.2.1.1.1.2h.5v.1l.1.1v.2l.1.1.2.2v.1h.1l.1.1h.8l.1.1h.1l.2.1h.2l.2.1h.1l.1.1h.3v-.1h.1v-.1l.1-.1v-.1h.1v-.1h.2v-.1h.3l.4.1h.6v.1h.2l.1.1h.1l.1.2.2.1.1.1v.1h.1v.1h.1l.2.2.2.1h.1l.2.2h.2v.1h.2v.1h.2l.2-.2h.1v-.1h.2l.3.2h.2v.1l.2-.1.2-.2.2-.2h.1v-.1h.2v-.2h.1v-.1h.1v-.8h-.1l-.1-.2v-.1l-.1-.1-.1-.1-.2-.1-.1-.1v-.7h.1l.2-.1h.5l.2.2h.2l.2.1.1.1h.1v.1h.4l.2-.1h.1l.3-.2h1.7v.1l.2.1h.2v-.1h.1v-.1l.1-.1v-.4l.1-.1.1-.2.1.5v.1l.1.1v.1l.1.2h.1v.1h.2l.1.1h.3l.1.1h.7v-.1h.1l.1-.1.1-.1.1-.2.3-.4.1-.2.1-.1.2-.2h.6l.1.1h.1v.1h.4v.1h.3v.1h.1v.1h.1l.1.1.1.1.2.2v.1h.1v.1h.4v-.7h.1v-.3h.1v-.1h.1v-.1h.2v-.1h.1v-.1h.2l.2-.2.3-.2.3-.1.1-.2h.2v-.1h.1l.1-.1v-.1l.2-.2.5-.4v-.1h.1v-.2h.2l.1-.1h.2l.1-.1h1.3v.1l.3.1.1.1h.4v-.1l.2-.1v-.1l.2-.1.2-.1.1.1v.1l.1.2v.4l.1.2v.5h.6v.2l.1.1v.5h.1v.1h.1v.1h.2v.1l.2.2h.1v.1h.3v.2l.1.1.1.1h.4l.1-.1.1-.1.1-.1h.2v.1l.1.1v.1l.1.1.2-.2v-.1h1.4v-.3l.1-.1v-.1h.1v-.1l.2-.2v-.1h.1v-.1l.1-.1v-.7l.1-.1v-.1h.3l.2.1.1.1.1.1.1.1h.1v.2h.1v.8h.1v.2h.1v.1h.1v-.1h.1l.1-.1h.1v-.1h.2l.2-.2h.2v-.1l.2-.1v-.1l.1-.1h.1l.1-.2h.2l.4-.3h.1l.1-.2h.1l.1-.1.2-.2.2-.1.1-.1h.1v-.1h.3v-.1h.1v-.1l-.1-.2v-.1l-.1-.1v-1.3h.1v-.1h1.1l.3-.1h.4v-.1h.1l.1-.1.1-.1.1-.1v-.2h.9l.2-.1h.1l.1-.1.1-.2.1-.2.1-.1v-.1l.1-.1.2-.1h.1v-.1h.9v.1h.1v-.1h.1v-.1h.1l.3-.2h.2v-.1h.1l.3-.1h.2v-.4l.1-.1.1-.1.1-.1.1-.1h1v-.1h.1l.3-.2.2-.1.1-.1.1-.1h.1l.1-.1v-.1l.2-.1v-.2h.1v-.1h.1v-.2h.1v-.1l.1-.1v-.2h.1v-.4l.1-.1v-.2h.1v-.1l.1-.1h.2v-.1h1l.2-.1h.8v.1h.3v.1h.1v-.9h.4v.2h.1l.1.1v.1h.1v.3h.1v.2"/></defs><g clip-path="url(#p6313ca4dd2)"><use xlink:href="#m4c3ce2745f" y="280.5" fill="#bdc660" stroke="#bdc660"/></g></g><g id="line2d_1"><defs><path id="mcea7077f64" stroke="#594231" d="M0-20a7 7 0 0 0-7 7C-7-7.8 0-1 0-1s7-6.7 7-12c0-4-3.2-7-7-7zM0-9.9a3.2 3.2 0 1 1 0-6.3 3.2 3.2 0 0 1 0 6.3z"/></defs><g clip-path="url(#p6313ca4dd2)"><use xlink:href="#mcea7077f64" x="266.2" y="137.3" fill="#594231" stroke="#594231"/></g></g></g></g><defs><clipPath id="p6313ca4dd2"><path d="M7.2 7.2h326v266.1H7.2z"/></clipPath></defs></svg>
