<?xml version="1.0" encoding="UTF-8"?>
<!DOCTYPE svg  PUBLIC '-//W3C//DTD SVG 1.1//EN'  'http://www.w3.org/Graphics/SVG/1.1/DTD/svg11.dtd'>
<svg width="371.52pt" height="277.87pt" version="1.1" viewBox="0 0 371.52 277.87" xmlns="http://www.w3.org/2000/svg" xmlns:xlink="http://www.w3.org/1999/xlink">
 <metadata>
  <rdf:RDF xmlns:cc="http://creativecommons.org/ns#" xmlns:dc="http://purl.org/dc/elements/1.1/" xmlns:rdf="http://www.w3.org/1999/02/22-rdf-syntax-ns#">
   <cc:Work>
    <dc:type rdf:resource="http://purl.org/dc/dcmitype/StillImage"/>
    <dc:date>2024-07-04T12:10:19.747840</dc:date>
    <dc:format>image/svg+xml</dc:format>
    <dc:creator>
     <cc:Agent>
      <dc:title>Matplotlib v3.7.1, https://matplotlib.org/</dc:title>
     </cc:Agent>
    </dc:creator>
   </cc:Work>
  </rdf:RDF>
 </metadata>
 <defs>
  <style type="text/css">*{stroke-linejoin: round; stroke-linecap: butt}</style>
 </defs>
 <g id="figure_1">
  <g id="patch_1">
   <path d="m0 277.87h371.52v-277.87h-371.52v277.87z" fill="none"/>
  </g>
  <g id="axes_1">
   <g id="PatchCollection_1">
    <defs>
     <path id="m8979d86f14" d="m184.1-256.1-0.041209 0.2205-0.084511 0.27748-0.11181 0.27252-0.13099 0.26755-0.39214 0.70555-0.096505 0.18467-0.086779 0.18625-0.089427 0.2375-0.062012 0.24145-0.029725 0.25726 0.007633 0.25827 0.048478 0.2727 0.082307 0.26986 0.080521 0.20464 0.090222 0.20432 0.48871 1.0616 0.12973 0.27156 0.21962 0.41851 0.41723 0.74099 0.10217 0.2057 0.078347 0.18152 0.066927 0.18473 0.047269 0.16177 0.037007 0.16393 0.030035 0.19797 0.012557 0.15226 0.004089 0.15312-0.005144 0.17744-0.014798 0.17786-0.028969 0.21166-0.039848 0.21147-0.050949 0.21754-0.058888 0.21711-0.15573 0.49742-0.19249 0.54679-0.2002 0.51106-0.10552 0.24078-0.11286 0.23788-0.1207 0.2346-0.19946 0.35022-0.11938 0.1938-0.25172 0.38271-0.16807 0.24133-0.92626 1.2881-0.26004 0.37551-0.18309 0.28002-0.1741 0.28814-0.12279 0.22361-0.11363 0.22766-0.10291 0.2301-0.091693 0.23349-0.07756 0.22911-0.061906 0.21865-0.052547 0.24123-0.026441 0.18936-0.002893 0.079623 0.009288 0.032326-0.006224 0.009863 0.005219 0.067257 0.025644 0.080161 0.042103 0.094901 0.071886 0.12624 0.091981 0.12723 0.10142 0.11324 0.3865 0.37982 0.46875 0.48899 0.15795 0.14699 0.10206 0.08491 0.22101 0.1678 0.12431 0.079737 0.16824 0.079357 0.12065 0.041096 0.1212 0.03192 0.33905 0.077146 0.3914 0.12098 0.20908 0.05916 0.12486 0.02902 0.16996 0.029531 0.17062 0.019455 0.1685 0.010508 0.47072 0.016462 0.65175 0.048191 0.19272 0.029838 0.1997 0.047359 0.20202 0.063054 0.25626 0.096485 0.39747 0.16444 0.5939 0.25883 0.16406 0.062299 0.13804 0.044217 0.13862 0.03513 0.41379 0.076186 0.33147 0.078558 0.32261 0.092441 0.26004 0.082836 0.070409 0.027374 0.098474 0.048409 0.086602 0.05635 0.092586 0.080529 0.1654 0.16729 0.099326-0.080063 0.16056-0.11452 0.060124-0.053198 0.079313-0.090542 0.079822-0.12838 0.087367-0.19702 0.21967-0.55185 0.18804-0.53654 0.084275-0.20347 0.048093-0.086458 0.06238-0.09108 0.089735-0.098847 0.096666-0.078039 0.32778-0.18229 0.10242-0.073389 0.19212-0.1113 0.35917-0.072415 0.35858-0.058825 0.34094-0.058823 0.26543-0.039267 0.28713-0.048972 0.29855-0.027488 0.33104-3.7e-5 0.38738 0.045048 0.39259 0.26562 0.11656 0.14054 0.092266 0.14843 0.066335 0.18368 0.034642 0.1712 0.069879 0.49124 0.022549 0.13967 0.029065 0.13941 0.034057 0.11941 0.041101 0.11689 0.10971 0.24011 0.074386 0.12227 0.050383 0.066112 0.05002 0.054276 0.08629 0.074769 0.092405 0.060131 0.045117 0.023064 0.068679 0.028251 0.12798 0.035188 0.17718 0.016428 0.1897-0.011703 0.19886-0.035027 0.22738-0.061557 0.14274-0.048215 0.2394-0.093817 0.4288-0.19356 0.61309-0.30299 0.71158-0.36705 0.42906-0.20229 0.23401-0.096997 0.28327-0.10194 0.22971-0.065643 0.14517-0.028966 0.12957-0.014968 0.1277-0.003202 0.094802 0.005704 0.19716 0.03437 0.15733 0.045032 0.27604 0.10018 0.37786 0.15291 0.49763 0.21621 0.32268 0.15133 0.2639 0.13212 0.39954 0.21166 0.36828 0.20748 0.32302 0.1946 0.35765 0.23468 0.22932 0.17016 0.18251 0.14994 0.25018 0.23055 0.24039 0.25478 0.22731 0.2793 0.5682 0.75774 0.16533 0.19826 0.076095 0.084055 0.1911 0.19279 0.19448 0.17499 0.38927 0.32208 0.14854 0.11529 0.14421 0.10281 0.27196 0.18259 0.11957 0.10457 0.06149 0.071036 0.05667 0.084901 0.057705 0.11415 0.041571 0.12162 0.023185 0.13123 0.005867 0.11372-0.00112 0.11604-0.017871 0.44886 0.001413 0.074415 0.011726 0.13681 0.039419 0.17995 0.078997 0.2141 0.10745 0.21789 0.12909 0.22065 0.14534 0.22263 0.15732 0.22404 0.31931 0.42696 0.83832 1.0888 0.19217 0.26777 0.10846 0.17323 0.089967 0.16096 0.084191 0.16536 0.10294 0.22099 0.40446 0.96027 0.27958 0.6122 0.10479 0.19206 0.12376 0.16709 0.12394 0.11616 0.13711 0.093225 0.084701 0.044791 0.11598 0.049329 0.16209 0.050856 0.095302 0.019776 0.052676 1.21e-4 0.019381 0.031764 0.066638 0.034274 0.083309 0.027133 0.18912 0.036459 0.23033 0.020774 0.23699 0.005625 0.45525-0.013056 0.43056-0.024467 0.53257-0.041217 0.30583-0.031865 0.27217-0.03456 0.26839-0.0407 0.27502-0.049781 0.27022-0.05868 0.34901-0.092232 0.7734-0.23635 0.31311-0.090426 0.31135-0.077993 0.19609-0.042766 0.34474-0.065879 0.41801-0.067422 0.25751-0.035939 0.75213-0.090229 0.2772-0.040578 0.69698-0.12748 0.24877-0.038626 0.2508-0.024038 0.27795-0.00577 0.20228 0.008881 0.20217 0.019605 0.1701 0.025016 0.16941 0.032831 0.17536 0.042604 0.17403 0.051197 0.27458 0.099477 0.21984 0.095639 0.19347 0.094181 0.73105 0.38133 0.80244 0.40536 0.42607 0.23927 0.32141 0.19901 0.22152 0.14588 0.81376 0.56509 0.070981 0.041601 0.021964 0.002882 0.025649-0.020641 0.043759-0.069177 0.13091-0.26115 0.36095-0.8195 0.17522-0.37703 0.18867-0.35638 0.18148-0.29755 0.19926-0.29038 0.11155-0.14938 0.34343-0.43431 0.15758-0.21694 0.52686-0.79147 0.20762-0.2946 0.23511-0.31482 0.36995-0.45912 0.28986-0.33827 0.50345-0.57391 0.25214-0.30458 0.38682-0.50241 0.61179-0.85349 0.1505-0.22078 0.12883-0.20199 0.11743-0.20317 0.08095-0.15941 0.068971-0.16048 0.060822-0.18616 0.036421-0.18776 0.009286-0.16881-0.003148-0.10651-0.015426-0.165-0.047283-0.25398-0.071938-0.25228-0.07935-0.21363-0.094184-0.20656-0.077914-0.14546-0.082923-0.14066-0.24622-0.39252-0.11588-0.17104-0.089291-0.11132-0.1056-0.1089-0.11445-0.099495-0.21477-0.15766-0.34806-0.22482-0.3047-0.20449-0.16657-0.10309-0.1313-0.069769-0.31987-0.15597-0.18196-0.10448-0.074791-0.051811-0.10476-0.083382-0.09844-0.090389-0.087749-0.09069-0.10043-0.11532-0.095222-0.11975-0.17499-0.24236-0.12806-0.19501-0.12708-0.21069-0.12597-0.2308-0.12876-0.27156-0.11411-0.2988-0.023633-0.074948-0.067812-0.27042-0.034504-0.22554-0.011628-0.20343 0.006664-0.16988 0.015961-0.12138 0.027574-0.11882 0.035187-0.10076 0.075624-0.12511 0.035143-0.012656 0.01092-0.00178 0.073313 0.031174 0.10175 0.055206 0.6729 0.40413 0.21445 0.11417 0.12137 0.055682 0.21327 0.078623 0.15883 0.039583 0.15305 0.017823 0.15718-0.009164 0.18681-0.055012 0.17026-0.090381 0.15663-0.1102 0.22501-0.17272 0.12862-0.087247 0.13322-0.074791 0.10266-0.045361 0.24988-0.08848 0.14484-0.040047 0.18715-0.029046 0.30051-0.002427 0.31834-0.011407 0.11493 0.003822 0.1433 0.018846 0.071998 0.018822 0.083694 0.033663 0.10931 0.069665 0.12686 0.11381 0.1234 0.14408 0.078173 0.12964 0.13624 0.28602 0.073129 0.13955 0.072616 0.10887 0.07978 0.087997 0.093374 0.068999 0.14914 0.056291 0.056219 0.009897 0.10358 0.007094 0.093475-0.003225 0.081893-0.008905 0.13818-0.025898 0.18963-0.054997 0.22376-0.091139 0.1513-0.079461 0.23381-0.14802 0.23126-0.16877 0.9211-0.74288 0.236-0.17339 0.24192-0.1564 0.28696-0.14831 0.25118-0.096527 0.76648-0.24784 0.69384-0.24181 0.44183-0.14452 0.24306-0.085235 0.39801-0.15509 0.69102-0.3018 0.18287-0.069102 0.25664-0.088583 0.4041-0.12657 0.57962-0.16685 0.23901-0.081241 0.47475-0.17267 0.22274-0.068826 0.31103-0.066259 0.1301-0.015029 0.19989-0.008769 0.24677 0.012729 0.31503 0.042232 0.35589 0.069774 0.24273 0.059249 0.24057 0.068738 0.32706 0.11308 0.29679 0.12873 0.2317 0.12331 0.21643 0.13982 0.19682 0.15822 0.1407 0.14133 0.12534 0.15178 0.11024 0.15927 0.21034 0.36891 0.12583 0.20321 0.089525 0.11635 0.080884 0.085625 0.12792 0.10944 0.15463 0.10344 0.12725 0.069398 0.13557 0.064798 0.28806 0.12395 0.20494 0.080364 0.19144 0.067943 0.19601 0.060336 0.20087 0.048311 0.09323 0.016855 0.21463 0.028191 0.36213 0.032702 0.29536 0.018307 0.29961 0.010863 0.47843-0.002093 0.17347-0.007751 0.3857-0.030043 0.6559-0.074125 0.46621-0.042753 0.18951-0.022336 0.20489-0.032253 0.69576-0.13034 1.2745-0.21405 0.76621-0.11154 0.30352-0.03536 0.22815-0.019512 0.22527-0.010626 0.21852-0.002394 0.21156 0.004627 0.24831 0.014455 0.11355 0.011142 0.21478 0.032542 0.12917 0.03327 0.037466 0.017097 0.009857 0.013427 0.01406 0.030789 0.054225 0.061679 0.13581 0.1276 0.58183 0.49596 0.20918 0.19034 0.18756 0.18735 0.15586 0.17909 0.16576 0.22762 0.063566 0.079229 0.068127 0.064967 0.078776 0.0486 0.096674 0.032481 0.34595 0.057374 0.20602 0.0593 0.22177 0.086764 0.2309 0.10817 0.19416 0.10268 0.19345 0.11253 0.18973 0.12122 0.18281 0.12936 0.17571 0.14081 0.15956 0.1515 0.13698 0.16384 0.10915 0.17862 0.076948 0.19335 0.052148 0.20611 0.035786 0.21556 0.022461 0.18503 0.037312 0.40856 0.011343 0.22199-0.001631 0.22298-0.019705 0.22435-0.037734 0.22327-0.055088 0.22055-0.072631 0.21612-0.049927 0.12166-0.067627 0.14482-0.073564 0.14241-0.39844 0.71731-0.12211 0.24918-0.10095 0.25089-0.056176 0.1818-0.047718 0.18241-0.10778 0.4603-0.030067 0.19011-0.011977 0.16294-0.002049 0.15262 0.012201 0.38229 0.027727 0.37825 0.022333 0.15906 0.039423 0.17525 0.051373 0.1707 0.064107 0.17615 0.077381 0.16946 0.14578 0.27986 0.058958 0.13042 0.038779 0.1115 0.06538 0.25621 0.079534 0.36508 0.052189 0.20234 0.064253 0.19004 0.081817 0.16901 0.10685 0.14254 0.12407 0.10257 0.13385 0.0532 0.083617 0.003539 0.10166-0.027828 0.072127-0.045273 0.089876-0.097075 0.084385-0.14112 0.071839-0.16214 0.032454-0.085406 0.06698-0.19812 0.053797-0.17809 0.21614-0.77173 0.079023-0.24886 0.08822-0.23206 0.10198-0.20569 0.12147-0.16745 0.14819-0.11425 0.10385-0.036498 0.11466-0.014036 0.22023 0.021243 0.13583 0.033666 0.14244 0.04594 0.20148 0.076385 1.0338 0.42356 0.54741 0.2184 0.419 0.15985 0.1342 0.045542 0.046589 0.004064 0.075195 0.020589 0.74288 0.25271 0.65422 0.21009 0.33697 0.1002 0.33697 0.092365 0.3067 0.074168 0.27014 0.053752 0.24578 0.036821 0.27364 0.025951 0.27212 0.012559 0.27035 0.002172 0.53486-0.017834 0.48706-0.033559 0.70671-0.067134 0.37991-0.047563 0.43601-0.074465 0.6432-0.13789 0.22073-0.0348 0.2273-0.020893 0.44393-0.03095 0.21578-0.03262 0.20761-0.053937 0.46897-0.14811 0.20819-0.053461 0.21475-0.043376 0.22459-0.032927 0.22853-0.022656 0.16365-0.010691 0.3926-0.012158 0.22767-1.73e-4 0.36127 0.009726 0.40024 0.027748 0.24446 0.027741 0.17352 0.027512 0.18235 0.043956 0.1811 0.059685 0.13792 0.055944 0.13556 0.0646 0.1309 0.072589 0.12712 0.080985 0.16849 0.12468 0.1941 0.16602 0.25398 0.24586 0.10031 0.10883 0.11588 0.13678 0.091886 0.11983 0.13068 0.19382 0.11388 0.1944 0.054663 0.10305 0.11943 0.25127 0.13985 0.34383 0.25015 0.71259 0.20824 0.57195 0.082043 0.25317 0.067493 0.25597 0.037989 0.18996 0.028852 0.19043 0.070901 0.71041 0.039737 0.21914 0.070962 0.23358 0.09645 0.22917 0.1162 0.22574 0.13106 0.22313 0.14191 0.22126 0.14947 0.22 0.53037 0.75193 0.16729 0.24489 0.25231 0.38907 0.11018 0.1846 0.28866 0.52751 0.17134 0.27464 0.21819 0.29381 0.17295 0.20647 0.46619 0.51301 0.12533 0.15329 0.091285 0.12555 0.30498 0.45591 0.22806 0.35496 0.11588 0.1963 0.073585 0.14422 0.062569 0.14703 0.050889 0.15086 0.050868 0.21288 0.07498 0.44032 0.056978 0.27885 0.069671 0.28052 0.080018 0.27942 0.088782 0.27542 0.096754 0.26817 0.074008 0.18263 0.084231 0.17502 0.080711 0.13794 0.15916 0.23548 0.22475 0.30102 0.34393 0.43317 0.19673 0.21886 0.08113 0.080002 0.19812 0.17734 0.20807 0.16888 0.63747 0.48549 0.20199 0.16344 0.18868 0.16846 0.4939 0.50052 0.51178 0.47349 0.11331 0.12005 0.071345 0.090164 0.046471 0.068518 0.050845 0.089192 0.066641 0.1559 0.040888 0.13026 0.1656 0.6041 0.15645 0.50603 0.088093 0.26124 0.095837 0.26318 0.084237 0.21283 0.091153 0.21141 0.099231 0.20881 0.11803 0.22264 0.12784 0.21824 0.15113 0.23574 0.16039 0.23052 0.16885 0.22511 0.17713 0.21912 0.20068 0.22893 0.20992 0.22061 0.22262 0.2152 0.2313 0.20518 0.23994 0.19376 0.2214 0.16258 0.88692 0.60418 0.16107 0.12079 0.19226 0.16218 0.17028 0.1687 0.14238 0.17454 0.10664 0.18 0.046169 0.11699 0.033645 0.11862 0.029509 0.14462 0.019679 0.18101 0.029572 0.39424 0.001979 0.17241-0.010229 0.10858-0.022785 0.1043-0.054671 0.14402-0.078957 0.13415-0.092007 0.12183-0.10003 0.11443-0.11517 0.11734-0.12999 0.11794-0.12122 0.097889-0.098894 0.071547-0.1066 0.068747-0.10276 0.057795-0.14265 0.067843-0.10379 0.041743-0.1456 0.04751-0.14188 0.035056-0.43696 0.09421-0.44074 0.089384-0.12293 0.032853-0.074582 0.02647-0.12898 0.064214-0.09448 0.071302-0.055311 0.062796-0.022927 0.03627-0.018684 0.039897-0.016044 0.056714 0.007908 0.16726 0.067769 0.18588 0.11205 0.19951 0.14434 0.20934 0.1675 0.21632 0.18374 0.22117 0.39646 0.45103 0.8189 0.91314 0.19466 0.22751 0.18434 0.22632 0.16947 0.22462 0.14868 0.22228 0.12303 0.22891 0.07436 0.23227 0.013043 0.21349-0.029613 0.21751-0.061845 0.21756-0.060872 0.15703-0.061656 0.15995-0.034032 0.19014-3.68e-4 0.24669 0.18772 0.27544 0.23171 0.12183 0.30903 0.088259 0.20562 0.042398 0.19581-0.00286 0.17018-0.12311 0.13936-0.16783 0.11969-0.17562 0.085878-0.16616 0.14557-0.33972 0.099369-0.19387 0.10168-0.15038 0.11376-0.14684 0.14114-0.1753 0.14872-0.17341 0.15803-0.16301 0.16977-0.1432 0.073336-0.050376 0.19298-0.10075 0.20287-0.06034 0.076275-0.010903 0.09982-0.006239 0.12744 0.001875 0.10608 0.007444 0.23171 0.027973 0.17643 0.0338 0.37062 0.08622 0.083823 0.015288 0.15325 0.018307 0.33467 0.010736 0.23299 0.013656 0.76558 0.092776 0.18409 0.0182 0.55511 0.030711 0.25284 0.005763 0.52214-0.019096 0.69816 0.002497 0.24451 0.014257 0.2706 0.046014 0.27625 0.074973 0.28157 0.097535 0.2867 0.11511 0.2917 0.12883 0.29652 0.13954 0.60261 0.30041 0.60574 0.31552 0.57843 0.30988 0.63722 0.35174 0.26157-0.051943 0.54305-0.083327 1.9912-0.26132 0.65231-0.094935 0.63216-0.10705 0.30742-0.060108 0.5995-0.12683 0.25267-0.044882 0.249-0.029973 0.24516-0.007907 0.22479 0.017735 0.22011 0.039561 0.19042 0.050858 0.18414 0.064988 0.20534 0.094698 0.19011 0.11645 0.091748 0.070162 0.16307 0.15201 0.1217 0.14022 0.15038 0.22574 0.073469 0.15538 0.054845 0.15408 0.047701 0.18415 0.028761 0.15786 0.024359 0.21168 0.009938 0.18387 1.07e-4 0.20746-0.010303 0.1947-0.015497 0.15471-0.022255 0.15454-0.045416 0.22551-0.034189 0.13314-0.05204 0.17183-0.057225 0.163-0.10064 0.24876-0.104 0.22711-0.11241 0.22425-0.19084 0.34809-0.19636 0.33012-0.21043 0.33032-0.28447 0.41502-0.2498 0.33489-0.25799 0.31402-0.15986 0.17834-0.15588 0.16273-0.16047 0.15785-0.16448 0.1532-0.20659 0.1821-0.20993 0.1765-0.66837 0.54131-0.21913 0.1918-0.22702 0.23299-0.087322 0.10848-0.12856 0.19482-0.070844 0.14026-0.056509 0.14621-0.037983 0.13504-0.02661 0.13855-0.022843 0.27226 0.002559 0.27752 0.031685 0.68732-0.006695 0.28534-0.012482 0.1377-0.026141 0.1858-0.036133 0.18552-0.057588 0.22693-0.070341 0.22526-0.097464 0.26447-0.1099 0.26117-0.20211 0.42058-0.21959 0.40941-0.24754 0.43558-0.11141 0.18582-0.13223 0.20377-0.13778 0.18223-0.14802 0.15206-0.10131 0.075792-0.10934 0.056239-0.2028 0.046144-0.22393-0.001745-0.21147-0.030352-0.22068-0.049337-0.22729-0.061835-0.70436-0.20629-0.23723-0.05873-0.23398-0.044347-0.22843-0.023508-0.23238 0.005096-0.21785 0.040484-0.19706 0.081585-0.17778 0.13253-0.10878 0.11339-0.10624 0.13471-0.08448 0.1244-0.10203 0.17098-0.11708 0.23056-0.2823 0.67553-0.17122 0.36101-0.092697 0.17576-0.12275 0.21472-0.11109 0.17786-0.1814 0.25613-0.1831 0.22251-0.1402 0.15606-0.1615 0.17001-0.21405 0.20799-0.22962 0.20444-0.27475 0.2281-0.82196 0.64018-0.24838 0.21311-0.17506 0.17821-0.10123 0.13214-0.087872 0.13943-0.074446 0.13518-0.36285 0.69431-0.084781 0.17115-0.18187 0.39246-0.098074 0.17765-0.11558 0.17398-0.13449 0.16721-0.21637 0.21407-0.24768 0.19846-0.27236 0.18509-0.29125 0.17237-0.30444 0.15845-0.31105 0.14122-0.30883 0.11824-0.2936 0.087003-0.25828 0.045907-0.1892 1.18e-4 -0.074533-0.035639 0.001512 0.066875-0.050828 0.094941-0.06013 0.078098-0.043551 0.047851-0.53976 0.51389-0.80036 0.74034-0.5513 0.52207-0.29164 0.28803-0.22875 0.24471-0.17779 0.22228-0.064883 0.099893-0.059864 0.11784-0.034658 0.10065-0.023001 0.12889-3.01e-4 0.12987 0.027508 0.15461 0.048623 0.15798 0.17098 0.468 0.079979 0.25574 0.063909 0.28139 0.046257 0.29356 0.033029 0.30203 0.023461 0.30759 0.056482 1.2407 0.018838 0.30151 0.027559 0.29219 0.041143 0.27853 0.06101 0.25916 0.089046 0.2323 0.12768 0.19569 0.13418 0.12309 0.079659 0.054218 0.14403 0.07562 0.10366 0.041666 0.15075 0.048967 0.53677 0.1448 0.27344 0.091741 0.27039 0.11361 0.26163 0.1374 0.23343 0.15034 0.38299 0.2765 0.50907 0.38526 0.37774 0.30451 0.17692 0.16096 0.16423 0.18386 0.091028 0.1525 0.047643 0.12988 0.029146 0.20114-0.002858 0.12089-0.015356 0.12235-0.034292 0.15244-0.049286 0.15108-0.051707 0.12347-0.061464 0.11952-0.092574 0.14251-0.11276 0.13356-0.14145 0.13867-0.30497 0.27819-0.10075 0.10133-0.17222 0.19522-0.10998 0.14252-0.11402 0.16805-0.093943 0.16275-0.079415 0.16864-0.069038 0.20104-0.031008 0.14521-0.014447 0.17365 0.007251 0.14914 0.013345 0.093082 0.057468 0.22791 0.079077 0.2149 0.077405 0.17816 0.15124 0.3182 0.18597 0.35717 0.070622 0.12041 0.070576 0.11004 0.027743 0.035126 0.21892-0.034748 0.3503-0.038147 0.36732-0.021562 0.23949-0.002182 0.29006 0.011171 0.23966 0.02183 0.35749 0.050147 0.18399 0.034596 0.13453 0.031492 0.1679 0.050381 0.1294 0.049436 0.12974 0.06243 0.17866 0.1154 0.088022 0.070544 0.13091 0.12379 0.12603 0.137 0.13034 0.15432 0.43043 0.53275 0.080792 0.10549 0.10012 0.15238 0.036261 0.070797 0.030086 0.075443 0.034185 0.14628 0.043727 0.29336 0.058695 0.17314 0.091198 0.16986 0.088648 0.12435 0.23198 0.29458 0.11132 0.16751 0.2256 0.39076 0.37366 0.67933 0.2305 0.39451 0.18837 0.30772 0.35974 0.54662 0.1181 0.20696 0.13623 0.27467 0.1343 0.30082 0.12063 0.3133 0.06187 0.20123 0.043856 0.2059 0.016848 0.12363 0.014414 0.19466 0.007281 0.23297 0.010571 0.15632 0.025958 0.15376 0.045516 0.14212 0.06405 0.1373 0.056034 0.096396 0.10394 0.15225 0.11662 0.14197 0.12754 0.12592 0.13735 0.10308 0.12348 0.063572 0.0921 0.030059 0.091865 0.015993 0.053839 0.002684 0.1803-0.026084 0.086532-0.027462 0.13826-0.062801 0.081221-0.045007 0.38377-0.24059 0.13378-0.078778 0.21901-0.1156 0.16064-0.078372 0.20452-0.091232 0.39369-0.16527 0.5841-0.21402 0.17982-0.070513 0.30553-0.1297 0.22446-0.10489 0.10063-0.051608 0.1992-0.11491 0.79231-0.4972 0.18472-0.10737 0.25074-0.13246 0.16825-0.076951 0.16522-0.063001 0.060761-0.019231 0.20354-0.04321 0.12363-0.008155 0.12037 0.007887 0.14053 0.032759 0.13182 0.055643 0.062209 0.035553 0.034378 0.022507 0.13904 0.11224 0.039688 0.037783 0.28729 0.3125 0.10395 0.096295 0.060278 0.048041 0.068142 0.045752 0.1088 0.055697 0.14558 0.049944 0.16619 0.033771 0.18953 0.018023 0.12022 0.002734 0.12492-0.004283 0.13134-0.013735 0.10446-0.019541 0.10891-0.030395 0.11058-0.042953 0.14395-0.075189 0.16652-0.11018 0.15959-0.12308 0.56515-0.48971 0.23498-0.18106 0.18902-0.12306 0.20842-0.10614 0.1988-0.064569 0.16602-0.023183 0.1706-9.23e-4 0.24449 0.025653 0.60075 0.10875 0.59753 0.085693 0.16146 0.0303 0.12033 0.02818 0.12982 0.037419 0.13098 0.04719 0.10182 0.044978 0.17639 0.099602 0.21603 0.17055 0.18934 0.19905 0.16091 0.20992 0.12518 0.19565 0.07156 0.13261 0.025513 0.069923 0.18189 0.030849 0.41252 0.058631 0.39284 0.044778 0.38185 0.031853 0.34477 0.015594 0.17264 0.001834 0.32162-0.009735 0.1874-0.015088 0.19657-0.027339 0.15592-0.034074 0.29685-0.091068 0.19582-0.071282 0.60484-0.24711 0.41858-0.16041 0.22708-0.081377 0.19057-0.058848 0.17236-0.042571 0.1755-0.029383 0.1654-0.011077 0.17652 0.010455 0.21451 0.049245 0.20867 0.082604 0.2113 0.11334 0.25044 0.16885 0.1759 0.14351 0.45907 0.44048 0.23645 0.20657 0.26445 0.20564 0.12475 0.087055 0.22119 0.14102 0.2261 0.12954 0.20103 0.1044 0.53522 0.2544 0.28303 0.1134 0.78846 0.27577 0.30329 0.12524 0.29291 0.14202 0.13884 0.078469 0.14191 0.089964 0.56686 0.41446 0.20006 0.12374 0.10456 0.053174 0.14527 0.058102 0.11038 0.033589 0.2195 0.045685 0.15526 0.018775 0.16213 0.011909 0.61541 0.029884 0.29622 0.019234 0.3406 0.031896 0.27508 0.038224 0.21906 0.043617 0.15014 0.044279 0.10558 0.045408 0.10816 0.067884 0.05485 0.053439 0.020266 0.028904 0.020321 0.04619 0.006421 0.037119-0.003144 0.049645-0.010016 0.038854-0.020793 0.051454-0.044762 0.080213-0.067857 0.093192-0.08261 0.096182-0.51597 0.55023-0.2795 0.32872-0.18067 0.24213-0.074713 0.11524-0.10148 0.1834-0.071622 0.15835-0.08174 0.23674-0.075799 0.30157-0.042827 0.22179-0.095111 0.55502-0.06024 0.27556-0.080372 0.29317-0.17639 0.56354-0.037303 0.15221-0.018207 0.10356-0.012804 0.14281 0.004525 0.17253 0.023417 0.16006 0.017702 0.070325 0.034205 0.1024 0.05122 0.11408 0.05086 0.089986 0.063602 0.096359 0.21993 0.3052 0.081559 0.13001 0.080699 0.14682 0.076246 0.16339 0.045753 0.11648 0.042193 0.13235 0.040111 0.16776 0.019315 0.11892 0.013123 0.15766 0.001464 0.1398-0.006622 0.14882-0.024063 0.25-0.085407 0.64672-0.01472 0.1681-0.005112 0.14894 0.006026 0.1525 0.015988 0.12551 0.015843 0.076944 0.052697 0.16636 0.042349 0.09625 0.067735 0.1243 0.054194 0.084774 0.13659 0.18392 0.21965 0.25488 0.18283 0.18532 0.081176 0.07418 0.095106 0.080825 0.17796 0.13536 0.50868 0.33986 0.21356 0.13229 0.11085 0.062389 0.21255 0.10436 0.27698 0.10937 0.20433 0.064201 0.22539 0.058146 0.535 0.1198 0.28624 0.081564 0.56354 0.17695 0.15342 0.040181 0.27392 0.053509 0.24819 0.026176 0.20837 0.004986 0.16589-0.004316 0.59416-0.039397 0.19867-0.008333 0.2122 0.002942 0.2269 0.028354 0.19659 0.0622 0.10578 0.056475 0.15899 0.12196 0.12157 0.12708 0.086259 0.11064 0.10657 0.16422 0.073962 0.13462 0.056528 0.11597 0.066978 0.15418 0.061616 0.15981 0.060962 0.17764 0.049979 0.16164 0.094666 0.34772 0.083274 0.35411 0.074378 0.35673 0.10601 0.56632 0.066239 0.39711 0.071152 0.47881 0.030684 0.24028 0.041313 0.43349 0.031207 0.69759 0.003657 0.20063-0.003256 0.20583-0.011332 0.24144-0.018237 0.24552-0.029834 0.3-0.037534 0.30254-0.045108 0.30354-0.05327 0.3027-0.062832 0.30082-0.053 0.21704-0.060301 0.21458-0.31756 0.94294-0.12354 0.3373-0.07909 0.19924-0.18104 0.43024-0.12448 0.27868-0.34666 0.74613-0.18979 0.44136-0.073841 0.19494-0.064983 0.196-0.072381 0.28444-0.024984 0.14952-0.015448 0.15562-0.003746 0.27979 0.02014 0.28246 0.025693 0.20627 0.069737 0.41508 0.18277 0.90242 0.096435 0.52192 0.036742 0.26083 0.02383 0.2528 0.008303 0.25236-0.011043 0.2549-0.036094 0.29179-0.056239 0.29-0.074817 0.29901-0.087783 0.29697-0.070527 0.21462-0.15621 0.42434-0.087486 0.21265-0.093695 0.20951-0.10103 0.20552-0.074167 0.13799-0.078635 0.13534-0.11682 0.18336-0.12152 0.17579-0.51757 0.70916-0.16718 0.25069-0.13822 0.22787-0.12672 0.23285-0.12914 0.27555-0.089748 0.23195-0.071768 0.21662-0.13279 0.43578-0.10956 0.32254-0.10207 0.24159-0.12397 0.23346-0.069049 0.1099-0.12132 0.17053-0.13219 0.16465-0.14744 0.16735-0.37151 0.38378-0.39193 0.38633-0.31092 0.31751-0.25104 0.28023-0.10771 0.13222-0.10547 0.14076-0.17042 0.25915-0.087729 0.153-0.078765 0.15347-0.074053 0.16533-0.061097 0.16355-0.03831 0.12908-0.027306 0.12635-0.014833 0.12598 7.05e-4 0.1214 0.027897 0.1474 0.050948 0.11758 0.083771 0.12527 0.10557 0.12005 0.11261 0.10924 0.1228 0.10953 0.61783 0.54056 0.69998 0.6529 0.1799 0.15777 0.24081 0.18583 0.15542 0.10432 0.59923 0.37443 0.2686 0.18682 0.13889 0.10476 0.13488 0.10872 0.21106 0.18887 0.14711 0.1501 0.10629 0.11884 0.20052 0.24703 0.10919 0.14714 0.18827 0.27446 0.11942 0.19271 0.44348 0.79133 0.19243 0.3736 0.13269 0.28413 0.21522 0.487 0.10006 0.25592 0.050039 0.16137 0.091809 0.44542 0.033773 0.1307 0.059719 0.13645 0.059068 0.081957 0.073388 0.069914 0.11777 0.075034 0.15183 0.070435 0.18051 0.072001 0.42048 0.1464 0.15141 0.065901 0.036379 0.020785 0.010288 0.010716 0.001145 0.00804 0.032233 0.059769 0.067386 0.081141 0.1168 0.11302 0.26458 0.19986 0.34345 0.24147 0.15726 0.097151 0.16365 0.085825 0.24898 0.10798 0.45316 0.16652 0.2133 0.098452 0.21372 0.11568 0.21366 0.12881 0.37941 0.2528 0.18222 0.13018 0.36092 0.271 0.40092 0.31954 0.423 0.35895 0.43617 0.3955 0.22218 0.21651 0.1643 0.17113 0.15609 0.1758 0.14619 0.18226 0.1336 0.18908 0.10175 0.16636 0.090254 0.17168 0.076489 0.17193 0.066408 0.17544 0.083793 0.26393 0.13071 0.46802 0.06052 0.19897 0.068951 0.19201 0.11514 0.24419 0.13468 0.20226 0.12713 0.14412 0.10771 0.10342 0.38829 0.33109 0.17355 0.16365 0.090346 0.1012 0.081555 0.10826 0.11206 0.19678 0.055606 0.13643 0.043837 0.1431 0.04491 0.21484 0.027291 0.22382 0.012697 0.21824 0.002742 0.22289-0.004301 0.20711-0.02431 0.41933-0.027585 0.29284-0.035528 0.29154-0.041205 0.27333-0.049477 0.26795-0.044913 0.20083-0.052629 0.1945-0.062509 0.18631-0.078047 0.18232-0.094448 0.16817-0.11449 0.15048-0.093657 0.093021-0.17523 0.13457-0.19526 0.1166-0.12864 0.064411-0.26381 0.11146-0.21751 0.077801-0.27061 0.084048-0.27623 0.073882-0.21794 0.051058-0.41879 0.083264-0.19932 0.033463-0.37026 0.051427-0.30855 0.030161-0.17656 0.010944-0.64713 0.013774-0.17984 0.006685-0.22354 0.018411-0.21076 0.035338-0.19416 0.059418-0.075516 0.033828-0.10879 0.061611-0.072978 0.050885-0.075697 0.062005-0.079314 0.075578-0.23747 0.2629-0.32056 0.32345-0.16634 0.19101-0.14541 0.19777-0.094055 0.15031-0.39956 0.76444-0.034453 0.05801-0.071745 0.10229-0.061059 0.072307-0.086785 0.085124-0.066119 0.053517-0.074655 0.05118-0.11126 0.062635-0.11853 0.053627-0.18553 0.063324-0.11847 0.028393-0.18189 0.024666-0.13323 0.003406-0.25556-0.016921-0.88178-0.094754-0.12186-0.008187-0.20068 1.18e-4 -0.077251 0.007289-0.1174 0.023128-0.13508 0.050137-0.12278 0.065484-0.085682 0.053658-0.094337 0.06969-0.061075 0.05429-0.079963 0.090644-0.030233 0.047417-0.031013 0.063252-0.031264 0.09044-0.031369 0.1512-0.021754 0.23277 0.002914 0.10242 0.019485 0.12052 0.016378 0.067643 0.06144 0.20598 0.055427 0.14496 0.069878 0.14554 0.1499 0.27963 0.2619 0.46232 0.022144 0.054677 0.00652 0.041883-0.006536 0.015582-0.017647 0.00838-0.02185-1.52e-4 -0.069663-0.020676-0.10398-0.049887-0.16104-0.094106-0.17551-0.12007-0.6998-0.55272-0.59688-0.44685-0.18228-0.14244-0.17254-0.14732-0.16095-0.15388-0.30028-0.31862-0.3824-0.42175-0.12309-0.11756-0.0851-0.068707-0.10954-0.073492-0.10454-0.058635-0.1241-0.05958-0.34683-0.15065-0.19855-0.092244-0.11918-0.064057-0.10648-0.072339-0.066492-0.06796-0.024261-0.039149-0.019881-0.049253-0.011289-0.065151-0.01073-0.18051-0.018648-0.066446-0.019053-0.032936-0.051891-0.055222-0.07099-0.054421-0.039731-0.021982-0.049622-0.018066-0.077814-0.012356-0.090835 3.01e-4 -0.17252 0.024528-0.40405 0.079986-0.098994 0.014757-0.10421 0.008898-0.08869-8.65e-4 -0.078792-0.012992-0.030164-0.010327-0.080797-0.05207-0.066765-0.078462-0.023536-0.034599-0.21871-0.35189-0.085581-0.15078-0.037071-0.079345-0.05438-0.14358-0.090933-0.32782-0.052237-0.15086-0.068441-0.14596-0.085666-0.13285-0.058337-0.067383-0.068243-0.059924-0.10568-0.066444-0.095853-0.045064-0.2545-0.092253-0.16524-0.044606-0.1305-0.022008-0.17727-0.001939-0.075692 0.011559-0.089657 0.024846-0.088242 0.035196-0.11084 0.056537-0.13255 0.080543-0.14281 0.096367-0.51356 0.37826-0.26268 0.17785-0.15024 0.090023-0.1381 0.074113-0.16208 0.071735-0.075176 0.024992-0.13016 0.024324-0.10836-0.005227-0.098828-0.024772-0.21834-0.085202-0.1466-0.035238-0.11632-0.012871-0.40843-0.028348-0.1085-0.003707-0.14716 0.004253-0.088188 0.009533-0.18332 0.036775-0.15933 0.050609-0.088894 0.035793-0.14384 0.06954-0.19425 0.11893-0.14144 0.10915-0.15138 0.15854-0.058372 0.08432-0.059557 0.11126-0.041684 0.10534-0.038052 0.14511-0.016468 0.11783-0.004816 0.11189 0.004098 0.10466 0.013391 0.11793 0.0193 0.11026 0.11071 0.46162 0.12328 0.54419 0.057335 0.20631 0.05245 0.15725 0.061139 0.15996 0.098256 0.23195 0.0166 0.065265-0.002994 0.009655-0.015988-0.002115 0.00868 0.021661-0.002957 0.016699-0.020811 0.032721-0.046744 0.042222-0.13128 0.080487-0.1239 0.054726-0.10324 0.034635-0.14989 0.038764-0.17177 0.033974-0.35099 0.055409-0.34831 0.066711-0.15658 0.039867-0.17445 0.059128-0.16151 0.07049-0.17161 0.093152-0.11248 0.074418-0.094854 0.070182-0.12158 0.1064-0.076853 0.08877-0.030477 0.045906-0.053901 0.10968-0.038987 0.13366-0.01464 0.12049-0.011257 0.26305 0.001822 0.21913 0.016852 0.18053 0.011092 0.067364 0.068907 0.28706 0.026054 0.1445 0.006411 0.088764-0.004499 0.15357-0.018738 0.1442-0.035581 0.15369-0.044727 0.11736-0.22584 0.45658-0.14336 0.34222-0.077884 0.15745-0.16589 0.28977-0.26937 0.37061-0.060857 0.093969-0.13627 0.25741-0.06251 0.10713-0.074721 0.111-0.14125 0.17044-0.42993 0.45005-0.077623 0.093487-0.077352 0.11262-0.073844 0.14909-0.044227 0.15166-0.020693 0.1427-0.006694 0.14565 0.011013 0.42673-0.00171 0.10117-0.013493 0.16378-0.043562 0.30837-0.029098 0.37393-0.018341 0.10334-0.051116 0.16984-0.063116 0.15462-0.040764 0.07156-0.018609 0.009325-0.028528 0.074768-0.001957 0.07255 0.008228 0.085518 0.031044 0.14835 0.043769 0.13832 0.088311 0.20777 0.08807 0.16947 0.12223 0.20334 0.11894 0.17221 0.23592 0.31956 0.16414 0.24833 0.077134 0.12941 0.1211 0.22695 0.096571 0.22269 0.058962 0.18885 0.021845 0.10272 0.015469 0.12191 0.004071 0.11192-0.004495 0.11056-0.011987 0.10493-0.016906 0.093457-0.050147 0.18027-0.07514 0.1801-0.094299 0.171-0.12002 0.17903-0.079691 0.10406-0.085296 0.10029-0.4595 0.48434-0.21676 0.25256-0.23077 0.30076-0.19273 0.26936-0.12 0.1803-0.30899 0.49001-0.18699 0.2675-0.12963 0.16191-0.13514 0.1521-0.1119 0.11223-0.10362 0.091392-0.070665 0.053619-0.077213 0.048999-0.11486 0.055186-0.094037 0.031792-0.17116 0.033101-0.59861 0.043824-0.23909 0.029076-0.11676 0.023441-0.21483 0.05724-0.22136 0.069921-0.42904 0.16553-0.18634 0.066099-0.11545 0.032944-0.093015 0.020498-0.12743 0.018491-0.15649 0.011293-0.20093 0.002891-0.17446-0.007616-0.1263-0.014202-0.13337-0.02463-0.18038-0.051423-0.50453-0.17731-0.17458-0.028877-0.12438 0.005328-0.1271 0.025859-0.19079 0.071577-0.1916 0.10284-0.68703 0.44943-0.22287 0.13918-0.27143 0.1585-0.29066 0.15476-0.14848 0.073293-0.35059 0.15805-0.35248 0.13904-0.19544 0.062979-0.19323 0.051279-0.20919 0.045208-0.27753 0.047408-0.23203 0.029686-0.25461 0.01968-0.34479 0.011551-0.13869 0.015844-0.14779 0.029285-0.15371 0.045124-0.12734 0.049628-0.12906 0.059821-0.19678 0.10448-0.58309 0.33821-0.49907 0.27134-0.39866 0.19788-0.33224 0.15582-0.22576 0.11678-0.11392 0.068418-0.1865 0.13331-0.305 0.24444-0.36517 0.27405-0.12814 0.084847-0.057575 0.032513-0.051329 0.024804-0.077238 0.027988-0.11702 0.015892-0.074006-0.006836-0.15768-0.031306-0.053682-0.005484-0.070058-0.001011-0.10687 0.011645-0.1347 0.04018-0.062311 0.030206-0.096746 0.060194-0.068512 0.050324-0.55577 0.46478-0.20025 0.14893-0.30989 0.19233-0.15787 0.10937-0.091689 0.077545-0.12662 0.12848-0.11669 0.14251-0.11733 0.1712-0.09344 0.17031-0.0388 0.090687-0.036444 0.10422-0.12169 0.42972-0.16912 0.51811-0.10478 0.36662-0.097356 0.30079-0.085385 0.2325-0.1546 0.39435-0.20252 0.47895-0.15237 0.33463-0.13548 0.27922-0.082209 0.15676-0.08974 0.15602-0.10674 0.16203-0.12449 0.16191-0.080169 0.092506-0.13888 0.14386-0.12996 0.12032-0.090388 0.076005-0.17096 0.12655-0.08427 0.05436-0.13744 0.077776-0.11222 0.053634-0.13048 0.052127-0.16174 0.052219-0.15974 0.039438-0.12431 0.023444-0.2649 0.033154-0.24872 0.015209-0.7904 0.015352-0.20136 0.014478-0.21769 0.028793-0.14771 0.02816-0.21292 0.053034-0.16346 0.050625-0.25311 0.096488-0.30985 0.1423-0.30952 0.16242-0.16628 0.10193-0.10699 0.074583-0.063011 0.04843-0.12393 0.10837-0.14444 0.1564-0.1118 0.15141-0.072452 0.11435-0.067095 0.11941-0.069668 0.14995-0.03325 0.093389-0.018924 0.070434-0.013996 0.08727-4.55e-4 0.052512 0.005761 0.030396 0.007842 0.01399 0.011773 0.010242 0.050325 0.020506 0.045115 0.041768 0.052546 0.061501 0.075676 0.10762 0.073838 0.1277 0.062582 0.13337 0.048019 0.13168 0.037592 0.15141 0.014625 0.10331 0.005724 0.16397-0.025561 0.21676-0.033683 0.12721-0.072735 0.17619-0.078907 0.13208-0.067969 0.089003-0.16232 0.16478-0.12447 0.099714-0.14158 0.096856-0.49383 0.2845-0.14132 0.092013-0.12379 0.096495-0.10531 0.10023-0.12284 0.15104-0.10442 0.18577-0.041561 0.10826-0.032697 0.12779-0.016239 0.13076-0.001762 0.07824 0.007419 0.1038 0.030345 0.14233 0.038593 0.10216 0.053836 0.098097 0.06915 0.090475 0.034606 0.036334 0.093921 0.080677 0.070023 0.049822 0.13383 0.082193 0.58729 0.31077 0.21745 0.13261 0.18507 0.12358 0.23173 0.1654 0.29854 0.23061 0.19569 0.17285 0.17678 0.1884 0.14828 0.18853 0.23568 0.33769 0.19021 0.28746 0.12031 0.19221 0.097173 0.1674 0.16516 0.32185 0.2192 0.49155 0.13304 0.28348 0.085809 0.1643 0.10797 0.18634 0.08286 0.12941 0.11327 0.16125 0.080224 0.1057 0.27377 0.33659 0.069173 0.094592 0.050141 0.082319 0.038936 0.086756 0.023281 0.091164 0.006501 0.079124-0.004065 0.073667-0.033518 0.17083-0.086319 0.32908-0.036128 0.19759-0.022226 0.23894-0.021007 0.37846-0.050556 0.57992-0.007869 0.35837 0.01293 0.59724-0.001097 0.19036-0.016855 0.2658-0.055301 0.53508-0.005884 0.18549 0.005577 0.14576 0.03313 0.20756 0.023952 0.08778 0.029277 0.088798 0.070552 0.17926 0.065566 0.14459 0.14184 0.28141 0.27896 0.49984 0.07223 0.13866 0.04066 0.088216 0.047232 0.12049 0.026655 0.084779 0.021379 0.088086 0.018291 0.11636 0.007272 0.16522-0.005928 0.10434-0.019486 0.14956-0.056931 0.3103-0.013477 0.098661-0.005697 0.090562 0.004661 0.096179 0.010707 0.06199 0.016601 0.061335 0.032254 0.085631 0.055916 0.11187 0.064794 0.10667 0.1483 0.22336 0.06915 0.11884 0.036404 0.084248 0.018004 0.07786 0.00125 0.050287-0.005645 0.043513-0.023809 0.073771-0.021461 0.040647-0.034606 0.046617-0.035529 0.031681-0.039398 0.019288-0.020215 0.037789-0.055594 0.04779-0.087812 0.059989-0.16534 0.092029-0.14132 0.064931-0.13453 0.053333-0.1318 0.04495-0.188 0.051656-0.25816 0.047922-0.27969 0.023846-0.17874-1.3e-4 -0.23626-0.020492-0.40974-0.071243-0.16135-0.020028-0.11012-0.002983-0.09656 0.003685-0.66484 0.045134-0.83759 0.083107-0.52227 0.02895-0.21325 0.024421-0.21304 0.056025-0.1729 0.065647-0.12838 0.060623-0.075001 0.041355-0.15326 0.096531-0.063247 0.045558-0.097318 0.080245-0.060964 0.057925-0.10553 0.1179-0.060776 0.08105-0.054331 0.084062-0.092077 0.17638-0.29177 0.70906-0.085659 0.18355-0.082137 0.15001-0.080416 0.11734-0.052078 0.060907-0.091595 0.079909-0.10471 0.056247-0.11494 0.032764-0.089389 0.009483-0.13393-0.009313-0.074993-0.017767-0.076972-0.027903-0.06478-0.031185-0.15856-0.10331-0.15984-0.13637-0.17997-0.17994-0.33596-0.34958-0.12417-0.11531-0.077635-0.064915-0.10101-0.075382-0.12089-0.078253-0.14006-0.07508-0.14971-0.059761-0.11362-0.029213-0.11467-0.013119-0.043646-2.26e-4 -0.16427 0.029455-0.094083 0.047352-0.047898 0.035083-0.045875 0.041788-0.059085 0.068357-0.065947 0.10067-0.059116 0.11953-0.045216 0.11996-0.036375 0.12909-0.022133 0.10957-0.014353 0.11205-0.006047 0.12436 0.004751 0.14017 0.064861 0.50917 0.001115 0.087532-0.007695 0.079057-0.028525 0.10668-0.026621 0.058863-0.047085 0.075189-0.1087 0.12119-0.14068 0.11706-0.29163 0.21686-0.093375 0.082854-0.090646 0.10407-0.042195 0.066833-0.032595 0.069888-0.041856 0.16985-0.00288 0.16354 0.02701 0.17102 0.045193 0.15533 0.066902 0.16541 0.06544 0.13133 0.074251 0.13072 0.12533 0.19649 0.351 0.49354 0.11334 0.17028 0.08328 0.1477 0.091857 0.21079 0.040746 0.1168 0.048644 0.17573 0.019321 0.10094 0.012623 0.12593-0.007481 0.17914-0.023464 0.13346-0.036728 0.13277-0.050477 0.13642-0.061439 0.13433-0.094173 0.16964-0.063026 0.096454-0.085944 0.11471-0.14894 0.16164-0.10754 0.094615-0.11558 0.086627-0.17548 0.10872-0.21724 0.10659-0.14483 0.058985-0.14709 0.05219-0.16139 0.049609-0.52423 0.16162-0.12146 0.1087-0.057525 0.15345 1.9e-5 0.17263 0.070354 0.22377 0.11511 0.25573 0.17905 0.24933 0.27496 0.28768 0.14707 0.1854 0.13428 0.14064 0.12692 0.094361 0.10764 0.055745 0.17821 0.061952 0.20217 0.006527 0.12462-0.02547 0.12754-0.042 0.17823-0.073715 0.42614-0.19617 0.14032-0.059469 0.22442-0.077142 0.22216-0.036787 0.14618 0.009325 0.14097 0.034621 0.072993 0.027464 0.093344 0.04526 0.088181 0.053557 0.069343 0.050925 0.065205 0.057313 0.081154 0.091914 0.074852 0.12107 0.047108 0.10412 0.057645 0.16618 0.085701 0.32232 0.0747 0.32141 0.052068 0.26113 0.064036 0.40779 0.031958 0.34896 0.005434 0.19333-0.007318 0.18836-0.025926 0.19121-0.035571 0.14129-0.060124 0.17079-0.064328 0.14962-0.18003 0.36352-0.20744 0.37863-0.12604 0.20559-0.10551 0.14594-0.11852 0.14054-0.18167 0.18508-0.16189 0.14166-0.20549 0.15331-0.1461 0.093864-0.14762 0.085411-0.55696 0.28413-0.30156 0.16079-0.12846 0.076114-0.13058 0.08771-0.15466 0.12709-0.081373 0.083259-0.085064 0.10609-0.10692 0.1731-0.10584 0.22683-0.21696 0.58628-0.04261 0.096444-0.02041 0.035194-0.018257 0.019499-0.011417 2.76e-4 -0.007705 0.007902-0.028607 0.007553-0.10171 0.004533-0.084883-3e-3 -0.16966-0.018318-0.11947-0.022462-0.13387-0.034863-0.10748-0.035706-0.1274-0.051517-0.13983-0.067941-0.2183-0.12846-0.17612-0.12133-0.13771-0.10318-0.52532-0.41349-0.26201-0.19709-0.28116-0.18805-0.19654-0.11712-0.18094-0.098714-0.28101-0.13955-0.19374-0.085558-0.15833-0.062029-0.14961-0.051628-0.26999-0.073771-0.64399-0.14304-0.24745-0.067721-0.13397-0.048401-0.12737-0.063449-0.074756-0.054353-0.055217-0.057011-0.071228-0.11733-0.045529-0.13887-0.011216-0.05849-0.01256-0.13973 0.002369-0.13537 0.013585-0.15059 0.046239-0.29992 0.033392-0.16976 0.054301-0.23248 0.090873-0.31388 0.063563-0.18567 0.069889-0.18181 0.081873-0.18889 0.090167-0.18022 0.316-0.54414 0.14328-0.23867 0.082916-0.12383 0.072364-0.098552 0.1298-0.15956 0.13188-0.14699 0.45286-0.46266 0.14985-0.16787 0.061121-0.087254 0.03749-0.074871 0.016684-0.054789 0.00694-0.063312-0.007931-0.073218-0.014858-0.051862-0.025839-0.059599-0.056371-0.089288-0.079863-0.095421-0.076389-0.079364-0.27682-0.26271-0.15867-0.15776-0.14637-0.15828-0.09743-0.11416-0.17823-0.22886-0.13043-0.18436-0.084969-0.13724-0.050131-0.099654-0.02461-0.061627-0.0254-0.085419-0.015382-0.07998-0.01013-0.12407 0.006102-0.14923 0.019339-0.14086 0.061002-0.27638 0.16097-0.57754 0.08289-0.33243 0.030823-0.18011 0.012535-0.14634-0.002765-0.14332-0.034365-0.19286-0.070475-0.18152-0.077304-0.12836-0.065996-0.087121-0.10364-0.11536-0.18894-0.17365-0.19236-0.15132-0.18655-0.13403-0.55855-0.37467-0.34281-0.21967-0.47779-0.29686-0.36857-0.21894-0.25062-0.14041-0.28356-0.14408-0.19118-0.084188-0.19309-0.071411-0.19546-0.055492-0.092374-0.019617-0.15383-0.023915-0.15662-0.013263-0.17115-0.002591-0.14321 0.005761-0.52113 0.042471-0.16598 0.008712-0.23658 0.003057-0.24618-0.011309-0.29786-0.036139-0.25797-0.050384-0.89282-0.22645-0.12706-0.029153-0.19626-0.03652-0.083621-0.010815-0.16585-0.011397-0.11424 9.9e-4 -0.13038 0.011457-0.10321 0.017896-0.14499 0.039762-0.13232 0.053166-0.11118 0.059943-0.095925 0.066991-0.08559 0.077727-0.085678 0.10666-0.056593 0.10067-0.036068 0.084736-0.058746 0.19314-0.023956 0.11129-0.030628 0.22098-0.01065 0.27873 0.013616 0.34146 0.065552 0.69203 0.029514 0.40135 0.002399 0.33055-0.010302 0.18655-0.015307 0.15026-0.038191 0.23681-0.042815 0.19485-0.07395 0.27866-0.055545 0.17541-0.053649 0.14387-0.053931 0.11982-0.043349 0.079435-0.06183 0.090332-0.033652 0.039183-0.040942 0.039696-0.082093 0.060614-0.065667 0.036975-0.096974 0.043777-0.17035 0.05793-0.51023 0.13586-0.23088 0.081693-0.097396 0.041552-0.25179 0.1249-0.64203 0.37812-0.17161 0.092965-0.17862 0.087082-0.13077 0.05632-0.24322 0.08554-0.19545 0.048524-0.10948 0.017433-0.22694 0.016746-0.14325-9e-6 -0.2572-0.01883-0.14732-0.020011-0.16763-0.029592-0.19903-0.044353-0.13934-0.036896-0.28763-0.092388-0.22656-0.086981-0.55344-0.22884-0.76961-0.32974-0.93646-0.37035-0.37811-0.16512-0.22663-0.10588-0.45081-0.22404-0.4031-0.21855-0.30298-0.17964-0.26644-0.17305-0.23426-0.16462-0.28086-0.21017-0.22454-0.18396-0.13827-0.12618-0.13403-0.13526-0.12853-0.14623-0.11976-0.15706-0.069753-0.10494-0.053356-0.09014-0.089027-0.178-0.060622-0.15006-0.041253-0.12288-0.047832-0.17543-0.057039-0.27676-0.044613-0.28081-0.038717-0.31059-0.060874-0.58444-0.044612-0.34614-0.075316-0.44579-0.058949-0.28188-0.084671-0.34575-0.13737-0.48602-0.28979-0.90958-0.19793-0.66452-0.13071-0.50556-0.067991-0.31475 0.039947-0.008411 0.018673-0.047575-0.002722-0.095421-0.025003-0.12612-0.042259-0.14995-0.14752-0.42365-0.36775-0.96484-0.079703-0.22742-0.071602-0.22446-0.06596-0.24152-0.048177-0.23612-0.019945-0.15964-0.005984-0.10337 0.003319-0.15196 0.037059-0.23821 0.072267-0.21613 0.10462-0.1973 0.13797-0.19717 0.20999-0.25401 0.68299-0.75784 0.21227-0.25563 0.10156-0.13267 0.11578-0.16165 0.17174-0.26248 0.16878-0.27718 0.16212-0.29085 0.09247-0.19757 0.040319-0.10337 0.064858-0.21631 0.03708-0.17242 0.040738-0.2654 0.028007-0.30714 0.003934-0.13856-0.004513-0.1382-0.016352-0.12975-0.019719-0.083531-0.04922-0.12868-0.079842-0.13746-0.072263-0.093713-0.08192-0.086876-0.11306-0.098021-0.097329-0.070238-0.15847-0.097033-0.38452-0.20639-0.1827-0.087931-0.07594-0.028768-0.072573-0.019815-0.091159-0.011778-0.16885 0.014831-0.10388 0.025957-0.13991 0.048573-0.16434 0.072222-0.15848 0.082215-0.16338 0.096032-0.22342 0.14882-0.29774 0.2157-0.17078 0.10456-0.1179 0.054939-0.15098 0.058884-0.20521 0.070942-0.24101 0.072126-0.12097 0.02814-0.15128 0.022462-0.11783 7e-4 -0.09688-0.019002-0.095662-0.040384-0.062352-0.037262-0.061448-0.046291-0.042374-0.042086-0.039321-0.053694-0.032185-0.065149-0.02369-0.0703-0.018627-0.079871-0.016126-0.11148-0.006056-0.19473 0.012001-0.17287 0.036734-0.25526 0.17603-0.8852 0.057606-0.36904 0.018217-0.17179 0.010912-0.19046-5.09e-4 -0.17421-0.006917-0.11812-0.016594-0.14825-0.042736-0.23086-0.064505-0.24631-0.1632-0.56154-0.048845-0.20219-0.057429-0.30208-0.030136-0.20702-0.023145-0.19767-0.033172-0.42776-0.040976-1.0031-0.01861-0.20355-0.046901-0.30437-0.042049-0.18936-0.059488-0.21907-0.20552-0.62086-0.053622-0.17804-0.058036-0.23246-0.046853-0.24052-0.028988-0.19468-0.037485-0.39139-0.03408-0.6687-0.060861-0.85002-0.009608-0.20877-0.002251-0.17272 0.004632-0.17208 0.01035-0.14344 0.049558-0.36263 0.028883-0.15281 0.032799-0.14042 0.053304-0.18794 0.076737-0.22776 0.13138-0.35288 0.24183-0.61541 0.072692-0.17002 0.097858-0.26581 0.28342-0.88854 0.042109-0.208 0.02662-0.23935 0.034606-0.21415 0.049898-0.22083 0.14071-0.55315 0.01831-0.086931 0.012626-0.14081-0.023094-0.30854-0.017492-0.13916-0.048677-0.26878-0.071059-0.275-0.28442-0.91196-0.12738-0.47708-0.076001-0.34791-0.2902-1.4344 3.03e-4 -0.053714-0.023091-0.30822-0.1072-1.1113-0.022639-0.38175-0.017199-1.132 0.004817-0.53578 0.012207-0.34853 0.026076-0.38012 0.058552-0.63444 0.069019-0.87074 0.037188-0.37564 0.036981-0.3032 0.053169-0.36764 0.1489-0.87648 0.025211-0.18279 0.019782-0.19642 0.016769-0.30352 0.021375-0.841 0.020296-0.46161 0.049826-0.68728 0.12316-1.1886 0.018806-0.38226-0.002046-0.21798-0.013295-0.20185-0.014111-0.11527-0.044822-0.23104-0.10269-0.35874-0.14101-0.41381-0.089374-0.33336-0.14726-0.6455-0.21643-1.0873-0.08389-0.39547-0.077044-0.29127-0.041187-0.12232-0.09398-0.22344-0.085986-0.16352-0.10843-0.17278-0.098038-0.13331-0.13029-0.15136-0.12894-0.12658-0.16614-0.13685-0.17261-0.11878-0.19593-0.11495-0.1677-0.08492-0.29436-0.12598-0.32111-0.11599-0.65148-0.21499-0.21851-0.077662-0.2247-0.086206-0.56684-0.23083-1.4907-0.55479-0.40737-0.15875-0.30442-0.13685-0.18554-0.10108-0.17946-0.11885-0.11325-0.091067-0.093191-0.089038-0.10348-0.12026-0.099009-0.13718-0.087066-0.1354-0.16215-0.27429-0.15457-0.28043-0.16065-0.32066-0.094725-0.21448-0.087079-0.23013-0.060043-0.19609-0.045435-0.19945-0.02198-0.14562-0.010828-0.13343 0.002753-0.22755 0.018472-0.20343 0.035194-0.27532-0.018429-9.82e-4 -0.079379 0.016641-0.19072 0.04613-1.7454 0.43236-0.39885 0.087532-0.31946 0.058051-0.37727 0.049543-0.17499 0.013867-0.16978 0.006094-0.15485-0.002503-0.14899-0.011853-0.17834-0.030759-0.16635-0.052291-0.1093-0.052006-0.13293-0.08594-0.12309-0.10129-0.15659-0.15323-0.14724-0.16271-0.24514-0.29082-0.4406-0.54584-0.16178-0.1854-0.1231-0.12934-0.18136-0.17108-0.18922-0.1585-0.2502-0.18447-0.23476-0.15183-0.2152-0.11959-0.21894-0.10689-0.20717-0.082728-0.26245-0.080512-0.33513-0.082024-0.8529-0.19141-0.3136-0.054554-0.22431-0.022166-0.18453 1.33e-4 -0.097568 0.010173-0.087685 0.01597-0.11797 0.033619-0.04881 0.018682-0.12834 0.064298-0.13462 0.09179-0.13932 0.11798-0.53289 0.51183-0.13404 0.11669-0.13292 0.10601-0.22851 0.16205-0.18343 0.11568-0.23189 0.12686-0.13142 0.059701-0.16458 0.060422-0.22748 0.059107-0.17724 0.02931-0.16519 0.013796-0.19649 0.002142-0.19265-0.012246-0.18841-0.023641-0.18021-0.032575-0.31208-0.076458-0.41009-0.12179-1.1323-0.36602-0.2445-0.085197-0.13919-0.054108-0.1799-0.077591-0.17271-0.082714-0.6861-0.35115-0.18877-0.099542-0.52156-0.2915-0.36244-0.18681-0.28466-0.12845-0.17743-0.059417-0.13352-0.033315-0.25703-0.047023-0.15772-0.021049-0.2277-0.021684-0.2637-0.016165-0.34594 0.002782-0.72587 0.04373-0.17991 0.004897-0.1691-0.003063-0.16474-0.012894-0.24872-0.039263-0.29484-0.066264-0.3124-0.083234-0.32974-0.10545-0.14331-0.052779-0.2743-0.1123-0.54969-0.24453-1.0907-0.4564-0.48899-0.22135-0.3534-0.17408-0.40621-0.21871-0.34334-0.19938-0.58434-0.3513-0.21947-0.11959-0.13445-0.060537-0.074221-0.026369-0.08903-0.022258-0.10267-0.007952-0.05613 0.006699-0.042978 0.011855-0.088759 0.043825-0.070808 0.053128-0.1196 0.12216-0.087573 0.11106-0.11083 0.16128-0.19952 0.31376-0.21652 0.35496-0.3049 0.52551-0.10839 0.19886-0.15841 0.31219-0.49234 1.0373-0.11908 0.27978-0.1195 0.31319-0.094441 0.2883-0.081281 0.32009-0.051852 0.28356-0.048678 0.38754-0.020406 0.24098-0.020934 0.38303-0.021175 1.0754-0.01276 0.32051-0.00761 0.04023 0.015128-0.019315 0.037843-0.017919 0.13299-0.034939 0.17142-0.021836 0.1075-0.004344 0.15664 0.00537 0.19884 0.023095 0.20616 0.039536 0.29224 0.079023 0.24312 0.085013 0.24225 0.10285 0.25343 0.12909 0.17738 0.1064 0.13016 0.088584 0.099753 0.075378 0.11126 0.093598 0.13879 0.13324 0.16708 0.18634 0.092145 0.11523 0.16092 0.21917 0.10842 0.15753 0.16578 0.25101 0.50785 0.79908 0.095144 0.18184 0.033833 0.10297 0.023601 0.10937 0.015507 0.11925 0.009598 0.17123-0.003147 0.28771-0.021198 0.5348-0.011672 0.15511-0.02412 0.15088-0.05677 0.2033-0.1202 0.35134-0.12191 0.3915-0.31124 1.0801-0.12127 0.38403-0.066433 0.18846-0.083404 0.21238-0.091484 0.20278-0.084041 0.1602-0.12298 0.19384-0.32699 0.42239-0.31485 0.435-0.36584 0.4373-0.075885 0.1059-0.094659 0.1725-0.059597 0.18101-0.019365 0.20586 0.018657 0.20562 0.04883 0.24215 0.030492 0.18052 0.013787 0.16238-0.005769 0.16826-0.036609 0.16781-0.032019 0.079115-0.09793 0.16668-0.14705 0.18823-0.45963 0.52545-0.11526 0.14507-0.13011 0.18277-0.094481 0.1578-0.22618 0.46366-0.077927 0.1398-0.084292 0.13365-0.11485 0.15518-0.068663 0.080405-0.29002 0.31466-0.093641 0.11741-0.080039 0.12444-0.045089 0.09096-0.053122 0.1384-0.055554 0.19241-0.12375 0.50934-0.024519 0.15524-0.008644 0.15733 0.011541 0.45814 0.006773 0.1425 0.017866 0.1325 0.025854 0.094426 0.02587 0.062888 0.047541 0.076462 0.047517 0.049077 0.093216 0.057071 0.13763 0.04287 0.17563 0.020443 0.1683-0.001238 0.20021-0.01893 0.23712-0.037836 0.95943-0.20502 0.38324-0.07665 0.47968-0.083659 0.28687-0.042207 0.49353-0.055352 0.36849-0.022671 0.35971-0.001421 0.35486 0.021938 0.16102 0.016638 0.3203 0.043758 0.46061 0.083296 0.50875 0.11159 0.36311 0.091614 0.33615 0.097839 0.15947 0.053284 0.16829 0.064821 0.10566 0.048602 0.091688 0.051452 0.11633 0.096952 0.026666 0.03777 0.022699 0.049224 0.012494 0.060276-0.004208 0.063753-0.049471 0.1065-0.18583 0.22035-0.29 0.37854-0.077522 0.094426-0.1456 0.15217-0.13544 0.11289-0.1929 0.15028-0.13972 0.12716-0.11878 0.14007-0.099745 0.1474-0.085252 0.15264-0.084133 0.17918-0.060809 0.14669-0.31215 0.864-0.094393 0.23697-0.051173 0.10888-0.056401 0.10238-0.055496 0.084384-0.12321 0.1359-0.12661 0.091058-0.146 0.074141-0.1615 0.061058-0.22742 0.065393-0.66818 0.15076-0.21727 0.055714-0.30094 0.0945-0.27003 0.10076-0.26826 0.11327-0.1945 0.089772-0.40097 0.20392-0.20621 0.11333-0.94097 0.53957-0.40954 0.21537-0.15976 0.075769-0.21419 0.091273-0.21022 0.078774-0.73468 0.2492-0.24288 0.08103-0.16438 0.046519-0.16036 0.032928-0.16559 0.015538-0.078386-2.9e-4 -0.15353-0.01507-0.20176-0.047902-0.21913-0.088412-0.18924-0.10656-0.15068-0.095777-0.60256-0.405-0.23278-0.13984-0.24012-0.11896-0.25946-0.091643-0.26548-0.054048-0.26755-0.011214-0.11239 0.00961-0.19247 0.033307-0.18498 0.046359-0.60189 0.18208-0.23312 0.063963-0.18246 0.042949-0.19576 0.038669-0.22586 0.037164-0.42675 0.062302-0.51099 0.082461-0.2545 0.050078-0.2002 0.053436-0.20955 0.083553-0.12654 0.079009-0.11078 0.10828-0.082769 0.12718-0.045964 0.10768-0.036718 0.115-0.052255 0.20486-0.085395 0.4861-0.13911 0.6909-0.074494 0.34058-0.044716 0.16806-0.048083 0.14227-0.052479 0.10685-0.058067 0.059912-0.0485 0.006786-0.032873-0.016035-0.034857-0.038001-0.040474-0.077984-0.019743-0.053793-0.050127-0.18912-0.091258-0.42668-0.068966-0.25823-0.033211-0.10364-0.069253-0.17698-0.056318-0.11114-0.10523-0.15874-0.27624-0.34637-0.091526-0.13851-0.17865-0.31304-0.067276-0.094775-0.087807-0.10098-0.11038-0.10451-0.068177-0.054563-0.12786-0.089324-0.072451-0.043376-0.14086-0.068189-0.13381-0.046126-0.14132-0.035714-0.25309-0.042949-0.15037-0.014943-0.21592-0.006737-0.22363 0.004813-0.32799 0.01916-0.27406 0.030316-0.16684 0.024651-0.32241 0.058741-0.40276 0.088962-0.71483 0.17148-0.35036 0.068681-0.090091 0.013215-0.20647 0.018341-0.23767-0.012369-0.23507-0.050033-0.073669-0.023621-0.1975-0.077853-0.16995-0.078455-0.21996-0.11157-0.24131-0.13006-0.65169-0.36837-0.21852-0.11812-0.25638-0.12674-0.21648-0.09341-0.2325-0.082301-0.26701-0.06971-0.30126-0.051388-0.16173-0.017418-0.16639-0.010092-0.13268-0.001846-0.21249 0.009535-0.17269 0.01966-0.17015 0.029252-0.15138 0.033556-0.1534 0.040904-0.22011 0.069581-0.76317 0.27683-0.32506 0.12609-0.2622 0.11954-0.14719 0.08191-0.10038 0.065248-0.12226 0.092353-0.11 0.099467-0.15841 0.1755-0.29736 0.38425-0.23039 0.27517-0.16968 0.17621-0.14263 0.12596-0.13666 0.10011-0.13826 0.084439-0.16301 0.0823-0.1103 0.046894-0.21127 0.072995-0.28369 0.075149-0.28867 0.058112-0.21134 0.030893-0.20165 0.019251-0.20728 0.011278-0.27936 0.003636-0.16001-0.003028-0.31778-0.013901-0.27091-0.019187-0.2101-0.020337-0.26282-0.034015-1.0932-0.19138-0.80137-0.098784-0.2083-0.039208-0.15903-0.050867-0.054703-0.042183-0.12721-0.21579-0.12297-0.2459-0.088107-0.2127-0.05044-0.15274-0.029221-0.11471-0.016993-0.090259-0.012468-0.11021 0.002139-0.17332 0.020836-0.12475 0.022603-0.082298 0.036603-0.10046 0.072428-0.15139 0.075492-0.12802 0.093519-0.13705 0.10748-0.14084 0.20682-0.24507 0.49342-0.54907 0.30975-0.35592 0.34425-0.41635 0.16336-0.20958 0.15196-0.20558 0.12382-0.1783 0.14987-0.23636 0.10389-0.18579 0.1104-0.23063 0.096724-0.23723 0.068953-0.19193 0.09194-0.28726 0.072089-0.25465 0.10224-0.42129 0.073549-0.34835 0.2574-1.3654 0.12008-0.58359 0.12264-0.53902 0.071341-0.24279 0.064728-0.16155 0.077014-0.15826 0.076808-0.1384 0.083295-0.13649 0.11182-0.16849 0.18226-0.25142 0.19344-0.2368 0.14063-0.15258 0.18019-0.17613 0.20477-0.18071 0.3462-0.29203 0.1678-0.15253 0.22301-0.23403 0.11554-0.14783 0.087803-0.14123 0.090242-0.2042 0.062435-0.21323 0.032124-0.16458 0.016578-0.17226 5.8e-4 -0.15983-0.007246-0.13661-0.022923-0.22133-0.030805-0.17649-0.028611-0.10588-0.04571-0.11834-0.062519-0.11337-0.077767-0.10563-0.12291-0.12298-0.19375-0.12348-0.22897-0.093592-0.25461-0.071285-0.27292-0.054733-0.28566-0.042436-0.29417-0.033179-0.29944-0.025971-0.60487-0.034543-0.59954-0.011838-0.29282 0.004594-0.28502 0.013806-0.27415 0.025413-0.25943 0.040034-0.56295 0.12833-0.16469 0.02266-0.11798-5.01e-4 -0.11018-0.017046-0.14884-0.047381-0.083672-0.037838-0.083794-0.045301-0.17761-0.11835-0.15352-0.12517-0.1847-0.17743-0.18304-0.20389-0.12672-0.15778-0.12493-0.16803-0.43114-0.61223-0.48551-0.63897-0.18516-0.25176-0.1051-0.15221-0.17692-0.27947-0.15553-0.27656-0.088574-0.17182-0.11672-0.24229-0.18817-0.42442-0.1827-0.45263-0.10742-0.28673-0.095784-0.27194-0.14716-0.45177-0.6061-2.058-0.13064-0.4719-0.071199-0.30279-0.025859-0.13957-0.022341-0.19663-0.001058-0.10365 0.009719-0.092876 0.02656-0.092654 0.035475-0.062674 0.05689-0.053049 0.099973-0.042744 0.37656-0.087368 0.18989-0.061372 0.18983-0.081519 0.17527-0.10432 0.1248-0.094513 0.1173-0.10299 0.088368-0.0858 0.14563-0.16028 0.091157-0.1341 0.079524-0.147 0.071186-0.1547 0.058322-0.143 0.048509-0.14586 0.051528-0.22823 0.034954-0.18863 0.030704-0.23708 0.010712-0.2231-9.51e-4 -0.16445-0.010493-0.19599-0.015757-0.15691-0.042101-0.2648-0.048259-0.21099-0.088457-0.29876-0.20535-0.56687-0.0397-0.1219-0.042478-0.16941-0.016036-0.10884-0.004529-0.072997 0.007219-0.12572 0.02206-0.10986 0.038794-0.13318 0.15414-0.46614 0.037712-0.14256 0.033082-0.176 0.013339-0.14976-0.001671-0.12922-0.012266-0.1125-0.038392-0.23367-0.009538-0.089301-7.52e-4 -0.076401 0.011284-0.089955 0.033157-0.10831 0.030009-0.06378 0.044046-0.074512 0.04882-0.069971 0.15254-0.18479 0.26596-0.2958 0.16275-0.18918 0.17668-0.21683 0.20817-0.28165 0.13633-0.2073 0.071943-0.1207 0.081265-0.15042 0.070064-0.14662 0.058905-0.14087 0.046396-0.12747 0.044682-0.14388 0.035534-0.1389 0.043444-0.24391 0.008376-0.079947 0.005437-0.24043-0.01369-0.16226-0.019152-0.10768-0.022314-0.071681-0.028663-0.031731-0.014923 0.016959-0.055642 0.0159-0.088057 0.009589-0.19384 4.73e-4 -0.2342-0.017379-0.2204-0.026771-0.32286-0.047117-0.20682-0.036638-0.25142-0.055646-0.22035-0.063408-0.24641-0.089402-0.45202-0.18224-0.23607-0.07886-0.10743-0.025893-0.081256-0.013859-0.11721-0.010335-0.069502-2.86e-4 -0.16108 0.014034-0.12986 0.024893-0.16714 0.046212-0.1554 0.053474-0.28063 0.11742-0.58736 0.2823-0.24312 0.1101-0.18495 0.074098-0.20609 0.066035-0.15069 0.037734-0.13915 0.0267-0.6314 0.085002-0.64937 0.10793-0.17622 0.019947-0.16926 0.011099-0.30457 6.51e-4 -0.37116-0.02284-0.76313-0.082224-0.20792-0.012621-0.20769-0.003291-0.35985 0.007353-0.25654 0.014813-0.24959 0.025719-0.50044 0.068054-0.11959 0.007316-0.095318-0.002206-0.15895-0.027821-0.14007-0.059987-0.11385-0.09429-0.095832-0.16359-0.049503-0.17286-0.027244-0.19818-0.009984-0.24364 0.011472-0.34972 0.021044-0.25048 0.025588-0.20408 0.03508-0.20752 0.079928-0.33561 0.076055-0.23596 0.068081-0.17844 0.075292-0.17585 0.15458-0.31603 0.16422-0.29033 0.17325-0.26741 0.089611-0.12479 0.076934-0.092943-1.106 0.39122-0.67145 0.22311-0.36388 0.10636-0.52989 0.14322-0.50795 0.11768-0.38774 0.070186-0.34905 0.051867-0.41687 0.051617-0.3041 0.028054-0.29756 0.01799-0.35868 0.007757-0.32727-0.007652-0.24385-0.018023-0.25652-0.035891-0.22522-0.05321-0.18537-0.065416-0.15694-0.071506-0.11039-0.058939-0.19068-0.11751-1.6645-1.1695-0.17544-0.11455-0.20329-0.12142-0.19964-0.10605-0.1899-0.087529-0.14374-0.056568-0.096042-0.032429-0.17641-0.049678-0.28743-0.075159-0.095627-0.032101-0.03691-0.022717 0.006348-0.018866 0.01371-0.016106 0.058693-0.054262 0.36783-0.29621 0.1665-0.14927 0.11146-0.1239 0.04917-0.070123 0.032187-0.058409 0.029035-0.079198 0.009535-0.059363-0.024974-0.14788-0.055458-0.096356-0.11968-0.12426-0.11941-0.089116-0.14505-0.089202-0.12383-0.067841-0.88084-0.43536-0.58195-0.29844-1.3437-0.70536-0.49988-0.27304-0.45141-0.26363-0.2105-0.13606-0.18762-0.1349-0.13942-0.11088-0.13106-0.11238-0.25689-0.24172-0.24455-0.25561-0.26135-0.29979-0.14179-0.17358-0.19797-0.25512-0.49253-0.66687-0.18863-0.24529-0.25289-0.30098-0.14009-0.15204-0.11016-0.11221-0.15382-0.14524-0.48461-0.42267-0.24571-0.23706-0.17441-0.19448-0.0809-0.10298-0.18283-0.25672-0.16376-0.21659-0.15045-0.17604-0.16107-0.16446-0.17205-0.14797-0.18402-0.12552-0.17804-0.091916-0.13854-0.060141-0.23024-0.083192-0.16271-0.047979-0.20042-0.04912-0.13535-0.027643-0.23502-0.032702-0.15618-0.008109-0.23207 0.010484-0.32262 0.044833-0.23633 0.051579-1.3181 0.35028-0.42449 0.10226-0.34543 0.073724-0.22016 0.053436-0.3048 0.092551-0.24226 0.10292-0.18858 0.11156-0.15406 0.11442-0.13926 0.1234-0.26566 0.27041-0.18243 0.16028-0.35579 0.28214-0.54419 0.44497-0.19482 0.14933-0.26785 0.18933-0.18974 0.12433-0.19806 0.12166-0.24115 0.13538-0.14321 0.071904-0.1436 0.064568-0.23438 0.085978-0.17403 0.044228-0.1741 0.023021-0.22902-0.005099-0.2322-0.032467-1.0333-0.18104-1.1099-0.2099-0.27241-0.058015-0.15608-0.040553-0.24988-0.083201-0.1988-0.081256-0.32096-0.14548-0.1303-0.064163-0.15183-0.083085-0.21094-0.13589-0.23256-0.16284-0.12173-0.090344-0.19916-0.16225-0.10591-0.098332-0.097071-0.10275-0.094251-0.11905-0.07842-0.12482-0.06021-0.1304-0.039693-0.13414-0.017037-0.20547 0.040945-0.21672 0.073561-0.16281 0.12416-0.17453 0.13668-0.14466 0.2796-0.26359 0.14422-0.16228 0.11468-0.18143 0.059891-0.16293 0.019071-0.16957-0.010575-0.10329-0.026814-0.099557-0.046918-0.10333-0.063191-0.09488-0.12334-0.12376-0.15273-0.092143-0.13378-0.042244-0.14351-0.015766-0.18056 0.010032-0.22261 0.039825-0.56394 0.14122-0.1564 0.027958-0.23307 0.019993-0.26945-0.010003-0.18711-0.027971-0.18081-0.045924-0.23514-0.097102-0.19916-0.13541-0.15952-0.17812-0.099444-0.19484-0.047612-0.19567-0.008502-0.1136 0.007939-0.15944 0.027092-0.16665 0.070854-0.29761 0.017443-0.098204-0.030169-0.078937-0.076337-0.16287-0.065564-0.12402-0.077809-0.1292-0.06852-0.098589-0.076589-0.095084-0.093452-0.097785-0.12765-0.11131-0.19839-0.14367-0.28146-0.17283-0.58433-0.33033-0.23195-0.15158-0.077508-0.058461-0.07284-0.061259-0.086332-0.084579-0.075686-0.090459-0.067529-0.10311-0.05284-0.10879-0.035955-0.10868-0.020874-0.1116-0.003532-0.14682 0.02279-0.14989 0.02729-0.098832 0.034764-0.097494 0.24552-0.53563 0.045653-0.1234 0.029473-0.12234 0.005614-0.060334-0.002674-0.11534-0.011935-0.15158 7.41e-4 -0.059497 0.01819-0.086613 0.036124-0.070103 0.076601-0.091049 0.20226-0.17929 0.054713-0.056734 0.039584-0.058376 0.015853-0.059061-0.009056-0.049692-0.036048-0.067084-0.18105-0.23472-0.06434-0.095891-0.059942-0.10603-0.052765-0.11693-0.041469-0.12431-0.024681-0.1112-0.013882-0.11236-0.001205-0.16477 0.018192-0.1478 0.025006-0.096735 0.023818-0.053401 0.013104-0.014812 0.009542-0.002755-0.020227-0.005248-0.11239 0.010392-0.27232 0.051707-0.36682 0.095073-0.34576 0.10308-0.30781 0.10666-0.25566 0.10451-0.16452 0.077257-0.20465 0.11058-0.18081 0.11508-0.133 0.09744-0.1167 0.094651-0.46994 0.40301-0.1354 0.10597-0.11975 0.084589-0.21438 0.13548-0.16097 0.090162-0.18308 0.089205-0.40365 0.18405-0.13733 0.070321-0.1188 0.06807-0.30617 0.19977-0.47702 0.3516-0.10822 0.074075-0.21402 0.1325-0.25912 0.13687-0.15378 0.071013-0.52446 0.22057-0.55852 0.25207-0.2982 0.15746-0.28929 0.17049-0.20304 0.13653-0.17148 0.13422-0.15976 0.14217-0.45275 0.42745-0.42469 0.37328-0.14067 0.11784-0.56704 0.45268-0.14467 0.10064-0.11193 0.060098-0.096567 0.035515-0.06912 0.015494-0.052649 0.006433-0.090942 0.001308-0.10748-0.012688-0.15807-0.039928-0.50943-0.18783-0.19638-0.062265-0.25262-0.06293-0.30018-0.063374-0.24503-0.069075-0.097536-0.036358-0.088599-0.044283-0.060469-0.040809-0.055802-0.051067-0.044514-0.056662-0.025673-0.044539-0.024031-0.058387-0.0143-0.055409-0.007952-0.060948-0.001716-0.094826 0.023443-0.25776-0.001204-0.13024-0.023347-0.11946-0.041505-0.11694-0.047728-0.10272-0.052128-0.097241-0.30484-0.49775-0.11463-0.16304-0.3266-0.4213-0.082582-0.12078-0.067905-0.11972-0.036575-0.079563-0.061315-0.1811-0.028186-0.11669-0.046806-0.27138-0.021046-0.096425-0.027517-0.069673-0.020738-0.032619-0.043417-0.043666-0.042812-0.026307-0.09122-0.029957-0.075075-0.010448-0.08976-0.003206-0.11264 0.003558-0.38638 0.021842-0.18958 0.002487-0.2831-0.013499-0.29692-0.039301-0.17053-0.032782-0.22157-0.054811-0.16069-0.050659-0.23488-0.093564-0.25382-0.12335-0.2303-0.13137-0.15044-0.096848-0.19022-0.13652-0.20805-0.17496-0.16297-0.16377-0.075539-0.088256-0.077249-0.10412-0.083714-0.13723-0.070215-0.13981-0.14127-0.31652-0.079642-0.1486-0.093503-0.15016-0.089584-0.12799-0.098221-0.12733-0.14683-0.17035-0.14286-0.14619-0.19833-0.17545-0.15155-0.11395-0.18783-0.11933-0.14756-0.078184-0.1526-0.067135-0.19047-0.065548-0.19204-0.049372-0.24923-0.043832-0.14115-0.015748-0.12843-0.008633-0.15561-0.001364-0.072844 0.006367-0.029253 0.011978-0.11635 0.038642-0.28234 0.11556-0.25751 0.1151-0.50866 0.24142-0.47332 0.24731-0.38551 0.22524-0.21681 0.14006-0.19861 0.14058-0.16768 0.13086-0.12586 0.10808-0.137 0.1309-0.07453 0.0793-0.070352 0.082344-0.069497 0.091953-0.058947 0.091254-0.11716 0.25348-0.076737 0.27408-0.047445 0.28828-0.026391 0.29752-0.011254 0.30285-2.02e-4 0.30494 0.008222 0.3041 0.015191 0.30035 0.021705 0.29338 0.028657 0.28257 0.054818 0.42427 0.01992 0.19373 0.022304 0.32794 0.02826 0.14723 0.027732 0.077865 0.035248 0.071111 0.040158 0.061677 0.038779 0.047262 0.074279 0.068649 0.067403 0.046812 0.068241 0.038334 0.092612 0.042536 0.17406 0.05926 0.092992 0.021694 0.12493 0.019601 0.23764 0.01379 0.26351-0.008856 0.86128-0.080775 0.26156-0.009424 0.21631 0.007337 0.20904 0.02631 0.11954 0.026624 0.14325 0.046043 0.097707 0.041971 0.11164 0.060118 0.13769 0.093699 0.12106 0.10192 0.13552 0.13824 0.12475 0.15295 0.1141 0.16339 0.12024 0.19771 0.086982 0.16035 0.11152 0.22662 0.13031 0.29354 0.11052 0.28364 0.078055 0.24787 0.058322 0.24373 0.027541 0.15006 0.03058 0.24396 0.009617 0.19545-0.006898 0.17695-0.022092 0.16133-0.050911 0.22688-0.06671 0.22192-0.058135 0.15291-0.057119 0.12402-0.07381 0.1326-0.06066 0.092669-0.086717 0.11549-0.10316 0.11813-0.094667 0.095797-0.11529 0.10486-0.36084 0.29459-0.42124 0.31583-0.31275 0.21242-0.58202 0.36561-0.24328 0.16712-0.31625 0.24108-0.64567 0.52248-0.60441 0.44942-0.24788 0.20535-0.29283 0.2678-0.32391 0.31027-0.53634 0.53603-0.27054 0.2915-0.57474 0.65213-0.17606 0.21442-0.17054 0.22903-0.12969 0.20396-0.10398 0.20305-0.082806 0.21668-0.13276 0.4416-0.049742 0.12593-0.056356 0.1145-0.089872 0.14639-0.066439 0.089296-0.049434 0.056626-0.088696 0.077544-0.041706 0.019843-0.025834-5e-6 -0.010317-0.037297-0.079203-0.16118-0.087672-0.1572-0.19038-0.30117-0.21197-0.28102-0.19422-0.223-0.13216-0.13797-0.20224-0.19328-0.19811-0.17058-0.18493-0.14331-0.20381-0.13978-0.2425-0.13863-0.19783-0.085115-0.1571-0.044924-0.069448-0.01215-0.14106-0.008324-0.15676 0.0184-0.052074 0.013288-0.12506 0.048232-0.10621 0.060399-0.061026 0.043899-0.099889 0.089277-0.38941 0.44237-0.19157 0.18581-0.14338 0.12447-0.21629 0.16948-0.23018 0.16201-0.28282 0.17612-0.096644 0.052464-0.16801 0.080856-0.20255 0.085604-0.15427 0.055537-0.10706 0.03158-0.12646 0.028663-0.10409 0.016148-0.11675 0.009128-0.093617-2.33e-4 -0.11535-0.00991-0.18982-0.037208-0.1805-0.050995-0.14245-0.046786-0.13306-0.053399-0.065391-0.03166-0.095248-0.052871-0.09044-0.062619-0.073323-0.072824-0.058236-0.096399-0.043305-0.1123-0.05219-0.18119-0.070681-0.31532-0.050446-0.17497-0.096267-0.19095-0.15002-0.19113-0.19261-0.17994-0.22737-0.1662-0.2565-0.14844-0.13823-0.065989-0.12408-0.051693-0.26376-0.089157-0.30955-0.073142-0.31802-0.04072-0.17642-0.006498-0.17526 0.00618-0.18353 0.021623-0.14021 0.028007-0.13696 0.036513-0.21982 0.075705-0.19546 0.084789-0.15332 0.08171-0.057126 0.039459-0.013899 0.021502-0.055471 0.019708-0.083072 0.065772-0.17963 0.17394-0.20345 0.22017-0.68096 0.78544-0.27019 0.30164-0.25616 0.26823-0.2505 0.23961-0.15397 0.13463-0.15705 0.12875-0.28785 0.21907-0.34199 0.24253-0.60183 0.40353-1.5072 0.98826-0.39716 0.24436-0.44937 0.25164-0.34089 0.1702-0.22892 0.10278-0.3362 0.1367-0.84904 0.32393-0.37561 0.15736-0.29707 0.14425-0.1787 0.099519-0.17463 0.10676-0.35842 0.24387-0.99962 0.74545-0.16076 0.1122-0.2154 0.13604-0.15423 0.08145-0.15058 0.060134-0.14811 0.033021-0.14285-0.001783-0.11964-0.034261-0.11601-0.061042-0.074939-0.052268-0.071043-0.057636-0.089476-0.082317-0.16963-0.18026-0.1435-0.1719-0.13807-0.1775-0.95468-1.2923-0.41424-0.53536-0.24417-0.2959-0.22214-0.25126-0.1173-0.12396-0.32888-0.32288-0.10553-0.12119-0.095894-0.13174-0.064411-0.10431-0.06871-0.12481-0.10208-0.22663-0.069735-0.21128-0.072677-0.30633-0.043392-0.24572-0.035409-0.2523-0.04485-0.42488-0.039639-0.56856-0.023593-0.5607-0.004226-0.33581 0.011807-0.33606 0.014928-0.14221 0.01821-0.11104 0.030458-0.12896 0.024136-0.078553 0.090825-0.22476 0.10215-0.19917 0.39001-0.66907 0.11187-0.22849 0.037941-0.10064 0.032088-0.12571 0.007244-0.087898-0.009446-0.079136-0.077402-0.15191-0.13901-0.12869-0.18158-0.10544-0.20877-0.080118-0.22314-0.050663-0.2251-0.020306-0.21999-0.009036-0.20668-0.021015-0.18462-0.056982-0.08344-0.050268-0.067659-0.054546-0.068968-0.067072-0.10287-0.11566-0.23343-0.28343-0.13257-0.14002-0.10912-0.093514-0.14638-0.097685-0.48506-0.25712-0.42554-0.26537-0.11425-0.066434-0.15595-0.078575-0.21064-0.08445-0.58702-0.19019-0.19926-0.07377-0.45166-0.18292-0.19469-0.064577-0.19989-0.033481-0.1628 0.004914-0.12771 0.019796-0.11891 0.027151-0.17344 0.04897-0.31788 0.10089-0.12598 0.036083-0.13742 0.031659-0.17785 0.023765-0.1811 5.84e-4 -0.1383-0.011693-0.28188-0.043967-0.79445-0.16445-0.37117-0.060619-0.88013-0.12745-0.36912-0.067987-0.31855-0.079286-0.25853-0.088958-0.10341-0.044952-0.11726-0.059414-0.17238-0.10537-0.18826-0.14534-0.11372-0.10814-0.12228-0.13387-0.1803-0.223-0.23546-0.30842-0.3968-0.49299-0.2846-0.36286-0.30178-0.42206-0.26692-0.39781-1.247-1.9427-0.085517-0.12767-0.018856-0.020394 0.57935-0.54043 0.68453-0.59591 0.7654-0.69664 0.23214-0.1923 0.59937-0.46381 0.20425-0.1817 0.11019-0.1201 0.051814-0.065457 0.084381-0.11948 0.08315-0.1374 0.044679-0.086488 0.065479-0.15252 0.04254-0.13006 0.012536-0.061169-0.038128-0.027038-0.06195-0.073585-0.11799-0.17189-0.11503-0.2012-0.065216-0.13321-0.059233-0.13907-0.06083-0.17366-0.045018-0.1758-0.032583-0.22546-0.016124-0.28015-0.002502-0.32577 0.018433-0.26442 0.02296-0.1481 0.14774-0.75508 0.029936-0.22303 0.008741-0.22777-0.016107-0.22574-0.016301-0.10081-0.060689-0.22423-0.086212-0.21741-0.10279-0.21047-0.06159-0.11245-0.11915-0.18702-0.12547-0.16701-0.13574-0.1572-0.13976-0.14155-0.14565-0.12753-0.15481-0.11292-0.15973-0.089474-0.14068-0.055781-0.16733-0.046827-0.1561-0.025007-0.31107-0.031812-0.18944-0.037913-0.076805-0.026421-0.12847-0.065147-0.12345-0.08733-0.10841-0.095912-0.10464-0.10914-0.1408-0.17145-0.085481-0.11626-0.10268-0.15071-0.105-0.16665-0.11183-0.18986-0.20422-0.37122-0.62829-1.2154-0.22363-0.41642-0.39623-0.69665-0.55209-0.92306-0.20716-0.38192-0.14392-0.30502-0.13267-0.33786-0.23565-0.68208-0.48023-1.3357-0.13307-0.38691-0.30777-0.93586-0.14715-0.41358-0.18794-0.47767-0.12324-0.28426-0.079503-0.16714-0.085718-0.16401-0.15869-0.26524-0.17198-0.25627-0.34717-0.48903-0.15502-0.22882-0.23755-0.37687-0.060933-0.08113-0.045387-0.041024-0.02472-4.42e-4 -0.033734 4.63e-4 -0.078511 0.01726-0.27034 0.083445-0.17588 0.067189-0.13593 0.059169-0.13406 0.066102-0.12945 0.073479-0.14773 0.098075-0.2789 0.20441-0.13897 0.093014-0.14422 0.078-0.14733 0.056401-0.154 0.040767-0.15868 0.029315-0.16176 0.021301-0.71631 0.060194-0.32307 0.038903-0.15429 0.029161-0.14704 0.039218-0.091061 0.032755-0.086111 0.039836-0.10405 0.064588-0.093021 0.078039-0.10308 0.1163-0.56556 0.74468-0.4105 0.51956-0.2454 0.28017-0.19538 0.19209-0.10099 0.086416-0.10292 0.078729-0.1202 0.081411-0.15472 0.09255-0.19864 0.10309-0.1841 0.082548-0.26425 0.10156-0.21451 0.069285-0.23135 0.063905-0.40617 0.1011 0.014824-0.091117-0.055145-0.17936-0.11315-0.22367-0.12745-0.18839-0.1522-0.1913-0.47795-0.54255-0.16235-0.19718-0.19747-0.27617-0.08705-0.14061-0.11422-0.2123-0.054355-0.11951-0.058531-0.14688-0.15212-0.42837-0.08129-0.21303-0.11473-0.25416-0.072014-0.13558-0.14455-0.231-0.090572-0.12516-0.21522-0.27924-0.048396-0.068186-0.088622-0.14148-0.077248-0.15392-0.04535-0.11742-0.038534-0.13438-0.025774-0.16082-0.002871-0.092803 0.005429-0.074768 0.010384-0.060398 0.044376-0.13472 0.095177-0.17393 0.039266-0.057804 0.13589-0.17624 0.14651-0.16886 0.40877-0.44575 0.10271-0.11989 0.13759-0.18456 0.066193-0.11758 0.04404-0.14778-3.5e-5 -0.080097-0.011943-0.060732-0.020356-0.057132-0.026799-0.052574-0.059472-0.0796-0.032076-0.030728-0.045262-0.033235-0.057223-0.028534-0.045703-0.014375-0.076381-0.012234-0.10423-0.00162-0.084411 0.006163-0.16638 0.022931-0.14214 0.026785-0.21765 0.051989-0.70927 0.21615-0.45332 0.13064-0.17646 0.038763-0.20039 0.026712-0.25173 0.013514-0.28937-0.003294-0.41928-0.029385-0.25888-0.03352-0.13382-0.028888-0.099658-0.029693-0.095532-0.035624-0.12162-0.054816-0.15449-0.084856-0.15422-0.094854-0.15303-0.10329-0.10724-0.083198-0.16062-0.14974-0.078509-0.090922-0.074498-0.10289-0.04053-0.065081-0.071965-0.13802-0.035665-0.082263-0.042635-0.11839-0.022971-0.077317-0.039778-0.16937-0.018816-0.10919-0.022119-0.19613-0.010885-0.28373-4.21e-4 -0.75971-0.013291-0.235-0.02107-0.19238-0.054904-0.32953-0.06599-0.30638-0.2059-0.77489-0.04202-0.18101-0.024643-0.15255-0.007511-0.15822 0.032938-0.18832 0.074037-0.14319 0.14384-0.16234 0.19313-0.15338 0.18499-0.12125 0.14159-0.084969 0.67849-0.39017 0.30405-0.18468 0.35699-0.23344 0.28723-0.20759 0.30071-0.24037 0.21836-0.19356 0.074644-0.076836 0.015439-0.036093-0.17326-0.31791-0.1262-0.25263-0.16959-0.29576-0.05026-0.096396-0.032222-0.079358-0.015903-0.055355-0.012477-0.1169-0.11062 0.06862-0.12547 0.069068-0.29926 0.15461-0.90601 0.429-0.098588 0.054037-0.42364 0.25729-0.24464 0.14267-0.48866 0.27048-0.47628 0.2522-0.45207 0.27117-0.23646 0.13469-0.34736 0.17728-0.1733 0.07957-0.234 0.096635-0.19353 0.066892-0.2872 0.083929-0.18216 0.071668-0.11665 0.039305-0.12581 0.025087-0.099615 0.00669-0.12201-0.007548-0.12533-0.023469-0.12484-0.040734-0.074931-0.03443-0.13728-0.079185-0.35588-0.2448-0.15794-0.10106-0.22427-0.12246-0.2268-0.11603-0.21402-0.095075-0.38872-0.16201-0.18857-0.063222-0.36918-0.11346-0.12324-0.046369-0.18366-0.086418-0.16832-0.094705-0.16515-0.11227-0.14887-0.12585-0.091229-0.091806-0.12778-0.14671-0.090113-0.11609-0.34497-0.49374-0.22155-0.27562-0.11742-0.16399-0.10633-0.17388-0.09165-0.1802-0.072509-0.18323-0.04788-0.18309-0.017747-0.14578-0.00298-0.12006 0.010598-0.33363-0.014987-0.16016-0.029488-0.15486-0.059674-0.24006-0.017411-0.094371-0.005648-0.090412 0.007884-0.11132 0.044046-0.25643 0.013382-0.10861 0.001945-0.11298-0.02535-0.17025-0.055044-0.17681-0.079304-0.17875-0.088651-0.15979-0.10023-0.15561-0.088007-0.12312-0.090944-0.11726-0.21703-0.25816-0.086933-0.1155-0.054898-0.092626-0.037599-0.089674-0.015999-0.067645-0.003074-0.05911 0.003018-0.028961 0.015941-0.055706 0.020894-0.039309 0.054988-0.06319 0.064267-0.060287 0.068105-0.08373 0.046931-0.10558 0.009622-0.073753-0.00575-0.078008-0.020271-0.081399-0.057887-0.14416-0.083397-0.14524-0.10687-0.13226-0.092704-0.079042-0.15541-0.082176-0.18932-0.062309-0.21505-0.047222-0.23433-0.035967-0.2486-0.027772-0.52544-0.040243-0.71712-0.038946-3.4134-0.16175-1.3125-0.068696-1.0572-0.064938-2.331-0.15603-2.5535-0.14909 0.028977-0.008841 0.053091-0.04682 0.092407-0.10417 0.11211-0.14833 0.18152-0.27312 0.08524-0.14325 0.21102-0.3822 0.10575-0.17414 0.1162-0.14867 0.067981-0.065279 0.10019-0.073717 0.086365-0.049536 0.11239-0.053339 0.75839-0.30564 0.25373-0.11359 0.11347-0.060664 0.11705-0.073552 0.33028-0.23541 0.15753-0.099889 0.12832-0.075997 0.40041-0.21838 0.15403-0.093387 0.14208-0.10428 0.12483-0.12035 0.10235-0.13554 0.074814-0.14982 0.027162-0.087098 0.018177-0.091769 0.010068-0.11208-0.001959-0.1198-0.013767-0.12395-0.023623-0.12303-0.047414-0.17676-0.050925-0.15909-0.077334-0.21194-0.072214-0.17336-0.098894-0.21435-0.16392-0.31875-0.31039-0.55259-0.06934-0.13425-0.12493-0.26866-0.091426-0.24088-0.056277-0.21231-0.024476-0.20008 0.010129-0.20201 0.042148-0.19491 0.042382-0.12153 0.052343-0.11491 0.096606-0.16112 0.17467-0.22429 0.13326-0.1817 0.098367-0.15594 0.022266-0.067393-0.086782-0.018988-0.10572-0.048303-0.12355-0.071041-0.12905-0.089522-0.17413-0.15436-0.14013-0.18115-0.026653-0.048168-0.041875-0.09923-0.042589-0.20091-0.009247-0.21286 0.004293-0.44594-0.024569-0.22792-0.067878-0.24271-0.10514-0.24271-0.1329-0.24177-0.15326-0.24019-0.16813-0.23811-0.17907-0.23557-0.18735-0.23255-0.19394-0.22892-0.19962-0.22451-0.20501-0.21908-0.21058-0.21234-0.60907-0.57132-0.19433-0.19163-0.18221-0.19801-0.16436-0.20831-0.14882-0.23344-0.12788-0.24457-0.11183-0.25113-0.099314-0.25357-0.089132-0.25211-0.044644-0.13763-0.064228-0.24299-0.047863-0.24776-0.032343-0.24894-0.016483-0.24643 9.1e-4 -0.23992 0.019728-0.21586 0.042981-0.19802 0.12874-0.41391 0.045748-0.1837 0.020247-0.12299 0.009392-0.14053-0.009683-0.13874-0.021701-0.10097-0.023998-0.074458-0.041734-0.09871-0.045343-0.086709-0.04897-0.081108-0.12352-0.17765-0.134-0.17928-0.1499-0.21371-0.12799-0.22868-0.071293-0.1811-0.049437-0.18523-0.032665-0.22489-0.005439-0.20196 0.016791-0.15467 0.037595-0.074969-0.048473-0.00561-0.12303-0.02596-0.25726-0.065737-0.22616-0.067278-0.27884-0.092777-0.21705-0.078655-0.33362-0.13233-0.23452-0.10194-0.29991-0.13861-0.24361-0.1249-0.29414-0.16749-0.32435-0.20063-1.2041-0.7751-0.32958-0.21844-0.51103-0.36975-0.25531-0.19286-0.20991-0.1722-0.36227-0.33152-0.18236-0.18185-0.10437-0.11837-0.10268-0.13542-0.098719-0.15788-0.071208-0.14394-0.032962-0.083664-0.03918-0.12895-0.042427-0.22684-0.016218-0.18004-0.005025-0.16 0.001899-0.16076 0.016916-0.2813 0.036605-0.29802 0.04699-0.23916 0.084132-0.32071 0.041642-0.18475 0.021964-0.17699 1.23e-4 -0.09985-0.01775-0.16075-0.053304-0.214-0.057334-0.15247-0.072494-0.15041-0.11169-0.18281-0.050942-0.070245-0.2218-0.25258-0.21647-0.20048-0.25369-0.20423-0.27792-0.19832-0.15896-0.10512-0.32316-0.20032-0.24962-0.14625-0.89776-0.50335-0.39866-0.2105-0.7648-0.37636-0.21292-0.11124-0.13446-0.076404-0.18428-0.1169-0.092816-0.067097-0.090247-0.073637-0.078312-0.080211-0.012912-0.02246 0.001316-0.016829 0.30249-0.23877 0.17002-0.14434 0.17553-0.16118 0.17146-0.17423 0.15658-0.17971 0.14522-0.18674 0.13367-0.19086 0.12172-0.19302 0.10878-0.19396 0.09401-0.19424 0.07634-0.19428 0.054485-0.19438 0.026912-0.19479-0.006164-0.20636-0.034529-0.20688-0.054719-0.20708-0.06881-0.20707-0.078365-0.20692-0.4353-1.0268-0.079724-0.20164-0.070927-0.19891-0.057918-0.19496-0.039292-0.1893-0.013162-0.1813 0.02294-0.17009 0.064321-0.1508 0.098635-0.13806 0.080113-0.08532 0.099592-0.089543 0.11641-0.09164 0.39732-0.29064 0.075092-0.066477 0.069011-0.079716 0.045743-0.087829 0.017499-0.12626-0.022034-0.14129-0.054508-0.15274-0.081508-0.16082-0.10423-0.16549-0.13054-0.1765-0.14488-0.1748-0.15154-0.16884-0.4108-0.42334 0.080252-0.16928 0.10832-0.18608 0.1204-0.17934 0.10874-0.13008 0.079702-0.079337 0.097748-0.081202 0.07509-0.052256 0.27608-0.17306 0.12897-0.10268-0.018115-0.062662-0.017908-0.14658-0.011851-0.312-0.030532-0.54579-0.007101-0.30018 0.012393-0.29476 0.03236-0.29078 0.045792-0.26167 0.047626-0.21012 0.089104-0.31612 0.084708-0.24719 0.068345-0.17481 0.080459-0.18516 0.10554-0.21711 0.075713-0.14121 0.14185-0.24117 0.24446-0.3714 0.1962-0.27052 0.22098-0.2831 0.70189-0.84006 0.17454-0.21742 0.16214-0.21756 0.13785-0.20796 0.11606-0.20952 0.087182-0.21176 0.04939-0.2148 0.007905-0.14226-0.009082-0.14353-0.034185-0.19878-0.042567-0.16497-0.049235-0.15585-0.068217-0.18001-0.27634-0.62031-0.081804-0.19087-0.055565-0.15208-0.037683-0.1352-0.029585-0.1574-0.014553-0.13725-0.003807-0.1215 0.003991-0.13108 0.016314-0.19016 0.071703-0.53214 0.024033-0.25872 0.007676-0.30923-0.001433-0.19468-0.013805-0.3166-0.01574-0.17977-0.057237-0.50293-0.017092-0.2211-0.008772-0.19788-0.001169-0.20361 0.007345-0.18216 0.017524-0.20939 0.041274-0.3695 0.043685-0.255 0.063825-0.27328 0.14534-0.54593 0.038849-0.18173 0.029123-0.1723 0.036574-0.27415 0.080328-0.66082 0.044689-0.28258 0.080288-0.36847 0.076171-0.26996 0.090062-0.26228 0.057774-0.14439 0.093863-0.19908 0.10949-0.19076 0.16355-0.22467 0.19978-0.20693 0.28389-0.23396 0.31202-0.21931 0.23646-0.14807 0.19308-0.11266 0.56756-0.31645 0.26876-0.15823 0.297-0.19442 0.097858-0.072547 0.16772-0.14282 0.083544-0.082844 0.085033-0.094006 0.093834-0.11776 0.074832-0.10887 0.059031-0.10333 0.038835-0.093758 0.009212-0.058468-0.013526-0.030377-0.057895-0.046001-0.11334-0.11517-0.19456-0.2142-0.27974-0.32043-0.50142-0.61298-0.16292-0.22763-0.076427-0.12937-0.077407-0.16868-0.052787-0.15063-0.16474-0.63931-0.042062-0.12395-0.044721-0.10385-0.047813-0.088609-0.085659-0.11961-0.062906-0.066403-0.11478-0.097418-0.10705-0.075988-0.19902-0.124-0.40082-0.22989-0.64869-0.3256-0.18748-0.1002-0.19956-0.11749-0.25906-0.17384-0.14598-0.1148-0.11738-0.10905-0.16354-0.18056-0.24189-0.29263-0.057666-0.078757-0.045205-0.074719-0.023197-0.048978-0.025785-0.078316-0.013424-0.086929 0.0024-0.1075 0.013032-0.077426 0.083186-0.26975 0.019248-0.08767 0.012063-0.10769-0.001026-0.1151-0.017221-0.31179-0.017705-0.11258-0.026216-0.093967-0.055485-0.12083-0.062527-0.097659-0.049257-0.062362-0.08055-0.083255-0.10498-0.08832-0.12657-0.092229-0.21115-0.13793-0.079338-0.044662 0.00906-0.044221 0.029662-0.070525 0.096881-0.1841 0.12176-0.18483 0.093642-0.11743 0.16963-0.18456 0.08783-0.083509 0.16478-0.14217 0.22811-0.16384 0.11356-0.067118 0.14898-0.075839 0.48568-0.22717 0.13598-0.061511 0.67402-0.28095 0.21534-0.10186 0.1517-0.081522 0.13752-0.090255 0.13565-0.11694 0.33654-0.36018 0.095208-0.082824 0.14973-0.084334 0.10613-0.026193 0.11174-0.008738 0.34061 0.003804 0.099696-0.007671 0.098594-0.018786 0.12819-0.047304 0.12227-0.070223 0.11776-0.092895 0.1055-0.10974 0.074352-0.1001 0.060679-0.10904 0.055182-0.15121 0.038505-0.16225 0.082585-0.45472 0.024653-0.21883 0.025224-0.39045 0.003781-0.48194 0.013153-0.38548 0.087783-1.0284 0.039524-0.35738 0.026882-0.17597 0.056415-0.27897 0.23496-0.95981 0.11128-0.52333 0.0326-0.2129 0.034986-0.53453 0.047588 0.012517 0.071489 0.031095 0.14346 0.070992 0.23049 0.12768 0.51299 0.3156 0.73195 0.47329 0.25136 0.16975 0.24886 0.17881 0.61727 0.47692 0.21294 0.15808 0.70893 0.4864 0.25051 0.16435 0.82914 0.4784 0.2806 0.18048 0.21772 0.15549 0.11267 0.089639 0.10537 0.092655 0.097903 0.097695 0.086334 0.10123 0.09256 0.14013 0.061513 0.14761 0.027447 0.1851-0.009511 0.19362-0.031194 0.19908-0.075795 0.39414-0.077242 0.34461-0.039182 0.20185-0.014637 0.2016 0.020318 0.19339 0.045639 0.19458 0.11835 0.39536 0.071271 0.29842 0.01838 0.13036 0.011426 0.13308 0.019405 0.52251 0.023942 0.46629-8.94e-4 0.22947-0.041936 0.7349-0.006658 0.19376 0.01147 0.1768 0.030335 0.13772 0.047386 0.11904 0.067986 0.12145 0.064982 0.095689 0.17839 0.22471 0.18694 0.21375 0.58997 0.64931 0.63809 0.7122 0.28173 0.30033 0.30084 0.30872 0.048111-0.014161 0.093243-0.009849 0.12106-7.7e-4 0.2416 0.024037 0.31781 0.043018 0.19668 0.045998 0.19029 0.079092 0.099094 0.054877 0.11948 0.085955 0.058992 0.052759 0.05987 0.065166 0.055669 0.081827 0.052237 0.1121 0.08645 0.25114 0.088468 0.21907 0.079256 0.16733 0.07328 0.13936 0.1224 0.20592 0.15082 0.21674 0.24017 0.28735 0.3987 0.44374 0.15323 0.12707 0.14026 0.07638 0.131 0.037835 0.15196 0.007222 0.16076-0.019678 0.53122-0.11907 0.19406-0.026547 0.17681-0.004826 0.13744 0.007511 0.14287 0.016324 0.17281 0.030761 0.23335 0.062509 0.19492 0.074971 0.2023 0.10358 0.37183 0.22124 0.20798 0.097023 0.16024 0.048062 0.49948 0.10303 0.15066 0.042831 0.20753 0.073747 0.11059 0.044871 0.47329 0.20488 0.20265 0.074452 0.19473 0.055379 0.20887 0.038539 0.17928 0.013011 0.16151-0.006584 0.16659-0.027644 0.2333-0.078337 0.22229-0.11388 0.20973-0.13803 0.17181-0.13659 0.18291-0.18731 0.13022-0.17968 0.091545-0.18812 0.06098-0.19151 0.033723-0.17735 0.006352-0.084735-0.006444-0.030585 0.014678-0.019744 0.040867-0.024499 0.1311-0.053353 0.21535-0.059509 0.1873-0.03534 0.18212-0.01928 0.097154-0.004276 0.22444 0.003979 0.13625 0.011255 0.25774 0.039768 1.2457 0.26746 0.21833 0.044415 0.21258 0.034438 0.20571 0.019337 0.46684 0.006802 0.14516 0.009428 0.1744 0.02401 0.14913 0.031899 0.12156 0.03324 0.19056 0.063888 0.17279 0.06939 0.20639 0.096504 0.13699 0.072509 0.13223 0.077258 0.15301 0.10034 0.1418 0.10705 0.34667 0.29798 0.54678 0.4293 0.14812 0.1262 0.13123 0.13294 0.097923 0.12404 0.18628 0.25254 0.10431 0.11351 0.16268 0.14498 0.080332 0.062579 0.41246 0.29954 0.3815 0.26368 0.38978 0.24211 0.27168 0.15334 0.67131 0.35989 0.43231 0.23793 0.29469 0.17278 0.19866 0.12417 0.11744 0.078481 0.054398 0.045725 0.067608-1.26e-4 0.1378-0.02411 0.14217-0.048061 0.13006-0.066599 0.1191-0.076089 0.15992-0.11852 0.48425-0.4049 0.11565-0.085318 0.10577-0.063884 0.060575-0.028961 0.10986-0.034302 0.05542-0.005901 0.06921 0.005313 0.069552 0.016731 0.069816 0.025141 0.14025 0.066938 0.2118 0.12232 0.54634 0.33413 0.23149 0.12286 0.17627 0.070069 0.32186 0.089275 0.073354 0.026196 0.038217 0.019402-3.86e-4 -0.006587 0.017461-0.020614 0.090737-0.085131 0.36711-0.31502 0.45468-0.36832 0.7921-0.62565 0.20703-0.17203 0.23168-0.2067 0.22659-0.21948 0.18187-0.18976 0.15324-0.17241 0.1518-0.18847 0.11582-0.16437 0.085469-0.1368 0.085397-0.16183 0.042293-0.1009 0.023407-0.070194 0.027652-0.1263 0.008223-0.15878-0.005239-0.082131-0.031691-0.22813-0.031012-0.16363-0.059162-0.21656-0.079149-0.22722-0.093309-0.23396-0.10295-0.23721-0.17057-0.36631-0.24194-0.48166-0.14946-0.26386-0.15638-0.23802-0.10218-0.12631-0.077991-0.078027-0.096236-0.076968-0.13247-0.084908-0.36704-0.19475-0.1652-0.099002-0.09193-0.071165-0.11656-0.12977-0.080457-0.14957-0.044317-0.17502-0.014582-0.16492 0.008356-0.17267 0.032881-0.21851 0.17202-0.79242 0.051643-0.16184 0.06537-0.1444 0.05642-0.091708 0.10217-0.10187 0.10616-0.055934 0.11872-0.03636 0.21747-0.047613 0.12493-0.035434 0.10519-0.043018 0.20411-0.099885 0.083701-0.029766 0.055852-0.010871 0.090152-7.05e-4 0.09308 0.018043 0.088217 0.032331 0.091287 0.042863 0.38831 0.20241 0.33062 0.15572 0.40842 0.21142 0.14363 0.06902 0.13406 0.061484 0.20513 0.082107 0.27887 0.12989 0.41655 0.20902 0.15245 0.081584 0.31782 0.18243 0.15447 0.08064 0.14242 0.065559 0.1931 0.071991 0.16999 0.034581 0.098034 0.008167 0.1187-9.91e-4 0.14144-0.017047 0.16205-0.040877 0.21431-0.081361 0.48533-0.23566 0.24968-0.11327 0.25761-0.10752 0.69122-0.27424 0.16987-0.062823 0.27424-0.083482 0.11109-0.028219 0.25254-0.048696 0.21609-0.026405 0.20529-0.014241 0.20627-0.005217 0.56031 0.005011 0.64813-0.027853 0.29486-0.001747 0.2994 0.010761 0.30158 0.024425 0.31474 0.042542 0.30978 0.063204 0.29917 0.088465 0.28118 0.11919 0.24184 0.14162 0.21859 0.15746 0.35772 0.29078 0.093607 0.069838 0.067117 0.040208 0.044102 0.017286 0.014085-0.007535 0.16878-0.094355 0.1265-0.083785 0.11947-0.092586 0.14689-0.13727 0.073563-0.08416 0.088472-0.12072 0.11294-0.16869 0.09917-0.1677 0.064507-0.14456 0.0371-0.13137 0.022662-0.15224 0.02543-0.32997 0.02264-0.18315 0.052315-0.25983 0.058211-0.20659 0.073202-0.19552 0.081945-0.1793 0.062903-0.12081 0.21665-0.38591 0.043262-0.084438 0.028004-0.072508 0.011553 0.009828 0.026806 0.11348 0.24729 1.4633 0.047614 0.2344 0.04348 0.17201 0.04229 0.14239 0.05541 0.16141 0.067715 0.16914 0.050615 0.11182 0.10642 0.20599 0.14087 0.22724 0.099286 0.13246 0.059091 0.068629 0.090167 0.091377 0.074907 0.064884 0.1053 0.077056 0.073545 0.046342 0.12323 0.06763 0.10563 0.050581 0.22246 0.090782 0.1548 0.052877 0.19614 0.056773 0.27137 0.064685 0.42897 0.084443 0.42169 0.0693 0.29601 0.03659 0.16384 0.014121 0.12978 0.007273 0.26428 7.71e-4 0.19427-0.015404 0.12448-0.018742 0.12867-0.027537 0.19994-0.05943 0.23266-0.082643 0.23134-0.091796 0.1253-0.054151 0.19677-0.099775 0.18617-0.1203 0.088002-0.068341 0.080264-0.07147 0.082169-0.085381 0.050696-0.061081 0.088053-0.12541 0.28208-0.47909 0.096494-0.15292 0.72122-1.0546 0.08452-0.13007 0.29441-0.51998 0.1072-0.15489 0.051582-0.061528 0.12121-0.12282 0.079848-0.070513 0.36315-0.29062 0.16749-0.12585 0.10288-0.066184 0.19311-0.097695 0.13956-0.060993 0.14635-0.040787 0.13989-0.008383 0.15012 0.01546 0.19843 0.04928 0.1396 0.052051 0.20182 0.10058 0.082866 0.050298 0.19604 0.13187 0.25996 0.1886 0.23473 0.16033 0.084092 0.051891 0.19703 0.10132 0.20264 0.072707 0.066371 0.01648 0.74416 0.12646 0.12633 0.029102 0.15778 0.047693 0.36659 0.13142 0.16618 0.068077 0.16388 0.082888 0.15689 0.090764 0.13329 0.083381 0.12735 0.09261 0.11867 0.099445 0.19647 0.1904 0.29348 0.27037 0.11842 0.12917 0.10922 0.14438 0.21699 0.32738 0.10937 0.14941 0.1854 0.21878 0.19407 0.17761 0.16562 0.11018 0.16999 0.062977 0.022579 0.003909 0.10033 0.005213 0.11298-0.013143 0.078687-0.018069 0.12632-0.041135 0.36132-0.14827 0.15199-0.069478 0.033558-0.010681 0.011866 0.002261 0.024383-0.037827 0.007294-0.10101-0.071002-1.1209-1.85e-4 -0.24854 0.03587-0.31946 0.013798-0.065299 0.050498-0.18291 0.039104-0.11361 0.095405-0.23022 0.1192-0.23648 0.13399-0.22509 0.14669-0.21053 0.15851-0.19215 0.17058-0.1691 0.18394-0.14031 0.15149-0.086441 0.32203-0.15167 0.22211-0.11238 0.45692-0.25988 0.47514-0.28916 0.98116-0.61456 0.69742-0.44765 0.46582-0.31173 0.23811-0.16869 0.228-0.1721 0.12517-0.10056 0.22194-0.19042 0.23098-0.21293 0.22554-0.21962 0.44044-0.45237 1.2962-1.383 0.21939-0.22279 0.22276-0.21582 0.22767-0.20558 0.23464-0.19096 0.24433-0.17046 0.25761-0.14219 0.2642-0.1044 0.2767-0.077553 0.28589-0.057606 0.29249-0.042834 0.29707-0.031818 0.30002-0.023374 0.6036-0.026807 0.30117-0.003955 0.29905 0.003392 0.2954 0.012642 0.28984 0.024826 0.28182 0.041169 0.20445 0.043439 0.27265 0.075096 0.16084 0.05989 0.15593 0.071143 0.11873 0.062952 0.1377 0.08233 0.5495 0.37572 0.17198 0.1027 0.14928 0.065805 0.12289 0.032163 0.052729 0.007184 0.18146-0.003828 0.18896-0.040916 0.14094-0.048661 0.14431-0.062122 0.23557-0.12167 0.2596-0.15494 0.39-0.25677 0.33249-0.2305 0.39121-0.28043 0.47318-0.34897 0.062067-0.038439 0.11284 0.16443 0.076213 0.12476 0.081815 0.14804 0.11897 0.24654 0.098841 0.23481 0.082941 0.21857 0.066074 0.19741 0.044289 0.16084 0.036523 0.16077 0.041005 0.22369 0.082387 0.71204 0.018969 0.3038-0.003104 0.40246 0.010372 0.16135 0.02856 0.16823 0.11708 0.52686 0.072985 0.4215 0.012138 0.02768 0.058876-0.02534 0.09196-0.029086 0.11485-0.028395 0.12293-0.022166 0.1776-0.018992 0.23973-0.004537 0.19385 0.017469 0.16982 0.037017 0.15759 0.056384 0.055443 0.026787 0.08407 0.0529 0.09362 0.087937 0.078457 0.10544 0.04669 0.079123 0.09355 0.19938 0.088894 0.25135 0.03775 0.15012 0.019156 0.10433 0.022176 0.18249 0.012824 0.2188 0.012349 0.42053 0.018858 0.23657 0.019796 0.10812 0.031108 0.098802 0.036843 0.075069 0.044039 0.069713 0.057747 0.077562 0.11301 0.1191 0.10078 0.081897 0.091847 0.064277 0.11842 0.066687 0.25132 0.12578 0.11898 0.073141 0.078901 0.061967 0.072354 0.065581 0.13917 0.14638 0.21606 0.26333 0.075739 0.076364 0.070124 0.05962 0.090167 0.065383 0.12252 0.074883 0.13094 0.068091 0.16403 0.073607 0.16513 0.065073 0.40136 0.13567 0.29949 0.088057-0.016326 0.02074-0.017775 0.05202-0.014234 0.07092-0.005987 0.080915 0.006336 0.084428 0.024407 0.09259 0.039032 0.089769 0.048 0.086986 0.058595 0.091021 0.066766 0.081342 0.076151 0.07557 0.082444 0.069577 0.086217 0.063029 0.087941 0.055483 0.087947 0.046401 0.12881 0.047919 0.06373 0.014893 0.062954 0.008083 0.061773-0.001286 0.08322-0.020001 0.079789-0.035733 0.07583-0.044845 0.18704-0.12267 0.18154-0.084848 0.063865-0.039741 0.12838-0.10095 0.14355-0.1325 0.30622-0.29797 0.18409-0.15786 0.12754-0.088161 0.081778-0.041149 0.056094-0.018685 0.045479-0.007603 0.032694-8.6e-5 0.065414 0.015102 0.081437 0.042214 0.10843 0.086444 0.12415 0.1306 0.13593 0.17267 0.14595 0.22078 0.091755 0.16658 0.039176 0.084945 0.016981 0.045051 0.003588 0.024648 0.037437 0.24801 0.026586 0.10987 0.023548 0.059457 0.026192 0.040219 0.027561 0.016566 0.020501-0.004538 0.042835-0.038603 0.066282-0.096157 0.35633-0.62487 0.081175-0.15949 0.071047-0.19718 0.0487-0.10252 0.035461-0.048701 0.016673-0.012287 0.012463-0.001913 0.007698 0.006716 0.036437 0.021641 0.10284 0.014621 0.41525-0.004575 0.37752 0.005988 0.45372 0.013509 0.39139 0.025824 0.18724 0.020836 0.20883 0.030613 0.19796 0.037251 0.18329 0.043428 0.3104 0.087108 0.12665 0.02588 0.12064 0.011564 0.092276-5.6e-5 0.16387-0.023287 0.16322-0.054676 0.17765-0.10528 0.10402-0.098306 0.081903-0.11532 0.063658-0.14392 0.094936-0.32262 0.064126-0.18822 0.15126-0.38339 0.088494-0.2108 0.06987-0.13661 0.0814-0.13318 0.087496-0.12323 0.30596-0.4004 0.35817-0.4451 0.13754-0.18174 0.10501-0.15374 0.068635-0.11492 0.082362-0.16739 0.048471-0.13243 0.044271-0.20443 0.018263-0.21341 3.43e-4 -0.21904-0.034361-0.61092-0.004938-0.21552 0.005571-0.14721 0.016801-0.13864 0.04072-0.16502 0.054765-0.15431 0.065252-0.15363 0.07686-0.13751 0.096229-0.1122 0.14306-0.08836 0.16662-0.043175 0.17702 0.001692 0.175 0.04966 0.12192 0.069084 0.11771 0.090787 0.30238 0.28286 0.2144 0.19169 0.13828 0.11462 0.41259 0.32143 0.12318 0.10128 0.17207 0.16637 0.10167 0.11722 0.09357 0.12514 0.12833 0.21521 0.082664 0.19142 0.064203 0.20286 0.059892 0.26953 0.041372 0.26983 0.018471 0.16933 0.050194 0.78811 0.024276 0.22459 0.045706 0.28804 0.0182 0.081383 0.0564 0.19065 0.096166 0.21456 0.11671 0.18853 0.12197 0.15307 0.10844 0.10303 0.073659 0.03026 0.003567-0.016235 0.021533-0.0307 0.056634-0.064229 0.082579-0.082969 0.12345-0.11257 0.16939-0.13813 0.0859-0.063773 0.20762-0.14018 0.19623-0.11793 0.20844-0.11286 0.34262-0.16801 0.73466-0.33636 0.1687-0.088095 0.14126-0.089137 0.070733-0.052014 0.10247-0.085417 0.081914-0.076882 0.41805-0.43441 0.25646-0.2478 0.21686-0.19186 0.30682-0.24707 0.2783-0.20433 0.2702-0.18434 0.28224-0.18041 1.1907-0.73138 0.27997-0.18048 0.31037-0.2132 0.18997-0.13919 0.34491-0.26836 0.54763-0.44203 0.59044-0.49601 0.15712-0.12502 0.15926-0.11841 0.16083-0.1088 0.16206-0.096299 0.16268-0.080589 0.5665-0.2137 0.35125-0.14547 0.10873-0.048673 0.049674-0.031675 6.21e-4 -0.050311-0.039221-0.098105-0.090765-0.16448-0.29359-0.46228-0.14885-0.24532-0.14968-0.29236-0.079778-0.20185-0.055661-0.20808-0.024037-0.12441-0.022567-0.16359-0.02428-0.28319-0.00658-0.47599-0.018727-0.47846 0.00205-0.098841 0.016619-0.18904 0.031475-0.18858 0.0503-0.21737 0.17429-0.60272 0.099714-0.38794 0.046221-0.13269 0.080538-0.16992 0.10269-0.14532 0.053266-0.054157 0.1111-0.082985 0.12353-0.061303 0.15049-0.045149 0.14481-0.017677 0.096204 0.00162 0.13921 0.017637 0.3209 0.070695 0.41224 0.080314 0.082941 0.009412 0.12089 0.002052 0.11426-0.011361 0.081041-0.01657 0.3707-0.11557 0.1385-0.031211 0.13947-0.022659 0.23468-0.024411 0.19969-0.01337 0.98981-0.032465 0.2645-0.022915 0.26563-0.037595 0.26324-0.054421 0.25678-0.07448 0.24543-0.098916 0.17349-0.092713 0.16268-0.10742 0.15095-0.11914 0.10468-0.092371 0.15859-0.15732 0.1231-0.13468 0.11354-0.14143 0.091749-0.13572 0.071293-0.12346 0.061057-0.12257 0.078679-0.19455 0.044334-0.15178 0.004282-0.071335 0.042479 0.005674 0.10211 7.87e-4 0.1406-0.007847 0.34843-0.036985 0.25509-0.012596 0.84186-0.007216 0.59298-0.018696 0.1987-0.012182 0.30767-0.035858 0.17973-0.038651 0.17143-0.054949 0.18504-0.085722 0.16306-0.1116 0.11935-0.11809 0.087695-0.11024 0.14833-0.22264 0.21203-0.35031 0.12783-0.25278 0.22184-0.52398 0.090638-0.16477 0.1026-0.15572 0.11772-0.1481 0.040991-0.044407 0.17585-0.15863 0.19797-0.1262 0.21607-0.1017 0.2243-0.082964 0.2195-0.064102 0.21864-0.036335 0.19471-3.83e-4 0.19146 0.022019 0.11073 0.019203 0.15286 0.032579 0.31006 0.076756 0.15698 0.028231 0.20522 0.015422 0.31551 0.005482 0.14156 0.014446 0.15422 0.023139 0.28302 0.066398 0.11064 0.015353 0.098983-0.007451 0.050909-0.018703 0.049758-0.033191 0.071388-0.089981 0.14327-0.27862 0.063256-0.084605 0.0434-0.047511 0.13672-0.11313 0.15485-0.093319 0.7106-0.3769 0.35666-0.18257 0.1807-0.086957 0.21285-0.095082 0.21018-0.082922 0.20513-0.065978 0.61142-0.14401 0.14369-0.026586 0.21256-0.01724 0.35878 0.013802 0.077419-0.019395 0.02702-0.020617 0.035285-0.081273 0.006555-0.11204-0.002624-0.08384-0.010748-0.088598-0.026541-0.10536-0.067669-0.21237-0.021798-0.13006 0.008456-0.13995 0.056389-0.15933 0.097704-0.16322 0.12902-0.16599 0.21044-0.2238 0.2112-0.20119 0.14026-0.12271 0.1986-0.15428 0.17453-0.11518 0.17916-0.095137 0.18315-0.0684 0.11955-0.027221 0.19247-0.02266 0.18173-0.003447 0.4482 0.019678 0.13516 0.011999 0.45114 0.065441 0.22077 0.017338 0.12441-0.003475 0.31028-0.030739 0.12942-0.020487 0.12779-0.030645 0.13294-0.047948 0.12969-0.062256 0.10624-0.060694 0.71817-0.45791 0.19104-0.11426 0.45321-0.25585 0.22451-0.13708 0.18192-0.12562 0.17619-0.13525 0.17035-0.14348 0.24269-0.2298 0.19985-0.21086 0.15256-0.17073 0.30403-0.35698 0.30192-0.37151 0.17717-0.22731 0.17186-0.23067 0.16421-0.23498 0.15359-0.24059 0.13674-0.24 0.1263-0.24428 0.12819-0.26811 0.11208-0.25156 0.10257-0.25058 0.090321-0.2486 0.074505-0.24546 0.054181-0.24092 0.063203-0.45117 0.053053-0.27138 0.067597-0.24501 0.03352-0.09931 0.055279-0.139 0.069712-0.14962 0.055773-0.10562 0.1348-0.21003 0.11737-0.13784 0.13232-0.11426 0.12711-0.076961 0.17445-0.077535 0.18328-0.064369 0.22812-0.065049 0.15491-0.027375 0.21908-0.019117 0.30032-0.002588 0.73577 0.029763 0.3696 0.007659 0.26063-0.00896 0.1621-0.016392 0.097859-0.015588 0.16799-0.039407 0.22849-0.075827 0.1615-0.066475 0.32067-0.16002 0.089099-0.039689 0.060235-0.020778 0.086451-0.020325 0.078004-0.008118 0.067446 0.00159 0.060117 0.008598 0.090519 0.024329 0.098838 0.039338 0.25099 0.11448 0.091171 0.031068 0.098681 0.023601 0.11837 0.017871 0.12022 0.009198 0.42598 0.011628 0.26344 0.023821 0.27479 0.050611 0.24793 0.074037 0.18095 0.068857 0.56097 0.2458 0.18474 0.072472 0.10888 0.029098 0.038054 9.48e-4 0.004465-0.008996 0.019514-0.021507 0.038698-0.06202 0.038028-0.072111 0.041558-0.09478 0.034884-0.1151 0.010622-0.058505 0.008708-0.10641-0.006851-0.16363-0.050687-0.33834 0.002068-0.10323 0.022672-0.18464-0.00762-0.11356-0.03651-0.12119-0.082207-0.1904-0.049502-0.14637-0.026895-0.13785-0.009141-0.10427 2.88e-4 -0.11625 0.020759-0.16445 0.039414-0.15648 0.075064-0.20488 0.013406-0.005115 0.079313-0.004991 0.17742 0.001594 0.19914 0.021495 0.18985 0.047943 0.19646 0.082648 0.035531 0.019208 0.12642 0.079543 0.15996 0.12248 0.21573 0.19812 0.15636 0.1651 0.14878 0.17472 0.14965 0.19721 0.13444 0.20472 0.11476 0.21186 0.085181 0.20354 0.062241 0.20827 0.037081 0.21164 0.009872 0.22141-0.016861 0.22188" stroke="#bdc660"/>
    </defs>
    <g clip-path="url(#pd635d46e20)">
     <use y="277.874095" fill="#bdc660" stroke="#bdc660" xlink:href="#m8979d86f14"/>
    </g>
   </g>
  </g>
 </g>
 <defs>
  <clipPath id="pd635d46e20">
   <rect x="7.2" y="7.2" width="357.12" height="263.47"/>
  </clipPath>
 </defs>
</svg>
