<svg xmlns="http://www.w3.org/2000/svg" xmlns:xlink="http://www.w3.org/1999/xlink" width="495.4" height="312.6" viewBox="0 0 371.5 234.5"><defs><style>*{stroke-linejoin:round;stroke-linecap:butt}</style></defs><g id="figure_1"><path id="patch_1" fill="none" d="M0 234.5h371.5V0H0z"/><g id="axes_1"><g id="PatchCollection_1"><defs><path id="m5dc4ef61a7" stroke="#f4f4e2" d="m166.5-213.5 2.6 5 .7 1.3.7 1.1.3.6.6.7.5.7.6.6.4.3.4.2.3.1 1 .2.4.1.3.1.4.2.4.3 1 .6.5.3 1.1.5 1 .4.7.3.7.2h.9l.3-.1h.1l.5-.6.4-.8.2-.5.2-.5.4-1.9.2-.3h.3l.7-.5.6-.3.6-.2.6-.1h.7l.7.2.9.3 2.3 1.1.8.4.5.4.6.3.7.7.3.3.4.6.5.5.6 1 1 1.5.4.7.5.6.6.4.4.3.5.2h.4l.4.2h6.4l.8.1.7.1.7.2.5.2.4.1.5.3.5.2.6.4.8.7 1.2 1.1.5.5.5.4.7.4.8.4.8.4.8.2 1 .2h2.3l.6-.1 3-.7 3.5-.8 1-.3.9-.4.6-.3.8-.5.8-.6.7-.6.3-.4.3-.3.6-.8.6-1 .4-.7h.1l.8.1h.4l.4-.2h.3l.4.1 1.6.3 1.8.3v.1l-.2.8-.3 1.5-.2 1-.1.4-.2.4-.7 1.2-.5 1-.3 1-.3.8-.1.4-.5 2.2-.1 1v1.8l.3.9 1.4 3.8.2.4.2.3.3.5.3.3.2.1.5.4.4.1.8.3 1.4.4 2 .4.3.1h.2l.7.2.4.2.5.2 1.4.8.4.3.4.4.4.3.3.5.3.3.2.5.2.5.2.5.2.6.2.9.3 1.8.3 1.8.3 1.4.3 1.7.3 1.8v.3l.2.5.4 1.1.5 1.2 1.1 2.8.4 1 .3.5.6 1 .6.9.9 1.3.4.6v.2h.1l.2.1.2.2.6.6 1.7 2 1.5 1.8.6.6.5.4.4.4.4.3.7.4.8.4.6.2.6.3.7.2.8.1.6.2h.6l.6.1h1.7l.6-.2.9-.3 1.6-.5.6-.2h.3l.4-.1h1.8l.4.2.7.2 3.3 1 1 .4 1.1.2 2.5.6.8.2 1.5.4.8.3.7.3.7.3.6.3.5.3.3.1.2.3v-1.3h.2l.4-.2h.7l.9.1 1 .2 1 .3 1.2.4 2.4.7 2.4.9 1.1.5 1.1.5 1 .5 1 .6.8.6.6.5.4.4.3.4.5.9 1 2.3.3.5.4.4.4.4.7.2h.8l1-.2 1-.3 1-.4 1-.4 1.1-.5 3.5-1.5 9.8-4.6 6.7-3.2 3.9-1.5v.3l.3.4.5.9 1.7 2.8.7 1.3.4.9.5.9.3.9.3.8.1.7v1.6l-.3.8-.6.7-.4.5-.5.4-.5.4-.6.4-1 .6-1 .5-4 2-2 .9-.7.4-.7.5-.6.4-.5.4-.6.6-.5.8-.3 1-.2 1v1l.2 1.2.2 1.2.2 1.3.3 1.2 1 3.8 3 12 2.7 10.3-3.2.4-5.4.5-3.8.4-3.7.3h-.8l-.8.2-.7.2-.7.3-2.5 1.2-.5.2-1 .4-1.1.3-1.2.3-4.3 1-1.9.5-.8.3-.8.2-1.1.4-1 .4-1 .5-1 .6-.6.7-.5.9-.2 1-.2.6v.7l-.1 1.6-.1 1.7v5.6l-.2 1.1-.1 1.1-.2 1-.4 1-.6.7-.7.4-1 .3-1.1.2-1.2.1h-3.7l-2.4.2h-.8l-.3.1-.3.2-.7.2-1 .1h-2l-.6-.2-1-.6-.8-.7-.7-.9-.8-1-.6-1.1-.6-1.2-.6-1.2-.6-1.2-1-2.4-2.7-6-1-2.4-.6-1.2-.6-1-.6-1.1-.6-1-.6-.7-.7-.6-.6-.5-.7-.2h-.4l-.4-.1h-1.2l-.3.2-.4.1-.3.2-.4.3-.4.2-.7.7-2.3 2.3-.7.7-.8.7-1.8 1.3-.4.5-.3.4-.2.7v2.7l.2.3.2.5.3.4.1.1h.2l.3.2h.4l.5-.1.6-.2.4-.1 1-.6.7-.3 1.1-.7.3-.2.3-.1h.3l.1.2v1.3l-.1.7-.3 1.5-.2 1v3.3l.1.4.3.8.3.9.8 2.1.2.7v1.4l-.2.2-.2.1h-.5l-1.1-.4-1.5-.5-.5-.2h-1.2l-.5.1-.6.1h-.6l-.2-.2-.3-.2-.5-.4-.6-.6-.5-.7-.9-1.3-.4-.6-.1-.1h-.5l-.7-.2-.8-.3-.4-.1-.6-.3-1-.6h-.6l-.1.1-.5.7-.2.1h-.1l-.3.1h-1.6l-.3.2-.2.2-.2.3-.2.2-.2.7-.6 2.8-.1 1.5-.1.5-.2.7v.3l-.3.6-.2.4-.5 1 .2 1.6v1.7l-.3.7-.4.8-1.2 2.6-.4.8-.2.4-.2.8v1.9l.1.4.1.4.2.3.3.7.8 1.2.3.5.1.3.1.3v.6l-.1.3-.2.3-.1.4-.5.6-.3.4-.5.6-.9.9-.3.1-2.4 1.2-2.2 1.1-1.8 1-3.4 2-.6.3-1 .6-.6.2-.8.3-1 .3-.8.2h-1l-.8-.2-.8-.3-.7-.4-1.8-1.2-.7-.4-.7-.4-1.5-.7-1-.4-1.2-.5-1.5-.6-1.3-.4-1-.3-2.2-.5-.3-.1h-.7l-1-.1h-.7l-2 .3h-2l-2.2-.2h-1.5l-.5.2-.6.1-1 .5-.8.5-.7.6-1 1-1.2 1.3-2.5 2.8-4.6 5.3-1.8 2-.4.5h-.6l-.7-.2-.7-.4-.6-.3-.8-.5-.5-.4-.4-.4-.9-.8-.4-.5-2.7-3.3-.8-.9-1-1.1-1-1.1-1.1-1-1-.8-.6-.5-.6-.5-1-.5-.8-.5-3-1.6-1.2-.7-1.4-1-1-.6-.8-.7-.8-.6-1.4-1.1-2.6-2.3-.8-.7-1.3-1-1-.7-.6-.5-1-.5-1.1-.6-.6-.3-1.1-.4-1-.3-1.2-.2h-.8l-1-.2H143l-4.3.2h-2.3l-6.8.5h-3.1l-.6-.2-.3-.2-.6-.4-.5-.5-.5-.8-.2-.4-.3-.6-.3-.6-.5-1.3-1.5-4-.8-2-.7-1.5-1.5-3-.7-1.6-.7-1.8-.2-.5-.2-.5-.4-.3-1.5-.8-2.4-1.4-1-.6-.4-.3-.8-.6-.7-.5-.6-.6L107-71l-.4-.4-.5-.3-.5-.4-.8-.6-.7-.5-.9-.5-.8-.4-.4-.1-.7-.2h-.6l-.3.2-.1.2v.2l.2.2.5.4v.7l-.4.3-.3.2-.7.5-.6.2-.4.2-.5.1h-.6l-.7-.1-.7-.3-.6-.3-.6-.4-1-.8-.4-.2-.5-.2-.8-.2-.5-.1-.6-.1h-1.2l-.4.2-.3.1-.4.3-.2.2-.3.3-.4.5-.3.4-.3.5-.3.8-.2.7-.2.7-.5 2.2-.4 1.2-.3.8-.4.7-.4 1-1.7 3-1.2 2.2-.3.7-.2.5v.2l-.2-.1-.2-.1-.3-.1H78l-1.3.4-.9.2-1.1.4-1.8.8-2.8 1.2-1.4.6-1.4.4-.7.2-1 .2-.9.1h-1.2l-.7-.2-.7-.2-.4-.1-.3-.2-.3-.3-.3-.2-.2-.4-.5-.8-.3-.5-.2-.3-.3-.2-.1-.1h-1l-.4.3-.3.3-.7.8-.5.6-2.8 3.7-1.7 2.2-1.9 2.3-.4.7-.4.6-.1.6v.7l.2.5.3.4.2.2.1.1-.1.1h-.4l-.5-.1-.8-.3-1-.4-1.5-.9-.6-.2-.6-.3-.7-.1-.5-.1h-1.2l-.5-.1-.5-.1-.5-.3-.5-.4-.5-.5-.5-.5-.4-.5-.4-.6-.4-.6-.3-.6-.3-.6-.3-.6-.1-.4-.1-.4-.1-1.1v-.3l-.2-.1-.1-.1h-.6l-.3.1-1 .5-.6.2-2.6.5-3 .8-.8.1h-2.6l-.2-.1-.4-.2-.3-.1-.2-.2v-.4l2.7-5.5 1.3-2.7 1.3-2.5.6-1 1-1.8.6-1 .4-.6.8-1 .5-.6.5-.6.7-.7.8-.6.7-.5.9-.5 1-.6 1-.5 1-.4 1-.4 1.8-.7.8-.4.4-.2.8-.6.8-.6.8-.7.8-.8.7-.8.7-.8.5-.8.4-.8.7-1.8.4-.7.4-.9.4-.5.4-.5 1-1.2 2.8-3.1 3.7-4.3 1.6-1.7 1.2-1.3.5-.8.4-.5 2-2.8.3-.4v-.2l.2-.1.3-.1 1.2-.2h.5l.4-.2.4-.3.4-.3.1-.1.7-.7.5-.5.4-.6.3-.5.5-.8.4-.7.3-.3.4-.4.6-.7.7-.7.7-.6.8-.6.6-.3.5-.2.4-.2.9-.2 1.1-.2 1-.1 1-.1h1.4l1 .2h1.2l.5-.1.5-.2.7-.3.6-.3.5-.4.6-.4.3-.2.3-.3.2-.4.1-.3.2-.7v-.7l-.3-1.8v-1.3l.2-.4.3-1v-.4l.1-.5v-1.2l-.3-.5-.3-.7-.3-.6-.3-.5-1.2-1.6-.6-.7-.5-.7-2-2-.6-.8-.4-.5-.1-.3-.4-.8-.1-.5-.1-.4-.1-.5v-.8l.2-.2.2-.1.2-.2.3-.2.4-.2 1.8-.7 1.6-.7 1.5-.8 3-1.6 3-1.5 1.1-.6.5-.3.3-.3.3-.4.2-.3.2-.4v-.7l-.1-.2-.1-.4-.3-.5-.3-.4-1-1.4-.6-.7-.3-.5-.3-.8-.4-.8-.3-1-.3-1.6-.1-.7v-.2l.1-.2.5-.2.3-.1.6-.1.5-.1h2l.8.2 1.3.3h.4l.5.1h.9l.4-.2.4-.3.5-.4.5-.5.8-1.2v-.1l.4-.4.2-.2 2.2-1.5 2-1.6.7-.5.7-.4 2.4-1 2-1 1.2-.5 1.5-.5 1.1-.4.8-.2h.4l1.4-.2 2.2-.1h.6l1.5.1h1.1l1-.3h.7l.5.2 1 .5.4.2 1.5.5.4.2.8.4h.1l1.4.4.4.2.3.2.1.2.1.1v.2h.3l.4-.4.5-.4.5-.4.8-.7.3-.4 2.2-2.6.4-.5.8-.8.8-.7.9-.8 3.2-2.7 1-.7.7-.8.7-.8.5-.8.4-.7.4-1.3.2-.7.2-.7v-2l-.3-1-.7-2.6-.1-.7-.1-.8v-1.5l.2-.2.2-.3.4-.3.9-.4.4-.3.1-.1.2-.2.2-.4.1-.2v-.2l.1-.6v-2.2l.1-.6.2-.8.3-1.4.5-1.5.4-1.2 1-2.6.2-1 .2-.5v-1.5l.3-1 .3-1 .4-1 .6-1.4.5-1 .3-.3.3-.5.6-.7.6-.5.1-.1.6-.3h2.6l.4-.1.2-.2.2-.2.3-.5v-.7l.2-1.6v-.4l.2-1v-.4l.1-1.5v-.6l.2-.5.3-.4.3-.3h.5l.4.1.3.2.3.2.3.3.4.4.6.7.5.9.6.9"/></defs><g clip-path="url(#pb95b38fa9d)"><use xlink:href="#m5dc4ef61a7" y="234.5" fill="#f4f4e2" stroke="#f4f4e2"/></g></g></g></g><defs><clipPath id="pb95b38fa9d"><path d="M7.2 7.2h357.1v220.1H7.2z"/></clipPath></defs></svg>