<svg xmlns="http://www.w3.org/2000/svg" xmlns:xlink="http://www.w3.org/1999/xlink" width="429.5" height="374" viewBox="0 0 322.1 280.5"><defs><style>*{stroke-linejoin:round;stroke-linecap:butt}</style></defs><g id="figure_1"><path id="patch_1" fill="none" d="M0 280.5h322.2V0H0z"/><g id="axes_1"><g id="PatchCollection_1"><defs><path id="mfe19e75420" stroke="#f4f4e2" d="M297.4-242.7h.6l.8-.3h.5v1.1l-.4 1.3-.4 1.2v.6l-.2.5v.4l.1.6.2.3.2.3.1.1.4.3.6.2.4.1.7.2v.2l-.2.5-.1.4-.2.4-.2.3-.8 1.2-.5.8-.3.4-.2.2-.2.3-.5.4-2 1.3-.4.2-.4.3-1.4 1.2-2.6 2-.5.5-.4.5-.4.6-.1.4-.2.4-.2.7-.2.5v.4l.2.4.2.3.1.2.5.3.4.3.3.3.5.7.3.3.7.7.2.3.3.4.1.2.2.5v.8l-.2.4-.1.3-.3.2-.3.1h-.5l-1.1-.3h-1l-.5.1-.5.3-.5.4-.4.5-1 1.6-.3.4-.3.4-.4.3-.6.5-.9.6-.2.2-.3.3-.2.2-.3.4-.2.3-.1.4v.3l-.1.2v1l.2.3.2.4.3.3.4.5.4.4.7.6 1 .9 2.3 1.8.8.7.8.7.8.8.7.8 1.5 1.7.6.7.6.7.5.7.4.6.5 1 .3.8.1.4.1.6v1.4l-.2.7-.2.6-.3.7-.2.5-.3.5-.3.5-.4.7-.4.6-.4.4-.3.4-.5.4-.8.9-.5.4-.7.5-.6.4-.8.5-.5.3-.4.2h-.2l-.4.1h-.3l-.2-.2-.2-.2-.3-1.1-.4-1.2-.4-.8-.7-1.4-.7-1.7-.4-.8-.4-.6-.4-.7-.4-.6-.3-.3-.4-.3-.3-.3-.4-.1-.5-.2h-.3l-.6-.1h-1.3l-.4.1-.4.1-.1.1v.1h-.1l-.1.3-.2.3-.7 2-1 2.5-.4.6-.4.5-.3.3-.6.5-.6.4-.5.3-.4.2-.8.3-1.6.7-.8.4-.8.5-.9.5-.5.4-.5.4-.4.4-.6.6-.5.6v.2l-.2.2-.2.8-.2 1v3l.1 1 .2 1 .2 1 .4 1.5.3 1.3.2.6.4.8.6.8.6.8 1.3 1.5.6.8.6.8.4.9.3.7v2l-.2 2v2l-.2 1.4-.1.7-.2.6-.2.6-.2.6-.5 1-.3.6-.2.7-.2.6v1l.1.2v.2h.3v.2l-.2.1-.3.3-.4.3-.6.5-.4.2-.5.3-.5.2-.4.1h-.5l-.5.1h-.5l-.6-.3-.6-.4-.5-.4-.6-.5-1-1-.7-.8-.2-.2-.4-.2-.4-.1h-.4l-.5.2-.5.4-.4.4-.3.5-.3.5-.2.6v1.2l.1.4.2.5.2.6.5 1 .3.5.1.4.1.3.1.6v.7l-.2.7-.2.7-.4.7-.3.5-.4.5-.4.7-.5.6-.5.6-.9 1-2 2.4-1 1-1 1-.5.5-.8.7-.2.2v.3l.2.2.5.3h.5l.4.1h3.8l.6.1.4.1.5.1.5.2.7.3 1.2.7 1 .5.5.4.4.3.3.2.2.3.3.5v1l-.1.4-.2.6-.3.6-.5.6-.5.6-.5.7-.3.5-.3.5-.3.6-.2.6-.2.6-.2.6-.1.6-.1.6v.6l-.1.6v2.4l.2 1.5v2.3l-.2.6-.2 1.4-.2.7-.5 1.5-.2.7-.1.3-.9 1.7-.3.6-.2.7-.1.5v.5l.1.5.2.1.2.2.4.1.4.1.6.1.6.1 1 .1 1.2.1 2 .1h.6l.6.2.7.1.9.3 1 .4.5.3.5.3.6.6.6.7 3.5 4.3.4.5.4.5.4.7.2.4.2.6v.6l.1.6v1.2l-.2.4-.2.4-.4.9-.5 1-.3.7-.7 1.2-.5.7-1.5 2-.7 1-.4.3-.4.4-.7.6-1 .8-1.6 1.1-.7.5-.6.5-.6.5-.6.6-.2.3-1.5 1.8-1.5 1.6-.4.5-.1.2-.3.6-.2.7-.1.7-.5 3.1-.1.8-.2.8-.3.9-.2.7-.4.8-.9 1.8-.4 1.2-.4 1.2-.2.6v.5l-.1.5v1.6l.1.4.4 1 .3.6.3.5.3.4.2.2.2.1-.5.4-.3.3-.2.2-.2.3-.2.4-.3.5-.7 1.4v.2l-.2.3-.3.3-.3.3-1.5 1.4-.2-.1-.3-.3-.6-.3-.4-.1-.5-.2-.6-.2-1.3-.3-1.5-.5-.5-.2h-.5l-.7-.2-2-.2h-.4l-.7-.2-2-.4-.4-.1h-1.2l-.3.1-.3.3-.2.2-.2.3-.1.4-.1.5-.1 1.6v.3l-.2.5-.1.3-.2.3-.2.4-.4.3-.2.2-.5.3-.4.2-1.3.5-.8.3-.7.3-.8.5-1 .7-1.2.9-1 .8-.8.7-.3.3-.2.3-.3.3v.3l-.3.6v.4l-.2 1.7v.3l-.2.5v.5l-.3.5-.3.6-.3.5-.7 1-.6.8-.7.8-.6.6-.6.5-.4.3-.3.2-.3.2-.3.1-.5.2-.4.1h-.4l-.5.1h-1l-.4-.2-.5-.1-.5-.3-.4-.3-.3-.3-.6-.5-1.6-1.5-.5-.5-.4-.6-.5-.6-.4-.7-.3-.6-.3-.4 1.6-.8.7-.4.7-.5.3-.3.5-.5.3-.4.4-.6.6-1 .4-.8.2-.5.3-.8.2-.6.2-.5v-1.9l-.3-1.4-.2-.8-.2-2v-.7l.1-.4.1-.5.2-.8.5-1.1.7-1.9.2-.6.2-.9v-1.6l-.2-.6-.2-.5-.3-.5-.4-.4-.6-.4-.7-.3-.8-.2-.8-.2H210l-.9.1-.9.2-1 .2-.8.2-2.3.6-.9.2-1 .1h-.4l-1 .1h-.6l-1.2.3h-2.3l-1 .2h-.5l-.6.2h-1.2l-.6-.1-.5-.1-.4-.2-.4-.2-.3-.3-.6-.5-.3-.4-.1-.2-.2-.3-.2-.6-.7-2-.4-1-.5-1-1-1.9-.4-1-.3-.8-.2-.7-.3-.9-.2-.4-.2-.4-.5-.8-.6-.7-1.2-1.4-.5-.6-1-1.1-1.7-1.9-2.5-2.5-.7-.7-.4-.5-.3-.5-.3-.4-1-1.8-.8-1.4-.6-.8-.4-.5-.3-.4-.6-.6-.6-.5-.5-.4-1.2-1-.8-.7-.6-.6-1-1.2-.2-.2-.2-.2-.2-.1-.3-.1h-1.1l-1.2.5-.5.2-.6.1-1.5.4-2 .3-1.7.3h-2.7l-2.4-.2-.4-.1-.6-.1-.6-.2-.8-.2-.4-.2-.3-.1-.3-.2-.4-.2-.3-.3-.4-.3-1.3-1.2-.2-.2h-.2l-.3-.2h-.7v.1l-.1.1h-.1l-.1-.2v-.9l.2-.3.2-.3.2-.4 1.5-1.5.3-.5.2-.3.2-.4.1-.4v-.4l.1-.5v-.8l-.1-.5-.2-.9-.2-.6-2.1-6.8-.2-.6-.2-.7-.2-.9-.1-.4v-1.7l.2-.2.2-.2.3-.4 1.6-1.3.4-.3.8-1 .4-.3.5-.5.3-.2.4-.2.4-.2h.1l-.2-.2-.9-.7-1.2-1-1.8-1.5-1.1-1-.8-.6-1-.7-2-1.3-.8-.4-.8-.4-.8-.4-1-.4-1.6-.5-.8-.2-1.8-.5-1.7-.5-.5-.1-.4-.1h-.7l-.8-.1h-10l-1.5-.2-.6-.1-1.4-.2-.6-.2-.6-.1-1.8-.6-.8-.1-.6-.1-1.5-.2-.7-.1-.2-.1-.4-.2-.6-.4-.3-.4-.3-.7-.2-.6v-.5l-.1-.6-.2-2.1-.2-1.2-.1-1-.5-2.3v-.6l-.1-.8v-.8l.2-.8.2-.7.3-.8.8-2.1.5-1.6.6-1.8.3-1.3.4-1.5.2-1.2v-.9l.1-.6v-2.2l-.3-.7-.3-1-.4-.8-.3-.7-.5-.9-.6-.8-.3-.4-.1-.1h-.1l-.3-.3-.6-.5-2.2-1.5-.4-.3-.3-.3-.7-.7-.7-.7-.2-.3-.6-1-.4-.4-1-1-1.5-1.6-.7-.6-2.2-1.9-.7-.6-.8-.6-.4-.3-.4-.3-.5-.2-.4-.2-1-.4-1.6-.6-.2.3-1.6 2.1-1 1.3-1.7 1.9-.6.7-.8.9-.6.9-.5.7-.4.7-.8 1.3-.7 1.1-1.1 2.2-1 2.2-.5.8-.5.8-.5.8-.5.7-.6.8-.6.7-.7.7-.8.7-3.1 2.8-1.5 1.4-.7.7-.6.7-.7.7-.6.8-.6.8-.4.8-.5.9-.4.9-1 2.3-.1.5-.3.5-.4.6-.5.8-.7.7-.8.7-.6.5-.4.2-.8.5-.5.2-.6.3-1 .4-1 .3-.7.3-.6.1h-.5l-.5.1h-1l-1-.1-.9-.3-1-.3-1-.4-.9-.4-1-.4-2.6-1.4-.8-.4-.8-.4-.8-.3-.9-.2H39l-2.4.4-1 .1H35l-.4.1h-.3l-.5-.1-.4-.2-.3-.3-.2-.2-.4-.6-1-1.5-.2-.4-.5-.7-1.4-1.7-.5-.7-.4-.8-.4-.7-.3-.8-.3-.8-.1-.7-.5-2.6-.3-1.6-.3-.9-.3-1-.3-1-.4-.9-.4-.8-.5-1-.6-1.2-1.2-2-.3-.5-.2-.5-.1-.4-.1-.3-.1-.4v-.9l.2-.2h.4l.5.6.4.4.5.2h.2l.4.1h.2l.2-.2.3-.2v-.1l.2-.2.2-.3.3-.7.2-.6.3-.6.1-.6.1-.5.3-1.4.4-3 .2-1.1v-3.3l-.1-.6-.2-.8-.2-.4-.2-.5-.4-.9-.3-.5-.4-.4-.5-.5-.4-.2-.4-.2-1.2-.5-.5-.3-.3-.2-.3-.1-.5-.5-.2-.2v-.2l-.1-.2v-.2l.1-.3.3-.6 2-4.8.3-.7.2-.6.3-1 .1-1v-6.1l.2-1.1.8-3.2.2-1.2.2-.8v-1l.2-2v-.7l.1-.5.4-1.9v-.7l.1-.8v-.3l-.1-.9-.3-.8-.4-.8-.4-.6-.9-1.3-.3-.6-.4-.8-.3-.9-.3-.8-.2-.9-.1-.8v-1.6l.2-.6.3-.4.4-.5.4-.3h.2l.4-.3.6-.2h2l.4-.2h.3l.3-.2 2.3-1.5.6-.4.7-.3.8-.3 1-.3 1-.2 1.1-.2h.3l.3-.2h.2l.2-.2h.2v-.3l.2-.3v-.4l-.2-.4v-.3l-.3-.2-.2-.4-.3-.2-.6-.3-.4-.1h-1.1l-.4.2-.6.2-.6.2-.6.3-.7.3-3 1.7h-.2l-.2-.3-.2-.3-.2-.5v-.5l.1-.6.3-.5.4-.5 1.6-2 1.5-2 2.4-3.1.4-.5.6-.7.3-.3.4-.2h.1l.2-.1h.6l.2.3.2.2.3.5.4.7.2.3.2.2.3.2.3.2.3.1.6.2.7.1h1.7l1-.2.5-.2 1.2-.4 1.3-.4 2.4-1.1 1.5-.7 1-.3.7-.2 1.1-.3h.6l.6-.1h1l.3.1.1.1h.1v.1l.1-.2.2-.4.3-.6 1-1.8 1.4-2.7.4-.8.4-.7.2-.6.4-1.1.4-1.9.1-.6.2-.6.3-.6.2-.5.3-.4.3-.4.3-.2.2-.2.3-.2.3-.2h.4l.5-.1h.9l.5.1.7.2.4.2.4.2.9.7.5.3.5.3.6.2h.6l.5.1h.4l.4-.2.5-.3.6-.3.3-.2.3-.3v-.6l-.4-.4-.2-.1v-.3l.4-.2h.4l.6.1.5.2.6.3.8.4.6.4.7.5.4.4.4.3.4.3 1.5 1.5.5.5.6.5.6.4.4.3.9.5 2 1.2 1.3.7.4.2v.1l.2.4.1.4.7 1.6.6 1.3 1.2 2.7.7 1.3.6 1.7 1.3 3.5.5 1 .2.6.3.5.2.3.4.7.5.5.5.3.2.2.5.1.7.1h2l5.9-.4 2-.1 3.7-.1h3l.7.1 1 .2.8.3 1 .3.5.2 1 .6.8.4.6.4.9.7 1 .8.8.6 2.2 2 1.2 1 .7.5.7.6.8.5 1.3.8 1 .6 2.6 1.4.7.4.8.5.6.4.6.5.7.6 1 .9.9 1 .9 1 .6.7 2.3 2.8.4.5.7.7.4.3.5.3.6.5.5.3.7.3.6.2h.4l.4-.4 1.5-1.8 4-4.5 2.2-2.5 1-1.1.9-.9.6-.5.7-.4.9-.4.5-.2h5.3l1.7-.2h2.1l.3.1 1.9.5.9.3 1.1.3 1.3.5 1 .4 1 .4 1.1.6.7.4.5.3 1.6 1 .7.4.6.2.7.2h.8l.7-.1 1-.3.6-.3.5-.2 1-.4.5-.3 2.9-1.7 1.5-.9 1.9-1 2-1 .4-.1.7-.8.5-.5.2-.3.4-.6.2-.3v-.3l.2-.2v-.8l-.1-.2-.3-.5-.7-1-.3-.6-.1-.3-.1-.3-.1-.4v-.5l-.1-.3v-.2l.1-.6.2-.7.1-.3.4-.8 1-2.2.3-.7.2-.6.1-.5v-1l-.2-1.3.5-.9.1-.3.2-.6.1-.3.2-.5v-.5l.2-1.3.5-2.4.2-.5v-.3l.2-.2.2-.2h.3l.1-.1h1.5l.1-.1.2-.2.4-.5h.1v-.1h.4l1 .5.5.3h.4l.7.3.6.1h.3l.2.2.4.5.7 1 .5.7.4.5.5.4.2.2h.3l.4.1h.5l.5-.2h1l.4.2 1.3.5 1 .3h.6l.1-.2.1-.4v-.8l-.2-.6-.7-2-.3-.6-.2-.8v-.3l-.1-.6v-2.3l.2-.8.2-1.3.1-.6.1-.7v-.4l-.1-.2h-.6l-.2.2-1 .7-.6.3-.8.4-.4.1-.5.2h-1.2l-.1-.2-.3-.3-.2-.5v-.2l-.1-.6v-1.8l.2-.5.2-.4.4-.4 1.5-1.2.7-.6.7-.6 2-2 .5-.5.3-.2.4-.3.2-.1.4-.2h.2l.3-.1h1.5l.5.3.6.4.6.5.5.6.6.8.5 1 .5.9.5 1 .9 2 2.2 5.3 1 2 .5 1.1.5 1 .5 1 .6 1 .6.9.7.7.7.7.8.4.5.2h2.6l.6-.2.3-.2h.2l.7-.1h2.1l2-.1h1.2l1-.1 1-.2.8-.2.6-.5.5-.6.3-.7.3-1v-.9l.2-1v-6.2l.2-1.4v-.6l.1-.6.3-.8.3-.8.6-.6.8-.5.8-.4 1-.4 1-.3.6-.2.7-.2 1.6-.4 3.8-1 1-.2 1-.3.8-.3.5-.2 2.1-1 .6-.3.6-.2.7-.1h.7l3.2-.3 3.3-.3 4.6-.5 2.8-.3 7.9-1v.2l-.2 2v2.2l-.1 1.1v3.2l.2 1 .1 1 .3.8.5.7.4.4.5.3.4.2.4.2.7.3 2.4.9.5.2.6.3.5.2.7.4.5.4.3.3.3.4.3.4.2.4.2.6.1.3.2.2"/></defs><g clip-path="url(#p5160590da2)"><use xlink:href="#mfe19e75420" y="280.5" fill="#f4f4e2" stroke="#f4f4e2"/></g></g></g></g><defs><clipPath id="p5160590da2"><path d="M7.2 7.2H315v266.1H7.2z"/></clipPath></defs></svg>