<svg xmlns="http://www.w3.org/2000/svg" xmlns:xlink="http://www.w3.org/1999/xlink" width="495.4" height="330.5" viewBox="0 0 371.5 247.9"><defs><style>*{stroke-linejoin:round;stroke-linecap:butt}</style></defs><g id="figure_1"><path id="patch_1" fill="none" d="M0 247.9h371.5V0H0z"/><g id="axes_1"><g id="PatchCollection_1"><defs><path id="m1cbe428887" stroke="#f4f4e2" d="m147-221.4 1.6 2.2 1.2 1.7.3.5.4.7.4 1 .3.7.2.7.6 2.9.2.7 1 3 .3 1.1.1 1 .1 1.2.1 2.6.1 1 .1.6.1.6.2.6.3.7.2.3.2.3.4.3.2.2.3.1.2.1h.2l.7-.5.4-.3.6-.4.8-.4.8-.4.7-.2.6-.1.8-.1h.8l1.4-.1h4.5l.9-.3.7-.2.7-.2 1-.4 4.8-2.2 1.6-.6 1-.3.5-.1h1.5l.3.2.5.2.5.4.7.7.4.6.5.6.8 1.3 1 1.5 2 3 .5 1 .4.4.4.4.4.3.5.3.6.1h.7l.5-.2.4-.3.4-.3.3-.4.4-.5.2-.5.3-.6.2-.7v-.8l.2-.8v-.8l-.1-.9-.1-.8-.2-.9-.6-3v-.6l.3-.3.3-.2.4-.2.6-.2 1-.3.8-.2h.7l1.3-.2h1l1.3.2 1.2.4.7.4.5.3.8.8.5.8.4.8 1.3 2.9.8 1.6.7 1.3.5.7.3.4.5.5.6.4.6.4 1.7 1 1 .7 1 .8.9.8.3.3.5.6.5.7.8 1 .6 1 1.9 3 .6.9 1 1.3 1.1 1.3.8.8.5.5.7.6.8.6 1 .7.7.5 1.5.8.8.4 1.5.6 1.4.5 1.3.4 1.5.3 1.4.3 2.8.4 3.4.5 3.5.5 3 .4 1.5.1 2 .2h4.7l.5-.2h.1v-.1h.2l.4-.1.5-.2.6-.3 2.3-1.4.8-.5.8-.6.6-.5.7-.9 1.1-1.2.7-.6.4-.3.4-.3.4-.2h.3l.3-.1h1.4l.4.2.5.2.4.3.5.3.8.6 1.2 1 .7.6.4.2.4.1h1l.5-.1.6-.3 1.1-.7 1-.4 1.5-.6.8-.3h.1l.3.1h.7l.8-.3 4.2-1 1-.3.9-.1.9-.2h1l.6-.1h1.4l.5.1h.3l.5.3.5.2.6.4 1.6 1 .5.3.4.4.2.2.4.7.3.8.3.9.8 2.6.4 1.1.3.7.3.5.4.5.5.5.7.4.9.4.9.2h3l.7-.2.9-.2 1.2-.4 1-.5 1-.6.9-.5.7-.5.7-.5 1.5-1.2 1.6-1.4 1-1 1.4-1.4.8-.8 2.6-3 1-.9.8-.8 1-.6.9-.5.8-.3.6-.1h.4l.1.1.4.5.4.6.6 1.1.4.9.6 1.2.7 1.9.7 2.1.8 3.2.4 1.4.4 2.3.4 1.7.3.9.3.8.4 1.1.5 1 .3.5.4.5.7 1 1.9 2.3.4.6.5.7.7 1.1 1.7 3 1.4 2.2.6 1.2.6 1.4.8 2 .7 2 .3 1 .2.8.2 1 .1 1 .1 1v3.5l-.2 2.4-.2 4.3-.3 2.5-.1 1-.3 1.8v.3l-.4.2-.4.8-.4.7-.4 1-.5 1.6-.6 1.8-.2 1-.9 3.3-.4 1.4-.3.8-.3 1-.4 1-.5.8-.5.9-.7 1-1.6 2.5-.5.8-.5.9-.5.7-.3.9-.3.6-.3 1-.1 1-.2 2-.1 1-.3 1-.3.8-.4.6-.3.5-.5.6-.6.7-.7.6-1.5 1.2-.8.6-1.8 1.7-.6.4-.4.3-.6.3-.6.1-.9.2h-1.8l-.4-.1-.7-.2-.6-.2-3.5-1.3-2-.7-1.2-.3-1-.2-1-.3h-.6l-1.3-.2h-.9l-3.3-.2h-1l-.5-.2-1-.2-1.2-.2-1-.4-2-.8h-.3l-.6-.2H298l-.9.3-2.9 1.3-1.6.6-2.4 1.1-1 .4-1 .2-1 .2H285l-.4-.2-1.8-.8-.7-.3-1.4-.5-4-1.3-3.5-1.2-4-1.4-1-.3-.7-.1h-.9l-.7.2-.2.2-.2.3-.2.4v3l.1.7.7 3.2.2.7v1.5l-.1.8-.3 1.1-.4 1.1-.5 1.3-.5 1.2-1 1.8L262-72l-.5 1-.6 1.5-.4.6-.7 1.2-.4.5-.7 1-.6.7-.7.8-.8.7-1 .8-1.2.8-1.9 1.2-.9.6-.8.4-1 .4-.8.4-1 .2-1.4.2h-9.3l-1-.1-1.2-.2-1.2-.3-3.3-1.2-.8-.2-.6-.2h-.1l-.2.3-.1.8-.2 1v1.2l-.2 2.4-.1.8-.1.8-.3 1-.2 1-.3.8-.3.7-.4.7-.3.4-.7.9-1.7 1.6-2 1.7-.4.5-.2.3-.1.3-.2.6-.5 2.3-.3.8-.2.5-.3.6-.3.7-1.3 2-.9 1.5-.4.5-.5.5-.6.3-.6.2h-1.1l-.7-.2-.8-.3-1.3-.7-.9-.4-2-1-1-.3-1.1-.3-1.3-.3-1.3-.1h-2.6l-1.2.2-1.2.4-.7.3-.6.4-1.7 1.2-.4.4-.5.2-.3.1h-.4l-.3-.2-.3-.2-.3-.2h-.4l-.2-.1h-1.9l-1.7.2h-4.2l-.7.3-.6.4-.6.6-.5.7-.4.7-1 1.8-.4.6-.6.5-.7.3-.7.2-1.6.4-.7.2-.7.3-.7.3-.6.3-1.8 1-.4.5-.3.6v.7l.2 1.6-.1.8-.3.6-.5.5-.7.3-1.4.5-.8.2h-2.9L164-20h-1.1l-.4.2-.5.3-.3.5-.2.6v.4h-.1v-.2l-.1-.5v-.6l.2-1.4.3-1.5.4-1.3.3-.9 1.5-4.1.5-1.2.5-1.8.2-1.3v-2.7l-.4-1.4-.3-.8-.2-.5-.4-.5-.6-.5-.5-.2-.6-.3-.6-.2-.7-.2-1.3-.3-4-.7-1.3-.3-.6-.2-.5-.2-.7-.4-.5-.5-.3-.5-.2-.4v-1l.4-.5.4-.7 1.2-1.3.5-.7.5-.7.3-.5.2-.6.2-.5v-.9l-.1-.5-.2-.3-.2-.2-.5-.3-.5-.3-1.2-.7-2.7-1.6-2.5-1.4-1.5-.7-1.4-.8-2-.9-1.4-.5-1.8-.6-3.5-1-4.5-1.4-3.2-.9-1.1-.3-2.2-.8-1-.3-1-.1h-2l-.8.1-.6.2-.6.3-.8.3-.6.4-.5.4-.4.4-.4.4-.4.4-.1.3-.5-.3-2.6-1.5-3.1-1.6-1.6-.9-1-.6-1.6-1.2-.6-.4-.6-.4-.8-.4h-.5l-.5-.1h-.4l-.4.3-.4.3-.5.4L97-64l-.6.9-.5.9-.8 2.3-.3.7-.3.6-.3.2h-.6l-.3-.3-.4-.7-.8-1.8-.3-.9-.3-1-.2-.6-1-4.3-.5-2-.2-.7-.5-1.3-.5-1.2-.3-.8-.4-.7-.4-.4-.3-.3-.5-.4-.6-.4-.7-.5-.3-.3-.6-.5-.4-.6-.1-.2-.3-.5-.5-1.3-.2-.4-.1-.7v-1l.2-.5.2-.6.3-.7.3-.9.2-.6V-89l.2-1 .2-1 .3-.8.4-1 .3-.8v-1.7l-.2-1-.3-1-.4-.7-.5-.7-.7-.7-.9-.6-1.5-1-.9-.4-2.7-1.4-1-.5-1-.6-.6-.5-.6-.5-2.5-2.4-.5-.6-.4-.5-.3-.4-.3-.6v-.8.1l-.4.2-.5.2-.6.2-.7.1-.8.1h-1.9l-.8-.1-.8-.2-.7-.3-1.1-.7-.8-.7-.4-.7-.3-.6-.2-.6-.1-.6v-3.3l-.1-.7-.1-.6-.2-.4-.5-.8-.5-.5-.8-.5-.8-.3-.8-.2h-1l-1.7-.2h-.7l-.7-.2-.6-.1-.6-.3-.6-.3-.5-.3-.7-.5-1.3-1-1-.5-.3-.2-.6-.3-.6-.2-1.6-.7-.7-.2-.5-.1-.5-.1-.5-.1h-1l-1.7-.2H38l-.7-.1-1.1-.2-2.6-.4H33l-.6-.2-.8-.3-.9-.5-.1-.2-.6-.6-.3-.5-.4-1-.3-.6-.3-1-.4-1.4-.3-1.3-.2-1-.7-4-.2-1.5-.4-1.4-1.5-5.9-.4-1.6-.6-2.6-.2-1.3-.3-1.8-.1-1.4v-3.6l.3-1.4.4-1.1.2-.5v-.1l.4.2 1 .4 1 .3 1 .2H29l.9-.2.9-.4 1-.6.6-.4.5-.5.7-.8.6-1 .2-.5.2-.6.3-1 .1-.9.1-.7.1-1.3.1-3.1.2-1.6v-.6l.3-1.2.4-1 .2-.5.2-.4.5-.6.6-.6.3-.4.4-.3.5-.4.8-.4.8-.4.6-.1.3-.1.7-.1h1.5l.6.3 1.5.6.4.1.6.1h1.1l.7-.2.6-.2.7-.3 1.3-.6 2.8-1.3 1-.4.7-.2h1.9l1 .4.7.3.6.4 2.2 1.6.9.5 5 3.2 1.4.9 1.1.9 1.2.8.6.3.7.5.7.2.3.2h.4l.8.2h1.4l.3-.1.3-.2.3-.4.3-.4.1-.5v-1.6l-.3-1-.4-1-.6-1.2-.7-1.4-.7-1-.8-1-1-1-1-.8-3.4-2.7-1-.9-.9-.9-.7-1-.5-1-.1-.8v-1.5l.2-.7.4-1.2.3-.8.3-.7.7-1.4.4-1 .3-.9v-.2l.3-.8v-1.2l-.1-.3-.2-.4-.2-.3-.2-.2-.3-.2-.4-.2h-.3l-1.1-.2h-.4l-.3-.2-.1-.2-.2-.2-.1-.3-.2-.5v-1.2l.2-.4.2-.7.2-.5.3-.5.2-.4.4-.6.5-.6.6-.7.4-.4.5-.3.8-.4.8-.1h.7l.6-.1 3.6.1h.9l1 .2 1 .2 2.6.7 1.5.3.6.2h2l.5-.2.7-.3.8-.5.5-.4.5-.4.5-.6.2-.4v-.2h1.8l1.7.2 2 .4h3.1l.4-.2.9-.2 1-.3 4-1.4 2.5-.9 6.6-2 1.8-.5.6-.1.7-.2h.7l.8.1.8.3 1.4.5.5.2h.4l.8.1h1l.6-.1.7-.2.4-.1.6-.3.5-.3.7-.5.7-.5 2-1.7.7-.6.6-.4.8-.5.9-.4.7-.3.7-.2 1-.3 4.4-1.2 1.9-.5 2.1-.8 2.7-1 .2 2 .3 1.6.2 1 .2.6.2.6.3.6.3.7.4.5.8 1.1"/></defs><g clip-path="url(#pec43550226)"><use xlink:href="#m1cbe428887" y="247.9" fill="#f4f4e2" stroke="#f4f4e2"/></g></g></g></g><defs><clipPath id="pec43550226"><path d="M7.2 7.2h357.1v233.5H7.2z"/></clipPath></defs></svg>