<svg xmlns="http://www.w3.org/2000/svg" xmlns:xlink="http://www.w3.org/1999/xlink" width="205.5" height="374" viewBox="0 0 154.1 280.5"><defs><style>*{stroke-linejoin:round;stroke-linecap:butt}</style></defs><g id="figure_1"><path id="patch_1" fill="none" d="M0 280.5h154.1V0H0z"/><g id="axes_1"><g id="PatchCollection_1"><defs><path id="m9c091e6ac1" stroke="#f4f4e2" d="M76-255.5h3.2l1.5-.2 1.5-.1h1.5l1.2.4 1 .6 1 .8.8 1 .6 1 1.1 2.3.6 1.3.4 1.3.3 1.3.3 1.4.5 2.6.1 1.3v2l-.1.5-.4 1.1-.4 1-.5.9-.5.6-1 .7-.7.6-2 1.2-.4.3-.4.4-.3.4-.3.6-.2.5-.2.7v1.7l.3 1 .6 1.1.6 1 .6.9.5.7.5 1 .4 1 .2 1-.3 1.1-.1.5-.5.9-.6.9-1.3 1.7L84-213l-1.5 1.6-.6.7-1.2 1-2.8 2.5-.7.9-.3.5-.3.8v1l-.1 1.8-.2.8-.3 1.4-.2.6-.3.8-.4.8-.8 1-.1.3v.9l.3.6.5 1 .5.5.5.7.7.7.9.8 1.7 1.4 1.1.8 1.2.8L84-187l3 1.4 1.6 1 1 .6.8.7 1.1 1 1 1 1.4 1 1 .5 1 .4 1.4.2 1.3.1 1.5.2.9.2.7.2 1 .4 1.1.5 1 .5 1.5.8 2.2 1.4 1.3.9 1.4 1 3 2.5 4.8 4 .1.5.3 1 .2 1.4.2 1.6v5.2l-.3 1.7v3.1l.4 1 .5 1 1.4 2.7.5 1 .3 1 .2 1.3v1.3l-.2 2.7v2.5l.3 1.2.5 1 .9 1 .5.5 2 1.7.7.6 3.6 3.5 1.3 1.2 1.3 1 1.3.9 1.3.7 1.3.6 1.1.6 1 .8.4.7.3.8.2 1v1l-.2 1.3-.2.8-.3 1.1-.5 1.4-.8 1.7-.9 2-.5 1.1-1.3 3.8-.5 1.1-.3.6-.7.8-.2.2-.4.2-.5.3-.6.2-.9.1h-2.4l-1-.1-4.1-.6-2.8-.3-1.4-.2-1.6-.3-4.8-1.4-2.2-.5-1-.2-1-.2h-3.3l-.7.2h-.2l-1.3.7-1.1.8-1 .8-.5.8-.2.4v.5l.2.4.3.5.4.5.8 1 1 .8 4.5 4.3 2.7 2.4 1.3 1.2.7.9.8.9 1.3 1.8 1.4 2 1.2 2 2 3 1.1 2 .5 1 .3.7 1.3 3.5.5 1.3.5 1.2.9 1.6.8 1.2.7.9.4.4.8.6.9.7 3.7 2.7.6.4.5.6.2.6.2 1v4.6l.2 1.5.3 1.5.5 1.6 1.2 3 .7 1.7.4 1.3.3 1.3.2 1.3v3.1l-.5 1.2-.4.6-.4.5-.7.5-.8.4-.5.2-.7.2-.7.2-.7.1h-4.9l-.6.2-.7.2-1 .4-.9.5-2.2 1.3-1 .7-1.4 1.2-1.2 1.4-1.2 1.5-1.2 1.7-1.1 1.7-1 1.6-1.8 2.9v-.2l-.5-.6-.7-.8-1.7-1.6-.9-.9-1.2-1-1.2-1-3.3-2.6-1-.8-.7-.8-.7-.7-.6-.9-.4-.8-.2-1-.1-.8v-3.9l-.3-2.2v-2l.3-1 .4-1 1-2 .5-1v-.3l.1-.7v-1.3l-.3-.7-.4-.6-.3-.4-.4-.2-.5-.1H98l-2.3.4-.9.1h-5.5l-1.2-.3-2.4-.4-2.8-.3-1.3-.3-.5-.1-.6-.3-.2-.4v-.2l-.2-.6-.6-1.9-.3-1.2-.2-1-.2-.9-.2-1.1v-2.8l.2-1.8.4-2 .2-.9.5-1.7.2-.8 1.5-7.5 1.3-5 .6-2.8.7-3 .6-3.2.1-1 .2-2 .2-3.3V-99l-.2-.6-.1-.4-.2-.2v-.2l-.8-1-4-5.1-1.6-2.1-.8-1.1-.4-.7-.3-.7-.1-.7-.1-1.5-.1-.8-.3-.6-.3-.6-.3-.5-.4-.5-.9-1.1-1-1.3-.9-.8-.7-.6-.5-.4-.5-.3-.8-.4-1-.5-.8-.2-.7-.2-1.7-.2-1.6-.2H54l-1.3-.1-.7-.2-.6-.2-.2-.1-.4-.4-.3-.4-.1-.3v-.3h.1v-.6l-.4-.8-.5-1-.5-1.2-.3-1.2-.2-1.6-.1-1.5v-3.3l.2-1.3.2-1.2.2-1.2.5-2.4.6-2.1.5-1.8.5-1.4.3-.9 1-2.4.6-1.3.4-1.1.3-1.2v-1l.1-2.6-.1-1.4-.2-.8-.1-.5-.6-1.3-.4-.7-.6-.7-1-1-.7-.8L45-169l-1.8-1.6-1-1-1-.6-.9-.6-1.7-.7-.9-.6-.6-.4-.1-.3-.3-.4-.3-1.1v-2.8l.3-1.6 1.1-5 .4-1.8.2-1.6v-2.7L38-193l-.5-1-.6-1.1-.7-.9-.7-.8-1-1-1-1-1-.8-.9-.7-1.1-.8-1.2-.7-4.7-2.9-2.2-1.4-1.4-1-1-.8-2-1.6-.8-.8-.8-.8-1.1-1.2-1-1.3-.6-1.2-.1-.4-.1-.5v-.8l.2-1.2.5-1.2.6-1 .5-.8.5-.6 1-1 .7-.8 1.2-1 .7-.5 3.3-2.2 3.3-2.1 5.2-3.6 5-3.7 3.3-2.4 3-2.3 1.1-1 .8-.6.1-.3.4-.2.6-.6 1.5-1.8.6-.9.7-1 .7-1.1 1.1-2.2 1.5-3.4.7-1.4.6-1.3.7-1.2.5-.8.5-.5.7-.7.5-.5.4-.2.7-.4 1-.2h1l.9.1 1 .2 1.1.4 1.2.4 1.5.6 4.4 2 1 .5 1.5.5 1.2.3.8.3 1.8.3h.6"/></defs><g clip-path="url(#p0637e9f6fc)"><use xlink:href="#m9c091e6ac1" y="280.5" fill="#f4f4e2" stroke="#f4f4e2"/></g></g></g></g><defs><clipPath id="p0637e9f6fc"><path d="M7.2 7.2h139.7v266.1H7.2z"/></clipPath></defs></svg>