<svg xmlns="http://www.w3.org/2000/svg" xmlns:xlink="http://www.w3.org/1999/xlink" width="277.7" height="374" viewBox="0 0 208.3 280.5"><defs><style>*{stroke-linejoin:round;stroke-linecap:butt}</style></defs><g id="figure_1"><path id="patch_1" fill="none" d="M0 280.5h208.3V0H0z"/><g id="axes_1"><g id="PatchCollection_1"><defs><path id="m30aa8d74f7" stroke="#f4f4e2" d="m70.1-255.2 1 .1h1.7l1-.3.6-.2 2.2-.7 1.3-.4 1-.3 1-.3 3.4-.7 1.6-.4.8-.3.4-.2h.3l.3.4.4.6.4.8.3.9.3 1 .1 1.1.1 1.3v1.6l-.2 3.3v2.6l.1.7.2.7.8 3.4.2.8.3.7.4 1.2.6 1.4.5 1 .4.7.7 1.2.5.6.3.6.6.6.5.5.5.4.7.5 1.7.9.6.3.5.4.1.1.3.2.2.4.4.5.3.7v.4l.1.2v.9l-.2.4-.2.4-.9 1.3-.3.5-.2.6-.3.8-.2.9-.2 1.4-.2 1-.3.9-.5 1.5-.2.5-.1.5v.6l-.1.6v.7l.1.7.2.5.2.6.3.7.4.7.4.5.4.5.6.7.7.7.9.9.9.8 1.5 1.3.8.6 1 .7 1 .6 1 .5 1.2.3 1.1.2h2.4l1.2-.2 1.3-.2 1.3-.3 2.4-.6 2.5-.7h.2l.3-.1.5-.2.8-.2h.8l1-.2h1l.7.2.5.3.4.5v1.5l-.3.8-.4 1-.5.8-.3.6-.8 1-.8 1-.8.9-1 1-3.6 3.4-1.6 1.6-.6.7-.5.7-.3.5v.4l.3.2h1.4l1-.2 1-.3 1.1-.2 2.4-.6 1-.3 1-.3 1.3-.5 1-.5 1.1-.5 3.2-1.6 1.9-.9 1.2-.5 1.2-.4 1.2-.4 1.2-.4 1.3-.3 1-.3 1.5-.3h1.1l1-.2h2.6l1-.2h1l1.3-.3 1.1-.3 1-.2.8-.4.5-.2 1-.7.6-.4.9-.8.5-.4.4-.5.3-.4.6-.8 1.3-1.9.8-1.2 1-1.8.6-1 .5-.7.7-1 .6-.8.3-.3.6-.7.6-.6.7-.5.5-.2.6-.3.6-.2 2.6-.9.5-.2h.2l1.3 1.8 1.1 1.6 1.3 2 .6 1 1.1 1.8 1 1.8.8 1.6 1.1 2.4.8 1.8.3.8.2.7.2.7v1.5l-.1.8-.2.7-.3.7-.2.5-.3.5-.3.5-.7.9-1.8 2-.9 1-.6.8-.6 1-.4.6-.1.4-.4 1-.3 1-.4 2-.2.7-.2.4-.1.3-.3.5-.2.3-.2.1-.2.3-.4.2-.4.2-.5.2-.5.1-.8.1h-.6l-3.9.4h-1.2l-.6-.1-1.6-.2-.7-.1h-2.6l-2.3.4-1 .2-1.1.3-1.4.5-.5.2-.7.4-.6.3-.6.4-1 .7-.5.4-.6.5-.9.9-.6.7-.3.4-.3.5-.3.4-.3.6-.2.5-.2.4v.4l-.1.5v1.5l.2.9.3 1.5.8 2.6.1 1 .1.7.2 1.8.2 4.5.5 6.4v3.5l.1 1.3v1.6l-.1 1-.2 1.2-.2.8-.2 1.2-.4 1.4-.5 1.6-.5 1.6h.1l.3-.2.7-.3.6-.2.6-.2 1-.1h1.6l.7.3.6.2.8.4.8.5.8.5.8.8.8.7.9.8.8.8.5.7.3.5.2.4.2.4v.3l.1.3v.7l-.2.5-.7 1.7-.2.8v2.2l.1.3.1.3.3.6.3.4.4.5.5.5.4.3.6.5.5.3 1.4.8.8.5.7.5.7.5.7.6.6.6.8.8.5.6.6.7.4.6.5.8.4.7.6 1.2 1.1 2.7.5 1.1.5.8.5 1 .4.6.4.5.4.5 1 1.2.7.6.4.4.5.4.4.4.5.2.4.2.4.2h1.3l.4-.1.5-.2.4-.2.4-.2 1.3-.8.6-.3h1l.4.2.3.4.2.4.2.5v.5l.5 2 .5 2 .4 1.6.9 2.7.6 2.2.2 1 .2 1.1.2 1 .1 1.4.1.5.1.5.4 1 .5 1 .7 1 .7 1 .8 1 2.3 2.8.6.8.4.6.1.3v.1l-1.5 1.6-.3.3-.1.1-.2.1h-1.3l-.2.1-.3.2-1 .7-.3.2-.5.2-1.3.7-3.4 1.3-1 .5-1.8.8-2.4 1.1-1.7 1-1.5.9-.9.6-1.6 1.2-2.6 2-1.4.9-.6.4-1 .6-1 .5-1.1.5-1.2.4-3.1 1.2-13 5-2.4 1-2.4 1-1.1.5-1.2.6-1 .5-1 .6-1 .6-2 1.2-5 3.4-1 .6-1.2.6-1 .5-1 .5-1 .4-2.2.8-3.7 1.3-3.6 1.4-4.8 2-4.8 2-2.1.8-2.1 1-1.8.9-4.2 2.2-.8.4-1 .5-1.4.5-.8.3-.6.2H89l-.7-.2-1.7-.4-1-.2L83-21l-.9-.2-.8-.2h-.8l-1.2-.1-2.9.2H66.1l-.1.1h-.1L51.5-45.4l-5-8.5-3.7-6.2L35.6-72l-5.3-9-1.9-3.1-2.4-4-2-3-1.8-3-3.7-5.6-1.7-2.7-.3-.6-.3-.7-.2-.7v-.6l.2-.4.3-.3.4-.1.5-.1h2.4l.4.2.8.2.5.2.4.2.7.5 2.3 1.7.8.5 1 .5.9.4 1 .2.8.2h1l.7-.1.7-.3.5-.4.4-.5.3-.6.3-.8.3-1 .3-1 .2-1.1.2-1.1.4-2.3.5-3.6 2.1-15 .4-2.4v-1.3l.2-1.3v-4l-.1-1.3-.3-1.3-.3-1.1-.4-1.1-.3-1-.3-.6-.1-.3-3.6-8.6-3-6.8-3.7-9.5-.4-.9-.1-.5-.1-.4v-.4l.1-.2.1-.1.4-.4.3-.3.2-.5.3-.9.4-1.2.3-1.4.2-.7.4-1.5.2-.5v-.6l.1-.8 2.1-2.2 2.7-2.7 1.1-1.1 1.2-1.4 1.1-1.4 1.6-2 1.4-1.8 1-1.4.9-1.5.6-.9.5-1 .5-1 .3-.7.1-.6.2-.7.1-.7.1-.7v-1.5l-.2-.9-.1-.3-.3-.7-.4-.6-.4-.5-.4-.4-.4-.3-.4-.2h-.4l-.3-.1H40l-.3.2-.6.4-.6.5-.3.2-.3.3-.6.2h-1.2l-.3-.2-.3-.3-.2-.3-.2-.4-.2-.5v-.6l-.1-.7v-2.5l.1-1 .2-1 .2-1 .3-.8.4-1 .3-1 .7-1.4.1-.3h.1l.1-.3.1-.4v-.5l.2-2.4.1-.7.1-.6.2-.5.2-.6.2-.5.3-.4L40-228l.3-.6.3-.5.6-1 .2-.6.2-.6.2-.6.2-.7v-1l.1-.5v-.7L42-236l-.3-1.2-.2-1.2-.4-1.3-.4-1.3-2.8-9.1h.1l.2-.1 1.1-.6 2.2-1.4 2.3-1.4 1.5-1 3.2-2.4.8-.6.7-.5.8-.4 1.6-1 1.2-.6.7-.3.5-.2 1-.3.7-.2.8-.1h.8l.8.3.7.3L62-259l2 1 2.2 1.3 1.3.6.8.4.9.3 1 .3"/></defs><g clip-path="url(#p007c053b24)"><use xlink:href="#m30aa8d74f7" y="280.5" fill="#f4f4e2" stroke="#f4f4e2"/></g></g></g></g><defs><clipPath id="p007c053b24"><path d="M7.2 7.2h193.9v266.1H7.2z"/></clipPath></defs></svg>