<svg xmlns="http://www.w3.org/2000/svg" xmlns:xlink="http://www.w3.org/1999/xlink" width="495.4" height="333.3" viewBox="0 0 371.5 250"><defs><style>*{stroke-linejoin:round;stroke-linecap:butt}</style></defs><g id="figure_1"><path id="patch_1" fill="none" d="M0 250h371.5V0H0z"/><g id="axes_1"><g id="PatchCollection_1"><defs><path id="m2de46b88a9" stroke="#f4f4e2" d="m325.6-197 1.7 1.8.8.8 1.6 1.4 1.6 1.3 1.5 1.2.9.7 1 .7 4 2.8 1 .8 1 .7.7.6.4.6.6.6.4.7.5.8.1.5.3.7.2.8.3 1.1.1.8.2.9v2.1l-.2 2.7-.2 2.2-.4 4v6.4l-.2 1.2-.3 3.3v1.9l-.1 2v2l.2 1.2.3 2.6.6 4 1.9 10.9 1.5 8.7.5 3.2-2 .8-2.4 1.3-1.7.8-3 1.7-2 1-1.9.9-3.2 1.3-1 .4-.6.2-.5.3-.4.2-.5.4-.6.5-.5.5-.8.9-.5.6-.7 1-1.9 2.5-.5.6-.5.6-.4.4-.5.4-.6.4-.5.2-.4.1h-.4l-.6-.1-.6-.4-.7-.6-.6-.6-.6-.7-.6-.8-1.5-1.9v-.1l-.2.2-.4.5-.5.6-.6.6-.4.4-.5.3-.9.5-1 .3h-2.6l-1.3-.2-2.7-.5-1.3-.2-1.3-.2h-1.3l-1.3-.1H296l-1 .2-1.1.1-1 .3-.8.4-.7.5-.4.7-.3.7-.3 1-.4 1.8-.2.9-.4.9-.4.5-.2.4-.3.2-.3.3-.4.4-.7.4-1.6 1.2-.5.3-.6.5-.5.4-.2.3-.5.6-.3.5-.2.4-.2.4-.3 1-1 4-.9 2.9-.3 1-1.6 4.6-.4 1-.5 1-.5 1-.6 1.2-.7 1-.4.7-.4.5-.5.6-.8.8-1.7 1.8-.3.4-.2.2-9.4-1-1.7-.2-1.7-.2h-3.5l-.7.2-.7.1-1.4.4-1.4.5-1.5.5-2.3.9-2.2.9-1.5.6-.8.4-.5.3-1 .6-1.2 1-1.3 1.1-3.9 3.4-.7.5h-.1v.2h-.1l-.1.5-.2 1.2-.2 1v4.3l.3 1 .4 1.6.1.6v1.8l-.1 1-.3 1.7-.2 1.2-.2.6v.3l-.2.3v.1h-.3l-1.8-1-1.3-.7-.8-.4-1-.4-1-.3-.4-.2-1-.2-1.3-.2-1-.1h-1.9l-.8.1-.9.2-.8.3-.5.2-.5.3-.5.3-.8.7-.9.8-.8.8-1 1.1-1.1 1.3-2 2.3-.7.9-.7.6-.6.5-.7.3h-.8l-.4-.2-.3-.3-.3-.2-1.3-1.3-.5-.5-1.2-.8-1.2-.8-.5-.4-.6-.3-.8-.2-.7.1-.3.2-.3.3-.5.4-.4.6-1.2 1.7-.5.7-.5.5-.5.4-.3.2h-.3l-.5.2-.6-.2-.5-.3-.7-.4-.6-.5-1.3-1.1-1.3-1.2-.8-.8-.5-.5-.5-.6-.5-.7-.4-.7-.4-.7-.4-.8-.7-1.8-.3-1-.5-.9-.5-1-.5-.8-.7-.9-.7-.7-1-.8-1-.6-1-.6-1.2-.5-1.2-.4-2.4-1-4.9-1.5-3.4-1-1.4-.4-1-.2-1-.2-1-.1h-2.3l-1.1.2-1.2.2-1.2.4-1.2.3-2.4.8-7.3 2.7-2.6.9-1.3.4-1.2.3-1.3.3-1.3.2h-2.6l-1.1-.3-1.2-.4-1.2-.5-1.1-.6-1.2-.6-1-.8-1.2-.7-2.9-2h-.1l-.9 1-1.5 1.8-8.7 11-4.2 5.3-4 5-2.4 3-.9.9-.9 1-.8.8-.8.7-.8.7-.7.6-1.5 1.2-.6.4-.5.3-.7.3-.6.1-.7.1h-.8l-1-.1-.8-.1-2-.3-1-.1-1-.1H81l-3 .2-2.5.2-2.9.3-3.3.4h-1.1l-.1-2.2-.2-4.1-.2-8-.2-7.8v-9.2l-.1-1.5-.2-1-.2-1.1-.1-.8-.2-.7-.5-1.2-.5-1.1-.4-.8-.4-.7-.5-.8-.5-.8-1-1.4-2-2.6-3.2-4-4-5-2.6-3-1.7-2-.9-1-.9-.9-.9-.8-1-.9-1-.7-1.2-.7-3.5-2-1.1-.7-1.2-.7-1-.8-.3-.3-.6-.5-.5-.5-.7-.8-.9-1-2-2.7-.4-.5-.7-.8-.5-.5-.5-.5-.6-.4-.5-.3-1-.5-.8-.4-.6-.1h-.4l-1.1-5.8-.5-2.8-.2-1.2-.3-2.5-.1-1.2v-1.1l-.1-1.5v-5.5l.3-20v-2.5l.2-2.7.1-1.2.1-1.3.2-1.3.3-1.2.4-1.2.5-1.1.7-1 .7-1.1.8-1 .8-1 .9-1.1 1.8-2 9.7-10.4 3.2-3.5.4-.1 2-.7 2.6-.9 8.3-3 2.7-1 1.3-.4 1.3-.4 1.3-.4 1.3-.3 1.2-.2 1.3-.2h2.3l1.2.2 1.2.2 1.2.3 1.3.3 2.3.5 11.8 3 3.7.9 1.2.2 1.2.2 1.2.2 1.2.2h3.3l1.6-.2 1.2-.1 2.2-.4 4.6-.8 1.6-.3 2-.2 2-.2 1.5-.1H129l1.7.1h2l.9-.1.8-.1 1.2-.2 1-.2.7-.3.5-.2.9-.4.8-.5.4-.3.6-.6.5-.5.6-.7.3-.4.4-.8.5-1 .4-1.1.6-2 .9-2.7 1-3.3.2-.5.2-.5.2-.3.3-.3.3-.3.2-.2.8-.3h2l1.2.1 1.2.3 1.2.2 1.2.4 2.6.6 11.7 3.3 11.6 3.1 9.5 2.6 3 .9 4 1.2 5.4 1.9 10.5 3.5 3.2-4.5 1.5-2.1 2.3-3.2 5.2-7.6.8-1 .8-1 .4-.5.4-.4.5-.3.5-.3.3-.1.5-.1.7-.1h1.1l1.2.3.1-.2.9-2.3.6-1.5.6-1.2.4-.7.6-.9.5-.4 1-.8 1-.7 1.2-.5 1.2-.4 1.3-.4 1.3-.3 1.3-.3 5.3-1.1 1.3-.3 1.2-.3 1.2-.3 1.2-.4 1.1-.5 1-.5 1.1-.6 1-.8.9-.7 1-.9 1.7-1.7 1.8-1.8.9-.9.8-1 .8-.9.6-1 .5-1 1.1-2.6.4-.8.5-1 .5-.8.6-1 .6-.8.7-.7.7-.8.6-.6.7-.6.7-.5.5-.2.6-.1.4-.1h2.4l1 .1.9.2 1 .2 2.2.4 3.3.8 7.2 1.8 2.5.7 1.3.3 1.2.4 1.2.5 1.1.4 1 .6 1 .7.9.9.7.9.6 1 .6 1 1.3 2.3.6 1.1.6 1 .7 1 .7 1 .7 1 1.4 2 1.5 1.9 2.3 2.7 2.1 2.5 2.2 2.4 2.5 2.7 2.6 2.6"/></defs><g clip-path="url(#pf27e3fac9b)"><use xlink:href="#m2de46b88a9" y="250" fill="#f4f4e2" stroke="#f4f4e2"/></g></g></g></g><defs><clipPath id="pf27e3fac9b"><path d="M7.2 7.2h357.1v235.6H7.2z"/></clipPath></defs></svg>