<svg xmlns="http://www.w3.org/2000/svg" xmlns:xlink="http://www.w3.org/1999/xlink" width="218.5" height="374" viewBox="0 0 163.8 280.5"><defs><style>*{stroke-linejoin:round;stroke-linecap:butt}</style></defs><g id="figure_1"><path id="patch_1" fill="none" d="M0 280.5h163.8V0H0z"/><g id="axes_1"><g id="PatchCollection_1"><defs><path id="md09e3f2de4" stroke="#f4f4e2" d="m94.3-259.3.7 1 .4.8.4.8.2.7.1.6.1.7v4l.2 2.3v.8l.2.6.1.6.2.3.3.7.5.6.5.3.5.2h.3l.6-.1.7-.3 1.6-.7 5.8-2.8 4-2 2.5-1 1.9-.8 2.2-.8 1.3-.4.8-.2 1.1-.2 1-.1h.8v.1l.2.2.3.4 1 1 .6.6.5.6.5.8.5.9.5 1.2.3 1 .3 1 .3 1.2.2 1.6.2 1.8v2.3l-.6 3v1.7l.1.6.2.7.2.7.5 1.1.5 1.1.7 1.1 2.2 3.4 1 1.6.7 1 .7.8 1.5 1.8.8 1 .6.9.6 1 .4.8.4 1.3.2.9v3l-1 5.1-.2 1.3-.3 1-.4 1.1-.3.8-1.4 3-1 1.9-1.7 3.1-.8 1.5-.5 1.2-.4 1.2-.3.8-.4 1.5-.3 1.6-.1.6v2.2l.2.6.2.5.3.6.5.6 1.4 1.8 2.8 3.2 2.3 2.6 3 3.1.7 1 .8 1 .5.6 1 1.6.6 1.1 1 2.1 1 2.5.7 2 .5 1.6.6 2 .5 2.1.4 2.5.2 1.3.2 1.8.1 1v3.8l-.3 1.4-.2 1.4-.3 1-.3 1-.3 1-.5 1.3-1.6 3.4-.4 1-.7 2-.3 1.2-.1.8-.2 1.3-.2 1.3v4.3l.1 1 .2 1.3.1.3.1.2-.1.1h-.2l-.6-.2-.8-.4-1.3-.7-1-.5-.9-.5-1-.3-.9-.3-1.5-.4-1.6-.1h-3.4l-2.2.2-1.8.3-1 .2-1 .2-1.3.4-1 .4-3.4 1.4-.8.3-1.1.2h-1l-.8.1h-5.7l-1 .3-1.1.4-1 .7-2 1.5-2 1.3-1 .6-1 .5-.9.4-3.9 1.4-3.2 1-1.6.6-1.1.5-1.5.8-1 .6-.8.7-.9.8-.3.3-.5.7-.4.7-.2.8-.1.6-.3 2.5-.1.7-.2.8-.2.4-.5.8-.4.4-.3.3-.8.4-.7.3-.3.1-.6.1h-.7l-.6-.2-.6-.3-.4-.3-.8-.7-.4-.5-.4-.7-.1-.4-.3-.8v-.8l-1.4.6-1 .5-1 .6-1.1 1-.6.3-.6.7-.5.7-.4 1-.4 1.1-.3 1.4-.1.8v.8l.2 1 .2.5.7 1.8 1.2 2.7.3.7.2.7.2.7v1.7l-.1 1-.2.8-.2.9-.5 1-.7 1.4-1.2 2-.6 1-.4 1-.3.6-.2 1-.1.8-.2 2-.2.8-.3 1-.5 1.7-.2 1-.7 3.7-.5 2-.5 1.3-.6 1.3-.8 1.2-.9 1.2-1.5 2-1.6 1.8-1.4 1.4L56-45l-4.9.8-1.2.1-2.2.1-1.4.2-.6.2-.3.1-.5.2-.5.4-.3.3-.2.3-.1.3-.1.4v.2l-.1.6v.7l.3.9.3.9.4.8L46-35l.7 1.5.6 1.4.3 1.2.3.9.2 1 .2 1.7v2.4l-.1.3-.2.6-.3.5-.2.3-.6.6-.9.7-1.4 1-.7.4-.7.3-.8.3-.8.3-1.2.3h-.7l-1-.2-1-.4-.8-.6-.5-.4-.3-.3-.5-.8-.3-.8-.2-1v-1l.2-.8.2-.5.3-.4.7-.9.3-.5.1-.5v-.2l.1-.6-.1-.6-.3-.3-.4-.3-.6-.2-.6-.1h-1.8l-.6-.3-.2-.1-.4-.4-.2-.4v-.4l-.1-.2v-.5l.2-.7.3-.6.8-1.6.4-1 .5-1.3.2-.8.2-1v-1.2l-.1-.5-.1-.5-.3-.9-.4-1-.6-1-.4-.7-1-1.1-.6-.8-1.6-1.7-3.4-3.4-3-3.2-.3-.5-.4-.5-.3-.4-.3-.7-.2-.7v-.3l-.1-.8-.2-2.5-.2-1.4-.2-1-.9-2.4.2-.1.3-.2 3-1.6 1.8-1.1 1.6-1.1.6-.5.7-.6.8-.9.4-.5.4-.6.7-1.2.1-.4.3-.9.4-1.2.2-1.3v-2.2l-.2-1-1-3.3-.3-1.2-.5-2.4-.1-.9-.2-1.4v-3.5l.3-.9.2-.8.4-1 1.7-3.3.7-1.4.5-1.3.5-1.4.5-1.5.3-1 .8-3.5.7-2.9 1.4-4.7.4-1.5.3-1.5.3-1.5.2-1.4v-1.6l-.2-1.6-.6-3.8-.2-1.3v-1.2l.2-1.2.3-1.2.4-1.2.9-2.1.4-.9.9-1.4 1-1.3 1.3-1.3 1.5-1.5 1.9-1.6 2.7-2.2 5.5-4 .6-.6v-.1l.1-.1-.5-1-.6-1.5-.7-2-.7-2-.8-2.7-1-4.2-.4-1.3-.4-1.2-.4-1.3-.7-1.8-.9-2-1.9-3.5-.4-1.1-.4-1.2-.2-1-.2-3.6-.2-1.6-.3-1-.3-1.1-.5-1-.6-.8-.7-.7-.6-.3-.7-.3-1.6-.4-.8-.3-.3-.1-.7-.4-.6-.5-.4-.4-.3-.6-.3-.5-.4-.8-.2-.8-.3-1.2-.2-1.5-.1-1.8v-.7l-.3-1.4-.3-1.2-.2-.7-.3-.7-.2-.5-.6-1-.6-.9-.7-.9-.5-.5-.5-.3-1.3-.8-1.2-.4-1.6-.4-1-.2-1.3-.2-1.1-.2H20l-1.5.1-2 .2h-2.1l-.2-.1v-.1H14v-.2l.4-.3.5-.3.7-.3 1.7-.7 4-1.6 2.1-1 1.2-.6 1.2-.7 2-1.3 1-.7 1.3-1 1-.9.8-.8.6-.7.8-1 .7-1 1-1.5.9-1.6L37-232l1-2 .6-1.5.6-1.7.3-1 .5-1.7.3-1.3.2-1.8.1-1.3v-3.6l-.3-1.7-.3-1.4-.4-1.7-.4-1.4h.3l.6.4 2.2 1.8.6.3.3.2.4.1.4.2h1.3l.4-.2.8-.4.8-.6.2-.3.5-.7.3-.6.6-1.7.2-.6.2-.4.5-.8.4-.3.3-.2.4-.2.6-.2 4.3-1.2 1-.3 1.4-.2 1-.1h2l1.1.1 1.2.3 2.3.7 1.6.3 1 .2H70l1.6-.2 1.5-.2 4.8-1 1.6-.3 1.6-.3 2.5-.2 3.8-.5h2.8l1 .2 1 .2.8.4.7.5.6.6"/></defs><g clip-path="url(#p691b318c33)"><use xlink:href="#md09e3f2de4" y="280.5" fill="#f4f4e2" stroke="#f4f4e2"/></g></g></g></g><defs><clipPath id="p691b318c33"><path d="M7.2 7.2h149.4v266.1H7.2z"/></clipPath></defs></svg>