<svg xmlns="http://www.w3.org/2000/svg" width="219.8" height="374" viewBox="0 0 164.9 280.5"><defs><style>*{stroke-linejoin:round;stroke-linecap:butt}</style></defs><g id="figure_1"><path id="patch_1" fill="none" d="M0 280.5h164.9V0H0z"/><g id="axes_1"><path id="PatchCollection_1" fill="#f4f4e2" stroke="#f4f4e2" d="m122.4 187.5-.6.7-.3.4-.9.8-.5.5-1.2 1.1-.9.9-1 .8-1.7 1.4-.4.4-.4.4-.2.4v1.2l.1.3.1.3.2.4.2.3.2.4.2.3.2.3.3.3.4.4.7.6.5.3.5.3.7.4 1 .5 1.4.6.7.3 1.6.6.6.1h.4l.2.1h.5l1.1-.3h1.7l.3.1h.3l.4.4.3.2.2.2.3.3.3.5.3.4.6 1 .2.5v.2l.1.3v1.5l-.3 1.4v1.2l.1.3.1.2v.1l.2.2h.1v.1h.2l.2.1h1l1.2-.3h.9l.7.1 1.4.4.4.1.5.1h.5l1.1.2h7.7l.4.1h.6l.4.2h.3l.5.2.4.2.4.2.3.2.1.1.1.1.1.3.1.2v.5l-.1.2-.3.4-.8.9-.2.2-.5.5-.6.4-.4.3-.4.4-.2.3-.2.2-.1.3-.5 1-.2.4-.3.4-.2.3-.2.2-.5.4-.4.4-.6.4-.8.5-.4.2-.4.2-.3.1h-.4l-.4.1h-.2v.2l-.2.1h-.2l-1.6 1-.7.3-.5.3-.6.2-1 .4-.4.1-.5.2-.6.3-.9.5-1 .6-1 .7-.5.5-.7.6-.4.4-.3.3-.3.5-.1.3-.1.4v.5l-.1.5v.7l-.2.5-.2.7-.3.6-.3.7-.3.6-1 1.5-1.2 1.7-.3.4-.3.4-.3.2-.3.2h-.4l-.3.2h-2.8l-.3.1h-.3l-.3.2h-.3l-.3.2-.3.2-.3.3-.2.3-.3.3-.2.4-.3.4v.3l-.1.1h-.4l-.1-.2-.3-.2-.2-.2-.9-.9-.3-.3-.4-.3-.2-.2-.4-.2h-.3l-.4-.2h-.6l-.5.1-.5.2-.6.3-.6.3-1 .6-.9.5-1.9 1.2-2.3 1.5-.8.5-1.4.8-.7.3-1.2.6-1 .5-.6.2-.4.1-.4.1h-1.6l-.6.1h-.2l-.5.2-.5.3-.3.4-.3.4v.8l.2.6.3.5.8 1.2.3.6.3.6.2.6.1.3v1.3l-.1.5-.2.4-.2.6-.4.5-.4.5-.5.5-.6.4-.3.2-.4.2-.5.2-.5.2h-.6l-.4.1h-1l-.4-.1-1.4-.5-1-.3-2-.8-2.7-1.2-.6-.2h.2l.3-.2.1-.2.1-.1.2-.2v-1.1l-.2-.4-.4-.5-.3-.5-.3-.3-.3-.4-.8-.6-.8-.6-.4-.3-.6-.4-.4-.3-.4-.3-.3-.3-.1-.1-.4-.5-.2-.5-.1-.3v-.4l-.2-1.2v-1.7l-.1-.2-.1-.2-.1-.2-.4-.3h-.5l-.4.3-.9.6-.4.3h-.3l-.2.1h-.8l-.3-.2-.4-.3-.2-.4-.2-.4v-1.2l.1-.7.3-.7.3-.8.4-.8 1.2-2.4.4-.8.4-.9.3-.8.1-.4v-.4l.1-.8-.1-.7-.3-.7-.4-.5-.5-.5-.3-.3-.6-.5-.8-.7v.1l-.2.3-.1.2-.2.3-.5.6-.6.6-.7.7-.6.4-.6.4-.6.4-.6.2-.6.2H65l-1.1.4-.5.1-.4.1h-1.6l-2.3-.2h-.8l-.7-.2-.6-.1-.6-.2-.6-.3-.9-.4-.4-.2-.5-.2h-.4l-.4-.1h-1.7l-.4.1-.5.3-.7.3-.7.5-.7.5-.7.5-.7.6-.7.6-1.3 1.1-4.1 3.6-2 1.8-1.5 1.2-.7.6-1 .8-1.3 1-2 1.3-1.6 1.1-4 2.6-.9.6-6.5.7-2-7.5-2.2-8.5-.7-2.8-.2-.9-.1-.8-.2-.9v-2.4l.3-.6.3-.6.5-.5.3-.2.4-.3.6-.4.5-.3 1.4-.6 2.9-1.5.6-.3.8-.4.4-.3.4-.3.4-.3.3-.3.4-.6.2-.5V221l-.1-.5-.2-.6-.2-.6-.3-.7-.4-.6-.5-1-1.2-2-.4-.6-.1-.3v-.2l3.9-1.7 1.8-.8 2.2-1 .8-.4.5-.2h.4l.4-.2h.3l.4.1.7.2H34l.3-.2.5-.1.9-.5 1.3-.7 7.3-4.2.3-.3.4-.2 1.3-1 .6-.5 3.6-2.5 1.2-.8.7-.4.7-.3 1-.5 2.5-1 4.8-2 2.2-1 .3-.1h.1l.1-.1v-.1l.1-.1v-.3H64l-.5-.7v-.1l-.2-.1v-.1h.3l.5-.1h.2l.6-.3.7-.3.8-.4 2.3-1.5.8-.4.8-.5.8-.4.9-.3.9-.3.8-.2.9-.2.9-.2 2.6-.4 7.4-1.3 7.8-1.3 1.5-.2 1.3-.2h2.2l.4.3.2.2.1.2.2.3v1l-.3.8-.1.4v.2l.1.2.1.2.2.2.2.2.3.1.3.1h1.3l.7-.3.6-.3.4-.2.3-.2.2-.3.2-.2.2-.4.6-1 .1-.1.2-.3.3-.3.4-.2.5-.3.4-.2.6-.3h.4l.3-.2h.8l1.6-.1.6-.1h.3l.4-.2.5-.3.5-.3.4-.4 1.2-1.1.4-.3.6-.5.5-.4.7-.5.6-.3.5-.3.5-.3.7-.3.7-.3.7-.2.7-.3h.4l.2-.1v1l.1.5.2.4v.2l.3.3.2.2.8.8.3.5.4.5.1.4.2.5v2.6l-.2.4-.2.6-.2.5-.3.5-.2.3-.3.4M83.9 20.2l.5.3 1.7 1.3.6.4.6.4h.2V24l-.1 1v2.3l.1.8.4 3v1.7l-.2.5v.5l-.2.5-.2.4-.2.4-.8 1.4-.3.6-.2.4-.1.5-.1.5-.1.4-.1.8-.1 1v4.7l.2.8.2.8.3.7.4.7.5.7 1.5 2 .5.5.3.6.3.6v.5l.2 1v.2l.2.3v.3l.2.4.9 1.6.3.5.3.4.3.4.4.5.8 1 1 1 .2.2.3.2.7.6.7.5.7.5.4.3.2.3.2.3.2.4v.5l-.1.5-.2.4-.3.3-.2.2-.5.3H96l-.6.2H94l-.2.1-.2.1-.1.2v.2l.3.3.2.2.4.2 1.3.7.6.3.4.2.3.3.3.3.2.2.2.4v.4l-.5 1.2-.1.4-.1.3v2.3l-.1.5-.2.9v2l.1.3.4 1.2v.7l.1.3.1.9.3 1.2.1.6v1.2l-.2.3-.2.4-.3.3-.4.3-.6.3-.9.5-1.3.7-3.4 1.7-3.6 1.7-.6.3 2.3 6.3.6 1.8 1 3 1.5 4 .4 1 .5 1.3.4 1 .5.8.2.4.2.4.3.3.5.5.5.7.3.3.4.3.7.5 1.7 1 .3.1h-.2l-.1.2-.2.1-.1.2-.1.2v.2l-.3 1-.3.5-.3.4-.4.3-.3.3-.3.2-.3.4-.6.9-.1.2-.2.4-.1.6v.6l.2 2v.9l.1.7.2 1 .5 2 .2.7v.7l.2 1.4v.4l.1.4.3.6.3.5.3.7 1.3 2 .4.7.2.4.3.7.2.6.1.6.1.4v1l-.1.5-.1.3-.2.4-.2.4-.3.6-.3.5-.3.4-.5.5-.3.3-.6.6-.6.6-.9.7-.8.7-.7.5-1.2.7-.5.4-.6.3-.6.3-.4.2H90l-.3.1h-.3l-.8.1H88l-.5-.2-.6-.3-.7-.4-.5-.4-1.8-1.3-.4-.4-.4-.2H83l.2.3 1.5 2.2.6 1.1.6 1 .2.4.3.5.1.4v.3l.1.3v.6l-.2.3-.1.2-.2.2-.3.2h-.5l-.2-.1-.2-.2-.2-.1-.8-.8-.4-.3-.3-.2H83l-.4-.1h-.2l-.3.2H82l-.4.3-.2.2-.3.5-1 1.5-.5.6-.4.5-.4.5-.5.4-.5.3-.4.2h-.6l-.3-.1-.2-.1-.3-.2-.4-.2-1.6-1.2-.4-.2-.3-.3H73l-.4-.3h-1.1l-.5.2-.5.3-.3.2-.6.6-.4.3-.4.3-.2.2-.3.1h-.1l.1.4.3.6.5 1.2.7 1 1 1.8.2.4.1.3.1.3v.7l-.2.2-.2.1-.2.1-.2.1-.4.2-1 .4-.7.1-1.2.4-.6.1-1.2.5-.5.2-.8.4-.5.2-.3.1h-.3l-.3.1h-.2l-.2-.2-.2-.1-.1-.2-.2-.2v-.2l-.5-1v-.1H61l-4.8-10.3-.8-1.8-.5-1.3-.2-.6-.1-.6-.1-.6v-1.1l.2-1.6v-1.5l-.1-1.6-.2-2.2v-.6l-.2-.5-.1-.5-.2-.4-.2-.4-.5-.6-.4-.8-1-1.8-.3-.4-.2-.2v-.2l-.2-.1H51l-.3-1.2-.2-.6v-.2l.1-.5v-.9l-.2-.2h-.1l-.2-.2H50l-.5-.2-.7-.3h-.6l-1.9-.5-1.5-.4-.7-.1-.7-.3H43l-.3-.2-.5-.3-.4-.2-.3-.2-.2-.2-.3-.3-.2-.4-.4-.8-.3-.5-.7-1-.2-.2-.3-.4-.3-.3-.4-.2-.5-.3-.4-.2-.4-.1-.5-.1h-.9l-.8.3h-1.2l-.5-.2-.5-.2-.5-.2-.4-.3-.5-.3-.4-.3-.4-.3-.3-.4-.6-.8-.2-.2-.4-.3-.3-.3H28l-.3-.1h-.3l-2-2.6-.5-.6-.6-.6-.3-.3-.1-.2-.2-.3v-.5l.1-.2.1-.2.3-.4.4-.5 2-2.2.4-.5.3-1.4.3-1 .2-.6.3-1 .2-.4v-.6l-.2-.5v-.3l.2-.2h.1l.3-.2.4-.1.6-.2 1-.2 1.4-.3 1.4-.3h.8l.1-.1h.3l2.3-.3 1.3-.2 1.3-.2.6-.2.6-.1.5-.2.5-.2.5-.3.2-.1.3-.2.3-.4.2-.2.4-.5.3-.5.5-.7.4-.7 1-1.4.5-1 .5-.9.1-.4.2-.3.3-1.1.3-1 .2-.4.2-.3.2-.3.3-.5.3-.4.5-.6 1-1 2.3-2.5.6-.7.5-.7.4-.5.3-.4.4-.8.3-.4.1-.2h.2l.2-.2h.1v-.2l-.5-2-.3-1.3-.2-.6-.2-.8-.3-.5-.2-.3-.2-.3-.2-.3-.2-.2-.2-.2h-.3l-.3-.2-.7-.2-.5-.2-.4-.1-.4-.2-.4-.4-.4-.2-.4-.4-.3-.3-.2-.4-.2-.4v-.2l-.1-.2v-1l.1-.9.6-2.4.5-1.9.2-.4.1-.4.2-.4.6-1.1.2-.4.2-.6.3-1 .6-1.8.2-.8.2-.3.1-.3.2-.2.1-.2h.1l.3-.1.8-.3.7-.3 2.2-1 .6-.1 1.3-.5.7-.2.6-.4.5-.4.4-.5.2-.4.1-.3v-1l-.1-.7-.3-1-.2-.8-.2-.5-.5-1-.1-.3-.1-.4-.1-.5V46l.1-.4.3-.4.3-.7.2-.4 1-1.6 2.3-3.5.5-.9.3-.6.3-.7.3-.6.3-.8.3-.6.2-.7.1-.5.1-.4.1-.6v-2.9l-.2-1-.2-.9-.5-2-.2-1-.2-.9v-.5l-.1-.3V23l.2-.1.4-.1h.4l.4-.1h2.9l.5-.2.5-.2h.3l.3-.2.4-.3.8-.6.3-.2.5-.2.4-.2h.3l.4-.2H77l.2-.1h.2l.3-.1.3-.1.9-.5.4-.2h.4l.4-.1h.6l2 .5h.4l.4.2.4.2" clip-path="url(#p300febce67)"/></g></g><defs><clipPath id="p300febce67"><path d="M7.2 7.2h150.5v266.1H7.2z"/></clipPath></defs></svg>