<svg xmlns="http://www.w3.org/2000/svg" xmlns:xlink="http://www.w3.org/1999/xlink" width="266.1" height="374" viewBox="0 0 199.6 280.5"><defs><style>*{stroke-linejoin:round;stroke-linecap:butt}</style></defs><g id="figure_1"><path id="patch_1" fill="none" d="M0 280.5h199.6V0H0z"/><g id="axes_1"><g id="PatchCollection_1"><defs><path id="mc524bbff7d" stroke="#f4f4e2" d="M149.6-239h2.1l.6-.2h.5l.6-.2.4-.1.6-.3.4-.2.7-.3.7-.5.4-.3.9-.7.5-.4 2.3-1.9 2-1.7.9-.6.5-.4.7-.4.9-.6.4-.3.5-.2.4-.3h.4l.3-.1v1.6l.1.1.4.4.2.2.1.2v.2l.1.2v.2l-.1.3-.2.5-.2.3v1l.1.3.1.2.1.2.2.2.3.5.4.4 1 1 .2.3.3.4.3.5.3.5.2.3.1.4.3.6.1.5.1.7.1.5v2.3l-.1.4-.2.8-.1.4-.5 1.4v.3l-.1.3v1.7l.1.6.3.8.1.4.2.6.3.6.9 1.8.3.6.5.9.2.3.3.4.3.5.3.3.3.4.3.3.5.4.5.4.6.5.5.3.6.5 1.2.7 1.8 1 .4.3.4.3.3.3.3.3.4.4.3.5.3.6.3.5.1.5.1.5v2.5l-.1.7-.2.8-.2.7-.2.6-.2.6-.2.5-.2.4-.2.4-.2.3-.3.4-.1.1h-.2l-.4-.2h-1.1l-.6.1-.5.1-.4.1-.4.2-2.1.7-1.3.4-.7.3-.5.2-.4.2-1.5.7-.2.1-.4.2-.7.2-.5.1-1.6.4-.5.1-.5.2-.4.1-.7.3-.5.3-.6.4-.4.4-1.3 1-.7.6-.5.3-.6.4-.5.3-.8.4-.4.2-.7.3-1 .3-.4.2-1.5.5-2.2.5-.8.3-.5.2-.6.3-.4.2-.4.2-.5.3-.5.4-.3.3-.6.6-.2.2-.7.8h-.1v2l.3.9.1.5.2.4.3.9.6 1.4.3.8.1.5.1.5v.6l.1.5v2l.1.8v.4l.1.5.1.5.2.5.1.5.2.5.1.4.2.4.3.6.4.6.5 1 .3.4.1.3.2.4v1.7l-.2.4-.4.8-.1.2v.3l-.1.2v1.5l.1.5v1l-.2.5-.1.5-.2.5-.8 1.3-.5 1-.6.7-.6.8-.6.7-.4.4-.3.3-1 .8-2.8 2.3-1.1 1-1.5 1-.4.4-1.5 1.2-1 .8-.9.7-1.5 1.3-.6.7-.2.5-.2.4-.2.5-.5 1.4-.2.8v1l.2.3v.1l.4.4.4.3.5.2.5.2.6.2.7.2 1 .2 1.9.4.8.2.4.1.5.2.4.2.4.3h.1l.2.3.1.1.1.2.2.3v.2l.1.4.2.8v.5l.1.9v.3l.1.3.1.2.1.4.3.5.2.5.6 1.2.6 1.1.4.9.5 1.4.4 1 .3 1 .2.8.3 1.3.2.7.2.5.2.3.2.4h-.2l-.4.2-.5.1-.9.3-1.2.6-2.8 1.2-1.9 1-1.4.7-1 .6-1.9 1.2-.3.2-.5.2-.3.1-.8.3-1 .2-.9.3-.6.1h-.4l-.3.1h-1.7l-.5.1h-.5l-1.3.4-.8.1-.5.2-.3.1-.3.2-.3.2-.4.3-.2.3-.2.3v.8l-.1.3v1.7l.2 1.5v2.5l-.2.9-.2.6v.4l-.2.5-.2.4-.1.3-.2.2-.2.3-.2.3-.3.3-.4.3-.2.2-.4.2-.2.1-.3.1-.8.3-1 .3-.6.2-1.7.7-.8.3-1 .4-2.2.6-.5.2-.6.2-.4.2-.4.2-.3.3-.2.2-.2.4v.2l-.1.6v1.5l.3 2.2.1.6v.8l.1.6.3 1v1.5l-.2.3-.1.4-.3.6-.2.3-.2.4-.4.5-.3.3-.3.4-.4.3-.3.2-.3.3-1.4.7-.5.4-.5.3-.6.4-.2.2-.3.3-.2.3-.3.4-.1.4-.1.2v.9l.2.3h.1l.2.2.2.2.3.1.4.2.8.3.4.1.2.2.4.2.4.3.3.3.3.4.2.3.3.4.5 1.2.4.7.7 1.4 1.7 3 1 1.5.3.8.6 1.2.7 1.5.7 1.5.6 1.6.7 1.8v.3l.1.1-.2.1-.1.1-.1.2-.1.2-.1.2-.2.4v.2l-.2.2v.9l.2.7v1.3l-.3 1-.2 1-.4 1.3-.2.6v.5l-.2.9v.4h-.1l-.2.4-.2.4-.5.5-.2.3-.1.3-.2.4-.2 1.2-.1.3-.2.3v.3l-.3.2-.3.3-1 .9-.4.4-.3.4-.7.9-.3.2-.4.4-.9.8-.5.4-.6.3-.7.5-.8.4-.4.1-.5.3-.5.1h-1l-.2.1-.3.1-.2.1-.6.3-.6.4-.5.4-.4.3-.6.5-.3.3-.4.3-.3.1-.4.2-.5.2-2.4.7-.6.2-.6.2-.6.3-.6.2-.5.4-.4.2-.3.3-.3.2-.8.8-1.3 1.3-1.1 1.2-.9.9-.7.8-.5.6-1 1.6-1 1.3-.5.7-.4.5-.4.5-.4.4-.5.5-.5.5-.5.3-.1.1-.3.2-.4.2h-.6l-.3.1h-.8l-.4-.3-.4-.2-.4-.3-.4-.4-.1-.1-.1-.2-.2-.4-.2-.6-.1-.7-.2-.8v-1l-.1-1.3v-1.9l.2-1.8.1-1.4.1-1.6v-2.2l-.4-2-.1-.6-.1-.8v-.9l-.1-.6v-2l-.1-1-.2-1-.2-1.3-.2-.6v-.3l-.1-.3-.1-.2-.1-.1-.2-.2-.1-.2h-.2l-.2-.1H74l-.4.2-.2.2-.3.1-.2.3-.3.2-1 1-.4.4-.3.3-1.3 1.1-.9.8-.3.3-.4.3-.6.4-.4.3-2.2 1.3-.7.5-.4.3-.4.3-.5.4-1.3 1.2-.6.5-1 1.2-1.2 1.1-.3.5-.3.3-.3.4-.1.3-.3.4-.4 1-.1.3-.3.3-.2.3-.3.3-.2.3-.5.4-.3.2-.4.3-1.2 1H53l-.6.4-1.4.6-.8.5-.5.3-.5.3-.3.2v.1h-.1l-.1-.2-.5-.5-.4-.5-.3-.3-.3-.2-.2-.2-.3-.1-.2-.1h-.3l-.2-.1h-4.3l-.3-.2h-.3l-.4-.3-.2-.2h-.2l-.1-.2-.2-.2-.1-.2-.1-.2-.2-.4-.1-.4v-1.1l.1-.3.1-.2.2-.2.1-.3.3-.3.3-.3 1-1.1.6-.6.6-.7 1.4-1.6 1.5-1.8.3-.3.5-.5.4-.3.6-.5 2.8-2.4.6-.4 1.5-1.1.9-.7.5-.4.4-.5.5-.5.3-.5.3-.5.2-.5.2-.6.2-.5v-.3l.1-.4.2-1.2.1-.5v-.2l.2-.2.1-.2.2-.2.2-.2.2-.2.3-.2.4-.2 1-.4 1.6-.5.7-.3.7-.3.5-.3.5-.4.4-.5.4-.5.3-.7.1-.6v-1.2l-.1-.4-.1-.4-.1-.4-.2-.5-.2-.5-.4-1-.5-1.2-1.5-4.2-.2-.5-1.3-2.9-.3-.9-.3-.7-.2-.7-.7-2.3-.4-1-.5-1-.2-.6-.2-.3-.5-.9-.7-1.1-.5-.7-1-1.4-.3-.7-.2-.3-.2-.3-.2-.3v-.2l-.2-.6-.2-.5-.6-2-.2-.7-.3-1.2-.2-.7-.1-1-.2-1.5v-1l.2-.6.2-.5.3-.4.2-.3v-.4l-.9-2.2-.2-.4-.2-.5-.3-.5-.3-.3-.3-.3-.3-.3-.3-.1-.4-.2-.4-.2-.4-.2-.5-.1-2-.6-.7-.2-.8-.3-.7-.3-.9-.4-.4-.2-.7-.5-1-.6-1.3-.9-.5-.3-1-.7-.8-.7-.5-.4-1-.9-.7-.6-.4-.4-.6-.6-.3-.4-.5-.7-.3-.4-.3-.5-.1-.3-.3-.5-.1-.4-.1-.3-.2-.5-.2-1.5-.2-.6-.1-.4-.5-1.3-.1-.6-.2-.6v-1.9l.2-.7.2-.7.2-.2.6-1.1.2-.5.1-.5v-.6l.1-.6v-1.1l-.1-1.3-.4-2.5-.4-2.5-2-12-1.7-9.4v-.3l-.3-1.3-.5-2.6-.5-2.8-.2-1.9-.1-.9v-.8l-.1-1v-5.1l-.1-.8v-.3l-.2-.7-.1-.7-.2-.6-.2-.7-.7-2-.3-.9-.3-.7-.6-1.5-1.6-3.8-1-2.3-1.5-3.2-2.9-6.3 3.5-1.8 2.1-1 1.5-.9 1.5-.8 4.3-2.4 2.2-1.1 3.6-2 2.2-1L39-207l2.2-1.1 1.3-.8 3.4-1.8 2.3-1.2 2.1-1.2 1.1-.5.5-.2 2.7-1.6 3-1.7 1.3-.8 1-.6 2-1.3 1.7-1.1 1.7-1 2.5-1.6 2.4-1.5 1.2-.7 1.4-1 1.2-.9 2.6-2 .8-.5.7-.4.6-.4.3-.2.8-.3.3-.2 1-.3.7-.2 1.8-.5 1.3-.4.8-.2 1.2-.5 1.2-.5 1.7-.7 2.5-1.1 2.3-1 1.5-.6 1.8-.7 1-.4 1.2-.6 1.2-.6 5-2.5 4-2.2 1.6-.8.5-.3 3.3-2.2 2-1.2.9-.6 1-.8.5-.4 2-1.7.5-.4.4-.4.6-.3 1-.5.9-.5 1.1-.6.7-.3 2-.8 2.6-1 1.3-.6 1.3-.6 2.2-1.1 3.3-1.6.1.1.1.3.1.5v1.4l-.4 1.4-.1.8v3.6l.1 1 .3 1.7.4 2.6.2 1.7.4 1.7.2.8.2.8.2.7.4.6.4.6.4.4.5.3.2.1.4.2.5.1.7.2 2.2.4 1.9.2h.3"/></defs><g clip-path="url(#pf82b1a7183)"><use xlink:href="#mc524bbff7d" y="280.5" fill="#f4f4e2" stroke="#f4f4e2"/></g></g></g></g><defs><clipPath id="pf82b1a7183"><path d="M7.2 7.2h185.2v266.1H7.2z"/></clipPath></defs></svg>