<svg xmlns="http://www.w3.org/2000/svg" xmlns:xlink="http://www.w3.org/1999/xlink" width="316.8" height="374" viewBox="0 0 237.6 280.5"><defs><style>*{stroke-linejoin:round;stroke-linecap:butt}</style></defs><g id="figure_1"><path id="patch_1" fill="none" d="M0 280.5h237.6V0H0z"/><g id="axes_1"><g id="PatchCollection_1"><defs><path id="m4277e3ca3d" stroke="#f4f4e2" d="m103.6-260.4.2.3.1.3.1.2.1.2v.2l.1.3v.3l.1 1v.3l.1.1v.2l.2.2.1.2.3.2.3.2 1.2.5.3.2.3.1.3.3.3.2.2.3.3.2.1.3.2.3v.2l.1.3v.9h.3l1.7-.2h.5l.5-.1.6-.1h.3l.6-.2.6-.1.5-.2 2.2-.7.8-.2 1.3-.3 1-.3 2.2-.7 2-.6.7-.3 1.4-.5.5-.2h.3l.3-.2h.4l.3-.1h2.5l1.5.2h.8l1.1.2 2.4.3h.8l.4 1.5.3 1.2.1.6.2.6v.5l.3 1.9v1l.1.5v2.9l-.1.4v.3l-.2.4v.3l-.2.4v.3l-.3.4-.7 1.6-.3.7-.2.7-.1.3-.1.4-.1.3v.5l-.1.5v1l.1.4.2.3.2.2.1.1.4.1h1.3l.4-.2.3-.2.3-.1.4-.2.6-.4.5-.2.5-.3.5-.2.5-.2 1-.4 1.1-.4 1-.4 1-.3 1-.4h.5l.4-.2h.9v.5l-.2.4-.2.3-.2.5-.3.4-.5.9-.6 1-.6.8-.4.5-.2.4-.3.3-.2.2-.3.3-.4.4-1 1-.4.2-1 1-.9 1-.2.3-.2.2-.3.4-.2.3-.2.3-.1.3-.1.2v.6h.6l.7-.2 1.6-.4h.5l.4-.1.8-.1 1.4-.2h2.5l3.3.2h.5l.6.1h1.7l1.2-.2h1.4l.2.2h.1l.2.3.2.3v1.3l-.2.7v1.4l.1.2.2.3.1.1.3.2.4.2.4.3.6.2.6.3.3.1.5.2 1.5.5h.2l.7.2h.3l.2.1.8.4h.3l.7.3.2.1.7.4h.4l.2.1h.5l.3-.2.4-.1.2-.1.2-.2.2-.2.1-.2.2-.3.2-.2.2-.1.2-.2.2-.1.3-.2h.4l.3-.2.4-.1.8-.3.6-.2.3-.1.3-.2.3-.2.2-.2.2-.3.3-.3.2-.3.3-.2.1-.1.3-.2.8-.4.4-.1.8-.3.8-.3h.3l.4-.1.6-.1h.4l.4-.1.3-.1.3-.2.1-.1.2-.2.1-.2.3-.4.3-.6.2-.3.1-.3.2-.2.3-.2.3-.1h1.6l1.1.1 2.7.5 1.3.2 1.8.2 1 .1 1 .1 1 .1h.8l1 .1h5.8v-.1h2.8l.5.1.3.2.3.2.2.3v1.4l-.2.4-.1.5-.2.4-.2.4-.3.5-.2.4-.4.4-.3.4-.7.8-.7.7-1 1.1-1.8 1.8-1 1-.7.8-.3.3-.6.8-.5.6-.2.3-.3.4-.1.4-.2.3v1.1l.2.3.2.3.2.2.4.4 1.2 1.3.4.5.2.2.3.2v.2l.2.2.3.4.2.5.2.4.1.4.2.4v.4l.1.3v.8l.1 1v.3l.1.9.1 1.1v1.7l-.2 1.1-.1.7v1.5l.1.2.1.1.2.2h.1l.3.2h.3l.4.1h1.3l.7-.2 1-.2h.4l.8-.2h1.4v.1h.1l.1.2v.6l-.2.8-.1.6-.2.4-.3.8v.2l-.1.2v.5l.1.2.1.1.1.1.2.1h.1l.2.2h1.3l.6 1 .3.7.2.2.1.3.3.3.1.2.2.2.1.2.3.2.2.1.2.1.3.2.9.3.2.1.3.2.3.1.2.1.2.2.2.2.8.7.2.2.3.2v.1l.1.1v.4h-.2l-.1.1h-.7l-.4-.1h-.3l-.1.1v1.6l-.1.2-.1.1-.1.1h-.4v.7l.1 1 .1 1v.4l.3 1.1.2.9.5 2.4.2.4v.3l.2.2.2.2.1.3.3.2.4.3.4.2 1.1.7.3.2.7.4.3.3.3.3.3.3.3.3.2.3.2.4.1.4.1.4v.6l-.1.2-.1.2-.2.2-.1.1-.4.3-.2.2-.3.2-.5.4-1.4.8-.7.5-1.5 1-.6.4-1 .7-.6.4-.2.2-.4.2-.2.1-.3.1-.3.2-.3.1-.3.1-.6.2-.6.2-.5.1h-.3l-.3.2h-1.8l-.9-.2h-1.1l-.1.1-.4.2-.2.3-.3.3-.1.3-.2.3-.1.4v.3l-.1.4v.5l.1.1.1.2.1.1.2.3.3.3.3.3.3.2.4.4 1 .8.5.3.4.3.1.2.2.2.3.4.8 1.2.2.2.3.4.3.3.4.3.4.2.4.2.5.1.4.1.5.1h.5l.6.2h1l3.6.4 1.2.1 1 .1.5.1h.1l-2.1 1.5-1.4 1-1.2.6-.7.5-.6.3-.3.1-.5.3-.6.2-1.5.6-.8.4-.5.2-.7.4-.6.4-.4.2-.2.2-.3.2-.3.3-.2.3-.3.3v.2l-.2.3v.2l-.8 2.5-.5 1.4-.4.9-.2.4-.2.5-.2.4-.2.3-.3.4-.3.3-.3.2-.4.2-.7.3-.3.2-.2.3v.8l.2.4.3.8.1.4.1.4v.4l.1.4v.8l-.2.4-.2.4-.2.4-.3.3-.3.3-.5.3-.4.3-.5.3-.4.2-1 .5-1.8 1-1.4.6-2.4 1.1-1 .5-1.5.8-.8.4h-.2l-.2.2-.4.3-.3.3-1 .9-.3.3-.3.3-.3.1-.3.2-.3.1-.6.2-1 .4-.2.1-.2.1-.4.2-.4.2-.3.3-.3.3-.1.2-.2.2-.5.7-.2.5-.5 1-.9 1.6-.4.7-.2.4-.6 1-.2.3-.1.4-.3.4-.2.7-.3.6-.2.8-.2.4-.2.8-.1.6-.2.6-.1.9-.1.4v.3l-.2.3-.1.2-.2.4-.1.2-.2.2-.1.2-.2.2-.2.2-.5.5-.1.2-.2.2-.1.2-.1.2v.1l-.1.2v.8l.1.2.1.3.2.3.2.5.2.3.7 1.5.2.5.2.2v.2l.3.3.1.2h.1l.2.2.3.1h.2l.2.1h2.3l.2.1.1.1.1.1.1.2.2.2.1.3.2.4.3.9v.3l.1.2v1.1l-.2.3v.3l-.4.8-.1.3-.1.5-.1.4v.3l-.1.3v1.4l-.1.3v.4l-.2.5v.3l-.2.3-.9 2.2-.1.4-.5 1.5-.2.6-.4 1-.6 1.5-.2.4-.3.7-.1.3v.2l-.1.1v7.3l.1.4v.6l.2.8v1.5l-.2.8v.4l-.1.2v1.1l.4 1.4.1.5.2.5.1.4.2.2.2.4.2.4.7 1 .1.3.1.2v.5l-.2.2-.3.1h-.3l-.3.1h-.8l-.8-.1h-3.2l-.3-.1-1-.2h-2l-.2.1-.2.1-.4.1-.3.2h-.1l-.5.4-.3.2h-.2l-.5.3-.5.2-1.3.3-2 .7-.7.2-2 .8-.4.1-1.5.5h-.3l-.4.2h-.6l-.1.1h-.1l-.1.1-.3.2-.2.2-.2.2-.2.1-.2.1h-.2l-.2.1h-.3l-.2.1h-1l-.4.1-.5.1h-.2l-.6.3h-.3l-.3.1-.6.1h-.6l-.4.1h-1.3l-.7.1h-.6l-1 .2-1.2.1h-1.7l-.5-.1h-.2l-.6-.2h-.9l-.4.2-.7.1-.8.2-2.9 1-1 .3-.5.1-.4.3-.5.2-.3.2-.5.4-.4.3-.2.2-.2.2-.2.2v.1l-.2.2-.1.3-.2.3-.4 1-.3.5-.2.3-.2.4-.2.3-.3.3-.3.3-.4.4-.4.3-.4.4-.3.2-.3.2-.4.2-.2.2-.4.1-.4.2-.4.1-.4.1-.6.2h-.5l-.7.2-.5.1h-.8l-.3.1h-3.4l-.3.2-.2.2-.2.2-.3.2-.2.2-1.1 1.3-1 1.2-.4.5-.2.3-.2.3-.4.8-.4.7-.7 1.1-.5 1-1 1.7-.2.3v.1l-.2.2-.1.1-.2.1-.3.2h-.3l-.5.2-.4.1h-.2l-.3.2-.3.2-.2.1-.4.2-.8.6-.3.3-.4.1-.2.2h-.2l-.3.1h-2.2l-2-.3h-2.2l-.5.1-1.4.3-.8.2h-1l-.9-.1h-1.3l-.4.2-.5.1-.5.2-1 .4-1.4.7-4.9 2.4-1 .5-.4.2-.5.2-.5.2-.5.2h-.5l-.5.2h-.8l-.2-.1h-.3l-.2-.2-.4-.3-.7-.4h-.2l-.5-.3h-.2l-.4-.2-1.4-.4-.4-.2h-.2v-.2l1.6-1.7.5-.6.3-.4.3-.4.4-.5.5-.9.2-.4.2-.3.2-.5.1-.3.1-.2.1-.3.1-.4v-1.7l-.2-.6-.2-.8-.2-.7-.1-.4-1-2.5-.3-1.1-.6-1.5-.4-.8-.2-.5-.2-.4-.3-.6-.4-.7-.2-.4-.4-.6-.3-.4-1.4-2-1-1.2-.4-.8-.3-.5-.3-.5-.4-.7-.2-.5-.3-.6-.2-.5-.2-.6-.2-.4-.1-.5-.3-.9-.2-.6-.1-.6-.2-.3v-.3l-.2-.4-.7-1.3v-.2l-.2-.3v-.3l-.2-.3v-.3l-.1-.3v-2.1l.3-2.4.1-.5v-3.4l-.1-.7-.1-.5-.2-.7-.2-1.2-.5-1.8-.2-1-.1-.6-.2-.8-.1-1-.1-.8v-.7l-.2-1v-.4l-.1-.7-.1-.7-.2-.6-.2-.8-.1-.6-.2-.4v-.3l-.1-.3v-1.5l.1-.4.1-.7v-.5l.1-.4v-1.3l-.2-.4v-.2l-.2-.3-.1-.1-.2-.3-.2-.2-.1-.1-.3-.2h-.3l-.3-.1-.3-.1-.6-.4h-1l-.8.4h-.4l-.3.1h-.5l-.2-.2-.2-.1-.2-.2-.1-.1v-.2l-.2-.1v-1.1l.2-.3.3-.9.4-1.1v-.3l.2-.3V-95l-.1-.3v-.2l-.1-.1-.1-.3-.3-.5-.1-.2-.1-.3-.2-.4-.1-.5v-.3l-.1-.3v-.4l-.1-.3v-1.5l.4-2.7.2-1.5.3-1.9v-1.8l-.2-.5-.2-1.2-.2-.7-.2-1.7-.3-1.2v-.4l-.1-.7-.1-1.2v-.8l-.2-.7-.3-2.3-.2-1.2-.6-2.6v-.2l-.1-.1v-1.2l.1-.4.3-.6.4-1 .1-.3.1-.2.2-.4.1-.1.2-.2.2-.3.2-.1.3-.3.6-.5.2-.1.3-.3.3-.3v-.1l.2-.3.2-.4.2-.4.3-1 .1-.2.1-.1.1-.2.2-.1.1-.2h.2l.1-.2.4-.1v-.1l-.3-.3-.6-.9-.3-.5-.2-.3-.3-.3-.3-.3-.8-1-.3-.2-.8-.6-.2-.2-.2-.3-.2-.2-.2-.4-.5-1-.4-.8-.2-.2v-.2l-.1-.3v-1.4l.4-1.5.2-.5v-2.6l-.1-.4-.2-.4-.1-.4-.2-.4-.2-.4-.3-.5-.3-.4-.3-.4-.4-.4-.3-.3-.4-.3-.2-.1-.6-.4-.3-.1-.2-.2-.2-.2h-.1l-.6-.8-.2-.2-.2-.2-.3-.2-.4-.2-.4-.1-.9-.3-.4-.1-.4-.2-.3-.2-.2-.2-.1-.1-.2-.4-.1-.2-.1-.2-.1-.4v-.4l-.1-.6v-.5l-.4-2v-.5l-.1-.5v-1.4l.1-.2h.1l.2-.3.1-.2.3-.2.2-.1.3-.2.1-.1.5-.3.5-.2.8-.3 1.4-.5.7-.3.5-.3.5-.3 1.5-1 1.6-1 .6-.3 1.2-.7.3-.2.2-.1.2-.1.1-.2.2-.1.2-.2.1-.2.2-.2.1-.2.2-.2.1-.3.1-.1v-.3l.2-.3v-1.5l-.2-1.3v-.5l-.2-.5-.2-.4-.1-.3-.1-.2-.2-.3-.2-.2-.2-.2h-.1l-.3-.2-.4-.3h-.1v-.2l.1-.2v-1l-.1-.8v-.4l-.1-.3v-.6l.1-.3.3-1v-.3l.2-.5v-4.5l.1-.2.2-.3.1-.2h.1l.1-.1.2-.2h.2l.4-.3h.1l.2-.1v-.1l.1-.1.1-.2v-.8l-.1-.7v-1.2l-.1-.2v-.4l-.3-.6v-1.4l.1-.2.1-.3.2-.5.2-.5.1-.3.5-.7.2-.4.1-.4v-.2l.2-.5v-1.3l-.1-.3v-.3h-.1l-.1-.2-.2-.1-.2-.1-.4-.2h-1.3l-.2-.2-.5-.3-.3-.2-.2-.2-.1-.1-.2-.2-.1-.3-.1-.2-.5-.7v-.2l-.2-.1-.2-.2-.2-.2-.1-.1-.4-.2-.4-.1-.5-.1-.8-.2H54l-.3-.2-.4-.2-.4-.1-.6-.4-.7-.3-.2-.1-.6-.4-.2-.1-.2-.1h-.1l-.2-.1h-.3l-.1-.1H49l-.2.1-.2.1-.3.2-.2.1-.2.2-.2.2-.5.4-.4.4-.2.4-.6.7-.2.3-.2.2-.2.2-.3.3-.2.2-.8.6-.5.4-.3.4-.3.2-.4.5-.8.8-.5.6-.3.4-.1.2-.2.2-.1.2-.2.3-.2.5-.4-.1-.4-.2-.5-.2-.7-.4-.4-.2-.6-.4-.4-.2-.4-.3-1.2-.8-.3-.2-.3-.2-.4-.1-.3-.2-.5-.2-.5-.2-1-.3-.4-.2-.4-.2-.3-.1-.2-.1-.3-.3-.7-.5-.2-.1-.3-.2H29l-.5-.3h-.3l-.3-.2-.6-.2H27l-.3-.2-.2-.1-.2-.2-.3-.2-.2-.2-.5-.7-.3-.3-.2-.1-.2-.2-.3-.1-1.1-.6-.8-.4-.5-.3-.2-.2-.1-.1-.3-.3-.2-.2-.2-.1-.2-.3-.3-.4-.4-.8-.2-.2v-.2l-.3-.2-.2-.2-.1-.2H19l-.2-.2h-.3l-.5-.2-.1-.1h-.2l-.2-.2v-.1l-.1-.2v-1.8l.1-.8v-.4l.2-.3v-.2l.2-.3.1-.2.2-.3.2-.2.2-.3.4-.4.4-.4.7-.6 1-1 .1-.2h.2l.2-.2.2-.2.8-.4.4-.2h.3l1-.4.4-.2.3-.2.2-.2.3-.2.1-.2.1-.2v-.2l.1-.2.1-.2h.2l.1-.2h.4l.5.2h1.3l.6-.3h.2l.2-.2v-.3l.1-.2v-1.1l.2-.1.6-.4.2-.1.3-.1.2-.1h.3l.5-.2.3-.1.2-.1.3-.2.1-.2.4-.7.1-.2.2-.2.2-.2.2-.2h.2l.3-.1h1.9l.5-.1h.3l.1.1.2.1h.5l.1-.2.6-.4.3-.1.2-.2h.4l.5-.2h1.3l.5.2h.4l.3.2.8.3.3.2.4.2.3.1.3.1h.6l.2-.2.2-.1.1-.2.3-.5.5-.8.1-.2.1-.2v-.2l.2-.3.2-.8v-.3l.1-.1.2-.2.7-.6.6-.6.3-.3v-.1l.2-.3v-.2l.2-.4v-.3l.2-.3v-1.5l.1-.4v-.3l.1-.3v-.1h.3l.4.1 1.1.4.4.1.4.1h4.2l.4-.1.3-.1.3-.2.3-.1.3-.2.7-.5.4-.2.4-.3.2-.3.3-.3.2-.2.3-.4.1-.2.3-.4v-.2l.3-.5.2-.4.6-1.1.3-.7.2-.4.2-.4.1-.4.1-.4v-1.1l-.3-1.1v-1.4l.1-.2h.1l.3-.1h.5l.4.1 1.4.5 1.3.4 1.4.5.5.2h.2l.7.4h1.3l.3-.1.4-.1.8-.4.6-.3 1-.4.3-.1h.8l.8.4h.3l.4.2h.5l.4.1H79l.5.1h.1l.4.1.4.1.4.1.7.3 1.3.4.2.1h.2l.2.1h.9l.2-.1.2-.1.2-.1.2-.2.6-.5.3-.3.6-.4.2-.2.2-.3.2-.2.1-.1.2-.3v-.2l.2-.4v-1.1l.1-.3.1-.4.1-.2.1-.3.2-.3.2-.3.1-.3.6-.8.3-.4.2-.3.1-.3.2-.4v-.3l.2-.3.1-.5.3-1.2.1-.3.2-.7.2-.5.2-.4v-.3l.2-.2.2-.1h1l1.2-.4h.9l.5-.1h1.3l1.5-.2h1.6l.5-.1h1.7l.3.1h.4l.2.2.3.1.3.2.2.2"/></defs><g clip-path="url(#pca2c6d77bf)"><use xlink:href="#m4277e3ca3d" y="280.5" fill="#f4f4e2" stroke="#f4f4e2"/></g></g></g></g><defs><clipPath id="pca2c6d77bf"><path d="M7.2 7.2h223.2v266.1H7.2z"/></clipPath></defs></svg>