<svg xmlns="http://www.w3.org/2000/svg" width="495.4" height="323.5" viewBox="0 0 371.5 242.7"><defs><style>*{stroke-linejoin:round;stroke-linecap:butt}</style></defs><g id="figure_1"><path id="patch_1" fill="none" d="M0 242.7h371.5V0H0z"/><g id="axes_1"><g id="PatchCollection_1" fill="#0c1321" stroke="#0c1321"><path d="m244.5 115.7 1.5.6.8.3.4.2h.3l.8.3h.2l.2.1.3.1.3.2.3.1.2.2.3.2.2.1.1.2.1.1.4.4.3.4.3.3v.2l.1.2v.6h.1l.2.3.5.6.4.4.2.3.2.3.1.3.2.3.3.8.2.4v.2l.2.4.2.2v.1l.2.2.2.2.1.2h.2v.1h.4l.2.2h2.9l.2.1.4.2h.8l.1.1h.1l.2.1v.1l.1.1.1.1v.6l-.1.1-.1.1v.1l-.3.1-.1.1-.1.1-.5.2v.9l.1.2v.1l.1.3.1.1.1.3.2.3h.1l.1.2.2.1.2.1h.8l.2-.2h.2l.2-.2.6-.4h.2l.1-.1.2-.1h.3l.1-.1h.5l.4.2h.7l.2.1h.2l.6.3h.2l.3.1h1l.7-.1h2.2l.1-.1h.3l.3.2h.1l.7.5h.2l.2.2h.7v-.1l.2-.1.2-.1.1-.1.2-.2.2-.2.1-.1.2-.2.1-.2.1-.1.1-.2.2-.2.2-.5.2-.2v-.2h.2l.1-.2.3-.3.1-.1.1-.1h.1l.1-.1h.2v.2l.2.1v.3l.2.2v.1l.2.1.2.1.2.1h.2l.3.1h.1l.2.2v1.5l-.3.6v.4l-.1.2v.4l.1.2.1.2.1.2.4.6.2.2v.2l.1.1v.9l-.2.8v.6h.1l.2.1h.2l.7.2.3.1h.2l.2.2h.2l.3.2.3.2.2.1.2.2.2.2.3.3.2.2.3.3.1.2.2.2v.2h.1v-.1l.3-.3.1-.1.2-.2v-.2l.1-.2.1-.3.1-.1v-.1l.2-.1.2-.1.2-.1h1.6l.2-.1h.3l.1-.1.3-.2.4-.2h.2l.2-.1.7-.2.3-.1.4-.1.2-.1.2-.2h.1l.1-.1.1-.2v-.7l.2-.1.1-.2.2-.2.8-.7.5-.6.1-.1.3-.3.3-.4.2-.3.2-.2.1-.1.4-.4.2-.1v-.2l.1-.1.1-.2v-.2l.2-.5v-.2l.2-.1v-.1h.1l.1-.1h.2l.2-.1h.3l.5.1h.7l.4-.4.2-.1.3-.2.2-.1h.2v-.1h.9l1.2.6.4.2.3.1.3.1.2.1h.3l.5.2h.7v.1h.2l.2.1.2.2.5.6.4.5.4.5.5.6.4.6.2.3.2.3.2.4.6 1 .3.7v.5l-.1.3-.1.6-.3 1v.5l-.1.4-.1 1.2v1.4l-.1.2-.1.5v.2l-.1.2v.1l-.2.1v.1l-.2.2h-.3v.1h-.8l-.2.1-.1.1-.4.4-.1.2h-.2l-.1.2h-.3l-.7.4h-.2l-.5.3h-.2l-.1.2-.3.1-.2.2v.1l-.3.2v.1l-.2.2-.1.2v.2l.3.2h.1l.1.2h.1v.1l.2.2v1.8l.1.1.3.4.2.2h.1l.2.2.3.2.2.1.2.1.7.4.5.3.2.1h.1l.1.2h.1l.1.2v.1l.1.1v.2l.2.7v.1l.2.2v.2l.2.2.6.7.3.4.2.2.2.1v.4l-.2.1v.1l-.2.2-.2.2h-.2l-.3.3-.3.2-.6.3-.2.2-.3.1-.3.3-.4.2-.2.3-.2.2v.2l-.2.2v.2l-.2.3v.3l-.1.4v.3l-.2.8v.7l-.3.6v.6l-.1.4v4.6l.1.2v.2l.4.7v.2l.1.2v.2l.1.2v.5l-.1.3-.2.2-.1.2-.2.3-.2.2-.8 1-.2.3-.2.3-.3.4-.2.3v.1l-.2.3v.2l-.1.2-.1.2-.1.4v.2l-.1.3v2.2l-.1.1-.3.2h-.1l-.1.2h-.1l-.1.2-.2.2-.1.2v.2h-.1l-.1.1-.1.2h-.1l-.1.1h-.1l-.2.1h-.6l-.2-.2h-.1l-.3-.3-.3-.3-.5-.5-.3-.3-.3-.3-.2-.2-.2-.1-.2-.1-.2-.1-.2-.1h-.9l-.6.3-.3.1h-1.1l-.2-.1h-.8l-.2.1-.2.2-.2.1-.3.2-.7.5-.2.2h-.2v.1h-.4v1.7l-.1.2v.2l-.1.2v.2l-.2.2v.2l-.2.2-.2.2-.8 1-1.1 1.3-.2.2-.2.2-.3.2-.2.2h-.3l-.2.2h-.4l-.3.1-.3.1h-1.8l-.4-.2h-.3l-1-.3-.3-.1h-.3l-.3-.1h-.7v.1l-.1.1-.1.2v1.4h-.1l-.2.2h-.3l-.2.1h-.2l-.3.1-.7.1-.5.1-.4.1-.5.1-.3.1-.5.2-1.7.5-.4.1-.5.2h-.2l-.4.2h-.6l-.7.2h-.5l-.5.2-.3.1-.6.2-.5.2-.6.2-.3.1-.3.2-1.4 1-.3.3-.3.1-.2.2-.4.1-.2.2h-.3l-.3.2h-.5l-.4.2H256l-.2.1h-.1l-.3.2h-.2l-.3.2h-.2l-.4.3h-.2l-.3.2-.3.3-.4.3-.3.2-.2.2h-.2l-.2.1h-.2l-.1.1h-1l-.1.1h-.4l-.4.2-.6.2h-.4v.1l-.1.1v.7h.1v.3l.1.1.1.2.2.3.6.9.2.2v.2l.2.2v.3l.1.2v.4l-.2.2h-.4l-.1-.2-.1-.1-.1-.1-.2-.4v-.1l-.4-.8-.1-.3-.2-.4-.1-.2h-.1l-.1-.2-.2-.2-.1-.2h-.2l-.1-.2h-.2v-.1h-.2l-.2-.1h-3l-.3.2h-.3l-.2.2h-.2l-.4.3-.3.2-.2.2-.4.3-.4.3-.4.4-.4.3-.2.2-.4.4-.6.6-.2.2v.1h-.2v.1l-.2.1h-.2l-.3.1h-.1v.1h-.2l-.1-.2v-1.2l-.2-.2-.1-.2-.1-.3v-.2l-.2-.3v-.7l.1-.2.2-.4v-.2l.1-.2v-.7l-.2-.2v-.1l-.2-.1-.3-.2-.2-.2-.2-.2-.2-.3-.1-.2-.1-.2v-.2l-.2-.3v-.3l-.2-.2v-.2l-.2-.1-.1-.2h-.3l-.3.1h-.9l-.2-.1h-.6l-.5.3h-.3l-.2.1h-.4l-.2.1h-.1l-.2.1-.6.3-.3.2h-.2l-.2.2-.2.2-.2.1-.2.2-.2.3v.1l-.2.2v.7l.1.1.1.4.1.2v.2l.1.6v.8l-.1.1h-.1v.1l-.2.1-.2.1h-.2l-.2.1-.4.1h-.5l-.1-.2h-.2l-.2-.2-.4-.3-.2-.2h-.2l-.1-.2h-.2l-.1-.1-.3-.1h-.2l-.6-.3-.2-.1-.3-.1-.2-.1-.2-.1-.2-.1-.2-.2-.8-.5-.3-.1-.2-.2-.3-.1-.3-.1h-.2l-.2-.2-.2-.2-.4-.4-.2-.2-.2-.1-.2-.1h-.1l-.1-.1h-.8l-.2.1-.3.1-.2.1-.3.1-.2.2-.5.4-.3.2-.2.2-.2.2-.6.6v.8l-.1.6v2.6l.3 1.3v1.2l.1.3.1.3.1.3.1.3.1.3.2.3v.3l.2.3.1.2.1.2.2.3.2.2.2.3.2.2.8.6.2.3.2.2.2.2.1.2v.3l.1.1v.3l-.1.2-.1.3-.2.2-.1.2-.2.2-.1.1-.1.1-.3.2-.2.1-.8.4-.3.1-.7.3-1 .4-.4.2-.5.2h-.2l-.3.1h-1l-.1-.1-.1-.1-.3-.4h-.1v-.2h-.3v-.1h-1.3l-.2-.2-.4-.2h-.9l-.7.1-.4.3h-.2l-.1.1-.2.1h-.4l-.2-.2v-.1l-.2-.2v-.2l-.2-.4v-.2l-.1-.1-.1-.2-.1-.2h-.1l-.1-.1-.1-.1h-.3l-.1-.1h-1.3l-.5-.1h-1.3l-.2.1-.2.1-.2.2-.2.1-.3.1-.6.3-.2.1-.3.2-.7.5-.3.2-.4.2-.3.2h-.2l-.3.2-.5.1-.4.2h-.4l-.3.1-.8.2-.4.1v.4l-.2 1v1.3l.1.2.2.6.1.4.1.4.1.6v.4l.1.5v1.5l-1.3.6-3 1.2-.7.3-1.8.8-.8.3-.9.4-.6.2-.4.2h-.3l-.2.1h-.3l-.2.1h-.3l-.3.1h-.1l-.2.1h-.1l-.2.2-.6.3-.8.5-.4.2-.4.2-.6.2-.3.1-.3.1-.3.1h-1.1l-1-.3-.2-.1-.5-.2-.2-.1h-.3v-.4l.1-.3v-3h-.1l-.2-.2h-.8l-1 .2-.6.1h-.3l-.1.1-.2.1h-.1l-.1.2-.4.3h-.3l-.2.2h-.3l-.2.1h-.7l-.5-.2h-.8l-.2.1-.1.1h-.1l-.1.2-.1.1-.1.1-.4.8-.2.2-.3.4-.2.3-.2.2h-.2l-.1-.1-.1-.1-.1-.1v-.2l-.2-.2v-.3h-.1v-1l.1-.2.2-.5v-.3l.1-.2v-2.6l.1-.4v-.3l.1-.2.1-.1.1-.2.1-.1.1-.2.1-.1.2-.1.2-.2.2-.1.7-.6h.1l.2-.2v-.1l.1-.2v-.6l-.1-.2-.2-.3-.2-.1-.2-.1-.1-.2h-.1v-.1l-.2-.2v-.2l-.2-.3-.2-.4v-.1h-.5l-.5.2-.3.1-.4.2-1.1.4-.4.2h-.3l-.3.1-.2.1h-1l-.1-.2h-.2l-.1-.2-.5-.5-.2-.2-.2-.1-.2-.2h-.2l-.2-.2h-.1l-.3-.1h-2.2l-.5.1h-.2l-.4.1h-1.2l-.2-.1v-.1l-.2-.2-.2-.1-.5-.7-.2-.2-.2-.2-.2-.1h-.1l-.2-.1h-.2l-.2-.1h-1.2l-1 .3h-.5l-.3.1H149l-1.4-.2h-.5l-.1-.1h-.3v.2h-.1v.1l-.2.1v.2l-.2.5h-.1l-.1.2h-.1l-.5.5h-.1l-.2-.2h-.3l-.2-.1-.4-.1-.5-.2h-.3l-.2-.1h-.8l-.2-.1-.6-.2h-.6l-.1.1-.1.2v.3l-.1.5v.2l-.1.1v.1l-.1.1-.1.1h-.1l-.2.2-.5.2h-.3l-.2.2-.2.1-.4.3-.3.2-.4.3-.2.2v.1h-.1l-.1.2-.1.3v.6l-.1.1v.3l-.1.2-.1.2-.1.1-.3.4-.1.2-.2.3-.2.1-.2.2-.2.1-.1.1h-.1l-.2.1h-1l-.2-.1v-.1h-.2l-.2-.2-.5-.5-.1-.2-.2-.2-.1-.2-.1-.2-.1-.2h-.1l.5-.3.2-.2.2-.1.1-.1.2-.2v-.1l.2-.2.2-.3v-.3l.2-.1v-.3l.1-.1v-1.5l-.1-.6v-.5l.1-.3.1-.3.3-.6v-.5h.1v-.7l-.1-.1-.1-.2h-.2l-.2-.2-.2-.1h-.2l-.3-.1h-1.1l-.3.1h-.3l-.7.3h-1l-.2.1H129l-.3.1h-.4l-.1.1h-.6v-.1l-.2-.1h-.1l-.2-.2v-.1l-.1-.1v-.1l-.2-.2-.2-.6-.1-.3-.1-.3-.3-.6-.2-.4v-.2l-.2-.2v-.3l-.1-.1v-.2l-.2-.2-.2-.2-.4-.5-.2-.2-.3-.3-.5-.6-.8-.8-.2-.2-.1-.2-.1-.1-.1-.2-.3-.5-.3-.4-.2-.3v-.2h-.2l-.2-.3-.2-.1-.1-.2-.4-.3-.3-.2-.1-.2-.3-.3-.1-.1-.2-.1h-.4l-.4.1h-.1l-.2.1-.5.1-.6.1-.5.1H115l-.2-.1h-.1l-.3-.1-.2-.1-.2-.2h-.1l-.1-.1-.4-.4h-.1v-.1h-.4l-.1-.1v-.3l.1-.1.1-.1.5-.5v-.2h.1v-.2l.1-.1v-1.2l-.8-2v-.5l-.1-.3v-.7l.1-.2.6-.4v-.1l.3-.3.1-.1.2-.1.1-.1h.1l.1-.1h.1v-.1l-.4-.2-.3-.3-.6-.5-.3-.3-.3-.2-.3-.2-.7-.4-.2-.2h-.2l-.3-.2-.3-.1-.5-.2h-.2l-.6-.2-.5-.2h-3.7l-.3-.1h-.6l-.5-.1h-.2l-.1-.1-.6-.2h-.4l-.5-.1h-.2l-.1-.1h-.1l-.2-.2-.1-.1-.1-.2v-.4l-.1-.2v-.6l-.1-.4v-.3l-.2-.7v-1.2l.2-.3.2-.6.2-.5.2-.6v-.4l.2-.5v-.6l.1-.2v-.9l-.2-.3-.1-.3-.1-.2-.2-.3-.2-.2v-.1l-.1-.1h-.1l-.2-.2-.7-.5h-.1l-.1-.2-.2-.2-.2-.2-.1-.1-.2-.3-.1-.2-.3-.3-.5-.5-.2-.2-.7-.5-.2-.2-.3-.2-.1-.1-.1-.1h-.2l-.1-.1-.3-.2-.5-.2-.1.1-.5.7-.3.4-.6.6-.1.2-.3.3-.2.3-.1.2-.2.2-.2.4-.2.4-.4.7-.3.7-.1.2-.2.3-.2.2-.1.2-.2.3-.2.2-.2.2-.3.2-1 1-.4.3-.2.3-.2.2-.2.2-.2.3-.2.2-.1.3-.2.2-.1.3-.3.7v.2l-.1.1-.2.3-.1.2-.3.2-.2.2-.2.2h-.1l-.3.2h-.1l-.2.2-.3.1-.3.1h-.3l-.2.1h-1.2l-.3-.2h-.3l-.3-.2-.3-.2-.8-.4-.3-.1-.2-.1-.3-.1h-.2l-.2-.1h-.6l-.7.1h-1.1v-.2l-.2-.1-.3-.5v-.2l-.2-.2-.4-.5-.2-.2-.1-.3-.2-.2v-.2l-.1-.3v-.2l-.2-.8-.1-.5-.1-.3v-.3l-.2-.4-.1-.2-.1-.3-.2-.3-.2-.3-.4-.7v-.1l-.1-.2v-.1l-.1-.1v-.4h.1l.2.1.2.1v.1h.4l.1-.1v-.1h.1l.1-.3.1-.2v-.2l.1-.2v-.1l.1-.5.2-1v-1.7l-.1-.2v-.1l-.2-.3-.1-.1-.1-.2-.2-.1h-.1l-.1-.1-.4-.2-.2-.1-.1-.1-.2-.1v-.1l-.1-.1v-.1l.1-.3.7-1.5v-.2l.1-.2v-.3l.1-.3v-2l.1-.3.2-1 .1-.4v-.5l.1-.6v-.4l.2-.6v-.9l-.1-.2-.1-.3-.2-.2-.2-.4-.1-.2-.2-.2v-.3l-.1-.3-.1-.2v-1l.1-.1.1-.1.2-.1.2-.1h.1l.2-.1h.7v-.1l.8-.5.2-.1.2-.1.2-.1h.4l.3-.2h.5v-.1h.1l.1-.1v-.6h-.2v-.1l-.2-.1h-.8l-.2.1-.2.1-.2.1-1 .6v-.1l-.1-.2-.1-.3v-.1l.1-.2.2-.2.5-.6.4-.6.8-1 .1-.1.2-.3.2-.1h.4v.1l.1.2.1.2h.1v.1l.2.1.1.1h.2l.2.1h.9l.2-.1.3-.1.4-.2.8-.3.4-.2.4-.1.2-.1h.3l.2-.1h.7v-.1l.2-.2.3-.6.4-.8.2-.3v-.2l.1-.2.2-.3v-.6l.1-.2v-.2l.2-.2v-.1l.1-.2h.1l.1-.2h.2v-.1H88l.1.1.3.3h.2l.2.1.1.1h.6l.2-.1.2-.1.2-.2v-.1l-.2-.2v-.1h.6l.2.1.2.1.2.2.2.1.2.1v.1l.2.2.5.4.1.2.2.1.2.2h.1l.3.2.7.4.3.2h.2v.4l.3.5.2.4.4.8.2.4.2.5.4 1.1.1.4v.1l.2.2v.1l.2.2.1.2h.2v.1h3.5l1.2-.1h1.1l.3.1h.3l.3.2h.2l.3.2.3.2.1.1.3.2.3.3.3.2.7.6.3.3.2.1.3.2.2.2.4.2.4.2.8.5.2.1.2.1.2.2.2.1.2.2.3.3.3.3.3.3.2.2.7 1h.1l.3.3.1.1.1.1.2.1.2.1.2.1h.2v.1h.1l.1-.1.5-.6 1.3-1.4.7-.8.3-.4.3-.2.2-.2.2-.1.2-.1h.2l.1-.1h2.8l.6.1.3.1.4.1.4.2.3.1.3.1.4.2.2.1.1.1.5.4h.2l.2.1.3.1h.4l.3-.1.2-.1h.2l.3-.2.1-.1 1-.5.4-.3.6-.3.7-.3.3-.3.2-.2.2-.3v-.7l-.3-.3v-.2h-.1v-1.1l.1-.3.4-.6v-.3l.1-.2v-.8l.1-.3.1-.1v-.2l.1-.2v-.6l.3-.8v-.2h.1v-.1h.6v-.1h.1l.2-.2h.1l.3.1h.2l.1.1h.2l.2.1h.1l.2.2.2.4.2.2.1.1.2.2h1l.4.2h.3v.1h.2v-.6l-.2-.6v-.3l-.2-.2V147l.1-.4v-.5h-.2l-.3.2-.2.1-.3.1-.2.1h-.4l-.1-.1v-.2h-.1v-.9l.1-.2h.1l.5-.5.2-.1.2-.2.6-.7.2-.1.1-.1h.1l.1-.1h.1l.1-.1h.7l.2.2.2.2.2.2.1.2.2.3.1.3.2.3.3.6.7 1.7.3.7.1.3.2.3.2.3.1.3.2.3.2.2.3.2.2.2h1.2l.1-.1h1.9l.3-.1h.3l.3-.1.2-.2.2-.2v-.2l.1-.3v-.9l.1-1.2v-1.1l.1-.2v-.2l.2-.2.2-.2.2-.2.3-.1.3-.1.3-.1.2-.1h.2l.5-.2 1.2-.3h.3l.3-.2h.3l.1-.1.7-.3.2-.1h.2l.2-.1h.2l1-.1 1-.1 1.5-.2h.9l2.4-.3.3-.2 1.5-1 .7-.5.7-.4.5-.4.4-.3.3-.2.5-.5.8-.7 1.5-1.3.5-.5.3-.2.2-.2.3-.2.2-.2.3-.2.3-.1h.2l.1-.1h1.1l.2.1.3.2.3.1h.2l.2.2h1.5l.2.1h.7l.4-.2h.9l.3-.1.2-.1.2-.1.2-.2.3-.2.3-.2.2-.2.1-.2.1-.2.1-.1.3.2.3.2.2.2.2.3.1.2v.9l-.1.3-.2.3-.1.3-.5 1-.1.2-.1.3-.1.3-.1.3v.6l.2.1.1.1h.1l.2.1h.3l.2-.1.3-.3h.1l.1-.1h.2v.1h.1v.9l.1.4v.2l.1.1.1.2.1.2.2.1.1.1.2.1.2.2.2.1.3.2.3.3.1.1.1.1.1.2.1.2.1.2v.4l-.1.1-.1.1h-.1l.2.1 1 .5.8.3h.4l.5.2h.1l.2.1h.6l.2-.1h.2l.1-.2h.1l.3-.2.1-.2.2-.2.1-.2.2-.2V143l-.2-.3-.1-.2-.3-.4v-.2l-.2-.3v-.3l.1-.1.2-.2h.1l.2-.1h.9l.2-.1h.1l.2-.1.4-.2.5-.2.2-.2.6-.3.3-.2.8-.5.8-.5.3-.2.4-.2.2-.1.2-.1h.2l.2-.1h.5l.1.1.1.1.2.1v.1l.4.4.2.1h.2l.1-.2.1-.2h.1l.1-.2h.1l.2-.2h.2v-.1h1.4v-.1h.2l.1-.1.1-.1.2-.1v-.2l.5-.6.4-.6.1-.2.1-.3.1-.2.1-.3v-.4l.1-.2v-.4h.1l.1-.2.1-.2.2-.1.2-.3.3-.1.3-.3.4-.2.3-.2.2-.1h.2l.2-.1.4-.2h.2l.2-.2.3-.1.5-.3h.2v.1l.1.3.1.2v.2l.1.5v.3l.2.3.2.8v.4l.1.2v1.3l-.2.6v.7l-.1.4v.7l.2.2v.1l.2.2v.2l.3.2.1.2.2.1.3.2.2.1h1l.3-.1 1.4-.4.5-.1h.2l.1-.1h1.2l.5.1h.2l.2.1h1.5l.1-.1h.3l.2-.2.2-.1.1-.1.2-.1.2-.2.2-.1.2-.1.3-.2h.1l.2-.1v-.1l.2-.1.2-.2.1-.2.1-.2.1-.1.2-.4v-.2l.2-.2.2-.1.1-.2h.1l.3-.2.1-.2h.2v-.3l.2-.3v-.2l.1-.1.3-.2v-.1l.1-.1v-.2l.1-.2v-.3l-.1-.1v-.1l-.2-.1v-.1h-.2v-.1h-.2l-.2-.2h-.2l-.2-.1-.1-.1-.1-.1-.1-.1-.2-.2v-.1l-.1-.2v-.1l-.5-.8-.1-.4-.2-.2-.3-.5-.1-.3-.2-.3-.1-.3-.1-.3-.2-.2-.3-.5v-.2l-.2-.2v-1.2l.1-.2v-.2l.2-.2.3-.4v-.2l.2-.2.2-.1.1-.2.1-.2.1-.2.1-.3.1-.2.3-.7.1-.3.1-.4v-.3l.1-.2v-2l-.1-.2-.3-.8-.5-1.7v-.1h.1l1 .4h.2l.3.2.7.4.8.5.4.2.2.1.3.2h.3l.1.1 1 .3h2.1l.1-.1h.1l.3-.3.2-.1h.8l1 .2h1.1l.1.2.4.4h.1v.1h.5v.2l.1 1v.1h.6l.2-.1h.1v-.3l-.2-.1v-.1h.6l.4.2h.2l.3-.2.3-.2.2-.1.3-.2.2-.2 1.2-1h.5v.1h.1v.2l.2.4v.1l.1.1.1.2.1.1.2.2h.2l.1.1h.5l.1-.1.2-.2.2-.2.2-.2.1-.3.1-.2.5-.5.1-.3.1-.1.1-.2.2-.2v-1.9h.1v-.1l.2-.1.2-.1h.9l.4.2.6.1h.3l.1-.1.4-.2.1-.1.2-.3.2-.1v-.1h.1l.6-.4.8-.4.1-.1.2-.1h.2l.2-.1h.1l.3-.1h1.3l.3.1h.2l.3.2.1.1.4.4.1.1.2.1.2.1h.2v.1h.9l.2.1h.2l.2.1.3.1.3.1" clip-path="url(#p9f4082b701)"/><path d="M327 18h1.6l1-.1h1.1l.1.1.2.1v.1l.4.5.2.3.4.3.3.3.3.4.8.7 1.2 1.2.7.7.5.5.4.4.4.5.4.4.3.4.2.2.2.2.2.2.4.3.3.3.3.3.4.2.2.2.4.3.7.4-.6.3-.7.2-.4.3-.5.2-.3.2-.7.5-.8.5-.4.2-.4.2-.5.3-.4.1-.2.1-.3.1h-.2l-.2.1h-1.1l-.1-.1-.2-.2-.1-.1-.1-.1-.1-.3-.1-.1v-1l.2-.4V28l-.1-.1-.1-.1h-.6l-.2.2h-.2l-.1.2-.2.1-.3.3-.1.1-.2.2-.1.2-.2.2v1.4l.1.2.1.3.4 1 .2.4v.3l.2.3.1.5v.3l.1.2v.6l.1.3.3 1.3v.5l.2.2.2.7v.1h-.7l-.5-.1h-1.3l-.2.1-.2.1-.4.2-.5.2-.3.2-.3.2-.3.2-.2.2-1.2 1-.3.2-.5.4-.2.2-.3.3-.3.2h-.2l-.2.2h-.2l-.2.2-.6.2h-.3l-.4.2-.1.1-.2.1-.2.1v.1l-.1.1-.1.2-.2.3-.2.3-.1.2v.1l-.1.2v1l.4 1.6v.3l.1.3.2.6.1.2v.3l.1.2v1.1l-.1.1v.2l-.2.2-.1.3-.2.2-.7 1.3-.2.4-.1.1-.2.2v.2l-.2.1-.1.1-.2.1-.1.2h-.2l-.3.2-.4.3-.8.3-.2.1-.2.1-.2.1-.3.2-.2.1-.2.2-.3.2-.2.1-.1.2h-.1l-.1.3-.2.2-.1.2-.2.2v.2l-.4.6-.1.4-.2.2-.2.3-.2.2-.1.2-.3.2-.2.2-.3.1-.2.2-.5.2-.8.4v1l.1.3v.2l.1.2.2.5v.2l.1.4v.2l.2.3v.3l.3.5v.2l.5 1.3.2.5.2.5.1.3.2.3.1.4.1.1.2.3.1.2.2.3.2.1.2.2.2.2.3.3.3.2.2.1h.2l.1.2.4.1.3.1h1.1l.2-.2h.2l.1-.1.7-.5.3-.1.3-.2.2-.1h.2l.2-.1h.2l.2.1.1.2h.2v.2l.4.5 1 1.5.5.6.2.3.2.3.3.4.3.2.1.2.3-.2.2-.3.2-.2.3-.2.4-.3.6-.5.4-.2.1-.2h.2l.2-.2.2-.1.3-.1.3-.2.5-.1.3-.1.4-.2 1-.2h.3l.7-.2h.3l.5-.2.5-.2h.1l.3-.1.1-.1.5-.2.2-.1.1-.1.2-.1.1-.1.2-.2.1-.1h.1v.1l.1.1v.3l.4 1.2v.3l.2.3.1.2.1.2h.2v.2h.2l.2.1.3.1.3.1h.3l.3.1h.4l1 .2h.3l.9.1h2.2l.4-.1.7-.1h1.4l.4.2h.2l.2.1.2.1.3.2.4.3.3.3.4.3.3.2.2.2.2.3.2.3.1.3.1.1v.2l.1.2v.2l.1.2V78l-.1.7v.4l-.1.3v.3l-.2.1v.2l-.2.3v.1l-.1.2-.6.9-.2.2-.1.2-.1.3-.1.3v.3l-.1.3v1l-.1.3-.1.3-.1.3v.2l-.2.2v.1l-.2.2-.1.2-.2.2-.2.2-.2.2-.2.1-.1.1-.2.1h-.1l-.1.1h-.8l-.2-.2-.2-.1-.3-.2-.2-.1-.2-.2-.5-.5-.2-.2-.2-.1-.2-.1-.2-.1h-.1l-.1-.1h-.3l-.1.1v.2l-.1.1v.2l-.1.3v4l-.1.4v.2l-.2.3v.3l-.2.2v.2l-.2.2-.2.3-.1.2v.2h-.1v.6h-.4v.5l-.1.7v.3l-.1.2-.1.1-.1.1-.1.2h-.2l-.4.4-.3.2-.1.1-.2.2-.2.2-.2.1v.2l-.2.2v.5l.1.2.1.1.2.2.3.3.1.2v.1l.1.2v.5l-.1.2v.2l-.1.2-.2.2-.1.2-.3.6-.2.3-.3.5v.2l-.1.2-.1.2-.1.2v.3l-.1.3v.4l-.1.4v1l.1.3.1.6v1.1l-.2.2-.1.3-.3.5-.1.3-.2.2v.3l-.1.1v.3l-.1.2v1.1l.2.2v.2l.2.1.2.2.2.2.2.2.3.3.3.1.2.2h.3l.2.2h1.4l.3-.2h.5l.1.1.1.1v.4l-.1.1-.1.2-.2.2-.6.7-.2.3-.3.4-.3.3-.2.3-.2.5-.3.5-.7 1.1-.2.5-.1.2-.2.3-.2.2-.1.1-.2.2-.1.1-.2.2h-.3l-.2.2h-1.9l-.3.1h-.3l-.3.1-.2.1-.1.1-.2.2-.2.1-.1.2-.2.2-.1.2-.6 1-.3.5-.1.3-.2.2v.3l-.2.4-.2.7-.2.5v.1l.2.1v.1l.1.1.1.2.2.6v.3l.4 1v.1l.1.4.1.3v.2l.3.3.2.3v.3l.1.3v.4l.1.2h.1v.2l.2.1v.1l.1.1h.1v.1h.1v.3l-.3.4-.3.3-.4.7-.4.4-.1.3-.2.2v.3l-.2.3-.2.5-.7 1.3-.2.4-.2.5-.1.4-.1.4-.1.4v.7l-.1.2v.7h.1v.2h.1l.1.1.1.1h.2v.1h.5l.2.1.3.1h.1l.4.3h.1l.2.2.3.2.4.4.1.1.1.1h.2l.4.3h.1l.1.1.1.1.1.1v.2l.1.1v.6l-.1.1v.1l-.2.4v.1l-.1.1-.2.2-.3.4-.1.2-.1.2-.1.2-.3.5-.1.3v.1l-.2.5-.2.3-.2.3v.1l-.2.3-.1.1v.2l-.2.5v.4l-.2.3-.1.5-.1.2v.2l-.1.5v.2l-.2.5v.4l-.1.3v.1l-.2.2v.1l-.2.2-.3.5v.2l-.1.2v.2l-.2.2-.1.2-.2.2-.2.2-.3.1-.2.2h-.5l-.1.1h-.5l-.2-.1-.2-.1-.5-.2h-.2l-.2-.2h-.2l-.5-.1h-.2l-.2-.2-.4-.2-.3-.2h-.2l-.2-.1h-1l-.6.1h-.5l-.1-.1-.2-.2-.4-.4-.3-.4-.2-.2-.1-.2v-.2l-.2-.2v-.2l-.2-.3v-.2l-.2-.1-.1-.2h-.2l-.2-.1h-.2l-.3-.1h-.6l-.3-.3-.4-.4-.7-.8-.6-.7-.2-.2-.2-.3h-.1v-.2l-.1-.2v-2.9l-.1-.1v-.3l-.2-.5v-1.2l.1-.5v-.8l-.1-.1-.1-.2h-.1l-.1-.2h-.2l-.2-.2-.3-.2-1-.6-.2-.2-.8-.5-.3-.2-.6-.5-.3-.2-.3-.2-.8-.5-.6-.4-.2-.1-.2-.1h-.1l-.3-.6-.6-1.1-.2-.4-.2-.3-.2-.3-.4-.6-.5-.6-.4-.5-.4-.5-.5-.6-.1-.1h-.1l-.2-.1h-.1l-.1-.1h-.4l-.3-.1-.5-.1h-.3l-.2-.2h-.3l-.3-.2-.4-.2-1.2-.5h-.2v-.1h-.7l-.2.1h-.2l-.3.3h-.2l-.4.4-.1.1h-1.9v.1h-.1l-.1.2-.1.2-.1.5-.1.2v.2l-.1.1-.1.2-.2.1-.4.4-.1.1-.2.2-.2.3-.3.4-.3.3-.1.1-.5.6-.8.7-.2.2-.1.2-.1.1v.1l-.1.2v.5l-.2.2-.3.2h-.2l-.4.2-.3.1-.7.2h-.2l-.2.1-.4.2-.3.2h-.3l-.1.1h-1.7l-.3.1-.2.1-.1.1-.1.2v.1l-.2.3v.3l-.1.1-.2.2v.1l-.3.3-.1.1-.1-.2-.2-.2-.1-.2-.3-.3-.2-.2-.3-.3-.2-.2-.2-.2-.2-.1-.3-.2-.3-.1-.2-.1-.2-.1-.2-.1h-.3l-.7-.2h-.2l-.1-.1h-.1v-.1l-.1-.1v-.5l.2-.8v-1l-.1-.2-.2-.2-.4-.6v-.2l-.2-.2v-.2l-.1-.2v-.6l.1-.2.2-.6v-.3l.1-.1V129l-.1-.1h-.2l-.3-.1h-.2l-.1-.1h-.1l-.2-.2h-.1v-.1l-.1-.1-.1-.2-.1-.3h-.1v-.1l-.1-.1h-.5l-.1.2-.3.3-.1.1-.1.2-.1.1-.2.2-.2.5-.2.2v.2l-.2.1-.1.2-.2.2-.1.1-.2.2-.2.2h-.1l-.2.2h-.1l-.1.1h-.2l-.2.1h-.3l-.2-.1-.2-.1-.7-.4-.1-.1-.2-.1h-.2l-.2-.1h-.6l-.3.1h-1.4l-.7.1h-1.3l-.2-.1-.6-.2-.2-.1h-.7l-.2-.1-.4-.1h-.3l-.2-.1h-.4l-.2.2h-.1l-.2.1-.6.4-.2.1-.2.1-.2.1-.2.1h-.8l-.1-.2-.2-.1v-.1l-.2-.2v-.1l-.2-.3v-.1l-.1-.2v-.2l-.1-.2-.1-.3v-.5l.5-.3.2-.2.2-.1.2-.2v-.1l.1-.2v-.4l-.1-.2h-.1l-.2-.2h-.8l-.2-.1-.4-.2h-.2l-.2-.1h-2.7l-.2-.1h-.3l-.1-.1-.2-.1-.1-.2-.2-.1v-.1l-.1-.2h-.1l-.2-.3-.1-.4-.1-.2-.2-.4-.3-.8-.2-.3-.1-.3-.2-.3-.2-.3-.4-.4-.5-.6-.2-.2v-.7l-.1-.2v-.1h-.1l-.3-.4-.3-.4-.3-.3-.2-.2-.1-.1-.2-.2-.3-.2-.2-.2-.3-.1-.3-.2h-.3l-.2-.1-.2-.1-.8-.2-.3-.1-.4-.2-.8-.3-1.5-.6h-.3l-.3-.2h-.4l-.2-.1h-.6l-.2-.1h-.3l-.2-.2h-.2l-.1-.2-.3-.3-.2-.2-.3-.1h-.2l-.3-.1-.4-.1h-1.3l-.2.1h-.2l-.2.2h-.1l-.8.5-.6.3-.1.2h-.1v.1l-.3.3-.5.3-.2.1h-.2l-.6-.1-.4-.2H233v.1h-.1v.1l-.2.2v1.8l-.2.2v.2l-.2.1-.1.3-.5.5v.2l-.2.3-.2.1v.1l-.1.1-.1.1-.1.1h-.1l-.1.1-.1.1h-.6l-.1-.1-.1-.1v-.1l-.2-.1v-.2h-.1v-.2l-.2-.4v-.1h-.1v-.2h-.6l-1.2 1-.2.2-.3.2-.2.1-.3.2-.3.1h-.6l-.2-.1h-.4l.2.2v.2l-.3.1-.4.1h-.1l-.2-1v-.3h-.6v-.1l-.3-.3v-.1l-.2-.1-.1-.1h-1l-1-.1h-.1l-.4-.1h-.5v.1l-.3.2-.2.1h-.2v.1h-1.9l-1-.3h-.1l-.3-.1-.3-.2h-.2l-.4-.3-.8-.5-.7-.4-.3-.1-.3-.1-.9-.4h-.1v.1l.5 1.7.3.8v.4l.1.2v2.1l-.2.4-.1.3-.3.7v.2l-.2.3v.2l-.2.2-.1.2-.2.1-.2.2v.2l-.3.4-.1.2-.1.2v.6l-.1.3v.5l.1.2.1.2.3.5.2.2v.3l.2.3.2.3.1.3.3.5.2.2.1.4.4.8v.1l.2.2.2.3.2.2h.1l.2.2h.2l.2.1h.2v.1l.1.1h.1l.1.2.1.1v.2l.1.3v.3h-.1v.1h-.1l-.2.2-.1.2-.1.2-.1.3v.1l-.1.1-.2.1-.1.2-.3.1v.1l-.2.2-.2.1-.1.2-.1.2-.2.4v.1l-.2.2v.2l-.2.1-.1.1-.1.1h-.1l-.2.2h-.1l-.3.2-.2.1-.2.1-.2.2-.2.1h-.1l-.2.2-.2.1h-.3l-.1.1h-.3l-.2.1H208l-.5-.2H206l-.5.2-1.4.4h-.5l-.2.1h-.8l-.2-.2h-.1l-.2-.2-.1-.2-.2-.2-.1-.2-.2-.2v-.1l-.1-.2v-.5l-.1-.2v-.8l.1-.3.2-.6v-1.6l-.1-.3-.2-.8-.1-.3v-.3l-.2-.5v-.4l-.1-.3v-.1h-.3l-.5.3-.3.1-.2.1-.2.1-.4.2h-.4l-.2.2-.3.2-.4.2-.3.3-.3.1-.2.3-.2.1v.2l-.2.1v.2l-.1.3v.6l-.2.3v.2l-.2.3-.1.2-.4.6-.4.6-.1.2-.2.1-.2.1h-.1l-.1.1h-1.2l-.1.1h-.3v.1l-.2.1v.1l-.2.1v.1l-.2.2v.2h-.1v.1h-.2l-.1-.2-.4-.4h-.1l-.2-.2-.2-.1h-.1l-.2-.1h-.4l-.2.1-.2.1-.2.1-.4.2-.3.2-.8.5-.8.5-.3.2-.6.3-.2.2-.5.2-.4.2h-.3l-.2.1h-.8l-.3.1-.1.1-.2.2v.7l.1.2.3.4.1.2.1.3.1.2v.9l-.2.2v.2l-.3.2-.1.2-.3.2-.2.1-.2.1h-.3l-.1.1h-.7l-.5-.2-.4-.1-.8-.3-1-.5h-.2l.2-.2.1-.1v-.6l-.2-.2-.1-.2h-.1l-.1-.2-.3-.3-.3-.2-.2-.1-.2-.1-.2-.2h-.1l-.1-.2-.2-.2v-.2l-.1-.1v-.2l-.1-.4v-.8h-.1v-.1h-.5l-.3.3h-.3v.1h-.5l-.1-.2-.1-.1v-.2l-.1-.2v-.5l.2-.3v-.3l.2-.3.5-.9.1-.3.2-.3v-.3l.1-.2v-.9l-.3-.3-.1-.1-.1-.1-.3-.2-.3-.3v.2l-.2.2-.1.2-.2.2-.3.3-.3.1-.2.2-.2.1h-.2l-.3.2h-.9l-.4.1h-.4l-.3.1h-1.2l-.2-.1h-.3l-.2-.1h-.2l-.3-.2-.3-.2h-.3l-.2-.1h-.9l-.2.1-.3.1-.3.2-.2.2-.3.2-.2.2-.3.2-.5.5-1.5 1.3-.8.7-.5.5-.3.2-.4.3-.5.4-.7.4-.7.5-1.5 1-.3.2-2.4.2-1 .1-1.4.2h-1l-1 .2h-.6l-.2.2-.7.3h-.1l-.3.1-.3.1-.3.1-1.2.3-.5.1h-.2l-.2.2h-.3l-.3.2-.3.1-.2.2-.2.2-.1.2-.1.2v.8l-.1.5v2.1l-.1.3-.1.2-.2.2-.2.2h-.3l-.3.1H141v.1h-.1l-.2.1h-1l-.2-.2-.3-.2-.2-.2-.2-.3-.1-.3-.2-.3-.2-.3-.1-.3-.3-.7-.7-1.6-.3-.7-.2-.3-.1-.3-.2-.3-.1-.2-.2-.2-.2-.2-.2-.1h-.1l-.2-.1h-.6v.1l-.2.1-.3.2-.6.7-.2.2-.2.1-.5.4v.1l-.2.2v1.1h.2v.1h.6l.3-.2h.2l.3-.3h.2v1.2l-.1.2v.8l.1.2v.3l.3.6v.6h-.1l-.4-.1-.4-.2h-1l-.2-.2-.1-.1-.2-.2-.2-.4-.1-.1h-.1l-.3-.1h-.2l-.1-.1h-.2l-.3-.2h-.1l-.2.1v.1h-.6l-.1.1v.2l-.1.2-.2.7v.6l-.1.1v.1l-.1.2-.2.4v1l-.1.3-.4.6v.3l-.1.1v1l.1.2.2.3.1.2v.5l-.2.2v.1l-.2.2-.2.2h-.1l-.7.4-.6.3-.5.3-.9.5h-.1l-.3.2-.2.1h-.2l-.3.2h-.7l-.2-.1-.2-.1-.5-.3-.1-.2h-.2l-.4-.3h-.3l-.3-.2-.4-.2h-.4l-.3-.2-.6-.1h-3.1l-.2.2-.2.1-.2.2-.3.3-.3.3-.7.8-1.3 1.4-.5.6v.1h-.4l-.2-.2h-.2l-.2-.2-.1-.1-.1-.1-.3-.2v-.2l-.8-.9-.2-.2-.3-.3-.3-.3-.3-.3-.2-.2-.2-.1-.2-.2-.2-.1-.2-.1-.8-.5-.4-.2-.4-.2-.2-.2-.3-.2-.2-.1-.3-.3-.7-.6-.3-.2-.3-.3-.3-.2-.1-.1-.3-.2-.3-.1-.2-.1-.3-.1-.3-.1h-.5l-.3-.1h-2.4l-1.8.2h-1.1v-.1l-.2-.1-.1-.2-.2-.2v-.1l-.1-.2v-.1l-.2-.4-.4-1-.2-.6-.2-.4-.4-.8-.2-.4-.2-.5v-.2l-.1-.1H94l-.3-.3-.7-.4-.3-.1v-.1l-.3-.2-.2-.1-.1-.2-.5-.4-.1-.1-.1-.2h-.2l-.2-.2-.2-.1-.2-.2h-.2l-.2-.1H90v.1l.2.2v.1l-.1.1h-.1l-.2.2h-.2v.1h-.7l-.2-.1-.2-.1-.3-.3h-.2l-.2-.1h-.9v.1l-.2.1v.1l-.2.2v.1l-.1.2v.2l-.1.2-.1.6-.2.3v.2l-.1.2-.2.3-.4.8-.3.6-.1.2v.1h-1.3l-.2.2h-.4l-.4.3-.8.3-.4.2H81l-.2.1h-.3l-.2.1h-.8v-.1h-.1l-.1-.1-.1-.1v-.1l-.2-.2v-.2h-.1l-.1-.1h-.4l-.1.1-.2.3-.1.1-.8 1-.4.6-.5.6-.2.2v.2l-.1.1v.4h.1v.1h.1-.5l-.2-.1-.5-.3H75l-.2-.1h-.6l-.2-.1h-.1l-.1-.1-.2-.1-.1-.1-.1-.2-.1-.1-.2-.2v-.2l-.2-.1v-.2l-.1-.1v-.5l-.1-.1H72l-.2.1-.6.2-.8.2h-1.1l-.1-.1-.9 1.5-1 2-.3.7-.3.7-.1.3-.2.2-.2.3-.1.2-.2.1h-.3l-.2-.1-.1-.2-.1-.1-.4-.7-.2-.2v-.1l-.1-.1-.2-.1v-.1H64l-.1-.1h-.2l-.2-.1H63l-.1.1h-.2l-.2.1-.1.1-.3.2-1 .7-.6.3-.8.6-.4.3-.3.1H59l-.2.1-.3.1h-1.9l-.8-.2h-.3l-.1-.1h-.1l-.2-.2H55l-.3-.3v-.1l-.4-.5-.2-.1h-.1l-.1-.1H53l-.3.2-.4.2-.3.1-.1.1-.2.1-.2.2-.2.2-.4.3-.3.3-.4.4-.3.3-.7.8-.2.2-.2.1-.1.2h-.1l-.2.1-.1.1h-.2l-.2.1h-1.8l-.9-.2h-.5l-.3-.1-.9-.3h-2.1l-.1.1H41l-.1-.1-.2-.1h-.8l-.6-.1h-.4l-.5-.1H36l-.2.1h-.5l-.7-.1h-.2l-.2-.1H34l-.1-.2h-.1l-.1-.2-.2-.3v-.2h-.1l-.1-.3-.2-.1v-.1l-.1-.1-.2-.1h-.5l-.2.1-.2.2h-.6l-.3.1-.4.1h-.3l-.2.1-.5.1h-.1l-.3.1H29l-.2.1h-.3l-.1-.1v-.1l.2-.8.2-.4v-.5l.1-.2v-.3l-.1-.3-.1-.2-.1-.2-.3-.4v-.2l-.2-.2-1-1.3v-.2l-.5-.7-.3-.5-.1-.2-.1-.1h-.2l-.1-.1H25l-.5-.1-.4-.1-.2-.1h-.1l-.1-.1h-.1v-.1l-.1-.1v-.1l-.1-.1V150l.1-.4.3-.8.6-2.1v-.3l.2-.4.1-.7v-.2l.1-.3v-1.7h.3l.5.3.3.1.2.1.3.2.4.2.2.1.2.1h1.1l.1-.2.3-.2h.1l.2-.1h.3v.1l.2.1.3.3.1.2.3.1v.1h.2l.2.1h1.1l.6-.2h.7l.5-.2h.6l.3-.1h1.2l1.1.4h.1l.1-.2.2-.2.1-.1.1-.1h.1l.2-.2.5-.2.2-.2h.1l.2-.2.1-.2.1-.1.1-.2.1-.2v-.2l.1-.2v-.8l-.1-.1-.2-.3-.4-.5-.1-.2-.1-.2v-.2h-.1l-.2-.7v-.2l-.2-.4v-.4l-.2-.4v-.3l-.1-.1v-.1l-.1-.1h-.2v-.1h-1l-.6.3h-.2l-.2.1h-.6v-.2l-.1-.1v-.2l-.1-.1v-.2l-.1-.3v-1.2l-.1-.7v-2l.1-.1.1-.3.1-.3.3-.7.7-1.4.1-.3.3-.6.1-.3.2-.2v-.2l.3-.3.1-.2.2-.2.1-.2.2-.1.2-.2 1-.8.2-.1.3-.2.3-.1.5-.3h.2l.2-.1.2-.1h1.1l.2.1.6.4.1.1h.2l.5.3h.2l.1.1.2.1.2.2.1.2.1.2v.3l.1.1v.9l-.1.4v1l.2.1h.1l.2.1h.2l1 .1h1.9l.2-.1.2-.1.2-.1.1-.2.2-.1.1-.2h.1l.2-.3.1-.2.1-.1.2-.3.1-.2.1-.3.3-.7.1-.2.1-.2.1-.2.1-.1.2-.2.2-.3.2-.2.2-.2h.2l.1-.2h.2v-.1h.4l.3.5.2.4.3.4.3.3.2.2v.2l.3.2.2.1.2.2h.1l.2.2h.2l.2.1h.4v-.1l.2-.2.2-.3.4-.9.2-.3.3-.4v-.1l.2-.2.1-.2.2-.2h.1l.2-.2.3-.2.2-.1.2-.1h.1l.1-.1h.4l.1.1.2.1 1 .6.2.2.4.4h.2l.1-.1.1-.2.3-.3.2-.2.1-.2.3-.5v-.2h.1v-.1l.2-.2.3-.2.1-.1.1-.1.2-.1.2-.1.3-.2h.1l.2-.1h.7l.2-.1h.2l.1-.1.2-.1.2-.2.1-.2 1-1.2.2-.2.1-.3v-.1l.2-.6.1-.2.1-.2.2-.3.5-.8.3-.5.2-.5.2-.3v-.2l.2-.2.2-.7.6-1.4.1-.3v-.3l.1-.2.1-.4.1-.3v-.6l.1-.2v-.2l.2-.1v-.1l.2-.1v-2.3l-.1-.1-.1-.2-.3-.6-.4-1-.1-.3v-.2l-.1-.2v-1.8l-.1-.3v-.2l-.1-.2v-.1l-.1-.1v-.1l-.1-.1v-.1h-.2v-.2H68l-.2-.1h-1.4l-.7-.1H65l-.2.1-.4.2h-1.2l-.1-.1-.1-.1-.2-.2-.4-.4-.3-.4-.1-.1v-.6l.2-.2.1-.2.2-.1.1-.1.4-.2.5-.4.1-.1.1-.1.2-.2.1-.1.1-.1.2-.3.6-.9.1-.2.4-.5.2-.2.1-.3.2-.3v-.5l.1-.1v-1.4l.4-.5.7-.8.1-.2.2-.2v-2l.2-.2v-.2l.3-.3h.1l.1-.2.3-.6.1-.1v-.1l.2-.1.1-.1.2-.1h.1l.3-.1.2-.1.4-.2.8-.3.2-.1h.1l.1-.2h.1l.1-.1.1-.2.3-.2.2-.3.1-.3.1-.2v-.1l.1-.1v-1.4l.1-.3.2-.3v-.3l.3-.5.1-.2V84l.1-.2v-.2l.2-.8v-.3l.2-.2v-.1l.1-.2h.1v-.4h-.1v-.1l-.1-.1h-.1v-.1h-.2V81h-.3l-.5-.2H72l-.1-.1-.2-.2-.2-.2v-.1h-.1l-.1-.3v-.2l-.3-.5-.2-.4v-.2l-.2-.1v-.2l-.3-.3-.2-.2-.3-.3h.1l.2-.1.3-.2.3-.2.5-.2.3-.1.6-.2.3-.1.3-.2h.2l.2-.2.4-.3.9-.6.5-.4.3-.2.2-.2.2-.2.2-.2.1-.2.1-.1v-1H76l-.1-.2-.1-.2h-.1V72l-.4-.3-.1-.2-.5-.6v-.2l-.2-.2-.1-.2v-.2l-.1-.2v-.2l-.1-.3v-.3L74 69v-.4l-.1-.4V67l.1-.2.2-.3.2-.2.1-.2.1-.2.2-.2.2-.2.1-.2.2-.1h.9l.2.2.3.1.3.2 1.5.8.6.3.2.2.4.2h.3l.6.2h.2l.2.2.2.1.2.2.3.3.2.1.2.1.1.1.2.1h.2l.4.3.4.1.4.2.5.1.4.2h.3l.2.2.2.1.1.1h.1v.2h.2v.2l.1.1v.1l.1.2.2-.3.1-.2.1-.2.4-.4.1-.2.1-.3.1-.3v-.5h.1l.1-.2.1-.1.2-.1h.5l.6.1.4.1h.3v-.2h.1v-.2l.1-.1v-.2l.1-.5v-.3l.2-.2.1-.1h.1l.3-.2h.2l.2-.2.2-.1.2-.2.1-.2.5-.5h.1v-.2l-.6-.5-.2-.2-.2-.3-.3-.3-.2-.3-.1-.3-.1-.2V62l.2-.2.1-.1.4-.4.2-.2.1-.2.2-.2v-.3h.1v-1.2l.1-.1.1-.4v-.4h-.1l-.2-.2-.2-.1v-.1l-.2-.1v-.2H91l-.2-.3-.2-.3v-.2l-.2-.2v-.2l-.1-.4-.1-.2-.1-.2-.1-.3-.2-.4-.2-.2-.2-.4-.3-.5-.7-1-.2-.4-.3-.4V52l-.1-.2v-.3h-.1v-.5l.1-.2v-.1l.1-.1.1-.2.2-.3.1-.1.1-.3.2-.6v-.2l.1-.2.1-.1v-.1l.1-.1h.1l.3-.1.2-.1.2-.2.1-.2.1-.1.2-.3.2-.3V47l.1-.1v-.3l.1-.1V44l.1-.3v-.2l.1-.2.1-.2.2-.1v-.1l.2-.1v-.1h.2l.1-.2h.2l.2-.1h.2l.3-.1.2.1H94l.1.1h.1l.5.2.3.2h.2v.2l.3.2.2.1.2.1.3.2 1 .5.3.1.4.3.2.1h.3l.1.1h.8v-.1h.7l.2-.1h.8l.3-.1h.2l.3-.2h.1l.3-.2h.1V44l.2-.1.4-.4.2-.1.1-.1.2-.1.2-.2.3-.1.1-.1.2-.1.3-.1.6-.3h.1l.3-.1.4-.2.4-.2h.1l.3-.1h.1l.1-.1v-.2l.2-.3V41l.1-.1.1-.2.7-1 .4-.5.3-.4v-.1h.1v-.1l.5-.5.2-.3.1-.2.1-.3.1-.1v-.2h.1v-.3l.1-.2v-.6l-.1-.3-.1-.2-.1-.2-.1-.1-.1-.2-.2-.1-.2-.3-1.2-1.2-.2-.2V33l-.2-.2v-.5l.1-.2.2-.1.2-.2h.1l.1-.1.2-.1.3-.1.3-.2.6-.2h.3l.1-.1.2-.1.2-.2.1-.1.1-.1.1-.2.2-.2V30l.1-.3.1-.3.1-.3v-3.5l.1-.3v-.3l.2-.5V24l.2-.3v-.2l.1-.1h.2l.8.4.2.1.2.1.3.1h.4l.2.1h.5l.4-.2h.7l1-.3.2-.1h.1l.1-.1.4-.3h.2l.1-.2.2-.1v-.2h.1l.2-.3.2-.5.2-.2v-.1l.2-.1.2-.1h1.1l.5-.1h.8l.2.1.3.3.1.1h.1l.1.1h.4l1 .2h.8l.5.1.3.1h.2l.2.1.3.1.3.1 1.7.8.3.1.2.1.1.1.2.1.1.2h.2l.1.2.1.1.3.3.1.2.2.2.5.9.2.2.2.2.1.2.2.1v.2l.3.2.3.2.2.1.1.1h.6l.5.1h2.7l.6-.1h1.3l.2.1.1.1v.1h.2v.2l.1.2v.7l-.2.2v.2l-.4.4-.1.2-.1.3-.1.2v.6h.1v.1h1.3l.6.2h.5l.2.1h.7l.1-.1h.2l.1-.2h.1l.2-.2v-.1l.2-.3.3-.6.2-.3v-.2h.2l.1-.3.2-.3.2-.2.3-.2.1-.1.2-.2.2-.1.6-.3.1-.1.2-.2.3-.2v-.2h.1l.2-.3v-.2h.1l.1-.1h1.3v.2l-.1.3-.2.3-.2.3-.4.5-.4.6-.4.5v.2l-.2.3-.1.2-.2.6v.2l-.1.3-.2 1.2v.7h.1l.1.1h.1l.1.2h.4l1.4.2h.2l.3.1.4.1.3.2.6.2h.1l.1.1h.1l.1.2.2.2v1.5l.1.2.1.2.2.3.1.2.1.2v.4l.1.2v1l.1.2.1.1.1.2.2.1h.2v.1h.5l.1-.1h.2l.7-.4h.2l.3-.1h.1l.2-.1h1.1l.6-.2h.7l.3.1h.1l.2.2h.1l.3.4v.1l.2.1.2.1h.5l.2-.2.4-.3.3-.1.2-.1.3-.1.2-.2.8-.4.3-.1.3-.2.4-.1.5-.2 1.3-.5 1-.4h.3l.3-.2h.2l.3-.1h.5l.2.2.2.1.2.3.5.5.3.4.1.2.2.2v.2l.4.8h.1l.2.3.1.2.2.3.2.2.2.1.1.1h.1l.1.1h.2l.3.1h.2l.2.1.3.1.5.3.3.1h.1l.3.1h1l.1-.1h.1l.2-.2.6-.5h.1l.2-.3.2-.1v-.1l.2-.2v-.1l.1-.2V39l.1-.2v-.8l-.1-1v-1.4h.1l.1-.3.2-.2V35l.2-.1.2-.2h.7l.2.1.2.1.2.1.3.2.2.2.3.1.6.4 2 1.5 1.2.9 3.6 2.6.2-.3.1-.1.1-.2v-.1l.1-.2v-.4l.1-.2.1-.1v-.1l.4-.2.3-.3.2-.2.2-.1h.2v-.1h1.2v-.2h.1l.2-.3.2-.3.1-.2.1-.1.2-.2h.1l.1-.1h.2v-.1h.6l.1-.1h.7l.3.2h.3l1.2.4.4.1h.2l.1.1.1.1h.1l.1.2.1.1v1l.1.2.1.1h.1l.1.2h.1l.4.3h.2v.1h.4l.1-.1v-.1h.1v-.5h.1V39h.3l.2.1.2.1.2.1h.6v-.1h.2l.2.2.1.2.1.1v.1l.2.7v.1l.1.3v.1l.1.1h.1v.1l.2.1h.2v.1h.5v-.1l.3-.4h.1v-.2h.1v-.1h.2v-.1h1l.4-.1h.9l.2.1v.1h.3l.1-.1v-.2l.1-.2v-1.3l.2-.2.3-.5.1-.2.1-.2.1-.3.1-.3v-.3l.2-.5.1-1.2V35l.1-.3v-.1l.1-.3v-.1l.2-.2.2-.1.2-.1.3-.1.3-.1h.1l.2-.1h1.8l.6.1h1.7v-.1l.2-.1v-.1l.2-.1.3-.6.3-.4.3-.6.1-.2.1-.2h.1l.2-.1.8-.2.6-.2 1.3-.3.3-.1h.7l.2-.1h1l1 .2h1.2l.8-.3h.5l.2-.1.3-.1.5-.2.4-.2.6-.2.4-.2.6-.3.2-.1.4-.2h.3l.1-.1.1.2.3.7.3.6.1.2.5.8.1.2.2.1h.1l.1.1h.2l.2.1h.2l1 .2h.5l.2.1.3.1.3.1h.2l.1.1.2.1.3.2.1.1v.2l.1.1v.5l-.1.1-.1.2-.1.3-.3.4-.2.4-.4.6-1.3 2-.2.4-.1.2-.2.3-.2.2h.4l.3-.1h.2l.3-.2h.2l.1-.2h.2l.1-.2h.1l.1-.1.1-.1.1-.2.2-.2v-.2l.2-.1v-.3l.2-.4.2-.5.1-.3.3-.9V34l.2-.2v-.2l.1-.2.2-.2V33l.2-.1.1-.2h.2l.1-.2.4-.3.3-.2.4-.2 1.2-.7.4-.3.4-.3.2-.1.2-.2.2-.2.2-.2.2-.2.1-.2.1-.3.2-.3v-.2l.1-.2.1-.1.1-.1h.1l.1-.2.2-.1.2-.2h.3v-.1h.2l.2-.1h1.4l.4.2.8.2h.3l.8.3h.3l.1.1h.8l.2-.1.1-.1.2-.2.2-.2.4-.3.5-.6.5-.5.5-.6.7-.8.4-.4.3-.3.2-.2.2-.1.1-.1.2-.2h.2l.2-.2.5-.2.4-.2.5-.1.4-.2 1-.4.1.2.2.3.1.2.2.3v.2l.1.3.2.5.2.7v.2l.1.1v.2l.1.1.2.3.2.3.1.1.2.1h.4l.4.2h.1l.2.2.2.1.2.2.1.2.2.2.1.1v.2l.1.2.1.1.1.5v.1l.1.2.1.2.1.1.1.1.1.1.2.2.2.1v.2l.1.1v1.8l-.1.3v.2l-.1.2v.6l.1.2v.1h1.2l.3-.1h.2l.2-.1.7-.2.3-.1h.2l.2-.1h1.5l1-.1h1.4l.3-.1h.5l.2-.1.2-.1h.1l.3-.2.2-.1.4-.3.2-.1.6-.4.2-.1.2-.1.2-.1.6-.2.3-.1h.1l.1-.1.2-.1.2-.2.5-.6.2-.1.2-.2.3-.2.3-.1.2-.1.2-.1.3-.1.2-.1h.2l.1-.1h1.3l.3.1.3.2.5.2.2.1h.2l.1.1h.7l.2-.1h.1l.6-.3.2-.1.3-.1h.2l.3-.2h.4l.4-.1h.2l.2-.1.2-.1.2-.1.7-.5.1-.1.1-.1.1-.1v-.1l.1-.1.1-.3.1-.5V26l.2-.3v-.1l.2-.3.1-.1.1-.2.2-.2.2-.2.6-.6.2-.1.2-.1.1-.2h.2l.3-.2.3-.1 1.3-.4h.2l.3-.1h.6l.3-.1h1.8l.3.1h.2l.1.1h.3l.1-.1h.8l.3-.1.6-.1h.4l.2-.1h.2l.2-.1.2-.1.2-.1.3-.2.4-.2.1-.1h.1l.2-.2.1-.1.3-.3.2-.2v-.2h.2l.1-.2.3-.3.5-.3.5-.3.8-.5v.3l.3.6.3 1.3.1.2.1.3v.2h.1l.1.2v.1h.1l.1.2h.8l.8-.3.3-.1h.5v.5l.1.5v1l.1.1.2.2h.2l.2.2h.8l.3-.1h.4l.3-.2.6-.2.3-.1.6-.2.5-.3.4-.2h.2l.1-.1.2-.1.5-.4h.2l.1-.1.2-.1.2-.1h.3v.1l.2.2v.1l.3.6.1.2.2.2.6 1 .2.5.2.4.2.2.1.3.1.4.1.2.3.9.2.3v.3l.3.6.2.3v.1l.6-.1 1.7-.5.8-.2.6-.2.5-.1.7-.3h.2l.2-.1h1.2l.3.1.2.1.3.1.2.1.3.2.2.1.2.2.1.2.2.2v.2l.4.6.1.2.2.2h.1l.1.1h.9l.3-.2h.2l.2-.1.2-.1.3-.2.3-.2.5-.3.3-.3.3-.1.7-.3.2-.1.2-.2h.2l.1-.2h.1l.1-.2.2-.1v-.1l.1-.1.1-.2v-1.1l-.1-.2-.1-.1-.1-.1v-.5l-.1-.9V24l-.1-.3-.2-1-.1-.6v-.4l-.1-.5v-2l.1-.2.1-.2.1-.2.2-.2v-.1l.2-.1.2-.1.2-.2.3-.1h.2l.2-.1h.2l.2-.1h1.4l.3.1 1 .2h1.2l.3.1h.3M147.1 76.4l-.1.3-.5.5-.6.7-.1.1-.2.1-.1.1h-1l-.3-.2-.4-.1-.3-.1-1-.5h-.3l-.3-.2h-2.2l-.3-.1h-.7l-.3-.1-.3-.1-.4-.1h-.3l-.2-.1H136l-.4.1-.5.2h-.5l-.3.2h-.3l-.4.3-1 .5-.2.2h-.2l-.2.3-.1.1-.1.2-.3.4-.2.2h-.1l-.2.2-.1.1h-.2l-.1.2h-.3l-.6.3-.4.3-1 .5-.2.1h-.1l-.4.1h-.3v.1h-.8l-1 .3-.2.1h-.1l-.2.1v.1l-.1.1v.1h-.1v.8l.1.1v.2h.1l.2.1.2.3.2.2v.2l.1.2v.4h.1v.1l.1.5v.5l-.1.2-.2.1v.1l-.3.2-.2.2h-.1v.1h-.1l-.1.3h-.1v.1l-.3.3-.1.1v.1l-.1.3h-.2l-.3.2h-.3l-.6.7-.2.3-.3.5v.1l-.3.3-.5.6v.1l-.2.2v.1l-.1.2v1.5l.1.2v.3l.1.2.2.2.2.1.2.2h.1l.3.3.1.1.3.2.6.3.1.1.1.1v.1l-.1.2-.4.1-.4.2h-.2l-.1.1v.1h-.1v.6l.3.3.1.1.1.2.1.2.1.2v.2l.1.2v.3h-.1v.1h-.4l-.1.1h-.2v2.1l-.1.4-.1.2v.2l-.2.2v.2l-.2.2h-.2v.1h-.2l-.2.1h-.3l-.6.1h-.3l-.2.1h-.1l-.4.3-.2.1h-.2l-.3.2h-.4l-.9.2-.3.1-.5.1h-.3v.1h-.2l-.2.2-.2.1-.2.2v.2l-.2.2v.4l-.1.8v.2l-.1.3v.3l-.2.2v.2l-.1.2-.1.2-.2.3-.1.2-.4.5-.4.5-.3.4-.2.4-.2.2v.2l-.1.2v.3l.2-.1h.2l.1-.1h.8l.7.4.2.1h.1l.2.2.2.2.2.2v.2l.2.2.3.4.1.2.2.2h.1l.1.2h2.1l.2.1h.4l.2.1.2.1.1.1.2.1.2.2.3.3.2.1.1.1.2.1.2.2h.2l.2.1h1.1l.8-.1 1-.3h.2l.3-.1.1-.1.3-.2.2-.1.1-.2.1-.1h.1l.2-.3.1-.3.2-.2h.6l.4.1h.5v.3l-.1.4v.3l-.1.1v.1l-.2.4-.2.2v.3l-.1.2v.1l-.2.6v1l.4 1v.2h.1l.1.2.2.1.2.1.2.1.4.1.5.1h.4v.1l.2.1.4.2.1.1.1.1h.1l.1.2v.1l.1.1v.2l.1.1v.2l.1.2.1.5.1.5v.4l.2.4v.6l.1.2.1.2.2.4.3.7v.3l.1.1.2.3.2.2.2.4.1.2h.2l.1.2.5.6.4.5.1.1.2.2.2.1.2.2h.2l.2.1h.1l.2.1h.2l.2.1h1.2l.4-.2h.2l.2-.1h.6l.2.1.9.3h.2l.3.2.7.1h.2l.4.2h.2l.2.1.2.1h.2l.1.2h.1v.1-.3l.2-.1h.7l.3.1.3.1.7.3.6.2.3.1.3.1.3.2.2.1.3.2.1.2h.1l.1.2.1.2.3.6v.2h.2l.1.2h.7l.2-.1.3-.1.3-.1.3-.1 1-.5 2.6-1.2 1.8-.9 1-.4 1.5-.6.7-.3.9-.4.3-.1.1-.1h1.5l.1-.1.4-.2.5-.3 2.7-1.5.1-.1.2-.1.5-.4.2-.2 1.4-1 .4-.2.3-.2h.2l.4-.3 1-.3 1.7-.8.9-.4h.1v-.1h.1v-.1l-.3-.3v-.1l-1.4-1-.9-.6-1-.6-2.3-1.6-.6-.4-.3-.2-.3-.2-.2-.2-.2-.2-.2-.1-.1-.2v-.3h.2v-.2l.6-.3.2-.1h-.8v-.1l-.2-.1v-.2l-.1-.1v-.5l.1-.1.1-.2h.1l.5-.7.2-.1.1-.2v-.1l.2-.1v-.8h-.1l5.5-.9-1.8-3.8-.4-.7-.1-.5-.1-.2v-.2l-.1-.2v-1.1l.1-.4v-.7l-.1-.9v-.2l-.1-.2v-.2l-.1-.1v-.2l-.3-.2-.1-.3-.4-.7-.1-.1v-.1h-.1v-.1h-.1l-.1-.5v-.8h-.1v-.1h-.2l-.2-.1-.2-.1h-.3l-.7-.2-.5-.2h-.3l-.3-.1-.2-.1-.2-.1-.1-.1h-.1l-.1-.2h-.1l-.1-.2-.2-.3v-.2l-.3-.3-.1-.2h-.1l-.2-.2h-.1l-.2-.2h-.1l-.2-.1H160l-.2-.2h-.2l-.2-.2-.1-.1-.2-.1v-.2l-.3-.3-.2-.2h-.2l-.2-.1h-.1l-.8-1-.2-.2-.2-.2v-.1l-.1-.1v-.1l-.1-.1V90l.2-.2.1-.2.8-.8.1-.2.2-.5v-.4l.1-.2.2-.4v-.8h.2l.1-.1h.2l.4-.2h.6l.5-.2h.3v-.1l-.5-.8-.4-.6-.3-.6-.5-.9-.1-.3-.2-.2V82l-.1-.1v-.2l-.1-.2V81l.1-.2v-.1l.2-.2.2-.4V80l.1-.1v-.7l-.1-.2h-.1l-.1-.3-.4-.4v-.1l-.1-.2-.1-.1-.1-.3v-.1l-.1-.2h-.1l-.1-.2-.1-.2-.1-.1-.1-.1-.2-.1v-.1l-.2-.1-.3-.2-.6-.4-.2-.1-.1-.1-.2-.2-.2-.2-.1-.1h-.2V75h-.1v-.2l-.1-.2v-.1l-.1-.3v-.4l-.1-.2v-.2l-.1-.1-.1-.1-.1-.2-.2-.1-.2-.1-.2-.2h-.2l-.2-.1h-.2l-.2-.1h-.2l-.3-.1h-.7l-.2.1h-.2l-.1.1-.2.1-.5.3-.4.2h-.1l-.4.2-.5.2h-.3l-.1.1-.2.1-.1.2h-.1v.2l-.2.2-.1.3-.3.7-.2.4-.2.3-.2.3v.1" clip-path="url(#p9f4082b701)"/></g></g></g><defs><clipPath id="p9f4082b701"><path d="M7.2 7.2h357.1v228.3H7.2z"/></clipPath></defs></svg>