<svg xmlns="http://www.w3.org/2000/svg" xmlns:xlink="http://www.w3.org/1999/xlink" width="312.4" height="374" viewBox="0 0 234.3 280.5"><defs><style>*{stroke-linejoin:round;stroke-linecap:butt}</style></defs><g id="figure_1"><path id="patch_1" fill="none" d="M0 280.5h234.3V0H0z"/><g id="axes_1"><g id="PatchCollection_1"><defs><path id="m8250a57f96" stroke="#0c1321" d="M139-260.8h.1l.2.3.2.2.4.3.2.3.2.1h.1l.1.1.2.1h.4l.2-.1.1-.1v-.1l.4.3.1.1.1.1.2.2v.1l.1.1v.5h-.1l-.3.3h-.1v.1l-.2.1v.2l-.1.2v.4l.1.2.1.1.3.8.1.2v.2l.1.1v.8l-.2.2v.1l-.1.2-.1.1-.2.2v.1l-.2.2-.2.1v.1l-.3.2v.1h.1v.1l.2.1h.1l.2.1.6.3.3.2.7.4.2.1.3.2h.1l.2.2.2.2.2.1.2.2v.1l.1.1v.2h.1v1.2l-.1.2v1l.1.1.1.1.1.1v.1l.2.2.3.2.2.2.2.1.4.3.2.2 1 .6.3.2.2.1.2.1.2.1.2.1.3.1h.1l.3.1h.1l.2.1h.1v.6l.1.1v.2l.2.2v.1l.2.2v.1h.1v.1l.1.1v.6l-.1.4v1.3l.2.3v.2l.1.2.1.2.1.1.2.2.1.2.2.1.5.5.1.1.2.2.1.2.2.2.1.2.2.1.1.2.1.2.2.2v.4l.1.2v.7h.1l.1.2.1.1.2.1.1.1h.1v.2l-.2.1-.1.2-.1.1v.2l-.1.2v.5l.1.2.1.2.3.5.1.3.1.1v.2l.1.1v.2l.1.1v.7h-.1l-.1.2h-.2v.1l-.4.2h-.1l-.1.1-.3.2-.2.1-.2.1-.6.2-.1.1h-.1v.1l-.1.2-.1.1-.2.3v.1l-.2.2-.1.1v.1h-.1l2 .2 1.8.1h.9l1 .1 2.7.1h.6l.4.1h.4l.1.1h.2l.1.1h.1v.2l.1.1v.1h.1v.3h-.1v.1h-.1v.3l.1.2.2.2.2.2v.1l.1.1v.2l.1.1v1.7l.1.1v.2l.2.1v.1l.1.2.2.2.3.4.2.2.1.2h.2l.1.1h.2v.1l.3.1h.2l.3.2h.2l.2.2h.1l.2.1.2.2.1.1h.8l.2-.1h.2l.2-.1h.1l.3-.2.2-.1.3-.3.4-.2.4-.2h.2l.3-.3h.1l.7-.4h.3v-.1l.2-.1v.2l.2.3v.2l.2.3-.2.2-.3.2-.2.2-.3.1-.2.2-.6.3-.2.2h-.2v.2l-.1.1v.6l.2.6v1.7l.1.1v.2l.1.2v.2h.1l.1.2h.2v.1l.2.1.1.1h.1l.1.1h.2l.3.1h1l.4-.1.6-.2h.7l.1.1v.3l-.2.2v.1l-.4.4v.1l-.2.2-.1.1v.7h.1v.2h.1l.2.3.2.2v.1l.1.3v.1l.2.4v.2l.2.1v.1l.2.3.1.1.4.5.1.1.1.2.1.1v.2h.6l.1-.1.2-.1h.2l.1-.2h.2v-.1h.1l.1-.1.2-.2.2-.2.3-.4.4-.6.1-.1.2-.1h.1l.1-.1h.4l.6-.1h.4v-.1h.2l.1-.2.2-.1.1-.1h.1l.1-.1h.2v-.1h.5l.2.3.1.2.3.4.1.2.1.2.1.1v.2l.2.2.1.4.1.3.3.7v.3l.5 1 .2.6v.3l.2.2.1.3.5.8.3.5.2.4.5 1 .1.2.1.2h.1v.2l.1.1.2.1v.1l.1.1h.1l.1.1h.2l.3.1h.2l.2.1.2.2h.1l.1.2.1.1.1.1.1.2.2.2v.4l.1.2v.4l-.1.6v1.3l.1.2.1.1.1.2h.1v.3h-.1v.2l-.2.1v.1l-.2.2-.5.4-.2.1-.6.6-.6.4-.4.5 1 1.6.3.3.2.4.2.3.3.3.2.3.2.2.2.2h.1l.1.2h.2l.2.1h.3l.3.1.7.1h.3l.6.2h.8l.3-.1h.7l.4.1h.2l.4.2.2.1h.1l.1.1.3.2.4.2.1.1h.1l.1.2.2.2.1.1.1.1.2.1h.7l.2.1.1.1.1.1.1.2v.2l-.1.2-.4.6v.1l-.1.2v2.5l.1.3v.1l.2.2v.2l.1.1.1.1.3.3.3.3.1.2.4.4.7 1 .1.2.2.1v.2h.2v.1h.7l.2-.2h.1l.8-.6.3-.2.1-.1h.2l.2-.2.3-.1.7-.3.3-.1h.1l.3-.2.4-.2.3-.2 1.2-.8.5-.3.2-.2.3-.2.2-.2.2-.2.2-.2.2-.2.6-.6.1-.2.2-.2h.1l.1-.1.2-.1h.2v-.1h1.1l.2.1h.1l.1.1.2.1.2.2.2.1v.2l.2.1v.4l.1.1v.2h.1l.1.1h.1l.1.1h.2l.1.1h.8l.2-.1v-.1h.2l.2-.2.2-.1.1-.1.2-.1.1-.2.3-.3.1-.1.1-.1h.7l.2.2h.2l.1.2.2.1.2.2.2.3.2.2.1.2.1.2v.1l.2.1v.1l.2.2.2.2.2.2.2.2v.1l.1.1v.2l.1.1v1.2l.1.2.2.3v.5l-.2.2v.3l-.2.2v.2l-.2.1-.1.1-.1.1-.2.1v.1l-.2.1-.2.2-.1.2-.5.6-.1.2h-.1l-.5.6-.2.2-.1.2-.1.1v.1l-.1.1v.8l.1.3.1.2.1.2.1.2.1.2.1.1h.1l.1.2h.2l.1.2h.2l.4.2v.1h.2v.1l.2.1v.1l.1.1v1.1l-.2.2v.1h-.2v.1l-.4.3h-.1l-.1.2h-.1l-.1.2h-.1l-.2.3-.2.1-.2.2-.3.2-.3.2-.3.3h-.1l-.1.1-.2.3h-.1l-.2.2h-.2l-.2.2-.3.1-.1.1-.3.1h-.3l-.2.2-.6.1-.6.2-.4.2h-.2l-.2.1h-.2l-.1.1-.2.1h-.1l-.2.2-.2.1-.1.1-.3.2v.2l-.2.1-.2.2-.1.2v.1l-.1.1v.1l-.1.2v.2l-.1.1v.9l.1.1v.2l.2.1v.1l.2.3.2.1v.1l.1.1h.5v-.2l.4-.3.1-.2.2-.1.1-.2.1-.2.3-.5.2-.4v-.1l.2-.1v-.1l.1-.1v-.1l.2-.1.2-.1v-.1h.2l.1-.1h.3v-.1h.7l.3.1h.2l.8.3.3.1h.3l.2.1h.7v-.1h.1v-.1l.2-.1v-.1h.2v.2l.2.2.1.4.3.5v.2l.1.2v1.3l.1.2v.3l.2.7v.8h-.2v.4l.1.1.2.2.1.1v.1l.1.2.2.2v.5l.1.2v.8l-.1.2-.1.1v.1l-.1.1-.2.1v.2h-.2l-.1.1-.1.1-.4.2-.2.1-.2.2-.3.3-.2.2-.2.2h-.1l-.2.2-.3.3-.2.1-.1.1h-.1l-.1.1h-.3l-.3.1h-.2l-.5.1h-.3l-.1.1-.2.1h-.1l-.6.4-.2.1v.1h-.1l-.4.4-.3.4-.1.1-.2.3v.2l-.3.2-.2.2-.1.2-.3.2-.3.3-.3.2h-.1l-.2.2-.1.1-.2.1-.3.4-.1.1-.2.3-.1.1v.1h-.1v.1l-.1.2-.2.3-.1.2-.2.2-.1.2-.2.2-.3.2-.2.2-.2.2-.4.4-.3.2-.2.2-.6.4-.4.4-.2.2-.3.2-.2.1-.2.1-.2.1-.2.2-.7.3-.7.3-.7.3-.3.2h-.8l-.2-.2-.1-.1-.2-.1v-.2l-.3-.2-.5-.6-.1-.1v-.1l-.2-.1h-.1v-.1h-.3l-.1.1-.2.1-.1.2-.4.3-.2.2h-.1l-.1.2h-.2l-.2.2h-.1l-.3.2-.2.1-.3.1-.3.1-.2.1h-.2l-.4.2-.8.1h-.4l-.1.1v.3l.1.2.3.4.2.1v.2l.2.2v.1l.2.2v.3l.1.1v.7l-.2.2-.2.2v.1l-.2.1-.2.1-.2.2h-.2l-.2.1-.4.2-.7.3-.5.1h-.2l-.3.2h-1.3l-.1-.2h-.1l-.4-.4h-.1l-.2-.2h-.5l-.2.1-.2.1-.4.3-.3.1v.1h-.1l-.2.1-.3.2-.2.1-.1.1-.1.1-.3.2-.2.3-.1.1-.2.2-.1.2v.1l-.1.1v.1l.1.1.2.1h.2l.8.2.6.1h.4l.2.1h1.2l.1.1h.1l.1.1.1.1h.1l.2.2.4.6v.1l.2.2.1.2.2.1.1.2.7.6.1.1v.1l.2.1v.6l-.2.1-.2.3-.3.5-.2.1v.2h-.1l-.1.2v.1l-.1.2v.2l.1.2h.2v.1h.2l.2.1.2.1h1l.1.2v.7l-.3.4-.1.2v.2l-.1.2v.3h.1v.2l.2.2 1 1.3.3.3.1.1.1.2.4.6.4.7.2.2.3.4.4.5.2.2v.2l.1.1.1.2.3.6v.2l.2.3.1.1.1.2.2.2.1.1.2.1.2.2h.3l.1.1h.8v.1h-.1l-.1.1-.1.1h-.1v.2h-.1v.2l.2.1.1.1h.1l.1.1h.1v.2h.1v.1h.1v.3l.1.2v.6l.1.1v.4h-.1v.2h-.2l-.4.4-.3.2-.2.1-.1.2h-.2v.2l-.3.4v.1l-.1.1-.1.1h-.1v.1h-.2l-.1.1h-.4l-.3-.1h-.5l-.1.1-.2.1h-.2l-.3.2-1.3.8-.4.2-.2.1-.2.2-.1.1-.1.1-.1.1-.1.1v.1l-.1.2v.5l.1.2.1.2.1.1.2.2.2.2h.4v.1h.6v.1h.2l.1.1v.1h.2v.2l.2.1.4.5.2.2.1.2.2.1h.1l.3.3h.1l.1.1.2.1v.1l.2.1v.2l.1.1.1.2v1.5l-.1.2-.2.2v.1l-.3.2-.1.1-.3.2-.1-.1h-.2l-.1-.1h-3.3l-.4-.1h-.7l-.3.2h-.2l-.2.1-.1.1-.2.2h-.2l-.1.2-.2.2v.1l-.1.2-.2.3v.2l-.1.2h-.1l-.1.2h-.2l-.2.2h-.2l-.3.2h-.3l-1.1.4-1.4.4h-.1l-.2.1h-.2l-.2-.1-.2-.1H180l-.1-.1-.2-.2h-.2l-.1-.1h-4.5l-.2.1h-.1v.1l-.2.1-.1.2-.1.1-.2.2-.2.2-.2.2-.1.1-.1.2v.1h-2.6l-.1-.1h-.1l-.2-.2h-.1l-.2-.2-.2-.2h-.1v-.1h-.1l-.1-.1h-.4l-.2-.1h-.6l-.2-.1h-.2l-.2-.1h-1l-.3.1-.3.1-.3.1-1.5.5h-.3l-.4.2h-.2l-.3.1h-.3l-.4.1h-.7l-.4.1h-1.2l-.6.2h-.6v-.1h-.2v-.1h-.1l-.1-.2-.1-.2v-.1l-.4-.7v-.2l-.3-.4-.2-.3-.1-.2-.3-.5-.2-.3v-.2l-.1-.2v-.6l.1-.2.1-.2.1-.2.3-.7.1-.1v-.3l.2-.2v-1.9h-.2l-.4 1.1v.5l-.1.2-.3 1.4-.2.9v.3l-.2.7v.3l-.1.2-.2.5-.1.2v.3l-.1.2v1.3l-.1.2-.2.7v.5l-.1.2v1.3h.1v.2l.1.1.1.1.1.1.1.1.2.2.1.1.2.2v.7l-.1.1-.1.1h-.8l-.1-.1h-.3l-.1.1v.3l.2.2v.2h.1v.2l.1.1v1.7l-.2.3-.1.2v.1l-.2.1v.2h-.2l-.2.3-.1.1-.1.1-.3.1-.1.2-.1.1v.2l-.1.2v.8l-.1.1v.2h-.1l-.1.2-.1.2-.2.1-.2.1-.1.1-.6.4h-.2l-.2.2-.2.2-.2.2-.2.2-.2.4v.1l-.1.1-.1.2-.1.1-.1.1-.1.2h-.2v.1l-.1.1-.2.1-.3.1-.3.2-.2.2-.3.1-.2.1-.1.1-.1.1-.2.2-.1.1-.2.1v.1h-.3v-.1l-.3-.3-.6-.6-.2-.1-.2-.2h-.1v-.1h-.2v-.1h-.2l-.1-.1h-.3l-.1.1-.1.1-.1.2-.1.2v.3l-.1.3-.1.4v.5l-.1.6v.6h-.1v.3h-.2v.2l-.1.1-.1.1-.1.2h-.2l-.2.2h-.8l-.4-.2h-.4l-.1-.1h-.6l-.3.2h-.1v.1l.2.2.2.2.3.1.1.2.2.1.2.1.2.2.2.1.1.1.2.2v.1l.2.1v.1l.1.2.2.3v.1l.1.2.3.4.1.1.3.3.1.1.2.1h.2v.1l.1.1h.1v.1l.1.1v.2h.1v1.7h.1v.2h.1v.1l.2.1.2.3h.2l.1.2.5.6.1.2.2.2.2.2.3.2.5.6h.1v.1l.1.2v1l-.1.1-.2.4-.1.1-.1.2-.1.2v.4l-.1.3v.7l.1.2.1.2.1.2.2.1v.1h.1l.2.2.4.2h.2l.2.2h.2l.3.1h.2l.2.1h1.3l.2-.1h.2l.1-.1.6-.3h.2l.2-.1.3-.2h.2l.2-.1.2-.1h.1l.1-.1.2-.2.4-.4.1-.2.2-.1.1-.1h.5l.4.2h.3l.2.1h.5l.2.1.2.1h.1l.1.2h.2l.1.2h.1v.2h.1v.4l.1.2v.4l.1.2v.2l.1.2.1.2.1.1v.1l.1.1.2.2.2.2v.1l.2.1.2.2.3.2.4.4.5.3.1.1h.1l.6.4h.2l.2.2.8.5.2.2h.2l.1.1h.2l.1.1h1v.2h.1v.5l.1.2v1.2l.2.7v1.6l-.1.2-.2.4v.2l-.1.2v.3l-.1.2v1.4l.1.1.1.2.1.2v.2h.2v.3h.1l.2.3.2.2.1.2h.1l.5.5.1.2h.1l.3.4.1.1.1.1.1.1h.1l.6.4h.1v.1h.1v.3l-.2.1v.1h-.2l-.1.1h-.2l-.2.1h-1.3l-.7.1h-.6l-.2.1-.2.1-.3.1-.2.1-.2.1h-.1l-.1.1-.3.2-.2.2-.1.1-.3.3-.1.1-.2.1-.2.1-.3.2h-.2l-.2.1-.4.1h-.3l-.2.1-.1.1-.2.1-.2.2v.1l-.2.2-.3.3-.1.3-.1.1v.1l-.1.2-.1.1v.1l-.1.2-.1.6-.1.2v.1l-.1.1v.1l-.1.2h-.1l-.1.1-.2.2-.1.1-.2.1-.2.1-.2.1h-1l-.2.1h-.4l-.1.1-.1.1-.1.2-.2.2v.2l-.1.2v.2l-.1.1v.3l.2.2v.1l.3.2v.1l.3.2v.1l.2.1.2.1h.1l.2.1.2.1.6.1h.1l.1.1h.2l.1.2v.4l-.2.2-.1.2-.2.1-.1.1-.2.2h-.2l-.1.2-.3.1-.4.3-.2.1-.2.1-.3.3-.2.2-.1.1-.3.2-.9.6-.2.2h-2.1l-.1.1h-.2v.2h-.1v.2h.1l.2.3v.1l.1.2v.3l.1.1v.5l-.2.2v.1l-.1.2-.2.1v.1l-.3.2-.6.4-.2.2-.3.3-.2.1-.2.2-.2.1h-.2l-.1.1h-.2l-.2.1-.6.1-.2.1h-.3l-.1.1-.2.1-.2.1h-.1l-.1.2h-.2l-.3.3v.1l-.2.1-.3.2h-.1l-.1.2h-.1l-.2.2v.2l-.1.2-.2.4-.1.3-.1.2v.2l-.2.1-.1.2-.1.2-.1.1-.2.1v.1l-.2.1v.3l.1.1.1.2v.1l.1.2v2.6l.1.3v.2l.1.2.1.2v.1l.1.1.1.2.3.3v.1l.1.1v.5h-.1v.1h-.1v.1h-.2l-.1.1-.5.1h-.1l-.2.2h-.2v.1h-.1v.9l-.1.1-.2.2-.1.1-.4.4-.2.2-.1.1-.1.1-.1.1v.1l-.1.1v.1l-.1.1v.2l-.1.2v1.1l-.1.3v.2l-.1.3v.2l-.1.2-.1.2-.1.1h-.1l-.1.1-.2.1h-.8l-.2-.1-.4-.2-.1-.1h-.7l-.1.1-.2.1-.2.2-.2.1-.1.1-.1.2-.1.2-.2.6-.1.2-.1.1v.1l-.2.2v.1h-.2v.1h-.9l-.2.2h-.1l-.2.2h-.2l-.1.2-.1.1-.3.3-.1.1h-.1l-.1.1h-1.9l-.2.1-.5.1-.8.3h-.5l-.2.1h-.7l-.1-.1h-.2l-.2-.2-.4-.2h-.2l-.2-.1-.7-.1h-.4l-.3-.1h-.1l-.1-.1h-.2v-.1l-.2-.1-.2-.1-.5-.4h-.1l-.2-.2h-.2l-.2-.1h-1v.1l-.2.1-.2.4v.2h-.2l-.2.1h-.2l-.1.1h-.8l-.1-.1h-.2l-.2-.2-.3-.1-.3-.2v-.1l-.1-.1-.1-.1-.1-.1v-.2l.1-.2.3-.4h.1l.1-.2.1-.2.1-.2.2-.5.1-.2.3-.4v-.2l.2-.3.1-.3v-.3l.1-.1v-.2l.1-.4.1-.3.1-.5v-.2l.1-.1v-.2l.2-.1v-.1l.2-.2h.1l.1-.2.2-.1.3-.3h.2v-.2h.1v-.2h.1v-.6l-.1-.1v-.1l-.4-.4-.1-.1-.1-.1v-.2h-.1v-.1l-.1-.2v-.1l-.1-.3v-.5l-.2-.5v-.7l-.1-.2v-.3h.1V-34h-.1v-.2l-.1-.1-.1-.2-.1-.1h-.1v-.1h-.3l-.1-.1-.4-.1h-.3v-.1h-.2v-.2h-.1v-.1l-.1-.1v-.4l-.2-.3v-.4l-.1-.1-.3-.7-.2-.2v-.2l-.1-.3v-.5l-.1-.2v-1l-.1-.4v-.2l-.1-.4v-.3l-.2-.4v-.5l.3.2h.1l.2.1h1l.2-.1v-.1l.2-.2v-.1l.1-.1v-.2l.1-.5v-.2l.1-.3v-.2l.1-.2.1-.3.1-.1v-.1l.1-.2.1-.1.1-.2.1-.1.1-.2.2-.1.2-.2v-.1h.1v-.2l.1-.2v-1l.1-.2.1-.2.1-.3.2-.3v-.2l.2-.3.4-.5.2-.4v-.1l.2-.2.2-.2.1-.1.2-.1.3-.3h.1v-.2h.2v-.2h.1v-.7l-.1-.1h-.1l-.2-.1-.2-.1-.4-.1h-.1l-.1-.1v-.1h-.1v-.3l.1-.1.1-.1.1-.1h.1l.2-.1.4-.2h.2l.1-.1.1-.1.1-.1.1-.2.1-.2v-.6l-.1-.2-.1-.1-.1-.2-.4-.6-.2-.3v-.2l-.2-.2v-.3l-.2-.6v-.2l-.1-.2v-.1l-.1-.1-.1-.1-.1-.2-.1-.1-.1-.1-.2-.1v-.1h-.1l-.2-.2-.3-.2-.2-.1-.4-.3-.9-.5-.3-.2-.1-.1-.2-.2-.2-.1h-.1l-.1-.2-.2-.2v-.1l-.2-.2v-.1l-.2-.3-.1-.3v-.1l-.2-.4-.2-.7-.2-.3-.2-.5v-.3l-.2-.2v-.2l-.2-.1v-.1l-.1-.1-.1-.1v-.1l-.2-.1-.2-.1-.1-.1h-.1l-.2-.1-.3-.1h-.3l-.1-.1h-.6l-.5.1h-.8v-.1l-.4-.1h-.2l-.5-.3h-.2l-.3-.1-.7-.3h-.1l-.2-.1-.2-.1h-.2l-.2-.1-.5-.1h-.3l-.1-.1h-.2l-.2-.2h-.3l-.3-.2-.7-.3-.3-.2-.4-.1h-.1l-.1-.1-.1-.1v-.1h-.1v-.8l-.1-.6v-1.4l.1-.2.1-.3v-.2l.4-.8v-1.7l.1-.1.1-.1.1-.1h.1l.2-.1h.2l.3-.1h.2l.2-.1h.2l.1-.1.2-.1.2-.1v-.1l.2-.1v-.1l.3-.2v-.1l.4-.4.2-.3.2-.2v-.2l.2-.2.3-.4v-.2l.1-.1v-.1l.1-.2V-79l-.1-.2v-1.2l.2-.3.2-1.1v-.2l.1-.1v-1l-.2-.4v-1.3l.1-.2.2-.4v-.9l.1-.2v-.1l.1-.2.1-.1.2-.2v-.2l.5-.3.1-.2.1-.1v-.1l.4-.4v-.1l.2-.1v-.1l.2-.1v-.1l.2-.1.4-.2.1-.1.2-.1v-.1l.3-.2v-.1l.1-.1.1-.1v-.1l.2-.2v-.2l.1-.1V-92l-.1-.1-.1-.1-.1-.1h-.1v-.1h-1.1l-.2-.1-.2-.1-.1-.2h-.1l-.1-.2-.1-.1-.1-.2v-.1l-.1-.1v-.9l.1-.2.1-.3v-.1l.2-.2v-.1l-.2-.1v-.1h-.2l-.1-.1-.1-.1-.6-.3-.1-.1-.2-.1v-.1l-.1-.2v-1.2h.1v-.1h.2l.1-.1.2-.1h.3l.4-.1h.3l.5-.1h.4l.1-.1h.1l.1-.1h.1v-.1l.1-.1.2-.3.1-.2v-.1l.2-.2v-.4l.1-.2v-.2h.1v-1.5l.1-.4v-.3l.1-.1v-.1l.3-.2v-.1l.1-.1v-.6l-.1-.2-.2-.3-.2-.5-.1-.3-.2-.3v-.7h.2v-.1l.6-.5.2-.2h.1l.2-.2v-.1h.1l.1-.2.2-.2v-.1h.2v-.1h.6l.2.1h.2l.1.2h.1l.1.1.1.1.1.1v.1l.1.2.1.1v.3l.1.4v.2h.1v.2h.1v.2l.2.1v.1l.1.1.2.2.2.1.1.1.1.1.1.1h.3v.1h.3l.2-.1v-.1h.1v-.2l.1-.2.1-.2v-.8l-.1-.1h-.1l-.1-.2-.3-.2-.1-.1-.1-.1v-.8l.2-.8.2-.7.1-.3v-1.3l-.1-.1-.1-.3-.2-.6-.2-.4v-.3l-.1-.2v-.9l.1-.1.1-.3.2-.3v-.1l.1-.1.1-.1v-.1l.2-.2h.1l.4-.4.1-.1h.1v-.2l.2-.1.1-.3v-.1l.1-.1h.1v-.1h.2l.2-.1h.5l.2-.1.2-.1h.1l.1-.1.1-.1.2-.1.3-.3.3-.2.1-.1.1-.2.1-.1.1-.1v-.7h-.1v-.1h-.1l-.1-.1h-.1v-.1h-.4l-.4-.1h-.1l-.2-.1h-.2l-.2-.1-.1-.1h-.1v-.1h-.1v-.2h-.1v-.2l-.3-.6v-.2l-.1-.2v-.2l-.1-.2-.1-.5v-.3l-.2-.5v-.2h-.3l-.2-.1H122l-.8.3h-3l-.3-.1H116l-.2-.1h-.2l-.1-.1-.2-.1v-.1l-.2-.1-.3-.5-.4-.4-.1-.2v-.1l-.2-.2v-.2l-.1-.1-.1-.3v-.4l-.1-.2v-.9h-.3l-.2.3-.1.2-.2.2-.2.4-.9 1.2-.5.7-.3.5-.2.3-.2.1v.2l-.3.2-.2.1-.1.2-.3.1-.2.2-.3.3-.4.2-1 .6-.6.4-.5.3-.4.2-.2.2h-.2l-.2.2h-.2l-.7.3-.4.2-.2.1-.3.2-.3.2h-.2l-.1.1-.1.1-.2.2-.2.2v.2l-.1.2-.4 1-.2.7-.1.4-.1.2-.1.2-.1.2-.1.2-.1.1-.2.2h-.1l-.2.2-.3.1-.1.1-.1.1v.6l.2.3v.4l.1.2v.7l-.1.2-.1.1-.2.2-.1.2h-.2l-.2.2-.2.1-.2.2-.5.2-.8.4-.6.3-1.1.5-.5.2-.7.4-.3.2H95l-.2.2h-.1l-.4.5-.2.1-.1.2h-.2l-.1.1h-.1l-.3.2-.4.1-.2.1-.2.1-.2.1-.1.2H92v.2h-.1l-.2.4-.2.2-.2.4-.4.8-.1.3-.1.2-.3.4-.1.2v.2l-.2.2v.2l-.2.3-.1.4v.2l-.2.3v.3l-.1.3v.4l-.1.2-.1.2v.1l-.2.2v.2H89l-.1.2h-.1l-.2.3h-.1v.2h-.1v.1l-.1.1v.6l.2.2v.2l.2.2.3.7v.2l.1.1.2.2.1.1.1.1h.3v.1H91l.1.1.1.2.1.1v.2l.2.4v1l-.2.4v.1l-.1.2v.4l-.1.7v.4l-.1.2v.1l-.1.1-.4 1v.2l-.3.7-.1.3-.2.4-.2.7-.1.2-.2.3v4.4l.1.2v.5l-.1.3v.8l.1.6v.3l.2.2v.3l.2.2v.1l.4.5v.2h.1v.3H90l-.1.1h-2.5l-.5-.1h-1l-.2.1h-.2v.1l-.3.2H85l-.2.2h-.3l-.5.2-1 .3-.3.1-.9.4h-.1l-.7.2h-.2l-.2.1h-.3v.1l-.2.1v.1l-.2.1-.2.1h-.3l-.5.1h-.4v.1l-.4.1H78l-.3.1h-1.1l-.3.1h-.7l-.6.1h-1l-.3-.1H73l-.3.1-.4.1-1.3.4-.5.2h-.2l-.2.2H70l-.1.2-.2.1-.2.2h-.1l-.1.2-.1.1v.1l-.1.1-.1.2-.2.4-.1.3-.1.1-.1.2-.1.1-.1.1-.2.2-.1.1-.2.2-.2.2h-.2l-.1.2H67v.1h-.2l-.2.2h-.4l-.3.1h-.2l-.3.1h-.2l-.2.1h-1.9l-.1.1-.1.1-.1.1-.1.1-.1.1-.5.6-.5.5-.2.3-.1.2-.2.4-.2.3-.3.5-.2.4-.5.8v.2h-.1l-.1.1-.1.1h-.1l-.2.1h-.2l-.2.1-.2.1h-.1l-.2.1-.1.1-.4.3-.1.1-.2.1h-.1l-.2.1h-1l-1-.1h-1.1l-.7.2h-2l-.2.2h-.2l-.4.2-.7.3-2.2 1.1-.5.2-.2.1-.2.1-.2.1h-.3l-.2.2h-.8v-.1l-.3-.2-.3-.1-.3-.2h-.3l-.6-.3h-.3v-.1l.7-.8.3-.3.1-.2.1-.1.2-.3.2-.4.2-.2v-.1l.1-.2v-.2h.1v-.2l.1-.2v-1l-.2-.4v-.3l-.1-.2-.4-1.1-.2-.5-.3-.7-.1-.4-.1-.2-.1-.2-.2-.2-.1-.3-.2-.2-.1-.3-.2-.2-.6-.9-.4-.5-.2-.4-.2-.2-.1-.2-.2-.4v-.2l-.2-.3-.1-.2-.1-.3v-.2L41-76l-.1-.4-.1-.3-.1-.2v-.2h-.1l-.1-.3-.3-.5v-.3l-.1-.1v-.2l-.1-.1v-1.1l.1-1v-2.4l-.1-.3-.1-.5-.2-.9-.1-.4v-.3l-.1-.4-.1-.4v-.4l-.1-.3v-.9l-.1-.3-.1-.3-.1-.4v-.2l-.1-.2v-.2l-.1-.1v-.9l.1-.3v-1.2l-.2-.2v-.2h-.2v-.1h-.2l-.1-.1h-.1l-.1-.1h-.1l-.2-.2h-.4l-.5.2h-.6L36-93v-.1l-.1-.1v-.6l.2-.4.2-.5v-.3h.1v-1.2l-.1-.1v-.1l-.2-.3v-.2L36-97l-.1-.2v-.4l-.1-.2v-.6l.2-1.3v-.6l.2-1v-.9l-.2-.6v-.3l-.2-.8v-.7l-.1-.3v-.6l-.1-.3v-.4l-.2-1-.1-.5-.3-1.2v-.9l.2-.3.2-.4v-.2l.1-.2h.1v-.1l.2-.2.2-.2.3-.2.2-.2h.1v-.2h.1l.1-.3v-.1l.2-.5v-.1h.1v-.1l.1-.1h.1v-.1h.2l.1-.1-.1-.2-.3-.4-.1-.2-.1-.2h-.1l-.2-.2-.3-.4-.2-.2-.3-.2-.1-.2h-.1l-.1-.2-.1-.2-.2-.4-.2-.3v-.2H35v-.8l.2-.7v-1.6l-.1-.2v-.1l-.1-.2-.1-.2-.2-.2v-.2l-.3-.2-.1-.2-.2-.1-.1-.1-.1-.1-.3-.2h-.1l-.2-.1v-.1l-.3-.4h-.1l-.1-.1-.2-.1-.2-.1h-.1l-.4-.2h-.2l-.2-.1-.1-.1-.1-.1-.2-.2v-.2l-.1-.2v-.7l-.2-1v-1.1l.1-.1.2-.2.2-.1.3-.2h.2l.4-.2.6-.3.3-.1.2-.1.3-.2.7-.4.7-.5.3-.1.5-.3.1-.1h.1l.1-.1v-.1h.1l.1-.1.1-.1v-.1l.2-.1v-.2l.1-.1v-.1l.1-.1v-1.4l-.1-.1v-.3l-.2-.2v-.1l-.1-.2-.1-.1-.1-.1-.2-.1-.2-.1v-1.8l.1-.4v-.3l.1-.2v-2l.1-.1v-.1h.1l.2-.2h.2v-.1h.1l.1-.1v-1.6l-.2-.3v-.7l.1-.1.1-.3.1-.2v-.1l.3-.4v-.1l.1-.2v-1.2l-.1-.1H37l-.2-.2h-.6l-.3-.2H36l-.1-.2-.2-.1v-.2l-.3-.4v-.1l-.2-.1-.1-.1-.2-.1h-.2l-.2-.1H34l-.2-.1h-.1l-.2-.2h-.2l-.3-.2-.3-.1-.3-.3h-.2l-.2-.1h-.7v.1H31v.2h-.2l-.2.2-.1.2-.2.2-.2.3-.1.1-.1.2-.2.2h-.1l-.4.3-.2.2-.2.2v.1l-.3.2-.3.4-.2.2-.2.2v.1l-.1.1v.1l-.1.1-.2.3h-.1l-.2-.2H27l-.4-.2-.1-.1-.3-.2-.2-.1-.2-.1-.5-.4H25l-.1-.2h-.1l-.2-.1-.2-.1-.3-.1-.4-.1-.2-.1-.2-.1-.2-.1-.1-.1-.3-.3h-.3v-.1l-.2-.1H22l-.1-.1-.3-.1h-.1l-.2-.1-.2-.1v-.1l-.2-.1-.2-.3-.1-.2h-.1l-.1-.1h-.1l-.6-.3-.3-.2-.2-.2h-.1v-.1l-.2-.1h-.1v-.2l-.2-.1-.1-.2-.2-.4-.1-.1-.1-.1v-.1H18v-.1h-.1l-.2-.1-.2-.1h-.1l-.1-.1v-.2h-.1v-1.2l.1-.1v-.2l.2-.2v-.2l.2-.1v-.1l.2-.2.2-.2.4-.3.4-.4.1-.1.1-.1h.1l.4-.2.2-.1h.1l.5-.3h.1l.2-.1v-.1l.2-.1v-.1h.1v-.3h.2v-.1h1.3v-.1l.1-.1v-.1l.1-.1v-.5l.4-.2.2-.1h.1l.1-.1h.3v-.1h.2v-.1l.2-.1.1-.3v-.1l.2-.1v-.1l.2-.1h1l.3-.1h.1l.1.1h.3l.3-.3h.1l.1-.1h.4l.2-.1h.6l.2.1h.2l.3.2h.1l.3.2h.2l.1.1h.2l.1-.2h.1l.2-.3.2-.3v-.2l.1-.1v-.1l.1-.4v-.1l.1-.1.4-.3.3-.3v-.2h.1v-.1l.1-.1v-.2l.1-.1v-.3l.1-.2v-.8h.4l.5.2h2.6l.1-.1h.1l.2-.2.3-.2h.2l.1-.2.2-.1v-.2h.2l.1-.2v-.1l.2-.2v-.1l.1-.3.1-.1.3-.5.1-.3.1-.2v-.2l.2-.2v-.7l-.1-.5v-.7h.6l.6.2.6.2.6.2.3.1.4.2h.7l.2-.1.4-.2h.2l.5-.3h.4l.4.1h.2l.2.1h.2l.2.1h.9l.2.1h.4l.3.2.5.2h.3l.2.1h.3l.1-.1h.1l.1-.1.3-.3.1-.1.3-.2.2-.2.1-.2.1-.2v-.3l.1-.3v-.4h.1v-.2l.2-.1v-.2h.1l.3-.5v-.2l.2-.1v-.1l.1-.2v-.1l.1-.2v-.2l.2-.5v-.2l.2-.3v-.2l.1-.2v-.1l.1-.1h.4l.2-.1.5-.1h.2l.2-.1h1.5l.7-.1H56v.1l.2.1v.1l.2.2v.1l.1.2v.2l.1.1v.7l.1.1.1.1.1.1.2.1.5.3h.1l.2.1.1.1.2.1v.1l.2.1v.2l.1.1v.2l.1.2v.2h1.1l.2-.1h.4l.3-.1h.3l.2-.2 1-.3h.3l.6-.2.5-.1 1-.3 1-.3.2-.1.6-.3h.3l.1-.1h.2l.1-.1h2l.4.1h.5l1 .2h.4l.1-.1.1-.2v-.2h.1l.1-.2.2-.3v-.1l.2-.1v-.3l.1-.2v-2.6l-.1-.4v-.1l-.1-.1-.1-.1-.1-.2h-.2l-.2-.2-.5-.3h-.2v-.1l-.1-.1-.1-.2v-.6l.1-.2v-.2l.3-.3v-.4l.1-.2v-.6l-.2-.2-.3-.5v-.2l-.1-.1v-.2l-.1-.2v-.7l.1-.5v-.7h.1l.1-.3.2-.2v-.3h.1v-.1l.1-.1.2-.1.1-.1.1-.1v-.1l.4-.3h.1v-.2l.1-.1.1-.2.1-.1v-2.2h.2v-.1l.2-.1.3-.1.6-.3.2-.1.2-.1.1-.1.1-.1v-.2h.1v-.6l-.1-.1-.2-.2h-.1l-.2-.2-.2-.1-.4-.2-.1-.1-.3-.2h-.1l-.2-.2-.3-.2-.2-.2-.1-.1-.3-.2-.2-.3-.1-.1-.1-.2-.1-.1-.1-.2v-.5l.1-.1h.2l.1-.1h.6l.1-.1h.1v-.2h.2l.2-.3.2-.2.2-.2h.2l.2-.1.3-.2h.1v-.1h.1l.1-.2.2-.2.2-.5.1-.2.1-.1h.2v-.3l.1-.5v-.2l.1-.5.1-.6v-.3l.1-.3v-.2l.1-.1v-.2l.1-.1v-.2l.2-.2v-.1l.1-.2h.1l.3-.4v-.1l.1-.1v-.8h-.1v-.1l-.2-.1v-.1H75l-.5.2h-.1l-.2.1h-1.1l-.2-.1-.2-.1h-.1l-.2-.1-.1-.1-.2-.1-.4-.4h-.1l-.2-.1-.2-.1h-.6l-.2-.1h-.1v-.1h-.1v-1.1l-.1-.1v-.2H70v-.1H70v-.1h-.8l-.1-.2H69l-.1-.2-.2-.3-.1-.1-.1-.2h-.1.4l.1-.1h.4l.2-.2h.1l.1-.2.1-.1.1-.2v-.2l.1-.1v-.6l-.1-.1-.1-.2-.2-.2v-.1l-.2-.2-.3-.4-.1-.1v-.1l-.1-.1v-.2h.2v-.1h.2l.4-.1.3-.1h.1l.1-.1h.1l.2-.2h.2v-.2l.2-.2v-.2h.1v-.3l.1-.4.1-.4v-.1l.1-.2v-.2l.2-.1.1-.2.4-.6.2-.1.1-.3v-.1l.2-.1v-.2l.1-.2.3-.7v-.2l.1-.1v-.4l.1-.1v-.6l-.1-.2v-.1l-.1-.2v-.1l-.2-.2-.7-.8h-.1v-.2l-.1-.2-.3-.5-.1-.2v-.1l-.1-.2v-.7l-.1-.1v-.9l.1-.1.1-.1.4-.5v-.1l.1-.1v-.1h-.6l-.2.2h-.7l-.4-.1h-.1l-.1-.1H69l-.2.2-.2.1-.2.2-.1.1-.8.7-.3.3-.2.2H67l-.1.2h-.3l-.2-.1v-1.2h.1v-.6l-.1-.2-.1-.2-.1-.2v-.2l-.1-.1v-.3l-.1-.5v-.8l.2-.3.1-.2.3-.9.1-.1.1-.3.1-.2v-.3l.1-.2v-.4l.1-.1v-.1l.1-.1v-.1l.1-.1h.1l.1-.2h.1l.2-.2.3-.1.1-.1h.1l.1-.2.2-.1.1-.1v-.1l.1-.2.1-.2.1-.2.1-.3v-.2l.2-.1.2-.5v-.1l.1-.2v-.2l.1-.1v-1.6l-.2-.5v-.4l-.2-.6v-.4l-.1-.6v-.5l-.1-.4v-.3l-.1-.3v-.3l-.2-.4v-.2l-.1-.2v-1.6l.1-.1h.3l.6-.2h.2l.2-.1.4-.1.3-.1.2-.1h.1l.2-.2.3-.1.3-.2.5-.3.2-.2h.2l.4-.2.1-.1.2-.1.1-.1h.2v-.1h.5l.2-.1h.7l.1.1h1l.2.1.1.1.1.1v.2h.1v.2l.2.3v.2l.2.2h.7l.2-.2h.1l.4-.2h.7l.4.2.2.1h.8l.1.1.2.2.2.2v.1h.1l.1.1h.8l.2-.1.4-.1.3-.2.7-.2.4-.2.3-.2.5-.2.2-.1.2-.1.1-.2.1-.1.1-.2.1-.1.1-.2v-.1l.1-.2v-.3l-.1-.2-.2-.2-.1-.1-.2-.2-.5-.4-.2-.2-.1-.2-.2-.2v-.1l-.2-.2v-.1l-.1-.2-.1-.2-.1-.2v-.3l-.1-.2-.1-.2v-.2l-.1-.2v-.6l-.1-.3-.1-.9v-.2l-.1-.8v-1.7l.1-.1.4-.5.2-.1.1-.2.2-.1.3-.3.2-.1h.2l.2-.2h.3l.2-.1h.5l.2.1.1.1.2.1.3.3.1.1.2.1.3.2h.2l.1.2h.2l.6.4.2.2h.1l.2.1.3.1.2.1.4.2h.3l.1.1h.1l.1.2h.1l.2.1.3.3h.1l.1.1.1.1h1v-.1l.2-.1v-.1h.1v-.2h.1v-1l-.1-.2-.1-.2v-.1l-.1-.1v-.5l.1-.2h.1l.1-.1.1-.1.1-.2.2-.1h.1l.2-.2h.2l.5-.3h.3l.3-.1h.2l.1-.1.3-.2h.8l.2.1h.3l.2-.1h.1l.2.1v.1l.1.1.1.2v.2l.1.2v.2h.1l.2.3v.1l.2.2.2.1.2.2.2.2v.2l.1.2v.4l-.2.3v.2l-.1.1v.6l.1.1.1.2v.2l.2.1v1h.5l.1-.1h.1l.1-.1.2-.1v-.1l.5-.5.3-.3.1-.1.3-.3.3-.2.3-.3.2-.2.2-.1.2-.1.3-.2h.1l.2-.1.2-.1h.2l.2-.1h2.3v.1h.2v.2h.2v.2l.2.1.1.2.1.3.1.2.3.6.1.3h.1v.2h.2v.1h.2l.2-.1v-.5l-.1-.1v-.2l-.1-.1-.2-.2-.4-.6v-.2l-.2-.2v-.3l-.1-.1v-.4h.2l.1-.1.4-.2h.6l.1-.1h.7l.2-.1h.1l.2-.1.2-.1.2-.2.2-.2.3-.2h.1l.2-.2.3-.1.1-.1h.2l.2-.1.2-.1h.4v-.1h2.9l.3-.1h.1l.2-.1h.2l.2-.1.2-.1.2-.1.2-.1.2-.2.2-.1 1-.8h.2l.3-.2.3-.1.4-.2h.4l.2-.2h.4l.4-.1.5-.1h.4l.3-.2h.1l.4-.1h.2l1.3-.5.3-.1h.2l.4-.1.3-.1h.3l.5-.1h.2l.2-.1h.1l.2-.1h.1v-.1h.1v-1.1h.1v-.1l.1-.1h1.1l.7.3h.3l.2.1h.7l.2.1h.6l.3-.1h.2l.2-.2h.2l.2-.1.1-.2.2-.1.1-.2.8-1 .6-.6.1-.2.1-.1v-.1l.2-.2v-.5l.1-.3v-1h.5l.1-.2.5-.3.2-.2h.2l.1-.2h.3l.1-.1h.5l.1.1h.9l.4-.2h.2l.2-.1h.4l.1.1.1.1.2.2"/></defs><g clip-path="url(#p347479fbac)"><use xlink:href="#m8250a57f96" y="280.5" fill="#0c1321" stroke="#0c1321"/></g></g></g></g><defs><clipPath id="p347479fbac"><path d="M7.2 7.2h219.9v266.1H7.2z"/></clipPath></defs></svg>