<?xml version="1.0" encoding="UTF-8"?>
<!DOCTYPE svg  PUBLIC '-//W3C//DTD SVG 1.1//EN'  'http://www.w3.org/Graphics/SVG/1.1/DTD/svg11.dtd'>
<svg width="241.59pt" height="280.51pt" version="1.1" viewBox="0 0 241.59 280.51" xmlns="http://www.w3.org/2000/svg" xmlns:xlink="http://www.w3.org/1999/xlink">
 <metadata>
  <rdf:RDF xmlns:cc="http://creativecommons.org/ns#" xmlns:dc="http://purl.org/dc/elements/1.1/" xmlns:rdf="http://www.w3.org/1999/02/22-rdf-syntax-ns#">
   <cc:Work>
    <dc:type rdf:resource="http://purl.org/dc/dcmitype/StillImage"/>
    <dc:date>2024-07-04T12:10:24.124845</dc:date>
    <dc:format>image/svg+xml</dc:format>
    <dc:creator>
     <cc:Agent>
      <dc:title>Matplotlib v3.7.1, https://matplotlib.org/</dc:title>
     </cc:Agent>
    </dc:creator>
   </cc:Work>
  </rdf:RDF>
 </metadata>
 <defs>
  <style type="text/css">*{stroke-linejoin: round; stroke-linecap: butt}</style>
 </defs>
 <g id="figure_1">
  <g id="patch_1">
   <path d="m-0 280.51h241.59v-280.51h-241.59v280.51z" fill="none"/>
  </g>
  <g id="axes_1">
   <g id="PatchCollection_1">
    <defs>
     <path id="mcbfdb0b011" d="m137.44-259.06 0.29659 0.43123 0.23383 0.36383 0.22089 0.37059 0.20256 0.37624 0.1771 0.38139 0.1424 0.3866 0.095824 0.3924 0.027879 0.22165-0.002805 0.43187-0.063702 0.43744-0.10945 0.44155-0.14355 0.4446-0.16886 0.44692-0.33586 0.78194-0.31303 0.66927-0.48144 0.98542-2.0638 4.1404-1.432 2.9121-0.19614 0.4067-0.25126 0.60088-0.11932 0.33717-0.1036 0.34877-0.080471 0.35536-0.050432 0.34274-0.02805 0.34364-0.010712 0.34278 0.014593 0.67921 0.047365 0.7067 0.10665 1.0955 0.12284 1.0697 0.17284 1.3932 0.32289 2.4608 1.0179 7.4319 4.9603-2.0072 5.5564-2.2784 0.98147-0.38849 0.4903-0.18485 0.49044-0.17464 0.49094-0.16002 0.49186-0.1394 0.49328-0.11075 0.49529-0.071476 0.45121-0.023216 0.45173 0.010221 0.45055 0.035749 0.4476 0.055247 0.44276 0.070244 1.1666 0.22074 1.2581 0.19135 1.0376 0.18306 1.6264 0.32087 5.7939 1.187 3.8269 0.75872 1.5059 0.31814 0.80706 0.1945 0.43386 0.1149 0.38127 0.1094 0.6397 0.20895 0.25958 0.096428 0.39828 0.16343 0.38724 0.17935 1.2623 0.65931 0.40142 0.18379 0.34588 0.1276 0.34807 0.091348 0.41024 0.04909 0.26329-0.00597 0.26547-0.028364 0.2739-0.048488 0.28144-0.071221 0.17637-0.055645 0.31568-0.12942 0.25758-0.13876 0.3601-0.25148 0.22958-0.17612 0.51193-0.44296 0.1998-0.15759 0.10469-0.071918 0.1629-0.093731 0.12652-0.056757 0.26253-0.078935 0.16974-0.028722 0.26212-0.0144 0.20777 0.011559 0.24298 0.027365 0.62184 0.086304 0.35745 0.039037 0.34275 0.021964 0.4058 0.003431 0.41943-0.018467 0.36586-0.03106 0.39545-0.045363 2.1329-0.30437 0.7739-0.090582 4.0599 2.5859 1.8673 1.1632 0.89613 0.53843 0.87273 0.51017 4.0244 2.3203 0.90235 0.53474 0.87688 0.54797 0.51009 0.35006 0.36434 0.28301 0.33608 0.30396 0.29835 0.3314 0.14448 0.1978 0.25616 0.45722 0.1733 0.41902 0.14335 0.43915 0.12136 0.45395 0.10543 0.46471 0.094021 0.47247 0.085931 0.47801 0.15632 0.96685 0.14354 0.97588 0.18653 1.3958 0.16628 1.4124 0.23148 2.1189 0.10626 1.0267 0.34141 3.5772 0.1443 1.67 0.4888 3.8878 0.012363 0.11805 0.12305 0.70124 0.26482 1.3163 0.206 0.94435 0.64188 2.7963 0.18448 0.88485 0.1326 0.73474 0.13214 0.9428 0.10363 0.91276 0.073378 0.90781 0.019095 0.45274 0.004353 0.36417-0.021402 0.8784-0.065755 1.0269-0.10361 1.0376-0.064411 0.52395-0.1515 1.0885-0.15287 0.94722-0.084746 0.46634-0.18988 0.90896-0.10818 0.43717-0.11998 0.42072-0.13891 0.44297-0.11711 0.45164-0.096039 0.47382-0.079987 0.49187-0.12675 1.0264-0.099286 1.0719-0.081161 1.0749-0.097435 1.6134-0.045094 1.0873-0.013737 1.0367 0.01231 0.46158 0.030111 0.38727 0.050682 0.26954 0.066919 0.090739 0.2459 0.10797 0.7911 0.37953 0.42873 0.19 0.91401 0.38002 0.93141 0.36719 1.8187 0.69192 2.6074 0.97465 4.6582 1.7331 4.2884 1.5815 1.3618 0.51139 0.92858 0.35956 0.91737 0.37244 0.81736 0.35401 0.66993 0.3091-0.34826 2.4481-0.25766 1.6876-0.1874 1.091-0.21183 1.0464-0.11938 0.4991-0.12158 0.44811-0.46761 1.547-0.2325 0.81318-0.33985 1.0684-0.54574 1.9078-0.0785 0.29888-0.079797 0.38248-0.020026 0.12003-0.013477 0.18144 0.011788 0.13806 0.025771 0.10323 0.10474 0.22751 0.47144 0.76456 0.38369 0.58495 0.13955 0.24842 0.14292 0.32778 0.049992 0.1593 0.17637 0.68055 0.30799 0.90677 0.06709 0.2435 0.061334 0.27424 0.047893 0.28595 0.049776 0.41832 0.093751 1.0088 0.043901 0.6906 0.03735 0.25636 0.051114 0.23165 0.09159 0.29647 0.13488 0.31887 0.16084 0.30362 0.41477 0.71654 0.1936 0.38093 0.080238 0.17694 0.009489 0.01958-0.001015 0.028903-0.026633 0.1042-0.064728 0.15965-0.14572 0.3071-0.083544 0.20554-0.066053 0.2102-0.066432 0.25376-0.083962 0.35852-0.049346 0.28444-0.027795 0.27902-0.03428 0.51408-0.022206 0.18755-0.035747 0.19825-0.057201 0.22943-0.075522 0.23984-0.21403 0.56812-0.11267 0.25165-0.14882 0.29732-0.48033 0.87837-0.21204 0.42105-0.22126 0.51054-0.29597 0.77865-0.15313 0.37539-0.16174 0.35773-0.26432 0.5472-0.21356 0.39714-0.32518 0.5668-0.12411 0.24531-0.34689 0.7543-0.14614 0.28104-0.35707 0.59133-0.35935 0.67298-0.17133 0.30087-0.19506 0.30877-0.10734 0.14024-0.13733 0.12634-0.8196 0.6485-0.47508 0.39148-0.48332 0.42136-0.47409 0.44803-0.24489 0.25309-0.20995 0.23624-0.26339 0.32495-0.80242 1.0298-0.56774 0.68361-0.14299 0.14842-0.12513 0.11184-0.16883 0.13324-0.11051 0.068453-0.081415 0.03343-0.10141 0.01963-0.23206 0.005854-0.13061-0.008512-0.12868-0.022399-0.12584-0.042635-0.071273-0.037507-0.11997-0.095073-0.11185-0.12461-0.10685-0.14608-0.39685-0.62171-0.16005-0.2093-0.062331-0.058251-0.053165-0.030679-0.033892 6.1e-5 -0.019715 0.028744-0.15219 0.11717 0.005442 0.037217-0.015489 0.16578-0.12048 0.66966-0.38945 1.7317-0.060952 0.19959-0.084376 0.20268-0.10294 0.17779-0.10527 0.13048-0.14108 0.11283-0.15756 0.065309-0.24741 0.007975-0.25534-0.068116-0.2488-0.11241-0.30882-0.16096-0.14568-0.058786-0.19943-0.054103-0.19496-0.021413-0.18784 0.016034-0.2074 0.081361-0.12651 0.1053-0.078564 0.096031-0.072768 0.11493-0.14037 0.29406-0.11169 0.30695-0.10804 0.3578-0.32148 1.1829-0.12908 0.42418-0.16059 0.46984-0.27682 0.69847-0.5941 1.3735-0.16084 0.42127-0.10689 0.34686-0.083423 0.37814-0.034698 0.24485-0.025369 0.34759-0.00184 0.54486 0.008342 0.16328 0.05031 0.47655 0.064055 0.35311 0.13356 0.53788 0.12422 0.41208 0.12714 0.37348 0.15352 0.40309 0.13333 0.31716 0.48462 1.0347 0.15504 0.3763 0.11611 0.37831 0.071696 0.44642 0.011163 0.42746-0.033303 0.37777-0.061151 0.28363-0.075062 0.12619-0.027529 0.093732-0.087283 0.14231-0.10879 0.15523-0.86293 1.0954-0.22998 0.30126-0.26336 0.37004-0.21091 0.33192-0.18342 0.33805-0.13851 0.31158-0.11824 0.31356-0.27562 0.8184-0.1276 0.34814-0.14431 0.33679-0.24867 0.46154-0.43002 0.72588-0.23422 0.45852-0.11897 0.26989-0.13269 0.33027-0.43102 1.2147-0.12142 0.29315-0.35056 0.66908-0.26988 0.55048-0.15413 0.27225-0.15824 0.22646-0.18631 0.22364-0.27833 0.28115-0.29801 0.25104-0.3754 0.25359-0.35628 0.18038-0.30093 0.11067-0.31537 0.087426-0.3268 0.070707-0.7479 0.12336-1.8867 0.25178-0.72585 0.11714-0.34969 0.070218-0.33912 0.082051-0.38093 0.11663-0.35449 0.14498-0.25431 0.13962-0.22707 0.16848-0.26388 0.29026-0.20822 0.34483-0.15878 0.38753-0.1118 0.4212-0.025508 0.13921-0.024447 0.17159-0.03068 0.36766-0.008349 0.37961 0.012905 0.48265 0.032204 0.49475 0.037269 0.41158 0.099514 0.83625 0.06872 0.46149 0.082981 0.46082 0.32157 1.4351 0.076991 0.4352 0.0453 0.39876 0.023092 0.40701 2.14e-4 0.34367-0.01258 0.17764-0.029609 0.0823-0.20806 0.092216-0.26417 0.094832-0.48311 0.15189-0.4487 0.1167-0.26595 0.052036-0.34801 0.044383-0.37972 0.013945-0.31594-0.019839-0.27806-0.038858-0.22319-0.041374-0.86906-0.19299-0.57666-0.10133-0.25766-0.030232-0.30078-0.021566-0.3549-0.003731-0.37734 0.020132-0.96064 0.10539-0.42357 0.033922-0.25135 0.005898-0.2217-0.01473-0.26074-0.050197-0.19379-0.068144-0.18646-0.090644-0.21052-0.12098-0.5136-0.31474-0.32524-0.16658-0.94818-0.42478-0.24136-0.089637-0.29841-0.09438-0.34502-0.086911-0.1823-0.035138-0.23179-0.032207-0.22908-0.019497-0.26406-0.010048-0.37184 6.72e-4 -0.22687 0.00824-0.3302 0.026047-0.50071 0.067462-0.52299 0.10583-0.30456 0.079552-0.5931 0.18321-0.31234 0.10841-0.6205 0.23362-0.6479 0.26356-0.89007 0.38314-0.74868 0.33756-0.89051 0.42189-0.88889 0.45451-0.40791 0.22895-0.3055 0.18688-0.29399 0.2018-0.21287 0.17503-0.10959 0.12355-0.026171 0.062195 0.016924 0.021674-0.069071 0.042879-0.27874 0.24524-0.20655 0.20304-0.17922 0.19244-0.17721 0.20969-0.15573 0.20478-0.28028 0.42112-0.66532 1.1608-0.20849 0.40176-0.13357 0.34281-0.12473 0.41645-0.070642 0.20789-0.11494 0.27649-0.10848 0.22433-0.11442 0.20575-0.11898 0.18005-0.18937 0.23516-0.15645 0.15846-0.15722 0.13755-0.25308 0.19234-1.3762 0.92112-0.62115 0.45203-0.8527 0.57512-0.41494 0.28975-1.1228 0.87983-0.44804 0.31708-1.6861 1.0303-1.2003 0.63953-0.75143 0.37406-0.2788 0.14872-0.23596 0.14367-0.16614 0.11768-0.14008 0.11829-0.029657 0.033952-0.005262 0.017897-0.048289-0.026037-0.093795-0.005894-0.14309 0.011404-0.1709 0.028501-0.3086 0.08144-0.18076 0.066015-0.20104 0.087619-0.74461 0.36808-0.94846 0.42278-0.63048 0.3126-0.79429 0.4394-1.0576 0.63823-0.36538 0.19178-0.38257 0.17648-0.35382 0.14427-0.38456 0.13859-0.29024 0.093395-0.3109 0.087823-0.21684 0.050749-0.21076 0.038216-0.24761 0.026993-0.2732-6.11e-4 -0.29335-0.043893-0.21666-0.059112-0.17801-0.064319-0.19105-0.0846-0.2954-0.16316-0.26927-0.18384-0.29337-0.24297-0.26721-0.27189-0.14762-0.17945-0.093453-0.12863-0.17556-0.27811-0.16723-0.31143-0.092501-0.20099-0.10731-0.30281-0.047857-0.20951-0.03388-0.25439-0.044677-0.4982-0.03875-0.21523-0.063192-0.23709-0.071933-0.20461-0.1087-0.25198-0.39971-0.76727-0.18157-0.37642-0.26306-0.61006-0.23111-0.57903-0.3622-1.0139-0.37616-1.1243-0.18058-0.6126-0.044396-0.18733-0.017927-0.11722 0.004845-0.017786-0.075982 0.063644-0.14212 0.091582-0.27564 0.14818-1.3798 0.62436-0.40561 0.15755-0.1824 0.053887-0.25728 0.051945-0.24959 0.025129-0.42819 0.004488-0.89955-0.054338-0.37495 0.001082-0.56537 0.033842-1.4984 0.12424-0.34821 0.036502-0.43858 0.063367-0.30007 0.05443-0.49903 0.10972-0.43207 0.11798-0.23879 0.081558-0.25452 0.13482-0.20415 0.18674-0.12368 0.20448-0.063865 0.16631-0.054972 0.20472-0.14376 0.72785-0.10389 0.3085-0.13286 0.22265-0.17806 0.18145-0.17791 0.11199-0.13706 0.062024-0.11914 0.042796-0.23768 0.059617-0.25569 0.032169-0.26767 0.012131-0.78669 0.011235-1.3757-0.10346-0.26504-0.010464-0.13184 0.005411-0.085353 0.010011-0.164 0.041528-0.19591 0.1118-0.14521 0.14962-0.025865 0.038288-0.039117 0.070134-0.052387 0.13372-0.042807 0.21751-0.007789 0.23911 0.023514 0.25361 0.017344 0.10378 0.16254 0.74828 0.061115 0.352 0.035942 0.28154 0.028571 0.33052 0.014761 0.33452-0.0042 0.46278-0.024115 0.33672-0.046986 0.33944-0.052844 0.2487-0.070457 0.24086-0.10112 0.25823-0.079715 0.16948-0.2168 0.39698-0.4251 0.70212-0.15669 0.31189-0.071402 0.19623-0.036885 0.1287-0.060654 0.30354-0.030557 0.31553-0.003604 0.23282 0.015148 0.26568 0.021573 0.17428 0.035597 0.1932 0.044581 0.1775 0.078087 0.23703 0.081718 0.19972 0.20079 0.40387 0.88877 1.5793 0.69339 1.2837 0.22327 0.43476 0.26259 0.57785 0.18219 0.45038 0.13283 0.38988 0.099556 0.39135 0.048189 0.31739 0.010315 0.32237-0.014349 0.17645-0.024937 0.14767-0.041602 0.15626-0.035009 0.097619-0.083975 0.17917-0.101 0.16366-0.077969 0.10581-0.16155 0.18275-0.20346 0.17679-0.1167 0.07901-0.12287 0.063251-0.062128 0.017134-0.028665-0.002721-0.26351 0.11952-0.18133 0.096776-0.27184 0.16504-0.20345 0.1443-0.18778 0.15749-0.16299 0.16998-0.12952 0.18315-0.098828 0.217-0.13042 0.4558-0.072924 0.2247-0.12654 0.27108-0.18706 0.3405-0.22239 0.37022-0.095507 0.14181-0.12496 0.16384-0.1329 0.13675-0.086156 0.060002-0.07805 0.033205-0.34041 0.066889-0.083123 0.025197-0.11616 0.052292-0.1335 0.079032-0.81072 0.57775-0.32658 0.21798-0.31725 0.19241-0.57447 0.29564-0.21613 0.12321-0.4566 0.29062-0.4082 0.29255-0.19716 0.15743-0.28717 0.2578-0.16736 0.17087-0.14985 0.17511-0.1256 0.17796-0.093061 0.17876-0.051696 0.17635-0.008733 0.13125 0.012477 0.12944 0.053811 0.27102-0.1583 0.080088-0.23218 0.086664-0.23993 0.065489-0.29527 0.050918-0.1484 0.015621-0.30626 0.014952-0.39703-0.011459-0.34708-0.042949-0.32536-0.087418-0.10632-0.01-0.11336 0.004044-0.23701 0.03814-0.39452 0.11565-0.21237 0.041378-0.70555 0.056266-0.28342 0.032641-0.27734 0.043427-0.80078 0.15176-0.29415 0.048038-0.32451 0.039239-0.25564 0.020869-0.75978 0.035583-0.23852 0.027033-0.043044 0.012694-0.9475 0.30711-0.45636 0.17774-0.23973 0.1084-0.28596 0.14782-0.31067 0.1898-0.27052 0.20068-0.14084 0.12301-0.17479 0.17603-0.16075 0.18966-0.12121 0.16225-0.25637 0.39212-0.2619 0.46433-0.1462 0.29551-0.18703 0.43789-0.12364 0.3401-0.44453 1.4081-0.3569 1.0769-0.31087 0.98853-0.20224 0.58746-0.065093 0.26694-0.097296 0.53419-0.01641 0.15047-0.004527 0.19984 0.024768 0.18775 0.080038 0.21827 0.22457 0.43609 0.084086 0.23778 0.053645 0.25768 0.017589 0.26902-0.026724 0.2719-0.082383 0.26594-0.15276 0.26035-0.21156 0.24801-0.25716 0.23874-0.29132 0.23142-0.31474 0.2248-0.3268 0.21735-0.89053 0.56461-0.17669 0.12609-0.041163 0.060092 0.013032 0.079528 0.12462 0.42625 0.10383 0.3058 0.13638 0.3545 0.13457 0.30925 0.11395 0.23365 0.27661 0.51819 0.13569 0.28412 0.37757 0.86628 0.17728 0.45208 0.066871 0.20456 0.05404 0.20362 0.042079 0.23892 0.011816 0.24481-0.01319 0.17013-0.034397 0.17831-0.040318 0.13361-0.09166 0.21872-0.11434 0.2119-0.12996 0.20626-0.13656 0.19665-0.60708 0.77859-0.14536 0.20704-0.092858 0.14903-0.12763 0.23921-0.067429 0.15273-0.076911 0.23835-0.033546 0.23348 0.005318 0.14458 0.015981 0.097173 0.036097 0.12524 0.04488 0.10481 0.10347 0.17005 0.15784 0.1864 0.327 0.32581 0.19556 0.21631 0.18948 0.25852 0.13471 0.2342 0.10793 0.23641 0.082106 0.20888 0.23854 0.65876 0.079284 0.26194 0.04466 0.18049 0.033299 0.17671 0.032234 0.24238-0.50123 0.15882-0.2654 0.057397-0.20175 0.026623-0.24588-0.014103-0.41683-0.20156-0.31562-0.1304-0.31705-0.10487-0.35502-0.081023-0.3739-0.040402-0.29552 0.001149-0.42346 0.049647-0.25702 0.053989-0.25485 0.068141-0.51395 0.1705-1.1098 0.41814-0.3517 0.11187-0.2176 0.05693-0.2174 0.045854-0.4082 0.05241-0.16174 0.007512-0.21814-0.00324-0.24598-0.023693-0.15883-0.027054-0.27275-0.069048-0.31373-0.12-0.20618-0.10633-0.10731-0.064978-0.22552-0.16044-0.10439-0.086061-0.19459-0.18208-0.2103-0.22826-0.20175-0.24896-0.18465-0.25142-0.4849-0.7061-0.26113-0.34641-0.13782-0.16159-0.14582-0.15438-0.22573-0.20582-0.15475-0.11942-0.19675-0.12936-0.20374-0.10997-0.11787-0.053291-0.26602-0.094189-0.17782-0.043969-0.20031-0.032102-0.17566-0.013656-0.29548 0.006679-0.11514 0.012672-0.25726 0.048684-0.21797 0.06329-0.12712 0.046283-0.12356 0.051605-0.22337 0.10971-0.23179 0.13552-0.35406 0.24604-0.22999 0.18001-0.7116 0.58715-0.42045 0.31315-0.23842 0.15621-0.30287 0.17433-0.35498 0.17131-0.17938 0.074438-0.28416 0.10317-0.40771 0.11738-0.26904 0.055307-0.329 0.036886-0.14824 0.002382-0.14056-0.009056-0.16209-0.030431-0.090891-0.033766-0.038399-0.022976-0.023784-0.022361-0.013084-0.04571-0.30681-0.71104-0.22849-0.4459-0.24809-0.40645-0.14915-0.21024-0.14238-0.17894-0.15007-0.16802-0.17736-0.17416-0.18564-0.15773-0.23017-0.16487-0.2385-0.1391-0.22117-0.10197-0.2253-0.078049-0.29272-0.062143-0.27179-0.018013-0.26947 0.019805-0.25949 0.056347-0.25212 0.089395-0.26084 0.12896-0.24962 0.15737-0.23609 0.17918-0.22582 0.19663-0.16052 0.15288-0.56669 0.56546-0.31922 0.2757-0.17628 0.12758-0.18295 0.11224-0.16113 0.081191-0.16609 0.066403-0.21629 0.060652-0.22207 0.034472-0.29381 0.006246-0.29771-0.031569-0.23454-0.047823-0.23463-0.065326-0.23405-0.080927-0.42905-0.18552-0.4832-0.25686-0.53831-0.33134-0.47636-0.32091-0.76497-0.54314-1.5393-1.1171-0.2004-0.1303-0.35249-0.22076-0.28743-0.14762-0.14818-0.064236-0.30744-0.1082-0.38693-0.092338-0.36568-0.055745-0.37076-0.035899-1.173-0.059981-0.45767-0.045246-0.52844-0.077304-1.1439-0.18867-0.45762-0.085898-0.32709-0.075765-0.72634-0.20818-0.30701-0.10044-0.32749-0.11892-0.63886-0.26327-1.0264-0.45562-0.77729-0.41846-0.19435-0.11441-0.29981-0.19239-0.28317-0.20525-0.12619-0.10175-0.23792-0.2125-0.14784-0.14784-0.2436-0.27653-0.28667-0.3857-0.16997-0.26019-0.56086-0.91356-0.18828-0.29028-0.22064-0.31745-0.11611-0.15382-0.2058-0.24478-0.11021-0.11568-0.22171-0.20157-0.24069-0.18239-0.31344-0.19518-0.86647-0.4642-0.47335-0.26445-1.1134-0.67354-1.3878-0.91938-1.1992-0.84533-0.37246-0.2821-0.42264-0.36004-0.42697-0.4024-0.35231-0.36618-0.68242-0.75534-0.11676-0.12856-0.12754-0.12076-0.30516-0.25453-0.1754-0.12866-0.21772-0.14333-0.2276-0.13237-0.23463-0.11879-0.20672-0.090022-0.20951-0.078439-0.21145-0.066981-0.27655-0.070158-0.27767-0.05313-0.21932-0.031277-0.43784-0.042329-1.377-0.081642-0.37773-0.048427-0.20768-0.042325-0.20214-0.056014-0.16519-0.059501-0.15929-0.071331-0.19178-0.10725-0.18132-0.12367-0.17074-0.13754-0.14206-0.1329-0.13086-0.14309-0.13553-0.18035-0.11552-0.19368-0.086259-0.18701-0.067786-0.1954-0.042908-0.1722-0.029579-0.17618-0.01637-0.17923-0.002858-0.18518 0.010795-0.18668 0.024467-0.1874 0.054851-0.25426 0.075884-0.25428 0.088583-0.24311 0.20455-0.4687 0.24249-0.48233 0.57099-1.0795 0.19237-0.40221 0.084683-0.21522 0.031616-0.12785-0.013824-0.047729-0.047592-0.15626-0.082594-0.22019-0.2691-0.64991-0.60982-1.294-0.14786-0.35503-0.07871-0.23559-0.062605-0.23921-0.023953-0.12102-0.030865-0.24545-0.012078-0.36014 0.018316-0.3373 0.050563-0.35471 0.091113-0.37595 0.13705-0.40353 0.16882-0.40609 0.16958-0.3459 0.1871-0.33536 0.1695-0.108 0.27014-0.14707 1.0937-0.54751 0.43054-0.24377 0.24529-0.1564 0.45933-0.33638 0.45544-0.36388 0.46796-0.40367 0.48376-0.45742 0.12698-0.16215 0.26379-0.40381 0.14834-0.25226 0.16125-0.29812 0.15543-0.31414 0.14602-0.32425 0.1134-0.27687 0.20066-0.56026 0.085255-0.27441 0.15018-0.54758 0.24037-1.0445 0.2221-1.1081 0.10947-0.61843 0.094404-0.59987 0.29641-2.16 0.19444-1.5997 0.14601-1.5107 0.074417-1.1161 0.030499-1.0953-0.004886-0.64471-0.020248-0.65804-0.076305-1.2702-0.14097-1.512-0.079577-0.69781-0.063277-0.69323-0.35664-4.5767-0.069984-1.2366-0.020441-1.0094 0.007896-0.71543 0.026294-0.64759 0.054865-0.90508 0.069574-0.74266 0.10085-0.7667 0.089863-0.54223 0.10045-0.51775 0.14959-0.64473-0.029445 0.002962-0.16697-0.031951-0.26947-0.074342-0.33967-0.1123-0.78593-0.28331-0.19799-0.058711-0.15566-0.034918-0.19806-0.026366-0.22539-0.011881-0.44832-0.007015-0.18104-0.013888-0.1981-0.034701-0.22712-0.073948-0.20043-0.098298-0.10441-0.062124-0.12164-0.080952-0.2187-0.16698-0.20591-0.1926-0.094295-0.10877-0.063694-0.087635-0.060065-0.10368-0.033889-0.076694-0.051319-0.17419-0.01729-0.10167-0.01159-0.16195-9.61e-4 -0.8872 0.014426-0.14483 0.040567-0.17373 0.038974-0.1024 0.052609-0.10408 0.084395-0.12715 0.09238-0.1106 0.17461-0.1725 0.24581-0.22182 0.11983-0.11776 0.10931-0.12589 0.11456-0.17777 0.062398-0.14837 0.043267-0.15986 0.0303-0.21268 0.007781-0.22465-0.020762-0.33396-0.084094-0.54559-0.19562-0.9146-0.04957-0.35524-0.058053-0.32247-0.14249-0.65767-0.1135-0.44344-0.20432-0.68258-0.13662-0.39077-0.10927-0.28013-0.11521-0.2675-0.12014-0.25078-0.18971-0.3405-0.22746-0.32262-0.15224-0.16588-0.16095-0.13351-0.16228-0.092731-0.21359-0.06484-0.22339-0.017637-0.20288 0.016027-0.79706 0.16261-0.2254 0.030319-0.20383 0.013993-0.22035-0.00189-0.22408-0.021384-0.12798-0.025967-0.11894-0.03674-0.14456-0.065359-0.10778-0.066665-0.16-0.13132-0.16023-0.17254-0.20326-0.27338-0.18575-0.29524-0.15802-0.30066-0.086424-0.21589-0.079969-0.27409-0.086693-0.41756-0.040872-0.27059-0.024981-0.26032-0.002593-0.2431 0.022166-0.19808 0.069919-0.2177 0.05915-0.096062 0.18918-0.18773 0.24861-0.16448 0.57483-0.30644 0.27955-0.16479 0.24288-0.18856 0.1803-0.22601 0.098163-0.28342 0.015432-0.32233-0.055268-0.35101-0.1072-0.36737-0.14087-0.3776-0.39314-0.92454-0.37545-0.83331-0.16862-0.3936-0.15434-0.38904-0.28844-0.79566-1.1584-3.4103-0.30469-0.80374-0.28338-0.64516-0.12752-0.33203-0.029882-0.10688-0.038282-0.20378-0.018866-0.27222 0.012921-0.89206-0.029033-0.86186-0.062493-0.91326-0.13321-1.4001-0.10792-0.91856-0.11563-0.86912-0.087588-0.95033-0.11482-0.98203-0.071893-0.48928-0.084231-0.4808-0.10008-0.46568-0.12096-0.44237-0.14876-0.40875-0.18578-0.36204-0.07271-0.10884-0.16575-0.20897-0.38058-0.44369-0.25084-0.32599-0.21398-0.30689-0.13182-0.20684-0.21684-0.37464-0.16233-0.35392-0.08315-0.28637-0.042039-0.29594 0.003144-0.40755 0.033711-0.40844 0.056075-0.42856 0.081668-0.43853 0.11329-0.43782 0.15406-0.42509 0.20729-0.39813 0.27604-0.35417 0.34748-0.28984 0.40973-0.23452 0.45115-0.182 0.43978-0.12489 0.42788-0.085188 0.37942-0.050395 0.27975-0.01999 0.10628 0.006977 0.016675-0.061294 0.063877-0.1542 0.20514-0.43704 0.30188-0.57814 0.17658-0.31379 0.4381-0.7209 0.26173-0.39802 0.28673-0.41138 0.29622-0.40123 0.26931-0.34578 0.2753-0.33604 0.56799-0.64524 0.56752-0.60212 0.33654-0.34379 1.042-1.0354 0.29345-0.30159 0.34973-0.38689 0.3272-0.40135 0.22623-0.30952 0.2102-0.31891 0.26182-0.45387 0.23098-0.46865 0.15376-0.36233 0.13519-0.36873 0.13077-0.42996 0.10435-0.4358 0.076106-0.44013 0.039023-0.36118 0.017715-0.36208-0.004568-0.36184-0.042864-0.4835-0.082516-0.47847-0.12133-0.47049-0.16017-0.45821-0.19495-0.4461-0.22645-0.4324-0.24916-0.40542-0.27477-0.38951-0.29882-0.37196-0.29221-0.32117-0.30932-0.30513-0.32448-0.28899-0.34555-0.27719-0.35926-0.25832-0.37282-0.23733-0.42449-0.23295-0.43964-0.2039-0.38115-0.14878-0.38942-0.12925-0.3896-0.11006-0.39451-0.097278-1.7654-0.37286-0.90051-0.20596-0.8948-0.22897-0.44453-0.12409-0.90631-0.2785-0.86004-0.29898-0.81078-0.321-0.39733-0.17606-0.38994-0.18951-0.28492-0.15182-0.27928-0.16122-0.35942-0.22734-0.34887-0.2428-0.33787-0.25762-0.36797-0.30911-0.35248-0.32664-0.33576-0.34379-0.31882-0.36297-0.30069-0.37867-0.28244-0.39301-0.25662-0.3959-0.23901-0.40744-0.22128-0.418-0.191-0.40127-0.17686-0.40852-0.16453-0.41437-0.15305-0.4193-0.27792-0.86168-0.24343-0.87183-0.10952-0.43826-0.18446-0.84946-0.075976-0.42564-0.06189-0.42602-0.044119-0.42628-0.01953-0.34263-0.003029-0.34249 0.021026-0.42039 0.045995-0.41918 0.068514-0.41734 0.10896-0.49973 0.12889-0.49771 0.28118-0.99554 0.24885-0.93058 0.21796-0.93916 0.086104-0.43723 0.14375-0.87948 0.057553-0.44183 0.049895-0.46932 0.069202-0.94134 0.019847-0.47141 0.006749-0.8711-0.032955-0.79775-0.03263-0.39757-0.048719-0.42449-0.062217-0.42274-0.075129-0.42067-0.088331-0.41813-0.1047-0.425-0.11794-0.42167-0.13028-0.4181-0.14269-0.41398-0.1561-0.40899-0.183-0.43052-0.19874-0.42345-0.21391-0.41586-0.22982-0.40705-0.24784-0.39622-0.29433-0.4189-0.31593-0.40436-0.33523-0.39034-0.35413-0.37532-0.3745-0.35766-0.34885-0.29838-0.36466-0.28365-0.37881-0.27027-0.39225-0.2571-0.40584-0.24297-0.42039-0.22661-0.49086-0.23233-0.50908-0.21066-0.52562-0.19044-0.54073-0.1696-0.55409-0.14621-0.54711-0.11759-0.54938-0.09857-1.8402-0.27766-0.25329-0.043447-0.092634-0.030458-0.77872-0.43759-0.44083-0.26991-0.36604-0.2382-0.37173-0.25501-0.37111-0.26793-0.36604-0.27836-0.3685-0.29588-0.35856-0.30324-0.34793-0.30918-0.39377-0.36925-0.37775-0.37624-0.36058-0.38405-0.26776-0.30508-0.25689-0.31038-0.24629-0.3155-0.25312-0.3451-0.24117-0.35078-0.22906-0.35642-0.21611-0.36241-0.15122-0.27267-0.17522-0.33726-0.30214-0.64232-0.28352-0.68235-0.21354-0.57182-0.23476-0.7064-0.16658-0.56975-0.13496-0.56299-0.053142-0.30595-0.026523-0.24194-0.006379-0.22797 0.038373-0.30907 0.11226-0.25958 0.23432-0.22438 0.32644-0.16284 0.39318-0.11818 0.44078-0.086258 0.47413-0.063835 0.49701-0.048404 1.0344-0.06937 4.7862-0.21987 3.6897-0.19084 13.102-0.73183 8.9196-0.51432 2.9976-0.15373 0.63619-0.022378 1.5692-0.032961 0.93908-0.007112 0.45761 0.010449 0.44465 0.026789 0.42639 0.050318 0.4012 0.083147 0.36701 0.12794 0.32129 0.18803 0.28714 0.28629 0.23298 0.3563 0.19179 0.40788 0.1426 0.39118 0.10048 0.33016 0.091054 0.34107 0.1758 0.76423 0.17057 0.84636 0.39077 2.0907 0.25284 1.2979 0.2345 1.1117 0.16884 0.71044 0.087732 0.3233 0.13849 0.43259 0.16681 0.39812 0.20582 0.34402 0.25993 0.26954 0.19316 0.11961 0.21622 0.086999 0.14142 0.039044 0.25391 0.045067 0.2787 0.023429 0.29139 0.005539 1.1193-0.04227 0.32226-0.005151 0.52462 0.014538 0.45905 0.028789 0.95325 0.084749 0.98448 0.119 0.95763 0.13889 0.43713 0.070365 0.63966 0.11662 0.57166 0.12358 0.41728 0.10741 0.36877 0.12009 0.25852 0.1146 0.13631 0.09234 0.032337 0.086219 0.026302-0.034616 0.074913-0.041557 0.10933-0.040101 0.1338-0.030414 0.19002-0.016135 0.20628 0.006607 0.21508 0.024466 0.21902 0.03753 0.43903 0.099301 1.2727 0.34768 0.41184 0.099814 0.20504 0.040681 0.20493 0.031521 0.3458 0.026744 0.39677 1.96e-4 0.5807-0.013021 0.36525 0.012778 0.17081 0.021956 0.15936 0.037716 0.34732 0.14027 0.11822 0.037031 0.15108 0.022405 0.16168 0.001739 0.1703-0.014131 0.36086-0.061251 1.1005-0.26051 1.354-0.26362 0.35011-0.082184 0.54355-0.21425 0.36877-0.15835 0.3756-0.17752 0.54589-0.29038 2.4181-1.4005 3.3841-1.932 0.7974-0.47354 0.79668-0.49751 0.075864-0.066896 0.24306-0.02993 0.34773 0.002935 1.2669 0.085336 0.24987 0.00882 0.30641-0.001776 0.31172-0.025779 0.25634-0.055411 0.15138-0.060958 0.12146-0.079231 0.079816-0.081235 0.093835-0.15959 0.04602-0.14762 0.026058-0.22042-0.017594-0.30462-0.052143-0.28056-0.094989-0.34406-0.11574-0.33977-0.32991-0.86809-0.1189-0.3695-0.057088-0.27149-0.014716-0.26726 0.040587-0.27986 0.086689-0.27794 0.15044-0.34836 0.33132-0.70005 0.12569-0.35647 0.059904-0.3645-0.02809-0.36914-0.10145-0.37744-0.15652-0.38349-0.19744-0.38777-0.19353-0.3345-0.21089-0.33559-0.22471-0.33575-0.28713-0.40642-0.29865-0.4055-0.61788-0.80876-3.4798-4.4241-2.1789-2.8085-3.6401-4.804-0.92247-1.245-0.59772-0.8412-0.2883-0.4271-0.27725-0.43372-0.26194-0.44276-0.23939-0.44647-0.22434-0.45538-0.21324-0.46206-0.40374-0.93771-0.38242-0.94844-0.36045-0.95282-0.16772-0.4762-0.15461-0.4748-0.13574-0.47206-0.1087-0.46746-0.070349-0.46026-0.016623-0.44945 0.057551-0.43366 0.14316-0.40166 0.21538-0.38517 0.26896-0.37181 0.30674-0.36009 0.33052-0.34843 0.94523-0.91785 0.28458-0.27184 0.28208-0.23524 0.2819-0.17641 0.29006-0.10562 0.23553-0.02577 0.11643 0.048721-0.20419-1.1136-0.15248-1.0379-0.009181-0.22055 0.037145-0.18538 0.084513-0.16024 0.15385-0.14708 0.3918-0.25373 0.18724-0.16322 0.15161-0.21518 0.11297-0.25709 0.071789-0.28179 0.025913-0.29123-0.027093-0.28677-0.077194-0.26111-0.20969-0.53742-0.066709-0.23016-0.055623-0.24429-0.043619-0.23957-0.036774-0.29246-0.022494-0.30675-0.011916-0.58555 0.007294-0.61864-0.016329-0.36908-0.020488-0.15955-0.06458-0.30094-0.090561-0.27629-0.11335-0.25888-0.18979-0.33593-0.22378-0.3138-0.25208-0.28636-0.27664-0.2518-0.23999-0.17142-0.25666-0.13536-0.40154-0.12566-0.42772-0.07264-0.58352-0.076534-0.33489-0.053589-0.39749-0.086398-0.37556-0.10845-0.34691-0.1299-0.30331-0.15157-0.24139-0.17471-0.15677-0.20064-0.046882-0.1533 0.001112-0.16055 0.017234-0.081139 0.065254-0.16929 0.052764-0.098993 0.062953-0.1005 0.20492-0.25135 0.26248-0.21565 0.29303-0.15433 0.73203-0.31359 0.86767-0.40982 0.91499-0.46165 1.4026-0.73738 3.7347-2.0011 5.1257-2.7882 2.0823-1.1065 4.0511-2.0814 0.7659-0.38309 0.85721-0.40248 0.67386-0.27784 0.34286-0.12089 0.45426-0.13473 0.46149-0.11314 0.59484-0.12102 0.42349-0.074887 2.0183-0.31455 0.7596-0.1312 0.41444-0.082669 0.57851-0.13495 0.68016-0.19303 0.30175-0.099518 0.35142-0.12898 0.43107-0.18292 0.2573-0.12622 0.31316-0.17649 0.25726-0.16941 0.18552-0.1388 0.29584-0.25322 0.3505-0.34494 0.98754-1.039 0.41833-0.39824 0.40525-0.34091 0.21408-0.16014 0.21954-0.15033 0.2241-0.13936 0.22953-0.12746 0.22392-0.10878 0.22929-0.09513 0.31292-0.10335 0.33904-0.080517 0.30233-0.047725 0.48417-0.038197 0.49221-0.002748 0.49266 0.019696 1.1357 0.070873 0.40164 0.015451 0.50062 5.77e-4 0.50181-0.017714 0.50251-0.032079 0.50284-0.043426 1.0056-0.11271 1.0108-0.14073 1.0157-0.16063 4.0691-0.69449 5.1922-0.8694 1.0371-0.16176 1.0259-0.13139 0.50408-0.043377 0.49416-0.019146 0.47981 0.015284 0.45947 0.063343 0.43118 0.12938 0.39426 0.20858 0.36535 0.27333 0.34329 0.31956 0.32583 0.35143 0.35434 0.42671 0.27646 0.36775" stroke="#bdc660"/>
    </defs>
    <g clip-path="url(#pffcadbca29)">
     <use y="280.512" fill="#bdc660" stroke="#bdc660" xlink:href="#mcbfdb0b011"/>
    </g>
   </g>
  </g>
 </g>
 <defs>
  <clipPath id="pffcadbca29">
   <rect x="7.2" y="7.2" width="227.19" height="266.11"/>
  </clipPath>
 </defs>
</svg>
