<?xml version="1.0" encoding="UTF-8"?>
<!DOCTYPE svg  PUBLIC '-//W3C//DTD SVG 1.1//EN'  'http://www.w3.org/Graphics/SVG/1.1/DTD/svg11.dtd'>
<svg width="371.52pt" height="181.28pt" version="1.1" viewBox="0 0 371.52 181.28" xmlns="http://www.w3.org/2000/svg" xmlns:xlink="http://www.w3.org/1999/xlink">
 <metadata>
  <rdf:RDF xmlns:cc="http://creativecommons.org/ns#" xmlns:dc="http://purl.org/dc/elements/1.1/" xmlns:rdf="http://www.w3.org/1999/02/22-rdf-syntax-ns#">
   <cc:Work>
    <dc:type rdf:resource="http://purl.org/dc/dcmitype/StillImage"/>
    <dc:date>2024-07-04T12:10:24.403033</dc:date>
    <dc:format>image/svg+xml</dc:format>
    <dc:creator>
     <cc:Agent>
      <dc:title>Matplotlib v3.7.1, https://matplotlib.org/</dc:title>
     </cc:Agent>
    </dc:creator>
   </cc:Work>
  </rdf:RDF>
 </metadata>
 <defs>
  <style type="text/css">*{stroke-linejoin: round; stroke-linecap: butt}</style>
 </defs>
 <g id="figure_1">
  <g id="patch_1">
   <path d="m0 181.28h371.52v-181.28h-371.52v181.28z" fill="none"/>
  </g>
  <g id="axes_1">
   <g id="PatchCollection_1">
    <defs>
     <path id="m9357b02bd2" d="m275.22-164.32 0.30029 0.019952 0.34046-0.007989 0.57372-0.045947 1.3012-0.14276 0.51111-0.027268 0.48072 0.005054 0.40741 0.029211 0.349 0.040949 0.78109 0.13725 1.1771 0.26141 0.30231 0.056042 0.37664 0.052632 0.42794 0.026872 0.51433-0.018888 0.47138-0.060118 0.36023-0.070482 0.60777-0.15808 0.65437-0.20574 0.35782-0.12845 0.28182-0.12491-0.002542 0.11584 0.032509 0.096502 0.083326 0.13869 0.12389 0.12988 0.1634 0.10172 0.22174 0.081137 0.31154 0.073843 0.21477 0.029329 0.58279 0.049636 0.52532 0.10434 0.18756 0.057279 0.20477 0.086912 0.18572 0.10547 0.1888 0.1421 0.15388 0.14893 0.22522 0.26926 0.20988 0.2975 0.64243 1.0382 0.58158 0.88283 0.45817 0.74442 0.2135 0.36729 0.29841 0.55504 0.17305 0.35986 0.34247 0.8139 0.13519 0.36011 0.33035 0.9598 0.69589 2.2247 0.32554 0.92652 0.27321 0.68939 0.21904 0.51325 0.77902 1.6828 0.22861 0.53238 0.14209 0.37208 0.17444 0.55501 0.504 1.8102 0.16344 0.51189 0.21178 0.58849 0.31154 0.73514 0.24419 0.50415 0.1766 0.33571 0.2981 0.51856 0.30512 0.47748 0.1911 0.27268 0.18368 0.23529 0.24945 0.26125 0.093885 0.07774 0.1784 0.11833 0.16592 0.074603 0.13213 0.022132 0.069638-0.031468-0.17909 2.2938-0.081941 0.68361-0.12788 0.78448-0.16562 0.85604-0.68196 3.336-0.34411 1.5733-0.9851 4.3588-0.16615 0.81146-0.14206 0.82117-0.073996 0.61785-0.017609 0.39438 0.013118 0.5376 0.10757 1.4744 0.016252 0.8822-0.005513 0.18217-0.012812 0.074029 0.037738-0.057121 0.078144-0.039895 0.083391-0.007725 0.18072 0.035711 0.18874 0.083153 0.15397 0.094888 0.22238 0.17404 0.28558 0.27698 0.36362 0.41435 0.40404 0.50705 0.5092 0.68095 0.28277 0.3386 0.24785 0.24752 0.34542 0.28225 1.4401 0.97289 1.3892 0.88616 0.57522 0.40682 0.38635 0.32169 0.38808 0.36683 0.47261 0.47954 0.20916 0.1954 0.18521 0.14667 0.15593 0.10116 0.20805 0.10795 0.66002 0.25174 0.30139 0.13354 0.2096 0.12555 0.53918 0.40064 0.23699 0.14823 0.16326 0.077294 0.14457 0.050397 0.28453 0.059779 0.17312 0.018342 0.46213 0.008976 1.2316-0.059083 1.068-0.011184 0.58631 0.038586 0.25307 0.035922 0.29016 0.059678 0.20537 0.054777 0.31288 0.10456 0.46063 0.20224 0.53291 0.28099 0.87276 0.52444 0.44395 0.24473 0.50672 0.25314 0.62483 0.27814 0.4484 0.16696 0.35969 0.10194 0.45605 0.080508 0.30819 0.023283 0.19159-0.00247 0.22763-0.02523 0.22478-0.048668 0.24263-0.075097 0.30905-0.13088 0.19045-0.1029 0.17791-0.11435 0.16409-0.12419 0.13054-0.11443 0.17013-0.17524 0.1031-0.12418 0.16948-0.2427 0.10553-0.18236 0.099311-0.20255 0.1523-0.40693 0.096963-0.37678 0.077509-0.49855 0.11498-1.2438 0.099327-0.93311 0.016017-0.4609-0.012343-0.19798-0.050917-0.3187-0.086258-0.34318-0.19656-0.65621-0.10793-0.45157-0.048696-0.43469-0.001151-0.34182 0.023525-0.28834 0.049997-0.31024 0.036084-0.15723 0.069762-0.22456 0.12733-0.2505 0.082503-0.098228 0.10766-0.082728 0.1762-0.073138 0.27185-0.038874 0.261-0.008237 0.94232 0.005178 0.26041-0.005479 0.39614-0.028628 2.7018-0.38888 2.1769-0.28747 0.51623-0.05356 0.61949-0.015719 0.38474 0.016484 0.44721 0.047244 0.42518 0.084113 0.39546 0.11439 0.61718 0.22262 0.57269 0.25456 0.30232 0.15717 0.16508 0.098729 0.083303 0.067464 0.02047 0.047854-0.013717 0.024678 0.008708 0.057248 0.04669 0.15346 0.17729 0.4206 0.24951 0.4631 0.33574 0.55356 0.32172 0.46867 0.36788 0.48106 0.35453 0.41907 0.43196 0.45494 0.38802 0.34994 0.42901 0.3273 0.29398 0.19353 0.67908 0.41323 0.30494 0.21156 0.279 0.21982 0.35432 0.33215 0.69271 0.72416 0.74812 0.67714 0.60176 0.58751 0.28706 0.29668 0.56242 0.62945 0.26337 0.26481 0.20485 0.17546 0.32272 0.23942 1.0741 0.70883 0.28097 0.20234 0.36423 0.31436 0.30393 0.31924 0.15647 0.19263 0.1694 0.24242 0.16101 0.26993 0.1632 0.3217 0.18837 0.44729 0.36761 1.0274 0.21377 0.48448 0.14305 0.25722 0.12889 0.19798 0.17416 0.22821 0.19443 0.21497 0.21972 0.20997 0.32762 0.26758 0.25731 0.18106 0.35172 0.22101 0.46132 0.26138 0.64084 0.33218 0.32149 0.13947 0.22983 0.067583-0.063493 0.26323-0.07345 0.44279-0.023858 0.31451 0.012857 0.15312 0.023933 0.097924 0.095881 0.19301 0.13884 0.17719 0.31283 0.35333 0.12985 0.2005 0.082214 0.20789 0.051588 0.22788 0.027434 0.24145 0.007996 0.24977-0.008356 0.25372-0.023089 0.25386-0.037557 0.25049-0.053048 0.24361-0.07083 0.23298-0.080925 0.20451-0.18912 0.43166-0.2132 0.4139-0.12017 0.18924-0.1329 0.17032-0.44725 0.44858-0.14179 0.20165-0.12238 0.22972-0.10792 0.25104-0.1871 0.54686-0.2443 0.8896-0.97537 3.9958 0.008162 0.17795-0.10604 0.26138-0.20184 0.29401-0.29082 0.28125-0.35668 0.22944-0.41694 0.1979-0.94286 0.38578-0.61636 0.28994-0.62415 0.33361-0.62532 0.36439-0.62283 0.38384-1.8407 1.1825-1.2032 0.74488-0.59541 0.3376-0.59175 0.30147-0.58826 0.2524-0.43685 0.14716-0.42082 0.10153-0.41785 0.05135-0.48011-0.009434-0.47858-0.058777-0.96038-0.14372-0.48553-0.025512-0.53468 0.046561-0.37613 0.078558-0.23216 0.066824-0.28369 0.10092-0.36069 0.15901-0.30335 0.16094-0.24852 0.15204-0.25356 0.17619-0.32486 0.25855-0.46291 0.42942-0.46182 0.48038-0.2822 0.31344-0.6839 0.83511-0.56012 0.74209-0.5908 0.81902-0.76435 1.0811-0.60927 0.89776-0.30939 0.49354-0.22931 0.44458-0.088138 0.24561-0.048791 0.25573-3.66e-4 0.16608 0.041317 0.20304 0.084097 0.19428 0.12197 0.1862 0.30115 0.33853 0.39832 0.38132 0.66099 0.60002 0.12929 0.12576 0.31909 0.34932 0.29571 0.40194 0.24997 0.40925 0.15269 0.2846 0.27308 0.57398 0.16413 0.31623 0.16944 0.29064 0.19578 0.30067 0.29634 0.38356 0.23337 0.24573 0.31835 0.281 0.2576 0.19601 0.41433 0.26833 0.24993 0.13658 0.21568 0.1014 0.31918 0.11688 0.19489 0.053885 0.38375 0.072073 0.47956 0.044655 0.82542 0.033782 0.54102 0.004048 1.1889-0.01661 0.5839 0.011485 0.21471 0.014066 0.48289 0.063009 0.36664 0.0891 0.20338 0.070757 0.18978 0.084395 0.20254 0.11535 0.15981 0.11338 0.13307 0.11116 0.17804 0.17459 0.19336 0.22715 0.17677 0.24738 0.28064 0.49232 0.14079 0.31003 0.12297 0.32224 0.14747 0.49504 0.091099 0.44855 0.050821 0.422 0.016874 0.3553-0.001587 0.21534-0.01532 0.2839-0.0747 0.658-0.11567 0.66934-0.14476 0.67646-0.16499 0.68007-0.3658 1.3584-0.77847 2.6837-0.14209 0.58134-0.079717 0.49931-0.1453 1.4627-0.097042 0.63636-0.12038 0.52797-0.10181 0.33953-0.3457 0.91119-0.17133 0.49216-0.13709 0.47639-0.090933 0.43-0.030275 0.3423 0.020091 0.15447 0.05492 0.070062-1.9015 0.73149-0.91544 0.36487-0.92724 0.38458-0.8978 0.38885-0.86274 0.39877-0.41636 0.20766-0.40456 0.21706-0.39058 0.23052-0.37349 0.24922-0.3348 0.25715-0.32555 0.28241-0.61526 0.60508-0.87483 0.96052-1.4263 1.6398-0.94938 1.066-1.0989 1.1846-1.0712 1.1224-0.63809 0.63073-0.49209 0.44742-0.35351 0.28659-0.25588 0.179-0.30861 0.17474-0.23416 0.098753-0.10909 0.034948-0.41991 0.072814-0.43284-3.99e-4 -0.42243-0.052723-0.3791-0.082889-0.28747-0.085623-0.12467-0.051519-0.13946-0.028312-1.5328-0.46297-0.67534-0.18667-1.6034-0.39965-0.88205-0.19528-0.52289-0.10049-0.834-0.12234-0.32174-0.028196-0.35565-0.012361-0.40634 0.019554-0.28206 0.040512-0.3593 0.082914-0.29968 0.093377-0.23151 0.08662-0.3263 0.14428-0.22421 0.11502-0.28581 0.16738-0.21026 0.14045-0.24066 0.18317-0.26106 0.23459-0.14851 0.15648-0.18992 0.23568-0.18484 0.28508-0.14744 0.27477-0.16444 0.35677-0.32267 0.77801-0.1923 0.42536-0.29898 0.5327-0.32972 0.43765-0.38376 0.4083-0.4089 0.37018-0.43916 0.3524-0.41574 0.30496-0.79948 0.53484-0.87453 0.53426-2.4194 1.4186-0.86548 0.54079-0.50744 0.33948-0.75616 0.5566-0.34112 0.27966-0.2803 0.25023-0.26455 0.26042-0.24059 0.26699-0.21851 0.28189-0.25024 0.39645-0.1639 0.31115-0.14861 0.32264-0.21023 0.53134-0.22284 0.66143-0.5377 1.7992-0.1836 0.57039-0.36621 1.0238-0.31579 0.75022-0.25108 0.52438-0.16266 0.30736-0.21021 0.36008-0.35412 0.52232-0.1935 0.24469-0.17718 0.20132-0.17206 0.17629-0.22724 0.20626-0.24815 0.19516-0.31969 0.21236-0.22485 0.12773-0.40172 0.19473-0.64409 0.24654-0.39886 0.12138-0.62475 0.14681-0.27918 0.04397-0.25835 0.01997-0.17586-0.0142-0.061381-0.057847 0.27558-0.31895 0.41785-0.53632 0.32729-0.4575 0.43638-0.66923 2.6397-4.2728 0.75301-1.2462 0.40788-0.70313 0.48277-0.89248 0.25275-0.52171 0.15632-0.36276 0.1287-0.3514 0.082739-0.29204 0.050592-0.28018 0.012689-0.19124-0.004092-0.1239-0.026941-0.17599-0.046899-0.14855-0.11774-0.21454-0.26002-0.28379-0.38006-0.27518-0.23912-0.1356-0.25704-0.12653-0.3287-0.14109-0.34632-0.12954-0.71338-0.21915-0.54315-0.1344-0.40174-0.085058-1.1295-0.20449-1.9203-0.28605-0.31276-0.055668-0.51268-0.11411-0.3299-0.10103-0.19641-0.077774-0.2143-0.1083-0.2255-0.15562-0.16621-0.15964-0.13555-0.16634-0.13897-0.20428-0.92533-1.5746-0.25155-0.4854-0.49289-1.0393-0.70768-1.4378-0.14801-0.3248-0.05542-0.15365-0.20368 0.051588-0.52473 0.18461-0.87548 0.35598-0.48879 0.22519-1.0427 0.51481-0.82492 0.38546-1.1969 0.52702-0.91617 0.37664-0.94205 0.35414-0.6364 0.20878-0.40916 0.11684-0.96008 0.23067-1.6969 0.3598-0.51574 0.094917-0.56167 0.068328-0.40262 0.018913-0.60431-0.018522-0.3775-0.033727-1.9747-0.27038-0.67423-0.070941-0.44204-0.027595-0.44412-0.012035-0.42536 0.002677-0.42669 0.017271-0.70534 0.063786-0.41351 0.059962-0.31879 0.059704-0.62765 0.14658-2.642 0.75701-1.0799 0.29048-1.656 0.42242-0.39281 0.11792-0.066332 0.031999-0.055282 0.0284-0.095288 0.1124-0.26429 0.39577-0.21074 0.35416-0.61316 1.1093-0.52218 0.83029-0.70398 1.1938-0.18579 0.24117-0.23549 0.22034-0.27234 0.17626-0.15414 0.072966-0.31996 0.1099-0.26121 0.06198-0.21605 0.037333-0.53504 0.049996-0.61112 0.009994-0.52199-0.015306-0.42704-0.031129-0.53472-0.059995-1.2235-0.18159-0.36719-0.033107-0.92232-0.050691-0.56318-0.013215-0.38566 0.008948-0.76009 0.025646-0.5336 0.041599-0.40423 0.0665-0.16277 0.044096-0.16262 0.0576-0.60071 0.25037-0.62818 0.19414-0.3835 0.15968-0.31356 0.23387-0.23278 0.31561-0.18352 0.39756-0.14542 0.46074-0.044133 0.17556-0.13615 0.68168-0.068392 0.43442-0.30065 2.414-0.1578 1.0152-0.12953 0.61947-0.16747 0.59929-0.21945 0.56898-0.23256 0.45117-0.26218 0.43161-0.55574 0.87191-0.24915 0.45576-0.19087 0.46594-0.088669 0.33486-0.051862 0.33219-0.017275 0.25324 0.010844 0.36658 0.025575 0.19853 0.057206 0.2439 0.039784 0.10643 0.055056 0.10302 0.073569 0.083682 0.086424 0.030834-0.038957 0.045848-0.059171 0.12104-0.13781 0.33456-0.13307 0.37874-0.067323 0.13365-0.088013 0.10018-0.083922 0.047623-0.093883 0.024338-0.099027 0.005725-0.12248-0.016265-0.085912-0.030753-0.19474-0.11092-0.33325-0.22288-0.23897-0.12108-0.13378-0.046567-0.18095-0.042479-0.3-0.034299-0.2948 0.006712-0.17624 0.022751-0.56099 0.10257-0.61826 0.16464-0.23562 0.032072-0.30837 0.008092-0.60911-0.036086-0.31197-0.001977-0.38669 0.036786-0.20837 0.047672-0.2145 0.096778-0.14538 0.10442-0.13667 0.12791-0.13055 0.14592-0.11166 0.1403-0.19927 0.28454-0.42096 0.71674-0.037648 0.084361-0.076392 0.070883-0.15704 0.080144-0.21286 0.052325-0.16048 0.012017-0.20534-0.012512-0.18183-0.035138-0.19749-0.061891-0.31387-0.14292-0.33174-0.20617-0.13865-0.11195-0.10918-0.11016-0.1109-0.15262-0.054375-0.10627-0.052416-0.1472-0.1093-0.56179-0.076644-0.29571-0.3291-1.1991-0.060637-0.19622-0.074254-0.19054-0.14109-0.25526-0.20833-0.27497-0.30214-0.34205-0.16253-0.13756-0.079373-0.04227-0.12159-0.027478-0.073466 0.007463-0.058976 0.020447-0.088082 0.057744-0.24253 0.23706-0.096765 0.060476-0.08643 0.034887-0.163 0.031368-0.26663-0.004691-0.18482-0.028285-0.11007-0.030224-0.1372-0.05685-0.30125-0.17962-0.4261-0.28915-0.25024-0.12352-0.14909-0.049407-0.11058-0.019574-0.10063-0.004295-0.1747 0.03011-0.1045 0.053555-0.1309 0.12574-0.080188 0.11449-0.083161 0.16587-0.03526 0.13548-0.007638 0.07573 0.033285 0.39523-0.009296 0.16031-0.036934 0.11668-0.10169 0.16186-0.076047 0.083905-0.093236 0.079504-0.092384 0.058618-0.11604 0.050959-0.13465 0.033237-0.092657 0.008851-0.18044-0.011068-0.13653-0.029472-0.21079-0.075193-0.27267-0.14026-0.82596-0.49412-0.24312-0.15939-0.20044-0.15917-0.15323-0.14834-0.12182-0.14004-0.11418-0.15688-0.13176-0.22024-0.087546-0.183-0.065235-0.19622-0.026133-0.13713-0.012441-0.1756 0.014608-0.23095 0.13429-0.66656 0.019811-0.18076-0.02368-0.25408-0.036164-0.1163-0.058707-0.12648-0.10873-0.16143-0.18378-0.18341-0.19863-0.13771-0.2627-0.13374-0.22987-0.091097-0.34482-0.11295-0.86551-0.24762-2.3488-0.70807-0.69864-0.18929-0.64431-0.15134-0.76081-0.13212-0.21062-0.023604-0.38776-0.022979-0.23808 0.001671-0.35844 0.031548-0.1763 0.037618-0.059053 0.027455-0.043836 0.048939-0.21599 0.008349-0.22761 0.032141-0.21204 0.060499-0.25741 0.11728-0.25932 0.15992-0.21963 0.16412-0.282 0.27054-0.2241 0.26604-0.28429 0.40286-0.43505 0.67377-0.32002 0.42235-0.10919 0.12003-0.21867 0.20568-0.26025 0.18696-0.24279 0.11853-0.21072 0.055388-0.20407 0.006605-0.18127-0.033708-0.47972-0.16376-0.27165-0.056461-0.15867-0.002018-0.20929 0.038345-0.23066 0.084578-0.28331 0.14655-0.39893 0.2613-0.45973 0.36482-0.67326 0.58645-0.54009 0.37543-0.14456 0.14326-0.11902 0.18903-0.073437 0.17195-0.057641 0.18678-0.03952 0.18108-0.074558 0.63574-0.042081 0.22937-0.089654 0.27788-0.12731 0.27896-0.15467 0.27568-0.1712 0.26574-0.33791 0.45524-0.12854 0.15022-0.064581 0.055003-7.3284-5.3037-2.4068-1.7596-4.0646-2.9959-1.1158-0.80036-0.55478-0.38192-0.55117-0.36129-0.44817-0.27468-0.44245-0.24856-0.43422-0.21461-0.35193-0.1446-0.34424-0.1045-0.28423-0.048711-0.2776-0.004781-0.27454 0.046132-0.2644 0.093912-0.30083 0.16746-0.11975 0.085208-0.25448 0.22001-0.23409 0.25555-0.25965 0.35975-0.26142 0.4792-0.083922 0.19194-0.12597 0.36364-0.11378 0.58341-0.029075 0.32912-0.007754 0.56895 0.015863 0.33846 0.062378 0.67112 0.24357 2.0101 0.038367 0.4813 0.019713 0.66965-0.022191 0.50402-0.052075 0.40263-0.050452 0.22766-0.060209 0.19482-0.13945 0.31661-0.16698 0.28313-0.21712 0.30282-0.16788 0.20412-0.31517 0.33193-0.37444 0.33926-0.31372 0.26327-1.2566 0.98553-0.25631 0.18489-0.24757 0.15949-0.15634 0.08793-0.215 0.099389-0.22871 0.075074-0.17872 0.038263-0.36175 0.032584-0.3626-0.007428-0.32823-0.024974-0.49277-0.059704-0.49211-0.108-0.35909-0.12515-0.4492-0.19237-1.1187-0.53386-0.63233-0.27943-0.36919-0.13084-0.36698-0.087902-0.65989-0.1122-0.28836-0.063141-0.20312-0.062685-0.20807-0.089567-0.16912-0.098403-0.16159-0.11591-0.28892-0.25558-0.40807-0.44461-0.38586-0.48788-0.3453-0.4955-0.27901-0.45428-0.14029-0.24997-0.73495-1.4504-0.22865-0.42216-0.27737-0.45412-0.35303-0.49902-0.59583-0.72756-0.88164-1.0114-0.39519-0.43622-0.14975-0.15304-0.28074-0.25421-0.27552-0.19234-0.19609-0.094017-0.45571-0.093156-0.50682 0.020638-0.54578 0.10248-0.57342 0.15853-0.59617 0.19539-0.61413 0.21672-2.0207 0.72943-2.6034 0.9676-1.0039 0.38897-0.80455 0.34432-0.56671 0.27118-0.59446 0.30768-1.5725 0.8508-0.47741 0.23001-0.63603 0.27619-0.30906 0.1517-0.58755 0.33848-0.8611 0.58585-0.36617 0.2318-0.16852 0.085212-0.15314 0.059726-0.17864 0.044165-0.24434 0.011557-0.33723-0.069849-0.31953-0.15821-0.29301-0.23576-0.26869-0.28539-0.47456-0.55416-0.30091-0.272-0.27354-0.17156-0.3048-0.1364-0.50343-0.14551-0.53406-0.076919-0.47385-0.011792-0.46775 0.041337-1.168 0.24503-0.46826 0.052886-1.3713 0.055395-0.38263 0.029395-0.38307 0.051019-0.30984 0.062155-0.54692 0.16079-0.53681 0.20707-1.2328 0.54729-0.4066 0.16403-0.30287 0.10279-0.29492 0.075877-0.27636 0.040587-0.26534 1.72e-4 -0.24832-0.045871-0.35475-0.15708-0.33094-0.27142-0.1218-0.14492-0.078942-0.11434-0.079433-0.13895-0.08972-0.20142-0.092395-0.30398-0.053482-0.32759-0.012932-0.20896 0.009369-0.82684-0.01076-0.29026-0.048603-0.42496-0.080817-0.43198-0.06108-0.26314-0.12315-0.42838-0.15702-0.40794-0.23728-0.46154-0.35669-0.63229-0.16288-0.33894-0.14749-0.40387-0.036718-0.15817 0.004463-0.044541 0.058002-0.74195 0.010148-0.67139-0.035792-0.54028-0.041453-0.27932-0.041886-0.19534-0.052721-0.18737-0.084867-0.22354-0.15394-0.27772-0.1733-0.21173-0.19579-0.17437-0.14754-0.10592-0.17516-0.10649-0.24413-0.12284-1.2427-0.51622-0.7016-0.25159-0.68016-0.19928-0.61668-0.1414-0.48783-0.085087-2.7841-0.39459-0.39048-0.071353-0.35258-0.10116-0.28423-0.13872-0.054401-0.03714-0.15141-0.12909-0.098864-0.10817-0.13058-0.17996-0.086209-0.15814-0.073313-0.18333-0.058415-0.20676-0.03128-0.17001-0.015592-0.1661-1.18e-4 -0.2151 0.020061-0.20944 0.46704-2.522 0.11798-0.5172 0.13809-0.48358 0.33424-1.0584 0.20552-0.55017 0.24378-0.50407 0.28277-0.45963 0.74715-1.0114 0.79764-1.1237 0.85949-1.1411 0.42026-0.62837 0.26417-0.47155 0.23001-0.51122 0.055514-0.17323 0.01641-0.088075-0.030511-0.11784-0.026927-0.0056-0.54256-0.15455-0.44103-0.10355-0.35359-0.066959-0.42658-0.045239-0.19325-0.001446-0.29741 0.034572-0.15902 0.043304-0.12786 0.050882-0.14185 0.077596-0.098083 0.070437-0.098968 0.089311-0.15021 0.19029-0.097315 0.19028-0.16845 0.46176-0.065876 0.14577-0.0814 0.13899-0.11132 0.14438-0.15682 0.15958-0.43758 0.36998-0.4673 0.34923-0.32115 0.21469-1.056 0.66258-0.43509 0.29618-0.34854 0.25614-0.34021 0.27-0.49603 0.44105-0.42479 0.44435-0.42844 0.53304-0.3072 0.43655-0.16457 0.2616-0.19585 0.34042-0.32005 0.61951-0.59113 1.2709-0.28276 0.49462-0.25195 0.31399-0.26611 0.25249-0.1986 0.15276-0.31591 0.19235-0.30524 0.13232-0.31871 0.092908-0.31988 0.05554-0.31189 0.033308-0.28678 0.014334-0.47656-0.011873-0.38061-0.035584-0.4506-0.065667-0.61258-0.12258-1.0763-0.25512-0.48445-0.075036-0.30548-0.01766-0.32994 0.001748-0.79188 0.03693-0.35163-0.005756-0.27293-0.044311-0.15433-0.057606-0.12629-0.081194-0.10842-0.11712-0.026317-0.040146-0.091956-0.22022-0.041582-0.32536 0.025028-0.29677 0.026333-0.13027 0.078914-0.25999 0.16241-0.36859 0.25013-0.45492 0.3119-0.4918 0.59034-0.89055 0.24965-0.42354 0.15942-0.32046 0.12402-0.32028 0.065316-0.24543 0.028825-0.17255 0.013714-0.21532-0.021801-0.26556-0.058201-0.24248-0.13296-0.32351-0.14762-0.23999-0.15887-0.18758-0.12298-0.11175-0.30897-0.20486-0.25109-0.10706-0.41303-0.11542-0.45407-0.077557-0.48225-0.047634-0.48663-0.01757-0.40413 0.017888-0.39669 0.038532-1.3557 0.17745-0.7395 0.080478-1.0288 0.07982-0.96805 0.038196-0.50222 0.004838-0.69621-0.010688-1.4545-0.068525-1.1138-0.088331-0.67661-0.078781-0.10168-0.021391-0.012642-0.011339-0.13578-0.024568-0.12674-0.059444-0.3077-0.1769-0.35105-0.23577-0.57514-0.44572-0.49144-0.43539-0.25134-0.24437-0.31638-0.33286-0.29197-0.33713-0.27567-0.3497-0.3669-0.51378-1.1459-1.7212-0.32969-0.46502-0.3139-0.41252-0.43991-0.51978-0.24571-0.26069-0.26728-0.261-0.27173-0.24193-0.31572-0.25223-0.39437-0.27139-0.27256-0.16059-0.30984-0.16304-0.5326-0.25044-3.5405-1.5718-0.69165-0.27022-0.57832-0.19601-0.33327-0.099337-0.39154-0.10498-0.6777-0.15353-0.9899-0.1673-0.67378-0.085475-0.80217-0.082335-2.0405-0.16155-0.21592-0.025728-0.35122-0.066465-0.24257-0.074765-0.11249-0.045897-0.15491-0.078173-0.14236-0.088927-0.21685-0.16563-0.51804-0.45888-0.24481-0.1709-0.31212-0.15462-0.21449-0.073642-0.14484-0.035648-0.23147-0.033709-0.35203-0.01196-0.24058 0.007643-0.42839 0.036131-1.1059 0.16516-0.30018-0.056661-0.34248-0.031048-0.51379-0.006935-0.36943 0.019612-0.31502 0.037704-0.27083 0.065075-0.25556 0.099521-0.23315 0.13523-0.24125 0.20463-0.19646 0.22295-0.15587 0.23255-0.14355 0.2608-0.48308 0.93045-0.26095 0.42648-0.141 0.2067-0.23909 0.31357-0.15244 0.1758-0.1424 0.14708-0.31305 0.26216-0.2702 0.1796-0.82717 0.49562-0.19547 0.10251-0.22977 0.10087-0.38122 0.11816-2.0337 0.54023-0.22119 0.040572-0.64342 0.083503-0.59666 0.12507-0.84635 0.21295-0.31403 0.05719-0.49237 0.0457-0.20502 0.003982-0.31964-0.015344-0.4378-0.068937-0.44648-0.1161-0.45302-0.1523-0.45659-0.17933-0.45569-0.19815-1.5097-0.72857-0.20665-0.088543-0.22838-0.064588-0.096735 0.026639-0.016417-0.17831-0.12799-0.42885-0.21663-0.55022-0.29512-0.58316-0.37117-0.55286-0.36142-0.40016-0.30737-0.27095-0.38262-0.27688-0.28768-0.17664-0.28658-0.15587-0.3646-0.17163-0.26471-0.098013-0.21449-0.056991-0.18995-0.029296-0.26156-3.12e-4 -0.26247 0.050008-0.25767 0.092772-0.20513 0.099065-0.2585 0.14856-0.33739 0.22257-0.53439 0.39123-0.99924 0.76932-0.67592 0.56257-0.33472 0.31975-0.31558 0.35122-0.34699 0.45324-0.47108 0.67945-0.34793 0.41167-0.33352 0.33268-0.42488 0.38801-0.37672 0.31868-0.28106 0.21721-0.39972 0.26698-0.81103 0.48549-0.47876 0.26783-0.38258 0.18458-0.31813 0.11869-0.33001 0.08541-0.2497 0.03263-0.26562-0.001314-0.31556-0.039523-1.1714-0.23222-0.25878-0.055399-0.42717-0.11167-0.26609-0.084773-0.46466-0.17624-0.36328-0.16688-0.30886-0.16913-0.55056-0.35979-0.68938-0.52791-2.1534-1.8149-0.73544-0.58504-0.37164-0.27177-0.41612-0.2791-0.41479-0.24726-0.40587-0.20877-0.46629-0.19409-0.29873-0.096055-0.311-0.07632-0.27027-0.046404-0.36988-0.030762-0.36324 0.014853-0.20134 0.038657-0.13697 0.094092-0.006305-0.083191-0.0641-0.20613-0.17-0.46282-0.83152-2.0073-0.1967-0.57043-0.076922-0.2829-0.06196-0.29923-0.039939-0.29673-0.015831-0.29329 0.008587-0.26298 0.030153-0.25827 0.0516-0.25238 0.091705-0.29618 0.12233-0.28387 0.17268-0.30277 0.20463-0.28501 0.19119-0.22382 0.20594-0.21384 0.37303-0.34598 1.1631-0.97205 0.26692-0.23571 0.47596-0.45982 0.52383-0.57952 0.98922-1.1647 0.3232-0.41292 0.28259-0.42367 0.1322-0.24068 0.11554-0.25298 0.10302-0.28856 0.065798-0.24766 0.049398-0.2534 0.042001-0.3232 0.022228-0.2973 0.010401-0.42624-0.006687-0.29835-0.024182-0.36458-0.035634-0.30954-0.048467-0.28262-0.036937-0.1553-0.029849-0.093566-0.02447-0.040286 0.001906-0.03971-0.024064-0.042956-0.13544-0.079173-0.33062-0.1-0.3884-0.073473-0.44498-0.056845-0.62613-0.049211-0.99664-0.050808-0.40236-0.034599-0.45014-0.071817-0.40285-0.11496-0.35532-0.16317-0.44228-0.32594-0.36521-0.44195-0.15946-0.28518-0.12875-0.30681-0.11472-0.37998-0.082047-0.39895-0.062116-0.49055-0.031474-0.50544-0.005325-0.6376 0.024831-0.64769 0.095752-1.1095 0.065987-0.55732 0.16191-1.1478 0.18475-1.1107 0.50013-2.6646 0.17863-1.1652 0.066386-0.58209 0.04908-0.62602 0.021374-0.6236-0.006373-0.49452-0.029144-0.49085-0.054253-0.4858-0.081138-0.47481-0.10882-0.46676-0.13733-0.45684-0.22376-0.5769-0.27411-0.55232-0.32139-0.51744-0.37018-0.4844-0.30963-0.33923-0.33426-0.3182-0.35646-0.29718-0.43401-0.31606-0.45404-0.29418-0.46778-0.2782-1.4664-0.83618-0.3259-0.20642-0.5368-0.38291-0.49714-0.42338-0.46179-0.4896-0.3934-0.54224-0.27412-0.51134-0.21163-0.54804-0.161-0.64345-0.091892-0.67591-0.027319-0.5108 0.003853-0.52248 0.040836-0.6135 0.078996-0.6412 0.093487-0.55119 0.13724-0.64278 0.16661-0.63909 0.19546-0.63199 0.30429-0.82534 0.2153-0.50549 0.20912-0.44051 0.16959-0.30955 0.030944-0.065786 0.24754-0.22278 0.32453-0.24444 0.46765-0.31704 0.47831-0.29555 0.60546-0.3445 0.66784-0.3508 2.2021-1.0844 0.64036-0.34242 0.49204-0.28627 0.64879-0.41532 0.63095-0.44809 0.50732-0.39314 0.49161-0.4096 0.35219-0.31092 0.45815-0.42752 0.41944-0.41724 0.47151-0.50075 0.75843-0.87518 0.68917-0.8604 1.3455-1.736 2.339-3.1149 0.28232-0.3506 0.47726-0.54984 0.30356-0.31552 0.34147-0.31845 0.38167-0.30957 0.37899-0.25995 0.36716-0.20907 0.32079-0.1505 0.34927-0.13314 0.40297-0.11848 0.37141-0.080463 0.4642-0.067937 0.55494-0.040598 0.58998-0.001967 0.44605 0.023559 0.59778 0.0635 0.6679 0.112 0.62822 0.14192 0.64073 0.17956 0.45855 0.14975 0.49017 0.18006 0.61244 0.25223 0.56313 0.25548 0.56026 0.27302 0.73471 0.38297 0.59625 0.32798 2.374 1.3704 0.62907 0.34914 0.61341 0.31882 0.76805 0.3555 0.37616 0.15168 0.43289 0.15367 0.43829 0.1318 0.63322 0.14607 0.41259 0.066615 0.41592 0.045293 0.41816 0.025111 0.68062 1.75e-4 0.40039-0.022095 0.40045-0.03698 0.58001-0.077205 0.6638-0.1184 0.39317-0.084483 0.75555-0.18926 0.7166-0.21008 0.89321-0.30289 0.63952-0.2454 0.63797-0.2715 0.40869-0.18922 0.40448-0.20003 0.61931-0.33229 0.34744-0.19929 0.71184-0.43334 1.9963-1.3019 0.54248-0.33798 0.4394-0.25842 0.6742-0.3665 0.66747-0.32726 0.53649-0.23713 0.85581-0.33197 0.547-0.18224 0.63989-0.18563 0.71819-0.1754 0.42885-0.0893 0.6116-0.10897 0.68348-0.099375 0.5636-0.065969 0.83907-0.071914 0.41779-0.024114 0.70737-0.011997 2.2946 0.043896 0.96253-0.012017 0.66494-0.034821 0.85263-0.066197 0.66814-0.070275 0.9286-0.12139 0.68227-0.10855 0.89156-0.16552 1.1899-0.24928 0.6035-0.15292 0.42321-0.13774 0.55579-0.2311 0.33797-0.17159 0.57767-0.34028-0.25343 0.45424-0.2297 0.46852-0.22867 0.55004-0.18563 0.54658-0.12341 0.50922-0.068487 0.48045-0.024809 0.45687 0.016359 0.48781 0.041806 0.33246 0.032445 0.16392 0.084798 0.32401 0.10661 0.31911 0.20027 0.48089 0.826 1.7528 0.3645 0.8803 0.11187 0.29825 0.064464 0.21166 0.018725 0.06465-0.042824 0.17318-0.1147 0.29151-0.26057 0.5448-0.77341 1.4622-0.32845 0.65331-0.27707 0.63486-0.11999 0.32929-0.10278 0.34442-0.074296 0.34439-0.033141 0.25384-0.014621 0.25286 0.003871 0.25083 0.022173 0.24276 0.040065 0.23864 0.058118 0.23325 0.091817 0.26468 0.11684 0.2533 0.15648 0.26235 0.18357 0.24428 0.17726 0.19382 0.19242 0.18001 0.23126 0.1863 0.24559 0.16752 0.25977 0.14527 0.21576 0.096619 0.22375 0.080593 0.2738 0.075871 0.2813 0.05733 0.51163 0.065594 1.8652 0.11058 0.59306 0.057333 0.29707 0.042366 0.37611 0.071965 0.37459 0.095028 0.28641 0.090726 0.28378 0.10625 0.28001 0.12194 0.31781 0.1609 0.30829 0.17929 0.2949 0.19414 0.23758 0.17427 0.41334 0.34476 0.17276 0.16356 0.15815 0.17414 0.92434 1.0231 0.47721 0.49599 0.57833 0.54506 0.57246 0.48768 0.5045 0.3821 1.6243 1.145 1.8797 1.2453 1.5082 0.91231 0.64116 0.3582 1.1736 0.62876 0.42455 0.26438 0.32602 0.24705 0.3003 0.27303 0.14928 0.15669 0.27875 0.33155 0.15728 0.20835 0.29886 0.42999 0.25503 0.39318 0.75968 1.2374 0.23022 0.35242 0.3883 0.52244 0.32996 0.37456 0.20026 0.20025 0.32226 0.28783 0.17093 0.13782 0.38355 0.27801 0.40609 0.26059 0.26325 0.15497 1.0528 0.56681 1.3903 0.61714 0.86534 0.3566 0.44358 0.16108 0.41585 0.13604 0.98383 0.28198 0.44304 0.10262 0.61985 0.11635 1.5495 0.25556 0.71578 0.10471 0.61991 0.061286 1.5888 0.081244 0.50219 0.048626 0.49531 0.075506 0.52409 0.12507 0.41643 0.14656 0.20071 0.087007 0.38933 0.19995 0.47744 0.29902 0.27144 0.17648 2.0849 1.5131 1.0362 0.73568 0.64522 0.43467 0.72914 0.4488 0.6545 0.34792 0.58115 0.25129 0.31702 0.10962 0.31781 0.088484 0.31769 0.064776 0.40325 0.042761 0.39796-0.008461 0.30079-0.046692 0.29296-0.082153 0.22497-0.089944 0.21825-0.10997 0.2478-0.15202 0.23877-0.17281 0.43239-0.37344 0.76758-0.76592 0.21742-0.20707 0.30587-0.26633 0.31978-0.2427 0.3381-0.21316 0.35332-0.17468 0.3415-0.12108 0.35148-0.076322 0.36499-0.026826 0.36814 0.024399 0.39649 0.084172 0.30517 0.10572 0.29957 0.13812 0.32304 0.18841 0.31177 0.22332 0.25145 0.21365 0.24024 0.23589 0.20328 0.22758 0.19285 0.24238 0.20203 0.28477 0.33604 0.55054 0.30948 0.60397 0.41557 0.9631 0.017722 0.061914 0.032216 0.030287 0.052012 0.031122 0.12311 0.045736 0.21955 0.041219 0.19039 0.012266 0.2008-0.003226 0.44564-0.049962 0.36442-0.074913 0.55224-0.15899 0.3849-0.13975 0.24296-0.10083 0.48082-0.23204 0.41023-0.23613 0.32294-0.21158 0.5695-0.42417 0.96386-0.7953 0.31152-0.24382 0.47958-0.33326 0.31396-0.18356 0.30255-0.14861 0.16737-0.0699 0.17218-0.062689 0.29524-0.085727 0.34845-0.065942 0.15595-0.017164 0.40022-0.009047 0.23793 0.018497 0.27131 0.043482 0.24085 0.059556 0.36032 0.12758 0.15966 0.072183 0.27597 0.14896 0.2665 0.17522 0.20961 0.16175 0.30575 0.27878 0.19752 0.20911 0.18668 0.21888 0.3537 0.46921 0.65679 0.95641 0.25011 0.34055 0.27326 0.33722 0.28485 0.30918 0.26358 0.24663 0.14139 0.11657 0.30547 0.21731 0.14535 0.088013 0.27927 0.14402 0.42495 0.16254 0.36943 0.093525 0.21514 0.036645 0.33319 0.032092 0.29547 0.004389 0.21907-0.010176 0.55291-0.070989 0.29447-0.062109 0.29473-0.077111 0.47638-0.15153 1.5032-0.56637 0.69614-0.23095 0.3452-0.092297 0.34813-0.073128 0.57358-0.067247 0.40029-0.001556 0.50645 0.054725 0.48088 0.10975 0.42945 0.14205 0.4275 0.17663 0.5646 0.27301 0.33304 0.019103 0.27327-0.03606 0.35949-0.077745 0.67891-0.21512-0.043659-0.32831-0.045104-0.23935-0.060492-0.24448-0.10739-0.35479-0.3231-0.89229-0.11121-0.28292-0.1462-0.32022-0.18246-0.31723-0.25665-0.35017-0.26489-0.29299-0.44292-0.44131-0.21379-0.25248-0.14015-0.23034-0.060789-0.14196-0.048893-0.16964-0.021647-0.13162-0.007203-0.19583 0.045438-0.31625 0.10418-0.32285 0.091332-0.20688 0.17288-0.32401 0.12578-0.20186 0.1969-0.28044 0.8223-1.0546 0.18497-0.26636 0.17603-0.27937 0.15487-0.28702 0.12415-0.29626 0.054611-0.18097 0.04659-0.24152 0.017867-0.23044-0.016006-0.33159-0.056995-0.32362-0.073197-0.27581-0.090577-0.27707-0.24013-0.61234-0.51141-1.1734-0.1838-0.38485-0.37467-0.70188-0.15434-0.31648-0.18228-0.41888-0.18473-0.48017-0.14064-0.4142-0.16879-0.57735-0.017651-0.10772 0.055755-0.081395 0.23933-0.17079 1.2062-0.76477 0.44265-0.2944 0.42632-0.30449 0.3946-0.31346 0.34832-0.32337 0.28656-0.33593 0.20691-0.35264 0.11159-0.36022 0.036197-0.36828-0.023824-0.3644-0.072662-0.34903-0.1139-0.32207-0.30418-0.59068-0.10841-0.29565-0.033547-0.25431 0.006131-0.27069 0.022227-0.20381 0.13179-0.72356 0.088169-0.36156 0.27394-0.79572 0.42107-1.339 0.48343-1.4587 0.60212-1.9073 0.16748-0.46066 0.25333-0.59313 0.19803-0.40027 0.35474-0.62893 0.34726-0.53112 0.16418-0.21976 0.21773-0.2569 0.23675-0.23843 0.19077-0.16661 0.36642-0.27183 0.4208-0.25709 0.38733-0.20022 0.32471-0.14682 0.61814-0.24075 1.2834-0.41598 0.058302-0.017194 0.32308-0.036616 1.0291-0.048196 0.34626-0.028267 0.43954-0.05315 0.39842-0.065067 1.0847-0.20556 0.37566-0.058821 0.3839-0.044213 0.95567-0.076212 0.28766-0.056046 0.53438-0.15665 0.32103-0.05166 0.15354-0.005478 0.14401 0.013545 0.4407 0.11841 0.47012 0.058175 0.53778 0.015521 0.41483-0.020253 0.20101-0.021159 0.39995-0.068968 0.32498-0.088705 0.31448-0.11739 0.21442-0.10848-0.072888-0.3671-0.016899-0.17532 0.011828-0.17777 0.070023-0.23886 0.12605-0.24213 0.17012-0.24105 0.20298-0.23719 0.22668-0.23145 0.38897-0.34919 0.26706-0.21324 0.55291-0.39626 0.61847-0.39365 0.29275-0.16689 0.77812-0.40044 0.42971-0.26062 0.44235-0.29525 1.0981-0.78257 0.18082-0.10705 0.15734-0.070829 0.11259-0.034129 0.46109-0.090602 0.10572-0.044976 0.1167-0.081273 0.18001-0.18523 0.16926-0.22192 0.12936-0.19208 0.30122-0.50147 0.25338-0.46121 0.1714-0.36718 0.098776-0.30436 0.17666-0.61738 0.13386-0.29392 0.17544-0.24808 0.22077-0.23023 0.25435-0.21332 0.27558-0.19545 0.36821-0.22355 0.24561-0.13108 0.35693-0.16189 0.038826 0.003686 0.084153-0.023208 0.16642-0.085674 0.15806-0.10702 0.27558-0.23947 0.21882-0.24754 0.10561-0.14332 0.1368-0.22168 0.11374-0.24269 0.04742-0.13222 0.056349-0.21166 0.033778-0.20002 0.019436-0.239-0.013972-0.43665-0.065271-0.4299-0.13485-0.53008-0.17991-0.52809-0.24677-0.61004-0.35568-0.7827-0.30242-0.58889-0.9392-1.7388-1.2038-2.1392-0.27197-0.54704-0.11069-0.27053-0.10577-0.32106-0.060386-0.24043-0.048215-0.2617-0.029222-0.23606-0.020517-0.35987 0.004882-0.31535 0.041389-0.42739 0.082155-0.41114 0.049961-0.17433 0.096715-0.2658 0.21223-0.42245 0.5758-0.95102 0.29366-0.53772 0.10797-0.22956 0.13697-0.34978 0.095434-0.32624 0.071577-0.33687 0.063642-0.45978 0.032664-0.45609 0.00569-0.62684-0.019994-0.45311-0.0387-0.44769-0.048683-0.38135-0.08278-0.47678-0.22017-1.0136-0.023492-0.14058-0.03185-0.34351 0.010549-0.32388 0.057982-0.29462 0.070959-0.18113 0.052984-0.094997 0.035034-0.051861 0.19668-0.20267 0.26536-0.15144 0.22213-0.05625 0.11561-0.01356 0.17857-0.007329 0.359 0.014174 1.8633 0.14014 1.0656-0.015217 0.36256-0.016432 0.34634-0.043573 0.32193-0.080752 0.16138-0.057967 0.18565-0.084012 0.24098-0.15169 0.24118-0.24577 0.17996-0.30158 0.14072-0.41787 0.19473-0.98587 0.07446-0.27729 0.086505-0.22527 0.16752-0.27696 0.27652-0.25295 0.34475-0.18261 0.32344-0.11047 0.58524-0.1598 0.67594-0.14862 0.40645-0.073725 0.59406-0.085831 0.47165-0.049442 2.0296-0.16829 0.7658-0.045839 0.50787-0.001465 1.2184 0.073601 0.57999-0.006079 0.33807-0.034038 0.34848-0.070359 0.24706-0.07299 0.5494-0.2134 1.869-0.84569 0.37336-0.20071 0.1925-0.12405 0.10292-0.086207-0.006561 0.024092 0.024282 0.15878 0.060133 0.25374 0.2446 0.82977 0.50951 1.5229 0.4906 1.3733 0.31303 0.7843 0.35631 0.82632 0.24594 0.50986 0.5414 1.0393 0.14723 0.3413 0.097433 0.27714 0.085594 0.32114 0.052486 0.29153 0.060515 0.67481 0.045891 0.34457 0.064823 0.28378 0.14535 0.41015 0.12529 0.27224 0.22651 0.42183 0.23779 0.3767 0.12658 0.17423 0.19996 0.24306 0.36194 0.36827 0.39737 0.3291 0.36473 0.24901 0.40011 0.221 0.25877 0.11459 0.24112 0.08712 0.29346 0.080068 0.39734 0.059452 0.37005 8.28e-4 0.33539-0.036561 0.28548-0.051764 0.2937-0.068741 0.42111-0.11896 0.39312-0.1265 0.52089-0.18772 0.47925-0.19542 0.51819-0.23904 0.49491-0.25976 1.4325-0.86448 1.0759-0.59516 0.85399-0.42341 1.2847-0.57266 1.0086-0.49856 0.27231-0.11868 0.24483-0.089418 0.418-0.11031 0.23148-0.038604 0.19382-0.015447 0.12704 0.007983 0.065407 0.035268 0.007128-0.024243 0.040171-0.045987 0.18974-0.16023 0.22503-0.1594 0.31961-0.1946 0.37764-0.20144 1.0178-0.50667 1.6258-0.86624 2.2839-1.3955 0.60686-0.42948 1.5209-1.1917 0.56203-0.39246 1.155-0.77901 0.84134-0.61228 1.8641-1.2477 0.3428-0.26052 0.21295-0.18631 0.21192-0.21463 0.25651-0.31852 0.16116-0.24388 0.15498-0.27869 0.14693-0.30385 0.15569-0.3745 0.095685-0.28159 0.16894-0.56408 0.18092-0.46433 0.2824-0.54418 0.90118-1.5723 0.37964-0.57041 0.21094-0.27737 0.24004-0.28402 0.24275-0.26066 0.27977-0.27501 0.37756-0.33217 0.093557-0.058079-0.022924-0.029357 0.035449-0.084245 0.14844-0.16735 0.28833-0.23708 0.39821-0.27334 0.4138-0.25312 0.55252-0.31011 1.204-0.61563 1.2062-0.57145 1.0141-0.45722 1.2056-0.51896 0.87758-0.357 0.84047-0.31643 0.42306-0.14684 0.80336-0.24816 0.41252-0.10775 0.70839-0.14335 0.67821-0.091377 0.44726-0.03528 0.30729-0.011162 0.50366-9.11e-4 0.35766 0.013611 0.31028 0.026409 0.31396 0.043623 0.24692 0.047595 0.46732 0.11772 0.40419 0.12784 0.32692 0.12141 1.2843 0.57536 0.44054 0.22563 0.69566 0.42632 0.28515 0.16387 0.25256 0.12278 0.26249 0.092302 0.35317 0.067991" stroke="#bdc660"/>
    </defs>
    <g clip-path="url(#p8efa10e188)">
     <use y="181.275757" fill="#bdc660" stroke="#bdc660" xlink:href="#m9357b02bd2"/>
    </g>
   </g>
  </g>
 </g>
 <defs>
  <clipPath id="p8efa10e188">
   <rect x="7.2" y="7.2" width="357.12" height="166.88"/>
  </clipPath>
 </defs>
</svg>
