<?xml version="1.0" encoding="UTF-8"?>
<!DOCTYPE svg  PUBLIC '-//W3C//DTD SVG 1.1//EN'  'http://www.w3.org/Graphics/SVG/1.1/DTD/svg11.dtd'>
<svg width="371.52pt" height="278.66pt" version="1.1" viewBox="0 0 371.52 278.66" xmlns="http://www.w3.org/2000/svg" xmlns:xlink="http://www.w3.org/1999/xlink">
 <metadata>
  <rdf:RDF xmlns:cc="http://creativecommons.org/ns#" xmlns:dc="http://purl.org/dc/elements/1.1/" xmlns:rdf="http://www.w3.org/1999/02/22-rdf-syntax-ns#">
   <cc:Work>
    <dc:type rdf:resource="http://purl.org/dc/dcmitype/StillImage"/>
    <dc:date>2024-07-04T12:10:25.961704</dc:date>
    <dc:format>image/svg+xml</dc:format>
    <dc:creator>
     <cc:Agent>
      <dc:title>Matplotlib v3.7.1, https://matplotlib.org/</dc:title>
     </cc:Agent>
    </dc:creator>
   </cc:Work>
  </rdf:RDF>
 </metadata>
 <defs>
  <style type="text/css">*{stroke-linejoin: round; stroke-linecap: butt}</style>
 </defs>
 <g id="figure_1">
  <g id="patch_1">
   <path d="m0 278.66h371.52v-278.66h-371.52v278.66z" fill="none"/>
  </g>
  <g id="axes_1">
   <g id="PatchCollection_1">
    <defs>
     <path id="m101dfd01c0" d="m311.01-258.65 0.57703 0.009673 0.58275-0.004893 0.58615-0.019834 0.94133-0.065995 1.8285-0.20926 0.44115-0.024204 0.42579 0.00913 0.51441 0.071858 0.45014 0.12872 0.30602 0.13782 0.23194 0.166 0.068373 0.14106 0.66416 0.78862 0.46707 0.53488 0.60988 0.65835 0.50731 0.52078 0.62818 0.62296 1.2999 1.2614 2.1366 2.0461 1.3442 1.2703 0.84907 0.83959 0.69778 0.75219 0.74341 0.83571 0.62856 0.74332 0.61421 0.75851 0.31039 0.35304 0.38594 0.40321 0.32563 0.32218 0.61689 0.56057 0.49924 0.41193 0.63259 0.48588 0.68536 0.50848 0.30575 0.2217 0.75457 0.51204 1.1924 0.75436-1.092 0.4749-1.0856 0.50314-0.79565 0.39484-0.81999 0.44128-0.64118 0.38016-1.2623 0.82339-1.4077 0.89482-0.65528 0.38871-0.62856 0.33678-0.88712 0.42604-0.67626 0.28958-0.3373 0.13125-0.52536 0.18227-0.49795 0.14229-0.33412 0.07518-0.37788 0.05703-0.27333 0.018812-0.26898-0.002818-0.26408-0.027044-0.30306-0.066782-0.29205-0.10428-0.14314-0.066557-0.16396-0.090757-0.15241-0.10125-0.1621-0.13027-0.13714-0.13263-0.11738-0.13409-0.16855-0.23299-0.21474-0.40188-0.096183-0.25151-0.078394-0.2815-0.049849-0.27989-0.016443-0.2773 0.027577-0.31563 0.064024-0.30772 0.08849-0.30226 0.2377-0.68004 0.034365-0.1291 0.031648-0.19116 0.002139-0.14344-0.021927-0.15837-0.05896-0.17384-0.096743-0.15249-0.18652-0.14519-0.30695-0.058931-0.15476 0.012273-0.15104 0.02993-0.20682 0.063929-0.21469 0.090124-0.33462 0.18261-0.28901 0.1935-0.28474 0.21213-0.31163 0.25354-0.46865 0.41999-0.28078 0.27701-0.25189 0.28381-0.28305 0.38325-0.23193 0.40878-0.1597 0.43522-0.048912 0.24934-0.02242 0.24685 0.002585 0.33488 0.050421 0.44166 0.082513 0.3949 0.074367 0.27504 0.12046 0.37495 0.22756 0.5917 0.72062 1.7112 0.26264 0.71877 0.16093 0.48454 0.14675 0.48445 0.26208 1.0025 0.10325 0.48005 0.059751 0.39006 0.11309 1.0172 0.08354 0.54618 0.46122 2.3454 0.18787 0.76969 0.13995 0.45821 0.39313 1.1211 0.051019 0.16212 0.017006 0.093594-0.013024 0.008902-0.11508 0.001357-1.12-0.14471-0.87756-0.099485-0.46661-0.042158-0.46601-0.01732-0.19633 0.005219-0.39552 0.034739-0.39116 0.065927-0.40358 0.1015-0.31955 0.10434-0.32973 0.12809-0.76392 0.33853-0.89418 0.427-0.43948 0.23693-0.57829 0.35628-0.49086 0.34608-0.4002 0.31101-2.0533 1.6919-0.65505 0.54962-0.79086 0.69254-0.37949 0.31761-0.62421 0.49282-0.41763 0.3075-0.38025 0.23102-0.3015 0.15568-0.32145 0.14789-0.47595 0.18535-0.94504 0.34002-0.57789 0.22597-0.70054 0.29438-0.28224 0.13292-0.36371 0.222-0.20494 0.16304-0.14141 0.13793-0.17328 0.21263-0.13246 0.19952-0.31154 0.58761-0.39197 0.61819-0.17229 0.30788-0.079527 0.18392-0.035064 0.10888-0.045445 0.19979-0.093693 0.59343-0.019728 0.28823 0.017635 0.25341 0.044887 0.2984 0.073715 0.37388 0.65404 2.8704 0.11998 0.45599 0.14139 0.4645 0.3655 1.0537 0.11158 0.39202 0.11371 0.49602 0.063738 0.48319 0.006085 0.32934-0.020633 0.45852-0.03998 0.44599-0.043181 0.29775-0.049389 0.2547-0.066925 0.25172-0.11258 0.32744-0.16203 0.38391-0.21901 0.44748-0.27565 0.51195-1.2797 2.2355-0.39373 0.64105-0.18051 0.26858-0.25379 0.34502-0.1899 0.2331-0.23384 0.25508-0.17548 0.16747-0.28035 0.23104-0.30018 0.21298-0.33899 0.21208-0.52975 0.29316-0.74906 0.37063-1.2851 0.60137-0.41183 0.20582-0.41938 0.22489-0.34117 0.19599-0.44135 0.27009-0.31905 0.21048-0.4251 0.29817-0.56161 0.42697-0.24707 0.20739-0.24722 0.23201-0.16154 0.17225-0.24815 0.30547-0.29454 0.4284-0.19494 0.3164-0.25866 0.45641-0.13526 0.25904-0.54091 1.1419-0.34826 0.62003-0.29036 0.45213-0.3198 0.43735-0.30182 0.3598-0.32146 0.34176-0.37541 0.35019-0.43817 0.32918-0.46471 0.29036-0.42462 0.23588-0.81476 0.41605-1.4979 0.7288-0.027335 0.002105-0.023377 0.032497-0.01706 0.072335-0.003937 0.098966 0.021441 0.24577 0.073738 0.42952 0.18714 0.88644 0.096659 0.57008 0.054746 0.2652 0.10165 0.36945 0.27251 0.79146 0.079142 0.28196 0.04458 0.22403 0.090754 0.65008 0.093883 0.37538 0.18867 0.57645 0.14248 0.39117 0.38074 0.88119 0.053734 0.10378 0.094402 0.2623 0.75662 2.3133 0.31806 0.86302 0.38478 0.96169 0.2023 0.47861 0.27506 0.6082 0.28313 0.56513 0.14757 0.2686 0.3256 0.52951 0.23118 0.32631 0.35413 0.43884 0.3091 0.33115 0.30684 0.28547 0.47978 0.40828 0.48041 0.39118 0.50188 0.37506 0.35776 0.23307 0.29445 0.16751 0.26552 0.13105 0.74163 0.30005 0.48352 0.1719 0.31392 0.071862 0.12708 0.013603 0.18581 0.005113 0.2015-0.010484 0.35491-0.042933 0.22945-0.046847 0.165-0.044945 0.36346-0.12682 0.33222-0.15116 0.29377-0.14906 0.30556-0.17374 1.2375-0.77474 0.44943-0.2671 0.50759-0.2861 0.42249-0.20455 0.30206-0.1083 0.29384-0.056892 0.15381-0.005329 0.14591 0.016018 0.12005 0.031478 0.13188 0.054503 0.24049 0.14841 0.23188 0.19878 0.22077 0.23924 0.1497 0.1891 0.61012 0.85234 1.7837 2.6253 0.79609 1.1156 0.41069 0.5447 0.41338 0.5195 0.54127 0.62858 0.47441 0.49699 0.22914 0.22186 0.09404 0.071368 0.35872-0.42186 0.44784-0.46479 0.32185-0.30449 0.45899-0.38848 0.70286-0.5419 1.0184-0.81667 0.69553-0.51885 0.27079-0.18639 0.34457-0.21523 0.29529-0.16695 0.4203-0.2202 0.53513-0.2621 0.56097-0.24531 0.74043-0.27695 0.56275-0.18462 0.76175-0.21214 1.7013-0.42361 0.65635-0.14432 1.1222-0.2219 0.55388-0.12584 0.80046-0.21626 0.9242-0.30147 0.27824-0.10447 0.39355-0.1662 0.33003-0.15447 0.80073-0.39743 0.31616-0.17058 0.28582-0.17311 0.25193-0.17118 0.24028-0.18047 0.25616-0.21168 0.20648-0.18922 0.090784-0.10408 0.047141-0.008858 0.046494 0.024278 0.073405 0.087706 0.075355 0.14296 0.080588 0.22171 0.10421 0.40956 0.49409 2.1866 0.15557 0.54043 0.19919 0.49698 0.26537 0.43256 0.20444 0.22532 0.23274 0.19681 0.2348 0.15895 0.17645 0.098845 0.33626 0.15133 0.51658 0.17768 0.60263 0.17172 0.5477 0.13298 0.5238 0.099199 0.69602 0.08194 1.6535 0.12845 0.64745 0.078693 1.476 0.20614 0.69214 0.064754 0.38561 0.017696 0.46125 0.001977 0.47576-0.02186 1.0169-0.094824 0.99122-0.12088 0.58872-0.086193 1.2453-0.20281 0.6823-0.084374 0.23852-0.01507 0.29337-0.001824 0.39914 0.03191 0.36544 0.059356 0.29823 0.066298 0.29755 0.080462 0.58295 0.1962 0.36408 0.14842 0.30863 0.14232 0.37453 0.19411 0.59067 0.3508 0.67282 0.46232 0.62368 0.47626 0.64931 0.5479 0.42019 0.39584 0.37 0.38939 0.3885 0.47219 0.33317 0.48726 0.28315 0.51614 0.14171 0.31851 0.12308 0.328 0.0999 0.31879 0.083869 0.32551 0.085826 0.43578 0.058266 0.44423 0.032052 0.51774-0.002152 0.46683-0.03883 0.68674-0.20597 2.2278-0.059146 0.75355-0.069942 1.2052-6.19e-4 0.13479 0.009019 0.024954 0.010196 0.055056-0.01006 0.12488-0.067361 0.39596-0.099334 0.43078-0.136 0.4758-0.10575 0.31234-0.12094 0.31289-0.23339 0.50098-0.15053 0.26639-0.16386 0.26228-1.0557 1.5283-0.26672 0.40891-0.23308 0.41841-0.21442 0.5177-0.15183 0.53832-0.094474 0.55046-0.035504 0.41771-0.038741 1.1421-0.077351 0.70675-0.087456 0.45743-0.14618 0.53892-0.20904 0.56262-0.14006 0.30434-0.17072 0.32233-0.17319 0.28929-0.20379 0.30654-0.24868 0.33715-0.28992 0.35235-0.30352 0.32786-0.31539 0.29798-0.12104 0.1026-0.30735 0.23149-0.23988 0.15686-0.30709 0.16803-0.19156 0.08411-0.14909 0.052753-0.16767 0.043109-0.15719 0.024355-0.15999 0.008943-0.18034-0.009011-0.13102-0.01821-0.23576-0.055664-0.17851-0.059879-0.17903-0.073451-0.31955-0.16325-0.45427-0.27581-0.52988-0.36094-0.28157-0.21054-0.41091-0.33699-0.84365-0.76155-0.38832-0.32631-0.38014-0.29976-0.29471-0.1894-0.28526-0.13939-0.2946-0.11349-0.16981-0.041236-0.19904-0.011159-0.11553 0.018219-0.18453 0.084436-0.15371 0.1571-0.12544 0.22644-0.10242 0.29778-0.081426 0.37276-0.050373 0.35941-0.037871 0.45121-0.014261 0.35484 0.004024 0.70921 0.026414 0.54518 0.10138 1.5221 0.017837 0.52886 0.002322 0.53088-0.01885 0.61734-0.037244 0.57444-0.073973 0.71482-0.0722 0.5114-0.1277 0.71198-0.076133 0.33414-0.17478 0.60913-0.17478 0.48226-0.14052 0.33081-0.21755 0.43975-0.20992 0.36883-0.37413 0.58388-0.18255 0.31088-0.11248 0.23534-0.060297 0.16999-0.033025 0.13188-0.026864 0.19101-4.15e-4 0.26587 0.029306 0.18758 0.042911 0.14502 0.058279 0.12701 0.024535 0.037331 0.036352 0.031639-0.49109-0.099463-0.34886-0.006247-0.078545 0.90781-0.072324 1.18-0.0421 0.24529-0.097496 0.32708-0.088846 0.21101-0.14944 0.26692-0.16179 0.21569-0.21492 0.22952-0.082566 0.073564-0.19772 0.15487-0.77285 0.55975-0.39264 0.30032-0.32032 0.25756-0.35021 0.29929-0.30154 0.28415-0.26717 0.28928-0.21942 0.29309-0.15595 0.29594-0.047373 0.1405-0.040427 0.19733-0.006197 0.19796 0.026637 0.17476 0.052594 0.17491 0.051274 0.12671 0.12276 0.23843 0.2021 0.29254 0.27728 0.31348 0.47741 0.49032 0.1414 0.1689 0.12934 0.1978 0.098073 0.23004 0.064841 0.37644-0.009967 0.35857-0.062848 0.38229-0.12882 0.45984-0.0855 0.23629-0.15934 0.3734-0.20518 0.40956-0.2329 0.41455-0.56978 0.93661-0.39184 0.67648-0.37681 0.71634-0.18252 0.38459-0.15784 0.36561-0.16269 0.43014-0.1054 0.32867-0.074654 0.27419-0.072078 0.31665-0.067672 0.36362-0.095105 0.7269-0.05221 0.7213-0.006177 0.73432 0.03362 0.50393 0.082197 0.60757 0.10224 0.57506 0.21408 0.994 0.04242 0.35214 0.021132 0.35914-0.004563 0.22274-0.021307 0.20266-0.029313 0.15484-0.071999 0.26199-0.12879 0.34768-0.15309 0.343-0.24918 0.49315-0.50174 0.91559-0.28371 0.54924-0.19048 0.42157-0.1765 0.46532-0.076836 0.23688-0.10685 0.38538-0.10451 0.50424-0.050818 0.44119-0.005993 0.40227 0.011933 0.18179 0.032553 0.24431 0.072521 0.31822 0.086804 0.2588 0.037809 0.091626 0.15834 0.30786 0.19352 0.29549 0.15803 0.20932 0.37383 0.42897 0.29495 0.29574 0.4176 0.37469 0.51106 0.39764 0.50318 0.33046 0.43985 0.24339 0.44962 0.20746 0.45525 0.16586 0.45712 0.11588 0.45526 0.054538 0.48968-0.019986 0.4728-0.086875 0.4751-0.14107 0.56292-0.18625 0.20362-0.05371 0.30978-0.047502 0.27419 0.017282 0.16288 0.058298 0.20566 0.15973 0.1159 0.18536 0.048893 0.20419-0.005717 0.14651-0.050293 0.18328-0.085192 0.18157-0.12272 0.19979-0.14473 0.20108-0.34185 0.4193-1.0639 1.2222-0.41876 0.50487-0.5322 0.69786-0.41022 0.58675-0.35767 0.5544-0.47206 0.79208-0.51805 0.92552-1.1177 2.0446-0.44037 0.76597-0.22683 0.37028-0.31682 0.47894-0.24281 0.33198-0.25457 0.3111-0.27465 0.28985-0.29398 0.25557-0.32452 0.21634-0.44909 0.19946-0.48681 0.1336-0.51428 0.085718-0.53339 0.052434-0.54553 0.031294-1.6502 0.069045-0.53499 0.04789-0.51599 0.079342-0.48796 0.12553-0.4486 0.19006-0.1828 0.1096-0.40072 0.31815-0.23094 0.23747-0.27174 0.32932-0.26304 0.36924-0.24937 0.39172-0.93801 1.5974-0.58747 0.94835-0.2557 0.47724-0.23763 0.51371-0.21865 0.53638-0.19401 0.54847-0.37856 1.2478-0.25428 0.91748-0.066324 0.20774-0.041008 0.079076 0.078873 0.01441 0.067689 0.030754 0.16554 0.10461 0.088027 0.073012 0.097712 0.10109 0.085338 0.11636 0.06957 0.13197 0.09878 0.28738 0.25658 0.9076 0.18622 0.60687 0.57105 1.6574 0.083243 0.30806 0.16735 0.7642 0.15809 0.461 0.10975 0.26134 0.31598 0.64307 0.083178 0.12636 0.26539 0.35349 0.12791 0.21594 0.043595 0.10782 0.042902 0.18722 0.050448 0.61608 0.036007 0.19883 0.10895 0.40274 0.11584 0.3319 0.11202 0.22071 0.13526 0.21345 0.14852 0.20437 0.14316 0.17512 0.13733 0.14044 0.1388 0.12106 0.12744 0.096455 0.099243 0.063904 0.049305 0.019317-0.059343 0.11727-0.16468 0.26104-0.50506 0.75609-0.37118 0.53453-0.83691 1.1368-0.56268 0.80918-0.27033 0.42047-0.29532 0.50399-0.18904 0.37109-0.29381 0.68292-0.33651 0.72749-1.2243 2.4115-0.3141 0.70826-0.2967 0.79568-0.21561 0.68549-0.19206 0.73483-0.16696 0.7777-0.072703 0.4267-0.051003 0.38131-0.034383 0.37317-0.013736 0.29029 0.005314 0.39123 0.023539 0.27432 0.040395 0.25987 0.084585 0.32807 0.078699 0.19971 0.072708 0.13803 0.094798 0.13634 0.16386 0.16244 0.18523 0.12482 0.26896 0.11673 0.18563 0.047483 0.58895 0.091367 0.17815 0.038015 0.24435 0.070266 0.5501 0.18941 0.2451 0.10418 0.69359 0.3615 0.18966 0.10814 0.3728 0.24556 0.45193 0.3522 0.20374 0.18584 0.46551 0.47527 0.27761 0.25362 0.22848 0.15981 0.24527 0.13851 0.67614 0.33815 0.29518 0.16208 0.17396 0.12167 0.1566 0.13771 0.067278 0.071352 0.10641 0.14002 0.12901 0.27198 0.048963 0.29702-0.012764 0.31501-0.054837 0.32046-0.079936 0.31382-0.059982 0.19348-0.086353 0.21949-0.29004 0.61374-0.14814 0.27806-0.097647 0.15239-0.25871 0.34864-0.5454 0.66295-0.22133 0.31768-0.20016 0.34026-0.17843 0.35096-0.3719 0.87622-0.25874 0.55002-0.12996 0.31268-0.2991 0.78972-0.21668 0.48815-0.096188 0.18414-0.23766 0.39694-0.14864 0.21429-0.31099 0.40694-0.091985 0.14215-0.067677 0.13162-0.090238 0.26764-0.20142 0.93401-0.20604 0.77856-0.14784 0.49276-0.29059 0.88099-0.094321 0.34175-0.055986 0.26892-0.139 0.96605-0.076626 0.39053-0.19342 0.82314-0.11185 0.66299-0.042805 0.1563-0.15346 0.40596-0.10224 0.22617-0.15332 0.28084-0.16306 0.26406-0.23049 0.342-0.55767 0.75795-0.10162 0.17741-0.007989 0.043241 0.012661 0.060088-0.012478 0.16648-0.066254 0.34843-0.1198 0.37625-0.17986 0.3696-0.25583 0.35301-0.35935 0.368-0.33755 0.26836-0.41204 0.27119-0.43673 0.22373-0.45836 0.15391-0.3273 0.054314-0.31732 0.012939-0.35224-0.025559-0.41037-0.075713-0.38258-0.1088-0.39815-0.14627-0.92986-0.40252-0.21727-0.088154-0.40772-0.14489-0.29599-0.084147-0.98133-0.20241-0.31481-0.094422-0.40862-0.19062-0.73054-0.43466-0.39746-0.2035-0.38297-0.14729-0.45846-0.12281-0.33952-0.060433-0.2807-0.032067-0.27002-0.014755-0.34738 0.009485-0.38127 0.052158-1.0437 0.23394-0.31585 0.038663-0.29855-0.014186-0.25738-0.074331-0.27556-0.15006-0.30105-0.24965-0.78332-0.8718-0.47186-0.56455-0.29632-0.42581-0.24048-0.40456-0.14397-0.27379-0.15572-0.32875-0.17382-0.4304-0.16985-0.4934-0.10263-0.22024-0.10937-0.16076-0.11763-0.12803-0.1159-0.10365-0.23473-0.16887-0.19469-0.10781-0.37387-0.15539-0.38641-0.090367-0.6244-0.08451-0.47468-0.047222-0.23784 0.001516-0.18319 0.019352-0.094523 0.027821-0.59107-0.60652-0.55351-0.59004-1.2537-1.3992-1.1591-1.2757-0.36728-0.41994-0.35048-0.44148-0.12767-0.18799-0.13357-0.23861-0.093101-0.23388-0.0596-0.27057-0.022538-0.34735 0.013078-0.38068 0.082379-1.4438 0.001752-0.45083-0.047044-0.91611-0.038133-1.0266-0.022451-0.26145-0.036113-0.25611-0.14003-0.5863-0.23254-0.77674-0.089669-0.38229-0.039921-0.37994 0.028754-0.39607 0.076977-0.39657 0.15175-0.67704 0.14891-0.77436 0.061284-0.39112 0.018681-0.3804-0.053927-0.36366-0.12086-0.29001-0.18185-0.27531-0.16962-0.19888-0.19235-0.19194-0.20702-0.18203-0.22137-0.17611-0.42776-0.30549-0.55129-0.35457-1.629-0.93988-0.49218-0.32288-1.3928-0.95561-0.41837-0.31058-1.2128-0.93698-0.48894-0.3513-0.49386-0.33349-1.4381-0.92984-1.0079-0.62004-0.45285-0.25086-0.28186-0.13947-0.14045-0.061089-0.093496-0.024591-0.53135-1.0286-0.9314-1.9343-0.32246-0.5831-0.41683-0.65088-0.28783-0.40664-0.81148-1.0608-0.86236-1.1827-0.63373-0.82957-0.76312-0.92097-0.83411-0.95198-0.14294-0.14297-0.13801-0.10984-0.20622-0.12263-0.23043-0.10696-0.24497-0.080214-0.20166-0.037742-0.49414-0.049025-0.18418-0.027126-0.44341-0.089772-0.96827-0.2229-0.427-0.12131-0.43663-0.14033-0.44437-0.15751-0.68252-0.26921-0.71411-0.31356-2.0029-0.90758-0.31823-0.1283-0.085544-0.015657-0.059248-0.037627-0.15501-0.032319-0.21683-0.014015-0.26856 0.009231-0.16816 0.018744-0.2109 0.038697-0.20828 0.058152-0.27667 0.11358-0.32309 0.16997-0.56847 0.33258-0.26648 0.18111-0.73033 0.57579-0.29619 0.16719-0.25048 0.07607-0.26614 0.031152-0.2728-0.01021-0.19337-0.02955-0.84114-0.18958-0.2722-0.038596-0.32106-0.01375-0.26797 0.023764-0.24436 0.058984-0.15855 0.062506-0.13729 0.074354-0.11603 0.082376-0.091226 0.081722-0.096935 0.10997-0.12088 0.19049-0.059862 0.12624-0.10867 0.30432-0.22515 0.8539-0.11563 0.37831-0.1001 0.25392-0.13003 0.24618-0.20509 0.27168-0.24105 0.24596-0.65486 0.59293-0.30366 0.303-0.23756 0.27559-0.41525 0.54858-0.5081 0.6455-0.50359 0.59552-0.24455 0.25977-0.90134 0.89833-1.4498 1.3646-0.27062 0.27981-0.23319 0.29336-0.15723 0.26019-0.12012 0.26127-0.069284 0.19709-0.04684 0.17911-0.026546 0.18067 0.003814 0.098033 0.017759 0.027606 0.078887 0.072263 0.040031 0.13441-0.016465 0.16377-0.056845 0.12262-0.09251 0.12111-0.15762 0.14642-0.19407 0.13849-0.33403 0.18825-0.4359 0.1963-0.64388 0.235-0.61332 0.18865-1.1056 0.30922-0.39872 0.13858-0.33522 0.14794-0.68042 0.34527-0.51411 0.22136-0.26769 0.097068-0.27407 0.083094-0.28047 0.064371-0.24765 0.037525-0.25159 0.023312-0.51125 0.017578-1.1725-0.002101-0.25937 0.009453-0.43847 0.039299-0.19721 0.031096-0.34199 0.084066-0.14432 0.052176-0.20918 0.10402-0.12165 0.083942-0.13452 0.12632-0.034681 0.041562-0.13093 0.21603-0.097539 0.24725-0.17246 0.54719-0.11282 0.28086-0.099993 0.1906-0.1162 0.18748-0.19695 0.27714-0.23131 0.29239-0.40032 0.46324-0.1144 0.12327-0.074782 0.065849-0.041288-0.084149-0.13504-0.2083-0.25646-0.36711-0.27614-0.36959-0.49266-0.59472-0.30606-0.33557-0.51-0.5104-0.39984-0.35528-0.41015-0.32003-0.33476-0.2317-0.47244-0.29468-0.54207-0.29736-0.37518-0.17669-0.35303-0.14414-0.3718-0.12893-0.56187-0.15458-1.1839-0.24452-0.26451-0.065236-0.14968-0.048243-0.17429-0.077398-0.11612-0.076419-0.098317-0.10387-0.066623-0.13519-0.028928-0.12097-0.013165-0.16022 0.007157-0.18128 0.029897-0.2285 0.049941-0.25671 0.30124-1.2648 0.085585-0.44247 0.041237-0.33759 0.007417-0.17772-0.00575-0.16526-0.0257-0.18913-0.050271-0.19238-0.051023-0.14098-0.089421-0.20003-0.13343-0.25211-0.2435-0.40458-0.74578-1.1472-0.15007-0.25206-0.17722-0.34048-0.10809-0.25836-0.068086-0.21673-0.041477-0.202-0.020067-0.24858 0.00908-0.25219 0.046978-0.33136 0.078243-0.33411 0.082891-0.28096 0.35618-1.0901 0.060582-0.23021 0.053805-0.27233 0.033015-0.27695 0.046126-0.57435 0.069719-0.60633 0.013794-0.2602-0.013085-0.20103-0.034417-0.1438-0.048798-0.10375-0.04631-0.061872-0.17398-0.12107-0.13215-0.048286-0.20104-0.047365-0.55864-0.098941-0.23841-0.057164-0.17598-0.05484-0.14918-0.058841-0.18387-0.090588-0.31048-0.19693-0.1886-0.17021-0.099033-0.11677-0.09774-0.14036-0.14195-0.25224-0.24192-0.49575-0.10069-0.18645-0.080372-0.12576-0.13331-0.15518-0.14139-0.10071-0.065758-0.025688-0.072468-0.010689-0.11973 0.022311-0.097029 0.046692-0.10871 0.071566-0.19592 0.15558-0.25808 0.23548-0.46453 0.46959-0.23222 0.25708-0.18068 0.23254-0.20455 0.30246-0.19136 0.31531-0.52434 0.92106-0.23232 0.37853-0.18157 0.2724-0.18616 0.25592-0.27428 0.34007-0.23325 0.25772-0.23367 0.23301-0.33496 0.31755-0.35463 0.31488-0.24824 0.19671-0.29152 0.19296-0.23787 0.13462-0.16111 0.078932-0.24096 0.095001-0.176 0.048021-0.25494 0.030755-0.43666-0.06219-0.41713-0.1611-0.41769-0.22491-1.1043-0.70516-0.27592-0.16146-0.33032-0.16099-0.14861-0.054898-0.25567-0.058882-0.2549-0.012575-0.19687 0.012935-0.91834 0.13475-0.42558 0.023743-0.36876-0.015106-0.91545-0.087923-0.2686-0.010162-0.31116 0.009517-0.30048 0.025824-0.38044 0.047061-1.2296 0.20324-0.43879 0.060148-0.53108 0.043075-0.30305-0.002781-0.25598-0.024871-0.21548-0.035357-0.5238-0.12657-0.4335-0.13638-1.0098-0.36155-0.41043-0.11781-0.24129-0.046056-0.18474-0.023396-0.66697-0.05176-0.2113-0.028782-0.25216-0.054951-0.68458-0.19196-0.27721-0.066088-0.28348-0.046181-0.22708-0.01474-0.25281 0.011692-0.25972 0.045633-0.28687 0.092457-0.28014 0.12473-0.26294 0.13609-0.32069 0.18319-1.0942 0.68942-0.34125 0.20212-0.30127 0.16281-0.40873 0.18778-0.3673 0.12442-0.3231 0.063253-0.26155 0.012892-0.17206-0.012163-0.13894-0.022677-0.15911-0.04176-0.2448-0.1035-0.098769-0.057408-0.18855-0.13621-0.089002-0.076932-0.22524-0.23328-0.1421-0.17778-0.22437-0.33563-0.11652-0.20504-0.18669-0.38295-0.12908-0.31227-0.13416-0.3782-0.101-0.33355-0.082879-0.31924-0.1092-0.52196-0.065563-0.42417-0.039305-0.41224 0.005695-0.030636 0.033335-0.03248 0.12822-0.089701 0.73208-0.38811 0.21134-0.12021 0.28511-0.18244 0.30482-0.23087 0.15043-0.13606 0.14134-0.15118 0.10674-0.14094 0.088722-0.15481 0.092784-0.31709 0.010441-0.14726-0.004741-0.13109-0.024104-0.1719-0.052653-0.19177-0.085428-0.17421-0.1086-0.14677-0.20526-0.19793-0.24846-0.14962-0.13764-0.049322-0.18564-0.042158-0.13416-0.018247-0.85924-0.035577-0.22656-0.03705-0.27578-0.080446-0.73077-0.30666-0.39941-0.14147-0.33892-0.077413-0.30196-0.038023-0.24428-0.012306-0.25462 0.00158-0.4978 0.030495-0.86325 0.074358-0.57612 0.025823-0.33607-3.49e-4 -0.40857-0.017679-0.41871-0.036599-0.365-0.046192-0.3565-0.058097-0.50902-0.10959-0.45373-0.14118-0.24894-0.11017-0.22776-0.13689-0.2704-0.23281-0.24433-0.28002-0.10553-0.13749-0.20188-0.28755-0.1411-0.22055-0.256-0.44256-0.30081-0.58889-0.17169-0.36944-0.30736-0.71518-0.58339-1.4271-0.25299-0.5651-0.2811-0.5474-0.32147-0.51763-0.30563-0.4054-0.65334-0.77255-0.92656-1.1301-0.28156-0.32826-0.16806-0.18018-0.029482-0.69754-0.025937-0.3574-0.044249-0.24793-0.057048-0.14815-0.079188-0.13478-0.091506-0.12911-0.45283-0.563-0.56987-0.68184-0.50415-0.55868-0.092261-0.12277-0.2572-0.25849-0.2285-0.20862-0.36526-0.30784-0.413-0.31318-0.45-0.29794-0.53289-0.29523-0.55577-0.25739-0.36858-0.14921-0.37061-0.13539-0.36314-0.11952-1.4554-0.40374-0.46809-0.14549-0.75182-0.25647-1.3663-0.51289-2.7367-1.0668-0.41051-0.15162-0.65999-0.22572-0.36148-0.1083-0.34003-0.085502-0.3336-0.062075-0.47078-0.047457-0.59434-0.043485-0.32849-0.03784-0.25408-0.045008-0.26179-0.073107-0.076184-0.028917-0.29178-0.15163-0.27207-0.19742-0.26109-0.23328-0.52284-0.51687-0.13558-0.12126-0.27823-0.20838-0.38045-0.19857-0.42334-0.1474-0.4548-0.10443-0.19323-0.031778-0.67382-0.07085-0.55795-0.030686-0.34392-0.006499-0.20301 0.002647-0.43438 0.026408-0.46481 0.069285-0.22721 0.054097-0.31199 0.1002-0.30353 0.12458-0.33943 0.16696-0.25748 0.14211-1.3223 0.79555-1.1006 0.57682-0.14178 0.093689-0.16022 0.13494-0.13756 0.14256-0.10772 0.12738-0.30496 0.41654-0.11524 0.10999-0.11643 0.087379-0.63324 0.41679-0.12699 0.077863-0.098887 0.047188-0.1596 0.049254-0.17703 0.021877-0.105-0.001337-0.20073-0.023565-0.99136-0.2323-0.75716-0.2185-0.29925-0.074889-0.1546-0.029039-0.30331-0.036719-0.16303-0.004918-0.22756 0.010124-0.40549 0.059573-0.2395 0.073378-0.16382 0.091304-0.14349 0.12149-0.073528 0.08399-0.14946 0.23834-0.091793 0.27479-0.022701 0.23262 0.004441 0.19068 0.13277 1.4519 0.003284 0.30618-0.013273 0.13582-0.066913 0.29237-0.11138 0.29761-0.20364 0.4135-0.21055 0.36419-0.14447 0.22472-0.30602 0.42928-0.7562 0.97344-0.20233 0.29831-0.28382 0.47588-0.1893 0.28794-0.14405 0.18798-0.16512 0.18932-0.15614 0.1558-0.17073 0.14614-0.14934 0.10802-0.19102 0.11248-0.24888 0.10998-0.2282 0.067903-0.12522 0.021331-0.11664 0.007219-0.12364-0.00824-0.28591-0.091128-0.15814-0.093988-0.14224-0.11215-0.1634-0.16343-0.12419-0.15065-0.1717-0.24897-0.14057-0.24451-0.094399-0.19028-0.11256-0.26089-0.25875-0.68964-0.071461-0.13895-0.096348-0.14816-0.10881-0.12671-0.083038-0.072172-0.069001-0.04543-0.067847-0.032772-0.089698-0.026566-0.10729-0.008517-0.22703 0.055064-0.10707 0.05276-0.24946 0.16549-1.992 1.587-0.44029 0.33389-0.53419 0.38075-0.3261 0.21804-0.58541 0.36388-0.38193 0.21574-0.13096 0.060959-0.034723-3.45e-4 -0.18356-0.042785-0.7722-0.24359-0.27364-0.069221-0.13251-0.022534-0.23966-0.01707-0.2502 0.024119-0.11145 0.036546-0.05427 0.039387-0.014456 0.035322 0.011076 0.03432 0.030179 0.03673 0.2856 0.23439 0.11743 0.12458 0.032252 0.057126 0.014037 0.06645-0.019367 0.066463-0.04997 0.057966-0.074371 0.045194-0.10142 0.031651-0.44938 0.087167-0.57962 0.16643-0.12391 0.024754-0.10608 0.003563-0.08117-0.027918-0.047198-0.059998-0.027941-0.088948-0.17315-1.782-0.04606-0.29041-0.024844-0.092661-0.021644-0.028686-0.047677 0.052895-0.079591 0.043163-0.069911 0.019457-0.15207 0.012239-0.21012-0.029207-0.12808-0.042259-0.11128-0.053608-0.13011-0.085024-0.14917-0.12792-0.47852-0.5285-0.14295-0.14189-0.21042-0.17761-0.21475-0.13562-0.12328-0.053625-0.099976-0.029568-0.2798-0.02276-0.6156 0.058724-0.29639 0.001097-0.21105-0.010921-1.7635-0.13646-0.27467-0.037132-0.73455-0.1382-0.21652-0.022835-0.14238 0.001007-0.1601 0.024375-0.24417 0.10282-0.13244 0.088939-0.46926 0.38544-0.13175 0.091636-0.19256 0.105-0.16766 0.062355-0.14411 0.036749-0.22912 0.03489-1.3032 0.09177-0.3763 0.017497-0.43778 0.005877-0.43327-0.034477-0.43993-0.075039-0.24066-0.056555-1.6418-0.44013-0.31439-0.097512-0.49471-0.18912-0.47228-0.21958-0.42087-0.2215-0.69024-0.39352-1.4599-0.86084-1.211-0.66531-0.44456-0.23215-0.52791-0.24222-1.5497-0.64073-0.20894-0.060477-0.068109-0.010465-0.099268 0.016002-0.002106 0.018466 0.006259 0.074008 0.071613 0.23769 0.96052 2.9915 0.46363 1.3878 0.10612 0.3509 0.095799 0.3723 0.058038 0.27751 0.056595 0.35206 0.054121 0.62046 0.00802 0.43099-0.005792 0.29208-0.044439 0.64365-0.067121 0.51804-0.075174 0.39145-0.11691 0.42711-0.20984 0.67804-0.19849 0.57429-0.44108 1.1691-0.17691 0.45194-0.18506 0.43582-0.18254 0.37716-0.20534 0.34402-0.26817 0.34324-0.28087 0.31394-0.26088 0.31137-0.16992 0.24707-0.51635 0.8463-0.13337 0.2586-0.069768 0.17494-0.071704 0.24883-0.057283 0.31896-0.027493 0.66316-0.092286 0.5599-0.029486 0.25832 2.3e-4 0.25869 0.017709 0.1586 0.065538 0.26401 0.15133 0.35617 0.1682 0.30092 0.52621 0.84291 0.2698 0.45574 0.21389 0.41199 0.2796 0.64587 0.23324 0.46536 0.29364 0.52194 0.49816 0.82509 0.23047 0.42015 0.32409 0.65886 0.64514 1.4286 0.13299 0.25988 0.12129 0.20978 0.14131 0.21632 0.22163 0.29711 0.21487 0.22905 0.18042 0.14589 0.27888 0.17618 0.30523 0.15714 0.25595 0.10682 0.47684 0.17537 0.25329 0.11494 0.1271 0.07277 0.17839 0.12609 0.17323 0.15946 0.1613 0.20096 0.10746 0.18019 0.063599 0.14319 0.053442 0.17199 0.034645 0.18356 0.021094 0.2889-0.009346 0.19013-0.033149 0.18704-0.041384 0.1331-0.047077 0.10149-0.07666 0.11609-0.057174 0.067481-0.15147 0.1447-0.32664 0.2492-0.10832 0.10959-0.087345 0.11763-0.074277 0.13205-0.087337 0.21723-0.16813 0.60433-0.087397 0.20252-0.1217 0.18286-0.20484 0.21911-0.24414 0.19972-0.49056 0.32662-0.20926 0.15057-0.2708 0.24681-0.24686 0.28691-0.21625 0.31394-0.17772 0.32921-0.30425 0.72236-0.12904 0.23552-0.24802 0.36374-0.17211 0.21732-0.22786 0.25876-0.14734 0.15015-0.20643 0.18638-0.14764 0.11588-0.26596 0.17798-0.2457 0.13609-0.57867 0.26671-0.34759 0.18314-0.29825 0.20484-0.39938 0.30218-0.27452 0.19237-0.25609 0.16233-0.29563 0.16772-0.45668 0.21978-0.38233 0.1446-0.30579 0.079184-0.38701 0.06239-0.42765 0.048613-0.44523 0.032857-0.45507 0.010312-0.40839-0.012404-0.43672-0.027999-0.29027-0.032811-0.44421-0.077931-0.88372-0.17398-0.48554-0.058214-0.44758-0.02702-0.36977-0.004024-0.1732 0.010197-0.11628 0.050815-0.031729-0.061132-0.12626-0.024085-0.1156 0.003179-0.21287 0.027027-0.25131 0.047856-0.37295 0.085058-0.86818 0.22403-2.4521 0.69068-0.44734 0.11392-0.35942 0.072986-0.42844 0.0631-0.34388 0.025121-0.34095-0.009495-0.32422-0.05557-0.38516-0.14922-0.34806-0.22087-0.18675-0.15423-0.24941-0.23182-0.24531-0.25215-0.38766-0.4532-0.214-0.29049-0.1911-0.30112-0.16759-0.32653-0.12427-0.33686-0.055188-0.23155-0.038117-0.23567-0.034608-0.33686-0.010086-0.34035 0.048749-0.8071 0.069624-0.67832 0.089637-0.53885 0.22899-1.0708 0.075209-0.54649 0.030048-0.41354 0.009451-0.29618-0.002743-0.41129-0.030518-0.50459-0.04193-0.34975-0.043237-0.25461-0.10375-0.44866-0.40959-1.4309-0.14028-0.54386-0.10792-0.53972-0.14087-0.86661-0.061311-0.32461-0.096841-0.43311-0.12428-0.4381-0.10195-0.2604-0.071653-0.096011-0.017954-0.032788 0.003322-0.038137 0.026742-0.035954 0.043383-0.029138 0.1252-0.038981 0.25998-0.039569 0.22615-0.047535 0.2134-0.075703 0.2661-0.1329 0.26007-0.14772 0.55762-0.33509 0.41284-0.26775 0.26088-0.20338 0.2872-0.26504 0.15653-0.17182 0.15082-0.19268 0.17372-0.26694 0.16408-0.3173 0.27801-0.62425 0.094212-0.16496 0.11024-0.1567 0.15517-0.17026 0.29495-0.26876 0.22727-0.19436 0.42-0.32145 0.28337-0.26882 0.1696-0.17962 0.50063-0.57453 0.19976-0.25346 0.063377-0.12076 0.031536-0.099202 0.014492-0.10692-0.003771-0.12784-0.020842-0.11155-0.029316-0.081813-0.096414-0.1524-0.055049-0.061795-0.087368-0.082421-0.21007-0.15378-0.24868-0.13521-0.23683-0.10003-0.33395-0.11073-0.22874-0.05862-0.26913-0.053138-0.36565-0.049293-0.31398-0.023249-0.52016-0.013414-1.6866 0.009549-1.1374-0.013166-1.7302-0.06292-0.73199-0.041852-0.31579-0.033241-0.34161-0.060195-0.26712-0.068679-0.9539-0.28153-0.44946-0.079721-0.25564-0.01068-0.37351 0.026923-0.79441 0.14183-0.31606 0.047216-0.15965 0.010337-0.1799-0.010309-0.10048-0.02215-0.085402-0.034026-0.060449-0.037066-0.072157-0.064115-0.064628-0.081655-0.062464-0.11193-0.049798-0.12757-0.044343-0.1722-0.032853-0.28246 0.001472-0.25687 0.02304-0.254 0.16652-0.98286 0.040083-0.32004 0.010787-0.22217-0.006981-0.24883-0.017884-0.1773-0.033098-0.18767-0.041068-0.1498-0.12918-0.29222-0.40816-0.68086-0.20382-0.30305-0.20582-0.27345-0.18275-0.21378-0.16225-0.16481-0.16959-0.14458-0.29579-0.17786-0.19142-0.064404-0.19043-0.036352-0.27136-0.024433-0.36548-0.014418-0.21749 0.004602-0.26021 0.031237-0.71663 0.14857-0.34071 0.028151-0.12897-0.006136-0.30673-0.046151-0.40206-0.10794-1.0526-0.38041-0.47269-0.18425-0.93273-0.40132-0.63428-0.31556-0.48401-0.27708-0.33147-0.21512-0.30199-0.21133-0.45911-0.35784-0.30479-0.28965-0.14948-0.17051-0.15943-0.20984-0.14718-0.22136-0.14245-0.24192-0.12618-0.23851-0.10437-0.22574-0.072172-0.18415-0.067446-0.21487-0.042048-0.1867-0.024837-0.21648 0.011791-0.24197 0.041184-0.16971 0.14965-0.28628 0.22576-0.26218 0.27831-0.24783 1.1709-0.94552 0.6363-0.54154 0.60654-0.53708 0.81395-0.74802 0.32749-0.31301 0.55119-0.55643 0.22774-0.24677 0.40261-0.4807 0.18896-0.25767 0.1337-0.20246 0.21366-0.37569 0.14039-0.30219 0.13936-0.38126 0.073113-0.26737 0.04516-0.2289 0.03937-0.36005 0.006178-0.2602-0.018258-0.37194-0.030149-0.26911-0.041497-0.25901-0.059863-0.25803-0.029143-0.093788-0.093288-0.22453-0.2229-0.34858-0.2562-0.30598-0.51515-0.52253-0.1491-0.18217-0.12893-0.19673-0.068581-0.13253-0.085469-0.21176-0.09186-0.3502-0.036155-0.29558 0.008474-0.23625 0.063059-0.1398-0.047582-0.00564-0.12354 0.022751-0.26429 0.068761-0.4839 0.15234-0.42728 0.15478-0.45016 0.1835-0.45659 0.2108-0.33642 0.17391-0.35398 0.19943-0.37113 0.22592-0.49476 0.32776-0.36171 0.26039-0.39698 0.31062-0.25557 0.21809-0.74808 0.72179-0.31284 0.27121-0.31917 0.21625-0.33975 0.17468-0.27405 0.1018-0.20487 0.053105-0.38856 0.047966-1.0741 0.041454-0.19068 0.018864-0.30538 0.04952-0.23641 0.056875-0.25223 0.078215-0.35268 0.1381-0.29556 0.14171-0.32652 0.19318-0.24248 0.18465-0.21462 0.20987-0.12081 0.14678-0.1006 0.14174-0.37589 0.62709-0.15081 0.23045-0.14021 0.18124-0.14278 0.15033-0.20497 0.16401-0.22318 0.13279-0.38239 0.16438-0.49343 0.15566-0.21811 0.050321-0.29587 0.042085-0.17574 0.003111-0.19016-0.026123-0.19812-0.068242-0.14997-0.0833-0.13576-0.10543-0.12892-0.1408-0.099609-0.16609-0.042301-0.11766-0.02135-0.14707 0.041988-0.25642 0.19334-0.53956 0.039439-0.23548-3.88e-4 -0.22007-0.038984-0.21237-0.082076-0.19238-0.10769-0.14197-0.13564-0.1207-0.26722-0.14767-0.19709-0.050987-0.14605-0.019141-0.4143-0.00976-0.29071 0.014321-0.39084 0.034465-0.88129 0.11398-0.97763 0.15468-5.1983 0.88776-4.8647 0.80237-1.7546 0.31276-0.5844 0.11937-0.58254 0.1331-0.57886 0.15238-0.57252 0.1789-0.5624 0.21469-0.54719 0.25664-0.53676 0.29095-0.52953 0.31369-1.5487 0.9574-0.49085 0.27609-0.46205 0.22367-0.41421 0.15019-0.11573 0.029365-0.3406 0.052085-0.10538 0.003158-0.047799-0.018051-2.4968-1.7624-1.5515-1.0585-1.616-1.0684-4.2847-2.7885-1.0319-0.68884-0.49104-0.33926-0.46446-0.33414-0.42661-0.327-0.3733-0.31699-0.29912-0.30303-0.19714-0.28372-0.058662-0.25732 0.031289-0.10979 0.06987-0.10758 0.11342-0.11147 0.15295-0.11331 0.17582-0.11196 0.99759-0.6286 0.32663-0.19516 0.052398-0.04195 0.010001-0.023098-0.038844-0.020025-0.092163 1.54e-4 -0.60149 0.10412-0.24695 0.014096-0.14337-0.013364-0.13452-0.030307-0.10017-0.034444-0.13863-0.065706-0.16596-0.11128-0.13074-0.12148-0.092964-0.11427-0.087057-0.14428-0.038584-0.085437-0.053369-0.1748-0.02127-0.1677 0.029897-0.30692 0.13075-0.37213 0.12546-0.23191 0.15466-0.22891 0.16944-0.21228 0.93921-1.0301 0.25417-0.30213 0.25744-0.3438 0.086303-0.13396 0.14012-0.25987 0.097481-0.2517 0.051631-0.2301 0.012869-0.2068-0.016567-0.19055-0.051067-0.20918-0.074052-0.17352-0.091597-0.1304-0.11279-0.062017 9.6857-1.3712 0.037815-0.016957 0.047048 0.038665 0.076524 0.13263 0.24701 0.57737 0.083539 0.16223 0.089038 0.14199 0.091658 0.11539 0.114 0.10477 0.12618 0.07147 0.16984 0.036114 0.18475-0.01011 0.18927-0.042822 0.19674-0.066501 0.35309-0.15154 0.49731-0.23644 0.36574-0.16126 0.80326-0.31091 0.35697-0.1161 0.84387-0.21507 0.39174-0.11049 0.6837-0.22193 0.30714-0.12841 0.1387-0.073862 0.12458-0.081388 0.11532-0.097718 0.079312-0.092849 0.072691-0.14523 0.018854-0.16721-0.028687-0.18281-0.064864-0.19524-0.092076-0.20535-0.11223-0.21381-0.69995-1.1729-0.40757-0.74387-0.38077-0.77157-0.16595-0.3806-0.08948-0.23661 0.1014-0.021245 0.16166-0.09001 0.16039-0.1047 0.25223-0.19323 0.2606-0.23102 0.39434-0.3799 0.19789-0.16744 0.32937-0.20664 0.3565-0.12828 0.36968-0.027523 0.084187 0.010149 0.25136 0.063301 0.28208 0.11681 0.16979 0.088425 0.2337 0.1387 0.27195 0.1791 1.0578 0.75301 0.22642 0.14478 0.23332 0.12576 0.15467 0.065774 0.14524 0.046378 0.13404 0.027514 0.15256 0.010639 0.10965-0.008064 0.31845-0.10469 0.30806-0.20244 0.29883-0.27361 0.29007-0.32365 0.28113-0.35658 0.27133-0.37519 0.71158-1.0358 0.21784-0.26946 0.12786-0.13208 0.22276-0.17793 0.099111-0.059633 0.17568-0.078284 0.18411-0.044612 0.22875 0.003516 0.21716 0.070331 0.19292 0.1119 0.23077 0.18389 0.5543 0.54575 0.11801 0.1027 0.12677 0.08958 0.15794 0.070463 0.078442 0.014938 0.10206 0.001068 0.15161-0.032671 0.19689-0.10404 0.128-0.11578 0.10558-0.14735 0.074848-0.17371 0.032637-0.13046 0.017134-0.13902-0.00177-0.17696-0.024384-0.16754-0.047488-0.18557-0.092877-0.25894-0.16589-0.36273-0.14579-0.27835-0.37339-0.64122-0.44657-0.70622-0.97194-1.4661-0.12738-0.19583-0.028585-0.060152 0.10028 0.024574 0.22537 0.14856 0.30662 0.22618 1.1437 0.89177 0.37397 0.26977 0.4237 0.26217 0.42275 0.19599 0.34487 0.10075 0.47575 0.050722 0.4801-0.03255 0.21693-0.037194 0.20299-0.048426 0.2037-0.062573 0.28504-0.11056 0.41612-0.20136 0.36354-0.20597 0.36072-0.22512 0.74418-0.50724 0.45821-0.3342 0.59358-0.46784 0.53844-0.44914 0.44063-0.38636 0.39684-0.37533 0.20823-0.21422 0.28951-0.32834 0.20856-0.26838 0.24156-0.36205 0.19804-0.35507 0.13376-0.28633 0.093012-0.24346 0.064208-0.21536 0.064381-0.31648 0.028632-0.30368 2.73e-4 -0.20194-0.014312-0.19846-0.036038-0.24859-0.096403-0.40717-0.11561-0.35268-0.21866-0.5213-0.11114-0.22438-0.2792-0.49706-0.85972-1.3427-0.23978-0.4069-0.17553-0.34741-0.16599-0.42897-0.073154-0.26472-0.049658-0.26135-0.066469-0.89997-0.065687-0.47972-0.1016-0.49859-0.31733-1.2829-0.14148-0.65057-0.070343-0.48817-0.036067-0.59346-0.10334-1.3505 0.001663-0.40738 0.054021-0.35902 0.11807-0.29256 0.088143-0.14722 0.37352-0.54127 0.20816-0.25784 0.19719-0.17531 0.2547-0.18821 0.24297-0.20635 0.2136-0.27855 0.15068-0.32102 0.16913-0.64493 0.056089-0.15295 0.050189-0.10159 0.080535-0.12176 0.12236-0.12825 0.098145-0.068261 0.054134-0.024294 0.071584-0.008591-0.21295-0.098531-1.096-0.64334-0.4742-0.31396-0.27333-0.21654-0.20125-0.19741-0.37003-0.47717-0.32512-0.32186-0.15438-0.20103-0.1513-0.24029-0.14938-0.26916-0.29715-0.59434-0.2795-0.6053-0.34325-0.82619-0.28555-0.74376-0.96069-2.5787-0.69991-2.0515-0.40324-1.1477-1.5293-4.2254 0.41644-0.1743 2.3757-1.1101 2.2601-1.128 0.90787-0.46591 0.60188-0.33517 0.3757-0.23879 0.24428-0.18999 0.20956-0.20732 0.16528-0.22412 0.10869-0.24144 0.042099-0.23752-0.001448-0.24926-0.029944-0.25742-0.070591-0.3974-0.17625-0.85226-0.070268-0.56424-0.038304-0.22058-0.090072-0.42469-0.20935-0.78802-0.053777-0.26036-0.044176-0.39506-0.015589-0.31062 0.015953-0.29162 0.039757-0.30083 0.1037-0.61325 0.040542-0.30378 0.016914-0.29531-0.048647-0.80857 0.004517-0.19164 0.03125-0.2179 0.05681-0.21086 0.097255-0.25308 0.32741-0.76281 0.079127 0.061806 0.18604 0.033924 0.34631-0.001255 0.418-0.049612 0.44995-0.092024 0.35308-0.094964 0.66234-0.20676 0.28124-0.1061 0.39361-0.17861 0.60941-0.29726 0.33938-0.14061 0.7887-0.28235 0.70998-0.28154 0.31971-0.11127 0.32754-0.090993 0.31215-0.067646 0.76435-0.13583 1.1477-0.12588 0.25146-0.006212 0.21064 0.010767 0.48242 0.052777 0.26336 0.047556 0.2352 0.066177 0.21111 0.077173 0.11 0.050845 0.61905 0.33732 0.19853 0.074653 0.19173 0.014753 0.14384-0.063749 0.094586-0.10684 0.44378-0.85091 0.13922-0.21443 0.19494-0.15771 0.2325-0.069887 0.20402 0.021276 0.20395 0.072223 0.38819 0.17911 0.22384 0.064902 0.10745 0.009762 0.23772-0.016629 0.64332-0.10006 0.26927-0.024623 0.16119-0.004166 0.37799 0.018434 0.19911 0.03427 0.41905 0.10041 0.21423 0.033751 0.13483 6.02e-4 0.22867-0.05385 0.091255-0.045986 0.16717-0.12899 0.075556-0.10229 0.056137-0.18185 0.018374-0.20082 0.035145-0.22164 0.093887-0.23858 0.18571-0.23626 0.092262-0.087153 0.28963-0.23516 0.15606-0.11247 0.32935-0.20161 0.37032-0.18354 1.0848-0.45078 0.9924-0.44987 1.1953-0.50577 1.43-0.63682 0.49797-0.20012 0.8455-0.26544 0.34632-0.13364 0.28498-0.15068 0.15777-0.10577 0.12886-0.10386 0.099332-0.095158 0.10356-0.1169 0.1319-0.19106 0.083089-0.17171 0.042788-0.1212 0.038108-0.14995 0.024862-0.15162 0.016134-0.23909-0.008444-0.26375-0.064867-0.45069-0.1103-0.51526-0.17338-0.71894-0.083637-0.4422-0.033128-0.41047 0.012703-0.40794 0.053868-0.40666 0.095295-0.39763 0.13907-0.38016 0.12412-0.25233 0.14028-0.24568 0.26522-0.41097 0.24432-0.31558 0.26827-0.3072 0.28182-0.30214 0.28884-0.29536 0.314-0.28169 0.4685-0.33144 0.52655-0.29594 0.56379-0.2649 0.57681-0.23505 0.5583-0.20278 1.0034-0.32374 0.95012-0.11031 0.64435-0.089199 1.4705-0.25777 0.44879-0.063929 1.0711-0.12522 0.85573-0.061912 0.20358-0.025227 0.18434-0.046567 0.15825-0.080024 0.12844-0.12596 0.099625-0.16345 0.074969-0.18658 0.058536-0.20616 0.046661-0.22037 0.070047-0.4685 0.046181-0.46356 0.01892-0.47545-0.006081-0.24698-0.039053-0.501-0.063785-0.51065-0.082159-0.52015-0.10045-0.52574-0.12298-0.5172-0.071027-0.24553-0.22928-0.69349-0.07112 0.027959-0.10714-0.014087-0.12032-0.053054-0.11804-0.089487-0.064226-0.0698-0.067019-0.095713-0.055609-0.10767-0.059516-0.187-0.019058-0.14231-0.001905-0.14935 0.01686-0.19069 0.033547-0.19684 0.060832-0.25745 0.076158-0.26117 0.29443-0.87787 0.16055-0.57975 0.17339-0.75848 0.1754-0.88901 0.065461-0.48129 0.018022-0.39164-0.010649-0.18478-0.041716-0.22829-0.082865-0.20486-0.099931-0.14047-0.11782-0.1162-0.13726-0.1036-0.25088-0.14302-0.45449-0.19357-0.91022-0.33758-0.39436-0.1572-0.41298-0.19293-0.33326-0.1877-1.1415-0.75467-0.2514-0.14571-0.84466-0.45705-0.34699-0.22469-0.25337-0.21296-0.10234-0.11319-0.07607-0.12652 0.008462-0.065436-0.11648-0.083122-1.1502-1.0466-0.50222-0.43176-0.52306-0.42417-0.53328-0.39859-0.53768-0.35722-0.53955-0.2998-0.54122-0.22418-0.54438-0.12651-0.55643-0.012028-0.5593 0.082719-0.55985 0.1512-0.55869 0.19992-0.55621 0.2341-0.55251 0.25778-0.54751 0.2739-1.0731 0.57578-1.0288 0.59132-0.95028 0.57662-0.65226 0.409-0.22354 0.12695-0.2326 0.10784-0.22226 0.08198-0.40519 0.10619-0.32157 0.0469-0.1772 0.011278-0.22575-6.73e-4 -0.45662-0.032682-0.30712-0.042282-0.14044-0.030631-0.25282-0.079558-0.19534-0.080847-0.18166-0.09182-0.11282-0.071784-0.14808-0.12548-0.078277-0.087841-0.089212-0.1265-0.055841-0.099122-0.069355-0.15495-0.050787-0.14756-0.079049-0.34591-0.067633-0.46972-0.066576-0.62904-0.066934-0.33492-0.049071-0.14927-0.091343-0.19927-0.11916-0.19662-0.13381-0.17825-0.1573-0.16453-0.17726-0.15763-1.0638-0.89373-0.37876-0.29646-0.30286-0.20878-0.26558-0.15689-0.19356-0.099355-0.25888-0.1149-0.3382-0.12217-0.43977-0.12178-0.43137-0.090581-0.44213-0.07191-0.45029-0.057682-0.65966-0.06482-0.57306-0.041991-1.1546-0.052285-0.5775-0.010041-0.81958 0.008564-0.42613 0.017454-0.93564 0.060219-0.5573 0.013925-0.51653-0.038534-0.49753-0.09929-0.49877-0.14796-0.505-0.1794-0.61857-0.2387-1.487-0.60609-0.62983-0.22489-0.30799-0.095602-0.46693-0.12337-0.40719-0.086811-0.69089-0.11726-0.20706-0.022056-0.49564-1.0439-0.16661-0.37569-0.15409-0.39106-0.16152-0.48907-0.27306-0.88409-0.16458-0.426-0.092178-0.19362-0.13008-0.2321-0.16078-0.23945-0.16284-0.20678-0.1778-0.19753-0.16018-0.15959-0.23055-0.20486-0.34467-0.25922-0.26205-0.1663-0.22151-0.12352-0.92544-0.45398-0.21762-0.12628-0.18409-0.13117-0.1478-0.13793-0.12436-0.17052-0.074013-0.20471 0.006374-0.26092 0.087897-0.27723 0.1472-0.28914 0.18981-0.2978 0.22005-0.3041 0.24125-0.30873 0.79488-0.94444 2.6014-2.9792 2.2466-2.6047 0.056275-0.04793 0.11202-0.13091 0.29446-0.3967 0.14918-0.23157 0.13478-0.24023 0.11094-0.24308 0.078124-0.24215 0.03667-0.19987 0.064969-0.55399 0.034439-0.1578 0.050228-0.16276 0.063993-0.14984 0.10372-0.16472 0.12597-0.12484 0.47063-0.32715 0.58668-0.51104 0.40061-0.3179 0.34763-0.2277 0.24688-0.12771 0.201-0.073702 0.18237-0.033413 0.13827 0.001759 0.23672 0.0492 0.41803 0.1427 0.15796 0.029373 0.17783-0.005755 0.18362-0.048265 0.21157-0.10329 0.22679-0.16291 0.19055-0.17923 0.095149-0.10459 0.27887-0.36804 0.37911-0.58712 0.24773-0.35105 0.19528-0.23183 0.24574-0.23575 0.19139-0.14301 0.22597-0.13935 0.22431-0.1022 0.18477-0.052718 0.19834-0.028008 0.18821-0.007275 0.038199-0.042646 0.051459-0.023924 0.15363-0.032781 0.31234-0.027491 0.20746-0.001456 0.3379 0.020024 0.18354 0.020569 0.66297 0.11513 0.56145 0.13188 0.60879 0.16495 2.0468 0.61701 0.7542 0.21578 0.30048 0.098429 0.20031 0.079382 0.22892 0.11654 0.17309 0.12 0.16014 0.15982 0.094746 0.14067 0.051157 0.11022 0.031513 0.10134 0.020636 0.2214-0.017265 0.15752-0.11702 0.58084-0.012729 0.20125 0.010841 0.15302 0.022772 0.11949 0.056846 0.17099 0.076288 0.15946 0.11482 0.19192 0.099496 0.13671 0.10615 0.12204 0.13352 0.12926 0.17466 0.1387 0.21185 0.13889 0.71974 0.43057 0.2376 0.12222 0.18368 0.065524 0.11897 0.025682 0.15724 0.009645 0.080741-0.007713 0.11733-0.028963 0.10112-0.044406 0.080504-0.05108 0.081246-0.06928 0.066268-0.073115 0.088616-0.14105 0.032184-0.10168 0.0081-0.1397-0.029004-0.3444 0.006655-0.065992 0.030727-0.11806 0.072466-0.14454 0.069876-0.099767 0.11407-0.10957 0.09106-0.046668 0.15224-0.026238 0.087686 0.003742 0.096362 0.017058 0.12991 0.043053 0.21806 0.10764 0.3713 0.25196 0.26251 0.15652 0.11956 0.049538 0.095912 0.026338 0.16105 0.024647 0.23234 0.004089 0.14204-0.027335 0.075316-0.0304 0.084321-0.052699 0.21134-0.20658 0.076755-0.050319 0.051391-0.017817 0.06402-0.006503 0.10595 0.023944 0.069166 0.036834 0.14163 0.11987 0.26328 0.29806 0.18154 0.23961 0.12294 0.22244 0.064706 0.16604 0.052839 0.17099 0.28678 1.0449 0.066788 0.25768 0.095243 0.48954 0.045676 0.12827 0.047382 0.092605 0.096639 0.133 0.095142 0.095992 0.12082 0.097551 0.28908 0.17966 0.27351 0.12454 0.1721 0.053932 0.15844 0.03062 0.17893 0.010903 0.13984-0.010471 0.18549-0.045597 0.13685-0.069837 0.066568-0.061769 0.032807-0.073511 0.36682-0.62457 0.17364-0.24795 0.097299-0.12226 0.11376-0.12716 0.11909-0.11146 0.12668-0.09099 0.18691-0.084333 0.18158-0.041541 0.33696-0.032056 0.27185 0.001723 0.53078 0.031445 0.26872-0.007051 0.20532-0.027947 0.53876-0.14347 0.48885-0.089379 0.15357-0.019825 0.25689-0.005849 0.26142 0.029888 0.15768 0.037016 0.11658 0.04058 0.20824 0.1055 0.29039 0.19422 0.1697 0.096651 0.074864 0.026799 0.10673 0.014174 0.086292-0.004989 0.08181-0.021208 0.07313-0.041499 0.076694-0.087301 0.058666-0.11646 0.11596-0.33003 0.12009-0.29154 0.051562-0.10547 0.033947-0.039952-0.07531-0.026869-0.064108-0.072921-0.047976-0.089776-0.034668-0.092746-0.049849-0.21254-0.022286-0.173-0.00945-0.31944 0.015053-0.22067 0.045193-0.28947 0.077266-0.2918 0.16632-0.40602 0.21711-0.39715 0.48427-0.75978 0.22846-0.3761 0.20265-0.39315 0.19123-0.49581 0.14594-0.52222 0.11287-0.53981 0.13751-0.88463 0.26199-2.1036 0.059598-0.37856 0.11864-0.59402 0.038458-0.15299 0.12672-0.4015 0.15992-0.34644 0.20285-0.27502 0.27323-0.2038 0.33418-0.13915 0.5474-0.16917 0.52346-0.21818 0.14171-0.050193 0.14184-0.038425 0.35225-0.057949 0.46498-0.036249 0.66235-0.022348 0.33607-0.007797 0.49076 0.011515 0.80371 0.044173 0.31997 0.028849 1.0662 0.15824 0.46596 0.052279 0.37212 0.027126 0.45486 0.013338 0.53253-0.008709 0.46624-0.043567 0.18827-0.032532 0.22762-0.054009 0.27881-0.095772 0.13432-0.063582 0.23731-0.1536 0.20521-0.19201 0.1619-0.21016 0.61344-1.0403 0.45503-0.72352 0.53431-0.96663 0.18364-0.30862 0.2303-0.34487 0.083035-0.097946 0.048173-0.024748 0.057802-0.027884 0.3423-0.10275 1.4431-0.36809 0.94102-0.25313 2.3022-0.65966 0.54694-0.12773 0.2778-0.052026 0.36034-0.052252 0.61464-0.055583 0.37182-0.01505 0.37066-0.002333 0.387 0.010488 0.38519 0.024046 0.58752 0.061819 1.7208 0.23561 0.32896 0.02939 0.5266 0.01614 0.35085-0.016481 0.48944-0.059541 0.44942-0.082711 1.4787-0.31353 0.83662-0.20101 0.35654-0.10181 0.55456-0.18193 0.82091-0.3086 0.79835-0.32821 1.043-0.45924 0.71883-0.33589 0.90861-0.4486 0.42593-0.19623 0.7629-0.3102 0.45725-0.16087 0.17749-0.044954 0.048293 0.13389 0.12898 0.28304 0.61668 1.2529 0.4295 0.90566 0.2192 0.42298 0.80634 1.3721 0.1211 0.17801 0.11812 0.14495 0.14483 0.13911 0.1965 0.1356 0.18674 0.094374 0.17115 0.067773 0.28748 0.08804 0.44675 0.099433 0.27254 0.04851 1.6734 0.24926 0.98424 0.17819 0.35008 0.074119 0.4733 0.11712 0.62164 0.19097 0.30179 0.11288 0.28643 0.12294 0.22399 0.11026 0.20837 0.11816 0.33119 0.2398 0.22658 0.24729 0.1026 0.18696 0.040869 0.12945 0.023477 0.15336 0.003565 0.10797-0.011057 0.16665-0.044086 0.24414-0.072099 0.25448-0.11214 0.30621-0.13622 0.31611-0.22025 0.45462-0.42069 0.77771-0.35542 0.61271-0.65617 1.0859-2.3002 3.7234-0.38026 0.58317-0.2852 0.39867-0.36412 0.46735-0.24015 0.27794 0.053488 0.050408 0.15324 0.012374 0.22513-0.017402 0.24327-0.038316 0.54441-0.12793 0.34756-0.10577 0.56126-0.21483 0.35006-0.16969 0.19593-0.1113 0.27858-0.18505 0.21624-0.17006 0.19802-0.17973 0.14994-0.15362 0.1544-0.17543 0.16862-0.21323 0.30858-0.45515 0.18317-0.31377 0.14174-0.26783 0.2188-0.45694 0.27518-0.65375 0.31911-0.89215 0.15999-0.49704 0.46855-1.5678 0.19418-0.57637 0.18319-0.46301 0.1295-0.28114 0.14282-0.27114 0.21806-0.34547 0.19041-0.24564 0.20965-0.23266 0.23053-0.22693 0.24426-0.21805 0.29726-0.2437 0.65892-0.48502 0.44218-0.29582 0.75418-0.47125 2.1083-1.2361 0.76207-0.46555 0.69667-0.46606 0.36227-0.26575 0.38268-0.30708 0.35631-0.32257 0.33441-0.35579 0.28732-0.38137 0.26053-0.46419 0.16757-0.37066 0.28118-0.67796 0.1433-0.31089 0.12848-0.23943 0.16107-0.24842 0.1655-0.20537 0.12941-0.13636 0.22749-0.20442 0.20971-0.15962 0.18322-0.12239 0.24906-0.14586 0.19538-0.10023 0.28434-0.12573 0.20174-0.075481 0.26114-0.081368 0.3131-0.072252 0.24578-0.035303 0.35409-0.017039 0.30991 0.010772 0.28036 0.02457 0.72675 0.10661 0.45565 0.087566 0.76862 0.17017 1.3972 0.34826 0.5885 0.16266 1.3357 0.40344 0.12153 0.024672 0.10864 0.044893 0.2505 0.074613 0.33035 0.072229 0.36811 0.045944 0.37718 3.47e-4 0.36591-0.063451 0.095059-0.030453 0.20405-0.086054 0.26893-0.15227 0.22298-0.15598 0.30805-0.24973 0.42881-0.38989 0.55604-0.54962 0.93342-0.97806 0.95763-1.0323 0.82729-0.92889 1.2429-1.4289 0.76233-0.837 0.53614-0.52726 0.28368-0.24609 0.29175-0.22408 0.32546-0.21717 0.34035-0.20087 0.35254-0.18914 0.36282-0.18095 0.75179-0.34749 0.78234-0.33884 0.808-0.33512 0.79772-0.31795 1.6569-0.63742 0.25532 0.32602 0.29808 0.44479 0.2759 0.49328 0.23744 0.51011 0.13516 0.33826 0.162 0.48074 0.27895 0.92841 0.32757 1.1594 0.1312 0.41129 0.086331 0.23204 0.10903 0.25433 0.13525 0.27549 0.21378 0.38244 0.15139 0.24116 0.20461 0.28587 0.11126 0.13255 0.12577 0.12715 0.13662 0.10839 0.17357 0.092016 0.1468 0.041892 0.15116 0.019489 0.14734 0.002795 0.28541-0.027102 0.63406 0.23965 0.20066 0.092878 0.13129 0.071202 0.28219 0.19176 0.33882 0.29276 0.34781 0.34383 0.26945 0.28191 0.28151 0.33377 0.19352 0.28814 0.12867 0.26248 0.10283 0.27556 0.086285 0.28347 0.22434 0.84058 0.081415 0.26981 0.078439 0.22194 0.089376 0.21056 0.1033 0.19589 0.14312 0.208 0.16372 0.17851 0.17734 0.14642 0.35822 0.26601 0.14234 0.13374 0.12631 0.14443 0.10876 0.14972 0.043401 0.069607 0.082609 0.17336 0.045691 0.18311 0.003033 0.18466-0.025719 0.19048-0.075867 0.39727-0.020005 0.20705 0.009182 0.21468 0.033256 0.20535 0.098564 0.399 0.049504 0.25245 0.019494 0.21093-0.004439 0.19315-0.035294 0.24445-0.039914 0.16798-0.050702 0.17118-0.2007 0.56623-0.097924 0.32947-0.059436 0.32654-0.011845 0.31036 0.024769 0.31215 0.053052 0.3041 0.072946 0.28216 0.083224 0.24028 0.080954 0.1697 0.060429 0.059028 1.6664-0.13584 0.34203-0.037084 0.38009-0.060404 0.39696-0.088376 0.3984-0.10668 1.2363-0.37622 0.50782-0.14036 0.35767-0.076357 0.34894-0.053208 0.50914-0.038918 1.1244 0.009851 1.1096-0.021784 1.7638-0.13552 1.1638-0.064126 0.74516-0.021882 0.454-0.02641 0.61958-0.057095 0.4465-0.06269 0.42468-0.088135 0.28277-0.083083 0.28949-0.11211 0.28948-0.13566 0.44653-0.23854 0.31232-0.18799 0.71493-0.48385 0.34592-0.22151 1.1536-0.71129 0.34478-0.19073 0.32666-0.15462 0.38223-0.15275 1.1101-0.37579 0.384-0.14339 0.26032-0.11473 0.194-0.10268 0.32604-0.22012 0.29374-0.24997 1.0254-1.0148 0.34169-0.30638 0.34481-0.26497 0.42426-0.28503 0.56016-0.33194 0.27988-0.14274 0.36121-0.16547 0.53701-0.21874 0.35762-0.12936 0.33116-0.10272 0.27134-0.068442 0.28274-0.055637 0.31812-0.044752 0.21497-0.019524 0.28373-0.010076 0.19622 0.005478 0.2551 0.023355 0.43846 0.081262 0.36016 0.10202 0.396 0.14816 0.50415 0.22908 0.90466 0.44222 0.48558 0.20325 0.22496 0.074461 0.29728 0.070851 0.24815 0.031844 0.26067 0.003085 0.30381-0.035083 0.18462-0.039275 0.21149-0.059275 0.25314-0.087174 0.31694-0.12711 0.89026-0.39417 0.45097-0.1884 0.45946-0.1702 0.41934-0.13173 0.55574-0.15892 0.37404-0.094339 0.27074-0.054262 0.75018-0.11549 0.27695-0.060755 0.21356-0.062656 0.19731-0.071228 0.28424-0.12754 0.38146-0.22431 1.1788-0.79945 0.28956-0.22793 0.2268-0.2273 0.11772-0.1485 0.10444-0.16096 0.075917-0.14464 0.063088-0.1484 0.1179-0.3967 0.19509-0.92717 0.11015-0.37492 0.14082-0.37244 0.14186-0.30473 0.26362-0.46281 0.1851-0.27233 0.20817-0.26916 0.28372-0.31761 0.362-0.35101 1.1498-1.0632 0.22438-0.19562 0.33823-0.26817 0.31087-0.21028 0.3246-0.18401 0.51564-0.23442 0.50332-0.17865 2.3145-0.68375 0.37005-0.094904 0.48654-0.10576 0.65569-0.10662 0.38358-0.045191 0.63224-0.04406 0.4965-0.003168 1.6805 0.076859 0.87878 0.061948 0.47604 0.068355 0.27211 0.063774 0.12681 0.040797 0.10786 0.045099 0.10623 0.065729 0.03691 0.042466 0.001037 0.041972 0.056004-0.063403 0.15239-0.082253 0.2159-0.082795 0.31477-0.077062 0.35918-0.042844 0.55336-0.040584 0.45903-0.047439 0.47005-0.066471 1.0092-0.18224 0.86395-0.09037 0.33351-0.050953 0.14211-0.031268 0.16026-0.043602 0.29451-0.10234 0.42485-0.18386 0.34386-0.16697 0.47709-0.26838 0.81624-0.4919 0.17632-0.11295 0.16626-0.12139 0.23624-0.19971 0.2539-0.24212 0.41215-0.4594 0.36863-0.4685 0.22984-0.26875 0.11946-0.11925 0.31376-0.2666 0.54408-0.43115 0.82392-0.59524 0.89513-0.60865 1.3293-0.88338 0.18507 0.58236 0.31673 1.0567 0.63096 2.2279 0.16013 0.52499 0.17816 0.50012 0.10117 0.23581 0.1062 0.21082 0.11645 0.19625 0.12682 0.17828 0.13812 0.15552 0.15121 0.1263 0.16702 0.088629 0.21371 0.047432 0.23264 4.7e-4 0.24632-0.033474 0.25605-0.057565 0.26279-0.074217 1.3454-0.45587 0.51714-0.15188 0.24207-0.050184 0.22354-0.02204 0.19667 0.017914 0.15866 0.073458 0.11221 0.14358 0.07258 0.20291 0.044042 0.24804 0.024697 0.28103 0.034623 0.91981 0.021914 0.27782 0.026869 0.17956 0.032731 0.12222 0.03748 0.033518-0.12644 0.17282-0.043474 0.33252 0.033049 0.26426 0.09121 0.2672 0.18236 0.29029 0.25353 0.25069 0.31066 0.19957 0.35526 0.13858 0.47646 0.078819 0.51049-0.00372 0.53213-0.066135 0.54495-0.11195 0.55158-0.1449 0.5539-0.16823 1.1029-0.38034 0.54447-0.20344 1.0431-0.41173 0.97282-0.41015 0.70374-0.31992 0.24142-0.12393 0.28805-0.16484 0.26858-0.17075 0.91299-0.63336 0.26074-0.16855 0.2333-0.13812 0.27517-0.14236 0.2049-0.090085 0.22693-0.074444 0.19001-0.024123 0.090641 0.007684 0.090362 0.024585 0.15513 0.092527 0.14047 0.14574 0.16559 0.24637 0.14653 0.26802 0.50908 1.0068 0.17298 0.3198 0.26346 0.46261 1.0698 1.7867 0.44152 0.78764 0.34451 0.65804 0.23078 0.47261 0.23845 0.52882 0.23904 0.58934 0.16775 0.45879 0.51376 1.5015 0.21416 0.57798 0.20951 0.52656 0.4632 1.0607 0.26165 0.54252 0.075998 0.14139 0.042477 0.05422 0.94436-0.24578 3.0461-0.82922 1.4125-0.38999 0.98014-0.28306 0.93432-0.30306 1.2695-0.47743 0.37167-0.12636 0.31337-0.086308 0.31502-0.059865 0.45221-0.030575 0.45718 0.024544 0.45911 0.068999 0.458 0.10561 0.45971 0.13869 0.45195 0.16654 0.4447 0.19431 0.42796 0.22025 0.40533 0.24777 0.37547 0.27865 0.33674 0.3147 0.27238 0.32792 0.23962 0.35275 0.21546 0.36621 0.57378 1.0723 0.20324 0.31708 0.23656 0.2764 0.28102 0.20026 0.20894 0.073577 0.27479 0.037394 0.29989-0.003446 0.23212-0.02428 0.43404-0.078097 0.26215-0.065161 0.46876-0.15114 0.47919-0.19312 0.21428-0.099578 0.37027-0.19304 0.54506-0.32233 0.53356-0.34806 0.88443-0.6002 0.6089-0.37751 0.57137-0.30768 1.1246-0.51486 0.36971-0.18462 0.39715-0.22339 0.35168-0.22844 0.22042-0.16519 0.18452-0.1534 0.18034-0.16638 0.23631-0.25367 0.14446-0.18933 0.095994-0.15157 0.08069-0.15342 0.054689-0.12542 0.08219-0.25912 0.045617-0.25722 0.015448-0.24867 4.3e-5 -0.1853-0.008912-0.18366-0.030314-0.26692-0.068372-0.32536-0.081437-0.24503-0.066075-0.14624-0.096504-0.16583-0.19234-0.28431-0.11661-0.21497-0.078164-0.23852-0.040797-0.20617-0.0414-0.42993-0.080605-1.4815-0.10501-1.1178-0.082416-0.58564-0.33514-1.8313-0.13799-0.90739-0.082245-0.67007-0.10412-0.98834-0.046568-0.56902-0.030525-0.60328 9.6e-4 -0.56244 0.041207-0.63746 0.077534-0.59438 0.10082-0.47661 0.10532-0.35116 0.13444-0.33418 0.059678-0.12148 0.12453-0.21764 0.14003-0.20256 0.14498-0.17602 0.19421-0.19742 0.26834-0.22369 0.25248-0.17575 0.44576-0.25829 0.46532-0.21979 0.29142-0.11274 0.39885-0.12395 0.38972-0.087767 0.39283-0.053652 0.28795-0.017734 0.82619 0.018029 0.78052 0.057353 0.56671 0.066768 0.57282 0.080783 1.8241 0.27538 1.0016 0.12513 0.98061 0.1035 0.55957 0.041598 0.56928 0.024835" stroke="#bdc660"/>
    </defs>
    <g clip-path="url(#p5d85e1498b)">
     <use y="278.659775" fill="#bdc660" stroke="#bdc660" xlink:href="#m101dfd01c0"/>
    </g>
   </g>
  </g>
 </g>
 <defs>
  <clipPath id="p5d85e1498b">
   <rect x="7.2" y="7.2" width="357.12" height="264.26"/>
  </clipPath>
 </defs>
</svg>
