<?xml version="1.0" encoding="UTF-8"?>
<!DOCTYPE svg  PUBLIC '-//W3C//DTD SVG 1.1//EN'  'http://www.w3.org/Graphics/SVG/1.1/DTD/svg11.dtd'>
<svg width="371.52pt" height="184.79pt" version="1.1" viewBox="0 0 371.52 184.79" xmlns="http://www.w3.org/2000/svg" xmlns:xlink="http://www.w3.org/1999/xlink">
 <metadata>
  <rdf:RDF xmlns:cc="http://creativecommons.org/ns#" xmlns:dc="http://purl.org/dc/elements/1.1/" xmlns:rdf="http://www.w3.org/1999/02/22-rdf-syntax-ns#">
   <cc:Work>
    <dc:type rdf:resource="http://purl.org/dc/dcmitype/StillImage"/>
    <dc:date>2024-07-04T12:10:26.375829</dc:date>
    <dc:format>image/svg+xml</dc:format>
    <dc:creator>
     <cc:Agent>
      <dc:title>Matplotlib v3.7.1, https://matplotlib.org/</dc:title>
     </cc:Agent>
    </dc:creator>
   </cc:Work>
  </rdf:RDF>
 </metadata>
 <defs>
  <style type="text/css">*{stroke-linejoin: round; stroke-linecap: butt}</style>
 </defs>
 <g id="figure_1">
  <g id="patch_1">
   <path d="m0 184.79h371.52v-184.79h-371.52v184.79z" fill="none"/>
  </g>
  <g id="axes_1">
   <g id="PatchCollection_1">
    <defs>
     <path id="m9fdebaf268" d="m261.32-167.53 2.1668 0.84462 1.0817 0.40608 0.59525 0.20306 0.37061 0.11519 1.1523 0.31966 0.28751 0.094628 0.29343 0.1072 0.29182 0.11814 0.44003 0.20379 0.42192 0.23375 0.35629 0.23589 0.32699 0.24796 0.2892 0.24373 0.18092 0.16518 0.20364 0.20466 0.073048 0.0972 0.39916 0.44233 0.4512 0.53985 0.35853 0.44576 0.072449 0.10223 0.062698 0.10671 0.045168 0.1173 0.035034 0.1963 0.020535 0.28297 0.023343 0.55228 0.13306 0.14266 0.22292 0.2599 0.7336 0.89475 0.51728 0.61167 0.24198 0.32098 0.25453 0.40983 0.22256 0.43341 0.2003 0.44742 0.4619 1.1299 0.24335 0.56624 0.13594 0.2925 0.23817 0.46625 0.20269 0.3504 0.11172 0.17462 0.15984 0.22767 0.083556 0.10886 0.19345 0.22171 0.21409 0.18433 0.18033 0.10838 0.1971 0.087229 0.35924 0.11178 0.40302 0.086765 0.28226 0.045999 0.28899 0.036572 0.33151 0.028977 0.32349 0.013998 0.26608 2.77e-4 0.45614-0.020447 0.68348-0.058872 0.39413-0.024145 0.2016-0.001251 0.19341 0.009744 0.23908 0.030104 0.26834 0.061292 0.31623 0.11201 0.57859 0.2428 0.21835 0.063693 0.17938 0.029335 0.6803 0.028168 0.10622 0.014447 0.14698 0.033379 0.10898 0.039051 0.19672 0.11846 0.16251 0.15671 0.085985 0.11621 0.067637 0.13793 0.041689 0.15184 0.019084 0.1361 0.003754 0.10379-0.008267 0.11659-0.073462 0.25105-0.070245 0.12257-0.084514 0.11159-0.11191 0.1197-0.1191 0.10773-0.24134 0.18279-0.22574 0.14445-0.16733 0.095176-0.57962 0.30729-0.10152 0.071022-0.026393 0.025716-0.00451 0.024256 0.031121 0.3264 0.051909 0.33583 0.08646 0.41326 0.06562 0.25276 0.07997 0.26409 0.10622 0.29944 0.1022 0.24724 0.14781 0.3032 0.092252 0.16234 0.17764 0.26574 0.11251 0.14076 0.17833 0.1847 0.070468 0.060912 0.14929 0.10784 0.078201 0.045454 0.19382 0.081947 0.12597 0.033063 0.11 0.017954 0.13623 0.00963 0.20708-0.010207 0.25582-0.05008 0.29081-0.098506 0.32361-0.14868 0.23853-0.12891 0.27019-0.16003 0.86635-0.54585 0.25391-0.14504 0.20818-0.10775 0.2218-0.098754 0.22713-0.073203 0.20563-0.03613 0.20016-0.009257 0.17979 0.01167 0.22444 0.036564 0.21948 0.052326 0.54202 0.15198 0.19965 0.043507 0.1673 0.022788 0.52807 0.040982 0.14626 0.018524 0.19104 0.036465 0.32496 0.093276 0.79951 0.28626 0.34322 0.10798 0.41472 0.10022 0.17061 0.027994 0.20267 0.019691 0.23994 0.002202 0.42048-0.034105 0.34742-0.047622 0.9735-0.16092 0.30121-0.03726 0.2379-0.020447 0.24636-0.007535 0.21266 0.008046 0.72481 0.069613 0.29197 0.011961 0.33696-0.018799 0.7271-0.10669 0.15587-0.010241 0.20182 0.009956 0.20243 0.04662 0.11766 0.043466 0.26153 0.12746 0.21846 0.12784 0.8743 0.55831 0.33071 0.17808 0.33026 0.12756 0.34573 0.049239 0.20185-0.02435 0.13935-0.038021 0.19078-0.075217 0.12756-0.062495 0.18833-0.10658 0.23081-0.15278 0.19654-0.15575 0.28078-0.2493 0.2652-0.25142 0.18501-0.18448 0.18468-0.20405 0.21716-0.26925 0.1474-0.20262 0.14376-0.21568 0.18394-0.2997 0.41515-0.72925 0.15151-0.24965 0.16195-0.23947 0.14306-0.18411 0.18386-0.20354 0.36779-0.3718 0.20434-0.18645 0.15512-0.12318 0.086074-0.056663 0.076823-0.036968 0.094796-0.017665 0.057376 0.008463 0.052065 0.020338 0.11194 0.079739 0.10555 0.12286 0.063635 0.099572 0.079724 0.14762 0.19154 0.39251 0.11239 0.19971 0.077385 0.11113 0.07841 0.09245 0.14932 0.13477 0.24582 0.15592 0.14558 0.071723 0.11812 0.046588 0.13933 0.043419 0.18876 0.04526 0.4423 0.078336 0.15917 0.037502 0.10463 0.038231 0.13775 0.095858 0.036666 0.048987 0.038636 0.082148 0.02725 0.11385 0.01036 0.15917-0.010922 0.20601-0.0552 0.48006-0.03652 0.45474-0.02614 0.21927-0.0426 0.21562-0.047965 0.18227-0.282 0.86307-0.065629 0.22245-0.061949 0.26453-0.037195 0.26236-0.007189 0.19967 0.015888 0.19682 0.03284 0.15993 0.053906 0.1716 0.085578 0.20456 0.14031 0.26957 0.11882 0.19957 0.59048 0.90831 0.19279 0.32032 0.10565 0.1996 0.070799 0.15837 0.040397 0.11162 0.039802 0.15232 0.020349 0.14974 0.004552 0.13084-0.005872 0.14071-0.03265 0.26729-0.067762 0.35033-0.23851 1.0014-0.039541 0.20325-0.023671 0.18091-0.005667 0.14353 0.010424 0.12685 0.022904 0.095778 0.052748 0.10703 0.077843 0.082241 0.091941 0.060505 0.138 0.06128 0.11851 0.038197 0.20942 0.05165 0.93739 0.1936 0.44486 0.12239 0.29438 0.10208 0.27952 0.11412 0.29705 0.1399 0.42918 0.23543 0.37405 0.23331 0.26505 0.18345 0.32474 0.25338 0.31658 0.28129 0.4038 0.40411 0.24232 0.26569 0.39006 0.47087 0.21863 0.29262 0.20305 0.29066 0.10692 0.16492 0.03269 0.066624 0.059209-0.052135 0.090572-0.097598 0.31695-0.36677 0.18314-0.2315 0.15593-0.21943 0.092006-0.14844 0.079169-0.1509 0.089325-0.22238 0.13655-0.43324 0.077227-0.19576 0.10366-0.17104 0.027459-0.032906 0.10651-0.10001 0.096315-0.066461 0.16562-0.082361 0.11427-0.04131 0.27077-0.066559 0.15614-0.024621 0.34716-0.031115 0.20535-0.007485 0.92833 0.001664 0.40479-0.013917 0.1992-0.018457 0.19608-0.029711 0.22206-0.050966 0.217-0.06579 0.21194-0.076854 0.40705-0.17526 0.53872-0.27337 0.26542-0.11714 0.31569-0.10972 0.87536-0.24482 0.4856-0.14936 0.50979-0.18606 0.34513-0.15542 0.26447-0.14904 0.15365-0.10965 0.1248-0.11593 0.073245-0.095892 0.045008-0.097086 0.013035-0.12967-0.031694-0.10642-0.062459-0.057215-0.014061-0.021857-0.003019-0.077618 0.021018-0.14305 0.037085-0.14181 0.054856-0.15605 0.095106-0.20686 0.12448-0.206 0.18463-0.23227 0.21426-0.22154 1.1479-1.0804 0.71364-0.71126 0.19362-0.20567 0.39872-0.4715 0.40229-0.51108 0.32877-0.43434 0.18809-0.2182 0.24042-0.2399 0.51849-0.46945 0.19085-0.19474 0.16238-0.2151 0.10295-0.19492 0.079258-0.20104 0.091548-0.29953 0.17826-0.67607 0.08604-0.24095 0.047396-0.099947 0.095705-0.15082 0.076749-0.087066 0.072228-0.064703 0.091866-0.065222 0.1087-0.05887 0.12553-0.049489 0.19347-0.046701 0.21217-0.018815 0.2542 0.010887 0.21551 0.030558 0.66597 0.1501 0.1531 0.023397 0.216 0.008083 0.21072-0.024664 0.19832-0.060229 0.23451-0.13237 0.57824-0.45589 0.21099-0.14339 0.45009-0.26332 0.25581-0.13457 0.21905-0.089931 0.16491-0.046042 0.16698-0.030638 0.13314-0.014841 0.21263-0.007309 0.17168 0.011097 0.12273 0.025589 0.04691 0.02979 0.067729 0.012397 0.25196 0.10158 1.5858 0.71858 0.5654 0.24826 0.54038 0.21314 0.35183 0.12471 0.34571 0.11111 0.33808 0.096044 0.76663 0.17648 0.35107 0.071077 0.14582 0.021477 0.39124 0.038815 0.15967 0.029883 0.19395 0.063509 0.18245 0.084687 0.16327 0.097091 0.10927 0.086969 0.11317 0.1132 0.66041 0.75373 0.6042 0.72918 0.50176 0.65682 0.68278 0.93642 0.64249 0.83988 0.22789 0.32196 0.33003 0.51533 0.25531 0.46167 0.73743 1.5315 0.4207 0.81437-0.054416 0.83147-0.050708 0.33117-0.1731 0.81405-0.36547 1.493-0.087754 0.43395-0.041813 0.27373-0.061478 0.55592-0.13654 1.5997-0.020454 0.59962-0.005876 0.74967-0.039232 0.60736-0.038346 0.3404-0.12846 0.70734-0.059894 0.25238-0.085836 0.23521-0.094388 0.16961-0.11566 0.15571-0.16411 0.17071-0.18318 0.1445-0.19019 0.10924-0.1994 0.073585-0.15337 0.029223-0.15508 0.011933-0.52983-0.005912-0.17382 0.013593-0.16509 0.040745-0.23292 0.13119-0.1481 0.12884-0.52349 0.56027-0.21101 0.1819-0.21392 0.1404-0.23598 0.12681-0.33497 0.15845-1.0485 0.43704-0.21151 0.095683-0.7555 0.35337-0.23174 0.11797-0.17665 0.1044-0.35484 0.25487-0.25631 0.22116-0.13662 0.1299-0.26386 0.28708-0.14566 0.18267-0.18939 0.28751-0.1507 0.28638-0.046139 0.1097-0.014093 0.068788 0.12341 0.069473 0.32846 0.21455 0.19688 0.14346 0.1633 0.13738 0.1253 0.1295 0.076622 0.097005 0.097265 0.15191 0.086311 0.18795 0.040782 0.14617 0.027542 0.17512 0.026793 0.48499 0.001597 0.17905-0.018763 0.16752-0.029941 0.13637-0.1294 0.41961-0.020271 0.12044-0.003733 0.16722 0.020883 0.13522 0.04011 0.12182 0.036085 0.076187 0.07032 0.11623 0.089703 0.12251 0.37627 0.4552 0.25439 0.28086 0.18259 0.16962 0.22708 0.17858 0.40299 0.2704 0.31042 0.18275 0.29163 0.15587 1.0091 0.50648 0.62349 0.35759 0.30959 0.19288 0.16652 0.1182 0.17855 0.15154 0.097855 0.10329 0.13325 0.18605 0.074376 0.13783 0.069567 0.16154 0.065432 0.19281 0.25626 0.99446 0.082114 0.23432 0.12041 0.26238 0.11889 0.20124 0.25344 0.35408 0.78 0.95351 0.43515 0.49844 0.30265 0.33319 0.17631 0.17914 0.09006 0.071554 0.02104 0.047252-0.014329 0.09095-0.060408 0.14584-0.091824 0.16073-0.1164 0.16935-0.14596 0.18318-0.13227 0.14623-0.12996 0.12887-0.2609 0.22215-0.15222 0.11285-0.46199 0.30242-0.41807 0.24613-0.88286 0.49226-0.30035 0.17524-0.36782 0.23033-0.48537 0.34114-0.4416 0.36393-0.31077 0.32188-0.25441 0.34948-0.17032 0.29673-0.14601 0.30968-0.089868 0.2246-0.14009 0.40799-0.11848 0.41993-0.12489 0.57317-0.069513 0.43956-0.12494 1.0279-0.05689 0.42645-0.045299 0.26802-0.060429 0.28268-0.22608 0.84922-0.099278 0.4251-0.067953 0.39666-0.064198 0.57477-0.027257 0.32572-0.011423 0.28335 0.001821 0.31672 0.013647 0.30781 0.026591 0.34393 0.08904 0.78233 0.024487 0.27964 0.021478 0.49248 0.002233 0.30283-0.011938 0.48101-0.037381 0.40244-0.11153 0.82777-0.025375 0.29581-0.006206 0.2039 0.005923 0.189 0.02264 0.2135 0.046022 0.24484 0.058619 0.2103 0.086436 0.23657 0.12725 0.2969 0.42986 0.9649 0.10612 0.28001 0.076588 0.24243 0.066218 0.25662 0.053178 0.3092 0.01413 0.22326-0.012295 0.22129-0.076825 0.33413-0.13561 0.3294-0.18054 0.32592-0.21443 0.32349-0.25221 0.33842-0.2715 0.33821-1.0918 1.3067-0.34375 0.44038-0.30519 0.4208-0.38026 0.57773-0.22064 0.37515-0.11777 0.21966-0.16417 0.33772-0.12516 0.28803-0.10631 0.27192-0.13176 0.38451-0.1386 0.49173-0.074082 0.32684-0.071228 0.40704-0.050335 0.45232-0.019274 0.45851 0.011049 0.46693 0.047501 0.84899 0.01844 0.48533 0.027858 0.22801 0.028179 0.097472-0.20062 0.15972-0.42944 0.2692-0.1168 0.081287-0.15205 0.12631-0.12398 0.12341-0.16916 0.20235-0.18729 0.27897-0.1685 0.28945-0.12483 0.26332-0.031672 0.078537-0.034346 0.047456-0.086264 0.098866-0.17238 0.161-0.12857 0.099944-0.135 0.08934-0.14159 0.077025-0.19934 0.078672-0.17656 0.039293-0.091807 0.008306-0.141-0.004202-0.30293-0.070593-0.23557-0.10333-0.24792-0.1461-0.18724-0.13174-0.34346-0.28102-0.44551-0.42117-0.7094-0.72237-0.45155-0.44257-0.40187-0.37289-0.26017-0.22621-0.26182-0.20893-0.26508-0.18485-0.27021-0.15223-0.27754-0.10885-0.25402-0.051494-0.25756-0.006822-0.30129 0.046682-0.25893 0.074928-0.24436 0.08934-0.73059 0.29641-0.42998 0.14914-0.17502 0.047373-0.17302 0.036031-0.21111 0.025297-0.20558-0.001098-0.30034-0.055855-0.22392-0.071454-0.28462-0.10311-0.28835-0.090753-0.29715-0.048977-0.30092 0.016107-0.3095 0.074865-0.22567 0.085321-0.22625 0.1083-0.32606 0.19128-0.32523 0.22195-0.32473 0.24163-0.95868 0.73484-0.30164 0.20465-0.27963 0.15511-0.14837 0.058671-0.1337 0.028646-0.11502-0.003918-0.092412-0.031316-0.024725-0.015398-0.03581-0.033463-0.028725-0.079509-0.023729 0.060991-0.018664 0.24435-0.053187 1.6582-0.044372 0.55087-0.037976 0.28061-0.051464 0.27335-0.065956 0.25798-0.084747 0.24758-0.13637 0.29464-0.16564 0.27731-0.19878 0.27492-0.21615 0.26466-1.178 1.3724-1.5122 1.834-0.29243 0.34492-0.19992 0.20793-0.10261 0.093718-0.31208 0.23469-0.34269 0.19855-0.3664 0.16745-0.39261 0.14377-0.44756 0.13431-0.46013 0.10815-0.47027 0.076852-0.40222 0.036253-0.40637 0.012194-0.40878-0.009607-0.40965-0.030601-0.40906-0.052165-0.47877-0.089042-0.47582-0.1115-0.47244-0.12576-1.3848-0.39483-0.44264-0.11516-0.42611-0.093735-0.40278-0.061709-0.37017-0.016168-0.32518 0.046735-0.18872 0.077254-0.15518 0.11206-0.11556 0.14309-0.084808 0.21805-0.036454 0.24876-0.006756 0.14362 0.015138 0.31879 0.057798 0.64842-0.015934 0.2981-0.088346 0.25798-0.094944 0.12269-0.088409 0.077693-0.13257 0.086595-0.14594 0.072728-0.29145 0.10865-0.26272 0.074601-0.31862 0.070867-0.39822 0.065248-1.0267 0.13712-0.66811 0.11235-0.55031 0.11519-0.71112 0.17638-0.39074 0.10922-0.72454 0.22094-2.3912 0.80536-0.44391 0.14133-0.74777 0.21809-0.30994 0.080992-0.59498 0.13827-0.74882 0.14724-0.98277 0.17866-0.73412 0.15002-0.73921 0.18337-0.39112 0.11082-0.77474 0.24325-0.79236 0.27685-0.73511 0.2844-0.43947 0.18946-0.075852 0.035733-0.33918 0.23549-1.9654 1.4405-0.44146 0.30506-0.36846 0.2349-0.39468 0.22556-0.43351 0.21499-0.3459 0.14814-0.39526 0.14668-0.44453 0.1397-0.35174 0.094125-0.32427 0.076063-0.58842 0.11542-0.62378 0.089291-0.4167 0.032849-0.28269 0.011678-0.57499 0.002488-0.82485-0.031594-1.3677-0.077254-0.64228-0.005779-0.31534 0.013715-0.39345 0.038651-0.23632 0.03649-0.27507 0.055342-0.23896 0.05877-0.26176 0.074797-0.40142 0.13367-0.28659 0.10823-0.34676 0.14437-0.35363 0.16261-0.56461 0.29355-0.26929 0.15679-0.31234 0.20148-0.46423 0.34411-0.51559 0.40756-0.4241 0.31112-0.371 0.23422-0.30346 0.15444-0.18022 0.071508-0.25505 0.069383-0.21681 0.026776-0.63739 0.010767-0.23756 0.018505-0.43759 0.063127-0.23525 0.044873-0.51922 0.11781-0.59024 0.15605-0.80827 0.23844-0.32508 0.10412-0.15527 0.05969-0.10146-0.004695-0.049174 0.04047-0.027714 0.042432-0.040594 0.12272-0.016986 0.1744 0.00577 0.1637 0.018688 0.15652 0.03337 0.17801 0.051287 0.20298 0.051443 0.16622 0.12047 0.31788 0.070114 0.15727 0.14613 0.28822 0.24566 0.41357 0.79895 1.1682 0.24846 0.4104 0.12041 0.22281 0.14544 0.30261 0.13045 0.3373 0.07538 0.2961 0.018946 0.17796-0.009131 0.16341-0.030748 0.12248-0.078293 0.1581-0.17248 0.18133-0.11361 0.065262-0.12071 0.036177-0.11755 0.003732-0.11643-0.030314-0.062869-0.032823-0.085845-0.063716-0.15832-0.16888-0.1475-0.20846-0.098041-0.16139-0.23049-0.43553-0.12053-0.25373-0.45631-1.0303-0.20626-0.44531-0.24383-0.49662-0.17346-0.30507-0.10483-0.16026-0.16629-0.2229-0.18452-0.2114-0.23325-0.22409-0.2084-0.16598-0.18495-0.12393-0.21355-0.11904-0.15568-0.071873-0.19873-0.075037-0.24797-0.068657-0.18877-0.034972-0.22147-0.023111-0.13409-0.004888-0.25901 0.008334-0.64382 0.068789-0.44348 0.033076-0.41375 3.81e-4 -0.77321-0.02608-0.41234 0.010685-0.36413 0.041129-0.31962 0.064572-0.40223 0.11631-0.39878 0.14848-0.3771 0.17165-0.245 0.12729-0.59329 0.3465-0.30733 0.19918-0.39731 0.27889-0.53444 0.41218-0.4999 0.41361-0.60608 0.53569-0.55559 0.51609-0.27196 0.26683-0.58692 0.59395-0.81237 0.84018-0.2077 0.19862-0.17342 0.15062-0.14874 0.11418-0.12821 0.084506-0.22812 0.11555-0.15525 0.056018-0.44361 0.11001-0.21012 0.065124-0.086886 0.018274-0.096492-0.003835-0.087876-0.038106-0.075992-0.089842-0.046352-0.1528-0.012429-0.19395 0.013007-0.21918 0.050401-0.3941 0.014804-0.2083-0.004646-0.13674-0.049476-0.24928-0.093014-0.23967-0.18669-0.34607-0.14693-0.29614-0.13793-0.32892-0.11928-0.3497-0.089477-0.35993-0.046191-0.36036 0.01373-0.35117 0.021822-0.11742 0.046922-0.17184 0.1-0.26633 0.26539-0.62275 0.071713-0.22562 0.057464-0.23225 0.031601-0.23189-0.002405-0.199-0.029987-0.19499-0.035541-0.13104-0.096654-0.25035-0.1314-0.23785-0.16717-0.21408-0.16344-0.15214-0.37927-0.29133-0.29866-0.25405-0.2912-0.29495-0.2657-0.3326-0.22036-0.36831-0.11038-0.25427-0.09182-0.26382-0.13808-0.45656-0.11933-0.36094-0.15582-0.35079-0.13574-0.22048-0.14829-0.19204-0.19895-0.20523-0.13186-0.1012-0.050632-0.024045-0.039116-0.001048-0.12853 0.067181-0.3869 0.17205-0.19663 0.062555-0.1342 0.022461-0.15756 0.002362-0.16409-0.019199-0.29444-0.069115-0.40461-0.11957-0.26766-0.062792-0.11709-0.015582-0.19234-0.004857-0.091484 0.005103-0.18632 0.025326-0.1217 0.030022-0.16058 0.058605-0.59358 0.29162-0.32628 0.12727-0.16838 0.048278-0.18164 0.038588-0.63762 0.1047-0.24212 0.059798-0.18765 0.064709-0.1865 0.076991-0.90352 0.41056-0.45605 0.19445-0.27441 0.13149-0.28053 0.17908-0.30596 0.24968-0.244 0.23497-0.19106 0.20585-0.12934 0.15106-0.17791 0.22892-0.15446 0.23672-0.10038 0.19888-0.081536 0.25426-0.022519 0.25197 0.029263 0.25214 0.07157 0.24357 0.094312 0.23168 0.19655 0.44259 0.10525 0.30472 0.06362 0.33451 0.087303 0.77031 0.026229 0.35708-0.00111 0.136-0.022196 0.22356-0.054021 0.22519-0.089272 0.20647-0.099569 0.14776-0.081625 0.091589-0.090904 0.082941-0.20638 0.1409-0.2353 0.11626-0.23562 0.088196-0.30652 0.086428-0.5542 0.11759-0.17037 0.017196-0.18154-0.01485-0.17388-0.048535-0.18281-0.07829-0.22291-0.12258-0.22627-0.14697-0.23997-0.17504-0.57298-0.4617-0.33183-0.25094-0.18926-0.12894-0.26951-0.15902-0.15641-0.074116-0.2181-0.079682-0.45215-0.13708-0.23005-0.08326-0.78872-0.34001-0.30759-0.12554-0.42298-0.15811-0.26011-0.11702-0.26582-0.13762-0.27019-0.15332-0.36293-0.22018-1.1092-0.70393-0.37157-0.22435-0.36222-0.20109-0.34827-0.16666-0.48515-0.19634-0.1577-0.078064-0.29143-0.19366-0.28457-0.23948-0.56902-0.53811-0.29491-0.26043-0.23171-0.1764-0.31106-0.18737-0.17962-0.078099-0.18461-0.053149-0.21398-0.025663-0.22082 0.005536-0.26572 0.037458-0.32096 0.074899-0.35112 0.10451-0.35325 0.12727-0.34723 0.15148-0.33236 0.17889-0.37647 0.24986-0.66445 0.47598-0.40564 0.31776-0.27913 0.24609-0.25929 0.27008-0.80094 0.91729-0.094716 0.14393-0.020431 0.068071-0.028572 0.23357-0.045408 0.60063-0.04284 0.92389-0.028332 0.99833 0.012415 0.65551 0.08966 1.5075 0.048353 0.46038 0.2875 1.8367 0.047378 0.44813 0.051332 0.74898 0.060042 0.4234 0.088646 0.42707 0.11077 0.42926 0.12816 0.43008 0.14236 0.42954 0.15469 0.42751 0.16638 0.42375 0.1786 0.41789 0.16025 0.34396 0.1643 0.32259 0.17852 0.31271 0.19768 0.29956 0.2829 0.35743 0.31128 0.33728 0.32979 0.32285 1.0145 0.92311 0.31729 0.3028 0.28934 0.30453 0.24736 0.3086 0.18768 0.31514 0.10547 0.32441 0.014486 0.20223-0.019388 0.2057-0.060315 0.25104-0.093232 0.25222-0.16639 0.33782-0.19514 0.32118-0.18584 0.26335-0.23038 0.28461-0.19914 0.2121-0.13513 0.12119-0.33489 0.22943-0.37537 0.1983-1.0578 0.51158-0.47628 0.22096-0.87845 0.37809-1.3839 0.56248-0.59952 0.2314-0.69195 0.24441-0.3675 0.11418-0.35694 0.095126-0.34262 0.06988-0.32352 0.036586-0.29835-0.007018-0.26554-0.063674-0.17566-0.092932-0.14832-0.11702-0.1302-0.1322-0.407-0.50498-0.17168-0.17592-0.10933-0.087465-0.19182-0.11394-0.13649-0.056469-0.084289-0.025068-0.17238-0.029625-0.16872-0.007483-0.56293 0.021329-0.24324-0.007001-0.24528-0.033739-0.25518-0.072228-0.25534-0.10046-0.63339-0.27334-0.25663-0.085705-0.32008-0.063221-0.3326-0.005089-0.31781 0.042528-0.14382 0.031288-0.79839 0.21843-0.054063 0.008577-0.035678-0.003451-0.08845 0.041642-0.45402 0.28224-0.20879 0.11744-0.2158 0.10174-0.26504 0.085408-0.25508 0.021865-0.27396-0.073675-0.23765-0.16772-0.19082-0.24114-0.11036-0.22176-0.090087-0.24444-0.18187-0.57008-0.10623-0.29663-0.09049-0.20307-0.13668-0.23363-0.16209-0.2099-0.12767-0.13089-0.13797-0.1139-0.17475-0.10823-0.10444-0.04708-0.19283-0.05656-0.20386-0.029476-0.36711-0.007404-0.67605 0.038002-0.25187 0.006088-0.31397-0.016449-0.25553-0.04025-0.58972-0.11867-0.21161-0.0252-0.21602-0.013318-0.29857-0.001937-0.51411 0.029065-0.35524 0.04371-0.26882 0.054405-0.089837 0.024622-0.2067 0.075563-0.2781 0.14994-0.27829 0.17565-0.33474 0.19432-0.326 0.16694-0.81144 0.36603-0.32496 0.17735-0.42025 0.26067-0.98293 0.64796-0.46344 0.29372-0.57884 0.33387-0.4157 0.20908-0.23627 0.10591-0.40389 0.16023-0.65262 0.23214-0.66786 0.21958-0.47639 0.13802-0.39588 0.09364-1.1777 0.23089-0.54406 0.13173-0.090628 0.036956 0.001393 0.17903-0.020845 0.30658-0.14338 1.359-0.031982 0.38752-0.007568 0.43008 0.024838 0.3637 0.054327 0.37857 0.05349 0.25978 0.091899 0.34484 0.26787 0.87835 0.13675 0.54089 0.10388 0.53547 0.12512 0.77917 0.088009 0.6356 0.061091 0.60882 0.023077 0.35529 0.06173 1.3084 0.035217 0.55432-1.9666 0.78564-4.1589 1.7131-0.94084 0.3949-2.5622 1.1072-1.1269 0.46093-1.1636 0.46034-0.87542 0.32497-0.64948 0.21986-0.31844 0.0985-0.34217 0.09674-0.33307 0.082136-0.3215 0.063902-0.49915 0.078401-0.29941 0.058613-0.21068 0.052963-0.30227 0.10178-0.11226 0.047701-0.33204 0.17299-0.81861 0.48202-1.0259 0.62258-0.62924 0.33188-0.59935 0.27677-0.75786 0.31293-0.39927 0.14522-0.40447 0.1294-0.40628 0.10744-0.40445 0.077134-0.39843 0.035786-0.38742-0.019711-0.36044-0.080183-1.3961-0.49285-0.3341-0.12813-0.61766-0.26956-0.18896-0.071587-0.17731-0.050342-0.22989-0.026503-0.17195 0.025248-0.077963 0.075033 0.025626-0.051915 0.033784-0.10432 0.055236-0.19824 0.072496-0.31379 0.055218-0.30128 0.044527-0.31567 0.045659-0.49471 0.015919-0.35805 0.001019-0.51396-0.032059-0.8678-0.039964-0.67519-0.034282-0.34106-0.058841-0.35237-0.077463-0.26876-0.094718-0.19368-0.15531-0.1672-0.16846-0.077212-0.2351-0.032368-0.22639 0.008719-0.19468 0.024542-0.29386 0.053754-1.349 0.31068-0.98485 0.17946-0.19331 0.042682-0.18464 0.053704-0.18885 0.074569-0.18043 0.087713-0.18261 0.10222-0.15161 0.099438-0.59644 0.44273-0.090718 0.058705-0.21039 0.11555-0.28995 0.11464-0.46006 0.14217-0.2966 0.070992-0.13478 0.016068-0.23302-7.68e-4 -0.19858-0.02297-0.35373-0.075759-0.68741-0.18243-0.28046-0.057882-0.234-0.031321-0.12291-0.008329-0.19968 0.001807-0.13006 0.014622-0.18112 0.04425-0.15822 0.064222-0.13723 0.077594-0.1843 0.13139-0.14637 0.1192-0.13905 0.1299-0.13638 0.15607-0.10042 0.14589-0.074387 0.12506-0.54796 1.0027-0.1692 0.24564-0.4 0.51473-0.27891 0.42029-0.062126 0.079727-0.097302 0.098665-0.18258 0.10475-0.19687 0.014072-0.13436-0.051923-0.1209-0.08708-0.11741-0.11813-0.12854-0.16614-0.11989-0.19272-0.15774-0.32791-0.071327-0.1947-0.055196-0.20426-0.018824-0.098711-0.027907-0.27538 0.013478-0.38205 0.053552-0.33175 0.068027-0.28239 0.098259-0.33269 0.21727-0.66621 0.10926-0.3755 0.07241-0.3257 0.035211-0.24232 0.019488-0.27704-0.001522-0.35658-0.065632-1.524-0.006088-0.65862 0.009459-0.28149 0.026924-0.28756 0.085588-0.61873 0.071677-0.35168 0.10536-0.31354 0.089555-0.18052 0.18465-0.28622 0.09679-0.12405 0.1382-0.15689 0.20269-0.20324 0.21096-0.19046 0.23438-0.19584 0.26105-0.20574 1.0146-0.76055 0.20333-0.16827 0.19643-0.19218 0.12772-0.16174 0.1113-0.21667 0.036344-0.14501 0.011462-0.16801-0.013037-0.15726-0.017468-0.095474-0.026185-0.10259-0.058081-0.16626-0.063824-0.14042-0.068972-0.12665-0.086321-0.13522-0.21594-0.25925-0.22645-0.19172-0.23782-0.17913-0.20704-0.18192-0.13776-0.157-0.072176-0.096655-0.16778-0.262-0.1573-0.29048-0.17259-0.36195-0.24215-0.53779-0.096685-0.17681-0.025513-0.034002-0.022511-0.013508-0.041177-0.014148-0.11092 0.015003-0.21296 0.050475-0.2712 0.078183-0.58777 0.19547-0.48423 0.17789-0.5511 0.21523-1.557 0.64629-0.45822 0.16804-0.44724 0.14676-0.38908 0.11328-0.36408 0.089279-0.35051 0.060463-0.18202 0.015923-0.31278-0.01257-0.22178-0.046249-0.14547-0.050685-0.12747-0.059738-0.21507-0.13408-0.19302-0.15221-0.18753-0.16935-0.65003-0.64078-0.33272-0.3042-0.2659-0.22246-0.243-0.17597-0.25264-0.15158-0.32296-0.14847-0.23325-0.08448-0.34821-0.099767-0.14476-0.031867-0.30648-0.049729-0.36771-0.033883-0.33745-0.011227-0.31996 0.003913-0.32802 0.017005-0.59418 0.059201-0.62063 0.095127-0.69949 0.14003-0.29302 0.0475-0.5791 0.066438-0.32407 0.027604-0.43373 0.024416-0.27998-0.00113-0.24068-0.022428-0.1649-0.032774-0.12715-0.038254-0.13098-0.054974-0.19984-0.12179-0.12265-0.095262-0.22062-0.19957-0.23938-0.26095-0.75344-0.94037-0.22191-0.24157-0.26798-0.24175-0.2944-0.19757-0.24544-0.11351-0.18457-0.064073-0.28464-0.074875-0.25362-0.046942-0.42724-0.041857-0.39245 1.88e-4 -0.30275 0.024931-0.29483 0.042141-0.29877 0.057242-1.5322 0.34709-0.51778 0.097299-0.51878 0.07042-0.27906 0.021194-0.19464 0.005824-0.31804-0.006974-0.44214-0.024611-1.1189-0.032511-0.44313-0.02555-0.92349-0.0747-1.9077-0.16424-0.59154-0.062951-0.16955-0.027172-0.15842-0.036633-0.062523-0.021411-0.059481-0.051151-0.19031 0.16166-0.15642 0.14708-0.083764 0.092054-0.096882 0.13262-0.08606 0.15151-0.11883 0.2355-0.28767 0.61146-0.055242 0.1002-0.066405 0.096455-0.11331 0.13769-0.1298 0.1387-0.65556 0.62806-0.070042-0.07093-0.16832-0.10857-0.23241-0.12205-0.16647-0.0738-0.21623-0.07993-0.29598-0.082375-0.55828-0.1359-0.65648-0.21574-0.20683-0.06121-0.20674-0.048646-0.33134-0.049287-0.8521-0.084565-0.21267-0.027408-0.29973-0.058737-0.83514-0.2001-0.20402-0.039422-0.19377-0.02308-0.16362 0.001717-0.15334 0.027298-0.15048 0.061606-0.13006 0.092337-0.097432 0.1081-0.074245 0.1272-0.061443 0.19012-0.032836 0.20894-0.04473 0.70132-0.02259 0.14292-0.048921 0.18536-0.065214 0.16427-0.057188 0.10996-0.11378 0.1686-0.14778 0.15858-0.097595 0.078974-0.2067 0.12229-0.17602 0.07769-0.60072 0.21473-0.32701 0.12901-0.32643 0.1574-0.33833 0.19949-0.46561 0.32082-0.50939 0.38023-0.45965 0.3687-0.31931 0.29186-0.11733 0.1247-0.10787 0.13196-0.102 0.15418-0.0561 0.11063-0.082068 0.26065-0.03097 0.19088-0.063356 0.75243-0.019858 0.12731-0.050251 0.22939-0.054107 0.18388-0.085029 0.2269-0.12812 0.25753-0.13726 0.22638-0.31326 0.44558-0.26689 0.35082-0.2847 0.33422-0.2609 0.25782-0.27622 0.23225-0.17085 0.13072-0.14805 0.10004-0.10619 0.061552-0.15378 0.073844-0.20763 0.075134-0.20086 0.049558-0.17816 0.026943-0.20761 0.012686-0.28954-0.0143-0.14728-0.021818-0.15519-0.034979-0.22893-0.079972-0.20658-0.10974-0.19303-0.13656-0.146-0.12352-0.22202-0.20798-0.70067-0.68098-0.21553-0.22293-0.21775-0.25948-0.19554-0.2701-0.18406-0.29276-0.14283-0.25262-0.092773-0.18231 0.69248-0.3439 0.30787-0.18279 0.2876-0.21046 0.13591-0.11891 0.21614-0.22602 0.15329-0.19605 0.16043-0.24411 0.26111-0.46977 0.16188-0.33501 0.089353-0.20367 0.14815-0.36972 0.083633-0.2356 0.06169-0.23318 0.033429-0.27428-0.002437-0.27822-0.03139-0.27672-0.1236-0.59362-0.060946-0.35873-0.080593-0.90388 0.003206-0.27082 0.024909-0.19699 0.041383-0.20365 0.099753-0.35263 0.18206-0.5041 0.31296-0.81457 0.088406-0.26922 0.086007-0.36839 0.02555-0.17077 0.014721-0.19539-7.04e-4 -0.15372-0.021654-0.20467-0.073285-0.26118-0.11002-0.22473-0.13991-0.19508-0.17248-0.17148-0.26178-0.17751-0.30069-0.13674-0.32954-0.099502-0.35027-0.063512-0.36438-0.026531-0.40328 0.013442-0.40819 0.04801-0.40861 0.072668-0.40486 0.089298-0.39693 0.099283-0.99928 0.26983-0.38932 0.077516-0.40965 0.055794-0.20774 0.01743-0.46715 0.020267-0.2114 0.021447-0.54264 0.076048-0.23181 0.013072-0.50777-0.032586-0.25174 0.017914-0.44423 0.10104-0.22132 0.040224-0.28713 0.034681-0.18445 0.012326-0.29924-0.003663-0.28481-0.036272-0.22023-0.059104-0.16285-0.069155-0.18535-0.1065-0.1234-0.093914-0.25247-0.23736-0.12687-0.15618-0.071982-0.11624-0.064064-0.12403-0.11555-0.26936-0.3035-0.82841-0.18104-0.45254-0.18712-0.41683-0.41674-0.85775-0.21801-0.49213-0.11007-0.29801-0.094712-0.31834-0.12827-0.37087-0.092314-0.19041-0.10974-0.1905-0.2176-0.31938-0.2597-0.33421-0.49142-0.59732-0.24757-0.29063-0.41896-0.4701-0.77167-0.81756-1.0949-1.0955-0.27151-0.30177-0.17888-0.22615-0.14678-0.20873-0.11877-0.18916-0.42923-0.79508-0.3591-0.5843-0.25256-0.36518-0.17516-0.22282-0.14347-0.16771-0.25855-0.27138-0.25604-0.23318-0.21347-0.17132-0.5544-0.41604-0.34598-0.29843-0.24502-0.25829-0.43718-0.52823-0.079835-0.085788-0.097652-0.086052-0.11774-0.07125-0.10224-0.036328-0.1465-0.020196-0.12914 0.006608-0.21484 0.050083-0.53631 0.20602-0.19081 0.061636-0.25694 0.070493-0.69795 0.14542-0.84069 0.15108-0.76037 0.10664-0.37149 0.035236-0.38209 0.006969-0.44031-0.026045-1.0152-0.10496-0.20552-0.029476-0.26472-0.049999-0.25713-0.062559-0.31895-0.10017-0.17783-0.070781-0.14327-0.067065-0.1304-0.069689-0.19727-0.12378-0.12594-0.091816-0.16142-0.13231-0.57716-0.5427-0.09527-0.071709-0.082055-0.04865-0.11383-0.046037-0.16895-0.020666-0.040237 0.003345-0.085271 0.022337-0.042022 0.025698-0.018697 0.019217-0.024237 0.049319-0.032572-0.016911-0.031281-0.044232-0.01779-0.052123-0.013126-0.11428 0.008849-0.11521 0.036614-0.14312 0.063378-0.14754 0.087053-0.14583 0.1123-0.14677 0.61911-0.69013 0.14678-0.18997 0.083543-0.13264 0.076197-0.15961 0.060545-0.20013 0.036513-0.18918 0.018238-0.19826-0.002816-0.18072-0.018127-0.18546-0.031842-0.19772-0.093393-0.40293-0.070819-0.24666-0.95049-2.9814-0.081124-0.26033-0.084895-0.30969-0.087251-0.3801-0.033437-0.18523-0.026599-0.2248-0.003578-0.21607 0.01257-0.12522 0.027396-0.12037 0.024533-0.067364 0.05212-0.09911 0.067089-0.092376 0.15234-0.15511 0.70274-0.55181 0.17338-0.16037 0.37044-0.41863 0.13973-0.14055 0.23897-0.20238 0.14628-0.10432 0.14894-0.089992 0.17187-0.082819 0.072457-0.027937-0.012099-0.004432-0.10078-0.060386-0.38938-0.29331-0.53816-0.4457-0.75804-0.65488-0.49866-0.41752-0.34959-0.27099-0.44027-0.30809-0.91085-0.56682-0.32898-0.18555-0.32674-0.16762-0.36283-0.16533-0.44342-0.17495-0.67239-0.22669-0.34139-0.10137-0.79697-0.21094-0.7404-0.22761-0.21674-0.052927-0.20938-0.03537-0.27737-0.031564-0.34447-0.024262-0.30415-0.006722-1.8687 0.053917-1.1561-0.005988-0.74341-0.033031-0.37559-0.028413-0.62164-0.064459-0.30355-0.039917-0.58486-0.097731-0.27912-0.059887-0.2366-0.059729-0.80442-0.23427-0.33006-0.078704-0.26878-0.042629-0.68365-0.079478-0.27806-0.05496-0.095179-0.027756-0.19436-0.080377-0.24038-0.17328-0.13914-0.1809-0.13451-0.30544-0.064343-0.24654-0.043039-0.24709-0.031858-0.26033-0.083795-0.92077-0.061765-0.52313-0.065503-0.41524-0.20025-1.0145-0.04314-0.28253-0.021203-0.33605 0.026411-0.33594 0.067206-0.33907 0.097084-0.34251 0.11745-0.34648 0.34441-0.90826 0.24532-0.69433 0.24841-0.80444 0.14996-0.56672 0.14723-0.65509 0.083681-0.49883 0.045708-0.38787 0.020989-0.26279 0.011286-0.41851-0.009805-0.22122-0.020929-0.19095-0.026549-0.15366-0.081333-0.32493-0.16394-0.45952-0.13803-0.30896-0.1519-0.29736-0.22212-0.38202-0.24678-0.36624-0.12446-0.15878-0.061722-0.067322-0.050146-0.033986-0.12123-0.098846-0.27449-0.20025-0.96767-0.66518-0.14827-0.11406-0.16619-0.14226-0.30315-0.30061-0.268-0.31268-0.12017-0.15895-0.26401-0.38406-0.17951-0.22526-0.40582-0.39682-0.69051-0.70669-0.28737-0.27764-0.94041-0.82269-0.32218-0.27053-0.34004-0.26356-0.17944-0.12512-0.18768-0.11734-0.19338-0.10546-0.20053-0.096887-0.41026-0.17288-0.71421-0.25775-0.097169 0.13652-0.70214 0.91712-0.46169 0.5517-0.73209 0.8271-0.25902 0.30487-0.3187 0.39839-0.29505 0.4036-0.20178 0.30057-0.19176 0.30338-0.33654 0.56756-0.28696 0.51105-0.49964 0.93053-0.47822 0.98655-0.18791 0.35214-0.2058 0.34474-0.22168 0.33707-0.23648 0.32868-0.25112 0.31906-0.2665 0.30769-0.31538 0.32804-0.33011 0.31622-1.355 1.2114-0.63713 0.59582-0.30794 0.30552-0.29754 0.31236-0.28378 0.32103-0.26575 0.33205-0.24231 0.34607-0.21651 0.36578-0.19219 0.37827-0.17302 0.38575-0.40803 1.0213-0.090817 0.20724-0.10808 0.21804-0.17335 0.2919-0.25257 0.33326-0.30866 0.32288-0.33197 0.28693-0.27436 0.20318-0.14942 0.099205-0.35052 0.20569-0.24671 0.12679-0.25151 0.11727-0.42605 0.17571-0.40636 0.14248-0.35731 0.10232-0.26769 0.060044-0.1822 0.030804-0.23911 0.023814-0.41546-0.010515-0.41974-0.06483-0.42206-0.106-0.42263-0.13732-0.42151-0.16146-0.41863-0.18058-0.43347-0.20541-1.1479-0.59678-0.35679-0.1775-0.35673-0.15783-0.35826-0.12837-0.36134-0.087589-0.17954-0.024587-0.21022-0.01313-0.3464 0.009996-0.29266 0.031405-1.0599 0.16989-0.40941 0.052176-0.20803 0.017438-0.20101 0.005974-0.14653-0.007678-0.20447-0.043803-0.17848-0.095062-0.10988-0.096812-0.10133-0.11745-0.16547-0.23548-0.41205-0.66416-0.13073-0.19618-0.22461-0.30632-0.59169-0.74874-0.21301-0.29931-0.19598-0.31925-0.16905-0.33826-0.1301-0.32726-0.10662-0.33837-0.075443-0.30596-0.20332-1.1395-0.14996-0.69574-0.10061-0.39435-0.13052-0.44896-0.16652-0.48023-0.14478-0.34866-0.17931-0.37874-0.21886-0.42549-0.27757-0.5091-0.5266-0.8908-0.10791-0.20516-0.097264-0.2173-0.064499-0.1719-0.047398-0.16213-0.031957-0.16853-0.009378-0.17782 0.013141-0.11761 0.031385-0.091602 0.066453-0.071914 0.082451-0.014404 0.083428 0.041692 0.23374 0.2387 0.17433 0.14427 0.19288 0.11056 0.090396 0.031532 0.18021 0.007251 0.049867-0.013084 0.060184-0.024833 0.077805-0.046219 0.10917-0.095122 0.038404-0.044454 0.067069-0.093694 0.067168-0.11314 0.15948-0.32517 0.098952-0.24034 0.090688-0.25688 0.077126-0.26969 0.05206-0.23194 0.11512-0.62151 0.18399-1.295 0.055684-0.50005 0.025011-0.31197 0.016843-0.52763-0.017453-0.38926-0.020342-0.1868-0.045045-0.27588-0.079522-0.32838-0.069054-0.21174-0.084074-0.20989-0.19976-0.38208-0.13907-0.20343-0.1535-0.18142-0.23888-0.21019-0.16246-0.10267-0.15975-0.080889-0.55452-0.23971-0.21861-0.11873-0.11101-0.069978-0.11774-0.082747-0.21292-0.17951-0.098007-0.11131-0.03096-0.10033-0.027356-0.07594 0.013191-0.071985 0.040513-0.13138 0.11244-0.28185 0.90988-2.079 0.12441-0.32496 0.091058-0.27683 0.11047-0.44386 0.055866-0.39707 0.01404-0.30541-0.004868-0.39153-0.054731-1.131-0.00129-0.16094 0.023101-0.41374 0.036801-0.29448 0.08322-0.46476 0.31814-1.3882 0.11052-0.5402 0.05609-0.32506 0.049733-0.42771 0.047404-0.89653 0.02939-0.31368 0.033797-0.22239 0.16177-0.81123 0.042615-0.3317 0.007883-0.34784-0.006412-0.12412-0.057054-0.37791-0.1113-0.36857-0.16376-0.3477-0.18112-0.27872-0.39517-0.55321-0.15422-0.26754-0.16146-0.3554-0.13262-0.37243-0.10799-0.37948-0.085592-0.37667-0.063324-0.36353-0.027347-0.22836-0.007432-0.13121 0.003371-0.15705 0.024979-0.17409 0.082886-0.23709 0.13013-0.21256 0.16751-0.18381 0.19684-0.1494 0.067196-0.03911 0.21162-0.096653 0.22132-0.067058 0.22245-0.036351 0.62162-0.004953 0.073087-0.006199 0.16888-0.032797 0.13481-0.050576 0.12694-0.065807 0.98964-0.64912 0.28543-0.16007 0.30355-0.14217 0.31455-0.11778 0.46684-0.12918 0.43023-0.093935 0.47767-0.088047 0.15016-0.034109 0.13066-0.044599 0.078851-0.036822 0.085295-0.054036 0.057679-0.052068 0.058644-0.082165 0.043098-0.15386-0.010508-0.17508-0.055429-0.18083-0.055709-0.11354-0.070905-0.11054-0.11671-0.13784-0.13944-0.11943-0.24304-0.12385-0.15735-0.034629-0.13889-0.00973-0.18675 0.009969-0.19633 0.032579-0.14264 0.035179-0.28941 0.095509-0.22659 0.0923-0.28415 0.13149-0.28292 0.14317-1.3618 0.75005-0.065317-0.039204-0.074037-0.084042-0.10003-0.16767-0.068009-0.18788-0.020396-0.24137 0.063653-0.2396 0.12703-0.23469 0.17132-0.2392 0.71351-0.88046 0.61763-0.8238 1.0735-1.3898 0.18416-0.22545 0.26499-0.29868 0.13328-0.12653 0.13683-0.092705 0.064559-0.028876 0.076683-0.022297 0.070105-0.008973 0.079368 0.004264 0.073576 0.021702 0.053918 0.030953 0.097522 0.092765 0.085099 0.1136 0.12247 0.19451 0.16329 0.292 0.10372 0.15133 0.084517 0.09402 0.12541 0.10176 0.12647 0.068977 0.1414 0.054993 0.25935 0.071097 0.28661 0.04733 0.22187 0.016951 0.22956-2.42e-4 0.30265-0.029814 0.42024-0.087959 0.24575-0.066148 0.5316-0.16975 0.54411-0.20942 1.0463-0.4714 0.65682-0.27721 0.43096-0.15471 0.33131-0.095805 0.48786-0.10777 0.25327-0.039955 0.26823-0.023562 0.26157 0.003539 0.17062 0.023775 0.13427 0.039889 0.061903 0.032401 0.037686 0.033844 0.013674 0.028706 0.02838-0.093745 0.077743-0.19762 0.11484-0.25286 0.42342-0.80587 0.64585-1.1643 0.18269-0.35248 0.13887-0.29242 0.12171-0.28925 0.15126-0.46524 0.16936-0.8224 0.063954-0.25149 0.092062-0.28139 0.12048-0.28105 0.10481-0.18957 0.11794-0.18201 0.13741-0.17288 0.10977-0.1114 0.09853-0.083747 0.13747-0.091861 0.12886-0.060297 0.15882-0.045023 0.2241-0.025787 0.20728 0.002857 0.2143 0.02303 0.19848 0.036409 0.29295 0.082257 0.21136 0.091966 0.13913 0.084252 0.39093 0.29254 0.2228 0.14129 0.24073 0.12058 0.24991 0.091664 0.2506 0.053207 0.24268 0.003426 0.16857-0.034161 0.17771-0.065412 0.21184-0.10691 0.26532-0.1641 0.11962-0.086877 0.12624-0.118 0.047396-0.074059 0.008464-0.10618-0.042644-0.074159-0.18162-0.15943-0.061942-0.071417-0.01883-0.072583 0.030754-0.066798 0.13037-0.057478 0.20961-0.009919 0.26043 0.048325 0.18313 0.065951 0.29746 0.13877 0.31294 0.17805 0.2921 0.19353 0.29164 0.21018 0.19897 0.15044 0.17392 0.14328 0.17236 0.15512 0.63754 0.63454 0.22948 0.21218 0.25046 0.20985 0.28748 0.21293 0.16302 0.1096 0.37312 0.23052 0.92361 0.53944 0.5356 0.29868 0.17933 0.081075 0.005903 0.038933 0.057827 0.17744 0.06729 0.18441 0.28448 0.69547 0.2603 0.57124 0.56058 1.1564 0.26552 0.59144 0.29697 0.73392 0.5619 1.5122 0.2002 0.48613 0.10305 0.22343 0.10858 0.2115 0.091201 0.15764 0.20377 0.29344 0.18932 0.20724 0.21593 0.16398 0.1023 0.052158 0.21729 0.065775 0.31826 0.034631 0.3701 0.003195 0.50764-0.020169 2.5523-0.16463 0.87106-0.044613 1.6255-0.047068 0.62982-0.002533 0.29733 0.008465 0.3904 0.026992 0.32374 0.04101 0.40573 0.078898 0.38902 0.10619 0.4494 0.16254 0.2065 0.089885 0.45036 0.22986 0.33647 0.20381 0.26689 0.18068 0.36448 0.26987 0.45993 0.3678 0.33592 0.27974 0.97804 0.83973 0.5035 0.42083 0.29903 0.23746 0.33953 0.25439 0.34682 0.24392 0.54587 0.35351 0.46904 0.27578 1.1158 0.59707 0.32299 0.18171 0.33502 0.2095 0.25062 0.17773 0.24796 0.19397 0.34626 0.29766 0.39184 0.37105 0.40027 0.41334 0.39641 0.43853 0.28476 0.33091 1.0096 1.2392 0.17294 0.19831 0.31761 0.31855 0.1674 0.1416 0.18754 0.14046 0.28005 0.18152 0.2408 0.13412 0.27013 0.12883 0.2645 0.10056 0.095529 0.023396 0.048962-0.004159 0.031636-0.008952 0.032666-0.027731 0.15788-0.16929 0.67456-0.78406 1.7498-1.9749 0.93334-1.0872 0.45609-0.49081 0.37359-0.35212 0.27819-0.22526 0.3045-0.20243 0.37408-0.17434 0.21639-0.059094 0.1998-0.032927 0.31604-0.022352 0.2589 0.001429 0.8344 0.057274 0.39636 0.015565 0.32401-0.010883 0.77055-0.091555 0.29208-0.017968 0.35357 0.00688 0.25731 0.02939 0.11234 0.022082 0.8445 0.21416 0.39384 0.1126 0.48454 0.15544 0.5645 0.20917 0.44345 0.17878 0.39265 0.16903 0.53404 0.26301 0.29324 0.16402 0.23872 0.14527 0.69687 0.44995 0.27608 0.14424 0.27718 0.10651 0.30914 0.065897 0.36471 6.2e-5 0.28722-0.046987 0.42363-0.12356 0.29008-0.11218 0.20102-0.088547 0.39771-0.19799 0.24439-0.13463 1.2637-0.7436 0.67467-0.37865 0.82747-0.4288 0.91428-0.43646 0.1345-0.054831 0.32066-0.32767 0.20143-0.23318 0.10215-0.13152 0.17442-0.25977 0.068375-0.12613 0.053919-0.1252 0.035564-0.11995 0.016844-0.11771-0.00468-0.11441-0.024279-0.099632-0.039773-0.097311-0.12095-0.20989-0.30038-0.45617-0.12881-0.2433-0.053124-0.1299-0.042025-0.13084-0.042166-0.18106-0.02942-0.2141-0.005275-0.11751 0.004151-0.12558 0.037132-0.25529 0.079704-0.28074 0.056674-0.15012 0.15143-0.33328 0.47166-0.96033 0.13722-0.31733 0.07758-0.25712 0.039886-0.24534 0.013099-0.21806-0.01268-0.18135-0.086103-0.59156 0.1985-0.38504 0.071538-0.15444 0.090054-0.23185 0.038434-0.12202 0.05854-0.23696 0.034751-0.20965 0.050761-0.5725 0.22914-1.0356 0.081414-0.25241 0.050958-0.10733 0.066463-0.099104 0.081018-0.07383 0.10712-0.045764 0.077915-0.014186 0.14353-0.008185 0.39622-0.003215 0.11269-0.020281 0.048123-0.023173 0.06491-0.053171 0.17922-0.22998 0.039805-0.035777 0.038479-0.022006 0.041943-0.010756 0.073435 0.008669 0.057586 0.021549 0.39739 0.21962 0.23213 0.098711 0.15017 0.051011 0.3052 0.085325 0.26587 0.059351 0.12302 0.014557 0.02524-0.007281 0.036337 0.023583 0.050652 0.050192 0.15544 0.20443 0.33943 0.49533 0.19059 0.25862 0.194 0.2293 0.1936 0.17908 0.11892 0.076954 0.094722 0.039119 0.21482 0.021114 0.21117-0.039001 0.21627-0.051061 0.23073-0.016965 0.1933 0.032615 0.19083 0.058585 0.56771 0.21087 0.41754 0.12203 0.10126 0.021389 0.094747 0.001148 0.073769-0.030858 0.053353-0.055558 0.016162-0.030578 0.033113-0.15947-0.006232-0.2097-0.026909-0.14617-0.075727-0.26264-0.30706-0.82309-0.1068-0.3115-0.088573-0.31548-0.029083-0.13404-0.040731-0.29453-0.014724-0.30099 0.013532-0.40741 0.02752-0.26964 0.058905-0.37894 0.11744-0.55252 0.045218-0.25881 0.027533-0.3091-0.002984-0.10552-0.015718-0.087834-0.034958-0.063786-0.045363-0.025759-0.089518 0.007248-0.10669 0.045965-0.10665 0.06171-0.4409 0.2776-0.23107 0.13371-0.38201 0.19158-0.15003 0.060348-0.2388 0.070021-0.17304 0.026007-0.16161-0.003602-0.10821-0.02466-0.072705-0.031184-0.061902-0.041612-0.11722-0.14927-0.078167-0.20068-0.027224-0.10531-0.042801-0.26159-0.019809-0.2553 0.00325-0.25829 0.034862-0.25022 0.082257-0.24073 0.11447-0.17918 0.14899-0.1589 0.67145-0.52476 0.28952-0.25151 0.29123-0.27544 0.8626-0.85681 0.26939-0.24459 0.12874-0.10211 0.14021-0.096862 0.12576-0.0726 0.13696-0.062366 0.12251-0.0402 0.11698-0.024656 0.14313-0.014367 0.19556 0.002322 0.1659 0.019166 0.15336 0.033203 0.23608 0.088635 0.26238 0.17076 0.24387 0.2311 0.22736 0.27794 0.23984 0.35835 0.22518 0.39199 0.21458 0.41569 0.20708 0.43212 0.4007 0.89412 0.98776 2.2978 0.41165 0.91838 0.21443 0.45366 0.22282 0.44622 0.23393 0.43409 0.24859 0.41497 0.26778 0.38568 0.29255 0.34218 0.32368 0.27981 0.36087 0.19459 0.23052 0.066992 0.38386 0.04417 0.38251-0.015054 0.34786-0.054119 0.26688-0.069364 0.12117-0.055766 0.10825-0.039504 0.30761-0.025657 0.90815-0.031712 0.90085-0.01176 0.48338-0.014124 0.45516-0.034163 0.4138-0.067355 0.3589-0.11557 0.28873-0.18144 0.2118-0.26771 0.14231-0.33509 0.091548-0.38346 0.055397-0.41729 0.030516-0.4402 0.014378-0.45492 0.014868-1.6499 0.020098-0.64167 0.041446-0.59627 0.031362-0.26674 0.043511-0.25457 0.10303-0.36532 0.16525-0.3174 0.25727-0.27069 0.32788-0.22118 0.37852-0.18729 0.39041-0.15665 0.43246-0.14982 0.30001-0.093522 0.30612-0.08811 0.70242-0.18022 1.6408-0.3878 0.43115-0.11467 0.41838-0.12604 0.40057-0.14208 0.19147-0.078869 0.94598-0.46358 0.26423-0.10399 0.26863-0.081517 0.27076-0.056196 0.32253-0.035145 1.3895-0.10779 1.4521-0.13215 2.0068-0.20285 1.218-0.13635 3.4544-0.39684 0.41459-0.27636 2.1268-1.3698 0.90213-0.59579 0.98578-0.68162 0.70104-0.52104 0.54104-0.42675 0.37734-0.30953 0.73721-0.6258 1.0798-0.94624 2.1263-1.8897 0.7084-0.6133 0.36678-0.30686 0.36711-0.29654 0.36695-0.28222 0.36626-0.26219 0.36496-0.23429 0.36291-0.19574 0.29511-0.12246 0.18902-0.057299 0.18631-0.036982 0.29126-0.016631 0.12714 0.004457 0.266 0.028193 0.23119 0.036691 0.23245 0.053024 0.22612 0.073953 0.22426 0.092597 0.46196 0.21892 0.35132 0.14721 0.30276 0.11138 0.31332 0.091707 0.38302 0.069513 0.39472 0.038444 1.2216 0.0711 0.40971 0.020004 0.39357-0.011595 0.25262-0.035991 0.24007-0.055618 0.574-0.17425 0.19519-0.040106 0.26807-0.015788 0.55695 0.015469 0.29461-0.026247 0.30557-0.081496 0.31502-0.13318 0.31904-0.17573 0.31685-0.2103 0.3074-0.2375 0.41239-0.37005 0.29306-0.29828 0.23994-0.29886 0.10296-0.1522 0.080812-0.13541 0.064939-0.13204 0.011615-0.063911 0.44635 0.34526 0.32345 0.28 0.16703 0.16106 0.21971 0.23762 0.22666 0.3069 0.15665 0.32851 0.069599 0.39752-0.027474 0.42048-0.035056 0.18213-0.061499 0.23556-0.1508 0.43504-0.18638 0.43774-0.20856 0.43768-0.65044 1.2777-0.19788 0.41136-0.17401 0.40176-0.13877 0.3887-0.089428 0.37088-0.015161 0.11145-0.009133 0.1644 0.004989 0.11386 0.034737 0.1958 0.095149 0.24571 0.13789 0.20755 0.17016 0.15944 0.19409 0.098676 0.19455 0.029267 0.22129-0.020634 0.095988-0.021377 0.13662-0.045726 0.23884-0.13516 0.44169-0.33632 0.20944-0.11917 0.077229-0.024471 0.078437-0.012218 0.15133 0.020706 0.14408 0.088257 0.03291 0.034393 0.063587 0.10053 0.042109 0.13143 0.015198 0.084373 0.014246 0.18972-0.002789 0.4913 0.017586 0.2345 0.07669 0.63029 0.036966 0.18837 0.054076 0.18364 0.13021 0.26554 0.17897 0.24277 0.04457 0.049574 0.18296 0.17667 0.1831 0.15212 0.21793 0.14885 0.31878 0.19014 0.24654 0.15827 0.42255 0.3368 0.37709 0.32638 0.18638 0.18931 0.14609 0.17897 0.1746 0.24692 0.17104 0.28226 0.085218 0.19345 0.044931 0.14796 0.01664 0.097761 0.004552 0.097964-0.02499 0.15894-0.021926 0.06046-0.06514 0.11717-0.043943 0.056185-0.080211 0.080337-0.16536 0.10427-0.099148 0.021801 0.019306 0.003882 0.28105 0.10314 1.4085 0.619 1.0938 0.43429 0.50514 0.1775 0.7436 0.21808 0.19649 0.044066 0.19613 0.028384 0.19342 0.011612 0.1721-0.0024 0.18079-0.012242 0.16382-0.021923 0.14575-0.030731 0.26729-0.088598 0.2638-0.12079 0.19133-0.10332 0.18719-0.11553 0.2869-0.21275 0.26328-0.23941 0.23293-0.25965 0.19382-0.27523 0.1435-0.28753 0.07533-0.246 0.047965-0.24964 0.034653-0.30241-6.35e-4 -0.2319-0.021541-0.17269-0.035956-0.1525-0.11162-0.30103-0.15086-0.29881-0.18936-0.31982-0.38551-0.62109-0.15833-0.29689-0.10769-0.28355-0.032488-0.26567 0.035304-0.17629 0.11637-0.21663 0.18754-0.1931 0.25064-0.15659 0.2432-0.085736 0.11883-0.022433 0.32399-0.020806 0.40358 0.00168 0.18334-0.006823 0.24755-0.029763 0.19728-0.041688 0.24932-0.07402 0.24673-0.091909 0.58263-0.25898 0.60106-0.29643 0.38102-0.19838 0.73544-0.40782 0.44838-0.28124 1.1886-0.78358 0.99875-0.61736 0.44902-0.2654 0.53717-0.29578 0.33613-0.17021 0.29574-0.13344 0.28854-0.10534 0.26392-0.061596 0.22301-0.014154 0.085765 0.006445 0.2164 0.050078 0.1547 0.064209 0.19941 0.11536 0.12419 0.089503 0.16862 0.1414 0.19417 0.18823 0.44265 0.46822 0.10148 0.092648 0.15231 0.11819 0.090171 0.054269 0.082502 0.033086 0.046208 0.007354 0.044858-0.007034 0.024716-0.015545 0.01824-0.024544 0.013397-0.04457 0.004149-0.045739 0.024253-0.060833 0.1275-0.2385 0.14768-0.22059 0.1271-0.15852 0.1148-0.12171 0.17424-0.1536 0.16353-0.11443 0.12772-0.070365 0.15407-0.066951 0.15644-0.050605 0.14853-0.032866 0.15364-0.021529 0.28688-0.014837 0.72586 0.011645 0.22728-0.015117 0.26018-0.040914 0.14001-0.03445 0.20003-0.068146 0.18722-0.091959 0.15742-0.11209 0.16125-0.17231 0.14694-0.20456 0.61306-0.91546 0.51931-0.8131 0.1876-0.3186 0.17021-0.31896 0.15614-0.34801 0.11173-0.34579 0.053634-0.29608 0.027685-0.32232 0.0139-0.27542 0.029955-0.28689 0.046737-0.18989 0.07333-0.17075 0.15057-0.23321 0.16085-0.1991 0.17994-0.18078 0.37987-0.33914 0.31618-0.25536 0.50064-0.35825 0.53203-0.31828 0.46649-0.25555 0.29396-0.14316 0.2724-0.11768 0.19296-0.073064 0.5531-0.18782 0.30913-0.12674 0.27681-0.13568 0.36809-0.19492 0.82962-0.45989 0.09803-0.038776 0.052636-0.010791 0.029013 0.002553 0.056731 0.076017 0.080719 0.20617 0.098402 0.34687 0.076673 0.34292 0.048543 0.25701 0.11153 0.68614 0.085446 0.42732 0.11107 0.4306 0.32429 1.1329 0.082141 0.35523 0.034233 0.20159 0.033198 0.27691 0.024162 0.39951 0.002173 0.32564-0.007483 0.2345-0.023791 0.32742-0.059547 0.43269-0.1813 0.84782-0.07097 0.42664-0.055125 0.53706-0.038597 0.63903 0.007985 0.26947 0.027401 0.26671 0.03018 0.1866 0.043695 0.18333 0.09839 0.26671 0.13269 0.25853 0.1513 0.23842 0.16944 0.23 0.30693 0.35883 0.19423 0.19964 0.19747 0.18355 0.14786 0.12211 0.27558 0.17488 0.30495 0.11815 0.2567 0.043997 0.26994 0.007518 0.27227-0.019889 0.33922-0.04996 0.28457-0.057787 0.35418-0.090193 1.9415-0.54685 0.68738-0.17738 0.29528-0.067345 0.19897-0.037889 0.16854-0.021399 0.091526-0.002517 0.099969 0.019069 0.025122 0.048401 0.092064-0.040232 0.13714-0.008074 0.29276 0.003186 0.35437 0.021393 0.38443 0.046091 0.69968 0.13775 0.35171 0.061702 0.22982 0.025979 0.34577 0.022168 0.32334 0.009821 0.3603-0.008164 0.35251-0.026015 0.33859-0.038489 0.30642-0.049398 0.24211-0.062694 0.30271-0.11449 0.36158-0.17401 0.23406-0.13279 0.20276-0.12853 0.21735-0.15231 0.31621-0.23926 0.23614-0.16218 0.2752-0.145 0.45816-0.21116 0.19453-0.10775 0.21058-0.14092 0.11689-0.091751 0.16344-0.14757 0.11666-0.11888 0.18041-0.20487 0.13627-0.17207 0.19637-0.28799 0.10217-0.18648 0.24089-0.57193 0.14071-0.26065 0.17122-0.24856 0.19545-0.22716 0.2144-0.19542 0.16568-0.11921 0.3884-0.2586 0.1933-0.15813 0.16218-0.17348 0.096354-0.14478 0.069196-0.16034 0.13312-0.47848 0.069149-0.17199 0.058809-0.10455 0.069156-0.093131 0.085762-0.086766 0.25862-0.1973 0.11993-0.11457 0.045268-0.053428 0.060695-0.091914 0.037273-0.080352 0.032767-0.10539 0.026245-0.14809 0.0074-0.15053-0.016701-0.22874-0.02743-0.14534-0.042313-0.13617-0.050355-0.11337-0.085085-0.14267-0.12771-0.15911-0.13716-0.12625-0.14124-0.09983-0.10063-0.057615-0.20054-0.091007-0.37754-0.13885-0.20265-0.084575-0.24166-0.12442-0.2208-0.13949-0.14285-0.11551-0.17013-0.18135-0.17548-0.23524-0.11189-0.17127-0.096031-0.16609-0.1053-0.20576-0.51079-1.1311-0.2566-0.52166-0.18247-0.33266-0.39442-0.65326-0.23249-0.41325-0.18466-0.36845-0.22137-0.51137-0.16935-0.32619-0.21362-0.36083-0.41663-0.66738-0.13317-0.23825-0.11981-0.282-0.05189-0.20903-0.014021-0.12557-1.82e-4 -0.20482 0.023345-0.20453 0.073068-0.4433 0.021768-0.52506 0.045353-0.25254 0.056772-0.19701 0.055239-0.13851 0.10559-0.20474 0.40882-0.67006 0.13453-0.19562 0.20656-0.24653 0.22238-0.24856 0.21232-0.27176 0.16258-0.27238 0.14452-0.29862 0.14652-0.34506 0.14007-0.35782 0.34922-0.92561 0.15716-0.4547 0.16614-0.53684 0.092566-0.33817 0.059519-0.30993 0.053144-0.41016 0.035184-0.50961 0.004586-0.23125-0.00635-0.34124-0.042851-0.49125-0.044809-0.27875-0.045951-0.21972-0.07585-0.29477-0.08402-0.27783-0.36708-1.0988-0.76049-2.3685-0.0567-0.18819-0.004955-0.058596 0.001667-0.014621 0.078596-0.01267 0.053925 0.008286 0.16543 0.047883 1.2269 0.5073 0.41797 0.19178 0.35198 0.18381 0.9588 0.52676 1.1559 0.68157 0.5465 0.31157 0.33323 0.17538 0.37392 0.17385 0.39168 0.14974 0.24892 0.077205 1.2999 0.34847 0.19054 0.044778 0.34832 0.059412 0.34304 0.027297 0.34661-0.004653 0.29794-0.013853 1.0318-0.072659 0.18141-0.027624 0.1141-0.029097 0.13275-0.049369 0.15246-0.083135 0.10431-0.072554 0.37153-0.30517 0.10486-0.070418 0.19332-0.081408 0.12676-0.019299 0.11272-7.98e-4 0.17143 0.01808 0.58158 0.10942 0.21747 0.0294 1.3963 0.10804 0.1671 0.008647 0.23467-8.69e-4 0.4874-0.046495 0.22154 0.01802 0.079156 0.023411 0.097604 0.042457 0.17003 0.10738 0.1666 0.14062 0.11318 0.11234 0.37887 0.41844 0.11811 0.10128 0.10301 0.067318 0.08811 0.042444 0.10141 0.033458 0.16636 0.023125 0.1204-0.00969 0.055352-0.015406 0.063017-0.034173 0.037748-0.04188 0.017137 0.022712 0.01967 0.073364 0.036468 0.22993 0.13709 1.4109 0.022123 0.070425 0.037369 0.047504 0.064266 0.022104 0.083992-0.002822 0.098107-0.019599 0.45891-0.13177 0.3558-0.069015 0.0803-0.02506 0.058883-0.035782 0.039565-0.045895 0.015333-0.052622-0.011113-0.052612-0.025536-0.045229-0.092975-0.098638-0.22612-0.18558-0.023894-0.02908-0.008769-0.027173 0.011445-0.027967 0.042968-0.031184 0.088241-0.028936 0.1981-0.019096 0.18975 0.013515 0.10492 0.017841 0.21665 0.054806 0.61139 0.19286 0.14534 0.033874 0.027491 2.74e-4 0.10369-0.048265 0.30239-0.17081 0.4635-0.2881 0.25819-0.17264 0.42295-0.30146 0.3486-0.26436 1.5771-1.2565 0.19751-0.13102 0.084774-0.041773 0.17975-0.043597 0.084948 0.006743 0.071018 0.021034 0.053718 0.025947 0.054632 0.03597 0.065746 0.057142 0.086148 0.10033 0.076284 0.11731 0.056579 0.11002 0.20486 0.54603 0.089121 0.20656 0.074741 0.15065 0.1113 0.1936 0.13595 0.19712 0.09833 0.11928 0.12937 0.12939 0.11262 0.088798 0.12521 0.074415 0.22637 0.072151 0.09789 0.006524 0.092347-0.005715 0.099139-0.01689 0.18068-0.053762 0.19705-0.087079 0.15124-0.089059 0.11824-0.085524 0.13517-0.11571 0.12362-0.12335 0.13074-0.14989 0.11405-0.14883 0.14988-0.22797 0.22471-0.37678 0.1602-0.23619 0.59873-0.77072 0.24229-0.33988 0.11438-0.17792 0.1667-0.28835 0.16123-0.32739 0.088184-0.23564 0.052979-0.23148 0.010509-0.10753-0.002601-0.24242-0.10512-1.1496-0.003516-0.15097 0.017973-0.18418 0.072677-0.21757 0.11834-0.18871 0.058216-0.066499 0.11361-0.096191 0.12971-0.07229 0.18962-0.058098 0.32105-0.047166 0.18017-0.008016 0.12908 0.003894 0.24015 0.029072 0.12241 0.022992 0.23693 0.059293 0.59948 0.173 0.78491 0.18392 0.15893 0.018658 0.083131 0.001058 0.14017-0.017321 0.12636-0.038997 0.078294-0.037361 0.10054-0.061649 0.50137-0.32999 0.092185-0.069182 0.091245-0.087086 0.24145-0.3298 0.085286-0.10086 0.10892-0.11287 0.12686-0.10684 0.11225-0.074179 0.87138-0.4567 1.0469-0.62988 0.20386-0.11252 0.26875-0.1322 0.24032-0.098634 0.24702-0.079336 0.17989-0.042831 0.36801-0.054857 0.34392-0.020909 0.16073-0.002096 0.2723 0.005146 0.44176 0.024296 0.5335 0.056095 0.15299 0.025161 0.36009 0.082681 0.33518 0.11671 0.30122 0.15722 0.22029 0.16498 0.10735 0.096006 0.41396 0.40923 0.20672 0.1847 0.21541 0.15631 0.23102 0.12006 0.060319 0.022895 0.20727 0.057882 0.20117 0.035635 0.26008 0.029961 0.47057 0.034428 0.37274 0.037575 0.26413 0.049148 0.26922 0.067696 0.2862 0.085748 0.52255 0.17872 0.32502 0.12005" stroke="#bdc660"/>
    </defs>
    <g clip-path="url(#p7b4098c527)">
     <use y="184.791268" fill="#bdc660" stroke="#bdc660" xlink:href="#m9fdebaf268"/>
    </g>
   </g>
  </g>
 </g>
 <defs>
  <clipPath id="p7b4098c527">
   <rect x="7.2" y="7.2" width="357.12" height="170.39"/>
  </clipPath>
 </defs>
</svg>
