<?xml version="1.0" encoding="UTF-8"?>
<!DOCTYPE svg  PUBLIC '-//W3C//DTD SVG 1.1//EN'  'http://www.w3.org/Graphics/SVG/1.1/DTD/svg11.dtd'>
<svg width="361.74pt" height="280.51pt" version="1.1" viewBox="0 0 361.74 280.51" xmlns="http://www.w3.org/2000/svg" xmlns:xlink="http://www.w3.org/1999/xlink">
 <metadata>
  <rdf:RDF xmlns:cc="http://creativecommons.org/ns#" xmlns:dc="http://purl.org/dc/elements/1.1/" xmlns:rdf="http://www.w3.org/1999/02/22-rdf-syntax-ns#">
   <cc:Work>
    <dc:type rdf:resource="http://purl.org/dc/dcmitype/StillImage"/>
    <dc:date>2024-07-04T12:10:25.491900</dc:date>
    <dc:format>image/svg+xml</dc:format>
    <dc:creator>
     <cc:Agent>
      <dc:title>Matplotlib v3.7.1, https://matplotlib.org/</dc:title>
     </cc:Agent>
    </dc:creator>
   </cc:Work>
  </rdf:RDF>
 </metadata>
 <defs>
  <style type="text/css">*{stroke-linejoin: round; stroke-linecap: butt}</style>
 </defs>
 <g id="figure_1">
  <g id="patch_1">
   <path d="m0 280.51h361.74v-280.51h-361.74v280.51z" fill="none"/>
  </g>
  <g id="axes_1">
   <g id="PatchCollection_1">
    <defs>
     <path id="m7342f622de" d="m192.51-261.08 0.26705 0.13229 0.20946 0.14622 0.44323 0.39261 0.18554 0.14171 0.1218 0.076086 0.13254 0.066883 0.096249 0.039269 0.20754 0.063968 0.3005 0.056868 0.18474 0.022013 1.7458 0.13822 0.68633 0.070445 0.57648 0.073132 0.84695 0.14314 0.57984 0.13136 0.335 0.089822 0.28514 0.084991 0.49481 0.16771 0.59177 0.23119 3.0292 1.3448 0.45569 0.21427 0.2651 0.13949 0.2332 0.1374 0.33742 0.2322 0.27013 0.21581 0.23249 0.20699 0.22868 0.22331 0.21023 0.22304 0.37638 0.44472 0.26857 0.35295 0.28208 0.39786 0.98045 1.4727 0.31392 0.43958 0.23586 0.2992 0.2498 0.28845 0.2707 0.28479 0.21505 0.20908 0.42047 0.37251 0.49209 0.38135 0.30036 0.20172 0.26326 0.15136 0.10844 0.050859 0.11618 0.021021 0.010816 0.009701 0.086996 0.018303 0.5789 0.067404 0.95294 0.075575 1.2445 0.058629 0.59567 0.009145 0.42969-0.004139 0.82826-0.032681 0.88023-0.068293 0.63271-0.068856 1.16-0.15183 0.33941-0.032967 0.34577-0.015305 0.41635 0.015033 0.41261 0.040755 0.3885 0.066357 0.35338 0.098753 0.21483 0.091601 0.26435 0.17528 0.10522 0.095614 0.13593 0.1605 0.1263 0.20534 0.11376 0.27679 0.049797 0.20746 0.018653 0.22721-0.011734 0.18422-0.024662 0.14764-0.055884 0.20998-0.10611 0.27403-0.1364 0.27418-0.2136 0.36238-0.50509 0.76194-0.26686 0.42078-0.21401 0.38922-0.13895 0.31536-0.067518 0.22244-0.022531 0.11146-0.021413 0.25391 0.035577 0.27837 0.078677 0.18842 0.022516 0.034348 0.092764 0.1002 0.10806 0.069469 0.13205 0.049288 0.23352 0.037912 0.30085 0.004924 0.67753-0.031596 0.28229-0.001496 0.26137 0.015109 0.4145 0.064201 0.92088 0.21828 0.52412 0.10488 0.38553 0.056184 0.32564 0.030446 0.40774 0.010158 0.24537-0.012264 0.26685-0.028498 0.27369-0.047519 0.27268-0.079492 0.26116-0.11321 0.27029-0.16458 0.16992-0.1307 0.22768-0.21603 0.21556-0.26865 0.24193-0.42319 0.50577-1.0874 0.27383-0.53005 0.16757-0.29126 0.1408-0.22382 0.26284-0.37351 0.36657-0.45606 0.36345-0.38018 0.4244-0.37736 0.29108-0.23101 0.2982-0.21915 0.37226-0.25341 0.90355-0.5669 0.27477-0.18369 0.39982-0.2988 0.37439-0.31655 0.13417-0.13654 0.095249-0.12354 0.069645-0.11892 0.056363-0.12472 0.14412-0.39508 0.083262-0.16281 0.12852-0.16281 0.084677-0.076414 0.083918-0.060265 0.12136-0.066391 0.1094-0.043533 0.13606-0.037051 0.25446-0.029579 0.16534 0.001237 0.36498 0.038706 0.30253 0.05729 0.37734 0.088597 0.4642 0.13223 0.023039 0.004791 0.026105 0.10082-0.014041 0.075356-0.047497 0.14822-0.1968 0.43739-0.22602 0.40345-0.35957 0.53763-0.73537 0.97635-0.68246 0.96146-0.63925 0.86531-0.24194 0.39326-0.20858 0.43128-0.17584 0.47072-0.28597 0.90558-0.11815 0.41374-0.10095 0.44252-0.39959 2.1578-0.017165 0.17919 1.02e-4 0.18404 0.01334 0.14211 0.026763 0.14546 0.049979 0.1769 0.062726 0.15686 0.073759 0.13531 0.11172 0.15397 0.084587 0.092548 0.12955 0.11045 0.046545 0.031777 0.24318 0.11868 0.30166 0.086551 0.33409 0.061049 2.382 0.33761 0.41738 0.072798 0.52763 0.12098 0.58194 0.1705 0.60028 0.21526 1.0633 0.44167 0.20887 0.1051 0.14986 0.091111 0.12624 0.090625 0.16751 0.14919 0.14827 0.18115 0.13171 0.23761 0.072612 0.19126 0.045108 0.16031 0.035836 0.16713 0.035467 0.23898 0.030623 0.46226-0.008682 0.57444-0.049625 0.63481-0.003819 0.038109 0.031415 0.13533 0.12619 0.34555 0.13935 0.28999 0.30518 0.54098 0.20302 0.39489 0.13435 0.34903 0.10537 0.36652 0.052259 0.22514 0.069146 0.3696 0.041584 0.36359 0.009206 0.24834-0.008015 0.70743 0.011064 0.17878 0.045758 0.28028 0.079053 0.26008 0.076763 0.17234 0.067963 0.11888 0.067542 0.097829 0.10421 0.12399 0.28314 0.23222 0.30352 0.1344 0.21246 0.039247 0.22702-1.47e-4 0.23645-0.034726 0.25233-0.064919 0.25913-0.087949 0.34788-0.14035 1.0548-0.46825 0.45929-0.17717 0.46794-0.13757 0.2651-0.053179 0.32776-0.043651 0.32738-0.025151 1.1733-0.047395 0.40064-0.045249 0.99929-0.20964 0.4002-0.035368 0.40542 0.010089 0.45694 0.065811 0.43073 0.1245 0.26079 0.1167 0.23404 0.14678 0.25746 0.23272 0.40603 0.47413 0.22989 0.24418 0.2507 0.20172 0.27338 0.13536 0.28853 0.059762 0.20905-0.009888 0.15284-0.037787 0.13103-0.051101 0.14418-0.072907 0.31329-0.19833 0.73675-0.50125 0.50271-0.2896 0.26443-0.12979 0.54418-0.23631 0.40847-0.19679 1.3454-0.72794 0.50861-0.26325 0.48487-0.23202 0.68837-0.2946 0.85893-0.3328 2.2275-0.82787 1.7289-0.6241 0.52545-0.18543 0.51008-0.16718 0.49061-0.13564 0.46697-0.08768 0.43364-0.017658 0.3899 0.079704 0.16777 0.08044 0.23573 0.16457 0.2402 0.2175 0.12812 0.13094 0.33812 0.37322 0.75433 0.86537 0.50978 0.62249 0.30205 0.42696 0.23732 0.38854 0.19563 0.3612 0.62882 1.241 0.12003 0.21387 0.23872 0.38868 0.29543 0.42394 0.33014 0.41743 0.34914 0.3804 0.2472 0.21867 0.13826 0.099175 0.1447 0.084193 0.17802 0.076632 0.17379 0.053633 0.24672 0.054023 0.5646 0.095996 0.31399 0.075208 0.31587 0.11194 0.54101 0.23908 0.95714 0.45677 0.38433 0.16459 0.30723 0.10708 0.42104 0.092403 0.42161 0.051083 0.28083 0.021367 0.31024 0.006355 0.30951-0.027878 0.15291-0.032737 0.19568-0.064234 0.18395-0.085036 0.13376-0.075232 0.21182-0.13646 0.21929-0.15819 1.0752-0.84321 0.26842-0.22526 0.32037-0.29027 0.26966-0.284 0.14364-0.17464 0.18576-0.25909 0.14286-0.24224 0.11932-0.27088 0.051515-0.16669 0.043166-0.19478 0.044555-0.34449 0.018986-0.43124-0.016866-0.57295-0.032827-0.4118-0.2084-1.7198-0.05337-0.5742-0.013573-0.28958 0.006635-0.48679 0.024876-0.2816 0.097347-0.49916 0.10778-0.31113 0.071803-0.16422 0.22367-0.41 0.22215-0.3078 0.20028-0.21865 0.21773-0.18824 0.10246-0.072902 0.25738-0.14328 0.22622-0.08035 0.23489-0.039471 0.23751 0.004091 0.24318 0.041677 0.29453 0.089409 0.30111 0.12372 0.37152 0.18362 0.37856 0.21266 0.38345 0.23502 0.47158 0.30912 0.47466 0.32677 0.95463 0.68478 3.4776 2.5632 2.0592 1.5055 6.2701 4.5378-2.2059 2.5574-2.5542 2.9251-0.78046 0.9273-0.23687 0.30312-0.21606 0.29858-0.18637 0.2924-0.14453 0.2839-0.086302 0.2722-0.006258 0.25618 0.07267 0.20099 0.12211 0.16743 0.14511 0.13543 0.18075 0.12879 0.21367 0.12399 0.90864 0.44574 0.21749 0.12128 0.25729 0.16328 0.33842 0.25451 0.22636 0.20114 0.15727 0.15669 0.17457 0.19394 0.15989 0.20302 0.15786 0.2351 0.12772 0.22788 0.090506 0.19011 0.1616 0.41827 0.26811 0.86805 0.15859 0.4802 0.15129 0.38396 0.16359 0.36888 0.48664 1.025 0.2033 0.021655 0.67836 0.11514 0.3998 0.085235 0.45846 0.12114 0.3024 0.093867 0.6184 0.22081 1.46 0.59509 0.60735 0.23437 0.49584 0.17614 0.48972 0.14528 0.4885 0.097488 0.50716 0.037835 0.54718-0.013672 0.91866-0.059127 0.4184-0.017137 0.80471-0.008408 0.56702 0.009858 1.1337 0.051337 0.56266 0.041229 0.64769 0.063643 0.44212 0.056636 0.43411 0.070605 0.42355 0.088937 0.43179 0.11958 0.33206 0.11995 0.25418 0.11282 0.19005 0.097552 0.26076 0.15404 0.29736 0.20499 0.37189 0.29108 1.0445 0.87751 0.17405 0.15477 0.15444 0.16154 0.13139 0.17501 0.117 0.19305 0.089686 0.19566 0.04818 0.14656 0.065719 0.32885 0.065368 0.61762 0.066406 0.4612 0.077615 0.33963 0.049865 0.14489 0.068097 0.15214 0.054828 0.097323 0.087593 0.12421 0.076857 0.086247 0.14539 0.1232 0.11077 0.070482 0.17836 0.090153 0.19179 0.07938 0.24823 0.078115 0.13789 0.030075 0.30155 0.041514 0.44833 0.03209 0.22165 6.6e-4 0.17398-0.011073 0.31574-0.046049 0.39784-0.10426 0.21823-0.080493 0.22838-0.10589 0.21949-0.12464 0.64042-0.40158 0.93304-0.56616 1.0101-0.58059 1.0536-0.56533 0.53758-0.26893 0.54249-0.2531 0.54612-0.22986 0.54856-0.19629 0.54969-0.14846 0.54916-0.081219 0.54633 0.01181 0.53451 0.12422 0.5314 0.22011 0.52976 0.29436 0.52792 0.35073 0.5236 0.39135 0.51357 0.41647 0.49311 0.42392 1.1294 1.0276 0.11437 0.081613-0.008309 0.064249 0.07469 0.12423 0.10048 0.11114 0.24877 0.20909 0.34069 0.22061 0.82934 0.44876 0.24684 0.14307 1.1208 0.74097 0.32721 0.18429 0.40548 0.18943 0.38721 0.15435 0.8937 0.33145 0.44624 0.19006 0.24633 0.14042 0.13476 0.10172 0.11568 0.1141 0.098118 0.13792 0.081361 0.20114 0.040959 0.22414 0.010456 0.18142-0.017695 0.38453-0.064273 0.47256-0.17222 0.87287-0.17025 0.74472-0.15764 0.56923-0.28909 0.86194-0.074775 0.25643-0.059729 0.25278-0.032938 0.19327-0.016554 0.18723 0.00187 0.14664 0.018712 0.13973 0.058437 0.18361 0.054599 0.10572 0.065803 0.093977 0.063061 0.068533 0.11589 0.087864 0.11814 0.052091 0.1052 0.013831 0.069829-0.027452 0.22512 0.68091 0.069738 0.24108 0.12075 0.50782 0.098626 0.5162 0.080668 0.51071 0.062628 0.50138 0.038345 0.49191 0.00597 0.24249-0.018577 0.46682-0.045343 0.45514-0.068776 0.46-0.045815 0.21637-0.057473 0.20241-0.073609 0.1832-0.097817 0.16048-0.12611 0.12367-0.15538 0.078572-0.18099 0.045723-0.19988 0.024769-0.8402 0.060788-1.0517 0.12294-0.44064 0.062769-1.4438 0.25309-0.63266 0.08758-0.93288 0.10831-0.98516 0.31786-0.54817 0.1991-0.56635 0.23079-0.55356 0.26009-0.517 0.29057-0.46 0.32543-0.3083 0.27658-0.2836 0.29-0.27671 0.29665-0.2634 0.30162-0.23989 0.30986-0.2604 0.40351-0.13774 0.24122-0.12186 0.24775-0.13655 0.37326-0.093565 0.39042-0.052891 0.39928-0.012473 0.40054 0.032527 0.40302 0.08212 0.43418 0.17023 0.7059 0.1083 0.50591 0.06369 0.44251 0.008291 0.25896-0.015841 0.23475-0.024411 0.14887-0.037417 0.14723-0.042011 0.119-0.081581 0.16859-0.12951 0.18759-0.10168 0.11478-0.09753 0.093432-0.12652 0.10197-0.15491 0.10385-0.27981 0.14794-0.34003 0.13121-0.83016 0.26062-0.48893 0.19649-1.404 0.62527-1.1737 0.49659-0.9744 0.44171-1.0651 0.4426-0.3636 0.18021-0.32338 0.19796-0.15323 0.11043-0.28438 0.23089-0.090588 0.085571-0.18234 0.23198-0.092183 0.23425-0.034507 0.21762-0.018041 0.19718-0.055118 0.17855-0.074186 0.10043-0.16413 0.12665-0.089599 0.045152-0.22452 0.052873-0.13238-5.91e-4 -0.21035-0.033139-0.41144-0.098584-0.1955-0.033648-0.37113-0.018099-0.15826 0.00409-0.26439 0.024177-0.63165 0.09824-0.2334 0.016327-0.1055-0.009585-0.21978-0.063724-0.38115-0.17586-0.20024-0.070913-0.20032-0.02089-0.22828 0.068619-0.1914 0.15484-0.1367 0.21054-0.43573 0.83547-0.09287 0.10491-0.14123 0.062593-0.18826-0.014485-0.19492-0.073299-0.60782-0.3312-0.108-0.049922-0.20728-0.075773-0.23093-0.064976-0.25858-0.046693-0.47366-0.051819-0.20682-0.010572-0.2469 0.006099-1.1268 0.1236-0.75048 0.13337-0.30649 0.066419-0.3216 0.089341-0.31391 0.10926-0.6971 0.27643-0.77438 0.27722-0.33322 0.13806-0.59836 0.29186-0.38647 0.17537-0.27613 0.10417-0.65032 0.20301-0.34667 0.093241-0.44178 0.090354-0.41042 0.048711-0.34003 0.001232-0.18266-0.033308-0.07769-0.060684-0.32146 0.74897-0.095491 0.24849-0.055779 0.20704-0.030683 0.21395-0.004435 0.18816 0.047764 0.7939-0.016607 0.28995-0.039806 0.29827-0.10182 0.60212-0.039036 0.29537-0.015664 0.28633 0.015307 0.30499 0.043374 0.38789 0.052802 0.25563 0.20555 0.77372 0.088437 0.41698 0.037609 0.21658 0.068993 0.554 0.17306 0.83679 0.06931 0.39019 0.0294 0.25275 0.001422 0.24473-0.041335 0.23321-0.10672 0.23706-0.16228 0.22005-0.20576 0.20355-0.23985 0.18654-0.36888 0.23446-0.59096 0.32908-0.8914 0.45746-2.2191 1.1075-2.3326 1.09-0.40889 0.17113 1.5015 4.1487 0.39592 1.1269 0.68721 2.0143 0.94326 2.5319 0.28037 0.73026 0.33702 0.8112 0.27443 0.59431 0.29176 0.58355 0.14666 0.26428 0.14855 0.23593 0.15158 0.19738 0.31922 0.31602 0.36331 0.46851 0.1976 0.19383 0.26837 0.21261 0.4656 0.30826 1.0761 0.63167 0.20908 0.096743-0.070286 0.008435-0.053151 0.023853-0.096364 0.067023-0.12014 0.12592-0.079075 0.11956-0.049277 0.099746-0.055072 0.15018-0.16606 0.63323-0.14794 0.3152-0.20972 0.2735-0.23856 0.2026-0.25008 0.1848-0.19361 0.17213-0.20438 0.25316-0.36674 0.53144-0.086543 0.14455-0.11593 0.28725-0.053042 0.3525-0.001632 0.39999 0.10146 1.326 0.035413 0.58269 0.069067 0.47931 0.13891 0.63877 0.31157 1.2596 0.099752 0.48955 0.064495 0.47102 0.065263 0.88364 0.048757 0.25661 0.071827 0.25992 0.16297 0.42118 0.17235 0.3411 0.23544 0.39952 0.84412 1.3183 0.27414 0.48804 0.10913 0.22031 0.2147 0.51184 0.11351 0.34628 0.094654 0.39979 0.035384 0.24408 0.014052 0.19485-2.68e-4 0.19828-0.028112 0.29818-0.063213 0.31074-0.063043 0.21145-0.091324 0.23904-0.13134 0.28113-0.19445 0.34863-0.23718 0.35548-0.20478 0.26351-0.28426 0.32239-0.20445 0.21033-0.38964 0.36852-0.43263 0.37935-0.52867 0.44099-0.58281 0.45935-0.4499 0.32814-0.73068 0.49804-0.35417 0.22104-0.35694 0.20223-0.40857 0.19771-0.27987 0.10856-0.2 0.061437-0.19931 0.047548-0.21299 0.03652-0.47138 0.031959-0.46711-0.049802-0.33861-0.098924-0.41508-0.19243-0.41601-0.25742-0.36719-0.26487-1.123-0.87558-0.30105-0.22208-0.22128-0.14587-0.098458-0.024128 0.028066 0.05906 0.12507 0.19228 0.9543 1.4395 0.43846 0.6934 0.36661 0.62959 0.14315 0.2733 0.16288 0.35615 0.091192 0.25424 0.046627 0.1822 0.023941 0.1645 0.001738 0.17375-0.016823 0.1365-0.032045 0.1281-0.073489 0.17056-0.10367 0.14468-0.12568 0.11368-0.19332 0.10215-0.14886 0.032078-0.10021-0.001049-0.07702-0.014667-0.15508-0.069184-0.12447-0.087954-0.11587-0.10084-0.54424-0.53585-0.22658-0.18055-0.18942-0.10987-0.21321-0.069054-0.2246-0.003453-0.18077 0.043802-0.1725 0.076864-0.097312 0.058551-0.21872 0.1747-0.12554 0.12969-0.21389 0.26457-0.69867 1.017-0.26641 0.36838-0.27603 0.35011-0.28481 0.31777-0.29341 0.26865-0.30248 0.19877-0.31268 0.10279-0.10766 0.007917-0.14979-0.010446-0.13161-0.027015-0.1426-0.045536-0.15187-0.06458-0.22909-0.12348-0.22231-0.14215-1.0386-0.73935-0.26702-0.17585-0.22946-0.13618-0.16671-0.086821-0.27696-0.11469-0.2468-0.062153-0.082659-0.009965-0.36298 0.027024-0.35003 0.12596-0.3234 0.20289-0.1943 0.1644-0.38719 0.37301-0.25587 0.22683-0.24766 0.18973-0.15748 0.1028-0.15872 0.088376-0.099563 0.02086 0.087856 0.23232 0.16294 0.37369 0.37386 0.75757 0.40017 0.73037 0.68725 1.1516 0.11019 0.20993 0.090404 0.20162 0.063687 0.1917 0.028167 0.17949-0.018512 0.16418-0.071372 0.1426-0.077873 0.091165-0.11322 0.095944-0.12232 0.079911-0.13618 0.072522-0.30156 0.12608-0.6713 0.2179-0.38463 0.10848-0.82856 0.21117-0.35049 0.114-0.78869 0.30527-0.3591 0.15834-0.48828 0.23215-0.34668 0.14879-0.19317 0.065294-0.18584 0.042045-0.1814 0.009927-0.16676-0.035459-0.12389-0.070173-0.11193-0.10287-0.089995-0.1133-0.087422-0.13942-0.082023-0.15929-0.24253-0.56689-0.075136-0.13022-0.046194-0.037964-0.037129 0.01665-3.1245-6.6819-0.52897-1.1997-0.30731-0.78979-0.12896-0.39192-0.10436-0.38966-0.071208-0.38699-0.026939-0.38376 0.020616-0.34897 0.15697-1.0547 0.01747-0.20532 0.008336-0.4577-0.016145-0.32494-0.096705-1.0159-0.10486-1.4401-0.052196-0.39994-0.072864-0.35966-0.095366-0.31723-0.10353-0.24297-0.12886-0.22438-0.29999-0.43894-0.2984-0.48139-0.66531-1.1946-0.15762-0.25575-0.11335-0.16168-0.079427-0.095492-0.088268-0.075838-0.063638 0.007742-0.21445-0.79552-0.079275-0.38326-0.006756-0.13433 0.062123-0.29414 0.013806-0.20817-0.011329-0.21423-0.030391-0.13506-0.026777-0.061876-0.069561-0.094425-0.09039-0.079602-0.10365-0.067622-0.11274-0.057065-0.27097-0.10313-0.46376-0.14917-0.14201-0.036441-0.060971-0.008211-0.061624 0.005601-0.14962-0.04331-1.2133-0.28324-1.0073-0.21812-0.43812-0.10941-0.46737-0.15393-0.20991-0.083259-0.20211-0.08911-0.30338-0.15554-0.28241-0.18418-0.16338-0.12948-0.1394-0.12784-0.16827-0.1835-0.17975-0.2535-0.26211-0.51858-0.1744-0.29925-0.43379-0.64004-0.13594-0.18558-0.19932-0.21091-0.23259-0.19462-0.25621-0.1775-0.2719-0.15795-0.28094-0.13418-0.28414-0.10409-0.28189-0.065176-0.27423-0.01447-0.1745 0.022978-0.17124 0.042064-0.53397 0.15804-0.20342 0.031793-0.28502-0.007228-0.29779-0.056982-0.30626-0.095919-0.31063-0.12654-0.31077-0.15095-0.30614-0.17091-0.29578-0.18789-0.27831-0.20304-0.252-0.21717-0.21522-0.23066-0.36464-0.51622-0.12544-0.15093-0.2459-0.21193-0.25688-0.14512-0.2331-0.079587-0.16965-0.029643-0.15353-5.58e-4 -0.080076 0.031933-1.3202-1.7214-0.30003-0.35875-0.41684-0.4349-0.14848-0.17863-0.082815-0.12922-0.095474-0.20487-0.026698-0.10325-0.006931-0.10315 0.021406-0.1201 0.047321-0.11956 0.066237-0.11926 0.16961-0.23842 0.30359-0.36021 1.2575-1.4044 0.29992-0.3567 0.19272-0.87776 0.18317-0.70584 0.11148-0.34606 0.23011-0.62674 0.086777-0.29704 0.023867-0.14534 0.001758-0.13791-0.019704-0.11344-0.093537-0.30957-0.009971-0.094982 0.016953-0.092844 0.031045-0.062342 0.062759-0.068844 0.084453-0.059247 0.20455-0.095408 0.22976-0.077271 0.3987-0.10503 0.70283-0.15255 0.89043-0.17798 0.92084-0.17616 0.5129-0.08552-0.11752-0.21355-0.8196-1.3627-0.58045-1.0006-0.57699-1.0348-0.82074-1.5115-0.2647-0.51538-0.20232-0.4255-0.1812-0.43582-0.097867-0.28552-0.077875-0.29121-0.049161-0.27091-0.022883-0.24082-0.003658-0.16475 0.011672-0.22516 0.018232-0.14244 0.07398-0.32288 0.11064-0.31156 0.13704-0.29684 0.11716-0.21732 0.44331-0.72573 0.10865-0.20149 0.10041-0.23927 0.05595-0.21852 0.01391-0.14539-0.036356-0.30505-0.048466-0.16106-0.11145-0.26942-0.16793-0.30835-0.12718-0.19608-0.24588-0.33535-0.53457-0.67111-0.19414-0.28842-0.13586-0.25123-0.099508-0.23284-0.2066-0.56159-0.094165-0.20514-0.1098-0.20538-0.14089-0.23283-0.18187-0.26154-0.17636-0.22318-0.19951-0.23002-0.17633-0.18708-0.2156-0.20544-0.16255-0.13824-0.25367-0.19238-0.45048-0.30417-1.1521-0.7177-0.24184-0.16548-0.21001-0.16126-0.28409-0.25255-0.39273-0.40612-0.25831-0.24756-0.071622 0.022202-0.13048-0.042161-0.13817-0.11924-0.1023-0.13299-0.091102-0.15975-0.053486-0.11962-0.075345-0.22302-0.057541-0.23873-0.068129-0.41678-0.064965-0.5318-0.047935-0.30145-0.068343-0.29487-0.10317-0.30526-0.10412-0.21392-0.15802-0.23163-0.19311-0.21149-0.2997-0.25136-0.33874-0.22229-0.36732-0.19608-0.36374-0.16191-0.37544-0.14057-0.29126-0.092413-0.29353-0.078098-0.45145-0.087215-0.48041-0.04078-0.22653 0.001377-0.31314 0.018815-0.32491 0.03232-0.28553 0.040579-0.45601 0.098264-0.29992 0.094579-0.17012 0.066572-0.36183 0.17635-0.89977 0.50524-0.6468 0.33473-0.18778 0.084915-0.58574 0.22897-0.96801 0.33171-0.40771 0.15619-0.26504 0.12805-0.25759 0.16472-0.11569 0.096272-0.14249 0.14441-0.16872 0.21309-0.1514 0.22978-0.1589 0.27766-0.28141 0.56596-0.50581 1.1233-0.34222 0.72958-0.33096 0.6348-0.2248 0.38316-0.17772 0.27248-0.30566 0.40579-0.88079 0.98532-1.0283 1.219-0.1584 0.16234-0.10263 0.090146-0.14895 0.10672-0.11736 0.064191-0.093767 0.039707-0.18975 0.052898-0.21462 0.025151-0.18686 0.001437-0.23141-0.017804-0.27008-0.04127-0.32131-0.068962-0.35541-0.095122-0.4697-0.14749-0.68557-0.24774-0.55069-0.223-1.6722-0.71999-0.53177-0.21428-0.48868-0.17444-0.36159-0.10477-0.24622-0.051965-0.083982-0.009059-0.05585 0.003649-0.022377 0.024117-0.3316-0.03112-0.49899-0.021686-0.59928-0.006133-1.6789 0.008114-0.59069-0.022515-0.4407-0.0339-0.61608-0.075948-0.58148-0.10259-0.49849-0.12304-0.80882-0.22462-0.35932-0.078634-0.46912-0.063797-0.4707-0.019461-0.34641 0.013169-0.51104 0.052213-0.56885 0.088616-0.60177 0.1144-0.94942 0.19768-0.88966 0.20695-0.5195 0.14167-0.51679 0.17085-0.70174 0.38644-1.6067 0.92901-0.40184 0.2623-0.26143 0.19847-0.34831 0.31314-0.29657 0.32403-0.21144 0.26327-0.48886 0.64944-0.29814 0.35266-0.19377 0.1908-0.25652 0.20634-0.2716 0.17691-0.26504 0.14296-0.25311 0.1219-0.43702 0.19414-1.0735 0.45095-0.77514 0.42947-1.5049 0.88746-0.20904 0.1109-0.25118 0.11022-0.21063 0.059773-0.61508 0.10352-0.52357 0.1263-0.17742 0.032672-0.32398 0.035341-0.65479 0.050322-0.34482 0.001454-1.6089 0.45853-0.40927 0.13676-0.2692 0.11382-0.21786 0.12505-0.14553 0.11693-0.067997 0.069943-0.068958 0.086705-0.10797 0.18929-0.038787 0.10088-0.032005 0.12006-0.031809 0.25034-0.002821 0.12808 0.015236 0.23732 0.045094 0.23792 0.092571 0.26628 0.13329 0.25304 0.14529 0.20887 0.088263 0.10835 0.2034 0.2186 0.45986 0.44474 0.086587 0.10884 0.14877 0.24805 0.14148 0.3267 0.10621 0.32784 0.096199 0.42134 0.037761 0.22474 0.019517 0.21248-0.005475 0.033875 0.012117 0.085775 0.17607 0.77847 0.046199 0.33648-0.007417 0.24632-0.018718 0.10362-0.058208 0.19609-0.053582 0.1215-0.087751 0.14473-0.070423 0.09274-0.18682 0.19739-0.19455 0.16673-0.38923 0.28653-0.41116 0.32598-0.15282 0.13098-0.13395 0.13543-0.077444 0.10215-0.18438 0.30846-0.10531 0.13995-0.12997 0.14848-0.37396 0.3851-0.12777 0.16497-0.050835 0.1031-0.014084 0.090132 0.028629 0.087763 0.038073 0.04135 0.040279 0.015199-0.33765 0.4282-0.088266 0.080937-0.10445 0.060631-0.52642 0.23644-0.18781 0.06102-0.16845 0.016887-0.29395-0.029733-0.90886 1.1706-0.33598 0.46961-0.56751 0.83592-0.19034 0.26124-0.35668 0.45497-0.83312 0.9984-0.1871 0.26178-0.16114 0.27152-0.13353 0.28141-0.10582 0.29893-0.058095 0.23535-0.040747 0.25528-0.022555 0.26544 0.002959 0.33511 0.044421 0.44032 0.05303 0.33218 0.12325 0.63773 0.10286 0.45463 0.12968 0.46234 0.11543 0.31839 0.081168 0.16235 0.13857 0.18591 0.16602 0.15657 0.17938 0.1272 0.40248 0.23783 0.1813 0.13403 0.41945 0.35871 0.33018 0.24888 0.44018 0.28142 1.0645 0.64472 0.15583 0.12441 0.13427 0.13192 0.092624 0.11018 0.066764 0.098332 0.030979 0.065611 0.001819 0.043988-0.03895 0.033701-0.32045 0.14746-0.58537 0.24344-0.78524 0.30952-0.2825 0.13106-0.21258 0.13218-0.12015 0.10024-0.096496 0.10815-0.081533 0.14553-0.028333 0.11156 0.002374 0.1376 0.052309 0.16207 0.095061 0.1679 0.1225 0.17319 0.45802 0.58652 0.14144 0.19889 0.14659 0.23701 0.17463 0.34556 0.16526 0.41478 0.099232 0.313 0.072145 0.31332 0.019702 0.16788-0.002317 0.15599-0.03365 0.14665-0.046349 0.089062-0.063601 0.077836-0.068696 0.059355-0.078105 0.050082-0.17809 0.072761-0.15634 0.033232-0.34008 0.035897-0.13255 0.028555-0.11494 0.04772-0.10328 0.068714-0.066811 0.063924-0.056822 0.073346-0.052212 0.095259-0.035919 0.10332-0.017029 0.096237-0.00197 0.098688 0.022786 0.1422 0.14626 0.43953 0.047352 0.18096 0.075426 0.37167-0.26107 1.8373-0.12864 0.65311-0.11967 0.4209-0.13733 0.37937-0.15398 0.36927-0.18519 0.32928-0.24596 0.27778-0.091754 0.071435-0.14599 0.09044-0.20298 0.093102-0.22081 0.073454-0.32404 0.075125-0.50719 0.069391-1.0253 0.060619-0.22372 0.028774-0.25847 0.052552-0.19415 0.054682-0.18628 0.065282-0.26149 0.11427-0.71902 0.37523-0.34075 0.16485-0.34152 0.13034-0.43783 0.13148-0.65765 0.16272-1.5316 0.34528-0.50097 0.10147-0.95881 0.17377-0.48426 0.1102-0.18737 0.059478-0.26984 0.11412-0.25374 0.14237-0.33811 0.25634-0.13873 0.13604-0.21371 0.26082-0.16987 0.27574-0.13613 0.31559-0.0494 0.15272-0.066006 0.25094-0.061631 0.36069-0.11996 1.3946-0.039868 0.29329-0.082801 0.48416-0.1396 0.57313-0.13888 0.41799-0.11994 0.30028-0.13591 0.29707-0.20649 0.39162-0.2699 0.44122-0.24652 0.35764-0.69398 0.91772-0.59292 0.80922-0.472 0.67848-0.42655 0.66435-0.27559 0.49139-0.16162 0.35162-0.093946 0.27357-0.027535 0.11252-0.030979 0.21404 0.012012 0.19096 0.055946 0.069562 0.090846-0.025588 0.31765-0.20035 0.27954-0.15556 0.26792-0.088198 0.29927-0.040005 0.31597 0.017282 0.32361 0.079146 0.40725 0.16176 1.097 0.51385 0.3728 0.18952 0.2545 0.15153 0.23532 0.16719 0.33608 0.30188 0.15462 0.16636 0.20735 0.25136 0.19889 0.26924 0.28752 0.42811 0.45529 0.71966 0.22363 0.31785 0.24059 0.27993 0.26932 0.22667 0.19216 0.11046 0.20306 0.083516 0.20671 0.060113 0.2034 0.039175 0.24257 0.028607 0.34476 0.021386 0.31596 0.006871 0.66069 8e-5 0.9526-0.017406 0.48007 0.012687 0.35382 0.029971 0.32598 0.047575 0.3223 0.070583 0.25314 0.076896 0.17094 0.064859 0.257 0.11863 0.24121 0.13748 0.26381 0.18213 0.37627 0.31356 0.54195 0.51444 0.27163 0.23964 0.22615 0.17394 0.31304 0.20276 0.3779 0.2016 0.37926 0.15364 0.36393 0.10717 0.43508 0.086432 0.34925 0.035219 0.35264 0.004883 0.40412-0.033866 0.30841-0.050668 1.3634-0.31417 1.6724-0.40827 0.46664-0.13567 0.38981-0.14903 0.30341-0.15554 0.39781-0.25176 0.36584-0.27778 0.29316-0.26437 0.17358-0.18455 0.1342-0.15905 0.26135-0.34877 0.30023-0.44794 0.19888-0.34703 0.017759-0.010646 0.035446-2.66e-4 0.34292 0.04288 0.10418 5.23e-4 0.094857-0.018816 0.1611-0.059414 0.15152-0.007712 0.21592 0.031973 0.72552 0.14839 0.83027 0.12347 0.008691 0.061186-0.064761 0.38322-0.1427 0.69022-0.10885 0.43191-0.069296 0.20412-0.082486 0.1916-0.31766 0.57395-0.22011 0.47237-0.16791 0.43648-0.12023 0.38612-0.055073 0.21574-0.22904 1.0322-0.072623 0.4265-0.019465 0.34522 0.007986 0.19788 0.047795 0.3337 0.11355 0.4001 0.66266 1.7999 0.081005 0.17683 0.096197 0.17023 0.1675 0.22365 0.11103 0.11227 0.10391 0.085341 0.24128 0.14913 0.17686 0.081884 0.38288 0.13708 0.66322 0.17782 0.89067 0.20368 0.18894 0.028404 0.064631-0.001036 0.038133-0.011187-0.003521-0.029568 0.32068 0.1165 0.19906 0.089806 0.20604 0.10706 0.65213 0.38637 0.20819 0.13772 0.20213 0.16792 0.14641 0.15817 0.16765 0.22224 0.11224 0.17674 0.11149 0.20644 0.095335 0.21891 0.088012 0.2547 0.084534 0.29799 0.095327 0.40267 0.15746 0.8307 0.14026 0.86706 0.14388 0.64012 0.15816 0.8043 0.11427 0.85474 0.025678 0.12815 0.072398 0.25042 0.2022 0.51034 0.23388 0.55176 0.51831 1.3155 0.19088 0.42365 0.13191 0.25757 0.27941 0.48723 0.26679 0.41854 0.41344 0.61706 0.17563 0.29412 0.0284 0.05948 0.006512 0.041059 0.036824-0.014032 0.081296 0.033451 0.12623 0.092224 0.27097 0.26441 0.79837 0.92113 0.69669 0.85132 0.25302 0.28302 0.23246 0.23105 0.19272 0.16047 0.20533 0.14558 0.34288 0.20174 0.3611 0.17346 0.2789 0.11347 0.28416 0.099742 0.33803 0.099358 0.34083 0.081513 0.28121 0.054016 0.28048 0.041469 0.2787 0.027527 0.27803 0.011455 0.2741-0.008059 0.269-0.031637 0.27072-0.059638 0.40913-0.12697 0.76547-0.26949 0.2669-0.078582 0.15568-0.03424 0.21329-0.031252 0.24869-0.01375 0.25527 0.010133 0.30573 0.044703 0.21666 0.054682 0.31559 0.09686 1.5509 0.50979 0.48787 0.14823 0.49116 0.1206 1.1549 0.24593 0.37036 0.09176 0.73694 0.21619 0.35859 0.12228 0.34354 0.13034 0.31892 0.13689 0.28168 0.14082 0.22898 0.13975 0.11769 0.088409 0.11691 0.10387 0.036454 0.056819-0.034941-0.2443-0.013072-0.23323 0.021145-0.13254 0.024946-0.047572 0.03194-0.034869 0.20392-0.0714 0.32373 0.004761 0.41351 0.063782 0.47588 0.10708 0.5165 0.13796 0.54095 0.15983 1.1115 0.36318 1.1021 0.4048 0.53271 0.2176 0.51211 0.23009 0.48363 0.24592 0.44518 0.2665 0.39387 0.29341 0.27768 0.26225 0.1692 0.18382 0.15187 0.19308 0.22402 0.3804 0.47764 1.0907 0.12924 0.22605 0.1784 0.22138 0.19882 0.14722 0.32963 0.094659 0.38671-0.004744 0.42951-0.078366 0.46143-0.13232 0.48519-0.17144 0.50295-0.19956 0.51642-0.2196 1.6052-0.72905 4.5897-2.1508 3.1827-1.4728 1.806-0.70758 2.5669-1.0994 1.1898-0.54242 1.4136-0.68632 0.55744-0.23912 0.27295-0.09714 0.26533-0.074116 0.25576-0.043826 0.24362-0.004334 0.23025 0.039944 0.445 0.12831 0.22938 0.0383 0.17778-8.82e-4 0.18423-0.024702 0.20762-0.049787 0.21257-0.069087 0.28477-0.1135 0.5845-0.2807 0.90277-0.4955 4.7009-2.7428 0.22867-0.14893 0.24252-0.17382 0.84608-0.64284 0.43666-0.31377 2.3343-1.6187 0.79152-0.52578 0.4222-0.24289 0.43256-0.21152 0.71654-0.31692 1.582-0.67148 3.1219-1.321 1.4407-0.58943 0.2018-0.099062 0.076099-0.04749 0.062763-0.05022 0.045062-0.053697 0.021907-0.058087-0.009174-0.074976-0.040517-0.081226-0.063436-0.086308-0.33884-0.37091-0.067441-0.088872-0.041104-0.079091-0.005295-0.061602 0.036236-0.026469 0.046931 0.017724 0.10346-0.003101 0.33442-0.05114 0.11363-0.028832 0.4067-0.14747 0.45366-0.21961 0.48194-0.27108 1.5206-0.94003 0.51992-0.308 0.52702-0.28567 0.53726-0.25198 0.5522-0.2108 0.56213-0.17566 0.56836-0.14962 0.57197-0.13069 0.5738-0.1172 1.7228-0.30708 4.7764-0.78781 5.104-0.87165 0.95989-0.15187 0.8653-0.11191 0.38375-0.03384 0.28544-0.014062 0.40678 0.009584 0.1434 0.018793 0.19352 0.050062 0.26237 0.14499 0.13317 0.1185 0.10574 0.1394 0.080587 0.18889 0.038276 0.20852 3.81e-4 0.21608-0.038723 0.23121-0.18983 0.52976-0.041226 0.25177 0.020963 0.14441 0.041533 0.11553 0.097802 0.16308 0.12658 0.13825 0.13329 0.10352 0.14725 0.081789 0.19452 0.067003 0.18671 0.02565 0.17255-0.003055 0.2905-0.041322 0.21416-0.049408 0.48448-0.15284 0.37545-0.16139 0.21913-0.13038 0.20125-0.16104 0.14019-0.1476 0.13766-0.17796 0.14808-0.22627 0.36907-0.61571 0.098772-0.13916 0.11862-0.14412 0.21073-0.20606 0.23808-0.1813 0.3206-0.18967 0.29019-0.13914 0.34628-0.13559 0.24765-0.076795 0.23212-0.055843 0.29984-0.048621 0.18722-0.018522 1.0546-0.040702 0.38151-0.047096 0.20115-0.052141 0.26908-0.099953 0.33358-0.17151 0.31338-0.21233 0.30716-0.26629 0.7345-0.70869 0.25094-0.21413 0.38978-0.30499 0.35515-0.25567 0.48578-0.32181 0.36439-0.22182 0.34756-0.19581 0.33031-0.17076 0.4483-0.20697 0.442-0.18017 0.41952-0.15198 0.47512-0.14958 0.25949-0.067513 0.1213-0.022339 0.046719 0.005539-0.061915 0.13726-0.008319 0.23196 0.035498 0.29022 0.090193 0.34384 0.083919 0.20791 0.067336 0.13012 0.12659 0.19316 0.1464 0.17886 0.5058 0.51305 0.25155 0.30043 0.21886 0.34226 0.091596 0.22046 0.028614 0.092087 0.058776 0.25335 0.040744 0.25431 0.029602 0.26423 0.017927 0.36519-0.006066 0.25548-0.038656 0.35351-0.044341 0.22475-0.071786 0.26251-0.13683 0.37434-0.13784 0.29671-0.20978 0.36887-0.13128 0.19878-0.18552 0.25299-0.3953 0.47198-0.22361 0.2423-0.54119 0.54633-0.32155 0.30733-0.79918 0.73444-0.59554 0.52734-0.62476 0.53171-1.1497 0.92836-0.27326 0.24333-0.22166 0.25742-0.14694 0.28109-0.040437 0.16663-0.011576 0.23758 0.024386 0.21255 0.041285 0.18332 0.066222 0.21097 0.070863 0.18081 0.10248 0.22164 0.12388 0.23418 0.13987 0.23753 0.1445 0.21734 0.15654 0.20603 0.14676 0.16741 0.29926 0.28439 0.45078 0.35135 0.29651 0.2075 0.32546 0.21122 0.47523 0.27205 0.62277 0.30983 0.9158 0.39404 0.46412 0.18091 1.0335 0.37351 0.39476 0.10598 0.30117 0.045314 0.12663 0.006024 0.33452-0.02764 0.70362-0.14587 0.25549-0.030669 0.21355-0.004519 0.35885 0.014156 0.26644 0.02399 0.18698 0.035692 0.18794 0.063236 0.29042 0.17463 0.16651 0.14196 0.15931 0.16182 0.17944 0.2099 0.20209 0.26849 0.20012 0.29756 0.40075 0.6685 0.12684 0.28691 0.040323 0.14708 0.032497 0.18426 0.017559 0.17409 0.006854 0.24431-0.010591 0.21814-0.039355 0.31423-0.1635 0.96503-0.022621 0.24939-0.001446 0.25221 0.032257 0.27734 0.043538 0.16908 0.048894 0.12525 0.061331 0.1099 0.063456 0.080173 0.070848 0.062952 0.059351 0.036392 0.083853 0.033409 0.098651 0.021749 0.17664 0.010122 0.15676-0.01015 0.31033-0.046359 0.78-0.13925 0.36673-0.026434 0.25101 0.010486 0.4413 0.078274 0.9366 0.27642 0.26228 0.067433 0.33541 0.059103 0.31006 0.032638 0.71871 0.041092 1.6988 0.061778 1.1168 0.012927 1.656-0.009375 0.51072 0.01317 0.30829 0.022827 0.35901 0.048399 0.26425 0.052174 0.22459 0.057556 0.32789 0.10872 0.23254 0.098212 0.24417 0.13276 0.20626 0.15099 0.085783 0.080925 0.05405 0.060674 0.094664 0.14963 0.028785 0.080329 0.020463 0.10953 0.003703 0.12552-0.014229 0.10498-0.030964 0.097401-0.062227 0.11857-0.19614 0.24886-0.49154 0.56411-0.16652 0.17636-0.27823 0.26394-0.41238 0.31561-0.22314 0.19083-0.28959 0.26388-0.15235 0.16717-0.10824 0.15385-0.092503 0.16197-0.27296 0.61293-0.1611 0.31154-0.17057 0.2621-0.14808 0.18918-0.15369 0.1687-0.28199 0.26022-0.25614 0.19969-0.40534 0.26289-0.5475 0.32901-0.25535 0.14504-0.26128 0.13049-0.20952 0.07433-0.22204 0.046672-0.25526 0.038851-0.12293 0.038274-0.042596 0.028609-0.026257 0.035302-0.003261 0.037444 0.017627 0.032193-0.035979-0.003165-0.065274 0.013381-0.12157 0.048086-1.0288 0.57032-0.45647 0.24171-0.34328 0.16825-0.38335 0.15716-0.68591 0.23292-0.23929 0.090608-0.3378 0.14594-0.36454 0.17754-0.57849 0.31691-0.65978 0.39469-0.62085 0.44427-0.39209 0.31668-0.47108 0.42057-0.22314 0.22419-0.19947 0.2469-0.18672 0.2892-0.090937 0.21175-0.057959 0.23548-0.037147 0.35577-0.017237 0.34155-0.034333 0.3997-0.066511 0.36717-0.13856 0.42881-0.19363 0.43157-0.21108 0.39554-0.23264 0.3951-0.644 1.0083-0.76026 1.1353-0.18222 0.25367-0.19996 0.21368-0.19521 0.13901-0.23218 0.11404-0.24806 0.084508-0.17362 0.042722-0.32265 0.050737-0.28185 0.018748-0.90014-0.014442-0.35576 0.018399-0.19053 0.026698-0.1842 0.040759-0.194 0.062754-0.19107 0.083027-0.15839 0.08726-0.2028 0.1419-0.21607 0.19048-0.14237 0.15093-0.15762 0.19658-0.18313 0.27356-0.15812 0.29576-0.030077 0.075439-0.005144 0.056721-0.016614 0.055271-0.022619 0.030437-0.030651 0.019278-0.055629 0.008723-0.057302-0.009121-0.10231-0.04103-0.11182-0.067298-0.18888-0.14657-0.12584-0.11489-0.54893-0.58064-0.24079-0.23342-0.20911-0.17535-0.15401-0.11099-0.24729-0.14306-0.19185-0.079626-0.26835-0.062102-0.10636-0.007992-0.27656 0.017552-0.32728 0.076386-0.35782 0.13063-0.36675 0.16548-0.41684 0.21108-0.66614 0.3668-0.55683 0.32912-1.2385 0.7656-1.4739 0.97172-0.55604 0.34876-0.91203 0.50574-0.4725 0.24601-0.74537 0.3676-0.72252 0.32116-0.30597 0.11398-0.30918 0.091793-0.24465 0.051697-0.30699 0.03691-0.22736 0.008461-0.50048-0.002084-0.40178 0.025802-0.14736 0.027819-0.3016 0.10632-0.31082 0.19419-0.23257 0.23947-0.14431 0.26864-0.043781 0.21862 0.040288 0.32946 0.13355 0.35163 0.19635 0.36817 0.47807 0.77021 0.23482 0.39662 0.18708 0.37055 0.13842 0.37331 0.044589 0.18912 0.026713 0.21416 7.88e-4 0.28758-0.042974 0.37502-0.059481 0.30958-0.093418 0.30506-0.17796 0.35656-0.24036 0.34131-0.28885 0.322-0.3265 0.29689-0.35579 0.26383-0.23213 0.14327-0.23727 0.12812-0.32714 0.14979-0.33147 0.10987-0.18075 0.03811-0.20316 0.027186-0.22419 0.015182-0.21342 0.002976-0.23986-0.0144-0.24322-0.035198-0.24367-0.054647-0.92214-0.27044-0.62642-0.22012-1.3565-0.53856-1.7467-0.76762-0.34853-0.1279-0.023942-0.004814 0.12295-0.027034 0.20506-0.1293 0.09947-0.099627 0.054493-0.069675 0.080781-0.14531 0.027191-0.074977 0.03099-0.1971-0.005646-0.12148-0.020635-0.12124-0.055719-0.18348-0.10568-0.2399-0.21211-0.35004-0.21653-0.3062-0.18117-0.22195-0.23113-0.23476-0.46763-0.40474-0.52401-0.41767-0.30574-0.19627-0.39532-0.23579-0.27026-0.18459-0.22706-0.18864-0.22689-0.21908-0.055272-0.061476-0.22194-0.30107-0.16148-0.3293-0.06706-0.22774-0.045841-0.2336-0.095103-0.78162-0.021809-0.2908 0.003459-0.60926-0.017667-0.23527-0.018847-0.10463-0.05222-0.16298-0.078855-0.12467-0.040811-0.042652-0.17868-0.10945-0.18766-0.025678-0.09727 0.015152-0.095772 0.030346-0.25973 0.14778-0.54774 0.41707-0.29619 0.16761-0.16943 0.056706-0.11904 0.026509-0.27442 0.025588-0.24126-0.036294-0.24069-0.12237-0.21102-0.19772-0.17099-0.25738-0.118-0.3047-0.043077-0.24282-0.006188-0.14119 0.011327-0.20387 0.018801-0.13821 0.1109-0.45992 0.17209-0.48202 0.21579-0.49822 0.24539-0.51014 0.80662-1.5845 0.25863-0.54276 0.23113-0.54285 0.18701-0.5395 0.076266-0.29212 0.043473-0.22587 0.034071-0.52143-0.08631-0.49296-0.19426-0.40738-0.28108-0.38058-0.27246-0.29467-0.20713-0.19973-0.40111-0.34723-0.55352-0.42816-0.014403 0.079256-0.080531 0.16374-0.10022 0.16792-0.12768 0.18875-0.29754 0.37062-0.36342 0.3699-0.5114 0.4589-0.3812 0.29452-0.39293 0.26079-0.39564 0.21792-0.39066 0.16516-0.37894 0.10106-0.36535 0.032549-0.69067-0.019184-0.33244 0.019579-0.24205 0.049735-0.71182 0.21609-0.29771 0.068972-0.31328 0.044633-0.48806 0.014379-0.50809-0.024807-1.5149-0.088172-0.48949-0.047675-0.47498-0.086202-0.38855-0.11373-0.37546-0.13813-0.43568-0.18256-0.57288-0.27148-0.27811-0.11483-0.28041-0.091709-0.28826-0.065756-0.2867-0.0455-0.32987-0.034962-0.15767-0.005527-0.36119 0.020624-0.23105 0.045861-0.2344 0.071057-0.36596 0.15186-0.45005 0.24273-0.45258 0.29054-0.4542 0.32514-0.45506 0.34998-0.45526 0.36774-0.45485 0.38054-0.87849 0.76056-2.6368 2.3434-1.339 1.1734-0.91422 0.77606-0.46795 0.38384-0.67095 0.52922-0.86936 0.64614-1.2225 0.84528-1.1187 0.73885-2.6375 1.6986-0.51413 0.34272-4.2838 0.49212-1.5104 0.16909-2.4886 0.25155-1.8007 0.16388-1.7231 0.13367-0.39997 0.043583-0.33577 0.06969-0.33312 0.10109-0.32767 0.12896-1.1731 0.57489-0.23744 0.097806-0.49674 0.17619-0.51884 0.15631-0.53467 0.14221-2.0348 0.48091-0.87107 0.22349-0.37962 0.10927-0.37204 0.11598-0.5363 0.18579-0.48415 0.19426-0.46941 0.23226-0.4066 0.27429-0.31905 0.33569-0.20493 0.39361-0.12777 0.45304-0.053958 0.31569-0.038892 0.33079-0.051398 0.73944-0.024924 0.79574-0.018438 2.046-0.017829 0.56415-0.037844 0.54589-0.068698 0.51749-0.11353 0.47553-0.17648 0.41554-0.26265 0.33199-0.35806 0.225-0.44508 0.14332-0.51315 0.083527-0.56444 0.042367-0.59944 0.017514-1.1171 0.014584-1.1262 0.039327-0.38147 0.031817-0.13424 0.048989-0.15026 0.069156-0.33096 0.086018-0.43138 0.067114-0.47436 0.018667-0.47603-0.054775-0.28586-0.083077-0.44751-0.24132-0.4014-0.347-0.3628-0.42434-0.33208-0.47828-0.30828-0.5146-0.2901-0.53832-0.27631-0.55336-0.26592-0.56258-0.51049-1.1389-1.2249-2.8495-0.49691-1.1088-0.25681-0.53588-0.2661-0.5155-0.27925-0.48611-0.29743-0.44439-0.28194-0.34467-0.30243-0.28659-0.32538-0.21177-0.29276-0.10992-0.19019-0.041175-0.20573-0.023768-0.24251-0.00288-0.1775 0.017817-0.14507 0.030576-0.15192 0.049852-0.16984 0.07734-0.15596 0.090032-0.17387 0.12012-0.15966 0.12662-0.33407 0.30332-1.0697 1.0625-0.36116 0.34157-0.35903 0.3119-0.83266 0.65075-0.18476 0.19705-0.14196 0.22221-0.10201 0.29853-0.043232 0.3103-0.004031 0.3203 0.024565 0.31659 0.053079 0.3244 0.03376 0.1306 0.096935 0.24887 0.14536 0.18511 0.076766 0.051603 0.090162 0.038672 0.13419 0.030581 0.20041 0.004466 0.21459-0.032251 0.29614-0.086833 0.18605-0.074839 0.47373-0.23758 0.28655-0.16582 0.54676-0.34426 0.13226-0.076528 0.13231-0.057 0.11101-0.00899 0.056255 0.031945 0.043352 0.079101 0.019491 0.10892 0.003701 0.13085-0.034144 0.38332-0.056074 0.32095-0.14564 0.68518-0.073048 0.46992-0.034128 0.33438-0.01678 0.50523 0.018259 0.37326 0.05051 0.36524 0.036067 0.16622 0.10984 0.39123 0.13244 0.3863 0.38079 1.0207 0.09391 0.32569 0.03337 0.18127 0.007728 0.26006-0.041064 0.19776-0.020043 0.03792-0.066163 0.068898-0.091481 0.038267-0.1175-0.001423-0.12558-0.026525-0.51779-0.15133-0.70402-0.2615-0.23665-0.072652-0.23971-0.040446-0.28614 0.021038-0.26819 0.063322-0.26188 0.048365-0.2664-0.026183-0.11746-0.048512-0.14748-0.095431-0.24008-0.22207-0.24058-0.28436-0.23635-0.32072-0.42093-0.61426-0.19276-0.25352-0.062814-0.062243-0.045061-0.029245-0.0313 0.009029-0.15256-0.018053-0.3297-0.073601-0.37848-0.10581-0.18622-0.063258-0.28786-0.12241-0.4928-0.27235-0.071413-0.026723-0.091066-0.010749-0.052014 0.013338-0.047719 0.02729-0.049362 0.044367-0.22226 0.2852-0.080494 0.065937-0.059678 0.028737-0.13975 0.025152-0.49136 0.003987-0.17799 0.010149-0.096622 0.017593-0.13284 0.056752-0.10047 0.091556-0.082421 0.1229-0.063194 0.1331-0.10096 0.31302-0.28416 1.2843-0.062949 0.70996-0.043095 0.25999-0.072595 0.29386-0.047663 0.15132-0.11168 0.28752-0.088714 0.19152-0.24616 0.4775 0.10678 0.7336 0.015724 0.22489-0.016244 0.27042-0.049463 0.30424-0.096208 0.31886-0.17017 0.39352-0.5849 1.1909-0.18779 0.41331-0.070282 0.18616-0.098841 0.34815-0.046047 0.31659-0.005148 0.15573 0.006542 0.14573 0.036484 0.26551 0.05229 0.22453 0.052115 0.16226 0.065879 0.16109 0.15973 0.30172 0.3725 0.5657 0.14999 0.26028 0.049323 0.12068 0.030109 0.12355 0.005803 0.14188-0.020889 0.14598-0.044102 0.14874-0.066866 0.15526-0.084792 0.15641-0.2163 0.32214-0.12667 0.1631-0.2498 0.28916-0.39765 0.40634-0.16679 0.067996-1.1338 0.54126-1.0261 0.53176-0.83666 0.46957-1.5671 0.92215-0.30307 0.16695-0.4932 0.24552-0.24928 0.10981-0.35972 0.13912-0.52535 0.15322-0.35619 0.058268-0.45228-7.7e-5 -0.38336-0.08172-0.34373-0.13208-0.34237-0.17887-0.86419-0.55799-0.29604-0.18014-0.36365-0.2034-0.66226-0.32616-0.48692-0.20961-0.54992-0.22171-0.70004-0.2594-0.60088-0.19276-0.48841-0.13964-1.0473-0.26558-0.13931-0.027383-0.31909-0.036447-0.43846-0.008532-0.36221 0.022282-0.95556 0.11354-0.40181 0.013496-0.49152-0.019303-1.0347-0.071025-0.32107-0.001772-0.39192 0.027719-0.24777 0.040832-0.26835 0.073283-0.46389 0.2162-0.37761 0.25104-0.34498 0.27935-0.46329 0.43667-0.5656 0.60866-1.1574 1.3482-2.17 2.4491-0.83653 0.97231-0.19578 0.20994-0.040509 0.034388-0.039232 0.011103-0.060718 0.005157-0.11847-0.029014-0.32801-0.12471-0.33499-0.15976-0.29861-0.16632-0.34729-0.22511-0.23257-0.17418-0.2076-0.1756-0.39387-0.39504-0.21446-0.24592-1.252-1.5367-0.35313-0.41036-0.49159-0.54382-0.49637-0.51258-0.48592-0.46014-0.42939-0.36914-0.3075-0.24054-0.3108-0.2204-0.41546-0.2598-0.40054-0.22534-1.3837-0.74043-0.58166-0.342-0.67693-0.43839-0.43009-0.30249-0.42106-0.31546-0.37083-0.29448-0.6244-0.52188-1.2129-1.0414-0.41657-0.34691-0.57036-0.45611-0.45199-0.33467-0.33097-0.22406-0.41725-0.25274-0.5585-0.28505-0.25608-0.11147-0.5573-0.20156-0.48243-0.13169-0.50315-0.097842-0.40148-0.050856-0.48414-0.033474-0.36872-0.010497-0.78104 0.003141-2.0158 0.058369-1.0802 0.055325-3.1651 0.20416-0.62952 0.025011-0.45896-0.003961-0.39468-0.042947-0.26946-0.081567-0.12687-0.064681-0.26778-0.20335-0.23478-0.257-0.25269-0.36389-0.1131-0.19549-0.13464-0.26228-0.12779-0.27708-0.24827-0.60286-0.69681-1.8752-0.36827-0.91014-0.32927-0.73345-0.69517-1.434-0.3228-0.7084-0.35278-0.86245-0.083446-0.22869-0.071713-0.22005-0.00732-0.048281-0.22238-0.10054-0.6642-0.37039-1.1454-0.66896-0.46271-0.28586-0.20217-0.13591-0.35651-0.26405-0.31059-0.26024-0.28458-0.26312-0.79062-0.7869-0.21375-0.19236-0.21568-0.17769-0.24674-0.18656-0.36166-0.26065-0.36223-0.24-0.38808-0.2208-0.36888-0.17209-0.2271-0.081786-0.32296-0.059928-0.25994 0.0123-0.16167 0.071279-0.038138 0.082837 0.023351 0.09001 0.076815 0.088564 0.22523 0.19771 0.052884 0.091965-0.010497 0.13167-0.058776 0.091841-0.15655 0.14633-0.14835 0.10774-0.32903 0.2035-0.2627 0.13258-0.22038 0.081116-0.20904 0.042364-0.30095-0.004249-0.31078-0.065982-0.30992-0.11367-0.29852-0.14953-0.2763-0.17522-0.48479-0.36278-0.17254-0.10448-0.26211-0.11405-0.36328-0.10201-0.24614-0.04515-0.26576-0.02856-0.25705-0.003543-0.27791 0.031979-0.19695 0.055833-0.15979 0.074775-0.17048 0.11392-0.12219 0.10386-0.13613 0.13815-0.1704 0.21439-0.14625 0.22572-0.12998 0.23508-0.14941 0.34854-0.11417 0.34895-0.07931 0.31187-0.21003 1.0199-0.18758 0.57694-0.15093 0.3587-0.17221 0.36263-0.22655 0.43712-0.80092 1.4438-0.52509 0.99936-0.14242 0.31357-0.096409 0.24506-0.035194 0.11625-0.016958-0.035598-0.046733-0.04197-0.076766-0.040182-0.16651-0.049466-0.21159-0.029484-0.32437-0.004389-0.33263 0.02922-0.31408 0.049548-0.605 0.13364-0.41086 0.11881-0.53444 0.19186-0.81452 0.34377-1.2975 0.58459-0.67475 0.25971-0.65924 0.21051-0.30475 0.082031-0.52114 0.10908-0.37532 0.036973-0.28467 3e-4 -0.27514-0.021021-0.35542-0.058695-0.32162-0.088167-0.17536-0.068197-0.15683-0.085539-0.15552-0.12619-0.10481-0.11659-0.12862-0.18767-0.20249-0.36211-0.15187-0.24122-0.10553-0.14088-0.12094-0.11504-0.066864-0.038385-0.091242-0.026913-0.098424-0.005287-0.086938 0.011127-0.095095 0.027651-0.080061 0.035809-0.16968 0.11496-0.16529 0.15691-0.32862 0.37039-0.22838 0.27958-1.3313 1.7235-0.76593 1.0216-0.88482 1.0919-0.21245 0.29664-0.15752 0.29104-0.078936 0.29714 0.025293 0.29933 0.084338 0.233 0.12405 0.20792 0.091814 0.10422 0.081001 0.048618-0.077188 0.038698-0.16518-0.004901-0.22888-0.054915-0.40923-0.14009-0.41556-0.17335-0.74723-0.40445-0.28344-0.13636-0.28839-0.11146-0.2909-0.075214-0.26722-0.031707-0.52472-0.020076-0.25192-0.026265-0.24087-0.062576-0.24984-0.1277-0.23546-0.17936-0.22342-0.21724-0.21267-0.24439-0.20219-0.26317-0.19098-0.27532-0.17797-0.28197-0.16199-0.28379-0.14168-0.28093-0.11546-0.27311-0.063292-0.19065-0.042097-0.18058-0.045457-0.51314-0.033498-0.11145-0.051015-0.069549-0.071333-0.044168-0.12482-0.014497-0.12419 0.022873-0.13623 0.046664-0.48742 0.21372-0.29647 0.092805-1.1865 0.26891-1.3928 0.33725-0.41594 0.067079-0.34378 0.025512-0.28407-3.7e-5 -0.21017-0.013596-0.34942-0.053097-0.12346-0.03115-0.18388-0.064854-0.12178-0.061357-0.11028-0.087233-0.021196-0.076233-1.3295 2.6825-1.6713 3.6023-0.5718 1.1897-0.56348 1.1177-0.27963 0.51701-0.27895 0.47552-0.27894 0.41856-0.27972 0.34046-0.28147 0.2339-0.2844 0.089749-0.2659-0.075063-0.081233-0.05216-0.2112-0.19527-0.20623-0.26268-0.20263-0.30888-0.69109-1.1458-0.26973-0.38264-0.13886-0.16835-0.14555-0.15486-0.22774-0.20006-0.19134-0.13204-0.1118-0.063979-0.18405-0.087467-0.16982-0.063765-0.26827-0.071831-0.35936-0.049425-0.24031-0.007347-0.253 0.01211-0.24394 0.0304-0.24237 0.04848-0.28829 0.081348-0.27788 0.10128-0.27333 0.11948-0.25101 0.12569-0.51872 0.30331-1.8603 1.2246-0.85023 0.5796-1.4727 1.0487-0.63452 0.40774-0.47796 0.26095-0.2646 0.11854-0.23178 0.086121-0.21759 0.067597-0.35727 0.085203-0.25569 0.043621-0.31757 0.040001-0.44764 0.027092-0.52361 3.75e-4 -0.57675-0.024795-0.47838-0.045046-0.74203-0.10947-1.3282-0.24865-0.24267-0.051229-0.27743-0.081429-0.25521-0.11077-0.19172-0.10973-0.24161-0.17251-0.23455-0.19999-0.4376-0.42583-0.16756-0.18634-0.59869-0.71516-0.12155-0.12424-0.1484-0.12305-0.10332-0.064397-0.11353-0.054362-0.24028-0.077555-0.27782-0.046-0.1383-0.004037-0.14242 0.010565-0.26732 0.056964-0.28508 0.097616-0.49015 0.20619-0.69692 0.33035-0.57197 0.30584-0.25519 0.15315-0.25081 0.16365-0.44719 0.32523-0.32064 0.25876-0.71821 0.64357-0.42636 0.41024-0.70552 0.70381-0.5997 0.62678-1.2096 1.3629-0.21601 0.21939-0.3607 0.3286-0.27527 0.21592-0.16056 0.11094-0.22829 0.13797-0.31466 0.15115-0.32822 0.1155-0.26961 0.06911-0.30758 0.055582-0.22083 0.024989-0.42217 0.017206-0.38452-0.012122-0.32006-0.026031-1.4238-0.17288-1.5997-0.21798-0.39795-0.064007-0.46673-0.089084-0.46345-0.10785-1.6277-0.46952-0.40052-0.084965-0.30984-0.042309-0.15943-0.013447-0.4095-0.00928-0.23909 0.012405-0.21016 0.023625-0.15366 0.026472-0.18371 0.045761-0.10461 0.037586-0.10808 0.064227-0.0209 0.025641-0.008784 0.036325-0.56689-0.063354-0.32086-0.01131-0.21073 0.027005-0.2904 0.090593-0.10771 0.023128-0.16429 0.016985-0.10854-0.003488-0.2016-0.03983-0.2469-0.086079-0.22002-0.099087-0.3237-0.16831-0.009469 0.039504-0.029125 0.027626-0.052106 0.026829-0.098463 0.029615-0.16243 0.025694-0.195 0.011454-0.31565-0.010122-0.49782-0.064911-1.0797-0.22191-0.66296-0.12133-0.75022-0.1032-0.43937-0.041416-0.42305-0.024254-0.74356-0.007308-0.73553 0.032173-0.65774 0.064964-1.0289 0.15116-0.31531 0.027194-0.3188 0.011567-0.55448-0.027636-0.43354-0.050261-1.142-0.14521-0.42291-0.075031-0.25155-0.07333-0.2443-0.11124-0.18854-0.13198-0.16698-0.15989-0.21466-0.28173-0.056093-0.09184-0.16113-0.3197-0.15542-0.34798-0.1206-0.24345-0.19671-0.31578-0.21479-0.28641-0.14407-0.17015-0.15232-0.14753-0.26223-0.16487-0.21787-0.069876-0.10089-0.013328-0.10925-0.001713-0.17453 0.024843-0.22573 0.082768-0.46111 0.24541-0.37364 0.213-0.10377 0.050425-0.13602 0.050552-0.17737 0.037222-0.49286 0.034528-0.19088 0.023207-0.28397 0.054175-0.801 0.20231-0.52612 0.12024-0.3003 0.061535-0.86523 0.14868-0.26389 0.0696-0.43962 0.13362-0.38769 0.090693-0.25939 0.028701-0.30532-0.009961-0.20527-0.041797-0.17102-0.061569-0.10697-0.056545-0.066668-0.053518-0.018653-0.03765-0.002116-0.03669 0.034283-0.10967 0.48712-1.2584 0.24079-0.70185 0.11532-0.41871 0.040249-0.18055 0.056727-0.35151 0.019454-0.292-0.010314-0.26947-0.037016-0.24892-0.041097-0.17337-0.11044-0.33305-0.13541-0.31584-0.18503-0.36805-0.445-0.77025-0.19576-0.30555-0.21154-0.30575-1.6928-2.3133-0.18909-0.29235-0.74287-1.206-0.52731-0.95878-0.15956-0.24122-0.1366-0.15612-0.09449-0.079314-0.099861-0.061264-0.081721-0.036432-0.12837-0.040102-0.14666-0.028653-0.2237-0.023214-0.4852-0.019918-0.3792-0.027111-0.17344-0.025201-0.73517-0.1455-0.72623-0.12052-0.13995-0.032489-0.32495-0.11437-0.16324-0.086506-0.1392-0.097244-0.15552-0.14809-0.082347-0.10388-0.092197-0.14557-0.089958-0.18487-0.063498-0.1743-0.0583-0.22808-0.034491-0.20889-0.018263-0.19861-0.001371-0.51076 0.022156-0.32921 0.03253-0.28393 0.049626-0.31056 0.05381-0.25719 0.17536-0.65691 0.4218-1.3615 1.1107-3.7353 0.13381-0.5172 0.16428-0.69609 0.27082-1.1911 0.083844-0.41914 0.061529-0.45219 0.017378-0.26682 0.002341-0.22554-0.012012-0.24553-0.14824-1.1054-0.009687-0.40841 0.030597-0.36401 0.057869-0.27724 0.076754-0.13344 0.11741 0.028673 0.29506 0.1214 0.86459 0.39295 0.48823 0.23587 0.4911 0.24863 0.47683 0.25577 0.7278 0.40908 0.28168 0.14632 0.34989 0.15411 0.33794 0.10128 0.36238 0.038818 0.34397-0.018894 0.31892-0.050932 0.20171-0.044905 0.18842-0.06202 0.21422-0.11129 0.19627-0.13985 0.43975-0.35868 0.242-0.15253 0.2456-0.09419 0.24316-0.00541 0.24781 0.11144 0.1602 0.12077 0.1652 0.14797 0.60514 0.5845 0.25116 0.21906 0.35604 0.2704 0.23228 0.14778 0.23884 0.12552 0.29788 0.1143 0.28366 0.059887 0.24357 0.010724 0.2772-0.028623 0.32392-0.069572 0.81707-0.20191 0.9201-0.14376 1.2124-0.21311 0.99838-0.16072 0.9121-0.13796 0.50675-0.061542 0.49883-0.028196 0.30324 0.00512 0.43444 0.027942 0.4353 0.058714 0.46687 0.10283 1.94 0.51145 0.22296 0.045201-0.009523-0.034939 0.037464-0.090647 0.11728-0.18993 0.11593-0.16043 0.26127-0.30889 0.15066-0.15231 0.1483-0.13226 0.17926-0.13587 0.26782-0.16416 0.8939-0.44427 0.38332-0.22524 0.17451-0.12436 0.24181-0.21127 0.16552-0.17944 0.13212-0.16809 0.18977-0.29536 0.1725-0.34719 0.13925-0.35552 0.091021-0.28883 0.070845-0.28925 0.04228-0.24681 0.022423-0.24326-0.005087-0.30475-0.043569-0.26793-0.039495-0.13583-0.056922-0.14754-0.084337-0.17336-0.093203-0.16152-0.26214-0.3828-0.74428-1.0038-0.18347-0.29448-0.14982-0.3162-0.10224-0.28005-0.049121-0.16444-0.2637-1.0359-0.11751-0.41672-0.26442-0.75441-0.1133-0.3751-0.061228-0.24678-0.12551-0.6864-0.054538-0.22074-0.1144-0.31925-0.091347-0.18473-0.15197-0.22908-0.097597-0.10875-0.085215-0.075881-0.11434-0.078653-0.11705-0.057043-0.10174-0.033111-0.1792-0.031059-0.12592-0.006678-0.3238 0.02303-0.34888 0.069438-0.55564 0.15823-1.0935 0.3958-0.41382 0.13343-0.29202 0.071283-0.30994 0.038368-0.15875-0.003908-0.087622-0.012878-0.14901-0.04567-0.10466-0.05361-0.12022-0.088596-0.093139-0.094574-0.12737-0.1779-0.10723-0.20941-0.084433-0.22182-0.074663-0.25937-0.069932-0.33157-0.067223-0.47893-0.066326-0.75243-0.062066-0.85528-0.015047-0.526-0.010308-1.0847-0.10419-1.4319-0.022928-0.4872 0.001892-0.30597 0.01873-0.31163 0.080323-0.53766 0.10109-0.40997 0.092665-0.30016 0.1942-0.53013 0.22162-0.52996 0.4939-1.0863 1.1936-2.479 0.22863-0.49181 0.47649-1.0756 0.20918-0.44194 0.20105-0.37168 0.18459-0.30464 0.38276-0.58742 0.25303-0.36338 0.31968-0.39081 0.20104-0.21464 0.33197-0.32302 0.33339-0.29008 1.7755-1.3507 0.25929-0.18061 0.48332-0.29035 0.61862-0.3128 0.78219-0.37202 0.37042-0.16187 0.34317-0.13477 0.34295-0.11445 0.36992-0.093313 0.45311-0.060255 0.3617 0.004889 0.34659 0.060319 0.18564 0.059848 0.22105 0.095225 0.29308 0.15955 1.0387 0.68735 0.25393 0.14197 0.32555 0.14299 0.8025 0.28741 0.31613 0.12595 0.30254 0.14411 0.2804 0.17001 0.16058 0.12308 0.14212 0.13116 0.10177 0.11213 0.080419 0.10452 0.088252 0.13966 0.090111 0.18745 0.0815 0.23488 0.091109 0.42374 0.036953 0.31764 0.014964 0.25631-0.005846 0.50036-0.028485 0.32852-0.062221 0.42607-0.14607 0.72711-0.07685 0.44425-0.034859 0.41923 0.027232 0.37817 0.11371 0.31782 0.13142 0.16448 0.17317 0.12864 0.24657 0.10584 0.28561 0.068781 0.41608 0.054435 1.613 0.1481 1.1623 0.086484 0.58052 0.019247 0.40746-0.004362 0.32696-0.018929 0.38741-0.04588 0.39209-0.084883 0.1862-0.060139 0.26206-0.11004 0.32855-0.17666 0.32911-0.21179 0.30228-0.22856 0.25426-0.22624 0.2673-0.27157 0.1689-0.19054 0.26392-0.32955 0.24849-0.35211 0.17679-0.28336 0.25273-0.46571 0.20933-0.42881 0.23568-0.52038 0.47447-1.1163 0.19706-0.41575 0.16548-0.3084 0.16243-0.27325 0.20919-0.31501 0.27214-0.35934 0.35164-0.40011 0.33117-0.33466 0.40443-0.36186 0.22053-0.17162 0.26086-0.17728 0.25381-0.14513 0.20832-0.097148 0.15358-0.056337 0.18515-0.042861 0.10105-9.62e-4 0.07041 0.043919 0.023758 0.022257 0.054447 0.087341 0.52114 0.90204 0.38373 0.58993 0.50501 0.70964 0.46637 0.62418 0.28348 0.34732 0.20168 0.22318 0.33599 0.33316 0.31376 0.27304 0.34308 0.26056 0.28164 0.18457 0.3511 0.19819 0.31538 0.15342 0.2976 0.11585 0.21051 0.055168 0.16037 0.017474 0.14393-0.015317 0.078316-0.027928 0.073743-0.043161 0.1199-0.10785 0.11372-0.14343 0.26488-0.4219 0.28455-0.4957 0.7563-1.4406 0.34397-0.60895 0.37659-0.59605 0.19972-0.28718 0.21013-0.28126 0.21932-0.27094 0.33549-0.36972 0.17034-0.16742 0.36816-0.316 0.39657-0.27706 0.20689-0.1236 0.21647-0.11718 0.37625-0.17292 0.20387-0.069215 0.18415-0.039879 0.16506-0.013311 0.21061 0.01789 0.080805 0.017884 0.14986 0.048837 0.23008 0.10846 0.281 0.17118 1.6149 1.1057 0.43028 0.30532 0.80263 0.59841 0.22308 0.15106 0.036137 0.006245 0.087013-0.14006 0.13487-0.18526 0.20457-0.2573 0.49851-0.57261 0.27261-0.33504 0.21803-0.34248 0.46028-0.88588 0.17156-0.27784 0.09683-0.12941 0.092211-0.10961 0.25331-0.26357 0.42911-0.40579 0.24722-0.21778 0.20262-0.16439 0.25872-0.18739 0.30628-0.18813 0.50482-0.25512 0.3112-0.13247 0.28067-0.095723 0.35226-0.077587 0.31695-0.024273 0.58938-0.004586 0.27852-0.023647 0.3939-0.10148 0.15141-0.070382 0.2839-0.18354 0.33058-0.28973 0.33606-0.3628 1.7162-2.1081 0.27898-0.41515 0.19946-0.40352 0.075594-0.20979 0.27984-0.96131 0.17114-0.41074 0.15645-0.3069 0.29698-0.5119 0.87375-1.4361 0.54559-0.94674 0.39384-0.72982 0.25198-0.51086 0.1834-0.415 0.1367-0.3409 0.47515-1.2714 0.89463-2.2931 0.25521-0.68428 0.15863-0.47954 0.10033-0.34601 0.1425-0.58256 0.12062-0.66332 0.099885-0.78486 0.048391-0.24761 0.061901-0.23009 0.1189-0.31823 0.12433-0.2409 0.16893-0.23998 0.17352-0.17035 0.11805-0.068444 0.068631-0.00666-0.01809-0.13643-0.006768-0.25428-0.004598-1.0236-0.01851-0.59781-0.060725-0.84773-0.071525-0.51236-0.10177-0.42112-0.094459-0.30067-0.13048-0.35425-0.404-0.94573-0.77706-1.7102-0.17874-0.46748-0.11071-0.37457-0.096176-0.48088-0.043587-0.38925-0.021133-0.46394 0.002994-1.0747-0.013333-0.5075-0.036-0.53713-0.061169-0.50033-0.095329-0.47774-0.058549-0.21151-0.087954-0.25883-0.096738-0.23357-0.075607-0.15165-0.11022-0.17893-0.10119-0.13047-0.13609-0.1408-0.16432-0.13227-0.1851-0.11386-0.20756-0.096485-0.20439-0.068112-0.21236-0.046912-0.226-0.030766-0.39244-0.022169-1.101 0.0203-0.46923-0.001974-1.1785-0.043712-0.37634 0.003673-0.37083 0.040566-0.43308 0.084478-0.33096 0.087401-0.83459 0.2486-0.40291 0.098417-0.22476 0.040291-0.26389 0.028931-0.24933 0.005499-0.26282-0.020379-0.22776-0.045301-0.17038-0.055146-0.16968-0.074868-0.23925-0.1388-0.23916-0.18548-0.30295-0.28725-0.6784-0.75379-0.49007-0.6082-0.093188-0.12662-0.089116-0.14302-0.062786-0.12225-0.047543-0.13149-0.024222-0.13973 0.001335-0.12764 0.015783-0.098359 0.081968-0.2221 0.085043-0.14985 0.097903-0.14131 0.16768-0.20308 0.10602-0.11221 0.19093-0.17994 0.25364-0.20916 0.26491-0.19886 0.54551-0.39026 0.8622-0.59607 0.29347-0.22622 0.19434-0.16706 0.32844-0.32661 0.15694-0.18247 0.18375-0.2378 0.34334-0.49582 0.93936-1.453 0.28161-0.39847 0.60956-0.81062 0.33982-0.4857 0.23634-0.39174 0.076476-0.14548 0.16479-0.3691 0.1371-0.41127 0.096776-0.45649 0.031903-0.29516 0.009001-0.21902-0.004125-0.308-0.053433-0.93769-0.005121-0.34582 0.007792-0.17659 0.032907-0.24261 0.028994-0.097793 0.047834-0.066607 0.022338-0.00448 0.60069-0.74833 1.1803-1.4339 0.26459-0.36265 0.078727-0.12368 0.1214-0.22749 0.080013-0.20904 0.039044-0.15677 0.024299-0.16049 0.011451-0.16553-0.004082-0.33672-0.085324-1.0802-0.020288-0.50217 0.017405-0.35367 0.051598-0.28941 0.043035-0.14202 0.056933-0.13959 0.15006-0.26947 0.21125-0.28432 0.44236-0.49358 0.042113-0.037874 0.064884-0.090107 0.19238-0.31556 0.55187-1.0352 0.12201-0.18964 0.12038-0.1543 0.17144-0.17441 0.20567-0.1585 0.1621-0.095995 0.15368-0.073356 0.28691-0.10676 0.42982-0.13991 0.34659-0.13364 0.62824-0.28907 1.4627-0.60904 0.31807-0.15094 0.19921-0.11114 0.20322-0.13148 0.16289-0.12164 0.16605-0.14085 0.24001-0.23539 0.37235-0.42914 0.34342-0.46927 0.1124-0.17639 0.17731-0.31792 0.15894-0.34805 0.1199-0.33003 0.046388-0.1609 0.043938-0.2028 0.024556-0.24981-0.007095-0.16959-0.036676-0.18934-0.1187-0.40714-0.040774-0.29377 0.006311-0.25633 0.026365-0.15174 0.060767-0.22537 0.081285-0.24907 0.15468-0.41354 0.25456-0.62519 0.15394-0.40747 0.41268-0.84835 0.16045-0.36657 0.1063-0.2852 0.092212-0.29987 0.073706-0.30933 0.22378-1.3421 0.084228-0.33276 0.067352-0.21365 0.14821-0.37934 0.11015-0.22294 0.16168-0.25833 0.079838-0.086536 0.030385-0.011135 0.01803-0.024376 0.014687-0.070236 0.004669-0.10063-0.009895-0.11916-0.028205-0.12862-0.047324-0.13122-0.083496-0.15777-0.107-0.14899-0.12577-0.13716-0.12085-0.10706-0.13037-0.094998-0.1388-0.081349-0.15307-0.069154-0.15937-0.05446-0.34851-0.077895-0.83639-0.13323-0.25009-0.065449-0.1541-0.058906-0.15207-0.07774-0.13983-0.091868-0.10061-0.079396-0.20898-0.20079-0.10762-0.12164-0.17713-0.22597-0.11458-0.16344-0.1083-0.16891-0.18267-0.32658-0.1452-0.30729-0.39988-0.97302-0.24451-0.56744-0.2142-0.43763-0.14209-0.24188-0.18946-0.2756-0.35746-0.44439-0.38226-0.42365-0.44341-0.46638 0.029226-0.04029 0.10212-0.074982 0.28496-0.17719 0.58552-0.32538 0.46904-0.23436 0.79508-0.34684 0.59969-0.23216 1.0693-0.37865 0.53873-0.20579 0.43934-0.19637 0.35964-0.19141 0.35264-0.21334 0.77936-0.52696 1.4821-1.0469 0.92628-0.68174 0.43868-0.34973 0.40012-0.34645 0.36374-0.35451 0.29356-0.33795 0.23818-0.34681 0.10829-0.20872 0.080387-0.21291 0.051202-0.24879 0.005697-0.21938-0.025976-0.22163-0.027446-0.1298-0.089893-0.29378-0.12072-0.29391-0.11044-0.22757-0.12496-0.22408-0.15624-0.24133-0.17221-0.23248-0.14914-0.18145-0.50523-0.56848-0.21798-0.27175-0.86122-1.1516-0.14876-0.23047-0.24403-0.47031-0.12574-0.30109-0.11195-0.31227-0.095062-0.30736-0.084334-0.31414-0.11808-0.52981-0.094973-0.5386-0.061963-0.4254-0.07776-0.66249-0.060718-0.67182-0.06063-1.0586 0.002886-0.40523 0.041944-0.36752 0.089227-0.35466 0.19349-0.44258 0.25056-0.4298 0.30562-0.47429 0.2191-0.31776 0.23374-0.31698 0.26659-0.33611 0.29766-0.34982 0.3185-0.335 0.24152-0.18665 0.15131-0.076784 0.13552-0.042664 0.38222-0.022482 0.42129 0.078062 0.44998 0.15183 0.47071 0.20502 0.48539 0.24256 0.49554 0.26824 2.535 1.4709 1.0091 0.55637 0.49763 0.2521 0.67531 0.30312 0.50077 0.17567 0.90978 0.25554 0.39321 0.12969 0.36741 0.16771 0.33406 0.2197 0.31626 0.25984 0.64591 0.56355 0.27323 0.20745 0.29116 0.19638 0.27863 0.16768 0.29215 0.15847 0.32068 0.15814 0.67001 0.29667 0.71822 0.29008 0.77176 0.26755 0.8448 0.2561 0.62167 0.20698 0.53954 0.21823 0.36834 0.18227 0.35268 0.21794 0.20207 0.15482 0.13405 0.1195 0.13463 0.13758 0.15084 0.18162 0.14204 0.20687 0.12341 0.22033 0.093309 0.20437 0.12318 0.34364 0.059182-0.17819 0.12921-0.30943 0.096162-0.18496 0.16484-0.27288 0.16245-0.23274 0.66909-0.84387 0.22128-0.33288 0.17128-0.36273 0.072095-0.20562 0.11067-0.43689 0.12337-0.73922 0.06893-0.22718 0.1467-0.253 0.20581-0.19894 0.25469-0.12901 0.20623-0.041719 0.097054-0.007385 0.20798 0.002694 0.4009 0.050422 0.99308 0.20508 0.69767 0.17548 0.11886 0.011781 0.14872-0.008784 0.10803-0.02958 0.18176-0.12131 0.1171-0.15378 0.095749-0.18691 0.063488-0.15627 0.045749-0.14397 0.03942-0.15226 0.060341-0.3152 0.084924-0.81842 0.054483-0.31608 0.087492-0.28714 0.13736-0.23963 0.13668-0.13177 0.11401-0.074701 0.23855-0.10914 0.45968-0.16826 0.17802-0.077698 0.20829-0.11045 0.22825-0.15577 0.32787-0.28658 0.39715-0.3808 0.29116-0.29409 0.76481-0.80869 0.19489-0.19055-0.088646-0.11338-0.91723-0.97494-0.35292-0.39297-0.42844-0.50351-0.39591-0.50523-0.34181-0.49359-0.26597-0.47292-0.15811-0.41946-0.034073-0.17298-0.009726-0.11782 0.010941-0.1784 0.1087-0.31352 0.19843-0.29477 0.25775-0.28742 0.6319-0.63494 0.33261-0.35934 0.30382-0.37267 0.25373-0.38497 0.17968-0.39716 0.057561-0.21645 0.030808-0.19875 0.010834-0.1392 0.001683-0.25441-0.022764-0.52736 0.001102-0.19864 0.022148-0.2714 0.041934-0.27328 0.069133-0.31139 0.18769-0.61179 0.05623-0.25812-0.012176-0.2209-0.052575-0.11146-0.085739-0.098585-0.14861-0.11686-0.24032-0.16382-0.19373-0.14588-0.15982-0.13626-0.14982-0.14669-0.18507-0.20675-0.18222-0.2278-0.14786-0.20059-0.2835-0.42281-0.24232-0.40757-0.23417-0.45256-0.13732-0.31117-0.11555-0.31234-0.19809-0.6737-0.14571-0.42082-0.16232-0.39606-0.18571-0.40232-0.35887-0.69011-0.21613-0.38184-0.46858-0.77297-0.46998-0.72975-1.1529-1.7345-0.47781-0.74778-0.35941-0.62516-0.13717-0.27612-0.11696-0.27431-0.092748-0.27577-0.061186-0.27333-0.017924-0.14787-0.006021-0.15929 0.008616-0.17538 0.03632-0.24276 0.048968-0.20324 0.086497-0.26958 0.094885-0.22931 0.1068-0.20954 0.21169-0.33482 0.3386-0.43625 0.01942 8.95e-4 0.039894-0.047108 0.086714-0.20152 0.14676-0.45612 0.29166-0.99423 0.12292-0.38148 0.1271-0.32621 0.14605-0.28755 0.11852-0.17072 0.10445-0.10619 0.12087-0.079866 0.12468-0.051244 0.36602-0.093895 0.17049-0.078111 0.1644-0.11493 0.093345-0.079223 0.2447-0.23838 0.229-0.25601 0.22139-0.27554 0.32141-0.46006 0.28773-0.48691 0.10713-0.20764 0.11442-0.26114 0.097316-0.31398 0.026202-0.13834 0.023717-0.21748 0.011051-0.26798 0.012455-1.2024-0.005694-0.4825-0.01685-0.26802-0.063935-0.63648-0.009213-0.22296 0.006914-0.33416 0.032887-0.33698 0.067653-0.35626 0.15799-0.58424 0.10943-0.32448 0.13424-0.2996 0.17182-0.28455 0.20328-0.25711 0.16797-0.18499 0.1793-0.17814 0.15868-0.14164 0.16514-0.13188 0.30652-0.20266 0.31518-0.1482 0.30315-0.091547 0.345-0.05789 0.60553-0.064227 0.027537 0.033307 0.055372 0.040206 0.22844 0.12557 0.20162 0.075036 0.10157 0.025265 0.13643 0.022157 0.19691 0.01287 1.005-0.009415 0.3133 0.009132 0.21762 0.0221 0.21608 0.043278 0.26226 0.079011 0.70421 0.27948 0.53667 0.2548 0.3452 0.19787 0.21216 0.15506 0.37513 0.33103 0.15385 0.12368 0.24852 0.1757 0.23326 0.14216 0.56521 0.29367 1.8445 0.85056 0.41368 0.24688 0.73157 0.50022 0.28093 0.15301 0.19402 0.07881 0.27096 0.07349 0.31127 0.037931 0.2803-0.00106 0.7284-0.045953 0.21281 0.00258 0.11564 0.016041-0.011043-0.091713 0.027096-0.026254 0.12388-0.057149 0.12913-0.03192 0.99429-0.11644 0.29597-0.028186 0.83152-0.054262 0.36649-0.035035 0.22765-0.031828 0.39253-0.078067 0.37613-0.098946 0.49327-0.1627 0.3131-0.12684 0.39674-0.19673 0.22482-0.1468 0.14678-0.11151 0.18691-0.15778 0.72078-0.66782 0.26036-0.21799 0.26051-0.19939 0.28685-0.20168 0.33434-0.21387 0.50656-0.28327 0.31555-0.15475 0.32658-0.14553 0.42048-0.17163 1.1507-0.44037 0.17484-0.078636 0.48395-0.24492 0.57577-0.25333 0.78613-0.31544 0.22868-0.077804 0.47445-0.13574 0.17874-0.10117 0.12805-0.16062 0.089118-0.21076 0.17479-0.52702 0.1449-0.30741 0.1778-0.31341 0.18238-0.29263 1.0694-1.6017 0.6834-0.90297 0.59394-0.81689 0.1484-0.18788 0.020207-0.048857 0.08273-0.11108 0.72797-0.89232 0.38779-0.53252 0.21825-0.33904 0.22791-0.39196 0.14913-0.29442 0.087219-0.20202 0.076604-0.21401 0.053735-0.19118 0.040189-0.20014 0.026315-0.24847 0.004188-0.29381-0.016707-0.30425-0.028983-0.28153-0.057635-0.32861-0.10738-0.36982-0.077901-0.203-0.094893-0.20254-0.20656-0.3558-0.13151-0.1937-0.17669-0.23523-0.25443-0.30615-0.38414-0.41983-2.1407-2.1926-0.21804-0.24274-0.19968-0.25016-0.18569-0.27905-0.058789-0.10904-0.060353-0.14167-0.049491-0.21443 2.97e-4 -0.14345 0.014593-0.083314 0.047625-0.13871 0.09761-0.17241 0.14293-0.17816 0.14163-0.14105 0.19515-0.1639 0.26934-0.1917 0.2488-0.15407 0.23877-0.13326 0.28874-0.14656 0.5755-0.25325 0.4931-0.18406 1.085-0.37538 0.36506-0.14277 0.269-0.11972 0.33629-0.17849 0.36618-0.26523 0.20464-0.21375 0.14556-0.1891 0.17907-0.2672 0.22905-0.36886 0.15314-0.27565 0.155-0.36561 0.064666-0.19382 0.11441-0.42507 0.10847-0.56138 0.065822-0.57533 0.016947-0.35997-0.002481-0.34906-0.092055-1.6269-0.024658-0.9599 0.002896-0.42878 0.020892-0.59013 0.046684-0.61681 0.055136-0.47905 0.083025-0.54715 0.096418-0.50962 0.19528-0.84199 0.17638-0.64739 0.19615-0.63544 0.12926-0.35561 0.046485-0.080323 0.082765-0.022792 0.1954 0.055261 0.17681 0.075757 1.2917 0.62336 0.38988 0.16954 0.39065 0.15344 0.3876 0.13031 0.382 0.099332 0.37457 0.058982 0.27348 0.013129 0.17541-0.003407 0.42127-0.039101 0.26868-0.048931 0.72413-0.1822 0.5105-0.10701 0.5505-0.071444 0.18925-0.034714 1.74-0.46222 0.32617-0.1011 0.19659-0.086301 0.16724-0.087705 0.70772-0.42405 0.23118-0.15367 0.26784-0.2243 0.12183-0.12584 0.13043-0.15041 0.20456-0.26829 0.12064-0.17685 0.22327-0.36489 0.41332-0.79609 0.12282-0.22314 0.13336-0.19897 0.16809-0.19076 0.20641-0.17508 0.19948-0.1157 0.21866-0.085149 0.23172-0.055678 0.26952-0.03226 0.31608-0.016779 0.43959 0.005933 0.29303 0.026564 0.25683 0.04848 0.94616-0.14131 0.36652-0.030913 0.20584-0.006539 0.3012 0.010233 0.19804 0.02884 0.12392 0.0305 0.18352 0.063008" stroke="#bdc660"/>
    </defs>
    <g clip-path="url(#p9b76d0c3dd)">
     <use y="280.512" fill="#bdc660" stroke="#bdc660" xlink:href="#m7342f622de"/>
    </g>
   </g>
  </g>
 </g>
 <defs>
  <clipPath id="p9b76d0c3dd">
   <rect x="7.2" y="7.2" width="347.34" height="266.11"/>
  </clipPath>
 </defs>
</svg>
