<?xml version="1.0" encoding="UTF-8"?>
<!DOCTYPE svg  PUBLIC '-//W3C//DTD SVG 1.1//EN'  'http://www.w3.org/Graphics/SVG/1.1/DTD/svg11.dtd'>
<svg width="190.6pt" height="280.51pt" version="1.1" viewBox="0 0 190.6 280.51" xmlns="http://www.w3.org/2000/svg" xmlns:xlink="http://www.w3.org/1999/xlink">
 <metadata>
  <rdf:RDF xmlns:cc="http://creativecommons.org/ns#" xmlns:dc="http://purl.org/dc/elements/1.1/" xmlns:rdf="http://www.w3.org/1999/02/22-rdf-syntax-ns#">
   <cc:Work>
    <dc:type rdf:resource="http://purl.org/dc/dcmitype/StillImage"/>
    <dc:date>2024-07-04T12:10:26.726926</dc:date>
    <dc:format>image/svg+xml</dc:format>
    <dc:creator>
     <cc:Agent>
      <dc:title>Matplotlib v3.7.1, https://matplotlib.org/</dc:title>
     </cc:Agent>
    </dc:creator>
   </cc:Work>
  </rdf:RDF>
 </metadata>
 <defs>
  <style type="text/css">*{stroke-linejoin: round; stroke-linecap: butt}</style>
 </defs>
 <g id="figure_1">
  <g id="patch_1">
   <path d="m0 280.51h190.6v-280.51h-190.6v280.51z" fill="none"/>
  </g>
  <g id="axes_1">
   <g id="PatchCollection_1">
    <defs>
     <path id="m3581530d3e" d="m158.44-261.04 1.0206 1.8855 0.59888 1.1968 0.27816 0.60566 0.25368 0.60461 0.22119 0.6025 0.17933 0.60104 0.12599 0.60146 0.061201 0.54943 0.021263 0.55054-0.005053 0.55054-0.061899 1.6452-0.004511 0.56396 0.012652 0.56048 0.031714 0.55551 0.054112 0.54875 0.081556 0.53976 0.11608 0.52792 0.1601 0.51248 0.22404 0.52022 0.26985 0.50403 0.30244 0.49264 0.32447 0.48514 1.0239 1.4408 0.33402 0.48444 0.31759 0.49126 0.29166 0.50151 0.25402 0.51586 0.21289 0.55265 0.16722 0.56688 0.12789 0.57549 0.090885 0.57908 0.052209 0.57786 0.007647 0.57165-0.047436 0.55991-0.11832 0.54168-0.19977 0.51306-0.26671 0.49399-0.31531 0.47996-0.35006 0.46978-0.37448 0.46252-0.79405 0.91137-1.2432 1.351-3.7879 4.0437-0.82835 0.90359-0.79745 0.90743-0.3753 0.45572-0.34901 0.45747-0.31054 0.45963-0.25518 0.46228-0.17667 0.46552-0.066965 0.46944 0.064627 0.45659 0.1726 0.46149 0.25571 0.46693 0.31961 0.47285 0.36876 0.47905 0.40645 0.48514 0.43492 0.49042 0.92276 0.98704 1.9823 2.0284 0.076369 0.10742 0.10261 0.078727 0.17385 0.17231 0.20635 0.23361 0.15394 0.19616 0.14417 0.20824 0.12851 0.22023 0.099537 0.22099 0.046844 0.14861 0.021876 0.10837 0.007625 0.18441-0.019434 0.1281-0.058137 0.17455-0.1198 0.21889-0.20532 0.26492-0.1942 0.20119-0.28277 0.25047-0.26966 0.21141-1.2445 0.87142-0.17708 0.14135-0.1967 0.1813-0.2099 0.24432-0.14556 0.22834-0.11499 0.25531-0.081884 0.29198-0.037901 0.28085-0.005571 0.24237 0.010514 0.18428 0.045306 0.32224 0.050132 0.22442 0.10966 0.35784 0.20066 0.48258 0.10565 0.21059 0.20864 0.3659 0.25375 0.38647 0.36553 0.48314 0.33464 0.38314 0.2201 0.22705 0.4612 0.42647 0.6511 0.52613 0.8639 0.66744 0.29616 0.24929 0.3529 0.32541 0.26207 0.2744 0.14659 0.17314 0.14104 0.1864 0.20889 0.32939 0.19632 0.41227 0.10435 0.30177 0.088479 0.35666 0.064489 0.37894 0.036687 0.29008 0.050286 0.5615 0.01492 0.35306-0.004818 0.38657-0.036191 0.35191-0.069101 0.31339-0.059518 0.18594-0.13678 0.32546-0.1708 0.31439-0.12893 0.20465-0.50069 0.7324-0.13087 0.22756-0.10691 0.23212-0.064489 0.18496-0.053449 0.22313-0.024062 0.18082-0.007014 0.22127 0.007852 0.14139 0.044735 0.28733 0.095204 0.32196 0.14346 0.32059 0.14584 0.24795 0.14148 0.19904 0.23563 0.27042 0.23179 0.20524 0.16708 0.1074 0.099174 0.034254 0.033397-0.005077-0.005947 0.047765 0.026634 0.23898 0.044722 0.21627 0.053487 0.18171 0.083824 0.23635 0.2469 0.61335 0.4014 0.91194 0.071433 0.18815 0.099204 0.3146 0.084063 0.33471 0.20551 1.0263 0.11477 0.52035 0.14355 0.51488 0.16968 0.5067 0.18975 0.49583 0.20508 0.48226 0.21685 0.46572 0.41988 0.80939 0.20793 0.42036 0.19852 0.43823 0.36656 0.88143 0.69536 1.786 0.37451 0.9313 0.24286 0.55983 0.39334 0.8528 0.66306 1.3603 0.26673 0.65656 0.25169 0.7426 0.19516 0.70604 0.48445 2.1226 0.13748 0.71429 0.070387 0.47382 0.083468 0.81321 0.02899 0.46673 0.017371 0.51823-0.006766 0.88116-0.040234 0.60426-0.032602 0.27187-0.046536 0.27608-0.059247 0.25527-0.099919 0.30593-0.14887 0.31074-0.23694 0.34144-0.28934 0.31389-0.28187 0.2514-0.30687 0.2367-0.36278 0.24632-0.38239 0.23325-0.3975 0.22273-0.40856 0.21359-0.60507 0.29308-0.53922 0.24226-1.5168 0.63382-1.7854 0.67654-1.0952 0.44336-1.4083 0.60522-1.0605 0.49458-0.49473 0.25914-0.30243 0.17664-0.28174 0.18451-0.23487 0.17666-0.20918 0.18564-0.19274 0.21407-0.050277 0.067973-0.1557 0.28648-0.079177 0.33242-0.004767 0.34856 0.043064 0.33052 0.072555 0.32969 0.16156 0.57433 0.13386 0.41224 0.099444 0.22299 0.11568 0.22257 0.18529 0.32252 0.21267 0.30569 0.25419 0.26851 0.29736 0.21288 1.0119 0.54038 0.31136 0.22528 0.27325 0.28486 0.23862 0.33124 0.21539 0.36097 0.55419 1.0415 0.1426 0.29225 0.14153 0.3653 0.11065 0.37915 0.082227 0.38476 0.054964 0.38259 0.055796 0.59012 0.040344 0.27987 0.10657 0.52364 0.12962 0.49825 0.13768 0.46268 0.45493 1.4221 0.14177 0.48029 0.09836 0.37568 0.10588 0.49366 0.24263 1.3929 0.17078 1.1532 0.011588 0.12217 0.009132 0.46254-0.058667 0.39178-0.11768 0.39043-0.16812 0.38406-0.21289 0.37194-0.25468 0.35307-0.29213 0.32634-0.32205 0.30202-0.34281 0.27846-0.35582 0.25412-0.45694 0.28257-0.4422 0.22533-0.2011 0.076884-0.33484 0.096549-0.35662 0.072597-1.087 0.15984-0.54167 0.092347-0.37016 0.074345-0.36462 0.086454-0.33466 0.095437-0.32119 0.11152-0.44684 0.20497-0.22632 0.13978-0.20274 0.16041-0.29587 0.33095-0.251 0.37447-0.24411 0.39012-0.2722 0.37683-0.30661 0.32548-0.331 0.27927-0.32128 0.22091-0.26776 0.14193-0.1613 0.027634 0.068694 0.16294 0.17839 0.32483 0.2533 0.39945 0.3053 0.41028 0.343 0.37364 0.37283 0.29836 0.39971 0.1877 0.21622 0.043652 0.38265 0.0014 0.44898-0.080072 0.33755-0.096032 1.142-0.40473 0.35221-0.10761 0.4359-0.08061 0.45948-0.025969 0.47252 0.032703 0.33668 0.0605 0.37637 0.097362 0.35212 0.11283 0.58087 0.22349 0.64938 0.2961 0.45574 0.23168 0.44111 0.24332 0.42063 0.2536 0.33935 0.22819 0.30959 0.2473 0.26929 0.27891 0.17085 0.23777 0.14594 0.25929 0.13085 0.29022 0.11353 0.30584 0.15586 0.50849 0.33762 1.2559 0.23254 0.74937 0.16141 0.43654 0.17839 0.4324 0.29986 0.65605 0.25158 0.50216 0.26544 0.49643 1.3105 2.2829 0.76658 1.4031 0.48121 0.94862 1.0204 2.1368 0.52612 1.0758 0.59222 1.1222 0.31203 0.55021 0.32332 0.53651 0.33558 0.5143 0.34898 0.47947 0.36338 0.42694 0.37789 0.35155 0.39013 0.25055 0.27997 0.10952 0.81139 0.20639 0.11864 0.04658 0.053605 0.041449-0.18023 0.17462-0.39805 0.42849-0.31762 0.36368-0.43448 0.54562-1.1591 1.6397-0.25109 0.39024-0.21787 0.38769-0.12339 0.25851-0.26996 0.62684-0.13741 0.36778-0.098722 0.36898-0.039807 0.29322-0.006649 0.29142 0.017774 0.23772 0.024204 0.16413 0.026561 0.13384 0.097933 0.36593 0.1647 0.5371 0.070526 0.31157 0.027611 0.18807 0.003116 0.22096-0.020036 0.13734-0.031644 0.1074-0.15126 0.27001-0.41582 0.49699-0.23464 0.31331-0.23694 0.35058-0.32306 0.50905-0.52333 0.87548-0.98359 1.4808-0.41713 0.68984-0.33493 0.60968-0.30521 0.6281-0.23969 0.53808-0.48422 1.1687-0.20265 0.43694-0.26431 0.51571-0.30243 0.51915-0.52566 0.82594-0.24883 0.35758-0.20261 0.25079-0.25297 0.26929-0.3584 0.32074-0.34811 0.27088-1.2018 0.83493-0.45473 0.34048-0.19607 0.16603-0.21579 0.2079-0.16104 0.18181-0.15443 0.20844-0.15525 0.27726-0.059128 0.1383-0.098268 0.29342-0.096578 0.41275-0.1753 0.93771-0.15773 0.54253-0.16983 0.4332-0.20913 0.43852-0.22553 0.39372-0.22061 0.33003-1.0494 1.3895-0.14387 0.21409-0.54466 0.88079-0.28912 0.37589-0.32972 0.36022-0.35889 0.33841-0.37569 0.30786-0.17667 0.12923-0.40203 0.25191-0.37396 0.18933-0.2943 0.11616-0.14556 0.022995-0.10291 0.035848-1.084 0.2906-0.9353 0.26322-0.87778 0.27371-0.61898 0.22923-0.44232 0.19043-0.39574 0.19033-0.31692 0.18338-0.25423 0.19254-0.21128 0.21695-0.18735 0.2408-0.50597 0.74561-0.17844 0.24005-0.18824 0.22911-0.19937 0.21357-0.27722 0.25171-0.68294 0.5491-0.18324 0.17105-0.31048 0.35934-0.16128 0.17006-0.074665 0.065557-0.20183 0.14797-0.2218 0.13468-0.7759 0.4013-0.31439 0.12403-1.0648 0.32379-0.37085 0.12365-0.3677 0.14922-0.34424 0.17538-0.3375 0.20302-0.33278 0.22423-0.65718 0.49122-0.65012 0.51903-0.63045 0.51656-0.30964 0.2875-0.29406 0.30464-0.27432 0.30929-0.45298 0.56058-0.20221 0.27802-1.9186-1.5432-0.47136-0.47485-0.60023-0.55867-0.41303-0.3542-0.40721-0.30953-0.20059-0.12907-0.19874-0.10528-0.1972-0.074627-0.19608-0.035101-0.19696 0.011926-0.19373 0.052648-0.18794 0.085293-0.68298 0.4421-0.31265 0.17264-0.22002 0.10014-0.36255 0.1315-0.73531 0.20788-0.31312 0.066188-0.68499 0.11434-0.2051 0.048819-0.35664 0.11441-0.71424 0.29441-0.70106 0.26365-0.35018 0.14642-0.36388 0.17998-0.80843 0.46844-0.33579 0.1732-0.15936 0.05862-0.089687 0.020792-0.070516 0.006361-0.055132-0.021655 0.040223 0.18531-0.066836 0.2084-0.16783 0.17775-0.13576 0.067607-0.13763 0.041637-0.18309 0.035694-0.27984 0.036516-2.4263 0.23911-0.4337 0.053456-0.89542 0.13953-0.52186 0.066364-1.0502 0.1068-0.50983 0.071464-0.48684 0.10546-0.24472 0.076186-0.17591 0.069903-0.40406 0.22157-0.52896 0.38774-0.74397 0.61909-0.38565 0.28508-0.40435 0.24301-0.21386 0.1008-0.35235 0.12238-0.36136 0.070793-0.36578 0.013153-0.44005-0.065559-0.43649-0.13843-0.42912-0.19312-0.41745-0.2332-0.31183-0.20028-1.0092-0.73018-0.32738-0.20789-0.31735-0.14888-0.30813-0.06437-0.1481 0.006745-0.16766 0.034956-0.1701 0.058835-0.21444 0.10149-0.2228 0.13326-0.21955 0.1512-0.36915 0.28377-0.28399 0.2452-0.24815 0.25141-0.11997 0.1424-0.117 0.16171-0.19333 0.34959-0.32603 0.73105-0.2002 0.34482-0.29414 0.34375-0.35221 0.31007-1.148 0.84434-0.3417 0.2744-0.27152 0.20233-1.046 0.6934-0.25555 0.16176-0.42096 0.23073-0.78361 0.36717-0.36831 0.18362-0.32553 0.20299-0.25931 0.23818-0.07697 0.1041-0.076153 0.13195-0.11005 0.27017-0.071343 0.26483-0.096667 0.48684-0.077405 0.2574-0.10357 0.22241-0.13669 0.204-0.14608 0.16888-0.18339 0.17856-0.68553 0.58123-0.16081 0.14693-0.7278 0.75108-0.30801 0.26645-0.66116 0.51392-0.32056 0.26882-0.2912 0.29208-0.24296 0.32847-0.19245 0.40842-0.13049 0.4545-0.084549 0.48906-0.051665 0.51443-0.02955 0.53242-0.043663 1.649-0.02643 0.55106-0.04675 0.54392-0.093946 0.61618-0.1147 0.46553-0.061355 0.19981-0.1918 0.51245-0.12381 0.26821-0.13779 0.257-0.12414 0.20196-0.12284 0.17712-0.15889 0.20141-0.12546 0.1399-0.14824 0.1455-0.29659 0.23303-0.39937 0.21152-0.43273 0.14358-0.45227 0.085729-0.45951 0.033717-0.45524-0.016392-0.43961-0.068303-0.40029-0.11149-0.5448-0.17154-1.058-0.28058-0.3711-0.11961-0.43923-0.16088-0.65484-0.26471-0.42527-0.21434-0.27256-0.18753-0.36582-0.27481-0.22434-0.13162-0.29178-0.096571-0.31234-0.03423-0.31436 0.026106-0.29752 0.08793-0.26074 0.15482-0.1514 0.15039-0.12861 0.17744-0.092956 0.16283-0.12849 0.29993-0.24818 0.70851-0.11135 0.23611-0.05028 0.086981-0.1213 0.17044-0.13833 0.13978-0.1155 0.081333-0.10033 0.051283-0.14082 0.045154-0.080946 0.013802-0.21347-0.004676-0.25051-0.068953-0.16821-0.071639-0.1075-0.056126-0.16815-0.11108-0.26451-0.24223-0.34409-0.37281-0.24456-0.24521-0.26078-0.23303-0.38994-0.29345-0.25749-0.15086-0.4849-0.2369-0.44138-0.23729-0.11835-0.040397-0.090671-0.010896-0.063984 0.005745-0.050598 0.013827-0.077184 0.038281-0.1021 0.083257-0.10085 0.11667-0.10204 0.16452-0.089847 0.23083-0.11468 0.5234-0.058612 0.2187-0.089793 0.26331-0.11273 0.28921-0.40517 0.84271-0.47928 0.89658-0.31696 0.71311-0.18642 0.31942-0.17081 0.19932-0.20089 0.1687-0.20487 0.13269-0.56698 0.31549-0.30141 0.1933-0.34656 0.27302-0.46705 0.39675-0.12397 0.083427-0.1626 0.079989-0.13518 0.035059-0.075649 0.005359-0.16311-0.018895-0.18425-0.063292-0.15223-0.081771-0.81988-0.55428-0.41241-0.26167-0.6301-0.36679-0.76534-0.46192-0.96477-0.54554-1.2162-0.73077-0.3782-0.21115-0.29061-0.14241-0.20202-0.086754-0.7887-0.28466-1.8074-0.69923-0.18328-0.07777-0.29221-0.14404-0.32496-0.20326-0.26651-0.20952-0.18293-0.18382-0.062227-0.12176-1.2381-1.9308-0.16401-0.23725-0.090092-0.10723-0.10222-0.085973-0.05846-0.028683-0.1221-0.019834-0.20495 0.022244-0.24036 0.059315-0.14055 0.053379-1.4825 0.47092-0.63473 0.21484-0.69529 0.24939-0.60815 0.2334-0.65661 0.27554-0.56621 0.26513-0.51644 0.26563-0.49952 0.2784-0.48188 0.28978-0.49628 0.32325-0.32988 0.23061-0.53081 0.39583-0.51904 0.41706-0.45729 0.40382-0.28613 0.28352-0.27533 0.3208-0.16962 0.24665-0.18129 0.35573-0.13653 0.37854-0.10222 0.39373-0.076609 0.40218-0.12864 0.91559-0.090452 0.45572-0.031346 0.11419-0.17975 0.4772-0.24026 0.46477-0.28332 0.4552-0.31204 0.44781-1.3129 1.7444-0.2947 0.42826-0.57888 0.88029-0.9424 1.3829-0.54382 0.77558-0.31565 0.43183-0.35377 0.45879-1.1059 1.3587-0.41193 0.53052-0.2976 0.41328-0.20772 0.32058-0.14784 0.27163-0.12992 0.28318-0.079985 0.2007-0.14112 0.42418-0.1029 0.40464-0.059259 0.309-0.077848 0.57788-0.036996 0.42447-0.055984 0.86914-0.025925 0.24128-0.038428 0.2269-0.12853 0.38239-0.16023 0.23629-0.12109 0.12385-0.11958 0.098296-0.12404 0.084149-0.079514 0.046399-0.29378 0.13835-0.72287 0.27916-0.38296 0.16254-0.32798 0.15499-0.29082 0.15444-1.1756 0.7157-0.37791 0.25471-0.34416 0.27277-0.28973 0.29911-0.12551 0.17222-0.083419 0.13296-0.32116 0.56639-0.33473 0.53695-0.16985 0.24033-0.65598 0.84958-0.21302 0.33986-0.16855 0.33238-0.12968 0.3244-0.1093 0.32945-0.1643 0.55611-0.050835 0.1988-0.062686 0.32027-0.084532 0.55791-0.06863 0.37167-0.083689 0.32675-0.22846 0.79602-0.041874 0.19486-0.054595-0.005141-0.13239 0.026758-0.34025 0.1095-0.17109 0.080573-0.090713 0.059136-0.074956 0.064598-0.10281 0.12944-0.066766 0.12037-0.057175 0.13288-0.22759 0.73027-0.054675 0.14728-0.064359 0.13778-0.13267 0.19362-0.075 0.073127-0.15801 0.10386-0.18446 0.076466-0.20471 0.056262-0.26656 0.049507-1.0416 0.118-0.45784 0.077974-0.22792 0.052419-0.20579 0.055721-0.37169 0.12176-1.3053 0.53216-0.23134 0.080127-0.22976 0.064903-0.15642 0.032988-0.15542 0.021535-0.22502 0.010065-0.18145-0.003826-0.30825-0.023552-0.34659-0.055576-0.37144-0.10175-1.1676-0.43209-0.3373-0.099361-1.6477-0.32841-0.54899-0.073894-0.54792-0.049399 0.006863-0.81659-0.009495-0.34978-0.043783-0.50517-0.079754-0.50054-0.073824-0.34188-0.11131-0.42259-0.098295-0.31878-0.33238-0.96526-0.077998-0.25559-0.079414-0.32898-0.058325-0.40074-0.036493-0.63761 0.007214-0.68832 0.027047-0.47083 0.1404-1.5828 0.027717-0.73145-0.013986-0.42676-0.066405-0.60344-0.08683-0.41096-0.14117-0.4491-0.20448-0.4791-0.16966-0.31705-0.25659-0.40101-0.1933-0.2645-0.71498-0.9117-0.60361-0.73156-0.21414-0.2799-0.20299-0.29354-0.30381-0.49782-0.6326-1.1134-0.27389-0.52412-0.16345-0.36183-0.11983-0.33598-0.096757-0.37233-0.066261-0.41982-0.014514-0.37117 0.021818-0.2895 0.047984-0.28092 0.2729-1.0406 0.066989-0.30711 0.058995-0.33527 0.033732-0.31342 0.005871-0.20185-0.024826-0.30529-0.021205-0.1115-0.047785-0.17587-0.082287-0.22052-0.099475-0.20768-0.13198-0.22077-0.15722-0.21217-0.1806-0.21173-0.64809-0.66192-0.11626-0.13406-0.18904-0.25982-0.084383-0.14052-0.14349-0.29016-0.1568-0.42026-0.092005-0.31833-0.080035-0.3383-0.24959-1.3014-0.12229-0.4599-0.17195-0.42904-0.17252-0.29529-0.20203-0.27799-0.37599-0.45093-0.4869-0.54492-0.70232-0.88603-0.28644-0.31422-0.31671-0.26607-0.14683-0.096987-0.12381-0.067099-0.093417-0.037987-0.1306-0.02359-0.074771 0.033629 5.1514-10.554 0.54152-1.1339 1.2486-2.6829 0.66478-1.4026 0.13193-0.26527 0.38036-0.69289 0.11291-0.33933 0.016219-0.2792-0.042529-0.28719-0.068785-0.22779-0.095341-0.22346-0.084525-0.16017-0.18136-0.2996-0.22663-0.32288-0.25269-0.30501-0.35502-0.37047-0.27114-0.31959-0.25214-0.35234-0.21112-0.36578-0.12706-0.29195-0.087525-0.28504-0.056167-0.40772 0.007807-0.2299 0.047565-0.29264 0.087851-0.29919 0.12941-0.30875 0.075487-0.14882 0.13268-0.23122 0.15513-0.2402 0.17337-0.24204 0.16888-0.21354 0.33643-0.36833 0.16537-0.15882 0.31458-0.27579 0.42201-0.32785 0.23774-0.15877 0.59638-0.328 0.2481-0.14396 0.16658-0.11363 0.12477-0.097283 0.19266-0.1757 0.19861-0.23196 0.16093-0.25426 0.054958-0.11215 0.03342-0.080448 0.079591-0.26495 0.06798-0.44173 0.056332-0.73015 0.051267-0.42575 0.004249-0.11305-0.034763-0.17603-0.062776-0.23748-0.37907-1.2978-0.10972-0.42539-0.087862-0.4457-0.064874-0.53113-0.034882-0.54366-0.036081-1.0992-0.029339-0.54641-0.055709-0.53988-0.083709-0.48703-0.11156-0.47872-0.13382-0.46972-0.15206-0.46192-0.1796-0.48142-0.12376-0.3015-0.28809-0.63792-0.22092-0.44187-0.43096-0.81252-0.13637-0.27958-0.20049-0.4586-0.10032-0.28895-0.077463-0.36134-0.025198-0.36801 0.00666-0.17868 0.034426-0.30708 0.11869-0.57817 0.32554-1.2717 0.04595-0.27135 0.075335-0.63121 0.055982-0.36146 0.059039-0.24186 0.07242-0.20144 0.16735-0.3032 0.19772-0.25597 0.32584-0.34907 0.10376-0.1412 0.074994-0.19025 0.021153-0.29047-0.060519-0.7384 0.015365-0.33706 0.048587-0.23029 0.10973-0.35136 0.061196-0.17242 0.10746-0.25516 0.56935-1.0326 0.12686-0.21539 0.50578-0.76765 0.2161-0.4145 0.10952-0.3188 0.072007-0.33616 0.044941-0.44386 0.021272-0.90648 0.026372-0.44533 0.072369-0.42746 0.12671-0.37446 0.16954-0.35604 0.19104-0.3432 0.19017-0.31486 0.22342-0.29916 0.15689-0.16374 0.30175-0.25761 0.2619-0.19085 0.37501-0.24344 0.32406-0.19301 1.4511-0.80982 0.53604-0.31776 0.56647-0.37736 0.20341-0.15108 0.11313-0.1122 0.010919-0.025925-0.009255-0.023263-0.013267-0.088287-0.058245-0.09073-0.090469-0.1059-0.17497-0.16092-0.21528-0.16604-0.71402-0.49462-0.66736-0.52297-0.32466-0.21896-0.36191-0.18783-0.43358-0.18225-0.77214-0.27908-0.25182-0.10956-0.21178-0.12317-0.19938-0.1446-0.35448-0.28773-1.2533-1.0681-0.16671-0.15398-0.19198-0.22175-0.13509-0.1939-0.56665-0.86094-0.28287-0.45913-0.30377-0.54211-0.49786-0.97976-0.56797-1.0688-0.20951-0.36465-0.17709-0.2837-0.33236-0.49982-0.70146-0.9123-0.12006-0.14448-0.31742-0.33992-0.17612-0.16869-0.22175-0.18315-0.24774-0.17335-0.51752-0.33827-0.10746-0.081111-0.11409-0.1176-0.022213-0.055328 0.007088-0.020524-0.017784-0.051184 6.03e-4 -0.1985 0.041967-0.47911 0.082686-0.61867 0.11993-0.71338 0.094879-0.47946 0.117-0.5018 0.35684-1.2754 0.15709-0.6505 0.13458-0.73497 0.10991-0.83278 0.030153-0.34424 0.027825-0.55242 0.003695-0.89236-0.042619-0.78246-0.05161-0.4807-0.057897-0.39414-0.05817-0.31168-0.14039-0.60674-0.1219-0.42511-0.15839-0.46416-0.17659-0.43768-0.14466-0.31032-0.10913-0.20956-0.24894-0.41673-0.22154-0.32646-0.41211-0.53968-0.41117-0.47454-0.2379-0.25338-0.40648-0.39559-0.23148-0.19948-0.17733-0.13865-0.52641-0.37442-0.32515-0.25386-0.1384-0.13519-0.085146-0.10454-0.073634-0.12292-0.045725-0.1173-0.031766-0.23869 0.025386-0.35894 0.083555-0.62331 0.020543-0.21807 0.008036-0.21406-0.014123-0.68515 0.03118-0.31531 0.045071-0.20424 0.1035-0.31101 0.15881-0.29565 0.17899-0.21559 0.10075-0.094352 0.24736-0.18658 0.2242-0.1406 1.3356-0.74561 0.45458-0.29222 0.37076-0.2596 0.40342-0.31063 0.40154-0.35614 0.31096-0.31618 0.32543-0.38471 0.25658-0.40263 0.11027-0.25886 0.09419-0.35272 0.14328-1.0114 0.046299-0.18698 0.067424-0.17022 0.10363-0.16525 0.13314-0.15515 0.42677-0.41377 0.13537-0.15441 0.088927-0.12775 0.086939-0.17652 0.055103-0.20166 0.023815-0.19926 0.004692-0.1301-0.007167-0.25337-0.022392-0.25126-0.054048-0.36266-0.080231-0.38901-0.11896-0.46814-0.11777-0.40695-0.35921-1.1565-0.23257-0.68759-0.374-0.94464-0.24864-0.56698-0.2992-0.63208-0.72244-1.3916-0.86781-1.571-0.24567-0.48729-0.11666-0.2654-0.096086-0.25066-0.12938-0.41526-0.058166-0.28252-0.013541-0.11886-0.002779-0.17025 0.022371-0.12559 0.076234-0.076162 0.016218 0.011325 0.073098 0.010799 0.11755-0.00219 0.24321-0.031269 0.23043-0.053274 0.27678-0.091457 0.26717-0.11845 0.21447-0.11972 0.19026-0.12658 0.18224-0.13729 0.738-0.57993 0.65868-0.48928 0.29657-0.24773 0.17509-0.18459 0.085985-0.11175 0.12367-0.18992 0.45304-0.85817 0.17865-0.26689 0.19881-0.25763 0.20357-0.23529 0.27864-0.287 0.15053-0.13388 0.58521-0.46233 0.28198-0.25464 0.23776-0.27747 0.17649-0.27133 0.14622-0.27179 0.061122-0.14318 0.038688-0.11599 0.047439-0.20467 0.023443-0.21074 0.004437-0.21424-0.031092-0.70557 0.017902-0.28378 0.074376-0.2609 0.035275-0.068765 0.10064-0.14481 0.12683-0.13624 0.14932-0.13021 0.1714-0.12764 0.18793-0.12382 0.35878-0.20662 0.29882-0.1477 0.31742-0.13602 0.47245-0.16789 1.8131-0.52554 2.3555-0.78029 0.50965-0.18951 0.54804-0.24276 0.30121-0.15892 0.17823-0.10575 0.21971-0.15798 0.019924-0.039039 0.035642-0.050333 0.011541-0.15139-0.007712-0.24727-0.030744-0.31975-0.048674-0.34629-0.24716-1.4601-0.066713-0.61481-0.011673-0.31212 0.008106-0.3168 0.033206-0.3325 0.052552-0.32216 0.074173-0.34401 0.097211-0.33019 0.14185-0.34691 0.24704-0.46108 0.14739-0.22958 0.92295-1.3021 0.29864-0.45044 0.42924-0.56304 0.22488-0.31965 0.12684-0.23682 0.070295-0.15625 0.11917-0.32957 0.072075-0.35008 0.013189-0.26527-0.020088-0.35809-0.086587-0.60795-0.23634-1.289-0.043075-0.3803-0.014169-0.38461 0.019458-0.48204 0.1749-1.777 0.062598-1.0389 0.050475-0.61694 0.055161-0.3501 0.077422-0.36704 0.086926-0.37374 0.17391-0.66903 0.033161-0.26196-0.002813-0.20705-0.048779-0.50977-0.075156-0.63507-0.048029-0.25937-0.20222-0.80137-0.08423-0.2725-0.072945-0.19796-0.13027-0.28695-0.32335-0.57724-0.13296-0.27992-0.13324-0.36794-0.064307-0.23733-0.06423-0.29029-0.074947-0.38644-0.1509-0.90305-0.14276-0.6367-0.093135-0.28181-0.27152-0.69708-0.14877-0.43173-0.23199-0.76494-0.21541-0.77069-0.1911-0.63477-0.37774-1.1595-0.17425-0.49656-0.18329-0.47944-0.19526-0.45111-0.28377-0.54394-0.22946-0.33843-0.25038-0.25111-0.75232-0.47601-0.7856-0.35698-0.28569-0.26182-0.11907-0.40467 0.095168-0.4285 0.47605-0.35713 2.2488-0.67173 1.7983-0.17593 1.6797-0.13116 0.9637-0.052884 0.87072-0.032966 3.9787-0.060301 1.0923-0.032021 0.79912-0.047085 0.3163-0.038339 0.064499-0.024478-0.046455-0.089066-0.017508-0.19472 0.020122-0.25586 0.045119-0.21151 0.069119-0.21908 0.2545-0.61202 0.14241-0.36992 0.15054-0.42241 0.12111-0.37837 0.12601-0.47736 0.050001-0.2401 0.11536-0.73687 0.081743-0.42194 0.067199-0.24849 0.1301-0.34868 0.10766-0.20914 0.08412-0.13177 0.10997-0.13972 0.12261-0.12415 0.27383-0.21883 0.78615-0.52515 0.3439-0.25017 0.26424-0.23193 0.24912-0.26781 0.15292-0.21155 0.096264-0.17719 0.084996-0.20219 0.070291-0.21384 0.058484-0.22503 0.047278-0.23231 0.054601-0.3783 0.13466-1.4173-0.002163-0.38824-0.03089-0.26628-0.06276-0.30762-0.078033-0.27951-0.095273-0.28148-0.18016-0.44812-0.16137-0.35187-0.35652-0.69876-0.73935-1.3152 0.053176-0.0096 0.1824-0.062212 0.26716-0.10314 1.9851-0.81789 2.4455-0.9489 3.6928-1.3698 0.86864-0.35054 1.8789-0.797 0.46129-0.18322 0.82168-0.29368 2.0191-0.67284 3.0326-1.0417 0.83729-0.32335 0.47103-0.21165 0.10868-0.057579 0.067611-0.048771 1.9246-0.68124 1.571-0.59382 3.6101-1.4426 0.88779-0.37203 0.6632-0.30258 0.51598-0.26043 0.54908-0.30487 0.26933-0.16437 0.33786-0.22938 0.20979-0.16277 0.18926-0.17045 0.25203-0.29724 0.15741-0.29295 0.040992-0.12042 0.054844-0.39469-0.034387-0.42196-0.10212-0.44147-0.15349-0.45488-0.26623-0.63437-0.94299-2.0223-0.49498-1.0901-0.73633-1.7279-0.69245-1.7401-0.21542-0.58122-0.20236-0.5816-0.18369-0.58183-0.1571-0.58184-0.11959-0.5815-0.046033-0.33162-0.02637-0.33101-0.005365-0.27472 0.014859-0.32768 0.030822-0.2706 0.084801-0.42646 0.12804-0.41631 0.16912-0.40392 0.24076-0.44861 0.30146-0.45957 0.33622-0.44493 0.36135-0.43402 0.37934-0.4258 0.39218-0.41934 0.80998-0.82227 0.83448-0.79714 0.42652-0.3845 0.43458-0.37039 0.44527-0.35089 0.45968-0.32412 0.45224-0.27511 0.4685-0.24036 0.48476-0.20104 0.51055-0.16046 0.52402-0.12312 0.53391-0.094064 0.54102-0.070943 0.54601-0.051728 0.54935-0.034603 0.55142-0.017909 0.55249-4.7e-5 0.55272 0.020582 0.60283 0.048533 0.60236 0.070038 0.60203 0.085223 1.2034 0.19868 1.8029 0.33418 1.1957 0.24107 0.59279 0.12963 0.58663 0.13971 0.57722 0.15458 0.56326 0.17613 0.54299 0.20682 0.27104 0.12333 0.30454 0.16077 0.24939 0.1537 0.23726 0.16914 0.22396 0.18486 0.30877 0.3062 0.27436 0.33904 0.23955 0.36861 0.21489 0.41189 0.21533 0.51808 0.18115 0.54172 0.15427 0.55941 0.13204 0.57281 0.11209 0.58321 0.092193 0.5916 0.070156 0.59872 0.0437 0.60509 0.009827 0.30045 1.95e-4 0.3691-0.013854 0.40462-0.10892 1.7181-0.005863 0.49308 0.014599 0.47856 0.048138 0.66633 0.072378 0.66197 0.18302 1.2539 0.20343 1.2182 0.018316-0.004062 2.0684-0.44467 1.8745-0.37108 0.6271-0.11474 1.1664-0.19377 1.8119-0.26278 0.97488-0.18103 0.61064-0.14078 0.6004-0.16056 0.59001-0.1805 0.57883-0.20233 0.44597-0.17476 1.8289-0.76462 0.9521-0.36811 0.47783-0.16931 0.47937-0.15605 1.4669-0.42379 0.56773-0.18266 0.56556-0.19829 0.56171-0.21501 0.4386-0.18177 0.86975-0.38767 0.92209-0.43308 1.455-0.71836 0.94788-0.50816 0.75628-0.43964 1.0467-0.62714 0.45463-0.24811 0.4649-0.23254 0.48788-0.22244 0.49631-0.20739 0.50328-0.19401 0.50317-0.17974 1.0189-0.33036 1.0304-0.29811 1.5357-0.4182 0.49722-0.1504 0.51949-0.17054 1.0313-0.36741 1.5428-0.56822 1.0893-0.37592 0.54782-0.17727 1.1025-0.32748 0.55537-0.14599 0.48967-0.11541 1.6856-0.34291 0.55324-0.12158 0.99884-0.24622 0.89104-0.24454 2.6793-0.79464 1.1716-0.37555 2.3473-0.78023 1.1799-0.37074 0.5921-0.17109 0.59358-0.15629 1.1089-0.26794 0.90462-0.23598 1.0951-0.31448 0.65116-0.21794 1.1764-0.43462 0.3236-0.11033 0.21679-0.062319 0.26137-0.045435 0.059914-2.87e-4 0.0856 0.018126 0.032686 0.030571 0.007009 0.020503-0.001116 0.04033-0.04207 0.12543 0.01414 0.028732 0.060817 0.02064 0.21207 0.001263 0.22068-0.029972 0.2675-0.055379 0.30304-0.078482 1.4121-0.43014 0.41269-0.089511 0.16599-0.016949 0.13826 0.00611 0.061067 0.03567 0.063885 0.13383" stroke="#bdc660"/>
    </defs>
    <g clip-path="url(#pe33d849d84)">
     <use y="280.512" fill="#bdc660" stroke="#bdc660" xlink:href="#m3581530d3e"/>
    </g>
   </g>
  </g>
 </g>
 <defs>
  <clipPath id="pe33d849d84">
   <rect x="7.2" y="7.2" width="176.2" height="266.11"/>
  </clipPath>
 </defs>
</svg>
