<?xml version="1.0" encoding="UTF-8"?>
<!DOCTYPE svg  PUBLIC '-//W3C//DTD SVG 1.1//EN'  'http://www.w3.org/Graphics/SVG/1.1/DTD/svg11.dtd'>
<svg width="354.82pt" height="280.51pt" version="1.1" viewBox="0 0 354.82 280.51" xmlns="http://www.w3.org/2000/svg" xmlns:xlink="http://www.w3.org/1999/xlink">
 <metadata>
  <rdf:RDF xmlns:cc="http://creativecommons.org/ns#" xmlns:dc="http://purl.org/dc/elements/1.1/" xmlns:rdf="http://www.w3.org/1999/02/22-rdf-syntax-ns#">
   <cc:Work>
    <dc:type rdf:resource="http://purl.org/dc/dcmitype/StillImage"/>
    <dc:date>2024-07-04T12:10:30.286914</dc:date>
    <dc:format>image/svg+xml</dc:format>
    <dc:creator>
     <cc:Agent>
      <dc:title>Matplotlib v3.7.1, https://matplotlib.org/</dc:title>
     </cc:Agent>
    </dc:creator>
   </cc:Work>
  </rdf:RDF>
 </metadata>
 <defs>
  <style type="text/css">*{stroke-linejoin: round; stroke-linecap: butt}</style>
 </defs>
 <g id="figure_1">
  <g id="patch_1">
   <path d="m0 280.51h354.82v-280.51h-354.82v280.51z" fill="none"/>
  </g>
  <g id="axes_1">
   <g id="PatchCollection_1">
    <defs>
     <path id="mdf9fb438ff" d="m325.19-252.41-0.58404 0.29388-0.72044 0.40807-0.63803 0.3995-0.60699 0.41344-0.4903 0.36225-0.275 0.21786-0.32978 0.27974-0.24015 0.22112-0.26457 0.26888-0.28218 0.3329-0.2205 0.32069-0.18729 0.37066-0.064342 0.18155-0.062672 0.26513-0.03323 0.27487-0.008126 0.20644 0.011653 0.34128 0.037607 0.35044 0.049274 0.30704 0.055732 0.27935 0.13399 0.55191 0.21601 0.73791 0.44116 1.3109 1.3042 3.6245 0.67255 1.9142 0.38518 1.1747 0.21063 0.69709 0.138 0.50321 0.126 0.5268 0.080841 0.40696 0.059392 0.38144 0.036503 0.34761 0.013582 0.25389-0.001896 0.31527-0.07043 0.93932 0.002375 0.35441 0.020812 0.28173 0.030675 0.24294 0.075363 0.41994 0.10477 0.44799 0.19899 0.68714 0.22401 0.65798 0.12898 0.34653 0.34133 0.84642 0.40438 0.91402 0.46084 0.96448 0.21593 0.41116 0.19205 0.33358 0.18602 0.29159 0.66484 0.92436 0.37301 0.56289 0.36275 0.61722 0.16501 0.31861 0.15359 0.33178 0.21198 0.54476 0.22116 0.7185 0.13026 0.51743 0.10569 0.48906 0.10745 0.63141 0.00764 0.13714 0.66257 2.5855 0.13868 0.4538 0.12591 0.3027 0.17551 0.28492 0.31804 0.40758 1.5505 1.7975-0.075726 0.055388-0.20197 0.068066-0.26047 0.058521-0.30658 0.045349-0.27744 0.020647-0.27512-0.001171-0.3276-0.030719-0.18663-0.031898-0.30035-0.072693-0.39142-0.13271-0.31048-0.14169-0.29855-0.16941-0.77018-0.49427-0.30168-0.17579-1.0287-0.5194-0.63582-0.29122-0.35278-0.13304-0.31048-0.10318-0.36324-0.10773-0.35339-0.087025-0.28399-0.057743-0.31674-0.050046-0.30878-0.029279-0.28187-0.006996-0.20796 0.00851-0.26895 0.030587-0.16726 0.031186-0.33636 0.093097-0.30574 0.11628-0.90042 0.37751-0.95782 0.36029-1.0198 0.42319-0.56864 0.21564-0.86895 0.29303-2.2314 0.65718-0.26301 0.088182-0.35882 0.13747-0.37636 0.1703-0.298 0.15353-0.42907 0.24472-0.34568 0.21953-0.35495 0.25064-0.23967 0.19427-0.17671 0.16919-0.1756 0.21287-0.10018 0.1588-0.12333 0.25631-0.09309 0.26647-0.047711 0.18099-0.05662 0.28422-0.04779 0.32998-0.12888 1.1456-0.052476 0.26487-0.091255 0.2799-0.096365 0.18868-0.13152 0.17649-0.33654 0.3389-0.36625 0.40016-0.12055 0.10943-0.14035 0.10836-0.22371 0.13643-0.23388 0.10467-1.2379 0.41926-0.34193 0.098646-0.54841 0.1095-1.3618 0.19931-0.9501 0.17868-0.89846 0.14511-0.32311 0.088947-0.22328 0.09438-0.23689 0.13593-0.18562 0.13295-0.24096 0.2047-0.43834 0.41004-0.33847 0.29066-2.4911 1.9423-0.73667 0.54316-0.67782 0.46386-0.83168 0.51386-1.4408 0.83646-0.67342 0.40555-0.6613 0.42767-1.2635 0.85806-0.40709 0.25803-0.35585 0.21013-0.63275 0.3381-0.62551 0.29799-0.46948 0.1877-0.34101 0.098416-0.20804 0.03599-0.11944 0.009769-0.17342-0.003681-0.20878-0.040827-0.11671-0.044579-0.13746-0.079649-0.10074-0.085654-0.073765-0.086109-0.10645-0.19025-0.074256-0.23795-0.036511-0.22189-0.018544-0.28898 0.005889-0.34186 0.023702-0.30899 0.038593-0.32012 0.08268-0.49874 0.27019-1.3188 0.065496-0.42237 0.04058-0.38598 0.017432-0.47297-0.017412-0.32628-0.042482-0.28109-0.060783-0.23601-0.058295-0.16206-0.10713-0.21893-0.09779-0.14816-0.077074-0.094208-0.20146-0.186-0.26354-0.16841-0.27547-0.12508-0.25257-0.08598-0.2434-0.065689-0.61495-0.12159-0.55613-0.076161-0.092348 0.015887-0.14995 0.060115-0.12946 0.083446-0.22217 0.17727-0.11424 0.043249-0.096702-0.002758-0.074985-0.024935-0.31451-0.16891-0.12602-0.047351-0.142-0.020464-0.14657 0.014831-0.13142 0.050441-0.081927 0.055121-0.25314 0.25151-0.097675 0.079315-0.13156 0.068085-0.1079 0.034072-0.088074 0.0143 0.048545 0.089173 0.070848 0.2525 0.05586 0.24918 0.076245 0.40747 0.096264 0.68978 0.055585 0.6268 0.020312 0.44209-0.002184 0.81858-0.049174 0.9422-0.10844 1.2158-0.12742 1.1088-0.24821 1.9959-0.049782 0.4937-0.02667 0.3566-0.019934 0.5064 0.005369 0.57182 0.015932 0.31584 0.065934 0.67465 0.078551 0.50082 0.056779 0.28333 0.14913 0.5855 0.14386 0.4543 0.14197 0.3976 0.71297 1.8047 0.13512 0.36949 0.15414 0.46541 0.15828 0.55764 0.19891 0.86905 0.11002 0.6038 0.12111 0.83304 0.085509 0.76594 0.052562 0.63236 0.034135 0.64471 0.011395 0.60504-0.02186 0.82846-0.037944 0.52872-0.054032 0.55329-0.31864 2.5999-0.11143 1.0877-0.056118 0.88904-0.011059 0.41273 0.002499 0.48179 0.018833 0.3798 0.049248 0.52205 0.042463 0.32467 0.11407 0.68517 0.19425 0.93858 0.43782 1.8498 0.14128 0.63806 0.11824 0.63967 0.063466 0.44582 0.029298 0.30087 0.003899 0.43262-0.011993 0.16546-0.059188 0.47429-0.2325 1.5492-0.042393 0.39722-0.02919 0.50009 0.001894 0.35954 0.021935 0.3202 0.070304 0.48409 0.07237 0.34392 0.20193 0.74178 0.23006 0.70127 0.69144 1.9103 0.32811 0.85859 0.28379 0.65838 0.2564 0.50649 0.16874 0.28574 0.27453 0.39065 0.20249 0.23519 0.20319 0.19792 0.25997 0.2146 0.32035 0.22616 0.5863 0.35223 1.2914 0.69341 0.44586 0.25473 0.49572 0.3143 0.41269 0.30075 0.21189 0.1722 0.30478 0.26953 0.51536 0.50189 1.0867 1.1512 0.15805 0.17737 0.078007 0.10864-0.028794 0.042021-0.20363 0.16845-0.59231 0.42884-0.53269 0.35436-0.49497 0.3031-0.82426 0.45175-0.64858 0.32164-1.2517 0.59858-0.55471 0.28739-0.34525 0.19504-0.60062 0.36967-0.33668 0.22376-0.49935 0.3549-0.44943 0.34849-0.50136 0.42444-0.42295 0.40081-0.24555 0.27002-0.18211 0.23291-0.17305 0.25977-0.4372 0.76357-0.24752 0.40155-0.3089 0.41737-0.22951 0.24643-0.10969 0.096024-0.19783 0.14061-0.15752 0.090823-0.29972 0.14233-0.69228 0.29061-0.7242 0.36529-0.3609 0.13922-0.26396 0.075141-0.9102 0.18381-0.15976 0.03843-0.32793 0.10099-0.2654 0.1071-0.35225 0.16435-0.32774 0.18826-0.56416 0.41823-0.25944 0.16239-0.26864 0.12943-0.29005 0.091686-0.21116 0.030028-0.16565-0.002648-0.08764-0.012273-0.29763-0.10052-0.25398-0.14272-0.22172-0.15161-0.54834-0.40514-0.31095-0.20752-0.32089-0.17732-0.16345-0.073965-0.24787-0.088719-0.27249-0.062843-0.40489-0.037198-0.34178 0.009386-0.36596 0.044043-0.28458 0.055407-0.5095 0.14134-0.47864 0.17938-0.33005 0.14676-0.57208 0.28915-0.43345 0.24162-1.1233 0.67988-0.54082 0.34876-0.31746 0.22093-0.26087 0.19687-0.25698 0.21378-0.25643 0.2407-0.1579 0.16406-0.31403 0.36092-0.17286 0.21791-0.42961 0.59168-0.31098 0.46374-1.0257 1.6061-0.28192 0.41984-0.33456 0.45927-0.22845 0.28017-0.29003 0.30551-0.26948 0.22538-0.26287 0.15903-0.28421 0.099618-0.13157 0.020304-0.15846 0.005846-0.2126-0.018586-0.21049-0.043235-0.3557-0.11966-0.25202-0.11642-0.25704-0.14322-0.29739-0.19248-0.38124-0.28099-0.6131-0.51112-0.67329-0.6158-1.4876-1.4062-0.62363-0.54928-0.34121-0.2674-0.22478-0.1499-0.12635-0.059362-0.060534 0.018374-1.2787 0.98676-1.5994 1.2949-1.0095 0.87056-0.45216 0.41546-0.2534 0.24802-0.20601 0.2143-0.39268 0.44386-0.3778 0.44936-0.77021 0.97223-0.30838 0.37-0.3555 0.39714-0.84002 0.8846-0.23055 0.26526-0.15458 0.20041-0.14316 0.22252-0.089329 0.18414-0.07099 0.26574-0.005957 0.13504 0.034441 0.18751 0.035559 0.082841 0.068957 0.10848 0.10977 0.11962 0.10975 0.087265 0.12211 0.076815 0.17224 0.086664 0.41242 0.15605 0.4432 0.12946 0.93764 0.23518 0.4583 0.1554 0.16471 0.071371 0.23039 0.11899 0.18239 0.11111 0.13792 0.094433 0.25639 0.20212 0.14275 0.13102 0.21446 0.23463 0.19014 0.27663 0.08662 0.1717 0.085708 0.25442 0.036475 0.26175-0.003456 0.21808-0.027696 0.21024-0.069038 0.28043-0.066782 0.19293-0.11795 0.26922-0.12006 0.2232-0.16238 0.25092-0.2018 0.2529-0.19142 0.19944-0.26173 0.23616-0.5153 0.43504-0.2952 0.28005-0.14485 0.1547-0.17424 0.20825-0.21736 0.30711-0.25098 0.42097-0.17579 0.337-0.14175 0.29934-0.27194 0.66534-0.11308 0.32737-0.16504 0.56565-0.20299 0.88252-0.25387 1.3678-0.19065 1.1973-0.2203 1.5704-0.18327 1.4705-0.14972 1.3637-0.12966 1.4694-0.023715 0.16588-0.11706 0.24572-0.2407 0.56898-0.1105 0.32174-0.085418 0.29843-0.54538 2.0739-0.10333 0.47266-0.058952 0.42573-0.012269 0.22364 0.008755 0.32211 0.1247 1.1408 0.057719 0.99147 0.045887 0.54106 0.20848 1.39 0.097972 0.51444 0.088401 0.38637 0.10423 0.34651 0.083985 0.20948 0.10048 0.1979 0.06999 0.11348 0.18259 0.229 0.12524 0.1156 0.1073 0.079324 0.30091 0.1616 0.41078 0.13871 0.45124 0.099124 1.1027 0.1568 0.24483 0.059768 0.16904 0.058018 0.14131 0.067321 0.11411 0.076676 0.084073 0.080404 0.062418 0.08629 0.047975 0.097739 0.042949 0.15428 0.012639 0.10398 0.002133 0.13387-0.014015 0.16005-0.071614 0.31794-0.080029 0.22145-0.29631 0.68921-0.10142 0.27548-0.057111 0.19606-0.047332 0.22042-0.035388 0.26892-0.011171 0.27087 0.027911 0.41963 0.074059 0.41106 0.078181 0.28814 0.29825 0.89098 0.072162 0.27235 0.035021 0.17776 0.032645 0.2806 0.004686 0.14964-0.005122 0.13628-0.030094 0.20463-0.054108 0.16874-0.094332 0.16458-0.1021 0.10731-0.071304 0.051297-0.08146 0.043325-0.10553 0.038829-0.21888 0.03633h-0.11509l-0.12398-0.013829-0.18333-0.052378-0.064811-0.03377-0.068938-0.059401-0.038824 0.92456 0.003391 0.31856 0.016123 0.23398 0.054196 0.36451 0.063645 0.25289 0.10688 0.29439 0.1213 0.26496 0.13745 0.25895 0.18237 0.29414 0.10521 0.15041 0.27987 0.35533 0.61922 0.703 0.2962 0.36159 0.36457 0.49967 0.12619 0.19567 0.15926 0.28151 0.10576 0.24201 0.04233 0.13894 0.031195 0.18026 0.003457 0.11354-0.011387 0.11165-0.042106 0.15057-0.068736 0.14543-0.15432 0.22395-0.13471 0.15229-0.17718 0.1732-0.23621 0.20441-0.36588 0.27447-0.32292 0.20518-0.46551 0.24872-1.0571 0.50808-0.41937 0.23186-0.16123 0.1069-0.12286 0.093836-0.18579 0.17042-0.14144 0.15017-0.12354 0.15836-0.11262 0.2077-0.031556 0.093742-0.027338 0.14666-0.007454 0.15656 0.016532 0.23996 0.091089 0.50195 0.20292 0.86851 0.14354 0.74648 0.078408 0.66904 0.03379 0.46068-0.004154 0.14015 0.029437-0.012021 0.062744 0.009786 0.093946 0.077242 0.10719 0.15563 0.12941 0.274 0.08831 0.256 0.057622 0.20802 0.21076 1.0028 0.055393 0.19782 0.085675 0.2194 0.086715 0.16194 0.11121 0.15375 0.092612 0.095639 0.062478 0.051371 0.20065 0.10745 0.26271 0.042185 0.28078-0.022537 0.72089-0.1252 0.20802-0.012122 0.25546 0.019723 0.27284 0.072896 0.30929 0.13997 0.30462 0.18568 0.24638 0.17661 0.75056 0.58162 0.29136 0.20537 0.3751 0.21974 0.48286 0.25397 0.18584 0.11874 0.1691 0.1333 0.18994 0.18576 0.11869 0.13921 0.13881 0.19286 0.089311 0.14873 0.096122 0.19149 0.22897 0.5097 0.18789 0.33885 0.13426 0.20799 0.13267 0.17554 0.15888 0.18299 0.22551 0.22602 0.25701 0.22275 0.34703 0.25532 0.25435 0.15733 0.59806 0.31323 0.17652 0.10617 0.17507 0.1221 0.15595 0.13993 0.14584 0.18951 0.071073 0.12826 0.074269 0.18037 0.035899 0.12116 0.040663 0.2012 0.02624 0.33216-7e-3 0.22615-0.029789 0.28728-0.078621 0.43395-0.09752 0.38279-0.14436 0.46757-0.55932 1.6807-0.12574 0.45682-0.083266 0.37651-0.085173 0.56666-0.038172 0.52038-0.004776 0.38321 0.010643 0.28663 0.026244 0.2323 0.01278 0.038111 0.017763 0.012361-0.052851 0.05654-0.041142 0.065088-0.19722 0.38796-0.11585 0.28758-0.096947 0.30265-0.096054 0.49032-0.015901 0.22891 0.013594 0.4096 0.027722 0.19968 0.11081 0.44756 0.076435 0.22089 0.13902 0.33531 0.46172 0.99729 0.20164 0.54386 0.071634 0.25351 0.081278 0.34636 0.16473 0.83631 0.063487 0.41942 0.064606 0.56492 0.022774 0.36069 0.00161 0.27772-0.017648 0.27272-0.042836 0.31174-0.09323 0.38838-0.14635 0.36539-0.16341 0.27381-0.244 0.3075-0.26386 0.26719-0.24823 0.21565-0.37235 0.28315-0.22826 0.15762-0.44509 0.28035-0.32002 0.17864-0.31281 0.14904-0.50194 0.18153-0.69612 0.19868-1.2991 0.34451-0.81871 0.2642-0.44723 0.1673-0.4551 0.19417-0.4627 0.23259-0.27633 0.15973-0.34978 0.22786-0.30392 0.22475-0.26384 0.22051-0.27108 0.2613-0.21364 0.24002-0.2287 0.30673-0.17961 0.30638-0.09992 0.22853-0.10352 0.37346-0.045727 0.3584-0.006866 0.3514 0.022843 0.34802 0.046992 0.34174 0.055859 0.28731 0.38271 1.6604 0.063331 0.3109 0.041125 0.27252 0.017265 0.20894-5.37e-4 0.2419-0.015949 0.16726-0.045847 0.24825-0.078017 0.28055-0.090779 0.25363-0.094091 0.21974-0.17022 0.34079-0.57788 1.028-0.26483 0.50314-0.22982 0.50334-0.15918 0.41637-0.16942 0.5304-0.14088 0.5654-0.063599 0.36277-0.021979 0.18349-0.017813 0.4311 0.01239 0.25226 0.052033 0.36812 0.04432 0.18344 0.065398 0.20317 0.12175 0.29285 0.1975 0.37478 0.15178 0.2451 0.23454 0.33916 0.62683 0.82679 0.091792 0.14328 0.003302 0.03706-0.91327 0.4587-0.28579 0.15257-0.55391 0.32165-0.53768 0.36474-0.24793 0.19599-0.34887 0.31605-0.33505 0.36245-0.21348 0.27766-0.57821 0.85709-0.27166 0.47199-0.13826 0.29113-0.33713 0.75719-0.18729 0.46845-0.12636 0.41358-0.086287 0.33764-0.18017 0.85533-0.11962 0.38878-0.26541 0.76856-0.19742 0.74109-0.087938 0.40036-0.099795 0.38912-0.14957 0.36775-0.16947 0.26469-0.20682 0.24775-0.17665 0.18119-0.46203 0.41148-0.83794 0.66096-0.42515 0.29003-0.24492 0.13613-0.20758 0.096668-0.22788 0.085851-0.14931 0.044474-0.18235 0.040881-0.28085 0.03076-0.18244-0.004572-0.22906-0.040294-0.16587-0.054473-0.37112-0.18517-0.76218-0.49765-0.40822-0.21023-1.2429-0.54464-0.30804-0.16371-0.39652-0.26129-0.38841-0.29892-0.78258-0.6406-0.40996-0.30867-0.3815-0.24845-0.20073-0.11384-0.3801-0.18931-0.47308-0.20272-1.435-0.52954-0.84359-0.32707-0.26459-0.11589-0.46951-0.24926-0.27228-0.19106-0.21694-0.19383-0.19962-0.21689-0.23014-0.29879-0.21248-0.32238-0.27521-0.47535-0.46441-0.8595-0.35998-0.64112-0.23746-0.38461-0.3222-0.45268-0.21924-0.26268-0.29698-0.31953-1.0728-1.0615-0.28715-0.30385-0.29321-0.3405-0.31209-0.39798-0.23846-0.32511-0.84478-1.2388-0.27555-0.38812-0.43634-0.55235-0.30357-0.32532-0.35072-0.31897-0.28809-0.22192-0.25526-0.16728-0.27865-0.15123-0.27147-0.11525-0.25005-0.076648-0.18553-0.037352-0.26637-0.022086-0.21632 0.010651-0.20257 0.031229-0.3006 0.078789-0.255 0.090003-0.31347 0.13293-0.34132 0.16713-0.48218 0.26696-0.52519 0.32266-0.3381 0.22099-1.4195 0.98769-0.10777 0.068288-0.090204 0.028059-0.45693 1.1163-0.19553 0.42528-0.31591 0.60892-0.13667 0.20893-0.10601 0.12396-0.16652 0.13633-0.17291 0.097423-0.42263 0.19415-0.36266 0.13084-0.25669 0.14258-0.60382 0.41571-0.54702 0.43085-0.3986 0.29756-0.020226-0.026632-0.05181-0.011623-0.21047 7.45e-4 -0.34617 0.040196-0.35888 0.065307-0.29764 0.071287-0.43055 0.1263-0.75268 0.26602-0.63763 0.26042-0.87111 0.39804-1.3505 0.65316-1.9496 0.96108-0.56036 0.23626-0.22562 0.073194-0.20458 0.034734-0.092044-0.001002-0.17787-0.043103-0.18236-0.12388-0.14923-0.18542-0.11978-0.22801-0.050862-0.13027-0.054538-0.19256-0.037752-0.20517-0.027789-0.25413-0.053337-0.80392-0.004841-0.55921 0.015378-0.36051-0.010002-0.4377-0.03446-0.22891-0.049698-0.2122-0.072478-0.22907-0.11134-0.26814-0.16081-0.29701-0.22558-0.31271-0.2061-0.21065-0.23169-0.16599-0.29823-0.12686-0.326-0.075721-0.34521-0.045697-0.26844-0.02361-0.27535-0.008835-0.38629 0.02141-1.3053 0.16866-0.82848 0.069839-0.54041 0.073505-0.5593 0.097639-1.6203 0.34656-0.53094 0.091351-0.51938 0.052799-0.50269-0.004636-0.35373-0.047726-0.56543-0.12726-0.77692-0.22368-0.38472-0.097239-0.38422-0.060893-0.34975-0.011053-0.34981 0.021474-0.31754 0.038935-0.46776 0.086627-0.34526 0.083961-1.4665 0.40564-0.21317 0.077751-0.10892 0.055609-0.12448 0.083467-0.11713 0.10729-0.17262 0.25004-0.066766 0.13801-0.083461 0.21068-0.19615 0.56324-0.098178 0.21107-0.15894 0.2393-0.093715 0.10874-0.24851 0.20859-0.28803 0.14105-0.13378 0.036026-0.11374 0.017974-0.12419 0.00621-0.1982-0.020173-0.14893-0.040642-0.11732-0.048302-0.12522-0.066247-0.18036-0.11785-0.76757-0.60489-0.20099-0.11582-0.10897-0.013163-0.010293-0.066591-0.045182-0.11306-0.20951-0.42507-0.2798-0.47835-0.34065-0.4996-0.38366-0.47897-0.22127-0.24242-0.3047-0.2987-0.3204-0.27775-0.34858-0.26655-0.42026-0.27759-0.34535-0.19616-0.36938-0.17939-0.46892-0.18442-0.48829-0.1405-0.39695-0.072321-0.45918-0.027608-0.089232 0.003036-0.32463 0.033768-0.2801 0.053316-0.73126 0.18402-0.42323 0.12364-0.39794 0.14989-0.47825 0.22298-0.22557 0.1196-0.47234 0.27968-0.47209 0.32066-0.8262 0.62008-0.25676 0.18178-0.27852 0.17465-0.28462 0.16035-0.30204 0.15524-0.38933 0.16601-0.45462 0.14162-0.47375 0.10491-0.48251 0.080528-1.6346 0.21409-0.2791 0.023093-0.85888 0.037369-0.3379 0.007839-0.3326-0.015501-0.26675-0.038694-0.26345-0.055631-0.27906-0.071481-0.33996-0.11583-0.43021-0.18943-0.38312-0.20795-0.2376-0.154-0.28416-0.23254-0.13236-0.13114-0.3491-0.40272-0.28819-0.40565-0.24851-0.44326-0.16129-0.37527-0.17545-0.50614-0.2666-0.9091-0.097626-0.28111-0.099329-0.24475-0.1238-0.24756-0.14459-0.2209-0.14137-0.16618-0.14802-0.14386-0.22084-0.18116-0.24965-0.17288-0.30218-0.179-0.44157-0.22667-1.0534-0.47101-1.7403-0.72369-0.35175-0.15898-0.52177-0.25975-0.37916-0.21418-0.42406-0.27994-0.18089-0.14286-0.19915-0.18896-0.14292-0.17543-0.08805-0.14319-0.064768-0.14336-0.051219-0.16614-0.023054-0.11499-0.02021-0.2588 0.008753-0.17912 0.04478-0.2687 0.047299-0.16756 0.11398-0.27574 0.17122-0.2799 0.084334-0.10758 0.15176-0.15904 0.2291-0.18828 0.66248-0.46038 0.17691-0.16754 0.084494-0.11167 0.10493-0.22971 0.034125-0.17222-7.31e-4 -0.21628-0.034097-0.17973-0.069343-0.20402-0.11178-0.23217-0.13559-0.22472-0.28075-0.38469-0.23613-0.28335-0.33005-0.35955-0.14816-0.13937-0.049335-0.032878-0.37359-0.28453-3.6619-2.5886-1.4756-1.0307-0.37963-0.25695-0.5957-0.37964-0.55866-0.33044-1.367-0.76913-0.54537-0.31796-0.69889-0.42235-1.4466-0.90662-0.75738-0.43985-0.35283-0.17632-0.35191-0.14594-0.26943-0.084192-0.2684-0.052804-0.26694-0.013371-0.24156 0.027907-0.2765 0.075109-0.27436 0.11493-0.14566 0.076474-0.2267 0.14019-0.14206 0.10121-0.24305 0.19871-0.24146 0.23131-0.26063 0.28698-0.29249 0.36459-0.42727 0.60353-0.26918 0.41878-0.38219 0.648-0.39042 0.73261-0.30954 0.63683-0.24754 0.56276-0.10433 0.26982-0.030988 0.1099-0.049512 0.011399-0.16812-0.044717-0.15106-0.068165-0.19414-0.10614-0.14423-0.091217-0.35154-0.26533-0.73126-0.59595-0.39004-0.24501-0.23588-0.10507-0.24322-0.082086-0.35588-0.083845-0.29179-0.032116-0.29848-0.005113-0.71437 0.038604-0.47408 0.008597-0.50791-0.019836-0.62971-0.075313-0.3057-0.058772-0.30289-0.073956-0.4517-0.14235-0.89492-0.31946-0.45636-0.13396-0.37006-0.078739-1.3366-0.23586-0.41518-0.089255-0.5053-0.12386-0.46136-0.12974-0.68296-0.22486-0.96859-0.35443-1.0838-0.44094-0.81299-0.35695-0.85849-0.41636-0.54616-0.2949-0.31233-0.20304-0.30308-0.22011-0.79682-0.61981-0.782-0.58323-0.37456-0.29234-0.33088-0.30594-0.31478-0.3364-0.49934-0.61146-0.82325-1.1144-0.61169-0.80734-0.27391-0.39025-0.21814-0.40794-0.080889-0.22575-0.079171-0.44746 0.001588-0.5102 0.043102-0.37877 0.059766-0.33864 0.134-0.57985 0.50459-1.7644 0.063428-0.24553 0.023438-0.13201-0.010227-0.03358-0.003649-0.039093-0.01986-0.007883-0.036671 0.02821-0.32778 0.47541-0.20762 0.25853-0.11463 0.11059-0.30885 0.23532-0.17184 0.1718-0.16191 0.19522-0.18265 0.25664-0.17664 0.29431-0.15766 0.31661-0.14028 0.32731-0.12862 0.23033-0.20565 0.25682-0.086684 0.080253-0.12477 0.087598-0.1445 0.076098-0.28355 0.10504-0.26729 0.066102-0.44878 0.065978-0.44349 0.030585-0.44095 0.00307-0.2557-0.014037-0.87866-0.078166-0.39084-0.001336-0.19058 0.018749-0.32783 0.058096-0.25358 0.061881-0.21312 0.0675-0.46542 0.10906-0.43686 0.12669-0.49507 0.16702-0.51519 0.20508-0.50722 0.2436-0.17373 0.096444-0.37952 0.24485-0.35734 0.27803-0.33303 0.3059-0.46243 0.50372-0.34027 0.42021-0.32698 0.43686-0.59298 0.85491-0.85591 1.3106-1.1984 1.9356-0.3982 0.58658-0.20921 0.28643-0.29003 0.37097-0.2885 0.34185-0.32556 0.35974-0.82053 0.86871-0.28257 0.32624-0.32894 0.42703-1.1541 1.7004-0.2405 0.3289-0.46363 0.58527-0.49852 0.57002-0.83433 0.89366-0.54427 0.60053-0.32452 0.38205-0.31259 0.3923-0.2949 0.39747-0.51865 0.76748-0.43783 0.71944-0.46852 0.83802-1.1199 2.1062-0.24825 0.44766-0.491 0.84154-0.24208 0.39389-0.46377 0.71704-0.28179 0.40999-0.50272 0.68259-0.51706 0.63346-0.4451 0.49902-2.1582 2.28-0.91607 1.0291-0.62456 0.66991-0.60911 0.58631-0.48088 0.41442-0.35267 0.27249-0.99954 0.7141-0.24862 0.19876-0.27065 0.24462-0.27798 0.2941-0.29887 0.37724-0.18216 0.2847-0.041747 0.088705-0.009151 0.081248-0.040723-0.044339-0.48675-0.72292-0.20011-0.27177-0.3939-0.50992-0.45327-0.55437-0.29029-0.33481-0.31285-0.30905-0.2633-0.2129-0.27886-0.1797-0.30324-0.1425-0.44308-0.12014-0.46054-0.058235-0.87596-0.056423-0.40447-0.011528-0.4001 0.019935-0.3923 0.071301-0.36439 0.12967-0.31156 0.15527-0.17755 0.10401-0.24948 0.16459-0.22456 0.16879-0.33765 0.29455-0.22571 0.22388-0.26164 0.28614-0.43702 0.53031-0.87596 1.1217-0.23287 0.2735-0.33799 0.35812-0.24322 0.22586-0.39853 0.31844-0.34193 0.23519-0.39296 0.23998-0.35445 0.19609-0.3973 0.2018-0.77588 0.34925-0.51646 0.2033-0.44846 0.15987-0.40013 0.13107-0.69381 0.20592-0.67877 0.17303-0.32603 0.065407-0.39653 0.053902-0.28813 0.016168-0.31004-0.007125-0.27602-0.024948-0.27896-0.039697-0.4679-0.092335-0.63848-0.17278-0.43046-0.15142-0.25887-0.10797-0.25838-0.12264-0.39091-0.21777-0.18689-0.11911-0.34528-0.24738-0.19223-0.1549-0.36136-0.3307-0.37875-0.41065-0.20233-0.24821-0.2081-0.27536-0.34882-0.50188-0.27393-0.4218-0.26016-0.45011-0.14038-0.29367-0.1059-0.27841-0.11168-0.40642-0.046387-0.25615-0.026509-0.32149 0.008708-0.28203 0.038615-0.32176 0.094116-0.4564 0.16006-0.54299 0.2711-0.73376 0.1695-0.39716 0.64211-1.3657 0.052671-0.141-0.007108-0.031519 0.11152 0.027445 0.19673 0.005878 0.31123-0.014556 0.32868-0.037041 0.38404-0.068142 0.26119-0.062182 0.25308-0.074226 0.40683-0.15653 0.28184-0.1477 0.20628-0.14258 0.096028-0.083754 0.092846-0.099163 0.11114-0.17177 0.050913-0.16807 0.029855-0.25663 0.027975-0.12848 0.073932-0.16562 0.12037-0.15592 0.31207-0.3159 0.085254-0.11675 0.039229-0.073393 0.066805-0.20558 0.049319-0.34244 0.032313-0.14918 0.049517-0.13879 0.066078-0.12638 0.098614-0.13866 0.11318-0.12655 0.20022-0.18833 0.18587-0.15404 0.22394-0.16246 0.20464-0.1268 0.48342-0.26932 0.21173-0.15672 0.15347-0.15949 0.14811-0.24306 0.054155-0.1631 0.025086-0.21318-0.010387-0.1548-0.032565-0.15655-0.10382-0.26877-0.14704-0.25414-0.76666-1.0228-0.71906-1.0109-0.2688-0.40069-0.71065-1.1076-0.3207-0.46761-0.32406-0.43018-0.47551-0.58384-0.046405-0.057124-0.017361-0.10189-0.005702-0.171 0.016461-0.269 0.029134-0.22139 0.062308-0.31071 0.10674-0.36702 0.14776-0.36864 0.1449-0.28303 0.16355-0.26676 0.20488-0.28592 0.31049-0.36834 0.2468-0.25421 0.32976-0.29821 0.34956-0.26969 0.41416-0.26256 0.33944-0.1727 0.42273-0.16494 0.54832-0.13614 0.4254-0.045816 0.40652 0.004159 0.53 0.075387 0.48849 0.14348 0.27404 0.11637 0.23023 0.12291 0.30575 0.20869 0.13462 0.10979 0.76918 0.68898 0.30368 0.23358 0.44886 0.29181 0.4359 0.22629 0.39872 0.16579 0.37014 0.12604 0.4333 0.11868 0.26105 0.05748 0.28299 0.050791 0.40396 0.05207 0.39395 0.025862 0.39105-0.00108 0.22453-0.014086 0.27227-0.033246 0.30743-0.064339 0.20844-0.063522 0.26994-0.11185 0.26722-0.15414 0.23832-0.18976 0.25143-0.26729 0.13699-0.1724 0.29591-0.4202 0.11534-0.18736 0.18777-0.36175 0.08523-0.20153 0.1041-0.30063 0.05956-0.21753 0.094371-0.48825 0.04559-0.43978 0.007614-0.23953-0.010904-0.29397-0.026953-0.22688-0.05768-0.26932-0.067808-0.20602-0.074486-0.16738-0.079249-0.13963-0.14228-0.1904-0.12177-0.12452-0.12717-0.10508-0.11976-0.081306-0.23667-0.12568-0.31706-0.124-0.44578-0.12515-0.33833-0.066457-0.38808-0.054567-0.52123-0.049526-0.6728-0.026077-0.84978-0.002678-0.30766-0.013211-0.2525-0.023036-0.24548-0.035697-0.38383-0.087002-0.32902-0.11065-0.277-0.12551-0.30457-0.18064-0.33248-0.26673-0.1813-0.19272-0.15216-0.20679-0.15284-0.29648-0.096649-0.38021-2.09e-4 -0.29985 0.054866-0.24904 0.089739-0.20803 0.15668-0.23699 0.20357-0.22075 0.20282-0.17386 0.23459-0.16868 0.40109-0.23626 0.32842-0.15578 0.3126-0.12044 0.27815-0.084831 0.50004-0.10153 0.2206-0.024126 0.39273-0.012228 0.2881 0.015413 0.25733 0.030641 0.4071 0.080814 0.39374 0.11483 0.27374 0.10022 0.87932 0.39152 0.39774 0.16332 0.29443 0.10205 0.33496 0.091906 0.44134 0.073753 0.2111 0.012968 0.32243-0.008943 0.28172-0.037711 0.17349-0.038395 0.30042-0.098671 0.32959-0.17466 0.23633-0.20273 0.15837-0.2209 0.056928-0.12332 0.064305-0.25931 0.006771-0.22617-0.030576-0.22042-0.043195-0.16412-0.091955-0.24427-0.1565-0.3103-0.27413-0.44408-0.84894-1.2203-0.4133-0.6292-0.17192-0.28507-0.2144-0.39713-0.11291-0.28149-0.006081 0.030613-0.084262 0.10035-0.12165 0.066719-0.15481 0.030949-0.15481-0.007289-0.17986-0.040888-0.17035-0.062569-0.21064-0.10213-0.81854-0.4903-0.52738-0.29423-0.43202-0.20636-0.30407-0.12108-0.28297-0.091919-0.32301-0.079125-0.57924-0.067715-0.33223 0.006421-0.36921 0.040132-0.54037 0.10718-0.4707 0.12992-0.43409 0.14217-1.5138 0.56413-1.3885 0.57444-0.27819 0.10714-0.27489 0.091354-0.31396 0.077664-0.31266 0.038141-0.47622-0.030017-0.47694-0.11042-0.34261-0.11068-1.0037-0.3694-0.52968-0.16192-1.1848-0.24034-0.37593-0.12612-0.24025-0.11806-0.37246-0.24226-0.29759-0.2378-0.52871-0.49135-0.52682-0.54458-0.25724-0.28396-0.39516-0.46996-0.2468-0.32663-0.185-0.27655-0.13979-0.2546-0.11483-0.26406-0.07154-0.21256-0.060919-0.24492-0.040241-0.23758-0.024875-0.26285-0.003972-0.27818 0.031698-0.35646 0.068349-0.30524 0.13976-0.33257 0.17707-0.25288 0.20801-0.21386 0.2252-0.184 0.22473-0.1546 0.38277-0.2195 0.36404-0.17518 0.50126-0.21022 0.45778-0.16924 0.65897-0.21533 0.62482-0.16992 0.95242-0.2276 0.29065-0.084373 0.36482-0.12554 0.61218-0.25572 1.1781-0.54578 0.83075-0.36587 0.78714-0.31339 1.3721-0.51361 0.37725-0.15496 0.36166-0.16374 0.44917-0.22866 0.34198-0.20394 0.27978-0.19549 0.27104-0.22187 0.2516-0.2486 0.18108-0.21917 0.14072-0.22454 0.074308-0.18582 0.036285-0.18367-0.007239-0.22442-0.056497-0.22542-0.17028-0.33534-0.12715-0.16403-0.14933-0.14601-0.13255-0.10039-0.17918-0.11229-1.235-0.71194-0.38668-0.19009-0.70135-0.2706-0.25302-0.10766-0.39576-0.18598-0.23572-0.12971-0.34693-0.24187-0.13189-0.10858-0.3255-0.3064-0.37975-0.42635-0.3138-0.41003-0.21622-0.31547-0.20832-0.3298-0.32249-0.55998-0.2396-0.45502-0.31199-0.65322-0.17189-0.4097-0.14853-0.41734-0.1445-0.53308-0.068968-0.35134-0.048224-0.3488-0.029222-0.36126-0.012371-0.34882-1e-4 -0.52285 0.020758-0.80916 0.11554 0.025957 0.20698-0.054434 0.2778-0.13113 0.31849-0.20684 0.23731-0.18772 0.37241-0.35119 0.30931-0.33568 0.30403-0.36584 0.17624-0.2378 0.13719-0.20612 0.1397-0.23651 0.11682-0.22478 0.15674-0.35087 0.41564-1.0794 0.19806-0.42657 0.19997-0.35852 0.16722-0.24796 0.16267-0.20546 0.36203-0.38447 0.42268-0.37344 0.42104-0.32944 0.38451-0.26967 0.73849-0.48438 0.26438-0.16315 0.30334-0.1666 1.0685-0.52803 0.67769-0.36705 0.46315-0.28409 0.35857-0.25245 0.19755-0.15903 0.17804-0.16061 0.21729-0.23315 0.070653-0.09711 0.074459-0.12878 0.083773-0.23259 0.02725-0.27459-0.049966-0.40289-0.097169-0.36524-0.2265-0.73006-0.1234-0.51415-0.034959-0.26603-0.007296-0.21176 0.004749-0.11063 0.032392-0.23787 0.050329-0.20454 0.14045-0.37908 0.08181-0.17379 0.31724-0.56943 0.496-0.8428 0.30813-0.55463 0.21396-0.43659 0.12546-0.30327 0.11863-0.35586 0.11455-0.47366 0.067766-0.47946 0.003611-0.47-0.051452-0.46344-0.09495-0.46445-0.097973-0.35469-0.13581-0.37642-0.11136-0.24113-0.25184-0.43811-0.42266-0.66838-0.26449-0.4703-0.17781-0.40344-0.1707-0.48417-0.14622-0.49304-0.3059-1.1113-0.093765-0.30408-0.17961-0.49599-0.11917-0.26167-0.12504-0.21734-0.090698-0.12452-0.071205-0.078308-0.066203-0.049699-0.043487-0.001171-0.29129-0.44461-0.37914-0.53511-1.2632-1.665-0.30381-0.43252-0.26248-0.40862-0.16144-0.27693-0.23024-0.44598-0.55453-1.2971-0.11034-0.22822-0.11853-0.21434-0.12969-0.19681-0.14424-0.17493-0.16692-0.15693-0.4887-0.41472-0.43582-0.44408-0.36822-0.40524-0.18368-0.22804-0.17218-0.27373-0.090486-0.22266-0.051767-0.23358-0.013414-0.24179 0.056007-0.77995 0.004895-0.20883-0.027176-0.39775-0.051646-0.30105-0.077164-0.30037-0.058255-0.17737-0.067875-0.17511-0.10966-0.23516-0.10172-0.18344-0.18825-0.29014-0.35742-0.49172-0.16548-0.21062-0.17556-0.19964-0.18958-0.18251-0.27721-0.21072-0.26516-0.16159-0.35529-0.17786-0.21698-0.078596-0.043718-0.001318-0.020237-0.008507-0.13622-0.1801-0.16462-0.34017-0.14584-0.42597-0.088008-0.45853 0.002955-0.45216 0.066278-0.28636 0.092764-0.21951 0.070877-0.12232 0.11474-0.15617 0.1737-0.17933 0.1702-0.13486 0.21206-0.13161 0.32228-0.14277 0.33279-0.095685 0.51651-0.086564 0.56913-0.050529 0.49556-0.01565 0.29822 0.010179 1.0233 0.07211 0.43364-0.004972 0.22106-0.021317 0.29806-0.058469 0.31015-0.108 0.17906-0.086192 0.1672-0.097002 0.18447-0.13009 0.16928-0.14204 0.97586-0.96663 0.87207-0.82126 0.17508-0.1815 0.29813-0.35348 0.16584-0.23842 0.16975-0.29539 0.15869-0.34168 0.13542-0.38044 0.059735-0.23761 0.03593-0.2422 0.004287-0.28211-0.030385-0.20716-0.039142-0.13914-0.048066-0.12704-0.091962-0.1843-0.63441-0.96765-0.11319-0.15867-0.15593-0.18486-0.25939-0.25816-0.3333-0.29425-0.37763-0.30906-0.70553-0.54399-0.31404-0.2677-0.35992-0.34127-0.65972-0.66452-0.27538-0.25388-0.20035-0.16692-0.20234-0.1504-0.25064-0.15806-0.20774-0.11223-0.27325-0.12581-0.26857-0.098245-0.2683-0.076379-0.29967-0.064051-0.41124-0.048342-1.0434-0.049835-0.24654-0.021739-0.38714-0.05696-0.61451-0.13839-0.53021-0.16587-0.43332-0.17771-0.2577-0.1333-0.15465-0.094928-0.28606-0.21901-0.087412-0.082575-0.17167-0.19644-0.2221-0.37566-0.083192-0.21782-0.068823-0.25613-0.077006-0.45013-0.040609-0.33154-0.026703-0.32608-0.007072-0.31346 0.03084-0.72617-0.001913-0.43475-0.031389-0.27456-0.041022-0.13858-0.065021-0.13313-0.071116-0.10288-0.11371-0.12043-0.21121-0.15101-0.2387-0.13979-0.25433-0.16664-0.23868-0.17703-0.62646-0.51186-0.23071-0.1504-0.4281-0.23364-0.47091-0.2223-1.5183-0.67293-0.49787-0.25128-0.39127-0.22288-1.0253-0.62081-0.16003-0.088969-0.34132-0.16593-0.28451-0.10548-0.27359-0.08303-0.27746-0.067271-1.377-0.24704-0.43281-0.11094-0.5421-0.16552-0.24027-0.087226-0.48019-0.19629-0.49527-0.23307-0.31871-0.19588-0.2264-0.17939-0.41907-0.39666-0.19485-0.21449-0.15573-0.20253-0.17031-0.26366-0.11511-0.22406-0.31471-0.75643-0.12325-0.24733-0.25938-0.39892-0.36238-0.47825-0.42405-0.51755-0.86501-0.98788-0.74532-0.81325-1.0991-1.164-1.0538-1.0905-0.78543-0.79013-0.62565-0.60122-0.66345-0.60229-0.3381-0.2899-0.4146-0.33629-0.42431-0.31838-0.43658-0.29559-0.45217-0.26661-0.55519-0.27168-0.57399-0.23831-1.7691-0.66181-0.89783-0.37345-0.53943-0.24047-0.93699-0.44976-0.48854-0.25835-0.96075-0.55437-0.94551-0.5917-1.0072-0.67144-1.0214-0.72623-1.6467-1.2431-0.86364-0.62658-0.92356-0.63738-0.74123-0.49635-2.596-1.6778-0.5273-0.35443-0.50425-0.3568-0.42495-0.31655-0.30205-0.23852-0.11245-0.10679 0.21631-0.2974 0.48456-0.59966 0.29345-0.33085 0.31456-0.32587 0.33123-0.30754 0.6744-0.55258 0.69545-0.55521 0.703-0.52547 0.35598-0.23987 0.36103-0.21717 0.36824-0.18761 0.39334-0.15963 0.39671-0.13227 1.139-0.34636 0.33631-0.13268 0.82999-0.42928 0.23727-0.14406 0.2159-0.15828 0.07987-0.070128 0.17253-0.18191 0.33212-0.3844 0.19602-0.18298 0.73056-0.58738 0.29655-0.26926 0.21327-0.22846 0.20137-0.24508 0.19088-0.25679 0.54125-0.79759 0.20042-0.25759 0.22601-0.23207 0.27195-0.20596 0.33902-0.19616 0.42333-0.2036 0.47316-0.2037 0.66214-0.24522 0.93898-0.2928 1.0005-0.28157 1.1595-0.31087 0.11008-0.038347 0.1557-0.024598 0.31482-0.12426 0.40003-0.20253 0.43006-0.26947 0.18898-0.13824 0.40188-0.32933 0.38391-0.36201 0.3527-0.38534 0.30928-0.4021 0.58263-0.9422 0.1539-0.22901 1.1225-1.4864 0.23599-0.35304 0.24126-0.42117 0.22371-0.46909 0.18167-0.4634 0.16873-0.58036 0.18752-1.0031 0.10331-0.44153 0.10512-0.31388 0.06325-0.14795 0.16608-0.29658 0.1652-0.22298 0.17226-0.19449 0.23083-0.22239 0.20974-0.17761 0.48644-0.36422 1.2855-0.89314 0.37238-0.28977 0.38339-0.3431 0.2706-0.28807 0.21674-0.26828 0.26618-0.38251 0.56231-0.88352 0.32351-0.55535 0.28274-0.55166 0.21678-0.46741 0.51798-1.2502 0.25641-0.5756 0.32649-0.67189 0.35828-0.65218 0.44622-0.73793 1.0522-1.584 0.55982-0.93651 0.34558-0.54454 0.25346-0.37502 0.25099-0.33515 0.44482-0.53164 0.16181-0.28884 0.03385-0.11489 0.021433-0.14691-0.003333-0.23636-0.029537-0.20118-0.075442-0.33329-0.17618-0.57455-0.10476-0.39144-0.028413-0.14317-0.025891-0.17557-0.019014-0.25429 0.007113-0.31174 0.042583-0.31367 0.1056-0.39471 0.14698-0.39342 0.28878-0.67054 0.13199-0.27653 0.23306-0.41472 0.2686-0.41744 1.24-1.7541 0.46477-0.58367 0.33977-0.38904 0.4258-0.45837 0.19279-0.18679 0.087563 0.043113 0.23225 0.069764 0.79585 0.20258 0.51292 0.17471 0.54549 0.22227 0.80272 0.36181 0.586 0.27773 1.176 0.58168 3.3844 1.7326 1.5165 0.7624 1.0981 0.53646 1.1884 0.55321 0.93117 0.39857 0.7698 0.2971 0.59846 0.2065 0.30801 0.095378 0.6081 0.16138 0.48053 0.096209 0.46145 0.056177 0.43603 0.005485 0.40279-0.058945 0.20958-0.068206 0.38173-0.21823 0.34475-0.28858 0.33348-0.31315 0.34717-0.29392 0.38669-0.22991 0.42616-0.12732 0.47371-0.048531 0.50966 0.010767 0.53658 0.054568 0.55653 0.086081 0.57123 0.1078 2.369 0.50568 0.60502 0.11548 0.60899 0.099194 0.87378 0.10565 1.0706 0.086896 1.9787 0.099219 1.3874 0.047089 0.69023 0.010702 1.621-0.022692 2.8562-0.10445 0.40432-0.001661 0.39546 0.027933 0.23948 0.040623 0.45186 0.12428 0.27881 0.10263 0.48003 0.20974 1.8259 0.87029 1.1682 0.52123 1.2174 0.49677 0.62572 0.22997 0.63608 0.2104 0.64477 0.18352 0.63098 0.15032 0.73173 0.15728 1.3609 0.24773 1.0338 0.1571 0.24506 0.020696-0.05256-0.040322-0.002744-0.091929 0.021474-0.075146 0.098485-0.19782 0.16335-0.24206 0.19195-0.24095 0.33191-0.36431 0.27886-0.27526 0.99603-0.94079 0.30314-0.3298 0.18032-0.21969 0.31401-0.43982 0.29037-0.47887 0.1939-0.37481 0.32772-0.76259 0.14673-0.26632 0.1437-0.20539 0.46674-0.55305 0.77917-1.1024 0.40441-0.51922 0.38578-0.44736 0.20762-0.26222 0.45202-0.63752 0.31569-0.42197 0.32749-0.36946 0.20694-0.19912 0.17023-0.14705 0.33491-0.24662 0.15624-0.095994 0.25134-0.13033 0.27586-0.11077 0.22424-0.06579 0.22773-0.045954 0.69143-0.09398 1.2999-0.14097 0.4747-0.041736 0.67487-0.021365 1.1691 0.007367 0.15455-0.006604 0.055974-0.01468 2.7188-1.0124 0.99822-0.38881 2.1114-0.87918 0.45998-0.21306 0.28104-0.14676 0.3734-0.23044 0.18426-0.13688 0.17063-0.14876 0.12527-0.12972 0.22677-0.30164 0.5402-0.91651 0.13103-0.19788 0.14138-0.18386 0.13034-0.14004 0.14333-0.12198 0.23347-0.13932 0.25905-0.10177 0.27796-0.071569 0.29131-0.046328 0.29988-0.023828 0.30408-0.001929 0.30396 0.021538 0.2992 0.048896 0.28912 0.082653 0.27272 0.12552 0.1135 0.07151 0.1795 0.1371 0.17967 0.16276 0.23468 0.24199 0.33428 0.38309 0.53404 0.64584 0.30106 0.33106 0.083249 0.075592 0.12534 0.079537 0.066151-0.025878 1.4285-0.72427 0.81001-0.44021 0.39078-0.2275 0.37185-0.23168 0.34657-0.23685 0.31434-0.24394 0.27384-0.25378 0.2231-0.26715 0.15106-0.24964 0.23852-0.4922 0.14392-0.24123 0.12179-0.13884 0.2205-0.15298 0.2686-0.11319 0.30341-0.084743 0.32754-0.065394 1.3934-0.20295 0.33546-0.065058 0.31612-0.083008 0.28789-0.10858 0.24885-0.14335 0.20722-0.18831 0.33609-0.4242 0.16898-0.18776 0.19682-0.13653 0.14111-0.046983 0.15705-0.021207 0.19874 0.002502 0.21455 0.025829 0.46276 0.099433 0.89709 0.25455 1.7299 0.55458 0.5319 0.14237 1.0406 0.25623 1.004 0.29577 0.15229-0.027352 0.30095-0.031481 0.37939-0.007739 0.48281 0.040272 0.81406 0.11848 0.3834 0.019209 0.41532-0.015066 1.091-0.079205 1.595-0.085452 1.247-0.038205 1.28-0.007437 1.25 0.032705 1.4233 0.066732 1.0888 0.078355 0.63143 0.070448 0.57776 0.097584 0.43594 0.10858 0.34917 0.11733 0.53547 0.22459 0.5506 0.27129 0.43382 0.23322 1.633 0.94631 0.15217 0.078257 0.020751 0.022688 0.058994 0.030409 0.19268 0.067275 0.29623 0.055484 0.1865 0.015097 0.76826 0.018902 0.18716 0.013175 0.18318 0.024329 0.16236 0.034346 0.15925 0.044006 0.32726 0.1126 0.77541 0.30699 0.2744 0.096854 0.26384 0.075032 0.24609 0.055952 0.71704 0.13241 1.0927 0.15453 0.81727 0.081921 0.80011 0.053534 1.4394 0.062509 0.38251 0.036462 0.59384 0.034588 0.96684 0.028033 0.42658 5.79e-4 0.92404-0.023621 2.4835-0.13183 1.1954-0.0437 1.2314-0.003278 1.7049 0.060709 0.78026 0.008463 0.43734-0.027612 0.23976-0.037843 0.18802-0.051146 0.094698-0.037934 0.16098-0.1001 0.033787-0.031095 0.10994-0.15768 0.042717-0.10677 0.050744-0.20924 0.14914-1.1642 0.017896-0.21813 0.006071-0.34852-0.023583-0.5198-0.078906-0.80496-0.32562-2.4282-0.11053-1.0114-0.052216-0.78502-0.00819-0.42635 0.005041-0.276 0.038792-0.5138 0.08709-0.50336 0.11131-0.4168 0.16444-0.46669 0.16824-0.36787 0.20493-0.33843 0.19061-0.234 0.22527-0.19573 0.19883-0.11116 0.41721-0.095503 0.4704 0.018246 0.50972 0.099963 0.38504 0.10906 0.31344 0.1048 0.34049 0.12684 0.55835 0.23089 0.71048 0.32246 0.76284 0.36877 1.442 0.74124 1.2738 0.69189 2.3772 1.3253 1.2178 0.64821 0.99482 0.48716 0.38292 0.17022 0.52299 0.2081 0.45796 0.14833 0.30487 0.073302 0.37768 0.049863 0.22107 5.27e-4 0.2769-0.039009 0.14884-0.040709 0.17504-0.064395 0.26758-0.13057 0.33429-0.21361 0.15997-0.12161 0.22876-0.19624 0.28131-0.28188 0.27784-0.34017 0.13312-0.19941 0.11767-0.21263 0.068677-0.1507 0.11123-0.30835 0.12438-0.49862 0.069062-0.40587 0.061304-0.55753 0.041584-0.69795 0.03601-1.7919 0.03559-0.89561 0.072399-1.082 0.15942-2.0094 0.049937-0.948 0.007227-0.53964-0.012155-0.54484-0.045772-0.78742-0.088158-1.0655-0.010486-0.28476 0.004845-0.16959 0.031029-0.21694 0.021339-0.071714 0.051191-0.1082 0.073737-0.093988 0.068074-0.055178 0.10238-0.047827 0.098679-0.016264 0.087392 0.006236 0.098808 0.028075 0.10082 0.047657 0.20563 0.13927 0.64424 0.51701 0.30394 0.2073 0.89329 0.54898 1.3352 0.84653 0.42196 0.24856 0.34813 0.18549 0.35665 0.1625 0.3115 0.1152 0.37354 0.11321 1.1532 0.28381 0.55444 0.15104 0.43433 0.1457 0.95663 0.36197 0.79151 0.2428 0.76086 0.19212 0.96416 0.20044 0.67053 0.099178 0.51156 0.033361 0.45197-0.002222 0.72577-0.053372 0.44918-0.05487 0.58736-0.087181 1.1711-0.21318 0.14051 0.012549 0.30644 0.074408 0.20188 0.07246 0.12797 0.059378 0.20934 0.12379 0.63348 0.45268 0.1552 0.093711 0.84644 0.44143 0.23175 0.15222 0.18674 0.15944 0.42211 0.44038 0.18078 0.16806 0.11994 0.095436 0.21334 0.14648 0.20662 0.12211 0.27117 0.13907 0.21909 0.098747 1.0551 0.40415 0.50662 0.22479 0.12252 0.034459 0.17312 0.021578 0.2218-0.003328 0.88557-0.10581 0.3248-0.00901 0.16696 0.014791 0.26119 0.056981 0.15845 0.050612 0.76701 0.29752 0.17433 0.054715 0.17895 0.04245 0.21016 0.02956 0.34239 0.012465 0.33217-0.015573 1.4628-0.14886 0.32423-0.011111 0.28978 0.007162 0.95605 0.05898 0.27515 0.028701 0.25199 0.053321 0.12429 0.038064 0.19785 0.088238 0.03644 0.040334 0.037703-0.09334 0.10182-0.11861 0.094298-0.082653 0.21481-0.14882 0.24864-0.1157 0.26922-0.051229 0.18078 0.013138 0.12819 0.029467 0.23806 0.090022 0.31905 0.17607 0.22072 0.1515 0.19236 0.14954 0.22981 0.20085 0.20253 0.20167 0.21371 0.25113 0.13859 0.1961 0.46041 0.74708 0.14276 0.18369 0.2497 0.21312 0.26618 0.1098 0.33002 0.05313 0.35855 0.003399 0.38466-0.032318 0.68607-0.10808 0.5408-0.10916 1.143-0.26496 3.6362-0.91504 1.2237-0.27012 0.42439-0.076357 0.59995-0.08078 0.48667-0.030466 0.2357 0.001297 0.23284 0.014917 0.40498 0.068555 0.34719 0.1113 0.33623 0.15143 0.28483 0.15895 0.32964 0.21798 0.31218 0.24082 0.19797 0.1716 0.18636 0.17683 0.22319 0.23528 0.40466 0.48014 0.16942 0.17811 0.13264 0.10496 0.094394 0.050597 0.10013 0.032599 0.12163 0.00959 0.10801-0.029313 0.073356-0.075801-0.043869-0.028107-0.016103-0.07949 0.033532-0.58507-0.00385-0.2004-0.052337-0.49236-0.05032-0.28922-0.10719-0.49127-0.14943-0.57811-0.58152-2.0612-0.11728-0.49123-0.082475-0.4299-0.034679-0.24591-0.024116-0.34087 0.00308-0.17339 0.04404-0.33014 0.074499-0.28228 0.049033-0.14546 0.18214-0.43899 0.12856-0.26258 0.31276-0.56588 0.42262-0.68449 1.9076-2.8638 0.3945-0.54827 0.28611-0.36593 0.24137-0.29042 0.41318-0.46267 1.7544-1.8401 0.58913-0.60336 1.4848-1.4678 0.75613-0.79006 0.47352-0.53297 0.60359-0.7345 0.53621-0.7123 0.18652-0.26565 0.077667-0.13114 0.066165 0.042227 0.18194-7.55e-4 0.24078-0.044731 0.16369-0.045785 0.35183-0.13043 0.23752-0.10738 0.35752-0.1845 0.34866-0.19924 0.62331-0.386 0.74507-0.49613 2.6163-1.8663 0.61433-0.42368 0.87036-0.57988 1.0326-0.66052 0.81366-0.49657 0.77144-0.44831 0.69016-0.38036 0.751-0.38551 0.57065-0.2717 0.63331-0.27947 0.47837-0.18851 0.51557-0.16758 0.27941-0.068179 0.28161-0.046284 0.33941-0.014515 0.17225 0.01576 0.14191 0.028258 0.12291 0.037748 0.17553 0.07627 0.24356 0.15087 0.17351 0.1421 0.10868 0.10491 0.16183 0.18187 0.11716 0.1538 0.19345 0.30729 0.14851 0.30696 0.11792 0.33739 0.05842 0.25429 0.031958 0.25707 0.003967 0.2892-0.039659 0.38979-0.041643 0.22191-0.091579 0.35858-0.087869 0.27406-0.21309 0.53485-0.26506 0.5284-0.26642 0.43857-0.32732 0.44771-0.19494 0.23131-0.27349 0.29687-0.6728 0.66529-0.50518 0.46193-1.4444 1.2617-0.35133 0.3254-0.244 0.24341-0.28193 0.3195-0.1104 0.14711-0.10017 0.15623-0.069255 0.13186-0.076081 0.19532-0.034728 0.14254-0.015902 0.13476 1.4e-5 0.15504 0.017407 0.15767 0.052637 0.22972 0.058974 0.17463 0.16301 0.3548 0.24393 0.40415 0.17437 0.2527 0.33346 0.44768 1.0307 1.3189 0.20415 0.2382 0.19216 0.19867 0.10964 0.10036 0.19642 0.15359 0.10836 0.06946 0.16429 0.083914 0.22248 0.072532 0.28048 0.036385 0.36609-0.012255 0.33359-0.047282 0.31721-0.070245 0.43788-0.12526 1.1026-0.35156 0.33186-0.084377 0.27212-0.047424 0.25666-0.025143 0.3179-0.007703 1.2168 0.05785 0.36937-0.005458 0.30636-0.031243 0.23597-0.041222 0.30381-0.07154 0.42249-0.12136 0.74158-0.25308 0.87441-0.35002 1.1033-0.48268 0.78386-0.37684 0.57196-0.30773 0.57938-0.35654 0.54385-0.38269 1.1752-0.87346 0.5037-0.32839 0.28803-0.14978 0.2752-0.1004 0.14079-0.023399 0.063223 0.002332 0.036848 0.009331 0.039671 0.021924-0.070349-0.23498-0.12121-0.46129-0.19309-0.86325-0.083354-0.47682-0.053006-0.40489-0.035421-0.51042 0.007369-0.43245 0.023487-0.2349 0.037937-0.21675 0.089145-0.30508 0.13956-0.30953 0.11649-0.20523 0.1738-0.27247 0.33232-0.46096 0.25756-0.29412 0.11125-0.10962 0.17748-0.15427 0.16527-0.12298 0.3022-0.18616 0.31566-0.16073 1.2881-0.5509 0.67523-0.33127 0.38383-0.17538 0.29343-0.10043 0.27888-0.045349 0.26297 0.029133 0.11661 0.044294 0.13126 0.074878 0.13871 0.10702 0.22629 0.23144 0.15249 0.19111 0.16068 0.22676 0.2188 0.34205 0.71924 1.1997 0.36221 0.53173 0.21242 0.26904 0.25131 0.27548 0.17013 0.15913 0.29994 0.22631 0.2159 0.11993 0.15043 0.062426 0.42665 0.093825 0.44805 0.003072 0.45833-0.067345 0.45839-0.12233 0.44858-0.16594 0.42878-0.20151 0.56762-0.31337 0.48415-0.23524 0.52356-0.21396 0.57902-0.19917 0.76163-0.21789 1.1752-0.31071 0.6472-0.1597 0.49332-0.10592 1.3668-0.2533 0.40981-0.12009 0.21746-0.091609 0.26463-0.14975 0.19488-0.14354 0.12763-0.11061 0.18731-0.18521 0.17892-0.19976 0.24174-0.29759 0.33171-0.4494 0.50758-0.76738 0.4858-0.70248 0.59665-0.92217 0.19589-0.27176 0.16814-0.20415 0.22422-0.22943 0.21429-0.18026 0.21954-0.15365 0.39175-0.2187 0.44784-0.19234 0.44651-0.15134 0.53508-0.14546 0.39311-0.087976 0.77482-0.14049 0.77271-0.10964 0.79927-0.078462 0.32591-0.008903 0.099944 0.009024 0.015074 0.009813 0.063445 0.13193 0.15121 0.13084 0.17283 0.1277 0.41164 0.26513 0.32094 0.18405 0.42529 0.22458 0.44522 0.21878 0.9473 0.4425 0.49226 0.25264 0.34172 0.20869 0.18574 0.12935 0.24855 0.1901 0.32574 0.27659 0.32594 0.30712 0.38936 0.40973 0.28074 0.32816 0.3893 0.51217 0.31612 0.4876 0.13704 0.24731 0.12983 0.27599 0.068967 0.18068 0.042816 0.13926 0.042042 0.19308 0.018159 0.19048-0.003545 0.13157-0.018104 0.12674-0.030712 0.11431-0.073727 0.16834-0.13202 0.19363-0.14025 0.15003-0.30039 0.24162-0.40386 0.24608-0.51781 0.25545-2.0655 0.87106-0.52097 0.23787" stroke="#bdc660"/>
    </defs>
    <g clip-path="url(#p0413f9719c)">
     <use y="280.512" fill="#bdc660" stroke="#bdc660" xlink:href="#mdf9fb438ff"/>
    </g>
   </g>
  </g>
 </g>
 <defs>
  <clipPath id="p0413f9719c">
   <rect x="7.2" y="7.2" width="340.42" height="266.11"/>
  </clipPath>
 </defs>
</svg>
