<?xml version="1.0" encoding="UTF-8"?>
<!DOCTYPE svg  PUBLIC '-//W3C//DTD SVG 1.1//EN'  'http://www.w3.org/Graphics/SVG/1.1/DTD/svg11.dtd'>
<svg width="278.58pt" height="280.51pt" version="1.1" viewBox="0 0 278.58 280.51" xmlns="http://www.w3.org/2000/svg" xmlns:xlink="http://www.w3.org/1999/xlink">
 <metadata>
  <rdf:RDF xmlns:cc="http://creativecommons.org/ns#" xmlns:dc="http://purl.org/dc/elements/1.1/" xmlns:rdf="http://www.w3.org/1999/02/22-rdf-syntax-ns#">
   <cc:Work>
    <dc:type rdf:resource="http://purl.org/dc/dcmitype/StillImage"/>
    <dc:date>2024-07-04T12:10:29.192285</dc:date>
    <dc:format>image/svg+xml</dc:format>
    <dc:creator>
     <cc:Agent>
      <dc:title>Matplotlib v3.7.1, https://matplotlib.org/</dc:title>
     </cc:Agent>
    </dc:creator>
   </cc:Work>
  </rdf:RDF>
 </metadata>
 <defs>
  <style type="text/css">*{stroke-linejoin: round; stroke-linecap: butt}</style>
 </defs>
 <g id="figure_1">
  <g id="patch_1">
   <path d="m0 280.51h278.58v-280.51h-278.58v280.51z" fill="none"/>
  </g>
  <g id="axes_1">
   <g id="PatchCollection_1">
    <defs>
     <path id="mb15c5fa08a" d="m196.66-261.11 0.20169 0.085484 0.20109 0.11637 0.22272 0.16517 0.37574 0.34581 0.40369 0.43934 0.8429 1.0073 0.40546 0.45576 0.42868 0.42872 0.50221 0.44348 0.91888 0.72218 0.39716 0.29074 0.31556 0.2102 0.31514 0.18019 0.20929 0.09865 0.18758 0.072676 0.21113 0.062938 0.30806 0.053627 0.34021 0.010752 0.30617-0.033043 0.31309-0.078471 0.21097-0.08663 0.17592-0.097891 0.45064-0.30963 0.6199-0.45684 0.17884-0.10857 0.25896-0.11988 0.36592-0.11332 0.42175-0.079681 0.58398-0.078161 0.13337-0.002652 0.12875 0.02469 0.056277 0.026112 0.026211 0.045384 0.043375 0.13749 0.029062 0.17582 0.030234 0.3856 0.059043 1.2215 0.090072 0.82618 0.1305 0.7761 0.27196 1.3667 0.23466 1.57 0.10696 0.62214 0.13656 0.61925 0.17091 0.63156 0.20187 0.64767 0.38112 1.1067 0.37821 0.93597 0.2809 0.63233 0.22873 0.47572 0.46134 0.86072 0.97111 1.5916 0.44872 0.81161 0.39502 0.80271 0.42739 1.0262 0.21479 0.42476 0.18385 0.2904 0.14533 0.18521 0.11764 0.12363 0.26028 0.19976 0.22451 0.10997 0.20585 0.056753 0.14959 0.016481 0.35727-0.032297 0.38982-0.10845 1.3474-0.53616 0.55812-0.20604 0.97303-0.31959 1.429-0.43762 0.8051-0.27466 0.89474-0.33356 1.764-0.68908 0.74359-0.25819 0.54848-0.14515 0.78593-0.15243 0.53183-0.063766 0.30339-0.009522 0.25587 0.011522 0.36861 0.051113 0.43185 0.10281 0.68568 0.23067 0.79044 0.33115 2.4158 1.1067 0.39968 0.16281 0.76398 0.28523 0.38319 0.1622 0.47173 0.252 0.34071 0.22098 0.51382 0.38318 0.5924 0.47276 0.30411 0.2188 0.20995 0.12765 0.19079 0.092977 0.23436 0.076352 0.28993 0.018802 0.1341-0.028164 0.14164-0.057572 0.1045-0.061131 0.13513-0.10188 0.26025-0.25546 0.21531-0.25032 0.86699-1.15 0.16452-0.19901 0.2574-0.24946 0.21401-0.12868 0.14365-0.048555 0.25148-0.035837 0.27113 0.001955 0.69114 0.042144 0.45927-0.011635 0.36853-0.05009 1.1918-0.24393 0.23187-0.030528 0.28633-0.017688 0.55985 0.033293 1.6303 0.24723 0.44538 0.081635 1.137 0.28248 1.4698 0.27956 1.0183 0.27065 0.7499 0.25436 0.97215 0.3712 0.33904 0.15962 0.15488 0.092682 0.049944 0.050033-0.45272 0.58328-0.28304 0.44766-0.1428 0.28016-0.12686 0.3066-0.11565 0.36044-0.065473 0.27174-0.04856 0.32457-0.011521 0.23448 0.008051 0.21298 0.023965 0.19771 0.081808 0.36545 0.12401 0.36871 0.15638 0.36677 0.1834 0.36918 0.48054 0.83586 0.63886 0.99982 1.5414 2.3191 0.62838 0.97571 0.6265 1.0335 0.28897 0.51054 0.47983 0.92271 0.2483 0.53791 0.21702 0.52954 0.19483 0.56265 0.26486 0.90076 0.1545 0.41761 0.18361 0.41605 0.3131 0.60509 0.32399 0.54493 0.37905 0.56531 0.1977 0.2682 0.24363 0.30457 0.24745 0.27644 0.20032 0.19613 0.21369 0.18219 0.25902 0.19505 0.32132 0.21903 0.1987 0.15624 0.11464 0.13181 0.070295 0.14903 0.016279 0.29535-0.075181 0.34511-0.25095 0.81799-0.092433 0.41634-0.056067 0.36539-0.029613 0.36287-0.001474 0.26558 0.030437 0.7051-0.002251 0.34015-0.014485 0.18612-0.041192 0.26574-0.07696 0.2894-0.24024 0.53102-0.33925 0.51472-0.40622 0.49827-0.44471 0.48045-0.84488 0.84894-0.34462 0.38429-0.2653 0.39412-0.14534 0.41919-0.014629 0.23854 0.013005 0.15753 0.045556 0.23128 0.2114 0.56084 0.35562 0.63231 0.45701 0.65995 0.52934 0.67552 0.57285 0.67322 0.47187 0.52542 1.2264 1.3035 0.11852 0.15159-0.26057 0.25478-1.0226 1.0812-0.38929 0.39321-0.531 0.50914-0.43838 0.38318-0.30518 0.20827-0.27849 0.14767-0.23802 0.10389-0.61461 0.22498-0.31895 0.14593-0.15244 0.099878-0.18275 0.17619-0.18366 0.3204-0.11698 0.38391-0.072847 0.42261-0.11355 1.0943-0.080678 0.42143-0.052707 0.20358-0.061167 0.19249-0.084886 0.20894-0.12802 0.24991-0.15657 0.20562-0.24301 0.16219-0.14444 0.03955-0.19884 0.011743-0.15891-0.015751-0.93281-0.23462-1.3278-0.27421-0.53601-0.067415-0.27808-0.003602-0.12976 0.009873-0.27574 0.05578-0.34053 0.17249-0.27518 0.26599-0.19615 0.33827-0.092162 0.30375-0.16495 0.98836-0.14798 0.58414-0.096393 0.27492-0.229 0.48499-0.29585 0.44508-0.8946 1.1283-0.2172 0.31118-0.22039 0.36485-0.12857 0.2473-0.17275 0.41372-0.07913 0.23825-0.1647-0.45946-0.12476-0.27325-0.165-0.2946-0.18992-0.27659-0.20169-0.24284-0.18-0.18395-0.17922-0.15978-0.27017-0.207-0.47155-0.29139-0.49248-0.2437-0.72139-0.29179-0.83119-0.27674-1.1295-0.34241-1.0319-0.35772-0.96029-0.38785-0.89582-0.39666-0.42877-0.21144-0.39062-0.21188-0.37254-0.2242-0.38929-0.26257-0.36532-0.27738-0.86361-0.75349-0.42285-0.34742-0.44666-0.29375-0.49124-0.22424-0.52574-0.1734-1.2164-0.34167-0.66955-0.23488-0.90291-0.40528-0.66535-0.33707-1.3493-0.74389-3.3894-1.9667-0.66255-0.35865-0.64899-0.32432-0.62935-0.27413-0.60164-0.203-0.56328-0.10437-0.51105 0.03006-0.1812 0.057043-0.2023 0.10266-0.32292 0.24956-0.42585 0.4479-0.39799 0.46772-0.35644 0.44939-0.31252 0.42381-0.29295 0.42485-0.40862 0.63414-0.33501 0.57466-0.2587 0.59175-0.1193 0.47419-0.056081 0.49138-0.003858 0.54181 0.081065 1.4153 0.081181 0.89825 0.10397 0.88577 0.082847 0.56878 0.12698 0.72013 0.15787 0.70838 0.11276 0.42002 0.1271 0.41095 0.14969 0.41752 0.16813 0.40257 0.32627 0.62882 0.1989 0.30815 1.1515 1.5398 0.29144 0.36334 0.67552 0.76007 0.1994 0.24261 0.23025 0.31083 0.2089 0.32267 0.16707 0.2996 0.14766 0.30427 0.16141 0.39297 0.12019 0.3928 0.036697 0.17355 0.03473 0.29633-0.007616 0.29333-0.06846 0.33264-0.10748 0.28468-0.14479 0.27906-0.31845 0.4637-0.3925 0.45186-0.48633 0.47399-0.53498 0.46321-0.58654 0.4676-1.2385 0.91152-1.9817 1.3997-1.042 0.70456-0.4715 0.28524-0.48085 0.25592-0.58742 0.26255-0.72031 0.27514-1.4297 0.50627-0.80181 0.31041-1.0631 0.46374-0.62712 0.31336-0.78287 0.43504-0.381 0.23691-0.13655 0.10025-0.039075 0.053869 0.59285 0.62356 0.5111 0.56643 0.47793 0.59416 0.25331 0.36849 0.18998 0.3234 0.28639 0.58513 0.32692 0.75869 0.53466 1.301 0.19414 0.41085 0.24423 0.43666 0.1448 0.22584 0.1532 0.21853 0.23683 0.30213 0.14389 0.16264 0.27942 0.26846 0.13452 0.10616 0.18696 0.12283 0.20333 0.10394 0.20604 0.07876 0.33438 0.087507 1.1183 0.17813 0.46598 0.10415 0.21308 0.072814 0.20466 0.092463 0.18559 0.10877 0.17431 0.12702 0.16158 0.14315 0.16816 0.1834 0.14307 0.19921 0.11164 0.21094 0.063274 0.17545 0.037712 0.17197 0.01323 0.15932-0.006244 0.13454-0.019637 0.093907-0.024106 0.032593-0.040627 0.014888-0.10674 0.1157-0.21617 0.3454-0.14728 0.29809-0.19816 0.50719-0.090052 0.28566-0.11262 0.44491-0.2992 1.7944-0.098548 0.41359-0.12329 0.40094-0.14213 0.38133-0.21452 0.49012-0.55178 1.1343-0.20583 0.5448-0.34035 0.83591-0.20681 0.55292-0.10868 0.33302-0.081248 0.30133-0.035251 0.20288-0.008438 0.34273 0.054517 0.39278 0.1587 0.54436 0.049038 0.25316 0.009485 0.22675-0.032832 0.33401-0.058747 0.27115-0.062021 0.21512-0.16031 0.44126-0.2125 0.46536-0.23707 0.42508-0.15029 0.23584-0.45917 0.62743-0.49785 0.57377-0.3209 0.31472-0.22202 0.18832-0.21779 0.16264-0.27172 0.1758-0.26635 0.14859-0.42528 0.20181-1.9557 0.81431-0.83999 0.38649-0.4634 0.17868-0.57468 0.18707-0.38361 0.14275-0.20548 0.098079-0.21673 0.12835-0.27498 0.21193-0.22922 0.23319-0.16095 0.2063-0.16314 0.25355-0.73787 1.3841-0.25722 0.42192-0.086752 0.12048-0.056307 0.05064-0.59145 0.65993-0.28245 0.38015-0.20064 0.36029-0.076121 0.18663-0.05754 0.18988-0.068988 0.38695-0.023272 0.47287 0.027127 0.67142 0.11408 1.4442 0.005458 0.45021-0.015311 0.22132-0.032488 0.21458-0.052204 0.2096-0.10698 0.2795-0.16231 0.30416-0.10526 0.16536-0.35376 0.48488-1.5781 1.9172-0.80315 1.0005-0.029867 0.00599-0.063957 0.089056-0.038765 0.13075-0.043999 0.32438-0.010417 0.23611 0.006846 0.46237 0.071442 1.2537 0.005515 0.41181-0.012034 0.29284-0.042656 0.39463-0.12939 0.61034-0.1833 0.54988-0.22033 0.49351-0.10225 0.19451-0.31599 0.52377-0.45435 0.64939-0.815 1.0838-0.37652 0.53277-1.256 1.9428-0.45906 0.66292-0.24569 0.31795-0.20983 0.24397-0.43914 0.43668-0.25984 0.22337-0.39238 0.30247-1.1528 0.79697-0.72937 0.52179-0.35419 0.26589-0.33912 0.27966-0.25528 0.24059-0.14176 0.15003-0.22419 0.27153-0.1309 0.18894-0.11371 0.20035-0.10959 0.29696-0.021103 0.13151-0.001786 0.17067 0.032386 0.18683 0.063567 0.17581 0.083948 0.16345 0.11915 0.19122 0.1246 0.1693 0.65524 0.81318 0.90706 1.0078 0.40506 0.38407 0.31977 0.24799 0.31989 0.18558 0.22688 0.1001 0.2278 0.073733 0.30453 0.060569 0.3514 0.027247 0.33336-0.007352 0.35283-0.038682 0.30052-0.05387 0.53871-0.13159 1.1159-0.33239 0.44251-0.11686 0.57904-0.11295 0.49582-0.054238 0.50319-0.004912 1.5758 0.058445 0.62738 0.002639 1.4721-0.027142 0.52471 0.029641 0.30216 0.041135 0.28393 0.062724 0.27327 0.091069 0.27752 0.129 0.24748 0.15224 0.21971 0.17685 0.18196 0.18825 0.1353 0.17445 0.14737 0.23924 0.10109 0.20276 0.12934 0.3123 0.1176 0.34607 0.078284 0.2828 0.12746 0.63876 0.081785 0.66896 0.048134 0.71816 0.017826 0.67854-0.004003 1.4369 0.028256 0.62031 0.058277 0.52044 0.12859 0.64296 0.14803 0.50082 0.23898 0.62503 1.039 2.2866 0.54016 1.2645 0.17445 0.47365 0.1263 0.40201 0.13607 0.56306 0.095631 0.68505 0.081193 1.1335 0.024749 0.7993 0.006148 1.3686 0.009048 0.33998 0.024187 0.18242-0.091762 0.008905-0.15784 0.091512-0.232 0.22776-0.22586 0.32087-0.16623 0.3221-0.15897 0.42549-0.082764 0.30764-0.064701 0.33106-0.13355 1.0494-0.16127 0.88689-0.19053 0.7789-0.13414 0.46263-0.2121 0.64116-0.34122 0.91491-1.1962 3.066-0.6353 1.6999-0.18277 0.4558-0.24522 0.55487-0.3369 0.68305-0.52658 0.9758-0.72948 1.2658-1.1682 1.9202-0.39708 0.68443-0.20918 0.41034-0.22882 0.54918-0.37415 1.2853-0.10107 0.2805-0.26669 0.53952-0.37301 0.55507-2.2947 2.8186-0.44932 0.48508-0.442 0.38738-0.37959 0.2454-0.20244 0.094104-0.52666 0.13569-0.3724 0.031617-0.78803 0.006131-0.42378 0.032453-0.47099 0.10374-0.37527 0.12799-0.4161 0.17712-0.67497 0.34111-0.4095 0.25154-0.34592 0.25055-0.27092 0.21979-0.33055 0.29118-0.57373 0.54256-0.33869 0.3524-0.12329 0.14656-0.12946 0.17303-0.22938 0.37148-0.61541 1.1845-0.29152 0.45791-0.36449 0.44795-0.66653 0.7656-0.27351 0.34402-0.18032 0.24771-0.11634 0.18726-0.048317-0.008351-0.29827-0.20197-1.0732-0.80009-0.5753-0.40822-2.1592-1.4784-0.37571-0.22887-0.30762-0.14502-0.20037-0.065296-0.10804-0.023912-0.2816-0.023919-0.2207 0.017797-0.24622 0.05332-0.27258 0.092543-0.50307 0.23121-0.28943 0.15667-0.27662 0.16526-0.53023 0.37044-0.49224 0.42251-0.22776 0.22385-0.44856 0.49433-0.29324 0.36226-0.28095 0.37606-0.26704 0.38397-0.50351 0.79694-0.4599 0.8142-1.0112 1.9262-0.38046 0.66277-0.35415 0.5641-0.15204 0.19177-0.16031 0.1442-0.098598 0.057708-0.10471 0.037341-0.19244 0.020479-0.21442-0.023363-0.28145-0.073762-0.3979-0.15489-0.42168-0.20513-0.46944-0.26499-0.37657-0.24678-0.45871-0.34838-0.41951-0.36506-0.44923-0.44544-0.26965-0.2984-0.37903-0.46438-0.62355-0.83456-0.67521-0.94882-0.51307-0.78876-0.69679-1.2061-0.072798-0.11678-0.031766-0.029759-0.09414-0.058721-0.13511 0.001287-0.24755 0.057306-0.20535 0.075325-0.27854 0.12989-0.33935 0.19404-0.34878 0.23702-0.29486 0.22946-0.54074 0.48382-0.44279 0.44745-0.47015 0.53496-0.36386 0.48045-0.27969 0.42118-0.21717 0.36535-0.22126 0.41235-0.26348 0.55588-0.63439 1.4926-0.31511 0.69576-0.27988 0.57334-0.33792 0.62267-0.23638 0.37887-0.33224 0.47079-0.35288 0.44062-0.22582 0.25476-0.3574 0.3631-0.33995 0.30249-0.40416 0.30559-0.44003 0.28317-0.43928 0.2362-0.35039 0.14713-0.24896 0.080408-0.52424 0.11349-0.51798 0.061345-0.43716 0.025308-0.54479 0.005832-0.77618-0.025733-1.554-0.11563-2.1566-0.19802-0.55631-0.072781-0.38188-0.091963-0.32967-0.14152-0.23153-0.172-0.17572-0.21991-0.15204-0.42494-0.036411-0.50563 0.046609-0.56053 0.10275-0.59398 0.1953-0.97217 0.083192-0.56967 0.038085-0.43924 0.007816-0.669-0.020007-0.3427-0.049408-0.4247-0.12182-0.56656-0.10897-0.31404-0.12048-0.25063-0.118-0.18673-0.10752-0.13975-0.13607-0.14992-0.19002-0.17537-0.2147-0.16456-0.37491-0.2273-0.4045-0.19268-0.42268-0.1684-1.073-0.38428-0.43528-0.19118-0.33952-0.18982-1.3888-0.91902-0.39186-0.21332-0.29556-0.12732-0.2482-0.080019-0.4634-0.080649-0.4836-0.006537-0.60583 0.080564-0.4946 0.12476-0.45854 0.15302-0.45884 0.18019-0.49526 0.21643-1.0458 0.49741-0.82712 0.41822-0.64622 0.38821-0.34668 0.24149-2.374 1.8059-0.44576 0.38785-0.44385 0.43189-0.2688 0.28699-0.42742 0.52253-0.33831 0.48586-0.51176 0.78541-0.2468 0.40732-0.26881 0.49695-0.27968 0.59089-0.63709 1.4381-0.30568 0.65757-1.5959 3.3145-0.66037 1.4525-0.29631 0.70858-0.25966 0.7088-0.1239 0.40133-0.13516 0.54814-0.1074 0.71888-0.025042 0.41666-0.002529 0.40909 0.030655 0.6514 0.13931 1.9146 0.013782 1.4503 0.020119 0.70329 0.082985 1.1435 0.088679 1.006 0.08988 0.64035 0.093503 0.44332 0.099827 0.34679 0.11289 0.29658 0.14337 0.27999 0.1703 0.23786 0.12453 0.12645 0.16074 0.11846 0.13993 0.07168 0.19924 0.061061 0.11715 0.017219 0.21226 0.005226 0.4144-0.051301 0.39044-0.095308 0.5533-0.1784 1.4621-0.5292 0.74292-0.21156 0.46647-0.092842 0.43293-0.030793 0.16836 0.00893 0.2396 0.041527 0.13603 0.04427 0.1565 0.076269 0.15288 0.10516 0.11394 0.10146 0.13049 0.1454 0.20319 0.30629 0.12213 0.247 0.15295 0.42685 0.07292 0.29513 0.16782 0.91774 0.081865 0.32996 0.15149 0.50152 0.35354 1.0087 0.15711 0.55718 0.35257 1.385 0.065676 0.21987 0.13669 0.37444 0.20031 0.42277 0.24531 0.39373 0.99513 1.3421 0.35048 0.51182 0.12462 0.21596 0.11276 0.23179 0.076108 0.19727 0.052806 0.18161 0.058254 0.35823 0.006801 0.40747-0.029981 0.32525-0.056529 0.33-0.094722 0.38674-0.1217 0.38618-0.18618 0.47534-0.23064 0.46421-0.25373 0.39491-0.17664 0.22475-0.2213 0.23992-0.32331 0.28248-0.23332 0.16628-0.51252 0.30115-1.1952 0.59401-0.35809 0.21949-0.23968 0.18166-0.19829 0.17683-0.20144 0.20364-0.34933 0.413-0.15501 0.21451-0.15681 0.25395-0.05009 0.1212 0.012732 0.046715-0.2981-0.060436-2.5939-0.68383-0.62422-0.13749-0.58201-0.078503-0.58086-0.037359-0.40544-0.006846-0.66696 0.0377-0.67754 0.082284-1.2195 0.18446-1.3349 0.21489-1.621 0.28493-1.2302 0.19221-1.0925 0.26997-0.4331 0.09302-0.37063 0.03827-0.32566-0.014338-0.37926-0.080071-0.39828-0.15282-0.31934-0.16782-0.31057-0.19759-0.47604-0.36153-0.33581-0.29289-0.80909-0.7815-0.22088-0.19785-0.2142-0.16147-0.33133-0.149-0.32512 0.007232-0.32838 0.12594-0.32357 0.20394-0.58796 0.47957-0.26242 0.18698-0.28641 0.1488-0.25192 0.082922-0.2697 0.06004-0.42641 0.068099-0.45991 0.025261-0.48452-0.0519-0.45184-0.13542-0.46782-0.20605-0.37662-0.19563-0.97309-0.54696-0.63754-0.34198-0.65662-0.33243-0.65278-0.31537-1.156-0.52539-0.3945-0.16231-0.15698-0.038338-0.12448-0.021006-0.22994-0.21218-0.1133-0.36247 0.023969-0.44785 0.18068-0.49426 0.28602-0.50578 0.31838-0.51375 0.27943-0.52568 0.17092-0.54602 0.012026-0.55764-0.12267-0.56583-0.096054-0.2682-0.24761-0.56052-0.29577-0.56311-0.32791-0.5505-0.69411-1.1023-0.26215-0.39519-0.99009-1.3861-0.42765-0.65124-0.2737-0.47094-0.57155-1.119-0.43084-0.75197-0.38396-0.60399-0.41958-0.5839-0.3859-0.46472-0.34321-0.35791-0.3651-0.3299-0.26953-0.21257-0.31536-0.21869-0.6085-0.34184-0.63461-0.25853-0.65063-0.16471-0.65825-0.052807-0.52998 0.048707-0.53217 0.11085-0.53659 0.14916-1.6944 0.50576-1.6556 0.47037-0.66146 0.13646-0.55075 0.048108-0.54033 0.004336-1.0094-0.022792-0.47397-0.039801-0.44761-0.09176-0.44098-0.13564-0.42927-0.16303-1.0522-0.44901-0.23122-0.080022-0.26874-0.064753-0.64399-0.099298-0.62067-0.17405-0.17613-3.1e-5 -0.10312 0.043701-0.075148 0.069299-0.11778 0.21771-0.18418 0.68015-0.10715 0.27148-0.063014 0.10139-0.084633 0.09914-0.13868 0.10401-0.14946 0.05883-0.49174 0.090592-0.57986 0.22493-0.19458 0.058904-0.26244 0.053318-0.7318 0.10743-0.34679 0.07716-0.27408 0.085937-0.4617 0.19309-0.58076 0.3044-1.4248 0.84306-1.0766 0.58944-0.50038 0.29217-0.35846 0.23194-0.50003 0.35555-1.3519 1.0099-0.31025 0.20819-0.3939 0.23251-0.24544 0.12243-0.25003 0.10488-0.25252 0.083958-0.18146 0.045418-0.51791 0.062882-0.53153-0.006264-1.1065-0.089331-1.947-0.078078-0.65287-0.059592-0.64113-0.11737-0.16706-0.044334-0.4464-0.14746-0.44405-0.18026-2.4048-1.1014-0.71637-0.34908-0.57107-0.30676-0.35872-0.21584-0.48817-0.34485-0.1867-0.15695-0.21187-0.20232-0.30513-0.34497-0.13749-0.18044-0.24667-0.37353-0.14-0.24752-0.25534-0.53983-0.1797-0.46623-0.11416-0.34206-0.12465-0.42258-0.27968-1.1181-0.050262-0.14626 0.04821-0.02753 0.030063-0.11057-0.012776-0.32306-0.079626-0.44702-0.12524-0.48734-0.15959-0.52883-0.58734-1.832-0.23539-0.86182-0.11094-0.56548-0.045197-0.53764 0.044211-0.50705 0.19656-0.5804 0.25402-0.45546 0.35313-0.50075 1.1051-1.3447 0.27654-0.36895 0.21957-0.37088 0.13757-0.38268 0.032838-0.22309 0.004138-0.22252-0.024293-0.27156-0.11299-0.54534-0.16644-0.56188-0.54066-1.6568-0.19882-0.52326-0.22535-0.47026-0.25614-0.45598-0.27494-0.43513-0.57091-0.80154-0.24016-0.36711-0.19915-0.36976-0.1437-0.36446-0.071642-0.35085 0.001845-0.26466 0.021278-0.16156 0.17186-0.83659 0.025439-0.29578-0.010456-0.19234-0.045143-0.25656-0.05089-0.1809-0.18335-0.45426-0.2357-0.4322-0.2236-0.34349-0.28498-0.38844-0.37936-0.47597-0.64353-0.72615-0.17622-0.17282-0.8278-0.73114-0.32101-0.36677-0.28116-0.40758-0.29076-0.55921-0.1173-0.3175-0.050119-0.182-0.039571-0.2001-0.022991-0.24366 0.031257-0.37489 0.076295-0.28525 0.11288-0.2806 0.14231-0.27472 0.27277-0.42341 0.35529-0.44793 0.29617-0.29439 0.12644-0.10206 0.22665-0.14539 0.37904-0.14702 0.32366-0.065355 0.24011-0.017808 0.50455 0.032306 0.45507 0.11984 0.45737 0.1798 0.91392 0.39346 0.45215 0.14034 0.37195 0.057181 0.35804 0.012708 0.33413-0.014342 0.37459-0.047082 0.20127-0.066814 0.21-0.1556 0.12717-0.22832 0.02064-0.34208-0.099579-0.39929-0.19713-0.42947-0.11428-0.19632-0.18766-0.29311-0.6759-0.94202-0.17408-0.26859-0.11993-0.20365-0.22772-0.44603-0.099246-0.22924-0.14386-0.39459-0.12079-0.49077 2.65e-4 -0.35112 0.15982-0.11345 0.83276 1.1529 1.0218 1.3441 1.2385 1.5364 1.773 2.157 0.50743 0.57384 0.51659 0.51872 0.56069 0.48006 0.40234 0.31653 0.41305 0.28709 0.55551 0.3105 1.1613 0.552 0.81738 0.41813 0.58925 0.28083 0.5 0.21851 0.62446 0.24733 0.60662 0.20847 0.37959 0.10659 0.33709 0.074446 0.40703 0.067154 0.57004 0.061934 0.68052 0.042118 1.3781 0.041953 0.68393-0.026819 0.65809-0.11761 0.54154-0.20312 0.52586-0.28186 0.51731-0.33709 0.51525-0.37236 1.5728-1.1826 1.0241-0.81123 1.8543-1.5822 0.38414-0.34825 0.90432-0.88525 0.39337-0.30309 0.27317-0.17155 0.32553-0.17274 0.31481-0.14148 0.62311-0.22961 1.1515-0.36391 0.46598-0.16144 0.4317-0.17465 0.477-0.23288 0.44137-0.26431 0.39419-0.29568 0.26715-0.25374 0.19337-0.22925 0.14216-0.20974 0.17813-0.3721 0.085065-0.37814 0.002819-0.22275-0.042322-0.29471-0.08929-0.29016-0.12303-0.28278-0.26736-0.54402-0.18562-0.45619-0.15468-0.49378-0.11526-0.51721-0.065543-0.52778-0.010925-0.24256 0.005113-0.39988 0.069316-0.60187 0.094363-0.39766 0.068577-0.20475 0.16099-0.38252 0.19479-0.3883 0.8022-1.3986 0.25648-0.46484 0.28439-0.55647 0.43871-0.94485 0.41285-1.0041 0.29034-0.80085 0.18062-0.57843 0.10626-0.41666 0.3113-1.4022 0.17168-0.6729 0.16576-0.5085 0.14967-0.35787 0.083974-0.16638 0.12447-0.20941 0.1499-0.2073 0.18448-0.20916 0.19852-0.18927 0.39995-0.32182 0.93066-0.66052 0.74052-0.56009 0.36682-0.30806 0.31907-0.33123 0.29343-0.43007 0.22893-0.45015 0.102-0.22982 0.064479-0.16155 0.094184-0.30857 0.046119-0.40209-0.026987-0.38743-0.14037-0.64867-0.04367-0.2849-0.027318-0.40829-6.34e-4 -0.41572 0.029195-0.77688-0.014652-0.27022-0.040248-0.17492-0.058964-0.12106-0.058055-0.067874-0.067202-0.048379-0.13092-0.049853-0.15973-0.021247-0.28327 0.01923-0.16267 0.035955-0.26999 0.095142-0.56144 0.28746-0.29912 0.12968-0.25431 0.07035-0.25269 0.039614-0.31429 0.024165-0.35863-0.004275-0.18838-0.018743-0.3252-0.065641-0.22964-0.077789-0.23839-0.11541-0.19092-0.12503-0.22625-0.19701-0.45111-0.4659-0.14973-0.12897-0.23317-0.15586-0.26886-0.1324-0.46168-0.17498-1.1299-0.37029-0.70838-0.19291-0.67751-0.14231-0.31015-0.081843-0.35715-0.13206-0.31588-0.15608-0.45182-0.28327-0.32521-0.26908-0.15093-0.15981-0.15535-0.2019-0.12098-0.19389-0.11065-0.22498-0.088413-0.24662-0.0781-0.43047 0.003461-0.45234 0.084969-0.45956 0.2178-0.57423 0.2975-0.57372 0.44002-0.79966 0.29907-0.63145 0.20937-0.55373 0.14579-0.5536 0.04761-0.30113 0.033581-0.37658 0.004334-0.41364-0.038512-1.6531 0.013651-0.30196 0.051332-0.54264 0.05948-0.42657 0.1251-0.69728 0.19463-0.86026 0.32709-1.2968 0.1155-0.55352 0.046807-0.30992-0.40146-0.052962-0.51671-0.1351-0.44791-0.16938-0.44734-0.21203-0.41031-0.25053-1.0289-0.71895-0.17354-0.13467-0.30602-0.27035-0.77192-0.76533-0.12218-0.098581-0.25996-0.17599-0.1681-0.094067-0.35184-0.15838-0.30998-0.10479-0.5172-0.14598-0.28331-0.10199-0.32771-0.14502-0.34876-0.20846-0.25458-0.21142-0.32624-0.32815-0.2814-0.32825-0.7138-0.92584-0.24002-0.2672-0.25862-0.24306-0.069521-0.049653-0.18391-0.051217-0.29362-0.044023-0.38858-0.024943-0.45203 0.001638-0.39744 0.022213-0.38862 0.038514-0.40576 0.060196-0.44901 0.093268-0.6523 0.18612-0.20119 0.079407-0.44635 0.22953-0.20209 0.13285-0.21567 0.16555-0.17294 0.14966-0.32361 0.31632-1.2486 1.4108-0.76706 0.91608-0.39409 0.49271-0.42812 0.5748-0.19236 0.28158-0.17956 0.28325-0.34772 0.61211-0.48483 0.9813-0.24301 0.55425-0.23072 0.59004-0.36582 1.099-0.16186 0.31346-0.091923 0.12451-0.11683 0.11521-0.088586 0.06103-0.12782 0.060723-0.2194 0.061857-0.58758 0.11549-0.18381 0.060262-0.20688 0.10493-0.25853 0.2208-0.39049 0.49055-0.17102 0.19211-0.091898 0.083926-0.19814 0.14152-0.29692 0.13928-0.14878 0.047359-0.26851 0.060299-0.55671 0.061814-0.61213 0.013315-2.2542-0.067012-0.71112 0.026225-0.40507 0.044338-0.39694 0.074877-0.22184 0.059682-0.40196 0.14674-0.39048 0.18808-0.4744 0.2824-0.36106 0.24848-0.35672 0.26848-0.73745 0.60562-0.88286 0.76598-0.79479 0.71991-0.44379 0.4206-0.88504 0.86703-1.1298 1.134-0.86576 0.89623-0.72635 0.78654-1.1124 1.2803-0.70016 0.85352-0.47804 0.62374-0.36013 0.51162-0.3389 0.51305-1.0994 1.7251-0.23869 0.34925-0.11028 0.12692-0.082983 0.051351-0.17539-0.033763-0.30088-0.14687-0.35727-0.24339-0.38577-0.31754-0.416-0.39576-0.30361-0.32479-0.29089-0.34567-0.17908-0.2342-0.26032-0.37864-0.25036-0.42277-0.1998-0.40016-0.16286-0.39786-0.11148-0.34348-0.068652-0.2678-0.077019-0.42707-0.037777-0.39358-0.005445-0.42465 0.086859-0.96131 0.034982-0.5314 0.010351-0.54612-0.010191-0.47964-0.028832-0.47702-0.054565-0.48547-0.12548-0.6354-0.18727-0.61083-0.6033-1.4937-0.56425-1.2016-0.16857-0.51361-0.04736-0.22-0.041532-0.30108-0.032884-0.6159-0.003777-0.81204 0.014645-1.0392-0.026817-0.94283-0.028991-0.36392-0.051568-0.42286-0.1075-0.58172-0.093756-0.37385-0.16902-0.55169-0.16031-0.43127-0.1848-0.40892-0.089984-0.17023-0.32459-0.50665-0.81075-1.0686-0.30138-0.42845-0.264-0.42722-0.22136-0.43524-0.13569-0.33995-0.24103-0.71869-0.19949-0.48751-0.23275-0.46729-0.54449-0.99245-0.37849-0.72258-0.20172-0.33853-0.10495-0.14533-0.2233-0.26107-0.33002-0.30988-0.36014-0.26484-0.20984-0.12568-0.41098-0.19067-0.30265-0.096532-0.27475-0.060646-0.34232-0.048322-0.45945-0.030829-1.5167-0.035286-0.65757-0.080399-0.50925-0.13061-0.25933-0.095334-0.29047-0.1396-0.24948-0.1595-0.12076-0.095302-0.24402-0.23557-0.15874-0.18822-0.14209-0.19468-0.16002-0.25159-0.2143-0.40381-0.13473-0.31004-0.12001-0.35308-0.03985-0.18591-0.001924-0.10466 0.011875-0.034315-0.040003-0.089493-0.031915-0.13438-0.087251-0.55216-0.04068-0.41311-0.029565-0.6081 0.002298-0.59866 0.026776-0.60204 0.052728-0.56495 0.08356-0.54147 0.070276-0.32401 0.1387-0.51664 0.29461-0.87256 0.15555-0.38233 0.67174-1.4571 0.2044-0.51731 0.15035-0.43834 0.11548-0.39269 0.10868-0.44555 0.1135-0.61504 0.073282-0.5794 0.042419-0.57507 0.011286-0.54278-0.017445-0.51033-0.029114-0.39862-0.083593-0.76473-0.082066-0.55924-0.19795-1.0331-0.20596-0.85777-0.24253-0.8674-0.20757-0.6652-0.29104-0.8406-0.41755-1.0524-0.43121-0.90274-0.2702-0.48626-0.40688-0.63276-0.20811-0.28534-0.33185-0.41951-0.3438-0.39866-1.2409-1.3276-0.96709-1.082-1.1766-1.3588-0.58811-0.74378-0.19015-0.28117-0.13701-0.24011-0.093845-0.20684-0.080993-0.26384-0.036859-0.54173 0.032411-0.35686 0.038303-0.25562 0.14864-0.71354 0.1635-0.62102 0.099078-0.32085 0.18266-0.50208 0.21799-0.50406 0.32155-0.6471 0.73416-1.3128 0.42817-0.8258 0.57796-1.2303 0.13997-0.32956 0.16971-0.47898 0.11339-0.42949 0.10375-0.5243 0.36646-2.1776 0.052919-0.52975 0.006527-0.17947-0.008551-0.35011-0.020359-0.2041-0.07057-0.37092-0.17591-0.5366-0.16828-0.36315-0.2459-0.42216-0.27942-0.39812-0.30173-0.37215-0.66-0.75288-0.3069-0.38835-0.28262-0.4016-0.41156-0.66911-0.93494-1.4153-0.28498-0.46947-0.23511-0.46594-0.17442-0.46617-0.095403-0.30404-0.07812-0.29555-0.046442-0.23864-0.02407-0.25737 0.025692-0.44363 0.2191-1.2893 0.032398-0.30601 0.0087-0.41089-0.012043-0.24857-0.085341-0.75244-0.10807-0.6666-0.11295-0.54502-0.11105-0.41735-0.13225-0.39374-0.22914-0.52121-0.1954-0.35446-0.23074-0.35392-0.19671-0.25829-0.24462-0.27154-0.41545-0.40766-0.15236-0.16672-0.045852-0.066276-0.001078-0.020296 0.49492-0.36946 0.67921-0.53496 0.74972-0.51616 0.31872-0.17704 0.4503-0.16246 0.52475-0.24107 0.21469-0.12096 0.20675-0.16928 0.13162-0.15392 0.1697-0.25941 0.39224-0.75605 0.24278-0.52804 0.56734-1.386 0.112-0.03484 0.13381-0.084788 1.7625-1.2264 0.41979-0.27439 0.65209-0.40062 0.59869-0.33147 0.42379-0.20751 0.38921-0.16506 0.31661-0.11175 0.37324-0.097827 0.25152-0.038776 0.26859-0.013224 0.33074 0.027423 0.23036 0.046377 0.31047 0.095169 0.33707 0.1431 0.34598 0.18778 0.31694 0.2077 0.3577 0.27554 0.43546 0.39605 0.37692 0.40393 0.54177 0.68581 0.34213 0.4819 1.0489 1.5381 0.29608 0.40366 0.3875 0.49415 0.36406 0.42278 0.35653 0.37727 1.332 1.318 0.36874 0.39674 0.27222 0.32616 0.40006 0.56206 0.29484 0.47754 0.44696 0.79603 0.57663 1.0672 0.34171 0.59021 0.26382 0.40028 0.28575 0.37098 0.24785 0.2693 0.26936 0.24067 0.33807 0.23722 0.58296 0.3095 0.32852 0.1439 1.0474 0.4061 1.7817 0.65749 0.5874 0.2517 0.47195 0.23505 0.24923 0.14135 0.47368 0.30849 0.50902 0.38326 0.97168 0.79539 0.48226 0.37114 0.49233 0.32442 0.38248 0.20326 1.5432 0.67625 0.50686 0.26103 0.94635 0.6179 0.4608 0.22991 0.20595 0.067635 0.28442 0.050031 0.22652 0.005677 0.34871-0.038194 0.22641-0.050758 0.18539-0.055221 0.28294-0.1066 0.25774-0.12003 0.3041-0.16902 0.52788-0.36011 1.0404-0.82067 0.57367-0.51091 0.21933-0.22498 0.2568-0.30762 0.21042-0.32864 0.18571-0.45661 0.12391-0.48315 0.10919-0.4971 0.24512-0.92017 0.32954-0.95427 0.14852-0.48273 0.2237-1.062 0.10714-0.41923 0.15689-0.51352 0.23254-0.58165 0.41859-0.94015 0.17166-0.36148 0.3373-0.58604 0.71792-1.0642 0.26506-0.34475 0.41602-0.45003 0.43317-0.39242 0.30784-0.24334 0.66761-0.45288 0.68776-0.39937 0.35485-0.18943 1.134-0.56954-0.0041-0.046015-0.11397-0.1779-0.77829-1.0266-0.29122-0.42112-0.18845-0.30433-0.24522-0.46534-0.15116-0.36362-0.081201-0.25227-0.055029-0.22777-0.064606-0.45708-0.015384-0.31321 0.022117-0.53527 0.02729-0.22783 0.078967-0.45043 0.17492-0.70203 0.21036-0.65857 0.19764-0.51698 0.28535-0.62497 0.32882-0.62472 0.71752-1.2764 0.21135-0.42314 0.11683-0.27284 0.11271-0.31492 0.096869-0.34834 0.056925-0.30824 0.019804-0.20768 6.66e-4 -0.30035-0.021437-0.25943-0.051062-0.33838-0.078634-0.38603-0.47518-2.0616-0.069357-0.35674-0.058346-0.42431-0.028364-0.43212 0.008526-0.4363 0.056776-0.445 0.12854-0.4637 0.12406-0.28376 0.22301-0.38041 0.28396-0.38085 0.26526-0.29802 0.33658-0.32443 0.32759-0.27379 0.37736-0.27905 0.4343-0.28292 0.3431-0.19832 0.57451-0.2888 0.56508-0.24109 0.5553-0.20772 1.0165-0.32804 1.613-0.42776 0.86433-0.24669 0.62323-0.22539 0.3884-0.18505 0.39735-0.22181 0.55264-0.3481 0.28342-0.1957 0.46232-0.35157 0.30821-0.26776 0.32762-0.33175 0.30296-0.3818 0.20289-0.33998 0.18172-0.45368 0.11576-0.48223 0.053186-0.38707 0.021913-0.33861-2e-3 -0.34482-0.028276-0.44785-0.080218-0.70143-0.078828-0.52077-0.20453-1.0384-0.10092-0.43006-0.088943-0.31476-0.25036-0.67528-0.57329-1.2383-0.17261-0.41634-0.094904-0.27426-0.13759-0.5557-0.03442-0.24793-0.01688-0.50858 0.019744-0.28422 0.11926-0.6088 0.12037-0.37578 0.14385-0.35707 0.24487-0.48171 0.051084-0.080816 0.065621-0.070202 0.075589 0.015635 0.14872-0.001269 0.34718-0.032117 0.46714-0.091966 0.29063-0.10317 0.21939-0.13111 0.16168-0.16798 0.27582-0.40348 0.15976-0.19966 0.1781-0.16518 0.19873-0.10508 0.12257-0.023862 0.12706 6.22e-4 0.20152 0.042369 0.12855 0.050796 0.12178 0.066306 0.17364 0.13537 0.38646 0.46793 0.17523 0.14279 0.20322 0.11457 0.14507 0.058041 0.14874 0.041289 0.20632 0.024894 0.16353-0.010435 0.48427-0.092778 0.16638-0.009021 0.13038 0.015145 0.1304 0.034796 0.12168 0.050113 0.11738 0.065596 0.1457 0.1097 0.11096 0.11064 0.53384 0.69924 0.099249 0.094911 0.1093 0.077693 0.20267 0.082573 0.22133 0.034689 0.28217-0.008174 0.45861-0.093315 0.27812-0.088112 0.26948-0.11795 0.6233-0.37602 0.27457-0.13634 1.0651-0.47648 0.26894-0.14464 0.18337-0.12952 0.14474-0.1456 0.054691-0.086321-1.24e-4 -0.036415 0.045526-0.039888 0.04431-0.088579 0.10871-0.34088 0.24145-1.0861 0.61239-2.379 0.14625-0.63363 0.094566-0.53253 0.092681-0.72299 0.10212-0.93634 0.10113-1.2356 0.066481-0.32998 0.10302-0.28687 0.087746-0.16391 0.17612-0.23744 0.1555-0.16249 0.32655-0.27476 0.85375-0.60743 0.51627-0.40204 0.26-0.22405 0.34113-0.32177 0.48751-0.51581 0.38894-0.45736 0.47114-0.6087 0.32805-0.484 0.65312-1.0885 0.22239-0.30314 0.20271-0.23083 0.16843-0.16395 0.23958-0.19415 0.37189-0.23154 0.42712-0.20515 1.3643-0.57899 1.3453-0.6343 1.2207-0.64249 0.5777-0.34861 0.39352-0.26582 0.39846-0.29033 0.2888-0.2391 0.40873-0.40216 0.52234-0.60555 1.0756-1.3677 0.22934-0.25376 0.22987-0.22606 0.19145-0.16659 0.17457-0.13531 0.47452-0.30618 0.84939-0.48247 1.1757-0.69066 0.49447-0.26186 0.56845-0.25486 0.25244-0.092642 0.44846-0.12991 0.73477-0.15219 0.68255-0.091648 0.36511-0.025502 0.82062-0.0257 0.31949-0.033119 0.24-0.050805 0.32797-0.12031 0.23674-0.12952 0.2196-0.1624 0.18604-0.17954 0.18215-0.22051 0.24524-0.38137 0.19671-0.38885 0.19888-0.47578 0.15526-0.48975 0.061045-0.28554 2.1512 1.9455 0.42869 0.35543 0.27432 0.20992 0.42174 0.29056 0.54077 0.31579 0.38185 0.18828 0.52794 0.22142 0.53184 0.18624 0.40882 0.11915 0.38324 0.091292 0.52072 0.094777 1.7525 0.2566 0.44309 0.09013 0.50133 0.13064 0.43223 0.13938 0.38387 0.15221 1.0706 0.4975 0.48721 0.2026 0.78793 0.27844 0.549 0.15932 0.43661 0.094021 0.31472 0.044362 0.48906 0.044066 0.97438 0.061489 0.63386 0.070816 0.38569 0.074353 0.23582 0.063905 0.29171 0.10022 0.31887 0.1364 0.44362 0.23844 0.31011 0.20274 0.39359 0.30333 0.36957 0.33079 0.39501 0.39999 0.51436 0.58607 0.38117 0.48718 0.47945 0.70471 0.127 0.15846 0.076934 0.072571 0.25162 0.12231 0.13079 0.007316 0.11478-0.020701 0.10183-0.03681 0.16761-0.092561 0.20777-0.16752 0.14878-0.16198 0.15749-0.22058 0.13994-0.24892 0.116-0.26327 0.10457-0.34254 0.038991-0.22044 0.0197-0.3198-0.063247-1.5469 0.001383-0.48837 0.020465-0.41732 0.22807-2.6111 0.070144-0.53406 0.094321-0.42334 0.063287-0.19109 0.087407-0.20004 0.26306-0.39082 0.22314-0.23576 0.44702-0.39422 0.19136-0.13572 0.24691-0.1196 0.2554-0.062831 0.29245-0.015245 0.19856 0.019323 0.18223 0.0378 0.29002 0.10275 0.1553 0.080761 0.24207 0.1707 0.38842 0.34032 0.25315 0.19445 0.22978 0.12312 0.1815 0.060755 0.34246 0.059985 0.45407 0.019841 0.41385-0.009728 0.58858-0.028613 1.1569-0.083434 1.3671-0.050497 1.3302-0.004349 0.89444 0.054025 0.76808 0.10305 2.2723 0.4359 2.8787 0.48021 1.1195 0.17345 0.55145 0.067161 0.60216 0.04831 0.43696 0.015212 0.59089-0.012834 0.45359-0.03696 0.58836-0.080788 2.3202-0.43808 0.7393-0.16496 0.69612-0.20565 0.58919-0.20918 0.61769-0.24182 1.3856-0.59055 3.5521-1.6399 0.65096-0.31223 1.0906-0.56491 0.64737-0.29686 0.31599-0.12712 0.61197-0.19956 1.2902-0.36809 0.4404-0.10396 0.78447-0.16003 0.027089-0.048137 0.056821-0.036688 0.26744-0.091575 0.41334-0.080593 0.38398-0.04074 0.57432-0.018474 1.4785 0.044072 0.70907-0.002871 1.7607-0.066079 0.8283-0.054869 0.60274-0.077474 0.38945-0.076476 0.46364-0.11757 0.60961-0.18438 0.43442-0.16205 0.34802-0.15832 0.27974-0.15735 0.26067-0.17208 0.39616-0.2884 0.45255-0.35365 1.9866-1.6573 0.58697-0.42791 0.38084-0.23806 0.49682-0.26657 0.87438-0.43664 0.33684-0.15345 0.38149-0.153 0.2757-0.096286 0.39771-0.11234 0.4444-0.08186 0.37866-0.035794 0.43248-0.005365 1.182 0.054751 0.59173 0.003177 0.57388-0.038209 0.89316-0.11814 0.37007-0.017665 0.20572 0.009092 0.26512 0.038124 0.21715 0.06058" stroke="#bdc660"/>
    </defs>
    <g clip-path="url(#pd7a43154f0)">
     <use y="280.512" fill="#bdc660" stroke="#bdc660" xlink:href="#mb15c5fa08a"/>
    </g>
   </g>
  </g>
 </g>
 <defs>
  <clipPath id="pd7a43154f0">
   <rect x="7.2" y="7.2" width="264.18" height="266.11"/>
  </clipPath>
 </defs>
</svg>
