<?xml version="1.0" encoding="UTF-8"?>
<!DOCTYPE svg  PUBLIC '-//W3C//DTD SVG 1.1//EN'  'http://www.w3.org/Graphics/SVG/1.1/DTD/svg11.dtd'>
<svg width="269.49pt" height="280.51pt" version="1.1" viewBox="0 0 269.49 280.51" xmlns="http://www.w3.org/2000/svg" xmlns:xlink="http://www.w3.org/1999/xlink">
 <metadata>
  <rdf:RDF xmlns:cc="http://creativecommons.org/ns#" xmlns:dc="http://purl.org/dc/elements/1.1/" xmlns:rdf="http://www.w3.org/1999/02/22-rdf-syntax-ns#">
   <cc:Work>
    <dc:type rdf:resource="http://purl.org/dc/dcmitype/StillImage"/>
    <dc:date>2024-07-04T12:10:31.677742</dc:date>
    <dc:format>image/svg+xml</dc:format>
    <dc:creator>
     <cc:Agent>
      <dc:title>Matplotlib v3.7.1, https://matplotlib.org/</dc:title>
     </cc:Agent>
    </dc:creator>
   </cc:Work>
  </rdf:RDF>
 </metadata>
 <defs>
  <style type="text/css">*{stroke-linejoin: round; stroke-linecap: butt}</style>
 </defs>
 <g id="figure_1">
  <g id="patch_1">
   <path d="m0 280.51h269.49v-280.51h-269.49v280.51z" fill="none"/>
  </g>
  <g id="axes_1">
   <g id="PatchCollection_1">
    <defs>
     <path id="mc2bd79544a" d="m47.788-261.16 0.18172 0.083824 0.094517 0.067731 0.13215 0.12888 0.18108 0.24357 0.11933 0.19749 0.13399 0.26092 0.10749 0.26262 0.11036 0.36211 0.14641 0.55234 0.10012 0.32175 0.090366 0.23798 0.086024 0.18599 0.13512 0.22941 0.19397 0.25572 0.2189 0.24048 0.20456 0.16542 0.16544 0.088557 0.16434 0.0557 0.20483 0.035197 0.17526 0.008351 0.20748-0.0106 0.32438-0.053026 0.31322-0.095561 0.073493-0.039527 0.063704-0.060047 0.037205-0.075703 0.028698-0.029498 0.064504-0.039446 0.13089-0.034287 0.061763-0.005134 0.25934 0.031722 0.17472 0.070666 0.12595 0.074675 0.14624 0.11007 0.88593 0.83303 0.24777 0.2031 0.19332 0.14094 0.3028 0.19001 0.20016 0.10697 0.21991 0.10294 0.27297 0.10865 0.48957 0.15376 0.39469 0.096028 0.40634 0.076746 0.31546 0.045245 1.5582 0.1611 0.67587 0.039979 0.58649-0.010697 0.57023-0.054087 1.1671-0.1637 1.2904-0.23191 1.0713-0.22321 0.3944-0.10821 0.29289-0.094609 0.82322-0.31624 0.32977-0.076876 0.19822-0.010143 0.22487 0.031001 0.15694 0.055762 0.18073 0.10937 0.14989 0.13209 0.12254 0.13168 0.67106 0.81082 0.37611 0.39647 0.53108 0.45809 0.85099 0.63861 0.32768 0.26298 0.39301 0.35793 0.39686 0.41656 0.22022 0.25743 0.26886 0.34201 0.38768 0.56054 0.55122 0.89689 0.65885 1.2204 0.18231 0.29035 0.22531 0.3204 0.27458 0.34713 0.41676 0.4632 1.6807 1.6816 1.1845 1.2549 0.64309 0.72159 0.38001 0.44612 0.75432 0.91687 0.39863 0.513 0.33401 0.49024 0.16845 0.29241 0.1417 0.29228 0.19689 0.56927 0.14538 0.48864 0.16895 0.45743 0.33464 0.75541 0.63969 1.3166 0.28723 0.63982 0.27789 0.69464 0.46587 1.2716 0.17736 0.41346 0.098337 0.19038 0.11049 0.17843 0.19474 0.23973 0.38754 0.36433 0.18942 0.14416 0.2845 0.16348 0.24998 0.10615 0.33805 0.090723 0.43718 0.055677 0.45932 0.005623 0.28313-0.018919 0.44073-0.053236 0.33973-0.061742 0.68188-0.1551 0.38641-0.027498 0.77942 0.050018 0.35582-0.020064 0.83293-0.11673 0.32449-0.032921 0.71706-0.03111 0.31887-0.026754 0.62881-0.085642 0.5976-0.11899 1.5339-0.41418 0.60927-0.1524 0.62144-0.13707 0.62721-0.11154 0.62657-0.073694 0.61903-0.020633 0.55931 0.040724 0.53765 0.097489 0.50584 0.15273 0.46155 0.20988 0.40182 0.27248 0.26475 0.26322 0.21476 0.29945 0.16887 0.34495 0.11249 0.4009 0.033237 0.31416 0.001082 0.23596-0.022596 0.29992-0.03922 0.26213-0.13202 0.56547-0.1357 0.41324-0.48039 1.2503-0.27945 0.77378-0.15312 0.54127-0.063522 0.3126-0.038234 0.30238-0.004921 0.41571 0.12371 1.3874 0.09355 0.55064 0.18972 0.91119 0.048183 0.42477 0.00374 0.42706-0.051313 0.42101-0.094692 0.35792-0.12837 0.36164-0.22741 0.56751-0.13716 0.31263-0.24848 0.51423-0.40079 0.72109-0.24626 0.3747-0.23529 0.30094-0.33178 0.34694-0.20861 0.18252-0.44147 0.32305-0.47258 0.28057-1.0629 0.52788 0.1424 0.27984 0.21924 0.38777 0.28252 0.44938 0.30014 0.41459 0.33424 0.3983 0.33083 0.34219 1.0755 1.0453 0.3408 0.31924 0.2241 0.1896 0.2963 0.20962 0.3171 0.16846 0.3514 0.12276 0.23821 0.053693 0.22607 0.03349 0.44443 0.021949 0.31868-0.019472 0.27348-0.041358 0.30832-0.07607 0.31871-0.11533 0.23605-0.11335 0.163-0.094481 0.22725-0.15356 0.26226-0.20066 0.42398-0.35649 0.40048-0.39574 0.43701-0.51303 0.40967-0.53849 0.48084-0.68395 0.2107-0.34749 0.19666-0.3953 0.13052-0.34828 0.083053-0.28225 0.077133-0.35211 0.030482-0.19541 0.09725-1.155 0.047538-0.29299 0.12597-0.4001 0.086112-0.16982 0.15657-0.23666 0.16558-0.20256 0.1801-0.19141 0.49014-0.448 0.70555-0.56595 0.78191-0.58364 0.7147-0.49245 0.51933-0.30621 0.50106-0.2416 0.50196-0.19803 0.92209-0.3296 0.27018-0.11925 0.31728-0.18772 0.1498-0.12122 0.22684-0.24342 0.17464-0.2588 0.087782-0.16878 0.1001-0.25215 0.075092-0.28453 0.034675-0.21938 0.068659-1.0765 0.050403-0.32071 0.094314-0.29183 0.11396-0.19525 0.14956-0.16593 0.19964-0.14174 0.23098-0.094563 0.23538-0.041903 0.25116-0.002634 0.29744 0.035427 0.31317 0.060511 1.2819 0.30715 0.46008 0.09016 0.32644 0.042071 1.3079 0.1298 0.5086 0.075655 0.31734 0.074671 0.31748 0.093955 1.0077 0.33115 0.85694 0.2086 0.45433 0.12644 0.33191 0.12269 0.25552 0.11328 0.35674 0.18735 0.25838 0.16665 0.10751 0.10888 1.0063-0.96405 0.19925-0.2129 0.17393-0.21134 0.10193-0.14806 0.084794-0.1538 0.44157-0.93858 0.1824-0.36149 0.1321-0.23257 0.14871-0.20357 0.12858-0.1413 0.24011-0.22577 0.29212-0.24814 0.091302 0.078516 0.095972 0.032865 0.24317 0.056232 0.26026 0.041707 0.908 0.096629 2.9283 0.25211 1.4175 0.11466 0.6802 0.039218 1.7175 0.049904 0.67867 0.037777 0.48818 0.010705 0.29876-0.00894 0.42834-0.032532 0.79632-0.10809 0.79478-0.14935 2.3519-0.53278 0.4586-0.087865 0.45256-0.064684 0.46472-0.038269 0.6024-2.89e-4 0.65581 0.064249 0.38929 0.072056 0.43692 0.11493 0.28332 0.098351 0.37674 0.17423 0.4519 0.30327 0.41134 0.37108 0.34062 0.37081 1.1565 1.4434 0.36744 0.40055 0.33864 0.30634 0.18827 0.14622 0.30675 0.18695 0.20106 0.084384 0.19517 0.058719 0.25312 0.050307 0.36944 0.034426 0.42977 0.001735 0.66576-0.037478 0.49744-0.042372 0.8889-0.10198 0.44979-0.072911 1.0737-0.21495 0.95265-0.14602 0.91204-0.090872 0.50351-0.026102 0.49113-0.006006 0.51798 0.017234 0.56442 0.052009 0.47044 0.076333 0.2222 0.048914 0.5345 0.15314 0.35802 0.12968 0.49574 0.2279 0.3878 0.23267 0.373 0.2701 0.40816 0.34146 0.51072 0.46694 0.99778 0.98359 0.28785 0.25994 0.29628 0.23364 0.33013 0.20582 0.19566 0.091697 0.22329 0.077801 0.34043 0.07099 0.48012 0.019296 0.27939-0.024442 0.53803-0.092809 0.55886-0.13704 0.59722-0.17388 0.6865-0.22527 0.70336-0.25794 2.3899-0.99204 0.84592-0.33037 0.74328-0.27306 0.90221-0.30005 0.41628-0.12001 0.32689-0.077478 0.17026-0.023029 0.063205 0.021718 0.034554 0.020733 0.039163 0.052193 0.14841 0.2714 0.3717 0.8255 0.26492 0.55559 0.24144 0.44588 0.25753 0.40217 0.11079 0.14836 0.21146 0.24099 0.31781 0.27924 0.36506 0.27496 0.3476 0.29428 0.33146 0.39794 0.1325 0.20757 0.10587 0.19441 0.097968 0.21554 0.089153 0.25521 0.040194 0.15747 0.026812 0.14655 0.020012 0.24138-0.017594 0.25789-0.055788 0.22259-0.17085 0.33259-0.19605 0.24827-0.30151 0.29499-0.31211 0.2583-1.5574 1.1674-0.4007 0.3158-0.35976 0.30062-0.32382 0.29236-0.31112 0.31197-0.21214 0.24082-0.14857 0.19042-0.28343 0.43934-0.13746 0.27709-0.16173 0.48128-0.11002 0.53981-0.13138 0.94974-0.041328 0.4414-0.014519 0.43208 0.009345 1.011 0.10074 2.3394 0.002335 0.54734-0.029914 0.42524-0.054047 0.37196-0.11115 0.49994-0.16771 0.57638-0.33351 1.0226-0.15082 0.51068-0.10442 0.43346-0.082201 0.50923-0.020688 0.58644 0.042835 0.42269 0.028895 0.15152 0.084725 0.31354 0.10948 0.29887 0.24212 0.50334 0.18403 0.29582 0.19731 0.25502 0.18022 0.18133 0.18558 0.13367 0.20624 0.0797 0.3022-0.0216 0.28026-0.16079 0.14936-0.15145 0.095362-0.12238 0.42812-0.64514 0.61398-0.7901 0.25972-0.37704 0.8411-1.5392 0.11418-0.19197 0.15413-0.22393 0.20933-0.23956 0.21344-0.1994 0.22468-0.18297 0.28289-0.20168 0.21065-0.1191 0.24287-0.09858 0.27801-0.067923 0.19963-0.022444 0.30651-0.002774 0.18866 0.012785 0.35918 0.048078 0.4305 0.088846 1.0552 0.28003 0.54297 0.11629 0.30482 0.035258 0.35768 0.001179 0.20688-0.024663 0.45527-0.10897 0.70617-0.21823 0.44507-0.17596 0.32294-0.17737 0.13925-0.09011 0.91551-0.67958 0.23272-0.15264 0.2803-0.1569 0.27695-0.13464 0.28988-0.11446 0.28342-0.082434 0.29673-0.065516 1.5117-0.27547 2.0707-0.47689 0.45106-0.082512 0.29882-0.037671 0.3475-0.013384 0.36088 0.049685 0.25859 0.11852 0.2384 0.25665 0.14539 0.29729 0.1189 0.41254 0.09032 0.54088 0.052622 0.52351 0.061343 1.0364 0.049211 1.3321-0.001564 0.78891-0.024436 0.5496-0.070085 0.75937-0.068348 0.48455-0.084758 0.46246-0.11128 0.48166-0.084786 0.3043-0.051857 0.16013-0.039336 0.079689 0.11967-0.11517 0.26394-0.038754 0.35287 0.040681 0.27216 0.077274 0.29006 0.10988 0.94809 0.41377 0.51284 0.19667 2.143 0.75652 0.55326 0.12308 0.59467 0.030257 0.61158-0.054931 0.62082-0.1184 0.62364-0.16492 0.62085-0.19862 0.61288-0.2229 1.1633-0.48034 0.91998-0.42483 0.96587-0.50943 1.5747-0.95564 1.2565-0.73988 0.50967-0.26554 0.17231-0.07322 0.46397-0.15623 0.32338-0.081298 0.45959-0.089969 0.76618-0.12034 0.49349-0.098088 0.51126-0.12608 0.52522-0.14849 0.4888-0.1512 0.99693-0.33747 1.3438-0.49882 1.786-0.70661 1.7297-0.70751 3.9329-1.6995 1.4442-0.60616 6.3838-2.6295 3.0187-1.2059 0.0053 0.064221 0.064808 0.24941 0.51045 1.8713 0.29735 1.2325 0.27355 1.2923 0.10548 0.57501 0.13682 0.92768 0.048232 0.46462 0.045227 0.66747 0.016321 0.63298-0.012557 0.65323-0.031194 0.46164-0.050142 0.42676-0.063287 0.37245-0.081294 0.36313-0.097987 0.34946-0.13517 0.39019-0.15688 0.36644-0.78061 1.4655-0.22789 0.48398-0.18493 0.46949-0.30814 0.98431-0.1261 0.35413-0.1407 0.34408-0.13572 0.29002-0.13965 0.26339-0.23301 0.37966-0.21554 0.30075-0.36643 0.42813-0.25187 0.24759-0.25554 0.21972-0.31477 0.23388-0.30196 0.1941-0.33943 0.19673-1.0023 0.55759-0.3479 0.22041-0.41541 0.31079-0.32381 0.30869-0.18185 0.22161-0.16355 0.23261-0.19652 0.31269-0.17457 0.32657-0.14147 0.34117-0.094535 0.3306-0.064295 0.33804-0.10686 0.84104-0.10439 0.53242-0.20023 0.80449-0.080924 0.27347-0.13886 0.3684-0.11761 0.26609-0.3346 0.69372-0.19679 0.44812-0.83006 2.4621-0.12408 0.32993-0.22953 0.48216-0.52284 0.96858-0.22199 0.49838-0.14472 0.51695-0.038769 0.41273 0.011064 0.4314 0.048256 0.49006 0.21321 1.4499 0.15277 0.81835 0.1086 0.42395 0.098012 0.31454 0.13098 0.35099 0.25235 0.54503 0.38002 0.72607 0.18703 0.39395 0.095607 0.24485 0.092533 0.32715 0.044652 0.30099 5.55e-4 0.36478-0.057511 0.4152-0.079724 0.37236-0.31711 1.174-0.083858 0.37944-0.061556 0.55056 0.019668 0.39337 0.037547 0.22754 0.05789 0.22657 0.097413 0.26646 0.12384 0.24384 0.18954 0.25295 0.15872 0.13 0.17944 0.075298 0.37166-0.015614 0.42601-0.1709 0.46528-0.28488 0.49319-0.36718 0.51265-0.42536 1.0605-0.95617 2.1732-2.0225 0.54428-0.47681 0.54265-0.44517 0.54013-0.3994 0.53657-0.33538 0.53172-0.24772 0.52521-0.1295 0.51764 0.009271 0.51292 0.10378 0.29275 0.083762 0.36523 0.13298 1.0569 0.43166 0.28955 0.093393 0.28945 0.068048 0.31688 0.035437 0.45613-0.033507 0.44557-0.11164 0.42706-0.16025 0.61285-0.26423 0.51157-0.19997 0.28174-0.093924 0.24405-0.062078 0.23338-0.035603 0.27738-0.008866 0.20898 0.057276 0.11792 0.14366 0.011774 0.21175-0.063715 0.1804-0.11518 0.19985-0.16678 0.23291-1.1046 1.3696-0.21764 0.3023-0.21147 0.32878-0.18036 0.33513-0.18916 0.52747-0.05508 0.47386 0.023731 0.48026 0.13982 0.93013 0.0542 0.44001 0.032111 1.0139 0.049084 0.43284 0.14232 0.5438 0.20718 0.57109 0.14863 0.36658 0.22738 0.49156 0.86074 1.7021 0.19968 0.41688 0.13306 0.31423 0.091547 0.15317 0.29064 0.34128 2.0995 2.3482 0.35586 0.49606 0.1554 0.28453 0.26373 0.60859 0.16703 0.44357 0.14996 0.45556 0.11752 0.46472 0.068197 0.47192 0.006581 0.50329-0.034582 0.44401-0.055915 0.44703-0.11238 0.67524-0.076055 0.31877-0.095954 0.33176-0.25937 0.72557-0.85636 2.1037-0.25609 0.55661-0.23202 0.45706-0.24407 0.44611-0.22385 0.38578-0.44986 0.71152-0.35205 0.5059-1.2505 1.6865-0.39446 0.56267-0.32931 0.51459-0.26528 0.52515-0.15263 0.45846-0.079981 0.32738-0.25687 1.2535-0.21961 1.1575-0.097687 0.47367-0.079284 0.31539-0.09814 0.30616-0.2336 0.51139-0.30384 0.47319-0.36339 0.42745-0.41593 0.37094-0.46479 0.29991-0.10303 0.052098-0.33617 0.14451-0.27574 0.09917-0.42814 0.1328-0.8081 0.21371-1.2554 0.30597-0.49272 0.15078-0.30688 0.12784-0.24244 0.13865-0.17505 0.1481-0.1094 0.16651-0.028428 0.10627 0.017685 0.21394 0.10944 0.25706 0.12898 0.20376 0.36039 0.46026 0.90585 1.0817 0.42537 0.55139 0.26164 0.35988 0.48742 0.70466 0.28607 0.46203 0.19973 0.38222 0.11643 0.27046 0.12235 0.36419 0.078059 0.35506 0.029838 0.44236-0.0543 0.43383-0.121 0.42585-0.16526 0.42113-0.24493 0.51274-0.30456 0.48256-0.39089 0.42215-0.37363 0.26568-0.51566 0.24313-0.47769 0.14172-0.37502 0.070235-0.27422 0.033258-0.32955 0.023525-0.38628 0.009694-0.89611-0.004539-0.11399 0.036821 0.33226 0.31169 0.322 0.36636 0.30401 0.42902 0.41596 0.71483 0.16062 0.24943 0.24383 0.3039 0.34524 0.34479 0.34888 0.29002 0.15627 0.097376 0.18096 0.075913 0.095331 0.021613 0.19552 0.004302 0.18473-0.032282 0.15353-0.050414 0.23108-0.11998 0.23654-0.019066 0.30166 0.036798 0.27342 0.086566 0.18237 0.090625 0.13926 0.091264 0.17954 0.15338 0.12171 0.13272 0.15467 0.21466 0.15071 0.28604 0.10591 0.28528 0.069144 0.26849 0.051936 0.32456 0.023453 0.39935-0.010475 0.36688-0.098508 1.2438-0.005828 0.20532 0.030593 0.27852 0.044914 0.14576 0.07019 0.14244 0.072951 0.1057 0.089655 0.099873 0.20118 0.16059 0.14345 0.085467 0.21307 0.10533 0.38622 0.15725 0.18692 0.05816 0.34526 0.068978 0.32089 0.020303 0.62033-0.031013 0.31135 0.001984 0.37006 0.058497 0.24564 0.079627 0.24851 0.11052 0.32928 0.18512 0.23744 0.15628 0.26286 0.19088 1.076 0.87058 0.27966 0.21352 0.39106 0.2696 0.45052 0.26765 0.53167 0.26409 0.34091 0.14381 0.5439 0.19632 0.62043 0.18675 0.42036 0.11028 0.50974 0.11547 0.47715 0.086327 0.44569 0.057594 0.41102 0.029098 0.27039 0.003813 0.2863-0.011743 0.33709-0.036218 0.25153-0.043341 0.51275-0.13044 0.45149-0.15551 1.256-0.52764 0.3397-0.12962 0.3023-0.093158 0.27814-0.057713 0.29382-0.021451 0.27224 0.028161 0.18894 0.053665 0.19361 0.086412 0.22976 0.14647 0.19885 0.16995 0.15084 0.16102 0.1112 0.14062 0.17492 0.27127 0.14918 0.30339 0.086895 0.23083 0.10152 0.39606 0.028702 0.19343 0.018002 0.29199-0.017132 0.28996-0.057437 0.27816-0.046136 0.13768-0.11085 0.2392-0.18844 0.29983-0.21248 0.27896-0.80659 0.98843-0.29265 0.39592-0.29432 0.45235-0.1628 0.29058-0.28147 0.61474-0.21584 0.58924-0.12525 0.3975-0.11454 0.40726-0.13255 0.53789-0.098532 0.45959-0.16491 0.88483-0.14454 0.90934-0.27604 1.9085-0.23586 1.463-0.12196 0.64247-0.29404 1.3039-0.088447 0.46709-0.009491 0.28934 0.042551 0.069394-0.054986-0.038889-0.061575-0.013207-0.084153 0.007551-0.09684 0.030431-0.12143 0.061261-0.19198 0.14045-0.11263 0.10672-0.22818 0.27183-0.2619 0.41099-0.13189 0.25083-0.55551 1.2609-0.26751 0.54654-0.14347 0.24148-0.30517 0.38414-0.1668 0.14812-0.2014 0.14329-0.31617 0.17932-0.99154 0.46377-0.50365 0.26738-0.53873 0.32199-0.68975 0.46288-0.44917 0.36338-0.26394 0.26174-0.55405 0.67578-0.29143 0.31499-0.25136 0.21044-0.24186 0.15116-0.48715 0.1869-0.53524 0.11134-1.1022 0.14877-0.51042 0.1093-0.44104 0.1825-0.2321 0.17384-0.098631 0.10502-0.11056 0.15584-0.075081 0.14507-0.046234 0.12388-0.032278 0.13074-0.01991 0.25928 0.018629 0.21401 0.028504 0.14439 0.056717 0.19401 0.086508 0.2157 0.15936 0.30209 0.10797 0.17308 0.34303 0.48415 0.27919 0.35376 0.28632 0.33718 0.82979 0.91824 0.68181 0.69534 0.40676 0.37964 0.52433 0.43574 1.042 0.765 0.51266 0.35886 0.41158 0.27003 0.7597 0.46009 0.41848 0.2327 1.1995 0.62268 0.41147 0.22697 0.30524 0.18532 0.44965 0.31609 0.40879 0.35824 0.27471 0.29872 0.16846 0.21976 0.14103 0.22305 0.17814 0.40832 0.10576 0.49583 0.013976 0.38525-0.030354 0.31031-0.069422 0.29788-0.21946 0.46346-0.15208 0.19128-0.21136 0.20457-0.21806 0.17524-0.21526 0.14938-0.54078 0.30752-0.67426 0.32628-1.8165 0.82367-0.66429 0.31799-0.44214 0.22738-0.22855 0.1358-0.31668 0.23005-0.16609 0.157-0.18552 0.24276-0.082325 0.16949-0.050713 0.19044-0.01656 0.15486 0.012035 0.38924 0.17734 1.4593 0.018648 0.62599-0.016342 0.56349-0.039786 0.54525-0.052858 0.24992-0.051887 0.049207-0.032739 0.025151-0.00956 0.014 2.2e-4 0.10673 0.053753 0.19489 0.16874 0.48651 0.044928 0.19173 0.02006 0.15521 0.001814 0.20989-0.031545 0.23596-0.0636 0.22668-0.072158 0.17754-0.14319 0.27743-0.2691 0.47381-0.25121 0.39964-0.18713 0.24694-0.15635 0.1718-0.21717 0.2023-0.90574 0.78171-0.17908 0.19584-0.32692 0.40772-0.1224 0.1233-0.16859 0.12613-0.3748 0.22402-0.12569 0.11758-0.24353 0.3002-0.097981 0.12947-0.10119 0.16792-0.27067 0.61786-0.15871 0.31616-0.34134 0.6007-0.38272 0.6314-0.081266 0.17511-0.016853 0.05584 0.005143 0.046019 0.016751 0.031432 0.005973 0.054428-0.007297 0.28422-0.039433 0.48064-0.067059 0.55005-0.1133 0.63618-0.28292 1.3464-0.058289 0.35406-0.05138 0.42651-0.020496 0.28809-0.003714 0.48648 0.019983 0.33164 0.054022 0.4714 0.092153 0.4925 0.056355 0.22648 0.095605 0.32079 0.14686 0.39916 0.13128 0.29738 0.16659 0.33042 0.87947 1.5436 0.26965 0.58665 0.15028 0.42282 0.099203 0.35569 0.085201 0.46448 0.025831 0.28519-0.005191 0.38803-0.098754 0.53632-0.18084 0.53133-0.2315 0.52726-0.50627 1.044-0.27476 0.61109-0.17991 0.44223-0.10925 0.31135-0.085968 0.3047-0.076565 0.5194 0.025678 0.45387 0.09933 0.4582 0.20317 0.41552 0.2355 0.26168 0.29999 0.23439 0.42837 0.26022 1.6859 0.84884 0.53308 0.31035 0.47354 0.34669 0.3803 0.39837 0.18574 0.29898 0.14117 0.32174 0.15952 0.51145 0.28149 1.0739 0.079096 0.39259 0.061535 0.38106 0.10292 0.80624 0.084154 0.80692 0.062891 0.8029 0.024277 0.48854 0.01253 0.87356-0.011879 0.53677-0.052635 0.91241-0.072214 0.78344-0.074661 0.61221-0.078856 0.46649-0.10497 0.45624-0.13498 0.44072-0.1866 0.46127-0.19634 0.38749-0.23453 0.38147-0.63178 0.86011-0.22755 0.36128-0.19102 0.40712-0.16553 0.5367-0.11018 0.28536-0.14659 0.24572-0.32628 0.40062-0.15371-0.004979-0.94003-0.10725-3.2723-0.41907-1.5432-0.17879-1.0508-0.099642-2.0414-0.15766-1.401-0.14406-0.4257-0.027222-0.431-0.008803-0.42674 0.011613-0.42469 0.031522-0.39512 0.047211-0.39234 0.063826-0.49798 0.10549-0.43263 0.11374-0.37483 0.11432-0.77329 0.27826-1.8173 0.74913-0.94049 0.33269-2.854 0.86115-2.8813 0.9044-1.472 0.42326-1.786 0.46728-1.0405 0.28599-2.9824 0.89273-0.76809 0.21656-0.78088 0.20079-0.79469 0.17582-0.4777 0.0884-0.7364 0.1122-0.73811 0.089348-0.72976 0.071201-2.2608 0.17163-0.31048 0.046154-0.13197 0.071303 0.097296-0.13148 0.054537-0.29837 0.002855-0.34188-0.064841-0.49531-0.091815-0.35852-0.11164-0.30857-0.19966-0.40427-0.25213-0.37633-0.2979-0.35058-0.33327-0.32529-0.42497-0.35139-0.44948-0.31736-0.37652-0.23176-0.38272-0.20694-1.6004-0.72414-0.45304-0.27015-0.34302-0.28999-0.23118-0.27155-0.17481-0.30111-0.054918-0.13766-0.062088-0.21459-0.042093-0.22154-0.031078-0.27248-0.051981-1.2839-0.044169-0.4054-0.094655-0.41652-0.090099-0.27855-0.11324-0.28784-0.10133-0.22115-0.20786-0.37836-0.2971-0.41788-0.26548-0.28343-0.37962-0.29174-0.36042-0.18281-0.3711-0.13086-0.44894-0.1102-0.5349-0.082784-0.34922-0.032847-0.44914-0.025696-0.67904-0.013367-0.75317 0.009385-0.67826 0.025063-2.2108 0.14974-2.1136 0.17472-0.61513 0.026579-1.1245 0.021897-0.70308 0.040516-0.63382 0.086202-0.50171 0.096272-1.6621 0.39403-0.39754 0.084978-0.35921 0.060565-0.24262 0.024393-0.15266 0.002673-0.21645-0.032364-0.077339-0.080284 0.009718-0.13919 0.1345-0.82737 0.070671-0.51396 0.12536-1.2374 0.12763-2.0875 0.085398-1.1686 0.032243-0.57242 0.011572-0.56333-0.020426-0.55354-0.05494-0.51276-0.07145-0.45944-0.089848-0.45444-0.10916-0.44796-0.14275-0.48445-0.33142-0.94395-0.37232-0.96038-0.28768-0.66007-0.32294-0.62637-0.65798-1.0453-0.8195-1.4386-0.35378-0.56941-0.22322-0.32317-0.23556-0.31331-0.91595-1.1178-0.34952-0.46543-0.16784-0.25477-0.15157-0.25849-0.22812-0.4555-0.21755-0.53921-0.13387-0.39692-0.13221-0.4472-0.18788-0.78081-0.23123-1.1532-0.16238-0.67807-0.4075-1.5212-0.34056-1.0488-0.34693-0.90536-0.26378-0.58967-0.2115-0.42018-0.31086-0.55568-0.18734-0.29635-0.18019-0.2283-0.046671-0.039889-0.045643-0.009894-0.15379-0.019772-0.3046 0.07491-0.3941 0.15195-0.43626 0.22283-0.44312 0.29296-0.45304 0.38714-0.4438 0.45642-1.2684 1.4467-0.3613 0.39142-0.70267 0.69768-0.48481 0.44453-0.78449 0.68679-0.74105 0.6056-0.3316 0.24651-0.33782 0.23144-0.40936 0.25218-0.50204 0.26916-0.50121 0.22623-0.56759 0.20418-0.44348 0.11943-0.31181 0.060744-0.50629 0.054613-0.49566 0.002605-0.47688-0.047143-0.44866-0.098282-0.40916-0.15451-0.34469-0.21254-0.2575-0.253-0.18573-0.25474-0.14174-0.24544-0.15137-0.32119-0.20285-0.54706-0.36526-1.2637-0.14169-0.43826-0.1655-0.39385-0.20448-0.32895-0.071896-0.083362-0.22402-0.19785-0.24927-0.16622-0.73672-0.46514-0.3042-0.1798-0.25312-0.1239-0.24233-0.0906-0.15022-0.041027-0.25981-0.045199-0.29994-0.022468-0.33511 0.001027-0.35177 0.022217-0.45992 0.05175-0.43976 0.066731-0.42621 0.080899-0.48418 0.10889-2.0196 0.52531-0.39795 0.086851-0.34217 0.043964-0.13324-0.052454-0.068652 0.007229-0.39262 0.12885-0.76322 0.30122-0.42122 0.19712-0.56536 0.32297-0.30012 0.1466-0.23091 0.063985-0.23443 0.022589-0.23186-0.018837-0.22333-0.063029-0.19152-0.096386-0.33291-0.23682-0.59204-0.50819-0.38684-0.31096-0.20776-0.14439-0.21363-0.12692-0.22391-0.10595-0.22886-0.077986-0.289-0.051939-0.19377-0.006282-0.19009 0.01583-0.14333 0.027222-0.1382 0.040166-0.17951 0.077297-0.21895 0.14113-0.18721 0.14848-0.3409 0.32309-0.51211 0.58785-0.3848 0.40798-0.28286 0.25269-0.36731 0.27283-0.39809 0.25484-1.112 0.67138-0.29697 0.15062-0.23523 0.10309-0.20351 0.056017-0.051615-0.005542-0.027559 0.034803-0.060218 0.023659-0.22888 0.053119-0.3168 0.040471-0.3097 0.021258-0.81975 0.008784-0.88054-0.039588-0.92029-0.071165-0.77023-0.079078-1.4322-0.17483-1.7153-0.24171-1.6451-0.24557-1.3657-0.22031-0.68415-0.13052-0.71896-0.16392-0.60802-0.1705-0.70164-0.24251-0.74276-0.31509-0.37047-0.18045-0.72356-0.39963-0.35142-0.21986-0.48124-0.33596-0.36846-0.29042-0.35172-0.30837-0.26463-0.25482-0.36338-0.38279-0.53006-0.6134-0.50535-0.6516-0.29667-0.43316-0.89168-1.4574-0.31418-0.47357-0.36326-0.5053-0.25359-0.32489-0.23655-0.27088-0.18126-0.18627-0.42717-0.38244-0.4848-0.36666-0.49175-0.32583-0.81827-0.49552-0.28909-0.19113-0.28451-0.22545-0.24305-0.24411-0.14896-0.18202-0.23544-0.34224-0.33999-0.60334-0.39472-0.80957-0.61231-1.3751-0.22623-0.42461-0.24642-0.36088-0.38277-0.39161-0.23534-0.16715-0.33788-0.17461-0.57155-0.18083-0.66821-0.092516-0.48039-0.00955-0.59315 0.042569-0.3705 0.055849-0.35799 0.076405-0.48272 0.14372-0.28722 0.11458-0.2008 0.099372-0.14162 0.085422-0.15929 0.13227-0.025475 0.034623-0.013767 0.046941 0.007662 0.019251-0.014884 0.041347 0.032271 0.19998 0.32007 1.4418 0.068888 0.40142 0.051905 0.40589 0.029652 0.4122 0.00223 0.4043-0.030272 0.40837-0.065226 0.38762-0.090436 0.32938-0.11896 0.30318-0.13123 0.24881-0.15131 0.22097-0.17064 0.19173-0.18573 0.15789-0.2194 0.13201-0.22928 0.083835-0.34537 0.028392-0.28544-0.067315-0.23042-0.1191-0.20195-0.15543-0.20052-0.20333-0.17555-0.21469-0.29684-0.42735-0.92794-1.5085-0.46343-0.72459-0.41007-0.6154-0.22628-0.31389-0.23576-0.29001-0.32722-0.32272-0.23771-0.17194-0.22761-0.11795-0.19819-0.069187-0.42098-0.057478-0.25892 0.015499-0.26378 0.046863-0.47856 0.14279-0.76408 0.30982-2.372 1.065-0.45717 0.18261-0.31778 0.1119-0.37354 0.10993-0.41484 0.090884-0.42488 0.056442-0.47414 0.02145-1.2939-0.037209-0.69489 0.009856-0.37512 0.030289-0.3686 0.052754-0.3255 0.07023-0.31275 0.093383-0.38011 0.15594-0.39739 0.21985-0.29074 0.19796-0.19418 0.14843-0.30367 0.25918-0.065343 0.006894-0.076793-0.018777-0.11668-0.046627-0.11495-0.063633-0.11816-0.084726-0.16871-0.16383-0.10846-0.14154-0.096604-0.15909-0.14089-0.31696-0.087175-0.28665-0.062593-0.30077-0.037327-0.27308-0.039902-0.50294-0.059291-1.2547-0.056231-0.59464-0.072933-0.47827-0.12339-0.52934-0.48484-1.4637-0.093141-0.34981-0.31613-1.4128-0.095143-0.34644-0.11578-0.33878-0.21697-0.47614-0.17379-0.31148-0.16818-0.27015-0.56492-0.80103-0.82762-1.0687-0.40014-0.53998-0.18307-0.28071-0.1627-0.2946-0.13049-0.29727-0.1093-0.31137-0.092438-0.32234-0.10312-0.44699-0.12771-0.7874-0.10224-0.94463-0.079611-0.48977-0.25117-1.2355-0.1073-0.60102-0.107-0.80258-0.17245-1.5783-0.037424-0.45708-0.030454-0.8154 0.008371-2.4035-0.034845-0.73002-0.12386-1.1527-0.034041-0.4138-0.011207-0.26488 7.79e-4 -0.53785 0.11403-1.9984 0.005343-0.52368-0.044451-0.94047 0.014425-0.20648 0.075492-0.49442 0.17239-0.87619 0.12225-0.71798 0.059394-0.40358 0.089269-0.76846 0.046981-0.77052 0.048098-2.1916 0.14671-2.5324 0.092539-1.0049 0.2313-1.8515 0.20383-1.8356 0.080945-1.0196 0.005609-0.33114-0.012862-0.068927-0.015993-0.00491-0.020817-0.078507-0.062416-1.1172-0.033353-0.2984-0.053053-0.28505-0.10291-0.31922-0.15618-0.26835-0.13399-0.1396-0.1575-0.11505-0.17546-0.093103-0.19094-0.074903-0.38434-0.098614-0.27653-0.043035-0.3374-0.034929-1.1159-0.071655-0.59134-0.017916-0.55701 0.003683-0.40524 0.021532-0.33088 0.032684-0.54172 0.078907-0.40627 0.074327-1.1339 0.25525-1.0764 0.29888-0.77747 0.2674-0.32403 0.13628-0.26542 0.12718-0.97112 0.54177-0.24861 0.11325-0.19425 0.072777-0.1996 0.063883-0.42444 0.11031-0.75225 0.14506-1.4594 0.2343-0.29549 0.022108-0.30255 0.003157-0.39306-0.020269-0.59952-0.076677-0.47306-0.094012-0.54235-0.1488 0.16926-0.17443 0.17396-0.20646 0.45075-0.57879 0.39079-0.53356 0.28101-0.43236 0.22422-0.41222 0.073903-0.1628 0.17198-0.48131 0.075732-0.28626 0.082243-0.4026 0.072377-0.52199 0.034403-0.42828 0.011854-0.76929-0.067954-1.3218-5.44e-4 -0.32329 0.043036-0.55512 0.1018-0.5673 0.24641-0.9552 0.19464-0.63938 0.11938-0.34059 0.14806-0.36238 0.20556-0.40588 0.45228-0.71741 0.24172-0.43545 0.68408-1.3781 0.38108-0.65546 0.2227-0.31192 0.19746-0.22016 0.219-0.20718 0.24073-0.20222 0.96603-0.74809 0.31281-0.29177 0.26798-0.32676 0.21614-0.38671 0.16371-0.4277 0.12597-0.45709 0.10113-0.47614 0.28632-1.5525 0.12247-0.48691 0.15642-0.45116 0.2321-0.47404 0.24034-0.4302 0.19008-0.40924 0.076199-0.40975-0.010303-0.13332-0.031809-0.15242-0.083228-0.23254-0.10729-0.2135-0.14265-0.23042-0.20372-0.28272-0.37538-0.46096-0.32578-0.36988-0.5656-0.59234-1.2972-1.2466-0.53691-0.53972-0.50078-0.54122-0.46373-0.55318-0.2248-0.29822-0.26214-0.38465-0.15547-0.25513-0.25181-0.4761-0.26712-0.62816-0.17674-0.51543-0.15157-0.53115-0.10908-0.45111-0.095643-0.45962-0.1298-0.76207-0.10924-0.8354-0.12448-1.304-0.11842-1.4406-0.043508-0.72028-0.011525-0.70517 0.023505-1.1724-0.001981-0.20624-0.009199-0.10278-0.015147-0.027639-0.16106 0.11704-0.69349 0.56444-0.38016 0.28655-0.49192 0.30791-0.46582 0.21155-0.29096 0.087745-0.4635 0.068978-0.48448-0.001314-0.52746-0.062417-0.43706-0.08917-0.3601-0.098987-0.49202-0.19121-0.35328-0.19804-0.35386-0.24928-0.37148-0.30554-0.33163-0.3259-0.69125-0.83643-0.23689-0.24-0.36913-0.28451-0.30995-0.19754-0.3446-0.18008-0.346-0.13006-0.26023-0.059512-0.15244-0.017945-0.31246 0.001636-1.37 0.15376-1.3075 0.097324-1.0931 0.047064-0.37666 0.031859-0.41104 0.066043-0.11423 0.026338-0.55583 0.18523-0.55112 0.2641-0.54541 0.3254-0.5383 0.37351-0.52927 0.41204-0.78594 0.68148-1.0433 0.96859-1.7985 1.7116-0.3323 0.29366-0.31306 0.24655-0.24999 0.17274-0.45069 0.26464-0.3671 0.17355-0.5799 0.2148-0.36453 0.10468-0.36839 0.085484-0.36432 0.06612-0.36093 0.048038-0.5171 0.038058-0.2492 0.004631-1.6076-0.066955-0.17128 0.01634-0.14308-0.082843-0.12226-0.21259-0.066617-0.29685 0.002746-0.22636 0.041228-0.24066 0.12529-0.3773 0.10246-0.23297 0.64109-1.2565 0.3187-0.58884 0.28767-0.47752 0.25255-0.38334 0.27067-0.3704 0.27872-0.33533 0.32958-0.33586 0.9067-0.80889 0.44683-0.43006 0.2957-0.32404 0.62294-0.73024 0.21779-0.27188 0.20096-0.27167 0.27325-0.40157 0.17646-0.31787 0.094955-0.25205 0.016416-0.11372-0.020624-0.15149-0.1326-0.19901-0.23229-0.17935-0.30517-0.1668-1.0782-0.46568-0.42087-0.19504-0.18599-0.097312-0.41596-0.25989-0.40209-0.29944-1.2867-1.0949-0.29218-0.23274-0.27854-0.19669-0.23017-0.13208-0.21234-0.081452-0.19018-0.017183-0.036886 0.005974-0.20288 0.10714-0.17033 0.19888-0.30633 0.51898-0.16579 0.24377-0.19191 0.18216-0.17442 0.082503-0.18601 0.03662-0.13706 0.003127-0.12849-0.020222-0.15148-0.073344-0.093996-0.12443-0.049887 0.003904-0.054322-0.043875-0.078877-0.099884-0.087609-0.13994-0.17971-0.3736-0.13545-0.41242-0.070039-0.3225-0.05823-0.41474-0.097772-1.2819-0.044679-0.42165-0.046688-0.2964-0.073282-0.33066-0.088219-0.2979-0.09718-0.26666-0.16059-0.37022-0.18234-0.35964-0.27064-0.46305-0.21694-0.33378-0.38682-0.53812-0.39968-0.49398-0.25019-0.28531-1.0068-1.0933-0.22082-0.2684-0.18608-0.26866-0.13673-0.27129-0.068875-0.27654 0.004444-0.22632 0.021825-0.12631 0.07511-0.25886 0.069127-0.18052 0.18076-0.39964 0.56895-1.1549 0.27862-0.62246 0.27532-0.69848 0.42684-1.2529 0.39386-1.315 0.21772-0.82766 0.087084-0.3839 0.06332-0.3423 0.029629-0.27455-0.015718-0.16947-0.05521-0.024439-0.45494-0.14612-0.15862-0.070804-0.20622-0.11785-0.27493-0.186-0.19114-0.14745-0.17818-0.16182-0.156-0.17247-0.082598-0.12353-0.051061-0.13034-0.076794-0.45684-0.076436-0.23205-0.07376-0.14988-0.33732-0.5726-0.24546-0.46134-0.12191-0.257-0.029927-0.10507-0.014014-0.11024 0.009929-0.13271 0.034772-0.13358 0.11983-0.26446 0.2423-0.38382 0.88717-1.2115 0.53562-0.78239 0.33874-0.43674 0.78388-0.9342 0.27983-0.37613 0.14651-0.26008 0.048063-0.13038 0.02297-0.1272-0.014564-0.16353-0.047517-0.1139-0.024653-0.019556-0.40116-0.4427-0.46939-0.49283-1.2225-1.2338-0.81199-0.77533-0.90708-0.80946-0.71509-0.59622-1.5983-1.2382-0.54942-0.45411-0.80739-0.70377-2.8443-2.5427-0.96514-0.82815-0.63122-0.4929-0.47054-0.34245-0.6038-0.41038-0.39277-0.24641 0.026695-0.043533 0.17678-0.55802 1.102-3.7711 0.68079-2.4038 0.55713-2.0832 0.15069-0.47125 0.29994-0.73096 0.32857-0.6843 0.19318-0.3293 0.23275-0.30027 0.26971-0.25709 0.30418-0.20501 0.35908-0.1571 0.39259-0.12079 0.88846-0.21744 0.40918-0.079499 0.44561-0.069988 0.73534-0.071244 0.37251-0.011055 0.34782 0.007577 0.35738 0.022092 0.45737 0.04881 0.84497 0.14255 0.40609 0.049489 0.57057 0.022353 0.62124-0.023774 0.65001-0.072038 0.38679-0.063821 0.58801-0.11938 0.90304-0.22198 0.87079-0.26547 0.35004-0.12825 0.41244-0.18094 0.27798-0.14235 0.40473-0.23322 0.40017-0.25371 0.59636-0.40586 0.57887-0.42748 0.32325-0.25762 0.42747-0.37552 0.24998-0.24605 0.23364-0.25628 0.34124-0.44871 0.2586-0.4431 0.21526-0.46478 0.18416-0.47729 0.28915-0.88925 0.1027-0.4128 0.079201-0.52108 0.028141-0.36484 0.01151-0.36888-0.004224-0.5015-0.087231-2.1105-0.060902-0.61542-0.11518-0.51625-0.16253-0.51713-0.20393-0.55438-0.68092-1.648-0.1839-0.43238-0.17834-0.37843-0.18734-0.34182-0.25037-0.38555-0.29302-0.38552-0.64105-0.78965-0.21143-0.31966-0.20738-0.40124-0.16566-0.47613-0.077133-0.41129-0.022716-0.56512 0.009909-0.2089 0.020597-0.23207 0.087994-0.50164 0.14045-0.44066 0.19764-0.41247 0.36265-0.5288 0.37202-0.41108 0.42246-0.39477 0.95989-0.82056 0.32217-0.30081 0.51394-0.54417 0.32853-0.39911 0.33476-0.45615 0.31403-0.48155 0.29246-0.50033 0.23915-0.46452 0.16204-0.3714 0.12594-0.35918 0.047288-0.1694 0.056103-0.27349 0.019928-0.3287-0.075973-0.43832-0.11634-0.32636-0.19551-0.40302-0.1579-0.26972-0.73852-1.0991-0.17729-0.29839-0.13728-0.27131-0.15095-0.42039-0.062548-0.38439-0.011509-0.40499 0.020857-0.42592 0.035075-0.39611 0.054755-0.4084 0.13611-0.66964 0.18947-0.69365 0.17743-0.55222 0.14722-0.40959 0.15517-0.37508 0.086254-0.17625 0.049888-0.06797 0.029723-0.14254 0.094695-0.17846 0.34855-0.55772 0.25904-0.38072 0.43832-0.60802 1.2161-1.6336 0.54546-0.77821 0.32315-0.49631 0.2845-0.51339 0.11755-0.24989 0.11547-0.28366 0.074745-0.22368 0.072632-0.28659 0.0394-0.23424 0.026554-0.4063-0.016626-0.34923-0.029718-0.23516-0.10269-0.48493-0.11048-0.35634-0.097669-0.24802-0.10498-0.22467-0.22456-0.39668-0.68221-1.0169-0.37316-0.63105-0.11912-0.23564-0.13963-0.31845-0.11098-0.32105-0.049681-0.19258-0.066559-0.3864-0.025564-0.31865 4.68e-4 -0.35389 0.032533-0.36582 0.069651-0.38014 0.084184-0.30328 0.11889-0.2678 0.11845-0.16429 0.088706-0.084572 0.089765-0.064696 0.15417-0.078862 0.11796-0.042856 0.38919-0.089862 0.51417-0.052101 0.66912-0.008262 1.0667 0.036801 0.4053 0.001877 0.49169-0.019235 0.74159-0.051616 0.22918 8.54e-4 0.20678 0.021285 0.15306 0.037654" stroke="#bdc660"/>
    </defs>
    <g clip-path="url(#pee13fc5b79)">
     <use y="280.512" fill="#bdc660" stroke="#bdc660" xlink:href="#mc2bd79544a"/>
    </g>
   </g>
  </g>
 </g>
 <defs>
  <clipPath id="pee13fc5b79">
   <rect x="7.2" y="7.2" width="255.09" height="266.11"/>
  </clipPath>
 </defs>
</svg>
