<?xml version="1.0" encoding="UTF-8"?>
<!DOCTYPE svg  PUBLIC '-//W3C//DTD SVG 1.1//EN'  'http://www.w3.org/Graphics/SVG/1.1/DTD/svg11.dtd'>
<svg width="285.14pt" height="280.51pt" version="1.1" viewBox="0 0 285.14 280.51" xmlns="http://www.w3.org/2000/svg" xmlns:xlink="http://www.w3.org/1999/xlink">
 <metadata>
  <rdf:RDF xmlns:cc="http://creativecommons.org/ns#" xmlns:dc="http://purl.org/dc/elements/1.1/" xmlns:rdf="http://www.w3.org/1999/02/22-rdf-syntax-ns#">
   <cc:Work>
    <dc:type rdf:resource="http://purl.org/dc/dcmitype/StillImage"/>
    <dc:date>2024-07-04T12:10:32.625449</dc:date>
    <dc:format>image/svg+xml</dc:format>
    <dc:creator>
     <cc:Agent>
      <dc:title>Matplotlib v3.7.1, https://matplotlib.org/</dc:title>
     </cc:Agent>
    </dc:creator>
   </cc:Work>
  </rdf:RDF>
 </metadata>
 <defs>
  <style type="text/css">*{stroke-linejoin: round; stroke-linecap: butt}</style>
 </defs>
 <g id="figure_1">
  <g id="patch_1">
   <path d="m0 280.51h285.14v-280.51h-285.14v280.51z" fill="none"/>
  </g>
  <g id="axes_1">
   <g id="PatchCollection_1">
    <defs>
     <path id="m97ff3fd6ee" d="m54.283-259.52 0.1499 0.38891 0.21299 0.4503 0.11678 0.20647 0.20576 0.31158 0.11469 0.15052 0.25453 0.28776 0.17674 0.16877 0.15573 0.13092 0.40721 0.28766 0.29923 0.18004 0.47636 0.25589 0.59757 0.29119 2.006 0.9187 0.37041 0.15036 0.37236 0.12301 0.13936 0.036982 0.53481 0.097902 0.54459 0.04971 1.6241 0.065129 0.92304 0.074517 0.44338 0.005224 0.43202-0.052453 0.15137-0.037886 0.21064-0.070034 0.20857-0.087487 0.20474-0.10212 0.32857-0.19395 0.2588-0.17366 1.1277-0.84242 0.41711-0.29659 0.29901-0.19347 0.4174-0.24371 0.8981-0.49169 1.1885-0.70325 0.48444-0.25392 0.38513-0.16107 0.22863-0.071685 0.28928-0.064364 0.61043-0.089613 0.21891-0.044476 0.16231-0.049135 0.4837-0.18762 0.41019-0.075568 0.12467-0.049074 0.11568-0.086762 0.070596-0.082698 0.052564-0.084575 0.089384-0.22646 0.15363-0.56735 0.098246-0.1816 0.062686-0.057807 0.086019-0.036454 0.14692 2.7e-5 0.51774 0.14518 0.53719 0.08283 0.22417 0.054014 0.19287 0.066751 0.87773 0.37455 0.35808 0.13599 0.36785 0.11314 0.37338 0.076542 0.39537 0.0332 0.84202 0.019012 0.45072-0.003617 0.45941-0.04013 0.55176-0.11383 1.381-0.39237 1.4134-0.42188 0.4476-0.12442 0.44391-0.092465 0.44209-0.04063 0.54908 0.04405 0.54273 0.13739 0.52936 0.21566 0.50758 0.28515 0.26306 0.18243 0.22483 0.17732 0.30455 0.27518 0.28629 0.29855 0.3219 0.38765 0.35 0.48707 0.32029 0.50382 0.35939 0.62726 0.47676 0.93339 0.22831 0.39284 0.35673 0.54324 0.82589 1.1562 0.21868 0.32965 0.579 0.91945 0.27353 0.4592 0.24672 0.46972 0.20654 0.46756 0.080125 0.22372 0.10233 0.47199-0.010031 0.46516-0.14257 0.45547-0.23309 0.4385-0.26558 0.42855-0.23858 0.4219-0.15071 0.41229-0.019994 0.37358 0.09451 0.30236 0.19181 0.177 0.10384 0.017522-0.085603 0.14882-0.064542 0.30921-0.034125 0.40598 0.010804 0.4555 0.16533 1.2329 0.013396 0.27384-0.002611 0.25155-0.019381 0.29758-0.068624 0.50432-0.093511 0.46747-0.30205 1.3284-0.18323 0.77635-0.14923 0.57684-1.2387 4.166-0.47043 1.5184-0.19558 0.73265-0.060015 0.28685-0.055348 0.34637-0.036281 0.31667-0.02471 0.36716 0.001529 0.56966 0.020368 0.22151 0.038469 0.23298 0.065022 0.25437 0.070819 0.1944 0.10033 0.20619 0.10283 0.16235 0.091842 0.11586 0.17345 0.16517 0.15524 0.10846 0.18206 0.09648 0.36242 0.12756 0.15609 0.036236 0.80996 0.13441 0.81994 0.16227 0.19344 0.028106 0.42293 0.030238 0.54114 0.022214 0.24949 0.025891 0.16358 0.031957 0.14317 0.044725 0.091144 0.040633 0.11138 0.068328 0.10538 0.088459 0.15235 0.17412 0.17795 0.26903 0.58811 1.0693 0.82852 1.345 0.2109 0.32606 1.888 2.58 0.23593 0.341 0.21833 0.34078 0.49631 0.85906 0.20637 0.41049 0.15102 0.35226 0.12317 0.37145 0.045837 0.19336 0.041283 0.27762 0.011504 0.30054-0.021698 0.32567-0.063267 0.39204-0.04489 0.20137-0.12862 0.46699-0.26855 0.78278-0.54329 1.4035-0.038236 0.12231 0.00236 0.04092 0.020804 0.041992 0.074355 0.059688 0.1193 0.063065 0.19073 0.068668 0.22894 0.046616 0.34052 0.01111 0.2893-0.03201 0.43239-0.10115 0.49032-0.14903 0.29431-0.077625 0.96499-0.16582 0.33492-0.068631 0.58678-0.1341 0.89336-0.22564 0.31671-0.060421 0.21289-0.025883 0.54969-0.03851 0.19782-0.041514 0.1517-0.056381 0.11574-0.056238 0.41672-0.23756 0.51428-0.2737 0.25176-0.092312 0.19465-0.027708 0.12185 0.001911 0.11252 0.014865 0.24299 0.077932 0.29246 0.18388 0.16989 0.16454 0.16068 0.18977 0.23956 0.31943 0.2194 0.35219 0.1345 0.27152 0.17334 0.38811 0.1797 0.35656 0.062561 0.10243 0.23941 0.31421 0.18623 0.17833 0.21028 0.1472 0.27247 0.12407 0.28055 0.081785 0.47168 0.083683 1.2737 0.16195 0.48353 0.056057 0.61842 0.030823 0.35555-0.012902 0.35166-0.030329 1.1475-0.16859 0.73357-0.072454 0.82034-0.035882 0.82929 0.00815 0.47183 0.027051 0.49003 0.046192 0.83672 0.1151 0.73941 0.13532 1.2042 0.24749 0.55522 0.072395 0.35205 0.011289 0.21749-0.012774 0.18116-0.028658 0.10982-0.033028 0.058113-0.029924 0.032484-0.030811 0.01056-0.044058 0.36103 0.18771 0.24538 0.11051 0.27537 0.096003 0.22484 0.044423 0.12106 0.00389 0.18323-0.018943 0.12013-0.025795 0.32389-0.10104 0.23503-0.030119 0.35786 0.012615 0.63225 0.070658 0.009797-0.040514 0.023309-0.028597 0.12054-0.071633 0.11668-0.041919 0.20489-0.051038 0.17138-0.029524 0.23439-0.026349 0.26666-0.013835 0.45672 0.01035 0.17781 0.014998 0.34557 0.047187 0.4467 0.094761 1.8154 0.52365 0.51688 0.12029 0.52054 0.099355 0.44384 0.071387 1.7842 0.24312 1.5879 0.19282 0.35696 0.029033 0.42886 0.013519 0.47085-0.01919 0.24629-0.02787 0.34305-0.061991 0.3007-0.077078 0.36606-0.12882 0.35094-0.16858 0.25461-0.15388 0.17907-0.12373 0.30701-0.24082 0.40228-0.36648 0.24092-0.24469 1.3491-1.52 0.66885-0.69905 0.78687-0.78496 0.47552-0.45755 0.80102-0.71778 0.35761-0.2886 0.49875-0.36273 0.27973-0.18252 0.28462-0.17081 0.63792-0.3411 0.77728-0.36844 0.54666-0.22996 0.31795-0.10887 0.29814-0.063532 0.15884-0.011784 0.15425 0.004503 0.30985 0.051303 0.26799 0.086498 0.12662 0.06063 0.11524 0.071823 0.16551 0.13724 0.13556 0.13857 0.66772 0.79762 0.18688 0.20783 0.48806 0.47493 0.26159 0.22305 0.26947 0.1924 0.21383 0.12239 0.28464 0.12354 0.30942 0.090819 0.27066 0.057135 1.4813 0.27732 0.82759 0.1221 0.53354 0.05024 0.64325 0.027654 0.58399-4.18e-4 0.49926-0.030216 0.35418-0.044613 0.28517-0.048651 0.39846-0.095026 0.24268-0.075392 0.25851-0.096051 0.29511-0.13221 0.53307-0.29104 0.70768-0.45476 1.6426-1.1696 0.94826-0.64643 2.0748-1.3658 0.57853-0.33828 0.27995-0.14019 0.30485-0.13325 0.30993-0.11296 0.32153-0.090727 0.27032-0.05407 0.27207-0.033905 0.28217-0.013507 0.26802 0.008194 0.4008 0.055124 0.2992 0.080114 0.1894 0.071116 0.20527 0.097553 0.12469 0.071356 0.2134 0.14727 0.254 0.22313 0.16233 0.17272 0.15487 0.18776 0.30084 0.42676 0.77078 1.278 0.22599 0.3445 0.23001 0.29297 0.23556 0.21778 0.090599 0.058175 0.29656 0.083718 0.31719-0.1001 0.31392-0.26087 0.31197-0.37971 0.3111-0.46683 0.31112-0.53034 0.31187-0.57662 0.62845-1.2465 0.63773-1.3269 1.864-4.0176 1.4828-2.9918 0.02364 0.085022 0.123 0.097291 0.13582 0.068432 0.20508 0.072332 0.1377 0.034741 0.38971 0.05922 0.2344 0.015164 0.31682 4.1e-5 0.38342-0.028453 0.4639-0.074814 1.5534-0.37614 1.3233-0.29991 0.33065-0.10351 0.54362-0.23837 0.15194-0.052044 0.13851-0.02551 0.13922 0.016168 0.079558 0.04926 0.056898 0.077569 0.03736 0.1243 0.050698 0.57231 0.046951 0.2014 0.07059 0.21263 0.12878 0.3046 0.15802 0.31332 0.18067 0.31651 0.1985 0.31448 0.213 0.30706 0.2255 0.29352 0.23719 0.27257 0.24918 0.24229 0.26261 0.20005 0.27865 0.14242 0.26864 0.069791 0.28096 0.029294 0.58522 0.02239 0.29804 0.035364 0.32445 0.083886 0.32164 0.12431 0.31612 0.15208 0.83338 0.45108 0.46347 0.19334 0.45641 0.15624 0.25527 0.061247 0.18422 0.005467 0.086088-0.043161 1.8835-1.0374 0.3913-0.19802 0.39301-0.18186 0.31339-0.12766 0.40028-0.1321 0.19729-0.048655 0.27154-0.04506 0.25829-0.013788 0.19209 0.013457 0.21763 0.047896 0.33614 0.1713 0.19286 0.16518 0.16142 0.19064 0.098068 0.15289 0.077051 0.15704 0.076663 0.25011 0.014534 0.24216-0.059609 0.2128-0.081109 0.11364-0.079777 0.072015-0.11797 0.074737-0.10906 0.050929-0.18072 0.061683-0.20768 0.047176-0.66066 0.12178-0.59504 0.12992-0.64568 0.17866-0.43504 0.1629-0.41984 0.19663-0.39477 0.22139-1.3688 0.89779-0.17557 0.091016-0.18645 0.069952-0.23358 0.045361-0.10109 0.008574-0.85976 0.006851-0.30767 0.050276-0.3061 0.092748-0.29268 0.13368-0.092938 0.054092-0.27225 0.20664-0.23169 0.25423-0.17998 0.29399-0.11464 0.32791-0.034549 0.24079-0.004663 0.21721 0.01028 0.18147 0.037823 0.31584 0.087584 0.50279 0.11838 0.52097 0.14937 0.52485 0.18342 0.5151 0.22332 0.49155 0.2133 0.37003 0.54655 0.76514 0.25051 0.38549 0.2265 0.4809 0.15394 0.50976 0.078911 0.52268 0.008868 0.17167-0.010903 0.48109-0.05894 0.45877-0.22374 1.122-0.046745 0.30759-0.040649 0.43384-0.065565 1.24-0.068785 0.59156-0.077576 0.44959-0.15286 0.74715-0.44002 1.92-0.1151 0.64281-0.0509 0.40729-0.03195 0.57224 0.001783 0.22259 0.075698 1.5643 0.006733 0.54152-0.019419 0.42241-0.077267 0.54919-0.15279 0.61391-0.12594 0.38288-0.17208 0.44945-1.2584 2.8754-0.15552 0.38983-0.056034 0.1817-0.018244 0.099563 0.037835 0.10503 0.042821 0.13877 0.13555 0.15396 0.2945 0.24828 0.16284 0.11445 0.15353 0.096786 0.30236 0.16422 0.76695 0.33154 0.22095 0.11188 0.2247 0.142 0.33039 0.29071 0.2123 0.25093 0.19235 0.28137 0.27629 0.52845 0.11628 0.2903 0.095508 0.29285 0.10999 0.45418 0.062301 0.38156 0.028135 0.25836 0.024139 0.53838-0.023295 0.72976-0.034593 0.43148-0.077015 0.69162-0.25447 1.7911-0.15921 0.85961-0.072005 0.32079-0.10667 0.373-0.12543 0.35529-0.13686 0.33241-0.22057 0.44974-0.0929 0.15648-0.092763 0.12959-0.053116 0.061484-0.15099 0.13156-0.10761 0.063924-0.08324 0.034346-0.068971 0.018097-0.24924-0.010029-0.12503-0.043611-0.26677-0.15292-0.24111-0.19953-0.32329-0.33015-0.11539-0.057664-0.11404 0.019922-0.09191 0.099464-0.043409 0.12669-0.018174 0.16267 0.012969 0.24594 0.0442 0.2331 0.065555 0.22424 0.089209 0.23775 0.13452 0.30055 0.14925 0.28375 0.72833 1.2321 0.38391 0.70414 0.30271 0.58849 0.24801 0.52384 0.20024 0.48223 0.23031 0.6642 0.18053 0.62095 0.13915 0.54542 0.20741 0.96228 0.28121 1.576 0.10434 0.42317 0.14746 0.468 0.17994 0.45264 0.23382 0.46784 0.27106 0.44155 0.29462 0.41397 0.81836 1.0356 0.31066 0.42367 0.18081 0.27133 0.5699 0.91859 0.22886 0.32569 0.14014 0.16244 0.15197 0.1339 0.24686 0.13148 0.2828 0.060583 0.20266 0.01062 0.27801-0.008263 0.28772-0.024118 0.56625-0.072165 1.4659-0.23497 0.40478-0.043436 0.47911-0.013825 0.29075 0.018159 0.24832 0.034007 0.49977 0.12114 0.49551 0.17755 0.49339 0.21829 0.49347 0.2455 1.5876 0.82541 0.59953 0.2841 0.57901 0.24975 0.58298 0.22332 0.58454 0.18993 0.58376 0.14661 0.58054 0.089666 0.57462 0.014543 0.33071-0.032937 0.252-0.042605 0.37024-0.083046 0.49419-0.14152 0.56203-0.19706 0.58927-0.24302 0.34786-0.1622 0.34122-0.17536 0.4848-0.28448 0.20666-0.13721 0.37946-0.28102 0.45914-0.39685 0.4269-0.44657 0.34933-0.46092 0.23976-0.40372 0.14948-0.30157 0.12561-0.28664 0.56434-1.4125 0.2393-0.53352 0.26582-0.52318 0.29945-0.50591 0.33513-0.47864 0.36756-0.45926 0.3925-0.44401 0.41153-0.43202 0.42591-0.42257 0.88121-0.82407 1.8742-1.6755 0.45657-0.43737 0.4362-0.4537 0.3686-0.42556 0.34733-0.4413 0.32708-0.45459 0.3066-0.46619 0.28464-0.4768 0.25989-0.48705 0.66142-1.3645 0.69104-1.287 0.39689-0.70682 0.46546-0.785 0.26523-0.4196 0.27908-0.41572 0.40809-0.55821 0.4408-0.55101 0.35824-0.42166 1.0126-1.144 0.63856-0.76305 0.97112-1.2685 0.13439-0.18882 0.98781 0.35649 0.56743 0.23911 0.27735 0.134 0.26746 0.14586 0.25958 0.1623 0.24819 0.17306 0.4703 0.36454 0.4456 0.37416 1.3007 1.1379 0.39745 0.38401 0.95504 0.97742 0.56129 0.54884 0.24828 0.31155 0.36515 0.53119 0.1662 0.21984 0.37067 0.43247 0.41929 0.41577 0.22986 0.19676 0.20507 0.15776 1.3384 0.92 0.37965 0.27697 0.16768 0.13671 0.069357 0.047005 0.085368 0.093113 0.17213 0.21961 0.34131 0.50654 0.30721 0.52837 0.21009 0.41128 0.1909 0.42732 0.22674 0.63555 0.11249 0.44941 0.036719 0.21253 0.028947 0.2641 0.01356 0.30597-0.015609 0.57884-0.029029 0.36346-0.063219 0.53645-0.11574 0.68993-0.20364 0.90605-0.20741 0.78382-0.34358 1.1126-0.33929 0.96032-0.47635 1.2562-0.16244 0.47921-0.13428 0.47373-0.092952 0.46896-0.036529 0.46463 0.029326 0.46478 0.059666 0.39077 0.27696 1.4031 0.090598 0.57432 0.085427 0.72354 0.1159 1.2735 0.044062 0.36006 0.059527 0.34175 0.088993 0.34099 0.18604 0.42245 0.19245 0.2502 0.33246 0.23966 0.26882 0.11117 0.13164 0.038389 0.38458 0.076015 0.94555 0.10993 0.37174 0.05896 0.4565 0.10886 1.1126 0.32402 0.32725 0.08261 0.38606 0.082831 0.80891 0.13517 0.41984 0.055208 0.85978 0.089153 0.51948 0.039297 1.0282 0.045685 1.599 0.008282 2.5846-0.074572 0.42067 0.009298 0.47644 0.033555 0.38362 0.043657 0.2896 0.04892 0.29977 0.073203 1.024 0.31481 1.1023 0.29175 0.47218 0.14021 0.92998 0.31353 0.61329 0.24198 0.50183 0.22867 0.45191 0.23184 0.45501 0.25663 1.2598 0.78396 0.60893 0.42611 0.48352 0.37481 0.68969 0.57746 1.0484 0.90576 0.74432 0.61645 0.53855 0.40568 0.13938 0.083519 0.016734 0.006131-0.10022 0.038639-0.23771 0.11454-0.206 0.12447-0.20233 0.14429-0.33052 0.27991-0.19326 0.1944-0.51235 0.57901-0.2398 0.22181-0.97196 0.7632-0.2107 0.21453-0.09279 0.12776-0.072086 0.13708-0.033931 0.093171-0.037892 0.16649-0.017386 0.17319 0.004949 0.29885 0.036789 0.31092 0.046246 0.25619 0.12068 0.52571 0.11742 0.42833 0.1122 0.36006 1.3146 4.1235 0.097949 0.34115 0.12917 0.55729 0.044041 0.27347 0.025071 0.2565 0.003894 0.24995-0.025225 0.27421-0.0505 0.26165-0.08374 0.27679-0.10539 0.22076-0.11555 0.18346-0.20301 0.26274-0.85629 0.95452-0.15533 0.203-0.1204 0.20169-0.087657 0.20407-0.050641 0.19795-0.012238 0.15935 0.018154 0.15806 0.024604 0.072091 0.043266 0.061177 0.045049 0.023389-0.057401 0.054105-0.066221 0.035616-0.28222 0.086106-0.29229 0.047779-0.18695 0.009551-0.15792-0.007525-0.18456-0.031714-0.14808-0.050188-0.14907-0.079795-0.18432-0.14905-0.19724-0.21668-0.17477-0.23042-0.12175-0.20671-0.077512-0.16759-0.081424-0.21443-0.090219-0.28991-0.13192-0.49768-0.099437-0.32628-0.096852-0.23664-0.12074-0.2351-0.10752-0.17795-0.16317-0.21947-0.11908-0.11613-0.085164-0.061029-0.16374-0.07553-0.13792-0.033928-0.18632-0.019179-0.2065-7.7e-4 -0.66821 0.046509-0.44304 0.017332-0.3652-0.001692-0.96112-0.033159-0.60291 0.007444-0.4633 0.046946-0.35068 0.08097-0.10629 0.038615-0.13892 0.071059-0.080882 0.058295-0.07993 0.076204-0.10673 0.14803-0.10712 0.2413-0.075854 0.27327-0.062759 0.34253-0.029314 0.32962-4.22e-4 0.31887 0.023035 0.28712 0.059972 0.34817 0.044765 0.17352 0.099995 0.28929 0.12581 0.28694 0.10734 0.21232 0.33624 0.56861 0.6147 0.91627 0.20234 0.35743 0.09459 0.20244 0.088005 0.22348 0.099546 0.32108 0.092532 0.43695 0.026778 0.21189 0.01498 0.31467-0.023926 0.3661-0.035502 0.21106-0.065445 0.25824-0.067348 0.20154-0.10404 0.25559-0.10592 0.22516-0.25634 0.46259-0.29118 0.4472-0.49149 0.70121-1.0957 1.472-0.39495 0.54786-0.23341 0.34305-0.31406 0.50254-0.085324 0.1608-0.026783 0.12844-0.044951 0.061245-0.07772 0.15881-0.13981 0.33797-0.13265 0.36906-0.15987 0.49758-0.17072 0.62502-0.12264 0.60338-0.049337 0.36799-0.031604 0.35691-0.018794 0.38377 0.010371 0.36492 0.056359 0.34635 0.13601 0.37879 0.12369 0.24446 0.15975 0.26887 0.66545 0.99033 0.14227 0.24303 0.17617 0.36314 0.10483 0.29406 0.068455 0.39496-0.017955 0.29618-0.050552 0.24643-0.042609 0.15264-0.11348 0.32364-0.146 0.33465-0.21548 0.41856-0.26352 0.45082-0.28296 0.4339-0.30163 0.41101-0.29602 0.35962-0.46309 0.49033-0.29029 0.27104-0.86491 0.73936-0.38066 0.35571-0.33521 0.37041-0.32676 0.47648-0.17808 0.37166-0.12655 0.39705-0.079287 0.452-0.018559 0.20911-0.008929 0.18823 0.020468 0.5092 0.069502 0.37059 0.14927 0.42902 0.18686 0.36153 0.19051 0.28803 0.57762 0.71152 0.26403 0.34738 0.2256 0.3474 0.1688 0.308 0.1607 0.34099 0.16571 0.38959 0.61354 1.4849 0.18375 0.49952 0.14645 0.46596 0.10378 0.46516 0.054875 0.55452 0.078601 1.9017 0.003805 0.45188-0.010371 0.33238-0.025356 0.32874-0.071365 0.46952-0.092536 0.37196-0.26054 0.80126-0.16594 0.43006-0.19396 0.41879-0.23301 0.39925-0.30747 0.40431-0.21052 0.23092-0.22525 0.2217-0.38517 0.33836-0.29126 0.23213-0.52159 0.38518-0.53735 0.3657-0.36057 0.2286-0.36468 0.21014-0.25047 0.12827-0.37163 0.16304-0.3154 0.11556-0.78463 0.2392-0.81369 0.20002-0.52983 0.10757-0.34852 0.057506-0.58569 0.06491-0.55977 0.021422-0.51411-0.020141-0.36591-0.044592-0.76136-0.12844-0.41212-0.04398-0.32202-0.019906-0.3134-0.006827-0.33565 0.009961-0.66258 0.064194-0.40152 0.063064-0.3687 0.071632-0.80054 0.19593-0.35375 0.10884-0.32355 0.14155-0.27408 0.18472-0.24302 0.23165-0.20972 0.27056-0.17406 0.29672-0.29606 0.61659-0.27026 0.65864-0.13578 0.42462-0.502 1.8771-0.61343 2.1659-0.99299 3.398-0.15929 0.5028-0.024053 0.039225 0.3539 0.22203 0.54406 0.36977 0.42398 0.30857 0.56876 0.44412 0.86964 0.7462 2.5629 2.2911 0.7275 0.63414 0.49505 0.40918 1.4401 1.1157 0.64433 0.53722 0.81733 0.72936 0.73164 0.69861 1.1015 1.1117 0.42295 0.44406 0.36147 0.3989 0.022214 0.017622 0.042815 0.10262 0.013123 0.14735-0.020697 0.11462-0.043307 0.11748-0.13201 0.23435-0.25214 0.33892-0.70631 0.84176-0.30523 0.39352-0.48262 0.70498-0.79939 1.0916-0.21833 0.34584-0.10798 0.23829-0.031331 0.12036-0.008947 0.11958 0.012628 0.099333 0.026965 0.094674 0.10985 0.23157 0.22117 0.41569 0.30394 0.51594 0.066462 0.13505 0.068873 0.20909 0.069195 0.41164 0.046009 0.11744 0.074424 0.11131 0.14057 0.1554 0.16055 0.14581 0.17222 0.13286 0.24773 0.1676 0.18581 0.10619 0.14292 0.063799 0.40993 0.13166 0.049746 0.022021 0.014164 0.1527-0.026698 0.24738-0.057054 0.30843-0.078468 0.34591-0.19618 0.74577-0.35488 1.1848-0.38461 1.129-0.24808 0.62937-0.25105 0.56087-0.51266 1.0406-0.16288 0.36009-0.062287 0.16266-0.067678 0.23324-0.019665 0.11381-0.004005 0.20393 0.06206 0.24917 0.1232 0.24445 0.16767 0.24207 0.19896 0.24184 0.90714 0.98509 0.22544 0.25708 0.36014 0.4451 0.34855 0.48487 0.19548 0.30076 0.24386 0.41723 0.1643 0.32405 0.1447 0.33359 0.087564 0.24028 0.079489 0.26842 0.066031 0.29794 0.042069 0.26707 0.040258 0.37993 0.088098 1.1551 0.052467 0.3737 0.063109 0.29059 0.12204 0.37162 0.16193 0.33664 0.07894 0.1261 0.071072 0.090001 0.048948 0.039533 0.04495-0.003517 0.084695 0.11212 0.1365 0.066087 0.11577 0.018221 0.1235-0.002818 0.1676-0.032996 0.15716-0.07434 0.17292-0.16414 0.14939-0.21965 0.27602-0.46762 0.15348-0.1792 0.18281-0.09654 0.033237-0.005383 0.17136 0.015483 0.19133 0.073392 0.2074 0.11901 0.25098 0.17723 0.26327 0.20971 1.1594 0.98659 0.3623 0.26981 0.3748 0.23418 0.16758 0.087683 0.37923 0.17574 0.97147 0.4196 0.27497 0.1503 0.2093 0.1616 0.11948 0.17932 0.018583 0.1365-0.014791 0.10247-0.08556 0.22711-0.159 0.28642-0.24621 0.36184-0.18107 0.24479-0.19624 0.24498-0.5613 0.65798-0.26644 0.29198-0.40262 0.3875-0.81698 0.72885-0.29696 0.30263-0.25114 0.30215-0.24389 0.33375-0.22756 0.34541-0.2592 0.43027-0.28717 0.53058-0.57766 1.1322-0.092325 0.20992-0.11289 0.33996-0.037149 0.21685-0.002474 0.20396 0.060026 0.26748 0.11016 0.19156 0.12892 0.074646-0.19642 0.71795-0.028548 0.1877 0.004215 0.072581 0.022355 0.053861 0.045741 0.033773 0.06442 0.016931 0.35291 0.025191 0.15669 0.039259 0.33075 0.10694 0.36564 0.058528 0.088682 0.033832 0.079882 0.045919 0.06795 0.055342 0.051748 0.062791 0.029007 0.06417 0.005168 0.068706-0.024214 0.071848-0.048899 0.071156-0.14789 0.14085-0.18783 0.14016-0.63787 0.43477-0.20054 0.15762-0.088898 0.082771-0.076178 0.085731-0.058238 0.088559-0.034365 0.090476-0.00729 0.087197 0.01304 0.079288 0.02517 0.061031 0.029277 0.028388-0.39571 0.075507-0.47822 0.057252-0.37071 0.018142-0.74194-0.006978-0.095228 0.010273 0.051085 0.026516 0.12299 0.037985 1.1055 0.30658 0.337 0.11882 0.43025 0.17813 0.026158 0.11142 0.01722 0.22412 0.002845 0.22755-0.013349 0.33118-0.075201 0.74317-0.062569 0.42566-0.14151 0.76296-0.31176 1.3091-0.14776 0.73036-0.082853 0.30779-0.090346 0.25373-0.086781 0.19456-0.10434 0.19855-0.62847 1.0564-0.15388 0.22922-0.32168 0.44125-0.14738 0.23468-0.13332 0.24699-0.1185 0.2513-0.29042 0.72788-0.1024 0.21504-0.46749 0.8397-0.30375 0.51308-0.4659 0.84036-1.0731 1.6852-0.20637 0.24886-0.14379 0.12699-0.16 0.11233-0.25317 0.1411-1.6073 0.75608-0.45004 0.22664-0.6406 0.35473-0.53004 0.34409-0.24983 0.18922-0.45235 0.38825-0.091686 0.09858-0.041477-0.11757-0.13357-0.19112-0.24135-0.28127-0.34777-0.34096-0.29902-0.24882-0.44269-0.29915-0.47605-0.22732-0.32847-0.10016-0.31053-0.06155-0.3887-0.044874-0.57688-0.026329-1.022-0.01724-0.40964-0.023017-0.34263-0.034689-0.3766-0.061103-0.45948-0.12624-0.26835-0.11736-0.28276-0.17766-0.40752-0.36057-0.19363-0.20978-0.58707-0.71145-0.3699-0.42152-0.2087-0.2051-0.3294-0.28979-0.21768-0.16814-0.22377-0.15056-0.35485-0.18666-0.36923-0.11891-0.47807-0.039135-0.26545 0.020924-0.50869 0.12204-0.52154 0.20853-0.53004 0.26892-0.535 0.30871-1.6052 1.0082-0.52532 0.31793-0.51456 0.28503-0.49909 0.23457-0.4777 0.16258-0.4488 0.063664-0.31757-0.0299-0.31146-0.075797-0.31183-0.097075-0.31064-0.11597-0.60366-0.26121-0.30314-0.10711-0.6852-0.21292-0.50712-0.17823-0.25745-0.074307-0.18142-0.035549-0.24161-0.020547-0.57866 0.005926-0.8626-0.01603-0.46139 0.019533-0.51625 0.076512-1.5429 0.35894-0.48332 0.075363-0.73536 0.029887-0.31928 0.025405-0.18006 0.036572-0.1825 0.066766-0.16401 0.094379-0.14969 0.12518-0.12135 0.12846-0.16873 0.20457-0.16281 0.22273-0.35164 0.56863-0.1736 0.24672-0.19861 0.20753-0.27658 0.18868-0.31402 0.14202-0.79432 0.27208-0.39791 0.15636-0.2555 0.1103-0.48974 0.25294-0.49566 0.30468-0.6986 0.49142-1.4861 1.1494-0.59785 0.44873-0.25501 0.1645-0.26224 0.14306-0.30378 0.13535-0.33856 0.12948-0.34476 0.10959-0.56265 0.13337-0.24761 0.043296-0.36493 0.033844-0.38812-0.020964-0.30431-0.069411-0.24185-0.085272-0.32774-0.15014-0.41788-0.24092-0.44211-0.30776-0.39918-0.31304-1.2316-1.0311-0.489-0.39028-0.20117-0.13612-0.30729-0.1493-0.32512-0.093416-1.0551-0.18319-0.41759-0.026545-0.42103 0.040339-0.32267 0.089015-0.32051 0.12282-0.40899 0.1791-0.44598 0.23507-0.28152 0.18433-0.63867 0.52018-0.2633 0.16388-0.27369 0.12471-0.27119 0.076124-0.39103-0.003609-0.25488-0.072577-0.1524-0.063531-0.2633-0.1341-1.2748-0.78849-0.51637-0.28367-0.32655-0.15772-0.60523-0.25557-0.75718-0.28195-0.80735-0.28209-0.56729-0.17046-0.66952-0.18169-0.92593-0.23261-0.64314-0.14388-0.51925-0.090788-0.4234-0.0472-0.43634-0.022705-0.80545-0.00442-1.4569-0.05264-0.26806-0.029421-0.086743-0.032933 0.021566-0.09245 0.13199-0.14344 0.20773-0.1664 0.26265-0.16501 0.3319-0.16131 0.85758-0.35525 0.33218-0.16283 0.31617-0.17755 0.47729-0.31094 0.19687-0.15329 0.16994-0.15606 0.241-0.28397 0.21212-0.28701 0.074982-0.13006 0.045313-0.13717 0.003207-0.044823-0.017392-0.10477-0.08778-0.20368-0.048748-0.15629-0.009879-0.092306 0.006402-0.093579 0.05803-0.17299 0.19089-0.32178 0.063229-0.1434 0.037634-0.16685 9.08e-4 -0.17705-0.028661-0.19088-0.036237-0.14271-0.1103-0.27553-0.1576-0.28325-0.1935-0.28391-0.22094-0.27774-0.2423-0.26457-0.74939-0.75613-0.5562-0.61187-0.26899-0.3165-0.25527-0.31956-0.2337-0.31956-0.20168-0.31613-0.15582-0.30856-0.068456-0.19443-0.035526-0.18758-6.16e-4 -0.15819 0.020339-0.13737 0.034454-0.13702 0.15121-0.48788 0.0579-0.25568 0.018193-0.25576-0.04138-0.27562-0.090301-0.24832-0.034134-0.067501-0.12344-0.1743-0.12301-0.072882-0.45982 0.45081-0.20746 0.17047-0.095496 0.0467-0.044128 0.005344-0.073528-0.03042-0.053407-0.064232-0.019004-0.080161 0.010256-0.044939 0.053184-0.092002 0.078644-0.093052 1.1071-1.0414-1.7199-0.30645-0.38766-0.080941-0.36051-0.094882-0.16521-0.056988-0.15094-0.066835-0.16627-0.10567-0.087353-0.083533-0.065124-0.093333-0.038592-0.10224-0.007674-0.12876 0.02431-0.13709 0.047451-0.14299 0.063974-0.14712 0.24822-0.45504 0.66169-1.0912 0.25665-0.48325 0.13574-0.33563 0.17814-0.64127 0.13581-0.33237 0.17135-0.32157 0.18502-0.29011 0.16619-0.21361 0.05793-0.052078 0.021304-0.002284-0.013548-0.048524 0.012657-0.049165 0.08814-0.11558 0.16612-0.13344 0.19844-0.12006 0.32541-0.14242 0.2229-0.074013 0.61023-0.17046 0.25027-0.094503 0.13778-0.093903 0.10436-0.20132-0.059092-0.22451-0.14434-0.15119-0.26964-0.171-0.34105-0.16162-0.39782-0.16052-0.59118-0.2092-1.1006-0.3345-2.915-0.7904-1.1181-0.31715-0.5195-0.15727-0.9026-0.30183-0.71382-0.28349-0.39838-0.1916-0.2975-0.17947-0.21394-0.17929-0.11606-0.1552-0.045816-0.10483-0.02033-0.086335 0.003469-0.18907 0.035964-0.15433 0.20189-0.57948 0.10151-0.32767 0.066849-0.34315 0.012602-0.16228-0.008373-0.31252-0.01125-0.087865-0.041655-0.20561-0.061893-0.20833-0.088561-0.23469-0.31374-0.73106-0.31799-0.88366-0.2378-0.59092-0.26618-0.58912-0.25032-0.48566-0.42547-0.73273-0.29481-0.46723-0.4713-0.69068-0.20925-0.28618-0.77347-0.97055-1.2025-1.5737-0.37722-0.54219-0.33363-0.55932-0.30458-0.58746-0.28274-0.61003-0.33551-0.7992-0.2263-0.58462-0.66208-1.8076-0.23259-0.61108-0.24728-0.60931-0.26699-0.60246-0.7199-1.4673-0.31069-0.68711-0.21659-0.55239-0.17512-0.54182-0.10366-0.42723-0.007349-0.094626 0.011761-0.019414-0.073654-0.095881-1.0288-1.7631-0.31815-0.50225-0.3418-0.48715-0.36697-0.45149-0.31955-0.33239-0.29086-0.26631-0.30009-0.24737-0.35543-0.26382-0.35937-0.23922-0.35094-0.2086-0.34955-0.18066-0.40876-0.1739-0.39632-0.13576-0.25355-0.0719-0.37398-0.079227-0.14848-0.018303-0.23879-0.004927-0.34048 0.053085-0.16966 0.052758-0.53607 0.21399-0.36776 0.17195-0.33439 0.18906-0.26835 0.17808-0.21229 0.1702-1.0233 0.88153-0.36084 0.2574-0.31963 0.17137-0.35713 0.13696-0.37808 0.11011-1.1907 0.31197-0.36762 0.093189-0.41622 0.089711-0.3725 0.058431-0.27248 0.02652-0.65757 0.016055-0.54608-0.02622-0.55286-0.052907-0.55771-0.071608-1.2376-0.19502-1.7942-0.31213-0.59667-0.094187-1.6291-0.20618-0.5094-0.079126-0.50149-0.11177-0.51844-0.16718-0.34194-0.13707-0.33916-0.15433-0.41199-0.20959-0.40895-0.22986-0.54286-0.33583-0.53836-0.36514-0.42264-0.30879-0.53639-0.41979-0.53347-0.44289-1.0647-0.93718-1.0571-0.97478-2.128-2.0199-0.11541-0.093063-0.011421-0.18376 0.10751-0.28686 0.20312-0.32876 0.2895-0.31882 0.39604-0.29161 0.39487-0.21562 1.5159-0.71222 1.1-0.45714 0.35642-0.1821 0.35328-0.23553 0.1847-0.15855 0.25702-0.26286 0.58067-0.64065 0.096001-0.090923 0.29397-0.24966 0.37905-0.28262 0.34001-0.22574 0.38933-0.22124 0.31469-0.14443 1.2688-0.50828 0.36584-0.17902 0.1492-0.092981 0.17279-0.15108 0.084651-0.12176 0.063078-0.18176 0.013596-0.098478 0.005176-0.24057-0.007025-0.28816-0.018937-0.18182-0.033915-0.16454-0.13346-0.43637-0.077034-0.21505-0.10591-0.21845-0.2574-0.35193-1.1624-1.302-0.2201-0.31903-0.15759-0.33864-0.079909-0.24656-0.068257-0.30565-0.037244-0.35056 0.007309-0.33822 0.033944-0.29288 0.099638-0.49507 0.27888-1.0803 0.061241-0.31955 0.049119-0.42222 0.012353-0.56762-0.028251-0.40016-0.06172-0.40834-0.13945-0.56332-0.13036-0.38101-0.2452-0.55394-0.21896-0.38785-0.29121-0.44352-0.62852-0.89347-0.27798-0.41133-0.27063-0.43109-0.31671-0.57528-0.12783-0.27727-0.10237-0.26403-0.093925-0.32016-0.05149-0.31476-0.007367-0.20963 0.010738-0.19645 0.037527-0.28064 0.13886-0.76273 0.023807-0.27878-0.007678-0.28332-0.035194-0.28296-0.075236-0.34842-0.13164-0.37271-0.084281-0.16992-0.16189-0.26575-0.16932-0.22482-0.1669-0.18304-0.17126-0.15985-0.24999-0.19924-0.39115-0.23295-0.42635-0.15247-0.45027-0.044428-0.32972 0.046437-0.3313 0.10211-0.35936 0.15948-0.34602 0.18999-0.7474 0.47986-0.13515 0.083208-0.084898 0.038113 0.014084-0.068065 0.37138-1.04 0.19606-0.60002 0.18967-0.64212 0.16731-0.65711 0.13101-0.6534 0.080788-0.63615 0.016127-0.58617-0.059995-0.55163-0.15933-0.54627-0.23102-0.50071-0.47688-0.8247-0.18751-0.38533-0.12834-0.37312-0.094243-0.38927-0.25439-1.5197-0.12215-0.46497-0.22164-0.74218-0.067889-0.27092-0.055666-0.28065-0.035652-0.25922-0.020801-0.2722-0.005375-0.40615 0.011535-0.63975-0.007959-0.25196-0.024459-0.25302-0.063289-0.36155-0.20722-0.78202-0.04862-0.33632 0.008382-0.33496 0.084788-0.31878 0.15953-0.27189 0.21929-0.25296 0.25538-0.24182 0.57474-0.5032 0.28315-0.271 0.1836-0.21854 0.16469-0.27456 0.10338-0.30039 0.04892-0.26812 0.023804-0.33909-0.026093-0.43263-0.066879-0.32646-0.053373-0.1676-0.19538-0.40469-0.203-0.28102-0.83872-0.9592-0.31712-0.39079-0.29224-0.40976-0.24846-0.4308-0.19227-0.4435-0.16544-0.45129-0.7334-2.3241-0.13344-0.47942-0.072177-0.32963-0.03838-0.24586-0.037092-0.43478 0.013913-0.43012 0.028166-0.27683 0.18626-1.0142 0.009742-0.1093-0.003981-0.28598-0.079132-0.29064-0.14918-0.2259-0.20309-0.13416-0.1797-0.025996-0.14826 0.01993-0.18936 0.068625-0.5259 0.26986-0.30799 0.14198-0.33549 0.11426-0.38482 0.072607-0.68509 0.057754-0.41061 0.010298-0.83127 8.34e-4 -0.54195-0.034251-0.25892-0.036517-0.33314-0.070406-0.37612-0.11553-0.35941-0.15175-0.23512-0.12553-0.19771-0.12514-0.20555-0.15576-0.19222-0.18631-0.10089-0.13144-0.060509-0.10709-0.049971-0.144-5.01e-4 -0.27627 0.11047-0.28382 0.21594-0.27249 0.36565-0.27722 0.46612-0.23718 0.11166-0.046157 0.22883-0.085413 0.53407-0.1648 0.52628-0.13029 0.38746-0.081414 0.4225-0.074787 0.17998-0.023279 0.074237 0.005102 0.020345-0.11671-0.10124-0.18455-0.19384-0.22756-0.12964-0.12549-0.37857-0.31101-0.37798-0.26655-0.57502-0.36109-1.1303-0.67686-0.38828-0.25891-0.31098-0.23655-0.27999-0.25165-0.24766-0.27764-0.19994-0.30157-0.20801-0.5219-0.10742-0.57163-0.036913-0.60564 0.009441-0.62739 0.048622-0.81314 0.067318-0.82586 0.061898-0.57942 0.18392-1.47 0.044291-0.50217 0.002313-0.4497-0.018961-0.19633-0.02989-0.16163-0.13966-0.36048-0.23394-0.2553-0.2123-0.098939-0.10286-0.025265-0.25355-0.024374-0.40766 0.023371-1.1338 0.16568-0.54844 0.066961-0.74839 0.056091-0.5792 0.013409-0.39404-0.023324-0.44578-0.082231-0.42401-0.13442-0.39482-0.17497-0.15651-0.084594-0.20898-0.13261-0.15153-0.11234-0.17838-0.15309-0.11573-0.11493-0.16379-0.19544-0.14522-0.2352-0.090914-0.25571-0.006583-0.27088 0.077282-0.22992 0.11608-0.15664 0.14361-0.13976 0.1978-0.18494 0.14128-0.11589 0.28402-0.17114 0.8545-0.41237 0.71147-0.30614 0.18324-0.1077 0.17435-0.12818 0.2981-0.28814 0.15651-0.18371 0.21873-0.32858 0.080801-0.15185 0.1101-0.27712 0.064779-0.29029 0.008306-0.29264-0.013544-0.10582-0.060773-0.22018-0.099123-0.20038-0.13308-0.18364-0.061573-0.067998-0.2121-0.18227-0.31965-0.17598-0.36165-0.13714-0.40462-0.12634-0.345-0.09914-0.35947-0.083058-0.43225-0.055943-0.4224-0.016623-0.3525 0.005598-0.34768 0.021841-0.46071 0.05882-0.30234 0.064065-0.19361 0.058187-0.25078 0.11062-0.23814 0.1695-0.20303 0.21884-0.24897 0.35538-0.4952 0.80582-0.32618 0.48188-0.31507 0.38649-0.3752 0.37842-0.23971 0.1968-0.24803 0.16517-0.28548 0.13859-0.29356 0.079565-0.36842 0.006602-0.37357-0.07672-0.37322-0.1393-0.11761-0.054535-0.24076-0.12599-0.37385-0.22707-0.3539-0.24798-0.32342-0.25836-0.55596-0.47604-0.23195-0.17021-0.593-0.39979-0.36447-0.28966-0.11288-0.10267-0.25631-0.2696-0.40335-0.50762-0.23708-0.2492-0.26829-0.2292-0.31324-0.21017-0.40161-0.18113-0.38486-0.084421-0.39951-0.045626-0.41284-0.05801-0.1314-0.028268-0.4741-0.1369-0.8376-0.29178-0.39826-0.097857-0.42313-0.06151-0.43576-0.017225-0.15894 0.006179-0.20934 0.018619-0.27011 0.04139-0.24363 0.054688-0.22932 0.068005-0.27134 0.10566-0.20974 0.11171-0.10583 0.084952-0.028665 0.062928-0.022135 0.029393-0.044243-0.006028-0.078042-0.057507-0.090844-0.102-0.097805-0.1323-0.41617-0.63887-0.14919-0.21167-0.17952-0.21738-0.2959-0.30109-0.064647-0.083917-0.030337-0.065862-0.015285-0.098898 0.025773-0.24201-0.004166-0.12804-0.030944-0.1217-0.2326-0.52873-0.04333-0.13726-0.073604-0.4186-0.053218-0.13393-0.072753-0.13174-0.35835-0.51909-0.096776-0.11702-0.4433-0.4683-0.095586-0.12295-0.21061-0.32993-0.087122-0.094709-0.13456-0.093155-0.16278-0.073862-0.18234-0.058294-0.19238-0.045357-0.19063-0.03412-0.33716-0.039697 0.20221-0.052487 0.088973-0.058677 0.10833-0.09146 0.18189-0.20287 0.16014-0.24283 0.11353-0.23324 0.088448-0.2495 0.22259-0.88816 0.15162-0.50228 0.29445-0.7998 0.17861-0.42565 0.38661-0.83155 0.34949-0.67736 0.38475-0.65542 0.40129-0.58642 0.31475-0.4014 0.30447-0.351 0.56761-0.58235 0.69176-0.63516 1.5844-1.3597 0.47187-0.41987 0.2036-0.20347 0.25018-0.28542 0.30761-0.42824 0.24751-0.44605 0.1766-0.45068 0.063568-0.24494 0.056826-0.30446 0.033375-0.29818 0.046912-1.3511-0.013812-0.2644-0.038353-0.26154-0.073937-0.2747-0.10307-0.27564-0.18447-0.34744-0.2909-0.36558-0.36516-0.34494-0.41924-0.33062-0.45709-0.32175-1.476-0.96008-0.49389-0.33416-0.47981-0.35008-0.31902-0.25501-0.33374-0.29521-0.3817-0.38212-0.47174-0.52623-0.88675-1.0309-0.33292-0.37001-0.3648-0.3689-0.37391-0.31433-0.20901-0.14209-1.0155-0.59895-0.2305-0.15882-0.18108-0.14987-0.25362-0.25327-0.27894-0.34162-0.18198-0.26109-0.17227-0.27442-0.21854-0.38215-0.3282-0.62655-0.51438-1.1166-0.20568-0.40622-0.24282-0.4179-0.19444-0.2887-0.17629-0.23092-0.28422-0.32596-0.34451-0.34139-0.729-0.65515-0.15704-0.16346-0.25916-0.31988-0.12636-0.18877-0.23058-0.42297-0.38642-0.77213-0.43556-0.77832-0.46047-0.74786-0.47164-0.69138-0.18552-0.30776-0.086016-0.17764-0.1201-0.31446-0.076286-0.2664-0.058307-0.27545-0.055202-0.46973-0.004909-0.30923 0.022524-0.30971 0.05194-0.31351 0.073497-0.31353 0.30008-1.1183 0.16737-0.55832 0.12255-0.32885 0.21118-0.4744 0.33074-0.63106 0.16435-0.2746 0.19233-0.286 0.17804-0.21064 0.057762-0.030108-0.084953-0.012906-0.30383 0.02263-1.8112 0.22949-0.61148 0.11292-0.23022 0.057647-0.27778 0.086818-0.5043 0.21913-0.48206 0.2758-0.46651 0.31001-1.047 0.72586-0.38773 0.23335-0.27264 0.14504-0.43288 0.20486-0.41435 0.17508-2.1714 0.82753-0.68768 0.24844-0.4256 0.12812-0.44046 0.094095-0.389 0.040219-0.5472-0.02089-0.5472-0.090889-0.64738-0.16807-0.72889-0.23942-0.73067-0.28004-0.89669-0.39542-0.60796-0.30404-0.81652-0.45949-0.74107-0.46413-0.20665-0.13929-0.23745-0.17966-0.16166-0.14331-0.19208-0.20325-0.18463-0.22817-0.37272-0.49725-0.84318-1.036-0.33292-0.45721-0.11898-0.18477-0.19916-0.34578-0.098436-0.19212-0.18564-0.41107-0.34596-0.82408-0.14674-0.30228-0.16074-0.2787-0.27844-0.39594-0.22711-0.26974-0.19287-0.20057-0.26594-0.23786-0.1984-0.14916-0.25759-0.15758-0.1466-0.070584-0.17924-0.065114-0.21716-0.043151-0.17034-0.00359-0.10594 0.009492-0.25928 0.050532-0.77315 0.23335-0.75655 0.18247-0.3648 0.10489-0.42267 0.13717-0.19573 0.077422-0.24324 0.11691-0.17641 0.099831-0.15148 0.096218-0.25085 0.1818-0.23272 0.19451-0.26904 0.25206-0.61628 0.64315-0.95345 1.0706-0.33428 0.34075-0.18761 0.17116-0.28024 0.22379-0.34525 0.2312-0.28173 0.16487-0.40142 0.2067-0.37003 0.15644-0.20392 0.068024-0.31287 0.073742-0.27728 0.033315-0.52321-0.015471-0.33724-0.050846-0.33804-0.071548-0.51434-0.12889-0.65646-0.18373-0.6341-0.20449-0.26984-0.099476-0.49299-0.22406-0.47824-0.26104-1.517-0.93768-0.3458-0.1668-0.20821-0.064742-0.22512-0.029619-0.22078 0.003157-0.58769 0.053535-0.1882-0.007056-0.27004-0.056454-0.26811-0.10884-0.25591-0.15663-0.23625-0.19688-0.2944-0.29177-0.2119-0.23954-0.25018-0.34101-0.22288-0.37343-0.31872-0.6292-0.16119-0.2917-0.19451-0.30713-0.20101-0.28864-0.61951-0.82578-0.9108-1.1643-0.65498-0.79184-0.43868-0.49642-0.26547-0.2785-0.26262-0.25218-0.27985-0.24295-0.45792-0.37164-1.098-0.80165-1.1647-0.89604-0.35652-0.24187-0.19663-0.11747-0.16444-0.087276-0.31031-0.13776-1.0521-0.38502-0.39273-0.15882-1.0434-0.53079-0.29506-0.10704-0.3057-0.060101-0.23869-0.002985-0.26383 0.048728-0.10688 0.033554-0.28824 0.12453-0.22983 0.13534-0.2314 0.17233-0.1941 0.17719-0.15704 0.1688-0.58478 0.75892-0.14267 0.15495-0.28094 0.22796-0.32084 0.1769-0.34741 0.11748-0.26328 0.041741-0.26522-0.00165-0.2353-0.043715-0.22825-0.088879-0.38435-0.27937-0.35393-0.40762-0.32774-0.50408-0.303-0.57018-0.27646-0.60374-0.24412-0.5976-0.39381-1.0846 0.092871-0.11426 0.29389-0.41135 0.8413-1.2791 0.28122-0.47807 0.18218-0.34654 0.15217-0.32073 0.23542-0.57218 0.38207-1.0634 0.71112-1.827 0.13028-0.40222 0.04964-0.19214 0.042126-0.23556 0.012846-0.14291-0.004718-0.28929-0.020989-0.18471-0.057015-0.30215-0.35505-1.2849-0.1059-0.45428-0.042906-0.23408-0.063864-0.49376-0.11821-1.149-0.096422-1.3691-0.060416-0.57332-0.081844-0.51627-0.30161-1.5531-0.04829-0.31848-0.098743-0.82273-0.043736-0.21092-0.093917-0.29631-0.10681-0.23027-0.12512-0.19895-0.18018-0.20697-0.13674-0.1195-0.1535-0.11295-0.25814-0.1633-0.66361-0.39114-0.308-0.21659-0.30138-0.24799-0.27414-0.28222-0.18829-0.25441-0.16728-0.27782-0.57836-1.1554-0.16773-0.28079-0.14625-0.20864-0.26745-0.33154-0.39435-0.43158-1.2443-1.2466-0.49059-0.47398-0.4488-0.4127-0.45829-0.39275-0.41644-0.32779-0.35813-0.24894-0.06328-0.037706-0.10896-0.039506 0.69454-0.84442 0.37513-0.42734 0.41234-0.4392 0.35075-0.3462 0.36317-0.33097 0.37225-0.30876 0.54741-0.40291 0.42777-0.28661 0.38366-0.24059 0.37506-0.21309 0.36669-0.17622 0.46211-0.15619 0.35586-0.051863 0.17445 0.00131 0.26055 0.031823 0.30847 0.074727 0.86808 0.29044 1.0697 0.28177 0.71825 0.20782 0.43042 0.14116 0.59402 0.23763 1.183 0.50836 0.31217 0.11495 0.3483 0.10071 0.29858 0.057173 0.31646 0.026084 0.23214-0.023267 0.12363-0.0408 0.073539-0.040319 0.15711-0.15505 0.1185-0.21464 0.10808-0.30104 0.20816-0.70135 0.14254-0.36692 0.28235-0.5255 0.66809-1.0901 0.21202-0.38898 0.13345-0.27181 0.13776-0.31945 0.10619-0.29669 0.10443-0.37011 0.070273-0.33413 0.043636-0.28601 0.029242-0.28382 0.020687-0.44484-0.007617-0.52386-0.038819-0.61377-0.063927-0.58468-0.094658-0.57849-0.2703-1.1794-0.10763-0.52095-0.037511-0.24456-0.026356-0.28545-0.003314-0.17339 0.013019-0.19295 0.032111-0.15645 0.076434-0.14468 0.11116-0.030002 0.053728-0.023139 0.13335-0.027093 0.60148-0.075774 0.3395-0.075228 0.99991-0.27356 0.25822-0.05794 0.3134-0.054384 0.31394-0.030508 0.40162 0.002367 0.39909 0.035833 1.0005 0.13082 0.27022 0.01874 0.18929 5.95e-4 0.31427-0.01752 1.264-0.15428 1.2907-0.18082 0.39532-0.076276 1.209-0.27303 0.66964-0.13723 1.2308-0.21882 0.85046-0.12538 0.76919-0.076676 0.96392-0.045827 2.6057-0.078409 1.2858-0.015806 0.3438-0.013492 0.38979-0.048049 0.29642-0.084298 0.16855-0.084399 0.056903-0.076262 0.041927 0.12201 0.2333 0.93267 0.10398 0.3525 0.095226 0.28534" stroke="#bdc660"/>
    </defs>
    <g clip-path="url(#pe9e1e91f78)">
     <use y="280.512" fill="#bdc660" stroke="#bdc660" xlink:href="#m97ff3fd6ee"/>
    </g>
   </g>
  </g>
 </g>
 <defs>
  <clipPath id="pe9e1e91f78">
   <rect x="7.2" y="7.2" width="270.74" height="266.11"/>
  </clipPath>
 </defs>
</svg>
