<?xml version="1.0" encoding="UTF-8"?>
<!DOCTYPE svg  PUBLIC '-//W3C//DTD SVG 1.1//EN'  'http://www.w3.org/Graphics/SVG/1.1/DTD/svg11.dtd'>
<svg width="371.52pt" height="235.86pt" version="1.1" viewBox="0 0 371.52 235.86" xmlns="http://www.w3.org/2000/svg" xmlns:xlink="http://www.w3.org/1999/xlink">
 <metadata>
  <rdf:RDF xmlns:cc="http://creativecommons.org/ns#" xmlns:dc="http://purl.org/dc/elements/1.1/" xmlns:rdf="http://www.w3.org/1999/02/22-rdf-syntax-ns#">
   <cc:Work>
    <dc:type rdf:resource="http://purl.org/dc/dcmitype/StillImage"/>
    <dc:date>2024-07-04T12:10:33.629940</dc:date>
    <dc:format>image/svg+xml</dc:format>
    <dc:creator>
     <cc:Agent>
      <dc:title>Matplotlib v3.7.1, https://matplotlib.org/</dc:title>
     </cc:Agent>
    </dc:creator>
   </cc:Work>
  </rdf:RDF>
 </metadata>
 <defs>
  <style type="text/css">*{stroke-linejoin: round; stroke-linecap: butt}</style>
 </defs>
 <g id="figure_1">
  <g id="patch_1">
   <path d="m0 235.86h371.52v-235.86h-371.52v235.86z" fill="none"/>
  </g>
  <g id="axes_1">
   <g id="PatchCollection_1">
    <defs>
     <path id="m3519ea4cfb" d="m154.07-210.2 0.36393 0.007062 0.44594-0.024601 2.2333-0.25499 1.3112-0.08866 0.44676-0.044321 0.61339-0.096674 0.43928-0.093468 0.44586-0.1135 0.38456-0.12041 0.36238-0.13258 0.54547-0.22334 0.74414-0.33051 0.59265-0.28668 1.0344-0.54969 0.57351-0.2897 0.92231-0.45201 0.6573-0.3011 1.0751-0.43193 2.1279-0.8091 0.86165-0.30908 0.87814-0.29269 0.43237-0.13038 0.62357-0.16488 0.61677-0.13978 0.59374-0.11668 1.013-0.16399 0.46792-0.053186 0.010908 0.15628-0.052921 0.35726-0.11043 0.46954-0.12264 0.40694-0.16798 0.51455-0.19346 0.53464-0.22863 0.53463-0.21668 0.42106-0.24027 0.40805-0.18056 0.28016-0.27309 0.38814-0.28373 0.36825-0.39604 0.46883-0.32976 0.3564-0.32224 0.31912-0.64201 0.60507-0.17394 0.18414-0.13773 0.1696-0.20301 0.32638-0.16672 0.36652-0.13082 0.39102-0.092895 0.4015-0.052842 0.52639 0.031066 0.47159 0.033504 0.18644 0.056321 0.241 0.069673 0.23683 0.39814 1.0999 0.066923 0.2359 0.052426 0.24264 0.039373 0.26566 0.029628 0.47338-0.044808 0.47088-0.04207 0.17199-0.10987 0.30864-0.15485 0.32591-0.16469 0.29566-0.54626 0.89331-0.26197 0.4795-0.085719 0.1937-0.078226 0.23412-0.039346 0.21122 0.002613 0.2953 0.058477 0.29153 0.095187 0.2827 0.26846 0.68944 0.086326 0.25317 0.068276 0.24876 0.050443 0.25495 0.032849 0.29852 0.009245 0.43899-0.029305 0.88113 0.047086 1.0196-0.002094 0.13857-0.025851 0.36976-0.1149 0.98403-0.01395 0.35188 0.012091 0.25295 0.085462 0.79619 0.018431 0.24063 0.00616 0.26398-0.011072 0.21167-0.042292 0.26942-0.11943 0.3708-0.17512 0.35795-0.21295 0.34621-0.56742 0.83164-0.34934 0.56565-0.86702 1.6114-0.26181 0.42037-0.16046 0.2084-0.28695 0.31369-0.32365 0.25637-0.32278 0.16347-0.3452 0.12138-1.379 0.41295-0.15226 0.075636-0.050033 0.061444 0.013339 0.06312 0.13218 0.12213 0.87695 0.6815 1.027 0.8437 1.0751 0.91869 0.60846 0.55142 0.65116 0.62555 0.37951 0.38972 0.48109 0.52514 0.61894 0.71116 0.34604 0.42237 0.23204 0.31436 0.23861 0.35974 0.26481 0.44607 0.23913 0.44451 0.26251 0.52996 0.48262 1.049 0.1722 0.41449 0.1408 0.41493 0.074904 0.29517 0.2529 1.1841 0.12505 0.42345 0.077968 0.22145 0.20731 0.50781 0.1877 0.40816 0.71525 1.4537 0.27032 0.57919 0.23677 0.54823 0.13099 0.33124 0.19819 0.58071 0.10732 0.3837 0.12318 0.5863 0.042639 0.32648 0.016167 0.26355-0.004238 0.2555-0.027311 0.24251-0.053788 0.23072-0.055792 0.15534-0.095962 0.19755-0.16624 0.25622-0.20012 0.24645-0.36894 0.41068-0.19566 0.25104-0.14574 0.23955-0.13023 0.28237-0.072277 0.20735-0.063222 0.24647-0.031891 0.18336-0.026572 0.36984 0.016233 0.35628 0.032433 0.26982 0.058086 0.3089 0.045078 0.16824 0.077416 0.20885 0.10244 0.13599 1.5128-0.81934 1.0404-0.55018 1.1514-0.58009 1.2228-0.57433 0.60964-0.26764 1.035-0.42274 2.2417-0.83654 0.92442-0.36071 0.54765-0.22845 0.70398-0.31133 2.1445-0.98252 1.021-0.49344 0.46995-0.2436 0.42633-0.23984 0.37605-0.24366 0.24393-0.19325 0.19335-0.20112 0.15917-0.29052 0.024354-0.30597-0.03804-0.21534-0.083456-0.25956-0.13101-0.28277-0.22698-0.35781-0.44249-0.62611-0.25676-0.46024-0.30041-0.63301-0.14465-0.33048-0.075723-0.20179-0.078107-0.2607-0.038361-0.17712-0.029036-0.21456-0.005891-0.36555 0.042779-0.33818 0.058704-0.23829 0.089631-0.25336 0.13169-0.27978 0.17992-0.30161 0.14922-0.21077 0.29625-0.35691 0.43673-0.44587 1.7478-1.6444 0.44674-0.39384 1.3636-1.1195 0.48214-0.42253 0.81674-0.77962 0.44101-0.44455 0.423-0.4505 0.26585-0.30008 0.76544-0.92083 0.24683-0.33322 0.063968-0.11277 0.022987-0.066518-0.007437-0.025566-0.04836-0.069994 0.002191-0.067176 0.035944-0.11789 0.068239-0.13159 0.076021-0.11162 0.13155-0.15584 0.16137-0.15649 0.31999-0.24702 0.1948-0.12301 0.3698-0.19531 0.42245-0.18006 0.25298-0.089826 0.52613-0.14625 0.27849-0.055957 0.25623-0.039021 0.36023-0.035528 0.3996-0.016845 0.46458 0.005082 0.45149 0.047419 0.26189 0.056488 0.33915 0.10775 0.37596 0.16504 0.35605 0.20282 0.39815 0.28308 0.2824 0.23684 0.29596 0.27889 1.2942 1.3744 0.16494 0.19928 0.20659 0.2938 0.18927 0.32358 0.23092 0.4785 0.16516 0.4068 0.18426 0.54776 0.15468 0.58204 0.0599 0.33524 0.025557 0.3103-0.021465 0.4537-0.046445 0.45213-0.02038 0.34508-0.039858 1.1531-0.024673 0.24455-0.037645 0.23473-0.21341 0.823-0.038431 0.2405 0.003757 0.22174 0.039259 0.15237 0.029808 0.067915 0.018132 0.033946 0.20615 0.24799 0.2938 0.22446 0.7373 0.45792 0.39414 0.27507 0.43119 0.37234 0.42605 0.42597 0.43254 0.4638 0.38768 0.45545 0.38094 0.48856 0.37505 0.51658 0.36933 0.54085 0.36289 0.56231 0.35463 0.58145 0.34316 0.59813 0.32689 0.61135 0.2916 0.58868 0.27127 0.58335 0.41279 0.94349 0.40478 0.96365-0.036381-0.006347-0.12468 0.025041-0.30432 0.11538-0.25887 0.1452-0.17338 0.13001-0.089758 0.08208-0.14867 0.16831-0.12865 0.19206-0.13863 0.27794-0.12842 0.33698-0.13039 0.40728-0.65557 2.2053-0.16 0.59169-0.096315 0.47646-0.049026 0.4854 2.35e-4 0.41516 0.025657 0.28343 0.030076 0.19906 0.049152 0.23558 0.071855 0.26498 0.17725 0.48556 0.12784 0.2756 0.091917 0.1706 0.23022 0.34914 0.13613 0.1684 0.13807 0.14532 0.23867 0.20663 0.25496 0.18724 1.2795 0.83903 0.44115 0.31415 0.29247 0.22648 0.31389 0.26957 0.27694 0.27011 0.32045 0.35921 0.19971 0.25048 0.19158 0.25891 0.38503 0.56861 1.2372 1.9861 0.69952 1.2104 1.0688 1.9493 0.085602-0.19484 0.12547-0.15167 0.085364-0.035197 0.089514 0.040633 0.05584 0.09762 0.030195 0.10371 0.031393 0.20806 0.01931 0.39564-0.005549 0.33531-0.019162 0.26886-0.048733 0.39456-0.22541 1.2237-0.039196 0.51006 0.031688 0.46675 0.1094 0.54419 0.14153 0.4553 0.17827 0.44998 0.25879 0.53907 0.21181 0.38361 0.55984 0.94365 0.19742 0.36605 0.31724 0.64128 0.25554 0.61503 0.18073 0.53293 0.12314 0.44999 0.29706 1.2372 0.15287 0.52092 0.11321 0.30645 0.21596 0.46316 0.1887 0.31226 0.18156 0.23399 0.18741 0.18004 0.1376 0.0947 0.22528 0.091051 0.21558 0.020605 0.22697-0.030122 0.29703-0.099735 0.23554-0.11678 0.39426-0.24502 0.23558-0.16666 0.23956-0.17987 1.4537-1.1615 0.49312-0.38179 0.4096-0.2861 0.24842-0.14984 0.26571-0.13909 0.27446-0.12041 0.28251-0.097663 0.34074-0.076566 0.262-0.020217 0.2084 0.01529 0.15793 0.035788 0.16335 0.064723 0.12402 0.068294 0.23714 0.17199 0.26415 0.24385 0.47188 0.48756 0.24066 0.225 0.22244 0.18432 0.24476 0.17154 0.19086 0.11379 0.25229 0.12993 1.6861 0.74039 0.59165 0.28883 0.3871 0.20683 0.76132 0.44819 0.45912 0.2964 0.44178 0.32175 0.16797 0.13916 0.022404 0.033111 0.020659-0.030781 0.050054-0.018289 0.12278-0.007477 0.19282 0.026657 0.31796 0.10149 0.94727 0.42626 0.22446 0.07183 0.12026 0.022903 0.12063 0.010295 0.13852-0.004562 0.13804-0.020273 0.24023-0.066376 0.35827-0.15207 0.30611-0.16472 0.76522-0.46347 0.28186-0.13532 0.26968-0.097929 0.1481-0.041721 0.22232-0.044111 0.25744-0.020654 0.2957 0.004883 0.82958 0.081382 0.29409-0.008771 0.15279-0.019702 0.30107-0.069228 0.21075-0.069391 0.7622-0.30154 0.3245-0.098031 0.34263-0.073195 0.19966-0.030614 0.38494-0.037401 0.42007-0.01139 0.23853 0.005433 0.63589 0.05159 0.41733 0.066617 0.20454 0.04521 0.34693 0.10609-0.032033 0.012963-0.065077 0.059135-0.12566 0.14016-0.19966 0.26457-0.11888 0.18078-0.14058 0.24165-0.098132 0.19563-0.12598 0.30488-0.1089 0.34526-0.058792 0.24314-0.050415 0.27501-0.026709 0.23162-0.00617 0.1809 0.024613 0.28368 0.049895 0.21618 0.068697 0.1907 0.073225 0.15348 0.11999 0.20353 0.69716 1.0417 0.31331 0.44166 0.33194 0.42552 0.35097 0.38371 0.16224 0.14918 0.25716 0.19445 0.26718 0.14787 0.33559 0.10385 0.34516 0.006795 0.11555-0.017666 0.30992-0.091187 0.24035-0.11204 0.22841-0.14016 0.64019-0.50599 0.50967-0.35834 0.5366-0.32215 0.33595-0.17114 0.46076-0.18783 0.19134-0.060306 0.28042-0.066236 0.14334-0.01885 0.12369-0.00205 0.10075 0.014185 0.10926 0.041097 0.12348 0.093747 0.089536 0.12618 0.064981 0.18074 0.09531 0.44388 0.051345 0.17157 0.215 0.60605 0.11206 0.36078 0.084429 0.36351 0.051562 0.38498 0.008364 0.20965-0.023856 0.4005-0.043541 0.38426-0.010452 0.30676 0.013255 0.11467 0.036803 0.13167 0.059282 0.11514 0.19589 0.21431 0.10396 0.07606 0.20469 0.11404 0.2571 0.099637 0.39989 0.086436 0.80412 0.084255 0.33971 0.062662 0.17985 0.06951 0.094891 0.063952 0.092825 0.13144 0.017687 0.062114 0.006352 0.12864-0.022989 0.1424-0.1664 0.44366-0.083335 0.27837-0.030094 0.144-0.016536 0.23044 0.010748 0.14017 0.032647 0.15864 0.049144 0.14099 0.054758 0.11072 0.058925 0.090825 0.25834 0.25426 0.34617 0.22406 0.40606 0.20635 0.39246 0.1547 0.42556 0.13646 0.54839 0.15249 0.83482 0.18806 0.52949 0.076958 0.21308 0.012357 0.29452 6.91e-4 0.62188-0.04479 0.44892-0.060349 0.79562-0.149 1.2013-0.25877 0.73335-0.14395 0.72431-0.11703 1.7163-0.21936 0.39269-0.07057 0.16963-0.04135 0.09554-0.041994-0.010442 0.06608 0.036708 0.16312 0.071855 0.23203 0.1004 0.28262 0.2221 0.55238 0.20341 0.45147 0.23406 0.47419 0.68 1.26 0.26254 0.52826 0.20932 0.49266 0.14048 0.4053 0.091555 0.33032 0.066787 0.31501 0.053398 0.43671 0.001499 0.66246 0.009429 0.16119 0.021533 0.13673 0.042074 0.14949 0.050115 0.13046 0.21336 0.46787 0.46086 1.2097 0.10845 0.29161 0.11967 0.41985 0.081041 0.44535 0.034767 0.46252-0.015045 0.4387-0.056535 0.44168-0.092969 0.43937-0.12619 0.4319-0.72554 1.9685-0.13786 0.39889-0.12915 0.41978-0.28543 1.0842-0.35709 1.5417-0.14542 0.48344-0.31667 0.82792-0.09127 0.28099-0.51784 1.9746-0.16645 0.59069-0.18297 0.58897-0.17421 0.48787-0.22802 0.52963-0.22377 0.41006-0.3357 0.47068-1.1762 1.3641-0.37936 0.48976-0.35251 0.5082-0.31237 0.52519-0.25437 0.54126-0.17262 0.55667-0.060394 0.57128 0.036656 0.38988 0.088848 0.37798 0.13346 0.37967 0.15479 0.346 0.18114 0.34264 0.33397 0.53523 0.33953 0.46566 0.46452 0.55113 0.20734 0.2211 0.27927 0.26919 0.10536-0.014374 0.35228 0.081283 1.7737 0.52447 0.68585 0.17947 0.69688 0.15121 0.69828 0.1073 0.63929 0.046041 0.51958-0.006545 0.35739-0.025028 0.35516-0.03828 0.75411-0.11342 2.3076-0.43086 2.0533-0.31665 0.6155-0.10386 0.523-0.10188 0.4808-0.10678 0.82862-0.21354 1.4544-0.43248 1.6655-0.46532 0.98436-0.24178 0.60401-0.11872 0.40148-0.060424 0.53958-0.06249 0.85464-0.11678 2.9142-0.46059 1.6485-0.22538 0.94538-0.10846 0.88006-0.079659 0.92992-0.047409 0.49888-0.003454 0.58305 0.021594 0.33935 0.028674 0.33551 0.043491 0.42076 0.079619 0.41165 0.10301 0.39671 0.1202 0.62647 0.23086 0.4661 0.21882 0.27193 0.1658 0.15637 0.11793 0.20971 0.1994 0.11975 0.14702 0.16827 0.28103 0.11956 0.29389 0.079677 0.28964 0.0317 0.16451 0.031311 0.25638 0.00822 0.21139-0.008528 0.18066-0.019024 0.12445-0.048881 0.10463 0.7359 0.056469 0.58019 0.007857 0.35279-0.023823 0.78995-0.095266 0.44668-0.014114 0.35388 0.0234 1.2196 0.13234 0.36021 0.017982 0.24853-0.003954 0.25172-0.023246 0.33696-0.075492 0.20595-0.077761 0.095728-0.048429 0.15363-0.10543 0.091193 0.14064 0.63718 0.76689 0.2968 0.40724 0.14853 0.23738 0.099434 0.18229 0.1348 0.29978 0.12806 0.36683 0.10522 0.3859 0.079539 0.35473 0.33351 1.7946 0.18923 0.831 0.16303 0.62212 0.17762 0.61645 0.29479 0.92566 0.37986 1.0627 0.23731 0.59687 0.1894 0.4403 0.19929 0.43456 0.28981 0.59036 0.30368 0.58166 0.31498 0.57362 0.32816 0.56495 0.55858 0.88243 0.43682 0.63344 1.3837 1.9368 0.60339 0.83375 0.65428 0.87184 2.7464 3.5126 0.67288 0.87649 0.28257 0.38805 0.25362 0.37412 0.22987 0.38705 0.16381 0.36124 0.072655 0.30991-0.031529 0.27366-0.11547 0.18908-0.18633 0.16388-0.18194 0.11044-0.21018 0.098741-0.24524 0.091827-0.26635 0.080719-0.55702 0.12603-0.54774 0.085823-1.2774 0.14674-0.58452 0.087453-0.26665 0.057844-0.24399 0.071931-0.32703 0.15237-0.14359 0.11168-0.1769 0.25563-0.076651 0.30583 0.017586 0.33263 0.11154 0.33777 0.10798 0.19124 0.23033 0.30733 0.30752 0.34461 0.71363 0.76598 0.41674 0.49063 0.26841 0.37473 0.25056 0.42171 0.11966 0.23776 0.12907 0.30377 0.061902 0.17822 0.071557 0.2664 0.062634 0.36839 0.078422 0.74975 0.055474 0.27226 0.049088 0.15311 0.095676 0.21149 0.11524 0.1808 0.13224 0.15348 0.15876 0.13556 0.19664 0.11052 0.20548 0.05856 0.09768 0.014322 0.14237 0.010679 0.2732-0.0011 1.8542-0.1137 0.4384-0.012509 0.22824 0.005666 0.42557 0.041235 0.23068 0.045906 0.23663 0.073582 0.39964 0.21065 0.31348 0.24655 0.14942 0.14356 0.22347 0.24533 0.24077 0.30276 0.20065 0.28734 0.20371 0.33477 0.22038 0.43366 0.16894 0.42201 0.10243 0.33721 0.065166 0.30516 0.026387 0.19913 0.013402 0.24308-0.003032 0.21284-0.01252 0.18622-0.047426 0.35158-0.15319 0.77984-0.036979 0.16051-0.062622 0.19479-0.081917 0.17014-0.069794 0.1068-0.12162 0.14718-0.15909 0.15307-0.2522 0.19068-0.34469 0.20088-1.2218 0.58797-0.26025 0.13452-0.23943 0.14306-0.20403 0.14754-0.15816 0.14002-0.12152 0.13092-0.12294 0.16682-0.094674 0.17039-0.062319 0.15429-0.04669 0.16429-0.033702 0.19851-0.011047 0.21182 0.029625 0.31894 0.077908 0.31074 0.14108 0.35695 0.095759 0.19374 0.16695 0.29254 0.33072 0.48876 0.33576 0.42675 0.3138 0.35622 0.22175 0.22654 0.23121 0.21642 0.28788 0.24526 0.29693 0.22685 0.49387 0.32006 0.42124 0.21568 0.24402 0.098505 0.19086 0.062237 0.17648 0.044024 0.22956 0.033929 0.19328 0.005446 0.18248-0.015534 0.23721-0.050733 0.20272-0.070476 0.25327-0.12289 0.30134-0.19781 0.23838-0.19884 0.21512-0.21517 0.20947-0.24866 0.13916-0.19183 0.16396-0.25774 0.12871-0.2276 0.38883-0.7604 0.21048-0.35202 0.11682-0.15972 0.13891-0.16616 0.17195-0.18049 0.21994-0.20124 0.23785-0.18871 0.23721-0.16397 0.42548-0.24563 0.26239-0.12268 0.2294-0.089802 0.27059-0.085257 0.31622-0.071378 0.29483-0.039035 0.31925-0.011927 0.29886 0.020075 0.20144 0.03485 0.26287 0.068682 0.48245 0.16529 0.90168 0.33505 1.5045 0.59809 0.52756 0.16047 0.38706 0.083655 0.50459 0.074279 1.4194 0.12294 1.5865 0.17407 0.56095 0.051867 0.36479 0.020177 0.4625-0.004572 0.33142-0.029157 0.24425-0.036481 0.245-0.050386 0.33403-0.090683 0.25303-0.085689 0.26523-0.10715 0.26809-0.12974 0.2827-0.16492 0.18016-0.12344 0.2424-0.1921 0.18472-0.17026 0.19974-0.21115 0.22278-0.27162 0.19086-0.26914 0.20325-0.33034 0.16897-0.31627 0.17411-0.37853 0.043458-0.12836 0.16815 0.067157 0.35277 0.19369 0.23098 0.14679 0.23994 0.17208 0.23828 0.19677 0.17814 0.17003 0.35289 0.41962 0.27163 0.46509 0.13973 0.38924 0.068565 0.41624 0.011752 0.26753-0.023251 0.48259-0.063934 0.47498-0.076412 0.40341-0.37841 1.6224-0.10174 0.5246-0.27037 1.6141-0.11592 0.58764-0.12753 0.53248-0.1346 0.46026-0.21442 0.59002-0.20842 0.47432-0.22614 0.45507-0.49782 0.92182-0.15732 0.31125-0.11162 0.24302-0.13569 0.3393-0.11514 0.34513-0.10582 0.39626-0.085596 0.43536-0.055541 0.49821-0.0029 0.48367 0.013315 0.17311 0.041853 0.29267 0.1107 0.43673 0.10332 0.27904 0.094325 0.20694 0.14556 0.2699 0.20565 0.32038 0.22871 0.30186 0.13209 0.15464 0.18544 0.1969 0.2052 0.19494 0.21121 0.17915 0.23484 0.17729 0.2554 0.16955 0.23898 0.13883 0.61101 0.30531 0.32573 0.17749 0.1041 0.072176 0.10298 0.089078 0.10714 0.12831 0.067605 0.11556 0.05417 0.13242 0.039362 0.15243 0.019461 0.21826-0.0236 0.21761-0.066624 0.21153-0.072466 0.1477-0.1103 0.16432-0.061138 0.071848-0.1804 0.1643-0.202 0.13592-0.36741 0.18316-0.40701 0.15256-0.42072 0.12822-0.44823 0.11155-0.34265 0.069135-0.44282 0.072459-0.84703 0.10037-1.4823 0.11894-1.5841 0.096213-0.7247 0.067671-0.38794 0.050795-0.72549 0.12559-0.70467 0.15374-0.41286 0.10252-0.52797 0.14874-0.32156 0.10234-0.64556 0.23525-0.44674 0.18707-0.41111 0.19212-0.41349 0.21733-0.38476 0.23148-0.35523 0.25061-0.35592 0.30542-0.24557 0.25867-0.21984 0.2739-0.24326 0.36018-0.17916 0.31334-0.1459 0.29519-0.16324 0.40465-0.035425 0.17919-2.3219 0.82129-1.4096 0.46837-0.76388 0.22329-1.1124 0.30066-1.0663 0.24706-0.81398 0.14734-0.73276 0.10889-0.87513 0.10836-0.63839 0.058897-0.62466 0.037772-0.75298 0.016289-0.68704-0.016058-0.5119-0.037829-0.53852-0.075341-0.47279-0.1117-0.38915-0.13732-0.32947-0.15011-0.23174-0.12373-0.4003-0.24669-3.4943-2.455-0.3683-0.24047-0.42676-0.25488-0.4191-0.22263-0.39867-0.18374-0.30175-0.11875-0.20162-0.068076-0.37033-0.10428-0.60339-0.15777-0.20075-0.067387-0.077484-0.047688 0.013326-0.039606 0.02878-0.03381 0.12321-0.11391 0.77218-0.62182 0.34954-0.31335 0.23398-0.2601 0.10322-0.14721 0.06757-0.12262 0.06095-0.16626 0.020017-0.12462-0.052431-0.31045-0.11642-0.20228-0.25125-0.26086-0.25068-0.18708-0.3045-0.18726-0.25995-0.14242-1.8491-0.91391-1.2217-0.62649-2.8208-1.4807-1.0494-0.57318-0.94764-0.55342-0.44189-0.28561-0.39387-0.28319-0.29267-0.23276-0.27512-0.23592-0.53929-0.50742-0.51339-0.53658-0.54865-0.62934-0.29766-0.36438-0.41559-0.53556-1.034-1.3999-0.396-0.51492-0.53089-0.63182-0.29409-0.31918-0.23127-0.23556-0.32292-0.3049-1.0174-0.88728-0.51583-0.49764-0.36614-0.40827-0.16983-0.21619-0.38382-0.53892-0.34379-0.45467-0.31584-0.36955-0.33812-0.34525-0.3612-0.31062-0.38632-0.2635-0.37375-0.19295-0.29084-0.12625-0.48333-0.17464-0.34158-0.10072-0.42073-0.10311-0.28414-0.058028-0.49337-0.068646-0.32786-0.017021-0.48718 0.022014-0.67728 0.09412-0.49612 0.10828-2.767 0.73536-0.89113 0.21467-0.72515 0.15477-0.46219 0.11218-0.63985 0.19429-0.50858 0.21607-0.39588 0.2342-0.32342 0.24021-0.29234 0.25904-0.55769 0.56767-0.38298 0.33648-0.74691 0.5923-1.1424 0.93412-0.40899 0.31349-0.56229 0.39746-0.39831 0.261-0.41578 0.25541-0.50624 0.28421-0.30064 0.15095-0.30146 0.13555-0.49202 0.18049-0.36533 0.092851-0.36548 0.048329-0.48078-0.0107-0.48744-0.068151-2.1692-0.38003-2.3301-0.44061-0.57186-0.12178-0.32766-0.085127-0.52456-0.17466-0.41735-0.17057-0.67378-0.30539-0.27354-0.13469-0.31873-0.17442-0.44282-0.28527-0.48822-0.34185-0.25555-0.18966-0.41809-0.3406-0.22234-0.20642-0.20378-0.21569-0.19786-0.24992-0.16463-0.26202-0.1264-0.27374-0.08333-0.28159-0.035769-0.43133 0.085952-0.45496 0.15442-0.34178 0.26066-0.36639 0.28694-0.30368 0.58697-0.55335 0.30276-0.34067 0.24075-0.38087 0.12573-0.34203 0.040031-0.35597-0.022201-0.21684-0.056293-0.209-0.098495-0.21692-0.13266-0.19918-0.25894-0.2598-0.32062-0.19343-0.28085-0.088678-0.30126-0.033094-0.37905 0.021063-0.46732 0.083608-1.1839 0.29646-0.32833 0.058694-0.48928 0.041975-0.56565-0.020993-0.39279-0.058716-0.37958-0.096405-0.49362-0.20384-0.4181-0.28425-0.33488-0.37392-0.20877-0.40901-0.099954-0.41076-0.01785-0.23848 0.016664-0.3347 0.05687-0.34984 0.14874-0.62477 0.036616-0.20616-0.063334-0.16571-0.16026-0.34191-0.13764-0.26035-0.16335-0.27122-0.14385-0.20696-0.16078-0.1996-0.19618-0.20527-0.26797-0.23367-0.41649-0.3016-0.59086-0.36282-1.2267-0.69343-0.48693-0.31821-0.16272-0.12272-0.15291-0.1286-0.18124-0.17755-0.15889-0.18989-0.14176-0.21646-0.11093-0.22838-0.075483-0.22816-0.043821-0.23428-0.007418-0.30822 0.047841-0.31466 0.057288-0.20748 0.072976-0.20466 0.51542-1.1244 0.095836-0.25904 0.061871-0.25683 0.011784-0.12666-0.005615-0.24212-0.025058-0.31821 0.001555-0.1249 0.038184-0.18182 0.075834-0.14716 0.16081-0.19114 0.4246-0.37637 0.11486-0.1191 0.083098-0.12255 0.033278-0.12398-0.019013-0.10432-0.075676-0.14083-0.38008-0.49273-0.13507-0.2013-0.12584-0.22259-0.11077-0.24547-0.087059-0.26095-0.051813-0.23343-0.029144-0.23588-0.002534-0.3459 0.038188-0.31026 0.052493-0.20307 0.050001-0.1121 0.027509-0.031094 0.02003-0.005783-0.042462-0.011017-0.23594 0.021816-0.57168 0.10855-0.77005 0.19959-0.72585 0.21639-0.64618 0.22392-0.5367 0.21939-0.34537 0.16219-0.42961 0.23214-0.37956 0.24159-0.27919 0.20455-0.24499 0.1987-0.98653 0.84604-0.28423 0.22245-0.25139 0.17758-0.45004 0.28441-0.33792 0.18928-0.38434 0.18727-0.84737 0.38638-0.2883 0.14762-0.2494 0.1429-0.64273 0.41938-1.0014 0.73811-0.22718 0.1555-0.44928 0.27815-0.54397 0.28734-0.32283 0.14908-1.101 0.46305-1.1725 0.52916-0.62602 0.33056-0.60731 0.3579-0.42623 0.28662-0.35997 0.28177-0.33539 0.29846-0.95044 0.89735-0.89155 0.78362-0.2953 0.24739-1.1904 0.9503-0.30371 0.21127-0.23498 0.12616-0.20272 0.074558-0.1451 0.032528-0.11052 0.013503-0.19091 0.002748-0.22563-0.026633-0.33183-0.083816-1.0694-0.39429-0.41225-0.13071-0.53032-0.1321-0.63017-0.13303-0.51438-0.145-0.20476-0.076323-0.186-0.092961-0.12694-0.085667-0.11714-0.1072-0.093449-0.11895-0.053897-0.093498-0.050448-0.12257-0.030022-0.11632-0.016693-0.12795-0.003604-0.19906 0.049209-0.5411-0.002531-0.27342-0.049012-0.25079-0.087134-0.24549-0.1002-0.21564-0.10943-0.20413-0.63996-1.0449-0.24065-0.34227-0.68565-0.88442-0.17337-0.25354-0.14255-0.25133-0.076783-0.16702-0.12872-0.38018-0.059172-0.24496-0.098265-0.5697-0.044183-0.20242-0.057767-0.14626-0.043534-0.068476-0.091147-0.091665-0.089875-0.055225-0.1915-0.062885-0.1576-0.021932-0.18843-0.006729-0.23646 0.007471-0.81112 0.045858-0.39799 0.005226-0.5943-0.028333-0.62333-0.082499-0.35798-0.068814-0.46514-0.11506-0.33734-0.10634-0.49308-0.19641-0.53284-0.25894-0.48347-0.27577-0.31581-0.20331-0.39933-0.28658-0.43676-0.36729-0.34213-0.34379-0.15858-0.18527-0.16217-0.21858-0.17574-0.28808-0.1474-0.2935-0.29658-0.66446-0.16719-0.31195-0.19629-0.31522-0.18807-0.26868-0.2062-0.2673-0.30824-0.3576-0.29992-0.3069-0.41634-0.36832-0.31815-0.23921-0.39431-0.25051-0.30977-0.16412-0.32034-0.14093-0.39985-0.1376-0.40316-0.10364-0.52321-0.092011-0.29632-0.033056-0.26961-0.01812-0.32667-0.002861-0.15292 0.013367-0.06141 0.025146-0.24425 0.081121-0.5927 0.24259-0.54059 0.24164-1.0678 0.50682-0.99364 0.51917-0.80929 0.47284-0.45514 0.29404-0.41694 0.29511-0.352 0.2747-0.26422 0.22688-0.2876 0.27479-0.15646 0.16647-0.14769 0.17286-0.14589 0.19303-0.12374 0.19157-0.24594 0.53212-0.16109 0.57537-0.099595 0.60516-0.055398 0.62456-0.023621 0.63575-4.19e-4 0.64014 0.017265 0.63839 0.031896 0.63052 0.04557 0.61588 0.060164 0.5932 0.11509 0.89065 0.041822 0.40669 0.046828 0.68842 0.059329 0.30907 0.058218 0.16346 0.073997 0.14928 0.084303 0.12948 0.081409 0.099215 0.15593 0.14411 0.1415 0.098268 0.14326 0.080473 0.19442 0.089293 0.3654 0.1244 0.19522 0.045539 0.26226 0.041146 0.49887 0.028945 0.55318-0.018597 1.8081-0.16958 0.54908-0.019788 0.4541 0.0154 0.43884 0.055228 0.25096 0.055888 0.30072 0.096653 0.20512 0.088106 0.23438 0.1262 0.28905 0.1967 0.25415 0.21395 0.2845 0.2902 0.26189 0.32108 0.23953 0.343 0.25241 0.41504 0.1826 0.33661 0.23412 0.47572 0.27357 0.61621 0.23202 0.59543 0.16386 0.52035 0.12244 0.51166 0.057818 0.315 0.064201 0.51215 0.020192 0.4103-0.014477 0.37146-0.046377 0.33867-0.10687 0.47627-0.14004 0.46588-0.12204 0.321-0.11991 0.26036-0.15495 0.27837-0.12734 0.19454-0.18204 0.24244-0.21657 0.24798-0.19873 0.2011-0.24203 0.22013-0.75749 0.61843-0.8843 0.66302-0.65654 0.44594-1.2218 0.76753-0.5107 0.35082-0.6639 0.50608-1.3554 1.0968-1.2688 0.94347-0.52037 0.43108-0.61473 0.56218-0.67998 0.65135-1.1259 1.1253-0.56793 0.61195-1.2065 1.369-0.36959 0.45012-0.35801 0.48079-0.27225 0.42818-0.21829 0.42625-0.17383 0.45488-0.2787 0.92704-0.10442 0.26435-0.11831 0.24036-0.18866 0.30732-0.13947 0.18746-0.10378 0.11887-0.1862 0.16279-0.087553 0.041654-0.054233-9e-6 -0.021659-0.078296-0.16627-0.33837-0.18405-0.33-0.39966-0.63223-0.44499-0.58993-0.40773-0.46812-0.27745-0.28963-0.42456-0.40575-0.41589-0.3581-0.38823-0.30084-0.42786-0.29344-0.50909-0.29102-0.4153-0.17868-0.3298-0.094303-0.14579-0.025506-0.29614-0.017471-0.32908 0.038629-0.10932 0.027895-0.26253 0.10125-0.22296 0.1268-0.12811 0.092158-0.20969 0.18742-0.81748 0.92865-0.40216 0.39006-0.301 0.26129-0.45406 0.3558-0.48321 0.34011-0.59371 0.36972-0.20288 0.11014-0.3527 0.16974-0.4252 0.17971-0.32385 0.11659-0.22474 0.066295-0.26548 0.060174-0.21852 0.033901-0.24509 0.019164-0.19653-4.88e-4 -0.24216-0.020801-0.39849-0.078106-0.37892-0.10705-0.29904-0.098215-0.27932-0.1121-0.13728-0.066462-0.19995-0.11099-0.18986-0.13145-0.15393-0.15287-0.12226-0.20237-0.090911-0.23574-0.10957-0.38037-0.14838-0.66194-0.1059-0.36731-0.2021-0.40085-0.31493-0.40123-0.40435-0.37773-0.47732-0.34889-0.53848-0.31162-0.29019-0.13852-0.26049-0.10852-0.55372-0.18716-0.64984-0.15354-0.66761-0.085476-0.37036-0.013639-0.36792 0.012978-0.38529 0.045395-0.29434 0.058795-0.28751 0.076654-0.46147 0.15893-0.41032 0.178-0.32186 0.17153-0.11992 0.082837-0.02918 0.045138-0.11645 0.041374-0.17439 0.13807-0.37709 0.36514-0.4271 0.46219-1.4295 1.6489-0.56721 0.63322-0.53775 0.56309-0.52586 0.503-0.32322 0.28262-0.32969 0.27028-0.60428 0.4599-0.71792 0.50914-1.2634 0.84712-3.164 2.0747-0.83375 0.51298-0.94335 0.52827-0.71563 0.3573-0.48056 0.21576-0.70577 0.28698-1.7824 0.68003-0.78851 0.33035-0.62363 0.30283-0.37515 0.20892-0.36659 0.22412-0.75241 0.51195-2.0985 1.5649-0.33748 0.23553-0.45219 0.2856-0.32377 0.17099-0.3161 0.12624-0.31092 0.069322-0.29988-0.003741-0.25117-0.071921-0.24353-0.12814-0.15732-0.10972-0.14914-0.12099-0.18784-0.1728-0.3561-0.37841-0.30126-0.36086-0.28985-0.37261-2.0042-2.7128-0.86963-1.1239-0.51258-0.62117-0.46634-0.52746-0.24624-0.26023-0.69042-0.6778-0.22155-0.25441-0.20131-0.27656-0.13522-0.21897-0.14424-0.26201-0.2143-0.47576-0.1464-0.44354-0.15258-0.64307-0.091096-0.51582-0.074338-0.52965-0.094161-0.89194-0.083223-1.1935-0.049538-1.1771-0.008877-0.70496 0.02478-0.70548 0.031336-0.29854 0.038227-0.2331 0.063938-0.27071 0.050667-0.1649 0.19066-0.47183 0.21444-0.41811 0.81873-1.4046 0.23484-0.47966 0.079649-0.21128 0.067358-0.2639 0.015206-0.18452-0.01983-0.16613-0.16249-0.31889-0.29182-0.27015-0.3812-0.22134-0.43827-0.16818-0.46845-0.10635-0.47256-0.042622-0.46182-0.018966-0.43388-0.044112-0.38758-0.11962-0.17517-0.10552-0.14204-0.1145-0.14478-0.1408-0.21596-0.2428-0.49004-0.59498-0.2783-0.29394-0.22907-0.19631-0.30728-0.20506-1.0183-0.53976-0.89334-0.55707-0.23985-0.13946-0.32739-0.16495-0.4422-0.17728-1.2323-0.39926-0.41832-0.15486-0.94816-0.38398-0.40871-0.13556-0.41962-0.070283-0.34177 0.01032-0.2681 0.041558-0.24962 0.056999-0.3641 0.1028-0.66732 0.2118-0.26447 0.075751-0.28848 0.066462-0.37335 0.049892-0.38018 0.001229-0.29033-0.024543-0.59174-0.092294-1.6678-0.34522-0.7792-0.12725-1.8476-0.26754-0.7749-0.14272-0.66874-0.16644-0.54272-0.18674-0.21708-0.094364-0.24616-0.12472-0.36187-0.2212-0.39522-0.3051-0.23874-0.227-0.2567-0.28102-0.37851-0.46814-0.49431-0.64745-0.833-1.0349-0.59746-0.76174-0.63354-0.886-0.56034-0.8351-2.6178-4.0782-0.17952-0.26802-0.039585-0.042811 1.2162-1.1345 1.437-1.251 1.6068-1.4624 0.48732-0.4037 1.2582-0.97367 0.42878-0.38144 0.23132-0.25213 0.10877-0.13741 0.17714-0.25082 0.17455-0.28844 0.093793-0.18156 0.13746-0.32017 0.089302-0.27302 0.026315-0.12841-0.080041-0.05676-0.13005-0.15447-0.24771-0.36085-0.24149-0.42238-0.13691-0.27964-0.12435-0.29194-0.1277-0.36456-0.094509-0.36904-0.068406-0.47331-0.033853-0.58811-0.005256-0.68388 0.038691-0.55509 0.048197-0.3109 0.31014-1.5851 0.062841-0.46821 0.018347-0.47815-0.033818-0.4739-0.034222-0.21162-0.12741-0.47073-0.18099-0.45641-0.21579-0.44183-0.1293-0.23605-0.25013-0.39261-0.2634-0.3506-0.28495-0.33001-0.2934-0.29715-0.30576-0.26772-0.325-0.23705-0.33533-0.18783-0.29533-0.1171-0.35128-0.0983-0.32769-0.052492-0.65303-0.066778-0.39768-0.079585-0.16124-0.055464-0.2697-0.13676-0.25915-0.18333-0.22758-0.20134-0.21967-0.22911-0.29557-0.35991-0.17945-0.24405-0.21557-0.31638-0.22042-0.34984-0.23477-0.39857-0.42872-0.77929-1.319-2.5515-0.46947-0.87418-0.83182-1.4624-1.159-1.9377-0.4349-0.80174-0.30213-0.64033-0.27852-0.70926-0.4947-1.4319-1.0082-2.8041-0.27936-0.81223-0.64612-1.9646-0.30893-0.86822-0.39454-1.0028-0.25872-0.59673-0.1669-0.35088-0.17995-0.34429-0.33314-0.55681-0.36103-0.53798-0.72882-1.0266-0.32543-0.48034-0.49868-0.79115-0.12792-0.17031-0.095281-0.08612-0.051894-9.26e-4 -0.070818 9.72e-4 -0.16482 0.036235-0.56753 0.17518-0.36922 0.14105-0.28536 0.12421-0.28144 0.13877-0.27174 0.15425-0.31012 0.20589-0.58549 0.42911-0.29173 0.19526-0.30276 0.16374-0.30928 0.1184-0.3233 0.085585-0.33312 0.061542-0.33958 0.04472-1.5037 0.12638-0.67822 0.081673-0.3239 0.061219-0.30868 0.082332-0.19116 0.068763-0.18077 0.083628-0.21843 0.13559-0.19528 0.16382-0.21639 0.24416-1.1872 1.5633-0.86176 1.0907-0.51517 0.58815-0.41016 0.40326-0.21201 0.18141-0.21606 0.16527-0.25234 0.1709-0.3248 0.19429-0.41701 0.21641-0.38648 0.17329-0.55473 0.2132-0.45033 0.14545-0.48566 0.13416-0.85267 0.21225 0.031118-0.19128-0.11577-0.37651-0.23755-0.46955-0.26756-0.39547-0.31951-0.4016-1.0034-1.1389-0.34082-0.41392-0.41456-0.57976-0.18275-0.29518-0.23979-0.44568-0.11411-0.25088-0.12288-0.30835-0.31936-0.89925-0.17066-0.44721-0.24086-0.53354-0.15118-0.28461-0.30346-0.48492-0.19014-0.26274-0.45181-0.5862-0.1016-0.14314-0.18605-0.297-0.16217-0.32311-0.095203-0.2465-0.080897-0.2821-0.05411-0.33761-0.006029-0.19482 0.011396-0.15696 0.021798-0.12679 0.093156-0.28282 0.1998-0.36514 0.08243-0.12135 0.28526-0.36998 0.30757-0.35448 0.85813-0.93576 0.21562-0.25168 0.28884-0.38745 0.13896-0.24684 0.092451-0.31023-7.6e-5 -0.16814-0.025072-0.12749-0.042734-0.11993-0.05626-0.11037-0.12485-0.1671-0.067338-0.064505-0.095018-0.069769-0.12013-0.059899-0.095945-0.030176-0.16035-0.02568-0.2188-0.003399-0.1772 0.012939-0.34928 0.04814-0.29839 0.056232-0.45692 0.10914-1.489 0.45377-0.95166 0.27425-0.37043 0.081377-0.42067 0.056078-0.52846 0.028373-0.60746-0.006909-0.88019-0.06168-0.54346-0.070362-0.28093-0.060641-0.20921-0.062333-0.20055-0.074783-0.25531-0.11507-0.32431-0.17813-0.32376-0.19912-0.32126-0.21682-0.22513-0.17465-0.33718-0.31434-0.16482-0.19087-0.15639-0.216-0.085084-0.13662-0.15108-0.28974-0.074873-0.17269-0.089504-0.24853-0.048224-0.16231-0.083509-0.35554-0.039502-0.22923-0.046438-0.41173-0.022855-0.59563-8.97e-4 -1.5948-0.027905-0.49332-0.044235-0.40385-0.11527-0.69177-0.13854-0.64318-0.43226-1.6267-0.088214-0.37998-0.051735-0.32025-0.015771-0.33215 0.069143-0.39534 0.15542-0.30059 0.30196-0.34079 0.40544-0.32198 0.38834-0.25454 0.29723-0.17838 1.4243-0.81908 0.63829-0.38769 0.74941-0.49006 0.60297-0.43579 0.63128-0.5046 0.45841-0.40634 0.1567-0.1613 0.03241-0.075769-0.36372-0.66737-0.26494-0.53034-0.35603-0.62087-0.10551-0.20236-0.067643-0.16659-0.033387-0.11621-0.026194-0.2454-0.23223 0.14405-0.26339 0.14499-0.62824 0.32458-1.902 0.90059-0.20696 0.11344-0.88934 0.54012-0.51356 0.29952-1.0258 0.56783-0.99985 0.52945-0.94902 0.56927-0.4964 0.28275-0.72921 0.37216-0.3638 0.16704-0.49123 0.20287-0.40628 0.14043-0.60292 0.17619-0.3824 0.15045-0.24488 0.082513-0.26412 0.052665-0.20912 0.014048-0.25614-0.015845-0.2631-0.049264-0.26208-0.08551-0.1573-0.072276-0.2882-0.16623-0.74711-0.51389-0.33157-0.21214-0.47082-0.25706-0.47612-0.24358-0.44929-0.19958-0.81604-0.3401-0.39586-0.13272-0.77502-0.23818-0.25872-0.097338-0.38555-0.18141-0.35336-0.19881-0.34671-0.23569-0.31252-0.2642-0.19152-0.19272-0.26825-0.30799-0.18918-0.24371-0.72419-1.0365-0.4651-0.5786-0.2465-0.34426-0.22322-0.36503-0.1924-0.37829-0.15222-0.38464-0.10052-0.38436-0.037258-0.30603-0.006257-0.25205 0.022243-0.70038-0.031466-0.33622-0.061905-0.32509-0.12528-0.50394-0.036553-0.19811-0.011857-0.1898 0.016548-0.23368 0.092462-0.53832 0.028091-0.22801 0.004081-0.23718-0.053219-0.3574-0.11556-0.37117-0.16648-0.37524-0.18611-0.33544-0.21041-0.32667-0.18475-0.25845-0.19092-0.24615-0.45562-0.54195-0.1825-0.24247-0.11525-0.19445-0.078932-0.18825-0.03359-0.142-0.006452-0.12409 0.006334-0.060797 0.033464-0.11694 0.043861-0.08252 0.11544-0.13265 0.13491-0.12656 0.14297-0.17577 0.098518-0.22164 0.0202-0.15483-0.012073-0.16376-0.042556-0.17088-0.12152-0.30262-0.17508-0.30491-0.22435-0.27764-0.19462-0.16593-0.32625-0.17251-0.39744-0.1308-0.45145-0.099128-0.49193-0.075502-0.52188-0.058296-1.103-0.084472-1.5054-0.081745-7.1658-0.33949-2.7554-0.14419-2.2194-0.1363-4.8934-0.32751-5.3606-0.31293 0.060831-0.018559 0.11145-0.098291 0.19399-0.21868 0.23535-0.31139 0.38105-0.57335 0.17894-0.30073 0.44299-0.80233 0.22199-0.36556 0.24393-0.31209 0.14271-0.13704 0.21033-0.15475 0.1813-0.10399 0.23595-0.11198 1.5921-0.64164 0.53265-0.23845 0.23821-0.12735 0.24572-0.15441 0.69336-0.49419 0.3307-0.2097 0.26938-0.15954 0.84057-0.45845 0.32335-0.19605 0.29827-0.21892 0.26206-0.25265 0.21486-0.28454 0.15705-0.31451 0.057019-0.18284 0.038158-0.19265 0.021133-0.23528-0.004113-0.25149-0.028904-0.26021-0.049592-0.25828-0.09954-0.37107-0.10691-0.33397-0.16235-0.44493-0.1516-0.36393-0.20761-0.44998-0.34412-0.66914-0.6516-1.16-0.14557-0.28183-0.26227-0.56398-0.19193-0.50568-0.11815-0.44569-0.051385-0.42003 0.021261-0.42408 0.088477-0.40916 0.088971-0.25512 0.10988-0.24123 0.2028-0.33822 0.36668-0.47085 0.27974-0.38145 0.2065-0.32736 0.046742-0.14148-0.18218-0.039859-0.22194-0.1014-0.25938-0.14913-0.27091-0.18793-0.36554-0.32404-0.29418-0.38028-0.055955-0.10112-0.087907-0.20831-0.089411-0.42177-0.019417-0.44686 0.009006-0.93615-0.051581-0.47847-0.1425-0.50952-0.22073-0.50951-0.27899-0.50754-0.32174-0.50421-0.35295-0.49984-0.37592-0.49453-0.3933-0.48818-0.40714-0.48056-0.41908-0.4713-0.43037-0.4599-0.44206-0.44575-1.2786-1.1993-0.40796-0.40228-0.38251-0.41567-0.34504-0.4373-0.31241-0.49004-0.26846-0.51341-0.23477-0.52718-0.20849-0.53231-0.18712-0.52924-0.093722-0.28892-0.13484-0.5101-0.10048-0.52012-0.067901-0.52259-0.034607-0.51733 0.001907-0.50366 0.04141-0.45316 0.090227-0.4157 0.27026-0.86891 0.096036-0.38564 0.042501-0.25819 0.019716-0.295-0.020331-0.29124-0.045557-0.21197-0.05038-0.15631-0.087613-0.20722-0.095191-0.18202-0.1028-0.17027-0.25931-0.37293-0.2813-0.37634-0.31468-0.44864-0.2687-0.48005-0.14967-0.38016-0.10378-0.38884-0.068578-0.4721-0.011421-0.42396 0.035246-0.3247 0.078922-0.15738 0.002729-0.1788 0.089246-0.32289 0.16466-0.37805 0.23751-0.36573 0.31293-0.30158 0.38001-0.19932 0.43892-0.11341 0.3303-0.038845 0.34522-0.014027 0.5368 0.01016 1.0153 0.060738 0.99962 0.10022 0.6105 0.092366 0.65866 0.14306 0.34234 0.099293 0.35461 0.12816 0.41263 0.18823 0.78822 0.39203 0.2309 0.095222 0.27034 0.088981 0.45666 0.1112 1.1528 0.20806 0.62492 0.091831 0.29957 0.012087 0.25425-0.038824 0.191-0.098507 0.13179-0.14821 0.070197-0.1802 0.077002-0.45549 0.073247-0.30701 0.10622-0.33423 0.10996-0.29071 0.127-0.29445 0.30538-0.65228 0.46564-1.0544 0.13359-0.27092 0.30306-0.54864 0.16712-0.27478 0.74965-1.1627 0.22539-0.40311 0.18928-0.41872 0.13731-0.41472 0.070001-0.27048 0.27654-1.2299 0.13399-0.49882 0.1302-0.43594 0.10909-0.32097 0.067107-0.12891 0.28318 0.246 0.37687 0.29904 0.45182 0.3181 0.24242 0.14881 0.3637 0.18251 0.20774 0.071759 0.1904 0.032463 0.12693-0.006211 0.11156-0.035577 0.12661-0.099784 0.1015-0.14403 0.085971-0.17165 0.1584-0.37006 0.11366-0.21623 0.099624-0.12977 0.068211-0.059436 0.15608-0.073767 0.1756-0.02126 0.18197 0.02879 0.17592 0.080616 0.1617 0.1354 0.14794 0.17775 0.13849 0.20731 0.53198 0.94926 0.14603 0.23308 0.16056 0.21785 0.18172 0.19416 0.18225 0.14521 0.20044 0.12277 0.21493 0.10298 0.22658 0.084461 0.23609 0.065853 0.24405 0.045741 0.25092 0.022629 0.28042-0.004488 0.28684-0.029877 0.29256-0.049395 0.29757-0.064339 0.60572-0.15969 0.60373-0.18228 0.94701-0.30628 0.062266-0.01216-0.043672 0.13228 0.10191 0.12665 0.25977 0.11148 0.37927 0.075953 0.46336 0.047473 0.4097 0.023325 1.2991 0.039974 0.98455 0.050348 0.6701 0.06906 0.52841 0.088565 0.34956 0.082032 0.27496 0.081422 0.33156 0.12081 0.20975 0.089987 0.34308 0.1727 0.50417 0.31649 0.5148 0.38545 1.2475 1.0363 0.37769 0.28662 0.37587 0.24031 0.40183 0.18273 0.35701 0.08488 0.36113 0.032953 0.3621 0.004149 0.48537-0.021113 0.25901-0.037873 0.31832-0.090067 0.42132-0.21574 0.41267-0.29865 1.2838-1.1094 0.2904-0.22901 0.54539-0.3972 1.0979-0.7537 0.60901-0.44737 0.64117-0.50456 1.3181-1.0657 0.74996-0.55839 1.5019-1.0737 1.0062-0.74687 0.61461-0.48278 1.0427-0.86102 0.30871-0.23696 0.20923-0.14443 0.32904-0.1851 0.30337-0.11142 0.27252-0.046435 0.20349-0.006848 0.18338 0.010703 0.23704 0.034363 0.26486 0.06214 0.26554 0.084003 0.41636 0.16886 0.40856 0.20414 0.22005 0.12325 0.51368 0.31476 0.74409 0.49656 0.69664 0.48949 1.7005 1.2409 0.85781 0.66355 1.5402 1.254 0.54485 0.42769 0.32387 0.23749 1.2375 0.86098 0.65637 0.51571 0.28388 0.24613 0.25304 0.23866 0.28714 0.30179 0.32778 0.39874 0.21574 0.30873 0.18028 0.30039 0.14024 0.26069 0.12741 0.2646 0.14998 0.36546 0.1335 0.41916 0.17087 0.80019 0.14109 0.80205 0.15661 1.0596 0.075561 0.59796 0.10817 1.1065 0.033841 0.55261 0.013966 0.43282 0.001257 0.42983-0.035593 1.2262-0.00151 0.37943 0.019286 0.37242 0.034668 0.27743 0.087271 0.43471 0.14419 0.49201 0.1284 0.33999 0.34114 0.78297 0.09106 0.2544 0.083229 0.012785 0.45512-0.041503 0.23266-0.002804 0.23099 0.028953 0.2681 0.076229 0.25 0.10352 0.28106 0.1398 0.81591 0.46205 0.5252 0.26581 0.34682 0.15274 0.97836 0.37622 0.3601 0.14967 0.53683 0.25566 0.2691 0.11061 0.2911 0.087328 1.2448 0.25285 0.48124 0.13899 0.323 0.12203 0.35195 0.17822 0.69443 0.40168 0.85853 0.56378 0.28569 0.16986 0.2887 0.13836 0.28939 0.097864 0.58175 0.16232 0.33422 0.1275 0.65801 0.27378 0.69322 0.30113 0.36286 0.12374 0.38043 0.068561 0.42067-0.01243 0.44245-0.087301 0.36146-0.11028 0.37151-0.13951 0.3447-0.14714 0.7869-0.3787 0.88337-0.47014 1.1994-0.68665 0.94517-0.57296 0.003447-0.047323-0.025309-0.10123-0.14239-0.34664-0.37208-0.70828-0.15637-0.3188-0.13979-0.37147-0.064955-0.33732-0.005185-0.15359 0.012068-0.17598 0.03553-0.20549 0.049614-0.18599 0.14124-0.37697 0.36981-0.79996 0.17942-0.41283 0.11672-0.31204 0.11021-0.36186 0.093872-0.38683 0.048044-0.25303 0.037476-0.27407 0.019767-0.3043-0.013514-0.36904-0.03663-0.28141-0.11618-0.54138-0.20512-0.69438-0.21712-0.62556-0.13737-0.33517-0.15684-0.30978-0.22249-0.32489-0.26601-0.26372-0.2702-0.17374-0.29814-0.13739-0.70582-0.26519-0.40517-0.13156-0.3763-0.098607-1.4728-0.35372-0.49692-0.081676-0.95067-0.072875-0.32153-0.036311-0.18388-0.038855-0.16514-0.057763-0.14483-0.080421-0.12025-0.095825-0.095474-0.10569-0.095812-0.15183-0.056652-0.12641-0.043621-0.13679-0.097234-0.52615-0.034132-0.25171-0.023669-0.30455-0.019672-1.1071-0.015681-0.3511-0.057457-0.65347-0.003985-0.2247 0.0197-0.24512 0.042175-0.24067 0.29684-1.0855 0.042566-0.26706 0.01352-0.27271-0.037344-0.38523-0.070643-0.26355-0.42204-1.1582-0.0695-0.22522-0.027323-0.17401-0.001035-0.089997 0.02372-0.16782 0.060671-0.16893 0.052823-0.098302 0.10262-0.14879 0.15409-0.17832 0.19051-0.18917 0.50203-0.46926 0.37567-0.41214 0.35391-0.44775 0.33918-0.51699 0.47007-0.81121 0.30014-0.6095 0.14493-0.35731 0.10159-0.32163 0.058207-0.2764 0.022999-0.23694-0.030974-0.44744-0.10983-0.44804-0.11132-0.31293-0.22903-0.52801-0.25112-0.4793-0.19688-0.33774-1.1724-1.8758-0.46671-0.77952-0.41659-0.76818-0.2084-0.43313-0.18226-0.43089-0.15173-0.43727-0.10556-0.42991-0.042225-0.29644-0.021278-0.32838 0.014709-0.32771 0.055641-0.31292 0.088991-0.3193 0.1692-0.47184 0.17689-0.39983 0.16364-0.31512 0.29073-0.47819 0.27023-0.39295 0.28703-0.38743 0.8462-1.0526 0.058437-0.092949 0.1299-0.11546 0.25189-0.17268 0.13998-0.076647 0.43245-0.18578 0.14437-0.083408 0.13872-0.099204 0.25405-0.22793 0.32846-0.36316 0.1164-0.11183 0.21472-0.16253 0.24515-0.13248 0.12268-0.035758 0.12221-0.003203 0.1353 0.043116 0.13406 0.083667 0.13259 0.11341 0.26097 0.28223 0.36727 0.43455 0.2421 0.25548 0.11666 0.10305 0.11785 0.086317 0.11864 0.064809 0.11904 0.037446 0.14289 0.004237 0.14315-0.026862 0.1436-0.041141 0.499-0.16384 0.11502-0.009505 0.11268 0.024193 0.10343 0.055859 0.088718 0.082738 0.067543 0.10606 0.055268 0.19217 0.013655 0.10599 0.009874 0.68026 0.030986 0.23143 0.10072 0.44548 0.063405 0.10674 0.12399 0.17173 0.078998 0.082518 2.5152 0.70031 0.27116 0.085912 1.4662 0.54381 0.56071 0.15554 0.56784 0.090377 0.34718 0.016973 0.54901-0.025335 0.41665-0.056023 0.24056-0.045359 0.42556-0.10357 0.52655-0.16505 0.32292-0.11351 1.3139-0.49028 0.76092-0.26032 0.39513-0.12509 0.38728-0.10281 0.40301-0.069385 0.24091-0.019519 0.27042 0.0038 0.89733 0.095557 1.5213 0.24409 0.49643 0.116 0.48583 0.16281 0.40824 0.1681 0.39875 0.18304 0.41453 0.20472 0.28225 0.17023 0.279 0.2235 0.24441 0.2608 0.11763 0.1555 0.17427 0.26512 0.1638 0.2815 0.50961 0.96477 0.20226 0.34661 0.21093 0.29314 0.10343 0.11356 0.19376 0.17492 0.37718 0.28088 0.22174 0.15005 0.23429 0.13424 0.34953 0.13465 0.36069 0.050551 0.74053 0.004986 0.35365 0.043831 0.17562 0.052442 0.34088 0.1589 0.5352 0.295 0.37507 0.18338 0.27076 0.099778 0.11576 0.022229 0.056928-0.007279 0.12925-0.050808 0.22205-0.11337 0.77743-0.44223 0.44225-0.28541 0.66206-0.4879 0.32362-0.21131 0.25562-0.12676 0.39006-0.13773 1.057-0.26652 0.59321-0.19444 0.25417-0.071182 0.19939-0.029555 0.3415-0.020033 0.1563-0.029517 0.10372-0.038063 0.12864-0.069729 0.12984-0.092416 0.24469-0.21977 0.27063-0.29868 0.13225-0.18224 0.11257-0.19588 0.087601-0.20174 0.16288-0.4768 0.040639-0.14704 0.05665-0.38187-0.014917-0.3312-0.20378-1.3151-0.03347-0.33244-0.001481-0.33231 0.048434-0.35991 0.084389-0.35777 0.17561-0.65554 0.060903-0.30736 0.024176-0.29959-0.008176-0.16557-0.019254-0.14188-0.096977-0.3811-0.097989-0.25398-0.11212-0.20032-0.23769-0.28963-0.74996-0.75937-0.15206-0.17721-0.13973-0.2007-0.095929-0.22243-0.033031-0.24444 0.014384-0.14084 0.042447-0.16187 0.066196-0.1613 0.096815-0.17724 0.13131-0.19404 0.278-0.33355 0.29194-0.29344 0.32862-0.29135 0.28115-0.22856 0.31323-0.23929 0.57066-0.40747 0.40904-0.27214 0.41762-0.25932 0.2762-0.15918 0.40373-0.21217 0.34212-0.16084 0.1838-0.074387 2.2391 1.2774 0.60817 0.363 0.60649 0.38035 0.39666 0.25913 0.72096 0.49936 0.51215 0.38788 0.48647 0.39799 0.45935 0.40416 0.42974 0.40724 0.39623 0.4078 0.35714 0.40615 0.31048 0.40234 0.25401 0.39611 0.32817 0.65149 0.14672 0.25152 0.15754 0.21094 0.18419 0.2005 0.23106 0.20824 0.20637 0.1571 0.20448 0.13445 0.32069 0.1744 0.35604 0.15099 0.25632 0.086121 0.30435 0.077956 0.26671 0.048733 0.47102 0.051687" stroke="#bdc660"/>
    </defs>
    <g clip-path="url(#p288ebbeef4)">
     <use y="235.858027" fill="#bdc660" stroke="#bdc660" xlink:href="#m3519ea4cfb"/>
    </g>
   </g>
  </g>
 </g>
 <defs>
  <clipPath id="p288ebbeef4">
   <rect x="7.2" y="7.2" width="357.12" height="221.46"/>
  </clipPath>
 </defs>
</svg>
