<?xml version="1.0" encoding="UTF-8"?>
<!DOCTYPE svg  PUBLIC '-//W3C//DTD SVG 1.1//EN'  'http://www.w3.org/Graphics/SVG/1.1/DTD/svg11.dtd'>
<svg width="204.63pt" height="280.51pt" version="1.1" viewBox="0 0 204.63 280.51" xmlns="http://www.w3.org/2000/svg" xmlns:xlink="http://www.w3.org/1999/xlink">
 <metadata>
  <rdf:RDF xmlns:cc="http://creativecommons.org/ns#" xmlns:dc="http://purl.org/dc/elements/1.1/" xmlns:rdf="http://www.w3.org/1999/02/22-rdf-syntax-ns#">
   <cc:Work>
    <dc:type rdf:resource="http://purl.org/dc/dcmitype/StillImage"/>
    <dc:date>2024-07-04T12:10:33.933744</dc:date>
    <dc:format>image/svg+xml</dc:format>
    <dc:creator>
     <cc:Agent>
      <dc:title>Matplotlib v3.7.1, https://matplotlib.org/</dc:title>
     </cc:Agent>
    </dc:creator>
   </cc:Work>
  </rdf:RDF>
 </metadata>
 <defs>
  <style type="text/css">*{stroke-linejoin: round; stroke-linecap: butt}</style>
 </defs>
 <g id="figure_1">
  <g id="patch_1">
   <path d="m0 280.51h204.63v-280.51h-204.63v280.51z" fill="none"/>
  </g>
  <g id="axes_1">
   <g id="PatchCollection_1">
    <defs>
     <path id="m61ffe140f3" d="m142.95-256.96-0.067695 0.36224-0.13883 0.45583-0.18368 0.44769-0.21518 0.43952-0.64419 1.1591-0.15853 0.30337-0.14256 0.30597-0.14691 0.39016-0.10187 0.39664-0.048828 0.42262 0.012542 0.42428 0.079643 0.44798 0.13522 0.44332 0.13228 0.33618 0.14822 0.33565 0.80286 1.7439 0.21312 0.4461 0.36079 0.68751 0.68542 1.2173 0.16784 0.33792 0.12871 0.29819 0.10995 0.30347 0.077656 0.26575 0.060795 0.26929 0.049345 0.32522 0.020629 0.25013 0.00672 0.25154-0.008447 0.29149-0.024309 0.29218-0.047587 0.34772-0.065459 0.3474-0.083696 0.35737-0.096738 0.35666-0.25583 0.81715-0.31622 0.89825-0.32888 0.83955-0.17334 0.39555-0.18541 0.39079-0.19828 0.3854-0.32766 0.57533-0.19611 0.31837-0.41352 0.62871-0.2761 0.39645-1.5216 2.1161-0.42719 0.61689-0.30077 0.46001-0.286 0.47335-0.20171 0.36734-0.18666 0.374-0.16905 0.378-0.15063 0.38358-0.12741 0.37637-0.1017 0.3592-0.086322 0.39629-0.043434 0.31108-0.004752 0.1308 0.01526 0.053103-0.010226 0.016204 0.008575 0.11049 0.042128 0.13169 0.069168 0.1559 0.1181 0.20738 0.15111 0.209 0.16661 0.18603 0.63495 0.62396 0.77006 0.80329 0.25948 0.24146 0.16766 0.13949 0.36308 0.27566 0.20421 0.13099 0.27638 0.13036 0.1982 0.06751 0.1991 0.052436 0.55698 0.12673 0.64299 0.19873 0.34347 0.097183 0.20512 0.047673 0.27921 0.04851 0.28029 0.031958 0.27682 0.017259 0.7733 0.027038 1.0707 0.079157 0.3166 0.049016 0.32806 0.077797 0.33187 0.10358 0.42098 0.1585 0.65296 0.27014 0.97565 0.42519 0.26952 0.10234 0.22676 0.072637 0.22772 0.057708 0.67977 0.12515 0.54453 0.12905 0.52998 0.15186 0.42718 0.13608 0.11567 0.044968 0.16177 0.079524 0.14227 0.092569 0.1521 0.13229 0.27171 0.27482 0.16317-0.13153 0.26376-0.18812 0.09877-0.087394 0.13029-0.14874 0.13113-0.21091 0.14352-0.32366 0.36086-0.90656 0.3089-0.88141 0.13844-0.33426 0.079005-0.14203 0.10248-0.14963 0.14742-0.16238 0.1588-0.1282 0.53847-0.29946 0.16825-0.12056 0.31562-0.18285 0.59005-0.11897 0.58907-0.096641 0.5601-0.096637 0.43605-0.06451 0.47169-0.080454 0.49045-0.04516 0.54383-6.5e-5 0.63639 0.073997 0.64495 0.43634 0.19148 0.23088 0.15158 0.24383 0.10898 0.30175 0.05691 0.28124 0.1148 0.80699 0.037046 0.22945 0.047749 0.22902 0.055949 0.19616 0.067522 0.19202 0.18024 0.39445 0.1222 0.20086 0.082769 0.1086 0.082174 0.089162 0.14176 0.12283 0.1518 0.098779 0.074118 0.037888 0.11282 0.046409 0.21025 0.057805 0.29107 0.026984 0.31163-0.019228 0.32669-0.057543 0.37354-0.10113 0.2345-0.07921 0.39328-0.15412 0.70443-0.31799 1.0072-0.49775 1.169-0.60299 0.70484-0.33232 0.38443-0.15935 0.46535-0.16746 0.37736-0.10784 0.23848-0.047587 0.21286-0.024591 0.20978-0.005262 0.15574 0.00937 0.32389 0.056459 0.25846 0.073974 0.45348 0.16457 0.62075 0.25119 0.81751 0.35518 0.53009 0.24859 0.43354 0.21704 0.65637 0.3477 0.60501 0.34084 0.53065 0.31968 0.58754 0.38552 0.37673 0.27954 0.29982 0.2463 0.41099 0.37874 0.39491 0.41854 0.37343 0.45882 0.93345 1.2448 0.27161 0.3257 0.12501 0.13808 0.31394 0.31671 0.31949 0.28746 0.6395 0.52909 0.24402 0.1894 0.23691 0.16888 0.44678 0.29995 0.19643 0.17179 0.10102 0.1167 0.093097 0.13947 0.094798 0.18752 0.068294 0.19979 0.038091 0.21558 0.00964 0.18682-0.001839 0.19064-0.029353 0.73738 0.002323 0.12225 0.019264 0.22474 0.064759 0.29562 0.12978 0.35172 0.17652 0.35795 0.21208 0.36248 0.23876 0.36573 0.25844 0.36804 0.52456 0.70139 1.3772 1.7886 0.3157 0.43988 0.17818 0.28458 0.1478 0.26441 0.13831 0.27165 0.16912 0.36303 0.66445 1.5775 0.4593 1.0057 0.17215 0.31551 0.20331 0.27449 0.20361 0.19083 0.22524 0.15315 0.13915 0.07358 0.19053 0.081034 0.26629 0.083542 0.15656 0.032486 0.086535 1.99e-4 -0.53359 0.24808-0.43113 0.18865-0.66918 0.2651-0.44099 0.14178-0.66082 0.16842-0.20919 0.068215-0.19086 0.08071-0.18436 0.094179-0.3534 0.21701-0.33567 0.24428-0.31541 0.26828-0.14735 0.14486-0.14719 0.1632-0.13946 0.17084-0.39162 0.53957-2.6893 4.0647-0.090257-0.011886-0.098771 0.069826-0.20388 0.22881-0.67178 0.9412-0.1768 0.23011-0.28455 0.33296-0.30844 0.3183-0.32762 0.29939-0.34323 0.27689-0.13258 0.097644-0.27509 0.18896-0.27832 0.17788-0.45634 0.27263-0.24942 0.13678-0.29987 0.1483-0.27057 0.1155-0.27176 0.095971-0.28858 0.077707-0.25938 0.048908-0.15049 0.019977-0.34792 0.030502-0.83073 0.023343-1.6867-0.006808-0.35454-0.025728-0.26374-0.03729-0.24896-0.052387-0.31608-0.087377-0.92003-0.32853-0.79895-0.31079-0.38783-0.18558-0.25284-0.14359-0.23222-0.14656-0.3635-0.26289-0.24467-0.2118-0.50648-0.48989-0.56579-0.58851-0.21883-0.2077-0.32612-0.26598-0.1028-0.068743-0.12724-0.069662-0.20465-0.077274-0.10743-0.023678-0.11932-0.011039-0.18028 0.01235-0.25706 0.07068-0.06714 0.027478-0.18457 0.099931-0.13456 0.11694-0.098734 0.13493-0.094652 0.24794-0.038295 0.28408-0.001054 0.14334 0.047397 0.32616 0.067315 0.20799 0.091472 0.20996 0.092471 0.18231 0.43236 0.77226 0.51362 0.83482 0.28216 0.4244 0.16824 0.24005 0.31831 0.42138 0.32414 0.37486 0.35047 0.36234 0.37125 0.35301 0.38726 0.34618 0.91815 0.78062 0.31885 0.28579 0.3078 0.29625 0.36283 0.38165 0.33368 0.38287 0.26478 0.32664 0.22452 0.29672 0.16856 0.24332 0.079236 0.13356 0.014028 0.058015 0.065165 0.087999 0.1593 0.25507 0.20401 0.36219 0.16103 0.31712 0.15622 0.34362 0.14835 0.37575 0.12833 0.38788 0.10347 0.39434 0.08277 0.4487 0.047153 0.44548 0.012968 0.31309-0.001824 0.24373-0.028742 0.37794-0.05759 0.36885-0.066598 0.29879-0.080105 0.29078-0.13399 0.41443-0.31196 0.9203-0.13913 0.35656-0.14944 0.30464-0.1557 0.27993-0.24798 0.36836-0.28628 0.34607-0.31814 0.31393-0.34666 0.26858-0.37455 0.20574-0.12873 0.050282-0.39635 0.10028-0.39121 0.02694-0.15274-0.00858-0.18738-0.026287-0.27745-0.074092-0.27236-0.10934-0.26686-0.13672-0.29066-0.17624-0.28373-0.19212-0.59072-0.42709-0.30808-0.21015-0.30549-0.17568-0.30554-0.12307-0.3119-0.059213-0.30895-0.013968-0.58493-0.004165-0.17916-0.024568-0.13519-0.03617-0.19362-0.083079-0.19417-0.11563-0.24332-0.18128-0.24264-0.21082-0.1924-0.18252-0.2651-0.2704-0.41968-0.45428-0.50236-0.59836-0.10695-0.11664-0.16273-0.15006-0.092306-0.069159-0.18873-0.10776-0.18595-0.067171-0.063645-0.014028-0.12164-0.010117-0.067985 0.006978-0.095334 0.028401-0.037897 0.01843-0.17316 0.15082-0.10911 0.16185-0.09682 0.19641-0.067317 0.17008-0.075729 0.23036-0.078981 0.30678-0.079024 0.4248-0.05934 0.47104-0.023311 0.25725-0.065213 1.0073-0.05489 0.34939-0.10464 0.32218-0.20026 0.32751-0.26966 0.29892-0.2037 0.18846-0.38995 0.31645-0.25922 0.18727-0.56537 0.38378-0.28757 0.20916-0.31316 0.27819-0.137 0.15883-0.16583 0.25991-0.1224 0.28606-0.078199 0.30434-0.032004 0.28693 0.004766 0.28716 0.062023 0.38062 0.10902 0.33689 0.065219 0.14677 0.053393 0.098375 0.062942 0.093121 0.05353 0.059183 0.037422 0.026485 0.014013-0.00365 0.011294 0.009025 0.034043 6.04e-4 0.15394-0.018429 0.60428-0.091731 0.26579-0.032168 0.48434-0.03389 0.59963-0.010398 0.28826 0.004255 0.6979 0.036665 0.63921 0.066431 0.21032 0.034343 0.26373 0.064503 0.22666 0.084376 0.10445 0.052217 0.090217 0.052964 0.21901 0.16243 0.12141 0.12087 0.083026 0.10072 0.18677 0.29362 0.16189 0.31002 0.30749 0.6378 0.6571 1.2577 0.47409 0.9549 0.19856 0.37308 0.28977 0.50327 0.79123 1.2829 0.55021 0.99828 0.13449 0.23258 0.12715 0.19915 0.16128 0.22353 0.1979 0.23419 0.30588 0.30264 0.47394 0.40964 0.80145 0.63393 0.31408 0.26791 0.1687 0.16185 0.27578 0.30892 0.15305 0.21209 0.13002 0.22075 0.10112 0.2194 0.076156 0.22753 0.048409 0.23835 0.011505 0.12841-0.011894 0.33409-0.036564 0.24228-0.053022 0.24659-0.31451 1.1926-0.068703 0.32277-0.053934 0.32647-0.037582 0.35296-0.016992 0.35352 0.00584 0.51898 0.0317 0.80998 7.56e-4 0.31881-0.020692 0.3126-0.04855 0.2992-0.072817 0.29202-0.091069 0.28395-0.42012 1.0901-0.16943 0.4947-0.1469 0.48551-0.2885 1.0255-0.12705 0.51599-0.069876 0.37621-0.037751 0.3605-0.001733 0.36209 0.041536 0.3523 0.05683 0.22992 0.10906 0.28184 0.12407 0.24138 0.27828 0.46139 0.19226 0.29859 0.67677 0.99167 0.1879 0.2892 0.39226 0.65368 0.20048 0.3622 0.51036 0.95947 0.12294 0.24235 0.15876 0.34502 0.11335 0.2814 0.10141 0.29159 0.063293 0.22264 0.055349 0.27514 0.02885 0.26743-0.006264 0.33995-0.045221 0.21937-0.15325 0.3111-0.21968 0.24232-0.27187 0.21467-0.6259 0.434-0.3069 0.24992-0.2525 0.26618-0.19682 0.28793-0.11929 0.29803-0.027484 0.1977 0.004893 0.20281 0.030087 0.21268 0.095514 0.38367 0.14489 0.41887 0.11855 0.29542 0.27012 0.61752 0.22026 0.44091-0.1102 0.026026-1.0878 0.35534-1.4028 0.43631-0.9597 0.28871-0.29869 0.085041-0.34349 0.082628-0.34595 0.068378-0.3649 0.05931-0.36469 0.04324-0.50718 0.025526-0.50111-0.021462-0.3239-0.043782-0.18544-0.037404-0.4032-0.11214-0.39578-0.14291-0.26806-0.10972-1.0288-0.44613-0.38468-0.15586-0.32864-0.12082-0.33219-0.10728-0.45351-0.11836-0.51357-0.095628-0.42047-0.053616-1.6248-0.14904-0.32679-0.039742-0.32177-0.05714-0.42886-0.11712-0.33609-0.11879-0.56598-0.23999-0.68277-0.33867-0.57956-0.31829-0.48158-0.29177-0.32335-0.21437-0.35054-0.24869-1.2616-0.96342-0.28823-0.2095-0.26717-0.17836-0.27007-0.15738-0.27514-0.12893-0.27061-0.08936-0.25774-0.048397-0.27918-0.016384-0.28036 0.015827-0.37945 0.068552-0.38405 0.13156-0.36024 0.19894-0.29163 0.23681-0.27081 0.28429-0.25717 0.32028-0.2499 0.3464-0.24821 0.36382-0.36028 0.55018-0.2899 0.48619-0.2862 0.52535-0.19126 0.38862-0.178 0.40793-0.31012 0.7665-0.072638 0.1605-0.043802 0.077184-0.043877 0.048043-0.032243-0.010079 0.006826 0.29235 0.02703 0.16386 0.046811 0.13483 0.031858 0.062149 0.11958 0.16006 0.14707 0.14835 0.17385 0.13349 0.20636 0.11349 0.47414 0.21958 0.1186 0.072079 0.087692 0.076391 0.04216 0.050507 0.069913 0.11343 0.053341 0.12517 0.034858 0.134 0.009236 0.078438-0.001791 0.16264-0.026272 0.16578-0.045309 0.16664-0.15845 0.44513 0.12331 0.001227 0.25035 0.0636 0.3105 0.11823 0.3535 0.1662 0.24143 0.13484 0.2382 0.15004 0.2376 0.16528 0.24477 0.18771 0.22413 0.19867 0.23169 0.26259 0.16511 0.27653 0.10787 0.30041 0.062537 0.30861 0.035511 0.32519 0.019263 0.3371 0.025058 1.102 0.01807 0.40461 0.039077 0.46152 0.057498 0.46203 0.067919 0.42952 0.080866 0.42676 0.093745 0.4224 0.098315 0.38518 0.10912 0.3786 0.36627 1.1412 0.08283 0.30837 0.073215 0.3884 0.024886 0.38262-0.031975 0.34651-0.10537 0.37706-0.16823 0.36061-0.19393 0.30628-0.22892 0.28933-0.25986 0.26925-0.21361 0.18629-0.22856 0.17102-0.2967 0.18548-0.31316 0.1608-0.28966 0.12391-0.29537 0.11143-0.43637 0.1498-0.96374 0.30102-0.35675 0.12143-0.3176 0.13031-0.19137 0.098943-0.15783 0.10562-0.15323 0.15954-0.053344 0.14484 0.010712 0.080247 0.044676 0.08832 0.065426 0.077395 0.12857 0.11378 0.68357 0.51971 0.37772 0.33572 0.42496 0.43053 0.5327 0.56365 0.31162 0.31169 0.25732 0.23393 0.26684 0.21257 0.27901 0.18322 0.22179 0.11431 0.39689 0.13903 0.41141 0.066456 0.2584 0.003218 0.25842-0.026486 0.37092-0.089102 0.35535-0.13071 0.35293-0.16 1.0394-0.52216 0.37453-0.16281 0.37913-0.12966 0.28356-0.066486 0.28557-0.036114 0.31158-3.5e-4 0.31007 0.039749 0.32737 0.083689 0.3256 0.1157 1.5156 0.65927 0.53684 0.21878 0.42353 0.16217 0.56422 0.18975 0.24332 0.068833 0.32757 0.07978 0.3128 0.048988 0.24314 0.005151 0.2429-0.038838 0.2289-0.084165 0.29546-0.1958 0.19401-0.20156 0.16387-0.23791 0.1172-0.23273 0.091775-0.2508 0.075941-0.32095 0.038712-0.33413 0.001396-0.34079-0.012306-0.15809-0.036815-0.25972-0.052961-0.25771-0.057392-0.22926-0.20158-0.69463-0.070261-0.27994-0.14749-0.7281-0.046621-0.41212 0.00744-0.3793 0.062612-0.39087 0.058798-0.23339 0.070299-0.23083 0.10628-0.30396 0.2648-0.72413 0.064504-0.22656 0.047462-0.28779-0.005037-0.29074-0.018946-0.11176-0.037808-0.14022-0.078819-0.20319-0.1017-0.19922-0.17327-0.26958-0.20295-0.2528-0.14199-0.14843-0.25258-0.21692-0.22485-0.1543-0.24996-0.13646-0.51026-0.25548-0.23275-0.15145-0.12858-0.11158-0.064213-0.067533-0.094134-0.12469-0.050042-0.087447-0.066193-0.17306-0.035425-0.18279-0.010698-0.1676 0.013322-0.32028 0.058954-0.3177 0.068263-0.19192 0.095997-0.17046 0.13923-0.15213 0.044584-0.035242 0.24871-0.12675 0.147-0.030859 0.15035-0.002349 0.15947 0.02888 0.1162 0.039059 0.1426 0.066067 0.24836 0.14339 0.18458 0.12106 0.82117 0.59171 0.22272 0.17348 0.23438 0.21098 0.22014 0.23162 0.18379 0.22394 0.42372 0.58962 0.16934 0.22252 0.18111 0.20849 0.20341 0.19338 0.17564 0.13735 0.18367 0.12442 0.5202 0.31547 0.19285 0.12978 0.20838 0.15952 0.48054 0.42057 0.60473 0.56506 0.37002 0.37207 0.23034 0.28798 0.19877 0.34004 0.16142 0.35766 0.28626 0.69202 0.16218 0.29118 0.20191 0.21936 0.25465 0.11892 0.17865 0.020156 0.30204-0.042312 0.2348-0.073339 0.81283-0.32178 0.4457-0.13968 0.29908-0.063182 0.308-0.037847 0.39248-0.007994 0.38881 0.033823 0.42019 0.083325 0.37374 0.11983 0.21918 0.098171 0.16488 0.098939 0.080771 0.073602 0.01896 0.06397 0.002921 0.033213-0.03343 0.086777-0.27455 0.5936-0.15573 0.37603-0.14569 0.41037-0.10802 0.36781-0.088084 0.37486-0.069593 0.40022-0.046514 0.39424-0.021639 0.28987-0.011238 0.28046 0.005778 0.44418 0.029363 0.29213 0.046272 0.24254 0.066883 0.21547 0.07396 0.15612 0.091446 0.13019 0.095746 0.090639 0.13047 0.076509 0.14306 0.04218 0.17769 0.007346 0.18069-0.03287 0.23155-0.095316 0.13433-0.083302 0.12622-0.095109 0.23828-0.20382 0.2231-0.16254 0.14657-0.062911 0.15165-0.023309 0.11514 0.008556 0.16497 0.04702 0.16505 0.082834 0.16429 0.11579 0.15647 0.1441 0.18004 0.21835 0.15384 0.25216 0.11046 0.25142 0.049073 0.1512 0.070801 0.33912 0.020038 0.28101 2.91e-4 0.11835-0.009987 0.23762-0.028379 0.27587-0.05183 0.28776-0.074751 0.28847-0.067091 0.20595-0.12733 0.32494-0.1624 0.3462-0.24258 0.4511-0.2238 0.37104-0.3969 0.60117-0.38151 0.54275-0.55884 0.75316-0.6316 0.80111-0.46897 0.57265-0.46268 0.53969-0.44797 0.47451-1.0862 1.0678-0.8635 0.89192-0.025042 0.33044-0.0398 0.24682-0.053683 0.20304-0.18468 0.60613-0.065571 0.26707-0.1208 0.57774-0.14521 0.50009-0.13411 0.36894-0.1009 0.20919-0.093599 0.12378-0.16277 0.14387-0.045697 0.049722-0.035353 0.067071-0.010925 0.043154-0.002988 0.11581 0.033266 0.17258 0.068518 0.2073 0.15436 0.37261 1.5197 3.8113 1.1946 2.7757 1.4258 3.4901 0.057012 0.10463 0.11677 0.26787 0.14335 0.37359 0.14574 0.44049 0.13004 0.48164 0.099563 0.5062 0.059792 0.52951 0.022684 0.53574-0.00587 0.53643-0.027004 0.53384-0.042266 0.52948-0.053128 0.52439-0.12202 0.99647-0.85512 6.0782-0.20947 1.4227-0.1532 0.92955-0.0849 0.4522-0.093701 0.43849-0.10605 0.41896-0.1231 0.39167-0.14635 0.3541-0.12923 0.23199-0.15138 0.19661-0.17909 0.15277-0.28481 0.12518-0.32836 0.050134-0.35815-0.010545-0.37618-0.061195-0.38379-0.10561-0.38169-0.14715-0.37005-0.1888-0.32124-0.20736-0.92188-0.68361-0.31362-0.19704-0.16541-0.086321-0.19691-0.087856-0.29562-0.1007-0.19136-0.044357-0.19733-0.030575-0.16737-0.015397-0.20414-0.006738-0.20771 0.006578-0.18922 0.019241-0.20688 0.042535-0.1503 0.059226-0.1118 0.087142-0.08362 0.18862-4.98e-4 0.24351 0.067214 0.27695 0.1245 0.29179 0.13211 0.23392 0.69126 1.1044 1.4803 2.253 0.77649 1.2104 0.75972 1.2133 0.98787 1.6144 0.75171 1.2518 2.1776 3.6701 2.8908 4.8149 1.4794 2.4991 2.0638 3.4267 5.8118 9.8294-0.085098 0.027462-0.24189 0.043122-0.57575 0.078618-0.47004 0.03994-0.51589 0.01529-0.37748-0.006646-0.34878-0.018447-0.68084-0.051787-1.6948-0.14788-0.70961-0.037712-0.42185 7.54e-4 -0.31993 0.017841-0.29753 0.029939-0.6958 0.096777-0.28933 0.031973-0.38962 0.025147-0.22999 0.004328-0.3333-0.011075-0.22381-0.021442-0.28951-0.043563-0.32044-0.065019-0.36374-0.090531-0.26326-0.078395-0.28657-0.10295-0.36129-0.15697-0.70537-0.34238-0.97142-0.5034-0.36771-0.20195-0.34786-0.2109-0.28356-0.19584-0.15746-0.12238-0.2708-0.24028-0.14359-0.14678-0.1456-0.1647-0.38032-0.46144-0.28032-0.324-0.18047-0.19316-0.21602-0.20612-0.17873-0.15021-0.28035-0.19522-0.27502-0.15432-0.29812-0.13982-0.51941-0.19643-0.80687-0.2456-0.42932-0.10556-0.16061-0.028052-0.2525-0.027664-0.25465-0.006436-0.15959 0.005704-0.25584 0.028368-0.16607 0.031105-0.22609 0.055761-0.20003 0.065019-0.17981 0.074532-0.2107 0.10676-0.25567 0.15542-0.1371 0.096654-0.18782 0.15328-0.29348 0.3006-0.22548 0.27751-0.25092 0.35125-0.53539 0.84406-0.23035 0.33554-0.18368 0.22202-0.11144 0.11094-0.18974 0.15226-0.1271 0.08412-0.3244 0.17935-0.4224 0.1992-0.5803 0.25328-0.5284 0.20526-0.41846 0.14568-0.35473 0.10867-0.34906 0.084456-0.90691 0.19303-0.35396 0.10221-0.3347 0.12396-0.62412 0.25316-0.42371 0.16178-1.0454 0.36127-0.36239 0.15494-0.26651 0.13896-0.14898 0.089352-0.27893 0.19682-0.11905 0.098346-0.14746 0.13651-0.13801 0.1452-0.10678 0.12647-0.17446 0.24217-0.10041 0.1674-0.10093 0.20241-0.098337 0.24643-0.069382 0.21798-0.078459 0.32804-0.040361 0.24494-0.039485 0.37983-0.022899 0.45072-0.020229 1.1243 0.004925 0.76732 0.028468 1.5609-0.006037 1.1634-0.018304 0.63191-0.23846 3.24-0.11856 1.2349-0.069318 0.54335-0.098588 0.625-0.11285 0.59993-0.15682 0.72132-0.16334 0.65104-0.17589 0.60722-0.16012 0.48641-0.12467 0.33387-0.05683 0.1304-0.029236 0.045278-0.034008 0.10045-0.13625 0.29622-0.13223 0.2475-0.15905 0.2585-0.14935 0.21062-0.17433 0.21256-0.1563 0.16524-0.14455 0.13324-0.18969 0.15033-0.14098 0.0966-0.22122 0.12905-0.20979 0.10153-0.20756 0.083851-0.19801 0.067055-0.26139 0.070963-0.19172 0.03943-0.19114 0.028548-0.25935 0.022816-0.36192 0.003578-0.28546-0.015789-0.43897-0.040588-1.2415-0.13622-1.1108-0.096208-0.39486-0.058127-0.30289-0.065464-0.41284-0.12557-1.1773-0.46803-0.7056-0.26219-0.37754-0.12934-0.2057-0.053746-0.15764-0.027272-0.23387-0.015709-0.24983 0.009332-0.23072 0.030548-0.24746 0.055856-0.21175 0.066718-0.17952 0.070274-0.20533 0.096005-0.33296 0.19222-0.18562 0.12831-0.18613 0.14768-0.17211 0.15748-0.13456 0.14124-0.1087 0.13003-0.09142 0.12499-0.16471 0.27548-0.30428 0.59505-0.10072 0.1781-0.12831 0.20169-0.1089 0.15012-0.16392 0.19458-0.16834 0.16838-0.18655 0.1556-0.23581 0.1548-0.19819 0.096168-0.15864 0.055151-0.18563 0.039701-0.1428 0.012156-0.15125-0.004262-0.17964-0.026551-0.1381-0.03445-0.14936-0.048703-0.19096-0.077086-0.32964-0.16878-0.38647-0.25046-0.23236-0.17752-0.22528-0.19193-0.18093-0.16936-0.17353-0.17728-0.24556-0.27876-0.26275-0.33395-0.2588-0.38248-0.13065-0.22892-0.074936-0.15161-0.1104-0.27933-0.060966-0.24317-0.023183-0.24958 0.008645-0.16576 0.026373-0.15535 0.036537-0.12857 0.048767-0.12074 0.074088-0.13334 0.096205-0.13054 0.095093-0.10246 0.12376-0.10957 0.15966-0.11546 0.18737-0.11195 0.20366-0.10527 0.95608-0.46011 0.26974-0.1572 0.19736-0.14922 0.1245-0.11979 0.095172-0.11518 0.054617-0.083579 0.064104-0.13314 0.049004-0.15243 0.028938-0.12561 0.11988-0.61026 0.037113-0.27513 0.009798-0.14573 0.002372-0.16655-0.010488-0.19022-0.020649-0.15583-0.050995-0.2388-0.080157-0.26388-0.1322-0.33024-0.17246-0.33936-0.15941-0.26197-0.15702-0.22486-0.18841-0.23693-0.17488-0.19198-0.11693-0.11234-0.24531-0.19294-0.31273-0.16484-0.18517-0.057581-0.18052-0.035923-0.33303-0.032269-0.17861-0.004434-0.34306 0.009789-1.451 0.088978-0.21379 8.61e-4 -0.11141-0.008357-0.076439-0.011208-0.1608-0.045825-0.15388-0.086491-0.12424-0.10608-0.10348-0.1201-0.090183-0.14148-0.07487-0.1655-0.038414-0.11982-0.043411-0.21305-0.061369-0.58671-0.049014-0.28828-0.055997-0.20847-0.04844-0.13947-0.101-0.23771-0.093641-0.18606-0.19608-0.33001-0.21004-0.29324-0.32612-0.38394-0.55845-0.59941-0.24064-0.26967-0.18024-0.2405-0.084498-0.14966-0.087284-0.26432-0.013762-0.2603 0.059983-0.23933 0.13844-0.20004 0.11236-0.087398 0.25592-0.11924 0.19094-0.056289 0.20866-0.045266 0.45741-0.068435 0.99961-0.11483 0.42863-0.067161 0.43589-0.098626 0.20843-0.063167 0.19191-0.071858 0.16448-0.077269 0.14238-0.086424 0.14581-0.12825 0.090363-0.14796 0.024673-0.21415-0.056856-0.24252-0.12819-0.28269-0.17989-0.30289-0.19847-0.29277-0.22112-0.30367-0.52656-0.68589-2.1492-2.7488-0.512-0.68226-0.47218-0.65245-1.0828-1.5156-0.34183-0.4957-0.43711-0.69054-0.2568-0.4421-0.24648-0.44889-0.23764-0.45518-0.22679-0.46198-0.15596-0.34006-0.14821-0.34456-0.18571-0.46708-0.29726-0.83157-0.23068-0.72438-0.13899-0.4824-0.12758-0.48683-0.14808-0.65029-0.26099-1.4043-0.062242-0.27759-0.082342-0.30198-0.10022-0.28706-0.10549-0.23459-0.077812-0.14265-0.11623-0.18576-0.23226-0.31868-0.49862-0.60013-0.071362-0.11006-0.12022 0.082501-0.074912 0.037897-0.16116 0.060852-0.26368 0.059076-0.19698 0.018191-0.19449 0.003094-0.28188-0.014072-0.95442-0.10356-0.27693-0.018312-0.34954 0.011045-0.61817 0.07455-0.27607 0.018643-0.45402-0.006148-0.57588-0.04419 0.038251-0.081875 0.014887-0.097389 0.006674-0.14137-0.006432-0.16542-0.024503-0.20063-0.024807-0.12873-0.062351-0.22666-0.093562-0.22998-0.13168-0.21992-0.093712-0.11505-0.16411-0.15604-0.12237-0.092285-0.2128-0.12975-0.36475-0.17123-0.49024-0.18066-0.31045-0.094061-0.32213-0.080609-0.32926-0.062305-0.26255-0.034033-0.26556-0.022439-0.45626-0.016899-0.3904 0.002703-0.7277 0.0371-0.68869 0.062337-0.7398 0.084877-1.29 0.17637-2.2805 0.36043-0.66879 0.091388-0.42225 0.048901-0.31418 0.047284-0.47267 0.092901-0.7703 0.18921-1.3033 0.36414-1.1382 0.33844-0.64843 0.1671-0.37625 0.08356-0.40927 0.079722-0.48166 0.081278-1.6068 0.24779-1.8058 0.33717-0.59012 0.08876-0.27793 0.029956-0.27967 0.019585-0.40659 0.005122-0.50028-0.036029-0.54643-0.083965-0.54534-0.11833-0.53671-0.14044-1.388-0.41042-0.27568-0.063607-0.082453 0.011248-0.21854-0.21066-0.16225-0.17302-0.36351-0.43128-0.2657-0.3644-0.26134-0.41884-0.14175-0.26813-0.12113-0.27076-0.10444-0.29711-0.069528-0.29579-0.028684-0.3051 0.04726-0.44706 0.13508-0.43562 0.19905-0.42356 0.24444-0.41099 0.27585-0.39769 0.29687-0.38326 0.92045-1.0675 0.2627-0.36832 0.17511-0.32089 0.17844-0.41446 0.13633-0.38178 0.14318-0.46089 0.13026-0.46224 0.40523-1.5452 0.071423-0.21989 0.24781-0.64788 0.1138-0.37831 0.27944-1.2064 0.22336-0.84848 0.10106-0.3285 0.10788-0.31215 0.56777-1.5404 0.098747-0.33798 0.072752-0.34382 0.044242-0.34563 0.011773-0.3433-0.027206-0.36194-0.063419-0.34851-0.09365-0.32855-0.084867-0.2282-0.36064-0.94666-0.16696-0.36613-0.039218-0.10209-0.032924-0.11698-0.016851-0.107-0.007379-0.12614-0.001173-0.51841-0.041786-0.34174-0.052263-0.24651-0.071647-0.25849-0.10993-0.31717-0.1638-0.38553-0.20545-0.41338-0.53213-0.98602-0.18316-0.37107-0.15917-0.35329-0.17381-0.43226-0.078567-0.22116-0.05623-0.18157-0.028725-0.12765 0.008171-0.051711-0.074764 0.032863-0.13274 0.032358-0.3073 0.055224-1.3431 0.17166-0.56681 0.091584-0.57388 0.11265-0.9401 0.2025-0.6226 0.1166-0.3513 0.047226-0.48665 0.03505-0.23048-5.41e-4 -0.16674-0.009669-0.41435-0.060224-0.65329-0.14717-0.42914-0.11933-0.33302-0.10679-0.30712-0.12106-0.31776-0.16148-0.2709-0.17534-0.20216-0.19897-0.046112-0.071074-0.042851-0.086644-0.038457-0.11033-0.025548-0.12414-0.00841-0.10969 0.01294-0.18033 0.02355-0.11268 0.065213-0.21784 0.13022-0.34718 0.01799-0.11144-0.004971-0.10066-0.013841-0.048608-0.07264-0.10286-0.074256-0.050045-0.14074-0.054395-0.26584-0.049036-0.62926-0.065933-0.31293-0.06764-0.2012-0.077971-0.16018-0.08924-0.081353-0.059521-0.15329-0.16771-0.046392-0.090101-0.028799-0.10304-0.010373-0.089733 0.008179-0.24005 0.034073-0.3007 0.018668-0.31341-0.006544-0.16406-0.04035-0.30126-0.06607-0.28446-0.087693-0.28233-0.16824-0.47426-0.04018-0.13426-0.074585-0.34736-0.05085-0.14144-0.070066-0.098741-0.096628-0.073362-0.085502-0.03216-0.078839-0.011101-0.09679 0.001605-0.11217 0.014751-0.21944 0.051832-0.14973 0.047193-0.36057 0.14698-0.2629 0.13393-0.41992 0.2521-0.39884 0.28042-0.50098 0.39596-0.17874 0.10968-0.18808 0.087673-0.24253 0.071358-0.09042 0.013824-0.2701-0.005317-0.26262-0.081268-0.20908-0.11572-0.20124-0.15217-0.12696-0.11674-0.27465-0.30027-0.25975-0.33298-0.24518-0.34562-0.54556-0.81514-0.093897-0.15927-0.057302-0.1201-0.053758-0.14923-0.039045-0.16917-0.019261-0.222 0.004828-0.14156 0.020901-0.18125 0.039452-0.21521 0.046007-0.19027 0.085219-0.27018 0.098583-0.23858 0.076793-0.15309 0.11001-0.1891 0.093032-0.14147 0.15624-0.20704 0.098335-0.10968 0.050925-0.046276 0.025068-0.010144-0.27149-0.083022-0.16007-0.035379-0.32658-0.052131-0.49761-0.040371-0.18666-0.004251-0.32872 0.008913-0.30123 0.029268-0.15625 0.023956-0.26812 0.057279-0.25394 0.076713-0.59646 0.23597-0.16492 0.054302-0.2356 0.054173-0.11957 0.015418-0.23014 0.006864-0.64918-0.063685-0.2314-0.003822-0.20146 0.016163-0.17397 0.034519-0.11589 0.032649-0.21104 0.076634-0.22057 0.1059-0.59882 0.36268-0.23955 0.1289-0.28036 0.119-0.18799 0.051943-0.10802 0.015864-0.1084 0.00357-0.094399-0.008057-0.09411-0.017922-0.17565-0.05621-0.74128-0.33357-0.24882-0.079418-0.15089-0.020861-0.096083 0.005852-0.03917 0.014311-0.016167 0.024088-0.017531-0.025911-0.13144-0.1089-0.34571-0.25179-0.35928-0.23195-0.59577-0.35073-0.30292-0.16185-0.46299-0.22602-1.3195-0.57939-0.19743-0.10167-0.14935-0.089049-0.19154-0.13424-0.17407-0.14424-0.18833-0.17607-0.36927-0.38154-0.20671-0.19082-0.18558-0.13459-0.097048-0.053443-0.12783-0.050649-0.12359-0.028005-0.16308-0.011965-0.20503 0.01582-0.26664 0.059917-0.22108 0.076425-0.21478 0.094229-0.20793 0.10884-0.1944 0.11725-0.32053 0.22389-0.38589 0.29876-1.1376 0.90894-0.18747 0.14076-0.18435 0.13042-0.30853 0.19174-0.18432 0.091384-0.23244 0.078047-0.17761 0.023571-0.1687-0.016124-0.17629-0.071252-0.10768-0.074106-0.14666-0.14089-0.14208-0.18311-0.14766-0.24436-0.169-0.36244-0.088591-0.23981-0.11963-0.40764-0.23246-0.96813-0.096366-0.35214-0.14143-0.41704-0.19997-0.48129-0.24825-0.50183-0.15449-0.28645-0.4381-0.73845-0.16575-0.30019-0.20252-0.42184-0.1395-0.35213-0.11075-0.35629-0.085606-0.42586-0.024798-0.36525 0.030673-0.39915 0.17639-0.95757 0.038136-0.30876 0.014995-0.2104 0.004343-0.2624-0.015111-0.3096-0.024566-0.16282-0.02363-0.081161-0.043697-0.076392-0.070048-0.031797-0.066802 0.027544-0.098184 0.11869-0.066988 0.15247-0.83636-1.5254-0.54741-0.9472-0.96814-1.5542-0.3013-0.44496-0.14992-0.20261-0.15628-0.19601-0.25077-0.2811-0.21672-0.21138-0.24563-0.21095-0.22887-0.17723-0.34522-0.24584-1.0012-0.65658-0.19952-0.14652-0.18677-0.1617-0.10804-0.11372-0.10653-0.13178-0.18015-0.27322-0.071929-0.13351-0.10004-0.21566-0.1387-0.37997-0.056229-0.20736-0.038465-0.18435-0.023535-0.15577-0.020078-0.2218-1.84e-4 -0.32489 0.038366-0.37985 0.07537-0.37286 0.12521-0.46302 0.51302-1.7258 0.10204-0.31871 0.1005-0.2637 0.10848-0.2175 0.10067-0.1503 0.11634-0.13171 0.070239-0.064232 0.13568-0.10174 0.20258-0.11362 0.23815-0.090289 0.097571-0.019596 0.02847 0.004967-0.31676-0.7541-0.32303-0.73832-0.21228-0.4565-0.22819-0.46067-0.25581-0.47841-0.26854-0.46806-0.27751-0.45501-0.28398-0.44004-0.28902-0.42324-0.2935-0.40425-0.29811-0.38232-0.30338-0.35641-0.33848-0.36294-0.3334-0.33334-0.33743-0.29137-0.30844-0.21525-0.57697-0.35835-0.22992-0.17565-0.16132-0.19406-0.014189-0.026564-0.023326-0.053147-0.030722-0.11924-0.00294-0.17352 0.030073-0.1882 0.16701-0.64404 0.029459-0.18369 0.019308-0.19137 0.03119-0.90234 0.015949-0.27004 0.036345-0.35381 0.016797-0.35504-0.019999-0.24283-0.046875-0.26234-0.12105-0.45547-0.14419-0.42865-0.12925-0.31834-0.18071-0.37445-0.14811-0.25321-0.16167-0.22991-0.12907-0.15594-1.0128-1.0756-0.2316-0.21825-0.22099-0.18533-0.31157-0.22152-0.27862-0.15871-0.29421-0.12916-0.2654-0.084319-0.20494-0.044205-0.35331-0.037108-0.36355-0.003976-0.31271 0.013182-0.28189 0.027802-0.20051 0.030536-0.21793 0.043789-0.41172 0.11444-0.19797 0.070292-0.33059 0.14091-0.28939 0.15284-0.15244 0.096259-0.25041 0.1933-0.12628 0.12246-0.10294 0.12196-0.05949 0.087347-0.053401 0.10298-0.028128 0.092254-0.001714 0.052568 0.037844 0.054773-0.13463-0.027611-0.16499-0.053837-0.11915-0.051632-0.2418-0.1257-0.10924-0.040455-0.089484-9.26e-4 -0.19722 0.072543-0.047811 6.81e-4 -0.03923-0.020246-0.039388-0.04628-0.050442-0.10441-0.033433-0.11292-0.016384-0.11257 0.002543-0.073286 0.019126-0.076407 0.091649-0.20081 0.004915-0.052695-0.014028-0.025655 0.17257-0.089273 0.021808-0.024562-0.06232-0.034767-0.35106-0.11819-0.058097 0.005265-0.051609-0.005869-0.17572-0.044532-0.13466-0.066913-0.089604-0.077967-0.060513-0.079377-0.099396-0.21158-0.068314-0.27012-0.039056-0.29464-0.017212-0.29127 0.00167-0.41111 0.017262-0.27688 0.052785-0.38226 0.20081-0.85536 0.045887-0.24041 0.022929-0.18632 0.007101-0.17065-0.012129-0.18683-0.074163-0.31064-0.063355-0.1672-0.15114-0.31904-0.46518-0.8608-0.12272-0.28466-0.044834-0.1517-0.024114-0.15618-0.004424-0.090806 0.004848-0.36892-0.007399-0.1459-0.028702-0.20472-0.13828-0.61352-0.18323-0.87858-0.068327-0.36388-0.054544-0.36927-0.041363-0.3559-0.061907-0.82096-0.019666-0.13619-0.025469-0.10739-0.039527-0.1131-0.050008-0.10037-0.066354-0.096074-0.070803-0.080387-0.10043-0.095593-0.22432-0.18835-0.44774-0.3354-0.415-0.34176-0.36177-0.33852-0.12135-0.12951-0.040729-0.069976-0.36618-0.39219-1.0623-1.0838-0.1616-0.19736-0.14397-0.21378-0.20871-0.38518-0.13478-0.28617-0.25685-0.61313-0.12084-0.2663-0.14909-0.28541-0.17634-0.28502-0.14752-0.20701-0.15871-0.19888-0.30254-0.3275-0.35488-0.32442-0.37558-0.29472-0.34625-0.24435-0.97138-0.6472-0.42494-0.30821-0.51009-0.41674-0.85082-0.7436-0.42925-0.33864-0.45078-0.30132-0.29657-0.17896-1.2404-0.69521-0.62368-0.36939-0.30032-0.19852-0.28368-0.21097-0.25715-0.22519-0.21807-0.23917-0.16068-0.23428-0.11258-0.21998-0.061343-0.1752-5.49e-4 -0.089896 0.015098-0.051106 0.057847-0.11442 0.089686-0.15198 0.11517-0.17113 0.148-0.19217 0.16543-0.19268 0.35907-0.3759 0.37254-0.35884 0.37225-0.34347 1.6157-1.4487 1.2094-1.1154 0.68748-0.60891 1.431-1.2308 0.38228-0.31194 0.40008-0.30636 0.42061-0.286 0.40468-0.23052 0.3664-0.17711 0.13994-0.057994 0.096856-0.02648 0.10727 0.053789 0.59121 0.38443 1.2155 0.828 0.55373 0.39153 0.91427 0.69487 0.61751 0.42384 0.4146 0.25866 0.33604 0.18706 0.28057 0.13114 0.25393 0.092055 0.37078 0.078218 0.3596 0.003475 0.36616-0.046857 0.36894-0.065763 0.3765-0.054391 0.79721-0.039092 0.43567-0.032755 0.44981-0.051315 0.45864-0.065772 0.46281-0.077409 0.92035-0.18406 0.448-0.1064 0.43229-0.11748 0.40933-0.13105 0.37728-0.14832 0.33375-0.17066 0.086858-0.054849 0.21861-0.17364 0.15796-0.16922 0.15163-0.19646 0.21554-0.31919 0.11233-0.1543 0.15031-0.18392 0.12695-0.13123 0.13353-0.10637 0.14674-0.084553 0.16634-0.063157 0.081014-0.022258 0.22926-0.041391 0.55464-0.078404 0.26476-0.073284 0.44378-0.1633 0.17684-0.079881 0.11459-0.061519 0.18869-0.11851 0.21912-0.16134 0.65426-0.54772 0.30579-0.22428 0.31744-0.19165 0.16282-0.079672 0.23197-0.098844 0.23425-0.078812 0.23858-0.055215 0.47535-0.092347 0.25528-0.074578 0.71663-0.27428 0.406-0.12682 0.19705-0.075902 0.18942-0.10325 0.11925-0.081569 0.26868-0.2126 0.52532-0.44366 0.64994-0.52622 0.20237-0.18785 0.10779-0.11444 0.17143-0.20797 0.2606-0.37382 0.18026-0.31045 0.18819-0.38075 0.13672-0.31247 0.1294-0.32488 0.1209-0.33362 0.1256-0.38754 0.10876-0.38875 0.082664-0.35814 0.06058-0.34596 0.09353-0.8614 0.025466-0.16903 0.021322-0.058802-0.025386-0.014819-0.054311-0.10069-0.068508-0.16881-0.066923-0.22007-0.062002-0.31312-0.090978-0.71404-0.056729-0.36947-0.070923-0.32944-0.080715-0.32488-0.16192-0.59832-0.13231-0.35224-0.16018-0.33287-0.18303-0.30645-0.20245-0.27171-0.21993-0.22686-0.1896-0.14711-0.24545-0.15217-0.24429-0.10463-0.12404-0.031043-0.4586-0.057995-0.14341-0.04277-0.12306-0.082462-0.091264-0.11704-0.058674-0.1507-0.087694-0.36207-0.1073-0.2825-0.065858-0.13868-0.080026-0.13894-0.13031-0.17584-0.19601-0.21397-0.1949-0.18646-0.22489-0.2004-0.87244-0.7403-0.28926-0.25804-0.27467-0.26631-0.25012-0.27708-0.21351-0.29114-0.17358-0.32016-0.13311-0.32714-0.10518-0.32141-0.053004-0.18909-0.033328-0.15848-0.018918-0.28254 0.038094-0.27883 0.053675-0.19662 0.087262-0.24014 0.091389-0.21054 0.1056-0.21617 0.13925-0.25639 0.33551-0.53745 0.23972-0.34643 0.24711-0.33779 0.7299-0.9387 0.03131-0.055323 0.052059-0.084768 0.044439-0.21045 0.01972-0.33365 0.003061-0.48776 0.020692-0.65736-0.00682-0.6366-0.033257-0.34309-0.052547-0.247-0.09207-0.27617-0.1478-0.27781-0.18824-0.25172-0.21432-0.22351-0.43284-0.37257-0.24597-0.22648-0.26615-0.29443-0.18466-0.27646-0.12419-0.30396-0.047689-0.30717 0.002803-0.32428 0.033531-0.33476 0.1324-0.91951 0.062276-0.52052 0.074748-1.1751 0.006786-0.3404-0.039768-0.66618 4.33e-4 -0.30015 0.027246-0.61513 0.005065-0.30874-0.03986-1.095 0.009362-0.55814-0.007364-0.53338 0.00947-0.23417 0.047934-0.37746 0.078377-0.39912 0.15114-0.64141 0.060811-0.22853 0.092269-0.29421 0.16761-0.42132 0.59235-1.2409 0.16571-0.40622 0.26756-0.81769 0.12602-0.32467 0.18703-0.36926 0.087992-0.14461 0.19625-0.26827 0.23881-0.25552 0.13219-0.10433 0.084725-0.029643 0.061504 0.40743 0.043677 0.1805 0.038684 0.097674 0.043029 0.066069 0.045277 0.027215 0.033679-0.007456 0.070368-0.063416 0.10889-0.15796 0.58536-1.0265 0.13335-0.26201 0.11671-0.32392 0.080004-0.16842 0.058253-0.080007 0.02739-0.020184 0.020474-0.003143 0.012647 0.011033 0.059858 0.03555 0.16895 0.024018 0.68216-0.007521 0.62019 0.009832 0.74537 0.022186 0.64297 0.042418 0.3076 0.034225 0.34306 0.050289 0.32521 0.061192 0.3011 0.071338 0.50992 0.1431 0.20806 0.042513 0.19818 0.018996 0.15159-9.4e-5 0.2692-0.038256 0.26813-0.089822 0.29184-0.17296 0.17087-0.1615 0.13455-0.18944 0.10458-0.23642 0.15596-0.52999 0.10534-0.30921 0.24849-0.62983 0.14538-0.3463 0.11478-0.22442 0.13372-0.21879 0.14374-0.20244 0.50262-0.65776 0.58839-0.73119 0.22594-0.29856 0.17251-0.25256 0.11275-0.18879 0.1353-0.27499 0.079626-0.21755 0.072725-0.33583 0.03-0.35059 5.61e-4 -0.35983-0.056457-1.0036-0.008114-0.35405 0.00915-0.24184 0.027598-0.22776 0.066892-0.2711 0.089966-0.25349 0.10719-0.25238 0.12626-0.22589 0.15808-0.18432 0.23502-0.14516 0.27372-0.070929 0.2908 0.002776 0.28749 0.081578 0.20029 0.11349 0.19338 0.14914 0.49675 0.46468 0.35222 0.31489 0.22717 0.1883 0.6778 0.52804 0.20235 0.16638 0.28268 0.27331 0.16703 0.19257 0.15372 0.20557 0.21082 0.35353 0.1358 0.31446 0.10547 0.33325 0.098394 0.44278 0.067968 0.44326 0.030348 0.27817 0.082468 1.2947 0.039882 0.36895 0.075089 0.47318 0.029901 0.13369 0.092655 0.3132 0.15798 0.35248 0.19174 0.3097 0.20038 0.25146 0.17814 0.16925 0.12101 0.049709 0.005861-0.02667 0.035373-0.050433 0.093037-0.10551 0.13566-0.1363 0.2028-0.18493 0.27827-0.22692 0.14112-0.10477 0.34107-0.23029 0.32237-0.19374 0.34242-0.18541 0.56286-0.276 1.2069-0.55258 0.27714-0.14472 0.23207-0.14644 0.1162-0.085446 0.16834-0.14032 0.13456-0.1263 0.68677-0.71364 0.42131-0.40708 0.35625-0.31519 0.50404-0.40588 0.45719-0.33566 0.44389-0.30283 0.46366-0.29638 1.956-1.2015 0.45993-0.2965 0.50986-0.35024 0.31208-0.22866 0.56661-0.44086 0.89963-0.72617 0.96996-0.81483 0.2581-0.20538 0.26163-0.19452 0.26421-0.17874 0.26623-0.1582 0.26725-0.13239 0.93063-0.35108 0.57703-0.23898 0.17862-0.079961 0.081604-0.052035 0.00102-0.08265-0.064434-0.16116-0.14911-0.2702-0.48232-0.75942-0.24454-0.403-0.2459-0.48029-0.13106-0.33159-0.091441-0.34183-0.039489-0.20438-0.037076-0.26874-0.039889-0.46522-0.010817-0.78194-0.03077-0.78601 0.003367-0.16237 0.027298-0.31054 0.051704-0.30979 0.08263-0.35709 0.28631-0.99013 0.1638-0.6373 0.07593-0.21798 0.1323-0.27913 0.16869-0.23872 0.087503-0.088969 0.18252-0.13633 0.20294-0.10071 0.24722-0.074171 0.2379-0.029042 0.15804 0.002661 0.22869 0.028971 0.52716 0.11613 0.67723 0.13193 0.13625 0.015462 0.19859 0.003368 0.1877-0.018664 0.13313-0.027224 0.60898-0.18986 0.22753-0.051274 0.22912-0.037226 0.38553-0.040104 0.32804-0.021966 1.626-0.053346 0.43452-0.037648 0.43638-0.061763 0.43245-0.089405 0.42183-0.12236 0.40318-0.1625 0.28501-0.15231 0.26724-0.17646 0.24797-0.19572 0.17197-0.15174 0.26053-0.25844 0.20222-0.22125 0.18653-0.23233 0.15072-0.22296 0.11712-0.20281 0.1003-0.20136 0.12925-0.3196 0.072828-0.24935 0.007033-0.11719 0.069786 0.00932 0.16775 0.001292 0.23098-0.012893 0.5724-0.060763 0.41906-0.020696 1.383-0.011866 0.97415-0.03072 0.32642-0.020015 0.50543-0.05891 0.29526-0.063498 0.28162-0.090272 0.30399-0.14082 0.26788-0.18333 0.19606-0.19399 0.14406-0.1811 0.24366-0.36575 0.34831-0.57548 0.20999-0.41526 0.36442-0.86078 0.1489-0.27068 0.16854-0.25582 0.19339-0.2433 0.067338-0.072951 0.28889-0.2606 0.32523-0.20732 0.35495-0.16707 0.36847-0.13629 0.36059-0.10531 0.35918-0.059693 0.31987-6.31e-4 0.31453 0.036169 0.1819 0.031545 0.25112 0.053517 0.50936 0.12609 0.25788 0.046374 0.33714 0.025332 0.51832 0.009001 0.23256 0.023731 0.25335 0.03801 0.46494 0.10907 0.18175 0.02522 0.16261-0.012242 0.083632-0.030725 0.081742-0.054526 0.11727-0.14782 0.23536-0.45771 0.10391-0.13899 0.071297-0.078051 0.22461-0.18584 0.25439-0.1533 1.1674-0.61918 0.58591-0.29992 0.29685-0.14285 0.34967-0.1562 0.34529-0.13622 0.33698-0.10839 1.0044-0.23658 0.23606-0.043676 0.34918-0.028325 0.5894 0.022669 0.12718-0.031862 0.044387-0.03387 0.057966-0.13351 0.010766-0.18405-0.004312-0.13773-0.017658-0.14554-0.043602-0.17308-0.11117-0.34888-0.035811-0.21366 0.013889-0.22991 0.092634-0.26175 0.1605-0.26814 0.21195-0.27269 0.3457-0.36766 0.34696-0.33052 0.23042-0.20158 0.32626-0.25345 0.28672-0.18921 0.29433-0.15629 0.30088-0.11237 0.19639-0.04472 0.31618-0.037227 0.29855-0.005665 0.7363 0.03232 0.22204 0.019711 0.74112 0.1075 0.36268 0.02848 0.20438-0.005711 0.50972-0.050502 0.21261-0.033657 0.20994-0.050344 0.21839-0.078769 0.21306-0.10227 0.17452-0.099708 1.1798-0.75225 0.31384-0.1877 0.74452-0.42032 0.36882-0.2252 0.29886-0.20637 0.28944-0.22219 0.27985-0.23571 0.39868-0.37751 0.32831-0.3464 0.25063-0.28048 0.49945-0.58644 0.49598-0.61032 0.29105-0.37342 0.28233-0.37894 0.26976-0.38602 0.25231-0.39523 0.22463-0.39426 0.20748-0.40129 0.21059-0.44045 0.18412-0.41326 0.1685-0.41164 0.14837-0.40839 0.12239-0.40324 0.089005-0.39577 0.10382-0.74116 0.087153-0.44581 0.11104-0.4025 0.055066-0.16314 0.090809-0.22834 0.11452-0.24579 0.091622-0.1735 0.22144-0.34504 0.19281-0.22644 0.21738-0.18771 0.20881-0.12643 0.28658-0.12737 0.30109-0.10575 0.37476-0.10686 0.25448-0.044973 0.3599-0.031408 0.49337-0.004255 1.2087 0.048884 0.60717 0.012576 0.42817-0.014722 0.2663-0.026931 0.16076-0.025609 0.27597-0.064739 0.37535-0.12457 0.2653-0.1092 0.52679-0.26288 0.14637-0.065201 0.098952-0.034135 0.14202-0.03339 0.12814-0.013338 0.1108 0.002611 0.09876 0.014124 0.1487 0.039967 0.16237 0.064621 0.41232 0.18807 0.14977 0.051036 0.16211 0.03877 0.19446 0.029357 0.1975 0.015108 0.6998 0.019095 0.43277 0.03913 0.45142 0.083138 0.4073 0.12162 0.29726 0.11311 0.92156 0.40379 0.30349 0.11905 0.17887 0.0478 0.062515 0.001557 0.007335-0.014779 0.032057-0.03533 0.063572-0.10188 0.062472-0.11846 0.068269-0.1557 0.057307-0.18909 0.017448-0.096111 0.014304-0.17481-0.011257-0.26881-0.083272-0.55581 0.003397-0.16958 0.037242-0.30332-0.01252-0.18656-0.059979-0.19908-0.13505-0.31279-0.081323-0.24045-0.044184-0.22645-0.015018-0.17129 4.7e-4 -0.19098 0.034102-0.27015 0.064747-0.25706 0.12331-0.33657 0.022025-0.008404 0.13029-0.0082 0.29146 0.002617 0.32714 0.035309 0.31188 0.078756 0.32274 0.13577 0.05837 0.031554 0.20768 0.13067 0.26279 0.2012 0.35441 0.32547 0.25687 0.27121 0.24441 0.28703 0.24584 0.32397 0.22086 0.3363 0.18853 0.34803 0.13994 0.33437 0.10225 0.34213 0.06092 0.34768 0.016219 0.36373-0.027695 0.3645" stroke="#bdc660"/>
    </defs>
    <g clip-path="url(#p288de31910)">
     <use y="280.512" fill="#bdc660" stroke="#bdc660" xlink:href="#m61ffe140f3"/>
    </g>
   </g>
  </g>
 </g>
 <defs>
  <clipPath id="p288de31910">
   <rect x="7.2" y="7.2" width="190.23" height="266.11"/>
  </clipPath>
 </defs>
</svg>
