<?xml version="1.0" encoding="UTF-8"?>
<!DOCTYPE svg  PUBLIC '-//W3C//DTD SVG 1.1//EN'  'http://www.w3.org/Graphics/SVG/1.1/DTD/svg11.dtd'>
<svg width="365.55pt" height="280.51pt" version="1.1" viewBox="0 0 365.55 280.51" xmlns="http://www.w3.org/2000/svg" xmlns:xlink="http://www.w3.org/1999/xlink">
 <metadata>
  <rdf:RDF xmlns:cc="http://creativecommons.org/ns#" xmlns:dc="http://purl.org/dc/elements/1.1/" xmlns:rdf="http://www.w3.org/1999/02/22-rdf-syntax-ns#">
   <cc:Work>
    <dc:type rdf:resource="http://purl.org/dc/dcmitype/StillImage"/>
    <dc:date>2024-07-04T12:10:37.369318</dc:date>
    <dc:format>image/svg+xml</dc:format>
    <dc:creator>
     <cc:Agent>
      <dc:title>Matplotlib v3.7.1, https://matplotlib.org/</dc:title>
     </cc:Agent>
    </dc:creator>
   </cc:Work>
  </rdf:RDF>
 </metadata>
 <defs>
  <style type="text/css">*{stroke-linejoin: round; stroke-linecap: butt}</style>
 </defs>
 <g id="figure_1">
  <g id="patch_1">
   <path d="m0 280.51h365.55v-280.51h-365.55v280.51z" fill="none"/>
  </g>
  <g id="axes_1">
   <g id="PatchCollection_1">
    <defs>
     <path id="m4750022ece" d="m165.16-257.82 0.25322 0.074971 0.21275-0.001486 0.25328-0.070727 0.19906-0.10155 0.19083-0.12743 0.74056-0.59122 0.13887-0.086057 0.11372-0.040907 0.050607 0.001792 0.068373 0.075952 0.007259 0.076387-0.011654 0.10656-0.12432 0.54813-0.023783 0.16327-0.003395 0.2778 0.045704 0.23635 0.051133 0.13528 0.14355 0.24636 0.14856 0.18115 0.17566 0.17057 0.16509 0.13382 0.1795 0.1249 0.20553 0.12259 0.44078 0.2083 0.23129 0.086353 0.59607 0.17188 0.88562 0.19599 1.5153 0.38363 0.43567 0.075744 0.30387 0.025756 0.37284 0.00617 0.49968-0.022024 1.8545-0.1585 1.1678-0.12046 0.31315-0.021721 0.36751 0.002265 0.28093 0.043773 0.14908 0.066308 0.039026 0.083914 0.045893-0.025134 0.22771-5.8e-4 0.47669 0.080784 0.59321 0.16443 0.64167 0.23494 0.64287 0.29609 0.60913 0.35313 0.54691 0.41157 0.45854 0.47683 0.17706 0.24677 0.22489 0.38942 0.19443 0.41302 0.19946 0.48661 0.60549 1.5802 0.29842 0.71773 0.42885 0.97262 0.21608 0.4539 0.17517 0.33694 0.40813 0.70218 0.23375 0.36401 0.36278 0.5252 0.3801 0.5138 1.8561 2.3289 1.5486 2.0875 2.3776 3.1152 0.3657 0.49732 0.81068 1.1442 1.0177 1.4678 0.49862 0.65998 0.28104 0.33757 0.29259 0.32423 0.30493 0.3123 0.31265 0.29702 0.67899 0.58125 1.1284 0.89904 0.59891 0.51013 0.54621 0.51654 0.27694 0.29213 0.25596 0.29993 0.22357 0.30129 0.29247 0.49751 0.24548 0.52078 0.18171 0.43619 0.4159 1.1554 0.19974 0.50881 0.21875 0.48261 0.2627 0.51418 0.34981 0.60953 0.38494 0.60108 0.39492 0.55017 0.41388 0.51006 0.34177 0.36969 0.3257 0.31615 0.45533 0.3933 0.45204 0.34266 0.40358 0.2748 0.38408 0.24 1.3687 0.79481 0.66724 0.4077 0.597 0.4065 0.88042 0.65852 0.87762 0.73708 1.5794 1.4152 0.74568 0.69407 0.52177 0.53072 0.038775 0.004747 0.055043-0.02025 0.20718-0.12314 0.48632-0.36691 0.28204-0.23747 0.58724-0.54082 0.29067-0.29773 0.34911-0.39896 0.21572-0.27802 0.27247-0.39807 0.20973-0.3548 0.20984-0.41397 0.52573-1.1883 0.22504-0.46314 0.24197-0.42444 0.3438-0.49422 0.3224-0.36669 0.44378-0.3754 0.35474-0.21124 0.38122-0.16691 0.36015-0.11638 0.37323-0.086946 0.6399-0.082887 0.40598-0.015139 0.3231 0.005352 0.47151 0.027631 1.8349 0.16229 0.6208 0.037271 1.1951 0.044279 0.49922 0.029221 0.45529 0.060141 0.66278 0.1449 0.22618 0.020027 0.19806-0.0208 0.2222-0.08357 0.19163-0.11885 0.3715-0.28193 0.26114-0.17843 0.26154-0.14792 0.40562-0.19194 0.96581-0.39072 0.59992-0.20075 0.406-0.10943 0.53187-0.10198 0.46079-0.048743 0.28654-0.011993 0.46847 0.007762 0.46768 0.034522 0.48139 0.055436 0.99551 0.14058 0.50113 0.057262 0.42738 0.020614 0.3983-0.02401 0.36701-0.087978 0.21444-0.10035 0.19491-0.13156 0.16386-0.14582 0.16299-0.18242 0.23816-0.33418 0.53127-0.91824 0.38706-0.61536 0.17982-0.30844 0.13053-0.2531 0.51999-1.1205 0.42938-0.77426 0.18065-0.3484 0.18823-0.45253 0.10723-0.32678 0.19539-0.74149 0.13962-0.63599 0.095901-0.52503 0.10706-0.78604 0.048795-0.57466 0.056051-0.88946 0.031919-0.27908 0.037741-0.21352 0.078756-0.29253 0.041353-0.11234 0.18088-0.34946 0.2418-0.26382 0.2462-0.13588 0.2771-0.064826 0.37032 0.004616 0.79675 0.1046 0.42141-0.006508 0.30287-0.063967 0.42121-0.16819 0.46212-0.28388 0.29309-0.23768 0.23167-0.2267 0.2168-0.25121 0.29155-0.4072 0.28626-0.47874 0.2494-0.47713 0.20041-0.42395 0.2947-0.70217 0.13957-0.39129 0.11372-0.38523 0.076968-0.34138 0.04357-0.27914 0.029015-0.35709 0.005279-0.36051-0.071437-1.4376-0.008883-0.54731 0.071627-1.8553 0.017773-1.2482 0.019825-0.59158 0.044179-0.49675 0.083455-0.45522 0.13858-0.39959 0.21278-0.32664 0.2974-0.23912 0.37159-0.17669 0.42917-0.14015 0.29064-0.078368 0.82075-0.17706 0.49345-0.077097 0.57846-0.059828 0.4532-0.023444 0.67281-0.004447 0.95092 0.036315 3.132 0.23496 0.59128 0.062176 0.56666 0.092299 0.55991 0.12477 0.55094 0.15534 0.53932 0.18546 0.52449 0.21657 0.34261 0.163 1.541 0.81293 0.60498 0.27282 0.61959 0.19841 0.403 0.072943 0.55894 0.039295 0.56751-0.01775 0.72672-0.086302 0.47671-0.083393 0.81715-0.18537 0.67703-0.19269 0.40419-0.1307 0.76172-0.28265 0.35357-0.1518 0.36285-0.17427 0.34128-0.18606 0.35969-0.23305 0.2239-0.17557 0.22497-0.19872 0.21267-0.21142 0.25072-0.28566 0.9641-1.1957 0.51041-0.563 0.20775-0.21634 0.32372-0.30129 0.44585-0.3394 0.22477-0.14225 0.65501-0.33775 0.35471-0.19669 0.64033-0.42033 0.3068-0.18188 0.30457-0.11838 0.32032-0.062653 0.34638-0.005034 0.34995 0.030872 0.30967 0.037534 0.40717 0.087727 0.40344 0.1478 0.33714 0.19077 0.29981 0.21823 0.21126 0.17868 0.49046 0.44814 0.25926 0.20656 0.47878 0.33727 0.27773 0.1438 0.19772 0.083103 0.28711 0.095711 0.23596 0.055809 0.82545 0.13795 0.20073 0.070654 0.17001 0.1057 0.21343 0.18997 0.19669 0.232 0.1778 0.26279 0.50386 0.92293 0.13206 0.20348 0.18638 0.21974 0.28263 0.21458 0.21655 0.1042 0.22491 0.078079 0.40882 0.10005 1.4502 0.25805 0.56969 0.15391 0.47678 0.18519 0.29525 0.14926 0.47767 0.30231 0.32058 0.24416 0.39159 0.33983 1.1261 1.0971 0.23611 0.20345 0.33958 0.24911 0.31593 0.18174 0.31954 0.1444 0.24864 0.090595 0.4162 0.10898 0.40033 0.018992 0.23441-0.047847 0.226-0.092028 0.33297-0.22644 0.25778-0.26637 0.17614-0.24212 0.17261-0.30065 0.12874-0.27672 0.13873-0.36201 0.34168-1.0471 0.22358-0.57316 0.15528-0.3243 0.30693-0.57522 0.16054-0.33956 0.10214-0.25134 0.11729-0.3408 0.21261-0.69442 0.16212-0.42513 0.14921-0.30108 0.26271-0.40688 0.25589-0.30967 0.2668-0.26971 0.37179-0.31989 0.45594-0.33596 0.44012-0.28856 0.50162-0.30713 1.0382-0.60371 0.89339-0.48607 0.54286-0.2664 0.84984-0.38768 0.324-0.17182 0.68344-0.39312 0.5507-0.28636 0.40174-0.17945 0.19229-0.064856 0.38746-0.08313 0.421-0.04316 0.5946-0.019549 1.3193-0.015569 0.77914-0.023673 2.1275-0.12813 0.59501 0.011489 0.56016 0.074362 0.47673 0.11832 0.3411 0.1301 0.129 0.10609 5.5662 4.1015 0.51831 0.35593 0.45154 0.27968 0.37611 0.19568 0.18812 0.080237 0.25096 0.085816 0.44485 0.10048 0.31568 0.045941 0.64642 0.058315 1.3361 0.056109 3.9484 0.089562 0.47497 0.021484 0.12409 0.088231 0.14555 0.33627 0.12996 0.5028 0.095633 0.60753 0.043876 0.54623 0.00948 0.4609-0.015343 0.46929-0.056811 0.59852-0.11473 0.67446-0.16892 0.688-0.21395 0.68234-0.12569 0.34882-0.26169 0.65046-0.60636 1.394-0.18993 0.48846-0.13484 0.41423-0.099455 0.40626-0.067826 0.40442-0.14364 1.077-0.12963 0.6154-0.15449 0.61226-0.1916 0.5797-0.24643 0.58149-0.29861 0.57023-0.35274 0.54483-0.33036 0.4171-0.36127 0.39042-0.38456 0.36332-0.24222 0.20472-0.52863 0.37463-0.57521 0.338-0.60544 0.31568-1.2479 0.61388-0.61834 0.32188-0.59836 0.3488-0.56462 0.39076-0.34411 0.285-0.32361 0.30759-0.30312 0.3282-0.2811 0.34798-0.22446 0.3169-0.20787 0.32958-0.25107 0.44704-0.887 1.735-0.39403 0.73028-0.508 0.85525-0.20337 0.31111-0.3766 0.5323-0.38501 0.48016-0.24406 0.26455-0.33765 0.32218-0.53074 0.42829-1.0558 0.76047-0.48138 0.40303-0.27553 0.27824-0.23141 0.30505-0.090235 0.17594-0.072314 0.30236-0.005129 0.31223 0.010888 0.31986-0.008929 0.55417 0.02739 0.29603 0.048141 0.22348 0.083683 0.27291 0.10883 0.28684 0.16778 0.38203 0.19316 0.39762 0.77947 1.5087 0.99907 2.0393 0.27451 0.52931 0.33722 0.59869 0.17348 0.2829 0.29184 0.43388 0.23638 0.31335 0.39381 0.45812 0.6771 0.69771 0.27645 0.2651 0.81634 0.68711 0.21777 0.20849 0.17976 0.19275 0.3154 0.39086 0.89923 1.2593 0.33363 0.39676 0.32246 0.31906 0.23156 0.2042 0.93884 0.77115 0.30079 0.27401 0.40592 0.42971 0.30021 0.3887 0.30802 0.50764 0.2187 0.43452 0.13022 0.34152 0.21508 0.69839 0.14619 0.41819 0.24466 0.55172 0.23558 0.41446 0.16106 0.23501 0.1514 0.19574 0.17996 0.21067 0.28392 0.30269 0.25174 0.24464 0.94992 0.84827 0.39075 0.39695 0.19902 0.23432 0.12736 0.171 0.13475 0.2032 0.1628 0.28264 0.19231 0.3929 0.17262 0.42943 0.53294 1.7009 0.23341 0.66314 0.35401 0.94201 0.18809 0.54857 0.07942 0.26852 0.043006 0.20398-0.099879 0.069322-0.14578 0.001893-0.12405-0.016827-0.2654-0.065976-0.3321-0.12141-0.5365-0.26154-0.28153-0.16062-0.45944-0.29004-0.264-0.18585-0.41326-0.33038-0.34426-0.33322-0.2284-0.26008-0.31811-0.41574-0.55262-0.78396-0.19149-0.19225-0.096191-0.068286-0.11001-0.05712-0.13817-0.041994-0.11233-0.010471-0.1706 0.024097-0.16786 0.069344-0.10827 0.067852-0.17515 0.14379-0.38388 0.41296-0.19263 0.13844-0.38398 0.23232-0.1113 0.089132-0.11498 0.12078-0.14125 0.22405-0.10285 0.25447-0.17694 0.58712-0.27267 0.82295-0.11283 0.4623-0.20335 1.0065-0.25565 1.0044-0.11456 0.54898-0.055702 0.42849-0.062996 0.87397-0.040156 0.77635-0.060667 1.7072-0.030072 0.53489-0.074085 0.88036-0.07986 0.60526-0.089292 0.43021-0.079566 0.2951-0.097601 0.28831-0.12173 0.27346-0.30289 0.4665-0.31272 0.37039-0.79227 0.86666-0.31771 0.3935-0.32642 0.48624-0.52827 0.91002-0.17351 0.25662-0.17822 0.23226-0.73076 0.81868-0.38039 0.44538-0.35867 0.38144-0.41275 0.36104-0.43726 0.34361-0.43509 0.32975-0.32318 0.2237-0.30451 0.18432-0.24385 0.12098-0.25099 0.093148-0.073249 0.014896-0.044146-0.00793 0.023201 0.071297 0.062925 0.11925 0.2045 0.33372 0.89478 1.293 0.9123 1.4326 0.30984 0.50896 0.39838 0.75717 0.78638 1.658 0.2201 0.40534 0.6027 1.0416 0.2623 0.53771 0.17492 0.45524 0.19384 0.64424 0.1998 0.82483 0.21784 1.0164 0.18979 0.82078 0.177 0.64514 0.1657 0.51184 0.21638 0.569 0.25397 0.57391 0.27005 0.54294 0.44411 0.80549 0.75022 1.2619 0.24642 0.43651 0.28954 0.5766 0.21347 0.49735 0.17219 0.45796 0.15456 0.46394 0.22387 0.78429 0.2929 1.2513 0.355 1.7526 0.1612 0.63524 0.12951 0.35974 0.13633 0.27949 0.42035 0.68931 0.15323 0.2726 0.12706 0.29046 0.09922 0.36154 0.064065 0.502 0.015258 0.49352-0.007099 0.39925-0.02902 0.53423-0.04207 0.4734-0.064235 0.53097-0.086378 0.54909-0.17229 0.81002-0.13448 0.47925-0.18553 0.54124-0.22945 0.55976-0.32657 0.67195-0.25857 0.46417-0.29747 0.47905-0.3051 0.44019-0.23561 0.30406-0.10235 0.10231 0.22742-0.005749 1.6623-0.13318 0.79302-0.013045 0.53841 0.024908 0.80652 0.076444 0.60681 0.08022 0.63668 0.1108 0.61709 0.14875 0.51508 0.16739 0.62029 0.25721 0.55204 0.27423 0.40389 0.22328 1.4925 0.8937 0.4712 0.27042 0.36395 0.18438 0.26818 0.11525 0.24121 0.087688 0.28628 0.083474 0.37647 0.075392 0.59347 0.04387 0.58876-0.032114 1.1218-0.10316 0.39793-0.01057 0.40111 0.009134 0.37035 0.024067 0.64375 0.075579 0.59178 0.10902 0.35997 0.087265 0.35152 0.1038 0.34168 0.12238 0.3282 0.14161 0.41631 0.22224 0.33261 0.22092 0.3704 0.30435 0.95215 0.91656 0.32254 0.24226 0.19889 0.10631 0.20401 0.066737 0.27735 0.019574 0.22624-0.033295 0.1915-0.055185 0.24066-0.096364 0.18609-0.08957 0.80222-0.44868 0.19734-0.09545 0.22796-0.075711 0.18847-0.014695 0.098687 0.01645 0.11773 0.048215 0.071276 0.047981 0.10247 0.10148 0.066197 0.092756 0.097057 0.19658 0.059164 0.17676 0.072526 0.30747 0.22002 1.126 0.23759 0.88621 0.088407 0.41494 0.13371 0.92426 0.043012 0.51169 0.10092 1.8972 0.066932 0.71557 0.059683 0.43468 0.09551 0.54708 0.18075 0.78822 0.28976 1.0887 0.29446 0.98012 0.043294 0.26643-0.008329 0.2459-0.065321 0.2429-0.19267 0.32363-0.27791 0.29266-0.31477 0.24647-0.2924 0.17836-0.20114 0.080608-0.067668 0.013918-0.075936 0.087563-0.071058 0.14056-0.062082 0.21375-0.040671 0.24582-0.083055 0.75978-0.047305 0.21767-0.073901 0.18119-0.076849 0.10565-0.093456 0.084637-0.5822 0.38978-0.14436 0.10855-0.11703 0.10472-0.07594 0.097273-0.018981 0.085867 0.03919 0.062873 0.080315 0.053115 0.10733 0.045225 0.37937 0.12136 0.11538 0.075336 0.044837 0.079745 0.013995 0.071977-0.007899 0.10992-0.023256 0.080701-0.058657 0.12581-0.2093 0.30221-0.14794 0.17668-0.36349 0.396-0.78328 0.81286-0.30544 0.34594-0.31144 0.40763-0.20008 0.31056-0.40406 0.71805-0.15907 0.32389-0.08888 0.21082-0.19942 0.60541-0.24617 0.96313-0.089561 0.30059-0.084212 0.2117-0.059932 0.10282-0.054744 0.048646-0.016477-0.002848-0.057779 0.01956-0.14829 0.022929-0.97123 0.12226-0.75782 0.11184-0.58097 0.11265-0.26075 0.062574-0.49051 0.14497-0.53396 0.1953-0.28527 0.13732-0.26242 0.16362-0.2329 0.19108-0.19916 0.21639-0.19945 0.26731-0.1703 0.29025-0.14512 0.30535-0.12441 0.3091-0.20041 0.55589-0.13636 0.31816-0.12642 0.2045-0.094013 0.095877-0.10942 0.065013-0.07153 0.009274-0.066721-0.018344-0.10589-0.098259-0.2514-0.33174-0.18391-0.15932-0.22913-0.15094-0.26246-0.13815-0.4103-0.16493-0.49124-0.15274-0.70519-0.16542-0.27328-0.076512-0.73504-0.29237-0.23095-0.079668-0.18976-0.047521-0.17074-0.026962-0.16394-0.012192-0.31103 0.007416-1.2021 0.15015-0.25294 0.052418-0.17396 0.058673-0.12912 0.068212-0.13006 0.11402-0.07247 0.10858-0.061373 0.16094-0.036195 0.29312 0.008035 0.19538 0.026754 0.20361 0.087567 0.3793 0.11214 0.33817 0.0945 0.22902 0.057361 0.097548 0.008591 0.42272-0.060849 2.4229 0.004938 0.74967 0.024319 0.59739 0.039882 0.49634 0.039058 0.33036 0.22479 1.4303 0.029256 0.35793-0.006576 0.544-0.12534 1.4941-0.020094 0.48446 0.003261 0.55208 0.03786 0.59322 0.065874 0.57891 0.30787 1.9901 0.047361 0.45942 0.10065 1.4783 0.009029 0.63784-0.047705 0.59956-0.2305 1.5421-0.051212 0.4415-0.026009 0.36798-0.005902 0.35874 0.047537 0.57696 0.066364 0.30785 0.097985 0.28538 0.13703 0.27339 0.16276 0.25662 0.24123 0.32801 0.27384 0.30468 0.32553 0.28212 0.31544 0.22231 0.63783 0.4106 0.31686 0.19398 0.30497 0.16726 1.0814 0.54379 0.59915 0.26065 0.47494 0.16026 0.78335 0.21723 0.46409 0.11948 0.41288 0.069152 0.35235 0.028311 0.35767 0.001002 0.48673-0.047361 0.47244-0.11472 0.2768-0.10744 0.23317-0.10921 0.96084-0.4965 0.41075-0.18457 0.54092-0.20958 1.9388-0.70406 0.41775-0.14813 0.41919-0.126 0.23462-0.047927 0.21686-0.017283 0.093761 0.005681 0.11971 0.024545 0.12724 0.054742 0.13136 0.097214 0.078261 0.086518 0.088245 0.1467 0.041945 0.11097 0.047805 0.21826 0.025144 0.24458 0.008884 0.21671-0.007018 0.41831-0.085806 1.0802-0.1285 2.152-0.051923 0.5455-0.076673 0.53403-0.080783 0.38687-0.10765 0.37465-0.19001 0.47913-0.63163 1.2672-0.3423 0.78375-0.10777 0.29083-0.141 0.44956-0.10473 0.40183-0.090063 0.41154-0.08914 0.49792-0.072015 0.50715-0.061073 0.56344-0.044205 0.57036-0.041189 1.1165 0.015575 1.2128 0.030651 0.67424 0.092657 1.2939 0.14651 1.5206 0.2273 2.0826 0.17677 1.3431 0.11209 0.68698 0.13781 0.6809 0.16815 0.64841 0.21014 0.63135 0.15208 0.37364 0.17091 0.36216 0.23204 0.42158 0.19454 0.31186 0.33194 0.48934 1.0802 1.5094 0.16549 0.26697 0.023413 0.080115-0.025106 0.022248-0.072747 0.045605-0.35892 0.15102-2.006 0.69785-0.97899 0.35334-0.40131 0.16521-0.35182 0.18594-0.17586 0.11495-0.25725 0.19867-0.16484 0.1478-0.28313 0.29136-0.27587 0.32972-0.53662 0.6943-0.18807 0.20935-0.3318 0.30952-0.52006 0.37176-0.48265 0.25494-0.4895 0.17865-0.28867 0.067701-0.83718 0.1491-0.57242 0.075485-0.24294 0.011217-0.22242-0.004012-0.54598-0.034651-0.36124-0.007103-0.39935 0.02719-0.41404 0.063361-1.4665 0.29544-0.53816 0.07357-0.32146 0.020072-0.25087 2.97e-4 -0.87724-0.037217-0.46218-0.033122-0.25878-0.03906-0.28238-0.060787-0.29192-0.081238-0.26765-0.092041-0.49608-0.21965-0.36509-0.20536-0.42544-0.29981-0.22669-0.19626-0.6743-0.70631-0.28804-0.25041-0.5977-0.43857-2.0086-1.333-0.64426-0.37595-0.46279-0.23834-0.36354-0.17022-0.24938-0.098917-0.40588-0.11677-0.4217-0.076506-0.69031-0.069111-1.1057-0.081982-0.52398-0.067801-0.48262-0.11204-0.42181-0.17893-0.23598-0.16283-0.21014-0.19048-0.31396-0.33705-0.34084-0.33609-0.32862-0.2412-0.37924-0.21079-0.42074-0.17605-0.31262-0.099662-0.32575-0.082306-0.36662-0.072225-0.375-0.05654-0.69411-0.071845-1.2701-0.086962-0.58703-0.063816-0.51754-0.11242-0.13988-0.046594-0.1808-0.072124-0.20256-0.099239-0.21422-0.12387-0.17996-0.12028-0.36119-0.27732-0.74676-0.62883-0.31733-0.25174-0.51182-0.36931-0.37624-0.22789-0.24493-0.11595-0.45891-0.14473-0.11838-0.026933-0.25402-0.048708-0.30019-0.039628-0.41538-0.011351-0.30331 0.042088-0.35053 0.10158-0.34874 0.13283-0.81896 0.3449-0.69098 0.27387-0.43345 0.14876-0.63296 0.18552-0.42674 0.11024-0.51043 0.10109-0.30368 0.035727-0.87281 0.062107-0.27452 0.038328-0.39702 0.078082-0.28108 0.072529-0.70397 0.22584-0.95283 0.27105-0.35537 0.11572-0.31625 0.13093-0.19457 0.10691-0.22218 0.16651-0.12316 0.12168-0.19962 0.24906-0.18611 0.28372-0.46075 0.75952-0.32789 0.44731-0.26225 0.28231-0.31812 0.29275-0.24939 0.2069-0.35533 0.27005-0.42651 0.29121-0.32321 0.19837-0.25833 0.1449-0.41489 0.20294-0.25278 0.094265-0.080056 0.013326-0.031968-0.009824-0.064794 0.032085-0.15864 0.17763-0.37295 0.61646-0.63085 0.98985-0.19722 0.37327-0.13478 0.33571-0.20085 0.63414-0.11265 0.30847-0.11582 0.23408-0.080736 0.12705-0.24588 0.29925-0.25528 0.25642-2.0734 1.8604-0.77031 0.72576-0.70304 0.72908-0.38221 0.42759-0.36968 0.44032-0.4672 0.60565-0.28302 0.39756-0.30106 0.45096-0.28538 0.45716-0.26543 0.45669-0.2456 0.46093-0.33034 0.71646-0.16603 0.43108-0.13878 0.43071-0.10847 0.43373-0.069919 0.43055-0.023195 0.36585 0.016585 0.36147 0.062083 0.36504 0.10115 0.35974 0.12181 0.33142 0.14052 0.3293 0.62304 1.3473 0.28102 0.67667 0.16175 0.46688 0.10874 0.38108 0.092554 0.3873 0.12409 0.66501 0.04611 0.35713 0.029417 0.35874 0.009617 0.43169-0.018508 0.38735-0.049314 0.42128-0.057884 0.32819-0.08479 0.37973-0.17372 0.62516-0.17466 0.52161-0.26721 0.68435-0.26328 0.58567-0.23488 0.46422-0.89194 1.6254-0.74263 1.2958-0.66921 1.0915-0.43516 0.66974-0.22863 0.32256-0.20298 0.25823-0.18149 0.20201-0.22011 0.20386-0.25294 0.17856-0.27153 0.12554-0.45466 0.070727-0.49077-0.062004-0.2037-0.058434-0.34719-0.13789-0.12066-0.058923-0.4663-0.28867-0.39445-0.33373-0.28243-0.31187-0.19341-0.272-0.24809-0.47838-0.4268-1.0363-0.3175-0.85568-0.4479-1.0071-0.197-0.47634-0.47463-1.3774-0.1923-0.44927-0.21986-0.44208-0.20613-0.36544-0.22375-0.35339-0.23356-0.33427-0.34143-0.43905-0.40309-0.46414-0.42796-0.44337-0.56178-0.52254-0.29918-0.25267-0.46127-0.35686-0.56506-0.38834-0.30272-0.18351-0.44608-0.23114-0.56038-0.218-0.41873-0.10489-0.84624-0.16493-0.30563-0.078184-0.72672-0.23529-1.6815-0.60535-0.93884-0.37902-1.6569-0.74134-3.3929-1.412-0.36202-0.13587-0.56055-0.16051-0.33641-0.054598-0.65772-0.045361-0.32082 0.003675-0.50754 0.054464-0.50647 0.10701-0.9351 0.28465-0.43894 0.087802-0.3265 0.019415-0.30211-0.018426-0.39512-0.072062-0.20182-0.055997-0.33081-0.11819-0.31853-0.14364-0.73853-0.36106-0.34697-0.14479-0.44133-0.15237-0.33383-0.084639-0.51073-0.063596-0.53481 0.034708-0.52812 0.11834-0.27749 0.088684-0.52629 0.21216-0.28171 0.13612-0.41931 0.22898-0.24672 0.15132-0.37052 0.25679-0.42562 0.34373-0.42062 0.39646-0.35428 0.38224-0.41183 0.50865-0.29942 0.42467-0.30058 0.48987-0.22563 0.42722-0.10738 0.22795-0.30995 0.7543-0.23385 0.66902-0.51828 1.6568-0.14346 0.39764-0.19217 0.45248-0.19948 0.39643-0.27581 0.45742-0.24717 0.34874-0.28344 0.35171-0.32829 0.35536-0.29268 0.2746-0.26301 0.21525-0.21166 0.15405-0.4156 0.26498-0.50163 0.27533-1.7348 0.85366-0.52553 0.2844-0.1521 0.10158-0.29575 0.16133-0.90133 0.41752-1.0805 0.47718-1.6531 0.70585-1.6867 0.68342-0.70316 0.26657-0.79084 0.28276-0.92126 0.30387-0.55523 0.16902-1.6595 0.46375-1.6576 0.4197-1.7371 0.40029-0.6896 0.1441-1.2727 0.2257-1.0375 0.13677-0.57384 0.049213-0.73038 0.024453-0.40905-0.00505-0.7241-0.032625-0.67818-0.051489-1.6083-0.15402-0.64692-0.049904-0.69476-0.025221-0.7301 0.022687-0.61051 0.070725-0.5728 0.12333-0.43535 0.13686-0.24949 0.097579-0.26733 0.12511-0.21028 0.12028-0.35913 0.26481-0.33404 0.30766-0.22464 0.23234-0.21612 0.24827-0.2608 0.34615-0.2413 0.3722-0.26794 0.47826-0.22332 0.45628-0.48359 1.1473-0.22094 0.48797-0.20336 0.39752-0.27722 0.46722-0.33108 0.46666-0.31781 0.37935-0.45751 0.45616-0.50109 0.40177-0.52339 0.31828-0.28535 0.12985-0.3615 0.12106-0.34937 0.072989-0.44222 0.029845-0.41939-0.034244-0.34279-0.068734-0.3457-0.10184-0.42664-0.16824-0.48801-0.25823-0.24252-0.16288-0.2211-0.17902-0.23206-0.23996-0.13029-0.17689-0.11993-0.20784-0.16627-0.38306-0.31634-0.90747-0.07756-0.26384-0.083946-0.35328-0.08516-0.52427-0.0488-0.50122-0.020474-0.37049-0.008605-0.64548 0.005058-1.4817-0.029967-0.58555-0.04107-0.34825-0.082326-0.41541-0.071758-0.24833-0.073558-0.19637-0.11991-0.2475-0.15572-0.25012-0.15584-0.2059-0.16729-0.19233-0.36636-0.36892-0.77589-0.69153-0.41114-0.31891-0.33931-0.23344-0.9751-0.61778-0.67527-0.37072-0.74553-0.33439-0.22946-0.13013-0.22595-0.1565-0.18094-0.15002-0.6854-0.66078-0.93845-0.80362-0.32174-0.30313-0.2047-0.21947-0.3056-0.40054-0.25879-0.38555-0.066611-0.12665-0.050425-0.13148-0.02885-0.1271-0.00835-0.11051 0.020039-0.15054 0.051054-0.13079 0.10784-0.16978 0.13241-0.14954 0.17449-0.15215 0.21728-0.16529 0.25308-0.16921 0.55196-0.33645 0.76552-0.54064 0.37114-0.28994 0.35129-0.29967 1.8916-1.9073 0.82071-0.91397 0.48063-0.47764 0.25843-0.23817 0.21129-0.16861 0.31502-0.20427 1.021-0.53752 0.30986-0.19363 0.19552-0.15103 0.1035-0.095142 0.074152-0.078417 0.12698-0.16698 0.14686-0.29459 0.097461-0.33643 0.065452-0.45492 0.02134-0.49331-0.010633-0.54073-0.033015-0.56256-0.15972-2.0444-0.022923-0.49648-0.018208-0.91346-0.029332-0.66632-0.038862-0.4571-0.035106-0.29281-0.10434-0.57109-0.15466-0.55913-0.20883-0.53938-0.27036-0.51055-0.26562-0.38291-0.31149-0.37147-0.34241-0.3539-0.34122-0.3179-0.80356-0.67482-2.86-2.2624-1.2524-1.0649-2.2561-1.9564-0.51284-0.40862-0.95195-0.73156-0.72796-0.59979-0.44821-0.41945-0.25692-0.2973-0.13031-0.19881-0.078483-0.15562-0.084878-0.25215-0.030734-0.28944 0.024047-0.19751 0.029796-0.10559 0.11141-0.2371 0.22326-0.31043 0.80708-0.88291 0.18525-0.21693 0.2093-0.2663 0.195-0.27357 0.22773-0.3557 0.21621-0.37198 0.69415-1.2877 0.73714-1.3087 0.6431-1.1723 1.2139-2.3163 1.2364-2.3255 0.32315-0.64231 0.1484-0.34311-0.15362-0.013705-1.7234 0.03896-0.75249-0.002882-0.77646-0.023111-0.78-0.049955-0.76945-0.084559-0.74849-0.12886-0.68239-0.17061-0.65334-0.21414-0.62129-0.2531-0.58508-0.29044-0.54298-0.32917-0.49279-0.37239-0.43178-0.42328-0.2494-0.3148-0.22196-0.33735-0.2134-0.38224-0.19272-0.39906-0.18394-0.43143-0.32718-0.88805-0.14931-0.45173-0.35476-1.1582-0.96172-3.3194-0.43237-1.4417-0.53322-1.7001-0.88367-2.7332-0.13024-0.45914-0.18396-0.77934-0.10371-0.62475-0.052579-0.47402-0.030481-0.6284 0.049941-1.7153-0.039031-0.55509-0.084741-0.43384-0.1639-0.51917-0.2609-0.58852-0.23626-0.42483-0.29921-0.4563-0.25133-0.33769-0.31623-0.38312-0.40217-0.43626-0.32522-0.32007-0.4026-0.3612-0.32982-0.26918-0.58699-0.42474-0.34292-0.22062-1.2358-0.73706-0.36085-0.25016-0.17571-0.1406-0.4245-0.41287-0.12802-0.14236-0.3809-0.47541-0.32226-0.44965-1.4985-2.329-0.44896-0.65084-0.53381-0.69273-0.26188-0.30432-0.27371-0.2915-0.47952-0.4442-0.4261-0.33054-0.44796-0.30056-0.40186-0.23953-0.55931-0.29883-1.7757-0.86618-0.47961-0.28201-0.31992-0.23259-0.29985-0.25953-0.16195-0.15929-0.34518-0.38633-0.32203-0.41271-0.8987-1.2907-0.33438-0.46038-0.21555-0.27098-0.22665-0.25709-0.23449-0.23474-0.2487-0.22311-0.34385-0.28019-0.4907-0.35642-0.65998-0.42452-0.42743-0.24787-0.58798-0.29254-0.55548-0.24243-0.51224-0.2064-3.5174-1.3081-0.73695-0.31102-0.44095-0.21147-0.43004-0.23006-0.51096-0.3-0.51124-0.32441-0.55943-0.37641-0.38174-0.27202-0.19554-0.15469-0.16161-0.14681-0.080278-0.098228-0.00468-0.031129-0.007698-0.034578-0.04421-0.023216-0.11894-0.020812-0.15576-0.008595-0.23375 0.004917-0.96263 0.079281-0.50354 0.024895-0.49247-0.004952-0.60347-0.043517-0.7732-0.10512-0.75835-0.14722-0.51693-0.13842-0.3857-0.1423-0.25711-0.12188-0.15974-0.089804-0.36349-0.24662-1.0333-0.8477-0.40939-0.31846-0.34861-0.24821-1.1244-0.75529-0.84209-0.58217-0.57566-0.42625-1.2478-0.98874-0.27818-0.20625-0.41967-0.26883-0.25888-0.13324-0.30874-0.12625-0.29564-0.087885-0.21786-0.045789-0.2542-0.034594-0.34761-0.013691-0.33614 0.028395-0.31155 0.071099-0.20936 0.078386-0.28684 0.15909-0.23502 0.18512-0.21704 0.21782-0.26658 0.32473-0.26436 0.38823-0.18101 0.31678-0.19473 0.4071-0.17291 0.43824-0.15196 0.44926-0.077846 0.27158-0.11476 0.47776-0.14746 0.76987-0.13448 0.86253-0.11395 0.83373-0.11575 0.66788-0.14526 0.59979-0.13519 0.43395-0.22703 0.58445-0.2271 0.48355-0.28405 0.53946-0.46664 0.81282-0.29386 0.6458-0.12347 0.22302-0.10449 0.1432-0.17748 0.1804-0.13743 0.10988-0.17824 0.11864-0.21114 0.11425-0.37728 0.1492-0.20211 0.056833-0.25512 0.054286-0.33846 0.049355-0.50538 0.03643-0.7744-0.006962-1.0194-0.047115-0.35914 1.23e-4 -0.49422 0.028486-0.38361 0.042138-0.44894 0.07092-0.47568 0.10034-0.54117 0.14378-0.27284 0.087044-0.4273 0.15721-0.34948 0.14497-0.93957 0.42077-0.8257 0.31073-0.58272 0.28093-0.29667 0.17921-0.24014 0.17214-0.80481 0.65985-0.51744 0.3957-0.28947 0.19014-0.23584 0.12005-0.16892 0.057498-0.14365 0.029067-0.16628 0.012204-0.17829-0.016017-0.11329-0.030491-0.1508-0.070779-0.13597-0.096632-0.10196-0.096001-0.16418-0.20831-0.12577-0.21211-0.081954-0.1701-0.17678-0.46717-0.1847-0.62992-0.47331-1.8408-0.13168-0.43277-0.2009-0.57366-0.10983-0.27196-0.23745-0.51462-0.8375-1.569-0.44215-0.90384-0.49964-1.1885-0.22349-0.60838-0.12819-0.41659-0.060719-0.24166-0.075855-0.39541-0.12152-0.94816-0.072332-0.87389-0.016765-0.66855 0.011872-0.4575 0.031722-0.45715 0.043201-0.38267 0.065522-0.40528 0.082364-0.37847 0.099941-0.37181 0.20716-0.63715 0.15688-0.42613 0.36127-0.89155 0.78425-1.8098 0.19336-0.41601 0.30923-0.58488 0.19782-0.32337 0.26281-0.3937 0.9365-1.3255 1.4108-2.128 1.4083-2.1693 0.70534-1.142 0.24029-0.34283 0.37817-0.4447 0.38915-0.39086 0.59895-0.53971 0.85662-0.70889 0.74448-0.57104 0.42347-0.30409 1.5048-1.0123 1.491-1.0486 0.40141-0.29892 0.095835-0.096868 0.013233-0.020848 0.002025-0.040976-0.046816-0.23528-0.14594-0.41377-0.19858-0.43195-0.33139-0.6309-0.33993-0.59921-0.43012-0.68572-0.4289-0.60879-0.29494-0.37905-0.27377-0.32402-0.41584-0.45793-1.3627-1.442-1.9818-2.1627-1.0787-1.118-0.98104-0.98102-0.84123-0.88144-1.0805-1.083-1.0163-0.96275-0.3103-0.30812-1.3853-1.4615-0.4031-0.36734-0.23213-0.18839-0.61163-0.44496-0.36308-0.23823-1.2931-0.77135-1.1302-0.69928-1.172-0.68279-1.6994-1.0585-0.61496-0.44344-0.40046-0.32921-0.32599-0.29813-1.4839-1.4542-1.0044-1.0159-0.42833-0.39871-0.69142-0.60211-0.4091-0.37696-0.23427-0.2409-0.27539-0.32158-0.24679-0.32904-0.20824-0.3077-1.1552-1.7924-0.1975-0.38394-0.48772-1.0522-0.21507-0.41502-0.224-0.38069-0.43533-0.61992-0.41893-0.50987-0.41164-0.45458-0.41739-0.43112-0.72411-0.69369-0.64036-0.55794-0.59153-0.48195-0.60825-0.46496-0.29748-0.21345-0.50653-0.33276-0.37661-0.21423-0.43064-0.19999-0.44956-0.14958-0.22058-0.048972-0.48846-0.049591-0.3766 0.011277-0.44652 0.061397-0.38371 0.086757-0.44495 0.12774-0.97886 0.30742-0.91716 0.30444-0.78635 0.30045-0.62388 0.2914-0.33734 0.18901-0.32284 0.21132-0.2546 0.19412-0.26525 0.22879-0.30182 0.28794-0.46341 0.48221-0.66397 0.7709-1.5613 1.9723-0.22208 0.2564-0.37414 0.39507-0.38868 0.36862-0.30779 0.26386-0.34163 0.26253-0.41018 0.27-0.40088 0.21286-0.38017 0.14202-0.31689 0.048953-0.23265-0.036016-0.28779-0.20181-0.244-0.33329-0.50194-0.84419-0.33266-0.41532-0.37955-0.32222-0.42351-0.26006-0.27809-0.1375-0.61125-0.25151-1.457-0.51505-0.93626-0.29953-0.27302-0.070035-0.39119-0.07601-0.61348-0.05603-0.56347 0.019474-0.56484 0.082088-0.48101 0.11239-0.49337 0.15034-0.33647 0.11849-2.6856 1.0621-0.29769 0.10171-0.39367 0.11075-0.34789 0.067895-0.34274 0.035067-0.27863 0.002045-0.33061-0.036322-0.28879-0.074086-0.2182-0.082052-0.2876-0.14036-0.16651-0.098096-0.22534-0.15244-0.23788-0.18311-0.36975-0.32125-0.57652-0.55741-0.69074-0.69728-1.2995-1.3608-0.3319-0.31183-0.31747-0.26683-0.36036-0.25526-0.31889-0.17538-0.29242-0.11932-0.35287-0.09112-0.20379-0.025257-0.19896-0.003919-0.3491 0.046646-0.35503 0.10561-0.37322 0.15908-0.31245 0.16413-1.0583 0.63526-0.43342 0.21264-0.22333 0.087429-0.25083 0.078962-0.30738 0.069518-0.21859 0.031338-0.27464 0.016297-0.22139-0.008148-0.14885-0.018714-0.26513-0.066661-0.29003-0.12216-0.67154-0.33046-0.38121-0.15332-0.42584-0.13634-0.36904-0.082601-0.203-0.032376-0.42798-0.041618-0.26123-0.007704-0.53254 0.017316-1.7955 0.13814-0.75038 0.02306-1.9235 0.020685-0.42584 0.016326-0.74553 0.049785-1.4004 0.1508-2.1747 0.32908-0.8181 0.075573-0.45282 0.021695-0.61472 0.004168-0.43818-0.019844-0.26518-0.025295-0.28589-0.043253-0.28103-0.066079-0.15215-0.049518-0.20905-0.088956-0.19182-0.10886-0.14026-0.10252-0.14351-0.1348-0.11356-0.13974-0.19072-0.33706-0.16683-0.47331-0.15926-0.7127-0.14594-0.91268-0.076969-0.81498-0.022435-0.6752 0.00327-0.41842 0.02584-0.58913 0.048058-0.54748 0.090132-0.70397 0.1336-0.87429 0.46626-2.7078 0.080407-0.6995 0.024611-0.4302 0.004673-0.27936-0.013914-0.50131-0.027802-0.36376-0.052058-0.45065-0.058434-0.37505-0.07892-0.39954-0.14144-0.53851-0.093607-0.27758-0.11037-0.27393-0.12698-0.26664-0.14852-0.27051-0.30871-0.48336-0.3174-0.44385-0.48537-0.6375-0.32604-0.39833-0.40414-0.44898-0.49616-0.48914-0.51533-0.45634-0.56955-0.45211-0.44202-0.30944-0.42929-0.26577-0.52439-0.28602-0.56428-0.26735-0.31-0.12596-0.1986-0.067517-0.15301-0.035471-0.049259 9.93e-4 -0.009108 0.011713-0.47522-0.86206-0.57344-1.1144-0.53199-1.0737-0.27436-0.58678-0.19101-0.45308-0.23155-0.65496-0.18149-0.67889-0.064509-0.33268-0.050541-0.40081-0.013716-0.47698 0.035085-0.38865 0.091363-0.40531 0.17917-0.45013 0.26471-0.42227 0.20362-0.23208 0.22581-0.19909 0.39148-0.239 0.27956-0.10187 0.3711-0.059415 0.28794-0.004528 0.29739 0.020312 0.34396 0.044511 0.59845 0.10765 0.71551 0.15094 0.17511 0.01415 0.12241-0.007908 0.10654-0.026667 0.073655-0.036071 0.077297-0.066311 0.049057-0.072468 0.031261-0.073299 0.035479-0.15955 0.013716-0.35743-0.091666-1.5262-0.048284-1.5122-0.055939-0.65811-0.088147-0.55715-0.12672-0.55635-0.37536-1.3932-0.36582-1.7244-0.18769-0.71263-0.228-0.6783-0.56293-1.4082-0.08011-0.22706-0.1535-0.51395-0.1164-0.55546-0.05404-0.4089-0.020497-0.25636-0.01286-0.74755 0.012883-0.32863 0.041654-0.45653 0.092434-0.59663 0.23738-1.2587 0.07962-0.64978 0.023023-0.52914-0.004092-0.96232 0.009396-0.47497 0.063194-0.76787 0.0665-0.45715 0.16978-0.8077 0.1893-0.75119 0.19833-0.63441 0.20187-0.48889 0.1908-0.33473 0.36291-0.42476 0.38963-0.32508 0.44222-0.29197 0.44338-0.24466 0.46963-0.22479 0.48948-0.20732 0.62797-0.2353 0.64273-0.21155 0.92747-0.27838 0.52265-0.1683 0.39891-0.14341 0.38363-0.15617 0.44785-0.2112 0.42509-0.23167 0.47162-0.2944 0.62378-0.4449 0.49274-0.38826 1.0194-0.84398 0.52002-0.37581 0.31359-0.20296 0.52117-0.31015 1.7506-0.95066 0.45776-0.27457 0.40395-0.27226 0.28486-0.20959 0.32134-0.26079 0.23468-0.2114 0.26006-0.2642 0.1811-0.21154 0.21059-0.28903 0.12905-0.20797 0.19342-0.37987 0.10854-0.2775 0.11219-0.3992 0.042988-0.22121 0.056333-0.46072 0.019564-0.35574 0.003336-0.34637-0.024187-0.53069-0.072452-0.64324-0.25564-1.5204-0.046605-0.347 4.5841-0.12865 1.1694-0.020098 0.56563-4.19e-4 0.67936 0.017572 0.33247 0.027566 0.23623 0.033177 0.64953 0.14139 0.40905 0.11506 0.38352 0.12599 0.45714 0.18441 0.20786 0.098358 0.38843 0.2107 0.40389 0.25586 0.77192 0.51922 0.24216 0.13414 0.2526 0.11492 0.37153 0.13115 0.56817 0.14215 0.62092 0.10304 0.39142 0.03809 0.38618 0.007954 0.35398-0.027404 0.2621-0.045712 0.28589-0.074047 0.38656-0.1311 0.77666-0.30615 0.33516-0.11209 0.351-0.076955 0.31913-0.011962 0.34817 0.07018 0.34835 0.14523 0.34766 0.20253 0.34445 0.24365 0.33638 0.2686 0.85195 0.74706 0.16112 0.1213 0.040242 0.003978 0.025176 0.028639 0.065328 0.17068 0.32631 0.98299 0.28174 0.93842 0.2185 0.82527 0.16757 0.74067 0.093518 0.47985 0.082508 0.47622 0.25014 1.6842 0.097351 0.56976 0.11687 0.5228 0.16856 0.51698 0.17335 0.34878 0.26574 0.34371 0.28126 0.20673 0.28746 0.077194 0.20956-0.03476 0.17004-0.10333 0.13711-0.15937 0.11562-0.22753 0.092331-0.29721 0.077569-0.39891 0.052629-0.39232 0.11533-1.2579 0.091444-1.3934 0.030315-0.64117 0.04216-1.7747-0.016686-2.5371 0.004332-0.43355 0.028082-0.53859 0.04695-0.28868 0.077995-0.20906 0.14439-0.14541 0.11256-0.017267 0.1375 0.053802 0.14254 0.12655 0.1806 0.23932 0.17328 0.28677 0.55837 1.048 0.24977 0.39871 0.29155 0.36208 0.34962 0.30062 0.38377 0.19225 0.33643 0.070221 0.34989-0.006179 0.2852-0.050264 0.31577-0.089192 0.43506-0.15818 0.85882-0.34386 0.4007-0.14667 0.53628-0.168 0.47099-0.11456 0.38572-0.063661 0.43411-0.024356 0.30117 0.025013 0.30036 0.070633 0.37288 0.17034 0.25214 0.18845 0.18251 0.1911 0.21432 0.29586 0.43415 0.68459 0.13897 0.18328 0.16474 0.18518 0.19459 0.18246 0.33963 0.26 0.96867 0.61337 0.42319 0.28143 0.4533 0.33779 0.47888 0.4017 0.84173 0.73477 0.37902 0.2835 0.47233 0.27085 0.36768 0.14405 0.44869 0.10842 0.52397 0.049615 0.45405-0.014258 0.57481-0.074349 0.77985-0.13281 0.56988-0.065207 0.49627 0.002491 0.50931 0.092595 0.41601 0.17918 0.31686 0.23535 0.29537 0.33772 0.17265 0.26845 0.15246 0.28694 0.41727 0.93047 0.16072 0.31911 0.16675 0.26591 0.1963 0.23032 0.1836 0.15223 0.1643 0.10302 0.18624 0.089991 0.32769 0.10536 0.20143 0.038669 0.21559 0.024504 0.34271 0.008204 0.19214-0.011351 0.23653-0.031346 0.29925-0.070886 0.29651-0.11131 0.2506-0.13144 0.22421-0.14924 0.23354-0.18602 0.40389-0.36907 0.47679-0.46184 1.1851-1.2138 0.88962-0.8326 0.33548-0.33038 0.38467-0.42669 0.21455-0.27116 0.19827-0.27742 0.32111-0.51668 0.17055-0.31516 0.30779-0.65716 0.55624-1.3026 0.23842-0.47553 0.22766-0.40355 0.22701-0.36905 0.6175-0.95177 0.31766-0.54918 0.18521-0.36676 0.71555-1.5491 0.21985-0.41535 0.23681-0.39049 0.16735-0.24421 0.26498-0.34922 0.31765-0.38096 0.8366-0.91675 0.3047-0.30871 0.35014-0.30999 0.42034-0.27742 0.33812-0.1406 0.5057-0.096114 0.5405-0.005215 0.56633 0.058833 0.58511 0.10037 1.2056 0.24921 0.61265 0.11402 0.61526 0.083559 0.61553 0.033684 0.45436-0.016108 0.4562-0.041778 1.565-0.19182 2.2471-0.34191 1.0151-0.17885 0.51673-0.10437 2.2723-0.51082 0.58042-0.10421 0.58613-0.0751 0.59184-0.034369 0.73288 0.024857 0.73349 0.087676 0.72332 0.13469 0.69616 0.1662 0.6428 0.18063 0.54972 0.17377 0.55512 0.19879 0.026884 0.057602 0.068091 0.081444 0.31383 0.30787 0.25657 0.21814 0.29815 0.22784 0.41884 0.27979 0.57437 0.31251 0.62519 0.25807 0.67172 0.20348 0.55299 0.1231 0.56674 0.093775 0.97535 0.11196 0.58895 0.050291 0.70059 0.038271 0.55653 0.006756 0.68492-0.028266 0.54691-0.055771 0.63525-0.10351 0.50111-0.10821 1.3897-0.35569 0.70689-0.14728 0.25493-0.036034 0.53903-0.036052 0.52248 0.01591 0.49757 0.063287 0.46302 0.10877 0.41716 0.15486 0.83558 0.46947 0.23402 0.10864 0.27482 0.091391 0.29894 0.067434 0.53845 0.068551 0.58161 0.026251 0.61427-0.005581 0.63883-0.029312 1.3282-0.10662 1.3907-0.14804 2.0785-0.25843 1.995-0.28568 1.4004-0.2388 0.72306-0.14781 0.69444-0.17003 0.64901-0.20081 0.57979-0.24264 0.47877-0.29768 0.33901-0.36606 0.1401-0.30583 0.066708-0.32621 0.010413-0.3258-0.028829-0.27172-0.073865-0.26927-0.098441-0.20698-0.098391-0.10322 0.041355-0.038953 0.13041-0.034741 0.26139 0.005616 0.47032 0.072664 0.24403 0.058977 0.12497 0.046416 0.11261 0.067757 0.093154 0.099963 0.21302 0.37334 0.084043 0.10532 0.18851 0.15602 0.15664 0.078353 0.23133 0.061731 0.28152 0.019624 0.36922-0.032455 0.40976-0.090803 0.21571-0.067435 0.21538-0.080862 0.40342-0.19016 0.35592-0.20836 0.89249-0.5813 1.2749-0.76053 0.3042-0.21362 0.88418-0.70489 0.52049-0.39804 0.54866-0.39898 0.4737-0.31306 0.29738-0.16013 0.28793-0.12964 0.69975-0.27895 0.12309-0.067472 0.1468-0.10431 0.13148-0.13943 0.048793-0.081884 0.048211-0.12987 0.02909-0.14871 0.015149-0.28518-0.036158-0.54451-0.19806-1.6087-0.25029-1.4607-0.012613-0.14581 0.023421-0.074027 0.2888 1.2735 0.16192 0.62893 0.08175 0.26422 0.097462 0.26218 0.11182 0.24256 0.18449 0.29907 0.24716 0.26712 0.23806 0.15551" stroke="#bdc660"/>
    </defs>
    <g clip-path="url(#pb2cf46aa2e)">
     <use y="280.512" fill="#bdc660" stroke="#bdc660" xlink:href="#m4750022ece"/>
    </g>
   </g>
  </g>
 </g>
 <defs>
  <clipPath id="pb2cf46aa2e">
   <rect x="7.2" y="7.2" width="351.15" height="266.11"/>
  </clipPath>
 </defs>
</svg>
