<?xml version="1.0" encoding="UTF-8"?>
<!DOCTYPE svg  PUBLIC '-//W3C//DTD SVG 1.1//EN'  'http://www.w3.org/Graphics/SVG/1.1/DTD/svg11.dtd'>
<svg width="237.57pt" height="280.51pt" version="1.1" viewBox="0 0 237.57 280.51" xmlns="http://www.w3.org/2000/svg" xmlns:xlink="http://www.w3.org/1999/xlink">
 <metadata>
  <rdf:RDF xmlns:cc="http://creativecommons.org/ns#" xmlns:dc="http://purl.org/dc/elements/1.1/" xmlns:rdf="http://www.w3.org/1999/02/22-rdf-syntax-ns#">
   <cc:Work>
    <dc:type rdf:resource="http://purl.org/dc/dcmitype/StillImage"/>
    <dc:date>2024-07-04T12:10:38.415885</dc:date>
    <dc:format>image/svg+xml</dc:format>
    <dc:creator>
     <cc:Agent>
      <dc:title>Matplotlib v3.7.1, https://matplotlib.org/</dc:title>
     </cc:Agent>
    </dc:creator>
   </cc:Work>
  </rdf:RDF>
 </metadata>
 <defs>
  <style type="text/css">*{stroke-linejoin: round; stroke-linecap: butt}</style>
 </defs>
 <g id="figure_1">
  <g id="patch_1">
   <path d="m0 280.51h237.57v-280.51h-237.57v280.51z" fill="none"/>
  </g>
  <g id="axes_1">
   <g id="PatchCollection_1">
    <defs>
     <path id="m7644ad848f" d="m103.58-260.37 0.21748 0.3059 0.15216 0.27697 0.074178 0.16189 0.082895 0.21071 0.065955 0.2039 0.06929 0.3049 0.032333 0.29676 0.03805 0.93982 0.02275 0.19946 0.030814 0.16217 0.045449 0.15708 0.040201 0.10077 0.12796 0.22042 0.16923 0.19878 0.2511 0.21228 0.33164 0.19776 1.1715 0.53009 0.28016 0.15148 0.27562 0.16965 0.32903 0.23232 0.31109 0.25722 0.24396 0.23812 0.21807 0.25663 0.18457 0.27548 0.14615 0.29594 0.081722 0.22588 0.067211 0.26244 0.047464 0.36258-0.00209 0.25026-0.039921 0.21841-0.071224 0.096242 0.096606-0.052195 0.22728-0.033786 1.6549-0.12564 0.5342-0.052121 0.54031-0.065404 0.53906-0.082136 0.34969-0.064711 0.58173-0.1287 0.57162-0.14698 0.56226-0.15853 2.1832-0.6535 0.76167-0.20935 1.3074-0.34206 1.0775-0.30984 2.1092-0.66204 2.0892-0.63038 0.68846-0.24354 1.3303-0.54838 0.56607-0.20369 0.27438-0.083687 0.3167-0.083264 0.36453-0.077222 0.2872-0.046722 0.28924-0.034559 0.31088-0.023075 0.31238-0.008501 0.3155 0.006444 0.31162 0.019927 1.0256 0.10546 1.4943 0.11541 0.76919 0.07294 1.1296 0.13088 2.3954 0.30677 0.68812 0.078508 0.11252 0.003644 0.36713 1.4313 0.28984 1.1834 0.13509 0.61138 0.11756 0.61313 0.070334 0.44019 0.24248 1.9062 0.10805 0.98106 0.047627 0.53347 0.027084 0.37456 0.03286 0.70131-0.001949 0.69756-0.019558 0.36828-0.037651 0.40466-0.054038 0.40185-0.063529 0.36537-0.07635 0.36261-0.086632 0.35108-0.098784 0.34787-0.1042 0.32324-0.11548 0.31974-0.18324 0.44885-0.74333 1.6083-0.27981 0.67562-0.23477 0.66577-0.10472 0.34-0.094495 0.34514-0.080894 0.34433-0.080962 0.44322-0.054533 0.52472-0.007875 0.3399 0.016041 0.3277 0.053243 0.36766 0.096044 0.33536 0.1761 0.33499 0.18782 0.20444 0.1572 0.11073 0.35208 0.13735 0.21843 0.035076 0.13518 0.007454 0.21862-0.007989 0.35542-0.055993 0.40633-0.11113 0.34844-0.12427 0.36528-0.15535 0.30089-0.1463 0.33821-0.18153 0.64487-0.36813 0.47488-0.25108 0.49083-0.23697 0.50266-0.22564 0.51135-0.21671 1.0397-0.41412 1.0514-0.39645 1.051-0.38176 1.033-0.36023 0.98265-0.31669 0.45476-0.12863 0.41545-0.097178 0.35997-0.052996 0.28295 0.008177 0.17764 0.091706 0.04946 0.19368-0.056109 0.27735-0.13324 0.33845-0.18877 0.38235-0.22811 0.41324-0.25554 0.43439-0.56148 0.9049-0.59787 0.92231-0.61869 0.91328-0.31722 0.44569-0.28621 0.38007-0.26781 0.32186-0.18657 0.20581-0.30361 0.31353-0.43948 0.42852-1.0406 0.94983-0.27505 0.26635-0.97611 1.0221-0.94606 0.95581-0.23606 0.25466-0.20362 0.23581-0.29904 0.38488-0.22273 0.33257-0.1581 0.27657-0.12412 0.26102-0.098573 0.27587-0.042059 0.19015-0.007303 0.086232 0.007093 0.092958 0.036375 0.092303 0.10989 0.084916 0.16536 0.029681 0.13918-0.009809 0.21923-0.043865 0.68659-0.17561 1.6447-0.36622 0.48361-0.097838 0.40852-0.065534 0.76967-0.093317 1.357-0.14003 0.99625-0.081929 0.4174-0.022708 0.41039-0.011152 0.38014 0.003261 0.37038 0.019155 3.3074 0.30927 0.46501 0.033944 0.57532 0.025323 0.66718 0.002474 0.59688-0.028564 0.42438-0.044595 1.224-0.16789 0.38097-0.023944 0.18034 0.001026 0.41914 0.031956 0.26227 0.050738 0.18083 0.058515 0.22446 0.11673 0.064682 0.048151 0.20895 0.23616 0.15174 0.317 0.080608 0.33462 0.015455 0.13767 0.006158 0.20592-0.006425 0.14139-0.021239 0.18159-0.052149 0.2744-0.17549 0.71741-0.051018 0.24538-0.026909 0.16921-0.025583 0.3281 0.003142 0.15469 0.012823 0.13763 0.028808 0.16005 0.053885 0.18262 0.11103 0.24093 0.18658 0.26098 0.11269 0.11676 0.31515 0.24964 0.32916 0.19984 0.40576 0.2105 0.60889 0.28833 0.62018 0.27549 0.2672 0.10891 0.48711 0.178 1.5093 0.50536 0.26709 0.064272 0.71195 0.09664 0.29353 0.076608 0.15844 0.056907 0.79446 0.36187 0.32373 0.12386 0.67071 0.22786 0.25204 0.10331 0.69256 0.35948 0.30025 0.097196 0.11887 0.015232 0.15972 0.002006 0.21276-0.022545 0.29537-0.064726 0.29029-0.091595 0.36333-0.15273 0.2086-0.11276 0.21193-0.14592 0.16819-0.15732 0.15748-0.19984 0.22979-0.33383 0.15791-0.18921 0.15029-0.13722 0.22706-0.1618 0.22236-0.12754 0.34097-0.16059 0.33415-0.13188 0.28375-0.10057 0.42065-0.14046 0.80957-0.24077 0.60369-0.20587 0.33225-0.14405 0.30261-0.17848 0.23522-0.195 0.20895-0.22024 0.1896-0.23236 0.3005-0.39233 0.20206-0.22779 0.28999-0.2484 0.14277-0.10031 0.26134-0.15176 0.8398-0.39293 0.39598-0.16623 0.82482-0.3061 0.73746-0.24973 0.37795-0.095315 0.38345-0.064025 0.62394-0.060643 0.39776-0.048904 0.3768-0.078735 0.29175-0.1037 0.25834-0.15057 0.15103-0.13284 0.13523-0.15517 0.16421-0.23663 0.23992-0.42164 0.29111-0.54886 0.2056-0.35314 0.1591-0.22417 0.1833-0.19616 0.29622-0.20451 0.34522-0.13683 0.087338-0.022449 0.33573-0.050628 0.31782-0.009994 0.27058 0.010135 0.56225 0.0527 1.1335 0.15551 2.6419 0.45024 1.2692 0.18967 1.8781 0.24662 0.97794 0.11532 1.0238 0.10206 0.88937 0.0721 0.89888 0.051645 0.99822 0.032809 2.7904 0.045637 0.99601 0.004175 0.52802-0.010414 0.70577-0.03859 0.33534-0.032183 0.25676-0.034558 0.11786-0.023022 0.042532-0.018594 0.12697 0.008586 0.83393-0.024357 0.81264-0.001753 0.41652 0.015083 0.28813 0.020269 0.27654 0.03057 0.51421 0.10388 0.38148 0.15046 0.28109 0.21731 0.15208 0.26092 0.070059 0.31191 0.006268 0.34948-0.043026 0.37618-0.081322 0.39423-0.11797 0.42519-0.14639 0.43065-0.17255 0.43036-0.19884 0.42488-0.25964 0.46763-0.28493 0.43096-0.31245 0.41681-0.33258 0.40563-0.66791 0.74745-0.69473 0.72962-1.0878 1.107-1.7941 1.8041-1.0158 1.0528-0.6253 0.68593-0.33262 0.38338-0.63535 0.77384-0.46919 0.62026-0.21412 0.30894-0.22474 0.35764-0.19023 0.35458-0.14462 0.35016-0.084774 0.34413-0.006889 0.33617 0.099418 0.36298 0.16413 0.31363 0.21741 0.30973 0.18531 0.22595 0.37911 0.41557 1.2564 1.2907 0.41634 0.44136 0.20323 0.23044 0.21263 0.26192 0.11918 0.16091 0.13576 0.19968 0.2605 0.43346 0.26753 0.51245 0.16356 0.3555 0.14428 0.35824 0.13514 0.41124 0.095848 0.41288 0.044804 0.32759 0.054786 0.81317 0.030841 0.91685 0.022416 0.34898 0.06603 0.86326 0.11957 1.1394 0.054605 0.71268 0.005148 0.30893-0.009655 0.27578-0.040605 0.3754-0.22071 1.1401-0.11377 0.68677-0.058681 0.47021-0.00954 0.37173 0.050187 0.4211 0.059203 0.20681 0.085128 0.1904 0.10794 0.1632 0.15902 0.16341 0.14869 0.10647 0.22159 0.10862 0.31283 0.089945 0.43082 0.053739 0.42259 0.003792 0.2966-0.016589 0.57657-0.064818 0.68565-0.11685 0.9546-0.20304 0.41858-0.077837 0.87946-0.13661 0.4437-0.049825 0.40404-0.013889 0.27015 0.0257 0.12087 0.029193 0.13253 0.05543 0.064424 0.042426 0.075654 0.075008 0.057029 0.094409 0.026033 0.07283 0.022152 0.14095-0.007914 0.21831-0.028766 0.19597-0.17009 0.8176-0.14712 0.55868-0.15244 0.4343-0.33848 0.78125-0.063638 0.1656-0.052146 0.17774-0.027507 0.16263-0.006767 0.13912 0.009032 0.12597 0.019345 0.096964 0.03362 0.09537 0.088984 0.14225 0.10952 0.11208 0.10379 0.081525 0.19261 0.12128 0.098245 0.05084 0.19286 0.076772 0.096277 0.0271 0.37179 0.049483 0.3773-0.009797 0.31689-0.047102 0.16724-0.061417 0.53031 1.0974 0.34361 0.65072 0.16494 0.28623 0.17438 0.2824 0.21026 0.30669 0.15416 0.20048 0.15792 0.1833 0.13515 0.13675 0.073019 0.065829 0.25981 0.19873 0.16623 0.10541 0.17218 0.095633 0.32335 0.15124 0.89829 0.35515 0.24804 0.11031 0.285 0.14278 0.22437 0.12739 0.21836 0.1379 0.26194 0.19038 0.18332 0.15403 0.73885 0.7217 0.22914 0.19843 0.28857 0.21808 0.09934 0.097757 0.055054 0.08957 0.028613 0.086527 0.008911 0.083468-0.008793 0.07443-0.028506 0.071947-0.053106 0.066565-0.058084 0.043221-0.1088 0.045982-0.1465 0.027128-0.13281 0.00619-0.15678-0.006228-0.16813-0.018378-0.23563-0.044319-0.37934-0.099819-0.088049-0.011516-0.12483 0.015092-0.075384 0.036854-0.053948 0.048104-0.047306 0.075595-0.024955 0.08891-0.004694 0.10909 0.013071 0.11962 0.079298 0.44404 0.014181 0.27164-0.008847 0.13733-0.021496 0.14988-0.043876 0.1814-0.044541 0.12318-0.060612 0.1216-0.059074 0.087976-0.077422 0.084224-0.085093 0.063522-0.090791 0.042322-0.09755 0.020372-0.11893-0.014371-0.084549-0.066778-0.01554 0.076044 0.002849 0.25022 0.027916 0.37403 0.12074 1.0974 0.11588 0.92753 0.055268 0.37892 0.18856 1.1366 0.17575 0.85734 0.58772 2.3824 0.14192 0.43842 0.10491 0.25086 0.1187 0.23611 0.15092 0.24737 0.17512 0.22209 0.30929 0.27734 0.35646 0.24735 0.35763 0.2273 1.1523 0.6945 0.31996 0.20199 0.63692 0.42761 0.34799 0.25929 0.30755 0.27348 0.28255 0.29792 0.25516 0.31694 0.22342 0.33152 0.20654 0.38625 0.14991 0.39207 0.080667 0.39025-0.006688 0.38071-0.04602 0.19485-0.083531 0.20521-0.12294 0.21081-0.13613 0.1827-0.1646 0.18529-0.3209 0.30354-0.21753 0.17987-0.28482 0.21301-0.57656 0.38287-1.3249 0.81228-0.77822 0.49314-1.4324 0.94024-0.64541 0.44746-0.9915 0.73108-0.58159 0.39441-0.24994 0.15767-0.3108 0.18145-0.2418 0.12808-0.28524 0.13715-0.32294 0.13938-0.30796 0.12009-0.3241 0.11642-0.58633 0.19357-0.60926 0.18328-0.47053 0.12661-0.27898 0.06395-0.34998 0.064708-0.23794 0.032381-0.42163 0.029762-0.25134 5.27e-4 -0.27189-0.011567-0.55573-0.050535-0.91447-0.1132-0.36672-0.028435-0.1856-0.00365-0.2148 0.009473-0.18636 0.024344-0.16678 0.039186-0.1391 0.049795-0.30896 0.18651-0.26779 0.26034-0.23202 0.31354-0.17514 0.30314-0.15867 0.34113-0.12506 0.35195-0.08252 0.35507-0.027985 0.35099 0.042141 0.33979 0.047425 0.15053 0.071692 0.16158 0.089231 0.15679 0.099827 0.14704 0.17522 0.22239 0.26341 0.29378 0.29248 0.28925 0.31835 0.2794 0.4492 0.3461 1.0687 0.77732 0.40471 0.32548 0.37921 0.34979 0.1698 0.1797 0.19706 0.23188 0.29582 0.39592 0.78979 1.1709 0.16123 0.21552 0.29632 0.35069 0.32344 0.31676 0.356 0.27181 0.40044 0.22141 0.43282 0.17462 0.45802 0.13923 0.47774 0.11276 0.49339 0.093176 0.50612 0.078865 0.51682 0.068528 1.061 0.11701 3.6113 0.32542 1.2026 0.11926 1.0477 0.12894 0.4675 0.086646 0.10614 0.038219 0.012412 0.019095-2.1586 1.4295-1.3778 0.89153-1.197 0.73899-0.77076 0.44272-0.55834 0.29734-0.3153 0.15786-0.47376 0.22154-0.60177 0.25739-1.5546 0.62285-0.71989 0.3049-0.54327 0.25873-0.66682 0.36004-0.65557 0.40096-0.32449 0.21713-0.28107 0.20342-0.29684 0.23941-0.27271 0.25438-0.24198 0.27264-0.20324 0.29511-0.12539 0.24282-0.10526 0.25606-0.095319 0.2749-0.76941 2.4219-0.4819 1.4049-0.35264 0.9254-0.18886 0.44728-0.20034 0.43111-0.21513 0.40896-0.23419 0.3791-0.25866 0.33941-0.28991 0.28726-0.35616 0.24495-0.37739 0.19301-0.71623 0.33053-0.28344 0.18448-0.19007 0.22977-0.038903 0.10008-0.020184 0.094688 0.005497 0.31621 0.080624 0.35657 0.12939 0.38748 0.30049 0.79849 0.13538 0.3988 0.11112 0.40764 0.071026 0.41431 0.018223 0.38804-0.024841 0.38795-0.060698 0.37082-0.11308 0.41564-0.16166 0.39601-0.21624 0.36701-0.30669 0.36226-0.36458 0.32581-0.40696 0.29903-0.43762 0.27976-0.45957 0.26628-0.47514 0.25728-0.97997 0.5007-1.792 0.88181-1.3859 0.66658-2.3982 1.1293-1.0368 0.50558-1.49 0.76713-0.78988 0.43085-0.015872-0.005711-0.15652 0.061323-0.26264 0.16309-0.31946 0.23939-0.3052 0.26452-0.94639 0.9127-0.34611 0.3135-0.36295 0.28043-0.26937 0.1685-0.28074 0.14676-0.29188 0.1305-0.59734 0.23626-0.97699 0.36065-0.31508 0.12539-0.17732 0.077821-0.36228 0.18372-0.36628 0.23696-0.33245 0.27542-0.27753 0.28928-0.17767 0.21668-0.16579 0.22539-0.45934 0.70576-0.27239 0.45965-0.49189 0.92674-0.84845 1.6941-0.37981 0.72721-0.19947 0.35542-0.60249 0.98161-0.1998 0.34686-0.18756 0.35939-0.20725 0.44296-0.26522 0.63554-0.24811 0.66611-0.25276 0.7562-0.13083 0.42319-0.2135 0.75518-0.167 0.66095-0.11948 0.57284-0.16595 0.87582-0.092459 0.41662-0.0768 0.26467-0.12342 0.31642-0.10603 0.22405-0.19271 0.35685-0.12283 0.203-0.1541 0.23145-0.15166 0.20619-0.14917 0.18532-0.20425 0.23222-0.46698 0.49215-0.18231 0.20078-0.15373 0.1904-0.13742 0.2058-0.089068 0.17197-0.06104 0.15825-0.0505 0.20636-0.020395 0.25009 0.007529 0.13862 0.034739 0.21444 0.04503 0.17186 0.069994 0.2048 0.10246 0.24398 0.15181 0.30844 0.26316 0.49368 0.16981 0.33859 0.68383 1.485 0.23709 0.49347 0.14198 0.26676 0.11131 0.18684 0.18988 0.26652 0.17144 0.18435 0.11386 0.095542 0.1324 0.088155 0.11465 0.061104 0.18842 0.077891 0.17756 0.054103 0.22485 0.048322 0.24 0.032595 0.41358 0.02112 0.40928-0.013784 0.75108-0.05796 0.2039-4.27e-4 0.15043 0.013691 0.12218 0.024655 0.17921 0.069868 0.095366 0.061428 0.090654 0.078411 0.097393 0.10769 0.093806 0.12599 0.1462 0.23435 0.16231 0.32025 0.14055 0.35996 0.3043 0.88929 0.092164 0.33226 0.035257 0.2081 0.017303 0.2605-0.012587 0.27832-0.032613 0.24158-0.06238 0.29291-0.077721 0.27082-0.10456 0.30521-0.31595 0.79803-0.12648 0.35403-0.12636 0.43577-0.093652 0.42792-0.044355 0.29377-0.031451 0.3061-0.080532 1.377-0.032475 0.37349-0.061128 0.41151-0.10186 0.41427-0.11045 0.33524-0.10132 0.26986-0.90131 2.2547-0.13132 0.36464-0.49974 1.491-0.22489 0.59641-0.3953 0.99967-0.57061 1.5304-0.14691 0.36735-0.34181 0.74714-0.11499 0.28768-0.065946 0.21028-0.029445 0.12475-0.025794 0.15707-0.015762 0.18389 0.002474 0.30236 0.091279 0.95591 0.018061 0.45242-0.002152 0.45114-0.039429 1.0983-0.00376 0.44172 0.050057 2.6577 0.026758 0.53379 0.034427 0.44681 0.06521 0.54961 0.12954 0.83949 0.036605 0.38656 0.00414 0.23069-0.014779 0.25158-0.030599 0.24189-0.062649 0.3491-0.16354 0.79278-0.065093 0.40062-0.023578 0.26713-0.004828 0.18899 0.005564 0.192 0.02185 0.2455 0.069857 0.42956 0.29705 1.3988 0.13328 0.52923 0.17497 0.53064 0.13814 0.34732 0.11535 0.25514 0.20614 0.39172 0.22466 0.37269 0.68665 1.0186 0.17616 0.29626 0.069676 0.17024 0.028481 0.11663-0.005859 0.24709-0.0758 0.16367-0.13291 0.13416-0.10628 0.064885-0.20024 0.078126-0.18241 0.044156-0.15729 0.025756-0.2419 0.023228-0.22337 0.006841-0.26408-0.006462-0.32321-0.02283-0.86336-0.087045-0.47692-0.025846-1.1007-0.024593-0.91841 0.02354-0.4588-0.010773-0.2402-0.021786-0.28984-0.039934-0.9904-0.16323-0.32995-0.036195-0.32996-0.021012-0.18728-0.003836-0.37227 0.011653-0.1799 0.014957-0.38762 0.053907-0.18923 0.03785-0.24288 0.06051-0.20308 0.062725-0.35015 0.14086-0.29004 0.15018-0.16689 0.098237-0.50235 0.3193-0.24241 0.14266-0.25557 0.13004-0.48647 0.19877-0.52204 0.16818-1.2755 0.36811-1.9243 0.63536-0.79683 0.28002-1.9578 0.72306-0.41891 0.14248-1.4493 0.46326-0.35725 0.10673-0.41694 0.10697-0.56233 0.11112-0.13659 0.016654-0.081977-0.006189-0.028437 0.045218-0.066088 0.069492-0.23814 0.21174-0.23678 0.19223-0.24484 0.17406-0.19378 0.11569-0.21299 0.10268-0.16911 0.063952-0.17325 0.050909-0.26077 0.051856-0.22051 0.025076-0.96803 0.050822-0.4569 0.064053-0.4683 0.10335-0.19808 0.054143-0.61207 0.2042-0.3466 0.10344-0.28822 0.057679-0.56182 0.078963-0.61508 0.066642-0.37029 0.028844-1.3928 0.065737-0.6064 0.038409-0.65338 0.064783-1.0545 0.13383-1.1613 0.095819-0.40798 0.016038-0.69924-0.014256-0.58812-0.054753-0.45536-0.075296-0.24209-0.052241-0.53404-0.14128-0.07585-0.00585-0.2899 0.019069-0.54199 0.071244-0.43914 0.08128-0.66762 0.15194-0.7886 0.21863-2.9386 0.89933-1.0502 0.34176-0.44181 0.1735-0.45804 0.22428-0.41732 0.24122-0.33895 0.21792-0.4687 0.33352-0.4076 0.33072-0.25883 0.23998-0.18073 0.18867-0.16528 0.19639-0.090614 0.12216-0.11818 0.18298-0.14419 0.26917-0.15563 0.34082-0.41327 0.9607-0.26816 0.52859-0.18168 0.3102-0.23355 0.3528-0.25611 0.32767-0.22012 0.25469-0.32548 0.34877-0.38374 0.37446-0.41131 0.36123-0.37962 0.30661-0.37908 0.28235-0.29177 0.197-0.32341 0.19183-0.27481 0.13933-0.35077 0.15293-0.45238 0.16405-0.368 0.1119-0.43236 0.11795-0.57691 0.14726-0.51869 0.11765-0.63874 0.12896-0.51164 0.089229-0.32772 0.047192-0.47938 0.051214-0.33825 0.022233-0.34232 0.008862-0.64541-0.015288-0.84584-0.059876-0.52194-0.024655-0.28469-0.001255-0.28522 0.018011-0.26426 0.044789-0.1698 0.050576-0.10883 0.045353-0.21619 0.12775-0.19242 0.15066-0.24643 0.22152-0.22211 0.22209-0.19503 0.214-1.1331 1.2788-1.034 1.2232-0.3938 0.49669-0.20419 0.3083-0.18184 0.30983-0.4248 0.80926-0.351 0.63139-0.69709 1.1423-0.52486 0.89428-0.9705 1.7787-0.19616 0.30766-0.086154 0.11459-0.14007 0.16159-0.13334 0.1277-0.13387 0.10453-0.071238 0.046608-0.22132 0.11172-0.31754 0.10628-0.51782 0.1248-0.37484 0.10399-0.25007 0.092938-0.23 0.10254-0.31417 0.16256-0.2807 0.16582-0.30731 0.20108-0.8592 0.61987-0.32288 0.21378-0.32752 0.18875-0.25872 0.11893-0.14814 0.052604-0.33878 0.078774-0.36011 0.039154-0.31027 0.010608-0.52431-0.011992-0.42742-0.028608-0.52329-0.051309-2.0141-0.25766-0.47314-0.042617-0.41285-0.02007-0.45076 0.001115-0.4843 0.035969-0.37692 0.052921-0.52773 0.095428-1.3774 0.29479-0.79712 0.13894-0.35093 0.042794-0.36562 0.010211-0.32202-0.015457-0.88221-0.1132-0.39464-0.029458-0.1518-5.79e-4 -0.29335 0.021487-0.20732 0.031557-0.21788 0.045249-0.4625 0.12646-0.4699 0.15989-0.47537 0.18435-0.96159 0.41664-1.4569 0.68676-4.8929 2.3932-0.98053 0.46232-0.48923 0.22061-0.48763 0.20868-0.48491 0.19113-0.48056 0.16573-0.47389 0.12953-0.50146 0.08846-0.41808 0.023255-0.40565-0.043404-0.23633-0.065231-0.21698-0.084938-0.25021-0.12093-0.43865-0.2485-0.70871-0.42192-0.15145-0.083342-0.45302-0.22161-0.23226-0.094093-0.42769-0.14699-1.389-0.40253-0.44366-0.15635-0.19566-0.08843 0.041135-0.061414 0.092488-0.1057 1.4696-1.6126 0.51302-0.60261 0.36622-0.46565 0.24226-0.33567 0.37411-0.57464 0.50349-0.83298 0.25944-0.45042 0.16144-0.30003 0.23513-0.48365 0.12233-0.28667 0.087868-0.23344 0.10092-0.32598 0.068873-0.31339 0.047242-0.40368-0.002146-0.51182-0.040896-0.42162-0.065336-0.42398-0.11779-0.59129-0.19883-0.83798-0.17549-0.60844-0.16322-0.49069-0.90547-2.4837-0.41548-1.0946-0.58275-1.4463-0.36509-0.86082-0.20015-0.44814-0.2085-0.44359-0.29-0.57339-0.38093-0.67972-0.26807-0.4316-0.41026-0.61014-0.30148-0.4264-1.4005-1.9207-0.85663-1.2406-0.53026-0.81423-0.28583-0.468-0.28507-0.49587-0.36486-0.68776-0.26266-0.53875-0.27608-0.61163-0.20744-0.50086-0.22704-0.61084-0.13406-0.40883-0.13496-0.45108-0.25326-0.89878-0.19218-0.64562-0.18292-0.55281-0.10944-0.30134-0.11618-0.29792-0.17594-0.41233-0.61089-1.2649-0.10039-0.22312-0.10958-0.26443-0.12998-0.36309-0.091477-0.31218-0.071142-0.3045-0.046829-0.26236-0.034445-0.26466-0.030583-0.43268-0.001472-0.41388 0.013219-0.28532 0.031115-0.37627 0.042651-0.37742 0.32147-2.3058 0.05782-0.52567 0.037481-0.50623 0.022009-0.56296 0.001207-0.76186-0.019969-0.58278-0.038423-0.56728-0.048347-0.46113-0.090552-0.6552-0.089577-0.53815-0.13614-0.70826-0.25648-1.1666-0.43085-1.7923-0.21478-0.95159-0.13807-0.67328-0.14941-0.80723-0.1634-1.0138-0.10133-0.77015-0.067157-0.68444-0.07091-0.9605-0.043346-0.44071-0.097283-0.69418-0.11887-0.68648-0.13419-0.62304-0.20705-0.83261-0.15374-0.55103-0.14844-0.439-0.09264-0.30952-0.045559-0.24641-0.025859-0.26063-0.008983-0.22912 0.00206-0.27112 0.023721-0.39579 0.04424-0.40459 0.05976-0.40768 0.12545-0.69715 0.064064-0.42488 0.039862-0.4322 0.008944-0.4332-0.030628-0.42756-0.083664-0.43951-0.13073-0.41769-0.07245-0.17916-0.13773-0.28538-0.095181-0.16589-0.2096-0.29469-0.17502-0.18323-0.14619-0.11496-0.27904-0.14295-0.2908-0.091731-0.28572-0.073589-0.2639-0.086759-0.12446-0.059702-0.47133-0.29227-0.11242-0.049556-0.10572-0.033764-0.19402-0.029554-0.11666 0.00124-0.24319 0.038716-0.25217 0.076346-0.85288 0.32948-0.38397 0.10909-0.32006 0.041289-0.30504-0.024196-0.18436-0.057923-0.20611-0.10945-0.16991-0.12826-0.17113-0.1701-0.11902-0.15156-0.095446-0.15946-0.057986-0.13354-0.039123-0.1285-0.028074-0.14704-0.01438-0.21339 0.015986-0.21763 0.064264-0.31597 0.12277-0.39731 0.29235-0.84139 0.42118-1.1175 0.092629-0.26832 0.085077-0.2921 0.060033-0.27685 0.022532-0.14814 0.026658-0.38313-0.00276-0.25941-0.014962-0.28308-0.040962-0.56312-0.020495-0.21447-0.037469-0.24752-0.048516-0.21891-0.074067-0.23838-0.050224-0.12659-0.1259-0.2606-0.27917-0.52234-0.08364-0.17872-0.12247-0.30117-0.1529-0.44977-0.11937-0.42497-0.07864-0.34331-0.055842-0.31062-0.044904-0.34824-0.026232-0.36412-0.005262-0.41685 0.010705-0.34967 0.051519-0.6613 0.3665-2.7134 0.18012-1.5045 0.27596-1.9039 0.032566-0.37256 0.012743-0.37292-0.007435-0.32333-0.037035-0.41839-0.055302-0.3785-0.08087-0.42868-0.26209-1.1927-0.1433-0.75466-0.25868-1.6484-0.22666-1.2521-0.063665-0.41395-0.076266-0.65698-0.10317-1.237-0.085659-0.77631-0.098521-0.71738-0.34638-2.3163-0.20898-1.1631-0.55578-2.6345-0.037872-0.044661-0.041048-0.087065-0.044784-0.13154-0.030936-0.13431-0.022815-0.1766-0.006052-0.15873 0.005857-0.16393 0.013501-0.13854 0.037076-0.22207 0.050877-0.20656 0.1081-0.36053 0.22225-0.65841 0.43128-1.057 0.12139-0.25924 0.11067-0.20228 0.20147-0.31578 0.11646-0.1611 0.12307-0.15561 0.25256-0.27901 0.16173-0.1582 0.29085-0.25577 0.64499-0.48465 0.21665-0.17556 0.27958-0.26009 0.25035-0.27792 0.10432-0.13741 0.176-0.27674 0.18586-0.37453 0.15965-0.42215 0.3068-0.93353 0.058144-0.144 0.084982-0.17395 0.066602-0.11193 0.1246-0.16737 0.13251-0.13714 0.14605-0.12095 0.1928-0.12814 0.12535-0.070393 0.38208-0.17321-0.043044-0.024221-0.048529-0.051774-0.20954-0.28373-0.55758-0.90089-0.33671-0.50004-0.2325-0.30988-0.24349-0.29245-0.30116-0.3314-0.83381-0.88105-0.33104-0.30032-0.72254-0.57746-0.26658-0.2589-0.19602-0.23525-0.16095-0.23003-0.24335-0.41113-0.47493-0.91325-0.45351-0.84081-0.10362-0.22272-0.068403-0.17443-0.08151-0.28396-0.035864-0.23037-0.008076-0.31051 0.020878-0.26306 0.04866-0.32333 0.06961-0.34796 0.35654-1.442 0.11116-0.51866 0.060459-0.37078 0.04092-0.36133 0.015633-0.23974 0.005517-0.34589-0.009423-0.27329-0.043646-0.46853-0.089246-0.53531-0.086872-0.38071-0.13678-0.47461-0.12841-0.36445-0.1522-0.36498-0.22692-0.46074-0.277-0.47202-0.28399-0.40307-0.35226-0.42115-0.38024-0.3987-0.34609-0.31259-0.35053-0.26299-0.20798-0.12986-0.65157-0.35589-0.22738-0.13566-0.26294-0.19023-0.18688-0.17368-0.088243-0.094024-0.59554-0.72149-0.15255-0.1622-0.21866-0.19272-0.34789-0.2226-0.39004-0.18227-0.41643-0.15531-0.85504-0.27598-0.41046-0.14245-0.37863-0.16056-0.32872-0.19646-0.17817-0.16011-0.15465-0.18684-0.2036-0.34319-0.098037-0.22172-0.082328-0.23129-0.091277-0.34657-0.060183-0.3909-0.034856-0.66128-0.044287-0.43284-0.34768-2.0603-0.069576-0.47538-0.055399-0.4775-0.027147-0.40815-0.001415-0.26973 0.008148-0.15823 0.015747-0.14883 0.047457-0.24367 0.067731-0.20737 0.05869-0.12912 0.061304-0.10916 0.17695-0.24291 0.1511-0.164 0.21778-0.19886 0.20967-0.16354 0.28668-0.19182 0.15725-0.092477 0.48396-0.24564 0.46147-0.19302 0.8683-0.32267 1.4257-0.55968 0.6155-0.27183 0.5116-0.27208 0.55584-0.33781 1.5043-0.98996 1.5472-0.9747 0.60795-0.35707 1.1826-0.65408 0.29431-0.17608 0.20307-0.1341 0.18515-0.13584 0.17761-0.14576 0.1312-0.11921 0.19867-0.20262 0.17481-0.2033 0.17516-0.22985 0.12908-0.18633 0.131-0.20446 0.14848-0.26429 0.074335-0.15462 0.096179-0.24012 0.085034-0.29386 0.042467-0.24891 0.012767-0.18632-0.008658-0.26242-0.097802-0.82677-0.10675-1.2981-0.040031-0.24873-0.05351-0.23961-0.15627-0.55103-0.15364-0.40406-0.11589-0.25321-0.11088-0.20634-0.19091-0.28715-0.18764-0.21463-0.19416-0.17318-0.12048-0.089725-0.26611-0.16828-0.47109-0.25171-0.078454-0.056175 0.040331-0.042135 0.030622-0.065294 0.036241-0.11041 0.038049-0.16149 0.025787-0.15723 0.018112-0.18885 0.004649-0.18179-0.010838-0.22225-0.02771-0.22029-0.15431-0.769-0.070579-0.43419-0.02276-0.30968 0.002947-0.21131 0.010677-0.13994 0.034283-0.24189 0.077117-0.3386 0.28654-0.92512 0.085581-0.3249 0.088672-0.46461 0.05285-0.39216 0.027927-0.40095 0.006053-0.29376-0.006022-0.37084-0.022274-0.43288-0.076019-0.78417-0.018293-0.45382 0.003414-0.32495 0.015722-0.33175 0.047238-0.51483 0.06612-0.28168 0.07647-0.19374 0.14538-0.25137 0.13395-0.17678 0.072816-0.07515 0.10206-0.086052 0.23052-0.15847 0.17953-0.094044 0.39862-0.18073 0.095544-0.055512 0.14769-0.10404 0.089224-0.080698 0.10047-0.12265 0.074971-0.13825 0.038764-0.11642 0.022835-0.13688 0.004813-0.14535-0.014695-0.19732-0.035427-0.22867-0.13725-0.69322-0.058835-0.3995-0.015041-0.22663-0.012126-0.60903-0.022079-0.20165-0.071957-0.35475-0.18864-0.67775-0.053984-0.29819-0.018711-0.30081 0.018793-0.30007 0.070032-0.42722 0.07057-0.2613 0.086358-0.2196 0.23323-0.53938 0.16488-0.50423 0.12235-0.27732 0.50717-0.77565 0.15729-0.34178 0.12391-0.36117 0.078449-0.28334 0.087393-0.43386 0.019129-0.25406-0.003534-0.18125-0.042775-0.73055-0.014305-0.18335-0.037115-0.28077-0.088763-0.27921-0.047977-0.085377-0.10114-0.12732-0.13096-0.11445-0.2034-0.11731-0.39128-0.13371-0.35469-0.067999-0.40373-0.040462-0.26859-0.01036-0.2184 0.00187-0.10418 0.012322-0.053005-0.022063-0.12803-0.076574-0.46855-0.30057-0.30816-0.23874-0.18032-0.17045-0.15123-0.1679-0.16406-0.21079-0.13977-0.20457-0.12725-0.20625-0.42883-0.74649-0.10183-0.15379-0.12908-0.17285-0.17872-0.20245-0.17705-0.16352-0.19495-0.14184-0.37712-0.18459-0.41186-0.12466-0.43132-0.088532-0.86983-0.15015-0.41548-0.098707-0.38895-0.12778-0.39653-0.14548-0.37984-0.1654-0.62807-0.34799-0.62521-0.31757-0.22142-0.12501-0.58708-0.38727-0.18629-0.10656-0.23203-0.11048-0.135-0.051805-0.20911-0.06373-0.21126-0.046595-0.17509-0.026044-0.24977-0.016448-0.24668 0.012775-0.21304 0.041898-0.19217 0.068504-0.21892 0.10899-0.23717 0.1462-0.2307 0.16359-0.22693 0.17962-0.19602 0.16984-0.43224 0.41977-0.39002 0.42963-0.28319 0.35191-0.5489 0.75776-0.19678 0.25117-0.21868 0.25083-0.2046 0.21181-0.23928 0.22596-0.24576 0.21546-0.75984 0.62526-0.51663 0.44164-0.37319 0.35073-0.21257 0.21408-0.46413 0.48774-0.75186 0.81501-0.4823 0.5409-0.33286 0.39994-0.15874 0.21088-0.14687 0.21395-0.14879 0.24308-0.13662 0.25395-0.26632 0.53866-0.30425-0.11681-0.39854-0.17369-0.57069-0.26547-0.70125-0.35584-0.39689-0.21715-0.59237-0.34407-0.39933-0.24851-0.3758-0.24707-1.2348-0.85138-0.30699-0.19444-0.31811-0.18398-0.31801-0.16626-0.36493-0.17124-0.43742-0.18228-0.54156-0.20278-0.93138-0.33042-0.43042-0.16416-0.41261-0.17756-0.30161-0.15145-0.17158-0.098182-0.37064-0.24762-0.65515-0.49003-0.23244-0.16009-0.24622-0.14519-0.18854-0.099167-0.42794-0.2008-0.30952-0.11789-0.31159-0.099091-0.6355-0.17612-0.25198-0.08625-0.31272-0.13849-0.21853-0.12422-0.20599-0.14561-0.24669-0.22324-0.22489-0.24975-0.49489-0.63512-0.28763-0.31053-0.1865-0.15388-0.24583-0.16702-0.25844-0.14817-1.1531-0.57747-0.7495-0.41236-0.48833-0.30711-0.2363-0.16804-0.14561-0.11318-0.28651-0.24644-0.19324-0.18511-0.1505-0.15923-0.27223-0.33607-0.2261-0.34161-0.47994-0.84419-0.12303-0.19349-0.11341-0.15478-0.21171-0.24394-0.16068-0.16158-0.18072-0.16297-0.17141-0.12614-0.20516-0.11306-0.24267-0.098293-0.51801-0.15769-0.16108-0.055831-0.1243-0.055119-0.19279-0.13284-0.11032-0.13788-0.071761-0.20088-0.023212-0.23258 0.011957-0.50851 0.022581-0.26026 0.11861-0.76056 0.037779-0.7844 0.021087-0.22262 0.040041-0.22367 0.074994-0.25243 0.10277-0.25367 0.13827-0.27985 0.13369-0.23293 0.15266-0.2352 0.18407-0.25144 0.26119-0.3145 0.31224-0.3318 0.41798-0.39912 0.75846-0.67555 0.89059-0.92544 0.20604-0.185 0.16391-0.12823 0.18686-0.12995 0.2356-0.14334 0.80544-0.40514 0.42922-0.19613 0.30172-0.12584 0.97373-0.35264 0.33908-0.17358 0.32186-0.20985 0.26123-0.20436 0.22285-0.20441 0.16787-0.1849 0.094087-0.13824 0.012724-0.055154-0.005078-0.024376 0.012669-0.16015 0.067629-0.18594 0.11384-0.17749 0.15693-0.13577 0.15241-0.061056 0.1862-0.019604 0.20856 0.024288 0.50686 0.10975 0.22429 0.036285 0.24399 0.022061 0.24509-0.002077 0.29103-0.040355 0.2788-0.068561 0.52744-0.16913 0.22651-0.11564 0.17873-0.17234 0.10858-0.21682 0.030558-0.26775-0.054909-0.55893 0.004897-0.25586 0.079119-0.21387 0.1595-0.15581 0.63652-0.39272 0.22739-0.11628 0.24538-0.10428 0.23992-0.082054 0.24511-0.068753 0.56979-0.13827 0.25989-0.08298 0.2301-0.11261 0.21284-0.17484 0.16337-0.21174 0.33934-0.65964 0.15665-0.24591 0.1798-0.23188 0.20175-0.20257 0.22348-0.15652 0.23182-0.093654 0.23867-0.042963 0.2716 0.001344 0.47426 0.049947 0.25035 0.007461 0.24891-0.018334 0.62946-0.079703 0.54376-0.020995 0.12252 0.006691 0.088432 0.015245 0.12256 0.043383 0.10337 0.058137 0.12307 0.087788 0.10757 0.053686 0.064735 0.009361 0.07668-0.008222 0.1087-0.037796 0.14954-0.081607 0.17115-0.11619 0.58702-0.4318 0.22055-0.13434 0.25702-0.12345 0.40919-0.12614 0.44242-0.07168 0.46135-0.026886 0.46749 0.011622 0.46142 0.046946 0.4429 0.081983 0.41076 0.1195 0.33437 0.13598 0.73573 0.32033 0.29228 0.14356 0.47702 0.26025 0.26252 0.10833 0.26503 0.068084 0.25796 0.017257 0.14664-0.017744 0.20545-0.061072 0.21046-0.12238 0.18193-0.16579 0.15069-0.19314 0.29696-0.51432 0.454-0.73148 0.12793-0.22306 0.114-0.22843 0.072001-0.18274 0.081897-0.27034 0.18243-0.8185 0.070577-0.20981 0.056215-0.11808 0.066792-0.10884 0.15112-0.17808 0.67796-0.59117 0.61613-0.59747 0.26057-0.30093 0.097114-0.1408 0.14343-0.26026 0.096402-0.22806 0.11028-0.33022 0.093418-0.32788 0.078705-0.3453 0.046997-0.29269 0.031159-0.29863 0.044043-0.85081 0.03769-0.41248 0.051444-0.35958 0.056319-0.26339 0.054413-0.10562 0.053329-8.59e-4 0.20279 0.050667 0.30431 0.090574 1.1606 0.3962 0.41225 0.11241 0.40869 0.07174 0.38186 0.021486 0.84536-0.001505 1.9628 0.045266 0.50934-0.016 0.49491-0.067674 0.33556-0.090129 0.32688-0.12167 0.31867-0.14678 0.29064-0.15529 0.32968-0.1975 0.65929-0.43121 0.4023-0.28148 0.38393-0.30502 0.27204-0.25183 0.25498-0.26684 0.21844-0.25373 0.26117-0.33782 0.14039-0.19948 0.25774-0.41516 0.11289-0.21487 0.24255-0.54552 0.16271-0.34253 0.59682-1.157 0.30985-0.62415 0.19896-0.4353 0.1771-0.4366 0.13414-0.40046 0.096994-0.39793 0.039994-0.27817 0.011337-0.27459-0.018977-0.26475-0.041098-0.26207-0.2553-1.1277-0.041852-0.24441-0.027321-0.3102-0.002729-0.12713 0.017718-0.53273 0.019709-0.11334 0.047767-0.12487 0.072983-0.097073 0.099841-0.078778 0.25031-0.08699 0.17467-0.007439 0.14514 0.01336 0.23093 0.045358 0.33032 0.095149 1.4533 0.49698 1.2518 0.44808 1.4143 0.46065 0.48028 0.17547 0.24695 0.099711 0.63752 0.28889 0.15318 0.04906 0.18144 0.034045 0.20217 0.009034 0.37582-0.034529 0.39353-0.062672 0.36291-0.086782 0.34073-0.1235 0.85998-0.39433 0.56222-0.22558 1.0417-0.44173 0.30226-0.091665 0.17356-0.027306 0.17427-0.002974 0.11198 0.011018 0.20911 0.042902 0.13999 0.04197 0.71527 0.28268 0.34029 0.11232 0.41116 0.10232 0.34763 0.067088 0.17922 0.026902 0.36402 0.035336 1.173 0.049675 0.32737 0.021256 0.46392 0.049427 0.18121 0.027437 0.40136 0.080101 0.32144 0.080948 0.43117 0.12711 0.70842 0.24155 1.2565 0.45597 0.21533 0.068967 0.26057 0.069253 0.14108 0.028085 0.28312 0.031054 0.3449-0.009362 0.33208-0.064361 0.18872-0.067416 0.20606-0.1023 0.17493-0.11084 0.18863-0.14374 0.64476-0.57652 0.28014-0.23835 0.54116-0.4208 0.24631-0.20984 0.22943-0.24027 0.16554-0.21161 0.11563-0.17247 0.13498-0.24017 0.10821-0.25205 0.097003-0.35431 0.053915-0.36662 0.05503-0.72201 0.05509-0.3626 0.097267-0.34311 0.086889-0.22728 0.13358-0.29147 0.14762-0.27788 0.18519-0.3127 0.17785-0.27807 0.58656-0.86822 0.24006-0.38006 0.1802-0.31478 0.16-0.31356 0.14965-0.3363 0.12737-0.33267 0.097705-0.29371 0.14075-0.49274 0.30273-1.1884 0.093844-0.33344 0.20044-0.64594 0.18423-0.54829 0.15279-0.38638 0.11352-0.24652 0.1676-0.27941 0.11623-0.090139 0.056614 0.05877 0.15845 0.023691 0.11175-0.001957 0.1776-0.017856 0.26295-0.044335 0.29101-0.062205 1.2167-0.28844 0.36726-0.070472 0.46397-0.063102 0.51467-0.029659 0.82316-0.016029 0.45029-0.019456 1.5472-0.1279 1.6184-0.10961 0.4965-0.018347 0.55134-0.00687 0.49707 0.009785 0.32878 0.01881 0.25564 0.024044 0.39156 0.0606 0.32863 0.080666 0.27165 0.095792 0.26384 0.13382 0.2779 0.21356 0.19434 0.20748" stroke="#bdc660"/>
    </defs>
    <g clip-path="url(#pe853f2a876)">
     <use y="280.512" fill="#bdc660" stroke="#bdc660" xlink:href="#m7644ad848f"/>
    </g>
   </g>
  </g>
 </g>
 <defs>
  <clipPath id="pe853f2a876">
   <rect x="7.2" y="7.2" width="223.17" height="266.11"/>
  </clipPath>
 </defs>
</svg>
