<svg xmlns="http://www.w3.org/2000/svg" xmlns:xlink="http://www.w3.org/1999/xlink" width="348.2" height="374" viewBox="0 0 261.2 280.5"><defs><style>*{stroke-linejoin:round;stroke-linecap:butt}</style></defs><g id="figure_1"><path id="patch_1" fill="none" d="M0 280.5h261.2V0H0z"/><g id="axes_1"><g id="PatchCollection_1"><defs><path id="mbcd2516888" stroke="#f4f4e2" d="M176.3-232.3v.3l-.3.5-.5.5-2 1.7-.5.5-.1.2-.2.3v.7l.1.4.3.4.4.7 1.3 1.5.5.7.4.6.3.5.7 1.7 1 3.4.3 1.3.1 1.3.2 6.6v1.5l-.1.9-.2 1.1-.6 2.5-.4 1.5-.9 2.8-.3 1v1l-.1.9v1.8l.3.8.5.8.5.7.7.7 2 1.7.6.7 2.3 2.6 2 2.3 2.5 2.7 1.6 1.6 2 1.9.8.9.7.7.7 1 .6 1 .6 1 .6 1.4.3.5v.2h.2l.2.2.3.4.5.6.3.7.3.6.2.7.2.9.2.7v2.8l-.3 1.6-.8 4-.3 1.8-.2 2.3v3.1l.1.8.2 1.1.2 1 .5 1.7 1.3 4.2.4 1.3.1.8.2 1.3v1l-.1 1.6-.3 1.5-.6 1.4-.7 1.4-1 1.4-1.2 1.6-1.3 1.6-3 3.2-1.3 1.3-1.2 1.5-.7 1.2-.5 1-.3 1.1.2.9.3.8.4.6.7.7.5.4 1 .6 1 .5 1.3.4 4.4 1 1.7.3 1.8.5 1.7.5 1.7.6 3.5 1.4 4.8 1.9 2 1 1.5.7 1.4.9 1.3 1 1.2 1.3 1.2 1.4 1.1 1.4 1 1.6 1 1.6 1.2 1.9 1 1.9 1 2 .8 1.8.8 2 .7 1.9.6 2 .6 2.7.4 2.7.4 2.8.8 7.2.3 2 .3 1.8.5 1.8.6 1.6.9 1.4.9 1 1 .8 2.3 1.6 1 .9 1.2.9.8.9.7 1 .5 1 .2 1.2v.9l-.2 1-.3 1.7-.5 1.4-.4 1.2-1 2.6-1.2 3-3.7 9-.4 1-.1.5v.3l-.3.4-.6 1-1 1.4-.7.8-.8.7-1.3 1-1.2.6-.9.2-1 .1h-1.4l-1.4-.3-1.8-.6-1-.4-1-.5-1-.5-1.2-.8-1.9-1.2-.9-.7-1.3-1.2-.6-.5-.4-.6-.4-.7-.4-1.2-.1-1V-31l.4-3.2.1-1.6v-1.6l-.3-1.3-.2-.7-.4-.7-.9-1.3-1.2-1.5-1-1-.8-.8-1.1-1-.9-.7-.9-.6-1-.7-1.2-.7-1.4-.6h-.4l-1-.3-1-.2h-.8l-.6.1-.9.3-.8.5-.9 1-.6 1.2-.6 1.3-2.2 5.8-.8 2-.6 1-.6 1-.6 1.1-.7 1-1 1.3-.8 1-1.3 1.5-1 1.1L183-27l-1.3 1.1-1.1 1-1.4 1-2 1.3-1.2.7-.7.4-.8.4h-.1l-1-2-.7-1.2-1.3-2.2-.8-1-1.2-1.8L168-31l-1.4-1.3-.8-.8-.9-.6-.9-.5-.5-.2-1-.4-1.2-.1h-.4l-1 .1-1.2.4-1.2.5-1 .6-1.3.7-8.6 6.6-2 1.4-1.3.7-1 .6-1.4.6-1.3.5-1 .4-1.4.5-1.4.3-1.4.1H133l-9.3-1.6-2.5-.3-1.3-.2h-2.4l-1.6.1-2 .2-1.3.1h-1.2l-.9-.1-1-.3-1-.3-1.1-.4-1.2-.5-1.3-.6-1.8-1-2-1.1-1.3-.9-2.1-1.4-8.3-5.8-.5-.4-.3-.2h.1l.4-.4.6-.7 1.1-1.2 1.2-1.5 1.2-1.7.7-1.2.4-.9.4-1 .3-1.1.2-1.2v-.8l.1-1.5V-52l.2-.9.2-.5.2-.4.6-.6.5-.4.4-.1 1-.2h1l1 .2 2 .7 1.4.3 1 .2 2.7.2 1 .1 1.5.4 1.5.4 4.9 1.7 1.3.4 1.1.3 1.6.3 1 .2h3.6l1-.2.7-.2.5-.2.6-.3.4-.2.6-.6.7-.8.6-.8.5-.8.5-1.1.2-.9.2-1v-2.4l-.2-1.7-.4-1.7-.7-2.2-.7-1.7-.7-1.2-.7-1-.7-.6-.3-.1-1.4-1.6-1.4-1.7-.7-1-1-1.3-1-1.4-.7-1.8-.3-1.1-.2-1.4V-82l-.1-5.6v-2l.2-1 .2-.9.9-2.9.3-1.1.1-1 .1-1v-.9l-.2-1-.2-.6-.2-.5-.4-.8-.6-.7-.6-.7-.6-.5-.8-.6-.9-.6-2.8-1.6-2.7-1.6-1.4-1-1.9-1.3-3.1-2.4-1.1-.9-1-1-2.8-3-2-2-1.4-1.4-1.2-1-.8-.5-1.2-.7-.6-.2-.8-.3-1.2-.3-1.4-.2H88l-.6.1-1 .2-1.9.5-2.6.9-8.6 3-4 1.6-1.2.6-1.6 1-2.7 1.8-1.4.8-1.5.8-2.5 1-1.3.6-1.9 1-1.1.7-1 .6-1 .7-1 .9-.9.8-.8.9-1 1.2-.6 1-.4.7-.4.8-.5 1.7-1 4.4-.2.9-.2.5-.3.6-.4.7-.3.3-.3.2-.3.2-.6.1h-.8l-.5-.2-1.4-.6h-.4l-.7-.1h-.4l-1 .3-2.5 1-1.8.5-1 .3-2.1.5-1.5.3h-2l-.6-.3-.5-.2-.5-.4-.4-.4-.3-.5-.4-.6-.3-.6-.3-1-.5-1.6-.2-1.3-.3-2.9v-2.9l.6-3.1.2-1.3v-1.7l-.1-1.8-.3-2.2-.4-2.1-1.3-5.3-1-5.1-.9-3.6-.6-2.7-.2-1.2v-1.2l.2-.7.4-.9.6-.8.6-.7.8-.8 1.3-1.2.9-.7L25-141l2-1.3 1-.6 2.6-1.3 1.5-.9 1.4-1 3.7-2.5.6-.4.5-.2.4-.1 1.5-.3.4-.2.3-.3.6-.6.6-.7.4-.6 1-1.7.9-1.5.5-1.3.4-1 .6-2 .4-1 .6-.8.7-.8.9-.7.9-.6 1.2-.8.8-.4 1.2-.6h.4l.6-.3.5-.4.9-.8.7-.8.4-.5.4-.7.4-.8.2-.4.2-.7v-.7l.1-.8v-1.5l-.2-1.4-.5-1.7-.6-1.8-.8-2-1.2-2.6-1-2-3.1-5.8-4-7-.9-1.9-.4-.9-.3-1-.2-.8-.2-1v-.7l-.1-1.2v-1l.1-1.5.3-1.3.1-.6.4-.9.7-1.4 1.9-3.1 1-1.8.3-.8.5-1.2.3-1 .2-1.2.2-1.5.1-1.5v-3.6l-.1-1.5-.2-1.2-.3-1.6-.7-3.4v-.5l-.2-1v-1.2l.2-1 .3-.5.2-.4v-.1l.7-.7 1-.5.6-.2h2.2l6.2.4h4.7l1.2-.2 1-.3.6-.2.6-.2.8-.5.8-.9.6-1 .5-1.4.6-3.2.3-1 .3-.7.5-1 1-.8 1-.6 1.2-.3 2-.6 2.2-.5 1.3-.2 2-.3 1.5-.2 6.8-.5 2.5-.2h1.7l4 .3h2l1.1-.2 1.2-.2.8-.2 1.8-.7 6.2-2.8 1.3-.7.6-.4.3-.3.1.6.2.8.8 2.8 1.7 5 1.6 4.6 1 2.6 1.3 2.8.8 1.7 1.8 3.4.5 1.1.3 1 .3 1 .1 1 .2 2.2.2 1.2.2 1 .5 1.3.4.9.8 1.4.8 1.2.4.6.6.8 1.2 1.3 1.4 1 1.2.9 1.3.7.9.4.8.3 1 .2 1.3.2h2.2l1-.3 1-.2 1.4-.4 1.3-.4 1.8-.6 1.5-.7 1.8-.8 1.6-.8 4.8-2.9 3.5-2 2.9-1.4 4.2-1.9 3.4-1.6.9-.4.8-.3 1.4-.4.8-.1h1.2"/></defs><g clip-path="url(#pe8a7ba85fa)"><use xlink:href="#mbcd2516888" y="280.5" fill="#f4f4e2" stroke="#f4f4e2"/></g></g></g></g><defs><clipPath id="pe8a7ba85fa"><path d="M7.2 7.2H254v266.1H7.2z"/></clipPath></defs></svg>