<svg xmlns="http://www.w3.org/2000/svg" xmlns:xlink="http://www.w3.org/1999/xlink" width="397" height="374" viewBox="0 0 297.8 280.5"><defs><style>*{stroke-linejoin:round;stroke-linecap:butt}</style></defs><g id="figure_1"><path id="patch_1" fill="none" d="M0 280.5h297.8V0H0z"/><g id="axes_1"><g id="PatchCollection_1"><defs><path id="mff8cc65b3e" stroke="#f4f4e2" d="M270.4-246.3v.4l.5 2.7 1 5 .8 3.7 2.5 10.7.7 3.4.5 2.8.5 3.6.4 3.5.3 3.5v6.5l-.3 4-.3 3.9-.3 2-.6 4.2-.6 3.6-.3 1.8-.7 3.5-.4 1.7-.5 1.6-.5 1.7-.5 1.7-.3 1.8-.3 1.9-.5 4-.4 4-.3 4.2-.4 6.1-.2 4.2v5.7l.1 1.5.2 1 .3.4-5.3 1-5.5 1-4 1-3.7 1-6.1 1.6-14.8 4.3-3.6 1-3.8 1.3-7 2.4-6.6 2.4-6 2.2-4 1.6-10.5 4.4-3.6 1.5-1.9.8-1.8.9-1.5.8-1.6.8-1.5.8-1.5 1-1.4.9-1.6 1.1-1.5 1.2-1.4 1.3-1.5 1.3-1.4 1.4-1.3 1.3-1.4 1.5-1.2 1.4-1.3 1.5-1 1.5-1.1 1.5-1 1.6-1 1.6-.9 1.7-.8 1.7-.8 1.7-.8 1.8-.6 2-.6 2-.5 2.1-.4 2.2-.4 2-.3 2.1-.2 1.9v2.9l.1.4-1.5-.5-3-.7-1.8-.4-1.9-.4-1.9-.2-2-.2-1.8-.1h-1.8l-1.7.3-1.7.6L130-61l-1.8.6-1.8.5-1.8.3-1.9.4-5.7.8-1.9.3-1.8.3-1.7.4-1.7.4-1.5.6-1.2.8-1 1-.7 1.1-.4 1.4-.2 1.6-.2 1.6v6.9l-.1 1.6-.3 1.6-.4 1.3-.7 1.2-1 .9-1.2.6-1.4.5-1.5.3-1.5.2h-3.1l-1.5-.4-1.3-.5-1.1-.7-.9-1-.4-.8-.3-.7-.5-1.3-.4-1.6-.4-1.7-1-6.6-.3-1.4-.4-1.1-.4-.8-.3-.3-.3-.1-.6.1-.6.5-2.3 2-.7.6-.8.6-.7.4-1 .5-1.5.6-2.7.9-1.4.5-1.4.6-1.4.6-1.3.7-1.4.8-1.2.7-2.4 1.5-1.7 1.2-3.2 2.6-10 8.1-3.4 2.8-1.7 1.3-1.9 1.4-1.8 1.2-1.4.8-1.4.8-1.4.6-1.6.5-1.4.3-1 .2h-1v-.4l-.3-.7-.8-2-1-2.5-.8-1.7-.8-1.7-2.2-3.4-.6-1.1-.2-.6-.2-.5-.3-.9v-1l.2-1L23-38l.7-1 .8-1.1 1.7-2 2-2.2 2.1-2.1 2.8-2.8 1-1 .8-1 .6-1.2.4-1.2.2-1.3.1-1.4v-1.5l-.1-1.4-.2-1.5-.2-1.5-.5-3.2-2.8-16.3-.4-2.6.4-.2 2.2-1 1.5-.7 1.5-.8 1.4-1 1.4-.9 1-1 1-1.3.5-1.3.3-1.4V-97l-.1-1.6-.3-1.6-.5-3.2-.4-1.6-.8-3.3-.8-3.1-.5-1.6-.6-1.7-.6-1.6-1.3-3.3-2-4.8-15.3-35 7.3-11 4.6-6.9 9-13 5-7.2 3.3-4.4 1.2-1.6 1.3-1.5 1.3-1.5 1.3-1.4 1.5-1.3 1.4-1.1 1.5-1 1.5-1 1.6-.9 1.6-.9 5-2.5 16.2-7.9 9.1-4.5 3.6-1.8 5-2.8L116-241l4.8-2.6 3.1-1.5 2.6-1.2 1.5-.6 2.2-.8 1.8-.5 1.3-.2 1.7-.3 1.5-.1h1.9l2 .1 1.9.3 2 .3 1.8.4 2 .5 3.8 1 9.6 2.9 3.8 1 1.9.4 1.9.4 1.8.2h3.4l1.6-.2 1.5-.2 3.8-.8 1.7-.2 7.7-1 1.7-.3 3.5-.6 3.4-.7 3.4-.8 5.5-1.3 8.5-1.7 7.8-1.8 44.1-10.3 2 14.9"/></defs><g clip-path="url(#p98ec97587d)"><use xlink:href="#mff8cc65b3e" y="280.5" fill="#f4f4e2" stroke="#f4f4e2"/></g></g></g></g><defs><clipPath id="p98ec97587d"><path d="M7.2 7.2h283.4v266.1H7.2z"/></clipPath></defs></svg>