<svg xmlns="http://www.w3.org/2000/svg" xmlns:xlink="http://www.w3.org/1999/xlink" width="255.7" height="374" viewBox="0 0 191.8 280.5"><defs><style>*{stroke-linejoin:round;stroke-linecap:butt}</style></defs><g id="figure_1"><path id="patch_1" fill="none" d="M0 280.5h191.8V0H0z"/><g id="axes_1"><g id="PatchCollection_1"><defs><path id="m31d28080d1" stroke="#f4f4e2" d="m33.8-261.1-.3.5-.3 1.2v2.2l.3 1 .2.6.6 1.3 1 1.7 1.7 2.8 1.6 2.2 1.5 1.9 1.4 1.5 1.5 1.4 1.4 1.1 1.7 1.2 1.4.7.8.4.8.3 1 .3.7.2 1 .3h1l1.5.2h1.3l2.2-.3 2.1-.5 2.2-.6 2.3-.8 8.9-3.2 2.2-.7 2.3-.7 2.2-.5 1.8-.2 1.7-.2h2l2.2.2 2 .3 2.2.3 2.1.5 3.4.8 9.5 2.6 4.8 1.2 4.7 1 3.5.7 4.6.9 7 1.1 23.8 3.6-9 27.7-8.8 26.9-2.3 7.1-.7 2.4-.6 2.4-.6 2.4-.4 2.3-.3 2.4v2.4l.2 2.2.4 2.2.6 2.3.7 2.2.8 2.2.8 2.3 1.7 4.4 1.9 4.4 2.8 6.6 1 2 1 2.1 1 2 1.2 1.8 1.2 1.7 1.3 1.4 1.4 1 1.6.8 1.7.4 3.2.6 1.4.3 1.3.4 1.3.7 1.3 1 .5.4 1 1.1 1 1.2 1.4 1.7 1 1.3 1.8 2.7 2.6 4.2 2.7 3.8.4.7.6 1 .4.8.3.7.3 1.1.1 1.2-.1 1.2-.3 1-.5 1-.5.9-.6.8-1.2 1.5-1.7 2-1.4 1.3-1 .7-1.4 1.2-1.8 1.3-.5.2-6.5 1.2-2.5.5-3.7.9-1.8.5-1.6.5-1.3.5-1.1.5-1 .6-.6.8-.4.8-.2.8-.3 1.6-.2.6-.2.5-.5 1-.4.5-.8 1-1 1-1 1-4.7 3.7-2.1 1.9-1 1-1 1-1 1.3-.9 1.5-.7 1.6-.5 1.3-1.3 4.1-.4 1.4-.7 1.6-.8 1.6-.8 1.5-1 1.6-1 1.3-2.8 4-1.1 1.5-1 1.7-1 1.7-.9 1.7-.6 1.5-.6 1.5-.4 1.2-.2 1v.3l-.5-.5-.9-.8-1.2-1-1-.8-1-.8-.9-.5-.7-.4-1.3-.5-2.7-1-6.8-2.8-2-1-1-.4-1-.6-.9-.7-.8-.8-2.2-2.7-.8-.8-1.3-1-1.3-1-.8-.5-.8-.4-.9-.3-2-.7-5.4-1.6-1.3-.4-1.3-.2-1.2-.3h-4.5l-1.4.3-2.6.6-8.3 2.3-1.1.3-1.3.3h-.9l-1.2.2h-1.2l-1-.1-.6-.2-.3-.2 1.7-9 1.2-5.8.3-1.8v-2.4l-.4-1.4-.2-.7-.5-.8-.7-1.1-.9-1-1.5-1.7-.8-.7-1.2-.8-1.2-.8-2.4-1.3-1.5-1-1.4-1-1-1-1-1.2-1-1.2-.7-1-.6-1.1-.6-1.2-.3-.8-.3-1-.3-1v-3l.2-.7.3-.8 1.4-3.6.3-1.1.4-1.1.2-1.2.1-.9v-1.7l-.2-.6-.4-1.2-.6-1.2-3.7-7.6-.6-1.3-.4-1.6-.5-3.5-.2-1.3-.4-1-.5-1.3-1-2.5-.4-1-.8-2.8-.8-2.5-.6-2.2-.2-1.2v-3.1l.5-6.2.8-11.6v-5.4l-.3-4.4v-4.8l.2-1 1-3.9.3-1.8.1-1.8v-1.3l-.1-1-.3-1.7-.3-1.1-.4-1.1-1-2.8-.7-1.8-1-1.8-.7-1.3-1-1.5-3.1-4.7-.9-1.4-.5-1-.6-1.6-.4-1.8-.1-2v-2l.2-2 .3-2 1-6.1.4-2.1.3-3 .5-5.3.2-2 .2-2 .4-1.8.6-1.8.6-1.7 1.4-3 .5-1.5.4-1.7.2-1.9.1-1.9v-2.8l-.3-2-.6-6-.2-1.9v-3.9l.3-1.2.3-.8.3-.6.3-.5.4-.4.4-.3.4-.3 1-.4.9-.2.9-.2H31l2.7.1"/></defs><g clip-path="url(#paf0bbe57a5)"><use xlink:href="#m31d28080d1" y="280.5" fill="#f4f4e2" stroke="#f4f4e2"/></g></g></g></g><defs><clipPath id="paf0bbe57a5"><path d="M7.2 7.2h177.4v266.1H7.2z"/></clipPath></defs></svg>