<svg xmlns="http://www.w3.org/2000/svg" xmlns:xlink="http://www.w3.org/1999/xlink" width="424.5" height="374" viewBox="0 0 318.4 280.5"><defs><style>*{stroke-linejoin:round;stroke-linecap:butt}</style></defs><g id="figure_1"><path id="patch_1" fill="none" d="M0 280.5h318.4V0H0z"/><g id="axes_1"><g id="PatchCollection_1"><defs><path id="mf8510837b3" stroke="#f4f4e2" d="M207.3-258.6v.2h.4l.3.1 1.5 1.2 1.2 1.2 1.6 2 1.7 3 2.4 5.5 1.2 2.3 1.4 2.2 1.7 1.9 3 1.8 1.2.4 1.7.5 1.8.2 3 .1 2.7-.1 4.6-.4h2.7l1 .2 2.6.9 2.4 1.3 2.7 2.1 2.2 2.3 5.3 6.7 2.3 2.5 1 .9 3.2 2.5 4.2 2.8 4 3 3 2.6 2 1.8 1.5 1.6 1 1.1 1.3 2 .8 1.8.3.9.4 1.8v1.4l.1 1.6-.2 3.3-1 9.4-.6 6-.1 3v3.2l.2 2.7.3 2.4.8 3.7.8 2.3.8 2.1 3.2 7.6 3 6.8 2 4.2 3.1 5.9 1 2.1.6 1.7.4 1.5.3 1.7v4.5l-.8 4.2-1.1 4.6-2.8 9.1-1.7 6.8-.7 3.5-1.2 6.3-.4 2.8-.3 3.2-.2 4.4.4 6 2.3 23.6.2 4v4.1l-.2 3.1-.5 2.2-.3.8-.3.3-.2.8-.4 1-1.8 3.1-.7.7-1.8.8-.4.5-.2.8.2 2.3v.3l-.3.4-.4.2h-.5l-1.8-.9-.8-.2h-1.5l-1 .4-1 .5-1 .8-.2.5-.2.3-.2-.3-.2-1.2-1.3-11.7-.4-2.1-.2-1.2-.7-2-1-1.8-2.5-2.3-3.3-1.7-4-1.3-4.6-.9-4.8-.6-5-.4-5-.3-10.5-.4-31.4-.4-10-.4-4.8-.3-4.7-.5-4.4-.7-4.3-1-3.8-1.5-3.4-2-1.9-1.6-1.6-1.8-1.3-2-1.2-2-1.6-3-1.4-3.2-2-4.9-2.2-6.3-2.8-9.4-.9-2.4-1-1.7L146-94l-1.3-.5-1.4-.3h-1.9l-2.7.4-4.8 1.3-7.7 2.2-4 .8-3.8.2-3.9-.5-7.8-1.8-4-.6h-4.2L94-92l-4.5 1.1-4.7 1.5-4.7 1.7-4.9 2-5 2L55-77 25.7-63.2l-4 1.8-.3-1.4-.4-3.4v-4.6l.5-5 .2-1.1.2-1.2 1.2-4.5 1.8-4.3 2.4-4 3.2-4 3.7-3.4 4-3.1 4.4-3 4.5-2.6 4.6-2.5 4.7-2.5 9.4-4.6L98.5-132l9.1-4.6 4.4-2.4 4.3-2.5 4-2.7 3.9-3 3.4-3.2 3.1-3.8 2.7-4.2 2.4-4.4 2.2-4.6 1.9-4.7 1.7-4.8 1.5-5 1.2-4.9 1-5 .4-4.5.9-13.5.6-4.3.5-2.8.7-2.3 2.8-8.5.9-3 .7-3.4.4-3.6.1-3.2v-2.7l-.2-2.5-.6-4-1.6-6.7-.3-1.4v-1.4l.3-.5.2-.3.9-.5 1.2-.3h2.2l8.8.7 3.4.2 3.1.1h6l13.9-.7h4.7l4.5.3 3.5.5 2.6.7 1.1.5.3.3"/></defs><g clip-path="url(#pb10acd2687)"><use xlink:href="#mf8510837b3" y="280.5" fill="#f4f4e2" stroke="#f4f4e2"/></g></g></g></g><defs><clipPath id="pb10acd2687"><path d="M7.2 7.2h304v266.1H7.2z"/></clipPath></defs></svg>