<svg xmlns="http://www.w3.org/2000/svg" xmlns:xlink="http://www.w3.org/1999/xlink" width="384.9" height="374" viewBox="0 0 288.7 280.5"><defs><style>*{stroke-linejoin:round;stroke-linecap:butt}</style></defs><g id="figure_1"><path id="patch_1" fill="none" d="M0 280.5h288.7V0H0z"/><g id="axes_1"><g id="PatchCollection_1"><defs><path id="mb853544a26" stroke="#f4f4e2" d="m125.5-261.2.4 1.3 2.8 11.5 1.4 6.2.7 3.8 1 7 1.2 5.6 1.3 4.9 1.7 5.1 2.7 6.1 1.8 3.7 14.8 27.7 2 3.6 2.9 4.2 2.4 3.2 1.8 2.1 2.4 2.8 2.2 2.2 4.6 4.3 2.3 2 7.8 6.4 15 13 3.6 2.7 3.4 2.3 5.5 3 2.7 1.3 3.3 1.5 6.1 2.2 10.2 3.4 13.1 5 4.7 2 3.6 1.9 1.6 1 2.1 1.5 1.9 1.6 1.3 1.5 1 1.3 1 1.7.9 1.7.8 2.5.4 2.2.4 3.4v12.2l.2 5.7.4 5.8.8 9.3.8 7.3.4 2 .1.2-.5.2-2 1L262-44l-4.7 3.5-5.3 4.2-6 4.2-7.6 4.8-5.7 3.2-3.6 1.6-2.8.9-3.7.7-6.6.8-3.8.7-1.4.1H209l-3.1-1-1.5-.9-2-1.4-2.1-1.7-4-3.8-3-3.1-4-4.6-5.2-6-8.4-10.7-2-2.8-2.8-4.3-2.7-5-4.1-9.7-1.2-2.4-1.4-2.3-1.6-2.3-2.3-2.6-2.8-2.5-2.3-1.7-3.3-2-3.3-1.5-4.4-1.3-3-.6-1.8-.2-2.7-.2h-2.3l-2.6.5-3.8.8-3.3.5-4.4.1-3.6-.4-2.9-.8-2.8-1-3-1.3-8.7-4.4-2.4-1-1.4-.3-2.1-.4H89l-.4.3-.2.4-3.4.8-3 .6-2.8.4-2.5.1-2.2-.1-1.2-.3-4.1-1.2-1.9-.5H65l-2.4.5-7 2.5-1.1.3-2 .2-1.4-.1-1-.2-2.3-.8-1.3-.7-2.3-1.6-1-1-1.9-2-1.2-1.6-1-1.7-.8-1.6-.7-1.7-.3-1.7.1-1.5.3-1.5.6-1.8.7-1.7 1.8-3.6 4-7.2 1.6-3.4.4-1.7.2-1.2v-1.2l-.5-1.3-.7-1.1-1-1-.9-1-.8-.5-.6-.3.4-.4.5-1.1.6-1.6.5-1.8.7-4 .3-4.5-.2-4.6-.8-8.7-1-8-.7-3.9-.7-3.9-1-3.8-.7-2-1.4-3.8-2.5-5.1-7-13.3-2.3-5.3-1.4-3.5-1.3-3.7-1-4-1-4.6-1.8-9-1-4.3h.6l3.2-1.2 4.4-1.8 2.2-1.1 3.2-2 8-6.4 1.2-.8 1.3-.5 1-.2h1l1.4.3 6.6 2.2 3.6 1.2 7 1.6 4.2.8 4.5.7 3.4.3 3.4.1 2.1-.1 3.8-.5 20-3.5 19.7-3"/></defs><g clip-path="url(#pb5336f3e44)"><use xlink:href="#mb853544a26" y="280.5" fill="#f4f4e2" stroke="#f4f4e2"/></g></g></g></g><defs><clipPath id="pb5336f3e44"><path d="M7.2 7.2h274.3v266.1H7.2z"/></clipPath></defs></svg>