<svg xmlns="http://www.w3.org/2000/svg" xmlns:xlink="http://www.w3.org/1999/xlink" width="430" height="374" viewBox="0 0 322.5 280.5"><defs><style>*{stroke-linejoin:round;stroke-linecap:butt}</style></defs><g id="figure_1"><path id="patch_1" fill="none" d="M0 280.5h322.5V0H0z"/><g id="axes_1"><g id="PatchCollection_1"><defs><path id="mfb70e95787" stroke="#f4f4e2" d="m236.7-244.8 1.1-.4 2.6-1 6.8-3.3 5-2.8 4-2.6 1.9-.9.8-.1h1.2l1.3.4 1.4.6 2.3 1.6 2.3 2.1 2 2.6 1.7 2.4 3.4 5.1 4.8 8 1.5 2.3 2.2 2.6 4.1 4.4 1.3 1.9.8 2.1 2.7 14 .6 2.3 1 2.5.8 1.9 1 1.6 1.4 1.6.8.7 1.4.8 2.3 1.2.1 1.1v1.8l-.3 3.3-2 15.2-1.4 16.8-1.5 12.9-.6 8.4-.8 7.3-.7 5.2-.9 5-4.7 19.7-2.8 14.8-1 7.1-.9 8.9-2.4 17.3-.7 7.3-.1 5.5-23 3.6-23.3 4.2-4.4.5-2.4.1-4-.1-4-.4-5.2-.8-5-.9-8-2-4.3-1.2-7.7-2.7-1.6-.3h-1.2l-1.2.2-1.4.7-1.5.9-9.4 7.4-3.7 2.3-2.5 1.3-5.1 2.2-3.8 1.2-.7.1-2-7-.8-2.2-1-2.3-1.1-1.7-.8-1-1.4-1.7-1.5-1.2-1.7-1-1.7-.5-2-.1h-1.7l-3.1.6-4 1.2L126-33l-3.9 1.4-4.8 1.2-5 .6h-3.9l-4-.3-4.6-1-4.3-1.5-3.2-1.7-2.4-1.4-1.5-1.1-1.7-1.6-1-1-1.4-2.2-1.1-2.3-.9-2.6-1-3.8L79-62.5l-.8-4-1.2-3.8-2-4.7-2-3.5-2.4-3.4-2.7-3.1-3-3-3.2-2.7-3.3-2.5-6.4-4.1-3.4-2.5-2.4-2-2.3-2.1-2.2-2.3-6.2-7-3-3.1-5.9-5.9-5.3-4.9.6-1 .3-3-.4-11 .2-5 .4-2.1.6-1.8 2.3-4 3.3-3.2 3-1.9 5.7-3 2.4-1.5 2.8-2 4-3 6.2-5.3 3.2-3.1 3-3.3 2.4-3 1.7-2.5 2.4-4 2.8-5.5L71-203l2.8-7.3 1.9-6 1-4.5 1.7-7.9 1.5-6.3 2.2-7.7 2-5 1.4-3.1 1.4-2.4 2.2-3 2.5-2.5 2.9-1.8 3.2-.7 3.4.4 2.5 1.2 2.5 1.7 7.2 6.1 3.9 3 4.1 2.7 3.8 2.2 7.3 3.6 5 2 2.7.8 3.4.8 3 .4 3.7.3 4.2-.1 4-.7 2.4-.6 4-1.5 2.4-1 10.4-5 2.7-1.3 3.1-1.2 3.6-1 3.8-.7 4.3-.2h2.3l4.9.4 3.2.4 7 1.4 13 3.3 3.7.6 3.2.2 2.7-.3 1.2-.6.4-1"/></defs><g clip-path="url(#p42ea2ab23b)"><use xlink:href="#mfb70e95787" y="280.5" fill="#f4f4e2" stroke="#f4f4e2"/></g></g></g></g><defs><clipPath id="p42ea2ab23b"><path d="M7.2 7.2h308.1v266.1H7.2z"/></clipPath></defs></svg>