<svg xmlns="http://www.w3.org/2000/svg" xmlns:xlink="http://www.w3.org/1999/xlink" width="495.4" height="346.9" viewBox="0 0 371.5 260.2"><defs><style>*{stroke-linejoin:round;stroke-linecap:butt}</style></defs><g id="figure_1"><path id="patch_1" fill="none" d="M0 260.2h371.5V0H0z"/><g id="axes_1"><g id="PatchCollection_1"><defs><path id="m0d05a3413c" stroke="#f4f4e2" d="M317.2-205.4v.2l-.2.7-.4 1.3-1.1 2.2-3.2 6.1-1.4 2.7-1.2 2.7-.5 1.4-.4 1.4-.3 1.4-.1 1-.1 1.1v1l.1 1.1.2 1 .2 1 .4 1 .5 1.1.6 1.1.8 1 .7.8.8.8 1 .8 1 .7 1.1.6 1 .4.8.3 1.2.3 1.2.3 2 .2 7.9.5 2.4.2 1.3.2 1.5.3 1.6.4 1.2.4 1.2.4 1.2.5 1.3.7 1.3.8 1.2.8 1 .7 1.7 1.4.7.7.7.7-8.9 9.6-3.2 3.2-2.8 2.7-5.6 5-3.5 3.2-2 1.8-2.8 2.3-3.3 2.9-1.6 1.1-3.4 2-.6.4-.4.3-.3.4-.4.6-.4 1-.2 1-.2 1.6-.2.9-.2.5-.6 1-.5.6-.8 1-1.4 1.4-1 1-1.8 1.3-7.9 5.4-1.5 1.3-2.8 2.5-2 1.8-1.4 1-1 .5-1.4.8-1 .4-1.4.4-1 .3-1.4.2h-2.7l-4.7-.3-3.3-.4-1.6-.4-1.1-.5-3-1.2-1.3-.4-1-.2-1.2-.1h-1.9l-.7.2-1.5.3-1.5.5-1.4.5-3.3 1.3-5.5 2.6-2.9 1.3-7.4 2.7-3.6 1.2-2.1.6-2.1.5-2.3.3-2.4.3-1.7.1h-1.6l-1.4-.1-4-.6h-2l-.7.3-.5.2-.9.5-.7.6-.7.9-.5.8-1.6 3.3-1 1.8-1.2 1.7-1.2 1.4-1.4 1.2-1.4 1-1.4.9-.4.1h-.5l-.2-.2-.8-.5-2.1-1-1.5-.5-.9-.2-1.3-.3-.7-.1-1.4-.1h-1.7l-1.4.1-1.7.3-1.2.3-1.3.5-1.2.6-1.8 1-5.5 3.1-2.1 1.3-2.8 1.9-2.6 1.8-2.3 2-2 2-1.5 1.5-.8 1-.9 1.3-.8 1.5-.7 1.5-2 5.1-1 2.4-.8 2-.7 1.1-.6 1.1-1.2 1.7-1.5 2-1.2 1.3-1.1 1.3-1.6 1.7-3.7 3.6L138-33l-2.3 2.6-1.5 1.6-1.7 1.4-1.8 1.3-1.9 1-2 1-2.3.6-2.3.4-2.4.3h-2.4l-6.5-.3h-6.1l-4.5.2-3 .1-3.2.3-4.7.6-4.2.7-2 .4-1.9.5-1 .4-1 .5-1 .5-.5.4-.1.2-.1-.1-.6-.4-1.4-.4-1.6-.3-1.9-.2-2.6-.2-4.1-.3-1.7-.1-1.9-.3-1.7-.5-1.4-.7-1.9-1.3-1.5-1.9-.7-1.1-.5-1.3-.5-1.6-.3-1.7-.3-2v-7.7l.5-4.6.2-2.3.7-4.8.8-4.6 2-11.2.8-4.8.3-2.4.2-2.6v-6.7l-.3-2-.3-2-.5-2-.6-1.9-.9-2.4-1.1-2.3-1.4-2.2-1.5-2-1.3-1.4-1.4-1.3-1.5-1.3-1.8-1.3-1.9-1.2-2-1.2-6-3.5-1.4-.8-2.2-1.6-2.1-1.8-2-2-1.6-2.3-1.1-2.1-.9-2.3-.7-2.7-.4-2.8v-4.3l.1-2.6.3-2.6.4-2.3.6-2.7.7-2.7.8-2.6 1.3-3.4.9-2.2.9-1.8.7-1.3v-.3l1.1-.9 1.4-1 2-1.3 2-1.3 2.4-1.4 2.8-1.4 9.2-4.6 2.7-1.4 2-1.2 2.7-1.7 2.7-1.9 2-1.6 2.1-1.7 1.5-1.3 1.9-1.8 1.7-1.8 2-2 3.2-3.7 2.8-3.6 5.7-7.2 9.7-13 1.2-1.5 2-2.2 1.2-1.4 1.5-1.3 1.5-1.3 1.6-1 1.6-1 1.3-.6 1.5-.5 1.6-.5 1.6-.3 2-.3 2.2-.2h4.3l2.5.4 2.8.4 2.6.6 2.7.8 2 .6 2 .7 2.5 1 2.4 1.2 2.3 1 3 1.7 2.5 1.4 10 5.7 2.6 1.4 2.5 1.4 3.2 1.4 1.6.7 1.8.6 1.8.6 2.7.6 1.7.2 1.7.2 1.8.1h4.5l1.6-.2 2.5-.3 2.7-.5 1.7-.4 3.1-.8 3-.8 3.7-1.3 2.7-1 2.6-1.2 1.7-.7 1.7-.9 2.6-1.4 1.5-.8 3-1.8 8.2-5.4 2.3-1.4 1.8-1.1 2.8-1.5 2.8-1.4 2.3-1 3.5-1.4 2.3-.7 2.7-.8 3-.7 1.8-.4 2.5-.5 2.9-.4 2.3-.3 3.5-.3h1.7l3-.1 9.6.2h4l2.7-.2 3.6-.3 2.8-.3 3.9-.5 2.8-.4 3.7-.7 5-1 2.5-.7 1.8-.6 2.3-1 1.4-.7 2.4-1.4-1 2-1 1.9-1 2.3-.8 2.2-.5 2.2-.3 2v3.9l.2 1.4.1.7.4 1.3.4 1.3.9 2 3.4 7.4 1.5 3.6.5 1.3.3.8"/></defs><g clip-path="url(#p5d81c8495c)"><use xlink:href="#m0d05a3413c" y="260.2" fill="#f4f4e2" stroke="#f4f4e2"/></g></g></g></g><defs><clipPath id="p5d81c8495c"><path d="M7.2 7.2h357.1V253H7.2z"/></clipPath></defs></svg>