<svg xmlns="http://www.w3.org/2000/svg" xmlns:xlink="http://www.w3.org/1999/xlink" width="374.8" height="374" viewBox="0 0 281.1 280.5"><defs><style>*{stroke-linejoin:round;stroke-linecap:butt}</style></defs><g id="figure_1"><path id="patch_1" fill="none" d="M0 280.5h281V0H0z"/><g id="axes_1"><g id="PatchCollection_1"><defs><path id="m632e697930" stroke="#f4f4e2" d="m258.7-104.6-2.2.6-1.8.6-.9.4-3.8 1.8-1.3.5-1.7.5-1.3.2-3 .4-12 1.6-5 .6-3 .7-2 .5-1.3.4-1.2.5-3.8 1.9-2 .7-1.2.5-2.6.7-3.1.9-3 .9-11.7 3.7-1.8.5-6.8 1.6-3.5 1-5 1.7-1.5.6-1.4.7-1.6 1-.6.5-1 1-.7.8-.7 1.1-.4.8-.3 1.1-.1.6.1 2 .6 2.1.5 1 1.1 2.3 1.3 2.3 4.5 7.5 2.7 4.6 2.5 4.7 1.7 3.7 1 2.2.7 2.3.5 1.7.4 1.7.3 1.6v1.7l-.2 1-.3.7-.4.8-.3.5-.6.7-.6.7-1.4 1.2-1 .7-1.1.7-1.2.6-1.7.7-1.6.6-5 1.6-2.5.7-2.1.6-2 .3-2.4.2h-1l-2.2-.2-2.5-.4-1.3-.1h-1.3l-.2-.1-.4-.3-1.9-1-3-1.5-3.3-1.5-1.4-.6-2-.6-6.5-1.8-2.7-.8-1.6-.7-1.6-.9-1.2-.9-1.5-1.5-1.7-1.9-2.7-3.4-2.6-3.2-.7-.9-1.3-1.4-2.5-2.5-1.3-1.5-.8-1-2-2.9-2.3-3.2-.6-.8-.8-1.3-.4-1-.5-1.4-.2-1.5v-1l.2-1.3.3-1 .4-1.2 1-2.5.5-1.2.2-1v-1l-.2-.4-.1-.3-.9-.9-1.2-.6-2.3-.9-7.3-2.3-8.4-2-2.2-.8-2-1.2-3.4-2.4-2.4-1.8-2-1.7-1.8-1.9-1.7-2-2.6-3.4-3.1-4.4-1.7-2.5-6.6-10.8-1.4-2-.9-1-1-1L51-116l-3.2-2.5L46-120l-1.7-1.6-5.6-5.7-1.1-1.1-1.5-1.4-1.6-1.2-1.6-.8-1.7-.5-2.2-.3-.6-.2-.2-.2.5-.7.3-1.7.2-2.3v-2.6l-.5-2.7-.7-2.3-1-2.3-2.9-6.3-.8-2-.9-2.4-.8-2.2-.7-2.5-.8-3.3-.4-2.1-.3-3v-6.3l.3-1.5.5-2.3.7-2 1-2.6 3.5-8.4 1.7-4.2 1-2.9.8-2.5 2-7.2.6-2.2.6-1.8.9-1.8.4-.7.5-.6.8-.6 1.2-.5 1.2-.1 1.2.1 1.2.3.9.4 1.8 1 1.5.6 1.6.5h1.5l1-.5.8-.7.6-.8.7-1 .5-1.3.3-1.2 2.4-10.5.7-4 .1-1v-.3l1-.7v-.2h.2l.4.2.3.4 1 1.3 2.4 3.7.7 1 .6.7.8.5.4.3.8.2.7.2h2.2l.7-.1.5-.2.6-.5 1-.8.8-.6.9-1 3.4-4 4.9-6.3 1.6-2 1.3-1.4 1.4-1.6 3-2.7 2.8-2.5 3-2.4 4.9-4 .8-.7 3.7 3.9 2.1 2.2 4.8 4.7 2.5 2.3 2.6 2.3 2.6 2 2.8 2 7.2 4.7 4 2.8 2 1.1 1.4.7 3.7 1.6 1.1.7 1.2.7 2.8 2 3.6 2.9 5.2 4.4 2.3 2.2 3 2.8 2.5 2.7 7.1 7.6 1.5 1.8 1.3 1.5 1 1.5 1.5 2.5 2.6 4.8 1 1.8 1 1.6 3.3 4.7.6 1 1 1.9.4.6.7 1.8.5 1.8.3 1.8v1.2l.3 4.6v5.5l.1 2.2.4 3.5.4 2.5.5 2.6 1.1 5.1.8 3 1 3.7 1 2.6.4 1.2.7 1.6.6 1.3.8 1.2.9 1 1 1 1.2.7 1.4.7 2 .6 1 .3 1.4.3 1.3.1 1.8.1h2.3l1.2-.2 1.6-.3 1.6-.4 1.9-.7 2.3-.9 5.2-2.2 2.3-.9 2.2-.8 2.2-.7 1.9-.5 2.3-.6 3-.4 1.9-.2h5.3l2.8.4 1.6.3 1.6.4 1.7.5 1.6.5 2.6 1.2 2.4 1.5 1.7 1.3.9 1 1 1.2.8 1.3.7 1.3 1 2.3 1 2.8.7 2.7.2 1.5.2 1.5v3.5l-.2 1-.3 1.3-.6 2-.5 1.4-.5 1.2-.6 1-.2.3"/></defs><g clip-path="url(#p4d9405ae43)"><use xlink:href="#m632e697930" y="280.5" fill="#f4f4e2" stroke="#f4f4e2"/></g></g></g></g><defs><clipPath id="p4d9405ae43"><path d="M7.2 7.2h266.7v266.1H7.2z"/></clipPath></defs></svg>