<svg xmlns="http://www.w3.org/2000/svg" xmlns:xlink="http://www.w3.org/1999/xlink" width="311.5" height="374" viewBox="0 0 233.7 280.5"><defs><style>*{stroke-linejoin:round;stroke-linecap:butt}</style></defs><g id="figure_1"><path id="patch_1" fill="none" d="M0 280.5h233.7V0H0z"/><g id="axes_1"><g id="PatchCollection_1"><defs><path id="m5eca6c1618" stroke="#f4f4e2" d="m191.6-254-.2 1-.1 1.4v2l.2 2 .5 2.8.3 1.1.6 1.3 1.2 2.1 3.8 5.6 4.4 7.6 6.8 10.4 1.5 2.8.7 2 .6 2.8.5 6 .3 3.1.3 1.4.7 2.8 1.7 6.3.4 2.2.2 2.3.3 2.6.2 6.5v3l-.5 5.7-.4 3.5-.7 3.4-.6 2-2.3 5.7-.7 2.2-.8 3-1.4 6.2-1 3.2-1.6 4.2-2.5 7.3-1.2 3-3 6-1.7 3.7-6.6 15-3.4 7.6-3.9 9.4-1 2.6-.5 1.9-.3 1.5v1.5l.2 1.7.8 1.2 1.4 1 1.8.6.9.2h.7v.5l-.5.5-.7.8-1 .8-1.9 1.2-2.7 1.2-1.5.5-1.6.4-2.9.6-7.1.7-2.5.5-1.1.3-1.5.6-1.5.7-2.6 1.6-5.2 3.9-3.1 2.1-10.3 6.4-4.8 3.2-2.3 1.6-1.9 1.5-8.2 7.2-2.6 1.9-3.3 1.9-2.3 1-2.4 1-4.3 1.3-3.4.8-3.6.6-3.2.5-6.4.5-5 .3-18.3.4-4.6.1-5.7.4-6.3.7-11.5 2-1.7.1-7.6-2.8-6.1-2.1-1.6-.8-.5-.4-.4-.5-.7-1.1-.8-2-3-10.4-.6-2-.2-1.4-.1-1.3v-.8l.2-.2.7-.3h.5l2.2-.1 2.6.2 6.3.8 15 2.6 2.8.4 2.6.1h2.4l3.1-.1 3-.5 2.6-.6 2.5-.8 2.7-1 3.1-1.3 3.2-1.4 4.3-2.2 5-2.8 3-1.7 2.2-1.5 2.1-1.6 2-1.6 1.5-1.5.8-1 1-1.5.5-1.2.6-1.7.2-1.4V-69l-.6-3-1.1-3.2-1-2.3-1-1.9-1.5-2.2-2.2-3-5.9-7.6-1.8-2.7-1.9-3-1.3-2.5-1.1-2.4-6.3-15.2-3.6-8-2-4-1.7-3-1.6-2.8-2.4-3.6-2.2-3.1-1.4-1.7-1.7-1.8-3-2.8-1.8-1.5-2.5-1.7-2-1.2-2.9-1.6-3.8-1.8-2.5-1.1-4.5-1.6-2-.6-2-.5-1.7-.3h-2.1l-.5.2-.2-.4-.2-.7v-.6l.2-.5.4-.4.8-.7 2.1-1.3 4-2.4.9-.6.7-1 .8-1.1.3-1 .2-.7v-1.2l-.1-1.2-.8-4.1-1.3-6.3-1.2-6.2-2.3-10.1-.8-5.4-.7-4-1.2-5.2-1.5-4.8-.3-1.4-.2-1.4v-3.6l-.3-3.2-1-9-.2-1.3-.4-1-.4-.9-.4-.2 6.2-1.8 2.6-.7 2.8-.5 3.7-.4 3.6-.3h2l2 .2 1.3.3 2.5.8 2 1.2 2 1.5 2.3 2.2 1.2 1.2 6.3 7.1 2.1 2.2 3 2.7 2.4 1.7 2.7 1.5 1 .4 1.5.5 1.4.3 1.3.2h1.4l1.7-.1 2.8-.5 3-.7 4-1.4 9.3-3.4 2-1 2.2-1 10.2-6.2 2-1.2 2.3-1 4.4-1.7 15.7-5.4 2.8-.7 1.8-.3 4.2-.3h4.7l2.4.3 4 .5 1.9.2 1.6-.1 1.3-.2 1-.2 1.3-.4 1.8-.8 2.1-1.4 5.2-4.3 2.7-2 1.9-1.2 5-3 1.8-1 1.3-.6.7-.1 1.8 5.1.5 1 .2.2.6.2 2.9.7"/></defs><g clip-path="url(#pae0b8775a3)"><use xlink:href="#m5eca6c1618" y="280.5" fill="#f4f4e2" stroke="#f4f4e2"/></g></g></g></g><defs><clipPath id="pae0b8775a3"><path d="M7.2 7.2h219.3v266.1H7.2z"/></clipPath></defs></svg>