<svg xmlns="http://www.w3.org/2000/svg" xmlns:xlink="http://www.w3.org/1999/xlink" width="495.4" height="358.2" viewBox="0 0 371.5 268.6"><defs><style>*{stroke-linejoin:round;stroke-linecap:butt}</style></defs><g id="figure_1"><path id="patch_1" fill="none" d="M0 268.7h371.5V0H0z"/><g id="axes_1"><g id="PatchCollection_1"><defs><path id="mf82c9487a6" stroke="#f4f4e2" d="m347.8-242 .3.6-.3 1.2-.7 1.3-.5.8-1.4 1.7-1.6 1.8-1.6 1.4-2.2 1.9-3.4 2.5-4.7 3-6 3.7-9.7 5.8-3.2 2-1.4 1-1.9 1.6-1 1-1.3 1.5-1 1.5-1.3 2.7-1.1 3.5-.7 3.4-.3 2-1.3 10.8-.6 3.7-.7 2.7-.4 1-1.2 2.3-.5.7-1.8 1.8-2.9 2-2 1-1.7.9-3.4 1.4L276-164l-2.2.9-3.5 1.7-2.9 1.9-1.7 1.4-1.2 1.2-1 1.4-.8 1.3-.7 1.5-.4 1.2-.6 2-.4 3v2l.1 2.1.4 2.9.6 2.8 3 10.5 1 5.1.6 4v4.3l-.2 2.1-.6 3.9-1 4-.8 3-1.9 6.3-1.2 3.5-3.8 10.6-1.7 4-1.6 3.7-1.6 3.2-1.2 2-1.4 2.1-2.6 3.5-3 3.2L241-55l-2.2 2-3.2 2.7-4.1 3.1-7.2 5-6.7 4.4-.1-.2-.5-.3-1.2-.5-2.6-.6-3-.2-1.9.1-1.6.2-2 .4-1.7.5-3 1-3.2 1.8-4.2 2.8-1.6.9-1.6.7-1.8.6-2 .4-1.4.2-9.8.7-3.4.5-2 .4-1.8.6-1.3.6-.9.5-1.6 1.2-2.9 3-1.8 1.7-1.3.9-1.2.6-1.7.6h-1.3l-3.7-.4-1.2-.3-1-.6-1-1-.9-1.3-2-3.9-1.1-1.8-.7-.9-1-.8-1.3-1-1.5-.6-1.6-.6-1.6-.3-1.9-.3h-2.1l.3-.4-.3-.3-1-.3h-3.5l-8.4.6h-3.8l-1.6-.2-2.2-.5-1.9-.9-1.5-1.3-1.2-1.7-1-2-1.9-4-1-1.9-3-4-1.4-2.1-1-2.5-.8-2.7-1.9-8.8-.7-2.9-1-2.8-1.4-2.5-1.5-2-2.6-2.4L83-81 61.6-96l-3.7-2.7-5.3-4.1-5.7-4.6-4.9-4.1L26.8-125l-2.3-1.8-1-.7 2.6-2.7 1-1.3 1.3-1.8.9-1.5 1.2-2.7 1.2-3.3.8-2.7.4-2.2.4-7v-1.9l-.3-2-.6-2.8-2.3-8.5-.6-3.6-.2-2.6v-3.9l.6-5.1 1-4.8.5-1.1.4-.9.9-1 1-.7 1.3-.8 1.6-.9 4-1.6 4.2-1.3 1.8-.7 9-4.4 3-1.2 2-.5 3.9-.7 4.8-.5 6-.5.5.2.6-.1 1.6-.4 2.3-.7 3.3-1.2 3.5-1.5 9-4.3 5.6-2.5 4.3-1.8 8.3-3.1 2.6-1.1 10.6-5.1 4.5-2.4 14-8.4 6.7-4.3 3.7-2 4.1-2 4.1-1.4 3.5-1 3-.5 4.9-.4h3.7l6 .5 7.4.9 11.5.5 3 .3 5.3.7 5.2.3h2.5l2-.2 8.8-1 5-.4h4.4l3.7.3 2.4.3 3.2.5 2.6.6 3.4 1 4 1.4 3 1.2 3.2 1.3 12.8 6.2 2.4 1 .9.1h.3l1.3-.2h2.6l1.1-.1.9-.4 2.3-1 3-.8 1.4-.5 4.4-2 2.8-1.5 3.7-2.1 4.7-2 1.2-.6 3.6-2.4 3.8-2.2 1.3-.5 1.4-.3h2.6l3.7.8 4.3.6 2.2.4 1.3.6.8.5 3.5 2.7 1.5.9 2.4.7 2.4.5 1 .1"/></defs><g clip-path="url(#p3203bc9baf)"><use xlink:href="#mf82c9487a6" y="268.6" fill="#f4f4e2" stroke="#f4f4e2"/></g></g></g></g><defs><clipPath id="p3203bc9baf"><path d="M7.2 7.2h357.1v254.3H7.2z"/></clipPath></defs></svg>