<svg xmlns="http://www.w3.org/2000/svg" xmlns:xlink="http://www.w3.org/1999/xlink" width="381.1" height="374" viewBox="0 0 285.9 280.5"><defs><style>*{stroke-linejoin:round;stroke-linecap:butt}</style></defs><g id="figure_1"><path id="patch_1" fill="none" d="M0 280.5h285.9V0H0z"/><g id="axes_1"><g id="PatchCollection_1"><defs><path id="mdd5ca4b464" stroke="#f4f4e2" d="M266.3-253v1.1l-.8 3.7-2.1 9.7-.4 1.2-.5 1.1-.5 1-.6.7-.8.7-.9.3h-1.4l-1.4-.3-1.4-.6-1.7-1-.9-.3-1-.3h-2.2l-1.2.5-.7.5-.4.6-.5.6-.7 1.7-.7 1.7-.6 2-1.8 6.6-.7 2.4-.9 2.7-1.6 3.9-3.3 7.7-.9 2.3-.6 2-.5 2.1-.2 1.4-.1 2v4l.3 2.6.4 2 .7 3 .7 2.3.7 2.1.9 2.3.7 1.7 2.8 5.8.8 2.2.7 2 .4 2.6v2.4l-.1 2.1-.4 1.6-.4.7-.2.5-.4.8-.7.9-4.8 6.1-1.3 1.7-1.5 2.1-1.1 1.9-1 1.9-.9 1.7-.6 1.8-1.6 4.6-.7 2-.8 1.8-1.4 2.6-2.4 4-1.3 2.6-.7 1.6-.7 1.8-2.4 6.8-.7 1.7-2 3.7-1.5 3.1-.9 1.5-.9 1.3-1 1.3-1.6 1.6-1.6 1.4-2.1 1.4-2 1-1.7.6-1.8.5-1.8.4-4.2.7-10.6 1.4-4 .7-2 .4-2 .4-2 .7-2 .8-1.5.8-1.3 1-1.5 1.5-1.1 2-1 2.2-.5 2.3-.2.8-.1 1-.2 2v4.9l.2 2.7.2 2.3.6 4.7.4 2.6.4 2.6 1.8 8 .5 2.5.2 2.2.1 2.3v3l-.2.4-1.2.5-1.4.6-2.8.8-2.5.7-1.5.3-2 .2h-3.8l-1.6-.2-1.2-.3-5-1-3.1-.6-1.5-.2-1.7-.1h-4l-5.5.7-2.4.2h-2.6l-1.5-.4-1-.3-1.1-.6-1.2-.6-2.9-1.8-1.8-1-5.3-2.3-1.4-.5-1.6-.6-2-.4-1-.2-1.3-.2-1.3-.1h-4.8l-1.9.1-2.8.4-3 .6-1.6.4-3.4 1-1.7.7-3.5 1.3-3.6 1.5-5 2.1-4.2 1.9-5 2.4-5 2.5-2.3 1.3-1.7 1-1.7 1.2-1.2 1-.6.7-.1.3L46-22l-2.5-3.4-2.3-3.4-1.5-2.4-1.3-2.2-1.2-2.3-3.3-6.3-2.5-4.3-.7-1.4-.6-1.6-.5-2-.2-1.5-.1-1.4v-1.2l.1-1.3.4-2 .7-3 .5-1.8 1-3.1.5-1.6.1-1v-2.5l-.4-1.6-.5-1.3-.4-1.2-1-2-2-4.5-3.7-6.9-1.6-3.1-1.5-3.1-.7-1.8-.7-2-.2-1-.2-1.1-.2-2v-2.4l.2-.8.3-1.7.5-2.4.4-1 .5-1.5.9-2 1.4-2.8 3-5.8 3.4-6 6.2-10.5 1.4-2.3 1.5-2.2 1.6-2.2 1-1.1.8-1 1.5-1.6 2.4-2.1 2-1.8 2-1.5 6.8-5 1.7-1.3 1.8-1.6 1-1 .5-1v-.3l.3-1 .9-2.2 1.9-4.5 1.6-3.6 2-4.1 4-8 1.2-2.7 3.3-7.7 2.2-5.8.9-2 .7-1.5.8-1.5 1-1.5 1-1.4 1-1.4.8-1 3.1-3.5 1.4-1.6 2.5-3.3 1.5-2 3.2-3.7 1.4-1.4 1.2-1 4-2.9 2-1.6 1.2-.8 1.9-1.1 4.1-2.2 2.4-1.3 1.8-.8 2-.7 1.8-.4 1.5-.2 1.6-.2h4l1.4.2 3.9.6 3.1.4 1.5.2 2.8.2h5.7l9.1-.5h5l2 .2 2 .3 1.8.6 1.4.8 3.4 2.3 1.4.8 1.3.7 1.8.8 2.2.7 2.3.5 2.3.4 2.4.3h2.6l1.8-.2 2.2-.2 3.4-.6 2.4-.5 1-.3 1.3-.4 1.4-.5 2-.9 1.2-.7 1.3-.8 2-1.5 3.5-3.5 1.8-1.4 2-1.2 2.4-1.2 2.4-1 2.6-1 2.6-1 5.5-2 8-2.4 5.3-1.6 5-1.4 2.5-.6 2.7-.5 2.6-.4 2.4-.1 2.2.2 1.7.6.9.7.5.7.4.8.5 1.4.6 2.8.3 1"/></defs><g clip-path="url(#p5bccc18fc0)"><use xlink:href="#mdd5ca4b464" y="280.5" fill="#f4f4e2" stroke="#f4f4e2"/></g></g></g></g><defs><clipPath id="p5bccc18fc0"><path d="M7.2 7.2h271.4v266.1H7.2z"/></clipPath></defs></svg>