<svg xmlns="http://www.w3.org/2000/svg" xmlns:xlink="http://www.w3.org/1999/xlink" width="285.3" height="374" viewBox="0 0 214 280.5"><defs><style>*{stroke-linejoin:round;stroke-linecap:butt}</style></defs><g id="figure_1"><path id="patch_1" fill="none" d="M0 280.5h214V0H0z"/><g id="axes_1"><g id="PatchCollection_1"><defs><path id="mc605be95fd" stroke="#f4f4e2" d="m142.9-261.2.1.1h2.1l.7.1.3.1.4.1.5.3.3.4.4.7.2.8.1 1v2.1l-.2 2.2-.3 2.1-.4 2.2-.4 2.5-1.5 8-.4 2.2-.1 1v1l-.1.7v1.5l.1.9.2.5.2.5.1.3.3.4.3.5.4.5.3.3.2.2.3.2.8.3.9.3 1 .2 2.2.3 1.5.3 1.4.3 1 .3 1.3.3 3.7 1.2 1 .3h.5l-.2 1.1-.8 3.5-1.3 5.8-.5 2.6-1.2 5.5-.8 4-.5 2.7-.2 1.3-.2 1.3v1.3l-.1 1.3v1.3l.1 1.2.2 1.3.3 1.2.3 1.3.6 2.5.8 2.5 1.5 5 .8 2.5.4 1.2.5 1.2.6 1.6.4.8.6 1.3 1.7 3.2.8 1.5.5 1 .6 1 .6.9.6.7 1 1 .4.5 1.3 1.1.9.7.9.7.6.4.5.3.5.3.3.1.7.3 1 .2.8.1h.8l2 .2h.7l.6.2.3.1.5.3.3.2.8.7.7.5.7.4.9.4.9.3 1.2.5 4 1 .7.3 1 .4.7.4.5.4.2.1.5.7.4.8.4.9.3 1 .2 1 .1 1v1l-.5 2.9v.9l-.1 1.3v2.8l.1 1.5.2 1.5.3 3 .5 3 .5 3.6-.5.4-6.8 7.9-1.5 1.7-1.4 1.3-1 1-.6.6-.5.4-.6.4-.5.3-.4.2-.5.2-.3.1-.6.2h-1.1l-.5-.2-.3-.1-.6-.4-.7-.4-1.9-1.4-.6-.4-.3-.2-.8-.3-1.6-.6-2.4-.8-1.4-.4-2-.6-1.8-.3-1.6-.3-2.1-.2h-.7l-1.4-.3-2.2-.6h-.8l-1.5-.2h-2.1l-1 .2-.7.1-6.8 1.6-4 1-1.4.5-.8.2-2 .8-1 .4-.8.4-.2.2-.4.4-.2.3-.2.3v.3l-.2.8.1.4.1.5.2.5.4.6.6.8.6.8.8.7 2.7 2.4 1 .8.8 1 .8 1 .2.3.6 1 .5 1.1.4 1.2.4 1.2.3 1.2.2 1.2.5 2.5 2.6 16.9.7 4.4.8 4.3-1.4.5-1.9.6-1.6.4-1.2.3-1 .2h-4l-1.1.2-1.4.3-.7.1-.8.2-1 .3-.5.2-1 .4-.8.4-1.2.7-1.9 1.2-2.6 1.6-2.3 1.4-1 .5-.5.5-.5.4-.4.4-.7.8-.5.8-.7 1.1-.4.8-1.7 3.5-.8 1.4-.5 1.1-.5.8-.5.8-.6.8-.4.6-.7.8-.8.7-1 .8-.6.5-1.3.8-.7.4-1.3.7-.8.4-3.3 1.5-1.3.6-1 .5-1.1.6-1.3.8-.8.6-.8.6-.8.6-1.3 1.2-2.8 2.5-.7.6-.8.7-1 .7-.4.3-.5.2-.5.3-.6.2H87l-.5.1h-.9l-.8-.2-.7-.2-1.5-.4-.9-.2h-1.5l-1 .2-2.2.6h-.6l-.9.1h-3.9l-1.6.4-1 .2-.4.1-2.3.8-1.2.3-.6.1h-.2l-.2-.2-.3-.2-.2-.1h-1.1l-.5-.1h-.1l-.1-.1-.3-.2v-.3l-.2-.3v-.7l.1-.2v-2.8l-.3-.9-.2-1-.3-.6-.5-1.3-.4-.8-.5-1-.6-1-1.7-2.8L56-35l-.4-1-.3-1.1v-1.2l.2-.4.1-.2.3-.4.2-.2.3-.4.4-.4.5-.4.4-.2.8-.5 1-.6 1.1-.5 1.5-.6 2.3-.8.5-.2.6-.3.3-.2.4-.3.7-.7.4-.4.5-.5.3-.4.3-.5v-.4l.2-.7v-.5l-.1-.6-.1-.5-.2-.6-.2-.7-.7-2.3-.2-.8-.1-.6v-1.2l.1-.8.2-.4.5-1 1.3-2 .6-1 .2-.6.1-.3v-.9l-.1-.3-.2-.3-.3-.3-.2-.2-.3-.1-.4-.1-.3-.1h-1.1l-.6.2-.8.3-1.4.6-.3.1h-1.2l-.2-.3-.2-.2-.2-.3-.2-.4-.2-.4-.2-1-.3-1-.1-.9-.2-1.7-.2-2.1v-3.6l.2-1v-.5l.2-.4.2-.4.3-.2.3-.3.7-.3 1.3-.4.9-.3.5-.2.4-.2.4-.3.3-.3.1-.2.2-.3.2-.3v-.3l.1-.4v-.9l-.2-.7-.5-1.4-.3-1v-.5l-.1-.6v-.6l.3-.7.6-1.3.2-.5v-.4l-.4-.6-.6-.6-.8-.6-1-.6-1-.5-1.2-.6-3.8-1.7-13.3-6-17.7-7.9 1 .1 1.8.1h4.1l1.6-.3 1.2-.2 1.3-.2.8-.2 1.2-.4 1-.3.7-.3.8-.5.4-.2.8-.6.7-.7.4-.5.4-.7.2-.5.2-.7.5-1.7.4-1.5.3-1.3.1-.8.2-1 .2-1.3.1-1.3v-1.2l.1-1.6v-1.3l-.1-.9-.3-1.2-.2-.8-.3-.8-.4-1-.4-1-2.2-4.6-.9-2-3.8-8.8-3.2-7.2-1.2-2.7-1.3-2.7-1.2-2.3-.6-1.2-.6-1-.6-1.1-.7-1-.7-1-.6-.8-1.2-1.5-1-1.1-3.6-3.8-.9-1-.9-1-.8-1-.5-.7-.5-.8-.7-1.2-.6-1.4-.5-1.3-.5-1.2-.3-1.1-.3-1.2.1-.2.2-.2.4-.2 1-.3.7-.3.6-.1 1-.3 1-.2 4.9-.7 2-.4 1.7-.4.9-.3.8-.3 1.8-.7 2-.9 2.2-1 2-1.1 1.5-.8 1-.6 1.2-.8 5-3.5 1-.6 1-.7 3.6-2 6-3.7 3.4-2 4.3-2.4 2.2-1.1 1.4-.8 1.1-.5 1.8-.8 1.3-.4 1-.3.9-.2.8-.2 1.2-.2 1.8-.2 1-.2 1-.2.7-.2 1-.3.6-.2.8-.3 1.2-.5 1.4-.7 1.1-.7.6-.4.6-.4.6-.5.8-.7.4-.4.4-.5.5-.6.8-1 .8-1.3.5-.8.5-1 1.6-3.2.5-1 .3-.4.2-.4.2-.2.3-.3.2-.2.3-.1h.3l1.2-.2.3-.1.4-.1.4-.2.4-.2.4-.3.4-.3.8-.6 1.6-1.5.4-.3 1.2-1 2.2-1.6 1.4-1 1-.6 1-.6.7-.5.8-.4.7-.3.7-.3.6-.2h.6l.9-.2h1.1l2.6-.1h.6l.3-.2.6-.1.7-.3.6-.3 1.8-1.3 1-.7 1-.5 1.7-.7.7-.3.6-.4.5-.5.3-.6.3-.8.3-1.4.2-.6v-.2l.4-.4.1-.2.6-.4.7-.6 1-.5.7-.3.6-.2 1.4-.2.6-.1h1.1l.6.2.5.1h.7l.3-.6.2-.6v-2.9"/></defs><g clip-path="url(#p31b923189c)"><use xlink:href="#mc605be95fd" y="280.5" fill="#f4f4e2" stroke="#f4f4e2"/></g></g></g></g><defs><clipPath id="p31b923189c"><path d="M7.2 7.2h199.6v266.1H7.2z"/></clipPath></defs></svg>