<svg xmlns="http://www.w3.org/2000/svg" xmlns:xlink="http://www.w3.org/1999/xlink" width="334.8" height="374" viewBox="0 0 251.1 280.5"><defs><style>*{stroke-linejoin:round;stroke-linecap:butt}</style></defs><g id="figure_1"><path id="patch_1" fill="none" d="M0 280.5h251.1V0H0z"/><g id="axes_1"><g id="PatchCollection_1"><defs><path id="me128f05c73" stroke="#f4f4e2" d="m203.7-111-1.5.1-3.3-.2-3.1-.4-2-.4-.9-.5-2.4-1-1.4-.5-.8-.2-2.2-.7-1.2-.5-1.3-.5-3-1.6-1-.4-1-.3-4-.8-.8-.1h-.8l-2.4-.2h-1.4l-.7-.1-1-.2-.7-.1-.9-.3-.6-.2-.5-.2-.9-.4-2.1-1.2-.9-.5-1.8-1.3-1-.6-1.2-.6-.7-.2-.8-.2-1-.2H150l-1.2.2-1.6.2-2.4.5-1.6.4-1.6.5-1.3.4-1.4.6-1 .4-.6.3-.4.3-.3.3-.1.2-.1.2v1.3l.2 1.3.7 3 .3 1.4.2 1.8.3 2.7v1.8l-.2 2.6v2.9l.1 1 .2.7.2.8.7 2.2.5 1.2.8 1.8 1 2.4.6 1.4v.2-.1h.1l.3-.1h1.4l.7.2 1 .4 1 .4.8.4 3.5 2 1.6.8 1.5.7 1 .5 2.7 1 1 .4 1 .3h2.2l2.4-.2h2l1-.2 1.3-.2 4.3-1 4.6-1 6.4-1.2 8-1.5 5-.8 4.7-.8 5-.7 3.3-.4 1.6-.2 1.8-.1 1.7-.1 1.7-.1h3.5l1.7.2 1.7.4 1.5.4 1.3.5 1 .4.3.2 5.5 2.2-3.3 6.6-2.4 4.8-1.6 3.5-3.7 7.8-1.5 3.2-1.7 3.3-4 7.8-1 2.3-1.2 2.3-2.2 4.8-1.6 3.9-1.4 3.5-1.2 3.5-.1.2h-.4l-.5-.1-3.4-1-1.5-.6-1.6-.6-1.3-.6-1.3-.6-4.1-2.2-2.5-1-.6-.3-.5-.2-.9-.2-3.4-.7-3.6-1-1.9-.4-2.5-.6-1-.3-1.3-.2-3-.3-2.3-.2-1.2-.2-.6-.2-.3-.2-.4-.2-.5-.4-.5-.6-.5-.7-.3-.6-.3-.8-.3-.9-.4-1.3-.3-.7-.3-.5v-.1h-.4l-.2.2-.3.3-.4.5-.4.9-.5 1.2-.4.7-.3.5-.2.3-.4.5-.9.7-1 .6-1.2.5-1.3.4-1.2.4-1 .2-2.2.5-1.6.2-1.2.1h-1.3l-1.3-.1-1.2-.3-1-.2-3.3-1.2-.8-.2-.9-.2h-2l-4.6.1H123l-1.9.2-1.5.2-1.5.3-3.1.7-7.7 1.6-3 .6-3 .4-1.3.3-1 .2-1 .3-1.2.5-1.5.6-3.5 1.8-1 .4-.9.6-1.2 1-1.1 1-1.2 1.3-1.1 1.3-1.1 1.4-2.2 3-3.4 4.9-.2.3-1.6-12.3-.4-5.3-1.1-11.4-.3-3.2-.8-6.8-.5-4.4-.6-4.5-.4-3-.5-3.1-.3-1.5-.3-1.5-.3-1.5-.4-1.5-.5-1.4L70-82l-.8-1.4-.5-.7-1-1-1-1-1.2-.9-1.6-1-2.8-1.8-2.8-1.7L45.4-99l-2.8-1.6-2.8-1.7-6-3.7-12.8-8.2-.1-1.4-.8-6.4-1.8-14.1-.1-1.8-.2-1.6v-4.8l.4-1.4.5-1.3.7-1.1 1-1 1-1 1.3-.8 1.3-.9 1.3-.8 1.4-.7 1.4-.8 2.8-1.5L34-157l3.7-1.8 1.4-.6 1.4-.6 3.2-1.3 1.3-.5 1.2-.6 1.1-.8.7-.5.6-.7.5-.6.5-.7.8-1.2.7-1.2.7-1.3L53-172l1.2-2.7 1.6-4 .6-1.4 1-2 1-2 1-1.7.9-1.6.5-.7.4-.5.5-.5 1-.8 1.2-.6 1.3-.6 1.4-.5 2.8-1 1.3-.5 1.3-.5 1-.7 1-.7.7-.8 1.3-2 2.8-3.8 1-1.6 1-1.6.8-1.3 4.6-8.4 1.6-2.7.9-1.4.9-1.3 1-1.2 1.3-1.3 1.3-1.1 1.4-1 1.5-1 1.5-.8 1.7-1 3.3-1.6 7.2-3.4.4-.2.1-.4.8-2.2 1-3.6.7-2.3.8-3 .3-1.1.6-1.3.6-1.3.8-1.1 1-1 .9-1 1.2-1 1.3-.7 2.6-1.5.7-.5 2.2-1.5.7-.5 1.1-.6 1.1-.5 1.4-.6 1.4-.6 1.4-.5 1.5-.5 1.5-.4 1.4-.4 1.5-.3 1.4-.3h.8l.8-.1h1.8l1 .2 1 .1.7.2 1 .3.3.2.9.4.7.6.5.4.5.6 1 1.4 1.6 2.3.7 1 .4.3.4.4.9.6 1 .6.8.4.9.3 1.1.2 1.1.2.8.1h2.4l.8-.1 1.8-.4 1.2-.1h2.1l.9.1.7.2.9.2.8.3 3.2 1.2 2.7 1 1.8.7 2.4 1 1.4.7 2 1 1.8.9.7.4.6.5.7.6.7.7.6.7.6 1 .5.7.4 1 .3.6.2.8.3 1.2.6 2.8.2 1 .4 1.4.3.8.6 1.5.5 1.2.6 1.3.3.7.4.7.4.6.5.6.4.6.5.3.8.7.5.3.9.4.9.4.4.2.5.1 1.4.3 1.6.3 1.7.2 1.2.1 3.5.2h1l1.2.2 1 .2.5.2.9.3.6.2.5.3.7.5.6.5.4.6.4 1 .1 1.1v4.2l-.2 1.4-.2 1.5-.2 1.4-.3 1.5-.3 1.5-.3 1.4-.9 3-.5 2.2-.4 1.6-.3 1.6-.2 1.6-.1 1.3-.1 1.2v2.6l.2 1.4.3 1 .3.9.4.8.5.7.6.6 2 2 .4.5.4.5.4.7.2.7v1.1l-.4.7-.5.6-.5.4-.8.4-.6.2h-.6l-.4.1h-.5l-1.4-.3-.8-.1h-.8l-.5.2-.4.2-.8.7-.2.2-.6.7-.7 1-1.5 2.1-3.2 4.8-1.2 1.6-2 2.7-.5.7-.6 1-.4 1-.4 1.4-.2 1.4-.1 1.4v3l.3 3.1.7 6.3.3 3 .1 1.6.2 3.5v1.6l.2 1.5.5 3.2.2 3.3v7.2l-.3 3.4"/></defs><g clip-path="url(#p05b7457110)"><use xlink:href="#me128f05c73" y="280.5" fill="#f4f4e2" stroke="#f4f4e2"/></g></g></g></g><defs><clipPath id="p05b7457110"><path d="M7.2 7.2h236.7v266.1H7.2z"/></clipPath></defs></svg>