<svg xmlns="http://www.w3.org/2000/svg" xmlns:xlink="http://www.w3.org/1999/xlink" width="351" height="374" viewBox="0 0 263.2 280.5"><defs><style>*{stroke-linejoin:round;stroke-linecap:butt}</style></defs><g id="figure_1"><path id="patch_1" fill="none" d="M0 280.5h263.2V0H0z"/><g id="axes_1"><g id="PatchCollection_1"><defs><path id="mf1e73153cc" stroke="#f4f4e2" d="m240.8-260.9-.8 1.7-1 2.4-.5 1.4-.5 1.4-.3 1.5-.2 1.4-.1 1.4v4.1l.2 3 .4 4.4.5 4.3.7 5.7 1.4 10 4.1 30.3-2.2 2.6-2.5 3.2-1.2 1.7-1.3 1.9-1.1 1.8-1 1.7-.7 1.7-.4 1.5-.7 2.8-.3 1-.3.8-.9 1.4-1.1 1.4-1.4 1.2-1.4 1.3-4.8 3.7-2.3 1.9-1.3 1.1-1 1-1.9 2-1.1 1.1-1.4 1.6-1.3 1.6-1.3 1.6-1.1 1.6-.9 1.3-.7 1.4-.5 1.3-.3 1.4-.1 1.2v1.2l.3 1.4.2 1 .4 1.4.5 1.2 1.3 3 .6 2 .7 1.9.5 2 .5 2 .5 2 .4 2 .3 2 .4 2.8.2 2.3v5l-.3 1.2-.6 1.1-.8.8-1.6 1.4-.5.7-.3.8v.6l.2.8.3.6.3.5.4.5.5.7 2.6 2.6.9 1.2.5 1 .7 1.3.6 1.5L219-85l.5 1.7.4 1.8.3 1.8v1.7l-.2 1.7-.5 1.5-.3.5-.3.5-.3.4-.6.6-1.4.9-1.7.8-1.7.6-3.4 1.2-1.5.6-1.4.7-1.3.9-1 1-1 1.4-.7 1.7-.5 1.8-.3 2-.2 2-.2 2.3v2l-.1 4.2v4.4l.2 2.2.2 2.4.5 4.5.5 3.7-10.2 2.9-20.2 5.8-6.3 1.8-2.1.5-2 .4-2.1.4-2 .2-2 .1-2-.1-1.9-.4-1.8-.6-1.8-.7-1.7-.9-1.8-.9-3.5-2-10.5-6.3-1.8-1-3.2-1.8-3-1.6-3-1.4-1.6-.7-1.5-.6-1.6-.5-1.9-.6-2-.4-1.9-.3-2-.3-2-.2-2-.2-4.3-.1-10.7-.2-4.4-.2-2.2-.1-2.1-.2L78-42l-1.8-.4-1.6-.5-1.4-.6-1.2-.8-.6-.8-.4-.8-.2-.6.2-.5.3-.3h2.4l5.1.3h2.3l1.3-.1 1-.2.6-.3.5-.3.4-.3.4-.7.1-.6.1-.9v-1.2l-.2-1.2-.4-1.4-.5-1.4-1.3-3.5-.5-1.5-.3-1.1v-1l.1-1.2.4-1.2.6-1.4 1.4-2.8.5-1.5.2-1.5v-1.5l-.5-1.5-.6-1.6-.9-1.6-.7-1.3-.9-1.4-1-1.4-1-1.6-1.3-1.7-2.5-3.3-14.2-18-8.9-11.5L38.2-138l-3.8-5.1-2.4-3.4-1.2-1.8-1.1-1.7-1-1.8-1-1.9-1-1.8-.9-2-1.6-3.7-1.6-3.9-1.4-3.9-.7-2-.6-1.9-.6-1.9-.4-1.9-.3-1.9v-1.8l.1-1.8.6-1.6 1-1.6 1-1.5 1.3-1.5 1.3-1.4 3.9-3.7 1.1-1.1 1.2-1 1.1-.7 1.2-.4 1-.1.4.2h.5l1.2.2 1.6.3 3.7.7 1.4.4 1.4.3 1.4.5 2.5 1 1.7.4 2 .4 1.9.3 2 .2 2 .2 4.3.3 4 .1H73l1.5-.2 1.3-.2h1.9l1.2.4 1.3.5 3.8 2 4.5 2.4 2.1 1.2 1.5.9 4.7 3 1.8 1 1.8 1 .7.3 1.9.9 2 .7 2 .7 2 .6 2 .6 4 1.1 4.2 1 4 1 4.2 1 2 .4 2.1.3 2 .3h3.9l1.6-.1 2-.4 2-.4 2-.6 3.8-1.3 6-2.1 15.6-6 3.9-1.5 1.8-.9 1.9-.8 1.7-1 1.7-1 1.6-1.2.3-.3 1.2-1.2 1-1.4.6-1.5.4-1.5.1-1.6-.2-1.6-.3-1.6-1.2-5-.3-1.7-.2-1.7v-2l.4-1.8.5-2 .6-1.9.6-1.9.8-2 1.6-3.8 3.3-7.7 5.2-11.5 1.7-3.7 1.7-3.6.9-1.7.9-1.6 1-1.4.9-1.1 1-.8 1.1-.5 4.2-1 7.1-1.8 4-1 2.1-.4 2.2-.4 2.1-.3 2.2-.3h1.4l2.3-.1h3.7l2 .2 1 .1"/></defs><g clip-path="url(#p8d1005bd3e)"><use xlink:href="#mf1e73153cc" y="280.5" fill="#f4f4e2" stroke="#f4f4e2"/></g></g></g></g><defs><clipPath id="p8d1005bd3e"><path d="M7.2 7.2H256v266.1H7.2z"/></clipPath></defs></svg>