<svg xmlns="http://www.w3.org/2000/svg" xmlns:xlink="http://www.w3.org/1999/xlink" width="289.2" height="374" viewBox="0 0 216.9 280.5"><defs><style>*{stroke-linejoin:round;stroke-linecap:butt}</style></defs><g id="figure_1"><path id="patch_1" fill="none" d="M0 280.5h216.9V0H0z"/><g id="axes_1"><g id="PatchCollection_1"><defs><path id="md4bec88baa" stroke="#f4f4e2" d="m187.2-252.1-.5.1-.7.8-.8 1.2-.9 1.6-.7 1.6-1.3 3.7-2.8 9.2-1.9 5.7-1 2.6-1 2.1-3 6-1 2-.7 2.1-.7 2.1-2.9 9.9-2.8 12.3-.7 4.3v1.5l-.1 2 .1 1.6.2 1.4.4 1 .9 2.1 1.3 1.9 1.6 1.7 1.8 1.6 2 1.5 2.4 1.6 1.9 1 1.8 1 2.6.9 3.8 1 1.8.6 1.3.6 1.1 1 1.2 1 1 1.3 1 1.4 1 1.7 1.3 2.9 1.3 3.7 1 3.3 1.7 6.8 2 10 .3 1.3h-.7l-.9.4-.8.7-1 1-1 1.8-2.5 4.4-1.2 1.8-2 2.6-3 3.5-3.1 3.6-11.7 12.8-5 5.6-2.4 3-1.7 2.2-1.6 2.1-1 1.7-1 1.6-1 2.2-1.8 4.8-1.6 5.8-.7 2-.9 1.8-2.2 4.3-3.2 5.4L144-45l-2.2 3.6-2.4 3.5-1.9 2.7-2 2.4-1 1.2-1.6 1.6-1.5 1.2-1.2.9-2.2 1.2-2.5 1-2.6 1-3.2.8-3.4.7-6.4 1.1-6.6.9-12 1.4-1.5.2-.4.2-1-1.7L82-31.8l-4.6-7.9-4.6-8.1-6.5-12-2-4-1.6-3.4-1.5-3.5-.8-2.2-.6-2.3-.4-2.2-.1-1.9v-3.1l.2-1L60-86l.8-2.5 1.1-2.4 1-1.7 3.4-5.7.9-1.6.8-1.9.4-1.7.1-1.2-.2-2.4-.4-1.3-1-2-1.2-2.5-1-1.6-2-2.6-4.2-5.3-1.5-2.3-1.1-2-.8-1.8-1.6-4.5-.8-1.6-.8-1.6-1.2-1.9-1.4-2L48-142l-1.6-1.8-1.4-1.5-1.7-1.6L42-148l-2-1.5-3.5-2.4-9.1-5.7-2-1.3-1.6-1.3-2.2-2-3.2-3.2-2-2 2.2-3.6L31-193.2l8-14.3 4.6-7.7 4.4-7.3 2.2-3.5 2.6-3.8 2.6-3.5 2.6-3.2 2.8-2.8 3-2.1 3-1.5 3.2-.5h3.3l3.4.6 7 1.4 3.6.7 3.6.3h8.8l3.6-.4 4.3-.7 3.4-.8 2-.5 3-1 2.8-1.2 2.8-1.3 2.4-1.5 1.5-1 1.3-1.1 3.4-3 2.5-1.9 1.8-1 1.8-1 1.1-.4 2.2-.7 1.8-.5 3.7-.9 4-.8 4.2-.6 4.4-.4 4.4-.1 2.5.1 2.5.3 3.4.7 3.3 1 3.7 1.3 4 2 3 1.7 2 1.3.7.7"/></defs><g clip-path="url(#pa107b9de6d)"><use xlink:href="#md4bec88baa" y="280.5" fill="#f4f4e2" stroke="#f4f4e2"/></g></g></g></g><defs><clipPath id="pa107b9de6d"><path d="M7.2 7.2h202.5v266.1H7.2z"/></clipPath></defs></svg>