<svg xmlns="http://www.w3.org/2000/svg" xmlns:xlink="http://www.w3.org/1999/xlink" width="483.3" height="374" viewBox="0 0 362.5 280.5"><defs><style>*{stroke-linejoin:round;stroke-linecap:butt}</style></defs><g id="figure_1"><path id="patch_1" fill="none" d="M0 280.5h362.5V0H0z"/><g id="axes_1"><g id="PatchCollection_1"><defs><path id="m5a7f10a84f" stroke="#f4f4e2" d="m227-260.6.7.1 2.5 1 15.2 7 5.4 2.3 5.2 2 3.4 1.3 3.3 1 3.3 1 7.4 1.7 3.3.6 1.4.2 3.8.4 1.5.3 2 .6 1.7.8 1.5 1 1 .8 1.2 1 6.3 7.3 5.8 7 4.9 6.4 6.5 9 6.2 8 2.2 3.1 3.2 5 2.4 4.4 7.1 14.8 4 7.8-.5 8-.4 3.2-1.7 7.8-3.5 14.4-.9 4.1-.4 2.7-.6 5.3-1.3 15.4-.2 5.8v7.2l-.4 5.8-.4 3.3-1.2 6.8-.6 2.4-.8 2.3-1 1.6-1 1.5-1.6 1.7-1.8 1.3-1.8 1.1-2 .7-1.4.3-1.5.1h-6.8l-1.5.5-2.3 1.2-1.4 1.3-5 5.4-2 1.7-2.1 1.4-2.3 1.2-3.2 1.5-10.1 4.2-2 1-7.3 3.3-2.2 1.2-1.7 1-3.4 2.4-2.5 2.1-1.3 1.3-2.6 2.7-1.4 1.8-1.8 2.8-1.4 2.7-.5 1-.1.7-.5.2h-.2l-1-.4-1-1-.8-1.7-.5-2-.5-3-.4-3.5-.1-3.3V-38l.2-2 .3-3 .8-4.7 1.7-9.4.3-2.8.1-3.1v-2.4l-.7-3.3-.7-2.2-1-2.2-2-3-2.3-2.8-2.5-2.5-2.8-2-1.5-1-2.5-1.3-3.2-1.3-3.8-1.2-8.7-2-5-1.2-2.6-.4h-2l-1.5.2-3 .7-3.4 1-6.7 2.3-3.9 1.2-3 .8-4 .8-2.7.3H175l-2.7-.2-2.6-.4-2.6-.4-1.1-.2-3-.8-6-2.3-2.6-.7-3.3-.5-5.2-.3-3.4-.3-2.1-.4-2-.6-2.1-.8-2.7-1.5-1.8-1.1-2.5-1.9-2.2-1.9-4-3.9-1.5-1.4-1.5-1.1-1.4-.8-1-.4-2.2-.2-2.2.3-1 .3-2.7 1-2.7 1.5-10.3 5.8-1.3.9-1.1.9-1.2 1.2-.5.7-.3-.1h-1.4l-4 1.3-1.4.2-1.1-.1-1.2-.3-1-.4-4-1.8-.5-.4-.7-.4-.5-.7-1.2-2.3-.8-1-1-1.1-1-1-1.3-.8-1.3-.6-1.4-.3h-1.9l-1.2.3-3.4 1-1.2.3-3.8.4-1.1.2-1.3.3-4.1 1.6-1.5.4-1.1.3h-2.2l-1.5-.5-1.6-.7-1.4-.8-1.5-1-2.6-2-1.4-1.2-2.5-2.3L31-110l-5-5.6-1.9-2-.9-.7-.2-.1.6-.5.9-1 3-3.5 1.8-2.2 1.5-2.1.9-1.4.7-1.5.9-2.1 1.3-4.2.7-1.9 1-1.6.3-.3 1-1 1-.6 1.5-.8 1.1-.4 2.6-.7 1.5-.2 3.4-.3h10.9l3.9-.2 1.9-.2 1.9-.3 2.1-.4 2.1-.7 2-.7 4-1.7 5.1-2.6 2.6-1.2 3-1 8.4-2.4 4.7-1.4 5-1.8 3.2-1.5 2.6-1.4 1.5-1 1.2-1.2.7-1 .4-.8.1-1.3-.3-1-.6-.6-.1-.2v-.7l.1-1.4.4-1.4.5-1.5 1-2 1.1-2 1.8-2.2 2-2.1L133-193l6.9-6.8 1.8-2 3.9-4.5 3.8-5 3.2-4.1 1.8-2.1 2.3-2.3 5-4.6 1.9-1.8 1.5-2 1-2 .8-1.9.8-2.9 1.8-6.5.8-2.3.4-1 1-1.4.7-.8.7-.7.9-.6 1-.6 1.2-.4 1.9-.5 2-.2 2.5.1 2 .3 6.5 1.5 1.4.2h2.1l2-.2 2-.5 2.2-1.3 5.6-4.4 2-1.4 4.3-2.5 2.5-1.3 2-.9 1.7-.4 1.6-.3 1.3-.1 2-.1h1.6l1.2.3.5.3"/></defs><g clip-path="url(#p0b61248bf1)"><use xlink:href="#m5a7f10a84f" y="280.5" fill="#f4f4e2" stroke="#f4f4e2"/></g></g></g></g><defs><clipPath id="p0b61248bf1"><path d="M7.2 7.2h348.1v266.1H7.2z"/></clipPath></defs></svg>