<svg xmlns="http://www.w3.org/2000/svg" xmlns:xlink="http://www.w3.org/1999/xlink" width="447.2" height="374" viewBox="0 0 335.4 280.5"><defs><style>*{stroke-linejoin:round;stroke-linecap:butt}</style></defs><g id="figure_1"><path id="patch_1" fill="none" d="M0 280.5h335.4V0H0z"/><g id="axes_1"><g id="PatchCollection_1"><defs><path id="m9725bd4b43" stroke="#f4f4e2" d="m293.4-173-.2.2-.2.8-.1 1.5v4.1l.3 2 .6 3.2 1.4 4 1.2 2.8 1.8 3 1.5 2.2 7.1 8.7 3.2 4.3 1.3 2.2 1.6 4.1.4 2 .3 3.6-.4 4.8-.9 4.4-1.8 7.8-1 3.4-1.1 3-1.1 2.3L304-93l-.5 1.3v.9l.3.8 2.8 3 .4 1v1.2l-.8 1.6-1 1.1-1.5 1-2.9 1.3-10.9 3.5-6.7 1.5-2.5.6-2.1.9-3.8 2-2.8 1.9-1.5 1.1-2.7 2.4-1.5 1.6-2.8 3.6-3.7 5.6-4 7.2-9.6 19-2.7 5-1.2 1.9-.6.6-.4.6-1.5.6-1.8.4-1.8.3-3.2.2-3.7-.1-4-.6-7.2-2-7.4-3.2-7.4-4-14.9-8.1-20-10.3-14.4-7.2-5.6-3.3-6.5-4.4-4.5-3.3-4.3-3.6-5.5-5-11-11.6-6.2-6.1L86.3-115l-11-11.2L72-129l-3.3-2.5-5-3-4.8-2.3-3.7-1.8-3.7-1.3-3-.6-1.3-.1-4.4.2-4.2.7-3.7.3-1.6-.1-3-1-2-.8-2.5-1.3-2-1.9-1-1.7-.7-2-.3-2v-2.4l.5-3.5 2.1-9 .6-4.4.9-9.4.1-5-.3-4-2-12.3-.7-5.6-.4-5.8.3-6.8 1.2-14.8.7-5.1 1.3-5.5 1.6-3.8 1.9-3.3 2-3 3.5-4.5 2.3-2.6.5-.2 1.3.5 2 1.4 4.2 4.1 12.3 14.3 10.8 13.2 4 4.4 3.6 3.6 3 2.5 3.1 2.2 5.3 3.1 5.6 2.7 4.4 1.8 4.4 1.5 5.2 1.6 5.3 1.2 4.4.9 4.3.6 4.3.5 4.3.1 4.3-.1 4.1-.5 4.2-1 6.4-1.9 11.9-4.2 4-1.2 2.5-.5 3.3-.5 3.9-.2 4 .2 4.7.6 3.3.9 5 1.5 24 7.9 7.5 2.3 7.6 1.9 18 3.8 5.7 1.4 11.4 3.4 5.5 1.8 5.4 2 5 2.2 4.3 2.2 3.5 2.1 1.9 1.4 1.8 1.6.5.9"/></defs><g clip-path="url(#p05945f43da)"><use xlink:href="#m9725bd4b43" y="280.5" fill="#f4f4e2" stroke="#f4f4e2"/></g></g></g></g><defs><clipPath id="p05945f43da"><path d="M7.2 7.2h321v266.1H7.2z"/></clipPath></defs></svg>