<svg xmlns="http://www.w3.org/2000/svg" xmlns:xlink="http://www.w3.org/1999/xlink" width="382.3" height="374" viewBox="0 0 286.7 280.5"><defs><style>*{stroke-linejoin:round;stroke-linecap:butt}</style></defs><g id="figure_1"><path id="patch_1" fill="none" d="M0 280.5h286.7V0H0z"/><g id="axes_1"><g id="PatchCollection_1"><defs><path id="mc531e27a00" stroke="#f4f4e2" d="m195-255 2.8-.2 2.4-.1h2l1 .2.9.3.8.5 2.8 2 1.3.9.7.3.8.4.8.2 1 .3h2l1-.2.9-.3.9-.3 2.2-.8 1-.4 1.4-.8 1.7-1 2-.8.9-.4 1-.3.8-.2 1-.1.8.1.9.4.8.5 2.4 2.1.8.7 1.1.8.9.5 1.8 1 1.9.8 2.5 1 1 .3h.2v.4l.3.5.3.5.5.6.8.7.7.6.3.2 1 .5 1.8.8 2.6 1.3 1 .4 1.2.3 1.1.4.3.2 2.1 1.2 1.8.9.8.4.3.3.4.4.5.6.3.6.3.7.3 1.4.5 2.4.2 1.6.2 2.7.2 1 .3 2 .6 2.3.1.9.2 1.3.2 2.5.2 1 .2.9.2.7.7 1.9.3.8v.5l.1.5v1.1l-.2.5-.1.7-.7 1.7-.6 1.4-.7 1-3.5 5.2-4.4 6-1.8 2.5-.7 1-.9 1.6-.6 1.3-.7 1.7-.4 1.6-.6 2.6-.3 1.5v2l.3 1 .4 1 .5 1 1.5 2.6 2 3.2 1.4 2.6.6 1.1.3.6.2.6.2 1.1-.2 1.2-.4.8-.5.8-.7 1-.9.9-.8.8-1.2 1-1.5 1.2-3 2.2-1.7 1.1-1 .8-1.6.9-3 1.6-2.4 1.2-2 1-5 2.2-.9.4-.8.4-1 .7-.4.4-.5.5-.6 1-.6 1-.3 1-.3 1v2.3l.4.8.4.6.4.6.3.2.5.3.5.2.6.2.7.2 1.8.3 3.2.5 1 .2 2.8.2 1 .1 1.1.3 1 .4.8.5.8.5.6.4 1 1 1 1 1.3 1.5 1 1.4 2.2 3 1.7 2.5 1.2 2.1.2.5v.3l-.1.6-.8 1.7-.9 1.4-1 1.6-1.3 1.9-1.2 1.6-1 1-.6.7-.8.8-1 .9-1.1.8-1 .8-1.5 1-1.8 1-1.2.7-3.1 1.6-2.3 1.3-1.7 1-1.7 1.1-1.5 1.2-.9.7-.9.8-1.1 1.2-.9 1-.6.9-1.4 2-1.7 2.5-.8 1.5-1 1.6-.6 1.5-.4.9-1 2.7-.3.8-.4.8-.6.8-.5.7-1.3 1.4-1 1-1.7 1.6-1.4 1.1-1.3 1-1.2.8-1.2.8-1.6.8-1.3.6-1 .4-.8.3-1.1.3-1 .1h-1.5l-1.2-.3-1.4-.7-1.3-1.1-1.2-1.4-1.1-1.5-3-4.1-1-1.3-1-1-1-.8-.6-.4-.8-.2h-1l-1.2.5-1.2.6-2.8 1.7-.9.5-1.6.9-1.8.7-1.8.6-1.9.7-3.7 1-3.6.9-1.7.4-2.6.4-3 .7-2.2.3-1.2.1-1.2.3-.7.2-.7.2-.7.3-.8.5-3.5 2-1.4.8-.6.4-.7.5-.7.7-.7.7-.8 1.2-.6 1.2-.3 1.6v1.7l.2 1.8.3 1.9.6 1.8.6 1.8.7 1.7.9 1.6 1 1.4 1.1 1.2 1 .6 1 .5 1.6.7.7.2 1.3.3 1.2.2 4 .5 1.3.3 1.2.3 1.4.4 1.2.4 1.2.5 1 .6.5.4.5.4.6.6.4.6v.8l-.2.6-.3.5-.5.5-.5.5-.6.5-.7.5-.6.2h-.6l-1 .2-1.1.3-2.5.9-2.1.8-2.4.9-6.7 2.8-2 .7-1.9.6-1.6.5-1.6.4-1.5.2-.8.1h-1.3l-1-.3-.6-.2-.5-.2-1-.6-.8-.7-.8-.7-2.8-2.7-1.4-1.3-1.2-1-1-.8-1-.6-1.5-.6-1-.4-1.5-.4-.6-.2-1.3-.2-1.6-.1h-4.2l-2.6.3-2.6.4-3 .6-1.3.2-2.5.3H97l-1.8.2H94l-1-.1-.8-.2-.5-.1-.6-.3-.8-.5-.6-.4-1-.8-1-1.2-3.2-4-1-1-1-1-1.3-1-1.1-.4-.8-.3-1.2-.3-1.1-.2-1.8-.2h-1.7l-1.3.1-1.3.2-1.3.2-6.5 1.5-2.3.5-2.2.3h-5.3l-4.8-.2-1.9-.1-4-.3-8.2-.7-2.5-.3-.7-.1-.7-.2h-.3l-.2-.3-.4-.2-.4-.4-.5-.6-.6-1-.6-1.2L27-45l-.2-.8-.1-1.5v-1.6l.1-.8.2-1 .3-1.2.8-2.2.8-2.1 1.6-3.5.7-1.5.5-1.3.5-1.7.4-1.5.2-1.5.9-5.8.3-1.4.3-1.3.5-1 .3-.5.8-1 2.8-3 2.6-3.3.5-.5 1-1.1 1.2-1 1.2-1 1.2-.9 3-2 1.9-1.5 1.4-1.2.8-.7.6-.7 1.4-1.9 2.9-3.7.8-1.2 1.3-2.3.6-1.2 1-2 .7-1.6.5-.9.2-.7.1-.7v-2.7l-.3-1.1-.3-1.1-.4-.7-.8-1.3-.7-1-.7-1-6.5-8-1.2-1.4-1.2-1-1-.7-1-.5-1.7-.7-1.7-.5-1.2-.3-1.3-.2-1.1-.1-3.7-.2-2.1-.2-2-.2-1-.1-1.3-.3-.8-.2-.7-.2-.4-.3-.3-.3-.3-.8v-1l.3-1 .4-1.2.5-1.3 1.6-3 .2-.6.5-1.4.8-2.8.4-1.4.5-2.6.2-1 .1-1.4v-2.9l-.3-3-.1-1.4v-4.1l.2-1.1.2-1.1.2-1.2.4-1.2.3-1 .4-1.1.6-1.2.5-1 .6-1 1-1.3 1-1.1.8-1.1.5-1.1.5-1.1.2-.9.1-.8-.2-1-.4-.9-.5-.5-.5-.4-.8-.7-.9-.6-1.9-1-2.4-1.2-1.2-.6-1-.4-.8-.2-.9-.2-1-.1h-1l-1.3-.1H22l-1-.2-.9-.5-.5-.5v-.5l.5-.3 1.4-1.4 1-.9 1.9-1.9 1.7-1.8 4-4.5 1.7-2 .8-1 1-1.3.8-1.2.7-1 .6-1 .7-1.3.5-1.2.3-1.4v-1.3l-.1-1-.3-.7-.2-.7-.5-1-1-2-.4-1-.3-.8-.2-1v-2.1l.4-1.1.5-1 .6-.9.7-.8.9-.6 1-.4h.8l.7.1.7.4.5.5 1.4 1.3 1.8 2 1 .9 1 .8 1 .7 1.3.4h.4l.5.1h1l.8-.1.8-.3 1-.4 1-.5.7-.4 1-.8.8-.6.6-.6.2-.3.1-.1.4-.3.7-.6 2.8-2.7 3.4-3.2 3.6-3.4 1-.8 1.5-1.2 1-.8 1.4-.8 1.4-.9 1.6-.8 1.5-.8 1.7-.7 1.3-.6.7-.2 1.5-.4 3-.6 1.6-.4 2-.5.9-.3 1.2-.5 2-.9 1.4-.6 1.6-.9 2.7-1.6 1.2-.7 2.4-1.7 4.1-3 1.3-1 .7-.4 1.2-.6.4-.2.7-.2h.4l.7-.1h.4l.4.2.4.1.3.4.3.4.2.5.4 1.2 1.6 7 .4 1.2.6 1.3.7 1.3.8 1.1 1.3 1.3 1.5 1.2 1.6 1 1.7 1 1.8 1 1.8.7 1.9.7 4.2 1.3 1.9.7 2 .8 6.3 2.8 2.2 1 1.2.4 1.2.4 1.3.3 1.3.1h1.8l1-.2 1.1-.2 1.8-.5 1-.4.9-.5.8-.4 1.4-.9 1.7-1.1 1-.8 1-.8 2.1-1.7 4-3.6 2-1.7 1.8-1.4 1.7-1.1 1-.7 1.2-.6 1.6-.9 2-1 3-1.2 4-1.6 5-1.8"/></defs><g clip-path="url(#pb2bbfdbba8)"><use xlink:href="#mc531e27a00" y="280.5" fill="#f4f4e2" stroke="#f4f4e2"/></g></g></g></g><defs><clipPath id="pb2bbfdbba8"><path d="M7.2 7.2h272.3v266.1H7.2z"/></clipPath></defs></svg>