<svg xmlns="http://www.w3.org/2000/svg" xmlns:xlink="http://www.w3.org/1999/xlink" width="419.4" height="374" viewBox="0 0 314.5 280.5"><defs><style>*{stroke-linejoin:round;stroke-linecap:butt}</style></defs><g id="figure_1"><path id="patch_1" fill="none" d="M0 280.5h314.5V0H0z"/><g id="axes_1"><g id="PatchCollection_1"><defs><path id="mf20475e3df" stroke="#f4f4e2" d="m207.7-235.3.7.3 1 1.3.6 1 1 2.3 1 2.9 6.6 24 1.7 7.5 1.9 9.4.8 3.6 1 3.2 1.5 3.6 1.7 3.4 2 3.4 2.5 3.7 3.5 5 3.7 4.7 6.8 8 1.8 2.3 1.7 2.3 1.9 3 1.4 2.6 1 2.1.7 2 .9 2.7.7 3.1.4 2.8.2 3.5v2.9l-.1 2.7-1 12.1-.1 3.5.1 2.1.5 2.8 1.1 3.3 1.6 3.3 1.9 3.3 2.2 3.2 2.5 3.1 4 4.4 2.1 2.2 2.4 2.2 2.5 2 3.9 3 3 2 3.8 2.2 3.4 1.8 1.9.9 1.6.6-.6.7-2.7 1.8-3.5 2-3.7 1.8-4.5 2-4.1 1.5-4.2 1.3-4.2.8-4 .5h-2.4l-1.7-.2-3-.3-7.4-1.3-1.1-.1h-3l-4.8.3-9 1.6-3.4.9-3.4 1.3-1 .5-3 2-2.8 2.4-3.4 3.6-4.8 5.8-2.2 2.4-2.5 2.6-1.6 1.4-2.2 1.5-1.2.6-2 .8-2.3.5h-2.7l-1.4-.3-3.1-.8-3-1.3-2.9-1.6-2.5-2-3-2.8-8-9-2.5-2.6-2.6-2.3-2.4-1.7-2.2-1.3-1.5-.6-2-.7-2-.4-2.1-.3-8.2-.8-12.5-1.6-2.5-.3-5.3.1-4.7.3-3 .2-2.3.3-3.4.7-7.4 2.4-6.8 1.9-3.5 1-3.5 1.4-12.6 5.1-4.4 1.6-2.3.8-3.6 1-3 .5-3.1.3h-1.7l-2.6-.3-3.3-.6-3-.8-3-.8-3.9-1.4-3.8-1.6-4.7-2.3-2.5-1.4-8.7-5 5.7-7 11-13.4L40-70l.7-1.1 1.1-2.2.8-2 .3-1.4.3-1.5V-83l-.8-10-.2-4.8.2-3.3.5-2.7.4-1.3.5-1.3 1.4-2.5 2-2.7 4.1-4.6.4-.3.6-.9 1.8-3 5.2-9.6 1.1-1.8 1.1-1.4 1.7-1.6 1.9-1.5 1.5-1 1.4-.6 2.7-1 4-1.3 3.3-1.3 5.8-2.7 13.7-5.6 3-1.5 1.8-1 2-1.2 1.4-1.2 1.6-1.3 2.2-2.2 3.5-4 3.2-4.4 1-1.6 1.7-3 1.5-3.2 1.1-3.1.5-1.5.4-2 .2-2.3v-1.5l-.4-1.8-1.1-3.8-.4-2.8v-2.4l.3-1.4.6-2 .7-2.4 1.5-3.9 2.4-5.8 1.4-3.8 3.9-8 1.5-3.4 1-2.6.8-2.8.7-3 2.1-12.5.8-3 .6-2 1.4-3.6 1-2 1.5-2.5.8-.8.3-.1.3.1.4.6.4 1 .2 1.2.2 1.4.1 2.2.3 1.6.3.6.4.4.9.7 1 .4 3.3 1 2.5 1.3 1.3.5 4.1 1.2 7.4 2.4 4.9 2.5 2.8 1.1 11.5 3.3 3.3.8 2 .3h7.3l1.7.3 5 1h2.1"/></defs><g clip-path="url(#p073da7157a)"><use xlink:href="#mf20475e3df" y="280.5" fill="#f4f4e2" stroke="#f4f4e2"/></g></g></g></g><defs><clipPath id="p073da7157a"><path d="M7.2 7.2h300.1v266.1H7.2z"/></clipPath></defs></svg>