<svg xmlns="http://www.w3.org/2000/svg" xmlns:xlink="http://www.w3.org/1999/xlink" width="495.4" height="332.6" viewBox="0 0 371.5 249.4"><defs><style>*{stroke-linejoin:round;stroke-linecap:butt}</style></defs><g id="figure_1"><path id="patch_1" fill="none" d="M0 249.4h371.5V0H0z"/><g id="axes_1"><g id="PatchCollection_1"><defs><path id="m130958f650" stroke="#f4f4e2" d="m348-31.8-98.2 14v-.4l-.7-1.1-1.6-2.3-3-3.2-3.3-3-3.2-2.7-5.2-3.8-1.7-1.2-3.3-1.8-3.3-1.6-2.6-1-2.5-.9-2.3-.6-3.9-.7-4.3-.4-4.3-.1-4 .2-7.2.5h-2l-3.1-.3-2.9-.6-2.3-.8-2.3-1-4.7-2.3-5.6-3.5-13.6-9.1-4.3-2.5-3.8-1.9-4.2-1.8-4.2-1.3-3.1-.4-3.2-.2-3 .3-4 .9-4 1.6-4.1 2-4.5 2.4-13.3 7.7-4.4 2.3-4.4 2-2.6 1-3.4 1-3.3.4h-3.9l-2.7-.1L71-47l-6.9-1.5-3.6-1.1-4.2-1.9-1.4-.8-3-1.7-3.9-2.8-5-4-4.1-3.6-4-3.6-8.4-8-1.7-1.5-1-.7h-.5L41.6-90l4-2.7 3.4-2.5 2.8-2.3 1.2-1.1.9-1 .6-1.1.2-1-.1-1-.4-.8-2-3.7-1.3-2.9-.5-1.5-.6-2.5-1.2-6.5-.5-2.1-.7-2.1-.6-1.5-2-3.6-1.2-2-5.6-8-2.5-3.6-2-3.4-.7-1.8-.6-1.7-.4-2v-1.8l.7-2 .8-1.5 1.5-1.8 1.5-1.2 1.3-.8.7-.2.7.4 2 .4 1.8.3 4 .5 7.2.3h5.6l5.2-.2 4.3-.2 7.3-.6 9.6-1 18-2.3 7-.7 7.6-.6 5.2-.3h9.6l4.4.2 4 .4 2.3.3 3 .9 2.5 1.2 2 1.4 1.7 1.7 1.6 2 3.4 5.4 1.1 2 3.5 7.4 1.5 3 .6.7 2.1 2.2 2 1.4 3 1h1.6l1.5-.2 1.2-.6.8-.6.6-.7 1.3-1.9 2.4-4.5 2.3-2.9 1.9-1.8 2.3-2 2.1-1.4 2.6-1.7 3.2-1.8 2-1 5.2-2.1 6.4-2.4 15.4-5.4 4.5-1.8 3.2-1.4 2-1.1 1-.6 1-1 1-1.3.4-2.4-.5-1.8-.7-1.6-.8-1.5-3.5-5-.8-2.2v-2.2l.5-1.5.9-1.5.7-.8 1.8-1.7 2.8-1.8 4.1-2.1 9.2-4 3.5-2 4.2-2.8 1.9-1.5 2.7-2.5 2.5-2.8 2.4-3.8 2-3.9 2.1-3.6 2.3-2.6 1.9-1.6 1.7-1.2 1.7-.4h.7l.9.7.8 1 1.2 1.7 1.6 2.6 6.9 12.4 3 5 3.2 4.5 1.3 2.3 1 2.5 1 3.3.8 3.7.6 4.2 1 14.9 1 10.5.2 3.3v4.7l-.3 2.2-1.6 10.9-.2 3.6.3 4 .7 4 1.1 4 1.3 4 3.2 8.2 5.5 12.4L348-31.8"/></defs><g clip-path="url(#p1485492e2d)"><use xlink:href="#m130958f650" y="249.4" fill="#f4f4e2" stroke="#f4f4e2"/></g></g></g></g><defs><clipPath id="p1485492e2d"><path d="M7.2 7.2h357.1v235H7.2z"/></clipPath></defs></svg>