<svg xmlns="http://www.w3.org/2000/svg" xmlns:xlink="http://www.w3.org/1999/xlink" width="320.3" height="374" viewBox="0 0 240.2 280.5"><defs><style>*{stroke-linejoin:round;stroke-linecap:butt}</style></defs><g id="figure_1"><path id="patch_1" fill="none" d="M0 280.5h240.2V0H0z"/><g id="axes_1"><g id="PatchCollection_1"><defs><path id="m31c8aa1575" stroke="#f4f4e2" d="M172.1-194v.5l-.5 4.7-.1 1.5v2.6l.1 1.2.2 1.2.4 1.6.4 1.1 1.4 3.9 1.1 3.7.7 2 .3 1.1 1 2.4 1 2.2 1.7 3 4.9 8.6.7 1.2 1 1.9.7 1.8.5 1.4.4 1.5.1 1.3v1.2l-.4 1.3-.6 1.3-2.1 4-1 1.7-.5 1.4-.3 1.1-.2.9v.7l.2.8.4.9.5.9.5.6 1.2 1.1 1.3 1 1.8 1.3 1.8 1.2 6 3.5 3.5 2.1 2.7 1.8 1.3 1 1 .8.8 1 .9 1 .6 1 .6 1 .5 1.3.3.9.2.9v1.8l-.1.5-.3.9-.5 1.1-.5 1-2 3.2-.8 1.7-.6 1.8-.3 1.4-.1 1.3v2l.2 2 .4 2.1.3 1.2.6 2 1.2 3.4.9 2.1.5 1 .6 1.2.7 1.1 1.9 2.6 1 1.6 1 1.7 1 1.8 3.3 6.1 1.2 2 1 1.8 1 1.4 1 1.2.5.5.3.2h.2l-.4.4-.9.7-6.1 5.2-1.4 1.3-4.7 4.4L208-39l-1.2 1-1.7 1-2 1.2-2.4 1.1-4.7 2-2.8.8-.8.2-1.3.5-6 2.6-3 1.4-1 .6h-.3l-1.3.8-5.2 3.4-1.7 1-1.2.7-1.1.6-1.3.5-.8.2h-.5l-1.2.1-.7-.1-.9-.3-.7-.3-.5-.5-.2-.4-.1-.5v-.3l.2-.3.2-.4 1.5-2.1.2-.6.1-.3v-.8l-.1-.3-.4-.6-.6-.4-.9-.4-1-.2-3-.3-1.6-.4-1-.3-1-.5-3-1.5-1-.6-1-.7-2.8-1.9-3-2-7.9-6-2-1.5-2.3-1.4-1.9-1.2-1.2-.6-1.2-.6-2.9-1.1-3.7-1.1-1.4-.6-.7-.3-.6-.4-.6-.4-.6-.5-1-1-.7-1-1-1.3-.6-1.2-.3-.9-.4-1.2-.9-3.5-.5-1.7-.3-.8-.3-.7-.3-.5-.3-.4-.3-.3-.3-.3-.8-.4-1.1-.5-3.1-1-1.5-.6-1.4-.7-.6-.4-.7-.5-.8-.7-.7-.8-.5-.5-.6-.9-1.5-2.4-1.2-2-.8-2-.8-2.2-.5-1.4-.4-2-.2-1.3-.2-1.6L93-94l-.6-5.2-.7-6-.3-2.1-.2-.9-.2-.4-.3-.6-.5-.4-.8-.6-.9-.3-1-.2h-.7l-.7.2-2.4.7-4.2 1-3 1-2.5.7-.5.2-1.5.5-1.1.7-1.1.7-1.3 1-1 .8-1 1-1.3 1.5-1.5 2-1.4 1.9-.4.6-2.4 4-.8 1.2-1.1 1.2-1.4 1-1.4.7-1.4.4h-.6l-1.6-.2-.9-.4-.9-.4-1-.7-3.1-2.2-1.3-.8-1.4-.5-1-.2-1-.1h-1.3l-2.5.1h-1.3l-.9-.1-.8-.2-.8-.2-.6-.3-1.4-.8-.3-.3-1-.8-.9-.9-1.1-1.2-1-1.1-1.3-1.6-3.6-4.4-1.3-1.7-1-1-.5-.4.2-.1-.1-.7-.8-3-.5-1.8-.3-2v-3.2l.3-1 .4-1.2.4-.9.7-1 .7-1 .7-.5.7-.6.7-.4.5-.1.4-.1h1l.8.1.9.4.4.2.8.6 1 .8.7.9 1 1.2 1 1.3 1 1.8 1.2 2 .6 1.3 1.2 2.4 1.8 4.1.7 1.5.5.6.5.5.6.5.7.3h.8l.5-.3.4-.3.6-.5.5-.5.8-1.2 1.4-2 .6-1.2 2.2-4 .5-1 1.1-1.6 1-1.2 4.2-5 .8-.8 1-.8.4-.2.8-.5.8-.3.9-.2 1.2-.2 1.6-.2h1l2.2.2h1.4l1.7-.3 1.6-.4 1-.3 1-.3 2-.8.8-.4 1.3-.9 1.2-1.1.6-.8.5-.7.5-.7.5-1.1.2-.6.3-.8.1-.7.2-1.4v-8.6l.1-1.3.2-1.3.3-1.4.4-1.2.5-1.1.3-.7.6-1 2.4-3.5 1.3-2 .4-.9.4-.8.3-.9.1-.7v-1.8l-.2-1.4-.3-1.4-.6-1.7-.4-.8-.5-1-1.2-2.1-1-1.7-1-1.6-1.1-1.5-1.2-1.5-1.2-1.4-1.1-1.2-1.1-1-.8-.7-1-.8-1.2-.8-1.1-.6-1.4-.5-2-.2h-2l-3.2.4h-3.2l-1.4-.2-1.8-.2-1.2-.3-1.9-.5-.8-.2-1-.5-1-.7-.7-.5-.6-.5-.5-.5-.4-.6-.8-1-.8-1.6-1-1.9-.8-1.9-.9-2.3-1.6-5.3-.6-2-.4-.8-.5-1-.7-1.4-.8-1-1.1-1.2-1.2-1.1-1.4-1.2-1.2-.8-1.4-.9-1.5-.7-.5-.2h-.2v-.4l.6-.3.5-.1 4-.5 1.2-.1 3.3-.2 1.5-.2.9-.1 1.6-.3 1.5-.4 2-.7 1.2-.5 1.6-.8.9-.5.6-.5.7-.6 3-2.7 1-.9 1-.8 1.2-.8 1.3-.8 2-1.2 1.3-.6 1.3-.6 1.7-.7 4.6-1.7.7-.4 2-1 2.3-1 3.1-1.2 1-.3 1.8-.6.7-.4.6-.6.3-.9.7-2 .6-1.3.7-1.3.7-1.1 4.3-6.5 2.8-3.6 2.4-3.3.5-.7 13 16 1.7 2.4.9 1.2 1.3 2 .7 1.3 1 1.6.5 1.2.7 1.6 1 2.2.5 1.2.8 1.5 3 5 1.1 1.5 1.2 1.5 3.4 3.8 2.4 2.7 1.4 1.8 1.7 2.2 2 2.8 1.8 2.6 1.4 1.7 1.3 1.3.6.4.8.6.8.5 1 .4 1 .3 1.1.3h.5l3.5.4 2.2.3 2.3.6 5.2 1.3 1.6.4 1.6.3 3.9.6 2 .4 1.8.6 2.3.6"/></defs><g clip-path="url(#p93e529f6b0)"><use xlink:href="#m31c8aa1575" y="280.5" fill="#f4f4e2" stroke="#f4f4e2"/></g></g></g></g><defs><clipPath id="p93e529f6b0"><path d="M7.2 7.2H233v266.1H7.2z"/></clipPath></defs></svg>