<svg xmlns="http://www.w3.org/2000/svg" xmlns:xlink="http://www.w3.org/1999/xlink" width="336.1" height="374" viewBox="0 0 252.1 280.5"><defs><style>*{stroke-linejoin:round;stroke-linecap:butt}</style></defs><g id="figure_1"><path id="patch_1" fill="none" d="M0 280.5h252V0H0z"/><g id="axes_1"><g id="PatchCollection_1"><defs><path id="md24b0413df" stroke="#f4f4e2" d="m201-160.6-.2 1.5-.3 3.8-.3 5.9-.2 6.3.1 4.2.6 9.5.3 3 1.8 11.6.3 2.8.4 4.8.3 2.7.6 2.7.7 2.7.8 2.7 1 2.8.9 2.7 1 2.6 1.2 2.7 1 2.2 1 2 1.2 2 1.2 2 1.8 2.2 2 2.1 2 2 6.5 6 2 1.8 1.9 2 1.5 2 1.2 2 .7 2v2.6l-.4 1.6-.6 1.6-1 2-1.3 2.1-1.2 1.7-1.4 1.8-1.3 1.3-.9.8-2 1.5-2.5 1.2-6.7 3.3-3 1.4-5.6 2.4-8.7 3.5-3.8 1.5-4.4 1.6-2.4.7-2.2.6-2.2.4-2 .3h-2l-1.6-.5-1.1-.6-1-.7-.8-.9-2.6-3.2-1-1-.8-.6-1.2-.8-.8-.3-.6-.2-1-.2h-1.1l-3.6.1h-1.6l-1.5-.2-1.6-.5-1.6-.6-4-1.8-1.7-.5-2-.4H145l-2 .2-1 .2-5 1.4h-.6l-.5.3-3 1.8-1.3.7-1.3.7-1.7.5-1.6.2-1.8-.5-1.5-1-1.2-1.6-.7-1.4-.5-1.5-1.2-3.7-.7-1.8-.5-1.3-1-1.5-1-1.3-.7-.9-1-.7-1-.7-.7-.3-1.2-.3-1.3-.2h-2.3l-4.3.2h-3.6l-1.6-.3-3.8-.8-1.3-.2h-3.3l-3.2.1-2.3.3-1.7.4-.6.1-1.3.5-1.7 1-1.8 1-2.1 1.3-2 1L69-40l-2 1-2.8 1.7-6.2 4.1-3 2-3.6 2-2.6 1.4-1.5.6-2.6 1-4.1 1.5-4.3 1.4-3 .9-2.5.6-7.5 1.4-3.4.9-.6.2v-.8l-.6-10-.2-4.8.1-2.9.2-2 .4-1.8.4-1.1 1-2 1.4-1.7 1.5-1.6 2.5-2 1.5-1.5 1.4-1.5 1-1.5.7-1.2.6-1.3.2-.6.3-.8.2-1.7V-63l-.2-1.2-1.1-6-.9-6.5-.2-2.5-.2-2.8v-5.5l.2-2.4 1-7.5.1-1.8.1-1.4v-4.2l.4-6.6.2-1.5.5-2.3.5-1.6.6-1.6 1.2-2.6 1.3-2.4 1.6-3 2.3-3.8 1.4-2.2 1.3-1.8 1.6-2 2.8-3.6 3.5-4 .6-1 .1-.5v-.9l-.1-.7-.4-.7-.3-.3-.8-.7-1.1-.6-1.3-.5-1.4-.3-1.8-.3-2.8-.2-3.6.1-3.4.3-9.2.8-3.5.2h-2l-.7-.1-.1-.1v-.1l12.3-15.1 10.9-13 1.4-1.9 1.3-1.8.8-1.3.8-1.4 1-2.4 1.5-4 1.8-5.8.4.4.9.2 1.1.1h3l4.5-.2H64l1.7.2 2 .3 2 .4 3.7.9 2 .5 6.5 2 2.8.9 3.8 1 4.3 1 1.1.2 3.4 1.2 1.2.2 3 .3.8.2 1.1.2 1.6.5 5.2 1.5 2.7.7 1.6.3 1.5.2h1.5l2.1-.1 1.5-.3 1.5-.5 1.6-.7 1.4-1 1.4-1.1 1.2-1.3 1.8-2.2 2.2-2.7.8-1.1 2.3-3.4 2.5-3.6 1.5-2 3.3-4.3 2.2-3 1-1.4 1-1.6.6-1.2.4-1.3.4-1.6.7-3.6.3-1.6.3-3 .3-1.2.5-1.2.8-1.2 1-1.6.8-1.3.4-1 .2-1 .2-1.2v-1.5l-.1-.8-.4-1.4-.4-.8-.5-.9-2.7-4.2-1.2-2.1-.5-1.1-.3-1-.3-1.1-.3-1-.1-1.3v-1.7l.2-1.4.4-1.2.5-1.1.5-.8.3-.3.4-.3h.3v-.4l.2-.7.3-.6.2-.2.2-.2h.5l.6.3.1.1 1.9 1.9.6.5 1 .6 1 .6 1.6.8 1 .4 1 .3 2.1.5h2.8l3.6-.4h1.1l.7.2.3.2.6.5.3.4.8 1.4.2.4.3.2.5.3.7.1h1.3l4.9-1.1 1.7-.3h2l1.5.5.6.3.4.3 1 1 1 1.3 2.7 3.6 1.1 1.4 1 1 1.1 1 3.8 3 2.5 2.2 2.5 2.2 1.4 1.5 1.3 1.5 1.2 1.6 1.1 1.7 1.5 2.7 1 2.4.8 2.1.4 1.2.1.8.2 1.5-.2 1.3-.4 1.2-.3.8-.8 1.3-1 1.7-.8 1-1 1.2-1.9 2.1-2 2-1.8 1.6-2 1.6-7.9 5.8-1 .8-.7.7-1.1 1.2-.7 1-.7 1.9-.1.5-.1 1v1.2l.2 1.3.3 1.5 1.5 6.4.6 2 .8 1.9.6 1.2 1.1 1.7 4.4 5.7 1.4 2 2.7 4 .2.3"/></defs><g clip-path="url(#pef31dd58c1)"><use xlink:href="#md24b0413df" y="280.5" fill="#f4f4e2" stroke="#f4f4e2"/></g></g></g></g><defs><clipPath id="pef31dd58c1"><path d="M7.2 7.2h237.7v266.1H7.2z"/></clipPath></defs></svg>