<svg xmlns="http://www.w3.org/2000/svg" xmlns:xlink="http://www.w3.org/1999/xlink" width="444.3" height="374" viewBox="0 0 333.3 280.5"><defs><style>*{stroke-linejoin:round;stroke-linecap:butt}</style></defs><g id="figure_1"><path id="patch_1" fill="none" d="M0 280.5h333.3V0H0z"/><g id="axes_1"><g id="PatchCollection_1"><defs><path id="mb06547fbe7" stroke="#f4f4e2" d="m311-256.2.3.5.2 1.1v4l-.2 1.3-.3 1.3-.7 2-2.8 7.5-.6 1.7-.4 1.8-.5 1.9-1.6 7.6-.4 1.7-.8 2.6-.9 2.7-.7 1.7-1.5 3.7-1.9 4-1.2 2.4-2.2 4-6.7 12-3 5-9.7 16-1.8 3.1-1 1.9-.9 1.6-1.1 2.6-1.2 2.8-1.5 4-.8 2-.6 1.2-.3.7-1.9 3.3-.7 1.5-.7 1.5-1.1 2.8-1 2.8-.5 1.2-.5 1.1-.5 1-2 3.2-1.5 2.3-1 1.9-.9 2-1 2.2-.6 1.9-.6 1.8-.6 2.5-.5 1.7-1.2 3.3-2.3 6-.6 1.5-.3 1.5v5.5L246-96l-.5 1.8-.8 1.8-1 1.8-1.4 2.1-3 4-1 1.5-.4.7-.2.7-.1.3v1.4l.3.6 1.2 2.4.4.7.5 1.5.2 1.5v1.5l-.2 1.5-.5 1.4-.9 1.2-.7.8-1.6 1.6-.7.7-.7.8-1 1.5-1 1.7-1 1.7-1.2 1.7-1.3 1.8-1.4 1.7-1.4 1.7-1.3 1.5L224-49l-1.3 1.2-1.3 1.1-1.3.9-1.1.5-1 .1h-.8l-1.5-.1h-1.3l-1.3.3-1.3.8-1.3 1.1-1.2 1.5-1.2 1.8-1 1.9-3.2 6.6-1.6 3.5-.8 2-.8 2.3-.6 2-.3 1.4-.1.6-.3.2-.6-.2-1.1-1-1.3-1.4-6-7.1-2.6-2.9-1.9-2-1.5-1.4-2.7-2.4-2.8-2.3-2.5-2-1.3-1-1.8-1-1.9-1-1.1-.5-1.2-.4-1.8-.4-1-.2h-2.5l-1.8.2-1 .1h-2.3l-4.9-.4h-2l-2.4-.1h-2.8l-1.6.3-1.2.3-1 .4-3.6 1.4-1 .3-1.1.4-1.5.2-1.8.4-1.5.1-2.5.3-1.1.2-2.1.4-1 .2-1.7.6-3.7 1.5-1 .3-.9.3-1 .2-2.5.4-1.5.2-1.2.1h-2.6l-1.4-.2-1.5-.3-1.7-.5-1.8-.6-4.4-1.7-.4-.1-.8-.2H97l-1.4.1-5 1.3-1.8.3-1.7-.2-1-.3-1-.4-.9-.6-.9-.6-1-1-1.6-1.3-.7-.8-1-1-1.2-1.6-1-1.5-1.1-1.8-1.9-3.2-1.6-3.3-4.2-9-1-2-1.2-2-1-1.9-1.4-1.7-.4-.6-.7-.7-.6-.5-.7-.5-.5-.3-.9-.4-1-.3-1.6-.3-1.7-.1h-6.5l-3.3.4-5.1.7-4.7.8h-.6l-.1-.7-.3-1-1.6-5.6-.5-1.8-.4-2-.3-2.2-.1-2.3-.2-4.7v-2.3l-.3-2.4-.4-2-.5-2-.5-2-.7-2-.7-2.1-.6-1.3-1.2-2.7-1-2-1.8-3.4-.6-1.2-.8-2-.5-1.2-.3-1.5-.1-1.6v-.8l.2-1.3.5-2.5 1.4-5.4.2-1.2.3-2.7.2-1.5.3-1 .3-.9.7-1.3.9-1 1.3-1.6.5-.6.3-.8.1-1.2-.3-3.2.1-1.4.2-1 .5-1.5.2-.8.5-1 2.4-4.5.6-.9 2.1-3.3 1-1.8.4-1.3.3-1.5.2-1.8.1-4 .1-1.8.3-1.9.6-1.6.7-1.5.8-1.4.8-1.4 1-1.3.7-.7 1.3-1 1-.9 1.7-1 1.4-.9 6.2-3.4 2.3-1.4 2.4-1.6.9-.6.4-.5v-.2l.2-.1H61l1.5.5 2 .6 2 .6 1.5.3 1 .1 1 .1h2l.7-.1 1-.3 3.5-1 1.3-.3 1.4-.3 1-.1 3.2-.2 3-.3 1.8-.4 1.8-.4 3.1-1 6.8-2.1 4.8-1.7 5.7-2.1 3.8-1.5 4.4-2 2.4-1.1 2.3-1.2 11.5-6.2 4.6-2.3 3.6-1.7 5.4-2.1 2.2-1 7.2-3.4 22-9.8h.5l4 1.5 2 .6 2 .6 4.6 1.2 2.3.5 2.1.4 2.2.3 1.6.3 1.8.2 1.9.1h3.9l1.4-.2 1.4-.2 1.4-.4.5-.2 1.1-.6 1.5-.8 1.3-1 1.2-1.2 1.1-1.4 1-1.5.8-1.5 1.8-3.7 1.2-2.2 1.4-2.3.9-1.2 1-1.3 1.3-1.5 1-1 1.1-.5 1.6-.6 1.8-.1h2l2 .4 2 .4 2.2.6 2 .6 4.3 1.3 15.7 5.4 4.6 1.6 2.3.7 2.3.7 2.4.6 2.5.5 2.6.4 2.6.2 2.5-.2 2.5-.4 2.5-.6 2.6-.8 2.6-.9 2.6-1 4.9-2 5.5-2.3.6-.2"/></defs><g clip-path="url(#p0f3843c4c1)"><use xlink:href="#mb06547fbe7" y="280.5" fill="#f4f4e2" stroke="#f4f4e2"/></g></g></g></g><defs><clipPath id="p0f3843c4c1"><path d="M7.2 7.2h318.9v266.1H7.2z"/></clipPath></defs></svg>