<svg xmlns="http://www.w3.org/2000/svg" xmlns:xlink="http://www.w3.org/1999/xlink" width="332.9" height="374" viewBox="0 0 249.7 280.5"><defs><style>*{stroke-linejoin:round;stroke-linecap:butt}</style></defs><g id="figure_1"><path id="patch_1" fill="none" d="M0 280.5h249.7V0H0z"/><g id="axes_1"><g id="PatchCollection_1"><defs><path id="mf1074dbb98" stroke="#f4f4e2" d="m118.4-261.2.2.3.2.3.3 1.7.6 2.3.8 4.5.4 1.4 1.2 4.7.1.5.5 1.2.6 1.2.3.4 1 1.1 2.2 2.7.9 1 1.9 2 .8.8.8 1 1 1.5.7.8 1 1.7.7 1.4.7 1.4.4 1 .4 1 .5 1.3.3 1 .2 1 .5 2.2.4 1 1.2 3.6.4 1.2.2 1.2.4 1.9.3 1.4.3 1 .5 1.4.6 1.3.8 1.7 3.5 6.4.7 1.3 2.9 4.5 1 1.6 1.5 2.5.9 1.4.7 1 1.5 1.7.7.8.6.6.6.3.7.2h.9l.5-.1.8-.3 1.2-.5 2-1.2 1.2-.7.4-.1h.2v.9l.3 1 .4 1.5.6 1.8 1 2.8.6 1.4 1.4 3.1.9 2 3 6 1.5 3.1 5.7 12.3 1.9 3.9 1.5 2.7.8 1.3 1.2 1.8.7 1 .7 1 .8.9 1.4 1.5 1 1 .7.7 1.3 1 1.8 1.2 1.7 1.1 6.2 3.7 1.7 1 1.7 1.2 1.5 1 2.2 1.6 3.2 2.5 1.3 1.1 1.5 1.4 1 1 4 4 2.3 2.2 1.4 1.2 3.4 2.8 1.9 1.6 1.7 1.7.6.6.1.3-3.5 4.5-.6.7-.3.6-.1.3-.1.3-.2.6-.2 1-.8 6.8-.4-.1-.7.2-.8.4-.8.7-.8.8-.4.3-.6.9-.5 1-.6 1.3-.6 2.9-.3.8-.6 1.4-.8 1.3-1 1.2-1 1-1 1-.7.4-.5.4-.9.4-.8.4-1.3.4-.7.2-.8.2H208l-.6-.3-.6-.3-.5-.5-.7-1-.5-.6-.8-1.5-1.1-2.3-1.6-3.6-2.2-5.3-.5-1.2-.6-1.2-.4-.7-.5-.7-.6-.6-.4-.3-1-.4h-1.6l-.8.3-.8.3-1.2.6-2 1.4-1.2 1-2 1.4-2.5 2-1.2 1.1-1.2 1.1-1.2 1.3-.9.8-2.3 2-.8.8-.7.8-.5 1v1.5l.3.5.3.5.5.6.7.8.7.7.8.8 1 .9 3.4 2.7 2.6 2 .9.9.7.8.7 1 .8 1.5.5 1.1.2 1 .3 1v1.2l.1 1.3v2l-.4 3.2v6.6l-.2 2-.2.7-.2 1.2-.4 1.3-.3 1.2-.7 1.7-.4 1-.5 1.1-.8 1.5-1 1.3-.5.8-.4.5-1 1-1 .8-1.2.9-.8.5-1 .7-1.4.6-1.3.7-.9.4-1.6.6-1 .3-.9.2-.8.2h-.9l-1.1-.2-.7-.2-.3-.4v-.1l.1-.8v-1.4l-.1-1-.3-1.5-.5-1.6-.4-1.1-.2-.6-.3-.6-.7-1.2-.7-1.2-.7-1.2-1-1.3-.6-1.1-1.2-2-1.2-2.4-.7-1-.7-1.2-.5-.7-.5-.6-.4-.5-.8-.7-1.2-.8-1-.5-2.5-1.2-1.3-.5-1.2-.4-.9-.2-1-.3-.9-.2h-1.1l-1.2-.2-1 .1-.8.2-.5.2-1.2.7-1 1-1.1 1.2-1 1.4-1 1.4-3.1 4.6-1 1.5-1.1 1.5-1 1-.9 1-.9 1-1 .8-1 .7-1 .5-1 .2h-1.3l-1.3-.4-1.3-.6-2.7-1.4-1.4-.6-1.3-.4-1.4-.2h-1l-.7.3-1 .3-1.2.6-2 1-.9.5-.7.2-.6.1h-1l-.2-.2-.5-.3-.3-.2-.3-.4-.6-.7-.6-1-.4-1-.2-.5-.2-.7-.2-1v-.7l.1-.6.1-.6.4-1 .7-1.3 1-1.4.8-1.2.7-.9.6-.5.6-.6.6-.5 1-.6 1.2-.7 1-.6.3-.3.6-.5.5-.6.4-.9.2-.5.1-.7v-1.1l-.2-.7-.3-.9-.5-1.5-.4-.8-.3-.8-.7-1.3-1.6-2.9-1-2-.5-1-.7-1.5-.5-1.5-.6-1.6-1.9-6-.5-1.4-.4-1-.4-.8-.6-1.3-.6-1-1.7-2.8-1.2-2.2L96-86l-.4-1.2-.1-.3-.2-1v-1.7l-.2-1-.2-.7-.2-.7-.7-2.1-.5-1.8-.5-1.8-.3-1.4-.4-2.5-.3-2.7-.2-1.3-.4-2.5-.2-1v-2.6l.2-.7.3-.8.7-2 .2-1 .1-.5.2-1.2v-2.6l-.1-1.4-.3-2.5-.3-1.4-.4-1.3-.5-1.2-.7-1.2-1-.9-.6-.5-.8-.4-.9-.3-1-.3-1.2-.2-1.7-.3-1.8-.1h-6l-1.9.1-1.9.2-2.5.3-1.2.2-1.3.3-2.4.6-1 .3-2.1.7-1.1.5-2.3 1-1 .5-1.2.6-1 .6-1 .7-1 .6-1.2 1-1.1 1-.9 1-.6.7-.6.9-.5.6-1.2 2-.1.2-.1-.2-.3-.7-1.6-4.2-1.3-3.5-1.4-3.4-1.6-3.4-1.3-2.7-1-1.8-2-3.5-3.8-6.6-1.7-3.2-.8-1.4-1.2-2.6-.6-1.1-.5-.7-.7-.9-.7-.6-.8-.7-.9-.5-.5-.3-.8-.3-1.9-.6-1-.5-.6-.3-.4-.3-.4-.3-.2-.3-.4-.6-.2-.7v-1.3l.2-.6.4-.9.6-.9.5-.6.6-.6.5-.4 1.3-1 1-.7 1.2-.7 3.1-1.8.8-.5.7-.5.8-.8.8-.7.6-.8.8-1 .6-1 .4-.7.6-1.3.4-.9.2-.6.2-.7.1-.8v-.8l-.2-1-.5-2.4-.2-1.3-.1-1.9-.2-1.4-.8-4.8v-1l-.1-.8v-1.6l.2-1.2.2-.7.5-.9.4-.5.6-.5 1-.5.8-.4 1.3-.5 1.2-.3 5-1.5 2.3-.8 1.8-.6 3.8-1.6 1.4-.5 2-.8 1.9-.5.7-.3.5-.3.8-.4.5-.4 1-.8.6-.7.5-.6.4-.7.4-.5.3-.6.3-.8.4-1.1.2-1 .3-1.4.4-2 .1-1.2.1-2v-2.4l-.4-3.4v-1.7l-.1-2v-.8l.1-.8.2-.8.3-.8.5-.8.8-.6.7-.4.7-.3.8-.4 1-.3 1.9-.4 2.8-.6 1.2-.2 1-.2h3.8l.9-.1.8-.2 1.4-.2 2.1-.6 2.1-.6 1.7-.5.7-.3 1.2-.6.7-.4 4.1-2.6 2.4-1.4 3.2-1.7 4.2-2 6.3-2.9 2.7-1.1 2-.8 1.2-.3.7-.2.5-.1h.1"/></defs><g clip-path="url(#pe24f9f28df)"><use xlink:href="#mf1074dbb98" y="280.5" fill="#f4f4e2" stroke="#f4f4e2"/></g></g></g></g><defs><clipPath id="pe24f9f28df"><path d="M7.2 7.2h235.3v266.1H7.2z"/></clipPath></defs></svg>