<svg xmlns="http://www.w3.org/2000/svg" xmlns:xlink="http://www.w3.org/1999/xlink" width="362" height="374" viewBox="0 0 271.5 280.5"><defs><style>*{stroke-linejoin:round;stroke-linecap:butt}</style></defs><g id="figure_1"><path id="patch_1" fill="none" d="M0 280.5h271.5V0H0z"/><g id="axes_1"><g id="PatchCollection_1"><defs><path id="m5cd4863d3b" stroke="#f4f4e2" d="m231-88-.5-.1h-2.2l-3.5.5-4 .8-4.6 1.1-4.6 1.5-4.3 1.9-3.9 2.4-1 .9-1.6 1.5-1.5 1.6-1.7 2.2-1.7 2.6-1.6 2.9-3.2 6.4-1.3 2.8-.9 2.3-2.1 5.8-.8 2-1 2-1.4 2-1.4 1-1.5.7-1.6.2-1.7-.2-3.8-1-1.7-.3-1.9-.1h-4.8l-8 .5-7 .2-8.4.5-5.2.6-3.7.5-2.9.6-2.7.7-2.6.9-2.4 1-2.2 1.1-1.9 1.3-.8.7-3.6 3.4-2.3 2-2.2 1.5-2.2 1.2-2.3 1-2 .9-14 4.6-2.5.8-2.7.6-2.3.4-2.4.2h-3l-3 .1h-3l-3.3-.3-3.2-.3-3.1-.6-3-.8-3.2-1.3-1-.6-2.2-1.7-1.9-1.9-3.3-4-2.4-3.3-1.3-2-3-6-2.4-4.3-1-2.3-.7-2.2-.3-1.6-.3-4.3L34-59l-.9-2.4-1.2-2.2-1.3-1.6-1.5-1.8-1.8-2.2-1-1.5-1-1.6-1.5-3.3-1.2-3.6-1-3.9-1.9-8.3-.2-1.3-.1-1-.4-.7-.1-1.5.1-2 .4-1.5.5-1.7 2-4.6 1-2.9 1.2-3.2.9-2.9 1-3.6.3-1.8 1-5.6.5-3.2.5-2 1-2.6.9-1.6.6-1 .8-1 1-1 2-1.6 6-4 2.6-2 2-1.7 2-2 1.1-1.7.8-1.3.6-1.5.5-1.7.5-1.7.3-1.8.5-2.8 1-10.8v-3l-.3-2-.4-2.3-.6-2.2-.8-2.1-1.3-3.4-1.3-2.7-2.7-5.3-5.6-10 .4-.1 1.4-.5 2-.8 15.1-6.2 18.6-7.2 28.1-10.4 6.6-2.7 14.3-6 3.6-1.5 6.2-2.2 15.4-5.1 23-8 6.4-2.4 3.6-1.6.8-.4.6-.4-.1 1 .4 1.8.7 2 1.4 2.8 1.8 2.5 2.4 2 3 1.2 3.6.5h3.8l4.1-.6 4.2-.8 13.3-3.1 4.3-1 4.2-.5h4l3.6.7 2.6 1.2 2.3 1.6 2 2 2 2.8 1.7 3 1.2 3.1.5 3.3v3.1l-.5 2.5-.6 2.6-3.1 9.8-2 7-.8 3-.6 2.8-.5 3-.9 5.1-.3 2.9-.3 3.3v3.7l.2 2.9 1.2 12.6.1 5.5-.1 5.7-.5 9.6-.6 5-.5 2.9-.5 2.2-.4 1-1 2.5-1.2 2.1-2.4 3.7-5.8 8-1.4 2-1.6 2.6-.8 1.5-1 2.4-.8 2.4-.5 3.2v1.9l.2 2.3.5 3 .6 2.3 1.3 4 3 7.7"/></defs><g clip-path="url(#p8fc64e69ca)"><use xlink:href="#m5cd4863d3b" y="280.5" fill="#f4f4e2" stroke="#f4f4e2"/></g></g></g></g><defs><clipPath id="p8fc64e69ca"><path d="M7.2 7.2h257.1v266.1H7.2z"/></clipPath></defs></svg>