<svg xmlns="http://www.w3.org/2000/svg" width="495.4" height="220.3" viewBox="0 0 371.5 165.2"><defs><style>*{stroke-linejoin:round;stroke-linecap:butt}</style></defs><g id="figure_1"><path id="patch_1" fill="none" d="M0 165.2h371.5V0H0z"/><g id="axes_1"><path id="PatchCollection_1" fill="#f4f4e2" stroke="#f4f4e2" d="M66.5 136.9H63l-11.2-.3-6.5-.8-3.8-.8-2.5-.7-2.4-1-2.3-1.2-2-1.6-1.6-2.2-1.4-2.7-1-3-.8-3.2-.7-3.4-1.4-11.2L23.8 83l-.4-2.9 42.4-12 1 3.2 6.3 16.4 3 9 1.4 5 .6 2.9.8 5.4.4 5 .1 6.6-.2 3.1-.6 2.9-1 2.6-1.4 2.1-2 2-1.7 1-2.3 1-1.9.4-1.8.3m271.1-73.2 1.4 5.5 1.8 5.4 5.3 14.7 1 3.5.8 4 .2 4-.6 3.8-1.2 3-.5.8-2 2.3-1.7 1.7-1.8 1.5-3 2-3.6 2-4.1 2-3.4 1.3-5.2 1.8-8.5 2.8-11.2 3-7.6 1.7-11.8 2.3-33 5.7-11.4 2.2-14.8 3.2-20.8 5.3-5.7 1-6 .7-3.8.1h-3.5l-6.6-.5-6.7-1.2-8.7-2-7-2-7-2.7-4.4-2.3-2.2-1.5-3.1-2.4-3.3-2.8-3.1-3.2-3.1-3.5-4.4-5.7-8.7-12.4-4.1-5.4L99 89l-6.2-8.2-3.2-4.4-4.1-6-2.4-4-1-2h.4l4.2-1.5 8.3-4 8.4-4.4 21.5-11.7 8-4.1 8.2-3.8 8.7-3.5 7-2.3 6.5-2 31-8.5 9-2 5.2-1 8.8-1.2 5.2-.3h4.5l5.9.3 5.5.7 5.2.8 10.5 2 15.8 3.9 10.6 3 10.8 3.4 6.8 2.5 24 10 7.2 2.7 4.3 1.3 3.1 1h1.3l-1.4 1-.7 3v4l.5 4.9 1.1 5.2" clip-path="url(#p86f1ee9dc1)"/></g></g><defs><clipPath id="p86f1ee9dc1"><path d="M7.2 7.2h357.1V158H7.2z"/></clipPath></defs></svg>