<svg xmlns="http://www.w3.org/2000/svg" xmlns:xlink="http://www.w3.org/1999/xlink" width="401.8" height="374" viewBox="0 0 301.3 280.5"><defs><style>*{stroke-linejoin:round;stroke-linecap:butt}</style></defs><g id="figure_1"><path id="patch_1" fill="none" d="M0 280.5h301.3V0H0z"/><g id="axes_1"><g id="PatchCollection_1"><defs><path id="m4f28048812" stroke="#f4f4e2" d="M93.7-259.2h.2l.4.3 2.1 1.5 1.7 1.3 4 3 2 1.5 3 2 2.2 1.5 5 3 3.7 2.1 3.2 2.1 2.9 1.9 1.5 1.1 1.8 1.7 1.9 1.8 2 2.3 3.9 4.8 1.7 2 1.8 1.9.9.9 1.1.9 1.2.7 1 .5 1 .3.8.1h.3l1.7-.3h.3l1-.4 1-.5.9-.4 1.7-1 1.8-1.3 1.7-1.3 1.7-1.4 1-1 1-1.1 1-1.2 3.6-5.2 1.3-2 .9-1.4.8-1.8.6-1.5.2-1 .2-1.1.1-1.2-.1-1.7-.4-1.8-.5-1.8-1.1-3.6-.4-1.8-.3-1.6v-1.1l.2-1 .2-.8.4-.6h.4l.1.2.7.8 1 .9 1 .8 1.2.9 1.3.8 1.6.8 1.2.5 1 .2 2 .2h2.1l1.4-.2 2.4-.4 5.7-.9 2.5-.2h1.8l1.3.2 1.2.3 1.3.7 1 1 1 1.1.9 1.6.7 1.8.6 2 .5 2 1.5 6.2.6 2.2.7 2.1 1 2 .4.8.6 1 1 1.4 1.6 2 .9.9 1.2 1.2 1.3 1 .9.6 2.3 1.4 1.6.8 1.6.7 1.6.4 1.6.2h1.8l3.5-.4 1.5-.1h3.2l1.5.2 1 .2 1 .2 1.4.6 1 .5.6.4 2.2 1.5 5.4 4.1 5 4 2.5 1.9 1.9 1.5.9.7 2.5 2.3 4.3 4 1.4 1.4 1 1.1.9 1 .7 1.1 1.1 1.6 1.1 2 4.5 8.7 1.6 3.3 1.9 4.2.5 1.1.5 1 .8 1.2.8 1.1.8.7.5.2-.2.5-.5.6-.7.8-.9.6-.7.4-.8.4-.9.2-.9.2h-2.8l-1.5-.2-3.8-.6-1.6-.2-2.6-.2-3.6-.2h-2.4l-2.2.2-.8.1-1.2.3-1.8.5-2 .7-1.8.7-4.4 2.1-3.2 1.5-.8.4-1.9 1-1.6 1-1 .8-1.4 1-1.3 1.2-1.3 1.2-1.1 1.4-.7 1-1 1.3-.8 1.4-.8 1.5-.5.8-1.5 3.7-.6 1.3-.3 1-.3.9-.2 1.3-.1 1.1v5.4l-.4 1.4-.5 1.2-.3.6-.8 1.1-1.8 2.4-.3.3-1 1.6-.4 1.1-.4 1-.2 1-.3 1.4-.3 1.8v2.6l-.2 6.3v1.5l-.1 1.1-.5 3.4-.1.8v2.4l.5 4v1.5l.1 1.6-.1 1.6-.2 1.4-.3.9-.4 1.2-.5 1.3-.8 1.6-.9 1.6-1 1.8-1.3 1.8-.9 1-1.5 1.8-1.3 1.3-2.6 2.6-2.7 2.7-2 2-1.3 1.1-.7.7-1.1.8-1 .6-1.3.6-.8.4-1.2.3-1.2.2-2.6.2h-1.2l-.8.2-1.2.2-1.1.4-1.8.7-2.2 1-2.2 1.1-3.6 2-1 .5-4.1 1.8-.8.5-.7.5-1 1-.8 1.2-.4.9-.2.9-.2 1.6v1.6l.1 1 .1.5.1.3.2.3-.3.2-.8.2-1 .2-1.3.2h-1.4l-4-.2H155l-1 .1-1 .1-1.4.3-1.3.4-1.2.5-1.8.8-1 .6-1 .5-.7.4-1 .7-.7.6-2.4 2.2-1.3 1.1-1 .8-2.3 1.6-2.3 1.5-6 3.5-2.4 1.5-6 4-2.2 1.5-1.1.6-1.1.6-1 .5-1 .3-1 .1-.8-.2-.7-.4-.5-.7-.3-.8-.2-.8v-.6l-.2-.5-.2-.3-.6-.7-1-1-1.6-1.6-1.7-1.5-1.8-1.3-4.7-3.3-1.8-1.2-1-.6-.9-.4-.7-.3-1-.3-1-.2-4.9-1-5.1-.8-1.8-.3-2-.5L76-39l-1.7-.8-2-1.1-1.3-1-1-.7-1.7-1.3-1.4-1.4-1.4-1.5-1.3-1.6-1.2-1.7-1.2-1.6-2.2-3.4-1.1-1.7-1-1.7-1.3-2.4-1.3-2.7-.6-1.4-1.8-4.3-2.4-5.2-.7-1.7-.9-2.1-.4-1.5-.4-1.5-.1-.8-.3-1.6-.1-3-.2-1.7-.2-1-.2-.9-.3-1-.5-1.3-.4-1.1-.7-1.5-.7-1.3-1-1.9-2.2-3.1-.6-1-.5-1-.6-1.8-.2-.8-.2-1-.1-.9v-1.3l.2-1.1.4-1.4.6-1.5.8-1.5.9-1.5.6-1 1-1.5 1.4-1.7 1.6-1.8 1.4-1.3 1.4-1.2 4-3.3 2-1.6 1.4-1.3 1-1 .8-1.4.3-1v-2.1l-.2-1.2-.3-1.2-.5-1.4-.8-1.7-.5-1-.6-.9-.7-1-.9-1-1.3-1.5-.8-.7-.9-.8-1-.7-.8-.7-1-.6-2.4-1.4-2-1-1.8-.8-2-.8-1.8-.6-3.4-1-1.2-.4-1.6-.9-1.4-.9-1-.7-1.2-1-1.4-1.4-1.2-1.2-.8-1-1.4-1.9-1.4-1.9-.8-1.3-.5-1-.3-1.1-.2-1.1v-2l.1-.7.3-1.1.5-1.6 1.1-2.3 1.3-2.4 1.2-2 1.4-2.2 1.2-1.6 1.5-2 1.2-1.4 1.2-1.2 1.3-1 .8-.7 3.2-2.2 1.2-.8 1-.9.8-.8 1-1.1.8-1.2.7-1.2.4-1.2.2-.9v-1.5l-.4-1-.4-1-.5-.7-1.6-2.5-2-3-2-2.5-3.7-4.5-1.3-1.7-.9-1.4-.4-.8-.6-1.6-.3-1.5.2-1.4.4-1 .8-1 1.2-1.4 1.4-1.2 1.1-1 .7-.6.2-.2.6-.4 2.3-2 2.5-2.2 3-2.7 2.3-2 .7-.6 1-.7.7-.4 1-.5.8-.2.8-.2h1.9l.9.1 1 .3 3.2 1.2.8.2 1 .3.8.2 1.5.2h2.4l1.3-.2.8-.2 1.5-.5.7-.3.7-.4.4-.3.5-.5.6-.6.5-.8.5-.8.7-1.2 1.5-3 .5-.9.5-.5.8-.9 1-.9 1.1-.8 1.2-.6 1.2-.6.8-.3 1.8-.5 1.4-.4 1-.2h1.1l1-.1h.8l.8.1.8.2 1 .2 1.6.6 1.8 1"/></defs><g clip-path="url(#p4fb166f58d)"><use xlink:href="#m4f28048812" y="280.5" fill="#f4f4e2" stroke="#f4f4e2"/></g></g></g></g><defs><clipPath id="p4fb166f58d"><path d="M7.2 7.2h286.9v266.1H7.2z"/></clipPath></defs></svg>