<svg xmlns="http://www.w3.org/2000/svg" xmlns:xlink="http://www.w3.org/1999/xlink" width="331.6" height="374" viewBox="0 0 248.7 280.5"><defs><style>*{stroke-linejoin:round;stroke-linecap:butt}</style></defs><g id="figure_1"><path id="patch_1" fill="none" d="M0 280.5h248.7V0H0z"/><g id="axes_1"><g id="PatchCollection_1"><defs><path id="m24d3055b48" stroke="#f4f4e2" d="m214.3-205-.3.1-1.2.2-3 .1-4.2.2-15.2.2-3.4.1-3.6.2-6.5.5-6.8.7-8.6 2.6-1.8 1.3-.4 1.7.5 1.5 1 1 3 1.4 3 1.8.9 1 .9 1.2 1 2.1.8 1.7.7 1.9.7 1.9 1.4 4.4.7 2.4.8 3 1 2.9.5 1.6 1 2.7.4 1 .5 2.5.6 3.5.3 1.4.2 1.1.3 1 .5 1.4.5 1 1.2 2.2.5 1.1.3.8.3 1 .8 3 .2 1 .3 2.5.2 2v.7l-.1 1-.7 2.6-.3 1.4-.3 1.4-.2 1.4-.2 2.3-.3 4-.6 6.8-.1 1.8v1.5l.2 1.4.9 5 .3 2.3.1 1.4v1l-.3 1.3-.5 1.3-.2.6-.5.9-.9 1.2-1.6 2.1-1.2 1.8-3.5 5-.6.8-.9 1.8-.5 1.3-.4 1.3-.3 1.3-.2 1.2-.1 1.3v2.4l.2 2.3 1 5.6.2 1.3.1 1.3v1.5l-.2.2v.1l-.9.6-.7.4-1.1.6-2.1 1-2 .7-9 3-6.9 2-1.8.6-1.2.5-1.1.6-1.4.8-.7.5-.7.5-.5.4-.5.6-.4.5-.1.3-.3 1-.1 1 .1 2.8v1.6l-.3.8-.1.4-.2.6-.6 1-.7 1-.9 1-1 1-2.3 1.8-.6.5-1 1.1-.8 1-.8 1-.7 1-1.7 3.2-.5.7-.3.5-.7.7-1 1-2.6 1.8-2.8 2.2-.7.5-.8.5-.8.5-1 .4-1 .4-1 .2-.9.1h-.7l-4-1.6-1.2-.4-1.1-.4-1.4-.4-4.3-1-1.1-.3-1-.4-.9-.3-1-.6-.9-.6-2.3-2-1.1-.6-.8-.4-2.4-.8-1.2-.6-1-.4-1.1-.2-1.4-.2h-1.7l-.4.2-.5.1-.6.3-2.3 1.3-1 .4-1 .3-1.8.3-1.4.1h-2.1l-1.2-.3-.7-.2-1-.4-.8-.2h-1.4l-.6.2-.6.3-1.4.9-1.2.6-5.9 2.5-.9.3-.7.2h-.7v-.2l-.1-.3-.5-.4-.5-.5-4-2.9-1.4-1.2-.8-.7L48-31l-2-2.2-1-1.1-1-1.2-1.2-1.5-1.7-2.3-.8-1.1-.7-1.2-.8-1.5-.6-1.4-.5-1.3-.3-1.4-.3-1.8-.6-3.3-.1-1.2-.1-1.3-.4-5.8v-3.7l.4-4.2v-1.7l-.2-7.2.2-5.4v-1l-.4-4.5-.2-3-.1-1.7-.3-1.8-.4-2-.4-1.8-.6-2-.7-1.8-.8-1.7-1-1.8-.8-1.7-3.1-5.3-2.6-4.2-2.6-4.1-4.2-6.4-.2-.4 3.7-2.3 4.6-3 5-3.3 8.8-6 9.4-6 7.4-4.7 16.8-10.5 15-9.5 3.6-2.4 10-6.6 6.5-4.3 13.8-9 4.5-3 6.1-4.4 5.6-4 5-3.9 3.9-3.1 5.5-4.7 2.8-2.4 2.8-2.5 5-5 2-2 1.2-.9 1-.7 1-.7 2.3-1.5 3.1-1.8 3.6-2 3.3-1.7 2.7-1.3 11-5.2 4.7-2.3 14-7.2 8.8-4.3 1.5-.7.5-.2 2.8 5 1.3 2.7.7 1.3.6 1.7.4 1.1.3 1 .2 1.3.2 1v1.5l-.5 5.4-.3 1.4-.1.9-.3.9-.2.8-.4.8-.3.6-.6.8-1 1-1 1-1.3.9-3 2-1 .8-.5.5-.4.6-.3.5-.4.8-.5 1.3-.3 1-.3 1.5-.5 2.9-.1.9-.5 1.8-.5 1.4-.6 1.7-.5 1.4-1 2.3-.2.9-.2.8v1.7l.1.3"/></defs><g clip-path="url(#pc12564d34f)"><use xlink:href="#m24d3055b48" y="280.5" fill="#f4f4e2" stroke="#f4f4e2"/></g></g></g></g><defs><clipPath id="pc12564d34f"><path d="M7.2 7.2h234.3v266.1H7.2z"/></clipPath></defs></svg>