<svg xmlns="http://www.w3.org/2000/svg" xmlns:xlink="http://www.w3.org/1999/xlink" width="495.4" height="335.5" viewBox="0 0 371.5 251.7"><defs><style>*{stroke-linejoin:round;stroke-linecap:butt}</style></defs><g id="figure_1"><path id="patch_1" fill="none" d="M0 251.7h371.5V0H0z"/><g id="axes_1"><g id="PatchCollection_1"><defs><path id="m0a6eb161f2" stroke="#f4f4e2" d="m348-174-1.9 8-1.6 7-1 4.8-.4 2.3-.2 1.9-.2 1.6-.2 2v6.7l.3 6.2v3.4l-.2 1.2-.1.8-.3 1-.4 1.3-.5 1-.6 1.2-.5.8-.6.9-.5.6-.7.7-.7.5-1 .7-1.6 1-.7.3-1.3.7-1 .4-2.4 1-3.3 1-3.6 1.2-4 1.2-3.6.8-2.8.5-1.1.1-2.2.2h-4.3l-1.4-.1-2-.3-2.7-.4-2-.4-2.2-.3-1.4-.1-2.3-.1h-1.3l-1.5.1-1.8.2-2 .2-3.2.5-4.3.8-3.2.6-2.7.7-2.1.6-2.7 1-3 1-1.7.8-3.6 1.8-1.7.8-1.9.8-1.9.8-2.2.8-2.5.9-1.3.4-1.4.4-2.4.5-2.6.5-1.6.2-2.5.1h-2v-.2h-.6l-1 .3-1.3.5-1.4.6-1.6.7-1.5.7-1.6.9-1.5.9-.7.5-1.3.9-1 .7-1.5 1.2-1.2 1.2-1.8 2-1 1.2-1.2 1.4-1.2 1.6-1.1 1.6-2 2.8-2.2 3.8-2 3.3-1.3 2.7-1 2-.9 2.1-2.4 6-1 2.3-1 1.7-.6 1.3-2 3.3-1.8 2.8-3.5 5.2-9 13-2.2 3-2.1 2.8-1.2-.1-1.3-.1-3.7-.2-12.4-.1-35.2-.8-8.6-.1h-8.4l-5.2.2H90.1l-2.1.2-2.1.4-.9.1-1.3.4-.8.3-1 .3-1.7.8-1.7.8-1 .7-2.2 1.4-1.7 1.2-.3-.4-1.9-1.7-2.4-2.2-3-2.5-5-4.2-14-11.4-4-3.3-2.1-1.9-1.1-1-1.4-1.5-.6-.7-.4-.7-.4-.7-.4-1.3-.2-1.3-.1-2.5L36-57v-2.4l-.2-1.2-.3-1.1-.2-.5-.3-.5-1.4-1.7-.4-.8-.3-.6-.2-1.2.1-1.5.3-1.6.6-3.3.2-1.6v-2l-.5-1-.8-1-1.1-.7-1.4-.7-3.9-1.6-1-.5-1-.6-.6-.7-.3-.6.1-.2 9.4-.8L49.5-87l22.2-2 13.8-1.2 4.3-.5 2.1-.2 2-.3 2-.4 1.9-.4 1.6-.6 1.4-.8 1.1-1 .5-.8.3-.8.1-.8.2-1.1v-3.1l-.2-1.6-.2-1.7-.6-3.8-4-22.7-4.3-22.5-4-20.7-.8-4.1-.3-2-.3-2-.2-2v-3.5l.4-1.6.7-1.4.8-.9 1-.7 1-.6 1.3-.5 1.3-.3 1.3-.3 1.7-.3 1.8-.1h1.7l1.7.1 1.7.4 1.5.6 1.5.9 1.3 1.1 3.8 3.8 1.3 1 1.3.8 1.3.4 1.3.1 1.2-.2 1.3-.4 1-.6 1-.7.8-.9 1.1-1.3 1-1.5 2.7-4.3.9-1.4 1-1.2 1.1-1 1.2-.6 1.3-.5 1.4-.3 1.4-.1h2.6l2.4.2h2.1l1-.1.9-.3.9-.3 1-.5.9-.6.5-.5 1.2-1.1 3.4-3.9 1.2-1.1 1.3-.9 1-.4 1.1-.3h2.1l1.1.3 1.3.4 1.3.7 1.2.8 1.5 1 1.4 1 1.4 1.2 1.3 1.2 1.2 1.2 2.3 2.5 1 1 1 1 1.4 1.1 1.4 1 1.1.5 1 .4 1 .3 2.8.7.5.1 1 .2h.6l.6-.2.9-.5.8-.8.6-1 .4-1 .7-2 .5-1.4.6-1.3 1-2 .4-.8v-.3l.3-.7v-.5l-.1-1.4-.4-1.5-.6-1.5-1.2-2.4-.5-1.4-.5-1.3-.2-1.4v-2.7l.4-1.3.6-1.2.6-1.3.7-1.1.7-1.2 1.2-1.7 1-1.4 1.1-1.4 1.1-1.2 1.1-1.1 1.1-.8 1.2-.5h1.7l.7.4 10.8 5.6 15.4 7.8 3.7 2 1.9 1 1.5.9 1.4.8 1.4 1 1.4 1 1.3 1 1.2 1.1 2.7 2.5 1 1 1.2.7 1.2.8 1.3.5 1.3.5 2.8.9 1.6.6 1.6.7 3.2 1.5 2.4 1.2 3.5 1.7 3.6 1.6 1.8.8 1.7.6 1.8.4 1.8.2h1l1-.1 1.4-.3 3.2-.8 1.9-.4 1.9-.4 2-.2 2-.1 2-.1h4.2l1.2.2 2 .2 1.4.3 1.4.4 1.9.6 1.8.7 1.8.9 1.8 1 2 1 3.8 2.3 5.5 3.5 3.7 2.5 3.6 2.6 1.7 1.3 2.6 2 1.5 1.2 1.6 1 1.8.5 1.8.4 1.9.3 1.8.1h1.6l1.7.1"/></defs><g clip-path="url(#p879369016c)"><use xlink:href="#m0a6eb161f2" y="251.7" fill="#f4f4e2" stroke="#f4f4e2"/></g></g></g></g><defs><clipPath id="p879369016c"><path d="M7.2 7.2h357.1v237.3H7.2z"/></clipPath></defs></svg>