<svg xmlns="http://www.w3.org/2000/svg" xmlns:xlink="http://www.w3.org/1999/xlink" width="307.5" height="374" viewBox="0 0 230.6 280.5"><defs><style>*{stroke-linejoin:round;stroke-linecap:butt}</style></defs><g id="figure_1"><path id="patch_1" fill="none" d="M0 280.5h230.6V0H0z"/><g id="axes_1"><g id="PatchCollection_1"><defs><path id="m7af7e2be10" stroke="#f4f4e2" d="M168.2-259.3h.2l.7.8 1.4 1.6 1.1 1.4 5.6 7 6 7.3.9 1.3.6 1 .5.8.2.5.4 1.2.3 1.6.2 1.6v3.5l-.4 1.8-.4 1.7-.8 2.2-.9 2-2 4.6-1 2.2-.3 1.2-.3 1.1v1.6l.2.7.1.3.4.8.6.8.4.5.7.5.3.2 1 .4.6.2 1.4.4 3.7.6 2.4.6 2.4.6 2.5.8 2.9 1.2 2.1 1 3 1.4 4 2 1.6.8 1 .5 1.1.3.8.1h.1l-.2.6-.8 1.2-1.4 2-3.6 4.4-2.2 3-1.7 2.4-2.8 4-2.4 3.3-.8 1.3-.9 1.4-.4 1-.3 1-.1.7-.1 1 .1.7.4.6.4.6.3.2.6.3 1 .4 1.7.4 1.4.4 1.2.6 1.2.7 1.2.8.6.5 1.3 1.2.7.8.9 1.2.5.9.3.6.4 1.4.2.8.2 1.2.1 1.2v2.1l-.4 1.8-.5 1.6-.6 1.5-1.5 2.5-.7 1.5-.2.7-.2 1.1-.1 1.1-.3 1.1-.3 1-.2.4-1 1.5-4.8 7-1.4 1.8-.7.9-1 1-1.4 1.3-1.1.8-1.3.7-.8.3-.9.3-2.5.6-1 .3-.7.3-1 .4-1 .6-.4.4-1 .8-1.3 1.3-2.3 2.6-1.8 2.2-.7 1-.8 1-.7 1.3-.6 1.3-.4 1-1.2 4.3-.4 1.2-.6 1.2-.4.9-1.2 1.7-.8 1-3.4 4.2-1 1.4-.9 1.3-1 1.6-2.2 3.7-2 3.6-1.8 3.7-3.3 6.6-.7 1.5-4.6 10-2.4 5.1-2 3.7-3.2 6-1.9 3.8-.7 1.5-.6 1.3-.6 1-.5.7-.5.6-.7.5-1.6 1.3-1 .9-.9 1-.6 1.1-.7 1.2-.7 1.3-.7 1.6-1.2 3.1-.5 1.1-.7 1-.6.5-.8.4-.6.2-1 .3-.9.2h-1l-1.2.1h-1.9l-2.5-.2-1.7-.2-2.4-.3-3.1-.6-1.9-.5-1.8-.5-1.7-.5-1.3-.5-1.3-.6-.8-.5-.8-.5-1.2-1.2-.2-.3-.6-1.2L98-28l-.2-1.4-.3-2-.6-6.9-.1-1.6-.3-1.8-.4-2.3-.3-1-.3-1-.4-1-.5-.8-.5-.6-.6-.7-.7-.5-1-.6-.7-.4-.6-.2-1.2-.4-3-.8-4.3-1.2-1.2-.3-1-.1-1.3-.1-1.6.2-1.1.2-1.5.4-2.2.8-1.9.8-1.9 1-5.5 2.6-2 .9-2 .8-1.5.6-2.1.6-1.2.3-1.2.1h-2l-1.3-.2-1.3-.3-1-.3-1.2-.5-1.4-.7-1-.6-1-.6-.9-.6-.6-.5-1.4-1.3-1.2-1.4-1.3-1.7-1-1.6-2.7-4.2-1.3-2-1-1.3-.3-.2-.8-.7-.7-.4-1.9-1.1-1.4-.7-1-.3-.6-.2-.9-.2H23l-.5-.1h-.8l-.7.1-.8.2-.6.2-.4.3-.4.3v.3h-.1l-.1-.4-.2-.7-.4-1.7-.2-1.7-.4-3.2-.2-2L17-77v-4.6l.2-1.3.3-1.6.3-1.2.3-.9.9-1.7.8-1.3 1-1.2.7-1 2.5-2.6 1-1.2.9-1.1.7-1 .5-1 .5-1 .7-1.6.4-1.4.3-1.5v-1.2l.1-1.1v-1l-.2-.8-.7-3.4-.3-2.2-.2-1.1-.3-3.7-.2-1.4-.4-2.4-.3-1.8-.1-2-.2-4.5v-2l.1-2.1.3-2.5.6-4.8.4-4.4.3-1.3.2-.7.5-1.2.7-1.2 1-1.4 1-1 1-1 3.2-3 1-1.3.8-1.2.3-.8.1-1.5-.1-1-.5-1.4-.5-1.2-.6-1-.9-1.2-3-3.8-1.2-1.6-1-1.6-1-1.6-.9-1.7-.8-1.7-.6-1.8-.4-1.2-.2-1.2-.1-1-.6-6.7v-3l.1-.7.2-.8.4-1 .6-1.2 1-1.3.6-.9 3.8-4.5 1.8-2 3.4-3.7 1.3-1.6 1-1.2 1.3-1.8 1-1.6 1.3-2.2 1-2.2.6-1 1-1.4.8-1.2 1-1.3 1.3-1.6 1.6-1.6 1.7-1.6 1.6-1.2 1.8-1.4.7-.4 1.1-.6 1.6-.8 2.6-1 1-.2h.7l1.2-.1 3.5-.3 2.6-.4 4.1-.8 6.6-1.3 15-3.2 11.2-2.2 3.2-.7 6-1.5 4-.9 4-.7 1.9-.4 1.8-.3 2.8-.2 4-.3 1.8-.2 1.7-.3.9-.3.8-.3.5-.2 1.3-.8 1-.7 2.2-1.9 1.2-.8 3.6-2.3 1.3-.7 1-.5 1.7-.7.9-.3 1.6-.4 1.5-.3 2.4-.3 2.5-.1h1.3l1 .2.8.3.8.3.7.4.4.4.1.3"/></defs><g clip-path="url(#pa20db2bbea)"><use xlink:href="#m7af7e2be10" y="280.5" fill="#f4f4e2" stroke="#f4f4e2"/></g></g></g></g><defs><clipPath id="pa20db2bbea"><path d="M7.2 7.2h216.2v266.1H7.2z"/></clipPath></defs></svg>