<svg xmlns="http://www.w3.org/2000/svg" xmlns:xlink="http://www.w3.org/1999/xlink" width="343.5" height="374" viewBox="0 0 257.6 280.5"><defs><style>*{stroke-linejoin:round;stroke-linecap:butt}</style></defs><g id="figure_1"><path id="patch_1" fill="none" d="M0 280.5h257.6V0H0z"/><g id="axes_1"><g id="PatchCollection_1"><defs><path id="m450f1e66c1" stroke="#f4f4e2" d="M194.7-142.9h-.6l-.8.1-.6.3-.7.3-.7.4-.7.5-.5.4-.5.6-.4.5-.4.6-.5 1.2-.4 1.1-.3 1.4-.8 4.8-.6 3-.4 1.6-1 3.1-.1 1-.1 1.2v1.2l.4 1.8 1 3.6.1 1 .2 1v2.6l-.3 1.2-.5 1.1-.3.6-.4.5-.4.5-.5.4-.5.4-1 .5-.8.3h-.6l-1 .2h-1.4l-2-.3-5.2-.8-2.9-.4-1.8-.2h-1.1l-.7.2-1 .1-1.2.3-.7.3-1.8.6-2.7 1.3-.9.5-1 .6-1.1.9-.8.8-.4.5-.6 1-.1.3-.4 1.1-.4 1.5-.3 1.7-.6 3.4-.5 2-.4 1.4-.5 1-.5 1.2-.6 1-1 1.9-1.5 2.2-1.8 2.8-1.2 1.7-4.5 6-1 1.2-1.1 1.3-.8.7-1 .8-.7.6-1.3 1-1.9 1-2.7 1.5-7.5 3.3-3.4 1.5-2.5.9-5.4 1.7-1.3.5-1 .6-.5.4-.4.4-.3.4-.3.5-.2.5-.1.8v1.4l.3 4.3v3.1l-.3 2.1-.2 1.5-1 5-.4 2.9-.1 1.5-.1 4-.1 2-.4 1.4v.2l-.3.5h-1.3l-1.2.1-2.4.3-1.3.1h-1.1l-1-.2-1.5-.3-1.7-.6-1.1-.4-2.2-1-3-1.5-4.2-2.5-1.7-.8-1-.3-.8-.2-4.7-.9-3-.6-3.7-.6-1-.4-.6-.3-.5-.5-.3-.6-.3-1.2v-1.4l.2-1 .5-1.4.4-1 .5-.8.6-.9.4-.4 1.5-1.3 2-1.4 3.7-2.5.7-.5.7-.6.5-.6.6-1 .7-1.7.5-1.4.1-.7.1-1 .1-1.7-.2-2-.9-6.5-.2-2.2v-2.2l.1-.8.2-1.1.8-3.4.2-1 .2-1.4.2-2.2.5-8.2V-87l-.1-.8-.2-.9-.2-.4-.3-.7-.3-.4-.4-.3-.8-.7-1-.6-3.5-1.8-1.6-.9-1.5-1-1.8-1.4-2.2-2-2.3-2.3L59-104l-1.8-2.2L56-108l-1.3-2-1-1.5-.8-1.5-.9-2-1.9-4.8-.7-1.8L47-127l-1-2.1-.9-2-1-1.8-1.1-1.5-.8-.9-.8-.7-.7-.5-1.5-.8-1-.4-3.5-.8-1.2-.4-1.6-.6-1.2-.6-1-.7-4.2-3-2.6-1.7L21-147l-.7-.7-1.2-1-.7-.8v-.2l4.2-2 2.7-1.1 1.5-.6 1-.3.8-.1 1-.2 1-.1h2.8l.5.2 2.3.4H38l1-.1.9-.2 1.3-.4 1.4-.5 1.7-.7 2.2-1 11.5-5 2.6-1 4.7-1.8 1.8-.7 7-3.2 4.3-2 2.2-1 1.5-1 1.8-1.3.9-.8.6-.6.3-.4.4-.6.3-.6.1-.3.1-.7v-1.8l-.3-1.3-.3-1.3-.4-1-1-2.3-.9-1.7-1-1.6-1-1.6-2.1-2.5-1.8-2.3-1.4-2-1.3-2.2-.7-1.3-.4-1-.4-1-.4-1.3-.2-1.1v-1.2l.1-.7.3-.8.2-.5.5-.8.6-.7.5-.5.9-.7 1-.7 1-.6 1.2-.6 1.3-.6 2.3-1 .7-.3 1.2-.6 1-.7 1-.8.7-.6.9-.9.4-.6.5-.7.5-1 .4-1.5 2-8.8.9-4.5.3-1.3.4-1.3.6-1.2.7-.9.7-.7.7-.5 1.2-.7 1.3-.6 1.4-.5 1.4-.5 2.2-.6.3-.2 1-.6 2.8-1.4 1.9-.8 1.3-.5 1.3-.4 1.5-.5 2-.4 2.5-.5 2.6-.3 1.7-.1h1l1.2.2.8.1 1.4.4 1 .5 1 .5 1.7 1 .5.2h1.1l.2-.3.4-.5.3-.7.8-2 .5-1 .9-1.3.5-.6.8-.7 1-.6.8-.2 1.4-.4 1.8-.2 3.4-.2 3.8-.3h4.9l1.8.2 2 .3 3.3.7 2.2.3h1.1l2.2.1h5l1.3-.2 1.3-.2 2-.5 5.8-1.6 1.7-.4 2-.4 1.4-.2 1.5-.2h1.8l1.3.3 1.3.3 2.8 1 1.1.2 1.5.3 1.5.2h2.2l3.9-.1 3.3-.1 1.6-.1 2-.2 2.6-.5 3.2-.6 3-.8 4.8-1.6 1.4-.5 5.4-1.3 1.5 2.4 1.3 2.6 1.2 2.5.8 2 .7 2.1.3 1.3.1 1.4v1.8l-.1 1-.2.4-.3 1-.7 1-.8 1.3-1 1.2-1.5 1.3-1.4 1.2-3 2.6-4 3.3-2.2 2-1.1 1-1.2 1.2-1 1-1.3 1.6-1.2 1.6-.7 1.3-.4 1-.1.5-.3 1v1.7l.2.7.3 1.3.6 1.6.1.4.1.7v.9l-.2.5-.2.4-.7 1-.3.4-.7.6-.7.5-2.2 1.3-1 .8-1.5 1-1.3 1.3-4.7 5-.6.6-.7 1-.6 1.2-.4 1.1v1.4l.1 1.6.6 3 .1 1.3v2.9l-.4.9-.5 1.1-.7 1-.6 1-2.4 3.2-1 1.5-1 1.9-1.1 2.4-.6 1.7-.5 1.5-.3 1-.4 2.1-.5 3-1.3 5.8-.3 1.6-.2 1.6v3l.3 1.1.5 1.5.5 1.1.6 1.2 1.5 2.3"/></defs><g clip-path="url(#p5e2d15703c)"><use xlink:href="#m450f1e66c1" y="280.5" fill="#f4f4e2" stroke="#f4f4e2"/></g></g></g></g><defs><clipPath id="p5e2d15703c"><path d="M7.2 7.2h243.2v266.1H7.2z"/></clipPath></defs></svg>