<svg xmlns="http://www.w3.org/2000/svg" xmlns:xlink="http://www.w3.org/1999/xlink" width="279.9" height="374" viewBox="0 0 209.9 280.5"><defs><style>*{stroke-linejoin:round;stroke-linecap:butt}</style></defs><g id="figure_1"><path id="patch_1" fill="none" d="M0 280.5h210V0H0z"/><g id="axes_1"><g id="PatchCollection_1"><defs><path id="mbc01951f21" stroke="#f4f4e2" d="m192.4-131-3.7 2.7-20.4 14.8-11.9 8.4-5 3.7-4 3-2.9 2.6-1.7 1.8-1.2 1.4-1 1.3-2 2.7-4.2 6.2-9 14.2-2 3-2.2 3-2.7 3.2-3.6 3.8-3.7 3.6-4.8 4.4-4 3.8-7 7.2-1.6 1.8-2 2.8-.5.7-.7.6-2.5 2-4 2.6-3.3 2-2.4 1.3-3.5 1.6-2.4.9-1.1.3-1.1.2-1 .1-1-.1-1-.4-.8-.6-3-2.7-.8-.7-.9-.4-.9-.2h-.8l-.7.1-.4.3-.1-2-.1-4.8-.2-2.4-.4-2.5-.8-2.8-1.1-2.5-1.4-2.5-1.9-2.9-2.3-3-2.4-3-2-2.2-4.1-4.3-4.8-4.5-2.5-2.2-2.3-1.8-1.7-1.2-1.2-1-.6-.6-.8-1.2-.4-1-.1-.8V-75l.4-1.8.9-2.5 1.8-4.7 1.2-2.5 2.2-4.3.8-1.7.4-1.2.4-1.8.3-1.7.2-3.1.1-1.6.9-4.1 1.4-6.3.7-3.3.4-2.9.1-2.5v-2.1l-.3-2-.4-1.4-.4-1-.4-1-1-1.7-1.3-1.7-.8-1-.8-.8-.9-.8-.8-.5-.7-.4-1-.3-.8-.2h-.7l-.6.1-.8.3-.5.4-.9.6-2.3 2.3-1.3.9-1.2.5-1 .1H20l-1.5-.8-1-1-.7-1-.4-1.1-.2-1.2v-1.2l.1-1.7.5-3 .5-2.4.4-1.3 1.1-2.6 1-1.7 1.4-2 2-2.5 1.6-1.6 2-2 2.8-2.6 3.2-2.7 4.7-3.8 9.8-7.6 5.9-5 4-3.2 1.8-1.5 2.2-2.1 1.3-1.7 1.4-2 1.3-2.2 1.1-2.7 1.2-3.3.5-2.4.3-2.9v-4l-.4-3-.5-2.6-1-3.7L65-220l-.7-1.4-1.2-1.9-3.8-5.6-.6-1-.2-.6-.2-.1-.1-.4v-.8l.6-2.3 1-2.4 1.2-2.6 1.3-2.4 1.6-2.4L65-246l1.4-1.8 3-3.2 2.3-2.1 2.3-2 2.3-1.5 2.3-1.4 2.1-1 2.1-1 3.7-1 2.4-.3h2.3l2.2.2 1.6.3 1.4.5 2 .8 8 3.8 4.3 2.2 3.7 2.2 2.5 1.7 5.9 4.1 2.2 1.6 3.1 1.9 5 2.7 2.5 1.7 1.3 1 1.4 1.1 2.4 2.4 1.2 1.4 1.6 1.9 3 3.7 3.2 4.6 2.5 3.6 3.3 5.2 1.2 1.7 1.2 1.5 1.3 1 1.2.6.7.2.6.1 1 .1h1l1.9-.5 3.7-1.4.7-.2 1-.2h1.5l1.5.5 1.3.5 1 .7 1.3.7 1.3 1 1.3 1.1 2.4 2.3 2 2.1 2.2 2.7 2.7 3.7 2.2 3.5.6 1.2.8 1.8.5 1.5.2 1.5v1.6l-.5 2.1-.5 2-.7 2-2.2 6-1.2 3.6-.6 2.7-.5 3.5-.2 1.7-.2 3v5.1l.4 2.4.4 3 .6 2.7.7 3.2 1.3 4.7 1 3.3.4 1 .3.3"/></defs><g clip-path="url(#p72277c0498)"><use xlink:href="#mbc01951f21" y="280.5" fill="#f4f4e2" stroke="#f4f4e2"/></g></g></g></g><defs><clipPath id="p72277c0498"><path d="M7.2 7.2h195.6v266.1H7.2z"/></clipPath></defs></svg>