<svg xmlns="http://www.w3.org/2000/svg" xmlns:xlink="http://www.w3.org/1999/xlink" width="292.9" height="374" viewBox="0 0 219.7 280.5"><defs><style>*{stroke-linejoin:round;stroke-linecap:butt}</style></defs><g id="figure_1"><path id="patch_1" fill="none" d="M0 280.5h219.7V0H0z"/><g id="axes_1"><g id="PatchCollection_1"><defs><path id="m43eaf09150" stroke="#f4f4e2" d="m187.6-107.5-.2 5.2v3l.4 2 .3 1.5.6 1.6.7 1.5.8 1.5 1 1.6.6.9 1.6 2 3.4 3.9 1.7 2 2 2.8.7 1.1 1 1.6.5 1.3.2.8.2 1v1.3l-.3.8-.3.8-1 1.3-.7.8-1 1-1.3 1.2-2 1.5-1.8 1.1L192-61l-6 2.9-2.3 1.3-.9.6-.7.5-1 1-.8.8-.7.9-.6 1.1-.2.6-.2.8v2.2l.6 2.8 1.1 4.9.8 4.2.5 3.7.2 2.6v.8l-.5-.1h-1l-4.9-.2-5.6-.5h-1.2l-1.5.1-2 .3-5.2 1-6.6 1-2.7.6-1.9.5-3 .8-1.5.4-1.7.7-1.4.6-1.4.9-.7.5-1.8 1.7-.8.7-1 .5-1.1.4-1.2.1-1-.2-1-.3-.7-.5-.7-.5-1.4-1.2-5.3-5.2-2.6-2.3-1.6-1.2-2.6-1.8-2.2-1.7-1.9-1.2-1.7-.8-1.7-.5-1.2-.2H105l-1 .2-2.4.8-10.4 3.8-1.4.4-1.2.3h-1v-.3l-.3-.5-1-1.2-1.4-1.4-1.4-1.3-4.1-3.4-8.3-6.3-1.8-1.4-1.4-1.3-1.3-1.3-1.1-1.3-1.1-1.4-1.4-1.9-1.2-1.9-1.2-2-1.5-3-1-2.3-.9-2.3-1.8-5-2.9-9.6L52-82l-.7-1.7-.7-1.4-1.1-1.8-3-3.6-2.2-3.1-1-1.6-.7-1.5-.3-.8-.2-1-.1-1.6v-1.5l.6-4.1.2-3v-2.3l-.3-5.2v-1.8l.2-1.8.3-1.1.2-1 .7-1.7 1-2 1-1.6 6.3-10.7 1.4-2.8.6-1.8.5-1.3.6-2.7.2-1 .2-1.6v-5.8l-.2-2-.4-1.9-.5-2-.7-1.9-1.2-2.6-1.7-3-1.7-2.6-1.7-2-2.2-2.7-2.5-2.5-5-4.9-3-3-3-3.3-2.4-2.8-4-5.2-4.2-5.7-3.2-4.8-1.3-2.2-.3-.6 3.8-2.2 1.4-1 1.2-1 .7-.8.6-.7 2-2.6 1-1.3.3-1 .2-.8v-5.3l.1-1.5.2-1.9.5-2.3.2-.7.4-1 .4-1 .4-.5.7-.7 1.3-1.1 1.8-1.2 4.8-2.9 2-1.4 2-1.5 1.6-1.7 1.2-1.2 2-1.6 1.4-1 2.5-1.6 2.1-1.3 2.5-1.3 1.3-.6 2-.8 2-.5 1.6-.3 1.5-.2 3.5-.2 2.6-.2 2.4-.3 3.2-.6 3-.8 4.4-1.7.6-.2h.3l-.2.4-.5 1.7-.6 2.6-.3 1.5-.2 1.5-.3 2.3-.1 2.8v4l.7 14.7.3 3.2.3 1.8.5 2.4.7 2.6.4 1.3 1 2.8 3.8 9.3 4.9 12.5 1.6 3.9 1.5 3.5 2.3 4.4 1.5 2.5 2 3.1 2 2.7 2 2.5 2.5 3 2.4 2.4 17.8 17.2 2.2 2 2.6 2.2 2.8 2.2 1.4 1 3.2 2.1 3.5 2.1 9.2 5.5 3.9 2.4 2 1.3 4.1 3.1 8.1 6.3 14.4 10.9"/></defs><g clip-path="url(#p0da924993f)"><use xlink:href="#m43eaf09150" y="280.5" fill="#f4f4e2" stroke="#f4f4e2"/></g></g></g></g><defs><clipPath id="p0da924993f"><path d="M7.2 7.2h205.3v266.1H7.2z"/></clipPath></defs></svg>