<svg xmlns="http://www.w3.org/2000/svg" xmlns:xlink="http://www.w3.org/1999/xlink" width="429.8" height="374" viewBox="0 0 322.4 280.5"><defs><style>*{stroke-linejoin:round;stroke-linecap:butt}</style></defs><g id="figure_1"><path id="patch_1" fill="none" d="M0 280.5h322.4V0H0z"/><g id="axes_1"><g id="PatchCollection_1"><defs><path id="m435d54e055" stroke="#f4f4e2" d="M152-261v.6l.4 1.4.5 1.3.5 1.2.7 1.3.7 1.2.8 1.1 1 1.5 1.4 1.5 1.3 1.4.8.7 1.7 1 .8.5 1 .4 1.1.3 1.3.2 1.6.1 2.2-.1 1.7-.3 1.2-.3 7-2.1 1.7-.5 1.6-.3 2.2-.2h2.6l1.6.4 1.2.3 1 .4 5.6 2.6 8 2.9 2.2 1 2.1 1.3 1.2.9 1.6 1.4 4.2 4.2 2.4 2.3 1.5 1.2 2.6 2 1.6.8 1.7.7 2.1.3h2.2l3-.3h2l2 .5 2 .7 3 1.2 2.2.6 6.2 1.3 5.8 1.8 3.2 1 3.5.9 7.5 1.8 8 1.8 22.2 4.6-.6.5-1.4 1.3-1.4 1.7-.9 1.2-2 2.9-5 7.6-7 9.8-1.2 1.6-1 1.8-.5 1-.3 1-.4 1.3-.2 1.4v1.3l.3 1.5.5 1.4 1 1.8.5.8.8 1 3.7 3.8 1.5 1.7 1.8 2.4.7 1 .7 1.3.4.8.4 1.4.3 1.8v2.1l-.2 1.5-.4 1.5-.7 2.3-1.1 2.7-2.9 5.8-.6 1.9-.3 1.3-.3 2-.1 2.7.3 10v1.3l-.2 3.2-.6 3.9-.4 1.6-.4 1.3-.7 1.6-.7 1.5-.8 1.3-.8 1.2-1.8 2.4-4.4 5-1.4 1.9-.6 1-.5 1-.5 1.8v2.3l.3 1 1 4.8.4 1.6.2 1.7v4l-.2 1.3-.2.7-.6 1.4-1.5 3-.5 1.5v1.4l.5 1.3.7 1.2 1.1 1 1.5 1 2.8 1.6 1.7 1 2 1.5 1 1 1 1 1.2 1.3 1.3 1.5 1.5 2.2 3.8 5.7 1 1.6h-.2l-.8.7-9.7 8-5.6 4.5-4 2.9-4 2.6-1.6 1-2.6 1.4-2.7 1.3-1.8.7-1.8.6-2.2.6-1.7.2-1.8.2h-1.5l-2-.2-1.6-.3-1.4-.3-1.7-.6-1.3-.5-6.1-2.8-1.9-.7-1.6-.6-2.4-.6-1.9-.5-2-.3-2.1-.2H220l-1.8.3-1.7.2-4.1 1-8.2 2.2-1.8.5-1.5.3-1.8.1H198l-.7-.1-1.3-.3-1.7-.6-3.1-1.1-1.4-.5-2.8-.7-7.4-1.6-3.3-.9-2.2-.7-1-.5-1.6-.9-.7-.4-.7-.6-.8-.8-.8-.9-1-1.4-.7-1.3-.8-1.7-.5-1.8-.4-1.5-.3-2.5-.3-1.1-.3-.5-.5-.6-.6-.5-.5-.2-.7-.3-1.7-.4-1.6-.2-1.5-.1-2.7-.1h-3.7l-9.9.3H138l-1.4-.3-2.7-.6-3.2-1-3-1.1-6.5-2.8-2.3-1-2.6-.8-2.3-.6-2.8-.5-2.4-.4-2.3-.3-3-.2H100l-3.5.4-2.5.4-2.4.6-2.8 1-2.4 1.1-1.5 1-1.2 1-1 1-1 1-1.5 2-1.1 2.4-2.7 6.8-.7 1.6-1.3 2.6-.5 1-1 1.2-.6.8-.8.6-.8.5-.4.2-1.3.3-.8.1h-1l-1.5-.1-1-.2-2-.5-2-.7-2.8-1.3-2.4-1.2-4.8-2.7-1-.5h-.4v-.1l-.4-.1-1.3-.2H36.1l-1-.2-.5-.2-.7-.3-.8-.6-.5-.6-.2-.6v-.8l.3-.7.5-.7 2.7-3 .6-.8.5-.8.3-.7.1-.5v-1.4l-.2-1.5-.5-1.6-.6-1.6-3-6.6-.7-1.7-.5-1.6-.3-1.6v-2l.2-.7.2-.8.6-1.1.7-1 1.5-2 .5-.7.5-1 .1-.5v-1.9l-.4-.8-.4-1-1-1.4-1-1.2-1.6-1.3-1.3-.8-1.5-.8-1.6-.7-4.6-2-1.2-.5-.1-.2h.2l.4-.7v-.4l.5-2 .2-2.7.2-5.7.1-2.2.6-4 1.4-7 .3-2.2.3-3 .1-2.2v-2.2l-.5-6.1v-2l.3-1.1.2-.7.4-.7.4-.6.6-.6.8-.6 1.3-.7 2-.7 7.5-2.5 3.5-1.3 4.8-2 10.6-4.8 4-2 2.5-1.6 2-1.3 1-.8 1.3-1.1 1-1.1 1.8-1.8 1.3-1.6 6.4-8.5 1.7-2.5 2.6-4 2-3.1 1.5-2.6.8-1.5.8-1.5.6-1.6.6-2 .7-2.7.8-5 .5-2.2.5-2.2.6-1.6.2-.5.8-1.3.6-.7 1.1-1.2 1.6-1.2 1.4-.9 1.3-.6 3.8-1.9 2.5-1 1-.3 1.7-.4 1.4-.2 1-.1h4.2l4 .6 7.3 1.3 3 .3h1.8l1.5-.1.9-.2 1-.3 1.5-.7.7-.6.6-.6.7-.7.5-.7.5-.8.6-1.6.4-1.7v-.8l.1-1.5v-1.5l-.2-1.3-.3-1.5-1.3-5-.5-2.5-.1-1.7v-1.8l.4-1.3 1.3-4.4.6-2.3.8-4.2 1.1-6.8.5-2 .5-1.6.8-1.7.6-.9.4-.6.8-.8.7-.7 1-.7.9-.5 1-.5.9-.3 1.1-.3h.5l.4.1"/></defs><g clip-path="url(#p79c5c00ec7)"><use xlink:href="#m435d54e055" y="280.5" fill="#f4f4e2" stroke="#f4f4e2"/></g></g></g></g><defs><clipPath id="p79c5c00ec7"><path d="M7.2 7.2h308v266.1H7.2z"/></clipPath></defs></svg>