<svg xmlns="http://www.w3.org/2000/svg" xmlns:xlink="http://www.w3.org/1999/xlink" width="292.4" height="374" viewBox="0 0 219.3 280.5"><defs><style>*{stroke-linejoin:round;stroke-linecap:butt}</style></defs><g id="figure_1"><path id="patch_1" fill="none" d="M0 280.5h219.3V0H0z"/><g id="axes_1"><g id="PatchCollection_1"><defs><path id="m5fda078d85" stroke="#f4f4e2" d="m191.4-62.5.5.2.9.7 2.6 2.2 1.5 1.3 1.1 1.2 1.2 1.3 1.1 1.4 1 1.5.7 1.4.5 1.3.2.7v2.9l-.2.8-.2.6-.5 1.3-.6 1-.5.9-.5.7-1 1.4-1 1.1-1.1 1.1-1.2 1-.8.5-1.2.8-.7.3-.6.2-1.2.2h-.8l-1.2-.1-2-.7-1.3-.7-3.4-1.9-2.1-.9-1.2-.4-1.3-.1h-1.4l-.9.2-1.9.5-7.2 2.9-2.7.9-2 .5-2.2.4h-4.2l-2-.5-1.1-.3-1-.4-1.2-.7-1-.8-.7-.8-.7-1-.7-1.1-2.6-4.6-.8-1.2-.8-1-.5-.4-.7-.6-1.2-.7-1-.5-.7-.2-1.4-.3h-2.2l-1.6.2-1 .3-1.8.7-1.7.9-1.8 1-1.9 1.4-1.3 1-1.4 1.3-1 1.1-1.1 1.3-1.7 2.2-1.7 2.3-1.3 2-1.2 2-2.3 4.1-.6 1-1.2 1.7-1.3 1.5-.8.8-1 .8-.8.7-1.2.7-.7.3-.8.2-1 .2h-1.8l-.9-.3-.7-.2-1.6-.7-3.6-1.7-2.5-1.2-2-.7-2.2-.5-2.2-.2H83l-1.3.2-1 .3-.6.2-.3.3-.2.1-1-.2-1.5-.4-1.5-.6-2.2-1-5.6-3-4.2-2-3-1.3-4-1.7L53-35l-3.3-.9-3.3-.7-5.3-1-1.8-.4-1-.3-1.3-.6-.5-.3-.9-.7-.6-.7-.9-1.1-.5-1-.1-.6-.3-1v-2.2l.4-1.4.6-1.8 1.3-3 2.8-6.3 1.2-3 1-3 .7-2.4.4-2.4v-4.9l-.2-2.3-.4-2.2-.5-1.6-.4-.8-.6-1.2-.9-1.3-1.3-1.7L29-96l-7.7-9.8-1.7-2-1.9-2.2-1-1-.2-.1.1-.3 1-1.4 1-1.1 1.4-1.2 1.7-1 1.8-1.2 5.8-3 2-1.1 1.7-1.2 1.6-1.1 6.6-5.8L43-131l1.5-1.5 1.5-1.6 1.7-2.2 2.3-3.2 1.5-2.4 5.4-9.2L60-157l2.7-4.7.9-2 .3-1.1.8-4 .4-1.3.6-1.5.5-1.1.7-1.1 2-3.2 2.8-5 1-1.4 1-1.1.8-.7.6-.5h.4L80-190l5.5-4.8 5.3-4.5 3.5-2.9 3.5-2.7 3.3-2.4 9.6-6.6 1.9-1.3 3-2.3 4-3.4 4.1-3.5 6.4-5.7 24.2-21.8 6.8-6 4-3.4-.2 3L163-241l-.3 4-.2 2.9v19.4l-.2 16.8v4.1l.2 2.8.6 4.6 1.1 7 .4 4 .1 2.4v5.1l-.3 6.7v18l-.5 16.7-.1 6.8v4.3l.2 3.5.2 3.3.4 3.2.5 3.7.6 2.6.8 3.2 1.2 3.7 1.2 3.4 1.4 3.2 2.1 4.1 1.5 2.7 1.3 2 1.4 2 1.6 2 1.5 1.5 2.3 2 1.8 1.5 1.8 1.4 1.8 1.2 3.9 2.6"/></defs><g clip-path="url(#p3e156a0020)"><use xlink:href="#m5fda078d85" y="280.5" fill="#f4f4e2" stroke="#f4f4e2"/></g></g></g></g><defs><clipPath id="p3e156a0020"><path d="M7.2 7.2h204.9v266.1H7.2z"/></clipPath></defs></svg>