<svg xmlns="http://www.w3.org/2000/svg" xmlns:xlink="http://www.w3.org/1999/xlink" width="219.9" height="374" viewBox="0 0 164.9 280.5"><defs><style>*{stroke-linejoin:round;stroke-linecap:butt}</style></defs><g id="figure_1"><path id="patch_1" fill="none" d="M0 280.5h165V0H0z"/><g id="axes_1"><g id="PatchCollection_1"><defs><path id="m6c90cd2f6d" stroke="#f4f4e2" d="M134-142.2h-.9l-.8.1-1 .2-1 .3-.9.4-1 .5-.7.6-.6.8-.4 1-.4.8-.2 1-.2 1-.1 1-.1.8v1.6l.3.6.3.8.5.8.3.5.5.6.5.8.9 1 .3.4.2.2.4.8.3 1 .3 1 .2 1 .2 1 .1 1 .3 2.2.2 2.1.2 2 .3 2 .3 3 .1 2v4.5l.2.5v.2l.3.7.7 1.5.6 1.7 2.6 7.6.6 1.7.3.9.4.8.8 1.9 1 2 .2.8.3.8v1.5l-.2.7-.4.4-.5.5-.6.3-1.3.7-.5.4-.4.4-.2.2-.1.5v2.1l.3 1 .1.5.2.5.4.7.4.6.4.6.4.4.3.3.3.1.3.2h.3l.2.1h2l1.7-.4h1l.4.2.4.2.3.3.4.3.5.7.4.8.3.5.2.6.3.7.3.8.4 1.5.3 1 .3 1.4.1.8.1.7h-.5l-.4-.1H147l-.4.2-1 .3-.9.5-.9.5-.6.5-.6.4-.7.5-.9.8-1.7 1.5-4 3.7-1.4 1.2-1.2 1-1.4 1.1-1 .9-1.4 1-1.2.9-1.7 1-1.4 1-1.7 1.1-2.7 1.7-4.5 2.7-8 4.8-1.7 1-1.4 1-1.8 1.2-4.3 3-1.6 1.2-.9.5-.8.6-.9.4-1 .6-.7.2-.6.2-.8.2-1.2.2-3 .4-.8.2-1 .2-2.7.8-.8.2H81l-.6.1-.8.1H78l-.3.1h-.1l-.2-.2-.5-.5-.6-.7-.7-1-.6-.6-.6-.6-.9-.7-.3-.3-.2-.4-.2-.4-.2-.4-.4-1.2-.4-1.1-.4-1-.3-.5-.3-.5-.3-.4-.2-.3-.2-.2-.2-.1-.2-.2H69l-2.3.2h-1.5l-1.8.1H60l-.7-.1-.9-.2-.7-.2-.5-.4-.4-.3-.2-.5-.1-.5-.1-.6V-36l.2-.8.1-.7.3-.7.1-.4.3-.5.4-.5.7-1 .5-.7.4-.8.3-.5.1-.4.6-1.8.1-.5.2-.4.2-.4.2-.4.3-.3 1-1 .2-.3.2-.3v-.5l-.2-.2h-.3l-1-.4-.2-.1h-.4l-1-.2-.5-.1-.4-.2-.4-.2-.5-.3-.3-.5-.2-.4v-.2l-.1-.5v-1.5l.2-1.3v-1.5l-.2-.6-.1-.6-.2-.5-.2-.8-1-1.9-1-2.7-.4-.8-.3-.7-.3-.5-.3-.5-.5-.7-.4-.4-.4-.3-.7-.4-1.2-.7-1.4-.8-1.5-.7-1.1-.5-.9-.4-1-.3-.6-.2-1.4-.4-1-.2-1-.1-1-.2h-1l-.9-.1h-2.7l-1.2.2-2.4.2-1 .1-1.1.2-1 .2-1 .3-1 .5-.8.5L24-69l-.7.6-.8.5-.8.5-1.4 1-.6.3h-.2v-1.2l-.2-1-.2-.7-.2-1-.4-1.2-.3-1-.4-1-.4-1-.4-.8-.4-.7-1.6-2.9-.4-1-.3-.8v-.2l-.1-.5v-1.8l.1-1 .1-.7.2-.8.3-.9.2-.4.2-.7.4-.8 1-1.9.4-1 .6-1.3 1-2.6.4-1 .4-.8.6-1.1 1-1.6.3-.6 1-1 .4-.7.3-.7.1-.3v-.3l.1-.5v-1.2l-.2-1.1-.3-1.6-.3-1.3-.3-1.1-1.4-4.8-.5-2-.4-1.7-.5-2.5-.3-1.1-.3-1-.6-2.3-.4-1.5-.1-.7-.2-.7v-2.9l.1-1 .2-1 .2-1 .6-2.8 1.1-4.6.4-1.6.4-2.4.2-1 .3-2 .2-1.9v-1.1l.1-1.8v-6.8l.1-2.3v-2.4l.3-3.6.1-2.5.1-1.2.2-1.3.1-1.3.2-1.3.2-.7.2-1.2.3-1.2.5-2.2.5-1.8.3-.3 1.2-1.5 3.2-4L48-213.4l7-9.1 10.7-14 19.4-24.7h.2l.6.1 4 .7 1.3.2 1.2.2 1.2.4 1.2.3 1.1.5 1.2.4 1 .5 1 .5.9.6.8.5.9.6.8.7.7.6.9.8.7.8.8.9.7.9.6.9.6.9.5.9.4.9.5 1 .4.9.3.9.3.9.3.9.3 1 .2.9.2.9.2 1 .1.8.1 1 .1.9v4.7l-.1 2-.2 1v1l-.4 2-.2 1-.5 2-.5 2-.6 2.3-.3 1-.3 1.2-.1.9-.1 1v3.3l.2 1 .2.9.4 1.8.2 1 .6 2 .6 1.8.3 1 .4.9.4.9.4.8.5 1 .5.9.6.8.6.9.7.8.7.8.7.8.8.7.8.7.7.6.8.5.8.5.6.3.6.4.9.4.9.4 1.8.7 1.9.7 2 .6 1 .2 2 .5 1.9.5 3.9.8.9.2.8.3.9.3.8.3 1 .4 1 .6.7.5.8.5.8.7.7.6.7.7.6.7.7.8.6.8.5 1 .5.9.5 1 .3 1 .3 1 .2 1v3.5l-.2 1-.2 1-.3 1-.3.7-.4.8-.5 1-.6 1-.4.8-.5.6-.7 1-.8.8-.7.6-2.3 2.3-.7.8-1.2 1.3-1.3 1.4-.6.8-.6.7-.7 1-.6.8-.6.9-1 1.6-.3.7-.7 1.3-.4 1-.2.3"/></defs><g clip-path="url(#pfb3ccbd8ac)"><use xlink:href="#m6c90cd2f6d" y="280.5" fill="#f4f4e2" stroke="#f4f4e2"/></g></g></g></g><defs><clipPath id="pfb3ccbd8ac"><path d="M7.2 7.2h150.5v266.1H7.2z"/></clipPath></defs></svg>