<svg xmlns="http://www.w3.org/2000/svg" xmlns:xlink="http://www.w3.org/1999/xlink" width="350.9" height="374" viewBox="0 0 263.2 280.5"><defs><style>*{stroke-linejoin:round;stroke-linecap:butt}</style></defs><g id="figure_1"><path id="patch_1" fill="none" d="M0 280.5h263.2V0H0z"/><g id="axes_1"><g id="PatchCollection_1"><defs><path id="m70cfcbdd8f" stroke="#f4f4e2" d="m241.6-216.9-.2.3-.4.7-.6 1.5-.6 1.7-.7 2.2-.8 2.8-.5 2.7-.2 1.6-.2 1.6v3.4l.2 1.5.6 1.7.6 1.1.7 1.2 3 4.5.6 1 .8 1.7.5 1.3.3 1.8v1.3l-.3 1-.2.8-.5 1.4-.7 1.5-1 1.9-1.1 2-1.3 2-1.3 1.8-1.4 1.6-2 2.2-1.3 1.2-3.9 3.3-1.7 1.6-1.5 1.7-1.5 2-.8 1.7-.5 1.8-.4 2v1l-.1.8.1 2.3.3 1.7.7 1.9.8 1.6.9 1.3 2.5 3.2 1.2 1.5 1 1.6.8 1.4.7 1.5.8 1.7 2.7 6.7.8 2.2.7 2 .4 2.2.3 2.4.3 8.6v3.5l-.1 1.4-.3 2.1-.4 1.7-1.2 3.6-.7 2-1 1.8-1 1.8-1.3 1.8-1 1-1 1-1.7 1.5-1.3 1-2.3 1.8-2.4 1.6-1.7 1-1.6 1-1.1.5-1.7.8-1.4.5-3.5 1-3.6 1-2.4.4-1.6.3-2.6.3h-4.8L195-70l-3.4-.6-1.9-.2h-1.4l-1.4-.1h-1.5l-3 .3-1.8.3-1.6.3-3.6 1-1.6.4-1.4.6-1.3.9-1 1-1 1.2-.8 1.3-1.3 2.8-1.2 3-.6 1.8-2.3 8.4-2.7 9.7-4.4 15.2-.8 2.3v.2l-.6 1-.5-.6-3.2-2.3-8.7-5.6-2-1.5-1.3-1-1.9-1.6-1.9-2-1.7-2-1.4-1.8-1.3-1.9-3.4-5.7-1.5-2.1-1.5-2-1.6-2-3.2-3.5-2-2-2-1.8-2.6-2.1-6.4-4.3-2-1.5-5.4-4.4-2-1.4-5.3-3.2-5.8-3.7-2.2-1.4-6.6-3.8-5-3-2-1.1-2.1-1-2.2-.8-2-.6-2.4-.7-1.8-.4-2.5-.4-2-.2h-2l-1.4.1-2.5.3-1.6.3-3 .6-5.7 1.4-1.8.6-3 1-1.6-6-.3-1.4-.2-1.2-.1-1.2-.1-2.3.1-6.6v-1.1l-.1-1.7-.3-2.1-1-5-1-5.4-.4-2.4-.6-4.9-.3-1.9-.5-1.7-.7-1.3-.7-1.1-.4-.6-2.7-3.2-.8-1-.7-1-.6-1-.5-1-.4-1-.5-1.6-.3-1.1-.4-2.5-.2-2.5v-3.6h.2l.6-.3.8-.8 6-6.4 2-1.8 1.9-2 2.6-2.5 5.4-4.9 2.2-2.2 1.3-1.4 2.3-2.7.9-1.2 1.4-2 1-1.5 2-3.5 1.3-2 .6-.7.5-.6 1.1-1 1.2-.9 7.8-4.5 1.1-.8 4.4-3 2-1.3 1.9-1 10.3-5.5 2.1-1.2 3.5-2 1.3-.9 2-1.4 1.2-1 1.3-1 2-1.8 1-1.2 1.4-1.4 2.2-2.6 4.3-5.5 3.3-4.4 1.6-2.3 4.4-6.5 4.1-6.5 1.3-1.9 1.2-1.5 1-1 1-.9 1.1-.5 1.2-.4h1.8l1 .3.7.4.8.6.6 1 .8 1.4.4 1.3.6 2.4.5 1.2.6 1 .9.7 1 .5 1.2.4 1.4.2h2l5.4-.2 5-.4 2.6-.1 1.5-.2 1.1-.3 1.1-.3.8-.3.7-.4 1.6-1 1.6-1.3 1.5-1.4 2.3-2.3 1.4-1.6 1.5-2.1 1.4-1.7 1.1-1.2.4-.3 1-.7 1.2-.4 1.4-.3h1.5l1.6.1 1.2.2 1.3.3 1.7.6 1.7.8 1.6 1 1.1.8 1.4 1 1.3 1.3.7.7 3 4 4.4 5.4 1.1 1.4 1 1.7.7 1.5 1.3 3 .6 1.2 2.4 4.4 1.6 3.1 1 1.9.8 1 .9 1.1 1.5 1.5 2 1.6 1.8 1.3 1.4.8 1.4.8 1.7.8 1.6.7 1.7.5 1.7.4 2.2.3 2.3.1h7.2l2.8-.3 3.4-.6 1.5-.1h.7"/></defs><g clip-path="url(#p1ba476ead7)"><use xlink:href="#m70cfcbdd8f" y="280.5" fill="#f4f4e2" stroke="#f4f4e2"/></g></g></g></g><defs><clipPath id="p1ba476ead7"><path d="M7.2 7.2H256v266.1H7.2z"/></clipPath></defs></svg>