<svg xmlns="http://www.w3.org/2000/svg" xmlns:xlink="http://www.w3.org/1999/xlink" width="437.7" height="374" viewBox="0 0 328.3 280.5"><defs><style>*{stroke-linejoin:round;stroke-linecap:butt}</style></defs><g id="figure_1"><path id="patch_1" fill="none" d="M0 280.5h328.3V0H0z"/><g id="axes_1"><g id="PatchCollection_1"><defs><path id="m8af3845dc0" stroke="#f4f4e2" d="m277.3-117.4.3.2.3.4.5 1.1 1.3 3.7.7 1.7.5 1 .3.5.5.5.5.6.7.8 1.1.8 2.9 2 2 1.5 5 3.7 1.8 1.4 1.5 1.3.7.8.6.7.4.7.5 1 .3 1.1.3 1.1.1 1.1.2 1.5.1 1.6v9.3l.3 3 .2 1.3.2 1.5.6 2.6.5 1.9.4 1 .3 1 .8 2 2.1 4.9.6 1.6.2.8.1.7.1 1v1l-.1.6-.2.6-.3.9-.3.6-.8 1-2.2 2.9-1 1.3-.8.7-1.2 1-1.5 1.3-1 1-.6.5-.5.7-.4.9-.3.8-.8 2.7-.5 1.9-.4 1-.5 1-.5 1-.7 1-.9 1-.8.8-6.1 5.5-.9.6-1 .6-1.3.5-1 .3-1 .2-1.5.2-2 .2-2.6.3-.6.1v-.4l-.2-.2-.3-.2-.4-.4-.8-.4-.4-.2-1-.4-1-.2-1.2-.2-1-.2-4.2-.4-1.2-.1-1.1-.3-.9-.2-1.6-.5-1.5-.6-1-.5-1.6-.8-1.6-1-1.2-1-1.6-1.2-1.4-1.3-1.4-1.3-3.3-3.2-1.4-1.3-.9-.7-.9-.6-.6-.3-.5-.3-1.3-.4-6-1.4-.9-.2-1.4-.1h-2l-1 .1-1.5.3-1.6.3-4.4 1.1-3.9.9-3.2.8-1.6.3-1.4.1-3 .1H203l-1-.2-.8-.1-2.9-.8-1.2-.2h-1.9l-.6.2-1.3.3-1 .4-.9.4-1.1.6-1.8 1-3.3 2.3-1.3 1-1.7 1-1.6.8-.7.3-1.1.4-1.8.6-1.5.3-2.6.4-1.6.2h-3.8l-2-.2-4-.6-1.9-.2-4-.3-5.1-.2h-4.2l-5.5.3-.2-.3-1.2-2.5-1-2.4-.5-1.2-.2-.8-.3-1.2-.2-1-.1-1.9v-3.5l.4-4 .1-1.4v-1.5l-.2-.8-.1-.5-.2-.7-.4-.7-.4-.5-.3-.5-.6-.5-.5-.5-.7-.4-.7-.3-.5-.2-1-.2-1.1-.1h-2.3l-1.3.1-2.9.4-7.6 1.3-4.4.6-1.9.2-3.1.2-2 .1h-4.3l-1.8-.1-1.7-.2-1.6-.2-3.3-.6-8-1.6-3.5-.5-1.9-.3-2.5-.2h-3.5l-1.4.3-1 .3-1.2.6-.5.4-.4.4-.5.6-.3.4-.6 1-1 2-.7 1.5-1.3 3.1-.7 1.6-.6.9-.4.5-.4.3-.5.4-.3.2-.7.3-.8.3-.7.1-1.5.2h-2L54-41h-7.6v-.1l-.3-.2-.7-.3-7.4-3-2.3-1-2.1-1-1.1-.6-1.7-1-1.7-1-1.4-1.1-.9-.8-.8-.8-1.2-1.5-1.3-1.7-.6-.9-.4-.7-.6-1.2-.3-1-.1-.8v-1.8l.3-1.4.5-1.7.6-1.5.6-1.2.5-1 .8-1.3.5-.6.7-1 2-2.4 1.1-1.5 1-1.6.5-.9.3-.9.4-1 .4-1.2.2-1 .6-3.4.5-2.1 1.3-5.2.6-2 .6-2 .7-1.7.5-1 .6-1.1.5-.8.6-1 1-1.2 1.5-2 2.2-2.2 2.6-2.6 1.7-1.5 2.4-2 2-1.6 3.3-2.3 1.2-1 1-.9 1.4-1.3 1-1.2 1-1.1.8-1 .9-1.5.7-1.6.6-1.6.3-1 .3-1.3.2-1.4.1-2 .1-2.6v-3.2l-.3-3.4-.2-1.7-.2-1.1-.3-1.2-.4-1.2-.3-.6-.4-.7-.4-.6-.4-.4-.9-1-3-2.6-.7-.7-.5-.6-.4-.7-.3-1.2-.1-.7v-.9l.1-1 .1-1 .4-1.7.5-1.8.5-1.4.6-1.3.4-.9.5-.7.7-1L61-172l.4-.6.4-.9 1.4-3.3 1.4-3.2.7-1.8.5-2 .5-2 .4-2 .4-2.7.7-4.2.1-1.3.2-3.1.2-1 .1-1 .3-1 .4-.7.4-.8 1.5-1.8.4-.7.5-1 .6-1.5.4-1.3.3-1.5.2-1.5.1-2.4v-2l-.1-2.2-.2-1.3-.2-1.2-.2-1.2-.6-2-.4-1-.4-1-.8-1.4-.8-1.1-3.5-4.7-1.8-2.7-2.4-3.9-.4-.7-.5-1-.2-.7-.3-1-.3-1.9-.7-5.5-.2-1.5v-1l.2-.5v-.3l.3-.4.2-.2.5-.3.4-.2.5-.3 1-.3 4.7-1.4 1.1-.3 1.5-.2 1.5-.3 7.2-1 3.3-.4 3.1-.4 3.9-.4h1.3l1.3-.1h2.1l2.2.2 2.1.2 2.1.4 2.1.4 2.4.5 2 .5 1.9.5 2.1.7 1.4.5 6.2 2.5 4.3 1.6 4.4 1.5 11.6 4 1.7.4 1.6.5 1.7.4 6.8 1.3 1.5.4 1.2.4.5.2.7.5.3.3.3.3.3.5v.3l.2.5v.4l.1 1.1v2l-.4 3-.3 2-.3 1.5-.6 2-.6 1.5-.4 1-.6 1.1-.8 1.5-.5.8-.6.8-1.6 2-.5.6-.5.7-.2.5-.3.7v.4l-.1.4v.4l.2.3.2.3.3.3.5.4 1.3.8 3 1.5 2 1 1.3.8.9.7.8.7.6.6.5.7.5.7.4.8.3.7.3.8.2 1 1 5.7.6 4.6.2 1 .3 1 .3 1 .3.7.4.8.5.6.7.6.7.4 3.3 1.4 1 .5 1 .3 1.6.2h.8l.9-.3 1.2-.3.9-.3 2-.8 6.3-2.8 1.2-.4 1.5-.5 1.3-.4 1.4-.4 1.4-.2 1.8-.2h2.7l.7.1.6.2.5.2.4.4.2.3v.5l-.1.4-.2.6-.7 2-.6 1.7-1.4 4.5-.5 1.8-.4 1.6-.2 1.4v2.5l.1.6.2.7.2.6.5 1 .5.7 1 1 .8.6 1.4 1 4.7 2.6 7 4.4 2 1.1 4.3 2.5 1.8 1 1 .8 1 .8 1 .8 1 1 1 .9.9 1.1 2.5 3.2 1.2 1.3 1.1 1 .9.8.9.6 1.8 1 1.4.6 1.1.5 1 .3 1.7.4 1.2.3 5 .8 1.1.2 1.7.4 1 .3 1.2.4 1.7.7 1.3.6 1.6.8 1.4.9 2.4 1.4 1 .7 1 .8.6.5 1 1 3 2.7 3.2 3 1.8 1.9.8.9 2 2.3.6.7.7.7.8.7.7.5.8.5 1.2.7.3.1h.3"/></defs><g clip-path="url(#pfa5068396f)"><use xlink:href="#m8af3845dc0" y="280.5" fill="#f4f4e2" stroke="#f4f4e2"/></g></g></g></g><defs><clipPath id="pfa5068396f"><path d="M7.2 7.2h313.9v266.1H7.2z"/></clipPath></defs></svg>