<svg xmlns="http://www.w3.org/2000/svg" xmlns:xlink="http://www.w3.org/1999/xlink" width="189.8" height="374" viewBox="0 0 142.3 280.5"><defs><style>*{stroke-linejoin:round;stroke-linecap:butt}</style></defs><g id="figure_1"><path id="patch_1" fill="none" d="M0 280.5h142.3V0H0z"/><g id="axes_1"><g id="PatchCollection_1"><defs><path id="mb0a0133e8e" stroke="#f4f4e2" d="m123.2-79.2-.3.2-.4.4-3.6 3.5-1.5 1.4-1.4 1.1-1 .7-2 1.3-1.2.7-2.5 1.2-2.4 1-5.8 2.2-2.5 1.1-1.5.7-2.6 1.3-1.9 1.2-.6.4-1.2.8-.8.8-.6.8-.5.8-.2.5-.5 1.3-1.1 3.6-.3.8-.5.9-.6 1-.7 1-.7 1-2.8 3.4-.7 1-.7 1.1-.5 1.2-.3.7-.3 1-.7 4-.5 2-.4 1.3-.4 1.3-.8 1.8-.8 1.5-1 1.6-1.3 1.9-2.4 3.1-.6 1-.1.2v.1l-.1-.3-.2-3.8-.2-1-.1-1-.4-1.2-.5-.9-.5-.5-.5-.4-.6-.3-.7-.3-1.3-.3-1-.1-1.2-.2-3.8-.2h-5.4l-1.1.1-2 .3-1.3.3-4 .8-3.7 1-2.6 1-1.2.5-.9.4-3.3 1.9-.9.4-.7.2-.7.2-1.4.4-2.6.5-5 .8-1.1.1h-2.4l-2-.3-1.7-.3-1.9-.6.6-.6.6-.7 1.6-2 1.3-1.8 1-1.5.8-1.4.2-.6.6-1.7.3-1 .3-1.3.2-1.9.1-1.4v-2.7l-.2-4.6v-1l.2-2 .3-2 .9-3.3.7-2.2.4-1.2.5-1.2.7-1.4 1.6-2.5.8-1.5 2.4-4.8 1.3-2.2.7-1.1.7-.8.8-.7.8-.7 3.4-2.6 1-1 1-1.1.7-1.4.6-1.4.4-1.6.4-1.7 1-5.3.4-1.7.5-1.6.8-1.6.9-1.5.6-1.4.3-1.4v-.5l-.2-.5-.3-.8-.3-.8-.5-.8-.7-1-1.3-1.5-1.2-1.3-2-2-4.4-4.4-1.9-1.8-1.7-1.9-1.6-2-.8-1-.9-1.3-.5-.9-.9-1.6-1-2.2-.5-1.8-.5-1.8-.4-1.6-.3-1.5-.5-2.7-.4-2.9-.4-4.5-.4-5-.2-2.5v-7.6l.2-.4v-.6l.1-1-.1-2-.2-1.5-.3-1.8-.3-1.5-1.3-4.9-.4-2-1-6.9-.4-3.5-.5-8.7v-5.8l.3-1.6.3-1.3.2-.4.4-.8.6-.7 1-1.1 1.3-1.1 1-.8 5.2-3.8 5.2-4 1.7-1.2.8-.6 1.5-1 2.5-1.3 1-.6 1.3-.8.9-.7.3-.3.6-1 .5-.8 1-2.9 1.3-3.2.5-1 .4-.6.3-.3.4-.2.4-.4.4-.4.3-.4.3-.6.2-.4.1-.5v-.5l.1-.6v-3.8l.2-3.1.1-1.6v-.7l-.1-2v-1.4l.2-.7.2-.5.6-1 .8-1.3 1.1-1.2 2.4-2.5.6-.9.2-.5.4-1 .5-2.9.5-2.2h.2l.5.2 1 .4 1.4 1 1.2.8 1 .8 1.1 1 1 .9.7.8 1.6 1.9.8 1 1 1.4 1.3 2.1.9 1.6 1.4 2.5 4 7.7 1.3 2.6L79-232l1.3 2.2 1.4 1.8.6.8.7.9 1.6 1.8 1.6 1.4 4.3 3.9.9.8.7.8.6.7.4.6.3.6.2.6.1.5v1.4l-.2.9-.3.9-.8 1.5-.7 1.2-1.2 1.6-1 1.2-2.4 2.8-2 2.5-.8 1-.8 1.2-1.2 2-.5 1.1-.5 1-.5 1.6-.2.7-.4 1.7-.3 2v10.1l.1 3.2-.3 3.2-1 7.7-.9 9.3-.3 4.7-.4 5.2-.2 3.2-.1 3.8v4.2l-.1 2-.2 2.5-.6 5.1-.4 5.4-.5 3.6-.3 1.8-.4 2.3-.6 2.2-1.6 6-.5 1.9-.5 2.4-.2 1.2v3.7l.3 1.7.1.4.5 1 .6 1 .7.8 1 .8 1 .7.7.3 1 .3 1.3.2 1.3.1h1l1.3-.1 1.7-.2 1.9-.4 2.3-.6 2.1-.5 2.5-.8 3-1 3.5-1.5 1.5-.7 3.2-1.5 8.8-4.5 2.3-1.2 2.3-1 2.2-.9 1.7-.5 1.3-.4 2.7-.6 1.3-.3 1.1-.1h1.3l.4.2.3.3.3.9v1.1l-.2 1.5-.6 2-.3.9-3 8.4-1 3.4-.5 1.7-.6 2.2v1.4"/></defs><g clip-path="url(#pb7b3b2a38a)"><use xlink:href="#mb0a0133e8e" y="280.5" fill="#f4f4e2" stroke="#f4f4e2"/></g></g></g></g><defs><clipPath id="pb7b3b2a38a"><path d="M7.2 7.2h127.9v266.1H7.2z"/></clipPath></defs></svg>