<svg xmlns="http://www.w3.org/2000/svg" xmlns:xlink="http://www.w3.org/1999/xlink" width="257" height="374" viewBox="0 0 192.7 280.5"><defs><style>*{stroke-linejoin:round;stroke-linecap:butt}</style></defs><g id="figure_1"><path id="patch_1" fill="none" d="M0 280.5h192.7V0H0z"/><g id="axes_1"><g id="PatchCollection_1"><defs><path id="me9a1ae366a" stroke="#f4f4e2" d="M172.7-157.4v.7l.7 2.6 1.7 8.4 1.2 7 .8 4.9.2 2 .1 2v2.9l-.3 2-1.8 7.1-2.7 10-2.2 9.2-1 3-.7 1.8-1.2 2.1-.5.8-.6.8-1.8 2.2-1.2 1.1-1 .9-3.7 3-1 .9-1 1-.9 1.1-.5.8-.7 1.3-.6 1.5-.4 1.3-.8 2.6-.7 3.9-.8 5.5-.5 5-.4 4.5-.1 3.6v13.6l-.2 2-.6 2.3-.6 1.6-1.2 2.2-1 1.6-1.7 1.9-1.1 1-2.2 2-1.5 1-1.4.7-.8.3-1 .3-1 .1-1-.1-.6-.3-.6-.3-.8-.5-1.5-1.2-3.9-3.7-2-1.8-2.6-2-2.6-1.7-3.2-1.9-2-1-2.6-1-1.7-.6-1.7-.4-1.4-.2h-3.3l-1 .1-1.9.4-2.2.7-1.1.5-1.6.8-1 .7-1.4.9-.8.8-.2.3v-.2l-.3-.6-.6-.8-.6-.6-.8-.6-1.2-.8-2.2-1-7.1-2.3-1.7-.7-1.5-.8-.6-.5-.9-.9-.5-.7-.6-1-.5-1.3-.5-1.6-.3-2.1-.5-3.2-.5-2.6-.6-2.2-.7-2-1.1-2.4-1-1.9-1.2-1.9-2.2-3.2-1.1-1.8-.9-2.2-1.6-5.2-1.3-3.4-.7-1.5-.9-1.5-1-1.4-1.4-1.4-1.5-1.3-1.7-1.2-2.8-1.9-3-1.7-13.5-7.2-3.1-2-1.1-.4h-.8l-.8-.3-1-.7-1.5-.9-2.1-1.7-2.1-2-2-2.5-1.4-2.7-1.1-3.3-.8-3.6-.4-3.9-.3-7.8-.3-5.1v-5.1l.2-2.4.3-1.9.3-2 .7-3 1.1-3.7 1-2.3 1.2-2.7 1.4-2.5 1.6-2.3 1.9-2.3 1.6-1.6 1.8-1.4 1.2-.7 1.3-.6 3.8-1.7 1.9-1 3.7-2.2 2.4-1.2 3.8-2.2 1.4-1.1 2.7-2.3 3-2.3 1.3-1 1.3-1.3 1-1.2 1.2-2.2.5-1.1.9-2.2 1-3.4 1.2-5.3 2.1-10.7.6-3 .6-2.3.6-2 .9-2.5.8-2.2 1-2.4 1.4-3 .8-1.6 2-3.2 1-1.5 1.4-2 1.8-1.7 1-1 3-2.3 1.1-1 1.1-1.1 1.2-1.8 3-6 1-1.6.6-.6 1.7-1.8 2.8-2.1 1.8-1.3 1.2-.8.6-.2h.2l1.2.4 1.3.2 5.6.3 1.6.3 1.9.9 1.6 1.4 1.2 1.8.6 1.7.2.9.2 1.9v2.7l-.1 2.6-.7 5.9v4l.1 1.2.4 1.8.8 2.1.8 1.4 1 1.4 3.1 4 1.4 2 .3.6.8 1.7.8 2 .6 2 .5 2 .2 1.7v3.6l-.2 2-.5 3.2-.3 2.2-1.8 9.1-.4 2.6v2.4l.1 1.3.6 2 1 1.6 1.3.8 1.4.5h1.5l.9-.1 2-.6 2-1.1 1-.8 2.7-2.4 4.2-3.7 1.6-1.4 1.6-1 6.6-4.2 1.4-.7.6-.3 1.2-.1.8.3.8.9.2.6 2.4 7.1 1.4 3.4 2 4 .8 1.5 2.2 3.5 2.5 4.5 1.5 2.5 1 1.5 4.3 5.5.6 1 .5.8.4 1 .2 1-.2 1"/></defs><g clip-path="url(#p3d8a8bf3e6)"><use xlink:href="#me9a1ae366a" y="280.5" fill="#f4f4e2" stroke="#f4f4e2"/></g></g></g></g><defs><clipPath id="p3d8a8bf3e6"><path d="M7.2 7.2h178.3v266.1H7.2z"/></clipPath></defs></svg>