<svg xmlns="http://www.w3.org/2000/svg" xmlns:xlink="http://www.w3.org/1999/xlink" width="281" height="374" viewBox="0 0 210.8 280.5"><defs><style>*{stroke-linejoin:round;stroke-linecap:butt}</style></defs><g id="figure_1"><path id="patch_1" fill="none" d="M0 280.5h210.8V0H0z"/><g id="axes_1"><g id="PatchCollection_1"><defs><path id="mfb6ec3a780" stroke="#f4f4e2" d="m151.1-250.4-.3.6-.2.8-.2 1.2-.2 3v3l.3 5.2.6 4.6 1.4 9.5 4.8 27.2.7 3.8.8 3.5 1 3.2 1 2.5 1.4 3.1 5 10 2.4 4.2 2 3.4 4.8 7 1.4 2.2.9 1.8.6 1.6.6 1.7 1.3 5.1 2 9.1.7 3.4 1 6.1 2 11 .5 2.1.5 2 2.5 7.6.8 2.7 1 3.8.7 3.8 1.4 10.3.3 4v3.7l-.4 3.5-.7 2.5-.6 1.1-1.4-.7-2.4-.8-1.2-.3-2-.2h-.7l-1.2.3-3.4 1.3-1.2.3-1.4.2h-1.5l-4.6-.6h-2.7l-1.1.2-1 .5-.8.7-.6.8-.5 1-.5 1.1-.9 2.8-1 4-2 9.5-1.2 4.8-1.2 3.8-.6 1.7-.7 1.6-1 1.7-.8 1.2-6.6 8.9-.8 1-.8.7-.7.5-.6.2h-.4l.3-1.1-.2-1-.5-1.3-.5-1-.7-1-5-6.3-1-1.7-1.8-3-2.8-5-2.6-4-.9-1.7-2.3-4.6-1.6-3.8-2.6-8.1-.4-.7-.8-1-1-.4-1.3.2-.7.2-1.6.9-7.5 4.7-1.8 1.2-1.9 1.6-4.7 4.2-3 2.8-1.2.9-2.2 1.2-2.5.7-1 .1H90l-1.6-.5-1.3-1-1.2-1.8-.7-2.3-.2-1.5V-56l.5-3 2-10.4.4-2.4.5-3.8.2-2.1V-82l-.2-1.9-.5-2.2-.7-2.3-1-2.3-.8-2-.4-.6-1.5-2.4-3.5-4.5-1.2-1.6-1-1.6-.8-2.4-.5-2-.1-1.5-.1-1.6.1-3 .7-6.6.2-3v-3l-.3-2.2-.2-1-.6-2-1.4-2-1.9-1.6-2-1-2-.4-6.4-.3-1.5-.2-1.2-.5.1-.3.2-.7v-.9L60-146l-.3-2.2-.7-3.3-.4-2.8-1.2-6.2-.8-2.4-1.5-3-4.3-8.2-3.3-7-1.2-2-.8-1-.8-1-1-.8-1-.6-1.3-.3h-2.7l-1.5.2-6.2 1.2-2.3.4-1.4.1-1.3.1-1.4-.1h-.3l-1.2-.6-1.6-2-1.6-3.1-.6-1.9-.9-3.5-.7-4-.4-2.7-.5-5-.4-5-.1-2.7v-6.2l.2-2.2.5-3.6 1-3.4 1-1.9.8-1.2.7-.8 2-1.8 2.2-1.9 1.5-1 3.6-2.4 4.1-2.6 2.4-1.8 1.6-1.4 1.8-1.9L41-251l2.4-3.6 1.4-1.7 1.2-1 1-.8 4.2-2.4.7-.3 1-.3h2l2.8.5 3.9.5 2.5.4 8.8 1.8 2 .5 3 1 3 1.4 8.7 5 4 2.2 1.8.7 1.8.4h3.4l12.2-1.6 4-.3h2.8l3 .2 7.8.6 1.7.1h2.5l11.1-1.2 2.7-.6 2.8-.9"/></defs><g clip-path="url(#pca3c12ee4d)"><use xlink:href="#mfb6ec3a780" y="280.5" fill="#f4f4e2" stroke="#f4f4e2"/></g></g></g></g><defs><clipPath id="pca3c12ee4d"><path d="M7.2 7.2h196.4v266.1H7.2z"/></clipPath></defs></svg>