<svg xmlns="http://www.w3.org/2000/svg" xmlns:xlink="http://www.w3.org/1999/xlink" width="485.1" height="374" viewBox="0 0 363.8 280.5"><defs><style>*{stroke-linejoin:round;stroke-linecap:butt}</style></defs><g id="figure_1"><path id="patch_1" fill="none" d="M0 280.5h363.8V0H0z"/><g id="axes_1"><g id="PatchCollection_1"><defs><path id="m732a736413" stroke="#f4f4e2" d="m310.6-206.8-.3.5-.3 1.3v3.4l.6 4.8v3.2l-.3 2-.4 1.9-1.2 5.2-.7 3-.6 2.3-4.8 16.4-1.9 6-.8 2.9-.2 1.1-.2 1.4-.2 1.2v4.6l.2.9.2 1 .3.7.4.9.4.6.4.5.7.6.6.4.7.4 1.4.5.6.2 3.2.5 3.2.6.8.1 1.7.2h2.1l1 .1.6.2.6.1.3.2.5.3.4.3.6.7.7 1 2.3 4.3 3.3 5.3.8 1.2 7.4 10.2 1 1.3.8 1.4 2 3.4.8 1.6.6 1.4.5 1.4.1.8.2 1v2.5l-.3 1.6-.2.8-.5 1.8-1 3.1-2.2 5.5-.1.5v.2l-.5 1.5-.5 1.3-.4 1-1 1.8-.5.8-1 1.6-.9 1-.7.9-.6.6-1 1-.9.6-1.6 1-1.7 1-3.8 1.8-1.7 1-.6.4-2.4 2-1.9 1.5-2.5 1.6-3.3 2-1.4.9-.5.4-.9 1-1.8 2.4-.6.7-1.2 1.3-.8.8-.8.7-1 .7-3.4 2-.3.2-.6.5-.5.8-.3.4-1.4 2.7-1 2-.5.7-.9 1.1-.5.6-1 1-1.2 1.1-.7.6-1.7 1.2-1.2.7-1.3.7-.6.2H281l-7.1 1-2.4.4-1 .2-1 .3-2 .9-1.9 1-1.8 1.3-4.2 2.9-1.5.9-1 .5-1.8.9-1.6.6-8.5 3.3-2.7 1-1.7.5-1.7.3-1.6.2h-2.1l-2.2-.4-2.5-.7-2.9-1-2.9-1-3.5-1.6-2.4-1.2-3.2-1.8-3-1.8-.7-.6-1-.7-.6-.5-.8-.8-.7-1-1.5-1.9-3.3-4-1.3-1.9-.5-.7-.7-1.4-.4-.7-.8-1.6-1.3-3.3-.6-1.2-.6-1-1.1-1.6-1-1-.7-.9-1-1-.8-.5-1-.6-.6-.3-.7-.3-.8-.1h-1.1l-1 .2-3.1 1-3 .6-1.4.4-1.7.6-.7.3-1 .5-.7.3-.6.4-1 .7-.9.8-1 1-2.5 2.5-3.7 4.2-1.3 1.4-.8.7-1 .8-1.4 1-1.2.6-1.5.8-1.5.6-.8.3-1.2.3-1.1.1h-2l-1.4-.2-1.3-.3-2-.5-2.6-.8-2.5-.8-1-.4-2-.8-2-1-5.9-3.8-1.3-.6-.9-.3h-1.7l-2.3.1h-.8l-1-.2-1-.4-1.1-.7-1-.7-1-1.2-1-1-.9-1.3-.9-1.4-1.2-2.5-.7-1.2-.7-1.2-.8-1.1-2.5-3.2-3.5-4.6-2.6-3.1-1.8-2-1-1.1-1-1-1.1-1-1.8-1.4-4.4-3.2-4.5-3.5-1.4-1-.8-.4-.7-.3-1.2-.6-4.1-1.5-1.6-.6-4-2.1-1.2-.4-1.2-.3h-1l-1 .2-.4.1-1.2.5-.9.6-.9.6-.7.7-.7.7-2.3 3-.5.6-1.1.9-1.3.7-1.4.5-1 .1h-1l-1-.2-.9-.3-1.5-1.1-1.4-1.6-1.3-2-1.2-2.2-1-2.4-1-2.4-1.5-4.2.3-.5 1.2-1.6 3.3-5 1-2 .8-1.3.6-1.2 1-2.3 1.4-4.2 2.8-7.2.5-1.6.2-.7.2-1v-2.4l-.3-1.2-1.4-5-.4-1.8-.2-1-.2-1.9-.5-4.5-.3-5.4-.3-2.2-.3-2-1.2-6.2-.2-1.2-.4-3.3-.1-.8-.4-1.2-.4-.9-.5-.7-.7-.9-.6-.4-.6-.5-1-.6-2.6-1.6-1.2-.8-1.2-1-1-1-.8-1-.7-1.2-2.3-4.5-.6-1.1-.6-.9-1-1.3-1.6-1.7-4.9-4.9-2-1.8-1.7-1.7-1.8-1.5-1.6-1.3-1.4-1-.3-.1-.4-.2 2.7-3.3 1.5-1.7 1.6-1.7 1.4-1.4 1.4-1.3 1.5-1.2 2.1-1.6 1.7-1.1 1.5-1 1.5-.8 1.5-.7 1.8-.6 1.4-.2h.7l1 .1 1.2.3 3.4 1.2 4.2 1 2.9.9 1.6.6 2.4.9 4.6 2 1.3.4 1.3.4 1.2.3h2.2l.5-.2.2-.1.7-.7.4-.8.5-1.2.8-2.7.5-1.5 1.1-2 2.7-4.3.8-1.6.5-1 .6-1.3.4-1.2.4-1.4.3-1.3.2-1.2v-1l.2-1.8v-2.1l-.2-2.4-.3-2.3-.4-2.3-1-4.6-.4-2-.2-1v-1.2l-.1-.6v-.8l.2-.6.3-.6.4-.1.2-.1.5-.1 2.4-.3 1.3-.3 4-1 1-.3 1.2-.2 1.3-.1h1.5l1.6.1 4 .5 1 .1h2l5-.7 5-.7 1.6-.3 4.8-1 2.6-.6 4.8-.9 3.4-.5 3-.3 3.8-.1 10.3-.3 5-.1h1.4l1.5-.3 1.2-.3.6-.3.3-.3.1.5 1 3.6.4 1.4.3 1.1.6 1.6.9 1.7.4.9.8 1.2.5.6 1 1.1.7.7.6.5 1.6 1.1 1.2.7 1.8 1 2.4 1.2 7.9 3.6 1.4.6 1.5.5.6.1 2 .4 2.2.2 6.4.3 3.6.2h1.8l1.7-.1.6-.2.8-.3.8-.3.8-.4 1.3-.8 1-.7 4.5-3.3 1.6-1.1 1.2-.8 1.6-1 3.6-1.9 4.6-2.8 2-1 1.5-.6.9-.3 1.1-.2 2.4-.4.9-.2.6-.1 2-.8 1.5-.3.5-.2.5-.3.2-.3.3-.4.3-.9.6-2.2.4-.7.2-.2.4-.2h.6l2 .6 2.1.3.9.2.7.3 3.5 1.5 1.4.5 1.5.4 1.4.3 1.6.2h5.1l1.8-.1 2.1-.5 5.5-1.5 5.5-1.7 1.8-.5 1.8-.3 1.7-.2 2.2.2 2 .5 2.2.9 2 1.1 1 .7.9.7 1.2 1.1 1.1 1.2 1.3 1.5 1.4 2 1.2 1.9 1.4 2.5 2 3.6.8 1.6 1.4 2.1 3.3 4.6.8 1.3 2.3 3.6 1 1.8 1 1.8.9 1.9.3.9.4 1.8v1.8l-.6 1.8-1 1.8-1 1.7-1 1.6-.5 1.6-.1 1.5.4 1.2.7.7h.4"/></defs><g clip-path="url(#p7d2aabf6ad)"><use xlink:href="#m732a736413" y="280.5" fill="#f4f4e2" stroke="#f4f4e2"/></g></g></g></g><defs><clipPath id="p7d2aabf6ad"><path d="M7.2 7.2h349.4v266.1H7.2z"/></clipPath></defs></svg>