<svg xmlns="http://www.w3.org/2000/svg" xmlns:xlink="http://www.w3.org/1999/xlink" width="253.8" height="374" viewBox="0 0 190.3 280.5"><defs><style>*{stroke-linejoin:round;stroke-linecap:butt}</style></defs><g id="figure_1"><path id="patch_1" fill="none" d="M0 280.5h190.3V0H0z"/><g id="axes_1"><g id="PatchCollection_1"><defs><path id="m100c5651e4" stroke="#f4f4e2" d="M80.8-260.6v.5l.3.3 1.1.9 1.3.7 3.7 2 1 .7 1.2.8 1.4 1.2 1.2 1.3 1 1.2 1.2 1.7 1.4 2.2.8 1.3.7 1.4.5 1 .4 1 .3 1.2.2 1.2v1.2l-.2 1.2-.4 1.2-.3 1-.4.9-.5.8-.9 1.4-3 4.3-1 1.5-1 1.5-.7 1.5-.4 1-.2 1v3l.2 1.2.6 2.1 1 2.4 1.4 3.5 1.7 4.6 1 2.2.4 1 1.1 2 .6 1 1.1 1.3 1.3 1.4 1.3 1.2 1.8 1.2 1 .6 1.1.5 1.4.5 1.6.3 1.4.2h2.6l3.5-.2-.2.2-.4.8-.7 1.2-.6 1.3-.6 1.4-.5 1.6-.5 1.5-.3 1.5-.4 2.8-.2 2v2l.2 2 .2 1.5.4 1.3.8 1.7 1.2 1.9 1 1.3 2.8 3 .9 1.1.6 1 .6 1.1.5 1.6.2 1.7v3.7l.2 1.3v.8l.5 1.7.3 1 .5 1 .7 1 .8 1 1.3 1.2.8.6 1 .6 1.6.8 1.9.8 3 1 7.3 2.5 4.8 1.6 2.1.7 3.8 1 1.4.5 1.4.6 1 .5 1 .6 1.2 1 1.3 1.1 1.6 1.7 1.3 1.5 2 2.7 1 1.6 1.1 1.7 1 1.5.8 1.5.7 1.6.8 1.8 2.3 5.8.7 2 1.8 5.3.6 2.4.3 1.7.4 2.6.2 3v5.1l-.1 2-.4 4-.5 4L173-67l-.3 3-.1 2v6.6l.6 6.6.1 1.4v1.6l-.1 1.5-.2 1.2-.2 1-.4 1.5-.7 2.1-.7 1.8-1.2 2.7-1.7 3.3-1 1.6-.4.5-.3.2-1.9.9-1.5.6-2 .6-2.2.6-10.5 2.7-4.9 1-2.4.5-3.3.4-2 .2-3 .1H117l-4.5-.2-2-.2-1.7-.3-1.5-.4-3.8-1.3-1.6-.4-1.6-.3-1.8-.2h-2l-4.8.4-2.3.1h-3L81-24h-4.4l-2 .2-2 .4-1.4.2-2.7.7-5.9 2-1.8.5-1.2.2-1.5.3-1.7.1H55l-1.5-.4-1.7-.6-1.6-1-1.4-.8-1.3-1.1-1.4-1.2-2.4-2.4-1.1-1-3.3-2.4-1.2-1-1.8-1.6-6.4-6-3.1-2.6-3.3-2.7-3.6-2.6-3.1-2.2-.6-.3-.3-.1 1.6-.8 1.5-.9 1.8-1 1.8-1.4L24-55l1.3-1.6.9-1.8.3-1.6v-1.7l-.5-2.1-.6-1.7-.6-1.4-1-2-2.8-5.3-.9-1.7-1-2.1-.7-1.7-1-2.4-1-2.8-.7-2.9-.3-1.3-.2-1.6-.1-1.6v-1.2l.3-1.1.3-1 1.1-1.7.9-1 1-.8 1.5-1.2 1.8-1.1 6.6-4 2.8-2 1.4-1 1.7-1.4 3.4-2.8 1.3-1.2 1.4-1.3 1.3-1.3 1-1.2 1-1.2.9-1.8.3-1 .1-1v-1.6l-.6-2-.7-1.9-.8-1.8-5-10.4-1.2-2.3-1-2-1.1-1.7-3.6-5.4-.8-1.3-.7-1.3-1.2-2.6-1-2.6-.7-1.8-.5-1.6-.5-2-.3-2v-2.8l.2-.8.3-1 .5-1 1-1.5 1.5-1.5 1.5-1 1.6-.9 1-.3 1-.1h.9l1 .2 1 .3 2 .8 1 .4 1 .2h.6l.8-.2.6-.3.7-.5.5-.6.4-.6.1-.4.2-.6v-1l.1-1.8-.2-4.2.1-2 .2-1 .4-1.6.5-1.7.6-1.5.6-1.5.6-1.4 1.2-2.4.8-1.4 1.5-2.3.8-1 2.6-3.4 1-1.6 1-1.7.5-1.4.4-1.6.3-1.5v-2.8l-.1-1.4-.5-3-.5-2.3-.9-3.3-.4-1.5-1-2.8-1-2.5-3.4-8.4-.2-.6v-.2h.5l.8-.3 1.6-.6 2.3-1.1 2.4-1.4 2.3-1.4L63-251l2.5-1.6 1.1-.8 2-1.8 1.1-.9 1.7-1 3.5-1.7 1-.6 2-1.4.9-.4.4-.1h.6l.4.2.4.1.2.2v.1"/></defs><g clip-path="url(#p154525ae03)"><use xlink:href="#m100c5651e4" y="280.5" fill="#f4f4e2" stroke="#f4f4e2"/></g></g></g></g><defs><clipPath id="p154525ae03"><path d="M7.2 7.2h175.9v266.1H7.2z"/></clipPath></defs></svg>