<svg xmlns="http://www.w3.org/2000/svg" xmlns:xlink="http://www.w3.org/1999/xlink" width="395.9" height="374" viewBox="0 0 296.9 280.5"><defs><style>*{stroke-linejoin:round;stroke-linecap:butt}</style></defs><g id="figure_1"><path id="patch_1" fill="none" d="M0 280.5h297V0H0z"/><g id="axes_1"><g id="PatchCollection_1"><defs><path id="m2303a61ff7" stroke="#f4f4e2" d="m274.4-102.7-.7.2-.5.8-.2 1v2.1l.1 1.8.3 1.5.6 3.1 1.7 7.1.5 3.5.4 3.5.2 3.7v5.9l-.2 1.7-.3 1.7-.4 2-.6 2.3-.7 1.8-.8 1.9-.8 1.6-1.3 2.4-4 6.5-1.7 3.2-.9 2.2L264-37l-.7 1.9-.7 1.3-1 .9-.4.2-.7.3-1.4.1-2-.1-1.7-.4-2.1-.6-2-.7-7-3-3.6-1.5-2.6-.8-4.4-1.3-6.4-1.7L222-44l-2-.5-1.5-.2h-1l-2.2.3-2.8 1-2.2 1-2.2 1.3-2.4 1.5-2.5 1.7-3.3 2.4-2.3 1.9-2.2 2-2 2-2.6 2.7-2.2 2.6-4.2 5-.2.1h-.4l-.8-.3-3-1-4.6-2-3.5-1.6-4.1-2-6.7-3.2-5-2.6-6.7-3.6-4-2-2.3-1.1-2.3-1-4-1.4-2.8-.8-1.7-.3-2-.4-2.1-.3-3.2-.3-9-.6-3.5-.4-2.8-.5-2.3-.5-6.7-1.9-4.5-1-3.2-.6-5.4-.8-3-.6-2.7-.7-1.8-.7-2.4-1.1-3-1.6L72-56l-2.9-2.2-2.5-2.2-3-2.9-2.4-2.6-2.2-2.6-3-4-7.4-10.6-3.5-4.7-1.7-2.3-1.4-2.4-1-2.5-1-2.6-.6-2.7-.4-2.3-1-7.3-.3-1.7-.4-1.7-.5-1.6-.6-1.6-3.4-7.9-.8-2.2-.7-2.6-.8-3.9-1.2-7.9-.6-3.2-1.6-6.6-.7-3.1-1.4-8.2-.6-3.3-.5-1.8-.7-2.1-2.4-6.2-.4-1-.2-1.3-.2-.9.1-2.7.7-2.8 2.2-7.4.5-2 .8-3.7.7-4.3.2-2.2.3-3v-4.4l-.4-3.8-.4-2.1-.5-2-.9-2.6-.7-1.8-.2-.2-.2-.2-.1-.2v-.2l.1-.3.5-.6.6-.3.6-.3.7-.2 1.1-.3 1.2-.1 5.6-.6 2.8-.2h1.2l1.7.2 2 .5 2.9.9 1 .2H46l.7-.3 1-.6 1.8-1.2 1.6-1.3 3.7-3.2 3.2-3 4.5-4.5 2-2 4.3-4.8 2.3-2.3 3-2.6 6.7-5.4 3.8-3.3 1.4-1.3 1 .3 1 1.3.7 2.2.1 1.1v2l-.2 2-.4 1.7-2.6 9.2-.7 3.1-.4 3.2v3l.3 2.5.4 1 .4.9.6.8 2.2 2.6 1 1.4 1 1.5.5 1.4.4 1.3.2 1.2.2 4.7.2 2.5.4 1.4.3 1 1 2.1.7 1.1 1 1.4.9 1 1 .9.9.7.9.4 1 .4 1.3.2 1.4.1 2.5-.2 2-.3 1.9-.5 4.5-1.2 8.8-2.7 6-1.7 4.7-1.2 3.6-.9 4.5-.8 2.6-.3 2.5-.3 4.9-.4 3.4-.5 3.9-.7 1.5-.4 2-.6 1.9-.7 1.4-.7 2.6-1.7 3.3-2.5 6-5 2.3-1.7 1.3-.8 3-1.4 1.6-.6 5.6-1.6 2.5-.8 2.4-1 1.3-.6 2-1.3 2.5-1.7 6.6-5.4 3.5-2.5 3-2 2.3-1.2 2.3-1 1-.4 1.2-.2h1.2l.5.2.5.3.5.6.5.8.2 1 .1.7v1.8l-.3 1.5-.4 1.3-.9 2.7-.8 1.9-1.2 2.3-2.6 4.5-1.5 3.1-1.1 3-.6 2.4-.3 2v2l.2 2 .4 2 .7 2.1.8 2 1.1 2.5 2.5 5 1.8 4 9 21.9 1.4 3 1.5 2.5 1.7 2.4.7 1 1.3 1.5 2.2 2.5 3.2 3.3 6.2 6.1 2 2.1 1.2 1.5 2.8 3.8 2 2.8 1.5 2.5 1.6 2.7 2.7 5.2 1.5 3 .5 1.2.7 2.3 1.6 5.6 1.1 3.5 1.2 3.4 1.2 3.3 1.2 2.7 1 2 .5.9"/></defs><g clip-path="url(#p6e708117f4)"><use xlink:href="#m2303a61ff7" y="280.5" fill="#f4f4e2" stroke="#f4f4e2"/></g></g></g></g><defs><clipPath id="p6e708117f4"><path d="M7.2 7.2h282.5v266.1H7.2z"/></clipPath></defs></svg>