<svg xmlns="http://www.w3.org/2000/svg" xmlns:xlink="http://www.w3.org/1999/xlink" width="374.4" height="374" viewBox="0 0 280.8 280.5"><defs><style>*{stroke-linejoin:round;stroke-linecap:butt}</style></defs><g id="figure_1"><path id="patch_1" fill="none" d="M0 280.5h280.8V0H0z"/><g id="axes_1"><g id="PatchCollection_1"><defs><path id="mbd260fd4a7" stroke="#f4f4e2" d="m254.5-96.3-.1-.1-.4-.4-1.5-2.1-.7-.8-.9-.8-.5-.4-.6-.4-1-.5-1-.4-1.7-.6-1.3-.5-1.2-.3-1.6-.2-1.7-.1H237l-3 .3h-3l-1-.2-2.6-.4-2.9-.4-.7-.1h-1l-1 .2-.9.3-1 .4-2 1-.9.5-.7.5-1 .8-.5.6-.9 1-1 1.1-2.5 3.8-.8 1.2-.7 1.4-.4.8-.2.8-.7 2-.2.8-.2.8v1.7l.4.6.9 1.4.4 1 .2.8.3 1.3.2.7.8 2.4 1.1 3.9.3 1 .2 1.7.2 1.2v4.3l-.1 1-.2 1.4-.3 1.6-.5 1.5-.4 1.1-.6 1-.7.8-.8.7-2.6 2-.8.6-.5.4-.8 1-.6.7-.8 1.1-.8 1.4-2 3.2-.3.5-.7 1.6-.9 1.6-.3.5-1 1.6-.8.9-.9.8-1 .8-1.6 1.3-1 1-1.3 1.3-.6.8-2.3 3.1-1.5 2.2-1 1.6-2.3 4.3-.7 1.1-.4.6-.2.2v.1h-.5l-2.7-.5-2-.3-2.1-.2h-1.2l-2-.1h-7.8l-4.3-.1-1.8-.1-1.7-.1-1-.2-1-.2-1-.2-3.1-.9-4.5-1.1-4.2-1.2-1.5-.6-1.3-.7-1.4-.8-2.5-1.8-1.2-.8-1.3-.6-1.2-.3h-1.3l-1.2.4-1 .5-2.6 1.3-.9.4-1.2.5-1 .2h-1.8l-1.3-.4-1.2-.7-1-.7-.8-.8-1.2-1.2L112-32l-1.7-2-1.7-2.3-2-3-6.7-10-2.2-3.1-2-2.7-2.2-2.7-1.7-2-1-1-.9-.7-.9-.7-.9-.7-.9-.5-.9-.4-.7-.2h-4.7l-1.2.2-1.1.3-2.5.8-1.1.4-2 .3-3 .8-2.2.4-1.1.2-1.2.4-1.2.4-4.2 1.5-1.8.8-1.6.8-.9.5-.5.3-1.1.9-1 1-1.5 1.3L50-51l-4.2 4.4-2.7 2.6-.5.5-.4.5H42l-.3-.2-.7-.4-.6-.4-1.5-1.2-.8-.8-.9-.9-2-2.2-1-1.1-.5-.7-.4-.7-.5-1-1.3-2.9-1.3-2.5-.4-1-.2-.5-.2-.6-.1-.8-.2-2.2-.3-1.2L28-68l-.2-.6-.8-2-.2-.6-.3-1.5-.2-.6-.2-.4-.2-.2-.4-.3-.2-.2-.3-.3-.4-1-.8-2.3-.7-1.4-.8-1.6-1.8-2.9-.4-.7-.3-.6-.2-.5-.2-.6v-.4l.2-.3v-.1l.5-.2h.6l1.5-.2H24l6 .1h2l1.7-.1 1.5-.3 1.2-.4 1-.7 1.1-1.1.8-.7.6-.3.7-.3 1.1-.1h1.2l3.2.7.7.1h1l1-.3.6-.2.6-.4.7-.6.8-1 .5-.8.3-1.2v-1.2l-.1-1-.8-3.2-.2-1.2v-1.2l.3-.8.5-1.1.8-1.3 2.2-3 1.7-2 1.2-1.6 1.2-1.6.6-.8.2-.7.1-.5v-1.8l-.2-.9-.4-2.1-.7-2.8-.7-2.4-.6-2-1.4-4.2-.4-1.4-.2-1.3-.1-.7v-1.2l.2-1.4.6-2.6.2-1.3-.2-1.1-.4-1-.4-1.2-.6-1-.7-1.2-.7-1.1-.7-1-1.6-2.1-.8-1.2-.7-1.3-.6-1.4-.6-1.4-.6-1.5-.5-1.8-1.1-3.7-.6-1.8-.4-1-.7-1.8-1.8-3.5-.8-1.7-.6-1.7-.4-1.7-.3-1.8-.1-1.9v-1.7l.2-1.7.5-3.6v-.9l-.2-.6-.4-.4h-.2l-.3.3-.3-.3-.2-.7v-2.8l.3-1.1.3-1.3.5-1.2.8-1.3 1-1.2 1.1-1.2 2.3-2.2 1-1 .8-1.2.6-1.1.5-1.1.5-1 .6-1 1.5-2 .7-1 .5-1.3.3-1.2.4-2.5.2-1.3v-2.2l-.1-2.4-.3-2.4-.1-1.7v-1.5l.4-.8.5-.7.9-.6 2-1.1 1-.6 2.8-2 1.1-.9 2.2-2 1.1-1 1.8-1.3.8-.8.8-1 .7-1.2.5-1.4.3-1.4.1-1.4v-1.1l-.1-1.1-.2-1.4-.3-1.5-1.1-4.3-1-4v-.5l19.3 3.2 4.4.8 4.4.6 4 .5 4.3.6 13.3 1.5 13.2 1.4 4 .4 3.8.5 1.9.4 1.9.3 1.9.5 1.4.3 1 .4 2 .7 1.2.5 9 3.8 12.4 5 3 1.3 2.3 1.1 1.3.7 1.2.7.8.6.4.6v.6l-.3.6-.5.6-.3.5-.2.6-.1.8v1.7l.5 2.4.1.9.1 1v1l-.3 2-.1 1-.2 4.2-.3 3v2l.4 2.7v1.9l-.1.8-.2 1-.3.9-.6 1.8-.5 1.2-1.4 3-1 2.2-.7 1.4-.5 1.5-.4 1.4-.2 1.5v1.7l.3 1.5.2 1 1 3.2.2.8.3.7.4.8.6.7.6.6.8.5.8.4 1.7.7 1 .4 1.7.4.5.2.5.2.3.2.4.3.5.4.8.9 1 1.2.5.4.7.5.8.3h1.4l1.2-.2h1.7l1.7.1h1.6l1 .2h.8l1.1.4 1.1.4.7.3 3.8 2 1.3.6 1.3.5.9.3 1 .3 4.6 1 1.2.3 1 .4.8.5 2.6 1.7 1.2 1 1.3 1 .6.5 1 .6 4.1 1.9 1.2.5.6.4 1.3 1 .7.6.7.6.6.6.4.7.3.4.2.5.1.7v1.1l-.8 2.3-.1.7-.1 1v.3l.1.5.2.4.5.7.4.3.5.4.5.2.7.3.9.3 2.1.5 4.5 1 1.8.4 2.2.6 2.4 1 1.7.7 1.3.7 1.2.6 1.1.7 1.7 1.1 1.3 1 1 .6.6.7.9 1 .7 1 .4 1 .5 1.5.2 1.8v1.8l-.2 2-.4 2-.4 2.2-1 4.4-1.7 7-2.9 10.9-.3 1.3v.5"/></defs><g clip-path="url(#pe2abd4148a)"><use xlink:href="#mbd260fd4a7" y="280.5" fill="#f4f4e2" stroke="#f4f4e2"/></g></g></g></g><defs><clipPath id="pe2abd4148a"><path d="M7.2 7.2h266.4v266.1H7.2z"/></clipPath></defs></svg>