<svg xmlns="http://www.w3.org/2000/svg" xmlns:xlink="http://www.w3.org/1999/xlink" width="332.4" height="374" viewBox="0 0 249.3 280.5"><defs><style>*{stroke-linejoin:round;stroke-linecap:butt}</style></defs><g id="figure_1"><path id="patch_1" fill="none" d="M0 280.5h249.3V0H0z"/><g id="axes_1"><g id="PatchCollection_1"><defs><path id="mce550c0605" stroke="#f4f4e2" d="m197.5-141.2.4.1.2.1 1.3 1 1.4 1 1.6 1.5 1.6 1.4 1.8 1.7 4.4 4.4 1.4 1.5 1 1.2.4.7.6 1 2 4.1.7 1 .6.9 1 1 1 .9 1.1.7 2.4 1.4.9.6.5.4.5.4.7.7.4.8.4.8.3 1 .2.8.3 2.9.2 1 1 5.6.3 1.8.3 2 .3 4.9.4 4 .2 1.8.2.8.4 1.6L231-79l.2 1 .1.7v1.5l-.2.8-.2.7-.4 1.4-2.5 6.5-1.4 3.8-.8 2-.6 1.1-.6 1.2-1 1.7-3 4.6-1 1.4-.3.4-.1-.5-.5-.6-.8-.5-1-.3-1.2-.1h-1.6l-.8.3-1 .3-.9.4-.8.6-.7.7-.7.8-1.2 1.8-.9 1.4-.5 1-.3 1-.3 1.3-.2 1.9v2l.1 1.1.4 2.9.3 1.8.5 1.8.7 2 1.2 3 .3.8.2 1v1.4l-.3.5-.4.6-.2.3-.4.4-.5.4-.7.4-.7.3-1 .3-.8.2-.7.2h-1l-1.2.1h-2.4l-1.4-.3-1.8-.3-1.6-.4-1.3-.4-4.5-1.5-1.6-.4-1.4-.3-2.3-.4-5.2-.6-8.7-1.2-1.6-.3-1-.3-3.2-.8-1.2-.3h-.9l-.2-.2-.2-.3-1.8-2.7-1.7-2.4-1.3-1.6-1.2-1.5-1.9-2.1-1.4-1.5-1.3-1.2-1.4-1.3-1.4-1-2-1.6-1.5-.8-2.3-1.3-1.5-.7-1.3-.6-1.5-.6-1.3-.4-1.8-.5-1.3-.2-1.9-.2h-1.2l-1.6.1-2.6.5-6.4 1.3-3.9.7-2.7.4-1.7.2H107l-3.4-.3h-1.7l-1.3.3-1.3.4-1.1.5-1.2.6-.7.5-.6.5-1 1.1-.5.3-.3.2-.6.3-.7.1H91l-1.4-.2-1-.2-.7-.2-1.4-.5-2.8-1.1-.7-.3-1-.3-1-.1h-1.8l-1.7.5-2.6.8-1.1.2-.6.1H71l-.6-.2-.5-.4-.3-.2-.6-.9-.2-.3-.1-.7v-1.6l.2-1.4.4-1.2.4-1.1.7-1.3.4-.7 1.2-1.8 7.5-10.3.8-1.1.9-1.5.4-.7.3-.7.1-.5.1-.5v-1l-.4-.8-.4-.4-.3-.2-.7-.4-.3-.1-.8-.3-1-.2-2.5-.5-2.6-.4-7.1-.8-13-1.5-2.2-.4-1.5-.3-2.8-.6-1.4-.4-1.4-.5-2.1-.8-4.7-2-2.7-1.4-1.3-.6-2-1.3-1.6-1-1.4-1.1-1.4-1.2-1.2-1.1-.7-.7-1.1-1.5-.6-.8-.5-.8-.4-.8-.3-.6-.2-.6v-1.6l.1-.4.4-1 .4-.9.4-.5 1.7-2.4 1-1.5.3-.5.2-.6.2-.5v-.7l-.2-.5-.3-.3-.6-.7-.9-.6-3.2-2-.7-.5-.8-.7-.4-.4-.3-.4-.6-1.3-.2-.9v-.9l.2-1.9.2-1.1.6-2.2.5-1.8.3-.9.3-.7.1-.7v-8.4l.2-6 .2-4.1.1-1.9.3-3.6.3-2 .5-3.2.4-2.8.6-2.9.6-2.4.4-1.6.4-1 .3-.7 1-1.8 1.3-1.7L28-170l1.6-1.6 1.7-1.6 1.7-1.5 7.2-6 1.7-1.6 1.7-1.5 1.6-1.6 1.4-1.7 1.4-1.7.5-.8.5-1 .6-1.1.6-1.2.5-1.6.7-2 1.8-6.2.5-1.4.6-1.3.4-.6.5-.6.7-.6.9-.5 1-.5 3.3-1.4 1.2-.6 1.8-1 1.5-.9 1.8-1.6L69-215l1.5-1.8.8-1 .9-1.3.6-1 .6-1.3.3-.9.4-1.4v-2.8l-.9-5.9v-1.5l.1-1.1.4-1 .7-1.4.7-1.1 3.6-4.4 1-1.6.9-1.6.5-1.4.8-2.8.9-3 .2-.8.2-.5.3-1 .3-.4.3-.3.4-.3.4-.1h.9l1.9.5h1l.4-.2.5-.2 1.6-1 .4-.1h.7l.4.3.4.2 1.4 1.4.4.3.4.3h.7l.3-.1.4-.2.9-.7 1-1 2-2.2 1.1-1.1.7-.6h.1l.1.2.5 1 .5 1.6.3 1.1.2 1.3.2 2.2v2.6l-.1 1.8-.2 1.3-.4 2.5-.4 2.1-.3 1.2-1.3 4.3-.4 1.7v2.1l.2.7.2.6 1.4 3.6.4 1.3.3 1 .4 2 .8 4.8.3 1.8 1 4 .4 1.8.7 4.6.4 2.3.4 1.5.5 1.3 2 4.6.3 1 .3.9.3 1 .2 1 .6 4.3.2 1.3.4 1.6.5 1.5.6 1.5.9 1.4 1 1.4 2 2.7 4.4 6.2 1.7 2.3 1.3 1.6 1.4 1.5 1.7 1.7 1.5 1.3 1.7 1.3 1.6 1 1.7 1 1.4.7 1.1.4 1.6.4 1.7.4 3.2.4 1.9.4 2.6.6 4 1 1.3.4 1.6.3 2.1.2 5.2.3 2 .2 1.1.2 1.3.2 1 .2 1.6.5 2.3.8 1.4.6 1.4.6 2.3 1.2 3.9 2.1 3 1.5 3.8 2 2.4 1 2.1 1 2.8 1.2 1.7.6.4.1h.3"/></defs><g clip-path="url(#p1ecff3830d)"><use xlink:href="#mce550c0605" y="280.5" fill="#f4f4e2" stroke="#f4f4e2"/></g></g></g></g><defs><clipPath id="p1ecff3830d"><path d="M7.2 7.2h234.9v266.1H7.2z"/></clipPath></defs></svg>