<svg xmlns="http://www.w3.org/2000/svg" xmlns:xlink="http://www.w3.org/1999/xlink" width="322.1" height="374" viewBox="0 0 241.6 280.5"><defs><style>*{stroke-linejoin:round;stroke-linecap:butt}</style></defs><g id="figure_1"><path id="patch_1" fill="none" d="M0 280.5h241.6V0H0z"/><g id="axes_1"><g id="PatchCollection_1"><defs><path id="mc370ecc0a1" stroke="#f4f4e2" d="M182.3-213.2v.2l-.4.4-.4.5-.7.6-.7.6-1 .6-1 .5-2.8 1-.8.4-1.3.6-2.3 1.1-.7.4-.5.4-.5.4-.6.5-2.6 2.7-2.2 2-1.2 1.1-.9 1-.7.9-.6.7-.4.7-.4.7-.4.8-.3.7-.2.7-.1.7v.6l-.2 2.3-.3 2.2v.7l-.1 1.5v.7l.2.6.4.4.5.3.4.2.4.2 1.5.4.7.3.6.3.5.4.6.5.4.4.6.7.4.5.3.5 1.4 2.5.7 1 .7 1 .5.4.5.5.9.7.4.4.7.5 1.4.8 2.1 1.2 3.4 1.7.7.4.7.5.6.5.8.9 1.4 1.8.7.7.7.7.6.4.6.3 1 .4.7.3 1.8.5.9.3.9.3 1.2.6.6.3.7.4.7.5 1.8 1.4 1.1.7.5.3.9.4 1.2.5 1.2.5 2.7 1 1.6.6 1.2.5 1.1.5 1 .5.8.5 1 .6 3.5 2.4 1 .7 1.2.7 1.7 1 1.2.7 2 1 1.7.8 1.1.5.9.3v.4l.1.7v2.4l-.1 1.4-.3 1.6-.4 1.4-.5 1.2-.5 1-.6 1.2-1.6 2.8-.6 1.2-.6 1.3-.4 1.2-.4 1.1-.7 2.7-.4 1.4-.4 1.3-.6 1.3-.6 1.3-.6.8-1 1.3-1 1.3-1.6 1.8-1.1 1.4-.5.5-.6.5-1 .9-.6.5-.8.5-.4.2-1.1.6-.5.2-.8.2-1 .3-1.4.2H198l-2.7-.4-1.3-.2-1.3-.3-4.4-1.2-1.1-.2-1.1-.2h-4.3l-1.5.2-1.5.2-1.4.3-1.5.3-1.4.3-1.5.4-1.4.4-1.5.5-1.4.6-1.3.7-1.3.7-1.2.8-1 1-.8 1-.5 1.1-.4 1.3-.2 1.3-.1 1.4-.3 4.2v1.2l-.3 1.2-.3 1.4-.7 2.6-.2.6-.2 1.6v1.8l.1.7.2.6.2.8.4.7.6.6.5.5 1 .7 1.4.8.7.5.6.4.4.4.3.4.3.5.2.7v1l-.2 1-.2 1-.3 1.1-1.6 4.9-.3 1-.3 1-.2.8-.1.7-.1.9v1.3l.2.6.2.3.2.3.5.5.4.3.3.1.8.4.4.1.8.3 2.4.7.9.3.7.2.5.3.5.3.3.2.7.8.5.8.3.6.3.7.4 1 .3 1 .2 1 .1 1.3v2.4l-.1.4-.2.5-.2.4-.2.2-.2.3-.3.3-.3.1-.3.2-.5.2-2.2.7-1.5.5-.8.4-1.9 1-.8.3-3.2 1.3-.7.3-1 .5-.4.3-.6.5-.5.4-.4.7-.3.4-.2.5-.2.9-.1 1.2-.2.7-.2.8-.3.8-.5 1-1.3 2-.4.8-.3.7-.3.6-.2.7v.4l-.1.6v.7l.2.2h-.1l-.3-.1-.8-.4-.6-.4-.4-.4-.6-.4-.5-.5-.5-.5-1.3-1.7-.6-.6-1.2-1.3-2.3-2.1-2-2-.8-.7-.4-.3-.7-.5-.8-.5-1.6-1-1-.6-1-.6-1-.4-1.2-.5-.8-.3-.8-.2-1.2-.3-.8-.1-3.5-.6-.8-.2-1.2-.3-.7-.2-.8-.3-1-.5-1.2-.7-.6-.4-.6-.5-.8-.7-.9-1-1.7-2.2-.7-.8-.7-.7-.6-.6-.7-.6-.8-.6-.7-.5-1.2-.7-3.1-1.7-1.3-.8-5-3.1-3.3-1.9-1-.6-.6-.5-.6-.7-.4-.5-.3-.6-.2-.5v-.4l-.1-.5v-2.7l.3-1.2.4-1.2 1-3.2.4-1.1.5-1.5.1-.4v-.9l-.3-.2-.3-.2-.5-.1h-.4l-.7-.1h-1.2l-1.3.1-1 .2-1 .3-1 .2-1 .4-.8.3-4.5 2-1.4.5-.6.2-.8.3h-.6l-.6.1-1.1-.1-.7-.2-.8-.3-2.2-1-.6-.3-.4-.4-.4-.5-.3-.5-.2-.5-.2-.7-.2-.7-.1-.7-.5-3.2-.7-4.1-.1-.6-.2-.6-.2-.5-.3-.6-.3-.5-.4-.4-.5-.5-.5-.5-.6-.4-1-.6-1.3-.7-2.1-1-1-.6-.3-.3-.2-.2-.1-.2-.1-.2v-.8l.2-.6.2-.3.3-.5.4-.5 1-1.3.5-.6.3-.6.6-1 .4-.7.3-.8.4-1 .4-1.4.2-1 .3-1.5.2-2v-2.6l-.1-.3-.1-.2-.2-.4-.2-.2-.2-.2-.5-.3-.3-.2-.9-.3-1-.2-4.8-1-1.2-.2-1.2-.4-1.1-.3-8.2-2.8-3-1-3-1.2-4.4-1.7-1-.4-1.5-.4-1.3-.4-1.4-.4-1.7-.3-1.5-.3-1.5-.2-1.5-.2-1.5-.1h-3.3l-2.7.3-2.2.3v-.3l.1-.4.7-.6.9-.6 1.3-.8.6-.3 1.4-.7.4-.2.5-.4.3-.3.2-.3.2-.3.1-.2v-.5l.2-.7v-.4l.2-.3.3-.3.3-.4 2-2 .5-.5.3-.4.5-.6.4-.7.6-.9.4-.9.6-1.2.7-1.5 1.2-3L35-146l.9-2.2.6-1.3.6-1.1.5-.8.9-1.2 1-1.2 1-1 2-2.3 3.3-3.2 1.1-1 1.1-1 1.1-.8.5-.3.4-.3.5-.3 1-.4 1-.2 3-.7 2.5-.7 1-.3.8-.4.6-.3.7-.5.6-.5.7-.5 2-2 .8-.7 1-.8.7-.5 2.3-1.7 1.4-1 1.5-1.2 1-1 .8-.7.9-1 .8-1 1.4-1.6.8-1 .7-1.2.4-.6.4-.6.5-1 .3-.5.3-.7.3-1 .4-1.3.2-.9.2-1 .1-1.3v-2l-.1-.8-.3-1.1-.3-1-.3-.7-.5-1-.8-1.2-1.8-2.5-.8-1.1-.6-1-.4-.7-.6-1.3-2.9-6.2-.7-1.5-1-1.9-.5-1-.7-1-1-1.3-1-1.2L66-223l-.8-.8-.6-.5-2-1.5.4-1 .3-.5.9-2.3.2-.4.2-.4.3-.3.3-.2.4-.2.4-.1 1.1-.4.8-.3 2.7-1.5.7-.5.4-.2.2-.3.2-.4.2-.5.2-.8.2-.4.2-.4.2-.3.3-.2.4-.1.3-.2h.4l.6-.1h.4l.3.1.5.3.3.1h1.1l.6-.1.9-.3 1.1-.5h.4l2-1 1.4-.5.8-.3 1-.3.7-.2 1.3-.2 1.6-.2 1-.1h1.2l2.5-.1h3.7l4.8.3 8 .6 2.7.1h5l1.2-.2.4-.1 1.2-.3 1-.3 1-.4.7-.4.6-.4.8-.5.6-.5.5-.5.5-.5.5-.6.3-.4.4-.6.4-.6 1.9-4 1-1.7 2.8-4.6.3-.6.4-.5h.2l.1-.4.4-.4.4-.4.4-.4.6-.4.5-.4.8-.4.6-.2.7-.2.8-.2h2l1 .2 1.1.3 2.3.8 1 .3 3.4 1 4.7 1.4 3.5 1 2 .6 1.4.6 2 .9 1.4.7 1.5.8 2.6 1.5 2.8 1.6 1.2.7.6.3.4.3.3.2.1.3.2.5v1l-.2.5-.2.5-.4.6-.5.7-.5.7-1.2 1.4-.4.7-.3.6-.1.3v.6l.2.4.3.6.5.5.7.4.5.2.7.2 1.3.3 4 .8 1.4.2.7.2.7.3.6.2.5.3.6.5.4.5.3.5.2.8.4 1.5.1.9v1.8l-.3 1.4-.5 1.8-.5 1.2-1.6 4.3-.3 1-.3 1.2-.4 1.6-.2 1.4v1.1l.1.2v.1h.1"/></defs><g clip-path="url(#p7877416317)"><use xlink:href="#mc370ecc0a1" y="280.5" fill="#f4f4e2" stroke="#f4f4e2"/></g></g></g></g><defs><clipPath id="p7877416317"><path d="M7.2 7.2h227.2v266.1H7.2z"/></clipPath></defs></svg>