<svg xmlns="http://www.w3.org/2000/svg" xmlns:xlink="http://www.w3.org/1999/xlink" width="413" height="374" viewBox="0 0 309.7 280.5"><defs><style>*{stroke-linejoin:round;stroke-linecap:butt}</style></defs><g id="figure_1"><path id="patch_1" fill="none" d="M0 280.5h309.7V0H0z"/><g id="axes_1"><g id="PatchCollection_1"><defs><path id="m432fbe9fac" stroke="#f4f4e2" d="M260.6-224.6h.1l.2.4v.9l-.2.5-.5.8-.9 1.2-2.4 3-1.1 1.3-1.7 2.5-2.8 3.8-.8 1.2-.3.8-.1.4v1.1l.5.9.7 1.4 1 1.8.3.5.3.7.2 1.5.2.4.2.4.5.5.6.5.6.5.9.6.6.3.5.3 1.4.4.2.1v1.5l-.2 1-.3 1.2-.7 2.6-1.2 4.2-1.4 4-.8 2.1-1 2-1.7 3.6-.6 1.3-.2.6-.2.8-.1.4v.7l.2.9.4.8.6.9.7.8 3.2 3.5.8.9 1.2 1.5 1.2 1.7.7 1 .9 1.5.6 1.2.5 1.1.3.9.3 1 .2 1 .1.9.2 1.3.3 4 .2 1.4.2 1 .4 1.3.6 1.2.3.4.2.3.2.2h.1l.3.3.5.3h1.4l.6-.3.6-.6.5-.8 1-1.6.5-.7.7-.3h.7l.6.3.8.4.8.6 1 .8 4 3.4 1.3 1 1.3.8.6.3 1.3.6 3.4 1.5 1 .5.7.6.4.6.1.5v.3l-.3.8-.6 1-.9 1.3-.6.9-.7.8-2 2.3-.9 1-1.4 1.4-2.9 2.6-1 1-.9 1-.8 1.2-.8 1.2-1 1.6-1 1.8-2 4-.3.7-.4 1.2-.1.8v.7l.2 1 .4.6.4.2-.7 2.6v1.1h.2l.2.1 1.3.1.5.2 1.2.3 1.2.2.4.2.2.1.3.2.2.2v.7l-.2.3-.5.5-.7.5-2.2 1.5-.7.6-.3.2-.3.3-.2.4-.1.3v.6l.1.2h.1l-1.4.3-1.6.2-1.3.1h-3l.2.1.4.1 3.9 1.1 1.2.4 1.5.6v.4l.1.8v2l-.3 2.6-.2 1.5-.5 2.6-1 4.6-.6 2.6-.3 1-.3 1-.3.6-.4.7-2.2 3.7-.5.8-1.1 1.6-.5.8-.5.9-.4.8-1 2.6-.4.7-1.6 3-1.1 1.8-1.6 3-3.8 5.8-.7.9-.5.4-.6.4-.9.5-5.6 2.7-1.6.8-2.2 1.2-1.9 1.2-.8.7-1.6 1.3-.3.4-.2-.4-.5-.7-.8-1-1.2-1.2-1-.9-1.6-1-1.7-.8-1.1-.3-1.1-.3-1.4-.1-2-.1H220l-1.4-.2h-1.2l-1.3-.3-1.6-.4-1-.4-1-.7-1.4-1.2-.7-.8-2-2.5-1.3-1.4-.8-.7-1.1-1-.8-.6-.8-.6-1.2-.6-1.3-.4-1.7-.2h-.9l-1.8.5-1.8.7-1.9 1-1.8 1-5.6 3.6-1.9 1.1-1.8 1-1.7.8-1.7.6-1.6.2h-1l-1.2-.3-1-.4-1.2-.4-2-1-1.1-.3-2.4-.7-1.8-.7-1-.2-.5-.1-.9-.1h-6.7l-1.8.3-5.4 1.3-1.7.2-2.5.1-1.1.1-.7.1-.6.3-.6.3-.5.4-.4.5-.6.7-.6.8-1.2 2-.6.8-.7.8-1 .6-1.1.5-2.8 1-1.4.5-.9.4-1.7.9-1.7 1L124-28l-5.2 4-2 1.6-1 .6-.9.5-1 .4-1.2.5-1.2.4-2 .4-.9.2-1.2.1H106l-1-.3-1-.3-1-.5-1.5-.9-1.6-1-1.4-1.2-4.3-3.6-1.7-1.3-.7-.5-1-.5-1.2-.4-3.7-.6h-3l-1 .4-1.2.4-1.4.6-1.6.8-1 .7-2.2 1.8-1 .6-.9.4-1 .3h-1.3l-1-.3-.4-.2-1-.5-4.4-2.7-1.8-1-1.2-.6-2.1-.9-2.6-1-2.9-1-2-.5-2.3-.7-3.2-.8-2.3-.5-1.8-.3-1.5-.2h-4.3l-5.2-.3h-.9l-.3-.2v-.3l.5-.5.8-.6.9-.6 1.2-.5 3-1.3 1.1-.5 1.1-.7 1.7-1 .7-.6.6-.5.8-1 .8-1 .2-.5.2-.5v-.5l-.4-.7-.1-.6v-.6l.2-.6.6-1.1.2-.5.2-.6v-.6l-.1-.7-.1-.5-.4-1-.6-1-.7-1-.7-1-.9-.9-2.6-2.6-2-2.2-.9-1-.9-1.2-.8-1.1-.7-1.1-.6-1-.2-.8-.1-.6v-1.1l.2-.4.5-1.8.2-.8v-2l-.4-.8-.1-.2-.5-.6-.4-.3L29-76l-.7.6-.4.2h-.1l-.3-.1-.2-.3v-.4l.2-.3.3-.3 3.9-3.7-6-1-1.4-.3L23-82l-.6-.2-.5-.2-.6-.4-.3-.3-.2-.3-.1-.4v-.9l.2-.5.2-.5.9-1.6 2.3-3.8.9-1.7.5-1.2.6-2.2.5-1.2.6-1.1.6-1 .6-.8.2-.2.1.3v.1l.3.2.4.3 1 .4.7.2.7.2.9.2h2l1-.1.7-.2 1.7-.5 2-.8 4.7-1.9 1.8-.6 1-.2.6-.1 1-.1h1l.6.1 1.2.4.6.2 3.1 1.7 1 .3 1 .2h1.8l.8-.3.8-.4 1-.4 1-.6 1.9-1.3 3.3-2.3 2-1.5 1.4-1.2 1-.8.9-.9 1-1.1 1.5-1.7 3-3.7 2.3-3.1 1.4-2 .8-1.3.5-1 .5-1 .4-.8.2-.6.3-1 .3-1.1.1-1 .2-1.5v-4.2l-.2-4.5v-2.4l.2-1.6.1-1.2.5-3.9.3-2.7.2-2.4.4-7.4.2-2.7.2-1.3.3-1.3.3-1 .8-2 .6-1.7.3-.6.3-.6.7-1 1.2-1 1.5-1 1.6-1 1.8-.8 2-.7 2-.7 4-1.3 7.2-2.2 3.5-1.2 1.6-.6 2.2-.9 2-1 1.1-.6.9-.8.6-.6.4-.7.4-1 .3-.7.3-1 .2-.7.6-3.8.2-1 .3-1.1.5-1.7.5-1.3.9-2.2.5-1 1.3-2.5 1.2-2.2.7-1.3 2.8-4.5 1.1-1.5.7-.8.6-.8 1.2-1.1 1.2-1 1-.7 1-.7 4-2.4 2.1-1.1 1.7-.7 2.6-.6.5-.1.6-.4.6-.5.5-.5.2-.3.3-.6.3-1 .3-.7.5-2.2.3-1.2.4-1 .2-.4.4-.6.3-.4.4-.4.5-.3.6-.4.8-.4.6-.2h.5l.8-.2h1.1l1.8.2 3.3.6 2.8.4 4.2.5 1.3.1h1l.6-.2 1-.2 3-1 1.2-.4 1.3-.1h.8l.9.1 1.4.4 8.2 2.5 1.2.3 1.8.3h.9l.8.1h.7l1-.2.6-.1.7-.2.7-.3.8-.5.8-.6.7-.7.8-.7 1.3-1.7 1.3-2 1.2-2.3 1-2.3 1.1-2.5 1-2.5 1-2.5.7-2.5.7-2.1.5-1.7.2-1 .4-.7 1.2.8 2 1.3 1.4 1 2 1.6 3 2.6 9 8 2.6 2.2 1.7 1.5 5 3.9 2.3 1.9 2.9 2.5 2.5 2.5 3.9 3.9 1.5 1.5 1.2 1.4"/></defs><g clip-path="url(#p46badd6efb)"><use xlink:href="#m432fbe9fac" y="280.5" fill="#f4f4e2" stroke="#f4f4e2"/></g></g></g></g><defs><clipPath id="p46badd6efb"><path d="M7.2 7.2h295.3v266.1H7.2z"/></clipPath></defs></svg>