<svg xmlns="http://www.w3.org/2000/svg" xmlns:xlink="http://www.w3.org/1999/xlink" width="495.4" height="352.7" viewBox="0 0 371.5 264.5"><defs><style>*{stroke-linejoin:round;stroke-linecap:butt}</style></defs><g id="figure_1"><path id="patch_1" fill="none" d="M0 264.5h371.5V0H0z"/><g id="axes_1"><g id="PatchCollection_1"><defs><path id="mceee4e65ae" stroke="#f4f4e2" d="m229.8-219.9-.2.6-.2.7-.5 1.4-.4 1.7-.2 1-.1 1.4v.7l.1.7.5 1 .2.3.4.4.6.5.5.4 2.6 1.6.6.5.5.5.2.3.2.3v.6l-.1.4-.2.5-.2.3-.8 1.2-1.4 1.8-.2.5-.4.7-.3.7v.4l-.1.8v.5l.2.4.2.5.3.6.4.6.5.7.9 1.1.5.6 1 .8 1 1 1.1.8 1.3.9 1.6 1 1 .5 2.1 1 3.7 1.6 1.6.6 1.2.4 1 .3 2.2.5 1.2.3 1.8.3 10.2 1.2 5.5.6 2 .2 2 .4.8.2.6.3h.3l.5.3.2.2.3.4.4.5v1.2l-.2.4-.2.6-.3.5-.7 1.2-.7.9-5.9 8-.9 1.4-.3.6-.5 1-.4.9-.3.9-.1 1v1.9l.2.3.5.7.2.2.4.2.4.1.6.1h1.8l.9-.2 2-.7 1.3-.3h2.2l.8.3.6.2 2.2.9 1 .4.6.1.8.2 1.1.1h1.7l.5-.3.2-.1.3-.3.9-.8.5-.4.5-.4.9-.5.9-.4 1-.3 1-.2h1.4l2.6.2h3.5l1.3-.2 2.2-.3 3-.6 5-1 2-.3 1.3-.1h1l1.4.1 1 .2 1.5.4 1 .3 1.1.4 1.1.5 1.2.6 1.8 1 1.1.7 1.7 1.1 1 1 1.2.9 1 1 1 1 1.5 1.7 1 1.2 1 1.3 1.3 1.9 1.4 2 .2.4h.1l.7.5.6.5 1.2 1.1 1 1 1.1 1.4.7.9.6 1 .3.8.5 1.5.3 1.7.1 1.7v3.4l-.2 4.9-.1 4.8v2.4l.3 1.2v2.1l-.2.6-.2.5-.4.5-.8.7-.6.3-.7.1-.5.1H342l-1.7-.3-1.3-.3-1.5-.3-2-.5-1.1-.2-1.1-.1H332l-.6.2-.9.4-1 .6-2.2 1.4-.9.5-1 .5-.5.2-.7.1h-1l-1-.1-2.8-.8h-1.3l-1.4.2-1.6.3-4.5 1-1.3.2h-2l-.9-.2-.9-.2-1.2-.4-.7-.3-1.6-.8-4.4-2.6-3.3-1.8-1-.5-1.1-.5-1-.4-1-.2-1.2-.2h-1.7l-1.5.1-2.3.3-.8.2-1.2.2-1.4.4-1.4.6-1.4.6-1.3.7-.8.6-.7.6-.3.3-.6.7-.3.5-.6 1-.7 1.5-1.2 2.4-.3.7-.2.5-.3 1v1.8l.4.7.5.5.7.3.7.3 2.2.3.4.1.5.2.7.3.6.7.5.8.4.9v2.2l-.3 1-.4.8-.4.8-.7 1.3-2.4 3.7-2.5 4-.9 1.3-.8 1.1-1.4 1.5-1 1-.5.5-2.2 1.8-.7.6-4 3.9-3 3.1-4 3.9-1.6 1.6-1.9 2-1.5 1.7-.5.6h-1.3l-1-.1h-3l-1.1.3-1 .3h-.4l-1 .5-.7.4-.6.6-.5.7-.2.7v.7l.3.7.5 1 1.4 2 .3.4.3.7 1 2.2.7 1.2.6 1 2 2.3.5 1 .4.5.6 1.3.3.7.4 1.1.4 1.3.2 1.3v2.1l-.2.6-.2.6-.3.5-.4.6-.8.7-.9.6-1 .4h-.4l-1 .2-1.1.1h-1.2l-.7-.2-1-.2-.9-.3-1.1-.4-1.4-.6-1.8-1-1-.5-1-.7-.5-.5-1-1-.8-1.3-2.9-4.7-1.4-2.4-.8-1.1-.5-.7-.4-.3-.8-.6-.8-.5-.8-.4-1.5-.6-.8-.3-1.2-.3h-1.7l-.6.2-.6.2-.6.3-1 .6-.7.5-.6.5-.9.8-2.4 2.3-1.2 1.1-1 .8-1.3 1-1.4.7-1 .6-1.1.5-1.5.7-1.8.6-5.7 1.7-1.5.4-1 .2-1.5.2-1 .1H184l-1.8.1H181l-1.6-.1-1.4-.1-1.8-.3-2.1-.4-1-.2-.8-.4-2-1-1.2-.5-1-.4-1-.2-1.8-.2-1.7-.4H161l-1 .2-1 .3-1 .3-1.7.7-1.2.7-.6.3-.5.4-.2.4v.2l.1.4.4.3.6.4 1.4 1.3.8.6 1.5 1 .7.4.5.6.4.6.2.6.1.8v.5l-.1.5-.1.4-.3.6-.4.6-.2.2-.5.6-.7.6-1 .7-.8.5-1 .5-1 .4-1 .4-1.5.5-1.3.3-.8.1-1.3.1h-.9l-1-.2-.9-.3-1.6-.7-1-.3-2.1-.5-.7-.3-.9-.3-2.5-1.3-1.1-.4-1.6-.4-2.6-.6-.8-.3-1-.5-1.7-1h-.4l-.6-.2h-.6l-.6.2-.6.3-.3.2-.4.5-1 1.4-.5.8-.7.8-.8.6-1 .6-.8.4-.7.1h-.4v-.2l-.2-.2-.6-.3-5.8-2.4-1.3-.6-.5-.3-.3-.1-.7-.6-.3-.4v-.5l.1-.8.2-.4.4-.5.4-.5.9-1 3.2-3.5.6-.6.8-.8.6-.5.9-.6 2-1.5 1.2-1 1.2-1 1-1 .6-1 .3-.7.1-.3v-1.3l-.2-.5-.2-.3-.3-.4-.4-.5-.7-.7-.5-.3-.7-.5-1.1-.6-2.3-1.2-.6-.3-1.1-.7-1-.9-1-1-.6-.8-.5-.9-.3-.6-1-2.3-.4-1-.8-1.4-.5-.9-1-1.5-.9-1-.5-.6-.7-.5-.6-.4-.8-.3-.8-.1-2.7-.2-.7-.1-.3-.1-1-.6-1-.7-.9-1-2-2-6.6-7-1.5-1.7-1.5-1.8-1-1.4-.8-1-.7-1-.7-1.4-.3-.8-1-2.7-.5-.9-.7-1.3-.8-1.3-.6-.9-.4-.4.4-.2.5-.5.4-.5.4-.9.2-1 .3-1.7.2-1.1.8-2.8.2-.9.1-.7v-1.5l-.1-.6-.3-1-.2-.8-.3-.6-.3-.7-.4-.8-.9-1.2-.9-1.1-1-1-1.5-1.4-3.2-2.7-1-1-.8-.8-.8-.9-.6-.9-.6-.8-2.2-3.7-.6-.8-1.2-1.6-.6-1-.5-.7-.3-.6-1.3-3.4-.5-1.3-.4-2-.2-.8-.3-.8-.6-1.3-1-2.1-1.4-2.4-4-6-.5-1-1.7-3.9-.5-1-.5-.8-.3-.4-.3-.4-2.9-3.3-1.3-1.5-1.3-1.5-.8-.8-2.8-2.8-1.5-1.4-1.3-1-1.2-1-1.5-1.2-1-.6-1.2-.6-2.5-1.2-1.2-.8-1-.8-.7-1-.8-1-.6-1.1L25-179l-1-2-.3-.8-.2-.4v-.2l.3-.2.4-.4.5-.7.6-.8 2.6-4 1-1.4 1-1.2 1.2-1.1 1.2-.9.7-.3.8-.3.7-.2 2.5-.5 1.5-.3 3-1 1.5-.3 1-.2.8-.2 4.6-.4 1.8-.2 1-.2 1.1-.2 1.1-.2 1.7-.5 1.6-.6 1.3-.5 1.2-.6 1.4-.7 1.4-.8 2.4-1.5.8-.5 1-.5.8-.4.8-.3 3.5-1 1-.3 1-.4 1.2-.6 1.3-.7 1-.8.6-.4.7-.6.6-.7.5-.6.5-.7.6-1 .5-.9.3-.8.2-.9v-1.5l-.3-2.2v-.7l.2-.7.3-.3.4-.3H84l.7.3 1.6.5.9.2 1.2.1h1.3l1.2-.2.7-.2 1-.3.7-.4.6-.4.5-.5.2-.5.1-.6-.1-.6-.2-.5-.8-1.6-.4-.9-.2-1v-1.7l.2-.7.5-1.2.6-1.1.6-.9.7-1 1.3-1.8L98-237l.4-.6.2-.2.2-.9v-.8l-.2-.4-.3-.4-.3-.4-.7-.5-1-.7-.7-.4-.3-.3-.3-.4-.1-.4-.1-.4v-.6l.2-.4.2-.3h.8v.3l.5.3.6.2 1.4.2 1.1.1h2.6l2-.3 2-.4 2.9-.7 1.6-.2.7-.1 1.3-.1h1.4l1 .1.8.1 1.5.5 1.5.7 1.3 1 1.2 1 3.4 3.5 1.2 1 1.3 1 1.4.8 1.2.6.8.3.6.2 1 .2.7.1h2.8l1.2-.2 2.7-.3 2-.3 1.8-.1 1.7-.1h7.5l4.1.2h1.2l.9-.2 1.1-.1 1.5-.3 1.2-.3 1.2-.4 1.1-.5 1.4-.5 4.4-2 1-.5 1-.3.4-.1 1.5-.3 1.1-.1h7l1.2.2 1.5.2 1 .2.7.2.8.3.6.2 1 .5 1 .7.7.5.6.6.8.8.3.4.7.9 1.7 2.8.8 1.1 1.8 2.2 1.4 1.7.9.9 1 1 1 1 .6.5.8.6 1 .7 1.6 1.1.8.5 1.2.6 1.6.7 1.2.4 1.7.4 1 .2 1 .2 1.3.2h2.6l5-.7 2.2-.3 1.7-.1 1.5-.1h.6"/></defs><g clip-path="url(#p4b1f0d3904)"><use xlink:href="#mceee4e65ae" y="264.5" fill="#f4f4e2" stroke="#f4f4e2"/></g></g></g></g><defs><clipPath id="p4b1f0d3904"><path d="M7.2 7.2h357.1v250.1H7.2z"/></clipPath></defs></svg>