<svg xmlns="http://www.w3.org/2000/svg" xmlns:xlink="http://www.w3.org/1999/xlink" width="299" height="374" viewBox="0 0 224.2 280.5"><defs><style>*{stroke-linejoin:round;stroke-linecap:butt}</style></defs><g id="figure_1"><path id="patch_1" fill="none" d="M0 280.5h224.2V0H0z"/><g id="axes_1"><g id="PatchCollection_1"><defs><path id="m2d62ef70e5" stroke="#f4f4e2" d="m175-118.7.3.6.3 1.6.4 2 .2 2.5.2 2.6v2.5l-.2 2.7-.3 2.5-.1 2.4.2 2.2.5 1.6.7 1.6 2.2 4 .6 1.4.5 1.5.3 1.9v2l-.3 4-.1 2v1.9l.5 1.7.9 1.6 1.2 1.4.7.7L187-67l1 .9 5.4 5.2 1.9 1.7 1.9 1.6 2 1.3 2 1 1.9 1 1.7 1 1.4 1.1.7 1 .5 1.3.2 1.4v1.6l-.3 1.9-.3 1.3-.5 1.6-.7 2.1-1.1 2.6-1.4 2.8-.8 1.8-1.9 5.6-.7 1.7-.6 1-1 1.1-.2.3-.6.4-.8.4-1 .3-1.2.2h-3.6l-1.7-.2-6.1-1-4.2-.4-2.1-.2-2.4-.6-7.2-2-3.3-.8-1.4-.3-1.7-.3-1.4-.1h-2l-1.5.2-1 .2-.3.1-2 1-1.6 1.1-1.4 1.3-.8 1.3-.3.5v.4l-.6-.4-2.5-2.4-1.2-1-.5-.2-.4-.2-.4-.1h-.4l-.4.1-.9.4-2 1-1.2.7-3.3 1.2-3 1-7.7 2.3-.1-.3-1.2-1.5-5.9-7.6-2.5-3.2-1.1-1.6-.6-1-.4-1-.2-1.2-.2-2.3-.2-1-.3-1-.5-.9-.5-.8-.5-.7-1.4-1.8-1.6-1.9-1.2-1.1-1.2-1-.7-.5-.7-.5-1.2-.6-1.6-.7-1.2-.4-1-.2-2.5-.4-2.4-.2-3.2-.1H77.3l-2-.2-1-.2-.8-.2-.4-.3-.6-.5-.4-.6-.2-.6v-.4h.2l-.1-.8-.5-1.3-.7-1.5-.8-1.8-.4-1.7-.4-2.4-.2-2.3v-3l.1-1.9.3-2 .2-1.9.4-1.7.8-3.6.8-3.3.8-2.6.7-2 .4-1.4 1.7-3.6.8-2 .6-1.7.4-1.7.2-1.7v-3.7l-.2-2.1-.2-1.2-.3-.9-.8-1.9-.7-1-.8-1-1.5-1.6-1.1-1.1-7.7-6.7-2.6-2.5-1.5-1.3-1.4-1-1.5-.8-2.5-1.2-1.4-.8-.8-.7-.3-.3-.4-.7-.5-1.6v-2l.2-2.3.4-2.3 1.6-7.7.5-2.5.4-2.5v-4.1l-.5-1.6-.7-1.6-1-1.5-1-1.3-1-1.3-1.5-1.6-1.6-1.5-1.4-1.1-1.3-1-1.8-1.2-1.8-1.1-7-4.3-3.3-2.2-2-1.5-1.6-1.2-3-2.4-1.2-1.1-1.2-1.2-1.8-1.9-1.4-2-.8-1.6-.3-.7-.1-.8v-1.1l.4-1.9.7-1.8 1-1.6.6-1 .8-1 1.4-1.6 1.1-1 1.8-1.5 1-.9 5.1-3.2 4.8-3.2 7.8-5.4 7.6-5.5 5-3.7 4.4-3.4 1.8-1.4 1-1 .3-.4.5-.3 1-1 2.2-2.7 1-1.3 1-1.4 1-1.8 1.7-3.2 2.3-5.2 1-2.1 1-2 1-1.7.8-1.2.6-.8 1-1.1.8-.7.6-.4 1-.5 1.5-.3h1.5l1.4.2 1.4.3 1.8.6 1.7.6 2.3 1 6.7 3 1.6.6 2.1.7 1.8.6 1.3.3 2.5.5 1 .1 1.8.1h3l2.3-.4 2.3-.1 2.2.1 1.7.6 1.6.9 1.5 1.2 1.2 1.4 1 1.5 1.6 3.5.8 2 .6 1.9.5 2 .5 2 .7 4 .2 2v1.8l-.1 1-.2.8-.5 1.7-.6 1.5-.8 1.3-.8.9-1.3 1.1-1.2.9-2.9 1.8-.6.5-.7.6-.4.5-.5 1-.3.7-.2 1-.1 1.4v1.2l.5 1.6.8 1.6 1 1.5 1 1.3.6 1 .8 1.5.6 1.6.2 1.6-.3 1.6-.2.6-.7 1.4-1 1.4-1.9 2.5-1.8 2.3-2.2 2.4-1 1-1.7 1.6-4.3 3.7-1.1 1.3-.4.8-.4 1.3-.1 1.3-.1 2.7-.2 1.3-.5 2.2-.3.8-.5 1.3-.6 1-1.2 1.7-.1.4-.1.5v.8l.5 1 .8 1.3.7 1 .8.9 1 1.1 1.4 1.2 2.5 2 1.7 1.3 1.7 1.1 3.9 2.2 4.3 2.2 2.6 1.3 1.4 1 1.3 1 1.6 1.6 1.5 1.4 2.1 1.5 1.5.8 1.6.6 2 .3 2 .2 2.2.2 1.3.3 1.1.4 1.5.5 1.7.7 1.5.8 2.2 1.2 3.3 2 2 1.5 2.1 1.6 4.5 3.6 7.1 6.2"/></defs><g clip-path="url(#pa7b5eb57e4)"><use xlink:href="#m2d62ef70e5" y="280.5" fill="#f4f4e2" stroke="#f4f4e2"/></g></g></g></g><defs><clipPath id="pa7b5eb57e4"><path d="M7.2 7.2H217v266.1H7.2z"/></clipPath></defs></svg>