<svg xmlns="http://www.w3.org/2000/svg" xmlns:xlink="http://www.w3.org/1999/xlink" width="403.1" height="374" viewBox="0 0 302.3 280.5"><defs><style>*{stroke-linejoin:round;stroke-linecap:butt}</style></defs><g id="figure_1"><path id="patch_1" fill="none" d="M0 280.5h302.3V0H0z"/><g id="axes_1"><g id="PatchCollection_1"><defs><path id="maace20adca" stroke="#f4f4e2" d="m272-211.7.4 1.1 1.6 4.5 1.6 4.3 1.7 5.3 1.5 4.7.7 2.7.3 1.4.4 2 .1 2.2v2.7l-.1 2-.3 2-.3 1.4-.6 2-1.3 4.2-.5 2.1-.2 1.8v3.3l.1 5.6.3 3.2v2.9l-.3 2.8.1 1.4.4 1.3.7 1.3 1.4 2.6.7 1.6.5 1.6.2 1.2.5 3.1.3 3 .1 3.8v2l-.3 2.2-.4 2.2-1 4-.6 2-1 2.4-1.3 2.5-1.4 2.3-1.5 2.2-2 2.6-2.3 2.6-1.6.6-4 2-3.1 1.3-3.1 1.1-1.8.6-2.1.5-1.9.3h-1.4l-1.3-.1-2.9-.5-1.8-.3h-1.3l-1.2.2-1.5.5-3 1.6-1.6.8-1.7.6-2 .5-2.2.4-1.7.2-2.9.4-8.6.8-5.1.6-3.5.6-2.5.5-.9.3-1.6.5-.9.3-1.6.8-.8.5-1.5 1-1.5 1.2-.9.9-.7.8-.8 1-1 1.7-.8 1.6-.6 1.7-.2 1.7v.6l.3 1.5.5 1.7.6 1.3.7 1.4.6 1 1 1.7 1.4 2 1.3 2 4.5 6 1.8 2.7 1.3 2 1.5 2.7 1 2.5.3.8.4 1.6.3 1.8.3 2.7v3.7l-.2.2-2.6-.3-1.7-.4-1.5-.3-1.2-.5-1.1-.4-5-2.5-7.3-3.1-2.6-1.2-1-.6-1-.6-.7-.6-.7-1-.2-.5v-.3l-.1-2.5-.2-.5-.4-.7-.3-.3-.7-.4-.7-.3-1-.4-1-.2h-1.7l-.8.3-1 .6-2.1 1.3-1.1.6-1 .4-1.2.3-3.1.9-1.6.4-1.2.5-1.2.4-1.3.8-1.2.9-.8.6-1.3 1.4-1.2 1.6-.5.7-.8 1.4-.7 1.5-1 2.8-1.6 4.2-1 2.4-.8 2-1.6 3.4-.6 1-.3.4-7.3-6.3-4.6-3.7-2.2-1.7-2-1.4-3.4-2-2.2-1.3-1.6-.8-1.7-.7-1.5-.6-1.1-.4-1.4-.3-2.3-.2-2-.2-2-.3-1.7-.6-1.5-.9-2.1-1.5-1.6-1.4-1.7-1.6-1.3-1.1-1.4-1-2.7-1.4-4.4-2.2-4-2.2-1.7-1.2-1.7-1.3-2.7-2.1-1.3-1.2-1.1-1.1-.8-1-.8-1-.8-1.3-.4-1v-1.3l.2-.4 1.2-1.7.6-1.2.5-1.2.3-.9.5-2.2.2-1.3.1-2.8.2-1.4.3-1.2.5-.9 1.1-1.3 4.4-3.8 1.7-1.7 1-1 2.3-2.5 1.9-2.3 2-2.6.9-1.4.7-1.4.3-.6.3-1.7-.2-1.6-.6-1.6-.9-1.6-.7-1-1-1.4-1-1.5-.7-1.6-.5-1.7v-2.6l.3-1 .2-.8.6-1 .4-.5.7-.7.6-.5 3-1.8 1.2-.9 1.3-1.1.9-1 .8-1.3.6-1.5.5-1.7.2-.8v-3l-.2-2-.7-4.1-.4-2-.5-2.1-.7-2-.8-2-1.7-3.5-1-1.6-1.2-1.4-1.5-1.3-1.6-1-1.8-.5-2.3-.1-2.3.1-2.5.3-3 .2-1.7-.1-1-.2-2.7-.5-1.3-.3-1.8-.6-2.2-.8-1.6-.6-6.9-3-2.3-1-1.7-.7-2-.6-1.4-.3-1.4-.2h-1.6l-1.4.3-1.1.6-.6.4-.8.7-1 1-.7 1-.8 1.2-1 1.7-1.1 2-1 2.1-2.3 5.4-1.7 3.3-1.1 1.8-1 1.5-1 1.3-2.3 2.8-1 1-.5.3-2.3-1.4-5.7-3.3-1.7-1-1.5-1-.6-.6-.5-.6-.3-.5-.2-.5v-1.3l.5-2.2v-6l-.4-2.6-.1-.8v-.8l.1-.6.2-.6.9-2 .2-.6.1-1.3v-3.6l-.4-.8-.4-.8-.5-.8-.6-.6-.4-.4-.3-.2v-.2l.2-.3.6-.6.8-.8 1.2-1.1 1.6-1.3.8-.7 2-1.3 2-1.2 2-1 3.3-1.7 7.1-3.2 1.7-.9 1.3-.9.7-.5 1-.8.8-.7 4-4.2 2.5-2.5 2.1-1.8 3-2.4 2.7-2 2.6-1.8 2.8-1.7 11.5-7.1 2.7-1.8 3-2 1.9-1.4 3.3-2.6 5.3-4.3 5.8-4.8 1.5-1.2 1.5-1.1 1.6-1 1.5-1 1.6-.8 5.5-2 3.4-1.5 1-.5.6-.3v.3l.3.8.8 1.3.7 1 1.5 1.9 1.2 1.3 6.9 7.3 1 1.1 1.6 2 1.1 1.6 2.3 3.3 1.3 2 3 5 1 1.6.9 1.4 1 1.3.8.9.8.7.6.4.9.4 1.4.3 1-.1 1.3-.5.9-.5 3-2 1.3-.7.6-.2 1.5-.5 2.9-.9.8-.2.7-.3 1.1-.6 1.1-.7 1.1-.8 1.5-1.4 1.3-1.5 1.2-1.6 1-1.4.8-1.5.6-1.3.6-1.3 1-2.6.4-1.5 2-6.7 1-3.3.7-2.1.9-2 1-1.7 1-1.6 1.3-1.6 1.2-1.2.9-.7 1.4-1 6.7-4.8 1.7-1.2 3.6-2.1 1.6-1 2.4-1.2 2.5-1 1.8-.8 1.7-.7 1.6-.5 1.9-.5 1.6-.4 2-.2h2l1.2.3 1 .4.8.5.5.5.5.7.6 1.3.9 2.3 2.5 8.2.8 2.6.7 1.9.8 1.8 1.2 2.5 2.5 4.8 3.7 7.4 1.2 2.3 1.7 2.4.8 1 2 2.1 1.6 1.6 1.1.9 1.9 1.3 2 1.2 2 1 2 .7 1.7.6 2.1.5 2.5.5 1.7.2 2.4.2h3.4l3-.4 2.5-.7 1.9-.6.7-.5"/></defs><g clip-path="url(#p2457fb6ea3)"><use xlink:href="#maace20adca" y="280.5" fill="#f4f4e2" stroke="#f4f4e2"/></g></g></g></g><defs><clipPath id="p2457fb6ea3"><path d="M7.2 7.2h287.9v266.1H7.2z"/></clipPath></defs></svg>