<svg xmlns="http://www.w3.org/2000/svg" xmlns:xlink="http://www.w3.org/1999/xlink" width="439.3" height="374" viewBox="0 0 329.5 280.5"><defs><style>*{stroke-linejoin:round;stroke-linecap:butt}</style></defs><g id="figure_1"><path id="patch_1" fill="none" d="M0 280.5h329.5V0H0z"/><g id="axes_1"><g id="PatchCollection_1"><defs><path id="m3c02648254" stroke="#f4f4e2" d="M177.4-259h.2l.3.3.7 1 1.3 2.3 3 5.4 1.7 3.8 2 4.7 1.2 3.1 1 3.2.9 3 .6 3 .3 2.5.2 2.5v4.9l-.2 2.6-.3 2.5-.5 2.2-.6 2.1-.7 2.3-.8 2.2-1 2.2-1.1 2.2-1.5 2.7-1.6 2.5-1.7 2.6-1.7 2.5-7.6 10.4-1.5 2.2-2 3.1-1.6 2.9-1.7 3.2-1.6 3.3-1.4 3.2-1.1 3-1 3-1 3.5-.5 3.5-.2 2.7v2.7l.4 2.3.5 2.2.8 2.2 1 2 .8 1.3 1.5 1.9 1.3 1.3 1.4 1.3 2.6 1.8 2.9 1.6 3.6 1.4 3.5 1 3.7.7 3.8.6 4 .4h5.9l4.4-.3 6.9-.8 3.2-.3h3.1l2.6.2 2.5.4 3.3 1 2.3 1.1 1.8 1 1.7 1.2 1.7 1.2 1.5 1.3 5.8 5.3 1.6 1.3 1.6 1.3 1.7 1 2.6 1.5 2.4.8 2 .4 2 .2 1.8-.2 1.5-.3 2-.8 1.5-1 1.5-1.5 1.4-1.7 1.3-2 1.2-2.5 1.4-3.4 1-3 2-7.4 1.2-3.8 1.3-3.6 1.1-2.6 1-2.1 1.2-2.1 2.3-3.3 2.4-2.5 2.4-1.8 2.6-1.4 2-.7 2.1-.5 3.5-.2 2.1.2 2 .5 1.5.5 1.2.7.6.6.2.5.2.7 3.5 8.8 3.7 9 1.7 4.7.9 3 .2 1.4.2 1.3v1.7l-.4 1.7-.4 1.4-.5 1.3-4.3 9-2 4.5-1.7 3.5-2.1 3.6-1.2 1.8-4.5 6.4-2.6 4.2-1.7 3-1 2.8-.7 2.1-.5 2.6-.5 4.1-.2 3.3v4.8l.7 10.9.1 3.3v3.3l-.2 1.8-.5 1.8-.5 1.1-.8 1.6-1.9 3.5-1.3 2.8-.6 2-.3 1-.3 1.2v.8l-.9.6-.6.3-1.3.5-2 .5-1.7.1h-3.8l-7.6-.9-2.2-.1h-2.8l-4.9.7-2.2.1h-3.6l-4.6-.4.3-.6.1-.8v-2.5l-.2-1.6-.2-1-.5-1.8-.7-1.8-1-1.8-.8-1-1.3-1.2-1-.7-1.7-1-3-1.4-3.8-1.4-2.5-.8-2.6-.6-2.6-.5-2-.3-2.2-.2-3.6-.1h-3.2l-5.8.3-5.5.5-5.9.7-10.2 1.4-18.2 2.9-5.4.7-3.3.4-2.5.4-3.8.7-6.2 1.5-10.3 3-9.1 2.6L116-27l-3 .7-3.3.6-3.8.7-12.8 2-14.4 2.7-4.7.7-2.2.2-2.3.2h-3.2l-4-.3-4.4-.7-4.3-.9-4.3-1.1-11-3.3L36-26h-.6l-1.8-1.6-1.3-1.4-2.9-3.4-2-3-2.2-3.3-1.1-2-1-2.3-.8-2.3-.5-2.4-.3-2.4.4-3.6 1-3.5 1.7-3.3 2-3.3 2.1-3.2 2.4-3 7.3-8.6 2.1-2.9 1.4-2.6 1.4-3.3 1.1-3 1.2-3.7 1-3.7 3.2-12.3.6-1.7 2-5.2.9-3 2.2-9.7 1.8-6.7.8-2.6.9-2.5 4.5-12.3.8-2.7.6-2.8.3-2.7.1-2.8-.2-2.8-.5-2.8-.8-2.6-.6-1.9-3-7.5-1.2-3-.4-.7-.2-1-.2-.8v-5.2l-.4-2.7-.4-2-.5-2-1-2.6-1.2-3-1.7-3.3-4.2-7.9-1.5-3-1.2-2.8-1.4-3.4-.7-1.8-.4-1.4-.2-1v-.5l6.7-2.8 3-1.5 3.3-1.6 2.8-1.6 3.1-1.8 8.1-5.3 4.8-3 2-1 1.9-.8 1.3-.5 1-.2 1.5-.2H84l1.7.2 1.2.3 2.1 1 1.8.9L97-245l2.5 1.2 2.2 1 2 .5 1.4.1h1.4l1.5-.2 1.4-.4 1.4-.5 3.1-1.4 3.2-1.7 10.2-6 2-1 3.5-1.6 1.5-.7 2.8-1 2.9-.8 2.2-.5 6.1-1.2 7.5-1.3 3.1-.3 3-.3 2.6-.1h3l2.5.2 1.7.3 1.8.4 1.4.4 2.6 1"/></defs><g clip-path="url(#p4e788df54e)"><use xlink:href="#m3c02648254" y="280.5" fill="#f4f4e2" stroke="#f4f4e2"/></g></g></g></g><defs><clipPath id="p4e788df54e"><path d="M7.2 7.2h315.1v266.1H7.2z"/></clipPath></defs></svg>