<svg xmlns="http://www.w3.org/2000/svg" xmlns:xlink="http://www.w3.org/1999/xlink" width="331.8" height="374" viewBox="0 0 248.9 280.5"><defs><style>*{stroke-linejoin:round;stroke-linecap:butt}</style></defs><g id="figure_1"><path id="patch_1" fill="none" d="M0 280.5h248.9V0H0z"/><g id="axes_1"><g id="PatchCollection_1"><defs><path id="m1747898003" stroke="#f4f4e2" d="M227.8-153.7v.4l-.2 1.5-.6 1.5-.7 1.7-1.5 3.3-2.6 4.7-1.2 2.5-1.3 2.6-1.1 2.7-1.4 4-2.5 8.2-1.3 4-1.3 3.5-1.6 4-1.6 3.1-1.5 2.8-1 1.5-2.8 4.5-1.9 3.2-.8 1.6-.9 2-.5 1.9-.4 2-.1 1.4-.5 5.5-.5 4-.7 4-.9 4.2-.5 2.1-1.1 4.2-.8 2.4-.7 2-.7 1.7-.8 1.6-.5 1-.5.6-.2.2-2.4 4.3-.7 1.2-1 1.3-1.3 1.5-1.4 1.6-2 1.8-1.4 1.3-1.4 1.1-1 .7-2 1.3-11.9 6.1-3.5 2-2.7 1.6-1 .9-2.7 2-2.7 2-2.1 1.6v-.5l3.1-7.3 1-2.3.7-2.1.7-2.4.3-2.4v-1.5l-.2-.7-.3-.8-.6-1.2-1-1.1-.8-1-1-.8-1.3-1-1.3-.9-2.3-1.4-1.9-1.1-3.9-2.2-15.9-8.8-15.3-8.8-4-2.5-3.5-2.1-1.9-1.3-5.6-3.9-4.9-3.6-1.1-.7-1.2-.6-1.2-.5-1.4-.3-1.5-.1-8-.1h-1.6L71-83l-2.5.4-2.6.5-2.4.7-6.5 1.7-2.6.8-1 .2-1.2.2-2.1-.2-2.3-.4-4.7-1.4-2.4-.6-6.2-1-1-.4-1-.4-1-.7-2.1-1.6-1-.5-.3-.1-1.8-.4-2-.1h-2l-2 .4-1.6.3-.8.4 2.2-2.6 2-2.5 1.5-2.2 1.4-2.3 1.3-2.5 1-2.4.6-1.9 1-4 .4-2.2.2-2.2.1-2-.1-3.8-.3-3-.5-3-.2-1.3-.5-1.5-.7-1.6-1.4-2.6-.6-1.3-.4-1.3-.1-1.3.2-2.9v-2.7l-.2-3.3-.2-5.5v-3.3l.2-1.8.5-2 1.3-4.2.6-2 .3-1.4.3-2.1.1-1.9v-2.7l-.1-2-.4-2.1-.3-1.4-.7-2.7-1.5-4.7-1.7-5.3-1.5-4.3-1.7-4.4-.3-1-.3-1.3-.3-1.6-.3-3-.2-3.4-.1-3.5v-3.4l.1-3.2.3-3.2.3-2.2.6-3 .6-2.2.7-2.3 2-5.8 1-2.7.5-1.8 1-4.3.6-2 .5-1.4.5-.8.5-.6.5-.3 1.1.1.8.4.7.4.9.6L35-244l1.4 1 1.4.7.8.3h.8l1.4-.3 1.3-.6 1.3-1 1.5-1.5 1-1.2 3.6-4 .9-.9 1-.9.8-.5.6-.4.8-.3 1.6-.1 1.7.2 1.1.3 1.2.3 9.4 3.2 1.6.6 1.8 1 1.5.9 2.4 1.7 4.3 3.4 6.4 5.3 2 1.6 2 1.4 1.6 1 1.5.6 1.2.1h1.4l2-.5 2-.8 2.4-1.1 2.4-1.4 2-1.1 7.2-4.5 2.5-1.5 4.4-2.2 2-1.1 2-1.2 2-1.2 2.1-1.6 1.8-1.6 1-1.1 2.6-3.4 1.4-1.8 1.5-1.8.5-.5.2-.1v-.2l.2-.2.3-.1.8-.1h1l.8.2 1 .3.8.3.8.3 1.4.8 1 .7 1.7 1.4 2.8 2.6.9.7 1.7 1.2 6.7 4 2.2 1.2 1.7.8 1.6.7 1.7.5 2.4.7 7.5 1.7 3.2 1 1.1.3 1.7.7 2.2 1 2.7 1.7 1.4 1 1.3 1 1.2 1.3 1 1.6.8 1.8.7 2 .5 2.3.5 2.3.4 2.6.3 2.8 1 11 .5 3.2.2 1.4.3 1.4.5 1.3.6 1.3.7 1.1 1.2 1.2 1.4 1 1.2.6 1.4.5 1.6.5 1.5.4 3.6.7 5.7 1 2.3.3 1.7.3 1.5.4 1.5.5 1.3.6 1.5 1 1 1.1.5 1 .8 1.6.5 2 .4 2.6.2 1.8v4.4l-.2 2.9-.3 2.6-.3 2.5-.8 5-1.6 8.7v.1"/></defs><g clip-path="url(#p0005a4e6e0)"><use xlink:href="#m1747898003" y="280.5" fill="#f4f4e2" stroke="#f4f4e2"/></g></g></g></g><defs><clipPath id="p0005a4e6e0"><path d="M7.2 7.2h234.5v266.1H7.2z"/></clipPath></defs></svg>