<svg xmlns="http://www.w3.org/2000/svg" xmlns:xlink="http://www.w3.org/1999/xlink" width="324.4" height="374" viewBox="0 0 243.3 280.5"><defs><style>*{stroke-linejoin:round;stroke-linecap:butt}</style></defs><g id="figure_1"><path id="patch_1" fill="none" d="M0 280.5h243.3V0H0z"/><g id="axes_1"><g id="PatchCollection_1"><defs><path id="m740a89a30e" stroke="#f4f4e2" d="M225.7-96.5h-.3l-.8.2-1.9.3-1.5.1H217l-2.2-.2-5.6-.5-2.4-.1h-2.4l-1 .2-2.3.3h-1l-1.2.2h-1.8l-.8-.1-1-.2-1-.2-1.2-.3-.9-.2-1-.4-1.1-.5-2.4-1.1-3.2-1.7-1.2-.6-1.1-.7-1-.7-.5-.4-.9-.8-.4-.5-.5-.5-1.3-1.5-.9-1.1-.6-.6-.7-.7-.6-.5-1-.7-.8-.5-1-.4-1.7-.7-2.7-.8-1.4-.3-.5-.1-.9-.1h-2.2l-.5.2-.8.2-.6.2-.6.2-.7.4-.8.5-.5.3-.6.5-1 1-.7 1-.9 1-1.7 2.9-.8 1-.6.8-.4.4-.6.5-.4.2-1 .6-1.5.7-1.9.8-1.7.7-1.4.5-1.2.3-1.1.3-3 .7-1.2.3-1 .4-2.1.8-1.4.6-3.5 1.2-1.2.5-.8.4-.5.3-1 .7-.3.3-.5.4-.5.5-.3.4-.6.8-.3.6-.4.7-.3.8-.2.7-.3 1-.1.9-.2 1.2v1.5l-.1 3.7v2.5l.1 5.2v5.9L120-54l-.3 4-.3 1.9-.3 2-.4 2-.5 2.4-.5 2.1-.6 2-.5 1.6-.4 1.1-.2.5-.1.1-.1.3-.5 1-.4.8-.6.9-.4.7-.6.7-.5.5-.5.5-.6.5-.5.3-.7.4-.7.3-.7.3-.7.2-.8.3h-.7l-.6.2h-3l-1.4-.1-4.1-.5-3.7-.3-1.3-.2-1-.2-1.3-.4-4-1.5-2.2-1-1.3-.3-.7-.2-.5-.1h-2.3l-.9.3-.6.2-.6.2-.7.3-1.1.7-.6.4-.6.5-.6.5-.5.5-.3.4-.3.4-.6 1-1 1.9-.3.6-.4.6-.4.5-.5.7-.6.5-.6.5-.8.5-.6.4-.5.1-.6.2h-1l-.6-.1-.5-.1-.5-.2-.6-.2-1-.6-1.3-.8-.8-.6-.8-.6-.6-.6-.5-.6-.8-.9-.9-1-.9-1.3-.4-.8-.2-.5-.4-1-.2-.7v-1.9l.2-.4.1-.4.3-.5.3-.4.3-.3.4-.4.5-.4.7-.3.6-.4 3.2-1.5.9-.5.6-.5.4-.4.3-.4.2-.3.2-.4.2-.5v-.4l.5-2 .1-1v-2.1l-.2-.8-.3-.9-.4-1-.6-1.2-.5-.8-.5-.8-.7-.8-.5-.6-.4-.4-.8-.6-1-.5-.7-.2-.6-.2H54l-5 .1h-1.3l-.5-.2-.5-.2-.4-.4-.4-.4-.3-.5-.2-.5-.1-.4-.2-.7-.2-2-.2-.9-.1-.7-.2-.4-.3-.8-.3-.6-.7-1.1-.7-1-1-1.3-1.9-2-.8-.8-.6-.8-.3-.5-.2-.9v-.8l.1-.8.5-.7.3-.3.9-.4.6-.1.7-.2 1.5-.2 3.3-.4 1.4-.2 1.4-.3.7-.3.7-.2.5-.2.5-.3.5-.5.3-.4v-.7l-.2-.8-.4-1-.6-1-.6-1-.8-1-1.7-2.2-7-9-1.8-2.3-1.5-2.2-3.6-5-1.1-1.6-1.5-2.3-.8-1.4-.8-1.5-.8-1.5-.7-1.5-.6-1.2-.4-1-.7-1.6-1-2.8-.7-2.4-.5-1.5-.4-1.7-.5-2.1-.8-4.6-.2-1-.3-1-.3-.9-.4-.8-.2-.4-.4-.6-.8-1-1.6-2-.3-.4v-.3l.1-.6.1-.4.3-.8.6-1.1.7-1.5.4-.7.2-.4.2-.7v-3.5l-.3-4.5v-2l.1-1.4.2-1.7.2-1 .3-.9.4-1.1.7-1.3 1.1-1.7 1.9-2.7.5-.7.8-1.5.7-1.5.9-1.8 1.7-3.7.2-.6.2-.5.1-.8v-1.2l-.1-.5-.4-1.3-.7-2-1.5-3.7-1.4-3.6-.1-.3.5.4.7.8 2 3 1 1.2 1 1 1 .9.6.3.6.3.8.4.6.1 1 .3.7.1h.6l1.5.1h.8l.8-.1.4-.1 1.1-.3.5-.1.8-.3 2.4-1 .7-.3 1.3-.4.7-.1.7-.2h.9l.3.2.2.4v.5l.2 1.9v.4l.2.5.4.8.3.4.5.4.5.3.5.3 1 .4 4.4 1.6 1.5.6 1.4.7 3 1.7.9.4.8.3.6.2.8.2.8.2h2.8l.8-.3.6-.4.3-.2.4-.4.3-.4.6-1 .8-1.2.5-.7.4-.5.5-.6.7-.5 1.5-.7 1.1-.6 1-.7.6-.4 1-1 4.7-4.4 1-.8 1.2-.8.7-.4.6-.4.8-.3 1-.2 1-.2 2.8-.6 1-.2 1-.3.7-.3 1-.5.6-.3 1-.7.6-.7 1.2-1.2.8-1 3.2-4 3.2-3.6 2-2.3 1-1 .7-.6.6-.5.6-.5 2-1.5 1.6-1.4 2.3-1.7 1.8-1.6 2.2-1.6.7-.6.8-.7.8-.9.4-.5.4-.7.8-1.2.6-1 .8-1.6.5-1 .4-.9.4-1 .6-1.8.8-2.6 1.2-4.2.8-2.5 1-2.5.8-2.4 1-2.4.7-1.6.7-1.6.6-1 .4-.5.7-1 .6-.6.6-.5.4-.4.4-.2.6-.4.5-.3.7-.2.7-.3h1.6l.8.1 1 .3 4 1.6 1.5.7.5.2.6.2.7.1h2.8l1.3-.3.7-.2 2-.7 2.1-.7 4.6-1.8 1.4-.4 4.5-1.5 2.4-.9 1.9-.7 1.4-.6 5.2-2.4.2.3.4 1 .4 1.1.5 1.5.5 1.6.3 1.7.2 1.7v5.3l-.2 1.7-.2 1.8-.4 3.2-2.8 20-.7 4.8-.5 3-.3 1.5-.3 1.5-.3 1.4-.4 1.2-.5 1.2-.4.8-.5.6-.6.5-1 .4-1 .2H177l-1.3-.2-1.2-.4-1.3-.5-1.2-.6-1-.7-3.1-2.2-1-.7-.6-.3-.6-.2-1-.4-.6-.1-.7-.1h-.5l-.7-.1H161l-.7.2-.5.2-.4.3-.2.6v.8l.2 1 .4 1 .4.7 2.3 3.6 4.9 7.5 2.5 4 2.5 4 3.3 5.3 2.5 4 7.2 12.2 9.5 15.9 4.9 8.2 6.8 11.3 19.1 32.4"/></defs><g clip-path="url(#p433b60c61b)"><use xlink:href="#m740a89a30e" y="280.5" fill="#f4f4e2" stroke="#f4f4e2"/></g></g></g></g><defs><clipPath id="p433b60c61b"><path d="M7.2 7.2h228.9v266.1H7.2z"/></clipPath></defs></svg>