<svg xmlns="http://www.w3.org/2000/svg" xmlns:xlink="http://www.w3.org/1999/xlink" width="353.1" height="374" viewBox="0 0 264.8 280.5"><defs><style>*{stroke-linejoin:round;stroke-linecap:butt}</style></defs><g id="figure_1"><path id="patch_1" fill="none" d="M0 280.5h264.8V0H0z"/><g id="axes_1"><g id="PatchCollection_1"><defs><path id="m51faa1adf2" stroke="#f4f4e2" d="M167.3-247v-.2l.3-.1.8-.3 1.2-.4 1.1-.2 1-.1h2.7l1.5.3 7.3 1.6 1.3.2 1.2.2 1.2.1h2.8l.8.1 1 .2.9.2.7.1 1.1.4 1 .4 1.2.6.8.4.8.5.9.5.8.7 2 1.7 3.2 2.5.9.8.8.7.5.8 1.1 1.4.6.7 1 .8.4.4 2.5 1.8 2.2 1.5 2.3 1.4 1.5.9 4 2.1 2.5 1.4 1.7 1 1.2.7.6.5.4.2-.2.2-.2.5-.3.8v.5l-.3.8v2.3l.7 3.3.1 1.3v1.3l-.2 1.1-.4 1.1-.8 2.3-1.2 4.2-.8 3.3-.2 1.6v1.9l.1.8.2.6.5 1 .5 1.1.7 1 2 2.4 1 1.2.5.7.4.4.5.5 4.5 3.4 2.2 1.8 1.4 1.2.5.5.7.7 1.8 2.3 1 1.5.5.7.6 1.2.5 1.2.4 1.2.3 1.2v.5l.2.7v.7l-.1.6-.2.9-.4.9-.7.7-.7.7-1 .6-1 .6-1.4.6-1.4.6-3 1-5.2 1.8-1.3.5-1 .4-.8.4-.9.5-1.2.9-.8.5-.8.8-.6.7-1.3 1.7-.8 1.2-.7 1.1-.4 1-.2.5-.2.8v2.7l.4 1.1.4 1 .6 1 .5.8 1.8 2.9.5.7.8 1 1.3 1.3 5 5 1 1.2 1 1.2.7 1 .2.4.1.3v.3h-.2l-.4.2-.8.5-2 1.2-3 2-3.2 2.2-1.5 1-1.5 1.2-1.4 1.2-3.8 3.4-1.2 1-1.3 1-1.3.8-.7.4-.7.3-1 .4-1.5.3-1.2.3-.4.1-.9.4-1 .7-2.8 2.2-.7.5-.5.3-.7.3-.9.3-1 .3h-.9l-.9.2h-1.8l-1.5-.1-2.2-.3-1.2-.2-1.4-.2-2-.5-2-.6-5.5-1.8-2.3-.6-1-.2-1.4-.3-1-.1-1.3-.2h-3.4l-.8.1-.7.2-1 .2-1.2.5-1 .7-.8 1-.5 1-.2 1.2v2.2l.2 1.3.4 2 .2 1.4.1 1.4v1.4l-.2 1.3-.3 1-.2.5-.4.5-.4.5-.4.3-.5.3-.8.4-.5.2-.8.3-.8.3-1.1.7-.8.5-.3.3-.5.6-1 1.3-.5.5-.6.5-.6.4-.7.4-1 .5-1 .4-2 .6-.7.3-.7.5-.3.3-.3.2-.3.5-.3.6-.8 1.6-.5 1-.4 1-.5 1.3-.7 2.4-.3 1.1-.2.7-.2 1v3.2l.1 1 .4 2.1 1.1 5.8.7 3.8.5 3.5.2 2v1.7l.1 1.5v1.4L145-37v15.4h-.2l-2.6.8-1.7.5-1.7.5-.8.2-.9.1h-.7l-.8.1h-.7l-.7-.2-.7-.2-.6-.2-.6-.3-.5-.3-.6-.4-.5-.6-.4-.6-.4-.6-1.5-2.7-.4-.5-.4-.5-.4-.4-.5-.2-.5-.1h-.5l-.5.2-.1.2-.3.4-.3.6-.5 1-.2.5-.3.4-.3.3H122l-.6-.2-1-.5-.7-.4-1.3-1-1-.8-.8-.6v-.2l-.2-.4-.6-.8-1-1.2-4.2-4.8-1-1.2-.9-1-.7-1-1-1.5-.6-1.1-.6-1.1-.6-1.3-.6-1.3-.7-1.5-2-5-1.3-3.3-.9-2.5-.5-1.8-.4-1.9-.2-1.7-.1-1.1v-2.1l.2-1.1.5-1.5.7-1.5.8-1.5.9-1.4 1-1.5 3-4.1.9-1.4.8-1.4.7-1.4.4-1 .4-1.5.1-.7.2-1.4v-2.9l-.3-1.5-.4-3.2-.3-2.6-.2-2.8-.1-3.6v-1l-.2-1.2-.3-1.3-.3-.8-.4-.8-.8-1-1-.9-1.1-.7-1.3-.7-1.3-.7-1.4-.5-1.3-.5-1.4-.5-1-.3-.8-.2h-.6l-1-.1h-1l-1 .2-3.2.5h-.9l-.9.1h-1.5l-1.6-.2-1.6-.3-1.6-.4-4.7-1.1-1.6-.4-1.5-.2h-2.9l-.7.3-.8.2-.6.4-.6.3-.6.5-.6.6-.5.7-.7 1-.6 1.4-.6 1.5-1.3 3.7-1.4 3.5-.8 1.9-.8 1.5-.7 1.3-.6.9-.7 1-.8.7-.5.5-.7.4-.5.2-.6.1h-1l-.6-.3-.6-.3-1.2-.6-3.4-2.2-1-.7-1.1-.5-1.4-.5-1.4-.4-1.4-.2h-1l-1.3-.1H37l-2.9.3H31l-1-.2-1-.3-.7-.3-.6-.3-.9-.6-.8-.6-.7-.8-.7-.8-.6-.9-.6-1-1-1.7-.8-1.7-.8-2-1.4-4.3-.2-.6-.2-.2-.1-.4-.1-.8-.1-1.9-.2-3.2v-3.4l.2-1.7.3-1.6.3-1.2.5-1.8.5-1.5.4-1 .5-1 .6-1.3.4-.9.9-1.4 1.4-2.1 1.1-1.6 1.3-1.7 4.1-4.9 1-1.2 1-1.3.8-1.2.7-1.2.5-1.3.3-1.2v-1.7l-.2-1.2-.3-1-.3-.8-.4-1-1.6-3.7-.5-1.1-.3-.9-.2-.8-.2-1v-3.2l.4-3.2.2-1.5v-4.8l-.2-1-.3-3v-1.3l-.1-1.1v-2.2l.1-1.3.2-2.2.3-1.4.4-1.6.8-3.2.2-1 .2-1 .2-1.7.5-3.8.3-1.7.4-2.1.5-1.6.5-1.6.3-.8.6-1.2.6-1 1-1.4 1.1-1.2 1.7-1.4 1.8-1.2 1.4-.9 1.1-.7L49-226l1.6-1 1.7-1 .6-.5 1-.8.5-.5.5-.6.5-.6.5-.7.3-.6.2-.5v-.5l2 2 1.2 1.1 1 .8.9.7.8.5 1 .6.7.4 1.7.6 1.3.3 1.2.2 1 .1h3.7l1-.2 1.2-.2 1.9-.4.8-.3 1-.3 1.4-.6.7-.4.6-.3.6-.4.4-.4.8-.7 1-1.2.4-.4.4-.4.7-.4.8-.3 2.1-.8 1.2-.4 1-.5 2.7-1.2 1-.5 1.2-.5 2.8-1 1.8-.8 2-.8 1.2-.6.5-.3.7-.5 1-.6 1.4-1.3 1.6-1.6.7-.7.6-.9.6-.9.3-1 .1-.7v-.8l-.1-1-.4-1-.9-2-.5-1.7-.4-1.3-.6-2.5-.6-2.2h.2l.6-.1h.7l1.4.1 1.9.3 1.1.2 1.1.5.6.3.7.5.3.3.4.4.3.5.3.6.5 1.5.5 1.3.5 1 .4.8.7 1.2 1 1.2 1.3 1.7 2.3 2.6 1 .8.8.4.7.2h1.9l3-.7 1.2-.2h1.8l.9.1 1 .2 1.3.4 1.2.4 1.1.6 2.2 1.3 1.2.6 1 .2 2.9.6.9.3 1.2.4.6.3 2.8 1.2 1.2.4 1 .3 1.3.3h2l1-.2 1.3-.4 1.3-.7 1.3-.8 1-.8 1-1 .8-1.1.5-1.1.4-1.2.2-1v-.7"/></defs><g clip-path="url(#p54b20a926e)"><use xlink:href="#m51faa1adf2" y="280.5" fill="#f4f4e2" stroke="#f4f4e2"/></g></g></g></g><defs><clipPath id="p54b20a926e"><path d="M7.2 7.2h250.4v266.1H7.2z"/></clipPath></defs></svg>