<svg xmlns="http://www.w3.org/2000/svg" xmlns:xlink="http://www.w3.org/1999/xlink" width="327.3" height="374" viewBox="0 0 245.4 280.5"><defs><style>*{stroke-linejoin:round;stroke-linecap:butt}</style></defs><g id="figure_1"><path id="patch_1" fill="none" d="M0 280.5h245.4V0H0z"/><g id="axes_1"><g id="PatchCollection_1"><defs><path id="m33303ca1dd" stroke="#f4f4e2" d="m220-229.4.8.9 2.5 3.4.5.5 1.8 2 .7.9.5.8.3.8.5 1.5.1 1.2v1.2l-.4 1.1-.5 1-1 1.3-3 3.6-.9 1.2-1 1.4-.3.6-.4.8-.2 1-.3 1.7-.6 2.2v3.7l-.1.8-.3.5-.5.4-.5.3-2 1-1 .5-.9.7-.9.9-.9 1-.7 1-.6 1.2-.5 1.2-.2 1.3-.2 1.4v3.5l-.5-.1-1-.1h-1.6l-2 .2-2 .4-2 .7-1.7 1-1.3 1.5-1 1.8-.4 2-.2 1.2v8.2l-.2 2.5-.4 5.2-.4 2.8-.4 2.6-.5 2.6-.8 2.5-.9 2.2-.5 1-2.1 3.4-.7 1.2-.5 1.4-.4 1.5-.1.6-.2 1.8-.1 2.7.2 9.4v1.5l-.2 1.7-.6 2.5-.4 1.4-2 6.6-.7 2-1.2 6.2-1 3.8-.3 1.8v1.2l.1 1 .7 1.4 1.2 1.2.3.2 1.6 1 1.8.7 1.2.3 7.3 1.7 3.2.7 2.7.4 2 .2h2l1.7-.2 2.2-.4 1-.2h1.5l1.2.2.6.3-1.6 3-1.8 3.3-1.6 3.5-1 2.3-.3 1.2-.2 1-.5 5-.3 1.3-.4 1.4-.5 1.3-.6 1.3-1.9 4-.6 1.4-.6 1.4-1 3-1.5 5.3-.8 2.6-.7 1.8-.5 1-.9 1.5-2 2.4-1.7 2.3-.7 1-.6 1.3-2 4.4-.8 1.4-1 1.3-1.2 1-1.2.5-1.3.4-1.4.2-1.6.1h-3.6l-6.7-.3h-.7l-.2.1-.6.3-.8.2-1.7.5-2.3.3-2 .2h-1.8l-1.4-.3-1-.4-.6-.5-.6-.6-.5-1.1-.4-1.6-.2-1.8.1-1.7.2-2.3 1.1-7.6.1-1.3v-2.2l-.4-2.2-.2-.7-1-1.5-1.3-1.5-1.9-1.5-2.1-1.4-2.4-1.3L146-52l-2.6-1.1-2.5-1-2.6-.8-2.5-.7-6-1.2-1.6-.4-1.7-.5-10.8-3.8-4.3-1.5-3.3-1.3-2.8-1.2L102-67l-1.3-.7-2.3-1.4-1.5-1-2-1.7-2.3-2.2-5.1-5-2.2-2-2.5-2.3-1-.9-1.7-1.3-1.3-.8-.8-.4-1.2-.5-.6-.2-1.2-.4-1-.1h-2l-1.8.5-1.8.7-2.4 1.3-1.4 1-1.5 1-1.9 1.6-1.9 1.7-3.2 3-3 3.3-2.4 2.5-2.6 3-2.4 2.8L43-67l-.7-.5-1.3-1-.5-.4-1-1-2.8-3.2-1.6-1.5-.9-.7-.7-.5-2.4-1.5-.7-.5-.9-.8-.4-.7-.3-.4-1.7-3.8-.7-2L26-87l-.4-2.4-.1-2.2v-1.7l.2-1.9v-1.4l-.1-1-.3-.8-.2-.8-.8-1.6-.5-1-1.2-2-1.5-2-2.8-3.8-.5-.7-.1-.3.2-.2.7-.3 2.6-.8 2.2-.6 3-.7 3.2-.7 2.4-.2h2.1l4.5.1h1.5l1.5-.4 1-.3 1.2-.7.8-.6 1-.8 1.5-1.5 1.6-2 .8-1 .6-1 .8-1.5.6-1.2.5-1.1 1.4-3.6 2.7-6.2 1-2.4 1.5-4.3.7-2 .4-1.4.5-2.2.3-1.9.1-2v-2l-.2-1.5-.4-1.8-.8-3.5-1.4-5-.3-1.6-.1-1.1v-8.5l-.3-1.5-1.2-5.2-.9-3-.7-1.9-1.4-2.8-.8-1.9-.8-2-.7-2.2-1.4-5-.9-3.4-.4-1.8-.4-2.1-.1-1.5-.2-3v-3.3l.2-2.8.2-1.8.3-1.8.5-1.2.2-.3 1.6-.9 1.2-.8 1.2-.9 1.4-1.3.7-.8.8-1.1 1-1.6 1-1.6.6-1.4.4-1.3.2-1.4.3-3.2.2-1.7.5-2.5.5-2 .7-1.8.8-1.7.6-1.2 2-3.7.5-.8.3-.7v.1l.3 1.1 2.4 14 .4 2.2.4 1.6.4 1.4.6 1.5.6 1.6.5 1.1 1 2 1.4 2.1 1 1.3.5.7.8.8.7.7 1 .7.8.4 1.1.7 1 .5 2.2.8 1.4.5 1.9.6 2.6.6 4 .8 4.1.6 2.8.4 1.6.1 1.2.1h2.5l1.9-.1 1.2-.2 1.2-.3 2-.5 2.1-.8 2.2-1 1.2-.4 1.9-1 1.8-1.1.8-.7.8-.7.8-.8.4-.6.9-1.1 2.7-4.6.9-1.5 6.9-10 .8-1.3 2.8-5 1-1.4.5-.6 1.2-1.2.7-.6 3.5-2.8 1.6-1.2 1-.6 1.8-1 1.3-.5 1.4-.4 1.4-.1 1.4.1 1.9.5 1.3.5 2 1 .7.4 1.9 1.3 2.5 1.8 2.2 1.5.8.5 1.9 1 2 .7.6.1 7 1.2 1.3.3 1.5.5 3.5 1.2 1.5.7 1.6.8 1.5.8 1.3.8 1.2.9 1.1 1 1.9 1.8 2.8 2.5 1.1 1.3 1 1.4 2.1 3 1 1.5 1.8 2 1.9 1.8 1.6 1 1.6.6h.2l1 .1 1-.1.8-.2 1.2-.4 3.4-1.4 1.5-.7h.4"/></defs><g clip-path="url(#p87c4cc21d2)"><use xlink:href="#m33303ca1dd" y="280.5" fill="#f4f4e2" stroke="#f4f4e2"/></g></g></g></g><defs><clipPath id="p87c4cc21d2"><path d="M7.2 7.2h231v266.1H7.2z"/></clipPath></defs></svg>