<svg xmlns="http://www.w3.org/2000/svg" xmlns:xlink="http://www.w3.org/1999/xlink" width="392" height="374" viewBox="0 0 294 280.5"><defs><style>*{stroke-linejoin:round;stroke-linecap:butt}</style></defs><g id="figure_1"><path id="patch_1" fill="none" d="M0 280.5h294V0H0z"/><g id="axes_1"><g id="PatchCollection_1"><defs><path id="m9ee9c6c12d" stroke="#f4f4e2" d="M230-179.1v-.2h.3l.8-.3 1.1-.1h1.7l1.3.1 1.3.3 1.8.5 1.5.5 1.6.6 1.6.9 1 .6 1 .6.5.5.7.6 1 .8 1 1.2.6.7 1 1.4.7 1 1 1.6 3.2 5 .6 1.2.2.6.2.7v.8l.1 1v1.9l-.1 3.3v1l-.2 1-.4 1.3-.8 2.2-.7 2.5-2 6.8-.8 2.4-.4 1.2-.5 1.3-.6 1.3-.5 1-.8 1.3-2 2.6-2 2.8-2.4 2.7-.4.7-.6 1.1-.4 1.2-.1 1.3v1.3l.4 1.5.2 1.1v2.1l-.2 1-.2.6-.6 1-1 1.2-2.8 3.3-.8 1-.8 1.1-.6 1-1.4 3-.5.8-.6.9-.7 1-.4.5-1.8 2-.6.7-.5.8-.3.5-.4 1-.3 1.1-.8 3.3-.2 1v3.8l.1 1 .1.8.2.6.2.4.3.4.3.3.5.4 1 .3 1 .1h1l1.3-.1 1.5-.3 6.1-1.3 2.4-.4 3-.6 1.9-.2 3-.4 2.4-.1h2.3l2.2.1 1 .1 2 .3 3 .5 3.2.7 2.3.6 2.1.6 1 .3 1.1.5.7.3.5.3.8.6.1.2.2.4v.7l-.3.7-1.1 1.4-1.9 2.4-.5.6-.9 1-.8.7-1.3 1-.8.7-.8 1-.6.8-.6 1-.5 1.1-.4 1-2 5.4-.5 1.5-.4.7-.3.7-.4.5-.8.8-.8.6-.9.5-1 .4-1.4.4-4.3 1-1.3.3-2 .6-1.6.6-1.7.7-1.3.6-2.5 1.3-1.3.7-6 3.4-2.5 1.4-1 .5-1.4.5-1.3.5-4.7 1.6-1.5.5-1 .3-1 .2-1.1.1H216l-1.2-.4-1.4-.5-1.2-.7-1-.6-3.8-2.6-1.5-.9-1.5-.7-1.6-.6-1.7-.3-1.7-.1h-.7l-1.2.3-1.2.3-3.8 1.1-1.5.4-1.1.3-1.2.2-1.5.3-2.7.4-3.2.5-1.6.3-1.3.3-1.3.6-.8.5-.7.7-.5.8-.3.6-.2.8-.4 1.3-.5 3-.9 4.4-.5 2.1-.2 1.1-.3 1-.4.6-.3.4h-.4l-.2-.1-.2-.2-.2-.5-.2-.4-.3-1.2-.6-2.7-.4-1.6-.2-.6-.4-1.2-.4-.7-.7-1-1.7-2.2-.6-.8-1.1-2-.4-.6-.6-.6-.7-.7-.4-.4-.8-.5-.5-.3-.9-.4-.8-.3-1-.2-1.5-.3-1-.1h-2.7l-2.1.1-1.7.2-1.1.1-2 .4-2.6.6-4.5 1-2.2.5h-.6l-1.3.2h-1.5l-1.5-.4-.4-.1-1.3-.5-1-.5-1.5-.7-1.5-.9-4.1-2.3-1.4-.7-1.6-.8-1.4-.6-1.4-.5-1.7-.5-2-.3-1-.1h-1l-.8-.1h-1.4l-1 .2-1.1.2-1 .2-1 .2-1.4.5-4.8 1.7-2 .8-1.7.8-1 .5-.6.4-.7.6-.7.6-1 1.1-2 2.5-1.4 1.7-1 1.1-1 .8-.8.6-.9.6-1 .5-.7.3-1.3.5-1.8.4-1.9.4-1.3.2-1.3.1H72l-1.7.1h-1l-2-.1-1.8-.1-1.3-.1-1.7-.3-6.9-1.2-5-.6-1.4-.2-1-.4-.3-.2-.8-1.4-.8-1.5-.5-1.4-.4-1-.1-.7-.1-.6-.1-.6v-1.1l.1-.8.2-.6.2-.6.4-1 .5-.8.6-.8.7-1 1.3-1.5 3.1-3.4 2-2.3 2.2-2.6 1-1.3 1-1.3.7-1.2 1-1.5.6-1.1.7-1.5.6-1.5.5-1.2.6-1.8.4-1.6.7-2.7.4-2.2 1.7-8.6.7-3.7.8-3.4.4-1.5.4-1 .5-1 .5-1 .5-.8.8-1 1.1-1.7 1.2-1.4 1-1 1-1.1 1.3-1.2 2.2-1.8 1-1 1.5-1.5.7-.9.6-.9.6-1.3.4-1.3.2-1v-3.1l-.1-1.3-.2-1.1-.2-.7-.3-.8-.4-.7-.5-.6-.8-.8-1.2-.8-1.4-.6-1.6-.4-1.8-.4-1.8-.3-1.8-.2-2-.1-3.7-.2-3.8-.1H60l-1.8.1-1.7.2-1.6.2-3.6.8-1 .2h-.8l-.7-.1-1-.3-.5-.3-.5-.3-1.1-.7-1-.8-1.1-1.1-1.2-1.3-.8-1-.8-1-2.7-4-3-4-1.3-1.6-.6-1-1.1-1.7-1-1.7-.6-1.1-.7-1.6-1.2-2.6-1.2-3-.6-1.7-.6-1.7-1-2.9-3.8-13-.8-3-.5-1.9-.1-.9-.2-1.2v-1.3l.2-.5.3-.4.3-.4.6-.2 2.4-.6 1.2-.4 1.2-.5 1.1-.7.8-.6.8-.6.5-.6 1-1 .5-.8.5-1 .5-1 .3-.8.3-1 .4-1.4.2-1.2.2-1.5v-3.7l-.1-1-.3-1.6-.3-1.4-.5-1.9-1.3-3.5-.3-.8-.3-1v-2.7l.3-.9 1-2.9.3-.9.2-1.1v-2.5l-.3-1.5v-1.6l.2-.7.2-.4.3-.4.3-.5 1-1.1 1.7-2 1-1.1 1.1-1.4 1.3-1.8.9-1.3.4-.7.5-1 .5-1 .4-.8.2-.8.3-1 .3-.8.2-1.5v-.5l.1-1.6v-1l-.2-.7-.1-.4-.2-.2h.3l.5-.2.8-.4.8-.6.7-.6.4-.5.5-.7 1.4-2 .7-.7.6-.5.5-.4.7-.3.5-.3.5-.2 1-.2h3.4l5 .7 2.9.2h3.3l.7-.2.7-.1.8-.2 1.4-.6.7-.3 1.2-.6 3-1.7 1.8-1 1.6-.7.6-.2 1.4-.4 1.8-.4 2.8-.5 3.7-.8 1.3-.2 4.1-.6 5-.5v.3l.2.7.4 1 .5 1 2 4 2.3 4.7 1 2 .5.9.8 1.1.4.6.4.4.6.6 1.2 1 .6.6.4.5.5.5.3.6.6 1 .3.5 1.7 3.6.5.9.9 1.6 1 1.6.6.6 1.1 1.4 1 .9 1 1 1.2 1 1.2 1 4 3 7 5.2 5.5 4.4 2.2 1.5 1.6 1 .7.4 1.2.6.8.4.9.3 1.2.3 1 .3 1.3.1h2.7l1.6-.2 1.5-.3 1.4-.3 2.4-.8 4.6-1.6 7.3-2.2 4.3-1.4 4.3-1.1 2.8-.9 2.2-.6 1.9-.7 1.3-.5 1.5-.6 5-2.4 1.4-.6 1.7-.7.7-.3 1.2-.3.8-.2.9-.1 1.3-.2h1.2l.5.2.4.2.4.2.3.3.3.5.2.4.1.4.2.5.1 1 .1 1.3v8.4l.2 1.4.1 1 .2 1 .2.9.3.8.4 1 1 2.8.8 2 .6 2.3.5 1.8.5 2 .5 2.5.2 1.5.6 4.3.2 1 .2.9.3 1 .4 1 .5 1.1.9 1.6.8 1.3 4.4 6.4 1.2 1.7.9 1 .6.6 1 .6.7.4.6.2.7.3h1.4l.5-.1.3-.2.3-.2.6-.6.4-.8.4-1 .3-1.8v-1.2l.1-1v-1.5l-.2-4.2v-.3"/></defs><g clip-path="url(#pc8cfdda7ae)"><use xlink:href="#m9ee9c6c12d" y="280.5" fill="#f4f4e2" stroke="#f4f4e2"/></g></g></g></g><defs><clipPath id="pc8cfdda7ae"><path d="M7.2 7.2h279.6v266.1H7.2z"/></clipPath></defs></svg>