<svg xmlns="http://www.w3.org/2000/svg" xmlns:xlink="http://www.w3.org/1999/xlink" width="495.4" height="312.1" viewBox="0 0 371.5 234"><defs><style>*{stroke-linejoin:round;stroke-linecap:butt}</style></defs><g id="figure_1"><path id="patch_1" fill="none" d="M0 234h371.5V0H0z"/><g id="axes_1"><g id="PatchCollection_1"><defs><path id="m9e587e318a" stroke="#f4f4e2" d="m331-178.5.2.2v1l-.2 2.1-.4 2-1 3.7-.9 3.2-2.4 7.4-.6 2-.5 1.8-.4 2.1-.2 1.5v1.4l.2 1.7.7 1.4.5.8.9.8 1 .7.4.2 1.4.6 1.5.3 1.6.2h2.4l5.4-.3h1.1l1.1.2 1.4.5.5.5.3.6.1.8-.4 1.3-.7.8-1 1-2.9 2.2-1 1-1 1-1.7 2-1.2 2.2-1 2.4-.5 2.4-.2 1.8v1.7l.3 1.7.3 1.7.8 2.9 1 2.7 2.7 6.8 3.2 8.3 3.8 9.3 1.3 3.8.5 2 .4 2 .2 1.7v3.1l-.2 1.2-.3.9-.8 1.8-.8 1.3-.7.8-.7.8-1.4 1.3-1.5 1-2.2 1.5-1.5.8-1.5.8-2.6 1.1-1.9.7-2.7.8-1.7.4-1.5.2-1.3.1h-3l-2 .1-1.7.3-2 .7-1.4.6-1.5.8-1.5 1-4.8 3.8-2 1.3-2.4 1.3-1.4.7-1.7.7-1.9.8-1.7.5-1.3.4-2.6.6-7.6 1.5-10 1.9-3.2.7-2.6.7-2.6.8-1.4.5-2.5 1-8.5 4-2.8 1.2-3 1-1.5.5-1.6.4-4.4 1-1.9.4-6 1.6-6.7 1.3-2.4.7-1.8.6-.9.5-.5.5-1.8-.6-1-.2-2.3-.3-3.3-.3h-3.4l-2 .2-1.1.2-1.8.4-1.7.5-4 1.6-1.1.3-1.6.4h-.8l-1.5.1-4.4-.4h-2.9l-1.1.3-.8.2-1.4.5-1.5.8-4 2.4-1.6.8-1.9.8-1.2.4-.8.1h-1.3l-.7-.2-1.1-.3-5-2.3-1.7-.5-1-.1h-.6l-.3.1v.2l-.2-.2-.9-.7-2.3-1.7-2.4-1.6-4-2.3-2-1.1-3.1-1.5-8.9-3.9-1.3-.7-1-.6-1.3-.9-1.1-1-1.3-1.1-2.5-2.6-1.3-1.3-1.3-.9-.6-.3-.9-.4-.8-.1-1.1-.1h-1.4l-1.8.5-1.4.5-1.5.6-1.4.8-1.3.7-2.1 1.5-2.6 2-7.6 6.1-1.3 1-1.2.8-2 1.3-1.3.6-1.6.6-1.2.1h-1l-1.3-.6-.7-.5-1-1-1-1.1-1-1.7-1-2.4-.6-1.6-.8-2.7-1.6-6.5-.6-2.4-1-2.8-1.3-3.2-1.7-3.3-1-2-3-5-1-2-1.4-2.7-1-2.4-.7-2.4-.6-2.8-.1-2.5.2-2.7 1.2-6.4.2-2 .1-1.4v-3.8l-.2-1.2-.2-.5-.3-.5-.4-.2-.5.2-.6.8-.5 1-5.6-10.2-3.7-6.4-6.4-10.4-2-3-1-1.3-1.1-1.3-1.7-2-1.4-1.3-1.7-1.4-1.5-1.2-2.3-1.7-6.7-4.4-1.4-1-1.2-1-.7-.8-.8-.9-1.2-1.8-.4-.9-.7-1.4-1-2.6-.3-1.4-.3-1.2-.1-1-.2-1.5v-2.2l.3-2.6.5-2.5.8-3 3.5-11.6.6-2.1.7-1.8.7-1.5.7-1 .8-.9.5-.4.9-.7 1.3-.7 1.6-.6.7-.2h.2v-.1l.6-.3 1-.2H40l1.8.2 1.7.3 1.5.3 2.6.8 6.4 2.2 8.5 2.8 2.4 1 2.8 1.2 7.6 3.5 5 2.2 2.5 1.1 1.7 1L90-167l3.2 1.8 2.3 1.2 2 .8 1.2.5 1.9.5 2.6.6 2.5.3h2.6l2-.3 1.5-.5 1.3-.6.5-.4.8-.7.7-.9.6-.8.4-.8.8-2 .4-1.2.4-1.7L120-182l.8-3.4.7-2.3.7-1.8.8-1.7.9-1.5.8-1.1.8-1 1.1-1 1.8-1.6 1.4-.9 1.5-.7 2-.9 3.7-1.3 7.3-2.2 6.2-2 5.6-1.8 1.8-.6 3.1-1.3 1.7-.8 3.1-1.6 2.8-1.5 1.7-1 .7-.6.7-.6.7-.7.2-.4-.2-.5h.3l.8.2 2.6 1.1 3.2 1.7 3.4 2 1.7 1 3 2 2.9 2.1 2.5 2.1 1.9 1.8 2 2 2.5 2.8 2.5 3.1 1.6 2.2 1.3 1.9 1.3 2.1 1 2.1.7 2 .6 2 .5 2.4.2 1.2.3 1.6.2 2 .1 2.3v5l-.3 3-1.6 10.4-.6 5.5-.2 2.9-.1 2.1v4.4l.2 2.4.5 4 .3 1.5.5 2.3.4 1.1.4.8.4.6.5.5.4.3.7.2.8.1h1l1.3-.3 1.5-.5 2-1 1.5-.6 6.3-3.2 2.6-1.4 7.5-4 4.3-2.3 5.8-2.8 8.8-4 16.4-7.2 25.3-10.5 30.4-12.9 4.3-1.8"/></defs><g clip-path="url(#p4ec9a1843d)"><use xlink:href="#m9e587e318a" y="234" fill="#f4f4e2" stroke="#f4f4e2"/></g></g></g></g><defs><clipPath id="p4ec9a1843d"><path d="M7.2 7.2h357.1v219.6H7.2z"/></clipPath></defs></svg>