<svg xmlns="http://www.w3.org/2000/svg" xmlns:xlink="http://www.w3.org/1999/xlink" width="403.6" height="374" viewBox="0 0 302.7 280.5"><defs><style>*{stroke-linejoin:round;stroke-linecap:butt}</style></defs><g id="figure_1"><path id="patch_1" fill="none" d="M0 280.5h302.7V0H0z"/><g id="axes_1"><g id="PatchCollection_1"><defs><path id="m1bc191b130" stroke="#f4f4e2" d="m253.4-223.8.2.5.6.9 2 1.7.5.6 1 1.3.8 1.4.7 1.5 1 2.3.6 1.5.6 2.5.4 2.4v1.6l-.1 1.9v1.4l.4 2.5 1.2 4.3 3.3 10.5 10.6 34.3 1.4 4.9 1.4 4.8 1 4.6.8 4.7.5 4.5.1 2.3v2l-.2 2-.3 2-.6 2.4-.7 2.3-.9 2.3-.9 2-2 4.1-1.2 2-1.2 2-4.8 6.8-1 1.7-1 1.8-.8 2-.6 2.3-.4 2.3-.3 2.3-.6 9.1-.2 1.9-.3 1.5-.4.9-.5.2-.2-.6-.7-.7-1.6-1-2-.9-3.5-1-3.9-.8-3.6-.4-3.7.1-2.8.4-2.8.6-4.2 1.3-7.5 3-2.2.6-2.8.4-1.7-.2-2.3-1-2-2.1-1.4-2.7-2.7-6.5-1.5-3.3-1.9-3.2-2.1-2.6-3.4-3.5-5.7-5.3-4.4-3.9-2-1.5-1.8-1.2-4.8-2.9-1.7-1.2-1.7-1.2-1.8-1.8-1.7-2-1.6-2-4-5.5-1.7-2.1-2-2.2-2.2-2-2-1.5-7.7-5.6-1.7-1-2.3-1.4-1.4-.6-1-.4-1.5-.3h-1.4l-1.4.3-2.3 1.2-.4.4-1.3 1.4-1 1.6-.6 1.7-.5 3-.1 3v1.5l.4 1.7.6 1.7.5.8.9 1.1.6.7 1.2 1 2.1 1.4 4.8 2.4 2.3 1.3 2 1.4 2.4 2 1.4 1.4 1.9 2.3 1.6 2.5 1 1.9.6 1.9.4 1.3.2 1v2.7l-.4 2.7-.6 2.1-2.5 6.8-1 2.8-.6 2.1-.6 2.2-.6 3.7v3.5l.4 3.8 1.4 6.8.6 2.6 2 6.5.4 2.1.5 2.4.4 2.4v4.7l-.3 3-.7 3-.8 2.4-1.1 2.2-1.6 2.2-1.8 1.8-2.7 1.9-2.1.7-2.3.4h-2.3l-2.9-.5-3-.7-2.3-.7-5.2-1.7-4-1.6-5-2-14-6.1-3.1-1.1-3-.8-3-.3h-2.8l-2.7.3-2.6.6-3.6 1.2-3.5 1.5-9.6 4.9-3.3 1.5-3.3 1.2-3.5.8-2.4.3h-2.4l-3.8-.7-3.7-1.3-2-1-2.7-1.7-2.4-2-2.4-2.2-3-2.9-4.9-5.2-4-4-3.5-3.2-6.3-4.8-1.2-1-.6-.8-.4-.8-.1-.8.4-1.3 1.5-1.5 1.4-1 1.8-.9 3-1.2L33-62l9-2.8 4-1.4 2.8-1 2.7-1.2 2.9-1.5 2.7-1.7 2.2-1.6 2-1.8 2.4-2.5 2.1-2.7 1.8-2.8 1.6-3.4 1-3.5.3-3.2-.3-3.6-.7-3.6-.7-2.9-3.4-10.6-1-3.5-1-3.6-.8-4-.8-3.9-.6-4-.6-4.3-.3-4.3-.2-3.7-.2-10.3-.2-3.1-.3-3-.6-3-1-2.7-1.6-2.6-2.1-2.4-2-1.9-2.4-1.7-2.2-1.6-2.2-1.4-2.2-1.2-3.3-1.6-3-1-2.3-.7h-1.1l1.5-4.1.4-1.6.2-1.5v-2.3l-.4-1.2-.5-1.2-.6-1-.4-.5-.8-.7-1.1-.7-4.4-2-2-1-1.6-1.3-1.3-1.4-1.1-1.5-.3-.6-.5-1.2-.2-1.5v-2.8l.2.1.4-.4.4-.7.7-1.5 3-7.1 1.6-3.8 1.8-3.6 2.7-4.9 2.7-4.5 3.3-5.1 2.3-3.4 2.4-3.2 2.4-3 2.5-2.6 2.7-2.3 3.4-1.8 3.5-1.2 3.6-.7 2.6-.1 2.6.1 2.4.5 2.5.8 2.5 1.2 2.6 1.5 2.4 1.6 2.7 2 11.8 9 3.2 2.3 3 2 4.5 2.7 5.4 3 6.4 3.1 5.2 2.2 3.2 1.1 4 1.1 3 .6 3 .3 15.1 1.4 4 .5 4.7 1 4.2 1 3.1 1 3 1.1 3.6 1.5 9.6 4.1 2.5 1 3.7 1.4 3.7 1 1.8.4 3 .4 4.7.2 4.7-.3 3.4-.4 3.4-.5 3.2-.6 3.2-.8 2.8-.8 8.9-2.7 13-4 10.2-3.4 1-.2"/></defs><g clip-path="url(#p1c47450e2d)"><use xlink:href="#m1bc191b130" y="280.5" fill="#f4f4e2" stroke="#f4f4e2"/></g></g></g></g><defs><clipPath id="p1c47450e2d"><path d="M7.2 7.2h288.3v266.1H7.2z"/></clipPath></defs></svg>