<svg xmlns="http://www.w3.org/2000/svg" xmlns:xlink="http://www.w3.org/1999/xlink" width="343.4" height="374" viewBox="0 0 257.6 280.5"><defs><style>*{stroke-linejoin:round;stroke-linecap:butt}</style></defs><g id="figure_1"><path id="patch_1" fill="none" d="M0 280.5h257.6V0H0z"/><g id="axes_1"><g id="PatchCollection_1"><defs><path id="m0a944c305a" stroke="#f4f4e2" d="M224.2-247v.1l-.2.3v.7l-.1 1.1v1.4l.4 2 .5 2.2.4 1.4.4 1.4 1 2.5 1.4 2.9 1.8 3.3.7 1.3.9 2 .6 2 .1.7.2 2.2v1l-.2 2-.5 2.2-.7 2-1 2.2-2.1 4.6-1.8 3.3-1.5 2.6-2.5 4-1.1 2-.6 1.2-.6 1.3-.7 1.7-1.3 3.8-1.3 4.4-1.1 4.6-1.2 5.5-2.3 11.3-2.5 11.3-.5 2.5-.6 3.8-.2 1.6v3.8l.4 1.5.2.5.6.7.3.4.9.8.9.7 2 1.4 2.3 1.4 1 .6 4.7 2.5 3 1.7 2 1.1 1.6 1 2 1.6 1 1 .6.6.5.5.5.7.5.9.2.5.4 1.1.2.8.1 1 .1 1.4.2 4.4.1 2.4.3 3.2.4 2.3.4 1.9.6 1.9 1.8 5 .6 2 .5 2.3.2 1.4.2 2.4v1.6l-.1 2-.3 1.7-.3 1.7-.6 2.1-.4 1.2-.1.3-.5.4-1.3 1-1 .6-1 .4-.8.4-1.8.5-1.4.1h-1.4l-4-.4h-2l-.6.1-1.2.3-1.1.3-4.7 1.6-1.6.4-1.5.2-4 .2-1.7.3-1.7.7-.8.4-1.1.9-1 1-3.1 3-2.6 3-2 2.6-3 3.8-1.2 1.3-1.3 1-1.4.4-1.4.3h-2.6l-1.1.2-1 .3-1 .5-1 .6-.5.5-.5.5-.6 1-.2 1-.1.9v.9l.3.8.6 1 .7.7.8.5 2.6 1.5.6.4.7.6.6.6.6.9.5 1 .6 1.3.6 1.4.3 1.5v2.3l-.3 1.4-.4 1.3-.5 1.3-1 1.5-1.5 1.2-1.7.6-2.1.3h-2.3l-2.4-.3-4.4-.8-2.5-.4-2.5-.2h-5.8l-1.6.1-.6.2v-.7l.3-5.4.3-3.4.9-10 .2-3v-2.1l-.2-2.4-.2-2-.4-2-.4-1.4-.5-1.4-.5-1.5-.6-1.4-1.3-2.3-1.5-2.2L151-64l-1.7-1.8-1.9-1.7-2.9-2.5-2.8-2.1-3-2.1-2.7-1.6-1.6-.8-1.4-.7-1.7-.7-2.6-.8-1.3-.4-1.4-.3-1.6-.3-1.8-.1h-2.3l-3.1.5-5.6.9-2.7.3-4.4.6-4.6.4-2.1.1H94l-3.1-.4-6.6-.9-3-.3-7.3-.6-3.2-.4-2.3-.4-2.5-.6-2.7-.8-2.3-.8-1.5-.7-.8-.4-1-.7-1-1-1-1-1.2-1.9-.9-2.2-.7-2.4-2.2-9.8-.5-1.9-.3-1-.4-.6-.3-.4-.2-.1h-.2l.3-.8.2-1 .1-1.3.1-2.4v-2.7l-.3-1.5-.6-2-.9-2-1-2.2-3.9-6.6-1.1-2.3-1-2.3-.4-1.3-.3-1-.4-2.2-.5-3.3-.7-5-.5-3.3-.6-2.3-.5-1.6-.4-1.4-1.2-3-.6-1.5-1.5-3.2-1.8-3.6-3-5.6-1.5-3-.8-1.9-.5-1.3-.9-2.8-.5-1.8-2-7.6L21-195l-.6-2.8-.4-2-.4-3.3-.4-6.8-.3-3.2-.3-2-.3-2.4v-.5l.1.2.7.3 1.5.6 1.9.4 2 .3h3.4l2-.2 1.6-.3 1.6-.3 1.6-.6 3.3-1.3 1.4-.4 2.6-.6 2.3-.5 3.2-.5 6.8-.8 1.9-.4 1.1-.2 1.3-.3 1.9-.7 1.2-.4 3-1.3 3.7-1.8 3.6-1.9 3.5-2 2-1.3 8.7-5.8 7-4.4 3.3-2 2.4-1.5 2-1 2.4-1.1 1.8-.8 2-.9 2.5-.9 1.2-.4 1.9-.5 5.6-1.3 4.2-1 8.1-1.7 4.2-1 10-2.5 3.3-.8 2.5-.5 1.2-.1 2.5-.2h4.7l3.3-.2 4.9-.4 2.6-.2h3.2l1.5.2 3 .4 2 .4 1.1.3 1.5.4 2.2.7 2.6 1 9.5 3.8 1.6.5 6.2 2 5.3 1.9 1.2.4 1.2.3 1.6.3 1.1.1 1.8.1h4.3l2 .2.8.2.4.3.2.2v.2l.1.2"/></defs><g clip-path="url(#p950bb39a72)"><use xlink:href="#m0a944c305a" y="280.5" fill="#f4f4e2" stroke="#f4f4e2"/></g></g></g></g><defs><clipPath id="p950bb39a72"><path d="M7.2 7.2h243.2v266.1H7.2z"/></clipPath></defs></svg>