<svg xmlns="http://www.w3.org/2000/svg" xmlns:xlink="http://www.w3.org/1999/xlink" width="440.4" height="374" viewBox="0 0 330.3 280.5"><defs><style>*{stroke-linejoin:round;stroke-linecap:butt}</style></defs><g id="figure_1"><path id="patch_1" fill="none" d="M0 280.5h330.3V0H0z"/><g id="axes_1"><g id="PatchCollection_1"><defs><path id="m8984e2e0a3" stroke="#f4f4e2" d="M307.9-234.2h.1l.1.4.2.6.1.6.2 1.2.1 1.9v4.5l-.3 2.1-.3 2.1-.4 1.6-.3 1-.5 1.6-.8 1.8-.4.9-1 1.6-.4.8-1.1 1.7-.7 1-1 1-.8 1.1-1.3 1.4-1.3 1.3-3.2 2.6-.9.9-2 2-2.8 2.9-2.9 2.5-1 1-1.2 1.1-.8 1-1.1 1.3-.8 1-.5.7-.8 1.2-.5.9-.4.8-.6 1.6-1.3 4.2-.5 1.3-.8 1.6-.6 1.2-1 1.5-1 1.5-.7 1-1 1-.8.8-1.4 1.4-1.4 1-3.8 3-5 3.2-3.8 2.7-1.9 1.5-1 .8-1.4 1.3-1.3 1.3-.7.9-.7.9-.7 1-.7 1-.6 1-.6 1-.6 1.6-.6 1.6-.4 1.4-.2 1.6-.1 1.2v3.7l.1 2.2.3 3.5v4.1l-.2 1.1-.2 1.5-.6 2.3-.6 2.3-2.3 6.8-.5 1.8-1.5 6.2-1.4 5-.6 3-1.7 8.8-.2 1.2-.2 1.7v2l.2.6.1.7.2.7.6 1.4 1.3 2.3.6 1.3.8 2 1.3 3.8.6 1.6.7 1.6.6 1.1.6 1.2 1.5 2.3.6 1h.2l-.1.4-1 7-.6 4.4-.6 4.4-.4 2.1-.4 2.2-.5 2.2-.6 2.2-.6 2.1-.6 2-.8 1.9-.8 1.7-1 1.6-.9 1.4-1 1.2-.8.6-1.6 1-1.8.9-1.8.6-2 .5-1.9.3-2 .2h-1.8l-1.8-.1-1.6-.4-1.5-.7-1.2-1-1-1-2-2.6-1-1-1.3-1-1.4-.4-1.7-.2h-1.8l-2 .2-5.7.8-1.9.1h-1.7l-1.5-.4-1.3-.6-1.2-.9-.8-.7-.6-.5-1.3-1.3-1-.9-.9-.7-1-.6-1-.5-1-.6-2.1-.8-2-.7-2.3-.5-2.6-.6-2.3-.3-2-.2h-4.4l-2 .1-1.9.2-4.4.7-.2-.2H154l-1 .2-1.1.3-1.6.7-2.6 1.2-1.6.7-1.2.4-1.2.4-1 .2H140l-.8-.2-1.3-.3-1.3-.3-1.2-.5-2.5-.9-4.5-1.8-7-2.5-2.9-1.1-3.5-1.5-2.4-1.2-1.8-1-1.3-.8-1.8-1.2-2.2-1.8-2.5-2.2-3.8-3.5-7.8-7.2-2-1.8-.6-.5-28.3-51-3.5-6-2.4-4-1.3-2-1.2-2-2.6-3.7-4-5.6-24-32.6.7-1.4.6-1.5.3-1.2v-2.1l-.3-2.5-.2-2.4-.8-14-.2-4.8h1.8l5.8-.6 5-.5 4.4-.3 5.2-.3 5-.2h2.5l1.7.2 2 .2 3.2.5 1.5.2 1.7.2h1.4l1.3-.1 1-.3 1-.4 1-.6 1-.7 2.6-2 1.3-1.1 1.4-1.2 1.3-1.2 1.5-1.6 1.6-1.6 1.4-1.7 4.4-5.2 6.9-8.5 7.3-9.2 15.1-19.2 2.6-3.3 1.5-1.7.3.1 5 3.5 2 1.3 1.9 1.2 2 1.2 2 1 2 1 2 .6 2 .5 2.3.1 2.2-.1 2.2-.4 2.3-.5 2.2-.6 2.2-.7 4.4-1.4 12.9-4.7 4-1.4 2.2-.7 2-.5 2-.5 2.1-.3 2-.1h1.9l1.8.3 1.8.3 1.7.4 2.3.6 6 1.9 8.4 2.7 4.3 1.5 2.1.8 2 .9 2 1 1.7 1 1.6 1.4 1.3 1.3 1 1.5 1 1.5.9 1.7.8 1.6.6 1.6 1.2 3 .6 1.5.7 1.3.8 1.2.8 1.2 1 1 .7.9 1.4 1.4 2.3 2.1 2.3 2 1.1.8 1 .8 1 .5 1 .2 1-.2.4-.1.6-.4.9-.7.8-.9.8-1 2.2-3.2.7-.9.8-.8.6-.5.6-.3 1.2-.2 1.2.3 1 .5 1 .7 2 1.6 2.1 1.4 1 .7 2.2 2.3.5.4.6.4.7.4.7.1h.7l1.2-.6 1-.8 1.3-1.1 1.3-1.6 3.2-4 2-2.2 1.7-1.9 1.5-1.5 1.5-1.4 1.5-1.1.8-.6.8-.4 1-.4 1.4-.5 1.5-.4 1.4-.2h3.2l1.9.2 2 .3 2 .5.7.2 1.7.6 1.6.6 1.5.7 2.2 1.2 3.1 1.8.3.1"/></defs><g clip-path="url(#pfdc4c8fb05)"><use xlink:href="#m8984e2e0a3" y="280.5" fill="#f4f4e2" stroke="#f4f4e2"/></g></g></g></g><defs><clipPath id="pfdc4c8fb05"><path d="M7.2 7.2h315.9v266.1H7.2z"/></clipPath></defs></svg>