<svg xmlns="http://www.w3.org/2000/svg" xmlns:xlink="http://www.w3.org/1999/xlink" width="290.9" height="374" viewBox="0 0 218.2 280.5"><defs><style>*{stroke-linejoin:round;stroke-linecap:butt}</style></defs><g id="figure_1"><path id="patch_1" fill="none" d="M0 280.5h218.2V0H0z"/><g id="axes_1"><g id="PatchCollection_1"><defs><path id="m2d14f96622" stroke="#f4f4e2" d="m137.2-241.2-.2.5-.3 1-.1 1.6v1.6l.2 1.1.2 1.1.3 1.1.7 2 .6 1.7.7 1.5.5 1 .6.8.7.7h.2l1 .5.7.1.7.1 1.9.1 1 .1.8.2.7.4.6.6.5 1.1v1.2l-.2.8-.2.6-.4.8-.4.8-1.7 2.8-.7 1.4-1.4 2.7-3 6.3-1 2.6-.6 2-1 4.3-.1.8v2.1l.1.5.5 1.3.7 1.2 1 1.4 2 2.6 1.8 2.4 1 1.6.7 1.6.2.8.3 1.4.3 3 .2 1.1 1.2 6.3.6 2.2.9 3 .4 2 .5 2.2.4 1.1.5 1.5.8 1.4 2 2.9L161-141l.7 1.3.6 1.1.6 1.8.5 1.9.2 2 .3 2.2v7.1l-.5 3v3.1l.2 1.2.4 1.2.5 1.8 2.4 6.6 1 2.9.6 2.4.3 1.6.3 1.8.8 7 .2 1.4.3 1.3.3 1.2.4 1.3.6 1.4 1 1.6 1 1.7 1 1.3 3.9 4.5 1.2 1.3 1 1 1.6 1 1.4.8 2.5.7 2.6.5 2.2.3 2.8.1h4.6l3.2-.2-1.1.6-3.4 1.6-4.1 1.8-6.3 2.7-6.4 2.6-2.7 1-3 1-3.5 1.2-2.1.7-6.3 1.7-6.3 1.6-6.6 1.5-2.7.6-4.8.8-4 .6-2.1.2h-4.4l-2.7-.1-2.6-.2-6.1-.6-2.5-.2h-5.4l-2.3.3-2.2.5-1.6.5-1 .4-1 .4-.8.5-1.4 1-1.2 1.2-.9.8-.8 1-1 1.3-1 1.4-1 1.8-.8 1.8-1.8 4.3-.9 1.9-.7 1.5-1 1.8-1.3 1.7-1.3 1.5-1.7 1.7-1.9 1.6-2 1.2-1 .5-1.4.4-1.4.3-1.7.1-1.6-.1-1.3-.3-1.3-.4-1.6-.6-1.8-1-1-.6-.8-.7-.9-.9-.5-.7-.4-.8-.7-1.4-1.2-3.5-.3-1-.3-1.3-.3-2-.2-2v-1.3l-.1-2.5V-46l-.1-2.2-.2-1.4-.3-1.5-.2-1-.3-.7-.5-1-.6-1-.6-.7-.6-.7-1.4-1.4-3-2.7-1.5-1.2-1.3-.9-3.7-2.3-2.6-1.4-2.8-1.3-.9-.5-.8-.6-.7-.6-2.6-2.5-3.6-3-1.2-1.2-.8-.8-1.2-1.5-1-1.5-.2-.5-.2-.5-.1-.5v-1l.2-.5.4-.6.6-.6.6-.5.8-.7 1-.6 2.1-1.3 3-2 1.3-1.2 1.4-1 7.1-7.3L52-102l1.8-1.8 1-1 .8-.6 1.2-.8 3.9-2 1.1-.7.8-.6.4-.4.3-.3.4-.6.6-1.1.4-1.3.2-1.7.1-2v-2l-.2-2.1-.6-7.8v-1.9L64-134l-.1-2.6-.2-1.7-.1-1.1-.4-2.2-.6-2.1-.8-2-1-2-1-1.5-1.2-1.4-1.3-1.3-1.3-1.2-3-2.6-11-8.6-4.7-4-8.6-7.5-2-1.5-3.6-2.8-2.7-2.3-1.7-1.6-1-1.1-.5-.8-.3-.6-.3-1-.1-1v-.8l.2-.4.4-.9.8-1.2L21-195l.7-.8.8-1 .8-1 .8-1.4.8-1.5 2.7-4.9 2.8-5 2.4-4.4 4.6-8.8 4.7-8.8 1.3-2.5.5-1.3.6.2 3.8 2.5 1.8 1 2 1 2 1 1.8.5 1.8.4 1.4.1h2.7l1.5-.3 1.5-.4 1.4-.5 1.4-.6 1-.5 2-1.3 1.3-.6 1.2-.6.6-.1 1.1-.2H77l1.4.3 3.5.8 2.2.4 1.4.1H88l1.3-.2 1.5-.3 2-.8 1.2-.6 1.2-.9 1-.9.6-.7.4-.7.7-1.2.4-1.1.3-1 .2-1 .5-5.2.5-3.4.3-1.4.3-1.4.3-1 .3-.7.6-1 .8-1 .7-.8.6-.5 1-.7.9-.4 1.3-.6 1.4-.3 1.4-.1h1.2l1.1.1 1.3.3.9.3.7.4 1.1.6 1 .7 1 1 1.2 1 .6 1 .9 1.1 1 1.8 2.4 4.1 1 1.5 1 1.3.9 1 1 1 1.2.9 1.3.8 1 .5 1.2.4.7.1 1.7.3h1.4l.7-.2"/></defs><g clip-path="url(#p6c73b3d65c)"><use xlink:href="#m2d14f96622" y="280.5" fill="#f4f4e2" stroke="#f4f4e2"/></g></g></g></g><defs><clipPath id="p6c73b3d65c"><path d="M7.2 7.2H211v266.1H7.2z"/></clipPath></defs></svg>