<svg xmlns="http://www.w3.org/2000/svg" xmlns:xlink="http://www.w3.org/1999/xlink" width="495.4" height="357" viewBox="0 0 371.5 267.7"><defs><style>*{stroke-linejoin:round;stroke-linecap:butt}</style></defs><g id="figure_1"><path id="patch_1" fill="none" d="M0 267.7h371.5V0H0z"/><g id="axes_1"><g id="PatchCollection_1"><defs><path id="m34eb606b2c" stroke="#f4f4e2" d="m225.8-249 .2.4-.2.6-.2.4-.6.8-1.6 2-.7 1.1-.7 1.1-.4.8-.3.9-.3.8-.1.8v2l.2.8.3 1.1.4 1.3.5 1 .4 1 .6 1.3 1 1.8.4.8.4.6.8 1.1 1.1 1.4 1 1.2 1 1.2 1.2 1.2 2.4 2.5 3.6 3.5 1 1 1 .7.7.6.9.5.7.4.8.2h.9l.4-.1.5-.1.5-.2.8-.4.6-.3.6-.3 1-.7 1-.8 1-.6 1.6-1 2.3-1.4 1.3-.7 1.2-.5.8-.3.7-.2h.9l.3.4v.8l-.2.3-.2.5-.3.3-1.1 1.3-2.4 2.4-1.3 1.4-1.3 1.6-1.3 1.6-.9 1.4-1 1.6-.8 1.6-1.6 3.2-1.1 1.9-.5.7-.7 1-.7.9-.7.8-1 1-.9 1-1.7 1.5-1 .9-.7.5-1.2.8-3.6 2.3-1.2.9-1.7 1.2-1 .8-1.1 1-.6.6-.7 1-.1.2-.5.9-.3.8-.2.8v1.4l.2 1v.4l.3.6.2.5 1 1.9.3.4.4.6.3.4.4.2 1.4.8 2 1.3.7.4.6.3 1 .4.8.2h1.2l.7-.2.6-.1 1-.4.9-.4.8-.4.7-.5 1.3-.8 1.8-1.3 2.7-2.1 3.3-2.7 1.9-1.5 2-1.4.9-.6.5-.2.6-.3.6-.2h1.8l1 .4.7.3.6.4 1 .7.7.8.6.7.6.7.5.8.5.9.4.8.4 1 .4 1 .1.7.4 1.9.2.9.4 1.3.3.8.4 1 .4 1 .5.9.7.9.6.8.7.7.7.6.5.3 1 .5 1 .3 2.8.7 1.4.4.7.3.5.3.4.2.9.5.7.6.8.6.7.6.8.9 2.1 2.3 1 1 1 .8.6.4.6.4.8.3.6.2h1.6l2.1-.2 1-.1h1l1 .4 1 .6.9.7.7.9.6 1 .4 1 .2 1v.8l-.3.7-.2.6-.5 1-1.3 2.5-.3.5-.2.5-.1.5v.9l.2.3.2.3.2.2.4.3.5.3 2 1 .8.4.9.4 1.6.6 2.2.6 2.3.6h.8l.3.1.5.8.4.9.3.9.5 1.7.3.9.3.6 1 1.9.2.6.2.6.1.6.2 1.9.2.6.2.6.2.6.4.9 1.5 2.6 1.5 2.6.7 1.1 2 3.1 1.5 2.3 1.4 1.9 1 1.3.9.9 1.8 1.9.8.9 1.3 1.5.5.6.4.6.6 1 .8 1.4.3.7.3 1 .3 1 .1 1.1.2 1.8.2 3.6v1.2l.6 3.6.1 1 .2 1 .2.4 2 5.4.5 1.5.7 1.4.7 1.4.9 1.4.7 1.3 1.7 2.6.5.8.2.5.4.8.3 1 .3 1.1v1l.1.8v4.6l.3 6v2l.1 1.3.1.6.1.6.3.8.5 1 .3.7.8 1.2 2.5 3.5.7 1 .4.7v.4l-.4.2-.5.2-1 .6-1.6 1.1-.3.3-.3.2-.2.4-.3.6-.2.7-.5 1.8-.2.7-.2.3-.2.3-.4.6-.6.5-.6.5-.6.5-.3.2-.7.2-.6.2-1 .3-1.2.2h-1.8l-.7.3-1.2.3-1.5.3-1.4.3-1.6.1-1 .1h-2.2l-1.5-.1-1-.2-.9-.2-1.3-.5-.8-.4-1.1-1-1-1-1-1.3-.8-1.2-.7-1.3-1.2-2.4-1-2-.5-1.4-1.1-2.6-.8-2-.6-1.8-.4-1-.7-1.1-.7-1.2-.9-1-.9-1-1-1-1-.8-1.7-1.2-.8-.7-.8-.8-.8-1-2.8-3.3-.5-.6-1-1-1-.8-.4-.4-1-.6-.9-.5-.9-.5-.9-.4-1-.3-.8-.1h-1.7l-.6.2-.6.2-.7.3-.8.4-.8.4-2.6 1.6-1.2.7-4.8 2.6-1.4.8-2.3 1.3-1.6 1-.8.7-.8.6-1 1-1 .9-1.9 2.2-1.2 1.3-1.1 1.2-1.7 1.5-1 .9-1 .7-3 2.2L253-35l-.7.4-.7.4-.6.2-.6.1-.6.2h-2.5l-.6-.2-.8-.3-.5-.3-.5-.3-.3-.3-.2-.2-.2-.4-.1-.3v-1.4l.1-1.2 1.5-6 .8-3.6.4-1.8.1-1.3.1-1v-.8l-.1-.8-.4-2.5v-2.2l-.1-2.3v-4.5l.3-1.2.8-2.4.2-1v-1l-.2-1-.5-1-.3-.5-.7-1-.8-.8L244-77l-.6-.8-.6-.7-.7-1.1-.4-.8-.3-.6-.5-1.4-.3-.8-.5-1.5-.4-1.8-.1-.4-.3-.4-.3-.4-.2-.2-.6-.4-1.3-.7-.9-.5-1.9-.7-.7-.4-.5-.3-.7-.5-1.6-1.2-.5-.3-.5-.3-1-.4-1.8-.7-.9-.3-1.2-.6-.7-.3-2.5-.8-.4-.2-1.2-.6-.4-.2-.4-.1h-.5l-.5.1-.5.2-1.1.5-.6.3-.5.3-1.1.8-1.8 1.4-.9.8-1.7 1.6-2.6 2.2-2.4 2-4.5 3.5-1.5 1.2-1.5 1-2.2.6-1.3.4-1 .4-.7.3-.7.4-1.4.9-1 .6-.8.7-1 .9-.6.6-.3.4-.7 1-.6 1.2-.5 1.4-.5 1.3-.4 1.4-.4 1.6-.3 1.5-.5 3-.2 1.3-.2 1-.4 1-.3.8-.3.5-.5.7-.3.3-.4.4-.6.4-.4.2-.3.2h-.5l-.3.1h-.4l-1.2-.2H175l-1-.1h-2l-.6.2h-.3l-.4.3-.6.3-.5.5-.6.5-.3.4-1.6 2.3-.9 1.2-.8 1-2 2.1-1 1.4-.7 1-1.1 1.6-.8 1-.7.8-.8.9-1.6 1.4-.6.7-.5.5-.3.5-.3.6-.2.3-.2.9v.7l.2.5.2.7.4.6.5.5.2.3.7.5 1 .8.6.4.4.4.3.5.2.4v1.3l-.2.4-.2.4-.1.3-.5.5-.8.7-1 .6-1 .6-1.4.6-4.4 1.6-4 1.7-1.3.5-1.3.4-1 .2h-.6l-1 .1h-1l-6-.2H131l-1 .1-1.6.2-5 .6-.9.1H118l-1.7-.3h-.7l-1.3-.4-.5-.1-.3-.2v-.1h-.4l-2.6-.2h-.8l-1-.2-.9-.2-.8-.2-1.2-.4-.9-.4-1.3-.8-1.2-1-1-1-1-1-.9-1.2-.7-1-1-1.7-.3-.8-.4-.8-1.8-4.2-.4-1-.6-1-.6-.9-1-1.6-3-3.6-1.6-2.2-1.4-2-3-4.7-2.6-4-.6-1-.8-1.1-1.4-1.8-7-8.3-.4-.7-.7-1-.5-.9-.4-.9-.3-1-.1-.4v-.6L69-75l.3-.7.2-.7.7-1.3 1.6-2.5.3-.6.3-.7.2-.8.2-.7v-.9l-.2-.7-.2-.6-.4-.6-.6-.5-.5-.2-.5-.1h-1.5l-1.7.3h-2.4l-.7-.2-.8-.3-1-.3-1-.5-.6-.4-1-.6-.6-.7-.4-.8v-1.3l.2-.5.1-.4.4-1 .4-.6.5-.7.7-1 .8-1.2 2.5-2.9 1.5-2 .6-1 .3-.5.2-.5.1-.5.2-.7v-.2l-.1-.5-.2-.5-.3-.6-.4-.6-.7-.8-.6-.6L60-113l-.9-1-1-1-1-1-.8-1.1-.8-1L53-122l-1-1-.5-.6-.6-.4-.4-.3-.5-.2-.6-.2-.7-.2-.6-.2-1.4-.2-1.7-.1h-2.7l-1.7-.1-1.3-.2-1.4-.2-1.3-.2-4.6-1-4.8-.9-1.4-.3-1-.3-.6-.3-.3-.2-.2-.1-.1-.2-.2-.4v-.5l.1-.5.2-.3.2-.6.6-.9.6-.7.8-1 1-1 1.5-1.5 1.5-1.5.7-.6.8-.6 1.4-1 1.9-1.2 1-.6.5-.2h.3l.8-.5 2-1.1 2.2-1.5 1-.6.8-.4 1-.4.8-.3.8-.1H47l.4.1.8.4.8.5 1 .7 2.3 2.1.6.5 1 .7.8.5 1.1.4 1.3.3h1.4l1.5-.2 1.5-.3 1.5-.4 1.6-.4 1.5-.5 3.2-1 4.7-1.8 3-1.2 1.5-.6 1.4-.6 1.4-.7 1.1-.8 1-.9.7-.7 1.1-1.7.6-1 .5-1 .3-1.1v-1.9l-.1-.7-.2-.7-.4-1.2-.4-1-.5-1-.6-1-.8-1.2-.8-1.2-.9-1.1-2-2.4-.6-.8-.4-.7-.3-.7v-.7l.2-.5.5-.2h.8l1-.1 1-.2 5.5-1.2 2.8-.7 1.4-.4 1.2-.4 2-.6 2-.8 1.7-.8 1.7-.8 1.2-.8 1.2-.7 1-.7.7-.6 1-.8 1.4-1.2 2.4-2.2 1.2-1 .7-.6.7-.4.5-.2.5-.2h1.2l.4.2.3.2.3.3.6.4.5.6 1 1 3.3 4.1 1.2 1.4.8 1 1 .9 1 1 .6.4.6.5.7.3.8.2h1.9l1.1-.4.8-.3 2-.9 5-2.4 4.5-2 4.6-2 1.9-.9 1.3-.7 1.2-.8 1.4-.9 1.6-1.2 2-1.6 2.7-2.2 3.7-3.3 1.7-1.4 1.6-1.4 3-2.3 1.3-1 1.6-1.4 1.2-1.2.8-.8.8-1 .9-1.1 1.1-1.7 1-1.4 1.2-2 .5-1 .3-.6.2-.4v-.2l.3-.2 1-1.2 1.2-1.7.8-.9 2.1-2.2 1-1 .7-.7 1.5-1 .6-.4 1.8-1.6 2.4-1.7 1.9-1.6 1-1 1.3-1.4 1.2-1.6.7-1 1.3-2 1-1.3 1.9-2.1 2.3-2.4.4-.5.7-.5.8-.6 4.3-2.5.7-.3 1.3-.6 1.1-.5 1-.3 1-.2 3.4-.5 1-.2 2.1-.6 1-.2h.9"/></defs><g clip-path="url(#pb76f323aa1)"><use xlink:href="#m34eb606b2c" y="267.7" fill="#f4f4e2" stroke="#f4f4e2"/></g></g></g></g><defs><clipPath id="pb76f323aa1"><path d="M7.2 7.2h357.1v253.3H7.2z"/></clipPath></defs></svg>