<svg xmlns="http://www.w3.org/2000/svg" xmlns:xlink="http://www.w3.org/1999/xlink" width="212.4" height="374" viewBox="0 0 159.3 280.5"><defs><style>*{stroke-linejoin:round;stroke-linecap:butt}</style></defs><g id="figure_1"><path id="patch_1" fill="none" d="M0 280.5h159.3V0H0z"/><g id="axes_1"><g id="PatchCollection_1"><defs><path id="me336ac32f4" stroke="#f4f4e2" d="m124.8-253.8-.3.3-.1.5.2.7.3.5.4.3.4.4.5.4 1 .6 1.4.7 1.6.6 1.1.4 4.3 1.2 2.1.8 1.1.5.8.4.8.5 1.2 1 .9.8 1 1.3.7 1 .4.6.5 1.2.2.7.1.9v2.3l-.4 1.2-.4.8-.5.7-.6.5-1 .7-1.1.5-1 .3h-2.6l-2.1-.3h-2.3l-.7.4-.4.2-.5.5-.5.6-.3.5-.2.5-.3.7-.2.8-.3 1.8v2.6l.2 3.9v1.7l-.1.9-.3.8-.2.6-.4.7-.7.8-.8.7-.8.5-.9.4-.7.3-.8.3-3 .7-.5.2-.9.3-.6.3-.8.5-.7.6-.6.6-.7 1-.7 1.2-.4.9-.3 1-.2.8-.1 1.2v3.1l.2.9.3 1.2.8 1.6 1 1.7 3 4.6.8 1.3 1.3 2.6 1 2 .7 1.6 1 2.6.9 2.7.8 3 .3 1.3.1 1 .2 1.2v1.7l-.3 1.2-.2 1-.5 1.2-1.7 4-.3.9-.4 1.5-.2 1.4v1l.1 1.3.2 1.2.4 1.4.5 1.4.4 1 .7 1.4.6 1 1 1.4.6 1 1 1 1.9 2 .5.8.9 1.1.7 1.6.4 1.2.2 1.2.2 1.4.7 9.8.3 3 .3 2.6.3 2.1 3.8 22.7 1.8 9.2.4 2.2.5 2.1.5 1.5.6 1.6.9 1.9.5 1h-.2l-.8.5-1.2 1.2-1.2 1.2-.5.6-.6 1-.6.8-.4.8-.8 1.9-.8 2-.4 1.2-.4 1.6-.6 3.1-.4 2.2-.7 2.2-.4 1.2-1 2-1.3 2-1.4 1.8-1.6 1.8-1.6 1.6-1.8 1.4-4.2 3-6.3 5-5 3.5-1 .8-2.4 2-1.4 1.2-1.5 1-1.5.8-4 1.7-3 1.8-1 .5-.8.3-1.1.4-1.2.3-1.2.2h-1.7l-1.7-.2-3.4-.5-2.5-.2-1.3-.2L78-21l-1.7-1-1.3-.8-2.4-1.8-.9-.6-1-.5-.8-.4-1-.3-1-.3-1.2-.2-.8-.1h-.7l-.6.1-.5.3h-1.6L48.8-27l-4.6-.1-2.3-.2-1-.2-1.6-.4-.9-.3-.6-.2-1.3-.7-1.6-1-1.8-1.2-19.3-14.2.2-.2.4-.7 1.4-2.6 2.2-4.5 2.3-4.9 4.4-9.7 16.8-38.4 3-6.7 1.7-4.5.9-2.3.7-2.3.6-2.3.5-2.4.2-1.6v-1.6l-.1-2.5-.4-2.5-.5-2.5-.6-2.5-.8-2.6-.8-2.6-.8-2.5-1-2.4-.8-2.2-.9-1.8-.7-1.3-.3-.3.3-.1.4-.5.2-.3.7-1.2.8-1.7.4-1 .6-2 .4-1.6.4-2 .3-1.7.2-1.7v-5.2l-.5-5.4v-2.5l.2-.8.1-1 .4-1.5.6-1.9.7-1.6.6-1.1.8-1.3.7-1.2 2-2.9.9-1.4.6-1 .5-1 1.3-2.9 2-5.2.7-1.3 1.3-2.6.7-1.3.7-1 2.2-3 1.1-1.4 1-1.6 1-1.6.6-1 .5-1 .4-1.1.3-1.1.2-1 .2-1.4v-2.8l-.1-6.5v-2.4l.2-2 .4-1.8.2-.8.6-1.4.6-1 1-1.8.7-1 .7-.8 1.3-1.2 1.4-1.1 1.6-.9 1.2-.4 1.2-.4 2.8-.7 3-.5 2-.3 2.8-.3 4-.4 2.3-.3 1.6-.4 1.9-.5 1.8-.5 6.6-2.2 1.4-.3 1.5-.3 1.4-.1 1.8-.1h1.8l1.7.3 1.7.5 1.6.7 1.5.9 1.2 1 .6.4.9 1.2.5 1v1l-.5.4"/></defs><g clip-path="url(#p680e902eb4)"><use xlink:href="#me336ac32f4" y="280.5" fill="#f4f4e2" stroke="#f4f4e2"/></g></g></g></g><defs><clipPath id="p680e902eb4"><path d="M7.2 7.2h144.9v266.1H7.2z"/></clipPath></defs></svg>