<svg xmlns="http://www.w3.org/2000/svg" xmlns:xlink="http://www.w3.org/1999/xlink" width="495.4" height="308.9" viewBox="0 0 371.5 231.7"><defs><style>*{stroke-linejoin:round;stroke-linecap:butt}</style></defs><g id="figure_1"><path id="patch_1" fill="none" d="M0 231.7h371.5V0H0z"/><g id="axes_1"><g id="PatchCollection_1"><defs><path id="m0330855f4e" stroke="#f4f4e2" d="M292.8-203.4v.3l.1.6.5 1.3.8 1.5 6.4 11 1 1.6.6.8.7 1 1.7 2 1.5 2 1.1 1.2 1.5 1.5 1.1.8 1 .5 1.2.4.9.4.6.4.4.4.3.4 1.1 1.8 1.7 2.6 1 1.2.7.8.7.7 1.1.8.7.4 1 .5 2.2 1 5.3 2.1 1 .5 1.2.6 1 .7.7.5.7.7 2.1 2.4.9.8.6.4.6.3 1 .3 1 .1h1.4l.3.2.4.2.2.3.2.6v1.8l-.2 2.2-.2.7-.4 1.6-1.1 3.1-.4 1-.3 1.2-.3 1.3-.2 1-.1 1.1v3.2l.4 1.4.4 1 .7 1.2 2.4 3.3 1 1.8 1.3 2.4.5 1 .4 1 .3 1.2.3 1.3.3 1.2.1 1 .1 1.5v4.1l-.1 1.2-.8 4.6-.7 6.3-.2 1.3-.3 1.4-.4 1.6-.5 1.5-.5 1.3-2.7 7-.8 2.2-.7 2.3-.3 1.5-.2 1.4v2.3l.2.3h.4l.3.3.4.7.2 1 .1.8v1.1l-.2 1.1-.5 1-1.1 1.3-1.7 1-2 .8-2.1.7-2.3.6-2.5.5-4.7.8-6.7 1-7 .8-4.7.5-4.5.4h-6.2l-1.8-.2-1-.3-1-.3-.7-.3-2.8-1.6-1.4-.5-1.6-.4-1.7-.2h-3.5l-.9.2-2.4.5-4.7 1.2-1.7.3-2.1.4-1.8.2h-6.6l-2-.3-3.3-.3-1.9-.4-1.8-.4-2.3-.7-2.1-.8-2-1-1.3-1-1-.8-1-.7-1-1-.2-.3v-.2l-2-.7-1.8-.6-2.2-.6-2.3-.6-2.5-.4-2.4-.3h-4.5l-2 .3-2 .3-7.6 1.8-1.7.3-3.5.6-7.5 1.2-5.3.6-1.5.2h-1.6l-2-.1-2.1-.3-2-.4-4.1-.8-2-.4-2-.1h-1.7l-1.7.3-1.2.5-1.4.9-1.2 1-1 1-2.8 3.2-1.1 1.3-.9 1.1-.6.9-.8 1.3-.7 1.4-2.4 5.2-.6 1.2-1.1 1.9-2 3.2-.8 1.2-.8 1.4-.8 1.6-1.9 4.4-1 2.2-.6 1-1 1.8-.8 1-.7.8-1.3 1.5-1.1 1.1-3 2.8-4 4.1-1.6 1.6-1.4 1.2-.7.6-.8.5-.8.5-1 .3-1 .3h-.9l-.6.1h-1.9l-.7-.2-1-.4-.7-.3-.5-.3-.7-.5-.6-.8-.6-.9-.5-1-1.4-3.2-.6-1-.5-.9-1-1.1-1.1-.8-1.4-.6-1.7-.3h-1.7l-2 .2-2.5.4-2 .3h-1.5l-1.8-.1-1.5-.4-1.2-.5-1.6-1-1.3-.9-2.8-2.4-1.6-1.4-1.6-1.1-1.4-1-3.3-2-1.1-1-.7-.5-.5-.7-.5-.6-1.4-2.3-.8-1-.6-.6-.8-.7-1.3-.5-1-.3h-2.5l-1.3.2-1.6.4-1.8.6-1.3.5-3 1.1-1.4.6-1 .3-1 .1h-1.2l-1.1-.2-1.3-.6-1.2-1-1-1.2-.8-1.4-1.9-3.5-.6-1-.6-.8-.5-.4-.4-.2h-.4l-.5.5-.3.7-.1 1-.1 1.8v10l-.1 6-.1 2.2-.3 4.7L48-23l-.2 1.3-.3 1.4-.3 1-.4.8-.4.5-.6.3-.7.2-1-.3-1-.7-.8-1.2-.6-1.1-.6-1.8-.4-1.7-.3-2-.8-5.6-.3-1.6-.3-1.7-.6-2.4-.7-2.8-1-3.2-1-3.3-.3-.6-.3-.3v-2l.4-1.6.7-2 .5-1 .7-1.2 1.5-1.9 1.2-1.2 1.7-1.5 1.4-1 3.2-2 1.7-1.3 1.2-1 1.3-1.4 1-1.5.7-1.5.5-1.6.3-1.6v-2.8l-.3-2.2-.5-1.8-.6-2.2L51-84l-.8-2-2.7-6.7-.9-2.6-.7-2.2-.7-2.9-.4-2.5-.2-1.5-.3-4.3-.1-1.2-.2-1.2-.3-1.1-.3-.6-.3-.5-.6-.8-.7-.4-.6-.1h-1l-.6.4-.5.3-.6.4-2 1.8-.7.6-1 .3h-.5l-.5-.1-.7-.4-.8-.8-1-1.4-.8-1.5-.7-1.8-.5-1.2-1.7-4.9-.9-2.2-.6-1.4-1.2-2.9-.7-1.5-.5-1.6-.2-1.3v-1.6l.3-.4.3-.1h.5l.3.2.7.4 2.3 1.8 1.5 1 .8.5 1.3.7 1.1.5.8.2 1.3.3.7.1h1.8l1-.2 1.9-.5 1.4-.5 1.2-.5 1.2-.6 1.4-.8.7-.5 1.6-1.1 1.2-1 4.2-3.5 2.2-1.7.8-.6 1.6-1 3.6-2 1.7-1 1.3-.8 3.6-2.6 2.8-2 2.5-1.5 1.4-.7 1.2-.6 1.5-.5 1.6-.6 1.9-.6 1.6-.4 5-1 1.9-.6 5-1.4 2.8-.7 1.8-.3 2.5-.4 1.6-.2h1.6l1.4-.1h7.3l1.5.2 1.9.2 1.4.4 1.1.4 1.3.7 3.3 2 1.3.7 1.5.7 1 .4 1.4.4 1.1.3 1.2.2 1.5.2h1.5l1-.3.6-.2.7-.3.5-.3.5-.3.7-.6.9-1 .5-.6 1-1.3 1.1-1.9 1-1.1.7-.9.8-.7.8-.6 1.1-.7 1.9-1 1.7-1 2.7-1.2 2.6-1.2 1.9-.7 1.9-.7 4.5-1.4 2.3-1 1.3-.6.7-.4.7-.5.6-.5 1.6-1.5 1.8-1.9 1-1.2 1-1 1-1.5 1.1-1.7.8-1.2 2-3.7.8-1.4 1-1.4 1-1.4 1-1 1.5-1.5 2-1.5 1.7-1.3 1.8-1.1 1.6-.9 1.7-1 2-.9 2.2-1 2.6-1 1.3-.5 2.5-.8.7-.2 1.2-.7.5-.4 2.3-1.9 1.7-1.3 1.3-1 1.3-1 1.7-.9 1.2-.6 1.2-.4 1-.4 1.3-.2 1.3-.2 1.3.1.9.2 1 .5 1.2.5 3 1.6 1.4.7 3.3 1.3 1.3.6 1.3.6 1 .6 1 .6 1.2.8 1.7 1.2 5.5 4 1.5 1.1 1.6.9 1.9.9 1.9.8 1.8.9 1.2.7.7.5 1.5 1.2 1.2 1 1 1 .9 1 1.4 1.7.8 1.2 1 1.3.9 1.5 1.1 2 1.3 2.4 1.8 3.6.3.6.3.5.3.3.4.3.5.2h1.5l.8-.4 1.3-.8.6-.5 1.2-1.1 1.2-1.3 1-1.3 1.2-1.6.5-.8.5-.8.4-1 1.2-3.3.4-1.2.5-1 .5-.8.6-1 2.1-3.1 2.2-3.7.4-.6 1-1.2 1-1 1-.8.4-.3.3-.1"/></defs><g clip-path="url(#p82e1e304cc)"><use xlink:href="#m0330855f4e" y="231.6" fill="#f4f4e2" stroke="#f4f4e2"/></g></g></g></g><defs><clipPath id="p82e1e304cc"><path d="M7.2 7.2h357.1v217.3H7.2z"/></clipPath></defs></svg>