<svg xmlns="http://www.w3.org/2000/svg" xmlns:xlink="http://www.w3.org/1999/xlink" width="495.4" height="343.3" viewBox="0 0 371.5 257.5"><defs><style>*{stroke-linejoin:round;stroke-linecap:butt}</style></defs><g id="figure_1"><path id="patch_1" fill="none" d="M0 257.5h371.5V0H0z"/><g id="axes_1"><g id="PatchCollection_1"><defs><path id="m52c5e15eb2" stroke="#f4f4e2" d="M341.4-28H340l-3-.7h-2.3l-1 .1-1.5.4-1.6.4-2.1.9-1 .4-1 .5-.7.5-.8.6-2.2 1.8-.7.6-1.3.8-.9.5-.5.1-.5.2-1.6.2-.5.2-.5.2-.4.3-1.6 1.1-1 .7-4.6-3-1.4-.8-1.3-.7-1.6-.6-.7-.2-1-.2-1.9-.4-1.5-.3-.6-.3-1-.3-1.5-.6-3.1-1.5-3.3-1.7-2.4-1.4-1.7-1-3.6-2.5-1.8-1.2-1.2-.6-1.2-.6-1.2-.6-1.1-.4-1.5-.4-1.2-.2h-1.2l-4.1.2h-2.5l-.6-.2-1.3-.3-1.7-.7-1.6-1-1.5-1.2-1.5-1.4-1.5-1.4-3-3.1-5.7-6.4-1.4-1.5-1.5-1.5-1.5-1.5L241-59l-1.5-1.2-1.6-1-1.7-.6-1-.3h-.8l-1-.2-6.5-.1-2-.1-3.2-.3-2.8-.3-1.7-.2-1.3-.2-1.4-.4-1.4-.4-1.3-.4-2.7-1-6-2.3-1.7-.6-1.2-.3-1.4-.4h-1l-1.2-.1h-1.8l-4.2.7h-1.3l-1 .1h-3.9l-2.3-.2-2.1-.3-2.7-.5-3.4-.8-1.5-.4-1.5-.5-1-.4-1.7-.7-1.5-.8-1.4-.8-2.5-1.5-1-.5-2.4-1.2-1-.6-1.3-1-2.7-2-3.2-2.5-1-.7-1.1-.8-1.3-.8-.7-.4-.6-.2-.5-.1-.5-.1h-.7l-.4.2-.3.3-.4.4-.3.6-.9 3-.2.7-.4.7-.5.5-.7.2h-.7l-.8-.5-.6-.6-.6-.7-.7-1-.9-1.3-1.5-2.7-1.1-2-1.1-2.4-1.7-3.5-.8-1.6-.5-.8-.5-.8-.5-.5-.6-.5-1-.4-2.5-.4-1.2-.4-1-.5-1-.7-1-.8-.8-1-1-.9-1.4-1.8-1.2-1.7-1.8-2.8-1.7-2.8-.6-1.1-1.3-2.6-.6-1.1-.5-.7-.6-.7-.6-.4-.5-.2h-.6l-1 .2-1.2.6-.9.6-.8.7-3 2.5-1.4 1.1-2.3 1.6-1.6 1-6.3 3.4-1.9.9-3.2 1.3-1.3.6-1.7.8-1.8 1-.8.6-1 .7-.7.5-2.3 2.1-1 .8-.7.9-1 1.2-.7 1-.6 1-.4 1.1v2l.2 1 .4 1.7.3.9v1.5l-.4.6-.5.6-.6.6-1 .6-1 .5-2.4 1-1.2.5-1.2.3-1 .3-1 .2h-2.4l-1.3-.5-1.3-.7-1.2-1-1-1-.9-1-.8-1.2-.7-1.2L50-89l-.6-1.2-.5-1.6-.6-2-.3-1-.5-1-.6-1.2-.5-.8-.7-1L44-101l-.5-.8-.7-1.3-1.2-2.5-.2-.6-.6-1.5-.4-1.5-.4-1.5-.1-1.2v-1.2l.1-1.4.7-3 .2-1.5v-4l-.3-1.4-.2-1.5-.3-1.3-.4-1.4-.4-1.3-.4-1-.4-1-.8-1.4-.4-.7-.3-.4h-.2l-.4-.4v-.5l.2-.7.5-.7.8-.9 2-1.8.8-.7.6-.9.3-.8.1-.5v-1.1l-.5-.9-.5-.6-.6-.6-1-1-.9-.5-1-.5-1.3-.5-3-.8-1.5-.5-1.4-.6-1.3-.9-1-.8-1-1-.8-1-.8-1.3-.5-.8-.4-.9-.3-.8-.4-1.5v-2.7l.6-1.3.7-1.1 1-1 1.3-1 1.5-1 7.8-4.9 1.5-1 2.6-1.7 3.4-2.6 2-1.5 3.3-2.7 2.2-1.8 2.2-1.5 1-.7 1.4-.8 1.2-.6 1.2-.5 1.1-.2 1-.1 1.4.2 1.3.5 1.2.7.6.5 1.3 1.2 1.4 1.5 1 1.2 4 4.7 1.6 1.9 1 1 1.2 1 .6.7.7.5 1 .7 2 1.2 1 .7 2.6 2.2.8.7.9.8 1.8 2 .4.4.6.4 1 .4h1.3l.7-.3.8-.3 2.7-1.6.7-.4.8-.3 2.4-1 2-.8 1.4-.8 3.6-2 2.4-1.2.5-.3 1.4-1 2.6-2.3 1.7-1.3 2-1.5 2.3-1.6 7.2-4.6 2-1.4 1-.8 1.1-.9 1-1 .7-.8 1.6-2 .8-1.2.5-1.1.3-.9v-.8l-.2-.6-.2-.5-.5-1-.5-.8-.6-.9-1.7-2.3-.7-1-.9-1.4-.7-1.5-.4-.8-.2-.9-.2-.9v-1l.3-.9.4-.9.6-1 .7-1 .9-.9.5-.5.4-.2.3-.4 1-.8 1.2-1 1.5-1.2 3-2.2 2.8-2 6.5-4.4 4-2.8 1.6-1 1.3-.6 1-.4 1.4-.5.7-.2h.7l.7-.1h.8l.6.2.8.4.5.4 2.7 1.9 1 .5 1 .4h2.2l.8-.2 1.4-.6 1.2-.5 1.2-.6 2.5-1.4 1.1-.7.5-.3.8-.7.6-.7.4-.8.3-1 .5-2 .3-.9.3-.7.2-.4.3-.2 2 1.4.7.5.8.8.8 1 .5.5.7 1 .8 1.6.5 1.1.3 1.2.2 1.2v1l-.1.9-.5 2-.2 1.3v1.4l.1.7.4 1 .5.8.7 1 .8.8.5.5 1 .7 2 1.2 1 .7.9.7.8.7 1.4 1.5.6.5.6.4.8.4.5.2h1.1l.5-.4.3-.3.5-.7.4-.4.6-.4 1-.2.9.1 1 .3 2 .6 2 .4 1 .2 1.1.4 1.2.5 1.7 1 1.5.9 2.2 1.4 1.7 1 .8.4 1 .4 3.2 1 2.2.7.8.2 2.2.4 2.6.6 1.9.3h3.7l1.2.2 1 .2 1 .4 1 .6 1.2.6 2.7 1.7 1 .6.8.7.7.7 1.7 1.9 1.1 1.3 1.2 1.4.7 1 1 1.6 1 1.7 2.7 4.8.9 1.4.8 1.3.8.8.8.6.8.3.8.2h1.3l.8-.1 1.9-.2 1.4-.1h1.6l1 .2.9.3.8.2 1.2.6 1.1.7 1 .7 2 1.7 1 .6 1 .4 2.1.6 1 .4 3.5 1.5 1.4.5 1.4.5 1 .3 1.1.1h2.4l3.6-.4h1.8l.7.1.7.2.6.2 1 .6.4.4.3.5.2.6v.8l-.1 1-.8 2.9-.1.8-.1 1v1.2l.1 1.4.5 1.6.6 1.7 2 4.2.5 1.3.4 1.1.4 1.2.3 1.3v3.1l-.3 1-.3.9-.6 1.8-.5 1.5-.3 1.6v1.7l.2 1.8.4 1.4.4 1.3 2 5.8 1.2 3.1.7 1.8 1 2.1.9 1.7 2.4 4.4.7 1.2.5 1 .4 1.1.3 1.3v1l-.1 1.4-.4 1-.5 1-.6 1.1-.7 1.1-2.6 3.5-1.3 2-.6 1-.4.8-.2.8v1.7l.2.4.3.4.3.4.2.3.4.3.4.3.9.3 1 .3 1 .1h2l.8-.3.7-.2.7-.4.8-.3.8-.6 1.5-1 1-.5.7-.3.9-.4.8-.3.6-.2 1.4-.3 1.5-.1h1l1.2.3.7.4.6.4.8.8.8 1 .7 1 1.3 1.9 2.7 4.4 2.6 4 .7 1 .6 1.2.6 1.4.4 1.5v2l-.2 1-.3 1.8-.2 1.3-.1.9v1l.2 1.2.3 1.1.4 1.5.5 1.4 1.6 4.4.6 1.7.4 1.2.3 1.4.1.9v2.5l-.2 1.2-.4 1.5-.3.9-.8 1.7-2.4 5.1-.6 1.5-.5 1.1-.7 1.9-.4 1.4-.3 1.3-.2 1v.2l.2.2"/></defs><g clip-path="url(#p5ac5c3888a)"><use xlink:href="#m52c5e15eb2" y="257.5" fill="#f4f4e2" stroke="#f4f4e2"/></g></g></g></g><defs><clipPath id="p5ac5c3888a"><path d="M7.2 7.2h357.1v243.1H7.2z"/></clipPath></defs></svg>