<svg xmlns="http://www.w3.org/2000/svg" xmlns:xlink="http://www.w3.org/1999/xlink" width="347.8" height="374" viewBox="0 0 260.9 280.5"><defs><style>*{stroke-linejoin:round;stroke-linecap:butt}</style></defs><g id="figure_1"><path id="patch_1" fill="none" d="M0 280.5h260.9V0H0z"/><g id="axes_1"><g id="PatchCollection_1"><defs><path id="m5ad7b8fb08" stroke="#f4f4e2" d="m184.4-99.8-.6-.2h-1.5l-1.5.1-1.3.4-1.2.6-.4.3-.6.7-.6 1-.3 1.2v1l.1.4.3.5.2.3.4.5 2.4 2.5.4.5.6.6.4.8.2.4.3.7.2 1 .1.8.1 1.3.1 1.4v4.8l-.1.9-.2.7-.8 2.4-.2.9-.1.5.1 1.3.1.5.4 1 .5 1.2 2 4.8.2.5.6 1 .4.6 1.2 1.4 6 6.2 2.2 2.5 1.2 1.5 1.2 1.6 1 1.4 1.1 1.5 1 1.6 1 1.7.6 1.2.5 1 .6 1.7.4 1.5.2 1 .3 1.7.2 1.6-1.1.2-3.3.5-7.2 1.4-1.2.2-1.8.2-2.8.2-2.2.1-7.8.3H172l-1.5-.2-1.3-.2-1.8-.4-2-.3-2.5-.4-1.4-.1h-1.7l-3-.2-3-.1h-4.5l-1.6-.2-1-.1-1.4-.3-.8-.2-.9-.3-.9-.4-1-.8-.8-.7-1-1.2-3-3.9-3.1-3.9-1.2-1.6-.7-1-.6-1-1-2-.6-1.4-.6-1.9-.4-2-.3-1.8-.2-2.2-.3-6v-1l-.4-.8-.4-.2h-.3l-.3.3-.3.2-.6.6-1.4 1.7-1.6 2-1.3 1.9-2.1 3.1-7.4 11-4.3 6.3-2.8 3.8-1.8 2.3-1.2 1.5-1.1 1.2-1.6 1.7-1.7 1.5-1.7 1.4-1.8 1.4-1.8 1.3-3.4 2.2-2.8 1.8-.4-.2-1.9-.4-4.1-.5-4.8-.4-14.3-1.3-4.1-.5-2-.3-2-.3-2-.3-2-.5-1.7-.5-1.7-.7-1.6-1-1.4-1-1.3-1.2-1.2-1.4-.6-.9-3.1-4.6-1.2-1.6-.8-.9-.7-.7-1.5-1.4-1.6-1.3-4.2-3-1.8-1.4-1.2-1.1-1.2-1.1-1-1.2-.7-.9-.4-.6-.4-.6-.2-.6-.2-.6-.2-1.4.1-1.4.3-1.4.5-1.3.7-1.4.7-1.2.9-1.2 1-1 1.3-.8.5-.2.7-.2h3.7l3.6.5 2.2.2h3.8l1-.2 1.3-.3 1.1-.2 1.9-.5L46-65l2.3-.8 1.3-.5 1.2-.4 1.3-.6 1-.5 1-.5 1.3-.8 1-.6 2.3-1.5 3.9-3 2.5-1.7 5.7-3.7 3-2 5.3-3.2 2.3-1.5 1.1-.8.9-.7 1.2-1.2.7-.8.5-.7.5-.8.3-.8.2-.8v-1.5l-.3-1.6-.6-1.5-.8-1.5-.9-1.4-1-1.2-1-1.2-1.3-1-1.4-1-2.5-1.8-1.3-.8-4.5-2.7-1.4-1-1.4-.9-1.3-1-.6-1-.6-1-.5-.9-.4-1-.6-1.7-2.3-9.4-.7-3.4-.8-4.5-.2-1.5-.4-3.7-.5-4.3-.1-1.5v-1.3l.4.3h.8l.4-.2.3-.3.3-.3.3-.3.2-.5.2-.5.1-.7.1-.6v-1.6l-.3-1.8v-1.2l.2-.3.3-.2.3-.2h.8l1.5.4 1 .2h2.3l.5-.2.2-.2.2-.3.1-.2v-.7l-.1-.3-.2-.4-.4-.4-1.2-.8-.9-.8-2.9-2.9-.7-.6-1-.7-1-.6-.8-.5-1.1-.5-1-.5-3.6-1.4-1.2-.6-.7-.3-.7-.5-1-.7-.3-.3-.5-.5-.6-.8-.7-.8-.8-1.2-.7-1-.6-1.2-1.4-2.6-2-4.3-.1-.2v-.3l.3-.4.6-.8.6-.8.5-.4.9-.8.8-.7.9-.6 4.4-2.5 2.1-1.3 2.3-1.6 1.5-1.1 1.9-1.5 1.3-1.3 1.4-1.6.9-1 .4-.7.4-.6.5-.8.3-1 .7-1.6.3-1.4.5-2.4.3-1.2.9-2.7.6-1.6.7-1.4 1-1.4 1-1.4 4-4.9.9-1.3.6-1 .6-1.2.5-1.4.3-1.5.5-3 .3-1.4.3-1.2.9-2.4.4-1.1.6-1 .7-1 .9-.5 1-.3 1-.3 1-.1h4.5l1.2.2 1.1.3 1 .4.9.4.6.4 1 .8.6.6 1 1.2.7 1.1 1.9 3 .8 1.4.9 1.6.7 1.5.7 1.5.6 1.4.5 1.3.5 1.4.5 1.6.5 1.8.6 2.7.8 4.8.2 1 .3 1.1.4 1 .6.9 1 1 .7.4 1 .5 3.2 1.2.7.3 1.2.6.7.4.8.2.5.1 1 .2 2.4.2h2.3l2-.3h2.8l.8.2 1.6.6 2.6.7 3.2 1.1 1.3.4.7.1 1 .2h1.5l1.8-.1 1.7-.4 1.8-.6 1.8-.8 1.8-.8 1.8-1 1.8-.9 1.8-1 1.8-1 1.7-1.2 1.7-1.1 1.7-1.2 1.5-1.3 1.5-1.4 1.3-1.7 1.3-1.7 1.1-1.8 1.1-1.9 1-1.9 2-3.9 1-2 1.8-3.8 1.6-3.8.7-1.8 1.3-3.2.6-1.3.8-1 .8-.5.9-.4 1.2-.3h1l1-.1h6.3l2-.2 1.5-.3 1.7-.4 1-.4 1-.5 1.4-1 1.4-1 2.8-2.5 1-.9 4.4-3.3 1.8-1.4 1-.9 1-1 3.2-3.4.5-.1h1.3l1.5.3 5.7 1.1 6.1 1 2.1.4 2 .4 1.3.4 1.2.3 1.2.5.8.5.4.6v.6l-.3.5-.5.6-3.3 2.8-.8.8-.7.8-1.4 1.7-2.2 2.5-1.3 1.6-.9 1.4-.6 1.1-.4 1-.5 1.5-.3 1.6-.2.8-.2 1.7-.3 2.3-.2 2.8v4.5l.2 1.7.2 1.8.2 1.5.4 1.5.3 1.4.8 2.8 1.8 5.6.6 2.2.3 1.8.1 1.7-.1 1.8-.3 1-.3 1-.8 1.7-.7 1.1-.8 1-.8 1-1 .8-1 .8-1 .7-1.4.8-1.5.6-1.2.5-1.4.5-1.7.5-5 1.3-1.5.5-1.6.6-1.4.6-1.3.6-1.5 1-1 .8-1 1-1 1.1-1 1.5-.6 1.2-.7 1.4-.3 1.2-.5 1.5-.2 1.5-.1 1.3v1.4l.2 1.6.5 1.9.6 2.1.3 1.5.3 2 .1 1v1.5l-.1 1-.3 1.3-.4 1.4-.6 1.5-1.5 3.6-.8 2.2-.4.8-.7 1.5-.7 1-.8 1.2-1.2 1.2-1.3 1-2 1.5-1.4 1.3-1.9 1.6-1.3 1.3-.8.8-.7.8-1 1.4-.6 1-.8 1.6-.5 1.2-.4 1.1-.3 1.1-.6 2.6-.4 1.1-.4 1.2-.8 2.3-.7 1.9-.5 1.4-.2 1-.2 1.2v2.5l.4.9.4.8.5.7.6.6 2.2 2.1 1 1.2.6 1 .6 1.3.2 1.4v1.1l-.3.7"/></defs><g clip-path="url(#p9ec1eab538)"><use xlink:href="#m5ad7b8fb08" y="280.5" fill="#f4f4e2" stroke="#f4f4e2"/></g></g></g></g><defs><clipPath id="p9ec1eab538"><path d="M7.2 7.2h246.4v266.1H7.2z"/></clipPath></defs></svg>