<svg xmlns="http://www.w3.org/2000/svg" xmlns:xlink="http://www.w3.org/1999/xlink" width="436.2" height="374" viewBox="0 0 327.1 280.5"><defs><style>*{stroke-linejoin:round;stroke-linecap:butt}</style></defs><g id="figure_1"><path id="patch_1" fill="none" d="M0 280.5h327.1V0H0z"/><g id="axes_1"><g id="PatchCollection_1"><defs><path id="m5eac579cb7" stroke="#f4f4e2" d="M282.5-244.5v2.3l.4 3.7.4 3.1.2 1.3.6 3.8.6 2.9 2 8 .5 1.4.3.9.4.7.5.9.6.7 1 1 1.2.8 1.2.7 3.9 2.4 1 .6 2.2 1.5 1.2.9 1 .9 1 1 .8 1 .7 1.1.7 1.3.5 1.3.3 1.4v1.2l-.2.7-.2.7-.5.7-.4.6-.6.6-1 1-.8.6-1 .7-1.9 1.3-4.4 2.8-2.6 1.6-4.8 3.2-2.2 1.5-3.3 2.4-2 1.3-.8.6-1 .6-.8.4-1 .5-1 .4-1.1.4-1 .4-2 .7-2.1.6-1.6.4-1 .2-1 .2-.9.1-1.4.1h-1.8l-1.8-.2-3-.3-1.3-.1h-2l-.5.2-.5.2-1 .6-1 .9-.7 1-.6 1-.5 1.2-.4 1.2-.3 1.1-.1 1.2.1 1.2.2.5.2.5.3.5.4.5.5.8 1 1 1 1 1 .9 1.5 1.1 3.6 2.6 1.3 1.1 1.3 1.2.6.6.6.8 1 1.3 2.7 4 .5.6 1 1.2 1 1 1.3 1 1.3.7 1.5.6 1.5.5 1.6.4 1.7.3 1.6.2 1.8.3 3.5.4 12.1 1 4 .5 3.6.4 1.6.3.3.1-7.2 4.9-4.6 3-4 2.4-2.6 1.5-1.9 1-1 .5-1.6.8-2 .8-5.2 2.1-2.5 1-1.8 1-2.2 1.1-2.2 1.4-1.1.7-1 .7-1 .8-.9.8-.8 1-.6 1-.5.8-.3.8-.3 1-2.6 8-1.6 4.8-1.2 3-.6 1.6-.7 1.4-.7 1.4-.8 1.2-.9 1.2-1 1-1.2.8-1.2.6-2.4 1.1-1 .6-.6.8-.1.3-.1.4v1l.3 1.2.4 1.3 1 2.7.5 1.3.3 1.4.3 1.4v2.6l-.2 1.2-.4 1.4-.6 1.4-.7 1.2-1 1.2-1.2 1-1.4 1-1.5 1-1.5 1-1.6.8-3.3 1.7-6 3-4.6 2.2-8 3.7-3.6 1.7-5 2.6-2.6 1.5.3-.3.4-.9.1-.4.2-.7v-.6l.2-1.6v-2.7l-.2-1.4-.3-2.4-.4-1.7-.3-1.3-.5-1.3-.4-.8-.4-.7-.8-.9-1.1-.5-1-.3H196l-1.1.2-2.9.6-.8.1-1.1.1h-3.2l-1-.2-1-.1-4.4-1-1.4-.2-1.5-.2-1.2-.1h-10.5l-1.5-.1-1.5-.2-1.5-.3-1.5-.2-1.4-.3-3-.7-2.8-.6-3.4-.8-1-.2h-2.2l-1.2.3-1.2.4-1.3.5-1.2.6-2.2 1-7.3 3.8-1.6.7-1.6.7-1.7.6-3 1-2.4.7-3.5.8-4 1-1.6.3-1.6.5-1.6.5-1.5.7-1 .5-1.2.7-.8.5-.7.6-.6.6-.7.7-3.5 3.6-1.5 1.5-.9.8-.7 1-.6.7-.4.7-1.4 2.6-.4.7-.6.8-.6.7-1 .7-1.2.5-2.5 1-1.4.7-1.3.8-1.3.8-1.4.9-1.2.9-2.6 2-1.3.8-1.3.7-1.2.3h-1.2l-.8-.3-.7-.5-.6-.7-.8-1-.7-1.4-.7-1.4-.8-2.1-.7-2-.7-2.5-.5-1.4-.6-1.3-.9-2-.7-1.3-.8-1.2-.7-1.1-.7-1-.7-.9-.6-.5-1-1-1-1-2.2-1.7-1.1-.7-1.2-.7-1.5-.4-1.6-.3-1.6-.1-5.4-.1-2.8-.2-4.8-.4-1.3-.2-1.1-.3-1-.6-.6-.4-.5-.5-.3-.4-.2-.4v-.4l-.3-.7-.4-1.1-1.4-4-2-6.4-2.9-8.7-1.5-4.8-.9-3-.3-1.2v-2.1l.5-1.1.8-1 1-1 1.3-.9 1.4-.9 1.4-.8 7.4-4.2 2.8-1.6 1.3-.9 1.3-.8 1.2-1 1.1-.8 1-1 .5-.5.6-.9.8-1.4.7-1.3.7-1.3.4-1 .2-.6.7-2.4.3-1.1 1.5-4.2.5-1.7.4-1.6.2-1 .2-1 .1-1v-3.3l-.3-.9-.2-.7-.3-.7-.2-.1h.1l.1-.1.8-.6 4.6-3.4 3-2 1.3-1 1.7-1 3.5-2 1.2-.6 1.6-.8 1-.4 1.4-.6 3-1 1-.4 1-.3.9-.2 1-.2 1.7-.2 3.1-.1 1.4-.2 1.4-.3 3-.8 1.5-.4 1.9-.3 1.7-.3H97l2.6.3 1.5.1 1.4.1h2l1.1-.1 1.1-.2 1.2-.2 1.4-.4 1.4-.5 1.8-.7 3-1.2 2.3-1 3.5-1.9 2.7-1.3 1-.4 1-.4 1-.3.8-.1.9-.2h2.4l1 .2h.2l1 .4 1 .6 1.2.7 5 3.4 1.4.8 2.9 1.7 1 .6 1.2.9 1 .7.9.7.9.8 1.3 1.3 2.2 2.4 1.3 1.3 1.1 1.1 1.2 1 2.3 2 1.4 1 .6.5.7.4.8.3.3.1.7.2h2.5l.6-.3.7-.4.6-.3 2.3-1.8.5-.3 1.5-.9 3.6-2 1.6-1 1.2-.5 1.6-.6 1.1-.4 1.6-.5.8-.2 1.4-.2 1-.2 1.3-.1 5.2-.4 1.3-.2 2.2-.3 1.1-.2 1-.3.8-.2 1.6-.6.9-.3 1.7-.7 1.6-.7 2-1 1.2-.7 1.5-1 .8-.5.8-.8.8-.7.5-.6.6-.8.6-1.3.5-1.3.2-1.4.2-1.5v-2.9l-.3-1.7-.3-1.5-.3-.8-.3-.8-.8-1.3-.2-.4-.8-.8-1-1-1.1-.8-2.5-1.8-.7-.6-.8-.8-1-1.2-.9-1.4-.8-1.5-1.5-2.7-1.4-2.8-.7-1.4-.6-1.4-.6-1.3-.5-1.4-.5-1.4-.4-1.3-.2-1.5-.2-1.7v-1.7l.1-1.8.2-1.7.3-1.8 1-7.1.3-1.8.2-1.5v-1.5l.1-1.4v-1.4l-.3-1.3-.5-1.3-.8-1.1-.7-.8-.7-.5-2.3-1.7-.8-.7-.4-.4-.4-.6-.4-1-.1-1v-1.2l.2-1.1.2-1.3.2-.7.3-.6.2-.4 1.3-2.1.5-.9.3-.5.3-.7.2-.6v-.6l.2-.6v-1l-.2-.7-.3-.6v-.2l-.4-.1v-.2l.3-.2.5-.3 1-.5 1-.4 1.6-.6 1.2-.4 3.7-1 1.8-.5 1-.3.8-.4 1.3-.5 1-.7.6-.5.8-.9.6-1 .5-.8 1.5-2.7 2.7-5.4.8-1.5.9-1.4.9-1.3 1-1.2.8-.8.8-.5 1-.5 1-.2 1-.2h2.7l2 .2.5.1 1.6.3 1 .2.6.2 1 .5.8.3 4.3 2.2 4.3 2.2 1.2.6.5.4.5.5.5.4.4.4.8 1 2 2.7 1 1.4.7.8.4.4.4.3.4.2h1.3l.4-.2.5-.3 1.1-.7.4-.2.4-.2h.3l.3-.1h.3l.5.1.3.1 1.2.6.6.2.3.1.6.1h1l2.2-.2h.9l.3.2.4.1.3.2.3.3.3.3.4.6.7 1.3.5.7.5.7.5.5.4.3.4.3.4.1.6.3.5.1.7.2h2.2l.7-.2 1-.3.7-.3.6-.3.6-.3 1.1-.7 2-1.4.6-.4.4-.2.3-.1.3-.1h.4v.2"/></defs><g clip-path="url(#p76ba152336)"><use xlink:href="#m5eac579cb7" y="280.5" fill="#f4f4e2" stroke="#f4f4e2"/></g></g></g></g><defs><clipPath id="p76ba152336"><path d="M7.2 7.2h312.7v266.1H7.2z"/></clipPath></defs></svg>