<svg xmlns="http://www.w3.org/2000/svg" xmlns:xlink="http://www.w3.org/1999/xlink" width="495.4" height="333.1" viewBox="0 0 371.5 249.8"><defs><style>*{stroke-linejoin:round;stroke-linecap:butt}</style></defs><g id="figure_1"><path id="patch_1" fill="none" d="M0 249.9h371.5V0H0z"/><g id="axes_1"><g id="PatchCollection_1"><defs><path id="m71db9a1be6" stroke="#f4f4e2" d="M311.8-183.6v.8l.2.4.2.6.4.6 1.2 2.2.9 1.8 1.2 2.3v.2l-.6.6-1.6 1.4-2.2 1.7-2 1.5-2.6 1.7-2.2 1.3-4.8 2.8-1 .6-1.4.9-1.4 1-1 1.2-.5 1-.3 1.4v1.2l.3 1 .3 1.4 1.4 5.5.5 2.2.4 2.4.2 1.4v7.1l.1 2 .2 1.5.1.7.3 1.3.2.5.3.9.2.6.6 1 .3.4.5.8.6.6 1.1 1 .8.7 1 .7 1.2.7 1 .6 1 .4.7.3.7.2 1 .2 1.8.2 3 .2h3.9l1.4-.2 1.3-.3 3.3-1 5-1.5 1.6-.4 1-.2 1.2-.1h1.9l.4.1.4.2.3.3.2.2.4.6.2.3.2.5v1l-.2 1-.5.9-1 1.3-.7.9-3 3.2-1 1.2-1 1.2-.3.5-.7 1.2-.3 1v.4l-.1.5v.7l.2 1.2.3 1 .3.8.6 1 .6 1.1.3.5 1.6 2 .6.9 1 1.7.6 1 .8 1.8.6 1.5 1 3 .5 1.1.4.9.8 1.5.7 1 1.4 2 1.1 1.4 3.6 4 1 1.4 1 1.3.8 1.6.4 1.3-.1.7-.5.1-.7.3-2.1.8-3.3 1.5-2 1-1.3.7-2.6 1.5-6.9 4.1-5 2.9-3 1.6-2 1-1.6.6-1.1.3-1.7.4-1.1.3-2.6.4-6.2.8-1.5.3-1.2.3-1.5.3-1.7.6-1.4.6-4.1 1.7-2.6 1.1-1.4.8-.7.5-1.3 1-3 2.1-3.3 2.6-1.5 1.3-1.5 1.4-1.5 1.5-3 3.2-1.4 1.3-1.7 1.3-1.8 1.1-1.8 1.1-2 1-8 3.9-9.3 4.3-2 1-.4.3-.1-.5-.4-.6-.6-.8-1-1-3.2-3.3-1.4-1.6-2-2.3-1.3-1.8-1.4-2-4-5.8-.8-1.2-1.6-2-.7-.8-1-1-1-1-.8-.7-1-.6-.8-.5-2.8-1.3-1.3-.7L215-49l-1.1-.7-1.2-.6-1.6-.6-1.7-.5-2.6-.8-1.4-.3-1.4-.3-1-.1-1.1-.1h-1.3l-.6.2-.9.3-.8.5-1.3 1-1.6 1.3-1.5 1.2-.8.5-1.5 1-1.3.7-1.6.7-2 .6-2 .5-2 .3-2.2.3-2.2.2-4.4.2-6.6.3-15.5.4-4.4.2-2.2.1-2.2.2-2.2.3-2.1.3-2 .5-1.5.4-1 .3-.6.3-2 .8-1.8 1-1.8 1-5.5 3.2-1.9 1-2 1-2 1-3.7 1.6-1.7.7-1.8.5-1.4.4-1.3.2h-1.4l-1.4-.2-1.3-.3-1-.3-3.3-1.1-1-.3-3.7-1-1.3-.4-1.5-.7-1-.6-3-1.6-1.2-.7-1-.4-.9-.4-1.4-.4-1.4-.3-1.4-.2-1.6-.2-1.1-.1h-1.2l-1 .1-1 .2-2.6.6-1.6.5-2.4 1-1.3.6-.6.5-.7.7-.7 1-.8.8-.7.5-.8.5-1 .4-.6.2-1.6.3-1.5.1h-1.2l-1.9.1h-1.9l-2-.2-2.6-.4-1.7-.3-3.3-.8-1.3-.2-.7-.2h-1.4l-1.3-.2H36l-.8.1-.9.1-1.8.5-1.6.7-1.3.8-1 1-.6.8-.1.4-.4.2-.7-.1-.8-.7-.9-1-.5-1L24-31l-.3-1-.2-1.2V-35l.3-1 .2-1 .3-.7.5-1.3 1.5-2.8 1-2.1 1-2.8.8-2.2.3-1 .4-2 .4-2.1.2-1v-2.5l-.3-1-.3-.8-.3-.7-.9-1.6-1.7-2.9-.6-1-.6-1L25-68l-.5-1.1-.4-1.3-.3-1.1-.1-.8v-2.5l.4-1.1.6-1.1.9-1.5 1.2-1.8 3.2-4.3 1.7-2.4 1.3-1.5 2.2-2.5 1.2-1.2.9-.8 2.8-1.9 1-.8 1-1 1-1 1.2-1.2 1.3-1.5 1.1-1.5 1-1.4 1.1-2 1.1-2 .8-2 .7-1.8.9-3 .6-2.4.2-.7.2-1.7.2-2.3v-3.2l-.1-1.6-.6-4.6v-4.7l.5-3 .1-1.4v-2.7l-.2-.9-.5-1.7-.4-1-.3-1-.8-1.6-.5-1-.6-.7-.7-.7-.8-.7-1-.8-1.1-.8-1.3-.8-1.3-.8-5.1-3-2.2-1.4-2-1.2-.9-.7-1-.8-.8-.7-1.1-1.2-.7-.8-.6-1-.5-1-.3-1.2v-1.1l.5-1.2.6-1 .7-.9.8-.8 1.6-1.5 2.1-1.9.5-.4v-.2l.2.6.5.7.8.8 1 .6 1.4.4H42l1.3-.4.7-.3.8-.3 1.2-.7 1.6-1.2 3.7-3 1.9-1.4 5-3.2 2-1.2 1.3-.7 1.1-.6 1.1-.5 1.6-.5 1-.3 2.4-.6 1.5-.2 1-.2h10.5l1.5.2 2.9.5 1.3.4 1.3.4 1 .5.9.6 1.3 1 2.4 1.8 1 .8 1 .6 1 .4 1 .2h3.3l1.2-.3 1.2-.4 1.6-.7 3.2-1.6 1-.5 2.2-.8 1-.5.8-.4.7-.6 1.6-1.4 3.3-3.3 2-2 .7-.9 1-1.3.8-1.5.4-1.2.3-1.3.2-1.3v-1.7l-.2-3.6v-3.6l.3-1.6.3-1.3.8-3 .7-2.1.8-2.1.6-1.4.7-1.3.9-1.5.8-1.3.5-.7 1-1.2 1-1.2 1.2-1.3 1-1 .5-.3.2-.2 18.4 1.1 16.7 1.1 7.6.5 9.4.5 24.5 1.2 5.2.2 3.8.3 1.8.2 1.6.3 1.6.3 1.3.5 1.2.6.6.5.8 1 .6 1 .4 1 .2.6v1.1l-.4.8-.5.6-.5.4-.4.5-.1.3-.1.4v1.1l.4.6.4.7.6.8 1.5 1.9.7.8.6.9.7 1.1.7 1.2.6 1.2.3 1.3.2 1.2v1.6l-.4 1.9v1.4l.1.7.4 1.7.3 1.1v4.4l.1 1 .4 1.4.5 1.3.7 1.3.7 1.3.9 1.1 1.6 2 2.4 3.6.7.8.9 1 .7.7 1 1 1.2.7 1.2.7 1.3.6 1 .4 2.6.8 1.3.4 2.8 1.2 1.6.7 1.6.8 1.6.9 1.1.7 2.6 1.8 1 .5.5.3 1 .3.8.2h1.6l.9-.2.8-.3 1.3-.5 2.1-.6 1.4-.5 1.7-.7 1.2-.6 2.5-1.2 1.7-1 3.3-2 3.4-1.8 3.5-2 1.8-1 3-1.8.7-.4 6.5-3 2.2-1.2.9-.5.8-.5"/></defs><g clip-path="url(#p00b782b003)"><use xlink:href="#m71db9a1be6" y="249.9" fill="#f4f4e2" stroke="#f4f4e2"/></g></g></g></g><defs><clipPath id="p00b782b003"><path d="M7.2 7.2h357.1v235.4H7.2z"/></clipPath></defs></svg>