<svg xmlns="http://www.w3.org/2000/svg" xmlns:xlink="http://www.w3.org/1999/xlink" width="495.4" height="373.4" viewBox="0 0 371.5 280"><defs><style>*{stroke-linejoin:round;stroke-linecap:butt}</style></defs><g id="figure_1"><path id="patch_1" fill="none" d="M0 280h371.5V0H0z"/><g id="axes_1"><g id="PatchCollection_1"><defs><path id="m81e5e7e39a" stroke="#f4f4e2" d="m280.5-231.2-.3-.1h-1.6l-1.4.2-2 .6-1.7.7-1.8 1.2-1.2 1.1-1.1 1.6-.6 1.4-.4 1.4-.2 1.6v1.6l.3 2.3.4 1.4.5 1.5.8 1.7.8 1.6 1.2 2.1 1.4 2 1 1.5 2.3 2.8 1 1.2 1.2 1.3 1.3 1.3 1.3 1.2 1.5 1.1 2 1.4 2.2 1.2 5 2.6 1.6 1 1.4.8 1.2 1 1.2 1 1 1.3 1 1.4.7 1.5.6 1.9.4 2 .3 2.2.1 2.4v12.3l.4 2.4.4 2.3.8 3 2.8 8.5 1.3 4.1 1.3 4.8 2 7.4.6 2.2.5 1.5.5 1.3.6 1.4.7 1.4.7 1.4 1.4 2.2.8 1.1.8 1.1 1.8 2.2 2.3 2.5 2.6 2.6 3.2 3 8.2 7.4 3.7 3.5 2.2 2.4 1 1.2 1 1.2 1.5 2.3 1 2 .7 2 .6 1.9.4 1.5.2 1.5.1 1.7v5.4l-.3 2.4-.6 3.8-.9 5.5v.4l-.5.2-1.8 1-1 .5-1 .3-1.2.4-1.2.3-2.4.6-7.2 1.3-2.1.5-1 .2-.9.3-.7.4-.6.3-.4.5v1.2l.8 2.1v1.8l-.3.4-.3.5-.5.6-1 1-1.1 1.4-.3.4-.1.3-.1.5v.2l.1.3.2.3.7.8 1.7 1.6.6.8.2.4.1.4v1.2l-.5 1.5-5.4 3-2.3 1-2.3 1.2-2.5 1-2.7 1.1-2 .8-2.9.8-2.7.8-2.7.6-2.6.5-2.5.2-2.3-.2-1.5-.3-1.5-.5-1.4-.6-1.7-1.2-1.3-1.2-1-1.1-.7-1.2-.5-1.3-.3-1.1-.1-1.4-.3-3.3-.3-1.9-.5-1.8-1.5-5.3-.4-1.7-.2-1.1-.3-3.8-.3-1.6-.1-.8-.4-1.2-1-3.2-.4-1.3-.4-2-.3-1-.4-.8-.5-1-.5-.5-.4-.5-.5-.3-.8-.5-1.3-.6h-.3l-1-.3h-.8l-1.8-.1h-1.2l-3.6.5h-4.6l-1.4.1-1.4.2-1 .2-3.4.9-1.8.3-1.7.1-1.3-.1-1.4-.5-1.2-.8-2.2-1.7-1-.8-.7-.3-.8-.1-.4.1-.3.2-.4.4-.4.5-.7 1.2-2 3.5-.8 1.2-.9 1.2L231-62l-1 1-1.2 1.2-3.6 3.1-.4.5-.3.5-.1.5v.3l.4.7.4.6 1.8 1.8.6.8.4.5.2.6.5 1.3.2 1.6v2l-.5 3.8-.3 1.5-.4 1.3-.5 1.2-.5.8-.5.7-.7.7-.6.6-.7.4-1 .4-.9.3-1 .2-1.2.1h-2.2l-1.7-.3-.8-.2-1.4-.4-.8-.4-1-.5-.7-.5-1-1-1-.8-1.2-1.3-2-2.5-2.3-2.8-1-1.2-1.4-2.2-2.5-4.2-2.6-4.1-.6-1.2-1.4-3.1-.3-.7-.4-1-.1-.7-.2-.9v-4l.1-1 .2-.9.4-1 .2-.5.7-1.2 1-1.4 1.6-1.7.7-.9.6-.7.5-1 .3-.7.2-.6.1-.6.2-.7v-.6l-.1-.6-.3-.6-1-.8-1.4-.7-1.8-.5-2-.5-2.3-.4-7.3-1.1-2.5-.5-2.3-.5-2.3-.7-2-1-1.8-1.2-.7-.6-.5-.4-1-1.3-.8-1.5-.5-1-.6-1.3-.6-1.8-.4-1.4-.4-1.3-.6-3-.2-1-.2-.6-.6-1.2-1-.9-.8-.3h-1.8l-1.1.5-1.3.8-.6.6-.4.6-.5 1.1-.4 1.1-1 4.4-.6 2-.6 1.8-.6 1.4-.6 1.4-.4.7-2.8 4.4-1.5 2.6-1.5 2.5-.4 1v.9l.1.4.5.8 1.5 2.1.5 1 .5 1 .2.7v2.6l-.5 1.4-.6 1.3-.7 1.3-2.3 4-1.9 3.7-.7 1.4-1.5 2.4-1.5 2.3-1.4 2-2.1 2.6-1 1.2-1.1 1.2-.9.8-.8.8-.8.6-.7.6-1.3.7-1.3.6-1.2.4-1.3.3h-1l-.7-.1-.6-.2-.6-.4-.3-.4-.6-.7-.4-.9-.6-1.3-.7-2-.4-1-.5-1-.8-1-1-.8-2.4-1.6-.5-.3-1.3-.7-1.3-.5-1.3-.5-1.3-.5-2.7-.7-1.5-.3-1.6-.3-1.4-.2-1.5-.2h-2.4l-2 .1-1.5.2-1.3.3-1.1.3-1 .4-1.1.5-1 .6-.4.4-1.4 1.4-.7 1-.6 1-.6 1.8-.2 1.5-.1 1.7v4.9l.6 6.2v3.8l-.2 1.2-.3 1-.6 1.4-1.3 1.4-1.2 1-1.2.5-1.1.3h-1.3L77-22.5l-2.6.8-2.8.8-2.8.7-2.8.6-2.7.3-2.5.1-2.3-.2-2-.6-1.7-1-1.4-1.5-1.3-1.6-1.7-2.4-3.5-5.7-1.7-2.5-.8-1-3.6-4.3-1.1-1.5-1-1.4-.6-1.1-.7-1.7-.8-2.4-.5-1.8-.5-2.2-.1-.8-.1-1v-2.2l.3-1.4 1.3-3.8.4-1.7.5-2.1.5-2.5.2-1.1.3-1 1.3-4.1.6-1.9.2-1.2.1-1v-.4l-.2-.5-.6-1.2-.1-.3v-.4l.2-.7.2-.4 1.1-1.8.5-.9.2-.8.1-1v-2.2l-.4-1.3-.5-1-.5-.8-.7-.7-.3-.2-.2-.2-1.1-.5-1.5-.5-3-.9-1.6-.5-1.1-.5-.8-.3-1.1-.7-.7-.5-.6-.5-.8-.7-.8-1-.7-1-.5-1.3-.4-1.1-.5-2.3-.4-2.2-.5-3-.3-2.5-.2-2.6v-2l.2-.9.1-.8.4-1.3.7-1.6.8-1.5 2.4-3.8 2.3-3.8 1.8-3.2 1.3-2.7 1.7-3.7.9-1.9 1.4-3.5 1.5-4 1.4-4.5 1-3.7 1.2-5.6.6-2 .7-2 .5-.8.5-.9 1.4-1.8 1.7-1.8 1.3-1.3 3-2.5 5.5-4.5 3.6-3L63-186l2-2 2-2.1 1-1.3 2.1-2.5 2.1-2.8 1.1-1.6 1.7-2.5 1.7-2.5 1.3-2.1 1-2 .1.2h.2l.7.2 3 .2 10.4.2 9.2.3 4.7.1 3.3-.1 6-.4 3-.1h8l7.3.2h3.8l1.4-.2 1.2-.3 1.4-.4.8-.4.7-.4.4-.4.5-.5.3-.7.2-.7v-.6l.1-.8v-2.7l-.3-2.2-.6-3-1.8-8.2-.4-2.5-.4-2.5-.2-2.1v-2.7l.2-1.2.3-1 .4-.9.7-1.1 1-.9.7-.5 1.2-.5 1.5-.4 1.5-.1h3.3l1.7.2 2.3.3 2.5.4 5 1 6.6 1.5 1.3.3 1.2.1 1.2.1h1.2l3.9-.3h3.4l3.8.4 2 .2h1.8l1.8-.3.8-.3 1.8-.9 1.6-1 1.6-1.3 1.5-1.3 1.2-1.4 1-1.5.4-1.1.5-2.3.5-1.1.6-1 .7-.7 1.1-1 .8-.4 1-.5 1.5-.5 3.3-1.1 3.8-1.3 1.8-.6 1.6-.4 1.2-.2 1.1-.2h4.7l2.3.4 2.3.4 2.4.6 2.3.6 2.2.8 2.2.8 2.1 1 2 1 1.2.8 1 .8.8.8 1 .9.5.7.7 1 .8 1.3 1.6 3.5 1 2 1.5 2.7 1 1.5 1.3 1.3 1.4 1 1.5.7 1.7.2 1.8-.1 4.6-.6 2.3-.2h1.8l1 .1 2.3.3 1.8.6 1.5.9 1.1 1 .6.8.3.8v1.1"/></defs><g clip-path="url(#p2cdcdd3613)"><use xlink:href="#m81e5e7e39a" y="280" fill="#f4f4e2" stroke="#f4f4e2"/></g></g></g></g><defs><clipPath id="p2cdcdd3613"><path d="M7.2 7.2h357.1v265.6H7.2z"/></clipPath></defs></svg>