<svg xmlns="http://www.w3.org/2000/svg" xmlns:xlink="http://www.w3.org/1999/xlink" width="495.4" height="258.9" viewBox="0 0 371.5 194.2"><defs><style>*{stroke-linejoin:round;stroke-linecap:butt}</style></defs><g id="figure_1"><path id="patch_1" fill="none" d="M0 194.2h371.5V0H0z"/><g id="axes_1"><g id="PatchCollection_1"><defs><path id="m0412831d63" stroke="#f4f4e2" d="M348-96.5v.2l-.4.3-.8.4-1 .5-1.4.5-1.4.5-1.5.4-1.8.4-1.8.3-1.7.2-3.6.2-3.7.2H324l-2.9.2h-2.5l-3 .4-2.4.3-2.4.4-1.3.3-1.2.4-1.1.4-1.5.6-1.5.7-2.5 1.4-1.3.7-3 1.4-4.7 2-7 3-1.3.5-1.2.7-1 .5-1.2.7-1.5 1-1.7 1.2-4 3.1-2.6 1.7-1.5 1-1.9 1-3.3 1.8-2 1.2-.8.5-1.5 1h-.3l-.9.2-3.8.3-1.8.3-7.1 1-4 .6-3.6.4-3 .2-1.7.1h-1.5l-2.4-.1-1.4-.1-3.6-.5-1-.1h-.9l-1.2.1-.8.4-.8.5-4.4 3.5-2.1 1.8-2.6 2.2-2.2 2-2.3 2.2-1.3 1.1-1.3 1-.5.4-.7.3-1.2.5-1 .3-.6.2-1.3.2-1.8.3-6 .5-3.5.3-2 .3-1.3.2-1.7.3-1.6.4-.9.3-.9.4-.5.3-.5.4-.8.7-2.8 2.9-2.1 2-4.8 4-3.5 3.1-2.2 2-2 1.4-1.5 1-.8.4-.7.2-.5.2-.7.2h-3.1l-.9-.3-1.5-.5-1.7-.6-1.7-.8-2.3-1.3-3.5-2-1.7-.8-1.7-.7-1.8-.5-5.5-1.3-1.4-.4-5.4-1.7-2.2-.6-2.1-.4-1.4-.3-1.2-.1-1.9-.2h-2.2l-1.5.2-1.8.4-1 .2-.9.3-1.5.5-4 1.8-1.2.4-1.2.3H99l-2.9.3-1.3.2-.5.1-.7.3-.5.3-.8.5-.7.5-.5.6-.5.5-.4.7-.9 1.4-.9 2-.3.7-.2.9v1.6l.3 3v1.2l-.3.7-.2.4-.2.2-.2.1-.6.2-1 .1h-.9l-1-.2-2.8-.7-1.4-.3h-3.9l-.8-.1-1.7-.3-2-.4-.7-.1h-1.2l-1 .1-.8.3-.6.3-2 .9-.7.2-.7.2h-1.1l-.6-.1-.6-.2-.8-.4-.8-.8-.7-1.1-.5-1.2-.5-1.2-.4-1.3-.9-3.8-.3-1.2-.5-1.4-.4-.9-.6-1-.5-.6-.6-.6-1.2-1.1-1.4-.9-1-.5-1.5-.5-1-.3-1.3-.3L45-35h-1.3l-1.4.2-.7.3-1 .5-2 1.3-1 .7-1.3.6-1.4.5-1.7.4-3.3.7-1.7.5-.9.4-.9.4-1 .6-1 .7-.7.6-.3.3v.2-.3l.2-.4 1-1.8 1-1.7.5-.9.7-1.7.3-.5.3-.3.7-.9.3-.3 1-.6.5-.4.4-.3.9-1.2.5-.5 2.5-2.2.6-.6.5-.4.5-.7.7-1.1.7-1.4.4-.7.2-.5.2-.7.1-.6v-1l-.2-.6-.4-1.3-.2-.6v-.3h.1l.2-.2.1-.7.1-1.6v-3.3l-.5-4V-62l.2-.5.2-.5.5-.7.5-.4.9-.6.6-.4 1.2-.7 1.9-.8 5-2.3 2-1 1.5-.8.6-.4.6-.5.6-.6.4-.5.6-1.3.2-.9v-1.8l-.2-1.5-.5-1.1-.4-.6-.5-.7-.8-.8-1.1-1-1.3-.9-.8-.5-1.2-.6-3.3-1.8-1.2-.6-2.1-1.3-1.2-.8-1.4-1-3-2.1-1.4-1.2-1.1-1-2-2-2.2-2.6-.8-1-.8-1-1-1.3-.3-.4-.4-.9-.3-.6-.1-.5-.1-.4v-1.7l.2-.4.2-.4.3-.4.3-.3.7-.5 1.2-.5 1.4-.3 3.1-.4 1.5-.3 1.4-.6.6-.4.7-.6.9-.8 1.5-2 .7-.7 1.3-1 2-1.3 1.4-.9 1.4-.7 2.8-1.3.9-.5.5-.4.5-.4.9-1.1.4-.7.7-1.5 1.6-3.5.3-.7.8-1.2.6-.7.3-.3.6-.4.3-.2h.3l.2-.1h.2l.1.1.1.1.2.4 1 4 .5 1.8.6 1.8.7 1.7.6 1.3.7 1.1 1 1.5.7.8.8.8.5.4.6.4.4.2.6.3.8.2h1.7l1.5-.3 1.2-.5 1.3-.5 1.3-.8 1.4-.8 1.3-1 1.2-1 3.2-2.7 1.5-1.2 1.9-1.2 3.5-2.2 1.7-1.2 1.7-1.3 2-1.6 1.7-1.4 4.6-4.2 7.8-7.1 2.3-2.3 1.2-1.1 1.1-1.3.7-.8 1.2-1.6.6-.9.6-1 .7-1.4.7-1.8 1.2-3.3 1.2-2.9.5-1.4.2-.9.4-2.5.2-.9.2-.5.2-.3.3-.2.6-.3.6-.1.8.1.6.3.6.5.7.6 1.3 1.2 3.6 3.8 3.2 3.1 1 1.1 1.7 2.2.9.9.5.5 1 .7 1.5.6 1.7.4h1.8l.6-.2 1-.1.7-.2 1-.3 1.4-.6 1.1-.6.5-.3.6-.4.4-.4.4-.4.5-.5.2-.5.4-1 .2-.9v-.8l-.4-.5 1.2-.3 1.8-.4 5.3-.8 3.5-.7 1.3-.2 3-.4 1.8-.3h.5l1-.3 1.3-.6 1.6-.8 1.6-1 6.2-4.6 1-.9.9-.8.4-.4.5-.8.8-1.3.4-.6.5-.5.6-.5 1-.5 1.1-.5.5-.2 3 3.3 3 3 2.9 2.9 1.8 1.6 1 .7 1 .8 1.2.8 5 3 1.8 1.2 1.6 1.1 2 1.4 1.3 1 1.3 1.2 1.6 1.5.8 1 1 1.1 2.4 3 1.2 1.4.7.8.8.7 1 .6 1 .3h.7l.8-.2.8-.3 1-.5 1.9-1.1 3.3-2.1 1.3-1 2.7-2 1.4-1 1.3-.8 1.4-.7 1.5-.5h1.6l1.6.1 1.8.4 1.7.6 1.8.7 1.7.8 3.6 1.7 9 4.4 3.6 1.6 1.7.7 2.2.9 1.7.5 1 .3 2.3.5 1 .2.7.3.6.3 1.1.9 1 1.2.9 1.4 1.7 3 1 1.4 1.3 1.2.9.7 1 .6 1.2.5 1.7.7 1.8.5 2 .4 1.9.3 4 .6 10.1 1.4 2 .3 2 .4 2 .4 1.9.6 1.8.6 1.7 1 1.6 1 1.4 1.3 1.4 1.4 1.3 1.5 1.3 1.7 1.3 1.7 1.3 1.7 2.5 3.7 2.6 3.8 5.8 8.8.7 1 .3.4"/></defs><g clip-path="url(#p1b1dee40c8)"><use xlink:href="#m0412831d63" y="194.2" fill="#f4f4e2" stroke="#f4f4e2"/></g></g></g></g><defs><clipPath id="p1b1dee40c8"><path d="M7.2 7.2h357.1V187H7.2z"/></clipPath></defs></svg>