<svg xmlns="http://www.w3.org/2000/svg" xmlns:xlink="http://www.w3.org/1999/xlink" width="495.4" height="303.6" viewBox="0 0 371.5 227.7"><defs><style>*{stroke-linejoin:round;stroke-linecap:butt}</style></defs><g id="figure_1"><path id="patch_1" fill="none" d="M0 227.7h371.5V0H0z"/><g id="axes_1"><g id="PatchCollection_1"><defs><path id="m2a8d40c28e" stroke="#f4f4e2" d="M348-146.1v.6l-.4 1.5-1.2 4.3-.8 2.4-1.7 5.3-.7 2.3-.5 1.7-.3 1.6-.4 2.2-.3 2.5-.1 1.7v1.5l.2 1.5.4 1.6 1 2.8 1 2.8.7 1.8.3 1.3.1 1v.8l-.1.4-.2.5-.2.3-.2.4-.3.3-.3.2-.4.2h-.3l-.7.2h-2l-1 .3-.5.3-.8.7-.9.8-.7 1-1.2 1.9-.8 1.1-.9 1.6-.4.5-.5.6-1 1-.6.7-.7.5-1 .5-1.3.4-1.4.3-2.3.4-1 .2-2.3.6-2.9.8-.8.3-1.7.6-2.2 1-.9.5-.7.5-.8.6-1 .8-1.2 1.2-.8.9-.6.8-1.5 2.1-.4.5-.2.2-.6.5-1.6 1-1.3.7-2 1-2.2 1-2 .8-2.1.8-2.3.8-2.6.6-2 .4-1.4.2h-1l-4.6.2-1.5.2-1 .1-1.7.4-1.2.3-2.7.8-1.1.4-1.2.5-.9.4-.7.6-.4.8-.1.8.1.8.3 1.2.6 1.1 1 1.8 1.7 2.8.5.9.4.8.3.8.2.9.2 1.3-.1 1.3-.2.9-.4 1-.5.6-.5.7-1 .9-.8.6-.9.5-.8.5-1.2.5-1.1.4-1.7.6-1.7.5-2.7.8-4.6 1.1-3 .6-1.4.2-1.6.2H244l.1-.5v-.6l-.4-.7-.5-.8-1-1-1.5-.8-1.7-.5-2.1-.4h-2.7l-2.2.1-4.4.6h-1.7l-1.6-.1-1.5-.7-1.3-1-1.1-1.2-1-1.4L218-52l-1-2-1.6-3.2-.7-1.4-.7-.9-.5-.6-.9-1-.7-.6-1-.8-1.1-.7-2-1-2-1-2-.8-2.1-.7-2.2-.6-2.2-.5-2.3-.4-2.2-.3-2.1-.1h-2.3l-1 .2-1.2.2-1.6.4-1.7.6-3.6 1.2-3.1 1-1.4.6-1 .4-.7.4-1 1-.7.6-.6 1-.4 1-.6 2.2-.4 1-.9 1.4-1.1 1.4-1.4 1-1.6 1.2-1.5 1-1.7.9-.7.2-1.7.3H157l-1.9-.2-3.7-.3-1.8-.1h-1.3l-3.7.4h-1.1l-1.2-.1-1.2-.2-1.2-.2-6.3-1.5-4.7-1-2.3-.3-2.3-.3-1.6-.2h-3.1l-1.5.2-1.3.3-1.2.5-.7.5-.9.8-.7 1-.3.9-.3 1-.2 1.1v2.5l.1 2 .4 2.4.5 2.4 1.7 7.9.5 2.7.3 2.1v3.3l-.1.7-.2.6-.3.6-.5.6-.3.3-.7.4-.8.4-1.3.4-1.1.2-1.4.2h-3.6l-6.9-.2h-7.6l-2.8.1-5.7.4-3.2.1H75l-8.7-.3-10-.3-2.8-.2H53l-.2-.2v-.6l.3-1.7.6-4.8.6-5.6.2-2.8v-2.8l.1-2.8v-2.2l-.3-4.2v-3.7l.3-1.6.2-.8.4-1 .5-1 .5-.5 1-1 .9-.8 2-1.5 1.8-1 1.6-.9 3-1.5 1-.5.3-.3.3-.2.6-.8.2-.9v-.6l-.2-.5-.3-.6-.4-.6-.5-.5-.5-.4-.8-.4-1-.2-1.8-.4-.7-.3-.6-.4-.5-.8-.4-1-.7-2.4-.5-1-.9-1.8L58-77l-1.1-1.5-1.1-1.3-2.3-2.6-4.3-4.8-1.3-1.6-1.3-1.6-1.4-2-.5-1-.7-1.2-.4-1-.3-1.2-.6-3.3-.2-.6-1-2.4-.2-1-.2-1v-1.5l.2-1 .2-1 .5-1.2 1.2-2.3.6-1.3.3-1.2v-.7l-.1-.6-.1-.4-.5-.7-1-1-.5-.2-.8-.3-1.8-.7-2.1-.4-2.4-.4-2.4-.2-2.5-.2-6.4-.3 1.8-1.2 1-.6 2.4-1.4 4-2.1 2.2-1.3 1.9-1.2 3-2 5-3.8 2-1.5 1.9-1.2 1.4-.8 1.1-.6 1.6-.8 1.5-.7 8.4-3.5 5.7-2.5 3.6-1.7 1.6-.9 3-1.6 1.8-.9 1.8-.7 1.3-.4 1.5-.5 1.5-.4 3-.5 2.9-.4 3.6-.3 3-.2h3.5l5.8-.2 4.5-.2 4.3-.3 2-.2 2.3-.4 2.1-.4 1.8-.5 1.7-.6 1.7-.7 1.2-.5.9-.6.5-.3.1-.2h.2l.3-.2.6-.4 1.4-1.3 2.4-2.3 2-2 1.6-1.7 1.5-1.7 7-8.1 1.6-1.8 1.7-1.8 4.3-4 4.3-4 4.3-4 2.6-2.3 5-4.3 3.2-3 .9-.8.8-.6.9-.6.9-.4.9-.3 2.3-.8 1-.3 1-.5.7-.7.3-.4.2-.5.2-1 .1-1.2.1-.3 1.8.7 1.7.8 2 1 2 1.3 1.9 1.3 1.8 1.5 1.7 1.7 1.3 1.7 1 1.9.7 1.3.6 1.6.6 1.7.5 1.7 1.4 5 .6 2 .8 1.8.6 1.3.7 1.3 1.2 2 1.3 2 1.6 2 2.2 2.7 1.3 1.4 1.3 1.4 2 1.7 2.5 2.2 5 4 5.4 4.6.8.6 1 .7 1 .7 1.4.6 2 .6 2 .6 7.2 1.6 2.6.5 3 .3 1.8.2h8.3l2.4-.3 2.8-.3 2.2-.4.6-.2 1.2-.3 1.3-.5 1.5-.6 1.2-.7.9-.5.7-.6 1-1.3.8-1 .6-1.3.7-1.5 1.7-4.1.7-1.6.8-1.5.7-.9.7-.8 1-.7 1-.5 1.4-.6 1.2-.3 1.1-.3 1.8-.2 3.2-.3 2.7-.1h3.1l3.2.1 3.2.4 1.8.3 1.5.3 1.8.4 1.8.5 1 .3 1.1.4 1 .4.7.5.8.4 1.2.9.8.8.7.8.4.7.2.7.4 1.5.3 1.9v2.3l.3 1.8.3 1.1.1.6.3.7.3.6.6.8.8.8 1.1.9 1.4.9.9.4.8.4 1.4.5 1.8.5 2.3.6 1.7.3 3.3.4 8.8 1 .5.1h.2v.1"/></defs><g clip-path="url(#p6004eb6d2f)"><use xlink:href="#m2a8d40c28e" y="227.7" fill="#f4f4e2" stroke="#f4f4e2"/></g></g></g></g><defs><clipPath id="p6004eb6d2f"><path d="M7.2 7.2h357.1v213.3H7.2z"/></clipPath></defs></svg>