<svg xmlns="http://www.w3.org/2000/svg" xmlns:xlink="http://www.w3.org/1999/xlink" width="495.4" height="330.9" viewBox="0 0 371.5 248.2"><defs><style>*{stroke-linejoin:round;stroke-linecap:butt}</style></defs><g id="figure_1"><path id="patch_1" fill="none" d="M0 248.2h371.5V0H0z"/><g id="axes_1"><g id="PatchCollection_1"><defs><path id="m881b2fbffc" stroke="#f4f4e2" d="m345-119-.4.1-.6.6-1 1-.7 1-.6 1-.4 1-.3 1v1l.2.9.2.8.4 1 .8 1.4 1 1.6.6 1 1.8 2.4.7 1 .5.7.5 1 .2.6.2.6v.9l-.3.9-.6 1.2-.8 1.1-1.6 2.2-.8 1-1 1-1.2.9-1 .8-2.2 1.5-7.4 4.8-2.4 1.6-2.2 1.6-1.7 1.3-2.7 2.4-1.4 1-.6.4-2.5 1.3-3.8 2-1.5.8-2 .9-2.5 1-.8.4-.8.4-2.8 1.6-.9.4-.7.2h-1.3l-1-.4-.7-.4-.4-.4-1.9-2-.9-1-.9-.7-2.7-2.2-1-.8-2-1.2-1.1-.7-.7-.6-.7-.6-1.1-1-1.1-1.2-1.8-2-4-4.9-1.1-1.2-1.6-1.7-1.3-1.2-.6-.5-1.3-.8-1.3-.5-1.4-.2-1.1.1-1.2.3-1.2.5-1.3.6-1.5.9-1 .7-2.2 1.6-2.4 1.8-3.4 2.8-2 1.6-3.6 2.7-2.8 1.9-1.5 1-8.2 5-1.6 1.1-1.2 1-1.1 1-.8 1.2-.5 1.4-.2 1.4.1 1.5.4 1.5.3.8.5.9.5 1 .8 1.2.9 1 1 1 1 1 1.4.9 1.4.7 1.6.4 3 .9 1.6.5 1 .6.8.5 1.2 1 .6.6.5.7.4.9.1 1.2v.5l-.5.8-.6.9-.7.8-2.1 1.9-.9.9-.5.7-.3.7.1.6.4.3-1 .7-1.6 1-1.2.5-1.2.6-1.8.7-1.2.4-2.2.6-1 .4-.5.2-.4.3-.9.6-.4.4-.3.4-.3.4-.2.5-.1.5-.1.5v1.8l.3 3 .1 1.2v1.1l-.2.5-.3.5-.3.4-.5.3-.5.3-.6.3-.5.2-1 .3-.2-2-.3-2-.3-2.2-.4-2.3-.5-2.5-.5-2-.6-2-.6-1.7-.7-1.7-.8-1.5-1-1.5-1.1-1.5-1-1.3-.8-1.4-.8-1.6-.9-1.8-.8-1.9-2-5-.7-1.2-.6-1.2-.8-1.3-.9-1-1-1-1.5-.6-1.6-.4-2.1-.3h-2.2l-1.3-.1h-1.8l-1.1.1-6.3.7-5.3.5-.8.1-1 .2-1 .3-.9.4-.6.4-.9.6-1 1-.8 1-2 2.6-.7.9-.5.6-.6.6-1.3 1-1.5 1-1.6.7-1.6.7-2.5 1-1.5.6-2 .6-1.8.5-2 .5-2 .5-2.9.5-2.8.5-2.1.4-3.9.5-5.6.6-3.6.4-6 .3-3.7.3-1.8.2-5.4.8-3.3.3-2.8.2H112l-.8-.1-3-.5-1.3-.1h-2.8l-1.1.1-1.7.3-1.8.2-1.7.4-1.7.4-1.7.6-12.6 4.6-4 1.4-1.9.6-2 .6-1.9.5-2 .4-2.4.4-2.9.3-2 .2h-2.3l-1.3-.1L45-30.8l-.8-.1-.3-.1-.2-.2-.1-.1v-.6l.3-.3.2-.2.4-.3.7-.4.7-.2 2.7-.8 1-.4.5-.3.7-.4 1-.6.8-.7.7-.7.8-.8.3-.5.7-.9.4-.6.3-.6.5-1.1.3-1 .3-1.1.2-1v-1l.2-2.1v-3.4l-.2-1.6-.3-1.7-.3-1.3-1.2-4.4-.3-1.3-.3-1.3-1-5.7-.7-3.1-.4-1.5-.5-1.3-.6-1-.5-.6-.5-.6-.7-.6-.8-.5-.8-.4-1.3-.5-1.6-.4-1.4-.3-4.5-.6-2.4-.5-1.4-.3-1.2-.5-1.1-.5-.8-.5-.7-.5-.8-.8-.8-.8-.8-1-1.5-2.1-2-3-1.5-2.3-.7-.9-.2-.1v-.1l.3-.4L25-96l.6-.8.6-.7 1.1-1 .8-.8.8-.5.6-.4.8-.5 1.9-.8 1.5-.6.7-.2 2.5-.7 2-.6.9-.2 2-.3 1.2-.2 1.1-.4 1-.5.6-.4.6-.5.8-1 .5-.5.3-.5.8-1.3.7-1 1-1.7.7-.8.7-.8.7-.5.5-.3.8-.3h2.4l.3-.2.3-.1.3-.2.2-.2.2-.4.2-.3.1-.4.1-.4v-1.6l-.3-1-.6-1.7-.8-2.4-1-2.5-.3-1.4-.2-1.2v-2.9l.3-2.2.4-1.9.3-1.4.4-1.4.6-2 1.5-4.7.7-2.1 1-3.8.4-1.3v-.5l.3.2h.7l.2-.2.8-.6 1.1-1.2.9-1.5.8-1.6.5-1.3.9-2.5 1.2-4 .5-1.5.6-1.3.6-1 .6-.7 1.3-1.1 1.5-.9 1.6-.7 5.2-1.8 1.7-.7 1.5-.8.4-.2 1.3-.9 1.2-1 .5-.6 1.2-1.3 1-1.2.9-1.2 1.6-2.2 1.3-2 .5-.9 1-2 1-2.1.5-1.5.4-1.3.2-1.5.2-1.4v-1.3l-.6-3v-2.6l.5-1.3.5-1.2 1.5-2.8.6-1.3.5-1.3.3-1.3.1-1.3v-1.3l-.2-2.5v-1.4l.1-.7.2-.7.1-.2.3-.5.5-.3h1l1 .5 1.4.9 1.4 1 4.5 4 1.6 1.3 1.6 1.1 1.5 1 1.6.7 1.5.2 1.6-.2 1.4-.6 1.3-.8 1-.7 1.9-1.2 3.5-2.6 1.7-1 1.3-.8 8.7-4.4 3-1.7 1.4-.7 2-1.3 2-1.4.8-.5.5-.4.1-.1v.2l.4.4.3.4.7.6 3 2.3.6.6 1 .9.8 1 .9 1 .6.8.7 1 .8 1.4.8 1.4.5 1 .4 1.1.4 1.2.2 1 .6 2.5.3 1 .7 1.4.3.4.8.8.9.6.8.3 1 .2h1.6l.8-.2 1.3-.4 1.1-.5.7-.4.5-.4.7-.7 1-1.7.5-.7.6-.4.6-.1.7.2.8.5.7.8 1.8 2 1 .9 1 .8 1.5.7 1.5.4 1.6.3 1.6.3 4.2.5h2l.7-.3.7-.4.7-.5.6-.5.5-.7.6-.7.5-1 .5-1 .3-1.1 1-3.1.7-1.8.5-1 .6-1.1.6-1 .5-.7.6-.8.6-.7.9-.7 1-.8 1-.7 1-.5 1.1-.4.9-.2.7-.1h1.3l1.1.4 1.1.6 1.1.7 1.1 1 1 .8 3.7 3.8 5.9 5.4 1.7 1.8 1.2 1.4 1.4 1.8 1.5 2.1 2.3 3.9 2.6 4 3 5.4 1.1 1.8 1.2 1.7 1 1.6 1 1.4 3.3 4 1.9 2.4 1 1.3 1.2 1.8 2.3 3.6 4.6 7.3 1.2 1.7 1.1 1.7 1.2 1.5 1.3 1.3 1.3 1 1.4.8 1.3.4h2.9l1.2-.2 1-.2.8-.3 1.4-.4 1-.4 1.5-.8 6.2-3.4 1.7-.8 2.3-1 1.2-.6 1.4-.5 1.4-.4 1.4-.3 1.3-.2h1.3l1.4.1.5.1 1 .4 1 .7.8.7.9 1 3.1 3.5 1.7 1.8.9 1 1 .8.9.8 1 .6 1 .5 1 .3 1.6.1h.9l.7-.3.5-.2 1.3-.6 1-.5 1.1-.8 4.1-2.7 5.6-4 1-.5.9-.4.9-.2.8.1.7.5.4.5 1 1.3.7.8 1.2 1.3.7 1 .6 1 1.1 1.8.8 1.4.7 1.6.5 1.5.2 1 .4 4.6v4.9l-.2 1.7-.4 1.8-.4 1.8-.4 1.8-.1 1.2v4.3l.1 1.8.4 1.5.6 1.5.7 1.4.7 1.2.7.9.4.3"/></defs><g clip-path="url(#p9bf3eb1ce6)"><use xlink:href="#m881b2fbffc" y="248.2" fill="#f4f4e2" stroke="#f4f4e2"/></g></g></g></g><defs><clipPath id="p9bf3eb1ce6"><path d="M7.2 7.2h357.1V241H7.2z"/></clipPath></defs></svg>