<svg xmlns="http://www.w3.org/2000/svg" xmlns:xlink="http://www.w3.org/1999/xlink" width="396.8" height="374" viewBox="0 0 297.6 280.5"><defs><style>*{stroke-linejoin:round;stroke-linecap:butt}</style></defs><g id="figure_1"><path id="patch_1" fill="none" d="M0 280.5h297.6V0H0z"/><g id="axes_1"><g id="PatchCollection_1"><defs><path id="mee3294acb1" stroke="#0c1321" d="m276-220.6-1.8 12-1.2 8.2-1 5.4-1 5-.6 2.5-.6 2.2-2.3 7.6-1 4-1.8 5.1-2.6 9.4-.4 1.4-.4 1.9v.6l-.2.9.1.6.1.6.5 1 2.3 3.8 2 2.9.6 1.2.7 1.6.2.8.9 3.3 1.5 4.4.3 1.2.3 1.3.3 1.4.2 2 .5 5 .2 3.4.2 1.2.2 1.2.5 1.4.6 1.6.8 1.5 2 3.5 1 1.8.4.9v.2l-.1.5-.3.8-.7 1.5-.4 1-.4 1-.3 1.3-.4 1.7-.2 1.4-.2 1.4-.2 2.5v1l-.2.9-.3 1.1-.4 1.2-1 2.8-.6 1.2-.7 1.4-2.4 4.3-1 2-1 2.6-1.5 3.8-.8 1.8-.8 1.8-1.2 2.7-1 1.9-1.7 2.8-.6 1.2-1.7 3.6-.7 1.4-1.7 3-1.8 3.2-.8 1.5-1 1.5-.5.7-.7.6-4 3.1-2.3 2-2.4 2-2.3 2.2L238-33l-1 1.2-1.3 1.6-4 5-2.7 3.4-.7.7-.6.5-.8.7-.6.3-.4.2h-.5l-1.1.1h-.6l-.7-.1-.6-.3-.3-.1-.6-.5-.6-.6-.5-.7-2-3-.7-1-.3-.4-.3-.1h-.1l-.1.1-.1-.2-.1-.5-.1-1-.1-2.7-.3-1.8-.2-.9-.4-1.2-.8-2.1-.4-1-.6-1-1.1-1.7-1.8-2.6-2.9-3.8-1.5-2.2-1-1.5-1-1.7-.5-1.2-.5-1.5-.3-1.3-.7-3-.6-2-.7-1.8-1.7-3.7-.6-1.6-.4-1.3-.4-1.3-.5-1.7-.8-3.9-.5-1.5-.4-1.1-.6-1-.7-1-1.7-2.3-.9-1.4-1.8-3.6-.5-1.2-.4-1-.2-.8-.3-1.3-.6-3.2-.3-1.7-.5-2-1-4-.3-1-.2-1.2v-2.5l.6-5.1.1-1.2v-2.5l-.3-1.1-.4-1.7-.4-1.2-.9-2-1-2-1.1-1.6-1.3-1.7-2-2.3-3-3.4-1.9-1.8-1.6-1.4-1.2-.9-1.6-.8-.8-.4-1.1-.3-1-.2H165l-1.8.2-1.1.3-1.2.3-1.9.6-6.8 2.5-3.8 1.3-4.9 1.5-9.8 3-4 1.3-5.3 1.9-13 4.7-3.8 1.3-2 .6-3.4 1-3 .7-2.5.5-4.6.7-2.1.3-4.5.5-8.8.8-4.1.4-4.6.6-3.4.6-2.3.5-2.1.6-1.4.4-2.3.9-6.9 2.6-2.1.8-2.1.7-2 .3H42l-1.3-.2-1.4-.7-1-.9-1.1-1.4-1-1.6-.8-1.4-.7-1.6-.7-1.6-.9-2.2-.7-2.3-.8-2.4-1.7-5.8-7.6-28.2-2-7.6-.2-.5v-3.6l.3-2.5.3-2.6.5-2.7.5-2.7.7-2.7.7-2.6.9-2.5.9-2.3 1-2.2 1.1-2.2 1.2-2.1 1.2-2 1.3-2 1.3-2 1.4-1.9 1.5-2 1.7-1.8 1.7-1.8 1.7-1.8 1.8-1.7 1.8-1.6 1.9-1.6 1.9-1.6 2-1.4 1.8-1.3 2-1.1L55-223l2-1 2-1 2.2-1.1 2.4-1 4.6-2 13.4-5.6 5-2 7.7-3 8.4-2.9 9-3 4.8-1.7 4.6-1.4L140-254l7.9-2.1 4.7-1.2 5-1.2 7-1.4 6.8-1.2 1.2.5 4 1.9 2 .9 4.5 1.9 4.5 1.8 9 3.3 12.7 4.8 22.7 8.5 21 7.7 6.6 2.5 4.6 1.7 4.5 1.9 4 1.7 3.2 1.5"/></defs><g clip-path="url(#pb272518bb6)"><use xlink:href="#mee3294acb1" y="280.5" fill="#0c1321" stroke="#0c1321"/></g></g></g></g><defs><clipPath id="pb272518bb6"><path d="M7.2 7.2h283.2v266.1H7.2z"/></clipPath></defs></svg>