<svg xmlns="http://www.w3.org/2000/svg" xmlns:xlink="http://www.w3.org/1999/xlink" width="495.4" height="337.2" viewBox="0 0 371.5 252.9"><defs><style>*{stroke-linejoin:round;stroke-linecap:butt}</style></defs><g id="figure_1"><path id="patch_1" fill="none" d="M0 253h371.5V0H0z"/><g id="axes_1"><g id="PatchCollection_1"><defs><path id="mbc06bcd277" stroke="#0c1321" d="m176.8-211.6.2.8-.3 1-1.3 2.9-2.1 4.8-.7 1.9-.1.8v1l.2.4.5.8.9.7 1.3.8 1.8.8 1.4.5 2.8.7 1.7.3 2.9.4 3.1.3 3.7.2 3.7.3 1.4.2 1.9.5 1.7.6.7.3 1.7 1 1.6 1 1.7 1.4 1.6 1.5 4 3.8 2 2 2.3 1.8 2.4 1.7 2.7 1.5 1.7.9 1.7.7 4 1.4 1.8.6 1.3.3 1.1.1h2l1.4-.2 2.5-.5 1.4-.4.8-.3 1.4-.7.8-.4 1.3-.9 1.3-1 1-1 1.7-1.8 3.6-4.5 1.3-1.4 1.5-1.2.6-.5 1-.5 1-.5 1.2-.4.8-.2 2-.4 1.9-.3 2-.1h3l2.2.2 6 1 3.7.3 2.8.2 2.7.1h7.6l2.5.4 2.4.4 2.7.7 7 2 4.4 1.3 1.3.6 1.4.6 2.3 1.4 1.7 1.3 1.4 1.4 1.2 1.4 1.2 1.6 3.5 5.5 2 3 2.6 3.4 4 5 1.4 1.8 1.2 1.8 1.5 2.7 1.2 2.8.7 2 1 4 .5 1.7 2.1 10.3 1 3.7.4 1.5.5 1.3.4.7.3.3-.3.2-.5.5-1.3 2-1 1.7-3 5.5-2.6 4-3.5 6-.9 1.2-1.2 1-1.3 1-.8.3-1.6.5-1.2.4-1.1.1-2.7.3h-5.6l-2-.2-2.7-.3-6-.9-1.9-.2-4.5-.2h-4.8l-3.7.1-2.6.2-2 .3-.8.3-.8.2-3 1.3-3 1-2 .7-1.5 1.2L277-92l-.9 2-.7 2.3-.2.8-.7 3.4-.3 2.2-1.5 11.9-.8 5-.6 3-.9 3-1 2.8-1.2 2.3-1.3 2-2.7 4.4-1.3 2.3-.9 2.3-.4 1.6-.3 1.6v3.1l.1 1 .3 1.2.2.5.3.5.3.4.4.2-.2.2-.2.6-.7 1.7-.7 1.8-.3.7-.4.5-.5.2-.4.2h-.5l-.6-.1-.4-.1-1-.6-1.7-1.1-1.1-.6-.7-.2-.9-.2-1.5-.2h-1.4l-.9.1-2.8.5-3 .9-1.2.1h-1.5l-3-.1h-1.6l-1.9.2-1 .2-1 .5-.8.5-.7.6-.6.7-.6.7-1 1.4-2 3.6-.2.4-.4.3-.8.4-1 .3h-1.8l-1-.2-.9-.3-1.5-.7-1.7-1-.7-.6-.5-.5-.5-.8-.3-.5-.3-.7-.5-2.8-.4-1.4-1.6-6-.3-1-.4-.9-.7-1.2-1-1.4-1.5-1.7-.8-.7-.4-.2-.6-.1h-.4l-.3.1-.4.3-1.2 1.2-.5.3-.4.1-.8.2H201l-1-.2-.5-.1-.7-.3-1.4-.9-2.1-1.4-1.3-.6-.7-.3h-1.9l-.5.3-.7.7-.4.5-.4.8-.2.7v.4l.2 2v.7l-.3.6-.5.8-.3.4-.5.4-.5.3-.5.3-.7.1h-1.4l-.6-.1-1-.4-1.4-.7-4.1-2.4-1.2-.8-1-.8-.7-.8-.6-.6-.6-.8-.7-1.1-.4-1-.3-.9-.1-.7-.1-.8v-1.2l.7-3.3.1-.9v-1.2l-.3-.6-.3-.6-.5-.8-.9-1-1-.6-1.3-.7-1.1-.4-1.7-.6-4.3-1.2-11.6-3.5-3.5-1-3.1-.7-3.8-.6-1-.1-2-.1h-1.1l-1.8.1-.9.2-.3.1.2-.7v-2.8L132-69l-.5-1.4-.6-1.6-.5-1-.8-1.3-1-1.6-1-1.5-1.1-1.3-2.1-2.5-5.3-6-3.1-3.6-1.9-2.4-2.3-3-2.6-4-.7-1.4-.7-1.4-1-2-.7-1.7-2.3-6.8-1.6-5.5-.7-1.9-.5-1-1-2-1.5-2.3-1.2-1.6-1-1-1.1-1-1.5-1.2-1.5-1-6.8-4.3L79-141l-2.5-1.5-1.3-.6-1.6-.7-1.7-.6-2-.7-1.7-.5-2.2-.4-1.6-.3-1.8-.1-6-.3h-1.8l-2.3-.4-2.3-.6-2.8-1-6.5-2.4-7-2.2-2.7-1-1.4-.7-1-.6-.7-.8-.5-.8-.4-.8-.4-2-.3-1-.4-.7-.5-.7-1.7-2-.3-.9-.2-.7.1-.7.2-.6.2-.5 2.5-3.9.5-.6 1-1.1 2.2-2.2 2.4-3 1-1 2-2 2-1.5.8-.7 1.3-.7 2-1 1.3-.6 5.7-2.2 1.7-.8 1.1-.7.3-.6-.2-.2-.2-.2-.3-.8-.3-1.3-.2-1.6-.1-1v-4.4l.3-2.8.3-2.5.6-3.1 1-4.2.5-2 .6-1.5.8-1.9 1-1.8 1.5-2.3 1.3-1.6 1.4-1.6 2-1.8 1.8-1.3 1.9-1.2 2.2-1.3 2.3-1.1 3-1.2 2.8-1 3-.6 3-.3h1.7l1.6.2 1.1.2 1.2.3 1.5.5 3.5 1.4 1.5.4 1.3.4 1.7.3 3.4.4 2 .3 2 .4 9 2.6 8.6 2.3 4 1.3 2.6.6 10.8 2.4 4.2 1 2.2.4 1.8.2h2.4l5-.5h3.4l1.3.2 1.2.2 1.9.6 4.4 1.9 4 1.5 1.5.6 1.3.7 1.5 1 1.1 1 .2.2.2.3"/></defs><g clip-path="url(#p3791faefcd)"><use xlink:href="#mbc06bcd277" y="252.9" fill="#0c1321" stroke="#0c1321"/></g></g></g></g><defs><clipPath id="p3791faefcd"><path d="M7.2 7.2h357.1v238.5H7.2z"/></clipPath></defs></svg>