<svg xmlns="http://www.w3.org/2000/svg" xmlns:xlink="http://www.w3.org/1999/xlink" width="416" height="374" viewBox="0 0 312 280.5"><defs><style>*{stroke-linejoin:round;stroke-linecap:butt}</style></defs><g id="figure_1"><path id="patch_1" fill="none" d="M0 280.5h312V0H0z"/><g id="axes_1"><g id="PatchCollection_1"><defs><path id="m8f2a0653cb" stroke="#0c1321" d="m255-243.8 4.3.2 1.7.2 1.6.2 1.6.4 1.5.6 1.3.7 1.2 1 1 1.2.8 1.3.7 1.4.7 1.4.7 1.5 1.2 3 1 3.1 13.9 39.6 2.2 6.7.7 2.2.2.8-13.1 6-18.3 8.1-9.6 4.4-4.5 2-4.4 2.2-7 3.6-1.4.6-1.7.7-1.5.5-1.7.4-2 .3-1.5.2H223l-1-.1-3.8-.6-1.9-.2H213l-1.6.3-1.5.3-1.6.5-1.3.6-2 1.1-2.2 1.4-1.6 1.2-3.8 3-1.2 1-1.9 1.2-2.3 1.4-7 4-1.8 1.2-2 1.3-2.6 2-5.1 4.3-3.3 2.7-2 1.4-8.8 6.5-1.9 1.2-1.2.6-.9.4-1.4.6-1.3.4-1.4.2-1.7.2h-4l-4.8-.1h-3.4l-1.4.2-1.6.3-1.5.5-1.2.6-.6.4-.6.3-.7.7-.4.5-.3.5-.3.6-.1.9-.1.7.1 3.4-.1 2-.4 2.1-.3 1.7-.6 2.2-.7 2-.5 1.2-1 2.4-1 1.9-1.3 2.2-1.9 2.7-1.5 2.4-2.6 4.3-3.9 6.9-10.3 19.2-2.7 5-1.5 2.4-1.5 2.5-1.6 2.5-1.7 2.4-1.3 1.7-1.6 2-1.7 2-1.6 1.8-3.4 3.6-1 1.6-.5.6-.2.2-.3.3-.4.1-1.1.4h-.9L78-20l-1.8-.3-.8-.1-.7-.1h-.7l-.8.2-.7.3-1 .5-.7.2h-1.1l-.4-.2-.4-.2-1-.2-1.9-.5-7.1-2.2-2.6-.8-2-.5-2.6-.6-2.8-.6-4.3-.6-2-.4-1.8-.4-1.5-.8-.5-.3-.4-.4-.6-.6-.7-1-.7-1-.5-.7-.2-.6-.4-.9-.3-1-.2-1.6-.1-1.7v-2.5l.2-2 .3-2 .7-4.2 3-15.5.8-4.8.6-4.1.6-4.2.4-4.1v-4.1l-.1-2-.5-1.6-.7-1.3-.7-.7-1-.6-.7-.2-.6-.1-1.2-.2h-4.1l-.3-.3v-.3l.4-.7 2-4.2 1.2-2.5 1.6-3 4-6.6 1.8-3.5 2.8-4.6 1-2.2.5-1 .5-1.2.5-2.2.3-1.9.3-2.4.3-4.6.2-3.3v-8l-.2-2.7-.2-2.7-.4-2.6-.5-2.5-.7-2.4-.8-2.3-1-2.2-1-2.1-1-2-1-1.6-1.8-2.8-.8-1-1-1.2-1-1.2-1-1-1.2-.8-.8-.5-1-.5-1.7-.6-4-1.4-2-.8-1.7-.8-1.2-.8-.9-1-.4-.6-.3-.6-.1-.6-.2-.6v-2.8l.3-1.8.3-1.5 1.5-5.6v-.4l.3-1 .4-1.4.6-1.6.7-1.7 1-1.8 1-1.9 1.2-1.8 1.2-1.8 3.2-4.3 1-1.5 1-1.6 1-1.7.8-1.8.8-1.7.5-1.5 1.4-4.6.5-1.4.8-1.7 1-1.7 1.1-1.5 1-1.1 1.1-1 2.4-2 5.1-4.3 1.2-1 1-1 1-1.2.4-.6.5-1 .2-.6.2-.6.3-1.8.3-.8.4-1 .7-.8 1-.7 1.3-.6 1.4-.5 1.8-.6 1.9-.5 4.1-.9 2.7-.6 7.2-1.3.5-.2 4.3-.7 5.2-.8 2.8-.3 2.9-.3 2.8-.3 2.8-.1 5.6-.2h8.1l2.6.1 2.6.2 2.6.2 5 .6 7.7 1.1 18 3 5.1.8 5 .6 2.6.3 5 .3 2.5.2h5l4.9.1h2.4l5-.2 5-.3 12-1.2h4.6l2.6.1 2.7.4 2.6.5 2.7.7 5.5 1.4 8.4 2.6 16 5.2 2.2.7"/></defs><g clip-path="url(#p8858d86f76)"><use xlink:href="#m8f2a0653cb" y="280.5" fill="#0c1321" stroke="#0c1321"/></g></g></g></g><defs><clipPath id="p8858d86f76"><path d="M7.2 7.2h297.6v266.1H7.2z"/></clipPath></defs></svg>