<svg xmlns="http://www.w3.org/2000/svg" xmlns:xlink="http://www.w3.org/1999/xlink" width="495.4" height="302.4" viewBox="0 0 371.5 226.8"><defs><style>*{stroke-linejoin:round;stroke-linecap:butt}</style></defs><g id="figure_1"><path id="patch_1" fill="none" d="M0 226.8h371.5V0H0z"/><g id="axes_1"><g id="PatchCollection_1"><defs><path id="ma58335625a" stroke="#0c1321" d="m322.6-49-.4.1-1-.3-2.6-1-14.4-6.9-3.5-1.5-3.3-1.3-4.6-1.6-3.8-1.1-2.9-.7-3.6-.6-2.8-.3-4-.2-5-.1-5.6.3-9.8 1.3-2.3.1h-2.8l-5.7-.3-6-.7-3.4-.3-12.8-.7-8.3-.9-6.7-.6H203l-5.4.5-3.4.6-3.8 1-4.6 1.7-4.7 2L177-58l-7.6 4.8-15.6 9.4-5 2.7-11.9 5.7-3 1.2-9.2 3.5-4.9 2-6.2 2.8-10 4.8-4 1.7-3.7 1.4-2.6.8-1.8.4h-.7l-.5-.1v-2.1l.6-6.7.5-3.9.8-4.8 1.1-5.4 1-4.3 3.4-10.5.8-3 .3-1.4.7-4.2.2-4.7v-2.5l-.3-3.5-.4-3.4-.7-3.5-.9-3.4-1.3-3.8-1.5-3.4-2-3-2.5-2.1-1.7-1-2-.6-3-.6-3.2-.2H77l-3.1.3-7 .8-11 1.8-3.3.4-3 .2-3-.3-2.6-1-1.5-1.6-1-2.2-.6-2.7-.2-3.6.3-4 .4-3.7.6-3.9 3.8-19.7 1-7.1.3-2.9-.2-3-.5-2.9-.8-2.7-1.2-2.7-1.9-3.3-2.2-3.2-2.5-3-2.6-3-3.3-3.2-4.9-4.4-3.6-3 3.3-1 6.4-1.5 6-1.2 4.4-.5 4.2-.3h3.6l5.5.2 2.8.4 3.4.7 3.8 1 10.1 3 8.5 2.3 4.3 1.4 4.7 1.8 9 4.3 3 1.3 4 1.5 3.5 1 5.5 1.2 3.9.7 3.8.5 2.9.3 2.4.1h4.5l4.1-.2 2.9-.3 3.1-.5 3.4-.7 5.1-1.4 16.6-5.6 10.2-3 5.1-2 5.1-2.3 3.3-1.7 3.4-2 7.7-4.8 3.6-2 17.5-8.2 9.3-4.6 6.1-3.5 1.8-1.3.4-.5.2 1.5 1.3 2.6 2.1 2.9 2.8 2.8 3.2 2.3 4 1.7 4.2 1.1 8.4 1.6 3.6 1.2 3 1.8 1.8 2 1.4 2.4 3.7 8.9 1.5 2.8 2.1 3.5 2.6 3.5 7.1 9.2 6.4 9 3.6 5.5 3 4.6 6.2 11.3 1.1 1.6 1.3 1.4 1.9 1.3 2.9 1h3.3l3.5-.3 7-1 3.2-.3 2.7.1 2 1 1.1 2 .3 2.9-.4 3.6-.8 4-1.3 4.5-1.2 3.9-3 8.3-4.8 11.9-5.1 12.2-8.5 19.6-.4 1.2"/></defs><g clip-path="url(#pa23d6e89df)"><use xlink:href="#ma58335625a" y="226.8" fill="#0c1321" stroke="#0c1321"/></g></g></g></g><defs><clipPath id="pa23d6e89df"><path d="M7.2 7.2h357.1v212.4H7.2z"/></clipPath></defs></svg>