<svg xmlns="http://www.w3.org/2000/svg" xmlns:xlink="http://www.w3.org/1999/xlink" width="285.8" height="374" viewBox="0 0 214.3 280.5"><defs><style>*{stroke-linejoin:round;stroke-linecap:butt}</style></defs><g id="figure_1"><path id="patch_1" fill="none" d="M0 280.5h214.3V0H0z"/><g id="axes_1"><g id="PatchCollection_1"><defs><path id="m2a532c96a1" stroke="#0c1321" d="m113.8-239-4.4 3.3-1.2 1-8 6-7.5 5.8-1.5 1.1-1.3 1.1-.6.5-.5.5-.4.5-.2.4v.5l.2.1.3.3.5.2.6.1h.7l2.2.2.7.1.7.1.6.2.7.3.6.4.7.5.5.5.7.7.6.6.5.7.5.7.5.8.3.7.3.7.3.7.2.7.3.8.4 1.7 1 4 .2 1 .3.8.3.8 1.1 2.3.7 1.4.2.6.4.5.3.5.4.5.3.5.4.4.3.3.5.4.4.4.7.6 1.4 1 .7.6.6.6.4.4.4.5 1.7 2 .3.4.3.2.6.6.7.4.8.4.8.4.9.4.8.3 1.8.7 4.1 1.4 1.7.6 3.7 1.5 1.7.6.7.3h.4l1.3-.6.3-.2.4-.1.2-.2.2-.2 1-1 .3-.2.3-.2.7-.4 2.8-1.7-.3-1 1-.7.5-.3 1.4-1.4 1.4-1.2.2.3.3.3.3.5.2.6.3.6.3.6.8 2.3.4.8.2.4.2.4.6.8.2.4.2.5.1.3.3.6.2.9.2.9.2 1.4v.4l.2.3v.2l.2.2h.8l.3-.2 1-.5h.2l.4-.2.5-.2.4-.1.9-.2h.4l.3-.2h.3l.5-.3.5-.4.7-.4 1.6-1.2.4-.3.4-.2h.2l7.2 15.7.7 1.8.9 2.2.5 1.3 1.1 2.5 1.1 2.5 1.9 4 .2.2.1.2.2.4.2.7.2.6.2.5.2.8.2 1.3.1.7.1 1.1.2 1.5.2 3.4.4 5v1.8l-.2.6-.3.6-.4.6-.5.5-1.6 1.5-1 1.1-.2.3-.4.4-.2.4-.2.3-.2.5-.1.6-.2.5v1.9l.2.6.1.4.2.3.2.5.2.4.2.2.2.3.3.3.3.1.2.1.2.1.4.2.6.1.7.1h.6l1.5.1h1l.8.1 1.8.3h3.4l.7-.1.6-.1.5-.1.5-.2.5-.3h.1v-.1l.6.4.7.7.4.4.4.4.4.5.3.4.3.5.1.4.2.4v1.2l-.1 1-.6 2.8v.6l-.1.5v1.5l.2.3.2.2.4.2h1.3l1.6-.3 1-.2h1.3l.5.1.2.1.3.1.3.4.3.4.2.4.2.6.1.5.1.5.1.5v2.1l-.1.2-.1.4-.5 1.5-.2.6-.1.8-.1.7-.1.5v1l-.1.3h-1l-.7.1-.7.1-.3.1-.4.2-1.5.7-.3.1-.6.2-.7.3-.2.1-.2.2h-.2l-.1.2-.1.2v.2l-.2.7-.1.8v1.6l.5 1.4v.8l.1.3v1l-.1.4-.1.5-.2.5-.2.4-.2.3-.2.2-.2.3-.4.4-.3.1-.6.4-.7.4-.8.6-.7.5-1 .8-.8.8-.3.2-.4.3-.9.4-.3.3-.3.2-.1.1v.2l-.1.2v.6l.2.3.5.8.1.3.2.4.2.5v.7l.2 1.6v.6l.2.3.4.5.2.2v.3l.1.2v.6l-.2.3-.2.2-.2.2-.6.8-.4.4-.1.2-.2.3-.2.4v1.2l.1.3.2.3.1.1v.1l-.1.1h-1.1l-1.5-.4-.9-.2h-.9l-.3-.1h-.5l-.4.1-.4.1-.4.2-.3.1-1.2.6-.3.1-.5.2h-.3l-.4.1h-1.3l-.4-.1-.3-.1-.6-.2-.8-.5-.5-.2-.5-.3-.4-.4-.9-.7-.2-.2-.3-.1h-.8l-.3.2-.3.3-.3.4-.2.2-.1.4-.3.6-.2.9-.2.7-.2 1-.1.4-.2.7-.3.9-.4.8-.3.6-.3.5-.2.3-.3.3-.3.4-.4.4-.7.6-.5.4-.3.2-.3.2-.7.3-.3.2-.4.4-.3.5v.4l-.1.6v1.8l-.6.6-.7.6-.4.4-.4.2-.4.2-1.2.5-.7.3-.6.4-1.2.8-1.8 1-.4.3-.4.3-.3.3-.4.3-.3.3-.4.5-.4.5-.2.5-.6 1.3-.3.5-.3.6-.5.7-.7.9-.6.7-.3.3-.6.6-.8.7-.7.5-1.1.9-.8.6-.8.5-.5.3-1.1.7-.4.3-.4.3-.4.3-.3.4-.3.3-.2.3-.1.2-.2.4v1.4l.2.5.1.4.1.3-.3.2-.3.1-.9.6-.3.2-.5.3-1 .8-.3.2-.3.2h-.2l-.2.1h-1.6l-.4-.1H126l-.5.2-2.8 1-.8.3-.4.2-.4.2-1.8 1-.4.3-.3.1-1.7.6-.7.3-.5.1h-.5l-.3.1h-.8l-.2-.2h-.2l-.5-.3-.4-.3-.5-.5-.4-.4-1.2-1.2-.2-.3-.4-.4-.3-.2-.4-.2-.4-.2h-2.3l-.5.2h-.4l-1.1.4-.3-.3-.4-.6-.3-.6-.3-.4-.2-.5-.2-.5-.3-.6-.7-2.2-.4-.9-.1-.3-.2-.4-.1-.2-.2-.2-.1-.2-.2-.1-.2-.2-.3-.2-1.7-.8-.7-.5-.7-.4-.7-.5-.6-.5-.8-.3-1.3-.7-.5-.3-.2-.1-.4-.3-1-.9-.2-.2-.5-.3-.4-.1-.3-.2h-.5l-.3-.1h-.9l-.2-1.3V-40l-.7-8-.1-2.2v-4.2l.1-1.6.1-1.3.2-1.4.2-1 .1-.8.3-1.2.2-.6.1-.5.3-.8.4-1 .6-1.4.6-1.2.5-1 .3-.5.4-.5.4-.7.5-.5.6-.8.5-.5.5-.5.8-.7.9-.8.4-.3.8-.6.8-.5 1-.5 1.3-.7 2.5-1.3.7-.4.5-.2.4-.3.3-.3.3-.3.3-.4v-.4l.1-.4v-1.2l-.2-.4-.1-.4-.2-.5-.4-1-.4-.8-.5-1.2-1.7-3.3-.4-.8-1.1-1.9-.2-.3-.3-.6v-.2l-.1-.4v-.4l.2-1.4v-.5l-.1-.5-.1-.6-.3-.7-.6-1.8-1-3-.3-.8-1-2.2-.4-1.2-.3-.7-.1-.6-.1-.3v-.9l.1-.6.3-.7.2-.5.2-.3.5-.7.3-.4.4-.5.3-.4 1-1 .6-.8 1-1.2.4-.5.4-.5.2-.5.1-.5v-.6l-.3-.5-.5-.5-.5-.5-.3-.2-3-2.4-3.8-3-1.4-1-.8-.7-1-.6-1.1-.7-.7-.4-.8-.4-.5-.3-1-.4-1-.4-.4-.2-.9-.2-1-.3-.7-.2-1.2-.2-1.8-.3-1-.2-1.2-.3-.6-.2-.7-.2-.6-.3-.7-.4-.7-.4-.6-.5-.5-.6-.5-.5-.4-.6-.3-.6-.4-.7-.3-.6-.2-.7-.2-.6-.2-.6v-.4l-.1-.3v-.2l.1-.3.4-.7.5-1 .3-.6.8-1.3.5-.7.5-.7.5-.7.5-.6.4-.6 1-1.1 1-1.1.6-.6 1.9-1.8.5-.6.6-.6.6-.7.4-.6.3-.6.5-.7.4-.9.3-.6.2-.7.2-.7.2-.8.2-.8v-2.7l-.2-.9-.2-.8-.3-.8-.3-.8-.4-.7-.4-.7-.5-.7-.6-.7-.5-.5-.5-.6-.6-.5-.6-.5-.6-.4-.7-.5-.7-.4-.8-.3-.7-.3-.7-.2-.6-.2-.7-.2-3.1-.6-1.6-.4-1.6-.4-.8-.2-1.6-.5-1.5-.5-1.4-.6-.7-.3-.7-.3-.5-.3-.5-.3-.6-.4-.6-.4-.6-.5-.7-.5-.6-.6-.6-.6-.5-.6-.6-.7-.5-.7-.4-.7-.4-.7-.4-.7-.4-.7-.3-.8-.3-.7-.2-.7-.5-1.5-.4-1.6-.2-.7-.4-1.5-.1-.8-.1-.7v-.8l-.1-.6v-2.1l.2-.7.2-.9.2-.9.5-1.7.5-1.6.3-1.7.2-.8.3-1.5v-.8l.1-.8.2-1.7v-3.7l-.1-.7v-.8l-.2-.7-.1-.8-.2-.7-.2-.7-.2-.8-.2-.7-.3-.7-.2-.8-.4-.7-.3-.8-.4-.7-.4-.7-.4-.7-.5-.7-.6-.8-.6-.6-.6-.7-.7-.6-.6-.6-.6-.5-.7-.4-.7-.5-.7-.4-.7-.4-.9-.4-.9-.4-1-.3-.9-.3-1-.3-.9-.2-1-.2-3.2-.4-.4-.1H31l-1.4-.8-.8-.5-.6-.4-.7-.5-.6-.5-.6-.4-.7-.6-.6-.5-.6-.5-.7-.7-.7-.7-.6-.6-.5-.6-.5-.5-.4-.6-.4-.6-.5-.6-.4-.6-.3-.7-.3-.4-.3-.6-.5-1.2-.5-1.2-.4-1-.4-1.2-.3-1-.3-1v-.5l-.1-.5v-.9l.3-.5.4-.4.5-.2.7-.3.8-.1.8-.1 1-.1 1.7-.1 8.4-.4 6.5-.3 23-1.3 15.8-1 5.2-.2h1.2l2.7-.1h3.2l.8.1.7.2.7.2.5.3.5.5.4.7.4.7.2.7.2.6.2.6.3 1.3.3 1.5.7 3.7.4 2.2.4 2 .3 1.3.2.5.2.8.3.7.4.6.4.5.4.2.3.1h.3l.4.2h5.3l1.7.2 1.7.2 1.7.2.8.1 1 .2 1 .3.8.2.7.2.4.2.3.1v.2"/></defs><g clip-path="url(#p4be7f5cbb7)"><use xlink:href="#m2a532c96a1" y="280.5" fill="#0c1321" stroke="#0c1321"/></g></g></g></g><defs><clipPath id="p4be7f5cbb7"><path d="M7.2 7.2h199.9v266.1H7.2z"/></clipPath></defs></svg>