<svg xmlns="http://www.w3.org/2000/svg" xmlns:xlink="http://www.w3.org/1999/xlink" width="495.4" height="304.5" viewBox="0 0 371.5 228.4"><defs><style>*{stroke-linejoin:round;stroke-linecap:butt}</style></defs><g id="figure_1"><path id="patch_1" fill="none" d="M0 228.4h371.5V0H0z"/><g id="axes_1"><g id="PatchCollection_1"><defs><path id="mfa30baad6f" stroke="#0c1321" d="m214.7-182.1.5.2.7.5 11.1 7.9 3 1.9 1.7 1.1 2.7 1.6 2.5 1.3 1.7.9 1.6.7 1.5.5 1.4.4 1.3.3 1.2.2h3.5l2.6-.4 2.2-.1h3.3l1.6.2 3.5.5 12.6 2 2.2.2 1.8-.2 2-.4 1.8-.6 1.4-.6 1.8-.7 1.7-.8 1.5-.8 1.7-1 2.7-1.9 11.7-8.9 1.6-1 1.5-.8 1.7-.7 1.6-.4 1.4-.2h.5l1.5.2 1.5.5.6.2 1.2.7 1.2.9 1.2 1 1.8 1.8 1.7 2 1.8 2.4 1 1.5 1.8 3 1 1.7 1.2 2.6v.1l.4.6 2 2.6 6.4 7.5 1 1.4 1.6 2.2.8 1.3.6 1.2.6 2.5.3 2.4.3 4.4.1 2.6v1.5l-.2 4.6v2.2l.2.9.5 1.3 1.4 3.2.6 1.7.2 1 .2 1.3v3.1l-.5 3.7-.1 2v2.8l.6 6v2l-.1 1.4-.3 1-.2.5-.4.9-.7 1-.5.6-.8.8-1.9 1.6-1.4 1-5.4 3.4-6.3 4.2-3.4 2-3 1.7-2.1 1-2.3 1-6 2.2-4 1.4-2.9 1.1-2 .9-2.3 1-2.1 1.1-5.3 3-1.7.7-1.1.5-1.7.6-2.2.6-4.6 1-2.4.7-1.4.5-1.2.4-1.2.6-1.2.7-1.3.9-1.4 1.2-1.1 1.1-1.4 1.8-.7 1-.8 1.3-2.4 5-.7 1.3L265-42l-.8 1-.7.8-1.3 1.2-1.6 1.2-1.6.9-1.2.4-1.4.3h-1l-.5-.2-.1-.3-.2-.3-1-.8-1.4-.9-1.2-.6-1.4-.6-3.7-1.4-4-1.7-1.7-.5-1-.2-1.2-.2h-3.1l-4.5.4H228l-1.6-.1-2-.4-3.8-.9-9.8-2.2-2.4-.6-3.7-1-7.9-2.2-8.1-2.4-1.8-.3-1.8-.3-3-.3-1.6-.3-1.2-.4-1.4-.4-3.2-1.2-1.3-.5-1.1-.3-1-.2-1.5-.1h-1.5l-2.7.3-2.8.6-2.6.8-2.7 1-2 1-2.1 1.2-1.7 1.2-1.6 1.2-1.8 1.6-1.3 1.4-1.2 1.5-1.4 2.1-1 1.6-.7 1.8-.4 1.3-.6 1.8-.8 3.8-.5 2.9-.4 2.2-.2 2.5v5l.2 1.4.3 1.3.3.7.2.2-.6.3h-1l-1.3-.4-1.2-.5-1.2-.7-1.1-1-1-1.1-1.5-2L129-26l-1.4-1.8-1-1-.8-.8-1.3-1-1-.7-1.1-.4h-6.1l-1.8-.4-.7-.3-1.8-.8-7.2-4.3-1.5-1-1.6-1.1-.8-.9-.7-.8-.7-1.4-.5-1.4-1-3.4-.5-1.6-.6-1.2-.9-1.6-1-1.5-1.3-2-2.1-2.5-1.8-2.3-1.4-2.4-3-5.2-1-1.7-1.1-1.6-1.7-2.1-1-1.2-1.5-1.3-1.8-1.4-2-1.4-2.2-1.4-1.9-1-2.4-1.2-1.4-.5-1.1-.4-1-.2-1.3-.2-1.3-.1h-1.4l-2 .1-3 .5-2.7.5-5.3 1.3-2.3.7-1.6.6-1.9.8-5.2 2.6-1.7.8-1.2.4-1.2.3-.7.2h-1.4l-.7-.2-1.5-.8-1.3-1.5-1.2-1.8-1-2.2-.8-2.3-.6-2.5-.5-2.6-.2-2.5V-93l.3-2.5.5-2.4.8-2.8 1.3-3.7.5-1.8.4-1.6.2-1.5.2-1.6v-2.1l-.4-2-.6-2.4-1.2-4.2-.3-1.5-.1-1.1v-1l.1-1.2.4-1.7 1-3 .2-1.5.1-1.4v-2.6l-.5-5.3-.2-2v-2l.2-1 .4-1.6.7-1.4 1-1.2 1.2-1 .8-.5.4-.1h1.5l1.3-.1 1.6-.4 3-1h.7l1.6-.6 1.1-.5 2.2-1.2 6-3.5 1.2-.7 1.6-.7 1.1-.5 1-.3 1.2-.3 1.4-.2h1l2.5.2 1 .3 1.1.3 1.7.6 1.3.6 5.4 2.7 2 1 1.8.6 1.4.5.9.1 2.2.3H81l2.3-.3 1.4-.1 2-.5 1.6-.5 1-.4 3.1-1.5 2.9-1.6 4.4-2.7 2.5-1.7 1.1-.8 1.4-1.2 1.5-1.5 2.3-2.5 1.4-1.4 1.7-1.5 1-.8 2-1.1 7-3.5 2.7-1.3 6.2-2.6 2.7-1.3 1.4-.8 1.1-.8 1.2-1.1 1-1.3 1.3-1.5 1.2-1.6 1.3-1.6 1-1 3-2.6 2.7-2.5 1-.9 1.2-.8 1.2-.7 2.3-1 5-2.3 4.3-2.2 2.5-1 3-1.2 2.2-.6 2.6-.7 2.5-.4 1.6-.2 2.4-.3h3.6l1.3.2 1.4.6 1.2.7 1 .7 2.2 1.8 2.7 2.5 6.8 6.7 3.1 3.2 3.5 3.7 3 3.4 3.2 3.7.8 1 .7 1"/></defs><g clip-path="url(#p05a87e4ec1)"><use xlink:href="#mfa30baad6f" y="228.4" fill="#0c1321" stroke="#0c1321"/></g></g></g></g><defs><clipPath id="p05a87e4ec1"><path d="M7.2 7.2h357.1v214H7.2z"/></clipPath></defs></svg>