<svg xmlns="http://www.w3.org/2000/svg" xmlns:xlink="http://www.w3.org/1999/xlink" width="422.9" height="374" viewBox="0 0 317.2 280.5"><defs><style>*{stroke-linejoin:round;stroke-linecap:butt}</style></defs><g id="figure_1"><path id="patch_1" fill="none" d="M0 280.5h317.2V0H0z"/><g id="axes_1"><g id="PatchCollection_1"><defs><path id="m523de04906" stroke="#0c1321" d="m294.6-127.5.2 4.6.9 13.8.1 2.4.4 2.5v2l-.3 1-.6 1.6-.7 1.4-.3-.1h-2.6l-1 .3-1 .4-1.1.6-1 .9-.9 1-.8 1-.8 1.1-2.2 3.4-.8 1.2-.8 1-.9 1-1.8 2-2.8 2.8-8.4 8-1.8 1.8-1.8 1.6-3 2.5-2.2 1.7-1 .8-1.2.7-1.1.7-1.2.5-1.2.3-.8.1h-1.4l-.7-.1-.7-.2-1.3-.4-.8-.3-1-.6h-.3l-.7-.8-5.4-5.6-1.5-1.6-1.3-1-1.3-1.1-1.6-1.1-1.5-.9-1.6-.8-1.3-.5-1.2-.4-1.1-.4-1.5-.4-1.5-.3-2.1-.4-3-.5-2-.2h-2l-1.1.1-1.1.1-1 .2-.9.2-.7.3-.9.3-.6.4-.6.4-.6.5-.5.6-.2.4-.4.8-.2.7-.3 1.4-1.7 10-.7 4.2-.5 2.4-.4 1.6-.5 1.7-.3 1-.5 1.5-.5 1.3-.6 1.5-1 2-.7 1.2-.7 1.2L197-43l-1.2 1.5-1 1-.8 1-1.3 1-2.2 1.5-2 1.3-1.7 1-7 4.4-3.4 1.9-2.7 1.4-1.5.7-1.7.7-1.3.4-1.3.3-2.8.6-2.3.4-2.4.3-2.1.2H155l-1-.1-1.2-.2-2.6-.6-1.8-.3-1.1-.2h-3.6l-6.3.7-2 .1h-2.2l-4-.6-2.5-.2-2.1-.1H122l-1.5.2-1 .2-2 .5-2 .6-1.2.5-2.9 1.2-2.3.8-1.1.3-2 .4-1.2.2-1 .2h-3.7l-3.4-.2-4.5-.5h-2.4l-1.5.1-1 .3-.5.2-.4.2-.2.2v.1l-.2-.3-.3-.4-.7-.9-.9-1-2-2.1-1.2-1.2-.7-.8-.8-1-.7-1.3-.5-1-.4-1-.4-1.1-.2-1-.2-1.1v-.9l-.2-1.7v-1.4l.1-3v-1.3l.7-8.1.1-4.3v-4.2l-.2-2.4-.2-1.8-.4-2.9-.2-1-.5-2-1-3.5-.9-2.5-.8-2.1L73-78l-.5-.9-.4-.7-.5-.7-.7-.8-.6-.5-.4-.2-.6-.3-.4-.2-.9-.2h-.7l-.7-.1h-1.9l-3.4.4-2.6.4-1.4.3-2 .6-1.1.4-1.3.6-1.4.7-1.5.9-1.1.7-4.8 3.3-1 .6-1 .6-1 .3-.7.3-2.2.5-1.9.3-1.9.2h-1.7l-.6-.1-1-.2-.8-.3-.7-.3-.9-.6-.6-.6-.7-.6-1.1-1.2-.7-.8-1-1.3-.6-.8-.4-.9-.3-1-.2-1.2L23-85l-.2-1.6-.4-1.6-1-4.1L21-94l-.1-1.7v-2l.4-2.2.6-2.2.7-2.2 1-2.3 1-2.2 1.1-2 1.8-2.6 1.4-2 4.3-5.6 1-1.4 1-1.5.7-1.1.2-.5 5.2-1.5 4.5-1.4 1.7-.6 2-.8 1.3-.6 1.2-.7 1.5-1 2.7-2.3.8-.6L59-136l3.5-2.3 1.7-1.2.8-.6.8-.8 1.4-1.4 1.4-1.5 1.3-1.6 1.2-1.7 2.5-3.5 6.2-8.8 2.5-3.4 3-4 .8-1.1.7-1 .7-1.3.4-.9.4-1 .3-1 .2-1.3v-2.8l-.1-1-.2-1.7-.6-4-1-4.6v-2.9l.2-1 .4-.8 1.3-2.3.5-1 .4-1.2.4-1 .6-.7h.2l.3-.2.4-.1h1.1l4.3.6 1.5.2 2 .1 2.1.3 1.4.2 3.3.8 2 .3h.9l.7.1h1l1.2-.1 1.5-.2 4.5-.8 1.7-.4 1.5-.4 1.4-.6 1-.5.8-.4 2-1.3.7-.4 1-.5 1.4-.4 1.7-.3 1.2-.1h1.3l1.1-.1h1.6l3 .2h3.2l1.4-.3.5-.1.6-.2.4-.3.5-.3.7-.9.4-1 .1-1.2-.1-1.4-.3-1-.4-1-.7-1.3-.8-1.3-1-1.5-1.5-2.2-3-4-.8-1.2-.8-1.1-.8-1.5-.4-.9-.3-.8-.3-1.3v-.9l.1-.6.2-.4.1-.3.3-.5.3-.4.5-.4.5-.4.6-.4 1.5-.8 1.8-.9 2-.7 1.5-.6 1.6-.4 1.7-.4 2.4-.5 7.7-1.7 2.5-.5 1.6-.2h2.2l1 .2 2.6.8 1 .3 1.7.3 2.2.2h1.3l4.4.2 1.5.2 1.3.1 1.4.4 1.2.6 1 1 .6 1.2.1.5.1 1.3v.7l-.6 1.6-.8 1.6-1.1 1.6-1.3 1.7-1.4 1.7-2.7 3-5 5.3-1.4 1.7-2 2.2-1.6 2.1-.6.8-1.2 1.9-.7 1.1-.6 1.3-1.6 3.2-.6 1.3-.5 1.3-.5 1.7-.4 1.7-.2 1.7v1.4l.2 1.2.4.8.2.1.2.2h.9l.6-.2.6-.3 1-.6 2.9-2 1.3-.8 1.1-.6 1.2-.6 2.2-1 2.7-1.1 2.7-1 .9-.3 1.5-.3 1.8-.4 1.5-.1 1.8-.1h5.8l2 .2 2 .2 2.5.4 2 .5 3.4.8 2.5.6 3.8.8 2 .3 2 .3 2.8.2h4.7l2-.2 1.4-.2 1.1-.2 1-.3 1.2-.3 1.2-.5.9-.4 1-.6 1.1-.8.7-.6 1-1.2.5-1 .5-1 .4-1 .3-1 .3-1.1.2-1.1.3-2 .1-1.4.1-1.5v-4.9l-.2-2.4-.2-2.5-.3-2.6-.3-2-.5-2-.5-2-.7-1.9-.9-2-1-1.9-1.2-1.9-1.3-1.9-3.7-5.3-1.2-1.8-1.1-1.7-.7-1.3-.7-1.3-.6-1.3-.5-1.3-.6-1.9-.3-1.8-.2-1.8-.1-1.5v-1l.1-.5.6-.1 1.1.2 1.5.6 1.5.8 1 .6.8.8.9.7.8.9 1.2 1.4.7.8 3.4 4.4 1.6 1.9 1.1 1.3.8.8 1 1 .6.4 1.8 1.4 2 1.2 1.9 1.2 6 3.3 1.9 1.2 1.8 1.3 1.7 1.4 1.5 1.5 1.6 1.5 1.5 1.6 2.9 3.3 4.2 5.1 7 8.6 5.3 6.8 3.4 4.4 1.7 2.5 1 1.3.8 1.4.7 1.2.6 1.2 1 2 .6 2 .4 1.3.3 1.2.3 1.8.2 1.9.2 2.5.1 2v13.7l.2 13.2.4 13.4.3 7.2.2 3.5"/></defs><g clip-path="url(#p23543de3fd)"><use xlink:href="#m523de04906" y="280.5" fill="#0c1321" stroke="#0c1321"/></g></g></g></g><defs><clipPath id="p23543de3fd"><path d="M7.2 7.2H310v266.1H7.2z"/></clipPath></defs></svg>