<svg xmlns="http://www.w3.org/2000/svg" xmlns:xlink="http://www.w3.org/1999/xlink" width="326.6" height="374" viewBox="0 0 244.9 280.5"><defs><style>*{stroke-linejoin:round;stroke-linecap:butt}</style></defs><g id="figure_1"><path id="patch_1" fill="none" d="M0 280.5h245V0H0z"/><g id="axes_1"><g id="PatchCollection_1"><defs><path id="mfde4c49685" stroke="#0c1321" d="m227.3-258.3-2.3 8.2-3 9.5-1.8 5.8-2.4 6.5-9.2 24.2-3 7.3-1.2 3-16.8 39.2-3.3 7.8-1 2.6-1 2.5-.7 2.4-.7 2.3-.4 2.3v2l.3 1.9.4.8 1 1.2 1.2 1.2 1.3 1.2 1.3 1.1 1.2 1.4 1 1.3.6 1.2.9 2 .4 1.2.5 1.4.6 2.3.6 2.6 2 9.5.6 2.3 2.1 7.1.6 2.4.3 2.4v2.4l-.2 1.8-.2 1-.3 1-.7 2.2-.4 1.2-.9 2.1-1.3 2.8-.6 1.2-.6 1-.2.1-.6 1-3.2 5.9-2 3.5-1.4 2-1.6 2-1.6 1.8-1.7 1.7-1.8 1.5-2.3 1.5-1 .5-2 1-5 2-4.2 2-1.5.5-2.8 1-3.3 1.1-7.3 2.3-2.5.7-2.8.7-2 .7-1.6.6-1.9 1-2.9 1.8-5.1 3.4-1.6.9-1 .5-3.8 1.6-2.9 1.1-3.8 1.4-4.5 1.7-3.2 1-2.4.6-2.5.4-2.5.2h-2.5l-2-.1-2.3-.2-3.7-.6-6-1h-1.6l-1.2-.3-1.1-.3-.8-.5-1.7-1.3-.4-.3-.7-.2-1-.3-2.2-.2-1.8-.4h-1.3l-.7.1-.6.3-2 1-1.7 1.2-.6.4-2.4 1-1.8 1-1.4.7-2.2 1-.6.2-1.5.4-1.2.6-.4.1h-1.9l-.6.2.2-.5 3.7-8.7L58-34l2.1-5.3 1.3-3.7.6-1.7.5-2 .4-1.8.2-1.5-.1-1.3-.5-1-.9-.3-1.2-.1-1.4.1-3.1.5-1.6.1h-1.5l-1.2-.4-.9-.6-.5-.6-.5-.7-2.8-5-1.3-2-1.6-2.5-2.8-4-3.2-4-1.1-1.6-1-1.6-.6-1.2-1.7-4-.6-1-.8-1-1.3-.7-1.6-.5-3.7-.7-1.9-.5-1.8-.8-1.4-1-1.2-1.3-1-1.2-.5-1.2-.1-.6v-.1l.4-.5 2.5-2.5 1.3-1.5 2.7-3 2.7-3.3 1.3-1.7 1-1.4.9-1.6 1-1.8 1-2.5 1-2.5.7-2 1.4-5 1.6-5.1 1.2-3.5 1.3-3.4 2.2-5.1 3.6-7.5 2.1-4.5 1.3-3 1-2.5.5-1.7.3-1.3.2-1.4v-3.7l-1-6.9-.4-3.6v-2l-.2-3.7.1-2.8.1-2.5.3-3.4.5-3.4.5-2.1.4-1.4.4-1.3.5-1 .6-1 .4-.5.4-.4.3-.1h.7l.3.1h1l1.5-.2 2-.5 2.2-.7 2-.9 2-1 2-1.3 2.7-1.7 2.6-1.9 2.5-1.9 5-4 14-11.6L99-228l2.4-1.7 3.4-2.2 1.7-1 2-1.1 2-1 2-1 1.9-.8 2-.7 4-1.3 1.9-.8 1.5-.7 1-.6 1.1-.8 1.1-.9 3.2-3 1-.6.8-.2.4.2.4.4.6 1.2.5 1.6.5 2 1.5 9.4.4 2.4.6 2.3.7 1.9.4 1 .7 1 1.2 1.5 1.6 1 2 .8 2 .4 2.2.1h2.2l2.2-.3 2.2-.4 2-.7 1.7-1 1.4-1.2 1-1.6.5-2 .4-2.2.2-2.3v-9.9l.2-2.3.4-2.2.5-2 1-1.7 1.4-1.4 1.8-1 2.2-.9 2.3-.6 2.5-.6 2.6-.4 2.6-.4 8.2-1.2 2.7-.5 2.7-.5 2.5-.7 2.5-.8 4.7-2 2.4-.7 2.4-.4 2.5-.1h2.7l2.7.4 2.8.4 2.6.5 2.5.5 4.4 1"/></defs><g clip-path="url(#pcf58943bc9)"><use xlink:href="#mfde4c49685" y="280.5" fill="#0c1321" stroke="#0c1321"/></g></g></g></g><defs><clipPath id="pcf58943bc9"><path d="M7.2 7.2h230.6v266.1H7.2z"/></clipPath></defs></svg>