<svg xmlns="http://www.w3.org/2000/svg" xmlns:xlink="http://www.w3.org/1999/xlink" width="495.4" height="362.1" viewBox="0 0 371.5 271.6"><defs><style>*{stroke-linejoin:round;stroke-linecap:butt}</style></defs><g id="figure_1"><path id="patch_1" fill="none" d="M0 271.6h371.5V0H0z"/><g id="axes_1"><g id="PatchCollection_1"><defs><path id="m46c5fc79d3" stroke="#0c1321" d="m274.5-238.6 17 10.8 7.8 4.9 3.7 2.2 3.7 2.2 16.8 9.7 3.7 2.2 3.7 2.3 2.1 1.4 1.6 1.2 1.4 1.3 1.2 1.4.6.8 1 2 .8 1.7.6 1.8.5 2 .5 1.8.4 2 .3 2 .7 4 .6 4.1.7 5.9.7 5.9 1 8.8.5 4.3 1.4 15 .6 7-48.2 11.3-8.4 1.8-9.3 2-6 1.4-3.7.8-3.8.8-3.7.6-2 .3-8.4 1.1-1.7.3-4.2.8-1.7.3-1.7.2h-3.6l-2.1-.3-2.1-.3-2-.5-4.2-1.1-10.5-3.1-4.1-1.2-2.1-.5-2.1-.4-2.2-.4-2-.3-2.2-.1h-2l-1.6.1-2 .3-1.4.3-1.9.5-2.4.9-1.6.6-2.9 1.3-3.4 1.7-5.2 2.8-14.8 8.1-5.5 3-3.9 2-10 5-17.7 8.6-5.4 2.7-1.7 1-1.8 1-1.6 1-1.7 1-1.5 1.3-1.6 1.4-1.4 1.5-1.5 1.7-1.3 1.6-1.3 1.7-3.6 4.8-5.6 8-9.7 14.1-5 7.6-8 12L41.8-53 24.9-69.1l-.5-3.8-.5-4.6-.2-2.5-.2-2.2v-10.9l.2-2.3.3-2.1.3-2 .5-2 .7-1.7 1-1.4 1-1 1.4-.9 1.5-.7 1.5-.7 3.5-1.2 1.8-.7 1.6-.7 1.4-1 .6-.5.4-.5.4-.5.2-.5.5-1.5.2-1.8v-1.8l-.2-1.8-.4-1.8-.6-1.8-1.1-2.8-.7-1.5-.6-1.4-.6-1-1-1.2-2.5-2.7-.5-.6-.4-.6-.4-.5-.3-.6-.2-.8v-.7l.3-.7.5-.7 1.7-1.5.8-.8.6-1.1.3-1.3.1-1.4v-3.7L37-152l-.4-2.8-.3-2-.4-2.2-.5-2-.5-2.1-.6-2-.6-2-.7-2-1.3-3.1-.5-1.2-.4-1.4-.3-1-.2-1.5v-2.5l.3-1.4.6-1.4.7-1.3.8-1.4 1.2-1.6 1.3-1.7 1.4-1.6 1.4-1.6 1.2-1.3 2-2 1-1 1.3-1.1 2.3-2 4.9-3.8 1.5-1.2 1.4-1.3 1.1-1.4 1-1.4.3-1 .3-1 .7-2.8.4-1.5.7-1.8 1-1.8 1.2-1.8 1.3-1.9 1.3-1.7 2.5-3.3 2.3-2.7 20.7-8.4 23.2-9.5 4.1-1.6 2-.8 2.1-.7 2-.7 2.1-.6 2.1-.4 2-.3 2-.1h1.9l1.8.2 2 .2 1.8.3 4.8 1 5.3.7 4.3.8 6.8 1.3 24.2 5 16 3.2 6.3 1.3 3.4.8 1.8.5 1.6.4 2.7 1 1 .3 1.7.7 1.7.7 5.2 2.8 1.7.8 1.5.5 1.4.4 1.7.2h1.1l1.1-.2 1.2-.2 1.2-.3.7-.2 1.3-.5 1.1-.6 1.5-1 1-.8 2.1-1.8.8-.7.5-.3.7-.4.5-.2 1-.4h.8l1-.1h1l1 .1 2.6.4 1.5.1 1.4.1h3.4l1.6-.2 1.6-.1 9-1.3 3.2-.4"/></defs><g clip-path="url(#pdd8debc2a1)"><use xlink:href="#m46c5fc79d3" y="271.6" fill="#0c1321" stroke="#0c1321"/></g></g></g></g><defs><clipPath id="pdd8debc2a1"><path d="M7.2 7.2h357.1v257.2H7.2z"/></clipPath></defs></svg>