<svg xmlns="http://www.w3.org/2000/svg" xmlns:xlink="http://www.w3.org/1999/xlink" width="287.1" height="374" viewBox="0 0 215.3 280.5"><defs><style>*{stroke-linejoin:round;stroke-linecap:butt}</style></defs><g id="figure_1"><path id="patch_1" fill="none" d="M0 280.5h215.4V0H0z"/><g id="axes_1"><g id="PatchCollection_1"><defs><path id="m249aaa73dd" stroke="#0c1321" d="m196.8-175.6-3.1 3.3-9.3 10-1.7 2-.8.9-.8 1-.8 1-.7 1-.6 1-.5 1-.4 1.2-.2 1.2-.2 1.2-.2 1.2v1.2l-.2 2.5v2.5l-.4 19v6.8l.2 1v1.2l.4 2.4.1 1.2.5 2.6 1.1 5.6v1.8l.1 1 .2 1 .3 1 .3.8.3.7.4.7.4.7.6 1 .7 1 2.1 3 .7 1 .7 1.2.6 1 .5 1.2.4 1 .3 1.1.2 1.2.2 1.1.2 1.5.1 1.4.1 1.3v3.6l-.1.8-.2 1.2-.1.6-.2.6-.1.5-.2.6-.3.6-.3.5-.6.8-.3.3-.7.4-.6.4-.5.2-.7.3-.6.1-.6.2-.6.1-.8.2h-5.3l-1.2-.2-1.1-.2-2.2-.4-1.4-.4-1.9-.5-1-.2-1.5-.3h-1l-1.2-.2H159l-.9.2-1 .1-.8.3-.6.1-1.5.5-1.5.7-1.2.5-.7.4-.6.3-.8.5-1.6 1-.5.4-.4.2-.3.1h-.7v-.2l-.3-.4-.1-.7v-.8l.1-.9.2-1 .3-1 .3-.7.4-.7.8-1.8.4-.7.4-.7.7-1 .3-.5 1-1.2 1-1.2.8-1 2.8-3 1.5-1.7.8-.9.8-1 .6-.9.5-.9.2-.9v-1.4l-.4-.7-.5-.5-.7-.4-.8-.2h-.7l-.9-.1-2.4-.1h-.8l-1.2-.2-1-.2-.6-.1-1.4-.5h-.6l-.4-.1h-.8l-.9.2-1.4.2-4.4 1-1.3.2-1 .3-.9.2-.9.3-1 .5-1 .4-1 .5-.3.2-.2.3-.3.2-.2.2-.1.3-.1.1-.1.3v1.5l.3.5.2.5.4.8.5.7.4.6 1.7 2.3.9 1.2.5.9.5.7.4.8.2.5.2.6v1.5l-.3.5-.3.5-.3.2-.3.1-.3.2h-.3l-.8.2H133l-1.6-.1H129l-.7.1-1 .2-.7.2-.6.3-.4.2-1.1.7-.4.3-.6.3-.8.3-.9.2-1 .2-2.4.5h-1l-.6.1h-1.5l-1-.2-2-.4-.7-.2-1.2-.1h-1.2l-.8-.2-2.4-.3h-.8l-.2.1h-.1l-.3.5-.3.5-.2.6-.3.7-.7 1.3-.2.4-.2.5v1.7l.6 2.6.3 2.2.1 1v.6l.1.8v.7l-.1.8-.2.5-.2.6-.2.5-.4.7-.4.6-.5.7-1.7 2.2-1.4 2-3.4 4.9-1.5 2-.7.9-.7.9-.8.8-.8.8-.4.4-.5.4-1 .7-2 1.3-.9.6-.5.4L84-31l-.8.6-.7.4-.8.3-1 .5-1 .3-2.6.8-3 .8-4.1-.2-3.8-.3h-3.3l-.4.2-.3.2h-.1l-.2.2-.1.3-.4.7-.2.3-.2.2-.4.2-.3.2-.4.1-1.3.5-.9.4-.4.2-.3.3-.3.3-.3.4-1 1.4-1.7 2.3-.5-3.3-.4-2.6-.3-2.8-.2-1.3v-1.4l-.1-1.3v-2.4l.1-.8.4-2.7v-1.8l-.2-.9-.3-.9-.3-.8-.4-.7-.5-.6-.1-.1-.5-.4-.7-.3-.8-.4-.7-.3-3.6-.9-1-.4-.9-.3-.8-.4-.6-.3-.6-.5-.8-.6-.3-.2-.4-.2-.3-.1-.6-.2h-.5l-2-.1h-.6l-.8-.2-.8-.2-.7-.2-.3-.1-.4-.3-.5-.3-.5-.4-.8-.6-.8-.6-1.2-1-.4-.5-.8-.8-.6-.7-.5-.8-.6-1-.5-.8-.7-1.3-1.5-3-.6-1.2-.3-.7-.6-1.4-.4-1.1-.4-1.1-.7-2.2-1.4-4.6-.6-2.3-.7-2.2-.2-1.2-.3-1-.1-1.2-.1-1.1v-2.4l.1-1.2.1-1.2.2-1.1.5-2.4.7-3.7 1-5 .6-2.3 1.2-5.3.6-3.1.2-1 .2.1h.2l.2.1h.6l.5-.3.3-.2H25l.9.2.7.3h.5l.5-.2h.2v-.2l.2-.1.2-.3.5-.7h.5l.7.2H32l1.3-.1 1.3-.2 1.4-.2 1.4-.2 4.2-.8 7.9-1.6 10.2-2.2 2.5-.5 2.4-.6 1.2-.3 2.1-.6 2.8-.9 3-1 1.4-.4.8-.3.8-.3.8-.4.8-.5.5-.3 1.6-1.3.6-.3.5-.3.4-.2h.3l.3-.1h1l.3.2.7.3.5.2.4.3 1.4 1 1.3 1 .6.5.6.6 1.2 1.1.6.6.7.5.5.4.5.3.9.5.5.2.5.2 1 .2.5.1h4.4l.7-.2h.6l.8-.3 1.8-.6 1-.3 1.6-.7 1.9-.7.7-.3.7-.3.7-.5.7-.4.7-.6 1.2-1.2.7-.5.4-.2.5-.2.6-.2.6-.2h2.5l.7.3.6.2.6.4.6.4.6.4.7.2h1.6l.8-.3.7-.4.6-.6.6-.7 1.3-2.5.6-.8.5-.6.6-.6.5-.6.5-.8.4-.7.9-1.7.4-.7.5-.7.6-.6.8-.7 1-.7.9-.6 2-1 1-.7 1-.6.8-.8.2-.2.6-.8.5-.8.5-.9.8-1.9.5-.9.6-.7.6-.7 1.2-1.2.5-.6.3-.5v-.5l-.2-.5-.5-.4-.7-.5-.8-.4-4-2-1.1-.5-1-.6-1-.7-.4-.5-.8-.8-.6-1-.6-1-.6-1.1-.5-1.2-1-2.3-1.3-3.6-2.3-6.3-4.3-11.9-.1-.3-.3-1-1-3.2-6.5-18.6-.5-1.4-.6-1.5-.3-.7-.3-.7-.4-.6-.4-.6-.4-.6-.6-.4-.6-.4-.7-.2-.7-.2-.8-.1-.8-.1-2-.1-5.7-34.7 1 .3 13.2 3.9 2.6.7 1.2.3 1.3.3 1.2.3 1.2.2h2.3l1.1-.1 1-.3 1-.5 1-.6 1-.6.9-.7 2.8-2.1 1-.7.9-.7.6-.3 1.3-.8.8-.4 1.6-.8 1.8-.8 1.3-.6 2.2-.9 2.4-.9 1.9-.6 1.6-.6 4-1 1-.3 2-.7 1-.2.9-.1h1l1 .4 1 .4 1 .5 1.1.5 1 .6 1.1.7 2.2 1.3 6.3 4.2 3.2 2.1 10.6 6.7 2 1.3.9.7.9.7.8.7.8.7.7.8.5.8.2.5.3 1.1v2.2l-.2 1.2-.2 1.2-.3 1.2-.6 2.4-3.3 12.2-5.2 19.6-.6 2.5-.6 2.4-.2 1.2-.2 1.3-.1 1.2v1.9l.3.8.4 1 .5.9.7.9.8 1 1 .9 1 1 1 .8 1 .9 2.4 2 .2.2"/></defs><g clip-path="url(#pcf6bcda8f2)"><use xlink:href="#m249aaa73dd" y="280.5" fill="#0c1321" stroke="#0c1321"/></g></g></g></g><defs><clipPath id="pcf6bcda8f2"><path d="M7.2 7.2h200.9v266.1H7.2z"/></clipPath></defs></svg>