<svg xmlns="http://www.w3.org/2000/svg" xmlns:xlink="http://www.w3.org/1999/xlink" width="327.3" height="374" viewBox="0 0 245.5 280.5"><defs><style>*{stroke-linejoin:round;stroke-linecap:butt}</style></defs><g id="figure_1"><path id="patch_1" fill="none" d="M0 280.5h245.5V0H0z"/><g id="axes_1"><g id="PatchCollection_1"><defs><path id="m8d66a9378d" stroke="#0c1321" d="m227.8-230.7-.1.3-.2 1-.3 1.7-2 12.6-1.8 11.1-1 5.5-.6 2.6-.7 2.4-.7 2.4-1 2.3-1 2-.8 1.4-3.4 4.9-1.2 1.8-1.1 2-1.1 1.9-1 2-.6 1.4-.6 1.9-.5 2.1-.3 2.3-.2 2.2-.1 2.4v9.3l-.1 2.7-.1 2.5-.2 2.4-.3 2.3-.5 2.3-.8 2.1-1 2-3.4 4.7-.7 1.1-2 3.4-1 1.6-1.2 1.8-1.3 1.6-1.3 1.4-.9 1-.4.3-62.4 98.7-3.4-1.6-4.3-1.9-4.8-1.9-4.8-1.9-7.1-2.6L83-37.5l-24.2-9-13.6-5-9.5-3.7-4.9-2-4.7-1.9-2.3-1-4-2-1.4-.5-.3-.5-.3-1.4-.1-2-.1-2.4v-5.4L18-80l.5-8.4.4-5.6.6-5.6.6-5.3.4-2.6.5-2.5.6-2.3.8-2.3.6-2.2.6-2.3 1-4.7.4-2.5.8-4.9.8-5.7.3-2.7.6-5.4.3-5.4.1-4.5v-2l-.1-2.3-.4-4.7-.5-4.8-.7-4.9-.7-3.8-1-4.6-3.3-14.6-1.1-5-1.4-6.8-.6-3.6v-.7l.3-.5 5.6-8 3.5-5 1.8-2.3 1.9-2.2 1.9-2 1.9-1.8 2-1.5 1.5-.9 1.5-.8 5.7-2.8 2.5-1.1 2-.7 1.6-.6 1.7-.4 2.3-.4 4.7-.7 5-1L78-248l5-1 2.6-.5 2.5-.3 3.1-.4 2-.1H95l5.8.1h4l7.6-.3h1l1.2.1 1 .1 1.4.3 1.3.4 5.6 1.9 1.5.4 2 .4 2.2.2h2l2-.2 2.6-.3 3.6-.8 1.8-.5 2-.5 2-.7 2-.9 1.7-1 1.4-1 .7-.8.4-.6.4-.8.6-1.2.9-2 .7-1.3.6-.9.5-.5.4-.3.3-.1h.2l.2.2.4.8.4 1.3.7 2 .5 1.6.5 1.2.5 1 .8 1.1.9 1 .8.7.6.4.5.2 1 .3 2 .4 3.7.4 5 .5 2.2.4 1.5.3 4.2 1.1 3.1.7 5.8 1.5 5.7 1.2 1.4.4.9.2 1 .4 4 1.9 6.9 3.5 2 1 2.2 1 2.7 1 2.4.8 5.5 1.8.9.2h.5"/></defs><g clip-path="url(#p6e2b809f82)"><use xlink:href="#m8d66a9378d" y="280.5" fill="#0c1321" stroke="#0c1321"/></g></g></g></g><defs><clipPath id="p6e2b809f82"><path d="M7.2 7.2h231.1v266.1H7.2z"/></clipPath></defs></svg>