<svg xmlns="http://www.w3.org/2000/svg" xmlns:xlink="http://www.w3.org/1999/xlink" width="420.6" height="374" viewBox="0 0 315.4 280.5"><defs><style>*{stroke-linejoin:round;stroke-linecap:butt}</style></defs><g id="figure_1"><path id="patch_1" fill="none" d="M0 280.5h315.4V0H0z"/><g id="axes_1"><g id="PatchCollection_1"><defs><path id="mf9b9196279" stroke="#0c1321" d="m180-229.6 2-.1h5.1l7-.2h4l2.7.2 2.5.3 1.6.2 5.4 1.2 3.9.7 4 .9 1.6.2h2.5l1.8-.1 1.2-.2 2.7-.5 1.4-.2h1.3l4.2.4h2.4l1.9-.3 2-.5 1.3-.4.7-.3.9-.4.7-.4.7-.5.6-.8.2-.5v-.6l.1-1.4.3-1 .2-.5.5-.6.6-.6 1.9-1.7 1.6-1.3 2-1.4 1.7-.9 1-.4 1.4-.5 2.5-.7 1-.5.5-.3.1-.2.5-.7 1.2-.9 1.6-.8 1.7-.5 1.5-.2 1.5.1 1.4.4 1 .5 1 .6 1.2 1.2.2.4.4.9.3.8 1 3.7.2.7.5 1.1.5 1 .9 1.4 4.2 5.5 1 1.3 1.2 1.4 1.2 1.3 2.3 2.3 2 2.1 2.3 2.8 1 1.3.6 1.3.1.4.2 1 .1 1.1v.8l-.2 1.4-.2 1-.7 2.2-1.6 4.2-.4 1.4-.3 1.3-.2 2.2v4.3l-.1 1.3-.4 1.4-.7 1.5-4 6-1 1.7-.8 1.6-.7 1.6-1.8 4.6-1 2.2-.8 2-2.8 5.7-1.1 2.5-.5 1.3-.4 1.4-.4 1.5-.1 1-.1 2.1.1 2.2.2 1 .3 1.3.6 2 .9 2 .6 1.5 3.4 6.7 1 1.9.8 2.2.6 1.7.4 1.7.2 1.9v1.9l-.2 1.5-.3 1-.3 1-.4.7-.5 1-1 1-.8.7-.7.4-1.3.7-1.1.4-2 .5-2.9.5-2.9.4-7.6.8-3.6.4-2.6.5-2 .3-1.9.5-1.9.5-1.5.5-1.4.6-1.5.6-1.4.8-.8.5-1.6 1.2-1.3 1.3-.8 1-1 1.5-.7 1-.8 1.5-1.1 2.6-1.2 3.2-.6 2.4-.6 2.4-.4 2.5-.2 2.2v4l.2 2 .3 1.3.5 1.2.6 1.3 1 1.4 1.1 1.3 1.2 1.1.8.6 1.1.7 1.2.6 2.3 1 3.3 1.2 2.3 1 2.4 1.2 6.1 3 6.6 2.9 1.1.6 3.2 2 1.5 1 1.6.6 2.3.6 2.3.3 5.8.3 1.9.2 1 .3 1.8.6 1.1.7 1.3 1.5.9 1.9.6 2 .3 2.1.1 1.7v1l-1 .2-2.3.8-3.9 1.6-2.1 1-4.6 2.2-3.6 1.7-5.3 2.4-4 1.6-4.2 1.6-2.8.9-1.8.5-4.3 1-7.5 1.6-2.2.4-2.5.3-1.8.1h-2.7l-1.6-.2-8.7-1.2-3-.3-2-.1h-5.7l-3.1.3-1.8.2-1.4.3-2.8.7-11.7 3.3-4.7 1.3-7.3 1.8-1.8.6-.3.1-.3-.3-.3-.6-.4-1.2-.4-1.3-.8-3.3-2-9.2-.4-1.5-1-3.6-.5-1.8-1-2.5-1.4-2.4-1-1.6-1.4-1.7-3.5-4.4-2.3-3-1.8-2.7-3.2-5-1-1.4-1-1.2-1.4-1.2-1.5-1.2-2-1.2-1.2-.6-1.3-.5-3.8-1.2-6.3-1.8-2.4-.6-2.1-.3-2.3-.3-1.7-.1h-5l-2.5-.1-2.5-.2-3.4-.3-5.3-.8-2-.2H103l-1.7.3-1.7.4-.8.2-1 .4-1 .4-.8.5-.6.4-1.3 1-1.2 1.3-3.2 4-1.5 1.7-1 .8-1 1-1.2.7-.7.4-1.3.6-.8.3-1.2.3-2.2.5-1.3.1-1 .1h-.7l-1-.1-1.2-.3-1.6-.5-3.5-1.3-1.6-.7-1.5-.7-2.4-1.4-2.1-1.4-2.2-1.8-1.8-1.6-3.5-3.5-1.4-1.3-1.5-1.2-1.5-1-1.4-.8-.7-.3-1.6-.5-1.6-.5-1.3-.2-3.3-.3-3.3-.2L33-83l-2.6-.3-1.5-.3-2.5-.7-1.2-.4-1.6-.7-1.2-.7-.8-.7-.4-.6-.1-.4-.1-.5v-.4l.1-.7.6-1.7 1.9-4.3 1.1-2.7.3-.8-.2-.7.6.2h1l1.3-.2 1.2-.5 1.6-.9 1.5-1.1 1.3-1.2.7-.8.7-1 1.2-1.9.8-1.3 2.3-4.8.7-1.3.7-1 1.4-1.7 1.1-1.2 1.4-1.1 1.3-.9 1.1-.6 1.2-.6 1.2-.5 1.4-.5 2.3-.6 4.5-1 2.1-.6 1.7-.6 1-.4 1.8-.8 5.1-2.9 2.2-1 2.2-1 2-1 2.9-1 3.8-1.4 6-2.2 2.2-1 2-1 3-1.6 3.3-2 6.2-4 5.3-3.4 1.4-1 1.9-1.6.7-.8.5-.6.7-1 .5-.9.1-.5.3-.9.1-1.4v-1.9l-.5-6-.1-1.3v-1.4l.1-1.9.5-3.7v-3l-.2-1.3-.2-1-.6-1.6-1.4-3.2-.4-1.3-.2-.9v-2.2l.2-4.4v-1.4l-.1-2.6-.3-4.3-.3-2.4-.7-2.4-.5-1.3-.8-1.2-1.5-2.2-1-1.3-6.3-7.4-2-2.6-.3-.5v-.2h.1l1-.4 1-.5 1.6-1 2.7-1.8 1.8-1.3 1.5-1.3 1.7-1.5 1.8-1.6 1.4-1.5 1.7-2 1.2-1.4 1.2-1.7.9-1.3.9-1.4.8-1.5.7-1.3 1-2.6 3-7.8.8-1.6.8-1.5 1.2-1.4 1.1-.7 1.1-.4.9-.1h.9l1.4.2 1.4.3.5.2 2 .7 1.5 1 1.3.8 1.2.9 1.1.9 1.6 1.3 1.1 1.2 1.2 1.2 1.7 2 1 1.7.6 1 .3.9.4 1.8v2l-.1 2.1-.5 4.3v2l.1 1.3.5 1.7.5 1 .6.7.7.7 1.9 1.5 1.2 1 2.4 1.6 1.6 1 1.3.6 1.3.7 1.4.6 2.4.7 1.9.4h3.1l1.2-.4 1.6-.7 1.8-1.4 1-.9.9-1 1.4-1.8.8-1.4.3-.5v-.3"/></defs><g clip-path="url(#p2b3db7c25b)"><use xlink:href="#mf9b9196279" y="280.5" fill="#0c1321" stroke="#0c1321"/></g></g></g></g><defs><clipPath id="p2b3db7c25b"><path d="M7.2 7.2h301v266.1H7.2z"/></clipPath></defs></svg>