<svg xmlns="http://www.w3.org/2000/svg" xmlns:xlink="http://www.w3.org/1999/xlink" width="208.7" height="374" viewBox="0 0 156.5 280.5"><defs><style>*{stroke-linejoin:round;stroke-linecap:butt}</style></defs><g id="figure_1"><path id="patch_1" fill="none" d="M0 280.5h156.5V0H0z"/><g id="axes_1"><g id="PatchCollection_1"><defs><path id="me88b1347c4" stroke="#0c1321" d="M33.9-261.2v.3l.1.9.4 1.4.4 1.7.7 2 .7 2 1 2 1 1.9 1 1.9 1.3 1.7 1.3 1.7 1.7 1.7 1.9 1.6 2 1.4 2.1 1.1 2 .9 2 .7 1.8.5 3.9 1 2.8.5 5.5 1 3.6.7 2.5.5 3 .8 2.5.8 1.4.5 3 1 3.1 1.5 1.5.8 2.4 1.2 2 1.2 3.4 2 3 2.2 2.5 1.7 4.4 3.4 11.3 9 9.4 7.3 1 1 1.6 1.4 1.3 1.5.8 1.4.3 1v1l-.4 1.4-.6 1.4-1.2 1.8-1.2 1.4-3.2 3.7-2 2.5-2.8 3-1 1.2-1.1 1.5-1 1.4-1.4 2-.5 1-.8 1.5-.8 2.1-.5 1.8-.1 1v.8l.2 1 .2 1 .5 1.8.7 2.2 1.3 3.4 3 7 1 2.4 3 9 2 5.5.7 2.3.4 1.8.2 1.3v1.6l-.6 4.3v1.2l.4 1.3.1.5.9 1.8.5 1 3.3 5.8 1.5 2.6 5 10 1.7 3.5 1.2 2.8 1.2 2.8.5 1.5.4 1.3.3 1.2.3 1.7v3.2l-.5 1.2-.9 1.4-.8.9-1 .8-1.2.9-1.4.8L135-68l-7.6 3.7L123-62l-3 1.7-2.3 1.5-2.5 1.7-1.3 1-2.9 2.4-2.4 2.2-1.4 1.4-1.4 1.5-2 2.4-1.4 1.8-1.4 1.9-1 1.6-1 1.7-1.7 3-1.7 3.6-1.8 4-1.3 3.4-.7 2.3-.6 1.7-.5 1.9h-.2l-.9-.2-1.4-.4-1.9-.6-4.2-1.5-1-.3-.9-.2-1-.1-1.3-.1h-2.4l-1-.1-1-.2-1.2-.4-1.1-.5-.6-.4-.6-.4-1.2-.9-1-1-.6-.6-.3-.5-.4-.5-.1-.5-.3-.9-.1-.5v-6.5l.2-.9.2-.5.3-.6.5-.7.5-.6.9-.9L70-42l.7-.6.5-.7.7-1 .3-.8.2-.8.2-1.2v-3L72-53l-1-4.9-.3-2-.4-1.6-.7-3.6-.6-2.4L68-71l-.8-2.1-.6-1.5-.6-1.5-.6-1.3-1-1.9L63-81l-.8-.9-.8-.7-1-.5-1-.3-1.3-.1h-1l-4.3 1h-1.2l-1.1.2h-1.2l-1.2-.2-.7-.1-.7-.2-.7-.4-.6-.3-.9-.7-.8-1-1.1-1.4-1-1.6-.9-1.6-.4-1.2-.5-1.4-.4-2.3-.3-1.4v-1.4L39-99l.1-1 .4-1.2.3-.5 1-1 1.4-.9 3-1.6 1.6-1 1.3-1 1-1.2.5-1.5v-1.7l-.3-1.9-.5-2-.8-2-2.1-5-2-4.4-1-2.2-.8-2-1.5-4.3-6.2-18.4-1.7-4.3-1.5-3.4-.7-1.8-.1-.6-.2-1-.1-1.6v-4.8l-.1-4.6-.4-4.9-.7-7.5-.6-5-.6-4.6-.5-5.1-.6-5.3-.4-2.6-.4-2.6-.5-2.5-.7-2.4-.8-2.2-1-2-.4-.5-.9-1.1-2-2.4-1.4-1.8-1.1-1.6-.7-1.1-1.2-2-.9-2-.4-1.5-.2-1.6v-2.2l.2-2.2.3-2.3.4-2.3.6-2.4.8-2.3 1.1-2.1 1.5-2 1.9-1.5 2.2-1.2 2.4-1 2.4-.7 2.3-.4 2-.3 1.5-.1h.6"/></defs><g clip-path="url(#pdc7e4a74ac)"><use xlink:href="#me88b1347c4" y="280.5" fill="#0c1321" stroke="#0c1321"/></g></g></g></g><defs><clipPath id="pdc7e4a74ac"><path d="M7.2 7.2h142.1v266.1H7.2z"/></clipPath></defs></svg>