<svg xmlns="http://www.w3.org/2000/svg" xmlns:xlink="http://www.w3.org/1999/xlink" width="345.7" height="374" viewBox="0 0 259.3 280.5"><defs><style>*{stroke-linejoin:round;stroke-linecap:butt}</style></defs><g id="figure_1"><path id="patch_1" fill="none" d="M0 280.5h259.3V0H0z"/><g id="axes_1"><g id="PatchCollection_1"><defs><path id="md42435eaad" stroke="#0c1321" d="m200.6-239.8 6 3.7 2.6 1.5 4.7 2.5 1.8 1 1.3 1 1.2 1.2.6.6 1.1 1.3.6.9 1.2 1.7 1 1.6 3.1 5 1 1.4 1.5 2 1.4 1.6.8.8 1.3 1.2.6.5 1.6 1.1 1.6 1 1 .7 4.3 2.3v.4l-.6.9-1.3 1.6-1.5 1.6-2.5 2.7-7 6.8-3.2 3.2-3 3.2-1.4 1.6-1.6 2-1.5 2-1.5 2.5-1.4 2.6-1.2 2.4-1 2.6-1.8 4.5-.8 2.3-1.6 4.9-5.6 18.5-5.1 16.4-32.6 103.2h-.5l-.6-.3-1.2-.7-1.4-1-2.3-1.8-2-1.7-1-1-1.3-1.4-1.2-1.3-1-1.4-1.6-2.1-4.6-7-1.3-1.8-1.3-1.7-1.7-2-1-1.1-1.1-1-1.1-1-1.3-1-1.6-1.2-1-.6-1.3-.7-2.2-1-14.2-6.3-2.8-1-2.3-.9-1.4-.4-1.6-.4-2.7-.6-4-.7-2.7-.3-3.2-.4-8.2-.6-1-.1-1.3-.3-1-.3-.5-.2-.6-.3-.6-.4-.8-.6-2.1-1.9-1-.7-1.3-.6-.8-.3-.6-.1-1-.2H73l-1.7.2-4.4.6.2-.6-.6-.8-1-.8-3.2-1.5-1.7-1-1.4-1.3-1.4-1.5-4-5.1-2.9-4.2-1-1.7-1-1.6-.7-1.5-.6-1.3-1.9-4.9-1-2.3-.6-1.2-.5-.9-.4-.7-.9-1.1-.7-.7-.8-.8-.7-.6-.6-.5-1.7-1-3.8-1.8-1.7-1-1-.8-.8-.5-.7-.8-.5-.6-.3-.4-.4-.7-.3-.7-.2-1-.2-1v-3.2l-.1-1.5-.2-1-.2-.8-.6-1.9-.7-1.6-1.5-2.6-1-1.8-2.2-3.3-1-1.7-.7-1.6-.6-1.4-.3-1-.4-1.6v-2.1l.1-1.4.3-1 .5-1.3.4-.7.4-.7.3-.4.8-1 .4-.4 1-.9 1.4-1 3.7-2.3 1.2-1 .7-.5.9-1 .7-.9.4-.6.3-.7.2-.6.3-2v-1.6l-.3-1.6-.5-2.2-.5-1.6-.5-1.6-1.1-2.9-1.8-4.3-.5-1.5-.2-.9v-.2h.6l.4-.2 1.3-.8 1.4-1 1.3-1.2 1.2-1.3 1.2-1.6 1-1.8 1.4-3.2.6-.8.6-.8.8-.6.8-.5.4-.2.7-.2.7-.1h1.1l3.9.6 1.4.1H51l2.3-.3 2.2-.4 2-.5 2-.5 3.6-1.2 7.2-2.6L73-200l5.2-2.6 3.2-1.3 1.4-.4 1.4-.5 1.5-.3.7-.1 1-.1h.8l1.2.1 1 .2 1.2.4 2.9 1.2 1 .4 1.6.4 3.2.4 4.5.3h2.7l1.3-.2 1-.3 1.2-.4 1-.4 1.5-.7 1-.6 1.2-1 2-1.6 2.7-2.5 1.5-1.2 7.6-5.2 1.7-1.3 1-.9 1.3-1.4.8-1 .5-.5.5-1 .2-.5.2-.8.2-1.6.2-1 .4-1 .4-.5.3-.4.4-.3.6-.4 3.3-2 1.5-1 3.2-2.8 2.7-2.2 2-1.7 3.3-3.2 5.4-4.8 2.8-2.6 3-3.1 8.6-9.2 3.7 4.1 2 2 2.3 2.2 2.3 2 2 1.5 6.6 4.6 7.6 5"/></defs><g clip-path="url(#p5ec9697e0a)"><use xlink:href="#md42435eaad" y="280.5" fill="#0c1321" stroke="#0c1321"/></g></g></g></g><defs><clipPath id="p5ec9697e0a"><path d="M7.2 7.2h244.9v266.1H7.2z"/></clipPath></defs></svg>