<svg xmlns="http://www.w3.org/2000/svg" xmlns:xlink="http://www.w3.org/1999/xlink" width="368.9" height="374" viewBox="0 0 276.7 280.5"><defs><style>*{stroke-linejoin:round;stroke-linecap:butt}</style></defs><g id="figure_1"><path id="patch_1" fill="none" d="M0 280.5h276.7V0H0z"/><g id="axes_1"><g id="PatchCollection_1"><defs><path id="md1d8e74e86" stroke="#0c1321" d="m239.5-254.6.1.1.3.3.2.5.2.7v.7l-.2.7-.6.8-.6.5-.7.5-2.7 1.7-1.1.7-.6.5-.7.6-.8.9-.8 1.3-.6 1.5-1.2 3.5-1 2.7-.3 1-.2 1v2l.3.7.4.4.8.4 1 .2 1.5.2 1 .1.3.1.4.2.6.6.3.6v1.9l-.3.7-.4.8-.7 1-.8.8-.8.7-1.4 1.2-1.6 1-1.2.7-1.2.5-.8.3-2.6.4-.6.2-.8.4-.9.4-.4.3-.6.6-.7.8-.3.4-.6.8-.8 1.6-.6 1.6-.8 2.4-.5 1.2-.8 1.4-2.2 3.1-.7 1.1-.3.6-.3.5-.3 1-.2 1.3v1.1l.2.5.5.5h.3l.5.2h.5l1.1-.2.9-.2 1.2-.5 5.3-2.5 1.3-.5 1.5-.6 2.5-.7 5-1.2 3-.8 2.8-.9 1-.3.4-.2h.1v1l-.1.8-.4 1.3-1 3.5-.7 2.2-1 4.1-.4 2.2-.1 1.5v1.9l.2 1.8.5 2 .6 1.8.6 1.7.8 1.5.8 1.3 1.2 1.6 1.5 1.7 4.3 4.7 2.1 2.5 1 1.2.7 1 .6 1.2.3.6.5 1.4.5 1.4.3 1.2.3 1.3.1 1 .1 1.6v5.8l.2 1.4.3 1.3.5 1.2.8 2 3 5.7.6 1.4.2 1-.3 1-.4.4-1 .4-1.3.3h-1.1l-1.2.1H251l-1.5-.3-1.7-.6-3.6-1.4-1.1-.4-1.2-.3-1.6-.3-3.4-.4-1.6-.2-1.2-.3-3.8-1-.5-.2H228l-.5.3-.3.3-.3.6-.1.8v1.4l.2 1 .2.9.4 1.2.7 1.8 1 2.1 3.1 6 6.8 13.4 2.4 4.4 1.3 2.4 4.2 6.9.6 1 1 2 .6 1.4.5 1.4.2 1 .1 1v1.8l-.4 1.6-.4 1-.5.9-.7.8-.7.7-1 .6-3.9 2.3L240-75l-1.5.9-2 1.2-2.7 1.6-1.4.8-2.1.8-2.4.7-2.5.4-1 .1-6.6.7-2.2.3-2.2.4-2.1.6-2 .6-2.4.8-1 .4-.2.2-1-.5-2.8-1.6-4.9-2.8-2-1.2-.8-.6-1.6-1.2-1.3-1-1.2-1.2-3.4-3.4-1-.8-.8-.8-1.1-.8-1.5-1-1.6-1.1-1.7-1-1.5-.7-1-.3-1.4-.3h-1.1l-.7.4-.2.3.1.4.4.4 1 .8.2.4v.6l-.3.4-.7.6-.6.5-1.5.8-1 .6-1 .4-1 .1h-1.2l-1.3-.3-1.4-.4-1.2-.7-1.2-.7-2.1-1.6-.7-.4-1.2-.5-1.5-.5-1-.2h-3.5l-.8.3-.7.3-.8.5-.5.4-.6.6-.7 1-.6 1-.6 1-.6 1.4-.5 1.5-.3 1.3-1 4.4-.7 2.5-.7 1.5-.7 1.6-1 1.8-3.4 6.2-2.3 4.3-.6 1.3-.4 1-.2.6v-.2l-.2-.1-.4-.2-.7-.2-.9-.2H131l-1.4.2-1.3.2-2.6.5-1.8.5-2.3.9-3.5 1.4-5.5 2.5-2.9 1.2-2.8.9-1.3.3-2.3.5-1.6.1h-2.4l-1.5-.3-1.4-.4-.7-.3-.7-.3-.6-.6-.5-.5-.5-.8-1-1.5-.6-1-.4-.7-.5-.5-.3-.1-.4-.1h-.8l-.4.1-.4.1-.7.5-.7.7-1.4 1.6-1 1.2-5.7 7.4-3.3 4.3-3.7 4.7-1 1.3-.6 1.2-.4 1.3.1 1.3.4 1 .5.9.4.4.4.2-.4.2h-.7l-1-.3-1.7-.6-1.8-.7-3.2-1.7-1.2-.6-1.2-.5-1.3-.3-1.1-.1-2.3-.1-1-.1-1-.3-1.1-.6-1-.7-1-1-1-1-.8-1.1-.8-1.2-.8-1.2-.6-1.2-.7-1.2-.4-1.2-.3-.8-.2-.8-.2-2.2-.1-.5-.3-.3-.3-.2h-1l-.6.3-2.1.9-1.3.4-5 1.1-6 1.5-1.8.3H23l-1.5-.2-.5-.1-.8-.3-.5-.3-.5-.3v-.4l.2-.5 5.4-11 2.6-5.3L30-59l1-2 2-3.4 1.3-2 .8-1.3 1.5-2 1-1.3 1-1.2 1.5-1.3 1.5-1.2 1.6-1 1.7-1 2-1.2 2-1 2-1 2-.8 3.6-1.3 1.6-.7 1-.5 1.5-1.1 1.6-1.3 1.6-1.4 1.6-1.5 1.4-1.6 1.3-1.7 1-1.6 1-1.7 1.3-3.5.7-1.5 1-1.6.7-1.1.8-1.1 2-2.4 5.6-6.2 7.5-8.5 3.2-3.5 2.3-2.7 1.2-1.5.6-.9 4-5.8.6-.7.1-.4h.1l.4-.3.5-.2 2.5-.3.8-.2.8-.3.9-.5.7-.5.4-.4 1.3-1.3 1-1 .7-1.2.8-1.1.9-1.5.9-1.4.5-.7.7-.8 1.3-1.4 1.4-1.3 1.5-1.2 1.5-1.2 1.3-.7.9-.4 1-.4 1.6-.4 2.3-.4 2-.3 2-.1h1.5l1.3.1 2 .2 1.3.1h1l1.2-.3 1-.3 1.3-.6 1-.6 1.2-.7 1.1-.8.6-.5.6-.6.5-.8.3-.5.3-1.4v-1.6l-.5-3.5v-2.6l.2-.8.6-1.9.3-1 .1-1v-1.5l-.3-.9-.3-1-.6-1.3-.7-1.3-.6-.8-2.5-3.4-1-1.4-1.2-1.3-4-4.2-1-1.4-.8-1.1-.4-.6-.6-1.6-.4-1-.2-.8-.2-1v-1l.2-.5.3-.4.3-.3.4-.4.7-.5.8-.4 3.5-1.3 3.3-1.5 3-1.4 6-3.2 6.2-3.1 2.1-1.2.9-.6.7-.6.6-.7.4-.8.3-.8v-1.3l-.2-.5-.2-.7-.5-1-.6-.9-2.2-2.7-1-1.4-.6-1-.8-1.6-.7-1.7-.6-2-.6-3.2-.3-1.4v-.3l.4-.5 1-.4.5-.2 1.2-.3 1-.1 1-.1h2l1.1.1 1.6.3 2.5.7.8.1 1 .1h1l.8-.1.8-.3 1-.5 1-.9.8-1 1.6-2.3.2-.4.7-.6.4-.4 4.4-3.2 4.2-3.2 1.2-.9 1.3-.7 5-2.2 4-1.9 2.3-1 3-1.1 2.3-.7 1.6-.4.8-.1 2.8-.3 4.4-.2h1.2l3 .2h2.2l2-.6.7-.1h.8l.9.4 2 1 .9.4 3 1 .8.4 1.4.8.4.2 2.8.7.8.4.4.3.4.4.1.3v.3"/></defs><g clip-path="url(#p27af936778)"><use xlink:href="#md1d8e74e86" y="280.5" fill="#0c1321" stroke="#0c1321"/></g></g></g></g><defs><clipPath id="p27af936778"><path d="M7.2 7.2h262.3v266.1H7.2z"/></clipPath></defs></svg>