<svg xmlns="http://www.w3.org/2000/svg" xmlns:xlink="http://www.w3.org/1999/xlink" width="495.4" height="345.5" viewBox="0 0 371.5 259.1"><defs><style>*{stroke-linejoin:round;stroke-linecap:butt}</style></defs><g id="figure_1"><path id="patch_1" fill="none" d="M0 259.1h371.5V0H0z"/><g id="axes_1"><g id="PatchCollection_1"><defs><path id="me71124c9bf" stroke="#0c1321" d="m301.6-143.4.2.2.8.6 3.4 2.2 1.6 1.2 1 .8 7 6.1 5.7 4.8 1.4 1.4 1.6 1.7 1.1 1.4 2 3 1.6 2.4 1 1.6 1 2 .6 1.4.5 1.4.5 1.5.4 1.4.4 1.8v1.3l.1 1v1.4l-.4 2.4v2.4l.1 1.1.2 1.2.4 1.6.4 1.5.6 1.5.6 1.4 1.3 2.3.9 1.6 1 1.5 1 1.4 2 2.3 4.8 5.3.8 1 .4.7.4 1v.5l-7.4 2.1-2 .6-1.2.6-1 .5-.7.6-.3.3-.3.4-.5.9-.2.5-.1.5-.2 1.2v1.6l.3 1.2.4 1.2.6 1.2.7 1 .4.5 1 1 2.1 2 .4.5.7 1.2.6 1.5.5 1.5.5 2 .2 1v1.6l.9 3.6.2 1.5v1.2l-.1.5-.3.9-.2.5-.4.7-.4.4-.8 1-1 .7-1.7 1.4-2 1.5-.7.6-.6.6-.3.5-.9 1.4-.5.7-.6.7-1.7 1.7-.6.8-.2.5-.1.4.1.4.2.2h.2l-1.6 2-.4.4-.5.3-2.4 1.1-.9.3h-2.1l-.5-.5-6.2-4.9-9.6-7.8-3.6-2.8-3.7-2.5-3.2-2-2.2-1.3-2.1-1.2-2.4-1.2-2-1-2-.8-1.9-.6-2.3-.6-1.5-.3-2.6-.3-2.3-.1h-6.8l-5.4.6-2.2.1h-3.7l-4.7-.3-1.7-.1H248l-2.3.3-1.7.4-1.1.4-.8.2-1.3.7-1 .6-1.3 1.1-1.9 1.9-1 .8-.6.4-1 .6-.6.2-1 .2h-.9l-.8-.3-.6-.3-.8-.5-1-1-1-1-2.5-3-1.2-1.1-1.3-1.1-2.4-1.7-2-1.3-4.7-2.9-1.9-1.3-2.5-1.8-1.3-1.3-.7-.7-1-1.2-.3-.4-.8-1.4-.5-1.3-.3-1-.3-1.7-.2-.5-.3-.6-.4-.5-.5-.4-.5-.4-1.3-.8-.5-.3-1.1-.5-4.2-1.2-1-.2H191l-1.3.3-1.7.4-1.4.4-1.5.6-.9.3-1.5.8-1.3.8-3.6 2.2-1.3.7-1 .5-1.3.5-1.1.4-.9.2-1.3.2h-3.7l-1.2-.2-2.5-.3-5-1-3.3-.5-3-.4h-2.6l-2.5-.1h-2l-3.8.2-1.8.2-1.7.2-3.9.7-3 .7-1.5.4-2.1.8-1.9 1-.8.4-1.6 1.2-.4.3-.6.6-.5.6-.3.3v.3l-.4.3h-.3l-1 .2h-1l-1.5-.1-1.2-.4-.7-.3-1.3-.7-1.4-1.1-4.9-4.3-1.5-1.2-1.5-1.1-1.5-1-1.8-1-1.7-.4-1.2-.2h-1l-1 .3-1.2.3-10 3.3-6 1.7-4.4 1.4-2 .7-3.4.8-6.9 1.7-1.4.1-1-.1-1-.4-1.2-.5-1-.6-1-.7-1.8-1.2-3.7-3-2.4-1.7-3-1.9-.8-.5h-.4l.2-.5.3-1.5.2-2.5v-2.3l-.2-1.5-.2-1.5-.7-2.6-.6-2.2-.7-1.8-3.1-7.4-.5-1.4-.3-1.3v-2l.2-2.4v-1.4l-.1-1.8-.3-1.7-.5-1.9-.8-3.2-1.4-6-1-4.2-2.5-9.3-.4-1.8v-2.1l.2-1 .4-1.2.7-1.5 1.1-1.5 1.4-1.5 2.6-2.7 1-1.3.8-1.3.4-1.4v-.8l-.1-1-.2-.6-.3-.7-.4-.7-.4-.8-.5-.5-.5-.6-1-1-.9-.6-.6-.4-1.6-.8-1.9-.7-2.3-.5-4-.8-1.2-.4-.3-.1-.2-.1v-.9l.2-.9.6-1.4.5-.9.7-1.2.8-1.1 3-4 1.1-1.5.8-1.7.3-1 .5-2 .6-3.4.3-1 .7-1.2 1-1 1.2-.5 1-.2h1.4l1.8.2 4.6 1 3.2.8h1.3l.5-.2.8-.5.6-.7.4-.9.3-.7.2-.7.2-.7.3-1.5.4-3.8.2-1.4.4-1.4.7-1 .6-.7.5-.3 1.1-.5 2.2-.8.8-.4 1-.5 1-.7 1.5-1.3 1.9-1.8 1.3-1.4 3.6-3.7.9-.9.2.1.6-.3.5-.5 3.7-3.2 1.2-1.1.7-.6.7-.4.9-.5.8-.3h.6l.5.1.5.3 1.7 1.6.8.6 1 .4.6.1h1.7l.8-.4.8-.7.7-.8.6-1.2.4-.7.3-1 .4-1.3.6-2.3.1-.8.2-3 .2-1 .3-.8.5-.8.7-1 .6-.5.7-.6.9-.6.8-.5.9-.5 2-.9 5.8-2.1 1.6-.8 1.4-.8.8-.6 1.1-1 1.7-1.6 1.2-1.4.6-1 .1-.2v-.2l.6.4 1.1 1.3 1.6 1.8 4.1 5.2 1.5 1.8 1.2 1.3 1.2 1.4 1.1 1 1.1 1 .4.3 1.6 1 .7.2 1 .3.8.2 1 .1h7l1.3.3 1.6.6 1.5 1 3.6 2.5 1.2.7 1 .5 1 .4 1.9.3h.7l1.6-.4 1.7-.8 1.5-1.2 1.3-1.4 1-1.4 2.7-4.6.5-.8 1.6-2.2 1.8-2.2 1.5-1.8 1.1-1 1.1-1 1.5-1.2 1.3-.9 1.3-.7 1.7-.6.6-.3 3-.8 3.4-1.1 4.8-1.1 2.8-.9.8-.2h.9l1.1.2 1 .4 1 .6.5.5.4.7.2.5.3 1 .3 2.5.8 7 .8 5.9.6 6.3.2 1.8.2 1.5.6 2.3.5 1.7.9 2.5 1 2.3 1.3 2.3 1.8 2.9.7 1 .5.6.9.8.9.8.8.7.7.4 1.6.8 1.7.7 3.6 1.2 1.3.5 1 .5.3.3.4.4.3.4.3.6.4.8.3 1 .6 2 1 4 .5 1.4.4 1 .8 1.4 1 1.6.8 1 1.2 1.2.7.6.7.5.7.4.8.4 1.6.6 4.3 1.3 3.3 1.3 1.4.7 1.4.8 2.2 1.2 2.6 1.8 2.4 1.7 9.2 6.8 3.4 2.5 3.2 2.2 1.1.7 1.3.8 3.5 1.7 1.1.5 1.2.4 1.8.4 3.4.4 1.2.3 1 .3.8.6.4.6.1.4v1.3l-.4.6-1.7 2.5-.2.4-.2.4v.9l.3.5.6.6.8.3 1 .4h2.8l1-.3 1.4-.6 1.3-.6 1.4-.8 2-1.2 6-4 1.5-.8.3-.1"/></defs><g clip-path="url(#pc958e3ae21)"><use xlink:href="#me71124c9bf" y="259.1" fill="#0c1321" stroke="#0c1321"/></g></g></g></g><defs><clipPath id="pc958e3ae21"><path d="M7.2 7.2h357.1v244.7H7.2z"/></clipPath></defs></svg>