<svg xmlns="http://www.w3.org/2000/svg" xmlns:xlink="http://www.w3.org/1999/xlink" width="342.5" height="374" viewBox="0 0 256.8 280.5"><defs><style>*{stroke-linejoin:round;stroke-linecap:butt}</style></defs><g id="figure_1"><path id="patch_1" fill="none" d="M0 280.5h256.8V0H0z"/><g id="axes_1"><g id="PatchCollection_1"><defs><path id="m18f4dba186" stroke="#0c1321" d="m147-261.2.3.4.4 1.1.6 2 .4 1.8.2 1.4.6 3.8.5 2.3.6 2.4 1.8 6.2.5 2 .1 1 .2 1.6.2 2.2v3l-.2 1.8-.3 2.4-1 4.6-.4 2.4-.3 2.9-.2 3.5v1.5l.2 1.4.1 1 .3 1 .5 1.5.7 1.4.9 1.4.9 1.2 1.7 2 1 1 1.1 1 .8.7 1.5 1 1.7.6 1.4.3h3l1.8-.4 1.6-.3 2-.5 10.6-3 3.7-1 1.7-.3 1-.2 1-.1h1l.2.3.6.5 1.1 1.3 1.5 1.7 1.4 2.1 1.4 2.3.5.8.7 1.8.5 1.7.6 2.3.2 1.4.5 4.8.4 2.4.5 2.4.6 2.8 1.8 6 .6 1.6.6 1.6 1 1.7.7 1.2.3.2.6.5.5.2.8.2h2.4l1-.3 3-1 4.8-1.5 1.4-.6 4.6-2 1.6-.7 1.5-.5 1.5-.4h1.9l.7.3 1 .5 1 1 .5.5.2.5.5 1 .3.8.4 1.7v1.7l-.2 1.7-.4 1.6-.7 2.4-1 2.2-2.2 4.8-.8 2.1-.4 1.5-.2 1-.1 2 .1 1.8.4 2.4.9 3.7v1.2l-.2.7-.3 1.6-.4 2.3-.3 2.6-.2 2.8-.1 2.8v2.7l.1.8.4 2.6.5 3.1 1.2 8 1.4 7.4.5 2 .4 1.5.3.8.4 1.1 1.7 3 .5 1.2.2 1v1l-.2 1.4-.5 1.6-.7 1.6-.8 1.8-1.1 1.8-1.6 2.5-3.6 5.4-1.5 2.5-1 1.7-.5 1.2-.4 1-.4 1-1.7 6.6-.5 1.3-.4 1-1 2.2-2.1 3.5-1.6 2.7-1.6 2.4-1.2 1.6-1.8 2-2 2-2.1 1.9-1.9 1.5-1.6 1.3-2.1 1.5-2.4 1.7-1.8 1.1-.6.5-1.4.6-1.7.6-2 .3H193l-1.8-.3-1.2-.6-1-.7-.8-.7-.8-.9-.7-1-.8-1-2.5-4.4-.7-1-.6-.7-1-.8-1-.6-1-.2-.9-.2h-2.5l-2 .3-2 .4-1.9.7-6.2 2.3-2.4.8-1.6.4-1.6.4-2 .4-1.3.2-2.8.3-.5.1-1 .2-1.1.5-1 .7-.5.4-.7.8-.6 1-1.2 2.3-.4.6-.6.8-.8.5-1.2.6-1.1.2-1.2.1h-.7l-1.5-.2-1-.2-1.9-.5-2-.7-2-.8-1.6-.7-2-1-1.6-.9-1.9-1-4.3-2.8-1.5-.9-.8-.3-.8-.4-1.7-.5-1.9-.4-1.6-.1H100l-2.5-.1-3.5-.3-3-.4L79.4-33l-8-1-2.2-.4-1.2-.3-2.4-.7-2.4-.7-4.8-1.8-4.8-2-15.1-6.2-5.3-2.2-8.2-3.2-6.8-2.5v-.3l.3-.6 1-1.6 1-1.7 1-1.3 1.8-2.2 1.2-1.5 2-2.1 2.8-2.9L31-70l1.2-1 1.3-1 2.5-1.8 2-1.3 1.2-.7 6.4-3.6 1-.6.9-.6 1-.9.8-.7.4-.6.4-.7.3-.6 1-3 1.6-3.4.8-2.2.6-2 .4-1.6.2-1 .2-1.5.6-6 .4-3.6 1-6.3 1-6.3.6-3 .4-1.7.5-1.7.7-2.3 1.2-2.9 3.2-8 .4-1.2.4-1.5.2-1.4.1-.8.1-2.2v-2l-.3-4.5v-2.9l.3-2.6.8-4.8v-1l.1-1.5v-1.7l.2-1.3.2-1 .1-.3.4-.6.4-.4.3-.2.8-.3 1.6-.4 1-.2h6l2.5.3h1.3l.6-.1 1-.4.5-.3.4-.2 1-1 .8-1.4.4-1.1.3-1.4.1-1.2v-3.2l-.1-1-.1-.8-.6-2.2-1.7-5.4-.5-1.9-.8-4.7-.5-2-.5-1.2-.4-1-.5-.8-.4-.2v-.3l.1-.3.7-1.3.8-1.2.7-1 .7-.6 1-.8.8-.6.7-.4.9-.4.8-.3.8-.2h.9l1.5-.2 4 .1h1.3l1.4-.3.8-.2 1-.4 1-.5 1-.6.8-1 .8-1 3.4-5 2.8-4.5 1-1.8 1-1.7.8-1.9.7-1.9.3-1.6.1-1.8v-1.5l.2-1.6.3-1 .4-1 .8-1.2 1-1.1.9-1 2-1.9 1.8-1.4 2.7-2 3-1.7 2.5-1.4 1.6-.7 1.5-.7 1-.4 3.1-1 1.7-.7 1.5-.8 2-1 4.6-2.5.5-.3h.5"/></defs><g clip-path="url(#p578b56d7cb)"><use xlink:href="#m18f4dba186" y="280.5" fill="#0c1321" stroke="#0c1321"/></g></g></g></g><defs><clipPath id="p578b56d7cb"><path d="M7.2 7.2h242.4v266.1H7.2z"/></clipPath></defs></svg>