<svg xmlns="http://www.w3.org/2000/svg" xmlns:xlink="http://www.w3.org/1999/xlink" width="440.2" height="374" viewBox="0 0 330.1 280.5"><defs><style>*{stroke-linejoin:round;stroke-linecap:butt}</style></defs><g id="figure_1"><path id="patch_1" fill="none" d="M0 280.5h330.1V0H0z"/><g id="axes_1"><g id="PatchCollection_1"><defs><path id="m6332601b73" stroke="#0c1321" d="m301.6-227.1.1.6.5 2 2 7.8 3 10.8.7 2.7.5 2.4.2 2v1.8l-.2 1-.6 1.7-1.6 3.2-1 2.3-1 2.8-.5 1.3-.3 1.3-.2 2.2v9.7l-.2 1.5-.3 1-.8 2-.6 1.2-1 1.3-2.3 2.5-1.8 1.8-1.3 1.3-.8 1.3-1 2.1-.4.7-.7 1-.7.5-1.3.6-.6.1-2.8.3-1.8.3-2 .6-1.7 1-1 .9-1.1 1.3-.8 1.6-.2.6-.4 2.5.2 2.8.6 3 .8 3.3 1 3.3 1.1 3.3 3.7 10.2 1.1 3.4 1 3.2.7 3.2.5 3v2.8l-.7 2.4-1.1 1.7-1.7 1.5-2.4 1.3-2.9 1-3.1.8-3.3.6-3.5.5-3.6.4-7.3.7-18.4 1.6-7.1.8-3.4.5-3.3.6-3 .7-2.9 1-2.3 1.3-1.9 1.7-1 2-.7 2.4-.3 2.6-.3 8.4-.3 2.8-.6 2.6-1 2.4-1.6 2.3-2.2 2-2.7 1.7-2.9 1.6-3 1.5-10 4.5-3.2 1.6-3.1 1.7-2.9 2-2.5 2-2 2.6-1.3 2.8-.8 3-.5 3-.7 5.3-.3 1.6-.2.4h-.1l-.3.4-.5.2-.4.1-.9.1-1.2-.2-.7-.2-.7-.3-.7-.5-.9-.8-2.8-3-.8-.9-1.2-1-1.3-.8-.7-.3-.6-.2-1.6-.1-3.6.3h-3l-10.2-.8-1.6-.2-4.3-.8-1.3-.2h-.8l-1 .2-1.3.6-.8.5-2.7 2.2-.8.6-1.1.6-1 .3-.8.3-1.4.2-7.6.5-2.2.1H109l-2.5-.2-2.6-.4-1.4-.3-9.6-2.6-1.8-.6-2.9-1-2.7-1.3-2.5-1.3-4-2.3-8.5-5-7-4-2.6-1.3-3-1.4-9.1-3.7-1.2-.4h-1v.2l-.6-.2-1.5-.3-4.7-.6-2.5-.3-2.5-.1h-4.8l-2-.1-1.6-.6-1-.7-.9-1-1.1-2-.6-1.8-.5-1.9L22-60l-.2-1.8-.2-2.8v-3l.1-3 .3-2 .2-1 .7-2.9 1-2.8 1.3-2.8 1.4-2.7 1.7-2.5 1.6-2.1 2.2-2.7 4.2-4.7 1.8-2.2 1.5-1.8 2.2-3.3 3.2-5 2.2-3.7 1-1.8 2.4-5 .6-1.3.5-1.4.3-1.2.2-1.6-.1-2.1-.2-1.1-.4-1.8-1.1-3.5-.4-1-1-2.4-.7-1.6-1.5-4.9-.5-1.8-.3-1.8-.2-2v-3.2l.3-1 .3-1.1.6-1.8 1.5-3.3.9-2.6.8-2.1.3-1.2.3-1.2.5-3.6 1.1-4.5.4-2 .1-1.3v-.6l-.1-.3.1-1v-4l.2-2 .1-1 .4-2 .4-1.5.8-1.8 1.7-3.3.7-1.5.3-.8.4-1.5.2-1.3.2-1.6-.2-4v-1l.2-1 .3-.8.7-1 1.2-1.2 3.7-3.5 4.5-3.7.4-.4.4-.7.4-.6.6-1.6 1-1.4.6-1.3.3-.3.5-.5.6-.3 1.7-.8.5-.3.3-.3.6-.7 1-2 .7-.8.3-.4.7-.5 1.6-1.2 1-1 .8-1 3.4-4.8 1-1.2 2.4-2.7.8-1 .4-.6v-.3l.4-.4 1.6-1.5 1.5-1 4.3-2.7 1.8-1.3 1.8-1.4 4.4-3.7 2.4-1.8 1.8-1 1.4-.7 1.4-.3 1.6-.2h1.2l1 .1 1.5.3 1.2.4 1.1.5 1 .5 1 .7 1 1 1.5 1.8.7 1.2 1 2 1.6 3.4.6 1.6.5 1.6.5 2.4.1 2.9-.1 2.8-1 9v4l.1 3.5v1.7l-.2 1.8-.2 1.4-.4 1.6-.5 1.7-.5 1.4-.6 1.3-1 1.5-2.5 2.9-.8 1-.6 1-.6 1.5-.8 2-.4 1.4-.7 2.8-.1 1.1v2.6l.2 3.1.2 1.3.5 1.6.4 1 1.4 2.8 1.8 4.3.4 1.2.2.8.3 2-.4 1.9-.2.6-1 1.8-.8 1-1.5 1.5-.8.5-2.2 1.5-2.2 1.2-3.9 2.1-4.7 2.3-.8.5-.5.5-.4.5-.3.4-.2.6v1.4l.4.6.3.4.4.3 1.6.9 1.3.3 1.6.2 2 .1 3.1-.1 3.5-.2 4.2-.4 3.7-.5 10.2-1.6 3.1-.7 2.4-.5 3-.8 2.1-.6 1.8-.7 1-.5 1.3-.8.5-.6 1-1 .8-1.2 2.7-5.3 2.2-5.3 1.1-2.3 1-1.7 1.5-2.2 1.7-2 2.1-2.1 3.6-3 1.8-1.2 1.8-1 2.2-.8 5.9-1.5 2.3-1 1.2-.7 1.7-1.4 2.1-2.4 1-1.2 1.3-2.1 2.7-4.6 1-1.6 1.1-1.5 1.8-2.3 1.8-2.1 1.9-1.8 3-2.4 3-2 1.3-1.2.8-1.1.3-1.3.3-1.4.3-1.4.2-.8.8-1.4.7-1.1 1.2-1.5 1.4-1.3 1-.7 2-1 1.5-.6 1.4-.3 7.9-.8 1.6-.1h5.8l5 .2 5.4.4 9.6.8 13.4 1.3 5.3.6 6 .8 5.7 1 4.7.8 4.9 1 4 1 1.1.3"/></defs><g clip-path="url(#p1a688da5ef)"><use xlink:href="#m6332601b73" y="280.5" fill="#0c1321" stroke="#0c1321"/></g></g></g></g><defs><clipPath id="p1a688da5ef"><path d="M7.2 7.2h315.7v266.1H7.2z"/></clipPath></defs></svg>