<svg xmlns="http://www.w3.org/2000/svg" xmlns:xlink="http://www.w3.org/1999/xlink" width="317.5" height="374" viewBox="0 0 238.1 280.5"><defs><style>*{stroke-linejoin:round;stroke-linecap:butt}</style></defs><g id="figure_1"><path id="patch_1" fill="none" d="M0 280.5h238.1V0H0z"/><g id="axes_1"><g id="PatchCollection_1"><defs><path id="m0516878492" stroke="#0c1321" d="m199.5-214.7-.2 1-.2 1.1-.3 1.3-.4.9-.4 1-.9 1.6-2.2 3.7-1 2-.4 1-.2.6-.2.8-.3 1.2v1.2l.2 1.7.4 1.6.6 1.6 1 2.3.3 1 .3.9.1 1.2v1.1l-.1 1.2-.3.7-.5 1-.6 1-.5.7-.9 1-.9.7-2 1.5-.8.7-.5.7-.4.7-.2.8-.1.6v.4l.2 1 .3 1.1.2.6.7 1.3.8 1.3 3.4 5.1.5 1 1 1.8.6 1.2.5 1.3 1 3 .7 2.2.7 1.4 1.2 2.4.5 1.3.3 1 .4 1.2.1 1.3.1 2.7v2.3l-.2 1.1-.4 2-.2 1.4v1.5l.1 1 .3 1.5.7 1.7.5 1.2 1.5 3.2.6 1.4.3.6.2 1.2.2 1.4.4 4.1.1 1.5.2 1.2.3 1.2.4 1 .6 1.3.8 1.3 1.8 2.6 1 1.5 1.4 2.3 1 1.7L214-99l2.4 3.3 1.7 2.2 1 1.2 1.7 2.1-.3.2-1.7 1.2-9.7 7-2.2 1.6-1.8 1.1-2 1.2-2.1 1-1.7.7-2 .8-2.2.7-1.7.4-1.6.4-2.9.6-3 .4-2.1.2h-4.3l-4-.1-6.8-.4h-4.7l-2 .2-1.1.2-1.4.3-1.2.3-1.3.4-2 .6-1.4.5-1.7.8-1.7.8-2.8 1.4-1.3.8-1.6 1-2.3 1.7-2.5 2-2.1 1.5-1.9 1.2-1.5.8-.8.3-1.3.3-1 .2h-3.2l-1.2.1-2.2.3-1.1.3-2.6.5-2.9.8-4 1.2-1.6.5-.8.3h-.5l-.2.2-.1.2-.2.6-.1.8v1.6l.3 1 .2 1 .3.7.6 1.6.3.8.7 1.4 1.2 2 4 5.8 1.2 2 .6 1.1.7 1.5.7 1.7.3 1.5.1.8v.9l-.2.6-.3.7-.9 1-.6.3-.6.1h-.5l-.6-.1-.3-.2-.4-.3-.8-.8-.8-1-.4-.8-1.2-2.2-.6-1.2-2.2-5.1-1-2.2-1.3-2.5-.8-1.5-.5-.8-.8-1-1-1.1-1.1-1.1-1-.8-1-.7-1-.5-.8-.4-1-.4-1.2-.3-1-.2-1-.1h-1.9l-3.2.4-2.2.1h-2l-3.9-.1h-2l-1.8.2-1.6.4-2 .5-2 .8-1.8.8-1.2.7-3 1.7-1.5 1-2 1.3-2.6 2-2.4 2.1-3 2.6-2.8 2.6-1.3 1.3-3 3-4 4.1-1 1-.8.7-.7.6-.7.4-1.1.6-.8.3-2.2.5-1 .3-.4.1h-.5l-.4-.2-.4-.4-.2-.8-.1-1v-1l.3-2v-1.7l-.2-1.2-.4-1.2-1-1.7-.7-1.5-.7-1.6-.6-1.7-.4-1.8-.2-1.8v-1.7l.1-.6.3-.8.5-1.4 1.3-3 .3-1.2.3-1.1.2-1.1v-1l-.2-1-.2-.6-.4-1.3-.7-1.2-.8-1-.8-.8-1.9-1.4-1.5-1.3-1.4-1.4-1.3-1.7-1.1-1.8-.6-1.2-.4-1.3-.7-2.3-.6-1.8-.8-1.7-.6-1-.8-1-1-1-.6-.6h-.4l.2-.3 4.5-3 1.5-1.1 2-1.6 1.2-1 1.3-1.3 2-2.1 1-1.5.6-1 .6-1 .4-1 .4-1.4.3-1.2.4-2 .1-1.8v-3.2l-.6-10.6-.1-1.2-.3-2.4-.4-2-.4-1.5-.5-1.4-.4-1.3-.7-1.5-.6-1.4-1.2-2.6-4-7.9-.9-1.4-.7-.9-.9-.9-1.9-1.8-.6-.9-.2-.7v-.7l.5-.8 1-.8 2.9-1.5.6-.4 1.1-.7 1-.8.6-.5 1.1-1.2.5-.5 1-1.3 1-1.7.7-1.4.8-1.7.5-1.8.3-1.2v-2.9l-.1-.9-.3-.8-.3-.7-1.7-2.6-.5-1-1.2-2.2-.7-1.6-.7-1.7-.5-1.7-.3-1.7v-1.7l.4-1.4.6-1.4.7-1.4 2-3.5.7-1.5.7-1.7.3-1.4.2-1.4.2-1.9v-4.2l.4.3.7.3 1.4.3h2.5l.8-.3.7-.4.7-.6.3-.3.8-1.1.5-1.4.4-1.3.7-2.7.2-.8.4-.9.4-.8.2-.4.8-1.2 1-1 1.2-1 1.3-1 2.5-1.7 5-3.5 1.6-1 1.5-1 3.9-2.2 3.6-2.3 5.3-2.9.7-.5 1-.8.5-.5.6-1 .3-.6.3-.6.7-2 .2-.6.4-.7.8-.8.9-.5 1-.5.8-.3 1.5-.3 1.3-.2 1.7-.1 1.4-.2 1.6-.4 1-.3 1.8-.7 5.1-2 3.8-1.3 1.7-.5 6-1.6 6.8-1.5 1-.3 1.2-.5 1.3-.6.8-.5 4.8-3.4 1.4-.9 1.4-.7 1.3-.5 1.4-.3 3.3-.5 1.6-.4.9-.4.4-.3.7-.4.7-.6 1-1 1.6-1.7 2.4-2.8.5-.5h.2l.2-.1.2.1.1.2.1.3v2.5l-.3 1.1-1 4.9-.4 1.5-.1 1v2.8l.3 1 .2.9.4 1 .5 1 .9 1 1 1.2 1.3 1 .7.6 1 .7 1.5.8 1.6.7.8.2 1.4.3 1.5.2h3.4l1.1-.1 1.4-.3.8-.3 1.2-.4 4.4-1.9.8-.2 1-.3 1.4-.2h1.3l1.5.2 1 .2.9.3 1 .5 1 .5 1.1.6 1.4 1 1.4 1 2.7 2.4 1.5 1.3 2.7 2.4 3.7 3.6 1.7 1.8 1 1 1.7 2 2.3 2.6 1.8 2.2 1.2 1.6"/></defs><g clip-path="url(#pf319952773)"><use xlink:href="#m0516878492" y="280.5" fill="#0c1321" stroke="#0c1321"/></g></g></g></g><defs><clipPath id="pf319952773"><path d="M7.2 7.2h223.7v266.1H7.2z"/></clipPath></defs></svg>