<svg xmlns="http://www.w3.org/2000/svg" xmlns:xlink="http://www.w3.org/1999/xlink" width="388.6" height="374" viewBox="0 0 291.5 280.5"><defs><style>*{stroke-linejoin:round;stroke-linecap:butt}</style></defs><g id="figure_1"><path id="patch_1" fill="none" d="M0 280.5h291.5V0H0z"/><g id="axes_1"><g id="PatchCollection_1"><defs><path id="mb5e989932e" stroke="#0c1321" d="M271.6-143.3v2.1l-1 4.2-3.7 10.5-.7 2.4-.4 2.3-.4 5.8.2 1.9.5 2.5 3.9 10.5 1 5.4.4 5.5v5.4l-.8 5.1-.6 2.4-.9 2.1-1 1.6-3.4 4.3-4.1 4.3-7.5 6.6-4 4-3.5 4.2-3.1 4.5-1.4 2.4-1.9 4.1-1.8 5.2-3.1 10.2-1.8 4.5-25-2.4-8.8-1.2-5.3-1-10.8-2.4L169-30l-3.6-1L161-33l-4.3-2.3-4.1-2.6-4-3-5-4.5-4.2-4.6-3.7-4.5-11.2-15-8.1-9.8-6.5-6.8-10.7-10.3L87.8-108l-3-2.6-4-3.3-4.5-3.1-9.4-5.9-5-2.7-10.4-5.4-5.4-2.5-10.2-4.4-16.1-6.2.4-.4 1.6-.6 12.2-4.6 6.4-3 3.3-2.1 2.9-2.2 2.5-2.5 2.1-2.7 3-5 4.3-9 5.8-11 9.3-22.4 2.7-4.6 3.1-4.2 11.7-13L94-235l4.6-6.5 3.1-4 2-2 2.6-2.3 5.5-3.7 5.4-3 6.7-2.7 4-1.3 3-.7.7 3.4 5 27.2 2.9 14.2 2.2 9.8 2.7 10 2.6 7.5 1.5 3.5 2.1 4 3.4 4.4 3.5 3 3 1.7 3.2 1.3 3.5 1 2.8.3 2.8.2h3.8l3.7-.3 3.8-.6 4-.8 7-2 3.2-1.2 6.6-3 8.9-4.7 11.5-6.5 8.3-4.2 4-1.6 2.9-.8 2.8-.3 2.8.2 3 1.1 3 2 2.6 2.6 2.4 3.1 2.2 3.5 2 3.8 4.4 11.8 2 5.9 2.1 8.3 1.8 10.1"/></defs><g clip-path="url(#p8c695109e7)"><use xlink:href="#mb5e989932e" y="280.5" fill="#0c1321" stroke="#0c1321"/></g></g></g></g><defs><clipPath id="p8c695109e7"><path d="M7.2 7.2h277.1v266.1H7.2z"/></clipPath></defs></svg>