<svg xmlns="http://www.w3.org/2000/svg" xmlns:xlink="http://www.w3.org/1999/xlink" width="365.7" height="374" viewBox="0 0 274.3 280.5"><defs><style>*{stroke-linejoin:round;stroke-linecap:butt}</style></defs><g id="figure_1"><path id="patch_1" fill="none" d="M0 280.5h274.3V0H0z"/><g id="axes_1"><g id="PatchCollection_1"><defs><path id="mf245faea2a" stroke="#0c1321" d="M232.7-221.7h-.6l-1 .5-.6.5-1.7 1.3-1.6 1.7-.4.6-.7 1.2-.3.6-.8 1.8-.5 1.8-.2.8-.2 1.4-.2 2.2-.1 3v1.6l.3 2 2.2 12.1.6 4.4.3 2.7v2.5l-.2 2.8-.3 2.2-.6 3.1-.4 1.5-.5 1.7-.6 1.6-.6 1.3-.7 1.2-1 1.7-2.6 4.2-1.1 1.8-.5 1-1 2.4-.6 2.4-.5 2.4v1l-.2 1.7.1 2.3.2 1.2.1 1.2.4 1.6.6 2.1.5 1.4.6 1.2 1.7 2.7 3.3 5 1 1.4 1.2 1.3 1 .9.5.3.7.2.9.3h1.8l1.3-.3.8-.4.9-.5 4.7-3.5 1.3-.8 1.3-.8 1.6-.7 1.6-.3 1.3.3 1.4.8 1.3 1.2 1.3 1.4 1.3 1.6 2.1 2.9 2 3 .5.6h.2l-.3.6-.6.8-2.1 2.3-.8 1-2.8 3.9-.7.8-.8.8-1.3 1-.6.5-.3.3-.5.7-.9 1.6-.4.6-.3.2-.4.3-1.4.7-.5.3-.4.3-.3.3-.5 1-.8 1.2-.6 1.3-.2.5-.4.6-.4.4-3.6 3-3.2 3-.9.9-.6.9-.3.7-.1.8v.9l.1 3.2v1.3l-.3 1-.3 1.3-.3.7-.5 1.3-1.5 2.7-.6 1.5-.4 1.2-.3 1.6v1L224-67v3.4l-.2.8v-.1l-.8-.3-.7-.2-1.2-.3-7.8-1.2-5.3-.7-3-.2H201l-2.5.2-1.9.4-1.6.4-1.3.5-1.7.7-2.3 1.1-5.5 3.1-2 1.1-1.2.6-1.6.6-.8.3-1.4.3-1.3.2h-.7l-.7-.1-1-.2-1.2-.4-2.3-1-4.4-2-1.6-.8-1.6-.6-1.7-.5-1.2-.2-2.6-.2h-8.2l-2-.2-1.5-.3-1.5-.6-1-.6-.6-.4-1-.7-.7-.7-3-3-1.5-1-1.4-1-1.6-.4h-1.7l-1.8.5-1 .5-1 .4-1.8 1.3-1.5 1.2-1.7 1.5-1.4 1.4-.9 1-1.3 1.5-1.5 2-1 1.6-.9 1.4-1 1.7-.5 1.2-.5 1-.6 1.7-.3 1.7-.3 2.4.1 2.5.8 5.1v1l.1 1.5v1l-.2 1.4-.3 1-.3 1-.8 1.5-.6 1-1.4 1.8-1.8 1.8-2 1.8-6 4.9-.5.5-.8-.3-1-.8-1-1.2-1-1.5-.4-1.3-.1-.5-.9-4.5-.5-2.3-1.2-4.9-1.3-4.3-1.5-4.3-.8-2-1.7-4.4-.7-1.6-1.5-3.2L84-58l-1.8-3.1-2.4-3.7-1.3-1.9-1.8-2.4-1.1-1.4-2-2.3-1-1-1.3-1-2.8-2.2-.8-.8-.7-.7-3.4-4.3-1.4-1.5-1.4-1.6-2.8-2.9-8.2-7.9-3.3-3.3L43-104l-3.9-4.5-1.7-2-1.6-2.2-1.4-2.1-2.2-3.6-3.8-6.8-1-1.6-1.3-2-1.5-1.9-.7-.8-3-3.2-1-1.3-.7-1.2-.2-1.2.5-1.2 1-1.2L22-142l4-3 .3-.3.6-.3 1.4-.6 6.9-2.7 3-1 5.5-1.9 2-.7 2-.8 4.6-2 2.7-1.1 1.3-.4 2.4-.7 5-1.1 3-.8 4.4-1.4 3.5-1.3 2.4-1 1.8-.8 5.2-2.4 1.4-.6 1.7-.6 5.2-1.7 4-1.5 2.4-1 3.5-1.5 6.7-3.1 3.3-1.7 5.4-3 2-1 2.4-1 1.6-.7 1.3-.4 2.4-.6 4.8-.8 2.4-.6 1-.3 1.1-.4 1.6-.7 1.3-.8 1.6-1.1 1-1 .6-.6 1.8-2 2.3-2.7 1.2-1.8.7-1.2.7-1.6.5-1.7.2-1.7v-7.6l.4-1.7.6-2.2.4-1.2.4-1 1-1.9 1.6-2.8.3-.7.6-1.2.3-1 .3-1.3v-.6l.1-1.7v-1.8l-.3-1.8-.6-2.6-.9-2.8-1.2-2.5-1.4-2.5-3.8-5.7-1.4-2.5-.9-1.8-.4-1.2-.4-1.3-.2-1.6.1-1 .5-.4.5-.2 1.3-.4 1.7-.5 2-.6 2.3-.5 2.2-.4 2.3-.2h8.3l4.6-.3h1.6l1.9.1 5.4.7 3.8.6 6.4 1.2 1.7.5 3.8 1.3 3.6 1.5 2.2.8 1 .5.9.6.7 1 2.2 3.7 1 1.3 1.2 1.3 1.4 1.2 1.7 1.1 1.7 1 1.9 1 2.5 1.1 5.5 2.2 1.6.8 1.1.6.9.6.8.6.9.7 1.2 1.4 1.1 1.4 1 2.1.8 2.3.6 2.2.2 2 .1 1.5v.6"/></defs><g clip-path="url(#p75f850984f)"><use xlink:href="#mf245faea2a" y="280.5" fill="#0c1321" stroke="#0c1321"/></g></g></g></g><defs><clipPath id="p75f850984f"><path d="M7.2 7.2h259.9v266.1H7.2z"/></clipPath></defs></svg>