<svg xmlns="http://www.w3.org/2000/svg" xmlns:xlink="http://www.w3.org/1999/xlink" width="371.9" height="374" viewBox="0 0 278.9 280.5"><defs><style>*{stroke-linejoin:round;stroke-linecap:butt}</style></defs><g id="figure_1"><path id="patch_1" fill="none" d="M0 280.5h278.9V0H0z"/><g id="axes_1"><g id="PatchCollection_1"><defs><path id="m436e9bc096" stroke="#0c1321" d="M214.2-251.3v.2l.2.1.6.4 1.6.5 1.7.4 2.4.4 1.5.1 1.9.1h3.6l12.6-1 5.3-.5 7.1-.9 2-.1 1.3-.1h1.5l.7.2.6.3.4.2.3.4.1.2v.5l-.1.6-.4.7-2 3-1.4 2.3-1.7 3.2-.8 1.8-1.2 2.7-1.2 3-1.6 4.6-.6 2-1 4.3-.4 1.7v1.6l.1 1.6 1 3.3v2l-.4 1.5-.6 1.2-1 1.4-1.7 2.1-1 1.4-.9 1.4-.7 1.4-.6 1.4-1.2 4-.5 1-5 9.7-2 3.6-1.4 2.4-2.2 4.6-3.1 7-.6 1.6-.6 1.9-1.2 4.4-.6 2.2-2 5-.7 2-.5 1.9-.7 3.2-.2 1.5-.2 2.4v4.7l.3 3 .9 7.8.2 2.8.2 3.4v2.8l-.3 3-.3 2.2-.4 1.6-1 3-1.1 3-2.8 6-1.2 3.1-1.2 3.3-.7 2.4-1 4.2-.7 3v1.1l-2 6.6-1.7 4.5-1.2 2.7-.9 1.6-.8 1.4-1.6 2.2-1.6 2-12.3 14.8-13.9 17-9.4-2.5-4.2-1-3-.6-1.8-.3-1.9-.3-3.9-.3-2.4-.4-4.7-1-1.7-.3-1.4-.1H138l-.7.2-1 .4-1.2.7-2.2 1.5-6.4 4.6-1.1.7-2.2 1.2-.8.4-1 .3-1.2.3-2.3.2-1.9-.2-2.5-.5-1.9-.5-3.2-1-2.6-.8-6.2-2.2L89.2-34 82.9-36l-1.8-.6-1.4-.3-1.3-.3H76l-1.2.6-.7.7-.5.7-.4.6-.5 1-1.7 4.5-1.3 3-1.5 3-1 2-.8 1.1-.6.7-.2.1h-.2v-.4l-.4-.7-2-3.5-3-4.4-3.5-4.9-1.7-2.2-2-2.5-2-2-1.5-1.4-1-.7-1.4-.9-1.5-.8-1.5-.6-1.7-.5-1.9-.2-4.5-.4-1.8-.2-5.4-.9-3-.5-1.2-.3-1-.4-.8-.4-.7-.4-.5-.4-.8-1-.6-1-.5-1.4-.3-1.4v-.8l.2-1.6.4-1.6.6-1.7.8-1.7 1.2-1.6.8-.9.7-.6 1.7-1.2 1.3-.7 1.5-.7 8.2-3.6L40-72l4-2 5-2.8 2.5-1.5 1.8-1.2 2.8-1.8 5-3.8 2.6-2 2-1.6 1.4-1.4 1.4-1.6 1.2-1.5.9-1.4.6-1.3.3-2-.3-1.8-.3-1-.5-1-1-1.9L67-108l-3.2-5.5-2.5-4.3-.9-1.8-.7-1.7-.4-1.6v-3.3l.4-2.4 1-4.3.8-2.7 1.1-3 1-2.1 1.5-2.5 1.2-1.9 3-4 7.4-10 5.9-8.7 1-1.8 1.1-2.3 1-2.9.4-1.1.2-.9.1-1.2v-1.6l-.2-.7-.4-1.3-1.2-3.1-.5-1.3-.3-1.4-.3-1.8-.3-4-.3-2.3-.2-1.5-1-4-.6-3-.2-1.8-.4-4.5-.4-2.8-.8-4-.5-2.3-.4-1.2-.6-1-.7-1-.7-.6-.7-.5-1.3-.8-2.8-1.4-3.6-2-.5-.3-1.9-.7-2-.6-1.6-.6-4.4-2.1-3.1-1.4-1.5-.8-.7-.4-1-1L50-237l-1-1-.5-.9-.4-.8v-.6l.2-.2.5-.3 1.2-.4 1.6-.5 1.1-.2 2.2-.3 7.4-.9 4.9-.6 1.6-.2h.9l2 .2 1.4.4 1.3.5 2.5 1.3 4.4 2.5 2 1 1.4.7 1.5.6 1.9.6 1.9.4 2.2.4h4.4l2.8-.2 2.5-.3 2.9-.6 2.2-.6 2.4-.7 2-.7 2.4-.8 3.2-1.3 3.9-1.8 4.6-2.3 2.2-1 1.1-.4 3.2-1 6.6-1.8 2.5-.8 2.1-.7 2.4-1 1.6-.7 1.3-.8 1.3-1 1-.9 3.1-3.6 1.6-1.5.8-.7.5-.3.4-.2.6-.2h1.1l.7.3 1 1 1.1 1.3 1 1.5 1.2 1.4 1.3 1.1 1.3.7 3.3 1 1 .5 1 .4 1.4.8 1.1.7 1 .7 1.7 1.4 7.1 6 3 2.2 1.7 1.1 1.5.9 1.8.8 1.4.6 1.2.3 1.8.4h1.7l1.7-.1 1.5-.5.5-.3 1-.5 1.2-1 1.4-1.3 2.2-2.5 1.2-1.7 4.3-6.2.3-.5.7-.6"/></defs><g clip-path="url(#p711e7eee2e)"><use xlink:href="#m436e9bc096" y="280.5" fill="#0c1321" stroke="#0c1321"/></g></g></g></g><defs><clipPath id="p711e7eee2e"><path d="M7.2 7.2h264.5v266.1H7.2z"/></clipPath></defs></svg>