<svg xmlns="http://www.w3.org/2000/svg" xmlns:xlink="http://www.w3.org/1999/xlink" width="348.7" height="374" viewBox="0 0 261.5 280.5"><defs><style>*{stroke-linejoin:round;stroke-linecap:butt}</style></defs><g id="figure_1"><path id="patch_1" fill="none" d="M0 280.5h261.5V0H0z"/><g id="axes_1"><g id="PatchCollection_1"><defs><path id="m82fc40d5ff" stroke="#0c1321" d="m228-216.6-.1.6v1.3l.1 1.8.3 2.2.3 2.2.4 2.2.5 2.2 1 3.5.3 1.3.3 2v3.7l-.1 1-.3 1.3-.3 1-.3 1.2-.4 1-.5 1.1-.6.9-.7.9-1.4 1-1.5.8-.8.3-1.8.4h-3l-1-.2-1-.3-3-1-1.6-.4h-.7l-1-.2h-1.7l-1 .3-.6.4-.3.5-.1.5.1.8.3.7.4.6.6.9 1.1 1.3 1.8 2 5.3 5.4 4 4.4.8.7 1.4 1.2 6.1 4.5 1.3 1 1 1 .6.6.6.6.3.5.4.6.4 1 .2.8v.9l-.7 1-1 .9-1.2.8-2.9 1.6-1.3 1-1.2 1-.7 1.2-.6 1.1-1 2.6-.6 1.3-.7 1.2-.7 1.1-2 2.5-1 1.3-.4.7-.3.8-.2.8-.2 1-.3 2-.2 2.4-.2 2.6-.3 1.3-.4 1.7-.7 2-.8 2.2-1.7 3.5-.6 1.6-.3 1-.1.6-.1.7v.8l.2.6.3.5.3.3.6.6 2.1 1.6 1.3 1.1 1 1.2.8 1.2.5.8.4 1 .6 2.6.3.7.2.6.4.5 1 1.2 1 1.4 1.5 1.5 6 5.9 2.1 2.2 4 4.4 1.3 1.6 1.3 1.8 1.1 1.7 1 1.8.7 1.4.5 1.3.4 1.2.3 1.3.1.8v1.7l-.1.7-.3.8-.5 1-.6.8-.9.9-.7.7-.7.5-1.2 1-1 .6-1 .5-1.7.8-3.2 1.3-5.9 2.3-2.7 1.2-2.8 1.4-2 1.2-1.8 1.3-1.3 1-2 2-1.3 1-1.6 1-3.4 1.9-1 .5-.4.3-.3-.5-1-1-1-.9-1.5-1.2-1.6-1.3-1.8-1.2-2.2-1.2-2.2-1-1.5-.6-1.5-.5-1.4-.5-5.9-1.6-1.9-.6-3-1-5.5-2.1-11-4.3-1.6-.6-2.7-1-1.5-.4-1.3-.3-1.4-.3-1.9-.1-2.3-.2-1.4-.2-1-.2-1-.2-.3-.2-1.2-.6-1.1-.8-1-.9-2.2-2-.5-.6-1.1-.8-1.6-.8-1.7-.6-1.8-.4-.8-.1-2.7-.3-2.2-.2H125l-1.8.1-1.8.3-1 .2-1.2.4-1.2.5-1.4.7-1 .6-5.3 3.2-4.5 2.3-.5.4-.7.5-.5.6-.5.5-1.2 1.7-.5.4-.4.4L99-57l-.5.4-.4.2-.6.1-.7.1h-1.3l-4-1-3-.9-1.2-.3h-.6l-1.2-.2h-1.7l-1.5.2-1 .3-.7.4-.5.5-.3.3-.6 1-.4 1-.1 1v.8l.6 5.8v1.8l-.4 1.2-.4 1.2-.8 1.6-.9 1.5-.6.9-1.2 1.7-3 4-.8 1.1-1.2 2-.7 1.1-.6.8-.7.7-.6.6-.7.6-.6.5-.8.4-1 .5-.9.2-.5.1h-1l-1.1-.3-.6-.4-.6-.5-.7-.6-.5-.6-.7-1-.5-1-.4-.8-.5-1-1-2.8-.3-.6-.4-.6-.4-.5-.3-.3-.3-.1-.3-.2H53l-.4-.1-.9.2-.4.2-1 .7-8 6.4-1.8 1.3-2.2 1.5-1.3 1-2.3 1.4-1.6.8-.5.3h-.1l-.8-.2-3-1-1.2-.2-.5-.1-1-.1h-1l-.4.2-.2.2-.1.1v.2l.2.1 1.1 1 .5.5.1.2v.5l-.2.3-.3.1-.4.2-1.8.3-2.3.7h-.5l-.5.1-.3-.1-.2-.2-.1-.4-.7-7.2-.2-1.1v-.4l-.2-.1h.1l.1-.4.3-1 .4-3.7.4-2.1.5-2 1-2 1.3-1.7 1.7-1.5 2-1.3 2.2-1.2 2.2-1.1 6.9-3.1 2.1-1 2-1.2 1.8-1.2 1.5-1.4 1.2-1.5.7-1.7.4-1.8.2-2 .2-5.7.2-1.8.4-1.7.8-1.4 1.3-1.1 1.6-1 2-.6 2-.5 2.3-.4 2.4-.4 4.9-.5L78.2-78l5-.5 2.5-.3 2.4-.3 2.3-.4 2.2-.6 2-.7 1.6-.9 1.2-1 .8-1.2.4-1.7v-1.9l-.3-2-.5-2.2L97-94l-.8-2.3-2.5-7-.8-2.4-.7-2.2-.5-2.2-.4-2.1-.1-2 .2-1.7.1-.4.6-1.1.8-1 .7-.6 1.2-.6 1.3-.4 1.2-.3 2-.2h.4l1-.5.4-.3.5-.7.3-.5.7-1.4.5-.9.9-1 1.2-1.2 1.7-1.7.6-.9.4-.8.6-1.5.2-.6.1-1v-6.7l.2-1.5.2-1 .3-.8.7-2 .7-1.6 1.1-2.2.4-1.2.1-.6v-1.3l-.1-1.4-.3-1.6-.5-2-2.1-7.3-1.4-5.4-.3-1.4v-.5l-.3-.4-.8-1.5-1.1-2.2-.7-1.5-1-2.5-1.1-2.8-2.8-7.8-.8-2.6-.8-2.8-.8-3.5-.5-3-.4-2.5-.3-2.5v-3.4l.1-.5.5-1.6.7-1.5.9-1.4 1-1.4 1.6-1.7 3-3.2 2.6-2.6 1.9-2.1 3.5-4.2 2.6-3.2 3.5-4.6 1-1.4 1.7-2 3-4 2-2.3 1.2-1.3 1-.9 1.2-1 1-.8 1.7-1.2 1.7-.9 2.1-.9 2.3-.8.7-.2h.8l1-.3 2-.6 1.3-.4 1-.4.8-.5 2.8-1.7 1-.4 1-.3h1.8l.9.3.9.3.6.3 1.6 1 1.5 1.3 1.5 1.5 1.2 1.5 1.3 1.4 1.4 1.8 2.3 3 .7.8 1.3 1.5 1 1 2 1.7 1.2 1 1.8 1.3 4.3 3 1.8 1.3 1.5 1.2 1.4 1.3 1.4 1.3 1.3 1.4 1 1.3 1 1.3.9 1.4 2.1 3.4 1.3 2 1.4 1.8 1 1.3.8.8 1 1 1.2 1 1.5.7 1.7.6 1 .1 1.4.2h3.5l5-.2h2.9l.8.2.6.2.8.3.8.5 1.4 1.1 1.2 1.3 2.3 2.7 1 1.1 1 .8.7.2.7-.5.5-1 .3-1.1.3-1.4.2-1 .3-3.5.1-.7.2-.5.2-.5h.4l.1.5"/></defs><g clip-path="url(#pd279d8bf2e)"><use xlink:href="#m82fc40d5ff" y="280.5" fill="#0c1321" stroke="#0c1321"/></g></g></g></g><defs><clipPath id="pd279d8bf2e"><path d="M7.2 7.2h247.1v266.1H7.2z"/></clipPath></defs></svg>