<svg xmlns="http://www.w3.org/2000/svg" xmlns:xlink="http://www.w3.org/1999/xlink" width="247.2" height="374" viewBox="0 0 185.4 280.5"><defs><style>*{stroke-linejoin:round;stroke-linecap:butt}</style></defs><g id="figure_1"><path id="patch_1" fill="none" d="M0 280.5h185.4V0H0z"/><g id="axes_1"><g id="PatchCollection_1"><defs><path id="m117d45b274" stroke="#0c1321" d="M91-260.4v.1l-.2.2-.4.4-.3.5-.5 1-.3.9-.4 1-.1 1.2v1.8l.5 1.8.7 1.8 1 1.8 1 1.8.5.8 2.6 3.5 2 2.5 1 1.2 2.2 2.4 2 1.9.7.6 4 3.3 1.4 1.2 1.2 1.2 1 1.3.6 1 .4.9.2.7.1.9v1.7l-.2 1.1-.7 3.7-.3 1.5v1l.3 1 .3.7.7.8.9.7 2.3 1.7.8.6.8.8.6.8.4.8.3.8.2.7.3 1.1.7 4.3.4 1.5.3.7.2.5.3.5 1.2 1.2.8.6.7.5 1.6.9 2.2 1 5.6 2.7 2.6 1.3 1.2.7 1.4 1 1 .6 2.5 1.9 1 .7 1 .6 1.4.7.8.3 2.8.9.9.4.6.3.8.5.6.4.5.5.8.9.5.7.2.4.4 1 .3.8.1.8.1.8v2.3l-.5 6.8v4.7l.3 1.3.1.7.4 1.5.6 1.7.3.7.8 1.6.9 1.6 1.6 2.7 2.8 4.1.9 1.5.6 1 1.3 2.4 2.2 4.3 2.6 5.3.7 1.6.4 1 .1.6.2 1.1v2l-.3 2-.6 2-.6 1.9-1.3 3-.3.8h.1l-.5.8-3.6 4.6-2.3 2.8-3.7 4.2-1.3 1.6-1.7 2-1.5 2-1 1.6-1 1.5-1.7 3-1.4 2.5L145-81l-2.4 5-1 1.9-1 1.7-1.1 1.7-1.2 1.7-1.3 1.6-1.4 1.6-1.6 1.7-1.7 1.6-6.9 6.1-3.2 3-1.6 1.6-1.5 1.6-1.4 1.6-1.4 1.7-1.2 1.8-1.1 1.8-1 2-.9 2-2 5.1-.5 1-.5 1.2-1 1.5L107-29l-1.6 1.6-1.7 1.5-1.4 1-.7.5-1.8 1-1.3.7-1.2.6-2.2.9-2 .7-1.9.5-1.4.3-.9.2-1.2.1h-2.1l-2.1-.4-2.2-.5-2.1-.7-2.2-.8-2.1-1-2.2-1-5.9-3-1.8-1-1.8-.7-1.8-.7-1.8-.4-1-.2h-2.8l-1.5.2-5.4.8-2 .3-1.1.1H44l-1-.2-1-.5-.5-.5-.5-.6-.8-1.2-2.1-3.4-.7-1-1.1-1.5-3-3.8-1.1-1.6-1-1.6-.9-1.7-.7-1.7-.5-1.7-.4-1.6-1-5.7-.8-3.6-.5-2-.7-2.3-.8-2.4-.7-1.8-1-2-1-2-1.5-2.7-2.6-4.5-.6-1-.5-1.2-.3-.8-.3-.9-.1-.8v-1.5l.2-.5.3-.3.4-.1.4.2 1.2 1.2 1 .7.9.6.5.2h1.1l.3-.2.4-.2.6-.5.2-.2.3-.5.4-.6.8-1.6.5-1.3.4-1.3.4-1.3.3-1.2.6-3.2 1-6.6.2-2.5.1-1.6.1-2.7v-2l-.2-1-.2-1.3-.4-1.7-.4-1-.4-1.1-1-2-.7-1-.8-1-1.2-1-.8-.5-.9-.4-2.8-1.2-1-.7-.7-.3-.6-.4-1-1-.5-.5-.2-.5-.1-.4v-.4l.2-.6.6-1.5 4.6-10.5.7-1.7.4-1.4.6-2.3.3-2v-3.5l-.2-5.8v-2.9l.3-1.5.4-2.4 1.6-7 .6-2.8.2-1.6.3-2.2.2-4.6.2-1.6.2-1 .8-4.2.2-1.7v-2.4l-.3-2-.6-1.8-.8-1.8-1-1.4-2-2.8-.7-1.4-.8-1.8-.7-1.9-.5-1.9-.5-2-.3-1.8-.1-1.1v-2.4l.5-1.2.6-1 .9-1 1-.7.3-.2 1.1-.5 1.1-.4 1.2-.2H29l.9-.2.7-.2.6-.4 5-3.3 1.5-.8 1.5-.7 1.6-.6 2.4-.7 2.2-.5 2.4-.4.8-.2.6-.2.4-.2.5-.3.3-.2.3-.4.2-.8v-1l-.3-.8-.3-.6-.4-.6-.6-.7-.7-.6-1.2-.6-.8-.2H45l-1 .2-.7.2-1.5.4-1.1.5-1.5.7-1.4.7-7 3.8-.3-.2-.3-.4-.6-.9-.3-1-.1-1.1.3-1.3.7-1.2.8-1.2 3.7-4.4 3.1-4.2 5.5-7.1.9-1.2 1.3-1.5.7-.6.7-.5.4-.1.3-.1h1.2l.3.2.4.5.5.5.6 1 .8 1.5.6.8.4.5.6.5.7.3.7.3 1.3.4 1.5.2 1.1.1h1.2l1.5-.1 2.1-.5 1.3-.3 2.7-.9 2.8-1 5.3-2.5 3.3-1.4 2.2-.8 1.7-.4 2.5-.6 1.3-.2 1.3-.1H89l.8.1.7.2.3.2.2.2v.1"/></defs><g clip-path="url(#p912d87156b)"><use xlink:href="#m117d45b274" y="280.5" fill="#0c1321" stroke="#0c1321"/></g></g></g></g><defs><clipPath id="p912d87156b"><path d="M7.2 7.2h171v266.1H7.2z"/></clipPath></defs></svg>