<svg xmlns="http://www.w3.org/2000/svg" xmlns:xlink="http://www.w3.org/1999/xlink" width="495.4" height="310.7" viewBox="0 0 371.5 233.1"><defs><style>*{stroke-linejoin:round;stroke-linecap:butt}</style></defs><g id="figure_1"><path id="patch_1" fill="none" d="M0 233h371.5V0H0z"/><g id="axes_1"><g id="PatchCollection_1"><defs><path id="m3400fe8936" stroke="#0c1321" d="m293-207.6 2.6 2.8 2.7 3 1.5 1.9 2.2 3 1.6 2.3 1.2 2 1.2 2.2.9 1.8 1.3 2.9.6 1.6.6 2 .5 1.8.4 2.2.1 1.5v1.5l-.2 1-.9 3.9-.2 1.4-.1 1.4v.9l.6 2.3.7 1.8 1.3 2.2 1.5 2.1 1.2 1.5 1.2 1.4 3 3 2.2 1.9 1.7 1.4 5.8 4 1.5 1.2 2 1.8 1.1 1.1 1.4 1.9 1 1.4.5 1 1 2.3.5 1.8 2.7 9.9 1.9 6.7 1.7 5 2 6 1 3.2 1 3.7.5 2.5v3.1l-.2 2.2-1.6 8-.6 2.2-.5 1.7-.8 1.6-1.7 2.2-2 2.1-2.4 2-1.6 1.2-4.2 3-1.7 1-3.6 2-10.2 5.7-2 1.2-1.8 1.2-1.7 1.3-1.8 1.7-1.6 2-1.5 2.7-.8 2.3-.5 2.2-.4 2.2-.3 3.8v1.8l.1 2.1.2 1.6.2 1.5.2 1.2v.2l-.5.2-3.1 1.6-1.3.5-2.2.8-1.5.3-5.2 1-3.7.5-3 .2h-2.4l-1.9-.2-3.4-.5-3-.6-2.9-.7-6-1.9-3-1.2-4-1.7-2.4-.9-4-1.1-4.7-1-3.6-.7-7.7-.7H228l-2.6.2-2.2.5-1.6.4-2.5.8-4.3 1.9-2.6 1-2.3.7-2.9.8-2.5.4-1.9.3-6.6.5-3.2.4-3.6.9-8.4 2.5-3.5.9-2.8.6-4.2.8-5.6.6-3.5.6-2.2.4-5.5 1.5-2 .4-2.7.3h-2l-1.5-.2-1-.2-1.8-.7-1.1-.6-.7-.5-1.2-1-1.2-1.1-2.4-2.8-1.5-1.5-1-.9-1.5-1.2-2.3-1.4-2.4-1.2-2.3-1-2.7-1-1.7-.5-4-.8-5.4-1.3-9-2.1-3-.8-4-1.3-4.3-1.3-2-.6-2-.4-3.3-.6-2.7-.3-4.4-.4H70l-1 .2h-.3l-.1-.3-.6-.4-.9-.6-1.5-.8-4.8-2.1-1.5-.9-1-.9-.5-.5-1.5-2-.6-.8-1.5-1.4-1.5-1.2-2.4-1.6L49-57l-.8-.3-.6-.1h-3l-2.4.6-1.7.5-.6.3-1 .7-2 1.9-1 .7-3 1.6-.6.3-.6.1-.6.1h-2l-1.2.2-.8.3-1.3.7-1.5.8-.6.4.2-1 .1-1.4v-3.7l-.4-3.7V-62l.3-2 .7-2.6.6-1.4.8-1.4L27-71l1.3-1.5 1.5-1.3 1.4-1 1.6-1 1.6-.8 2-.8 2-.7 2.2-.7 2.3-.7 14.2-3.4 2.1-.4 2.1-.4 2.1-.3 5.8-.5h5.4l4.4.3 3.9.4 9 1 12.7 1.7 4.3.4 2.2.1h4l2-.2 1.7-.2 2.2-.5 2.4-.8 1.5-.7 1.4-.8 2-1.4 1.6-1.6 1.4-1.8 1.4-2 1.5-2.6 1.8-3.5 1-2.7.4.3h2.4l1.5-.3 3.3-.8 2.2-.6 3.4-1.4 2.2-1 1.2-.7 1.7-1.1 1.4-1 1.2-1.2 1-1 .9-1 1-1.3 2-2.9 1-1.9 1-1.6 1.3-2.9 1.7-4 2-5.5 1-3 2.8-9.8 1.2-3.5 1.2-2.9.8-1.7.9-1.7 1.3-2.1 1.2-1.6 1.3-1.4 1.4-1.4 1.5-1.4 1.8-1.5 4.1-3 2.7-1.8 4.7-2.9 13-7.6 4.7-3 4.3-2.8 2.3-1.6 2.3-2 2.2-2 2.1-2.1 1.8-2.4 1.6-2.8 1-2.3 1.8-4.2.9-2 .8-1.4 1-1.6 1-1.2.8-.9 1.4-1.2 1.3-1 1.1-.8 1.5-.9 1.2-.6 1.8-.8 1.3-.4 1.6-.5 1.9-.5 1.5-.2 2.2-.1h2l1.7.2 4.4.7 2.9.5 4.7 1 8.6 2.2 3.7 1 8.2 2.5.8.2"/></defs><g clip-path="url(#p07b5c18e69)"><use xlink:href="#m3400fe8936" y="233.1" fill="#0c1321" stroke="#0c1321"/></g></g></g></g><defs><clipPath id="p07b5c18e69"><path d="M7.2 7.2h357.1v218.7H7.2z"/></clipPath></defs></svg>