<svg xmlns="http://www.w3.org/2000/svg" xmlns:xlink="http://www.w3.org/1999/xlink" width="389.9" height="374" viewBox="0 0 292.5 280.5"><defs><style>*{stroke-linejoin:round;stroke-linecap:butt}</style></defs><g id="figure_1"><path id="patch_1" fill="none" d="M0 280.5h292.5V0H0z"/><g id="axes_1"><g id="PatchCollection_1"><defs><path id="maf1f512a43" stroke="#0c1321" d="m218.7-261.2.5.3.9 1 1 1.5 1 2 1 2.2.8 1.9 3.3 6.3 1.1 2.4 1.3 3.3.6 1.7.7 2.5.4 2.5.2 2.5.2 5 .1 2.4.4 2.2.7 2 .8 1.4.5.7 1.5 1.7 3.4 3.3.7.8.8.9.9 1.3 1.6 2.5 1 1.2.7 1 1.7 1.6 1.3 1.3 2.2 1.8 1 1 4.2 4.2 1.5 1.5.7.8.3.6v1l-.3.9-.4.6-.4.3-.7.6-2.3 1.2-.7.5-.6.4-.4.5-.6.8-1.1 2-1.7 2.5-.7 1.4-.4 1.4v1.8l.1 1 .6 3 .2 1.7.1 1.5v2.7l-.6 6.7v2.7l.2 1.2.4 1.4.5 1.5 1 1.8.7 1.1 1 1.3 1.4 1.6 1.6 1.4 1.6 1.3 1.3.8 1.4.8 3.9 2.1v.4l.3 1.6.7 3.7.8 2.5.8 2 .9 1.8.8 1.3 1.2 1.7 2.6 3.3.6 1 .6 1.2.3.9.1.5.1 1v.6l-.3 1-.5.8-.7.9-.9.7-1 .8-2.6 1.4-7.4 3.6-7.2 3.8-3.4 1.8-4 1.7-4.2 1.6-1 .5-.7.5-.6.5-.3.3-.3.5-.2.8v1l.2 1.2.3 1 .3 1.2.8 1.8.4.8 1 1.3 1.3 1.7 4.7 5 1.4 1.6 1.3 1.6 2.9 4 .7 1 .8 1.5.7 1.6.4 1.2.3 1v3.1l-.4 1.2-.7 2.3-.2.9-.1.9v2.1l.6 4.3v1.8l-.3 1.7-.3.6-.7 1-.6.6-.8.6-1.3 1-1.3.8-1.3.7-1.6.8-1.2.4-1.4.2h-2.7l-2.4-.2-1.6-.2h-1.7l-2.5.2-2.4.3-2.7.5-2 .5-1.1.4-1 .5-1.6.9-1.8 1.4-1.7 1.4-1.7 1.6-1.5 1.6-1 1-.5.8-1.1 1.7-1 1.7-1 1.4-1 1.3-1 1.3-1.6 1.6-.5.4-.8.6-1 .6-1 .4-1 .3-3 .3-.6.2-.4.3v.1l-.4-.4-1-2-3-7.2-1.1-2.1-2.2-4-1-1.8-1.2-1.8-1.3-1.8-1-1.2-1-1-1.2-1.2-2.8-2.4-4.5-3.5-1.8-1.4-1.8-1-1.2-.6-1.6-.5-4.6-1-4.2-1.2-1.7-.4-2.4-.3-5.8-.5-2.3-.4-1.9-.4-5.1-1.5-2-.4-2.1-.3h-3l-1.6.2-3.2.5-4.4.9-6.8 1.6-6 1.1-4 .6-4.7.7-8.4 1-5 .6-5.7.3-5.4.3-10 .1-3.2.2-3.5.3-10 1v-.7l-.3-.8-.6-.8-.7-.9-1-.8-5.4-3.5-1-.7-.9-.9-1-1.4-.7-1.6L41-64l-2.5-8.5-2.2-7.4-.8-2.4-.8-2-.5-1-.8-1.7-3.5-5.8-3-5.5-2.7-5.6-1.7-3.8-.7-1.9-.6-1.6-.5-1.8-.5-2.5-.2-1-.2-2.1v-1.2l.2-1.2.3-1.1.4-1.2 1.1-2.4.3-.8.4-1.1.1-1v-.8l-.2-.4-.5-.1.5-.7.7-1 1-1.3 2.6-3 1.3-1.6 1.2-1.8 2.3-4.5.9-1.4.5-.7.4-.5 1.3-1.4 2.2-2 1.3-1.1 1-.9 1.3-1 1.6-.9 2.6-1.3 1.6-.7 1.4-.5 1.8-.4H51l3-.1 1.4-.1 2-.5.8-.4 1.5-1 1.7-1.4L63-162l8.7-10.7 1.4-2.1 1-2.1.4-1 1.5-5 .8-2 .8-1.6 1.6-2.6 4.4-7.4 2.8-4.8 2-3.7 1.3-2.6 1-2.1.6-1.8L94-218l4.5-11.7 1.3-3.5.8-2.4.5-1.8.8-3 .6-3.3.5-4 .2-1.3.4-1.2.6-1.6.6-1.2.9-1.2.8-1 .6-.3h1l.9-.2 3.8-1 5.4-1.5 5.3-1.6 3-.8 1.7-.4 2-.2h1.9l1.4.3 1.4.3 1.6.6 1.6.9 1.6 1 1.2.8 4 2.9 1.6 1 .7.4 1.6.8 1.6.7 1.6.5 2.4.7 2.7.4 1.5.2 2.4.1h3.4l1.7-.2 1.9-.4 1.5-.3 1.6-.6 3.3-1.3 6.8-3 3.2-1.3 2.9-1 2-.5 1.6-.3h2.1l1.2.2 3.2.4 3.7.8 1.4.2 2 .1h1.4l1.8-.3 1.9-.6 2-.7 5-2.1 1.2-.5.8-.2h.1"/></defs><g clip-path="url(#p4b43686866)"><use xlink:href="#maf1f512a43" y="280.5" fill="#0c1321" stroke="#0c1321"/></g></g></g></g><defs><clipPath id="p4b43686866"><path d="M7.2 7.2h278.1v266.1H7.2z"/></clipPath></defs></svg>