<svg xmlns="http://www.w3.org/2000/svg" xmlns:xlink="http://www.w3.org/1999/xlink" width="405.9" height="374" viewBox="0 0 304.4 280.5"><defs><style>*{stroke-linejoin:round;stroke-linecap:butt}</style></defs><g id="figure_1"><path id="patch_1" fill="none" d="M0 280.5h304.4V0H0z"/><g id="axes_1"><g id="PatchCollection_1"><defs><path id="m505ece62c2" stroke="#0c1321" d="M246.5-216.4v.4l.4.7.6.6 1.4 1.3 2 1.2 4.8 2.6 1.4.9 6.6 4.3 1.9 1 2.3 1.2 2.3.9 5.2 1.9 2.6 1 1.4 1 .8.5.7.7.5.8.5 1.1.2 1.3v3.3l-.4 2.8-1 5-1 4.4-.9 3.3-1.7 5-.4 1.5-.4 1.5-.1 1-.1 1.2v1.6l.4 1.1.3.6.4.6.4.4.7.5.6.3h.7l.4-.1 1.3 4 .4 1.4.7 3 .6 3 .4 2.9.4 2.9.2 2.9v4.1l-.3 2.6-.4 2.7-.3 1.3-.3 1.1-.5 1.1-.5 1-.8.7-.9.4-1 .3-1.2.1-4.9.4-6 .7-2.6.4-8.4 1.4-3.7.5-5.4.7-5.8 1.8-3.2 1.2-3.2 1.3-3.3 1.5-3 1.7-2.6 2-1.8 1.5-1.7 1.7-1.6 1.7-1.5 1.8-1.4 1.8-1.5 2.3-.8 1.4-.7 1.5-.8 2.1-.6 2.3-.3 2.3v2.4l.1 2.3.5 2.5 1 4.1.6 3 .4 2.6v2.8l-.2.9-.2.8-.3.7-.4 1-.8 1.1-.6.7-.5.5-.8.6-.9.6-1.6.9-2 .7-4.8 1.6-2.8 1.1-8.2 3.6-6.8 3-5.7 2.5-6.2 2.6-2.1 1-1.9 1.2-.9.6-1.6 1.3-.6.5-1 1.4-.6 1.4-.2 1.2v1.2l-.4 1-.4.6-1 .7-.5.3-1.3.3h-.8l-1.2-.2-2.4-.6-1.1-.2h-4.6l-3.7.7h-2l-1.3-.4-2.2-1-1.1-.4-1.2-.1-1.3.4-1.1.9-.8 1.2-2.6 4.9-.5.6-.8.3h-1.1l-1.2-.5-3.5-2-.6-.2-1.2-.4-1.4-.4-1.5-.3-2.7-.3h-2.7l-6.5.7-4.4.8-1.8.4-1.8.5-1.9.6-4 1.6-4.5 1.6-2 .8-3.4 1.7-2.3 1-1.6.7-3.8 1.1-2 .6-2.5.5-2.4.3h-2l-1-.2-.5-.3.2-.3v-1.2l-.2-.3-.8-1.6-.8-.9-.9-.8-1.5-1.1-1.2-.8-2.3-1.3-5.1-2.5-1.3-.8-1-.8-.8-.9-.2-.4-.1-.8.4-.6.7-.3 1-.3h1l4.3-.4 2.1-.2 2-.5 1.8-.9 1-.9.8-1.1.7-1.4.5-2v-1.8l-.5-1.7-.8-1.2-1-1-1.3-1-2.8-2-2.5-2-2.9-2-1-.9-1-1-3.6-3.7-3-3.5-1.7-2.1-1.1-1.5-1-1.5-1.2-2-3.1-6.1-.6-1.2-.5-1.2-.4-1.1-.2-1-.5-3.6-.4-1.9-1-2.2-1.3-2.3-1.7-2.3-5.7-7.3-1.8-2.6-1.6-2.7-1.3-2.8-.8-3-.5-3-.3-3.2-.1-3.3v-3.2l.2-8.4.3-3.3.5-3 .3-1.8.4-1.7.6-1.8.6-1.6 1.2-2.5 3-5.3.8-1.5.6-1.5.5-1.7.6-2 .3-1.8.2-1.7v-4.4l-1.3-11.6-.3-3.2-.2-5v-7.6l.3-3 .1-1.1.1-.5 3.2-6 1.8-3.6 1.7-3.7 1.3-3.2.5-2 .6-2.8 1.2-9.5.6-3.2.3-1.3.4-1 .4-1 .4-.9.5-.6.5-.4.7-.4.9-.3H49l1-.2 1-.4.7-.5.5-.8.2-.9v-.9l-.2-.9-.4-.9-2-3.6-.7-.7-.4-.5-1.3-1-.4-.4-.3-.6v-1.8l.4-1 .4-1 .9-1.7.3-.7v-1l1.2.1 4 .7 2.3.5 2.7.7 1.7.5 3.6 1.3 8.5 3.5 3.5 1.3 3 1 2.8.9 2.8.6 3 .2 3.1-.1 5.4-.3 2.4-.1h8l6.6.3 3.2.2 3.8.4 2.6.3 2.5.4 2.5.5 2.5.7 2 .7 1.4.7 1 .6 1.6.8 1.7 1.2 2.2 1.7 6 5.1 1 1 1 .9.7 1 .7 1.1.5 1.2.3.8.4 2 .4 3.5.4 2.7.4 2 .3.8.4.9.3.6.5.7.5.5.8.7.7.4 1 .5 1.1.5 1.5.4.8.2 1.7.3 2.6.1h2.3l1.9-.3 2.3-.6 1.3-.5 1.3-.6 1.3-.7 3.7-2.3 5.4-3.3 5.9-3.4 6.1-3.3 3.1-1.5 3.2-1.5 3.2-1.4 3.1-1.1 3.2-.9 3.2-.4h3.2l3.1.8 3.1 1.2 3 1.7 3.2 2 3 2.4 3 2.4 2.9 2.5 6.5 6 .7.4"/></defs><g clip-path="url(#p2e8dcf0058)"><use xlink:href="#m505ece62c2" y="280.5" fill="#0c1321" stroke="#0c1321"/></g></g></g></g><defs><clipPath id="p2e8dcf0058"><path d="M7.2 7.2h290v266.1H7.2z"/></clipPath></defs></svg>