<svg xmlns="http://www.w3.org/2000/svg" xmlns:xlink="http://www.w3.org/1999/xlink" width="365.7" height="374" viewBox="0 0 274.3 280.5"><defs><style>*{stroke-linejoin:round;stroke-linecap:butt}</style></defs><g id="figure_1"><path id="patch_1" fill="none" d="M0 280.5h274.3V0H0z"/><g id="axes_1"><g id="PatchCollection_1"><defs><path id="m6425fda420" stroke="#0c1321" d="M255.1-187h.2l-.2.6-1.5 2.5-1.7 3.7-1 2.7-1 3.5-1 2.4-1.4 3.3-2.7 5.5-1.4 4.4-.7 1.5-1.5 2.3-.7.7-.8.6-.9.3-2.2.2h-5.2l-1.7.3-.6.3-.5.4-.4.7-.2 1v1.2l.2 1.2.7 2.6 1.4 3.4v.8l-.5.3h-1.3l-3-.2-3.7-.5-4.1-.7-10.3-2.1-3.3-.5-4.2-.2-4.5.3-2 .3-2.2.5-2.1.8-1.2.6-2.5 1.6-2.6 2.3-1.6 1.8-1 1.2-1.4 2.3-1.3 3.1-.6 3.5-.2 7.5-.2 1.8-.4 2.7-.8 2.6-1 2.6-1.6 2.7-2.4 3.5-1.7 2-2.5 2.6-3 2.4-6.2 5-3.4 2.6-3.4 2.3-3.6 2.1-4.5 2.5-6.6 4-5.3 3.6-2.8 2.3-3.2 3.3-2.6 3-8.6 10.9-4.7 5.5-3.7 3.9-3.2 2.8-4 3-4.5 2.7-5.2 3-16.7 8.4-4.7 2.6-3.4 2-.6.8.1.4-.4.1h-.7l-2-.3-9.6-2.2-7-1.9-4.2-1.5-1.9-.8-2.6-1.6-1-1-1.3-1.2-1.8-2.4-1-1.8-.9-1.9-7-19.3-1.3-4.3-.5-3.5v-2.2l.1-3.7.8-4.5 2.5-11.1.5-2.3 1.3-4.2 1.8-4.6 2.4-5.1 3.4-6.2.9-2 .7-2.2 1.2-4.6 1.5-7.4.7-4.1v-.7l.2.2 1 .2 1.8-.1 2.3-.7 1.2-.7 1.7-1.1 2-2 1.6-2.2.5-1 1-2.7.2-2v-4.1l-.4-2-1.8-7.2-.4-2.5-.1-1.5v-1.5l.3-1.8.5-1.7.7-1.6 1-2 2.2-3.2 6-8.4 1.8-2.3 2-2 2.3-1.9 5.7-4.3 11.2-7.6 4.4-3.4 3.6-3.2 2.2-2.1 4-4.5 4-5.3 2.7-4 2.7-4.9 5.5-10.7 3.3-5.6 5.5-8.1 7.1-10.2 1.4-2.1.8-1.5 9.6 3.7 6 2.6 3.3 1.5 6.1 3.2 3 1.6 5.6 3.5 2.7 1.8 2.4 2 1.7 1.6 6.8 6.8 6.4 6.2 3.8 4 4.9 5.9 6.6 8.9 2.2 2.7 2.5 2.7 3 2.7 2.4 1.7 2.4 1.6 2.6 1.3 2.6 1.1 2 .7 8.2 2.2 6.4 1.4 3.2.6 5.2.7 14.9 1.4"/></defs><g clip-path="url(#p6acfa1f951)"><use xlink:href="#m6425fda420" y="280.5" fill="#0c1321" stroke="#0c1321"/></g></g></g></g><defs><clipPath id="p6acfa1f951"><path d="M7.2 7.2h259.9v266.1H7.2z"/></clipPath></defs></svg>