<svg xmlns="http://www.w3.org/2000/svg" xmlns:xlink="http://www.w3.org/1999/xlink" width="367.9" height="374" viewBox="0 0 275.9 280.5"><defs><style>*{stroke-linejoin:round;stroke-linecap:butt}</style></defs><g id="figure_1"><path id="patch_1" fill="none" d="M0 280.5h275.9V0H0z"/><g id="axes_1"><g id="PatchCollection_1"><defs><path id="ma834fc817e" stroke="#0c1321" d="M211.5-257.8h.5l.4.2.5.3.7.4.7.6.8.6.8.8.8.8 1.1 1.4.9 1.1 1.5 2.2 1 1.4 1.2 2 .8 1.5.9 1.6 1.3 2.8.8 1.9.5 1.3.6 2.1.6 2.3.5 2.4 2.1 10.7 1.7 7.2 1 3.6.7 2.6.8 2 .5 1.2.5.8.5.8.8.7.3.3.5.3.5.2.6.1h1.9l.9-.3.5-.2.8-.4.6-.3 2.3-1.6 1-.6 1-.6 2-.9 1.5-.5 1-.3 1.1-.3h1.4l.5.1.8.9.4 1.3.2 1.8v2l-.5 2.1-.7 2.3-.9 2.3-1.1 2.4-1.2 2.4-5 8.9-1 2.2-1 2.2-.8 2.1-.6 2.3-.3 2.2v2.4l.5 2.5.8 2.7 1 2.8.7 2 3.6 8.6 1.1 3.2.4 1.4.4 1.3.3 1.4.2 1.4v3.3l-.5 1.3-.8 1.4-1.2 1.3-1.3 1.2-3.5 2.8-3.5 3-3.5 3-7 6.4-2.5 2.3-1.6 1.2-2 1.4-1.7 1.1-3.7 2.3-6.8 3.7-9.7 5-1 .6-1.9 1.1-1.7 1.3-1.6 1.3-1.3 1.3-1 1.5-.6 1.5-.1 1.5.3 1.7.6 1.6.7 1.7 1 1.7.8 1 .8 1 .7.8.7.7 1.7 1.2 3.4 2.1 1.2.9 1.1 1 .8 1 .6.8.6.8.9 1.4 1 1.7.5 1.1 1 2.4.6 1.6.5 1.8.3 1.3.1 1 .2 1.5v1.5L214-53l-.1 1.8-.2 1.3-.3 1-.3.7-.8 1-1 .5-1.2.3-1.3.2h-1.3l-4.8-.2h-3.3l-1.5.5-.7.3-.5.4-1.2 1-1.8 2.3-.7.8-1.3 1.2-1.5 1.1-.8.5-1.8 1-1.6.9-1.7.7-3.2 1.2-2.3.8-2.7.8-3.4 1-1.8.3-8 1.6-1.4.3-1 .4-1 .3-1.7.8-3.6 2-1.7 1-.6.5-.1.2-.4-.5-2.3-3.8-1.6-2.4-1.5-2.2-1.7-2-1.8-1.8-1.9-1.4-1.2-.6-1-.2-2-.2-2.3.2-2.2.6-1.8.6-10.3 4.1-10.5 4-4.8 2-2.4 1-3.8 1.8-6.5 3.1-2.2 1-2.6 1-1.7.5-1.7.3-1.2.1h-1.3l-1.2-.3-1-.3-.7-.3-1.1-.6-.8-.5-1-.8-1.1-.9-.8-.7-1.1-1.1-1.5-1.6-.8-1.1-1-1.5-1.4-1.9-1.6-2.5-4.1-7-3.7-5.9-.7-1.3-3.2-6-1-2.5-.9-2.3-.7-2.4-1.3-5-2.3-9.1-.7-2.4-1.6-4.5-.9-2.3-1-2-1-2-.8-1.4-.8-1.2-.7-.7-.7-.8-.4-.4-1-.7-1.2-.4-1.2-.1-.8.2h-.2v-1.7l-.1-1.5-.3-1.6-1.1-6.6-.3-2.8v-2.9l.1-1.5.3-1.5.3-1.6.5-1.5.6-1.5 1.1-2.1.7-1 4.2-6 1.4-2 2-2.7 1-1.4.5-1 .4-.8.5-1.5.3-1.6v-2.8l-.4-2.8-1-5.9-.3-1.7v-4l.9-8.1.2-4.7.3-2.8.2-1.6.4-1.7.4-1.7.8-3 .1-1.3v-1l-.2-2.2-.4-3-.2-1.1-1-3.7-.3-1.2-.3-1-.6-1.2-1.5-2.7-.6-1.2-.6-1.7-.3-1.1-.3-1.3-.3-1.8-.7-4.1-.7-3-.4-1.2-1.2-3.2-.7-2-1-3.4-1-3.6-1-2.8-1.7-5.3-.7-2.3-.9-2.2-.9-2-1.3-2.5-1-1.6-1.2-1.1-3.4-2.2-3.6-1.6-1.3-1.2-.5-1.9.4-2 2.2-1.5 10.2-3.1 8.2-.8 7.7-.6 4.4-.2 4-.2 18.1-.3 5-.1 3.7-.2 1.4-.2.3-.1v.6l.2.7 1.1 5 .7 2.3.7 2.3.9 2 .5.9.7.9 1 1.3 1 1 .7 1 .7 1.3.5 1.5.2 1.3.2 2.6.2 1 .4 1.3.6 1.3 1.4 2.6 1.9 3.6.7 1.2 1.5 2 2 2.4 1 1.1 1.4 1 .6.4 2 .8 1.7.5 1.9.3 2 .2 1.9.1h5.4l1.4-.1 1.4-.2 1.6-.4 1.6-.5 8.3-2.8 1.2-.4 1.4-.7 1.3-.7 1.3-.9 1.4-1.2 2.1-2 .5-.5 1.2-.7 1.3-.7 1.4-.6 1.6-.5 1.6-.4 1.7-.4 2.3-.3 3-.4 5.2-.3h4l4.9-.4h4l1 .2 2.3.6 1 .2 1-.1 1-.4.7-.7.9-1.2.5-1.1.5-1.2 1.3-3.5.6-1.4.7-1.7 2-3.8 1-1.8 1-1.5 1-1.4.8-1 1-.8.6-.5 2.3-1.5 2.6-1.1 2.8-.9 2.7-.7 2.4-.5 2.1-.2h1.6"/></defs><g clip-path="url(#p4e94ef0bed)"><use xlink:href="#ma834fc817e" y="280.5" fill="#0c1321" stroke="#0c1321"/></g></g></g></g><defs><clipPath id="p4e94ef0bed"><path d="M7.2 7.2h261.5v266.1H7.2z"/></clipPath></defs></svg>