<svg xmlns="http://www.w3.org/2000/svg" xmlns:xlink="http://www.w3.org/1999/xlink" width="350.6" height="374" viewBox="0 0 262.9 280.5"><defs><style>*{stroke-linejoin:round;stroke-linecap:butt}</style></defs><g id="figure_1"><path id="patch_1" fill="none" d="M0 280.5h263V0H0z"/><g id="axes_1"><g id="PatchCollection_1"><defs><path id="m3055c06ce5" stroke="#0c1321" d="M133.6-243.2h.2l.2.1.2.5.2.5.4 1.2.5 2.3.6 3.3 1.5 10.1.7 4.1.7 3.7.4 1.6.5 1.4.3.7.4.6.8.8 1.2.7 1 .5 1 .2.8.1.9.1h1l1-.1 8-1 3.8-.2 4.8-.3 1.5-.2.8-.1 1.8-.5 1.7-.7 2.6-1 1.4-.5 1.5-.4 1.6-.3 2-.3h3.6l1.6.3 1.5.5 1.4.5 1.1.5 1 .6 1.6 1 .6.7 1.3 1.6 1 1.9 1 2 2.5 6.5 1 2 .7 1.4.7 1 .7 1 .7.8.8.8.7.5.9.7 1.2.7 2 1 4.4 2.1 1 .6.8.6 1.2.8 1.3 1.2 1.4 1.4.8 1 1 1.2.7 1 3.2 5.4 1.7 2.6 1 1.4 2.2 2.9 1 1.3 4 5.8 4.1 6.4 1.2 2 .7 1.4.7 1.6 1 2.9 2.3 7.3.7 2.6.3 1.8.2 1.3.2 2.9.1 1.8v5l-.2 2.2-.2 2-.4 3.2-1 6.5v.9l-.1.6-.4 1.4-.7 1.5-.5 1.1-1.4 2.9-1 1.7-1.5 2.5-.8 1-.4.5-1 1-1.2 1.2-1.4 1.2-3.8 2.8-1.1 1-1.2 1-1.9 1.9-3 3-3.7 3.8-1.7 1.9-1.4 1.7-1 1.5-.9 1.2-.5 1-.4.9v.6l-.3 2-.1.9-.3.7-.2.2-.2.1-5.1 4.3-4.5 3.5-6.1 4.6-3 2.1-1.3 1-2.4 1.5-1.4.8-2.8 1.5-6.3 3.3-2.8 1.6-7.7 4.4L164-36l-2.6 1.7-2.6 1.8-2.3 1.5-3 2.3-3.3 2.5-4.5 3.8-1.7 1.3-.9.6-.7.4-.8.3-.7.3-.8.2h-1.3l-1.4-.7-1.3-1.1-.6-.8-1-1.4-1-1.7-1-1.8-.9-2-.9-2-1.7-4.3-1.4-4-2.4-6.8-1-3-2-7-1.9-6.4-1.6-4.9-.8-2.2-.8-2.2-.7-1.7-.8-1.6-.7-1.3-.8-1-.8-.4h-.8l-.3.3-.7.5-.8 1-.6.6-1.5 2.3-.7.9-.8.8-1.3 1-1.4 1-1.7 1-1.8 1-1.8.6-1.3.5-1.5.3-1.5.3h-1l-1 .1-4.4-.1h-.8l-1.5.3-.9.2-1.6.6-1.2.6-1.2.9-1.2 1.1-1 1.5-1 1.7-.8 1.8-.5 1.8-.3 1.6-.9 4.8-.2.9-.2.6-.2.2-.9-.9-2-1.8-2-1.8-1.9-1.5-1.5-1-.8-.6-1.1-.7-1.5-.8-.7-.4-1.8-.7-1.5-.6-1.4-.4-2.4-.5-3.8-.7-1.2-.4-1-.3-.8-.3-1-.5-1-.6-.8-.7-.4-.3-.5-.5-.3-.6-.4-.8-.1-.8v-1.7l.5-2.8.1-1v-1.5l-.2-.6-.4-.8-.8-1.4-3-4.2-.9-1-1.2-1.2-1.5-1.2-1.5-1-1.6-.8-2.3-1.1-2.2-1-3.8-1.5-1.3-.6-1.3-.7-.8-.6-.8-.9-.6-.7-.5-.8-.5-.9-.4-1.1-.2-.8-.3-1.3-.1-1.4v-1.6l.2-1.2.4-2.1.7-3 .3-1.2.7-1.8.7-1.5.3-.6.6-1 .6-.8.5-.7.7-.7.8-.8.8-.7.9-.5.8-.4.8-.4 1-.3.9-.2h2.7l.7.2 3.3.9 1.1.2 1.3.1h2l1.3-.2 1.9-.3 1.4-.4 1.8-.6 1.7-.8.9-.5 1.6-1 1.2-.9 3-2.3 1.8-1.5 4.9-4.8 1.6-1.4.8-.7 1.7-1.3 2-1.4 1.9-1.2 2.5-1.4 2-1 2.8-1 3.2-1.2 5.1-1.6 2.3-.6 2.6-.7 6-1.2 1.6-.4.8-.3.4-.3.6-.4.3-.3.4-.5.4-.7.2-1 .1-.7v-5.9l.1-1.8.2-1.6.4-1.9.3-1.2.5-1.9 1-2.8.3-1 .1-1v-1.2l-.2-1.6-.5-1.2-.7-1.6-.7-1.3-2-3.4-.9-1.7-2-4-1.2-2.3-1-1.6-1-1.3-.7-1-2.1-2.6-.6-.9-1.2-1.7-1.1-1.9-1.2-2.2-.6-1.3-1.2-2.9-.7-1.6-.8-1.6-1-2-.6-1-1.4-2.3-3-4.6-3-4.6-5.6-7.9 19.4-14 15.9-11.6 2.9-2 2.8-2 1.4-.9 1.4-.8 1.4-.6 1.3-.4 1.3-.1 1 .2 1 .5.7.6.6.8.5 1 .5 1 1 2.6.7 1.4.8 1.5 1 1.4 1.1 1.3 1.2 1.3 1.4 1.3 1.2 1 1.7 1.3.7.5.5.3h.2"/></defs><g clip-path="url(#pf4ca1808c6)"><use xlink:href="#m3055c06ce5" y="280.5" fill="#0c1321" stroke="#0c1321"/></g></g></g></g><defs><clipPath id="pf4ca1808c6"><path d="M7.2 7.2h248.5v266.1H7.2z"/></clipPath></defs></svg>