<svg xmlns="http://www.w3.org/2000/svg" xmlns:xlink="http://www.w3.org/1999/xlink" width="383.6" height="374" viewBox="0 0 287.7 280.5"><defs><style>*{stroke-linejoin:round;stroke-linecap:butt}</style></defs><g id="figure_1"><path id="patch_1" fill="none" d="M0 280.5h287.7V0H0z"/><g id="axes_1"><g id="PatchCollection_1"><defs><path id="mb6594b0e08" stroke="#0c1321" d="m267.9-86.8-.2.1-.3.4-.6.8-.6 1-1.9 3.7-.8 1.5-1 1.8-1.9 2.7-3.2 4.3-2.3 3.5-6.9 11.3-2.6 4.1-1.7 2.4-1.6 2.1-1.2 1.4-1.1 1.4-2.2 2.3-1 .8-1 .9-1.4 1-1.5 1-1.2.5-1.5.7-2.2.8-3 .9-2.8.7-3 .6-2.6.5-1.3.1h-2.8l-1-.2-1.2-.3-1.1-.4-1.7-.8-3.2-1.6-2.6-1.5-5.5-3.5-1-.5-1.4-.5-1.4-.3h-1.7l-1.8.6-1.7.7-1.7 1-1.6 1-1.4 1.2-1 .8-.4.5-.2.2-1.1-.9-1.8-1.3-1-.6-1-.6-1.2-.4-.7-.2-1-.2-1.6-.2H170l-1 .1-1.3.3-1.7.6-1 .5-.9.7-2.5 2-1.4 1-1.5.7-3.9 1.5-5 2.2-4.2 1.5-1.6.6-1.5.4-3.4.7-6.1 1-1.8.2-3.4.3-2.2.4-3.6 1-1.1.4-1.2.6-2 1-1 .6-.7.3-.6.2-.8.1h-1.2L112-23l-1.1-.6-1-.6-1.5-1-.5-.4-1-.4h-2.2l-4 .5-1.8.2-5-.2h-1.5l-1.5.2-2 .2-5.3.8-2.7.2-2.3.2h-4l-9.3.1-2.8.2-2.5.3-2.7.5-3.3.9-6.3 1.9-1.6.4-1 .2h-.6l-1.7.1-1.5-.3-.6-.4-.4-.3-.5-.6-.6-1-.7-1.2-1.2-2.5-.8-2-.6-2.2-.6-3.5-.6-2.6-2.2-8-1-4.8-.3-1-.7-2-.4-.8-2-4.3-.5-1.5-.4-1.4-.7-3.2-.6-3.6-.5-4.2-.5-6-.2-1.9-.3-1.6-.2-.7-.9-2.8-1-2.5-1.3-3.4-.6-1.7-.4-1.3-.2-1-.2-1v-2.6l.1-1.4.2-1 .5-1.9.4-1.3.5-1.4 2-4.4 1-2.5.7-2.2.7-2.5.4-2.1.4-2.3.6-5 .6-6.5.2-1.6.3-1.6.6-2.3 2.3-8 .8-3.4.8-3.6 1-5.1.6-2.7.8-2.4.5-1.3.5-1.2h.4l1-.2 1.7-.6 1.8-.7 1.5-.6 2.5-1.3 2.5-1.5 2-1.4 2-1.4 3-2.5 1.4-1.3.9-1 2.5-3 1-1.3 1.6-1.6 3.5-3.1.8-.8.8-1 .5-.8.4-1 .4-1.2.8-4 .5-1.4.7-1.1.6-1 1.6-2 .8-1.1.6-1.2.2-.4.3-1.4.4-3 .3-1.6.5-2 1.4-4.8.7-3.4.8-3.4.2-1.5v-2.2l-.1-1-.4-2.3-.1-1v-.8l.1-1.2.3-1 .2-.7.6-1.3.4-.7.4-.7.4-.4.5-.5.6-.3.3-.3 1.8-3 .7-1 1-1.4.9-1.1 1.3-1.5 1.9-1.6 1.8-1.4 1.5-1 1.5-1 1.7-1 1.6-.9 1.7-.8 3.5-1.6 1.7-.7 3.2-1 1.6-.6 3.7-1 2-.3 1.9-.3 3.9-.6 2.9-.2 2.9-.2 2.8-.1h6.4l2.8.3 2.7.4 1.7.3 1.7.5 1.3.5 1.2.6 1.1.7 1.4 1.5 1.1 1.7.9 2 .6 2 .4 2 .4 4 .2 2.1v4.1l-.2 1.8-.2.9-.3 1.3-1.2 3.2-.4 1.3-.2 1-.1 1.2v2.8l.3 1.5.7 4 .3 2 .4 4 .7 4 .4 2.2.7 2.7.8 2.8 1.2 3.2.3 1.1.2 1.1.2 1.6.2 2.5.2 1.6.1.5.7 1.9.9 1.9 1.9 3.4 2.6 4.3 1 1.6 1 2 .5 1.2.6 1.6.8 2.1 3 9.4.8 2.4.9 2.4 1 2.3.6 1.5 1.7 3.1 2.5 4.4 1 2 .6 1.3.5 1.2.9 2.4.4 1.3.2 1.2v.8l.1.8-.1 1-.3.9-.7 1.3-.7.9-1 .9-.4.3-1.5 1-1.9 1.1-1.6 1-1 .7-.9.9-.8.8-1.1 1.4-1.4 1.9-1.4 2.1-1 2-.7 1.6-.2.9-.1 1v1l.2 1.5.3 1.1.3.9.7 1.5 1 1.5.8 1.1.6.6.4.3.7.5.3.1.6.2h1.2l.9-.1 1.1-.5 1.2-.6 3.2-1.6 1.9-1 1.6-.5 1-.2.7-.1h1l2 .2 2 .7 2.2 1 4 2 2.1 1 2 .5 2 .1 1.6-.4 1.6-.7 1.6-1 1.5-1.3 1.4-1.4 1.5-1.6 1.3-1.7 1.7-2.2 1.6-2.3 4.7-7.1 1.6-2.3 1.6-2 1.6-2 1.7-1.5 1.7-1.1.9-.3 1.2-.3h3.4l1.7.2 1.5.3 1.5.4 1.3.3 2 .7 1.9.7 3.8 1.8 1.5.8 2 1.3 1.1 1 .8.8.7 1 .8 1 1 1.8 1 1.6 2 3.7 1.8 3 1 1.8 1.4 2 1.2 1.9 1 1.8 1.2 2 .4.8.4 1 .6 1.6.7 2.5.4 2.5.2 1.4v3.4l-.1.1"/></defs><g clip-path="url(#p0a1d468bfe)"><use xlink:href="#mb6594b0e08" y="280.5" fill="#0c1321" stroke="#0c1321"/></g></g></g></g><defs><clipPath id="p0a1d468bfe"><path d="M7.2 7.2h273.3v266.1H7.2z"/></clipPath></defs></svg>