<svg xmlns="http://www.w3.org/2000/svg" xmlns:xlink="http://www.w3.org/1999/xlink" width="292.3" height="374" viewBox="0 0 219.3 280.5"><defs><style>*{stroke-linejoin:round;stroke-linecap:butt}</style></defs><g id="figure_1"><path id="patch_1" fill="none" d="M0 280.5h219.3V0H0z"/><g id="axes_1"><g id="PatchCollection_1"><defs><path id="m71ff2fd3b7" stroke="#0c1321" d="m162-261-.7 3-.3 2.3v4.9l.2 5.4.3 6.4.3 2.7.2 2.3.7 4 .9 4.3.6 2.7.6 2.2.7 2 .6 1.9 1.4 3.4 1.6 3.6 1.7 3.4.7 1.5.5 1.4.3 1.6.1.7v1.9l-.2.9-.5 1.3-.5 1-.5.8-1 1.5-1.5 1.6-1 1-4.6 4-2 1.8-1.5 1.7-.7.9-.8 1-.9 1.5-.6 1.5-.4 1.1-.2.9-.2.6v2l.1.7.4 1.5.2.8.4 1.3 1.1 2.3 1.3 2.4 1.4 2.3 2.5 4 1.5 2.3 2 2.8 5.4 6.9 1.8 2 1.9 2.2 1.7 1.9 1.8 1.6 1.8 1.6 3.6 2.9 2 1.7.8 1 1.5 1.6 1.3 1.6 1.1 1.5 1 1.5 1.2 2.2 1.4 2.7 1.3 2.8.9 2 1.4 3.5.7 2.2 1.2 3.7.9 3.6.7 3.5.5 3 .4 3.4.2 4v4.9l-.4 4.3-.9 6.5-.4 5-.2 1.7-.2 1.2-.2 1.5-.5 1.3-.7 1-.8.5-.7.1h-.4l-1.1.3-1.3.6-1.1.5-1.7 1-1.5.8-2 1.4-5.4 3.7-3.6 2.5-2.2 1.4-5 2.9-8.8 5.6-2 1.1-1.9 1-1.7.7-1.5.5-1.8.5-2 .4-1.6.1-1.8.1h-1.8l-2.3-.4-1.2-.2-1.5-.5-.9-.3-1-.6-.8-.6-1-.8-.7-.7-.6-.7-1.9-2.6-.8-1-1.2-1.1-1.6-1.4-1-.7-1.1-.5-.8-.2h-1.3l-1.4.3-1.4.5-1.4.7-.7.4-1.5 1-1.3 1.3-2.7 3.2-.7.7-2.3 2.2-1.3 1.1-1.8 1.4-1.4 1-2.4 1.8-3.5 2.3-6.7 4.1-1 .5-3 1.4L90-23l-2.6 1-1.4.4-1.8.5-2.3.5-3.8.7-4.2.5-3.7.2h-4.9l-2-.2-1.2-.2-1.6-.3-1-.2-.5-.2v-.1h-.4l-.4-.5-.3-.5-.4-1-.4-1-.5-1.8-.8-3.2-.6-2.9-1.1-6-.6-3.5-.4-3.8v-8.5l.2-9v-5.3l-.3-2.6-.3-2.6-.5-2.6-.7-2.5-.8-2.4-1.2-2.6-.6-1.3-1-1.6-.9-1.6-1-1.6-2.2-3.3-1.8-2.4L40-97l-3.2-3.8-3.6-4-1.7-1.9-2-2-3.3-3-1.5-1.6-1-1-1.3-1.5-1.2-1.7-1-1.3-.7-1.4-.8-1.5-.7-1.5-.7-2-.4-1.5-.3-2-.2-2.2v-2l.2-.7.3-1.9.5-1.8.6-2.2 2.5-6.7.8-2.5.4-1.5.4-1.6.5-2.8.3-2.8.2-3.2.7-15-.2-2.5-.3-2.6-.4-2.6-1-5-1.3-5.6-.2-1.7-.1-1.5v-4l-.3-1.1-.2-.5h.2l.6-.1.7-.3 1-.5 2.8-1.6 3.3-2 2-1.4 2.1-1.5 2.5-2 2.3-2.1 2.2-2.3 2.1-2.3 4.1-4.8 4-4.7 11.4-14.2 3.8-4.6 2-2.1 2-2 2-2 2.2-1.7 2.3-1.4 2.3-1 2.3-.7 2.5-.6 2.5-.5 2.6-.3 2.6-.3 3-.2 2.9-.1h7.3l2.9.2 1.5.2 3 .4 1.5.2 2.2.5 2 .6 3.5 1.4 1.6.6 1.6.5 1.7.4 2 .3h2.3l1.7-.3 1.7-.3 3.8-.8 2.4-.7 5.1-1.5 2.9-.8 3-.7 2.8-.7 2.7-.4 2.5-.3h3.9l.2.1"/></defs><g clip-path="url(#p05d150605b)"><use xlink:href="#m71ff2fd3b7" y="280.5" fill="#0c1321" stroke="#0c1321"/></g></g></g></g><defs><clipPath id="p05d150605b"><path d="M7.2 7.2h204.9v266.1H7.2z"/></clipPath></defs></svg>