<svg xmlns="http://www.w3.org/2000/svg" xmlns:xlink="http://www.w3.org/1999/xlink" width="390.1" height="374" viewBox="0 0 292.6 280.5"><defs><style>*{stroke-linejoin:round;stroke-linecap:butt}</style></defs><g id="figure_1"><path id="patch_1" fill="none" d="M0 280.5h292.6V0H0z"/><g id="axes_1"><g id="PatchCollection_1"><defs><path id="mc2613e97a6" stroke="#0c1321" d="m244.2-225.2 4.5 6.4 2.6 3.8 2.4 3.7 1.1 1.8.5.8.9 1.7.6 1.3.6 1.3 1 2.4.4 1 1 1.8.9 1.5 1 1.5.4.7 1.8 2.1.6.8.7 1.1.8 1.3 1 1.9 1.7 3.2.7 1.4 1.7 2.8.5 1 .6 1.3.3 1 .2 1.3v1.9l-.3.7-.8 2.3-.4 1.5-.3 1-.3 1.6-.1 1.3-.1 1.4v5.4l-.3.8-.3.6-.3.4-.3.3-.4.3-.4.2-.6.2-1.3.4-5 1-2 .5-1.9.5-4.2 1.3-2.6 1-2.2.8-1.7.8-2 1.2-1.5 1-1.7 1-1.3 1.1-.7.6-1.4 1.1-4 4-1.4 1.2-2.5 1.9-.9.6-1.3.9-.7.4-1.4.6-1.4.5-1.2.3-1.6.3-1 .2h-2.7l-.9-.3-2.7-.7-.6-.1-1-.1h-1.2l-.7.2-.8.3-.7.2-.6.4-.7.4-.7.6-.6.6-.6.6-.5.6-.4.6-.5.8-.3.5-.5 1.2-.6 1.5-.2 1-.6 2.4-.3 1.7-.1 1v2.4l.2 1.1.2.7.4.9.3.7.4.7.5.5.7.7.6.5 1.1.6 1 .5 3.1 1.2 1.9.8 1.8 1 1.3.6 1.3.8 1.1 1 1 1 .7.7 2.5 3.5.7 1 .3.8v.5l.1.3v1.7l-.5 2.3v1.3l.2.7.2.6.3.5.4.5.3.2.7.6.9.5.7.4.6.2.8.3 1.1.2 3 .6 2 .5 1.1.3 1.3.4 1.4.6.6.3 1.2.7 1 .6.6.4 1.2 1 1.5 1.1 1.7 1.5 1.6 1.4.7.8v.2l-.5.3-2.5 1.6-1.5 1.1-1.2.8-1 .7-.5.3-1 .5-.2.1-.3.3-.2.3-.2.5-.4 1.6-.6 1.8v.4l-.2.8-.1.5-.4.6-.3.6-.2.2h-.2l-.4-.2-.6-.2-.8-.2-1.1-.2-.8-.1-1.2-.2h-3.7l-1.3.2-.8.1-1.5.3-2 .6-1.9.7-2 .8-5.8 2.7-6 2.7-2.8 1-6.5 2.3-1 .4-1 .5-.7.4-.5.4-.4.4-1 1.5-.7.8-1 1-.8.6-1 .6-1 .5-1 .3-1.8.6-3.7 1.2-1.7.5-2.9.6-4 .8-1.2.2h-2.3l-.5.1-1 .2-1.2.5-4.2 1.8-.8.4-1 .6-.8.6-1 1L158-36l-2.4 3-.9 1.1-1.2 1.2-2.1 2-.5.5-.6.7-.7 1-.5 1-.2.5-.2.7-.2 1.6-.2.5-.1.4-.3.4-.5.4-.6.4-.5.2-.6.2-1.1.4-1.6.3h-.7l-1.2.1h-2.5l-1.2-.3-.7-.1-1.2-.3-1.5-.5-.8-.4-.8-.3-1.2-.7-1.3-.8-1-.8-1-.8-1-1.2-1-1.3-1-1.8-.6-1-.8-1.7-.6-1.4-.3-1-.3-1-.3-1.4v-1h.2l.2-.2.7-.9.4-.7.6-1 .4-1 .6-1.3.5-1.5.4-1.3.5-1.7.4-2 .3-1.7.1-1.2.1-1.3v-2.9l-.2-.7-.2-1.2-.4-1.2-.5-1.3-.8-1.4-.9-1.3-.7-.8-.8-.7-.9-.8-1-.7-1-.6L116-69l-3-1.9-1.4-1-1.2-.9-1.5-1.1-1.2-1-1-1-.9-.8-.7-.8-.7-.9-.8-1-.8-1-.5-.9-1.1-2-.8-1.6-2-4.3-.7-1.6L97-92l-.4-1.2-.5-1.8-.3-1.5-.2-1.4v-1.9l.1-.8.2-.8.1-.7 1-3.3.4-1 .5-2 .1-1 .2-1 .1-1.5v-3l-.2-1.3-.4-1.5-.3-1.3-.6-1.5-.4-.9-.4-.9-.6-1-.9-1.3-.8-1-.5-.6-2.4-2.5-1-1-.7-1.1-.3-.5-.3-.6-.2-.5-.2-.7-.1-.6v-1.7l.4-.9.5-1 .3-.8v-1l-.1-.4-.1-.2-.2-.4-.5-.5-1-1-.3-.3-.1-.3v-1.2l.3-1.4v-.7l-.1-.2h-.8l-.9.3-1 .6-1.1.6-1.2.6-2.1 1.4-1.7 1.2-1.3.9-2 1.5-5 4.1-5.5 4.6-1.3 1-2.2 1.7-1 .7-1.7 1-1.6 1-1 .4-1.5.6-.8.3-1.6.4-1.2.2-1.4.2-1.6.2h-4.2l-4.7-.6-5.3-.9-1.7-.3-1.1-.4-1.1-.4-.6-.3-1.1-.8-1-1-1-1.3-.8-1.6-.6-1.7-.5-1.9-.5-1.9-.8-4-.7-4.2-1-6.4-.5-4.3-.2-2.1-.2-2.2-.1-2.2v-3.7l.1-.8.3-1.8.8-3.5.2-1v-2.4l-.1-1-.4-.9-.3-.3 8.5-4.4 2.4-1.3 2.6-1.6 4-2.3 3.2-2 2.2-1.5 4.7-3 2.9-1.9 2.7-1.6 7.5-4.4 3.8-2.4 12.6-8 5.1-3.3 5.5-3.6 4.6-3.1 6.1-4.2 9.1-6 2.8-2 3-2.2 1.1-.8 12.3-7.6 4-2.4 3.9-2.4 7.5-5 12.5-8.1 2 3.3.8 1.4 1 1.4.5.6 1 1.2.6.4 1 .9 1 .8.8.5.8.5 1.8.9 1.7.8 1.8.6 1.8.5 1.7.3.8.1.7.1h1.6l1.7-.2 1.6-.5 3.7-1.1 1.4-.4 1.6-.4 1.5-.2 1.5-.1h1.6l1.1.1 1 .2.9.2 1.5.6 1.5.6 1.6.7 1 .5 1.5 1 1.5 1.2 1.5 1.2 3 2.5 1.4 1.2 1.4 1 1.4 1 .6.2 1 .4 2.3.9 1 .5 1.1.7 1.5 1.2 2.4 2 .8.6.7.5.9.6 1.8 1 2 .8 1.7.6 1.8.5 1 .3h4.2l4.3-.9h1.8l.3.1.7.5.4.7.1.3.3.5.1.6"/></defs><g clip-path="url(#p0b0d299707)"><use xlink:href="#mc2613e97a6" y="280.5" fill="#0c1321" stroke="#0c1321"/></g></g></g></g><defs><clipPath id="p0b0d299707"><path d="M7.2 7.2h278.2v266.1H7.2z"/></clipPath></defs></svg>