<svg xmlns="http://www.w3.org/2000/svg" xmlns:xlink="http://www.w3.org/1999/xlink" width="262.9" height="374" viewBox="0 0 197.2 280.5"><defs><style>*{stroke-linejoin:round;stroke-linecap:butt}</style></defs><g id="figure_1"><path id="patch_1" fill="none" d="M0 280.5h197.2V0H0z"/><g id="axes_1"><g id="PatchCollection_1"><defs><path id="m0f84b22dac" stroke="#0c1321" d="m59-256.4.2.4.7.9 3.1 3.6.8 1 .3.4.3.5.4.7.3.7.2.7.2.8.8 3 .2.7.3.7.8 2 1.2 3 .5 1 .7 1.3.4.6.4.6.5.6.5.6.9 1 1 1.1.4.6.4.7.3.6.3.7v.6l.1.5v2.7l.1.6.1.5.2.5.2.3h.1v.6l.2.4.1.4.4.6.5.5.5.6.6.5 1.2 1 1.8 1.4 2.5 1.8 3.8 2.6 1 .7 1 .7 1 .5 1.2.7 2.5 1.3 6.4 3 2.3 1.3 1.1.6.6.4 1 .7.1.2.8 1 .5.6.6 1.2.8 1.7.4.8.5.6.8 1 .6 1h.2l.3.4.4.4.5.6.5.6.4.7.4.6.3.6.3.6.7 2 .3.5.3.5.4.4.4.3.7.2.6.2 1.3.1 2.4.1 1 .1.3.1.3.1.3.1.4.4.5.4.3.4.3.4.2.4.5 1 1.3 3.2.5 1 .5 1 .7 1 1.5 1.8 2.3 3.2 2.3 3.4 1 1.6-.4.4-.7.6-.9.7-.7.8-.5.7-.3.6v.9l.1 1 .4 1 .2.4.6.9.8 1 2.2 2.8 1.2 1.6 1.4 1.8 1 1.5.2.5.3.6.2.6v1.5l-.4.7-.4.8-.5.7-.6.7-.4.5-.7.6-.7.5-2 1.3-.5.4-.8.7-.8.7-.7 1-1 1-.6 1-1 1.4-.7 1.3-.8 1.5-.6 1.4-.4 1-.1.7-.1.4v1.9l.3.7.3.6.5.8.9 1.2.9 1.2.4.6.8.7.8.9.8.6.6.5.9.5 1 .5.7.3 2 .6 1.2.4 1.2.5 1.2.5 1.2.6 1.4.8.7.5.5.4.6.4.6.5.5.5.8.8.5.6.4.7.4.6.3.6.5 1 .3.9.2.8.1.6v1.4l-.1.6-.6.9-.5.6-.9.8-1.2 1-2.6 2-.8.7-.8.9-1 1-.9 1.1-.6 1-.4.6-.6.9-.4 1-.4.8-.3.9v.7l-.1.8v.6l.2.6v.4l.5 1.1.3.7.4.6 1.3 2 .6 1 .4.9.5 1 .3.6.3.8.1.7.2.5v.6l.2 1 .1 2 .1.9.1.5.3.9.2 1 .5 1.3.5 1 1.5 3.2 1 2.7.5.8.8 1.7.8 1.5.6 1 .7 1.1 1.3 2 .8 1.1.7 1 .8 1 .9 1 .9.8 1 .8.6.5.9.6 1.1.7 1.1.5.9.2 1.2.3 1.1.2 3.2.5 3 .6.6.1.7.2.4.2.5.2.7.4 1 .7 3 2.1 1 .8 1.2 1 .9.9.6.6.4.5.2.2v.3l-.1.2-1 .6-.7.5-1 .5-1.2.4-1.2.2h-1.9l-1-.1-3.9-.8-1-.2-.8-.4-1-.3-1.2-.5-1.3-.7-1-.4-.2-.1h-1l-.4.2-.3.3-.3.4-.3.6-.2.7v.8l-.1.7v1.9l.3.9.4 1.4.2.8.3.7.6 1.4v.3l.2.3v.6l-.2.2-.1.2-.2.2-.3.2-.3.1-.5.2-.9.1-1.9.3-1.6.2-2 .2-.8.1-.5.2-.6.1-1.4.6-.6.2-.6.1-.4.1-.2-.2-.6-.5-.8-.9-.7-.8-.5-.6-.4-.7-.5-.7-.4-.7-.4-.9-.3-.9-1.1-4.2-.2-.7-.2-.7-.3-.6-.6-1-.6-1.2-2-3.5-1.4-2.1-2.6-4.1-2.2-3.3L132-50l-1.7-2.3-.8-1.1-1-1.1-.8-1-1-.8-1-.7-1-.4-1-.2h-1l-1.2.2-1 .3-1.3.4-1.1.4-1.1.6-1.1.6-.7.6-2 1.6-.5.3-.3.2-.4.2-.6.2h-.6l-.5.1h-.8l-.5-.2-.4-.2-.4-.1-1.5-.8-.4-.2-.5-.2-1.1-.3-1.3-.2-1.2-.2h-1.7l-1 .1-1 .2-3.6.5-2.2.2h-2l-2.4.1h-3.6l-1.2-.2-.8-.1-1-.2-1.5-.4-1.6-.4-.8-.3-.7-.3-1.3-.5-.6-.2-1-.5-1.6-1-2.5-1.5-1-.7-1-.7-2.2-1.5-1-.8-.6-.3-.9-.5-.7-.2-.6-.2-.7-.2-2.8-.6-.8-.2-.7-.3h-.3l-.8-.6-.8-.6-1.8-1.4-1.6-1.3-2.4-2.2-1.3-1.2-1.3-1.1-1.3-1-1.2-.9-1.6-1-.9-.5-.3-.2-.8-.3-.9-.2-.8-.2-1-.1-1.1-.1h-2.1l-.9.2-1 .3-1.1.4-1.1.6-1.2.7-.8.6-.7.5-2 1.7-.2-.3-.3-.8-.3-1.4-.2-1.4V-78l-.3-3.4-.1-1.3-.2-1-.2-.9-.3-1-.1-.3-.3-.6-.5-.9-.5-.8-.4-.5-.6-.7-1-1-1-1-2.7-2.2-.5-.5-.3-.4-.3-.8-.2-.6v-1.4l.1-1 .2-.5.2-1 .4-1 .4-.8.6-1.2 1.2-2.2.5-.8.6-.9.5-.6.8-1 1.5-1.5.6-.6.7-.9.6-1 .3-.6.6-1.3.3-.8.3-.5.6-.7L28-118l.6-.8.6-.8.6-.8 1-2 1.7-2.6.6-1 .4-1 .2-1.2.1-1.2v-2.1l-.3-1-.2-.7-.5-1.2-.4-1-.6-1-.6-1-.5-.6-.7-1-.6-.8-1.2-1.3-1.7-1.8-.6-.8-1.1-1.3-1.3-1.8-1.1-1.4-.4-.6v-.2l.5.1 1.3.2h2.4l.6-.2h.7l.8-.2 1-.3 1.1-.3 1-.4 1.1-.5.9-.5.8-.7.6-.8.6-1.1.5-1.2.3-1.3.2-1.4.1-1.3.1-1.4v-5.7l-.2-1.3v-.8l-.3-1.1-.3-1.2-.2-.9-1-3-.5-1.1-.4-1-.7-1.2-.9-1-.9-1-.5-.3-1.1-.7-1.2-.6-4.8-2.3-1-.6-1-.6-.5-.4-.3-.5-.3-.5-.1-.6v-.6l.2-.7.4-.8.7-.7.7-.8.6-.4.2-.2.8-.5.7-.3.4-.1.4-.1.7-.1 2.2-.2 2.3-.1h.8l.6-.2.6-.2.3-.2.5-.4.4-.4.4-.6.3-.7.2-.7.2-.7.3-1.6.5-3.5.3-1.4.3-1 1-2.3.2-.6.3-.8.1-.7.3-1.3.2-.8v-2.7l-.3-1.2-.1-.8-.2-.8-.3-1-.5-1.2-.8-2-3.4-8.3-.5-1.3-.6-1.1-.6-1.2-.6-1-.8-1.5-.5-1-1-2.5-.4-1-.6-1.6-.7-2.2-1.1-3.6-.3-.7-1.5-6-1-5-.2-.6v-.8l.2-.7v-.5h.1l.3-.2.4-.1.7-.2h.8l1-.1h1.2l1.3.2 2.2.4 1 .2h1l1.7.2.9.2h.6l.4.2.4.2.4.3 1 .9.4.2.7.4.5.2 1.5.4h.4l.7.1h7.6l1.3.2 3 .5.8.1 1.6.1h2.2l.1-.1"/></defs><g clip-path="url(#pef4037c4b7)"><use xlink:href="#m0f84b22dac" y="280.5" fill="#0c1321" stroke="#0c1321"/></g></g></g></g><defs><clipPath id="pef4037c4b7"><path d="M7.2 7.2H190v266.1H7.2z"/></clipPath></defs></svg>