<svg xmlns="http://www.w3.org/2000/svg" xmlns:xlink="http://www.w3.org/1999/xlink" width="264.8" height="374" viewBox="0 0 198.6 280.5"><defs><style>*{stroke-linejoin:round;stroke-linecap:butt}</style></defs><g id="figure_1"><path id="patch_1" fill="none" d="M0 280.5h198.6V0H0z"/><g id="axes_1"><g id="PatchCollection_1"><defs><path id="m57ba081600" stroke="#0c1321" d="m147.5-261.1.2.5.6.5.7.4 1.5 1 1.2.7 1.6.9 1.7.8 3.6 1.7 1.8 1 1.3.7.7.5 1 .7 1.2 1 1.2 1.2 1.5 1.6 1 1.2 1.5 2 1.2 1.8.5.9.5 1 .3.7.1.5.2.8v1.7l-.1.4-.3.6-.5.8-.5.5-1.2 1-1.5.9-2 1-7.7 3.2-2 1-2.2 1-2.7 1.6-2.4 1.5-2.3 1.5-1.9 1.4-1 .8-1.2 1-1 1-1 1-1 1.2-.8 1.2-.7 1.4-.3.7-.2 1-.1 1v2.1l.1 1.3.2 1.2.2 1 .5 2 .8 2.9 1.7 5 5 13.6 2.4 7.2 1.5 4.4.8 2.7.5 1.9.5 2 .3 1.5.2 1.4.2 1.3v2.2l-.3 3.5v1.4l.1 1 .1 1 .3 1.5.4 1.7.8 2.6.8 2.5.5 1.3 1.3 3.2 1.5 3.4 1.7 3.7.9 1.5.7 1.3.7 1 2.5 3.6 1.4 2 1.4 2.4.6 1.2.6 1.3.8 2 .8 2.7.5 2 .4 1.8.4 2.4v.5l2.5 9.8.5 1.7.5 1.1.7 1.1 1.2 1.5 5.8 6.8-.3.2-.7.3-1 .2-1.2.2h-3.3l-.7-.2-1.1-.3-1.5-.5-1.2-.5-1-.6-3-1.9-1.1-.7-4-2-2.3-1-1.3-.5-1.2-.4-1.4-.4-1.3-.3-1-.3-1.3-.1-1.1-.2H150l-1 .2h-.6l-1.3.4-1.2.5-3.3 1.4-3.7 1.4-3.8 1.6-2.2.8-3.2 1-8.4 2.6-1 .3-1.4.5-1.4.6-1.1.6-1.7 1-1.3.8-1.3 1-.9.7-.7.6-.6.8-.4.6-.5 1-.3 1-.2.6-.2 1.1-.2 1.3-.5 4.3-.2 1-.3 1-.4.8-.5.6L105-60l-1.3 1.5-.5.4-.5.4-.9.5-.8.4-4.7 1.6-1.3.4-2 .4-5.2.8-3.6.6-3.4.6-1.2.3-.8.4-1 .5-.6.5-1 .8-1.6 1.5-1.3 1.1L64-40l-2.7 2-2.6 1.8-3.1 2-5.5 3.1-2.5 1.5-2.5 1.7-4.8 3.2-1.5 1-1.4.8-2.3 1.2-2.4 1.2-1.8.7-1.3.3-.7.2h-1.1l-.8-.2-.5-.1-.5-.3-.4-.4-.2-.3-.5-.7-.2-.9-.2-.8v-3.6l.2-1.2.3-1.9 1-5 .3-1.5.2-1.5v-3l-.2-1-.2-1-.3-.6-.4-.8-.3-.5-.3-.4-.8-.7-1-.6-1-.5-1-.3-.9-.3-2.3-.4-2.1-.3V-50l.3-2.4.2-2.1.4-2.3.4-2.1.5-2 .4-1.2.5-1.2.6-1.2.6-1 .9-1 2.2-2.3.7-.8.6-.8.3-.7.2-.6.2-1v-.9l-.2-1-.2-1-.6-2-.6-1.6-.7-1.8-1.3-2.7-2.3-4.6-.9-1.8-.7-2-.5-1.4-.3-.9-.2-1-.3-2-.2-1.1v-3.9l.3-1.6.1-1 .4-2 .7-2.8 6-23 1.7-6 1.3-5.5 1.3-5.2 1-3.5 1-3 .6-1.8 1.1-2.8.5-1.5.6-1.9.4-1.4 1.3-6 .5-1.7.4-1 .4-1 .4-.6.7-1 .5-.4.9-.7 3.2-2 1.3-.9.5-.5.6-.6.3-.5.3-.7 1-2.4.4-1 1.9-3.4.4-1 .4-1 .2-1v-.7l.1-1v-1l-.1-2.2-.4-2.5-.7-3.5-.7-3.3-1.2-4.1-.5-1.8-.6-1.8v-.2l-.3-.9-.5-1.7-.7-3.3-.3-1.8-.2-1.5-.2-2v-1.5l.1-1 .2-.7.3-1.2.5-1.2.5-.7.6-1 1.3-1.8 1-1.1.4-.4.7-.6.6-.5 1.1-.7 1.2-.6 4.9-2 2.5-1.3 1.5-.7 1-.3 1.1-.2h1l.5.3.4.2.6.4.8 1 .6.6.6.9.8 1.3 2.7 4.5 1.4 2 .8 1 1 1 .6.7 1.1.8.8.5.6.2 1.6.4H79l1.7-.3 1.8-.4 1.7-.7 1.6-.7 2.1-1.2 1.8-.9 2-.8 2.2-.8 2.9-.8 4.4-1.1 2.5-.6 1.8-.4 5.2-1 1.5-.5.8-.3 1-.6.8-.5.4-.4.8-.7.6-.8 1-1.1 1.2-1.7 2-2.9 1.7-2.6 2.3-3.5.7-1 .7-.8.8-.9.8-.7.8-.5 1.5-.9 1.7-.7 1.7-.6 2-.5 1.5-.3 3-.6 2.8-.4 3-.3h1.7"/></defs><g clip-path="url(#pe3c07d33b8)"><use xlink:href="#m57ba081600" y="280.5" fill="#0c1321" stroke="#0c1321"/></g></g></g></g><defs><clipPath id="pe3c07d33b8"><path d="M7.2 7.2h184.2v266.1H7.2z"/></clipPath></defs></svg>