<svg xmlns="http://www.w3.org/2000/svg" xmlns:xlink="http://www.w3.org/1999/xlink" width="495.4" height="205.9" viewBox="0 0 371.5 154.4"><defs><style>*{stroke-linejoin:round;stroke-linecap:butt}</style></defs><g id="figure_1"><path id="patch_1" fill="none" d="M0 154.4h371.5V0H0z"/><g id="axes_1"><g id="PatchCollection_1"><defs><path id="ma7058b742f" stroke="#0c1321" d="m314-37.3-6 1.5-1.7.5-5.2 1.7-3.3 1-3.6.6-2.8.5-2.2.2-1.9.2h-3.6l-4.3.3h-1.3L277-31l-1.6-.2-1.6-.3-1.3-.4-3-1-1.5-.4-1.4-.2h-2l-1.6.2-1.6.2-2.2.5-2 .4-6.2 1.8-2.4.5-1.4.2-1.4.2h-9.1l-2.5-.4-3.7-.7-2.2-.4-2-.2-1.6-.1h-3.8l-4.1.4-3.8.3-2 .2-1.6.3-.8.3-1.1.7-1 .8-.5.6-1 1.4-.5 1-.9 2.4-.4.8-.3.5-.4.3h-.2l-.4.1-.6-.1-.5-.3-1.8-1-1.1-.6-1.2-.5-1.6-.4-.8-.2-1.3-.2h-1.1l-1.9.1-3 .4-2.7.5-2.2.5-1.6.5-1.5.5-1.4.5-2 1-3.2 1.5-1.1.6-.3.2-.7-.2-7-2.4-6-2-6.4-2-3-.8-3.1-.7-3-.6-3-.4H136l-2.8.1-1.3.3-1.6.4-1.7.6-2.5 1-2.4.9L115-20l-2.5 1-5 2-3 1-2 .4h-8.2l-1.7.3-4.7 1-1.7.4-3.2.3h-3.2l-1.5-.2-1-.2-1.7-.6-1-.4-4.3-2-2-.9-2.5-1-1.5-.5-.7-.4-1.3-.7-1.7-1.2-4.6-3.6-2.4-1.7-1.4-.8-1.1-.6-1-.3-1.3-.4-.9-.1h-1.6l-.8.1-1 .2-1.2.3-4.3 1.4-1.4.3-1.2.1h-1.2l-1.4-.2-1.6-.4L31-28l-2-1-5.5-3.1.2-.1.2-.4.3-1.2 1-4 2.1-8.6.6-2.3.3-1.9.3-2.6.4-3.4.4-4.5.2-1.2.4-1 .3-.6.7-.9.5-.5 1.2-1 3-2.2 2-1.5 1-.8 1.1-1.2 1.8-1.8 1.4-1.7 1.7-2.2 1.2-1.8 2.4-3.9.8-1.1.7-.8.6-.6.9-.7 1.3-.9L54-88l5-2.1 4.8-2.3 4.4-2.3 2.1-1.3 1.4-1 1.5-1 1-.9 1.5-1.4 2-2.2 3.8-5 .8-.9.9-.8.7-.6.6-.5 1.7-1.1 3-1.8 4.3-2.5 1.8-1 2.1-.8 1-.4 1.5-.4 2.7-.6 2.5-.3 1.3-.1 3-.1 1.1-.1.9-.2 1.2-.5.8-.4.8-.6.7-.7.7-.8.9-1.3.7-1.5.7-1.7.5-1.8.3-1 7.8 7 1.5 1.3 1 .8 1.5 1 2 1.2 1.4.7 1.9.8 2 .7 1.4.4 1.4.3 1.9.4 6.3.9 1.6.3 1.8.5 1.6.5 1.4.6 3.9 1.8 1.7.7 2.9 1 2 .6 1.6.3 1.1.2 1.8.1 3.5.3 2.3.2 1.4.3.9.2 1 .4 1.2.5 1.6.8 1.1.8 1.4 1 1.4 1.3 1.4 1.4 1.9 2.1 1.3 1.8 1.8 2.6.4.5.3.3 1 .4h.8l.4-.1.6-.4.7-.6.6-.6.5-.8.6-.9.4-1 .4-1.2.1-.8v-1.1l-.2-5.6v-1.8l.1-1.5.8-9.5.3-1.9.3-1.5.3-.7.3-.8 1-1.4.7-.8 1.7-1.4.7-.5.9-.5.9-.2h1.8l.6.2 1 .3.6.3 1 .6 1.3 1.3 1 .7.8.4.6.2 1.3.3h3.1l2.1-.1 4.2-.3 5-.2h4.8l3.2.2 2.8.4 8.3 1.5 10.4 1.8 4 .6 2 .2 2.2.2h3.7l1.7-.1 2.1-.3 8.4-1.6 2.7-.6 2.5-.7 2.1-.8 2.3-.9 5-2.1 12.9-6 2.3-1 4-2.1 2.3-1 1.2-.6 2.2-.7 4.7-1.3 1.6-.4 2.8-.6-.4.4-.3.6-.2 1.3v1.4l.3 1.5.2.6.4 1.2.4 1 .7 1.2 1 1.3 1.2 1.5 1.6 1.6 3.2 2.8 1.2 1.2 1.1 1.3 1.5 1.7.7.9.8 1 .6 1 .4 1v1.5l-.2.4-.2.2-.8.6-.5.1h-.6l-3 .1-1.4.2-.7.1-.7.3-.8.4-.7.3-.6.4-1.2 1-1 .9-.8.7-1.3 1.6-.7 1-.4.8-.6 1.6-1.3 3.8-.2 1-.4 1.8v1.4l-.1 2.3.3 4.4.2 3.4-.1 1.8-.3 1.8-.1.5-.7 2-.5 1.5-.7 1.4-1.5 3-.6 1.1-.3 1-.5 1.6-.3 1.4-.1 1v2.5l.3 1.3.2.8.7 2 1.5 4 .5 1.7.2.9.1.8v1.2l-.1 1.2-.2.8-.4 1.2-.3.7-.8 1.7-1.8 3.3-1.5 3-.5.8-.7.9-.4.3-1 .6-1 .4-1.1.4-1.2.2-.9.1h-2l-.3-.1"/></defs><g clip-path="url(#p497366c954)"><use xlink:href="#ma7058b742f" y="154.4" fill="#0c1321" stroke="#0c1321"/></g></g></g></g><defs><clipPath id="p497366c954"><path d="M7.2 7.2h357.1v140H7.2z"/></clipPath></defs></svg>