<svg xmlns="http://www.w3.org/2000/svg" xmlns:xlink="http://www.w3.org/1999/xlink" width="338.6" height="374" viewBox="0 0 254 280.5"><defs><style>*{stroke-linejoin:round;stroke-linecap:butt}</style></defs><g id="figure_1"><path id="patch_1" fill="none" d="M0 280.5h254V0H0z"/><g id="axes_1"><g id="PatchCollection_1"><defs><path id="m3a64e0adf7" stroke="#0c1321" d="m154.9-200.2-.1.1.1.5.6.6.7.4.8.4 3 1.2 1 .5 1 .6.6.8.3.8v2.8l-.6 2.6-.2 1.2v1.1l.1 1 .2.5.3.5 1.1 1.4.3.4.1.4.2.8.1 1v1.8l.2 1.2.1 2 .2 1 .3 1 .3.6.3.4.4.6 1.1 1.2.9.8 1.5 1.4 3.1 2.6 11 8.8 3.9 3.3 2.2 1.9 2 1.7 1.3 1.3.3.3.4.6 1.3 1.5 1.1 1.5.6 1 .7 1 .7 1.3.6 1.3.6 1.4.4 1 .3 1 .3 1 .2 1 .5 2.3.5 3.3.4 1.9.2.9.3 1 .4 1 .5 1 .5 1.1 1 1.7 1 1.6 1.1 1.6 2.9 4 1.2 1.8.6 1 .6 1 .5 1 .5 1.3.4 1.6.2.8.2.8.2 1.9.3 3.2.2 1.7.1 1.1.2 1.1.5 1.8.4 1.3.5 1.4.6 1.5.7 1.5 1.3 3 2 3.8 5 9.8 1.4 3 1.4 3 1.4 3.2 1.3 3.3 2 5.1 2 5.7h-3.5l-1.7.1-1.2.1-3.3.4-1.8.2-.6.1-.5.2-.8.3-.6.3-.4.3-.8.6-.5.4-.5.5-.9 1-.8 1-1.1 1.6-.5.7-1 1.2-1 1.3-2 2.8-1.3 1.4-.3.5-.4.7-.8 2-.5 1-.8 1.2-.8 1-.4.6-.8.9-2.6 2.4-.7.7-.8 1-.5.5-.4.7-.3.5v.4l.1.1h-.6l-2.7-.5-3.5-.6-1.8-.4-1.6-.4-1.7-.4-1.6-.6-1.6-.6-3.1-1.2-3-1.4-4.7-2.2-1.2-.5-.7-.3-1.2-.3-.6-.1h-2l-7.4.2h-5.9l-3.5-.1-5-.3-2.8-.2-2.3-.3-1.5-.2-1.6-.3-6-1.3-1.5-.3-1.4-.2-1.4-.1h-2.5l-1 .4-1 .6-1 .7-.8.8-1 .8-.9.5-.5.2-1 .1h-1.2l-1.1-.1-1.3-.3-1.5-.4-.8-.2-1.6-.5-2-.8-2.3-1-3-1.4-2.9-1.4-3.8-2-8.7-4.4-3-1.5-1.5-.7-2-1-1.4-.5-1.4-.4-2-.6-.6-.1-.2-.1-.2-.2h-.3l-2.2-.6-.8-.3-1-.7-1-1-1-1.2-1-1.3-1-1.4-.8-1.4-.9-1.6-1.6-3-1.4-3-2.8-5.8-1.4-2.6-2-3.9-3.6-6.2-.8-1.4-.7-1.3-.8-1.8-.5-1.2-.4-1.2-.6-2-1-3.5-.4-1.4-.3-.8-.4-.8-.4-.7-.4-.7-.8-.7-.8-.7-1-.6-1-.7-1.3-.7-1.2-.6-1.8-.9-1.6-.6-1-.3-1-.2-1-.2h-2.5l-1.2.2-1 .3-3 1.1-1 .3-1.2.2h-1l-.7-.1-1-.6-1-.8-1-1-.8-1.1-.7-1.1-.5-.9-.2-.4.4-.1.8-.4.8-.6 1-.8.8-.9.7-1 .7-1 .7-1 .8-1 .6-.4.6-.4 1.2-.6.9-.3.9-.2 1-.3 1-.2 1.5-.2 3-.5 1-.2.9-.2.5-.3 1.2-.6 1.3-.7 1-.7.9-.8.9-.8.8-1 .7-.9.5-1 .5-1 .3-1.1.2-1.1v-1.6l-.5-3.2-.7-3.8-.3-1.3-.3-1-.4-1.4-1.2-3.9-.4-1.2-.3-1.4-.3-1.4-.1-.8-.2-1.6-.1-1-.3-1-.3-1.1-.4-1-.3-.8-1.6-2.9-.6-1-.6-.9-.8-.8-.8-.6-2.8-1.5-.8-.5-.7-.8-.6-.8-.5-.9-.3-.6-.3-.6-.3-1.1-.5-1.6-.2-1v-1.8l.1-.9.5-.8.1-.1.5-.6.6-.5.7-.5.7-.5.9-.5 1.3-.7 3-1.4 3.8-1.6 3-1.2 4.8-1.9 4.2-1.7 1.5-.7 1.6-.8 1.1-.6 1.1-.6 1-.6 1-.7 1-.7.7-.6.8-.9.6-1 .4-.8.3-.8.2-.7.1-.8v-.7l.2-1.7v-3.8l-.1-1.3-.2-2.2-.2-1.3-.4-2-1.3-5.8-.6-1.9-.7-2-.7-1.8-1.8-3.8-1-2.3-.7-1.5-1-2.6-2-4.9-1-2.4-.5-1.2-.6-1.1-1.1-2.2-.6-1.3-.6-1.3-.5-1.4-.5-1.4-.4-1.4-.3-1.4-.5-2.8-.3-1-.2-.8-.2-.5-1.1-2.5-.7-1.7-.2-.6-.2-.5-.1-.6v-.8h.8l1 .3.8.3 1 .4 1 .5 1.1.8.7.6.8.8.4.4 1.1 1.5 1.5 2 2.8 4.2 1 1.4 1.4 1.8.6.8.7.7.6.7.8.7.7.6.6.5 1.2.8 2.2 1.6 1 .7.8.7 1 1 .8.9.9 1 2.2 3.2.7.8.7.8.9.6.6.3.5.2.8.1h2l1-.3 2.3-1 .7-.2 1-.2H86l.3.2.6.3.7.4.8.6 1.6 1.4 1.3 1.2 1 1.1 1 1.2.4.6.3.6.5.8.3.8.4.8.3 1.2.3 1.2.4 1.6.6 3.2.4 1.6.5 1.6.2.8.4.8.4.9.5.7.3.4.3.3.2.2 1 .6 1 .4 3.2.8 2 .6 2.6.9 6 2.2 3.3 1 1 .3 1.8.5 1 .2 1.7.2 1.9.2h9.9l2.9-.2 6.4-.5 9.2-.7"/></defs><g clip-path="url(#p0d1375b4dd)"><use xlink:href="#m3a64e0adf7" y="280.5" fill="#0c1321" stroke="#0c1321"/></g></g></g></g><defs><clipPath id="p0d1375b4dd"><path d="M7.2 7.2h239.6v266.1H7.2z"/></clipPath></defs></svg>