<svg xmlns="http://www.w3.org/2000/svg" xmlns:xlink="http://www.w3.org/1999/xlink" width="495.4" height="270.4" viewBox="0 0 371.5 202.8"><defs><style>*{stroke-linejoin:round;stroke-linecap:butt}</style></defs><g id="figure_1"><path id="patch_1" fill="none" d="M0 202.8h371.5V0H0z"/><g id="axes_1"><g id="PatchCollection_1"><defs><path id="m02b7647b91" stroke="#0c1321" d="m348-116.2-2.7 2.2-1.3 1-1.4 1.3-1 1-1 1-.8.8-1.4 1.8-.7 1-.6.8-.5 1.1-.5 1.1-1.2 3.8-.4.9-.4.8-.5.7-.4.5-.5.5-.4.4-.5.3-.6.4-.5.3-1.5.6-2.2.8-1.3.5-1.2.6-1.3.7-1.7 1.2-3.1 2.4-1.4 1-1.1.7-3.9 2.4-1.3.9-.5.3-1 1-.7.6-.6 1-.6 1.3-.3.9-.1.6-.2 1.2-.2 1.3-.2 1.9-.4 5.7-.2 1.4-.5 3.3-.3 3.5-.2 1.6-.3 1.5-.2.9-.2.8-.3.9-.3.8-.5.8-.5.7-.5.7-.5.5-.7.6-.7.6-1 .7-1 .6-1.3.7-1.3.6-1.2.6-5.1 2.2-1.1.6-1.1.6-1.2.7-1 .8-.8.5-1.5 1.3-.8.7-.7.4-.8.4-.6.3-.8.2-.9.2-.8.1-1 .1-1 .1h-3l-1.6.2-.9.1-1 .2-1 .3-.6.2-.7.3-1.3.6-2 1-5.3 3-2.6 1.5-3.3 2-2 1.2-2.3 1.3-1.5.7-1.5.7-2.9 1.2-1.8.8-3.2 1.1-2.3.8-1.9.6-2.8.8-2.3.6-3.5 1-.2-1.2-.3-1.4-.4-1.6-.7-2.4-.6-1.7-.7-1.7-.7-1.6-.5-.9-.6-1-.5-1-.8-1-.8-1.1-1.3-1.8-3-3.7-1.1-1.5-1.2-1.7-1.2-1.8-.6-1.2-.6-1.2-1.4-3-.2-.4-.2-.1-.1-.1h-.2l-.4.2-.6.6-1.8 2.7-.6.7-.6.8-.8.8-.8.7-.9.7-.8.5-3 1.8-1 .6-.9.8-.7.8-.8 1-1 1.4-.6.9-2 2-.3.5-.6.7-1.2 2-1.3 2-1.3 2.3-.6 1.2-.4.5-.4.5-.5.5-.3.3-.7.5-.7.4-1 .5-1 .4-1.2.3-2.4.7-1.3.3-2.2.4-3.1.4-3 .2-2.8.2h-3l-1.2-.2-.8-.2-1-.1-.7-.3-1-.3-1-.5-.5-.3-.7-.4-.9-.8-.8-.8-.7-.8-1.8-2.7-.7-1-1.5-2-4.4-5.4-1.7-2.3-1.4-2-2.3-3.8-.5-.7-.5-.7-.6-.7-.5-.4-.3-.2-.4-.3-.7-.3-.5-.1-.6-.2-1-.1H129l-.9.1-.8.2-1 .3-.8.3-.9.3-1.2.7-1.5.9-1 .6-1 .8-2 1.5-4 3.4-2 1.4-1.2.7-.7.4-1.1.5-.5.2-1 .2h-.6l-.9.1H104l-1.9-.3-2.3-.5-2.3-.5-.6-.2-2.4-.9-1.2-.4-1-.2-1.2-.2-1.7-.3-2.1-.1-1.8-.1H80l-2.3.2-1.3.2-1 .2-1.1.2-1.4.3-1.6.6-1.6.7-1.2.6-1.2.6-1.7 1-1.1.6-1 .7-2.1 1.4-2.6 2v-.2l-.1-.3-.3-.3-.6-.6-1.1-1-1.5-1-1.1-.6-6.6-4-1.9-1.2-1.9-1.2-3.2-2.3-3.4-2.5-3.4-2.6-2-1.5-1.7-1.5-1.9-1.7-.7-.7-1.3-1.4-.7-.9-.6-.8-.4-.7-.3-.6-.3-.8-.3-.7v-.7l-.2-.7v-1.3l.3-1 .3-1.1.3-.8.3-.8.5-1 .3-.5.5-.6.2-.4.5-.5.7-.5.5-.3.8-.5 2.2-1.2 2-1.2 2.2-1.3 1.5-1 .7-.5.8-.6.5-.5.6-.6.7-.7.2-.4.6-.9.2-.4.3-.8.2-.5.2-.9.1-.5.1-1.3v-2.3l-.2-.6-.2-.7-.5-1-.3-.7-.4-.3-4.7-5.3-.9-1.2-.5-.9-.4-.9-.4-1.3-2-7.7.4-.3 1.7-1.4 4.6-3.8 2.5-2 3.8-3 4.9-3.7 4.8-3.5 6.9-5 6.7-4.7 8.7-6.1 2.9-2.1 1.3-1 2.1-1.7 1.7-1.5 1.9-1.8 2-2.1 1.3-1.2.6-.5.9-.6.4-.3.7-.3h.3l.4-.1h.8l.6.2.6.2 1.3.7 2.1 1.2 1.9 1 2 1 1.4.6 2.8 1 2.1.8 5 1.7 1.4.5 1.5.6 2.2 1 2.1 1 2.6 1.5.7.5.1.1v.1l.6.5 2 1.4 4 2.5 2 1.3 2.1 1.3 2.5 1.4 2.2 1.2 3 1.5 2 1 2 1 1.6.6 1.8.7 1.7.6 2 .6 1.3.4 1.4.2 1 .1h1l.8-.2.5-.2.4-.2.5-.3.4-.3 1-1 .4-.5 1.7-2.2.9-.9.8-.7.5-.4.7-.4.7-.3.9-.3.7-.1 1.5-.3 1.3-.1h4.4l1.8.2 4.7.7 1.8.2 1.7.1h4.2l1.3-.1 1.1-.2 1-.3 1.4-.7.6-.4.6-.6.5-.6.5-.6.5-1 .3-.8.4-1.2.2-1.2.2-1.3.4-4.4.2-1.4.2-1.3.4-1.2.4-1.3.6-1.5.5-.9.2-.4.5-.5.5-.5.6-.3.7-.3 1-.3 1.1-.1h2.5l4.5.3h6.6l1.1-.2 3.1-.5 2.8-.6 1.9-.4 1.8-.5 1.7-.6.7-.2 1.5-.7 1.5-.8 1.4-.9 1.3-.8 1.5-1 1.5-1.1 2.7-2.2 2.3-2 8.3-7.4 3.5-3 1.1-.9 2.2-1.6 1.5-1 .5-.3h.2l.2-.1 1-.6 2.4-1.5 1.4-1 1.3-.9 1.3-1 2.5-2 1.3-1 1.6-.7 1.7-.5 1.8-.4 1.7-.3 1.8-.2 4-.4 2.1-.2 1.5-.1h4.5l1.8.2 1.6.2 1.8.3 1.7.3 2.4.7 1 .3 1.6.6 1.5.5 2 1 2.4 1.1 2.4 1.4 2 1.1 1.2.7.6.5.7.7.9 1.1.5 1 .5.8.5 1 .7 1.5 1.8 4.6 1.5 3.3.4 1.2.3 1 .2 1 .2 1v.8l.1.7v.9l-.3 2.3v2.5l.1.8v.3l.4.7.5.8.8.6.7.3.7.3.8.2 1.7.2.7.1.5.2 1.6.6.4.2.3.2.1.4v.4l-.3.5-.4.5-1.7 1.8-.4.5-.4.6-.3.7-.3.7-.3.8-1 3-.2.7-.4.9-.8 1.4-.8 1.2-1.2 1.6-.6.9-.5.8-.3.7-.4 1.1-.2 1.2-.2 1.4-.1 1.6v3.3l.1 1 .2.8.4.8.5.7 1 .6 1.2.4 1.5.2 1 .2h8.9l2.6-.1 3.9-.3h.2"/></defs><g clip-path="url(#p6c2249d8b1)"><use xlink:href="#m02b7647b91" y="202.8" fill="#0c1321" stroke="#0c1321"/></g></g></g></g><defs><clipPath id="p6c2249d8b1"><path d="M7.2 7.2h357.1v188.4H7.2z"/></clipPath></defs></svg>