<svg xmlns="http://www.w3.org/2000/svg" xmlns:xlink="http://www.w3.org/1999/xlink" width="357" height="374" viewBox="0 0 267.7 280.5"><defs><style>*{stroke-linejoin:round;stroke-linecap:butt}</style></defs><g id="figure_1"><path id="patch_1" fill="none" d="M0 280.5h267.7V0H0z"/><g id="axes_1"><g id="PatchCollection_1"><defs><path id="mac42ed63b5" stroke="#0c1321" d="M205.6-255.7h.4l.4.3.4.7.5 1 .4 1.1.2.9.9 4 .2.9.4.9.3.6.5.6.4.4.2.2.8.5 1.1.1h1.1l3-.6h1.8l1.2.4 1.2.5 1.3.8 1 .7 3 2.4 1.2.8 1.6 1 2 1 .7.4.7.6.7.7.5.6.6.8.4.6.3.8 1 2 .7 1.4.6.9.5.7.7.7.9 1 1 .9 1.5 1 1 .7 2.4 1.2.8.5.7.5.6.5.6.8.3.5.3.8.1.5.2.8.1 1.3v1l-.1 1.1-.4 1.8-.4 1.5-.5 2-2.3 6.8-.5 1.9-.4 1.5-.3 2.3-.2 2.1v2.8l.2.9v.2l-.1.2-.2.3-.8 1.6-.5 1.2-.4 1.2-.4 2v2.6l.1.8.5 1.8.3 1 .6 1.3 1.8 4 .9 2.3.3 1 .3 1.4.7 3.4.2 1.7.3 2.3v3.7l-.2 1.3-.3 1.6-.6 1.5-.7 1.1-1 1.3-1 1-1 1-1.6 1-1 .7-1.7 1.2-1.4.7-1.2.6-2 .7-3 .8-5.2 1.5-3.3 1-1.9.7-1.8.8-1.9 1-1.1.6-1.5 1-1.2.8-1 1-1.2 1-.8 1-1 1.2-.7 1.3-.4 1-.4 1.4-.2 1.5v2.8l.2 1.4.3 1.2 1.5 6.8.3 1.2.2 1.2v2.5l-.2 1-.4 1.1-.3 1-.4 1-.7 1.3-2.4 4.2-1 2-1 2.1-.6 1.7-.7 2.2-.6 2.3-.2 1.5-.1.7-.1 1.8v1l.3 1.5.1.8.3.8.5 1.2.8 1.5.6 1 1 1.4 2.5 3.3.4.6v.2l-3.7 1.9-1.2.6-2.2 1.3-2.2 1.5-1 .8-1.4 1.3-1.4 1.4-.9 1.2-2.3 3.5-1.1 1.9-.6 1.2-1.4 3-.7 2-.6 1.6-.3 1.4-.7 3.5-.5 1.6-1.1 3.1-.8 3-.4 1.7-.4 1.6-.6 1.5-.7 1-.8 1-.7.8-2 1.7-3.3 2.7-1.8 1.1-1 .6-.8.4-1 .3-.5.2-.8.2-1.1.1h-.8l-1-.2-.6-.2-1.5-.8-3.1-2-1.7-.8-5-2.3-1.3-.6-1.6-1-1.6-1.3-3.2-2.6-1.6-1.3-1.6-1-.8-.4-1.6-.8-1.9-.8-5.8-2.2-3.5-1.3-1-.5-2-1-1-.8-1-.8-.8-.9-1-1.2-.8-1.3-1.1-2-1.9-3.4-1.5-2.7-1-1.5-1.2-1.9-1-1-1.1-1.3-4.4-4.4-1.2-1.2-1.2-1.4-1.3-1.6-1-1.3-3.4-5-1-1.7-1.9-2.2-1.2-1.3-1.4-1.3-1.2-1-1-.6-1.2-.6-1-.5-1.1-.3-.8-.2h-2l-.8.1-1.2.3-1 .4-1.3.5-1.4.7-2 1.1-2 1.3-1.5 1-5.8 4-.4.2-.4.1-.1-.3-.7-.8-.8-.8-1-1-1.8-1.5-.7-.6-1.1-.7-1.2-.7-1-.4-.6-.3-1.2-.3L57-82l-2-.2h-4.4l-1.8.2-2.5.3-4.7.8-7.8 1.5-1.7.3h-3.4l-1-.2-.6-.2-1-.4-.4-.3-1.2-1-1-1-1-1.4-1-1.9-.9-1.8-.6-1.7-.6-1.7-.3-1.5-.3-2v-3.6l.2-1 .4-1.2.4-.7.7-.9.6-.6.7-.6.8-.5 4.3-2.7 1.8-1.2 14-9.8 1.3-.9 2.2-1.6 2.3-2 1.2-1.4 1.4-1.5 1-1.5 1.3-1.9.7-1.3.8-1.8 2.5-6 1.8-3.4 2.6-5.7 1.1-2.2 1.4-2.6.6-1 1-1.6 1.2-1.5 1-1.1 1.3-1.6 1.4-1.6 2.3-2.2 4.4-4.1 1.2-1.3.8-.9.7-1 .8-1 .6-1.1.4-1.4.1-1.8-.3-1.8-.6-1.9-.3-.9-.7-1.6-.8-1.6-3.1-5.7-.9-1.9-.2-.6-.4-1.2-.3-1.3-.2-.9v-2.2l.3-1.1.2-.8.6-1.1.7-1.3.9-1.4 2-3 1.6-2 2.2-2.5 2.3-2.5 2-2 1.7-1.5 5-4.5 5.7-4.9 2.6-2.4 4-4 2.9-3 2-2.3 3.7-4.3 2.7-2.9 1.1-1.1 1.1-1 1.5-1 .6-.4 1.4-.7.6-.2.9-.2 2.5-.4 1-.2.6-.2.8-.3 1-.7.7-.5.5-.4.5-.5.4-.5.5-.9 1.6-2.7.7-1.1.5-.6.5-.3.3-.3h1l1-.2 1-.3 7.5-2.8 1.8-.5.7-.1 1-.1h.8l1 .2 1.2.3 1.2.6 1.4.9 1.6 1.2 1.9 1.3 1.2.9 1.9 1.7 3.8 3.8 1 .9.6.3.5.3.6.3.9.1h.8l.8-.3.7-.4.6-.5 1.3-1.2.5-.4 1-.6 1-.5 1.3-.5 1-.3 2.3-.6 1.3-.3 2-.4 4.9-.8 3.7-.8 1.5-.2h2l4 .3 3.6.1h.7l.3.1"/></defs><g clip-path="url(#p97871988dd)"><use xlink:href="#mac42ed63b5" y="280.5" fill="#0c1321" stroke="#0c1321"/></g></g></g></g><defs><clipPath id="p97871988dd"><path d="M7.2 7.2h253.3v266.1H7.2z"/></clipPath></defs></svg>