<svg xmlns="http://www.w3.org/2000/svg" xmlns:xlink="http://www.w3.org/1999/xlink" width="495.4" height="325.6" viewBox="0 0 371.5 244.2"><defs><style>*{stroke-linejoin:round;stroke-linecap:butt}</style></defs><g id="figure_1"><path id="patch_1" fill="none" d="M0 244.2h371.5V0H0z"/><g id="axes_1"><g id="PatchCollection_1"><defs><path id="maa365b6b91" stroke="#0c1321" d="m153.7-218.1 2.3-1 3.3-1.4 4-1.6 2.3-1.3 3.6-2.2-.3.9v.3l.5 1 .4 1 .7.8.8 1 1 1 .8.7 1.5 1.2 2.3 1.5 3 1.9 3 1.6 2.5 1.2 1.6.7 2.9 1.1 4.3 1.4 4 1 2.9.5 2.3.2 2.4.1 8.3-.3 2.3.2 1.6.2 1.3.3 1.3.5 1.1.5.9.5 1.5 1 .6.5 1.5 1.5 1 1.2 1 1.5 1 1.4 1.1 2.1 3.7 7.1 1 2.2.4 1.2.3 1.1.3 1.9v3.2l-.3 1.4-.2 1.3-.3 1.2-.5 1.9-2.2 5.9-1 2.9-.4 2-.2 1.6v.8l.2.8.3 1 .6 1.3.4.8.7.8 1 1.1.8.6.8.4 1 .4 1.1.4 1.7.3h1.1l1.1.1 1.8-.2 2.7-.8 2.5-1 3-1.5 2.7-1.6 5.7-3.3 2.8-1.4 2-.7 2-.5 1.7-.3h1.2l1.6.5.5.3 1.5.8 2 1.5 3.1 2 1.9 1.5 1.8 1.5 5.5 5.4 1.3 1 1.8 1.5 1.4.9 1.2.7 2.7 1.3 2 .7 1.9.6 1 .3 2 .4 9 1.5 3.7.5 3 .6 1.5.2h1l1.6-.1 1.6-.4 3-.7 2-.3h2.3l.8.3.3.2-3.3 7.8-1 2.4-1 1.8-1.6 2.4-1.5 2-1.7 2-1.7 1.7-3 2.7-2.9 2.2-1.6 1.2-18.5 12.8-2.4 1.6-5.7 3.6-1 .7-1 .8-.8.8-.8 1-.5 1-.6 1.5-.2 1.4-.2 1.6v2l.2 1 .3 2.8.5 2 .7 2.2.9 2.3 1 2.3 1.5 2.5 1.3 1.7 1.3 1.5 1.6 1.3.6.3 1.2.6.8.3 1.3.3h3.3l1.1-.1 2.3-.4 10.3-1.9 6.2-1 3.2-.5 2.4-.2h5.8l2.6.2 2.4.5 1.5.5 1 .3 1.2.6 1.5.9 1.5 1 1 .7 2.3 2 1.3 1.3 1 1 1 1.1.2.4-2.5 6-1 2.3-1.7 3.3-.7 1.1-.6.7-.9.7-1 .5-2.2 1-2 .8-1.3.7-3.3 2.3-2.9 2.3-2.1 1.6-.1-.2h-1.4l-1.9.2-2 .3-1.5.4-2.3.7-4 1.4-3.5 1.4-4.7 2.1-7.2 3.6-10.5 5.1-3 1.3-1.2.4-1 .2h-.6l-1-.3-1-.6-.7-1-.7-1.3-.2-.7-.3-1-.2-1.1-.2-1.4-.3-4.3v-3l.1-2v-2.3l-.2-1.2-.3-1.1-.4-1.2-.6-1.5-.9-1.6-1.2-1.7-1-1-1.3-1-1.6-.7-1.8-.4-1.8-.2-1.5-.1h-3.5l-7 1-4.5.3-2.8.4-3 .5-8.7 1.9-2.9.5-2.8.3H226l-1.9-.3-3-.7-4.2-1.2-2-.5-2.1-.4h-1.9l-1.9.1-1.7.2-2.5.5-1.8.4L195-43l-1.1.4-.6.3-.7.5-.6.5-1 1.4-.3.7-.4 1.2-1 3-.6 1.1-.9 1.3-.5.6-1.3 1-1.6.9-.7.1-.6.1h-1.7l-.8-.3-.6-.2-.7-.4-1-.6-4-3.2-1.2-.7h-.6v-.4l-.3-.6-1-2.3-1.6-2.5L168-44l-2-2.6-1.3-1.3-1.6-1.6-1.7-1.5-1.9-1.4-2.2-1.5-1.9-1-2-1-2.5-1-2.6-.8-2.1-.4-2.5-.1h-.5l-1.7.2-1.5.3-4 1-2.2.6-2.1.8L129-54l-1.2.7-2.6 1.5-2.5 1.7-4.4 3.3-1.4 1-1.5 1-1.5.8-1.6.8-2.1 1-2.5.7-2.5.5-2.6.5-8.8 1.1-1.5.1-4.6.2h-3.6l-1.4-.2-1.4-.3-1.5-.4-1.8-.6-2.3-1-2-1.1-1.4-.9-1.5-1.2-.7-.7-1.9-2.2-1.5-2.2-1.4-2.3-.8-2-1-2.8-1.4-4.8-.5-1.5-.5-1.4-.7-1.3-.8-1.2-.7-.9-.8-.7-1.2-1-1.4-1-1.6-.9-2.4-1.2-5.6-2.5-9.3-4-2-.8-2.7-1.4-2-1.1-2.3-1.5-1-.8-1-1-.8-1-.5-.7-.4-.8-.2-.9-.2-.6v-2.4l.2-1.4.3-.9.6-1.5.9-1.5.5-.5.8-.9 1.2-1 3.6-2.5.9-.9.5-.6.5-1.2.2-1v-1l-.2-1-.4-1.1-.6-1.3-.7-1.2-1.5-2-1.3-1.6-1.7-1.9-.8-.7-.3-.2.3-.4.4-1 .5-1.8 2.6-10 1.2-4.3 1.3-4 1-2.7 1-2.2 1-2 1.6-2.8 1.8-2.4 1.5-1.5 1.7-1 .7-.3 1.6-.5h.9l1.5-.1h1.1l5.7.4 9.6.3 7.5.2 1.6.1 2.2.3 1.8.4 1.7.6 2.7 1.3.8.2.6.1.8-.1.8-.5.6-.7.4-1 .2-1.2v-4.4l-.2-5.4-.3-3.4-.4-3.4-.8-5-1.6-9.7-.5-3.5-.4-4.1v-3.1l.1-3.1.3-2.2.4-2 .6-2.3.7-2 .7-1.6 1-2 1.3-2 1.7-2.2 1.8-1.9 1.6-1.4 1.5-1.1 1.7-1.1 2.3-1.3 2.1-1 2.6-1 2.7-.6 2-.4 2-.3 2.2-.2h2l2 .1 2.4.3 2.4.4 1.9.4 1.9.5 2.4.7 11.4 3.8 3 .9 2.6.6 2.4.5 2.3.4 2.2.3h3.1l1.2-.1.4-.3"/></defs><g clip-path="url(#p924372506c)"><use xlink:href="#maa365b6b91" y="244.2" fill="#0c1321" stroke="#0c1321"/></g></g></g></g><defs><clipPath id="p924372506c"><path d="M7.2 7.2h357.1V237H7.2z"/></clipPath></defs></svg>