<svg xmlns="http://www.w3.org/2000/svg" xmlns:xlink="http://www.w3.org/1999/xlink" width="349.5" height="374" viewBox="0 0 262.1 280.5"><defs><style>*{stroke-linejoin:round;stroke-linecap:butt}</style></defs><g id="figure_1"><path id="patch_1" fill="none" d="M0 280.5h262.1V0H0z"/><g id="axes_1"><g id="PatchCollection_1"><defs><path id="mcaa89abfe0" stroke="#0c1321" d="m181-64.2-.2-.2-1-.7-3.4-2-3-1.4-3-1.4-1.9-.8-1.9-.7-6.8-2.2-3-1-3.7-1.5-1.9-.8-2.8-1.4-2.5-1.3-3-1.7-1.6-.9-1-.3-.7-.2h-1.5l-.6.1-.9.4-.6.4-1.1.8-.9.7-1.6 1.6-2.9 2.9-2.5 2.4-2.3 2-3 2.4-1.7 1.3-3.9 2.9-11.8 8.3-9.1 6.5-9.4 6.6-6.6 4.9-6.6 5-5.2 4-3.4 2.7-6.2 5.2-2.4 2-.5.3v-.6l-.5-2.5-.4-2-.5-2-1-3-.8-2.2-.6-1.4-.7-1.3-1.4-2.5-1.5-2.2-2.7-3.8L44-44l-.8-1.3-.9-1.7-1.8-3.9-1.7-3.7-1.3-3.4-.6-1.4-.9-2.7-.8-2.8-.4-1.8-.3-1.7-.1-1-.1-1.1V-72l.3-3.8V-78l-.2-1.4L34-81l-.3-1.7-.5-2.1-.6-2-.8-2.9-1.6-4.8-2.7-7.7-5.3-14.7-1.8-5.3-.9-3-.5-2.3-.2-1-.2-1.3-.2-1.5v-2.2l.1-1 .3-1.2.2-.7.8-1.5.9-1.3 1.1-1.4 1.1-1 1-1 1.3-1 1.1-1 2-1.4 2.5-1.7 2.6-1.6 2.9-1.7 2.4-1.2 2-1 8.4-3.5 2.1-1 1.7-1 1.2-1 .6-.6.5-.8.3-.7.1-.4.1-.5v-1.3l-.2-.8-.2-.6-.3-.7-.5-1.1-.6-1-1.2-2-1.6-2.1-1.2-1.3-1.5-1.7-1.4-1.2-1.3-1.2-1-.7-.7-.5-1.4-.9-2-1-3.9-1.8-1.8-.9-1.7-1-1.3-.7-1.7-1-.7-.6-.6-.5-.2-.5h.4l.4-.4.6-.7.8-1 1.2-2 2.7-4.8 2.8-4.7 1.6-2.6 1.6-2.3.8-1.2 1.5-1.8.8-.8.9-.9 1.4-1.1 3.3-2.2 4.2-3.2 2.6-1.8 2-1.3 6.7-4 1.3-.8 1.2-.8 1.5-1.2 3.5-3.2 2.8-2.3 1.9-1.5 1.5-1.2 1.9-1.3 2.6-1.8 3.4-2 2-1.1 2.8-1.4 1.8-.7 1.7-.6 1.7-.5 2-.4 1.8-.2h5.2l1.2.1 1.1.2 1.1.3 1 .4 1.2.6 1 .5 3.8 2.3.6.3 1.1.5 1 .3.8.1h2.6l1.6-.2 1.8-.3 1.3-.3 3-.9 5-1.7 1.4-.4 1.3-.1h1l1 .3.7.2 1 .6 1.4 1 2 1.6 1.1.8 1.2.7 1 .4.7.3 1 .3 1.2.2 1.4.1h5.3l2.5-.3 3.7-.5 2-.4 3.8-.7 3.2-.8 2.7-.8 2.7-1 1.8-.8 1.5-.7 2.1-1.2 1.6-1 1.6-1.2 1.1-1 2-1.7 4.4-4.3 1.3-1.2 1.8-1.5 2.7-2 2-1.5 2-1.1.3-.1-.1.6.2 1.5.3 1.4.5 1.5.7 2 .6 1.3.6 1.2.7 1.3.8 1.3 3.5 5.5 2.3 3.6 1.3 2.4 1 2 .7 1.5 1.6 4.1 1.4 3.4 3.5 8 1 2.2.8 2.5.2 1.1.2.8v1.5l-.3 1-.8 1.2-1 1-.6.3-1 .6-2.5 1.3-1.4.8-1 .7-1.3 1-2 1.8-1.8 1.6-1.4 1.7-.9 1.3-.6 1.2-.3.8-.2.7-.2 1-.2 1.5v1.6l.2 1.4.2 1.7.5 2 .5 1.1.6 1.3.3.7 1 1.5.8 1.3.8 1 1 1.3.8.7.7.6.6.5 1 .5 1 .5 3.6 1.1 1 .5.8.4 1 .8 1 1 1 1.2 1 1.6 1 1.5 3.7 6.4.9 1.5.9 1.3 1.4 2 1.6 1.5 3 3 1.4 1.3 1 1.5.4 1.3.2 1.3v2l-.2 2.9-.8 4.8-.4 1.6-.8 1.5-.8.8-1 .8-1 .5-.6.3-.7.2-1.3.2-1.2.1-5.4.2-4.2.1-2.2.2-1.5.2-1.7.2-2 .5-1.3.3-.6.3-1.3.5-1 .6-1.1.7-1.4 1-1 1-1 1-1 1.2-1 1.2-1.1 1.7-.8 1.3-.5 1-1.1 2.4-.6 1.2-1 2.8-.8 2.8-.4 2-.6 2.8-1 6.1-.3 2-.5 1.6-.2.8-1 2.2-.6 1.4-.8 1.4-1.6 2.6-1.2 1.8-3.8 5.4-5.4 8.4-1 1.3-.7 1-.7.7-.3.3h-.1"/></defs><g clip-path="url(#p4f21ef245b)"><use xlink:href="#mcaa89abfe0" y="280.5" fill="#0c1321" stroke="#0c1321"/></g></g></g></g><defs><clipPath id="p4f21ef245b"><path d="M7.2 7.2h247.7v266.1H7.2z"/></clipPath></defs></svg>