<svg xmlns="http://www.w3.org/2000/svg" xmlns:xlink="http://www.w3.org/1999/xlink" width="316.3" height="374" viewBox="0 0 237.2 280.5"><defs><style>*{stroke-linejoin:round;stroke-linecap:butt}</style></defs><g id="figure_1"><path id="patch_1" fill="none" d="M0 280.5h237.2V0H0z"/><g id="axes_1"><g id="PatchCollection_1"><defs><path id="m74aa5202bc" stroke="#0c1321" d="m198.1-260.8 1 5 .6 3.1v3.1l-.1 1.2-.3.9-.3.8-.7 1-.6.7-.6.7-1.4 1.2-1 1-.5.6-.5.7-.3.6-.2.5-.2 1v7.2l.4 1 .2.4.3.6.3.5.6.6 1.1 1 1.2 1 .7.4.6.4 1.1.5 1.3.4 1 .2 1 .1h2.6l1.2.1 1.1.2 1 .2 1 .3 4.4 1.6 1.9.6 1.5.4 1 .2-.8 3.6-.5 2.8-.5 3-.6 4.3-.4 4.2-.3 5-.1 3.6v9.6l.4 7 2 25.4.4 3.9.4 3.8.8 8.5.4 7 .1 3.7v3.6l-.1 6.1-.4 6.2-.8 8.4-1.1 9-1.7 12-.5 3.3-.6 3.5-1.2 6.1-1.4 5.8-.8 3-.5 1.6-1.1 3.1-.6 1.6-.8 1.8-1 1.7-.8 1.7-.8 1.4-1.5 2.2-.7 1-2.7 2.5-2.6 2.2-2.5 2-2.6 2-1.4.8-2.4 1.4-6 3-1.6.8-1 .6-2.3 1.4-1.4.8-2.3.9-1.7.6-2.5.6-4.9 1-3.6.7-2.8.4-3.9.5-2.7.3-3.5.3-2.7.2h-4l-9.4-.2h-3l-1.7.2v-.8l-.4-1.8-.6-2.3-.8-2.5-.9-2.6-1.1-2.4L123-34l-.4-.6-1-1-1.9-2.2-1-1.2-1.3-1.7-3.3-5.6-3-4.3-1-1.8-1-1.8-2.1-4.6-1-2.4-1.5-4.2-.9-2.3-.6-1.4-1-2-.8-1.3-1.2-1.8-1.3-1.7-1.6-1.9-1.7-1.6-1.6-1.3-1.7-1-1.7-.5h-1l-1 .1-1 .3-1 .5-.6.3-.6.3-1 .8-1.8 1.7-3 3-1.7 1.5-1.1.9-1.2.7-.8.3-1 .3h-1l-1.1-.1-.5-.1-1-.4-1-.4-2-1.2-1.4-.7-1.3-.6-1.7-.6-2-.6-4.4-.8-1.2-.4-.8-.4-1-.6-1.1-1-.6-.9-1.1-1.8-.7-1.6-.8-1.7-1.4-3.5-9-23.5-1.7-4.2L34-123l-1.6-4-2.6-6.8-1.3-3.9-3-9-1.2-3.2-.7-1.7-1.2-2.5-.6-1.2-1.1-1.9-1-1.3-.7-1-.6-.6-.5-.4-.3-.2h-.3l.7-.1h2.2l2-.1 2-.2 1.4-.2 1.5-.3 2-.5L36-164l2.6-.6 2-.3 7.7-1 3-.6 2-.5 1.6-.5 1.8-.7 2.6-1.2 2-1.3 2.2-1.3 2.1-1.4 4.2-3 10.9-7.6 4.5-3 3.5-2.4 4.1-2.5 20.5-12.3 11.4-7 6.8-4.1 4.4-2.8 3.5-2.3 4-2.8 3.3-2.3 3.2-2.5 2.9-2.2 3.5-2.9 3-2.5 3.3-3L173-248l4.2-3.8 2.4-2 1.6-1.3 1.4-1 1.7-1.2 2.3-1.4 2.3-1.2 2.3-.8 1-.3h1l1.8-.2h1l1 .1.8.1.4.2"/></defs><g clip-path="url(#p3d3663f6b8)"><use xlink:href="#m74aa5202bc" y="280.5" fill="#0c1321" stroke="#0c1321"/></g></g></g></g><defs><clipPath id="p3d3663f6b8"><path d="M7.2 7.2H230v266.1H7.2z"/></clipPath></defs></svg>