<svg xmlns="http://www.w3.org/2000/svg" xmlns:xlink="http://www.w3.org/1999/xlink" width="410" height="374" viewBox="0 0 307.5 280.5"><defs><style>*{stroke-linejoin:round;stroke-linecap:butt}</style></defs><g id="figure_1"><path id="patch_1" fill="none" d="M0 280.5h307.5V0H0z"/><g id="axes_1"><g id="PatchCollection_1"><defs><path id="me4c29d8787" stroke="#0c1321" d="m287-194-5.1 2.5-3.4 1.5-2 .8-1.7.5-1 .1h-2.6l-.6-.2-1.3-.4-.8-.4-1.2-.6-1.1-1-.9-.9-.8-1.2-.3-.6-.5-1.1-.8-2.1-.6-2.2-1-5.2-.5-1.8-.8-2.3-1-2.5-1.3-2.4-.4-.7-.3-.4-.4-.2h-.6l-.3.3-.5.7-.5 1.4-.8 2.3-.5 1.8-1 3.9-2.7 12.8-1 4.4-1.3 5.3-.9 3-1.2 3.9-3.3 8.8-.8 2.3-1.8 6-1.5 5-1 4.5-.7 3.2-.3 2.2-.8 8.9-.5 4.1-.3 2-.4 1.6-.4 1.6-.8 2.2-.9 1.9-.9 1.5-1 1.2-1.2.7-2 1-1.3.7-1.3.8-.7.7-.8 1-1 1.3-1 2-1 1.8-2 4.5-1 2.2-1.1 2-1 1.4-.9 1.1-1 1.1-.9 1-1.2 1-1.7 1.4-1.3.9-1.7 1-2.7 1.6-4.1 2-6.2 3.2-1.4.8-5.4 3.5-2.3 1.7-1.1.8-1.2.6-.5.1-.7.2H179l-1.1-.2-1-.4-1.5-.6-2.7-1.4-4.6-2.2-1.4-.8-1-.8-.3-.5-.4-.5-.3-.7-.4-1-.8-2.3-.4-1.7-.3-1.2-.2-2.2-.2-.6-.1-.5-.2-.4-.4-.2-.6-.1h-.7l-.9.4-.8.5-.7.4-1.2 1-1.3 1-1.6 1.7-1.4 1.6-1.8 2-4.1 5.2-2.5 3-2.4 2.6-1.1 1.1-1.2 1-1 1-1 .7-1.1.7-1.5.9-2.8 1.6-1.4.9-1.6 1.1-.8.6-1.1 1.2-1 1.2-.5.8-1 1.7-.4 1-.6 1.9-.5 1.4-.4 2-.4 1.8-.3 2.3-.3 2.4-.7 9.9-.2 1.9-.2 1.9-.3 1.6-.4 1.6-.7 2.3-.9 2-.9 1.7-1 1.5-.8 1-.7.6-.6.3-.2.3-.6.3-1 .4-1.2.3-1.5.3-1.5.2-2 .1-1.8-.1-1.7-.3-1.5-.4-1.5-.6-2.2-1.3-1.5-1.4-1-1.4-.5-1.2-.4-1.1-.2-1.4v-6.6l-.2-1.4-.3-1.1-.3-1-1-1.4-1-1-1.6-1-1.7-.7-1.6-.3-1.9-.3-3.4-.1-1.4-.1-1.4-.3L77-44l-1.2-.5-1.2-.6-1-.7-1.3-.9-2.8-2-1.9-1.1-.7-.4-1.2-.6-1.1-.5-3.3-1.2L60-53l-1-.3-1-.3-1.1-.1L55-54l-3.6-.1-1.5-.1-1.4-.2-2.3-.5-5.1-.7-1.2-.2-1.2-.2-1.7-.6-1.7-1-.3-.3-1-1.3-.7-1-.8-1.8-.6-1.4-.7-2.1-.7-2.7-.6-2.6-.4-2.1-1.3-8-.6-2.9-.7-2.9-3-11.7-.9-3.3-1.1-5.1-.5-2.6-.5-3.7-.3-2.7v-4.7l.2-2.6.5-2.8.7-2.3.4-.9.2-.3.7.6 1.8.7 2.1.6 2.2.3h2.3l1.7-.4 1.8-.7 2.2-1.2 1.1-1 1-.9 1.4-1.6 1.1-1.9.5-1 .4-1.3.6-2.1.3-1.6.2-1.6.2-2.5.1-6.2.3-3.1.2-1.3.5-2.3.8-2.2.4-.9.5-.7 1-1.3 1-1.3.7-.7.8-.7 1-.7 1.6-.9 1.6-.6 1.1-.4.8-.2 1.3-.2h2.2l.8.2 1.2.4 3 1.3.7.2 1.3.2h1l1.3-.2 1.3-.3 1.3-.4 1.4-.5 2.6-1.1 5.5-2.6 2.1-.9 1.4-.4 1.2-.2h1.3l1.3.2 2.1.8 1.3.6 1.2.8 4.4 3.1 1.7 1.2 10.2 6.2 2.7 1.9 2.3 1.7 2.4 1.7 1.1.7 1.5.8 1.3.6.7.3.8.2 1.6.3h2l.8-.2.5-.2.7-.3.7-.7.5-1 .2-.8v-2.1l-.2-1.2-.5-2-.7-1.8-1.2-2.6-1.5-2.8-1.4-2-1.6-2-2-1.9-2-1.8-6.7-5.3-2-1.7-1.8-1.9-1.5-2-1-2-.2-1.6v-1.6l.2-1.4.3-1.4.7-2.6.6-1.4.5-1.4 1.5-3 .9-2 .6-1.6.1-.5.3-1.6.1-1.7v-.6l-.2-.7-.3-.8-.4-.6-.4-.5-.6-.4-1-.4h-.5l-2.2-.2-.7-.2-.6-.4-.3-.2-.4-.5-.3-.7-.2-.8v-2.4l.3-1 .4-1.2.5-1.2.5-1 .5-.8.7-1.2 1-1.2 1.2-1.3.9-.8 1-.6 1.6-.7 1.5-.4 1.4-.1h1.1l7.5.2h1.7l2.1.4 2 .4 5 1.4 3 .7 1.3.2 1.2.1h1.3l1.4-.1 1.1-.3 1.4-.6 1.7-1 1-.9.8-.8 1.1-1.2.5-.7.1-.4.3-.1h.4l2.7.1 3.4.4 4 .7 2.2.2h2.5l1.6-.3.8-.1 1.7-.5 1.9-.6 8-3 5.2-1.6 13.2-3.9 3.6-1 1.2-.4 1.4-.3h1.4l1.7.2 1.5.5 2.8 1 1.1.4.8.1 1.5.2h2l1.3-.3 1.4-.3.8-.3 1.1-.5 1.1-.6 1.4-1 1.4-1.1 3.9-3.4 1.5-1.2 1.2-.8 1.6-1 1.7-.8 1.4-.5 1.5-.5 1.8-.6 9-2.4 3.7-1 4.3-1.6 5.4-2 .5 4 .5 3.2.4 1.9.4 1.3.4 1.3.6 1.2.7 1.2.7 1.2 1.7 2.2 3.4 4.4 2.3 3.3.7 1.2.7 1.2 1 2 .4 1.4.4 1.4 1.3 5.9.4 1.4 2 6 .5 2.2.3 2 .2 2.5.3 5.1.1 2.1.2 1.1.2 1.3.4 1.2.6 1.3.4.6.4.6.7.7.5.3.5.3.5.2h.5"/></defs><g clip-path="url(#pdd55b44ced)"><use xlink:href="#me4c29d8787" y="280.5" fill="#0c1321" stroke="#0c1321"/></g></g></g></g><defs><clipPath id="pdd55b44ced"><path d="M7.2 7.2h293.1v266.1H7.2z"/></clipPath></defs></svg>