<svg xmlns="http://www.w3.org/2000/svg" xmlns:xlink="http://www.w3.org/1999/xlink" width="464.7" height="374" viewBox="0 0 348.6 280.5"><defs><style>*{stroke-linejoin:round;stroke-linecap:butt}</style></defs><g id="figure_1"><path id="patch_1" fill="none" d="M0 280.5h348.6V0H0z"/><g id="axes_1"><g id="PatchCollection_1"><defs><path id="m0c21ff5da5" stroke="#0c1321" d="M295.3-177.9h-1.1l-1.8.4-1.6.3-2.1.6-2.3.7-1 .3-.4.2-2 1-1.4 1.1-1 1.2-.4 1.1v1.2l.2.6.3.4.4.6.8.8.8.6.9.5 1 .5 1.4.7 1.6.4 1.4.3 1 .2 2.3.1h5.2l2.8-.3 1.6-.3 1.4-.4 1.3-.6 2.1-1.1.8-.3.6-.1.8.1.8.6.6.9.4 1.2v1.6l-.8 4.3-.1 1.1v3.6l.2 1 .3 1.4.6 2 3 9.6.7 1.9.8 1.8 1 1.8 1.2 1.7 1.4 1.6 3.4 4 .9 1.2.8 1.7.2.6.3 1.4.1 1.8-.1 1.4-.2 1.1-.4 1.3-.7 1.1-.8 1-1.2 1-2.3 2.1-1.1 1-1 1-.6 1.2-.3 1.3v1.4l.1 1.4 1 3.3.2 1.5v1l.1 1v5.5l.2 1 .2 1.3.3 1 1 3.2.5 1.9 1 6.3.4 1.6.5 1.6.8 1.6 2 3.4 1 2 .6 2.3.3 2.3-.1 2.4-.3 2.7-.6 2.7-.7 2.7-.8 2.7-.8 2.5-1.5 4.3-1-.4-1.8-.6-2.5-.7-5.7-1.6-6.1-1.4-3-.6-3-.5-2.8-.4-2.7-.2h-2.4l-2.3.2-1.7.5-.8.3-.9.6-1.1 1.2-.8 1.4-.3 1.6-.1 1.2v2l.2 1.7.6 4.4.1 2.2v1.8l-.2 1.1-.4 1.6-.8 1.3-1 1.1-1 .7-1 .5-.5.1-1.2.3-1.2.1-1.9-.2-1.9-.6-2-.7-5.9-2.6-2-.8-1.9-.6-1.9-.3-2.3-.3-1.2-.3-1.2-.3-1.3-.6-1.2-.6-1.3-.9-1.2-.9-1.4-1.1-1.3-1.2-2.9-2.8-6.8-6.8-2.7-2.7-2.4-2.1-1.5-1.3-1.6-1-1.4-.8-1.5-.5-1-.2-1.4.1-2 .6-1 .5-1 .6-1.7 1-1 .8-1 .8-1.8 1.5-1.7 1.6-2.4 2.3-1 1.1-2.1 2.3-1 1.1-1.7 1.5-1.6 1.3-1.6 1.3-1.7 1-2 1.3-2.6 1.4-1.5.7-1.6.6-1.7.7-1.5.4-1.5.4-1.5.3-6.9 1.3-2.2.5-1.2.3-3 1-1.9.4-4.2 1-2 .7-1.4.5-3.3 1.6-1.4.5-1.1.4-1.2.2h-1.2l-1-.2-1.5-.6-2.5-1.2-1-.4-1-.3-1.6-.4-1.7-.3-1.9-.2-4.1-.2-3.6-.2-1.7-.2-1.1-.3-1.2-.5-4.3-2-5-2.6-4.6-2.5-3.6-1.7-1.6-.8-1.5-.6-1-.3-.9-.2-.8-.1-5.4-.4h-1l-1-.2-1-.3-1-.5-.7-.4-2.4-1.6-1.4-.7-1.3-.5-2.5-.7-1.4-.7-1.5-1-1.5-1.5-1.4-1.7-1.2-1.8-3.6-5.6-1.7-2.3-1.8-2-1.7-1.8-1.7-1.6-1.8-1.4-1.9-1.3-1.9-1-1.7-.7-1.5-.2-1.2.4-1 .8-.5.6-.5.7-1.7 2.6-1.5 2.3-.9 1.3-1 1.2-1.1 1-.8.7-1.5.8-1.6.8-4.2 2.1-1.7.8-1.1.4-2.2.6-1.5.3-1.7.1-2-.2-2.1-.4-1.6-.4-2.4-1-1.2-.5-1.1-.6-1-.6-1.7-1.2-.8-.6-.5-.5h.6l.8-.2 2.1-.5 1.6-.6.7-.3 1.3-.9.8-.7.6-.8.6-1.5.5-1.5 1-3.8.7-2.2.4-1.3.8-2 2.8-6 .7-1.8.4-1.7 1-4.4.2-1.5.1-1.4-.2-1.5-.5-1.7-.9-1.8-1-1.7-3.1-4.5-3.4-5.1-2.9-4.1-.6-1.1-.3-1.1v-1l.1-.8.6-1 2-2.7.8-1 1.3-2.1 1-2 .3-1 .7-1.9.6-2 .3-1.3 1-4.4.8-3.1.6-2.1.8-4 2.2-9.6.4-2.1v-2.3l-.3-.3 1.8.2 4.7.2 3.6.1h7.4l5.6-.1 12.1-.5H84l2.8.4 1.4.2 1.3.2 1.7.6 1.5.6 1.3 1 1.2 1 1 .9.5.3 1.8.7 1 .5 1.4.9.9.6 1 1 1 1 1.7 2.1 1.2 1.2 2.4 2.4 1 1.3.9 1.3.4 1 .4 1.2.8 3.7.2.8.3.9 1 1.8 1.1 1.7 1.5 1.7 1.5 1.5 1.7 1.4 1.8 1.2 1.8 1 1.9.7 1.8.2 1.8-.2 1.8-.6 1.8-.9 3.6-1.9 1.8-.9 6-2.4 1.8-.8 1.4-.8 1.6-1.1 1.2-.9 1.6-1.4 2.5-2.4 5-5.1 1.9-1.6 1.5-1.2 1.5-1 1.5-.8 1.6-.7.7-.2 1.4-.5 1.4-.4 4.6-1 1.5-.2 3-.4 1.7-.3.7-.3.7-.2.5-.3.6-.4.6-.7.4-.5.4-.6.6-1.3.3-1.4v-1.8l-.4-1-.6-1.2-.6-.8-.6-.7-.7-.9-1.6-1.5-2.8-2.5-6.1-5.2-2.4-2.2-1.2-1.4-.8-1-.5-.9-.2-.5-.2-.8v-1.2l.2-1.2.6-1.4.5-1 1.3-1.8 1.6-2 5-5.6 1.7-2 1.4-2 .8-1.1 1.7-3 1.5-2.8.8-1.5.6-1.6 4.5-11 .5-1.4 1-2.7.2-1 .5-2.2.2-1.6v-3.3l-.2-.9-.3-1.5-.5-2.2-.6-2.4-.6-2-1-3-1.8-4.4-2.7-6.4-3.4-8-1-2.4-.8-1.5v-.3l.5-.3.9-.5 1.1-.4 1-.3 1-.2 1.1-.2h.9l.6-.1h1.8l1.8.3 1.6.4 3.5 1.2 2 .6.5.1 1.7.3 1.7.1 1.6.4 1.7.7 1.3 1 1 .9 1 1 1.7 2.1 1.1 1.1.5.5 1.5 1.2 2.4 1.6 1 .7 2.3 2 1.4 1 1.4 1 1.6 1 1 .6.5.2 1.5.6 1.6.3h1.5l1.2-.4 1.2-.6 1-.6 1-.9 1.6-1.5 1.3-1.6 1.3-2 2-3.4 1.1-1.4.9-1 1-.7 1-.4.8-.3 1.2-.2 2-.3h4.6l1.8.2 1.5.4 1.4.4 1.7.5 1.5.6 1.3.7 1 .8.2.2.5.8.4.8.3 1v1.6l-.3 1.2-.4 1.2-.4.6-.9 1.3-.6.8-1.2 1.2-.8.5-.7.5-3 1.3-3.5 1.7-1.2.7-.6.5-.8.7-.6.6-.5.7-.3 1v1l.4 1 .6 1 .7.9.5.5.7.6.6.5.9.5.6.4 1.7.7 1.7.5 1.9.4h4l3.1-.2 2.3-.3 4.7-.7h2.7l.5.1.9.4 1 1.1.5 1.5.1.7.1.8v1.9l-.2 2-.7 6.1-.3 2.4-.3 3.5-.2 3.3v2.6l.1 2.6.5 2.3.8 2.2.9 1.2 1 1.2 1.2 1 1.2 1 1.7 1 4.6 2.9 2.4 1.5 1.6 1.1 1.6 1.3.5.5.8 1 .4.7v.5"/></defs><g clip-path="url(#pcbec28c413)"><use xlink:href="#m0c21ff5da5" y="280.5" fill="#0c1321" stroke="#0c1321"/></g></g></g></g><defs><clipPath id="pcbec28c413"><path d="M7.2 7.2h334.1v266.1H7.2z"/></clipPath></defs></svg>