<svg xmlns="http://www.w3.org/2000/svg" xmlns:xlink="http://www.w3.org/1999/xlink" width="369.8" height="374" viewBox="0 0 277.3 280.5"><defs><style>*{stroke-linejoin:round;stroke-linecap:butt}</style></defs><g id="figure_1"><path id="patch_1" fill="none" d="M0 280.5h277.3V0H0z"/><g id="axes_1"><g id="PatchCollection_1"><defs><path id="m5215c5c98a" stroke="#0c1321" d="M184.4-246.7v.1l.2.2.5.9 1.2 2.6.9 1.8.7 1.5.9 1.3.3.5.7.7 1 1 1.2.8 1.1 1 1.1 1.3.4.6.4.7.3.7.3.8.1.5.1.5v1.6l-.2.7-.5 1-.6.9-1 1-1 .8-5 3.8-1.4 1-1.1 1-1 1-1 1-.8.7-.5.6-.9 1.4-.4 1-.5 1.5-.4 1.7-.4 3.1-.2 1.4v4.7l.3 7.6v3.1l-.2 1.2-.4 1.7-.5 1.8-1.1 3.3-.5 1.7-.3 1.4-.3 1.6v3.3l.2.5.2 1 .4 1 .8 1.6.6 1 .6.8.6.6.6.4.7.3 1-.1.9-.5.4-.5.3-.4 1.4-2 2-2.7.9-1.2 2.7-5 .4-.6.5-.7.6-.8.7-.6.8-.6.9-.7.6-.4.8-.3 1-.2h2.2l1.1.1 1.4.3 3.5 1 1.7.3 1 .1h1.8l1.5-.4 2.3-.7 1.4-.6 1-.6.5-.3 3-2.2.7-.5 1-.5.8-.4 1-.4.9-.2 1-.2 4.9-1 6.7-1.5 1.4-.3h1l1.1-.1 1.2.1.8.4.8.9.5 1 .3 1.3.3 1.7.2 1.7.2 3.4.2 4.3v2.5l-.1 1.8-.2 2.5-.3 1.5-.2 1.5-.4 1.6-.3 1-.1.5-.2.2-.4.7-.5.8-.6 1-1 1.3-2.7 2.7-1.4 1.6-1.1 1.5-1.1 1.7-2.2 3.4-1.1 1.7-1.3 1.5-1.4 1.5-1.6 1.3-1.7 1.2-3.2 2.3-1.4 1.1-1 1.1-.7 1.1-.1 1.1.2 1.1.6 1 .8.8 1 .5 1.3.2h3l1.5.3 1 .5.9.4.8.6 1.4 1.2 1.6 1.5.8 1 1.8 2 2 2.5 2 2.5 1.6 2.3 8.5 12.3 3.8 5.7 4 6.4.6 1 .4 1 .5 1.5.3 1.1.1 1.2v2l-.2 1.4-.5 1.6-.6 1.5-1 2.1-.6 1-.8 1.4-1.1 1.6-1 1.2-1 1-1.5 1.8-1.6 1.5-1 .8-1 .9-.9.5-.8.4-.5.1-.8.2h-4.6l-1 .2-1.1.2-.8.3-3.2 1.4-1 .4h-.5l-.7.2H229l-1.2-.3-1.1-.4-3.4-1.4-.8-.5-.9-.5-.5-.4-.9-.9-.8-1-1.2-1.5-.4-.5-.6-.5-.6-.3-.5-.1h-.6l-.5.2-.7.3-.6.4-.7.6-1 1.2-.6 1-.8 1.1-1.5 2.7-1 2-.5 1.3-.4 1.2-1.7 5.4-1.5 4.2-.8 2.8-.4 1.6-.3 1.6v1.3l-.1 1v1.3l.3 1.3.4 1.3.5 1.5.4.8 1.6 3.7 1.3 2.4.6 1 .8 1.3 2.1 3 .4.5.5 1 .2.6.1.3v.8l-.2.2-.2.1-5.5-2.1-4.3-1.6-4.8-1.5-5-1.5-4-1.2-5.1-1.7-8.6-3-2.9-1.2-1.9-1-1.2-.6-1-.6-1-.8-.6-.6-.3-.4-.5-.7-.5-1-.3-.7-.4-1.2-.6-2-.3-1.4-.4-2-.1-1.4v-1.7l.1-.4.3-1 .4-1.3 1.3-2.8.8-1.8.3-1 .2-1v-1.1l-.3-1-.2-.7-.3-.6-.4-.6-.3-.5-.4-.4-.5-.3h-.6l-.5.1-.5.3-.3.5v-.3l-.3-.7-.3-.6-.8-1.4-1.3-1.8-4.6-6-4.2-5.5-1.2-1.6-1-1-2.2-2.4-.7-.8-.5-.8-.4-.8-.3-.9-.4-1.6-.1-1.2v-2.2l.2-1 .6-1.3.3-.4.6-.6 2.5-2.1 1.3-1.2.9-1 .9-1 .8-1.2.6-1 .4-1 .6-1.8.3-1.4.3-1.4.3-1.4.1-1.2v-2.2l-.3-.8-.4-1-.8-1.4-1-1.4-1-1.1-1.4-1.6-1.2-1-1.5-1.2-2.2-1.6-6.3-4-5-3.4-4.8-3.3-4.2-3-1.9-1.4-3.9-3.2-3.5-2.8-2.7-2.4-2.2-2-2.2-2.1-1.6-1.7-1.6-2-.8-1-1.1-1.5-3.9-5.8-1.5-2.2-1.1-1.4-1.3-1.6-.6-.6-1-1-1-.9-1-.6-.9-.5-.8-.4-.8-.2-.7-.2-1.5-.1H84l-.8.2-.9.2-.7.3-1.2.5-.8.4-.6.5-1.2 1-.6.5-.5.6-.6.8-.6.9-1 1.5-.9 1.6-.8 1.6-.4 1.2-1 3.6-.5 1.5-.3.7-.4.9-.6 1-.7.8-.5.5-.6.4-.5.3-.5.3-1 .2-1 .1-1.4-.1-1.4-.4-1.6-.6-3-1.2-1.8-.6-1.8-.8-1-.6-1.1-.7-1-.7-.8-.8-1.2-1.1-1-1.2-1-1.1-1-1.2-.8-1.2-.9-1.3-1.2-2-.6-1.2-1.4-2.7-1.3-3-.6-1.5-1.1-3-.5-1.4-.6-2-.3-1.4-.3-1.4-.1-1v-2.3l.5-1.4 1.2-2.6.5-1.4.3-1.4.1-1.4.3-4v-1.2l-.3-2-.4-2-.4-1.7-.5-2-.4-1.2-1-2.7-.7-1.7-1.4-2.9-2.8-5.3-1-1.7-1-1.6-.9-1.4-.8-1.1-.7-.8-1.4-1.6-3-3L21-236l-1-1.4-.4-.6-.2-.6-.2-.7v-1.1l.2-1.3.4-1.8.4-1.2.7-1.3.8-1 .5-.4 3.3-3.2.6-.7.6-.6.3-.5.3-.5 1.4-3 .6-1.2.4-.8.5-.6.4-.5.8-.7 1-.8.2.2.3.1.8.2.9.1 3 .4 9.4.8 4.6.3 2.2.2 5.5.1 2.2.2h2.6l1.4-.1 2.6-.4 2.5-.5 7.6-1.7 1.5-.3 1.5-.2 1.5-.1h2l2 .2 1.3.2 1.4.4 1 .3 1.2.6 1.4 1 1.4 1.2 1 1.2 3.8 4.6 1.2 1.3 1.1 1 .6.5 1 .6.7.3.6.2.8.1 1.2.1h3.6l1.6-.2 2.8-.3 1.5-.3 3.5-.7 3-.5 3-.2 1.6-.1h3.3l1.8.2 1.6.2.7.2 1.7.5 1.2.4 1.6.7 1.2.8 1.2.9 1.4 1 1.6 1.6 3.2 3.2 1 .8 1 .8 1 .6.6.3.8.3 1 .2h2.6l1.7-.3 1.8-.5 1.9-.5 2.2-.7 2.3-.9 7.7-3.2 2.8-1 2.4-1 3-1 1.3-.3 1-.3h.8"/></defs><g clip-path="url(#p3275a404db)"><use xlink:href="#m5215c5c98a" y="280.5" fill="#0c1321" stroke="#0c1321"/></g></g></g></g><defs><clipPath id="p3275a404db"><path d="M7.2 7.2h262.9v266.1H7.2z"/></clipPath></defs></svg>