<svg xmlns="http://www.w3.org/2000/svg" xmlns:xlink="http://www.w3.org/1999/xlink" width="345.2" height="374" viewBox="0 0 258.9 280.5"><defs><style>*{stroke-linejoin:round;stroke-linecap:butt}</style></defs><g id="figure_1"><path id="patch_1" fill="none" d="M0 280.5h258.9V0H0z"/><g id="axes_1"><g id="PatchCollection_1"><defs><path id="m911cd9230f" stroke="#0c1321" d="m202.2-221 1.8.3 1 .2 1 .2.8.3.9.3.6.5.5.5 1 1.7.5.6 2.3 2.3.5.6 1.8 2.7.3.6.3.7.4 2.1.2.7 1.2 2.7.1.6v2.4l.1.3.4.4 1.5 1.5.9 1.1.7 1.1 2.1 3.2.5.7.5.5.4.3h.2l.1-.1 1 1.8 1.3 2.9 4 9.8 3.4 7.8 2 5.2 1.4 3.8.7 2.4.8 3 .6 2.6.3 1.9.1 1 .2 2.1v2l-.3 1.9-.5 2.6-.4 1.3-1.1 3.3-.6 1.6-5.5 13.4-.8 2-1 1.9-1.8 3.4-2.1 3.6-1 1.4-1.7 2.4-2 2.4-6.1 7-2 2.2-1.5 2.3-.7 1.2-.7 1.7-.3 1.4v1.5l.3 1 .3.6.6 1 1 1.3 1.4 1.6 3 2.8 7.4 6.3 3.4 3 2 1.9.8 1 .8.9.6 1 .8 1.3.4 1.3v.4l.1 1.9-.4 1.7-.7 1.6-.5.7-.5.6-.8.8-.7.5-.6.3-.8.3-.9.3-2 .5-3.7.5-1.8.3-5.6 1.1-1.7.5-1.8.5-.8.3-1.9.9-1.8 1-1.8 1.1-2 1.5-2.1 2-6.2 6.2-3 2.9-2 1.7-1.4 1-2 1.4-1.8 1-2.1 1-7.3 3-2.2 1-4.4 2.4-2.2 1-2.1.7-2.2.3-2.3-.3-2.2-.8-2.2-1.2-2.2-1.5-2-1.7-2-1.9-1.7-2-1.4-2.1-1.2-2.2-.3-1-.3-1-1-4.5-.4-1.4-.5-1.3-1-1.6-1.4-1.6-3-2.9-1.3-1.4-2.2-2.7-1-1.2-1.3-1.1-1.1-.8-1.7-1-1.3-.6-2-1-.7-.3-1.3-1.1-1.4-1.2-1.6-1.2-1.8-.8-2.1-.6-1.6-.4-1.7-.2-3.4-.4h-3.5l-2.9-.1h-3.8l-14.7.7-6.8.1h-9l-4.5-.1-5.7-.3-2.1-.3h-.3l-.3-.6-.3-1V-69l.4-1.6L57-75l.5-1.8.3-1.7v-5.2l-.2-1.7-.2-1.7-.3-1.2-.6-2.2-.7-2-.3-.7-.6-1.2-3-4.7-3-4-.9-1.2-.8-1.4-.7-1.3-1.4-3-1-1.6-1.2-1.6-1.3-1.5-3.2-3-10.5-9.4-3.4-3.3-1.6-1.7-1.5-1.8-1.3-1.8-1-2-.7-2-.2-1.8v-1.8l.2-1.8.8-4.1.1-.8v-.2h.3l.4-.1.5-.5.4-1 .4-1.2 1-6 2-8.5 1-4 .6-3.9.7-5 .4-1.7.4-1.3.6-1.9.6-1.3.5-1 .8-1.3.8-1.1 2.1-2.6 1.5-1.5 2-2 3.3-3.1 1.3-1.4 1-1 .9-1.3 1.3-2 3.2-5.5 1.8-2.8 1.2-1.5 1.1-1.4 1.7-2 1.7-1.7 4.7-4.8 2.1-2 2.2-2 2.2-1.6 2.4-1.4 1.9-.7 2-.6 7.7-1.7 3.2-1 10.2-3.3 5.2-1.4 1.7-.7 2-1 1.6-1.4 1-1 4.5-5.8 1.2-1.2 1.2-1.2 1.4-1 1.4-.8 1.7-1.2 1.5-1.3 1.9-1.8.8-.7.8-.5 1-.5 1.1-.4 1.3-.3h2.3l1.3.3 1.1.5 1 .7.6.7.3.5.7 1.2.5 1 .6 2 .6 2.2 1.1 5.6 1 3.4.4 1.5.9 2 .6 1 1.2 1.8 1.4 1.6 1.5 1.3 1.7 1 3 1.5 1 .6 1.8 1.3 3.4 2.6 2.1 1.6 2 1.4 2.2 1.2 2 1 2.5 1 4.5 1.9 2 .6 2.1.5 2.8.5 2.3.4 4.2.4 2 .3 2.7.6 3.6.8 2.5.5 2.5.2 2.3-.2 1.4-.5 1-.7 1.4-1.3.8-1.6.5-1.6v-1"/></defs><g clip-path="url(#p64475f6b20)"><use xlink:href="#m911cd9230f" y="280.5" fill="#0c1321" stroke="#0c1321"/></g></g></g></g><defs><clipPath id="p64475f6b20"><path d="M7.2 7.2h244.5v266.1H7.2z"/></clipPath></defs></svg>