<svg xmlns="http://www.w3.org/2000/svg" xmlns:xlink="http://www.w3.org/1999/xlink" width="379.2" height="374" viewBox="0 0 284.4 280.5"><defs><style>*{stroke-linejoin:round;stroke-linecap:butt}</style></defs><g id="figure_1"><path id="patch_1" fill="none" d="M0 280.5h284.4V0H0z"/><g id="axes_1"><g id="PatchCollection_1"><defs><path id="m3cbb5cdf7f" stroke="#0c1321" d="m106-251.3.6.6.7 1.1 1.4 2.5.3.6.2.5.1.4v.7l-.2 2v1.5l.1.8.2.5.4.5.4.5.8.6.5.5.1.2.2.5v.6l-.1.5-.6 1.4-.1.5v1.3l.3.5.5.6.5.6 1.8 2 1.2 1.3.7 1 .3.6.5 1.1.2.6v.7l.1.7v.6l-.2 1.1-.5 2.9-.2.3-.3.7-.5 2-.5 2.1-.2 2.2v3.8l.3 2.2.4 3 .4 2.1 1 4.2.6 2.7 2.5 9.5.6 2.4.4 2.3 1.1 6.6.3 1.7.5 2.1.6 2.2.6 1.7.4 1.2.7 1.4.5.8 1 1.1.1.2 1.4.8 1.4.5 1 .3 1 .1 4.2.6 1.8.3 1.2.2 1.2.1 2.9.1 1.5.2h1l.7.2.9.3 1 .4 2.7 1 .9.3 1 .5.6.3 1.5 1 2.3 1.6 1 .7.9.6 1 .5 1 .4.9.3 1.2.1 1 .1 2.9.2 1.6.2 1.2.2 1.4.6 1.3.8.9.8.7 1.2.3.8.2 1 .1 1v4.2l.1 1.2.2 1.1.3 1 .5 1 .7 1 1.2 1.2 1.8 1.1 1.2.5 1.3.3 1.4.2 1.4.1h1.6l1.3-.2 1.2-.2 1-.3.8-.3.5-.3.1-.2-.1.4.1.8.5 1 .4.7.7.8.9 1 4 3.9 1 .9 1 .7 1.6 1 1.6.9 4.5 2.2 1.5.8 2.5 1.5 1.3 1 1.2 1 .8 1.2.6 1.3.6 1.6.4 1.6v1.6l-.2 1.2-.3 1.1-.8 1.8-.4 1.2-.4 1.7-.2 1.7v4.2l-.1 1.4-.3 1.2-.5 1.3-.5 1.1-.4 1.1-.2.8v1.6l.2 1.1.2.8.8 2 .5.9.2.4.7.8 1 1 .5.4 1 .7 1 .7 1 .7.4.5.6.7.6 1.2.6 1.3.8 1.8.7 2.2.4 1.1.9 3.2 1.6 7 .3 1.2.5 1.6.5 1.4 1.2 3 .6 1 .1.2.5.4.4.1.7-.1.3-.3.6-1 .5-1.1 1.4-3.8.7-1.6 1-1.4 5.3-5.8.8-.7.7-.5.7-.3.7-.2h.8l.8.2 1.3.6 1 .6 1 .7 2.7 2 1.6 1 2.5 1.5 5 2.6 4.3 2.4.8.5-.2.2-.6.7-.6.9-4.5 7.3-1.5 2.8-3 6.2-.7 1.1-.6 1-.4.6-.8 1-.8.8-.8.7-1 .7-1.2.9-1.1.6-1.2.6-1.5.7-1.6.5-1.9.5h-.6l-2 .4h-2l-1.9.1h-4l-4.2-.2-12.7-1-7.7-.3-5.9-.2h-4l-2 .2-1.4.1-2.5.3-2.1.4-1.2.3-1.6.5-1.2.5-2.3 1-3.2 1.3v-.1l-.2-.3-.7-.7-2.2-1.9-5.3-4.5-2.3-2-2.3-2.4-1.3-1.4-.7-.8-1.2-1.5-.8-1.3-1-1.7-.7-1.6-.6-1.6-.5-1.5-.5-1.5-.7-1.4-1.1-1.7-2-3L153-52l-.7-1.2-.6-1.2-.6-1.4-.2-.6-.5-1.9-.7-3.7-.5-1.8-.5-1-.7-1.2-2.6-4-1-1.4-.8-1.5-1-2-.5-1.5-.4-1.1-.4-1.4-.5-1.8-.4-2.1-.3-1.8-.1-1.3-.1-1.2v-7.7l-.3-1.7-.2-1.3-.3-1-.6-1.2-.6-1-.6-.6-.8-.6-.8-.4-.9-.3-1.2-.2-2-.1h-2l-5.3.6-2 .1h-4l-1.8-.2-1.3-.3-1.2-.3-1.8-.8-1.7-1-1.6-1-1.5-1-1.2-1-1-.8-2.9-2.7-3-3-2.2-2.2-1.2-1.1-1.3-1-1.2-1-1.2-.8-1.8-1-1-.6-1.1-.8-1-.8-1.6-1.7-.8-.8-.6-.5-1.5-1-2.6-1.5-.9-.6-1-.7-.5-.5-.6-.6-1.5-2-.6-.7-.5-.4-.6-.5-1.1-.6-1-.4-1.3-.2h-2.2l-1 .2-2.1.3-2.6.6-3.2 1-1 .1-.7.1h-2.4l-.6-.1-1.8-.6-1.6-.7-1.6-.8-1.5-1-1.6-1.2-1.5-1.2-3.5-2.8-3.2-2.6-2.3-1.9-1.9-1.7-.7-.7-1.1-1.2-4-4.5-1.7-1.7-1-.8-.9-.8-1-.8-1.1-.5-1.2-.5-1.2-.4h-1v-.1l.5-.7.9-1.3 2.8-5 1.1-2 1.7-2.6 2.7-3.7.7-.9 1.5-1.6 1.3-1.1 2-1.5 1-1 1-1 1-1 1.2-1.8.4-.7 1-1.8.9-1.9.3-.6 2.4-3.7 1-1.7.9-1.4.7-.9 1-1 .5-.5 1-.8 3-2.2 1-.9.8-1 .7-1 .5-1.4.5-1.7.4-2 .2-1.6.1-1.2.1-1.3v-3.8l-.2-1.4-.3-2-.3-1.2-1.3-4.6-1-2.9-.3-.7-.3-1.6-.2-.9-.5-1.2-1-1.6-.4-.8-.2-1v-1l.3-.9.2-.9.8-2.4.3-1 .5-1 .8-1.5 1-1.5 3-4.4 1.1-1.4 1-1.2.7-.7 1.1-.9.8-.6 1.2-.6 2.3-1.1 1.1-.5 1-.4 1.2-.2h2.1l3.4.6 3 .5 1.2.1H82l3.7-.3h3.7l2 .1 1.8.3 1.5.4 1.6.5 2 .8 1.2.4 1 .6.8.4.6.5 1.1 1 .8 1 1.8 2.4.4.4.2.2"/></defs><g clip-path="url(#pa80a07687e)"><use xlink:href="#m3cbb5cdf7f" y="280.5" fill="#0c1321" stroke="#0c1321"/></g></g></g></g><defs><clipPath id="pa80a07687e"><path d="M7.2 7.2h270v266.1H7.2z"/></clipPath></defs></svg>