<svg xmlns="http://www.w3.org/2000/svg" xmlns:xlink="http://www.w3.org/1999/xlink" width="242pt" height="374" viewBox="0 0 242 280.5"><defs><style>*{stroke-linejoin:round;stroke-linecap:butt}</style></defs><g id="figure_1"><path id="patch_1" fill="none" d="M0 280.5h242V0H0z"/><g id="axes_1"><g id="PatchCollection_1"><defs><path id="mc7e2c97f31" stroke="#0c1321" d="M224.4-242.8v2.4l-.5 6.2-1.2 11-1.4 11.2-.5 6-1 15.3-.2 13.2-.3 4.7-.5 4.6-.4 2.4-.7 4.4-1 5.3-.5 3-.1 1.2.3 5.6v3.2l-.8 12v4.9l.3 2.5.7 7 .3 4.3v19.5l.3 2.7 1 9.5.7 4.8.6 3.7 1.6 7.4.4 3-7.9 2.8-6.2 2.2-5.5 1.6-13 3.5-2.8.8-2.1.7-2.1.9-2.5 1.1-2.3 1.4-1.8 1.2-2.2 1.8-5.6 4.9-2 1.6-2.1 1.4-1.6 1-1.6.7-1.2.4-2 .5-2 .3h-2.8l-2.3-.2-1.2-.2-1.6-.5-4-1.5-2.3-.7-2.3-.4-2 .1-2.1.4-2 .5-5 1.6-19.4 5.6-7.6 2.5-11.7 4.2-2.8 1-2.5.6-1.1.3-2.3.3-2 .1h-1.7l-3.1-.4-6-.9-4.9-.6-4-.2h-.6l-.4.1h-.2l-.8-.3-1.2-.9-1.2-1-1.6-1.6-1.2-1.4-1.3-1.9-3.9-6.1-5.6-8.4-7.1-10.3-1.9-3.2-.8-1.8-.6-2.2-.2-2.2.2-2.4.4-2.3 1-3 .9-2.6 1.1-2.7 4-8.9 2.4-5.7 1-3 1-2.8.8-2.7 1.1-4.1 1.1-5 .5-2.6.5-3.6.2-2.5-.2-3.2-.6-3.4-2-6.4-.8-2.4-1-2-1-1.6-1.1-1.5-2-2.4-2.2-2.3-2.3-2.2-3.8-3.4-6.4-5.3-2.8-2.4-1.2-1.3-.7-1.2-.3-.8.1-1 .5-.8.5-.5 1-.6 2-1 3.5-1.3 7.6-2.6 4.4-1.6 10.8-4.4 5.5-2.3 3.3-1.4 2.2-1 2.5-1.5 1-.7 1.7-1.3 1.2-1 1.3-1.3 2.2-2.6.9-1.3 1.1-1.8 1.9-3.4 1.4-3 .8-2 1.6-4.4 3.8-10.5 4.7-12 1.5-4.4 1.2-3.8.9-3.3.4-2.3v-1.4l.2-.5.7-.9.6-.5 1.3-1 1.5-.7 1.6-.7 2.4-.9 1.7-.5 1.3-.3 1.2-.1h2l1.4.3 1.4.4 2.7 1 .3.1h.5l4-1.5 4-1.2 4.8-1.3 1.6-.4h.8l3.3.8 2.9.6 3.6.4 2.3.2h1.9l1.7-.2 8.8-1.4 4.6-.9 2.5-.6 1.2-.4 1.2-.5 1.5-.6 5.9-3.3 1.6-.8 2-.8 4.6-1.6 6.5-1.8 6.8-1.5 2.5-.5 3.2-.5 2-.2 2.5-.1h6.9l6.7.5 2 .2 1.7.3 2.3.6 1.2.4 1 .6 1 .7.8.8 1 1.7.6 1.9.3 1.7.2 1.8.4 6.7v.5h.2"/></defs><g clip-path="url(#pe18d684db3)"><use xlink:href="#mc7e2c97f31" y="280.5" fill="#0c1321" stroke="#0c1321"/></g></g></g></g><defs><clipPath id="pe18d684db3"><path d="M7.2 7.2h227.6v266.1H7.2z"/></clipPath></defs></svg>