<svg xmlns="http://www.w3.org/2000/svg" xmlns:xlink="http://www.w3.org/1999/xlink" width="330.4" height="374" viewBox="0 0 247.8 280.5"><defs><style>*{stroke-linejoin:round;stroke-linecap:butt}</style></defs><g id="figure_1"><path id="patch_1" fill="none" d="M0 280.5h247.8V0H0z"/><g id="axes_1"><g id="PatchCollection_1"><defs><path id="mb2be6fc085" stroke="#0c1321" d="m32.6-244.2-.3.4-.2.8v2.1l.1.7.3 1.6.5 1.5.5.8.6.6.8.4.9.2 1 .1h2.4l3.5-.5 1.7-.1h3l2.3.6 1.1.4 2.3 1 5.3 2.3 2.8 1 1.6.5 1.3.3 1.8.3.8.1 2.2.1h3.3l1.1.2 1.1.4.4.2 1.3.9.8 1 .4.8.6 2.3.2.5.4.7.5.6.6.6.7.3 1.3.7 1.8.6 2.6.6 15.9 3.2 2.1.4 2.5.4 3.3.3h5l2.9-.3 2.9-.4 4.8-.9 3.2-.4 2.8-.3 5.8-.5 3.3-.3 3.1-.5 2.9-.7 6.9-1.9 1.6-.5 4.7-1.6 4.6-1.7 2.2-.9 2.5-1 8.7-4.2 2.6-1.2 2.6-1 1.8-.6 1.8-.6 3.2-1 2-.4 3-.5 2.7-.4 2.7-.2h2.7l1.5.1 3.4.5 3.1.7 1.6.5 1 .4 1.6.8 1 .6.4.3.5.6.1.3v.2l-1.5 2.7-.8 1.7-.8 1.9-.5 1.6-.5 1.7-.1 1.2-.1 1.2v3l.3 2.1.3 1.4.6 2 .7 2.1.8 2 1.7 3.6 2.8 5.4 5.7 10.3 1.7 3.6.8 1.7.7 1.7.6 1.7.4 1.6.2 1.6-.1 1.8-.2 1.8-.1 1.9-.2 3.8-.2 1.6-.2 2-.3 2-.7 3.7-.9 3.6-1.1 4.6-1.2 4-.7 1.8-.7 1.6-4.1 8-.8 1.7-1 2.4-.4 1.2-.2 1v.8l.3.1h-1l-.3.2-.5.5-.3.7v1l.1.7.3.7.4.5.6.5 1 .8 2 1.1 1.1 1 .6.6.4.7.2.7v1.4l-.3 1.4-.2.4-.7 1-2 2.6-2.4 3-1.1 1.7-1 1.6-1 1.8-.8 2-.4 1.3-.1 1.2v1.8l.4 1.6.7 1.6 1.4 2.6.3.9.2 1-.1 1-.5.9-.8.8-1 .7-1.2.6-1.7.6-1.1.2-2.1.4H204l-2.1-.1-1.5-.3-2.7-1-1.2-.3-1.1-.2-1 .1-.7.4-.4.6-.3 1.2v1.2l.4 3.7v2.6l-.3 1.4-.5 1.5-.8 1.6-1 1.6-.8 1.1-1 1-1 1.2-1.2 1.1-.8.7-1.8 1.3-2.3 1.3-2 .9-1.9.8-1.6.5-5.9 1.7-1.4.5-1.4.6-1.5.8-1.5 1-4 2.5-2.4 1.3-2.4 1.2-2.1 1-2.2.9-2.7 1-2.8.8-1.9.5-1.8.3-1.8.3-3.1.3-7.8.8-1.2.1-1.9.4-2.6.7-5 1.5-2.5.7-4.3.8-1.2.3-1.3.4-1.3.6-2 1.5-2 1.8-1.8 2.2-1.6 2.3-4.5 6.8-1 1.4-.8 1.2-.7.7-.4.2-.4-.4-.4-.7-.6-1.3-1-2.2-3.7-10.8-1.5-3.7-1-2.6-1.3-2.5-1.3-2.5-1.6-2.5-1.8-2.2-2-2.2-2-1.9-2-1.7-1.2-1-.9-.6-1-.6-1.4-.7-5.3-2.2-5-2.1-6-2.3-1.3-.6-1.2-.8-.9-.7-.8-.8-1-1.1-.6-.9-.9-1.6-.5-1.2-.4-.9-.3-1-.2-.9L44-78v-2.2l.3-1 .3-.9.7-1.5.8-1.4.8-1 1.3-1.6 1.3-1.4 1.7-1.5 1.9-1.5 2.5-1.9 3.3-2.3 10.5-7 2-1.4 2-1.5 2-1.5 1.9-1.6L79-111l2-2.1 2-2.3 1.8-2.4.7-1 1-1.4.7-1.3 1.3-2.6 1.2-2.9 1.4-4 .7-2.3 1.1-3.8.4-1.5.2-1.4.1-1.5-.1-1.1-.2-.8-.2-.5-.3-.4-.6-.7-.4-.4-.8-.6-1.4-.8-2.2-1-1.4-.5-6-2-3.2-1.2-3.1-1.3-1.7-.9-1.9-1.2-2-1.4-1.6-1.3-1.6-1.4-1.4-1.5L60-164l-3.5-3.5-1.1-1.2-1-1.1-1.3-2.1-1-2-2.7-5.2-1.9-3.2-1.4-2.2-2.5-3.6-1.5-2-1.6-2L39-194l-2.6-2.6-1.3-1.2-1.3-1-3.7-2.8-1.5-1.2L27-204l-1.3-1.4-1.1-1.2-1.5-1.8-2.2-2.9-2.2-3.2-.7-1.3-.2-.4h.3l.3-.4.5-1 .4-1.2.6-2.7.3-1 .7-1.7 2.5-4.3 1-2 .5-1.5.2-.7.1-1.1v-1.5l-.4-1-.6-1-.6-.8L22-240l-.8-1.1-.5-.9-.4-.9-.5-1-.3-1.3-.2-1.2-.2-1.6v-2.4l.2-2.3.3-2.4.3-1.2.3-1.2.4-1.1.5-1 .5-.7.6-.6.6-.3h.5l.5.1.4.3.3.3.2.4.2.6.2.7.9 5 .3 1.5.6 1.5.7 1.5.7 1.1.8 1 1 1 1.2 1.2.7.5.4.3h.2"/></defs><g clip-path="url(#p79a2732c24)"><use xlink:href="#mb2be6fc085" y="280.5" fill="#0c1321" stroke="#0c1321"/></g></g></g></g><defs><clipPath id="p79a2732c24"><path d="M7.2 7.2h233.4v266.1H7.2z"/></clipPath></defs></svg>