<svg xmlns="http://www.w3.org/2000/svg" xmlns:xlink="http://www.w3.org/1999/xlink" width="279.1" height="374" viewBox="0 0 209.3 280.5"><defs><style>*{stroke-linejoin:round;stroke-linecap:butt}</style></defs><g id="figure_1"><path id="patch_1" fill="none" d="M0 280.5h209.3V0H0z"/><g id="axes_1"><g id="PatchCollection_1"><defs><path id="m6b4e65e7b4" stroke="#0c1321" d="m183-126.1.2.4.8 1 5.8 6.4 1 1.3.4.8.7 1.7.4 1.2.5 1.2.3 1.3.2 1.3v1.4l-.1 1.2-.2 1.2-.3 1.9-.2.9-.2.9-.8 2-2.3 5.7-.7 1.6-.6 1.2-.7 1.2-.6 1-1.3 2-1 1.4-3.3 4.6-1.1 1.6-1 1.4-.7 1.4-.4 1.3-.2.9-.7 3.4-.6 3.2-.3 1.3-.2.9-.3.8-.6 1.4-.8 1.3-1 1.2-1.2 1-1.2.8-.3.2-1 .4-.7.2-1.2.4-2.2.6-3.4.8-1.4.4-.8.4-.7.4-.5.4-.3.4v.9l.3.7.4.6 1 1.2 2.4 3 1.2 1.5.7 1 1.3 2 .8 1.2.6 1 .3.8.3 1 .2 1 .1 1.2-.1 1.1-.4 1.2-.4 1.2-.7 1.4-.8 1.3-1 1.2-1.1.7-1.4.6-1.3.4-1 .2-.8.1h-1l-1 .1h-2.4l-.3.1-6.6-2.7-2.2-1-2.1-1-1.7-1-.9-.7-1.1-1-1-1-.6-1-.6-1.4-.3-.6-.3-.5-.3-.4-.7-.7-.7-.6-.6-.4-.8-.5-1-.4-1-.2h-1.3l-1 .1-1 .3-4.5 1.4-1.2.3-1.5.3-1 .2h-2.2l-1-.3-1-.3-.6-.2-1.1-.4-1-.5-1.5-.8-4.7-2.7-1.2-.5-1.5-.6-1.4-.4-1-.3-1.6-.2-1.5-.2-2-.1h-3.6l-1 .2-.8.1-.7.2-.8.2-.7.3-.7.3-.6.4-.7.4-1 .8-1 .9-.8.8-2.3 2.4-3.3 3.8-1.1 1.3-1 1-1.3 1.1-1.2 1.1-1.1.8-.6.4-.5.3h-.5l-.1-.2H71l-.3-.2h-.7l-.6.3-1.5 1-.7.4-2.5 1.3-1.2.7-.8.6-1.4 1.3-.8.6-1.7 1.2-2.3 1.6-1.6 1-1.7 1-1.7.8-1.1.4-.6.2h-.4l-1.7-2.2-.8-1.2-1-1.6-.6-1-.7-1.4-.5-1.3-.3-.8-.3-1-.4-1.5-.4-1.6-.1-1-.1-1.3v-3.6l.3-1 .3-1.1.3-1 .7-2 1.2-2.6.7-1.8.1-.6.3-1 .2-1.4v-2.2l-.4-5.9v-5.5l-.2-1.8-.1-.6-.3-.8-.2-.7-.2-.7-.3-.6-.3-.5-.4-.4-.4-.3-.6-.6-1.2-.8-2.6-1.5-1.1-.7-.6-.4-.7-.4-.6-.6-1.3-1.3-1.7-1.8-1.6-1.7-1.1-1-1.2-1-1.2-1-.8-.8-.7-1-1-1.6L25-89l-2.3-4.5-2-3.4-.8-1.4-.5-1.4-.3-1.3.1-1.4.4-1 .6-1 .6-.6.7-.6.5-.4.9-.6.4-.2h.2l.2-.1.1-.2.1-.2v-.5l-.1-.3-.2-.5-.4-.7-.4-.5-1.7-2.6-.7-1-.5-1-1-2-1.5-3-.3-.8-.4-1.2-.4-1.1-.2-1v-3.1l.3-1.4.3-1.4.7-2.3 1.3-3.6L20-140l.3-1 .5-1.1.8-1.6L23-146l.7-1 .5-.8.9-1 .5-.5.5-.4.7-.3.4-.1h.9l.5.3.5.4.4.5 1 1.3.7.8.7.7.4.4.8.4.7.4 2.8 1.2 1 .3 1 .2h2l1-.4 2.7-1.2.6-.2 1-.2.8-.1h3.2l.7-.1.7-.1.4-.2.7-.3.7-.4 1-.7.7-.7 1.4-1.3 1.3-1.4.8-1 .9-1 .9-1.3.7-1.2.5-.9.8-1.7.6-1.4.4-1.3.2-1.2v-1.6l-.2-1-.2-1-.4-1.3-.4-.8-.4-.8-3.5-5.5-3.2-4.8-7.2-10.5-1.4-1.9-1.6-2.1-1.8-2.1-1.4-1.8-.8-.7-1.3-1.3-1.2-1-.7-.5-.6-.4-1-.4-1.3-.2h-2.4l-1.1-.2-.9-.5-.7-.7-.5-.8-.2-.9.1-1 .5-.9 1-1 1.1-.8 2.8-2 1.4-1L37-212l1.3-1.3 1-1.3 1-1.4 1.8-2.9 1-1.4 1-1.3 1-1.3 2.3-2.3.9-1 .5-1 .4-.7.4-.5.3-.3.8-.1 1 .1.7.2.8.3 2.6 1.1 1.4.6 5.8 2 1.6.4H68l1.7-.4 1.7-.4 1.7-.6 1.7-.6 3.1-1.3 2.6-1.2L83-230l4.3-2.6 3.5-2 1.4-.8.4-.2 1.3-.4 1-.2 1.2-.3 2-.3 1.4-.3 1.4-.3 1.5-.4 1.3-.4 2.7-1 3.7-1.3 5-2 4.7-1.9 10.7-4.6 4-1.7 17.5-7.2 8.3-3.3v.2l.2.6 1.4 5.2.8 3.3.7 3.6.3 1.6.4 2.5.1 1.3.1 1.8v4.8l-.2 1.2-.1 1-.3 1-.2 1-.4 1-.4 1-2.2 4-.6 1.4-.5 1.3-.8 2.7-.4 1-.4.9-.4.8-.3.7-.7 1-.6.8-1 1.2-.7.7-.7.6-.8.6-.8.6-1 .5-2.7 1.5-1 .6-1.1.9-1 .8-.4.7-.5.6-.5.8-.5 1-.4.9-.2.9-.2 1-.3 2.2-.3 1.5-.5 2.2-.2.7-.4 1-.3.8-1 1.9-.5 1.2-2.3 6.8-.3.9-.6 1.3-1.5 2.6-.6 1.4-.4 1.4v3.7l.7 4 .4 2.2.3 1.2.2.8.4 1 .7 1.5 1 2 .5 1 .3.7.3 1v2.9l-.3 1-.9 3.2-.2 1-.2 1.6v1l.2.7.2.6.2.7.4.7.5.7.4.3.5.2h1l1.2-.5 1.3-.8 1.3-1 1.4-1.1 3-2.6 5.9-5.6 1.5-1.3 1.5-1.2 1.5-1.1 1.4-1 1.5-.6 1.4-.4h1.4l1.4.3.8.3 1 .3 3 1.2.7.3.8.2h2.2l1.2-.3 1.1-.5 1.7-.7 1.4-.5.8-.3.7-.2h.6l.8-.1.5.2.4.4v.5l-.2.5-.3.6-.5.6-3 3.8-.6.8-.6.9-.4 1-.6 1.4-.1 1.3v1.3l.4 2.5.2 1.2v2.8l.2 1.2.4 1.5.6 1.6.4 1 .6 1.3 2.3 4.7.6 1.1.4.9"/></defs><g clip-path="url(#p0e704370be)"><use xlink:href="#m6b4e65e7b4" y="280.5" fill="#0c1321" stroke="#0c1321"/></g></g></g></g><defs><clipPath id="p0e704370be"><path d="M7.2 7.2h194.9v266.1H7.2z"/></clipPath></defs></svg>