<svg xmlns="http://www.w3.org/2000/svg" xmlns:xlink="http://www.w3.org/1999/xlink" width="495.4" height="359.4" viewBox="0 0 371.5 269.6"><defs><style>*{stroke-linejoin:round;stroke-linecap:butt}</style></defs><g id="figure_1"><path id="patch_1" fill="none" d="M0 269.6h371.5V0H0z"/><g id="axes_1"><g id="PatchCollection_1"><defs><path id="m4e7d7f7016" stroke="#0c1321" d="m277-217.7 13.3 2.7 8.1 1.5 5.8 1 3.5.5 2 .2h4.5l1.6-.1 4.7-.7 1.3-.1h1.3l1.3.1 1.1.3 1 .6.8.7.6.6.6.7 1.1 1.4 1.8 2.5 1 1.5.6 1.1.8 1.6.5 1.3.4 1.5.2 1 .3 3 .8 5.6.2 1.6v3l.2 1.4.2 1.4.3 1.4.3 1 .2.5-.7.3-2 .8-1.8.8-3.5 1.7-3.3 1.7-2.6 1.5-1.5 1-1.4 1-1.2.9-.8.7-1 1-.5.5-.5.5-.5.7-.4.6-.8 1.8-.5 1.9-.3 2-.2 2-.1 2.1v4.2l.2 2.1.1 2 .2 2 .4 3 .1 1.3.2 2.2.2 1 .2.6.2.5.3.4.3.3.5.5.4.3.5.3.7.3 1.2.4.6.2.9.1h3.4l6-.5h3.3l1.5.1.8.2 1 .3.6.3.8.4 1 .7.8.7 1 1 .8 1 .8 1.1.8 1.4.6 1.1.8 1.6 1 2 .7 2 .5 1.7.4 1.7.2 1 .2 1.7v2.6l-.1 1.1-.4 1.6-.4 1.5-.4 1-.4 1-.5.9-.5.6-.6.8-.7.8-.6.7-.8.7-2.5 2-3 2.2-2.1 1.5-4 2.5-1.7 1.2L327-90l-4.5 3.7-4.2 3-1.7 1.5-2 1.8-2.2 2.2-3.7 3.7-2 2-3.9 4.5-1.2 1.5-1.2 1.6-.9 1.4-.7 1.4-.6 1.5-1 3-.2 1-.4.7-.7 1-.4.7-.4.4-.6.5-.3.1h-.1l-.1-.2-.6-1.1-.6-1.1-1.3-2.1-1.5-2-1.3-1.5-1-1-1.3-1.3-1.4-1.2-1.3-1-1.4-1-1.7-.9-1.3-.6-1.1-.3h-.5l-1-.1-1 .1h-.4l-.9.4-.7.4-.4.3-.7.7-2.7 3-1.3 1.3-1 .9-1.5 1.1-1.6 1.2-2 1.2-.7.3-1.1.6-1.4.6-1 .4-.8.2-.9.2-.7.1h-2.3l-1.3-.2-1.2-.4-1-.3-1-.4-.4-.2-.7-.4-.6-.4-.5-.5-.4-.7-.3-.8-.4-1.2-.4-2.2-.4-1.2-.7-1.3-1-1.4-1.3-1.2-1.6-1.1-1.8-1-1-.5-.8-.4-1.8-.6-2.2-.5-2.2-.3h-2.4l-1.3.2-1 .1-.9.3-1.5.5-1.4.6-1 .6-.4.2-.1.2-.4.1-.6.5-1.2 1.2-1.4 1.5-4.7 5.5-2 2-1.7 1.9-1.7 1.7-1 .9-1.2.9-2 1.5-2.3 1.7-4.2 2.8-10.4 6.8-2.8 1.7-3 1.7-2.4 1.2-1.6.7-2.3 1-6 2.2-2.5 1.1-2 1-1.3.7-1.2.7-2.5 1.7-7 5.2-1 .7-1.5 1-1 .6-1.1.4-1 .2h-1l-.9-.3-.8-.4-.5-.3-.5-.4-.6-.6-1.2-1.3-1-1.1-1-1.3-6.5-9-2.9-3.6-1.7-2-1.5-1.8-.8-.9-2.3-2.2-.7-.8-.7-1-.5-.7-.4-.8-.7-1.6-.5-1.5-.5-2-.3-1.8-.3-1.7-.3-3-.3-3.9-.1-3.9v-4.6l.1-1 .2-.8.2-.9.1-.5.7-1.6.7-1.4 2.7-4.6.7-1.6.3-.7.2-.8v-1.2l-.5-1-1-1-1.2-.7-1.5-.5-1.5-.4-1.6-.1h-1.5l-1.4-.2-1.3-.4-.6-.4-.5-.3-.4-.5-.7-.8-1.7-2-.9-1-.7-.6-1-.7-3.4-1.7-3-1.9-.7-.4-1.1-.6-1.5-.6-4-1.3-1.4-.5-3.1-1.3-1.4-.4-1.4-.2H83l-.9.1-.8.2-1.2.4-2.2.7-.9.2-1 .2-1.2.2h-2.2l-2-.4-5.4-1.1-2.6-.4-6-1-2.6-.4-2.2-.5-1.8-.7-.7-.3-.9-.4-1.2-.7-1.3-1-.7-.8-.9-.9-1.2-1.5-1.7-2.2-2.7-3.4-2-2.5-2-3-2-2.7-8.5-13.4-.6-.9-.2-.1 4-3.8 4.8-4 5.3-5 1.6-1.2 4.1-3.3 1.4-1.2.8-.8.4-.5.5-.8.6-1 .3-.6.5-1 .3-1v-.4h.3l1-.7 6.4-4.9 3-2.1 1.8-1.3 2.2-1.4 1.6-.8 1-.5 1.2-.5.6-.2 1.7-.4.5-.2.7-.3.7-.5.6-.5.4-.6.4-.7.4-.6.7-1.8.3-.6.3-.3.7-.6.7-.4 1-.3.4-.1 1.2-.2 3-.2 2.1-.1h.8l1 .1h.7l3.6.9 1.3.1h1l1.1-.2 1-.3 1.1-.5 1.1-.5 1.1-.6 1.6-1.2 1.3-1 .5-.6.2-.2h.5l.7.2.9.5 1 .7 1.2 1 1.3 1 1.4 1.4 1.3 1.5 1.3 1.6 1.2 1.7 1.1 1.8.8 1.4.7 1.5 1.3 3.6.7 1.7.8 1.6.8 1.6 1 1.5 1.2 1.9 6 8.8 1.1 1.6 1 1.5.8 1.4.7 1.4.4 1.3.3 1 .1 1 .3.7.3.3.5.1h.7l.8-.2.8-.3 1.2-.5 1.4-.6 1.2-.7 1.2-.7 1.5-.9 1.4-1 1-.7.8-.7 1.3-1.3.8-1 .9-1 1-1.5.6-1 1.3-2.2.6-1 .7-1 .4-.4.7-.6 1-.7 1-.5.7-.4 4.5-2 3.2-1.4 2.6-1.2 5.8-2.8 3.3-1.6 3.3-1.3 5-2 1.8-.7 1.2-.6 1.3-.6 1-.6 1.5-1 1-.9.9-.7.7-.8.6-.9.4-.9.3-1.4.1-1.4v-3l.2-2 .3-2.2v-1.2l-.2-1.4-.5-2.4-.3-1.6-.1-1.1-.1-1.4v-1.4l.2-1.6.2-.9.3-.8.4-1 .8-1.6.9-1.6.8-1.7.8-1.7.9-2.6.2-.9.3-1.3.3-1.3.2-2v-4.7l-.5-3.8-.2-1.6v-1.2l.2-.4.4-.2h.2l.3-.2 1-.6 1-.6 3.8-2.5 1.6-1 1.7-1 1.6-.8 1.5-.7 1.5-.7 1-.3 1-.2 1.4-.2h5.3l2.8-.1 1-.2 1.7-.4 1.8-.6 1.8-.7 3.6-1.6 1.8-.7 1.5-.5 1.1-.3 1.5-.3 1.2.1.8.3.6.4.8.8 1.5 1.7.8 1 1 1 1 1 1 .7.7.5 2 1 1.3.7 2.3 1 1 .5 1.2.9 1.1 1.2 1.1 1.4 1 1.5 1.1 1.6 3.3 5.2 1.1 1.8 1.2 1.6 1.3 1.6 1.4 1.3 1.4 1.1 1.3.8 2.7 1 1.2.6.8.5.3.3"/></defs><g clip-path="url(#p07d460af19)"><use xlink:href="#m4e7d7f7016" y="269.5" fill="#0c1321" stroke="#0c1321"/></g></g></g></g><defs><clipPath id="p07d460af19"><path d="M7.2 7.2h357.1v255.2H7.2z"/></clipPath></defs></svg>