<svg xmlns="http://www.w3.org/2000/svg" xmlns:xlink="http://www.w3.org/1999/xlink" width="359.9" height="374" viewBox="0 0 269.9 280.5"><defs><style>*{stroke-linejoin:round;stroke-linecap:butt}</style></defs><g id="figure_1"><path id="patch_1" fill="none" d="M0 280.5h270V0H0z"/><g id="axes_1"><g id="PatchCollection_1"><defs><path id="m1173bfea8b" stroke="#0c1321" d="m249-169-.1.2-1 .7-1.7 1.1-2.1 1.3-4.8 2.6-6 3-2.3 1.4-1.2.7-1.5 1.1-1.4 1.2-1.4 1.3-.7.8-.5.6-.9 1.5-1 2-3.6 9.3-.6 1.8-.4 1.7-.7 4.3-.7 5.2-.5 4.2-.3 4.3v5l.3 1.5.2 1.3.5 2.3.5 1.6.7 2 .8 1.8.6 1.3.7 1.3 1.2 2 1 1.5 1.5 2 1.3 1.4 1 1 1.6 1.3 3.3 2.8 4.8 4.5L237-83l1.3.9 1.4.9.6.4v.2l.3.4.1.6-.2.9-.3.5-.4.4-.4.4-1 .8-4.3 2.7-5.1 3-2 1.2-2.2 1.5-2.4 1.7-1.7 1.3-2.2 1.9-3.4 3-4 3.7-2.7 2.7-1 1-.6.9-.8 1-.6 1-.5 1.2-.3 1-.8 3.4-.2.6-.2.4v.1l-1.9-.6-1-.3-1.1-.2-1.1-.2-1.8-.2h-3.7l-2 .3-2.1.2-5 .9-4.2.8-1.5.3-2 .6-1.8.7-1 .4-2.5 1.1-1.3.7-6.9 4-2 1.2-2.2.9-1 .3-.9.3-1 .1h-1.9l-1.3-.4-1.5-.6-1.7-.8-4-2.4-1.3-.7-1.4-.6-.8-.2-1.1-.2h-.8l-1 .2-.7.2-.9.3-1.3.5-1.3.7-3.2 2-5.5 3.6-2 1.2-2 1-2.1 1.2-2.1 1-4.5 1.9-.4.2-.7.1-1.7.3-7.2 1-3 .4-3.1.7-5 1-3.4.7-2 .2-2.5.2h-2.2l-2.2-.4-3.5-.8-2.3-.6-1.8-.6-1.7-.6-1.7-.9-1.4-1-1.1-1-.3-.4-.2-.5-.2-.6-.1-.6V-29l.1-.6.4-1.2.7-1.8V-34l-.4-.6-.4-.2-.8-.3-1.4-.3-3.4-.4-1.7-.3-1-.4-1-.5-.4-.3-.8-1-.2-.4-.2-.6V-41l.2-1.6V-45l-.2-1.7-.3-1.5-.5-1.5-.9-2.6-.2-.7-.4-1.8-.3-.8-.4-.5-.5-.4-.4-.2h-1.6l-1.2.3-.8.3-2 .8-1.3.7-2.3 1.3-2.1 1.5-2.7 2.2-1 .6-1 .4-1.3.4h-1.9l-1.5-.4-1-.6-1.2-.8-.6-.7-1.5-1.6-1.4-1.8-1.3-1.8-3-4.4-.5-.9-.3-.6-.3-.8-.2-1v-2.9l.3-1.1.2-1 .5-1.5.5-1.3.4-.8.6-1 .5-.8.8-1 .6-.7.3-.2.5-.5.7-.3 1.5-.6 1.8-.5 5.5-1 4.8-1.3 1.5-.4 3.6-.8 1.2-.3L46-82l2.3-.9 2.3-1 6.8-3.1 2-.9 1.2-.4 2-.6 2.1-.6 2.7-.6 8-1.4 6-1.2 2.1-.5 1-.3L86-94l1.6-.6 1.3-.6 1.1-.5 2-1 1.6-1.2 3.8-3 1.2-.8 1.3-.6 1-.5 1.7-.5 1.4-.3h3.9l1-.2 1.3-.2 1.4-.3 2.1-.6 1.6-.5 2-1 1.2-.6 1.2-.6 1.8-1.2 1.2-.9 1.1-1 .6-.6.5-.7.7-1 .6-1.4.3-.8.1-.9.1-1.2v-1.3l-.2-1.4-.3-1.6-.5-1.6-1-3-3-7.5-2.6-6.7-2.1-5.4-.8-2.2-.7-2.3-.3-1.4-.2-1.3v-1.5l.1-1.4.5-2 .7-1.9 1-1.7 1.3-1.6.9-.8.8-.8 2.3-1.8.9-.8.5-.6.3-1v-.7l-.3-.5-.4-.4-1.1-.4-.9-.1h-1l-4.2.2h-2l-1.2-.2-1.2-.3-1.2-.4-.3-.1-.8-.6-.7-.7-.4-.6-.5-1.2-.3-1.3v-1.1l.2-1.2.4-1.7.3-1.5.5-1.6 2-6 .7-2.4.8-3 .3-1.6.2-1.8v-.7l-.3-.2 3.3-1h1.5l.5.1 2 .7 1 .3 2.4.5h.7l.3-.2 2-.5 9.6-1.7 1.6-.4 2.6-.7 1.5-.5 1.8-.8 1.4-.7 1.6-.9 1.4-1 1-.8 1.8-1.6 1.4-1.6 2.5-3.3 1.2-1.3 1.7-1.8 4.8-4.7 1-1.2 1-1.1.9-1 1.6-2.3 1-1.7.7-1.6.2-1.1.1-.6.1-4 .2-1.4.1-.7.6-1.8.5-1.2.6-1.1 1-1.3 1-1.2.5-.4.8-.7.9-.4.6-.4.8-.3 1.5-.4 1.6-.4 1.4-.3 2.5-.3 2.5-.2 12-.3h1.4l3.8.1h2.7l1.5-.2 1.1-.1 2.2-.6 1.9-.7 1.7-1.1 1.4-1.2 1-1.2.7-1.4.5-1.6.2-1.3v-3.6h.4l.4.2 1 .7.5.5.9.7 1 .9 1.7 1.9.8 1 1.6 2.2 1.5 2.2 3.3 5.2 2.1 3 1.8 2 1.4 1.6 5.3 5 1.4 1.5 1 1 .8 1 1.3 1.8 1.5 2.8.9 1.7.7 1.8.6 2.3.4 2.3.3 2.3.2 1.8.1 2v4l-.2 1.4-.5 4-.5 3.7-.3 1.4-.4 1.2-.3.7-.7.9-.7.7-.6.3-1 .6-2.4 1-1.3.5-1.3.7-1.1 1-1 1-.7.6-.6 1-.3.7v1.6l.2 1.1.4.8.8 1.6 1 1.6 1.9 2.4 2.7 3.2 1.7 1.8 3.1 3.3"/></defs><g clip-path="url(#pcc17687f8f)"><use xlink:href="#m1173bfea8b" y="280.5" fill="#0c1321" stroke="#0c1321"/></g></g></g></g><defs><clipPath id="pcc17687f8f"><path d="M7.2 7.2h255.5v266.1H7.2z"/></clipPath></defs></svg>