<svg xmlns="http://www.w3.org/2000/svg" xmlns:xlink="http://www.w3.org/1999/xlink" width="387.9" height="374" viewBox="0 0 290.9 280.5"><defs><style>*{stroke-linejoin:round;stroke-linecap:butt}</style></defs><g id="figure_1"><path id="patch_1" fill="none" d="M0 280.5h291V0H0z"/><g id="axes_1"><g id="PatchCollection_1"><defs><path id="m3bc1778d5f" stroke="#0c1321" d="M271.2-70v.2l-.7 1.3-1.3 2.2-1.2 2-.8 1.3-1.5 2.1-3 4.2-.8 1.2-.7 1.2-.6 1.2-.5 1.1-.3 1.2v1.5l.3 1.4 1 4.7.4 1.6.2 1.6.3 1.6v1.6l.1 1.6-.1 1.5-.2 1.4-.4 1.4-.4 1.1-.6 1-.8.7-1 .4h-1.2l-1.4-.1-1.5-.3-1.5-.5-1.6-.5-1.6-.5-8.3-3-5-1.8-1.7-.6-1.7-.6-1.5-.8-1.5-.9-1.4-1-1.2-1.1-1.2-1.2L225-42l-1.1-1.3-1.1-1.4-5.5-7-1.1-1.2-1.1-1.3-1.2-1.2-1.2-1.2-1.2-1-1.4-.7-.7-.3-1-.3-.6-.2h-3.2l-1 .2-1.5.3-2.2.6-1.3.3-.7.1-.8.1h-1.9l-.9-.1-1.3-.3-7.7-2.1-1.2-.4-1.2-.5-.6-.3-.8-.4-.5-.4-1.1-.7-1.8-1.4-2.8-2.2-.8-.6-.8-.4-.5-.1h-.8l-.5.3-.5.4-.4.5-.3.5-.6 1-.5 1.3-.4 1-.4 1.2-.5 1.7-1 4.6-.5 2.1-.8 2.5-2.6 7.6-.6 1.6-.2 1-.5 2-.3 1.2-.8 5.3-.2 1.5-.3 1.5-.4 1.6-.4 1.5-.4 1.4-.5 1.4-.5 1.2-.6 1-.6.7-.7.4h-.9l-1-.5-1-.8-1-1-1.2-1-1.2-1.3-2.3-2.6-7.2-8.3-2.3-2.8-2.3-2.7-1-1.4-1-1.4-1-1.4-.8-1.4-.6-1.4-.4-1.4v-3.1l.2-1.2.2-1.1.8-4 .5-3 .6-3.2.1-1.1.2-1.4V-69l-.4-6.3-.1-1-.2-1.6-.3-1.8-.4-1.5-.5-1.6-.5-1.5-.6-1.5-.7-1.3-.9-1.2-1-1-1.3-.8-1.3-.5-1-.3-1.5-.3-2.8-.6-3-.7-1.6-.3-1.2-.2-1.6-.1-1.6-.1h-1.6l-5.5-.1-1.6-.1-1-.1-1.6-.3-1.4-.4-4.3-1.2-1.4-.4-2-.4-1.6-.2-1.5-.1H83l-1.7.3-1.5.4-1.2.4-1.2.5-.6.3-2.2 1.2-.5.3-.7.2-.3.1-.7.1h-.2l-1-.2-.4-.1-.5-.2-.5-.3-.7-.6-.4-.3-.7-.7-.4-.6-.3-.5-.3-.6-.4-1-.3-1-.7-3.2-1-3.5-.2-1.2-.3-2-.2-1.2v-4.8l.2-.8.1-.4.4-.6.5-.6.3-.6.4-.7.2-.8.1-.7.2-1.7.1-.8.4-1.9.1-1v-1.8l-.3-1-.3-.8-.8-2.1-.4-.8-.5-.8-.7-.8-.7-.8-2.2-2.6-1-1.1-.6-1-.4-.6-.5-1-.7-1.2-.5-1.3-.5-1.4-.3-1.3v-1.4l.1-1 .3-.8.6-1.2.7-1 1.6-1.9.8-1.1.4-.8v-.8l-.1-.7v-.1l-.6-.7-.7-.4-.4-.3-.8-.3h-.4l.2-.4.4-.9.3-1.3.4-1.4.2-1.6v-2.2l-.1-1.2-.2-1.3-.5-1.8-.5-1.9-.4-1.1-.3-.8-.3-1-.6-1.2-.5-.9-2-3.2-1-2.1-1-1.4-.7-1-1-1.2-.8-1-.8-.9-1-.8-.8-.8-1.2-.9-1-.6-1-.6-3-1.4-1-.5-1-.6-3.2-2-1.3-.8-1.3-.5-4.3-1.7-.7-.3-.7-.4-1.4-1-1.2-1-1.2-1-1-1.2-1-1.3-.7-1.4-.3-.5-.3-.9-.1-.5-.2-1-.1-.7-.1-.8v-2l.2-.7.2-1.1.4-1 .5-1.3.1-.3v-.4H21l.2-.2.6-.3 3.4-1.2L29-221l.9-.3.9-.3 1.6-.3 1-.2.4-.2.6-.3.5-.3.5-.6 3.8-4.8 2-2.7.5-.7.6-1 .5-.8.5-1.3.2-.6.1-.4v-1.5l-.3-.7-.4-.9-1.4-2-.5-1-.4-.9-.3-1-.3-.8v-1.5l.2-.5.3-.7.3-.8.6-1 1.2-1.9.6-1 .5-1 .4-1 .1-.8.1-.7v-1l-.2-1-.2-.8-.4-1.1-.5-1-.4-.6-.4-.2.5.1 4.2 1.4 3.7 1.2 1.9.6 1.9.5 1.7.4 1.6.3 1.4.2 1.5.2h6.1l2.8-.2 4-.4 2.1-.3 2.5-.4 3.6-.8 1.3-.2h1.3l2.5-.3 1.2-.1 1.2-.3 2.6-.9 1.2-.3 1.2-.2 1.3-.2 1.3-.2h6.4l2.3.1 1.4.2 1 .1 1 .3 1 .3.8.3.8.4.7.4.8.5 1 .7 1 1 1.5 1.3.5.6.7.8.5.7.7 1 .7 1.2.3.6.7 1.4.8 2 1.4 4 1.2 3.2.4 1.4.4 1.5.2 1 .2 1.1.4 4 .2 1.3.4 1.3.6 1.3.6 1.3.8 1.3.8 1.2.8 1.3 3 4.2 1 1.4 1.4 2.2.6 1 1.6 3 1 1.6 1.3 1.7 1 1.1 2.6 3 .7.8.5.7 1.7 2.6 1.3 2 .7 1.1.4.8.3.9.3.8.3 1.2.4 2.5.4 1.6.4 1.6.4 1.6.5 1.5.6 1.5.4 1 .5 1 .4.9 1 1.3 1.2 1.7 2 2.4 1 1.3.5.4 1.1 1 1.2 1 3.6 2.7 1.2 1 1 1 2.8 2.8 3 2.6.6.7.4.5.2.4.3.5.4 1 .2.6 1 3.5.9 2.8.5 1.5.5 1.5.5 1.2.5 1.2.5 1.2.7 1.2.7 1.3.9 1.3.9 1.3 1 1.3 1 1.2 1.1 1.3 1.2 1.3 1.2 1.2 1.4 1.2 1.3 1 1.3 1 5 3.4.9.7 1 .9 1 1 .9 1 .6 1 .2.6.2.7.2.8.1 1 .2 2.3v1.6l-.2.6-.3.8-.5.7-.5.7-.6.7-.6.6-.7.7-.7.5-.6.5-.6.3-.6.4-.8.4-.6.2-.8.3-.8.2-2.5.5-2.5.5-.7.2-.4.1-.7.4-.6.4-.3.4v.2l-.2.2v1.3l.3 1 .7 1.1.8 1.2 1 1.2 1 1.3 2.2 2.6 4.7 5.1 1 1.3 1.1 1.3 1 1.3.8 1.2.7 1.3.4 1.3.1 1.2-.2 1.3-.3 1.2-.4.9-.3.9-.2 1v1.5l1 1.5 1.4.7 1.7.5 1.2.3h1l1-.7.8-1 .7-1 .5-1 .8-1.9.6-1 .6-1 .6-.7.8-1 .9-1 .8-1 1-.7.4-.3 1.1-.6 1.2-.3.4-.1h1.9l1.3.2 1 .2 2 .4.6.1.8.1 2 .1h1.2l4.4.6 1 .1 3.2.2h1.4l3-.1h4l1.3.1 1.5.3 1.6.4 1.6.5 1.6.7 1.7.7 1.6.8 3.4 1.7 3.5 1.8 3.3 1.7 3.6 2"/></defs><g clip-path="url(#pc16a306722)"><use xlink:href="#m3bc1778d5f" y="280.5" fill="#0c1321" stroke="#0c1321"/></g></g></g></g><defs><clipPath id="pc16a306722"><path d="M7.2 7.2h276.5v266.1H7.2z"/></clipPath></defs></svg>