<svg xmlns="http://www.w3.org/2000/svg" xmlns:xlink="http://www.w3.org/1999/xlink" width="245.2" height="374" viewBox="0 0 183.9 280.5"><defs><style>*{stroke-linejoin:round;stroke-linecap:butt}</style></defs><g id="figure_1"><path id="patch_1" fill="none" d="M0 280.5h183.9V0H0z"/><g id="axes_1"><g id="PatchCollection_1"><defs><path id="mec4577d006" stroke="#0c1321" d="m141.8-83.2.1.3.2.2.5.4.9.7 1.2.9.6.3.5.3 1 .4 1.5.6.8.4.7.4.8.4 1.3 1 .7.4 1.2 1 1.5 1 1.5 1.3 1.5 1.4.8.8.6.6.5.6.5.7.5.6.4.6.3.6.3.6.2.7.3.9.4 1.7.3.7.2.6.4.9.5.7.4.5.4.4 1.4 1.2.6.5.3.4.3.4.4.7.2.5.2.5.1.7.1.8v3.8l-.1 1-.2 1-.1 1-.2 1-.1.7-.2.7-.2.6-.3.7-.4.6-.4.5-.3.3-.6.5-.7.4-.5.2-.9.4-.8.3-1 .3-.9.3-.8.1-1.4.3-.7.2-1.3.1-1.1.1h-.7l-2.3.1h-.6l-.8.1-.7.1-.7.3h-.3l-.4.3-.2.2-.3.2-.3.3-.8.9-1.1 1.1-.6.7-.5.7-.4.5-1.4 2.7-.1.2-.3.4-.2.3-.3.3-.2.1-.3.2-.4.3-.4.1-.6.3h-.5l-.6.2h-.5l-.9-.1-3.1-.3h-1.8l-.5.2-.4.3-.3.1-.4.3-.2.2-.3.3v.2l-.2.2-.1.3-.1.6v1.8l.3.7.2.5.2.6.5 1 1 1.6v.4h-.3l-.4-.2-.6-.4-.6-.4-2.5-2-2-1.5-.7-.5-.6-.6-.6-.5-1-1.1-1.4-1.5-.5-.4-.3-.3-.3-.2-.4-.2-.5-.3-1.2-.5-.7-.3-.4-.2-.4-.3-.2-.2-.1-.2v-.2l-.1-.2v-.6l-.1-.3-.3-.3-.2-.2h-.2l-.1-.1h-1.2l-1.5.3h-.3l-.4.1h-.6l-.4-.3-.2-.2v-.2l-.9-1.2-.3-.5v-.3l-.3-.5-.3-1.2-.2-.5-.2-.5-.3-.5-.2-.2-.3-.3-.4-.2-.3-.1-.9-.4-.6-.1-.4-.1h-.9l-.3.1-.4.1-.4.2-.4.3-.5.4-1.8 1.3-1 .6-.5.3-.5.3-.6.3h-.2l-.5.1h-.7l-.8-.4h-.5l-.4-.1-1.5-.1h-1.2l-.6.1-.6.2-.3.1-.5.3-.7.4-.5.4-.5.5-.2.3-.3.4-.1.4-.1.5v.4l-.1.4v.8l.1.4.4 1.6.4 2 .3.7.1.6.3.5.3.8v.3l-1.3-.1h-3.7l-.6.2h-.3l-.6.3-.2.1-.4.3-.2.1-.4.1h-.4l-1.3-.2h-.5l-2.3.1-1 .2h-.4l-.3.1-.3.2-1.9 1.2-.3.2-.3.2-.5.1-.5.2-1 .1h-.4l.1-.1v-.8l-.1-.4-.2-.5-.3-.5-.3-.6-.3-.5-.3-.5-1.6-2-1.3-1.8-.8-1.3-1.8-3.2-.4-.8-.4-.6-.5-.7-.4-.4-1.7-2-.5-.6-.3-.5-.4-.5-.3-.5-.2-.5-.2-.5-.3-.6-.1-.5-.2-.4v-.5l-.2-.6v-.7l-.1-.7v-3.6l-.1-.6-.2-.7-.7-2.7-.2-1-.1-.6-.1-.6V-57l.2-1 .2-1.2.3-1 .2-.6.3-.5.2-.4.3-.5.4-.6.9-1.2.3-.5.3-.6.2-.6.1-.5.1-.5.2-1.8v-.7l.2-.5.2-1.1.7-2.4.3-1 .2-1.3v-.6l.1-1v-1.3l-.1-.7-.3-1.2-.2-.5-.4-1-1.1-2.7-.3-.7-.2-.4-.3-.5-.5-.7-.6-.7-1-1.1-.5-.6-.5-.6-.4-.7-.6-1-.5-1-1.8-4-.9-1.9-.5-1-1.3-2.6-1.2-2.2-1-1.7-.4-.6-.8-1.1-.6-.9-.6-.6-.4-.5-.5-.5-.7-.6-.7-.6-.6-.5-.7-.5-.8-.6-1-.5-.6-.3-.7-.3-.7-.2-.5-.1-.6-.1-.7-.1h-.5l-1.8-.2H34l-.8-.1-.5-.2h-.3l-.3-.2-.7-.4-2.8-1.7-1.8-1.1-.6-.4-.7-.3-.5-.2-.7-.2h-.6l-.9-.1H21l-.5-.1H20l-.6-.2-.7-.3-.5-.3-.5-.2-.8-.6-.6-.5-.4-.3-.4-.5-.3-.5-.2-.5-.2-.6v-.9l.3-.5.3-.5.2-.2.2-.2.4-.1.7-.3.6-.4.7-.4.4-.3.7-.5.7-.6.4-.4.6-.6.4-.5.6-1 .4-.5.3-.6.4-1 .2-.7.1-.6.2-1.1.1-1.1.2-1.7v-3.4l.2-1.7v-.6l.4-1.8.4-2.3.3-1 .2-1 .3-.9.2-.6.3-.5.4-.9.8-1.2.8-1.4 2.7-3.7.8-1.3.7-1 .6-1 .5-1 .3-.6.1-.5v-.7l-.2-.1-.5-.4-.2-.2-.1-.2-.6-.8-.2-.3-.1-.3-.1-.4v-1.6l.2-.6.5-2 .2-.8.1-1 .2-2 .1-1 .3-.9.3-.9.5-.9.4-.9.5-.8.6-1 1.7-2.7 1.1-1.8 1-1.9.6-.9.5-1 .4-.9.3-.8 1.5-3.7.4-1 .4-.7.4-.8.9-1.6.7-1.3.7-1.1 1.1-1.6 1.2-1.7 1-1.3.7-.7.6-.7.7-.7.6-.6.7-.5.8-.5h.1l.2-.1.8-.3.8-.2h2.5l.8.3.6.3.2.1.4.3 1 .9.5.3.4.2.2.1.4.2h.4l.4.2h1.1l.4-.2.5-.2.4-.1.5-.3.4-.2.6-.3.7-.6.6-.4.7-.6 1-1 .7-.7 2-2 1-1.1 1-1.1.6-.6.8-1 .5-.7.4-.7.1-.3.3-.8.3-.8.1-1 .1-.6.1-.7.1-1 .1-1.4.2-5.1.1-2.7v-2.5l-.2-.7v-.5l-.4-1-.1-.4-.5-1-1.4-2.8-.7-1.1-.8-1.5-.7-1-.6-1-1.4-1.9-.8-1-.7-1-.8-.9-.8-.8L67-257l-.9-1-.5-.6v-.1l-.1-.2.6.2 1.5.2 1.4.1 1.3.1h4.4l.5-.2 1-.3.7-.3 2.2-.9 1.5-.5.8-.3.6-.2.6-.2h.7l.6-.1h.6l.7.2.8.3.7.4.9.6.6.5 1.6 1.5.9.8 1 .7.4.3.7.5.8.5.8.3 1.8 1 1 .3 2.8 1 1.1.5 1 .5.5.2.5.4 2 1.4.7.5.4.1.5.2.4.2.8.1h.5l.6.1 2.2.1 1 .1 1.2.1 1 .2.8.1.5.2.4.1.4.3.2.2.1.2v.6l-.2.3-.3.4-.3.3-1.8 2-1 1.1-.6.9-.3.4-.4.6-.2.6-.3.8-.3 1-.1.9-.4 2-.2.9-.2 1-.7 2-.1.6v.3l-.1.5v1.2l.1.3.2.3.2.4.1.3.3.4.7 1 .3.5.3.5.3.6.1.4.2.5.1.6.1.4v2.5l-.4 2.3v2.1l.1.2.2.6.1.4.3.4.2.3.5.7.7.9.7.6.3.3.3.3.6.4 1.8 1.2.8.5.4.2.7.4 1 .4.7.2.8.2 2 .4 1 .3 2 .7h.5l1 .3h6.5l.7.2.3.2.6.5.4.4.3.4.4.6.3.5.2.4.2.5.2.6.3.6.1.6.4 1.2.3 1.3.2 1.2.4 2 .2 1.4.3 1.7v.9l.2 1.5.1 2.5v3.1l-.2 1-.1 1.2-.2 1-.1 1.1-.3 1-.2.8-.2.8-1 3.3-.5 1.2-.3.7-.6 1.5-.5 1-1.2 2.7-.7 1.5-.2.7-.3.7-.2 1-.1.5v3.3l.3 1.5.7 3.2.3 1.8.1 1 .1.8v1.8l-.1 1-.2 1-.3 1.1-.3 1-.2.8-.6 1.5-.3.8-.3.7-.4.8-.2.4-.3.5-.4.7-.5.6-1.8 2.5-.6.9-.5.8-.4.8-.5 1-.3.8-.3.8-.4 1.5-.4 1.2-.4.8-.4.8-.2.4-.5.6-.4.6-.6.6-1.3 1.4-1.4 1.3-1 1.1-1 1-.3.5-.4.5-.6 1-.3.5-.3.5-.3.6-.2.6-.1.4-.1.5v1.4l.2.4.3.4.4.4.4.4.4.4 2.2 2 2.5 2.2.6.6.9.6.5.4 2.1 1.3 1 .7.5.4.5.4.7.6.5.5.4.5.7.8.4.6.7 1 .4.6 1.5 2.8.7 1.3.5 1 .8 1.8.3.9.2.5.3 1.6.1.5.2.4.2.3.3.3.4.3.6.2.6.3 1.5.5.5.2h.1v.1"/></defs><g clip-path="url(#p23045ef0f5)"><use xlink:href="#mec4577d006" y="280.5" fill="#0c1321" stroke="#0c1321"/></g></g></g></g><defs><clipPath id="p23045ef0f5"><path d="M7.2 7.2h169.5v266.1H7.2z"/></clipPath></defs></svg>