<svg xmlns="http://www.w3.org/2000/svg" xmlns:xlink="http://www.w3.org/1999/xlink" width="495.4" height="234.8" viewBox="0 0 371.5 176.1"><defs><style>*{stroke-linejoin:round;stroke-linecap:butt}</style></defs><g id="figure_1"><path id="patch_1" fill="none" d="M0 176h371.5V0H0z"/><g id="axes_1"><g id="PatchCollection_1"><defs><path id="mc5109a0fea" stroke="#0c1321" d="M340.6-49.5v.1h.1l.4.1 2.7-.1h1.4l.6.3.5.2.3.4.3.3.3.4.3.6.3.6.2.7v1.6l-.1.7-.2.6-.3.5-.6 1-1 1.6-.6.7-.5.6-.5.3-.4.3-.6.3-.7.3-.5.1-1.1.2-1.2.1h-4.4l-3.6-.3h-4.1l-3.2.2-3 .3-1.6.2h-.6l-1 .4-10.4 2.5-2.4.5-1.9.4-2.2.3h-3.8l-1-.2-1-.3-.7-.3-.8-.5-.7-.6-1-1-.8-.9L290-38l-2.6-3.2-1-1.1-.7-.8-1-1-1.2-1-1.4-1-1.4-1-1.3-.6-1.3-.7-1.2-.4-1.6-.5-2-.5-5-1.1-1.9-.4-1.3-.1h-1.7l-.5.2-.7.2h-.3l-.7.4-.8.6-.8.7-3.2 3-.8.7-.8.6-1.3 1-1.1.7-1.4.7-.8.4-1 .3-1.3.4-1 .2h-3.3l-1.1-.2-1-.1-2-.5-2.3-.7-6.7-2.2-1.5-.5-.8-.3-1-.5-1.1-.5-4-2-1.2-.6-3-1.7-2.2-1.2-1.7-.7-1-.4-.8-.2-1.5-.2-1-.2h-1.3l-1.6-.2h-2l-4.3.3h-3l-1.5-.3-1.8-.4-1.8-.5-2-.6-.8-.3-1.6-.7-3.3-1.4-6.4-2.7-3-1.3-2-1-2.4-1.4-2-1.2-3.5-2-1.3-.7-.8-.4-.4-.2h-.6l-.6-.1h-.6l-.5.3-.4.4-.7.7-.5.6-.7 1-1.2 1.8-1.3 2.1L154-59l-.6 1.2-1 1.9-2.8 6.1-.8 1.7-.7 1.8-.5 1.7-.5 2-.3 1.6-.3 2.3-.1 1.4-.1 2.3-.2 6.3v2.2l-.1.2.1 3.9v3.5l-.4 1.7-.3 1-.4.7-.5.6-.3.1-.3.2-.5.1H142l-.6-.2-.6-.3-.6-.3-1-.6-.6-.6-.8-.9-1.1-1.6-4.1-6-.8-1.2-.8-1.5-.5-1-.4-1-.2-1-.2-.7-.2-1-.6-4-.2-1.4-.5-2.3-.4-2-.5-1.6-.6-2-.7-2-1-2.6-.3-1-.2-.8-.3-.8-.2-1-.1-.9-.1-1.2V-64l-.1-1.3-.2-.9-.1-.5-.1-.3-.2-.4-.3-.4-.3-.3-.3-.2-.4-.2-.5-.1h-2.3l-.9.2-.7.1-1.1.4-.7.2-1.6.6-1.3.6-4.7 2.3-1.3.6-1.3.4-1.8.6-2 .7-2.6.7-4 1.2-4 1.2-6.9 2.1-4.3 1.5-2.2.7-1.4.3-1.4.3-1.5.2h-2.5l-1.2-.2-1-.2-1.1-.3-.8-.3-.8-.3-1.1-.6-.7-.4-1.4-.9-2-1.4-5.2-4.1-6.6-5-3.8-2.8-1-.8-1.3-1-1-1-.8-.8-1-1.2-.5-.7-1-1.4-.9-1.6-.4-.8-1.6-3.3-.3-.6-.5-.8-.4-.6-.4-.5-.4-.4-.6-.6-1-.9-.6-.6-.4-.4-.4-.5-.7-1.1-.5-.9-1-1.8-2-4.3-2-3.9-.4-1-.4-.8-.2-.7v-.5l.2-.4.5-.5.8-.5.9-.5 1-.6 1.4-.6 3-1.3 5.8-2.4 5-2 7.5-3.4 7.2-3.2 7.6-3.3 2.3-.9 1.2-.4 1.6-.5 1.7-.3 1-.2 2.2-.3 5.6-.7 3.5-.4 1.2-.2 2.4-.5 1.4-.4 1.2-.3 1.4-.5 1.3-.4 1.7-.8 1-.5 3.6-2.1 1.5-.8 3.7-1.9 1.1-.6 1.9-1 2.2-1.6 8-6 .9-.6 1.2-.8 1-.6 1-.5 1-.4 1.4-.4 2.3-.6 1.3-.5 1.2-.5.9-.7 1-.7.8-.7 2-1.9 1.3-1.1 2.2-1.7 1-1 3.4-3.2 1-.8.6-.4.8-.5.3-.2h.2v.1l.4.4 1 .8 1 1 1.4.9 1.4.8 1.5.8 1.4.7 2.2.8 1.1.5 1 .6.3.2.6.6.7.8.8 1.3 1.2 2.1.4.6.7.7.5.4 1 .5 1 .5 1.4.4.9.2.9.1h.8l1.8.2h5l.7.2.6.3.4.4.2.3.2.5.2.6.1.8.2 1.8v.6l.3.7.2.3.3.3h.6l1-.3.4.1.2.3v.9l-.3 2.4v1.2l.2.5.2.4.3.3.5.2.6.2h1.9l1.2-.3 2-.4 1.6-.3 1.8-.2 1.6-.2h1.8l2-.1h2.2l2.5.2h2.4l1.2-.2 1.1-.2.9-.3.6-.4.5-.3.6-.4.4-.5.7-1 .5-.8 1-2 .6-1 .6-.7.6-.7.7-.7.4-.3.4-.2.3-.1.5-.1h1l.3.1.4.3.4.3.5.5.6.8 1.5 2.2.6.7.6.8.8.7.5.5 1.4 1.1 3.5 2.5 3.7 3 .7.5 1.3.8.8.5 1 .3 1 .3 3.8.9 1 .3 1.8.5 2.4.9 4.3 1.7 1.5.5 1.6.3 1.4.2 1.4.1h2.4l1.4-.1 1.5-.2 1.5-.3 1.2-.3 2-.7 3.2-1.2 1.7-.6 1.7-.4 1.7-.4 1.7-.4 1.7-.3 1.7-.2 1.7-.2h4.9l1.6.3 1.5.4 1.5.5 4.2 1.8 4 1.4.9.3.7.4.5.3.2.3.5.4.6.8.4.7.6 1.2.4 1 1.1 3 .7 1.5.7 1.5 1 1.5 1 1.3.6.6.9.7.8.6 1.2.7 1.2.6 1.3.6 1.3.4 1.2.4 1.2.2 1.5.3 4.3.5 2.4.4.9.3 1.7.4 1.3.4 1.3.5 1.4.6 1.2.7 1.5 1 1 .7.7.6.9.9.7.9.4.5.8 1.5.7 1.5.6 1.7.5 1.7 1.8 6.8.5 1.6 1 2.8.4 1.3.3 1.3.2 1.2v1.6l-.2 3.9v4.2l-.1 1-.1 1-.3 1.9-.6 3.3-.6 2.5-1 4.6-.1.5v.2"/></defs><g clip-path="url(#p7281715239)"><use xlink:href="#mc5109a0fea" y="176.1" fill="#0c1321" stroke="#0c1321"/></g></g></g></g><defs><clipPath id="p7281715239"><path d="M7.2 7.2h357.1v161.7H7.2z"/></clipPath></defs></svg>