<svg xmlns="http://www.w3.org/2000/svg" xmlns:xlink="http://www.w3.org/1999/xlink" width="472.4" height="374" viewBox="0 0 354.3 280.5"><defs><style>*{stroke-linejoin:round;stroke-linecap:butt}</style></defs><g id="figure_1"><path id="patch_1" fill="none" d="M0 280.5h354.3V0H0z"/><g id="axes_1"><g id="PatchCollection_1"><defs><path id="m807b6b564c" stroke="#0c1321" d="m321.8-119.6.5.2 1.2.7.8.5.9.6.8.7.6.5 1.2 1.5 1 1.6.4 1.3.3 1.5v2.5l-.3 1.7-.3 1.4-1.3 5.6-.3 1.8-1 5.5-.3 2-.5 1.9-.4 1.6-.8 2-.7 1.6-.8 1.6-1.7 3.2-.5 1-.4.9-.5 1.2-.4 1.2-.3 1.3-.3 1.5-.2 1.7v2.3l.1 1 .4 1.5.4 1 .3.7.5 1 .7 1 .8 1 .5.6.6.7.7.6.7.7.8.6 1 .5.7.5 2.2 1 1 .7.4.2.4.3.4.5.2.4.2.4.1.6v1.5l-.2.7-.3.5-.4.6-.2.2-.6.6-.7.5-1.3.6-1.4.5-1.4.5-1.6.3-1.1.3-1.6.2-2.9.4-5 .4-5.5.3-2.5.2-1.4.2-2.5.5-2.4.5-1.4.3-1.8.5-1.1.4-2.3.8-1.5.7-1.4.6-1.4.8-1.4.8-1.2.8-1.2 1-.9 1-.7 1-.9 1.2-.6 1-.5 1-.5 1.4-.2.7-8 2.8-4.8 1.6-2.7.8-3.8 1-3.7.9-2.8.5-2.5.3-3 .4-2.2.2-2.2.1-2.5.1H239l-1.8-.2-1.8-.2-1.7-.4-1.3-.5-1.1-.5-.8-.4-1.4-.9-12-8.5-1.3-.8-1.5-.9-1.4-.7-1.4-.7-1-.4-.7-.2-1.3-.4-2.1-.5-.7-.2-.3-.2v-.1l.2-.2.4-.3 2.7-2.2 1.2-1 .8-1 .3-.5.3-.4.2-.6v-.4l-.1-1-.4-.8-.9-.9-.9-.6-1-.6-.9-.5-6.4-3.2-4.2-2.1-9.7-5.1-3.6-2-3.3-2-1.5-1-1.4-.9-1-.8-1-.8-1.8-1.7-1.7-1.9-2-2.2-1-1.2-1.4-1.9-3.5-4.8-1.4-1.8-1.8-2.1-1-1.1-.8-.8-1.2-1.1-3.5-3-1.7-1.8-1.3-1.4-.6-.7-1.3-1.9-1.2-1.5-1-1.3-1.2-1.2-1.3-1-1.3-1-1.3-.6-1-.5-1.7-.6-1.2-.3-1.4-.4-1-.2-1.7-.2h-2.8l-2.3.3-1.7.4-9.6 2.5-3 .8-2.5.5-1.6.4-2.2.7-1.8.7-1.3.8-1.2.8-1 1-1.9 1.9-1.3 1.1-2.6 2-4 3.3-1.3 1-2 1.4-1.3 1-1.5.8-1.7 1-1 .5-1 .5-1.8.6-1.2.3-1.3.2h-1.6l-1.7-.3-7.5-1.3-8-1.5-2-.4-1.1-.3-1.8-.6-1.5-.6-2.3-1-1-.5-1-.6-1.6-1-1.6-1.2-1-.6-1.4-1.2-.7-.7-.7-.8-.7-.8-.6-1-.4-.9-.3-1-.1-1.4.3-1.6.5-1.2.9-1.2 1-1 2-2 1-1.2.9-1.3.4-1.1.2-1.3-.1-.7-.2-.7-.4-.8-.4-.7-.9-.9-1.1-.6-1-.3-1-.2-1.3.1-1.6.3-4.1 1-1.1.2-1.7.2-2-.1-1.3-.2-1.3-.3-1.7-.7-1.5-1-1.1-1.3-.7-1.4-.4-1.4v-2l.2-1.2.5-2.2.1-.7h.2l.3.1h.5l1.6-.2 1-.3 1.5-.4 2.5-.7 1.3-.5 2.6-1 2.5-1 1.3-.7 2.9-1.4 4-2.1 6.7-3.7 2.8-1.4 1.5-.7 1.4-.6 2.3-1 2-.7 2.2-.7 2.3-.7 1-.2 1.1-.2 1.7-.1h1.8l1.3.3 2.4.5 1.3.1H79l1.6-.3 4.7-1 1-.3 2.3-.2 1.2-.2 1.7-.5 1.7-.8 1.3-.7 1.3-.8 1.6-1 3.2-2.3 6.5-5 1.7-1.3 2.5-1.7 1.3-.8 1.5-.9 1.5-.7 1.4-.7 1.4-.5 1.4-.4.9-.2h2.4l.8.2 1 .3.4.2 1 .5 2 1.4 1.3.6 1.2.5 1.3.2 1.4-.1 1-.3 1.1-.5 1.1-.6 1.1-.7 1.6-1 1.6-1.3 6.4-4.9 3-2.1 1.7-1.2 1.7-1 1.7-1 1.8-.8 1.8-.7 1.7-.4h1.7l1.8.2 1.5.4.9.4 3 1.3 4 1.8 3.5 1.7 1.8.7 1.7.5 1.6.4 1.5.2 1.4-.1 1-.4.7-.7.2-.4v-.5l-.2-.5-.2-.4-.7-1-2.1-2.6-1.5-1.7-1.7-1.8-.9-.7-.8-.8-1.2-1-1.4-.8-1.4-.9-1.3-.7-1.3-.7-2.4-1.1-2.5-1-2.3-1-2.5-.8-2.9-.8-2.6-.5-3.6-.7-3.4-.4-4.5-.5-2.4-.4-2-.5-2.1-.6-1.2-.3-4.3-1.5-4.2-1.6-8.3-3.1-6.2-2.4-4.2-1.7-2-.9-2-1-2-1-1.8-1-1.7-1.1-1.6-1.4-1.4-1.5-1.2-1.7-1-1.8-1-1.8-.6-1.9-.5-1.7-.1-1.6.2-1.5.5-.9.5-.6.5-.5.6-.4.8-.5 1-.4.5-.1.5-.1h.7l.7.1.9.2 2.7.9 1.4.3 1.4.2 1.4.2h.8l1.8-.2 1.9-.3 1.8-.5 1.9-.6 1.8-.8 2.5-1.1 1.6-.9 1.5-1 1.2-1 .8-1.3.5-1.2.1-1v-1.3l-.1-1.7-.3-1.7-.4-1.7-1.2-5-.3-1.1v-2.1l.3-.5.2-.2.4-.2.3-.1h1.2l1.2.2 2.3.7 7.9 2.8 2.1.7 2.1.7 2.2.5.7.2 1.5.2 1.8.2h5.6l2.6-.1 3-.3 1.1-.2 1.2-.2 1-.4 1-.4 1.4-.9 1.3-1.1 1-1.4.8-1.5.7-2.2.3-2.3.2-2.3v-2.2l-.1-1.5-.2-1.5 2.5.2h3.3l2.7-.4h2.7l4.2.5h3l1.2-.3.7-.3.3-.2.5-.3.3.5 2.2 2.6 1 1.4.6.8.3.7.5 1 .4 1.3.4 1.3.3 1.2 1.1 6.2.7 2.9.5 2 .6 2.2 1 3.2 1.4 3.7.8 2 .6 1.5.7 1.5 1 2 1 2 1.1 2 1.2 2 1.9 3 1.5 2.2 4.8 6.7 2 2.9 2.3 3 9.5 12 2.3 3 1 1.4.8 1.3.8 1.3.6 1.3.2 1v1l-.5.7-.6.5-.6.4-.8.3-.8.4-1 .2-1.8.5-2 .3-4.3.5-2 .3-1 .2-.8.2-1.1.5-.5.4-.6.9-.3 1v1.2l.4 1.2.4.6.8 1 1 1.3 2.5 2.6 1.5 1.7.9 1.3.9 1.4.4.9.4 1 .2.6.3 1 .2 1.2.3 2.6.1 1 .2.5.3.7.4.6.5.5.5.5.7.4.7.2h1.8l6.4-.3h2.3l1.4.1.8.2.9.2 1.3.7 1.1.9.5.5.8.8.8 1 .7 1 .7 1.2.8 1.5.6 1.5.3 1.1.2 1 .1.8v2.2l-.1 1.2-.6 2.7-.1.5-.2.7-.3.6-.2.3-.5.6-.5.5-.9.6-1.2.7-4.2 2-.9.5-.8.5-.7.5-.5.5-.5.4-.4.6-.3.6-.2.5-.2.6-.1.7v1.8l.3 1 .5 1.3.4.7.5 1 1.2 1.7 1.1 1.4 1.1 1.3.8.8.8.7 1 .8 1 .8 1.7 1.1 1.4.8.9.3.6.2.6.2.8.1h1.3l.8-.2.7-.3 1-.4 1-.7.8-.6.7-.8.7-.8.5-.7.6-.9.4-.8 1.4-2.6.7-1.2.4-.6.5-.5.6-.7.7-.6.8-.7.9-.6 1.4-.8 1-.4.7-.3 1-.3 1-.3 1-.1h2.1l.8.1.9.3 1.6.5 3.1 1.2 5.2 2 1.8.6 1.4.3 1.7.3 5 .4 5.4.6 1.9.2h3.9l1-.2.8-.2 1.1-.3.9-.3 1-.4.8-.4 1-.6.6-.4.9-.7.6-.6.7-.7.8-1 .6-.8.7-1.2.6-1 .6-1.4.2-.4"/></defs><g clip-path="url(#p4fe9a27f88)"><use xlink:href="#m807b6b564c" y="280.5" fill="#0c1321" stroke="#0c1321"/></g></g></g></g><defs><clipPath id="p4fe9a27f88"><path d="M7.2 7.2h339.9v266.1H7.2z"/></clipPath></defs></svg>