<svg xmlns="http://www.w3.org/2000/svg" xmlns:xlink="http://www.w3.org/1999/xlink" width="438.3" height="374" viewBox="0 0 328.7 280.5"><defs><style>*{stroke-linejoin:round;stroke-linecap:butt}</style></defs><g id="figure_1"><path id="patch_1" fill="none" d="M0 280.5h328.7V0H0z"/><g id="axes_1"><g id="PatchCollection_1"><defs><path id="m0cb062fa33" stroke="#0c1321" d="m299.6-191.2.4.6 1 1.5 1.2 2.2 1 1.9.9 2 .9 2.3.7 2.4.7 2.3.5 2.7.2 2.7.1 1.9v1.5l-.2 2.2-.3 2.3-.4 1.8-.5 1.7-.8 2.5-1.9 5.5-.8 2.2-1 1.8-.9 1.7-1.4 2.2-1.8 2-1.9 2-2 1.6-2.3 1.2-.8.3-2.4.6-2.3.2h-1l-1-.2-1.8-.5-1.6-.6-1.6-.8-1.7-1-1.8-1.2-3.5-2.6-1.9-1.3-1.8-1-1.8-.8-2-.3-1.8-.1h-3.5l-1-.2-.9-.2-1.2-.5-1.1-.7-1.5-1.1-1.4-1.3-1.2-1-1.6-1.7-2.5-2.7-3-3.6-.7-.7-1-1-.5-.3-1.2-.7-1-.4h-.5l-.7-.1h-.4l-.6.2h-.2l-1 1-.7 1-.6 1.1-.4 1-.4 1.5-.5 1.8-.5 2.6-.4 2.8-.1 1.5-.4 6.1-.3 2.1-.6 2-1.3 2-1.6 1.7-1.2 1.1-2.3 2-1.6 1-3.4 2.4-1.7 1.2-2 1.7-.7 1-1 1.5-.8 1.8-.5 1.8-.1 1.7v1.7l.4 2.3.6 2 .4 1 .3.5.4.6.3.4.3.1h-.2l-.4.1h-4.2l-2-.3-5-.7-5-1-3.4-.8-3.7-1-2.6-.9-6-2.1-3.9-1.3-1.5-.4-1.6-.3h-2.2l-1.4.5-.6.4-1.5 1.1-1.4 1.5-.7 1-1 1.4-1 2.1-.7 1.6-.6 1.3-.5 1.4-1 3.4-.5 1-.4.8-.4.7-1 1.2-.7.6-.8.6-3.1 1.7-1 .7-.3.4-.7 1.2-1 2.8-.7 1.3-.7 1-1 1-1.2.7-1.3.4-1.6-.1-1.9-.5-2-1-1-.7-1.7-1.3-4.8-4.2-1.9-1.5-1.6-.9-1.6-.6-1.7-.3h-1.6l-1.6.3-1.3.7-1 1-.6 1-.2.6-.1.8-.2 1.2v4.9l.3 2.2.5 2.7.5 2.4 1.1 4 .6 2.8.6 3.1.4 3.6.4 3.7.1 3.3v2.8l-.1 5.2v2.4l.3 1.3v.5l.6 1 .6.2-9 7-2 1.7-2.2 2.3-1.7 1.9-1.7 2-2.3 3.3-4.6 6.6-.7-.1-1.1-.5-3.1-1.3-1.7-.9-2.7-1.5-1.3-.8-1.3-.8-2.6-1.9-1.4-1-1.3-1.3-1.2-1.3-1.1-1.4-1.1-1.5-4-5.7-1-1.3-1-1.2-.9-1-1.6-1.7-1.3-1.3-1-.7-.7-.5-.6-.3-1.1-.4-3.3-1-1.8-.8-2-1-2.2-1.3-.8-.5-.8-.7-3-2.7-2.2-1.8-1.8-1.6-.7-.5-.6-.4-.5-.2-.6-.3-.7-.1-.8-.2h-.8l-.5.1-.5.2-1 .3-1 .7-.8.6-1 1-.5.6-.7.9-.4.9-.3-.2-.7-.3-.8-.3-1.4-.5-5.9-1.8-1.4-.5-1.9-.7-2.3-1.2-1.5-.8-.7-.6-.7-.5-.9-1-.5-.7-.4-.7-.3-.8-.2-1v-1l.2-1 .5-1.2.7-1.1.7-1 1.1-1.3.7-.7 1.3-1.3 1.5-1.2 2-1.6 1.6-1.2 1-.7 2-1 2.6-1.3 2.2-1 5-1.8L46-86l1.1-.7 7-4.1 1.8-1.2 1-.8 1.4-1.2 1-.9 5.8-6.3 7.6-7.4 4-4 1.3-1.4 1.3-1.6 1.8-2.3 1.4-2.6 1-2.4.8-2.4.3-2.5v-1.8l-.4-2.8v-3l.1-.4.1-.1.2-.7.8-1.9 2-4 2.8-4.7 1.4-2.2 1-1.5 1-1.2 1-1.2 1.6-1.6 4-3.8 1.7-1.9 3.4-4.1 1-1.4.8-1.2 2-3.1 1.2-2.2.8-1.5 2.5-5.3 2-3.8 1.3-2.4 1.7-2.5 1.6-2.2 1.1-1.2 2.2-2.4 3-3 3-2.8 1-1.4 1-1.3.4-1.1.4-1.2.5-1.6.9-3.2.6-3 1.2-5.8 2-12.5 1.1-5.4 1.4-6.1 1.4-5 1-2.8.4-1.1.3-.4.2-.2.2-.1h.5l.3.4.4.8 1.6 4.3.8 2 .8 1.7 1.2 2 1.1 1.4.6.6.8.8.9.7 1 .7 1.3.6 1.4.5 1.4.2h1.7l1-.2 1.6-.5 6.7-3 1.8-.9 1.3-.7 3.2-2 2-1.4 1.5-1.6 1-1.1.9-1.2 3.4-4.8 1.5-1.7 1-1 1-.8 1.7-1.1 2.1-1 2.9-1.1 2-.7 2.3-.6 1.3-.3 1.4-.2h3l1 .3 1.5.4 1.1.5 1.8.9 1.3.7 1.3 1 3 2.1 1.5 1.2 1.5 1.4.8.8 1.1 1.2 4.2 5 6.6 7.7 4.3 5.3 2 2.6 1.2 1.8 1 1.8.7 1.4.6 1.3 2 5.5 3.5 8 1.1 2.9 1 2.8.7 2.8.4 1.6.3 2.5.5 5.2.3 2.1.5 2.4.5 1.9.8 1.9.6 1.2.4.7 1 1.2.9.8.6.4 1.1.5.9.3 1.5.5 9.1 2 3.6.6 1.2.2 2.3.1h2.1l2-.1 2-.4 1.2-.3 2.5-.8 2.1-.8 2.5-1 1.7-.9 1.3-.8 1-.7.7-.5.8-.8.8-1 .9-1 .6-1 .5-1 .5-1.3 1-3"/></defs><g clip-path="url(#ped72e3b043)"><use xlink:href="#m0cb062fa33" y="280.5" fill="#0c1321" stroke="#0c1321"/></g></g></g></g><defs><clipPath id="ped72e3b043"><path d="M7.2 7.2h314.3v266.1H7.2z"/></clipPath></defs></svg>