<svg xmlns="http://www.w3.org/2000/svg" xmlns:xlink="http://www.w3.org/1999/xlink" width="430.5" height="374" viewBox="0 0 322.9 280.5"><defs><style>*{stroke-linejoin:round;stroke-linecap:butt}</style></defs><g id="figure_1"><path id="patch_1" fill="none" d="M0 280.5h322.9V0H0z"/><g id="axes_1"><g id="PatchCollection_1"><defs><path id="m37f664e240" stroke="#0c1321" d="M270.3-147.3h-.9l-1.7.7-1.4.8-1 .7-.4.5-.9 1-.7 1-.8 1.5-.7 1.9-.7 2.3-3.6 12.2-.9 3.2-.5 2.7-.3 2.7v2.3l.1 1.5.2 1.1.3 1.3.4 1.5 1 2.7.7 1.5.5 1 1.2 2 .8.8.8.8 1.3 1.2 1.4 1 7 4.7L274-91l1.6 1.3 1.8 1.5 1.5 1.5 1.8 2 1.1 1.3 1 1.5 2.2 3.1 6.8 11 4 6.7 5.8 10.8-2.4 6.4-2.2 5.2-1.5 3-1.6 3L292-30l-1.3 1.7-1.4 1.6-2.2 2.2-2.4 1.8-1.5 1-1.5 1-1.5.7-2.2.6h-2l-.5-.2-1.7-1-1.3-1.3-.8-1.4-1-2-2-5.9-.7-1.3-.8-1-1.2-.8-1.1-.8-.8-.7-1.3-1.6-.7-.8-.9-.7-1-.5-2.3-.7-1.2-.5-1.7-1-1.7-1.5-1.6-1.7-1.4-2-1-2-.6-1.9-.5-1.7-.6-1.6-.5-1-.6-.7-.5-.4-.8-.4-1-.1-1.9.3-2.2 1-2.4 1.3-2.5 1.8-8 6-2.9 1.9-2.8 1.8-3 1.5-2.8 1.2-2.7.6-2.5.2-2.6-.2-2-.3-4.5-1.2-2.3-.4-1.9-.2-2 .1-3.1.4-11.7 1.9-2 .3-1.8.5-2.2.6-2 .8-7.6 3.2-3 1.1-2 .8-2 .5-2.3.6-2 .4h-2.8l-1.4-.2-1.5-.3-1.6-.5-2.4-1-4-2-6.2-3.1-2-.8-2-.6-.6-.1-1.1-.1h-1l-1.2.2-1 .3-1.6.6-1 .5-10.3 6.1-4.2 2.4L104-27l-1.8.9-2.6 1-2.2.6-2.3.5-1.4.1h-3.2l-1.9-.4-6.4-1.2-6.8-1.6-3.3-.7-2.7-.4-3.3-.3h-4.5l-1.8.2-1.5.2-4.6 1-7.4 1.6-.2-.2-.5-.8-1-2-2-4.1-.8-2.3-1.4-3.8-1.5-4.5-.9-3-1-3.6-.6-1.6-1-2.3-3.2-6.7L26.6-71l-.8-1.8-.7-1.9-.8-2.2-1-4-.8-3.1-.6-3-.5-3.6-.1-2.2v-4.5l.3-1.7.3-1.8.5-1.8.7-1.7.8-1.6 1-1.4 1.5-2 1.7-2 1.7-1.7 2-1.7 2-1.6 3.9-3 4.1-2.7 2.2-1.4L48-126l5-2.8 8.4-4.5 5.7-3 6.4-3.3 6.8-3.2 3.3-1.4 5.8-2.4 12.4-4.6 5.1-2 3-1.3 4-1.7 11.8-5.4 5.7-2.8 2.6-1.3 2.3-1.4 2.1-1.3 1.4-1 1-1.2 1-1.6v-1.7l-.1-1.2-.5-1.4-.7-1.6-1.3-2-2.4-3.4-1.5-2.6-1.6-3.5-.8-1.8-.4-1.1-.5-1.5-.2-1-.2-1.2v-2l.3-1.9.3-1.3.5-1.4.7-1.5 1-1.7.8-1.2 1.7-2 2.4-2.4 9.7-9.1 2.4-2.2 7.6-6.2 2.7-2.3 4.5-4.4 2.4-2.4 2.4-2.5 1.4-1.7 4.3-5 1.4-2 .3-.6.1-.3v-.2l-.3-.4v-.3l.2-.7.4-.7.4-.6.8-.9.9-.9 1.7-1.3 1.1-.7 2-1 2.4-1 1.4-.6 3-.8 1.5-.3 1.4-.2 2-.2 2.2-.1h2.6l2.5.3 1.4.3 1.9.6 2 .9 2 1.1 2.3 1.6 1.5 1.3 1.7 1.6 7.1 7.6 1 1 1 1.7 1.1 1.8 1.3 2.6 1 2.3 1 3 .8 3.3.3 1.8.2 1.7-.1 2.5-.3 2.5-.1 2-.2 6.3-.2 1.4-.2 1.3-1.2 4.6-.2 1.3v1.2l.3.9.1.3.1.2 1.2 1.4 1.6 1.2 4 2.6 2.3 1.5 2.4 2 2.3 2.4 2.4 2.6 2.2 2.5 2 2.7 2.1 2.9 2 3 2.1 3 2 3.3 1.9 3.3 1.8 3.4 1.6 3.3 1.5 3.2 2.3 5.2 2.2 5.4"/></defs><g clip-path="url(#p9b4778177a)"><use xlink:href="#m37f664e240" y="280.5" fill="#0c1321" stroke="#0c1321"/></g></g></g></g><defs><clipPath id="p9b4778177a"><path d="M7.2 7.2h308.5v266.1H7.2z"/></clipPath></defs></svg>