<svg xmlns="http://www.w3.org/2000/svg" xmlns:xlink="http://www.w3.org/1999/xlink" width="346.8" height="374" viewBox="0 0 260.1 280.5"><defs><style>*{stroke-linejoin:round;stroke-linecap:butt}</style></defs><g id="figure_1"><path id="patch_1" fill="none" d="M0 280.5h260V0H0z"/><g id="axes_1"><g id="PatchCollection_1"><defs><path id="m9d43bf3f44" stroke="#0c1321" d="m241.7-78.4-.4.8-.6 1.8-.7 2.5-.8 2.8-1.6 7-.4 1.6-.8 2.4-1 2.4-1.4 2.3-4.2 6.7-1 1.5-1.7 3.2-.8 1.5-2.7 6L222-32l-.7 1.7-.7 1.6-.6 2-.4 1.7-.4 2.6-.4 1-.8.9-1 .6-1.5.2h-1.8l-3.5-.6-6.6-1.2-2.6-.6-1.6-.5-1.3-.6-4.5-2.2-2.4-1.1-2-.7-2-.6-3.7-.8-3.5-.6-5.8-.5-5.8-.4h-5l-1.9.3-2.5.6-2.2 1.1-1.8 1.8-1.3 2-1 2.2-.5 1.9v1h-.6l-1.5-.4-3-.8-2.8-.8-3.3-1-2.6-1-4-1.6-2.9-1.2-3.6-1.7-2.9-1.5-3.5-2-4-2.4L103-43l-4-2.7-6-4.4-3.2-2.3-2.5-2.1-4.3-4-2.2-2.2-1.3-1.4-1.2-1.6-1.2-2-.9-1.6-.3-1-.5-1.6-.5-2.7-.2-2.2v-3.8l.1-3.4.5-3.6.5-2.9 1-3.8.6-2.2.2-2.2v-1.2l-.2-2-.6-2.5-.7-1.8-.9-1.8-1.3-2.2-.6-.9-2.7-3-2.6-2.4-3-2.5-3.4-2.3-2-1.3-3.8-2.4-3-1.8-10.8-6-4.8-2.5L28-138l-2.5-1.3-1.6-1-2.2-1.3-1.2-.8-1-1-1-.9-.1-.2v-.2l3.6-3 2-1.6 2.2-2 2-2 2-2.2 1.7-2.3 1.6-2.3 1.4-2.3 1.3-2.3 1.2-2.4.9-2.3.6-2.3.4-2.4-.1-2.4-.4-2.5-.7-2.5-.8-2.5-1-2.5-5.2-12.3-1-2.5-.8-2.3-.7-2.4-.5-2.3-.1-2.1.2-2 .8-1.9 1.2-1.7 1-1 1.2-1 1.4-1.2 4.7-3.4 1-.8.8-1 .5-1 .2-1.6-.2-1.7-.7-1.8-1-2-1.2-2-1.6-2-1.7-2.1-1.9-2-4.9-5.2 1-2 1.3-2.2 1.4-2.2 1.3-1.5 1-1 1.2-1 .9-.6 3.3-2 1.5-1.3.4.5.4 1 3 9 1.6 4.2 1.6 3.5 2 3.6 1.3 2 1.4 1.8 1.3 1.7 1.5 1.5 1.7 1.4 1.7 1.2 1.3.6 1.6.6 2 .6 2 .3 1.5.1h4.9l6-.5 3.1-.1h2.7l2 .2 2.8.5 2.9.7 2.8 1 2.3 1.2 2.1 1.2 7 4.6 2.4 1.4 1.4.6 1.3.4 1.9.1 1.3-.2 1-.4 1.4-.8 1-1 1.6-1.7 1.5-2 1.2-1.8 1.6-2.5 1.6-3.3 1.7-3.8 2.8-7.1 2.7-7.6 1.2-3.2 1.3-2.8 1.4-2.1 1-1.5 1.2-1.2 1.3-1 1.1-.7 1.4-.7 1.5-.6 1.6-.4 2.9-.2 3 .1 3.2.5 3.2.6 9.7 2.4 3.3.8 3.3.6 3.2.4h5l1.9-.2 6.6-1 2-.3 2-.1h2l1.3.2 1.5.4 2.3.6 2.8 1 2.8 1 2.7 1.2 2.8 1.3 2.5 1.4 2.4 1.6 2 1.8 1.7 2.1.8 1.5.6 1.7.6 2.8.3 2.2.2 2.3.2 7.3.3 5.7.7 5.5 1 6.5.3 3.1.2 3v3l-.4 2.8-.3 1.6-.8 3-.9 2.2-1.4 2.8-1.6 2.8-2 2.9-6 8.6-2 2.9-2 3-1.7 3-1.4 3-1 3.2-.3 2.1-.1 2.1v2.3l.2 2.4.5 3.5.8 4 1 3.6 1.8 5.2 2.6 6.8 4.2 10.2 1.4 3.1 1.3 2.7 1.3 2.6 1.2 2.3 1.4 2.3 2 3 1.4 2 1.7 2.3 2 2.4 8.9 9.9 1.9 2.4 1.2 1.6.5.8v.4"/></defs><g clip-path="url(#p39893b5ac7)"><use xlink:href="#m9d43bf3f44" y="280.5" fill="#0c1321" stroke="#0c1321"/></g></g></g></g><defs><clipPath id="p39893b5ac7"><path d="M7.2 7.2h245.7v266.1H7.2z"/></clipPath></defs></svg>