<svg xmlns="http://www.w3.org/2000/svg" xmlns:xlink="http://www.w3.org/1999/xlink" width="423.6" height="374" viewBox="0 0 317.7 280.5"><defs><style>*{stroke-linejoin:round;stroke-linecap:butt}</style></defs><g id="figure_1"><path id="patch_1" fill="none" d="M0 280.5h317.7V0H0z"/><g id="axes_1"><g id="PatchCollection_1"><defs><path id="m658fbf3a6e" stroke="#0c1321" d="m274.5-232.4-.3.5-1 2.4-.6 3.2-.3 3.4-.2 5.1-.1 6.3.3 5.5.3 2.6.6 4 .8 3.2 1.6 6.4 2.6 9.2 1.3 4 1.4 3.9 1.5 3.5 2.6 5.2 1.4 3.5 1.6 5.6 2.3 9.6.4 2.8.2 2.2v4.3l-.2 5.8v3.3l.3 2.2.6 2.9 2.5 9.3 1.6 6.5.6 3.3.3 2.7.1 4-.2 3.5-.5 3.4-1 4.1-.7 2.6-1.2 3.8-2.9 8-1.8 4.4-5 11.5-2.6 6.6-1 2-1 2.3-1.5 2.7-1.2 1.8-1.4 2-3 3.7-2.8 2.7-1.9 1.6-1.4 1-2.4 1.3-1.7.6-2.7.6-2.8.2-8.3-.3h-3.9l-4.5.5-6 1.2-5.5 1.3-4 1.1-4.8 1.5-1.3.6-.3.2-.1.2-.1-.5-.5-.8-.7-1-1.9-2.5-2.9-3.3-2-2-2.5-2.4-2.6-2.2-3.2-2.3-3.3-2-3.8-1.9-3.7-1.3-3.7-1-3.5-.2-3.6.1-7.5.5h-2.3l-2.3-.3-3-.9-3.3-1.7-3-2.6-3-3-2.8-3.3-5-6.7-6.9-9.7-2.6-3.3-2.9-2.8-3-2-3.4-1.2-2.6-.3H124l-2.7.2-1.8.3-2.8.7-2 .7-2 .9-3.1 1.8-5.8 4.3-3 2-3.4 1.6-3.4.9-2.6.2-2.4-.2-2.4-.6-4.6-1.4-2.3-.5-2.3-.3h-2.7l-2.7.2-8.6 1.6-5.7 1-4.1.3-4.2.1-4.2-.2-4-.6-4-1.3-3.7-1.9-3.2-2.7-2.6-3.1-1.6-2.4-2-3.5-1.4-3-.6-1.6-1-3.5-.1-.9v-.6l.3-.4 1.6-1.5 6.5-5.5 8-6.5 14-11.1 3.7-3 4-3.7 4-3.9 3.3-3.3 2.7-3 2.6-3.4 2-2.9 1.6-2.4 1.5-2.9.8-1.7.4-1.3.5-2.2.1-2.8v-1.5l-.6-4-.6-2.9-1-3.8-1.4-4-1.7-4.2-1.8-4.1-3-6.5-4.3-8.5-2.6-4.7-2.8-4.2-1.8-2.2-1.4-1.4-1.7-1.4-2.3-1.5-6.5-3.4-3-1.7-1.5-1.3-2-2.3L37-219l-.8-3.1-.3-3 .2-3 .6-3.8 3-14 1-2.9 1-2.5 1-1.7 1.9-1.8 1.9-1 2-.6 3.9-.8 2.2-.7 1.9-.7 3.6-1.8 1.4-.5 1-.2h1.6l1.7.3 1.5.6 1.6.7L76-256l5.8 2.8 7.2 3.7 2.6 1.2 2.3 1 3.7 1.5 4.9 2.3 7.4 3.7 2.6 1.5 5.7 3.2 2.7 1.4 2.5 1.2 3.4 1.2 3 .7 1.7.1h2.1l2.5-.3 2.9-.7 3.8-1.5 8.6-4.1 4.4-2 4.5-2 12.2-4.8 3-1 4.9-1.6 2-.5 4.4-.8 3.8-.5 3.6-.2 3.7-.1h9.9l11.4-.4h5.2l5.3.1 5.3.5 5.6.7 5.5 1.1 5.2 1.6 5 2 4.3 2.6 3.8 2.8 6.4 5.1 1.6 1.2 1.2.7.8.4.2-.2"/></defs><g clip-path="url(#pb4e2cb262a)"><use xlink:href="#m658fbf3a6e" y="280.5" fill="#0c1321" stroke="#0c1321"/></g></g></g></g><defs><clipPath id="pb4e2cb262a"><path d="M7.2 7.2h303.3v266.1H7.2z"/></clipPath></defs></svg>