<svg xmlns="http://www.w3.org/2000/svg" xmlns:xlink="http://www.w3.org/1999/xlink" width="323.3" height="374" viewBox="0 0 242.5 280.5"><defs><style>*{stroke-linejoin:round;stroke-linecap:butt}</style></defs><g id="figure_1"><path id="patch_1" fill="none" d="M0 280.5h242.5V0H0z"/><g id="axes_1"><g id="PatchCollection_1"><defs><path id="m1bd9dfff4a" stroke="#0c1321" d="m204-221.3.1.2.1.2.8 1 1.4 1.5 3.3 3.6 1.2 1.3 1.2 1.4 1.2 1.5 1.1 1.5 2.2 3 1 1.5 1 1.4 1.3 2.3 1 1.8 2.2 4.3.6 1.4.3.7.4 1.5.2.7.2 1.1.1 1.5v2.3l-.3 4-.2 7.8-.2 2.2v1.5l-.2 1.2-.2 1-.3 1.4-.3 1.1-.5 1.3-.2.4-.6 1.1-.7 1-1.3 1.6-.7.9-1.6 1.7-1.7 1.8-3 3-1.2 1.2-1.4 1.4-1 .9-1 .7-1.1.7-.8.6-.6.3-.8.4-.6.3-.8.2-.6.2h-2.4l-.5-.2-.7-.3-.3-.2-.5-.2-.7-.6-1.6-1.3-.6-.5-.3-.2-1-.4-1.1-.3-1.3-.2h-2.5l-1.3.3-1.3.5h-.2l-.3.2-1 .7-1.1.8-1 1-1 1-1 1-1 1.1-1.6 2-1.8 2.6-1.7 2.5-1 1.7-1.2 2-1.3 2.3-.7 1.3-.5 1.1-.6 1.4-2.3 5.7-.6 1.3-.5 1.2-.8 1.7-.8 1.4-1.6 2.8-1.7 2.8-2.7 4.2-.8 1.4-.7 1.3-.8 1.4-.6 1.4-.5 1.3-.4 1.4-.3 1.4-.2 3.2-.2 1.4-.3 1.2-.8 3.1-.2 1-.1.8v1.7l.1.5.3.5.3.4.8 1.3.2.2.3.3.8.6.2.3.1.3v.6l-.2.8-.4 1-.8 1.4-.9 1.5-1 1.7-1.3 2-4 5.7-1.4 2-1.1 1.9-.7 1.3-.4.9-.4.8-.4 1.5-.4 1.4-.3 1.6-.7 3.5-.4 2.7-.2 1-.2 2.6-.2 5.1-.1 2.6-.2 1.6-.3 1.8-.2 1-.4 1-.6 1.5-.4.9-.5.9-1 1.4-.6.8-1 1-.6.6-1 .8-1.1.8-.6.4-1 .7-1 .5-1.1.5-.1-.2-.4-.3-.5-.3-.8-.5-1-.5h-.3l-1-.3-1.2-.1h-3.1l-1.2.2-2.2.4-3.6.9-1.5.2h-.7l-.6.1h-.5l-.7-.3-.6-.3-.6-.6-1.3-1.3-.7-.7-3.2-2.7-.8-.8-.4-.4-.8-1-.5-.7-.6-.5-.7-.5-.6-.4-.7-.2-.5-.2H97l-.7-.1h-4.5l-.9-.2-.5-.3-.5-.2-.9-.6-.6-.5-1.8-1.7-1.3-1.2-.9-1-.8-.9-.7-1h-.1v-4.2l-.3-1.6-.4-2-.4-1.3-.4-1L80-52l-.4-1.1-.3-1.1-.5-2.4-.4-1.3-.2-.5-.4-1.2-.6-1-.6-.8-.2-.3-.4-.3-.5-.3-.5-.3-.5-.2h-.4l-.7-.2h-3.7l-.8-.1-.7-.2-.9-.3-.8-.3-1-.5-1.3-.7-1.7-1.1-3-2-1.1-.8-.7-.3-.7-.4-1.6-.6-3.5-1.3-2.8-1.1-1.8-.8-1.3-.7-.8-.5-.8-.7-.3-.3-.2-.6-.2-.7v-1.7l.1-2.7v-2l-.2-1.5L43-89l-.6-3v-2l.2-.5.5-1 1-1.5 1.7-2.6.7-1.1.3-.6.3-.7.3-.8.2-.8.2-.6.2-.9v-.7l.1-.7v-.8l-.2-.7-.8-2.5-.3-1.2-.1-1.3-.5-3.5-.4-3.9-.1-2.2-.3-5.1-.3-8.5-.3-7.3v-1.2l-.1-1.4-.2-1.6-.3-1.5-.4-2-.3-1.3-.5-1.6-1-3L40-162l-.8-2.5-.6-2-.7-2.2-.3-1.6-.4-1.5-.5-2.8-.4-2.5-.3-2-.2-2.4-.2-2.1-.1-2-.3-6.6v-1.7l-.1-1-.2-1.1-.1-.8-.2-1-.3-.8-.4-1-.5-1.2-.6-1-.6-.9-.8-.7-.9-.7-1.2-.6-3.3-1.5-1-.6-.9-.5-.7-.5-.8-.5-.7-.5-.8-.8-1-1-.6-.8-.5-.7-.6-1-.5-1.3-.3-.9-.1-1v-1.5l.2-1 .4-2 .2-.9.3-1 .5-1.4.5-1.2.3-.6.7-1.2.6-1 1-1.5 1-1.3.6-.7.9-1 .9-.8.8-.7.9-.7 1.6-1 2-1.3 1.3-1 5.1-3.5 2.8-2.2.9-.6.9-.5.9-.5.6-.3 1.7-.6 2-.7 4.1-1.2 5-1.2 4.3-1 3.2-.6 1.4-.4 1.4-.4 1.7-.6 7.2-2.7 6.7-2.7 5.4-1.9 1.5-.6.5-.3h.2l1.2-.3 1.9-.2 2-.1h2.8l1.3.2 2 .2 1 .2.7.2.9.3.7.2.7.4 1 .6.4.4.7.6.7.8.7.8 2.3 2.9.5.6.5.8.2.4.2.4.1.8.3 1.5.3 1 .5.9.5.7 1.2 1.6.6.9 1.2 2 2 3.7 1.3 2.2 1 1.6 2 3 .6 1.1.7 1.5.8 1.6.6 1.7.3 1 .3 1.2v.7l.1 1v1.3l.1.8.2.8.2.8.4.8.3.5.5.8.7.8.7.6.7.6.7.3.5.2h.5l.3.1 1-.1.4-.2.7-.3.5-.3 2-1.3.8-.4 1.2-.6.8-.4 1.1-.5 2.1-1 3.2-1 1-.5 1.6-.7 1.2-.5.6-.3 1-.6 4.3-2.7 1-.6 1.4-.7.9-.4.9-.4h.3l1.1-.3h1.3l.8.2.7.3.3.2h.2l.8.7.2.2 1.5 1.7.6.5.3.3.4.2.6.3.8.3.9.2h3l.6-.1.6-.2.6-.2.7-.4 1-.6.8-.7 3-2.6 1.3-1 1-.7 1.2-.5 1-.4 1-.1h.9l1.3.1 3.2.6 3.3.5.8.1.7.2.7.2.7.2.5.3 1 .5 1.1 1 1 1 1 1.2.6 1 .4.7.1.4"/></defs><g clip-path="url(#pb24d961179)"><use xlink:href="#m1bd9dfff4a" y="280.5" fill="#0c1321" stroke="#0c1321"/></g></g></g></g><defs><clipPath id="pb24d961179"><path d="M7.2 7.2h228.1v266.1H7.2z"/></clipPath></defs></svg>