<svg xmlns="http://www.w3.org/2000/svg" xmlns:xlink="http://www.w3.org/1999/xlink" width="139.1" height="374" viewBox="0 0 104.3 280.5"><defs><style>*{stroke-linejoin:round;stroke-linecap:butt}</style></defs><g id="figure_1"><path id="patch_1" fill="none" d="M0 280.5h104.3V0H0z"/><g id="axes_1"><g id="PatchCollection_1"><defs><path id="mdb5b6fc65d" stroke="#0c1321" d="M46.7-167.4v.4l.1.3.2.5.4.6.4.6.5.6 2 1.8 2.2 2.4.8.7.4.4 1.1.8.6.4.8.4.6.2.6.2 1.7.3 1.9.6 1 .3.6.2h.8l.8.2h.8l2.3.1 3.2.3 1 .1.9.2 1 .3 1.2.5 2 .8 2.8 1.3.8.3.7.2.7.1 2 .4 1.6.4 1.5.4 1.3.4.3.2.5.2.4.3.5.4.8.8v.5l.1 1.3.2 2 .2 1 .3 1.4.3 1.2.2 1 .7 1.8.2 1 .1.4.1.7.1 1.3v1.4l-.2.9-.1.7-.3 1-.7 2.5-.3.9-.6 2.5-.4 2.3-.6 2.4-.3 1.4-.1.7v1l.3 2.4.1 2.5.2 1.4.1.7.3.8 1.2 3.2v.8l-.2.2-.1.2h-.1l-.3.2h-.5l-.6-.4-.4-.2-.2-.3-1.5-1.8-.5-.6-.5-.5-.8-.7-.8-.7-.8-.5-1-.6-.7-.3-.7-.3-.7-.2-.7-.1H79l-.3.1-.2.1-.3.3-.2.1-.3.4-.2.3-.2.4-.2.4-.3 1-.1.4-.2.9v2.9l.1.7.7 3.7.2 1.5.1 1.3.1 1.8v2.7l-.2.8v.4l-.3 1-.6 1.4-.5 1.2-.8 1.5-1.4 2.5-3.6 6.2-.6 1h-.2l-.1.2-.2.2-.2.5-.5 1.4-.6 2.4-.7 3-.6 2.7-1 6.2-.5 2.8-.4 1.4-.4 1.6-.2.8-.2.6-.3.5-.4.7-.5.7-1.5 1.3-1.5 1.5-1 1.2-.6.6-.8 1-.8 1.3-.7 1.1-1 2-1.2 2.5-.3.7-.6 1.1-1 1.6-.4.6-.5.6-1.7 2-.8 1-2 1.9-.7.7-.5.6-.5.6-.5.8-.7 1-1.3 2.3-1 2-.4 1-.1.3h-.4l-.2-.3-.3-.2-.3-.3-1-1.4-2.3-2.7-.5-.6-.4-.3-.3-.3-.3-.2-.5-.2-1.6-.6-.5-.2-.8-.6-.8-.6-.4-.4-.3-.3-.2-.5-.7-1.4-.2-.5-.4-.4-1-1.2-.7-1-.3-.4-.7-1.3-.8-1.2-.2-.5-.2-.4v-1l.2-1.9.2-1.1 6-3.1 1-.7.5-.3.7-.6.7-.6 1-1 .7-.7.7-.8.5-.7.3-.6 1.2-2.1.1-.1.3-.4.2-.5.4-.8.4-.8.4-1 .3-1.2.6-2.1.3-1.1.4-2.1.4-2 .2-2 .2-2.8.1-.8.2-1 .3-.9.4-1 .4-.8 1-1.6 1.4-2.3.5-.7.8-1.4.7-1.7.8-2 .7-1.7.7-2 1.2-4.1.7-2 .6-1.4.6-1.4.7-1.2 1.3-2.4.8-1.6.3-.9.3-.7.1-.8v-.2l.8-4.4.4-2.5.1-1.3.2-1.3v-1.5l.1-1.3v-1.8l-.3-1.3-.3-1-.3-.9-.4-.4-.4-.6-.8-.5-.6-.3-.8-.2-.8-.2-.8-.2-1.2-.2-2.9-.4-1.7-.4-.8-.2-.8-.3-.7-.2-.6-.4-.7-.4-.6-.6-.4-.6-.3-.6-.2-.7-.2-.7-.1-.7-.2-1.6-.5-5.6-.2-1.4-.2-1.3-.2-1.2-.3-1-.3-1.1-.4-1-.6-.8-.5-.6-.7-.5-.7-.5-1.4-.8-1.1-.6-.8-.3-.6-.2-1.6-.5-3.8-.8-1.2-.4-.9-.3-.8-.3-.8-.4-1.2-.6-3.3-2-.9-.6-.4-.4-1.5-1.3-.8-.7-.5-.3-.7-.4-.4-.2-.4-.1-.5-.2h-.5l-.4-.1H12l-.2.1v.1l-.1.1h-.2l-.1-.4-.1-.4v-.6l.1-.8.3-1 .4-.9.4-.8 1.6-3.3.5-1.2.4-1.3.3-1.2.2-1 .1-1.3.2-1 .2-1 .3-.7.4-.9.6-1.3 1-1.5.4-.9.3-1 .3-.6.3-1 .2-1.1.1-1v-5.1l.1-1 .1-.4.2-.7.2-.6.7-2 .2-.5.3-.3.2-.2.2-.2h.5l.3.2.3.2 1.7 1.5.6.4.8.6.8.3.3.2.7.2h1.3l.6-.3.6-.4.6-.6.6-.6.8-1 .5-.8.5-.9.8-1.2.6-1.4.7-1.4.6-1.4.7-1.9 2-5.8.8-2.2.2-1 .3-.9.4-2.1.1-.6.7-1.6.3-.7.5-1.2.2-.5 1.3-2.4.3-.8.3-.7.4-1 .6-1.7.8-2 .5-1.6.4-1 .2-.8.3-1.5.5-2.4 1-5.2.4-2 .7-2.5.4-1.7.2-.4v-.1l.3-.3.1-.4.2-.4.2-.6v-.3l.1-.5v-.8l-.3-1.6v-.5l.2-.9v-.6l-.3-.5-.4-1-.2-.7-.1-.6v-1.9l.2-.8.4-1h1.3l1 .1.9.2 1 .4.1.1.6.4.8.6 1 1 .8.8.7.8.7 1 .7 1 .6 1 .4 1 .3 1 .2 1v2.2l-.3 1-.4 1.4-.5 1.3-.7 1.3-1.9 3.4-.4 1-.5.8-.4 1.2-.3 1.1-.1 1.3v1.2l.2 1.4.4 1.3.4 1 .5 1 2.3 5.1.7 1.3 1 2 2 3.7.5 1 .4.8.3 1 .3.7.2.8.1 1v3.2l-.2 1-.1 1-.3 1-.3 1.1-.7 2.5-1 2.6-1 2.5-.5 1.2-.5 1.1-.6 1.1-1 1.7-.5 1-1.3 1.8-.8 1.2-4.5 6.3-1.2 1.8-1 1.3-.8 1.4-.6 1.1-.5 1.1-.5 1.1-.4 1.2-.4 1-.3 1.1-.3 1.2-.1 1v.5"/></defs><g clip-path="url(#p53a1d4bdbe)"><use xlink:href="#mdb5b6fc65d" y="280.5" fill="#0c1321" stroke="#0c1321"/></g></g></g></g><defs><clipPath id="p53a1d4bdbe"><path d="M7.2 7.2h89.9v266.1H7.2z"/></clipPath></defs></svg>