<svg xmlns="http://www.w3.org/2000/svg" xmlns:xlink="http://www.w3.org/1999/xlink" width="455.5" height="374" viewBox="0 0 341.6 280.5"><defs><style>*{stroke-linejoin:round;stroke-linecap:butt}</style></defs><g id="figure_1"><path id="patch_1" fill="none" d="M0 280.5h341.7V0H0z"/><g id="axes_1"><g id="PatchCollection_1"><defs><path id="m6273e5ccde" stroke="#0c1321" d="m207.8-258.2 15.3-.1 14.2 21.6 3.3 4.9 2.9 4.2 3 4.2 2.2 2.9 3.5 4.4 2.4 3 2.2 2.6 3.1 3.5 5.3 5.7 2.7 2.8 1.8 2 2 1.8 3.6 3.1 4.3 3.7 4.6 3.7 3 2.5 1.7 1.2 1.6 1.1 1.6 1.2 1.8 1 1.8 1 2 1 1.9.9 2 .8 2 .9 4.3 1.7 11.2 4.1.5.2v.4l-28 17.8-5 3.3-3.4 2.2-1.6 1.1-1.5 1.2-1.6 1.1-1.4 1.2-1.4 1.2-1.3 1.2-1 1-1.6 2.1-.6.7-.6.6-.5.4-.5.3-.4.1h-.9l-.7-.2-.5-.2-2.2-1-1.6-.5-.8-.2-.5-.1h-1.4l-1 .2-.6.2-.7.4-.8.4-.6.6-.5.4-.6.6-.7 1-.7 1.1-.6 1.1-.6 1.4-.5 1.1-.3 1.1-.3 1.3-.2 1-.2 1-.2 1.8-.1 1-.2 2.4-.3 7.1-.3 5.4-.1 2.8-.1 3.7-.1 5.5-.3 10.5v2.8l-.2 1.7-.2 2.1-.3 2.3-1 6.1-.4 2.8-.3 2.8-.3 4.6-.3 3-.3 1.7-.4 1.5-.3 1-.5 1.2-.8 1.7-1 1.8-1.1 1.6-.7 1-2 2.6-2 2.5-2.5 3-6.9 8.1-1.6 2-.2.3-.1-.3-.5-.4-.8-.5-1.3-.4-.9-.2-1-.2-1.9-.2h-3.1l-1.9.2-1.7.3-1.3.3-2.5.5-4.6 1.3-2.5.6-2 .5-2 .4-.9.1-1.2.2H195l-1.5.1h-1.3l-2.1-.1-1.8-.2-1.8-.2-2-.3-2.4-.5-1.5-.4-1.2-.3-1.4-.5-1.2-.6-1-.4-.8-.5-.8-.5-.6-.4-.8-.6-1.9-1.6-2.3-2.2-1.8-1.8-3.8-4.2-1.9-1.8-1.1-1-1-.8-1-.7-.7-.5-.7-.3-.4-.2h-.3l-.4-.3-.7-1-3-4.6-2.3-3.3-2.1-3-2.2-3-1.3-1.5-1.1-1.2-1-1-1.5-1.5-1.5-1.4-3.1-2.7-3.1-2.5-3.1-2.5-7.8-6.2-4.7-3.6-3.1-2.2-1.5-1-1.6-1-1.6-.9-1.6-.7-1.7-.6-3.3-1-1.7-.6-.6-.3L99-88l-1-.7-1.2-.7-1.2-.8-1.7-1.4-1.2-1-5.3-4.6-1-.8-1-.8-1.2-.5-.6-.2h-2l-.7.2-.7.2-1 .4-1 .5-1.1.5-1 .6-1.5.9-2 1.2-1.6 1.2-1 .9-1.5 1.2-1.1 1-1.1 1.1-1.1 1.1-2 2.4-2-2-7.7-8.9-3.2-3.6-1.8-1.8-.8-.9-1.7-1.5-.8-.8-1-.7-1-.6-1.4-.8-.7-.3-1-.3-4.4-1-1.2-.3-1-.4-1.1-.4-1.1-.5-1-.6-1.1-.6-1-.7-1-.6-.9-.8-.9-.8-.9-.8-1-1.2-.8-1.3-.5-1.3-.2-1.3v-.7l.2-.7.2-.7.4-.8.6-1 1-1.3 1-1.2 1.2-1.2 1.5-1.4 1.7-1.5 1.4-1 2-1.5 1.4-1 3.1-2 4.9-2.7.2-.2 1.5-.8 14.2-7.2 4.6-2.4 3.7-2 1.7-1.2 1.7-1 1.6-1.3 1.5-1.3.5-.5 1.1-1.4 1.1-1.4 1-1.6.8-1.5 3.4-6.3 1.5-2.6.9-1.3.8-1.3 1.3-1.6 1-1 1.8-2 1.8-1.6 1.2-1 3.7-3.2 2.6-2.1 3.8-3 3.6-2.9 6-4.5 3-2.4 5-4.1 5.3-4.4 5.2-4.4 4.2-3.7.1-.2.4-.7.6-.9 1.1-1.4 1.2-1.5 2.7-3 4.2-4.4 10.7-11 4.1-4.2 2.5-2.8 4-4.4 2.4-2.7 1.2-1.3 1.3-1.2 1.3-1.2 1.4-1 1.4-1 1.5-.7 1.6-.5 1.7-.2 1.7-.1h3.7l2 .2 3.8.5 6.1.8 9.5 1.3 1.1.2h.5"/></defs><g clip-path="url(#pcce6cc5603)"><use xlink:href="#m6273e5ccde" y="280.5" fill="#0c1321" stroke="#0c1321"/></g></g></g></g><defs><clipPath id="pcce6cc5603"><path d="M7.2 7.2h327.3v266.1H7.2z"/></clipPath></defs></svg>