<svg xmlns="http://www.w3.org/2000/svg" xmlns:xlink="http://www.w3.org/1999/xlink" width="495.4" height="278.1" viewBox="0 0 371.5 208.6"><defs><style>*{stroke-linejoin:round;stroke-linecap:butt}</style></defs><g id="figure_1"><path id="patch_1" fill="none" d="M0 208.6h371.5V0H0z"/><g id="axes_1"><g id="PatchCollection_1"><defs><path id="m9283894b98" stroke="#0c1321" d="M348-82.2v.2l-.6.4-1 .8-5.3 3.2-1.4 1-1.3 1-1.5 1.2-1.4 1.3-1 1.1-.9 1.2-.8 1.3-.8 1.4-.6 1.5-.6 1.5-.4 1.3-.4 1.3-1.3 5.2-.4 1.4-.4 1.3-.5 1.3-.6 1.3-.6 1.1-.7 1-.9 1.1-1 1-1.1.7-.8.4-1 .4-1.2.4-1.2.3-1.7.3-5.2.7-1.7.3-1.7.4-1.7.4-1.8.5-1.7.7-1.4.6-1.4.8-1.4.9-1.3 1-1.1.9-1 1-1.4 1.3-1.3 1.5-2 2.6-4.7 6.6-2.1 2.7-1.6 2-.6.7-.4.3h-.1l-.4.2-.9.2-2.8.7-3.7.6-2 .3-2.2.3-4 .4-4 .2-4.1.2-8.6.2h-10.5l-2.4-.1-4.5-.4-4.5-.6-2.3-.3-4.4-.7-2.2-.4-2.2-.5-2-.7-2.1-.7-2-.9-1.8-1-1.8-1-7.2-4.5-1.8-1-1.8-1-2-.8-1-.4-1.2-.4-1.3-.4-1.3-.3-2-.4-2-.4-7-1-4.3-.8-4.7-1-7.6-1.8-2-.4-1.9-.3h-3.7l-2.8.4-4.9.9-4.8 1-2.8.8-2.4.8-4.3 1.6-1.7.6-1 .3-1 .2-.8.1H125v-.2l-.2-.3-1-2.2-2.4-4.7-2.6-4.7-1.4-2.6-1.1-1.7-1.1-1.7-1.1-1.7-1.2-1.5-3.4-4.2-.7-1-.7-1.2-.6-1.3-.3-1.1V-64l.3-1 .5-1.3.5-1 1.5-3.2.8-1.7.4-1.2.6-1.5.3-1.4.2-1 .1-1v-1.2l-.2-2-.5-1.8-.7-2-.9-1.9-1-2-1-1.8-1.2-2-1.2-1.8-1.2-1.8-1.3-1.8-1.3-1.8-1.5-1.6-1.5-1.6-1.6-1.5-1.8-1.4-5.4-4-1.7-1.4-1.7-1.4-1.6-1.4-3.1-3-3.1-3.1-4.4-4.8-3-3.2-1.3-1.7-1.3-1.7-1.3-1.7-1-1.3-.5-1-.8-1.4-.8-1.4-2.2-4.4-.7-1.3-.7-1.3-1-1.7-1.2-1.7-1.7-2.4-1.4-1.9-1.5-1.8-1.5-1.8-1.6-1.7-1.6-1.6-1.8-1.5-1.7-1.5-3.8-3-5.9-4.4-11.2-8.2-1.3-1-.3-.1v-.3l.2-.3.5-.2 1.3-.6 1-.3 1.7-.4 2-.5 1.5-.2h1.2l2.1-.1h2.3l2.5.1 2.5.3 2.4.4 1.5.3 1.5.5 1.4.5 2 .7 1.4.7 1.4.6 1 .3 1.3.1h1.2l1.5-.2 2.9-.6 6.7-1.1 2.4-.4h3l1.3.2.5.2 4.6 1.5 1.5.4 1 .2h4.7l1.6.2 1.4.1 1.3.3 1.3.3 2.3 1 1.4.4 1.6.5 1.5.4 2.8.5 3 .6.7.1h1.3l1.1-.2.8-.3 1.6-.7 5.1-3 1.3-.6 1.4-.7 2.3-.9 1.5-.5 1-.3 2.3-.7 2.1-.5 2.7-.5 2.4-.4 3.8-.6 1.7-.2 2.7-.2 1.7-.2 2.5-.5 2.5-.5 1.5-.4 2.4-.4 2.1-.2 1-.2.7-.2 1.2-.7 2.6-1.8 1.2-.8 2.4-1.4 1.1-.5 1.1-.4 1.2-.2h1.4l1.4.1 1.5.4.8.3 1.7.7 1.7 1 5.2 3 3.8 2.3 1 .5 1.7.7 1.9.6 2 .5 4.2 1 2 .5 2.2.6 2 .8.5.2 1.9 1 1.8 1.2 1.7 1.2 1.7 1.3 1.5 1.5 1.4 1.4 1.3 1.6 1 1.6.7 1.6.3 1.7.1 1.6v.8l-.2 5v1.6l.2.5.2.7.4 1 .5.8 1.2 1.4.5.7.3.7v.5l-.2.5-.3.5-.4.5-.6.5-.4.4-1.4.9-4.3 2.5-.6.4-.4.3-.4.4-.4.5-.4.6-.2.4-.4 1.3-.2 1.4v1.4l.3 1.4.4 1.2.6 1 .3.4.3.3.5.3.7.3.6.2 1 .3.8.2 1.5.2h.5l1.1.5.8.6.7.7 1 1.2 1.1 1.2.7.9.5.9.3 1 .2 1.5v1.6l-.1 1.2-.4 1.6-.3 1-1.7 4.5-.5 1.3-.2 1.3-.3 1.6-.1 1.4v1.5l.4 1.1.4 1.1.6 1.2.7 1 .8 1 1 .6.6.2.4.1h2.4l1.4-.4 1-.4 1-.4 1.3-.7 1-.6 1-.7 3.7-2.8 1.5-1.1 2.9-2 2.4-1.4 1.5-.9 1.6-.8 4.3-1.8 1.7-.7 1.8-1 1.7-1 1.3-1 1.2-1 1-1.1 2.3-2.5.8-.8 1.4-1 .3-.2.9-.4.6-.3 1.2-.1h.9l1 .1.9.3 1 .4 4.6 2 1 .4.8.3 1.3.2h.8l.7-.2.5-.3.3-.2.5-.4.7-.9.9-1.2 1.9-3 .8-1 1-1.2 2-2.4 1.1-1.3 1.3-1.2 1.2-1 1.1-.9.6-.4.9-.5.9-.3 1-.3h1.1l.8.3 1 .4.7.4.4.3 1 .8 3.5 3.5 1.1 1.2 1.3 1.5 1.3 1.7.9 1.4.6 1.2.6 1.3 1 2.3.5 1 .4.7 1 1.4 2.8 3.8.5.9.4.5.2.5.4 1.3.8 3.4.2.8.3 1 .4.8.8 1.2.9 1.1 1 1.2 1.3 1.1L326-98l2.8 2.2 1.8 1.4 2.8 2L341-87l3.6 2.5 3.5 2.3"/></defs><g clip-path="url(#pf16096cce5)"><use xlink:href="#m9283894b98" y="208.6" fill="#0c1321" stroke="#0c1321"/></g></g></g></g><defs><clipPath id="pf16096cce5"><path d="M7.2 7.2h357.1v194.2H7.2z"/></clipPath></defs></svg>