<svg xmlns="http://www.w3.org/2000/svg" xmlns:xlink="http://www.w3.org/1999/xlink" width="261.2" height="374" viewBox="0 0 195.9 280.5"><defs><style>*{stroke-linejoin:round;stroke-linecap:butt}</style></defs><g id="figure_1"><path id="patch_1" fill="none" d="M0 280.5h195.9V0H0z"/><g id="axes_1"><g id="PatchCollection_1"><defs><path id="m005ba62b9e" stroke="#0c1321" d="M156-260v.4l.3 1.5.6 2.5.7 2.2.8 1.8.8 1.8.7 1.3 3.5 6.3 1.4 2.7 1 2.1.4 1.1 1.2 3.4.8 1.8.8 1.5 1 1.7 1.8 2.7 3.5 5 1.5 2.3.6 1 1 2 .6 1 .4 1.1.3 1 .3 1 .2 1 .1.7.1 1.3v1.6l-.5 1.5-.6 1-.2.3-.3.4-1.2 1-1.4 1.1-1.6 1.1-1.8 1-1.9 1.1-4 2.1-10 5.3-3 1.5-1.4.9-1.8 1-1.6 1.2-1.5 1-1.6 1.5-1.4 1.6-1 1.4-.8 1.8-.7 1.8-2 5.8-.8 2-.6 1.3-.7 1.2-.8 1-1.2 1.3-.7.6-2.2 1.7-.7.7-.5.6-.1.3v.2l-.2.8v.6l.1.4.2.5.3.5.8.8 1.2.8.9.3 1 .4 2 .7 3.4 1 1.3.3 1 .4.8.4.6.6v.4l-.3.3h-.1v.3l.3 2.1.2 1.7.2 2.8.4 6 .4 2.8.3 1.7.5 2.4 1 4.2 1.7 6.7.5 1.5.8 2.4.4 1.1.7 1.7 1.3 2.6 2.5 4.9 1.6 3 1.3 2.9.6 1.3 1 2.6.4 1.2.4 1.4.5 2 .5 2.8.5 4.4.5 2.9.4 1.8.2 1 .4 1 .8 2 1 2 3.3 5.7 1 1.9.7 1.8.5 1.8.2 1.2v4.4l-.1 1.3-.2.8-.2.7-.4.4-.8.8-1 .8-1 .7-1 .6-1 .7-1.3.7-3 1.5-1.4.6-1.5.7-1 .4-3.7 1.2-3 .8-2.3.5-4.3.9-2.6.5-6.6 1.7-3 .8-2.2.7-2.8 1-2.2 1-2.1 1-1.6 1-1.2.6-1.3.8-1 .7-2.8 2-4 3.2-2.7 2.2-1.8 1.5-1.2 1.1-1.8 1.9-1.4 1.6-.4-.3-.8-.8-1.9-2-2.1-2.4-1.6-2-1.6-2.2-3.1-4.3-7-10.2-2.3-3.4-.6-.7-.9-1-.9-.7-1-.6-.4-.2-.5-.1H76L75-50l-1.2.4-1.6.8-2 1.1-1.7 1-4.9 3-1.2.7-1.1.6-1.3.6-1.4.5-.7.2-.8.2-1.4.1h-2l-1.3-.3-1.8-.7-3-1.1-1-.5-1.1-.7L44-45l-2-1.5-1.8-1.5-1.9-1.6-1.2-1L36-52l-1.4-1.7-.9-1.2-1.2-2.1-.6-1-1.1-2.3-1-2.3-.9-1.9-1.5-3.7-1.2-3.4-3-9-.3-1-.2-.4-1.5-3.5-.6-1.5-.7-2.2-.4-1.5-.3-2.5-.2-.9-.3-1-1-3.2-.5-1.4-.2-1-.4-2.3-.7-3.4-.3-1.7v-1.6l.1-.1h.1l5.9-2.9 3.1-1.6 1.7-1 1.8-1 1.7-1.3 1.5-1.4 1.2-1.3 1.2-1.4 1.2-1.7 1.2-1.8 1.3-2.4 2.1-4.5.6-1 1-1.7.7-1.3 1.2-1.6 1-1.2.6-.7 1-.9.9-.8 2.2-1.7 1.6-1.1 1.3-.9 1.7-1 1.3-.8 1.7-.8 1.6-.8 5-2.4 2.9-1.4 2-1.2 1.4-.8 1.1-.8 1.1-1 .7-.6 1-1 .7-.9 1-1.3.6-1 1.6-2.6 5-8.7 1-2 .9-1.7.6-1.5.5-1.3.2-1 .2-1 .2-1.1.1-1.7.1-1.8v-1.3l-.3-1.9-.4-2-.4-1.5-1.5-4-.5-1.9-.5-1.7-2.5-11.2-.3-1.5-.2-1.1v-2.1l.4-2.4.2-.7.1-.5.3-.7.7-1.2 1.5-2.4 1.2-2.3.5-.7.7-.9.6-.5.8-.6 1.4-1 1-.4 2.8-1.2 2.3-.9 3.6-1.3 1.9-.7 1.2-.6 1.2-.6 1.5-.9 1.6-1.2 2.5-1.9 1.4-1.2 3.1-2.7 2.6-2.2 8-6.6 1.5-1.2 2-1.3 2.2-1.4 1.7-1 3.5-1.6 3-1.3 1.2-.5 1.3-.4 1.5-.4 1.6-.3 1.5-.1h2.6l1.8.2 3.4.4 4.4.6h.4"/></defs><g clip-path="url(#pe77d457a0e)"><use xlink:href="#m005ba62b9e" y="280.5" fill="#0c1321" stroke="#0c1321"/></g></g></g></g><defs><clipPath id="pe77d457a0e"><path d="M7.2 7.2h181.5v266.1H7.2z"/></clipPath></defs></svg>