<svg xmlns="http://www.w3.org/2000/svg" xmlns:xlink="http://www.w3.org/1999/xlink" width="495.4" height="276.5" viewBox="0 0 371.5 207.3"><defs><style>*{stroke-linejoin:round;stroke-linecap:butt}</style></defs><g id="figure_1"><path id="patch_1" fill="none" d="M0 207.4h371.5V0H0z"/><g id="axes_1"><g id="PatchCollection_1"><defs><path id="ma0f54d07b9" stroke="#0c1321" d="m205-191.3.2.4.4 3.4.3 2.1.5 1.7 1 3.2.4 1.5.7 1.5.8 1.1 1 1.1 1 1.1.8.7 1 .8 2.1 1.6 2 1.4 1.5 1 1.1.6 1.4.6 1 .4 1.3.6 1.5.5 1.5.4 2.4.6 1.8.4 1.3.2 2 .2h3.3l.9-.2 2-.5 1.8-.6 2-.7 2-.6 1.2-.4 1.7-.4 2-.3 2.7-.3 2.6-.3 4.2-.3 1.8-.2 1.5-.2 1.5-.3 1.2-.3 1.6-.5 1.1-.4 1.7-.8.7-.3 1.5-1 2.5-1.4.8-.5 1.2-.6 1.3-.6 1.3-.4 1.8-.5 3.7-1 2-.4 1.2-.1 1-.1h1.4l1.3.1.7.1 1.4.3.6.2 1.2.5.8.3 1 .5 3.5 1.9 1.6.7 1.4.5 2 .4 2 .2h4l2.2-.2 2.2-.3 2.2-.2 6.7-1 2.3-.3 2.3-.3 2.3-.2h4.6l2.3.3 1.9.4 1.8.6 1.6.6 1.4.7 1 .6.4.3.2.2-.2.3-1.7 1.6L336-161l-2.2 2-1.6 1.5-1.7 1.8-2.2 2.5-1 1.2-1.3 2-1 1.6-.9 1.6-.8 1.8-.7 1.7-.4 1.1-1.4 5.1-.4 1-.4.8-.6.9-.3.4-1.2 1.2-1.3 1-1.6 1-1.6.7-1.7.7-1.5.4-4.5 1.3-2.4.8-1.4.6-1.7.8-1 .6-1.8 1-1.1.5-1 .4-1.8.7-1.5.4-1.7.5-11.6 2.6-2.7.6-2.8.8-1.7.5-2.2.8-1.8.7-1.5.8-1.2.7-.6.4-.7.5-.5.6-.5.6-1.3 1.8-1 1.4-1.1 1.2-3.8 3.9-1 1.2-1.6 1.8-4 5-.2-.4-.9-.6-1.1-.5-1.7-.5-1.8-.3h-3.2l-6.7.8-3.5.3h-8.4l-2-.2-3.7-.4-3.6-.4-6.7-1-2.1-.3-2.1-.3-2.9-.2h-4l-1.5.2-1.4.3-1.5.5-1 .4-1.7.8-1.7 1-.9.6-1 .8-.7.7-.5.7-.5.7-.5.8-.2.4-.5 1.3-.4 1.3-.3 1.7-.3 2.2-.2 2.3v2l.1 2.3.2 2 .4 3.7.3 2.4.5 3.4 1.2 6.7.3 2.1.4 4.1.3 5.4.1 1.6.2.8.3.8.4.8.7 1 .4.7.2.5.3.9.3 1.2v1l.1.6v1.7l-.2.9-.3 1-.2.4-.3.5-.4.6-.5.7-.9 1-.6.5-.7.6-.8.6-1.3.8-1.5.9-1.3.6-4.1 2-2.1 1-2.2 1.4-3.3 2.2-2 1.3-2 1.2-1.3.7-.8.3-1.7.8-1.7.5-1 .2-1.6.3-.8.1h-1.1l-1-.1-.8-.3-1-.7-1-1-.7-1.2-2-4-.8-1.2-1-1.3-1-1.2-1.2-1.2-1.3-1-1.5-1-1.6-.7-1.6-.7-1.7-.6-1.6-.6-1.7-.3-1.7-.3h-3.3l-1.2.2-1.1.4-1.4.4-4.6 1.8-3.5 1-3.6 1.1-5.1 1.4-11.2 3-3.4 1-.2-.2-.3-.5-1-2-1.6-3.9-.8-2-.8-2-1.9-5.5-.6-1.7-.9-2.2-.8-2-.9-1.7-1.2-2.4L77-52l-3.9-6.6-1-1.7-.6-1.2-1.8-3.6-.6-1-.6-1-.5-.5-.6-.3h-.3L67-68h-.7l-.8.3-.8.4-1 .5-.9.5-1 .6-3.3 2.3-1 .7-1 .6-.9.4-2.6 1.2-3.5 1.5-3.8 1.5-2 .7-4 1.4-2.1.7-2 .5-2 .4-2 .2h-1.8l-1.8-.2-1.3-.5-1.1-.8-1-.9-.6-1-.3-1-.2-1 .2-1.2.5-.7 10.8-21.4 11.5-22.9 2.4-4.6 1-1.5.4-.7.5-.6.4-.4.9-.8 1-.7.7-.4 1.5-.7 5-2.1 1-.5 1.1-.6.7-.5 1-.8.6-.6.4-.5.3-.6.4-.6.5-1.2.5-1.5.3-1.2.3-1.4.3-1.3 1-5.6.6-3.1.8-3.7.5-3 .3-2.4v-6.9l.1-1.3v-.8l.4-1.7.5-1.3.2-.3.4-.6.5-.4.6-.3.4-.2.7-.2 1.2-.1 1.6-.1h.8l1.7.2 3.6.4 2.6.3 2 .2 2.4.1h1.9l2.2-.2 3.9-.5 3.9-.4 2.9-.5 2-.4 1-.2 1.4-.4 3.3-1.3 1.8-.5 1.8-.4 4.6-1 5-1.3 4.3-.9 1.6-.4 2.5-.9 4.6-1.7.9-.4 1.3-.6 3-1.6 5.3-2.7 3.7-2 1.7-.8 2-.8 3.8-1.2 2.3-.7 3-.8 6-1.4 3.8-.7 8.4-1.3 3.4-.7 1.7-.3 1.8-.5 2.3-.6 1.5-.5 3.4-1.2 3.5-1 2.2-.7h.9"/></defs><g clip-path="url(#p4f6a790213)"><use xlink:href="#ma0f54d07b9" y="207.3" fill="#0c1321" stroke="#0c1321"/></g></g></g></g><defs><clipPath id="p4f6a790213"><path d="M7.2 7.2h357.1v192.9H7.2z"/></clipPath></defs></svg>