<svg xmlns="http://www.w3.org/2000/svg" xmlns:xlink="http://www.w3.org/1999/xlink" width="495.4" height="367.7" viewBox="0 0 371.5 275.8"><defs><style>*{stroke-linejoin:round;stroke-linecap:butt}</style></defs><g id="figure_1"><path id="patch_1" fill="none" d="M0 275.8h371.5V0H0z"/><g id="axes_1"><g id="PatchCollection_1"><defs><path id="me6209a6102" stroke="#0c1321" d="m324.6-191.9.3.3.5.6 1.8 2.1.6.9 2.4 3.7 1 1.5 1.3 1.5 1.2 1.2 1.7 1.3 1.8 1.1 1 .6 1 .5 2.6 1 .7.3 1.6 1 .7.5 2 1 .6.3.3.3.2.5.2.5v.7l-.2 1.2-.6 3.3-.3 1.4-1 4.7-.4 1.7-.2 1.6-.1 1.1v2.7l.6 3v1.7l-.5 1.4-.6 1.3-.5.9-.6 1-1.4 2-1.2 1.5-2.7 3.1-1.3 1.6-1 1.2-1.7 2.6-1 1.2-1.2 1-2 1.5-1 .8-1 1-.5.7-.5.7-.3.7.1.6-.5.4-4.2 3-3.4 2.5-2.9 2-3.4 2.2-2.3 1.4-2 1-1.3.6-1.3.4-1.6.4H302l-1-.3-1.3-.6-1.6-.9-4.8-3.3-1.2-.7-1-.6-1.4-.6-1.4-.5-2.4-.7-1.8-.3-2.4-.4-2.6-.2-2.6-.1h-5.2l-5.3.2-2.6.2-2.6.3-2.6.4-2.5.5-2.4.7-2.3.9-2.3 1.2-2.1 1.5-2 1.7-2 1.8-2 1.9-2 2-11.3 12-3.9 4-2 2-2 1.8-2 1.7-1 .8-2 1.5-2 1.5-4.2 2.8-6 3.9-8.7 5.4-4.1 2.5-4 2.3-2 1-2.8 1.3-1.3.7-1.6 1.3-1.5 1.4-1.4 1.7-1.3 1.9-1.2 2-1 2-.9 2-.3 1-.5 1.6v.6l-.4 2.8v2.2l.6 9.8v.9l-.2.3h-.4l-1.4.7-3.1 1.3-1.1.4-.7.1-1 .1h-1.1l-1.5-.6-1.4-1-1.7-1.5-1.7-2-1-1.2-1.8-3-1-1.2-1-1.1L147-40l-1.7-1.6-1-1-1.2-.7-1.1-.8-1.4-.8-1.4-.7-1.5-.6-3.2-1.1-1.4-.4-1.1-.3-6.5-1.1-.6-.2-1.8-.6-1.7-.9-.7-.4-2-1.4-2.4-1.7-1.7-1.1-.7-.5-1.8-.9-1.2-.4-1.7-.5h-2.6l-1.3.3-1.2.6-1.7.8-.9.6-1.4 1.1-3.2 2.6-.7.6-1 1-.5.6-1 1.3-2.6 4.6-.7 1.1-6.3 9.3-.9 1.3-2.4 4.2-.8 1.1-.4.6-.8.7-.7.6-.7.6-1.7 1-1.7 1-1 .4-2.1.8-2 .8-1.8.5-1.1.2-1.1.2-1.7.1h-3.5l-1.4-.2-2.6-.3-3.7-.6-3.8-.7-2.3-.6-1.8-.5-1.3-.5-2-.8-.9-.4-1-.6-.7-.4-1-.7-.6-.6-.8-.8-.5-.6-.9-1.1-1.2-2-1-1.8-.4-1-.6-1.5-.5-1.4-.3-1.2L30-39l-.4-2-2.2-13-.2-1h-.1l-1-4.7-1.8-7.9-.6-3-.3-1.8V-76l.4-1.2.5-1L26-80l.6-.8.4-.8 2.3-4.6 2-4.4.8-2 1.7-4.7.3-1.1.4-2.4.3-1.1.5-1 .5-1 .8-1.3.6-1 .5-1.3.5-1.6.2-1v-.9l.2-2v-1.4l-.1-1.7-.2-.9-.2-1-.4-.9-.6-1.3-.6-1.1-.6-.8-.4-.3.7-.3 3.4-.9L45-125l2.5-.5 4.4-.8 5.8-.8 1.2-.2 4-.8 3.5-.7 1.3-.3 1-.4 3.2-1.4 2.3-1 1.5-.4 1.7-.4h1.3l1-.1h2.5l1.1.2 1 .3.8.3.8.3 1.6.9 2.3 1.6 1.2.7 1.5.7 1.4.5 2.7.6.8.1h.9l.3-.2.2-.2.2-.3v-1l-.1-.5-.4-.5-.8-1-1-1-5-4-1.4-1.3-1-1-.8-1-.7-1-.6-.9-.7-1.2-.6-1.3-.2-1-.4-1.6-.3-2-.1-1.4v-1.5l.3-1.7 1.3-5.5 1.7-6.6L90-172l1.4-5.2.5-2.4.2-1.8v-1.9l-.1-1.7-.2-.6-.3-1-.4-1-.4-.8-.9-1.5-.2-.4-.2-.9v-1.2l.8-3.5.2-1.1v-1.4l-.1-.6-.3-.7-.3-.5-.7-.8-1.6-1.8-.4-.5-.3-.4-.1-.4-.1-.3v-.4l.1-.5.2-.3.4-.5.6-.6 1.2-.7 1-.6 3-1.4 2-.9 2.1-.8 14.4-5 2.5-1 2-.7 1.7-.9.6-.4.6-.5.6-.6.4-.6.5-.7.3-.8.4-1.2.2-.9.2-1.3v-2.2l-.2-1.4-.4-1.4-.4-1.3-.9-2-.7-1.5-3.8-6.8-5.2-10.1-1-2.3-.4-1.2-.1-.3v-.4h.5l8 .2 7 .2 4.9.3 2.6.3 2.6.3 2.4.5 2.2.6 2 .8 1.1.6 2 1.3 1.2 1 2.6 2.3 6.9 6.6 1.2 1.3 1.6 1.7 1.2 1.3 1.8 1.7 1.5 1.1 1.3.8.8.4 1 .2 1 .1h.6l.8-.2 1-.3.5-.2 1.1-.7.3-.2.6-.6 1.4-1.8.5-.4.6-.4.7-.3.8-.3 1-.2h.8l3.1-.4 3.1-.6 1.5-.2h1l.6.1 1.3.4 1.4.5 1.3.7 2.1 1.3 6.2 4.5 5 3.3 1.4 1.1.7.7.7.6 1 1 2.6 3 4.2 4.4 4.8 5.6 2 2.2 1 .9 1 .8.9.5 1 .4.9.1h1.3l.7-.2.7-.3 1.1-.4 2.1-1 2.7-1.7 6.4-4 1.4-.8 1.3-.6 1.2-.5 1.1-.3 1-.3 7.4-1.5 2-.4 2-.6 1.6-.5 1.4-.6 1.5-.8 1.1-.8.6-.5.5-.6 1-1.3 1-2 1-1.8 1.7-2.7.5-.8.6-.7.8-.7.6-.3h1.3l1.5.2 1.6.7 1.7 1 1.7 1.1 1.6 1.3 2.7 2.4 2 1.9 2 2 2 2 1.8 2 2.3 2.7 1.7 2.2 1.6 2.2 3.2 4.5 6.5 9.6 1.5 2.1 1.5 1.9 1.8 1.6 1.9 1.2 2.1.7 2.3.3h2.2l2-.3 1.7-.4.7-.3"/></defs><g clip-path="url(#pb36cc1335c)"><use xlink:href="#me6209a6102" y="275.8" fill="#0c1321" stroke="#0c1321"/></g></g></g></g><defs><clipPath id="pb36cc1335c"><path d="M7.2 7.2h357.1v261.4H7.2z"/></clipPath></defs></svg>