<svg xmlns="http://www.w3.org/2000/svg" xmlns:xlink="http://www.w3.org/1999/xlink" width="423.5" height="374" viewBox="0 0 317.6 280.5"><defs><style>*{stroke-linejoin:round;stroke-linecap:butt}</style></defs><g id="figure_1"><path id="patch_1" fill="none" d="M0 280.5h317.6V0H0z"/><g id="axes_1"><g id="PatchCollection_1"><defs><path id="m7683685954" stroke="#0c1321" d="m184.2-243.1-.3.3-.7 1.4-.5 1-.4 1-.4 1.2-.4 1.3-.2 1.4-.1 1.6.1 1.4.4 1.2.5 1.1.8 1.3.8.8.7.5.3.2.3.2.8.4.9.2 1 .1h.9l1-.3.4-.2.8-.4.7-.4 3-2 .6-.4 1-.3 1-.2h2.4l2.6.2h1.2l1.3.2 2.1.3h2.5l.3-.2.6-.3 1.8-1 .8-.2.6-.2h.9l.8.1 1.1.5 1.2.7 1 .8 1 1 1.2 1 1.1 1.3.8 1 .5.9.9 1.3.5 1 .4.9.7 1.7 2.2 5.9.8 2 .5 1.1.4 1 .6 1.2.6 1 .5.8.6.9.8 1 3.1 3.7.6.7.7 1 .8 1.3.8 1.7.6 1.4.5 1.5.3 1.3.2.9.3 1.8.4 4.1.2 1.1.2 1 .4.8.4.8.8 1 .6.7.6.6 1.1.9 1 .7 1 .7 4 2.8.7.4.6.6.7.6.6.6.8 1 .7.9 1.8 2.5.9 1 1 1 1 1 1 1 1 .8 1 .9.8.4 1 .7 1.1.4.9.3 3.1.6 1.4.3 1 .5 1 .5 2 1 1 .6.9.8.7.9.5.9.5 1.2.3.5.5.7.6.5.3.2.5.3.5.2.6.1.7.1h.9l2.6.1h.6l.7.2.5.2.4.2.3.3.3.4.4.8.3.4.6.5.8.4.8.2 1.3.3.6.1.5.2.7.5.5.7.6 1 .1.3.2.8.1 1.2-.1.8-.4 1-.4.7-.4.7-.8 1.4-1.5 2.2-1.5 2.4-.4.4-.2.1-3.3 1.6-2.2 1-1.5.8-1.8 1-1.6 1.2-1.3 1-.9.7-.6.7-.6.7-.5.6-.4.7-.4 1-.3.8v1l-.1 1.2v4.1l-.1.7-.4 1.3-.6 1.1-.9 1.3-1 1-.8 1-.9.8-.8.7-.9.5-.5.4-.5.3-.9.4-.7.5-.6.5-.4.5-.4 1-.4 1.6-.2.6-.2.6-.4.7-.7 1.4-.6.8-.8 1.2-1 1-2 2.3-1.6 1.9-1.4 1.4-.7.6-.6.6-1.7 1-.8.7-2 1.8-1.7 1.4-.7.8-.3.3-.7.9-.3.5-.3.5-.2.5-.1.6-.2.8v3.8l-.1 1-.7 4.2v1l-.1.8-.1 3.3-.2 2.4-.1 1.2-.3 1.3-.3 1.4-.3 1.2-1 3-.3.8-.3.7-.8 1.6-1.1 2.6-.6 1.1-1.7 3-.5 1.2-.3.7-.5 1.3-.4 1.4-1 3.7-.4 1.2-.4 1-.5 1.3-.8 1.7-.5 1.1-.4.7-.4.6-.7 1-.6.4-1 .6-1.2.4-1.2.3-.8.2-.9.1-1.7.1-.8.2-1 .3-.8.5-.4.3-.3.3-1.4 1.2-.6.4-.4.3-.7.4-.7.3-.6.2-.6.1-.6-.1-.5-.3-.4-.5-.4-.6-.3-.7-.4-1.3-.1-1-.1-1v-1.3l.3-1.3.3-1.4.3-1.7.1-.8.1-1v-.9l-.3-.9-.6-.8-.7-.6-1-.4-1.4-.4-1.6-.2-4.4-.4-1.2-.1-1.3-.2-1.8-.4-1.6-.5-1.2-.4-.3-.2h-.1v-.2l-.2-.2-.6-.1-.8-.2h-2.9l-1.3.1-4.9.6-2 .2H180l-1.4-.2-.9-.2-1-.4-.4-.2-.5-.3-.5-.4-.7-.7-.5-.5-.3-.4-.4-.6-.3-.5-.1-.4-.5-1.1-.2-1.2-.2-1.2v-5.8l.2-2.6v-2.2l-.2-.4-.2-1-.3-1-1-2.2-1-2.4-.7-1.5-.7-1.4-1.3-2.4-.6-1-.8-1.4-.9-1.3-1.4-2-.5-.8-.6-.7-.6-.7-.7-.7-1.2-1.2-1.4-1.2-2-1.6-2.6-1.8-1.6-1.1-9.6-6.5-2.2-1.5-2-1.6-1-.8-1.2-1L133-99l-1.3-1-1.5-1.1-3.4-2.4-2.2-1.6-1.5-1.3-.7-.6-1-.8-.8-1-.8-1-.4-.7-.5-.7-.6-1.2-.5-1.2-.5-1.6-.5-1.6-.3-1.5-.3-1.6-1-5.5-.2-1.8-.1-1.3v-2.4l.3-.9.2-1 .3-.8.5-1.4.8-2 .5-1.3.7-1.6.9-1.6.6-1 .6-1 .4-.5.8-1 .6-.6.7-.7.8-.7 1.4-1 .2-.2.3-.3.2-.3v-.4l-.1-.2-.3-.1-.2-.2-.8-.2-4.9-1.3-2.6-.7-1.9-.4-1.3-.2-1.2-.2-1.8-.2h-4.1l-4 .4-2.3.1h-3.6l-1.1-.1-1.3-.2-2.2-.3-1.7-.3-1.8-.3-5-1-2-.4-2-.3h-1.4l-1 .3-1 .3-1.3.4-3.4 1.2-1 .4-1.4.4-1.4.3-1 .2-1.1.1-2 .2h-3.4l-.9-.1-.8-.2-1.2-.3-1.5-.6-1.3-.6-1-.5-.8-.5-.8-.5-1.6-1-4.5-3.7-1.1-.8-1.2-.8-.7-.5-.7-.4-.8-.3h-1l-1.1.3h-.8l-.5-.3-.3-.4-.3-.5-.2-.6-.3-1-.2-.6-.2-1-.2-1.8-.1-1.3v-1.9l-.3-1.4-.3-1.5-.4-1.2-.7-1.4-1.5-2.7-2.7-5-1.4-2.2-1-1.6-.8-1L24-193l-1-1.4-.7-1-.4-.8-.4-.8-.4-1.3-.1-1v-.7l.2-.4.1-.4.2-.2.2-.3.1-.1h.1l.1-.1.1-.1.3-.2 1-.5 1.8-.7 2-.6 3.2-1 6.6-1.7 1.4-.4 1.3-.5 1.6-.7 1.6-.7.7-.4.6-.4 1.2-.9 1-.8.8-.8 3.3-3.6 2.2-2.2 3-3 4.5-4.2 2.7-2.8 1-1 1-1.2 1.3-1.5.8-1 .8-1 1.7-2.5 2-3.3 1.4-2 1-1.4.8-1 .7-.8 1-1.1.9-.8.6-.5 1.5-1.1 1.4-1 1.4-.7 1-.5.9-.3 1.3-.4.7-.2.9-.2h1.5l2.6-.2h1.3l2.8.2h.8l1.3-.1 6.4-.6h.6l1.3-.3 1.2-.4 1.4-.5 1.4-.7 1.4-.7 1.4-.8 1.3-.8 1.2-.9 1.1-.8 1.6-1.3.9-.7.5-.3.5-.1.6-.2h.6l1.2-.1h6.2l4.5-.3 3-.1 3.1-.2h3.7l1.2.3 1.3.2 1.2.4 1 .3 1.2.5 1.5.6 1.5.8 1.3.7 1 .7 1.2.8.7.6.8.7.8.8.8.8.4.6.3.6.6 1.2.6 1 1 1.3.5.6.5.6.4.3.9.6.8.5 2 1 1 .4.8.4 1 .3.9.2 1 .2 3.5.1 1.4.1h2.3l3.9-.1 1.7-.1h.8"/></defs><g clip-path="url(#p51e185d76c)"><use xlink:href="#m7683685954" y="280.5" fill="#0c1321" stroke="#0c1321"/></g></g></g></g><defs><clipPath id="p51e185d76c"><path d="M7.2 7.2h303.2v266.1H7.2z"/></clipPath></defs></svg>