<svg xmlns="http://www.w3.org/2000/svg" xmlns:xlink="http://www.w3.org/1999/xlink" width="378.2" height="374" viewBox="0 0 283.6 280.5"><defs><style>*{stroke-linejoin:round;stroke-linecap:butt}</style></defs><g id="figure_1"><path id="patch_1" fill="none" d="M0 280.5h283.6V0H0z"/><g id="axes_1"><g id="PatchCollection_1"><defs><path id="m85ba17aac9" stroke="#0c1321" d="m225.9-196.8.6.2.8.4 2.1 1 1.4.7 1 .7 1 .7.5.5.6.7.8 1.3.6 1 .5 1.5.3 1.3.2.9.1 1.2.2 1.9v3.8l-.1 5v1.5l.1 1.3.3 1.2.2 1 .3 1 .4 1.1.4 1.2.7 1.7 1 1.8.8 1.7 1 1.4.7 1 1.2 1.6 2 2.2.8 1 .3.5.8 1.3.4.9 1 2 .8 1.7.5 1.5.4 1.5.3 1.2.5 2.4 1 6.7 1.1 7.6.3 1.8.3 1.7.7 3.2 1 3.6 1.1 4.5.6 1.8 1.2 3.7.3 1.4.4 1.7.9 4.7.7 2.8.5 2 1 3.2 1.2 4 .4 1.2v.5l-2.3 1-2.8 1-1.6.4-1.5.4-1.6.4-1.6.2h-1.5l-1.6-.2-1.5-.3-1.4-.4-1.5-.5-3.1-1.3-1.3-.5-.7-.2-1-.2H235l-.8.1-1 .2-3 .5-.7.1-1.6.2h-2.1l-1.8-.2-1.4-.2-1.4-.3-3.2-1-1.2-.2-.7-.1-1.2-.1h-2.2l-1 .3-.7.2-.9.3-.6.3-.9.6-.3.3-.5.5-.4.6-.4.6-.2.8-.1 1v4.7l-.1 1.4-.2 1.1-.4 1.3-.3 1-.2.2-.1.2-.2.1h-.5l-1.2-.2-4.3-1-1.4-.2-1.4-.2-1-.1H194l-1.3.2-1.2.5-.7.5-.6.5-.4.5-.4.7-.2.7-.2.5-.3 1.3-.1 1.5-.1 1.4-.2 2.9-.1 1.7-.2 1.1-.2.7-.2.7-.4 1.2-.3.7-.4.7-.5.8-.9 1.1-.5.7-.7.7-.6.6-.6.5-.8.7-1.4 1-1.2.8-1 .6-1 .5-1.5.7-3.4 1.3-.7.3-1 .4-.6.4-1 .6-2.6 1.9-1 .8-1 .4-.7.5-.7.2-1.1.5-1.3.4-1.5.4-3.3.8-2.1.4-1.5.2h-1l-4.7.3-2 .2-1.4.2-1.5.3-1.2.4-1.5.6-1.4.6-1.2.8-.7.4-.7.6-.6.4-.6.7-.5.5-.6.7-.4.6-.8 1.4-.6 1.3-1 2.9-.3.5-.3.6-.3.4-.3.5-.4.4-.3.1-.6.4-.5.1-.4.1-.8.1h-1.1l-2-.3-5.4-1-1.7-.4-1.6-.3-1.6-.5-1.3-.4-3.8-1.3-1.7-.6-11.7-3.3-1.7-.5-1.9-.7-.8-.4-1-.5-1.4-.7-1.2-1-3.1-2.7-1-.8-1.3-1-.6-.5-1.2-.7-1-.5-1-.5-.9-.4-.8-.3-1-.3-1-.2-2-.5-6-1.2-2.3-.5-1.5-.4-1.1-.4-1.3-.5-1.1-.6-1-.4-.9-.6-3.3-2.1-1-.6-.7-.4-2.2-.9-5-1.8-2.3-1-2-1-1.6-.7-1-.7-1.4-.8L34-55l-1.4-1-1.6-1.3-3.4-3.1-1.7-1.5-2.3-1.7-4-3v-.2l.6-.7.8-1 1-.9 1.7-1.5 1-.9 1.1-.8 1.4-1 2-1.1 1.8-1 3-1.6 1.8-1 1.5-1 .8-.6.7-.5 1-.9.9-1 .7-.8.9-1.1.8-1.3.7-1 .6-1.2 1.1-2.3.6-.9.7-1 .7-.7 1-.9 1-.7 1.4-1 1.7-1.2 1.7-1.1 4.5-2.7 1.2-.7.6-.5.8-.6 1.1-1.1.6-.7.5-.6.7-1.2.4-.9.5-1.1.3-1 .3-1.5.1-1 .2-1.5v-2.4l.1-1.4.2-1 .3-.6.3-.7.3-.4.2-.3.7-.6.6-.4 2-1.1 1-.8 1.1-1 1.5-1.5 1-1.1.8-1 .7-1 .4-.7 1-1.7 1.3-2.6.3-.7.2-.7.2-1 .1-.9v-8.8l-.1-.7-.1-.7-.5-1.4-.2-.6-.5-1-.9-1.4-1-1.6-.3-.8-.2-.5v-.9l.2-.4.2-.2.2-.1.3-.2.8-.2h1.4l1.3.1 3 .7 1.1.2h1.1l.6-.2.9-.3.6-.5.5-.6.3-.6.2-.5.2-.9v-1.9l-.2-.6-.2-.6-.2-.4-.3-.4-.7-1-.5-.5-.9-.8-1.7-1.4-.8-.8-.7-.8-.6-.8-.4-.6-.5-1-.2-.5-.3-1-.1-.7-.2-1-.2-2-.2-1.9-.1-1.8v-2.7l.3-1.9.4-1.8.5-2.1 1.4-5.8.4-1.5v-.8l.2-1.2v-1.6l.1-1.2v-6l.3-1.4.3-1.2.3-1 .7-1.7 1.5-4 .6-1.8.2-1 .4-1.8 1-5.3.4-2.8 1.6-6.8 2.5-11.6.5-2 .8-3.3 2.6-8.8.2-.7v-.4l.5-.1.5.2.4.4.2.5.2.6.1 1v5.6l.2 2.4v1.7l-.2 1.5-.2 1.2-.3 1.2-.6 1.8-.7 1.8-.5 1-2.6 5.4-.9 2-.7 1.7-.5 1.4-.4 1.3-.2 1.1v2.9l.3 1.6.6 1.7.9 1.6.5.9 2.4 3.5 1.2 2 1.6 2.5 1.6 2.8 1.1 2.2 2.3 5.2.6 1.1.8 1.4.9 1 .5.5.3.3.3.3.5.3 1.1.4 1 .2h2.2l1.2-.1 5.2-.7 1.5-.1h4.3l1.2-.1 2.8-.2 3.2-.2 3.4-.4 1.8-.2 3.5-.5 2.4-.4 2.4-.5 2-.5 2.8-.8 3-.9 11.7-3.8 2.4-.7 2.9-.7 2.1-.5 2.3-.5 1.4-.2 1.5-.1h1.9l1.3.1 1 .2 2.1.5 1.6.3 1.6.3 2.9.2 2.2.3 1.4.3 1 .2.3.1.9.4.6.4.4.4.9.7 1.6 1.7.8.6.7.5.7.5 1.8.9.8.3.9.3 1 .3 1 .2 1.3.1 1.2.2h1.6l4 .1h10.1l.5.2h.2"/></defs><g clip-path="url(#pff40c630cf)"><use xlink:href="#m85ba17aac9" y="280.5" fill="#0c1321" stroke="#0c1321"/></g></g></g></g><defs><clipPath id="pff40c630cf"><path d="M7.2 7.2h269.2v266.1H7.2z"/></clipPath></defs></svg>