<svg xmlns="http://www.w3.org/2000/svg" xmlns:xlink="http://www.w3.org/1999/xlink" width="359.1" height="374" viewBox="0 0 269.4 280.5"><defs><style>*{stroke-linejoin:round;stroke-linecap:butt}</style></defs><g id="figure_1"><path id="patch_1" fill="none" d="M0 280.5h269.4V0H0z"/><g id="axes_1"><g id="PatchCollection_1"><defs><path id="m67a4b9f9ce" stroke="#0c1321" d="m168.8-255.7.1.1.3.6 1.2 2.9.5 1.2.7 1.2.8 1 1.5 2 .9 1.1.8 1.2.4.7.4.8.4 1 2.1 5 .8 1.9 1.2 2.6.7 1.2.4.7.6.9.8 1 .6.5.6.5.6.4.7.3 1 .2h2.2l1.1-.1 3.6-.6 1.1-.2 1.1-.1h2.8l.7.1.5.3.9.5.8.8.7 1 1.4 2 1 1.2 1 1 .7.8 1 .9.5.3.6.4.4.1.9.2h3.4l.6.1.5.2.6.5.7.8.5.8.8 1.4 1.8 3.2.7 1.4.5.6.8 1.2 2.4 3.3 1.7 2.5 1 1.4.4.7.4 1 .2.9v1l-.2 1-.5 2.2-.3 1.1v2.7l.1.4.2.3.2.4.5.4.4.2h.9l.4-.1.3-.1.5-.3.4-.4.4-.5.4-.5.7-1.7.3-.4.4-.4.6-.4.6-.2.5-.2h.9l.4.2.4.2.2.2.3.3.2.3.7 1 .4.6.3.3.6.5.4.3.5.2.2.1h1.4l.5-.1.8-.4 2-1 .4-.2.5-.2h.6v.3l-.2.5-.2.4-2 2.6-.5.7-.4.6-.3.6-.5 1-.3 1-.2.8-.2 1v1.1l.1.5.2.5.2.3.5.9.6.7.6.6.5.3.5.3.5.2 1.3.4.4.2.4.2.4.3 1.4 1.2.6.6.5.5.4.7.3.5.3 1 .2 1.3v4.1l-.2 1.5-.4 3-.5 3.2-2.4 14.1-.1 1.2-.6-.5-.5-.3-.6-.2h-1.4l-.7.2-.6.1H241l-.9.2-.7.2-.7.3-.7.4-1 .7-.8.6-.5.5-.7.7-.4.5-.3.6-.5 1-.4 1-.2 1-.4 1.6v.3l-.2.3-.4 1-.3.7-.1.7-.4 1.6v.9l-.1.6.1 2v.6l-.1.4-.3 1.2-.7 1.8-.7 2.5-.4 1.2-.3.8-.5 1.3-.4.6-.3.5-.6.7-1.3 1.3-.7.7-.6 1-.5 1-.9 2.3-.5 1.2-.6 1.2-.5.8-.6.8-.6.7-.8.8-1.3 1.4-1 1-.8.6-5.6 4.7-2.5 2-2 1.6-1.8 1.4-2.4 1.7-.9.7-.8.7-3 3.1-.8.9-.5.5-.6.9-.4.5-.4.7-1.8 3.3-.4.7-.2.3v-.1h-1l-1.1.2-.9.3-1.7.6-2 .7-1 .5-3 1.3-2.7 1.2-1.9 1-3.3 1.6-1.2.5-1.7.7-3.2 1.2-1.9.7-1.6.6-2.2 1-1.9.9-1 .5-.8.5-1.8 1-2.7 1.8-3.6 2.4-7.4 5.3-1.4 1-1.1 1-1.3 1-1.6 1.4-1 .8-1.2.8-1.1.8-1.2.8-2.4 1.5-2.5 1.4-1.3.6-1.3.6-3.7 1.7-.7.3-.8.4-.6.4-.6.4-.8.5-.8.7-.7.6-.4.4-.8 1-.7.8-.6.8-.8 1.2-1 1.7-.6.8-.6.7-.7.7-.6.7-.9.8-1.5 1.3-.7.5-.7.5-.5.3-.6.3-.5.1-.8.3-.8.1-.7.1h-2.8l-.8-.1-2.3-.4H93l-2.2.4h-1l-.7.1h-1.8l-.7-.3-1.6-.5-1-.3-.8-.1-1-.1h-1l-1.2.4-1.2.4-1.2.4-2.5 1-1.2.5-.6.2-.8.2-.8.2h-.4l-1 .1H69l-1.3-.2-1.7-.2-1.2-.3-1.7-.4-1.2-.4-.9-.3-3.4-1.3-.9-.2-.5-.1h-.6l-.4-.8-.9-2-.4-1-.4-1.1-.3-1-.2-1-.1-1v-2.3l.2-.6.4-1.8v-2.6l-.3-.6-.4-.7-.5-.6-.8-.8-.3-.3-.7-.5-.5-.3-1.4-.9-1-.7-2-1.5-.3-.2-.7-.6-.7-.7-2.2-2.2-.6-.5-.5-.5-.8-.6-.8-.5-2.3-1.5-.5-.3-.9-.7-.8-.9-1.1-1.3-3-3.7-.5-.6-.4-.7-.5-.7-.3-.6-.3-.9-.6-1.8-.3-.8-.4-1-.4-.8-.3-.7-.5-.8-.8-1.4-.8-1-.8-1-.7-.8-2-2-1-1.4-.4-.4-.3-.5-.2-.3-.1-.3v-.1h.1l.2-.2.6-.6L21-80l1.6-2.2 4.7-6.6 4-5.9L33-97l3-4 1.3-1.8 1-1.7 1-1.5.6-1.3 1.2-2.9.5-1 .5-1 .5-.7.4-.5.5-.7.8-1 2.1-2.2 1.1-1.3.4-.5.5-.7.7-1 .3-.6.3-.7.3-.8.2-.8v-.8l-.1-.6-.1-.4-.2-.5-.8-1.8-.2-.7-.3-.8-.2-1v-.8l-.2-1v-1.6l.2-1.6.3-2v-.9l.2-.6.2-.6.1-.5.3-.8.4-.8.3-.6.5-1 .6-1 .7-1 .5-.5.6-.6.7-.7.8-.6.8-.5.8-.4.9-.4 1.3-.6 3.5-1.3 1.4-.5 5-1.5 1.8-.7 1.1-.4.6-.3.7-.4.6-.4.6-.5.4-.4.4-.6.6-1 1.7-2.8.2-.5.2-.4.1-.6v-1.2l-.3-.8-.4-.8-.5-.9-.6-.9-.7-1-2.2-2.8-.9-1.1-.8-1.3-.5-.8-.4-.9-.5-1-.3-1-.2-1v-1l.2-1.2.2-.6.4-.8.5-.8.2-.2.7-.8.6-.6.6-.5.6-.4.6-.3h.2l.3.1 1 .4 1.3.4 1.5.3 1 .2h1l3.7.4 1.3.2 1.3.3.7.3.6.5.4.7.3.7v1.6l-.1.6-.3 1.4-.3 1.2-.1 1v2l.1.8.3 1 .2.6.4.6.3.4.4.2h1l.6-.2.5-.2.6-.3.3-.3.5-.3 1.1-1 .3-.3.3-.2.7-.4.8-.3.7-.1 1.4-.1.7-.1.7-.1 1-.3 1-.3.8-.5.4-.4.7-.8.3-.5.3-.6.5-.9.6-1.4.4-1 .4-.9.3-1 .8-3 .3-1.1.4-1.1.3-.6.4-1 1.4-2.5.5-1 .9-2 .7-1.4.2-.6.3-.6.7-2.4.3-1 .3-1.2.2-1 .1-1.1.1-2 .1-2.6v-.8l.1-.8.6-3.4v-2.9l.1-1.1.1-.7.2-.4.1-.5.2-.3.3-.5.6-.7.2-.3.6-.6 1.4-1.2 1.7-1.4.6-.6 1.4-1 .6-.4.5-.5 1.1-1.2 1.4-1.5 1.7-1.8.7-1 .7-.9.5-.7.6-1.1.3-.6.2-.5.1-.5.4-1.4.3-.7.3-.5.5-.4.6-.4.7-.3.5-.3.4-.2.7-.5.7-.6.7-.7.7-.7.8-1 .7-1 .5-.9.3-1 .1-.6v-.7l.1-.8v-3.7l.2-.7.4-.8.3-.5.4-.6.5-.5.6-.6.7-.6 1-.8 1.4-1 1.5-.8 1.2-.7 1.8-.9 2.8-1.2.6 1.6.3.7.3.7.3.4.2.3.3.3.2.2.3.2.3.2.3.2h.3l.3.1h1.9l.6.1.4.1.8.2 1.1.4 1.4.6 1.3.6.8.2.7.3h.8l.4.1h.3l.4-.1.3-.2.3-.2.3-.2.2-.3.5-.6.3-.4"/></defs><g clip-path="url(#p72167e9159)"><use xlink:href="#m67a4b9f9ce" y="280.5" fill="#0c1321" stroke="#0c1321"/></g></g></g></g><defs><clipPath id="p72167e9159"><path d="M7.2 7.2h254.9v266.1H7.2z"/></clipPath></defs></svg>