<svg xmlns="http://www.w3.org/2000/svg" xmlns:xlink="http://www.w3.org/1999/xlink" width="495.4" height="334.9" viewBox="0 0 371.5 251.2"><defs><style>*{stroke-linejoin:round;stroke-linecap:butt}</style></defs><g id="figure_1"><path id="patch_1" fill="none" d="M0 251.2h371.5V0H0z"/><g id="axes_1"><g id="PatchCollection_1"><defs><path id="mbfd0131128" stroke="#0c1321" d="m303-194.8-.1.2-.1.7-.1.8-.1 1.7v5.2l.3 2.9.3 3 .5 2.9.4 1.7.4 1.5.7 2 .6 1.4.6 1.3.4.7.6.9.7 1 1 .7.7.6.7.4 1.7.8 1.7.6 1.9.6 2.2.4 1 .2h1.1l2 .1h1.9l1.8-.3 1.7-.4 1.2-.3 1.9-.5 1-.4 1.5-.6 1.4-.8 3.3-2 1-.6 1-.3 1-.1h1l1.1.4.9.5.9.7.7.8.6 1 .6 1.2.5 1 .4 1.5.4 1.6.2 1.3v1.3l-.2 1-.3.9-.3.6-.5.9-2.6 3.7-.7 1.3-.3.7-.3.7-.1.8v.3l.1.9.4.8.7 1.2 1.3 1.6.4.6.4.7.3.8.4 1.4.1 1.4.1 3 .3 2.8v2l-.1 1-.2.5-.9 1.4-1.2 1.2-1.4 1.2-2.4 1.8-1.9 1.5-5.7 4.9-1.2 1-1.2 1.2-.8.9-.8 1-2.8 4.2-.8 1.1-.9 1-.9.7-1.3 1-1.7 1-3.7 2.2-2.4 1.5-1.2.7-1.5 1-1.6 1.4-2.7 2.3-5.6 4.5-.9.8-1.2 1.3-.6.8-.8 1.2-.4.9v.5l-.1.8v1l.4 2.9v3.3l-.3 1.4-.2.9-.5 1.1-.5 1-.6 1.2-.5.7-1 1.3-1.1 1.3-.7.6-1 1-1.2 1-1 .6-1.1.6-1.3.5-1.3.6-11.2 4.1-1.8.7-1.8.5-2.3.6-1.4.3-1.3.1h-1.4l-2.8-.2-1.3.1-.8.2-1 .4-1.2.6-.7.4-1.9 1.3-1.9 1.5-1.1 1-1.1 1-1.7 1.8-1 .8-.8.6-.5.2-.8.4-1 .1h-1.6l-2.4-.4-2.9-.4-1.7-.4-1.1-.4-1.1-.5-3.7-2-1.3-.6-1-.4-1.6-.6-.9-.2-2-.2h-9.1l-1.6-.2-1.3-.2-1.7-.3-1.4-.3-2.4-.7-3.2-1.1-2.6-1.2-2-1.1-1.8-1.1-1.3-1-2.5-2.1-2-2-1.8-1.8-5-5.4-1.6-1.7-1.4-1.3-1-.8-1.4-1.1-3-2.1-1.3-.9-1.1-.6-2-.8-1-.5-.9-.5-.8-.5-1.5-1.3-2.9-2.8-1.1-1-.6-.5-1.5-1-1.5-.7-1-.4-1.2-.2-.8-.2h-1.2l-1.3-.1-1.5.1-1.7.2-2 .5-2.1.5-11.3 3.4-.8.3-.6.3-.7.5-.5.4-.4.4-.9 1.4-.6 1.5-1 2.8-1.8 4-.5 1.2-.2.7-.3 1.5-.2 1.4-.2 2.6v2l.2 1.4.7 4.4.3 2.2.2 1.9.2 1.8v5l-.2 2.5-.7 5.4-.3 4.8-.2 1.7-.4 1.3-.4.9-.6.8-.7.8-.8.8-1.3 1.1-1.3 1-3.3 2.5-1.7 1-1.1.6-1.3.6-1.2.6-1.6.5-1.7.6-1 .3-2.2.4-2.5.3-2 .1H100l-1.4-.2-1.3-.2-1.5-.5-1.4-.6-1.1-.8-.6-.5-.8-.9-.9-1-1.2-1.5-1-1.2-1.7-2.4-1.2-1.8-1.4-2.1-.5-1-.4-.8-.2-.8-.1-.6v-1l.3-.3.2-.1.1-.1v-.3l-.6-1-4-5.4-1.1-1.8-.7-1-.9-1.6-.6-1.3-.5-1.3-.8-2.3-.6-2.4-.5-2.4-.4-2.5-.6-4.8-.8-7.5-.6-5.5-.3-4.6-.1-2.4V-93l.3-2 .2-2.1.2-1.8.4-1.8.3-1.5.4-1.4.5-1.7.3-1 1.3-2.8 2.2-4.6.7-1.7.4-1.3.3-1.4.3-2 .2-2 .4-7.7.3-3.8v-3.3l-.2-.7-.2-.4-.3-.5-.3-.3-.4-.4-.5-.2h-1.6l-.8.1-1.5.5-1.5.5-7 2.6-2 .7-1.4.7-3.5 1.8-.8.4-1 .3-1.7.5-1.7.1h-2.6l-1.5-.3-1.7-.5-2.8-.7-1.7-.6-2.1-1-4-1.9-1-.6-1.2-.7-2.3-1.5-1-.8-1.3-1-1-1-.8-1.3-.6-.9-.5-1-.3-1-.3-1.1-.1-2v-2.7l.3-1.6.8-5.5.2-2.2v-2.3l-.4-5.3-.2-1.7-1.1-7.1-.3-2v-2.2l-.1-2v-1.8l.5-5.3v-3.3L25-199l-.1-1.2-.2-1.8v-4.8l.2-8.7v-1.6l-.3-.3-.3-.8-.4-1.3-.3-1.3-.1-.8v-1.7l.3-.6.2-.4.5-.4.5-.2.6-.2 1-.2 4.2-.6h1.7l.7.1.6.2.9.3 2.6 1 1 .3 2.5.6 1.8.6 1.5.6 1 .5.7.5.7.6 1 1.2.3.3h.5l.4-.2.3-.3.5-.8.5-1.1.7-2 .4-1.1.6-1.1.6-1 .7-1 .7-.8.8-.7 1-.6 1-.5 2-.7 1.7-.5 1-.2 2-.4 2.7-.4 3.5-.5h.6l.2-.1.2.3.8.3 1 .4 8 2.6 2 .7 1.2.6 1.3.6 1.4 1 1.3.9 1 .9 1 1 .8.9.7 1 .8 1.2.7 1.3.6 1.5.5 2 .4 1.7.2 1.3v1.1l-.1 1.1-.2 1.2-.6 2-.6 2-.1.6-1.3 3.2-.3.8-.2 1.1-.1 1.1v1l.2 1.3.7 3.1.1.6.2.5.4.4.3.4.3.1.6.2h1.5l1-.3 2.5-1 .8-.2h.5l.4.2.5.4.4.6.3.7.8 3.5.3.8.3.5.6.3h.9l.5-.1.6-.3.9-.5.9-.6 3.4-3 1.6-1 1.3-1 .8-.3 1.1-.5 1.1-.4 1.1-.3 2-.3h3.2l1.7.3 1.7.4 6.5 1.6 5.8 1.5 1.8.6 1.6.6 1.3 1 2.5 2.1 1.3 1.1 1.4 1 5.4 3.4 1.4.8 1.1.6 1.2.5 1.6.5 1.5.1 1.4-.2 1.4-.4 3-1.5 1.7-.5 1-.2 1.2-.2h1.3l1.2.1 1.2.2 1.5.4 1.3.5 1.3.6 1 .5 3.8 2.4 2.5 1.4 5.8 3.9 1.5 1 1.6.8 1.2.6 1.8.6 1 .4 3.2.8 2.2.7 1 .5.4.3.7.6 2.6 2.3 2.8 2.5 9.4 8.3 2.5 2.1 2.6 2 2.5 1.7 2.8 1.8 3.4 2 2 1.3 1.9 1.3 2.1 1.5 3.3 2.5 3.3 2.6 2 1.7 4.5 3.9 1.3 1 1 .8 1.6.8 1.4.5h2.4l.9-.3.8-.3 1-.4 2-.9 1-.2.7-.2h.4l.4.1.4.1.6.2.5.3 1.2 1 2.3 1.8 1 .7.4.3 1 .5 1 .4.9.2 1.2.3h.9l.8.1h.7l.8-.1 1-.2.8-.2 1.4-.6.7-.4.6-.3.4-.4.6-.4.5-.7.6-1 .5-1 .4-1.6.2-1 .2-.9.1-1.3v-2.2l-.1-3v-1l.2-4.3v-1.7l-.2-1.7-.4-2.6-1-4.5-.7-3.1-.9-4.2-.3-2.4-.1-2.1v-1.6l.2-1 .2-1 .2-1 .5-1.3.5-1.5.9-2 1-2.3 1.2-2.3 1-2 1.5-2.5 1.9-3 2.5-3.7 2.3-3.2 2.6-3.2"/></defs><g clip-path="url(#pf16a518ca3)"><use xlink:href="#mbfd0131128" y="251.2" fill="#0c1321" stroke="#0c1321"/></g></g></g></g><defs><clipPath id="pf16a518ca3"><path d="M7.2 7.2h357.1V244H7.2z"/></clipPath></defs></svg>