<svg xmlns="http://www.w3.org/2000/svg" xmlns:xlink="http://www.w3.org/1999/xlink" width="316pt" height="374" viewBox="0 0 316 280.5"><defs><style>*{stroke-linejoin:round;stroke-linecap:butt}</style></defs><g id="figure_1"><path id="patch_1" fill="none" d="M0 280.5h316V0H0z"/><g id="axes_1"><g id="PatchCollection_1"><defs><path id="m3ef3c401ac" stroke="#0c1321" d="m295-43-.3.3-1.6.6-8.7 3-4.2 1.6-1.8.7-1.5.8-.8.5-1.1.9-.7.6-1.2 1.3-1.2 1.4-2.4 3-.8 1-1.4 1.3-2.3 1.6-2 1.1-2.2.8-1.3.3-3.6.6-2.5.4h-2l-2.4-.1h-3.3l-1.8.3-6.3 1.3-2.4.3-1.4.1h-1l-3.9-.2-2-.1-1.1-.2-1.2-.2-1.3-.4-1.2-.4-2.1-1-1.6-.8-1.8-1.3-1-.9-3-3-1.2-1.1-2.6-2-8.7-5.7-2.8-1.7-2-1-1.6-.7-1-.5-1.9-.5-1.8-.3-3-.3-4.8-.4-2.3-.3-2-.4-1.9-.8-1-.7-1-.9-1.3-1.4-1.5-1.5-1.4-1-1.6-1-1.9-.7-1.3-.4-1.4-.4-1.6-.3-1.7-.3-3-.3-5.5-.3-2.5-.3-2.3-.5-.6-.2-.8-.3-.9-.5-.9-.5-.8-.5-1.5-1.2-3.3-2.8-1.4-1-2.2-1.7-1.6-1-1-.4-2-.7h-.6l-1-.3-1.4-.2h-1.8l-1.3.2-1.5.4-1.5.6-3.6 1.5-3 1.2-1.9.6-2.7.8-1.9.5-2.2.4-1.3.2-3.8.3-1.2.1-1.7.4-1.3.3-3 1-4.1 1.1-1.6.5-1.4.6-.8.5-1 .7-.5.5-.9 1.1-.8 1.2-2 3.3-1.4 2-1.1 1.2-1.4 1.3-1.1.9-1.6 1.1-1.8 1.3-1.4.9-1.1.6-1.8.9-1.1.4h-.5l-.3-.3-4.3-3.8-4.3-3.5-.5-.5-1.3-1.3-1-1.5-1-1.4-1.3-2-1.5-2.9-2-4.5-1.2-2.7-.6-1.7-.5-2-.5-2.1-.5-2.7-.1-1.4-.2-2.1v-1.6l.2-1.5.1-1.4.3-1.4.3-1.6.4-1.2.6-1.3.3-.6.8-1.4 1.6-2.2 1-1.3 1.2-1.2 1.5-1.3 2.2-1.9 1-.8 6.5-6 2.4-2.4 3-3 2.7-3 1.2-1.4 1-1.2 1.5-2.1 1-1.7 1.3-2.3 1-2 1-2.2 1-2.4.5-1.5.6-2 .4-1.4.4-2.4.1-1.2v-3.2l-.3-1.2-.3-1.4-.2-.6-.8-2L78-142l-.8-1.4-3.6-5.5-1.8-2.9-1.7-3-.9-1.5-1.9-4.3-1-2.6-.7-2-1-3.5-.5-1.3-.8-1.8-1-1.6-.6-.7-.6-.6-.6-.5-1-.8-1-.6-1.4-.8-4.6-2.4-2.2-1.3-1.8-1.5-2.1-2-2.4-2.7-1.4-1.7-1.1-1.5-1-1.4-3.6-5.9-1.5-2-1.2-1.4-.6-.7-3-2.5-1.3-1.2-1.5-1.8-2.7-3.6-2.6-3.2-.6-1-.5-1-.4-1.3-.2-1.5v-2.1l.3-2.3.6-2.3.8-2.3 1-2.3 1.2-2.1 1-1.5 1.2-1.4 1-1 2-1.8 1.7-1.3 2.2-1.7 1.9-1.3-.3.5-.4.8-.5 1-.4 1-.3 1.2-.2 1v1.8l.3 1.8.4 1 .4.9 1 1.3.4.6.9.8 1.4 1.2 2.5 1.7 3.6 2.3 4 2.4 1.8 1 1.5.7 4 1.6 1 .5 1 .6.4.5 1 1 .8 1.3.7 1.6.7 1.6.8 1.7 1 1.5 1 1.4 1.3 1 .7.3 1 .3 3 .4 1.1.3 1.2.3 1 .5 1.1.6 1.1.7 4 3 1.6 1 1 .6 1.5.7 1.6.5.9.1 2.7.2 2.7.4h2.8l1.3-.1 1.4-.3 2-.5 5.4-1.8 1.6-.5 1.3-.2 2-.2h2.6l1.9.3 1.4.2 1.4.4 2.3.7 5.5 2.2 3 1 4.1 1.3 1.8.5 2 .5 3.9.7 2.7.3 2 .1h1.8l2.4-.1 1.1-.1 2.3-.4 1.3-.3 1.8-.6 1.5-.5 1.9-1 2.1-1.3 1.9-1.5 1.6-1.5 1.6-1.9 1.4-2.2 1-2.3.5-1.9.3-2.4-.2-2.6-.2-1.4-.3-1.4-.4-1.8-.8-2.7-1.3-3.6-.5-1.7-.5-1.9-.3-2v-2.4l.2-1.4.7-2.4.6-1.6.8-1.6 1-1.6 1-1.3 1.3-1.5 1.1-1 1.2-.9.5-.3 1.7-.9 2.7-1.2 1.4-.7 2.5-1.5 1-.7 1-.8 1.6-1.3 5.2-5.4 1.9-1.7 1-.9 1-.7 1.4-.8 1-.3 1.5-.3 1.3.1 1.3.6 1 .7.7.7.7 1 .5.8 1.6 2.9.7 1 .9 1 .9.3h1l.8-.2 1.4-.6 5-3.3 7.7-4.9.9-.4v1.8l-.3 10.5v3.3l.2 2.6.1 2.1.2 1.5 1 6.2.1 1.5v2.4l-.6 6.5v4.5l.1 2.6.3 2.5 1.3 8.6.2 2 .5 6.4v2.8l-.2 2.6-1 6.7-.2 2-.1 1.5v1.6l.2 2.5.2 1.3.5 1.3.6 1.2.7 1 1 1.5 1.2 1.3 1.4 1.2 1.4 1 2.8 1.8 1.3.8 1.4.8 4.7 2.3 2.6 1.1 2 .7 3.4 1 2 .5 1.8.3 1.6.1h1.5l2.1-.2 2-.5 1.3-.4 1-.5 4.2-2.2 1.8-.8 2.3-.9 8.4-3 1.8-.7 1.9-.5 1-.2 1-.1h.3l.5.1.6.3.6.4.3.4.4.6.2.5.2 1v1l.1 1v1.7l-.4 4.7-.5 9.4-.3 2.3-.3 2.4-.3 1.6-.5 1.7-.8 2-2.8 5.6-1.5 3.4-.4 1.2-.6 2-.5 1.7-.4 1.8-.4 2.2-.3 2.2-.3 2.4-.1 2.5-.2 4.8v5.3l.2 3 .4 5.6.6 6.6 1 9 .8 5.8.5 3 .6 3 .7 2.8.9 2.7.7 1.7.7 1.5 1 1.9.8 1.3 1.5 2.1 4.7 6.6.7 1.1.1.4h-.1"/></defs><g clip-path="url(#p8014938152)"><use xlink:href="#m3ef3c401ac" y="280.5" fill="#0c1321" stroke="#0c1321"/></g></g></g></g><defs><clipPath id="p8014938152"><path d="M7.2 7.2h301.6v266.1H7.2z"/></clipPath></defs></svg>