<svg xmlns="http://www.w3.org/2000/svg" xmlns:xlink="http://www.w3.org/1999/xlink" width="424.3" height="374" viewBox="0 0 318.2 280.5"><defs><style>*{stroke-linejoin:round;stroke-linecap:butt}</style></defs><g id="figure_1"><path id="patch_1" fill="none" d="M0 280.5h318.2V0H0z"/><g id="axes_1"><g id="PatchCollection_1"><defs><path id="m3c3a038f61" stroke="#0c1321" d="M297.2-164.2h-.1l-.5.7-1 1.3-1.4 2-1 2-.8 1.7-.5 1.2-.4 1.1-.3 1.4-.2 1-.4 2.1v1.4l-.2 2.5v4.1l.2 1.4.2 1.9.4 2.6.1.9v3.4l-.3 4.2v.9l-.3 1.2-.2.8-.4 1.1-.2.4-.7 1.3-.6.8-.7.7-.7.7-1.4 1.2-1.2.8-1.7 1.1-1.8 1-1.2.6-5 2.6-1.5.8-1 .6-2.8 2-7.7 5.7-1.7 1.2-2.9 2-2 1.3-3.3 2.2-9 5.3-1.5 1-.1.1-2.5 3.1-2.1 3-2.5 3.6-1.7 2.8-1.4 2.4-1 1.9L229-71l-1 2.2-.8 2-.6 1.3-.4 1.2-.2 1-.2 1-.1.9-.1 1.5.1 2 .3 2.3.8 3.9.7 3 1 4.2.4 2.5.1 1.6v1.6l-.2 4v1l.2 2.9v2l-.1 1.3-.2.9-.2.9-.4 1.5-.4 1-.6.9-.6.6-.5.5-.4.3-.5.3-.7.4-1.4.5-.6.2-1 .2h-.7l-.8.1h-.7l-.9-.1-1.1-.3-.9-.2-1-.4-.8-.4-.5-.3-.9-.6-2.2-1.8-1.1-.9-.5-.3-.5-.2h-.4l-.3-.1H207l-.8.3-2 .9-1 .4-.7.2-.8.2-1.4.1h-.8l-1.4-.5-1.6-.8-.9-.6-1.2-1-4.3-3.8-1.8-1.5-3.2-2.5-3-2.4-2-1.4-1.8-1.2-2-1.2-3.2-2-2.6-1.6L168-45l-2.5-1.8-2.3-2-9-7.8-2.6-2.4-2.4-2.2-.7-.6-.4-.3-1-.5-2-.7-3-.7-1-.3-1.7-.7-1.1-.5-1.5-.8-1.5-1-5.4-3.6-2.4-1.3-3.6-2.3-1-.5-1.2-.5-1.2-.5-1.4-.3-1.2-.2-1.1-.1h-1.3l-1.1.1-1 .2-1.5.5-3 1.4-1.2.4-1.3.2-1.5-.1-1.4-.5-1.1-.5-1.1-.6-1.3-.7-5.2-3.2-1.3-1-1.2-1-2.4-2-1.3-.9-1.4-.6-1.7-.5L80-87 74-88.4l-1.7-.3-1.6-.3h-3.1l-1.8.2-1 .3-1 .4-1.1.4-.7.4-1.3.8-1.5 1.1-3.3 2.8-.8.6-.8.4-.6.3-.5.2h-.9l-.5-.4-.3-.4-.3-.8-.8-3.3-.2-.7-.4-.6-.5-.4-.4-.1h-.5l-.7.1-2.4 1-1 .3H43l-.6-.2-.3-.1-.3-.3-.3-.5-.2-.4-.1-.6-.7-2.9-.2-1.2v-1l.1-1 .3-1 .2-.8 1.2-3 .2-.6.5-2 .5-1.8.2-1.1.1-1v-1.1l-.2-1.2-.3-1.7-.5-1.8-.6-1.5-.6-1.2-.8-1.2-.7-1-.8-.8-.9-1-1-.8-1.1-.9-1.4-.8-1.2-.6-1.2-.6-1.7-.6-7.7-2.5-1-.4-.7-.3-.2-.3.3-.1.2-.4.2-.7.3-1 .9-3.3.7-2 .3-.8.5-1 1.4-2.5.7-1 1-1.5 1-1.1 2.7-2.8 1.3-1.4.5-.6.7-1 .2-.4v-.9l-.1-.3-.4-.2-1.3-.4-.4-.2-.2-.2-.2-.2.1-.3.3-.3.4-.4.4-.3 2-1.4.3-.3.3-.3.3-.6.1-.8.3-2.6.1-.8.3-.7.2-.5.3-.3h.2v.2l.5.2 1 .2h1.2l4.5-.4H47l1 .2 1.3.3 2.2.6 1.3.3 1.3.2h2.8l3.3-.4 1.8-.4 1.1-.4 1-.4 1.8-1 3.2-1.9 1.4-.8 1.7-.8 1-.3 1.3-.4 1.7-.4 2-.3h1.3l1.5.3 4 .9 7.8 1.3 2.6.4 2.3.2h3.4l1-.2.8-.1 1-.3.9-.4 1-.5 1.2-1 1-1.4.9-1.5.6-1.6.3-1 .3-1.4.5-2.9.5-3.8.3-1.6.4-1.6.4-1.2.4-1.2.6-1 .4-.7.9-1 1-.9 1-.5 1-.3h.6l.6-.2h.9l.7.1 2.6.7.6.2h2.4l1-.5.4-.4.3-.3.4-.8.2-1 .2-1v-1.9l-.1-.9-.3-1-.2-.7-.8-1.9-1-1.8-1.3-2.3-1.9-2.8-.7-1.2-.4-1-.3-.9-.2-.8-.2-1.3v-1.4l.3-1.2.3-1 1.2-3 .3-1 .5-1.8.2-2 .1-1 .2-2.5.2-6.1.2-2 .3-3 .4-2.5.3-1 .3-1.2.5-1.3.6-1 .7-1 .8-.8.8-.6.8-.5 1-.4 1-.2.8.2.8.4.7.7.8 1.4.6 1.4.3 1 .8 2.9.5 1.4.4 1.1.5 1.1.6 1.2.5.9.5.7.7.9.8.8.9.7 1 .6 1.3.6.9.1h1.4l.5-.2 1.7-1 .5-.2 2.5-.7.5-.1.6-.5.6-.6.6-.8.4-.8.7-1.6 1.2-3.4.8-2.1.7-1.7.7-1.4.8-1.3.8-1.1 1.9-2.3.5-.9.8-1.5.7-1.6 1.1-3.5.6-1.7.7-1.4.6-1.2.9-.8.5-.2h.5l.8.3 1 .8.5.6.5.6.4.7 1.3 2.8.8 1.5 3.8 6.7 1.2 2.4.7 1.5 1 2.5.6 2 .3 1.1.1 1.9v1.9l-.2 2-.3 2-.4 2-.6 1.9-.6 1.6-.6 1.5-.7 1.5-.9 1.4-1.6 2.5-.6 1.1-.5.9-.3.8-.2 1.1.1 1.2.7.9.4.3 1.1.3h1.3l1.3-.3 1.3-.6 1.4-1 1.9-1.5 3.8-3.1 1.2-1.1 2.6-2.7 1-.8 1.6-1.4 1.2-.9.8-.5.9-.6 1-.4 1.3-.5 1-.1h.5l4.8.4.9.1 1 .3 4.7 1.7 1.6.6 3.4 1.9 1.2.5 1.2.6.9.3 1.4.3 1.3.1 1.4-.3 1.3-.5 1.6-.8 1.1-.4 1.2-.3h1l.8.2 1.3.5 1 .5 1.3.6 2.3 1.4 1.2.6 1.6.7 1.5.5 4.2 1.3 3.1 1 1 .3 1.5.3 1.2.2 2 .2 4.6.4 1.1.2 1.6.3 1.7.7 1.4 1 1.3 1.3.8 1 .7 1 .8 1.3.7 1.3 1.3 2.8.9 2 .7 2 .7 2 .3 1.3.3 1.7v1l.2 3.5.1 1.5.2 1.2.3 1.1.3 1 .5 1.1.9 1.2 1 1 1.2 1.2 1.4 1 1.3.9 4.1 2.6 1.8 1.2 1.8 1.4 1.1 1 1 .8 3.3 3.4 1.4 1.4 1 1 .4.6"/></defs><g clip-path="url(#pc1100c7764)"><use xlink:href="#m3c3a038f61" y="280.5" fill="#0c1321" stroke="#0c1321"/></g></g></g></g><defs><clipPath id="pc1100c7764"><path d="M7.2 7.2H311v266.1H7.2z"/></clipPath></defs></svg>