<svg xmlns="http://www.w3.org/2000/svg" xmlns:xlink="http://www.w3.org/1999/xlink" width="474.5" height="374" viewBox="0 0 355.9 280.5"><defs><style>*{stroke-linejoin:round;stroke-linecap:butt}</style></defs><g id="figure_1"><path id="patch_1" fill="none" d="M0 280.5h355.9V0H0z"/><g id="axes_1"><g id="PatchCollection_1"><defs><path id="m2de0c44e33" stroke="#0c1321" d="M333.1-135.3h-.3l-.5.4-.4.6-.3.6-.2.7-.3 1-.2 1-.6 4-.2 1-.3 1-.5 1.3-.6 1.3-.8 1.3-.8 1-.8 1-1.4 1.4-1.2 1-.8.7-1.5 1.2-3.4 2.5-4 3.3-.9.6-.8.5-.6.2-.8.3-.8.2h-2l-.8-.2-3.1-.8-1.2-.2-1.4-.3h-.8l-1-.1h-1.5l-.7.1-.7.2-.7.1-.7.3-.7.3-1.1.6-.5.4-.4.3-.7.7-.5.5-.5.7-1.9 3-1 1.5-.8 1-1 1-1.3 1.3-1.6 1.5-1 .9-2.8 2-1.7 1.3-1.4 1.2-3.6 3.3-1.4 1-1 .7-1.3.5-1.5.5-1 .2-1.1.2-1 .2h-.9l-3.8.2-1 .1-1 .2-1.5.4-.7.3-.6.3-.6.4-.5.4-.5.4-.4.6-.3.5-.4.7-.2.4-.2.8-.2 1.4-.1 1.5v1.6l.2 5v.5h-1.1l-2 .1-4.4.2h-2.7l-1.7-.2-4-.2-1.2-.1-1-.3-1-.4-1.1-.4-1-.4-2.4-1.2-1-.5-1-.8-.4-.3-.7-.7-.5-.7-1.1-1.6-.7-1-.7-1.5-.4-.7-.5-.6-.8-1-1-.9-.9-.8-.8-.7-1.4-1-1.2-.7-1.5-.9-1.7-.9-1.7-.7-1.4-.5-1.2-.4-1.4-.4-1.4-.3-1.5-.2-1.3-.1h-2.9l-3.6.2-3.5.1-5.2.4h-8.5l-.8.1-.7.2-.5.2-.6.3-1 .7-1.8 1.6-1.3 1-1.5 1-1.4.9-1.6 1-1.6.8-1.6.7-1.7.7-1.4.4-1.4.2-.8.1-7.4.7h-10.1l-1.8.2-1 .2-.8.1-1.5.5-1 .4-1.2.5-1.6.9-1.7 1-1.7 1.4-.7.6-1 .9-1.2 1.3-.8.9-.9 1.1-1.1 1.7-1.6 2.3-2.3 3.8-2 3-1 1-.9 1.2-1.4 1.7-1.2 1.3-1.2 1.3-3.1 3.2-5.2 4.9-3.5 3.4-2.5 2.5-3.9 4.2-.9.9-1 1-1.5 1-.7.4-.8.5-1.8.9-2 .8-1.4.5-1.6.5-7.7 2-3.7 1-2.3.9-2 .7-1.2.6-.3.2-.1.1h-.2v.1H64l-.5.2H62l-.6-.3-.7-.4-.7-.6-.8-1-.6-.8-.6-1-.7-1.4-3.3-7-4-9.3-1-2.4-.7-1.6-.6-1.6-.5-1.6-.4-1.5-.7-3.7-.3-1.1-.3-1-.4-1-.4-.9-.8-1.2-1-1.1L41-62l-2.9-3.5-.5-.6-1-.9-3.9-3.3-1.5-1.5-.7-.8-1.2-1.3-1-1.5-.6-.8-.6-1-.8-1.5-.6-1.4-.4-1.1-.5-1.3-1.4-5-.6-1.7v-.3l.2-.3 1.8-2 .8-.9 1.4-1.6 1-1.3.8-1.1.8-1.3.5-.9.7-1.5.6-1.8.1-.4.1-.5.3-1.9v-5.5l-.6-6.8v-6.3l.3-1.7.4-1.3.4-1.2.5-1.4 1.8-4.5 1.5-3.9 2.3-6.5 2-6.4.7-1.9 1-2.7 2-4.4 1.2-2.9 1-2.2.6-1 .8-1.4.9-1.3 1-1.2.9-1.1 1.3-1.2 1.4-1.2 1.5-1 1.5-.9 1.6-.7 1.7-.7 1.8-.4h3.1l1 .1 1.2.2 1.2.3 2.5.6 3.5 1 2.4.6 10.6 2.4.9.2h2.4l.7-.3.5-.3.4-.2.5-.5.8-.8 2.8-3.4 1-1 .4-.5.8-.6.5-.4.7-.3.5-.2.5-.2.8-.1h1.5l2.4.2h4.1l.7-.2 1.4-.3 1.1-.4 1.2-.5.7-.4 1-.5.7-.5 1.2-1 1.1-1 1.2-1.2 1.4-1.6.6-.7 1-1.4 1-1.5.5-1.1.4-1 .4-1.2.2-.8v-2.9l-.2-.9-.3-.9-.3-1-.6-1.2-.3-.7-.7-1.1-2.7-4.1-1-1.7-.6-1.2-.5-1.2-.7-1.9-.4-1.5-.3-1-.3-1.6-.2-1.3-.2-1.3-.2-2.3-.2-2-.2-3.2-.1-1.4-.2-1.6-.4-1.6-.6-2.4-.6-2-.8-2.6-.7-1.8-1-2.9-2-4.3-.6-1.6-.2-.7-.1-1v-1.6l.3-.8.3-.7.6-.8.7-.7 1-.8 1-.6.8-.4 1-.5.9-.3 1.5-.5 1.8-.4 1.7-.4 1.3-.2 1.4-.2 2.2-.2.3-.1h.5l1.2.6 2.5 1.2 2 1 1 .6 1 .7 1 .7.6.4.7.6.5.5.6.7.9 1.3 1.7 3 .6 1.1.6 1 1.1 1.4.7 1 2.2 2.4 2.4 2.6 1.8 2 3.3 4 .7.7 1.3 1.4.8.8 1.1 1 2 1.6 1 .8 1 .6 1 .6 1.2.5 1.3.6 1 .4 1.7.6 1.2.2.8.2h1.9l.5-.1.4-.1.8-.4.6-.3 1.3-1 1-1 2-2 1.8-1.8 1.2-1.1 1.4-1 .7-.5.4-.3 1.2-.6 1.2-.5 1.6-.5 1.6-.3 1.6-.3 1.6-.2h6.2l2.8.1 8.9.7 2.1.2 1.4.3 1 .2 1.7.6 1.4.5 1.2.5 4.3 2.1 1.7.9.8.5.8.9.6.7.5.8.2.3.2.7.2.7.1 1.2v2.3l.3 1 .3.8.7 1 1 1 .5.9.5.8.5 1.2.2.9.5 1.8.8 3.1.3 1 .4 1 .5.8.3.6.5.6.5.7.7.7.7.6.7.5 1 .5 1.3.6 1.4.2h1.6l1-.4 1.1-.4.7-.3 1-.5 1.3-.8 2-1.3 2.2-1.5 1.5-1 1.2-1 .6-.5 1.3-1.3.7-.9.7-.9 1.3-2 .6-1 .7-1.4 1-2.2 1-3 .5-1.6.5-2.4.2-.8.2-.4.4-.7.6-.8.2-.3.8-.8.8-.8 1-.7 1.7-1.2 1-.6.7-.3.8-.3.9.2.5.5.4.7.3.7.2.9.8 3 .6 1.6.3.8.6 1 .4.5.5.4.8.4h2.1l3.7-.5h2.7l.5.3.4.3.2.4.4.5.9 2.1.8 1.9 3.1 6 .9 1.5.6 1 .6.9.7.9.8.7.6.6.7.5 1.3.5 1 .3 3.8.6 1 .3 1 .4 1 .7.8.8.6.7.6.7.8 1.2 1 1.6 2.3 3.8.7 1.1 1.8 2.4.6 1.2.7 1.4.5 1 .6 1.5.5 1.4.5 1.6.3 1.3.8 3.8.8 3.2.2 1v2.9l-.2 1.2-.5 2.3-.2 1.7-.1 1v2.4l.3 1 .2 1 .4.8.3.7.7 1.2.9 1.4 2.1 3.3.9 1.4.7 1.3 2.1 4.2.9 1.5 1.8 3.2 1.2 2.3.6 1.1.5 1.3.4.9v.3"/></defs><g clip-path="url(#p04771c7abc)"><use xlink:href="#m2de0c44e33" y="280.5" fill="#0c1321" stroke="#0c1321"/></g></g></g></g><defs><clipPath id="p04771c7abc"><path d="M7.2 7.2h341.5v266.1H7.2z"/></clipPath></defs></svg>