<svg xmlns="http://www.w3.org/2000/svg" xmlns:xlink="http://www.w3.org/1999/xlink" width="288.2" height="374" viewBox="0 0 216.1 280.5"><defs><style>*{stroke-linejoin:round;stroke-linecap:butt}</style></defs><g id="figure_1"><path id="patch_1" fill="none" d="M0 280.5h216.1V0H0z"/><g id="axes_1"><g id="PatchCollection_1"><defs><path id="m9d5f2eabdc" stroke="#0c1321" d="m165-198-.3.4v2.1l.1 1.4.3 1.1.5 1.1.7 1.4 1 1.3.8 1 .7 1.1.3.5.3.5.2.6.2.5.1.6v1.7l-.1.7-.3 1.2-.8 2.5-.2 1.2-.1 1.3v2.9l.2 1.5.3 1.5.4 1.5.3.8.5 1.5.6 1.6.7 1.5.8 1.5.9 1.4 1 1.2 1 1.2 1.3 1.2 3.6 3.5 1.3 1.2 1.3 1.4 1.2 1.3 1.1 1.4 1.2 1.4 1 1.4 1 1.5 1 1.4.8 1.5.6 1.5.4 1.4.2 1.4v4l.3 1.2.2.6.2.3.8 1.1 1.1 1 .8.5.7.4.7.3.5.1-.1.4-.6 1-.8 1-1.1 1.4-.6 1-.3.7-.3.7-.2 1.2v2.4l.4 1.3.6 1.5.7 1.6.4.8 2 3.4 1 1.9.5 1.3.4 1 .5 1.3.3 1 .3 1 .2.8v2.2l-.1.5-.2.5-.4 1-.7.8-.7.7-.9.6-.9.6-2.4 1.3-.8.5-1 .6-2 1.4-.7.4-.6.4-1.6.7-4.6 1.8-.7.4-.5.3-.6.4-.4.4-.7 1-.6 1-1.3 2.3-.5.8-1.1 1.7-.7.9-.6.6-.3.3h-.2l-.2.2-.4.3-.8.8-1 1-1 1-.7 1.1-.4.6-.7 1-.7 1.4-.6 1-.5 1.2-.7 1.8-.6 1.8-.7 2.5-.3 1-.2 1.4v3.1l.2 3v1.4l-.2 1-.2 1.2-.4 1-.6 1.3-1 1.1-.6.7-1.6 1.8-2.7 2.7-1.4 1.2-.6.5-.6.3-1 .5-1.7.7-.9.3-2.7 1.4-1.3.6-1 .3-1 .3h-2.9l-.7-.2-.9-.4-.8-.4-1-.7-2-1.5-1-.9-.8-.5-.8-.4-1.1-.4-1.1-.2-2.5-.5-1.3-.1-1.3-.1h-7.5l-.8.2-1.3.2-2 .5-.9.2-1.3.5-.9.4-1 .5-1 .6-1.7 1-4.3 2.7-1.5 1.2-3.2 2.5-1.3 1-1 .6-.7.3-.5.2-1.2.3h-2.2l-1.2-.3-.8-.5-.7-.7-.4-.6v-.5l.3-.3v-1l-.2-1.1-.6-1.3-.6-1.2-.7-1-.8-1-.7-.8-1-1-1-.7-1-.6-1.2-.4-2.8-.6-1-.4-1.1-.4-.8-.5-1-.6-.7-.7-.8-.8-.6-.9-1.2-1.7-.7-.7-.5-.4-2-1.2-.5-.3-.8-.8-1.7-1.6-.8-.7-1.1-.7-1-.4-.9-.4h-2l-1.2.3-.4.2-.8.4-.6.4-.4.3-.8.7-.8 1-.8 1-.7 1.1-.8 1.4-.6 1.1-.8 1.7-.6 1.6-.4 1.4-.3 1.2-.2 1-.9 6-.3 1.5-.2 1-.5 1.8-.4 1-.6 1.6-.5 1-.5 1-.5 1.1-.5.6-.4.6-.8.9-.7.5-.6.4-.6.3-1.1.2h-2l-3.4-.5-1.8-.3-1-.1-1.4-.3-1-.3-1.2-.4-1-.4-.5-.2-1-.6-1-.6-1.3-1-.8-.7-1-1-.7-.7-.6-1.1-.4-1.2v-1.2l.2-.8.4-.8.7-1 .9-1 1-.8 1-.8L26-36l2.4-1.5 1.2-.8.3-.3 1-1 .6-.9.3-1v-1l-.5-1-.7-1-1-.8-1-.9-1.2-.7-1.2-.5-.4-.2-1.8-.3-4.3-.6-.8-.2-.6-.2-1-.7-.6-1-.2-1.1V-53l.3-3.5.1-1.5v-2.7l-.1-1-.2-.4.4-.2 6.9-5.2 4.9-3.9 3.2-2.5 2-1.7 2-1.6 1.3-1.2 1-1 1-1 .5-.6.9-1 .6-1 .6-.8.4-.8.5-1.2.3-.9.2-1.2.1-1.3v-1.5l-.1-1.5-.2-1-.4-2.5-.3-1.4-.4-1.7-.5-1.6-.5-1.7-.7-2.1-.6-1.7-.4-1-.8-2-.9-1.7-.4-.8-.9-1.3-1.8-2.5-.6-1-.2-.4-.4-.8-.3-.8-.2-.8-.2-1-.2-1v-1l-.1-1.3v-2.3l.6-5.8.2-1.2.2-1 .3-.7.4-.8.6-1 .7-1 .6-.7 1.9-2 .8-.8.9-1 .8-1 .7-1.1.6-1.3 1.4-3 .7-1.3.7-1.3 1-1.7.9-1.3 1-1.4 1.1-1.4 1.2-1.3 5.5-5.9 2.2-2.4 1-1.3 1-1.2 1-1.3 3.1-4.6 1.3-1.8 1-1.3 1-1.2 1-1.1L70-182l1-1 3.6-4 1.5-1.4 1.6-1.5 1.3-1.2 1-.7 1.3-1 1-.7.7-.4.8-.4.7-.3 1-.2 1.1-.1 1.3.3 1.3.6 1.3.7 4.1 2.8 1.4.8 1.3.7 1.2.4h1l.8-.2.6-.6.4-.7.2-1.2v-2.8l-.4-3.1-.1-.9v-2.3l.2-1.3.3-1 .4-1.5 1-2.8.3-1.3.3-1.3v-1.2l-.2-1-.6-.9-.9-.7-1-.5-1.4-.5-1.4-.5-1.4-.3-1.5-.2-2.1-.2-3-.1-.8-.1-.7-.1-1-.3-1-.5-.9-.5-.9-.8-.9-.8-.8-1-.9-1-.8-1.1-.7-1.2-.8-1.6-.8-1.7-.6-1.6-.4-1.7-.3-1.7v-1.7l.4-1.6.6-1.6.8-1.6 1-1.6 1-1.5 1.1-1.6 2.5-3.2 4-4.9 7.5-9.2.8-1 .2-.3v.2l.6.5.5.5.6.4 1 .7.9.4 1.3.7 4.6 2.3 2.4 1.3 5.4 3 1.6.9 2 1.2.9.6 1.7 1.2 1.5 1.3 1.3 1.2 1.3 1.5.3.4.7 1.1.5 1 .3.9.3 1.3.1 1v1.6l-.3 1.1-.6 2-.2 1.4-.3 1.8v4.7l.3 1.4.2.8.2.5.5.9.6 1 .6.8.6.7 1.1 1 2.2 2 1.3 1.1 1.5 1.2 3.1 2.2 2 1.3 7.3 4.7 2 1.3 1.8 1 1.4.7 1.8.9 1.5.6 2 .8 1.3.5 1.7.5 1.3.4 1.6.4.7.2h.3"/></defs><g clip-path="url(#p543f9a687a)"><use xlink:href="#m9d5f2eabdc" y="280.5" fill="#0c1321" stroke="#0c1321"/></g></g></g></g><defs><clipPath id="p543f9a687a"><path d="M7.2 7.2h201.7v266.1H7.2z"/></clipPath></defs></svg>