<svg xmlns="http://www.w3.org/2000/svg" xmlns:xlink="http://www.w3.org/1999/xlink" width="373.1" height="374" viewBox="0 0 279.8 280.5"><defs><style>*{stroke-linejoin:round;stroke-linecap:butt}</style></defs><g id="figure_1"><path id="patch_1" fill="none" d="M0 280.5h279.8V0H0z"/><g id="axes_1"><g id="PatchCollection_1"><defs><path id="m953726db91" stroke="#0c1321" d="m237.6-243.8 5 6 3.9 4.8 2.5 3.3 2.4 3.2 2.2 3.2 1.2 1.6 2 3.2 1 1.6.9 1.6.7 1.4.5 1.4.5 1.4.1 1.3-.1 1.2-.3.8-.8 1-.8.8-.8.6-.8.4-.8.5-.5.2-.8.3-.7.2-1 .2-1.3.2H250l-.8-.1-4.8-.8h-.9l-.8.1-.4.2-.4.2-.7.6-.4.5-.7 1-.6 1.3-.4 1.3-.4 1.4v.8l-.1.8-.3 4.4-.1 1.4v1.6l.1 1 .4 1.7.6 1.5.6 1.6 1.5 2.8h-.2l-.4.2-.5.4-.7.5-1 1-1.3 1.1-1.2 1.2-1.3 1.3-2.5 2.7-2.1 2.3-3.8 4.2-1.2 1.3-1.9 1.9-1.2 1-2.4 1.9-1 .7-1.2.7-1.1.6-1.9 1-1.6.7-5.5 2.3-.4.2-.5.3-.8.7-.4.6-.2.5-.2.6v4l-.2.4-.2.4-.2.2-.3.2h-.4l-.4-.2-.3-.3-1.2-1.2-2.7-2.3-1.7-1.6-2.9-2.4-.5-.3-.4-.2h-.1l-.5.1-.3.5-.1.5v.6l.5 2.2.1 1.2v.7l-.2 2.2v1.5l-.1.8-.2.7-.2.8-1 2.7-.6 1.3-.4 1.2-.3 1.3-.5 2.3-.4 1.1-.4 1-.6.9-.6 1-.7.9-2.6 3-.8 1.2-.4.7-.4.7-.4 1-.1 1 .2 1.1.6 1.2.7 1.1 1.8 2.5 1 1.3 1 1.4.8 1.5.9 1.5.8 1.5.7 1.5 1.8 4.4.7 1.2.8 1.2 1.1 1.7.7.7.5.6 1.6 1.6.6.6.3.4.5.8.3.6.2.5.2.8v1l-.1.9-.2.5-.2.5-.4.8-1 1.6-.4.6-.2.6-.1.5v1.4l.2.6.5 1 .4.6.4.7.9 1.2 4.5 5.8 1.3 1.8.4.7.4.7.4.6.2.7.2.8v.8l-.2.9-.3.8-.2.5-.5.8-1 1.5-1 1.2-1.3 1.7-3.4 4-.7.8-1 1.4-.7 1.5-.4 1.5v2.7l.3 1.1.3 1.4.3.9.2.2-.5.2-3.8.6-1 .2-1.6.4-1.5.4-.4.2-1.4.7-.5.2-.7.1-1.3.2h-.6l-.7.3-.8.3-.6.3-.5.3-1 .6-.8.5-.9.8-1 1-2.4 2.6-1 1L173-31l-1.4 1.2-1.4 1-1 .5-3.2 2-1.4.8-1.7 1.1-3.3 2.6-1.4 1-.7.4-1 .6-.9.4-.7.2h-.9l-.7-.1-.6-.2-.2-.3-1.5-.7-17.6-9.5-3.5-1.8-3.5-1.7-1.7-.7-1.7-.7-1.6-.6-1.7-.4-1.7-.2h-1.5l-1.4.2-1.7.4-1.7.5-1.7.5-1.7.6-6.9 2.7-3.4 1.3-1.7.5-1.8.5-1.7.4-2 .2-1.5.1-4.8.2h-1.5l-4.2.5H76l-1.3-.5-.8-.6-.8-.8-.6-1-.6-1-.7-1.4-.6-1.5-.5-1.5-2.3-6.5-.6-1.6-.7-1.7-.8-1.6-.7-1.3-1-1.2-1-1-.5-.4-.7-.4-1.4-.6-.7-.2-1-.2-1-.3-1.4-.2-1.4-.2-1.2-.1-1.7-.2h-5.6l-2 .1-1.3.2h-.4l-.4.2-.1-.4-3-7-1.7-3.7-2-5-1.3-3.4-1-3.2-.5-1.3-.6-2.1-.2-1-.3-1.4-.2-1.4v-3.4l.2-1 .3-1.2.2-1 .6-1.2.7-1.7.5-1.2 3-6.1 3.7-8 .4-1.2.4-1.1.1-.6v-2.1l-.6-1.1-.5-.6-.5-.7-.6-.6L38-117l-1.6-1.4-4.3-3.3-1.4-1-3.6-2.4-1.1-.9-1-.8-.8-.7-.7-.8-.6-.6-.8-1.2-.7-1.2-.5-.7-.5-1.1-.3-.7-.2-.7-.3-1-.2-1.1v-1l-.1-.8v-1.8l.2-.8.2-.8.6-1.2.8-1 1.6-2 .7-1 .6-1.1.2-1.1v-1.3l-.2-.8-.3-.7-.4-1.2-1.5-3.1-.4-1-.3-1-.3-1.4v-.8l-.1-.8v-1.5l.1-.2h.4l3-.9h.6l1.2-.2h1.3l1.2.2 1 .3 2.4 1.1 1 .4 1 .3h1l.9.1h3.5l.3.2.5.2.7.4.5.4.6.6 1.6 2 .5.5.6.4.6.4 1 .2h2.5l1.3-.3 1.4-.4 1.4-.4 2.6-1 2.3-.9 5.4-2.1 3.3-1.5 1.9-.8 4-2 1.5-.8 1.3-.9.5-.4.8-.8.8-1.1.8-1 .7-1.3.7-1.3.3-1 .2-1 .1-.7v-.8l-.4-1.2-.8-1.2-1-1.2-1-1.2-1.2-1.2-4-3.5-1.2-1.3-1.2-1.3-1.1-1.3-.8-1.2-.7-1.2-.6-1.2-.6-1.4-.7-1.6-.6-1.6-.6-1.6-.6-1.7-.5-1.7-.4-1.6-.3-1.6-.3-1.7-.2-2.9-.1-1.7-1.2-7-.1-1.8-.4-5.8v-6.4l.2-3.5.2-2.4.1-.9.1-.2.4-.6 3-3.5 1-1 1.1-1 1.6-1.2 2.5-1.8 1.5-1 1.3-.7 1.3-.6 1.4-.5 1.3-.4 1.3-.3 1-.1h1.6l.8.3.6.3 1.2.7 1 .7 1 1 2.3 2 1 1 1.2.7.6.3 1.9.8 1.3.6 1.4.8 1.4.9 4.3 2.7 1.4.8 1 .6 1 .5 1 .5 1.7.6 1.2.5 3 1.3.9.3 1.7.5.9.3.6.3 1 .6.7.5 1.3 1 2.2 1.8 1 .6.8.6.9.5.7.3.6.2h1.4l2.1-.5 1.2-.3.9-.4 1-.4.7-.5.3-.4.4-.3.3-.6.4-.8.2-.9v-2.7l-.3-3-.3-1.3-.4-1.1-.8-1.7-.3-1-.3-.9-.1-1v-.9l.4-1 .4-.7.6-1 .7-.8.5-.6.7-.8 1-1 1.1-.9 1-.7 1.1-.5 1.8-.7 3.5-1.6.7-.3.7-.2 1-.3 2.4-.4.7-.1.6-.2 1.3-.5 2.3-1.1.6-.3h.5l.7-.2h1.1l.4.1 1 .2 1.6.5 1.2.3h1.7l.8-.3 1.5-.7.4-.2h.4l.5.5.8.8.5.7.6.8.6 1.4.4 1.4.5 1.7.4 1 .4 1 .9 1.5 1 1.2 1.1 1.2 1.2 1 1.4 1 .7.6.6.9.5.9.4 1 .1.5.1.7v1.7l-.3.9-.3.8-1 2.4-.4 1-.2.7v.5l-.1 1.3.2 1.4.3 1.4.5 1.3.5 1.3.6 1.1.7 1.4.3.9.2 1v1.3l-.2 1.5v1.6l.2.6.3.3.3.2h.7l.8-.3 1.7-.5.6-.2 1-.4.4-.4.6-.4.6-.6.8-.7 3.2-3.3 2.2-2.3 1-1 2.2-2 2.3-2 2-1.6 2-1.6 1.6-1 1.1-.8 2.3-1.4 1-.5 1.4-.6 1.5-.6 1.6-.4 1.2-.3 1.4-.2h1.6l3 .1h1.6l1.7-.1 2.5-.3h2.3l.8.2 1 .3.7.3.6.3.8.4.7.5.8.6.9.9.7.8.7.9.4.6.6 1.1 1 2 .8 1.7 1.7 4 .5 1 .9 1.6.3.6.6.8.6.7.3.2.3.1.4.2h.5l.5-.2.4-.3.7-.7.3-.6v-.4l.1-.7v-.6l-.4-1.2-.5-1.3-.5-1.1-.5-.9-1-1.6-3-4.5-1-1.6-.5-1-.3-.7-.4-1.2-.2-.6-.2-.8-.2-.7v-1.9l.2-.5v-.2l.3-.1h.3"/></defs><g clip-path="url(#p7c0bf2bd1e)"><use xlink:href="#m953726db91" y="280.5" fill="#0c1321" stroke="#0c1321"/></g></g></g></g><defs><clipPath id="p7c0bf2bd1e"><path d="M7.2 7.2h265.4v266.1H7.2z"/></clipPath></defs></svg>