<?xml version="1.0" encoding="UTF-8"?>
<!DOCTYPE svg  PUBLIC '-//W3C//DTD SVG 1.1//EN'  'http://www.w3.org/Graphics/SVG/1.1/DTD/svg11.dtd'>
<svg width="247.6pt" height="280.51pt" version="1.1" viewBox="0 0 247.6 280.51" xmlns="http://www.w3.org/2000/svg">
 <metadata>
  <rdf:RDF xmlns:cc="http://creativecommons.org/ns#" xmlns:dc="http://purl.org/dc/elements/1.1/" xmlns:rdf="http://www.w3.org/1999/02/22-rdf-syntax-ns#">
   <cc:Work>
    <dc:type rdf:resource="http://purl.org/dc/dcmitype/StillImage"/>
    <dc:date>2024-07-04T12:07:28.542280</dc:date>
    <dc:format>image/svg+xml</dc:format>
    <dc:creator>
     <cc:Agent>
      <dc:title>Matplotlib v3.7.1, https://matplotlib.org/</dc:title>
     </cc:Agent>
    </dc:creator>
   </cc:Work>
  </rdf:RDF>
 </metadata>
 <defs>
  <style type="text/css">*{stroke-linejoin: round; stroke-linecap: butt}</style>
 </defs>
 <g id="figure_1">
  <g id="patch_1">
   <path d="m0 280.51h247.6v-280.51h-247.6v280.51z" fill="none"/>
  </g>
  <g id="axes_1">
   <g id="PatchCollection_1" fill="#bdc660" stroke="#bdc660">
    <path d="m92.465 180.63 1.0511 0.007552 0.81516-0.18046 1.1356-0.56133 2.0134-1.3774 0.87566-0.47052 0.88027-0.38072 1.2825-0.25748 0.81675 0.06666 0.4708 0.1235 0.55328 0.25344 0.497 0.31834 0.81775 0.69756 0.23764 0.32208 0.25837 0.55504 0.12504 0.81045-0.040466 0.72872-0.38124 2.0114-0.041532 0.94237 0.094056 0.90823 0.4376 1.1394 0.58989 0.60532 0.74566 0.39803 0.66819 0.17578 2.2914 0.008169 0.72164 0.16849 0.94365 0.62624 0.71867 0.87959 1.4581 2.257 2.3414 2.9599 1.873 2.5589 2.6445 3.4572 1.471 2.2888 0.97016 1.9049 0.82168 2.209 1.36 4.6915 0.8015 2.3593 1.2138 2.6472 1.4812 2.5136 1.6014 2.2063 2.0051 2.1034 2.2433 1.9074 4.6589 3.4954 2.1481 1.7007 1.8332 1.7363 1.1095 1.3477 1.99 2.595 0.59323 0.62124 1.0288 0.90919 1.3655 0.99161 1.0697 0.62624 1.6179 0.64268 2.7763 0.90082 1.2173 0.51734 0.94432 0.6404 0.29373 0.3327 0.19324 0.32785 0.11432 0.33935-0.008428 0.67592-0.33216 0.6716-0.52668 0.51546-1.3704 0.79275-2.5305 0.95626-4.7856 1.5291-2.5682 0.89502-2.854 1.1404-2.5583 1.1312-1.9543 0.92688-0.74371 0.40499-0.10179 0.14669-2.0368-0.62131-1.1392-0.22359-1.0538-0.013563-0.46792 0.11555-0.40048 0.20553-0.36598 0.27901-1.3594 1.4204-1.0066 0.85222-0.96512 0.56972-2.6774 1.2857-1.3311 0.84129-0.77688 0.7312-2.0751 2.3626-0.73142 0.53943-0.3964 0.13565-0.42864 0.0126-0.93297-0.26471-3.1063-1.6461-0.80103-0.35015-0.45932-0.12183-0.071231 0.033535-0.64547-0.50366-1.3791-1.5163-1.7894-2.1112-1.9736-2.4457-2.0008-2.6145-1.914-2.678-1.7382-2.6727-2.4928-4.1611-1.5204-2.1546-1.1729-1.4307-1.3769-1.4706-1.0723-0.96814-0.97484-0.74039-1.3041-0.77243-1.4926-0.59667-1.43-0.3443-1.6806-0.19554-1.8557-0.039374-1.5031 0.10399-1.6283 0.25963-3.5809 0.81861-1.2347 0.21815-2.3728 0.22798-2.552 0.057209-3.9792-0.16829-2.4847-0.27373-1.5734-0.32276-1.3122-0.36155-1.4152-0.49634-1.3225-0.58439-1.7366-0.94142-2.0117-1.3-7.7691-5.9735-2.4477-1.7171-1.6942-1.0214-4.8661-2.539-1.3575-0.8278-1.3089-0.95601-1.1268-0.97568-0.9838-0.97888-3.9158-4.3626-2.3399-2.3558-2.2999-2.0372-3.7869-3.0379-1.4831-1.2563-2.5787-2.4749-0.71691-0.78092-0.36946-0.50568 0.15868-0.60967-0.092751-3.3653 0.10222-1.4555 0.1264-0.70947 0.31546-1.1214 0.41788-1.023 0.43764-0.8483 0.45067-0.74702 1.0366-1.4305 1.5383-1.6885 2.1681-1.9045 2.3384-1.7404 1.9692-1.2724 4.3485-2.5765 1.4438-0.76193 2.1985-0.93328 1.937-0.62464 1.9282-0.46702 1.7462-0.29739 3.7993-0.43226 1.3426-0.25064 1.338-0.3328 8.17-2.5937 1.3733-0.39139 1.6469-0.28553 1.6725-0.066502 1.9132 0.2258 1.4983 0.40246 2.5541 0.84682 5.186 1.5746 3.2622 1.2973 1.5024 0.66828 1.991 0.98858 5.8816 3.1389 1.6049 0.74466 2.8466 1.1021 1.3116 0.42845 1.2016 0.25399" clip-path="url(#pa009b2eeba)"/>
    <path d="m169.69 69.536 0.84572 0.22306 0.33227-0.082336 0.61266-0.37605 0.61993-0.62453 0.67722-0.93862 1.9042-3.3156 1.1735-1.7112 1.0678-1.3892 1.6302-1.8297 3.2848-3.3389 1.9044-2.2197 1.5182-1.6254 0.75671-0.67224 0.75751-0.54963 1.4239-0.59862 0.83978-0.00481 0.73533 0.21425 0.88071 0.46709 2.3736 1.4777 1.246 0.96185 0.78958 0.87775 0.64723 0.96405 0.56771 1.2018 0.24478 0.89235 0.044077 0.74588-0.092745 0.39341-0.3674 0.51596-0.91938 0.7992-1.6313 1.6014-2.1737 1.6856-0.99771 0.97009-0.64848 0.94636-0.50717 1.3917-0.086426 1.3341 0.10416 1.1509 0.23844 1.1178 0.26483 0.78208 0.86536 2.0337 0.43622 0.67491 0.65454 0.62734 0.89876 0.5054 1.0563 0.35916 1.536 0.21938 1.5698-0.1962 1.4567-0.58162 1.0209-0.72555 0.72788-0.73134 0.30492-0.55423 0.84456 3.8304 0.19937 1.4105-0.036899 0.53442-0.15082 0.48212-1.1485 2.0851-0.19766 0.47973-0.098314 0.51968 0.091869 1.1545 0.64327 2.959-0.75958 0.016694-0.68344 0.41531-0.68664 0.90152-0.47022 1.2002-0.18858 1.3635 0.034842 0.77661 0.23362 1.2463 1.0101 3.5069 0.20633 1.2034 0.10276 1.2538-0.014182 1.5327-0.12564 1.2939-0.53539 2.2554-0.51664 1.1845-0.92987 1.4775-1.6606 1.6206-0.58356 0.41272-1.8143 0.95827-1.9647 0.56481-2.1896 0.12676-3.3814-0.3067-6.4711-0.85409-1.6556-0.36069-1.3251-0.41498-1.3065-0.51524-1.1549-0.53787-1.7491-1.0071-2.432-1.7369-3.6728-2.8087-1.6511-1.0829-1.4272-0.79405-2.0897-0.9637-6.1721-2.5589-8.0067-3.1921-1.4186-0.61177-1.0459-0.61111-0.68521-0.61868-0.31848-0.58868-0.041919-0.27161 0.027703-0.32696 0.17742-0.48195 0.38666-0.57499 0.532-0.57441 1.4235-1.2933 1.6664-1.7459 0.94598-1.2423 0.78877-1.4859 0.58276-1.8965 0.69839-3.5058 0.24943-1.4906 0.36184-3.3132 0.3164-4.3798 0.3329-1.8732 0.9037-3.8406 0.31907-2.1626 0.059546-1.9553-0.073659-2.1418-0.34874-3.2063-0.1962-1.0332-0.65009-2.6734-0.08872-0.79733 0.023424-0.48458 0.13117-0.53288 0.48319-0.77053 0.78966-0.61445 0.96634-0.39682 2.1548-0.48431 1.6021-0.18006 1.4298 0.091872 0.83652 0.31121 0.40124 0.43795-0.58399 0.24828-0.32618 0.6709 0.002414 0.98619 0.26967 1.1693 0.38495 1.1534 0.38855 0.87863 0.48374 0.86988 2.9675 4.0453 0.88531 1.6227 0.32215 0.78922 0.50592 1.6605 0.65547 2.5109 0.78847 2.6321 0.81392 2.3332 0.48179 1.0662 0.51427 0.90539 0.22844 0.32501 0.78966 0.75093" clip-path="url(#pa009b2eeba)"/>
    <path d="m217.79 37.449-1.0299 0.16625-0.67826 0.04214-1.7263-0.056661-1.3222 0.032726-1.3825 0.30843-1.4366 0.60464-1.172 0.70772-5.1601 3.3614-0.86196 0.45825-0.97925 0.43378-1.9143 0.7307-1.0375 0.14785-0.38779-0.030645-1.1-0.31922-1.7092-0.86584-3.5693-2.1377-2.1646-1.4099-3.3869-2.7698-1.3835-1.3002-1.5039-1.7-1.0503-1.4682-0.36107-0.81601 3.0007-0.52682 5.9731-1.1906 5.3779-0.97954 3.89-0.66324 9.2882-1.4314 2.6052-0.5387 2.4554-0.6148 3.8477-1.1916 1.9486-0.83303 0.73618-0.37126 1.6134-0.93072 0.8116-0.56443 2.0968-1.8614 0.81831-0.49303 0.79736-0.082227 0.74787 0.31896 0.57343 0.68282 0.42489 0.96067 0.23495 0.93716 0.082123 1.1496-0.12427 1.1119-0.57882 2.2171-0.66602 1.5788-1.0021 1.5528-1.4161 1.6441-2.5692 2.4506-1.9318 1.6783-1.3704 0.95441-0.86738 0.43866-0.62829 0.2412-0.85182 0.23597" clip-path="url(#pa009b2eeba)"/>
   </g>
  </g>
 </g>
 <defs>
  <clipPath id="pa009b2eeba">
   <rect x="7.2" y="7.2" width="233.2" height="266.11"/>
  </clipPath>
 </defs>
</svg>
