<?xml version="1.0" encoding="UTF-8"?>
<!DOCTYPE svg  PUBLIC '-//W3C//DTD SVG 1.1//EN'  'http://www.w3.org/Graphics/SVG/1.1/DTD/svg11.dtd'>
<svg width="371.52pt" height="226.82pt" version="1.1" viewBox="0 0 371.52 226.82" xmlns="http://www.w3.org/2000/svg" xmlns:xlink="http://www.w3.org/1999/xlink">
 <metadata>
  <rdf:RDF xmlns:cc="http://creativecommons.org/ns#" xmlns:dc="http://purl.org/dc/elements/1.1/" xmlns:rdf="http://www.w3.org/1999/02/22-rdf-syntax-ns#">
   <cc:Work>
    <dc:type rdf:resource="http://purl.org/dc/dcmitype/StillImage"/>
    <dc:date>2024-07-04T12:07:22.192129</dc:date>
    <dc:format>image/svg+xml</dc:format>
    <dc:creator>
     <cc:Agent>
      <dc:title>Matplotlib v3.7.1, https://matplotlib.org/</dc:title>
     </cc:Agent>
    </dc:creator>
   </cc:Work>
  </rdf:RDF>
 </metadata>
 <defs>
  <style type="text/css">*{stroke-linejoin: round; stroke-linecap: butt}</style>
 </defs>
 <g id="figure_1">
  <g id="patch_1">
   <path d="m0 226.82h371.52v-226.82h-371.52v226.82z" fill="none"/>
  </g>
  <g id="axes_1">
   <g id="PatchCollection_1">
    <defs>
     <path id="mf1365b65b6" d="m322.62-48.921-0.38369 0.017477-0.98506-0.266-2.6788-1.0281-14.384-6.8788-3.4785-1.5247-3.3557-1.2923-4.5299-1.6065-3.8285-1.1334-2.8823-0.6515-3.58-0.58273-2.7883-0.29477-4.1165-0.27003-4.8698-0.087254-5.6208 0.36011-9.8881 1.2492-2.2441 0.14004-2.8133-0.002351-5.7331-0.2996-5.9916-0.75924-3.3717-0.30553-12.834-0.61996-8.2428-0.94633-6.7548-0.62104-4.2168-0.024129-5.463 0.51921-3.3989 0.60044-3.823 1.0848-4.6122 1.617-4.6199 2.0689-4.1693 2.3298-7.5839 4.8456-15.529 9.3731-5.104 2.6675-11.836 5.6939-2.9812 1.2472-9.2645 3.5158-4.8324 1.9728-6.2341 2.7647-10.074 4.8322-3.9618 1.7243-3.6985 1.3728-2.5277 0.7734-1.8396 0.42013-0.65876 0.06988-0.52267-0.14302 0.050085-2.134 0.53238-6.6329 0.45824-3.9089 0.85527-4.8038 1.1159-5.4435 1.0685-4.3198 3.3472-10.455 0.77912-2.9259 0.30989-1.4471 0.62028-4.1991 0.2608-4.6859-0.038506-2.529-0.25333-3.4801-0.4562-3.4126-0.68178-3.544-0.86356-3.3937-1.2761-3.8083-1.5851-3.4152-1.9744-2.8895-2.4707-2.1998-1.7306-0.90948-1.9153-0.65055-3.0266-0.56773-3.2667-0.21779-3.2096 0.041639-3.0887 0.2021-6.9917 0.83493-10.946 1.8003-3.3015 0.42927-3.0402 0.17614-3.0886-0.27577-2.4702-1.0168-1.5127-1.6093-1.0093-2.2046-0.57478-2.6725-0.19761-3.6447 0.21261-4.0241 0.41807-3.6179 0.60704-3.9336 3.8302-19.718 1.0775-7.1201 0.18269-2.8449-0.12629-2.9472-0.50419-2.9349-0.85466-2.7462-1.1897-2.7047-1.8767-3.292-2.2421-3.2059-2.4691-3.0361-2.648-2.9079-3.2124-3.2125-4.8992-4.4638-3.6158-3.061 3.2602-0.99855 6.4439-1.4664 6.0278-1.1369 4.3004-0.5499 4.1905-0.28595 3.6946-0.071456 5.4542 0.30902 2.7864 0.37714 3.4002 0.66202 3.7703 0.96749 10.177 3.105 8.4884 2.3126 4.3213 1.3554 4.6215 1.8219 9.0674 4.3072 2.923 1.2674 4.0307 1.4932 3.5493 1.0444 5.5021 1.2104 3.8123 0.69063 3.8589 0.50625 2.8579 0.25426 2.4323 0.1388 4.4796 0.042627 4.1372-0.23474 2.835-0.31166 3.1508-0.50697 3.354-0.73214 5.1907-1.4213 16.56-5.5515 10.162-3.0052 5.1605-1.9664 5.0672-2.3552 3.2627-1.7055 3.4316-1.975 7.6595-4.8571 3.613-1.9652 17.507-8.1937 9.2854-4.5829 6.1563-3.4984 1.8202-1.3519 0.37705-0.4234 0.20147 1.4992 1.3221 2.5441 2.1119 2.8868 2.7254 2.7849 3.2419 2.3256 3.9705 1.7349 4.249 1.1113 8.3455 1.6063 3.645 1.1382 2.9976 1.7995 1.7644 2.0019 1.4123 2.4557 3.7405 8.8619 1.4192 2.8076 2.183 3.5095 2.5141 3.4819 7.1688 9.2588 6.3703 8.9522 3.6417 5.4772 2.8839 4.6021 6.3152 11.324 1.1131 1.6203 1.286 1.4098 1.8243 1.2877 2.9027 0.89272 3.2921 0.15442 3.5145-0.31547 7.0556-1.0866 3.2021-0.30649 2.7223 0.18565 1.9982 0.97239 1.0696 1.9924 0.27033 2.8793-0.36 3.5729-0.84759 4.0582-1.2416 4.4711-1.2571 3.9001-3.0127 8.3089-4.7446 11.871-5.1348 12.182-8.4661 19.613-0.40077 1.2133" stroke="#bdc660"/>
    </defs>
    <g clip-path="url(#p02601f9663)">
     <use y="226.818393" fill="#bdc660" stroke="#bdc660" xlink:href="#mf1365b65b6"/>
    </g>
   </g>
  </g>
 </g>
 <defs>
  <clipPath id="p02601f9663">
   <rect x="7.2" y="7.2" width="357.12" height="212.42"/>
  </clipPath>
 </defs>
</svg>
