<?xml version="1.0" encoding="UTF-8"?>
<!DOCTYPE svg  PUBLIC '-//W3C//DTD SVG 1.1//EN'  'http://www.w3.org/Graphics/SVG/1.1/DTD/svg11.dtd'>
<svg width="359.42pt" height="280.51pt" version="1.1" viewBox="0 0 359.42 280.51" xmlns="http://www.w3.org/2000/svg" xmlns:xlink="http://www.w3.org/1999/xlink">
 <metadata>
  <rdf:RDF xmlns:cc="http://creativecommons.org/ns#" xmlns:dc="http://purl.org/dc/elements/1.1/" xmlns:rdf="http://www.w3.org/1999/02/22-rdf-syntax-ns#">
   <cc:Work>
    <dc:type rdf:resource="http://purl.org/dc/dcmitype/StillImage"/>
    <dc:date>2024-07-04T12:07:26.102880</dc:date>
    <dc:format>image/svg+xml</dc:format>
    <dc:creator>
     <cc:Agent>
      <dc:title>Matplotlib v3.7.1, https://matplotlib.org/</dc:title>
     </cc:Agent>
    </dc:creator>
   </cc:Work>
  </rdf:RDF>
 </metadata>
 <defs>
  <style type="text/css">*{stroke-linejoin: round; stroke-linecap: butt}</style>
 </defs>
 <g id="figure_1">
  <g id="patch_1">
   <path d="m0 280.51h359.42v-280.51h-359.42v280.51z" fill="none"/>
  </g>
  <g id="axes_1">
   <g id="PatchCollection_1">
    <defs>
     <path id="m9d3432786e" d="m193.1-245.69-0.32243 0.15249-0.66645 0.42468-0.89125 0.69264-0.83623 0.95627-0.52598 1.0724-0.30701 1.252-0.085003 0.83125-0.022296 1.5061 0.091512 1.5791 0.41022 4.1603 0.020379 2.0304-0.095365 1.0943-0.21606 1.1358-0.6896 2.3652-0.3222 1.34-0.11323 0.91128-0.008626 0.75482 0.088521 0.884 0.23264 1.1443 0.96824 3.2967 0.47812 1.9055 0.23702 1.5288 0.039257 0.63175-0.009659 1.009-0.11597 1.2698-0.18747 1.2047-0.27824 1.1845-0.44878 1.4726-0.97364 2.8564-0.63517 2.1876-0.36807 1.8823-0.18996 1.9621-0.038587 1.3736 0.13965 2.0004 0.34627 1.9908 0.51228 1.939 0.65161 1.8381 0.77696 1.6778 0.90017 1.4435 1.0329 1.1159 1.1868 0.67032 0.53021 0.11609 0.41226 0.031501 0.63467-0.028645 0.60393-0.097425 0.89599-0.245 0.97035-0.36848 1.3501-0.62041 4.0295-1.9814 1.4528-0.61461 1.2974-0.4705 1.7851-0.55677 4.1257-1.0158 2.1025-0.44353 2.3018-0.33956 1.6519-0.11298 1.0492-0.00108 1.035 0.070859 0.97304 0.15483 0.79307 0.19518 0.90816 0.29221 1.0367 0.40988 1.9382 0.93608 1.4536 0.81233 1.6584 1.0285 1.6233 1.1018 1.4285 1.0897 1.1009 1.0262 0.84082 0.91741 1.3068 1.6712 0.84915 1.2549 0.81315 1.3272 2.3011 4.0947 1.1439 1.8484 1.3538 1.7599 1.6632 1.9939 1.0593 1.5119 0.76626 1.2314 0.69319 1.2473 0.41299 0.89417 0.45463 1.3063 0.74305 2.6339 0.4067 1.1122 0.54726 1.0225 0.53891 0.69193 0.63861 0.63247 1.2163 0.93801 1.1865 0.74988 5.6404 3.3395 1.3539 0.65568 0.56282 0.20039 1.3958 0.30098 1.366 0.091242 2.2959-0.10439 0.64458 0.006824 0.46706 0.061199 0.91234 0.29826 0.77611 0.46096 1.0074 0.8396 0.6785 0.68506 0.68241 0.76289 1.1068 1.349 2.1872 2.8282 1.183 1.4535 0.77575 0.84826 0.9024 0.79676 0.89771 0.56769 0.91272 0.39914 0.98483 0.25555 0.80424 0.035146 0.49409-0.22313 0.13795 0.12513-0.19815 0.40984-0.79654 0.50776-1.2195 0.55006-4.0671 1.5928-0.93194 0.40535-1.4088 0.71387-0.8725 0.53666-0.64531 0.45306-1.3951 1.13-1.4677 1.3941-0.66843 0.7399-1.7148 2.0621-1.5224 1.5879-0.72687 0.80531-0.33189 0.43021-1.7776 2.7587-0.17255 0.37593-0.11165 0.36396-0.062822 0.56334 0.086141 0.49864 0.27336 0.55026 1.1778 1.4902 0.35569 0.50853 0.28448 0.52796 0.20837 0.61883 0.3192 1.4358 0.23757 0.59892 0.37574 0.58688 0.54239 0.54166 0.65338 0.44947 0.99167 0.48688 1.8687 0.69669 5.0363 1.5688 4.5953 1.7684 2.0326 0.665 1.598 0.38565 1.6618 0.24218 1.274 0.095494 4.236 0.17352 1.3362 0.11301 1.133 0.16363 1.5241 0.32249 1.257 0.34931 1.3859 0.45282 1.2228 0.45798 1.114 0.48717 0.92422 0.46484 1.7814 1.0517 4.6359 3.2946 4.8149 3.0549 1.0886 0.76468 1.0314 0.80728 0.77166 0.68878 0.72608 0.75146 0.89131 1.1278 1.0224 1.6318 0.72141 1.3901 0.34128 0.79214 0.48799 1.3362 1.1944 3.9021 1.6384 4.8145 0.51316 1.2429 0.64241 1.397 0.49027 0.96371 0.55255 0.9586 1.8385 2.8429 1.6166 2.2217 1.3297 1.6707 2.2361 2.6328 3.7318 4.202 1.5193 1.7738 0.72576 0.92558 0.74904 1.0488 0.74808 1.1628 0.51458 0.89582 0.38043 0.7542 0.467 1.1126 0.3108 0.98705 0.20025 0.99515 0.091868 0.99047-0.03596 0.98783-0.14478 0.54359-0.15392 0.17184-0.75837 0.029306-0.79917 0.11285-0.7445 0.21242-0.90382 0.4118-0.91051 0.56149-0.77116 0.57625-0.99016 0.94993-0.78687 0.93413-0.9982 1.4145-1.5276 2.3657-1.1237 1.4829-0.38339 0.42145-0.7678 0.72218-0.9138 0.65644-0.85249 0.41619-0.73988 0.19447-0.71652 0.023186-0.63646-0.11836-1.6844-0.57501-0.9538-0.19825-0.55712-0.007089-0.73484 0.13463-0.8099 0.29697-0.99476 0.51456-1.4007 0.91748-1.6142 1.2809-2.364 2.0591-1.8964 1.3182-0.50759 0.503-0.41792 0.66373-0.25785 0.60375-0.20239 0.65583-0.13877 0.63581-0.2618 2.2322-0.14776 0.80536-0.3148 0.97571-0.447 0.97946-0.54309 0.96798-0.60111 0.93308-1.1865 1.5984-0.45135 0.52747-0.22676 0.19312-25.731-18.623-8.4505-6.1783-14.271-10.519-3.9176-2.8103-1.9479-1.341-1.9353-1.2686-1.5736-0.96448-1.5535-0.87275-1.5246-0.75355-1.2357-0.50774-1.2087-0.36693-0.99796-0.17104-0.9747-0.016796-0.96394 0.16197-0.92837 0.32974-1.0563 0.588-0.42046 0.29918-0.89351 0.7725-0.82194 0.89729-0.91168 1.2632-0.9179 1.6826-0.29467 0.67392-0.44232 1.2768-0.39951 2.0485-0.1021 1.1556-0.027243 1.9977 0.055688 1.1884 0.219 2.3564 0.85517 7.0579 0.1347 1.6899 0.069197 2.3513-0.077932 1.7697-0.18285 1.4137-0.17715 0.79936-0.21141 0.68406-0.48965 1.1117-0.58629 0.99411-0.76233 1.0633-0.58946 0.7167-1.1066 1.1655-1.3147 1.1912-1.1015 0.9244-4.4123 3.4604-0.89994 0.64919-0.86927 0.56-0.54893 0.30874-0.75491 0.34897-0.80304 0.2636-0.62751 0.13434-1.2702 0.1144-1.2732-0.026091-1.1525-0.087697-1.7302-0.20965-1.7279-0.37922-1.2608-0.43945-1.5772-0.67547-3.9279-1.8745-2.2202-0.98117-1.2963-0.4594-1.2885-0.30865-2.317-0.39397-1.0125-0.22171-0.71318-0.22011-0.73057-0.31449-0.5938-0.34552-0.56738-0.407-1.0144-0.8974-1.4328-1.5611-1.3548-1.7131-1.2124-1.7398-0.97965-1.5951-0.49258-0.8777-2.5805-5.0928-0.80282-1.4823-0.9739-1.5945-1.2395-1.7522-2.092-2.5546-3.0956-3.5514-1.3876-1.5317-0.5258-0.53738-0.98571-0.8926-0.96739-0.67537-0.68851-0.33012-1.6001-0.3271-1.7795 0.072451-1.9163 0.35981-2.0134 0.55661-2.0933 0.68604-2.1563 0.76095-7.0949 2.5611-9.1411 3.3974-3.5249 1.3657-2.8249 1.209-1.9898 0.95215-2.0872 1.0803-5.5212 2.9873-1.6763 0.8076-2.2332 0.96975-1.0852 0.53265-2.063 1.1884-3.0235 2.057-1.2857 0.8139-0.5917 0.29919-0.53771 0.20971-0.62724 0.15507-0.8579 0.040572-1.1841-0.24526-1.1219-0.55552-1.0288-0.82782-0.94342-1.0021-1.6663-1.9458-1.0566-0.95504-0.96044-0.60238-1.0702-0.47894-1.7676-0.51094-1.8752-0.2701-1.6638-0.041416-1.6423 0.14513-4.1009 0.86032-1.6442 0.18568-4.8149 0.19446-1.3435 0.1032-1.345 0.17913-1.0879 0.21823-1.9203 0.56456-1.8848 0.72707-4.3285 1.9216-1.4276 0.57594-1.0634 0.36092-1.0355 0.26641-0.97036 0.1425-0.93163 5.97e-4 -0.8719-0.16107-1.2456-0.55155-1.162-0.953-0.42765-0.50885-0.27718-0.40148-0.2789-0.48788-0.31502-0.70724-0.32441-1.0673-0.18777-1.1502-0.045401-0.73368 0.032919-2.9032-0.037772-1.0192-0.17064-1.4921-0.28375-1.5168-0.21445-0.92393-0.4324-1.5041-0.55133-1.4324-0.83313-1.6206-1.2524-2.2201-0.57187-1.1901-0.51784-1.4181-0.12892-0.55538 0.015674-0.15639 0.20367-2.6051 0.03565-2.3574-0.12566-1.897-0.14554-0.98075-0.14706-0.68588-0.18511-0.6579-0.29798-0.78489-0.54051-0.97512-0.60848-0.74342-0.68744-0.61226-0.51804-0.37192-0.61501-0.37391-0.85716-0.43134-4.3634-1.8126-2.4634-0.8834-2.3881-0.69972-2.1653-0.49649-1.7128-0.29877-9.7753-1.3856-1.371-0.25055-1.2379-0.3552-0.99796-0.48706-0.19101-0.13041-0.53164-0.45328-0.34713-0.37981-0.45847-0.63187-0.30269-0.55528-0.25741-0.64372-0.2051-0.72598-0.10983-0.59693-0.05474-0.58321-4.09e-4 -0.75525 0.070444-0.73537 1.6399-8.8552 0.41428-1.816 0.48486-1.6979 1.1736-3.7163 0.72163-1.9317 0.85596-1.7699 0.99288-1.6139 2.6234-3.5511 2.8007-3.9457 3.0178-4.0068 1.4756-2.2063 0.92754-1.6557 0.80762-1.795 0.19492-0.60826 0.057622-0.30925-0.10713-0.41375-0.094548-0.019662 0.076366-0.060602-0.001554-0.34159-0.32725-0.97722-0.94559-2.0791-0.99322-1.9324-0.58971-1.0305-1.064-1.671-1.421-1.9785-2.6301-3.4273-0.8723-1.2405-0.65334-1.0186-0.59589-1.0763-0.36718-0.8326-0.20628-0.6061-0.18694-0.76302-0.10369-0.72178-0.033148-0.71331 0.0691-0.97358 0.10455-0.56115 0.23001-0.77392 0.57096-1.2813 1.5684-2.8044 0.95834-1.9977 0.77247-1.9905 0.52481-1.7879 0.31955-1.8198 0.12166-1.6037-0.001575-1.5364-0.20857-3.221-0.009882-0.75037 0.086821-1.1009 0.11976-0.479 0.12364-0.30051 0.28911-0.44586 0.32723-0.3353 0.47838-0.34169 0.61894-0.29211 0.62333-0.17906 0.71374-0.093601 0.61145 0.006574 0.38143 0.048063 0.43884 0.098947 0.77342 0.27449 1.0086 0.5008 4.8214 2.9118 2.6193 1.3447 1.1251 0.44933 1.1462 0.26363 0.93708 0.03376 1.3732-0.184 0.88671-0.22767 0.8955-0.29574 1.3306-0.5349 2.1529-1.0477 1.6132-0.98467 4.0675-2.9303 2.709-1.8066 0.99392-0.56424 3.3053-1.7448 0.69999-0.44336 0.65084-0.49994 0.52606-0.54012 0.4109-0.66364 0.20574-0.74211-0.012421-0.57817-0.40652-1.0236-0.6096-0.76797-1.0376-0.98189-1.2091-0.93772-2.549-1.797-1.6209-1.3209-3.3697-3.4871-0.44603-0.54752-0.3764-0.63855-0.19727-0.62255-0.001987-0.97859 0.17924-0.60306 0.20748-0.43895 0.37697-0.60294 0.75227-0.92652 1.0108-1.0185 2.8881-2.5422 1.5744-1.4953 0.82826-0.8829 1.0283-1.2549 0.82457-1.1812 1.0382-1.7504 0.75107-1.4524 1.4256-2.9696 0.85374-1.5717 0.43154-0.66283 0.47857-0.60891 0.28973-0.30946 0.83499-0.71568 1.1621-0.71155 1.5537-0.61854 1.3798-0.30763 0.90349-0.08813 0.70476-0.009075 0.93663 0.067454 3.7493 0.57751 1.0117 0.060211 1.3165-0.078911 2.8662-0.4671 1.039-0.12798 1.9784-0.09797 1.5001 0.025901 2.8598 0.23296 4.8918 0.64376 0.77594 0.038588 0.69681-0.042797 0.8137-0.18864 0.35301-0.13355 0.73822-0.37696 0.66669-0.4539 0.36954-0.30317 0.67107-0.65275 0.61242-0.70662 0.53119-0.69464 0.60743-0.88515 0.99065-1.5907 1.3976-2.4928 0.64138-1.2949 0.60712-1.3636 0.80331-2.1987 0.33642-1.3812 0.1312-0.97519 0.061199-0.86875 0.027534-1.3986-0.033461-0.98366-0.18107-1.5528-0.32731-1.471-0.2375-0.81881-0.38807-1.1447-0.71382-1.7608-0.52948-1.129-0.71664-1.3729-1.4772-2.4682-3.7447-5.4628-0.35104-0.64405 0.020508-0.23729 0.062222 0.21739 0.11312 0.10635 0.18262 0.10928 0.43226 0.16059 0.77086 0.14474 0.6685 0.043072 0.70503-0.01132 1.5647-0.17542 1.2795-0.26302 1.939-0.55822 1.3515-0.49068 0.85309-0.35402 1.6882-0.81474 1.4404-0.82907 1.1339-0.74291 1.9996-1.4893 3.3843-2.7924 1.0938-0.8561 1.6839-1.1701 1.1024-0.6445 1.0623-0.52178 0.58766-0.24543 0.60456-0.22011 1.0367-0.301 1.2235-0.23152 0.54757-0.060264 1.4053-0.031755 0.83542 0.064956 0.95263 0.15268 0.84567 0.20912 1.2652 0.44797 0.56059 0.25346 0.96897 0.52302 0.93572 0.61526 0.73597 0.56796 1.0735 0.97886 0.69351 0.73423 0.65544 0.76853 1.2419 1.6475 2.3061 3.3582 0.87818 1.1957 0.95947 1.1841 1.0002 1.0856 0.92546 0.86597 0.49646 0.4093 1.0725 0.76303 0.51035 0.30903 0.98055 0.50569 1.4921 0.57072 1.2971 0.3284 0.75538 0.12867 1.1699 0.11269 1.0375 0.015418 0.76919-0.035723 1.9414-0.24924 1.0339-0.21807 1.0349-0.27074 1.6726-0.53203 5.2781-1.9886 2.4443-0.81089 1.2121-0.32406 1.2223-0.25676 2.0139-0.2361 1.4055-0.005453 1.7782 0.19217 1.6885 0.38535 1.5079 0.49878 1.501 0.62018 1.9824 0.95863" stroke="#bdc660"/>
    </defs>
    <g clip-path="url(#p0a34078967)">
     <use y="280.512" fill="#bdc660" stroke="#bdc660" xlink:href="#m9d3432786e"/>
    </g>
   </g>
  </g>
 </g>
 <defs>
  <clipPath id="p0a34078967">
   <rect x="7.2" y="7.2" width="345.02" height="266.11"/>
  </clipPath>
 </defs>
</svg>
