<?xml version="1.0" encoding="UTF-8"?>
<!DOCTYPE svg  PUBLIC '-//W3C//DTD SVG 1.1//EN'  'http://www.w3.org/Graphics/SVG/1.1/DTD/svg11.dtd'>
<svg width="322.53pt" height="280.51pt" version="1.1" viewBox="0 0 322.53 280.51" xmlns="http://www.w3.org/2000/svg" xmlns:xlink="http://www.w3.org/1999/xlink">
 <metadata>
  <rdf:RDF xmlns:cc="http://creativecommons.org/ns#" xmlns:dc="http://purl.org/dc/elements/1.1/" xmlns:rdf="http://www.w3.org/1999/02/22-rdf-syntax-ns#">
   <cc:Work>
    <dc:type rdf:resource="http://purl.org/dc/dcmitype/StillImage"/>
    <dc:date>2024-07-04T12:07:19.769879</dc:date>
    <dc:format>image/svg+xml</dc:format>
    <dc:creator>
     <cc:Agent>
      <dc:title>Matplotlib v3.7.1, https://matplotlib.org/</dc:title>
     </cc:Agent>
    </dc:creator>
   </cc:Work>
  </rdf:RDF>
 </metadata>
 <defs>
  <style type="text/css">*{stroke-linejoin: round; stroke-linecap: butt}</style>
 </defs>
 <g id="figure_1">
  <g id="patch_1">
   <path d="m0 280.51h322.53v-280.51h-322.53v280.51z" fill="none"/>
  </g>
  <g id="axes_1">
   <g id="PatchCollection_1">
    <defs>
     <path id="m6a610384c8" d="m236.69-244.82 1.1505-0.3437 2.5149-1.0814 6.8049-3.2263 5.1339-2.8425 3.9396-2.624 1.8592-0.83169 0.76465-0.12595 1.2828 0.06986 1.3071 0.36031 1.313 0.59467 2.3104 1.5298 2.3062 2.1877 2.018 2.531 1.7339 2.4421 3.3406 5.1192 4.79 8.0051 1.5612 2.2831 2.1914 2.6177 4.1147 4.3966 1.2306 1.822 0.87229 2.1578 2.6707 13.946 0.61248 2.284 0.90197 2.5381 0.88572 1.8772 1.0487 1.6809 1.325 1.5109 0.86628 0.7137 1.3439 0.84732 2.2693 1.2039 0.16947 1.0772-0.032977 1.8373-0.2739 3.2976-2.0956 15.212-1.3365 16.737-1.4568 12.906-0.65581 8.455-0.7674 7.2611-0.72572 5.2067-0.86492 4.9113-4.7556 19.802-2.729 14.77-0.95129 7.1105-0.93409 8.8727-2.4518 17.31-0.64778 7.3005-0.1404 5.548-23.045 3.5949-23.233 4.1247-4.4148 0.52059-2.4587 0.12376-4.0008-0.12623-3.952-0.38602-5.2325-0.74086-4.9942-0.91339-8.0433-1.9624-4.252-1.3144-7.7184-2.6464-1.5225-0.30278-1.2574-0.021648-1.1335 0.23273-1.4882 0.63406-1.4985 0.92646-9.3173 7.4597-3.7013 2.2884-2.582 1.3017-5.0741 2.1257-3.8202 1.268-0.68223 0.081493-1.9409-6.9293-0.84698-2.2585-1.0772-2.2771-1.025-1.728-0.74265-1.0462-1.4648-1.6576-1.4379-1.191-1.7026-0.94387-1.775-0.53205-1.9002-0.18915-1.7506 0.082738-3.1601 0.58489-3.8876 1.1975-8.5091 3.2215-3.8646 1.3345-4.8137 1.2434-4.9082 0.61807-3.9558 0.039898-4.0999-0.37214-4.5648-0.98412-4.2148-1.5638-3.2217-1.6196-2.3915-1.4768-1.5135-1.1064-1.6961-1.5058-0.99683-1.1153-1.4007-2.1041-1.1176-2.3588-0.89823-2.5569-0.99061-3.8136-2.2683-12.174-0.8854-4.0159-1.1403-3.8546-1.9463-4.6428-2.0302-3.5158-2.4391-3.3483-2.7508-3.1744-2.9885-2.9771-3.17-2.7374-3.3085-2.4347-6.3936-4.1202-3.3564-2.4726-2.4312-2.0095-2.335-2.1407-2.2039-2.2629-6.1807-7.0042-2.97-3.1343-5.8923-5.8745-5.3156-4.901 0.61444-1.0584 0.32292-2.853-0.48397-11.066 0.28345-5.0248 0.40059-2.1502 0.52917-1.7435 2.2948-4.0204 3.342-3.1845 2.9946-1.8585 5.6746-3.0474 2.4444-1.5334 2.7819-1.9408 4.0525-3.0981 6.1767-5.2594 3.1893-3.0893 2.9348-3.24 2.461-3.1245 1.6916-2.4258 2.4047-3.9775 2.7749-5.4974 2.9017-6.7268 2.7963-7.3299 1.9079-6.0402 1.0794-4.4297 1.5988-7.8502 1.4805-6.382 2.2615-7.6025 1.8939-4.989 1.5151-3.1821 1.3613-2.3495 2.2215-3.0563 2.49-2.4858 2.8691-1.7707 3.276-0.73011 3.3254 0.45692 2.5324 1.1478 2.4786 1.6741 7.2063 6.1401 3.8814 3.0589 4.1342 2.6798 3.8129 2.1449 7.2796 3.5846 4.9722 1.943 2.7063 0.83741 3.4239 0.81386 3.008 0.48042 3.6555 0.27097 4.2347-0.1543 3.9174-0.63037 2.4777-0.65172 4.0254-1.4452 2.3574-1.024 10.412-5.0655 2.726-1.2277 3.1228-1.2139 3.5385-1.0273 3.8358-0.64279 4.2715-0.25367 2.2842 0.024317 4.8883 0.36769 3.2194 0.4497 6.9988 1.4205 13 3.2435 3.7033 0.59984 3.1908 0.18926 2.7797-0.31748 1.1881-0.58893 0.35677-0.8899" stroke="#bdc660"/>
    </defs>
    <g clip-path="url(#p4822f29670)">
     <use y="280.512" fill="#bdc660" stroke="#bdc660" xlink:href="#m6a610384c8"/>
    </g>
   </g>
  </g>
 </g>
 <defs>
  <clipPath id="p4822f29670">
   <rect x="7.2" y="7.2" width="308.13" height="266.11"/>
  </clipPath>
 </defs>
</svg>
