<?xml version="1.0" encoding="UTF-8"?>
<!DOCTYPE svg  PUBLIC '-//W3C//DTD SVG 1.1//EN'  'http://www.w3.org/Graphics/SVG/1.1/DTD/svg11.dtd'>
<svg width="371.52pt" height="243.49pt" version="1.1" viewBox="0 0 371.52 243.49" xmlns="http://www.w3.org/2000/svg" xmlns:xlink="http://www.w3.org/1999/xlink">
 <metadata>
  <rdf:RDF xmlns:cc="http://creativecommons.org/ns#" xmlns:dc="http://purl.org/dc/elements/1.1/" xmlns:rdf="http://www.w3.org/1999/02/22-rdf-syntax-ns#">
   <cc:Work>
    <dc:type rdf:resource="http://purl.org/dc/dcmitype/StillImage"/>
    <dc:date>2024-07-04T12:07:25.094712</dc:date>
    <dc:format>image/svg+xml</dc:format>
    <dc:creator>
     <cc:Agent>
      <dc:title>Matplotlib v3.7.1, https://matplotlib.org/</dc:title>
     </cc:Agent>
    </dc:creator>
   </cc:Work>
  </rdf:RDF>
 </metadata>
 <defs>
  <style type="text/css">*{stroke-linejoin: round; stroke-linecap: butt}</style>
 </defs>
 <g id="figure_1">
  <g id="patch_1">
   <path d="m0 243.49h371.52v-243.49h-371.52v243.49z" fill="none"/>
  </g>
  <g id="axes_1">
   <g id="PatchCollection_1">
    <defs>
     <path id="md9bac4cf10" d="m340.09-115.15 0.52041 0.17458 1.3038 1.2764 1.2351 1.6573 1.2287 2.1809 1.229 3.0385 1.2091 3.8618 0.71305 2.968 0.46136 3.0672 0.10062 2.0931-0.11121 2.1899-0.31888 1.8832-0.43399 1.4909-0.90046 2.0952-0.79044 1.3769-1.0639 1.4874-1.2664 1.398-1.1593 0.96776-0.69941 0.45278-1.0196 0.51125-0.99244 0.37327-1.1738 0.3278-1.8103 0.32717-1.7444 0.15482-1.7071 0.025374-2.8915-0.2101-1.8704-0.28443-2.7604-0.58536-2.0526-0.54292-2.342-0.71204-8.6546-2.9188-2.7663-0.80709-2.6942-0.61512-1.7376-0.25784-4.7617-0.4113-1.7742-0.27662-2.4504-0.59162-3.8313-1.1981-1.7917-0.3107-1.7691-0.024732-1.7159 0.32448-0.61234 0.23576-0.96696 0.56675-1.0701 1.139-0.37301 0.71184-0.30153 0.90377-0.27043 1.6118-0.08902 1.6042 5.16e-4 4.3315-0.098307 2.5612-0.15924 1.567-0.34378 2.0114-0.56051 2.1455-0.60624 1.6897-0.7466 1.6297-1.2122 2.1331-2.1474 3.0786-2.1426 2.653-1.8988 2.1499-1.1239 1.1755-0.71296 0.66107-0.28132 0.13963-0.90314-1.3168-1.0981-1.4086-4.1579-4.9344-4.0655-4.4974-4.5666-4.818-4.1561-4.2316-8.8375-8.7924-3.6056-3.3424-2.8935-2.3774-1.3332-0.94315-1.5737-0.93122-1.8174-0.74381-1.7696-0.33097-1.8653-0.067661-2.8981 0.12835-3.1278 0.31409-2.1715 0.30497-3.1985 0.58087-3.4728 0.84162-2.7911 0.82707-4.0841 1.4827-3.2781 1.4669-5.736 2.8661-6.5677 2.9695-2.9581 1.4182-1.5787 0.91648-1.5632 1.0511-1.4402 1.1254-3.5811 3.3674-3.8806 3.3599-1.3677 1.3485-1.6939 2.1027-1.5754 2.128-1.6144 1.9642-1.4538 1.7234-1.5132 1.4846-1.5006 1.0485-1.7797 0.96786-3.5474 1.712-8.1572 3.4333-3.737 1.7392-9.2247 4.5873-2.5703 1.5575-1.2734 0.96137-2.2584 1.9996-1.8726 1.8955-2.9659 3.2646-2.008 1.9826-1.8025 1.5647-1.4536 1.1182-3.3137 2.239-5.8253 3.5051-3.807 2.0907-4.1555 2.0026-1.2587 0.50737-2.0029 0.66155-2.8015 0.63192-1.7484 0.25425-3.1378 0.24945-1.7435 0.015107-2.9887-0.27896-1.1222-0.23329-1.8863-0.54856-2.4673-0.95594-2.576-1.2004-7.029-3.5554-1.8233-0.80871-2.1127-0.80293-1.4164-0.43959-1.4441-0.35374-3.1741-0.35729-1.4511 0.072128-1.7481 0.27264-1.5356 0.38644-1.3729 0.45019-1.5028 0.59676-2.1691 1.0277-1.5978 0.86135-7.8484 4.6765-2.8792 1.5231-1.5247 0.70783-2.0664 0.78884-0.8708 0.030095-0.25883-1.9464-0.26739-1.4191-0.35863-1.4494-0.63667-2.1035-1.9155-5.2901-0.65933-1.6774-0.86674-1.8985-1.0817-1.8808-1.5216-2.0761-1.5704-1.7371-2.6259-2.6165-1.2675-1.4969-0.83091-1.3656-0.36039-0.84168-0.28986-1.0058-0.12833-0.78034-0.042691-1.161 0.2694-1.8749 0.61765-1.9141 0.54149-1.2265 1.025-1.9209 0.7457-1.1968 1.1673-1.6627 4.8752-6.2524 1.0966-1.5792 1.0436-1.6563 0.9182-1.7017 0.73608-1.7564 0.32378-1.0729 0.27623-1.4319 0.10594-1.3662-0.094875-1.9659-0.33789-1.9187-0.43395-1.6352-0.53699-1.6427-1.4236-3.6304-3.0319-6.9566-1.0896-2.2817-2.2213-4.1613-0.91502-1.8763-1.0806-2.4834-1.0952-2.8468-0.83379-2.4557-1.0007-3.423-0.10464-0.63865 0.33056-0.48257 1.4189-1.0125 7.1514-4.5341 2.6243-1.7454 2.5275-1.8052 2.3395-1.8584 2.0651-1.9172 1.6989-1.9916 1.2267-2.0907 0.66159-2.1356 0.21462-2.1835-0.14123-2.1604-0.43077-2.0693-0.67523-1.9095-1.8034-3.502-0.64272-1.7528-0.19888-1.5077 0.036364-1.6048 0.13179-1.2084 0.78136-4.2898 0.52274-2.1436 1.6241-4.7176 2.4964-7.9383 2.8662-8.6482 3.5698-11.308 0.99293-2.7311 1.5019-3.5165 1.1741-2.3731 2.1032-3.7287 2.0588-3.1489 0.97336-1.3029 1.2909-1.5231 1.4036-1.4136 1.131-0.9878 2.1724-1.6116 2.4948-1.5242 2.2964-1.187 1.9251-0.87045 3.6647-1.4273 7.6088-2.4662 0.34566-0.10194 1.9155-0.21707 6.1013-0.2857 2.0529-0.16757 2.6059-0.31509 2.3621-0.38575 6.4306-1.2187 2.2271-0.34872 2.276-0.2621 5.6659-0.4518 1.7054-0.33227 3.1682-0.92872 1.9033-0.30626 0.91031-0.03247 0.85378 0.08031 2.6128 0.70203 2.7872 0.34493 3.1883 0.092048 2.4594-0.12005 1.1918-0.12544 2.3712-0.40887 1.9267-0.5259 1.8645-0.69594 1.2712-0.64314 1.0308 4.8004 1.5677 6.3514 1.7997 9.1478 2.2862 9.411 0.70151 3.7939 0.55268 3.8678 0.25591 3.3351-0.006122 1.7543-0.083302 1.2551-0.29168 2.2155-0.95968 5.5414-0.22631 2.5571 0.10301 2.7495 0.59126 5.1066 0.38259 2.3409 0.76126 2.8965 0.64414 1.6915 0.50457 1.0533 0.6748 1.1337 0.65256 0.86185 0.6615 0.69074 0.8742 0.70006 0.83132 0.47957 1.1121 0.39552 1.5681 0.16404 1.9416-0.17142 2.6584-0.49536 3.8238-0.91251 1.8714-0.51544 3.1369-0.99013 4.5058-1.6762 1.716-0.4429 0.72611-0.078542 1.186 0.059364 0.83898 0.19118 2.467 0.96667 0.91323 0.29471 0.58929 0.11154 0.82734 0.016903 0.98828-0.25269 0.55618-0.30358 0.51149-0.40237 0.51891-0.55303 0.79716-1.2193 0.48275-1.035 0.34772-0.9363 0.48421-1.6531 1.7275-7.8359 0.92617-2.9177 0.6488-1.4853 0.70031-1.305 1.18-1.8165 1.6357-2.0574 1.5472-1.6351 1.5673-1.4454 1.8933-1.538 1.6336-1.184 1.7615-1.1561 2.0732-1.2329 3.3019-1.7404 2.2818-1.0509 4.5095-1.8764 2.7102-1.3775 2.4493-1.4854 4.7837-3.2497 2.8809-1.6866 2.2947-1.0488 7.0385-2.7911 15.382-5.5453 4.6577-1.4726 3.2522-0.91686 1.8308-0.40654 1.2129-0.19001 1.5587-0.11438 2.1013 0.09756 2.4154 0.37827 2.2603 0.5601 1.425 0.47818 1.0923 0.4479 2.1498 1.1436 1.4193 0.99314 2.0875 1.7454 2.6601 2.4776 3.408 3.4881 5.0997 5.6033 1.6994 1.6481 1.9279 1.6628 5.6106 4.282 3.3075 2.3622 2.5294 1.6052 4.8834 2.951 4.9415 2.8593 1.6664 1.1008 1.3397 1.027 1.0469 0.93048 1.1619 1.2226 0.95723 1.2654 0.79497 1.3656 0.41527 0.98732 0.27205 0.88192 0.34783 1.9529 0.044803 1.6326-0.16887 1.8162-0.28779 1.5913-0.53978 2.1049-1.5509 5.1524-0.3243 1.5373-0.24059 1.9589-0.11671 3.4265 0.099784 10.002 0.098654 2.0941 0.30577 2.4689 0.51181 2.0382 1.4014 3.1416 1.5509 2.4967 1.8392 2.5257 1.2462 1.577 2.6253 3.1262 2.4365 2.774" stroke="#bdc660"/>
    </defs>
    <g clip-path="url(#p238a8690e1)">
     <use y="243.485406" fill="#bdc660" stroke="#bdc660" xlink:href="#md9bac4cf10"/>
    </g>
   </g>
  </g>
 </g>
 <defs>
  <clipPath id="p238a8690e1">
   <rect x="7.2" y="7.2" width="357.12" height="229.09"/>
  </clipPath>
 </defs>
</svg>
