<?xml version="1.0" encoding="UTF-8"?>
<!DOCTYPE svg  PUBLIC '-//W3C//DTD SVG 1.1//EN'  'http://www.w3.org/Graphics/SVG/1.1/DTD/svg11.dtd'>
<svg width="364.57pt" height="280.51pt" version="1.1" viewBox="0 0 364.57 280.51" xmlns="http://www.w3.org/2000/svg" xmlns:xlink="http://www.w3.org/1999/xlink">
 <metadata>
  <rdf:RDF xmlns:cc="http://creativecommons.org/ns#" xmlns:dc="http://purl.org/dc/elements/1.1/" xmlns:rdf="http://www.w3.org/1999/02/22-rdf-syntax-ns#">
   <cc:Work>
    <dc:type rdf:resource="http://purl.org/dc/dcmitype/StillImage"/>
    <dc:date>2024-07-04T12:07:36.108146</dc:date>
    <dc:format>image/svg+xml</dc:format>
    <dc:creator>
     <cc:Agent>
      <dc:title>Matplotlib v3.7.1, https://matplotlib.org/</dc:title>
     </cc:Agent>
    </dc:creator>
   </cc:Work>
  </rdf:RDF>
 </metadata>
 <defs>
  <style type="text/css">*{stroke-linejoin: round; stroke-linecap: butt}</style>
 </defs>
 <g id="figure_1">
  <g id="patch_1">
   <path d="m0 280.51h364.57v-280.51h-364.57v280.51z" fill="none"/>
  </g>
  <g id="axes_1">
   <g id="PatchCollection_1">
    <defs>
     <path id="mdb50ed58d2" d="m341.46-196.45-1.0016 2.5252-0.78093 1.4999-0.31742 0.49411-0.63156 0.83966-2.1346 2.3448-0.61067 0.73123-0.52581 0.76279-0.44281 0.87073-0.29913 0.91465-0.17765 0.87624-0.60103 4.4679-0.44631 2.1561-0.22217 0.79019-0.28817 0.80542-1.2526 2.8881-0.30372 0.99104-0.38275 1.5482-0.17686-0.026991-0.79406 0.13334-2.564 0.65823-4.058 1.2445-3.9586 1.3657-1.795 0.5768-2.6508 0.7476-2.1576 0.53266-1.901 0.41646-3.9956 0.7777-9.7402 1.5681-4.4318 0.82455-6.9292 1.5852-3.5261 0.93167-2.6562 0.76969-4.3106 1.43-2.4541 0.95858-1.9057 0.92443-4.2962 2.3189-6.212 3.168-3.4564 1.8271-1.5568 0.71903-1.0159 0.41504-5.3612 2.001-2.8901 0.98294-1.8929 0.53563-4.9211 1.0584-5.8447 1.5158-5.3091 1.0828-2.1728 0.52185-2.0253 0.61806-3.9308 1.4067-1.5579 0.46767-1.197 0.29949-2.3061 0.4796-3.4 0.5241-4.5288 0.4429-4.5375 0.61295-2.5276 0.19881-2.2163 0.042068-2.8453-0.15786-2.2826-0.20489-2.9725-0.3687-4.2311-0.42715-1.9924-0.18142-0.93841-0.045902-1.776 0.062912-1.3689 0.19971-0.91899 0.24589-0.40353 0.16249-0.69175 0.39666-0.57013 0.48232-0.538 0.66447-0.19692 0.32022-0.60577 1.5511-0.33308 1.8991-0.079226 0.99207-0.050191 1.4972 0.020033 6.6516-0.084233 1.4044-0.32024 2.7145-0.63038 3.5293-0.92661 4.2797-0.71446 3.6012-1.1606 6.5813-0.28867 1.4473-0.37548 1.6446-0.38916 1.4358-0.59258 1.7506-0.58108 1.3502-0.37912 0.71553-0.45674 0.71942-0.37678 0.49562-0.70164 0.74779-1.1543 0.93809-0.81054 0.53207-1.2181 0.68225-1.192 0.5811-5.9112 2.5105-1.7343 0.81305-0.72699 0.38877-1.2615 0.81126-1.062 0.9196-0.42848 0.47172-0.55952 0.7227-0.57187 0.85712-1.027 1.7462-2.8524 5.3443-13.344 26.611-12.598 24.902-0.1595-0.14264-0.13928-0.5201-0.11433-0.76412-0.093247-1.1823-0.14731-3.9143-0.10509-1.1959-0.18741-1.0556-0.30886-0.8635-0.47752-0.61102-0.67519-0.31261-0.83695-0.07624-0.95126 0.093785-1.0301 0.21356-2.2007 0.64633-5.7255 1.9399-1.1183 0.31582-1.0896 0.24496-1.0482 0.14244-0.98999-0.002009-0.90946-0.20185-0.71076-0.37717-0.64348-0.5375-0.58778-0.66183-0.53967-0.75869-0.49553-0.83516-0.45194-0.89718-0.43053-1.0035-0.75813-2.1283-0.68141-2.2341-2.685-9.4811-1.3478-4.497-0.78756-2.4783 0.62008-0.28299 0.77004-1.1104 0.26846-0.56549 0.15551-0.38964 0.48149-1.6681 0.2914-1.8687 0.074459-2.3921-0.13453-1.591-0.15933-0.96334-0.3059-1.2554-0.5445-1.5313-0.59746-1.2188-0.69186-1.1098-0.76314-1.0083-0.63346-0.72144-0.71654-0.72708-1.1229-1.0325-1.1614-0.98755-1.0884-0.87137-1.1341-0.8121-1.3923-0.83243-1.0415-0.53512-1.4686-0.671-2.4222-0.97669-3.7662-1.4411-1.7184-0.7491-1.1544-0.58522-0.63831-0.37484-1.1289-0.8113-1.0208-0.93992-0.70916-0.80324-0.5186-0.68014-0.63911-0.99969-0.65671-1.3078-0.55198-1.3816-0.67094-2.0402-0.47412-1.6954-1.9283-7.539-0.51754-1.5156-0.41997-0.9862-0.5082-0.98965-0.4108-0.67399-0.83545-1.1292-1.0778-1.1683-1.201-1.0546-1.1062-0.78063-0.88771-0.50513-1.316-0.59835-0.96266-0.34657-1.1838-0.31036-0.85313-0.1298-0.96034-0.046986-1.0223 0.047248-1.302 0.18899-0.96496 0.23698-0.82142 0.26846-1.1708 0.46233-5.1136 2.2628-1.4885 0.5772-2.2085 0.72775-1.6254 0.42468-1.6127 0.31758-1.3573 0.17558-1.3202 0.077512-1.3318-0.035613-1.2528-0.17033-1.7514-0.58791-1.3498-0.94984-1.1085-1.2324-0.79528-1.2193-0.53711-1.2151-0.33908-1.2887-0.12038-1.3232 0.024105-0.61262 0.12905-1.0081 0.45666-1.8448 0.45999-1.1427 0.48341-0.95851 0.56555-0.96528 0.78153-1.157 0.83684-1.0787 0.84113-0.9595 4.5769-4.637 5.0003-5.4648 1.2253-1.2603 0.89533-0.85259 1.4574-1.2597 0.95159-0.73496 0.97284-0.68774 3.2686-2.1427 0.94467-0.68938 0.79558-0.66618 1.0783-1.0651 1.0439-1.2016 0.96477-1.3159 3.026-4.6267 1.561-2.6402 0.66921-1.3818 0.53484-1.4224 0.40632-1.4648 0.28032-1.4874 0.17049-1.6583 0.060224-1.6388-0.044509-2.7676-0.083315-0.96213-0.35996-1.7687-0.47624-1.3331-0.24056-0.51511-0.56219-0.99862-0.62474-0.89356-0.68824-0.7973-0.88168-0.85002-0.98556-0.84059-5.5972-4.4256-0.87165-0.7926-0.65751-0.72426-0.4417-0.63025-0.28727-0.56365-0.18508-0.5467-0.10687-0.57705-0.001482-0.79799 0.25311-0.75607 0.26331-0.2297 0.14119 0.13334 0.33666 0.027539 1.0511-0.16422 2.2008-0.61156 4.3121-1.4373 0.86094-0.24981 1.7763-0.42782 3.0569-0.58102 1.273-0.16887 1.6021-0.09082 1.1859 0.008675 3.2624 0.15356 1.6096-0.048895 1.1063-0.16349 4.1309-1.0696 1.8703-0.31539 1.1563-0.095225 1.7436 0.050358 1.6226 0.27355 2.7654 0.84884 1.3335 0.34331 1.6056 0.27124 0.69043 0.084904 0.92196 0.049137 0.93331-0.06943 0.9911-0.23632 1.0208-0.37961 0.90908-0.4184 0.92625-0.49652 0.86038-0.5257 1.8666-1.3414 1.5164-1.2447 1.2628-1.1055 5.2108-4.742 2.4933-2.1494 1.4924-1.2075 1.5281-1.1635 1.3766-0.97794 2.4441-1.5549 1.9504-1.088 1.9572-0.99593 2.5614-1.2076 6.1217-2.7485 1.5468-0.73146 2.4722-1.2708 1.2972-0.73458 2.3782-1.5141 1.2367-0.9022 1.7847-1.4919 1.3975-1.3801 1.3089-1.5249 0.89995-1.1854 0.99736-1.4399 0.89876-1.4073 0.92993-1.5638 1.1104-2.0012 1.4317-2.7605 3.2235-6.482 0.78162-1.4931 1.1999-2.0868 1.0412-1.5454 1.1586-1.4071 0.75702-0.75542 0.9618-0.82322 1.1481-0.83784 1.6081-1.0019 4.3985-2.5243 4.8655-3.1468 3.5769-2.1548 2.2741-1.2463 1.6137-0.81128 1.7845-0.76288 0.93732-0.3488 1.837-0.57166 1.4855-0.3693 1.3456-0.27879 2.5665-0.44953 2.0017-0.25597 1.3635-0.088574 4.5032 0.008261 1.6045-0.11016 1.94-0.30611 2.1905-0.51617 3.0732-0.8771 3.6027-1.1557 2.4684-0.8878 0.17593 0.52539 0.20218 1.2555 0.39914 3.714 0.1482 2.1337 0.14666 5.2698 0.16737 2.1874 0.28308 2.2399 1.6801 9.9991 1.2505 8.3979 0.59786 3.3531 0.33905 1.4826 0.59386 2.0618 0.53613 1.449 0.62537 1.3466 1.0624 1.6881 1.1286 1.2104 0.4618 0.36465 0.89234 0.54152 0.97796 0.42363 1.7248 0.47878 1.5498 0.24354 2.1037 0.15317 2.0424 0.02221 2.1194-0.066423 2.2723-0.14242 2.3983-0.21214 3.5707-0.40706 4.6655-0.66291 4.1158-0.69812 6.9093-1.2425 2.0583-0.41202 7.5878-1.6766 2.1141-0.53366 2.127-0.59561 3.1859-1.02 2.2535-0.79789 10.465-3.9889 3.6409-1.2261 1.3654-0.38488 1.3206-0.31011 1.1939-0.21713 2.3016-0.33935 1.1531-0.093839 1.7422 0.086846 1.8389 0.34718 1.3814 0.40843 1.3707 0.52983 1.531 0.75747 1.4562 0.92856 0.89981 0.70229 4.7087 4.1643 1.6422 1.3451 2.6488 2.0135 2.0476 1.4696 3.7658 2.5782 3.598 2.3663 4.4631 2.8429 4.2265 2.579 3.7908 2.1861 2.0814 1.1275 2.0046 1.0107 2.4949 1.0988 1.392 0.48938 1.0027 0.25325 0.42055-0.032368" stroke="#bdc660"/>
    </defs>
    <g clip-path="url(#p9a3b53331c)">
     <use y="280.512" fill="#bdc660" stroke="#bdc660" xlink:href="#mdb50ed58d2"/>
    </g>
   </g>
  </g>
 </g>
 <defs>
  <clipPath id="p9a3b53331c">
   <rect x="7.2" y="7.2" width="350.17" height="266.11"/>
  </clipPath>
 </defs>
</svg>
