<?xml version="1.0" encoding="UTF-8"?>
<!DOCTYPE svg  PUBLIC '-//W3C//DTD SVG 1.1//EN'  'http://www.w3.org/Graphics/SVG/1.1/DTD/svg11.dtd'>
<svg width="267.58pt" height="280.51pt" version="1.1" viewBox="0 0 267.58 280.51" xmlns="http://www.w3.org/2000/svg" xmlns:xlink="http://www.w3.org/1999/xlink">
 <metadata>
  <rdf:RDF xmlns:cc="http://creativecommons.org/ns#" xmlns:dc="http://purl.org/dc/elements/1.1/" xmlns:rdf="http://www.w3.org/1999/02/22-rdf-syntax-ns#">
   <cc:Work>
    <dc:type rdf:resource="http://purl.org/dc/dcmitype/StillImage"/>
    <dc:date>2024-07-04T12:07:30.047824</dc:date>
    <dc:format>image/svg+xml</dc:format>
    <dc:creator>
     <cc:Agent>
      <dc:title>Matplotlib v3.7.1, https://matplotlib.org/</dc:title>
     </cc:Agent>
    </dc:creator>
   </cc:Work>
  </rdf:RDF>
 </metadata>
 <defs>
  <style type="text/css">*{stroke-linejoin: round; stroke-linecap: butt}</style>
 </defs>
 <g id="figure_1">
  <g id="patch_1">
   <path d="m0 280.51h267.58v-280.51h-267.58v280.51z" fill="none"/>
  </g>
  <g id="axes_1">
   <g id="PatchCollection_1">
    <defs>
     <path id="mea562e858a" d="m233.55-143.92 0.092886 0.2043-0.26824 0.74659-1.9007 3.6545-0.56172 1.232-0.49454 1.3804-0.27316 1.2992-0.042507 0.83172 0.023504 0.3868 0.483 1.7664 0.78659 1.4693 1.2036 1.7482 1.1181 1.4497 4.8012 5.8071 2.5044 3.1338 2.7266 3.689 2.3516 3.4567 1.5979 2.5994 0.62794 1.3221 0.39257 1.2088 0.12856 0.74883 0.022835 0.61745-0.067824 0.60961-0.4882 1.274-0.83561 1.1889-2.1575 2.3274-1.0722 1.2387-0.96279 1.4651-0.30931 0.65827-0.31432 0.86068-0.32571 1.2824-0.6561 4.5448-0.19736 1.0516-0.38198 1.3995-0.54063 1.3328-0.89733 1.7179-2.6487 4.6719-0.4689 0.72874-3.5519 4.4207-1.6707 1.9416-1.5667 1.572-1.1208 0.98132-1.9959 1.4536-1.0349 0.65878-2.197 1.2692-8.6466 4.4429-1.3414 0.81422-0.76433 0.57044-0.18614 0.32827-0.007238 0.15512-0.22433 0.095398-0.7945-0.11371-0.73793-0.2197-1.1791-0.42585-5.0335-2.0274-1.6561-0.60845-7.0455-2.4832-2.5073-0.76729-1.3712-0.29645-1.5125-0.1422-0.69927 0.023705-0.86674 0.13077-1.3255 0.46345-1.2188 0.72637-1.4076 1.2163-0.93015 1.0421-1.083 1.4659-4.9655 7.491-1.3175 1.7895-1.1215 1.2261-1.5254 1.3727-1.7011 1.3042-2.4943 1.7092-1.9172 1.1549-1.1039 0.51967-1.0152 0.27626-0.94212 0.036354-0.65712-0.11633-0.35585-0.11904-0.23029-0.10132-1.0301-0.71899-1.7709-1.9306-0.9277-0.86447-0.57602-0.36541-0.63076-0.24443-1.3725-0.081463-1.4081 0.36961-0.77214 0.38365-0.51602 0.34066-0.65891 0.53759-0.64594 0.68882-0.97884 1.3934-2.0238 3.4556-2.6683 4.1462-1.0301 1.7394-1.0789 2.1062-2.1918 5.0157-1.0212 2.1931-1.1232 2.1797-0.67266 1.0996-0.87421 1.1476-1.5906 1.4523-0.78084 0.52846-1.5823 0.81383-1.1739 0.42527-1.2233 0.30091-0.97312 0.13705-1.591 0.036792-1.1261-0.08497-1.272-0.17674-1.5937-0.30885-5.2568-1.2903-3.7634-0.80022-3.0616-0.40658-2.8207-0.13434-3.4115 0.096462-4.5765 0.26038-6.6001 0.29202-3.8775 0.2545-3.0726 0.33663-1.929 0.30775-2.424 0.53535-1.2081 0.35946-0.29617 0.17124-0.32344 0.14616-0.61368-0.1028-0.77064-0.34652-0.8286-0.54963-0.43606-0.36108-1.1586-1.2134-0.85313-1.0929-0.88757-1.2665-1.4172-2.2178-1.3845-2.4086-0.82023-1.5593-1.1341-2.3416-1.447-3.4145-0.98361-2.7334-0.7591-2.3776-2.3408-8.408-0.81021-2.5779-0.65996-1.7282-1.0618-2.4727-3.6182-7.8163-1.0173-2.3839-1.2689-3.202-1.512-4.3034-3.2321-10.333-1.5343-4.458-0.6279-1.6726-1.5906-3.7803-0.80374-1.6714-1.386-2.578-0.99162-1.706-2.128-3.4576-2.7012-4.1005-2.9838-4.8224-0.97482-1.3818-1.0461-1.2507-0.71471-0.69174-0.87688-0.66002-0.86259-0.48986-0.95108-0.40368-0.87115-0.26605-2.4399-0.48463-2.7068-0.23057-0.99754-0.13623-1.447-0.34299-1.0299-0.37686-0.75894-0.47244-0.57542-0.60326-0.38702-0.64415-0.15099-0.44822 0.01181-0.53804 0.18628-0.51776 0.079146-1.1176-0.001324-2.1621-0.14526-2.5606-0.28497-2.5087-0.48434-2.738-2.023-9.0283-0.52202-2.8991-0.43231-2.9034-0.62601-5.261-0.23445-2.5893-0.20258-3.1126-0.081165-3.0365 0.052541-2.3882 0.19304-2.3131 0.15381-1.0795 0.16048-0.8758 0.70334-2.6499 0.99894-2.438 1.31-2.1694 1.6601-1.8261 1.4285-1.0599 1.5999-0.8784 2.2302-0.91205 2.3965-0.73371 2.1335-0.51619 2.2-0.44174 4.5665-0.73694 11.869-1.5839 4.7052-0.77606 2.056-0.44482 1.9841-0.55 1.8932-0.69626 2.2415-1.1348 2.3617-1.5954 1.8748-1.5793 1.751-1.7688 1.1721-1.407 0.99553-1.4247 0.96965-1.7128 1.6979-3.4632 2.2055-4.2093 0.76387-1.8443 2.7117-7.6421 0.83481-2.0778 0.7485-1.6979 1.4736-2.8846 2.7054-4.5667 1.5645-2.9036 0.90787-2.1188 0.80279-2.1902 1.734-5.1488 0.74388-1.9727 0.87141-1.9602 1.1539-2.1268 1.3269-2.0881 1.6569-2.328 1.4468-1.8953 5.4289-6.8912 0.68443-0.97658 0.54912-0.89529 0.1732-0.58969 0.21873 0.17133 0.60881 0.17132 2.2639 0.33619 1.7995 0.53005 1.6202 0.86934 1.661 1.227 1.573 1.3839 1.1892 1.1377 5.8108 5.941 1.7301 1.6877 1.7453 1.5593 3.3346 2.6365 1.5198 1.3178 0.98523 1.0325 0.9118 1.1183 1.4646 2.1067 6.8545 11.199 1.7066 2.5743 3.2105 4.5799 2.7586 3.5621 1.8019 2.0732 1.8815 1.9312 2.0388 1.8104 2.4367 1.8669 3.5137 2.4436 2.1263 1.2044 2.3104 0.84077 8.6408 2.0939 7.573 2.4228 2.3945 0.88695 1.2797 0.68899 0.87748 0.84766 0.20448 0.38204 0.14074 0.47258 0.022295 0.85689-0.23297 1.0901-0.43695 1.2558-1.1037 2.6291-0.42515 1.2145-0.27879 1.09-0.18307 1.2758-0.015803 1.0756 0.21131 1.5676 0.44433 1.4367 0.45218 0.99494 0.80546 1.3922 0.60517 0.88873 2.4745 3.2653 2.0233 2.9158 0.84321 1.0982 1.3663 1.553 2.5432 2.6204 1.3534 1.4691 0.776 0.92088 2.6328 3.3752 2.8787 3.5279 1.7352 1.9359 1.5507 1.5557 1.2264 0.96181 1.6643 0.9271 1.6582 0.67545 2.8606 0.8783 6.7497 1.8376 1.9813 0.65072 1.5321 0.60293 3.453 1.577 3.0885 1.4974 1.9182 1.0774 0.43199 0.28502 0.20234 0.21429" stroke="#bdc660"/>
    </defs>
    <g clip-path="url(#pe710f0fd0e)">
     <use y="280.512" fill="#bdc660" stroke="#bdc660" xlink:href="#mea562e858a"/>
    </g>
   </g>
  </g>
 </g>
 <defs>
  <clipPath id="pe710f0fd0e">
   <rect x="7.2" y="7.2" width="253.18" height="266.11"/>
  </clipPath>
 </defs>
</svg>
