<?xml version="1.0" encoding="UTF-8"?>
<!DOCTYPE svg  PUBLIC '-//W3C//DTD SVG 1.1//EN'  'http://www.w3.org/Graphics/SVG/1.1/DTD/svg11.dtd'>
<svg width="371.52pt" height="258.37pt" version="1.1" viewBox="0 0 371.52 258.37" xmlns="http://www.w3.org/2000/svg" xmlns:xlink="http://www.w3.org/1999/xlink">
 <metadata>
  <rdf:RDF xmlns:cc="http://creativecommons.org/ns#" xmlns:dc="http://purl.org/dc/elements/1.1/" xmlns:rdf="http://www.w3.org/1999/02/22-rdf-syntax-ns#">
   <cc:Work>
    <dc:type rdf:resource="http://purl.org/dc/dcmitype/StillImage"/>
    <dc:date>2024-07-04T12:07:17.214009</dc:date>
    <dc:format>image/svg+xml</dc:format>
    <dc:creator>
     <cc:Agent>
      <dc:title>Matplotlib v3.7.1, https://matplotlib.org/</dc:title>
     </cc:Agent>
    </dc:creator>
   </cc:Work>
  </rdf:RDF>
 </metadata>
 <defs>
  <style type="text/css">*{stroke-linejoin: round; stroke-linecap: butt}</style>
 </defs>
 <g id="figure_1">
  <g id="patch_1">
   <path d="m0 258.37h371.52v-258.37h-371.52v258.37z" fill="none"/>
  </g>
  <g id="axes_1">
   <g id="PatchCollection_1">
    <defs>
     <path id="mae579d9e71" d="m321.06-143.3 1.0861 4.4954 1.8049 9.412 1.0331 4.7954 1.17 4.2871 1.2913 3.7942 1.484 3.7286 2.5042 5.4872 7.2663 13.958 2.5571 5.402 1.5485 3.9917 0.66152 2.0361 1.0374 4.0017 0.82099 4.0867 0.68374 4.1555 1.0738 8.2577 0.85285 9.1422 0.1499 4.8006-0.26734 4.6416-0.73612 4.2446-0.5259 1.884-0.62933 1.6886-0.57764 1.1887-0.35413 0.43219-0.44712 1.044-1.5269 1.9749-3.0713 3.0028-3.29 2.4581-3.1099 1.7025-1.3833 0.56151-2.4325 0.70465-2.729 0.47467-7.8939 0.6518-3.9018 0.1461-4.2738-0.016894-2.7717-0.13411-4.6739-0.47625-2.3469-0.37567-7.446-1.5854-3.4825-0.55286-6.0648-0.27162-5.6086 0.38939-13.653 1.6229-38.02 3.407-8.762 0.36877-6.4838-0.19042-4.0732-0.43699-2.2206-0.37598-2.4459-0.56813-4.0053-1.3941-2.294-1.1-2.9281-1.7979-2.2974-1.7749-1.9705-1.7386-7.4513-7.1192-3.0085-2.4251-1.8256-1.2719-2.786-1.6335-3.1184-1.3655-3.0158-0.87539-3.7523-0.56647-3.5762-0.11718-5.4316 0.38059-6.1263 0.95105-5.9556 1.3072-3.4517 0.96408-5.3558 1.7635-14.409 5.5229-6.3127 2.2852-5.3074 1.6238-4.8664 1.1118-2.6236 0.41943-3.5164 0.35724-5.2055 0.082713-3.1153-0.16067-3.7122-0.37121-6.6492-1.0528-4.0772-0.93422-4.7097-1.4574-4.1601-1.6645-4.0743-2.1214-3.9706-2.6405-4.647-3.5921-9.9022-8.5759-2.4844-2.0334-3.1973-2.1423-1.6772-0.31064-4.0042-0.98715-0.7223-0.33418-0.37322-0.34377-0.6143-1.2222-2.4696-7.053-0.41544-0.54382-0.93312-1.8633-1.2216-3.0918-1.173-4.0711-0.55627-3.4916 0.050363-3.9184 0.3013-1.6632 0.38954-1.3889 1.3559-3.1566 1.1161-1.8803 1.4182-2.0025 2.0558-2.5036 2.5975-2.7661 2.9206-2.7832 2.6109-2.155 3.4929-2.4216 8.6498-5.1651 3.9398-2.4979 5.746-3.9537 5.9097-4.2877 8.8929-6.5964 5.5196-4.3589 6.0941-5.2707 4.4712-4.3372 2.4773-2.6179 4.5624-5.3018 5.106-6.6338 4.0086-5.7762 2.7109-4.5757 2.0848-4.1947 4.3822-9.6654 1.9306-3.6852 2.7914-4.3364 2.8947-3.5202 2.616-2.5972 2.6345-2.2532 2.7906-2.1261 3.0781-2.1373 3.1826-2.0583 13.683-8.2972 8.9781-5.7427 4.8901-2.8728 5.0378-2.5059 9.8006-4.3953 2.8965-1.4472 2.6554-1.6071 3.2311-2.5787 5.2858-5.1474 4.4061-4.5657 4.772 4.3999 5.2898 5.2738 2.6663 2.8138 5.5487 6.288 1.9786 2.0315 2.0962 1.9218 2.1826 1.804 3.0132 2.2198 5.7398 3.6989 2.9702 2.1857 2.8459 2.4575 2.6829 2.6727 2.4696 2.8498 2.1897 3.0059 1.8226 3.1563 1.7473 4.1681 1.0237 3.4604 0.79486 3.6053 2.0363 10.929 0.88931 3.4236 0.80638 2.2954 1.0033 2.1176 1.2574 1.8889 0.8949 1.0013 1.5226 1.3518 1.3587 0.99322 2.147 1.3258 2.8923 1.454 3.7838 1.4039 4.0981 0.88349 3.6807 0.33409 3.5513-0.035819 4.4063-0.55487 4.3214-1.1163 3.4695-1.1981 7.639-2.892 3.4901-1.0751 2.8369-0.52508 1.5716-0.074277 1.7058 0.16981 1.5935 0.47764 1.5285 0.84735 1.2909 1.0692 1.315 1.4881 0.66671 0.93918 0.92018 1.5513 0.96705 2.0443 0.76037 2.0276 1.7424 6.2207" stroke="#bdc660"/>
    </defs>
    <g clip-path="url(#p48136b8957)">
     <use y="258.365488" fill="#bdc660" stroke="#bdc660" xlink:href="#mae579d9e71"/>
    </g>
   </g>
  </g>
 </g>
 <defs>
  <clipPath id="p48136b8957">
   <rect x="7.2" y="7.2" width="357.12" height="243.97"/>
  </clipPath>
 </defs>
</svg>
