<?xml version="1.0" encoding="UTF-8"?>
<!DOCTYPE svg  PUBLIC '-//W3C//DTD SVG 1.1//EN'  'http://www.w3.org/Graphics/SVG/1.1/DTD/svg11.dtd'>
<svg width="363.76pt" height="280.51pt" version="1.1" viewBox="0 0 363.76 280.51" xmlns="http://www.w3.org/2000/svg" xmlns:xlink="http://www.w3.org/1999/xlink">
 <metadata>
  <rdf:RDF xmlns:cc="http://creativecommons.org/ns#" xmlns:dc="http://purl.org/dc/elements/1.1/" xmlns:rdf="http://www.w3.org/1999/02/22-rdf-syntax-ns#">
   <cc:Work>
    <dc:type rdf:resource="http://purl.org/dc/dcmitype/StillImage"/>
    <dc:date>2024-07-04T12:07:19.398476</dc:date>
    <dc:format>image/svg+xml</dc:format>
    <dc:creator>
     <cc:Agent>
      <dc:title>Matplotlib v3.7.1, https://matplotlib.org/</dc:title>
     </cc:Agent>
    </dc:creator>
   </cc:Work>
  </rdf:RDF>
 </metadata>
 <defs>
  <style type="text/css">*{stroke-linejoin: round; stroke-linecap: butt}</style>
 </defs>
 <g id="figure_1">
  <g id="patch_1">
   <path d="m0 280.51h363.76v-280.51h-363.76v280.51z" fill="none"/>
  </g>
  <g id="axes_1">
   <g id="PatchCollection_1">
    <defs>
     <path id="mc806764026" d="m240.58-197.03 1.6409-0.55266 3.4756-0.63275 2.1653-0.14077 2.1371 0.1122 1.2015 0.21792 1.129 0.35022 1.8544 0.99027 4.7954 3.863 1.7445 0.89407 1.8 0.39911 1.9832 0.095253 8.0113-0.36514 10.633-0.093343 3.5869-0.50265 3.3833-0.95212 1.4066-0.26209 1.2559-0.006693 0.96327 0.14489 2.4343 0.89169 1.8348 1.0808 2.2379 1.7077 2.0512 1.8916 1.6731 1.7777 1.6491 1.962 2.0556 2.7973 5.5292 8.6651 1.3104 1.5418 1.1166 1.0406 1.418 1.0399 1.657 0.96358 7.7467 3.5446 2.7951 1.5404 1.4966 1.0039 2.3201 1.9014 2.1563 2.2485 1.8582 2.415 1.4473 2.2418 1.1632 2.0924 0.98276 2.3528-4.1011 1.8601-2.822 1.5061-4.2307 2.5686-3.1663 2.2457-2.9224 2.4511-2.5367 2.6454-2.0157 2.8504-1.5381 3.3771-2.0299 7.0937-1.135 3.4971-1.9694 4.2189-2.9113 5.2993-3.461 5.7618-1.4864 2.207-1.9448 2.5498-2.0683 2.1282-1.3408 0.93381-1.2147 0.51676-5.2978 1.041-1.2936 0.39213-1.8079 0.81382-2.0777 1.23-12.617 8.9916-5.0826 3.3924-4.9373 2.9945-8.9405 4.601-3.3636 1.9175-7.1062 4.523-6.3529 4.553-3.0685 2.4501-4.4693 4.0121-2.6046 2.6593-2.3322 2.7253-1.9547 2.7697-1.4483 2.7821-0.80458 2.7445-0.13593 2.0426 0.19416 2.0144 0.83744 4.218-2.4636 1.2464-3.6134 1.3487-3.734 1.0192-4.5954 0.7924-2.3096 0.2431-4.7664 0.23267-6.179-0.17839-5.4017-0.66848-5.0636-1.3605-1.6546-0.15564-1.7642 0.062927-3.6886 0.59354-6.14 1.7999-3.3051 0.64394-10.98 0.87559-4.4109 0.50796-4.3162 0.67582-12.463 2.3618-4.5778 0.74759-5.0503 0.61064-3.9785 0.32476-11.824 0.55368-3.7122 0.42069-0.66989 0.19755-3.1486-11.728-3.2563-11.479-3.1891-10.255-3.4582-10.316-32.233-91.708-3.7184-10.834-6.0641-18.584-2.6222-7.5539-4.2853-11.603-13.505-35.243-7.8962-21.742 0.26576-0.4976 0.50545-0.26838 0.48163-0.1091 1.5528 0.009866 2.5754 0.47669 1.6417 0.49041 2.8677 1.0943 10.508 5.3458 3.576 1.4867 3.427 1.2127 3.4942 0.92876 4.2599 0.55851 5.2849-0.12133 4.027-0.59124 4.5369-0.98692 3.1765-0.50931 2.7538-0.12204 3.2332 0.20891 2.2314 0.31131 3.5905 0.72262 5.2773 1.534 3.957 1.7371 4.0043 2.4373 2.7455 2.0691 3.3422 3.0574 2.7895 3.1391 1.9979 2.8006 1.6324 2.7456 1.4301 2.8409 4.9867 11.601 3.2091 6.1 3.3657 5.2371 2.4749 3.3366 10.076 12.768 6.1867 7.352 4.9029 5.4938 3.6115 3.8091 4.7445 4.5243 2.524 2.067 2.4734 1.6942 1.766 0.95265 3.7665 1.1867 2.0165 0.12201 1.7558-0.16267 4.4921-0.79025 7.9485-0.93414 4.4962-0.91753 3.3016-1.0758 4.3276-1.8848 6.9453-3.838 9.1535-5.7907 7.1601-5.1325 6.4276-4.9852 5.6881-4.2099 5.5609-3.6707 2.3088-1.3177 0.66042-0.22533" stroke="#bdc660"/>
    </defs>
    <g clip-path="url(#p5db4fd5b61)">
     <use y="280.512" fill="#bdc660" stroke="#bdc660" xlink:href="#mc806764026"/>
    </g>
   </g>
  </g>
 </g>
 <defs>
  <clipPath id="p5db4fd5b61">
   <rect x="7.2" y="7.2" width="349.36" height="266.11"/>
  </clipPath>
 </defs>
</svg>
