<?xml version="1.0" encoding="UTF-8"?>
<!DOCTYPE svg  PUBLIC '-//W3C//DTD SVG 1.1//EN'  'http://www.w3.org/Graphics/SVG/1.1/DTD/svg11.dtd'>
<svg width="315.43pt" height="280.51pt" version="1.1" viewBox="0 0 315.43 280.51" xmlns="http://www.w3.org/2000/svg" xmlns:xlink="http://www.w3.org/1999/xlink">
 <metadata>
  <rdf:RDF xmlns:cc="http://creativecommons.org/ns#" xmlns:dc="http://purl.org/dc/elements/1.1/" xmlns:rdf="http://www.w3.org/1999/02/22-rdf-syntax-ns#">
   <cc:Work>
    <dc:type rdf:resource="http://purl.org/dc/dcmitype/StillImage"/>
    <dc:date>2024-07-04T12:07:26.760361</dc:date>
    <dc:format>image/svg+xml</dc:format>
    <dc:creator>
     <cc:Agent>
      <dc:title>Matplotlib v3.7.1, https://matplotlib.org/</dc:title>
     </cc:Agent>
    </dc:creator>
   </cc:Work>
  </rdf:RDF>
 </metadata>
 <defs>
  <style type="text/css">*{stroke-linejoin: round; stroke-linecap: butt}</style>
 </defs>
 <g id="figure_1">
  <g id="patch_1">
   <path d="m0 280.51h315.43v-280.51h-315.43v280.51z" fill="none"/>
  </g>
  <g id="axes_1">
   <g id="PatchCollection_1">
    <defs>
     <path id="me2796b905f" d="m180.06-229.64 1.9405-0.10101 5.1362-0.021102 6.9137-0.13585 3.9599 0.045871 2.7789 0.13088 2.4792 0.28601 1.5829 0.27586 5.4369 1.1565 3.8937 0.73826 4.0174 0.8649 1.5709 0.21608 1.0085 0.069966 1.5561-0.018633 1.7609-0.16885 1.1722-0.17744 2.7792-0.57105 1.3059-0.16802 1.3042-0.034089 4.2581 0.46714 1.2054 0.008428 1.1681-0.078427 1.8784-0.26292 2.0104-0.45067 1.2784-0.39933 0.78329-0.30338 0.83316-0.39607 0.76117-0.46322 0.64225-0.51944 0.60479-0.75682 0.21612-0.5412 0.091515-0.52934 0.056749-1.4596 0.20925-0.94475 0.29192-0.56686 0.41515-0.54913 0.63409-0.63397 1.8995-1.6437 1.6229-1.2918 2.0673-1.4032 1.6266-0.88297 0.99159-0.4334 1.3708-0.47419 2.4903-0.77 1.0913-0.48021 0.48565-0.32491 0.070267-0.14518 0.49243-0.71233 1.1678-0.87855 1.5783-0.81841 1.7974-0.55195 1.4678-0.1463 1.4501 0.11348 1.3952 0.36054 1.0832 0.48342 0.95466 0.62514 1.1561 1.2038 0.26534 0.42207 0.39413 0.84151 0.28356 0.84775 0.96545 3.6672 0.27192 0.75098 0.47212 1.1065 0.4931 0.94978 0.89892 1.3857 4.1616 5.5714 1.022 1.2839 1.1763 1.3695 1.239 1.3258 2.3057 2.2737 2.0031 2.1372 2.3316 2.791 0.8814 1.2398 0.6732 1.3155 0.14804 0.43448 0.20656 0.90798 0.09808 1.2102-0.022755 0.75864-0.18776 1.4316-0.20911 0.92484-0.72558 2.2446-1.6309 4.2383-0.38132 1.3518-0.27076 1.3645-0.21667 2.1704 0.025686 4.3235-0.13473 1.3096-0.34371 1.3113-0.7399 1.5603-3.9198 5.9646-1.0356 1.7403-0.81983 1.5796-0.68981 1.6063-1.82 4.5693-0.96309 2.2435-0.89415 1.9326-2.8103 5.7672-1.0639 2.4297-0.482 1.3046-0.4443 1.468-0.32702 1.4454-0.1672 1.0757-0.11721 2.1029 0.15946 2.1106 0.17087 0.98932 0.32277 1.3524 0.63437 1.9874 0.82473 2.0576 0.65601 1.4357 3.427 6.7442 0.8839 1.8623 0.90795 2.1984 0.55668 1.6917 0.40516 1.7308 0.22275 1.8626 0.023105 0.89532-0.041744 1.0118-0.2208 1.5671-0.25271 0.98948-0.34179 0.94608-0.34605 0.72862-0.57712 0.92908-0.96775 1.1003-0.758 0.61644-0.73501 0.4727-1.2953 0.63799-1.1252 0.4167-2.0203 0.54442-2.836 0.50672-2.8939 0.35601-7.6038 0.77452-3.6251 0.47053-2.6048 0.41768-1.9617 0.37805-1.91 0.43799-1.9222 0.53141-1.5397 0.51012-1.3954 0.54544-1.4809 0.68505-1.3782 0.76242-0.79332 0.50898-1.5918 1.2227-1.3354 1.3043-0.79476 0.93887-1.0673 1.5003-0.61656 1.0119-0.8155 1.5346-1.139 2.5922-1.118 3.2317-0.65224 2.3415-0.54432 2.4367-0.40079 2.4541-0.22715 2.2433-0.076579 1.7631 0.052848 2.2179 0.23719 1.9794 0.30474 1.3308 0.43521 1.2221 0.66445 1.2511 1.0191 1.4587 1.0551 1.2566 1.2139 1.1371 0.73468 0.54267 1.1392 0.69813 1.223 0.62304 2.2807 0.9642 3.252 1.2541 2.3734 1.0251 2.3721 1.1204 6.097 3.0075 6.5683 2.9046 1.1367 0.64838 3.2181 2.0303 1.5201 0.87492 1.6084 0.70973 2.228 0.55473 2.363 0.2573 5.7895 0.3439 1.832 0.22942 1.1211 0.2322 1.717 0.62463 1.1249 0.74247 1.2465 1.49 0.89909 1.8846 0.60115 2.0827 0.34156 2.0418 0.11335 1.6881-0.098471 0.9309-0.8988 0.22764-2.3155 0.81462-3.8633 1.5709-2.1569 0.99371-4.6012 2.2717-3.6402 1.7009-5.2815 2.3256-4.0428 1.662-4.1571 1.5627-2.8083 0.92128-1.8055 0.51557-4.2366 1.0179-7.4881 1.5877-2.2758 0.41883-2.4785 0.3015-1.7767 0.083445-2.6667-0.081752-1.6658-0.14885-8.7139-1.1932-2.9752-0.31307-1.9506-0.12179-1.9598-0.053124-1.877 0.011797-1.8829 0.076201-3.1125 0.28145-1.8247 0.26459-1.4068 0.26345-2.7697 0.64679-11.658 3.3405-4.7653 1.2818-7.3076 1.864-1.7334 0.52033-0.29271 0.1412-0.28821-0.27225-0.30982-0.60773-0.46766-1.2096-0.41519-1.2963-0.79228-3.2903-1.9508-9.2474-0.36504-1.4919-0.97125-3.5739-0.57676-1.8033-1.0684-2.5262-1.357-2.4228-1.0426-1.5277-1.316-1.7246-3.563-4.4249-2.2271-2.9689-1.8706-2.719-3.1091-4.9024-1.0596-1.4714-1.0536-1.2264-1.2966-1.221-1.5069-1.1336-2.0645-1.2502-1.1995-0.58761-1.2342-0.50098-3.8728-1.244-6.2395-1.7677-2.4473-0.55547-2.1157-0.37686-2.3008-0.28375-1.6899-0.11817-5.0475 0.032352-2.4492-0.096777-2.5115-0.17448-3.3383-0.34197-5.292-0.77789-2.0057-0.20736-1.3065-0.059006-1.266 0.007009-1.8893 0.13731-1.6621 0.23622-1.7442 0.36668-0.79759 0.22885-0.97054 0.34646-0.9317 0.41669-0.88724 0.49308-0.58863 0.39296-1.2799 1.0751-1.2243 1.2953-3.1625 3.9641-1.5396 1.7027-0.88852 0.82864-1.1298 0.90837-1.1607 0.77643-0.72122 0.40572-1.2704 0.57891-0.77145 0.28105-1.2225 0.33713-2.2558 0.45322-1.2182 0.178-1.0671 0.066284-0.67511-0.019558-0.99354-0.12709-1.1886-0.2717-1.612-0.49344-3.5393-1.2765-1.5765-0.68247-1.5311-0.75485-2.3764-1.3887-2.1021-1.44-2.1301-1.7258-1.8079-1.6654-3.5269-3.4151-1.4502-1.3167-1.4954-1.2211-1.4166-0.98771-1.49-0.83087-0.67962-0.30412-1.5267-0.53757-1.6846-0.40961-1.2729-0.21164-3.2701-0.31028-3.2761-0.1863-2.8028-0.22242-2.6027-0.35612-1.5063-0.29013-2.4892-0.64262-1.2621-0.42334-1.6012-0.67995-1.1828-0.699-0.7571-0.68617-0.43567-0.66959-0.14048-0.39016-0.08066-0.47984 4.16e-4 -0.42536 0.11499-0.71002 0.57694-1.683 1.9251-4.2997 1.1022-2.6267 0.26608-0.87401-0.16978-0.68165 0.59731 0.24872 0.935-0.012097 1.3595-0.27685 1.1809-0.43726 1.5878-0.87307 1.5664-1.1822 1.2455-1.1916 0.68706-0.77092 0.76277-0.97288 1.2187-1.8779 0.71004-1.3107 2.3512-4.815 0.72683-1.276 0.7021-1.0668 1.3496-1.6853 1.1176-1.1438 1.3841-1.175 1.2693-0.87083 1.1591-0.64758 1.2282-0.58101 1.1303-0.46541 1.4074-0.48727 2.3531-0.62535 4.4486-1.0053 2.1542-0.59485 1.6803-0.58236 1.0815-0.44906 1.6933-0.80287 5.158-2.8424 2.1176-1.0702 2.1927-1.0311 2.0425-0.87219 2.8527-1.1252 3.8886-1.3706 5.9155-2.1704 2.2076-0.97376 2.0519-0.97962 3.0301-1.6284 3.2595-1.9218 6.1773-4.1164 5.3617-3.3692 1.357-0.98274 1.8835-1.6121 0.74245-0.76477 0.50633-0.60111 0.68939-1.0082 0.43622-0.8784 0.19095-0.52688 0.22406-0.88526 0.17359-1.4387-0.0072-1.8669-0.58018-5.9524-0.075701-1.4053-0.005396-1.3634 0.14485-1.8856 0.46838-3.6866 0.094515-1.7917-0.063022-1.2099-0.20163-1.3788-0.2286-0.89698-0.60353-1.6557-1.3834-3.1772-0.40278-1.2986-0.15977-0.87831-0.095443-1.2026-0.006679-0.97544 0.21498-4.5089 0.024588-1.4051-0.10766-2.5751-0.29203-4.2783-0.28862-2.4124-0.65578-2.3953-0.57786-1.2649-0.7338-1.2663-1.5078-2.1279-1.0683-1.3331-6.2883-7.3926-1.9529-2.5582-0.33214-0.55228-0.019888-0.18083 0.18514 0.024311 1.0093-0.43407 0.98173-0.53376 1.5496-0.93754 2.6835-1.8145 1.8123-1.3533 1.5453-1.246 1.7216-1.5071 1.7115-1.6385 1.428-1.4852 1.7311-1.9649 1.1509-1.4271 1.2535-1.6928 0.87853-1.2957 0.88443-1.4288 0.8027-1.4442 0.67266-1.3508 1.1143-2.5659 2.9236-7.7857 0.77421-1.6812 0.86044-1.4764 1.2175-1.4123 1.0484-0.69601 1.1297-0.38657 0.8683-0.097705 0.90502 0.021971 1.3862 0.17122 1.4476 0.33052 0.49203 0.14901 1.8958 0.75062 1.5746 0.90428 1.3323 0.90663 1.167 0.8673 1.1318 0.90378 1.5423 1.3551 1.1388 1.108 1.2196 1.294 1.634 1.9798 1.1074 1.6696 0.52935 1.0409 0.32122 0.8466 0.36266 1.7895 0.059361 2.0303-0.16253 2.1343-0.48314 4.2796-0.051279 1.0357 0.017266 1.0074 0.14718 1.2406 0.47888 1.6893 0.52613 0.9481 0.6051 0.74899 0.72279 0.71416 1.8137 1.5274 1.2006 0.89908 2.4576 1.661 1.6258 0.97647 1.2174 0.65863 1.3679 0.66429 1.3935 0.58974 2.3719 0.76998 1.8864 0.35126 1.8354 0.087903 1.3373-0.14064 1.1652-0.30779 1.6341-0.78393 1.7565-1.3065 0.9779-0.93619 0.89888-0.99686 1.3989-1.84 0.86303-1.3808 0.25558-0.50835 0.060627-0.32638" stroke="#bdc660"/>
    </defs>
    <g clip-path="url(#p5553647ec7)">
     <use y="280.512" fill="#bdc660" stroke="#bdc660" xlink:href="#me2796b905f"/>
    </g>
   </g>
  </g>
 </g>
 <defs>
  <clipPath id="p5553647ec7">
   <rect x="7.2" y="7.2" width="301.03" height="266.11"/>
  </clipPath>
 </defs>
</svg>
