<?xml version="1.0" encoding="UTF-8"?>
<!DOCTYPE svg  PUBLIC '-//W3C//DTD SVG 1.1//EN'  'http://www.w3.org/Graphics/SVG/1.1/DTD/svg11.dtd'>
<svg width="247.94pt" height="280.51pt" version="1.1" viewBox="0 0 247.94 280.51" xmlns="http://www.w3.org/2000/svg" xmlns:xlink="http://www.w3.org/1999/xlink">
 <metadata>
  <rdf:RDF xmlns:cc="http://creativecommons.org/ns#" xmlns:dc="http://purl.org/dc/elements/1.1/" xmlns:rdf="http://www.w3.org/1999/02/22-rdf-syntax-ns#">
   <cc:Work>
    <dc:type rdf:resource="http://purl.org/dc/dcmitype/StillImage"/>
    <dc:date>2024-07-04T12:07:15.864127</dc:date>
    <dc:format>image/svg+xml</dc:format>
    <dc:creator>
     <cc:Agent>
      <dc:title>Matplotlib v3.7.1, https://matplotlib.org/</dc:title>
     </cc:Agent>
    </dc:creator>
   </cc:Work>
  </rdf:RDF>
 </metadata>
 <defs>
  <style type="text/css">*{stroke-linejoin: round; stroke-linecap: butt}</style>
 </defs>
 <g id="figure_1">
  <g id="patch_1">
   <path d="m0 280.51h247.94v-280.51h-247.94v280.51z" fill="none"/>
  </g>
  <g id="axes_1">
   <g id="PatchCollection_1">
    <defs>
     <path id="m8d0a45cba3" d="m142.74-260.1 0.38478 0.29122 1.1704 1.7457 3.0248 5.4634 0.98303 1.6671 1.2983 1.9455 1.2233 1.5444 1.0971 1.1527 0.57414 0.5217 1.6327 1.2299 1.7896 1.0491 1.9004 0.89947 2.2854 0.90344 8.198 2.7996 2.9582 1.1025 2.1054 0.83818 3.4666 1.5027 2.917 1.4275 3.794 2.0283 4.69 1.9105 2.0141 0.95615 1.8723 1.1935 1.0646 0.90594 1.2364 1.3538 0.93398 1.3533 0.35863 0.64829 0.74417 1.772 0.55174 1.8735 1.2768 5.4348 0.72501 2.038 0.67796 1.4315 0.58781 0.98971 0.65247 0.89816 0.93393 1.0476 0.85519 0.81057 6.4765 5.3362 1.7036 1.5418 0.77935 0.78198 0.67315 0.74297 3.4297 4.4693 1.7021 1.7524 3.3124 3.0161 1.3905 1.3751 1.0988 1.2426 0.74574 0.98094 0.98373 1.5699 0.87223 1.7135 0.70181 1.6301 0.6378 1.706 1.0703 3.4482 0.57874 2.2613 0.4856 2.2366 0.54387 3.3195 0.18783 2.0084 0.031859 1.0802-0.038619 1.0586-0.14405 0.51756-0.51341 0.43004-0.9603 0.61882-1.8625 1.0012-9.3235 4.2187-2.7407 1.0646-1.2325 0.3641-1.7384 0.35098-1.6865 0.16979-2.8933 0.030305-6.0782-0.36722-2.5336 0.00729-3.8202 0.22864-10.125 0.83945-2.3529 0.24663-2.9635 0.42815-2.0276 0.36777-3.3719 0.74138-2.9195 0.79717-1.6135 0.55108-1.7198 0.91094-1.3794 1.2618-0.83571 1.3817-0.43154 1.1238-0.37146 1.3833-0.97146 4.9181-0.70201 2.0846-0.89772 1.5044-1.2031 1.226-1.2021 0.75673-0.92611 0.41909-0.80505 0.28917-1.606 0.40283-1.7277 0.21735-1.8087 0.081955-5.3157 0.075871-9.2954-0.69915-1.7909-0.070725-0.89082 0.036556-0.57672 0.06764-1.1081 0.2806-1.3238 0.75544-0.98118 1.011-0.17477 0.25871-0.26432 0.4739-0.35399 0.90357-0.28926 1.4697-0.052641 1.6157 0.15887 1.7136 0.11718 0.70128 1.0983 5.0562 0.41293 2.3785 0.24284 1.9024 0.19304 2.2334 0.099724 2.2604-0.02841 3.127-0.16296 2.2752-0.3175 2.2936-0.35708 1.6805-0.47609 1.6275-0.68328 1.7449-0.53864 1.1452-1.4649 2.6824-2.8725 4.7442-1.0587 2.1074-0.48248 1.326-0.24924 0.86965-0.40985 2.051-0.20649 2.1321-0.024364 1.5732 0.10234 1.7952 0.14576 1.1776 0.24051 1.3055 0.30123 1.1994 0.52762 1.6017 0.55216 1.3495 1.3567 2.729 6.0053 10.672 4.6852 8.674 1.5086 2.9377 1.7743 3.9046 1.231 3.0433 0.89748 2.6344 0.67268 2.6444 0.32559 2.1446 0.069682 2.1782-0.096967 1.1923-0.16851 0.9978-0.28111 1.0559-0.23656 0.65961-0.56743 1.2107-0.68244 1.1058-0.52684 0.71496-1.0916 1.2349-1.3748 1.1946-0.78851 0.53387-0.83022 0.42738-0.4198 0.11577-0.19369-0.018389-0.42668-1.0215-0.50504-0.90846-0.62838-0.97333-0.80677-1.0485-0.93619-0.97625-1.0073-0.82551-0.64977-0.43587-1.2135-0.6688-3.3634-1.539-0.7194-0.41836-0.61567-0.45148-0.48478-0.45179-0.56893-0.66938-2.4006-3.7621-0.89248-1.2145-0.71597-0.85186-0.7264-0.77181-0.89055-0.82128-0.97161-0.74144-0.79662-0.46926-1.0569-0.38714-0.41822-0.062909-0.54529 0.002906-0.6107 0.11379-1.4689 0.41338-1.5573 0.21824-4.6167 0.040527-3.4782 0.15853-0.86105-0.041355-0.78153-0.17328-0.75741-0.38818-2.082-1.6772-0.80514-0.42994-0.49017-0.15205-0.52164-0.094613-0.92788-0.048715-0.94009 0.061116-1.509 0.27472-0.71243 0.23995-0.071148-0.084255-0.19892-1.0806-0.41052-3.7717-0.44026-4.8734-0.19987-3.0249-0.096287-2.9852 0.031188-4.7366-0.046422-1.6381-0.18669-1.8143-0.23736-1.1423-0.42228-1.2695-0.42667-0.9048-0.5317-0.87688-0.51723-0.69222-0.70608-0.77438-0.98662-0.87312-1.1236-0.80706-0.8069-0.49726-1.8865-0.98466-2.4486-1.0222-6.8453-2.6499-5.3357-1.7476-3.1924-1.171-1.7339-0.74529-1.4094-0.68773-2.8543-1.6091-1.7819-1.1572-1.8891-1.4713-7.8604-6.7707-4.0375-3.3349-1.2021-1.0385-2.4021-2.2339-1.1739-1.1896-1.276-1.4217-0.92746-1.1238-1.2579-1.6663-1.4754-2.2116-1.0845-1.8573-7.7132-14.505-0.95155-1.908-1.4217-3.1921-0.90138-2.6851-0.66185-2.5429-0.58781-2.9343-0.56817-3.6686-0.37249-1.973-0.72604-3.2188-1.4711-6.0464-0.20345-0.64829 0.062916-2.4862 0.29029-3.2716 1.0987-7.7572 0.41859-3.9761 0.4263-3.1864 1.223-6.6189 2.1311-8.8737 0.3876-2.2009 0.32522-2.3333 0.3439-3.2539 0.29389-3.7889 0.65284-5.7837 0.59893-7.5003 0.93908-6.8169 0.12274-1.4777 0.014778-0.82334-0.075944-0.4827 0.26472 0.055559 1.2599-0.18225 2.125-0.56665 1.2064-0.38646 2.9138-1.0384 6.5304-2.6961 2.2077-0.7545 2.7839-0.65414 3.9246-0.59293 1.5335-0.31721 1.5883-0.44915 2.6429-0.9719 4.0062-1.7377 2.2555-0.91728 2.2876-0.75075 2.6336-0.6198 2.9851-0.55456 1.864-0.25528 3.5178-0.27596 1.3097-0.17152 0.62184-0.14484 0.88384-0.30515 0.64553-0.30645 1.2877-0.84738 0.63594-0.54452 1.0352-1.0772 0.81371-1.0243 0.85342-1.2735 1.0328-1.8928 1.0436-2.3755 0.81989-2.2018 0.84844-2.4843 1.8652-6.0765 0.12914-0.28805 0.4219-0.083539 0.88086 0.04688 1.1222 0.16425 0.99389 0.22768 0.9862 0.32026 0.92697 0.42581 0.82395 0.54839 0.57608 0.54856 0.43318 0.53285 0.69365 1.1105 1.2138 2.3685 0.5153 0.80798 0.61589 0.6239 0.66658 0.33158 0.73894 0.17531 2.2585 0.29895 0.75774-0.044517 1.0321-0.3234 0.7895-0.41683 0.75106-0.50125 1.1482-1.0257 1.7497-1.8548 0.98465-0.77566 0.53798-0.309 0.78548-0.34973 1.082-0.35103 1.2695-0.28946 2.0937-0.29528 5.9944-0.40783 0.81458-0.10253 1.2872-0.26725 1.1058-0.37214 0.96014-0.43868 0.98405-0.55508 2.572-1.7084 1.9714-1.0477 1.8205-0.69306 1.0926-0.30363 1.1697-0.22747 1.0011-0.11663 1.1467-0.045349 1.8752 0.12786 1.547 0.3477 0.75888 0.308 0.27946 0.18029 0.083195 0.14805" stroke="#bdc660"/>
    </defs>
    <g clip-path="url(#p73d598dede)">
     <use y="280.512" fill="#bdc660" stroke="#bdc660" xlink:href="#m8d0a45cba3"/>
    </g>
   </g>
  </g>
 </g>
 <defs>
  <clipPath id="p73d598dede">
   <rect x="7.2" y="7.2" width="233.54" height="266.11"/>
  </clipPath>
 </defs>
</svg>
