<?xml version="1.0" encoding="UTF-8"?>
<!DOCTYPE svg  PUBLIC '-//W3C//DTD SVG 1.1//EN'  'http://www.w3.org/Graphics/SVG/1.1/DTD/svg11.dtd'>
<svg width="371.52pt" height="271.61pt" version="1.1" viewBox="0 0 371.52 271.61" xmlns="http://www.w3.org/2000/svg" xmlns:xlink="http://www.w3.org/1999/xlink">
 <metadata>
  <rdf:RDF xmlns:cc="http://creativecommons.org/ns#" xmlns:dc="http://purl.org/dc/elements/1.1/" xmlns:rdf="http://www.w3.org/1999/02/22-rdf-syntax-ns#">
   <cc:Work>
    <dc:type rdf:resource="http://purl.org/dc/dcmitype/StillImage"/>
    <dc:date>2024-07-04T12:07:22.785890</dc:date>
    <dc:format>image/svg+xml</dc:format>
    <dc:creator>
     <cc:Agent>
      <dc:title>Matplotlib v3.7.1, https://matplotlib.org/</dc:title>
     </cc:Agent>
    </dc:creator>
   </cc:Work>
  </rdf:RDF>
 </metadata>
 <defs>
  <style type="text/css">*{stroke-linejoin: round; stroke-linecap: butt}</style>
 </defs>
 <g id="figure_1">
  <g id="patch_1">
   <path d="m0 271.61h371.52v-271.61h-371.52v271.61z" fill="none"/>
  </g>
  <g id="axes_1">
   <g id="PatchCollection_1">
    <defs>
     <path id="m1d802dd295" d="m274.48-238.6 16.971 10.81 7.8053 4.8626 3.7459 2.2507 3.6481 2.1326 16.822 9.6992 3.7719 2.2353 3.6654 2.2906 2.1322 1.4633 1.523 1.183 1.4048 1.2706 1.2471 1.3853 0.60394 0.82684 1.0707 1.9113 0.72439 1.7515 0.59918 1.8357 0.50729 1.8976 0.4407 1.9426 0.393 1.975 0.35918 1.9982 0.6534 4.0416 0.59997 4.0793 0.77966 5.8346 0.69502 5.9042 0.96754 8.8573 0.44416 4.2916 1.427 14.953 0.60311 6.9808-48.173 11.292-8.4297 1.887-9.2766 1.8792-6.0429 1.4853-3.7111 0.8262-3.7369 0.72489-3.7474 0.63898-1.8733 0.28553-8.4491 1.1638-1.7836 0.28935-4.2102 0.81153-1.6512 0.2664-1.6648 0.18804-1.6769 0.076316-2.0417-0.090245-2.054-0.25522-2.0631-0.37688-2.07-0.46532-4.154-1.101-10.43-3.0959-4.1867-1.1671-2.0974-0.52035-2.1007-0.452-2.1159-0.36264-2.1137-0.258-2.105-0.13588-2.0889 0.01507-1.5834 0.12834-1.8618 0.26169-1.4657 0.30964-1.8981 0.52328-2.4062 0.82806-1.6502 0.66365-2.8579 1.2988-3.3806 1.7071-5.2098 2.8023-14.797 8.1047-5.5743 2.975-3.8406 1.9856-9.933 4.9358-17.785 8.6367-5.3728 2.7263-1.7552 0.95136-1.7242 0.98836-1.6814 1.0395-1.6232 1.1089-1.5451 1.2021-1.562 1.4225-1.4727 1.5294-1.4074 1.608-1.3605 1.6651-1.3272 1.7063-3.5345 4.8005-5.5969 7.9568-9.7348 14.17-5.0758 7.5072-7.9613 11.949-35.286-34.007-16.849-16.225-0.51932-3.7922-0.53158-4.5913-0.2058-2.4614-0.12839-2.2595-0.075949-2.2534-0.030952-2.2296 0.055935-4.3429 0.086808-2.0956 0.15067-2.2395 0.22965-2.1464 0.33999-2.0309 0.49178-1.8847 0.69771-1.697 0.9735-1.4542 1.1176-1.0336 1.3206-0.85524 1.4627-0.72578 1.5534-0.63656 3.45-1.2273 1.7887-0.67671 1.6537-0.77349 1.4348-0.94284 0.60609-0.5617 0.37236-0.43763 0.34114-0.4986 0.27441-0.50896 0.50748-1.5639 0.19513-1.712-0.04261-1.8154-0.23311-1.8465-0.39361-1.8244-0.54053-1.7487-1.1222-2.7868-0.65568-1.5079-0.68455-1.4035-0.57487-0.98036-0.93162-1.1968-2.5765-2.7123-0.5304-0.63167-0.39531-0.53961-0.31934-0.51016-0.30354-0.62-0.22969-0.85427 0.007321-0.62207 0.28838-0.77717 0.53453-0.68878 1.6755-1.4442 0.77925-0.85053 0.58689-1.1132 0.32775-1.2915 0.093981-1.3861 0.003397-1.99-0.063822-1.6736-0.20248-2.3876-0.39905-2.8742-0.36281-2.0523-0.41931-2.0707-0.4702-2.0741-0.51988-2.0636-0.57223-2.0388-0.63078-1.9985-0.69865-1.9399-1.3049-3.1485-0.4642-1.2149-0.43623-1.4004-0.23078-0.98142-0.22896-1.5009-0.065719-1.2016 0.085937-1.2695 0.33227-1.4008 0.54585-1.3756 0.71162-1.357 0.83857-1.3439 1.179-1.6644 1.289-1.6503 1.3716-1.6336 1.4365-1.612 1.1697-1.2493 1.9544-1.9788 1.0331-0.98866 1.2976-1.1699 2.3482-1.9349 4.879-3.8023 1.5016-1.2716 1.3652-1.306 1.1672-1.363 0.89103-1.4469 0.37967-0.93717 0.28798-0.97777 0.6618-2.8534 0.44001-1.4862 0.74935-1.7737 0.9723-1.7929 1.1412-1.8081 1.3371-1.9223 1.2927-1.7493 2.5433-3.2515 2.2429-2.68 20.734-8.3902 23.226-9.524 4.1027-1.6239 2.0495-0.77268 2.0501-0.73002 2.0522-0.66891 2.056-0.58272 2.0619-0.46292 2.0703-0.29876 1.8861-0.097029 1.8883 0.042742 1.8833 0.14945 1.871 0.23095 1.8508 0.29364 4.8766 0.92276 5.259 0.79993 4.3372 0.76524 6.7985 1.3413 24.219 4.962 15.997 3.1717 6.2947 1.3299 3.3736 0.81304 1.8136 0.48033 1.5937 0.45732 2.674 0.87347 1.0851 0.40309 1.6648 0.68317 1.6187 0.74971 5.2765 2.7561 1.678 0.76828 1.4458 0.53341 1.455 0.38186 1.7148 0.20522 1.1006-0.024945 1.1097-0.11856 1.1449-0.20268 1.1765-0.29771 0.73724-0.2326 1.3196-0.54099 1.0767-0.58001 1.5052-1.0512 0.95969-0.7362 2.1399-1.8516 0.83517-0.65876 0.4376-0.30062 0.68096-0.3918 0.52888-0.23725 1.0974-0.32995 0.70955-0.12006 1.0957-0.060183 0.86851 0.048326 1.0157 0.1144 2.5993 0.36078 1.4942 0.16319 1.4327 0.091825 1.6963 0.014357 1.7533-0.07718 1.5293-0.12982 1.653-0.18961 8.9155-1.2722 3.235-0.37862" stroke="#bdc660"/>
    </defs>
    <g clip-path="url(#p164e2aa400)">
     <use y="271.612695" fill="#bdc660" stroke="#bdc660" xlink:href="#m1d802dd295"/>
    </g>
   </g>
  </g>
 </g>
 <defs>
  <clipPath id="p164e2aa400">
   <rect x="7.2" y="7.2" width="357.12" height="257.21"/>
  </clipPath>
 </defs>
</svg>
