<?xml version="1.0" encoding="UTF-8"?>
<!DOCTYPE svg  PUBLIC '-//W3C//DTD SVG 1.1//EN'  'http://www.w3.org/Graphics/SVG/1.1/DTD/svg11.dtd'>
<svg width="156.53pt" height="280.51pt" version="1.1" viewBox="0 0 156.53 280.51" xmlns="http://www.w3.org/2000/svg" xmlns:xlink="http://www.w3.org/1999/xlink">
 <metadata>
  <rdf:RDF xmlns:cc="http://creativecommons.org/ns#" xmlns:dc="http://purl.org/dc/elements/1.1/" xmlns:rdf="http://www.w3.org/1999/02/22-rdf-syntax-ns#">
   <cc:Work>
    <dc:type rdf:resource="http://purl.org/dc/dcmitype/StillImage"/>
    <dc:date>2024-07-04T12:07:23.666232</dc:date>
    <dc:format>image/svg+xml</dc:format>
    <dc:creator>
     <cc:Agent>
      <dc:title>Matplotlib v3.7.1, https://matplotlib.org/</dc:title>
     </cc:Agent>
    </dc:creator>
   </cc:Work>
  </rdf:RDF>
 </metadata>
 <defs>
  <style type="text/css">*{stroke-linejoin: round; stroke-linecap: butt}</style>
 </defs>
 <g id="figure_1">
  <g id="patch_1">
   <path d="m0 280.51h156.53v-280.51h-156.53v280.51z" fill="none"/>
  </g>
  <g id="axes_1">
   <g id="PatchCollection_1">
    <defs>
     <path id="mf790c04363" d="m33.902-261.18-0.001163 0.30348 0.13615 0.84306 0.32105 1.4295 0.48552 1.7489 0.63776 1.936 0.75854 1.9712 0.88656 1.9906 1.0107 1.9597 1.1144 1.8591 1.2285 1.7649 1.3396 1.6485 1.7122 1.7607 1.8519 1.5572 2.0189 1.3665 2.1278 1.1537 1.933 0.84529 1.9844 0.71244 1.8785 0.56168 3.8356 0.92839 2.796 0.55903 5.5336 0.95683 3.6563 0.68925 2.4287 0.54714 3.0012 0.78793 2.5125 0.77048 1.4075 0.48361 2.9187 1.1261 3.2119 1.4442 1.4734 0.72979 2.3552 1.2504 2.0613 1.1788 3.3756 2.0985 3.0788 2.1001 2.4078 1.7518 4.4446 3.4084 11.28 8.9717 9.3507 7.3248 1.0558 0.88871 1.5459 1.4296 1.3377 1.5201 0.83841 1.4258 0.27698 0.97524 0.015725 0.98495-0.38146 1.477-0.69365 1.3936-1.1852 1.74-1.134 1.4126-3.2148 3.7295-1.9836 2.4593-2.8339 3.0754-0.95332 1.1076-1.1716 1.5188-1.0138 1.4062-1.3645 2.075-0.5138 0.90499-0.77041 1.5727-0.80322 2.1051-0.4852 1.7941-0.11949 0.92371 0.005956 0.80788 0.161 1.0702 0.24012 0.96966 0.49598 1.7613 0.6956 2.185 1.312 3.4909 2.9709 6.8712 0.96278 2.4859 3.0306 8.978 2.0463 5.5443 0.70428 2.2347 0.41985 1.8809 0.15302 1.2945 0.013255 1.5875-0.5725 4.3014 0.025494 1.1352 0.29404 1.3393 0.17522 0.51733 0.81862 1.8225 0.53715 1.009 3.3523 5.7317 1.4156 2.6168 5.0251 10.005 1.694 3.5147 1.242 2.7514 1.1501 2.8553 0.51837 1.4859 0.38358 1.2642 0.31271 1.2408 0.29255 1.6673 0.084785 1.9533-0.16004 1.255-0.37631 1.1623-0.92007 1.4465-0.84307 0.88557-0.98601 0.82892-1.2126 0.85642-1.3253 0.81612-2.1595 1.1796-7.6078 3.745-4.1781 2.1857-2.9078 1.6848-2.4201 1.541-2.4538 1.7121-1.3123 0.98638-2.8694 2.3466-2.4583 2.2461-1.4162 1.4163-1.3742 1.4749-2.0611 2.4326-1.3717 1.794-1.3106 1.8681-1.0652 1.6464-1.021 1.6951-1.6414 2.9859-1.7428 3.5622-1.7467 4.0547-1.2946 3.4025-0.76598 2.2137-0.5635 1.7601-0.52396 1.8697-0.15823 0.015919-0.89726-0.17171-1.4481-0.39952-1.8253-0.6035-4.2234-1.5225-1.0639-0.31551-0.83647-0.18765-1.0643-0.1417-1.2112-0.063854-2.4092-0.037718-0.97285-0.07464-1.0645-0.18648-1.2205-0.3974-1.0771-0.52825-0.56105-0.33385-0.65369-0.43503-1.1752-0.89734-1.1065-1.035-0.50672-0.58451-0.34228-0.47094-0.32277-0.55718-0.18211-0.41215-0.27577-0.9361-0.092906-0.54637-0.062273-0.87029-0.00513-4.7677 0.077533-0.7783 0.218-0.9336 0.20944-0.55031 0.28271-0.5593 0.45353-0.68328 0.49644-0.59434 0.9383-0.927 1.321-1.192 0.64394-0.63279 0.58744-0.67654 0.6156-0.95531 0.33532-0.7973 0.23251-0.85905 0.16284-1.1429 0.041826-1.2073-0.11156-1.7947-0.45188-2.9319-1.0512-4.915-0.26636-1.909-0.31196-1.7329-0.76569-3.5342-0.60991-2.383-1.098-3.6681-0.73416-2.1-0.58717-1.5054-0.61911-1.4375-0.64559-1.3477-1.0195-1.8298-1.2223-1.7337-0.81809-0.89144-0.8649-0.71746-0.87206-0.49833-1.1478-0.34845-1.2005-0.094786-1.0902 0.086117-4.2832 0.87381-1.2112 0.16292-1.0953 0.075187-1.1841-0.010163-1.2041-0.11492-0.68774-0.13955-0.63913-0.19744-0.77685-0.35124-0.57917-0.35826-0.85979-0.70572-0.86105-0.92718-1.0923-1.4691-0.99816-1.5866-0.84917-1.6157-0.46442-1.1602-0.42972-1.4729-0.46586-2.2439-0.21962-1.4541-0.13423-1.3989-0.013922-1.3064 0.11912-1.0644 0.37574-1.1699 0.31786-0.51622 1.0166-1.0088 1.336-0.88389 3.089-1.6467 1.5023-0.88557 1.3052-1.0133 0.96892-1.2146 0.52752-1.5231 0.082945-1.7322-0.29699-1.8863-0.57606-1.9742-0.75701-2.0292-2.1126-4.9684-2.0176-4.4781-0.90611-2.1152-0.8294-2.0907-1.55-4.2758-6.2249-18.327-1.6373-4.3192-1.5228-3.467-0.68527-1.7843-0.16058-0.57434-0.20571-1.0951-0.10137-1.4629 0.069473-4.7938-0.15598-4.6315-0.33579-4.9077-0.7158-7.5242-0.57989-4.9362-0.62134-4.6705-0.47064-5.1069-0.61701-5.2773-0.38632-2.6293-0.45262-2.5838-0.53777-2.5025-0.64999-2.3772-0.79938-2.1966-0.99832-1.9456-0.39073-0.58488-0.89067-1.123-2.0452-2.3843-1.3479-1.7518-1.1499-1.6492-0.70835-1.1115-1.1652-2.0133-0.87232-1.9019-0.44682-1.5389-0.2259-1.5903 0.016917-2.1901 0.18117-2.1949 0.30135-2.303 0.43889-2.3566 0.60884-2.3528 0.82791-2.2844 1.1139-2.1395 1.4834-1.9032 1.8673-1.5575 2.2018-1.2603 2.4244-0.97805 2.3633-0.6711 2.2993-0.45777 2.039-0.2708 1.5033-0.10742 0.57113 0.037499" stroke="#bdc660"/>
    </defs>
    <g clip-path="url(#pfebc171f95)">
     <use y="280.512" fill="#bdc660" stroke="#bdc660" xlink:href="#mf790c04363"/>
    </g>
   </g>
  </g>
 </g>
 <defs>
  <clipPath id="pfebc171f95">
   <rect x="7.2" y="7.2" width="142.13" height="266.11"/>
  </clipPath>
 </defs>
</svg>
