<?xml version="1.0" encoding="UTF-8"?>
<!DOCTYPE svg  PUBLIC '-//W3C//DTD SVG 1.1//EN'  'http://www.w3.org/Graphics/SVG/1.1/DTD/svg11.dtd'>
<svg width="199.4pt" height="280.51pt" version="1.1" viewBox="0 0 199.4 280.51" xmlns="http://www.w3.org/2000/svg" xmlns:xlink="http://www.w3.org/1999/xlink">
 <metadata>
  <rdf:RDF xmlns:cc="http://creativecommons.org/ns#" xmlns:dc="http://purl.org/dc/elements/1.1/" xmlns:rdf="http://www.w3.org/1999/02/22-rdf-syntax-ns#">
   <cc:Work>
    <dc:type rdf:resource="http://purl.org/dc/dcmitype/StillImage"/>
    <dc:date>2024-07-04T12:07:17.825636</dc:date>
    <dc:format>image/svg+xml</dc:format>
    <dc:creator>
     <cc:Agent>
      <dc:title>Matplotlib v3.7.1, https://matplotlib.org/</dc:title>
     </cc:Agent>
    </dc:creator>
   </cc:Work>
  </rdf:RDF>
 </metadata>
 <defs>
  <style type="text/css">*{stroke-linejoin: round; stroke-linecap: butt}</style>
 </defs>
 <g id="figure_1">
  <g id="patch_1">
   <path d="m0 280.51h199.4v-280.51h-199.4v280.51z" fill="none"/>
  </g>
  <g id="axes_1">
   <g id="PatchCollection_1">
    <defs>
     <path id="ma88b80df28" d="m166.91-155.32 0.52892 0.33825 0.5826 1.0073 0.50006 1.4679 0.2819 1.5025 1.2688 11.713 0.24546 4.0903 0.10317 4.5758 0.27126 1.8431 0.42423 1.8156 1.8835 6.171 1.5499 6.6887 0.89602 5.0537 1.0714 6.9614 2.8619 12.941 1.5539 8.0642 1.6944 8.0361 0.995 5.3221 0.16476 1.4602-0.028604 1.6309-0.18101 0.93804-0.4563 1.1748-0.97172 1.5262-0.99327 1.1412-1.0149 0.86502-5.1921 2.978-2.7386 1.7533-1.0768 0.88146-0.39822 0.57568-0.21673 0.59434-0.069458 0.75463 0.18264 0.92298 0.35448 0.44286-13.062 4.4789-2.9947 0.8086-2.8658 0.58939-1.9862 0.30505-3.0619 0.20259-1.9295-0.084405-4.0601-0.49303-1.9332-0.029711-1.8786 0.28624-1.4172 0.37629-3.8087 1.332-4.3624 1.7131-15.99 6.6788-7.8064 2.8517-4.0756 1.1659-9.4218 2.2441-2.938 0.82388-5.1807 1.7237-7.2373 2.7836-4.0635 1.2888-3.0486 0.67095-2.9706 0.47271-4.3881 0.48505-2.3155 0.11638-3.308-0.027215-13.109-0.37089-6.3624-0.41282-4.818-0.59136-1.722-0.38714-2.8747-0.92396-4.3087-1.9255-3.7417-2.2163-1.5395-1.1447-0.60498-0.55261-0.19578-0.31149 1.6119-2.0583 3.3485-5.1258 1.883-3.2021 2.0469-3.7842 1.973-3.9876 1.8535-4.1159 1.4394-3.5145 2.5472-7.1119 1.0822-3.4833 1.9064-6.9508 3.0513-13.258 2.8194-14.066 1.3897-7.8503 1.1984-7.6147 3.7628-27.419 2.4684-20.306 1.8536-19.176 0.94474-14.167 0.38726-13.904-0.061958-8.1839-0.25696-8.353-0.96846-16.124-1.7893-19.193 0.68421-0.10563 2.3939 0.070706 3.2359 0.34583 2.8216 0.46256 2.963 0.68054 2.8015 0.91169 2.6688 1.2439 3.3228 2.1453 1.7014 1.3129 7.013 6.1363 3.0598 2.3176 1.6173 1.0493 3.7415 2.1043 9.105 4.5683 5.4408 2.8672 4.559 2.9152 5.343 3.9467 4.7524 3.2183 5.3626 3.1802 11.739 6.092 2.1408 1.2913 1.9515 1.3925 1.1884 1.0285 1.0481 1.1112 0.99574 1.3539 0.81441 1.3465 1.5151 3.0468 0.95957 2.2475 2.3764 6.3636 5.5586 15.922 1.7962 4.526 1.5688 3.5841 1.6959 3.5192 1.692 3.1777 2.3521 3.997 3.1832 4.7017 1.3771 1.5917 0.27304 0.12745" stroke="#bdc660"/>
    </defs>
    <g clip-path="url(#pb01973d963)">
     <use y="280.512" fill="#bdc660" stroke="#bdc660" xlink:href="#ma88b80df28"/>
    </g>
   </g>
  </g>
 </g>
 <defs>
  <clipPath id="pb01973d963">
   <rect x="7.2" y="7.2" width="185" height="266.11"/>
  </clipPath>
 </defs>
</svg>
