<?xml version="1.0" encoding="UTF-8"?>
<!DOCTYPE svg  PUBLIC '-//W3C//DTD SVG 1.1//EN'  'http://www.w3.org/Graphics/SVG/1.1/DTD/svg11.dtd'>
<svg width="285.85pt" height="280.51pt" version="1.1" viewBox="0 0 285.85 280.51" xmlns="http://www.w3.org/2000/svg" xmlns:xlink="http://www.w3.org/1999/xlink">
 <metadata>
  <rdf:RDF xmlns:cc="http://creativecommons.org/ns#" xmlns:dc="http://purl.org/dc/elements/1.1/" xmlns:rdf="http://www.w3.org/1999/02/22-rdf-syntax-ns#">
   <cc:Work>
    <dc:type rdf:resource="http://purl.org/dc/dcmitype/StillImage"/>
    <dc:date>2024-07-04T12:07:23.118196</dc:date>
    <dc:format>image/svg+xml</dc:format>
    <dc:creator>
     <cc:Agent>
      <dc:title>Matplotlib v3.7.1, https://matplotlib.org/</dc:title>
     </cc:Agent>
    </dc:creator>
   </cc:Work>
  </rdf:RDF>
 </metadata>
 <defs>
  <style type="text/css">*{stroke-linejoin: round; stroke-linecap: butt}</style>
 </defs>
 <g id="figure_1">
  <g id="patch_1">
   <path d="m0 280.51h285.85v-280.51h-285.85v280.51z" fill="none"/>
  </g>
  <g id="axes_1">
   <g id="PatchCollection_1">
    <defs>
     <path id="mfe521f4062" d="m266.28-253.07 0.030531 0.20883-0.086915 0.93019-0.67605 3.7576-2.1853 9.7171-0.34201 1.1199-0.47345 1.1372-0.57764 0.99762-0.59066 0.73216-0.79164 0.63309-0.8841 0.36645-1.3883 0.044737-1.4327-0.38222-1.396-0.63076-1.7328-0.90318-0.81741-0.32986-1.119-0.30359-1.094-0.12016-1.054 0.089961-1.1638 0.45652-0.70984 0.59086-0.44083 0.53884-0.40831 0.64489-0.78764 1.65-0.6267 1.7224-0.60622 2.0077-1.8039 6.6374-0.72429 2.3801-0.90112 2.6363-1.5533 3.9192-3.3336 7.7068-0.90251 2.3638-0.59978 1.9463-0.46812 2.1218-0.1947 1.3739-0.14236 1.9504-0.010347 3.0573 0.046798 0.91619 0.28227 2.674 0.35941 1.9814 0.74939 3.0181 0.69702 2.3123 0.7134 2.0956 0.86137 2.2618 0.7481 1.7797 2.7192 5.8061 0.86991 2.1115 0.65146 2.1228 0.40227 2.5049 0.062613 2.3986-0.18688 2.1197-0.34314 1.5915-0.42118 0.70805-0.15448 0.52594-0.48976 0.79851-0.61044 0.87101-4.842 6.1463-1.2904 1.6904-1.4778 2.0763-1.1835 1.8624-1.0292 1.8969-0.77721 1.7483-0.66347 1.7594-1.5466 4.5922-0.71601 1.9534-0.80973 1.8898-1.3954 2.5897-2.4129 4.073-1.3143 2.5728-0.66758 1.5144-0.74457 1.8532-2.4185 6.816-0.6813 1.6449-1.9671 3.7543-1.5143 3.0888-0.86483 1.5276-0.88791 1.2707-1.0454 1.2549-1.5617 1.5776-1.6722 1.4086-2.1064 1.4229-1.9992 1.0121-1.6885 0.62099-1.7696 0.49055-1.8337 0.39674-4.1966 0.69217-10.586 1.4127-4.0728 0.65728-1.9622 0.39399-1.9029 0.46039-2.1374 0.65439-1.9891 0.81346-1.427 0.78344-1.2741 0.94534-1.4807 1.6287-1.1684 1.9349-0.89096 2.1745-0.62731 2.3634-0.14314 0.78113-0.13718 0.96284-0.17217 2.063-0.046862 2.1301 0.072392 2.7082 0.18068 2.7761 0.2091 2.3094 0.55834 4.6923 0.38558 2.5895 0.46559 2.5857 1.8043 8.0523 0.43199 2.442 0.25416 2.2375 0.12955 2.2838 0.001181 1.9284-0.07059 0.99678-0.16614 0.4618-1.1675 0.51743-1.4823 0.5321-2.7108 0.85227-2.5177 0.65482-1.4923 0.29197-1.9527 0.24903-2.1307 0.078229-1.7728-0.11134-1.5602-0.21805-1.2523-0.23217-4.8764-1.083-3.2357-0.56859-1.4458-0.16965-1.6877-0.12102-1.9914-0.020952-2.1173 0.11294-5.3902 0.59134-2.3767 0.19032-1.4104 0.033085-1.244-0.082664-1.463-0.28167-1.0874-0.38238-1.0463-0.50862-1.1812-0.67886-2.8818-1.7661-1.825-0.93471-5.3203-2.3835-1.3543-0.50298-1.6744-0.52959-1.9359-0.48769-1.0229-0.19717-1.3006-0.18072-1.2854-0.10941-1.4816-0.056397-2.0864 0.003755-1.273 0.046229-1.8528 0.14614-2.8095 0.37852-2.9345 0.59381-1.7089 0.44637-3.328 1.028-1.7526 0.60827-3.4817 1.3108-3.6354 1.4789-4.9943 2.1498-4.2009 1.894-4.9968 2.3672-4.9877 2.5503-2.2889 1.2847-1.7142 1.0486-1.6496 1.1323-1.1944 0.9821-0.61492 0.69328-0.14685 0.34899-2.0817-2.6795-2.5177-3.4349-2.2973-3.3793-1.5048-2.4106-1.2484-2.1549-1.2536-2.2975-3.2654-6.3475-2.4867-4.3379-0.67962-1.3998-0.61605-1.5998-0.51058-1.8849-0.25291-1.5989-0.081884-1.3498 0.01718-1.1958 0.10767-1.3276 0.34017-2.0705 0.70529-3.0098 0.51724-1.7034 1.0803-3.1428 0.42696-1.5886 0.15118-0.93107 0.058256-0.77272-0.030015-0.94129-0.12663-0.88806-0.36669-1.5412-0.44484-1.3514-0.45342-1.1756-0.8987-2.0576-2.164-4.4466-3.5959-6.8802-1.5902-3.1378-1.5071-3.0752-0.75557-1.7796-0.63008-1.9474-0.25915-1.1009-0.18021-1.0791-0.14506-1.9736-0.001122-1.3687 0.05187-1.0504 0.077482-0.77242 0.28781-1.7716 0.57305-2.3379 0.34025-1.0754 0.51996-1.4093 0.87721-2.0376 1.3823-2.8395 3.0506-5.7981 3.3995-5.9803 6.2049-10.45 1.4214-2.2779 1.4996-2.2451 1.6146-2.1848 0.94505-1.1562 0.79712-0.90675 1.5653-1.6284 2.3148-2.1449 2.0875-1.7426 2.0276-1.5764 6.6888-4.9006 1.7609-1.371 1.7477-1.5455 0.96678-1.0615 0.54951-0.9186-0.058731-0.33153 0.36688-1.0919 0.8736-2.1724 1.8844-4.4329 1.6193-3.6542 1.9497-4.1224 4.0329-8.0205 1.2071-2.6053 3.3194-7.7621 2.2347-5.7636 0.85138-2.0292 0.71047-1.462 0.82766-1.4844 0.93625-1.4988 0.9854-1.441 1.01-1.3505 0.84809-1.0393 3.12-3.4527 1.3987-1.6274 2.4561-3.3646 1.5102-1.8844 3.2432-3.7823 1.3541-1.4128 1.2467-1.0529 3.9676-2.8207 2.0636-1.5901 1.1022-0.78926 1.944-1.1573 4.1075-2.1267 2.3993-1.3169 1.8331-0.85528 1.9263-0.64306 1.8622-0.43206 1.4994-0.23853 1.5256-0.15085 2.0152-0.058536 2.0181 0.10947 1.4643 0.1856 3.8419 0.59838 3.1467 0.41259 1.4682 0.14177 2.7665 0.17139 1.8877 0.038634 3.7975-0.068952 9.1536-0.45689 2.5492-0.049657 2.4541 0.063147 2.0697 0.19157 1.9372 0.36635 1.768 0.59631 1.3707 0.72505 3.395 2.3303 1.4003 0.83256 1.3016 0.67652 1.8234 0.77945 2.1859 0.70181 2.2978 0.54713 2.3601 0.39492 2.3772 0.23282 1.3838 0.046767 1.2582-0.036944 1.7623-0.14816 2.1557-0.26068 3.4191-0.57579 2.3872-0.5296 0.96046-0.2604 1.3964-0.43741 1.363-0.50116 1.9275-0.85469 1.2943-0.68645 1.3076-0.80603 1.9211-1.4667 3.5359-3.5658 1.8078-1.3804 2.0834-1.2484 2.2931-1.1477 2.451-1.0719 2.5693-1.0155 2.6573-0.9741 5.4942-1.8655 8.0044-2.5197 5.2435-1.551 5.0647-1.3745 2.492-0.5962 2.6944-0.546 2.5821-0.37367 2.4056-0.12924 2.1412 0.20713 1.7651 0.65001 0.82969 0.64169 0.5695 0.71119 0.42742 0.811 0.44073 1.357 0.59905 2.8812 0.29087 0.88416" stroke="#bdc660"/>
    </defs>
    <g clip-path="url(#pad0c61c62c)">
     <use y="280.512" fill="#bdc660" stroke="#bdc660" xlink:href="#mfe521f4062"/>
    </g>
   </g>
  </g>
 </g>
 <defs>
  <clipPath id="pad0c61c62c">
   <rect x="7.2" y="7.2" width="271.45" height="266.11"/>
  </clipPath>
 </defs>
</svg>
