<?xml version="1.0" encoding="UTF-8"?>
<!DOCTYPE svg  PUBLIC '-//W3C//DTD SVG 1.1//EN'  'http://www.w3.org/Graphics/SVG/1.1/DTD/svg11.dtd'>
<svg width="312pt" height="280.51pt" version="1.1" viewBox="0 0 312 280.51" xmlns="http://www.w3.org/2000/svg" xmlns:xlink="http://www.w3.org/1999/xlink">
 <metadata>
  <rdf:RDF xmlns:cc="http://creativecommons.org/ns#" xmlns:dc="http://purl.org/dc/elements/1.1/" xmlns:rdf="http://www.w3.org/1999/02/22-rdf-syntax-ns#">
   <cc:Work>
    <dc:type rdf:resource="http://purl.org/dc/dcmitype/StillImage"/>
    <dc:date>2024-07-04T12:07:34.274738</dc:date>
    <dc:format>image/svg+xml</dc:format>
    <dc:creator>
     <cc:Agent>
      <dc:title>Matplotlib v3.7.1, https://matplotlib.org/</dc:title>
     </cc:Agent>
    </dc:creator>
   </cc:Work>
  </rdf:RDF>
 </metadata>
 <defs>
  <style type="text/css">*{stroke-linejoin: round; stroke-linecap: butt}</style>
 </defs>
 <g id="figure_1">
  <g id="patch_1">
   <path d="m0 280.51h312v-280.51h-312v280.51z" fill="none"/>
  </g>
  <g id="axes_1">
   <g id="PatchCollection_1">
    <defs>
     <path id="m521e7532c6" d="m254.92-243.83 4.3974 0.21529 1.6662 0.17619 1.6598 0.27053 1.5928 0.38959 1.4763 0.54052 1.3135 0.73292 1.1456 0.98382 0.975 1.1722 0.84761 1.3048 0.7544 1.3954 0.68716 1.4556 0.63918 1.4944 1.1868 3.0513 1.1188 3.0845 13.782 39.556 2.2284 6.7103 0.67334 2.2287 0.20326 0.81224-13.09 5.9725-18.305 8.1287-9.5258 4.3149-4.5607 2.13-4.3882 2.1156-7.0522 3.5795-1.3766 0.63144-1.6577 0.66157-1.4954 0.48046-1.7632 0.425-1.9864 0.34548-1.4733 0.13044-1.4438-0.005858-1.1334-0.096256-3.7049-0.60301-1.8893-0.20222-1.7323-0.027692-1.7886 0.10113-1.6429 0.22488-1.4368 0.33435-1.5903 0.53693-1.3036 0.57077-2.0571 1.1086-2.2007 1.4132-1.5841 1.1672-3.7578 3.0213-1.2322 0.90268-1.8915 1.2867-2.2919 1.4208-7.0053 4.0076-1.796 1.1308-2.0526 1.3878-2.5845 1.9476-5.0733 4.3041-3.3373 2.6823-1.8894 1.4437-8.8467 6.4538-1.8814 1.1952-1.2386 0.65866-0.89662 0.41878-1.4186 0.5424-1.3018 0.36531-1.3649 0.2542-1.7215 0.18184-2.014 0.081048-1.9619 0.003281-4.8251-0.17163-1.6943-0.017155-1.7129 0.069443-1.3772 0.15467-1.6227 0.33787-1.4805 0.48572-1.2574 0.58022-0.60347 0.3546-0.5232 0.36895-0.74673 0.68076-0.35875 0.44591-0.35311 0.58808-0.24028 0.59519-0.1801 0.85176-0.052838 0.6756 0.09697 3.4229-0.1111 1.9468-0.33657 2.1854-0.37079 1.6619-0.60796 2.1817-0.70788 2.1081-0.41939 1.1142-0.98754 2.3632-0.98254 1.9331-1.3763 2.233-1.847 2.6537-1.5553 2.3866-2.6136 4.3486-3.8337 6.8565-10.311 19.193-2.7797 4.964-1.4603 2.4975-1.5232 2.4953-1.5998 2.4753-1.6892 2.428-1.2474 1.6627-1.6583 2.0682-1.6651 1.9557-1.6045 1.7974-3.3978 3.5852-0.98594 1.5689-0.49792 0.61837-0.26849 0.26058-0.28606 0.21363-0.34534 0.17648-1.1503 0.33648-0.45519 0.035654-0.41409-0.043361-1.6013-0.51726-1.8033-0.29207-0.82332-0.17537-0.70351-0.073415-0.71219 0.033954-0.75966 0.13576-0.74196 0.28606-0.9643 0.50268-0.72914 0.208-0.58698 0.036552-0.48443-0.060339-0.40003-0.122-0.40726-0.21863-1.0467-0.19246-1.8334-0.48418-7.126-2.2653-2.5538-0.73839-2.003-0.52178-2.595-0.60668-2.8615-0.57406-4.3011-0.63215-1.9582-0.34002-1.7681-0.4804-1.5177-0.72316-0.53277-0.38761-0.42951-0.37999-0.52407-0.54869-0.74935-0.93934-0.68392-1.0021-0.45535-0.78653-0.28572-0.57805-0.36616-0.92422-0.27884-1.0106-0.24652-1.5579-0.095765-1.6919 0.009956-1.2433 0.063277-1.2703 0.18544-2.023 0.2654-2.0598 0.68353-4.1883 2.9366-15.475 0.83201-4.7791 0.65279-4.1353 0.56068-4.1112 0.41569-4.195 0.10066-2.1027-0.02258-2.0058-0.19366-1.8603-0.42601-1.6489-0.73175-1.3526-0.69496-0.69746-0.95248-0.55693-0.77694-0.25446-0.56334-0.11835-1.2684-0.13322-3.4223-0.042182-0.64457-0.071682-0.28621-0.17904 0.06811-0.35091 0.31036-0.71425 1.942-4.1231 1.2881-2.5524 1.5991-2.8969 3.9327-6.6854 1.8565-3.4647 2.82-4.674 1.0772-2.1451 0.44888-1.0706 0.41525-1.1892 0.54007-2.1212 0.32705-1.9223 0.28733-2.4432 0.32548-4.5461 0.13008-3.3188 0.04601-2.675-0.007749-2.6872-0.065876-2.6873-0.13572-2.6752-0.2255-2.6497-0.3448-2.6081-0.50511-2.5458-0.68271-2.4115-0.83453-2.3215-0.92711-2.1842-0.99521-2.0657-1.032-1.9178-1.0419-1.7274-1.8184-2.7871-0.74719-1.0364-1.0035-1.15-1.1079-1.1449-0.99899-0.97837-1.1181-0.88132-0.85388-0.49764-0.9376-0.43868-1.7332-0.66735-3.9959-1.3761-1.9571-0.75992-1.7865-0.87899-1.1414-0.7746-0.91828-0.94649-0.40483-0.64844-0.24383-0.54635-0.19448-0.6142-0.12372-0.58888-0.10706-1.3068 0.084683-1.5175 0.27628-1.7709 0.33542-1.5585 1.4811-5.6086 0.036994-0.42132 0.25926-1.001 0.43259-1.365 0.58064-1.5761 0.7173-1.6796 0.93412-1.8736 1.0559-1.8601 1.1434-1.8204 1.2057-1.7661 3.1965-4.3459 1.0011-1.4361 1.0594-1.6751 0.95619-1.7036 0.84649-1.7299 0.72418-1.7565 0.51657-1.5166 1.3833-4.5314 0.5481-1.4556 0.81941-1.713 0.98008-1.6234 1.1362-1.5194 1.0118-1.1229 1.0882-1.0622 2.3175-2.0021 5.1584-4.1905 1.1654-1.0473 1.057-1.0607 0.90839-1.0808 0.44981-0.65398 0.50376-0.95289 0.22518-0.61527 0.17627-0.66464 0.33335-1.7519 0.2233-0.85341 0.44146-0.91119 0.74135-0.79785 1.0133-0.69293 1.2346-0.61018 1.4147-0.54468 1.7705-0.55338 1.9159-0.50744 4.1234-0.93665 2.7119-0.55802 7.1595-1.3665 0.55236-0.15844 4.283-0.72421 5.1986-0.77861 2.8168-0.35615 2.8663-0.30094 2.8244-0.22561 2.8125-0.16249 5.5442-0.17457 5.4137-0.008972 2.6592 0.057145 2.6301 0.10485 2.6033 0.16203 2.5876 0.22753 5.1165 0.60023 7.5747 1.1058 17.962 2.9817 5.1799 0.7759 5.0587 0.62064 2.5344 0.25348 5.0054 0.36702 2.4704 0.11746 4.9465 0.13868 4.951 0.0227 2.476-0.036769 5.0085-0.18609 5.0022-0.32273 12.012-1.1435 2.262-0.1157 2.2641 0.005359 2.6315 0.20386 2.6431 0.38477 2.6602 0.52326 2.6826 0.62921 5.4513 1.4841 8.4296 2.5741 16.001 5.1723 2.2244 0.68133" stroke="#bdc660"/>
    </defs>
    <g clip-path="url(#p86737d2aa3)">
     <use y="280.512" fill="#bdc660" stroke="#bdc660" xlink:href="#m521e7532c6"/>
    </g>
   </g>
  </g>
 </g>
 <defs>
  <clipPath id="p86737d2aa3">
   <rect x="7.2" y="7.2" width="297.6" height="266.11"/>
  </clipPath>
 </defs>
</svg>
