<?xml version="1.0" encoding="UTF-8"?>
<!DOCTYPE svg  PUBLIC '-//W3C//DTD SVG 1.1//EN'  'http://www.w3.org/Graphics/SVG/1.1/DTD/svg11.dtd'>
<svg width="318.38pt" height="280.51pt" version="1.1" viewBox="0 0 318.38 280.51" xmlns="http://www.w3.org/2000/svg" xmlns:xlink="http://www.w3.org/1999/xlink">
 <metadata>
  <rdf:RDF xmlns:cc="http://creativecommons.org/ns#" xmlns:dc="http://purl.org/dc/elements/1.1/" xmlns:rdf="http://www.w3.org/1999/02/22-rdf-syntax-ns#">
   <cc:Work>
    <dc:type rdf:resource="http://purl.org/dc/dcmitype/StillImage"/>
    <dc:date>2024-07-04T12:07:35.544305</dc:date>
    <dc:format>image/svg+xml</dc:format>
    <dc:creator>
     <cc:Agent>
      <dc:title>Matplotlib v3.7.1, https://matplotlib.org/</dc:title>
     </cc:Agent>
    </dc:creator>
   </cc:Work>
  </rdf:RDF>
 </metadata>
 <defs>
  <style type="text/css">*{stroke-linejoin: round; stroke-linecap: butt}</style>
 </defs>
 <g id="figure_1">
  <g id="patch_1">
   <path d="m0 280.51h318.38v-280.51h-318.38v280.51z" fill="none"/>
  </g>
  <g id="axes_1">
   <g id="PatchCollection_1">
    <defs>
     <path id="m343520a4aa" d="m207.33-258.58-0.10319 0.19483 0.46618-0.00462 0.34493 0.13736 1.4845 1.1026 1.2151 1.2552 1.5778 2.0674 1.6911 2.9687 2.4404 5.4348 1.1561 2.3337 1.4136 2.2298 1.7061 1.8585 2.9429 1.7974 1.2252 0.44472 1.6875 0.42121 1.7914 0.25946 2.9646 0.11742 2.798-0.14356 4.6161-0.39887 2.6114 0.035346 1.0395 0.15511 2.5892 0.88002 2.4426 1.3727 2.7188 2.0712 2.1005 2.316 5.3344 6.7191 2.2846 2.405 0.99871 0.9099 3.2411 2.5134 4.1467 2.8761 4.014 2.9875 3.0255 2.5409 1.9355 1.7932 1.6005 1.6487 0.92824 1.0891 1.3064 1.9233 0.83875 1.8246 0.28693 0.90063 0.37404 1.8651 0.12346 1.3666 0.029303 1.6253-0.17137 3.2572-1.1174 9.3993-0.50738 6.1008-0.11966 3.0052 0.018871 3.085 0.17908 2.7601 0.29312 2.3285 0.82785 3.7653 0.74987 2.3186 0.80517 2.0866 3.1781 7.5462 3.0871 6.8494 2.0296 4.1435 3.056 5.9103 0.97127 2.1644 0.5892 1.6773 0.37695 1.4477 0.29608 1.7754 0.10343 1.3277-0.010004 1.6171-0.12338 1.484-0.70494 4.2706-1.1231 4.5432-2.7652 9.1291-1.7073 6.813-0.72695 3.4594-1.1797 6.3492-0.42189 2.7531-0.33643 3.1729-0.12805 4.4496 0.33555 5.9322 2.2989 23.69 0.27038 4.0082-0.00956 4.0652-0.26658 3.1489-0.43153 2.1958-0.30955 0.76389-0.33874 0.30569-0.17131 0.7566-0.39101 1.0234-1.8573 3.1402-0.70503 0.63264-1.7821 0.83916-0.42949 0.5144-0.11374 0.76671 0.17981 2.2762-0.063009 0.32918-0.27672 0.41955-0.37849 0.14874-0.46015-0.026086-1.8832-0.81801-0.75667-0.22792-0.67489-0.059375-0.81799 0.094787-1.017 0.34114-0.98554 0.55547-0.9252 0.82583-0.31777 0.4148-0.14463 0.34623-0.17171-0.26874-0.23882-1.2684-1.3212-11.633-0.33363-2.1733-0.2516-1.145-0.66818-2.0156-0.99881-1.7865-2.4965-2.3501-3.3838-1.717-4.031-1.2332-4.4828-0.87533-4.7875-0.61593-4.9865-0.4303-5.1123-0.29861-10.42-0.34778-31.402-0.45901-10.028-0.38168-4.8005-0.3381-4.6643-0.49545-4.4756-0.71457-4.2166-1.0153-3.8648-1.4225-3.392-1.9673-1.8698-1.6117-1.6309-1.8528-1.332-1.909-1.1999-2.0327-1.536-2.9832-1.4276-3.2217-2.0257-4.945-2.1728-6.2626-2.8246-9.4735-0.838-2.3855-0.9945-1.7132-1.3764-1.2553-1.2162-0.52944-1.4078-0.26499-1.905-0.011808-2.7346 0.39802-4.7782 1.2616-7.7037 2.2385-3.9291 0.78281-3.897 0.23756-3.8811-0.47832-7.7866-1.8735-4.0742-0.59724-4.1728 0.078956-4.3642 0.66239-4.5202 1.1107-4.6506 1.4539-4.7636 1.7167-4.8651 1.9188-4.9591 2.0755-15.371 6.8594-29.268 13.685-4.0014 1.7894-0.34121-1.4229-0.31832-3.4388-0.035259-4.5476 0.45814-5.0518 0.17991-1.1037 0.21479-1.1161 1.2329-4.5304 1.7929-4.3333 2.3575-4.0051 3.2154-3.9067 3.7324-3.4731 4.0928-3.1343 4.3354-2.876 4.4934-2.682 4.5929-2.5373 4.6529-2.4299 9.3908-4.6418 32.776-15.435 9.0845-4.5531 4.4109-2.392 4.2731-2.5171 4.0802-2.6934 3.8135-2.9375 3.4494-3.2703 3.0985-3.8045 2.6997-4.1569 2.3908-4.4139 2.1412-4.5995 1.9236-4.7324 1.7136-4.8271 1.4876-4.8947 1.2217-4.943 0.89062-4.9779 0.48587-4.5401 0.88617-13.465 0.58408-4.331 0.58097-2.766 0.63248-2.3512 2.8363-8.5174 0.8697-2.9295 0.71542-3.4286 0.41607-3.6572 0.12082-3.2035-0.048881-2.6357-0.16594-2.5148-0.59051-3.9343-1.673-6.7695-0.25676-1.3997-0.033852-0.64401 0.091671-0.7081 0.22819-0.52875 0.24692-0.30699 0.84062-0.5019 1.1864-0.26288 2.2596-0.060065 8.8093 0.75192 3.368 0.2067 3.1019 0.066461 6.0195-0.077374 13.865-0.63286 4.7604 0.029792 4.4116 0.28245 3.5253 0.48657 2.6386 0.66748 1.0913 0.49577 0.31556 0.355" stroke="#bdc660"/>
    </defs>
    <g clip-path="url(#pd1044c99c2)">
     <use y="280.512" fill="#bdc660" stroke="#bdc660" xlink:href="#m343520a4aa"/>
    </g>
   </g>
  </g>
 </g>
 <defs>
  <clipPath id="pd1044c99c2">
   <rect x="7.2" y="7.2" width="303.98" height="266.11"/>
  </clipPath>
 </defs>
</svg>
