<?xml version="1.0" encoding="UTF-8"?>
<!DOCTYPE svg  PUBLIC '-//W3C//DTD SVG 1.1//EN'  'http://www.w3.org/Graphics/SVG/1.1/DTD/svg11.dtd'>
<svg width="244.95pt" height="280.51pt" version="1.1" viewBox="0 0 244.95 280.51" xmlns="http://www.w3.org/2000/svg" xmlns:xlink="http://www.w3.org/1999/xlink">
 <metadata>
  <rdf:RDF xmlns:cc="http://creativecommons.org/ns#" xmlns:dc="http://purl.org/dc/elements/1.1/" xmlns:rdf="http://www.w3.org/1999/02/22-rdf-syntax-ns#">
   <cc:Work>
    <dc:type rdf:resource="http://purl.org/dc/dcmitype/StillImage"/>
    <dc:date>2024-07-04T12:07:21.298753</dc:date>
    <dc:format>image/svg+xml</dc:format>
    <dc:creator>
     <cc:Agent>
      <dc:title>Matplotlib v3.7.1, https://matplotlib.org/</dc:title>
     </cc:Agent>
    </dc:creator>
   </cc:Work>
  </rdf:RDF>
 </metadata>
 <defs>
  <style type="text/css">*{stroke-linejoin: round; stroke-linecap: butt}</style>
 </defs>
 <g id="figure_1">
  <g id="patch_1">
   <path d="m0 280.51h244.95v-280.51h-244.95v280.51z" fill="none"/>
  </g>
  <g id="axes_1">
   <g id="PatchCollection_1">
    <defs>
     <path id="m34311c4434" d="m227.27-258.32-2.3057 8.1959-2.8799 9.5448-1.9026 5.8107-2.3489 6.4926-9.2659 24.142-2.8814 7.3202-1.24 2.9807-16.887 39.263-3.2506 7.7764-0.99938 2.5441-0.91954 2.5001-0.80353 2.4372-0.63836 2.349-0.40701 2.2269-0.087754 2.0602 0.34682 1.8355 0.36947 0.80159 0.96796 1.2741 1.237 1.1535 1.3739 1.1632 1.2879 1.1902 1.2102 1.3581 0.9281 1.3487 0.62708 1.1324 0.87563 1.9677 0.46859 1.2891 0.42414 1.3343 0.64226 2.3404 0.61043 2.5765 1.9841 9.4708 0.61535 2.3433 2.1128 7.103 0.55115 2.3994 0.333 2.4126 0.015235 2.4181-0.23447 1.7726-0.22641 1.0594-0.26089 0.99891-0.6651 2.1006-0.44852 1.2306-0.86898 2.1436-1.289 2.7482-0.6504 1.203-0.62552 1.0004-0.15991 0.11243-0.64162 1.0011-3.2056 5.8809-2.0277 3.4693-1.3317 2.017-1.556 2.0345-1.619 1.8177-1.7189 1.661-1.8081 1.4821-2.2938 1.5084-0.98207 0.52844-1.9356 0.89965-5.1307 2.0768-4.1996 1.9318-1.4782 0.60247-2.8038 1.0141-3.2863 1.0671-7.3241 2.2722-2.4236 0.69018-2.8557 0.73845-2.0645 0.66758-1.5498 0.66204-1.8719 0.97555-2.8865 1.7712-5.1552 3.3883-1.5751 0.8939-1.0685 0.51943-3.7147 1.6122-2.8885 1.1551-3.8313 1.3598-4.4772 1.6564-3.2449 1.0488-2.3994 0.58317-2.4866 0.40771-2.4537 0.20567-2.5087 0.01476-2.0712-0.12485-2.1864-0.23782-3.7342-0.53392-5.9973-0.93656-0.81592-0.087629-0.25632 0.002839-0.060057 0.037357-0.44835-0.048189-1.204-0.26079-1.1663-0.37515-0.77377-0.44499-1.7152-1.3216-0.39446-0.24636-0.66552-0.27543-1.0788-0.22847-2.148-0.26938-1.806-0.41272-0.58722-0.049521-0.69532 0.039482-0.73588 0.15548-0.60894 0.24754-1.8982 1.0844-1.7882 1.1768-0.61882 0.33892-2.3215 0.95809-1.825 1.0719-1.3832 0.73658-2.2091 0.9776-0.64282 0.23647-1.5077 0.37724-1.1598 0.55025-0.44091 0.15667-0.55568 0.075691-1.2591-0.020086-0.64524 0.12951 0.17753-0.53744 3.7502-8.6879 2.2745-5.3962 2.1017-5.2586 1.3345-3.6805 0.55686-1.7276 0.54997-1.9805 0.37545-1.7977 0.15947-1.5827-0.11975-1.2754-0.47378-0.88256-0.88514-0.43073-1.2059-0.082237-1.4184 0.13576-3.1254 0.48134-1.5568 0.13974-1.4583-0.068401-1.2858-0.39544-0.80809-0.5704-0.56963-0.6245-0.49308-0.71774-2.7974-5.0163-1.2774-2.0385-1.6131-2.4262-2.8218-3.9655-3.1755-4.1013-1.1137-1.5424-0.96697-1.5546-0.62864-1.2437-1.6569-3.9255-0.62561-1.0878-0.78158-0.88677-1.3278-0.79711-1.6146-0.50418-3.6967-0.71152-1.8822-0.49224-1.7588-0.76848-1.436-1.0302-1.2072-1.2336-0.9355-1.2787-0.58565-1.1269-0.089245-0.66408-0.006881-0.083029 0.46762-0.5305 2.4649-2.4854 1.3306-1.4487 2.6532-3.0808 2.6727-3.2204 1.3175-1.7553 0.95718-1.41 0.95798-1.5726 0.93485-1.7324 1.1543-2.4961 0.97772-2.5513 0.66686-2.0795 1.3988-4.9416 1.5544-5.0833 1.1945-3.5002 1.2875-3.4222 2.2346-5.1193 3.6167-7.4356 2.084-4.4684 1.3049-2.9648 1.0001-2.5807 0.5126-1.6904 0.29214-1.3089 0.1808-1.3552 0.065019-1.5307-0.031218-0.93098-0.12398-1.2674-0.94655-6.8882-0.33777-3.6184-0.11326-2.033-0.06308-3.7049 0.058035-2.7405 0.12952-2.5761 0.29349-3.314 0.49691-3.4123 0.45987-2.1799 0.37047-1.3669 0.4342-1.2642 0.49063-1.0797 0.57369-0.92263 0.48618-0.56724 0.39858-0.3323 0.28212-0.15631 0.631 0.046021 0.39069 0.13229 0.89965-0.022838 1.5165-0.21599 2.0391-0.4789 2.2372-0.74678 2.0088-0.88048 2.0183-1.0615 2.0074-1.1993 2.6411-1.7481 2.5909-1.86 2.5373-1.9261 4.9268-3.9378 14.092-11.659 4.6835-3.6329 2.3841-1.7111 3.3831-2.2098 1.721-1.0234 1.9517-1.0761 1.9671-0.99674 1.9751-0.91187 1.9754-0.8169 2.0199-0.7375 3.8908-1.3252 1.9777-0.75123 1.4664-0.68577 1.025-0.60861 1.149-0.82113 1.0707-0.89215 3.2002-2.9483 0.96665-0.64307 0.85846-0.16939 0.32689 0.11169 0.49299 0.44832 0.60353 1.1671 0.49008 1.6279 0.41427 1.9624 1.5044 9.4169 0.48459 2.4046 0.5979 2.2995 0.66352 1.8928 0.44085 0.9729 0.62567 1.0925 1.232 1.4562 1.6135 1.072 1.8911 0.69722 2.0809 0.4 2.195 0.15716 2.2409-0.052124 2.2214-0.24712 2.1349-0.44638 1.975-0.66855 1.7307-0.93332 1.3856-1.2622 0.96567-1.6506 0.61152-1.9623 0.35274-2.1866 0.17214-2.3406 0.057172-2.4367-0.004573-4.9673 0.045633-2.4405 0.15386-2.349 0.32943-2.2027 0.58616-1.9906 0.94318-1.6974 1.4375-1.3813 1.8276-1.063 2.1181-0.82747 2.3313-0.65661 2.4849-0.53632 2.5927-0.45582 2.6648-0.40734 8.1609-1.1871 2.6998-0.4634 2.6497-0.54079 2.5698-0.65037 2.4534-0.7979 4.6809-1.942 2.4043-0.77802 2.4104-0.40347 2.5579-0.11632 2.668 0.11101 2.7342 0.28728 2.7437 0.41768 2.6748 0.50299 2.4932 0.53792 4.3285 1.043" stroke="#bdc660"/>
    </defs>
    <g clip-path="url(#pb2db4ee54c)">
     <use y="280.512" fill="#bdc660" stroke="#bdc660" xlink:href="#m34311c4434"/>
    </g>
   </g>
  </g>
 </g>
 <defs>
  <clipPath id="pb2db4ee54c">
   <rect x="7.2" y="7.2" width="230.55" height="266.11"/>
  </clipPath>
 </defs>
</svg>
