<?xml version="1.0" encoding="UTF-8"?>
<!DOCTYPE svg  PUBLIC '-//W3C//DTD SVG 1.1//EN'  'http://www.w3.org/Graphics/SVG/1.1/DTD/svg11.dtd'>
<svg width="312.28pt" height="280.51pt" version="1.1" viewBox="0 0 312.28 280.51" xmlns="http://www.w3.org/2000/svg" xmlns:xlink="http://www.w3.org/1999/xlink">
 <metadata>
  <rdf:RDF xmlns:cc="http://creativecommons.org/ns#" xmlns:dc="http://purl.org/dc/elements/1.1/" xmlns:rdf="http://www.w3.org/1999/02/22-rdf-syntax-ns#">
   <cc:Work>
    <dc:type rdf:resource="http://purl.org/dc/dcmitype/StillImage"/>
    <dc:date>2024-07-04T12:07:29.113094</dc:date>
    <dc:format>image/svg+xml</dc:format>
    <dc:creator>
     <cc:Agent>
      <dc:title>Matplotlib v3.7.1, https://matplotlib.org/</dc:title>
     </cc:Agent>
    </dc:creator>
   </cc:Work>
  </rdf:RDF>
 </metadata>
 <defs>
  <style type="text/css">*{stroke-linejoin: round; stroke-linecap: butt}</style>
 </defs>
 <g id="figure_1">
  <g id="patch_1">
   <path d="m0 280.51h312.28v-280.51h-312.28v280.51z" fill="none"/>
  </g>
  <g id="axes_1">
   <g id="PatchCollection_1">
    <defs>
     <path id="me2881624ed" d="m291.54-235.17-7.8881 19.404-3.6736 8.186-3.6733 8.3842-0.18232-0.2051-0.63052-0.28643-1.5245-0.38564-2.0368-0.28112-2.5488-0.16319-2.7504-0.017212-8.0104 0.36564-3.4778 0.044703-1.7921-0.038398-1.9458-0.11942-5.0896-0.43442-1.3055 0.034703-0.68546 0.15188-0.48567 0.28997-0.14266 0.17736-0.13184 0.30549-0.052963 0.40911 0.019558 0.37208 0.14834 0.80866 0.96655 3.9111 0.34117 2.273 0.095871 1.4529 0.028242 1.5228-0.069802 1.8508-0.24038 2.1129-0.41334 1.9809-0.50247 1.6925-1.6387 4.921-0.36542 1.3584-0.33566 1.5981-0.33745 2.5022-0.51199 7.7794-0.28071 2.6231-0.51456 2.876-0.70583 2.8558-0.85946 2.8279-0.99006 2.7889-1.1114 2.7341-1.2371 2.6573-1.3813 2.5501-1.5597 2.4017-1.7902 2.198-1.9929 1.8894-2.2032 1.6972-2.3573 1.5561-2.4688 1.4542-2.5484 1.382-5.2486 2.6306-18.936 8.9174-5.4255 2.6818-2.6882 1.4039-2.6536 1.4659-2.5961 1.5495-2.5048 1.6616-2.3646 1.8108-2.1564 2.0066-1.8577 2.2571-1.3621 2.3139-1.0359 2.5036-0.71233 2.6174-0.1241 0.64484-0.10394 0.63768-0.26469 2.9187 0.020371 2.6274 0.18391 1.9868 0.19714 0.82209-0.13281 0.45998-1.0798 6.4617-0.98374 4.8468-0.58154 2.4154-0.60602 2.2008-0.66786 2.0855-0.73846 1.932-0.66631 1.4422-0.72865 1.2902-0.56581 0.82668-1.0078 1.2091-1.0996 0.95944-0.98136 0.56009-1.0472 0.33028-0.91476 0.089453-1.0756-0.069292-0.88488-0.15203-1.5104-0.38142-1.0959-0.3422-8.6378-3.0556-2.2867-0.67076-2.0545-0.49851-1.4615-0.25738-1.6462-0.15592-5.3763 0.052306-2.1746-0.17216-2.2299-0.35353-2.2599-0.49706-1.3451-0.34941-5.516-1.6759-2.4913-0.67521-2.5209-0.42478-2.0396-0.073185-2.069 0.14046-2.5725 0.40584-2.5968 0.59887-2.6154 0.73601-2.0753 0.6494-3.5496 1.2148-3.6482 1.4178-3.8477 1.6654-10.003 4.5151-3.8772 1.6467-1.9561 0.76761-1.9454 0.7038-1.9306 0.62384-5.5841 1.5481-1.5287 0.49758-2.1924 0.92854-0.96114 0.48726-1.7987 1.0908-1.7177 1.2018-1.6821 1.2784-1.1211 0.98799-0.82533 0.8154-1.5974 1.9253-1.6338 2.5378-1.4004 2.5212-0.73069 1.4487-1.0878 2.4144-0.79664 2.1771-1.0839 3.6249-0.77076 3.0835-0.52853 2.3658-0.44147 1.6073-0.38304 0.85248-0.10499 0.11008-0.12469 0.018434-0.45923-1.0127-1.1081-2.1803-2.3739-4.1012-0.92054-1.7378-0.77198-1.8251-0.5242-1.6968-0.29254-1.3259-0.21376-1.4673-0.25124-3.9526-0.53654-5.7738-0.28487-2.3943-0.2741-1.6367-0.35103-1.5696-0.38398-1.3937-1.7627-5.19-1.0094-3.8951-0.28612-0.91173-0.81801-1.876-0.79871-1.4218-2.196-3.348-2.6983-4.376-0.59949-1.3022-0.14749-0.59085-0.067465-0.79018 0.077146-1.0385 0.11462-0.68697 0.45673-2.1891 0.44931-1.7106 3.1236-10.919 1.9452-6.1151 1.3307-4.6543 2.6764-8.8544 0.69589-2.5647 0.68329-2.8566 1.2124-5.9894 1.0726-6.2443 1.4748-9.6591 1.9934-14.012 68.434-108.42 17.081-0.23837 9.5688 0.033425 6.1824 0.21797 3.0217 0.20958 2.9757 0.30537 2.9876 0.42764 2.9487 0.52246 2.9172 0.59057 5.7637 1.3109 8.5326 2.125 22.515 5.7679 11.403 2.6966 12.709 2.783 5.7598 1.1558 5.79 1.0632 6.2843 0.98024 2.6263 0.34328 5.2937 0.59906 5.0518 0.47494 16.555 1.3447 6.3859 0.57581 6.5383 0.69886 11.833 1.3697 4.3334 0.44904" stroke="#bdc660"/>
    </defs>
    <g clip-path="url(#pb01c6df684)">
     <use y="280.512" fill="#bdc660" stroke="#bdc660" xlink:href="#me2881624ed"/>
    </g>
   </g>
  </g>
 </g>
 <defs>
  <clipPath id="pb01c6df684">
   <rect x="7.2" y="7.2" width="297.88" height="266.11"/>
  </clipPath>
 </defs>
</svg>
