<?xml version="1.0" encoding="UTF-8"?>
<!DOCTYPE svg  PUBLIC '-//W3C//DTD SVG 1.1//EN'  'http://www.w3.org/Graphics/SVG/1.1/DTD/svg11.dtd'>
<svg width="267.23pt" height="280.51pt" version="1.1" viewBox="0 0 267.23 280.51" xmlns="http://www.w3.org/2000/svg" xmlns:xlink="http://www.w3.org/1999/xlink">
 <metadata>
  <rdf:RDF xmlns:cc="http://creativecommons.org/ns#" xmlns:dc="http://purl.org/dc/elements/1.1/" xmlns:rdf="http://www.w3.org/1999/02/22-rdf-syntax-ns#">
   <cc:Work>
    <dc:type rdf:resource="http://purl.org/dc/dcmitype/StillImage"/>
    <dc:date>2024-07-04T12:07:27.993239</dc:date>
    <dc:format>image/svg+xml</dc:format>
    <dc:creator>
     <cc:Agent>
      <dc:title>Matplotlib v3.7.1, https://matplotlib.org/</dc:title>
     </cc:Agent>
    </dc:creator>
   </cc:Work>
  </rdf:RDF>
 </metadata>
 <defs>
  <style type="text/css">*{stroke-linejoin: round; stroke-linecap: butt}</style>
 </defs>
 <g id="figure_1">
  <g id="patch_1">
   <path d="m0 280.51h267.23v-280.51h-267.23v280.51z" fill="none"/>
  </g>
  <g id="axes_1">
   <g id="PatchCollection_1">
    <defs>
     <path id="m4e506cd291" d="m160.21-246.61 1.2171 0.79137 9.3487 6.7848 4.646 3.2988 2.8931 1.9491 3.2694 2.0124 2.9347 1.5601 2.6058 1.1268 1.4215 0.49153 1.425 0.39677 1.4245 0.29047 1.8082 0.19175 1.7844-0.037924 1.3487-0.20936 1.3136-0.36836 1.0088-0.4033 0.97864-0.49311 1.1111-0.68166 1.0706-0.77489 1.9388-1.6745 3.4418-3.4343 0.97493-0.92851 1.3715-1.1942 1.4339-1.0882 1.516-0.95581 1.5843-0.78327 1.5313-0.54293 1.576-0.34221 1.6366-0.12027 1.6507 0.10942 1.7778 0.37744 1.3684 0.47405 1.3433 0.61935 1.4485 0.84486 1.3979 1.0014 1.1275 0.958 1.0772 1.0578 0.91147 1.0205 0.86471 1.0868 0.90587 1.2769 1.5068 2.4686 1.3877 2.7082 1.8634 4.3186-0.026189 0.30303 0.4483 0.82249 4.7822 6.9763 1.8865 3.152 0.91518 1.7533 0.67617 1.4418 0.91158 2.2486 0.49558 1.4619 0.3033 1.0457 0.418 1.8785 0.23124 1.983 0.042731 1.2562-0.035161 1.786-0.078155 1.1094-0.16755 1.2454-0.42962 1.7638-1.0259 2.8079-0.77532 1.7414-0.81907 1.6536-1.7849 3.1835-1.2651 2.0314-0.77571 1.1304-0.67835 0.8871-0.78209 0.90239-0.85699 0.83359-0.47192 0.38716-0.8514 0.57966-0.94275 0.4814-0.45081 0.17056-1.0391 0.2409-0.88986 0.054654-0.99091-0.04928-6.247-0.82212-3.6522-0.2975-1.9157-0.033078-2.5265 0.12511-1.3269 0.16344-3.6603 0.5965-1.6812 0.10077-1.292-0.076893-4.788-0.73751-1.1961-0.086142-0.90002 0.011589-1.1538 0.11255-1.7621 0.39286-1.9842 0.7899-1.484 0.90869-1.0663 0.91395-0.37 0.3952-0.61116 0.77761-0.5511 0.84647-1.0903 2.0071-1.8206 3.7924-0.95916 1.8547-1.3258 2.2354-1.053 1.5085-1.3132 1.6025-1.0577 1.1275-2.0106 1.9096-3.6882 3.2465-1.2908 1.3006-0.96069 1.1832-0.48141 0.76999-0.26496 0.56056-0.2289 0.77014 0.002537 1.2497 0.25193 0.79502 0.48069 0.81546 0.5696 0.69921 4.3033 4.4532 2.07 1.6869 3.2552 2.2948 1.5441 1.1975 1.325 1.2539 0.77848 0.98074 0.51915 1.3072 0.015862 0.73835-0.26274 0.94771-0.52475 0.8475-0.67181 0.68976-0.83116 0.63844-0.89392 0.5662-4.221 2.2283-1.2693 0.72057-3.4595 2.3072-5.1945 3.7422-2.0601 1.2575-2.7493 1.338-1.6993 0.68309-1.1436 0.37767-1.1324 0.29075-1.7536 0.23498-1.1967-0.043113-1.4637-0.33666-1.4368-0.57382-3.345-1.7173-6.1571-3.7185-1.288-0.63955-0.9877-0.35054-0.56042-0.12636-0.4871-0.061379-0.78085-0.008395-0.91148 0.11953-0.79602 0.22867-0.79042 0.37304-0.61092 0.43635-0.41789 0.4282-0.36921 0.56939-0.15789 0.38377-0.15293 0.6117-0.11088 1.4058 0.01262 0.95826 0.26636 4.1134 0.002011 1.962-0.15537 2.048-0.40809 2.324-0.67021 2.2832-0.98649 2.542-1.2238 2.5512-2.0029 3.5813-0.72915 1.6363-0.29373 0.98834-0.13352 0.71662-0.088244 1.2433 0.042332 0.91094 0.13242 0.92176 0.23873 0.97441 0.26343 0.77402 0.46891 1.0633 0.76098 1.3744 0.83435 1.3008 1.114 1.5842 3.3588 4.3768 1.8146 2.5267 1.3588 2.1339 0.75309 1.316 1.2684 2.4678 1.2076 2.6551 0.41792 1.248 0.001985 0.43623-0.097523 0.077392-2.4328-0.69302-1.9776-0.46434-1.5855-0.30026-1.9128-0.20287-0.86651-0.006488-1.3336 0.15501-0.71303 0.19417-0.57332 0.22815-0.63603 0.34794-0.4398 0.31584-0.44377 0.40047-0.67354 0.85324-0.43636 0.85323-0.75534 2.0705-0.29539 0.65362-0.365 0.62322-0.49918 0.64742-0.70318 0.71556-1.9621 1.659-2.0954 1.5659-1.44 0.96266-4.7353 2.971-1.9509 1.328-1.5628 1.1485-1.5255 1.2107-2.2242 1.9777-1.9047 1.9925-1.9211 2.3901-1.3775 1.9575-0.73793 1.173-0.8782 1.5264-1.4351 2.7779-2.6507 5.6989-1.2679 2.2178-1.1297 1.4079-1.1932 1.1322-0.89051 0.68495-1.4165 0.8625-1.3687 0.59332-1.4291 0.41659-1.4343 0.24903-1.3985 0.14934-1.2859 0.064264-2.1369-0.053254-1.7066-0.15957-2.0205-0.29447-2.7468-0.54968-4.8261-1.144-2.1723-0.33648-1.3698-0.079198-1.4794 0.007828-3.5508 0.16556-1.5767-0.025821-1.2238-0.1987-0.69202-0.25831-0.56629-0.36408-0.48615-0.52514-0.118-0.18002-0.41232-0.98745-0.18644-1.4589 0.11224-1.3307 0.11808-0.58414 0.35386-1.1658 0.72824-1.6527 1.1216-2.0398 1.3986-2.2052 2.6471-3.9932 1.1194-1.8992 0.71486-1.4369 0.5561-1.4361 0.29288-1.1005 0.12925-0.77373 0.061501-0.96549-0.097744-1.1908-0.26096-1.0873-0.59616-1.4506-0.66191-1.0761-0.71235-0.84113-0.55144-0.5011-1.3854-0.91862-1.1259-0.48007-1.852-0.51756-2.036-0.34778-2.1624-0.21361-2.182-0.078801-1.8121 0.080195-1.7787 0.17276-6.0791 0.79564-3.3159 0.36084-4.613 0.35788-4.3407 0.17124-2.2519 0.021675-3.1217-0.047951-6.5219-0.30732-4.9941-0.39612-3.0339-0.35328-0.45592-0.095924-0.056685-0.05084 36.225-114.89 5.6677-18.191 6.3282-20.664 1.7429-5.389 0.8806-2.5546 1.9136-5.0674 1.1999-2.802 1.3237-2.7582 1.5519-2.8311 1.7322-2.758 1.6156-2.2697 1.7472-2.213 1.5653-1.8209 3.3425-3.5678 3.5053-3.4868 7.8573-7.6488 2.8569-2.9685 1.604-1.8116 1.4301-1.8073 0.62312-0.94534 0.11747-0.45237 6.234 2.7673 3.8801 1.599 1.989 0.72231 1.8646 0.61002 4.4114 1.2644 1.9866 0.46018 2.7794 0.52173 6.9478 1.146 3.2095 0.46954 2.7796 0.27482 7.1241 0.36436 2.2518 0.21806 2.2209 0.33859 2.35 0.56084 1.8672 0.65718 0.89996 0.39015 1.7457 0.89658 2.1408 1.3408" stroke="#bdc660"/>
    </defs>
    <g clip-path="url(#p88a71b18a1)">
     <use y="280.512" fill="#bdc660" stroke="#bdc660" xlink:href="#m4e506cd291"/>
    </g>
   </g>
  </g>
 </g>
 <defs>
  <clipPath id="p88a71b18a1">
   <rect x="7.2" y="7.2" width="252.83" height="266.11"/>
  </clipPath>
 </defs>
</svg>
