<?xml version="1.0" encoding="UTF-8"?>
<!DOCTYPE svg  PUBLIC '-//W3C//DTD SVG 1.1//EN'  'http://www.w3.org/Graphics/SVG/1.1/DTD/svg11.dtd'>
<svg width="364.6pt" height="280.51pt" version="1.1" viewBox="0 0 364.6 280.51" xmlns="http://www.w3.org/2000/svg" xmlns:xlink="http://www.w3.org/1999/xlink">
 <metadata>
  <rdf:RDF xmlns:cc="http://creativecommons.org/ns#" xmlns:dc="http://purl.org/dc/elements/1.1/" xmlns:rdf="http://www.w3.org/1999/02/22-rdf-syntax-ns#">
   <cc:Work>
    <dc:type rdf:resource="http://purl.org/dc/dcmitype/StillImage"/>
    <dc:date>2024-07-04T12:07:30.968575</dc:date>
    <dc:format>image/svg+xml</dc:format>
    <dc:creator>
     <cc:Agent>
      <dc:title>Matplotlib v3.7.1, https://matplotlib.org/</dc:title>
     </cc:Agent>
    </dc:creator>
   </cc:Work>
  </rdf:RDF>
 </metadata>
 <defs>
  <style type="text/css">*{stroke-linejoin: round; stroke-linecap: butt}</style>
 </defs>
 <g id="figure_1">
  <g id="patch_1">
   <path d="m0 280.51h364.6v-280.51h-364.6v280.51z" fill="none"/>
  </g>
  <g id="axes_1">
   <g id="PatchCollection_1">
    <defs>
     <path id="m5fdc35b99c" d="m291.08-257.26-0.2659 0.23197-0.2556 0.76352 0.001496 0.80585 0.10792 0.58273 0.1869 0.55209 0.2901 0.56921 0.44605 0.63646 0.66399 0.7314 0.88024 0.8004 5.6523 4.4692 0.99527 0.84887 0.89037 0.85839 0.69502 0.80515 0.6309 0.90236 0.56773 1.0085 0.24293 0.52019 0.48093 1.3462 0.3635 1.7862 0.084136 0.97161 0.044947 2.7949-0.060817 1.655-0.17217 1.6747-0.28309 1.502-0.41032 1.4792-0.54011 1.4364-0.67581 1.3954-1.5764 2.6662-3.0558 4.6723-0.97428 1.3288-1.0542 1.2134-1.0889 1.0756-0.80341 0.67274-0.95398 0.69617-3.3008 2.1638-0.98242 0.69451-0.96096 0.7422-1.4717 1.2721-0.90415 0.86099-1.2374 1.2727-5.0496 5.5186-4.622 4.6827-0.84941 0.96895-0.84509 1.0893-0.78922 1.1684-0.57112 0.97479-0.48817 0.96795-0.46452 1.154-0.46116 1.863-0.13032 1.0181-0.024343 0.61865 0.12157 1.3362 0.34242 1.3014 0.5424 1.2271 0.80311 1.2313 1.1195 1.2445 1.3631 0.9592 1.7687 0.5937 1.2651 0.17201 1.3449 0.035965 1.3332-0.078276 1.3706-0.17731 1.6286-0.32071 1.6414-0.42886 2.2303-0.73492 1.5032-0.58289 5.164-2.2851 1.1823-0.46689 0.82951-0.2711 0.97447-0.23932 1.3148-0.19085 1.0324-0.047715 0.9698 0.04745 0.86154 0.13108 1.1955 0.31342 0.97215 0.34999 1.329 0.60424 0.89645 0.5101 1.1171 0.78832 1.2129 1.065 1.0885 1.1798 0.84368 1.1403 0.41484 0.68062 0.5132 0.9994 0.42411 0.99592 0.52264 1.5306 1.9473 7.6132 0.4788 1.7121 0.67754 2.0603 0.55742 1.3952 0.66318 1.3207 0.6454 1.0095 0.52371 0.68684 0.71615 0.81115 1.0309 0.94918 1.14 0.8193 0.6446 0.37853 1.1657 0.59098 1.7353 0.75648 3.8033 1.4553 2.446 0.98632 1.4831 0.67761 1.0517 0.5404 1.4061 0.84063 1.1453 0.8201 1.0991 0.87996 1.1729 0.99728 1.1339 1.0427 0.7236 0.73424 0.6397 0.72854 0.77066 1.0182 0.69868 1.1207 0.60335 1.2308 0.54987 1.5464 0.30892 1.2678 0.1609 0.97283 0.13586 1.6067-0.075192 2.4157-0.29428 1.8871-0.48624 1.6845-0.15704 0.39348-0.2711 0.57106-0.77763 1.1213-0.62619 0.28578-5.7124 3.7963-3.8468 2.6156-3.5408 2.558-2.3382 1.8528-1.3484 1.1457-0.51336 0.51248-0.98773 1.1549-1.5842 2.0134-1.7712 1.9743-1.0911 1.0405-1.0152 0.85823-0.7145 0.52168-0.75774 0.4854-3.5077 2.1139-2.0503 1.1533-1.4777 0.71752-1.8258 0.79011-1.2656 0.43979-0.6887 0.18737-0.61069 0.13437-1.4332 0.21896-3.7128 0.38834-4.337 0.78312-2.02 0.28564-1.9727 0.20385-2.378 0.17439-1.5436 0.18411-1.3527 0.33116-0.92782 0.35581-0.65489 0.35348-0.24068 0.27247-0.004453-0.18037-0.15862-0.1825-0.45651-0.28247-0.46352-0.19381-0.54496-0.17533-1.1694-0.27408-2.0458-0.29377-3.7765-0.26625-7.222-0.33036-2.1337 0.013596-2.717 0.18932-1.6484 0.19419-2.8178 0.45817-2.0909 0.4545-1.5903 0.40784-9.9465 2.9383-2.163 0.76773-2.2159 1.0074-1.3949 0.79075-1.336 0.90368-1.4535 1.1524-0.96426 0.84067-4.9411 4.569-1.5557 1.5084-1.2193 1.3649-0.89459 1.1567-0.79547 1.1703-1.1329 1.9889-0.60965 1.3096-0.60519 1.6005-0.47338 1.6112-0.83843 3.9845-0.50669 1.7048-0.27112 0.63776-0.32625 0.62159-0.44883 0.69174-0.50589 0.63819-0.97467 0.9768-1.2444 0.9795-5.0659 3.4356-1.6393 0.96397-1.2215 0.54809-0.84792 0.30609-0.91774 0.26925-1.1902 0.26109-3.2239 0.49628-1.1635 0.23318-1.6074 0.40541-2.3882 0.68294-1.8021 0.5661-1.9745 0.73142-1.938 0.80963-3.8258 1.6939-1.3621 0.54622-1.0879 0.37462-0.90888 0.25473-0.79341 0.16877-1.3056 0.15076-1.1202-0.013269-1.0664-0.13686-1.2775-0.30449-0.96675-0.32-2.0867-0.87349-3.8877-1.9005-2.1665-0.9845-1.7018-0.63674-1.5478-0.43845-1.8842-0.34923-1.0963-0.10038-0.84326-0.02355-1.2193 0.043292-0.92381 0.083897-1.3671 0.19231-1.215 0.23909-1.1661 0.29412-1.4231 0.44141-1.5369 0.5559-2.3078 0.94002-1.5523 0.7111-1.2028 0.6134-2.4072 1.4265-1.8233 1.2249-1.4818 1.1387-1.4684 1.3167-4.4065 4.3611-1.2623 1.0742-1.4011 0.94595-0.83369 0.44124-1.1187 0.49306-1.6502 0.6162-4.7704 1.6149-1.6426 0.65641-1.4038 0.66447-1.4817 0.81964-4.9576 3.0567-1.4866 0.95191-3.0724 2.0793-1.3422 0.80787-1.9189 1.0251-1.244 0.58297-1.2441 0.4818-1.2152 0.35704-1.825 0.37874-1.9188 0.26939-2.6626 0.24534-1.951 0.11348-3.2023 0.094012-5.0013 0.27554-7.5797 0.58235-4.7684 0.09358-4.832-0.042377-2.188 0.16723-1.4996 0.22865-1.5371 0.32813-2.1824 0.60319-5.313 1.6168-1.7121 0.45844-1.7059 0.37978-1.6334 0.25957-1.4699 0.15936-7.1612 0.58369-0.25968-0.25368-0.34789-0.7293-0.35764-1.0326-0.31347-1.2126-0.22798-1.3069-0.10643-1.3415 0.050911-1.3337 0.25544-1.4033 0.42083-1.4159 0.86253-2.4334 0.21789-0.73564 0.17154-0.72187 0.15168-1.0505 0.019083-0.83007-0.083768-0.90648-0.21273-1.0849-0.42356-1.7147-0.14291-0.88248-0.039449-0.9226 0.085977-0.88978 0.32605-1.7073 0.11053-0.81859-0.013029-0.79358-0.19635-0.7869-0.355-0.74501-0.18651-0.29914-0.46736-0.64342-0.54282-0.62068-0.61168-0.57475-1.5394-1.1432-0.7621-0.62925-0.70358-0.76713-0.61506-0.89388-0.44392-0.84182-0.38408-0.90487-0.33708-0.95381-0.34987-1.1595-0.96406-3.6124-0.3708-1.2182-0.4419-1.1842-0.55295-1.128-0.83162-1.2383-1.2098-1.4344-1.1579-1.2115-1.4947-1.4776-1.4561-1.2581-1.2127-0.8241-0.56419-0.30599-0.86233-0.39915-2.7248-1.0299 0.43792-0.78102 1.7533-2.7707 1.319-2.0274 1.3484-1.9721 1.7357-2.2789 3.1603-3.6259 0.67278-0.81459 1.0049-1.3548 0.52648-0.81368 0.69002-1.1931 2.2291-4.3875 0.5205-0.89716 1.3422-2.0074 2.7889-3.5806 0.60025-0.94511 0.47377-0.94076 0.51887-1.3869 0.47604-1.6909 0.3134-1.4147 0.85514-4.3681 0.2255-2.039 0.10876-3.991 0.12946-1.8541 0.19693-1.4555 0.31967-1.5751 0.59215-2.2047 0.55328-1.5515 0.78439-1.7733 1.1319-2.3241 0.83644-2.0423 0.426-1.4457 0.20694-0.88998 0.605-3.1075 0.18805-1.2706 0.1096-1.4349-0.049214-1.0516-0.18943-0.93071-0.18375-0.5112-0.80052-1.3071-1.3199-1.3078-1.6282-1.146-1.1316-0.64265-1.1813-0.5815-1.2802-0.54898-1.2783-0.47654-3.1279-1.0789-0.98882-0.48728-0.84478-0.60276-0.57303-0.61419-0.62451-1.0653-0.36553-1.4196 0.042404-1.1687 0.43712-1.2513 0.79357-1.0168 1.1884-0.94742 1.2643-0.7226 1.6771-0.7158 1.1868-0.3828 1.2004-0.29376 1.0682-0.17999 1.0385-0.092555 1.4002 0.039055 0.99911 0.19433 0.85935 0.35766 0.19144 0.11886 0.39426 0.30628 0.45681 0.47478 1.053 1.4945 1.6803 2.7153 0.73104 0.96687 0.69399 0.76249 0.98223 0.86554 1.0221 0.72578 1.1754 0.69071 0.97258 0.45257 1.234 0.39389 1.0583 0.20943 1.7664 0.21065 2.9392 0.25887 2.1704 0.34145 2.8818 0.70333 4.9964 1.4446 1.2361 0.29286 1.0492 0.19631 1.8965 0.26465 1.0297 0.092945 2.0611 0.096709 2.7331 0.054368 2.2959-0.030653 2.6552-0.14499 2.3404-0.31662 2.2889-0.49756 3.4907-0.98849 8.1145-2.4597 7.4043-2.0866 6.7889-2.0837 6.6494-1.8379 1.0971-0.33803 1.4238-0.52214 4.013-1.6786 1.3201-0.65754 0.72478-0.40948 1.2203-0.77117 1.1186-0.79895 2.4227-1.8274 1.587-1.27 1.5487-1.3574 1.0392-0.98147 1.6216-1.6387 1.2295-1.3815 1.1543-1.5151 0.76961-1.2303 0.51298-1.0206 0.38391-1.0648 0.22818-1.1851 0.044712-1.2038-0.15692-1.5219-0.31739-1.6556-0.44101-1.7367-2.2297-7.6463-1.0192-3.8717-0.44854-1.9004-0.63966-3.122-0.11208-0.68425-0.10414-1.0942 0.12701-0.38692 0.041241 0.064018 0.16496 0.046743 0.20914 0.006741 0.79835-0.095666 1.7352-0.37417 1.6361-0.45894 2.0031-0.68235 6.1482-2.3088 1.6729-0.6581 1.393-0.62066 2.5506-1.2972 2.367-1.324 1.947-1.1467 1.9631-1.256 3.7203-2.6248 1.7129-1.1313 1.6282-0.87231 1.5591-0.60061 1.2274-0.30354 4.2128-0.71917 3.4745-0.69899 1.2752-0.17755 2.9443-0.2569 1.7789-0.2694 1.8071-0.43388 1.6878-0.48898 4.4285-1.472 2.0801-0.47271 2.3289-0.32546 5.5592-0.54035 1.2599-0.18136 1.195-0.22848 1.6532-0.39594 3.3848-0.91738 2.9403-0.71126 2.0272-0.42063 2.2329-0.37913 1.9075-0.38553 2.7872-0.78057 2.132-0.71786 1.562-0.67749 0.92414-0.5102 1.1003-0.7448 1.2314-1.0017 1.9777-1.7248 3.4137-3.0278 1.9239-1.777 1.145-1.1373 1.2507-1.3311 1.1964-1.3683 1.0306-1.2605 1.9561-2.6281 2.9269-4.2858 1.34-1.7391 1.3109-1.4387 0.81901-0.77487 1.1195-0.92012 1.0586-0.74172 1.0691-0.65056 0.89202-0.48358 1.5078-0.70833 1.1787-0.46966 1.1133-0.38603 2.1374-0.61177 1.8959-0.43917 1.1705-0.22258 5.4226-0.83246 1.8477-0.40235 3.4462-0.88428 1.5828-0.31117 0.70457-0.063112 0.23622 1.2876 0.16362 0.61576 0.22718 0.41092 0.41597 0.39565 0.22604 0.12673 0.27268 0.088109 0.88731 0.093855 0.60288 0.11488 0.43482 0.021302 0.77779-0.06305 0.26012 0.028721 0.35639 0.17158 0.65744 0.49769 0.29285 0.17009" stroke="#bdc660"/>
    </defs>
    <g clip-path="url(#pc7947c4d14)">
     <use y="280.512" fill="#bdc660" stroke="#bdc660" xlink:href="#m5fdc35b99c"/>
    </g>
   </g>
  </g>
 </g>
 <defs>
  <clipPath id="pc7947c4d14">
   <rect x="7.2" y="7.2" width="350.2" height="266.11"/>
  </clipPath>
 </defs>
</svg>
