<?xml version="1.0" encoding="UTF-8"?>
<!DOCTYPE svg  PUBLIC '-//W3C//DTD SVG 1.1//EN'  'http://www.w3.org/Graphics/SVG/1.1/DTD/svg11.dtd'>
<svg width="185.18pt" height="280.51pt" version="1.1" viewBox="0 0 185.18 280.51" xmlns="http://www.w3.org/2000/svg" xmlns:xlink="http://www.w3.org/1999/xlink">
 <metadata>
  <rdf:RDF xmlns:cc="http://creativecommons.org/ns#" xmlns:dc="http://purl.org/dc/elements/1.1/" xmlns:rdf="http://www.w3.org/1999/02/22-rdf-syntax-ns#">
   <cc:Work>
    <dc:type rdf:resource="http://purl.org/dc/dcmitype/StillImage"/>
    <dc:date>2024-07-04T12:08:00.728398</dc:date>
    <dc:format>image/svg+xml</dc:format>
    <dc:creator>
     <cc:Agent>
      <dc:title>Matplotlib v3.7.1, https://matplotlib.org/</dc:title>
     </cc:Agent>
    </dc:creator>
   </cc:Work>
  </rdf:RDF>
 </metadata>
 <defs>
  <style type="text/css">*{stroke-linejoin: round; stroke-linecap: butt}</style>
 </defs>
 <g id="figure_1">
  <g id="patch_1">
   <path d="m0 280.51h185.18v-280.51h-185.18v280.51z" fill="none"/>
  </g>
  <g id="axes_1">
   <g id="PatchCollection_1">
    <defs>
     <path id="m7ab1446ce2" d="m166.4-201.37-0.25912 2.9946-0.2386 3.8926-0.13888 0.80913-0.32161 1.0789-0.29308 0.69605-0.49295 0.88047-0.53368 0.71149-0.70895 0.75711-0.27236 0.24266-0.65222 0.51085-2.5494 1.8464-1.2952 0.99066-1.0566 0.84959-1.1552 0.98724-0.99467 0.93732-0.88131 0.95423-0.72379 0.96679-0.51444 0.97623-0.15627 0.46345-0.13336 0.65092-0.020447 0.65299 0.08786 0.57648 0.17348 0.57698 0.16913 0.41799 0.40494 0.78651 0.66664 0.96499 0.91466 1.0341 1.5748 1.6174 0.46643 0.55716 0.42663 0.65247 0.3235 0.75881 0.21388 1.2417-0.032886 1.1828-0.20732 1.2611-0.42495 1.5169-0.28204 0.77945-0.5256 1.2317-0.67682 1.351-0.76828 1.3675-1.8795 3.0896-1.2926 2.2315-1.243 2.363-0.60206 1.2686-0.52066 1.206-0.53667 1.4189-0.34768 1.0842-0.24627 0.90447-0.23777 1.0445-0.22323 1.1995-0.31374 2.3978-0.17224 2.3793-0.020395 2.4223 0.11089 1.6623 0.27112 2.0042 0.33724 1.897 0.70615 3.2789 0.13992 1.1616 0.069699 1.1847-0.015059 0.73474-0.07029 0.6685-0.096695 0.51076-0.23751 0.86422-0.42484 1.1469-0.50499 1.1314-0.82197 1.6267-1.6551 3.0202-0.93587 1.8118-0.62834 1.3906-0.58221 1.5349-0.25346 0.78139-0.35246 1.2712-0.34475 1.6633-0.16764 1.4553-0.01978 1.327 0.039357 0.59968 0.10738 0.80589 0.23921 1.0497 0.28633 0.85371 0.12472 0.30224 0.52229 1.0156 0.63835 0.97473 0.52129 0.69049 1.2331 1.415 0.97293 0.97558 1.3775 1.236 1.6858 1.3117 1.6598 1.0901 1.4509 0.80286 1.4831 0.68436 1.5017 0.54712 1.5079 0.38227 1.5017 0.17992 1.6153-0.065915 1.5596-0.28656 1.5672-0.46533 1.8569-0.61437 0.67166-0.17717 1.0219-0.15669 0.90444 0.057018 0.53728 0.19231 0.67839 0.52689 0.3823 0.61143 0.16128 0.67357-0.018864 0.4833-0.1659 0.60457-0.28102 0.59893-0.4048 0.65905-0.47742 0.66329-1.1277 1.3831-3.5094 4.0317-1.3814 1.6654-1.7556 2.302-1.3532 1.9355-1.1798 1.8288-1.5572 2.6128-1.7089 3.053-3.687 6.7445-1.4527 2.5267-0.74823 1.2214-1.0451 1.5798-0.80095 1.0951-0.83974 1.0262-0.90599 0.95612-0.96972 0.84304-1.0705 0.71361-1.4814 0.65794-1.6058 0.44071-1.6964 0.28274-1.7595 0.17295-1.7995 0.10322-5.4434 0.22771-1.7647 0.15796-1.7021 0.26171-1.6096 0.41406-1.4798 0.62692-0.60298 0.36153-1.3218 1.0495-0.76179 0.78332-0.89637 1.0863-0.86768 1.218-0.82261 1.2922-3.0942 5.2692-1.9379 3.1283-0.84347 1.5742-0.78388 1.6946-0.72127 1.7693-0.63998 1.8092-1.2488 4.1161-0.8388 3.0265-0.21879 0.68526-0.13527 0.26084-0.22057-0.003246-0.62141-0.27674-0.71223-0.5257-0.65174-0.67574-0.4377-0.64896-0.5046-0.92984-0.43822-0.67079-0.62341-0.59882-0.23857-0.16113-0.42921-0.21178-0.45934-0.13667-0.65264-0.071146-1.3739-0.005998-1.6538-0.175-0.88421-0.047184-2.0276 0.023349-1.0053-0.024083-0.79023-0.06229-1.4462-0.19949-1.2261-0.2798-1.2364-0.39065-1.2197-0.48757-1.1749-0.57783-1.0992-0.66832-0.98792-0.76584-0.63525-0.62021-0.57984-0.64262-0.54525-0.67367-1.2034-1.7284-0.46236-0.75018-0.52292-0.95328-0.50973-1.1788-0.22633-0.8205-0.08138-0.53689-0.025526-0.6725 0.13793-1.1069 0.30204-1.1048 1.1751-3.268 0.17532-0.66903 0.12062-0.68745 0.038484-0.68998-0.023566-0.35414-0.099189-0.48602-0.22404-0.52649-0.37282-0.53193-0.31781-0.33572-0.6679-0.5627-0.98789-0.69791-1.6834-1.1048-0.98418-0.58477-1.0651-0.57237-1.1344-0.55026-1.7135-0.7235-1.1291-0.4078-1.1001-0.34623-1.4347-0.37231-1.3108-0.26324-1.0855-0.17026-0.96486-0.11813-0.836-0.069284-0.29575 0.009721-0.24068 0.093808-0.44818 0.025434-0.56375-0.063206-0.58723-0.13844-0.70925-0.26746-0.49853-0.27089-0.89151-0.77928-0.2252-0.31791-0.4076-0.90144-0.27001-1.4244-0.042867-1.5935 0.15633-2.6298 0.3536-4.1223 0.033153-1.5687-0.13652-1.4461-0.46056-3.2342-0.077348-1.3912 0.059739-0.98971 0.12873-0.74057 0.12919-0.45892 0.3138-0.72801 0.16649-0.28913 0.62694-0.83454 0.76324-0.78133 0.85122-0.76037 2.7406-2.2546 1.4707-1.3469 1.1259-1.1925 1.0158-1.2639 0.53628-0.77335 2.5249-3.9039 1.4889-2.466 0.37608-0.68543 0.67473-1.4149 2.0499-5.1131 0.83394-1.7971 0.5153-0.95757 0.59316-0.95953 0.54116-0.75739 0.44378-0.54818 1.8334-2.0181 0.75382-0.97079 0.97218-1.3628 0.58262-0.90882 0.30756-0.58468 0.15662-0.41431 0.0648-0.28793 0.018634-0.30708-0.21275-0.67175-0.5095-0.44635-0.716-0.13138-0.34504 0.062637-0.44488 0.17298-0.68956 0.41523-0.49143 0.36375-1.1004 0.92286-1.4464 1.2966-2.5033 2.4503-0.7241 0.62435-0.50087 0.38408-0.91648 0.57148-0.92831 0.38563-0.91958 0.17945-0.32791 0.009593-0.75977-0.075463-0.67574-0.14529-0.77224-0.2175-1.1697-0.41074-5.7243-2.2733-0.95004-0.40727-0.9312-0.4656-0.86876-0.49075-0.62653-0.39469-0.50481-0.37624-0.45099-0.39867-0.48192-0.53604-0.45411-0.81767-0.20423-0.93715-0.001906-0.3588 0.046874-0.47098 0.17436-0.81635 0.35464-1.1301 0.81232-2.2166 0.31758-0.93276 0.2732-0.94883 0.1789-0.83196 0.10436-0.8439 0.017858-0.73731-0.10125-1.2961-0.25009-1.4773-1.6112-6.9994-0.40471-1.4503-0.56487-1.5084-0.68045-1.4413-0.8192-1.4686-0.7058-1.1303-0.74855-1.1122-3.6466-5.0147-0.70512-1.0686-0.63658-1.082-0.53382-1.0737-0.42395-1.0964-0.29377-1.1021-0.19844-1.1525-0.14948-1.543-0.046752-1.0141-0.008883-1.1582 0.095366-1.67 0.61796-5.039 0.19697-1.0526 0.2537-0.90304 0.3613-0.84867 0.22333-0.38778 0.37302-0.53017 0.5041-0.58663 0.42629-0.42611 0.58104-0.51088 0.61961-0.48067 0.69686-0.48225 0.99465-0.61449 1.0573-0.57863 2.5201-1.2215 0.3394-0.20556 0.64832-0.48056 0.29949-0.27891 0.4053-0.4769 0.28369-0.50867 0.15004-0.49843 0.020219-0.23753-0.071155-0.45516-0.091906-0.23259-0.41141-0.62428-0.59062-0.60926-2.3269-2.2207-2.2339-2.012-0.48123-0.51226-0.81367-0.98562-1.2995-1.8116-3.1267-4.8265-0.8376-1.2067-1.1746-1.5525-3.5439-4.3892-0.68718-0.90009-1.1036-1.5749-0.65334-1.058-0.45302-0.81575-0.78911-1.6537-0.46158-1.1886-0.45791-1.5064-0.3046-1.4498-0.13493-1.1341-0.009788-0.77579 0.11016-0.33861-0.074128-0.26939-0.46777-0.90164-3.6871-6.2877-1.5112-2.3464-1.6421-2.345-1.6833-2.2094-0.94819-1.1555-7.6845-8.8241-1.3022-1.6348-0.596-0.81536-0.66394-0.99166-0.59162-1.0009-0.57807-1.182-0.42359-1.1893-0.22687-1.1922-0.024905-0.45836 0.05502-0.97808 0.22006-1.1194 0.28738-0.88476 0.43043-0.93306 0.31434-0.54042 0.41731-0.6193 0.94085-1.1645 1.3971-1.4866 0.66788-0.57089 0.84017-0.60434 1.1806-0.70374 1.1223-0.55995 2.0594-0.85731 2.5048-0.87652 1.4531-0.46068 6.9837-2.0191 1.057-0.37366 0.64845-0.28086 0.58586-0.30096 0.75701-0.45816 0.734-0.51551 0.84571-0.67531 0.81168-0.72485 0.8909-0.87653 1.1399-1.2377 1.0258-1.225 0.76891-1.0386 0.6893 0.2079 1.0395 0.38684 2.2976 0.97844 2.0294 0.97642 1.7346 0.91153 1.1209 0.62928 1.1923 0.70675 1.682 1.0588 1.8456 1.256 0.78079 0.57407 1.5734 1.2472 1.2816 1.098 1.2353 1.1277 1.189 1.1545 1.29 1.3398 1.7369 1.9761 1.7136 2.1961 0.74402 1.0625 2.2508 3.3765 2.092 2.9997 1.075 1.4417 1.1468 1.4393 1.1722 1.3554 1.1966 1.2457 1.2218 1.1001 1.2503 0.90585 0.40012 0.23501 0.71421 0.34292 0.87383 0.26939 0.63106 0.095856 0.6861 0.027034 0.79816-0.056163 0.96466-0.17324 0.9634-0.28951 0.97041-0.38717 1.0517-0.50404 0.80949-0.45264 0.89251-0.56415 0.86007-0.60735 1.5458-1.2454 1.6102-1.4545 3.7109-3.6085 2.8123-2.6063 1.3322-1.1541 0.85584-0.69599 0.8801-0.6717 1.0407-0.73807 1.1499-0.73057 1.1889-0.65983 3.1044-1.5192 2.0126-1.1407 0.99811-0.44241 0.76443-0.22514 0.77481-0.076826 0.47293 0.043273 0.29613 0.066722 0.55362 0.20753 0.3868 0.21565 0.34469 0.25161 0.49167 0.49351 0.33942 0.49948 0.25388 0.55379 0.10339 0.32007 0.12301 0.60278 0.05767 0.71115-0.036983 1.0343-0.10273 0.78087-1.1526 5.0498-0.15048 0.80503-0.11911 0.88129-0.072067 0.93457-0.01986 0.8155 0.023008 1.0247 0.071896 1.0421 0.17072 1.1289 0.21623 0.86897 0.35488 0.9791 0.25338 0.52922 0.53401 0.88807 0.60473 0.81622 0.84449 0.96956 0.93502 0.94821 0.86654 0.81333 2.603 2.3636 0.7859 0.64438 0.81396 0.60644 0.86248 0.58646 1.0348 0.64015 1.1018 0.61682 1.2863 0.64838 1.4613 0.66797 4.2737 1.8649 8.137 3.3107 4.7292 2.1065 2.9123 1.2528 2.4678 0.92581 4.9203 1.6683 2.1649 0.85201 1.1459 0.50657 0.94994 0.48907 0.48404 0.28757 0.8724 0.62714 0.41306 0.39276 0.2562 0.35376 0.075313 0.22933-0.001198 0.072852-0.071552 0.13934" stroke="#bdc660"/>
    </defs>
    <g clip-path="url(#p313fb72661)">
     <use y="280.512" fill="#bdc660" stroke="#bdc660" xlink:href="#m7ab1446ce2"/>
    </g>
   </g>
  </g>
 </g>
 <defs>
  <clipPath id="p313fb72661">
   <rect x="7.2" y="7.2" width="170.78" height="266.11"/>
  </clipPath>
 </defs>
</svg>
