<?xml version="1.0" encoding="UTF-8"?>
<!DOCTYPE svg  PUBLIC '-//W3C//DTD SVG 1.1//EN'  'http://www.w3.org/Graphics/SVG/1.1/DTD/svg11.dtd'>
<svg width="211.22pt" height="280.51pt" version="1.1" viewBox="0 0 211.22 280.51" xmlns="http://www.w3.org/2000/svg" xmlns:xlink="http://www.w3.org/1999/xlink">
 <metadata>
  <rdf:RDF xmlns:cc="http://creativecommons.org/ns#" xmlns:dc="http://purl.org/dc/elements/1.1/" xmlns:rdf="http://www.w3.org/1999/02/22-rdf-syntax-ns#">
   <cc:Work>
    <dc:type rdf:resource="http://purl.org/dc/dcmitype/StillImage"/>
    <dc:date>2024-07-04T12:07:55.237962</dc:date>
    <dc:format>image/svg+xml</dc:format>
    <dc:creator>
     <cc:Agent>
      <dc:title>Matplotlib v3.7.1, https://matplotlib.org/</dc:title>
     </cc:Agent>
    </dc:creator>
   </cc:Work>
  </rdf:RDF>
 </metadata>
 <defs>
  <style type="text/css">*{stroke-linejoin: round; stroke-linecap: butt}</style>
 </defs>
 <g id="figure_1">
  <g id="patch_1">
   <path d="m0 280.51h211.22v-280.51h-211.22v280.51z" fill="none"/>
  </g>
  <g id="axes_1">
   <g id="PatchCollection_1">
    <defs>
     <path id="mbc99a465e0" d="m192.56-194.57 0.57174 0.59557 0.41028 0.60274 0.39209 0.67194 0.6509 1.4395 0.42114 1.537 0.071363 1.4917-0.10295 0.60617-0.19689 0.61757-0.18854 0.42193-0.32694 0.57694-0.74203 0.98318-1.0025 0.97148-0.75488 0.594-0.84767 0.57066-2.8545 1.6814-2.7472 1.522-3.8048 1.9611-4.0134 1.9146-4.7677 2.1258-2.1622 0.88619-2.4341 0.89013-1.7798 0.75748-2.5199 1.3065-1.2453 0.74358-2.3846 1.5902-2.2773 1.6298-1.3288 1.0167-1.1076 1.0625-0.9043 1.1966-0.47668 0.91316-0.3458 0.96274-0.20833 0.90843-0.14024 0.93758-0.12716 1.4108-0.009242 1.0861 0.07205 1.1301 0.1771 1.2855 0.19853 0.96676 0.38697 1.3824 0.19114 0.54318 0.71073 1.6198 0.94891 1.6937 2.7504 4.1764 0.64441 1.0919 0.34673 0.69696 0.36279 0.95298 0.1716 0.59431 0.14381 0.62451 0.17633 1.26-0.016008 1.111-0.10571 0.61914-0.21487 0.69764-0.4684 1.0466-3.0283 5.59-0.8948 1.4462-1.0196 1.3299-0.84873 0.86086-0.90786 0.77195-0.78646 0.58424-0.83191 0.50878-1.5578 0.65512-1.6943 0.47916-3.5154 0.86552-1.6883 0.59878-1.3713 0.69512-2.8515 1.7386-1.4919 0.96943-2.3292 1.6424-1.3985 1.0851-1.0143 0.72307-1.213 0.69312-1.3142 0.60012-1.3799 0.51944-2.234 0.68036-2.4655 0.61502-2.8596 0.54711-0.64404 0.15511-0.82854 0.291-0.77294 0.40511-0.60844 0.45635-0.70982 0.75448-0.49678 0.72328-0.38494 0.81843-0.267 1.053-0.090168 0.77546-0.029519 0.88978 0.035868 1.0046 0.14742 1.3612 0.27471 1.3433 0.5231 1.713 0.50229 1.3098 1.153 2.5184 1.1108 2.1026 1.5641 2.6398 1.5333 2.3254 1.1805 1.6327 1.2456 1.534 0.71709 0.74763 0.21482 0.13327-0.22704 0.16254-0.48526 0.56663-0.62468 0.94474-0.45225 0.84926-0.57695 1.2775-0.50217 1.4043-0.36064 1.4912-0.14786 1.1574-0.087203 2.3254 0.062854 2.4472 0.10046 1.4278 0.19457 1.6352 0.27788 1.5769 0.35019 1.4816 0.63785 2.25 0.30506 1.5137 0.10236 1.6005-0.12685 1.1955-0.33721 1.0798-0.41733 0.73024-0.44193 0.55631-0.63971 0.61354-0.75218 0.48932-0.51388 0.21791-0.6914 0.19306-1.0246 0.1454-1.5238 0.035397-1.4417-0.11528-1.2-0.20787-0.95239-0.21694-6.1565-1.6484-1.8439-0.42903-1.484-0.28923-2.3136-0.35183-1.7818-0.19177-1.5936-0.068991-1.5714 0.026342-1.5485 0.1229-1.7341 0.24422-1.662 0.31288-2.2197 0.4872-4.9669 1.2211-4.4147 1.143-2.3602 0.67565-1.9066 0.64327-1.4408 0.5657-0.84532 0.38204-1.206 0.62936-0.8975 0.54032-0.95688 0.65994-0.6634 0.52036-0.80717 0.72587-0.66229 0.67826-1.1533 1.3508-1.1345 1.5146-2.8115 4.0258-3.9541 5.2929-1.3056 2.0362-0.41336 0.56472-0.45512 0.50951-0.35708 0.32057-0.6231 0.40106-0.78562 0.3038-0.86206 0.21445-1.3134 0.25593-3.3158 0.43061-1.2467 0.1056-2.5288 0.13645-0.95314 0.13704-0.92121 0.27468-0.65343 0.28503-1.2245 0.67669-2.4326 1.568-1.2512 0.68651-4.734 2.1575-2.5997 1.0547-0.88771 0.2947-2.9213 0.80596-1.1704 0.42901-1.4279 0.76275-1.2503 0.9033-0.80219 0.72154-0.55017 0.62524-0.19521 0.43518-0.11939-2.8253-0.10504-1.4476-0.17921-1.0042-0.23106-0.60007-0.32073-0.54589-0.37062-0.52295-1.8341-2.2804-2.3081-2.7617-2.0419-2.2628 0.43406-0.31066 0.91166-0.52591 3.4936-1.7988 1.545-1.0409 1.2561-1.0419 2.0748-1.946 1.2907-1.0643 1.8771-1.3154 2.026-1.2141 2.7848-1.4358 2.7615-1.2251 5.9206-2.254 3.1618-1.3112 1.7003-0.82626 0.98972-0.548 1.0485-0.65106 1.2494-0.90266 0.6953-0.582 0.73488-0.67096 0.84087-0.88268 0.67786-0.9084 0.47388-0.87524 0.29831-0.85467 0.12836-0.69473 0.046308-0.92444-0.044334-0.75734-0.10983-0.79608-0.29821-1.3133-0.39783-1.2346-0.51859-1.2908-0.67845-1.4265-1.0217-1.8265-1.1273-1.7248-1.3306-1.7763-1.3385-1.6225-3.9662-4.4537-2.1373-2.2403-6.083-5.9141-1.3878-1.4929-1.1719-1.3954-0.96404-1.2853-0.31942-0.50337-0.26995-0.53068-0.26727-0.7497-0.65987-2.581-0.38803-1.0621-0.42758-0.80136-0.83129-1.1686-1.0541-1.1734-1.2668-1.1397-2.1625-1.6625-0.59182-0.57599-0.26871-0.33913-0.27602-0.47998-0.17334-0.53733-0.059597-0.42871-0.009773-0.40571 0.070811-0.73987 0.13139-0.624 0.29458-0.93934 0.64878-1.5932 1.6606-3.6066 0.86186-2.213 0.65886-1.9458 0.44084-1.7105 0.21782-1.3282 0.2897-2.6678 0.16636-2.3522 0.25909-2.0693 0.19968-1.0012 0.25656-0.83419 0.33094-0.73892 0.39699-0.70986 0.8738-1.3035 2.1046-2.5099 0.74611-1.1352 0.66591-1.2412 0.59138-1.3013 1.0442-2.5532 0.59434-1.196 0.7382-1.0832 1.1523-1.1181 1.3544-0.95254 2.8618-1.6548 1.279-0.81344 1.0105-0.87644 0.5941-0.997 0.070247-0.31107 0.017914-0.59003-0.19198-0.89311-0.44195-0.96484-0.35459-0.56045-0.38676-0.5152-0.53072-0.61096-0.54418-0.55666-1.0945-0.99316-1.3148-1.0711-6.1838-4.584-1.3734-1.1481-0.78731-0.74964-4.0608-4.3674-5.3034-5.5605-1.7889-1.9441-1.113-1.3185-0.62298-0.85224-0.40915-0.67256-0.29035-0.62803-0.1708-0.85943 0.11129-0.52844 0.29709-0.43096 0.72051-0.43428 0.91875-0.24765 0.81673-0.086113 0.93274 0.013514 1.0256 0.12721 0.70404 0.13833 1.5066 0.41362 3.0329 0.98892 1.1054 0.27597 0.92731 0.16745 1.1428 0.109 1.8886-0.065614 1.8019-0.37633 0.83846-0.30345 1.5437-0.78159 1.3461-1.0745 0.77513-0.96016 0.5239-0.86144 0.52644-1.0807 0.40716-1.0288 0.36224-1.1244 0.28151-1.1006 0.24433-1.3273 0.11428-0.96038 0.088045-2.0347-0.086603-1.752-0.28932-1.9721-0.30069-1.2712-1.0163-3.5372-0.51264-2.2009-0.40644-2.2668-0.31179-2.2524-0.2228-2.1289-0.13146-1.8511-0.025786-1.3512 0.12586-0.52901 0.45629-0.070121 0.66885 0.24947 0.79567 0.47801 0.76867 0.57402 0.59453 0.52241 0.76795 0.80379 0.42408 0.52492 0.41203 0.58467 0.62764 1.0955 0.52176 1.192 1.1647 3.2379 0.64087 1.5759 0.77323 1.4291 0.97988 1.1913 1.3306 0.93234 1.5534 0.61441 1.684 0.34343 1.7346 0.10031 1.7134-0.13372 0.60096-0.10831 1.2552-0.36142 0.92476-0.38551 1.0337-0.54182 1.3529-0.80876 4.6862-2.9387 1.2549-0.70814 1.304-0.62211 1.3379-0.50625 4.5279-1.2261 1.6059-0.48333 1.582-0.56609 0.87878-0.36368 1.1806-0.54587 2.2326-1.2211 0.94262-0.62318 2.7668-2.1629 1.2121-0.87166 2.6455-1.7149 2.2552-1.343 1.238-0.63932 1.3844-0.61735 5.5661-2.1343 1.8376-0.76409 1.2009-0.54849 1.3312-0.68755 1.5982-0.98254 1.514-1.1837 0.54502-0.52753 0.56615-0.63855 0.97195-1.3574 1.0082-1.7542 2.6276-5.0287 0.58913-1.0635 1.1628-1.9048 1.5258-2.2252 0.6985-0.86911 0.73818-0.79116 0.90618-0.84734 1.0719-0.8787 1.2468-0.92582 7.4655-5.3081 1.3769-1.0655 1.1553-0.97826 1.1158-1.0747 0.6751-0.74858 0.73636-0.90712 1.6948-2.361 2.0079-3.0746 0.48985-0.66676 1.0889-1.2844 1.0122-0.91972 0.81674-0.58938 0.65873-0.40541 1.1861-0.58066 0.61921-0.22962 1.5262-0.37978 1.2148-0.12701 0.91213 0.016752 0.90771 0.1617 0.66921 0.2384 0.60381 0.30541 0.57901 0.37787 0.41457 0.32758 0.56453 0.5399 0.59843 0.7449 0.35979 0.56507 0.44866 0.90873 0.42826 1.144 0.53472 1.8152 1.079 4.0907 0.42365 1.3502 1.3452 3.5248 1.9254 5.6523 0.85847 2.2427 1.3445 3.0786 4.7897 10.301 1.4263 2.7098 1.6738 2.6765 1.356 1.9383 1.101 1.4696 2.7442 3.3646 4.1744 4.8204 3.684 4.3587 1.5859 1.7409 1.188 1.2056 0.99885 0.94717 1.0831 0.9535 1.631 1.2613 1.4687 0.88339 1.0486 0.44409 0.89596 0.27591 0.95691 0.21264" stroke="#bdc660"/>
    </defs>
    <g clip-path="url(#p707a62ee13)">
     <use y="280.512" fill="#bdc660" stroke="#bdc660" xlink:href="#mbc99a465e0"/>
    </g>
   </g>
  </g>
 </g>
 <defs>
  <clipPath id="p707a62ee13">
   <rect x="7.2" y="7.2" width="196.82" height="266.11"/>
  </clipPath>
 </defs>
</svg>
