<?xml version="1.0" encoding="UTF-8"?>
<!DOCTYPE svg  PUBLIC '-//W3C//DTD SVG 1.1//EN'  'http://www.w3.org/Graphics/SVG/1.1/DTD/svg11.dtd'>
<svg width="337.58pt" height="280.51pt" version="1.1" viewBox="0 0 337.58 280.51" xmlns="http://www.w3.org/2000/svg" xmlns:xlink="http://www.w3.org/1999/xlink">
 <metadata>
  <rdf:RDF xmlns:cc="http://creativecommons.org/ns#" xmlns:dc="http://purl.org/dc/elements/1.1/" xmlns:rdf="http://www.w3.org/1999/02/22-rdf-syntax-ns#">
   <cc:Work>
    <dc:type rdf:resource="http://purl.org/dc/dcmitype/StillImage"/>
    <dc:date>2024-07-04T12:07:53.404199</dc:date>
    <dc:format>image/svg+xml</dc:format>
    <dc:creator>
     <cc:Agent>
      <dc:title>Matplotlib v3.7.1, https://matplotlib.org/</dc:title>
     </cc:Agent>
    </dc:creator>
   </cc:Work>
  </rdf:RDF>
 </metadata>
 <defs>
  <style type="text/css">*{stroke-linejoin: round; stroke-linecap: butt}</style>
 </defs>
 <g id="figure_1">
  <g id="patch_1">
   <path d="m0 280.51h337.58v-280.51h-337.58v280.51z" fill="none"/>
  </g>
  <g id="axes_1">
   <g id="PatchCollection_1">
    <defs>
     <path id="m6219232f91" d="m315.69-259.12-0.2037 1.0045-0.34665 2.5084-0.26444 1.5721-1.352 5.2443-0.28701 1.4613-0.6959 4.0735-0.30342 1.3918-1.1051 4.313-0.32339 1.9394-0.16036 1.516-0.30866 5.6354-0.22243 2.4716-0.1946 4.0848-0.18999 2.8914-0.032222 3.5538-0.14912 1.6984-0.25898 1.9798-0.77128 3.1973-0.25655 1.3422-0.15369 1.7197-0.004033 2.8247 0.43318 9.8615-0.059332 1.5719-0.11116 0.76378-0.11246 0.51171-0.30696 0.98706-0.44685 0.81156-0.21785 0.24699-0.33263 0.28254-0.89168 0.48779-2.5562 0.77075-0.71526 0.28532-0.63938 0.34778-0.73466 0.65244-0.52688 0.87962-0.29609 1.3997 0.010347 1.6387 0.17914 1.5884 0.4918 2.7638 0.93245 4.5007 0.3373 1.9586 0.15752 1.5068 0.004288 1.5259-0.15525 1.16-0.14517 0.56806-0.30048 0.85099-0.62956 1.3488-0.85043 1.433-0.73244 0.98086-0.83553 0.86909-0.67729 0.52844-0.91848 0.50725-1.4247 0.62079-0.81713 0.42454-3.2887 2.1682-1.1734 0.69843-4.0861 2.2699-1.423 0.73589-1.5079 0.57798-1.5864 0.38036-1.1136 0.12498-3.9061-0.02706-1.2515 0.097455-5.7843 1.0092-2.0798 0.52771-3.4813 1.1634-2.3153 0.6325-1.1174 0.42253-0.76796 0.38047-1.2566 0.76404-0.51419 0.39752-0.34008 0.3562-0.23027 0.34128-0.12374 0.26836-0.12833 0.55001-0.018527 0.37832 0.059798 0.60382 0.16034 0.54101 0.32102 0.60106 0.28237 0.37578 0.32942 0.34875 0.65577 0.5474 2.6044 1.7468 0.95278 0.84711 0.65202 0.7757 0.71994 1.0754 0.53368 0.95672 0.52472 1.0739 0.67516 1.5607 0.71674 1.8798 0.65208 1.9747 0.70449 2.4711 0.301 1.3286 0.24879 1.4734 0.14886 1.4083 0.19673 2.7985 0.15511 1.0181 0.23059 0.95005 0.73043 2.3657 0.31713 0.88527 0.36649 0.85504 0.42854 0.81472 1.1993 2.039 0.7705 1.2553 1.0045 1.4725 1.1131 1.3285 1.0342 0.95301 0.74066 0.58889 0.76946 0.51737 1.001 0.5111 0.99478 0.36221 0.61301 0.14337 1.4216 0.14396 3.4645-0.076386 2.051 0.045406 3.1264 5.54e-4 1.2952 0.087149 1.0992 0.21877 0.93489 0.36692 0.95054 0.63821 0.86118 0.85401 0.83736 1.1143 0.75794 1.2811 0.72973 1.5113 0.6634 1.6319 0.6966 1.9919 0.64287 2.0845 1.2544 4.6584 2.7189 11.493 0.99398 3.9411 0.84844 2.8951 2.4425 7.8172 0.84676 3.0195 0.66502 2.6839 0.498 2.2096 0.91707 4.4491 1.4173 7.3905 0.26448 1.191 0.18504 0.52679-0.39003 0.011748-0.80535 0.11382-9.0067 1.634-5.7013 0.88156-2.7009 0.32969-1.5962 0.14615-1.5137 0.066572-1.3926-0.05304-1.0867-0.16512-0.93402-0.27544-0.56312-0.25403-1.1763-0.84436-0.98796-1.0661-1.6628-2.1664-0.71876-0.84041-1.1582-1.0906-0.82757-0.5625-0.88559-0.39458-0.92874-0.19519-0.96935-0.020316-0.92002 0.11775-0.9202 0.23658-1.3944 0.58542-1.1797 0.74842-1.0026 0.87985-0.75851 0.79348-1.3211 1.5669-1.0397 1.2822-1.0386 1.4315-0.58885 1.0007-0.38666 0.76369-0.37612 0.86029-0.50456 1.3622-0.47325 1.1298-0.1974 0.35608-0.36224 0.50875-0.3674 0.38736-0.54755 0.44373-0.47306 0.30507-0.9672 0.4986-0.85939 0.3577-0.9136 0.26739-1.49 0.15992-0.93517-0.026562-2.9461-0.31079-0.91901-0.061946-1.994 0.001776-4.8162 0.10331-3.0268-0.079477-3.2714-0.2317-1.432-0.061963-1.2464 9.5e-5 -1.448 0.075695-1.2208 0.13882-4.3943 0.78545-1.9541 0.17701-2.0407 0.010834-4.2794-0.15907-7.6771-0.12184-1.9902 0.057064-3.7087 0.24258-1.7041 0.03339-3.9808-0.2624-1.6706-0.042979-2.068 0.037788-1.915 0.091161-4.5267 0.3379-0.11906 0.061936-0.34647 0.018061-0.6296-0.123-1.0175-0.39482-1.2727-0.76921-1.1683-0.79481-1.0879-0.67068-1.1391-0.57146-1.6935-0.67661-2.0591-0.67178-5.0873-1.4651-1.5527-0.4977-1.5139-0.56134-4.2499-1.8869-2.0866-0.88211-4.3204-1.704-5.4081-1.9327-4.4498-1.4418-4.1512-1.1689-2.1881-0.53077-4.2999-0.89935-4.4858-0.78082-2.38-0.3356-1.6319-0.18182-1.6318-0.12943-2.2911-0.07413-2.2857 0.056404-2.2911 0.19403-2.2734 0.33061-2.3996 0.50542-2.364 0.66063-1.2125 0.40501-1.202 0.44172-1.9921 0.80947-2.7444 1.2739-2.5966 1.3779-2.3192 1.3689-5.2542 3.3298-1.3872 0.82614-2.2553 1.2302-2.3156 1.1151-1.7598 0.74535-1.7908 0.66957-2.7702 0.86078-3.1999 0.77946-4.2135 0.8229-5.6192 0.97061-2.0798 0.44376-1.6189 0.46524-1.7257 0.66266-1.0324 0.43937-1.2145 0.5869-0.84045 0.51101-0.7629 0.57006-0.70563 0.65553-0.72255 0.9005-0.28918 0.50722-0.15613 0.4038-0.085683 0.58311 0.050367 0.33617 0.23784 0.35171-2.7136 0.25987-4.2802 0.26376-4.6814 0.19212-3.6016 0.052626-1.6753-0.048498-1.2904-0.094317-1.2225-0.15528-1.0981-0.21725-1.0159-0.2983-1.1142-0.49613-0.85771-0.5806-0.52145-0.49314-0.89052-1.2093-0.80602-1.6578-0.61086-1.6628-1.0214-3.0866-0.39026-1.0504-0.38853-0.90535-0.42862-0.83522-0.49607-0.77191-0.55936-0.65611-0.61176-0.51642-0.657-0.4184-2.2472-1.1042-0.62023-0.37412-0.57099-0.46426-0.76626-0.99561-0.42679-0.90313-0.28528-0.99383-0.13061-1.291 0.14621-1.3132 0.11573-0.42772 0.48532-1.2138 1.4678-2.8459 0.63783-1.6883 0.27566-1.4138 0.093022-1.1664 0.00626-1.2143-0.059608-1.1763-0.27674-2.3944-0.37553-2.0463-0.39944-1.7139-0.66065-2.4165-1.1997-3.9275-1.0797-3.8754-0.46717-1.4426-0.45668-1.1571-0.79153-1.7169-2.3056-4.4407-1.3882-2.8266-1.1172-2.6137-1.893-5.2162-0.31256-0.66195-0.085748-0.085858 0.70406-0.354 0.8281-0.28494 2.9819-0.81178 1.3261-0.21648 2.8008-0.17154 0.83631-0.10738 2.7104-0.75298 2.8046-0.29311 2.869-0.67412 1.3523-0.24782 0.93823-0.12129 1.4894-0.11466 4.5759-0.16116 2.5332-0.25498 1.024-0.062129 2.2325-0.022712 4.303 0.1509 1.418-0.052835 1.5887-0.21796 2.0126-0.35542 0.99522-0.20254 1.0198-0.31817 1.0202-0.51391 0.7032-0.47094 1.0263-0.84642 0.89581-0.91051 0.47693-0.61136 0.34897-0.52614 1.1888-2.0334 0.36272-0.58012 0.48388-0.65609 0.46083-0.50727 0.56537-0.50941 1.313-0.96752 0.74457-0.60703 0.25037-0.26447 0.27473-0.3595 0.3159-0.53091 0.83112-1.7003 0.58429-0.93752 0.43792-0.57885 0.54158-0.61665 1.0184-1.0497 0.44341-0.54399 0.28979-0.48541 0.17718-0.53587 0.029604-0.24748-0.020473-0.86603 0.078122-0.501 0.18868-0.43454 0.258-0.39817 0.54938-0.64483 1.6471-1.4646 0.57461-0.62135 3.2176-4.133 0.58518-0.83472 0.44579-0.76056 0.28429-0.67811 0.16064-0.72886 0.036705-0.66976-0.041511-0.62895-0.24338-1.1957-0.45825-1.6401-0.19461-1.0773-0.15372-1.8174-0.2064-4.7593-0.15178-2.0529-0.22943-1.7513-0.39454-1.7364-0.60493-1.6562-1.0104-2.3745-0.79786-1.5895-0.52974-0.8282-0.6714-0.82368-0.38162-0.37403-0.70461-0.58189-1.4586-1.0583-0.59052-0.49667-0.48827-0.51902-0.47234-0.67162-0.43886-0.81766-0.38767-0.89277-0.68377-1.9572-0.77561-2.8335-0.73806-3.259-0.696-3.4204-0.21118-1.3082-0.17552-1.7408-0.031889-1.2457 0.054777-1.2211 0.17457-1.4108 0.22142-1.1118 0.49537-1.7194 0.67168-1.6064 0.83565-1.4165 0.98834-1.1882 1.0745-0.91191 0.34266-0.23083 0.91542-0.50551 1.5623-0.60299 1.8508-0.45171 1.0995-0.18314 2.4165-0.31421 0.34085-0.08355 0.005415-0.06665 6.898-0.56224 1.4159-0.1535 1.5734-0.25003 1.6432-0.36583 1.6492-0.4416 5.1178-1.5574 2.1022-0.58103 1.4806-0.31607 1.4445-0.22025 2.1076-0.16109 4.6544 0.04082 4.5932-0.090142 7.3012-0.56095 4.8175-0.26541 3.0846-0.090557 1.8793-0.10931 2.5648-0.23633 1.8483-0.2595 1.758-0.36483 1.1705-0.34392 1.1983-0.46409 1.1983-0.56155 1.8484-0.98746 1.2929-0.77819 2.9595-2.0029 1.432-0.91694 4.7754-2.9444 1.4272-0.78953 1.3522-0.64006 1.5823-0.6323 4.5951-1.5556 1.5896-0.59356 1.0776-0.47494 0.80306-0.42503 1.3496-0.91119 1.2159-1.0347 4.2446-4.2008 1.4144-1.2683 1.4274-1.0969 1.7563-1.1799 2.3188-1.3741 1.1586-0.59086 1.4953-0.68497 2.223-0.90548 1.4804-0.53548 1.3709-0.42519 1.1232-0.28331 1.1704-0.2303 1.3169-0.18524 0.88986-0.080814 1.1745-0.041702 0.81228 0.022685 1.056 0.096691 1.815 0.3364 1.4909 0.42234 1.6392 0.61334 2.0869 0.94833 3.7449 1.8306 2.0101 0.8414 0.93123 0.30825 1.2306 0.2933 1.0272 0.13183 1.0791 0.01278 1.2576-0.14522 0.76426-0.16257 0.87549-0.24537 1.0479-0.36086 1.312-0.52616 3.6853-1.6317 1.8668-0.77988 1.902-0.70454 1.7359-0.5453 2.3005-0.65785 1.5484-0.39051 1.1208-0.22461 3.1054-0.47804 1.1465-0.25149 0.88402-0.25936 0.81676-0.29485 1.1766-0.52795 1.5791-0.92856 4.8797-3.3093 1.1987-0.94352 0.93885-0.94091 0.4873-0.61474 0.43234-0.66632 0.31427-0.59875 0.26116-0.61433 0.48807-1.6422 0.80763-3.8381 0.45599-1.552 0.58295-1.5417 0.58725-1.2615 1.0913-1.9158 0.76624-1.1273 0.86172-1.1142 1.1745-1.3148 1.4985-1.453 4.7596-4.4011 0.92883-0.80978 1.4001-1.1101 1.2869-0.87048 1.3437-0.7617 2.1345-0.9704 2.0835-0.73952 9.5811-2.8304 1.5318-0.39285 2.0141-0.4378 2.7143-0.44133 1.5878-0.18706 2.6172-0.18237 2.0553-0.013096 6.9566 0.31822 3.6378 0.25647 1.9706 0.28297 1.1264 0.26401 0.52493 0.16889 0.44649 0.18669 0.43974 0.27209 0.15279 0.1758 0.004289 0.17375" stroke="#bdc660"/>
    </defs>
    <g clip-path="url(#p65716cda83)">
     <use y="280.512" fill="#bdc660" stroke="#bdc660" xlink:href="#m6219232f91"/>
    </g>
   </g>
  </g>
 </g>
 <defs>
  <clipPath id="p65716cda83">
   <rect x="7.2" y="7.2" width="323.18" height="266.11"/>
  </clipPath>
 </defs>
</svg>
