<?xml version="1.0" encoding="UTF-8"?>
<!DOCTYPE svg  PUBLIC '-//W3C//DTD SVG 1.1//EN'  'http://www.w3.org/Graphics/SVG/1.1/DTD/svg11.dtd'>
<svg width="371.52pt" height="272.22pt" version="1.1" viewBox="0 0 371.52 272.22" xmlns="http://www.w3.org/2000/svg" xmlns:xlink="http://www.w3.org/1999/xlink">
 <metadata>
  <rdf:RDF xmlns:cc="http://creativecommons.org/ns#" xmlns:dc="http://purl.org/dc/elements/1.1/" xmlns:rdf="http://www.w3.org/1999/02/22-rdf-syntax-ns#">
   <cc:Work>
    <dc:type rdf:resource="http://purl.org/dc/dcmitype/StillImage"/>
    <dc:date>2024-07-04T12:07:56.684214</dc:date>
    <dc:format>image/svg+xml</dc:format>
    <dc:creator>
     <cc:Agent>
      <dc:title>Matplotlib v3.7.1, https://matplotlib.org/</dc:title>
     </cc:Agent>
    </dc:creator>
   </cc:Work>
  </rdf:RDF>
 </metadata>
 <defs>
  <style type="text/css">*{stroke-linejoin: round; stroke-linecap: butt}</style>
 </defs>
 <g id="figure_1">
  <g id="patch_1">
   <path d="m0 272.22h371.52v-272.22h-371.52v272.22z" fill="none"/>
  </g>
  <g id="axes_1">
   <g id="PatchCollection_1">
    <defs>
     <path id="m84948d9801" d="m145.35-253.26 52.276 40.434 34.597 26.931 25.102 19.71 7.3495 5.8796 5.5559 4.6227 4.4026 3.8604 1.8421 1.6987 4.0617 3.9769 3.2367 3.4236 1.5705 1.7557 2.3094 2.7164 1.3396 1.6528 2.608 3.3653 2.4095 3.2614 2.1158 2.9698 4.9235 7.1742 19.533 29.149 26.846 39.675 0.085279 0.13256 0.3788 0.34701 0.19222 0.64542-0.079068 0.78644-0.27297 0.58882-0.44423 0.58158-0.7569 0.70309-0.93191 0.66502-1.604 0.90394-2.0932 0.94263-3.0919 1.1284-2.9451 0.90586-5.309 1.4848-1.9146 0.66547-1.6097 0.71041-3.2673 1.658-2.4687 1.063-1.2854 0.46611-1.3161 0.399-1.3468 0.3091-1.1892 0.18018-1.2081 0.11193-2.455 0.08439-5.6302-0.010138-1.2455 0.045387-2.1055 0.18869-0.94701 0.14932-1.6422 0.40367-0.69303 0.25054-1.0045 0.49951-0.58415 0.40309-0.64597 0.60657-0.16654 0.19958-0.62873 1.0374-0.46839 1.1873-0.82816 2.6276-0.54176 1.3487-0.48016 0.91524-0.55802 0.90027-0.94574 1.3308-1.1107 1.4041-1.9223 2.2245-0.54932 0.59193-0.3591 0.3162-0.19826-0.40408-0.64846-1.0002-1.2315-1.7629-1.326-1.7748-2.3657-2.8559-1.4697-1.6114-2.449-2.4509-1.92-1.7061-1.9695-1.5368-1.6075-1.1126-2.2686-1.4151-2.603-1.4279-1.8016-0.84848-1.6952-0.69216-1.7854-0.61912-2.698-0.74231-5.6852-1.1742-1.2701-0.31327-0.71876-0.23167-0.83694-0.37167-0.55761-0.36697-0.47211-0.4988-0.31991-0.64916-0.13891-0.5809-0.063214-0.76935 0.034378-0.87052 0.14357-1.0972 0.23982-1.2327 1.4466-6.0735 0.41099-2.1247 0.19803-1.6211 0.035622-0.8534-0.027604-0.79358-0.12341-0.90819-0.24139-0.92382-0.245-0.67697-0.42938-0.96053-0.64072-1.2106-1.1692-1.9428-3.5812-5.509-0.72062-1.2104-0.85096-1.635-0.51901-1.2407-0.32693-1.0407-0.19916-0.96999-0.096349-1.1937 0.043612-1.211 0.22559-1.5912 0.37573-1.6044 0.39805-1.3491 1.7104-5.2345 0.29092-1.1055 0.25838-1.3077 0.15855-1.3299 0.22151-2.758 0.33481-2.9116 0.066249-1.2495-0.062824-0.96535-0.16526-0.69051-0.23432-0.49823-0.22238-0.29711-0.83544-0.58139-0.63456-0.23187-0.96536-0.22746-2.6825-0.47513-1.1448-0.27451-0.84503-0.26335-0.71637-0.28256-0.88294-0.43501-1.4909-0.94567-0.90564-0.81736-0.47554-0.56071-0.46933-0.67401-0.68163-1.2112-1.1616-2.3806-0.48352-0.89533-0.38594-0.60391-0.64014-0.74518-0.67894-0.48362-0.31577-0.12335-0.34798-0.05133-0.57494 0.10713-0.46593 0.22421-0.52204 0.34366-0.94078 0.7471-1.2393 1.1308-2.2307 2.2549-1.1151 1.2345-0.86763 1.1166-0.98225 1.4524-0.91889 1.5141-2.5179 4.4229-1.1156 1.8177-0.87188 1.3081-0.89395 1.2289-1.3171 1.633-1.1201 1.2376-1.1221 1.1189-1.6084 1.5249-1.7029 1.512-1.192 0.9446-1.3999 0.92659-1.1422 0.64641-0.77366 0.37903-1.1571 0.45618-0.84513 0.23059-1.2242 0.14768-2.0968-0.29865-2.003-0.77364-2.0057-1.0801-5.3025-3.3862-1.3249-0.77534-1.5861-0.77309-0.71363-0.26363-1.2277-0.28276-1.224-0.060395-0.94536 0.062106-4.4098 0.64701-2.0436 0.114-1.7708-0.072556-4.3959-0.42224-1.2898-0.048812-1.4942 0.045689-1.4429 0.124-1.8268 0.22597-5.9042 0.97592-2.1071 0.28881-2.5502 0.20683-1.4552-0.013365-1.2292-0.11944-1.0347-0.16979-2.5152-0.60783-2.0816-0.65491-4.849-1.7362-1.9708-0.56574-1.1587-0.22117-0.88709-0.11235-3.2027-0.24858-1.0147-0.13822-1.2109-0.26388-3.2873-0.9218-1.3312-0.31736-1.3612-0.22178-1.0904-0.07079-1.214 0.056136-1.2471 0.21912-1.3775 0.44397-1.3452 0.59893-1.2626 0.65351-1.5399 0.87964-5.2544 3.3105-1.6387 0.97057-1.4467 0.78181-1.9627 0.9017-1.7638 0.59742-1.5515 0.30373-1.2559 0.061894-0.82624-0.058413-0.66715-0.1089-0.76402-0.20054-1.1755-0.49702-0.47428-0.27568-0.9054-0.65409-0.42738-0.36943-1.0816-1.1202-0.68236-0.85372-1.0774-1.6117-0.5595-0.98458-0.89644-1.8389-0.61984-1.4995-0.64423-1.8161-0.485-1.6017-0.39797-1.533-0.52436-2.5065-0.31481-2.0368-0.18873-1.9796 0.027351-0.14712 0.16007-0.15597 0.61571-0.43074 3.5154-1.8637 1.0148-0.57724 1.3691-0.87605 1.4637-1.1086 0.72237-0.65336 0.67873-0.72598 0.51257-0.67678 0.42604-0.74338 0.44556-1.5226 0.050142-0.70712-0.022759-0.62948-0.11574-0.82546-0.25283-0.9209-0.41021-0.83654-0.52149-0.70481-0.98562-0.95044-1.1931-0.7185-0.66093-0.23685-0.89145-0.20245-0.64421-0.087626-4.126-0.17087-1.0879-0.17792-1.3243-0.38631-3.5091-1.4726-1.9179-0.67936-1.6274-0.37175-1.45-0.18259-1.173-0.059103-1.2227 0.007573-2.3904 0.14642-4.1453 0.35703-2.7665 0.12398-1.6138-0.00169-1.9619-0.084913-2.0106-0.17576-1.7527-0.22182-1.7119-0.27899-2.4443-0.52625-2.1788-0.67798-1.1954-0.52906-1.0937-0.65734-1.2984-1.118-1.1732-1.3447-0.50676-0.66022-0.96938-1.3808-0.67754-1.0591-1.2293-2.1252-1.4445-2.8278-0.82442-1.774-1.4759-3.4343-2.8013-6.8528-1.2148-2.7136-1.3498-2.6286-1.5437-2.4857-1.4676-1.9467-3.1373-3.7098-4.4492-5.4267-1.352-1.5763-0.80698-0.86524 0.23144-0.51593 0.65227-0.74127 0.95106-0.85545 1.4823-1.0709 1.6929-0.9043 1.3875-0.50862 3.4634-0.95553 1.0525-0.34939 3.0821-1.2504 5.6126-2.5579 1.4834-0.81391 2.884-1.859 1.4517-0.80227 0.77469-0.33792 1.0922-0.32566 1.13-0.16247 2.9981-0.16177 1.4781-0.1252 3.9312-0.51052 1.5571-0.30342 1.022-0.25424 0.93141-0.36018 0.73874-0.47549 0.42334-0.38006 0.53958-0.60406 0.49007-0.66952 1.5479-2.414 4.6879-6.2751 3.3333-4.7729 1.345-1.7957 1.3674-1.6015 0.7852-0.80413 0.95696-0.86057 0.78652-0.61693 1.1345-0.78241 1.0641-0.64059 1.4298-0.74615 1.0022-0.45294 1.7082-0.67068 2.2604-0.76265 2.7982-0.80103 5.234-1.3551 5.8886-1.4478 2.6316-0.57762 1.9704-0.37094 2.0559-0.28954 1.8359-0.14571 1.8631-0.031231 1.8894 0.081794 2.1125 0.22736 2.743 0.41712 1.7594 0.34291 2.1861 0.50865 7.2991 1.9543 1.1291 0.25719 1.4227 0.24645 1.7092 0.13667 1.8066-0.041966 1.2148-0.17238 0.81971-0.22889 0.60924-0.25835 0.89176-0.58013 0.75843-0.7274 0.52394-0.65955 0.49478-0.86576 0.39979-1.2802 0.15039-1.4173-0.12135-1.8975-0.36167-1.7946-0.75622-2.6676-0.41518-1.7566-0.32945-1.8696-0.23068-1.9387-0.1191-1.6927-0.074517-2.9014 0.10338-2.757 0.1753-1.3721 0.42756-1.7679 0.59536-1.6649 0.68402-1.5145 0.53618-1.0069 0.7406-1.1201 0.57532-0.67179 0.26917-0.1927 0.080065 0.03788" stroke="#bdc660"/>
    </defs>
    <g clip-path="url(#p7ea034ae2d)">
     <use y="272.215245" fill="#bdc660" stroke="#bdc660" xlink:href="#m84948d9801"/>
    </g>
   </g>
  </g>
 </g>
 <defs>
  <clipPath id="p7ea034ae2d">
   <rect x="7.2" y="7.2" width="357.12" height="257.82"/>
  </clipPath>
 </defs>
</svg>
