<?xml version="1.0" encoding="UTF-8"?>
<!DOCTYPE svg  PUBLIC '-//W3C//DTD SVG 1.1//EN'  'http://www.w3.org/Graphics/SVG/1.1/DTD/svg11.dtd'>
<svg width="185.38pt" height="280.51pt" version="1.1" viewBox="0 0 185.38 280.51" xmlns="http://www.w3.org/2000/svg" xmlns:xlink="http://www.w3.org/1999/xlink">
 <metadata>
  <rdf:RDF xmlns:cc="http://creativecommons.org/ns#" xmlns:dc="http://purl.org/dc/elements/1.1/" xmlns:rdf="http://www.w3.org/1999/02/22-rdf-syntax-ns#">
   <cc:Work>
    <dc:type rdf:resource="http://purl.org/dc/dcmitype/StillImage"/>
    <dc:date>2024-07-04T12:08:09.288975</dc:date>
    <dc:format>image/svg+xml</dc:format>
    <dc:creator>
     <cc:Agent>
      <dc:title>Matplotlib v3.7.1, https://matplotlib.org/</dc:title>
     </cc:Agent>
    </dc:creator>
   </cc:Work>
  </rdf:RDF>
 </metadata>
 <defs>
  <style type="text/css">*{stroke-linejoin: round; stroke-linecap: butt}</style>
 </defs>
 <g id="figure_1">
  <g id="patch_1">
   <path d="m0 280.51h185.38v-280.51h-185.38v280.51z" fill="none"/>
  </g>
  <g id="axes_1">
   <g id="PatchCollection_1">
    <defs>
     <path id="m15fcb346d5" d="m90.989-260.39-0.012103 0.11222-0.20019 0.16889-0.33722 0.4283-0.29306 0.45452-0.50019 0.94447-0.39607 0.97809-0.30272 1.0782-0.15959 1.1064 0.073757 1.7873 0.42561 1.8349 0.7052 1.8356 0.91601 1.8011 1.0696 1.739 0.54928 0.80332 2.5843 3.5436 1.9553 2.4673 1.0583 1.2495 2.1589 2.3474 1.9866 1.8799 0.74488 0.63882 4.078 3.284 1.3089 1.1712 1.1864 1.2291 1.0147 1.3037 0.58868 0.98735 0.38802 0.89128 0.20383 0.6888 0.14944 0.93854 0.023902 0.93714-0.058368 0.78364-0.15542 1.0903-0.78229 3.7078-0.21971 1.4749-0.013841 0.93663 0.23119 1.1002 0.37719 0.68731 0.64299 0.73796 0.90264 0.76036 2.347 1.6796 0.77575 0.61566 0.76574 0.74522 0.66199 0.8809 0.38042 0.729 0.30316 0.79342 0.2194 0.75047 0.24242 1.0819 0.70296 4.3085 0.39594 1.5034 0.28568 0.7199 0.24837 0.4857 0.32383 0.50322 1.1711 1.2074 0.82492 0.60825 0.71208 0.45216 1.5801 0.87926 2.1517 1.0929 5.6358 2.6019 2.628 1.3821 1.165 0.68378 1.397 0.89388 1.0583 0.73033 2.4568 1.8059 1.0591 0.73769 0.96321 0.60316 1.3631 0.6923 0.79736 0.29699 2.7699 0.86718 0.9263 0.40696 0.56812 0.30449 0.82011 0.52242 0.5995 0.4571 0.51701 0.46178 0.77551 0.85371 0.54282 0.78098 0.18766 0.33439 0.42963 1.0147 0.23068 0.82283 0.14842 0.80545 0.082801 0.768 0.041345 1.0634-0.024383 1.2306-0.48448 6.7903-0.058159 2.9508 0.10111 1.7448 0.18256 1.3155 0.15191 0.72978 0.39596 1.4545 0.64094 1.7732 0.27639 0.65054 0.79181 1.6476 0.87388 1.6124 1.616 2.6765 2.7509 4.1014 0.90685 1.4279 0.65261 1.1082 1.248 2.2914 2.2099 4.3082 2.6428 5.301 0.7014 1.6257 0.33717 1.0072 0.15444 0.59338 0.19499 1.1568 0.003948 1.9612-0.32224 1.9944-0.55132 1.9746-0.68007 1.8813-1.2593 3.0224-0.25132 0.78204 0.067275 0.094821-0.4942 0.69435-3.5711 4.6644-2.3481 2.8059-3.7234 4.2066-1.3173 1.5506-1.6209 2.0262-1.5006 2.0527-1.0262 1.5287-0.9753 1.543-1.7116 2.8866-1.4595 2.5992-2.5411 4.7326-2.4322 5.0175-0.95569 1.791-1.0467 1.7533-1.1274 1.7143-1.2027 1.6716-1.2772 1.6227-1.3554 1.5649-1.604 1.6684-1.6789 1.6083-6.8917 6.1612-3.2404 3.0303-1.5662 1.5539-1.5133 1.5886-1.4433 1.6327-1.3516 1.6888-1.2324 1.7601-1.1012 1.8603-0.9775 1.9239-0.87995 1.9619-2.0752 5.1941-0.4619 1.054-0.54967 1.109-0.88166 1.4846-1.2846 1.6949-1.5698 1.6421-1.6884 1.4593-1.3954 1.0334-0.75992 0.50455-1.7827 1.0461-1.2547 0.64483-1.2792 0.59644-2.1669 0.89365-2.0667 0.72461-1.8172 0.52041-1.3614 0.30537-0.92667 0.15666-1.2161 0.12111-2.113-0.053495-2.1347-0.32974-2.1466-0.53915-2.1495-0.69843-2.1437-0.8212-2.1291-0.91842-2.2046-1.0447-5.838-3.0353-1.8146-0.90276-1.8143-0.80271-1.8221-0.65291-1.8377-0.44549-0.9131-0.12506-1.0691-0.066785-1.7618 0.050824-1.4885 0.15971-5.3905 0.864-2.0822 0.26535-1.058 0.08868-1.0223 0.030375-0.74524-0.039057-1.0399-0.22279-0.90774-0.48349-0.55882-0.49239-0.51533-0.59733-0.84156-1.1977-2.0956-3.3779-0.66488-0.99776-1.1423-1.558-3.0092-3.8081-1.0833-1.5223-0.99674-1.6237-0.85978-1.7204-0.66167-1.6645-0.54224-1.7209-0.38368-1.5561-1.034-5.7954-0.76266-3.5385-0.51166-2.0056-0.66382-2.2834-0.84686-2.4424-0.73633-1.7733-0.91196-1.9263-1.1131-2.164-1.4117-2.5893-2.6782-4.5306-0.5488-1.0434-0.49466-1.1052-0.32803-0.87428-0.24106-0.82458-0.16252-0.85716-0.047686-0.90438 0.066837-0.59817 0.15962-0.46588 0.33798-0.36575 0.41934-0.073256 0.4243 0.21205 1.1888 1.214 0.88661 0.73374 0.98095 0.56233 0.45974 0.16037 0.91652 0.036885 0.25362-0.066544 0.30609-0.1263 0.39572-0.23506 0.55522-0.48378 0.19532-0.22609 0.34111-0.47652 0.34162-0.57542 0.81109-1.6538 0.50327-1.2224 0.46125-1.3065 0.39226-1.3716 0.26479-1.1796 0.58549-3.161 0.93579-6.5862 0.28322-2.5433 0.12722-1.5867 0.085683-2.6835-0.088749-1.9798-0.10345-0.95004-0.22908-1.4031-0.40442-1.6701-0.35119-1.0769-0.42759-1.0675-1.016-1.9432-0.70731-1.0347-0.78066-0.92273-1.2149-1.069-0.82624-0.52217-0.81247-0.4114-2.8202-1.2192-1.1118-0.60388-0.56457-0.35591-0.5988-0.42085-1.0829-0.91299-0.49845-0.56614-0.15746-0.51028-0.13912-0.38623 0.06709-0.36612 0.20605-0.66817 0.57188-1.4335 4.6276-10.573 0.63277-1.6527 0.46312-1.4079 0.56186-2.2575 0.28414-2.0195 0.071419-1.5533-0.024742-1.9913-0.27831-5.7523-0.006551-0.81852 0.11751-2.1042 0.18718-1.4977 0.42327-2.3638 1.6181-7.0605 0.56213-2.7475 0.28528-1.6532 0.25296-2.1753 0.24113-4.5597 0.14949-1.5953 0.1719-1.1311 0.82279-4.1259 0.21675-1.687 0.040106-1.7691-0.032605-0.63127-0.29016-1.922-0.56605-1.8745-0.83286-1.7684-0.92117-1.4176-2.0098-2.8136-0.78434-1.3607-0.82118-1.8076-0.67446-1.8942-0.54924-1.93-0.43529-1.9157-0.32205-1.8489-0.13908-1.1614-0.037795-0.66731 0.017153-0.79874 0.12705-0.88543 0.42156-1.2058 0.66184-1.0811 0.85197-0.93485 1.0011-0.75985 0.34175-0.19891 1.0763-0.49156 1.1256-0.34105 1.1314-0.18487 3.1615-0.025168 0.37172-0.031525 0.85892-0.1668 0.68562-0.25722 0.64561-0.33468 5.0332-3.3014 1.4517-0.8141 1.5438-0.72305 1.5998-0.599 2.3743-0.65698 2.1881-0.47774 2.4294-0.44778 0.76368-0.17347 0.66454-0.22682 0.40103-0.18727 0.4338-0.27482 0.29336-0.26481 0.29826-0.41788 0.2192-0.7825-0.053434-0.89047-0.2819-0.91972-0.28332-0.57746-0.36061-0.56223-0.59356-0.70103-0.70916-0.6074-1.2361-0.62992-0.80027-0.17613-0.70637-0.049491-0.94978 0.050694-0.9985 0.16569-0.72546 0.17891-1.4719 0.48575-1.1524 0.46942-1.4452 0.66874-1.4389 0.72816-6.9259 3.8147-0.3322-0.1994-0.37654-0.42743-0.50873-0.85276-0.34588-0.95558-0.10372-1.2276 0.32374-1.2186 0.64605-1.1936 0.87131-1.2166 3.6289-4.478 3.1413-4.1898 5.46-7.0684 0.93664-1.1466 1.3477-1.5191 0.67788-0.64352 0.69592-0.47149 0.32834-0.14686 0.39-0.1134 0.35655-0.045634 0.40366 0.021689 0.3742 0.11038 0.27422 0.15743 0.49598 0.4718 0.4328 0.57778 0.62286 0.98929 0.83046 1.4851 0.52749 0.76968 0.42984 0.47819 0.63783 0.51755 0.64319 0.35082 0.71917 0.2797 1.319 0.3616 1.4577 0.24074 1.1284 0.086218 1.1675-0.001217 1.5393-0.15163 2.1373-0.44734 1.2498-0.33642 2.7037-0.86332 2.7673-1.0651 5.3212-2.3975 3.3405-1.4099 2.1918-0.78683 1.685-0.48725 2.4812-0.54808 1.2881-0.2032 1.3642-0.11983 1.3303 0.01801 0.86778 0.12093 0.68289 0.20288 0.31483 0.1648 0.19166 0.17213 0.069545 0.146" stroke="#bdc660"/>
    </defs>
    <g clip-path="url(#p57bdb1ccc2)">
     <use y="280.512" fill="#bdc660" stroke="#bdc660" xlink:href="#m15fcb346d5"/>
    </g>
   </g>
  </g>
 </g>
 <defs>
  <clipPath id="p57bdb1ccc2">
   <rect x="7.2" y="7.2" width="170.98" height="266.11"/>
  </clipPath>
 </defs>
</svg>
