<?xml version="1.0" encoding="UTF-8"?>
<!DOCTYPE svg  PUBLIC '-//W3C//DTD SVG 1.1//EN'  'http://www.w3.org/Graphics/SVG/1.1/DTD/svg11.dtd'>
<svg width="252.08pt" height="280.51pt" version="1.1" viewBox="0 0 252.08 280.51" xmlns="http://www.w3.org/2000/svg" xmlns:xlink="http://www.w3.org/1999/xlink">
 <metadata>
  <rdf:RDF xmlns:cc="http://creativecommons.org/ns#" xmlns:dc="http://purl.org/dc/elements/1.1/" xmlns:rdf="http://www.w3.org/1999/02/22-rdf-syntax-ns#">
   <cc:Work>
    <dc:type rdf:resource="http://purl.org/dc/dcmitype/StillImage"/>
    <dc:date>2024-07-04T12:08:07.660666</dc:date>
    <dc:format>image/svg+xml</dc:format>
    <dc:creator>
     <cc:Agent>
      <dc:title>Matplotlib v3.7.1, https://matplotlib.org/</dc:title>
     </cc:Agent>
    </dc:creator>
   </cc:Work>
  </rdf:RDF>
 </metadata>
 <defs>
  <style type="text/css">*{stroke-linejoin: round; stroke-linecap: butt}</style>
 </defs>
 <g id="figure_1">
  <g id="patch_1">
   <path d="m0 280.51h252.08v-280.51h-252.08v280.51z" fill="none"/>
  </g>
  <g id="axes_1">
   <g id="PatchCollection_1">
    <defs>
     <path id="md1c2372288" d="m200.97-160.56-0.18117 1.4809-0.28794 3.8083-0.27167 5.8579-0.17968 6.3299 0.078686 4.1563 0.5684 9.5581 0.30655 2.919 1.8228 11.646 0.30037 2.8414 0.32543 4.7489 0.38067 2.6846 0.56203 2.7078 0.7023 2.7217 0.81259 2.7269 0.90259 2.7235 0.98077 2.7106 1.0549 2.6868 1.1324 2.6496 1.016 2.1809 1.0417 2.0454 1.1319 1.9827 1.2533 1.8994 1.7937 2.2663 1.9736 2.1385 2.091 2.047 6.4322 5.853 2.0118 1.9199 1.8345 1.9309 1.5684 1.9567 1.19 1.9982 0.66869 2.0569 0.091836 1.2822-0.12294 1.3042-0.38243 1.5917-0.59114 1.5992-1.055 2.1419-1.2373 2.0364-1.1783 1.6697-1.4607 1.8045-1.2627 1.3448-0.8568 0.7684-2.1234 1.4547-2.38 1.2573-6.7068 3.2436-3.0198 1.401-5.5697 2.3972-8.7744 3.5664-3.8012 1.4672-4.3873 1.5496-2.3301 0.72392-2.2632 0.60313-2.1724 0.44306-2.0512 0.23196-1.8916-0.044516-1.6836-0.40374-1.1138-0.58924-0.94041-0.74199-0.8255-0.83819-2.5805-3.2018-1.0885-1.1155-0.6932-0.55457-1.2162-0.72244-0.86543-0.35805-0.53442-0.15894-1.093-0.18785-1.0698-0.04745-3.5692 0.13521-1.5422-0.044403-1.5552-0.21394-1.6179-0.45797-1.6189-0.63696-4.0159-1.7332-1.6272-0.54342-2.0294-0.40087-2.1088-0.032284-2.015 0.26963-0.91187 0.19838-5.0621 1.3849-0.34278 0.054383-0.22621-0.021887-0.56082 0.26403-2.8787 1.7895-1.3238 0.74458-1.3682 0.6451-1.6805 0.54151-1.6173 0.13862-1.737-0.46715-1.5068-1.0634-1.2098-1.529-0.6997-1.4061-0.57118-1.5498-1.1531-3.6146-0.6735-1.8808-0.57373-1.2876-0.8666-1.4813-1.0277-1.3308-0.8095-0.82994-0.87477-0.72216-1.108-0.68624-0.66217-0.29852-1.2226-0.35862-1.2926-0.1869-2.3276-0.046966-4.2864 0.24092-1.5969 0.038587-1.9907-0.10431-1.6202-0.25522-3.7391-0.75246-1.3417-0.15979-1.3697-0.084454-1.8931-0.012296-3.2597 0.18426-2.2524 0.27713-1.7044 0.34494-0.5696 0.15611-1.3106 0.4791-1.7633 0.95066-1.7645 1.1137-2.1224 1.2321-2.067 1.0584-5.1449 2.3208-2.0604 1.1245-2.6646 1.6527-6.2322 4.1083-2.9384 1.8623-3.6701 2.1169-2.6357 1.3256-1.4981 0.6715-2.5608 1.0159-4.1379 1.4719-4.2345 1.3922-3.0205 0.87507-2.51 0.5937-7.4673 1.4639-3.4496 0.83523-0.57462 0.23431 0.003265-0.7784-0.61572-10.085-0.15638-4.6976 0.059678-2.9479 0.19157-1.9123 0.39095-1.8784 0.37542-1.1092 1.0549-1.9779 1.3641-1.7373 1.5375-1.545 2.4097-2.1732 1.4893-1.4489 1.3299-1.5196 1.0144-1.4466 0.74176-1.2403 0.60462-1.2708 0.21972-0.6061 0.238-0.84973 0.2368-1.687 0.022511-1.718-0.04901-0.94627-0.1462-1.2545-1.137-5.9354-0.8976-6.5826-0.24824-2.5025-0.1649-2.7287-0.05176-2.3184 0.080609-3.2214 0.20817-2.379 0.9513-7.5394 0.17339-1.7574 0.085514-1.3705 0.05046-4.2022 0.34304-6.6819 0.17723-1.495 0.47442-2.2715 0.49942-1.5722 0.63033-1.5879 1.2075-2.5886 1.2643-2.4633 1.6039-2.9279 2.3124-3.8763 1.4365-2.2001 1.273-1.7937 1.5846-2.0711 2.8062-3.5124 3.4959-4.0367 0.61739-1.012 0.12762-0.42345 0.052919-0.43954-0.024889-0.46989-0.18414-0.68312-0.39362-0.70161-0.27146-0.32676-0.78971-0.66679-1.1714-0.64207-1.2503-0.46576-1.3725-0.35089-1.8166-0.27975-2.8398-0.15912-3.5331 0.081153-3.4047 0.25148-9.2083 0.86211-3.48 0.18809-2.0445-0.03023-0.67854-0.11313-0.1229-0.098447 0.026266-0.079829 12.253-15.109 10.89-13.042 1.4187-1.8004 1.3458-1.8768 0.78133-1.2429 0.77506-1.4164 1.0639-2.4186 1.4152-3.9492 1.8354-5.8473 0.39433 0.41133 0.84879 0.19166 1.1813 0.10976 1.5872 0.052354 1.4284-0.034341 4.4279-0.25287 2.1939-0.022247 2.0534 0.083612 1.672 0.15076 1.9365 0.26831 2.092 0.39674 3.6927 0.9198 1.9277 0.55893 6.519 2.0399 2.8476 0.81578 3.7752 1.0041 4.362 0.94107 1.0656 0.27053 3.3867 1.1538 1.1589 0.24999 2.9686 0.29617 0.85761 0.14895 1.141 0.26186 1.5962 0.44599 5.1348 1.5147 2.7769 0.68102 1.5707 0.3201 1.4975 0.19669 1.4847 0.059383 2.1483-0.17872 1.5119-0.27284 1.4619-0.43577 1.5586-0.7464 1.4642-0.97874 1.361-1.1527 1.2444-1.2773 1.8061-2.176 2.1497-2.7495 0.78742-1.0781 2.2753-3.3969 2.5336-3.6243 1.5351-2.047 3.2894-4.1863 2.2182-2.9867 0.99725-1.49 0.91437-1.5494 0.61124-1.2386 0.47021-1.2219 0.41528-1.6797 0.64259-3.5497 0.28637-1.6443 0.34641-2.8795 0.30091-1.3356 0.50077-1.1875 0.75307-1.2014 1.0676-1.5321 0.74127-1.3584 0.39062-1.0495 0.23018-0.86992 0.19344-1.2096 0.040908-0.59219-0.020859-0.95105-0.12004-0.83775-0.41957-1.3549-0.35934-0.78557-0.48764-0.89074-2.7506-4.2568-1.1639-2.0758-0.4902-1.1151-0.32571-0.91736-0.33624-1.176-0.22273-1.0482-0.15682-1.202-0.04215-0.78523 0.030406-1.0488 0.20592-1.3199 0.38284-1.2356 0.5156-1.0777 0.53468-0.76989 0.3013-0.31172 0.42877-0.28268 0.27928-0.040256 0.008992-0.3328-0.00531-0.08391 0.14178-0.62085 0.32146-0.65625 0.1916-0.20217 0.27301-0.15954 0.44742-0.030836 0.55583 0.27224 0.1706 0.1392 1.8578 1.8826 0.66245 0.54313 0.88772 0.61496 1.0196 0.59467 1.6543 0.78726 0.95052 0.36775 1.1031 0.35211 2.0563 0.41752 1.2669 0.07887 1.4995-0.058724 3.6486-0.39873 1.1005 0.032831 0.64655 0.17347 0.35413 0.19178 0.54651 0.5042 0.29627 0.4183 0.7764 1.4395 0.28964 0.38904 0.23808 0.22324 0.54137 0.28253 0.67528 0.10352 0.67936-0.022603 0.6511-0.08411 4.8787-1.0583 1.672-0.23322 1.0034-0.046748 1.091 0.078443 1.4477 0.43693 0.53622 0.30678 0.42701 0.31167 0.98867 0.94217 1.0647 1.3022 2.6974 3.6503 1.1078 1.3558 0.94462 1.0272 1.1507 1.0571 3.7261 2.9845 2.5001 2.1267 2.5063 2.27 1.4071 1.4434 1.3215 1.5398 1.2172 1.6099 1.0885 1.6568 1.5078 2.7334 1.0606 2.3689 0.77055 2.1306 0.31675 1.1386 0.16209 0.78953 0.1316 1.5974-0.14019 1.2923-0.37069 1.1666-0.35578 0.76064-0.77804 1.3486-1.087 1.6903-0.69881 0.98704-0.94431 1.1666-1.9532 2.1797-2.0264 2.0481-1.7815 1.5577-1.9515 1.5454-7.9444 5.8056-1.002 0.8157-0.75504 0.71837-1.0803 1.2129-0.70296 1.0108-0.72119 1.8042-0.10745 0.57551-0.07922 0.98131 0.038275 1.1513 0.18107 1.3432 0.30261 1.4691 1.548 6.413 0.58957 1.9781 0.76423 1.9022 0.62652 1.1837 1.0927 1.6935 4.3366 5.7696 1.4479 2.0113 2.6655 3.897 0.20692 0.41158" stroke="#bdc660"/>
    </defs>
    <g clip-path="url(#p2c14dfafb9)">
     <use y="280.512" fill="#bdc660" stroke="#bdc660" xlink:href="#md1c2372288"/>
    </g>
   </g>
  </g>
 </g>
 <defs>
  <clipPath id="p2c14dfafb9">
   <rect x="7.2" y="7.2" width="237.68" height="266.11"/>
  </clipPath>
 </defs>
</svg>
