<?xml version="1.0" encoding="UTF-8"?>
<!DOCTYPE svg  PUBLIC '-//W3C//DTD SVG 1.1//EN'  'http://www.w3.org/Graphics/SVG/1.1/DTD/svg11.dtd'>
<svg width="264.3pt" height="280.51pt" version="1.1" viewBox="0 0 264.3 280.51" xmlns="http://www.w3.org/2000/svg" xmlns:xlink="http://www.w3.org/1999/xlink">
 <metadata>
  <rdf:RDF xmlns:cc="http://creativecommons.org/ns#" xmlns:dc="http://purl.org/dc/elements/1.1/" xmlns:rdf="http://www.w3.org/1999/02/22-rdf-syntax-ns#">
   <cc:Work>
    <dc:type rdf:resource="http://purl.org/dc/dcmitype/StillImage"/>
    <dc:date>2024-07-04T12:07:37.514538</dc:date>
    <dc:format>image/svg+xml</dc:format>
    <dc:creator>
     <cc:Agent>
      <dc:title>Matplotlib v3.7.1, https://matplotlib.org/</dc:title>
     </cc:Agent>
    </dc:creator>
   </cc:Work>
  </rdf:RDF>
 </metadata>
 <defs>
  <style type="text/css">*{stroke-linejoin: round; stroke-linecap: butt}</style>
 </defs>
 <g id="figure_1">
  <g id="patch_1">
   <path d="m0 280.51h264.3v-280.51h-264.3v280.51z" fill="none"/>
  </g>
  <g id="axes_1">
   <g id="PatchCollection_1">
    <defs>
     <path id="m9fc91f6ea5" d="m165.17-250.69 2.3234 3.7593 1.7127 3.1792 2.1448 5.1461 0.99816 3.4944 1.1225 5.1739 0.78909 4.5477 0.86928 6.9774 0.32711 1.1943 0.51078 1.0694 0.83544 1.0147 2.3089 1.6598 8.3497 4.2192 7.567 4.1467 3.1257 1.8994 5.5186 3.8023 1.3586 0.75038 1.4143 0.54334 1.1124 0.23609 6.2473 0.32339 1.6213 0.23079 2.8208 0.70449 1.3331 0.65156-1.1449 0.33479-2.0522 1.2513-2.298 1.9296-2.3955 2.8961-1.4096 2.48-0.95616 3.0989-0.060169 2.9934 0.60619 3.0709 0.95464 2.7435 1.2483 2.7526 3.0943 5.481 3.9006 5.8734 8.9391 12.619 2.0747 3.2245 3.036 5.6396 0.99315 2.407 1.0489 3.3151 0.79878 3.3817 1.9106 10.328 1.0143 4.0201 0.81893 2.4877 1.9658 4.5673 3.2965 5.8559 0.58069 1.4337 0.19246 1.4044-0.39087 1.6433-0.9643 1.6752-1.4189 1.7071-1.7777 1.7391-4.52 3.709-5.4884 3.9744-6.269 4.2386-29.016 18.86-26.894 18.409-3.6776 2.2474-2.4165 1.0862-1.1897 0.30326-1.171 0.058111-1.1392-0.24046-1.1219-0.48462-2.2156-1.4528-7.8666-6.5492-2.3719-1.4014-1.213-0.41261-1.2264-0.12012-1.131 0.19815-1.1166 0.44392-2.0674 1.3272-1.7073 1.5769-1.0121 0.65387-14.925 12.89-8.8672 6.7888-4.2056 2.8069-4.1202 2.3698-4.0017 1.8029-3.8539 1.0786-3.6757 0.15877-3.1561-0.77869-3.014-1.5133-2.8984-2.0706-2.8042-2.4872-2.7266-2.794-14.557-17.079-13.517-15.533-7.4975-9.1457-5.2309-6.8909-3.0973-4.5854-2.8207-5.1656-1.1579-2.7177-1.3239-4.2403-0.70046-4.3115-0.015084-4.4002 0.49484-4.4173 2.3018-13.092 0.30289-4.195-0.34402-4.0283-1.1683-3.7867-1.7934-3.6653-5.5604-9.7157-1.3906-3.2513-1.2544-4.4531-0.69496-3.9034-0.52822-6.8921 0.037973-4.3708 0.23549-2.4346 0.18033-0.82477 0.49784-0.80325 0.49081-0.1406 0.58841-0.84854 1.0831-2.4275 1.5439-4.8927 1.2458-5.9367 1.8299-12.167 0.85448-3.3812 0.66344-1.4522 0.68168-0.93762 1.8433-1.3396 2.3924-0.7924 2.7466-0.37498 3.0267-0.066493 2.8094 0.14241 5.8728 0.70654 9.1383 1.7447 4.8774 1.1458 7.7347 2.1365 27.28 8.4474 6.7503 1.5956 3.3919 0.51491 3.249 0.18746 3.0474-0.26154 2.7675-0.87293 2.4166-1.6177 2.1253-2.2529 1.9022-2.7453 1.7292-3.1295 2.686-6.1236 2.3642-6.8031 2.1894-7.4809 6.1809-24.52 0.29456-0.72403 16.013-11.804 2.4274-1.5182 1.1505-0.38246 1.0602 0.19037 1.4353 1.3237 1.8328 2.6392 3.9475 6.3689" stroke="#bdc660"/>
    </defs>
    <g clip-path="url(#p6ade9fdcd3)">
     <use y="280.512" fill="#bdc660" stroke="#bdc660" xlink:href="#m9fc91f6ea5"/>
    </g>
   </g>
  </g>
 </g>
 <defs>
  <clipPath id="p6ade9fdcd3">
   <rect x="7.2" y="7.2" width="249.9" height="266.11"/>
  </clipPath>
 </defs>
</svg>
