<?xml version="1.0" encoding="UTF-8"?>
<!DOCTYPE svg  PUBLIC '-//W3C//DTD SVG 1.1//EN'  'http://www.w3.org/Graphics/SVG/1.1/DTD/svg11.dtd'>
<svg width="278.89pt" height="280.51pt" version="1.1" viewBox="0 0 278.89 280.51" xmlns="http://www.w3.org/2000/svg" xmlns:xlink="http://www.w3.org/1999/xlink">
 <metadata>
  <rdf:RDF xmlns:cc="http://creativecommons.org/ns#" xmlns:dc="http://purl.org/dc/elements/1.1/" xmlns:rdf="http://www.w3.org/1999/02/22-rdf-syntax-ns#">
   <cc:Work>
    <dc:type rdf:resource="http://purl.org/dc/dcmitype/StillImage"/>
    <dc:date>2024-07-04T12:08:03.433169</dc:date>
    <dc:format>image/svg+xml</dc:format>
    <dc:creator>
     <cc:Agent>
      <dc:title>Matplotlib v3.7.1, https://matplotlib.org/</dc:title>
     </cc:Agent>
    </dc:creator>
   </cc:Work>
  </rdf:RDF>
 </metadata>
 <defs>
  <style type="text/css">*{stroke-linejoin: round; stroke-linecap: butt}</style>
 </defs>
 <g id="figure_1">
  <g id="patch_1">
   <path d="m0 280.51h278.89v-280.51h-278.89v280.51z" fill="none"/>
  </g>
  <g id="axes_1">
   <g id="PatchCollection_1">
    <defs>
     <path id="mb9e5e207e7" d="m214.24-251.3 2.22e-4 0.15707 0.14739 0.17293 0.5844 0.32486 1.5808 0.52587 1.7445 0.40867 2.372 0.39336 1.5169 0.15425 1.9097 0.083958 3.6168-0.105 12.592-0.85361 5.3039-0.53816 7.1208-0.90406 1.8936-0.16768 1.38-0.047957 1.4515 0.082886 0.75729 0.14384 0.60671 0.21957 0.37306 0.23846 0.32525 0.3685 0.10103 0.21651 0.049878 0.55973-0.17502 0.60964-0.3452 0.63455-2.0762 3.0565-1.3882 2.2961-1.6908 3.1977-0.81493 1.7268-1.1878 2.792-1.1545 2.9704-1.6443 4.5523-0.62903 2.0038-1.0211 4.316-0.30172 1.6958-0.11076 1.5835 0.18268 1.6808 0.9271 3.2585 0.14281 0.94842-0.026339 0.99356-0.43602 1.5491-0.60732 1.2137-0.94128 1.4111-1.7924 2.0977-1.0513 1.4186-0.78025 1.3719-0.71004 1.3901-0.59926 1.3944-1.2626 3.993-0.42813 0.99205-4.9723 9.708-2.1316 3.5909-1.3426 2.4463-2.2102 4.6019-3.1099 6.9757-0.59546 1.5638-0.61565 1.9014-1.1468 4.4732-0.64768 2.1226-1.955 4.9972-0.69459 1.9868-0.55215 1.9099-0.65673 3.1995-0.20336 1.5322-0.19156 2.4253-0.047401 1.991 0.083091 2.6871 0.23947 2.9143 0.87837 7.871 0.23993 2.7882 0.16293 3.3947-0.02028 2.8448-0.23075 3.0084-0.34112 2.2096-0.3528 1.58-0.95079 3.0252-1.2097 2.9925-2.7252 6.0209-1.2808 3.072-1.1608 3.3023-0.71693 2.3691-1.0721 4.2053-0.5734 2.9366-0.094826 0.84312 0.054976 0.31324-2.0779 6.62-1.6022 4.4711-1.2045 2.7383-0.87748 1.6036-0.88459 1.4072-1.5237 2.1248-1.6062 2.0384-12.329 14.765-13.872 17.106-9.4735-2.5748-4.122-0.99926-2.9462-0.60376-1.9125-0.31454-1.832-0.22489-3.9121-0.32884-2.4747-0.39602-4.6911-1.0316-1.6143-0.2939-1.475-0.14096-1.152 0.059276-0.74879 0.16451-1.0049 0.40236-1.1885 0.68228-2.2248 1.5119-6.3774 4.6077-1.1152 0.73186-2.1152 1.198-0.81788 0.37069-0.93648 0.34093-1.314 0.31281-2.2698 0.15083-1.8834-0.16013-2.4977-0.48551-1.9116-0.49668-3.2246-0.94946-2.574-0.8528-6.2453-2.2875-10.385-4.223-6.3196-2.2386-1.7892-0.56618-1.3914-0.36923-1.313-0.24419-1.2601-0.077235-1.1429 0.15519-1.1269 0.52122-0.73775 0.67471-0.51476 0.69514-0.35584 0.61804-0.49392 1.051-1.7523 4.4032-1.3183 3.0671-1.4565 3.0169-1.0918 1.9506-0.74262 1.1091-0.60723 0.68976-0.20812 0.11324-0.12266-0.026947-0.079883-0.33312-0.37853-0.78185-2.0715-3.4519-2.8813-4.3695-3.512-4.9193-1.7401-2.2484-2.0421-2.4326-1.8431-1.9612-1.5921-1.4394-1.044-0.76614-1.3332-0.83574-1.4936-0.81614-1.5466-0.64658-1.7251-0.44061-1.8105-0.26388-4.4963-0.37534-1.805-0.2044-5.4164-0.83945-2.9855-0.53824-1.2177-0.3359-1.0049-0.37043-0.80499-0.38513-0.71945-0.44637-0.51798-0.41487-0.80052-0.89348-0.61855-1.0433-0.4941-1.37-0.22913-1.4759-0.011401-0.75322 0.15515-1.6042 0.38158-1.6564 0.59525-1.6471 0.8874-1.7303 1.1428-1.6041 0.80244-0.86117 0.71512-0.6329 1.6764-1.1662 1.3146-0.72859 1.4716-0.71081 8.2172-3.5649 3.5361-1.6676 4.0702-2.0686 4.9312-2.7431 2.4846-1.5089 1.8365-1.19 2.7235-1.8854 5.0681-3.732 2.5937-2.0508 1.8836-1.6143 1.4683-1.3886 1.4369-1.5301 1.2169-1.5398 0.84583-1.3638 0.58434-1.3725 0.31527-1.94-0.23004-1.8589-0.34405-0.98872-0.46008-0.97931-1.0226-1.8697-2.4873-4.362-3.2361-5.4185-2.4636-4.3574-0.93775-1.758-0.70288-1.6788-0.38821-1.6542-0.075837-1.5649 0.12409-1.684 0.394-2.4666 0.9846-4.3271 0.76172-2.693 1.1016-2.8908 1.0551-2.1664 1.4699-2.4999 1.2121-1.8538 2.9821-4.14 7.3611-9.9835 5.8792-8.6669 1.0545-1.7507 1.1133-2.2998 1.0633-2.865 0.3156-1.1432 0.1753-0.88569 0.12486-1.2571 0.002576-0.57129-0.078277-0.89603-0.14282-0.73943-0.41084-1.368-1.1944-3.1069-0.43922-1.3149-0.35369-1.3658-0.28403-1.778-0.33988-4.0598-0.25301-2.2578-0.23958-1.4754-0.929-3.9467-0.61915-3.1482-0.23314-1.7602-0.36297-4.4734-0.42718-2.7518-0.79528-4.0936-0.53458-2.2298-0.40454-1.2035-0.52763-1.0563-0.782-0.98439-0.66775-0.59955-0.63795-0.46381-1.3407-0.77336-2.8509-1.3894-3.5104-2.1098-0.58614-0.28167-1.8225-0.65678-1.9484-0.61144-1.6627-0.63309-4.4494-2.0625-3.078-1.352-1.5368-0.86305-0.61742-0.42598-1.1256-0.90386-1.2551-1.2112-0.87081-1.0209-0.60113-0.89792-0.35635-0.83962 0.020192-0.59669 0.12835-0.18478 0.5006-0.28791 1.1938-0.44194 1.6319-0.42054 1.1003-0.2172 2.1703-0.33237 7.383-0.85384 4.9365-0.67005 1.5653-0.14568 0.9225-0.021873 2.0374 0.20664 1.3344 0.37418 1.3401 0.54123 2.4654 1.2768 4.4333 2.544 1.9181 0.98774 1.5289 0.68695 1.4939 0.57802 1.8548 0.58516 1.8668 0.43967 2.2501 0.33546 2.1944 0.134 2.2185-0.030171 2.7624-0.23467 2.4741-0.36971 2.9284-0.60281 2.2371-0.56987 2.3249-0.68627 2.0869-0.69026 2.3234-0.84423 3.2458-1.306 3.87-1.7661 4.6667-2.3319 2.1726-0.94133 1.124-0.41876 3.1562-0.99564 6.6431-1.8467 2.4819-0.74401 2.0958-0.6884 2.4018-0.94061 1.5753-0.7796 1.2861-0.77868 1.3085-0.99135 0.96059-0.93227 3.1804-3.5656 1.5882-1.5627 0.78704-0.67935 0.50648-0.33279 0.42804-0.19858 0.51656-0.14127 0.64272-0.044661 0.45623 0.061945 0.69606 0.27232 1.1211 0.94046 1.0409 1.3273 1.0409 1.4848 1.1236 1.4251 1.2965 1.1476 1.3693 0.6716 3.2885 1.0676 0.98161 0.40171 0.96822 0.45908 1.4301 0.78964 1.0912 0.69507 0.93796 0.66177 1.754 1.3757 7.1188 6.0331 2.923 2.1678 1.7814 1.1442 1.5263 0.86084 1.7058 0.82136 1.4653 0.57386 1.1894 0.36515 1.8436 0.36033 1.6862 0.07862 1.7065-0.21266 1.4579-0.46874 0.54752-0.25798 0.91824-0.53764 1.2673-0.95208 1.4091-1.3299 2.1295-2.5005 1.2321-1.6697 4.2632-6.2722 0.36578-0.47575 0.70674-0.58969" stroke="#bdc660"/>
    </defs>
    <g clip-path="url(#pd7a05f671d)">
     <use y="280.512" fill="#bdc660" stroke="#bdc660" xlink:href="#mb9e5e207e7"/>
    </g>
   </g>
  </g>
 </g>
 <defs>
  <clipPath id="pd7a05f671d">
   <rect x="7.2" y="7.2" width="264.49" height="266.11"/>
  </clipPath>
 </defs>
</svg>
