<?xml version="1.0" encoding="UTF-8"?>
<!DOCTYPE svg  PUBLIC '-//W3C//DTD SVG 1.1//EN'  'http://www.w3.org/Graphics/SVG/1.1/DTD/svg11.dtd'>
<svg width="188.78pt" height="280.51pt" version="1.1" viewBox="0 0 188.78 280.51" xmlns="http://www.w3.org/2000/svg" xmlns:xlink="http://www.w3.org/1999/xlink">
 <metadata>
  <rdf:RDF xmlns:cc="http://creativecommons.org/ns#" xmlns:dc="http://purl.org/dc/elements/1.1/" xmlns:rdf="http://www.w3.org/1999/02/22-rdf-syntax-ns#">
   <cc:Work>
    <dc:type rdf:resource="http://purl.org/dc/dcmitype/StillImage"/>
    <dc:date>2024-07-04T12:08:02.502969</dc:date>
    <dc:format>image/svg+xml</dc:format>
    <dc:creator>
     <cc:Agent>
      <dc:title>Matplotlib v3.7.1, https://matplotlib.org/</dc:title>
     </cc:Agent>
    </dc:creator>
   </cc:Work>
  </rdf:RDF>
 </metadata>
 <defs>
  <style type="text/css">*{stroke-linejoin: round; stroke-linecap: butt}</style>
 </defs>
 <g id="figure_1">
  <g id="patch_1">
   <path d="m0 280.51h188.78v-280.51h-188.78v280.51z" fill="none"/>
  </g>
  <g id="axes_1">
   <g id="PatchCollection_1">
    <defs>
     <path id="m612aa72345" d="m96.715-222.57 0.26257 0.44825 0.24419 0.84587 0.21258 1.0638 0.14572 1.3427-0.011206 0.66285-0.26143 1.4055-0.33476 0.85585-0.42432 0.80972-1.8391 2.8504-0.36978 0.72237-0.25779 0.76221-0.1254 0.99075 0.051916 1.0657 0.15589 0.93892 0.24187 0.96952 0.28546 0.90539 0.33772 0.91809 0.64769 1.5169 0.51847 1.0687 0.56347 1.0608 0.66971 1.1536 0.71909 1.1257 0.98069 1.3695 0.65234 0.82372 0.83642 0.97423 1.2864 1.3448 1.3897 1.2641 1.4832 1.1844 1.3667 0.95055 0.63765 0.36602 0.58464 0.27898 0.7043 0.25408 0.40706 0.1029 1.1655 0.12654 1.1373-0.059171 1.0916-0.1742 1.3219-0.32226 1.8068-0.59501 1.5435-0.62054 0.8189-0.36311 4.7416-2.2232 1.019-0.42772 1.9199-0.68727 1.709-0.47039 1.1338-0.23761 0.9952-0.1641 2.035-0.21652 1.0356-0.046797 1.8958 0.044857 1.4349 0.16738 0.79433 0.14835 1.5546 0.40652 1.7591 0.62994 0.9316 0.40093 0.91318 0.43832 1.7653 0.97926 0.93633 0.58983 1.7309 1.2304 0.78687 0.63469 1.2767 1.1851 1.0312 1.198 0.67464 1.0608 0.19944 0.42037 0.34852 1.1305 0.12838 1.2862-0.091984 1.3122-0.33124 1.6181-0.30296 1.0637-1.3162 4.0676-0.44064 1.6642-0.25165 1.0918-0.49646 2.5449-0.90591 5.7432-0.42041 3.0912-0.13465 1.8044 0.008669 1.0945 0.086706 0.84214 0.21745 0.88176 0.28478 0.62352 0.22008 0.32032 0.48676 0.4729 0.60399 0.37334 1.2012 0.42388 0.87461 0.16269 0.93888 0.091381 0.88971 0.029189 0.92178-0.016139 1.0769-0.06909 1.0967-0.11989 1.6059-0.25927 1.7261-0.3817 2.0919-0.58273 3.5954-1.0983 0.6603-0.16507 1.049-0.15189 0.65416 0.058122 0.63465 0.31112 0.45998 0.53688 0.24762 0.62639 0.082283 0.72626-0.098177 0.79139-0.47686 1.2157-0.77981 1.261-0.97494 1.2871-2.162 2.5896-1.0057 1.2722-0.82159 1.2336-0.51458 1.1717-0.057654 1.0794 0.14455 0.40569 0.53001 0.71159 0.92054 0.72311 1.343 0.7162 0.83593 0.33569 0.90096 0.28878 1.6184 0.35214 1.0718 0.12939 1.3428 0.068747 1.471-0.023028 1.5977-0.12394 1.3942-0.19291 0.24177-0.073583-0.10924 0.088167-0.2097 0.34239-0.26931 0.54341-1.3743 3.7183-1.8265 4.4164-0.61942 1.1151-0.79001 0.93028-0.52969 0.48194-1.063 0.83056-1.1134 0.7466-0.85275 0.50327-0.69767 0.37244-1.4451 0.68782-2.8198 1.2458-1.5118 0.73173-1.4232 0.76343-1.5576 0.94243-0.98476 0.68568-0.89868 0.72719-0.70523 0.66911-1.0231 1.1137-0.86717 1.1954-0.15053 0.25661-0.21329 0.41249-0.52329 1.4997-0.28768 1.649-0.11246 1.75 0.019579 1.8116 0.12253 1.8399 0.20814 1.8383 0.28644 1.8075 0.3665 1.7461 0.73966 2.8203 0.5537 2.2589 0.3715 1.0884 0.74983 1.4601 0.97177 1.4249 1.1138 1.4053 2.3776 2.807 1.131 1.4294 0.99607 1.4673 0.77378 1.5243 0.41286 1.3238 0.19503 1.3498 0.008132 1.174-0.059153 0.97635-0.34654 3.642-0.17748 3.7017-0.25197 2.3986-0.19293 1.2123-0.29291 1.1906-0.35308 0.98834-0.47521 1.0726-0.87302 1.8153-0.50223 1.1707-0.39178 1.1471-0.24939 1.0781-0.071432 0.52555-0.029811 0.68519 0.074059 0.68896 0.1223 0.39051 0.15465 0.25482 0.079095 0.076419 0.24452 0.091052-0.06732 0.14098-0.24477 0.27841-0.53114 0.51578-0.70275 0.60133-1.0509 0.76826-0.69172 0.42744-0.94614 0.48784-0.91156 0.36337-0.78695 0.22447-0.78379 0.13645-0.89555 0.037788-0.55889-0.050293-0.37812-0.071784-1.1292-0.41828-1.0521-0.64987-0.98841-0.80599-0.93644-0.89714-1.751-1.8449-1.3049-1.289-0.48164-0.39211-0.61826-0.38581-0.6959-0.22274-0.86876 0.073591-0.868 0.3883-0.83124 0.62838-0.68348 0.72472-0.59202 0.8454-0.46685 0.93918-0.34606 1.128-0.12091 0.88523 9.64e-4 0.71104 0.04909 0.45735 0.19206 0.8519 0.2955 0.84462 0.43961 0.99245 0.93481 1.8629 0.41341 0.878 0.27282 0.67302 0.21887 0.67692 0.1863 1.0009-0.046046 1.2575-0.31114 1.2764-0.4984 1.234-0.65104 1.2377-0.5728 0.93725-0.62853 0.93929-0.85614 1.1877-0.91462 1.1931-0.77361 0.96628-1.6344 1.9414-3.799 4.2637-1.661 1.7887-1.8007 1.8088-0.91 0.86533-1.4213 1.2659-0.38258 0.28713-0.077038 0.02661-0.30181 0.017555-0.83136 0.29295-1.0862 0.44592-2.1853 0.9779-4.1139 1.9086-1.3321 0.54627-1.7411 0.58518-1.9012 0.42673-0.48128 0.06651-1.2482 0.089128-1.6106-0.004608-1.624-0.12859-1.6154-0.26982-0.92899-0.22752-1.2872-0.37858-1.4642-0.48847-1.313-0.48222-1.758-0.70052-4.1851-1.758-1.573-0.71878-1.8001-0.76888-2.5393-0.95112-1.8648-0.60425-1.8714-0.51824-1.784-0.3961-1.0097-0.17536-0.75276-0.10644-2.984-0.31644-2.8017-0.42418-1.1768-0.27228-1.1763-0.32493-2.1723-0.66347-0.83594-0.29784-1.0697-0.46291-1.0975-0.58581-1.3735-0.88263-3.3564-2.3839-1.1551-0.71582-0.91522-0.47527-0.93579-0.3808-1.0807-0.28364-1.5208-0.097746-1.5532 0.19132-1.5565 0.42375-1.5274 0.61154-1.4618 0.76226-2.9347 1.834-1.2736 0.70323-1.1927 0.51591-1.0551 0.25152-0.87964-0.0431-0.64928-0.22357-0.3397-0.33807 0.1275-0.18983 2.0839-1.9433 1.2875-1.295 0.94698-1.1208 0.81484-1.2709 0.44476-1.1307 0.17115-0.87408 0.008721-1.0598-0.17677-0.91636-0.41513-1.0209-0.58005-0.90064-1.0058-1.2116-0.8087-0.86354-2.5593-2.5589-1.6453-1.4821-0.94966-0.74455-1.0702-0.72659-4.4728-2.6377-1.4577-0.9518-0.81482-0.62592-0.62917-0.55759-0.76641-0.79741-0.75789-0.93981-0.68508-0.97458-1.999-3.219-0.72143-1.0451-1.1107-1.477-1.0041-1.2637-2.8873-3.5214-1.1423-1.484-0.62423-0.8702-0.37824-0.58121-0.50685-0.91287-0.45532-1.2363-0.07906-0.41121-0.035217-0.31222-0.005566-0.63981 0.073291-0.58108 0.23153-0.84221 0.29494-0.69958 0.41714-0.75748 0.5272-0.77601 1.1136-1.3311 0.86479-0.88202 0.9349-0.86941 5.1464-4.3313 1.1886-1.1319 0.92045-1.0127 0.80959-1.0727 0.60381-0.99867 0.50198-1.0273 0.37064-0.92737 0.29895-0.90706 0.27934-1.0704 0.17016-0.90842 0.064071-0.71012-0.10193-0.39055 0.10317-0.18818 0.24882-0.75363 1.4265-5.3997 0.35343-0.90548 0.22554-0.37795 0.31064-0.26276 0.24439-0.002748 0.25787 0.14245 0.27497 0.26473 0.28796 0.35899 1.0505 1.5218 0.59675 0.74703 0.68433 0.63534 0.79824 0.43369 0.47873 0.11869 0.30267 0.031674 0.62143-0.022075 0.41004-0.070971 0.75593-0.23492 0.55672-0.25312 0.51682-0.29048 0.86252-0.57883 0.66052-0.50135 1.232-1.0374 0.68561-0.62628 1.3466-1.3211 1.0287-1.0934 0.79264-0.90184 1.1348-1.4218 1.0219-1.4866 0.86832-1.5581 0.51526-1.1658 0.60326-1.5612 0.56952-1.6143 0.88724-2.6901 1.2793-4.1555 0.59364-2.0905 0.99673-3.722 2.249-8.9428 1.1604-4.3456 0.40256-1.6798 0.23356-1.3297 0.12145-1.0555 0.075379-1.054 0.039832-1.0507 8.46e-4 -2.2279-0.11864-2.5567-0.12361-1.1702-0.18709-1.1009-0.40337-1.3688-0.4179-0.82412-0.54581-0.68704-0.90205-0.67137-1.0744-0.51751-2.4707-1.0317-2.6274-1.2323-3.0133-1.3518-1.9387-0.9999-0.73419-0.43649-1.3845-0.97298-5.569-4.3312-1.7537-1.5885-2.4595-2.3944-1.9503-1.6257-0.68587-0.61213-0.5564-0.54348-0.73903-0.80106-0.78348-0.95747-1.2672-1.745-0.80927-1.1751-1.1465-1.775-1.4699-2.4925-0.46494-0.62487-0.2136-0.15704 1.3185-1.3473 0.82827-0.95878 0.42002-0.54078 0.7172-1.0681 0.28115-0.51863 0.22171-0.51479 0.14624-0.4932 0.069266-0.48403-0.019239-0.47044-0.09983-0.40968-0.16354-0.40014-0.49731-0.86304-1.2351-1.8757-0.52962-1.0004-0.21843-0.53415-0.1728-0.53801-0.17337-0.74449-0.12096-0.88036-0.021687-0.4832 0.017073-0.51636 0.15269-1.0497 0.32774-1.1544 0.23304-0.61728 0.62267-1.3704 1.9394-3.9487 0.56425-1.3048 0.31901-1.0573 0.16401-1.0088 0.053868-0.89664-0.052133-0.74567-0.35402-2.4325 0.8162-1.5833 0.29416-0.63503 0.37029-0.95334 0.15804-0.50173 0.24071-0.97437 0.1429-0.86205 0.20874-2.354 0.94222-4.2583 0.33477-1.0379 0.20954-0.44132 0.27329-0.4075 0.33314-0.30358 0.44047-0.18817 0.32037-0.058329 0.59018-0.033649 1.6292-0.013207 0.46338-0.083392 0.19788-0.095283 0.2669-0.21863 0.73695-0.94563 0.16367-0.14711 0.15822-0.090483 0.17246-0.044227 0.30195 0.035646 0.23678 0.088609 1.634 0.90306 0.95447 0.4059 0.61746 0.20975 1.2549 0.35086 1.0932 0.24405 0.50583 0.059863 0.10378-0.029937 0.14941 0.096971 0.20827 0.20638 0.63915 0.8406 1.3957 2.0367 0.78365 1.0634 0.79768 0.94287 0.79603 0.73635 0.48899 0.31643 0.38948 0.16086 0.88329 0.086826 0.86831-0.16036 0.88926-0.20995 0.94874-0.06975 0.7948 0.13412 0.78468 0.2409 2.3343 0.8671 1.7168 0.50179 0.41637 0.087954 0.38958 0.004723 0.30333-0.12688 0.21938-0.22845 0.066459-0.12573 0.13616-0.65572-0.025618-0.86228-0.11064-0.60104-0.31137-1.0799-1.2626-3.3844-0.43912-1.2809-0.36419-1.2972-0.11958-0.55115-0.16747-1.2111-0.060535-1.2376 0.055654-1.6752 0.11317-1.1087 0.24222-1.5582 0.48291-2.2719 0.18594-1.0642 0.11322-1.271-0.012266-0.43387-0.064624-0.36117-0.14374-0.26228-0.18653-0.10592-0.36808 0.029804-0.4387 0.189-0.43854 0.25374-1.8129 1.1415-0.95013 0.5498-1.5708 0.78774-0.6169 0.24814-0.98192 0.28791-0.71151 0.10693-0.66451-0.014814-0.44494-0.1014-0.29895-0.12823-0.25453-0.17111-0.48198-0.61378-0.3214-0.82519-0.11194-0.43304-0.17599-1.0756-0.081442-1.0497 0.013375-1.062 0.14335-1.0289 0.33824-0.98986 0.4707-0.73678 0.61262-0.65336 2.7609-2.1577 1.1904-1.0342 1.1975-1.1326 3.5469-3.5231 1.1077-1.0057 0.52939-0.41986 0.57651-0.39828 0.5171-0.29852 0.56316-0.25644 0.50374-0.16529 0.48101-0.10138 0.58853-0.059071 0.80411 0.009554 0.68215 0.078817 0.63061 0.13653 0.97072 0.36446 1.0789 0.70218 1.0028 0.95027 0.93484 1.1428 0.98618 1.4735 0.92591 1.6118 0.8823 1.7093 0.85148 1.7768 1.6476 3.6765 4.0615 9.4482 1.6926 3.7763 0.88169 1.8654 0.91616 1.8348 0.96187 1.7849 1.0222 1.7063 1.1011 1.5859 1.2029 1.407 1.3309 1.1506 1.4838 0.80016 0.94784 0.27547 1.5784 0.18164 1.5728-0.061885 1.4304-0.22252 1.0974-0.28521 0.49823-0.2293" stroke="#bdc660"/>
    </defs>
    <g clip-path="url(#p7fc5831ffa)">
     <use y="280.512" fill="#bdc660" stroke="#bdc660" xlink:href="#m612aa72345"/>
    </g>
   </g>
  </g>
 </g>
 <defs>
  <clipPath id="p7fc5831ffa">
   <rect x="7.2" y="7.2" width="174.38" height="266.11"/>
  </clipPath>
 </defs>
</svg>
