<?xml version="1.0" encoding="UTF-8"?>
<!DOCTYPE svg  PUBLIC '-//W3C//DTD SVG 1.1//EN'  'http://www.w3.org/Graphics/SVG/1.1/DTD/svg11.dtd'>
<svg width="238.13pt" height="280.51pt" version="1.1" viewBox="0 0 238.13 280.51" xmlns="http://www.w3.org/2000/svg" xmlns:xlink="http://www.w3.org/1999/xlink">
 <metadata>
  <rdf:RDF xmlns:cc="http://creativecommons.org/ns#" xmlns:dc="http://purl.org/dc/elements/1.1/" xmlns:rdf="http://www.w3.org/1999/02/22-rdf-syntax-ns#">
   <cc:Work>
    <dc:type rdf:resource="http://purl.org/dc/dcmitype/StillImage"/>
    <dc:date>2024-07-04T12:08:07.093924</dc:date>
    <dc:format>image/svg+xml</dc:format>
    <dc:creator>
     <cc:Agent>
      <dc:title>Matplotlib v3.7.1, https://matplotlib.org/</dc:title>
     </cc:Agent>
    </dc:creator>
   </cc:Work>
  </rdf:RDF>
 </metadata>
 <defs>
  <style type="text/css">*{stroke-linejoin: round; stroke-linecap: butt}</style>
 </defs>
 <g id="figure_1">
  <g id="patch_1">
   <path d="m0 280.51h238.13v-280.51h-238.13v280.51z" fill="none"/>
  </g>
  <g id="axes_1">
   <g id="PatchCollection_1">
    <defs>
     <path id="m2fb264feb9" d="m220.76-184.92-0.081056 0.84129-0.34624 1.5244-0.41567 1.2231-0.47894 1.0494-0.58249 1.0297-2.5033 3.6377-1.5463 2.4016-0.92347 1.2161-0.51786 0.58926-0.67122 0.6743-1.5126 1.2246-6.2098 3.9112-0.82676 0.54622-1.4695 1.1048-4.0302 3.4246-7.7685 6.1055-1.5046 1.4947-1.296 1.6195-1.0462 1.677-0.58176 1.1969-0.5176 1.2354-0.64681 1.9981-0.36711 1.7353-0.012368 0.97444 0.40842 1.3674 0.63339 0.91651 0.45806 0.42282 1.519 1.0699 0.99702 0.84067 0.9276 0.99153 1.5373 2.0397 0.94591 1.0385 2.0651 2.0424 0.64187 0.70493 0.86018 1.2245 0.35522 0.66653 0.56411 1.5074 0.16817 0.71165 0.06187 0.8655-0.033459 0.34395-0.1536 0.59296-0.50813 1.1003-0.50907 0.90955-0.73362 0.69305-1.0738 0.29-1.4215-0.13233-3.4555-0.74761-1.5753-0.14585-1.4077 0.05029-1.3584 0.3043-1.593 0.84224-1.4365 1.2637-1.2572 1.5637-2.8228 4.6838-0.90683 1.2592-1.0314 1.1585-1.2161 1.1-1.6688 1.2537-2.8533 1.9729-0.66864 0.56924-0.74338 0.73096-0.66925 0.76901-0.8152 1.1434-0.57852 1.0437-0.44375 1.0654-0.25199 0.85625-0.14722 0.79541-0.047934 0.54652 0.022358 0.84117 0.14295 0.80943 0.2662 0.82578 0.41482 0.89538 0.58019 0.97053 0.82022 1.1245 1.2749 1.4622 1.0463 1.0498 2.1886 1.963 3.1138 2.5615 6.8043 5.4403 2.4407 2.1517 2.3753 2.2512 2.2971 2.3129 2.2448 2.364 4.6258 5.1266 1.7633 2.0656 1.6783 2.0816 1.4774 1.9959 1.3336 2.0248 1.4488 2.6803 1.0038 2.6685 0.27443 1.1359 0.24791 1.8052 0.039386 1.3692-0.11138 1.6699-0.18797 1.2126-0.50393 2.1287-0.55644 1.8662-0.68892 1.8936-0.72986 1.644-0.8111 1.5693-0.90151 1.5479-1.2573 1.9311-1.3081 1.8012-0.996 1.2426-1.1581 1.3144-1.2316 1.2721-2.6946 2.4753-1.4382 1.1952-1.9311 1.4932-1.9041 1.3562-2.5079 1.5951-1.2928 0.70935-1.3381 0.60005-0.70199 0.23214-1.0896 0.17979-0.27894-0.007736-0.70803-0.17807-0.5547-0.38173-0.5282-0.83965-0.92557-3.2016-1.301-3.6586-1.0122-2.3208-2.0908-4.3044-2.1097-4.891-1.2093-2.4568-1.1546-2.0013-1.3342-2.0237-1.2978-1.7019-0.90369-0.99587-1.0258-0.91513-1.0521-0.72138-1.0426-0.52947-1.5355-0.51166-1.1173-0.22329-1.7947-0.16831-1.6278 0.007162-2.1475 0.20807-1.2295 0.24171-1.0895 0.36621-0.44167 0.29643-0.068918 0.27436-0.40435 0.12306-2.3318 0.32263-2.6721 0.20728-2.4602 0.038513-2.2459-0.11498-1.7926-0.21641-2.7066-0.58895-1.5068-0.48298-1.3981-0.56143-2.2461-1.1978-1.5396-1.2094-0.88642-1.1901-0.24175-0.6785 0.096425-1.8052 0.86062-1.9596 1.3741-2.0631 1.682-2.1277 3.6159-4.331 1.6306-2.1526 1.3042-2.109 0.79753-2.0332 0.1642-1.3236-0.13762-1.2147-0.41414-1.0476-0.7693-0.89791-1.0614-0.52034-1.0941-0.097207-1.7544 0.25402-1.1043 0.27607-6.0131 1.8368-3.4986 0.9746-2.8868 0.63837-2.6858 0.43362-1.8342 0.20051-1.801 0.11555-1.5416 0.026991-1.488-0.048817-1.5703-0.15283-1.4628-0.27209-2.009-0.70892-1.0102-0.62441-0.8141-0.79091-0.36808-0.53573-0.47629-1.0428-0.36368-1.4747-0.14501-1.4085-0.014498-1.8304 0.2252-3.0178 0.70312-5.1699 1.5151-9.6054 0.83032-4.2563 0.42088-1.826 0.73696-2.7832 2.2013-6.8029 0.5067-1.779 0.55399-2.7063 0.15384-2.1947-0.21472-2.1512-0.58289-1.8907-0.33356-0.70306-1.1283-1.7742-1.7246-2.0036-2.1353-1.9821-1.316-1.0615-2.8949-2.0578-1.566-0.98647-2.9523-1.6378-1.5273-0.73308-1.5581-0.67055-2.942-1.0535-2.6-0.67988-1.3285-0.24811-2.3998-0.27993-3.1706-0.075022-1.732 0.078265-3.4035 0.36212-1.6644 0.27446-1.8962 0.3974-2.8582 0.78672-3.211 1.1494-1.7042 0.71536-7.9302 3.7182-1.3696 0.60729-2.5814 1.0378-3.0218 0.99513-2.2109 0.53898-1.8257 0.29135-1.9021 0.098963-1.9493-0.21163-0.6808-0.17209-1.1779-0.42494-0.9778-0.46659-1.0665-0.61215-2.2857-1.5898-2.4806-1.9808-2.3242-2.1141-2.1515-2.2492-1.3989-1.6294-1.091-1.3776-1.6402-2.2904-1.2027-1.8828-1.1201-1.9294-0.94238-1.7742-0.86713-1.7873-1.0832-2.5369-0.56483-1.5355-0.47743-1.5142-0.40452-1.6215-0.26072-1.5703-0.086828-1.7823 0.20973-1.657 0.43115-1.2748 0.61845-1.2081 3.0759-4.7672 0.70967-1.3542 0.55987-1.4314 0.43723-2.3506 0.018742-1.1086-0.24371-2.2456-0.35554-1.7791-0.40841-1.4147-0.43914-0.74969 0.74442-0.27166 2.1154-0.17643 6.2453-0.21804 6.1951-0.080823 3.3242-0.0971 3.1301-0.23492 2.8457-0.46318 2.4682-0.79475 1.9856-1.2477 1.4565-1.8411 0.97868-2.3044 0.62959-2.6371 0.38098-2.8697 0.20988-3.0272 0.098899-3.1285 0.10234-11.346 0.13825-4.4128 0.28505-4.1006 0.21569-1.8344 0.29924-1.7507 0.70856-2.5123 1.1365-2.1828 1.7693-1.8615 2.2548-1.521 2.6031-1.288 2.6848-1.0773 2.974-1.0303 2.0631-0.64313 2.1052-0.60592 4.8305-1.2393 11.284-2.6668 2.965-0.78859 2.8772-0.86678 2.7547-0.97706 1.3167-0.54237 6.5055-3.188 1.8171-0.71514 1.8473-0.56058 1.862-0.38645 2.218-0.24167 9.5554-0.7412 9.9859-0.90874 13.8-1.3949 8.3761-0.93762 23.755-2.7289 0.029151 0.39826-0.42279 5.8353-0.37432 6.6257-0.11943 3.4402-0.047607 3.4035 0.048692 3.3089 0.17745 3.1671 0.35001 2.9792 0.58128 2.7387 0.89035 2.4332 1.301 2.0439 1.2116 1.1641 1.4196 0.97143 1.2436 0.66695 1.3208 0.60351 2.1121 0.85156 7.0789 2.6253 1.538 0.62994 1.8863 0.86348 1.5351 0.80197 1.9936 1.2234 1.5617 1.1602 1.0646 0.95529 0.86753 0.99067 0.75921 1.2548 0.516 1.2377 0.63616 1.8073 0.4933 0.99717 0.37977 0.40268 0.24521 0.15704 0.46736 0.15909 0.71213-0.029018 0.63582-0.18586 2.2401-0.9166 0.6306-0.19422 0.35205-0.048208 0.37443 0.07157 0.24783 0.21901 0.15689 0.39796 0.055635 0.73977-0.12146 0.97784-0.24481 1.1822-1.0353 3.7413-1.1651 3.8686-0.38514 1.5463-0.22694 1.5251-0.033777 1.3186 0.3507 1.914 0.39932 0.85081 0.56352 0.76936 0.41901 0.40605 1.2832 0.84543 1.6558 0.67809 1.1824 0.31737 2.0861 0.39876" stroke="#bdc660"/>
    </defs>
    <g clip-path="url(#p1d1e628e84)">
     <use y="280.512" fill="#bdc660" stroke="#bdc660" xlink:href="#m2fb264feb9"/>
    </g>
   </g>
  </g>
 </g>
 <defs>
  <clipPath id="p1d1e628e84">
   <rect x="7.2" y="7.2" width="223.73" height="266.11"/>
  </clipPath>
 </defs>
</svg>
