<?xml version="1.0" encoding="UTF-8"?>
<!DOCTYPE svg  PUBLIC '-//W3C//DTD SVG 1.1//EN'  'http://www.w3.org/Graphics/SVG/1.1/DTD/svg11.dtd'>
<svg width="335.38pt" height="280.51pt" version="1.1" viewBox="0 0 335.38 280.51" xmlns="http://www.w3.org/2000/svg" xmlns:xlink="http://www.w3.org/1999/xlink">
 <metadata>
  <rdf:RDF xmlns:cc="http://creativecommons.org/ns#" xmlns:dc="http://purl.org/dc/elements/1.1/" xmlns:rdf="http://www.w3.org/1999/02/22-rdf-syntax-ns#">
   <cc:Work>
    <dc:type rdf:resource="http://purl.org/dc/dcmitype/StillImage"/>
    <dc:date>2024-07-04T12:07:51.409253</dc:date>
    <dc:format>image/svg+xml</dc:format>
    <dc:creator>
     <cc:Agent>
      <dc:title>Matplotlib v3.7.1, https://matplotlib.org/</dc:title>
     </cc:Agent>
    </dc:creator>
   </cc:Work>
  </rdf:RDF>
 </metadata>
 <defs>
  <style type="text/css">*{stroke-linejoin: round; stroke-linecap: butt}</style>
 </defs>
 <g id="figure_1">
  <g id="patch_1">
   <path d="m-0 280.51h335.38v-280.51h-335.38v280.51z" fill="none"/>
  </g>
  <g id="axes_1">
   <g id="PatchCollection_1">
    <defs>
     <path id="m4b852420ea" d="m293.43-173-0.21139 0.18351-0.21024 0.85793-0.13598 1.4156 0.073575 4.1544 0.23211 2.0361 0.61758 3.1299 1.3585 4.1145 1.2785 2.7282 1.7344 2.9665 1.5345 2.2277 7.1182 8.6361 3.1921 4.3976 1.259 2.1924 1.6294 4.0817 0.43736 2.0067 0.25471 3.5873-0.42712 4.7424-0.81958 4.4677-1.8306 7.8122-1.0057 3.3388-1.1573 3.067-1.0738 2.2527-3.2259 5.6156-0.44311 1.2819-0.003116 0.89811 0.29711 0.77714 2.7721 2.9921 0.41634 1.0478-0.003979 1.1906-0.75732 1.5802-1.0876 1.1303-1.4023 0.92648-2.9382 1.3548-10.876 3.5314-6.7418 1.4744-2.4429 0.64955-2.1639 0.82324-3.781 2.0446-2.8066 1.879-1.5125 1.132-2.6433 2.3627-1.5086 1.6259-2.8654 3.5672-3.6688 5.6607-3.9246 7.1722-9.6909 18.92-2.7188 4.9706-1.1817 1.96-0.55464 0.59475-0.46852 0.61783-1.4274 0.6109-1.7854 0.44146-1.8318 0.27593-3.1821 0.20151-3.7299-0.13276-4.0013-0.56336-7.1894-2.071-7.375-3.184-7.4309-3.8704-14.894-8.2198-20.058-10.268-14.352-7.1589-5.5653-3.3304-6.5332-4.3616-4.4968-3.3636-4.3455-3.6009-5.4093-5.0484-11.101-11.581-6.0963-6.0841-24.239-22.748-11.094-11.208-3.1962-2.8914-3.3367-2.546-4.9027-2.9268-4.8537-2.3989-3.7527-1.7262-3.6488-1.3142-2.932-0.59006-1.385-0.12969-4.4403 0.22218-4.148 0.66089-3.7679 0.33468-1.5272-0.1438-2.9842-0.89123-2.0675-0.9104-2.4457-1.3084-2.0597-1.8276-1.0216-1.6956-0.66638-2.0095-0.28844-2.0275 0.018987-2.3609 0.53663-3.5062 2.09-9.0884 0.55464-4.295 0.86318-9.4568 0.16886-5.0672-0.28678-3.8714-2.0165-12.311-0.74046-5.6464-0.33169-5.8298 0.27337-6.7379 1.2196-14.803 0.68927-5.1364 1.2968-5.4488 1.5726-3.8479 1.8562-3.3115 2.065-3.0203 3.4678-4.4296 2.2896-2.6208 0.57078-0.21749 1.2601 0.51851 1.9565 1.4295 4.2001 4.0985 12.375 14.278 10.799 13.196 3.9219 4.387 3.6032 3.5813 2.9872 2.4874 3.1827 2.2565 5.3147 3.1271 5.5971 2.6887 4.323 1.7588 4.4045 1.5461 5.2395 1.5401 5.2829 1.2635 4.3588 0.8373 4.3474 0.64282 4.3199 0.42672 4.3095 0.17759 4.2487-0.12488 4.1695-0.49036 4.1962-0.92437 6.3416-1.9681 11.865-4.1772 4.1371-1.218 2.413-0.53072 3.306-0.48439 3.8548-0.21309 3.9567 0.15709 4.7389 0.69296 3.3583 0.84762 4.8917 1.5014 24.039 7.9021 7.5621 2.2977 7.613 1.8694 17.901 3.8122 5.7407 1.4224 11.423 3.3511 5.5582 1.8954 5.3249 2.0203 4.9434 2.1219 4.3661 2.1828 3.5492 2.1663 1.8243 1.3704 1.8121 1.61 0.56504 0.88072" stroke="#bdc660"/>
    </defs>
    <g clip-path="url(#p3cb9f9baba)">
     <use y="280.512" fill="#bdc660" stroke="#bdc660" xlink:href="#m4b852420ea"/>
    </g>
   </g>
  </g>
 </g>
 <defs>
  <clipPath id="p3cb9f9baba">
   <rect x="7.2" y="7.2" width="320.98" height="266.11"/>
  </clipPath>
 </defs>
</svg>
