<?xml version="1.0" encoding="UTF-8"?>
<!DOCTYPE svg  PUBLIC '-//W3C//DTD SVG 1.1//EN'  'http://www.w3.org/Graphics/SVG/1.1/DTD/svg11.dtd'>
<svg width="258.74pt" height="280.51pt" version="1.1" viewBox="0 0 258.74 280.51" xmlns="http://www.w3.org/2000/svg">
 <metadata>
  <rdf:RDF xmlns:cc="http://creativecommons.org/ns#" xmlns:dc="http://purl.org/dc/elements/1.1/" xmlns:rdf="http://www.w3.org/1999/02/22-rdf-syntax-ns#">
   <cc:Work>
    <dc:type rdf:resource="http://purl.org/dc/dcmitype/StillImage"/>
    <dc:date>2024-07-04T12:07:38.755559</dc:date>
    <dc:format>image/svg+xml</dc:format>
    <dc:creator>
     <cc:Agent>
      <dc:title>Matplotlib v3.7.1, https://matplotlib.org/</dc:title>
     </cc:Agent>
    </dc:creator>
   </cc:Work>
  </rdf:RDF>
 </metadata>
 <defs>
  <style type="text/css">*{stroke-linejoin: round; stroke-linecap: butt}</style>
 </defs>
 <g id="figure_1">
  <g id="patch_1">
   <path d="m0 280.51h258.74v-280.51h-258.74v280.51z" fill="none"/>
  </g>
  <g id="axes_1">
   <g id="PatchCollection_1" fill="#bdc660" stroke="#bdc660">
    <path d="m108.19 166.33-0.27514 1.8346-0.49101 1.8029-0.71801 1.6493-0.95759 1.4406-1.5555 1.4833-1.6918 1.0412-1.4896 0.57-0.83844 0.004193-0.48562-4.0168-0.27318-1.2627-0.55778-1.3893-0.5712-0.87716-1.1414-1.1415-0.95265-0.55144-1.0684-0.3201-0.93975-0.081878-2.4548 0.23282-7.1543 1.6388-2.4328 0.30666-1.4065 0.015055-1.3624-0.12399-6.1151-1.4113-3.096-0.5634-1.7967-0.1095-1.7518 0.054969-2.2787 0.36506-1.4799 0.5173-1.2769 0.74908-0.78438 0.71153-0.68878 0.80431-4.3266 5.7115-0.92407 0.86867-1.2548 0.73668-1.4929 0.55269-1.6823 0.41284-1.8337 0.30878-4.2794 0.42944-4.6498 0.24559-14.141 0.48867-5.1964 0.37729 0.060817-0.20763-0.11759-0.50045-1.1917-2.9185-0.6043-2.2127-0.14824-1.0704-0.012126-0.98196 0.15688-0.84554 0.36862-0.65724 0.43959-0.34456 0.55804-0.23327 1.4318-0.23398 4.4753 0.016723 1.8762-0.19476 0.79602-0.2959 0.66831-0.4798 0.57-0.61935 1.2896-1.9227 0.63802-1.3117 1.1821-3.7592 2.2764-4.7591 1.2572-2.8457 0.79704-2.0636 0.93961-2.9846 0.83436-2.2889 1.4628-3.2186 1.2244-2.0926 0.1782-0.57456-0.1424-0.030828 0.87009-2.2731 1.6288-5.2352 0.91944-2.6269 0.94953-2.1069 0.69966-1.2302 1.6079-2.3027 1.7921-2.1224 2.0023-2.0388 3.8276-3.3808 2.126-2.1897 1.7301-2.1796 0.50117-0.82316 0.45307-1.0863 0.3197-1.1964 0.3472-2.615 0.058024-2.7769-0.20378-2.815-0.53701-2.74-1.972-5.3712-0.28165-1.2716-0.061157-0.92605 0.1981-2.9883 0.18294-1.1592 0.34885-1.2303 1.8636-5.3372 0.52345-2.1476 0.073856-0.75139-0.050112-0.31995 8.4158 12.976 6.5501 10.441 1.4831 2.0887 3.275 4.2517 2.9463 4.2111 0.85674 1.3833 1.2409 2.4837 1.0518 2.4797 1.2465 2.3545 1.9083 3.1746 2.1146 2.7684 0.94557 1.5111 0.59697 1.4366 0.45843 1.5717 1.3151 5.3541 0.61844 1.6734 1.0817 2.0916 1.3296 2.0455 4.4862 6.2308 1.3391 2.2486 0.81487 1.7 0.7022 1.7713 1.1134 3.7214 0.6817 3.7411 0.16881 1.8301 0.046945 1.9314-0.1042 1.8972" clip-path="url(#pd76d89e800)"/>
    <path d="m140.25 40.017 0.97551 0.054518 1.5731-0.1652 1.2776-0.36634 1.0859-0.55162 0.79708-0.7634-0.27788 0.44835-0.10066 0.46036-0.13144 1.3589-0.021195 2.4396 0.29483 3.8469 0.3879 2.1787 0.70018 2.4856 0.77616 1.8148 3.1036 5.423 1.001 2.0459 0.65209 2.1136 0.19202 2.2484-0.16906 2.3415-1.2848 7.3077-0.2762 2.4656 0.00842 2.456 0.39097 2.4065 0.73896 2.3668 0.64631 1.5169 1.5744 2.8833 1.7288 2.5594 2.9197 3.8463 4.1848 5.1048 7.5446 8.6702 8.1251 9.5327 1.5219 1.5595 1.5652 1.3883 1.6178 1.1557 1.6823 0.84468 1.7616 0.43464 2.0516-0.088619 2.1511-0.60201 2.2336-1.0063 2.2997-1.3228 2.3474-1.5667 4.9494-3.7892 8.3304-7.1949 0.56495-0.36497 8.9066 8.5815 4.1921 4.2598 6.0273 6.5192 3.622 4.3453 1.6747 2.3012 1.2482 1.9812 1.0657 2.0239 0.77105 1.8424 0.59064 1.8691 0.40168 1.9091 0.1903 1.9112-0.010358 1.5206-0.15149 1.5029-0.36343 1.7722-0.55501 1.7136-0.65554 1.4666-0.79593 1.3937-1.0205 1.4281-1.1627 1.3137-1.0993 1.0226-1.1841 0.92102-1.9136 1.1821-2.0284 0.94231-1.8204 0.62741-1.8303 0.47119-6.3779 1.007-2.9344 0.59927-1.1394 0.026725-1.312-0.24036-3.5517-1.2237-0.94588-0.057802-0.80942 0.44087-0.3774 0.94626 0.082264 0.93597 0.34662 1.1237 0.56432 1.2825 2.0073 3.6126 4.5653 7.6025 1.8812 3.4167 1.4852 3.1747 0.15093 0.8639-0.58785 0.035525-2.4959 0.40641-3.9363 0.91796-4.0274 1.2019-3.6573 1.4285-1.5496 0.79682-1.3105 0.86889-1.0077 0.95573-0.62546 1.0639-0.18409 1.1547 0.16468 1.2471 0.38301 1.1945 0.55251 1.2285 0.68308 1.2476 1.509 2.3112 1.0839 1.451 2.1764 2.4899 4.4176 3.9776 2.1742 2.1443 0.94037 1.148 0.79392 1.2234 0.66734 1.4422 0.48788 1.5307 0.34784 1.5949 0.38651 3.3044 0.084096 3.3521-0.14733 4.2079-0.24551 3.0455-0.36825 3.0478-1.3887 9.4991-0.26293 3.7953 0.12199 3.3125 0.83299 5.8557 0.080023 1.0682-0.90876 0.84202-2.655 0.49793-2.7792-0.1532-3.1647-0.76899-4.4033-1.9103-3.7999-2.4137-2.9088-2.3881-3.8396-3.9488-2.5379-3.1552-2.3045-3.3027-2.1108-3.4701-2.0197-3.8242-0.97689-2.0804-1.7312-4.1338-1.3742-3.647-6.343-18.256-3.2882-9.1923-1.0814-2.7819-2.6563-5.9831-1.3457-2.655-1.6614-2.9133-1.4586-2.1508-1.5647-1.8619-2.4016-2.0324-1.6335-0.89645-1.7094-0.68356-4.8034-1.5743-1.4309-0.59633-0.95366-0.4818-2.2594-1.4796-2.2153-1.8788-1.8216-1.8236-1.7981-2.0145-2.288-2.8253-4.4039-6.0645-4.5176-6.8247-3.9192-6.3015-8.4703-14.301-3.9908-6.2375-2.2417-3.1819-6.9068-9.2057-1.73-2.4437-3.0781-4.7717-2.186-3.6987-1.4306-2.6552-1.2418-2.6388-2.4619-6.4956-1.405-3.261-1.2507-2.0818-1.5323-1.9266-2.5071-2.3919-5.4315-4.6299-2.8623-2.6176-2.7427-2.7841-3.4374-4.0332-2.7168-3.6584-1.7494-2.5616-2.0737-3.4886-1.1243-2.689-0.61445-2.7177-0.085828-1.3064 0.46276-3.5659 1.5588-3.3173 1.7014-2.2892 2.0831-2.202 2.951-2.5549 3.3043-2.3894 3.9922-2.416 4.357-2.1367 3.4034-1.3584 9.2438-3.0604 7.3465-2.144 3.7722-0.96058 3.7525-0.60598 3.6881-0.33414 6.4868-0.34009 2.8143 0.15572 2.6317 0.66975 2.4394 1.209 2.6209 2.2435 2.0805 2.9515 4.6662 8.9437 1.1183 1.8066 1.3578 1.4587 2.0809 1.0561 1.1045 0.22627" clip-path="url(#pd76d89e800)"/>
   </g>
  </g>
 </g>
 <defs>
  <clipPath id="pd76d89e800">
   <rect x="7.2" y="7.2" width="244.34" height="266.11"/>
  </clipPath>
 </defs>
</svg>
