<?xml version="1.0" encoding="UTF-8"?>
<!DOCTYPE svg  PUBLIC '-//W3C//DTD SVG 1.1//EN'  'http://www.w3.org/Graphics/SVG/1.1/DTD/svg11.dtd'>
<svg width="304.43pt" height="280.51pt" version="1.1" viewBox="0 0 304.43 280.51" xmlns="http://www.w3.org/2000/svg" xmlns:xlink="http://www.w3.org/1999/xlink">
 <metadata>
  <rdf:RDF xmlns:cc="http://creativecommons.org/ns#" xmlns:dc="http://purl.org/dc/elements/1.1/" xmlns:rdf="http://www.w3.org/1999/02/22-rdf-syntax-ns#">
   <cc:Work>
    <dc:type rdf:resource="http://purl.org/dc/dcmitype/StillImage"/>
    <dc:date>2024-07-04T12:07:45.699033</dc:date>
    <dc:format>image/svg+xml</dc:format>
    <dc:creator>
     <cc:Agent>
      <dc:title>Matplotlib v3.7.1, https://matplotlib.org/</dc:title>
     </cc:Agent>
    </dc:creator>
   </cc:Work>
  </rdf:RDF>
 </metadata>
 <defs>
  <style type="text/css">*{stroke-linejoin: round; stroke-linecap: butt}</style>
 </defs>
 <g id="figure_1">
  <g id="patch_1">
   <path d="m-0 280.51h304.43v-280.51h-304.43v280.51z" fill="none"/>
  </g>
  <g id="axes_1">
   <g id="PatchCollection_1">
    <defs>
     <path id="mdf04a0c6a5" d="m246.49-216.4-0.04831 0.37357 0.43426 0.7223 0.58424 0.64619 1.4464 1.2158 1.9809 1.2828 4.822 2.6093 1.4352 0.83188 6.5168 4.3084 1.9025 1.0715 2.3576 1.1014 2.2514 0.89746 5.1963 1.9272 2.5946 1.1051 1.4322 0.8165 0.78356 0.59143 0.6726 0.66341 0.57048 0.80195 0.47305 1.1695 0.23814 1.3033 0.060782 1.0549-0.1029 2.2358-0.37373 2.7477-1.0014 5.0752-0.98991 4.3301-0.91658 3.3097-1.6809 5.0117-0.43478 1.491-0.3473 1.4698-0.19152 1.1238-0.096261 1.0886 0.01087 0.85264 0.10879 0.81245 0.33976 1.0676 0.31746 0.6147 0.3826 0.54642 0.36665 0.39848 0.67384 0.51088 0.68688 0.30289 0.61167 0.080425 0.40601-0.15962 1.3089 3.9591 0.40547 1.4017 0.70204 2.9527 0.57342 3.0014 0.46901 2.9695 0.36411 2.9152 0.22293 2.8602 0.034701 1.41-0.10803 2.7143-0.26366 2.6464-0.39991 2.6746-0.26639 1.2581-0.33418 1.1769-0.428 1.0652-0.56875 0.93312-0.73323 0.71907-0.90344 0.45684-1.0524 0.26584-1.1622 0.14401-4.8852 0.35341-6.115 0.7148-2.5621 0.36494-8.3948 1.4715-3.6785 0.5092-5.4241 0.6297-5.7281 1.8481-3.1873 1.1576-3.2929 1.3419-3.2186 1.5123-3.006 1.6895-2.6746 1.8921-1.7926 1.6081-1.649 1.6862-1.6089 1.7248-1.5315 1.7537-1.3948 1.8016-1.5141 2.3462-0.80086 1.4026-0.70856 1.4405-0.79396 2.1703-0.54404 2.27-0.30754 2.3216-0.072541 2.3289 0.1891 2.3433 0.47745 2.5245 0.98976 4.1044 0.62965 2.9416 0.3703 2.573 0.048193 1.5057-0.092117 1.3649-0.14194 0.86561-0.21756 0.85603-0.24427 0.6919-0.47435 0.98026-0.75301 1.0907-0.59122 0.6674-0.56708 0.54324-0.73562 0.5929-0.90069 0.60381-1.6269 0.86018-1.9771 0.7629-4.8269 1.5153-2.8428 1.1425-8.1634 3.6355-6.824 2.8873-5.6655 2.5682-6.193 2.5734-2.1141 1.0478-1.8802 1.151-0.89095 0.64207-1.6535 1.3425-0.52671 0.49754-1.0602 1.3488-0.536 1.362-0.20065 1.2653-0.1049 1.1465-0.32049 1.0382-0.43134 0.58396-0.95433 0.73639-0.52096 0.26252-1.3055 0.30742-0.76972-0.003445-1.223-0.19269-2.3923-0.57323-1.1367-0.19566-2.1579-0.10525-0.92021 0.023773-1.5372 0.14056-3.6726 0.57118-1.3571 0.094923-0.61344-0.055734-1.2779-0.37053-2.2161-1.0225-1.1643-0.41232-1.1647-0.12148-1.3273 0.39897-1.1129 0.90032-0.79482 1.2242-2.5335 4.8578-0.53998 0.60996-0.82116 0.36394-1.0946-0.084233-1.1334-0.4262-3.534-1.9258-0.62795-0.29027-1.2052-0.44058-1.3427-0.37781-1.5035-0.2715-2.754-0.30132-1.2025-0.061477-1.4355 0.035449-6.5518 0.7186-4.3636 0.77542-1.782 0.38617-1.8699 0.51945-1.8252 0.63523-4.0532 1.6072-4.5026 1.6119-1.9375 0.80272-3.4791 1.697-2.2471 1.0197-1.6055 0.60568-3.7812 1.1804-2.0157 0.54212-2.5687 0.52534-2.3863 0.28321-1.977 0.007148-1.062-0.19368-0.45172-0.35284 0.2523-0.26653-0.067223-1.1581-0.12067-0.37852-0.87558-1.5894-0.73743-0.85367-0.90645-0.83667-1.485-1.1083-1.2725-0.79529-2.3139-1.2536-5.0955-2.5288-1.2604-0.77614-1.02-0.80388-0.77999-0.8933-0.22361-0.42555-0.10289-0.80373 0.41759-0.59537 0.71008-0.33383 0.97471-0.21188 0.96539-0.11483 4.3767-0.28613 2.12-0.26723 1.9963-0.50655 1.7349-0.86211 1.0101-0.88884 0.8493-1.1426 0.68311-1.4188 0.46709-1.8727 0.012602-1.8763-0.50124-1.7061-0.78438-1.1773-1.0457-1.0465-1.2098-0.95733-2.8761-2.0749-2.4504-1.9359-2.9049-2.062-1.0115-0.83411-0.99734-0.9602-3.5677-3.7703-2.9621-3.4597-1.7485-2.1176-1.1446-1.5103-1.0415-1.5396-1.1238-1.9379-3.1613-6.1402-0.58605-1.1949-0.50234-1.1968-0.35377-1.0916-0.23153-0.95323-0.49923-3.649-0.40877-1.8514-0.93526-2.217-1.3585-2.2786-1.6535-2.3328-5.6836-7.3301-1.8178-2.5852-1.6121-2.6888-1.2859-2.8247-0.86069-2.9674-0.51694-3.0914-0.26949-3.1717-0.098269-3.2145 0.012517-3.2233 0.25344-8.3871 0.2792-3.3317 0.43922-3.0725 0.32769-1.699 0.43356-1.7524 0.55032-1.7503 0.64599-1.6439 1.1801-2.449 3.0501-5.3011 0.72572-1.487 0.62204-1.5457 0.54278-1.6558 0.50449-1.9802 0.33751-1.8666 0.19077-1.668 0.10149-2.4334-0.084535-2.0451-1.3244-11.541-0.24892-3.1893-0.24624-4.9715-0.06171-4.0264 0.099246-3.5723 0.25592-3.0695 0.15011-1.1111 0.12949-0.41834 3.1809-6.025 1.8145-3.641 1.6764-3.6838 1.2418-3.218 0.57549-2.0275 0.52382-2.7105 1.2802-9.5677 0.5616-3.126 0.32416-1.3216 0.33252-1.0741 0.3899-0.97521 0.46138-0.85268 0.44558-0.59079 0.5147-0.46958 0.75496-0.40317 0.84196-0.22689 1.3833-0.10762 3.4721 0.017544 1.0547-0.15797 0.9224-0.34748 0.73206-0.57254 0.43953-0.74575 0.20579-0.8845-0.004386-0.89752-0.19546-0.89508-0.40358-0.905-2.0601-3.6223-0.57545-0.74773-0.45996-0.44437-1.3024-0.99632-0.39587-0.44083-0.26508-0.5719-0.069955-0.80441 0.14095-0.93789 0.30816-1.0042 0.42942-1.0037 0.86492-1.7488 0.27124-0.76298 0.1266-0.61866-0.050884-0.35097 1.182 0.12592 3.9442 0.66948 2.3246 0.49561 2.6656 0.70435 1.7583 0.5458 3.5956 1.2839 8.4891 3.4602 3.5313 1.3627 2.883 1.0242 2.8474 0.84471 2.8403 0.56686 2.9488 0.22001 3.1815-0.079473 5.3414-0.34374 2.4327-0.099622 4.6789-0.04885 3.2969 0.057349 6.5916 0.29854 3.2715 0.23975 3.7659 0.37008 2.5706 0.32933 2.524 0.41054 2.4626 0.51714 2.5106 0.69528 1.9307 0.69745 1.4779 0.65598 1.105 0.56721 1.5161 0.89566 1.7289 1.1919 2.1623 1.6925 6.0729 5.1023 1.012 0.8999 0.89798 0.93927 0.76391 1.0176 0.68027 1.1225 0.52145 1.1376 0.28013 0.85218 0.3821 1.9121 0.38004 3.5911 0.38608 2.6816 0.45126 1.9748 0.28993 0.84244 0.39593 0.88458 0.31878 0.56588 0.50929 0.7222 0.44687 0.50148 0.84536 0.71634 0.64407 0.40981 1.0371 0.5242 1.1152 0.46156 1.4433 0.4542 0.80173 0.17488 1.7533 0.2414 2.6068 0.1866 1.2888 0.003849 1.0116-0.064375 1.8358-0.26773 2.3132-0.60622 1.2689-0.46801 1.3279-0.61565 1.2762-0.72471 3.7237-2.3349 5.425-3.2918 5.8731-3.3758 6.126-3.287 3.1257-1.5637 3.1542-1.4716 3.1753-1.3365 3.1895-1.1413 3.1961-0.86319 3.193-0.47221 3.1766 0.068692 3.1078 0.72226 3.0897 1.2798 3.0802 1.7116 3.0695 2.0393 3.0444 2.2755 2.9861 2.4216 2.8671 2.4649 6.5664 5.9748 0.66498 0.47454" stroke="#bdc660"/>
    </defs>
    <g clip-path="url(#p243d0b2c6d)">
     <use y="280.512" fill="#bdc660" stroke="#bdc660" xlink:href="#mdf04a0c6a5"/>
    </g>
   </g>
  </g>
 </g>
 <defs>
  <clipPath id="p243d0b2c6d">
   <rect x="7.2" y="7.2" width="290.03" height="266.11"/>
  </clipPath>
 </defs>
</svg>
