<?xml version="1.0" encoding="UTF-8"?>
<!DOCTYPE svg  PUBLIC '-//W3C//DTD SVG 1.1//EN'  'http://www.w3.org/Graphics/SVG/1.1/DTD/svg11.dtd'>
<svg width="208.76pt" height="280.51pt" version="1.1" viewBox="0 0 208.76 280.51" xmlns="http://www.w3.org/2000/svg" xmlns:xlink="http://www.w3.org/1999/xlink">
 <metadata>
  <rdf:RDF xmlns:cc="http://creativecommons.org/ns#" xmlns:dc="http://purl.org/dc/elements/1.1/" xmlns:rdf="http://www.w3.org/1999/02/22-rdf-syntax-ns#">
   <cc:Work>
    <dc:type rdf:resource="http://purl.org/dc/dcmitype/StillImage"/>
    <dc:date>2024-07-04T12:07:37.870270</dc:date>
    <dc:format>image/svg+xml</dc:format>
    <dc:creator>
     <cc:Agent>
      <dc:title>Matplotlib v3.7.1, https://matplotlib.org/</dc:title>
     </cc:Agent>
    </dc:creator>
   </cc:Work>
  </rdf:RDF>
 </metadata>
 <defs>
  <style type="text/css">*{stroke-linejoin: round; stroke-linecap: butt}</style>
 </defs>
 <g id="figure_1">
  <g id="patch_1">
   <path d="m0 280.51h208.76v-280.51h-208.76v280.51z" fill="none"/>
  </g>
  <g id="axes_1">
   <g id="PatchCollection_1">
    <defs>
     <path id="mab38477b50" d="m190.26-162.63-3.2 3.8057-13.417 14.984-3.2392 3.8432-1.8096 2.5438-0.7067 1.2724-0.50489 1.2757-0.2284 1.2814 0.073939 1.1005 0.28484 1.1016 1.0186 2.1858 0.88356 1.3787 1.5841 1.9058 4.4474 4.6401 3.2011 3.8276 14.085 18.366-4.2185 8.8648-9.0181 20.358-3.1538 6.8136-2.8716 5.3142-1.0808 1.6597-1.1817 1.5741-1.3258 1.495-2.9376 2.7534-4.8128 3.8022-20.681 14.748-17.152 12.443-0.2444-0.63183 0.048525-1.4993 0.6209-4.1146 0.208-2.1042 0.002024-2.2424-0.4622-3.1484-0.96645-3.2548-1.3821-3.2915-2.144-4.0203-2.5141-3.898-2.796-3.6946-3.6416-4.0588-6.7558-6.7212-5.879-6.6383-7.5627-9.2241-8.3241-11.052-3.7899-5.4144-3.9247-5.8662-8.3184-13.044-4.5279-7.6554-2.3518-4.3086-2.0191-3.9811-2.9269-6.4309-2.6928-6.9472-2.8662-8.5735-5.5094-17.679-3.0026-9.1872-3.8207-11.064-2.5031-6.7345-2.7004-6.5854-3.0015-6.7179-7.0274-14.593-4.4078-6.4853-0.22897-0.026638-0.84866-0.89745 0.15038-1.6711 1.4588-2.3642 2.6097-2.5825 3.4451-2.6513 4.0147-2.6387 4.3818-2.5808 4.6022-2.4954 4.7196-2.3893 4.7654-2.2625 4.7605-2.1094 4.7175-1.9204 4.6428-1.6812 4.5373-1.3729 4.398-0.97089 4.2179-0.44414 3.9862 0.24597 2.5718 0.64655 2.4379 0.98515 1.0862 0.54991 2.4162 1.4321 2.2451 1.6343 3.0971 2.7279 2.4534 2.5219 2.8326 3.3437 2.6897 3.6003 2.0151 2.983 1.9002 3.0994 2.0548 3.7142 2.3222 4.6195 4.9791 10.62 1.3006 2.5127 1.3487 2.3818 2.2274 3.4303 2.4285 2.9462 2.6665 2.135 2.9465 1.1592 3.1991 0.57789 3.3669 0.47087 3.4613 0.84072 3.0338 1.3347 3.0751 1.8467 3.1404 2.2315 10.112 7.9144 19.161 14.309 12.585 8.9063 2.6857 2.0035 0.97485 0.85812" stroke="#bdc660"/>
    </defs>
    <g clip-path="url(#pd5e4ac874d)">
     <use y="280.512" fill="#bdc660" stroke="#bdc660" xlink:href="#mab38477b50"/>
    </g>
   </g>
  </g>
 </g>
 <defs>
  <clipPath id="pd5e4ac874d">
   <rect x="7.2" y="7.2" width="194.36" height="266.11"/>
  </clipPath>
 </defs>
</svg>
