<?xml version="1.0" encoding="UTF-8"?>
<!DOCTYPE svg  PUBLIC '-//W3C//DTD SVG 1.1//EN'  'http://www.w3.org/Graphics/SVG/1.1/DTD/svg11.dtd'>
<svg width="295.41pt" height="280.51pt" version="1.1" viewBox="0 0 295.41 280.51" xmlns="http://www.w3.org/2000/svg" xmlns:xlink="http://www.w3.org/1999/xlink">
 <metadata>
  <rdf:RDF xmlns:cc="http://creativecommons.org/ns#" xmlns:dc="http://purl.org/dc/elements/1.1/" xmlns:rdf="http://www.w3.org/1999/02/22-rdf-syntax-ns#">
   <cc:Work>
    <dc:type rdf:resource="http://purl.org/dc/dcmitype/StillImage"/>
    <dc:date>2024-07-04T12:07:51.991744</dc:date>
    <dc:format>image/svg+xml</dc:format>
    <dc:creator>
     <cc:Agent>
      <dc:title>Matplotlib v3.7.1, https://matplotlib.org/</dc:title>
     </cc:Agent>
    </dc:creator>
   </cc:Work>
  </rdf:RDF>
 </metadata>
 <defs>
  <style type="text/css">*{stroke-linejoin: round; stroke-linecap: butt}</style>
 </defs>
 <g id="figure_1">
  <g id="patch_1">
   <path d="m0 280.51h295.41v-280.51h-295.41v280.51z" fill="none"/>
  </g>
  <g id="axes_1">
   <g id="PatchCollection_1">
    <defs>
     <path id="m48266a9d06" d="m275.44-218.4-3.9192 3.145-7.7321 5.8518-20.334 14.807-13.064 9.3808-9.8092 6.8058-11.771 7.8535-10.863 7.6084-1.9632 1.6057-1.1102 1.1523-0.95861 1.3059-0.60274 1.1328-0.45358 1.2958-0.25275 1.2805-0.081125 0.94317 0.00129 0.83825 0.21048 1.6876 0.64358 2.1584 1.2043 2.6451 2.4192 4.1687 1.981 3.0047 4.3827 6.2367 2.3627 3.965 1.4277 2.7778 3.5883 7.7834 1.4299 2.8687 1.5956 2.8333 1.7651 2.7652 1.9442 2.6591 3.3962 4.0212 4.448 4.846 2.1751 2.1573 2.5311 2.2608 1.3689 1.095 2.1977 1.5792 4.4889 2.8544 1.4444 1.0747 0.40956 0.58123-6.7186 3.6999-15.383 8.8946-3.8474 2.5113-2.503 1.9002-3.3348 2.9981-2.8395 3.1023-2.0244 2.5206-4.6805 6.218-2.8545 3.3765-1.8552 1.8268-2.456 1.9755-2.6003 1.6938-2.5375 1.3688-2.4234 1.1671-4.1842 1.8587-10.278 4.3174-7.4214 4.1118-14.409 8.4967-2.0014 1.0618-2.4048 1.0552-2.0166 0.57227-5.8889 0.99105-5.0128 1.2092-1.6987 0.31279-3.1019 0.33834-6.2691 0.48175-3.3014 0.0139 0.1072-0.41765-0.16894-0.69596-0.86946-1.9469-0.89304-1.4645-1.5118-2.0315-10.017-11.021-3.9263-4.6518-2.2682-2.9953-2.0361-3.094-1.8151-3.1107-2.5761-4.7766-1.3758-2.9515-1.1213-3.005-0.89675-3.1737-0.79649-3.4138-0.42986-2.3652-0.27241-2.3619-0.071418-2.3367 0.15964-2.475 0.62208-5.0839 0.18692-2.9975-0.051353-1.9508-0.26276-2.562-0.76415-3.8085-0.79948-2.9181-0.9637-2.9361-1.114-2.9243-1.261-2.8819-2.1965-4.2029-1.9428-3.2963-3.1512-4.9679-4.2148-6.082-2.289-2.9908-3.1961-3.5914-2.8979-2.7182-11.813-9.9348-14.601-12.687-2.0345-1.6332-3.2539-2.4103-6.9712-4.5542-1.6295-1.149-0.54406-0.55491 2.5063-1.2926 7.0131-3.2895 14.328-6.263 3.1068-1.1514 1.971-0.61973 6.6673-1.8962 11.114-4.6343 5.621-2.684 4.9911-2.8398 3.9325-2.6585 2.8761-2.3051 2.9326-2.6659 11.267-10.696 3.2901-2.9728 14.701-12.513 2.0668-1.6408 1.0457-0.71453 0.24996-0.070757 5.108-1.0123 7.3233-1.7214 4.5936-1.209 13.841-3.9687 6.9813-1.6822 5.4893-0.92502 9.371-1.0285 5.7554-0.82473 2.7923-0.50157 3.1227-0.84281 3.2232-1.3031 3.3391-1.7357 2.2664-1.3708 11.771-7.8034 5.7971-3.5076 2.9925-1.6484 2.9097-1.3513 2.3343-0.8171 2.7191-0.56712 1.7677-0.066507 2.0887 0.30784 1.4618 0.44301 1.4559 0.59629 2.62 1.4141 1.4048 0.93589 2.7396 2.0849 2.7589 2.3654 2.7242 2.5293 4.8189 4.7749 5.5011 5.7801 9.4832 10.3 2.32 2.3951 3.6628 3.512 3.2852 2.704 1.2191 0.84953 1.9008 1.1092 1.5732 0.68047 0.84223 0.19152 0.42689-0.15846" stroke="#bdc660"/>
    </defs>
    <g clip-path="url(#p7df09f9284)">
     <use y="280.512" fill="#bdc660" stroke="#bdc660" xlink:href="#m48266a9d06"/>
    </g>
   </g>
  </g>
 </g>
 <defs>
  <clipPath id="p7df09f9284">
   <rect x="7.2" y="7.2" width="281.01" height="266.11"/>
  </clipPath>
 </defs>
</svg>
