<?xml version="1.0" encoding="UTF-8"?>
<!DOCTYPE svg  PUBLIC '-//W3C//DTD SVG 1.1//EN'  'http://www.w3.org/Graphics/SVG/1.1/DTD/svg11.dtd'>
<svg width="204.71pt" height="280.51pt" version="1.1" viewBox="0 0 204.71 280.51" xmlns="http://www.w3.org/2000/svg" xmlns:xlink="http://www.w3.org/1999/xlink">
 <metadata>
  <rdf:RDF xmlns:cc="http://creativecommons.org/ns#" xmlns:dc="http://purl.org/dc/elements/1.1/" xmlns:rdf="http://www.w3.org/1999/02/22-rdf-syntax-ns#">
   <cc:Work>
    <dc:type rdf:resource="http://purl.org/dc/dcmitype/StillImage"/>
    <dc:date>2024-07-04T12:07:46.075518</dc:date>
    <dc:format>image/svg+xml</dc:format>
    <dc:creator>
     <cc:Agent>
      <dc:title>Matplotlib v3.7.1, https://matplotlib.org/</dc:title>
     </cc:Agent>
    </dc:creator>
   </cc:Work>
  </rdf:RDF>
 </metadata>
 <defs>
  <style type="text/css">*{stroke-linejoin: round; stroke-linecap: butt}</style>
 </defs>
 <g id="figure_1">
  <g id="patch_1">
   <path d="m0 280.51h204.71v-280.51h-204.71v280.51z" fill="none"/>
  </g>
  <g id="axes_1">
   <g id="PatchCollection_1">
    <defs>
     <path id="m090ec8bda8" d="m167.01-259.39 0.13241 0.027535 0.15002 0.57942-0.080695 0.43308-0.27297 0.85181-1.131 2.5137-1.2989 2.3186-2.0665 3.0898-4.2262 5.6111-3.9221 5.5256-3.6738 4.9729-1.3904 2.2601-1.1987 2.4786-1.0106 2.7052-1.6435 5.2044-0.67901 2.3778-0.58016 2.5432-2.2966 12.401-0.098651 1.0298 5.74e-4 1.0577 0.076657 0.81674 0.1538 0.83594 0.28722 1.0167 0.36048 0.90148 0.42389 0.77762 0.64205 0.88488 0.48612 0.53188 0.74451 0.63478 0.26749 0.18263 1.3976 0.68209 1.7336 0.49743 1.92 0.35087 13.689 1.9404 2.3987 0.4184 3.0323 0.69529 3.3444 0.9799 3.4498 1.2371 6.1106 2.5384 1.2004 0.60405 0.86126 0.52363 0.72547 0.52084 0.9627 0.85741 0.85212 1.0411 0.75694 1.3656 0.41729 1.0992 0.25923 0.92134 0.20595 0.96052 0.20382 1.3734 0.17597 2.6567-0.049924 3.3013-0.28523 3.6483-5.7752 5.6569-2.3335 2.0769-1.9407 1.4279-1.5241 0.93037-1.1738 0.60488-1.3032 0.55442-1.6156 0.52649-1.2925 0.25844-0.76225 0.056461-0.74799-0.015886-1.0578-0.13597-1.3506-0.35039-3.2276-1.2485-1.0513-0.31943-1.0987-0.1764-0.88434 0.012417-0.85915 0.14093-1.3537 0.47287-2.1181 1.1873-1.5537 0.74604-0.8527 0.29404-3.1449 0.6847-1.0081 0.42481-0.94344 0.57691-0.98198 0.83285-1.8783 2.2044-0.79526 0.80101-3.0019 2.6984-0.57084 0.72724-0.37083 0.79654-0.19118 0.93004 0.024087 1.0787 0.22755 1.1796 0.6017 1.7785 0.87199 1.8954 0.99103 1.8137 2.3763 3.8003 2.6467 3.8947 13.095 18.578 1.2709 1.8785-2.2434 3.0545-2.0704 2.5801-1.5873 1.7728-2.4027 2.3491-2.1777 1.8222-2.8535 2.093-3.4726 2.2993-6.0627 3.7826-1.6872 1.1715-1.4381 1.1217-2.5132 2.1842-4.3118 4.2648-1.7329 1.7797-1.6117 1.953-1.1869 1.8061-1.4536 2.7018-4.9789 10.164-1.416 3.1001-0.52051 1.3078-0.50812 1.4794-1.6143 6.3338-1.1082 3.4851-0.94551 2.5287-0.76561 1.8427-1.1669 2.5159-0.66055 1.2932-1.0903 1.9405-1.5082 2.3693-0.94184 1.3543-1.6584 2.1889-2.0434 2.3598-5.0937 5.3321-0.9324 1.0655-0.3383 0.43465-0.093282 0.20849-0.33501-0.60155-1.4845-1.8095-5.8012-6.5973-3.5907-3.9106-6.086-6.3208-1.8493-2.0947-1.0389-1.3964-0.71748-1.2964-0.27512-0.84801-0.06282-0.84892 0.22028-0.94495 0.37492-0.75892 0.41-0.62997 0.90168-1.158 4.5493-5.079 1.4469-1.8068 0.58938-0.84596 0.71592-1.1719 0.50636-0.9764 0.71393-1.6846 0.52594-1.8005 0.1576-0.72986 0.21531-1.4 0.18647-2.8128-0.035433-1.4071-0.32791-2.3761-0.67102-2.5502-0.48511-1.3947-0.60134-1.4908-0.95148-2.0709-1.5393-2.993-2.6923-5.0039-1.3061-2.5878-4.4621-9.8099-1.5369-3.2163-7.7439-15.319-3.1001-5.9371-1.8562-3.3426-1.6916-2.8169-4.8677-7.794-2.2521-3.8904-1.8518-3.5811-0.66005-1.4374-0.57452-1.4661-0.053218-0.43428-0.28365-0.37751-0.51808-1.0021-0.64262-1.4212-0.56956-1.4063-0.98566-2.8616-1.1078-4.0284-1.407-5.5122-2.5753-8.7895-0.73519-3.1903-1.1214-5.8649-0.33881-2.2209-0.2691-2.2492-0.4531-4.4569-0.39401-2.6049-0.42008-1.7925-0.65666-1.9608-0.48578-1.113-0.58297-1.1194-0.65717-1.0809-0.69701-1.0024-0.75632-0.96564-1.4917-1.6399-0.88928-0.85912-1.8144-1.5772-4.0311-3.1642-1.8446-1.5241-1.8253-1.7201-1.2788-1.4293-0.66188-0.85582-0.77793-1.1515-0.60892-1.0461-0.81101-1.6982-0.58726-1.6614-0.39593-1.7252-0.11654-0.88475-0.051546-2.243 0.22449-2.3161 0.43412-2.3786 0.59231-2.4303 0.70983-2.4682 0.79324-2.4847 1.7044-4.8604 2.0711-5.56 0.12638-0.54376 0.06216 0.055751 0.49996 0.10519 3.327 0.3874 5.4766 0.43438 7.1519 0.337 3.4233 0.052582 2.4695-0.023768 4.76-0.18778 5.0587-0.39244 3.6362-0.39569 6.6663-0.8725 1.9506-0.18945 1.9872-0.087942 2.3928 0.086413 2.3712 0.23424 2.2327 0.38138 2.0309 0.56756 1.2346 0.52645 1.5192 1.0074 0.60471 0.54951 0.78116 0.92238 0.72585 1.1801 0.65375 1.5907 0.28617 1.1923 0.10719 1.3058-0.067442 1.0588-0.14174 0.84847-0.32118 1.2068-0.60982 1.5748-0.78391 1.5757-1.2276 2.0826-2.9028 4.3789-1.5336 2.4182-1.2299 2.2369-0.79859 1.8124-0.38804 1.2784-0.12949 0.64057-0.12308 1.4592 0.20445 1.5998 0.45215 1.0828 0.1294 0.1974 0.53311 0.57587 0.62099 0.39925 0.75887 0.28326 1.342 0.21789 1.729 0.028316 3.8937-0.18156 1.6223-0.008584 1.5021 0.086848 2.3821 0.36898 5.2923 1.2545 3.0121 0.60278 2.2157 0.32291 1.8715 0.17499 2.3433 0.058399 1.4101-0.070471 1.5336-0.16377 1.5729-0.27308 1.5671-0.45683 1.5009-0.65064 1.5534-0.94582 0.97653-0.75112 1.3085-1.2415 1.2389-1.5439 1.3904-2.4321 2.9067-6.2494 1.5737-3.0462 0.96303-1.6739 0.80921-1.2863 1.5106-2.1466 2.1067-2.621 2.0887-2.1849 2.439-2.1687 1.6728-1.3276 1.7138-1.2595 2.1394-1.4563 5.1927-3.258 1.5791-1.0557 2.2978-1.7172 2.1516-1.8192 0.7711-0.78469 0.5474-0.70996 0.40026-0.68342 0.32392-0.71676 0.8283-2.2705 0.47852-0.93565 0.73861-0.93566 0.48664-0.43915 0.48228-0.34634 0.69747-0.38155 0.6287-0.25019 0.78191-0.21293 1.4624-0.16998 0.95022 0.007114 2.0976 0.22247 1.7386 0.32926 2.1686 0.50919 2.6678 0.75997" stroke="#bdc660"/>
    </defs>
    <g clip-path="url(#p539a62e084)">
     <use y="280.512" fill="#bdc660" stroke="#bdc660" xlink:href="#m090ec8bda8"/>
    </g>
   </g>
  </g>
 </g>
 <defs>
  <clipPath id="p539a62e084">
   <rect x="7.2" y="7.2" width="190.31" height="266.11"/>
  </clipPath>
 </defs>
</svg>
