<?xml version="1.0" encoding="UTF-8"?>
<!DOCTYPE svg  PUBLIC '-//W3C//DTD SVG 1.1//EN'  'http://www.w3.org/Graphics/SVG/1.1/DTD/svg11.dtd'>
<svg width="225.98pt" height="280.51pt" version="1.1" viewBox="0 0 225.98 280.51" xmlns="http://www.w3.org/2000/svg" xmlns:xlink="http://www.w3.org/1999/xlink">
 <metadata>
  <rdf:RDF xmlns:cc="http://creativecommons.org/ns#" xmlns:dc="http://purl.org/dc/elements/1.1/" xmlns:rdf="http://www.w3.org/1999/02/22-rdf-syntax-ns#">
   <cc:Work>
    <dc:type rdf:resource="http://purl.org/dc/dcmitype/StillImage"/>
    <dc:date>2024-07-04T12:08:01.959388</dc:date>
    <dc:format>image/svg+xml</dc:format>
    <dc:creator>
     <cc:Agent>
      <dc:title>Matplotlib v3.7.1, https://matplotlib.org/</dc:title>
     </cc:Agent>
    </dc:creator>
   </cc:Work>
  </rdf:RDF>
 </metadata>
 <defs>
  <style type="text/css">*{stroke-linejoin: round; stroke-linecap: butt}</style>
 </defs>
 <g id="figure_1">
  <g id="patch_1">
   <path d="m-0 280.51h225.98v-280.51h-225.98v280.51z" fill="none"/>
  </g>
  <g id="axes_1">
   <g id="PatchCollection_1">
    <defs>
     <path id="m1a29ee7dfd" d="m164.3-260.13 0.1152 0.79333 0.54308 1.8725 0.81091 2.4996 2.3135 6.4749 0.58181 1.7781 0.41401 1.4673 0.5231 2.1832 0.52248 2.6167 0.44053 2.5622 1.805 12.027 0.37174 2.9266 0.17029 2.7709-0.049587 1.6507-0.2174 1.5637-0.33515 1.2095-1.0812 2.1419-1.0473 1.4056-1.1454 1.2648-3.8817 3.7108-0.98619 1.0946-0.59973 0.86674-0.38855 0.89297-0.11933 0.62547-0.014713 0.49215 0.057659 0.57079 0.20187 0.82436 0.27132 0.71098 0.42568 0.83995 0.6132 0.94878 0.49777 0.64288 1.1827 1.2526 2.9397 2.5253 1.2843 1.2147 1.6621 1.7003 1.5148 1.6713 8.4308 9.9741 3.0531 3.351 4.4274 4.5661 1.4738 1.6356 0.90708 1.2088 0.71278 1.2318 0.39991 1.0068 0.22077 1.0314 0.034594 0.54318-0.22242 1.7318-0.62861 1.7604-0.92678 1.7724-0.4824 0.78499-0.9374 1.373-0.68732 0.89861-1.016 1.1959-1.0725 1.1518-2.3387 2.248-3.7773 3.3119-1.4401 1.4157-1.5035 1.6757-1.2496 1.6998-0.44331 0.74379-0.3544 0.71702-0.26614 0.71514-0.17546 0.70404-0.076964 0.56627-0.01074 0.63783 0.13203 0.9433 0.2769 0.96923 1.2931 3.6999 1.936 6.3211 0.87562 2.3943 1.1008 2.4854 1.3272 2.4723 0.98783 1.5912 1.1303 1.6274 1.207 1.5779 2.2688 2.6715 1.4914 1.6219 4.9225 5.077 4.172 4.6447 3.8587 4.0434 2.3221 2.5763 1.2199 1.6367 0.87898 1.3685 0.77236 1.3853 0.54794 1.1964 0.30756 0.88311 0.38336 2.2863-0.029189 1.13-0.089039 0.76693-0.23489 1.1767-0.35328 1.1855-0.68076 1.6317-0.53541 0.99049-0.8481 1.2428-1.4384 1.5261-1.5208 1.1728-1.322 0.73186-0.76976 0.13957-0.011497-0.93237-0.29415-0.44691-0.29668-0.29762-0.4519-0.32756-1.2187-0.51588-0.84975-0.19065-0.94258-0.11041-1.2514-0.023525-1.3359 0.093164-1.1672 0.15871-1.4047 0.27314-1.4202 0.37739-2.7326 1.0402-2.7155 1.3484-8.1994 4.6643-2.1362 1.1078-6.6818 3.2757-1.698 0.88867-2.0548 1.1739-2.8912 1.8342-1.845 1.2645-1.7888 1.3041-2.5071 2.0228-2.3745 2.1487-1.9363 1.8816-1.8841 1.926-1.826 1.9506-5.6874 6.3327-2.8635 3.0436-5.0767 5.0868-1.6838 1.6256-1.7105 1.3657-1.8444 1.1991-1.6865 0.93675-2.7583 1.3695-5.4697 2.5025-2.063 0.83924-1.3039 0.45718-1.2866 0.36604-1.4178 0.28989-5.1048 0.75862-5.9969 0.57437-1.6847 0.26227-5.2392 1.0016-1.8118 0.39456-1.3278 0.41096-2.8148 1.0378-1.4483 0.39002-1.1167 0.089657-0.61087-0.10532-0.4898-0.22458-0.38684-0.32187-0.44384-0.77425-0.19177-0.99288-0.13108-2.3464-0.10016-0.90804-0.3399-1.5644-0.52439-1.6269-1.1079-2.8476-3.7265-8.9481-1.2288-2.5457-2.0705-3.5128-0.434-0.84397-0.39944-0.95267-0.48701-1.4847-0.57814-2.4266-0.31328-1.748-0.57159-4.0812-0.32438-3.1912-0.22578-4.7472-0.23513-1.9391-0.347-1.9232-0.4151-1.4004-1.1307-2.7172-0.49923-1.3519-0.3447-1.3763-0.13498-1.1418-0.10244-2.1613-0.17214-1.1935-0.54532-2.1144-0.17481-0.99687 0.040516-0.94552 0.3911-1.3925 0.49402-1.131 1.0037-1.5772 1.3535-1.4736 0.72334-0.6063 0.90437-0.663 4.9751-3.2044 1.8-1.26 1.313-1.0371 0.44685-0.42776 0.47287-0.59231 0.36113-0.76436 0.12808-1.2029-0.1852-1.009-0.64703-1.4204-0.82902-1.058-1.0666-0.86741-1.5561-0.72192-1.263-0.35629-1.3764-0.17798-1.4681 0.051318-1.2701 0.18637-1.3251 0.29049-2.216 0.63346-1.534 0.5098-7.3265 2.5989-3.0219 0.88653-2.1372 0.46012-1.5327 0.2198-1.7696 0.12002-2.415-0.11484-2.1589-0.49442-1.7712-0.93803-0.47172-0.42003-0.38188-0.44252-0.64025-1.0726-0.47122-1.2453-0.46942-1.9424-0.85665-4.8086-0.44808-2.0365-0.44323-1.5925-0.76034-2.1055-0.89854-1.9279-1.2347-2.1572-1.6777-2.4366-1.3469-1.7184-1.3701-1.6029-1.8878-2.0159-1.1912-1.1373-1.0212-0.8335-0.7731-0.5347-0.79966-0.4487-0.52044-0.20776-0.41504-0.057395-0.11537 0.035758-0.092384 0.1005-0.30839-0.95944-0.67953-1.5895-0.51047-1.0728-1.1988-2.202-1.0651-1.645-2.4099-3.3317-0.71232-1.078-1.1848-2.0585-0.77071-1.6622-0.5438-1.5471-0.20188-0.89474-0.088622-0.83092 0.006005-0.82109 0.18-1.2424 0.27017-0.9714 0.4196-1.0351 0.75407-1.5704 0.28149-0.77241 0.26552-1.131 0.1335-0.97586 0.062133-0.94651-0.014691-1.4405-0.45923-4.6997-0.095797-1.7413 0.075204-1.7596 0.10454-0.82171 0.31088-1.3505 1.1786-3.1346 1.7344-5.2722 0.4846-1.329 0.456-1.0607 0.43134-0.84574 0.99231-1.5716 1.0938-1.3961 1.26-1.3777 0.99476-0.90598 0.13205-0.093696 0.50092-1.0351 1.8577-4.6614 0.69124-1.4706 0.81269-1.4062 0.76046-1.0345 0.78196-0.81973 0.83186-0.67194 1.2078-0.7325 1.0565-0.47606 1.1387-0.39021 1.3795-0.34548 1.5586-0.26924 2.5591-0.22429 2.2581-0.06021 7.3965-0.098949 4.4417 0.055453 1.0469-0.11111 1.1713-0.3043 0.87212-0.40934 0.38414-0.25908 0.70698-0.66943 0.62225-0.84937 0.56284-1.0127 2.056-4.8733 0.95054-1.9898 0.93858-1.7487 1.1321-1.7758 0.49327-0.64018 1.1714-1.264 1.3169-1.1672 1.4284-1.0998 1.5132-1.0569 6.5113-4.1811 5.3609-3.6938 5.0343-3.3801 1.1821-0.85965 0.39796-0.11288 1.6152-0.75694 3.4218-1.8724 1.5237-0.92264 1.496-0.99626 4.5616-3.4001 1.346-0.80622 4.6156-2.4543 1.8344-1.1349 1.7097-1.1592 2.1484-1.6132 1.6991-1.3997 4.858-4.429 1.7683-1.5241 4.2291-3.3945 0.7569-0.53911 0.88903-0.47906 0.7975-0.20255 0.9227 0.11182 0.9587 0.37802 2.1909 1.0167 1.3142 0.40688 1.4536 0.30395 1.5642 0.22097 1.6528 0.15409 3.5099 0.15419 1.8356 0.015526 3.7925-0.075012 3.8925-0.22429 1.9449-0.17897 2.5828-0.32118 5.4624-0.88002" stroke="#bdc660"/>
    </defs>
    <g clip-path="url(#p15d9b0d8ef)">
     <use y="280.512" fill="#bdc660" stroke="#bdc660" xlink:href="#m1a29ee7dfd"/>
    </g>
   </g>
  </g>
 </g>
 <defs>
  <clipPath id="p15d9b0d8ef">
   <rect x="7.2" y="7.2" width="211.58" height="266.11"/>
  </clipPath>
 </defs>
</svg>
