<?xml version="1.0" encoding="UTF-8"?>
<!DOCTYPE svg  PUBLIC '-//W3C//DTD SVG 1.1//EN'  'http://www.w3.org/Graphics/SVG/1.1/DTD/svg11.dtd'>
<svg width="193.94pt" height="280.51pt" version="1.1" viewBox="0 0 193.94 280.51" xmlns="http://www.w3.org/2000/svg" xmlns:xlink="http://www.w3.org/1999/xlink">
 <metadata>
  <rdf:RDF xmlns:cc="http://creativecommons.org/ns#" xmlns:dc="http://purl.org/dc/elements/1.1/" xmlns:rdf="http://www.w3.org/1999/02/22-rdf-syntax-ns#">
   <cc:Work>
    <dc:type rdf:resource="http://purl.org/dc/dcmitype/StillImage"/>
    <dc:date>2024-07-04T12:08:08.457668</dc:date>
    <dc:format>image/svg+xml</dc:format>
    <dc:creator>
     <cc:Agent>
      <dc:title>Matplotlib v3.7.1, https://matplotlib.org/</dc:title>
     </cc:Agent>
    </dc:creator>
   </cc:Work>
  </rdf:RDF>
 </metadata>
 <defs>
  <style type="text/css">*{stroke-linejoin: round; stroke-linecap: butt}</style>
 </defs>
 <g id="figure_1">
  <g id="patch_1">
   <path d="m0 280.51h193.94v-280.51h-193.94v280.51z" fill="none"/>
  </g>
  <g id="axes_1">
   <g id="PatchCollection_1">
    <defs>
     <path id="m02af280d58" d="m139.91-221.15 0.54488 0.30674 1.4502 0.94731 0.86926 0.63342 0.72098 0.60657 0.55321 0.57179 0.33829 0.4283 0.42943 0.67072 0.38107 0.82982 0.18005 0.64536 0.1216 0.77321 0.11827 2.1413 0.007046 0.79052-0.082846 0.7396-0.1322 0.60212-0.57131 1.8526-0.089504 0.53176-0.016486 0.7383 0.092197 0.59702 0.17708 0.53787 0.15932 0.33638 0.31046 0.51317 0.39605 0.5409 1.6613 2.0098 1.1232 1.2401 0.80615 0.74892 1.0026 0.78847 1.7792 1.1939 1.3705 0.8069 1.2876 0.68818 4.4551 2.2362 2.7528 1.5789 1.3669 0.8516 0.73522 0.52188 0.7883 0.66906 0.43204 0.45605 0.5883 0.82145 0.32838 0.60856 0.30714 0.71325 0.28888 0.85127 1.1314 4.3907 0.36254 1.0345 0.53162 1.1585 0.52489 0.88852 1.1189 1.5633 3.4438 4.2099 1.9212 2.2007 1.3362 1.4711 0.77841 0.79096 0.39762 0.31593 0.09289 0.20863-0.063266 0.40156-0.26671 0.64392-0.40542 0.70966-0.51394 0.74771-0.64445 0.80879-0.584 0.64562-0.57378 0.56897-1.1519 0.98084-0.67209 0.49825-2.0397 1.3352-1.8459 1.0867-3.898 2.1734-1.3261 0.77371-1.624 1.0169-2.143 1.5062-1.9497 1.6068-1.3721 1.4212-1.1233 1.543-0.75199 1.3101-0.64465 1.3673-0.39678 0.99163-0.61854 1.8014-0.52313 1.8541-0.55141 2.5306-0.30692 1.9407-0.55168 4.5385-0.25119 1.8829-0.20001 1.1833-0.26681 1.2481-0.99819 3.7494-0.43834 1.8769-0.30003 1.7513-0.28346 2.5377-0.12035 1.4381-0.050443 1.251 0.008026 1.3984 0.060245 1.359 0.11739 1.5185 0.3931 3.4541 0.1081 1.2346 0.094809 2.1744 0.009848 1.337-0.052725 2.1238-0.16505 1.7768-0.49245 3.6547-0.11204 1.306-0.02741 0.90027 0.026146 0.83447 0.099949 0.94263 0.20318 1.081 0.2588 0.92852 0.38162 1.0445 0.56182 1.3109 1.8979 4.2602 0.46851 1.2363 0.33814 1.0704 0.29235 1.133 0.23478 1.3652 0.062377 0.98574-0.05429 0.97705-0.33921 1.4752-0.59876 1.4544-0.79712 1.439-0.94674 1.4283-1.1135 1.4942-1.1987 1.4932-4.8205 5.7694-1.5177 1.9443-1.3475 1.8579-1.6789 2.5508-0.97419 1.6563-0.51999 0.96982-0.72483 1.4911-0.55259 1.2717-0.46939 1.2006-0.58177 1.6977-0.61196 2.1711-0.32709 1.4431-0.31449 1.7972-0.22225 1.9971-0.085113 2.0244 0.048767 2.0616 0.20969 3.7484 0.081396 2.1428 0.12299 1.0067 0.12441 0.43036-0.88575 0.70518-1.8961 1.1886-0.51571 0.35889-0.67133 0.55769-0.54738 0.54488-0.74685 0.8934-0.8269 1.2317-0.74396 1.278-0.55116 1.1626-0.13984 0.34676-0.15164 0.20952-0.38087 0.43651-0.76109 0.71083-0.56767 0.44127-0.59603 0.39444-0.62513 0.34007-0.88012 0.34734-0.77953 0.17348-0.40534 0.03667-0.62253-0.018561-1.3375-0.31169-1.0401-0.45623-1.0946-0.64506-0.82669-0.58168-1.5164-1.2408-1.967-1.8595-3.132-3.1894-1.9937-1.954-1.7743-1.6464-1.1487-0.99876-1.156-0.92248-1.1704-0.81617-1.193-0.67214-1.2254-0.48061-1.1215-0.22736-1.1372-0.030132-1.3302 0.2061-1.1432 0.33081-1.0789 0.39444-3.2257 1.3087-1.8984 0.65845-0.77273 0.20916-0.76391 0.15908-0.93206 0.11168-0.90765-0.004854-1.326-0.24662-0.98864-0.31549-1.2566-0.45525-1.2731-0.4007-1.312-0.21625-1.3286 0.071104-1.3665 0.33053-0.99638 0.3767-0.99894 0.47816-1.4396 0.84454-1.4359 0.97993-1.4337 1.0668-4.2327 3.2444-1.3318 0.90356-1.2346 0.68483-0.65506 0.25904-0.5903 0.12647-0.50784-0.017302-0.40801-0.13827-0.10917-0.067983-0.1581-0.14775-0.12682-0.35105-1.9103-0.79827-1.2939-0.60022-1.6987-0.90253-0.65608-0.39809-0.92877-0.63391-0.64407-0.50496-0.70041-0.62887-0.71473-0.7356-0.63985-0.7817-0.53887-0.80626-2.2147-4.0912-0.83842-1.3651-0.9061-1.3261-0.98634-1.2812-1.0465-1.1829-0.91831-0.8894-1.1181-0.88887-0.93402-0.57303-0.96244-0.45441-0.69906-0.24949-0.79231-0.20226-0.58272-0.092957-0.95462-0.039063-1.1928 0.1637-1.6869 0.43733-1.0508 0.22813-0.91259 0.065706-0.90243-0.1438-0.48688-0.18312-0.44564-0.24781-0.36646-0.27778-0.32646-0.32867-0.23183-0.30758-0.17231-0.3023-0.14023-0.35385-0.11153-0.59965 0.018164-0.73086 0.12357-0.67354 0.3178-1.0187 0.4234-1.0038 0.51085-1.0015 1.4982-2.5413 1.2444-1.9003 1.0955-1.465 1.9545-2.4009 3.2544-3.8393 0.86365-1.1439 1.1917-1.801 0.79368-1.3237 0.64792-1.2246 0.33807-0.75834 0.38932-1.0864 0.29117-1.2401 0.10672-0.93581 0.033659-0.77798-0.018527-2.5019 0.028901-1.1484 0.19619-1.4678 0.21526-0.75901 0.19973-0.54117 0.44547-0.99328 1.064-2.1477 0.23805-0.61319 0.16581-0.56206 0.089822-0.44164 0.060234-0.65767-0.15433-1.3696-0.40954-1.3086-0.6068-1.3447-0.89764-1.6027-1.042-1.6327-0.72428-1.0663-1.7465-2.4459-2.0597-2.7545-7.0954-9.2421-1.4014-1.9205-1.165-1.7412-1.0286-1.7639-0.52018-0.98889-2.55-5.3241-0.65269-1.2671-0.45785-0.79288-0.77774-1.0886-0.89164-0.95414-0.72262-0.61174-0.64838-0.48291-1.0096-0.64477-2.4083-1.2829-1.0532-0.72979-0.50692-0.45581-0.65486-0.76074-0.35682-0.57829-0.21486-0.49275-0.15486-0.52363-0.085669-0.47434-0.049252-0.63358 0.014906-0.80768 0.077816-0.89647 0.34382-2.8128 0.40957-2.8969 0.35445-1.7324 0.65158-2.2093 0.704-1.7955 1.4377-3.1403 0.55344-1.5977 0.41924-1.6631 0.31694-1.6671 0.1753-1.3073 0.016971-1.3196-0.13721-0.98285-0.19813-0.81223-0.27143-0.83529-0.3496-0.87341-0.374-0.80048-1.0151-1.8416-1.0684-1.6539-1.1962-1.5705-1.2153-1.3368-0.68654-0.66184-0.4024-0.34775-0.22674-0.13885 0.1869-0.18502 0.51253-0.04973 0.77468 0.084897 1.2839 0.2268 1.1573 0.15077 1.338-0.01797 0.63491-0.11968 0.65666-0.20672 1.2739-0.60965 1.2279-0.84005 1.1234-1.0292 0.44568-0.50752 0.53474-0.73793 0.46328-0.80143 0.63022-1.476 0.48329-1.5586 0.98524-3.9245 0.47363-1.4003 0.32256-0.76988 0.46272-0.93024 0.6107-0.96897 0.74131-0.91998 0.59205-0.63855 0.52681-0.50016 0.50638-0.4098 0.59574-0.38548 0.71429-0.33237 0.75579-0.25556 3.8931-1.0999 3.0472-0.66081 0.60156-0.15904 1.248-0.45457 1.5599-0.75912 2.6194-1.4648 1.626-0.86015 1.0872-0.64221 1.0762-0.87033 0.24377-0.23911 1.3498-1.4608 1.0644-1.2419 3.2276-4.3068 0.79503-1.1722 0.74367-1.2448 1.0559-1.9969 0.74058-1.5191 0.66132-1.5016 0.50357-1.3892 0.25998-1.0092 0.14092-0.98736 0.016737-0.76067-0.07905-1.1071-0.24273-1.8141-0.056045-0.68404-0.15552-2.7146-0.048632-2.4143 0.046291-1.1101 0.050693-0.44357 0.29761-1.5167 0.35748-1.3045 0.50082-1.6141 0.63184-1.6529 0.93582-2.055 1.5064-3.0642 1.5194-2.9447 0.5893-1.4816 0.1771-0.59256 0.15254-0.75987 0.031736-0.28069 0.003769-1.0413-0.12942-0.99476-0.14184-0.66409-0.54167-1.8254-1.2213-3.6999-0.31264-1.2578-0.22032-1.6109 0.051358-1.7203 0.13472-0.8562 0.18811-0.77562 0.28011-0.80104 0.29548-0.54546 0.30307-0.2199 0.20243-0.32658 0.56925-0.56026 0.51937-0.42003 0.60405-0.4209 4.7238-2.6683 1.2423-0.65287 1.2116-0.4879 0.49238-0.13357 1.0039-0.1423 0.9513 0.094003 0.49531 0.17347 0.67098 0.37709 0.64572 0.49721 0.73462 0.68093 1.8064 1.7864 0.99961 0.8655 1.1628 0.86553 0.81516 0.52039 1.2523 0.65591 0.92814 0.3673 0.93268 0.26954 0.98558 0.18583 1.5402 0.16878 2.3992 0.14433 1.5146 0.21192 1.1994 0.30697 2.748 1.077 1.3719 0.35638 0.51588 0.099109 1.1755 0.19138 1.2232 0.14996 1.2528 0.093915 1.5604 0.001133 1.2443-0.13058 1.8273-0.35545 1.3749-0.368 1.7625-0.55592 3.0712-1.047 1.5881-0.47422 1.3678-0.28814 0.67951-0.079465 0.93865-0.017637 1.1962 0.15627 2.2917 0.5949 3.9666 0.88667 1.7536 0.53389 1.474 0.60023 1.1355 0.5976 0.72198 0.4388 1.2567 0.95214 1.1761 1.1364 1.0586 1.283 0.8921 1.4031 0.465 0.97744 0.34473 1.0174 0.26291 1.5148 0.056794 1.0921-0.048574 1.43-0.15688 1.3224-0.79683 4.3111-0.34076 2.1756-0.15576 1.3621-0.059698 0.90104-0.035497 1.8037 0.079896 1.5066 0.14438 1.558 0.22856 1.4226 0.26071 0.92568 0.35441 0.72674 0.45017 0.48481 0.46731 0.19929 0.10024 8.82e-4 0.22217-0.074185" stroke="#bdc660"/>
    </defs>
    <g clip-path="url(#p7a4470afb2)">
     <use y="280.512" fill="#bdc660" stroke="#bdc660" xlink:href="#m02af280d58"/>
    </g>
   </g>
  </g>
 </g>
 <defs>
  <clipPath id="p7a4470afb2">
   <rect x="7.2" y="7.2" width="179.54" height="266.11"/>
  </clipPath>
 </defs>
</svg>
