<?xml version="1.0" encoding="UTF-8"?>
<!DOCTYPE svg  PUBLIC '-//W3C//DTD SVG 1.1//EN'  'http://www.w3.org/Graphics/SVG/1.1/DTD/svg11.dtd'>
<svg width="365.94pt" height="280.51pt" version="1.1" viewBox="0 0 365.94 280.51" xmlns="http://www.w3.org/2000/svg" xmlns:xlink="http://www.w3.org/1999/xlink">
 <metadata>
  <rdf:RDF xmlns:cc="http://creativecommons.org/ns#" xmlns:dc="http://purl.org/dc/elements/1.1/" xmlns:rdf="http://www.w3.org/1999/02/22-rdf-syntax-ns#">
   <cc:Work>
    <dc:type rdf:resource="http://purl.org/dc/dcmitype/StillImage"/>
    <dc:date>2024-07-04T12:07:49.297161</dc:date>
    <dc:format>image/svg+xml</dc:format>
    <dc:creator>
     <cc:Agent>
      <dc:title>Matplotlib v3.7.1, https://matplotlib.org/</dc:title>
     </cc:Agent>
    </dc:creator>
   </cc:Work>
  </rdf:RDF>
 </metadata>
 <defs>
  <style type="text/css">*{stroke-linejoin: round; stroke-linecap: butt}</style>
 </defs>
 <g id="figure_1">
  <g id="patch_1">
   <path d="m0 280.51h365.94v-280.51h-365.94v280.51z" fill="none"/>
  </g>
  <g id="axes_1">
   <g id="PatchCollection_1">
    <defs>
     <path id="m7c825766f3" d="m287.04-242.49 0.024404-0.1167 0.6913-0.11676 1.4703 0.12647 1.4447 0.29175 4.2366 1.2625 3.8379 1.4136 4.0778 1.6747 4.1812 1.8584 4.1894 1.9895 4.1285 2.089 4.0127 2.1745 3.9057 2.2955 3.6824 2.3938 3.3972 2.5139 3.0343 2.6679 2.572 2.8684 1.7523 2.5999 1.4411 2.7007 1.2198 2.724 0.70567 1.7647 0.7199 2.0904 0.27963 0.96998 0.49418 2.2776 0.22011 2.1841-0.095249 2.05-0.42834 1.9108-1.6273 4.7626-0.28756 1.2045-0.28774 2.3963-0.007254 2.5686 0.21766 2.6821 0.5282 3.4953 1.4412 7.2291 0.3772 2.8268 0.084121 1.6322-0.033619 1.3122-0.073556 0.80945-0.43582 2.1885-0.75673 1.9797-0.90794 1.6585-1.2589 1.8066-2.6946 3.3803-0.60856 0.97261-0.50723 1.1141-0.43229 1.6989-0.59166 4.845-0.52749 3.26-0.37081 1.5626-0.81877 2.8698-0.98015 2.9964-2.457 6.6782-5.8588 15.096-1.7091 3.903-1.666 3.3408-3.5331 6.3408-5.6201 9.6068-5.3653 9.4357-6.3624 10.635-3.4917 5.408-3.1387 4.4354-3.0728 3.8661-1.7153 1.9498-3.4952 3.5599-1.5103 1.3792-1.7677 1.5025-3.6828 2.8084-3.8826 2.5644-2.0134 1.1869-3.3216 1.7576-2.1568 1.0089-2.1823 0.91712-3.8439 1.3608-1.7407 0.51287-3.782 1.0139-19.778 4.9115-13.252 3.6649-2.2654 0.81797-1.4917 0.86526-0.44344 0.7522-5.4935-0.86156-2.5953-0.31516-2.4088-0.10457-1.0858 0.07844-0.72049 0.13255-0.65919 0.2168-0.70884 0.38788-0.64298 0.49045-2.8139 2.5275-0.77777 0.61258-0.8441 0.4701-0.85086 0.24861-0.92014 0.11006-0.96771 0.013973-4.3529-0.33227-1.0895-0.19927-2.1973-0.64649-3.1753-1.3202-1.4017-0.77698-2.0062-1.4228-1.2962-0.80654-1.7439-0.86786-3.1806-1.3606-2.9259-1.115-3.0125-1.0084-7.9254-2.3382 0.3648-0.82671 0.63669-2.0573 0.70338-2.7891 0.61611-3.1902 0.40816-3.3721 0.092275-3.4075-0.33389-3.3418-0.8164-3.1686-1.1839-3.0464-1.3973-2.946-2.8918-5.6862-1.2435-2.7867-0.93768-2.7788-0.48723-2.7929 0.061585-2.7913 0.47269-2.8081 0.71946-2.8065 1.6133-5.527 0.62465-2.6704 0.31202-2.5636-0.1689-2.4104-0.74812-2.1408-1.2301-1.9322-1.5891-1.697-1.5206-1.1967-1.6541-0.96843-1.6652-0.67225-1.7071-0.39005-1.7819-0.058138-1.187 0.18336-1.9218 0.61762-4.7733 2.3094-1.9918 0.75103-2.2823 0.49794-2.3818 0.25089-4.8314 0.25121-3.746 0.28549-5.0607 0.17387-3.7953 0.36338-6.8335 0.82798-3.2141 0.22784-4.1644 0.086601-2.9075-0.17094-2.4661-0.39505-1.2556-0.30945-1.7295-0.60077-0.74052-0.41428-0.21789-0.25772-0.005104-0.12089-1.2748-0.50187-1.4748-0.7117-2.7125-1.4263-2.906-1.7057-2.4362-1.6094-3.0676-2.2916-1.972-1.6513-1.8894-1.7324-1.7107-1.7131-3.0925-3.4588-1.9679-2.4908-1.7623-2.5236-1.5184-2.5539-1.2245-2.5876-0.86614-2.6297-0.39327-2.1865-0.12194-1.6975 0.039247-2.7306 0.8397-9.5832 0.12227-2.1155 0.013302-2.3027-0.20443-2.7071-0.34004-2.2234-0.54754-2.4583-0.6783-2.168-0.59641-1.5331-0.73953-1.6352-1.1492-2.1261-1.4834-2.3534-1.2873-1.8075-1.4674-1.8619-5.3275-6.1989-2.9337-3.7428-2.7702-3.9528-1.9149-2.8863-1.6173-2.7263-1.3887-2.6855-1.1744-2.8053-0.77652-2.518-0.65543-2.8562-1.4902-7.4398-1.3413-5.8242-5.1064-19.005-0.79832-2.2629-0.86525-1.8563-0.46238-0.78067-0.76989-0.97376-0.60426-0.258 0.32318-0.079128 0.79188-0.009749 6.6355 0.27715 1.7701-0.034104 2.155-0.15303 2.7763-0.326 2.3496-0.36898 11.513-2.3258 2.8936-0.48275 2.9104-0.38188 4.6613-0.32201 3.1137-0.028573 3.1024 0.098003 3.0837 0.21489 3.0581 0.33092 3.0252 0.45457 2.9842 0.59418 2.3678 0.58588 8.7025 2.4473 2.2899 0.56596 3.4646 0.67602 3.009 0.38724 10.56 0.91982 2.8668 0.38011 7.301 1.2657 2.9193 0.42008 2.9072 0.32469 2.5228 0.17951 2.4848 0.043072 2.4298-0.14073 1.6398-0.2322 1.8825-0.41839 2.3494-0.7211 2.34-0.89951 2.1453-0.96752 2.0833-1.0753 1.648-0.9979 1.4435-1.0562 1.3861-1.2243 1.3664-1.3701 1.6211-1.8039 2.4583-3.0923 1.9985-2.7972 1.1397-1.7929 0.82494-1.4569 1.0338-2.0836 1.6949-3.7268 0.50236-0.96898 0.32388-0.43679 0.62604 0.16653 1.4445 0.81656 4.6712 3.0515 3.708 2.7384 6.0228 4.6832 2.7211 1.9347 1.6986 1.0935 1.4693 0.85552 1.8447 0.89488 1.6622 0.55586 1.6335 0.25897 2.2635-0.15687 10.963-2.8362 5.4114-1.2762 3.2068-1.0141 6.8793-2.3268 9.5891-2.6527 15.812-5.2281 1.9644-0.5324 1.7008-0.29764 1.4576-0.072446 1.9815 0.23567 2.5704 0.79456 2.9138 1.44 2.4178 1.5493 2.3965 1.7764 2.3694 1.9387 7.7032 6.8434 2.2773 1.7033 2.0535 1.1881 1.1912 0.51595 1.8574 0.54839 2.3122 0.22129 1.7412-0.092419 1.4605-0.19175 0.56089-0.13348 0.45458-0.27154" stroke="#bdc660"/>
    </defs>
    <g clip-path="url(#pe3e7bac0bf)">
     <use y="280.512" fill="#bdc660" stroke="#bdc660" xlink:href="#m7c825766f3"/>
    </g>
   </g>
  </g>
 </g>
 <defs>
  <clipPath id="pe3e7bac0bf">
   <rect x="7.2" y="7.2" width="351.54" height="266.11"/>
  </clipPath>
 </defs>
</svg>
