<?xml version="1.0" encoding="UTF-8"?>
<!DOCTYPE svg  PUBLIC '-//W3C//DTD SVG 1.1//EN'  'http://www.w3.org/Graphics/SVG/1.1/DTD/svg11.dtd'>
<svg width="290.49pt" height="280.51pt" version="1.1" viewBox="0 0 290.49 280.51" xmlns="http://www.w3.org/2000/svg" xmlns:xlink="http://www.w3.org/1999/xlink">
 <metadata>
  <rdf:RDF xmlns:cc="http://creativecommons.org/ns#" xmlns:dc="http://purl.org/dc/elements/1.1/" xmlns:rdf="http://www.w3.org/1999/02/22-rdf-syntax-ns#">
   <cc:Work>
    <dc:type rdf:resource="http://purl.org/dc/dcmitype/StillImage"/>
    <dc:date>2024-07-04T12:08:08.201751</dc:date>
    <dc:format>image/svg+xml</dc:format>
    <dc:creator>
     <cc:Agent>
      <dc:title>Matplotlib v3.7.1, https://matplotlib.org/</dc:title>
     </cc:Agent>
    </dc:creator>
   </cc:Work>
  </rdf:RDF>
 </metadata>
 <defs>
  <style type="text/css">*{stroke-linejoin: round; stroke-linecap: butt}</style>
 </defs>
 <g id="figure_1">
  <g id="patch_1">
   <path d="m0 280.51h290.49v-280.51h-290.49v280.51z" fill="none"/>
  </g>
  <g id="axes_1">
   <g id="PatchCollection_1">
    <defs>
     <path id="meff3327efe" d="m270.74-178.04-0.27947 0.31882-0.38225 0.99821-0.53284 1.9691-1.8784 8.449-1.668 6.4036-0.4325 1.9398-0.39226 2.223-0.23128 2.0865-0.031471 1.8985 0.13445 1.4201 0.17682 1.2646 0.090338 1.1224-0.12632 0.98643-0.60584 1.0067-0.51347 0.40327-1.1291 0.51827-1.3998 0.34831-3.2788 0.4359-1.396 0.28618-1.4128 0.55106-1.2443 0.85499-0.93278 0.87184-0.90291 1.0004-0.88078 1.0899-2.061 2.8291-1.3201 1.9827-0.87307 1.4289-0.72081 1.3018-0.6994 1.4984-0.31787 0.8461-0.495 1.6161-0.3464 1.6077-0.16587 1.562 0.055417 1.477 0.37522 1.6478 0.50487 1.5528 0.36992 1.5449 0.047866 1.1202-0.11931 0.91728-0.15063 0.55328-0.68684 1.4014-1.0077 1.294-1.2136 1.1763-1.3188 1.0411-2.0981 1.4943-0.62824 0.51099-0.8162 0.80017-0.69542 0.89917-0.30147 0.50349-0.42862 0.86424-1.1162 2.5516-0.91414 1.6518-1.4369 2.0784-1.0953 1.3228-1.4048 1.5194-1.1444 1.1552-1.2 1.1269-1.2493 1.0771-2.6809 2.1658-1.4166 1.2906-2.0402 2.0475-1.7419 1.8871-4.3439 4.9823-4.2128 4.5118-1.5128 1.847-1.2297 2.0209-0.46449 1.1022-0.38565 1.2615-0.33922 1.7759-0.17328 1.938-0.023845 2.3872 0.33416 6.8358-0.029921 1.7907-0.15083 1.3133-0.19395 0.81465-0.33456 0.76625-0.48107 0.33356-0.12602 0.003943-6.3285 2.2837-5.1321 2.0408-3.6039 1.582-2.7088 1.2855-2.0407 1.0771-1.3877 0.80983-1.3487 0.85475-2.1404 1.5016-2.2348 1.7489-2.5163 2.1329-5.1575 4.54-2.7097 2.256-1.2934 1.0127-1.3047 0.97117-2.1522 1.4728-1.7985 1.0818-1.0296 0.54871-1.2095 0.57226-1.2241 0.49898-2.2077 0.69568-1.3657 0.29917-1.3671 0.1911-2.3228 0.036248-1.6068-0.21768-1.6022-0.38306-1.5264-0.47787-1.5305-0.55799-2.7964-1.145-8.1394-3.6357-2.5079-1.0184-2.3366-0.82115-5.4295-1.6658-2.3785-0.88206-2.3318-1.0106-2.2669-1.1275-2.1764-1.2429-2.051-1.3669-1.8786-1.5102-1.6437-1.6843-1.0903-1.474-0.89905-1.5777-0.70518-1.6536-0.45523-1.4637-2.1393-9.0326-0.44764-1.5008-0.2559-0.58947-0.36155-0.57208-0.46974-0.45004-0.40226-0.22482-0.59566-0.17432-0.48556-0.045434-0.94146 0.076671-0.42978 0.089736-0.90143 0.28115-0.4973 0.20239-1.5274 0.79624-0.92862 0.58986-1.596 1.1025-5.2935 3.9297-3.0463 2.1211-1.4944 0.95236-3.4294 2.0123-2.0972 1.1315-1.6336 0.80115-2.7104 1.1556-1.5284 0.56457-1.0607 0.33194-2.5264 0.68383-2.0439 0.49168-3.9108 0.83602-1.8402 0.47254-0.90734 0.30198-1.6905 0.67555-2.1768 0.99296-1.8873 0.93682-1.9761 1.058-1.8541 1.0796-1.7602 1.1224-1.2912 0.90346-1.942 1.5337-1.1972 1.0652-4.5645 4.373-4.3659 4.0831-3.6489 3.3736-0.88561 0.79907-0.46168 0.35299-0.32516-0.12108-0.10518-0.10162-0.20566-0.33885-0.16264-0.51929-0.098483-0.91616 0.039643-0.91116 0.094989-0.69887 0.33163-1.4337 0.52099-1.5254 0.66786-1.5567 1.1609-2.414 0.63192-1.4263 0.46952-1.3143 0.3895-1.5832 0.25656-1.6122 0.33507-3.1896 0.23601-4.9224 0.46083-4.843 0.078661-1.2983-0.010814-1.5611-0.25934-1.7949-0.54901-1.7604-1.029-2.027-1.3246-1.9512-1.504-1.9008-3.1617-3.7327-1.4812-1.8687-1.2922-1.8948-0.99711-1.9416-0.49401-1.4473-0.73629-3.0038-0.98359-3.7504-0.48737-2.322-0.38091-2.4036-0.27678-2.4445-0.16294-2.4466-0.026037-2.409 0.14954-2.3271 0.38255-2.1928 0.69586-1.9943 0.28363-0.54852 0.20017-0.34124 1.1531-1.5896 1.3605-1.481 0.9378-0.88977 1.1951-0.967 1.3095-0.91181 2.0713-1.2532 1.8926-1.0152 2.0104-0.97304 3.7497-1.6566 1.9217-0.91465 0.92775-0.49527 1.134-0.66924 1.4805-0.99281 1.4136-1.1045 0.70437-0.64087 1.0505-1.2371 0.82369-1.4828 2.4289-5.8728 1.8275-4.9445 0.35813-0.72261 0.27885-0.4553 0.14526-0.11724 0.054798-0.21814 0.35117-0.23569 0.86623-0.29118 0.9776-0.19218 1.7075-0.16544 1.2943-0.005694 1.427 0.13382 0.88839 0.17754 1.2208 0.40682 0.82898 0.42098 0.83651 0.57357 0.81565 0.72762 0.71852 0.79182 1.0319 1.3532 1.0608 1.609 0.91803 1.5913 0.96148 1.9534 1.6774 3.8889 1.6624 3.4225 0.80484 1.8453 1.0344 2.909 0.73592 2.5456 0.41997 0.66761 0.44104 0.30351 0.56295 0.14158 0.22178 0.006151 0.86633-0.14295 0.55816-0.18458 1.064-0.4771 1.0279-0.56401 1.994-1.2683 1.5139-1.0784 1.5354-1.1872 1.1435-0.95033 2.1425-1.9681 0.97924-1.0115 0.92079-1.0451 0.79192-0.98799 1.0401-1.4322 0.99966-1.5354 0.71679-1.2308 0.64491-1.2477 0.58031-1.3071 0.54776-1.5056 0.44243-1.4838 0.40068-1.6925 0.14945-0.96417 0.08856-1.3278-0.031315-1.0886-0.19711-1.4353-0.2182-0.90315-0.79813-2.1218-1.1519-2.1311-1.0603-1.61-1.1747-1.5869-1.3344-1.6551-1.402-1.6424-3.678-4.0762-1.7849-1.8796-1.8264-1.839-1.8886-1.7899-1.9406-1.7108-5.4101-4.3256-2.4758-2.0366-1.7401-1.5608-0.83192-0.8347-1.0136-1.1626-0.65216-0.89408-0.46131-0.77167-0.32983-0.71192-0.21166-0.65658-0.11366-0.64358-0.017777-0.66882 0.038112-0.43454 0.11706-0.63243 0.20036-0.6808 0.35283-0.84711 0.45998-0.82981 0.64817-0.90914 0.53212-0.61144 0.59106-0.58119 0.53164-0.45261 2.2687-1.5687 1.3269-0.99681 0.96693-0.87458 0.8201-0.9211 0.72102-1.0012 2.2444-3.7241 0.99964-1.2433 1.1421-1.0048 1.2666-0.66967 1.0801-0.24194 1.1193-0.039986 1.2525 0.11596 2.7475 0.59442 1.1302 0.10522 0.8538-0.23058 0.5833-0.55104 0.40476-0.72318 0.40402-0.87486 0.12212-0.47146 0.026603-0.27348-0.049193-0.68816-0.13372-0.56583-0.44852-1.1985-0.28244-0.52996-0.68393-0.97362-0.51036-0.56049-1.642-1.6239-0.7521-0.82568-1.2223-1.6218-0.73754-0.78837-0.79273-0.66842-1.2077-0.85066-0.3642-0.33618-0.50361-0.72872-0.32474-1.0872 0.009834-0.77478 0.29189-1.3798 0.51428-1.5887 0.41154-0.98224 0.46255-0.95166 0.83184-1.3334 1.0305-1.2876 1.1963-1.1884 6.1767-4.8545 3.2044-2.7229 1.1684-0.87845 0.65736-0.4343 4.9375-3.1098 1.2026-0.97364 0.53369-0.53614 0.41175-0.46852 0.73425-0.9669 1.2295-1.9095 1.9904-2.8924 0.46314-0.81873 0.38081-0.83435 0.3305-0.97251 0.2753-1.2121 0.064448-0.66891 1.5659-1.0054 2.5178-1.5064 4.8224-2.6889 1.0698-0.66262 2.0634-1.4059 0.88393-0.65732 1.2371-1.062 1.1955-1.1678 3.5205-3.7195 1.2139-1.1877 1.2698-1.0974 0.76353-0.57436 0.88607-0.59308 1.2934-0.72059 1.3552-0.57383 1.5928-0.45187 1.6467-0.2766 1.6803-0.13063 1.3139-0.012289 1.3169 0.056167 2.0953 0.21809 1.097 0.1753 2.2605 0.48378 1.1481 0.30899 1.1841 0.37208 1.1268 0.42826 1.0526 0.50245 2.4325 1.5407 1.1714 0.65603 1.2308 0.52239 1.2803 0.33114 1.0481 0.091168 1.0621-0.048804 1.0637-0.16778 0.60248-0.14533 0.92454-0.31103 0.93074-0.41516 1.0062-0.55341 1.0049-0.64948 1.5066-1.1328 4.6476-4.0179 2.9128-2.3512 1.1362-0.82599 0.95999-0.63226 0.60296-0.32808 0.26778-0.025286 0.13019 0.41583 0.53208 1.0116 0.79308 1.3338 1.0072 1.5564 2.2995 3.2224 3.9877 5.1302 4.4106 5.386 2.4617 2.8456 2.5436 2.7648 1.4981 1.5489 2.3016 2.2758 3.02 2.8284 4.9182 4.498 1.1524 0.95298 1.1143 0.81771 0.93475 0.60248 0.83333 0.45565 1.4563 0.63063 3.286 1.102 1.1403 0.43689 1.3369 0.6755 1.1823 0.7999 0.97582 0.89721 0.70685 0.97238 0.11211 0.22094 0.241 0.62844 0.16518 0.6751 0.085135 0.77815 0.048302 3.568 0.16766 2.2171 0.31996 2.4621 0.20036 1.0091 0.22668 0.86294 0.46221 1.1784 0.61483 1.0784 0.41779 0.55702 0.64208 0.70624 0.7265 0.68292 1.1512 0.94705 1.5174 1.0076 1.0685 0.5666 3.6518 1.7751 8.2365 4.2921 1.0689 0.49294 1.792 0.70782 3.0119 1.007 1.3203 0.49743 1.9371 0.83251 3.0215 1.4211 4.7133 2.3684 4.6941 2.4918 4.6275 2.5702 4.1437 2.4166" stroke="#bdc660"/>
    </defs>
    <g clip-path="url(#pfca92ded80)">
     <use y="280.512" fill="#bdc660" stroke="#bdc660" xlink:href="#meff3327efe"/>
    </g>
   </g>
  </g>
 </g>
 <defs>
  <clipPath id="pfca92ded80">
   <rect x="7.2" y="7.2" width="276.09" height="266.11"/>
  </clipPath>
 </defs>
</svg>
