<?xml version="1.0" encoding="UTF-8"?>
<!DOCTYPE svg  PUBLIC '-//W3C//DTD SVG 1.1//EN'  'http://www.w3.org/Graphics/SVG/1.1/DTD/svg11.dtd'>
<svg width="326.21pt" height="280.51pt" version="1.1" viewBox="0 0 326.21 280.51" xmlns="http://www.w3.org/2000/svg" xmlns:xlink="http://www.w3.org/1999/xlink">
 <metadata>
  <rdf:RDF xmlns:cc="http://creativecommons.org/ns#" xmlns:dc="http://purl.org/dc/elements/1.1/" xmlns:rdf="http://www.w3.org/1999/02/22-rdf-syntax-ns#">
   <cc:Work>
    <dc:type rdf:resource="http://purl.org/dc/dcmitype/StillImage"/>
    <dc:date>2024-07-04T12:07:41.599094</dc:date>
    <dc:format>image/svg+xml</dc:format>
    <dc:creator>
     <cc:Agent>
      <dc:title>Matplotlib v3.7.1, https://matplotlib.org/</dc:title>
     </cc:Agent>
    </dc:creator>
   </cc:Work>
  </rdf:RDF>
 </metadata>
 <defs>
  <style type="text/css">*{stroke-linejoin: round; stroke-linecap: butt}</style>
 </defs>
 <g id="figure_1">
  <g id="patch_1">
   <path d="m0 280.51h326.21v-280.51h-326.21v280.51z" fill="none"/>
  </g>
  <g id="axes_1">
   <g id="PatchCollection_1">
    <defs>
     <path id="mf4f281ae8b" d="m304.84-120.55-13.425 5.6984-6.0808 2.6894-3.6709 1.7951-3.5829 2.0612-6.7171 4.4619-19.81 13.737-3.7057 2.6628-7.1802 5.4553-2.0581 1.4751-1.9406 1.2639-39.893 23.276-7.6613 4.205-4.9603 2.3821-2.4167 0.96319-1.8039 0.58629-1.7619 0.4225-1.5634 0.20962-1.5087 0.007478-1.9466-0.32505-3.7764-1.089-1.954-0.339-2.0674 0.036757-2.1705 0.37192-2.2517 0.62896-2.3164 0.82436-4.7306 2.0292-11.996 5.8244-10.097 4.6031-21.784 9.3299-15.326 6.0047-0.45181-0.42979-1.0801-1.3982-4.6418-6.6839-19.59-29.468-10.59-15.382-3.6114-5.5746-3.7923-6.5109-6.8763-12.681-1.5997-3.1646-1.3671-2.936-1.5436-3.9357-0.53923-1.9101-0.32231-1.8854-0.058967-0.87011 0.063026-1.5705 0.44755-2.0225 0.81518-1.8118 1.124-1.7332 1.6022-1.9765 5.9832-6.4086 2.3303-2.9077 1.9757-2.9216 1.2549-2.351 0.56192-1.4498 0.36448-1.4543 0.1405-1.9097-0.22462-1.8587-0.20471-0.79146-0.4886-1.3623-2.536-5.6256-1.1113-2.9104-0.6768-2.1787-0.3926-1.7176 0.042201-0.89088 0.44398-1.2263 0.69663-3.8549-0.077161-1.2777-0.67511-1.8949-1.5577-2.9925-5.1677-8.7971-1.4312-2.0758-6.274-8.4393-0.07381-0.98528-0.76832-5.4011-0.11252-3.0553 0.24252-3.5006 1.2809-8.7616 0.33966-2.8112 0.22645-2.8091 0.13589-3.8812-0.077566-3.0919-0.35651-3.0478-0.32083-1.4711-0.45-1.4119-0.61553-1.3302-0.73228-1.1285-0.86736-1.0589-2.0054-1.9778-4.0746-3.6688-2.0074-2.2966-0.99979-1.3384-1.3918-2.1318-0.63005-1.1507-0.50962-1.1331-0.35328-1.1018-0.15189-1.1502 0.1698-1.0651 0.5769-0.98132 0.92944-0.88153 1.2087-0.80144 1.4293-0.73495 3.3734-1.3176 3.7147-1.1086 3.6307-0.84669 2.3021-0.37486 0.54221-0.032767 1.2572-0.91651 1.394-0.66675 1.8541-0.74728 2.128-0.72559 2.3127-0.65259 2.5074-0.55118 2.9647-0.42843 2.859-0.14996 2.9208 0.16046 2.3776 0.4117 2.7865 0.876 5.9223 2.5817 1.7163 0.64184 3.6007 0.93562 2.9638 0.4651 2.2904 0.22852 8.0922 0.4143 4.6507 0.43554 4.246 0.78392 2.9759 0.77818 5.0309 1.5114 4.9242 1.7616 5.5211 2.4828 3.4822 1.4692 2.9206 1.0046 6.926 1.8839 3.3536 0.99542 3.2792 1.1882 3.1308 1.416 2.458 1.4 2.2413 1.6221 1.9634 1.8801 1.0636 1.3236 1.5547 2.4863 1.4602 3.1401 0.5445 1.4906 0.69842 2.3378 2.1035 8.727 1.1028 3.2917 0.9033 2.0978 1.2604 2.5155 1.3104 2.2454 1.5223 2.2 1.5307 1.9262 1.6589 1.8758 1.6335 1.6951 3.1768 3.0008 4.8672 4.092 4.8061 3.6314 6.2776 4.3122 5.4215 3.3867 4.0183 2.2905 2.3981 1.2665 4.4375 2.1125 2.3012 0.95611 2.3152 0.84806 3.0462 0.91602 4.5975 0.94257 4.5666 0.5846 7.4963 0.73786 2.2352 0.30775 2.5168 0.53526 1.366 0.43326 1.7551 0.78524 1.8591 1.2292 1.3073 1.1238 1.5221 1.5618 1.3577 1.6062 2.2599 3.0635 6.7483 10.366 2.4727 3.5026 2.7201 3.35 3.069 3.0756 4.0317 3.0521 4.5255 2.6063 4.9224 2.2229 5.2332 1.871 5.4554 1.5237 6.3286 1.3311 14.264 2.3052 3.2865 0.61738 1.2283 0.43813" stroke="#bdc660"/>
    </defs>
    <g clip-path="url(#p4a2dbde990)">
     <use y="280.512" fill="#bdc660" stroke="#bdc660" xlink:href="#mf4f281ae8b"/>
    </g>
   </g>
  </g>
 </g>
 <defs>
  <clipPath id="p4a2dbde990">
   <rect x="7.2" y="7.2" width="311.81" height="266.11"/>
  </clipPath>
 </defs>
</svg>
