<?xml version="1.0" encoding="UTF-8"?>
<!DOCTYPE svg  PUBLIC '-//W3C//DTD SVG 1.1//EN'  'http://www.w3.org/Graphics/SVG/1.1/DTD/svg11.dtd'>
<svg width="303.37pt" height="280.51pt" version="1.1" viewBox="0 0 303.37 280.51" xmlns="http://www.w3.org/2000/svg" xmlns:xlink="http://www.w3.org/1999/xlink">
 <metadata>
  <rdf:RDF xmlns:cc="http://creativecommons.org/ns#" xmlns:dc="http://purl.org/dc/elements/1.1/" xmlns:rdf="http://www.w3.org/1999/02/22-rdf-syntax-ns#">
   <cc:Work>
    <dc:type rdf:resource="http://purl.org/dc/dcmitype/StillImage"/>
    <dc:date>2024-07-04T12:07:49.932666</dc:date>
    <dc:format>image/svg+xml</dc:format>
    <dc:creator>
     <cc:Agent>
      <dc:title>Matplotlib v3.7.1, https://matplotlib.org/</dc:title>
     </cc:Agent>
    </dc:creator>
   </cc:Work>
  </rdf:RDF>
 </metadata>
 <defs>
  <style type="text/css">*{stroke-linejoin: round; stroke-linecap: butt}</style>
 </defs>
 <g id="figure_1">
  <g id="patch_1">
   <path d="m0 280.51h303.37v-280.51h-303.37v280.51z" fill="none"/>
  </g>
  <g id="axes_1">
   <g id="PatchCollection_1">
    <defs>
     <path id="me5c826534f" d="m236.37-220.1 7.9837 22.06 2.1052 5.9921 3.654 10.711 5.0154 13.463 1.4908 3.8831 1.792 4.3134 1.4592 3.1602 1.5513 3.103 0.77984 1.4053 0.78987 1.2545 0.80596 1.0496 1.6974 1.6804 1.9318 2.4912 1.0507 1.0307 1.427 1.1306 2.4757 1.6392 5.7218 3.3588 1.1117 0.51442-0.37373 0.044853-0.28262 0.12683-0.5124 0.35638-0.63883 0.66957-0.42046 0.63571-0.26202 0.53038-0.29284 0.79854-0.88304 3.3671-0.78666 1.676-1.1152 1.4543-1.2685 1.0773-1.3297 0.98261-1.0295 0.91526-1.0868 1.3461-1.9501 2.8259-0.46018 0.76863-0.61644 1.5274-0.28205 1.8744-0.008697 2.1269 0.53946 7.051 0.18827 3.0984 0.36722 2.5487 0.73858 3.3966 1.6566 6.6979 0.53038 2.6031 0.34292 2.5046 0.34698 4.6986 0.25924 1.3645 0.38191 1.3821 0.86656 2.2396 0.91641 1.8138 1.2518 2.1244 4.4884 7.01 1.4576 2.5951 0.58024 1.1715 1.1416 2.7216 0.60356 1.8413 0.50328 2.1258 0.18814 1.2978 0.07471 1.0361-0.001434 1.0543-0.14949 1.5855-0.33613 1.6523-0.33522 1.1243-0.4856 1.2711-0.69836 1.4949-1.034 1.8537-1.2612 1.8902-1.0889 1.4012-1.5115 1.7142-1.0871 1.1184-2.0719 1.9595-2.3004 2.0171-2.8111 2.3449-3.099 2.4425-2.3922 1.7448-3.8852 2.6482-1.8832 1.1753-1.898 1.0753-2.1725 1.0513-1.4881 0.57721-1.0635 0.32668-1.0598 0.25282-1.1325 0.19418-2.5065 0.16992-2.4838-0.26483-1.8005-0.52602-2.2071-1.0232-2.212-1.3688-1.9524-1.4084-5.971-4.6558-1.6008-1.1809-1.1766-0.77564-0.52353-0.1283-0.31903-0.41478-0.36122-1.1996-0.29155-1.4641-1.0109-6.6909-1.2355-7.4004-0.81575-6.3415-0.56781-3.4151-0.64631-2.6729-0.41535-1.3548-0.67521-1.8678-1.0818-2.5012-1.2134-2.4351-1.3047-2.3852-2.7749-4.6651-2.8881-4.5623-2.9385-4.4566-2.8097-4.0474-2.2252-2.9252-0.85179-1.0224-1.4096-1.5404-1.0877-1.0387-0.87938-0.72544-1.0245-0.70467-0.73971-0.4158-1.3616-0.59568-2.4796-0.81541-1.7355-0.4599-3.628-0.83686-1.5634-0.49345-1.6604-0.70701-1.1479-0.59892-1.4391-0.87123-2.115-1.501-2.3186-1.9136-1.3724-1.2894-0.89506-0.9467-0.53329-0.63061-1.502-2.0454-0.55554-0.68352-0.68705-0.7215-0.62889-0.5371-1.4244-0.7961-0.81881-0.25101-0.87962-0.15868-1.0537-0.086577-0.86409 0.001152-0.78975 0.052411-1.4021 0.19685-1.5916 0.3445-1.3581 0.37146-0.23501 0.11733-0.52893-0.001543-0.7293-0.12293-1.0086-0.26984-1.0471-0.38462-0.763-0.35082-1.2773-0.70153-1.2736-0.8468-0.99863-0.77746-1.4116-1.2342-4.3451-4.343-1.318-1.1885-1.1515-0.86799-1.2226-0.72599-1.7329-0.711-1.8283-0.49004-2.3649-0.39418-4.6584-0.40266-2.3976-0.37149-1.799-0.494-2.3953-0.82659-1.5484-0.45163-2.1642-0.52125-5.1714-1.1318-1.3398-0.37875-2.9936-0.99976-1.1083-0.20119-1.3505-0.084086-0.91333 0.01961-3.7207 0.27481-3.9377 0.054116-2.1012-0.11078-4.2923-0.60912-1.0439-0.10704-0.75191-0.01205-0.94595 0.087384-1.3734 0.28517-0.76527 0.24056-0.80607 0.3953-0.70476 0.56069-0.30231 0.35301-0.29332 0.44519-0.29564 0.61224-0.21363 0.64781-0.19154 1.1003-0.003201 1.4411 0.25847 1.4724 0.34959 1.0485 1.2145 2.661 0.74856 1.7709 0.41017 1.221 1.272 4.7901 1.06 3.694 0.49279 1.5022 0.71199 1.7995 1.8951 4.209 1.1706 2.1969 4.0747 6.8224 1.9202 3.4732 0.95032 1.8848 0.8997 1.9726 0.43097 1.0948 0.3764 1.3138 0.031453 0.33078-0.12689 0.24241-0.79556-0.2303-6.4516-1.5061-5.3561-1.1598-2.3296-0.58181-2.4851-0.81851-1.1161-0.44272-1.0747-0.47383-1.6132-0.82705-1.5016-0.97936-0.86871-0.68848-0.74122-0.67975-0.89471-0.97574-0.95579-1.3479-1.3937-2.7575-0.92733-1.5912-2.3066-3.4033-0.72285-0.98678-1.0598-1.1215-1.2367-1.0349-1.3623-0.94381-1.4458-0.83987-1.4938-0.71349-1.5108-0.55348-1.4989-0.34658-1.4581-0.076955-0.92789 0.12218-0.91054 0.22366-2.8393 0.84032-1.0816 0.16904-1.5155-0.038448-1.5834-0.303-1.6284-0.51004-1.6517-0.67285-1.6524-0.80264-1.6278-0.90881-1.5728-0.99908-1.4798-1.0796-1.34-1.1548-1.1444-1.2265-1.9389-2.745-0.66699-0.80254-1.3075-1.1269-1.3659-0.77168-1.2395-0.4232-0.90207-0.15763-0.81638-0.002972-0.42579 0.1698-7.0196-9.1531-1.5953-1.9076-2.2165-2.3125-0.78948-0.94982-0.44034-0.6871-0.50765-1.0894-0.14196-0.54901-0.036849-0.54846 0.11383-0.63861 0.25162-0.63577 0.3522-0.63415 0.90185-1.2677 1.6143-1.9153 6.6866-7.4676 1.5948-1.8967 1.0248-4.6673 0.97398-3.7532 0.59279-1.8401 1.2236-3.3326 0.46143-1.5795 0.12691-0.77279 0.009355-0.7333-0.10477-0.60322-0.49735-1.6461-0.053013-0.50505 0.09015-0.49368 0.16508-0.33149 0.33371-0.36606 0.44906-0.31503 1.0876-0.50731 1.2217-0.41087 2.12-0.55845 3.7371-0.81114 4.7347-0.94634 4.8963-0.93666 2.7273-0.45472 0.30888-0.12452 0.91901-0.14488 8.1289-0.95994 4.4215-0.58782 4.315-0.71838 2.2646-0.48287 2.1672-0.57508 1.7625-0.59006 1.6568-0.70899 1.5311-0.86201 0.8098-0.57252 0.95038-0.78981 1.1076-1.0841 0.72272-0.80326 1.3221-1.6551 1.2652-1.7621 1.5813-2.3803 1.5017-2.4012 3.0576-5.0132 2.1207-3.6503 1.5032-2.8584 0.57297-1.2752 0.46596-1.2542 1.081-3.9202 1.1922-3.2145 0.69003-1.4729 0.64383-1.1067 0.73192-1.111 1.0519-1.4515 1.1448-1.4644 1.6666-2.0042 3.3385-3.7816 7.8448-8.6315 2.0975-2.3763 1.9905-2.3682 1.3423-1.7495 0.81435-1.2138 1.6335-2.9769 0.78296-1.2033 0.59053-0.64417 0.59328-0.47224 0.60546-0.30496 0.44388 7.86e-4 0.30378-0.008874 0.89797-0.20319 1.8959-0.48965 25.807-7.0796 6.5792-1.6479 3.1562-0.6914 3.0453-0.55652 2.9096-0.37172 2.7389-0.1203 2.0537 0.14525 1.8783 0.42324 1.6612 0.77231 1.0015 0.7719 1.0189 1.1039 0.90091 1.294 0.89841 1.6351 0.80422 1.7873 0.73193 1.9047 0.91056 2.7289 1.6321 5.7333 2.4765 9.4117 0.71786 2.4663 0.75489 2.3188 0.80831 2.1128 0.90888 1.8809 1.0126 1.4794 1.1495 0.94436 0.58757 0.21608 0.77366 0.086656 1.3208-0.19631 1.2531-0.48008 3.0249-1.4199 1.8358-0.73337 1.9494-0.61017 2.0202-0.39473 2.0496-0.075923 2.2209 0.36661 2.05 0.69555 1.2004 0.53461 1.5148 0.77823 3.9648 2.3119 1.3164 0.70544 0.92128 0.41944 1.9723 0.6608 1.4997 0.22443 0.68178 0.028477 1.4528-0.082013 0.94884-0.17356 0.61984-0.1972 0.62585-0.46459" stroke="#bdc660"/>
    </defs>
    <g clip-path="url(#p5ec280ae5a)">
     <use y="280.512" fill="#bdc660" stroke="#bdc660" xlink:href="#me5c826534f"/>
    </g>
   </g>
  </g>
 </g>
 <defs>
  <clipPath id="p5ec280ae5a">
   <rect x="7.2" y="7.2" width="288.97" height="266.11"/>
  </clipPath>
 </defs>
</svg>
