<?xml version="1.0" encoding="UTF-8"?>
<!DOCTYPE svg  PUBLIC '-//W3C//DTD SVG 1.1//EN'  'http://www.w3.org/Graphics/SVG/1.1/DTD/svg11.dtd'>
<svg width="326.53pt" height="280.51pt" version="1.1" viewBox="0 0 326.53 280.51" xmlns="http://www.w3.org/2000/svg" xmlns:xlink="http://www.w3.org/1999/xlink">
 <metadata>
  <rdf:RDF xmlns:cc="http://creativecommons.org/ns#" xmlns:dc="http://purl.org/dc/elements/1.1/" xmlns:rdf="http://www.w3.org/1999/02/22-rdf-syntax-ns#">
   <cc:Work>
    <dc:type rdf:resource="http://purl.org/dc/dcmitype/StillImage"/>
    <dc:date>2024-07-04T12:07:59.891968</dc:date>
    <dc:format>image/svg+xml</dc:format>
    <dc:creator>
     <cc:Agent>
      <dc:title>Matplotlib v3.7.1, https://matplotlib.org/</dc:title>
     </cc:Agent>
    </dc:creator>
   </cc:Work>
  </rdf:RDF>
 </metadata>
 <defs>
  <style type="text/css">*{stroke-linejoin: round; stroke-linecap: butt}</style>
 </defs>
 <g id="figure_1">
  <g id="patch_1">
   <path d="m0 280.51h326.53v-280.51h-326.53v280.51z" fill="none"/>
  </g>
  <g id="axes_1">
   <g id="PatchCollection_1">
    <defs>
     <path id="m06e9d0081e" d="m233.87-222.17-0.3017 0.34803-3.92 2.9235-1.3333 1.2042-0.98656 1.2209-0.4662 1.2037 0.16089 1.1505 0.6717 1.1571 1.0281 1.2186 2.9154 3.1269 0.71098 0.83463 1.3955 1.8384 1.3388 1.9988 0.94448 1.5331 3.7271 6.5922 2.1005 3.5145 1.3929 2.0632 1.5808 2.1109 1.6586 2.0574 3.7501 4.3919 3.4203 3.7426 3.2524 3.2563 7.982 7.7083 2.7807 2.8226 1.3987 1.5358 1.3011 1.5172 3.3589 4.1498 0.6984 0.75414 0.74307 0.69572 2.7265 2.1125 1.2387 1.0975 0.94427 0.93886 2.0296 2.2607 1.0786 1.3202 1.789 2.3685 1.2758 1.8306 2.3015 3.6187 1.731 3.0371 0.82866 1.5891 1.44 3.0639 0.70566 1.6417 1.6673 4.1774 0.7649 2.0723 1.4184 4.1795 1.2617 4.2103 1.2215 4.7617 0.48576 2.2249 0.83353 4.3868 0.1233 0.48005 0.46859 1.3146 0.85118 1.4622 1.0172 1.175 0.99426 0.79418 0.77052 0.2683-0.020879 0.081941-0.22682 0.23885-1.1569 0.84942-3.1665 1.829-2.212 1.4618-1.4848 1.1426-2.413 2.0021-1.2545 0.9422-4.0034 2.5299-3.6655 2.429-1.6376 0.98103-2.0836 1.0489-1.4827 0.59967-0.78009 0.25899-1.7919 0.4435-2.8147 0.52078-1.4443 0.42513-1.2334 0.56037-0.86145 0.51904-0.72699 0.53963-0.67625 0.61342-0.70501 0.80558-0.60365 0.87833-0.48119 0.8581-0.42742 0.91286-0.39256 1.0088-0.33727 1.0511-0.29352 1.1294-0.23605 1.1455-0.61915 4.5346-0.22447-0.026612-0.58283 0.10733-1.2468 0.32438-2.2828 0.71866-2.0157 0.7302-2.1237 0.86566-2.154 0.99444-1.5871 0.82045-1.6699 0.94082-1.7508 1.0658-2.3341 1.5462-1.7064 1.2284-1.8728 1.4654-1.2057 1.0289-3.5291 3.4051-1.4759 1.2795-1.5057 1.0202-1.6028 0.82407-1.2928 0.48025-0.96648 0.25052-1.8331 0.22628-5.0673 0.19552-0.89957 0.088988-1.4407 0.2336-1.1153 0.26831-1.1899 0.36898-1.6638 0.65149-1.3943 0.66851-1.5404 0.91132-1.1439 0.87111-1.0125 0.99009-0.56993 0.69247-0.47458 0.66866-1.7733 2.9584-0.71148 1.0872-0.66146 0.85503-0.67357 0.70921-0.96697 0.77375-1.0529 0.62644-1.804 0.77545-2.3278 0.73434-1.029 0.23739-1.3958 0.19853-0.82905 0.014672-0.8971-0.12325-0.93464-0.32195-0.70751-0.39298-0.64043-0.49739-0.60819-0.66425-0.46991-0.78358-0.19956-0.55508-0.10071-0.69385 0.19809-1.2097 0.91211-2.5454 0.18606-1.1109-0.001821-1.0382-0.1839-1.0019-0.38719-0.90758-0.50805-0.66978-0.63987-0.5694-1.2606-0.69664-0.9298-0.24055-0.68899-0.090304-1.9545-0.046065-1.3715 0.067551-1.8438 0.16258-4.1576 0.53766-4.6121 0.72966-24.524 4.1879-22.95 3.7851-8.2777 1.4754-2.757 0.56312-2.7482 0.62792-2.7308 0.71887-2.7009 0.84398-2.6532 1.0128-2.5814 1.2107-2.5322 1.3726-2.4981 1.4799-7.3063 4.5166-2.3156 1.3025-2.1798 1.0552-1.9541 0.70854-0.54596 0.13853-1.6068 0.24571-0.49712 0.014892-0.22549-0.085159-11.779-8.3145-7.3191-4.9935-7.6234-5.0404-20.213-13.155-4.8681-3.2497-2.3165-1.6005-2.1911-1.5764-2.0125-1.5427-1.761-1.4955-1.4111-1.4296-0.93-1.3385-0.27674-1.214 0.14762-0.51797 0.32962-0.5075 0.53506-0.52589 0.72158-0.53455 0.82944-0.52818 4.7062-2.9655 1.5409-0.92068 0.24719-0.1979 0.047178-0.10897-0.18325-0.094469-0.43478 7.22e-4 -2.8376 0.4912-1.165 0.066489-0.67638-0.063054-0.63463-0.14298-0.47257-0.1625-0.654-0.30998-0.7829-0.52497-0.61679-0.57308-0.43856-0.53908-0.41069-0.68065-0.18202-0.40306-0.25176-0.82463-0.10034-0.79116 0.14105-1.4479 0.61683-1.7556 0.59188-1.0941 0.72964-1.0799 0.79938-1.0015 4.4308-4.8595 1.1991-1.4253 1.2145-1.6219 0.40715-0.63197 0.66104-1.226 0.45988-1.1874 0.24358-1.0855 0.060717-0.97563-0.078146-0.89894-0.24091-0.98686-0.34934-0.81859-0.43211-0.61517-0.53209-0.29258 45.693-6.4686 0.1784-0.079995 0.22195 0.18241 0.36101 0.62569 1.1653 2.7238 0.3941 0.76535 0.42004 0.66988 0.4324 0.54437 0.53781 0.49426 0.59524 0.33718 0.80124 0.17038 0.87157-0.047688 0.8929-0.20201 0.92814-0.31372 1.6657-0.71491 2.3461-1.1154 1.7254-0.76078 3.7895-1.4667 1.684-0.54773 3.981-1.0146 1.8481-0.52124 3.2254-1.047 1.4489-0.6058 0.65433-0.34845 0.58772-0.38396 0.54402-0.46099 0.37416-0.43803 0.34294-0.68515 0.088949-0.78883-0.13533-0.86244-0.306-0.92109-0.43437-0.96876-0.52944-1.0087-3.302-5.5334-1.9227-3.5093-1.7963-3.64-0.78285-1.7955-0.42212-1.1163 0.47838-0.10022 0.76264-0.42463 0.75665-0.49395 1.1899-0.9116 1.2294-1.0898 1.8604-1.7922 0.93358-0.78992 1.5538-0.97486 1.6818-0.60519 1.744-0.12983 0.39716 0.047881 1.1858 0.29864 1.3307 0.55108 0.80099 0.41717 1.1025 0.65435 1.283 0.84492 4.9901 3.5525 1.0681 0.68301 1.1007 0.59329 0.72968 0.3103 0.68518 0.2188 0.63237 0.1298 0.7197 0.050198 0.51728-0.038039 1.5023-0.49388 1.4533-0.95504 1.4098-1.2908 1.3685-1.5268 1.3263-1.6822 1.28-1.77 3.357-4.8863 1.0277-1.2712 0.60318-0.62312 1.0509-0.8394 0.46757-0.28132 0.8288-0.36931 0.86856-0.21046 1.0792 0.016599 1.0244 0.3318 0.9101 0.52791 1.0887 0.86752 2.615 2.5747 0.5567 0.48452 0.59807 0.42261 0.74512 0.33242 0.37006 0.070475 0.48149 0.005044 0.71522-0.15412 0.92884-0.4908 0.60387-0.54619 0.49809-0.69515 0.35311-0.81952 0.15398-0.61547 0.080837-0.65585-0.008347-0.83482-0.11503-0.7904-0.22402-0.87544-0.43815-1.2216-0.78259-1.7112-0.68778-1.3132-1.7615-3.0251-2.1067-3.3317-4.5851-6.9167-0.60094-0.92388-0.13485-0.28378 0.47307 0.11594 1.0632 0.70088 1.4465 1.067 5.3955 4.2071 1.7642 1.2727 1.9988 1.2369 1.9944 0.92463 1.6269 0.47532 2.2444 0.23931 2.2649-0.15354 1.0234-0.17546 0.95764-0.22845 0.96098-0.29519 1.3447-0.52158 1.9631-0.94994 1.715-0.97168 1.7017-1.062 3.5108-2.393 2.1617-1.5766 2.8003-2.2071 2.5402-2.1189 2.0787-1.8227 1.8722-1.7706 0.98236-1.0106 1.3658-1.549 0.98391-1.2661 1.1396-1.708 0.9343-1.6751 0.63105-1.3508 0.4388-1.1486 0.30292-1.016 0.30374-1.493 0.13509-1.4327 0.001295-0.9527-0.06751-0.93624-0.17-1.1728-0.45478-1.9209-0.54539-1.6638-1.0315-2.4593-0.52432-1.0585-1.3172-2.345-4.0558-6.3344-1.1312-1.9196-0.82808-1.639-0.78304-2.0237-0.3451-1.2489-0.23426-1.233-0.31354-4.2458-0.30986-2.2632-0.47926-2.3522-1.497-6.0523-0.6674-3.0692-0.33183-2.303-0.17013-2.7997-0.48747-6.3714 0.007859-1.9219 0.25486-1.6937 0.55703-1.3802 0.41582-0.69455 1.7621-2.5535 0.98203-1.2164 0.93028-0.82705 1.2016-0.8879 1.1463-0.97346 1.0077-1.3141 0.71084-1.5145 0.79793-3.0425 0.26461-0.72158 0.23677-0.47926 0.37994-0.57444 0.57726-0.60504 0.46301-0.32203 0.25538-0.1146 0.33771-0.04053 1.9029 1.0311 1.3047 0.77632 1.7102 1.1604 2.3892 1.7713 1.9948 1.6918 3.1068 3.0749 3.1528 2.9582 0.76039 0.77418 0.64108 0.73873 0.55275 0.78142 0.63091 1.2504 1.0683 2.5401 0.4839 0.96884 0.90794 1.4978 0.96247 1.2565 0.43947 0.49153 1.3113 1.2761 5.8754 5.0933 1.4489 1.342 1.1698 1.1739 1.7276 1.989 2.6069 3.6309 0.90361 0.99924 0.35461 0.29462 0.66737 0.40059 0.40915 0.14596 0.37591 0.043795 0.23491-0.10604" stroke="#bdc660"/>
    </defs>
    <g clip-path="url(#p101ce5b787)">
     <use y="280.512" fill="#bdc660" stroke="#bdc660" xlink:href="#m06e9d0081e"/>
    </g>
   </g>
  </g>
 </g>
 <defs>
  <clipPath id="p101ce5b787">
   <rect x="7.2" y="7.2" width="312.13" height="266.11"/>
  </clipPath>
 </defs>
</svg>
