<?xml version="1.0" encoding="UTF-8"?>
<!DOCTYPE svg  PUBLIC '-//W3C//DTD SVG 1.1//EN'  'http://www.w3.org/Graphics/SVG/1.1/DTD/svg11.dtd'>
<svg width="232.7pt" height="280.51pt" version="1.1" viewBox="0 0 232.7 280.51" xmlns="http://www.w3.org/2000/svg" xmlns:xlink="http://www.w3.org/1999/xlink">
 <metadata>
  <rdf:RDF xmlns:cc="http://creativecommons.org/ns#" xmlns:dc="http://purl.org/dc/elements/1.1/" xmlns:rdf="http://www.w3.org/1999/02/22-rdf-syntax-ns#">
   <cc:Work>
    <dc:type rdf:resource="http://purl.org/dc/dcmitype/StillImage"/>
    <dc:date>2024-07-04T12:08:01.577052</dc:date>
    <dc:format>image/svg+xml</dc:format>
    <dc:creator>
     <cc:Agent>
      <dc:title>Matplotlib v3.7.1, https://matplotlib.org/</dc:title>
     </cc:Agent>
    </dc:creator>
   </cc:Work>
  </rdf:RDF>
 </metadata>
 <defs>
  <style type="text/css">*{stroke-linejoin: round; stroke-linecap: butt}</style>
 </defs>
 <g id="figure_1">
  <g id="patch_1">
   <path d="m0 280.51h232.7v-280.51h-232.7v280.51z" fill="none"/>
  </g>
  <g id="axes_1">
   <g id="PatchCollection_1">
    <defs>
     <path id="m0481571aae" d="m183.8-256.34 0.015649 0.048752 0.76456 1.4497 5.0388 10.273 1.2585 2.3932 0.97982 1.7499 2.4958 4.0461 6.0426 9.195 1.4018 2.2757 1.3271 2.296 0.89433 1.6652 0.83967 1.6837 0.77103 1.6848 0.71069 1.7053 0.78862 2.1159 0.56134 1.6724 0.82409 2.7743 0.48828 1.8696 0.94981 4.1089 1.4096 6.8554 3.3916 17.242 0.48092 2.8482 0.2897 2.5607 0.047533 1.2931-0.053721 1.2374-0.34674 1.799-0.32178 0.82142-0.58868 0.98042-0.75855 0.90127-1.038 0.95867-1.1811 0.89676-1.0902 0.7236-1.1523 0.69837-1.8149 1.0186-3.9316 2.0566-3.3688 1.6783-2.4649 1.1394-2.2727 0.84799-2.0958 0.60758-1.7672 0.422-3.7517 0.7968-1.768 0.43592-1.3564 0.40068-2.6881 0.92805-3.059 1.1879-2.1775 0.95122-1.3252 0.67-1.5722 0.92176-1.2474 0.86426-1.3215 1.0954-1.025 0.99062-1.0566 1.1335-0.96686 1.1261-2.3981 3.115-0.53968 0.64149-0.99276 1.0096-2.3186 2.0282-0.81273 0.81808-0.39523 0.4743-0.52909 0.77994-0.4864 0.99021-0.41068 1.2253-0.29984 1.4065-0.15066 1.2103-0.07618 1.3219 0.022939 1.7859 0.11714 1.3821 0.17144 1.1506 0.29791 1.3696 0.35731 1.2116 0.5808 1.4903 1.1845 2.6085 2.1535 5.1362 1.3309 3.0016 1.1687 2.3287 1.3407 2.2739 0.79041 1.5446 0.74417 1.6591 1.8184 4.3423 1.0684 2.3034 0.83884 1.549 0.93295 1.4292 1.0533 1.2622 1.0543 0.96422 2.6204 2.0719 1.5581 1.4418 1.699 1.8317 1.4668 1.7555 1.4643 1.8863 1.4491 2.0019 2.1319 3.2298 1.5612 2.6323 0.74194 1.3617 1.4978 3.0189 0.74253 1.6379 1.4716 3.4874 0.97961 2.4753 0.60814 1.7087 0.45728 1.461 0.28028 1.0534 0.058851 0.42723-0.9872 0.71789-4.2041 2.8227-4.4769 3.0847-5.4375 3.4916-1.2636 0.8826-1.1928 0.91844-1.0997 0.97471-0.97827 1.0555-0.41193 0.53461-0.94544 1.483-0.7838 1.4604-0.79379 1.6617-1.717 4.0697-0.47002 0.84568-0.51963 0.70931-0.59039 0.55904-0.32079 0.21636-0.7283 0.34184-0.97812 0.25412-0.87422 0.092786-3.7092-0.046309-6.1768 0.082632-1.8857 0.050281-2.1371 0.1873-1.3016 0.22484-1.152 0.28851-0.95091 0.32586-0.88227 0.39756-1.0087 0.61171-0.69468 0.56114-0.65301 0.68455-0.63505 0.86394-0.67867 1.1743-0.57725 1.2281-1.5513 3.8927-0.41832 0.8644-0.11028 0.078245-0.41617-0.28239-0.68494-1.0445-0.50042-0.91487-2.6377-5.2708-0.77002-1.4617-1.3613-2.3943-0.683-1.0943-0.77544-1.1398-0.91063-1.177-0.91232-0.98818-0.91362-0.80018-0.56726-0.40765-0.69802-0.42628-0.77972-0.40051-0.84396-0.37018-1.799-0.67249-4.802-1.5116-2.2009-0.78406-1.3562-0.57888-3.9669-1.8276-3.7079-1.5782-1.2117-0.62625-0.75863-0.48864-0.3991-0.3092-0.69873-0.69675-0.65826-0.89643-1.3041-2.252-0.50019-0.75108-0.52136-0.61765-0.25868-0.24473-0.61246-0.41628-0.41485-0.16715-0.47236-0.095573-0.92992 0.037641-0.87161 0.24329-0.68062 0.3106-1.0715 0.67805-1.3705 1.1375-1.66 1.6446-2.352 2.6023-3.5692 4.1107-0.75377 0.79477-1.0788 1.0023-0.59219 0.45884-0.85418 0.53125-0.54886 0.25398-0.4933 0.16823-0.84642 0.1641-1.4293-0.16324-0.79865-0.42852-0.74509-0.64865-0.98771-1.2114-0.97992-1.5293-1.6738-2.9736-1.3296-2.1628-0.99538-1.3992-0.60406-0.75464-1.1427-1.2602-1.2316-1.1658-1.0894-0.89435-0.70121-0.51326-1.2107-0.77156-0.98293-0.51965-1.1858-0.50662-1.2778-0.41989-1.0248-0.26541-1.7262-0.34732-3.1116-0.4786-1.5874-0.30604-0.53701-0.14526-1.4967-0.65067-0.7681-0.57281-0.69567-0.69913-0.59226-0.72632-3.2515-4.7933-1.2274-1.5286-2.7897-2.9452-1.5808-1.5371-0.78041-0.6558-0.51163-0.37188-0.46457-0.27328-0.39646-0.17206-0.81881-0.17958-0.85408-0.007741-0.77938 0.094822-1.6141 0.32341-1.1449 0.17876-0.8142 0.004542-0.29739-0.041869-0.59242-0.17387-0.3426-0.16026-0.50747-0.31568-1.7187-1.4056-1.2133-0.83849-0.78902-0.43774-1.0324-0.48608-1.6252-0.69531-0.5046-0.24759-0.45767-0.292-0.38002-0.36926-0.19446-0.30998-0.1564-0.46153-0.064388-0.46946-0.004858-0.62258 0.31956-3.4228 0.01471-1.4618-0.10104-1.3507-0.48624-2.9902-0.29777-2.2242-0.20954-2.685 0.03306-2.6601 0.22801-5.7575-0.009076-0.87108-0.23367-2.2915-0.44633-1.8188-0.40547-1.0631-0.46791-0.91406-0.57714-0.85355-0.63478-0.65517-0.27726-0.18308-0.25291-0.089641-0.26686 0.035896 0.027556-0.064927-0.14216-0.22222-1.6135-1.9524-1.2657-1.7096-0.79854-1.2145-0.66211-1.1869-0.56454-1.2462-0.54767-1.575-0.4367-1.7221-0.34587-1.999-0.19392-2.0336-0.049933-2.2873 0.066539-2.7991 0.27145-4.8333 0.079294-2.5456-0.31019-14.716-0.14407-2.3455-0.28622-2.5092-0.27888-1.6016-0.78395-3.7454-0.29869-1.9774-0.065157-1.0414 0.022924-0.93917 0.06095-0.5325 0.20259-0.92386 0.18863-0.5536 0.6338-1.2523 0.8623-1.2053 1.0392-1.1549 1.3984-1.3088 2.9751-2.5763 1.3957-1.3633 0.587-0.66537 1.1589-1.5992 2.0264-3.3972 2.0005-3.2169 0.79335-1.5209 0.59497-1.626 0.31224-1.7558 0.08396-1.18 0.061152-3.775 0.083962-1.3402 0.22652-1.4453 0.32704-1.0816 0.62744-1.2105 0.51815-0.65078 0.5704-0.5577 1.3034-0.9809 0.9484-0.57512 4.467-2.4474 3.1543-1.9133 1.9947-1.2876 3.1653-2.1462 2.5239-1.8634 1.2062-1.0096 1.2093-1.1515 0.5887-0.63528 0.93035-1.1341 2.2177-2.9008 2.7178-3.0398 0.82737-1.0637 0.42171-0.62081 0.81267-1.4386 0.48615-1.1238 0.38015-1.1942 0.26169-1.33 0.079011-2.4002-0.30577-2.5019-0.58422-2.5144-0.75463-2.405-0.7981-2.1189-0.97203-2.1938 4.6567-0.3476 1.97-0.093777 2.1273-0.038872 1.7186 0.044212 4.095 0.26993 1.753-0.034348 3.8152-0.24954 2.0473-0.058702 7.8975 0.12534 4.4022 0.16364 2.0992-0.011145 2.0101-0.18209 4.5204-0.80799 1.2559-0.14281 1.4895-0.077867 1.2822-9.7e-5 1.4731 0.063741 3.3653 0.23835 3.1137 0.081757 4.9544-0.10627 2.0512-0.001827 0.94539 0.063724 3.0306 0.31971 0.96201 0.027325 1.5328-0.16451 0.93982-0.27507 0.88406-0.36796 0.99496-0.5129 0.48664-0.31383 0.56326-0.45646 0.37795-0.39847 0.37264-0.52335 0.20306-0.3663 0.48684-1.1622 0.51904-1.4013 0.38692-0.88498 0.39776-0.78561 0.60575-1.0294 1.0685-1.4726 1.0695-1.319 1.359-1.6119 0.78028-0.81625 1.0314-0.9051 1.2135-0.7699 1.4344-0.60222 0.94661-0.24337 0.94643-0.12113 0.99717 0.020899 0.95539 0.20079 0.91101 0.4059 0.85132 0.57864 1.1914 1.1219 0.73939 0.86452 1.7106 2.2285 1.0163 1.0967 1.2101 0.86859 0.57929 0.26132 0.96083 0.28334 1.1179 0.16986 1.4326 0.054561 1.5572-0.068481 1.642-0.15035 2.7784-0.33915 5.8649-0.90686 9.2652-1.6809 0.82846-0.11709 0.40123-0.012085" stroke="#bdc660"/>
    </defs>
    <g clip-path="url(#p59d4f727f8)">
     <use y="280.512" fill="#bdc660" stroke="#bdc660" xlink:href="#m0481571aae"/>
    </g>
   </g>
  </g>
 </g>
 <defs>
  <clipPath id="p59d4f727f8">
   <rect x="7.2" y="7.2" width="218.3" height="266.11"/>
  </clipPath>
 </defs>
</svg>
