<?xml version="1.0" encoding="UTF-8"?>
<!DOCTYPE svg  PUBLIC '-//W3C//DTD SVG 1.1//EN'  'http://www.w3.org/Graphics/SVG/1.1/DTD/svg11.dtd'>
<svg width="238.12pt" height="280.51pt" version="1.1" viewBox="0 0 238.12 280.51" xmlns="http://www.w3.org/2000/svg" xmlns:xlink="http://www.w3.org/1999/xlink">
 <metadata>
  <rdf:RDF xmlns:cc="http://creativecommons.org/ns#" xmlns:dc="http://purl.org/dc/elements/1.1/" xmlns:rdf="http://www.w3.org/1999/02/22-rdf-syntax-ns#">
   <cc:Work>
    <dc:type rdf:resource="http://purl.org/dc/dcmitype/StillImage"/>
    <dc:date>2024-07-04T12:08:03.997435</dc:date>
    <dc:format>image/svg+xml</dc:format>
    <dc:creator>
     <cc:Agent>
      <dc:title>Matplotlib v3.7.1, https://matplotlib.org/</dc:title>
     </cc:Agent>
    </dc:creator>
   </cc:Work>
  </rdf:RDF>
 </metadata>
 <defs>
  <style type="text/css">*{stroke-linejoin: round; stroke-linecap: butt}</style>
 </defs>
 <g id="figure_1">
  <g id="patch_1">
   <path d="m0 280.51h238.12v-280.51h-238.12v280.51z" fill="none"/>
  </g>
  <g id="axes_1">
   <g id="PatchCollection_1">
    <defs>
     <path id="m594f376f7f" d="m129.09-243.38 0.077571 0.10281 0.089031 0.33209 0.16506 1.0408 0.6205 6.3866 0.10014 0.31878 0.16915 0.21503 0.2909 0.10006 0.38019-0.012767 0.44408-0.088712 2.0773-0.59646 1.6105-0.31238 0.36348-0.11343 0.26654-0.16197 0.17909-0.20774 0.069409-0.2382-0.050303-0.23815-0.11559-0.20473-0.42084-0.44649-1.0235-0.84005-0.10816-0.13164-0.039691-0.123 0.051806-0.12659 0.1945-0.14116 0.39942-0.13097 0.89669-0.086434 0.85889 0.061184 0.4749 0.080762 0.98067 0.24809 2.7674 0.87302 0.65787 0.15334-0.052998 0.08376-0.10465 0.37549-0.15532 1.0115-0.14295 2.4312 0.016503 1.4964 0.13457 1.4512 0.27675 1.3694 0.38429 1.1665 0.49762 1.1295 0.31463 0.61266 1.8713 3.205 0.80826 1.5786 0.64098 1.5014 2.0339 5.3281 0.43257 1.031 0.47231 1.0082 1.2016 2.3019 1.1455 1.8116 0.90189 1.2 0.68377 0.7383 0.4903 0.45792 0.81048 0.66402 0.6256 0.45213 1.5294 0.96531 3.1012 1.7452 3.1997 1.6342 1.586 0.74982 1.7678 0.77564 3.2638 1.219 1.17 0.51792 0.94937 0.5463 0.30793 0.22302 0.61973 0.58558 0.48369 0.69088 0.85956 1.7438 1.382 2.4918 0.68157 1.388 0.48778 1.2917 0.45546 1.3562 0.44309 1.5935 0.66971 2.7095 0.44586 1.3825 0.76704 1.6868 0.98376 1.6591 0.85232 1.2189 0.93362 1.2002 1.3618 1.5917 2.4211 2.5823 3.6186 3.6137 2.9813 2.8618 2.4979 2.3239 2.7985 2.4998 7.0402 5.9728 1.3881 1.2476 1.3052 1.3017 1.1789 1.3881 1.0011 1.5095 0.49884 0.98209 0.3428 0.80483 0.39269 1.084 0.61856 2.2145 0.44939 2.3081 0.30394 2.341 0.1257 1.5372 0.071643 1.4394 0.038998 3.1196 0.19967 1.1775 0.35499 2.7239 0.22459 2.1741 0.16825 2.3229 0.072965 2.3861-0.06179 2.3945-0.072287 0.96091-0.15846 1.4055-0.29152 1.8052-0.61364 2.7791-0.5342 2.011-1.6602 5.6938-0.56103 2.1196-0.3495 1.6694-0.16935 1.5152 0.014044 0.97294 0.17915 1.1437 0.31242 1.1179 1.251 3.5733 1.9436 5.8478 1.5899 4.4998 0.63188 1.6269 0.57394 1.2309 0.81567 1.3184 0.93474 1.2233 1.9213 2.2207 0.82802 1.0162 0.4921 0.73823 0.3845 0.9 0.14853 1.3225-0.080878 0.73624-0.11897 0.55465-0.19612 0.67204-0.54591 1.411-0.4366 0.90614-0.84663 1.4957-0.54736 0.86062-2.6312 3.8061-1.1441 1.821-0.67957 1.2284-0.61487 1.2617-0.43273 0.99552-0.5875 1.5437-0.57268 1.8132-0.35327 1.4046-0.27374 1.4297-0.20598 1.6449-0.06311 1.2471 0.035327 1.0391 0.098208 0.68694 0.14765 0.47801 0.10032 0.17029 0.21703 0.10347-0.002559 0.18606-0.12723 0.53313-0.32121 1.0417-0.34764 0.95967-0.43094 1.0475-0.69275 1.4509-0.82694 1.4505-0.81856 1.1989-1.1342 1.3513-0.73082 0.71845-0.88453 0.75137-1.1616 0.83306-0.892 0.5429-0.88333 0.46606-1.416 0.60747-1.036 0.33442-1.1101 0.25634-1.1274 0.1707-1.4917 0.1189-0.90503 0.026276-1.6406-0.018102-1.1299-0.052482-2.737-0.23302-2.9344-0.39749-2.4738-0.45753-1.8342-0.4231-1.7316-0.51984-1.5934-0.66228-0.43741-0.22975-0.78502-0.47894-0.74624-0.54367-0.94973-0.80532-0.51731-0.51632-1.1304-1.4107-2.8341-4.273-1.0537-1.458-0.98895-1.2688-1.3539-1.6134-1.7529-1.9636-0.75503-0.81129-1.0739-1.0245-2.4633-2.2042-1.88-1.5496-2.4825-1.927-2.0883-1.4218-2.1258-1.2562-0.9836-0.47284-0.6611-0.20424-0.65861-0.079707-1.0217 0.1491-0.99789 0.38276-0.7131 0.36777-0.91614 0.62801-1.6938 1.4019-0.73909 0.68863-1.5823 1.8984-0.50616 0.40679-0.22512 0.11104-0.33239 0.091337-0.2992 0.02143-0.68073-0.083027-1.3012-0.35842-2.1178-0.73713-0.65948-0.16384-0.62945-0.097237-1.2601-0.006578-1.0833 0.14191-1.078 0.24507-1.2315 0.38656-1.3311 0.52819-1.3525 0.63671-1.1538 0.61042-1.7453 1.0125-4.7233 2.9193-3.3166 1.8343-0.71018 0.46237-0.70991 0.5281-0.94095 0.76476-0.90487 0.84072-0.82216 0.93788-0.48676 0.69455-0.44115 0.73637-1.5994 3.0337-0.81506 1.7665-0.72125 1.9195-0.70886 2.1807-1.2033 3.9599-0.54918 1.5147-0.3375 0.82798-0.53737 1.1655-0.54862 1.0073-0.68995 1.026-0.91536 1.0165-0.97065 0.77798-0.964 0.51358-0.89446 0.20601-0.68155-0.1253-0.13975-0.077758-0.44127-0.42733-0.24158-0.38531-0.38298-0.89502-0.5428-1.7635-0.41878-1.6785-0.41612-2.0084-0.34777-2.3061-0.09901-1.0943-0.039982-1.0492 0.027274-1.0506 0.053682-0.61508 0.067549-0.49823 0.34061-1.516 0.81566-2.8409 0.15035-0.83293 0.055485-0.68371-0.016005-1.0126-0.21076-1.5557-0.23291-0.97095-0.39439-1.1977-0.63392-1.5294-0.61612-1.2937-1.2642-2.4023-1.317-2.2988-3.0808-4.9721-0.77541-1.41-1.2077-2.3319-0.53943-0.93303-3.2267-5.0419-0.71806-1.0611-0.9079-1.1913-0.3642-0.42551-0.56839-0.60005-0.51125-0.46586-0.82252-0.58974-0.68385-0.34464-0.80448-0.27478-0.72814-0.15606-0.71987-0.086596-0.75968-0.031159-0.96797 0.035507-0.77708 0.080525-1.1863 0.19157-1.2244 0.26075-2.1173 0.54845-1.6116 0.48266-1.7465 0.59568-1.182 0.4539-5.2091 2.2179-0.9729 0.37865-1.4964 0.51713-2.1966 0.64058-2.0969 0.50759-1.2456 0.25482-2.0061 0.31364-0.64618 0.042102-0.32884-0.091492 0.076588-0.11532-0.014523-0.38998-0.074687-0.44048-0.71142-3.1144-0.32677-1.9261-0.11571-1.5475 0.08375-1.5531 0.16304-0.8891 0.35983-1.2464 0.67519-1.7012 1.8519-3.9939 0.75261-1.8629 0.57821-1.9039 0.30521-1.3291 0.20867-1.4663 0.007577-1.3443-0.3087-1.4772-0.24454-0.6424-0.42305-0.84175-0.22341-0.34761-0.37188-0.46956-0.85769-0.76403-0.83037-0.4514-0.53867-0.17159-0.40437-0.072625-1.1684 0.017762-1.2492 0.27246-1.2782 0.44358-1.319 0.55752-3.7454 1.6974-1.2016 0.4768-3.9656 1.3139-2.3938 0.73775-0.85518 0.19794-0.51857 0.075919-0.67002 0.045909-0.79034-0.03883-0.71981-0.17718-0.42687-0.20714-0.47671-0.35258-0.21785-0.21473-0.67226-0.93232-0.748-1.4289-0.53262-1.2887-0.46788-1.4068-1.4427-4.9151-0.5641-2.2967-0.37665-1.9769-0.29757-2.0439-0.46179-3.9125-0.19103-1.2088-0.42054-1.8917-0.43588-1.383-0.63007-1.4452-0.37812-0.72876-1.1265-1.86-1.2234-1.71-1.186-1.4599-0.96566-1.0501-0.49213-0.38928 0.41673-0.18211 0.62074-0.036542 1.3252 0.014434 1.6041 0.096848 1.7401 0.20865 3.1671 0.62356 1.592 0.27931 1.0403 0.1176 1.5651 0.10036 1.4636 0.044463 1.6309-0.03694 1.5956-0.11774 1.5326-0.17421 1.387-0.22359 1.0959-0.28378 1.3702-0.51821 1.6367-0.78765 1.0595-0.60107 0.9178-0.58178 0.98384-0.68944 1.4313-1.083 1.0689-0.73412 1.2457-0.65636 2.0739-0.95583 0.88054-0.48771 0.95318-0.63787 0.52911-0.41531 0.73982-0.66798 0.52804-0.53811 0.81664-0.92736 0.61684-0.77886 0.88886-1.3036 0.46248-0.84408 1.0904-2.5889 0.63693-1.1798 0.77502-1.1251 0.8847-1.0283 0.9705-0.88454 0.74997-0.53962 1.7581-1.1706 0.87497-0.71575 0.73413-0.78524 0.43615-0.65536 0.31322-0.72579 0.60259-2.1658 0.31301-0.77852 0.2662-0.47326 0.31303-0.42156 0.3882-0.39275 1.1706-0.8931 0.54286-0.51859 0.2049-0.24184 0.27474-0.41605 0.16872-0.36372 0.14832-0.47703 0.1188-0.67033 0.033501-0.6814-0.075589-1.0354-0.12416-0.65786-0.19152-0.61639-0.22793-0.51316-0.38513-0.6458-0.57808-0.72021-0.62083-0.57149-0.63932-0.45189-0.45551-0.2608-0.90776-0.41195-1.7089-0.62852-0.91729-0.38284-1.0939-0.56318-0.99945-0.63141-0.64661-0.52284-0.77007-0.8209-0.79428-1.0648-0.50644-0.77528-0.43468-0.75182-0.47663-0.9314-2.312-5.12-1.1615-2.3613-0.82595-1.5058-1.7853-2.957-1.0523-1.8706-0.83587-1.6678-1.002-2.3147-0.76653-1.4765-0.96693-1.6333-1.8858-3.0209-0.60278-1.0785-0.54233-1.2765-0.23487-0.94619-0.063462-0.56841-8.14e-4 -0.9271 0.10568-0.9258 0.33076-2.0066 0.098553-2.3767 0.2053-1.1431 0.25698-0.89177 0.25004-0.62696 0.47797-0.92678 1.8505-3.033 0.60896-0.88548 0.93498-1.1159 1.0066-1.1251 0.96108-1.2301 0.73593-1.2329 0.6542-1.3517 0.66326-1.5619 0.63404-1.6197 1.5808-4.1898 0.71138-2.0582 0.75204-2.43 0.41901-1.5307 0.26942-1.4029 0.24057-1.8566 0.15928-2.3068 0.020767-1.0468-0.02873-1.5446-0.19394-2.2237-0.20282-1.2618-0.20799-0.99456-0.34332-1.3343-0.38031-1.2576-1.6615-4.9736-3.4423-10.721-0.25664-0.85186-0.022429-0.26523 0.00755-0.066182 0.35576-0.057347 0.24409 0.037507 0.74881 0.21675 5.5537 2.2964 1.8919 0.86811 1.5932 0.83202 4.34 2.3844 5.2322 3.0852 2.4737 1.4104 1.5083 0.79385 1.6926 0.78695 1.7729 0.6778 1.1267 0.34948 5.8841 1.5774 0.86248 0.2027 1.5766 0.26894 1.5528 0.12357 1.5689-0.021048 1.3486-0.062695 4.6706-0.32886 0.82113-0.12504 0.51646-0.1317 0.60088-0.22347 0.6901-0.37631 0.47217-0.32841 1.6818-1.3814 0.47466-0.31874 0.87506-0.36849 0.57379-0.087351 0.51025-0.003608 0.77596 0.081846 2.6325 0.49532 0.98439 0.13308 6.3201 0.4891 0.75637 0.039146 1.0622-0.003923 2.2062-0.21044 1.0028 0.081575 0.3583 0.10597 0.4418 0.19219 0.76964 0.48607 0.7541 0.63653 0.5123 0.50852 1.7149 1.8941 0.5346 0.45846 0.46629 0.30472 0.39882 0.19213 0.45903 0.15145 0.75303 0.10468 0.54499-0.043859 0.25055-0.06973 0.28524-0.15469 0.17087-0.18957" stroke="#bdc660"/>
    </defs>
    <g clip-path="url(#pbe07940d74)">
     <use y="280.512" fill="#bdc660" stroke="#bdc660" xlink:href="#m594f376f7f"/>
    </g>
   </g>
  </g>
 </g>
 <defs>
  <clipPath id="pbe07940d74">
   <rect x="7.2" y="7.2" width="223.72" height="266.11"/>
  </clipPath>
 </defs>
</svg>
