<?xml version="1.0" encoding="UTF-8"?>
<!DOCTYPE svg  PUBLIC '-//W3C//DTD SVG 1.1//EN'  'http://www.w3.org/Graphics/SVG/1.1/DTD/svg11.dtd'>
<svg width="191.71pt" height="280.51pt" version="1.1" viewBox="0 0 191.71 280.51" xmlns="http://www.w3.org/2000/svg" xmlns:xlink="http://www.w3.org/1999/xlink">
 <metadata>
  <rdf:RDF xmlns:cc="http://creativecommons.org/ns#" xmlns:dc="http://purl.org/dc/elements/1.1/" xmlns:rdf="http://www.w3.org/1999/02/22-rdf-syntax-ns#">
   <cc:Work>
    <dc:type rdf:resource="http://purl.org/dc/dcmitype/StillImage"/>
    <dc:date>2024-07-04T12:07:37.232180</dc:date>
    <dc:format>image/svg+xml</dc:format>
    <dc:creator>
     <cc:Agent>
      <dc:title>Matplotlib v3.7.1, https://matplotlib.org/</dc:title>
     </cc:Agent>
    </dc:creator>
   </cc:Work>
  </rdf:RDF>
 </metadata>
 <defs>
  <style type="text/css">*{stroke-linejoin: round; stroke-linecap: butt}</style>
 </defs>
 <g id="figure_1">
  <g id="patch_1">
   <path d="m0 280.51h191.71v-280.51h-191.71v280.51z" fill="none"/>
  </g>
  <g id="axes_1">
   <g id="PatchCollection_1">
    <defs>
     <path id="mf8c8b7662d" d="m148.52-246.72 0.78172 0.7492 1.1885 1.2291 0.85973 0.76431 0.63553 0.48802 0.73187 0.5008 3.4864 2.172 1.3633 0.92054 0.76767 0.5822 0.49192 0.41837 0.65248 0.62172 0.53361 0.56617 0.60377 0.69613 0.5337 0.67542 0.55038 0.79152 0.42638 0.70462 0.33228 0.62154 0.28496 0.62083 0.62522 1.6995 0.30114 0.70466 0.41113 0.7603 0.58752 0.87287 1.6177 2.031 0.74408 1.0149 0.38487 0.59341 0.50821 0.93318 0.33727 0.81536 0.14667 0.48743 0.11002 0.92317-0.042098 0.43999-0.16933 0.66132-0.30387 0.72411-0.32882 0.60978-1.3416 2.1963-0.35455 0.65768-0.41474 0.89834-0.33483 0.94288-0.22389 0.97713-0.055178 0.43107-0.035331 0.68142 0.011067 0.49857 0.069245 0.72881 0.14877 0.81987 0.23566 0.88129 0.29617 0.86407 0.54834 1.3189 0.61225 1.2877 0.80106 1.5597 2.4838 4.5744 1.7461 3.1317 1.7566 3.0283 2.4803 4.124 0.35564 0.64628-1.5522 0.2588-2.7867 0.53309-2.6947 0.5386-2.127 0.46166-1.2066 0.31784-0.69533 0.23384-0.61902 0.28873-0.25558 0.1793-0.18993 0.20834-0.093952 0.18866-0.051308 0.28098 0.030171 0.28745 0.28306 0.93685 0.059626 0.34332-0.005324 0.41735-0.07223 0.43983-0.26262 0.89894-0.69638 1.8967-0.33738 1.0473-0.55433 2.1361-0.58325 2.6564-0.27651-0.2434-0.76179-0.56827-3.5696-2.5262-5.4348-4.0586-2.8683-2.2449-0.89074-0.63296-0.87225-0.52382-0.86051-0.37859-0.98178-0.23847-0.955-0.13356-0.90741-0.16392-0.83577-0.32879-0.75633-0.60558-0.68882-0.83568-0.63178-0.97298-0.38256-0.67557-0.36891-0.71271-1.4123-3.0123-0.65869-1.3103-0.58284-1.0535-0.53898-0.87913-0.57158-0.84611-0.76291-1.0212-0.80345-0.94842-0.69588-0.71533-0.87849-0.77376-0.63681-0.46355-0.68533-0.4062-0.3081-0.15598-0.69149-0.27943-0.72948-0.18339-1.1307-0.069768-1.1964 0.12598-1.2475 0.27539-1.287 0.38942-1.3169 0.47687-1.3381 0.54471-1.3503 0.59832-1.3517 0.64173-1.3387 0.67772-1.3054 0.7078-1.2429 0.73202-1.1388 0.74844-0.97717 0.75202-0.74023 0.73253-0.41378 0.6706-0.042654 0.47401 0.24072 0.25456-0.19353-0.018405-0.59645 0.08387-1.2988 0.32007-0.86849 0.28894-0.90119 0.36661-1.2075 0.61354-1.1745 0.73325-1.2764 0.92914-1.2121 0.94064-2.3832 1.9506-2.1073 1.8352-1.0077 0.93388-0.96693 0.95047-1.1108 1.1905-1.0831 1.3215-0.76456 1.0818-2.1088 3.2298-0.74403 0.97655-0.81717 0.87096-0.88811 0.72471-0.74409 0.50919-1.9455 1.1596-1.5403 0.82638-0.70922 0.31619-0.36868 0.13227-0.82635 0.19193-0.77043 0.041986-0.5476-0.060321-1.0494-0.17187-0.49047 0.008413-0.23289 0.037134-0.56945 0.18342-0.72884 0.46578-0.55641 0.51256-0.70917 0.82628-0.71376 1.0396-0.34434 0.59187-0.59156 1.1959-0.53938 1.2989-0.50047 1.3809-0.78606 2.4716-1.1652 4.063-1.5336 5.6264-0.18766 0.55178-0.3659 1.2998-0.29152 1.3314-0.22082 1.3302-0.11826 1.214-0.004338 0.65021 0.068744 0.67299 0.16329 0.63207 0.26108 0.56794 0.35199 0.52713 0.65065 0.71303 0.77265 0.6543 0.93145 0.65576 1.0016 0.61671 0.81278 0.46016 4.2775 2.2375 1.8451 1.0338 0.87419 0.54818 0.98083 0.69828 0.88546 0.76486 0.75554 0.85737 0.54814 0.87291 0.44182 0.94496 0.38986 1.0621 1.0941 3.6795 0.24452 0.70683 0.26892 0.64343 0.30347 0.55968 0.43197 0.52538 0.23738 0.17811 0.31662 0.16116 0.63057 0.17621 0.7077 0.063477 0.75742-0.036546 0.78189-0.12997 0.89354-0.25148 1.0177-0.36815 0.63376-0.27524 0.63845-0.33679 3.8234-2.2128 1.0692-0.71402 2.037-1.5186 0.98422-0.66345 1.071-0.67259 1.6128-0.90082 0.56004-0.2627 0.24947-0.052961 0.11413-0.077744 0.26342-0.044482 0.35 0.013537 0.34494 0.076063 0.3619 0.13126 0.73653 0.38432 0.7201 0.48799 0.40989 0.31831 0.78567 0.67172 0.74811 0.69125 3.4694 3.3711 2.5266 2.3338 0.61564 0.61744 0.58231 0.66568 0.51796 0.6905 0.68394 1.0783 0.61942 1.1046 0.56924 1.1419 0.32506 0.75473 0.359 1.0038 0.38045 1.2972-0.054079 0.13292-1.1348 4.5017-0.40196 1.3734-0.43405 1.249-0.49312 1.1242-0.31746 0.57456-0.34923 0.504-0.39019 0.41361-0.44366 0.297-0.50809 0.16026-0.55947 0.048018-0.59649-0.034417-0.62273-0.094533-1.2393-0.29294-5.0083-1.5509-1.42-0.39224-0.89544-0.21035-1.6777-0.32032-1.0782-0.12972-0.51578-0.026145-0.55567 0.012208-0.50426 0.068842-0.43922 0.14548-0.33842 0.24594-0.12515 0.17214-0.1218 0.2666-0.15688 0.62076-0.33595 2.2338-0.22872 1.0899-0.28344 0.89825-0.19885 0.44566-0.10803 0.15578-0.090108 0.025812-0.26218 0.2511-0.35717 0.18144-0.42022 0.1205-0.51741 0.054338-0.32086-0.017932-0.36329-0.074424-0.68445-0.34737-0.4466-0.4798-0.36783-0.59421-1.5348-2.9418-0.68433-0.97082-0.86208-0.73793-0.80237-0.39766-0.86562-0.22029-0.92567-0.05122-2.1336 0.11186-1.2131 0.1099-1.2343 0.19932-1.2407 0.31595-2.4164 0.70521-3.0405 1.0066-1.1194 0.44681-1.4331 0.7028-1.3131 0.79466-1.0868 0.78593-0.97065 0.84036-0.68518 0.72428-0.55963 0.75297-0.51273 1.0911-0.15221 1.1729 0.028231 0.42972 0.20211 0.89392 0.3698 0.88446 0.68207 1.1475 0.57542 0.84254 0.8936 1.2033 1.1306 1.3266 0.90212 0.91576 0.94148 0.86096 1.7865 1.5229 0.82463 0.78674 0.50399 0.63371 0.41139 0.68476 0.46212 1.0726 0.80976 2.1365 0.40844 0.86796 0.47056 0.87333 0.719 1.2166 1.0124 1.5695 0.56902 0.80377 2.2718 3.0279 0.73735 1.0466 1.3127 2.0516 2.786 4.7038 1.2891 2.0727 1.4859 2.2448 1.4485 1.9947 0.75258 0.92929 0.59142 0.6626 0.59915 0.59982 0.72866 0.61798 0.74317 0.48666 0.31368 0.15847 0.47066 0.19614 1.5799 0.51783 0.56226 0.22484 0.53728 0.29486 0.78992 0.66848 0.51465 0.6124 0.47977 0.70744 0.54647 0.95823 0.44264 0.87327 0.87372 1.968 0.3557 0.91503 1.0815 3.0235 2.0863 6.0047 0.452 1.1996 0.56943 1.3597 0.32132 0.68427 0.66432 1.2579 0.69429 1.1414 0.75801 1.0863 0.83477 1.0378 1.2629 1.2988 0.95675 0.78549 1.2498 0.7939 1.4483 0.62835 1.0409 0.25294 0.91413 0.050392 0.87327-0.16378 0.29891-0.27696 2.2373 3.0095 0.51038 0.74026 1.8428 3.1371 0.55548 1.0671 0.24075 0.67572 0.027516 0.45562-0.24842 1.3747-0.15832 0.43731-19.567-4.0688-3.1516-0.67238-2.9433-0.67177-2.5997-0.69233-1.0977-0.36463-0.9033-0.38568-0.64708-0.41603-0.28744-0.33186-0.45417-0.94762-0.35409-0.57082-1.7942-1.8776-0.53936-0.62845-0.51575-0.67544-0.5563-0.86822-0.54992-1.0254-0.37271-0.76743-0.30028-0.75308-0.43835-1.4582-0.30831-1.4319-0.23286-1.5498-0.21323-2.5924-0.20875-1.1126-0.173-0.58721-0.49869-1.1689-1.2381-2.2912-0.58892-1.1574-0.62323-1.4338-0.55011-1.5028-0.47258-1.5261-0.38372-1.49-0.2768-1.3714-0.16898-1.4671-5.95e-4 -0.44325 0.045123-0.1322 0.27578-0.001378 0.48996-0.18748 0.55645-0.34247 0.51165-0.48789 0.31497-0.47384 0.23617-0.5425 0.1615-0.593 0.090497-0.60342 0.034272-0.62403-0.015441-0.63527-0.055524-0.60195-0.22422-1.2305-0.36622-1.224-0.23097-0.58262-0.26803-0.55915-0.44045-0.73961-1.4756-2.0494-0.43735-0.6728-0.35581-0.68797-0.20342-0.55043-0.43258-1.7611-0.15079-0.51697-0.19636-0.47253-0.31102-0.49704-0.69553-0.91058-0.62768-1.0442-0.41-0.77444-0.34595-0.81561-0.40815-0.81694-0.2818-0.455-0.96909-1.3851-1.0772-1.3985-0.48782-0.68701-2.1545-3.4342-2.7681-4.2682-0.29436-1.702-0.36763-1.397-0.32544-0.98253-0.75347-1.9775-0.32327-0.64003-0.36888-0.58873-0.40833-0.52202-0.44425-0.43667-0.47936-0.32831-0.51632-0.19138-0.46634-0.037326-0.47492 0.058686-0.49092 0.13319-0.66229 0.26095-1.3876 0.70949-1.9366 1.0985-1.498 0.79501-1.1048 0.49493-0.51815 0.19319-1.1876 0.34488-0.66665 0.13592-0.63721 0.090893-0.63224 0.049985-0.62295 0.004521-0.47571-0.032417-0.46421-0.068414-0.59492-0.15413-0.53828-0.21822-0.49862-0.28767-0.58429-0.4912-0.57068-0.74492-0.36287-0.66833-0.25417-0.58414-0.43439-1.261-0.45062-1.6818-0.37332-1.6503-0.48163-2.3764-0.83836-4.5575-0.12876-0.58029-1.4042-5.344-0.46573-2.0219-0.76568-3.5786-0.31733-1.0674-0.1387-0.30914-0.1668-0.26925-0.20534-0.21427-0.24805-0.14606-0.28246-0.096936-0.91368-0.19454-0.27997-0.096417-0.24078-0.14732-0.19143-0.22193-0.1917-0.42195-0.18181-0.70691-0.29567-1.8481 0.10681-0.10985 0.95316-0.74294 0.57232-0.59979 0.5939-0.74642 0.97266-1.3877 2.2193-3.4283 2.7963-4.4879 1.9125-3.1538 1.681-2.9055 0.95862-1.8032 0.42573-0.88259 0.59191-1.4346 0.18106-0.55856 0.39222-1.5786 0.7062-2.5205 0.21782-0.97215 0.10237-0.79359-0.003614-0.76589-0.14769-0.72471-0.34866-0.71738-0.4704-0.62556-0.57014-0.59827-2.0689-1.8418-0.71804-0.70268-0.52362-0.61487-0.43069-0.66239-0.20367-0.43544-0.22322-0.72906-0.13336-0.78687-0.20058-2.8964-0.16093-1.2241-0.18475-0.92893-0.25402-1.0153-0.50528-1.6552-0.25752-0.7009-0.44594-1.0175-0.28081-0.50013-0.31502-0.38207-0.23075-0.074131-0.090331-0.086635-0.17406-0.48405-0.24627-0.98842-0.25956-1.2773-0.24349-1.4148-0.21179-1.5049-0.15931-1.5432-0.086655-1.5454-0.046883-4.8785-0.114-3.396-0.10151-1.5777-0.14535-1.5427-0.20224-1.495-0.30711-1.6051-0.37881-1.5081-0.43675-1.3859-0.18102-0.48766-0.32556-0.73306-0.42075-0.74091-0.51875-0.74466-0.58003-0.64361-0.65909-0.5085-0.86656-0.38501-0.94498-0.19803-0.48694-0.041279-2.2425-0.051286-1.1611-0.1469-0.97688-0.31141-0.22565-0.11331-0.86261-0.63501-0.7301-0.83696-0.6-0.97328-0.46328-1.0525-0.3106-1.0799-0.069946-0.38106-0.26283-2.5483-0.11249-0.42796-0.34387-0.8068-1.1965-2.0078-0.5325-1.0577-0.47748-0.87017-0.5711-0.72992-0.20301-0.19157-0.29549-0.23652-0.49717-0.31469-0.97087-0.41775-1.1534-0.29828-0.82838-0.12425-0.82808-0.06632-0.65936-0.018236-0.97017 0.018298-2.0239 0.16104-4.1843 0.54701-1.2904 0.14171-1.0322 0.054883-0.68514-0.078384-0.051803-0.098986 3.2487-1.3647 1.3226-0.58752 0.76599-0.36892 0.80208-0.43265 0.82193-0.53538 0.77629-0.62444 0.58641-0.57742 0.90228-1.0673 1.4794-1.9654 0.63988-0.79672 0.89751-0.98061 1.0541-0.94765 0.79117-0.60062 1.2161-0.7938 4.8623-2.8115 2.1237-1.1695 1.564-0.51702 1.5722-0.42873 2.6924-0.62626 2.8732-0.59823 1.8211-0.3462 1.7215-0.26817 1.5465-0.158 1.0483-0.039845 1.4245 0.058907 1.4197 0.19308 1.0874 0.23798 2.4477 0.67981 1.5086 0.37238 1.7597 0.31049 1.8644 0.22986 1.3337 0.1026 1.7876 0.068153 5.0808-0.024516 1.8136 0.018576 1.5101 0.065643 1.0035 0.094185 0.067718-0.072986 0.16902-0.011042 0.25415 0.02742 0.74514 0.15727 1.0943 0.31708 1.4789 0.52794 1.6093 0.64851 5.0604 2.1789 1.6665 0.67489 2.0747 0.74974 1.4214 0.44636 1.0756 0.28788 0.97238 0.20871 0.81733 0.1249 0.70032 0.053886 0.56548-0.004345 0.64951-0.076109 0.57425-0.16008 0.28377-0.12016 0.35515-0.19426 0.45076-0.32296 0.31059-0.27281 0.47937-0.49128 3.1121-3.6892 2.6655-2.9819 0.92502-1.228 0.53783-0.82462 0.6803-1.1595 1.0016-1.9211 1.0357-2.2079 1.5307-3.3995 0.85163-1.7128 0.48087-0.84027 0.45817-0.69537 0.51061-0.64487 0.43121-0.43702 0.35013-0.29135 0.77955-0.4985 0.8021-0.38751 1.2339-0.47266 2.9295-1.0038 1.7726-0.69292 0.56829-0.25698 1.9574-1.013 2.723-1.529 1.095-0.53369 0.51482-0.20146 0.90766-0.28622 1.38-0.29737 0.8641-0.1228 0.98327-0.097804 0.94765-0.056932 0.68554-0.00416 1.4538 0.12342 1.3662 0.26395 0.8883 0.23636 0.88142 0.27968 1.1362 0.42543 1.1008 0.49 1.1116 0.59342 1.0251 0.67274 0.90697 0.76071 0.58439 0.64004 0.47821 0.70099 0.31507 0.64739 0.31221 0.92383 0.20682 0.89237 0.14506 0.91227 0.19659 1.6094 0.20617 1.2613 0.17413 0.72248 0.22801 0.67494 0.16186 0.36201 0.2757 0.48345 0.30958 0.40248 0.41813 0.36087 0.39488 0.1276 0.21675-0.067188" stroke="#bdc660"/>
    </defs>
    <g clip-path="url(#padc3293d2f)">
     <use y="280.512" fill="#bdc660" stroke="#bdc660" xlink:href="#mf8c8b7662d"/>
    </g>
   </g>
  </g>
 </g>
 <defs>
  <clipPath id="padc3293d2f">
   <rect x="7.2" y="7.2" width="177.31" height="266.11"/>
  </clipPath>
 </defs>
</svg>
