<?xml version="1.0" encoding="UTF-8"?>
<!DOCTYPE svg  PUBLIC '-//W3C//DTD SVG 1.1//EN'  'http://www.w3.org/Graphics/SVG/1.1/DTD/svg11.dtd'>
<svg width="173.57pt" height="280.51pt" version="1.1" viewBox="0 0 173.57 280.51" xmlns="http://www.w3.org/2000/svg" xmlns:xlink="http://www.w3.org/1999/xlink">
 <metadata>
  <rdf:RDF xmlns:cc="http://creativecommons.org/ns#" xmlns:dc="http://purl.org/dc/elements/1.1/" xmlns:rdf="http://www.w3.org/1999/02/22-rdf-syntax-ns#">
   <cc:Work>
    <dc:type rdf:resource="http://purl.org/dc/dcmitype/StillImage"/>
    <dc:date>2024-07-04T12:07:53.685827</dc:date>
    <dc:format>image/svg+xml</dc:format>
    <dc:creator>
     <cc:Agent>
      <dc:title>Matplotlib v3.7.1, https://matplotlib.org/</dc:title>
     </cc:Agent>
    </dc:creator>
   </cc:Work>
  </rdf:RDF>
 </metadata>
 <defs>
  <style type="text/css">*{stroke-linejoin: round; stroke-linecap: butt}</style>
 </defs>
 <g id="figure_1">
  <g id="patch_1">
   <path d="m0 280.51h173.57v-280.51h-173.57v280.51z" fill="none"/>
  </g>
  <g id="axes_1">
   <g id="PatchCollection_1">
    <defs>
     <path id="m025b3831ed" d="m129.75-219.72 3.6236 1.3696 1.1468 0.5308 0.75028 0.40692 1.6127 1.0959 1.9363 1.6731 1.9877 1.965 1.5398 1.6111 1.6088 1.9075 1.1059 1.6467 0.73533 1.5001 0.58766 1.5748 0.4931 1.62 1.282 4.8039 0.46527 1.542 0.44826 1.2684 0.51077 1.2033 0.59035 1.1195 0.81793 1.1887 0.93565 1.0202 1.0135 0.8368 2.0472 1.5203 0.81344 0.76432 0.72186 0.8254 0.62152 0.85564 0.24802 0.3978 0.4721 0.99074 0.26111 1.0464 0.017326 1.0553-0.14699 1.0886-0.43359 2.2704-0.11434 1.1833 0.052462 1.2269 0.19005 1.1735 0.56327 2.2803 0.2829 1.4427 0.1114 1.2055-0.025377 1.1039-0.20171 1.397-0.22811 0.95997-0.28976 0.97828-1.147 3.236-0.55964 1.8829-0.33969 1.8662-0.067704 1.7737 0.14154 1.7839 0.30317 1.7379 0.41686 1.6126 0.4756 1.3732 0.46264 0.96986 0.34534 0.33735-0.007475 0.092014-0.47056 0.11535-3.3362 0.43379-1.5179 0.25283-2.5552 0.62362-2.1568 0.83246-1.2638 0.69788-0.47307 0.31867-1.4835 1.259-1.3645 1.6404-1.1537 1.9556-0.9273 2.2178-0.68389 2.3738-0.30568 1.5349-0.241 1.9478-0.075623 1.6858 0.044024 1.7197 0.24232 2.4033 0.29155 1.8061 0.96088 4.7221 1.0189 4.4993 1.0708 3.9119 0.94398 2.7021 0.5352 1.2325 0.60587 1.1288 0.65209 0.92721 0.67409 0.71654 0.81525 0.68569 2.0136 1.461 0.97276 0.80333 0.52685 0.51638 0.92691 1.1371 0.73133 1.1434 1.1015 2.1944 1.395 3.2781 0.83515 2.2864 0.54469 2.3972 0.31674 2.4178 0.20954 2.8341 0.28494 6.5705 0.21222 2.509 0.26868 1.4872 0.63264 2.2642 0.336 1.6508 0.05731 0.8683-0.050674 0.92464-0.22178 1.0062-0.39248 0.93618-0.61544 1.05-0.80787 1.1524-4.442 5.7058-0.79329 0.85781-2.2739 2.022-0.75845 0.89023-0.35619 0.54969-0.26048 0.59991-0.10785 0.69166 0.028264 1.1956-0.040871 0.34166-0.2446 0.7398-0.40008 0.67014-0.61216 0.75101-1.406 1.4491-0.74768 0.85132-0.60457 0.79913-0.80664 1.2943-1.1474 2.3473-0.43612 0.73295-0.37928 0.49632-0.34565 0.36512-1.0279 0.83805-1.8126 1.3357-0.78053 0.70328-0.6362 0.70031-0.66802 0.90577-0.50076 0.80089-1.6413 2.8072-0.48177 0.72637-0.65842 0.84402-1.2367 1.257-1.4169 1.1685-0.97081 0.65016-1.4085 0.70949-1.4079 0.43925-1.374 0.27962-2.7786 0.49068-2.1932 0.30091-1.9577 0.072942-5.9406-0.20832-3.082 0.031356-1.4137 0.085772-3.4972 0.35202-6.3173 0.22249-2.0562 0.15829-1.2953 0.16744-1.8669 0.34213-3.9609 0.93067-3.8719 0.40466-3.7419 1.0395-1.1546 0.14825-3.8667 0.23682-1.8307 0.29886-4.1167 1.1207-1.1432 0.39338-0.972 0.48872-0.10954 0.15885-0.22999 0.092197-0.37734 0.029689-0.45991-0.058496-0.88454-0.3158-0.7044-0.40693-3.3149-2.2575-3.3934-2.1025-1.2084-0.67631-1.3683-0.55904-0.45199-0.10194-1.1364-0.035872-1.7693 0.23884-2.1779 0.63394-0.38685-0.012059-0.3567-0.14938-0.33749-0.34467-0.27001-0.56733-0.17893-0.76002-0.1765-1.4687-0.21608-1.1561-0.40595-1.0607-0.29674-0.49714-0.36595-0.46492-0.64451-0.605-0.75129-0.53343-0.92386-0.52534-1.7944-0.80009-1.6591-0.59473-1.8641-0.56807-2.9441-0.7691-2.9528-0.85201-1.813-0.34561-1.6026-0.08164-1.962 0.14796-1.4677 0.3568-0.9795 0.43996-0.16764 0.16996-0.087276-0.18485-0.22039-1.0755-0.18975-1.3846-0.13533-1.4464-0.092846-1.9604 0.001029-1.725 0.25456-3.4367 0.34411-2.0691 0.51084-2.0421 0.75988-2.118 1.3252-2.478 1.5103-1.8927 1.6477-1.552 1.5492-1.1976 1.7155-1.15 1.8492-1.1165 9.4448-5.1719 3.3396-1.9644 1.5087-0.95265 3.9042-2.6821 1.4551-1.0981 2.2276-1.86 1.9261-1.9505 1.5152-2.0906 0.71973-1.4586 0.54075-1.5163 0.53366-2.1109 1.484-7.3441 0.23989-2.0342-6.09e-4 -1.3983-0.12353-1.4422-0.41066-2.4004-0.86728-3.3911-0.91577-2.9255-1.9589-5.5004-1.5404-4.7104-1.7851-6.1946-2.4214-9.1356-0.54758-1.6678-0.89598-2.0916-0.49875-0.94087-0.84296-1.345-1.3327-1.7107-0.99725-1.0639-1.8706-1.6697-1.393-1.0674-5.3116-3.7405-1.619-1.265-2.0112-1.7425-2.7647-2.7567-1.169-1.3256-1.0858-1.3486-1.4179-2.0113-1.1339-1.9888-0.7166-1.6847-0.50648-2.1492-0.047203-0.82738 0.080614-1.2948 0.22762-1.2828 0.83909-3.5988 0.12679-0.9096 0.056649-1.4183-0.096359-1.3338-0.35719-2.0439-0.4426-1.6952-0.60361-1.8507-0.58143-1.5277-1.1734-2.6696-0.81818-1.6304-1.153-2.0663-1.1001-1.7892-1.4823-2.2055-2.0353-2.7448-1.3904-1.7258-2.4319-2.8298-2.3565-2.5863 0.62086 0.25657 1.4316 0.42642 1.8879 0.4128 2.1037 0.26258 2.1555 0.002003 2.0911-0.3626 0.54325-0.17404 1.1661-0.49178 1.5369-0.8702 1.2743-0.89141 1.7605-1.4272 2.4506-2.2282 3.1777-3.141 5.3345-5.5895 5.4728-5.8994 4.7279-5.3085 7.103-8.1661 4.3567-4.7834 3.064-3.0133 1.6212-1.4064 1.6673-1.2806 1.86-1.2411 1.9451-1.148 2.0147-1.0809 2.0735-1.0341 4.2964-1.9858 4.471-1.9364 4.6176-1.9152 4.5589-1.817 9.4692-3.6428 1.4591 1.8632 1.7035 2.542 1.5767 2.8191 1.3569 2.9153 0.77243 1.9331 0.92579 2.7474 1.5941 5.3058 1.872 6.626 0.74979 2.3505 0.49336 1.3261 0.62309 1.4535 0.77291 1.5744 1.2217 2.1857 0.86519 1.3782 1.1693 1.6338 0.63586 0.75752 0.71873 0.72669 0.78074 0.61947 0.99193 0.52588 0.83895 0.23942 0.86386 0.11139 0.84201 0.015977 1.6311-0.15487" stroke="#bdc660"/>
    </defs>
    <g clip-path="url(#p0f8ada0183)">
     <use y="280.512" fill="#bdc660" stroke="#bdc660" xlink:href="#m025b3831ed"/>
    </g>
   </g>
  </g>
 </g>
 <defs>
  <clipPath id="p0f8ada0183">
   <rect x="7.2" y="7.2" width="159.17" height="266.11"/>
  </clipPath>
 </defs>
</svg>
