<?xml version="1.0" encoding="UTF-8"?>
<!DOCTYPE svg  PUBLIC '-//W3C//DTD SVG 1.1//EN'  'http://www.w3.org/Graphics/SVG/1.1/DTD/svg11.dtd'>
<svg width="371.52pt" height="252.39pt" version="1.1" viewBox="0 0 371.52 252.39" xmlns="http://www.w3.org/2000/svg" xmlns:xlink="http://www.w3.org/1999/xlink">
 <metadata>
  <rdf:RDF xmlns:cc="http://creativecommons.org/ns#" xmlns:dc="http://purl.org/dc/elements/1.1/" xmlns:rdf="http://www.w3.org/1999/02/22-rdf-syntax-ns#">
   <cc:Work>
    <dc:type rdf:resource="http://purl.org/dc/dcmitype/StillImage"/>
    <dc:date>2024-07-04T12:07:57.000041</dc:date>
    <dc:format>image/svg+xml</dc:format>
    <dc:creator>
     <cc:Agent>
      <dc:title>Matplotlib v3.7.1, https://matplotlib.org/</dc:title>
     </cc:Agent>
    </dc:creator>
   </cc:Work>
  </rdf:RDF>
 </metadata>
 <defs>
  <style type="text/css">*{stroke-linejoin: round; stroke-linecap: butt}</style>
 </defs>
 <g id="figure_1">
  <g id="patch_1">
   <path d="m0 252.39h371.52v-252.39h-371.52v252.39z" fill="none"/>
  </g>
  <g id="axes_1">
   <g id="PatchCollection_1">
    <defs>
     <path id="md8cc372541" d="m344.24-212.3 1.0939 2.4689 0.89818 2.3846 0.84926 2.7065 0.65747 2.8297 0.34412 2.8157-0.088918 2.7012-0.2945 1.4968-0.42782 1.3439-0.54711 1.2648-0.91457 1.6189-0.47459 0.69866-0.93112 1.1971-3.0586 3.421-2.4958 3.2645-1.047 1.2764-0.66252 0.71494-1.361 1.2958-1.3575 1.1362-2.8404 2.097-3.5622 2.4153-2.2448 1.449-3.5498 2.1532-5.0271 2.7543-1.0673 0.64724-1.4668 1.1039-0.64193 0.62764-0.58312 0.73239-0.70612 1.3623-0.36804 1.2172-0.25492 1.6265-0.094491 1.5083-0.06882 4.2484-0.094488 1.328-0.3514 1.976-0.66958 1.8299-0.89284 1.7116-2.2514 3.6203-2.2805 3.8232-1.3042 1.7997-0.66061 0.74881-1.5707 1.5343-3.3482 2.8993-1.5738 1.4729-1.1695 1.2997-0.97044 1.3564-0.71328 1.4094-0.21228 0.62302-0.228 1.0397-0.068593 0.59927-0.025799 1.0569 0.073328 1.172 0.33615 2.2253 0.88226 4.2151 0.31386 1.8024 0.32211 2.8239 0.16214 2.6396 0.34909 16.561-0.089236 2.8648-0.30549 5.4393-0.074883 3.1501 0.056194 2.5741 0.21824 2.2886 0.38924 2.2497 0.49146 1.938 0.61634 1.7725 0.63533 1.4024 0.74513 1.3357 0.89868 1.3668 1.4244 1.924 1.8158 2.1972 0.15999 0.25008-0.031012 0.073069-0.22964-0.11722-1.047-0.23855-1.6453-0.2518-2.7742-0.24395-1.5443-0.047563-1.6056 0.017906-1.6882 0.096635-1.9568 0.21757-2.2086 0.37813-1.2168 0.26555-2.9472 0.8073-1.4038 0.4829-2.6239 1.0818-2.543 1.2155-4.9487 2.5258-2.4609 1.1708-2.4904 1.0183-2.6996 0.86317-2.7384 0.69457-10.367 2.1879-2.4152 0.42199-4.2322 0.56623-1.984 0.32607-1.9759 0.40885-1.9566 0.50478-1.4 0.43505-2.6401 1.0072-2.1083 0.98766-2.5503 1.4402-1.144 0.73817-1.5085 1.0763-1.6014 1.2877-1.0832 0.96715-1.412 1.4021-5.1905 5.8756-1.5345 1.6008-4.7816 4.5576-2.0766 1.831-1.8693 1.5151-1.8535 1.3291-1.0477 0.67678-1.3947 0.8096-1.2808 0.62526-0.9795 0.37897-0.70874 0.20836-0.83075 0.16173-1.2955 0.042987-1.1249-0.30362-0.96398-0.75462-0.77183-1.1212-0.62365-1.3864-0.5125-1.5653-0.95228-3.3252-0.56488-1.6966-0.88046-2.4209-3.1012-8.1208-0.74495-1.843-0.68689-1.5422-0.75691-1.4857-0.65443-1.1118-1.3592-1.9643-1.4348-1.7285-1.3585-1.3834-1.762-1.4354-1.5955-0.93424-1.1729-0.4507-1.1657-0.25293-1.2142-0.10811-2.0921 0.048813-1.921 0.19073-5.8723 0.76066-5.4336 0.63544-2.6104 0.22616-5.4324 0.27416-2.1614 0.28832-2.1499 0.45043-6.1744 1.5844-2.4248 0.49193-2.4787 0.3409-2.5176 0.12007-0.99417-0.026714-1.7343-0.13097-2.8231-0.36151-5.8766-0.92582-2.5064-0.27087-1.9703-0.053514-0.67054 0.06251-0.32566 0.16286-8.3233-1.085-3.2467-0.34765-3.3487-0.29408-3.3783-0.2111-3.3655-0.097152-3.3292 0.052755-3.1905 0.22026-3.1449 0.35522-3.1023 0.45108-6.0959 1.073-11.885 2.269-2.9239 0.48875-2.9054 0.41244-2.8837 0.30343-2.8561 0.15218-2.8192-0.053596-2.5431-0.26689-2.4976-0.43049-2.4444-0.53767-8.5544-2.2453-4.9289-0.94619-1.416-0.52465-0.39-0.2228-0.95165-0.74408-0.7498-0.83537-0.65305-0.92629-0.55926-0.97442-0.46987-1.0628-0.37515-1.2116-0.31181-1.5222-0.22916-1.9269-0.082821-1.9262 0.039995-1.6521 0.19216-2.0529 0.16906-1.1022 0.56422-2.3395 0.34653-0.95136 0.56697-1.2179 1.0135-1.7113 0.6911-0.96349 0.85613-1.0462 1.8479-1.9107 1.9581-1.6867 1.7666-1.3038 1.863-1.2092 5.677-3.3219 1.6917-1.0391 2.3367-1.5797 1.7919-1.4411 1.3407-1.3907 0.65239-0.88842 1.754-2.9565 0.94848-1.3386 0.64004-0.66217 0.91593-0.68393 0.88676-0.48926 0.96614-0.41818 1.0599-0.36908 5.6081-1.6064 2.3336-0.7685 1.6568-0.60445 3.5178-1.4073 2.3639-1.0154 3.8514-1.7831 2.791-1.4819 2.2508-1.3453 1.1268-0.73702 0.8631-0.62014 0.9452-0.76842 1.0543-1.0317 0.84235-1.0545 0.66234-1.1082 0.65362-1.6673 0.42691-1.765 0.21594-1.2817 0.12278-1.3317-0.068877-2.3311-0.34344-2.4665-0.52898-2.5598-2.3655-9.524-0.50268-1.8852-0.54008-1.7413-0.42942-1.171-0.53018-1.1465-0.77597-1.256-0.3646-0.41678-0.12336-0.035273-0.045867-0.1233 0.019725-0.25521 0.1004-0.1695 0.51445-0.3817 1.2879-0.37872 1.0504-0.080968 1.607 0.061776 5.8268 0.49459 2.0624 0.27309 4.1616 0.92096 5.9001 1.0673 1.1695 0.16982 2.7467 0.27967 2.0333 0.13953 4.3385 0.21715 1.3146-0.017839 5.6922-0.455 8.2793-0.58248 2.0271-0.22124 4.7575-0.6441 1.5588-0.062843 4.2557 0.12787 2.3708-0.073821 3.4894-0.27985 4.7356-0.64084 3.6572-0.60402 1.0968-0.25894 2.639-0.78538 1.4532-0.5439 0.84384-0.40072 0.75116-0.44739 0.67919-0.52616 0.44191-0.44084 0.64092-0.88243 0.53797-1.1676 0.52233-1.9103 0.23151-1.3096 0.33065-2.6618 0.69468-6.4839 0.286-1.8589 0.29596-1.3456 0.39723-1.2612 0.65023-1.382 0.67069-0.95748 1.0575-0.99881 1.2015-0.78785 1.8469-0.91286 1.3481-0.57134 4.304-1.6287 3.6316-1.253 2.3308-0.71441 2.1305-0.52239 2.0426-0.28328 1.8997 0.05987 1.4747 0.389 1.5985 0.93927 1.3891 1.2847 2.4458 2.8463 1.2051 1.2747 0.70897 0.6125 0.70882 0.42648 0.49646 0.16595 0.60958 0.065038 0.52346-0.053788 0.49849-0.14338 0.52607-0.26716 0.35231-0.26805 0.53177-0.60216 0.41878-0.80826 0.30163-1.5809-0.040601-1.9309-0.29502-2.1978-0.26486-1.4034-0.61706-2.77-1.4803-6.0904-0.55486-2.1109-1.7117-5.9587-2.5961-8.6429-0.08793-0.43043-0.27535-0.40717-0.058309-0.38918 0.099195-0.67507 0.18076-0.46748 0.33479-0.58721 0.83649-1.0425 0.8169-0.7589 0.8832-0.65995 0.97299-0.5916 1.406-0.67944 1.1952-0.50866 1.9979-0.76716 1.8742-0.53861 2.4078-0.51374 6.5054-1.1237 4.8779-0.95267 3.7045-0.90238 3.207-0.99652 2.0732-0.77515 2.0374-0.86288 2.6808-1.2909 2.6109-1.4242 1.606-0.95641 6.0828-3.8549 2.685-1.5848 3.006-1.5952 3.1772-1.4748 2.3063-0.93712 1.3915-0.51138 1.4037-0.46888 2.7368-0.76481 2.778-0.58512 2.6319-0.38275 2.6524-0.22463 2.6461-0.065299 2.6523 0.08582 1.8891 0.14985 1.8892 0.21049 2.7554 0.38852 5.1932 0.90395 4.978 1.0412 2.5331 0.61447 4.8058 1.3533 5.1515 1.6691 6.261 2.2375 5.0017 1.9727 2.4156 1.0212 4.9201 2.1845 1.7526 0.64986 1.7975 0.57619 5.8895 1.6962 2.3838 0.77772 1.9606 0.7833 1.3188 0.66158 1.2595 0.77644 1.3525 0.92014 1.4734 0.8905 1.1779 0.45708 0.72889 0.1424 0.4011-0.020908 0.13784-0.071704" stroke="#bdc660"/>
    </defs>
    <g clip-path="url(#pa027979e8a)">
     <use y="252.386962" fill="#bdc660" stroke="#bdc660" xlink:href="#md8cc372541"/>
    </g>
   </g>
  </g>
 </g>
 <defs>
  <clipPath id="pa027979e8a">
   <rect x="7.2" y="7.2" width="357.12" height="237.99"/>
  </clipPath>
 </defs>
</svg>
