<?xml version="1.0" encoding="UTF-8"?>
<!DOCTYPE svg  PUBLIC '-//W3C//DTD SVG 1.1//EN'  'http://www.w3.org/Graphics/SVG/1.1/DTD/svg11.dtd'>
<svg width="274.28pt" height="280.51pt" version="1.1" viewBox="0 0 274.28 280.51" xmlns="http://www.w3.org/2000/svg" xmlns:xlink="http://www.w3.org/1999/xlink">
 <metadata>
  <rdf:RDF xmlns:cc="http://creativecommons.org/ns#" xmlns:dc="http://purl.org/dc/elements/1.1/" xmlns:rdf="http://www.w3.org/1999/02/22-rdf-syntax-ns#">
   <cc:Work>
    <dc:type rdf:resource="http://purl.org/dc/dcmitype/StillImage"/>
    <dc:date>2024-07-04T12:07:38.185919</dc:date>
    <dc:format>image/svg+xml</dc:format>
    <dc:creator>
     <cc:Agent>
      <dc:title>Matplotlib v3.7.1, https://matplotlib.org/</dc:title>
     </cc:Agent>
    </dc:creator>
   </cc:Work>
  </rdf:RDF>
 </metadata>
 <defs>
  <style type="text/css">*{stroke-linejoin: round; stroke-linecap: butt}</style>
 </defs>
 <g id="figure_1">
  <g id="patch_1">
   <path d="m0 280.51h274.28v-280.51h-274.28v280.51z" fill="none"/>
  </g>
  <g id="axes_1">
   <g id="PatchCollection_1">
    <defs>
     <path id="m997c47d95c" d="m255.1-187.07 0.16596 0.035929-0.20768 0.66961-1.427 2.4388-1.7048 3.751-0.97238 2.6676-1.095 3.4783-0.92889 2.405-1.4652 3.3165-2.6529 5.5464-1.3776 4.3811-0.74357 1.5287-1.5029 2.2407-0.66429 0.72181-0.77886 0.55917-0.9277 0.34485-2.1865 0.22698-5.2157-0.019488-1.6686 0.27269-0.65035 0.27186-0.51231 0.40156-0.4296 0.76596-0.18283 0.98541 0.014131 1.1444 0.17276 1.2475 0.70427 2.5788 1.3888 3.4013 0.13704 0.58323-0.070877 0.24198-0.51778 0.2581-1.3187 0.030973-2.9669-0.23204-3.7227-0.48962-4.0966-0.71121-10.317-2.1095-3.2708-0.42965-4.2472-0.22981-4.4186 0.25318-1.9934 0.32385-2.2497 0.56061-2.1121 0.76558-1.1874 0.56836-2.5055 1.6397-2.5869 2.3152-1.5859 1.741-0.96141 1.236-1.4359 2.2481-1.3511 3.1718-0.60216 3.5113-0.20709 7.4468-0.13999 1.7897-0.46324 2.7067-0.76962 2.6485-1.0662 2.5238-1.5665 2.7233-2.3658 3.4724-1.6619 2.0611-2.5679 2.553-2.8852 2.4346-6.3191 5.0116-3.3179 2.5458-3.3947 2.354-3.6116 2.1128-4.5173 2.4423-6.5842 4.1024-5.3209 3.5391-2.8025 2.2827-3.189 3.2699-2.6393 3.133-8.6033 10.779-4.6572 5.5206-3.716 3.8625-3.1809 2.8179-4.091 3.0018-4.388 2.7356-5.2705 2.9101-16.656 8.497-4.7612 2.5482-3.3776 2.0966-0.60548 0.70543 0.10032 0.093791 0.037752 0.31705-0.40888 0.11996-0.69302 0.0111-2.0259-0.30458-9.5504-2.1841-7.1115-1.9068-4.1055-1.4699-1.8965-0.87804-2.5871-1.5991-1.1141-0.9151-1.1905-1.2039-1.796-2.3982-1.0315-1.8254-0.86857-1.8961-7.1054-19.3-1.2175-4.2903-0.51247-3.5782-0.085609-2.1218 0.20874-3.7017 0.77875-4.5732 2.456-11.068 0.59055-2.3133 1.2892-4.1403 1.8005-4.6802 2.3602-5.0651 3.4063-6.1543 0.88448-2.0545 0.74306-2.1887 1.1672-4.6313 1.5301-7.4011 0.69445-4.1092-0.093186-0.65608 0.279 0.22672 0.90528 0.1962 1.9321-0.1532 2.2462-0.71189 1.226-0.63776 1.6715-1.1678 1.9838-1.9165 1.6033-2.247 0.497-0.95337 0.94031-2.7302 0.32026-2.0848 0.03804-2.1843-0.1342-1.8242-0.3038-2.1056-1.8768-7.1238-0.40358-2.4875-0.050316-1.5131 0.085119-1.5042 0.25351-1.7351 0.48978-1.7691 0.65612-1.5883 0.99443-1.8962 2.1932-3.3327 5.9418-8.3787 1.8727-2.2814 2.057-1.9964 2.2699-1.8773 5.7247-4.3047 11.122-7.6 4.4647-3.4148 3.6144-3.1846 2.1401-2.1427 3.942-4.456 4.0966-5.3619 2.6818-4.0173 2.7031-4.8408 5.4615-10.655 3.3648-5.6746 5.4416-8.1156 7.1656-10.108 1.38-2.144 0.8019-1.514 9.5868 3.6667 6.0555 2.633 3.1892 1.5123 6.1925 3.1719 2.9703 1.6474 5.6221 3.4552 2.6168 1.8475 2.4534 1.9682 1.7383 1.5876 6.7844 6.8529 6.3676 6.1238 3.8278 4.0547 4.8288 5.8784 6.6778 8.897 2.1938 2.6751 2.4765 2.7047 3.0256 2.7142 2.3357 1.7461 2.4455 1.5626 2.5464 1.3529 2.6464 1.0981 2.0943 0.65256 8.131 2.171 6.3765 1.485 3.1607 0.55198 5.223 0.68986 14.914 1.4404" stroke="#bdc660"/>
    </defs>
    <g clip-path="url(#p8529e6b051)">
     <use y="280.512" fill="#bdc660" stroke="#bdc660" xlink:href="#m997c47d95c"/>
    </g>
   </g>
  </g>
 </g>
 <defs>
  <clipPath id="p8529e6b051">
   <rect x="7.2" y="7.2" width="259.88" height="266.11"/>
  </clipPath>
 </defs>
</svg>
