<?xml version="1.0" encoding="UTF-8"?>
<!DOCTYPE svg  PUBLIC '-//W3C//DTD SVG 1.1//EN'  'http://www.w3.org/Graphics/SVG/1.1/DTD/svg11.dtd'>
<svg width="371.52pt" height="180.23pt" version="1.1" viewBox="0 0 371.52 180.23" xmlns="http://www.w3.org/2000/svg" xmlns:xlink="http://www.w3.org/1999/xlink">
 <metadata>
  <rdf:RDF xmlns:cc="http://creativecommons.org/ns#" xmlns:dc="http://purl.org/dc/elements/1.1/" xmlns:rdf="http://www.w3.org/1999/02/22-rdf-syntax-ns#">
   <cc:Work>
    <dc:type rdf:resource="http://purl.org/dc/dcmitype/StillImage"/>
    <dc:date>2024-07-04T12:08:08.755980</dc:date>
    <dc:format>image/svg+xml</dc:format>
    <dc:creator>
     <cc:Agent>
      <dc:title>Matplotlib v3.7.1, https://matplotlib.org/</dc:title>
     </cc:Agent>
    </dc:creator>
   </cc:Work>
  </rdf:RDF>
 </metadata>
 <defs>
  <style type="text/css">*{stroke-linejoin: round; stroke-linecap: butt}</style>
 </defs>
 <g id="figure_1">
  <g id="patch_1">
   <path d="m0 180.23h371.52v-180.23h-371.52v180.23z" fill="none"/>
  </g>
  <g id="axes_1">
   <g id="PatchCollection_1">
    <defs>
     <path id="m5f45d0f61c" d="m101.36-160.93 7.3455 2.7319 8.8727 3.4545 5.749 2.3433 16.413 6.8591 5.2511 2.1 5.1933 1.9015 2.584 0.83529 2.5802 0.72544 1.3792 0.33142 2.4217 0.46424 8.5453 1.0586 12.647 1.7476 3.2176 0.39025 3.7796 0.34037 2.7525 0.13083 2.6079 0.017557 4.9918-0.093678 4.4911 0.042716 1.7109 0.1551 2.0231 0.39803 1.9004 0.59127 0.85254 0.33836 0.83806 0.40272 1.654 0.9779 4.6641 2.9231 2.0334 1.2181 1.8409 0.97911 2.0822 0.99866 1.8014 0.8077 2.1454 0.87776 2.1371 0.75296 2.0993 0.57577 1.0388 0.20419 1.655 0.17711 0.69935 0.008289 1.3194-0.10803 1.208-0.26994 1.3384-0.5858 0.77873-0.59946 0.66369-0.79235 0.45694-0.73504 1.3449-2.5398 0.66014-0.96319 0.76737-0.88245 0.51867-0.48424 1.0443-0.72106 1.178-0.51112 1.0854-0.2576 0.52961-0.078801 3.1072-0.31532 1.4226-0.22566 2.1682-0.43616 1.7299-0.40475 1.7308-0.48163 2.5947-0.85972 6.7322-2.5499 2.1178-0.69369 2.0393-0.47976 2.2599-0.23886 2.0217-0.063381 0.65416 0.034823 1.072 0.14438 1.017 0.30091 1.1083 0.61213 1.0119 0.87374 0.68179 0.79429 0.70552 0.99797 2.8091 4.7226 0.7765 1.1699 0.83746 1.1093 0.82445 0.92811 0.88928 0.82492 1.0325 0.74121 1.3163 0.63128 1.9888 0.40068 2.1041-0.054329 2.0859-0.38703 1.8916-0.59092 1.4542-0.64496 0.68367-0.53619 0.98119 2.9374 3.0615 9.872 1.6826 5.195 1.9848 5.6919 1.8045 4.6682 1.9058 4.3778 1.1889 2.4869 1.3367 2.6146 1.4608 2.7016 1.5988 2.7817 2.5169 3.9596 2.531 3.5348 1.7669 2.2547 1.825 2.18 3.0269 3.3197 1.1797 1.1942 2.28 2.1447 1.1478 1.0036 2.399 1.9612 3.5076 2.5864 1.6014 1.084 3.105 1.9504 2.889 1.6588 2.1823 1.1908-0.39769 0.25129-0.92568 0.090771-2.8239-0.21762-4.7566-0.52919-1.5409-0.10336-1.5025-0.020794-1.582 0.11218-1.5669 0.22615-2.1958 0.49977-1.3361 0.4884-1.2704 0.58917-1.2718 0.68309-3.9571 2.3582-1.192 0.63295-1.3567 0.58155-0.77214 0.2481-0.8224 0.18926-1.1174 0.12751-1.009 0.004785-0.97013-0.11616-1.4528-0.44412-2.8335-1.2003-1.5379-0.37673-1.2665-0.049711-2.0186 0.23622-1.8314 0.39418-7.3645 1.9076-4.091 0.96596-20.312 4.251-11.977 2.2566-2.6278 0.63723-3.0223 0.8601-3.5872 1.1651-1.878 0.67302-2.5822 1.006-10.485 4.3823-2.0364 0.90045-4.1446 1.9723-1.0554 0.34736-0.51724-0.027462-0.5851 0.4882-0.30283 0.39387-3.5295 5.1927-1.02 1.3824-1.763 2.0701-1.1666 1.101-1.0492 0.78823-0.76021 0.44511-0.45329 0.21358-1.207 0.38807-1.4128 0.17606-1.396-0.06509-1.5263-0.29831-0.98468-0.3023-1.2131-0.4751-1.4122-0.68-1.2636-0.71269-1.4748-0.94727-2.42-1.7947-5.8937-4.9948-1.4521-1.139-0.77653-0.54788-0.90337-0.57545-1.184-0.65374-0.80159-0.38007-0.81267-0.33257-2.7226-0.88388-1.1336-0.55602-1.0733-0.9501-0.93022-1.1798-0.86178-1.2292-0.86176-1.0989-0.92817-0.7786-0.57627-0.22546-0.37771-0.051284-0.5321 0.036975-0.42766 0.11696-0.35438 0.1644-0.41931 0.27552-0.65159 0.56243-1.3149 1.2937-2.6331 2.952-0.79527 0.77182-1.0833 0.82073-1.0648 0.64467-1.3042 0.64543-1.9885 0.77873-1.7351 0.56992-2.0547 0.61597-5.4998 1.5289-2.613 0.82429-0.93058 0.34669-1.7987 0.77932-3.8636 1.9306-3.204 1.4621-2.6872 1.0812-1.9235 0.69893-1.7277 0.57146-1.9248 0.56816-1.8521 0.4718-2.4244 0.49906-2.0483 0.30608-2.287 0.19429-1.8367 0.024978-1.8167-0.11094-1.8629-0.27772-1.5455-0.364-1.5355-0.48445-1.2368-0.47854-1.2658-0.56872-1.588-0.81774-3.6703-2.1061-2.0411-1.0571-1.1095-0.44808-1.1047-0.30978-1.6868-0.17107-0.76373 0.018109-1.2959 0.12061-4.0869 0.55473-6.1123 0.70689-1.7968 0.27517-0.91093 0.17982-1.3511 0.34816-0.98832 0.36588-0.41444 0.23836-0.10626 0.15298-0.076471 0.036483-0.26785-0.05524-1.4265-0.46768-3.4693-1.3355-2.6128-1.1718-2.4991-1.3303-1.1503-0.70705-1.5303-1.0602-1.1551-0.9147-3.3138-2.9212-1.144-0.77833-1.1956-0.49797-1.1958-0.14553-1.2553 0.11108-1.2934 0.29862-1.3133 0.43282-1.3171 0.52585-2.5837 1.2091-2.4055 1.2674-1.9676 1.0991-1.3052 0.5826-3.1404 1.1604-1.2263 0.40838-1.294 0.35986-1.3159 0.25493-1.3314 0.098577-1.3976-0.11047-1.394-0.3073-1.1097-0.36964-1.0916-0.46311-1.003-0.5091-1.7901-1.0976-3.9684-2.9327-1.0461-0.58511-1.2111-0.41251-1.3297-0.23942-1.4222-0.10914-1.4868-0.01653-3.2125 0.14806-3.9171 0.40025 0.52287-0.36254 0.36362-0.83283 0.2108-0.88543 0.16394-1.4274 0.03252-1.9462-0.3632-7.4298 0.025917-2.5946 0.18834-2.1064 0.3687-1.9302 0.41916-1.3711 0.50485-1.198 1.3366-2.1965 1.6442-2.0075 4.5789-4.9038 4.7213-5.4152 1.8932-2.0511 2.2174-2.2254 1.5397-1.4027 2.9139-2.354 1.3579-1.1707 1.3043-1.2248 1.2438-1.2556 1.5269-1.6514 1.1905-1.4377 1.5617-2.259 0.99357-1.7953 1.2132-2.7733 0.46586-0.93932 0.32766-0.54724 0.75584-0.9773 0.88712-0.8697 0.68283-0.55538 2.2804-1.6242 1.4334-1.1316 1.3191-1.2785 1.0952-1.4064 0.74652-1.5231 0.16372-0.60136 0.12968-0.99697-0.052025-1.2175-0.40206-1.6791-0.54874-1.6878-0.40782-1.791-0.060232-1.6053 0.18029-1.6977 0.3765-1.7473 0.538-1.7565 0.34549-0.91961 0.76016-1.6286 0.78344-1.4149 0.94893-1.5531 1.4348-2.155 2.24-3.0749 0.95731-1.1846 0.98136-1.0873 1.0138-0.94759 1.3524-0.92927 1.5355-0.59894 1.5173-0.31104 3.5637-0.47377 1.5214-0.37857 1.2272-0.5633 0.55808-0.43831 0.65848-1.0942 0.1373-1.0721-0.098188-1.2199-0.19218-1.3745-0.14613-1.5435 0.034205-2.0634 0.25137-2.2678 0.42634-2.4161 0.47007-2.1084 1.8129-6.96 2.0416-9.183 0.57913-2.1402 0.41546-1.0849 0.30375-0.34652 6.9091 4.5639" stroke="#bdc660"/>
    </defs>
    <g clip-path="url(#p08677e25ba)">
     <use y="180.229016" fill="#bdc660" stroke="#bdc660" xlink:href="#m5f45d0f61c"/>
    </g>
   </g>
  </g>
 </g>
 <defs>
  <clipPath id="p08677e25ba">
   <rect x="7.2" y="7.2" width="357.12" height="165.83"/>
  </clipPath>
 </defs>
</svg>
