<?xml version="1.0" encoding="UTF-8"?>
<!DOCTYPE svg  PUBLIC '-//W3C//DTD SVG 1.1//EN'  'http://www.w3.org/Graphics/SVG/1.1/DTD/svg11.dtd'>
<svg width="251.23pt" height="280.51pt" version="1.1" viewBox="0 0 251.23 280.51" xmlns="http://www.w3.org/2000/svg" xmlns:xlink="http://www.w3.org/1999/xlink">
 <metadata>
  <rdf:RDF xmlns:cc="http://creativecommons.org/ns#" xmlns:dc="http://purl.org/dc/elements/1.1/" xmlns:rdf="http://www.w3.org/1999/02/22-rdf-syntax-ns#">
   <cc:Work>
    <dc:type rdf:resource="http://purl.org/dc/dcmitype/StillImage"/>
    <dc:date>2024-07-04T12:08:05.340451</dc:date>
    <dc:format>image/svg+xml</dc:format>
    <dc:creator>
     <cc:Agent>
      <dc:title>Matplotlib v3.7.1, https://matplotlib.org/</dc:title>
     </cc:Agent>
    </dc:creator>
   </cc:Work>
  </rdf:RDF>
 </metadata>
 <defs>
  <style type="text/css">*{stroke-linejoin: round; stroke-linecap: butt}</style>
 </defs>
 <g id="figure_1">
  <g id="patch_1">
   <path d="m0 280.51h251.23v-280.51h-251.23v280.51z" fill="none"/>
  </g>
  <g id="axes_1">
   <g id="PatchCollection_1">
    <defs>
     <path id="m6d561d1bf9" d="m233.26-217.23-0.58522 0.46035-0.26223 0.43768-0.46459 1.0376-1.1347 3.6724-1.241 4.5845-0.56384 2.4457-0.43528 2.4759-0.56985 5.9458-0.49361 3.3794-0.69777 3.1408-2.5467 10.001-0.672 2.1401-0.92542 2.0166-0.85053 1.3017-1.0118 1.2249-1.5643 1.5288-1.751 1.4115-1.7861 1.2395-1.8697 1.156-2.8528 1.5313-2.2999 1.0545-2.9776 1.1915-2.9968 1.0678-4.1469 1.3525-6.7952 1.8707-8.6468 2.7023-4.873 1.8714-6.8781 2.3482-2.4618 0.71889-0.96296 0.22652-1.4177 0.23061-1.415 0.06891-2.1427-0.23258-1.9469-0.44048-5.2651-1.4215-1.6716-0.57621-4.4916-1.8682-2.1442-0.8265-2.1598-0.74272-5.7199-2.1248-1.8297-0.4974-0.68311-0.092014-1.1297-0.024986-1.0107 0.12474-1.1052 0.30971-0.93182 0.41916-0.90862 0.57597-0.81811 0.69525-0.45209 0.47619-1.2748 1.8568-1.1309 2.3319-0.85858 2.5774-0.46017 2.5053-0.086429 1.0734-0.004445 1.3809 0.23299 2.8591 0.73096 6.0169 0.5128 2.3261 0.61801 1.8172 0.82669 1.8832 1.0274 1.9611 0.93912 1.4299 0.79752 0.96451 1.3345 1.3243 4.4506 3.6637 1.4693 1.4103 0.81111 0.88289 1.1963 1.5154 0.70892 1.0894 0.56044 1.0757 0.006668 0.10536-0.01129 0.41787-0.35068 0.050546-0.53838 0.35494-0.37832 0.3914-0.67137 0.9667-0.64741 1.3531-0.48071 1.5515-0.25857 1.6573-0.038179 1.317 0.052926 0.98596 0.19691 1.5093 0.27966 1.3162 0.4222 1.4766 0.40897 1.1519 0.61551 1.4002 1.4614 2.6064 3.4537 5.345 0.6123 1.1184 0.4512 0.98638 0.52683 1.7013 0.15073 1.0519 0.026192 1.1942-0.051365 0.74357-0.24288 1.5188-0.28902 1.0923-0.49048 1.3177-0.93076 1.7056-1.3406 1.9237-0.94558 1.5085-0.62878 1.491-0.37783 1.677-0.43497 3.6155-0.35957 2.0646-0.80686 4.4572-0.52144 2.109-0.59041 1.5343-0.76749 1.5552-1.1481 1.9455-1.2522 1.8709-2.7853 3.7502-4.1302 5.2565-1.9276 2.5703-3.1813 4.5508-2.8569 4.2652-0.98871 1.3537-2.6992 3.4524-2.2678 2.7323-1.5625 1.6038-1.709 1.4474-1.8385 1.2289-1.9571 0.9372-1.8356 0.54716-1.8984 0.34258-2.6975 0.22441-1.8643-0.074563-1.8803-0.24697-1.9722-0.40193-3.4867-0.85512-6.4475-1.902-2.0043-0.56-1.4326-0.3288-1.0768-0.18703-3.7275-0.37188-1.4552-0.31389-4.2524-1.4488-1.338-0.33968-5.4771-1.1816-4.7402-1.2608-3.5755-1.0243-8.1854-2.5614-2.4204-0.70181-4.6367-1.1549-2.6267-0.49815-2.4315-0.3369-2.0994-0.1893-2.5783-0.10499-2.7548 0.027934-5.5598 0.31751-1.7935 0.04312-1.9929-0.065737-1.4833-0.13782-1.0658-0.24065-0.49514-0.51648-0.060972-0.34741 0.10517-0.93507 0.63594-3.2568 1.189-4.664 0.79512-2.6275 1.2874-3.6624 1.4205-3.4071 3.0224-6.6776 1.3417-3.3188 1.0545-3.3551 0.39128-1.7524 0.37832-2.4506 0.25592-3.3365 0.022492-3.155-0.1807-3.7649-0.2661-3.0923-0.97416-8.7295-0.26559-3.2322-0.092153-2.9802 0.05257-2.2081 0.21245-2.6898 0.22553-1.6993 0.72836-3.5485 0.61237-2.1182 0.77034-2.2035 2.1682-5.5422 0.71832-2.3541 1.2719-4.961 0.68279-2.1088 0.66041-1.7343 3.4491-7.7365 2.4513-5.1038 1.489-2.7131 2.3641-3.9825 5.5146-10.767 0.47482-1.1002 1.4003-4.4285 0.66462-1.5465 0.78748-1.5417 0.86534-1.5215 1.166-1.5733 1.9878-2.3265 1.0439-1.565 0.67356-1.3461 0.48357-1.7181 0.029212-1.1019-0.15839-1.0519-1.0282-3.6139-0.20261-1.8642 0.12284-1.7562 0.33463-1.8808 1.1325-4.7868 0.69763-2.2224 1.8237-5.0488 1.2804-3.2944 1.3174-3.0965 0.90381-1.9151 1.8752-3.5464 1.5396-2.5465 2.3026-3.3899 0.38285-0.70376 0.19411-0.67614-0.055318-0.62078-0.11205-0.24012-0.36072-0.40869-0.41375-0.26446-0.67288-0.24352-0.83988-0.15952-1.6098-0.091926-1.5305 0.053188-2.1001 0.18597-7.8975 1.0027-5.8823 0.59685-13.965 0.94671-4.0113 0.11645-2.118-0.093114-1.6824-0.17107-2.6307-0.43626-1.9348-0.45324-1.7532-0.58323-0.64814-0.36029-0.16347-0.19179-2.46e-4 -0.1742 0.6929 0.036789 1.4138-0.46532 5.5521-2.6421 2.7281-1.2063 14.046-5.8706 3.4591-1.3477 2.5158-0.90158 4.8055-1.5607 4.0487-1.1522 3.5202-0.85365 16.044-3.023 27.211-5.6947 5.4804-1.294 9.8656-2.5554 2.4533-0.52805 2.7041-0.31645 1.6967 0.066593 2.0602 0.50467 3.7958 1.6079 1.9461 0.59494 1.2996 0.15561 1.3517-0.006411 1.4969-0.17082 1.1017-0.25353 1.0344-0.33235 1.8174-0.77906 1.5969-0.84791 5.3009-3.1591 1.7038-0.91507 1.7018-0.78927 1.7899-0.65427 2.9416-0.6695 2.0991-0.30296 2.1192-0.15028 2.0128 0.027855 2.0643 0.13846 6.372 0.70892 3.783 0.29153 1.2401-0.1216 0.53275-0.33663 0.2652-0.31274 0.61824-0.43426 0.83479-0.42405 0.95458-0.30361 1.0063-0.092078 0.88736 0.14498 0.87367 0.34034 0.8496 0.5016 0.83405 0.64304 0.80284 0.74482 1.7055 1.911 4.3183 5.4684 1.4039 1.5651 1.6997 1.705 5.6715 5.4467 1.3466 1.0774 2.8331 2.0143 2.0439 1.6891 1.174 1.135 3.9803 4.2495 2.0671 1.9334 6.3847 5.3032 3.1644 2.7532 2.8892 2.8404 1.1539 1.2883 0.932 1.2277" stroke="#bdc660"/>
    </defs>
    <g clip-path="url(#pddc5d872a1)">
     <use y="280.512" fill="#bdc660" stroke="#bdc660" xlink:href="#m6d561d1bf9"/>
    </g>
   </g>
  </g>
 </g>
 <defs>
  <clipPath id="pddc5d872a1">
   <rect x="7.2" y="7.2" width="236.83" height="266.11"/>
  </clipPath>
 </defs>
</svg>
