<?xml version="1.0" encoding="UTF-8"?>
<!DOCTYPE svg  PUBLIC '-//W3C//DTD SVG 1.1//EN'  'http://www.w3.org/Graphics/SVG/1.1/DTD/svg11.dtd'>
<svg width="360.98pt" height="280.51pt" version="1.1" viewBox="0 0 360.98 280.51" xmlns="http://www.w3.org/2000/svg" xmlns:xlink="http://www.w3.org/1999/xlink">
 <metadata>
  <rdf:RDF xmlns:cc="http://creativecommons.org/ns#" xmlns:dc="http://purl.org/dc/elements/1.1/" xmlns:rdf="http://www.w3.org/1999/02/22-rdf-syntax-ns#">
   <cc:Work>
    <dc:type rdf:resource="http://purl.org/dc/dcmitype/StillImage"/>
    <dc:date>2024-07-04T12:08:02.230902</dc:date>
    <dc:format>image/svg+xml</dc:format>
    <dc:creator>
     <cc:Agent>
      <dc:title>Matplotlib v3.7.1, https://matplotlib.org/</dc:title>
     </cc:Agent>
    </dc:creator>
   </cc:Work>
  </rdf:RDF>
 </metadata>
 <defs>
  <style type="text/css">*{stroke-linejoin: round; stroke-linecap: butt}</style>
 </defs>
 <g id="figure_1">
  <g id="patch_1">
   <path d="m0 280.51h360.98v-280.51h-360.98v280.51z" fill="none"/>
  </g>
  <g id="axes_1">
   <g id="PatchCollection_1">
    <defs>
     <path id="me2e45725fa" d="m246.18-220.87 2.6148 2.8977 2.9557 3.5365 2.3486 2.9201 0.4746 0.66966 0.41071 0.69904 0.29588 0.76842 0.22949 1.2859 0.13451 1.8537 0.15288 3.6179 0.87163 0.93455 1.4603 1.7026 4.8056 5.8614 3.3886 4.007 1.5852 2.1027 1.6673 2.6848 1.4579 2.8392 1.3121 2.931 3.0257 7.4018 1.5941 3.7094 0.89046 1.9162 1.5602 3.0544 1.3277 2.2954 0.73181 1.1439 1.047 1.4914 0.54735 0.7131 1.2672 1.4524 1.4024 1.2075 1.1813 0.70999 1.2911 0.57144 2.3533 0.73229 2.6401 0.56841 1.849 0.30134 1.8931 0.2396 2.1717 0.18984 2.1191 0.091716 1.743 0.001824 2.9881-0.13391 4.4773-0.38563 2.5819-0.15815 1.3206-0.00818 1.267 0.063837 1.5662 0.19722 1.7578 0.40153 2.0716 0.73378 3.7902 1.5906 1.4303 0.41725 1.1751 0.19218 4.4565 0.18456 0.69582 0.094646 0.96286 0.21867 0.71388 0.25582 1.2886 0.77605 1.0646 1.0266 0.56326 0.76127 0.44307 0.90355 0.27308 0.99466 0.12501 0.89158 0.024582 0.6799-0.054159 0.76377-0.48125 1.6446-0.46017 0.80293-0.55363 0.73099-0.7331 0.78413-0.78024 0.70569-1.581 1.1974-1.4788 0.94623-1.0961 0.62348-3.797 2.013-0.66503 0.46524-0.17289 0.16846-0.029542 0.1589-0.16901 0.003562-0.67422 0.48834-1.319 1.3873-2.3691 2.9962-4.8344 6.4849-2.2315 2.7874-1.3684 1.582-2.0559 2.1948-6.8852 6.757-6.0784 6.1646-3.4937 3.802-3.4324 3.9926-2.3197 3.0409-1.6342 2.4535-1.1292 1.9833-2.5438 5.0587-1.6331 2.9874-1.5076 2.4926-1.414 2.1012-0.9336 1.2551-0.96838 1.1868-0.65318 0.73139-1.1782 1.1756-1.1732 0.98349-1.412 0.9282-1.2301 0.57763-1.1779 0.36378-0.78373 0.15726-1.1175 0.12827-1.2262 0.031855-2.2017-0.16958-1.8957-0.32905-2.0674-0.53804-1.9857-0.67835-2.011-0.81949-2.0047-0.91702-1.3618-0.67843-2.1876-1.1949-2.3351-1.4118-6.8574-4.5748-3.056-1.8408-2.678-1.3221-1.1536-0.45644-1.1819-0.37558-0.90905-0.21164-1.2434-0.15696-1.3032 0.040091-1.6098 0.40164-1.4085 0.67181-1.1922 0.79288-1.0718 0.88107-1.5633 1.5671-0.82984 0.97436-0.65386 0.84398-1.5218 2.2092-1.6972 2.7439-4.9843 8.4215-1.5994 2.9387-1.0683 2.3613-0.81102 2.4454-0.46109 1.9539-0.23382 1.2762-0.27716 1.9228-0.78617 7.2948-0.45813 2.8056-0.3905 1.762-0.4163 1.5497-0.87438 2.6095-0.75871 1.8279-0.60022 1.2502-0.90371 1.6342-0.84166 1.31-0.90512 1.2253-0.76754 0.91901-1.0781 1.1519-1.0863 1.0336-0.91727 0.78996-1.089 0.84162-0.8274 0.54264-0.51257 0.16912-10.235-14.165-2.9055-3.848-2.9343-3.7155-2.0425-2.4212-1.0513-1.1416-0.79417-0.77848-0.80006-0.66865-0.81133-0.52054-0.85156-0.34542-1.3215-0.15073-1.412 0.16353-1.4747 0.36371-4.3151 1.3016-1.257 0.25967-1.2398 0.11885-1.2116-0.078721-1.3905-0.40302-1.3501-0.67396-1.3239-0.86134-3.9367-3.0255-1.3404-0.94459-1.3769-0.79768-1.43-0.56497-1.2753-0.23945-1.3056-0.029829-1.3136 0.1522-1.2992 0.31512-3.3169 1.2151-3.0939 1.052-3.3425 0.99792-1.7557 0.46638-4.9027 1.1214-1.7085 0.3047-0.41768 0.045097-0.14961-0.02824-0.05644-4.5148-0.10368-2.0832-0.18191-2.2246-0.43986-3.3879-0.65036-3.3403-0.89519-3.2049-0.56831-1.5688-0.4961-1.1648-0.72193-1.4213-1.4488-2.1846-1.7062-2.0089-1.8889-1.8839-2.0089-1.8055-10.189-8.6439-4.05-3.6177-3.615-3.3631-4.3146-4.1417-5.2369-5.2298-3.5038-3.7372-1.9709-2.3035-1.3512-1.7369-1.2335-1.7641-1.4237-2.4011-1.1101-2.4412-0.64525-2.0008-0.96921-3.9212-0.64125-2.3061-0.65914-1.9627-0.70593-1.8694-0.98637-2.0087-2-3.6062-1.244-2.5236-0.7-0.99985-0.89688-0.84746-0.44563-0.32276-1.3739-0.79061-1.6932-0.74954-4.7234-1.7642-2.5583-1.1225-2.2953-1.0851-4.6307-2.365-4.4881-2.5257-2.2133-1.397-0.90537-0.65433-1.1729-0.96097-0.70956-0.66272-0.98956-1.0685-1.3052-1.7367-1.6578-2.6217-1.739-3.3313-0.68353-1.459-0.62602-1.492-2.9434-7.7108-0.92763-2.1729-1.1697-2.2846-2.7081-4.6383-0.45534-0.88664-0.72016-1.6347-0.55614-1.6882-0.40051-1.9818-0.19475-2.1002-0.023883-2.1657 0.20688-3.5185 0.22479-1.4638 0.15145-0.54342 0.0767-0.12122 0.18009 0.001792 0.67923-0.31617 1.9809-1.1189 3.0363-1.8873 1.6913-1.1309 2.7707-1.9748 2.2836-1.7318 10.332-8.2309 1.2939-0.85832 0.55534-0.27365 1.1775-0.28558 0.55648 0.044176 0.46523 0.13779 0.35189 0.16998 0.35788 0.23564 0.43068 0.37433 0.56434 0.65722 0.49971 0.76848 0.37063 0.7207 1.342 3.577 0.5838 1.3532 0.4896 0.9869 0.72907 1.2682 0.89054 1.2913 0.64414 0.78137 0.84749 0.84764 0.73773 0.58171 0.82021 0.48749 1.4829 0.47266 0.64126 0.042744 0.60494-0.037436 0.64944-0.11063 1.1836-0.35218 1.2909-0.57043 0.99074-0.5834 0.77455-0.56025 0.88549-0.75799 0.80983-0.80806 0.85643-0.98191 0.74714-0.97498 0.98184-1.4934 1.4721-2.4682 1.0494-1.5472 3.9222-5.0488 1.5872-2.2265 0.74931-1.1655 1.0921-1.8889 1.0562-2.1447 0.57769-1.5436 0.34706-1.5164 0.068847-0.70444-0.017022-1.588-0.68858-7.5306-0.023025-0.98897 0.11775-1.2065 0.4761-1.4252 0.77519-1.2362 0.38136-0.43562 0.74424-0.63012 0.84968-0.47356 1.2422-0.38058 2.1031-0.30897 1.1803-0.0525 0.84557 0.025516 1.5731 0.19046 0.80186 0.15062 1.5521 0.38843 3.9271 1.1333 5.1418 1.2049 1.0411 0.12223 0.54457 0.00694 0.9182-0.11346 0.82776-0.25546 0.51289-0.24474 0.65863-0.40385 3.2844-2.1617 0.60388-0.4532 0.59773-0.57049 1.5817-2.1604 0.5587-0.66069 0.71348-0.73939 0.83102-0.69989 0.73536-0.48593 5.7082-2.9917 6.8582-4.1262 1.3354-0.73706 1.7605-0.86598 1.5743-0.64612 1.6182-0.51971 1.1784-0.28057 2.4108-0.35934 2.253-0.13695 1.0529-0.01372 1.7838 0.033725 2.8938 0.15918 3.4948 0.3675 1.0022 0.16483 2.3589 0.54165 2.1957 0.76454 1.9732 1.0299 1.4431 1.0808 0.7032 0.62892 2.7117 2.6808 1.3541 1.2099 1.4111 1.024 1.5133 0.78647 0.39514 0.14998 1.3578 0.37919 1.3178 0.23345 1.7037 0.19628 3.0826 0.22556 2.4417 0.24617 1.7303 0.32197 1.7636 0.44348 1.8748 0.56174 3.4231 1.1708 2.1292 0.78642 14.194 5.5331 7.0862 2.6602 3.8993 1.3302 2.4278 0.75461 7.5483 2.0941 1.8834 0.61991 1.9222 0.70226 1.9117 0.77391 2.8825 1.335 2.7639 1.5313 2.334 1.5453 2.142 1.6244 1.8944 1.5967 1.1851 1.0821 1.334 1.3407 0.47851 0.63675" stroke="#bdc660"/>
    </defs>
    <g clip-path="url(#p2bea274a3a)">
     <use y="280.512" fill="#bdc660" stroke="#bdc660" xlink:href="#me2e45725fa"/>
    </g>
   </g>
  </g>
 </g>
 <defs>
  <clipPath id="p2bea274a3a">
   <rect x="7.2" y="7.2" width="346.58" height="266.11"/>
  </clipPath>
 </defs>
</svg>
