<?xml version="1.0" encoding="UTF-8"?>
<!DOCTYPE svg  PUBLIC '-//W3C//DTD SVG 1.1//EN'  'http://www.w3.org/Graphics/SVG/1.1/DTD/svg11.dtd'>
<svg width="195.12pt" height="280.51pt" version="1.1" viewBox="0 0 195.12 280.51" xmlns="http://www.w3.org/2000/svg" xmlns:xlink="http://www.w3.org/1999/xlink">
 <metadata>
  <rdf:RDF xmlns:cc="http://creativecommons.org/ns#" xmlns:dc="http://purl.org/dc/elements/1.1/" xmlns:rdf="http://www.w3.org/1999/02/22-rdf-syntax-ns#">
   <cc:Work>
    <dc:type rdf:resource="http://purl.org/dc/dcmitype/StillImage"/>
    <dc:date>2024-07-04T12:07:49.000663</dc:date>
    <dc:format>image/svg+xml</dc:format>
    <dc:creator>
     <cc:Agent>
      <dc:title>Matplotlib v3.7.1, https://matplotlib.org/</dc:title>
     </cc:Agent>
    </dc:creator>
   </cc:Work>
  </rdf:RDF>
 </metadata>
 <defs>
  <style type="text/css">*{stroke-linejoin: round; stroke-linecap: butt}</style>
 </defs>
 <g id="figure_1">
  <g id="patch_1">
   <path d="m0 280.51h195.12v-280.51h-195.12v280.51z" fill="none"/>
  </g>
  <g id="axes_1">
   <g id="PatchCollection_1">
    <defs>
     <path id="m534cf884e7" d="m145.41-249.9-0.1148 0.37088-0.13308 0.98505-0.22689 2.7213-0.087987 3.167 0.054709 3.5696 0.21831 4.4075 0.22068 2.8275 1.1741 10.231 0.074945 1.8131-0.089978 2.1574-0.16913 1.4787-0.29922 1.6549-0.44726 1.7556-0.48121 1.4679-0.55147 1.3703-0.64339 1.3183-2.7041 4.6998-1.0463 2.1712-0.57271 1.4574-0.48789 1.5518-0.38437 1.5536-0.29052 1.5063-0.3894 2.724-0.24752 2.9537-0.22469 7.4357-0.011097 2.8576 0.08712 2.8498 0.23892 2.8119 0.4583 2.7407 0.76305 2.6308 1.14 2.5043 1.4292 2.3838 1.6116 2.2919 5.0388 6.4985 1.4659 2.0682 1.2043 2.0201 0.82916 1.9655 0.3624 1.6414 0.4426 3.235 0.20527 0.84509 0.31364 0.96774 0.44535 1.0611 0.51957 1.0593 2.8027 5.4436 0.99629 1.7181 0.92331 1.365 1.0147 1.3389 1.5502 1.8773 2.6261 3.0672 3.1629 3.3425 0.8842 0.85128 0.89679 0.73949 2.5754 1.8281 2.1724 1.7163 2.5498 1.8395 1.0725 0.84873 0.9271 0.92774 0.6954 1.0438 0.44437 1.5126-0.011173 1.6634-0.4141 1.6602-0.60562 1.2579-0.75295 1.013-0.89549 0.78801-1.5381 0.76431-1.7698 0.44908-1.8795 0.23691-3.8802 0.25367-0.85588 0.1018-0.86413 0.18785-0.62953 0.29596-0.37022 0.52783 0.091216 0.71255 0.19824 0.37727 0.69151 0.79196 0.90429 0.71269 1.1174 0.68809 4.5174 2.2419 2.0514 1.1114 1.1282 0.70507 1.3165 0.9826 0.80362 0.74176 0.65378 0.75683 0.77625 1.4091 0.10698 0.33558 0.059596 1.0267-0.22367 0.23629-1.6571 3.8608-0.49224 1.2809-0.28754 1.0672-0.15817 1.1029-0.022868 0.96994 0.24618 4.0924-0.08562 1.4946-0.2052 1.5375-0.5249 3.1038-0.20123 1.5226-0.080754 1.476 0.078888 1.5722 0.22357 1.9995 0.27217 1.3177 1.0595 3.9884 0.45585 2.1495 0.19386 1.1164 0.35562 2.8558 0.89203 4.3135 0.35726 2.0113 0.15154 1.3029 0.007318 1.2616-0.21308 1.2022-0.55013 1.222-0.8365 1.1343-1.0606 1.0493-1.2364 0.96156-1.9015 1.2086-3.0463 1.6963-4.595 2.3581-11.439 5.709-12.024 5.6184-2.1077 0.88214-0.60672 0.45039-0.6009 0.19118-0.91984 0.16826-1.4084 0.079506-0.66095-0.027607-1.4539-0.21757-1.9121-0.64061-0.89312-0.40662-1.2762-0.68388-3.8436-2.2413-1.4686-0.75445-1.1638-0.51827-1.9874-0.67429-2.1531-0.35541-1.9869 0.073602-1.9584 0.38266-1.8898 0.59152-1.7797 0.71096-2.9324 1.3765-1.2148 0.46541-1.2804 0.19031-0.75001-0.084008-0.56961-0.20947-1.1144-0.9155-0.98164-1.4342-0.8811-1.8234-0.78361-2.0483-0.73182-2.248-0.69592-2.3909-2.4008-9.124-1.5822-5.558-0.88273-2.6455-0.70956-1.8464-0.77964-1.7326-0.87095-1.5851-0.87338-1.2545-0.98778-1.0701-0.97085-0.74831-1.6104-0.7487-1.8208-0.41031-1.9909-0.14081-2.6552 0.11663-2.8206 0.36036-2.9522 0.53951-3.0597 0.67027-6.3781 1.5976-25.019 6.8632-1.838 0.47468-0.87053 0.19698-0.2945 0.008603-0.19687-0.79314-1.3325-6.5948-1.0849-4.391-0.64692-2.1929-0.84933-2.3976-0.84958-1.8899-0.60874-1.078-0.65659-0.9502-0.70188-0.82582-0.74082-0.70388-0.77598-0.57841-0.80663-0.446-1.1746-0.41319-2.4865-0.60545-1.6775-0.61875-1.2214-0.58725-1.2175-0.68517-1.5925-1.0447-1.2636-0.9692-1.17-1.051-1.0376-1.132-0.85807-1.218-0.62048-1.3149-0.20823-0.72053-0.15476-0.87785-0.078035-1.0762 0.023558-1.2643 0.089196-1.0308 0.44962-2.7565 1.8319-8.0694 1.8431-6.4072 0.45923-1.391 0.52046-1.3725 0.57654-1.3395 1.9751-3.854 0.62139-1.3637 0.70601-1.7503 1.2392-3.6766 1.798-5.9939 0.86633-2.4129 0.45337-1.0266 0.56836-1.0611 0.54999-0.81481 0.47133-0.49418 0.29626-0.072303 0.87827-0.36381 2.7758-0.95912 2.4037-0.92686 7.4691-3.1961 1.7774-0.6993 4.5181-1.5237 2.2659-0.92422 2.0794-1.1364 1.7725-1.3563 1.3276-1.5978 0.63685-1.3739 0.29892-1.1409 0.1239-1.3641-0.11601-1.8421-0.44133-2.5358-0.8047-3.3314-0.83582-2.5402-0.81054-1.887-1.4258-3.0131-0.44804-1.2195-0.43666-1.4792-0.2958-1.5308-0.15888-2.2548 0.010646-0.60854 0.20236-1.6668 0.13058-0.55491 0.3742-1.1803 0.68667-1.5729 1.1244-2.1747 0.73375-1.3003 3.4319-5.6087 7.5025-11.672 1.7039-2.8437 1.1144-2.0637 1.0937-2.2955 0.99678-2.2508 1.0476-2.6026 0.7898-2.1815 0.69035-2.1118 0.47202-1.683 0.33273-1.4343 0.33881-2.0269 0.18322-2.1331 0.011372-2.5845-0.16081-2.7152-0.26921-2.4196-0.53483-3.2242-0.60081-2.9323-1.729-6.552-0.79507-3.521-0.57496-3.0287-0.25186-1.6292-0.084057-1.1849 0.040343-0.37811 0.081816-0.054445 0.18422-0.122 0.52634-0.16317 1.3648-0.31118 1.2976-0.21223 1.2424-0.13834 2.343-0.1068 3.4789 0.056444 1.8255-0.026306 2.0138-0.16398 1.6486-0.31152 1.798-0.58796 0.86945-0.36282 1.0159-0.50007 1.3171-0.81468 2.8584-2.1438 0.94322-0.63345 1.5918-0.86064 1.4766-0.57334 0.88483-0.24562 1.5487-0.3102 2.1156-0.2424 2.9311-0.12792 3.0562 0.047302 0.90394-0.066535 0.80449-0.13007 0.87167-0.23741 0.87297-0.34804 3.0202-1.5865 1.4819-0.63169 0.69795-0.21928 0.77006-0.15574 1.0955-0.076122 1.3971 0.094888 0.69508 0.10386 6.9722 1.3674 1.2737 0.30987 1.3373 0.50943 1.1983 0.6408 1.7355 1.1502 5.7569 4.3254 1.9284 1.3563 1.8613 1.1174 0.69109 0.32125 0.18531 0.053238 0.12543-0.031242" stroke="#bdc660"/>
    </defs>
    <g clip-path="url(#p56ac6bf173)">
     <use y="280.512" fill="#bdc660" stroke="#bdc660" xlink:href="#m534cf884e7"/>
    </g>
   </g>
  </g>
 </g>
 <defs>
  <clipPath id="p56ac6bf173">
   <rect x="7.2" y="7.2" width="180.72" height="266.11"/>
  </clipPath>
 </defs>
</svg>
