<?xml version="1.0" encoding="UTF-8"?>
<!DOCTYPE svg  PUBLIC '-//W3C//DTD SVG 1.1//EN'  'http://www.w3.org/Graphics/SVG/1.1/DTD/svg11.dtd'>
<svg width="311.4pt" height="280.51pt" version="1.1" viewBox="0 0 311.4 280.51" xmlns="http://www.w3.org/2000/svg" xmlns:xlink="http://www.w3.org/1999/xlink">
 <metadata>
  <rdf:RDF xmlns:cc="http://creativecommons.org/ns#" xmlns:dc="http://purl.org/dc/elements/1.1/" xmlns:rdf="http://www.w3.org/1999/02/22-rdf-syntax-ns#">
   <cc:Work>
    <dc:type rdf:resource="http://purl.org/dc/dcmitype/StillImage"/>
    <dc:date>2024-07-04T12:08:05.609708</dc:date>
    <dc:format>image/svg+xml</dc:format>
    <dc:creator>
     <cc:Agent>
      <dc:title>Matplotlib v3.7.1, https://matplotlib.org/</dc:title>
     </cc:Agent>
    </dc:creator>
   </cc:Work>
  </rdf:RDF>
 </metadata>
 <defs>
  <style type="text/css">*{stroke-linejoin: round; stroke-linecap: butt}</style>
 </defs>
 <g id="figure_1">
  <g id="patch_1">
   <path d="m0 280.51h311.4v-280.51h-311.4v280.51z" fill="none"/>
  </g>
  <g id="axes_1">
   <g id="PatchCollection_1">
    <defs>
     <path id="md4bb05a9d2" d="m240.85-247.16 0.065015 0.60624 0.57553 0.5898 0.94485 0.47432 1.1884 0.2616 0.74181 0.066327 1.0398 0.03266 4.5841-0.082697 1.4613 0.022194 1.1322 0.071741 1.0959 0.14446 0.97354 0.21297 0.9405 0.27276 1.0928 0.38668 1.4519 0.66826 2.69 1.4541 2.1533 1.1065 1.0291 0.68608 0.91375 0.72876 0.5692 0.51256 0.48388 0.54301 0.55162 1.0282 0.19437 1.1372-0.12091 0.91886-0.28435 0.95559-0.47223 1.2301-0.65333 1.245-0.93933 1.2808-1.0833 1.307-1.0828 1.4287-0.67503 1.0872-0.61819 1.1715-0.60871 1.338-0.46761 1.191-0.414 1.23-0.36931 1.323-0.30079 1.3508-0.21004 1.2353-0.14993 1.2465-0.089348 1.2751-0.03138 1.392 0.04365 2.053 0.081798 1.572 0.29648 3.3697 0.1069 1.6446-0.002846 1.6146-0.14629 1.5226-0.20139 1.2546-0.59855 2.9263-0.40424 1.542-0.92486 3.2007-0.56803 1.6098-0.26116 0.58796-1.7992 3.5226-0.57746 1.3755-0.44352 1.333-0.26225 1.2393-0.021729 1.0876 0.29297 0.8686 0.3115 0.35205 0.50109 0.324 0.79678 0.29642 0.86223 0.21238 1.392 0.2767 1.2683 0.1807 2.2212 0.22471 2.4306 0.17633 4.1467 0.22971 1.2515 0.13114 1.4477 0.23403 1.3755 0.31554 1.9304 0.5964 1.9708 0.78774 1.1764 0.58156 1.0774 0.68658 1.3887 1.2602 1.2714 1.4801 7.3422 9.1453 0.82829 1.0737 0.85006 1.1848 0.89146 1.4458 0.37464 0.76856 0.423 1.2579 0.24583 1.266 0.1245 1.2418 0.033906 0.87715-0.058338 0.99444-0.16177 0.79452-0.25736 0.77083-0.47439 1.0202-0.94527 1.7794-1.0248 2.3239-0.65073 1.3109-1.4904 2.6145-0.97172 1.4099-3.2615 4.1743-1.5572 2.0961-0.73757 0.81329-0.81624 0.77892-1.6358 1.3682-2.2379 1.7043-3.2615 2.2729-1.3988 1.0211-1.353 1.0896-1.2806 1.1542-1.178 1.2181-0.5574 0.64886-3.0434 3.7556-3.1622 3.3625-0.84676 1.0722-0.32129 0.51973-0.55675 1.2138-0.43717 1.4447-0.31924 1.5944-0.95963 6.5892-0.29522 1.684-0.38216 1.6689-0.62294 1.9408-0.56653 1.4561-0.73786 1.6989-1.8252 3.9846-0.9437 2.4126-0.83939 2.4942-0.38928 1.4166-0.22143 1.0889-0.11858 0.90157-0.040073 0.55024 0.004345 1.2591 0.19708 1.6407 0.22158 0.988 0.67732 1.9661 0.68703 1.3994 0.691 1.1112 0.52098 0.68819 0.45392 0.48312 0.41629 0.22387-0.9255 0.78616-0.76073 0.71531-0.40736 0.44768-0.47116 0.64497-0.41853 0.73684-0.57791 1.1453-1.399 2.9737-0.26865 0.4873-0.32294 0.46908-0.55108 0.6696-0.63127 0.67453-3.1882 3.0544-0.34062-0.34495-0.81859-0.528-1.1303-0.59359-0.80955-0.35891-1.0516-0.38873-1.4394-0.40062-2.715-0.66092-3.1926-1.0492-1.0059-0.29769-1.0054-0.23659-1.6114-0.23971-4.1439-0.41129-1.0342-0.1333-1.4577-0.28567-4.0614-0.97318-0.99221-0.19172-0.94236-0.11225-0.79573 0.00834-0.74575 0.13275-0.7318 0.2996-0.63253 0.44905-0.47383 0.52572-0.36107 0.6186-0.29882 0.9246-0.1597 1.0161-0.21756 3.4107-0.10986 0.69504-0.23792 0.90147-0.31716 0.79887-0.27812 0.53474-0.55332 0.81996-0.7187 0.77121-0.47462 0.38406-1.0052 0.59474-0.85601 0.37782-2.9214 1.0442-1.5903 0.62742-1.5875 0.76546-1.6454 0.97016-2.2644 1.5602-2.4773 1.8491-2.2354 1.7931-1.5529 1.4194-0.57062 0.60644-0.52462 0.64176-0.49606 0.7498-0.27283 0.53803-0.39912 1.2676-0.15062 0.92829-0.30814 3.6593-0.096579 0.61913-0.24439 1.1156-0.26314 0.89426-0.41352 1.1035-0.62307 1.2524-0.66756 1.1009-1.5234 2.1669-1.298 1.7061-1.3846 1.6254-1.2688 1.2538-1.3433 1.1295-0.8309 0.63574-0.71999 0.4865-0.51643 0.29934-0.74787 0.35912-1.0098 0.36538-0.97684 0.241-0.86646 0.13103-1.0097 0.061686-1.4081-0.069555-0.71626-0.10611-0.75471-0.17012-1.1133-0.38893-1.0046-0.53372-0.93875-0.66414-0.71002-0.60072-1.0797-1.0115-3.4075-3.3118-1.0482-1.0842-1.059-1.2619-0.95092-1.3136-0.89508-1.4238-0.69459-1.2286-0.45117-0.88662 3.3677-1.6724 1.4973-0.88892 1.3987-1.0235 0.66095-0.57826 1.0512-1.0992 0.74547-0.95345 0.78022-1.1871 1.2698-2.2846 0.78725-1.6292 0.43455-0.99051 0.7205-1.798 0.40673-1.1458 0.30002-1.134 0.16258-1.3339-0.01184-1.3531-0.15265-1.3458-0.60106-2.8869-0.29638-1.7446-0.39191-4.3958 0.015601-1.3171 0.12114-0.95803 0.20126-0.9904 0.48513-1.7149 0.88539-2.4516 1.522-3.9615 0.42995-1.3093 0.41828-1.7916 0.12427-0.83051 0.071597-0.95023-0.00342-0.74761-0.1053-0.99535-0.35639-1.2702-0.53503-1.0929-0.68042-0.94875-0.8388-0.83396-1.2731-0.8633-1.4623-0.66499-1.6026-0.48392-1.7034-0.30889-1.7721-0.12904-1.9612 0.065355-1.9851 0.23347-1.9872 0.35338-1.9689 0.43427-1.9303 0.48282-4.8597 1.3122-1.8934 0.37697-1.9922 0.27132-1.0103 0.084756-2.2718 0.098546-1.0281 0.1043-2.639 0.36982-1.1273 0.06356-2.4694-0.15849-1.2242 0.087111-2.1604 0.49139-1.0763 0.19561-1.3964 0.16865-0.89703 0.059936-1.4552-0.017827-1.3851-0.17641-1.071-0.28745-0.79199-0.33632-0.90138-0.51796-0.60014-0.45673-1.2278-1.1543-0.617-0.75956-0.35006-0.56531-0.31155-0.60319-0.56191-1.31-1.476-4.0288-0.88042-2.2008-0.91-2.0272-2.0267-4.1715-1.0602-2.3934-0.53528-1.4493-0.46059-1.5482-0.6238-1.8036-0.44894-0.92602-0.53368-0.92646-1.0582-1.5532-1.263-1.6254-2.3898-2.9049-1.204-1.4134-2.0375-2.2862-3.7528-3.9761-5.3247-5.3278-1.3204-1.4676-0.86993-1.0998-0.71383-1.0151-0.5776-0.91993-2.0874-3.8667-1.7464-2.8416-1.2282-1.776-0.85181-1.0836-0.6977-0.81561-1.2574-1.3198-1.2452-1.134-1.0382-0.83319-2.6962-2.0233-1.6826-1.4514-1.1916-1.2562-2.1261-2.5689-0.38825-0.41721-0.4749-0.4185-0.57258-0.34651-0.49723-0.17668-0.71244-0.098226-0.62802 0.032132-1.0448 0.24356-2.6082 1.0019-0.92795 0.29974-1.2496 0.34282-3.3943 0.70718-4.0884 0.73473-3.6978 0.51861-1.8066 0.17135-1.8582 0.033878-2.1413-0.12668-4.9369-0.51046-0.99946-0.14336-1.2874-0.24317-1.2505-0.30425-1.5511-0.48717-0.86483-0.34423-0.69674-0.32616-0.63416-0.33892-0.95935-0.60201-0.61247-0.44653-0.78501-0.64348-2.8068-2.6393-0.46331-0.34875-0.39905-0.2366-0.55357-0.2239-0.82164-0.10051-0.19568 0.016263-0.41469 0.10863-0.20436 0.12497-0.090926 0.093458-0.11788 0.23985-0.1584-0.082241-0.15213-0.21511-0.086511-0.25349-0.063828-0.55578 0.043038-0.5603 0.17807-0.69603 0.30822-0.71754 0.42336-0.7092 0.54617-0.7138 3.0109-3.3563 0.71382-0.92386 0.40629-0.64508 0.37056-0.77622 0.29445-0.97326 0.17758-0.92002 0.088705-0.96418-0.013688-0.87889-0.088146-0.90193-0.15485-0.96158-0.45417-1.9596-0.3444-1.1995-4.6223-14.499-0.39451-1.2661-0.41285-1.5061-0.4243-1.8485-0.1626-0.90082-0.12935-1.0933-0.017392-1.0508 0.061137-0.60897 0.13324-0.58541 0.11931-0.32761 0.25347-0.48199 0.32627-0.44925 0.74086-0.75432 3.4176-2.6836 0.84317-0.77993 1.8015-2.0359 0.67955-0.68353 1.1622-0.98422 0.71142-0.50735 0.72434-0.43765 0.83584-0.40276 0.35238-0.13586 0.16544 0.016139 0.2575 0.14994 0.80322 0.31962 1.2509 0.424 2.3447 0.66708 3.1046 0.71969 8.0961 1.6497 2.4086 0.40269 1.0837 0.11748 1.7453 0.013744 1.1409-0.19587 0.8827-0.35259 0.52926-0.35521 0.44672-0.41344 0.76574-0.95752 1.0428-1.5802 0.83306-1.1831 0.84609-1.0542 1.0802-1.146 1.1349-1.0172 0.66879-0.52358 1.1782-0.82798 1.4286-0.89063 1.0946-0.61167 4.8595-2.4531 1.1931-0.6636 1.8383-1.1427 2.0428-1.3708 2.8096-2.0047 5.1901-4.0581 1.4352-1.0523 1.9879-1.3025 2.6167-1.5403 2.7637-1.4916 2.5356-1.2519 4.3252-1.9839 1.1797-0.57946 2.2312-1.1954 1.3563-0.77694 2.4178-1.4663 2.2064-1.4345 3.59-2.4208 1.2295-0.787 1.2445-0.73769 1.2125-0.63858 1.2487-0.54978 1.2602-0.43382 1.3029-0.35536 4.408-0.95852 2.8029-0.66471 7.3661-1.9751 2.7026-0.65184 1.564-0.3202 1.542-0.25298 1.0161-0.12297 0.62216-0.047422 0.2385 0.019273 0.40177 0.39984 0.76792 0.26443 1.0404 0.050975 1.2479-0.29747 1.4106-0.61018 1.5063-0.83173 3.471-2.1691 1.7289-0.90155 1.8065-0.72328 1.8409-0.50118 1.837-0.22628 1.7986 0.11561 1.2782 0.33547 1.1068 0.45038 1.0825 0.56211 1.3662 0.84662 3.9697 2.8196 1.6244 1.0439 1.2981 0.69285 1.2652 0.5475 0.98869 0.35226 2.5693 0.7847 1.3912 0.3843 1.3919 0.32204 3.3136 0.5017 3.5293 0.37426 0.89031 0.12588 1.1942 0.2074 2.11 0.46848 2.2133 0.61294 2.2056 0.71467 3.0033 1.1249 2.129 0.90938 1.8604 0.85013 4.9498 2.0793 2.0792 0.82853 1.5529 0.57033 1.7318 0.57772 1.5225 0.44776 1.0987 0.2691 1.9106 0.31913 1.9208 0.15209 1.9049 0.00545 1.4763-0.10541 0.56922-0.078664 2.2486-0.50471 2.0592-0.69211 1.5755-0.64609 4.8657-2.2574 2.5846-1.1566 1.2847-0.5274 0.98328-0.34648 0.35696-0.020762" stroke="#bdc660"/>
    </defs>
    <g clip-path="url(#p7f9b66781f)">
     <use y="280.512" fill="#bdc660" stroke="#bdc660" xlink:href="#md4bb05a9d2"/>
    </g>
   </g>
  </g>
 </g>
 <defs>
  <clipPath id="p7f9b66781f">
   <rect x="7.2" y="7.2" width="297" height="266.11"/>
  </clipPath>
 </defs>
</svg>
