<?xml version="1.0" encoding="UTF-8"?>
<!DOCTYPE svg  PUBLIC '-//W3C//DTD SVG 1.1//EN'  'http://www.w3.org/Graphics/SVG/1.1/DTD/svg11.dtd'>
<svg width="317.71pt" height="280.51pt" version="1.1" viewBox="0 0 317.71 280.51" xmlns="http://www.w3.org/2000/svg" xmlns:xlink="http://www.w3.org/1999/xlink">
 <metadata>
  <rdf:RDF xmlns:cc="http://creativecommons.org/ns#" xmlns:dc="http://purl.org/dc/elements/1.1/" xmlns:rdf="http://www.w3.org/1999/02/22-rdf-syntax-ns#">
   <cc:Work>
    <dc:type rdf:resource="http://purl.org/dc/dcmitype/StillImage"/>
    <dc:date>2024-07-04T12:07:48.675718</dc:date>
    <dc:format>image/svg+xml</dc:format>
    <dc:creator>
     <cc:Agent>
      <dc:title>Matplotlib v3.7.1, https://matplotlib.org/</dc:title>
     </cc:Agent>
    </dc:creator>
   </cc:Work>
  </rdf:RDF>
 </metadata>
 <defs>
  <style type="text/css">*{stroke-linejoin: round; stroke-linecap: butt}</style>
 </defs>
 <g id="figure_1">
  <g id="patch_1">
   <path d="m0 280.51h317.71v-280.51h-317.71v280.51z" fill="none"/>
  </g>
  <g id="axes_1">
   <g id="PatchCollection_1">
    <defs>
     <path id="mcf3a7dde37" d="m163.4-233.28 0.42161-0.11875 1.4742-0.92982 1.2973-0.72195 1.2434-0.40932 1.3889-0.18565 1.4664 0.080219 1.5018 0.36732 1.89 0.75072 5.0911 2.3848 1.7301 0.87958 1.1811 0.70326 1.0921 0.77592 1.5597 1.401 0.71757 0.77207 0.9623 1.1666 0.92303 1.2495 1.3344 1.9869 2.1129 3.34 1.0378 1.4752 1.1166 1.2992 1.2499 1.052 0.89179 0.51263 0.9424 0.3876 0.95931 0.27899 0.94394 0.18182 1.1257 0.13278 1.6 0.099262 1.4663 0.031901 3.0662 3.99e-4 4.4209-0.080745 2.228 0.058894 1.6421 0.13911 1.5128 0.22081 1.4958 0.32759 1.1748 0.35688 0.7933 0.30102 1.1927 0.55057 1.1194 0.63805 1.2243 0.84526 1.7462 1.4552 2.5151 2.3875 1.2606 1.1122 1.0496 0.80725 1.4528 0.94102 1.7538 0.93561 1.7601 0.71308 1.689 0.4974 2.0192 0.40115 1.6209 0.16346 1.6366 0.022675 1.8755-0.15716 1.4313-0.23514 6.3275-1.458 7.7613-1.8947 2.1657-0.62962 1.8091-0.69162 1.4081-0.72183 1.8462-1.1684 1.6978-1.2891 1.3606-1.2269 0.8056-0.8565 0.62283-0.73816 1.2129-1.6186 1.3934-2.0789 0.92302-1.6106 0.050163 0.10458 0.072167 0.7263 2.08e-4 2.6728-0.14009 4.5256-0.35665 7.9969-0.15888 1.4451-0.74064 4.6802-0.091005 1.47-0.036736 3.2622-0.090399 1.9326-0.14408 1.2701-0.13573 0.71388-0.2234 0.79348-0.2533 0.61451-0.40461 0.67737-1.0566 1.1401-2.6006 2.084-0.88203 0.7692-1.0156 1.0336-2.1777 2.4735-4.3074 4.732-0.82154 0.99598-0.5727 0.77717-0.46006 0.74094-0.4116 1.0003-0.020078 0.88863 0.31365 0.60987 0.57073 0.54056 1.0279 0.62353 0.95902 0.45028 2.4673 0.96469 7.7243 2.7878 3.921 1.5725 1.9009 0.85229 1.2823 0.64627 1.4005 0.8225 0.95559 0.66625 0.83668 0.6646 1.53 1.3965 0.88373 0.91176 0.69155 0.7945 0.53685 0.69087 0.98758 1.4758 1.4257 2.4779 0.96545 1.5445 1.5866 2.243 0.87589 1.0421 1.5042 1.4164 4.7985 3.8903 0.62366 0.67759 0.37919 0.6347 0.21026 0.55066 0.16944 0.80508 0.036505 0.74344-0.046467 0.65189-0.16305 0.94827-0.49893 1.7034-0.38685 0.99634-0.94523 2.1471-1.2229 2.4128-1.0322 1.6714-2.4925 3.3162-0.46026 0.85552-0.034199 0.16149 0.040622 0.082501-0.14627 0.050324-0.099538 0.34634-0.13216 2.2494-0.12717 1.1801-0.23662 1.3005-0.49393 1.979-0.50464 1.5973-1.172 3.1536-0.83526 1.9819-0.84336 1.6916-1.54 2.6775-0.68146 1.072-2.7338 3.5944-0.83028 0.98019-0.74266 0.67404-1.1581 0.77875-0.73112 0.33974-0.84515 0.24263-0.39447 0.068918-1.3628 0.090392-4.0891-0.10929-1.4571-0.14645-1.9685-0.29083-1.145-0.24197-1.3661-0.41875-1.381-0.61226-1.0059-0.53972-4.8767-2.8061-2.9794-1.5524-4.0622-2.0185-6.5505-3.1199-5.8656-2.6677-4.1056-1.735-2.3316-0.91086-1.7611-0.62114-1.631-0.49977-1.7603-0.42089-0.87462-0.14566-1.4972-0.10934-1.0831 0.065972-1.3157 0.30202-1.0637 0.47642-1.0043 0.65507-1.5627 1.4057-1.0041 1.1302-0.97263 1.24-1.3506 1.9107-4.6882 7.2609-1.1149 1.6458-2.2082 3.0138-2.3331 2.8454-1.2806 1.4475-3.0374 3.2152-4.6939 4.8082-1.2897 1.4249-1.1585 1.4103-1.0265 1.4742-0.75977 1.4683-0.40306 1.423 0.009851 1.6715 0.23555 1.1115 0.50774 1.4962 0.81515 1.8529 0.89565 1.576 1.2827 1.7474 2.6478 3.3128 1.1003 1.5718 0.7085 1.2269 0.60839 1.2503 0.3451 0.81942 0.37232 1.0935 0.19863 0.85882 0.11624 1.0932 0.006552 0.87305-0.10512 1.4767-0.13136 0.9544-0.22497 1.1088-0.3416 1.1818-0.57182 1.5387-1.4692 3.4617-2.0662 4.4862-2.1447 4.9194-2.3526 4.6786-0.75859 0.069011-2.8692 0.58042-1.8351 0.13964-2.126-0.22118-2.2087-0.51811-4.3809-1.2065-2.065-0.319-1.9211 0.12157-1.6392 0.62573-1.5337 0.98252-2.9683 2.3124-1.5398 0.99832-1.65 0.67417-1.3823 0.21774-1.245 0.015366-1.1542-0.081905-1.5744-0.20018-3.816-0.59942-2.1909-0.2703-1.4003-0.056751-0.93244 0.053159-1.01 0.13034-0.68326 0.12563-1.9135 0.5245-1.1089 0.40018-2.7654 1.1728-4.6426 2.0868-2.0312 0.82859-1.7288 0.61962-1.2712 0.40028-1.4138 0.37157-1.9432 0.37617-1.5159 0.17952-1.257 0.056182-1.2747-0.039995-0.85083-0.083155-1.3811-0.2581-1.1537-0.36679-0.46092-0.19631-0.91189-0.4906-1.0057-0.70439-1.3599-1.228-1.4793-1.6987-1.2222-1.6884-1.6259-2.5889-1.6852-3.035-1.4812-3.0647-0.94886-2.2775-0.8985-2.5434-0.48129-1.5869-0.50258-1.8987-0.5508-2.495-0.47218-2.6132-0.53578-3.7863-1.0058-9.3365-0.42656-3.3208-0.82582-5.168-0.72447-3.5099-0.71742-2.5465-0.96321-2.803-1.1865-3.0428-2.3436-5.5778-0.94043-2.5402-0.5781-1.8009-0.61112-2.2088-0.49311-2.0781-0.42958-2.0827-0.8272-4.5482-0.31656-1.1731-0.3009-0.72723-0.70653-0.89997-0.43865-0.25006-0.71596-0.1591-0.66283 0.011772-0.80774 0.13728-1.1549 0.35249-1.3134 0.53865-1.7752 0.86189-1.6823 0.89763-2.4186 1.3781-1.594 0.98809-1.9219 1.3101-6.8205 5.0332-3.1373 2.1882-3.7534 2.434-8.5302 5.2531-2.8839 1.9732-1.2074 0.92079-0.50429 0.24791-1.0237 0.36816-3.0619 0.94592-3.1001 0.8377-5.5107 1.3072-2.7367 0.81944-1.5609 0.57148-1.4493 0.60571-5.7951 2.682-1.2955 0.50048-0.89823 0.27224-1.1939 0.19747-0.58875-0.003958-0.5541-0.10809-0.29103-0.1268-0.51049-0.51902-0.16738-0.50776-0.050703-0.61325 0.014945-0.59665 0.21476-1.4256 0.32496-1.0219 0.25663-0.57558 0.34322-0.64384 0.75738-1.1923 2.3906-3.4108 0.85838-1.5296 0.51953-1.2268 0.88553-2.6254 0.6796-1.7241 0.89557-1.739 0.56358-0.8533 0.39658-0.51253 0.73313-0.83152 0.64101-0.60438 0.43587-0.32719 0.93615-0.51925 0.91715-0.36362 0.69322-0.1871 2.75-0.5328 0.87327-0.25686 1.297-0.56167 1.2692-0.713 1.7309-1.169 1.5728-1.2354 0.90197-0.81658 0.86295-0.92311 0.67949-0.94432 0.42963-0.87409 0.27944-0.86179 0.16832-0.98148-0.001039-0.41566-0.1212-0.62839-0.32949-0.66414-0.63876-0.59728-0.36478-0.17892-0.39376-0.12781-1.0166-0.16882-1.7109-0.15995-1.0494-0.22888-0.85565-0.47191-0.37592-0.4516-0.31-0.73474-0.12675-0.73276-0.011311-0.72879 0.08615-0.76491 0.24078-1.0106 0.33041-1.0518 1.0536-2.945 1.2975-3.8218 0.65035-1.5745 0.89039-1.4786 0.79482-0.9058 0.77948-0.70088 0.63735-0.49443 1.2285-0.83555 2.9327-1.811 0.75046-0.55575 0.61372-0.56047 0.63683-0.84453 0.27707-0.75609 0.03577-0.71383-0.22011-0.79837-0.26786-0.49446-0.31204-0.35251-0.15505-0.092946 0.54514-0.14582 1.0101-0.62135 1.1081-0.83732 1.0245-0.88662 1.6694-1.6804 0.6343-0.71039 4.8508-5.8002 0.87106-0.96091 1.7105-1.7221 1.8271-1.6689 1.8986-1.6262 7.0443-5.8267 1.8782-1.678 1.7177-1.6966 1.4956-1.7319 1.1977-1.7866 0.70371-1.4614 1.0613-2.8588 0.42729-1.3829 0.34379-1.5174 0.15987-1.5488-0.056069-1.4529-0.21544-1.478-0.50164-2.1933-1.4961-5.5121-0.3493-1.638-0.23244-1.6555-0.054796-1.2097 0.026521-0.65677 0.11196-0.81612 0.17025-0.60084 0.15454-0.35361 0.47501-0.68184 0.84571-0.70895 1.9512-0.9729 0.92334-0.58504 0.31345-0.26378 0.40297-0.4332 0.42664-0.68935 0.23668-0.60337 0.12558-0.47217 0.15124-1.1088 0.009521-0.94886-0.094416-2.3819 0.088523-1.521 0.18269-1.3419 0.35505-1.8133 0.74656-2.8681 1.0029-3.3044 0.90055-2.7107 1.9584-5.4913 0.67168-2.1212 0.32401-1.2343 0.17938-0.97338 0.018197-0.51462-0.051764-0.16037-0.068233-0.028513-0.053505-0.6003 0.12069-0.90602 0.47263-2.191 0.65321-2.1425 0.89436-2.2734 1.4102-3.0072 1.0989-2.0019 0.59682-0.9496 0.70106-0.98621 1.2625-1.5054 1.3262-1.1532 0.26754-0.17298 1.2256-0.54854 1.0123-0.20799 1.0329-0.048779 2.4084 0.17291 0.58079 0.02012 0.71592-0.054511 0.68804-0.19719 0.56845-0.34088 0.46287-0.49501 0.50836-1.1753 0.23662-1.4062 0.21417-3.5489 0.086414-0.82941 0.34866-2.1299 0.12523-1.0393 0.15608-3.0882 0.16356-1.3315 0.31853-1.1614 0.54233-0.94144 0.62264-0.56195 0.59313-0.17112 0.67301 0.090749 0.74228 0.30376 0.65608 0.37619 0.66596 0.48448 0.68166 0.58322 0.92314 0.91669 1.2281 1.5564 1.1904 1.8475 1.1651 2.0543 5.7361 11.046 1.4868 2.6558 1.4547 2.4099 0.7953 1.2206 1.1762 1.6577 1.2347 1.5195 1.1854 1.1933 0.97806 0.73791 0.71622 0.37413 0.62104 0.22464 2.0858 0.42224 1.0198 0.28152 0.57462 0.22116 0.91916 0.4323 0.92922 0.54432 2.0771 1.3382 1.1989 0.68364 2.4672 1.1844 2.0485 0.82876 1.6362 0.56616 1.4048 0.35279 1.1337 0.11264 0.83157-0.080416 0.57768-0.18176 0.33204-0.17158 1.1097-1.1085 0.85267-1.6458 0.39619-1.0918 0.34708-1.1519 1.0792-4.0596 0.32339-0.72998 0.33692-0.062843" stroke="#bdc660"/>
    </defs>
    <g clip-path="url(#p0798e2ba5a)">
     <use y="280.512" fill="#bdc660" stroke="#bdc660" xlink:href="#mcf3a7dde37"/>
    </g>
   </g>
  </g>
 </g>
 <defs>
  <clipPath id="p0798e2ba5a">
   <rect x="7.2" y="7.2" width="303.31" height="266.11"/>
  </clipPath>
 </defs>
</svg>
