<?xml version="1.0" encoding="UTF-8"?>
<!DOCTYPE svg  PUBLIC '-//W3C//DTD SVG 1.1//EN'  'http://www.w3.org/Graphics/SVG/1.1/DTD/svg11.dtd'>
<svg width="216.9pt" height="280.51pt" version="1.1" viewBox="0 0 216.9 280.51" xmlns="http://www.w3.org/2000/svg" xmlns:xlink="http://www.w3.org/1999/xlink">
 <metadata>
  <rdf:RDF xmlns:cc="http://creativecommons.org/ns#" xmlns:dc="http://purl.org/dc/elements/1.1/" xmlns:rdf="http://www.w3.org/1999/02/22-rdf-syntax-ns#">
   <cc:Work>
    <dc:type rdf:resource="http://purl.org/dc/dcmitype/StillImage"/>
    <dc:date>2024-07-04T12:07:46.909386</dc:date>
    <dc:format>image/svg+xml</dc:format>
    <dc:creator>
     <cc:Agent>
      <dc:title>Matplotlib v3.7.1, https://matplotlib.org/</dc:title>
     </cc:Agent>
    </dc:creator>
   </cc:Work>
  </rdf:RDF>
 </metadata>
 <defs>
  <style type="text/css">*{stroke-linejoin: round; stroke-linecap: butt}</style>
 </defs>
 <g id="figure_1">
  <g id="patch_1">
   <path d="m-0 280.51h216.9v-280.51h-216.9v280.51z" fill="none"/>
  </g>
  <g id="axes_1">
   <g id="PatchCollection_1">
    <defs>
     <path id="mc97e671962" d="m187.2-252.1-0.45434 0.11088-0.72283 0.75786-0.84345 1.2496-0.87162 1.6273-0.69528 1.5744-1.3286 3.7005-2.7574 9.1922-1.9005 5.6384-1.0827 2.6842-0.95296 2.0913-3.029 5.9104-0.88418 2.0543-0.79818 2.1049-0.70427 2.1333-2.8265 9.8261-2.8094 12.375-0.68953 4.2273-0.13679 1.5808-0.036128 1.939 0.11967 1.6505 0.23734 1.3463 0.31934 1.105 0.95156 2.0165 1.3159 1.868 1.5913 1.736 1.7942 1.6118 1.9379 1.4864 2.4422 1.6021 1.8672 1.0508 1.8732 0.9006 2.5726 0.94891 3.8132 0.92852 1.8013 0.63366 1.237 0.68398 1.19 0.88705 1.1361 1.0795 1.0764 1.2665 1.0069 1.4572 0.93356 1.6532 1.3029 2.8984 1.3025 3.677 0.9921 3.3631 1.6638 6.734 2.0436 10.114 0.30192 1.2164-0.65992-0.001168-0.90016 0.45338-0.88203 0.70208-0.87794 0.95769-1.164 1.7889-2.4286 4.4257-1.2107 1.8045-1.9957 2.601-2.9593 3.5208-3.1184 3.5328-11.663 12.833-4.9634 5.6222-2.4778 2.9796-1.702 2.1771-1.5639 2.158-1.0882 1.6517-0.95719 1.6454-1.0259 2.1898-1.7725 4.779-1.6072 5.8282-0.69274 1.8646-0.85184 1.8959-2.2348 4.2496-3.1529 5.427-4.5458 7.4532-2.2326 3.5699-2.3509 3.5388-1.881 2.6198-1.9656 2.4607-1.0745 1.1942-1.6466 1.6118-1.4129 1.1742-1.204 0.85118-2.2763 1.2816-2.4632 1.0541-2.6203 0.87724-3.222 0.85499-3.3669 0.71789-6.4151 1.068-6.5735 0.87392-12.085 1.4272-1.3663 0.21539-0.45922 0.18512-0.929-1.6882-6.479-10.773-4.5886-7.9104-4.5612-8.1805-6.4881-11.949-2.0925-4.0742-1.5993-3.3637-1.4324-3.4453-0.77364-2.2571-0.6156-2.3021-0.38862-2.1417-0.18088-1.9038-0.028908-1.3024 0.09229-1.78 0.14414-1.1261 0.58485-2.5525 0.87465-2.463 1.0834-2.3466 0.92617-1.718 3.5045-5.7371 0.85893-1.5929 0.79377-1.8915 0.44232-1.7275 0.10997-1.1493-0.28738-2.4115-0.38312-1.2733-0.88102-2.1299-1.3275-2.4376-1.0054-1.5501-1.9437-2.6511-4.2259-5.3054-1.5347-2.2801-1.074-1.9861-0.78663-1.8407-1.6332-4.4396-0.74438-1.6217-0.86798-1.6236-1.1138-1.8406-1.4377-2.0676-1.3941-1.7643-1.5772-1.8184-1.3939-1.479-1.7044-1.624-1.285-1.0929-2.0053-1.5208-3.5612-2.4046-9.1073-5.6738-1.9118-1.3082-1.6601-1.2748-2.2458-1.9965-3.1046-3.2105-2.042-1.9571 2.1703-3.6895 12.451-22.306 8.0643-14.272 4.4595-7.6736 4.4342-7.3171 2.225-3.4846 2.5544-3.7779 2.5997-3.5264 2.6715-3.1969 2.7774-2.7616 2.9272-2.1859 3.1332-1.4271 3.1236-0.52119 3.2973 0.082311 3.4195 0.47766 7.0433 1.441 3.5578 0.64731 3.5437 0.39092 3.6623 0.044589 5.2001-0.17834 3.5868-0.32428 4.2747-0.69504 3.4148-0.77556 1.9113-0.52499 3.001-0.98004 2.9376-1.1793 2.7453-1.3498 2.4185-1.4622 1.4711-1.0651 1.3011-1.0665 3.4003-3.0227 2.5263-1.8703 1.7868-1.0454 1.835-0.87168 1.1171-0.44116 2.1651-0.72284 1.7854-0.49824 3.7291-0.90585 3.9905-0.80175 4.1957-0.64092 4.3472-0.40568 4.442-0.076807 2.5236 0.14171 2.5166 0.29523 3.3994 0.66476 3.3009 0.93439 3.6752 1.3847 3.9455 1.9154 3.0363 1.734 1.9635 1.3085 0.73416 0.73319" stroke="#bdc660"/>
    </defs>
    <g clip-path="url(#p9d1b78e21b)">
     <use y="280.512" fill="#bdc660" stroke="#bdc660" xlink:href="#mc97e671962"/>
    </g>
   </g>
  </g>
 </g>
 <defs>
  <clipPath id="p9d1b78e21b">
   <rect x="7.2" y="7.2" width="202.5" height="266.11"/>
  </clipPath>
 </defs>
</svg>
