<?xml version="1.0" encoding="UTF-8"?>
<!DOCTYPE svg  PUBLIC '-//W3C//DTD SVG 1.1//EN'  'http://www.w3.org/Graphics/SVG/1.1/DTD/svg11.dtd'>
<svg width="248.72pt" height="280.51pt" version="1.1" viewBox="0 0 248.72 280.51" xmlns="http://www.w3.org/2000/svg" xmlns:xlink="http://www.w3.org/1999/xlink">
 <metadata>
  <rdf:RDF xmlns:cc="http://creativecommons.org/ns#" xmlns:dc="http://purl.org/dc/elements/1.1/" xmlns:rdf="http://www.w3.org/1999/02/22-rdf-syntax-ns#">
   <cc:Work>
    <dc:type rdf:resource="http://purl.org/dc/dcmitype/StillImage"/>
    <dc:date>2024-07-04T12:08:22.462590</dc:date>
    <dc:format>image/svg+xml</dc:format>
    <dc:creator>
     <cc:Agent>
      <dc:title>Matplotlib v3.7.1, https://matplotlib.org/</dc:title>
     </cc:Agent>
    </dc:creator>
   </cc:Work>
  </rdf:RDF>
 </metadata>
 <defs>
  <style type="text/css">*{stroke-linejoin: round; stroke-linecap: butt}</style>
 </defs>
 <g id="figure_1">
  <g id="patch_1">
   <path d="m-0 280.51h248.72v-280.51h-248.72v280.51z" fill="none"/>
  </g>
  <g id="axes_1">
   <g id="PatchCollection_1">
    <defs>
     <path id="m37c3927eb0" d="m214.25-204.98-0.2464 0.093513-1.2084 0.14645-3.0528 0.17986-4.1729 0.12229-15.199 0.23025-3.3264 0.12591-3.6816 0.202-6.417 0.50103-6.8701 0.67205-8.591 2.5661-1.8186 1.3643-0.36358 1.637 0.45487 1.5459 1.0914 1.0002 3.0012 1.3638 2.874 1.8185 0.9565 0.95932 0.87656 1.2929 1.0841 2.078 0.74593 1.7234 0.70019 1.8316 0.66565 1.897 1.443 4.4295 0.73003 2.425 0.82289 2.9443 0.88625 2.9223 0.56832 1.6493 1.0373 2.6631 0.35579 1.0766 0.54534 2.4324 0.57644 3.4499 0.2863 1.4763 0.24536 1.109 0.24566 0.90666 0.50901 1.4057 0.50791 1.0694 1.2352 2.2052 0.49766 1.0962 0.27866 0.75625 0.32177 1.041 0.77252 3.0615 0.18347 0.99087 0.28709 2.4262 0.18633 1.9474 0.01074 0.79099-0.12669 1.0008-0.66441 2.5559-0.33209 1.4278-0.29578 1.4022-0.21074 1.3375-0.19285 2.3569-0.23917 3.969-0.66822 6.7887-0.074346 1.8415 0.054116 1.4693 0.16454 1.4529 0.90282 4.9242 0.33076 2.3225 0.076727 1.368-0.050392 1.0134-0.27535 1.3374-0.45528 1.2591-0.26855 0.59693-0.48455 0.9047-0.85912 1.2211-1.6398 2.1509-1.1409 1.7208-3.5259 4.9742-0.56307 0.87706-0.94375 1.7615-0.54192 1.3253-0.37138 1.2614-0.28337 1.3142-0.20077 1.2307-0.12686 1.2702-0.030976 1.2102 0.044582 1.1924 0.25484 2.3487 0.94416 5.5781 0.18594 1.3229 0.11744 1.2215 0.029454 0.94463-0.044093 0.57835-0.13616 0.19228-0.076118 0.14914-0.83936 0.60353-0.68089 0.40398-1.1507 0.60713-2.0937 0.9274-1.947 0.72396-8.9987 2.9808-6.9264 2.0077-1.8049 0.64137-1.2126 0.51962-1.1416 0.56425-1.3706 0.78932-0.71795 0.47303-0.65481 0.48762-0.57045 0.49743-0.48453 0.52045-0.38447 0.55322-0.13476 0.2627-0.28414 0.99672-0.068401 1.0841 0.11876 2.6955-0.016958 0.81847-0.089563 0.80507-0.18124 0.78188-0.1478 0.44312-0.2335 0.547-0.55858 1.0383-0.67425 1.0365-0.90831 1.06-1.0772 0.97279-2.2357 1.7662-0.57507 0.51146-1.0645 1.0964-0.77769 0.89886-0.75952 0.98421-0.6825 1.0196-1.7308 3.2784-0.47245 0.72555-0.32848 0.42693-0.6689 0.70516-1.133 0.94638-2.5163 1.8692-2.8194 2.2155-0.69619 0.52446-0.72685 0.48356-0.81932 0.45735-1.0206 0.45252-1.0574 0.34938-0.88031 0.20351-0.92912 0.11945-0.44908 0.008363-0.27925-0.041258-0.061959-0.043267-3.8643-1.5183-1.237-0.43737-1.1449-0.3551-1.4477-0.38528-4.2787-0.99967-1.0958-0.32222-1.0341-0.36829-0.82036-0.36051-0.99157-0.56193-0.89936-0.63183-2.3819-1.943-1.054-0.67238-0.76436-0.34479-2.4121-0.82157-1.2032-0.5801-1.0217-0.4063-1.0984-0.21483-1.4101-0.15979-0.67802-0.04464-0.93833 0.046574-0.51597 0.11552-0.44645 0.15808-0.6566 0.31122-2.2286 1.2578-0.97641 0.43459-1.0681 0.31712-1.7339 0.25781-1.4142 0.10553-0.86478 0.010274-1.2641-0.083642-1.1574-0.22338-0.71621-0.21762-1.0187-0.38063-0.80903-0.22689-0.39756-0.044342-0.50403 0.011741-0.53575 0.089904-0.51785 0.16342-0.64408 0.317-1.3685 0.83678-1.1942 0.62242-5.9318 2.5574-0.86351 0.28989-0.78813 0.17712-0.41888 0.022047-0.19316-0.094706 0.021928-0.091803-0.18122-0.28616-0.44302-0.43983-0.58686-0.49151-3.9448-2.8803-1.4041-1.1887-0.79188-0.73574-1.3539-1.3573-2.0141-2.1603-0.9788-1.1027-1.0376-1.235-1.1322-1.4404-1.7243-2.3433-0.7453-1.1206-0.68116-1.1207-0.82484-1.5064-0.63855-1.4115-0.43782-1.3473-0.33736-1.4005-0.32888-1.732-0.56362-3.3815-0.13666-1.1025-0.10883-1.3722-0.39046-5.761-0.057787-2.0574 0.060222-1.6492 0.45822-4.2226 0.033517-1.6368-0.23342-7.2071 0.1258-5.4247-0.015888-0.95315-0.39913-4.6023-0.14027-2.8928-0.14913-1.7609-0.25526-1.8376-0.36208-1.892-0.47709-1.9264-0.6085-1.9421-0.68565-1.7779-0.79583-1.7772-0.89008-1.7776-0.89751-1.6509-3.1369-5.3698-2.5333-4.1502-2.6306-4.1235-4.1866-6.3793-0.25228-0.43394 3.7766-2.2941 4.57-2.9104 5.0305-3.3337 8.8044-5.938 9.412-6.1444 7.355-4.6539 16.845-10.507 14.933-9.5385 3.6401-2.3808 9.9002-6.6091 6.5369-4.2128 13.817-9.0513 4.488-3.0453 6.1652-4.3734 5.547-4.0325 4.9937-3.8195 3.9331-3.167 5.5382-4.6127 2.8054-2.4249 2.7126-2.48 5.0742-5.0111 2.028-1.9375 1.0986-0.97328 0.96842-0.76031 1.0146-0.70737 2.3338-1.432 3.1371-1.8271 3.5654-1.956 3.2757-1.6869 2.7392-1.3417 11.093-5.2473 4.5832-2.2283 14.109-7.2031 8.6752-4.3274 1.5116-0.72242 0.48821-0.19309 2.8244 5.0246 1.362 2.6695 0.61647 1.3442 0.68826 1.712 0.36396 1.0753 0.2981 1.0678 0.23975 1.1752 0.118 1.0173 0.00825 1.4832-0.51448 5.4144-0.2086 1.4452-0.18062 0.88749-0.22343 0.85968-0.26853 0.81691-0.32471 0.77242-0.36776 0.6769-0.58421 0.80817-0.95168 1.0231-1.0095 0.88604-1.3138 0.95571-3.0033 2.0062-1.0461 0.83597-0.46842 0.47429-0.42011 0.53375-0.32136 0.5034-0.41131 0.79898-0.49703 1.332-0.25672 0.94929-0.31229 1.6119-0.44072 2.815-0.19102 0.91725-0.48141 1.8236-0.46266 1.4455-0.57509 1.6137-0.54404 1.4132-0.97227 2.3381-0.26406 0.83694-0.17237 0.80801-0.076877 0.97746 0.066878 0.74387 0.17747 0.34026" stroke="#bdc660"/>
    </defs>
    <g clip-path="url(#pea4a60b4f5)">
     <use y="280.512" fill="#bdc660" stroke="#bdc660" xlink:href="#m37c3927eb0"/>
    </g>
   </g>
  </g>
 </g>
 <defs>
  <clipPath id="pea4a60b4f5">
   <rect x="7.2" y="7.2" width="234.32" height="266.11"/>
  </clipPath>
 </defs>
</svg>
