<?xml version="1.0" encoding="UTF-8"?>
<!DOCTYPE svg  PUBLIC '-//W3C//DTD SVG 1.1//EN'  'http://www.w3.org/Graphics/SVG/1.1/DTD/svg11.dtd'>
<svg width="267.12pt" height="280.51pt" version="1.1" viewBox="0 0 267.12 280.51" xmlns="http://www.w3.org/2000/svg" xmlns:xlink="http://www.w3.org/1999/xlink">
 <metadata>
  <rdf:RDF xmlns:cc="http://creativecommons.org/ns#" xmlns:dc="http://purl.org/dc/elements/1.1/" xmlns:rdf="http://www.w3.org/1999/02/22-rdf-syntax-ns#">
   <cc:Work>
    <dc:type rdf:resource="http://purl.org/dc/dcmitype/StillImage"/>
    <dc:date>2024-07-04T12:08:18.728406</dc:date>
    <dc:format>image/svg+xml</dc:format>
    <dc:creator>
     <cc:Agent>
      <dc:title>Matplotlib v3.7.1, https://matplotlib.org/</dc:title>
     </cc:Agent>
    </dc:creator>
   </cc:Work>
  </rdf:RDF>
 </metadata>
 <defs>
  <style type="text/css">*{stroke-linejoin: round; stroke-linecap: butt}</style>
 </defs>
 <g id="figure_1">
  <g id="patch_1">
   <path d="m0 280.51h267.12v-280.51h-267.12v280.51z" fill="none"/>
  </g>
  <g id="axes_1">
   <g id="PatchCollection_1">
    <defs>
     <path id="mab1fdd30d8" d="m136.8-260.59 0.949-0.44502 1.3763 0.3702 2.0012 1.492 2.0694 2.3692 1.7263 2.529 1.8672 3.4555 1.4075 3.68 0.74292 3.7714-0.010264 3.4814-0.46469 3.4701-0.62599 3.4638-0.49792 3.471-0.081395 3.4971 0.26769 2.1689 0.50935 2.1712 0.76933 2.2721 0.97629 2.246 1.3151 2.4882 1.5151 2.4174 0.99126 1.3991 0.8313 1.0856 2.8397 3.2482 3.1052 2.9401 6.6015 5.2061 2.506 2.1907 3.1574 3.4354 2.3696 3.197 2.0805 3.3647 1.7696 3.4532 3.3785 7.9155 1.9882 4.3384 1.7234 3.2571 1.1425 1.6921 1.3124 1.3606 1.1936 0.78402 0.77241 0.33916 1.1893 0.33665 1.4951 0.18582 1.8469-0.041658 2.8754-0.43975 2.4188-0.59333 5.9157-1.7806 2.0002-0.49475 1.3103-0.25578 2.6474-0.32266 2.3481-0.040474 2.8887 0.40713 0.68166 0.19624 1.8172 0.76987 1.3446 0.83267 1.3766 1.1343 1.1993 1.2797 1.7055 2.3051 2.7425 4.58 4.9435 8.927 2.6163 3.9768 3.9055 4.9233 2.143 3.4324 1.9303 3.9218 1.6987 4.2717 1.4224 4.5087 0.73077 2.998 0.60356 3.7581 0.26315 3.6525-0.017151 3.3066-0.30396 3.7082-0.94736 5.4169-1.4999 6.3127-1.2662 3.8942-1.8384 3.8752-2.3729 3.643-1.9912 2.4172-2.2366 2.2242-1.6216 1.3465-2.221 1.5508-2.5535 1.4888-2.8767 1.4498-8.8989 4.1256-3.5564 1.8503-3.2489 1.9507-2.6001 1.8149-1.5594 1.2241-2.4012 2.1222-1.9875 2.027-1.2311 1.413-2.0168 2.6563-1.2672 1.9603-1.6298 3.0074-1.404 3.2354-1.2445 3.5755-1.2025 4.1881-1.9977 7.828-0.99673 3.4414-1.1584 3.0793-0.47049 0.83891-0.21896 0.24117-0.24116 0.072314-0.69344-0.70511-3.3113-2.3835-2.0445-1.3118-4.017-2.3606-8.2333-4.3407-23.31-11.224-8.8869-4.5139-4.6351-2.5309-3.0806-1.8069-3.8494-2.4162-3.7986-2.5213-13.711-9.5439-8.8423-6.3785-6.6857-5.0971-4.3445-3.6343-2.0528-1.9064-1.8991-1.968-1.6622-2.0191-1.3195-2.0368-0.67153-1.4222-0.49342-1.5629-0.13059-0.73198-0.019177-0.75592 0.17557-0.37038-0.48614-0.22495-0.63548-1.0184-0.68798-1.9025-0.38132-1.6476-0.33036-2.4543-0.11928-2.1345 0.041505-7.5483-0.11975-1.7763-0.36413-2.1017-0.83616-2.4546-1.1911-2.345-1.4469-2.2524-1.623-2.174-3.5384-4.1546-3.2978-3.6014-1.7101-2.0449-1.6158-2.1542-1.5232-2.2455-1.3618-2.208-2.4938-4.5791-1.8639-3.9859-4.2951-10.596-3.1456-7.3373-0.91063-2.5322-0.79796-2.5959-2.7915-10.689-0.7705-2.6697-0.87929-2.6309-1.0411-2.5655-1.2679-2.4665-1.2967-2.0023-0.99977-1.3562-2.8184-3.4542-11.321-13.196-2.4119-3.0439-0.77439-1.1784-0.048445-0.25092 0.54198-0.75289 1.4208-1.6046 1.9661-2.0416 2.2937-2.1855 2.4808-2.1197 7.3523-5.4979 5.9905-3.7783 4.7009-3.2725 3.2388-2.5214 2.3925-2.1348 0.84618-0.57156 1.1195-0.52764 1.6191-0.46527 8.125-1.7098 3.351-0.87494 2.7089-0.86348 6.3108-2.4474 1.7079-0.41333 1.7697-0.21729 5.9735 0.00713 2.0806-0.18868 2.1406-0.35155 8.4614-1.9133 4.1183-0.58821 8.9903-0.95598 5.2477-0.77536 1.622-0.39159 1.8953-0.64138 2.4248-0.98411 5.5261-2.459 2.2179-0.85554 1.2667-0.38616 1.1296-0.22896 1.0695-0.092371 1.6731 0.12649 2.3394 0.50219" stroke="#bdc660"/>
    </defs>
    <g clip-path="url(#pb92dca871c)">
     <use y="280.512" fill="#bdc660" stroke="#bdc660" xlink:href="#mab1fdd30d8"/>
    </g>
   </g>
  </g>
 </g>
 <defs>
  <clipPath id="pb92dca871c">
   <rect x="7.2" y="7.2" width="252.72" height="266.11"/>
  </clipPath>
 </defs>
</svg>
