<?xml version="1.0" encoding="UTF-8"?>
<!DOCTYPE svg  PUBLIC '-//W3C//DTD SVG 1.1//EN'  'http://www.w3.org/Graphics/SVG/1.1/DTD/svg11.dtd'>
<svg width="371.52pt" height="276.82pt" version="1.1" viewBox="0 0 371.52 276.82" xmlns="http://www.w3.org/2000/svg" xmlns:xlink="http://www.w3.org/1999/xlink">
 <metadata>
  <rdf:RDF xmlns:cc="http://creativecommons.org/ns#" xmlns:dc="http://purl.org/dc/elements/1.1/" xmlns:rdf="http://www.w3.org/1999/02/22-rdf-syntax-ns#">
   <cc:Work>
    <dc:type rdf:resource="http://purl.org/dc/dcmitype/StillImage"/>
    <dc:date>2024-07-04T12:08:22.736144</dc:date>
    <dc:format>image/svg+xml</dc:format>
    <dc:creator>
     <cc:Agent>
      <dc:title>Matplotlib v3.7.1, https://matplotlib.org/</dc:title>
     </cc:Agent>
    </dc:creator>
   </cc:Work>
  </rdf:RDF>
 </metadata>
 <defs>
  <style type="text/css">*{stroke-linejoin: round; stroke-linecap: butt}</style>
 </defs>
 <g id="figure_1">
  <g id="patch_1">
   <path d="m0 276.82h371.52v-276.82h-371.52v276.82z" fill="none"/>
  </g>
  <g id="axes_1">
   <g id="PatchCollection_1">
    <defs>
     <path id="m965efe0c80" d="m221.49-257.66-0.098763 1.1187 0.022255 1.0686 0.11967 1.5224 0.2056 1.5866 0.252 1.3269 0.25061 0.9082 0.37792 0.95876 0.39027 0.7072 0.4917 0.67146 0.43917 0.48382 0.92448 0.81361 0.86523 0.60135 1.2116 0.67225 1.536 0.65424 1.3987 0.45989 2.1138 0.51907 2.2298 0.38127 1.9394 0.22792 3.4384 0.22592 3.7967 0.025563 2.4995-0.1004 2.2112-0.15913 12.881-1.4388 4.3304-0.37333 2.4682-0.15144 3.3305-0.1 1.5768 0.009843 1.7816 0.067224 3.2368 0.30714 1.2203 0.19527 1.77 0.39168 0.84174 0.24186 1.8785 0.70849 1.9014 1.013 1.847 1.1991 3.4313 2.4406 4.7541 3.7065 3.9962 3.3917 3.2662 2.9765 14.734 14.21 2.0375 2.0691 1.8586 1.9997 1.1494 1.3308 1.8683 2.4099 1.4454 2.1093 1.2197 1.9525 1.2183 2.1633 0.89671 1.8396 0.35867 0.85775 0.63458 1.9804 0.99765 3.9387 0.78749 2.3028 0.96709 2.3627 2.1623 4.9016 1.3232 3.2954 0.85974 2.5793 1.7507 6.159 0.84402 2.3225 1.0217 2.1803 0.46206 0.79378 0.7768 1.1489 1.6116 1.9378 2.8715 2.9801 0.97937 1.2873 0.40308 0.79289 0.20326 0.64897 0.02539 0.38059-0.076582 0.1523-1.9894 1.375-2.7502 1.761-4.6604 2.8935-5.252 3.1403-5.4171 3.0107-8.8272 4.61-2.3978 1.3637-2.7962 1.6888-2.8283 1.8038-4.8746 3.3074-12.25 8.7517-2.5167 1.9224-1.8974 1.6356-1.9674 1.8235-1.8016 1.9077-0.58094 0.70847-1.3764 1.9118-4.4282 7.1543-1.372 1.9121-1.7876 2.0738-4.4504 4.8622-1.3464 1.3964-1.9046 1.6868-1.2663 0.96276-2.7196 1.8829-2.2252 1.6445-1.279 1.0575-1.9126 1.8607-0.88134 1.0689-1.1895 1.7026-2.5701 4.3374-3.2022 5.094-1.4531 2.0178-0.57626 0.66251-1.3535 1.3504-1.5001 1.2944-1.8946 1.4695-4.35 3.0852-7.56 5.0095-2.8198 2.0957-3.8213 3.2099-5.7583 5.2067-1.4537 1.1899-1.6906 1.2632-2.6055 1.6687-2.1123 1.1331-2.0055 0.92723-1.5386 0.60639-1.5612 0.51746-2.5877 0.67925-2.5728 0.45603-2.922 0.30369-5.666 0.418-2.2417 0.26814-1.4707 0.26096-2.0686 0.53064-1.0428 0.35784-1.1678 0.48208-1.2924 0.65293-1.5729 1.0326-1.7594 1.6278-1.3349 1.5951-0.61067 0.91166-0.63112 1.2122-0.59229 1.6742-0.5199 2.4144-0.27483 2.4688-0.069917 1.6189 0.050363 0.9668 0.10828 0.47814-0.35123 0.32143-0.94714 0.26053-1.4353 0.17644-2.1217-0.041815-2.5212-0.30507-2.234-0.4016-2.3604-0.50974-5.2447-1.3223-15.989-4.5195-5.988-1.5162-3.2927-0.70044-2.8108-0.48715-2.7845-0.35517-1.3098-0.11448-2.4723-0.11196-2.0507 0.016114-1.8539 0.10499-2.9499 0.35973-2.8309 0.61369-2.6746 0.9063-1.0811 0.48284-2.2322 1.1652-4.7838 2.7304-2.6902 1.382-1.0567 0.46082-1.2971 0.47301-1.1811 0.3195-0.66526 0.12284-0.82764 0.085131-1.0472-0.014001-0.85864-0.12856-0.62452-0.17127-1.7065-0.85172-1.365-1.0654-1.1263-1.0998-0.84472-0.93339-2.0034-2.5025-4.9172-6.7716-2.0469-2.5837-1.9748-2.2742-5.6724-6.1417-1.406-1.6107-1.6718-2.0847-1.501-2.1028-1.0071-1.5823-1.2897-2.3137-1.1922-2.6002-1.1177-2.9256-0.75862-2.3402-0.56662-2.1616-0.66348-3.2939-0.77625-5.1403-0.7079-6.6614-1.3997-9.7528-0.77145-5.8957-0.27408-1.8939-0.3499-1.8817-0.30256-1.2942-0.75502-2.6823-0.64516-1.9899-1.5302-4.1228-0.88491-2.1161-1.2504-2.7258-2.6361-5.1042-1.4231-2.996-1.1326-2.8565-0.91837-2.7148-1.1279-3.9682-0.85174-3.8801-0.56581-3.5002-0.85121-6.9559-0.4654-3.2199-0.44047-2.2657-0.4806-1.9499-0.56686-1.9246-0.6508-1.9143-1.1658-2.9532-0.92148-2.0507-0.60618-1.2401-1.7642-3.2004-1.0388-1.6615-1.3492-1.9587-1.6572-2.1881-4.435-5.6412-1.4209-1.9017-1.0528-1.5993-0.42932-0.81644-0.075202-0.59525-0.16462-0.18505-0.15963-0.40266-0.12075-0.65711-0.045262-0.99036 0.079824-1.0766 0.24236-1.1825 0.6216-1.5575 1.4706-1.9842 2.076-1.7588 2.5202-1.5426 2.826-1.3525 3.0256-1.1887 3.1489-1.0448 3.7406-1.0495 4.5154-1.0432 2.9793-0.56336 8.1717-1.3064 3.153-0.38677 3.1086-0.24907 3.0567-0.056252 7.3994 0.35645 4.467-9.94e-4 3.8336-0.21536 2.6988-0.23024 6.9092-0.65166 4.6885-0.54825 12.988-1.9572 5.7007-0.78342 2.6539-0.45206 1.51-0.32006 1.5876-0.40023 2.8067-0.8579 2.6532-0.99606 2.5758-1.1761 2.4628-1.384 2.3035-1.634 1.3177-1.1578 1.3506-1.4163 1.389-1.7259 1.0999-1.5661 1.5409-2.4893 1.7479-3.2623 1.3804-2.9528 1.6067-3.8373 1.1918-3.2107 0.78259-2.6608 0.47489-2.1819 0.26531-1.6227 0.16438-1.4755 0.021257-0.71109-0.038253-0.32701-0.060697-0.064955 3.1433 0.28343 3.1495 0.42395 9.4529 1.8841 1.9351 0.57005 6.6983 2.4789 2.1309 0.58376 1.9884 0.31885 1.7684 0.13514 1.041 0.021956 1.2909-0.057735 0.89162-0.12354 0.89739-0.18925 1.3181-0.37233 1.3272-0.45968 7.4882-3.0529 2.1324-0.69853 1.1806-0.31966 1.3075-0.30072 2.6266-0.44731 5.9754-0.67689 1.5292-0.28401 1.1744-0.32276 1.0582-0.43868 0.90649-0.59582 0.43027-0.41952 0.76114-1.1108 0.36923-0.79043 0.31367-0.84492 1.3057-4.1896 0.32802-0.76232 0.38304-0.69055 0.58983-0.74256 0.43002-0.3706 0.52042-0.33926 0.98153-0.46224 1.952-0.62816 0.75953-0.1535 0.31321 0.0295" stroke="#bdc660"/>
    </defs>
    <g clip-path="url(#p2a0ad47e93)">
     <use y="276.821845" fill="#bdc660" stroke="#bdc660" xlink:href="#m965efe0c80"/>
    </g>
   </g>
  </g>
 </g>
 <defs>
  <clipPath id="p2a0ad47e93">
   <rect x="7.2" y="7.2" width="357.12" height="262.42"/>
  </clipPath>
 </defs>
</svg>
