<?xml version="1.0" encoding="UTF-8"?>
<!DOCTYPE svg  PUBLIC '-//W3C//DTD SVG 1.1//EN'  'http://www.w3.org/Graphics/SVG/1.1/DTD/svg11.dtd'>
<svg width="371.52pt" height="219.51pt" version="1.1" viewBox="0 0 371.52 219.51" xmlns="http://www.w3.org/2000/svg" xmlns:xlink="http://www.w3.org/1999/xlink">
 <metadata>
  <rdf:RDF xmlns:cc="http://creativecommons.org/ns#" xmlns:dc="http://purl.org/dc/elements/1.1/" xmlns:rdf="http://www.w3.org/1999/02/22-rdf-syntax-ns#">
   <cc:Work>
    <dc:type rdf:resource="http://purl.org/dc/dcmitype/StillImage"/>
    <dc:date>2024-07-04T12:08:21.903189</dc:date>
    <dc:format>image/svg+xml</dc:format>
    <dc:creator>
     <cc:Agent>
      <dc:title>Matplotlib v3.7.1, https://matplotlib.org/</dc:title>
     </cc:Agent>
    </dc:creator>
   </cc:Work>
  </rdf:RDF>
 </metadata>
 <defs>
  <style type="text/css">*{stroke-linejoin: round; stroke-linecap: butt}</style>
 </defs>
 <g id="figure_1">
  <g id="patch_1">
   <path d="m0 219.51h371.52v-219.51h-371.52v219.51z" fill="none"/>
  </g>
  <g id="axes_1">
   <g id="PatchCollection_1">
    <defs>
     <path id="m279d4dd313" d="m342.68-107.77 1.9179 2.8427 0.87171 1.4252 1.2634 2.4704 0.63863 1.4405 0.48404 1.4018 0.22992 1.3739-0.047044 0.99775-0.23926 0.97327-0.46553 1.0086-0.6467 0.97259-1.0399 1.2078-1.7262 1.558-1.9559 1.4874-4.1205 2.96-1.9607 1.5732-1.7658 1.7089-0.83848 0.98781-0.92154 1.2089-3.9845 5.5126-0.84164 1.0996-1.9613 2.4006-0.75715 1.0196-6.4764 9.1099-1.9262 2.8785-4.7254 7.7733-0.95317 1.469-0.62761 0.85651-0.68356 0.70407-0.92494 0.58782-1.1644 0.36868-1.2938 0.10176-0.68397-0.047289-1.2565-0.20617-4.0297-0.93588-1.6107-0.21417-1.4595 0.023132-1.3486 0.28183-1.1298 0.441-0.9804 0.52508-0.94721 0.6308-1.3519 1.1254-0.82673 0.84309-1.0556 1.3219-0.64258 1.0226-0.58094 1.0876-1.6949 3.5548-1.6853 3.2537-1.474 2.4915-1.4037 2.1413-0.93038 1.3099-1.8072 2.311-1.367 1.4545-2.5713 2.3892-0.96394 0.70862-1.0687 0.54106-1.0393 0.28992-1.1303 0.13057-0.88503 0.003568-1.8126-0.20992-1.8818-0.46616-1.9061-0.69622-1.8873-0.91557-0.82594-0.48022-1.1721-0.77327-1.1521-0.86388-1.117-0.92841-1.6494-1.515-2.6623-2.665-1.7721-1.6309-0.77876-0.6216-2.0155-1.4116-1.8998-1.1622-1.7656-0.89079-1.2258-0.48713-1.0111-0.33158-1.5994-0.40877-2.0792-0.32742-1.1995-0.093167-0.97447-0.020454-1.418 0.063211-2.1306 0.2793-4.384 0.92368-1.5695 0.21358-1.0724 0.085087-0.99967 0.033577-1.1997-0.023861-3.5403-0.32039-0.72112-0.051715-0.87832 0.003375-0.94148 0.14775-0.71681 0.33364-0.44388 0.53281-0.12662 0.44264 0.026718 0.55649 0.38825 0.77122-0.25469-0.042566-0.5852-0.33041-0.81017-0.54093-1.8717-1.424-1.3379-1.1354-1.5619-1.4686-1.3333-1.4106-1.226-1.4828-1.144-1.6445-0.91751-1.6173-0.76973-1.637-1.1829-2.8936-0.52657-1.1685-0.58687-1.0509-0.68338-0.8951-0.86113-0.73915-0.97818-0.50143-1.2263-0.2515-1.4297 0.13555-1.4925 0.46698-1.535 0.7023-1.5632 0.86693-1.5814 0.98024-3.1927 2.1641-3.2098 2.2995-17.857 13.04-21.873 15.773-0.18702-0.77123-0.31568-0.76932-0.14396-0.2993-0.61208-0.97042-0.88215-0.70194-0.47905-0.16704-0.69288-0.098614-0.48946-0.005836-1.3295 0.12922-5.9018 1.0993-2.2624 0.23515-2.2877-0.031577-1.1563-0.14955-1.4544-0.29544-2.5537-0.7284-2.323-0.83537-2.7405-1.1959-2.5349-1.3555-1.1829-0.74974-0.93127-0.65396-1.1857-0.91858-3.2653-2.801-2.048-1.5742-1.5158-1.0171-1.3838-0.72074-3.3429-1.2144-1.184-0.48732-0.83504-0.4122-1.9942-1.2157-1.9892-1.4629-1.9905-1.626-4.017-3.458-2.0477-1.7012-2.0929-1.5922-2.1578-1.4044-1.3407-0.72007-2.1096-0.9508-2.1052-0.85602-2.1626-0.73836-1.251-0.32688-1.274-0.24823-1.6126-0.1842-2.0959-0.027112-2.118 0.17315-2.1242 0.33866-2.1147 0.4781-1.9926 0.55956-5.1189 1.5911-2.2467 0.59425-2.2517 0.34578-0.84388 0.035606-1.3699-0.042472-1.0106-0.095358-1.0848-0.15173-2.4054-0.48957-2.4398-0.68444-2.4514-0.86479-2.4359-1.0437-2.3864-1.2335-1.1906-0.71274-0.96821-0.63843-1.5408-1.1474-1.3713-1.1908-0.64532-0.62774-1.4861-1.6411-0.61982-0.77398-1.4325-2.0013-1.2482-1.9766-2.6154-4.5057 38.89-25.784 9.4106-6.2927 6.9556-4.7198 4.5786-3.188 4.2789-3.095 3.9857-2.991 7.2476-5.5434 2.328-1.7095 3.6974-2.5736 7.3792-4.9284 12.504-9.0179 6.888-4.8428 2.9583-1.9284 2.6881-1.5818 2.1654-1.1812 4.2306-2.167 2.0584-1.138 2.8137-1.7102 3.3419-2.2464 2.1726-1.5834 3.5373-2.7447 3.5156-2.9704 1.7277-1.5872 1.6414-1.6267 1.4998-1.6362 2.4769-2.9276 1.8913-1.9786 2.2083-1.9941 1.1937-0.96326 2.0784-1.5063 2.1391-1.3303 2.1799-1.1105 0.84207-0.35563 1.6423-0.58414 1.1924-0.35472 2.9567-0.71699 1.2305-0.34335 1.0229-0.36307 0.9068-0.41367 1.6966-1.0529 3.3643-2.5327 0.97308-0.65009 1.6835-0.959 1.9529-0.89232 1.9669-0.7431 2.9439-1.0219 1.7925-0.72316 3.9875-1.8149 3.9712-1.9626 4.1115-2.1935 4.6305-2.6454 5.1978-3.1343 4.36-2.7294 1.1824 2.5442 2.3228 4.5848 4.2752 7.8779 2.9329 5.1939 2.7401 4.6852 1.3135 2.0819 1.3685 1.9421 1.4647 1.7629 1.6061 1.5375 2.0718 1.4757 1.3344 0.79174 3.23 1.7887 1.7428 1.0317 1.5997 1.0745 1.6443 1.3216 1.5253 1.5462 0.88188 1.1218 0.75025 1.1845 0.88438 1.9957 0.4964 2.2001 0.0785 1.2568-0.069223 1.2503-0.25392 1.3618-0.44295 1.315-0.6168 1.219-0.78804 1.1404-0.92814 1.0302-1.0655 0.93357-1.1088 0.78076-1.2008 0.69036-2.3565 1.0246-2.4954 0.76302-2.5823 0.58687-7.529 1.3573-2.1635 0.50459-1.814 0.62262-0.82429 0.42744-0.63734 0.47458-0.44292 0.55121-0.14883 0.57332 0.41568 0.92079 1.0666 0.92386 1.5474 0.92525 1.8975 0.92514 2.1486 0.92338 4.7732 1.8316 2.5298 0.90037 5.0261 1.6802 4.9332 1.4722 2.4788 0.63764 2.4835 0.53852 2.4879 0.40497 2.4934 0.22744 2.7351 0.00626 2.741-0.20214 2.7445-0.35582 2.7464-0.46773 2.7473-0.54813 5.4951-1.2493 16.405-4.0955 5.3327-1.2183 2.5908-0.5077 2.5082-0.39498 2.3894-0.2311 0.99272-0.031005 1.9169 0.14663 1.4578 0.40833 1.6091 0.82376 1.1605 0.86444 1.2343 1.1562 1.4405 1.6005 1.3947 1.8004 1.328 1.9763 1.2342 2.133 1.1404 2.319 0.81373 1.8933 0.96431 2.5705 0.88863 2.7784 1.584 5.4672 0.30638 0.65904" stroke="#bdc660"/>
    </defs>
    <g clip-path="url(#p74809e35ed)">
     <use y="219.509839" fill="#bdc660" stroke="#bdc660" xlink:href="#m279d4dd313"/>
    </g>
   </g>
  </g>
 </g>
 <defs>
  <clipPath id="p74809e35ed">
   <rect x="7.2" y="7.2" width="357.12" height="205.11"/>
  </clipPath>
 </defs>
</svg>
