<?xml version="1.0" encoding="UTF-8"?>
<!DOCTYPE svg  PUBLIC '-//W3C//DTD SVG 1.1//EN'  'http://www.w3.org/Graphics/SVG/1.1/DTD/svg11.dtd'>
<svg width="241.16pt" height="280.51pt" version="1.1" viewBox="0 0 241.16 280.51" xmlns="http://www.w3.org/2000/svg" xmlns:xlink="http://www.w3.org/1999/xlink">
 <metadata>
  <rdf:RDF xmlns:cc="http://creativecommons.org/ns#" xmlns:dc="http://purl.org/dc/elements/1.1/" xmlns:rdf="http://www.w3.org/1999/02/22-rdf-syntax-ns#">
   <cc:Work>
    <dc:type rdf:resource="http://purl.org/dc/dcmitype/StillImage"/>
    <dc:date>2024-07-04T12:08:27.916768</dc:date>
    <dc:format>image/svg+xml</dc:format>
    <dc:creator>
     <cc:Agent>
      <dc:title>Matplotlib v3.7.1, https://matplotlib.org/</dc:title>
     </cc:Agent>
    </dc:creator>
   </cc:Work>
  </rdf:RDF>
 </metadata>
 <defs>
  <style type="text/css">*{stroke-linejoin: round; stroke-linecap: butt}</style>
 </defs>
 <g id="figure_1">
  <g id="patch_1">
   <path d="m0 280.51h241.16v-280.51h-241.16v280.51z" fill="none"/>
  </g>
  <g id="axes_1">
   <g id="PatchCollection_1">
    <defs>
     <path id="m125ba1f6ee" d="m199.59-260.15-0.99675 1.4597-0.49022 0.86318-0.37458 0.84838-0.32529 0.89556-0.8771 2.6196-0.36867 1.398-0.10632 0.79286 0.039635 0.74916 0.12758 0.46982 0.17179 0.3854 0.22956 0.36845 0.53204 0.59247 0.84234 0.62292 0.86532 0.445 0.96028 0.36905 1.0561 0.32646 1.3743 0.36137 1.7376 0.40286 3.6411 0.75064 1.6195 0.39415 0.68576 0.20777 0.89713 0.33559 0.78159 0.37869 0.68002 0.43776 0.32504 0.26669 0.30796 0.3079 0.26414 0.33248 0.14103 0.22025 0.26259 0.55633 0.17284 0.55101 0.13677 0.58864 0.31289 1.6576 0.1156 0.78475 0.15032 1.6622 0.098152 0.6768 0.096996 0.44797 0.14713 0.5026 0.25795 0.67868 0.4327 0.95603 0.43846 0.90038 1.1751 2.262 0.99707 2.119 0.7237 1.633 1.0704 2.6702 0.68184 1.8567 0.64754 1.982 0.36927 1.336 0.55516 2.4688 0.39684 1.3687 0.35695 0.93397 0.25216 0.53837 0.36468 0.66482 0.10695 0.12329-0.096661-0.015223-0.40362 0.068829-0.64114 0.17104-0.91732 0.28989-1.7335 0.63068-2.2615 0.94559-5.2486 2.3757-3.46 1.7249-2.6489 1.3926-2.0142 1.1732-3.4221 2.1801-0.62462 0.35458-0.93512 0.44401-0.62296 0.24596-1.4118 0.46956-1.7278 0.48937-1.7641 0.442-1.1931 0.24147-0.68668 0.10069-0.68759 0.066028-0.66951 0.030481-1.6642 0.001754-0.80915 0.052356-0.92604 0.11709-0.94518 0.16087-2.3863 0.49269-1.4781 0.35201-0.94097 0.29866-0.65412 0.26061-0.5806 0.28013-0.52927 0.31341-0.67353 0.54091-0.48778 0.64062-0.24969 0.65197-0.12354 0.65536-0.067488 0.69492-0.032764 0.70142 0.023519 1.6364 0.1083 1.4343 0.26705 2.7946 0.05465 0.94808 0.016134 1.1067-0.091649 1.6334-0.12759 0.99308-0.30099 1.7201-0.25313 1.1792-0.20113 0.76144-0.3231 0.96102-0.26542 0.61971-0.27022 0.52924-0.26822 0.44724-0.35788 0.5126-0.44562 0.55384-0.51456 0.55594-0.78066 0.70385-0.45458 0.32681-0.60361 0.35046-0.42609 0.19943-0.62659 0.23684-1.5305 0.48283-1.7365 0.61081-1.1157 0.42763-3.2287 1.3212-1.4526 0.53927-1.9209 0.6306-4.2047 1.2494-0.94855 0.30804-1.0828 0.39008-0.73757 0.31566-0.777 0.43781-0.54991 0.44543-0.326 0.38291-0.38002 0.7806-0.134 0.51247-0.14418 1.0694-0.064762 1.3078 0.029687 0.72903 0.083449 0.75379 0.66418 4.0151 0.1265 1.161 0.10656 1.5879 0.159 1.0654 0.44321 2.0193 0.15113 0.8537 0.023515 0.61872-0.082015 0.68861-0.16105 0.60676-0.18631 0.50975-0.33119 0.74215-0.52078 1.0421-0.37296 0.66064-0.44472 0.71004-0.65232 0.92105-0.5649 0.65289-0.61956 0.61942-0.66573 0.5877-0.5868 0.43867-0.65952 0.42908-2.5785 1.4719-0.95418 0.58153-0.91251 0.59912-1.0912 0.82001-0.39054 0.33916-0.504 0.49747-0.4562 0.55284-0.45226 0.76074-0.30944 0.75496-0.13897 0.47041-0.073198 0.4629 0.030038 0.58793 0.16847 0.58121 0.29058 0.51939 0.19134 0.23371 0.30981 0.28502 0.38105 0.26113 0.5201 0.27266 0.81619 0.34146 1.5083 0.54249 0.68976 0.28205 0.45832 0.2225 0.71312 0.42519 0.69255 0.5259 0.58985 0.56753 0.58686 0.7103 0.39658 0.58471 0.48137 0.89857 1.0084 2.1562 0.641 1.2415 1.441 2.6089 3.2123 5.5402 1.6472 2.9168 0.8067 1.5062 1.1037 2.2106 1.2905 2.8298 1.215 2.8973 1.117 2.8896 1.2884 3.5049 0.23272 0.57444 0.096515 0.16642-0.055716-0.004101-0.30257 0.14406-0.27294 0.25258-0.19352 0.2358-0.24042 0.36664-0.21291 0.39853-0.31093 0.71717-0.13981 0.40151-0.12495 0.47864-0.084572 0.64583-0.003132 0.40814 0.050757 0.55529 0.23472 1.2646 0.080908 0.56532 0.019501 0.60535-0.039542 0.56241-0.12082 0.78837-0.42157 1.8387-0.37553 1.8719-0.73872 2.5401-0.28832 1.1122-0.17292 0.89736-0.22344 1.6077-0.16394 0.71177-0.0887 0.25291-0.31954 0.62774-0.42141 0.60724-0.86804 1.0971-0.35565 0.49962-0.35234 0.63172-0.25808 0.72954-0.45892 2.1828-0.17999 0.60712-0.2549 0.57795-0.25832 0.41186-0.42515 0.52457-0.4374 0.44958-1.8674 1.6851-0.83593 0.85106-0.59942 0.68559-1.3519 1.6578-0.45938 0.50397-0.77331 0.72503-1.6671 1.3452-1.0197 0.74998-1.1004 0.7365-1.3497 0.8086-1.3289 0.70265-0.79431 0.36432-0.99055 0.38195-0.91658 0.27835-0.56286 0.13356-0.19367 0.020056-0.08666-0.071674-0.13102-0.040805-0.31342-0.018362-0.5491 0.072128-0.36456 0.091255-0.63704 0.21976-0.44128 0.19214-1.0202 0.53678-1.153 0.71258-0.97528 0.70429-0.6609 0.57268-1.0707 1.0208-0.60856 0.50703-0.78364 0.5111-0.52341 0.27478-0.83703 0.36799-0.89298 0.32644-4.5131 1.3144-1.0837 0.35962-1.2135 0.45629-1.0965 0.48195-0.98556 0.51309-1.0731 0.64741-0.70297 0.48086-0.58792 0.44426-0.52111 0.43311-1.5496 1.4503-2.3289 2.4038-2.1897 2.2049-1.5812 1.7395-1.3774 1.6201-0.8579 1.0953-2.0021 2.8537-1.6293 2.4483-1.0195 1.3797-0.82582 1.0177-0.73377 0.83072-0.71506 0.75909-0.95574 0.95959-0.95948 0.8749-0.89158 0.67647-0.32104 0.20321-0.56007 0.2974-0.71487 0.27379-0.65656 0.16571-0.50746 0.079782-0.42679 0.03628-0.6925-0.003478-0.28503-0.027891-0.51882-0.10284-0.85016-0.3501-0.77897-0.47819-0.74942-0.54098-0.66617-0.67092-0.18754-0.2648-0.25906-0.45631-0.30119-0.70491-0.33247-1.0816-0.30476-1.3995-0.22412-1.4147-0.19936-1.9781-0.13983-2.4115-0.036329-2.0877 0.074465-1.3645 0.37765-3.3261 0.23647-2.7517 0.18766-2.9553 0.029766-0.99633-0.009322-0.92395-0.058941-0.93657-0.13891-1.1451-0.6839-3.8459-0.16288-1.1478-0.16171-1.4821-0.1235-1.6501-0.036974-1.1302-0.003166-2.4276-0.031491-1.3632-0.1603-1.8752-0.26855-1.8152-0.49087-2.4957-0.2776-1.136-0.14316-0.48347-0.20095-0.54902-0.16503-0.35194-0.17121-0.29487-0.31396-0.40347-0.28143-0.25199-0.24066-0.15416-0.33684-0.13559-0.55729-0.056638-0.49666 0.070761-0.56173 0.17212-0.63799 0.28829-0.43966 0.25336-0.50317 0.34671-0.51242 0.41427-0.584 0.53952-1.7551 1.839-0.70932 0.71336-0.67592 0.63239-2.3639 2.0232-1.6911 1.5072-0.56072 0.47706-0.82832 0.64895-0.99056 0.70117-0.77149 0.50319-4.1143 2.4894-1.424 0.93208-0.6931 0.48768-0.8084 0.60882-0.82347 0.67256-2.5207 2.2589-1.1123 1.0907-1.9438 2.1893-2.0799 2.1236-0.71596 0.79376-0.55362 0.70146-0.41607 0.61175-0.31607 0.53421-0.45608 0.89896-0.79 1.7622-0.27987 0.51687-0.41533 0.65841-0.38834 0.53273-0.52104 0.62117-0.52407 0.54681-0.8312 0.75747-0.52379 0.42527-0.76927 0.56726-2.371 1.6273-0.5054 0.3216-1.0577 0.58142-2.6026 1.191-1.614 0.8507-0.94362 0.55707-0.85366 0.56774-0.53658 0.4495-0.10108 0.1281-0.023637 0.11408-0.12922-0.21342-0.19513-0.2478-0.86663-1.0067-0.77021-0.83549-0.61035-0.58556-0.58932-0.47291-0.36917-0.24635-0.5146-0.27922-0.4201-0.17406-0.48672-0.14732-0.40024-0.082571-0.49205-0.063109-0.66714-0.034617-1.0081 0.016295-1.9768 0.11174-1.1766 0.039364-0.90675-0.001765-1.0072-0.057379-0.75278-0.1087-0.6307-0.15681-0.57876-0.21336-0.68243-0.35632-0.49202-0.34258-0.22828-0.19034-0.30807-0.29599-0.26836-0.30623-0.30485-0.42467-0.20112-0.34262-0.33076-0.74179-0.21074-0.74162-0.088761-0.5785-0.02114-0.40359 0.020118-0.42833 0.068588-0.42253 0.068505-0.26306 0.21445-0.5586 0.21795-0.4095 0.23674-0.37005 0.32732-0.44661 0.48231-0.58565 0.53315-0.59487 1.9849-2.0855 0.99761-1.0864 1.2483-1.4398 2.5023-2.9632 2.8862-3.2322 0.56632-0.61602 0.88081-0.89822 0.71771-0.6727 1.0893-0.94762 5.4237-4.4829 0.96739-0.73289 2.9641-2.0919 1.5729-1.1909 0.93072-0.81112 0.86556-0.87964 0.78312-0.94058 0.67795-0.99723 0.46199-0.85325 0.40821-0.91784 0.41831-1.1179 0.29384-0.94302 0.15446-0.67648 0.13215-0.78128 0.31792-2.2381 0.21482-0.87734 0.14013-0.38147 0.21813-0.44498 0.24122-0.37825 0.2647-0.32539 0.39252-0.37236 0.48523-0.35988 0.56925-0.34702 0.66087-0.33713 1.8259-0.73231 3.0996-1.0905 1.328-0.51695 1.1779-0.53066 0.98525-0.57478 0.88921-0.69149 0.85349-0.92661 0.68159-1.052 0.49346-1.1469 0.27404-1.2188 0.027772-1.2972-0.097556-0.87923-0.17122-0.89025-0.18474-0.72672-0.22081-0.72797-0.32687-0.9235-0.3454-0.85945-0.79907-1.84-0.9145-2.3195-2.7595-7.7947-0.42747-1.0459-2.3497-5.3743-0.66511-1.6429-0.51968-1.4294-0.42205-1.2601-1.316-4.2641-0.69959-1.8633-0.86736-1.9957-0.4878-1.0345-0.33693-0.64932-0.91808-1.6157-1.3021-2.1019-0.88288-1.3168-1.7636-2.54-0.80729-1.2572-0.35579-0.61767-0.2637-0.50213-0.33944-0.74053-0.11438-0.28945-0.33876-1.0575-0.29356-1.0755-1.1178-3.6618-0.3737-1.3635-0.62713-2.1256-0.33611-1.3011-0.31732-1.8359-0.38296-2.9064-0.017818-1.244 0.10604-0.73276 0.30428-1.052 0.40254-0.90836 0.51338-0.84229 0.41947-0.48694 0.18666-0.1044 0.12775-0.04296 0.13299-0.14135 0.239-0.3555 0.22908-0.41567 0.41535-0.89464 0.35979-0.91938 0.81866-2.3077 1.9188-4.7718 0.74706-2.0691 0.23725-0.77783 0.62869-2.3909 0.18153-0.60056 0.2976-0.81431 0.27563-0.59855 0.22441-0.40211 0.45057-0.6409 0.35455-0.40324 0.55185-0.52867 0.34094-0.28713 0.98645-0.72167 1.2399-0.76426 2.3811-1.322 1.3596-0.81468 1.3047-0.86875 3.8132-2.6654 1.9248-1.2671 5.616-3.4331 1.7009-0.96656 1.1093-0.56968 1.7897-0.80115 0.77038-0.29587 1.1672-0.34782 1.1397-0.22546 0.74951-0.08299 0.70373-0.004992 0.51106 0.061997 0.55835 0.14887 0.706 0.30027 0.39525 0.2184 0.41984 0.27577 0.44678 0.34082 0.45951 0.39574 0.82556 0.83035 0.59463 0.66232 2.4523 2.8592 0.56806 0.54762 0.35817 0.27512 0.30842 0.18807 0.40611 0.18704 0.61937 0.18896 0.7305 0.11819 0.71622 0.035279 0.91083-0.049126 0.58236-0.081616 0.55109-0.11037 1.0485-0.29363 0.59325-0.21467 0.93395-0.40278 0.68914-0.33795 3.0333-1.6481 1.7171-0.87184 1.4402-0.62153 1.179-0.40977 0.85962-0.19299 0.85653-0.10873 2.5292-0.097618 0.68085 4.04e-4 1.5018 0.069264 0.74938-0.055489 0.39552-0.085376 0.52226-0.17349 0.50662-0.23097 0.73068-0.44178 0.65827-0.53064 0.58453-0.62688 0.40007-0.56265 1.0216-1.7551 0.50829-0.81149 3.293-4.8077 0.50864-0.84574 0.35001-0.65164 1.1403-2.4638 0.30249-0.58936 0.44576-0.76755 0.616-0.94511 1.0088-1.4075 1.7106-2.1367 1.1361-1.678 0.95102-1.3496 2.9659-4.005 1.3627-1.9006 0.82541-1.2056 0.60252-0.97181 0.3198-0.56392 0.54786-1.0886 0.27601-0.63544 0.346-0.91726 0.45664-1.5795 0.55852-2.2986 0.35047-1.1265 0.14994-0.39188 0.46279-1.0115 0.39823-0.73198 0.55837-0.90288 0.78862-1.1188 0.52982-0.67962 0.85085-0.99754 0.68345-0.72522 1.344-1.2758 1.0689-0.91891 0.59354-0.46565 1.1432-0.78612 0.7188-0.41458 0.8799-0.42789 0.79098-0.31997 1.0781-0.3473 0.77564-0.18269 0.70017-0.12088 3.3723-0.40434 1.5584-0.23886 0.98982-0.20934 0.90397-0.24491 0.71028-0.23656 0.63845-0.25193 1.0456-0.50203 1.5083-0.87412 1.3682-0.89577 3.4196-2.3681 1.3768-0.87571 1.1154-0.60693 0.90173-0.39181 0.47161-0.15917 0.61585-0.14924 0.82928-0.065018 0.80381 0.12888 0.4313 0.14047 0.699 0.32956 1.082 0.62357 0.49145 0.2508 0.79676 0.29287 0.94045 0.20975 0.79451 0.068643 0.52274-0.025776 0.73688-0.13647 1.2418-0.34063 0.73473-0.13912 1.762-0.15005 0.52003-0.073147 0.504-0.11696 0.44415-0.15856 0.49488-0.28667 0.41993-0.36479 0.37752-0.41703 0.71194-0.89746 0.97463-1.3607 0.36617-0.59503 0.65514-1.2362 0.32245-0.55821 0.67618-0.92248 0.80914-0.84973 0.90528-0.74229 0.96964-0.59097 0.68319-0.2993 0.45668-0.16426 0.76743-0.24103 0.80297-0.20033 0.82949-0.13704 0.87934-0.064276 1.6639-0.047398 0.95119-0.010201 0.72214 0.021383 1.0476 0.10086 0.94601 0.17823 0.59307 0.18071 0.46901 0.20446 0.24647 0.15016 0.16973 0.22561" stroke="#bdc660"/>
    </defs>
    <g clip-path="url(#paea4bc9fc7)">
     <use y="280.512" fill="#bdc660" stroke="#bdc660" xlink:href="#m125ba1f6ee"/>
    </g>
   </g>
  </g>
 </g>
 <defs>
  <clipPath id="paea4bc9fc7">
   <rect x="7.2" y="7.2" width="226.76" height="266.11"/>
  </clipPath>
 </defs>
</svg>
