<?xml version="1.0" encoding="UTF-8"?>
<!DOCTYPE svg  PUBLIC '-//W3C//DTD SVG 1.1//EN'  'http://www.w3.org/Graphics/SVG/1.1/DTD/svg11.dtd'>
<svg width="339.59pt" height="280.51pt" version="1.1" viewBox="0 0 339.59 280.51" xmlns="http://www.w3.org/2000/svg" xmlns:xlink="http://www.w3.org/1999/xlink">
 <metadata>
  <rdf:RDF xmlns:cc="http://creativecommons.org/ns#" xmlns:dc="http://purl.org/dc/elements/1.1/" xmlns:rdf="http://www.w3.org/1999/02/22-rdf-syntax-ns#">
   <cc:Work>
    <dc:type rdf:resource="http://purl.org/dc/dcmitype/StillImage"/>
    <dc:date>2024-07-04T12:08:26.956562</dc:date>
    <dc:format>image/svg+xml</dc:format>
    <dc:creator>
     <cc:Agent>
      <dc:title>Matplotlib v3.7.1, https://matplotlib.org/</dc:title>
     </cc:Agent>
    </dc:creator>
   </cc:Work>
  </rdf:RDF>
 </metadata>
 <defs>
  <style type="text/css">*{stroke-linejoin: round; stroke-linecap: butt}</style>
 </defs>
 <g id="figure_1">
  <g id="patch_1">
   <path d="m0 280.51h339.59v-280.51h-339.59v280.51z" fill="none"/>
  </g>
  <g id="axes_1">
   <g id="PatchCollection_1">
    <defs>
     <path id="mcbc5336530" d="m297.42-187.27 2.4736 3.0373 1.6858 2.2379 1.6683 2.4326 3.6969 5.7617 1.3983 2.0845 3.7406 5.2589 3.9882 5.3208 0.76489 1.3221 0.5401 1.3982 0.1694 0.81443 0.054027 0.80528-0.13051 1.109-0.28173 0.84849-0.77051 1.2644-0.7984 0.82971-1.1015 0.8153-2.5148 1.401-1.0645 0.65963-1.165 0.84513-0.96694 0.80132-1.0416 0.9797-0.58876 0.65831-0.513 0.72131-0.34376 0.65747-0.2576 0.72202-0.1681 0.77609-0.25658 1.7815-0.34754 1.0695-0.20408 0.3818-0.44351 0.60736-1.6234 1.6434-0.62616 0.81112-0.38461 0.86157-0.14553 0.66838-0.15532 1.3351-0.26486 0.87432-0.57815 0.8936-0.48301 0.51586-0.49955 0.4357-1.0731 0.74172-1.4662 0.76837-2.1164 0.8143-1.3165 0.38613-1.3587 0.32347-1.9978 0.35447-1.7099 0.19268-1.619 0.075707-1.0234-0.030587-0.58015-0.14278-4.7984 0.4079-1.5887 0.098479-1.8465 0.035072-1.2058-0.050038-1.7655-0.18548-1.4823-0.25922-2.265-0.60214-1.2506-0.46308-1.0806-0.50495-0.9055-0.5346-1.273-1.0049-3.4933-3.6789-1.3789-1.2396-0.66808-0.42577-0.71996-0.29748-0.54838-0.11536-1.053 0.015629-1.0686 0.29343-1.3989 0.77102-1.2733 1.0805-1.1684 1.3162-2.8971 3.6857-1.6009 1.7933-5.5977 5.844-2.596 2.4577-1.208 0.97208-1.198 0.81884-2.1107 1.1252-2.3669 0.83319-1.7163 0.34169-2.4242 0.13579-2.4879-0.1894-2.2084-0.37785-2.2292-0.52284-2.8904-0.81303-7.6732-2.3862-2.361-0.65686-2.6501-0.6001-1.6101-0.24846-1.3291-0.10323-1.5547 0.043505-1.1533 0.18065-0.97664 0.27683-1.0639 0.45482-1.5707 1.0329-1.0158 0.97142-0.88363 1.1302-0.68807 1.1672-0.59702 1.3456-0.47426 1.4438-0.40941 1.7635-0.28813 1.8465-0.61203 7.0617-0.31198 2.7775-1.7338 11.199-0.95225 7.716-0.41722 2.4975-0.57846 1.9572-0.94475 1.6444-0.59468 0.56383-0.59436 0.34388-0.9973 0.2243-0.93047-0.10709-0.83693-0.34312-0.90226-0.67141-0.5681-0.62606-0.37607-0.51253-1.4183-2.155-0.76455-0.98579-0.87043-0.95432-0.94209-0.89911-1.5836-1.3108-1.9126-1.3569-1.4597-0.91406-1.5369-0.86968-2.7931-1.3698-2.578-1.0512-1.9189-0.66473-1.9609-0.58901-2.7647-0.68969-2.927-0.55625-2.6841-0.36287-2.0732-0.18443-3.1833-0.10711-2.8106 0.093628-2.3517 0.21887-1.8545 0.26199-1.8452 0.33621-2.7948 0.6447-3.6488 1.0479-3.4429 1.1752-2.8781 1.1222-3.1909 1.4097-2.7801 1.3985-1.7059 0.93712-3.5675 2.1237-3.8143 2.4814-3.7092 2.6657-3.1341 2.5384-2.7143 2.4969-1.2885 1.3352-1.5001 1.7635-1.3059 1.8357-0.79755 1.3697-0.66123 1.4071-0.5171 1.4597-0.35677 1.4839-0.22707 2.0149 0.024178 2.0067 0.67414 5.5623 0.070003 2.0799-0.074148 1.5719-0.17714 1.5989-0.34792 1.9899-0.47825 2.0087-0.70781 2.3599-0.84693 2.3562-1.1057 2.6112-0.99541 1.9685-1.3564 2.2229-1.565 2.0876-1.585 1.721-1.7552 1.546-1.6431 1.16-1.4703 0.83066-1.7723 0.78234-1.846 0.60676-2.3357 0.52255-1.9696 0.28632-1.9153 0.19458-2.1467 0.14471-3.8853 0.077617-10.854-14.45-2.6659-3.7309-1.603-2.3768-0.97099-1.5208-1.8285-3.0562-6.0812-10.918-1.9317-3.6596-3.9044-7.976-1.1089-1.9974-2.0774-3.068-2.4235-3.2721-2.5326-3.1678-2.6104-3.0188-0.95987-1.2413-0.6867-1.008-0.93896-1.6056-0.46404-0.95012-0.40151-0.97654-0.34158-1.0563-0.24057-1.0887-0.12434-1.1547 0.0237-1.6015 0.18948-1.5272 0.32626-1.5597 0.38518-1.3933 0.61791-1.8331 0.72516-1.8331 1.75-3.7517 2.2899-4.3434 0.26475-0.53685 0.037784-0.19346 5.0409-3.598 6.9501-5.222 1.224-0.85471 1.2347-0.78241 1.0422-0.58628 1.7047-0.78391 1.6815-0.54827 3.6535-0.8345 1.8137-0.48805 1.8778-0.66791 3.1908-1.2801 1.9141-0.69906 1.982-0.62801 6.3002-1.5675 2.4913-0.71655 3.1071-1.1144 2.0445-0.84862 3.6101-1.6561 5.594-2.7541 2.778-1.438 3.3007-1.8401 1.6121-1.0395 0.93339-0.68844 3.0017-2.5269 1.6615-1.325 1.3542-1.2548 1.3825-1.7 0.70519-1.0701 1.0553-1.8701 2.3103-5.1631 1.0733-2.0018 1.6056-2.7719 1.895-2.916 1.9279-2.538 1.1524-1.2914 1.6849-1.5646 5.5595-4.3372 2.4826-2.1977 1.6656-1.7255 3.7263-4.3725 6.078-6.7794 3.6519-4.2683 1.8193-1.9678 5.5191-5.6533 1.6979-1.8658 2.2398-2.6216 1.3201-1.424 2.3189-2.3184 1.6407-1.5165 2.0839-1.7649 3.7734-2.9692 2.6211-2.142 2.0913-1.8413 1.4939-1.4541 1.6005-1.7814 0.77301-0.98914 3.0095-4.1688 1.1753-1.9458 1.4559-2.7489 1.1414-2.3307 1.0825-2.4566 0.82807-2.2751 0.62066-2.1135 0.36992-1.5696 0.39586-2.3144 0.16034-1.8446 0.021363-1.2213-0.049938-1.2955-0.20501-1.8563-0.35445-1.7329-0.3507-1.1738-0.41542-1.0582-0.22825-0.46829-0.51216-0.80517-0.54505-0.51479-0.14316-0.075223-0.26105-0.052535-0.23816 0.098166-0.014103-0.16274 0.16929-0.20004 1.1668-0.84288 1.987-1.0741 1.8571-0.81804 1.8721-0.68511 1.9871-0.58838 1.9226-0.44599 2.2494-0.38093 1.3119-0.15518 2.4968-0.15521 2.3473 0.038985 2.0002 0.20435 1.527 0.30191 1.1704 0.36142 1.0511 0.47953 0.8389 0.54955 0.8766 0.83639 0.64855 0.97502 0.22753 0.52174 0.16888 0.55635 0.11952 0.66902 0.044432 0.62397-0.027682 0.94418-0.12056 0.99091-0.22139 1.1576-1.5513 6.087-0.8688 3.7011-0.44918 2.1602-0.38943 2.3375-0.21451 2.0555-0.062172 1.987 0.1156 2.2297 0.31543 2.2633 0.54792 2.4916 0.57772 1.9992 1.0842 2.9279 1.0733 2.3603 1.8541 3.5627 1.7801 3.1122 1.8837 2.9779 1.8802 2.5745 1.7356 2.0213 1.8045 1.7946 2.2087 1.8444 1.9339 1.3492 2.2684 1.3487 2.6865 1.3518 2.239 0.98334 6.2295 2.5836 4.9859 2.2701 3.2989 1.6664 3.0851 1.7802 3.1063 2.0217 3.2996 2.3515 3.9093 2.967 7.9296 6.2227 3.8913 2.9063 3.5734 2.4014 4.8769 2.9019 2.2604 1.1702 1.7756 0.66608 0.72217 0.1759 0.89245 0.1168 0.60543-6.02e-4 0.565-0.070495 1.1192-0.33472 0.75092-0.35049 1.3607-0.77735 1.9381-1.2054 0.993-0.73756 0.81024-0.71453 1.0627-1.1596 1.8663-2.5753 1.5576-2.3694 1.5249-2.6867 1.3146-2.8089 0.66564-1.6339 0.81961-2.2604 0.52822-1.6766 0.39868-1.6236" stroke="#bdc660"/>
    </defs>
    <g clip-path="url(#pf095151c20)">
     <use y="280.512" fill="#bdc660" stroke="#bdc660" xlink:href="#mcbc5336530"/>
    </g>
   </g>
  </g>
 </g>
 <defs>
  <clipPath id="pf095151c20">
   <rect x="7.2" y="7.2" width="325.19" height="266.11"/>
  </clipPath>
 </defs>
</svg>
