<?xml version="1.0" encoding="UTF-8"?>
<!DOCTYPE svg  PUBLIC '-//W3C//DTD SVG 1.1//EN'  'http://www.w3.org/Graphics/SVG/1.1/DTD/svg11.dtd'>
<svg width="325.33pt" height="280.51pt" version="1.1" viewBox="0 0 325.33 280.51" xmlns="http://www.w3.org/2000/svg" xmlns:xlink="http://www.w3.org/1999/xlink">
 <metadata>
  <rdf:RDF xmlns:cc="http://creativecommons.org/ns#" xmlns:dc="http://purl.org/dc/elements/1.1/" xmlns:rdf="http://www.w3.org/1999/02/22-rdf-syntax-ns#">
   <cc:Work>
    <dc:type rdf:resource="http://purl.org/dc/dcmitype/StillImage"/>
    <dc:date>2024-07-04T12:08:17.528913</dc:date>
    <dc:format>image/svg+xml</dc:format>
    <dc:creator>
     <cc:Agent>
      <dc:title>Matplotlib v3.7.1, https://matplotlib.org/</dc:title>
     </cc:Agent>
    </dc:creator>
   </cc:Work>
  </rdf:RDF>
 </metadata>
 <defs>
  <style type="text/css">*{stroke-linejoin: round; stroke-linecap: butt}</style>
 </defs>
 <g id="figure_1">
  <g id="patch_1">
   <path d="m0 280.51h325.33v-280.51h-325.33v280.51z" fill="none"/>
  </g>
  <g id="axes_1">
   <g id="PatchCollection_1">
    <defs>
     <path id="m49e33bcb86" d="m304-230.02-0.28448 0.16499-0.4582 0.6688-0.52072 0.91451-1.0885 2.1558-1.4628 3.2396-3.4474 8.0777-0.83102 1.766-1.0217 1.9966-1.4377 2.4907-1.0544 1.6005-0.84049 1.1494-1.3718 1.6621-1.7144 1.7577-1.0911 0.96642-1.1349 0.89902-0.77951 0.56156-1.4093 0.91257-2.2592 1.2257-1.1669 0.53562-1.5883 0.63855-2.4397 0.81025-2.4906 0.66185-3.3159 0.71808-5.2902 1.0562-3.5855 0.85681-3.0024 0.91757-1.6072 0.58959-1.5789 0.65228-2.8052 1.3528-2.3913 1.3742-2.2914 1.5381-2.497 1.94-1.9835 1.7268-1.8409 1.7318-1.7944 1.7911-1.7555 1.8376-3.6782 4.0961-1.9071 2.264-1.8464 2.3116-2.1263 2.8671-1.9588 2.9008-1.8422 2.9734-3.7855 6.3981-1.699 2.6441-1.9817 2.7192-1.3407 1.6191-1.1547 1.2695-2.0419 2.0058-2.1457 1.8403-2.0366 1.5639-5.1962 3.7338-1.8003 1.3518-2.5117 2.0202-2.4517 2.1465-1.7771 1.6589-3.0028 2.9365-9.0422 9.0659-3.7862 3.7283-11.818 11.347-0.17377-0.008883-0.36515-0.22656-0.65905-0.51929-1.1049-1.0164-0.945-1.0113-0.72237-0.91025-0.64705-0.98305-0.69315-1.3782-0.51759-1.4401-0.33444-1.3342-0.7658-4.6788-0.16348-0.63183-0.20852-0.54897-0.20462-0.36184-0.2855-0.3329-0.33054-0.23249-0.48663-0.13996-0.51308 0.053215-0.5552 0.27837-0.52077 0.47967-0.50832 0.72218-0.43774 0.88178-0.36627 1.0029-0.29528 1.0977-0.23557 1.163-0.31719 2.2395-0.16403 2.0914 0.020429 2.2516 0.15786 1.4807 0.21128 1.1367 0.29498 1.0966 0.38948 1.0431 0.4115 0.83098 0.48112 0.77662 0.77101 1.0014 1.4451 1.6753 0.56621 0.75925 0.55715 1.0171 0.27553 0.83228 0.11694 0.79382-6.22e-4 0.58928-0.14824 1.0433-0.18143 0.68942-0.50893 1.3602-0.90341 1.8285-2.2417 4.0364-0.69234 1.5192-0.3082 0.97699-0.51032 2.47-0.38522 1.1962-0.47397 0.84442-0.29584 0.31684-0.23791 0.084394-0.037483-0.064098-0.36365-0.1036-0.585-0.059762-1.7082 8.5e-5 -1.5038 0.12444-7.0565 1.0266-2.8252 0.25863-2.5021 0.076345-0.81171-0.021791-1.6154-0.1446-4.0995-0.75185-1.0518-0.14235-1.0251-0.081009-1.4356-0.007086-1.2183 0.11317-0.78228 0.14611-1.0368 0.30181-1.1488 0.50604-0.61849 0.36092-0.97441 0.74128-0.89938 1.0402-0.45957 0.93058-0.1467 0.55878-0.079704 0.985 0.003763 1.0509-0.072353 0.58898-0.24941 0.62158-0.18573 0.24703-0.27413 0.25256-0.49072 0.28939-0.66695 0.22101-0.87406 0.11351-0.61302-0.005304-0.69754-0.068546-0.86104-0.15657-2.8544-0.77472-0.52158-0.053444-0.49438 0.038184-0.48667 0.16195-0.51954 0.39193-0.39792 0.61008-0.26177 0.9993-0.022524 0.78541 0.083653 0.7794 0.6643 2.7852 0.33341 1.6692 0.8004 5.5718 0.18043 1.6445 0.020813 0.93068-0.060415 0.7754-0.17382 0.8491-0.47801 1.2003-0.70408 1.0525-0.51151 0.5485-0.53982 0.46186-0.64616 0.44368-1.3691 0.69175-3.9414 1.4544-3.3227 1.4337-1.7154 0.89568-2.4349 1.3703-2.0797 0.98794-1.4434 0.5655-2.4947 0.75543-2.0624 0.42642-2.3461 0.2917-2.139 0.10366-2.2808-0.039616-3.3304-0.29192-6.4628-0.88658-2.0022-0.19379-2.5077-0.11004-1.6176 0.022444-1.8456 0.12194-2.3755 0.32646-2.4389 0.5754-1.5533 0.52918-1.1993 0.51982-1.4102 0.7663-1.459 1.0174-0.99834 0.87108-1.1027 1.184-1.1898 1.6426-0.84775 1.5473-0.45021 1.0536-0.50485 1.5962-0.23403 1.1007-0.13064 0.89853-0.1225 1.6198 0.053109 0.80067-0.26062-0.19995-0.54933-0.094161-0.70566 0.024658-0.76845 0.17631-0.72534 0.32395-0.71162 0.4399-1.9637 1.4252-0.63009 0.38808-0.93136 0.38475-0.35529 0.066743-0.4592 0.011343-0.41322-0.056185-0.57005-0.1598-0.57286-0.22904-3.1592-1.5195-1.2507-0.645-0.79534-0.51149-0.57762-0.46683-1.1468-1.115-0.60986-0.7667-0.35321-0.54917-0.3326-0.62157-0.33513-0.76584-0.34421-0.99126-0.19522-0.7369-0.12593-0.76719-0.026302-0.46624 0.093533-1.2392 0.13158-0.68556 0.54122-2.1253 0.20276-1.2946-8.4e-5 -0.57477-0.089749-0.58558-0.23239-0.63316-0.34994-0.59555-0.44047-0.56086-1.841-1.9911-1.2959-1.6684-0.88793-1.0395-0.92065-0.81921-0.62799-0.42448-0.2347-0.10162-0.19333-0.26748-0.16195-0.47326-0.13621-0.64892-0.13035-1.1682-0.033929-0.82506 0.027359-1.165 0.23913-1.9293 0.28388-1.0988 0.41224-1.0485 0.95901-1.5414 1.2683-1.2752 0.86068-0.60738 0.97406-0.54692 5.0302-2.2762 1.2828-0.64794 4.3773-2.3655 2.801-1.4158 2.6061-1.2197 2.2528-0.87571 1.3826-0.39659 1.4787-0.2831 0.9385-0.12865 1.555-0.1396 3.1668-0.17286 1.494-0.2355 1.4661-0.45651 0.97853-0.42254 1.4894-0.77729 1.2778-0.76957 1.3598-0.9668 0.92354-0.78329 1.613-1.4983 2.4091-2.3724 3.2413-3.3515 3.3102-3.2145 1.4871-1.5111 1.949-2.2109 1.0426-1.3241 1.5163-2.1507 1.3812-2.2088 1.0934-1.9507 0.95613-1.9602 0.64248-1.5712 0.50622-1.5668 0.26905-1.1158 0.2857-1.7015 0.11992-1.9367-0.015367-1.9235-0.077456-1.8965-0.54662-4.9888-0.083404-1.1042-0.013962-1.7144 0.090476-1.0923 0.59021-4.1 0.11777-1.3902 0.070548-1.8224 0.12836-7.7235 0.16009-3.2691 0.27957-2.1562 0.37212-1.7795 0.31185-1.1525 0.4189-1.2355 0.62626-1.4126 1.1129-1.862 0.33908-0.48272 2.2454-2.8581 0.99951-1.4413 0.40703-0.71726 0.60389-1.428 0.36097-1.6874 0.116-1.7707-0.020874-4.8776 0.12205-1.3653 0.3114-1.6433 0.30429-1.0825 0.43697-1.269 0.62899-1.599 1.955-4.494 0.51363-1.0319 0.99039-1.7503 1.1009-1.731 1.1455-1.677 0.84782-1.1769 1.4254-1.7205 1.5493-1.5328 1.6111-1.3641 1.7088-1.2924 1.26-0.88536 1.9741-1.2814 2.2858-1.2926 0.98842-0.49352 3.9617-1.8012 5.4285-2.5804 2.0558-0.89447 2.501-0.90845 2.2266-0.60168 1.5238-0.28551 1.0089-0.13192 2.6543-0.17708 2.9846-0.042885 4.4624 0.16693 3.1879 0.25717 1.8736 0.24409 4.7588 0.74627 1.7391 0.19423 1.9204 0.10696 1.6422-0.063759 1.09-0.18481 1.0277-0.31331 0.97965-0.42918 0.91186-0.5215 1.0631-0.78742 0.92032-0.89947 0.60494-0.81584 0.20589-0.62128 0.49235 0.56614 0.25066 0.20522 0.8025 0.5804 0.75011 0.46341 0.67671 0.35583 0.94452 0.39482 1.0045 0.29366 0.81836 0.14155 1.7157 0.014611 0.8843-0.12386 1.0296-0.24604 1.0047-0.34057 2.1898-1.0308 1.7562-1.0774 2.0363-1.5058 1.9415-1.6829 1.8238-1.8115 0.8989-0.97894 1.6108-1.8408 4.1007-4.9834 1.1702-1.2831 0.71899-0.71232 0.99736-0.87602 1.4881-1.0646 1.5392-0.80272 1.576-0.49499 1.6684-0.16629 1.7073 0.065673 1.7021 0.17057 3.9374 0.6409 2.8593 0.38124 1.4699 0.087721 1.3968-0.064418 1.422-0.19104 1.211-0.2361 5.0933-1.2476 1.6423-0.32372 1.2588-0.1751 4.2636-0.42005 1.4987-0.25151 2.4357-0.56829 1.4457-0.41823 1.0803-0.358 1.8872-0.77446 1.8595-0.93299 1.8226-1.0502 1.7744-1.1322 3.0875-2.1572 1.6213-1.0582 5.2756-3.0552 3.7462-2.3397 1.404-0.74655 2.4403-1.0747 5.2697-1.9753 1.5415-0.65319 1.2339-0.59868 1.196-0.66334 1.1787-0.76263 1.6636-1.35 1.1103-1.2074 0.86394-1.3466 0.44453-1.0806 0.29987-1.1496 0.24718-2.0954 0.041429-6.2372 0.14328-1.6482 0.88632-6.1236 0.14587-0.54328 0.18284-0.39189 0.30335-0.13892 0.26384-0.21745 0.54026-0.2323 0.47689-0.074245 0.37771 0.035533 0.51308 0.19843 0.50104 0.3517 0.48582 0.47171 0.91606 1.1639 1.2635 2.0152 1.3847 2.5855 3.006 5.9912 0.87914 1.5776 0.939 1.4058 0.509 0.5964 0.54868 0.49188 2.6549 1.5469 2.1443 1.0935 0.64011 0.47117 0.61695 0.57742 1.1975 1.3799 2.438 3.244 1.3025 1.6512 1.5657 1.8082 2.3217 2.5424" stroke="#bdc660"/>
    </defs>
    <g clip-path="url(#p086e6e9785)">
     <use y="280.512" fill="#bdc660" stroke="#bdc660" xlink:href="#m49e33bcb86"/>
    </g>
   </g>
  </g>
 </g>
 <defs>
  <clipPath id="p086e6e9785">
   <rect x="7.2" y="7.2" width="310.93" height="266.11"/>
  </clipPath>
 </defs>
</svg>
