<?xml version="1.0" encoding="UTF-8"?>
<!DOCTYPE svg  PUBLIC '-//W3C//DTD SVG 1.1//EN'  'http://www.w3.org/Graphics/SVG/1.1/DTD/svg11.dtd'>
<svg width="284.58pt" height="280.51pt" version="1.1" viewBox="0 0 284.58 280.51" xmlns="http://www.w3.org/2000/svg" xmlns:xlink="http://www.w3.org/1999/xlink">
 <metadata>
  <rdf:RDF xmlns:cc="http://creativecommons.org/ns#" xmlns:dc="http://purl.org/dc/elements/1.1/" xmlns:rdf="http://www.w3.org/1999/02/22-rdf-syntax-ns#">
   <cc:Work>
    <dc:type rdf:resource="http://purl.org/dc/dcmitype/StillImage"/>
    <dc:date>2024-07-04T12:08:25.056817</dc:date>
    <dc:format>image/svg+xml</dc:format>
    <dc:creator>
     <cc:Agent>
      <dc:title>Matplotlib v3.7.1, https://matplotlib.org/</dc:title>
     </cc:Agent>
    </dc:creator>
   </cc:Work>
  </rdf:RDF>
 </metadata>
 <defs>
  <style type="text/css">*{stroke-linejoin: round; stroke-linecap: butt}</style>
 </defs>
 <g id="figure_1">
  <g id="patch_1">
   <path d="m0 280.51h284.58v-280.51h-284.58v280.51z" fill="none"/>
  </g>
  <g id="axes_1">
   <g id="PatchCollection_1">
    <defs>
     <path id="m960b17505f" d="m184.22-261.15-0.11163 4.3499 5.17e-4 2.8108 0.066488 1.8752 0.15708 1.9421 0.25922 1.8751 0.37074 1.8887 0.77676 2.8658 0.79843 2.2436 0.92404 2.2025 1.6772 3.5116 1.288 2.4461 1.7336 3.0104 1.1199 1.773 1.1623 1.6959 1.6869 2.2043 2.0415 2.292 1.7498 1.6472 0.70901 0.58371 1.865 1.3003 1.2672 0.69731 2.1275 0.99982 1.3602 0.5788 3.7703 1.4548 2.0787 1.0219 6.6391 3.8273 0.96321 0.60366 0.71258 0.53969 0.80274 0.78492 0.6835 0.88181 0.91536 1.8027 0.30371 1.2118 0.0389 1.2064-0.19506 0.98737-0.39947 0.99896-0.75646 1.2071-0.97344 1.1782-1.3525 1.3364-1.4571 1.1927-1.5041 1.0509-1.8384 1.0963-2.4147 1.2292-1.9442 0.88024-2.028 0.833-7.376 2.761-4.2315 1.6847-4.4659 1.9668-6.3332 2.934-3.291 1.3747-1.9612 0.67485-1.5625 0.45357-5.12 1.2235-3.3589 0.91342-3.5425 1.1576-2.4609 0.90977-2.6947 1.1301-1.957 0.94174-2.0577 1.18-1.2081 0.8311-1.2106 0.98913-1.1182 1.1497-0.95188 1.3594-0.75134 1.7878-0.36744 1.6409-0.17042 1.9163 0.02134 1.4954 0.13371 1.413 0.21631 1.2772 0.32748 1.3167 0.38457 1.1427 0.6173 1.4196 0.75145 1.3687 0.99452 1.4867 1.3267 1.7559 2.1243 2.5265 1.3829 1.5265 2.832 2.9276 2.8422 2.6414 1.5998 1.2784 2.0022 1.3024 1.2915 0.63467 2.0209 0.678 6.3693 1.2921 2.8474 0.87048 5.3957 1.9859 1.8418 0.59498 2.5639 0.59364 2.5601 0.16138 1.6808-0.20503 1.6878-0.4175 1.4778-0.49109 1.4955-0.57593 7.464-3.0881 8.1376-3.0326 2.3336-0.76429 2.5304-0.69841 2.9049-0.57615 1.9848-0.21573 1.786-0.034503 3.1139 0.36405 1.7364 0.42537 1.5212 0.49415 1.6346 0.65091 2.3224 1.1094 2.835 1.5817 4.4003 2.6358 1.1324 0.54905 0.91576 0.33637 0.96691 0.21982 0.83222 0.039188 0.83221-0.16637 0.65396-0.35866 0.45298-0.53946 0.03269-0.16457 0.60695 1.5132 1.1525 2.1349 0.92417 1.5325 2.2218 3.3825 4.5636 6.5604 1.4736 2.3873 0.84127 1.6681 0.49432 1.3132 0.2322 0.88229 0.16436 1.1849-0.036414 1.2158-0.3457 1.394-0.30604 0.66295-0.85137 1.1875-1.2705 1.0898-1.7718 0.9389-1.615 0.53042-0.93262 0.2064-1.5144 0.20272-1.7333 0.048064-1.1348-0.069725-2.3725-0.3965-1.8007-0.49408-1.5828-0.54859-2.1381-0.87797-4.727-2.1048-1.4716-0.53875-2.1166-0.61734-2.1885-0.43446-1.3833-0.16474-1.5488-0.082871-2.1112 0.065723-1.1859 0.12969-2.6881 0.54577-1.4953 0.45603-1.6804 0.64746-1.7655 0.83744-2.1562 1.2701-1.2611 0.90681-1.0903 0.93461-1.0944 1.1867-0.84228 1.274-0.48242 1.1183-0.29496 1.3388 0.001111 1.612 0.51955 2.0439 0.82164 1.5938 0.818 1.1117 0.97464 1.036 1.7873 1.4339 1.6373 0.97108 1.4891 0.67473 1.7687 0.59487 2.0634 0.46773 1.3196 0.19191 1.3574 0.12385 1.6539 0.071031 4.5682 0.014435 3.6168 0.14021 2.802 0.26627 2.0862 0.29336 1.8188 0.35728 2.3964 0.67283 1.7045 0.66659 1.2723 0.67562 0.64378 0.43709 0.68366 0.56491 0.65462 0.6694 0.76484 1.0235 0.42602 0.75065 0.40041 0.89984 0.36451 1.1075 0.31007 1.4478 0.14488 1.2197 0.058608 1.5803-0.040942 1.2877-0.2451 2.3642-0.50734 2.6248-0.32019 1.1694-0.55966 1.6161-0.45819 1.0834-1.0094 1.9447-0.62007 1.0072-1.5908 2.2589-0.73643 0.92678-1.3516 1.4369-1.2812 1.0201-1.4365 0.82864-1.4512 0.60129-1.1206 0.34148-1.6527 0.34586-1.4637 0.17871-1.207 0.075714-2.1022 0.005791-2.1178-0.13905-2.1716-0.27994-1.5213-0.27306-1.4033-0.30902-2.3293-0.63801-1.9898-0.67758-2.1434-0.89127-2.3433-1.2165-2.413-1.5687-1.6325-1.2557-4.1349-3.7039-0.72366-0.59022-1.6436-1.1219-1.2377-0.66074-1.4732-0.62561-2.626-0.77133-2.8492-0.40529-2.1854-0.022377-2.2868 0.24628-2.9477 0.73186-2.2725 0.8867-1.8247 0.92842-2.2264 1.4115-1.8792 1.4498-1.7727 1.6031-1.3268 1.3666-1.6692 1.9801-1.1014 1.5371-0.87921 1.4341-0.77898 1.5215-0.79432 1.9817-0.57382 1.9731-0.33496 1.6703-0.15663 1.1902-0.088503 1.4461 0.030644 0.91926 0.093326 0.54774 0.24946 0.30709-0.41199 1.6778-0.54585 1.7326-0.84697 2.3359-0.68785 1.6884-1.3584 2.9026-1.5758 2.7764-1.6096 2.4485-1.9286 2.6612-1.0982 1.1983-0.83728 0.73838-1.0261 0.76217-2.0028 1.2456-1.4061 0.80329-0.77598 0.36218-1.1566 0.34589-0.58385 0.072848-0.62564 6.22e-4 -0.92224-0.1207-0.74627-0.18177-1.8348-0.68831-2.3358-1.2093-5.0397-2.9987-3.6927-2.4816-4.0212-3.0033-8.1942-6.4304-4.0397-3.066-3.4098-2.43-3.21-2.0892-3.188-1.8396-3.409-1.7221-5.1523-2.3459-6.4374-2.6699-2.3137-1.0162-2.7762-1.3969-2.3441-1.3937-1.9984-1.3943-2.2824-1.9059-1.8648-1.8545-1.7935-2.0887-1.943-2.6605-1.9466-3.0773-1.8396-3.2161-1.9159-3.6816-1.1091-2.4391-1.1203-3.0256-0.59701-2.0659-0.56621-2.5747-0.32595-2.3389-0.11945-2.3041 0.064247-2.0533 0.22167-2.1241 0.40242-2.4155 0.46417-2.2323 0.8978-3.8246 1.6031-6.2902 0.22878-1.1963 0.12459-1.024 0.028606-0.97569-0.045915-0.6448-0.12351-0.69135-0.17452-0.57492-0.23512-0.53915-0.67019-1.0076-0.90586-0.86431-0.8669-0.56789-1.0861-0.49553-1.2094-0.37348-1.5779-0.31199-2.067-0.21117-2.4256-0.040287-2.5801 0.16039-1.3557 0.16036-2.3245 0.39364-1.9868 0.46088-2.0534 0.60802-1.9346 0.70798-1.9191 0.84534-2.0533 1.11-1.2057 0.87101-0.17494 0.20671 0.014573 0.16817-0.015544 0.15477-0.12422 0.088669-0.25132 0.032069-0.5945-0.10497-0.64239-0.22517-0.88319-0.40596-1.4517-0.80891-0.94743-0.60427-1.4261-1.0195-1.2445-1.0044-1.123-1.021-1.0126-1.0342-1.9211-2.1711-1.1848-1.4692-1.0686-1.7027-0.74313-1.8027-0.14152-0.53012-0.18579-1.0177-0.068245-1.0375 0.13505-1.608 0.25537-1.252 0.66692-2.2489 1.2568-3.6801 0.9458-2.3971 2.9858-6.2571 0.88625-1.9988 0.66362-1.7067 0.72788-2.2211 0.76971-2.6273 1.2968-5.5241 0.59659-2.1546 0.78974-2.0454 1.5109-3.1873 0.51452-1.2587 0.48821-1.5588 0.52721-2.2141 0.3102-1.922 0.064947-0.84139-0.008722-0.81667-0.076622-0.65634-0.13564-0.58458-0.28285-0.73682-0.64367-1.0644-0.79874-0.93124-1.1153-1.0213-1.0438-0.78493-1.8559-1.1403-3.0178-1.5887-4.6034-2.6598-2.3699-1.2364-3.9976-1.7581-3.0772-1.0936-2.6676-0.7381-4.938-1.0085-0.55813-0.13858-0.19821-0.11159 0.9444-5.0173 0.87519-3.7259 0.72014-2.5282 0.71949-2.2266 1.2733-3.3096 1.2804-2.8179 1.758-3.4179 2.4667-4.2929 4.0409-6.5324 1.2784-2.4945 0.83183-1.9997 0.61089-1.904 0.39253-1.6176 0.40352-2.2198 0.65486-4.388 0.53053-2.6057 0.44917-1.4845 0.497-1.2186 0.50648-0.96259 1.0959-1.5927 1.0165-1.148 1.0188-0.94308 1.1912-0.90233 2.0253-1.2173 1.8936-0.92075 1.7848-0.76636 2.6107-1.0072 3.0593-1.0504 2.6676-0.79621 1.5609-0.37315 1.9811-0.32429 1.7738-0.12033 1.5698 0.0206 1.5391 0.1517 2.2688 0.4909 2.2333 0.68589 2.176 0.9257 1.7283 0.99625 4.4156 2.9915 1.8594 1.1353 2.5492 1.3044 1.8279 0.72267 1.3135 0.41109 1.7598 0.44398 1.7865 0.35706 2.6387 0.40246 3.2849 0.31249 1.6705 0.072254 3.2889-0.018563 2.3697-0.1314 3.9092-0.4087 3.9143-0.66774 4.1757-0.94542 5.1589-1.3654 8.0561-2.2765 2.1297-0.71298 5.2484-1.9216 1.7631-0.56458 3.2385-0.82967 2.6497-0.43903 1.6898-0.12911 2.1577 0.01378 3.0407 0.25831 6.796 0.98424 1.7844 0.20656 2.7925 0.16989 1.8808-0.020191 1.8622-0.14888 2.6932-0.44282 3.5097-0.78189 4.74-1.1659 3.6948-0.76657 2.5881-0.34587 0.74714-0.035097 0.33028 0.069129" stroke="#bdc660"/>
    </defs>
    <g clip-path="url(#pd4c0bad4db)">
     <use y="280.512" fill="#bdc660" stroke="#bdc660" xlink:href="#m960b17505f"/>
    </g>
   </g>
  </g>
 </g>
 <defs>
  <clipPath id="pd4c0bad4db">
   <rect x="7.2" y="7.2" width="270.18" height="266.11"/>
  </clipPath>
 </defs>
</svg>
