<?xml version="1.0" encoding="UTF-8"?>
<!DOCTYPE svg  PUBLIC '-//W3C//DTD SVG 1.1//EN'  'http://www.w3.org/Graphics/SVG/1.1/DTD/svg11.dtd'>
<svg width="228.09pt" height="280.51pt" version="1.1" viewBox="0 0 228.09 280.51" xmlns="http://www.w3.org/2000/svg" xmlns:xlink="http://www.w3.org/1999/xlink">
 <metadata>
  <rdf:RDF xmlns:cc="http://creativecommons.org/ns#" xmlns:dc="http://purl.org/dc/elements/1.1/" xmlns:rdf="http://www.w3.org/1999/02/22-rdf-syntax-ns#">
   <cc:Work>
    <dc:type rdf:resource="http://purl.org/dc/dcmitype/StillImage"/>
    <dc:date>2024-07-04T12:08:13.397563</dc:date>
    <dc:format>image/svg+xml</dc:format>
    <dc:creator>
     <cc:Agent>
      <dc:title>Matplotlib v3.7.1, https://matplotlib.org/</dc:title>
     </cc:Agent>
    </dc:creator>
   </cc:Work>
  </rdf:RDF>
 </metadata>
 <defs>
  <style type="text/css">*{stroke-linejoin: round; stroke-linecap: butt}</style>
 </defs>
 <g id="figure_1">
  <g id="patch_1">
   <path d="m0 280.51h228.09v-280.51h-228.09v280.51z" fill="none"/>
  </g>
  <g id="axes_1">
   <g id="PatchCollection_1">
    <defs>
     <path id="mf5fb509fe0" d="m159.05-250.53 0.78604 0.89891 1.8884 2.0213 1.6826 1.9597 1.1664 1.5043 1.5371 2.2464 1.1 1.788 1.0403 1.8312 1.9698 3.7774 3.5206 6.9824 2.0301 3.8188 1.1098 1.9888 0.7233 1.23 0.7309 1.0805 1.9284 2.2422 0.50156 0.66354 0.50679 0.84293 2.2211 4.9685 0.53603 1.4565 0.42603 1.3642 0.51959 1.8592 0.48097 1.8387 0.56429 2.3793 0.3709 1.8117 0.45211 2.709 0.32842 2.5327 0.2246 2.4474 0.10431 2.2844-0.002062 2.1544-0.10158 1.514-0.14459 1.3109-0.18545 1.0995-0.19669 0.86706-0.29179 0.96147-0.40997 1.0754-0.7835 1.7456-1.7988 3.5187-0.70946 1.4662-0.54731 1.1872-0.48768 1.216-0.24396 0.74475-0.36603 1.4277-0.31381 1.7229-0.21178 1.9694-0.061598 1.2213 0.005272 2.5092 0.18428 3.2346 0.22358 2.2293 0.53407 4.1013 0.14746 1.8506 0.011598 0.73642-0.16933 3.1398 0.053243 1.3722 0.19637 1.4326 0.30683 1.4166 0.55278 2.0114 0.49781 1.5742 1.1284 3.2154 1.2354 3.8358 0.51437 1.4389 0.82452 1.8117 0.61557 1.0986 0.82759 1.2484 1.7999 2.4522 4.641 6.0039 1.946 2.6123 1.2465 1.844 2.9507 4.5698 2.5458 3.7244 1.1241 1.7205 1.4732 2.428 1.5241 2.7639 1.3833 2.8634 2.201 4.9513-3.2095 2.2437-1.7581 1.3053-1.219 0.98732-0.7982 0.69728-1.317 1.2383-1.5802 1.6129-1.8561 2.041-1.1794 1.3797-1.7785 2.2046-1.4304 1.8767-1.4964 2.0539-2.3104 3.3095-5.6674 8.3485-1.2636 1.8238-1.5739 2.1772-1.5731 1.9546-0.89664 0.98497-1.0765 1.056-0.85524 0.73959-0.77256 0.59413-0.8682 0.58796-0.85406 0.49846-1.3778 0.63354-1.2525 0.42536-1.3159 0.35375-0.81089 0.16735-1.0497 0.1405-1.5477 0.029391-2.1532-0.12793-1.1702-0.027732-0.76264 0.016803-1.5205 0.16367-1.0439 0.28903-0.87867 0.345-1.4687 0.74513-0.5637 0.37249-1.0567 0.84523-0.84463 0.77103-0.76296 0.76631-0.75094 0.83317-1.0602 1.2926-1.2871 1.6695-3.4658 4.8678-2.0477 2.6407-1.3953 1.6143-1.1778 1.2478-1.2264 1.2198-1.5148 1.4201-1.5475 1.3686-1.4773 1.2323-1.8254 1.3993-2.5733 1.7366-1.3667 0.81499-1.6453 0.89952-1.3337 0.63247-1.3183 0.4839-1.3005 0.27546-0.96885 0.039198-0.95473-0.082501-1.2499-0.23778-2.0104-0.54076-0.93121-0.33349-1.1673-0.56971-3.5478-2.1557-8.2147-4.5386-3.4652-2.0347-1.8281-0.99321-0.98811-0.47023-0.84675-0.35137-3.3746-1.2173-0.13285-0.31958-0.42959-0.65033-4.4899-6.1864-1.4138-2.0694-0.35578-0.56965-0.86294-1.6026-0.46637-1.1405-0.23855-0.77836-0.33104-1.9425-0.091864-1.7757 0.004778-1.5924 0.0859-1.5322 0.18478-2.1257 0.5815-4.6867 0.047073-0.9692-0.022785-0.6904-0.076144-0.689-0.34424-1.5976-1.1052-3.6122-0.39262-1.5141-0.31158-1.5076-0.20581-1.5059-0.06355-1.4874 0.12113-1.4518 0.25695-1.1517 0.36423-1.1365 0.80171-2.0983 0.74001-1.7273 0.86772-1.7527 0.46198-0.81659 0.9314-1.3889 1.2593-1.4773 2.6953-2.6761 1.2132-1.2902 0.96186-1.3143 0.56773-1.3809 0.05671-1.5278-0.38088-1.6145-0.63018-1.5443-0.42893-0.85484-0.58976-1.0409-0.91813-1.404-0.40005-0.53944-0.62817-0.7653-0.51638-0.56091-1.252-1.1551-1.1816-0.91625-3.9217-2.7511-4.83-3.4707-0.71713-0.5617-0.48508-0.4033-1.275-1.1862-1.1959-1.2962-1.1109-1.389-0.90992-1.2917-0.77281-1.213-0.72129-1.2497-0.67673-1.3114-0.60287-1.3421-0.42835-1.1212-0.32808-1.0251-0.31844-1.2525-0.30341-1.8058-0.11865-1.4758-0.019829-1.3431 0.066361-1.8073 0.12517-1.7718 0.16823-1.414 0.13531-0.7903 0.1857-0.83265 0.38008-1.2233 0.23936-0.58387 0.50171-1.0102 0.81464-1.3413 0.84274-1.1695 1.9372-2.4438 0.9304-1.3085 0.57206-0.98924 0.69595-1.4005 0.42906-0.97698 0.31256-0.96527 0.10592-0.51512 0.077607-1.2086-0.11978-1.2784-0.34897-1.5439-0.36585-1.1323-0.44903-1.1484-0.53919-1.1938-1.1635-2.2182-1.1349-1.8963-0.73897-1.1442-1.82-2.681-1.8526-2.6281-6.2061-8.5177-1.4135-1.7666-1.4553-1.635-1.5449-1.6119-3.2784-3.173-1.7067-1.566-3.5124-3.0913-6.5082-5.5457-3.4141-2.8553-3.0384-2.4585-2.6481-2.065-4.4408-3.2916-2.8526-1.9891-1.8883-1.243-2.5231-1.5826-2.7038-1.5816-2.4212-1.3128-2.403-1.1662-1.633-0.69549-0.67929-0.23922-0.28157-0.072349-0.12522 0.007146 0.24916-0.30784 0.42094-0.64447 0.38159-0.75476 0.16846-0.52706 0.12147-0.94262 0.10351-0.47474 0.71369-2.1721 0.39021-1.8062 0.24888-0.60238 0.22433-0.31274 0.35054-0.33044 0.30115-0.20073 1.1643-0.53074 0.57623-0.33149 1.1463-0.88865 1.3694-0.90042 1.7407-1.2834 2.9517-1.8749 0.49154-0.37721 0.15898-0.20466 0.19521-0.20575 0.18887-0.62851 0.17618-0.8227 0.80745-4.5916 0.3366-1.4865 0.50194-1.7105 0.70297-1.7473 0.90406-1.6095 1.0513-1.3566 1.1345-1.0807 1.1334-0.80786 1.1022-0.593 1.5743-0.59422 0.80676-0.20647 1.415-0.21845 0.81502-0.049903 4.0659 0.11424 1.1036-0.030437 0.90337-0.086378 1.3863-0.24131 1.424-0.36972 1.2973-0.42639 1.6663-0.66156 1.7378-0.83244 1.5838-0.91405 1.3388-0.93061 1.1962-1.0134 0.77188-0.80286 0.68886-0.87318 1.467-2.1343 0.4947-0.63855 0.79703-0.8725 0.63267-0.51486 0.3355-0.18403 0.42775-0.11463 0.36407 0.029978 0.75383 0.45957 0.72681 0.89987 0.70735 1.2324 0.69362 1.4804 0.68421 1.6628 0.76494 2.0351 0.75641 2.1499 1.5182 4.6343 1.8135 6.017 1.9128 6.6997 0.91758 2.9058 2.2979 6.4501 1.378 3.7431 1.6106 4.0913 0.84703 1.9809 0.84229 1.8213 0.88025 1.7234 0.92584 1.5881 0.98272 1.4038 0.5889 0.69242 1.2292 1.0803 1.3362 0.59618 0.66761 0.07382 0.63336-0.043255 0.68778-0.14982 0.73881-0.26099 0.75726-0.35871 0.62676-0.357 0.83836-0.5494 1.6618-1.2643 4.2874-3.5958 3.054-2.3745 2.9248-2.1388 2.1216-1.4934 2.5371-1.7131 2.4258-1.5622 2.9294-1.7469 7.3776-4.2089 2.6757-1.456 5.963-3.1168 2.6621-1.4689 1.3111-0.77716 2.3174-1.4839 1.2725-0.86966 2.7661-1.9863 5.8274-4.4266 4.2173-3.319 4.8887-4.0441" stroke="#bdc660"/>
    </defs>
    <g clip-path="url(#p9b9ae95427)">
     <use y="280.512" fill="#bdc660" stroke="#bdc660" xlink:href="#mf5fb509fe0"/>
    </g>
   </g>
  </g>
 </g>
 <defs>
  <clipPath id="p9b9ae95427">
   <rect x="7.2" y="7.2" width="213.69" height="266.11"/>
  </clipPath>
 </defs>
</svg>
