<?xml version="1.0" encoding="UTF-8"?>
<!DOCTYPE svg  PUBLIC '-//W3C//DTD SVG 1.1//EN'  'http://www.w3.org/Graphics/SVG/1.1/DTD/svg11.dtd'>
<svg width="275.89pt" height="280.51pt" version="1.1" viewBox="0 0 275.89 280.51" xmlns="http://www.w3.org/2000/svg" xmlns:xlink="http://www.w3.org/1999/xlink">
 <metadata>
  <rdf:RDF xmlns:cc="http://creativecommons.org/ns#" xmlns:dc="http://purl.org/dc/elements/1.1/" xmlns:rdf="http://www.w3.org/1999/02/22-rdf-syntax-ns#">
   <cc:Work>
    <dc:type rdf:resource="http://purl.org/dc/dcmitype/StillImage"/>
    <dc:date>2024-07-04T12:08:12.258885</dc:date>
    <dc:format>image/svg+xml</dc:format>
    <dc:creator>
     <cc:Agent>
      <dc:title>Matplotlib v3.7.1, https://matplotlib.org/</dc:title>
     </cc:Agent>
    </dc:creator>
   </cc:Work>
  </rdf:RDF>
 </metadata>
 <defs>
  <style type="text/css">*{stroke-linejoin: round; stroke-linecap: butt}</style>
 </defs>
 <g id="figure_1">
  <g id="patch_1">
   <path d="m0 280.51h275.89v-280.51h-275.89v280.51z" fill="none"/>
  </g>
  <g id="axes_1">
   <g id="PatchCollection_1">
    <defs>
     <path id="m2eda5d62b6" d="m211.52-257.76 0.13243-0.025191 0.30868 0.043954 0.40767 0.15598 0.5656 0.29249 0.68173 0.42975 0.72927 0.53832 0.77323 0.65373 0.82242 0.78738 0.73618 0.78509 1.1646 1.3947 0.85202 1.1246 1.5058 2.1417 0.97433 1.4723 1.2022 1.9409 0.86903 1.5127 0.85686 1.61 1.3111 2.7662 0.76757 1.8856 0.48419 1.3532 0.65292 2.1171 0.59362 2.2679 0.53122 2.3621 2.0708 10.716 1.709 7.2788 0.91234 3.5875 0.76181 2.5422 0.75819 2.024 0.55846 1.1755 0.46008 0.80039 0.56354 0.79496 0.73349 0.76254 0.36607 0.28023 0.49013 0.28344 0.48546 0.19228 0.56235 0.13695 0.56889 0.059385 0.69762-0.018738 0.69808-0.10564 0.82817-0.22674 0.56851-0.21846 0.78034-0.39012 0.56821-0.35064 2.3057-1.6067 0.95273-0.57785 1.1464-0.61963 1.8973-0.84895 1.5248-0.54269 0.93917-0.27385 1.1884-0.27225 0.83457-0.10307 0.56533 0.034458 0.50475 0.18078 0.73745 0.84053 0.44394 1.3639 0.17527 1.739-0.091646 1.9958-0.37967 2.1571-0.69363 2.2676-0.93965 2.3222-1.1129 2.3559-1.2283 2.3752-4.8666 8.9266-1.0878 2.183-0.97461 2.1863-0.81368 2.1922-0.59396 2.2016-0.30127 2.2154 0.07327 2.4765 0.42516 2.4917 0.73857 2.6739 0.99605 2.829 0.75634 1.9182 3.5707 8.6577 1.153 3.1966 0.41974 1.3507 0.35823 1.3305 0.3068 1.4263 0.20327 1.3869 0.077541 1.8153-0.15906 1.4569-0.4162 1.3403-0.83753 1.3832-1.148 1.2626-1.3681 1.2076-3.5133 2.8222-3.4932 2.9254-3.486 3.0859-6.8818 6.4044-2.6126 2.2618-1.5484 1.2219-1.9374 1.3913-1.7444 1.145-3.7586 2.2413-6.7634 3.7709-9.6915 4.9445-1.045 0.58601-1.8921 1.1671-1.7437 1.2342-1.5545 1.2976-1.3104 1.3608-0.99426 1.4276-0.58564 1.5018-0.10678 1.5696 0.28233 1.6243 0.56492 1.6518 0.75982 1.6534 0.9568 1.6956 0.78777 1.122 0.84788 1.0094 0.65931 0.67574 0.77306 0.69338 1.628 1.2017 3.4619 2.1757 1.1416 0.85993 1.1684 1.0966 0.77768 0.89087 0.61094 0.79117 0.60395 0.85923 0.86234 1.3673 0.95601 1.7225 0.55286 1.0973 1.0485 2.3888 0.56359 1.5562 0.52018 1.8276 0.26375 1.2672 0.1485 0.98549 0.1235 1.5923-0.028893 1.4192-0.097744 1.3536-0.14478 1.7625-0.1916 1.3417-0.25841 0.96641-0.33578 0.72825-0.81799 0.9341-1.0418 0.59855-1.1994 0.30835-1.2242 0.16418-1.3358 0.05246-4.8009-0.27724-1.8154-0.044911-1.5145 0.14871-1.4281 0.39906-0.69544 0.33281-0.54008 0.34284-1.2296 1.115-1.7655 2.2195-0.72986 0.84754-1.2722 1.1595-1.5219 1.1118-0.78051 0.50369-1.833 1.0443-1.6061 0.79161-1.6913 0.74816-3.1249 1.2289-2.3823 0.81322-2.6722 0.79514-3.3935 0.86799-1.7963 0.40097-8.0199 1.5523-1.408 0.36089-1.0522 0.338-0.88888 0.34701-1.6818 0.80094-3.6676 1.9641-1.6632 1.0375-0.57424 0.4416-0.17148 0.20116-0.056777-0.006918-0.32507-0.45093-2.3056-3.8424-1.5419-2.3846-1.573-2.1927-1.6825-2.0345-1.7803-1.7544-1.8818-1.3562-1.2292-0.5888-0.90472-0.28116-2.1332-0.20402-2.2132 0.27519-2.277 0.60473-1.7678 0.6045-10.327 4.1051-10.493 4.0151-4.8102 1.9591-2.4134 1.0505-3.7591 1.7385-6.4638 3.1269-2.2642 1.0073-2.5412 0.95739-1.7123 0.48988-1.6847 0.31292-1.2731 0.091768-1.2477-0.065626-1.1851-0.23347-1.0611-0.34862-0.62818-0.26698-1.1377-0.59704-0.76762-0.484-1.0969-0.80009-1.04-0.86507-0.84022-0.76962-1.0855-1.0888-1.4209-1.6076-0.84447-1.0724-1.0739-1.4712-1.2885-1.8989-1.6308-2.5456-4.1162-6.9124-3.6985-5.9635-0.7319-1.3178-3.1184-5.977-1.1001-2.5177-0.80259-2.2757-0.7377-2.4107-1.3513-5.0709-2.2339-9.0751-0.71007-2.3659-1.6113-4.5423-0.8836-2.2319-0.93686-2.0345-1.0865-2.0578-0.8359-1.3781-0.78623-1.1254-0.62001-0.76935-0.7512-0.78355-0.38094-0.33279-1.0423-0.69247-1.2206-0.4475-1.1223-0.10672-0.85802 0.19239-0.19445 0.10587 0.052649-0.69057-0.035169-1.1279-0.14022-1.4586-0.22202-1.5796-1.1274-6.6605-0.30429-2.8045-0.053233-1.4238 0.036987-1.4451 0.15148-1.5167 0.23973-1.4695 0.33835-1.5692 0.44344-1.5062 0.64708-1.5825 1.1269-2.1032 0.67234-1.0472 4.2101-5.9394 1.3623-2.0547 1.958-2.5683 1.0258-1.4581 0.57858-1.0802 0.32066-0.71276 0.54362-1.5034 0.32878-1.5969 0.06017-1.2101-0.091615-1.6335-0.39494-2.7732-1.078-5.8797-0.19647-1.7348-0.064617-1.7544 0.088773-2.1988 0.79789-8.106 0.28558-4.7392 0.23027-2.8142 0.25163-1.597 0.35317-1.6743 0.39653-1.7048 0.79333-3.0518 0.15128-1.1949-0.012824-0.94447-0.22249-2.3253-0.3428-2.8969-0.21907-1.1831-0.92242-3.6555-0.3842-1.243-0.33273-0.90299-0.59423-1.3089-1.4749-2.6331-0.60646-1.2769-0.60778-1.6784-0.29333-1.0826-0.29297-1.3242-0.34186-1.7628-0.6883-4.1193-0.65116-2.9043-0.42483-1.2855-1.2385-3.1798-0.6786-1.9694-1.0582-3.4893-0.98257-3.5156-0.87169-2.8956-1.723-5.289-0.79482-2.2651-0.83606-2.187-0.89068-2.0578-1.2944-2.4812-1.0466-1.5438-1.1421-1.1455-3.4317-2.1714-3.5835-1.6284-1.3032-1.1943-0.54314-1.8459 0.43413-1.9546 2.1715-1.6291 10.258-3.0641 8.2032-0.80246 7.6621-0.59825 4.396-0.2412 3.9718-0.15034 18.149-0.27492 4.9826-0.14602 3.6452-0.21476 1.4428-0.17487 0.29421-0.11166 0.057107 0.6195 0.1451 0.7372 1.1473 4.9998 0.60947 2.3142 0.72408 2.2075 0.87888 1.9517 0.58994 0.96884 0.62057 0.87948 1.0463 1.3515 0.9277 1.063 0.74666 0.93535 0.76282 1.3205 0.49901 1.4584 0.16409 1.2887 0.19266 2.6257 0.17064 0.91294 0.44504 1.3519 0.62207 1.352 1.4052 2.5521 1.8247 3.5855 0.74297 1.2487 1.451 1.9279 1.9959 2.4569 1.1321 1.1456 1.2899 0.98853 0.63877 0.37012 1.9056 0.79871 1.7677 0.47362 1.8729 0.32811 1.9443 0.21413 1.9866 0.12428 1.8028 0.048287 1.798-0.009998 1.7758-0.071795 1.4168-0.11406 1.3914-0.19722 1.6-0.36838 1.567-0.47059 8.3312-2.8145 1.1911-0.45521 1.4027-0.6375 1.3289-0.73934 1.2977-0.88489 1.3999-1.1884 2.1254-2.0636 0.50563-0.41737 1.1496-0.77034 1.3084-0.67815 1.4498-0.59292 1.556-0.50814 1.6311-0.42625 1.6928-0.3515 2.2542-0.3533 3.1032-0.33825 5.0708-0.31777 4.125-0.10008 4.8002-0.29015 1.4685-0.03257 1.4535 0.026158 1.1471 0.075149 1.0059 0.1371 2.2554 0.60307 1.0273 0.15261 0.94969-0.11618 0.92797-0.39011 0.81569-0.6511 0.86964-1.2218 0.54722-1.1166 0.50029-1.2331 1.2688-3.4846 0.56181-1.4077 0.74399-1.6486 1.9522-3.8468 0.96014-1.7266 0.99298-1.56 1.0241-1.3504 0.87234-0.9634 0.96905-0.90062 0.6401-0.51113 2.3187-1.4368 2.5796-1.1303 2.7248-0.88632 2.7314-0.684 2.4531-0.47742 2.0676-0.27502 1.3546-0.027112 0.26098 0.10352" stroke="#bdc660"/>
    </defs>
    <g clip-path="url(#p64ad0575d8)">
     <use y="280.512" fill="#bdc660" stroke="#bdc660" xlink:href="#m2eda5d62b6"/>
    </g>
   </g>
  </g>
 </g>
 <defs>
  <clipPath id="p64ad0575d8">
   <rect x="7.2" y="7.2" width="261.49" height="266.11"/>
  </clipPath>
 </defs>
</svg>
