<?xml version="1.0" encoding="UTF-8"?>
<!DOCTYPE svg  PUBLIC '-//W3C//DTD SVG 1.1//EN'  'http://www.w3.org/Graphics/SVG/1.1/DTD/svg11.dtd'>
<svg width="213.84pt" height="280.51pt" version="1.1" viewBox="0 0 213.84 280.51" xmlns="http://www.w3.org/2000/svg" xmlns:xlink="http://www.w3.org/1999/xlink">
 <metadata>
  <rdf:RDF xmlns:cc="http://creativecommons.org/ns#" xmlns:dc="http://purl.org/dc/elements/1.1/" xmlns:rdf="http://www.w3.org/1999/02/22-rdf-syntax-ns#">
   <cc:Work>
    <dc:type rdf:resource="http://purl.org/dc/dcmitype/StillImage"/>
    <dc:date>2024-07-04T12:08:11.433248</dc:date>
    <dc:format>image/svg+xml</dc:format>
    <dc:creator>
     <cc:Agent>
      <dc:title>Matplotlib v3.7.1, https://matplotlib.org/</dc:title>
     </cc:Agent>
    </dc:creator>
   </cc:Work>
  </rdf:RDF>
 </metadata>
 <defs>
  <style type="text/css">*{stroke-linejoin: round; stroke-linecap: butt}</style>
 </defs>
 <g id="figure_1">
  <g id="patch_1">
   <path d="m0 280.51h213.84v-280.51h-213.84v280.51z" fill="none"/>
  </g>
  <g id="axes_1">
   <g id="PatchCollection_1">
    <defs>
     <path id="m6a9115a92b" d="m165.25-249.5 0.32501 0.3094 1.1512 1.364 2.1193 2.6904 3.4577 4.5889 2.2306 3.072 2.0898 3.0155 0.96944 1.4831 0.89776 1.4601 0.8063 1.4353 0.68785 1.4074 0.53332 1.3747 0.33152 1.3344 0.033325 0.23082 0.052715 0.63533 0.007957 0.53856-0.064801 1.8369 0.008487 0.60875 0.062234 0.62854 0.097337 0.49667 0.1414 0.48089 0.26971 0.6419 0.73894 1.2875 0.27937 0.57589 0.11434 0.2943 0.18004 0.63714 0.085309 0.66291-0.001851 0.37277-0.1677 1.0268-0.3172 1.0198-0.66124 1.8877-0.13167 0.78955 0.15767 0.62064 0.21189 0.21954 0.68565 0.29674 0.65965 0.11384 1.1928 0.060748 3.4873-0.1073 1.1072 0.058663 0.72624 0.12884 0.64056 0.228 0.54115 0.3546 0.40495 0.46355 0.28928 0.68577 0.06803 0.76371-0.10957 0.71271-0.25208 0.84748-0.19546 0.53365-0.28263 0.64284-0.42475 0.76861-0.23671 0.34936-0.51144 0.6485-1.0009 1.1623-0.42988 0.55308-0.49158 0.75187-0.89499 1.5398-0.99263 1.5265-0.88597 1.2898-1.5732 2.1152-0.25093 0.37998-0.51424 0.90164-0.15219 0.32125-0.33431 0.88348-0.27111 1.0153-0.68649 2.9311-0.20818 0.98956-0.26321 1.6846-0.089427 0.85753-0.035507 0.66683 0.011823 1.4705 0.19803 2.3543 0.27545 2.4114 0.36175 2.3904 4.61e-4 0.66105-0.13512 0.64591-0.16074 0.36926-0.26889 0.42649-0.4746 0.54736-0.56639 0.5152-0.52938 0.42227-1.7448 1.2942-0.97306 0.79273-0.35286 0.3238-0.6699 0.69423-0.38732 0.46812-0.40836 0.57777-0.39766 0.7206-0.19875 0.4897-0.21708 0.72674-0.25583 1.2873-0.3998 3.212-0.15788 0.99726-0.25828 0.95471-0.27538 0.64599-0.51122 0.88168-0.48581 0.67948-0.99486 1.1922-1.7647 1.9475-0.53552 0.65216-0.50975 0.78681-0.08012 0.16566-0.1939 0.61107-0.019704 0.59624 0.12983 0.48608 0.2414 0.47381 0.31308 0.45336 0.49569 0.58794 1.4104 1.4868 3.0279 3.3698 0.69125 0.82408 0.62031 0.85068 0.42558 0.71295 0.29292 0.60019 0.28015 0.6729 0.23583 0.68458 0.15666 0.56507 0.40315 1.7744 0.20423 0.75028 1.0347 3.1729 0.19288 0.98278-0.006536 1.1617-0.23629 1.162-0.29642 0.82166-0.31722 0.66923-0.30068 0.52338-0.44244 0.63606-0.60696 0.68093-0.31239 0.28111-1.4618 1.1132-0.43372 0.38445-0.3642 0.42577-0.32022 0.60019-0.16647 0.66685 0.001324 0.70618 0.17949 0.72579 0.32883 0.73294 0.55128 0.89132 0.29907 0.41105 0.45954 0.57458 0.82385 0.89114 0.54181 0.52032 0.85259 0.73137 0.6434 0.46748 0.58773 0.36066 1.3998 0.71556 0.76322 0.42634 0.74334 0.47336 1.6798 1.1616 1.0395 0.66944 2.0495 1.3001 1.6482 1.0013 0.34043 0.22539 0.73993 0.57117 0.30315 0.26631 0.49353 0.4965 0.36227 0.41921 0.98502 1.2582 1.4065 1.8839 0.41996 0.62028 0.28436 0.48368 0.34686 0.72711 0.7528 1.9959 0.18049 0.36486 0.36099 0.5849 0.43839 0.55962 0.74619 0.74836 1.508 1.3149 0.5144 0.54975 0.18 0.27838 0.034402 0.17624 0.11113 0.51199-0.18466 0.57578-0.4637 0.4911-0.37507 0.18679-0.38026 0.11504-0.50586 0.098617-0.77316 0.10088-6.7035 0.66058-1.1982 0.14768-2.4739 0.38549-1.4418 0.18335-2.9015 0.29506-1.4086 0.19744-1.3451 0.29137-0.67613 0.21049-0.48602 0.19313-1.1164 0.61217-1.4614 1.0713-2.0555 1.7105-1.0655 0.78763-1.1172 0.67141-0.59088 0.27851-0.9735 0.33812-0.9984 0.19559-1.0106 0.036332-1.2158-0.18114-1.206-0.38249-1.1856-0.53359-1.1534-0.64433-0.86154-0.55336-2.7882-2.0174-0.90451-0.5744-0.8768-0.41135-0.85132-0.17785-0.40918 0.01863-0.46321 0.096577-0.46996 0.16255-0.59248 0.2804-0.61556 0.36818-0.6066 0.41775-1.0199 0.78403-0.78464 0.67744-0.68562 0.69461-0.33146 0.39343-0.32326 0.4468-0.53417 0.96588-0.9008 2.0198-0.55313 0.9527-0.81267 0.94974-0.97312 0.85667-3.1719 2.3328-0.94407 0.75813-0.75018 0.559-2.8899 1.9158-0.70605 0.44693-1.1631 0.63749-2.165 1.0144-1.0176 0.50731-0.89941 0.56084-0.71644 0.65806-0.21266 0.28762-0.2104 0.36457-0.30406 0.74646-0.19712 0.7317-0.26709 1.3451-0.21386 0.71116-0.28615 0.61451-0.37767 0.56364-0.40361 0.4666-0.50669 0.49333-1.8941 1.6059-0.4443 0.40596-2.0108 2.0751-0.851 0.73616-1.8267 1.4199-0.88566 0.74271-0.80455 0.80698-0.67127 0.90753-0.53173 1.1284-0.36052 1.2557-0.23361 1.3512-0.14275 1.4213-0.081657 1.471-0.12067 4.556-0.073036 1.5225-0.12918 1.5028-0.25958 1.7024-0.31692 1.2862-0.16952 0.55204-0.52992 1.4158-0.34208 0.74105-0.3807 0.71005-0.34297 0.55798-0.33938 0.48937-0.439 0.55648-0.34662 0.38654-0.40956 0.402-0.81945 0.64383-1.1034 0.58439-1.1956 0.39668-1.2496 0.23685-1.2696 0.093146-1.2578-0.045298-1.2146-0.18873-1.1059-0.30804-1.5052-0.47396-2.9231-0.77524-1.0253-0.33047-1.2135-0.44449-1.8092-0.73138-1.175-0.5922-0.75304-0.51814-1.0107-0.75928-0.61981-0.36365-0.80616-0.26682-0.86295-0.094581-0.86853 0.07212-0.82201 0.24294-0.72038 0.42774-0.4183 0.41552-0.35533 0.49026-0.25683 0.44988-0.355 0.82868-0.68569 1.9575-0.30764 0.65234-0.13892 0.24032-0.33513 0.4709-0.38219 0.3862-0.3191 0.22471-0.27719 0.14169-0.38907 0.12475-0.22364 0.038133-0.58978-0.012924-0.69213-0.19052-0.46473-0.19794-0.29701-0.15507-0.46457-0.30689-0.73081-0.66925-0.95068-1.03-0.67569-0.6775-0.72049-0.64384-1.0774-0.81078-0.71141-0.41682-1.3397-0.65454-1.2195-0.65562-0.32699-0.11162-0.25051-0.030108-0.17678 0.015873-0.1398 0.0382-0.21325 0.10577-0.2821 0.23003-0.27864 0.32234-0.28191 0.45454-0.24824 0.63776-0.31686 1.4461-0.16194 0.60423-0.24809 0.72749-0.31147 0.79904-1.1194 2.3283-1.3242 2.4771-0.87573 1.9702-0.51505 0.88251-0.47192 0.55071-0.55504 0.46611-0.56603 0.3666-1.5665 0.87167-0.83276 0.53405-0.95751 0.75433-1.2904 1.0962-0.34251 0.2305-0.44925 0.221-0.37348 0.096861-0.20901 0.014805-0.45066-0.052207-0.50906-0.17487-0.4206-0.22593-2.2652-1.5314-1.1394-0.72298-1.7409-1.0134-2.1145-1.2763-2.6655-1.5073-3.3601-2.0191-1.0449-0.58338-0.80292-0.39348-0.55816-0.2397-2.1791-0.7865-4.9937-1.9319-0.50638-0.21488-0.80732-0.39798-0.89781-0.56158-0.73634-0.5789-0.50539-0.50789-0.17192-0.33642-3.4207-5.3346-0.45313-0.65551-0.24891-0.29626-0.28241-0.23754-0.16152-0.07925-0.33734-0.054802-0.56626 0.061453-0.66408 0.16388-0.047962-0.062657-0.022614-0.1134-0.051321-0.66534-0.12537-4.861-0.10096-2.4418-0.13236-1.4685-0.10314-0.66334-0.14007-0.60089-0.18452-0.49772-0.25586-0.40564-0.23564-0.25604-1.4689-1.2486-0.73954-0.78134-0.80699-1.0643-0.75562-1.1559-0.98708-1.6985-0.46153-0.88278-0.46666-0.97205-0.24994-0.58985-0.2035-0.58205-0.14277-0.57623-0.062196-0.56724 0.054831-0.66284 0.18457-0.62754 0.30208-0.57176 0.41779-0.48976 0.52037-0.38483 0.33398-0.19113 1.7046-0.80388 1.1857-0.61662 0.53197-0.34042 0.45597-0.36686 0.3473-0.3965 0.20304-0.4272 0.03964-0.42894-0.083147-0.42562-0.16591-0.3869-0.20394-0.30128-0.19968-0.15592 0.03651-0.39325 0.22275-0.962 0.37142-1.286 0.50246-1.4425 0.53932-1.31 1.0422-2.2436 2.0582-4.289 0.6643-1.2294 0.73534-1.1231 0.79211-0.97148 0.83872-0.7661 0.87928-0.49553 0.82356-0.18034 0.8246-0.009614 0.96172 0.067114 0.57738 0.006844 0.57733-0.093443 0.76362-0.3308 0.79973-0.53666 0.82496-0.69366 0.84064-0.81133 0.84758-0.89738 0.8461-0.9579 0.9162-1.0964 0.88942-1.1225 0.84599-1.13 0.7828-1.1203 0.69568-1.0935 0.62364-1.0757 0.63516-0.98288 0.41459-0.5071 0.47889-0.50504 1.0156-0.9899 0.4833-0.52148 0.55518-0.80314 0.33142-0.88811 0.14463-0.96706-0.014973-0.99694-0.15682-0.97918-0.28915-0.91304-0.23297-0.49991-0.83167-1.4987-0.15688-0.42154-0.06964-0.43296 0.04715-0.49484 0.050312-0.19238 0.1788-0.44897 0.25332-0.46054 0.63894-0.92817 1.9592-2.5891 0.89866-1.3841 0.6294-1.1611 0.49242-1.1704 0.32341-1.1478 0.13271-0.85915 0.019972-1.1793-0.046195-1.1605 0.051272-1.1611 0.20826-0.97024 0.3305-0.98743 1.5182-3.8826 0.77328-2.1387 0.32083-1.0681 0.40945-1.6377 0.36011-1.1925 0.43826-1.1981 0.61785-1.4617 0.59518-1.2605 0.63556-1.2118 0.89529-1.5101 1.3362-2.0202 0.34928-0.66715 0.31414-0.70218 0.31963-0.80741 0.6453-1.78 0.71609-1.8232 0.44516-0.99308 0.4835-0.96502 1.1884-2.1071 0.23546-0.47459 0.34678-0.77024 0.51049-1.2606 1.0012-2.6101 0.73043-1.7872 0.77173-1.6873 0.53136-1.0463 0.65147-1.196 1.1764-2.0225 6.3109-10.348 1.9086-3.2436 4.3153-7.7091 1.4376-2.6247 0.76175-1.495 1.2034-2.6298 1.0097-2.3793 0.43621-1.1281 0.60592-1.7656 0.47816-1.6628 0.264-1.0548 1.0645-4.9658 0.27482-1.1834 0.30462-1.1535 0.3459-1.1118 1.8317-4.8502 0.42735-1.2775 0.22033-0.88396 0.12831-0.85394 0.037135-0.81741-0.049148-1.7272-0.1082-0.71721-0.14569-0.29076-0.076998-0.034075 0.2447-0.011671 0.41572-0.29822 0.52107-0.5228 0.26716-0.3152 0.80451-1.0828 2.5727-3.7703 1.8184-2.5515 0.79767-1.03 0.76652-0.93343 0.78551-0.89852 1.1595-1.2159 1.2564-1.1763 1.7845-1.4936 2.7332-2.111 0.94125-0.8225 0.39342-0.3897 0.70224-0.79026 1.6349-2.1514 0.89295-0.94194 0.99837-0.89544 2.0128-1.6216 3.7324-2.8555 0.75836-0.54311 2.9205-1.9741 2.0607-1.3207 1.9602-1.2142 2.3482-1.6238 0.80931-0.4734 0.9202-0.39836 0.71968-0.19533 0.58803-0.086416 0.99849-0.043575 3.3521 0.10043 1.4778-0.058699 1.5226-0.14592 1.5554-0.21048 1.5786-0.25522 4.8005-0.85405 1.5969-0.25007 1.5796-0.1924 1.5482-0.10076 1.4976 0.03527 1.4203 0.22922 1.3076 0.49707 0.32275 0.18747 0.45374 0.31813 0.31987 0.26571 0.35822 0.34121 0.69701 0.80718 0.90432 1.3484 0.61836 1.1189 0.77876 1.6256 1.6539 3.8475 0.36608 0.71981 0.26422 0.35634 0.16121 0.016138" stroke="#bdc660"/>
    </defs>
    <g clip-path="url(#pfdc1dfc522)">
     <use y="280.512" fill="#bdc660" stroke="#bdc660" xlink:href="#m6a9115a92b"/>
    </g>
   </g>
  </g>
 </g>
 <defs>
  <clipPath id="pfdc1dfc522">
   <rect x="7.2" y="7.2" width="199.44" height="266.11"/>
  </clipPath>
 </defs>
</svg>
