<?xml version="1.0" encoding="UTF-8"?>
<!DOCTYPE svg  PUBLIC '-//W3C//DTD SVG 1.1//EN'  'http://www.w3.org/Graphics/SVG/1.1/DTD/svg11.dtd'>
<svg width="226.05pt" height="280.51pt" version="1.1" viewBox="0 0 226.05 280.51" xmlns="http://www.w3.org/2000/svg" xmlns:xlink="http://www.w3.org/1999/xlink">
 <metadata>
  <rdf:RDF xmlns:cc="http://creativecommons.org/ns#" xmlns:dc="http://purl.org/dc/elements/1.1/" xmlns:rdf="http://www.w3.org/1999/02/22-rdf-syntax-ns#">
   <cc:Work>
    <dc:type rdf:resource="http://purl.org/dc/dcmitype/StillImage"/>
    <dc:date>2024-07-04T12:08:17.825045</dc:date>
    <dc:format>image/svg+xml</dc:format>
    <dc:creator>
     <cc:Agent>
      <dc:title>Matplotlib v3.7.1, https://matplotlib.org/</dc:title>
     </cc:Agent>
    </dc:creator>
   </cc:Work>
  </rdf:RDF>
 </metadata>
 <defs>
  <style type="text/css">*{stroke-linejoin: round; stroke-linecap: butt}</style>
 </defs>
 <g id="figure_1">
  <g id="patch_1">
   <path d="m0 280.51h226.05v-280.51h-226.05v280.51z" fill="none"/>
  </g>
  <g id="axes_1">
   <g id="PatchCollection_1">
    <defs>
     <path id="mb8f5e591cc" d="m204.73-190.05-0.08863 0.042152-0.11205 0.31132-0.035046 1.0322 0.3938 5.199 0.071263 3.2284-0.039234 2.2112-0.39421 7.0837-0.21208 2.652-0.24076 1.4275-0.47104 1.5482-0.58475 1.1784-0.7488 1.1191-0.91608 1.1094-1.2711 1.3091-3.4368 3.0782-5.3056 4.3919-1.7065 1.605-1.6439 1.8244-1.4878 1.9579-1.3199 2.0686-1.1259 2.1661-0.88921 2.2586-0.39196 1.3695-0.29706 1.3954-0.25604 1.8494-0.12522 1.87-0.008829 1.9475 0.10329 2.0707 0.44191 4.9931 0.23656 1.8951 1.1352 6.0785 0.6285 4.3255 0.24002 1.972 0.095647 1.4233 0.066021 3.2147 0.12193 1.9 0.3352 1.772 0.60379 1.6256 1.0126 1.8306 0.93389 1.4138 1.4133 1.8768 2.27 2.5722 1.6152 1.6289 4.2279 3.8513 0.76473 0.77108-0.7458 0.22179-0.57998 0.86338-0.39881 1.3766-0.21411 1.6295-0.011833 1.8695 0.37785 2.752 0.71 2.8745 1.846 6.0015 0.846 3.0154 0.60605 2.9736 0.22147 2.903-0.13461 1.97-0.332 1.9305-0.41571 1.6515-0.88526 2.4644-1.4483 2.9328-1.3838 2.3391-2.1852 3.4055-6.0888 8.6472-1.6086 1.938-1.7777 1.8816-1.6351 1.5643-2.7645 2.3798-2.8848 2.217-2.9329 2.018-2.9166 1.7588-1.4979 0.78261-1.6535 0.7495-1.6311 0.59987-0.45707 0.13794-2.7952 0.45452-0.58207-5e-3 -1.3424-0.15455-1.6724-0.49572-1.6485-0.79332-1.9278-1.2633-1.8929-1.5443-1.5304-1.4385-2.9751-3.1901-2.814-3.3399-6.4511-7.8761-3.3865-3.8283-3.0908-3.1411-3.0961-2.7681-2.5111-1.8976-4.7933-3.0555-5.3465-3.5137-6.1439-3.4987-8.2709-4.9982-3.7898-2.408-5.0518-3.4642-3.2373-2.3808-6.558-5.1593-2.8731-2.1575-3.6106-2.444-0.66396-0.3735-0.33219-0.088503-0.053312-0.82874 0.7118-8.7036 0.34121-4.9729 0.1742-4.7592-0.15112-3.9963-0.45568-3.9492-0.7437-3.8527-1.0281-3.7133-1.3276-3.5324-1.6632-3.3063-1.2431-1.957-1.371-1.8617-1.7146-2.0569-1.8159-1.9688-3.9062-3.8247-4.8502-4.3915-5.1135-4.1614-6.6425-5.0289-7.4571-6.0256-4.4167-3.1924-4.3941-3.4207-2.2107-1.5941-1.6323-1.034-4.4349-2.339-2.1178-1.2682-1.7463-1.5245-0.64884-0.86669-0.3371-0.58353-0.64201-1.6951-0.25867-2.2858 0.41505-2.811 1.0375-2.9576 1.5229-3.0499 1.9115-3.0934 2.2375-3.0894 2.9143-3.5362 2.3252-2.5702 2.4894-2.5136 2.666-2.4145 2.0863-1.6959 2.17-1.6286 3.8205-2.6016 3.2956-2.0283 3.3339-1.9126 3.2761-1.7812 8.1055-4.1859 0.87219-0.52815 0.3924-0.25234 2.2798-0.976 5.7814-2.107 3.4479-1.3804 4.8395-2.244 2.1589-1.0999 1.6396-0.93989 1.6899-1.087 1.6281-1.1725 7.2796-5.9223 5.3041-4.07 5.1023-3.5912 1.5711-1.0248 2.3472-1.3298 2.4887-1.1581 1.9247-0.7715 11.99-4.6023 9.7904-3.666 2.1172-0.85706 5.3245-2.4493 2.2433-0.65025 2.3508-0.19727 0.87264 0.062148 2.1539 0.38335 2.4911 0.61302 2.6655 0.56483 1.7914 0.23457 3.5247 0.23725 7.0819 0.20101 4.8111 0.2784 4.9811 0.53952 4.8728 0.75073 2.032 0.4635 2.1083 0.57694 6.8612 2.1854 5.6303 1.5997 2.4845 0.97946 1.9202 1.114 0.86983 0.65191 1.2255 1.165 0.88514 1.0674 0.88549 1.2922 1.4205 2.6575 1.046 2.5748 0.81136 2.6842 0.30413 1.457 0.21961 1.5279 0.19775 2.3431 0.078902 2.1084 0.006891 2.2332-0.08673 2.5084-0.21898 2.5427-0.50649 3.2808-0.70363 3.3075-3.7146 14.647-0.70997 3.7958-0.26911 2.1863-0.045001 2.2754 0.09557 1.0614 0.26317 1.3237 0.19638 0.58515 0.32161 0.61987 0.23718 0.27967 0.64656 0.20649" stroke="#bdc660"/>
    </defs>
    <g clip-path="url(#pcc4d3d40eb)">
     <use y="280.512" fill="#bdc660" stroke="#bdc660" xlink:href="#mb8f5e591cc"/>
    </g>
   </g>
  </g>
 </g>
 <defs>
  <clipPath id="pcc4d3d40eb">
   <rect x="7.2" y="7.2" width="211.65" height="266.11"/>
  </clipPath>
 </defs>
</svg>
