<?xml version="1.0" encoding="UTF-8"?>
<!DOCTYPE svg  PUBLIC '-//W3C//DTD SVG 1.1//EN'  'http://www.w3.org/Graphics/SVG/1.1/DTD/svg11.dtd'>
<svg width="254.17pt" height="280.51pt" version="1.1" viewBox="0 0 254.17 280.51" xmlns="http://www.w3.org/2000/svg" xmlns:xlink="http://www.w3.org/1999/xlink">
 <metadata>
  <rdf:RDF xmlns:cc="http://creativecommons.org/ns#" xmlns:dc="http://purl.org/dc/elements/1.1/" xmlns:rdf="http://www.w3.org/1999/02/22-rdf-syntax-ns#">
   <cc:Work>
    <dc:type rdf:resource="http://purl.org/dc/dcmitype/StillImage"/>
    <dc:date>2024-07-04T12:08:14.904706</dc:date>
    <dc:format>image/svg+xml</dc:format>
    <dc:creator>
     <cc:Agent>
      <dc:title>Matplotlib v3.7.1, https://matplotlib.org/</dc:title>
     </cc:Agent>
    </dc:creator>
   </cc:Work>
  </rdf:RDF>
 </metadata>
 <defs>
  <style type="text/css">*{stroke-linejoin: round; stroke-linecap: butt}</style>
 </defs>
 <g id="figure_1">
  <g id="patch_1">
   <path d="m0 280.51h254.17v-280.51h-254.17v280.51z" fill="none"/>
  </g>
  <g id="axes_1">
   <g id="PatchCollection_1">
    <defs>
     <path id="maaf045d5be" d="m128.28-245.03-0.27008 0.58975-0.27324 0.69662-0.36737 1.2323-0.31443 1.3611-0.51905 2.6342-0.41811 1.8658-0.44047 1.7205-1.1584 4.1595-0.2976 1.1963-0.15566 0.82194-0.11643 0.80622-0.3296 3.3326-0.30058 2.5965-0.18081 1.1902-0.22326 1.0761-0.36047 1.3015-0.38523 1.1269-0.51085 1.2844-0.99512 2.3046-0.26689 0.69299-0.23552 0.71303-0.2335 0.92191-0.10197 0.56989-0.079894 0.6802-0.022328 0.72695 0.048111 0.63383 0.077706 0.48412 0.12454 0.55951 0.19267 0.67085 0.31375 0.88267 0.70806 1.7242 0.50366 1.3013 0.44222 1.4383 0.080812 0.34643 0.16035 0.86755 0.11899 0.91794 0.26967 3.1508 0.22895 2.1308 0.31395 1.8795 0.37914 1.6202 0.21893 0.72736 0.29012 0.79152 1.0057 2.2 0.16139 0.38408 0.38517 1.1033 0.12654 0.46748 0.55708 2.5247 1.1269 4.1055 0.29181 1.3096 0.3175 1.8428 0.32024 1.1013 0.41902 1.064 0.60812 1.2947 0.34009 0.63054 0.31867 0.47916 0.2818 0.31792 0.1823 0.15495 0.34121 0.19735 0.74562 0.16492 0.86725-0.02691 0.27927-0.03549 0.57559-0.10702 0.80087-0.19947 3.2731-0.97516 1.6772-0.446 1.3914-0.28393 1.3195-0.16298 1.405-0.069366 4.8585-0.028047 2.0057-0.055657 1.2104-0.072572 1.3769-0.13488 2.6956-0.39926 1.0771-0.12183 0.79051-0.04748 0.79211-0.013932 2.5383 0.064007 0.93945-0.075182 2.0383-0.27579 0.7351-0.034633 0.43291 0.056689 0.47298 0.18319 0.28965 0.17893 0.7283 0.53431 0.54485 0.34078 0.60044 0.28435 0.63193 0.18465 0.64053 0.037077 0.38662-0.067484 0.32122-0.10093 0.40365-0.16829 0.50839-0.26013 0.98603-0.55713 0.62016-0.28528 0.56474-0.19544 1.8527-0.52591 1.1602-0.21106 1.7526-0.1464 0.90229-0.1167 3.149-0.52132 1.7633-0.37254 0.77528-0.20707 0.849-0.2677 2.1678-0.81503 2.5654-1.1045 2.0292-0.80883 0.73191-0.36189 0.7239-0.46009 1.3047-1.0786 0.46051-0.32203 0.54388-0.28562 0.87503-0.30528 0.68698-0.1394 0.45362-0.051133 0.82278-0.016724 0.81895 0.08445 0.4725 0.10008 0.37859 0.11188 0.59932 0.24256 0.56454 0.29764 0.50866 0.3192 0.88748 0.65036 0.58654 0.49012 0.20327 0.29543 0.72108 0.15446 0.81692 0.011822 2.2339-0.095413 0.5337 0.010483 0.61078 0.045038 0.58169 0.081201 0.8279 0.19527 0.57674 0.19257 0.71854 0.3056 0.75311 0.40534 0.68691 0.45749 0.56581 0.45445 0.41988 0.39424 0.582 0.65092 0.39949 0.54432 0.38293 0.64566 0.37947 0.88874 0.19438 0.71454 0.14112 0.73394 0.19886 1.3346 0.12504 1.306 0.02899 1.5754-0.18089 5.1552-0.010881 1.7821 0.048254 2.0254 0.1743 4.0465 0.003903 4.1679 0.037711 2.4306-0.009609 1.184-0.07466 1.6535-0.10588 1.4245-0.07974 0.60318-0.2414 1.1921-0.44551 1.5176-0.49633 1.3109-0.84226 1.8623-0.49988 0.98408-1.5899 2.9005-0.62716 1.065-0.47294 0.74344-1.2737 1.8987-0.5098 0.82734-0.46193 0.8455-0.48362 1.0441-0.41516 1.0163-0.25887 0.69433-0.29517 0.94726-0.28444 1.1901-0.51431 2.6802-0.29646 1.4114-0.30034 1.2255-0.92231 3.3669-0.3178 1.2705-0.24175 1.0909-0.24347 1.2593-0.21231 1.2628-0.32008 2.303-0.12723 1.1388-0.10689 1.3201-0.013968 1.1515 0.044616 0.87487 0.076367 0.80873 0.15103 1.0817 0.18658 0.98939 0.21432 0.89044 0.26925 0.87609 0.33218 0.82712 0.35468 0.67566 0.26408 0.40983 0.25452 0.34078 0.31684 0.36751 0.28487 0.2872 0.40398 0.34994 0.38708 0.28198 0.36774 0.22586 0.43487 0.219 0.52239 0.1967 0.23999 0.065882 0.45231 0.079717 0.53522 0.017482 0.42213-0.0354 0.40741-0.067 0.80238-0.20457 0.81815-0.27297 2.7757-1.0667 0.7547-0.23584 0.44327-0.10645 0.52425-0.084542 0.44245-0.029189 0.7106 0.0392 0.90645 0.17293 0.47455 0.12926 2.9483 0.95617 1.6959 0.43195 1.2761 0.26175 2.0592 0.36274 2.3341 0.39296 2.3597 0.35573 0.73086 0.13734 0.95329 0.24473 0.66321 0.23526 0.37762 0.16719 0.472 0.2614 0.35305 0.25168 0.9148 0.8181 0.47913 0.475 0.17932 0.25724 0.11401 0.32579 0.018699 0.20635-0.023849 0.27531-0.15342 0.56019-0.88112 2.1555-0.37916 1.1077-0.14595 0.58839-0.12975 0.72282-0.17199 1.4659-0.12447 1.3688-0.11094 1.7605-0.03891 1.2754 0.016417 1.1572 0.124 1.6204 0.43227 3.6233 0.012782 0.91044-0.089603 0.72017-0.13626 0.59121-0.24194 0.74357-0.21498 0.5316-0.35991 0.75472-0.27455 0.50539-0.49448 0.81265-0.57721 0.84985-0.59053 0.79159-1.033 1.2323-1.2783 1.3511-1.3575 1.2936-1.5931 1.447-2.5624 2.2581-0.51801 0.51062-0.22311 0.31958-0.13391 0.010918-0.1431 0.10396-0.15399 0.15879-0.49159 0.63933-1.1816 1.7185-0.99337 1.3595-1.8915 2.3592-1.0487 1.2362-2.5445 2.9133-2.2832 2.4258-0.63834 0.72676-0.7643 0.98579-0.97049 1.3514-0.79733 1.2062-0.58686 0.99051-0.60825 1.193-0.39393 0.88924-0.30663 0.79545-0.27691 0.88259-0.14089 0.54062-0.24711 1.1516-0.21057 1.3329-0.27484 2.3285-0.29547 2.2034-0.1468 0.82736-0.1995 0.85114-0.27053 0.8605-0.11931 0.29376-0.38897 0.72199-0.46481 0.59942-0.5163 0.45768-0.54622 0.28998-0.20245 0.058637-0.30714 0.047747-0.33124 0.012068-0.97941-0.045021-0.51942 0.017289-0.44468 0.06964-0.46695 0.11965-0.43226 0.14338-0.98155 0.38344-2.0719 0.89904-1.0251 0.41966-0.67839 0.23396-0.79841 0.17389-0.80502 0.038592-0.7197-0.098007-0.61216-0.17451-0.53968-0.22784-0.50298-0.28289-0.61234-0.43695-0.56732-0.50594-0.48556-0.55338-0.28251-0.43867-0.13021-0.27442-0.10251-0.29831-0.10987-0.92557 0.094437-1.0077 0.71112-3.2702 0.13396-1.1105-0.046415-1.0949-0.05974-0.31515-0.19594-0.65777-0.42772-0.92907-0.56234-0.90484-0.22572-0.31659-3.3621-4.2183-1.0859-1.4424-0.90237-1.3493-0.62231-1.0898-0.26134-0.51843-0.42207-0.94777-0.43019-1.1896-0.28732-0.94802-0.90407-3.4868-0.26012-0.91865-0.28685-0.9129-0.41224-1.1549-0.65424-1.5714-0.52763-1.1324-0.63854-1.2431-0.49424-0.87802-1.9725-3.2219-1.6405-2.549-3.9262-5.6209-0.83691-1.1209-0.71683-0.82921-0.83753-0.81371-0.49865-0.38495-0.29505-0.18042-0.43959-0.19649-0.42264-0.10045-0.44046-0.006602-0.45891 0.0898-0.4999 0.19013-0.50676 0.27281-0.63732 0.43525-0.68108 0.55482-0.74383 0.69332-0.56049 0.60026-0.38137 0.47228-1.328 1.9836-0.62426 0.75814-0.22785 0.24044-0.88823 0.83075-0.69044 0.56514-0.78736 0.58484-0.91492 0.62082-1.1857 0.7359-3.1336 1.8008-6.6619 3.9732-3.6115 2.1087-0.08151 0.10305-0.21782 0.18116-0.58134 0.41549-0.67956 0.42741-0.46986 0.248-0.82017 0.33799-0.92132 0.27852-1.4447 0.29921-1.4568 0.19034-1.3116 0.10592-1.0805 0.048361-2.3523 0.009141-1.7882-0.045557-5.1883-0.19681-1.8718-0.036849-2.2564 0.011109-3.7583 0.11776-1.6199 0.009353-0.98722-0.02726-1.8998-0.12851-1.5049-0.19056-0.70935-0.13192-0.65468-0.15701-0.62873-0.19288-1.0569-0.46043-0.57662-0.36267-0.70915-0.61214-0.52546-0.57241-0.87559-1.1188-0.55328-0.78327-0.81776-1.2282-2.2872-3.557-0.44865-0.64096-0.66137-0.81692-0.83568-0.87236-0.385-0.34942-0.71633-0.55698-0.40768-0.25744-0.42649-0.21536-0.43042-0.15131-0.32116-0.062192-0.43124-0.001337-0.49574 0.1345-0.40263 0.2127-0.4347 0.32148-0.52437 0.48611-1.7695 1.8286-2.539 2.4431-2.1804 2.0061-0.97992 0.81477-0.93406 0.71688-0.95101 0.68502-0.91507 0.61878-0.80871 0.50201-0.78887 0.43705-0.90712 0.43536-1.0667 0.42018-1.0423 0.31665-1.1115 0.25066-0.9059 0.15286-1.1606 0.14604-1.7387 0.14441-2.1546 0.1057-2.3738 0.059572-2.3151 0.006752-1.3122-0.026072-1.4358-0.066221-1.4004-0.11787-1.3063-0.1819-1.2404-0.28032-0.91022-0.31489-0.84074-0.42477-0.7948-0.5839-0.71431-0.70687-0.64518-0.80586-0.66005-1.0117-0.59342-1.0914-0.4447-0.94553-0.40997-0.97895-0.37848-1.0059-0.37909-1.1199-0.34954-1.1398-0.68327-2.5545-0.58627-2.5485-0.47483-2.2838-0.72204-3.7416-0.40788-2.3409-0.21498-1.4255-0.84902-6.6694-0.24525-1.5716-0.148-0.79441-0.20201-0.93732-0.20721-0.81823-0.23701-0.79636-0.33-0.91974-0.47106-1.0396-0.4346-0.75156-0.50471-0.6967-0.60394-0.69774-0.6651-0.68037-0.68552-0.62713-0.56964-0.46086-0.74194-0.52659-1.3716-0.86178-0.60625-0.46161-0.48455-0.46874-0.25281-0.29563-0.34579-0.48079-0.21828-0.37177-0.1865-0.38905-0.2063-0.55524-0.19338-0.69628-0.13314-0.62981-0.70509-4.3404-0.4784-3.9709-0.15945-0.88577-0.10652-0.45635-0.1957-0.64278-0.16335-0.39844-0.1563-0.30107-0.32895-0.48885-0.20511-0.24624-0.3951-0.399-0.35483-0.30191-0.3962-0.29473-0.54787-0.3533-0.51734-0.2912-0.3914-0.19553-0.55268-0.23029-0.71903-0.2071-0.60157-0.082425-0.62803-0.019904-0.75606 0.038216-1.0234 0.12383-2.8692 0.48003-1.1051 0.091654-0.68164-0.029439-1.0186-0.1756-0.93081-0.25471-0.83342-0.39554-0.15809-0.11099-0.38077-0.34166-0.30149-0.36635-0.24962-0.41737-0.2248-0.56696-0.1424-0.57076-0.076024-0.55123-0.026583-0.5982 0.018632-0.60547 0.07185-0.75846 0.11121-0.72588 0.12747-0.60805 0.1949-0.70583 0.22689-0.6599 0.24839-0.61085 0.33977-0.72871 0.37293-0.71483 0.45988-0.78897 0.2023-0.3062 0.074196-0.075731 0.24897-0.14071 0.49182-0.47891 2.2966-2.6605 3.3692-3.5846 1.0084-1.1789 0.94642-1.2639 0.7395-1.0837 0.58423-0.92546 0.54829-0.95368 0.38219-0.78318 0.22928-0.57309 0.26149-0.854 0.16096-0.76459 0.12836-1.0072 0.050856-1.0552-0.031962-1.2084-0.098417-0.80819-0.19393-0.83329-0.17341-0.46851-0.22259-0.47896-1.1876-2.1975-0.60057-1.208-0.4881-1.0789-0.80637-1.9537-0.2554-0.70843-0.35069-1.1952-0.21027-0.93311-0.12014-0.87106-0.024378-0.57943 0.03031-0.78254 0.059612-0.53368 0.14323-0.80069 0.22551-0.88266 0.25384-0.83522 0.89165-2.4584 0.35356-1.1318 0.16178-0.7213 0.098106-0.63139 0.041392-0.51908-0.007815-0.53578-0.097568-0.85546-0.18324-0.74094-0.22275-0.54154-0.71551-1.3886-0.24386-0.52035-0.26678-0.66969-0.19699-0.64304-0.22203-0.87518-0.51075-2.4042-0.20032-0.71005-0.38698-1.1584-0.13418-0.51143-0.097893-0.69395-0.009157-0.81534 0.071277-0.76396 0.11468-0.66756 1.0551-4.8093 0.3395-1.1577 1.1015-3.3143 0.39662-1.4571 0.13795-0.70062 0.09195-0.70749 0.055891-0.78767 0.008372-0.67912-0.055401-1.0605-0.11395-1.0033-0.18961-0.93477-0.24856-0.76723-0.26486-0.59355-0.2739-0.50046-1.3949-2.1419-0.24622-0.42079-0.069976-0.1981 0.30179-0.54203 0.15722-0.40323 0.080169-0.30977 0.049473-0.56927-0.054444-0.5801-0.11855-0.64662-0.099949-0.40415-0.13872-0.41168-0.26571-0.57899-0.67736-1.3098-0.30345-0.74078-0.099991-0.41091-0.033719-0.38372 0.019978-0.39048 0.096053-0.49798 0.12462-0.39552 0.41252-0.93034 0.45388-0.77269 1.2833-1.7674 0.46288-0.68878 0.30306-0.56278 0.18239-0.42426 0.24932-0.74595 0.15975-0.77385 0.027112-0.32308-0.011264-0.43482-0.06872-0.4148-0.39639-1.3767-0.047775-0.44002 0.045197-0.48403 0.33266-1.1817 0.0569-0.31088 0.015416-0.2473-0.039786-0.14416 0.022577-0.10897 0.096541-0.12236 0.51251-0.42934 0.81538-0.54228 0.90129-0.53208 1.5416-0.81255 2.4859-1.1376 1.0102-0.55534 0.48273-0.30717 2.2646-1.5543 0.73476-0.54181 0.5003-0.40619 0.79392-0.7235 0.50056-0.52229 0.49767-0.59331 0.37093-0.50883 0.3967-0.62888 0.26732-0.49369 0.75457-1.6832 0.43563-0.85864 0.30189-0.51025 0.3974-0.58431 0.52879-0.67 0.68385-0.75815 1.9867-2.0284 1.8566-2.0911 1.0624-1.0418 2.4076-2.1576 0.78654-0.6424 0.77214-0.58151 0.66201-0.4658 1.3601-0.89028 3.9297-2.3778 0.73689-0.48062 0.94613-0.66972 0.79116-0.61984 0.53557-0.45566 1.6152-1.4396 2.2579-1.9325 0.64561-0.60403 0.6775-0.68137 1.6764-1.7565 0.55781-0.51532 0.48943-0.39569 0.4806-0.33116 0.41994-0.242 0.60938-0.27536 0.53653-0.1644 0.47438-0.067587 0.5323 0.054098 0.32173 0.12951 0.22987 0.14724 0.26881 0.24069 0.29988 0.38537 0.16353 0.28165 0.15763 0.33616 0.19194 0.5244 0.13674 0.46179 0.26515 1.0851 0.46885 2.3837 0.2565 1.7338 0.15311 1.7911 0.030079 1.3021 0.003024 2.3187 0.035315 1.0795 0.11796 1.5761 0.15446 1.4156 0.15558 1.0963 0.65323 3.6734 0.13268 1.0938 0.056297 0.89456 0.008904 0.88251-0.028431 0.95164-0.17924 2.8227-0.22587 2.6282-0.36071 3.1769-0.071125 1.3033 0.0347 1.9941 0.13356 2.3034 0.19042 1.8894 0.21406 1.3513 0.29109 1.3367 0.31756 1.0331 0.28768 0.67329 0.24744 0.43585 0.17912 0.25292 0.63629 0.64083 0.71581 0.51672 0.74404 0.45674 0.81203 0.3344 0.49556 0.098223 0.27224 0.02664 0.66144 0.003322 0.40765-0.034652 0.4847-0.076204 0.62711-0.15828 0.68281-0.26151 0.53495-0.28406 0.30664-0.1941 0.85159-0.64613 0.91644-0.83565 0.91287-0.91655 0.68299-0.72504 0.70086-0.79346 0.78878-0.97208 0.97381-1.3179 1.5563-2.3385 1.9123-2.7257 0.81943-1.0462 1.3156-1.5475 1.5103-1.6614 2.0914-2.106 2.2244-2.296 1.4801-1.3853 0.49774-0.41368 0.56155-0.42433 0.67144-0.45929 1.025-0.61838 0.94136-0.49007 1.0473-0.46033 1.1591-0.43582 1.0351-0.34349 4.3107-1.2554 0.85293-0.3118 0.79949-0.35148 0.49994-0.26246 0.74849-0.48818 0.58126-0.48429 1.0226-0.97506 0.63125-0.54699 0.93154-0.6727 1.1013-0.68062 0.97448-0.5127 0.42149-0.18352 0.60847-0.20991 0.34821-0.087161 0.52447-0.068894 0.29936 0.017539 0.12514 0.038975 0.082774 0.068459" stroke="#bdc660"/>
    </defs>
    <g clip-path="url(#p44eb9b4f23)">
     <use y="280.512" fill="#bdc660" stroke="#bdc660" xlink:href="#maaf045d5be"/>
    </g>
   </g>
  </g>
 </g>
 <defs>
  <clipPath id="p44eb9b4f23">
   <rect x="7.2" y="7.2" width="239.77" height="266.11"/>
  </clipPath>
 </defs>
</svg>
