<?xml version="1.0" encoding="UTF-8"?>
<!DOCTYPE svg  PUBLIC '-//W3C//DTD SVG 1.1//EN'  'http://www.w3.org/Graphics/SVG/1.1/DTD/svg11.dtd'>
<svg width="262.92pt" height="280.51pt" version="1.1" viewBox="0 0 262.92 280.51" xmlns="http://www.w3.org/2000/svg" xmlns:xlink="http://www.w3.org/1999/xlink">
 <metadata>
  <rdf:RDF xmlns:cc="http://creativecommons.org/ns#" xmlns:dc="http://purl.org/dc/elements/1.1/" xmlns:rdf="http://www.w3.org/1999/02/22-rdf-syntax-ns#">
   <cc:Work>
    <dc:type rdf:resource="http://purl.org/dc/dcmitype/StillImage"/>
    <dc:date>2024-07-04T12:08:21.003311</dc:date>
    <dc:format>image/svg+xml</dc:format>
    <dc:creator>
     <cc:Agent>
      <dc:title>Matplotlib v3.7.1, https://matplotlib.org/</dc:title>
     </cc:Agent>
    </dc:creator>
   </cc:Work>
  </rdf:RDF>
 </metadata>
 <defs>
  <style type="text/css">*{stroke-linejoin: round; stroke-linecap: butt}</style>
 </defs>
 <g id="figure_1">
  <g id="patch_1">
   <path d="m0 280.51h262.92v-280.51h-262.92v280.51z" fill="none"/>
  </g>
  <g id="axes_1">
   <g id="PatchCollection_1">
    <defs>
     <path id="m277dd97d0e" d="m133.64-243.21 0.17659-0.008018 0.13672 0.13545 0.25178 0.45452 0.22611 0.57262 0.36502 1.1805 0.5399 2.2962 0.57258 3.2758 1.4586 10.133 0.68812 4.0792 0.70491 3.6566 0.40064 1.6032 0.493 1.3988 0.3738 0.73918 0.40336 0.58623 0.76611 0.77448 1.2267 0.77274 1.0487 0.43589 0.96671 0.25651 0.71123 0.10877 0.90652 0.059005 0.9745-0.014819 1.1308-0.08687 7.8479-0.9207 3.9136-0.32152 4.7492-0.30517 1.5499-0.16132 0.74732-0.12537 1.7881-0.48439 1.7876-0.66044 2.5204-1.0018 1.4586-0.49932 1.5089-0.42401 1.544-0.33679 1.9936-0.27764 1.9979-0.06907 1.6197 0.12809 1.5848 0.28802 1.5304 0.43812 1.4213 0.56023 1.0797 0.51795 1.0206 0.56899 1.525 1.0736 0.65959 0.62091 1.2505 1.6079 1.0517 1.8674 0.92319 2.0401 2.5754 6.4817 0.93639 2.0091 0.73947 1.338 0.70452 1.0933 0.74034 0.98367 0.7092 0.80155 0.75269 0.72041 0.72675 0.59222 0.8717 0.61666 1.2027 0.73316 1.9883 1.0335 4.415 2.1114 0.99044 0.55565 0.85892 0.56244 1.1187 0.86683 1.3431 1.2021 1.3486 1.3345 0.88202 0.99209 0.96943 1.2727 0.6527 0.96777 3.2477 5.435 1.6857 2.5988 0.97898 1.3484 2.2569 2.9309 0.94556 1.3072 3.9926 5.797 4.18 6.4155 1.1679 1.9851 0.69502 1.3957 0.66823 1.6143 1.0085 2.8417 2.3023 7.3263 0.68828 2.6042 0.34468 1.7838 0.19327 1.3643 0.23206 2.8325 0.062466 1.8096 0.010366 2.2515-0.094209 2.8071-0.14958 2.1669-0.19428 2.07-0.36169 3.0907-0.94698 6.5116-0.054835 0.61966-0.01678 0.31125-0.13637 0.63259-0.4095 1.3368-0.64094 1.5575-0.515 1.0873-1.4457 2.8524-0.9687 1.7674-1.5064 2.4355-0.75726 1.0633-0.39069 0.48208-0.94388 1.0137-1.2443 1.1298-1.4729 1.1833-3.7664 2.8585-1.1355 0.95656-1.1595 1.0712-1.9024 1.826-3.0698 3.0489-3.6049 3.8037-1.6868 1.8607-1.3999 1.7034-1.0986 1.481-0.83211 1.2462-0.5472 1.0151-0.32143 0.87561-0.12507 0.59303-0.1831 2.0052-0.17496 0.86968-0.31272 0.73266-0.1637 0.21576-0.19385 0.096334-5.1434 4.2548-4.4369 3.4918-6.131 4.6571-2.9102 2.0897-1.3388 0.91496-2.4382 1.5612-1.3794 0.81764-2.8007 1.5454-6.2736 3.2791-2.8151 1.5318-7.7619 4.4281-3.0819 1.8379-2.5522 1.6436-2.6692 1.8024-2.2321 1.5712-3.0772 2.2502-3.213 2.4981-4.5107 3.7831-1.7484 1.3301-0.88203 0.57802-0.6594 0.3756-0.7967 0.3774-0.77729 0.27458-0.7236 0.15762-0.66635 0.045509-0.70238-0.077666-1.4058-0.62724-1.2932-1.1366-0.61957-0.72849-1.0339-1.4769-0.97407-1.6709-0.9261-1.8132-0.88617-1.9162-0.89115-2.0841-1.6945-4.3044-1.4498-3.9381-2.4176-6.7861-0.96537-3.0572-2.0124-7.0486-1.9079-6.3304-1.5973-4.8757-0.79581-2.2619-0.80478-2.1411-0.71985-1.7494-0.72975-1.5575-0.74419-1.2965-0.76467-0.94674-0.7931-0.48351-0.38304-0.031539-0.45003 0.1206-0.35297 0.19361-0.66563 0.54168-0.83854 0.91795-0.52047 0.67181-1.5434 2.2455-0.72475 0.91866-0.81208 0.84468-1.2585 1.0662-1.4085 0.97908-1.6663 0.96166-1.8283 0.8758-1.7531 0.69602-1.3648 0.4486-1.4982 0.38898-1.4585 0.25388-0.95043 0.090877-1.1611 0.032022-4.2777-0.12019-0.85748 0.052503-1.4887 0.22983-0.84879 0.21723-1.6563 0.62517-1.1596 0.62389-1.1924 0.84994-1.1936 1.1369-1.1061 1.4272-0.95115 1.6933-0.73958 1.8383-0.52809 1.7996-0.35413 1.5639-0.8495 4.8308-0.18536 0.86555-0.19871 0.66124-0.20538 0.21647-0.911-0.93008-1.961-1.7767-2.0842-1.7945-1.8224-1.4773-1.5157-1.1187-0.8174-0.55318-1.1428-0.71096-1.4298-0.78632-0.76997-0.37685-1.7401-0.73676-1.5259-0.53023-1.3759-0.39937-2.4067-0.5539-3.7673-0.73061-1.2867-0.33048-1.0035-0.33047-0.76998-0.30783-0.92186-0.4447-1.0088-0.60611-0.90307-0.7026-0.33412-0.325-0.46983-0.55311-0.37791-0.58187-0.32434-0.73517-0.18337-0.84457-0.038764-0.85985 0.060336-0.83348 0.48704-2.8054 0.12785-1.0826-0.012875-1.0013-0.0573-0.39968-0.15245-0.59359-0.346-0.846-0.78072-1.3293-3.0691-4.2558-0.85773-1.0272-1.2223-1.17-1.4531-1.1475-1.5533-0.99971-1.5454-0.84557-2.3229-1.1143-2.2178-0.98423-3.7707-1.5262-1.3234-0.5826-1.2935-0.72683-0.80259-0.60927-0.83138-0.8174-0.57167-0.70982-0.53847-0.83046-0.4361-0.84939-0.43427-1.1406-0.21628-0.77973-0.25591-1.3294-0.13384-1.4313 0.056697-1.5965 0.14723-1.1721 0.39107-2.102 0.72924-3.0752 0.32109-1.1032 0.64425-1.7995 0.6867-1.4923 0.33751-0.62262 0.59975-0.9786 0.55681-0.79472 0.54671-0.69413 0.68716-0.76833 0.76727-0.73901 0.86698-0.69657 0.86663-0.5579 0.78416-0.40249 0.82584-0.33847 1.0273-0.31541 0.84117-0.17385 0.75362-0.088839 0.68571-0.024311 1.2586 0.096321 0.76011 0.14066 3.2852 0.92398 1.1076 0.22578 1.2544 0.12762 0.83535 0.015422 1.1584-0.054771 1.3177-0.15857 1.8828-0.379 1.4672-0.40178 1.709-0.60205 1.7598-0.80369 0.84589-0.4622 1.627-1.043 1.166-0.84294 2.9727-2.2931 1.8606-1.5622 4.8633-4.7541 1.6191-1.4414 0.85288-0.7021 1.6573-1.2545 2.0285-1.3813 1.8737-1.186 2.4795-1.4183 2.0437-0.99275 2.7459-1.1104 3.2301-1.1009 5.1186-1.5833 2.2945-0.67499 2.5572-0.65357 6.0389-1.1793 1.5842-0.43382 0.79069-0.31329 0.4429-0.22896 0.59653-0.4106 0.33013-0.30692 0.40381-0.51332 0.3456-0.70367 0.24552-0.95316 0.087395-0.71925 0.036738-1.3767-0.094294-2.738 0.02086-1.8474 0.13857-1.7727 0.21111-1.586 0.3381-1.8662 0.30372-1.2726 0.55711-1.8334 0.99542-2.8504 0.22999-0.90909 0.15227-1.0558 0.00586-1.205-0.26499-1.5793-0.41559-1.2682-0.69495-1.5475-0.71143-1.2991-2.0447-3.4515-0.8662-1.6716-1.9618-3.9999-1.2912-2.2571-1.0137-1.6015-0.89807-1.3225-0.73266-0.97804-2.1247-2.6613-0.61396-0.85089-1.1788-1.7821-1.1087-1.8387-1.1676-2.1826-0.6109-1.3045-1.1845-2.9026-0.6918-1.5958-0.79099-1.6726-1.0547-2.0021-0.60883-1.0466-1.3559-2.2132-2.9707-4.561-3.1482-4.6131-5.5598-7.9234 19.459-14.032 15.887-11.601 2.8555-2.0457 2.8403-1.9253 1.4069-0.87205 1.3907-0.77125 1.3656-0.62479 1.3277-0.41544 1.2719-0.12059 1.091 0.22375 0.87022 0.44609 0.76609 0.65758 0.60796 0.79631 0.5221 0.93494 0.46845 1.0396 1.0524 2.5742 0.68478 1.4563 0.81625 1.4388 1.0177 1.463 1.0907 1.3191 1.1862 1.2549 1.3895 1.3065 1.1903 1.0101 1.6652 1.2668 0.72076 0.48123 0.52061 0.29394 0.22658 0.037869" stroke="#bdc660"/>
    </defs>
    <g clip-path="url(#p75178c1577)">
     <use y="280.512" fill="#bdc660" stroke="#bdc660" xlink:href="#m277dd97d0e"/>
    </g>
   </g>
  </g>
 </g>
 <defs>
  <clipPath id="p75178c1577">
   <rect x="7.2" y="7.2" width="248.52" height="266.11"/>
  </clipPath>
 </defs>
</svg>
