<?xml version="1.0" encoding="UTF-8"?>
<!DOCTYPE svg  PUBLIC '-//W3C//DTD SVG 1.1//EN'  'http://www.w3.org/Graphics/SVG/1.1/DTD/svg11.dtd'>
<svg width="275.35pt" height="280.51pt" version="1.1" viewBox="0 0 275.35 280.51" xmlns="http://www.w3.org/2000/svg" xmlns:xlink="http://www.w3.org/1999/xlink">
 <metadata>
  <rdf:RDF xmlns:cc="http://creativecommons.org/ns#" xmlns:dc="http://purl.org/dc/elements/1.1/" xmlns:rdf="http://www.w3.org/1999/02/22-rdf-syntax-ns#">
   <cc:Work>
    <dc:type rdf:resource="http://purl.org/dc/dcmitype/StillImage"/>
    <dc:date>2024-07-04T12:08:24.726832</dc:date>
    <dc:format>image/svg+xml</dc:format>
    <dc:creator>
     <cc:Agent>
      <dc:title>Matplotlib v3.7.1, https://matplotlib.org/</dc:title>
     </cc:Agent>
    </dc:creator>
   </cc:Work>
  </rdf:RDF>
 </metadata>
 <defs>
  <style type="text/css">*{stroke-linejoin: round; stroke-linecap: butt}</style>
 </defs>
 <g id="figure_1">
  <g id="patch_1">
   <path d="m0 280.51h275.35v-280.51h-275.35v280.51z" fill="none"/>
  </g>
  <g id="axes_1">
   <g id="PatchCollection_1">
    <defs>
     <path id="med0416ec5d" d="m246.22-140.57-0.092167 0.28087 0.012598 0.93768 0.14796 1.1147 0.25764 1.1349 0.54905 1.6024 1.6014 4.0659 0.91041 2.4544 0.9709 2.8053 2.589 7.8407 1.1706 3.8389 0.44721 1.6805 0.66202 2.8494 0.39711 2.0393 0.26948 1.9933 0.1023 1.4687 0.078456 2.7169-0.036107 3.4134-0.43622 4.8674-0.29226 2.1611-0.47094 2.0931-0.66321 1.9892-0.9042 2.0171-0.77023 1.379-0.68485 1.0838-0.89016 1.2911-1.4314 1.8296-1.3776 1.5716-6.3922 6.9155-4.0977 4.7361-2.4237 2.7332-1.9719 2.1038-6.712 6.9361-5.0157 5.4384-1.6943 1.6412-2.2854 2.0432-1.4196 1.199-1.4687 1.0944-2.1763 1.4021-2.4341 1.3508-0.93086 0.43892-1.2747 0.52082-0.61744 0.2139-0.54469 0.11744-2.5501 0.81216-3.2505 0.82644-1.2468 0.24434-1.6257 0.22862-1.7748 0.1884-2.1373 0.12944-1.1161 0.026229-2.3437-0.083707-1.2978-0.14891-1.4035-0.29957-1.3555-0.42276-0.59772-0.22702-1.745-0.86089-0.74789-0.47325-1.4138-1.0236-1.3513-1.1148-1.5507-1.4803-2.0419-2.0973-3.8161-4.3009-0.62753-0.66179-0.63103-0.58718-0.33289-0.25567-0.92658-0.50362-0.65493-0.23277-0.69343-0.14301-1.4416 0.013566-2.0675 0.3538-1.909 0.44475-1.6274 0.43496-1.4964 0.53802-2.6409 1.1449-1.8039 0.84786-5.2127 2.7486-4.2808 2.1465-2.5597 1.1104-2.4572 0.86425-2.1125 0.599-1.3609 0.31509-9.2266 1.8577-3.0444 0.6698-6.0114 1.4146-9.9519 2.4577-2.5142 0.65233-2.5189 0.74716-1.7144 0.58788-1.7137 0.64398-7.383 2.9933-2.8435 1.0924-5.2902 1.9518-4.1799 1.6469-3.0201 1.2918-2.7946 1.2721-1.9012 0.95818-0.55754 0.33884-0.18813 0.1932-0.33464-0.50306-0.60291-1.3376-0.73492-1.8816-0.76119-2.2331-0.73348-2.515-0.67613-2.6472-2.4899-10.822-1.3625-5.113-1.4608-4.9685-1.498-4.8599-2.8155-8.9554-3.2192-10.005-1.0504-3.4101-1.0956-3.7088-3.4057-11.971-3.5246-12.798-0.90587-3.4572-0.41252-1.3377-0.7836-1.7556-1.045-1.6507-1.2941-1.4974-1.5467-1.281-1.791-1.0073-1.9896-0.77996-2.1266-0.60635-5.1524-1.0871-1.1865-0.28487-1.3845-0.4032-1.4472-0.54963-1.6477-0.8501-1.5386-0.98399-1.4394-1.0254-2.2904-1.7581-0.73717-0.68148-0.27298-0.47916 0.14754 0.049356 0.8329-0.077889 2.0869-0.43168 1.6534-0.47486 2.2879-0.80834 1.77-0.75015 1.4092-0.6866 1.8678-1.0492 1.9546-1.2961 0.84591-0.63508 1.3636-1.1503 1.2001-1.2081 0.84076-1.0407 0.7109-1.1267 0.49877-1.0204 0.41896-1.0616 0.49849-1.547 1.2185-4.3506 0.31569-1.3231 0.13934-1.3472-0.17906-1.7728-0.50426-1.8636-0.73701-1.9283-0.89618-1.9721-4.0985-8.0065-0.9232-1.9584-0.78521-1.908-0.58539-1.8355-0.31006-1.7352 0.058643-1.6001 0.48374-1.43 0.77588-1.3061 1.7576-2.413 0.65246-1.1814 0.26573-1.2112-0.28917-1.3371-0.77205-1.3949-1.1126-1.4409-1.3334-1.4779-2.9147-3.043-1.3817-1.5583-1.1861-1.5811-0.85846-1.6044-0.28122-0.9233-0.085668-1.267 0.24046-1.2473 0.58155-1.3025 0.99182-1.5866 0.85716-1.1821 0.59443-0.73277 1.235-1.3668 1.2147-1.22 1.3129-1.2318 2.2224-1.9468 1.215-1.0071 3.1959-2.468 2.2904-1.5893 2.208-1.4145 3.8698-2.2667 0.38799-0.34619 1.1152-0.53156 1.5882-0.6054 1.8121-0.57331 6.0963-1.6929 2.0319-0.64117 2.4956-0.92712 2.4778-1.0716 0.93869-0.47724 1.9057-1.1441 6.3181-4.2934 3.5819-2.5787 1.6083-1.0373 1.1774-0.60915 1.7476-0.71841 1.8005-0.66926 2.3331-0.73283 2.3572-0.80712 1.566-0.59595 1.6714-0.76272 1.0811-0.55608 2.4766-1.393 6.4079-3.8421 1.3872-0.78701 2.3142-1.1846 1.1227-0.48834 1.3225-0.47806 1.5147-0.37584 1.3791-0.13492 2.3097 0.00212 1.4548-0.041816 0.82696-0.088019 0.85587-0.17523 1.5826-0.56581 2.4844-1.1915 1.6512-0.8471 1.8098-1.0902 1.0291-0.76554 0.7288-0.63413 0.78626-0.77144 1.2947-1.4478 3.694-4.6972 0.60103-0.69682 0.055603 0.44011 0.31743 0.60365 0.77839 1.1825 1.0506 1.4061 3.2791 4.171 1.2253 1.6178 0.99757 1.4482 0.76804 1.2285 1.3044 2.3663 0.4482 0.91691 0.68132 1.5163 0.86198 2.1835 0.48119 1.4154 0.41912 1.423 0.35534 1.4417 0.32567 1.6752 0.3441 2.3807 0.62936 5.143 0.41834 2.588 0.62976 2.8688 0.83394 2.934 0.67902 2.0073 0.83739 2.112 1.0522 2.2152 1.9491 3.7739 0.92451 2.0154 0.65428 1.5646 1.1314 3.0483 0.47702 1.4713 0.55824 1.9832 0.2237 0.95691 0.25871 1.3913 0.20265 1.4003 0.57039 4.3591 1.0349 7.211 0.5234 4.9253 0.57394 3.8006 0.49056 2.4354 0.41895 1.5982 0.5609 1.7303 0.82644 2.1631 0.88147 1.9225 0.95357 1.7107 0.74466 1.1699 1.1098 1.5547 1.2361 1.5414 1.0396 1.1909 4.1941 4.541 1.4601 1.6815 1.5135 1.9103 3.6357 5.0067 1.4812 1.8503 0.62456 0.69013 0.83275 0.81314 1.0092 0.7877 1.2618 0.62974 0.46176 0.12663 0.63486 0.095054 0.77427 0.010352 0.61194-0.062944 0.49188-0.090828 0.87328-0.23623 0.95907-0.34973 0.7813-0.34072 1.989-1.0218 3.537-2.0188 1.6505-0.86153 0.79934-0.357 1.9775-0.67009 2.0931-0.45374 2.1811-0.26598 1.3708-0.077627 1.5162-0.011915 1.8279 0.082782 0.96843 0.084647 2.0588 0.2626 2.0783 0.36018 2.4346 0.51789 4.4274 1.121 11.822 3.3416 3.8778 0.97771 1.7452 0.37689 1.6518 0.29694 1.8641 0.22556 1.5687 0.030917 1.0612-0.13046 0.7003-0.19263 0.25969-0.23766" stroke="#bdc660"/>
    </defs>
    <g clip-path="url(#p3e6247252a)">
     <use y="280.512" fill="#bdc660" stroke="#bdc660" xlink:href="#med0416ec5d"/>
    </g>
   </g>
  </g>
 </g>
 <defs>
  <clipPath id="p3e6247252a">
   <rect x="7.2" y="7.2" width="260.95" height="266.11"/>
  </clipPath>
 </defs>
</svg>
