<?xml version="1.0" encoding="UTF-8"?>
<!DOCTYPE svg  PUBLIC '-//W3C//DTD SVG 1.1//EN'  'http://www.w3.org/Graphics/SVG/1.1/DTD/svg11.dtd'>
<svg width="287.68pt" height="280.51pt" version="1.1" viewBox="0 0 287.68 280.51" xmlns="http://www.w3.org/2000/svg" xmlns:xlink="http://www.w3.org/1999/xlink">
 <metadata>
  <rdf:RDF xmlns:cc="http://creativecommons.org/ns#" xmlns:dc="http://purl.org/dc/elements/1.1/" xmlns:rdf="http://www.w3.org/1999/02/22-rdf-syntax-ns#">
   <cc:Work>
    <dc:type rdf:resource="http://purl.org/dc/dcmitype/StillImage"/>
    <dc:date>2024-07-04T12:08:16.917359</dc:date>
    <dc:format>image/svg+xml</dc:format>
    <dc:creator>
     <cc:Agent>
      <dc:title>Matplotlib v3.7.1, https://matplotlib.org/</dc:title>
     </cc:Agent>
    </dc:creator>
   </cc:Work>
  </rdf:RDF>
 </metadata>
 <defs>
  <style type="text/css">*{stroke-linejoin: round; stroke-linecap: butt}</style>
 </defs>
 <g id="figure_1">
  <g id="patch_1">
   <path d="m0 280.51h287.68v-280.51h-287.68v280.51z" fill="none"/>
  </g>
  <g id="axes_1">
   <g id="PatchCollection_1">
    <defs>
     <path id="mb622f08723" d="m267.9-86.754-0.20035 0.071322-0.31233 0.33454-0.61384 0.89504-0.54191 0.94753-1.9114 3.7355-0.79648 1.4537-1.1146 1.8514-1.7913 2.6396-3.1836 4.3651-2.348 3.4986-6.8582 11.297-2.6547 4.0998-1.6465 2.3393-1.625 2.1455-1.1577 1.4282-1.192 1.3797-2.1459 2.2296-0.94238 0.86246-1.0217 0.84818-1.3944 1.0115-1.5756 0.94849-1.1338 0.57842-1.5295 0.67202-2.1895 0.79823-3.001 0.90696-2.7862 0.72006-3.0198 0.63772-2.6283 0.42491-1.3304 0.13086-1.3876 0.042419-1.3738-0.088906-0.97483-0.16198-1.1745-0.30314-1.1544-0.40296-1.6719-0.74168-3.1835-1.6684-2.5883-1.4508-5.5229-3.5025-0.96768-0.50538-1.4311-0.55983-1.4721-0.27351-1.685 0.1021-1.7265 0.47024-1.7317 0.7551-1.6889 0.95766-1.6133 1.0949-1.4026 1.0982-0.93425 0.8293-0.49207 0.49701-0.18852 0.26118-1.1374-0.95038-1.7209-1.2611-0.98633-0.61896-1.0947-0.57716-1.1621-0.47034-0.73412-0.21694-0.91621-0.19405-1.588-0.16375-1.5954 0.032428-0.8796 0.099151-1.3321 0.27031-1.6967 0.59195-1.0546 0.55384-0.89296 0.62445-2.5299 2.0915-1.4037 0.89214-1.4192 0.70174-3.9347 1.5684-4.9745 2.1416-4.2035 1.5804-1.6463 0.51909-1.5033 0.40152-3.4191 0.72239-6.1062 1.0109-1.7496 0.22628-3.3983 0.28387-2.2498 0.40927-3.5925 1.0198-1.0951 0.37897-1.2025 0.55319-1.912 1.0803-0.98581 0.50441-0.78271 0.32633-0.62288 0.19572-0.74968 0.13086-1.242-0.071896-1.2254-0.35804-1.1643-0.55138-1.0565-0.66079-1.4122-1.0361-0.56165-0.34697-0.91714-0.35521-0.83944-0.10992-1.4254 0.067156-3.9525 0.53478-1.8217 0.14578-4.922-0.12412-1.536 0.027016-1.5329 0.092067-2.0886 0.23623-5.2269 0.7742-2.67 0.26155-2.347 0.14072-3.8893 0.10792-9.421 0.054386-2.7243 0.13451-2.5587 0.31603-2.6981 0.55056-3.2522 0.86483-6.3467 1.8909-1.5529 0.38678-1.1161 0.20752-0.54152 0.068818-1.6817 0.05218-1.4458-0.31979-0.66164-0.38268-0.35349-0.30046-0.54644-0.61647-0.61793-0.92914-0.65947-1.2227-1.1792-2.5106-0.81251-2.0632-0.62096-2.1354-0.61565-3.5733-0.56585-2.5394-2.1852-7.9608-1.0802-4.8956-0.24537-0.90648-0.74688-2.1394-0.31295-0.74475-1.9501-4.2661-0.56258-1.5348-0.42452-1.4104-0.73518-3.1418-0.60878-3.6444-0.44395-4.1317-0.52291-6.1097-0.23073-1.7799-0.31093-1.6822-0.1567-0.67176-0.85751-2.7889-0.97664-2.5233-1.373-3.3433-0.60839-1.7116-0.37361-1.3008-0.24148-1.0849-0.15068-0.93875-0.093291-1.229 0.043295-1.4096 0.15492-1.319 0.19774-1.1051 0.45277-1.7877 0.45668-1.3826 0.51753-1.3438 1.9296-4.4688 0.99057-2.4906 0.74699-2.1852 0.69898-2.5237 0.43293-2.0867 0.3506-2.3079 0.58284-5.0348 0.63912-6.4621 0.22577-1.5633 0.30183-1.5938 0.57707-2.3197 2.2462-8.0655 0.8541-3.3361 0.81074-3.6178 1.0065-5.108 0.60971-2.6393 0.71236-2.3895 0.52983-1.3508 0.5237-1.1436 0.3587-0.037146 1.0425-0.24736 1.6976-0.51554 1.8346-0.70742 1.4712-0.67477 2.4612-1.3014 2.4998-1.4976 2.038-1.3641 1.8885-1.389 3.0877-2.4914 1.4322-1.3428 0.85083-0.9334 2.5039-3.0703 1.1102-1.2698 1.5482-1.5763 3.4587-3.1211 0.8101-0.83267 0.78742-0.97156 0.47843-0.76281 0.4721-1.0704 0.33335-1.1245 0.84997-4.0428 0.47798-1.3512 0.65256-1.17 0.6587-0.92536 1.6077-2.0319 0.7805-1.1247 0.59183-1.1626 0.16428-0.46842 0.30363-1.3183 0.41384-2.9776 0.32027-1.662 0.534-2.06 1.3682-4.7045 0.69553-3.467 0.78078-3.4054 0.22378-1.4601 0.073235-1.0416-0.036118-1.1212-0.14985-1.047-0.43473-2.3423-0.094007-1.0285 0.0058-0.75592 0.15664-1.1961 0.23142-0.88649 0.25895-0.74364 0.57587-1.3283 0.39432-0.73812 0.44527-0.67906 0.35842-0.43673 0.50551-0.4678 0.56039-0.26682 0.10319 0.007595 0.24324-0.3156 1.8184-3.0096 0.69811-1.0634 1.0078-1.3819 0.87673-1.0717 1.3396-1.4392 1.8313-1.6669 1.8105-1.4045 1.4949-1.0333 1.5433-0.97822 1.6348-0.95827 1.6658-0.90318 1.7019-0.85211 3.4545-1.5473 1.7452-0.69658 3.1351-1.0994 1.6608-0.49911 3.6519-0.91562 1.9893-0.40435 1.9435-0.33484 3.8811-0.51208 2.8973-0.26944 2.885-0.1861 2.8642-0.10321 4.3203 0.014696 2.114 0.089745 2.7801 0.22143 2.6651 0.36047 1.7349 0.34777 1.6402 0.45354 1.3277 0.49893 1.2209 0.61615 1.0836 0.74712 1.4014 1.4496 1.1058 1.7298 0.85448 1.9208 0.62878 2.037 0.41168 2.0889 0.38996 3.8769 0.14827 2.1907 0.063527 2.1852-0.050022 1.8528-0.18739 1.7894-0.17778 0.9457-0.3488 1.2752-1.1404 3.1956-0.40447 1.3213-0.22617 1.0692-0.12029 1.1826-0.005971 1.2167 0.11532 1.5077 0.21121 1.5385 0.69172 3.9207 0.30087 1.99 0.46202 4.1579 0.61028 3.9158 0.46477 2.1663 0.69566 2.6951 0.8358 2.824 1.1033 3.2278 0.32615 1.116 0.24791 1.074 0.21546 1.5814 0.15408 2.5372 0.22179 1.5676 0.12938 0.53942 0.62082 1.8357 0.90301 1.9121 1.9336 3.4664 2.6277 4.2996 0.92153 1.6038 0.97576 1.9318 0.54174 1.224 0.65934 1.6474 0.75519 2.0904 2.9707 9.3334 0.84139 2.4753 0.85734 2.3185 1.0044 2.3662 0.68664 1.437 1.6799 3.148 2.475 4.4277 1.0028 1.9785 0.58656 1.2696 0.52464 1.2307 0.86131 2.3489 0.38957 1.3645 0.22849 1.1247 0.096669 0.86916 0.009508 0.74082-0.13438 1.0393-0.26672 0.87368-0.73008 1.3521-0.69063 0.86429-0.93061 0.89511-0.41658 0.33775-1.5738 1.057-1.858 1.0191-1.5848 0.96031-0.95272 0.73914-0.92129 0.8491-0.84963 0.8946-1.1375 1.3523-1.3803 1.8604-1.3739 2.1391-1.0469 2.0028-0.61715 1.6186-0.21722 0.87305-0.12808 0.95985 0.006029 1.0903 0.2316 1.4796 0.3145 1.1199 0.29484 0.8187 0.69345 1.5155 0.90185 1.4856 0.91354 1.1588 0.53387 0.54322 0.4071 0.34822 0.6917 0.45393 0.37223 0.17121 0.50988 0.15272 0.44335 0.062099 0.80825-0.023451 0.85354-0.17434 1.1344-0.4126 1.2416-0.59987 3.1347-1.6842 1.9003-0.88842 1.5791-0.55502 1.1031-0.25625 0.6819-0.094721 0.89249-0.039961 2.0712 0.28372 2.0782 0.68693 2.0782 0.9387 4.1325 2.0893 2.042 0.88359 2.0161 0.58301 1.9807 0.11188 1.6065-0.36946 1.5763-0.73852 1.5466-1.0327 1.5158-1.2671 1.4548-1.4251 1.4203-1.5691 1.3817-1.6852 1.6693-2.2329 1.6202-2.3253 4.7212-7.0704 1.5707-2.2379 1.5901-2.0894 1.6239-1.8692 1.6745-1.5573 1.7459-1.1274 0.82645-0.33384 1.2501-0.27902 1.5825-0.080645 1.768 0.097942 1.7647 0.18982 1.4871 0.29761 1.4354 0.36032 1.3739 0.37421 1.9025 0.63962 1.9352 0.77545 3.8128 1.772 1.5479 0.83091 1.9069 1.2536 1.2072 1.0604 0.70928 0.75536 0.73067 0.89107 0.76717 1.061 1.133 1.7854 0.95717 1.6822 1.9622 3.6611 1.7475 3.0669 1.0784 1.7308 1.3862 2.0396 1.1573 1.8167 1.1131 1.8507 1.0659 1.9567 0.42776 0.88992 0.3784 0.86962 0.62358 1.6817 0.69992 2.5363 0.4247 2.4293 0.14097 1.412 0.099925 2.2283-0.079616 1.1611-0.073199 0.17824" stroke="#bdc660"/>
    </defs>
    <g clip-path="url(#p051a9fac98)">
     <use y="280.512" fill="#bdc660" stroke="#bdc660" xlink:href="#mb622f08723"/>
    </g>
   </g>
  </g>
 </g>
 <defs>
  <clipPath id="p051a9fac98">
   <rect x="7.2" y="7.2" width="273.28" height="266.11"/>
  </clipPath>
 </defs>
</svg>
