<?xml version="1.0" encoding="UTF-8"?>
<!DOCTYPE svg  PUBLIC '-//W3C//DTD SVG 1.1//EN'  'http://www.w3.org/Graphics/SVG/1.1/DTD/svg11.dtd'>
<svg width="232.76pt" height="280.51pt" version="1.1" viewBox="0 0 232.76 280.51" xmlns="http://www.w3.org/2000/svg" xmlns:xlink="http://www.w3.org/1999/xlink">
 <metadata>
  <rdf:RDF xmlns:cc="http://creativecommons.org/ns#" xmlns:dc="http://purl.org/dc/elements/1.1/" xmlns:rdf="http://www.w3.org/1999/02/22-rdf-syntax-ns#">
   <cc:Work>
    <dc:type rdf:resource="http://purl.org/dc/dcmitype/StillImage"/>
    <dc:date>2024-07-04T12:08:10.842619</dc:date>
    <dc:format>image/svg+xml</dc:format>
    <dc:creator>
     <cc:Agent>
      <dc:title>Matplotlib v3.7.1, https://matplotlib.org/</dc:title>
     </cc:Agent>
    </dc:creator>
   </cc:Work>
  </rdf:RDF>
 </metadata>
 <defs>
  <style type="text/css">*{stroke-linejoin: round; stroke-linecap: butt}</style>
 </defs>
 <g id="figure_1">
  <g id="patch_1">
   <path d="m0 280.51h232.76v-280.51h-232.76v280.51z" fill="none"/>
  </g>
  <g id="axes_1">
   <g id="PatchCollection_1">
    <defs>
     <path id="m87339ba376" d="m182.52-257.56 0.31266 0.23989 0.52974 0.52506 0.62876 0.71183 0.46908 0.59774 0.43928 0.63452 0.39158 0.67106 0.30329 0.67339 0.14273 0.45282 0.066656 0.33023 0.023229 0.56192-0.059221 0.39033-0.17715 0.53188-0.36504 0.66697-0.62565 0.80724-0.59175 0.61305-0.86162 0.76319-0.82168 0.64418-3.7922 2.6553-0.53959 0.43072-0.59938 0.55242-0.63959 0.74446-0.44353 0.69578-0.35038 0.77797-0.24951 0.8897-0.1155 0.85577-0.016981 0.73854 0.032032 0.56153 0.13804 0.9819 0.15275 0.68382 0.33412 1.0904 0.61142 1.4705 0.32192 0.64169 0.63573 1.1149 0.7732 1.1776 1.1138 1.4722 1.0197 1.1675 0.67066 0.69184 1.4053 1.2995 1.9839 1.6032 2.6324 2.0338 0.90241 0.75962 1.0753 0.99157 0.79855 0.83613 0.44667 0.52757 0.42976 0.56798 0.63649 1.0037 0.5982 1.2562 0.31797 0.91952 0.26959 1.0868 0.1965 1.1547 0.11178 0.8839 0.15321 1.7109 0.045454 1.0758-0.014689 1.1779-0.11029 1.0723-0.21056 0.95494-0.18136 0.56656-0.4168 0.99171-0.52046 0.95798-0.39286 0.6236-1.5257 2.2317-0.39878 0.69338-0.32576 0.70731-0.19651 0.56359-0.16287 0.67989-0.073324 0.55098-0.021376 0.67423 0.023922 0.43083 0.1363 0.87554 0.29009 0.98106 0.43712 0.97686 0.4444 0.75554 0.4311 0.60651 0.71797 0.82401 0.70628 0.62538 0.5091 0.32727 0.30219 0.10438 0.10176-0.01547-0.018124 0.14555 0.081152 0.72819 0.13627 0.65901 0.16297 0.55368 0.25541 0.7202 0.75229 1.8689 1.2231 2.7788 0.21766 0.57331 0.30228 0.95862 0.25614 1.0199 0.62618 3.1272 0.34971 1.5856 0.43738 1.5689 0.51703 1.544 0.57817 1.5109 0.62488 1.4695 0.66075 1.4191 1.2794 2.4663 0.63357 1.2809 0.60488 1.3354 1.1169 2.6858 2.1188 5.4423 1.1411 2.8378 0.74001 1.7059 1.1985 2.5986 2.0204 4.1449 0.81274 2.0006 0.76689 2.2628 0.59464 2.1514 1.4761 6.4679 0.41891 2.1765 0.21446 1.4438 0.25431 2.478 0.088324 1.4222 0.05292 1.5791-0.020641 2.685-0.12261 1.8412-0.09935 0.82841-0.14181 0.84126-0.18054 0.77783-0.30447 0.9322-0.45364 0.94686-0.72199 1.0404-0.88166 0.95645-0.8589 0.76604-0.93506 0.72123-1.1054 0.75057-1.1652 0.71072-1.2112 0.67867-1.2449 0.65084-1.8437 0.89304-1.6431 0.73818-4.622 1.9313-5.4402 2.0614-3.3371 1.3509-4.2912 1.8441-3.2314 1.507-1.5075 0.78961-0.92153 0.53824-0.85848 0.5622-0.71568 0.53829-0.6374 0.56565-0.58732 0.65229-0.1532 0.20712-0.47444 0.87295-0.24127 1.0129-0.014535 1.0621 0.13121 1.0071 0.22107 1.0046 0.49226 1.7501 0.40788 1.2561 0.30301 0.67948 0.35248 0.67819 0.56459 0.98275 0.64801 0.93148 0.77453 0.81818 0.90608 0.64866 3.0833 1.6466 0.94872 0.68645 0.83261 0.868 0.7271 1.0093 0.65629 1.0999 1.6886 3.1737 0.43452 0.89053 0.43125 1.1131 0.33716 1.1553 0.25054 1.1724 0.16747 1.1658 0.17 1.7982 0.12292 0.8528 0.32472 1.5956 0.39495 1.5182 0.41952 1.4098 1.3862 4.3333 0.43196 1.4635 0.2997 1.1447 0.3226 1.5042 0.73928 4.2444 0.52035 3.5139 0.035306 0.37225 0.027815 1.4094-0.17877 1.1938-0.3586 1.1897-0.51229 1.1703-0.64869 1.1333-0.77605 1.0758-0.89014 0.9944-0.98133 0.92027-1.0446 0.84849-1.0842 0.77433-1.3923 0.861-1.3474 0.68658-0.61278 0.23427-1.0203 0.29419-1.0867 0.2212-3.3122 0.48702-1.6505 0.28138-1.1279 0.22653-1.111 0.26343-1.0198 0.2908-0.9787 0.3398-1.3616 0.62457-0.68962 0.42592-0.61777 0.48878-0.90154 1.0084-0.76481 1.141-0.74383 1.1887-0.82943 1.1482-0.93429 0.99178-1.0086 0.85096-0.97899 0.67312-0.81589 0.43247-0.49149 0.084199 0.012332-0.29501-0.23021-0.39582-0.39567-0.42059-0.37929-0.30271-0.46254-0.29524-0.69842-0.35514-0.79146-0.32126-1.1114-0.35904-1.7846-0.43089-1.8029-0.31443-1.0376-0.14128-1.0482-0.1183-1.8282-0.15434-2.0456-0.10161-1.6916-0.024103-3.7323 0.080746-1.785 0.00902-2.613-0.056712-2.6895-0.10892-1.5315-0.092062-3.0684-0.25257-6.5778-0.68551-2.5216-0.21747-2.9149-0.15247-5.1252-0.089881-1.6086-0.11726-1.054-0.13107-1.4805-0.27159-0.68032-0.1656-1.3431-0.41988-1.3659-0.57011-1.3329-0.66587-2.7614-1.5041-1.1611-0.59338-1.3017-0.58656-1.1236-0.43401-1.2372-0.41249-1.4456-0.39026-0.96364-0.19616-1.5362-0.19434-1.2701-0.048469-0.8278 0.021659-1.0044 0.083762-0.92599 0.13413-1.046 0.21397-1.0931 0.29015-1.1078 0.36079-1.2766 0.49624-1.3929 0.63828-1.2264 0.63932-1.3225 0.77651-1.2627 0.79905-1.0499 0.56828-1.0444 0.44149-0.62297 0.1924-0.44577 0.089136-0.41192 0.036294-0.63426-0.049036-0.40448-0.12015-0.22589-0.1079-0.23365-0.14956-0.40043-0.3596-0.72945-1.0346-0.39431-0.74766-0.83618-1.8573-0.54215-1.318-2.4143-6.1862-0.45508-1.0836-0.246-0.35814-0.08099-0.072276-0.050017-0.10057-0.0071-0.10842 0.11199-0.28796 0.11171-0.14893 0.25652-0.24863 0.3909-0.28955 0.65521-0.40754 0.78724-0.44 6.2488-3.1664 2.3289-1.2611 1.3359-0.80334 1.2789-0.86003 1.2038-0.93358 0.87506-0.78744 0.82284-0.83598 0.68549-0.7717 0.65068-0.80003 0.71632-0.96261 0.67527-0.99163 0.77731-1.2538 0.71961-1.2879 0.97841-1.9951 0.68266-1.5637 0.93247-2.3395 1.0332-2.8687 0.78385-2.3768 0.78445-2.603 0.38218-1.4034 0.33981-1.3909 0.39623-2.0053 0.19807-1.6732 0.04636-1.6461-0.12423-1.5915-0.32974-1.504-0.58835-1.3756-0.67348-0.96335-0.83383-0.87592-1.1438-0.945-1.3661-0.92392-1.276-0.74575-2.124-1.0757-2.2195-0.97512-2.2948-0.9191-1.0996-0.40338-1.5348-0.51175-1.207-0.35893-1.6089-0.42408-1.002-0.22892-1.3547-0.25394-1.2289-0.16-1.4248-0.071613-1.5623 0.089931-1.5024 0.20854-2.7505 0.45959-1.1937 0.095939-1.0218-0.10523-0.77404-0.3285-1.3498-0.97533-0.7563-0.43467-0.93548-0.29812-2.2834-0.43468-1.5675-0.38904-1.0387-0.38137-1.1216-0.63532-1.0515-0.82456-0.96863-0.9677-0.86737-1.0751-0.741-1.1555-0.71967-1.458-0.37532-0.95882-0.30278-0.9844-0.44393-1.6357-0.40298-1.2769-0.47532-1.3038-0.80103-1.9355-1.1059-2.3609-1.2149-2.3139-1.4033-2.3921-0.77923-1.229-0.87391-1.3011-0.81894-1.15-1.2131-1.5827-1.0554-1.2596-0.86519-0.96486-1.4034-1.4775-2.5733-2.5768-4.3462-4.2489-2.2109-2.2797-1.7374-1.9453-1.3445-1.6518-0.50657-0.55667-0.26684-0.25148-0.7498-0.56496-0.47672-0.28869-0.77227-0.36888-1.1811-0.43562-2.1516-0.69429-0.96874-0.43706-0.30817-0.19038-0.30487-0.23216-0.42304-0.42544-0.36629-0.49775-0.4639-0.90516-0.25723-0.78509-0.1907-1.2568 0.009235-0.80728 0.090927-0.78659 0.16619-0.84629 0.22778-0.86548 0.35836-1.1094 0.4195-1.1298 0.56375-1.385 0.68982-1.5703 0.72431-1.5529 1.3174-2.6474 1.8669-3.4836 3.1941-5.7431 3.0635-5.3816 1.8304-3.3745 9.3235-17.719 1.9464-3.7868 2.3424-4.6849 1.6996-3.6612 1.0103-2.3957 0.73834-1.9287 0.64104-1.9244 0.27593-0.98707 0.35084-1.6689 0.15404-1.6012-0.02574-1.0194-0.27033-1.6006-0.5069-1.5989-0.69012-1.6034-0.83198-1.6128-0.94188-1.6256-1.0267-1.6399-1.091-1.6527-2.2999-3.3141-4.9016-6.7672-0.19369-0.3612 0.008723-0.073999 0.42909-0.50649 0.85855-0.78845 1.2928-1.0269 1.6694-1.1577 1.6314-0.99762 2.4194-1.3064 2.7062-1.3035 1.7041-0.75756 1.6995-0.7088 1.501-0.5849 2.0246-0.72121 2.1399-0.68535 5.0727-1.4923 2.6099-0.83069 1.1842-0.42442 1.662-0.66547 3.7884-1.6881 0.93466-0.37179 0.90897-0.29955 1.1768-0.24446 1.1277-7.94e-4 0.45877 0.089032 0.37216 0.10984 0.55652 0.21667 0.51556 0.24382 1.1375 0.62629 1.5891 0.93049 1.0529 0.54741 0.59118 0.26787 0.6693 0.27005 1.3202 0.44441 0.81897 0.22788 1.762 0.38204 1.3058 0.1944 1.3841 0.14175 1.8116 0.12085 1.7953 0.050536 1.9415-0.03528 4.4906-0.1902 1.3712-0.088984 1.2978-0.14354 1.487-0.21993 2.5504-0.41197 1.5462-0.29613 2.2247-0.48703 2.5936-0.52366 1.2864-0.30163 1.3812-0.40313 1.0348-0.35466 0.77488-0.30184 0.95324-0.42604 1.2613-0.67182 1.5305-0.93349 4.391-2.7677 1.5359-0.89765 0.42272-0.20723 0.84159-0.31188 0.43153-0.093121 0.33499-0.03457 0.57908 0.028708 0.50585 0.13675 0.46034 0.25347 0.3481 0.33388 0.2015 0.30027 0.13246 0.28166 0.13769 0.46804 0.23528 1.7878 0.23563 0.74649 0.19832 0.4117 0.38398 0.58707 1.538 1.7853 0.44714 0.66522 0.91197 1.527 0.5939 0.90534 0.55136 0.69916 0.64588 0.66444 0.90601 0.73134 0.81855 0.51067 0.51323 0.25929 1.0686 0.4202 1.1123 0.32705 1.4322 0.32959 1.135 0.16189 0.79825 0.024778 0.53666-0.03361 0.8717-0.13071 1.3223-0.34101 1.0635-0.37291 1.231-0.52566 1.6707-0.87329 0.86802-0.5312 1.7576-1.1768 1.0233-0.64497 1.72-0.9669 1.4368-0.69558 1.6122-0.69612 1.3437-0.48563 1.2618-0.36816 1.6673-0.35278 0.97421-0.1348 0.77336-0.072271 0.69133-0.040513 1.4124-0.020161 3.8 0.10287 1.6867-0.098533 1.7079-0.22333 1.6978-0.3176 1.6422-0.38062 1.5202-0.4088 1.3009-0.39451 0.93972-0.32506 0.37283-0.18674" stroke="#bdc660"/>
    </defs>
    <g clip-path="url(#p0d86e7221a)">
     <use y="280.512" fill="#bdc660" stroke="#bdc660" xlink:href="#m87339ba376"/>
    </g>
   </g>
  </g>
 </g>
 <defs>
  <clipPath id="p0d86e7221a">
   <rect x="7.2" y="7.2" width="218.36" height="266.11"/>
  </clipPath>
 </defs>
</svg>
