<?xml version="1.0" encoding="UTF-8"?>
<!DOCTYPE svg  PUBLIC '-//W3C//DTD SVG 1.1//EN'  'http://www.w3.org/Graphics/SVG/1.1/DTD/svg11.dtd'>
<svg width="313.22pt" height="280.51pt" version="1.1" viewBox="0 0 313.22 280.51" xmlns="http://www.w3.org/2000/svg" xmlns:xlink="http://www.w3.org/1999/xlink">
 <metadata>
  <rdf:RDF xmlns:cc="http://creativecommons.org/ns#" xmlns:dc="http://purl.org/dc/elements/1.1/" xmlns:rdf="http://www.w3.org/1999/02/22-rdf-syntax-ns#">
   <cc:Work>
    <dc:type rdf:resource="http://purl.org/dc/dcmitype/StillImage"/>
    <dc:date>2024-07-04T12:08:19.322938</dc:date>
    <dc:format>image/svg+xml</dc:format>
    <dc:creator>
     <cc:Agent>
      <dc:title>Matplotlib v3.7.1, https://matplotlib.org/</dc:title>
     </cc:Agent>
    </dc:creator>
   </cc:Work>
  </rdf:RDF>
 </metadata>
 <defs>
  <style type="text/css">*{stroke-linejoin: round; stroke-linecap: butt}</style>
 </defs>
 <g id="figure_1">
  <g id="patch_1">
   <path d="m0 280.51h313.22v-280.51h-313.22v280.51z" fill="none"/>
  </g>
  <g id="axes_1">
   <g id="PatchCollection_1">
    <defs>
     <path id="mbb47daa90a" d="m270.11-179.5 0.18526 0.44927 0.71316 1.063 1.9621 2.6825 2.534 3.3196 2.0235 2.4872 1.2087 1.4026 3.2068 3.4813 2.1731 2.4403 1.1124 1.3644 1.3957 1.8783 0.81416 1.1964 1.2194 1.9614 1.0064 1.8242 0.88294 1.8408 0.85852 2.1961 0.40131 1.3211 0.40259 1.8473 0.21676 1.8452 0.011282 2.222-0.24326 2.1728-0.48248 2.0952-0.72306 1.9856-1.0295 1.9853-3.1279 4.9604-2.0509 3.5449-0.99457 1.5262-1.0982 1.4845-1.1707 1.427-2.8962 3.2504-1.0461 1.3829-0.58407 0.96695-0.62706 1.3388-1.0137 2.5713-0.56003 1.1948-1.139 1.7954-1.2818 1.5766-1.1479 1.2455-2.768 2.8638-1.5407 1.7215-0.9476 1.1986-1.1361 1.6769-0.89896 1.5038-2.2509 4.1526-1.1656 2.2587-0.73644 1.5711-0.6986 1.7449-0.52222 1.7616-0.20356 0.9444-0.22465 1.8689-0.034412 1.6296 0.062882 1.0868 0.21135 1.1278 0.6056 1.4002 0.59675 0.81295 0.9301 0.95343 5.0658 4.2668 1.7692 1.619 1.9565 1.9688 1.0774 1.2417 0.76806 0.98058 1.0694 1.5735 0.85882 1.5782 0.51113 1.1476 0.2842 0.73723 0.57804 1.8476 0.39305 1.7253 0.27946 1.7196 0.2509 2.3868 0.34786 6.3475 0.17841 2.3731 0.32238 2.5066 0.62618 2.6934 0.55057 1.4732 0.46832 0.52111-0.046897 0.05936-0.50925 0.24478-1.29 0.48818-2.6205 0.87565-4.2381 1.3077-2.5688 0.84336-1.5909 0.58395-1.9104 0.77344-2.3583 1.0639-2.781 1.4007-2.2693 1.2272-6.4696 3.6245-3.6799 1.9138-1.6748 0.77004-2.1566 0.87212-2.0443 0.72114-2.0449 0.60077-1.4157 0.26758-0.86237 0.023718-0.67475-0.087114-1.5919-0.43868-0.93157-0.37954-1.3803-0.7584-3.6798-2.5764-0.94323-0.54394-0.94608-0.38217-0.94437-0.14567-0.77957 0.10879-0.54705 0.19566-0.52699 0.26456-0.71728 0.45398-0.67312 0.49659-2.0806 1.6773-0.63668 0.46274-1.1949 0.73286-0.52218 0.26211-0.95197 0.39067-1.1647 0.3283-1.0531 0.15413-1.2099 0.013907-1.1775-0.12452-1.0961-0.21989-0.94831-0.26812-0.42146-0.16323-0.11857-0.10994-0.32932-0.21147-0.20234-0.007641-0.21787-0.010524-0.18206-0.075494-1.0218-0.65023-1.2159-0.96772-1.3477-1.2318-0.9311-0.96042-1.5722-1.9678-0.69211-1.0767-0.723-1.3387-0.82696-1.848-2.0811-5.2944-0.7985-1.8649-0.83862-1.7472-1.161-2.1714-1.2415-2.1321-1.295-2.0985-3.5148-5.4558-2.2836-3.8121-1.2184-2.198-1.2592-2.4055-3.3231-6.5887-2.0688-3.7145-2.241-3.6722-3.5843-5.3922-2.264-3.5552-2.7216-4.5629-1.1762-2.0583-1.439-2.7276-0.6227-1.298-0.98332-2.2382-1.2762-3.3575-0.97534-3.0645-0.52112-1.9521-0.2813-1.2389-0.30091-1.6706-0.18137-1.6417-0.077589-1.5642-0.055551-4.2796-0.23448-2.1453-0.44003-2.097-0.30544-1.0707-0.36896-1.0299-0.73864-1.4937-0.59922-0.87574-0.88415-0.96321-1.0348-0.78503-1.494-0.69261-1.6814-0.40684-0.98066-0.1141-0.83437-0.041244-1.4345 0.023645-1.3169 0.10267-2.0645 0.27404-2.0543 0.37215-2.091 0.45239-2.3372 0.56913-11.865 3.232-4.3794 1.1095-2.1388 0.47061-2.1994 0.39754-2.6803 0.31062-1.2675 0.05925-1.0984-0.010625-0.77913-0.052258-1.053-0.14132-0.77385-0.16008-1.3963-0.4258-1.2973-0.60526-1.5772-1.1152-1.4505-1.3693-3.6413-3.951-1.6973-1.7702-2.3698-2.2851-3.7583-3.306-2.3575-1.8771-1.753-1.2254-1.4155-0.89447-1.3052-0.75001-0.97125-0.47816-0.96641-0.36355-0.6068-0.1554-1.5155-0.12875-1.6197 0.27879-1.266 0.54621-1.3793 0.9805-1.2094 1.2514-0.74073 0.97417-0.68832 1.0601-0.80913 1.4522-0.73635 1.5374-0.66914 1.6086-0.59377 1.6491-0.51135 1.671-0.36812 1.4472-0.41253 2.1422-0.54304 4.316-0.41346 2.0031-0.36905 1.3617-0.82052 2.3909-0.58394 1.3966-0.66436 1.3964-0.72827 1.3605-1.0844 1.7905-1.5383 2.1972-0.78612 1.0017-1.2622 1.4691-1.977 2.0375-1.3265 1.2319-1.4982 1.2899-1.2432 0.99682-2.2102 1.5961-0.85913 0.53331-0.50794 0.2534-0.15625 0.007096-0.73928-1.2592-3.2237-5.0398-3.893-5.8406-2.337-3.3036-5.6268-7.5332-1.5776-2.2867-1.5174-2.3936-1.0178-1.7861-1.2237-2.4058-1.1322-2.5124-2.042-4.8091-1.7252-3.843-0.67444-1.7188-0.93485-2.7269-3.2503-11.466-0.52042-2.1736-0.32456-2.0976-0.03972-1.9432 0.3208-1.8066 0.50015-1.1994 0.69713-1.1117 0.37736-0.48377 0.85551-0.90114 0.98291-0.8272 1.4988-1.0043 1.6578-0.86075 1.79-0.69863 2.1636-0.58972 4.5795-0.88371 2.3405-0.49616 1.418-0.37312 1.4119-0.43091 1.9041-0.67029 2.1744-0.88219 1.8591-0.83706 2.5697-1.2589 2.949-1.6137 1.6665-1.0322 1.3939-0.96555 1.3264-1.0433 1.4699-1.3505 1.3717-1.4578 1.7483-2.1431 1.4487-2.0544 1.3253-2.1561 0.97183-1.8063 1.0035-2.1377 0.80069-1.9711 0.49463-1.384 0.81772-2.7533 0.3224-1.3644 0.30288-1.57 0.35302-2.7001 0.20528-3.308 0.050146-1.7053 0.005224-1.6919-0.20849-8.3161 0.065188-4.3831 0.19232-3.9863 0.56326-8.2163 0.16159-3.8475-0.028463-3.4432-0.11429-2.3165-0.13192-1.7992-0.32226-3.1542-0.34478-2.4154-0.49028-2.7527-0.46082-2.1981-0.80098-3.26 0.46306 0.23605 0.87502 0.64023 6.3548 4.9853 1.9103 1.4206 1.6552 1.1523 1.4436 0.92783 1.6634 0.96401 1.2277 0.63181 1.6882 0.75461 1.5959 0.5978 2.1198 0.62974 0.98866 0.2114 1.0912 0.16629 1.8006 0.1285 2.671-0.053814 4.786-0.24294 2.2685-0.056065 2.164 0.04865 2.1211 0.16791 1.0629 0.16147 1.863 0.48688 1.7565 0.74831 0.45659 0.25075 1.584 1.0451 1.359 1.0649 1.3652 1.2557 1.1796 1.2794 1.3432 1.7051 3.0011 4.3042 1.6532 2.2464 1.0279 1.2487 2.1238 2.2673 1.1763 1.1487 1.805 1.5916 1.8048 1.3612 1.1779 0.76162 1.2202 0.68433 1.1657 0.55292 1.6832 0.62272 2.0603 0.52995 1.6815 0.28927 1.704 0.19394 1.943 0.12832 6.6978 0.11128 1.6349 0.11084 1.5466 0.24214 1.4341 0.43164 0.92185 0.44417 0.91852 0.61918 0.81857 0.74965 0.50984 0.5993 0.91865 1.4816 0.69343 1.6854 0.49673 1.8391 0.33199 1.9956 0.21012 2.0779 0.24234 3.931 0.07056 3.2312-0.069262 4.4988-0.14314 3.9326 0.007815 6.5811-0.11229 1.2928-0.14498 0.73054-0.43966 1.304-0.43715 0.82943-0.79484 1.1218-0.82989 0.94755-0.92494 0.93823-2.5219 2.4076-1.6335 1.6595-1.5937 1.773-1.0884 1.333-0.89513 1.1855-1.3832 2.0044-1.3731 2.2795-0.85048 1.7089-0.73782 1.9172-0.52872 1.9485-0.30929 1.9537-0.06695 1.9327 0.15567 1.6248 0.3452 1.5696 0.46048 1.3706 1.6469 3.8729 1.4135 2.9977 0.6253 1.1874 1.0916 1.7863 1.3817 1.6662 1.412 1.1386 1.1484 0.68324 1.1143 0.52442 1.8719 0.64643 1.5113 0.33755 1.2127 0.16119 1.515 0.06898 1.0137-0.037458 1.1232-0.12188 0.9812-0.17195 2.2387-0.58299 2.2385-0.78084 2.2388-0.90674 6.7466-2.8861 2.2761-0.83791 2.3025-0.68272 1.7253-0.37349 1.4681-0.23134 5.6311-0.59364 3.2961-0.50734 1.779-0.35019 1.9498-0.45593 1.7396-0.48904 1.7605-0.57669 3.7135-1.4091 5.9129-2.4638 2.1356-0.81099 2.4993-0.81747 4.8685-1.4702 1.4544-0.48633 2.0238-0.76374 2.03-0.87155 4.7616-2.1869 4.4162-2.2267 3.9779-2.1973 4.964-2.9075 2.4608-1.5021 2.2646-1.4675 4.6888-3.1489 1.6223-1.0013 1.7264-0.96128 2.3038-1.1131 1.7958-0.74665 1.3497-0.50034 2.4681-0.79234 1.1804-0.31127 1.2106-0.25166 1.1894-0.14964 0.50089-0.010616 0.38189 0.053021 0.14255 0.1123" stroke="#bdc660"/>
    </defs>
    <g clip-path="url(#p04f75dd447)">
     <use y="280.512" fill="#bdc660" stroke="#bdc660" xlink:href="#mbb47daa90a"/>
    </g>
   </g>
  </g>
 </g>
 <defs>
  <clipPath id="p04f75dd447">
   <rect x="7.2" y="7.2" width="298.82" height="266.11"/>
  </clipPath>
 </defs>
</svg>
