<?xml version="1.0" encoding="UTF-8"?>
<!DOCTYPE svg  PUBLIC '-//W3C//DTD SVG 1.1//EN'  'http://www.w3.org/Graphics/SVG/1.1/DTD/svg11.dtd'>
<svg width="157.58pt" height="280.51pt" version="1.1" viewBox="0 0 157.58 280.51" xmlns="http://www.w3.org/2000/svg" xmlns:xlink="http://www.w3.org/1999/xlink">
 <metadata>
  <rdf:RDF xmlns:cc="http://creativecommons.org/ns#" xmlns:dc="http://purl.org/dc/elements/1.1/" xmlns:rdf="http://www.w3.org/1999/02/22-rdf-syntax-ns#">
   <cc:Work>
    <dc:type rdf:resource="http://purl.org/dc/dcmitype/StillImage"/>
    <dc:date>2024-07-04T12:08:10.540865</dc:date>
    <dc:format>image/svg+xml</dc:format>
    <dc:creator>
     <cc:Agent>
      <dc:title>Matplotlib v3.7.1, https://matplotlib.org/</dc:title>
     </cc:Agent>
    </dc:creator>
   </cc:Work>
  </rdf:RDF>
 </metadata>
 <defs>
  <style type="text/css">*{stroke-linejoin: round; stroke-linecap: butt}</style>
 </defs>
 <g id="figure_1">
  <g id="patch_1">
   <path d="m0 280.51h157.58v-280.51h-157.58v280.51z" fill="none"/>
  </g>
  <g id="axes_1">
   <g id="PatchCollection_1">
    <defs>
     <path id="m54d9e83c11" d="m85.011-233.41 0.03152-0.00699 0.23998 0.80748 0.00543 0.095372-0.049775 0.034771-0.28193 0.011215-0.23746 0.29977-0.10816 0.40788-0.025952 0.73346 0.083771 0.87807 0.11881 0.74796 0.14937 0.78388 0.55661 2.6852 0.19102 1.0603 0.13734 0.97182 0.084217 0.96447 0.02015 0.56644 0.012634 2.3003 0.047652 0.93649 0.099128 0.84064 0.16775 0.82357 0.30572 0.96684 0.396 0.94243 0.46074 0.92446 0.50648 0.91137 0.5383 0.90194 0.56004 0.89524 1.1586 1.7779 8.3416 12.397 11.15 16.69 0.10939 0.204 2.7683 3.8219 1.2989 1.8717 0.61616 0.93337 0.57985 0.92615 0.53194 0.91809 0.46988 0.91084 0.38976 0.90553 0.28628 0.90301 0.15267 0.90399 0.014537 0.57573-0.086997 0.90429-0.19814 0.94257-0.15584 0.55747-0.36204 1.0868-0.41699 1.0893-0.5706 1.353-0.9599 2.0677-1.3229 2.6459-1.0993 2.1386-5.2657 10.007-1.0338 1.9058-1.7302 3.0393-1.8039 3.2435-1.0544 1.9674-0.74404 1.4952-0.40907 0.87703-0.38959 0.88687-0.31839 0.78222-0.23692 0.63809-0.20239 0.62655-0.12864 0.4888-0.09386 0.47796-0.051353 0.44424-0.005215 0.45592 0.1077 0.7098 0.14528 0.4434 0.262 0.51121 0.20687 0.28111 0.23892 0.24027 0.17218 0.13112 0.17404 0.10752 0.54712 0.24684 1.2151 0.39211 0.66703 0.24603 0.43616 0.20833 0.26924 0.16304 0.42347 0.31907 0.1507 0.14203 0.2861 0.31439 0.75931 0.9329 0.98122 1.0987 1.2487 1.2875 2.4546 2.3996 1.4533 1.4553 0.79261 0.83447 0.48864 0.54492 0.59608 0.71141 0.68515 0.89389 0.46251 0.6495 0.49356 0.73481 0.44009 0.6941 0.79256 1.351 0.68614 1.3068 0.6246 1.3334 0.4524 1.0931 0.26845 0.73633 0.22759 0.72113 0.25072 0.92378 0.171 0.55596 0.21197 0.54151 0.40645 0.82343 0.41849 0.65259 0.48986 0.60721 0.54705 0.54653 0.59384 0.46568 0.63344 0.35881 0.58662 0.21539 0.88528 0.21972 1.2896 0.24549 0.52833 0.16837 0.42714 0.24549 0.76233 0.55084 0.43716 0.18553 0.57708 0.059431 0.67417-0.054183 1.5534-0.25956 0.8485-0.11778 0.88236-0.05079 0.80467 0.040444 0.69403 0.090366 0.76508 0.14342 0.5659 0.12928 0.90864 0.23951 0.68166 0.20271 0.86679 0.28902 0.621 0.22782 1.296 0.51908 1.2535 0.55072 1.1996 0.6075 0.72062 0.42118 0.77153 0.5218 0.64598 0.53371 0.47092 0.49469 0.38036 0.54407 0.33228 0.77689 0.18623 0.8494 0.07016 0.89886-0.026183 0.92965-0.11187 0.94495-0.22378 1.1325-0.19191 0.78555-0.21584 0.79262-0.44303 1.4701-0.4427 1.3423-0.58354 1.6202-0.52663 1.3213-0.38554 0.88314-0.55258 1.1268-0.40641 0.72736-0.439 0.70812-0.38137 0.56004-0.40456 0.54365-0.36749 0.45183-0.38714 0.43583-0.46472 0.47213-0.4942 0.44472-0.67986 0.52726-0.7223 0.48572-0.75446 0.4537-1.3153 0.71221-3.5291 1.7883-0.44461 0.2485-0.37004 0.23017-0.22077 0.16353-0.14488 0.14042-0.063088 0.08411-0.063249 0.16263 0.00401 0.06123 0.028248 0.056799 0.045741 0.040819-0.82347 0.36504-0.76588 0.36375-0.8238 0.43487-0.79832 0.48557-0.70901 0.52531-0.56408 0.56136-0.22572 0.31985-0.15762 0.3319-0.10015 0.57242 0.065473 0.59058 0.10967 0.38046 0.32584 0.75029 0.52858 1.007 0.18572 0.38154 0.16295 0.38499 0.40999 1.2427 0.69323 1.9901 0.13895 0.44986 0.1856 0.71888 0.088462 0.44401 0.061931 0.43248 0.031828 0.45079-0.025699 0.6296-0.020566 0.16147-0.17253 0.93166-0.058169 0.43804-0.020578 0.29148 0.012696 0.37358 0.066934 0.38089 0.17175 0.49256 0.74162 1.549 0.23673 0.62628 0.14498 0.63046 0.056646 0.64173-0.035455 0.63225-0.13756 0.60065-0.25664 0.54436-0.32229 0.40432-0.40162 0.36811-0.77138 0.57737-0.92215 0.62746-0.41627 0.26272-0.63993 0.36175-0.48303 0.23094-0.44196 0.17366-0.48346 0.14448-0.50929 0.1017-0.98238 0.09089-1.0189-0.005075-1.023-0.072093-0.98284-0.11099-1.5547-0.20433-0.32856 0.002286 0.012175 0.041541-0.10041-0.010052-0.16457-0.22195-0.22802-0.44834-1.0302-2.3965-0.48507-1.0125-0.38516-0.69692-0.56327-0.83989-0.43415-0.50277-0.22312-0.21253-0.19924-0.1655-0.28262-0.19815-0.20103-0.11677-0.81447-0.30961-0.88468-0.14278-0.93278-0.021969-0.96436 0.062764-0.9839 0.11984-0.99468 0.15576-2.9901 0.53196-0.98329 0.15897-0.96878 0.1311-0.94837 0.090886-0.9205 0.036562-2.0879-0.062557-0.62193 0.027141-0.36626 0.053826-0.44827 0.12167-0.57316 0.24812-0.50409 0.29486-1.4626 1.0114-1.221 0.75631-1.2835 0.82261-1.8191 1.2296-0.47236 0.33829-2.3248 1.7786-1.2537 1.0101-0.62185 0.55774-0.55619 0.5867-1.0183 1.3401-0.4374 0.49223-0.24505 0.24273-0.58627 0.51231-1.7025 1.3148-1.1115 0.93031-0.78256 0.73267-0.7222 0.75734-0.48927 0.55966-0.47744 0.5814-0.49684 0.64154-1.1326 1.5892-1.6024 2.3484-0.50111 0.67443-0.1664 0.19633-0.32456 0.32564-0.25894 0.18575-0.15242 0.007269-0.22024 0.07072-2.2219 0.96417-1.9918 0.81041-1.0334 0.38533-1.0364 0.35282-1.0311 0.3068-1.0214 0.24591-1.0096 0.16741-0.99758 0.067248-1.05-0.055188-1.0394-0.15788-1.0315-0.22749-0.93478-0.2466-0.93108-0.27222-0.92785-0.29009-1.8671-0.61884-6.3335-2.174-1.6982-0.5384-0.83519-0.24186-0.85779-0.22274-0.83684-0.1801-0.80842-0.12152-0.77024-0.042124-0.71942 0.064139-0.65244 0.20478-0.42699 0.25622-0.42956 0.36593-0.54127 0.59866-0.39539 0.52077-0.33054 0.48445-0.58029 0.95067-0.47346 0.87016-0.7497 1.5009-0.30976 0.57379-0.39901 0.61856-0.44752 0.56165-0.49493 0.48982-0.51614 0.3904-0.59115 0.34878-0.42827 0.20325-0.22323 0.085551-0.55399 0.15452-0.5815 0.10219-0.53805 0.057616-0.93851 0.035852-0.64772-0.014769-0.74661-0.051272-0.74042-0.080789-0.64723-0.090818-0.86766-0.14718-0.84223-0.16676-0.93217-0.20718-1.8248-0.4616-0.82984-0.23814-0.79369-0.2524-1.6285-0.58262-0.19201-0.029279-0.90968-0.044259-0.81221-0.093698-0.86824-0.15953-0.8348-0.23811-0.73157-0.33178-0.56764-0.44489-0.16606-0.20972-0.20432-0.37866-0.13442-0.41773-0.070698-0.40386-0.030086-0.42148 4e-4 -0.38666 0.03885-0.76502 0.11351-1.1971 0.32266-2.4693 0.2711-1.6667 0.52636-3.0275 0.13578-0.93783 0.055564-0.51112 0.038545-0.58939 0.003637-0.4346-0.023617-0.41893-0.061172-0.4582-0.20208-1.2-0.049801-0.51335-0.014594-0.41102 0.024998-0.51335 0.082287-0.46612 0.15122-0.43878 0.16352-0.30288 0.27675-0.36895 0.1764-0.19092 0.43804-0.41054 0.42829-0.35529 3.5401-2.7222 1.0825-0.75353 1.0308-0.66338 1.8068-1.1071 1.0996-0.60146 0.84018-0.41633 0.84489-0.39089 3.4204-1.4671 0.70598-0.3314 0.6183-0.36483 0.54252-0.48548 0.26091-0.38979 0.19396-0.43059 0.17781-0.57576 0.12703-0.63504 0.03553-0.69104-0.043188-0.72379-0.15432-1.1021-0.12304-0.57114-0.23417-0.86063-0.37039-1.2153-0.32728-0.97108-0.29627-0.7942-0.32009-0.79282-0.34197-0.78361-1.0763-2.2053-1.593-3.3995-2.0932-4.2532-0.86509-1.7937-0.57659-1.2405-1.4355-3.2066-0.89406-1.8872-0.47533-0.8951-0.43269-0.70506-0.98087-1.3848-0.38314-0.60765-0.35258-0.63032-0.31819-0.63515-0.33308-0.74718-0.26072-0.66482-0.16735-0.50571-0.038409-0.24415 0.064694-0.075891 0.21664-0.1666 0.62748-0.39139 1.3837-0.741 0.6345-0.30217 0.33534-0.13092 0.39696-0.12751 0.53117-0.13615 3.0256-0.58561 0.67768-0.15127 1.2802-0.32746 1.0081-0.29998 0.89877-0.3068 1.1789-0.46363 0.63808-0.28226 0.60594-0.29865 0.69152-0.39399 0.29446-0.19002 0.57415-0.41944 0.47994-0.43743 0.27535-0.31975 0.66606-0.83733 0.46389-0.42066 0.20375-0.12934 0.26236-0.12556 0.53879-0.15055 0.57138-0.056103 0.68489 0.016944 1.8112 0.10459 0.50396-0.019791 0.46185-0.061941 0.4525-0.11633 0.39302-0.22581 0.3086-0.3524 0.12668-0.27474 0.097488-0.3646 0.072282-0.50618 0.054621-0.66494 0.036876-0.51066 0.0109-0.5354-0.046593-0.60071-0.056024-0.37179-0.099504-0.47808-0.19625-0.68951-0.21262-0.58709-0.39556-0.90123-0.20857-0.41398-0.36067-0.64983-0.32533-0.51582-0.22785-0.32416-0.23049-0.29848-0.29339-0.3361-0.4408-0.41373-0.4307-0.32442-1.3061-0.82081-0.61418-0.45336-0.29165-0.26159-0.24874-0.25493-0.31988-0.38082-0.2972-0.4233-0.36097-0.63969-0.28665-0.62378-0.21312-0.62316-0.10651-0.61278 0.040282-0.59215 0.22094-0.5666 0.3751-0.53858 0.49436-0.51338 0.58646-0.48953 0.65784-0.46563 0.71382-0.44029 0.39422-0.22108 3.6563-1.8654 2.5516-1.4226 1.418-0.84557 0.6581-0.43196 0.73091-0.52491 0.58415-0.46097 0.98563-0.85328 2.5963-2.4162 1.3152-1.1642 1.3178-1.1037 1.3254-1.0647 0.51615-0.4556 0.43308-0.47633 0.31597-0.52183 0.15702-0.50567 0.060006-0.54963-0.029253-0.68484-0.076688-0.52324-0.11575-0.53811-0.13515-0.50194-0.15835-0.50958-0.435-1.206-1.3471-3.2662-0.28534-0.72367-0.37577-1.0673-0.27864-1.0088-0.1604-0.94004-0.027642-0.9343 0.11366-0.83579 0.22408-0.83058 0.30697-0.82704 0.36769-0.82482 0.41037-0.82358 1.836-3.3677 0.46341-0.89609 0.41984-0.8888 0.3545-0.87607 0.26168-0.85549 0.14324-0.81379 0.034575-0.75294-0.066123-0.65606-0.16748-0.51454-0.27822-0.3171-0.19042-0.0682-0.21328-0.013-0.31485 0.038883-0.44834 0.10271-0.35432 0.10331-0.57527 0.20474-0.71579 0.32028-0.43248 0.23377-0.35943 0.218-0.86985 0.60614-0.21437 0.13228-0.2944 0.14718-0.21448 0.082419-0.31244 0.085541-0.26336 0.039854-0.26319 0.007069-0.21462-0.022404-0.21216-0.051668-0.18315-0.072538-0.18491-0.10693-0.1381-0.10572-0.27672-0.28768-0.2126-0.29991-0.17357-0.30196-0.21069-0.44346-0.28604-0.76358-0.2874-0.9591-0.34419-1.3535-0.64473-2.746-0.78125-4.0429-0.20041-0.89114-0.22395-0.8556-0.24632-0.79869-0.18267-0.51052-0.28958-0.71138-0.49463-1.0436-0.32326-0.6074-0.32786-0.57067-0.45356-0.73224-0.36758-0.55547-0.56809-0.80797-0.32144-0.42427-0.43937-0.52618-0.27774-0.29619-0.31027-0.29705-0.29171-0.24663-0.27513-0.20309-0.25719-0.16213-0.21338-0.11034-0.1538-0.058848-0.11646-0.016582-0.049962 0.009504-0.66301-1.7207-0.30413-0.91572-0.1359-0.52122-0.11957-0.673-0.040447-0.52684 0.007532-0.42424 0.11008-0.72858 0.17625-0.55325 0.24076-0.5424 0.17333-0.3285 0.36836-0.60453 0.298-0.43593 1.3278-1.8132 0.53462-0.82414 0.2632-0.48737 0.23727-0.55767 0.080292-0.24142 0.12862-0.48935 0.11842-0.63547 0.12548-1.14 0.11227-2.1803 0.02965-1.2829-0.040608-1.2462-0.25553-2.8527-0.041645-0.65308-0.004447-0.84626 0.053356-0.74192 0.082282-0.64128 0.19115-1.1811 0.122-0.65454 0.14084-0.62896 0.17748-0.68836 0.44965-1.5949 0.69549-2.2162 0.14836-0.57636 0.095683-0.57296 0.016452-0.18282 0.002354-0.50063-0.12771-0.75128-0.26356-0.71901-0.37317-0.67399-0.46459-0.61147-0.46357-0.45754-0.52004-0.37458-0.57716-0.26696-0.82-0.15821-0.89398 0.006819-0.94806 0.12301-0.9867 0.19931-2.9981 0.71364-0.94756 0.18023-0.9211 0.11558-0.87369 0.019863-0.79932-0.11243-0.69199-0.28403-0.53077-0.44337-0.41557-0.56438-0.30695-0.61369-0.16968-0.47925-0.087763-0.39266 0.011341-0.23644 3.312-1.1723 2.7035-1.0219 6.2127-2.4825 1.5278-0.64023 1.1413-0.5207 0.88796-0.44817 0.94492-0.52465 0.4635-0.28287 0.58143-0.39474 0.36103-0.2801 0.3257-0.29334 0.43373-0.51152 0.2709-0.50414 0.070545-0.20724 0.094387-0.67922-0.05917-0.72615-0.17572-0.75974-0.26413-0.78282-0.45814-1.0917-1.6228-3.4802-0.85179-1.8759-1.2671-2.9736-1.1916-2.9945-0.3707-1.0002-0.34823-1.0009-0.3161-1.0013-0.27034-1.0013-0.2058-1.0007-0.079213-0.5707-0.045376-0.56964-0.009228-0.47277 0.025576-0.56391 0.053044-0.46568 0.14594-0.7339 0.22034-0.71643 0.29104-0.6951 0.41434-0.77202 0.5188-0.79088 0.5786-0.76569 0.62185-0.74692 0.65281-0.73276 0.67491-0.72165 1.3939-1.4151 1.4361-1.3718 0.734-0.66169 0.74788-0.6374 0.76627-0.60384 0.79107-0.55777 0.77827-0.47344 0.80625-0.41364 0.83423-0.34597 0.87861-0.27612 0.90179-0.21187 0.9188-0.16187 0.93105-0.12208 0.93963-0.089011 0.94538-0.059542 0.94895-0.030812 0.95078-7.4e-5 0.95118 0.035427 1.0374 0.08353 1.0366 0.12054 1.036 0.14667 2.071 0.34193 3.1027 0.57513 2.0577 0.41488 1.0201 0.2231 1.0095 0.24044 0.99334 0.26602 0.9693 0.30312 0.93442 0.35594 0.46643 0.21224 0.52408 0.27668 0.42918 0.2645 0.40829 0.29108 0.3854 0.31813 0.53136 0.52695 0.47214 0.58346 0.41223 0.63435 0.3698 0.70883 0.37055 0.89157 0.31174 0.93226 0.26547 0.96271 0.22722 0.98577 0.19288 1.0037 0.15865 1.0181 0.12072 1.0303 0.075195 1.0413 0.016908 0.51704 3.3e-4 0.63518-0.023848 0.69632-0.18746 2.9567-0.010097 0.84856 0.025117 0.82356 0.082831 1.1467 0.12455 1.1392 0.31493 2.1578 0.35007 2.0965" stroke="#bdc660"/>
    </defs>
    <g clip-path="url(#p2b438eeb76)">
     <use y="280.512" fill="#bdc660" stroke="#bdc660" xlink:href="#m54d9e83c11"/>
    </g>
   </g>
  </g>
 </g>
 <defs>
  <clipPath id="p2b438eeb76">
   <rect x="7.2" y="7.2" width="143.18" height="266.11"/>
  </clipPath>
 </defs>
</svg>
