<?xml version="1.0" encoding="UTF-8"?>
<!DOCTYPE svg  PUBLIC '-//W3C//DTD SVG 1.1//EN'  'http://www.w3.org/Graphics/SVG/1.1/DTD/svg11.dtd'>
<svg width="371.52pt" height="272.54pt" version="1.1" viewBox="0 0 371.52 272.54" xmlns="http://www.w3.org/2000/svg" xmlns:xlink="http://www.w3.org/1999/xlink">
 <metadata>
  <rdf:RDF xmlns:cc="http://creativecommons.org/ns#" xmlns:dc="http://purl.org/dc/elements/1.1/" xmlns:rdf="http://www.w3.org/1999/02/22-rdf-syntax-ns#">
   <cc:Work>
    <dc:type rdf:resource="http://purl.org/dc/dcmitype/StillImage"/>
    <dc:date>2024-07-04T12:08:12.539083</dc:date>
    <dc:format>image/svg+xml</dc:format>
    <dc:creator>
     <cc:Agent>
      <dc:title>Matplotlib v3.7.1, https://matplotlib.org/</dc:title>
     </cc:Agent>
    </dc:creator>
   </cc:Work>
  </rdf:RDF>
 </metadata>
 <defs>
  <style type="text/css">*{stroke-linejoin: round; stroke-linecap: butt}</style>
 </defs>
 <g id="figure_1">
  <g id="patch_1">
   <path d="m0 272.54h371.52v-272.54h-371.52v272.54z" fill="none"/>
  </g>
  <g id="axes_1">
   <g id="PatchCollection_1">
    <defs>
     <path id="m2ccb0125dd" d="m313.6-253.41 0.30558 0.64014 4.8819 9.0191 2.8646 5.7246 1.3305 2.8971 1.2134 2.8921 1.058 2.882 0.85776 2.875 0.60264 2.877 0.29272 2.6281 0.10169 2.6334-0.024194 2.6334-0.29615 7.8695-0.021598 2.6976 0.060495 2.681 0.15168 2.6572 0.25881 2.6249 0.39009 2.5818 0.55524 2.5252 0.76577 2.4514 1.0716 2.4884 1.2908 2.411 1.4466 2.3565 1.552 2.3206 4.8976 6.8918 1.5977 2.3172 1.5191 2.3499 1.3951 2.3989 1.215 2.4675 1.0183 2.6435 0.79984 2.7116 0.61171 2.7528 0.43471 2.77 0.24971 2.7641 0.036554 2.7344-0.22692 2.6783-0.56596 2.5911-0.95558 2.4541-1.2758 2.3629-1.5082 2.2958-1.6744 2.2471-1.7913 2.2124-3.7982 4.3594-5.9466 6.4623-18.119 19.342-3.9623 4.3221-3.8145 4.3405-1.7952 2.1798-1.6694 2.1882-1.4854 2.1986-1.2206 2.2113-0.84508 2.2267-0.32033 2.2455 0.30911 2.184 0.82559 2.2075 1.2231 2.2335 1.5288 2.2618 1.7639 2.2915 1.9442 2.3206 2.0803 2.3459 4.4138 4.7214 9.482 9.7027 0.36529 0.51384-0.58527 0.29314-1.4752 0.51029-2.0422 0.6193-2.3864 0.64174-2.5779 0.59749-2.6651 0.49856-2.6811 0.35058-2.6478 0.15468-5.9652-0.16148-2.2173 0.031648-1.0852 0.063598-1.214 0.11345-1.5293 0.21161-2.6173 0.5538-1.9808 0.57794-2.1093 0.76235-2.5308 1.0928-2.2554 1.0919-2.7 1.5178-1.6064 1.0125-2.759 1.8474-1.3626 0.83388-2.6227 1.3709-1.9324 0.82517-1.6695 0.5854-2.0758 0.53532-1.3684 0.20519-0.84246 0.05276-1.2531-0.038896-1.7818-0.25413-2.2483-0.51739-1.7462-0.5134-1.6775-0.65964-0.80566-0.40702-1.2849-0.80165-1.4222-1.1481-1.0139-1.043-0.86551-1.0975-0.9323-1.4212-1.4316-2.3971-0.70191-1.0443-2.4143-2.8025-0.60277-0.92158-0.31132-0.64629-0.36989-1.1718-0.36934-2.8065-0.21615-0.73472-0.20793-0.44215-0.31631-0.47137-0.54644-0.52412-0.72264-0.39789-0.79408-0.21467-0.90904-0.045065-0.52586 0.054268-0.67741 0.14618-1.3211 0.48959-0.66359 0.32531-2.411 1.4091-6.893 4.3447-2.4026 1.4654-1.9801 1.0546-1.4964 0.6688-1.2164 0.47383-1.6245 0.55675-2.1682 0.63283-2.0194 0.4735-4.0715 0.82203-3.4923 0.76454-2.4273 0.46486-4.0036 0.64672-2.3343 0.34524-2.0374 0.22532-2.1525 0.13969-7.0493 0.29858-3.0478 0.055383-2.8182-0.079332-2.8439-0.1897-2.1728-0.22251-2.0498-0.30517-2.7659-0.59973-1.2856-0.35772-2.0725-0.69763-1.0507-0.42392-0.92804-0.4205-1.6528-0.85932-2.4946-1.4607-1.7857-0.98314-0.80933-0.38275-0.87361-0.34013-0.58421-0.17242-0.72018-0.13976-1.7703 0.001247-1.8473 0.38376-1.4269 0.47023-1.4672 0.58364-5.947 2.65-2.609 1.0446-1.859 0.66625-4.097 1.304-7.963 2.3425-3.3592 1.0759-3.1782 1.1322-2.3562 0.91817-2.6678 1.1127-2.675 1.1892-4.2482 2.0463-3.798 2.0508-2.561 1.5661-2.6206 1.8174-2.0294 1.6121-1.3477 1.2377-0.67359 0.79509-0.013695 0.11616-30.992-46.389-23.186-34.459-3.2205-4.9416-1.5567-2.4884-1.4962-2.507-1.4078-2.5332-1.2806-2.5696-1.1007-2.6195-0.84975-2.6874-0.46628-2.2891-0.27553-2.3366-0.13245-2.603-0.035117-6.3937-0.056009-1.5744-0.23408-2.6808-0.38174-2.7012-0.53094-2.9471-1.5471-7.4635-0.41519-2.1788-0.33024-2.079-0.23284-2.4406 0.072135-2.0387 0.30062-1.1337 0.66002-0.83321 0.78363-0.031172 0.13835-0.096648-0.015092-0.26509-0.66702-2.2444 9.894-2.1269 8.9664-1.7749 2.9996-0.54884 5.5794-0.92683 8.667-1.2569 4.6632-0.86589 2.9209-0.67339 2.8719-0.76798 2.8222-0.8634 2.7687-0.9678 2.1332-0.83592 8.7482-3.6574 4.5542-1.7608 2.2856-0.80984 2.293-0.74644 7.0166-2.0271 2.7156-0.87373 2.7052-0.94847 2.6868-1.0284 2.098-0.86943 4.1603-1.8543 4.4106-2.0715 6.9596-3.4361 4.534-2.4307 3.6175-2.1029 5.0067-2.9998 2.1746-1.1868 2.2238-1.1123 2.3337-1.064 2.374-0.992 2.4073-0.92801 2.4068-0.85973 4.8738-1.5802 4.9288-1.4259 7.3458-2.0004 2.3784-0.7194 2.4849-0.81574 4.9328-1.7574 7.3799-2.7179 5.2104-1.7981 2.6204-0.84791 5.2735-1.5664 2.6565-0.69828 2.3422-0.55203 8.0626-1.6402 2.6463-0.58155 4.7778-1.1777 4.2621-1.1697 12.816-3.801 5.6041-1.7963 11.228-3.732 5.6436-1.7733 2.8322-0.81838 2.8393-0.74755 5.304-1.2816 4.3271-1.1287 5.2382-1.5042 3.1147-1.0424 5.6273-2.0789 1.5479-0.52771 1.037-0.29809 1.2502-0.21732 0.28659-0.001374 0.40945 0.08671 0.15634 0.14623 0.033529 0.098072-0.005341 0.19291-0.20124 0.59998 0.067635 0.13744 0.2909 0.09873 1.0144 0.006052 1.0556-0.14336 1.2795-0.26489 1.4495-0.37539 6.7544-2.0575 1.974-0.42815 0.79397-0.081066 0.66133 0.029232 0.2921 0.17062" stroke="#bdc660"/>
    </defs>
    <g clip-path="url(#p56447891f9)">
     <use y="272.543651" fill="#bdc660" stroke="#bdc660" xlink:href="#m2ccb0125dd"/>
    </g>
   </g>
  </g>
 </g>
 <defs>
  <clipPath id="p56447891f9">
   <rect x="7.2" y="7.2" width="357.12" height="258.14"/>
  </clipPath>
 </defs>
</svg>
