<?xml version="1.0" encoding="UTF-8"?>
<!DOCTYPE svg  PUBLIC '-//W3C//DTD SVG 1.1//EN'  'http://www.w3.org/Graphics/SVG/1.1/DTD/svg11.dtd'>
<svg width="371.52pt" height="266.56pt" version="1.1" viewBox="0 0 371.52 266.56" xmlns="http://www.w3.org/2000/svg" xmlns:xlink="http://www.w3.org/1999/xlink">
 <metadata>
  <rdf:RDF xmlns:cc="http://creativecommons.org/ns#" xmlns:dc="http://purl.org/dc/elements/1.1/" xmlns:rdf="http://www.w3.org/1999/02/22-rdf-syntax-ns#">
   <cc:Work>
    <dc:type rdf:resource="http://purl.org/dc/dcmitype/StillImage"/>
    <dc:date>2024-07-04T12:08:13.148874</dc:date>
    <dc:format>image/svg+xml</dc:format>
    <dc:creator>
     <cc:Agent>
      <dc:title>Matplotlib v3.7.1, https://matplotlib.org/</dc:title>
     </cc:Agent>
    </dc:creator>
   </cc:Work>
  </rdf:RDF>
 </metadata>
 <defs>
  <style type="text/css">*{stroke-linejoin: round; stroke-linecap: butt}</style>
 </defs>
 <g id="figure_1">
  <g id="patch_1">
   <path d="m0 266.56h371.52v-266.56h-371.52v266.56z" fill="none"/>
  </g>
  <g id="axes_1">
   <g id="PatchCollection_1">
    <defs>
     <path id="mfa63fe9d14" d="m269.25-239.1-0.068776 0.011233-0.38358 0.44356-0.90568 1.4097-0.71732 1.3504-0.42962 0.95035-0.57892 1.5277-0.27632 0.86535-0.43845 1.6399-0.31668 1.5542-0.2177 1.8602-0.005223 1.1077 0.15811 1.1825 0.24305 0.77884 0.37713 0.74886 0.63357 0.81183 0.32424 0.30256 1.1555 0.76329 1.3177 0.59122 5.946 2.2775 1.699 0.53153 1.3074 0.28686 5.8554 1.0384 0.68508 0.10804 1.7684 0.13559 0.82887-0.025995 1.0077-0.093987 3.7501-0.56225 1.6014-0.11977 1.574 0.1174 1.5921 0.46096 1.5626 0.73666 1.5432 0.91311 2.9751 1.945 1.3184 0.8036 1.3281 0.69588 1.4859 0.5782 1.3932 0.31917 2.8464 0.40144 1.753 0.37321 1.197 0.35596 1.806 0.78157 1.6861 1.0292 0.8531 0.65533 0.78302 0.71626 1.0097 1.1408 4.6225 5.6882 1.1326 1.568 1.9059 2.9613 1.3661 1.7035 1.6093 1.6916 1.7915 1.6868 1.9186 1.6872 5.9677 5.0788 1.8469 1.6889 0.95807 0.95332 0.86118 0.95619 0.60769 0.74698 1.2704 1.7329 1.0356 1.6042 0.70382 1.2605 0.2169 0.6267-4.067 2.3821-2.3204 1.4866-2.4071 1.6703-3.3587 2.5937-1.2768 1.0584-2.3356 2.046-1.3798 1.2945-1.2766 1.2822-1.2979 1.4364-0.62471 0.7701-0.90082 1.2423-1.0423 1.6675-0.61117 1.3688-0.25271 1.3109 0.090031 1.3315 0.29554 0.97033 0.90218 1.6861 1.2465 1.6616 1.4521 1.6376 3.0632 3.198 1.4013 1.5531 1.1692 1.5142 0.81138 1.4659 0.3039 1.4052-0.27927 1.2729-0.68569 1.2416-1.8471 2.5359-0.8154 1.3726-0.50837 1.5028-0.061631 1.6816 0.32586 1.8236 0.61521 1.929 0.8252 2.0052 0.97022 2.0582 4.3073 8.4143 0.94183 2.0726 0.77455 2.0265 0.52995 1.9585 0.18819 1.8631-0.14644 1.4158-0.33176 1.3905-1.2805 4.5722-0.52388 1.6258-0.4403 1.1157-0.52417 1.0723-0.74711 1.184-0.88359 1.0937-1.2613 1.2697-1.4331 1.2088-0.88899 0.66743-2.0542 1.3621-1.9629 1.1027-1.481 0.72157-1.8601 0.78836-2.4045 0.84952-1.7377 0.49904-2.1932 0.45367-0.87532 0.081856-0.15506-0.051869-0.27658-0.74975-0.76355-1.3844-1.1042-1.6252-1.3498-1.5691-1.537-1.2852-1.6934-0.8083-1.5534-0.20823-1.6317 0.18407-1.6877 0.48803-1.8378 0.76352-1.8615 0.93935-1.8694 1.0523-6.2588 3.7609-1.6302 0.91253-1.2526 0.63604-1.2437 0.55486-1.9266 0.66574-1.0607 0.25362-3.027 0.57338-2.3398 0.55441-9.4098 2.546-1.6059 0.48472-1.8792 0.64962-1.5617 0.60383-10.456 4.4378-2.7369 1.3097-2.0358 1.1996-1.994 1.3756-1.9629 1.5066-1.9405 1.6023-1.925 1.6706-9.5787 8.7453-3.9131 3.4282-2.0058 1.641-2.0559 1.5645-2.1236 1.4604-2.106 1.2784-2.1673 1.1851-2.2116 1.1195-11.29 5.3282-3.6711 1.9021-2.0014 1.1251-2.1945 1.3016-8.5287 5.3211-2.0798 1.2333-2.0557 1.1272-2.0261 0.972-1.9883 0.75352-1.9393 0.45369-1.8752 0.049752-0.66392-0.10462-0.58708-0.14794-0.93913-0.33778-1.336-0.6601-1.7237-1.078-1.7694-1.2852-1.6405-1.3192-2.8405-2.4176-1.3675-1.0247-1.3087-0.83292-0.78919-0.44822-1.7643-0.83556-1.0848-0.39873-1.3936-0.41221-7.1081-1.578-4.1175-1.0714-2.1713-0.64393-2.1797-0.73506-6.1311-2.2123-1.6716-0.69116-1.4014-0.72385-1.5451-0.97878-1.6528-1.2286-1.8552-1.578-1.6781-1.5755-1.4977-1.5399-1.5807-1.749-6.138-7.2184-0.15277-0.31999-0.7956-0.90989-2.4918-2.3941-2.6574-2.3323-4.859-3.9524-1.9858-1.7174-3.2238-3.049-5.836-5.8829-1.4509-1.4037-2.1974-1.9641-1.8107-1.5154-4.5696-3.5891-3.1344-2.3028-2.1401-1.4833-2.4635-1.6155-2.3145-1.4454-8.8567-5.2816-2.4499-1.5618-2.6544-1.8482-1.8154-1.4304-0.96202-0.83792-1.5364-1.4865-1.9763-2.1894-1.0383-1.2746-1.0007-1.3102-1.1206-1.5667-1.6779-2.5626-1.1371-1.8955-2.1191-3.863-2.7521-5.5506-8.1228-17.484-2.1689-4.4763-4.2401-8.5635-1.3475-2.8397-1.9448-4.4641-0.80635-2.0155-1.4558-3.9579-0.84309-2.5678-0.64884-2.2617-0.31034-1.3541-0.10299-0.69888 0.00882-0.45524 0.07442-0.088796 0.40419-0.41529 3.8934-5.5459 3.4853-4.865 1.8189-2.4413 1.8381-2.3708 1.8492-2.2559 1.8608-2.0968 1.8793-1.8873 1.9102-1.6154 1.9587-1.2635 2.0298-0.80841 1.7746-0.25524 1.8195 0.11033 1.4947 0.32113 1.5701 0.52788 1.7804 0.80489 2.1502 1.2284 1.6981 1.1623 1.2473 0.97498 1.4937 1.2954 1.8112 1.7274 1.7619 1.8002 1.6864 1.8136 1.8705 2.1689 4.2478 5.3783 1.5169 1.7224 1.9088 1.8163 1.4379 1.2424 1.4731 1.1029 1.5602 0.87284 1.535 0.5388 1.6172 0.34908 4.7939 0.64472 1.4129 0.27205 1.3565 0.38566 1.1995 0.48836 1.1518 0.58021 3.0294 1.7171 1.2806 0.82026 1.1414 0.88713 3.2359 2.922 1.0279 1.0092 0.97529 1.1218 1.7408 2.2266 0.84543 0.99611 0.89672 0.85163 0.51474 0.36743 1.3375 0.59486 1.4993 0.30395 1.5899 0.082951 0.93182-0.038033 1.7834-0.2903 1.8177-0.54953 1.7876-0.7715 1.692-0.97334 1.526-1.1705 0.54058-0.51399 3.093-3.3004 1.8992-1.773 1.0651-0.86551 1.3492-0.9568 1.2834-0.76712 1.1739-0.5615 0.84994-0.31432 0.88316-0.24067 1.1101-0.1706 1.0475-0.026231 0.68589 0.043548 1.0863 0.14277 4.6453 0.80733 1.9326 0.2073 0.92881 0.014293 0.83908-0.067607 0.82786-0.17266 0.65477-0.23983 0.17907-0.08601 1.2228-0.88025 1.0602-1.2376 0.80157-1.2756 0.72817-1.433 0.77627-1.8064 2.2669-5.9526 0.58258-1.4159 1.0883-2.4151 1.1848-2.4044 2.5702-4.771 1.3542-2.3653 2.8014-4.6851 2.9086-4.6058 1.5015-2.259 2.0525-2.8978 1.4432-1.8679 1.5209-1.7978 0.95604-1.0362 1.5197-1.5286 1.5789-1.4743 1.6264-1.4301 1.8116-1.5135 3.726-2.9263 3.7037-2.7425 11.032-7.9751 7.7124-5.7251 2.5934-1.7773 1.379-0.86971 3.2595-1.8609 3.906-2.0605 1.8632-0.83995 1.9069-0.69266 1.9131-0.52248 1.8806-0.31569 1.806-0.056316 1.6838 0.27433 1.4843 0.6309 1.3596 0.89034 2.8205 2.2427 1.2328 0.87086 0.85396 0.51134 1.7224 0.85008 1.8284 0.55541 1.3557 0.14224 0.98 0.002806 1.9385-0.12624 7.811-0.98566 5.2483-0.76247 1.3515-0.12563 1.3134-0.021296 1.1303 0.10015 1.5033 0.35726 1.3783 0.56211 0.71294 0.38109 1.0167 0.63922 0.87239 0.64764 0.75221 0.68261 0.31332 0.47919" stroke="#bdc660"/>
    </defs>
    <g clip-path="url(#p2944e249ac)">
     <use y="266.556042" fill="#bdc660" stroke="#bdc660" xlink:href="#mfa63fe9d14"/>
    </g>
   </g>
  </g>
 </g>
 <defs>
  <clipPath id="p2944e249ac">
   <rect x="7.2" y="7.2" width="357.12" height="252.16"/>
  </clipPath>
 </defs>
</svg>
