<?xml version="1.0" encoding="UTF-8"?>
<!DOCTYPE svg  PUBLIC '-//W3C//DTD SVG 1.1//EN'  'http://www.w3.org/Graphics/SVG/1.1/DTD/svg11.dtd'>
<svg width="323.18pt" height="280.51pt" version="1.1" viewBox="0 0 323.18 280.51" xmlns="http://www.w3.org/2000/svg" xmlns:xlink="http://www.w3.org/1999/xlink">
 <metadata>
  <rdf:RDF xmlns:cc="http://creativecommons.org/ns#" xmlns:dc="http://purl.org/dc/elements/1.1/" xmlns:rdf="http://www.w3.org/1999/02/22-rdf-syntax-ns#">
   <cc:Work>
    <dc:type rdf:resource="http://purl.org/dc/dcmitype/StillImage"/>
    <dc:date>2024-07-04T12:08:37.863100</dc:date>
    <dc:format>image/svg+xml</dc:format>
    <dc:creator>
     <cc:Agent>
      <dc:title>Matplotlib v3.7.1, https://matplotlib.org/</dc:title>
     </cc:Agent>
    </dc:creator>
   </cc:Work>
  </rdf:RDF>
 </metadata>
 <defs>
  <style type="text/css">*{stroke-linejoin: round; stroke-linecap: butt}</style>
 </defs>
 <g id="figure_1">
  <g id="patch_1">
   <path d="m0 280.51h323.18v-280.51h-323.18v280.51z" fill="none"/>
  </g>
  <g id="axes_1">
   <g id="PatchCollection_1">
    <defs>
     <path id="ma0f1790b6a" d="m280.93-241.89 0.39417 1.302 0.25592 1.1138 0.15476 1.2953 0.1529 2.2201 0.004204 1.1268-0.12691 1.8013-0.10843 0.8777-0.35137 1.925-0.097142 0.96434 0.047178 1.045 0.18798 1.0626 0.30277 1.0637 0.39953 1.0488 0.4857 1.0172 0.56814 0.96765 0.56329 0.80108 0.45484 0.58653 0.72646 0.81922 0.45876 0.4314 0.55376 0.4395 0.5931 0.40192 0.78155 0.45817 0.81748 0.41936 1.5002 0.66361 2.5466 1.0468 0.86772 0.38788 1.5907 0.798 0.97056 0.58236 0.5259 0.39885 0.27831 0.26757 0.37758 0.51031 0.25422 0.62902 0.14252 0.71175 0.10587 1.0954 0.17703 3.188 0.1848 2.0743 0.26553 1.9346 0.38949 2.0914 0.7018 2.9643 0.53266 1.9113 1.1914 4.0072 0.4032 1.4858 0.45807 1.976 0.32492 1.7031-0.20929 0.01365-0.9136 0.25446-2.1629 0.80232-1.2756 0.58944-0.95912 0.53427-0.56496 0.35643-1.5719 1.1373-1.3077 1.0575-1.4441 1.2962-1.3607 1.3901-1.1108 1.3263-0.80781 1.1027-0.66269 0.97264-0.77546 1.2306-0.46903 0.81592-0.93449 1.8257-1.0316 1.8108-0.913 1.4023-1.0869 1.5006-0.76767 0.97486-1.1428 1.3425-2.8454 3.0879-1.5048 1.7019-3.1771 3.783-0.54074 0.70351-0.77412 1.1439-0.55597 1.0621-0.28429 0.77293-0.15185 0.63276-0.093176 0.64537-0.054825 1.1376 0.054504 1.3072 0.43532 5.6036 0.11637 0.89596 0.20944 1.0116 0.29145 1.0185 0.53371 1.4419 0.65091 1.4359 0.74466 1.4204 0.82048 1.3944 0.88274 1.3562 0.93472 1.3038 2.5705 3.1983 0.77324 1.0754 0.46792 0.78767 0.43949 0.93945 0.37192 1.1921 0.12089 0.87295-0.1188 1.2723-0.23196 0.6329-0.65243 1.0581-0.87932 1.0151-2.6468 2.5469-0.83166 0.83972-0.78144 0.87277-0.85623 1.139-0.61061 1.0355-0.42265 0.95467-0.18765 0.57921-0.22107 1.1022-0.39108 3.7017-0.48114 3.9991-0.219 2.095-0.10936 1.8133 0.015602 1.6878 0.13836 3.7986 0.11792 1.6297 0.20311 1.5393 0.39682 1.9849 0.16605 1.1323 0.25032 3.0995 0.10784 0.98173 0.30954 1.8061 0.58495 2.8666 0.092758 0.67127 0.060227 0.82184-0.021577 0.97096-0.10186 0.96906-0.22918 1.2595-0.36351 1.2066-0.58107 1.3791-0.35537 0.70032-0.47501 0.83418-0.57938 0.89377-0.7205 0.94884-0.85727 0.97975-2.0573 2.2109-0.68597 0.79595-0.7535 0.99426-0.71685 1.1466-0.70935 1.4398-0.26611 0.73788-0.26583 0.97225-0.24814 1.3171-0.13228 1.0985-0.075223 1.1436-0.017868 0.90526 0.0566 1.8226 0.15526 2.0565 0.17332 1.7315 0.32729 2.6843 0.21003 1.4191 0.26902 1.4153 0.16902 0.6369 0.084543 0.2254 0.077462 0.079316-0.1073 0.1321-0.21885 0.1646-0.89607 0.54072-1.1161 0.5745-1.0421 0.47274-0.90476 0.36473-1.1718 0.4165-0.96581 0.28226-1.0281 0.22056-1.054 0.15073-0.92029 0.078125-0.94904 0.023417-1.0424-0.024536-1.6744-0.16394-2.6185-0.48557-0.9436-0.1275-0.70683-0.043118-1.1548 0.041344-0.59839 0.09477-0.95732 0.28451-4.1032 1.8054-1.0107 0.3634-1.1158 0.3003-0.64062 0.10122-0.84246 0.062734-2.3098 0.003359-2.4516 0.14895-2.4119 0.26049-1.2871 0.23677-1.6103 0.41893-1.1365 0.36403-2.5343 1.095-5.6887 2.3201-2.4557 0.95265-2.3364 0.76664-1.8425 0.45259-1.5925 0.26255-1.3556 0.087387-0.74947-0.020819-0.88839-0.080959-2.7845-0.46759-0.85658-0.1001-0.50349-0.01028-0.54708 0.041007-0.42104 0.067182-0.75102 0.19365-0.87836 0.34413-1.0233 0.56578-1.5848 1.0999-2.2767 1.7189-1.0109 0.71737-0.93519 0.59313-2.7619 1.6365-2.011 1.2972-1.4428 1.0121-1.2063 0.89927-1.8611 1.4808-0.75433 0.67341-0.90878-1.3872-1.1829-1.6695-3.9412-5.1948-0.94786-1.3495-0.8189-1.2749-0.50367-0.86401-0.71831-1.3915-1.7301-4.047-0.34424-0.71203-0.36979-0.66874-0.4046-0.61405-0.45-0.54579-0.52079-0.48962-1.5247-1.2939-1.3597-1.3855-1.1488-1.2644-0.57305-0.71146-0.53719-0.85402-0.2823-0.69468-0.1615-0.72877-0.041845-0.75436 0.17476-2.4334 0.01528-0.65154-0.084778-1.241-0.16112-0.93926-0.24074-0.93715-0.18174-0.55338-0.21176-0.54634-0.34211-0.73371-0.31734-0.57232-0.58732-0.90524-1.1151-1.5342-0.51627-0.65712-0.54772-0.62287-0.59148-0.56943-0.86488-0.65744-0.82726-0.50417-1.1085-0.55492-0.67695-0.24522-0.1364-0.004114-0.063135-0.02654-0.42499-0.56192-0.5136-1.0613-0.45498-1.329-0.27457-1.4306 0.009232-1.4107 0.20679-0.89344 0.28942-0.68486 0.22113-0.38163 0.35799-0.48724 0.54193-0.5595 0.53101-0.42075 0.66161-0.41061 1.0055-0.44542 1.0383-0.29852 1.6115-0.27006 1.7757-0.15764 1.5461-0.048812 0.93041 0.031765 3.1926 0.225 1.3529-0.0155 0.68968-0.066502 0.92994-0.18241 0.96766-0.33695 0.55865-0.26891 0.52166-0.30264 0.57553-0.40588 0.52813-0.44316 3.0446-3.0158 2.7208-2.5623 0.54626-0.56628 0.93016-1.1028 0.51742-0.74386 0.52962-0.9216 0.49512-1.066 0.42251-1.187 0.18637-0.74133 0.1121-0.75565 0.013383-0.88016-0.094793-0.64634-0.12212-0.43412-0.14996-0.39634-0.28691-0.57501-1.9793-3.019-0.35314-0.49504-0.48648-0.57677-0.80928-0.80544-1.0399-0.91804-1.1782-0.96426-2.2012-1.6973-0.97978-0.83522-1.1229-1.0648-2.0583-2.0733-0.85917-0.79209-0.62507-0.52079-0.63128-0.46926-0.78196-0.49316-0.64812-0.35016-0.85252-0.39252-0.83791-0.30653-0.83708-0.2383-0.93494-0.19984-1.283-0.15083-3.2552-0.15551-0.76919-0.067831-1.2079-0.17772-1.9172-0.43178-1.6542-0.51752-1.3519-0.55446-0.804-0.4159-0.48248-0.29618-0.89248-0.68332-0.27272-0.25763-0.5356-0.61288-0.69293-1.1721-0.25955-0.67958-0.21472-0.79911-0.24024-1.4044-0.12669-1.0344-0.083302-1.0174-0.022055-0.97799 0.096237-2.2656-0.00596-1.3564-0.097923-0.8566-0.12798-0.43238-0.20286-0.41537-0.22187-0.32097-0.35476-0.37575-0.65894-0.47116-0.74472-0.43614-0.7935-0.51993-0.74467-0.55232-1.9545-1.597-0.71979-0.46926-1.3356-0.72896-1.4692-0.69357-4.7371-2.0995-1.5533-0.784-1.2207-0.69539-3.1987-1.9369-0.49929-0.27758-1.0649-0.51771-0.88765-0.32911-0.85359-0.25906-0.86565-0.20989-4.296-0.77078-1.3503-0.34616-1.6913-0.51642-0.74963-0.27215-1.4982-0.61243-1.5452-0.72719-0.99433-0.61115-0.70634-0.55969-1.3074-1.2376-0.60792-0.66921-0.48586-0.63188-0.53136-0.8226-0.35912-0.69905-0.98185-2.36-0.38453-0.77166-0.80925-1.2446-1.1306-1.4921-1.323-1.6147-2.6987-3.0822-2.3253-2.5373-3.4292-3.6318-3.2878-3.4024-2.4505-2.4652-1.952-1.8758-2.0699-1.8791-1.0548-0.90447-1.2935-1.0492-1.3238-0.99335-1.3621-0.92224-1.4107-0.83182-1.7321-0.84763-1.7908-0.74354-5.5194-2.0649-2.8011-1.1652-1.683-0.75028-2.9233-1.4033-1.5242-0.80606-2.9974-1.7296-2.9499-1.8461-3.1423-2.0949-3.1867-2.2658-5.1375-3.8786-2.6945-1.9549-2.8814-1.9886-2.3126-1.5486-8.0992-5.2348-1.6451-1.1058-1.5732-1.1132-1.3258-0.98762-0.94237-0.7442-0.35084-0.33317 0.67488-0.92788 1.5118-1.8709 0.91555-1.0322 0.98141-1.0167 1.0334-0.95951 2.1041-1.724 2.1698-1.7322 2.1933-1.6394 1.1106-0.74837 1.1264-0.67756 1.1489-0.58533 1.2272-0.49802 1.2377-0.41266 3.5536-1.0806 1.0493-0.41395 2.5895-1.3393 0.74026-0.44947 0.67361-0.49383 0.24919-0.2188 0.53828-0.56755 1.0362-1.1993 0.61156-0.57088 2.2793-1.8326 0.92521-0.84006 0.6654-0.71277 0.62826-0.76463 0.59555-0.80116 1.6887-2.4884 0.62529-0.80366 0.70514-0.72405 0.84848-0.64258 1.0577-0.61201 1.3208-0.63521 1.4762-0.63554 2.0658-0.76505 2.9296-0.9135 3.1215-0.87845 3.6177-0.96986 0.34345-0.11964 29.219 2.8083 6.1 0.52857 3.976 0.24186 1.9558 0.057062 1.9284-0.00814 1.9173-0.094879 1.8709-0.19269 1.7842-0.3156 1.1531-0.31906 1.1302-0.40392 1.6639-0.73723 3.4524-1.8138 1.3115-0.65239 1.5483-0.67159 1.6484-0.59432 1.0888-0.32615 0.97555-0.25084 5.2837-1.0945 1.1287-0.27863 1.2358-0.37614 0.79403-0.30071 1.5548-0.76141 1.493-0.92476 1.4478-1.0391 1.416-1.111 4.1562-3.3849 1.3805-1.0151 1.389-0.88158 1.4035-0.68834 1.0004-0.33853 1.1694-0.24872 1.0614-0.077319 0.88195 0.074548 0.68103 0.15806 0.84405 0.31353 1.1938 0.57925 1.4624 0.78853 1.0852 0.63285 3.4997 2.2476 2.0437 1.3721 1.0634 0.64382 1.3605 0.68615 1.2583 0.49999 1.2497 0.37653 4.1389 0.97834 1.3162 0.33986 1.6562 0.49635 2.0815 0.75979 3.6722 1.4752 2.3071 0.85718 3.4159 1.1626 7.3957 2.3477 1.0977 0.38897 2.43 0.95276 2.1723 0.97184 1.6813 0.8637 1.1448 0.66983 1.4285 0.9389 4.4785 3.0812 1.6382 1.0332 1.0456 0.57702 1.3438 0.59352 1.6989 0.56102 1.7759 0.41211 1.1627 0.19099 1.9708 0.19647 1.1129 0.03799 1.2037-0.028265 0.98736-0.085914 1.076-0.16462 0.96862-0.2106 1.12-0.30591 1.1164-0.35825 1.7193-0.62682 5.0809-2.0452 2.3283-0.86913 2.3631-0.74023 1.6055-0.43974 2.1202-0.52824 1.4222-0.31277 2.1423-0.38546 4.3135-0.70397 2.3838-0.44238 1.843-0.36724 5.6477-1.2137 1.5809-0.24027 1.5501-0.10948 1.5594 0.051098 0.8879 0.090257 0.9998 0.14677 0.97668 0.19542 0.89298 0.23641 0.64452 0.23591 0.36538 0.29119" stroke="#bdc660"/>
    </defs>
    <g clip-path="url(#p63444e4457)">
     <use y="280.512" fill="#bdc660" stroke="#bdc660" xlink:href="#ma0f1790b6a"/>
    </g>
   </g>
  </g>
 </g>
 <defs>
  <clipPath id="p63444e4457">
   <rect x="7.2" y="7.2" width="308.78" height="266.11"/>
  </clipPath>
 </defs>
</svg>
