<?xml version="1.0" encoding="UTF-8"?>
<!DOCTYPE svg  PUBLIC '-//W3C//DTD SVG 1.1//EN'  'http://www.w3.org/Graphics/SVG/1.1/DTD/svg11.dtd'>
<svg width="231.87pt" height="280.51pt" version="1.1" viewBox="0 0 231.87 280.51" xmlns="http://www.w3.org/2000/svg" xmlns:xlink="http://www.w3.org/1999/xlink">
 <metadata>
  <rdf:RDF xmlns:cc="http://creativecommons.org/ns#" xmlns:dc="http://purl.org/dc/elements/1.1/" xmlns:rdf="http://www.w3.org/1999/02/22-rdf-syntax-ns#">
   <cc:Work>
    <dc:type rdf:resource="http://purl.org/dc/dcmitype/StillImage"/>
    <dc:date>2024-07-04T12:08:47.863198</dc:date>
    <dc:format>image/svg+xml</dc:format>
    <dc:creator>
     <cc:Agent>
      <dc:title>Matplotlib v3.7.1, https://matplotlib.org/</dc:title>
     </cc:Agent>
    </dc:creator>
   </cc:Work>
  </rdf:RDF>
 </metadata>
 <defs>
  <style type="text/css">*{stroke-linejoin: round; stroke-linecap: butt}</style>
 </defs>
 <g id="figure_1">
  <g id="patch_1">
   <path d="m-0 280.51h231.87v-280.51h-231.87v280.51z" fill="none"/>
  </g>
  <g id="axes_1">
   <g id="PatchCollection_1">
    <defs>
     <path id="m256ca8d9e7" d="m176.23-250.15 0.003719 0.070033 0.15822 0.2287 0.52574 0.57532 1.4336 1.4067 0.84409 0.937 0.67878 0.8913 0.7962 1.2213 0.67424 1.2232 0.79068 1.7986 0.45636 1.3587 0.3832 1.4402 0.38975 1.8807 0.3729 2.3002 0.29446 2.5965 0.04155 0.85774-0.030033 1.4179-0.11181 1.0559-0.7561 4.4491-0.088667 1.5309 0.083048 0.88811 0.16025 0.82348 0.26956 1.0199 0.3292 1.0491 0.60186 1.6086 0.81127 1.6078 0.98335 1.62 3.2261 4.884 1.4201 2.3089 0.97522 1.3858 1.059 1.3401 2.2774 2.598 1.0412 1.2842 0.96418 1.3738 0.84851 1.4568 0.58068 1.2532 0.60698 1.8516 0.2435 1.2799 0.070248 0.70428 0.029497 1.2081-0.022529 0.6193-0.18262 1.828-1.2646 7.5143-0.35804 1.8092-0.39128 1.4821-0.58564 1.6528-0.48299 1.1372-1.9944 4.2452-1.4775 2.8496-2.5334 4.5301-1.1096 2.233-0.75222 1.7394-0.63033 1.7325-0.34189 1.1072-0.5642 2.143-0.51293 2.4622-0.13218 0.88209-0.11185 1.2314 0.12717 1.8694 0.27948 0.91046 0.32382 0.71374 0.47277 0.82855 0.65614 0.97026 2.0294 2.5666 4.0599 4.6889 3.3371 3.7335 4.2818 4.5813 1.1863 1.3757 1.1451 1.4476 0.71812 0.98462 1.404 2.1835 0.93238 1.678 1.488 3.1151 1.4408 3.6316 1.0043 2.9007 0.71624 2.2954 0.83687 2.9932 0.71068 2.96 0.68305 3.565 0.28317 1.9298 0.28843 2.6389 0.10045 1.3755 0.060185 1.761-0.038961 1.873-0.14639 1.9844-0.25289 1.9994-0.39169 2.1223-0.37504 1.5375-0.39851 1.3551-0.51884 1.5126-0.70534 1.7851-2.318 5.028-0.53677 1.3193-1.0166 3.0109-0.47861 1.7828-0.24251 1.1181-0.28835 1.8685-0.18196 1.9495-0.092415 2.0775-0.007943 2.0658 0.102 2.0984 0.14036 1.4255 0.30106 1.9054 0.11012 0.46372 0.13804 0.30882-0.18034 0.10113-0.24324-0.005174-0.8732-0.24361-1.2098-0.57996-1.9222-1.1399-1.279-0.7003-1.4321-0.64117-1.4722-0.53221-1.2651-0.37992-2.2495-0.5256-2.3333-0.28343-2.405-0.062239-2.4282 0.10799-3.281 0.34611-2.5676 0.38454-1.5306 0.27892-1.5406 0.36892-1.7853 0.54376-1.5154 0.54952-4.8796 2.0368-1.1962 0.39841-1.5717 0.3436-1.3099 0.14671-1.329 0.059779-6.7909-0.1066-1.5202 0.12106-1.4435 0.3183-1.565 0.67938-1.4963 0.9319-2.9806 2.1806-2.812 1.9406-1.3855 0.86081-1.3756 0.70774-1.4106 0.5947-5.7053 2.0383-4.644 1.4604-2.2936 0.86324-1.6846 0.76696-2.2002 1.1764-1.3791 0.87688-1.2431 0.9572-1.1905 1.1701-0.4451 0.51326-0.73726 0.9853-0.5633 1.0214-0.38279 1.1614-0.16697 0.84474-0.34188 3.6204-0.201 1.111-0.29824 1.0473-0.24096 0.60973-0.74372 1.1983-0.59619 0.61224-0.49109 0.39512-1.0692 0.63805-1.019 0.43717-0.49664 0.14551-0.90821 0.13204-0.93655-0.060422-0.89231-0.25797-0.87065-0.42823-0.60564-0.40279-1.1434-1.0714-0.53422-0.72314-0.57957-1.031-0.25945-0.57699-0.4041-1.1975-0.10915-0.63903 0.001784-0.27568 0.080498-0.2355 0.12323-0.092975 0.25187-0.34858 0.58374-1.0026 0.58767-1.2663 0.41238-1.0833 0.35163-1.1391 0.29616-1.2511 0.20016-1.2613 0.089779-1.0437 0.022674-1.7721-0.25796-5.6639-0.042204-12.248-0.082193-1.5763-0.1147-1.1083-0.21935-1.213-0.24929-0.84892-0.26567-0.66946-0.4947-0.9702-0.3857-0.61352-0.54252-0.72707-0.6978-0.79907-2.0151-2.1086-1.544-1.8438-0.96814-1.4483-1.3465-2.6004-0.61169-0.97435-1.1204-1.5422-2.3197-2.9986-1.4077-1.7365-1.1292-1.2628-4.4832-4.4212-1.4175-1.5334-1.8384-2.226-4.5795-5.8265-1.7598-2.2658-0.89683-1.2301-0.98122-1.5178-0.65763-1.1682-0.85281-1.78-0.54868-1.4804-0.40568-1.4982-0.14458-0.84974-0.047859-1.0476 0.016621-0.2306 0.006742-0.065894 0.061437-0.11063 0.055369-0.16314-0.6925-1.3824-0.96774-2.2728-1.0092-2.7287-1.0463-3.1098-1.0896-3.8021-1.4993-6.1169-0.5305-1.9726-0.55164-1.7834-0.66314-1.8778-1.0081-2.5176-1.2929-2.8795-2.7128-5.2203-0.6955-1.5655-0.53484-1.6742-0.23571-1.3989-0.38087-5.3973-0.27332-2.3067-0.33558-1.5346-0.53723-1.5544-0.70646-1.4099-0.86901-1.2102-1.033-0.94568-0.81254-0.47286-1.1074-0.42981-2.349-0.62846-1.0657-0.34597-0.48279-0.2052-0.94663-0.52662-0.85926-0.70825-0.61423-0.68498-0.53468-0.75838-0.43934-0.78378-0.48901-1.1176-0.38929-1.1671-0.41146-1.7923-0.25211-2.2199-0.14121-2.592-0.098232-0.97548-0.34085-2.0245-0.44534-1.7933-0.31173-0.97886-0.40838-1.0521-0.35258-0.76161-0.7632-1.3986-0.86996-1.3458-1.0053-1.2459-0.77855-0.75106-0.68065-0.5355-1.9386-1.0859-1.6885-0.61653-2.3824-0.59539-1.4834-0.2973-1.893-0.30623-1.6332-0.18095-1.1665-0.069656-1.0678-0.020797-1.729 0.043751-2.2545 0.14063-2.7933 0.24621-1.7288 0.062941-0.88618-0.034303-0.52019-0.071391-0.33469-0.11235-0.1155-0.10096-0.023383-0.11987 0.11525-0.21716 0.45331-0.33944 0.76314-0.44157 0.96732-0.47994 2.4814-1.0615 5.897-2.3046 3.0674-1.3735 1.7314-0.90277 1.7486-1.0079 2.9965-1.9326 1.3994-1.0043 1.7721-1.4049 1.46-1.3217 1.2084-1.2413 0.87512-0.99741 1.1697-1.4843 0.97138-1.3609 1.4715-2.287 1.3037-2.2472 1.7553-3.3189 1.4479-3.0245 0.9071-2.1207 0.92922-2.4879 0.42831-1.3293 0.70858-2.6556 0.37731-1.8745 0.3646-2.6571 0.13341-1.851 0.008153-2.8043-0.16779-2.3877-0.33212-2.4812-0.39438-2.0535-0.63226-2.5279-0.62042-1.9893 0.4669 0.0564 0.86113 0.49623 3.2886 2.5917 0.77274 0.50493 0.53651 0.28384 0.50263 0.20696 0.63809 0.17414 0.8492 0.086438 0.5321-0.026602 0.48733-0.077008 0.57319-0.15435 1.2341-0.60431 1.0647-0.89369 0.40153-0.4659 0.68099-1.0253 0.42065-0.90433 0.84044-2.4132 0.3576-0.90266 0.28606-0.59132 0.7396-1.0713 0.50184-0.4597 0.53333-0.35762 0.46668-0.23826 0.91331-0.33312 6.2831-1.738 1.4793-0.35973 2.0041-0.37114 1.3605-0.16681 1.4988-0.091993 1.4985 0.047369 1.6462 0.26091 1.6483 0.41664 3.3287 0.95842 2.4226 0.54527 1.5155 0.2045 2.1538 0.019881 2.2253-0.2262 2.2748-0.39138 6.9421-1.4848 2.3963-0.41832 2.3154-0.31492 3.5496-0.2992 5.5925-0.72256 1.6551-0.091718 1.1798 0.037863 1.1501 0.10116 1.479 0.1958 1.3967 0.32444 1.2778 0.54356 0.99267 0.71121 0.88302 0.90255 0.9665 1.3398 0.68896 1.2725 0.47701 1.1489 0.31052 0.98145 0.21292 0.9092 0.14764 0.98077 0.042838 1.8753-0.065898 1.5446 0.02072 2.396 0.2285 3.4444 0.11905 1.0888 0.16174 0.87907 0.23366 0.82504 0.21791 0.55816 0.51317 0.97692 0.63938 0.79444 0.78132 0.53079 0.76209 0.18468 0.39436 0.004296 0.87654-0.14881 0.96669-0.3136 2.4009-1.0123 8.353-4.1177 5.7864-2.7985 3.7323-1.7054 2.7319-1.1158 3.2249-1.1397 1.8447-0.54115 1.2752-0.30542 1.5376-0.2798 1.4832-0.17221 0.90176-0.003184 0.22198 0.049803 0.086658 0.1141" stroke="#bdc660"/>
    </defs>
    <g clip-path="url(#p7f32a07a6a)">
     <use y="280.512" fill="#bdc660" stroke="#bdc660" xlink:href="#m256ca8d9e7"/>
    </g>
   </g>
  </g>
 </g>
 <defs>
  <clipPath id="p7f32a07a6a">
   <rect x="7.2" y="7.2" width="217.47" height="266.11"/>
  </clipPath>
 </defs>
</svg>
