<?xml version="1.0" encoding="UTF-8"?>
<!DOCTYPE svg  PUBLIC '-//W3C//DTD SVG 1.1//EN'  'http://www.w3.org/Graphics/SVG/1.1/DTD/svg11.dtd'>
<svg width="248.36pt" height="280.51pt" version="1.1" viewBox="0 0 248.36 280.51" xmlns="http://www.w3.org/2000/svg" xmlns:xlink="http://www.w3.org/1999/xlink">
 <metadata>
  <rdf:RDF xmlns:cc="http://creativecommons.org/ns#" xmlns:dc="http://purl.org/dc/elements/1.1/" xmlns:rdf="http://www.w3.org/1999/02/22-rdf-syntax-ns#">
   <cc:Work>
    <dc:type rdf:resource="http://purl.org/dc/dcmitype/StillImage"/>
    <dc:date>2024-07-04T12:08:40.420853</dc:date>
    <dc:format>image/svg+xml</dc:format>
    <dc:creator>
     <cc:Agent>
      <dc:title>Matplotlib v3.7.1, https://matplotlib.org/</dc:title>
     </cc:Agent>
    </dc:creator>
   </cc:Work>
  </rdf:RDF>
 </metadata>
 <defs>
  <style type="text/css">*{stroke-linejoin: round; stroke-linecap: butt}</style>
 </defs>
 <g id="figure_1">
  <g id="patch_1">
   <path d="m0 280.51h248.36v-280.51h-248.36v280.51z" fill="none"/>
  </g>
  <g id="axes_1">
   <g id="PatchCollection_1">
    <defs>
     <path id="me7ab632c21" d="m191.14-257.16 0.16441 0.30202 0.23994 0.85518 0.18918 0.84393 0.25822 1.38 0.32601 2.3362 0.18824 2.1229 0.068781 1.4973-0.00742 2.7724-0.16657 3.1911-0.3673 4.1176-0.43158 3.7554-0.84069 6.76-0.16862 1.6721-0.090337 1.2077-0.067527 1.7151 0.018169 1.9367 0.053951 1.0697 0.22329 2.2849 0.26602 1.6962 0.19229 0.95959 0.50506 1.983 0.48723 1.5387 0.48082 1.3466 2.4146 6.1124 0.4576 1.2514 0.52204 1.5763 0.53605 1.8886 0.67366 2.9434 0.37259 2.045 0.41016 2.8214 0.28958 2.5941 0.178 2.1417 0.11559 2.1835 0.038575 2.0492-0.074059 2.8059-0.12852 1.7907-0.18301 1.8739-1.0792 8.8055-0.37742 3.6839-0.19009 3.0111-0.037464 1.3979 0.008451 1.6318 0.063773 1.2863 0.16678 1.7681 0.14381 1.0996 0.38633 2.3206 0.65787 3.1789 1.4828 6.2652 0.47848 2.161 0.40045 2.1665 0.21494 1.5099 0.09922 1.019 0.013193 1.4652-0.040622 0.56039-0.20047 1.6064-0.78747 5.2468-0.14359 1.3453-0.098874 1.6937 0.006406 1.2177 0.074281 1.0845 0.23809 1.6395 0.2451 1.1648 0.68389 2.5123 0.77914 2.3751 2.3417 6.4701 1.1112 2.9079 0.96112 2.2298 0.86836 1.7154 0.5715 0.96778 0.92976 1.3231 0.6858 0.79657 0.68817 0.67033 0.88047 0.72683 1.085 0.76598 1.9857 1.193 4.3738 2.3485 1.51 0.86274 1.6789 1.0645 1.3977 1.0186 0.71764 0.58321 1.0322 0.91288 1.7454 1.6998 3.6806 3.8991 0.53529 0.60072 0.26419 0.36796-0.097519 0.14232-0.68965 0.5705-2.0061 1.4524-1.8041 1.2001-1.6764 1.0265-2.7916 1.53-2.1966 1.0893-4.2394 2.0273-1.8787 0.97332-1.1693 0.66055-2.0342 1.252-1.1403 0.75782-1.6912 1.202-1.5221 1.1803-1.698 1.4375-1.4325 1.3575-0.83165 0.9145-0.6168 0.78882-0.5861 0.87981-1.4807 2.5861-0.83832 1.36-1.0462 1.4136-0.77733 0.83463-0.37151 0.32522-0.67002 0.47621-0.53348 0.3076-1.0151 0.48205-2.3446 0.98424-2.4527 1.2372-1.2223 0.4715-0.89397 0.25449-3.0827 0.6225-0.54109 0.13016-1.1106 0.34203-0.89887 0.36272-1.193 0.5566-1.11 0.63759-1.9107 1.4165-0.87867 0.54999-0.90984 0.43834-0.98233 0.31052-0.71517 0.1017-0.56103-0.008973-0.29682-0.041567-1.008-0.34045-0.8602-0.48337-0.75093-0.51349-1.8571-1.3722-1.0531-0.70284-1.0868-0.60057-0.55357-0.25051-0.83948-0.30049-0.92286-0.21285-1.3713-0.126-1.1575 0.031782-1.2395 0.14916-0.96384 0.18765-1.7256 0.47868-1.6211 0.60751-1.1178 0.49705-1.9375 0.97929-1.468 0.81834-3.8043 2.3026-1.8317 1.1812-1.0752 0.74824-0.88352 0.66676-0.87035 0.72405-0.86849 0.81522-0.5348 0.55564-1.0636 1.2224-0.58544 0.73804-1.455 2.0039-1.0532 1.5706-3.4738 5.4397-0.95481 1.4219-1.1331 1.5555-0.77374 0.9489-0.98228 1.0347-0.91268 0.76332-0.89028 0.5386-0.96258 0.33738-0.44561 0.068762-0.53668 0.019796-0.72004-0.062954-0.71288-0.14644-1.2047-0.40528-0.85353-0.39432-0.87056-0.48506-1.0072-0.65192-1.2912-0.95168-2.0764-1.7311-2.2803-2.0857-5.0383-4.7627-2.1121-1.8603-1.1556-0.90567-0.76127-0.50771-0.42792-0.20106-0.20502 0.062229-0.24629 0.093917-0.48721 0.009762-0.68486-0.076914-0.74983-0.15216-0.64506-0.18026-0.53962-0.18771-0.87446-0.38583-1.1507-0.69715-0.77175-0.62542-0.75442-0.80642-0.51363-0.7676-0.37763-0.93654-0.098098-0.7082 0.057759-0.62694 0.17024-0.5823 0.48668-0.94672 0.78234-1.0551 2.6026-2.8368 0.93531-1.1411 0.76963-1.2079 0.53006-1.2889 0.19089-0.9311 0.063131-0.95944-0.070695-1.2341-0.20322-1.2359-0.41907-1.5969-0.47737-1.3386-0.40786-0.93685-0.80824-1.6674-0.47771-1.2594-0.30733-1.1512-0.13998-0.80417-0.060642-0.67375 1.64e-4 -0.68279 0.13278-1.1089 0.25103-1.1465 0.25466-0.96843 2.2824-7.56 0.31864-1.2023 0.44656-1.9927 0.26506-1.7705 0.096568-1.4462-7.13e-4 -1.6021-0.096421-1.5668-0.21547-1.7616-0.23446-1.2925-0.33912-1.3964-0.54788-1.6429-0.68567-1.4336-0.68714-0.99321-0.39649-0.42788-0.4388-0.37675-0.3747-0.25476-0.58531-0.30862-0.73001-0.27905-0.94972-0.24364-0.98904-0.15145-0.86273-0.068642-1.1719-0.021228-1.1164 0.040366-1.9189 0.17013-1.2117 0.15764-1.8298 0.30494-1.0432 0.21102-1.0064 0.23051-2.1992 0.59856-2.8898 0.96825-3.3962 1.3373-3.9606 1.7272-4.1994 2.0272-1.5678 0.80564-2.5051 1.3797-2.0081 1.245-2.1714 1.5261-3.8129 2.8639-3.9957 3.1512-0.40934 0.27755-0.10181-0.31256-0.3564-0.61766-0.91758-1.4073-6.3406-8.7938-0.97604-1.4147-1.4017-2.1763-1.7521-2.9897-1.9923-3.6692-1.3063-2.6626-1.1947-2.7607-1.186-3.1151-2.4456-6.213-0.82298-2.3715-0.43278-1.3951-0.50716-1.9206-0.18001-0.86164-0.15524-0.98901-0.085926-1.239 0.013632-0.57218 0.12971-1.1633 0.50038-2.494 0.090824-0.6519 0.034019-0.60545-0.044016-0.73621-0.12927-0.71252-0.24651-0.83858-0.5234-1.387-0.4359-0.96014-0.34721-0.63593-0.4148-0.64793-0.561-0.72236-0.57358-0.59907-0.92612-0.80668-0.44596-0.31856-0.78182-0.44569-2.6106-1.0941-1.3821-0.65867-0.8757-0.53934-0.54181-0.42824-0.91466-0.92284-0.79164-1.012-0.88228-1.3786-0.37835-0.74324-0.32183-0.77328-0.32031-1.0029-0.19101-0.851-0.10004-0.67257-0.1011-1.2779 0.006261-1.349 0.12405-1.7758 0.21973-1.2481 0.36917-1.2501 0.74168-1.8812 0.77324-1.5931 0.41941-0.75055 0.66913-1.066 0.42161-0.59912 0.73563-0.89484 0.66742-0.63393 0.9477-0.69304 1.3036-0.75676 1.3667-0.67492 3.7725-1.6792 1.8935-0.88416 3.5049-1.7827 1.8405-1.0446 1.3997-0.94104 2.5437-1.9518 3.3976-2.7635 2.2195-1.8923 0.96374-0.94807 0.65956-0.77977 0.34267-0.4835 0.37707-0.63365 1.2897-2.6421 0.47723-0.81092 0.65644-0.98538 0.80303-1.0937 1.2223-1.4472 0.87955-0.92333 1.5386-1.5138 2.3414-2.1608 1.5252-1.2925 3.0718-2.4025 0.75776-0.67317 0.85868-0.89794 0.39347-0.47118 0.68096-0.90826 0.39534-0.61286 0.34174-0.62836 0.29789-0.68796 1.2124-3.4858 0.32936-1.0424 0.15228-0.69075 0.062401-0.48737 0.016411-0.6771-0.08783-0.91676-0.57484-2.779-0.20781-1.4604-0.020921-0.90082 0.040911-0.48898 0.088441-0.5031 0.32024-1.0709 0.46588-1.0982 0.5953-1.1804 1.6002-2.9602 0.72416-1.5658 0.26612-0.71068 0.20474-0.6742 0.19185-0.93079 0.080537-1.0201-0.017813-0.89641-0.081241-0.94304-0.58783-4.04-0.13763-1.6623 0.051497-2.8397-0.013109-1.4915-0.11573-3.1762-0.002969-1.7067 0.11006-1.4092 0.1623-0.89693 0.42197-1.2414 0.18075-0.35286 0.3857-0.61242 0.47526-0.62091 0.52266-0.59467 0.58636-0.60173 0.88301-0.82474 2.8099-2.4114 2.218-1.737 2.3008-1.6088 1.1037-0.6961 1.3235-0.76795 2.2299-1.1337 1.9637-0.84303 2.412-0.8616 1.8704-0.54913 1.9699-0.4666 1.9607-0.37043 1.415-0.18174 1.4314-0.098821 1.2676-0.026385 1.8066 0.025099 4.1476 0.15166 2.2728-0.033385 1.7822-0.12362 2.0606-0.2365 1.7041-0.30232 0.44054-0.1291 0.071219-0.069733 0.25394-0.12523 0.58437-0.17184 1.5997-0.36481 1.4485-0.23721 2.13-0.22194 1.8226-0.11301 1.5124-0.048244 7.6019 0.040253 1.3872-0.034347 1.7129-0.12412 4.3278-0.43432 5.5902-0.66899 1.6703-0.064366 1.1772 0.082987 0.70612 0.12789 0.44999 0.11982 0.88195 0.32751 0.87125 0.45098 0.66266 0.42679 1.3058 1.0402 3.1299 2.892 1.6075 1.4284 1.5613 1.2394 1.0474 0.71706 0.94899 0.52631 0.84221 0.34571 0.96951 0.24996 1.1154 0.11302 0.6941-0.013645 0.73642-0.085719 1.1943-0.2612 0.76767-0.21739 2.2271-0.7603 3.0552-1.2429 1.0421-0.38944 1.5521-0.5267 1.2129-0.33824 1.5692-0.31174 1.3562-0.19218 3.4522-0.25343 1.9246-0.23598 1.7691-0.32726 3.7813-0.873" stroke="#bdc660"/>
    </defs>
    <g clip-path="url(#p745b417b36)">
     <use y="280.512" fill="#bdc660" stroke="#bdc660" xlink:href="#me7ab632c21"/>
    </g>
   </g>
  </g>
 </g>
 <defs>
  <clipPath id="p745b417b36">
   <rect x="7.2" y="7.2" width="233.96" height="266.11"/>
  </clipPath>
 </defs>
</svg>
