<?xml version="1.0" encoding="UTF-8"?>
<!DOCTYPE svg  PUBLIC '-//W3C//DTD SVG 1.1//EN'  'http://www.w3.org/Graphics/SVG/1.1/DTD/svg11.dtd'>
<svg width="371.52pt" height="250.78pt" version="1.1" viewBox="0 0 371.52 250.78" xmlns="http://www.w3.org/2000/svg" xmlns:xlink="http://www.w3.org/1999/xlink">
 <metadata>
  <rdf:RDF xmlns:cc="http://creativecommons.org/ns#" xmlns:dc="http://purl.org/dc/elements/1.1/" xmlns:rdf="http://www.w3.org/1999/02/22-rdf-syntax-ns#">
   <cc:Work>
    <dc:type rdf:resource="http://purl.org/dc/dcmitype/StillImage"/>
    <dc:date>2024-07-04T12:08:38.156232</dc:date>
    <dc:format>image/svg+xml</dc:format>
    <dc:creator>
     <cc:Agent>
      <dc:title>Matplotlib v3.7.1, https://matplotlib.org/</dc:title>
     </cc:Agent>
    </dc:creator>
   </cc:Work>
  </rdf:RDF>
 </metadata>
 <defs>
  <style type="text/css">*{stroke-linejoin: round; stroke-linecap: butt}</style>
 </defs>
 <g id="figure_1">
  <g id="patch_1">
   <path d="m0 250.78h371.52v-250.78h-371.52v250.78z" fill="none"/>
  </g>
  <g id="axes_1">
   <g id="PatchCollection_1">
    <defs>
     <path id="m7b7cf57d14" d="m342.34-226.49 0.11072 0.071751 0.13874 0.37651 0.31903 0.50824 2.2019 3.2299 0.63061 1.0503 0.43071 0.82156 0.76127 1.8039 0.61448 2.1065 0.28218 1.4479 0.20684 1.7354 0.051904 1.0199-0.021355 1.2473-0.18989 1.6251-0.31642 1.3967-0.63247 1.8587-0.67626 1.4965-0.73117 1.3123-0.75713 1.1052-0.77706 0.9365-1.2038 1.1892-1.0274 0.86954-2.2992 1.8158-3.3185 2.8382-5.5739 4.3193-2.7022 2.1605-1.8137 1.5516-1.5331 1.4022-1.1974 1.1751-0.8406 0.89994-1.1656 1.4109-0.81338 1.1732-0.56012 0.95958-0.64667 1.4573-0.22964 0.77177-0.26698 1.3416-0.2605 1.7242-0.077289 0.92096 0.026569 0.73678 0.113 0.64475 0.21279 0.61068 0.38734 0.64192 0.56535 0.54024 0.83027 0.38176 0.72988 0.064369 0.54485-0.095602 0.67106-0.28304 0.72321-0.49898 1.3504-1.2783 0.47712-0.38382 0.31914-0.18693 0.42309-0.15841 0.34473-0.060038 0.41991 0.001584 0.48381 0.090209 0.49649 0.1766 0.39622 0.19689 0.48981 0.31575 0.51408 0.43048 0.4381 0.45515 0.48538 0.59538 0.6788 0.95858 0.58011 0.9602 0.26549 0.5559 0.21752 0.58315 0.20762 0.80263 0.1502 1.108 0.032718 1.1786-0.087036 1.4473-0.21616 1.6455-0.36124 1.8982-0.82945 3.5348-0.46826 2.3178-0.10871 0.92574-0.1111 1.7688-0.12251 0.9598-0.25906 1.0294-0.24827 0.69613-0.40767 0.9335-1.2618 2.4569-0.67072 1.4102-1.0483 2.651-0.48909 1.4617-0.22466 1.0211-0.031643 1.0677 0.076297 0.41932 0.21446 0.59362 0.44449 0.69076 0.34254 0.35285 0.70274 0.55021 0.94752 0.66156 1.312 1.0226 1.4363 1.2457 2.7078 2.5711 2.3525 2.4457 1.1344 1.2758 1.3736 1.6654 1.2831 1.7148 1.0857 1.6577 0.76775 1.4007 0.62223 1.4233 0.47755 1.5713 0.23468 1.4309 0.097531 1.3886 0.061536 2.7424 0.058891 1.1223-0.51034 0.38154-1.3798 0.51843-1.4418 0.4341-1.6193 0.41173-1.5097 0.31901-1.5296 0.25299-2.0354 0.19812-1.9344-0.022143-1.1039-0.13924-3.8825-0.81421-1.4155-0.088514-1.1151 0.16836-1.0519 0.37433-0.93502 0.52714-0.70737 0.55319-0.25747 0.24463-0.6491 0.75966-0.5987 1.0427-0.31857 1.138 0.030205 1.3739 0.36602 1.4213 0.60808 1.4218 1.8543 3.5193 0.8178 1.7106 0.77957 1.7826 0.70794 1.8246 0.59573 1.8299 0.44534 1.8171 0.2423 1.7756-0.028378 1.7023-0.28128 1.3362-0.5244 1.229-0.40696 0.63615-0.42645 0.52521-0.31195 0.32742-1.1418 0.96261-0.74169 0.50656-1.1069 0.65498-1.5278 0.78199-1.5851 0.73481-3.4335 1.5196-1.9505 0.72861-2.0462 0.66303-2.1143 0.61562-4.3564 1.1402-17.891 4.226-4.4531 1.1107-2.2104 0.5897-2.1936 0.62611-2.1702 0.67728-2.1378 0.74832-2.4917 1.0235-2.3244 1.1568-3.0425 1.7488-2.753 1.6869-3.5442 2.2282-2.5926 1.7348-1.8883 1.3656-3.2686 2.459-3.3421 2.6443-1.6615 1.4144-1.628 1.4919-1.5681 1.5819-1.3698 1.5364-1.8677 2.2963-4.5401 5.9598-0.35946 0.45014-0.32622 0.32217-0.01296-0.13888-0.070556-0.028009-0.13028 0.10022-1.1645 1.689-0.73762 0.91848-0.40723 0.3929-1.0972 0.83602-0.61049 0.61035-0.57522 0.69354-0.6489 0.91178-0.62756 1.0456-0.56013 1.1248-0.49837 1.1628-0.45693 0.8183-0.73062 0.9124-0.30796 0.28511-0.44326 0.31121-0.51335 0.27035-1.0074 0.37318-0.9496 0.23484-1.5944 0.23439-1.5756 0.10865-1.5665 0.010894-0.90843-0.049875-3.1216-0.27773-1.3885-0.004759-0.67706 0.066604-1.1647 0.20639-0.90089 0.21984-0.75714 0.2398-0.22966-0.46204-0.13482-1.0095-0.03282-1.3041 0.09371-2.7557-0.071299-0.95358-0.23279-1.1341-0.32179-0.98017-0.2833-0.69058-0.841-1.6433-0.7057-1.1102-0.77268-1.0358-0.74297-0.85183-0.776-0.74964-1.0925-0.80995-1.1382-0.51417-0.35703-0.08785-0.80985-0.096006-0.88373-0.002001-2.0384 0.075998-1.5709-0.030429-0.73387-0.06827-0.92491-0.15757-0.90199-0.25903-0.77188-0.32936-0.98357-0.56582-0.7869-0.56983-0.65932-0.56359-1.0498-1.0819-0.86109-1.1107-0.5985-0.93563-0.76611-1.3412-0.72001-1.4062-0.96666-2.0343-0.89369-1.7092-1.2271-2.1471-1.5899-2.5834-0.95592-1.4768-2.1547-3.188-1.9675-2.8116-0.77844-1.2796-0.52572-1.0142-0.29881-0.66281-0.50626-1.352-0.27627-0.9174-0.24461-0.98894-0.28069-1.8667-0.053961-0.96762 0.001833-0.96356 0.15473-1.9327 0.31181-1.6511 0.53397-2.1135 0.92699-3.1227 0.27846-1.3155 0.12816-1.2213-0.005369-1.2232-0.1165-0.93185-0.23954-0.9793-0.36782-1.0651-0.97806-2.4793-0.75449-2.0786-0.50774-1.7498-0.27407-1.4025-0.21808-1.613-0.19526-2.2639-0.069356-1.3943-0.12977-5.3543-0.16699-2.2672-0.1864-1.2379-0.41435-1.5888-0.58218-1.2922-0.81611-1.0557-0.94276-0.69358-1.0317-0.45796-1.5039-0.36504-1.1844-0.12794-1.6601-0.016524-1.0986 0.067243-1.1242 0.11844-2.4051 0.38348-2.3238 0.49777-1.3217 0.32152-7.3554 1.8884-1.8265 0.40773-1.8849 0.36753-3.7076 0.64406-1.8904 0.39184-1.405 0.36075-1.37 0.42922-1.1235 0.42502-1.3508 0.62175-1.2202 0.69914-1.6621 1.2318-0.86572 0.80362-0.80329 0.86976-1.2503 1.6603-0.90695 1.5302-0.4929 1.0026-0.44015 1.0356-0.6644 1.9113-0.4784 1.7285-0.42424 1.8583-0.34408 1.77-0.37397 2.3156-0.27226 2.1624-0.14372 1.5341-0.09586 1.5324-0.038165 1.4096 0.032785 1.7517 0.13005 1.7354 0.23237 1.6775 0.35135 1.6466 0.46486 1.5351 0.32273 0.843 0.4795 1.0691 0.52591 1.0258 0.57152 1.0103 1.1196 1.8013 3.0605 4.5911 1.6954 2.6661 0.98991 1.6897 0.73098 1.3659 0.73339 1.5481 0.47924 1.1983 0.45855 1.6407 0.080097 0.90432-0.056908 0.61882-0.12835 0.48937-0.43451 0.83648-0.87993 0.8922-1.2619 0.72411-1.132 0.39234-0.90004 0.20026-0.95145 0.1294-1.4836 0.063447-1.7823-0.10815-1.2937-0.17904-1.3355-0.25252-2.7216-0.65888-6.3899-1.7708-1.2784-0.29484-1.6741-0.32898-2.2841-0.33042-1.8139-0.15097-1.3673-0.044484-1.4777 0.021705-1.2694 0.077548-1.2216 0.13187-1.4591 0.26019-0.95887 0.25795-0.97401 0.35749-0.97466 0.47341-1.0235 0.64078-1.2826 1.0468-1.146 1.2302-1.1757 1.6716-0.86413 1.605-0.90764 2.2064-0.46855 1.4618-0.39589 1.5112-0.30327 1.4319-0.24369 1.4501-0.25662 2.1626-0.14095 2.0896-0.045946 1.6419 0.002867 1.4675 0.079757 2.2034-0.081081 0.3565-0.021604 0.10876-0.29936 0.35651-0.43218 0.23703-0.54998 0.10995-0.54998-0.025898-0.639-0.14527-0.60519-0.2223-0.74835-0.36285-2.908-1.7419-1.8736-1.0453-1.5348-0.73315-1.0802-0.43016-1.0053-0.32657-1.1476-0.28112-2.0579-0.24059-1.1803 0.022802-1.3117 0.14257-1.9197 0.38076-1.6722 0.46155-1.5422 0.50509-5.3779 2.0042-4.9327 2.0408-0.98833 0.38061-0.9766 0.32454-1.1154 0.27591-1.1108 0.1355-1.6919-0.10665-1.6944-0.39232-1.2172-0.3932-3.5658-1.3124-1.8818-0.57527-4.2093-0.85389-1.3356-0.44807-0.85354-0.41944-1.3232-0.86071-1.0572-0.84483-1.8783-1.7456-1.8716-1.9347-0.9139-1.0088-1.4038-1.6697-0.8768-1.1604-0.65724-0.98251-0.49661-0.90452-0.40795-0.93814-0.25415-0.75517-0.21642-0.87014-0.14296-0.84405-0.088364-0.93383-0.014103-0.98828 0.11262-1.2664 0.24283-1.0844 0.49654-1.1815 0.62906-0.89841 0.73898-0.75978 0.80007-0.65368 0.79839-0.54924 1.3599-0.77979 1.2933-0.62237 1.7808-0.74684 1.6264-0.60124 2.3411-0.76499 2.2198-0.60365 3.3836-0.80857 1.0326-0.29975 1.2961-0.44598 2.1749-0.90849 4.1854-1.939 2.9514-1.2998 2.7964-1.1134 4.8745-1.8247 1.3403-0.5505 1.2848-0.58172 1.5958-0.81234 1.215-0.72452 0.99398-0.6945 0.96292-0.78825 0.89384-0.88321 0.64332-0.77864 0.49992-0.79772 0.264-0.66018 0.12891-0.65252-0.025707-0.79729-0.20071-0.80085-0.60493-1.1914-0.4517-0.58276-0.53051-0.51873-0.47092-0.35666-0.63655-0.39894-4.3875-2.5294-1.3737-0.67536-2.4916-0.9614-0.89889-0.38251-1.406-0.66075-0.83745-0.46083-1.2325-0.85931-0.46856-0.38575-1.1564-1.0886-1.3491-1.5147-1.1148-1.4567-0.76814-1.1208-0.74008-1.1717-1.1457-1.9895-0.85119-1.6166-1.1084-2.3207-0.61067-1.4555-0.52765-1.4827-0.51334-1.8939-0.24501-1.2482-0.17131-1.2392-0.10381-1.2835-0.04394-1.2393-3.42e-4 -1.8575 0.07377-2.8747 0.41046 0.092222 0.73533-0.19338 0.98695-0.46585 1.1315-0.73482 0.84309-0.66692 1.3231-1.2477 1.0989-1.1926 1.0801-1.2997 0.62614-0.84481 0.48739-0.73229 0.49631-0.84026 0.41504-0.79858 0.55686-1.2465 1.4767-3.8349 0.70367-1.5155 0.71043-1.2737 0.59408-0.88092 0.57792-0.72992 1.2862-1.3659 1.5017-1.3267 1.4958-1.1704 1.3661-0.95806 2.6236-1.7208 0.93925-0.57962 1.0777-0.59186 3.796-1.8759 2.4076-1.304 1.6454-1.0093 1.2739-0.89688 0.70183-0.56497 0.63254-0.5706 0.77197-0.82832 0.25101-0.345 0.26453-0.4575 0.29762-0.82632 0.096817-0.97554-0.1775-1.4314-0.3452-1.2976-0.80467-2.5937-0.43839-1.8266-0.12419-0.94513-0.025914-0.75233 0.016876-0.39305 0.11508-0.84508 0.17881-0.72666 0.49899-1.3468 0.29065-0.61742 1.1271-2.023 1.7622-2.9942 1.0947-1.9704 0.76013-1.5511 0.44574-1.0774 0.42145-1.2643 0.40697-1.6828 0.24076-1.7034 0.012841-1.6698-0.18278-1.6465-0.33731-1.6501-0.34806-1.2601-0.48249-1.3373-0.39564-0.85668-0.89467-1.5565-1.5015-2.3746-0.93962-1.6708-0.63168-1.4333-0.60644-1.7201-0.51945-1.7516-1.0867-3.9482-0.3331-1.0803-0.63807-1.7621-0.42335-0.92963-0.44424-0.77216-0.32222-0.4424-0.25297-0.27821-0.23519-0.17657-0.1545-0.004161 0.85896-0.76681 2.1192-1.6862 1.3736-1.024 1.643-1.1525 2.2899-1.4771 3.145-1.8635 1.0649-0.6754 1.1511-0.81687 2.5925-1.9573 1.8046-1.2525 1.1653-0.64426 1.0002-0.39186 0.8552-0.22051 0.47944-0.076501 0.62296-0.046695 0.57332 0.011707 0.97538 0.11399 3.1707 0.53245 1.0116 0.092188 0.85342 0.023707 1.5436-0.099508 1.8134-0.29896 2.0981-0.51536 2.6605-0.87298 2.7964-1.0848 6.4778-2.6419 2.8858-1.2468 1.2942-0.41452 1.8336-0.47704 1.4656-0.26961 2.7464-0.29662 2.7917-0.16961 2.6301-0.003825 0.95932-0.071435 0.72947-0.11526 1.2705-0.34196 1.1509-0.41381 4.6724-2.0559 1.0901-0.32397 0.68139-0.10792 1.315-0.047079 0.80487 0.049099 1.0745 0.14518 2.9817 0.55292 1.9067 0.18667 1.1869 0.027939 1.0807-0.026665 1.0479-0.088961 1.2002-0.17164 1.1707-0.25116 1.0998-0.3214 1.3343-0.47427 1.0303-0.41532 1.1866-0.53832 1.2709-0.65419 1.0204-0.61572 0.2492-0.18743 0.12218-0.15042-0.014938-0.15604 0.074167-0.15715 0.33157-0.29455 0.46124-0.24142 0.5203-0.19263 0.7542-0.19549 0.66436-0.096157 0.81067-0.034207 0.50478 0.030372 0.5298 0.072861 0.83613 0.17845 0.6798 0.19529 0.8234 0.30026 1.4264 0.67685 1.7825 1.0109 0.64151 0.43665 0.77145 0.63873 0.25508 0.2493 0.99486 1.1907 1.2835 1.926 2.4683 3.9896 0.99016 1.4967 1.2292 1.6349 1.221 1.3773 1.3284 1.2513 0.5725 0.46436 0.81212 0.58885 0.90578 0.57536 1.0357 0.57386 1.3326 0.62505 1.2084 0.464 0.90911 0.29391 1.2328 0.32475 1.2632 0.20132 1.8961-0.016809 1.1087-0.1532 1.1237-0.23904 2.0364-0.60498 1.3536-0.4989 1.9296-0.80664 1.9351-0.88329 5.3082-2.5464 1.8052-0.82886 1.7894-0.75808 2.1267-0.77365 1.3796-0.39922 1.0634-0.23147 1.5576-0.16436 1.2854 0.06836 0.93441 0.1473 1.0714 0.23965 4.1667 1.1839 2.8562 0.72865 1.1491 0.38034 0.5346 0.22259 0.75568 0.38333 0.91638 0.59089 0.59391 0.4804 0.60764 0.60958 0.45476 0.58077 0.47276 0.80049 0.38768 0.88077 0.32011 0.94581 0.26662 1.0015 0.42199 2.2012 0.22804 1.7081 0.16502 1.5927 0.53639 6.5853 0.24509 1.8625 0.27536 1.3112 0.35298 1.104 0.54423 1.0948 0.18731 0.27641 1.1798 1.185 0.73253 0.49839 0.80246 0.44214 1.2014 0.53679 1.3076 0.47987 1.5855 0.49706 1.7489 0.49676 1.767 0.43377 2.9437 0.57799 2.2781 0.34617 1.6318 0.19088 2.424 0.16248 1.784 0.018438 1.101-0.039753 1.0341-0.10013 0.77859-0.13439 1.0342-0.28813 0.55734-0.2209 0.77136-0.41581 0.60158-0.48233 0.65384-0.88595 0.47574-1.0491 1.1519-3.0259 0.69021-1.5143 0.61971-1.1838 0.6486-1.1305 0.63499-1.0048 0.85328-1.0601 0.93023-0.87985 1.5577-1.153 0.62899-0.54136 0.51772-0.53447 0.47146-0.6285 0.55289-1.0567 0.52087-1.1914 0.713-1.4707 1.8257-3.6304 3.0691-5.7309 1.7608-3.4797 2.2981-4.8322 4.369-9.5516 0.70856-1.466 6.3417 4.1898 2.0257 1.3981 1.951 1.4103 2.1738 1.709 4.1914 3.6832 1.0983 0.8727 0.69524 0.47459 0.70591 0.39541 2.7925 1.1014 1.1378 0.49513 0.79274 0.42154 2.7059 1.7343 0.90337 0.54939 0.90454 0.49055 0.90158 0.39584 0.89379 0.25651 0.88008 0.060781 0.4463-0.064626 0.7968-0.27273 0.53234-0.28342 0.52149-0.34945 0.56265-0.45341 0.54381-0.51521 0.5033-0.55015 0.47897-0.59627 0.5198-0.74001 0.48271-0.78651 0.4687-0.87261 0.42787-0.90568 1.3957-3.4775 0.42098-0.94667 0.42297-0.80569 0.47028-0.71118 0.53827-0.59206 0.6018-0.42431 0.81646-0.26482 0.81043-0.023233 0.67872 0.14895 0.27208 0.19165" stroke="#bdc660"/>
    </defs>
    <g clip-path="url(#p868af3e99b)">
     <use y="250.77814" fill="#bdc660" stroke="#bdc660" xlink:href="#m7b7cf57d14"/>
    </g>
   </g>
  </g>
 </g>
 <defs>
  <clipPath id="p868af3e99b">
   <rect x="7.2" y="7.2" width="357.12" height="236.38"/>
  </clipPath>
 </defs>
</svg>
