<?xml version="1.0" encoding="UTF-8"?>
<!DOCTYPE svg  PUBLIC '-//W3C//DTD SVG 1.1//EN'  'http://www.w3.org/Graphics/SVG/1.1/DTD/svg11.dtd'>
<svg width="371.52pt" height="279.83pt" version="1.1" viewBox="0 0 371.52 279.83" xmlns="http://www.w3.org/2000/svg" xmlns:xlink="http://www.w3.org/1999/xlink">
 <metadata>
  <rdf:RDF xmlns:cc="http://creativecommons.org/ns#" xmlns:dc="http://purl.org/dc/elements/1.1/" xmlns:rdf="http://www.w3.org/1999/02/22-rdf-syntax-ns#">
   <cc:Work>
    <dc:type rdf:resource="http://purl.org/dc/dcmitype/StillImage"/>
    <dc:date>2024-07-04T12:08:45.754155</dc:date>
    <dc:format>image/svg+xml</dc:format>
    <dc:creator>
     <cc:Agent>
      <dc:title>Matplotlib v3.7.1, https://matplotlib.org/</dc:title>
     </cc:Agent>
    </dc:creator>
   </cc:Work>
  </rdf:RDF>
 </metadata>
 <defs>
  <style type="text/css">*{stroke-linejoin: round; stroke-linecap: butt}</style>
 </defs>
 <g id="figure_1">
  <g id="patch_1">
   <path d="m0 279.83h371.52v-279.83h-371.52v279.83z" fill="none"/>
  </g>
  <g id="axes_1">
   <g id="PatchCollection_1">
    <defs>
     <path id="m266e6f4578" d="m188.18-213.4 0.28381 0.18914 0.85233 0.8018 1.8987 2.0684 1.3584 1.6301 1.615 2.2131 0.78002 1.2928 0.64302 1.3356 0.3989 1.1737 0.19614 1.034 0.004194 1.2442-0.19632 0.99077-0.60366 1.3215-0.48608 0.64241-1.0177 0.96383-3.8111 2.6484-1.318 1.0831-0.87302 0.91491-0.48516 0.61886-0.98502 1.6102-0.65574 1.5863-0.27211 0.96397-0.25762 1.5458-0.050359 1.0304 0.11625 1.4888 0.13262 0.6615 0.29464 0.95579 0.37258 0.82475 0.50653 0.82375 0.82217 1.0092 1.1457 1.0871 1.0406 0.82186 2.4395 1.6105 2.1812 1.2322 3.0016 1.4943 2.0235 0.91463 10.011 4.1633 6.0601 2.7097 2.5402 1.304 1.7384 1.0298 1.4362 0.99456 1.2704 1.0422 0.85153 0.82761 0.81324 0.95599 0.83176 1.2708 0.71217 1.4242 0.57141 1.408 0.56161 1.6172 1.5336 5.2299 1.0093 2.9118 0.92786 2.1588 1.4296 2.55 1.6579 2.3336 2.0082 2.3168 0.76141 0.75441 1.6347 1.3378 1.3668 0.88593 2.204 1.1963 2.4749 1.0898 1.9557 0.66634 1.6053 0.41123 1.5156 0.32005 1.5345 0.22262 1.9134 0.08919 1.9438-0.045082 4.9409-0.21494 1.6056-0.13283 9.4036-1.2316 2.7758-0.46324 2.7254-0.60351 2.6154-0.81468 2.2397-0.95499 1.7376-0.89302 1.6374-0.92245 1.6023-1.0047 1.4771-1.0458 4.753-3.5671 2.7159-1.8447 2.7173-1.6089 1.2976-0.68802 2.7513-1.2828 2.2893-0.86228 2.4347-0.71128 4.2068-1.0586 1.6113-0.3067 1.8675-0.19425 0.51333-0.017465 2.6416 0.15885 2.2835 0.41607 2.809 0.80829 2.6976 1.061 2.1249 1.032 1.9867 1.1285 2.4176 1.5969 2.0053 1.5334 1.8432 1.5978 1.7529 1.7184 1.2729 1.3946 2.2071 2.7555 1.9596 2.8741 1.6096 2.7519 1.2053 2.4454 0.25991 0.65042 0.059207 0.38309 0.83303 2.671 0.84893 3.3942 0.52954 2.7572 0.44594 3.3315 0.2253 3.206-0.010948 3.7652-0.17913 2.4853-0.48955 3.5677-0.50661 2.5169-0.9514 3.5657-0.57508 1.7848-1.2477 3.3404-1.218 2.8474-1.9441 4.061-2.3568 4.4563-1.7504 3.0173-1.9758 3.0708-1.3043 1.8272-1.5706 1.9929-1.175 1.3392-1.6226 1.6666-1.9604 1.7746-2.3794 1.8864-1.879 1.3485-4.0234 2.5949-2.3478 1.3533-2.3247 1.2121-4.1185 1.8442-7.9178 3.0943-3.3318 1.4252-1.2988 0.6444-1.0247 0.5929-0.60865 0.45577-0.15475 0.29157 0.031397 0.16095-0.2478 0.30106-0.76548 0.70473-1.2538 0.9357-1.3132 0.8499-1.6359 0.94406-2.2602 1.1607-2.2322 1.0235-2.2747 0.93422-2.3462 0.85449-1.9162 0.61295-2.1436 0.58597-2.0217 0.45236-2.995 0.50171-3.397 0.35304-3.8665 0.15932-3.1904-0.042907-2.7769-0.16377-2.47-0.25637-2.2506-0.35716-3.4524-0.85514-3.2272-1.1557-4.5969-2.1694-2.7449-1.4183-2.3839-1.3644-1.3225-0.88166-1.0369-0.82502-0.94397-0.92067-0.91746-1.1787-0.59796-1.0811-0.45116-1.1045-0.57865-1.9852-0.49967-2.5445-0.20903-2.6282 0.047927-1.3892 0.28033-2.2079 0.78248-4.3583 0.12592-0.9773 0.14558-2.8906-0.26012-2.1659-0.78762-2.1242-1.1783-1.9392-0.98567-1.2584-1.4803-1.5153-2.8143-2.6426-3.5132-3.477-2.0001-1.6998-4.2581-3.1163-6.2941-4.7769-2.1996-1.5386-2.2685-1.4014-2.3473-1.1898-1.7331-0.67644-2.8344-0.73076-2.8771-0.31427-1.9022 0.024275-1.3122 0.13024-2.5719 0.44279-13.319 2.7301-2.6983 0.64786-1.8422 0.57745-1.7077 0.63819-2.7056 1.1638-1.6394 0.78565-6.0411 3.1146-5.2047 2.3654-2.1575 0.88732-2.92 1.0635-2.0112 0.62561-2.0302 0.54812-2.5025 0.57523-2.5794 0.49034-2.2294 0.3399-2.2646 0.25205-1.7358 0.13105-3.3957 0.13636-7.4555 0.17793-1.6578 0.095088-1.617 0.17347-1.9984 0.34406-2.2289 0.55606-2.097 0.71131-1.6158 0.7132-2.1693 1.323-1.7242 1.5832-0.68071 0.89131-0.21607 0.3434-0.88155 1.9567-0.56769 1.9994-0.309 1.4248-0.23082 1.6581-0.069612 1.8782 0.22611 6.3634-0.060798 1.9202-0.22766 1.8675-0.47457 1.7845-0.45953 1.0708-0.36608 0.6806-1.2609 1.8829-1.385 1.7538-4.4867 5.2719-3.2695 3.6081-2.2814 2.2479-2.3767 2.0208-3.0342 2.2499-3.2314 2.1442-3.3559 2.0553-5.0591 2.9054-10.015 5.5228-0.5059-0.62398-0.3703-1.5742-0.18004-2.1704 0.067361-2.749 0.18731-2.651 0.2782-2.7439 0.38444-2.7359 0.68908-3.2512 0.80574-2.4206 0.93666-2.2037 2.2384-4.4275 0.84637-1.8642 0.41777-1.129 0.29736-1.0595 0.16864-1.0275 0.022211-0.94213-0.23744-1.4449-0.58249-1.4916-0.46077-0.80294-1.1159-1.4612-1.4633-1.4352-1.9614-1.4883-1.3763-0.86078-5.7284-3.0351-1.3699-0.88253-1.0644-0.84294-0.9982-0.91295-3.7686-3.769-1.2929-1.1924-1.3407-1.0901-4.4265-3.0176-1.6159-1.4035-1.5609-1.6229-1.4275-1.7015-1.3613-1.8214-1.6352-2.4846-6.8448-11.439-1.8772-3.4956-0.97165-2.1567-0.71721-1.8738-0.53954-1.68-0.58707-2.5351-0.2186-2.4483 0.25743-2.3192 0.3218-1.0419 0.68853-1.4406 0.56276-0.8741 1.2519-1.5161 1.1528-1.1028 1.9553-1.48 2.1333-1.2169 2.0017-0.86406 2.101-0.70691 2.1641-0.57438 6.9603-1.5381 2.586-0.64263 2.4072-0.67582 2.824-0.97043 2.5155-1.1435 2.0036-1.0747 1.9805-1.1765 2.0802-1.3364 3.9112-2.7411 5.2859-4.0723 4-3.3193 1.5728-1.4343 1.2294-1.2298 1.1651-1.3031 0.79236-1.0009 0.80583-1.1519 1.3723-2.377 1.2143-2.7363 0.49141-1.4997 0.39066-1.4765 0.29444-1.3788 0.37259-2.3763 0.2236-2.2662 0.10311-1.8358 0.040566-2.6282-0.17789-4.2596-0.48564-5.5623-1.2817-10.943-0.43666-4.1973-0.18539-3.0509-0.038311-3.815 0.15086-4.2351 0.1837-2.6525 0.54012-5.5058 0.79103-6.0766 1.6383-10.303 0.17827-0.63226 0.6002-1.5522 1.4241-3.2375 1.7807-3.6636 2.2461-4.2146 2.1987-3.7278 1.5485-2.4092 2.458-3.472 1.6826-2.0974 1.4994-1.6509 1.3891-1.3307 1.3982-1.1431 0.81725-0.58225 1.3042-0.80648 0.83794-0.43993 1.5783-0.66115 1.5906-0.43207 1.3896-0.16054 1.5356 0.076932 1.544 0.30378 1.55 0.48436 2.0244 0.83956 2.0297 1.0144 4.357 2.5304 8.3217 5.2157 4.0205 2.4298 3.1374 1.8292 7.8641 4.4247 3.2138 1.901 3.4269 2.184 2.1839 1.4782 8.4884 5.9297 21.066 14.892 2.1492 1.6369" stroke="#bdc660"/>
    </defs>
    <g clip-path="url(#p49d20acebc)">
     <use y="279.831394" fill="#bdc660" stroke="#bdc660" xlink:href="#m266e6f4578"/>
    </g>
   </g>
  </g>
 </g>
 <defs>
  <clipPath id="p49d20acebc">
   <rect x="7.2" y="7.2" width="357.12" height="265.43"/>
  </clipPath>
 </defs>
</svg>
