<?xml version="1.0" encoding="UTF-8"?>
<!DOCTYPE svg  PUBLIC '-//W3C//DTD SVG 1.1//EN'  'http://www.w3.org/Graphics/SVG/1.1/DTD/svg11.dtd'>
<svg width="286.01pt" height="280.51pt" version="1.1" viewBox="0 0 286.01 280.51" xmlns="http://www.w3.org/2000/svg" xmlns:xlink="http://www.w3.org/1999/xlink">
 <metadata>
  <rdf:RDF xmlns:cc="http://creativecommons.org/ns#" xmlns:dc="http://purl.org/dc/elements/1.1/" xmlns:rdf="http://www.w3.org/1999/02/22-rdf-syntax-ns#">
   <cc:Work>
    <dc:type rdf:resource="http://purl.org/dc/dcmitype/StillImage"/>
    <dc:date>2024-07-04T12:08:32.939768</dc:date>
    <dc:format>image/svg+xml</dc:format>
    <dc:creator>
     <cc:Agent>
      <dc:title>Matplotlib v3.7.1, https://matplotlib.org/</dc:title>
     </cc:Agent>
    </dc:creator>
   </cc:Work>
  </rdf:RDF>
 </metadata>
 <defs>
  <style type="text/css">*{stroke-linejoin: round; stroke-linecap: butt}</style>
 </defs>
 <g id="figure_1">
  <g id="patch_1">
   <path d="m0 280.51h286.01v-280.51h-286.01v280.51z" fill="none"/>
  </g>
  <g id="axes_1">
   <g id="PatchCollection_1">
    <defs>
     <path id="m77014ae9b9" d="m264.64-117.92 0.25069 2.1936 0.21587 3.4436 0.18261 7.4268 0.16282 3.6906 0.74681 9.6764 0.2163 3.6395 0.043188 2.1515-0.034367 1.8012-0.15867 2.2367-0.21781 1.6532-0.41917 2.12-0.33178 1.2629-0.39522 1.24-0.40267 1.067-0.6654 1.4794-0.97837 1.7685-0.97933 1.4597-0.66164 0.86458-1.1006 1.2834-1.9145 1.9207-1.1487 1.0309-3.1447 2.5722-11.65 9.0024-10.219 7.4522-4.0356 3.1718-2.4106 2.0821-5.7391 5.4237-2.8483 2.5148-2.282 1.7574-1.8066 1.2192-1.6144 0.97032-1.3568 0.73606-1.6551 0.80987-2.2178 0.95544-1.5225 0.58-3.4713 1.1237-3.0765 0.79991-2.8431 0.60956-3.6435 0.6413-3.0195 0.44238-9.1357 1.1736-2.361 0.363-2.6076 0.53723-0.40153 0.13431-0.1622 0.14431 0.001888-0.38061-0.46186-0.48536-0.43739-0.25836-0.62753-0.26674-1.2919-0.37148-1.6093-0.31145-2.2214-0.26852-6.2191-0.40121-1.7162-0.19639-2.9162-0.48859-2.8025-0.64126-3.0038-0.82554-4.3585-1.2952-2.791-0.95009-2.7597-1.1248-1.862-0.87586-1.5818-0.84267-1.3876-0.87354-1.3309-1.0042-1.5031-1.3514-1.2347-1.3332-1.2564-1.6275-0.63995-0.99448-0.88863-1.6839-0.63267-1.5155-0.55097-1.6939-0.45819-1.9965-0.19285-1.2803-0.15374-2.1045 0.020525-1.6078 0.11319-1.3504 0.21209-1.4614 0.28582-1.3857 0.37689-1.4586 1.0049-3.1231 1.9685-5.3959 0.43984-1.3732 0.353-1.3203 0.39438-2.1069 0.41114-2.8284 0.088037-2.0247-0.06526-2.0527-0.34084-4.7472-0.24963-1.4104-0.40122-1.2105-0.51659-0.94923-0.27436-0.36276-0.46157-0.46548-0.57898-0.40502-0.51082-0.25144-0.61024-0.20762-0.55237-0.11937-0.61418-0.075767-0.9886-0.029832-0.9636 0.051654-1.0284 0.12108-2.0067 0.39071-1.4318 0.3935-2.2623 0.81419-1.9919 0.89184-2.0683 1.0685-3.6758 2.116-1.3096 0.57633-1.3902 0.36265-1.1311 0.14955-5.2355 0.27716-1.2026 0.16637-0.99407 0.21669-1.0015 0.3139-1.0541 0.46188-1.2182 0.75308-0.89152 0.74591-1.0287 1.1308-0.56785 0.77909-0.70295 1.1556-0.73189 1.4811-0.72551 1.8223-0.56878 1.717-2.1097 7.8157-0.82559 2.6588-0.78824 2.1184-1.0683 2.4327-0.82719 1.6833-1.7716 3.2802-1.4747 2.5295-1.2586 2.0672-1.4096 2.1646-1.4595 1.9573-1.3924 1.5434-1.4476 1.2981-1.1107 0.82619-1.187 0.75269-1.2147 0.65253-1.9433 0.82032-1.474 0.43147-1.6804 0.25423-1.4737-0.024534-2.2328-0.37646-1.5076-0.36387-1.5386-0.45404-3.6459-1.3606-2.0956-0.86469-1.6017-0.72147-2.5845-1.2903-1.1706-0.64128-2.7721-1.6814-1.8682-1.2656-1.9415-1.4069-6.355-4.806-1.3418-0.88879-2.4991-1.4271-0.93363-0.61741-0.98791-0.85858-1.1023-1.4124-0.66863-1.5442-0.15485-0.73486-0.061774-0.56147-0.016319-0.85931 0.057024-0.80149 0.32493-1.838 0.86136-3.1792 0.85312-2.6381 0.85107-2.2801 1.2842-2.9444 1.2003-2.4327 1.3249-2.3815 1.0686-1.7388 1.5565-2.3449 4.9705-6.9133 1.2181-1.78 0.90341-1.4755 0.66168-1.2218 1.0129-2.1929 0.48862-1.2761 0.34627-1.0737 0.27862-1.0374 0.40425-1.8981 0.58754-3.5988 0.62232-5.7186 0.14209-2.4269-0.024779-1.419-0.16885-1.742-0.40054-2.0237-0.38251-1.3209-0.49872-1.354-0.80139-1.7165-1.1295-1.8638-0.98251-1.2714-0.47417-0.52266-0.90174-0.86508-1.1654-0.94633-1.1225-0.72155-0.44655-0.12331-0.12402 0.029416-0.20849-0.11171-0.45242-0.41442-0.71925-0.93773-0.3478-0.58828-0.51637-1.0702-0.38572-0.98108-0.53674-1.7118-0.36971-1.5147-0.30243-1.5241-0.26984-1.6436-0.46154-3.672-1.0406-11.794-0.41346-4.1036-0.63195-5.1314-0.57838-4.0044-0.70444-4.1848-0.93478-4.8629-3.0402-14.233-1.1495-5.6275-1.5069-8.3487-0.7968-5.095-0.29456-2.3171-0.4936-4.9318-1.4814-20.866-0.50878-5.3033-0.42169-3.3976-0.61596-3.8068-0.40606-1.9468-0.44785-1.7286-0.34628-1.0689-0.45789-1.0715-0.27407-0.29056 11.159-0.9217 28.447-2.524 21.981-1.8384 12.329-1.1239 21.487-2.0898 2.43 13.647 0.78548 3.725 0.69875 2.7005 0.76631 2.2642 1.0688 2.5008 3.3471 6.5017 1.2071 2.5403 0.9368 2.1193 1.3175 3.2896 0.77446 2.2519 0.41622 1.4416 0.98537 3.7858 0.45364 1.9987 0.2441 1.6977 0.44945 4.5219 0.42493 9.6167 0.085807 1.0704 0.16745 1.0941 0.21841 0.95814 0.36599 1.1748 0.44482 1.0744 0.52922 0.98676 1.0467 1.3614 0.399 0.36029 1.0485 0.60959 0.93958 0.23888 1.035 0.07145 1.3563-0.069426 1.4863-0.17968 3.7145-0.55417 2.8192-0.36089 3.0948-0.25371 2.1316-0.076288 3.5888 0.055773 3.1198 0.20657 3.1617 0.32944 4.5225 0.58847 1.2223 0.11044 1.7311 0.057002 1.5083-0.0722 0.40921-0.0498 1.7168-0.39614 1.5615-0.65354 1.1738-0.70529 2.0034-1.3628 0.8604-0.52731 2.3319-1.2325 1.4016-0.63764 1.6966-0.68255 1.14-0.40455 2.0443-0.61207 1.4753-0.34123 1.4347-0.23643 1.2027-0.11117 1.3561-0.007904 1.3272 0.14494 1.0911 0.26992 0.52518 0.19348 0.81264 0.40188 0.83726 0.56304 0.51435 0.4323 0.44134 0.43105 0.66435 0.76795 0.74889 1.0651 0.75231 1.3317 0.58749 1.2775 0.49488 1.2948 0.56075 1.8178 0.38588 1.6206 0.27793 1.5694 0.16032 1.3225 0.088111 1.2629 0.023223 1.2794-0.070089 1.7427-0.14574 1.5199-0.21357 1.524-0.3188 1.7646-0.75963 3.2771-0.84026 2.9854-0.84903 2.6635-1.1603 3.2474-2.1391 5.3204-0.48339 1.5367-0.21271 0.92341-0.2891 2.0432-0.051856 0.92839 0.041818 1.5686 0.218 1.3567 0.23724 0.74494 0.21914 0.47172 0.47273 0.68514 0.61039 0.52717 0.32448 0.18664 0.83779 0.31554 0.9648 0.18572 1.3598 0.084232 2.0977-0.087265 4.3774-0.52462 11.984-1.8946 4.3622-0.59808 1.9356-0.21067 2.3951-0.18543 2.0352-0.06597 1.5315 0.026422 1.7143 0.13724 2.5017 0.44019 1.863 0.43153 2.1104 0.63518 1.7958 0.76299 1.1094 0.64454 1.275 0.98485 0.8625 0.89795 0.48178 0.61336 0.54835 0.81448 0.66652 1.1622 3.1754 6.6602 2.7001 5.2424 0.70545 1.2276 0.83417 1.2902 0.66205 0.89715 1.1205 1.3223 1.6512 1.6565 0.98042 0.82366 0.81454 0.59673 1.2868 0.79375 0.91398 0.45872 0.87386 0.35262 0.59093 0.18208 0.71287 0.1329 0.61275-0.020793 0.23155-0.074482 0.18033-0.12706 0.10333-0.17818" stroke="#bdc660"/>
    </defs>
    <g clip-path="url(#ped9508b573)">
     <use y="280.512" fill="#bdc660" stroke="#bdc660" xlink:href="#m77014ae9b9"/>
    </g>
   </g>
  </g>
 </g>
 <defs>
  <clipPath id="ped9508b573">
   <rect x="7.2" y="7.2" width="271.61" height="266.11"/>
  </clipPath>
 </defs>
</svg>
