<?xml version="1.0" encoding="UTF-8"?>
<!DOCTYPE svg  PUBLIC '-//W3C//DTD SVG 1.1//EN'  'http://www.w3.org/Graphics/SVG/1.1/DTD/svg11.dtd'>
<svg width="322.36pt" height="280.51pt" version="1.1" viewBox="0 0 322.36 280.51" xmlns="http://www.w3.org/2000/svg" xmlns:xlink="http://www.w3.org/1999/xlink">
 <metadata>
  <rdf:RDF xmlns:cc="http://creativecommons.org/ns#" xmlns:dc="http://purl.org/dc/elements/1.1/" xmlns:rdf="http://www.w3.org/1999/02/22-rdf-syntax-ns#">
   <cc:Work>
    <dc:type rdf:resource="http://purl.org/dc/dcmitype/StillImage"/>
    <dc:date>2024-07-04T12:08:30.356315</dc:date>
    <dc:format>image/svg+xml</dc:format>
    <dc:creator>
     <cc:Agent>
      <dc:title>Matplotlib v3.7.1, https://matplotlib.org/</dc:title>
     </cc:Agent>
    </dc:creator>
   </cc:Work>
  </rdf:RDF>
 </metadata>
 <defs>
  <style type="text/css">*{stroke-linejoin: round; stroke-linecap: butt}</style>
 </defs>
 <g id="figure_1">
  <g id="patch_1">
   <path d="m0 280.51h322.36v-280.51h-322.36v280.51z" fill="none"/>
  </g>
  <g id="axes_1">
   <g id="PatchCollection_1">
    <defs>
     <path id="m570f35c315" d="m151.98-261.09-0.026813 0.28064 0.075171 0.45474 0.3768 1.3366 0.49888 1.3449 0.51748 1.1634 0.67043 1.2969 0.72505 1.2213 0.73391 1.1015 1.1363 1.5371 1.2717 1.5018 1.3744 1.3632 0.80586 0.67399 1.6213 1.0989 0.86988 0.44667 1.015 0.39876 1.0511 0.29381 1.2624 0.21657 1.6356 0.091521 2.2044-0.15512 1.7246-0.29923 1.2148-0.2906 7.0278-2.1306 1.6722-0.42958 1.6109-0.32307 2.1019-0.23876 1.363-0.012731 1.3101 0.10683 1.5634 0.30561 1.2084 0.37243 1.0292 0.39507 5.6237 2.5482 7.8713 2.8972 2.2774 1.0405 2.1188 1.2507 1.226 0.92532 1.5367 1.3756 4.1988 4.2635 2.4595 2.2656 1.4217 1.2253 2.6202 1.9144 1.625 0.9104 1.6713 0.63554 2.1395 0.31568 2.1837-0.0392 3.0912-0.23162 1.9147 0.045003 2.0405 0.42224 2.0055 0.70247 2.9838 1.1765 2.1285 0.66639 6.2042 1.2571 5.8481 1.8404 3.2302 0.9271 3.4691 0.91239 7.4902 1.8002 7.9983 1.784 22.158 4.6615-0.58993 0.42951-1.3322 1.3453-1.4342 1.6922-0.88908 1.1682-2.0525 2.9237-4.9836 7.5796-7.0489 9.8374-1.0832 1.6449-0.98912 1.712-0.51619 1.0762-0.37587 0.97211-0.34918 1.2747-0.18381 1.3853 0.023267 1.3262 0.2479 1.4677 0.45306 1.3952 0.96532 1.85 0.54133 0.75706 0.81996 0.95556 3.7197 3.901 1.47 1.6627 1.8681 2.3983 0.70176 1.0748 0.67899 1.2501 0.34091 0.79038 0.42763 1.3994 0.27182 1.8129 0.037582 0.99258-0.044399 1.1288-0.19274 1.4693-0.32144 1.4851-0.71402 2.3066-1.1299 2.7071-2.8578 5.8477-0.66304 1.8263-0.32359 1.3044-0.28618 2.017-0.10836 2.7102 0.36841 9.9477-0.011321 1.3392-0.20577 3.2164-0.59711 3.8646-0.41031 1.6585-0.42022 1.2955-0.65986 1.6255-0.69877 1.4058-0.81208 1.3856-0.7722 1.1542-1.8819 2.4204-4.3138 4.903-1.4698 1.9346-0.57979 0.96208-0.52504 1.151-0.42384 1.7493-0.04874 1.4944 0.076737 0.77913 0.18756 1.0428 1.1077 4.8099 0.28345 1.5759 0.22088 1.6948 0.099244 1.3892 0.008059 1.3463-0.096149 1.2916-0.22818 1.2693-0.20242 0.69684-0.58853 1.405-1.4699 2.8951-0.46323 1.5947 0.02305 1.4236 0.40181 1.3016 0.76981 1.1965 1.116 1.0248 1.4969 0.98123 2.7445 1.5473 1.6838 1.0304 2.036 1.5077 1.0274 0.91169 1.0369 1.0429 1.1712 1.3358 1.214 1.5385 1.5688 2.1672 3.8249 5.7352 0.93295 1.5677-0.17681 0.072583-0.81929 0.64016-9.7231 8.0264-5.5764 4.3997-3.9471 2.9135-3.9699 2.6347-1.6824 1.0126-2.543 1.3961-2.6923 1.2783-1.8647 0.74282-1.7745 0.58916-2.233 0.55859-1.6346 0.27-1.8722 0.15567-1.4631 0.001867-1.9562-0.16574-1.6511-0.29641-1.4464-0.3682-1.6635-0.5425-1.3011-0.5134-6.125-2.7799-1.8188-0.72385-1.6622-0.58354-2.3625-0.67781-1.8877-0.40785-2.0871-0.32622-2.0539-0.19633-1.8024-0.052591-1.9272 0.078093-1.9052 0.21243-1.632 0.27575-4.1369 0.96058-8.1475 2.2524-1.8887 0.44712-1.4592 0.2586-1.7862 0.14934-1.1519-0.035519-0.6227-0.073453-1.3791-0.29432-1.6758-0.55361-3.094-1.1874-1.3644-0.43698-2.8433-0.72739-7.3392-1.5936-3.3142-0.87888-2.2219-0.76945-0.99606-0.42971-1.6275-0.88612-0.63837-0.43882-0.75685-0.61606-0.82339-0.80565-0.74962-0.87033-1.0285-1.4577-0.70131-1.2483-0.74668-1.6895-0.58208-1.7937-0.31622-1.4773-0.33138-2.4978-0.33411-1.1411-0.27204-0.51877-0.48102-0.59808-0.58413-0.45346-0.51666-0.27416-0.71543-0.27091-1.7126-0.3872-1.584-0.20352-1.5388-0.13233-2.652-0.11283-3.7604 0.023594-9.8315 0.34355-2.82-0.10388-1.4407-0.18012-2.6243-0.59378-3.2453-1.0442-2.9257-1.1335-6.5538-2.7941-2.355-0.88956-2.54-0.84132-2.339-0.61795-2.7348-0.56924-2.4078-0.39962-2.3282-0.27808-3.0914-0.14734-3.2984 0.049076-3.4931 0.32426-2.5514 0.4415-2.3794 0.60835-2.7916 0.97658-2.3708 1.1217-1.5025 0.93186-1.2156 0.94308-1.0804 0.98906-0.98693 1.0901-1.4095 2.0878-1.1709 2.3338-2.7099 6.798-0.68308 1.5646-1.2765 2.6157-0.53645 0.92364-0.88463 1.2576-0.70054 0.77087-0.74708 0.62812-0.79935 0.48331-0.44562 0.1976-1.2955 0.35676-0.79287 0.096794-0.9465 0.023076-1.5711-0.13814-0.96222-0.17205-2.0096-0.53034-1.949-0.69948-2.806-1.2493-2.4699-1.2804-4.7316-2.6442-1.0391-0.47895-0.35902-0.039552-0.079647-0.13556-0.39369-0.10352-1.2426-0.12098-3.2324-0.048185-6.2146 0.068939-2.2-0.1476-0.90283-0.15722-0.61279-0.16432-0.65528-0.26036-0.86236-0.61747-0.43857-0.60393-0.22493-0.66447-0.028503-0.30241 0.044225-0.46062 0.27791-0.70712 0.47879-0.70138 2.7783-2.9861 0.59405-0.79041 0.44174-0.75844 0.30271-0.75021 0.12166-0.48225 0.062183-1.4052-0.25713-1.4981-0.48431-1.5638-0.63886-1.6094-3.0414-6.6317-0.65054-1.659-0.50322-1.6413-0.28622-1.6121-0.03428-1.0525 0.076858-0.90915 0.14123-0.73603 0.23922-0.76571 0.58029-1.1533 0.73724-1.0679 1.4819-1.9245 0.48328-0.72806 0.46561-0.96166 0.14543-0.53279 0.055798-0.83465-0.14742-0.9471-0.29824-0.87971-0.45832-0.93192-0.95022-1.4326-1.1-1.2595-1.4999-1.2371-1.3587-0.85587-1.4781-0.78319-1.5464-0.72061-4.5875-1.908-1.2355-0.59977-0.11284-0.1437 0.19517-0.089435 0.36108-0.65159 0.13553-0.38731 0.4277-2.0384 0.19731-2.7032 0.13668-5.7057 0.15363-2.1364 0.61776-4.0416 1.3997-7.0481 0.30748-2.1039 0.27953-3.0582 0.11274-2.1489-0.035117-2.1912-0.47098-6.1436 0.026642-1.9104 0.23749-1.1985 0.24933-0.69121 0.36459-0.70291 0.40865-0.57201 0.55751-0.57214 0.79046-0.58778 1.3715-0.73435 1.8909-0.74563 7.5936-2.4565 3.5084-1.2697 4.8245-2.0393 10.575-4.7906 3.942-2.0047 2.5716-1.5581 1.9174-1.3606 0.98102-0.7762 1.3293-1.1433 1.1335-1.0726 1.687-1.8022 1.2955-1.5577 6.4284-8.5737 1.7074-2.4798 2.5867-3.9524 1.9928-3.147 1.5133-2.5327 0.81057-1.5109 0.74961-1.5852 0.63214-1.5771 0.64084-1.9307 0.67204-2.7596 0.82955-4.9372 0.44182-2.2825 0.5603-2.1903 0.54718-1.5273 0.24335-0.53864 0.75232-1.3034 0.57652-0.74902 1.1533-1.159 1.5969-1.2131 1.3761-0.8431 1.277-0.67943 3.8476-1.825 2.4477-0.96278 1.0204-0.32576 1.6797-0.42084 1.3968-0.2372 1.0352-0.10928 1.566-0.05779 2.6174 0.15075 4.0404 0.57107 7.2425 1.2536 3.0045 0.31956 1.8083 0.023485 1.4942-0.13714 0.94232-0.18724 1.0078-0.31306 1.448-0.73232 0.73494-0.53908 0.649-0.59446 0.6859-0.7806 0.47983-0.67391 0.47519-0.82523 0.62826-1.55 0.38428-1.735 0.087426-0.79159 0.040517-1.5164-0.091709-1.4334-0.17835-1.321-0.28024-1.4626-1.2699-5.0246-0.49397-2.5477-0.12883-1.704 0.10744-1.7282 0.27283-1.3913 1.3682-4.3937 0.57364-2.2655 0.8251-4.2295 1.1139-6.7628 0.46455-2.0192 0.49851-1.5601 0.75926-1.6716 0.58872-0.94579 0.48448-0.63088 0.73689-0.79376 0.75385-0.66907 0.91474-0.67207 0.95858-0.57554 1.0049-0.4831 0.87657-0.32436 1.1171-0.255 0.47169-0.015035 0.40661 0.1254" stroke="#bdc660"/>
    </defs>
    <g clip-path="url(#p051665424b)">
     <use y="280.512" fill="#bdc660" stroke="#bdc660" xlink:href="#m570f35c315"/>
    </g>
   </g>
  </g>
 </g>
 <defs>
  <clipPath id="p051665424b">
   <rect x="7.2" y="7.2" width="307.96" height="266.11"/>
  </clipPath>
 </defs>
</svg>
