<?xml version="1.0" encoding="UTF-8"?>
<!DOCTYPE svg  PUBLIC '-//W3C//DTD SVG 1.1//EN'  'http://www.w3.org/Graphics/SVG/1.1/DTD/svg11.dtd'>
<svg width="232.7pt" height="280.51pt" version="1.1" viewBox="0 0 232.7 280.51" xmlns="http://www.w3.org/2000/svg" xmlns:xlink="http://www.w3.org/1999/xlink">
 <metadata>
  <rdf:RDF xmlns:cc="http://creativecommons.org/ns#" xmlns:dc="http://purl.org/dc/elements/1.1/" xmlns:rdf="http://www.w3.org/1999/02/22-rdf-syntax-ns#">
   <cc:Work>
    <dc:type rdf:resource="http://purl.org/dc/dcmitype/StillImage"/>
    <dc:date>2024-07-04T12:08:44.324473</dc:date>
    <dc:format>image/svg+xml</dc:format>
    <dc:creator>
     <cc:Agent>
      <dc:title>Matplotlib v3.7.1, https://matplotlib.org/</dc:title>
     </cc:Agent>
    </dc:creator>
   </cc:Work>
  </rdf:RDF>
 </metadata>
 <defs>
  <style type="text/css">*{stroke-linejoin: round; stroke-linecap: butt}</style>
 </defs>
 <g id="figure_1">
  <g id="patch_1">
   <path d="m-0 280.51h232.7v-280.51h-232.7v280.51z" fill="none"/>
  </g>
  <g id="axes_1">
   <g id="PatchCollection_1">
    <defs>
     <path id="m1e20484a9d" d="m215.58-159.7-1.7954 0.42071-1.6852 0.4887-1.9098 0.64427-1.9874 0.79109-1.9567 0.9397-0.67019 0.37204-1.464 0.94451-1.3785 1.0725-1.2847 1.18-1.7839 1.9431-1.3126 1.621-1.2614 1.6852-2.2875 3.2979-3.3018 5.0558-4.6232 7.4668-1.5361 2.2628-0.80704 1.1049-1.1188 1.4311-1.1129 1.3187-1.2559 1.3877-3.1653 3.3511-1.09 1.2585-1.2689 1.6473-4.4522 6.5593-0.92774 1.2688-1.7885 2.2577-1.9231 2.1989-3.2185 3.4474-2.0996 2.3166-1.2519 1.4738-1.2058 1.5133-1.1376 1.5333-2.0008 2.9606-1.689 2.7753-1.8074 3.2328-4.32 8.1247-0.95767 1.7269-1.8941 3.2463-0.93385 1.5195-1.789 2.7661-1.087 1.5816-1.9393 2.6331-1.9946 2.4436-1.717 1.925-8.3255 8.7951-3.5338 3.9698-2.4093 2.5842-2.3497 2.2617-1.855 1.5987-1.3605 1.0511-3.8558 2.7547-0.95909 0.76674-1.044 0.94364-1.0723 1.1345-1.1529 1.4552-0.70272 1.0983-0.16105 0.34219-0.035301 0.31342-0.15709-0.17104-1.8776-2.7888-0.77194-1.0484-1.5195-1.9671-1.7485-2.1386-1.1198-1.2916-1.2068-1.1922-1.0157-0.82128-1.0757-0.69322-1.1698-0.5497-1.7092-0.46345-1.7766-0.22466-3.3791-0.21768-1.5603-0.044482-1.5434 0.07689-1.5133 0.27504-1.4056 0.5002-1.2019 0.59898-0.68493 0.40123-0.96238 0.63493-0.86626 0.65112-1.3025 1.1363-0.87068 0.86364-1.0093 1.1038-1.6859 2.0457-3.3791 4.3269-0.89832 1.0551-1.3038 1.3815-0.93822 0.87127-1.5374 1.2284-1.319 0.90727-1.5159 0.92574-1.3673 0.75644-1.5326 0.77846-2.993 1.3473-1.9923 0.78422-1.73 0.61672-1.5435 0.5056-2.6764 0.79432-2.6184 0.66747-1.2577 0.25231-1.5296 0.20792-1.1115 0.062364-1.196-0.027495-1.0648-0.09625-1.0761-0.15314-1.805-0.35621-2.463-0.66655-1.6605-0.58412-0.99861-0.41652-0.99672-0.47312-1.508-0.84008-0.72093-0.45949-1.3319-0.95429-0.74155-0.59755-1.394-1.2757-1.4611-1.5841-0.7805-0.9575-0.80274-1.0622-1.3456-1.9361-1.0567-1.6271-1.0036-1.7364-0.54152-1.1329-0.40849-1.074-0.43079-1.5678-0.17893-0.98812-0.10225-1.2402 0.033601-1.088 0.14897-1.2412 0.36307-1.7606 0.61746-2.0946 1.0458-2.8305 0.65385-1.5321 2.477-5.2684 0.20318-0.54394-0.027419-0.12159 0.4302 0.10588 0.75891 0.022681 1.2006-0.056139 1.2679-0.14288 1.4815-0.26285 1.0076-0.23987 0.97626-0.28633 1.5694-0.60383 1.0872-0.56977 0.79572-0.55001 0.37044-0.32309 0.35816-0.38253 0.42872-0.66263 0.1964-0.64834 0.11518-0.98999 0.10792-0.49562 0.2852-0.63888 0.46432-0.60147 1.2038-1.2186 0.32888-0.45038 0.15133-0.28312 0.25771-0.79306 0.19026-1.321 0.12465-0.5755 0.19102-0.5354 0.25491-0.48754 0.38041-0.53488 0.43658-0.48816 0.77236-0.72648 0.71702-0.5942 0.86388-0.62669 0.7894-0.48914 1.8648-1.0389 0.81678-0.60457 0.59204-0.61526 0.57136-0.93761 0.20891-0.62919 0.096778-0.82238-0.040062-0.59714-0.12562-0.60392-0.4005-1.0368-0.56719-0.98039-2.9574-3.9456-2.7738-3.8997-1.0369-1.5457-2.7414-4.2725-1.2371-1.8039-1.2501-1.6595-1.8343-2.2522-0.17901-0.22037-0.066969-0.39305-0.021991-0.65965 0.063509-1.0377 0.11239-0.85403 0.24037-1.1986 0.41176-1.4158 0.56999-1.4221 0.55898-1.0918 0.63091-1.0291 0.79037-1.103 1.1978-1.4209 0.95208-0.98064 1.2721-1.1504 1.3485-1.0403 1.5976-1.0128 1.3094-0.66622 1.6307-0.63628 2.1152-0.52517 1.641-0.17673 1.5682 0.016057 2.0445 0.29083 1.8844 0.55349 1.0571 0.44893 0.88813 0.47413 1.1794 0.80504 0.51929 0.42353 2.9671 2.6578 1.1715 0.90108 1.7315 1.1257 1.6815 0.87295 1.5381 0.63956 1.4278 0.48622 1.6715 0.45783 1.007 0.22174 1.0916 0.19594 1.5583 0.20088 1.5197 0.09978 1.5085-0.004156 0.86614-0.054331 1.0503-0.12824 1.1859-0.24819 0.80409-0.24504 1.0413-0.43148 1.0308-0.59462 0.91936-0.73201 0.9699-1.0311 0.52845-0.66504 1.1415-1.621 0.44496-0.72274 0.72433-1.3955 0.32879-0.77742 0.4016-1.1597 0.22976-0.83913 0.36406-1.8835 0.17588-1.6965 0.029379-0.924-0.042056-1.134-0.10396-0.8752-0.2225-1.0389-0.26156-0.79474-0.28733-0.64571-0.3057-0.53865-0.54883-0.73448-0.46975-0.48035-0.49058-0.40537-0.46196-0.31365-0.91296-0.48482-1.2231-0.47833-1.7196-0.48281-1.3051-0.25638-1.4971-0.21051-2.0107-0.19107-2.5954-0.10061-3.2781-0.010358-1.1868-0.050971-0.97406-0.088875-0.94694-0.13771-1.4806-0.33563-1.2692-0.42687-1.0685-0.48417-1.1749-0.69683-1.2826-1.029-0.69939-0.74344-0.58698-0.79772-0.5896-1.1437-0.37282-1.4667-7.98e-4 -1.1567 0.21166-0.96069 0.34618-0.80249 0.60441-0.9142 0.7853-0.85156 0.78241-0.67066 0.90495-0.65071 1.5472-0.9114 1.2669-0.60093 1.2059-0.4646 1.073-0.32724 1.929-0.39163 0.85096-0.093062 1.515-0.047161 1.1114 0.059466 0.99267 0.11821 1.5704 0.31176 1.5189 0.44299 1.056 0.3866 3.392 1.5104 1.5343 0.63002 1.1358 0.39366 1.2921 0.35455 1.7025 0.28453 0.81434 0.050033 1.2438-0.03449 1.0867-0.14547 0.66924-0.14811 1.1589-0.38062 1.2714-0.67374 0.91166-0.78204 0.61093-0.85212 0.21961-0.47572 0.24807-1.0003 0.02613-0.87246-0.11794-0.8503-0.16662-0.63312-0.35472-0.9423-0.60368-1.197-1.0574-1.7131-3.2748-4.7076-1.5943-2.4272-0.66317-1.0997-0.82704-1.532-0.43553-1.0859 0.08804-0.3871-0.086602-2.3926-0.003113-1.5934 0.049889-1.7828 0.15305-2.269 0.27864-2.3482 0.26461-1.5746 0.3293-1.5548 0.42987-1.6409 0.50876-1.5872 0.98554-2.3958 0.93829-1.7427 1.2766-1.8151 1.2443-1.3358 1.3927-1.1366 1.1113-0.69578 1.0583-0.51404 1.0576-0.38817 1.0412-0.28008 1.5843-0.28252 1.3264-0.14319 1.3784-0.084205 1.6045-0.023567 1.4847 0.048302 1.9696 0.16393 2.4801 0.35878 1.8178 0.35722 1.3881 0.32015 6.9383 1.9227 2.9552 0.71543 1.4501 0.27419 1.4048 0.19441 1.9353 0.11743 1.6109-0.068893 1.0331-0.14051 0.97728-0.21744 1.2291-0.42601 1.3703-0.78625 0.95545-0.96877 0.4718-0.90827 0.13936-0.53137 0.061792-0.67193-0.086971-0.98193-0.4979-1.7815-0.52037-1.3012-0.79633-1.6809-0.79371-1.4831-1.0749-1.8348-1.8409-2.895-3.3231-4.9851-1.2157-1.9559-0.62057-1.097-0.57105-1.1138-0.52065-1.1609-0.35042-0.91536-0.50475-1.6669-0.3815-1.7879-0.25231-1.8215-0.14121-1.8844-0.035598-1.902 0.04144-1.5306 0.10409-1.6639 0.15605-1.6658 0.29563-2.3479 0.40607-2.5143 0.37361-1.9219 0.46065-2.0178 0.51946-1.8769 0.72142-2.0753 0.47792-1.1245 0.5352-1.0886 0.98479-1.6615 1.3576-1.8028 0.87223-0.94441 0.94002-0.87259 1.8048-1.3375 1.3249-0.75914 1.4667-0.67511 1.2199-0.4615 1.4876-0.46606 1.5256-0.39171 2.0526-0.42547 4.0258-0.69934 2.0467-0.39908 1.9833-0.44273 7.9867-2.0504 1.4351-0.34911 2.5232-0.54049 2.6115-0.41639 1.2207-0.1286 1.1929-0.073013 1.8025 0.017942 1.2861 0.13892 1.633 0.39637 1.1203 0.49726 1.0237 0.75311 0.88616 1.1463 0.63214 1.4031 0.44991 1.7251 0.20239 1.3441 0.18133 2.4618 0.1409 5.8138 0.075308 1.514 0.21202 2.4582 0.23679 1.7514 0.2976 1.5228 0.55132 1.9 0.81924 2.257 1.062 2.6921 0.39939 1.1565 0.2601 1.0633 0.1265 1.0118 0.005829 1.3282-0.13916 1.3261-0.30235 1.4284-1.0066 3.3907-0.57979 2.2948-0.33857 1.7928-0.16801 2.0986-0.00199 1.0463 0.058591 1.0507 0.30478 2.0269 0.2656 1.0738 0.29998 0.99613 0.54971 1.468 0.32446 0.7197 0.57084 1.1013 0.84525 1.3894 2.1363 3.0529 2.3396 3.4616 1.038 1.6035 1.7263 2.8051 1.3324 2.3313 0.97039 1.8559 1.0496 2.2089 0.78181 1.5269 0.83186 1.4564 0.64987 1.0159 0.93499 1.2061 1.1399 1.1748 0.7159 0.61196 0.85444 0.61874 1.068 0.61438 0.83812 0.35763 0.9794 0.28126 1.0043 0.17109 0.79685 0.074129 1.7057 0.03304 2.2134-0.08252 0.95957 0.002173 0.87936 0.10424 0.38767 0.09539 1.2359 0.5583 1.1863 0.87946 0.8426 0.81397 0.80674 0.92493 0.839 1.1246 0.76627 1.2055 0.91317 1.7844 0.30761 0.74985 0.3494 1.0643 0.25277 1.2314 0.077418 1.0354-0.10175 2.9922 0.035638 1.416 0.14639 1.0962 0.24937 0.50169" stroke="#bdc660"/>
    </defs>
    <g clip-path="url(#p4ce8bf837a)">
     <use y="280.512" fill="#bdc660" stroke="#bdc660" xlink:href="#m1e20484a9d"/>
    </g>
   </g>
  </g>
 </g>
 <defs>
  <clipPath id="p4ce8bf837a">
   <rect x="7.2" y="7.2" width="218.3" height="266.11"/>
  </clipPath>
 </defs>
</svg>
