<?xml version="1.0" encoding="UTF-8"?>
<!DOCTYPE svg  PUBLIC '-//W3C//DTD SVG 1.1//EN'  'http://www.w3.org/Graphics/SVG/1.1/DTD/svg11.dtd'>
<svg width="265.53pt" height="280.51pt" version="1.1" viewBox="0 0 265.53 280.51" xmlns="http://www.w3.org/2000/svg" xmlns:xlink="http://www.w3.org/1999/xlink">
 <metadata>
  <rdf:RDF xmlns:cc="http://creativecommons.org/ns#" xmlns:dc="http://purl.org/dc/elements/1.1/" xmlns:rdf="http://www.w3.org/1999/02/22-rdf-syntax-ns#">
   <cc:Work>
    <dc:type rdf:resource="http://purl.org/dc/dcmitype/StillImage"/>
    <dc:date>2024-07-04T12:08:44.734984</dc:date>
    <dc:format>image/svg+xml</dc:format>
    <dc:creator>
     <cc:Agent>
      <dc:title>Matplotlib v3.7.1, https://matplotlib.org/</dc:title>
     </cc:Agent>
    </dc:creator>
   </cc:Work>
  </rdf:RDF>
 </metadata>
 <defs>
  <style type="text/css">*{stroke-linejoin: round; stroke-linecap: butt}</style>
 </defs>
 <g id="figure_1">
  <g id="patch_1">
   <path d="m0 280.51h265.53v-280.51h-265.53v280.51z" fill="none"/>
  </g>
  <g id="axes_1">
   <g id="PatchCollection_1">
    <defs>
     <path id="me6ff6aea4b" d="m160.92-261.03 0.041166 0.13517-0.094346 0.53139-0.25532 0.98831-2.0312 7.1022-0.53939 2.334-0.24058 1.3631-0.17351 1.5246-0.006412 2.0537 0.31867 1.8011 0.32559 0.90871 0.87806 1.6421 1.1025 1.5709 2.4622 3.2498 3.3137 4.4859 2.0099 2.4613 1.267 1.3541 1.3319 1.2315 1.5077 1.1767 3.1477 2.3477 3.2073 2.4949 1.22 0.88599 1.2572 0.8173 2.1984 1.187 3.4556 1.676 3.2725 1.4368 4.3624 1.7749 3.8988 1.4267 2.7491 0.90516 1.857 0.52224 2.0339 0.49858 1.6712 0.35929 5.3802 0.94946 1.4896 0.31695 1.837 0.53924 3.6022 1.2859 1.8182 0.57302 1.2192 0.2977 1.2305 0.23658 2.5347 0.30317 2.0444 0.079862 1.9083-0.034588 2.8755-0.15537 1.2014 0.020589 1.1745 0.12928 1.4325 0.33751 0.979 0.33042 0.94946 0.42293 1.57 0.98625 2.9435 2.3989 1.415 1.068 0.58054 0.36718 0.78146 0.42725 0.60802 0.27438 0.67672 0.18 0.1993-0.045883-1.1464 7.2087-0.55348 4.2518-0.37792 3.8524-0.12854 1.8559-0.10556 2.9633 0.026806 2.6693 0.12972 2.1347 0.30553 2.9369 0.89681 7.657 0.3398 3.8919 0.12447 2.9804-0.028384 1.8389-0.072146 1.2845-0.15646 1.5857-0.2607 1.6627-0.20602 0.96476-0.27335 1.0331-0.34384 1.0493-0.84967 1.9146-0.96018 1.6632-0.56384 0.80596-0.55441 0.70031-0.8152 0.9118-0.86022 0.86047-1.1005 1.0036-2.7988 2.3225-3.6986 2.8494-2.7366 1.918-1.4555 0.9351-1.3858 0.82322-1.4019 0.75199-1.7601 0.8001-1.9759 0.67901-1.6843 0.47287-1.8094 0.44964-4.8701 1.0762-1.5142 0.40189-1.4701 0.49463-1.4006 0.60458-1.4926 0.85148-1.3681 1.0356-0.80659 0.77162-0.87597 1.0608-0.39376 0.61161-0.48176 1.008-0.22517 0.729-0.18012 1.6227 0.15295 1.7131 0.41077 1.7738 0.37751 1.1755 0.50183 1.3111 0.67986 1.509 1.3135 2.4459 4.7893 8.0042 1.1442 1.7384 0.9525 1.2745 0.99884 1.1905 1.0921 1.1355 1.1306 0.98205 3.0972 2.1114 0.93807 0.76277 0.90462 0.83433 2.6369 2.6372 0.69844 0.63879 0.74477 0.58981 0.95853 0.61751 4.0082 2.1237 0.96298 0.60229 1.3724 1.0413 1.0239 1.0042 0.78078 1.0224 0.3224 0.56181 0.40757 1.0437 0.16614 1.011-0.015541 0.6592-0.118 0.71892-0.20806 0.74131-0.29232 0.78998-0.5922 1.3044-1.5662 3.0979-0.65538 1.5419-0.56378 1.6937-0.48215 2.2749-0.26899 1.9143-0.19466 1.9199-0.13106 1.8549-0.047132 1.9235 0.12597 1.5186 0.2591 1.1015 0.35398 0.4366-0.34244 0.36497-0.75878 0.68409-1.1347 0.92593-1.1718 0.86983-2.2827 1.5204-4.7634 2.8573-2.6802 1.4182-1.6634 0.72489-1.0247 0.36261-1.0029 0.2723-0.90949 0.15213-1.0328 0.035164-0.7041-0.077865-0.96982-0.28771-0.95811-0.58009-0.86156-0.80044-0.7901-0.95563-0.73838-1.0586-2.9531-4.8544-0.66394-0.91656-0.72606-0.79974-0.82921-0.69122-1.8126-1.302-0.97627-0.64399-1.0457-0.53194-1.051-0.33235-0.8452-0.1618-1.0187-0.11143-1.3836 0.008924-0.99825 0.1438-0.62875 0.14717-0.93173 0.29299-0.92353 0.36981-1.4746 0.72846-2.2692 1.2585-1.8254 1.104-1.8554 1.2581-1.0057 0.63033-1.0703 0.59548-1.4939 0.71653-1.5666 0.64877-3.1896 1.1164-2.817 0.83078-1.3599 0.31278-0.72791 0.37633-1.5228-0.0179-1.9353-0.39914-2.0766-0.82927-1.1122-0.64333-1.1001-0.76269-1.5201-1.2046-3.2574-2.8529-3.7705-3.3997-2.6471-2.299-1.3782-1.1212-1.3708-1.034-1.9661-1.2835-1.0472-0.55649-1.0019-0.43376-0.98236-0.32582-0.94377-0.20699-0.94349-0.086368-0.6003 0.017047-1.0766 0.1907-0.48953 0.1614-0.535 0.23977-1.1651 0.80975-0.60964 0.63088-0.29946 0.38263-0.63664 1.0391-0.56429 1.3211-0.38861 1.3664-0.185 0.97353-0.16278 1.5765-0.005093 1.6118 0.075888 0.97269 0.2937 1.811 0.44782 1.9105 0.86535 3.3411 0.39864 1.9011 0.14759 1.0885 0.053628 1.1435-0.046464 0.78517-0.14672 0.84804-0.29366 0.96898-0.29782 0.69333-0.3226 0.58995-0.41604 0.60065-0.35681 0.41125-0.61645 0.54678-0.71341 0.45546-1.2785 0.56945-5.836 1.9992-4.3987 1.6669-1.8281 0.5954-1.9615 0.48493-2.086 0.37169-2.0334 0.26103-6.8682 0.57228-3.4809 0.39896-3.5238 0.57242-1.5389 0.31543-1.6966 0.43267-1.9273 0.65255-0.99632 0.42189-2.0589 1.0388-1.711 1.0594-2.4699 1.7628-1.0185 0.55733-0.65533 0.25839-0.83092 0.22673-0.69938 0.10488-0.48739 0.019923-1.037-0.13092-0.60201-0.2041-0.41869-0.20127-0.56991-0.34673-1.2231-0.96987-1.6783-1.6051-2.1323-1.9416-0.78887-0.80665-1.6091-1.7687-0.82934-0.81567-5.4031-4.7414-0.94108-0.84867-0.74732-0.74415-1.433-1.6569-0.85106-1.1528-1.6779-2.4773-0.9845-1.1527-0.71035-0.65015-0.70478-0.53585-0.82235-0.52981-0.9752-0.47708-0.71742-0.23028-0.44294-0.085135-0.91633-0.049062-0.76102 0.070354-0.59227 0.11666-1.0311 0.31034-2.6492 1.0766-1.8264 0.6532-2.044 0.50708-2.1886 0.35818-2.287 0.24846-4.6883 0.30159-2.5631 0.11031-2.3228-0.007697-2.7759-0.19978-2.3457-0.34967-1.0421-0.23766-0.59592-0.1773-0.79321-0.3132-0.53961-0.2778-0.21904-0.22127 0.28689-0.6858 2.8488-6.1062 1.4915-3.5257 0.37-0.99986 0.45864-1.5348 0.23585-1.2924 0.10874-1.3056-0.001667-1.3107-0.088209-1.2104-0.16227-1.204-0.22987-1.1932-0.384-1.5159-0.45316-1.4926-1.5676-4.6964-0.42801-1.5819-0.2783-1.564-0.05941-1.5463 0.15987-1.2761 0.31943-1.2652 0.43654-1.2557 1.0864-2.485 2.0354-4.2504 0.56866-1.3505 0.44239-1.2946 0.96087-3.8851 0.13799-0.91699-0.048974-0.90153-0.11185-0.41853-0.38111-0.83055-0.70068-1.0378-0.71219-0.88425-2.3549-2.7401-1.2067-1.5329-0.7319-1.0623-2.2642-3.6317-0.91918-1.2994-1.1454-1.2923-4.552-4.323 0.036835-0.32704 0.16805-0.35706 0.73325-1.146 1.203-1.5185 1.1189-1.1838 1.0894-0.98464 1.0008-0.80006 4.0234-2.8744 1.4196-1.0968 1.9356-1.6681 2.4518-2.36 2.514-2.6965 3.6874-4.1423 8.6873-9.1773 1.7916-2.0086 2.0813-2.5498 2.0236-2.7476 1.1343-1.6503 1.8668-2.8863 0.97443-1.5855 1.9764-3.3874 0.99929-1.8019 4.5077-8.4778 1.8859-3.3732 1.7624-2.8959 2.0877-3.0893 1.1871-1.5999 1.2582-1.5791 1.3063-1.5378 2.1908-2.4173 3.3584-3.5972 2.0067-2.2945 1.8662-2.3558 0.96805-1.3239 4.6457-6.8444 1.3241-1.7189 1.1374-1.3132 3.3028-3.4967 1.3105-1.448 1.1613-1.376 1.1674-1.4932 0.84211-1.153 1.6028-2.3611 4.8241-7.7913 3.4452-5.2755 2.3869-3.4412 1.3162-1.7584 1.3697-1.6914 1.8614-2.0276 1.3405-1.2313 1.4384-1.1191 1.5277-0.98555 0.69931-0.38821 2.0417-0.98054 2.0737-0.82547 1.9928-0.67226 1.7584-0.50994 1.8734-0.43899 0.85785-0.2717 1.0207-0.24908 1.3196-0.23384 0.76711-0.075463 1.5732 0.005392 3.5368 0.31467 1.0293 0.056508 1.7749-0.012343 1.7852-0.1231 1.8064-0.26556 1.0759-0.26607 1.1413-0.42282 0.58163-0.30631 0.50222-0.3526 0.34892-0.32304 0.8278-1.0338 0.51771-0.92714 0.56466-1.3175 0.63463-1.2744 0.71104-1.1847 0.73521-1.033 0.65172-0.78579 0.69169-0.69153 1.2432-0.94721 0.4614-0.44515 0.83572-1.0406 1.3194-1.9136 0.14761-0.11356 0.07994 0.031734 0.014684 0.15736" stroke="#bdc660"/>
    </defs>
    <g clip-path="url(#pa1141bffe1)">
     <use y="280.512" fill="#bdc660" stroke="#bdc660" xlink:href="#me6ff6aea4b"/>
    </g>
   </g>
  </g>
 </g>
 <defs>
  <clipPath id="pa1141bffe1">
   <rect x="7.2" y="7.2" width="251.13" height="266.11"/>
  </clipPath>
 </defs>
</svg>
