<?xml version="1.0" encoding="UTF-8"?>
<!DOCTYPE svg  PUBLIC '-//W3C//DTD SVG 1.1//EN'  'http://www.w3.org/Graphics/SVG/1.1/DTD/svg11.dtd'>
<svg width="212.05pt" height="280.51pt" version="1.1" viewBox="0 0 212.05 280.51" xmlns="http://www.w3.org/2000/svg" xmlns:xlink="http://www.w3.org/1999/xlink">
 <metadata>
  <rdf:RDF xmlns:cc="http://creativecommons.org/ns#" xmlns:dc="http://purl.org/dc/elements/1.1/" xmlns:rdf="http://www.w3.org/1999/02/22-rdf-syntax-ns#">
   <cc:Work>
    <dc:type rdf:resource="http://purl.org/dc/dcmitype/StillImage"/>
    <dc:date>2024-07-04T12:08:41.324660</dc:date>
    <dc:format>image/svg+xml</dc:format>
    <dc:creator>
     <cc:Agent>
      <dc:title>Matplotlib v3.7.1, https://matplotlib.org/</dc:title>
     </cc:Agent>
    </dc:creator>
   </cc:Work>
  </rdf:RDF>
 </metadata>
 <defs>
  <style type="text/css">*{stroke-linejoin: round; stroke-linecap: butt}</style>
 </defs>
 <g id="figure_1">
  <g id="patch_1">
   <path d="m0 280.51h212.05v-280.51h-212.05v280.51z" fill="none"/>
  </g>
  <g id="axes_1">
   <g id="PatchCollection_1">
    <defs>
     <path id="md76b409d5c" d="m150.31-241.05-0.002648 0.068447 0.18008 0.37916 0.83229 1.3829 2.0658 3.1052 2.6209 3.6451 2.6052 3.3194 1.5718 1.8311 1.9192 2.0757 1.9351 1.9622 3.1702 3.1133 1.5792 1.6241 1.4677 1.6744 1.0462 1.3602 1.1242 1.6797 1.069 1.9045 0.76263 1.6711 0.43355 1.1857 0.36512 1.3157 0.21428 1.1594 0.12341 1.2947 0.05263 1.8713-0.047967 1.8687-0.10756 1.0238-0.10746 0.63352-0.41927 1.713-0.28253 0.8854-0.42225 1.1005-0.87811 1.7932-4.1006 6.8999-0.5666 1.008-0.63997 1.2756-0.43895 1.1084-0.17687 0.60371-0.14448 0.70787-0.11745 1.1701-0.018956 1.1548 0.13063 3.3658 0.01014 1.4304-0.12346 1.929-0.33257 2.6748-0.044403 0.96099 0.080864 0.95837 0.1565 0.68559 0.17302 0.49522 0.45546 0.95017 0.63581 1.0387 1.4225 1.9669 1.8944 2.3496 0.71999 1.1148 0.44577 0.90991 0.4409 1.1209 0.34072 1.0148 1.8534 6.1267 1.1585 3.2577 0.57656 1.4248 0.64427 1.4581 0.94761 1.9333 0.74226 1.3416 0.77182 1.2052 0.8876 1.217 0.71091 0.87472 0.74848 0.8386 0.84526 0.85471 0.88634 0.79797 1.1215 0.89124 5.3191 4.0791 2.6531 2.1607 0.89059 0.81521 0.91808 0.93383 0.61489 0.74548 0.19286 0.3304 0.004301 0.1811-0.10623-0.023822-0.13067 0.037433-0.34113 0.20296-0.38063 0.32189-0.44644 0.4871-0.65763 0.95025-1.3706 2.4591-0.47905 0.72765-0.3597 0.45865-0.43009 0.46031-0.41198 0.37297-0.56049 0.42525-0.94012 0.5524-0.72833 0.31725-0.42661 0.1436-0.97762 0.22425-2.2029 0.32669-0.79978 0.20701-0.50309 0.18328-1.2055 0.59463-0.5751 0.35036-1.2986 0.91885-0.94448 0.79171-1.0246 1.0389-2.3177 2.552-3.3146 3.7898-1.7646 1.9538-2.5352 2.6556-3.5274 3.5361-2.2587 2.1501-5.0151 4.3276-4.4412 3.906-1.5083 1.3913-1.6932 1.6673-2.1041 2.2731-1.8728 2.211-1.4146 1.8029-1.8171 2.5549-0.78164 1.2384-0.62138 1.1096-0.45935 1.0039-0.24144 0.70269-0.20124 0.97865-0.046196 0.55959 0.056188 1.3748 0.12453 0.81752 0.25319 1.0879 0.33485 1.0456 0.21828 0.56685 0.77496 1.6812 2.783 5.0186 0.69565 1.4072 0.5937 1.3961 0.29444 0.82283 0.49175 1.645 0.27509 1.6075-0.074332 1.5497-0.41668 1.2486-0.51912 0.95413-0.67225 0.97771-0.66091 0.83606-0.6785 0.78043-1.0711 1.1205-3.8498 3.573-1.9938 2.0057-1.2596 1.3694-1.202 1.3888-0.80313 0.98786-1.0171 1.3524-0.91314 1.368-0.53934 0.89436-1.2388 2.2842-0.93975 1.9218-2.3379 5.0075-1.5451 3.0853-0.22915-0.17168-0.4945-0.13492-0.81047-0.074238-0.78157 0.025621-1.2614 0.20329-2.0218 0.49294-1.0653 0.22086-1.0699 0.11428-0.72575-0.017528-0.93261-0.12827-2.0564-0.40025-2.4191-0.35604-6.027-0.98399-1.3566-0.2775-0.69822-0.17997-1.3154-0.4112-1.2935-0.49782-1.818-0.8775-0.77033-0.44882-0.93196-0.61916-1.2181-0.93942-0.8428-0.73557-3.7415-3.5625-1.1875-1.0323-1.2333-0.9763-2.052-1.3718-1.3671-0.96842-0.98867-0.5951-0.34665-0.15826-1.0652-0.28918-0.83418-0.031326-1.1457 0.14444-1.2865 0.33569-1.3932 0.52883-1.8572 0.92498-3.7731 2.2138-1.8508 1.0431-1.9659 0.98378-1.7267 0.72104-1.8045 0.50664-1.1662 0.12961-0.72487-0.00421-0.74852-0.065701-1.142-0.21744-0.7235-0.21943-0.6836-0.28355-0.55747-0.30649-0.50518-0.36351-0.69977-0.71261-0.4412-0.60049-0.29387-0.49405-0.37059-0.82423-0.21003-0.7179-0.093184-0.56809-0.028617-0.5336 0.10106-1.0918 0.30843-1.2917 0.65114-1.9584 1.4378-3.9337 0.37988-1.2927 0.1832-0.76517 0.16205-0.85653 0.12492-0.98093 0.065795-1.0616-0.031751-1.0523-0.20554-1.2736-0.20732-0.7634-0.26247-0.76144-0.63683-1.4682-2.465-4.7667-0.78736-1.3966-0.6026-0.95449-0.68319-0.95792-0.6933-0.83839-1.0293-1.0197-0.38511-0.31814-0.99276-0.66988-0.57599-0.31066-0.76362-0.34668-0.87688-0.31346-0.87013-0.22454-1.0423-0.1629-1.5837-0.086832-5.541 0.17616-1.5947-0.04536-1.528-0.14886-1.9297-0.33846-2.6859-0.67133-2.872-0.91669-1.9361-0.74986-1.053-0.46386-1.6932-0.82834-1.9923-1.083-2.0254-1.2092-1.5421-1.0225-1.0106-0.79881-0.53734-0.48612-0.65592-0.67193-0.54126-0.64625-0.43104-0.61284-0.31808-0.56475-0.25873-0.70908-0.033701-0.20788 0.18697-0.56317 0.1261-0.06925 0.24314-0.25315 0.55612-0.69398 0.70512-1.0024 0.97914-1.5865 0.97969-1.8226 0.70222-1.4805 0.72623-1.7325 1.9558-5.4462 0.85733-2.1723 0.45204-1.0035 0.87005-1.6847 0.77252-1.275 0.73934-1.0664 0.8082-1.0376 0.81562-0.92944 1.1262-1.1303 0.84275-0.75103 1.7771-1.3981 1.0335-0.72879 3.4293-2.2608 2.0291-1.4779 0.92012-0.76893 0.71813-0.662 0.68645-0.69539 0.8771-0.99593 1.1026-1.4356 1.1804-1.8242 1.2045-2.1723 2.4549-4.6883 1.0229-1.7192 1.0228-1.5521 1.2835-1.7655 1.6833-2.0821 1.9021-2.1361 0.96149-0.99304 0.3178-0.28094 2.2434-2.2912 1.8982-2.0244 3.1778-3.5866 2.2888-2.7671 1.184-1.5002 2.0692-2.7438 1.6711-2.3429 1.4062-2.0809 2.6878-4.265 2.5667-4.3963 2.7282-5.0022 1.4583-2.936 0.68641-1.5231 0.75085-1.8643 0.6372-1.9121 0.31793-1.1876 0.28686-1.324 0.22029-1.2835 0.19299-1.5254 0.41684-5.2186 0.31586-2.6767 0.43596-2.1701 0.4199-1.4145 0.48924-1.255 0.52854-1.0922 0.60029-1.0279 0.71636-1.0196 0.62631-0.75398 0.9904-0.99423 1.0877-0.879 1.2375-0.78776 0.74656-0.38537 1.0047-0.42477 0.89691-0.29597 0.98326-0.24213 0.91208-0.15407 0.83326-0.086288 0.85745-0.039049 1.8668 0.060085 2.4946 0.28925 5.0801 0.75446 1.3666 0.1341 1.4514 0.070802 1.1584-0.012169 1.0744-0.078011 1.5031-0.24118 0.44414-0.10746 1.1921-0.39178 0.5939-0.26172 0.58063-0.30799 0.96336-0.65246 0.62949-0.54889 0.5856-0.62435 0.51619-0.66684 0.73241-1.2026 0.58331-1.2585 0.30213-0.78024 1.1937-3.4957 0.98989-2.635 0.19544-0.60448 0.13738-0.58544 0.052863-0.5407-0.078861-0.65639-0.18924-0.48388-0.34474-0.5421-0.49178-0.56098-1.0115-0.88276-1.3567-0.96618-3.82-2.4291-0.98088-0.66838-1.4278-1.1201-0.67917-0.65788-0.55325-0.67648-0.2163-0.33567-0.15009-0.28028-0.20734-0.53496-0.10506-0.52544-0.026498-0.48879 0.10868-1.0414 0.17781-0.76717 1.8519-5.637 1.4207-5.2108 2.0538-7.1698 1.3834-5.4282 1.8697-7.7776 0.33141-1.1249 0.27402-0.72343 0.33502-0.64276 0.3097-0.39908 0.21253-0.19057 0.50901-0.27119 0.63471-0.073161 0.33397 0.060134 0.39559 0.14316 0.52936 0.28718 0.7598 0.5466 0.83014 0.69926 4.1389 3.7166 1.0488 0.84783 0.63181 0.45844 0.80886 0.49837 0.6818 0.33045 2.433 0.88432 1.2736 0.54122 0.91406 0.51041 0.92689 0.61763 0.99262 0.75473 1.0977 0.92757 1.838 1.7266 1.41 1.4416 3.8867 4.2038 0.88769 0.86547 0.15886 0.10938" stroke="#bdc660"/>
    </defs>
    <g clip-path="url(#pc6b19ff100)">
     <use y="280.512" fill="#bdc660" stroke="#bdc660" xlink:href="#md76b409d5c"/>
    </g>
   </g>
  </g>
 </g>
 <defs>
  <clipPath id="pc6b19ff100">
   <rect x="7.2" y="7.2" width="197.65" height="266.11"/>
  </clipPath>
 </defs>
</svg>
