<?xml version="1.0" encoding="UTF-8"?>
<!DOCTYPE svg  PUBLIC '-//W3C//DTD SVG 1.1//EN'  'http://www.w3.org/Graphics/SVG/1.1/DTD/svg11.dtd'>
<svg width="332.01pt" height="280.51pt" version="1.1" viewBox="0 0 332.01 280.51" xmlns="http://www.w3.org/2000/svg" xmlns:xlink="http://www.w3.org/1999/xlink">
 <metadata>
  <rdf:RDF xmlns:cc="http://creativecommons.org/ns#" xmlns:dc="http://purl.org/dc/elements/1.1/" xmlns:rdf="http://www.w3.org/1999/02/22-rdf-syntax-ns#">
   <cc:Work>
    <dc:type rdf:resource="http://purl.org/dc/dcmitype/StillImage"/>
    <dc:date>2024-07-04T12:08:29.406370</dc:date>
    <dc:format>image/svg+xml</dc:format>
    <dc:creator>
     <cc:Agent>
      <dc:title>Matplotlib v3.7.1, https://matplotlib.org/</dc:title>
     </cc:Agent>
    </dc:creator>
   </cc:Work>
  </rdf:RDF>
 </metadata>
 <defs>
  <style type="text/css">*{stroke-linejoin: round; stroke-linecap: butt}</style>
 </defs>
 <g id="figure_1">
  <g id="patch_1">
   <path d="m-0 280.51h332.01v-280.51h-332.01v280.51z" fill="none"/>
  </g>
  <g id="axes_1">
   <g id="PatchCollection_1">
    <defs>
     <path id="m423a140f83" d="m165.26-250.69 0.15773 0.073187 0.073461 0.1272 0.12157 0.38536 0.081449 0.49278 0.084728 1.0808 0.16545 3.4235 0.25243 2.3156 0.36573 2.1752 0.76218 3.8306 0.65764 4.4002 0.29977 1.7437 0.38271 1.7356 0.479 1.7701 0.56577 1.8153 1.0682 3.102 1.06 2.6233 0.78727 1.7723 0.64106 1.3333 1.293 2.4124 2.7217 4.4608 1.2576 2.2748 1.1071 2.2498 1.1978 2.8762 0.60198 1.1905 0.51527 0.81393 0.40731 0.5191 0.32971 0.34651 0.72947 0.55988 0.62924 0.30822 0.57694 0.15907 0.41925 0.046195 1.0013-0.090512 1.0925-0.30395 3.7764-1.5027 1.5643-0.57746 2.7271-0.89572 4.0052-1.2265 2.2565-0.7698 2.5077-0.93487 4.9441-1.9313 2.0841-0.72364 1.5372-0.40681 2.2027-0.42721 1.4906-0.17871 0.85031-0.026682 0.71714 0.032299 1.0331 0.14326 1.2104 0.28817 1.9218 0.64654 2.2154 0.92814 6.7708 3.1019 1.1202 0.45634 2.1412 0.79944 1.074 0.4546 1.3221 0.70631 0.95492 0.61937 1.4401 1.074 1.6603 1.3251 0.85232 0.61325 0.58844 0.35777 0.53473 0.2606 0.65686 0.214 0.8126 0.052703 0.37585-0.078933 0.39697-0.16136 0.2929-0.17133 0.37875-0.28556 0.72942-0.71599 0.60345-0.70157 2.43-3.2231 0.46112-0.55778 0.72141-0.69916 0.5998-0.36064 0.40262-0.13609 0.70482-0.10044 0.75991 0.005485 1.9371 0.11814 1.2872-0.032601 1.0329-0.14038 3.3403-0.68364 0.64986-0.085558 0.8025-0.049568 1.5691 0.093324 4.5692 0.69296 1.2483 0.22881 3.1867 0.79176 4.1194 0.78358 2.8539 0.75858 2.1018 0.71292 2.7247 1.0404 0.95022 0.44737 0.4341 0.25977 0.13998 0.14023-1.2689 1.6348-0.79328 1.2547-0.40023 0.78522-0.35557 0.85932-0.32414 1.0102-0.18351 0.76162-0.13611 0.9097-0.032294 0.6572 0.022558 0.59692 0.067165 0.55412 0.22928 1.0243 0.34755 1.0334 0.43829 1.028 0.51402 1.0347 1.3468 2.3427 1.7905 2.8023 4.3201 6.5 1.7611 2.7347 1.7559 2.8966 0.8099 1.4309 1.3448 2.5861 0.69592 1.5076 0.60825 1.4842 0.54603 1.577 0.7423 2.5246 0.433 1.1705 0.51459 1.1661 0.87752 1.6959 0.90804 1.5273 1.0624 1.5844 0.55408 0.75171 0.68283 0.85364 0.69352 0.77479 0.56142 0.5497 0.59892 0.51063 0.72596 0.54667 0.90055 0.6139 0.55689 0.43792 0.32129 0.36944 0.19701 0.4177 0.045619 0.82779-0.21072 0.96726-0.70335 2.2926-0.25907 1.1669-0.15715 1.0241-0.083005 1.017-0.004136 0.74437 0.08529 1.9762-0.006316 0.95337-0.040602 0.52166-0.11546 0.7448-0.21571 0.81113-0.67333 1.4883-0.95084 1.4426-1.1385 1.3965-1.2464 1.3466-2.368 2.3793-0.96589 1.0771-0.74358 1.1046-0.40737 1.1749-0.041005 0.66856 0.036445 0.44153 0.12768 0.64822 0.59249 1.5719 0.99668 1.7722 1.2809 1.8497 1.4836 1.8933 1.6055 1.8869 1.3225 1.4726 3.4371 3.6535 0.33219 0.42488-0.73032 0.71407-2.866 3.0304-1.0911 1.1021-1.4883 1.427-1.2287 1.0739-0.85534 0.58373-0.78054 0.41388-0.66712 0.29116-1.7226 0.63053-0.89394 0.409-0.42724 0.27993-0.51219 0.4938-0.51475 0.89799-0.32787 1.076-0.20418 1.1845-0.31826 3.0669-0.22613 1.1812-0.14773 0.57059-0.17144 0.53951-0.23792 0.58561-0.35881 0.70043-0.43884 0.57629-0.6811 0.45458-0.40483 0.11084-0.55731 0.03291-0.44539-0.044151-2.6144-0.65761-3.7214-0.76857-1.5023-0.18896-0.77938-0.010101-0.3637 0.02767-0.77283 0.15633-0.95443 0.48344-0.77126 0.74551-0.54976 0.94809-0.25831 0.85135-0.46234 2.7701-0.41475 1.6372-0.27017 0.77052-0.64185 1.3593-0.82921 1.2474-2.5073 3.1623-0.60876 0.87216-0.61771 1.0226-0.36036 0.69312-0.48419 1.1595-0.22178 0.66775-0.4616-1.2877-0.34965-0.76584-0.46246-0.82568-0.53228-0.77523-0.56527-0.68062-0.5045-0.51558-0.50231-0.44783-0.75722-0.58017-1.3216-0.8167-1.3803-0.68304-2.0218-0.81782-2.3296-0.77565-3.1658-0.95973-2.8921-1.0026-2.6914-1.0871-2.5107-1.1118-1.2017-0.59264-1.0948-0.59384-1.0441-0.62838-1.0911-0.73592-1.0239-0.77742-2.4204-2.1119-1.1851-0.97374-1.2519-0.82332-1.3768-0.62849-1.4735-0.48602-3.4093-0.95765-1.8766-0.65832-2.5306-1.1359-1.8648-0.94474-3.7816-2.085-9.4994-5.5122-1.8569-1.0052-1.8189-0.909-1.7639-0.76833-1.6862-0.56898-1.5787-0.29254-1.4323 0.08424-0.50786 0.15987-0.567 0.28774-0.90505 0.69944-1.1936 1.2554-1.1155 1.3109-0.99901 1.2595-0.87591 1.1878-0.82107 1.1907-1.1453 1.7773-0.93894 1.6106-0.72508 1.6585-0.33438 1.329-0.15719 1.3772-0.010826 1.5186 0.22717 3.9668 0.22751 2.5176 0.29138 2.4826 0.23218 1.5942 0.35588 2.0183 0.44246 1.9854 0.31602 1.1772 0.35622 1.1518 0.41952 1.1702 0.4712 1.1283 0.91444 1.7624 0.55746 0.86368 3.2273 4.3156 0.81682 1.0184 1.8933 2.1303 0.55887 0.67998 0.64532 0.87119 0.5855 0.90436 0.46825 0.83971 0.41383 0.8528 0.45238 1.1014 0.33685 1.1009 0.10285 0.48643 0.097332 0.83054-0.021353 0.82212-0.19188 0.93232-0.30124 0.79787-0.40582 0.78214-0.89255 1.2996-1.1001 1.2664-1.3631 1.3285-1.4994 1.2983-1.6439 1.3106-3.4711 2.5547-5.5541 3.923-2.9205 1.9747-1.3215 0.79946-1.3477 0.71727-1.6464 0.73586-2.0188 0.77114-4.007 1.4189-2.2473 0.86999-2.9795 1.2997-1.7577 0.87824-2.1942 1.2193-1.0678 0.66398-0.3827 0.28098-0.10952 0.15098-0.26616-0.46671-0.94967-1.9514-0.68998-1.3017-0.99078-1.6978-0.66026-1.0553-1.312-1.9706-4.2068-5.9399-1.1143-1.759-0.67607-1.1994-0.74504-1.4691-0.93904-2.0535-1.8762-4.3128-0.57641-1.1739-0.3699-0.63008-0.43862-0.59453-0.7873-0.76882-0.91005-0.62301-1.0001-0.47586-1.0632-0.31722-1.1035-0.1364-0.49672 0.004577-0.87058 0.092059-0.95061 0.19392-0.83143 0.23802-1.2542 0.45178-1.0636 0.43763-1.1662 0.53415-1.6272 0.90533-0.71182 0.46915-1.057 0.79-0.75168 0.62175-1.1854 1.064-2.6256 2.5682-1.077 0.97447-0.97804 0.80775-0.74328 0.56099-0.99988 0.65688-0.65887 0.38399-1.1546 0.58655-1.4013 0.602-1.3773 0.50329-0.92736 0.26912-0.64153 0.1366-0.89378 0.12536-1.9546 0.15586-1.0054 0.11859-0.69108 0.14712-0.50228 0.1595-0.83825 0.39139-0.71627 0.48692-0.56062 0.55831-0.18375 0.33366-0.006214 0.13939-13.393-2.8175-4.8343-1.0783-4.5272-1.0881-2.0968-0.55146-1.9524-0.56035-3.5346-1.1124-3.7499-0.75982-1.2865-0.40277-1.8035-0.71111-1.2121-0.42458-1.2333-0.2552-1.1573-0.0272-1.8684 0.13999-1.3198 0.023693-1.2931-0.1908-1.0102-0.38413-0.98218-0.55025-1.5837-1.1571-0.85927-0.74057-1.4865-1.3693-2.5378-2.5769-0.92879-0.83144-0.74099-0.55928-1.2806-0.75593-1.3765-0.62887-4.7575-1.7511-3.399-1.5401-0.62207-0.23878-0.73036-0.2251-0.94493-0.18471-0.79182-0.064571-0.82381 0.007694-1.2704 0.14431-0.97364 0.19527-1.0107 0.25964-4.2477 1.2878-0.73426 0.17564-1.0424 0.18086-1.3324 0.093759-0.98855-0.055317-0.763-0.13089-0.63532-0.17758-0.61348-0.24102-0.52576-0.26997-0.97996-0.66421-0.48707-0.40737-0.83072-0.82392-0.76865-0.90772-0.68678-0.92907-0.44358-0.66575-0.43823-0.73815-0.40522-0.78384-0.31277-0.70316-0.30153-0.81287-0.22774-0.80788-0.045435-0.27485 0.016207-0.16962-1.2511-2.0036-0.5688-0.99452-0.42857-0.95063-0.40646-1.2564-0.19124-0.961-0.09317-1.0476 0.032064-1.5059 0.15688-1.3504 0.28193-1.4397 1.0767-4.9175 0.45454-2.564 0.3715-1.8072 0.22513-0.86418 0.39724-1.2786 0.5066-1.4334 0.93251-2.0926 0.83313-1.5679 0.88853-1.3219 2.0464-2.7056 0.56135-0.80243 0.56368-0.92072 0.45916-0.95714 0.25421-0.79242 0.15862-1.299-0.049746-1.1651-0.13796-1.0347-0.48944-2.6646-0.15158-1.3292 0.076112-1.1706 0.30585-0.98946 0.49988-0.94909 0.64673-0.8954 0.48289-0.55623 4.0496-4.2849 1.1116-1.014 1.2057-0.94102 0.91474-0.64443 1.8694-1.1338 0.63424-0.45741 0.54848-0.49751 0.28751-0.3228 0.5623-0.81541 0.18846-0.39154 0.12851-0.38182 0.072883-0.42722-0.001004-0.38473-0.091302-0.56047-0.10778-0.39719-0.45002-1.3515-0.32458-1.1229-0.11482-0.61964-0.048669-0.79412 0.051214-0.62011 0.18792-0.86888 0.13505-0.42305 0.35498-0.85425 0.58653-1.0563 0.9726-1.3891 1.123-1.3507 0.86599-0.93408 1.0423-1.0385 0.93892-0.8733 1.8312-1.5975 3.5322-2.9056 2.5252-2.1543 1.1932-1.0363 1.2163-1.1473 0.88151-0.99604 0.74166-1.0419 0.52777-0.96264 0.32589-0.85462 0.098604-0.36198 0.14446-0.83633 0.035355-0.48339-0.018211-1.0035-0.15917-1.214-0.24807-1.1102-0.54968-1.7654-0.68239-1.73-1.0355-2.2003-1.1518-2.1397-1.2314-2.1044 0.24998 0.055991 0.60908 0.049254 0.92898 4.07e-4 0.67736-0.071971 0.91996-0.19121 0.86054-0.2702 0.80208-0.34519 0.72277-0.42971 0.33475-0.26641 0.57898-0.65968 0.35983-0.59449 1.1556-2.3806 1.4031-2.5148 0.63243-1.3204 0.21852-0.54812 0.29437-0.91273 0.15301-0.66769 0.1111-0.91363-0.017-0.91225-0.087196-0.62774-0.16455-0.73103-0.38065-1.2242-1.1701-3.1451-0.53232-1.5477-0.16817-0.58862-0.20187-1.0458-0.069772-1.0715 0.042575-0.81748 0.1067-0.8238 0.20858-1.0722 0.37261-1.2629 0.28245-0.72502 0.41952-0.91854 1.1752-2.2831 0.49997-1.0912 0.4513-1.1382 0.48954-1.5583 0.092207-0.4044 0.21558-1.3486 0.070884-1.446-0.11478-2.6123-0.23808-3.3769 0.018423-1.7806 0.093387-1.0773 0.23603-1.3729 0.22126-0.82434 0.95766-2.9334 0.4859-1.2493 0.26978-0.53486 0.54904-0.85267 1.0584-1.2232 0.56276-0.5664 0.82391-0.73354 0.92766-0.70502 0.47754-0.31205 0.48839-0.27872 0.62143-0.28962 0.55652-0.19396 0.53682-0.12872 1.0981-0.1141 2.3145-0.021621 0.44791-0.060896 0.41869-0.11697 0.61704-0.40972 0.12032-0.15699 0.14559-0.29356 0.076746-0.29912 0.022029-0.41227-0.081765-0.52119-0.27875-0.71834-0.476-0.80512-0.58334-0.79725-0.55065-0.67818-1.1576-1.3313-0.89476-0.9454-0.95438-0.92295-2.4599-2.227-1.2384-1.2097-0.97686-1.13-0.71112-1.0217-0.49542-0.884-0.36203-0.80121-0.32043-0.92585-0.1339-0.51887-0.17846-1.136-0.019182-1.0971 0.14611-0.97013 0.20092-0.5154 0.31819-0.25694 0.075924-0.13492 0.15925-0.10282 0.74956-0.25666 1.1585-0.22587 1.0762-0.11418 1.6097-0.051762 4.1437 0.12355 1.9873-0.008031 4.9348-0.18516 2.3215-0.15377 1.6893-0.21713 1.0915-0.21433 1.2995-0.32952 1.7086-0.51676 1.2175-0.45417 0.9754-0.44374 0.78405-0.44101 0.73059-0.48228 1.1103-0.8083 1.2684-0.99118 5.5679-4.6449 1.6451-1.1993 1.0674-0.66722 1.3924-0.74711 2.4506-1.2238 0.94408-0.43009 1.0692-0.42882 0.77272-0.26986 1.1147-0.31486 1.2455-0.22942 1.0613-0.10031 1.2121-0.015028 3.3127 0.15348 1.6584 0.008919 1.6084-0.10708 2.5033-0.33111 1.0372-0.049501 0.57658 0.025487 0.74307 0.10686 0.60861 0.16979 0.56528 0.2396 0.56359 0.32616 0.62422 0.46294 1.0531 0.96922 1.1314 1.2314 2.3624 2.8233 1.1364 1.2774 1.2015 1.2016 1.4076 1.243 2.5753 2.0241 1.1131 0.81487 0.88444 0.58915 0.88323 0.50503 0.58657 0.2765 0.52574 0.2037 0.59173 0.1764 0.86341 0.15031 0.95351 0.030144 0.85812-0.092606 0.8775-0.21993 0.5913-0.2428 0.49305-0.27436 1.263-0.86781 1.7374-1.2804 0.50125-0.3043 0.7258-0.33598 1.0256-0.31759 1.1821-0.22332 1.6367-0.21906 0.3738-0.007427 0.36084 0.069201" stroke="#bdc660"/>
    </defs>
    <g clip-path="url(#p8bc9212a27)">
     <use y="280.512" fill="#bdc660" stroke="#bdc660" xlink:href="#m423a140f83"/>
    </g>
   </g>
  </g>
 </g>
 <defs>
  <clipPath id="p8bc9212a27">
   <rect x="7.2" y="7.2" width="317.61" height="266.11"/>
  </clipPath>
 </defs>
</svg>
