<?xml version="1.0" encoding="UTF-8"?>
<!DOCTYPE svg  PUBLIC '-//W3C//DTD SVG 1.1//EN'  'http://www.w3.org/Graphics/SVG/1.1/DTD/svg11.dtd'>
<svg width="304.01pt" height="280.51pt" version="1.1" viewBox="0 0 304.01 280.51" xmlns="http://www.w3.org/2000/svg" xmlns:xlink="http://www.w3.org/1999/xlink">
 <metadata>
  <rdf:RDF xmlns:cc="http://creativecommons.org/ns#" xmlns:dc="http://purl.org/dc/elements/1.1/" xmlns:rdf="http://www.w3.org/1999/02/22-rdf-syntax-ns#">
   <cc:Work>
    <dc:type rdf:resource="http://purl.org/dc/dcmitype/StillImage"/>
    <dc:date>2024-07-04T12:08:35.846168</dc:date>
    <dc:format>image/svg+xml</dc:format>
    <dc:creator>
     <cc:Agent>
      <dc:title>Matplotlib v3.7.1, https://matplotlib.org/</dc:title>
     </cc:Agent>
    </dc:creator>
   </cc:Work>
  </rdf:RDF>
 </metadata>
 <defs>
  <style type="text/css">*{stroke-linejoin: round; stroke-linecap: butt}</style>
 </defs>
 <g id="figure_1">
  <g id="patch_1">
   <path d="m0 280.51h304.01v-280.51h-304.01v280.51z" fill="none"/>
  </g>
  <g id="axes_1">
   <g id="PatchCollection_1">
    <defs>
     <path id="m5c80401af0" d="m283.64-135.96-0.55976 0.22932-0.34337 0.37464-0.39772 0.54991-0.51315 0.87819-2.2894 5.0718-0.80524 1.4328-0.92267 1.3862-0.78833 1.0246-1.7055 1.7967-0.83486 0.73196-1.3387 1.0371-1.6818 1.1432-1.2139 0.69738-1.7176 0.80468-0.77554 0.29524-1.5818 0.46758-4.1309 0.73802-0.90796 0.23496-0.88876 0.28879-1.5027 0.63997-0.95557 0.53499-1.1526 0.85082-0.55332 0.53115-0.55562 0.64662-0.54323 0.78604-0.4057 0.74838-0.47613 1.2217-0.29282 1.0737-0.73076 3.1535-0.30582 0.97273-0.43012 1.0371-0.43677 0.83535-0.94614 1.4856-0.80078 1.0916-2.3257 2.9434-1.1627 1.5752-0.78341 1.2561-0.5991 1.286-0.2879 1.0357-0.074849 0.62595 0.020317 0.838 0.080987 0.53088 0.28444 0.99291 0.54699 1.2125 1.9136 3.5361 0.53014 1.1517 0.24935 0.72486 0.13078 0.58237 0.049621 0.48541-0.03784 0.63005-0.17582 0.60953-0.34291 0.56452-0.28794 0.29226-0.44339 0.3178-0.43536 0.2283-1.0435 0.37745-1.7065 0.39474-3.3412 0.65808-5.1098 1.3345-2.231 0.42752-1.1271 0.11438-1.2944 0.046143-1.3762-0.028873-4.9924-0.27263-2.7315 0.049802-2.3694 0.22909-1.183 0.17101-1.179 0.20444-2.8022 0.61993-2.3755 0.68152-1.3835 0.4693-2.478 0.99373-1.2857 0.60257-1.9188 1.0228-1.6941 1.0375-2.0348 1.4132-1.5009 1.1496-1.7013 1.401-3.0312 2.7271-1.5402 1.4996-1.6215 1.6754-1.6445 1.8229-1.2721 1.5116-2.0866 2.7113-1.0992 1.5662-1.7812 2.7918-1.3406 2.3602-1.4673 2.8642-3.2512 6.9563-1.3273 2.6848-1.2376 2.3028-2.3411 4.1004-1.2217 2.3785-0.66013 1.5345-0.36968 1.0065-0.4889 1.671-0.28572 1.6573-0.015181 0.62294 0.04102 0.29101 0.1484 0.2144-0.10347 0.17841-0.18057 0.12723-0.23185 0.07458-0.61355 0.02082-0.71381-0.13307-0.5917-0.18232-0.875-0.35309-0.91517-0.45932-1.2885-0.79479-0.81561-0.59751-0.9817-0.82474-1.6533-1.6586-1.122-1.324-0.66292-0.89832-0.83526-1.2918-0.70638-1.2292-2.7036-5.2493-3.1796-6.6689-0.66739-1.1638-0.54906-0.81554-0.48241-0.61416-0.86362-0.89912-1.2767-0.98614-1.1108-0.64538-1.7982-0.76399-2.1132-0.63602-1.8655-0.43209-2.505-0.44077-1.7166-0.13742-1.5335-0.026456-2.0378 0.066056-2.3983 0.18567-1.9382 0.21095-4.3679 0.59887-12 1.897-4.3832 0.5253-2.1004 0.087379-1.3616-0.084341-0.96606-0.18596-0.83889-0.31596-0.32491-0.18688-0.61119-0.52786-0.47335-0.68603-0.21943-0.47234-0.23755-0.74591-0.21828-1.3584-0.041873-1.5707 0.051924-0.9296 0.28947-2.0459 0.21299-0.92462 0.48402-1.5387 2.1419-5.3274 1.1618-3.2517 0.85014-2.667 0.84136-2.9893 0.76062-3.2814 0.31922-1.767 0.21385-1.526 0.14594-1.5219 0.070181-1.7449-0.023254-1.281-0.088226-1.2645-0.16053-1.3242-0.2783-1.5715-0.38638-1.6227-0.56148-1.8202-0.49553-1.2965-0.58826-1.2792-0.75329-1.3334-0.74987-1.0665-0.66522-0.76896-0.44192-0.43161-0.51502-0.43286-0.83835-0.56378-0.81371-0.4024-0.52587-0.19373-1.0925-0.27027-1.3289-0.14513-1.3579 0.007915-1.2043 0.11132-1.4366 0.23674-1.4772 0.34168-2.047 0.61287-1.1415 0.40508-1.6989 0.68344-1.4035 0.63847-2.335 1.2341-0.86152 0.528-2.006 1.3646-1.1753 0.70622-1.5636 0.65439-1.7191 0.39666-0.40975 0.049865-1.5103 0.072294-1.7334-0.057077-1.2239-0.11058-4.5284-0.58924-3.1658-0.32987-3.1239-0.20684-3.5935-0.055845-2.1343 0.076387-3.0988 0.25404-2.8228 0.36137-3.7193 0.55489-1.4882 0.17991-1.3581 0.069516-1.0364-0.071544-0.94081-0.23919-1.0499-0.61039-0.39952-0.36076-1.0481-1.3631-0.52991-0.98806-0.4454-1.0758-0.36647-1.1763-0.21869-0.95939-0.16767-1.0956-0.085919-1.0718-0.42548-9.6293-0.45004-4.5278-0.24442-1.7-0.45423-2.0014-0.98666-3.7907-0.41676-1.4435-0.77547-2.2548-1.3192-3.2939-0.93802-2.1221-1.2087-2.5436-3.3514-6.5102-1.0702-2.5041-0.76731-2.2672-0.69966-2.704-0.78651-3.7299-2.4332-13.665 13.233-1.0934 9.2211-0.95528 2.9042-0.37067 5.4073-0.82587 3.2829-0.6014 5.3572-1.1562 4.5844-1.1557 5.2371-1.5077 3.6242-1.1868 2.8329-1.0196 2.5993-1.0121 2.8098-1.178 3.0512-1.3718 3.2416-1.5685 3.5691-1.864 1.965-1.0919 3.6534-2.161 3.5765-2.2866 1.8624-1.26 3.3079-2.3606 2.415-1.8199 2.3841-1.8716 4.0241-3.3224 5.81-5.1106 8.4456-7.809 12.035-11.379 8.1091-7.7537 4.1052-3.9783 3.2891-3.3512 0.10797 0.11079 0.34621 0.13411 0.93248 0.2204 1.5746 0.18949 4.106 0.1785 2.6346 0.19927 1.8367 0.053833 0.85442-0.044486 1.4498-0.21087 1.2035-0.31954 2.151-0.68298 1.0479-0.23617 1.0383-0.15033 2.1618-0.18652 0.91774-0.20714 0.57107-0.35133 0.33431-0.41867 0.27797-0.7389 0.26084-1.4949 0.18376-0.61188 0.29553-0.61764 0.59283-0.78808 0.65619-0.62664 3.4063-2.8779 2.6887-2.1673 1.5662-1.412 1.0913-1.2947 1.7277-2.6497 0.86017-1.2 1.031-1.1255 1.3267-1.0927 0.77595-0.52411 0.94927-0.55542 0.90009-0.44832 1.2004-0.49079 1.2028-0.37385 1.1472-0.25926 1.0455-0.17235 3.8286-0.4088 1.2003-0.15984 1.1613-0.22202 1.1168-0.31471 0.88197-0.35762 0.82755-0.48907 0.2352-0.22387 0.049995-0.19612 0.14545 0.14692 0.21304 0.52716 0.6838 2.3601 0.44491 1.8572 0.52056 2.6924 0.46546 3.2704 0.81508 7.1379 0.8141 6.0715 1.1417 7.1596 0.68798 3.991 0.68324 3.6 0.98504 4.2182 0.74581 2.4947 0.65508 1.799 0.4929 1.1596 0.67783 1.3535 0.53959 0.89976 0.77058 1.0519 0.7766 0.82354 0.73337 0.58983 0.9915 0.54741 1.2043 0.3528 1.0711 0.12241 1.3246-0.007046 1.0797-0.091545 2.0917-0.29677 3.6466-0.61079 1.8678-0.2398 1.135-0.087657 1.7431 2.53e-4 0.88027 0.088041 0.6007 0.10503 1.6349 0.49801 1.3708 0.64912 1.2739 0.85132 1.342 1.1441 0.74373 0.72307 1.5511 1.6819 1.2901 1.7102 1.0113 1.5544 1.7361 2.9989 3.0946 5.6358 3.0553 5.0529 0.77196 1.4142 0.55452 1.1728 0.63672 1.6843 0.48964 1.6984 0.37302 1.6809 0.27537 1.6615 0.10543 0.98054 0.049431 1.0781-0.062122 1.2681-0.13436 0.83661-0.6205 2.4244-0.19169 1.0344-0.055878 0.75239 0.034737 1.0794 0.13827 0.98971 0.18018 0.78786 0.31611 0.99554 0.48811 1.1614 0.42543 0.81577 0.61503 0.97909 0.69298 0.93985 0.9503 1.1314 1.0255 1.0915 2.7448 2.7632 1.0707 1.2866 1.1385 1.5915 5.4806 8.4294 4.7514 6.975 0.60962 0.96964" stroke="#bdc660"/>
    </defs>
    <g clip-path="url(#p2c1686ae7a)">
     <use y="280.512" fill="#bdc660" stroke="#bdc660" xlink:href="#m5c80401af0"/>
    </g>
   </g>
  </g>
 </g>
 <defs>
  <clipPath id="p2c1686ae7a">
   <rect x="7.2" y="7.2" width="289.61" height="266.11"/>
  </clipPath>
 </defs>
</svg>
