<?xml version="1.0" encoding="UTF-8"?>
<!DOCTYPE svg  PUBLIC '-//W3C//DTD SVG 1.1//EN'  'http://www.w3.org/Graphics/SVG/1.1/DTD/svg11.dtd'>
<svg width="212.64pt" height="280.51pt" version="1.1" viewBox="0 0 212.64 280.51" xmlns="http://www.w3.org/2000/svg" xmlns:xlink="http://www.w3.org/1999/xlink">
 <metadata>
  <rdf:RDF xmlns:cc="http://creativecommons.org/ns#" xmlns:dc="http://purl.org/dc/elements/1.1/" xmlns:rdf="http://www.w3.org/1999/02/22-rdf-syntax-ns#">
   <cc:Work>
    <dc:type rdf:resource="http://purl.org/dc/dcmitype/StillImage"/>
    <dc:date>2024-07-04T12:08:43.544415</dc:date>
    <dc:format>image/svg+xml</dc:format>
    <dc:creator>
     <cc:Agent>
      <dc:title>Matplotlib v3.7.1, https://matplotlib.org/</dc:title>
     </cc:Agent>
    </dc:creator>
   </cc:Work>
  </rdf:RDF>
 </metadata>
 <defs>
  <style type="text/css">*{stroke-linejoin: round; stroke-linecap: butt}</style>
 </defs>
 <g id="figure_1">
  <g id="patch_1">
   <path d="m0 280.51h212.64v-280.51h-212.64v280.51z" fill="none"/>
  </g>
  <g id="axes_1">
   <g id="PatchCollection_1">
    <defs>
     <path id="m6986a91820" d="m191.58-218.29 0.052235 0.14529 0.70543 2.091 0.61845 2.0058 1.2942 4.7078 0.86348 3.6805 0.76494 3.9816 0.37951 2.764 0.1688 2.4586 0.001582 1.1171-0.066667 1.1718-0.11085 0.90062-0.20399 1.003-0.39641 1.2205-0.50001 1.1107-2.1545 3.877-0.48836 1.1133-1.0526 2.6681-0.38266 0.78119-0.34462 0.56533-0.59544 0.73364-0.63902 0.59266-1.484 1.0623-3.59 2.1958-1.0638 0.8241-0.51851 0.4986-0.81271 1.0321-0.40342 0.6802-0.5282 1.1227-0.40342 1.0913-0.56399 2.0165-1.5184 6.6961-0.43654 1.6668-0.62519 2.1198-0.57777 1.6888-1.2476 3.1658-0.73268 2.0025-1.0906 3.4149-1.1262 3.9683-1.5083 5.8977-1.4782 6.1955-1.7691 6.8736-6.9283 25.99-0.71841 3.049-0.44112 2.2416-0.20723 1.2708-0.21563 1.7467-0.10237 1.8783 0.004392 1.0376 0.076736 1.4686 0.14404 1.3789 0.35605 2.1104 0.27861 1.1977 0.26988 0.97495 0.54225 1.6471 0.89635 2.2061 0.97777 2.0432 2.618 5.167 1.4385 3.1338 0.84536 2.0406 0.64642 1.7759 0.64627 2.1608 0.25546 1.1556 0.16442 1.202 0.019455 1.0935-0.16343 1.0804-0.23276 0.67972-0.39823 0.77117-0.67916 0.95332-0.71896 0.81841-2.5415 2.6213-0.98282 1.1847-0.7266 1.0767-0.69826 1.3517-0.53431 1.3393-0.45607 1.4225-0.55841 2.2179-0.46575 2.4145-0.38405 2.5363-0.29343 2.4162-0.25456 2.7112-0.085519 1.3592 0.020374 0.65358-0.39394 0.06777-0.63967 0.25644-0.55224 0.35596-0.94773 0.75619-0.48731 0.18449-0.41251-0.011769-0.31987-0.10637-1.3416-0.72055-0.53756-0.202-0.60573-0.087301-0.62522 0.063261-0.56059 0.21517-0.34948 0.23513-1.0798 1.0729-0.41666 0.33834-0.5612 0.29044-0.46026 0.14534-0.3757 0.060999-4.7626 1.0996-2.2282 0.41219-2.4241 0.29722-4.3481 0.3192-1.7081 0.24206-1.9764 0.39265-1.5277 0.42602-1.9549 0.6634-1.3126 0.49051-3.848 1.5654-2.8051 0.95762-0.9669 0.27381-1.5042 0.32899-0.92755 0.10796-0.87424 0.017186-1.4048-0.14235-1.2211-0.31483-1.0608-0.43543-1.1953-0.6629-1.3192-0.90316-1.9664-1.5611-2.0247-1.799-3.9422-3.6425-1.6447-1.3101-0.83464-0.53756-1.0974-0.56802-1.1108-0.41251-0.56677-0.15091-0.88937-0.16108-1.4827-0.10452-2.1038 0.08107-7.0411 0.84262-5.451 0.54703-2.1575 0.15633-1.7473 0.043261-9.5747-0.050699-1.9049 0.060764-2.2957 0.14234-2.6828 0.27954-1.8244 0.29877-2.0148 0.45949-0.73603 0.21644-0.31984 0.15774-0.13815-0.16393-0.35059-0.66954-0.38529-0.83697-1.2088-2.9245-0.76318-2.0739-0.62202-1.8897-1.3476-4.38-0.68935-1.9019-0.56269-1.3732-0.6173-1.3273-1.8173-3.4828-0.5931-1.2809-0.85262-2.0985-1.0333-2.8213-0.36152-0.82911-0.63015-1.2778-0.94672-1.6858-1.2395-1.9527-1.9254-2.6605-4.0769-4.8992-1.1063-1.2561-1.547-1.6412-4.1686-4.0952-1.5594-1.5919-1.2563-1.3886-0.86911-1.0504-1.4749-1.9757-0.91868-1.3588-1.3102-2.1591-0.95929-1.8235-1.009-2.2646-0.78076-2.2595-0.48778-2.2223-0.13631-1.4438-0.019468-1.2124 0.045292-1.2558 0.13064-1.2447 0.2967-1.4922 0.55322-2.0994 0.34463-1.0982 1.8571-5.1832 1.3941-4.5077 0.47128-1.3743 1.217-3.156 1.6981-3.6002 0.37535-0.90759 0.65292-1.878 0.42576-1.4123 0.62604-2.3503 0.42111-1.8123 0.36935-1.7514 0.45214-2.4819 0.19988-1.3264 0.17488-1.5888 0.029918-0.83081-0.1531-0.67158-0.18713-0.1199-0.06869-0.33909 0.14306-2.4958-0.016414-0.85487-0.22324-2.1003-0.21464-1.2338-0.45723-2.0957-0.63741-2.4661-2.4806-8.7928-0.50028-2.0955-0.3518-1.8339-0.14792-1.049-0.10286-1.4541 0.013146-0.73966 0.18788-1.4083 0.31781-1.2042 0.20917-0.62052 0.777-1.8727 0.54842-1.1201 1.3342-2.414 1.8028-2.9199 8.1373-12.216 1.6829-2.3388 1.2205-1.561 1.0296-1.2389 1.7625-1.9737 7.4841-7.8495 2.5131-2.5738 6.3339-6.2611 3.2255-3.3702 2.0199-2.2736 2.5748-3.1332 2.2874-3.0385 0.79567-1.1332 0.33131-0.55944 0.28224 0.18014 0.7761-0.003212 1.0271-0.19081 0.69825-0.19531 1.5008-0.55637 1.0132-0.45805 1.5251-0.78704 1.4873-0.84989 2.6589-1.6466 3.1783-2.1164 11.161-7.9612 2.6206-1.8073 3.7128-2.4737 4.4048-2.8176 3.4709-2.1183 3.2908-1.9124 2.9441-1.6225 3.2036-1.6445 2.4343-1.159 2.7016-1.1921 2.0406-0.80412 2.1993-0.71487 1.1919-0.29083 1.2013-0.19743 1.4478-0.061906 0.7348 0.067235 0.60535 0.12055 0.52429 0.16103 0.74877 0.32536 1.039 0.6436 0.74013 0.6062 0.46361 0.44752 0.69034 0.77582 0.49979 0.65608 0.82521 1.3109 0.63348 1.3094 0.50299 1.4392 0.2492 1.0848 0.13632 1.0966 0.016913 1.2337-0.16919 1.6628-0.17765 0.94664-0.39066 1.5297-0.37484 1.1691-0.90902 2.2816-1.1307 2.254-1.1365 1.8709-1.3963 1.9099-0.83158 0.98672-1.1667 1.2664-2.8701 2.838-2.155 1.9705-6.1614 5.3821-1.4987 1.3881-1.0409 1.0383-1.2027 1.3629-0.47096 0.62752-0.42733 0.66645-0.29543 0.5625-0.32455 0.83321-0.14814 0.60806-0.067838 0.57488 5.2e-5 0.66137 0.074251 0.67258 0.22453 0.97994 0.25156 0.74493 0.69536 1.5135 1.0405 1.7241 0.7438 1.078 1.4224 1.9097 4.3966 5.6264 0.87084 1.0161 0.81972 0.84751 0.46772 0.4281 0.8379 0.65521 0.46222 0.2963 0.70081 0.35797 0.94906 0.30942 1.1965 0.15522 1.5616-0.052268 1.423-0.20168 1.3531-0.29964 1.8679-0.53431 4.7033-1.4997 1.4157-0.35992 1.1608-0.20229 1.0949-0.10725 1.3561-0.032849 5.1905 0.24682 1.5756-0.023271 1.3069-0.13327 1.0066-0.17584 1.296-0.30516 1.8022-0.5177 3.1634-1.0795 3.7301-1.4931 4.7064-2.059 3.3438-1.6075 2.4399-1.3127 2.4715-1.5209 2.32-1.6325 5.013-3.726 2.1487-1.4008 1.2287-0.63892 1.1739-0.42826 0.60057-0.099809 0.2697 0.009951 0.15719 0.039802 0.16922 0.093526" stroke="#bdc660"/>
    </defs>
    <g clip-path="url(#p9d958f31f5)">
     <use y="280.512" fill="#bdc660" stroke="#bdc660" xlink:href="#m6986a91820"/>
    </g>
   </g>
  </g>
 </g>
 <defs>
  <clipPath id="p9d958f31f5">
   <rect x="7.2" y="7.2" width="198.24" height="266.11"/>
  </clipPath>
 </defs>
</svg>
