<?xml version="1.0" encoding="UTF-8"?>
<!DOCTYPE svg  PUBLIC '-//W3C//DTD SVG 1.1//EN'  'http://www.w3.org/Graphics/SVG/1.1/DTD/svg11.dtd'>
<svg width="262.12pt" height="280.51pt" version="1.1" viewBox="0 0 262.12 280.51" xmlns="http://www.w3.org/2000/svg" xmlns:xlink="http://www.w3.org/1999/xlink">
 <metadata>
  <rdf:RDF xmlns:cc="http://creativecommons.org/ns#" xmlns:dc="http://purl.org/dc/elements/1.1/" xmlns:rdf="http://www.w3.org/1999/02/22-rdf-syntax-ns#">
   <cc:Work>
    <dc:type rdf:resource="http://purl.org/dc/dcmitype/StillImage"/>
    <dc:date>2024-07-04T12:08:49.391088</dc:date>
    <dc:format>image/svg+xml</dc:format>
    <dc:creator>
     <cc:Agent>
      <dc:title>Matplotlib v3.7.1, https://matplotlib.org/</dc:title>
     </cc:Agent>
    </dc:creator>
   </cc:Work>
  </rdf:RDF>
 </metadata>
 <defs>
  <style type="text/css">*{stroke-linejoin: round; stroke-linecap: butt}</style>
 </defs>
 <g id="figure_1">
  <g id="patch_1">
   <path d="m-0 280.51h262.12v-280.51h-262.12v280.51z" fill="none"/>
  </g>
  <g id="axes_1">
   <g id="PatchCollection_1">
    <defs>
     <path id="mcda472641e" d="m180.99-64.23-0.18167-0.20301-0.9468-0.62497-3.4694-1.9558-2.9633-1.5252-2.9738-1.3506-1.946-0.77744-1.9083-0.69519-6.8136-2.2359-2.9278-1.0219-3.7365-1.4518-1.8819-0.81834-2.8325-1.3795-2.5147-1.3581-2.9249-1.6812-1.6955-0.86477-0.89668-0.34449-0.72836-0.18785-0.5571-0.072281-0.52097-6.49e-4 -0.51358 0.06954-0.5232 0.13896-0.93566 0.39955-0.56904 0.32707-1.1661 0.84198-0.86602 0.7435-1.6148 1.5574-2.845 2.8812-2.5317 2.4342-2.2927 2.0166-2.9398 2.3631-1.7596 1.3331-3.9072 2.8435-11.788 8.2814-9.1676 6.5055-9.3274 6.6897-6.6391 4.851-6.5749 4.9683-5.207 4.0321-3.3546 2.7178-6.2657 5.219-2.3818 1.9176-0.4924 0.35032-0.03097-0.55601-0.43561-2.56-0.42849-1.9828-0.52811-2.0979-0.8966-2.913-0.8594-2.2087-0.62269-1.3452-0.66898-1.2918-1.4707-2.5024-1.5123-2.2821-2.6954-3.7477-0.75416-1.1822-0.77862-1.3525-0.87541-1.667-1.8683-3.9103-1.6394-3.7057-1.3838-3.4317-0.5229-1.4049-0.90818-2.6677-0.80673-2.7859-0.42476-1.8163-0.30553-1.7026-0.12436-0.98498-0.08437-1.1422-0.009619-1.4369 0.28557-3.8083 0.007701-1.2782-0.055058-1.0294-0.14798-1.4093-0.24078-1.5465-0.32774-1.6499-0.51082-2.1358-0.55949-2.0402-0.85394-2.8262-1.5616-4.7626-2.7266-7.7609-5.2874-14.695-1.7886-5.3148-0.87575-2.9917-0.54323-2.2376-0.22594-1.1326-0.19976-1.2449-0.15246-1.4208-0.047233-1.3837 0.032952-0.837 0.13474-1.1144 0.2541-1.0749 0.26086-0.73607 0.75935-1.5028 0.89398-1.3002 1.1441-1.3497 1.0726-1.0901 0.97363-0.8965 1.3371-1.1342 1.1149-0.88329 1.9878-1.4687 2.4609-1.6762 2.5868-1.6197 2.9209-1.6544 2.3679-1.1915 2.1122-0.96439 8.374-3.5315 2.0993-1.0357 1.6374-0.99768 1.2179-0.97958 0.56862-0.60827 0.53525-0.78502 0.29891-0.68248 0.12452-0.46345 0.073405-0.51385 0.014377-0.53341-0.073618-0.77229-0.17044-0.7828-0.17358-0.56458-0.27961-0.73254-0.52634-1.119-0.55561-1.0027-1.2816-1.9769-1.5783-2.0765-1.1382-1.3305-1.5786-1.6612-1.3215-1.2452-1.3207-1.1214-1.0077-0.77075-0.75303-0.52445-1.3854-0.84611-1.9957-1.0243-3.8406-1.7941-1.8051-0.88704-1.7242-0.91053-1.3012-0.7462-1.6689-1.0749-0.70069-0.51772-0.61306-0.53047-0.25722-0.53488 0.27822 0.04876 0.19507-0.10085 0.37771-0.31281 0.62955-0.71242 0.78163-1.0858 1.2148-1.9562 2.6792-4.7527 2.7571-4.666 1.6048-2.6018 1.5963-2.3811 0.86582-1.1798 1.4204-1.7418 0.80939-0.86835 0.90454-0.85404 1.4306-1.1146 3.2371-2.2059 4.2475-3.2266 2.5738-1.8224 1.9779-1.2492 6.7284-3.9181 1.3529-0.85807 1.1792-0.82062 1.5235-1.2185 3.4763-3.1773 2.7415-2.3276 1.9207-1.5215 1.5676-1.1637 1.8604-1.3085 2.6337-1.7414 3.3446-2.0414 2.0623-1.1402 2.7822-1.3556 1.7738-0.7331 1.7099-0.59855 1.6831-0.4745 2.0656-0.39964 1.7418-0.17016 2.0995-0.10253 1.9254 0.005767 1.1808 0.068021 1.1614 0.12989 1.1547 0.20871 1.1193 0.3023 1.0332 0.3876 1.1497 0.54467 0.95843 0.52806 3.8102 2.309 0.60427 0.32154 1.1298 0.49127 1.0184 0.28626 0.71154 0.11467 1.5386 0.064703 1.1367-0.073498 1.6068-0.21153 1.7298-0.31916 1.3012-0.29206 3.0406-0.86062 5.0742-1.7362 1.3655-0.36855 1.2898-0.16723 1.0425 0.055174 0.96268 0.24283 0.68826 0.28358 0.93789 0.51713 1.458 1.04 2.0449 1.6269 1.0725 0.77033 1.1417 0.67517 0.92001 0.42032 0.7532 0.27666 1.0674 0.29198 1.173 0.21352 1.4242 0.14854 1.9092 0.061413 1.8474-0.052344 1.5104-0.10304 2.5212-0.25999 3.6556-0.51271 1.9611-0.32613 3.8686-0.75736 3.2293-0.7861 2.7082-0.80765 2.6907-0.97631 1.7709-0.76012 1.5041-0.73604 2.1472-1.2116 1.5927-1.0356 1.5376-1.1357 1.1352-0.93994 1.961-1.7951 4.4251-4.2888 1.3122-1.178 1.8174-1.5202 2.6987-2.0535 2.0363-1.4134 1.8516-1.1389 0.39611-0.11508-0.12438 0.61735 0.21062 1.4847 0.3276 1.373 0.45078 1.5026 0.71913 1.9614 0.60958 1.4007 0.56062 1.139 0.74112 1.3457 0.80137 1.3304 3.5259 5.4222 2.2493 3.6111 1.3469 2.3877 0.98296 1.9676 0.69132 1.5998 1.5855 4.1064 1.3805 3.3417 3.5353 8.038 0.93312 2.2287 0.83917 2.4208 0.27122 1.1417 0.11946 0.84589 0.024333 0.94662-0.05497 0.55258-0.27939 0.99777-0.74711 1.1605-1.0914 0.98927-0.4768 0.33234-0.98631 0.58523-2.556 1.285-1.4287 0.80252-1.0136 0.67508-1.2128 0.93576-2.1202 1.8443-1.6812 1.651-1.4506 1.7057-0.88928 1.3029-0.63471 1.2114-0.2907 0.74405-0.2153 0.70966-0.20296 0.9266-0.16973 1.6016 0.019612 1.5658 0.14268 1.417 0.28843 1.67 0.48732 1.9504 0.43055 1.1934 0.59718 1.3036 0.38713 0.73247 0.86797 1.4555 0.8543 1.2619 0.79041 1.05 1.1075 1.2852 0.74894 0.74441 0.67069 0.5764 0.65106 0.47527 0.90911 0.52546 1.0279 0.44477 3.61 1.1832 1.0035 0.42946 0.78684 0.44272 1.0722 0.82606 0.99431 1.0118 0.93424 1.1586 1.0751 1.5491 0.97346 1.5593 3.6815 6.4246 0.87608 1.4274 0.91926 1.3763 1.4514 1.8759 1.536 1.6168 3.0886 2.8848 1.3132 1.4048 0.97797 1.4666 0.47117 1.2966 0.20263 1.3328 0.019426 1.054-0.038768 1.0053-0.2319 2.7734-0.81665 4.8201-0.41084 1.627-0.71912 1.4546-0.79648 0.8846-0.96299 0.71149-0.9938 0.5227-0.6844 0.27232-0.67454 0.20902-1.3243 0.26168-1.2197 0.11-5.4026 0.20066-4.1426 0.10238-2.2286 0.14816-1.561 0.17775-1.6738 0.26014-2.0526 0.45021-1.182 0.34709-0.66473 0.23237-1.2697 0.54318-1.0617 0.58092-1.0462 0.69029-1.3582 1.0755-1.0266 0.94654-0.97099 1.0057-1.0381 1.2034-0.96288 1.2495-1.1451 1.6859-0.77582 1.3037-0.54455 1.0126-1.1027 2.3158-0.53526 1.2687-1.0196 2.774-0.81344 2.7533-0.4556 1.9499-0.53847 2.9137-0.96842 6.1134-0.38951 1.9591-0.40966 1.5727-0.26521 0.82266-0.88888 2.1759-0.68933 1.3865-0.79398 1.4354-1.6306 2.6423-1.2176 1.8085-3.7379 5.3282-5.4356 8.4077-0.9265 1.3219-0.8059 1.0356-0.62161 0.67705-0.30416 0.24233-0.13689 0.014798" stroke="#bdc660"/>
    </defs>
    <g clip-path="url(#p90659cdfd7)">
     <use y="280.512" fill="#bdc660" stroke="#bdc660" xlink:href="#mcda472641e"/>
    </g>
   </g>
  </g>
 </g>
 <defs>
  <clipPath id="p90659cdfd7">
   <rect x="7.2" y="7.2" width="247.72" height="266.11"/>
  </clipPath>
 </defs>
</svg>
