<?xml version="1.0" encoding="UTF-8"?>
<!DOCTYPE svg  PUBLIC '-//W3C//DTD SVG 1.1//EN'  'http://www.w3.org/Graphics/SVG/1.1/DTD/svg11.dtd'>
<svg width="176.12pt" height="280.51pt" version="1.1" viewBox="0 0 176.12 280.51" xmlns="http://www.w3.org/2000/svg" xmlns:xlink="http://www.w3.org/1999/xlink">
 <metadata>
  <rdf:RDF xmlns:cc="http://creativecommons.org/ns#" xmlns:dc="http://purl.org/dc/elements/1.1/" xmlns:rdf="http://www.w3.org/1999/02/22-rdf-syntax-ns#">
   <cc:Work>
    <dc:type rdf:resource="http://purl.org/dc/dcmitype/StillImage"/>
    <dc:date>2024-07-04T12:08:38.781839</dc:date>
    <dc:format>image/svg+xml</dc:format>
    <dc:creator>
     <cc:Agent>
      <dc:title>Matplotlib v3.7.1, https://matplotlib.org/</dc:title>
     </cc:Agent>
    </dc:creator>
   </cc:Work>
  </rdf:RDF>
 </metadata>
 <defs>
  <style type="text/css">*{stroke-linejoin: round; stroke-linecap: butt}</style>
 </defs>
 <g id="figure_1">
  <g id="patch_1">
   <path d="m-0 280.51h176.12v-280.51h-176.12v280.51z" fill="none"/>
  </g>
  <g id="axes_1">
   <g id="PatchCollection_1">
    <defs>
     <path id="m1b355914e1" d="m161.57-194.66-4.7566 3.6708-5.9496 4.8169-3.7553 3.2385-1.682 1.5455-0.94268 0.92264-0.76636 0.7972-1.4608 1.6512-1.4054 1.6716-2.8652 3.6167-1.1472 1.3764-1.3225 1.4774-3.1249 3.2907-0.85764 0.98676-0.57504 0.74554-0.53258 0.82779-0.33231 0.68502-0.26409 0.98858-0.022164 0.50236 0.12812 0.69756 0.13228 0.30817 0.25652 0.40355 0.40835 0.44498 0.40826 0.32463 0.45426 0.28576 0.64075 0.3224 1.5342 0.58052 1.6487 0.4816 3.488 0.87492 1.7049 0.5781 0.61272 0.26551 0.85705 0.44266 0.67848 0.41333 0.51306 0.3513 0.95378 0.75189 0.53104 0.48742 0.7978 0.87285 0.7073 1.0291 0.32222 0.63875 0.31883 0.94647 0.13568 0.97371-0.012863 0.81127-0.10303 0.7821-0.25683 1.0432-0.24843 0.71772-0.4388 1.0015-0.44662 0.83032-0.60408 0.93341-0.75069 0.94079-0.7121 0.7419-0.97365 0.87852-1.9169 1.6184-1.0981 1.0418-0.53886 0.57549-0.64819 0.77471-0.80859 1.1425-0.93364 1.566-0.65395 1.2536-0.52733 1.1135-1.0117 2.4751-0.42066 1.2178-0.61395 2.1042-0.75514 3.283-0.94445 5.0882-0.70926 4.454-0.81956 5.842-0.68179 5.4704-0.55702 5.073-0.48237 5.466-0.088225 0.61708-0.43546 0.91407-0.89544 2.1166-0.41109 1.1969-0.31776 1.1102-2.0289 7.7151-0.38441 1.7583-0.21931 1.5837-0.045647 0.83194 0.03256 1.1983 0.46386 4.244 0.21469 3.6883 0.17068 2.0128 0.77551 5.1708 0.36444 1.9138 0.32884 1.4373 0.38773 1.289 0.31242 0.77928 0.37378 0.73621 0.26036 0.42214 0.67922 0.8519 0.4659 0.43004 0.39916 0.29509 1.1194 0.60117 1.5281 0.51602 1.6786 0.36876 4.1022 0.58334 0.91078 0.22234 0.62884 0.21584 0.52567 0.25044 0.4245 0.28524 0.31275 0.29911 0.23219 0.321 0.17846 0.36359 0.15976 0.57395 0.047016 0.3868 0.007931 0.49801-0.052141 0.5954-0.26642 1.1828-0.29771 0.82379-1.1023 2.5639-0.37728 1.0248-0.21246 0.72935-0.17608 0.81996-0.13165 1.0004-0.041565 1.0077 0.10382 1.561 0.27549 1.5292 0.29083 1.0719 1.1095 3.3145 0.26844 1.0131 0.13027 0.66128 0.12143 1.0438 0.017426 0.55669-0.019057 0.50697-0.11196 0.76123-0.20129 0.62773-0.35092 0.61223-0.3798 0.39919-0.26525 0.19083-0.30303 0.16117-0.39257 0.14444-0.81422 0.13514-0.42815-4e-6 -0.46122-0.051447-0.68198-0.19485-0.2411-0.12563-0.25645-0.22098-9.5322-7.2319-5.3841-4.1844-2.8-2.0443-1.2871-0.87533-2.5593-1.6264-6.1302-3.6041-2.3241-1.4178-2.112-1.3937-0.9421-0.66862-1.9018-1.4581-1.7331-1.468-1.4244-1.3028-11.855-11.48-1.5574-1.6152-1.7284-1.9434-1.3257-1.6445-1.3136-1.805-1.3335-2.0529-0.99008-1.7001-1.5024-2.9356-1.0375-2.3071-1.056-2.5732-3.2361-8.3308-2.5218-6.1585-0.67939-1.8646-0.27942-0.87956-0.465-1.7628-0.30938-1.5898-0.16862-1.1759-0.20237-2.1249-0.48866-9.7702-0.02094-2.6323 0.096982-1.894 0.16045-1.5019 0.14984-0.99295 0.19612-1.0475 0.39657-1.6786 0.34147-1.1262 0.1467-0.3034-0.039441-0.56146 0.16804-0.87517 0.70038-2.709 0.408-1.3508 1.0778-3.1344 2.5976-6.6243 0.45904-1.2592 0.79842-2.5005 0.40713-1.5934 0.27914-1.3772 0.30838-2.2888 0.081056-1.2005 0.021899-1.3576-0.070288-1.5655-0.14647-1.3599-0.34398-1.8965-0.34463-1.328-0.2372-0.7551-0.35403-0.97648-0.41972-0.99679-0.40353-0.8412-0.57791-1.0615-0.62666-1.0121-0.64932-0.9309-0.7393-0.94594-1.3924-1.539-1.0112-0.9627-0.83097-0.71109-1.0345-0.80096-1.1671-0.81085-0.92768-0.58509-2.0602-1.1462-2.2361-1.0507-2.8894-1.1357-1.5007-0.51148-2.4905-0.74972-1.4591-0.38834-3.0036-0.69748-3.1828-0.59251-8.0765-1.1653-1.9026-0.31627-2.0854-0.45483-3.9252-1.1608-0.67245-0.15645-5.1117-0.8831-2.3561-0.4732-1.7347-0.45603-0.76098-0.25293-0.74753-0.30272-0.65367-0.33808-0.51141-0.35632-0.2975-0.28615-0.1798-0.23518-0.13592-0.25217-0.10427-0.34007-0.027847-0.60563 0.16515-0.839 0.33011-0.92844 1.2578-2.8788 0.47121-1.3365 0.3435-1.5367 0.4539-3.0737 0.42204-1.7662 0.21094-0.61523 0.75462-1.6894 0.90133-1.5619 0.89748-1.3146 0.72992-0.95367 0.86924-1.0332 1.1039-1.1758 1.184-1.1134 1.3344-1.0755 0.9419-0.63379 0.50656-0.29239 0.88191-0.42014 0.66831-0.25341 0.70663-0.22394 1.4048-0.31778 1.7019-0.20698 4.1887-0.23625 1.7111-0.25778 1.2262-0.28964 1.8691-0.52578 2.7992-0.91593 3.1532-1.1307 1.6081-0.62228 1.5877-0.7394 1.417-0.79262 1.0387-0.64738 3.9588-2.6271 1.6494-0.9105 0.97117-0.4708 1.6463-0.72754 7.4072-3.0905 7.1412-2.7389 3.1017-1.2787 3.9453-1.7933 3.5638-1.767 2.7578-1.4806 1.8544-1.0438 4.1472-2.3876 2.7877-1.6542 1.9513-1.2182 2.1894-1.4377 2.8904-2.0235 0.44962-0.30485 4.3888-3.4612 4.188-3.1457 2.385-1.6763 2.2057-1.3675 2.7516-1.5154 1.722-0.8849 4.6125-2.2266 4.3503-1.8971 3.7303-1.4688 3.1741-1.0635 2.4156-0.65744 1.1054-0.25319 1.1459-0.23178 2.0098-0.33494 1.331-0.17315 2.1077-0.18686 1.2262-0.044337 1.2872 0.023316 0.9476 0.075394 1.0863 0.16635 1.0432 0.26761 0.80182 0.3065 0.64289 0.33898 0.41156 0.27982 0.48197 0.41381 0.4355 0.46997 0.75473 1.0909 0.75313 1.5746 0.60178 1.8045 0.37248 1.5338 0.25753 1.4197 0.23666 1.9349 0.10591 1.721 7.83e-4 1.7597-0.10607 1.5885-0.29114 1.9446-0.49049 2.1888-0.34999 1.3206-2.507 8.3038-0.27971 1.0637-0.27572 1.2593-0.14584 1.218-1.8e-4 0.74996 0.066608 0.74003 0.15374 0.88328 0.33757 1.2645 0.52471 1.3833 0.88775 1.8315 0.44799 1.029 0.52434 1.4703 0.4603 1.754 0.22321 1.3575 0.07765 1.3555-0.069342 1.0538-0.20967 1.0227-0.5822 1.4157-0.84535 1.3267-1.0273 1.2534-2.8586 3.1159-0.8593 1.1589-0.53456 1.0399-0.18698 0.63958-0.063442 0.68862 0.10775 0.77788 0.41478 1.0287 0.56416 0.84311 0.82864 0.88575 0.84767 0.68695 1.2639 0.76574 0.96049 0.42379 0.5927 0.20618 0.70853 0.19799 0.82359 0.16713 0.75223 0.08448 0.53514-0.010722 0.27052-0.10316" stroke="#bdc660"/>
    </defs>
    <g clip-path="url(#p96bf54da15)">
     <use y="280.512" fill="#bdc660" stroke="#bdc660" xlink:href="#m1b355914e1"/>
    </g>
   </g>
  </g>
 </g>
 <defs>
  <clipPath id="p96bf54da15">
   <rect x="7.2" y="7.2" width="161.72" height="266.11"/>
  </clipPath>
 </defs>
</svg>
