<?xml version="1.0" encoding="UTF-8"?>
<!DOCTYPE svg  PUBLIC '-//W3C//DTD SVG 1.1//EN'  'http://www.w3.org/Graphics/SVG/1.1/DTD/svg11.dtd'>
<svg width="219.27pt" height="280.51pt" version="1.1" viewBox="0 0 219.27 280.51" xmlns="http://www.w3.org/2000/svg" xmlns:xlink="http://www.w3.org/1999/xlink">
 <metadata>
  <rdf:RDF xmlns:cc="http://creativecommons.org/ns#" xmlns:dc="http://purl.org/dc/elements/1.1/" xmlns:rdf="http://www.w3.org/1999/02/22-rdf-syntax-ns#">
   <cc:Work>
    <dc:type rdf:resource="http://purl.org/dc/dcmitype/StillImage"/>
    <dc:date>2024-07-04T12:08:40.746475</dc:date>
    <dc:format>image/svg+xml</dc:format>
    <dc:creator>
     <cc:Agent>
      <dc:title>Matplotlib v3.7.1, https://matplotlib.org/</dc:title>
     </cc:Agent>
    </dc:creator>
   </cc:Work>
  </rdf:RDF>
 </metadata>
 <defs>
  <style type="text/css">*{stroke-linejoin: round; stroke-linecap: butt}</style>
 </defs>
 <g id="figure_1">
  <g id="patch_1">
   <path d="m-0 280.51h219.27v-280.51h-219.27v280.51z" fill="none"/>
  </g>
  <g id="axes_1">
   <g id="PatchCollection_1">
    <defs>
     <path id="m14c77baa83" d="m191.35-62.546 0.53173 0.28572 0.9162 0.67231 2.5979 2.1586 1.469 1.3666 1.176 1.1909 1.1175 1.241 1.161 1.4604 0.98863 1.4882 0.70294 1.3526 0.49054 1.3571 0.15253 0.66596 0.10238 1.8865-0.12975 1.0304-0.17478 0.77382-0.19528 0.64784-0.4998 1.248-0.54794 1.0628-0.50824 0.83875-0.49148 0.7247-1.0492 1.3632-1.0145 1.1593-1.0805 1.0863-1.1388 0.96316-0.7895 0.55951-1.2778 0.72661-0.68606 0.29674-0.6117 0.20638-1.133 0.22821-0.82472 0.032138-1.1755-0.15202-2.0775-0.71569-1.2755-0.629-3.4144-1.8885-2.0933-0.94689-1.2089-0.36078-1.2319-0.17632-0.64603-0.005049-0.78363 0.067211-0.89372 0.15894-1.8742 0.5468-7.1946 2.8513-2.724 0.92168-1.9748 0.52145-2.2309 0.34515-2.0359 0.080307-2.16-0.13646-2.0851-0.36837-1.0567-0.31631-1.0016-0.41772-1.1992-0.71872-0.92035-0.79202-0.711-0.78542-0.75806-1.0151-0.70824-1.1078-2.5987-4.5844-0.80414-1.204-0.77-0.92759-0.49577-0.48447-0.69075-0.564-1.2304-0.76385-0.94206-0.42051-0.73649-0.24444-1.3776-0.2831-0.62435-0.060134-1.5761 0.023566-1.5852 0.2587-1.0265 0.28318-1.8129 0.69734-1.7217 0.85968-1.7856 1.0724-1.8862 1.3425-1.3062 1.0638-1.3573 1.2381-1.0796 1.1193-1.1046 1.2881-1.696 2.2075-1.6102 2.2694-1.3098 1.9577-1.2795 2.0591-2.2607 4.109-0.6006 0.97576-1.1976 1.6907-1.299 1.5402-0.77962 0.79272-0.9334 0.82229-0.84779 0.62899-1.2731 0.73451-0.70769 0.29993-0.73843 0.23105-0.93283 0.17193-1.2721 0.015069-0.66512-0.08646-0.85399-0.19218-0.70648-0.2193-1.6261-0.66325-3.5978-1.7808-2.4296-1.1304-2.0576-0.76528-2.1883-0.51469-2.1851-0.19368-1.4436 0.00342-1.2365 0.073406-1.3527 0.1744-1.0217 0.24125-0.60099 0.26162-0.21142 0.2688-0.090608 0.10404-0.15676 0.027624-1.0716-0.17154-1.4644-0.46015-1.4587-0.58952-2.181-1.0419-5.5903-2.8732-4.2513-2.053-2.9788-1.3497-4.0738-1.6448-3.4124-1.1281-3.3347-0.87869-3.3045-0.71614-5.2418-0.95524-1.8758-0.45801-0.8854-0.29408-1.354-0.6169-0.52392-0.31776-0.87306-0.67763-0.65719-0.67296-0.81741-1.1502-0.49688-1.0299-0.17377-0.4928-0.23016-0.96191-0.066486-0.51804-0.02669-0.80892 0.072315-0.87863 0.32886-1.4728 0.61229-1.751 1.2966-3.0582 2.8232-6.288 1.2032-2.9329 1.0627-3.0182 0.64915-2.4429 0.38116-2.4069 0.11056-2.59-0.053655-2.2887-0.20371-2.2823-0.43221-2.234-0.53513-1.6174-0.35669-0.79054-0.63743-1.1559-0.87019-1.3146-1.3357-1.7628-8.2379-10.207-7.75-9.7277-1.6517-2.0033-1.9257-2.2106-0.98472-0.99116-0.19996-0.12595 0.11021-0.33135 0.99576-1.3447 1.0459-1.134 1.3694-1.1455 1.6444-1.1165 1.8266-1.0802 5.8364-3.1251 1.8814-1.0625 1.7759-1.1113 1.6285-1.1892 6.6169-5.7846 1.6264-1.4825 1.5676-1.5298 1.4688-1.5958 1.7042-2.1193 2.2776-3.2135 1.509-2.4136 5.3712-9.2579 3.245-5.8436 2.7052-4.6756 0.86177-2.0835 0.30478-1.0757 0.8048-3.9196 0.42474-1.4043 0.5653-1.4134 0.55466-1.1517 0.62479-1.1252 1.9854-3.147 2.8728-5.0212 1.0069-1.3885 1.0372-1.1635 0.74886-0.68335 0.60564-0.43072 0.36294-0.10078 4.5389-4.1505 5.4551-4.8147 5.3183-4.478 3.5064-2.8453 3.477-2.7142 3.2874-2.4319 9.6719-6.6365 1.824-1.3038 2.9946-2.2868 4.0905-3.3655 4.0601-3.5109 6.4396-5.7288 24.132-21.801 6.8229-5.9856 3.9826-3.3979-0.21155 2.9535-1.7602 17.332-0.31646 3.9749-0.16408 2.9354-0.10742 4.7688 0.10814 14.677-0.23883 16.816 0.067104 4.062 0.17988 2.8035 0.58348 4.607 1.0725 7.0394 0.42513 3.9584 0.12246 2.4191 0.02704 2.1048-0.056873 3.0201-0.31629 6.6342-0.061915 3.2772 0.14124 9.7766-0.022816 4.9595-0.52885 16.689-0.1261 6.7946 0.04248 4.3067 0.14143 3.4655 0.23371 3.3155 0.34017 3.1897 0.57897 3.7341 0.54196 2.614 0.81218 3.1789 1.1681 3.7068 1.2714 3.3561 1.4196 3.2463 2.0576 4.1136 1.4859 2.6423 1.2923 2.0687 1.3931 1.9649 1.6124 1.9431 1.5342 1.5818 2.2621 2.0378 1.7934 1.4538 1.8069 1.3624 1.8018 1.2757 3.8624 2.5099" stroke="#bdc660"/>
    </defs>
    <g clip-path="url(#pbb751d46d2)">
     <use y="280.512" fill="#bdc660" stroke="#bdc660" xlink:href="#m14c77baa83"/>
    </g>
   </g>
  </g>
 </g>
 <defs>
  <clipPath id="pbb751d46d2">
   <rect x="7.2" y="7.2" width="204.87" height="266.11"/>
  </clipPath>
 </defs>
</svg>
