<?xml version="1.0" encoding="UTF-8"?>
<!DOCTYPE svg  PUBLIC '-//W3C//DTD SVG 1.1//EN'  'http://www.w3.org/Graphics/SVG/1.1/DTD/svg11.dtd'>
<svg width="321.11pt" height="280.51pt" version="1.1" viewBox="0 0 321.11 280.51" xmlns="http://www.w3.org/2000/svg" xmlns:xlink="http://www.w3.org/1999/xlink">
 <metadata>
  <rdf:RDF xmlns:cc="http://creativecommons.org/ns#" xmlns:dc="http://purl.org/dc/elements/1.1/" xmlns:rdf="http://www.w3.org/1999/02/22-rdf-syntax-ns#">
   <cc:Work>
    <dc:type rdf:resource="http://purl.org/dc/dcmitype/StillImage"/>
    <dc:date>2024-07-04T12:08:34.597679</dc:date>
    <dc:format>image/svg+xml</dc:format>
    <dc:creator>
     <cc:Agent>
      <dc:title>Matplotlib v3.7.1, https://matplotlib.org/</dc:title>
     </cc:Agent>
    </dc:creator>
   </cc:Work>
  </rdf:RDF>
 </metadata>
 <defs>
  <style type="text/css">*{stroke-linejoin: round; stroke-linecap: butt}</style>
 </defs>
 <g id="figure_1">
  <g id="patch_1">
   <path d="m0 280.51h321.11v-280.51h-321.11v280.51z" fill="none"/>
  </g>
  <g id="axes_1">
   <g id="PatchCollection_1">
    <defs>
     <path id="mce7abe772c" d="m285.56-112.3-4.0384 0.42831-2.3008 0.38606-2.0218 0.61053-2.102 0.9884-2.0443 1.3515-1.1013 0.87953-1.0583 0.94461-1.1958 1.1881-1.1202 1.2337-1.3557 1.7147-1.1459 1.8977-0.89527 1.9981-0.72981 2.164-1.0537 3.8964-0.45121 2.376-0.21934 2.2474-0.046134 2.2286 0.061435 1.487 0.42636 4.2449 0.11236 1.7875 0.03795 3.2179-0.083129 8.0192-0.073718 1.7872-0.15818 1.4504-0.17475 0.9226-0.64903 2.094-0.7631 1.7416-0.71449 1.3848-1.919 3.2473-2.1435 3.0682-1.4765 1.8376-1.5273 1.7074-1.632 1.5898-0.62254 0.52835-1.0964 0.76651-1.137 0.52093-2.441 0.62619-0.83153 0.34175-0.80612 0.53264-0.69659 0.70817-0.79044 1.1385-0.97404 1.9177-0.84764 2.1755-0.81976 2.5442-1.9451 6.6307-0.97882 3.0419-0.57832 1.344-0.26606 0.31417-0.12952-0.005971-0.24912-0.24957-0.77256-0.46231-1.6911-0.79619-4.8491-1.8516-3.7405-1.2688-5.0791-1.35-7.3312-1.3945-5.6714-1.4091-2.2215-0.40722-8.1317-1.2333-2.7925-0.16609-1.4282 0.088216-1.1566 0.15227-5.9447 1.2167-1.8382 0.24984-2.2908 0.058019-3.4474-0.21024-1.3524-0.009762-1.2544 0.17874-0.71655 0.24219-1.0675 0.64183-1.2839 1.2443-0.82065 0.99268-4.3246 5.7361-1.074 1.2486-1.2981 1.2743-0.67405 0.5082-0.52127 0.30492-0.70649 0.28717-0.6689 0.14048-1.4462-0.093795-1.169-0.38086-0.95166-0.46378-1.0472-0.63673-1.5169-1.0914-2.9549-2.3582-2.5629-1.9114-1.6995-1.1023-2.353-1.257-1.9113-0.80906-3.8107-1.4228-1.9936-0.81214-12.05-5.5205-3.9427-1.6518-3.4202-1.1506-2.1541-0.51286-1.8386-0.25497-1.2763-0.057483-1.5133 0.047486-2.6528 0.31805-3.9202 0.7603-2.7358 0.724-3.709 1.2879-8.799 3.4371-4.463 1.6638-4.0158 1.37-7.128 2.1828-4.8535 1.5941-2.7839 1.0277-6.7209 2.6743-1.9444 0.54094-1.782 0.16108-0.74613-0.082213-1.0268-0.2831-1.1199-0.54854-1.2982-0.99642-0.58679-0.61668-0.72488-0.92383-0.91702-1.4485-1.0713-2.1187-2.1318-5.1189-1.9703-4.004-2.2382-4.0484-4.8438-7.9389-2.3012-4.2934-1.1409-2.3729-1.4011-3.1541-1.8865-4.6687-1.901-5.5205-1.0069-3.2306-0.85247-3.1502-0.68111-3.0889-0.5335-3.1032-1.1704-7.8311-1.3565-6.8174-0.65089-3.8712-0.44925-4.1211-0.29446-6.0928-0.15079-1.9234-0.14496-0.877-0.21635-0.68583-0.13074-0.22638-0.28071-0.13025 0.19362-0.64249 4.9156-10.395 3.0824-6.8666 1.9786-4.803 1.7834-4.8708 0.92218-2.8862 0.63949-2.2516 0.90394-3.8488 0.48518-2.8054 0.28892-2.3177 0.17966-2.1166 0.12317-3.9871-0.041592-1.8469-0.23026-3.2906-0.23297-1.9606-0.51061-3.0491-0.28803-1.3605-0.9215-3.4676-0.84106-2.4695-0.56102-1.4299-1.2458-2.7835-0.79183-1.5763-1.8587-3.3597-4.151-7.1065-0.99301-1.8485-1.5909-3.3726-0.65304-1.659-0.56887-1.6973-0.4117-1.4891-0.30771-1.3897-0.26692-1.6482-0.14925-1.5009-0.039807-2.6653 0.11194-1.5629 0.42092-2.6306 0.68173-2.5019 0.51184-1.4038 0.65134-1.475 0.66374-1.2561 0.62944-1.0164 1.3883-1.7884 1.036-1.0691 0.98125-0.89219 1.0835-0.87752 1.4064-0.98085 1.6164-0.94663 1.4922-0.74284 2.4118-0.9628 2.745-0.78979 2.534-0.4547 1.8938-0.18693 1.2531-0.054105 1.6456 0.014453 1.2732 0.085404 2.2727 0.34056 2.0133 0.52173 0.95456 0.3257 1.0727 0.43402 1.2848 0.62257 1.058 0.5984 1.7296 1.1477 2.0079 1.6272 1.4638 1.3994 2.0891 2.2604 5.0453 6.0413 4.5004 5.1983 0.84506 0.84008 1.4814 1.2853 1.3469 1.0262 1.4418 0.92604 0.90533 0.47464 1.1517 0.4737 2.2522 0.55611 3.5606 0.63958 4.0387 0.98469 2.2023 0.63198 1.3742 0.58475 0.86606 0.50544 0.82578 0.62265 4.3848 4.2948 1.3733 1.1484 1.1187 0.81365 2.4931 1.5079 3.8956 2.1044 1.4148 0.67597 2.0595 0.83209 1.4599 0.48698 1.5679 0.38303 1.123 0.17439 1.2443 0.092498 1.4006-0.005414 1.9084-0.10906 4.3886-0.42612 3.3417-0.53805 2.5986-0.69427 3.3349-1.2432 5.2346-2.2891 2.3334-0.95328 8.5106-3.1077 6.9526-2.3346 4.5661-1.4485 4.2106-1.1903 3.0029-0.67915 3.0028-0.40312 1.7212-0.10806 2.7854-0.043481 3.1418 0.10507 5.8499 0.45377 4.5153 0.54278 5.6341 0.86261 2.2928 0.13342 1.38-0.10137 1.1534-0.21576 1.4941-0.46441 1.4067-0.60629 1.846-1.0062 2.3901-1.625 2.0974-1.7211 2.0303-1.8921 3.7982-3.7926 6.2869-6.6261 2.4585-2.784 1.683-2.0844 4.7896-6.6395 1.7771-2.1701 2.0815-2.3508 2.1428-2.3291 2.0827-2.1264 3.5386-3.2067 1.4355-1.3795 3.797-3.9295 2.03-1.8449 1.4463-1.1695 1.6644-1.2162 1.1637-0.75656 1.5929-0.90775 1.2164-0.56992 0.77956-0.26059 0.42839-0.009725 0.64983 6.8673 0.87938 6.8354 0.36351 2.3348 0.87657 4.7134 1.2422 5.2195 1.1093 3.7691 2.0589 6.0174 2.4712 6.4523 3.5017 8.7092 1.5308 3.2573 1.3581 2.4131 2.3383 3.6213 2.9575 4.077 2.0583 2.6456 5.6184 6.8885 2.4164 3.076 1.9651 2.6969 2.1854 3.3762 1.7254 3.1827 0.93049 2.0674 0.67148 1.7183 1.0724 3.3554 0.76444 3.2119 0.5372 3.383 0.27078 2.9921 0.20607 4.9744-0.003494 4.7164-0.16761 2.8679-0.37352 3.3307-0.64986 3.8629-0.49205 2.1794-0.82626 2.7269-1.2484 2.9324-1.5378 2.8426-1.7372 2.7535-1.8454 2.6495-3.9575 5.3563-1.1631 1.7474-0.38468 0.68127-0.4598 1.0775-0.10052 0.45337 3.85e-4 0.38676 0.13579 0.32239 0.13524 0.10809 0.26866 0.067353" stroke="#bdc660"/>
    </defs>
    <g clip-path="url(#pb666ac174e)">
     <use y="280.512" fill="#bdc660" stroke="#bdc660" xlink:href="#mce7abe772c"/>
    </g>
   </g>
  </g>
 </g>
 <defs>
  <clipPath id="pb666ac174e">
   <rect x="7.2" y="7.2" width="306.71" height="266.11"/>
  </clipPath>
 </defs>
</svg>
