<?xml version="1.0" encoding="UTF-8"?>
<!DOCTYPE svg  PUBLIC '-//W3C//DTD SVG 1.1//EN'  'http://www.w3.org/Graphics/SVG/1.1/DTD/svg11.dtd'>
<svg width="219.67pt" height="280.51pt" version="1.1" viewBox="0 0 219.67 280.51" xmlns="http://www.w3.org/2000/svg" xmlns:xlink="http://www.w3.org/1999/xlink">
 <metadata>
  <rdf:RDF xmlns:cc="http://creativecommons.org/ns#" xmlns:dc="http://purl.org/dc/elements/1.1/" xmlns:rdf="http://www.w3.org/1999/02/22-rdf-syntax-ns#">
   <cc:Work>
    <dc:type rdf:resource="http://purl.org/dc/dcmitype/StillImage"/>
    <dc:date>2024-07-04T12:08:41.017872</dc:date>
    <dc:format>image/svg+xml</dc:format>
    <dc:creator>
     <cc:Agent>
      <dc:title>Matplotlib v3.7.1, https://matplotlib.org/</dc:title>
     </cc:Agent>
    </dc:creator>
   </cc:Work>
  </rdf:RDF>
 </metadata>
 <defs>
  <style type="text/css">*{stroke-linejoin: round; stroke-linecap: butt}</style>
 </defs>
 <g id="figure_1">
  <g id="patch_1">
   <path d="m0 280.51h219.67v-280.51h-219.67v280.51z" fill="none"/>
  </g>
  <g id="axes_1">
   <g id="PatchCollection_1">
    <defs>
     <path id="m141250df37" d="m187.58-107.52-0.21731 5.1742 0.018962 1.7828 0.090217 1.3095 0.30329 2.04 0.35617 1.4153 0.59813 1.6475 0.67886 1.4829 0.7692 1.4492 1.0206 1.6461 0.58877 0.84178 1.5663 1.9886 3.4654 3.9343 1.6577 2.0236 2.0402 2.7964 0.70622 1.0951 0.89128 1.5755 0.59185 1.3544 0.23689 0.7776 0.17457 1.0088 0.019341 0.6354-0.06373 0.62482-0.23565 0.84268-0.38468 0.81388-0.86363 1.2533-0.75391 0.85227-0.99161 0.96931-1.3219 1.144-2.0476 1.536-1.8072 1.1482-2.6052 1.3919-5.9159 2.8434-2.347 1.2976-0.90233 0.59824-0.68758 0.52514-1.0397 0.95373-0.79156 0.84041-0.69141 0.88626-0.63028 1.1624-0.1766 0.52462-0.153 0.82078-0.041722 0.8762 0.092505 1.3429 0.50975 2.8092 1.1356 4.8606 0.80328 4.1777 0.43877 3.7443 0.18908 2.5782-0.023254 0.78434-0.42188-0.094801-0.93383-0.060644-4.9453-0.10427-5.6071-0.48325-1.1906-0.013093-1.5013 0.09955-1.997 0.2843-5.1936 0.97758-6.5912 1.1208-2.7902 0.55231-1.858 0.4205-3.0218 0.79873-1.4369 0.45386-1.7838 0.67054-1.384 0.65072-1.3498 0.82413-0.73979 0.57843-1.7558 1.6207-0.86643 0.70567-0.99734 0.56244-1.0844 0.3576-1.1305 0.11757-1.137-0.16913-0.86778-0.35364-0.73791-0.4351-0.69742-0.50101-1.4199-1.2319-5.2637-5.1763-2.6489-2.3313-1.5837-1.2269-2.5821-1.8019-2.2262-1.6505-1.8595-1.1999-1.7435-0.80062-1.6564-0.49-1.2691-0.20927-1.2059-0.062473-1.3325 0.099453-0.97725 0.18695-2.3909 0.73878-10.451 3.8323-1.4046 0.40782-1.2341 0.27466-0.76905 0.082834-0.19169-0.096561-0.006709-0.28247-0.30081-0.51535-0.95908-1.1628-1.432-1.4565-1.3891-1.2715-4.1382-3.3702-8.2966-6.3625-1.7493-1.3901-1.3825-1.2446-1.3184-1.3331-1.1674-1.308-1.1089-1.3644-1.3845-1.8982-1.2039-1.8798-1.1577-2.0925-1.4781-3.0155-1.0049-2.2743-0.8993-2.2224-1.8069-5.0813-2.8908-9.5562-0.53145-1.5828-0.68769-1.7484-0.69529-1.4192-1.123-1.7389-2.9547-3.6648-2.2187-3.0679-0.99172-1.6201-0.71041-1.482-0.26986-0.77243-0.24411-1.0694-0.12613-1.4948 0.069258-1.4989 0.51873-4.1721 0.19257-3.0087-0.015816-2.2311-0.20375-5.2498 0.029568-1.8012 0.18319-1.825 0.22536-1.1041 0.27588-0.94164 0.68465-1.7289 0.9982-1.9896 0.88376-1.5722 6.3959-10.762 1.3696-2.797 0.6586-1.7165 0.44068-1.381 0.65396-2.6718 0.16761-0.98814 0.16777-1.5969 0.074817-2.9147-0.082091-2.9189-0.19249-2.0195-0.33422-1.8084-0.5695-2.0522-0.67623-1.8494-1.1895-2.6065-1.6674-2.9706-1.7536-2.62-1.6318-2.1217-2.2893-2.6116-2.4632-2.5332-4.9448-4.8559-3.0184-3.0605-2.9935-3.2376-2.4516-2.8561-4.0635-5.1775-4.088-5.6855-3.2222-4.8433-1.2982-2.157-0.28089-0.5914 0.004131-0.10676 3.7595-2.1207 1.4489-0.99486 1.108-0.94179 0.79705-0.81145 0.58689-0.69852 2.0501-2.6629 0.82396-1.2728 0.4132-1.0735 0.14601-0.7318 0.09226-1.5038-0.016438-3.7512 0.079722-1.5802 0.21136-1.8192 0.43878-2.3031 0.21394-0.774 0.3819-1.0317 0.45908-0.88815 0.41068-0.59836 0.6164-0.6905 1.3248-1.1059 1.7817-1.1658 4.882-2.8469 2.0396-1.4152 1.8435-1.5604 1.6403-1.6982 1.2134-1.1221 2.0186-1.6196 1.3643-0.98662 2.5152-1.6697 2.1611-1.299 2.4556-1.2919 1.3437-0.60143 2.0102-0.74702 2.0062-0.56286 1.5278-0.30215 1.5063-0.18616 3.515-0.14335 2.5674-0.20842 2.4384-0.32794 3.2269-0.61002 2.9053-0.79364 4.4079-1.7149 0.6603-0.18275 0.29508-0.01773-0.2207 0.45644-0.51371 1.6943-0.5966 2.5252-0.29505 1.5759-0.22542 1.4938-0.24139 2.2595-0.1459 2.8493 0.031503 3.9601 0.73514 14.698 0.30444 3.1966 0.25367 1.7691 0.46543 2.3918 0.69954 2.652 0.42036 1.3232 1.0221 2.8052 3.7938 9.2649 4.8685 12.533 1.5887 3.8711 1.5608 3.4708 2.2602 4.4163 1.4895 2.5576 2.0061 3.0884 1.9761 2.7154 1.9944 2.474 2.6002 2.9237 2.3429 2.4299 17.834 17.27 2.1429 1.9599 2.6073 2.2084 2.8611 2.1936 1.4173 1.0059 3.1773 2.0967 3.4965 2.133 9.2223 5.422 3.8502 2.4467 1.9363 1.3168 4.2124 3.0755 8.0999 6.295 14.34 10.88" stroke="#bdc660"/>
    </defs>
    <g clip-path="url(#p0b362a3a37)">
     <use y="280.512" fill="#bdc660" stroke="#bdc660" xlink:href="#m141250df37"/>
    </g>
   </g>
  </g>
 </g>
 <defs>
  <clipPath id="p0b362a3a37">
   <rect x="7.2" y="7.2" width="205.27" height="266.11"/>
  </clipPath>
 </defs>
</svg>
