<?xml version="1.0" encoding="UTF-8"?>
<!DOCTYPE svg  PUBLIC '-//W3C//DTD SVG 1.1//EN'  'http://www.w3.org/Graphics/SVG/1.1/DTD/svg11.dtd'>
<svg width="253.97pt" height="280.51pt" version="1.1" viewBox="0 0 253.97 280.51" xmlns="http://www.w3.org/2000/svg" xmlns:xlink="http://www.w3.org/1999/xlink">
 <metadata>
  <rdf:RDF xmlns:cc="http://creativecommons.org/ns#" xmlns:dc="http://purl.org/dc/elements/1.1/" xmlns:rdf="http://www.w3.org/1999/02/22-rdf-syntax-ns#">
   <cc:Work>
    <dc:type rdf:resource="http://purl.org/dc/dcmitype/StillImage"/>
    <dc:date>2024-07-04T12:08:36.972485</dc:date>
    <dc:format>image/svg+xml</dc:format>
    <dc:creator>
     <cc:Agent>
      <dc:title>Matplotlib v3.7.1, https://matplotlib.org/</dc:title>
     </cc:Agent>
    </dc:creator>
   </cc:Work>
  </rdf:RDF>
 </metadata>
 <defs>
  <style type="text/css">*{stroke-linejoin: round; stroke-linecap: butt}</style>
 </defs>
 <g id="figure_1">
  <g id="patch_1">
   <path d="m0 280.51h253.97v-280.51h-253.97v280.51z" fill="none"/>
  </g>
  <g id="axes_1">
   <g id="PatchCollection_1">
    <defs>
     <path id="m6847dd475a" d="m154.85-200.22-0.088086 0.15204 0.17111 0.4651 0.55221 0.55793 0.68082 0.43127 0.83609 0.40186 3.0185 1.2206 1.0441 0.51806 0.87456 0.60486 0.63007 0.73399 0.30917 0.78526 0.035688 0.16806 0.03847 0.24676 0.019635 1.182-0.15713 1.2622-0.50418 2.5731-0.19774 1.2267-0.064533 1.1313 0.14785 0.98988 0.18124 0.43988 0.35722 0.57127 1.0955 1.3889 0.21955 0.36617 0.16794 0.37044 0.21191 0.83467 0.088482 0.91282 0.071082 1.9194 0.10156 1.2016 0.11639 1.9833 0.14563 0.99528 0.30474 0.96316 0.30092 0.57354 0.33293 0.49631 0.44074 0.55701 1.0797 1.1577 0.85717 0.82577 1.5748 1.4117 3.1004 2.6076 10.883 8.8189 3.959 3.2586 2.2539 1.9134 1.9057 1.6889 1.3969 1.3513 0.23268 0.31119 0.45823 0.50246 1.2435 1.548 1.1258 1.5452 0.59722 0.88913 0.70944 1.142 0.66714 1.1874 0.6675 1.3478 0.58483 1.3795 0.36 0.99395 0.31552 1.0025 0.27258 1.0015 0.23732 1.0036 0.44013 2.2744 0.5603 3.3536 0.3936 1.8749 0.23406 0.8927 0.30371 0.98885 0.34854 0.96905 0.46955 1.1137 0.52863 1.0848 0.91446 1.6164 1.084 1.6711 1.1486 1.614 2.8544 3.8724 1.2338 1.8344 0.58424 0.96657 0.53758 0.98609 0.55749 1.1825 0.47202 1.214 0.45693 1.5513 0.18628 0.84136 0.15183 0.85032 0.23042 1.8117 0.27478 3.2205 0.1883 1.7505 0.16187 1.0996 0.20536 1.0923 0.43578 1.744 0.42613 1.3567 0.48489 1.3426 0.62141 1.5449 0.66916 1.5329 1.3555 2.8833 1.9315 3.8838 5.02 9.8196 1.4177 2.902 1.3952 3.0487 1.3661 3.2195 1.3355 3.3384 1.9449 5.0736 2.1387 5.706-0.14321 0.037559-0.39543 0.016892-2.9913-0.018872-1.7267 0.05465-1.2145 0.10678-3.3259 0.36065-1.769 0.24044-0.58266 0.11757-0.57372 0.16832-0.70579 0.28341-0.64305 0.33346-0.39975 0.2456-0.85687 0.63099-0.43555 0.37622-0.52947 0.50946-0.8379 0.94528-0.80771 1.0796-1.1565 1.6311-0.53122 0.67089-0.98704 1.1446-1.0347 1.3284-1.9935 2.8204-1.1942 1.415-0.36767 0.5255-0.37542 0.68139-0.83849 1.9511-0.4961 0.95897-0.74292 1.2252-0.80341 1.1253-0.46136 0.56209-0.77559 0.8438-2.5484 2.407-0.71346 0.70424-0.8492 0.9321-0.49112 0.61648-0.41793 0.61931-0.25198 0.50612-0.054944 0.19226 0.007019 0.2352 0.13448 0.10317-0.62698-0.052959-2.6451-0.40196-3.4819-0.63384-1.8721-0.40241-1.6144-0.38462-1.6497-0.46955-1.6274-0.53832-1.6009-0.5884-3.1146-1.271-2.9888-1.3336-4.6716-2.2267-1.2282-0.53664-0.71334-0.2626-1.1561-0.318-0.61272-0.10394-1.0118-0.071477-1.0345 0.004242-7.3076 0.26717-4.1474 0.058026-1.766-0.027395-3.5498-0.12051-5.0625-0.2539-2.7392-0.22235-2.2356-0.27033-1.5581-0.25381-1.5479-0.29546-6.0611-1.2939-1.4615-0.27582-1.4239-0.22025-1.3728-0.13963-1.304-0.027559-1.212 0.12416-1.0903 0.32573-0.98937 0.58824-0.88824 0.75199-0.85322 0.80121-0.88205 0.73832-0.97668 0.55834-0.53622 0.1745-1.0305 0.15081-1.1156-0.014043-1.1806-0.14374-1.2294-0.24616-1.5558-0.4129-0.78805-0.24404-1.5312-0.52834-1.9695-0.76015-2.3824-1.0198-3.0406-1.4154-2.8094-1.3726-3.88-1.9507-8.6589-4.4329-3.0087-1.4883-1.4993-0.71059-2.0537-0.92573-1.3956-0.5687-1.3123-0.44701-2.0362-0.51831-0.5942-0.1785-0.22403-0.11031-0.14671-0.11344-0.32471-0.12749-2.2207-0.56488-0.76624-0.29975-1.0677-0.68575-1.0342-0.96218-0.99452-1.1685-0.95512-1.3123-0.91843-1.4076-0.88488-1.4684-0.85397-1.5059-1.6208-3.0713-1.4399-2.9445-2.7926-5.8482-1.317-2.5963-2.098-3.8401-3.5865-6.2481-0.72647-1.3587-0.68854-1.3744-0.82068-1.7956-0.48822-1.1835-0.44176-1.1948-0.63642-2.051-0.92399-3.4373-0.42657-1.3917-0.31071-0.83705-0.3581-0.79432-0.39941-0.70966-0.46759-0.65076-0.73701-0.76336-0.8473-0.67684-0.92876-0.62455-1.1512-0.69409-1.2073-0.66595-1.2473-0.6341-1.7773-0.81041-1.5898-0.6117-0.96371-0.30881-1.0301-0.26648-0.92146-0.16559-1.2932-0.089516-1.2575 0.071065-1.193 0.22061-0.96396 0.29452-3.1254 1.1077-0.92383 0.26283-1.2288 0.21914-1.0473-0.003839-0.59178-0.11948-1.094-0.51374-1.0204-0.81659-0.93876-1.0226-0.83556-1.1229-0.69323-1.0933-0.48823-0.88904-0.188-0.44596 0.44145-0.075627 0.73284-0.38845 0.87933-0.6046 0.90591-0.76433 0.83918-0.89082 0.745-1.0314 0.66811-1.0677 0.68696-1.0249 0.80976-0.90577 0.55488-0.43902 0.61942-0.38256 1.223-0.56099 0.87907-0.30521 0.91594-0.2612 0.99792-0.23661 1.0131-0.20347 1.4825-0.25274 2.975-0.43744 0.97604-0.19868 0.91643-0.26424 0.5504-0.21042 1.2103-0.61669 1.2506-0.77335 0.97384-0.6955 0.93824-0.76211 0.88143-0.82659 0.79953-0.89317 0.69705-0.96633 0.58266-1.018 0.46014-1.0511 0.3221-1.0686 0.16057-1.0723-0.024983-1.2659-0.031713-0.33436-0.46738-3.1562-0.66402-3.8123-0.28976-1.3511-0.26919-1.0282-0.38799-1.3145-1.2451-3.8922-0.37681-1.2663-0.35474-1.3637-0.29166-1.4332-0.11041-0.76599-0.15269-1.6151-0.15042-1.0471-0.22504-1.0531-0.30283-1.0377-0.38735-0.99981-0.39029-0.79987-1.5167-2.8506-0.58948-0.98796-0.65308-0.90659-0.74785-0.77964-0.85214-0.61657-2.7694-1.479-0.81384-0.58263-0.69568-0.73489-0.58205-0.83666-0.50712-0.88271-0.3166-0.60915-0.27216-0.61031-0.36636-1.1283-0.44215-1.5719-0.19857-0.90235-0.11786-0.9046 0.013055-0.95399 0.21671-0.9098 0.42614-0.78408 0.1376-0.18604 0.52753-0.58589 0.57251-0.50807 0.64283-0.48349 0.77108-0.50497 0.82772-0.48345 1.354-0.70923 2.9025-1.3536 3.8544-1.6564 2.9974-1.2134 4.8864-1.8516 4.1515-1.7347 1.4758-0.66303 1.656-0.80213 1.1182-0.58458 1.0879-0.60958 1.0466-0.63837 0.99289-0.67416 0.83987-0.64781 0.77146-0.68806 0.79191-0.85908 0.64849-0.93448 0.40746-0.85047 0.27347-0.8373 0.16216-0.69864 0.12737-0.75562 0.089236-0.74408 0.11013-1.6538 0.018539-2.4117-0.047532-1.4184-0.079333-1.2774-0.22842-2.2257-0.19263-1.2968-0.37626-1.955-1.3259-5.8094-0.53411-1.9324-0.68883-2.0324-0.73-1.797-1.8147-3.723-1.0765-2.3341-0.66468-1.5322-1.025-2.5489-1.9031-4.8882-1.0032-2.4124-0.54331-1.1994-0.56907-1.1505-1.1492-2.2152-0.59349-1.2747-0.56126-1.3199-0.51932-1.3571-0.4644-1.3868-0.39286-1.4092-0.31411-1.4242-0.56243-2.8089-0.23006-0.91608-0.2715-0.86103-0.1955-0.51495-1.0986-2.4959-0.67571-1.6787-0.22941-0.64689-0.14638-0.49732-0.1224-0.59193-0.072891-0.65406 0.016279-0.13073 0.37771-0.012837 0.5155 0.088468 0.88672 0.21868 0.90989 0.28865 1.0172 0.41261 0.88744 0.46083 1.216 0.82773 0.68936 0.59107 0.77903 0.79486 0.37439 0.43343 1.1297 1.474 1.481 2.1177 2.8121 4.1334 0.94762 1.3357 1.4058 1.8388 0.6512 0.77944 0.67411 0.74925 0.63632 0.6498 0.8177 0.7596 0.64803 0.55043 0.66392 0.52518 1.1131 0.81393 2.2814 1.5841 0.86613 0.65023 0.88096 0.73569 0.9588 0.91843 0.87941 0.97387 0.83499 1.0525 2.2478 3.1517 0.65565 0.80818 0.77608 0.77854 0.81752 0.59705 0.62237 0.31668 0.50515 0.18035 0.85043 0.17271 0.99277 0.025694 1.06-0.15486 0.9099-0.25974 2.3404-0.93118 0.61346-0.20652 0.96028-0.20018 0.77302-0.00417 0.38962 0.066382 0.30334 0.086458 0.66625 0.29672 0.65419 0.42165 0.75902 0.60033 1.6481 1.4183 1.3176 1.2278 1.0099 1.0859 0.90281 1.1452 0.44638 0.65154 0.36393 0.59209 0.42351 0.78463 0.37637 0.82311 0.31658 0.82317 0.3632 1.1462 0.31705 1.2232 0.34049 1.5679 0.63345 3.2327 0.37871 1.6361 0.46994 1.6041 0.27795 0.7755 0.30552 0.73747 0.44896 0.90288 0.45452 0.72366 0.30944 0.39498 0.30422 0.31932 0.24745 0.21482 0.93509 0.56133 1.0791 0.39607 3.1747 0.81441 2.0181 0.60544 2.6035 0.88076 6.0397 2.1834 3.2129 1.0821 1.0248 0.30419 1.82 0.44558 0.97494 0.18906 1.6575 0.24105 1.9097 0.17028 0.98091 0.050961 2.0708 0.045806 3.4211-0.041388 3.4568-0.11667 2.8876-0.15631 6.4404-0.44613 9.1255-0.74822" stroke="#bdc660"/>
    </defs>
    <g clip-path="url(#pb3fc330917)">
     <use y="280.512" fill="#bdc660" stroke="#bdc660" xlink:href="#m6847dd475a"/>
    </g>
   </g>
  </g>
 </g>
 <defs>
  <clipPath id="pb3fc330917">
   <rect x="7.2" y="7.2" width="239.57" height="266.11"/>
  </clipPath>
 </defs>
</svg>
