<?xml version="1.0" encoding="UTF-8"?>
<!DOCTYPE svg  PUBLIC '-//W3C//DTD SVG 1.1//EN'  'http://www.w3.org/Graphics/SVG/1.1/DTD/svg11.dtd'>
<svg width="210.76pt" height="280.51pt" version="1.1" viewBox="0 0 210.76 280.51" xmlns="http://www.w3.org/2000/svg" xmlns:xlink="http://www.w3.org/1999/xlink">
 <metadata>
  <rdf:RDF xmlns:cc="http://creativecommons.org/ns#" xmlns:dc="http://purl.org/dc/elements/1.1/" xmlns:rdf="http://www.w3.org/1999/02/22-rdf-syntax-ns#">
   <cc:Work>
    <dc:type rdf:resource="http://purl.org/dc/dcmitype/StillImage"/>
    <dc:date>2024-07-04T12:08:59.160809</dc:date>
    <dc:format>image/svg+xml</dc:format>
    <dc:creator>
     <cc:Agent>
      <dc:title>Matplotlib v3.7.1, https://matplotlib.org/</dc:title>
     </cc:Agent>
    </dc:creator>
   </cc:Work>
  </rdf:RDF>
 </metadata>
 <defs>
  <style type="text/css">*{stroke-linejoin: round; stroke-linecap: butt}</style>
 </defs>
 <g id="figure_1">
  <g id="patch_1">
   <path d="m-0 280.51h210.76v-280.51h-210.76v280.51z" fill="none"/>
  </g>
  <g id="axes_1">
   <g id="PatchCollection_1">
    <defs>
     <path id="m6df9a72b07" d="m151.12-250.45-0.32456 0.61407-0.19166 0.84351-0.18172 1.1609-0.2567 3.114-0.010717 2.8544 0.37844 5.3071 0.53073 4.5631 1.4332 9.5378 4.753 27.186 0.71805 3.7484 0.8157 3.5111 0.98779 3.2121 1.0208 2.5165 1.4486 3.0835 4.9931 9.9034 2.3543 4.2915 2.0212 3.4035 4.8171 7.0526 1.3502 2.1597 0.92783 1.8037 0.63456 1.5956 0.53516 1.6807 1.3239 5.1125 1.9969 9.1184 0.68468 3.4007 0.93408 6.086 2.0853 11.037 0.4522 2.059 0.52609 2.0188 2.5158 7.5908 0.81794 2.7262 0.98105 3.803 0.70004 3.7881 1.4452 10.305 0.30464 3.9218-0.051816 3.7841-0.42869 3.4096-0.64084 2.5571-0.63596 1.1028-1.3859-0.6882-2.4081-0.81557-1.1695-0.2701-1.975-0.20142-0.77936 0.043246-1.197 0.24532-3.3877 1.2791-1.1722 0.31372-1.4308 0.14398-1.4995-0.038483-4.5872-0.50245-1.459-0.078468-1.2429 0.061274-1.1374 0.23637-0.99268 0.46694-0.74415 0.65506-0.62416 0.8445-0.53309 0.99125-0.4658 1.1038-0.89481 2.7888-0.98576 4.044-2.0581 9.4148-1.2005 4.819-1.1529 3.861-0.61097 1.6896-0.69496 1.6183-0.9222 1.6986-0.83211 1.2113-6.6724 8.8283-0.78806 0.9325-0.78884 0.75054-0.72977 0.49344-0.60457 0.24533-0.35608-0.039532 0.32585-1.1058-0.21838-1.0414-0.48197-1.2143-0.54483-0.9933-0.71392-1.0849-4.8959-6.2622-1.1578-1.6483-1.7272-2.9204-2.7839-5.1077-2.5665-4.0019-0.93332-1.6634-2.2624-4.6121-1.6359-3.8125-2.6369-8.1178-0.32677-0.71082-0.85204-1.0297-0.89892-0.34593-1.4001 0.1685-0.71762 0.26237-1.6023 0.8712-7.4832 4.6748-1.7823 1.2579-1.8908 1.5632-4.7472 4.1792-2.9848 2.8075-1.1507 0.8843-2.2762 1.2107-2.4244 0.72588-0.97149 0.13696-1.7409-0.057492-1.6033-0.47672-1.3456-0.92075-1.2047-1.8259-0.69435-2.3646-0.18684-1.4739 0.060506-2.6782 0.41354-2.984 2.0634-10.422 0.412-2.4147 0.50682-3.7768 0.18295-2.1739 0.067985-2.1205-0.070455-2.0012-0.22888-1.9145-0.51552-2.2516-0.71889-2.2634-0.86783-2.3073-0.92412-1.9806-0.3393-0.61985-1.5629-2.3547-3.5069-4.5183-1.1846-1.6694-0.88421-1.5531-0.90631-2.42-0.45035-2.0428-0.16178-1.3988-0.071128-1.667 0.11698-2.8925 0.71069-6.7204 0.18386-2.8785-0.022427-3.1539-0.25737-2.1779-0.20615-0.95348-0.66971-1.9194-1.3841-2.1216-1.8301-1.5875-2.1125-0.98749-1.8598-0.36495-6.4211-0.35704-1.5053-0.19626-1.2742-0.4235-0.044179-0.076001 0.18065-0.31741 0.16596-0.66649 0.1002-0.88276-0.16432-6.3764-0.32413-2.2479-0.70606-3.2346-0.38865-2.7929-1.1908-6.226-0.83235-2.3959-1.4607-3.1038-4.3234-8.1668-3.3278-6.9709-1.1095-1.9247-0.79628-1.0889-0.87643-0.96196-0.96584-0.79628-1.0705-0.57879-1.2242-0.3247-1.33-0.095032-1.4125 0.075977-1.4751 0.19824-6.2131 1.2309-2.2432 0.3513-1.4466 0.16768-1.2724 0.058136-1.4597-0.10445-0.29909-0.079977-1.1324-0.51514-1.6459-2.0434-1.58-3.0696-0.64022-1.8609-0.8487-3.5036-0.71087-4.1038-0.35939-2.5693-0.56317-5.045-0.38645-5.0596-0.11818-2.5944-0.041314-3.9244 0.076669-2.3105 0.16734-2.2267 0.54986-3.6362 1.0031-3.3476 0.93742-1.871 0.86618-1.2304 0.68725-0.79928 1.938-1.8515 2.2281-1.8272 1.498-1.108 3.5694-2.3564 4.1961-2.5842 2.3559-1.7351 1.606-1.4033 1.825-1.9171 1.2335-1.6371 2.3836-3.5374 1.4659-1.7554 1.174-1.061 0.9382-0.68272 4.2473-2.4344 0.72472-0.31338 1.0518-0.26889 0.7085-0.050132 1.2538 0.085439 2.8293 0.44334 3.8342 0.44518 2.5602 0.41491 8.7598 1.8544 2.0474 0.51459 2.9858 1.0565 2.8868 1.3506 8.7629 5.0082 4.0358 2.1922 1.7985 0.69699 1.735 0.34245 1.3907 0.070626 2.0607-0.11298 12.161-1.5331 3.9885-0.27237 2.8582 0.022252 3.0544 0.14063 7.7214 0.63323 1.6968 0.066847 2.5591-0.04371 11.06-1.1924 2.7139-0.53995 2.8043-0.8746" stroke="#bdc660"/>
    </defs>
    <g clip-path="url(#p3e983f60b8)">
     <use y="280.512" fill="#bdc660" stroke="#bdc660" xlink:href="#m6df9a72b07"/>
    </g>
   </g>
  </g>
 </g>
 <defs>
  <clipPath id="p3e983f60b8">
   <rect x="7.2" y="7.2" width="196.36" height="266.11"/>
  </clipPath>
 </defs>
</svg>
