<?xml version="1.0" encoding="UTF-8"?>
<!DOCTYPE svg  PUBLIC '-//W3C//DTD SVG 1.1//EN'  'http://www.w3.org/Graphics/SVG/1.1/DTD/svg11.dtd'>
<svg width="371.52pt" height="266.53pt" version="1.1" viewBox="0 0 371.52 266.53" xmlns="http://www.w3.org/2000/svg" xmlns:xlink="http://www.w3.org/1999/xlink">
 <metadata>
  <rdf:RDF xmlns:cc="http://creativecommons.org/ns#" xmlns:dc="http://purl.org/dc/elements/1.1/" xmlns:rdf="http://www.w3.org/1999/02/22-rdf-syntax-ns#">
   <cc:Work>
    <dc:type rdf:resource="http://purl.org/dc/dcmitype/StillImage"/>
    <dc:date>2024-07-04T12:09:00.267505</dc:date>
    <dc:format>image/svg+xml</dc:format>
    <dc:creator>
     <cc:Agent>
      <dc:title>Matplotlib v3.7.1, https://matplotlib.org/</dc:title>
     </cc:Agent>
    </dc:creator>
   </cc:Work>
  </rdf:RDF>
 </metadata>
 <defs>
  <style type="text/css">*{stroke-linejoin: round; stroke-linecap: butt}</style>
 </defs>
 <g id="figure_1">
  <g id="patch_1">
   <path d="m0 266.53h371.52v-266.53h-371.52v266.53z" fill="none"/>
  </g>
  <g id="axes_1">
   <g id="PatchCollection_1">
    <defs>
     <path id="m3a107783d9" d="m178.17-228.36 0.33705 0.04741 1.1663 0.31858 5.2786 1.7213 2.9151 0.85445 3.8732 0.87714 8.2669 1.7297 1.8764 0.42164 2.9036 0.72213 1.4888 0.42118 2.9058 0.9239 4.3812 1.56 3.0949 1.0465 1.8023 0.53049 1.8737 0.47571 2.1408 0.46425 1.5741 0.2508 0.86001 0.07808 2.2048 0.024217 3.0653-0.087375 7.3194-0.38972 2.3654-0.064901 2.3378 0.024562 2.2837 0.16025 2.1984 0.35283 1.3777 0.35324 2.5783 0.80396 2.0026 0.70551 1.5275 0.59051 5.8549 2.4519 1.5948 0.86535 1.1257 0.83301 1.9974 1.7656 1.7724 1.4761 0.67851 0.69226 0.5154 0.6922 0.43922 0.75519 0.44301 0.97002 0.89716 2.6671 0.42426 0.91612 0.55724 0.83726 0.47601 0.52476 1.7512 1.5621 0.58218 0.56614 2.6428 2.7592 0.94043 0.91438 1.4325 1.2776 1.7469 1.4189 6.4361 4.8934 2.8719 2.0446 2.4789 1.6762 2.5379 1.6113 1.2756 0.73703 1.0376 0.54377 1.0482 0.48731 1.5252 0.59948 7.1272 2.6213 1.9176 0.6376 1.2089 0.35832 8.4819 2.3039 4.9558 1.5621 1.2307 0.33333 2.3354 0.55315 1.5277 0.31178 2.8306 0.49083 7.1579 1.0413 1.6301 0.28213 2.0034 0.44503 1.3185 0.3773 1.2291 0.43693 1.3039 0.5973 1.0922 0.67953 0.71446 0.62792 0.49073 0.66509 0.2748 0.86981-0.088446 0.76434-0.42631 0.51564-0.11924 0.49056-0.77372 0.5183-0.84301 0.33713-0.89928 0.27534-2.4444 0.56627-1.1966 0.20874-2.1156 0.2628-2.6454 0.16656-4.7137 0.15239-1.5115 0.14432-0.90641 0.16362-0.8815 0.2434-0.59904 0.22953-0.6604 0.33217-0.60431 0.40094-0.48323 0.41243-0.69152 0.80212-0.57539 0.94165-0.3899 0.83852-0.39864 1.0624-1.4883 4.7098-0.48228 1.2913-0.58929 1.3542-0.56578 1.0998-0.69259 1.1421-0.71548 0.99969-0.75689 0.90295-0.81608 0.8278-0.79866 0.68284-0.55306 0.4059-1.0375 0.63339-1.1095 0.54611-1.5412 0.60119-1.0584 0.3329-1.0522 0.27387-1.7918 0.32948-0.86118 0.085262-0.96115 0.018039-0.81288-0.066325-0.8652-0.17548-0.57964-0.19846-0.57184-0.29391-0.48538-0.38571-0.28752-0.35296-1.8152-2.2978-1.2302-1.7765-0.95684-1.6399-1.2302-2.1865-1.0936-2.3232-1.3669-2.3232-1.367-2.7332-1.0935-1.5032-1.3668-1.2299-2.7334-0.95637-2.1867-0.54643-2.7333 3.05e-4 -3.3314 0.66547-1.6866 0.76479-0.92883 0.35384-1.4344 0.42754-0.78595 0.16542-1.4171 0.16808-1.5508 0.035473-1.0707-0.047899-1.9602-0.22489-10.098-1.8781-5.4993-1.1916-1.2863-0.24317-1.3104-0.20165-1.4034-0.15719-2.0342-0.12031-1.0559-0.01495-2.8692 0.094465-1.8404 0.14305-3.3384 0.3392-2.9787 0.42216-2.0963 0.4528-4.0821 1.1225-0.98655 0.23895-1.4118 0.26659-1.3342 0.16561-0.89886 0.058616-3.3613-0.013908-0.81294 0.029032-0.78396 0.086306-0.93338 0.2163-0.93584 0.39603-0.57357 0.33981-0.45386 0.31866-0.84279 0.70695-1.2458 1.2795-2.2518 2.5295-1.0815 0.98897-0.89574 0.60544-1.0115 0.42484-1.0363 0.22404-1.1866 0.080859-1.1604 0.005776-1.7361-0.12274-1.2384-0.19034-2.0722-0.41532-2.5187-0.43081-1.6946-0.37739-1.3503-0.42504-3.2246-1.2197-0.99085-0.30419-0.93492-0.2358-1.5523-0.3118-0.72709-0.10262-0.80215-0.069355-1.242-0.018708-0.85801 0.056951-1.0789 0.18119-1.4404 0.51418-1.2363 0.78265-1.472 1.3116-0.76506 0.60844-0.36536 0.23355-0.77156 0.40873-2.8195 1.2526-0.7779 0.42277-0.72775 0.47435-2.0572 1.5628-0.92935 0.72891-1.0054 0.91213-0.80744 0.9358-2.2986 3.2135-1.8812 2.4188-0.81337 1.1069-1.5431 2.197-0.43971 0.82772-0.1565 0.42412-0.097263 0.40508-0.037944 0.31829 0.042982 0.77289 0.17681 0.75942 0.40425 1.3528 0.15584 0.78942 0.012837 0.74265-0.18486 0.83388-0.3474 0.86141-1.1887 2.4082-0.46135 1.187-0.21656 0.78552-0.19476 0.97287-0.099049 0.99142 0.041598 1.2396 0.17123 1.2308 0.38963 1.79 0.49783 1.7444 0.17749 0.97384 0.018676 0.45948-0.091668 0.87076-0.15992 0.65965-0.35658 1.0019-0.96332 2.3328-1.786 5.4945-0.45487 1.1562-0.39444 0.84784-0.66332 1.1347-1.0344 1.2846-1.1068 1.2128-1.0184 1.3321-0.6097 1.1489-0.49102 1.2871-0.45262 1.6867-0.3513 2.0065-0.18396 1.716-0.078761 1.3878-0.011243 1.4813 0.046219 1.1507 0.21851 2.2428 0.24502 1.5914 0.99443 4.9309 0.25767 2.135-0.028341 2.0941-0.17384 1.6763-0.2009 1.4104-0.31451 1.9561-0.29125 1.4375-0.42673 1.5644-0.99698 3.0778-0.39459 1.3724-0.23378 1.0579-0.151 0.92704-0.080054 0.9142 0.075614 1.7406 0.28569 1.9872 0.42092 2.1133 0.48382 1.899 0.16111 0.86618 0.067614 0.66013-0.05503 1.0978-0.37871 1.0732-0.61826 0.84133-0.67146 0.54299-0.76613 0.43654-0.85899 0.37246-0.9529 0.23151-1.5472-0.023439-1.7154-0.38821-1.1202-0.40253-1.1267-0.50979-1.4663-0.82625-1.3895-0.99412-1.1837-1.0877-0.67769-0.77384-0.65164-0.87424-0.57777-0.90706-0.84338-1.6375-2.5045-6.0544-0.53555-1.0618-0.87941-1.4124-1.016-1.3264-1.1234-1.2133-1.3337-1.1986-0.87901-0.68325-0.94114-0.64347-1.6767-1.0211-1.401-0.68114-1.549-0.50564-0.93493-0.20719-0.53182-0.064733-0.94668 0.021057-0.66788 0.12501-0.77252 0.31135-0.74096 0.75675-0.35664 1.072-0.12368 1.1625-0.056267 1.4568 0.060434 1.4428 0.099424 0.77222 0.22492 1.0774 0.28993 1.0795 0.39588 1.2753 0.43139 1.0767 0.68167 1.3401 1.0456 1.4549 2.5816 2.959 1.2577 1.6223 1.102 1.8132 0.72279 1.4657 0.62146 1.5025 0.59978 1.8026 0.41129 1.7683 0.16959 1.247 0.62562 5.8917 0.5617 2.806 0.072114 0.89343-0.10645 0.67995-0.27861 0.56637-1.0093 0.93862-1.5448 0.8429-1.9198 0.75837-2.1249 0.67422-2.1259 0.57846-3.219 0.80406-0.08877-0.04523-0.30368-0.36885-0.89377-1.294-1.3596-2.2813-1.879-3.3429-1.2548-2.0143-1.1923-1.7532-2.2369-2.9902-0.99553-1.2333-1.6916-1.9805-1.5964-1.7306-1.0283-1.0404-2.1882-2.005-2.0355-1.6709-4.1894-3.1549-1.4716-1.1605-0.58637-0.52247-0.7753-0.80096-0.36183-0.43518-0.28418-0.38652-0.83968-1.449-0.41742-0.91612-1.143-3.1409-0.45472-0.9207-0.68987-0.96647-0.82866-0.86252-0.5687-0.51436-1.1083-0.92762-1.1419-0.88375-2.2602-1.5242-4.6909-2.9414-1.0433-0.70271-0.57806-0.51184-0.07975-0.15096 0.018384-0.11806 0.40198-0.12193 0.78948 0.030872 2.2324 0.20462 1.3154 0.017733 2.0822-0.23891 1.9848-0.13107 0.56136-0.11302 0.56348-0.31849 0.4307-0.55722 0.25358-0.75181 0.04141-0.80506-0.1562-0.86525-0.36982-0.87573-0.47395-0.70232-0.60072-0.68612-1.2217-1.1518-2.5148-2.201-2.5147-2.4902-1.6723-1.7453-1.0001-1.0772-1.1521-1.3568-1.9865-2.8626-1.2226-1.6058-1.3614-1.5478-3.317-3.2955-0.9683-0.99925-1.033-1.169-0.74073-0.94646-2.1407-2.9008-1.8697-2.7916-0.74597-1.0324-2.3048-2.7397-0.80932-1.1335-0.73162-1.432-0.52484-1.5232-0.32722-1.7396-0.015211-1.1102 0.073169-0.87365 0.24917-1.5363 0.39479-1.6858 1.062-3.9971 0.36077-1.9445 0.093413-1.0295 0.002557-1.0352-0.049306-0.61084-0.20443-1.1365-0.33629-1.0907-0.54788-1.2426-0.44898-0.83093-0.78397-1.1938-0.87867-1.1534-2.0382-2.4918-0.73413-0.81051-2.8558-2.836-1.468-1.5234-2.3977-2.9651-2.6966-2.9698-0.5992-0.84867-0.43032-0.88275-0.27789-0.90878-0.11777-1.2461 0.041901-0.8414 0.93813-6.8602 0.44438-4.2972 0.1185-1.6313 0.15394-3.1478 0.049469-3.44-0.19708-7.6752-0.086232-1.7325-0.13652-1.7256-0.17644-1.519-0.24131-1.4967-0.50054-2.2414-0.51356-1.7849-0.61138-1.7261-0.71827-1.6441-0.66802-1.2518-0.3454-0.56762-0.87569-1.2802-0.73407-0.93388-0.50672-0.57441-1.1974-1.1688-3.0303-2.5869-1.0827-0.98477-1.2919-1.347-0.73051-0.91026-0.62004-0.86238-0.54982-0.87786-0.23695-0.43553-0.51886-1.1431-0.28204-0.84754-0.26984-1.1528-0.12116-1.0341-0.042649-1.0375 0.013687-1.2568 0.081811-0.929 0.11782-0.77159 0.62569-2.6728 0.6282-1.8488 0.71482-1.6177 0.64482-1.1362 0.89967-1.3287 3.4044-4.4014 2.099-2.8974 2.316-3.4886 1.4591-2.44 0.85939-1.641 1.5983-3.3222 2.5066-5.6439 0.5396-1.3647 1.1365-3.3325 0.7441 0.079845 1.0143 0.61288 1.0678 0.99837 0.92592 1.3029 0.52598 1.1702 0.37244 1.2764 0.24873 1.3028 0.17856 1.6801-0.043183 1.9859-0.2629 1.9912-0.40246 1.9245-0.9079 3.4172-0.15814 0.82822-0.084953 0.80221-0.004745 0.66044 0.2398 1.2542 0.6681 1.2353 0.77329 0.88955 1.2532 1.0303 1.3909 0.79473 1.4576 0.55929 1.633 0.50228 1.7696 0.42854 1.8882 0.3105 1.9608 0.19011 1.999 0.074749 2.7302-0.041425 2.1016-0.10222 2.0959-0.16826 2.0658-0.24547 2.6677-0.44248 2.0454-0.46999 3.843-0.99427 1.7902-0.41626 1.7637-0.35273 1.7187-0.26487 1.6527-0.14873 2.3797-0.005852 1.4912 0.12333 2.9779 0.51402 0.98403 0.071011 0.76655-0.014377 1.2877-0.16849 1.0293-0.26902 3.9963-1.2079 1.5437-0.40753 1.8445-0.41554 1.8153-0.21238 1.7648 0.15381 1.0164 0.3276 0.99759 0.48863 0.94131 0.58933 0.93404 0.6868 1.231 1.0268 2.4057 2.2505 6.3374 6.2692 1.2526 1.1642 1.0306 0.87903 1.0332 0.78895 0.79097 0.52851 0.72825 0.41703 0.84314 0.37867 1.138 0.31834 0.84577 0.10833 0.96199 0.025768 1.3353-0.08474 1.299-0.17223 1.2401-0.21915 2.6891-0.59444 2.8234-0.79886 2.2424-0.80851 1.3706-0.6032 1.0191-0.52089 1.0454-0.60009 2.73-1.6895 0.81582-0.41542 0.68658-0.26693 0.91548-0.24608 1.6756-0.11822 0.26294 0.012758 2.8806 0.36295 1.6511 0.16621 1.7597 0.095213 1.4104 0.001985 1.7995-0.12286 2.003-0.3295 1.7216-0.46592 1.744-0.68378 1.1674-0.59725 1.1066-0.66905 1.9188-1.391 1.0372-0.8768 0.98741-0.92339 1.0611-1.1015 0.97018-1.1214 0.96045-1.2256 0.88085-1.2344 0.47655-0.72579 0.31704-0.59586" stroke="#bdc660"/>
    </defs>
    <g clip-path="url(#p12fb9977e2)">
     <use y="266.525023" fill="#bdc660" stroke="#bdc660" xlink:href="#m3a107783d9"/>
    </g>
   </g>
  </g>
 </g>
 <defs>
  <clipPath id="p12fb9977e2">
   <rect x="7.2" y="7.2" width="357.12" height="252.13"/>
  </clipPath>
 </defs>
</svg>
