<?xml version="1.0" encoding="UTF-8"?>
<!DOCTYPE svg  PUBLIC '-//W3C//DTD SVG 1.1//EN'  'http://www.w3.org/Graphics/SVG/1.1/DTD/svg11.dtd'>
<svg width="348.55pt" height="280.51pt" version="1.1" viewBox="0 0 348.55 280.51" xmlns="http://www.w3.org/2000/svg" xmlns:xlink="http://www.w3.org/1999/xlink">
 <metadata>
  <rdf:RDF xmlns:cc="http://creativecommons.org/ns#" xmlns:dc="http://purl.org/dc/elements/1.1/" xmlns:rdf="http://www.w3.org/1999/02/22-rdf-syntax-ns#">
   <cc:Work>
    <dc:type rdf:resource="http://purl.org/dc/dcmitype/StillImage"/>
    <dc:date>2024-07-04T12:08:58.581932</dc:date>
    <dc:format>image/svg+xml</dc:format>
    <dc:creator>
     <cc:Agent>
      <dc:title>Matplotlib v3.7.1, https://matplotlib.org/</dc:title>
     </cc:Agent>
    </dc:creator>
   </cc:Work>
  </rdf:RDF>
 </metadata>
 <defs>
  <style type="text/css">*{stroke-linejoin: round; stroke-linecap: butt}</style>
 </defs>
 <g id="figure_1">
  <g id="patch_1">
   <path d="m0 280.51h348.55v-280.51h-348.55v280.51z" fill="none"/>
  </g>
  <g id="axes_1">
   <g id="PatchCollection_1">
    <defs>
     <path id="m17bd7a9407" d="m295.25-177.89-0.308-0.021169-0.74671 0.096575-1.7529 0.31027-1.6075 0.33776-2.1834 0.54053-2.2158 0.68374-0.9494 0.35436-0.46327 0.1915-1.9339 0.98401-1.517 1.1501-0.89592 1.1305-0.45834 1.1775 0.00207 1.1462 0.20732 0.59745 0.25104 0.44429 0.41857 0.54531 0.79748 0.77299 0.8528 0.64626 0.82026 0.51918 0.97549 0.52082 1.4911 0.62961 1.5605 0.47932 1.3821 0.29212 1.0742 0.15151 2.2485 0.14212 3.4488-0.003436 1.7036-0.042711 2.8423-0.23959 1.5965-0.30122 1.3919-0.47406 1.2778-0.58905 2.1819-1.1196 0.7856-0.28471 0.6151-0.082683 0.74556 0.10786 0.84257 0.55662 0.61893 0.93722 0.32829 1.2059 0.016508 1.1865-0.040421 0.45348-0.77281 4.2077-0.11687 1.1485-0.057734 1.7845 0.15387 1.8039 0.15923 1.0201 0.29944 1.3676 0.55361 1.9891 3.0427 9.6423 0.68636 1.8724 0.7977 1.8401 1.0308 1.7874 1.2124 1.7001 1.3157 1.6214 3.4797 3.9797 0.84221 1.1659 0.81061 1.679 0.22143 0.69536 0.27746 1.3545 0.10824 1.7949-0.09877 1.4069-0.20297 1.1124-0.42893 1.2463-0.6833 1.1391-0.76175 0.90671-1.1747 1.1243-2.3845 2.0877-1.0595 1.0033-0.90979 1.0495-0.66188 1.1281-0.35178 1.3226-0.034789 1.3897 0.2017 1.3954 0.85971 3.2445 0.26256 1.5 0.10147 1.0497 0.033009 1.0454-0.047876 2.6542 0.022284 1.6851 0.086291 1.1293 0.14791 1.0755 0.23094 1.1644 0.28165 1.124 0.9195 3.0792 0.50675 1.9291 1.0554 6.305 0.39098 1.615 0.53247 1.5481 0.77795 1.5987 1.9785 3.4216 0.95844 2.0774 0.66103 2.2664 0.24889 2.2887-0.066931 2.432-0.3352 2.6393-0.54355 2.7109-0.69418 2.7263-0.78693 2.6641-0.81346 2.4894-1.5408 4.315-0.90967-0.38218-1.8633-0.61835-2.4532-0.73165-5.7737-1.536-6.1062-1.4112-3.0101-0.60521-2.9288-0.5097-2.8156-0.38646-2.669-0.22691-2.4831-0.019536-2.2471 0.25047-1.6939 0.47537-0.80966 0.35603-0.89563 0.56304-1.1209 1.1888-0.74637 1.4395-0.39241 1.5773-0.08027 1.238 0.059342 2.0276 0.13022 1.5955 0.59378 4.3804 0.18426 2.201 0.009267 0.64733-0.057278 1.1917-0.1706 1.1448-0.46978 1.5267-0.72577 1.3433-0.973 1.1-0.99816 0.6955-1.1295 0.50676-0.40606 0.13353-1.1791 0.26708-1.2359 0.088659-1.8622-0.2179-1.9244-0.53713-1.9638-0.74853-5.959-2.6427-1.9626-0.75693-1.9288-0.56834-1.9056-0.34464-2.3194-0.32207-1.213-0.23332-1.2148-0.34972-1.2506-0.53194-1.2465-0.69237-1.2343-0.82095-1.2314-0.9294-1.3542-1.1236-1.3532-1.2074-2.844-2.7287-6.8452-6.8931-2.7204-2.6649-2.3432-2.129-1.5289-1.2311-1.5826-1.0783-1.432-0.75735-1.486-0.51509-1.0728-0.16047-1.3732 0.089315-1.8723 0.56533-1.0763 0.50643-1.077 0.60996-1.589 1.0486-1.0482 0.7727-1.0401 0.82162-1.7378 1.481-1.6936 1.5575-2.3738 2.3281-1.0842 1.1263-2.0972 2.314-1.0574 1.0677-1.6455 1.5013-1.5921 1.3242-1.6162 1.2336-1.6299 1.1312-2.0038 1.2342-2.607 1.3551-1.4899 0.68049-1.6164 0.66842-1.7552 0.63849-1.4699 0.45651-1.444 0.38085-1.5288 0.3402-6.865 1.2515-2.2831 0.49655-1.1338 0.29289-3.0987 0.94011-1.7909 0.48994-4.2552 1.064-1.9076 0.57839-1.4789 0.56333-3.284 1.5366-1.3639 0.56907-1.1709 0.3708-1.136 0.20326-1.2027-0.007511-1.1312-0.22072-1.3836-0.53183-2.4924-1.2057-0.97723-0.41239-1.0232-0.33923-1.605-0.4073-1.7272-0.29923-1.8789-0.18536-4.1604-0.15315-3.5999-0.25822-1.6236-0.20626-1.1327-0.2847-1.2404-0.48735-4.2278-2.0601-5.0228-2.5583-4.5632-2.4635-3.6911-1.7156-1.5267-0.76403-1.5279-0.67587-0.93086-0.29326-0.95399-0.20615-0.85858-0.11538-5.3855-0.32111-0.95887-0.072134-0.92131-0.14166-1.1121-0.33277-1.0291-0.47734-0.66146-0.39489-2.3531-1.5888-1.4151-0.73742-1.325-0.46741-2.4865-0.71271-1.4421-0.66317-1.5005-1.1059-1.4422-1.4582-1.3862-1.7252-1.2123-1.7334-3.6628-5.6298-1.6886-2.31-1.7683-2.0604-1.6887-1.7169-1.7464-1.5829-1.7691-1.4277-1.9087-1.3348-1.8478-1.0436-1.7342-0.65791-1.5582-0.14246-1.1895 0.39502-0.98686 0.78389-0.49751 0.59983-0.47542 0.67844-1.7062 2.5936-1.4677 2.3501-0.89058 1.2871-1.0127 1.2144-1.1544 1.0733-0.81819 0.58574-1.4764 0.86103-1.5892 0.80903-4.1568 2.0807-1.7053 0.77712-1.1464 0.43865-2.1352 0.58109-1.5873 0.2865-1.6125 0.11342-2.0633-0.17876-2.1097-0.43846-1.6139-0.44462-2.3374-0.87552-1.2059-0.56405-1.1435-0.60551-1.0458-0.62532-1.6633-1.1842-0.77783-0.63979-0.50283-0.51133 0.6487-0.048433 0.73996-0.12909 2.1565-0.52167 1.588-0.54877 0.69599-0.31265 1.3359-0.8545 0.71892-0.71744 0.58742-0.83286 0.68258-1.4889 0.47883-1.486 1.0188-3.7855 0.63844-2.2106 0.43386-1.3116 0.83772-2.0735 2.7677-5.9163 0.68685-1.865 0.43157-1.6989 0.98359-4.3637 0.22235-1.4464 0.067384-1.4601-0.15832-1.4617-0.55097-1.7398-0.86394-1.7363-1.0723-1.744-3.0654-4.4998-3.3956-5.1-2.8967-4.1226-0.56665-1.0953-0.33543-1.0846-0.058184-1.025 0.17384-0.73839 0.59757-1.0875 1.9658-2.6095 0.79354-1.1214 1.2817-2.0666 0.95983-1.9401 0.4178-1.0457 0.65123-1.8624 0.58723-2.0616 0.30836-1.2524 0.94687-4.4238 0.89288-3.0684 0.55944-2.139 0.83856-3.9587 2.227-9.6308 0.35724-2.0639 0.071108-1.3129-0.092595-0.93424-0.24157-0.37372 1.7249 0.17174 4.7255 0.2717 3.6137 0.12132 3.3795 0.040758 4.0618-0.047052 5.575-0.14325 12.127-0.47936 3.1194-0.055994 2.3514 0.011172 2.865 0.10878 2.8209 0.26744 1.3913 0.21698 1.3111 0.27525 1.7109 0.50732 1.4667 0.66294 1.3565 0.95818 1.1268 1.0111 1.0564 0.87405 0.5201 0.31917 1.7413 0.74949 1.027 0.49496 1.3807 0.83604 0.91211 0.6618 1.0329 0.90953 0.90242 1.0066 1.7806 2.1834 1.1449 1.1985 2.3984 2.3766 1.0752 1.2637 0.86736 1.3762 0.44502 1.0604 0.33297 1.1205 0.80952 3.7306 0.23151 0.8034 0.30039 0.83093 0.91415 1.7983 1.2007 1.7297 1.417 1.647 1.577 1.5424 1.692 1.4061 1.7708 1.2257 1.8203 0.98596 1.8452 0.6679 1.8488 0.2484 1.7987-0.23635 1.7883-0.60534 1.7833-0.84086 3.5753-1.9332 1.8056-0.88661 6.0259-2.4554 1.7687-0.78928 1.4317-0.80406 1.6318-1.0994 1.1534-0.88318 1.6393-1.4 2.4768-2.3607 5.0983-5.1311 1.7747-1.6036 1.5652-1.2074 1.4841-0.96435 1.5294-0.83307 1.561-0.69198 0.669-0.24817 1.4095-0.4394 1.4192-0.36916 4.6165-0.95814 1.455-0.24962 2.9983-0.41039 1.7531-0.37284 0.6804-0.21713 0.68951-0.28839 0.46142-0.24915 0.60504-0.42514 0.66774-0.64725 0.41135-0.5169 0.36522-0.5747 0.59419-1.2997 0.33308-1.4176-0.019003-1.4863-0.063966-0.34017-0.34841-1.0532-0.63813-1.1775-0.53039-0.75695-0.59733-0.74225-0.75155-0.83636-1.5841-1.5678-2.7881-2.4688-6.1285-5.1663-2.3778-2.2453-1.2103-1.3455-0.7714-1.0326-0.50814-0.86081-0.24612-0.55452-0.21447-0.75904-0.038843-1.2339 0.25069-1.1722 0.59025-1.4145 0.56169-0.9869 1.3024-1.8551 1.5354-1.8709 5.0978-5.7014 1.6074-1.939 1.4346-1.969 0.76045-1.2037 1.7122-2.9103 1.5647-2.8312 0.73155-1.5435 0.6845-1.6118 4.478-11.013 0.49607-1.3277 0.91974-2.7452 0.30864-1.0659 0.49156-2.1343 0.17461-1.5628 0.025176-1.6145-0.1198-1.7283-0.11221-0.8673-0.26327-1.4959-0.51192-2.2335-0.65067-2.4071-0.58748-1.9374-1.0593-3.1247-1.6905-4.3335-2.7789-6.4176-3.3478-8.053-1.0735-2.3212-0.7805-1.5178 0.11893-0.26108 0.43908-0.35245 0.87019-0.46348 1.1257-0.43838 0.9514-0.28214 1.0108-0.22689 1.1207-0.17171 0.8685-0.077239 0.6594-0.025633 1.8079 0.07148 1.7555 0.25522 1.6523 0.40601 3.4751 1.2106 1.967 0.56799 0.54513 0.11729 1.7128 0.24069 1.6575 0.18931 1.5967 0.35026 1.6662 0.75152 1.2996 0.87199 1.1131 0.95095 0.98359 1.0339 1.6734 2.1061 1.0634 1.1186 0.46834 0.42598 1.5121 1.2018 2.4603 1.6587 0.96231 0.70617 2.3066 1.9751 1.3418 1.0719 1.4683 1.0288 1.551 0.94211 0.99889 0.52272 0.48795 0.22626 1.5484 0.57795 1.5499 0.31831 1.5285-0.02738 1.218-0.3301 1.1844-0.57498 1.0291-0.68528 0.99452-0.81648 1.5566-1.57 1.3072-1.6035 1.3533-1.9992 2.0545-3.3432 1.0329-1.4744 0.84235-0.90794 0.98799-0.70325 1.0404-0.45892 0.80324-0.24141 1.2544-0.26579 1.9114-0.24402 1.4425-0.090605 1.4625-0.023213 1.7525 0.068983 1.7933 0.23211 1.4914 0.34461 1.4313 0.41133 1.6787 0.52418 1.5004 0.56899 1.3262 0.73014 0.87994 0.75621 0.25545 0.28212 0.5521 0.7619 0.41124 0.83136 0.25213 0.9135 0.056191 0.43905-0.03447 1.2141-0.26877 1.2044-0.45678 1.1497-0.33524 0.62999-0.90747 1.3632-0.64936 0.76218-1.2368 1.1955-0.72335 0.53179-0.76024 0.44684-2.9518 1.2701-3.5452 1.7109-1.1784 0.71001-0.58613 0.48081-0.82063 0.76729-0.59582 0.57983-0.48158 0.64986-0.32064 0.95393 0.027301 1.1238 0.37718 1.0609 0.6025 0.97582 0.67954 0.81086 0.48016 0.47683 0.74005 0.63517 0.62867 0.4661 0.86704 0.55021 0.64932 0.35097 1.6381 0.72595 1.7592 0.55772 1.8495 0.34118 1.6348 0.096781 2.403-0.055614 3.1049-0.23269 2.2754-0.2778 4.7039-0.68736 1.6913-0.096951 1.0519 0.10114 0.42677 0.10482 0.88078 0.4105 0.97058 1.0592 0.57944 1.4956 0.124 0.67059 0.07866 0.81454-0.00961 1.8658-0.18377 2.0835-0.76312 6.0989-0.25682 2.4039-0.27932 3.4264-0.20176 3.3736-0.039191 2.603 0.15313 2.5127 0.44564 2.3716 0.86298 2.1653 0.8295 1.2512 1.0275 1.1519 1.1616 1.0441 1.2902 0.98143 1.6109 1.0742 4.6895 2.8083 2.3857 1.4981 1.5682 1.1059 1.5706 1.2904 0.53784 0.52065 0.80421 0.94415 0.42003 0.76569-0.084409 0.48421" stroke="#bdc660"/>
    </defs>
    <g clip-path="url(#pcf3bc3836e)">
     <use y="280.512" fill="#bdc660" stroke="#bdc660" xlink:href="#m17bd7a9407"/>
    </g>
   </g>
  </g>
 </g>
 <defs>
  <clipPath id="pcf3bc3836e">
   <rect x="7.2" y="7.2" width="334.15" height="266.11"/>
  </clipPath>
 </defs>
</svg>
