<?xml version="1.0" encoding="UTF-8"?>
<!DOCTYPE svg  PUBLIC '-//W3C//DTD SVG 1.1//EN'  'http://www.w3.org/Graphics/SVG/1.1/DTD/svg11.dtd'>
<svg width="237.94pt" height="280.51pt" version="1.1" viewBox="0 0 237.94 280.51" xmlns="http://www.w3.org/2000/svg" xmlns:xlink="http://www.w3.org/1999/xlink">
 <metadata>
  <rdf:RDF xmlns:cc="http://creativecommons.org/ns#" xmlns:dc="http://purl.org/dc/elements/1.1/" xmlns:rdf="http://www.w3.org/1999/02/22-rdf-syntax-ns#">
   <cc:Work>
    <dc:type rdf:resource="http://purl.org/dc/dcmitype/StillImage"/>
    <dc:date>2024-07-04T12:09:03.036188</dc:date>
    <dc:format>image/svg+xml</dc:format>
    <dc:creator>
     <cc:Agent>
      <dc:title>Matplotlib v3.7.1, https://matplotlib.org/</dc:title>
     </cc:Agent>
    </dc:creator>
   </cc:Work>
  </rdf:RDF>
 </metadata>
 <defs>
  <style type="text/css">*{stroke-linejoin: round; stroke-linecap: butt}</style>
 </defs>
 <g id="figure_1">
  <g id="patch_1">
   <path d="m-0 280.51h237.94v-280.51h-237.94v280.51z" fill="none"/>
  </g>
  <g id="axes_1">
   <g id="PatchCollection_1">
    <defs>
     <path id="m923d3efe70" d="m212.4-135.66-0.014106 0.90199 0.022201 0.99814 0.11746 1.3685 0.22551 1.2965 0.15119 0.58709 0.27927 0.82271 0.22981 0.54084 0.2602 0.51913 0.32848 0.55567 0.36054 0.52719 0.41932 0.54335 1.4216 1.6933 0.2517 0.3368 0.36662 0.57412 0.34224 0.73619 0.26929 0.89269 0.19003 1.0086 0.30186 2.6134 0.17756 1.2782 0.5203 2.8898 0.565 2.6243 0.16617 1.1299 0.054031 0.88552 0.009156 0.61357-0.061852 3.5292 0.048191 1.2143 0.064691 0.64065 0.098059 0.63621 0.15303 0.71467 0.86528 3.2111-0.009231 0.30514-0.14378 0.74695-0.26183 1.0259-0.37403 1.1876-0.48647 1.2651-0.65437 1.39-0.70592 1.2674-0.6026 0.95728-0.9164 1.2877-0.57133 0.71056-0.59424 0.68548-3.2144 3.4098-0.79169 0.90515-0.84607 1.0557-2.0885 2.7731-0.5119 0.6263-1.0448 1.137-1.1233 1.0309-1.2027 0.90377-0.4611 0.29303-1.2296 0.65274-0.33822 0.15549-0.97402 0.40843-1.5357 0.55493-1.644 0.50949-0.75459 0.20402-1.0713 0.24706-0.96602 0.17054-1.2319 0.13686-0.91644 0.022458-1.3577-0.060247-0.84897-0.097984-3.2077-0.60598-0.78633-0.12684-1.0906-0.077415-0.82978 0.013252-0.58788 0.040475-0.81254 0.10611-2.5409 0.56003-0.91319 0.15536-0.68627 0.083259-1.1957 0.068496-0.83427-0.00933-1.1478-0.097751-0.55937-0.085036-1.5543-0.29853-2.6196-0.54904-1.0297-0.19958-1.0394-0.16811-1.0229-0.11726-0.81508-0.057301-1.339-0.017466-0.82626 0.048049-0.88918 0.11267-1.1106 0.23668-0.77858 0.23078-0.92433 0.34909-0.9227 0.44431-0.58296 0.32591-0.66952 0.41713-0.65147 0.45041-0.58055 0.43965-1.1591 0.99876-0.41492 0.40321-0.65083 0.69542-0.8653 1.0768-0.67094 0.99411-0.55993 0.95182-0.3622 0.69794-0.27663 0.60925-0.37993 1.047-0.13144 0.4846-0.16175 0.84418-0.093138 0.8332-0.042425 0.78234-0.007445 0.76516 0.028403 0.94701 0.060973 0.95871 0.29594 2.8575 0.70769 5.579 0.29334 2.7608 0.17052 2.3052 0.037807 1.0789-0.001412 1.3179-0.030003 0.81924-0.093128 1.2643-0.12239 1.1225-0.15308 1.0007-0.17775 0.85451-0.22348 0.83225-0.33321 0.963-0.49291 1.0937-0.26513 0.4864-0.39844 0.63351-0.39248 0.52882-0.43051 0.48583-0.5375 0.48114-0.45051 0.30642-0.80103 0.37253-0.72461 0.21716-0.41073 0.089432-1.0588 0.15974-1.201 0.106-8.6883 0.377-3.1671 0.23518-1.967 0.25199-1.1184 0.20845-0.97264 0.23079-0.73629 0.20935-0.79355 0.26386-1.1581 0.4625-1.1277 0.51855-1.7153 0.84999-4.8403 2.5377-0.68345 0.41676-0.66198 0.45443-1.1163 0.91597-0.54227 0.53781-0.57113 0.65783-0.68556 0.94762-0.54269 0.91798-0.2549 0.52183-0.1519 0.38872-0.027736 0.23058-0.17547-0.22843-2.4509-4.2004-0.75795-1.1966-0.81428-1.1606-0.87425-1.0756-0.76128-0.79189-0.69292-0.63447-0.71493-0.58934-0.84676-0.62854-0.85616-0.56992-0.83608-0.49697-0.83275-0.4304-0.97381-0.41431-0.94419-0.32345-0.60405-0.1713-0.89096-0.18876-0.35374-0.043608-0.56888-0.011742-0.81115 0.12646-0.4042 0.12569-1.2771 0.5098-0.87614 0.40964-0.79665 0.45042-0.63932 0.42425-0.50575 0.40548-2.4378 2.1001-0.85967 0.61322-0.76149 0.40826-0.85083 0.32629-0.90073 0.26232-2.8367 0.74322-0.8758 0.22201-0.99158 0.21372-0.88744 0.1392-0.64915 0.063177-1.5666 0.038238-1.301-0.062478-1.3171-0.12606-1.3287-0.17061-2.9484-0.46463-4.2744-0.74364-1.4215-0.2244-3.8811-0.49124-1.2136-0.18852-1.1947-0.26628-1.2351-0.3983-0.81464-0.32656-0.808-0.36768-0.98152-0.49934-0.97426-0.54762-1.2933-0.80009-1.2826-0.86992-1.0069-0.73567-1.2779-1.0001-1.2709-1.0552-2.5365-2.2328-2.5183-2.3223-5.0697-4.8122-0.27495-0.22172-0.027205-0.4378 0.25614-0.68342 0.48392-0.78325 0.68971-0.75956 0.94351-0.69473 0.94073-0.51367 3.6116-1.6968 2.6207-1.0891 0.84913-0.43383 0.84166-0.56112 0.44003-0.37772 0.61232-0.62624 1.3834-1.5263 0.22871-0.21661 0.70035-0.59479 0.90304-0.67331 0.81003-0.53781 0.92753-0.52707 0.7497-0.34408 3.0229-1.2109 0.87157-0.4265 0.35546-0.22152 0.41164-0.35992 0.20167-0.29007 0.15028-0.43302 0.032393-0.23461 0.012335-0.57314-0.016729-0.68652-0.045111-0.43316-0.080796-0.39199-0.31794-1.0396-0.18352-0.51234-0.25231-0.52044-0.61321-0.83845-2.7694-3.102-0.52436-0.76007-0.37544-0.80678-0.19037-0.5874-0.16261-0.72818-0.088723-0.83517 0.017421-0.80578 0.080873-0.69775 0.23738-1.1795 0.66441-2.5737 0.14591-0.76129 0.11703-1.0059 0.029439-1.3523-0.067295-0.95335-0.14703-0.97283-0.3322-1.3421-0.31056-0.90773-0.58415-1.3197-0.52163-0.92402-0.69377-1.0567-1.4973-2.1286-0.66224-0.97996-0.64474-1.027-0.75451-1.3705-0.30453-0.66058-0.24388-0.62902-0.22376-0.76276-0.12266-0.74989-0.017547-0.49941 0.025586-0.46802 0.089409-0.66859 0.33084-1.8171 0.056724-0.66417-0.018288-0.67497-0.083838-0.67411-0.17924-0.83009-0.31362-0.88794-0.20078-0.40482-0.38567-0.63314-0.40339-0.53561-0.39763-0.43609-0.408-0.38083-0.59556-0.47469-0.93185-0.55499-1.0157-0.36325-1.0727-0.10585-0.78552 0.11062-0.78928 0.24326-0.85614 0.37994-0.82434 0.45262-1.7806 1.1432-0.32198 0.19823-0.20226 0.090799 0.033555-0.16216 0.88478-2.4778 0.46711-1.4295 0.45188-1.5298 0.39861-1.5655 0.31212-1.5567 0.19248-1.5156 0.038433-1.3965-0.14292-1.3142-0.37958-1.3014-0.55036-1.1929-1.1361-1.9648-0.44672-0.91802-0.30576-0.88894-0.22451-0.9274-0.60603-3.6205-0.29099-1.1077-0.528-1.7682-0.16173-0.64545-0.13261-0.66862-0.084932-0.61756-0.049551-0.6485-0.012796-0.96762 0.027491-1.5241-0.018954-0.60028-0.058268-0.60278-0.15077-0.86136-0.49367-1.8631-0.11582-0.80125 0.019976-0.79801 0.202-0.75947 0.38007-0.64776 0.52242-0.60265 0.60841-0.57611 1.3692-1.1988 0.67457-0.64562 0.43742-0.52066 0.39237-0.65411 0.2463-0.71565 0.11655-0.63878 0.056717-0.80785-0.062156-1.0307-0.15932-0.77776-0.12715-0.39929-0.46547-0.96414-0.48362-0.6695-1.9981-2.2852-0.75548-0.93102-0.69621-0.97622-0.59193-1.0263-0.45806-1.0566-0.39413-1.0752-1.7472-5.5369-0.3179-1.1422-0.17194-0.78531-0.091432-0.58574-0.088357-1.0358 0.033152-1.0247 0.067109-0.65952 0.44377-2.4162 0.02321-0.2604-0.009479-0.68131-0.18852-0.69244-0.35541-0.53818-0.48383-0.31962-0.42812-0.061937-0.35321 0.047479-0.45112 0.16349-1.2529 0.64291-0.73376 0.33825-0.79926 0.27222-0.91677 0.17297-1.6321 0.13758-0.97823 0.024526-1.9804 0.001973-1.2911-0.08161-0.61684-0.087003-0.79366-0.16774-0.89606-0.27524-0.85625-0.36154-0.56015-0.29907-0.47101-0.29812-0.4897-0.3711-0.45794-0.44387-0.24035-0.31313-0.14415-0.25512-0.11904-0.34307-0.001189-0.65819 0.26319-0.67618 0.51446-0.64918 0.87113-0.66043 1.1105-0.56504 0.26602-0.10996 0.54517-0.20348 1.2724-0.39262 1.2538-0.31038 0.92308-0.19395 1.0065-0.17816 0.42878-0.055456 0.17686 0.012156 0.18551-0.017148 0.58179-0.20412 0.66664-0.28821 0.88884-0.4389 1.3877-0.77435 0.77315-0.47772 0.71008-0.47648 0.89415-0.66041 0.43784-0.35649 1.0289-0.94399 0.62704-0.66294 0.87455-1.0904 0.45885-0.68282 0.31364-0.52468 0.35248-0.66595 0.46212-1.0728 0.1807-0.54495 0.22075-0.8893 0.12088-0.69076 0.094448-0.76197 0.15698-2.1451 0.12165-1.0642 0.25046-1.11 0.39445-1.049 0.55352-0.95991 0.57078-0.69639 0.65696-0.6426 0.8816-0.74361 1.2283-0.94773 1.2196-1.0023 0.74666-0.74782 0.48831-0.57283 0.30563-0.40327 0.73461-1.1558 0.90897-1.7398 0.91503-1.9519 0.33594-0.79412 0.48949-1.3004 0.36287-1.1546 0.24584-0.93951 0.21094-0.95109 0.27899-1.5606 0.24864-1.9784 0.060989-0.81077 0.026672-0.70386-0.006961-0.96914-0.05413-0.97055-0.15338-1.4094-0.17489-1.1147-0.21247-1.1101-0.63861-2.773-1.6606-6.6418-0.18625-0.96445-0.04947-0.40251-0.024718-0.37157 0.019536-0.68212 0.071509-0.47671 0.13117-0.48862 0.24011-0.56557 0.21814-0.36393 0.35358-0.43722 0.34132-0.31894 0.35419-0.26508 0.50419-0.29856 0.47615-0.23214 5.1458-2.0984 1.8757-0.73575 2.415-0.86311 2.4505-0.79927 1.4602-0.43864 2.4414-0.68324 1.9347-0.48594 0.73804-0.15105 1.2193-0.18464 0.90572-0.055777 0.4814 0.011805 0.49355 0.047067 0.52486 0.086311 0.74866 0.19785 1.4027 0.48709 0.68706 0.17606 0.70832 0.043439 0.69459-0.14765 0.64563-0.30261 0.3763-0.25008 0.65333-0.56321 0.43812-0.449 2.7392-3.0411 0.93762-0.95893 0.91286-0.85461 0.88955-0.76364 1.0227-0.79516 1.1136-0.75182 0.89578-0.52878 1.2369-0.65349 1.2833-0.57746 1.2805-0.4439 1.4698-0.39447 1.2331-0.27313 1.6124-0.30454 2.6721-0.43184 1.7617-0.25472 2.1116-0.26872 0.15298 0.043656 0.48973 0.2372 2.8493 1.503 0.86268 0.4039 1.5929 0.67673 1.0393 0.41131 1.6937 0.61539 1.1655 0.36163 1.1457 0.25828 0.91706 0.10367 0.91959 0.025111 0.88189-0.028992 2.3424-0.17296 3.2068-0.12828 2.0752-0.12197 1.3514-0.042717 0.74266 0.01012 0.70056 0.061314 0.71091 0.14885 0.47657 0.15158 0.80604 0.32751 1.9003 0.83231 2.1726 1.0215 1.2691 0.64533 1.1801 0.67443 0.86973 0.582 0.89081 0.70166 1.0166 0.8615 2.7432 2.415 0.80099 0.66401 0.81406 0.62103 1.221 0.86037 2.5377 1.6834 0.66951 0.40146 2.3627 1.2242 1.0429 0.63468 0.87932 0.64644 0.48675 0.41532 0.44206 0.41783 0.5064 0.53152 0.35182 0.41018 0.4768 0.63585 0.47664 0.79994 0.27993 0.64172 0.20963 0.75554 0.083744 0.76731-0.027793 0.78664-0.12562 0.71393-0.27811 0.91979-0.28394 0.71918-2.3849 5.1559-0.3974 0.70441-0.7512 1.1106-2.1405 2.7047-0.56419 0.87728-0.25579 0.53701-0.17379 0.55106-0.062498 0.36991-0.026094 0.48058 0.012649 0.33924 0.088117 0.69162 0.24197 1.0665 0.6732 2.5338 0.38271 1.7634 0.38332 2.0266 0.24805 1.0832 0.33398 1.0424 0.40732 1.0202 0.92035 1.9751 0.54268 1.0627 0.36314 0.61048 0.40289 0.60646 0.51326 0.70397 1.0468 1.2964 1.3746 1.5601 0.89334 0.95957 1.5488 1.561 1.7293 1.5718 4.6327 3.8225 3.162 2.7476 1.1782 0.98677 1.0135 0.78921 2.5311 1.8756 1.2327 0.98292 0.96849 0.83387 1.1458 1.0692 0.94396 0.948 0.82116 0.87284 0.6784 0.76799 0.64751 0.79096 0.84716 1.1524 0.7856 1.1925 0.73465 1.2197 0.69031 1.2362 0.64884 1.2435 0.6067 1.2426 0.56033 1.234 0.68664 1.6759 0.30275 0.92057 0.26197 0.94957 0.84048 3.5959 0.34128 1.3125 0.27471 0.93817 0.63972 1.9273 0.36662 0.98536 0.40505 1.0012 0.5894 1.3099 0.87859 1.7178 2.0177 3.603 1.9271 3.569 0.77111 1.2785 0.30992 0.45707 0.5082 0.69201 0.55907 0.67925 0.61649 0.62254 0.98412 0.74638 0.67343 0.40747 0.7159 0.38097 1.3335 0.62718 0.97159 0.41699 2.7774 1.1354 2.3486 1.0024 2.3788 1.0964 2.6038 1.2838 2.1362 1.1309 1.7935 1.0378 0.30652 0.25195" stroke="#bdc660"/>
    </defs>
    <g clip-path="url(#p3c09e0bb0c)">
     <use y="280.512" fill="#bdc660" stroke="#bdc660" xlink:href="#m923d3efe70"/>
    </g>
   </g>
  </g>
 </g>
 <defs>
  <clipPath id="p3c09e0bb0c">
   <rect x="7.2" y="7.2" width="223.54" height="266.11"/>
  </clipPath>
 </defs>
</svg>
