<?xml version="1.0" encoding="UTF-8"?>
<!DOCTYPE svg  PUBLIC '-//W3C//DTD SVG 1.1//EN'  'http://www.w3.org/Graphics/SVG/1.1/DTD/svg11.dtd'>
<svg width="190.34pt" height="280.51pt" version="1.1" viewBox="0 0 190.34 280.51" xmlns="http://www.w3.org/2000/svg" xmlns:xlink="http://www.w3.org/1999/xlink">
 <metadata>
  <rdf:RDF xmlns:cc="http://creativecommons.org/ns#" xmlns:dc="http://purl.org/dc/elements/1.1/" xmlns:rdf="http://www.w3.org/1999/02/22-rdf-syntax-ns#">
   <cc:Work>
    <dc:type rdf:resource="http://purl.org/dc/dcmitype/StillImage"/>
    <dc:date>2024-07-04T12:08:53.133519</dc:date>
    <dc:format>image/svg+xml</dc:format>
    <dc:creator>
     <cc:Agent>
      <dc:title>Matplotlib v3.7.1, https://matplotlib.org/</dc:title>
     </cc:Agent>
    </dc:creator>
   </cc:Work>
  </rdf:RDF>
 </metadata>
 <defs>
  <style type="text/css">*{stroke-linejoin: round; stroke-linecap: butt}</style>
 </defs>
 <g id="figure_1">
  <g id="patch_1">
   <path d="m0 280.51h190.34v-280.51h-190.34v280.51z" fill="none"/>
  </g>
  <g id="axes_1">
   <g id="PatchCollection_1">
    <defs>
     <path id="m94d0871940" d="m80.807-260.56-0.033812 0.213 0.10708 0.20266 0.26925 0.31464 1.0679 0.88206 1.2768 0.79753 3.7414 1.9483 1.0447 0.65426 1.1454 0.82729 1.393 1.231 1.1974 1.3143 0.92708 1.1801 1.2137 1.7002 1.4221 2.1761 0.80031 1.3456 0.71829 1.3381 0.479 1.0145 0.40297 1.006 0.35792 1.196 0.18099 1.1906-0.030843 1.2212-0.21464 1.2199-0.35267 1.2145-0.36648 0.97171-0.39755 0.85196-0.4595 0.84464-0.85634 1.3721-3.0768 4.2865-1.0392 1.5169-0.92207 1.5354-0.72674 1.5344-0.33341 0.9901-0.2151 1.0194-0.094116 0.85069-0.012518 0.97703 0.10607 1.1367 0.21373 1.1498 0.60732 2.1347 0.89044 2.3903 1.4249 3.5059 1.7252 4.6242 0.93569 2.2037 0.51037 1.0647 1.1041 1.9807 0.60001 0.90734 1.0632 1.3706 1.2915 1.3666 1.3151 1.1454 1.7647 1.2238 1.0566 0.58426 1.0986 0.50095 1.4054 0.49027 1.5427 0.35174 1.4505 0.17121 1.0463 0.044425 1.5377-0.018352 3.5017-0.19849-0.19819 0.21363-0.45711 0.75729-0.62856 1.1839-0.63604 1.3417-0.5726 1.3804-0.56634 1.6247-0.41486 1.4586-0.34175 1.4986-0.42584 2.8062-0.14206 2.0567 0.002262 1.9961 0.14505 1.887 0.2581 1.5731 0.34871 1.2926 0.78924 1.7703 1.1845 1.8034 1.0844 1.346 2.7513 3.0769 0.87398 1.0642 0.66577 1.0012 0.53614 1.0827 0.48596 1.6112 0.24257 1.6979 0.057552 1.1276 0.027932 2.4992 0.092064 1.3223 0.11972 0.85958 0.39029 1.6702 0.33238 0.94252 0.46482 0.95956 0.73217 1.1169 0.76536 0.90174 1.3306 1.222 0.80456 0.61368 1.0253 0.657 1.5568 0.78225 1.8763 0.76584 2.9442 1.0535 7.3903 2.4324 4.7675 1.6494 2.1533 0.67556 3.7886 1.0686 1.3949 0.47361 1.3533 0.56688 0.97949 0.50512 0.98356 0.61056 1.3173 0.98915 1.2473 1.115 1.6378 1.7152 1.2664 1.5077 1.9741 2.6417 1.0915 1.6024 1.0734 1.6865 0.89132 1.5137 0.84208 1.5652 0.73234 1.5091 0.79627 1.8529 2.3356 5.7845 0.70617 1.9277 1.727 5.4152 0.61828 2.3801 0.32592 1.6592 0.36774 2.6244 0.22931 3.087 0.032887 2.5491-0.07331 2.4908-0.11455 1.9743-0.3474 3.9417-0.48171 4.0245-1.2103 8.9133-0.29365 3.0282-0.11632 2.0804-0.044219 2.5877 0.12151 3.9162 0.56649 6.6232 0.06951 1.3382-0.009566 1.6601-0.11322 1.4405-0.18193 1.2524-0.20762 1.0186-0.37288 1.4326-0.71384 2.1475-0.72961 1.8248-1.2091 2.6375-1.7071 3.3621-0.95288 1.5349-0.46722 0.56872-0.28653 0.18654-1.8351 0.86121-1.4843 0.58981-1.9896 0.64864-2.2315 0.61926-10.546 2.6784-4.8482 1.0531-2.3987 0.42542-3.3392 0.4451-2.0354 0.16582-2.9418 0.10328-10.92 0.019702-4.7324-0.071532-4.4988-0.19189-1.9173-0.19139-1.7515-0.3093-1.5107-0.41329-3.777-1.2328-1.5649-0.43196-1.6278-0.32762-1.8358-0.18884-1.9085 0.011949-4.8953 0.4508-2.3126 0.10088-2.9841-0.053298-5.3421-0.29873-2.4213-0.023808-2.0348 0.087487-2.0484 0.19869-1.9817 0.30599-1.3574 0.27698-2.7055 0.71843-5.852 1.954-1.8193 0.47309-1.1863 0.25064-1.5796 0.2563-1.6374 0.12354-1.4977-0.078706-1.5184-0.29104-1.6887-0.65397-1.6162-0.89193-1.394-0.91228-1.3455-1.08-1.3128-1.2105-2.4098-2.3416-1.1516-1.0223-3.2632-2.4626-1.2312-0.98414-1.7689-1.5288-6.4642-6.0034-3.0857-2.6899-3.2689-2.6173-3.5875-2.6576-3.1257-2.1336-0.61751-0.37314-0.24604-0.090373 1.5475-0.75998 1.5675-0.88423 1.7414-1.1046 1.8129-1.3405 1.6333-1.4882 1.3153-1.6206 0.85908-1.7505 0.2996-1.629-0.059591-1.7048-0.44552-2.1271-0.55291-1.6454-0.58976-1.4119-0.98704-2.0294-2.8632-5.2965-0.88317-1.7091-1.0001-2.0991-0.7269-1.6813-0.93197-2.3832-0.97331-2.8599-0.77453-2.8152-0.27355-1.2922-0.24642-1.6421-0.09132-1.5768 0.063273-1.1999 0.2069-1.1394 0.32933-0.96413 1.1209-1.7736 0.85289-0.90567 0.97794-0.85447 1.5519-1.1466 1.8287-1.1935 6.5642-4.0442 2.7637-1.8531 1.4225-1.0545 1.7163-1.3839 3.4432-2.8615 1.3036-1.1409 1.3938-1.2978 1.2897-1.3215 1.0127-1.1803 0.87324-1.2078 0.94808-1.8149 0.31872-1.0202 0.15585-1.0395-0.070322-1.49-0.54093-2.1301-0.68656-1.7678-0.84073-1.8639-5.0094-10.394-1.1533-2.2748-1.099-1.9642-1.0793-1.7243-3.5551-5.4192-0.80435-1.3433-0.70548-1.2785-1.2199-2.5699-1.0318-2.5987-0.63335-1.826-0.47574-1.555-0.5263-2.1048-0.30898-1.8735-0.0812-1.7794 0.095816-1.0923 0.16683-0.81764 0.35394-1.0456 0.48524-0.98418 0.96659-1.4026 1.4762-1.5092 1.5261-1.1125 1.6175-0.79572 1.0104-0.29812 1.007-0.12677 0.8666 0.041387 0.95702 0.18801 1.0325 0.32881 2.0159 0.79425 1.0209 0.33955 0.90251 0.17314 0.67948 0.006612 0.79258-0.17854 0.60197-0.28414 0.67847-0.50464 0.50572-0.5667 0.3906-0.66995 0.14269-0.36539 0.16131-0.61332 0.12518-0.97878 0.012445-1.8045-0.1731-4.1471 0.1116-1.9895 0.18783-1.143 0.35729-1.4904 0.52682-1.7017 0.53776-1.5089 0.61017-1.564 0.60012-1.3763 1.2146-2.3585 0.82489-1.3957 1.5206-2.3215 0.77723-1.0678 2.6016-3.3317 1.0301-1.565 0.92041-1.7558 0.56271-1.4244 0.42484-1.521 0.24338-1.4943 0.076703-1.4625-0.042249-1.3524-0.13688-1.4616-0.46774-2.8751-0.51977-2.3479-0.87098-3.3125-0.45128-1.528-0.91872-2.7496-0.96821-2.5428-3.4579-8.3831-0.24704-0.67099-0.01658-0.17647 0.5346-0.048732 0.81204-0.216 1.6402-0.62136 2.2899-1.1167 2.365-1.3519 2.3297-1.4568 3.1105-2.2302 2.4709-1.6616 1.0808-0.82247 1.9573-1.7438 1.1695-0.87892 1.6934-0.99109 3.4539-1.7749 0.98431-0.58992 2.1015-1.4203 0.84846-0.38677 0.42814-0.081066 0.53551 0.036097 0.47985 0.15671 0.30573 0.17165 0.19996 0.17704 0.053315 0.11397" stroke="#bdc660"/>
    </defs>
    <g clip-path="url(#pd7c86a6184)">
     <use y="280.512" fill="#bdc660" stroke="#bdc660" xlink:href="#m94d0871940"/>
    </g>
   </g>
  </g>
 </g>
 <defs>
  <clipPath id="pd7c86a6184">
   <rect x="7.2" y="7.2" width="175.94" height="266.11"/>
  </clipPath>
 </defs>
</svg>
