<?xml version="1.0" encoding="UTF-8"?>
<!DOCTYPE svg  PUBLIC '-//W3C//DTD SVG 1.1//EN'  'http://www.w3.org/Graphics/SVG/1.1/DTD/svg11.dtd'>
<svg width="240.55pt" height="280.51pt" version="1.1" viewBox="0 0 240.55 280.51" xmlns="http://www.w3.org/2000/svg" xmlns:xlink="http://www.w3.org/1999/xlink">
 <metadata>
  <rdf:RDF xmlns:cc="http://creativecommons.org/ns#" xmlns:dc="http://purl.org/dc/elements/1.1/" xmlns:rdf="http://www.w3.org/1999/02/22-rdf-syntax-ns#">
   <cc:Work>
    <dc:type rdf:resource="http://purl.org/dc/dcmitype/StillImage"/>
    <dc:date>2024-07-04T12:09:04.397169</dc:date>
    <dc:format>image/svg+xml</dc:format>
    <dc:creator>
     <cc:Agent>
      <dc:title>Matplotlib v3.7.1, https://matplotlib.org/</dc:title>
     </cc:Agent>
    </dc:creator>
   </cc:Work>
  </rdf:RDF>
 </metadata>
 <defs>
  <style type="text/css">*{stroke-linejoin: round; stroke-linecap: butt}</style>
 </defs>
 <g id="figure_1">
  <g id="patch_1">
   <path d="m0 280.51h240.55v-280.51h-240.55v280.51z" fill="none"/>
  </g>
  <g id="axes_1">
   <g id="PatchCollection_1">
    <defs>
     <path id="ma0ce3fe68a" d="m87.432-250.77 0.022783 0.074659 0.12474 0.10134 0.37234 0.19886 0.41464 0.16748 0.55513 0.17642 0.3887 0.1008 0.85708 0.17468 0.7999 0.10792 0.55596 0.045861 0.91649 0.03878 1.4225 0.014889 0.97663-0.018754 1.0948-0.046678 1.4626-0.11027 2.6505-0.30462 0.69945-0.040805 0.62177-0.002098 0.98871 0.040932 1.4022 0.12072 1.2284 0.16692 1.6583 0.27933 0.76421 0.095794 0.63637 0.040726 0.71955-0.004609 0.33689-0.024293 0.51699-0.06951 0.37961-0.076964 0.60604-0.16622 0.59633-0.20038 3.1364-1.1433 0.76724-0.24917 0.78093-0.20529 0.86916-0.16711 0.66421-0.086457 0.82452-0.058897 1.0101-0.005635 1.8989 0.084946 2.2277 0.15959 3.0621 0.35249 1.54 0.14183 2.4053 0.17855 1.4697 0.1795 0.97992 0.15902 0.86274 0.20248 0.44175 0.14814 0.50267 0.23342 0.47274 0.32862 0.47044 0.53907 0.36233 0.65802 0.2833 0.74566 0.21541 0.79515 0.13297 0.68002 0.10536 0.70942 0.12626 1.1853 0.37195 5.2347 0.12565 2.225 0.04831 2.0605 0.04575 4.153 0.19368 9.8256 0.10477 2.0771 0.087885 1.0041 0.12319 0.96919 0.17045 0.92172 0.23299 0.85808 0.31478 0.77383 0.22027 0.39473 1.1075 1.7004 0.26302 0.47445 0.28468 0.64773 0.16599 0.49276 0.38947 1.3785 0.062875 0.24914 0.074001 0.47494-0.0024 0.27882-0.053589 0.32011-0.078225 0.23329-0.17573 0.35817-0.51373 0.81088-0.14881 0.31909-0.036009 0.31592 0.044963 0.17182 0.31201 0.41467 0.54317 0.3982 0.69113 0.36952 0.76108 0.32756 0.76632 0.27912 0.75379 0.23764 0.78783 0.2167 0.81367 0.19335 1.077 0.21036 1.0962 0.16418 1.105 0.11233 1.1049 0.049337 1.0967-0.031131 1.0803-0.13648 1.0403-0.25689 1.0213-0.35671 1.0064-0.42995 0.99427-0.48314 0.98382-0.52156 0.97375-0.5495 1.9118-1.1579 0.93094-0.60305 0.90584-0.61971 0.87072-0.63996 0.82163-0.66648 0.75354-0.7024 0.66005-0.75141 0.53314-0.81796 0.35845-0.83577 0.24844-0.89389 0.16936-0.93611 0.11579-0.96535 0.16228-2.165 0.14107-3.4991 0.057193-0.61569 0.13744-0.86328 0.12829-0.5312 0.10114-0.33203 0.76084-2.0369 0.47104-1.4604 0.33084-1.2775 0.41245-1.9751 0.23072-0.93901 0.18176-0.57927 0.19034-0.47514 0.28947-0.53337 0.29-0.38204 0.28462-0.27863 0.27008-0.20392 0.21372-0.13019 0.1976-0.10072 0.3475-0.14022 0.37377-0.10854 0.41591-0.079163 0.71779-0.051331 0.47767 0.021257 0.45224 0.066793 0.34612 0.10408 0.11227 0.0826 1.1638 5.5172 0.43762 2.4358 0.72534 4.8507 0.20631 1.5023 0.17937 1.6257 0.21603 2.5905 0.1597 1.3758 0.13332 0.86689 0.47464 2.6222 0.54168 3.452 0.30008 1.5804 0.54884 2.4977 0.16935 0.89775 0.1158 0.79266 0.07755 0.8762 0.015565 0.67712-0.026692 0.78096-0.068205 0.78021-0.57795 3.9871-0.37724 3.1507-0.76755 5.6823-0.1079 1.3849-0.022425 0.73228 0.011013 0.87296 0.054927 0.76254 0.09403 0.72928 0.11694 0.6505 0.16468 0.71895 0.24997 0.88997 0.32019 0.94191 0.25648 0.63071 0.17515 0.37429 0.58461 1.0939 0.26365 0.54574 0.10518 0.2651 0.1551 0.49921 0.1016 0.45843 0.078461 0.51835 0.042917 0.44913 0.085771 1.1793 0.031327 0.59282 0.005777 0.54326-0.055833 0.80234-0.04719 0.31024-0.12572 0.57977-0.17817 0.61172-0.19398 0.56191-0.88204 2.3402-0.61224 1.762-0.25711 0.83204-0.13458 0.6617-0.033481 0.45576 0.03011 0.44688 0.058788 0.30793 0.081929 0.26911 0.12143 0.27966 0.19988 0.33395 0.24924 0.31741 0.35837 0.35623 0.35581 0.26862 0.43163 0.22922 0.38608 0.1213 0.6388 0.050677 0.67025-0.086462 0.80411-0.22845 1.7861-0.68997 0.5281-0.15988 0.50928-0.081075 0.24431-0.002595 0.40631 0.061897 0.22139 0.070709 0.23543 0.10378 0.98704 0.61207 0.26063 0.12503 0.55265 0.1817 0.59835 0.15411 0.60898 0.19211 0.58435 0.29938 0.30615 0.24075 0.36652 0.38373 0.43894 0.61714 0.19932 0.34741 0.28843 0.59764 0.15172 0.37519 0.27376 0.87473 0.1752 0.92042 0.064131 0.89538-0.018737 0.90719-0.083483 0.90511-0.13417 0.88978-0.26273 1.46-0.12515 0.85376-0.092655 0.84728-0.049681 0.82887-0.004319 0.56778 0.018809 0.47982 0.054147 0.54581 0.095405 0.51603 0.194 0.64819 0.31085 0.91934 0.32196 1.154 0.43358 1.7436 0.281 1.3048 0.24892 1.4376 0.20371 1.4537 0.090767 0.92293 0.14848 2.0115 0.14063 1.4333 0.21218 1.6128 0.34216 2.1231 0.31288 1.6905 0.28913 1.41 0.44978 1.9928 0.90223 3.7534 0.53709 2.4432 0.28508 1.4832 0.18758 1.127 0.18962 1.3721 0.10124 0.96569 0.080454 1.188 0.041807 1.2205-0.002541 1.5955-0.0461 1.1789-0.078499 1.0601-0.1211 1.1008-0.67325 4.8289-0.089325 0.79039-0.065166 0.78797-0.027689 0.59752 0.003075 0.86675 0.06404 0.90612 0.072128 0.55424 0.098064 0.54942 0.14898 0.63769 0.19156 0.65376 0.2722 0.76037 0.22948 0.55377 0.21023 0.46725 1.2793 2.6489 0.36845 0.86351 0.24331 0.6239 0.22917 0.63107 0.38306 1.1577 0.40244 1.3521 0.53034 1.8822 0.28262 0.94466 0.28074 0.85618 0.47544 1.2792 0.4344 1.0489 0.57815 1.2809 0.55004 1.1282 0.76408 1.4403 0.59698 1.0384 0.59857 0.98007 1.1104 1.7052 1.7939 2.598 2.9329 4.0223 0.63134 0.89297 0.85913 1.2778 0.56138 0.90387 0.79772 1.4235 0.60729 1.2008 0.43663 0.92897 0.41914 0.9385 0.76455 1.8027 1.2204 3.0289 0.87006 2.2923 1.8962 5.2015 0.34181 1.0276 0.3675 1.2742 0.41638 1.7549 0.24667 1.2383 0.13682 0.88789 0.085635 0.88295 0.004486 1.0719-0.09894 0.84539-0.14424 0.65629-0.21134 0.68267-0.18402 0.48886-0.25617 0.60034-0.49241 1.0128-0.33808 0.62832-0.54332 0.94326-1.0544 1.7444-0.78346 1.2034-0.50734 0.70295-0.76694 0.97516-1.0744 1.262-3.0775 3.3771-0.19369 0.22135-0.086144 0.12861-0.29472-0.12432-0.62176-0.32508-4.1704-2.2912-0.95128-0.49656-2.832-1.3869-2.0211-1.0598-0.71942-0.34158-0.68811-0.28051-0.40962-0.14324-0.90337-0.25428-2.4673-0.53522-2.325-0.56144-2.3905-0.53855-1.9585-0.4193-0.60415-0.11081-0.61216-0.084772-0.73834-0.064388-0.95177-0.024257-0.49391 0.010282-2.7643 0.18467-2.0666 0.082332-2.1728 0.12604-0.59114-0.013287-0.35029-0.036448-0.46192-0.084641-0.40084-0.11173-0.44574-0.17179-0.7282-0.37597-1.325-0.81791-1.0588-0.69686-2.6747-1.8952-0.54503-0.36677-0.57401-0.32943-0.37971-0.17502-0.24747-0.093057-0.46002-0.12806-0.30621-0.05593-0.54462-0.051561-0.52896-0.002353-0.40967 0.023151-1.2067 0.15053-2.3944 0.41163-1.1293 0.16601-1.112 0.10973-1.2722 0.027698-0.91886-0.028058-0.8348-0.053969-1.2786-0.13344-1.9027-0.23537-1.7112-0.1207-2.3371-0.076604-2.8238-0.028617-1.2484-0.054475-0.70156-0.075347-0.667-0.10488-0.62231-0.13087-0.47342-0.1287-0.42839-0.14875-0.34926-0.14824-0.57436-0.30151-0.51044-0.3313-0.26737-0.19628-0.70719-0.59354-0.30477-0.28726-0.60542-0.62369-0.4415-0.49256-1.6177-1.9362-1.1044-1.2557-3.6855-3.9355-0.86579-0.84368-0.3956-0.34297-0.83542-0.62312-0.86536-0.49804-0.62614-0.26528-0.44252-0.14178-0.38312-0.094695-0.45334-0.082715-0.58785-0.06858-2.5632-0.12894-1.4605-0.12936-1.218-0.18634-1.3336-0.25854-1.0688-0.24052-0.84389-0.22605-0.82383-0.25719-1.0158-0.36917-0.85817-0.35598-1.0703-0.49974-0.83034-0.4391-1.4717-0.8557-1.0633-0.65028-3.058-1.9416-0.41233-0.22694-0.57004-0.2552-0.43887-0.14122-0.34415-0.073063-0.42688-0.039002-0.38003 0.016903-0.40786 0.087386-0.30778 0.13499-0.14012 0.098567-0.1034 0.11003-0.046849 0.089954-0.007216 0.093285-0.092688-0.20324-0.14698-0.52658-0.10996-0.48116-0.10692-0.55405-0.15783-1.1198-0.08046-1.1733 0.008356-1.1398 0.084803-1.0363 0.10505-0.72839 0.19222-0.95516 0.18185-0.72367 0.20533-0.71398 0.2582-0.80966 1.3181-3.8502 0.297-0.99751 0.15138-0.59837 0.22906-1.1992 0.10222-0.73866 0.26111-2.2328 0.22916-1.558 0.2256-1.1988 0.17011-0.78599 0.38662-1.5972 0.41143-1.4535 0.28324-0.85843 0.36644-1.0038 0.70633-1.8251 0.28883-0.83002 0.16556-0.59407 0.11468-0.59187 0.035636-0.37285 3.17e-4 -0.3404-0.03021-0.31149-0.10346-0.41746-0.13976-0.28204-0.10038-0.1307-0.24215-0.20369-0.30454-0.15385-0.50665-0.14204-0.58636-0.071186-0.58206-0.011342-0.6213 0.03345-0.85154 0.10409-0.5272 0.090145-1.0102 0.20998-2.819 0.66617-0.78676 0.15888-0.78981 0.12922-0.59608 0.071288-0.64545 0.047343-1.1311 0.01761-1.1191-0.055254-1.0956-0.12267-1.0582-0.1915-0.71241-0.18056-0.67721-0.22555-0.6325-0.27954-0.38429-0.21737-0.34077-0.23623-0.19766-0.16279-0.50567-0.54001-0.42648-0.6299-0.36415-0.70013-0.3748-0.91269-0.32518-0.96947-0.24055-0.82466-0.4301-1.7054-0.23228-1.0446-1.4653-7.0153-0.45485-1.9425-0.42399-1.5441-0.21915-0.68887-0.24113-0.6714-0.35559-0.83878-0.41374-0.79134-0.13227-0.21845-0.36502-0.54197-0.43912-0.56357-0.64761-0.71075-0.84412-0.78657-0.90559-0.74552-0.95613-0.70738-0.90829-0.57902-0.7935-0.42905-0.60642-0.27945-0.81632-0.30632-0.49243-0.13998-0.46727-0.092087-0.57651-0.049202-0.57233 0.00351-1.5002 0.066094-0.61709-0.007624-2.3154-0.11237-1.582-0.11638-0.89295-0.12036-0.64146-0.11421-0.51307-0.11403-0.65751-0.19518-0.35077-0.14686-0.3062-0.17036-0.2962-0.22775-0.20221-0.2121-0.20564-0.28887-0.15681-0.29628-0.22422-0.60348-0.41568-1.6929-0.19545-0.68847-0.15716-0.47106-0.18405-0.47978-0.25501-0.57656-0.20718-0.40781-0.24849-0.4223-0.31257-0.44066-0.3187-0.36504-0.29655-0.28969-0.39054-0.33029-0.36744-0.2649-0.42085-0.26118-0.41848-0.22551-0.43148-0.20388-0.62753-0.26458-0.60494-0.20752-0.42979-0.10258-0.52683-0.052015-0.49393 0.034274-0.39341 0.080436-0.47554 0.16095-0.57907 0.27053-0.44575 0.25023-0.68488 0.4463-0.93751 0.69203-1.1405 0.89828-0.81103 0.66393-0.91796 0.78933-2.2327 2.0652-0.46458 0.39803-0.7127 0.53638-1.258 0.83004-0.63771 0.35426-0.57179 0.24785-0.45364 0.1188-0.27404-0.043502-0.05261-0.17088 0.08361-0.26246 0.12137-0.2128 0.51476-0.78114 0.29046-0.55351 0.14196-0.38418 0.14963-0.74608 0.042961-0.82748-0.043512-0.88314-0.11484-0.9176-0.1756-0.93404-0.22996-0.9344-0.28177-0.91954-0.33469-0.88925-0.39224-0.84239-0.45789-0.77688-0.43952-0.59871-0.90649-1.1648-0.39962-0.6277-0.34788-0.67031-0.28952-0.70521-0.2218-0.73373-0.15253-0.80962-0.056832-0.59244-0.011716-0.62995 0.042754-0.64316 0.13401-0.79236 0.20797-0.78406 0.36896-1.0476 0.40688-0.91452 0.46387-0.87185 0.49069-0.78411 0.50315-0.70923 1.5842-2.1316 0.8197-1.1835 0.66771-1.034 0.35156-0.62376 0.32402-0.70448 0.22895-0.77582 0.037386-0.65088-0.091176-0.44935-0.23825-0.58154-1.2387-2.4786-0.4463-0.83933-0.34613-0.59522-0.3131-0.48662-0.29498-0.41135-0.36084-0.43637-0.22428-0.23124-0.42607-0.35523-0.52239-0.32759-1.3977-0.73017-0.31889-0.19901-0.43808-0.34296-0.471-0.52933-0.15594-0.22014-0.26915-0.45093-0.24669-0.48332-0.41367-0.91615-0.24592-0.65944-0.21338-0.67333-0.18292-0.67158-0.45385-2.0036-0.21318-0.60564-0.34836-0.80824-0.29781-0.84989-0.86088-3.0605-0.42019-1.275-0.66528-1.9215-0.34987-0.95517-0.9026-2.3126-0.25538-0.62903-0.29355-0.63588 0.93127-0.81678 2.2696-2.2017 0.56422-0.58834 0.47376-0.55198 0.43357-0.58761 0.45941-0.7386 0.39533-0.76672 0.33807-0.76715 0.21044-0.52627 0.40767-1.1765 0.18945-0.68127 0.13625-0.59696 0.1238-0.68998 0.10019-0.80999 0.055894-1.0805-0.037569-1.099-0.043621-0.43452-0.12222-0.79882-0.28331-1.2365-0.38192-1.2553-0.36359-1.0058-0.99927-2.5402-0.60121-1.6015-0.3949-1.1177-0.91308-2.7331-0.32256-0.83567-0.2237-0.49385-0.24884-0.46908-0.35948-0.54737-0.39074-0.46232-0.50307-0.48919-1.5117-1.2918-0.81946-0.78605-0.62406-0.69133-0.5593-0.717-0.23998-0.3528-0.32982-0.55307-0.3015-0.5755-1.1528-2.438-0.74191-1.379-0.42332-0.69632-0.45589-0.67632-0.47871-0.62958-0.43137-0.50104-0.41075-0.42811-0.47517-0.4468-0.64385-0.53669-0.62707-0.4591-0.48765-0.30885-0.3113-0.16853-1.4015-0.62181-0.5695-0.28057-0.5465-0.33956-0.55897-0.43117-0.3667-0.32973-0.43983-0.44434-0.6742-0.75528-0.32073-0.39602-0.40305-0.57959-0.27212-0.48355-0.18069-0.40306-0.13723-0.40813-0.098925-0.49825-0.018497-0.34981 0.078376-0.62133 0.12547-0.43858 0.264-0.63087 0.33286-0.62283 0.75608-1.2681 0.16771-0.31254 0.18538-0.40936 0.077869-0.22679 0.054568-0.23823 0.01544-0.32954-0.08545-0.35651-0.21779-0.35737-0.39843-0.34583-0.28589-0.16857-0.3864-0.18104-0.3862-0.1508-1.4811-0.48442-0.58574-0.21396-0.33303-0.15201-0.26113-0.14621-0.28151-0.19656-0.2087-0.18582-0.21224-0.2569-0.20003-0.39759-0.098213-0.35882-0.055156-0.55095 0.024034-0.52187 0.076161-0.48735 0.12057-0.48664 0.17387-0.53937 0.30099-0.77519 0.29207-0.66328 1.1259-2.3309 0.41938-0.91054 0.27852-0.66585 0.36377-1.0142 0.10861-0.3557 0.11402-0.42425 0.1217-0.58949 0.057135-0.44544 0.038434-0.74792-0.007594-4.3259-0.027482-1.1818-0.053419-0.78411-0.11066-0.81503-0.20015-0.93556-0.25922-0.91322 2.8068-0.15981 1.0008-0.006271 1.1141 0.02254 2.5793 0.10248 2.0771 0.12427 0.95657 0.10415 2.0059 0.30833 1.0281 0.091399 0.87257 0.037545 0.66409-0.002871 0.4298-0.020588 0.81402-0.080106 1.3113-0.21411 0.77463-0.18001 0.87297-0.27242 0.57443-0.22417 0.37955-0.16988 0.80227-0.41513 0.86818-0.5237 0.67032-0.44215 1.6582-1.1504 0.9014-0.55765 0.5846-0.30157 0.46805-0.20587 0.49984-0.18603 0.63035-0.17277 0.32425-0.056815 0.33493-0.033907 0.38067-0.005095 0.261 0.019889 0.60699 0.10657 1.4916 0.37455 0.42547 0.078645 0.44691 0.053167 0.42934 0.026428 0.66933 0.001847 1.5001-0.037154 0.73214-0.075515 0.80384-0.14437 1.6394-0.40083 1.9996-0.44642 2.1956-0.55778 0.82337-0.18984 0.79577-0.13122 0.47772-0.04835 0.61675-0.023234 0.41161 0.012766 0.71023 0.083275 0.43776 0.082616 3.0588 0.72423 0.66235 0.20336 0.26855 0.11253 0.30923 0.15851 0.46259 0.30048 0.4488 0.35638 0.72285 0.66883 1.6772 1.6564 0.6834 0.63722 0.74575 0.65407 0.78258 0.63224 0.64876 0.47639 0.79075 0.51571 0.78674 0.43621 0.54905 0.25604 0.76502 0.29332 0.80487 0.2493 0.44018 0.11614 0.54511 0.11896 0.65708 0.09963 2.0934 0.19405 0.53122 0.067022 0.58984 0.11385 0.48216 0.1304 0.5297 0.1869 0.24398 0.10717 0.3646 0.20334 0.2484 0.18972 0.11713 0.11726 0.079767 0.10561 0.051045 0.12389-0.005125 0.066341" stroke="#bdc660"/>
    </defs>
    <g clip-path="url(#pf14a106457)">
     <use y="280.512" fill="#bdc660" stroke="#bdc660" xlink:href="#ma0ce3fe68a"/>
    </g>
   </g>
  </g>
 </g>
 <defs>
  <clipPath id="pf14a106457">
   <rect x="7.2" y="7.2" width="226.15" height="266.11"/>
  </clipPath>
 </defs>
</svg>
