<?xml version="1.0" encoding="UTF-8"?>
<!DOCTYPE svg  PUBLIC '-//W3C//DTD SVG 1.1//EN'  'http://www.w3.org/Graphics/SVG/1.1/DTD/svg11.dtd'>
<svg width="361.74pt" height="280.51pt" version="1.1" viewBox="0 0 361.74 280.51" xmlns="http://www.w3.org/2000/svg" xmlns:xlink="http://www.w3.org/1999/xlink">
 <metadata>
  <rdf:RDF xmlns:cc="http://creativecommons.org/ns#" xmlns:dc="http://purl.org/dc/elements/1.1/" xmlns:rdf="http://www.w3.org/1999/02/22-rdf-syntax-ns#">
   <cc:Work>
    <dc:type rdf:resource="http://purl.org/dc/dcmitype/StillImage"/>
    <dc:date>2024-07-04T12:09:04.159805</dc:date>
    <dc:format>image/svg+xml</dc:format>
    <dc:creator>
     <cc:Agent>
      <dc:title>Matplotlib v3.7.1, https://matplotlib.org/</dc:title>
     </cc:Agent>
    </dc:creator>
   </cc:Work>
  </rdf:RDF>
 </metadata>
 <defs>
  <style type="text/css">*{stroke-linejoin: round; stroke-linecap: butt}</style>
 </defs>
 <g id="figure_1">
  <g id="patch_1">
   <path d="m0 280.51h361.74v-280.51h-361.74v280.51z" fill="none"/>
  </g>
  <g id="axes_1">
   <g id="PatchCollection_1">
    <defs>
     <path id="ma225d7565f" d="m249.54-243.42 0.16857 0.40951 0.50932 0.63214 0.7311 0.7433 0.92662 0.81044 1.3647 1.0003 0.74916 0.4619 1.1193 0.57593 0.52143 0.21991 0.91831 0.30691 0.73399 0.16809 1.9994 0.13605 2.0523-0.2224 2.0697-0.46206 5.1679-1.5497 1.5063-0.41049 1.8192-0.3679 1.7342-0.12235 1.627 0.229 1.3567 0.57668 1.2688 0.87227 1.1507 1.0497 0.6134 0.65388 0.74869 0.87934 0.72629 0.93169 1.4149 2.0131 1.3145 2.0714 0.89868 1.5121 2.5982 4.5735 0.88548 1.4597 0.63083 0.94482 0.88978 1.1501 0.59078 0.64152 4.4959 4.3606 2.7594 2.4675 4.9366 4.867 2.9852 2.7275 1.0602 1.0401 2.1557 2.4454 1.2118 1.0511 0.66324 0.40481 1.108 0.4944 1.2319 0.3732 0.96788 0.20077 1.8576 0.22034 1.4621 0.062176 1.3065-0.0115 1.4075-0.073326 1.1799-0.10496 2.0723-0.2706 3.8708-0.63206 2.4752-0.47986 8.2927-1.7413 0.72052-0.1365 0.13508 0.003543 0.049233 0.10933-0.019779 0.38958-0.20211 1.1509-0.42195 1.6329-0.59068 1.8991-0.77201 2.172-2.3326 5.9539-1.8571 5.2428-0.80642 2.1284-0.41898 1.003-0.70522 1.5223-0.90219 1.6813-0.57053 0.90491-0.45197 0.6287-1.0978 1.2929-0.63294 0.63048-0.6053 0.53617-0.80322 0.62177-0.5346 0.36211-1.2302 0.70364-1.0838 0.52791-1.6423 0.72537-2.7515 1.1414-5.3607 2.1491-2.1474 0.80199-3.8104 1.3061-1.722 0.63877-0.98363 0.47565-0.50825 0.34069-0.23549 0.22083-0.24272 0.38804-0.04323 0.51904 0.13444 0.40929 0.35648 0.56289 0.58927 0.65743 1.3611 1.2101 3.1935 2.606 1.8882 1.6794 1.1476 1.1241 1.041 1.1084 1.0159 1.2029 0.54014 0.72575 0.51893 0.82015 0.49209 1.0105 0.43619 1.182 0.95561 3.1735 0.3273 1.6624 0.060329 1.5952-0.08769 1.2779-0.24594 1.7751-0.2422 1.3216-0.53638 2.419-0.55358 2.0745-0.39614 1.3155-0.46909 1.4164-0.53803 1.4729-1.1849 2.8497-1.9701 4.3821-0.56293 1.3501-0.48348 1.3017-0.44645 1.4959-0.22895 1.1446-0.08961 1.1698 0.09537 1.0893 0.31578 1.0951 0.40254 0.89355 0.92967 1.5913 3.5206 5.1035 2.7883 4.1813 1.9359 3.059 0.66776 0.92753 0.56521 0.66904 0.78554 0.79022 0.62879 0.53336 0.6031 0.42083 0.36316 0.1715 0.12208-0.002878-0.10353 0.33098-0.32527 0.48319-0.78037 0.88034-0.63761 0.59598-0.71856 0.57674-1.2172 0.77188-0.97559 0.43436-0.80096 0.22794-1.0174 0.12065-0.97601-0.023881-0.87143-0.10369-0.90815-0.16306-2.1458-0.50702-3.7426-0.97142-1.3701-0.29262-1.5719-0.23265-1.2302-0.084627-5.3716-0.15647-0.80224 0.016602-1.0755 0.094241-1.0769 0.24649-1.1442 0.52476-0.72005 0.48381-0.67772 0.56956-0.86676 0.90659-0.68622 0.88541-0.56112 0.86674-0.34116 0.60907-0.35151 0.71443-0.35313 0.8441-0.29562 0.87988-0.1767 0.71781-0.10334 0.75554-0.004142 0.53741 0.053988 0.43848 0.17746 0.61096 0.22231 0.46427 0.28163 0.3881 0.17946 0.17186 0.43732 0.26303 0.48971 0.14564 1.6525 0.10382 0.37999 0.067318 0.69173 0.2819 0.40081 0.29385 0.30783 0.33419 0.27108 0.43517 0.21888 0.55963 0.12066 0.54121 0.050955 0.46538-0.045736 1.2072-0.24156 1.1497-0.10706 0.36324-0.39919 1.1441-0.66141 1.5136-1.0538 2.106-0.42581 1.0216-0.3788 1.0614-0.54323 1.8421-0.21755 1.0152-0.13249 1.0067-0.008649 1.214 0.21048 1.1708 0.67821 1.4763 1.0451 1.3943 1.306 1.3366 1.4813 1.2991 4.8254 3.837 1.5384 1.3084 1.4009 1.3488 1.1896 1.407 0.97396 1.5205 1.0953 1.9805 0.89738 1.8721 0.51522 1.3958 0.36145 1.413 0.12412 0.84525 0.031695 0.46619-0.001568 0.52306-0.05424 0.53025-0.16416 0.63243-0.36518 0.66792-0.50667 0.49771-0.49495 0.25974-0.32914 0.10947-0.61783 0.12355-0.51836 0.043608-0.9304-0.03026-1.1403-0.20456-0.56703-0.16401-0.52939-0.19-0.904-0.40279-1.1146-0.60904-0.7975-0.4977-1.7489-1.2184-1.6905-1.2679-1.9446-1.3372-7.3637-4.531-1.2313-0.83505-3.2032-2.2924-0.88437-0.55126-0.90001-0.46755-1.5587-0.54333-0.95591-0.14131-0.95654 0.011788-0.80989 0.13202-1.0265 0.2948-1.5293 0.59737-4.0189 1.8909-1.8435 0.81513-1.0107 0.38423-0.99122 0.3055-0.88708 0.19458-0.94702 0.11546-0.77587 0.010836-0.88824-0.11613-0.57663-0.17228-2.1207-0.90724-0.90784-0.29072-0.54241-0.11486-0.84907-0.074775-0.76561 0.031259-0.96862 0.14766-0.52353 0.1252-0.84888 0.26653-1.1523 0.48633-1.0949 0.61797-0.74904 0.53734-0.61575 0.52591-0.48411 0.47102-0.80412 0.9102-0.69196 0.9512-0.33104 0.54461-0.32443 0.63818-0.54665 1.587-0.34432 1.6771-0.13959 0.94704-0.21511 2.22-0.11256 4.5223-0.13932 1.8419-0.14813 1.1384-0.20449 1.1218-0.41526 1.5819-0.30263 0.85156-0.35518 0.80289-0.8275 1.3713-0.97182 1.1602-0.75207 0.70725-0.81607 0.63378-1.5707 0.91296-1.2944 0.49273-1.2591 0.26596-0.68526 0.056895-0.95241-0.013252-1.6243-0.23322-1.519-0.42975-1.2763-0.54605-0.51752-0.42039 0.46654-2.5364 0.12272-0.99685 0.030171-0.57947-0.01551-0.56918-0.099648-0.67076-0.15388-0.52281-0.43596-0.95025-0.3033-0.51227-0.63196-0.90764-1.0462-1.2537-1.5873-1.671-0.4625-0.54117-0.38018-0.53948-0.24169-0.48015-0.1249-0.48252-0.006836-0.32597 0.046594-0.3249 0.14048-0.47754 0.49524-1.2064 0.12808-0.44402 0.029548-0.39823-0.026594-0.18332-0.17193-0.40578-0.14724-0.20615-0.39374-0.40115-0.77034-0.59627-0.35854-0.37029-0.29694-0.445-0.19743-0.50227-0.079663-0.67774 0.013927-1.3699 0.16369-1.7914-0.024461-0.58768-0.072961-0.37873-0.15624-0.44761-0.27349-0.52088-1.2521-2.2094-0.63163-0.93694-0.4907-0.61737 0.082811-0.5193 0.34308-1.365 2.986-11.371 1.8417-7.3307 1.0496-4.6868 0.42743-2.2631 0.33023-2.1985 0.191-2.0112 0.030274-1.9269-0.18473-1.8219-0.4693-1.689-0.42417-0.89524-0.79462-1.1942-0.88461-0.98767-0.7565-0.68948-0.92174-0.72829-1.3661-0.96316-1.8025-1.1651-1.2135-0.71849-1.1815-0.64571-1.397-0.70048-1.8131-0.81267-2.5142-0.95897-2.2402-0.6899-1.8823-0.44602-4.7156-0.99465-2.2969-0.56358-0.88137-0.27237-0.78574-0.3052-0.54311-0.2735-0.52289-0.34673-0.40808-0.36311-0.52451-0.71988-0.15751-0.37156-0.12009-0.54282-0.024327-0.43255 0.094454-0.91721 0.19017-0.808 0.71626-2.3943 0.078718-0.55928-0.001898-0.59453-0.15382-0.76391-0.17073-0.43362-0.2759-0.50095-0.47771-0.65114-0.62195-0.68405-0.67704-0.65183-0.74219-0.63605-1.3476-0.96993-0.69934-0.4155-1.1875-0.61443-4.3006-1.9021-1.1385-0.68555-0.56228-0.43417-1.3825-1.1863-1.3097-0.99233-2.6588-1.7995-0.87282-0.50243-1.0368-0.42608-1.2635-0.33553-4.8708-1.0199-1.0124-0.29546-0.89772-0.31216-1.4212-0.57186-1.3245-0.60814-4.0042-2.0658-0.73902-0.34806-1.1312-0.44026-1.1306-0.3132-0.81687-0.14119-1.1226-0.097386-1.626-0.065695-1.7808-0.16611-1.1632-0.02412-0.67857 0.068006-1.2973 0.23324-0.58613 0.070519-0.25311 0.004216-0.60564-0.085575-0.79947-0.34514-0.70723-0.48604-0.49993-0.4711-1.1191-1.251-0.88656-0.90962-0.42352-0.37047-0.50835-0.37373-0.32006-0.1904-0.50974-0.2329-0.46677-0.16072-1.7541-0.48465-1.0661-0.38377-1.8525-0.7516-0.82673-0.41413-0.77239-0.52074-0.69276-0.62693-0.58162-0.72099-0.4706-0.83985-0.31495-0.74808-0.27537-0.85976-0.96061-3.4147-0.2417-0.97003-0.2603-1.6086-0.054372-0.86636 0.027776-0.90212 0.20242-1.5178 0.39564-1.5478 0.56309-1.5552 0.64256-1.4477 1.1387-2.3376 1.4566-3.1266 0.5207-1.2234 0.66504-1.9066 0.29142-1.0415 0.19176-0.90846 0.11532-0.90617 0.026276-0.99218-0.055432-0.98594-0.33395-2.798-0.096222-1.3587 0.012186-0.85335 0.30913-3.0133 0.23648-4.4788 0.099814-1.0026 0.30002-2.0806 0.034635-1.0606-0.067038-1.0766-0.12726-0.92783-0.52551-2.5369-0.069362-0.75398 0.001749-0.97908 0.15003-0.91066 0.2369-0.60574 0.27874-0.48825 0.49536-0.70341 0.36236-0.61767 0.023076-0.60115-0.45908-0.62031-0.86924-0.65975-1.1788-0.6923-1.4093-0.71919-2.46-1.1378-3.0672-1.3244-12.937-5.3424-9.5041-4.0098-1.3122-0.52005-2.0896-0.75029-1.0562-0.33094-1.4783-0.40628-1.9739-0.45451-1.9937-0.38151-2.0082-0.3272-4.0454-0.54657-4.0676-0.4663-13.882-1.4861-13.966-1.5838-4.5378-0.54294-4.1632-0.55548-4.5851-0.68612-4.6908-0.75098-20.231-3.4152-0.32311 0.025583-0.40272-0.18703-0.39186-0.36744-0.2246-0.35203-0.18374-0.41864-0.17038-0.56196-0.12089-0.73369-0.056952-0.79985-0.16681-3.8913 0.020289-1.0791 0.10868-0.89456 0.47264-2.66 0.071957-1.0165-0.074264-2.2989 0.008227-1.0121 0.054501-1.0069 0.15386-1.5953 0.16264-0.90444 0.24261-0.86976 0.32814-0.81177 0.4243-0.7272 0.4993-0.60153 1.1305-1.1002 1.7207-1.837 0.59235-0.54575 0.62967-0.44362 0.72314-0.33026 1.5487-0.50135 1.9819-0.78341 0.713-0.21545 1.4679-0.32531 0.78164-0.082818 1.1936 0.020132 1.2498 0.15883 1.2949 0.26008 1.3309 0.33052 5.4876 1.5245 1.3358 0.3132 4.4988 0.94417 0.28808 0.10938 0.89025 0.097721 4.8386 0.17486 2.675 0.014701 1.4491 0.07542 1.4062 0.15677 1.7245 0.30154 2.1359 0.47786 3.0751 0.77254 2.2235 0.60344 1.884 0.56613 2.6813 0.9369 2.5146 0.93642 2.01 0.8488 1.0845 0.52383 1.7149 0.94213 4.2338 2.6187 0.87444 0.44536 0.50612 0.211 0.84648 0.24105 1.2986 0.011993 0.90065-0.25281 0.90897-0.41418 0.87444-0.54426 2.1211-1.7276 0.93495-0.61216 1.4812-0.78069 1.3583-0.59479 1.0645-0.4079 1.0716-0.29562 1.3983-0.13396 1.3868 0.088171 3.504 0.60842 1.0798 0.31026 1.0205 0.49586 0.66812 0.45207 1.624 1.2962 4.0902 3.4245 1.3257 1.0396 1.4683 1.0221 1.3878 0.80013 1.0884 0.49864 0.80321 0.2832 1.0107 0.23053 1.289 0.069636 1.212-0.11239 0.82234-0.14379 1.8686-0.44292 1.145-0.36396 1.1244-0.43001 1.0089-0.4495 0.87092-0.4751 0.84692-0.54631 1.9855-1.4903 4.9356-3.8173 2.3201-1.6321 1.6461-1.0119 1.6265-0.84004 0.84853-0.36631 1.3215-0.51928 2.638-0.90359 1.0429-0.47167 0.91855-0.62664 0.65961-0.68923 0.57655-0.81939 1.1679-1.8885 0.54072-0.73973 0.56036-0.67941 0.403-0.42664 0.49713-0.41572 0.54469-0.31344 0.60611-0.22173 0.598-0.12146 1.0604-0.084366 2.4422-0.099237 1.6051-0.25028 5.1241-1.192 1.7145-0.25409 1.5323-0.064858 2.8648 0.053262 1.9218-0.019668 0.8024 0.068248 0.6025 0.11807 0.85502 0.24679 1.6842 0.59193 2.2756 0.70714 1.0068 0.35573 2.0048 0.86753 1.0317 0.38516 1.0356 0.32241 1.0344 0.25174 1.0547 0.099314 1.4905-0.21142 1.5865-0.53994 1.6575-0.77904 1.7089-0.9466 1.7446-1.0559 5.3312-3.3484 1.7768-1.0253 1.7603-0.89309 1.7321-0.69255 1.6894-0.4053 0.88159-0.069483 1.5877 0.12999 1.2262 0.39492 1.1785 0.61994 0.74317 0.50002 0.72293 0.55841 1.0939 0.96244 0.69309 0.68116 1.2285 1.4 1.9497 2.3628 0.64305 0.69673 1.3534 1.1975 0.93907 0.59004 0.89123 0.38979 1.526 0.41929 1.2507 0.20294 1.1379 0.11522 1.3604 0.076454 3.3943 0.057284 1.9159 0.087456 1.2909 0.14904 1.0313 0.20442 1.0909 0.33265 1.581 0.75497 1.4702 0.99353 0.99306 0.82638 1.155 1.1324 0.80154 0.93413 0.4436 0.63474 0.13775 0.39048" stroke="#bdc660"/>
    </defs>
    <g clip-path="url(#p9d7500c5f1)">
     <use y="280.512" fill="#bdc660" stroke="#bdc660" xlink:href="#ma225d7565f"/>
    </g>
   </g>
  </g>
 </g>
 <defs>
  <clipPath id="p9d7500c5f1">
   <rect x="7.2" y="7.2" width="347.34" height="266.11"/>
  </clipPath>
 </defs>
</svg>
