<?xml version="1.0" encoding="UTF-8"?>
<!DOCTYPE svg  PUBLIC '-//W3C//DTD SVG 1.1//EN'  'http://www.w3.org/Graphics/SVG/1.1/DTD/svg11.dtd'>
<svg width="301.81pt" height="280.51pt" version="1.1" viewBox="0 0 301.81 280.51" xmlns="http://www.w3.org/2000/svg" xmlns:xlink="http://www.w3.org/1999/xlink">
 <metadata>
  <rdf:RDF xmlns:cc="http://creativecommons.org/ns#" xmlns:dc="http://purl.org/dc/elements/1.1/" xmlns:rdf="http://www.w3.org/1999/02/22-rdf-syntax-ns#">
   <cc:Work>
    <dc:type rdf:resource="http://purl.org/dc/dcmitype/StillImage"/>
    <dc:date>2024-07-04T12:08:58.896824</dc:date>
    <dc:format>image/svg+xml</dc:format>
    <dc:creator>
     <cc:Agent>
      <dc:title>Matplotlib v3.7.1, https://matplotlib.org/</dc:title>
     </cc:Agent>
    </dc:creator>
   </cc:Work>
  </rdf:RDF>
 </metadata>
 <defs>
  <style type="text/css">*{stroke-linejoin: round; stroke-linecap: butt}</style>
 </defs>
 <g id="figure_1">
  <g id="patch_1">
   <path d="m0 280.51h301.81v-280.51h-301.81v280.51z" fill="none"/>
  </g>
  <g id="axes_1">
   <g id="PatchCollection_1">
    <defs>
     <path id="m795298546b" d="m230.87-237.03-0.027657 0.045654 0.017279 0.22252 0.24376 1.0047 0.4118 1.2741 0.5093 1.299 0.73058 1.6158 1.6928 3.4505 0.62782 1.4167 0.58148 1.4328 0.54693 1.437 1.5569 4.2508 0.53215 1.3748 0.78894 1.8794 0.66486 1.4345 0.71623 1.3815 0.78453 1.3153 0.88702 1.275 2.8276 3.7006 1.8188 2.2823 0.49204 0.67296 1.1083 1.6242 0.69324 1.0987 1.0005 1.7231 0.58863 1.1421 0.62592 1.3854 0.55918 1.3896 0.74775 2.078 0.73774 1.7191 0.20825 0.55189 0.14554 0.48989 0.097948 0.4835 0.026452 0.20662 0.019684 0.7349-0.029635 0.38162-0.15721 0.80693-0.23872 0.77054-0.47477 1.3627-0.084574 0.36292-0.00816 0.44461 0.047806 0.20302 0.10774 0.24652 0.27293 0.36496 0.50308 0.42161 0.69958 0.42204 0.93681 0.45058 1.6786 0.66665 2.1225 0.70978 1.2216 0.36985 2.6293 0.74581 6.8547 1.8587 2.5881 0.78662 1.3902 0.49196 0.93549 0.37747 0.80199 0.38006 0.63406 0.40213 0.33941 0.35553 0.13895 0.52794-0.24541 0.47341-0.32399 0.22082-0.58851 0.22222-1.435 0.40083-0.52417 0.17404-0.76521 0.3349-0.46664 0.28231-0.39064 0.3138-0.20727 0.2718-0.029766 0.11561 0.031859 0.11411-0.050098 0.005371-0.13622 0.12246-0.3908 0.50231-0.43508 0.6822-0.40294 0.75618-0.31937 0.78159-0.41891 1.508-0.3192 0.78926-0.60354 1.1364-1.556 2.5661-0.5837 1.0701-0.15044 0.34595-0.11158 0.33626-0.05717 0.32238 0.018045 0.30279 0.090747 0.24042 0.15314 0.21948 0.20541 0.19644 0.39098 0.24849 0.35493 0.15717 0.3885 0.13402 0.84774 0.22313 0.91158 0.19034 4.0444 0.72068-2.6034 2.4489-0.18493 0.21882-0.12507 0.21635-0.024119 0.10568 0.044686 0.1885 0.12559 0.15105 0.1729 0.071535 0.10377-0.012565 0.22456-0.10982 0.48785-0.40086 1.0813-1.0601 0.28925 0.17139 0.29028 0.40988 0.080264 0.15873 0.21234 0.58394 0.097303 0.64815-0.042786 0.60144-0.13616 0.60124-0.35558 1.1473-0.08102 0.32221-0.047831 0.32303 0.001445 0.372 0.083536 0.44112 0.16097 0.45722 0.36641 0.72559 0.47425 0.7434 0.54954 0.75147 0.60027 0.75146 0.63253 0.74428 1.3079 1.4389 1.7622 1.7781 0.56978 0.62216 0.51954 0.65314 0.45502 0.66763 0.37061 0.66608 0.25937 0.64792 0.085208 0.3356 0.067394 0.44886-0.002139 0.41635-0.088499 0.39235-0.14869 0.33721-0.44889 0.75668-0.13646 0.40679-0.015055 0.22006 0.023228 0.21706 0.11463 0.36753 0.20641 0.47897 0.040895 0.24638-0.007542 0.1054-0.10656 0.32256-0.17632 0.30585-0.49882 0.67491-0.56671 0.66776-0.39962 0.36697-0.46296 0.36046-1.1224 0.73119-0.7435 0.41752-0.78114 0.38289-2.0166 0.83538-0.78047 0.37932-0.61764 0.38803-0.48848 0.3913-0.31037 0.33732-0.050713 0.2174-3.1854-0.66853-0.94581-0.22176-3.8855-1.0795-0.94236-0.23403-0.91686-0.18415-0.88491-0.11246-0.84516-0.014254-0.55345 0.05864-1.0394 0.23034-0.50485 0.15255-1.4033 0.5547-1.0965 0.35499-0.51202 0.23384-0.44585 0.3141-0.41942 0.38642-1.2183 1.3007-0.80046 0.77898-0.35353 0.42592-0.30042 0.5149-0.23234 0.57478-0.17178 0.61584-0.11516 0.64039-0.10894 1.1295-0.03859 0.71292-0.005825 0.71664 0.052583 1.6278-0.050949 0.71973-0.33465 1.8835-0.076949 0.6334-0.014366 0.76408 0.11811 2.7553 0.040325 0.56634 0.085598 0.5195 0.12064 0.3979 0.1301 0.29642 0.15903 0.24926 0.27746 0.26017 0.28515 0.13243 0.22878-0.018115-0.009978 0.088815 0.054111 0.25618 0.69894 3.0353 0.82185 3.1974 0.20863 1.0696 0.1498 1.0524 0.08402 0.8202 0.026512 0.80464-0.099077 1.0773-0.24519 1.0418-0.37273 0.98213-0.48797 0.89663-0.59739 0.78261-0.5944 0.56967-1.3069 1.0344-0.83009 0.70419-1.6381 1.4646-0.81494 0.66912-2.0838 1.5064-0.68168 0.42455-1.5717 0.79364-0.62974 0.44658-0.40375 0.51813-0.23301 0.61031-0.060116 0.54349 0.012356 0.5895 0.096769 1.2167 0.19715 1.8249 0.12321 1.7473 0.017006 0.74993-0.063721 0.94784-0.12961 0.94085-0.30908 1.8664-0.22499 0.897-0.39547 0.90139-0.51219 0.82447-1.1403 1.4495-0.44491 0.6737-0.36826 0.78042-0.34784 0.82928-0.43784 0.84221-0.60519 0.81697-0.74707 0.80812-1.6946 1.6447-0.83392 0.86431-0.74384 0.91076-0.58807 0.96931-0.35355 0.90354-0.234 0.92098-0.1596 0.90106-0.092841 0.71696-0.027693 0.66391 0.07002 0.64566 0.14869 0.48281 0.19529 0.22724-0.16903-0.0809-0.29718 0.006653-0.40098 0.076542-0.78469 0.29886-0.87267 0.49364-0.87577 0.64457-0.81017 0.75581-0.68536 0.83576-0.50552 0.893-0.32467 1.0443-0.45848 2.4454-0.15445 0.62515-0.37596 1.0348-0.51084 1.0035-0.6209 0.93663-0.71367 0.83096-0.79643 0.68075-0.87598 0.47786-0.87346 0.23027-0.92108 0.090572-1.9139 0.061504-2.1929 0.20534-3.3628 0.10383-0.83351 0.095667-2.8346 0.44798-1.727 0.34472-1.3001 0.35074-2.2328 0.71655-0.94749 0.24518-0.95693 0.16172-0.68446 0.047959-0.67893 0.001217-0.74496-0.042943-1.1261-0.17651-1.7868-0.43961-0.68343-0.12337-0.73429-0.041307-0.84903 0.095485-0.84966 0.19237-0.94738 0.2645-0.90066 0.36208-0.79006 0.53962-0.39111 0.43432-0.29592 0.44903-0.37312 0.82681-0.27041 0.93264-0.19013 1.0057-0.1284 1.0496-0.30997 3.6484-0.18202 1.1126-0.2454 0.82538-0.25976 0.51004-0.45653 0.51524-0.55473 0.34618-0.60801 0.178-0.2325 0.022685-0.39065-0.00915-0.62661-0.10365-1.3132-0.40934-0.89802-0.1724-0.97138-0.047421-0.98548 0.11023-0.66356 0.18966-0.88391 0.45577-0.70784 0.61115-1.3501 1.5323-0.83446 0.85522-0.91684 0.85134-3.7693 3.3284-0.77717 0.61241-0.82627 0.55161-0.86679 0.47275-1.1364 0.47337-0.86663 0.29058-1.6128 0.37297-0.79764 0.11837-1.7785 0.17423-2.82 0.42838-0.67835-0.037634-0.30637-0.1207-0.24312-0.18766-0.29048-0.48947-0.1894-0.59607-0.23894-0.62488-0.23827-0.38129-0.30007-0.34782-0.50406-0.44058-0.90198-0.71471-0.59111-0.3705-0.28584-0.13192-0.57157-0.17548-1.1325-0.19347-0.45258-0.11913-0.35211-0.13986-0.6364-0.39691-0.58992-0.55619-0.49713-0.68355-0.22605-0.43299-0.50594-1.2289-0.26487-0.80015-0.43046-1.8117-0.15638-0.99953-0.062224-0.95566 0.005047-0.98164 0.052909-0.99348 0.28042-3.2412 0.036058-0.97171-0.042803-0.81686-0.1489-0.77077-0.38989-0.94323-0.53259-0.87633-0.5755-0.84499-0.5204-0.84678-0.36355-0.88102-0.096338-0.49842-0.010956-0.86499 0.14576-0.87662 0.36074-1.0585 0.34465-0.6956 0.49071-0.76113 0.85581-1.051 0.30924-0.50726 0.12764-0.41211 0.024049-0.43048-0.11737-0.54872-0.23126-0.52444-0.23769-0.36925-0.49742-0.61044-0.95585-1.0666-0.47587-0.57699-0.59744-0.83104-0.44524-0.76268-0.79905-1.8237-1.0457-2.1388-1.1644-2.4653-0.30477-0.70089-0.58078-1.694-0.21527-0.53996-0.32328-0.60657-0.24655-0.3623-0.45207-0.57506-0.4952-0.55616-0.9331-0.93545-0.7706-0.73008-0.4606-0.38118-0.45774-0.27265-0.45289-0.11095-0.55075 0.13837-0.53568 0.37076-1.1546 1.1819-0.57623 0.48719-0.5336 0.35756-1.8717 1.0675-1.6585 1.0252-0.75596 0.34451-0.78639 0.18072-0.82729-0.032565-0.75965-0.2139-0.5918-0.32326-0.29151-0.37519-2.6125-1.0032-2.9237-1.2899-1.5729-0.7789-3.2768-1.698-1.7877-0.83427-3.945-1.7324-1.2427-0.61013-1.0093-0.56152-0.93265-0.60019-0.83844-0.64732-0.72314-0.705-0.29632-0.35587-0.64967-0.92601-0.66441-1.0088-0.54619-0.71604-0.62071-0.65357-0.38738-0.35475-0.82834-0.674-1.7983-1.2564-1.0882-0.69412-1.6594-0.99083-1.852-1.0321-3.486-1.8852-2.1996-1.2853-2.3326-1.4914-5.7794-3.8371-2.0795-1.277-1.467-0.81814-2.1262-1.096-1.9365-0.8924-0.95251-0.36431-0.74416-0.22646-0.81596-0.16485-0.72547-0.043298-0.6954 0.088998-0.68987 0.25714-0.49992 0.29523-0.4804 0.36468-0.45562 0.41167-0.44604 0.45375-1.8043 2.0498-1.0306 1.0975-3.5447 3.2935-0.8535 0.73044-0.85457 0.64323-0.85287 0.50973-0.84708 0.32087-0.83545 0.067087-0.62837-0.15427-0.48426-0.23405-0.59532-0.40964-0.74876-0.67795-0.76295-0.86136-0.38573-0.51317-0.48434-0.75479-0.21892-0.40286-0.28204-0.60254-0.44411-1.0731-0.14029-0.27521-0.075763-0.061322 0.22198-0.38492 0.22369-0.89255 0.14963-1.1901 0.018087-1.3209-0.10634-1.3689-0.50445-3.5971-0.24435-1.3223-0.34244-1.3274-0.2855-0.95159-0.87814-2.6496-0.18363-0.70466-0.15784-0.7187-0.72787-3.8526-0.32604-2.1243-0.23899-1.187-0.69702-3.1828-0.46211-1.7845-0.1868-0.58666-0.22149-0.55694-0.32386-0.62959-0.47128-0.75384-1.6814-2.4617-0.70552-1.188-0.82178-1.498-1.7429-3.4568-0.50565-1.0763-0.35631-0.8784-0.34479-1.1212-0.28472-1.2256-0.25064-1.3084-1.659-9.4894-0.50027-3.3292-0.18525-1.5928-0.1321-1.8525 0.003741-0.99634 0.089603-1.087 0.063429-0.4052 0.0669-0.29443 0.11329-0.21434 1.278-2.5812 0.54441-1.1583 1.0129-2.3484 0.41828-1.0796 0.38741-1.0944 0.32162-1.0166 0.28043-1.0226 0.30206-1.3652 0.15877-0.8861 0.23976-1.6718 0.42946-4.0192 0.15533-1.2508 0.44673-3.0243 0.14318-1.2176 0.070062-0.92249 0.034476-1.029-0.008721-1.019-0.044351-0.94428-0.077197-0.92826-0.15163-1.1999-0.20847-1.151-0.30682-1.2082-0.40144-1.0976-0.28755-0.57417-0.33538-0.5148-0.76179-0.75114-0.95587-0.46288-1.1264-0.24138-1.2516-0.078421-1.3418 0.039131-1.4047 0.12136-1.4459 0.17572-5.8596 0.82863-1.2269 0.12742-1.0549 0.069016-1.0039 0.012851-0.70941-0.036588-0.66378-0.085089-0.57958-0.134-0.52064-0.19402-0.56367-0.35091-0.34399-0.35781-0.26865-0.4245-0.28386-0.76346-0.10691-0.56686-0.043453-0.59718 0.056301-0.97416 0.21102-0.98922 0.27686-0.78167 1.4644-3.3029 0.92493-2.2485 2.1639-5.7649 2.7295-7.4556 1.6992-4.4499 1.2213-2.9381 0.66189-1.4479 0.71497-1.4234 0.78853-1.3869 0.88911-1.3339 0.97346-1.2215 1.0747-1.1714 1.1564-1.1364 1.2221-1.1125 1.2734-1.0954 1.3098-1.0805 2.6524-2.0963 4.2339-3.2223 0.26624-0.24072 1.0843 0.32856 3.2367 1.0788 4.5697 1.5743 6.3527 2.2469 3.125 1.0344 1.5437 0.45 1.5376 0.38399 1.5372 0.29671 1.5708 0.19514 1.5737 0.10386 1.5741 0.032144 1.5726-0.026796 1.5694-0.078701 2.2921-0.20358 4.4626-0.61033 3.0134-0.33304 1.5132-0.12893 3.0317-0.20901 3.0262-0.16096 2.9973-0.11137 2.9265-0.028939 1.4148 0.038821 1.3647 0.094268 1.5462 0.21796 1.0902 0.28241 0.73878 0.31228 1.0556 0.72598 0.94498 0.9587 0.86626 1.1282 0.81235 1.2489 0.7779 1.332 2.2742 4.224 0.78071 1.4114 0.8142 1.3776 0.86394 1.3183 0.93356 1.2275 0.78306 0.87423 0.57491 0.58313 0.8416 0.7875 0.88702 0.73796 0.93231 0.64243 0.59114 0.31899 0.60524 0.2418 0.25057 0.072899 0.30047 0.068119 0.5605 0.077515 0.82565 0.006617 0.55814-0.066165 0.49786-0.10944 0.71753-0.2524 0.64518-0.33455 0.77837-0.56477 0.54544-0.50458 0.51622-0.56341 0.60457-0.77394 0.56091-0.83672 0.47258-0.80449 0.43549-0.83826 0.43229-0.95138 0.38198-0.97722 0.32644-0.99488 0.14539-0.52187 0.29857-1.375 0.10989-0.75284 0.10261-1.2202 0.05112-1.1353 0.009188-1.0437-0.045549-1.2111-0.17554-2.6649-0.021591-1.1542 0.05543-1.1644 0.15474-1.383 0.23396-1.378 0.23093-1.0758 0.26862-1.0632 0.30549-1.0446 0.35874-1.0611 0.40283-1.0233 0.45235-0.97318 0.61493-1.0716 0.71725-0.94544 0.84751-0.77642 1.083-0.6104 1.2295-0.42659 1.338-0.30694 2.8814-0.4787 1.4929-0.27828 1.4958-0.37841 0.535-0.17253 1.3754-0.55057 1.3435-0.67948 1.3018-0.78862 1.2433-0.88003 1.1584-0.95329 1.0357-1.004 0.86226-1.0209 0.3507-0.50505 0.22564-0.37445 0.33945-0.70685 0.13585-0.4799-0.058292-0.24846 0.27139 0.21885 5.0041 4.7499 2.4857 2.2923 2.5036 2.2038 1.2545 1.0415 1.2613 0.98718 0.99386 0.72614 1.266 0.85865 1.2766 0.78973 0.96165 0.54053 0.96881 0.49288 0.79755 0.36292 0.80409 0.32234 1.2191 0.39314 1.1793 0.26284 1.1979 0.18608 3.8309 0.48488 1.4031 0.2215 4.219 0.73402 2.9102 0.45862 1.3115 0.1684 1.3001 0.12443 1.2841 0.061669 1.5463-0.037743 0.64074-0.062359 0.87596-0.1374 0.97875-0.21095 0.86446-0.21913 2.8-0.7336 0.88907-0.25893 0.83981-0.32207 0.75163-0.40298 0.84854-0.60528 2.4063-2.073 0.4992-0.40024 0.63104-0.41876 0.78634-0.44459 0.8648-0.40434 1.2606-0.5032 0.39897-0.12406 0.80065-0.12482 0.56151 0.011589 0.34916 0.043044 0.87942 0.18631 0.59623 0.16908 0.93196 0.31926 0.9612 0.40895 0.82198 0.42483 0.82526 0.49054 0.84508 0.56254 0.8358 0.62041 0.70568 0.58171 0.68395 0.62626 0.75142 0.78164 0.86294 1.0617 0.80374 1.1456 0.74814 1.1811 2.4192 4.1461 0.1732 0.22547" stroke="#bdc660"/>
    </defs>
    <g clip-path="url(#p9ef831ffd7)">
     <use y="280.512" fill="#bdc660" stroke="#bdc660" xlink:href="#m795298546b"/>
    </g>
   </g>
  </g>
 </g>
 <defs>
  <clipPath id="p9ef831ffd7">
   <rect x="7.2" y="7.2" width="287.41" height="266.11"/>
  </clipPath>
 </defs>
</svg>
