<?xml version="1.0" encoding="UTF-8"?>
<!DOCTYPE svg  PUBLIC '-//W3C//DTD SVG 1.1//EN'  'http://www.w3.org/Graphics/SVG/1.1/DTD/svg11.dtd'>
<svg width="253.96pt" height="280.51pt" version="1.1" viewBox="0 0 253.96 280.51" xmlns="http://www.w3.org/2000/svg" xmlns:xlink="http://www.w3.org/1999/xlink">
 <metadata>
  <rdf:RDF xmlns:cc="http://creativecommons.org/ns#" xmlns:dc="http://purl.org/dc/elements/1.1/" xmlns:rdf="http://www.w3.org/1999/02/22-rdf-syntax-ns#">
   <cc:Work>
    <dc:type rdf:resource="http://purl.org/dc/dcmitype/StillImage"/>
    <dc:date>2024-07-04T12:09:08.983516</dc:date>
    <dc:format>image/svg+xml</dc:format>
    <dc:creator>
     <cc:Agent>
      <dc:title>Matplotlib v3.7.1, https://matplotlib.org/</dc:title>
     </cc:Agent>
    </dc:creator>
   </cc:Work>
  </rdf:RDF>
 </metadata>
 <defs>
  <style type="text/css">*{stroke-linejoin: round; stroke-linecap: butt}</style>
 </defs>
 <g id="figure_1">
  <g id="patch_1">
   <path d="m0 280.51h253.96v-280.51h-253.96v280.51z" fill="none"/>
  </g>
  <g id="axes_1">
   <g id="PatchCollection_1">
    <defs>
     <path id="m4e2602df15" d="m230.6-192.13-0.10008 0.48771-1.0801 3.514-0.85083 2.2035-2.2463 4.4981-2.4072 4.1205-0.91815 1.8087-0.72537 1.822-0.62589 1.8899-1.2615 4.729-1.1129 3.5209-0.75467 2.0644-1.3203 3.2915-0.45975 1.4166-0.49327 2.2418-0.39903 2.2292-0.46128 1.9911-1.5563 5.7595-0.56116 1.7208-0.6604 1.6769-0.43589 0.98138-0.67951 1.2975-0.77854 1.2511-1.8512 2.6106-1.0386 1.5875-0.99809 1.8567-0.78419 1.71-2.3416 5.8199-2.5252 5.545-1.6432 3.1661-3.9576 7.208-0.89128 1.7799-0.79704 1.7624-0.75277 1.9806-0.66501 2.5146-0.19349 1.393-0.036533 1.3222 0.05362 0.70403 0.43599 1.8207 0.77854 1.6524 0.82495 1.5413 0.57257 1.674 0.069128 0.47158 0.035231 1.0963-0.11643 1.294-0.20891 1.2117-0.61241 2.5239-0.7586 2.4665-0.94868 2.5188-1.2095 2.7039-1.216 2.4382-1.2882 2.3642-1.5899 2.6379-1.8868 2.7042-1.7936 2.1076-1.9688 1.7522-1.3434 0.84931-1.4313 0.59629-2.5733 0.37459-2.7809-0.24369-2.932-0.69556-3.0397-1.018-3.1136-1.2392-3.1605-1.3799-9.541-4.3492-3.1251-1.323-3.5364-1.313-2.5741-0.78655-2.4632-0.56167-2.3037-0.2469-2.0821 0.17996-0.69481 0.19696-0.66151 0.26528-1.2013 0.69291-1.0093 0.84174-0.83161 0.99727-0.67793 1.201-0.25525 0.66953-0.19541 0.76103-0.10281 0.73807-0.018245 0.8683 0.075949 0.80856 0.62216 2.3842 0.75704 1.8425 1.4029 2.7977 4.4479 7.8718 1.3329 2.5016 1.0325 2.1005 0.94957 2.135 0.59365 1.4893 0.71941 2.1098 0.4206 1.4649 0.41733 1.6796 0.45534 2.1921 0.36174 2.1886 0.32003 2.7488 0.15352 2.8816-0.041642 2.2535-0.1721 1.9082-0.39154 2.1186-0.22868 0.62348-0.25036 0.20024-0.25114-9.81e-4 -0.38119-0.18147-1.139-0.81594-2.9909-2.2668-1.6219-1.4781-1.979-2.1324-5.0616-5.8522-1.9595-2.3928-3.2506-4.1394-1.0508-1.2318-1.9149-1.8878-2.2013-1.5201-2.0112-1.0019-2.1278-0.7891-2.5416-0.67858-4.2686-0.81236-6.4876-0.87973-3.1819-0.52619-2.829-0.58664-3.1291-0.78466-3.1626-0.95354-3.8955-1.3629-2.9763-1.1713-2.6867-1.1856-3.1354-1.5105-5.5009-2.7663-5.5565-3.0229-4.0803-2.3558-5.7048-3.513-3.4778-1.9739-1.1671-0.72699-1.3135-0.94089-1.5053-1.2034-4.3953-3.9218-0.98704-0.97674-0.8953-1.0075-1.4336-1.9447-1.0293-1.703-0.61945-1.1931-0.76436-1.7153-0.69301-1.9445-0.97798-3.5652-1.4672-6.4056-0.56135-1.9514-0.75839-2.1082-2.556-6.3066-1.4324-3.1768-1.1221-2.1701-4.0352-6.8026-3.2049-5.7403-0.44553-0.94522-0.55129-1.3812-0.30415-0.94151-0.43034-1.8252-0.20765-1.4098-0.10864-1.2287-0.048623-2.987 0.20576-3.4385 0.7704-7.3758 0.16876-2.4623-8.95e-4 -1.4504-0.067155-1.4336-0.28766-3.1069-1.1249-7.9804-0.43373-3.5662-0.29685-4.2582-0.015759-3.6161 0.27692-3.0511 0.66407-2.7856 0.71315-1.719 2.0114-3.7992 0.51774-1.1016 0.51128-1.3308 0.54308-2.1054 0.32848-2.5612 0.024687-2.1972-0.2057-1.7326-0.41916-0.91636 0.07813-0.29766 0.15269-0.23812 0.32523-0.32827 0.87314-0.59105 1.1547-0.54269 1.6553-0.5008 0.88554-0.15314 1.6647-0.079669 2.506 0.35689 2.552 0.73912 2.567 0.86065 2.5732 0.71802 2.5836 0.31258 1.2344-0.06274 1.3388-0.21741 2.2928-0.67599 1.9324-0.82986 2.193-1.248 1.3584-0.94379 1.7537-1.4291 1.1702-1.161 1.267-1.5787 0.42038-0.60526 0.94632-1.5375 1.0535-2.1012 0.85625-2.0805 1.3991-3.855 0.68107-1.4627 0.88513-1.4261 1.5568-2.2339 0.81504-1.1018 0.99238-1.0909 0.82365-0.6709 1.4955-0.82118 5.3769-2.4077 2.0103-0.77244 2.4853-0.86505 4.9588-1.5826 3.0747-0.86556 1.9346-0.62531 1.8863-0.83489 1.5085-0.93423 1.9401-1.6398 1.7917-1.9096 4.7243-5.7544 1.2794-1.6899 1.1001-1.7413 2.9391-5.4048 1.1403-1.8915 0.80891-1.0933 1.4335-1.4928 1.6336-1.3181 1.0347-0.70505 1.8713-1.0358 2.001-0.85505 2.0785-0.68348 1.9607-0.47862 2.2132-0.33952 1.1031-0.087181 2.2192-0.047987 2.1143 0.16115 1.4094 0.26258 2.5496 0.65276 1.9451 0.64346 0.94671 0.42766 0.85319 0.51507 0.71463 0.61542 0.83947 1.2999 0.39286 1.4933 0.10566 0.92352 0.028964 1.0265-0.12421 1.5097-0.61279 2.9598-0.23748 1.5534-0.02422 1.9414 0.23227 2.0038 0.60545 2.5753 0.97667 2.6955 0.83183 1.5929 0.65068 0.91829 0.68505 0.69315 0.79394 0.55167 1.4165 0.54025 4.7116 0.80152 3.0742 0.66664 1.6924 0.4964 1.8392 0.71796 3.5595 1.5305 1.7796 0.5482 1.5324 0.21668 1.7859-0.005627 2.1682-0.19361 3.6646-0.43647 2.8276-0.38518 1.316-0.23503 1.5638-0.41283 1.4972-0.51481 5.8052-2.236 0.83831-0.22165 0.89797-0.040804 0.46196 0.1529 0.22916 0.17445 0.10755 0.13561 0.14759 0.46097-0.017768 0.54129-0.22151 1.488-0.025631 0.93338 0.21179 0.90264 0.75972 0.91964 1.0446 0.54852 2.2035 0.68307 3.5898 0.87674 1.4296 0.24597 1.4773 0.080632 0.99229-0.072105 0.98462-0.15741 4.8901-1.2718 2.2183-0.45928 1.4376-0.18334 4.79-0.4084 2.4625-0.3865 2.606-0.55355 3.1021-0.86902 2.0917-0.77691 4.8493-2.4563 1.4831-0.41933 1.4486 0.030873 1.3838 0.45441 1.233 0.83872 0.9292 1.053 0.81598 1.2681 1.7548 3.2369 0.88402 1.9892 0.62936 2.2154 0.24333 2.5526-0.099664 2.8057-0.33953 3.0054-0.48637 3.1539-1.4896 8.3382-0.68041 3.2576-1.0343 3.9332-0.54847 1.6425-0.37122 0.95284-0.2213 0.37682" stroke="#bdc660"/>
    </defs>
    <g clip-path="url(#p591dbde2c4)">
     <use y="280.512" fill="#bdc660" stroke="#bdc660" xlink:href="#m4e2602df15"/>
    </g>
   </g>
  </g>
 </g>
 <defs>
  <clipPath id="p591dbde2c4">
   <rect x="7.2" y="7.2" width="239.56" height="266.11"/>
  </clipPath>
 </defs>
</svg>
