<?xml version="1.0" encoding="UTF-8"?>
<!DOCTYPE svg  PUBLIC '-//W3C//DTD SVG 1.1//EN'  'http://www.w3.org/Graphics/SVG/1.1/DTD/svg11.dtd'>
<svg width="192.74pt" height="280.51pt" version="1.1" viewBox="0 0 192.74 280.51" xmlns="http://www.w3.org/2000/svg" xmlns:xlink="http://www.w3.org/1999/xlink">
 <metadata>
  <rdf:RDF xmlns:cc="http://creativecommons.org/ns#" xmlns:dc="http://purl.org/dc/elements/1.1/" xmlns:rdf="http://www.w3.org/1999/02/22-rdf-syntax-ns#">
   <cc:Work>
    <dc:type rdf:resource="http://purl.org/dc/dcmitype/StillImage"/>
    <dc:date>2024-07-04T12:09:00.042283</dc:date>
    <dc:format>image/svg+xml</dc:format>
    <dc:creator>
     <cc:Agent>
      <dc:title>Matplotlib v3.7.1, https://matplotlib.org/</dc:title>
     </cc:Agent>
    </dc:creator>
   </cc:Work>
  </rdf:RDF>
 </metadata>
 <defs>
  <style type="text/css">*{stroke-linejoin: round; stroke-linecap: butt}</style>
 </defs>
 <g id="figure_1">
  <g id="patch_1">
   <path d="m0 280.51h192.74v-280.51h-192.74v280.51z" fill="none"/>
  </g>
  <g id="axes_1">
   <g id="PatchCollection_1">
    <defs>
     <path id="mcf5f234c7a" d="m172.65-157.36 0.089062 0.65557 0.64318 2.5572 1.6747 8.4026 1.2907 7.1085 0.72774 4.796 0.21511 2.0155 0.12558 1.9611 0.020135 1.5511-0.063663 1.3919-0.285 2.0367-1.764 7.1146-2.714 9.9755-2.2134 9.2368-0.94751 2.9772-0.79082 1.8066-1.1535 2.1215-0.47005 0.72204-0.58468 0.81337-1.8827 2.1666-1.2044 1.1827-0.96658 0.84658-3.7234 2.9806-0.99936 0.89307-1.0452 1.0927-0.82449 1.0748-0.49687 0.79242-0.66394 1.2811-0.61746 1.4829-0.45836 1.3333-0.71906 2.6138-0.78518 3.8529-0.79476 5.5155-0.5081 4.9889-0.32469 4.5311-0.14588 3.5853-0.050478 5.8866 0.11703 5.4493-0.029169 2.2718-0.21889 2.0193-0.5953 2.293-0.62387 1.5533-1.1814 2.1836-1.0993 1.5996-1.6063 1.9056-1.1024 1.1015-2.1898 1.8471-1.5149 1.0509-1.3879 0.76656-0.77448 0.31958-1.075 0.28333-0.88997 0.070679-0.99861-0.13536-0.65079-0.22296-0.62681-0.30944-0.78653-0.50426-1.4857-1.2183-3.8698-3.7175-2.06-1.8173-2.6334-2.0121-2.5659-1.7055-3.1723-1.8355-2.0913-1.0394-2.5043-1.0187-1.6788-0.52236-1.7578-0.39418-1.4104-0.19844-1.6439-0.09486-1.5838 0.053402-1.0502 0.11706-1.8664 0.37206-2.2701 0.73636-1.0608 0.45124-1.614 0.82672-1.0577 0.64551-1.2905 0.93342-0.84054 0.79632-0.21817 0.31364 0.005168-0.21364-0.33032-0.63487-0.59777-0.74728-0.60326-0.5981-0.78334-0.63784-1.1828-0.74622-2.1806-0.9948-7.1275-2.3436-1.6893-0.70114-1.4548-0.81578-0.64168-0.47839-0.85482-0.84291-0.57693-0.77939-0.57883-1.0458-0.5025-1.2486-0.43649-1.5802-0.38731-2.1248-0.46706-3.163-0.5066-2.6098-0.58635-2.1587-0.73847-2.0856-1.0543-2.3426-1.0086-1.8885-1.2128-1.9131-2.2299-3.1951-1.0465-1.8592-0.8739-2.1019-1.6681-5.2982-1.271-3.3242-0.70906-1.5273-0.83429-1.4492-1.1278-1.478-1.3225-1.3677-1.475-1.2795-1.6784-1.2683-2.818-1.8428-3.1145-1.7443-13.439-7.2152-3.123-1.8683-1.0879-0.47209-0.34412-0.086824-0.37748 0.038607-0.81258-0.29883-1.12-0.64446-1.3885-0.92373-2.1663-1.7041-2.0857-2.0435-1.8802-2.4358-1.4443-2.7168-1.1507-3.3225-0.74515-3.5818-0.40975-3.8731-0.33268-7.829-0.34325-5.0883-0.049989-2.6724 0.10125-2.3868 0.227-2.3975 0.26724-1.9319 0.33837-1.9229 0.6908-3.0614 1.1083-3.6866 0.88243-2.3097 1.26-2.6868 1.4323-2.5188 1.5742-2.3232 1.8901-2.3078 1.6493-1.6325 1.7311-1.3407 1.2479-0.74074 1.2655-0.622 3.782-1.6731 1.9278-1.034 3.6994-2.1437 2.429-1.2506 3.7375-2.1875 1.4562-1.1098 2.7139-2.277 3.0671-2.2834 1.1959-1.0072 1.2969-1.3056 0.97224-1.2249 1.2871-2.1943 0.50426-1.1027 0.83753-2.206 1.0165-3.3888 1.2378-5.2638 2.085-10.734 0.62591-2.9046 0.59472-2.3292 0.59128-2.0021 0.84405-2.5044 0.85088-2.2412 1.0207-2.4237 1.3979-2.9846 0.80053-1.5617 1.8676-3.2462 1.0127-1.5161 1.4849-1.8947 1.7378-1.7708 1.1397-0.98652 2.9309-2.3262 1.111-0.967 1.0729-1.1327 1.2398-1.8261 2.8817-5.888 1.1208-1.7019 0.50967-0.61165 1.7875-1.7236 2.7189-2.135 1.792-1.3015 1.2012-0.75171 0.59866-0.25518 0.24339-0.008926 0.038756 0.066672 1.1178 0.37152 1.3206 0.17217 5.633 0.31321 1.6315 0.32015 1.8532 0.86628 1.6054 1.3926 1.2142 1.8612 0.58751 1.6838 0.18085 0.83644 0.22578 1.9105 0.019674 2.7668-0.16129 2.5251-0.62345 5.8955-0.10262 2.5374 0.062397 1.4624 0.14192 1.2271 0.39507 1.792 0.79506 2.1229 0.77568 1.3625 1.0392 1.4645 3.0764 3.9637 1.371 2.0657 0.29765 0.54376 0.81069 1.7375 0.76131 2.024 0.63065 1.9855 0.45224 1.9752 0.20079 1.6795 0.061806 1.7555-0.05964 1.8602-0.16049 1.907-0.44461 3.3132-0.36142 2.1183-1.8101 9.1428-0.36278 2.6177-0.05308 2.3495 0.16391 1.2929 0.60912 2.0744 1.0568 1.6017 1.1804 0.80773 1.4065 0.41821 1.5272 0.050436 0.85224-0.12014 2.1268-0.63678 1.9968-1.0621 1.0094-0.77575 2.6184-2.4629 4.1645-3.6662 1.6587-1.3713 1.5635-1.1035 6.5647-4.1009 1.4056-0.76426 0.62954-0.23016 1.2283-0.14782 0.78858 0.30347 0.74746 0.90327 0.28666 0.62356 2.3132 7.1213 1.4351 3.3445 1.9847 4.046 0.81876 1.4592 2.2515 3.5107 2.4421 4.4808 1.5152 2.5619 1.0157 1.446 4.2949 5.4935 0.62628 0.95169 0.47795 0.87137 0.42281 1.0653 0.19157 0.91355-0.28586 0.97007" stroke="#bdc660"/>
    </defs>
    <g clip-path="url(#p7c6f9d9a6f)">
     <use y="280.512" fill="#bdc660" stroke="#bdc660" xlink:href="#mcf5f234c7a"/>
    </g>
   </g>
  </g>
 </g>
 <defs>
  <clipPath id="p7c6f9d9a6f">
   <rect x="7.2" y="7.2" width="178.34" height="266.11"/>
  </clipPath>
 </defs>
</svg>
