<?xml version="1.0" encoding="UTF-8"?>
<!DOCTYPE svg  PUBLIC '-//W3C//DTD SVG 1.1//EN'  'http://www.w3.org/Graphics/SVG/1.1/DTD/svg11.dtd'>
<svg width="142.14pt" height="280.51pt" version="1.1" viewBox="0 0 142.14 280.51" xmlns="http://www.w3.org/2000/svg" xmlns:xlink="http://www.w3.org/1999/xlink">
 <metadata>
  <rdf:RDF xmlns:cc="http://creativecommons.org/ns#" xmlns:dc="http://purl.org/dc/elements/1.1/" xmlns:rdf="http://www.w3.org/1999/02/22-rdf-syntax-ns#">
   <cc:Work>
    <dc:type rdf:resource="http://purl.org/dc/dcmitype/StillImage"/>
    <dc:date>2024-07-04T12:09:04.920452</dc:date>
    <dc:format>image/svg+xml</dc:format>
    <dc:creator>
     <cc:Agent>
      <dc:title>Matplotlib v3.7.1, https://matplotlib.org/</dc:title>
     </cc:Agent>
    </dc:creator>
   </cc:Work>
  </rdf:RDF>
 </metadata>
 <defs>
  <style type="text/css">*{stroke-linejoin: round; stroke-linecap: butt}</style>
 </defs>
 <g id="figure_1">
  <g id="patch_1">
   <path d="m0 280.51h142.14v-280.51h-142.14v280.51z" fill="none"/>
  </g>
  <g id="axes_1">
   <g id="PatchCollection_1">
    <defs>
     <path id="m546578a686" d="m121.97-246.83 0.25557-0.030229 0.53579-0.004582 0.65893 0.025422 0.99045 0.099272 0.87014 0.16683 0.9599 0.32805 0.499 0.28781 0.32127 0.28079 0.24812 0.31236 0.1177 0.20946 0.21775 0.68498 0.091048 0.68882 0.03509 0.44981 0.10492 1.7922 0.008666 0.44466-0.046934 0.62329-0.21441 1.0644-0.19246 0.69512-0.30398 0.88606-0.38588 0.83849-1.2442 1.9029-0.30016 0.68034-0.40452 1.237-0.57219 1.3233-0.21186 0.53875-0.17313 0.64105-0.17182 1.0481-0.046111 0.73616 0.045897 0.73798 0.13243 0.73154 0.46278 1.6627 0.17652 0.8703 0.054161 0.4947 0.029735 1.4941 0.036895 0.55599 0.14433 0.98009 0.33669 1.7007 0.086909 0.561 0.036045 0.48409-0.011809 0.35658-0.056022 0.3358-0.095102 0.28562-0.18393 0.33916-0.24647 0.30089-0.21889 0.19797-0.36232 0.25523-0.2344 0.13618-0.97792 0.44338-0.44043 0.23072-0.56552 0.38878-0.2504 0.21111-0.17864 0.18436-0.32863 0.4337-0.35665 0.61668-0.1876 0.4753-0.16222 0.69105-0.1159 1.263-0.038577 0.81387-0.008381 0.7972 0.044868 1.1134 0.18648 1.9238 0.054635 1.062 0.014768 0.90978-0.014857 0.72069-0.06852 0.98365-0.12966 0.96208-0.21754 1.1398-0.20996 0.79708-0.70297 2.2696-0.1892 0.83069-0.084112 0.59342-0.026196 0.3433-0.007232 0.5184 0.055829 0.75974 0.17314 1.0652 0.37854 1.8866 0.067976 0.54043 0.026584 0.54524-0.011409 0.44599-0.044439 0.46331-0.063265 0.38574-0.093348 0.39618-0.08891 0.27086-0.075126 0.16019-0.098942 0.10337 0.19247 0.13782 1.1557 0.61752 0.65283 0.41285 0.29555 0.22013 0.47633 0.42485 0.46032 0.52656 0.46835 0.70447 0.27201 0.50621 0.2843 0.6212 0.3769 0.99128 0.38335 1.3518 0.13127 0.58783 0.098203 0.61021 0.26187 3.1845 0.23992 2.0283 0.021234 0.6438-0.031324 0.45711-0.10419 0.61064-0.20862 0.72094-0.23596 0.58908-0.18237 0.37934-0.36428 0.64837-0.32139 0.50161-0.31667 0.45713-0.42971 0.56389-0.42886 0.49876-0.4874 0.49709-0.32186 0.29247-0.43573 0.35758-0.45422 0.33324-0.49818 0.32899-0.72203 0.43196-2.9013 1.6046-1.4915 0.87598-3.7956 2.3912-3.6905 2.4286-1.3636 0.82874-1.2551 0.66748-1.51 0.66687-3.4977 1.373-2.1302 0.79159-1.1321 0.47354-1.1873 0.60263-0.38578 0.22687-0.70332 0.47057-0.51439 0.4012-0.53427 0.48785-0.37068 0.40232-0.4341 0.59593-0.1504 0.2678-0.14398 0.31676-0.16617 0.50873-0.11643 0.59781-0.038635 0.36511-0.019991 0.38818 0.003465 0.66174 0.06659 1.0013 0.1359 1.1714 0.17068 1.1663 0.85292 5.0544 0.10864 1.0619 0.085495 1.6223 0.14764 0.959 0.22392 0.85024 0.20197 0.56742 0.2405 0.54393 0.49949 0.84194 0.37939 0.45836 0.4371 0.39281 0.80645 0.48198 0.92887 0.3939 1.007 0.34947 2.0976 0.67709 1.0216 0.38102 0.95687 0.44717 0.85345 0.5461 0.53642 0.47281 0.37424 0.39794 1.461 1.77 0.21648 0.23067 0.45845 0.42608 0.64505 0.46668 0.55782 0.33281 1.5985 0.87312 0.51022 0.31858 0.85993 0.6452 0.84904 0.76689 0.93283 0.97814 0.86418 1.0332 0.69669 0.98886 0.67956 1.158 0.55669 1.1303 0.37338 0.89541 0.31501 0.89411 0.33554 1.1644 0.21311 0.93399 0.21893 1.3133 0.10707 1.1494 0.023112 0.67047-0.013541 0.84856-0.038358 0.58816-0.10039 0.88644-0.14833 0.90963-0.27271 1.2724-0.8747 3.5376-0.17078 0.85364-0.11938 0.79322-0.051227 0.64537 0.019808 0.76178 0.08798 0.56516 0.19996 0.69663 0.16781 0.42792 0.2542 0.54641 1.1126 2.0628 1.1651 2.2405 0.597 1.0086 0.39484 0.56433 0.48089 0.57713 0.65398 0.63518 1.7726 1.4167 0.81211 0.73677 2.0455 2.1615 0.73881 0.81303 0.59734 0.71747 0.57038 0.76024 0.82602 1.2268 1.3679 2.2102 0.51404 0.69608 0.11906 0.12702 0.1056 0.059422-0.93735 0.42494-0.30751 0.17269-0.47301 0.31436-0.35831 0.29672-0.3251 0.33643-0.30568 0.4106-0.16339 0.27459-0.20849 0.42676-0.14265 0.35328-0.75268 2.2902-0.39166 1.0357-0.45596 0.91882-0.43177 0.67892-0.25592 0.3371-0.61418 0.68182-0.68588 0.63806-0.53151 0.43069-1.5823 1.189-0.71353 0.62748-0.39676 0.38811-0.61961 0.68449-0.30192 0.38175-0.28571 0.39522-0.49427 0.7747-0.27151 0.49626-0.29781 0.636-1.0581 2.5931-0.54526 1.6153-0.26521 0.88449-0.12482 0.50674-0.090962 0.54479-0.033125 0.33988-0.014373 0.40217 0.014846 0.38942 0.055967 0.43325 0.075892 0.32951 0.10986 0.3227 0.1007 0.2136 0.092911 0.10957-0.13153-0.096764-0.40548-0.12192-0.52979-0.078246-0.55958-0.024903-0.84088 0.060133-0.48722 0.092738-0.43786 0.12715-0.40709 0.16427-0.23148 0.11799-0.25037 0.15252-0.31639 0.23889-0.33342 0.3264-0.33973 0.44756-0.33911 0.62483-0.22298 0.55662-0.21293 0.6786-0.27028 1.1-0.48317 2.3138-0.38757 1.4966-0.55182 1.7108-0.89131 2.3861-0.11848 0.38896-0.15028 0.62229-0.16101 1.0113-0.067001 0.72126-0.16526 4.0992-0.19011 2.5362-0.13564 1.1309-0.1984 1.0966-0.29104 1.0472-0.41991 0.97908-0.62457 0.95822-0.77323 0.88026-0.88275 0.82284-0.96252 0.78077-1.02 0.74969-1.0612 0.72598-1.0906 0.70645-2.2396 1.3565-1.1407 0.64373-1.1525 0.611-1.1648 0.56599-1.1789 0.50368-1.1965 0.41787-1.2187 0.30095-1.2656 0.15988-1.2847 0.036469-1.2943-0.057797-1.2945-0.1316-1.2842-0.19233-1.2617-0.24644-0.95319-0.2265-0.92293-0.25385-0.88305-0.27839-0.89772-0.32698-0.89158-0.38373-0.80965-0.43289-0.63631-0.46648-0.36551-0.48577-0.052673-0.20129 0.042183-0.3701 0.17432-0.3738 0.60182-0.94993 0.20587-0.41959 0.091639-0.27329 0.062779-0.375 0.002811-0.32663-0.086691-0.55639-0.073657-0.29186-0.45626-1.6149-0.19445-0.57726-0.33349-0.7588-0.30812-0.55581-1.2974-1.9919-0.25804-0.46242-0.36875-0.90652-0.27294-1.0052-0.19968-1.0798-0.14431-1.1354-0.10296-1.1763-0.12274-2.4333-0.22689-11.51-0.053595-4.8652-0.056594-2.4138-0.1472-2.6065-0.43573-6.1323-0.14791-1.3885-0.12342-0.83106-0.15577-0.79663-0.25235-0.9315-0.33188-0.87353-0.42446-0.77086-0.55111-0.63151-0.55381-0.38498-0.58886-0.27345-0.5175-0.17354-1.0107-0.2372-1.148-0.18629-1.7217-0.21028-2.8177-0.20917-1.8041-0.16615-3.5872-0.41293-2.6097-0.18696-2.2245-0.099512-1.1833 0.006601-0.96591 0.068997-0.7781 0.10128-1.0182 0.19577-0.91484 0.24049-0.8988 0.2919-3.6742 1.3393-0.69859 0.23474-0.70997 0.19472-0.4447 0.090162-0.60564 0.081429-0.39466 0.028459-0.84294 0.0054-0.7455-0.04771-0.89525-0.11222-1.9427-0.32724-1.439-0.19554-1.6427-0.14142-1.1582-0.04795-0.72839 0.002457-0.81939 0.047802-3.105 0.35686-1.7134 0.12918-1.2825 0.054682-1.1441 0.02197-1.6665-0.017443-1.0736-0.045429-0.6513-0.053725-0.93706-0.12643-1.004-0.20463-0.45536-0.11808-0.65032-0.20668-0.48574-0.1962-0.43619-0.23296-0.14612-0.11872-0.02669-0.087461 0.36852-0.072987 1.5792-0.14042 1.1223-0.13542 0.89822-0.14937 0.57814-0.12472 0.65192-0.18331 0.74492-0.2908 0.59934-0.32654 0.5296-0.3787 3.6578-3.2555 0.48074-0.49088 0.50223-0.6003 0.42041-0.61625 0.31639-0.5787 0.27124-0.59422 0.23593-0.59953 0.34877-1.1163 0.43861-1.6192 0.16728-0.48426 0.26067-0.51949 0.29625-0.40075 0.35093-0.36954 0.60456-0.53027 0.92115-0.74341 0.7165-0.63968 0.40957-0.43797 0.63059-0.7607 1.3273-1.6817 0.44352-0.64515 0.18549-0.34936 0.20236-0.5286 0.082145-0.33535 0.061304-0.4172 0.023407-0.55463-0.042995-0.58859-0.073195-0.41507-0.13023-0.49195-0.34955-0.9765-1.2576-2.9408-0.47497-1.2032-0.20157-0.56618-0.18986-0.57629-0.31997-1.1058-0.35452-1.5555-0.14907-0.88607-0.095219-0.78659-0.1309-1.8001-0.039221-1.4485 0.030436-3.1389-0.028364-0.95233-0.070759-0.96723-0.097687-0.85836-0.10015-0.6499-0.14157-0.66935-0.19616-0.64304-0.27917-0.61925-0.28193-0.44322-0.30055-0.37758-0.45875-0.4807-0.88351-0.77556-1.0647-0.83975-2.9328-2.2293-1.2443-0.88279-1.7171-1.1564-0.63731-0.50276-0.46472-0.45303-0.30496-0.35883-0.2525-0.34844-0.19271-0.30838-0.28512-0.54253-0.42608-1.0254-0.78872-2.1939-0.30426-0.64607-0.17615-0.26592-0.17448-0.10948-0.075432-0.035571-0.077097-0.10616-0.042721-0.11456-0.038689-0.19102-0.016349-0.32666 0.048772-0.48749 0.063036-0.30935 0.1863-0.63116 0.21418-0.55112 0.26424-0.57161 0.39069-0.72084 1.0369-1.6763 0.42746-0.81984 0.28535-0.69787 0.19863-0.67736 0.096681-0.52948 0.14904-1.0644 0.16794-0.73722 0.19003-0.4704 0.17674-0.31796 0.41292-0.56137 0.39341-0.39934 0.51162-0.40518 0.40405-0.26249 0.7339-0.39423 0.62587-0.28685 2.6883-1.1021 0.71954-0.3173 1.6345-0.79438 0.673-0.30019 1.2305-0.4572 1.8651-0.56618 0.48059-0.19429 0.2442-0.12546 0.20986-0.13038 0.3099-0.25558 0.16941-0.19558 0.15612-0.23999 0.13934-0.28668 0.16521-0.49034 0.072485-0.31676 0.061219-0.41596 0.032726-0.75598-0.034781-0.8578-0.11948-1.0609-0.16512-0.80739-0.24488-0.88685-0.30597-0.86885-0.25328-0.58146-0.28774-0.55127-0.45511-0.68891-0.58374-0.62456-0.26002-0.2039-0.44129-0.27532-0.4231-0.20754-0.56406-0.22273-0.74655-0.24737-2.0147-0.5615-0.72813-0.22962-0.33231-0.12583-0.64539-0.30639-0.2582-0.1537-0.35206-0.25131-0.40146-0.38682-0.20872-0.29418-0.12863-0.2526-0.15178-0.47551-0.075689-0.5834 0.002054-0.5373 0.074333-0.73091 0.1105-0.62903 0.14702-0.6478 0.24334-0.89241 0.25898-0.84358 1.3763-4.1141 0.28397-0.94062 0.19496-0.81201 0.12466-0.9081-0.022777-0.79519-0.17335-0.65427-0.19299-0.36984-0.26228-0.34873-0.34172-0.34075-0.51397-0.40227-0.58039-0.37942-1.1698-0.69839-0.85655-0.57831-0.50552-0.43636-0.42968-0.49842-0.34016-0.58476-0.24471-0.65067-0.12713-0.52699-0.08121-0.55103-0.041338-0.89281 0.031345-0.6674 0.20308-1.3723 0.1153-0.512 0.61039-2.2356 0.27085-1.147 0.16548-1.0264 0.10944-1.0448 0.21116-3.5208 0.10732-1.1982 0.1777-1.1504 0.28932-1.0791 0.45145-0.9784 0.67898-0.87987 0.85766-0.76787 0.98944-0.68171 1.0861-0.61329 1.1571-0.55554 1.2101-0.50213 1.2511-0.44706 1.1983-0.36495 1.2185-0.32168 1.2314-0.2856 1.2389-0.25299 1.242-0.22036 1.2416-0.18419 1.238-0.14077 1.2314-0.086041 1.2215-0.015387 1.208 0.076522 0.92636 0.13636 0.95679 0.20776 3.756 0.99511 1.1028 0.25319 1.1002 0.20457 2.2889 0.28247 0.90884 0.078279 1.0578 0.030664 0.85739-0.049534 1.1401-0.17859 0.8861-0.23202 0.66112-0.234 0.41829-0.17739 0.90918-0.44314 0.41494-0.22976 0.66192-0.4244 0.55011-0.41168 0.82019-0.71524 0.44166-0.43921 0.41914-0.45599 0.95986-1.1432 1.3717-1.5565 0.90281-1.0997 0.8243-1.0808 0.47379-0.72416 0.54404-1.0439 0.45133-1.1046 0.38054-1.141 0.32677-1.1554 0.57004-2.2881 0.33143-1.0108 0.41391-1.0201 0.47984-1.028 0.53122-1.0342 1.3502-2.4237 0.51226-0.96414 0.43105-0.91447 0.36967-0.94239 0.36474-1.2647 0.24077-1.2794 0.12893-1.2481 0.02845-1.1527-0.039678-0.85994-0.060472-0.63576-0.052362-0.30059 0.65337-1.3215 0.33517-0.623 0.36502-0.59636 0.36032-0.52488 0.38944-0.51734 0.81659-0.98117 1.1832-1.327 1.8445-1.9994 1.1387-1.1966 0.5215-0.52519 0.91554-0.86043 1.2674-1.0835 1.8641-1.5339 0.60291-0.52858 0.58704-0.55434 0.50194-0.51962 0.53648-0.61535 0.48276-0.6162 1.3466-1.859 0.69474-0.86332 0.95683-1.054 1.0604-1.0298 0.48088-0.41665 0.55673-0.44065 0.56596-0.40133 0.58185-0.35866 0.53706-0.26737 0.47144-0.16806 0.52264-0.10278 0.60516-0.031337 0.61275 0.040358 0.42954 0.063897 0.51828 0.11432 0.51301 0.15635 0.33118 0.1271 0.56922 0.27104 0.45701 0.26142 1.4403 0.9501 0.54319 0.3067 1.5338 0.77911 1.5408 0.85374 0.93184 0.40577 0.97279 0.35692 0.9542 0.31348 1.0193 0.24217 2.1339 0.36839 1.0581 0.2172 1.0104 0.30584 0.92516 0.45287 0.47826 0.34797 0.43434 0.40117 0.43843 0.49667 0.31666 0.42406 0.24982 0.3773 1.052 1.8314 0.31217 0.50599 0.34289 0.50187 0.40249 0.51714 0.37101 0.41192 0.44236 0.41816 0.75599 0.58571 1.1495 0.73739 0.3141 0.18786 0.13004 0.054129" stroke="#bdc660"/>
    </defs>
    <g clip-path="url(#p52dbebd38c)">
     <use y="280.512" fill="#bdc660" stroke="#bdc660" xlink:href="#m546578a686"/>
    </g>
   </g>
  </g>
 </g>
 <defs>
  <clipPath id="p52dbebd38c">
   <rect x="7.2" y="7.2" width="127.74" height="266.11"/>
  </clipPath>
 </defs>
</svg>
