<?xml version="1.0" encoding="UTF-8"?>
<!DOCTYPE svg  PUBLIC '-//W3C//DTD SVG 1.1//EN'  'http://www.w3.org/Graphics/SVG/1.1/DTD/svg11.dtd'>
<svg width="299.24pt" height="280.51pt" version="1.1" viewBox="0 0 299.24 280.51" xmlns="http://www.w3.org/2000/svg" xmlns:xlink="http://www.w3.org/1999/xlink">
 <metadata>
  <rdf:RDF xmlns:cc="http://creativecommons.org/ns#" xmlns:dc="http://purl.org/dc/elements/1.1/" xmlns:rdf="http://www.w3.org/1999/02/22-rdf-syntax-ns#">
   <cc:Work>
    <dc:type rdf:resource="http://purl.org/dc/dcmitype/StillImage"/>
    <dc:date>2024-07-04T12:09:05.800818</dc:date>
    <dc:format>image/svg+xml</dc:format>
    <dc:creator>
     <cc:Agent>
      <dc:title>Matplotlib v3.7.1, https://matplotlib.org/</dc:title>
     </cc:Agent>
    </dc:creator>
   </cc:Work>
  </rdf:RDF>
 </metadata>
 <defs>
  <style type="text/css">*{stroke-linejoin: round; stroke-linecap: butt}</style>
 </defs>
 <g id="figure_1">
  <g id="patch_1">
   <path d="m0 280.51h299.24v-280.51h-299.24v280.51z" fill="none"/>
  </g>
  <g id="axes_1">
   <g id="PatchCollection_1">
    <defs>
     <path id="m6f3a4e8211" d="m268.46-46.961-0.068958-0.041827-0.33252 0.079805-0.51956 0.25967-0.57966 0.34139-1.5601 0.98965-2.8646 1.954-1.8609 1.14-1.6769 0.87422-2.1781 1.0088-1.2087 0.44291-1.906 0.53438-2.8869 0.66907-3.5869 0.71104-1.4834 0.17592-1.2425 0.033018-5.5381-0.46793-0.95085-0.036116-2.7677 0.007659-0.90543-0.027172-1.4315-0.097989-1.906-0.21014-0.89323-0.058454-4.4833-0.024862-1.4315-0.039656-2.2166-0.1746-4.6937-0.55875-1.0726-0.066808-0.95249-0.008466-1.5446 0.091603-1.7646 0.28305-1.3605 0.32488-5.2575 1.4197-0.64942 0.14818-0.27066 0.013146-0.02794-0.07986-0.48084-0.050257-0.65145 0.026111-1.2821 0.11316-2.2852 0.27859-2.6594 0.45145-1.4153 0.29899-1.8735 0.45328-5.2773 1.4475-5.3828 1.1868-2.166 0.60952-3.0537 1.0418-1.0391 0.40287-1.0212 0.46208-1.3854 0.78378-3.8751 2.5146-1.5008 0.79965-0.95056 0.43485-0.92228 0.38425-1.3225 0.48689-0.807 0.25028-0.90649 0.23189-0.83853 0.16743-0.97581 0.13852-1.4083 0.11714-1.2611 0.053555-1.1381 0.00495-1.6623-0.088115-1.3967-0.16704-3.4142-0.64638-1.0812-0.1567-1.4667-0.072693-1.9601 0.1104-0.97327 0.11845-1.0639 0.19878-3.2357 0.82661-1.4655 0.32224-1.3446 0.24069-1.4412 0.19704-1.7654 0.12843-4.117 0.033322-1.7355 0.071827-5.4771 0.48566-1.617 0.21063-1.9982 0.37704-2.2565 0.52281-2.5721 0.68484-3.172 0.96264-1.7775 0.44769-0.91766 0.14917-0.41068 0.008764-0.50089-0.070844-0.30318-0.098237-0.30144-0.14309-0.51991-0.36547-0.43902-0.4653-0.24018-0.34117-0.35368-0.70722-0.19843-0.63731-0.077685-0.37273-0.083991-0.61187-0.041254-0.59564-0.007364-0.74874 0.072387-1.3596 0.28838-3.7858 0.26148-2.5593 0.36158-2.3041 0.69054-3.2381 0.23133-1.4793 0.043809-0.68472-0.017345-0.81502-0.080164-0.67797-0.10416-0.50764-0.16434-0.56898-0.22406-0.58423-0.3382-0.67703-0.49263-0.75076-0.98085-1.0792-0.65029-0.56469-0.70091-0.53877-0.93769-0.65678-1.6693-1.0905-2.1798-1.3108-1.0678-0.5759-1.3606-0.67068-1.2764-0.58373-4.1512-1.7815-1.7886-0.72767-4.583-1.7213-1.4584-0.62887-1.388-0.71692-1.2684-0.81646-1.17-0.92503-0.86305-0.80895-0.64292-0.66992-2.1469-2.4106-0.52459-0.53593-0.70623-0.64482-0.78403-0.61423-1.0993-0.73264-1.1595-0.59755-0.52518-0.20657-0.7835-0.25304-1.3174-0.30538-1.1312-0.16202-1.5487-0.079991-1.6182 0.071022-0.83498 0.098377-1.1482 0.19522-2.8451 0.61905-1.5 0.29427-7.2887 1.1809-3.2024 0.47538-2.2878 0.27938-1.0605 0.072267-1.1685-0.019127-1.1807-0.17496-0.72003-0.18271-2.9775-0.99883-1.0239-0.2852-0.77402-0.16036-2.5789-0.43241-0.87161-0.23702-0.56411-0.21367-0.6679-0.32911-0.69543-0.45352-0.55875-0.47532-0.52693-0.58552-0.43547-0.66971-0.28039-0.6565-0.14943-0.6686-0.013726-0.67766 0.055818-0.39077 0.12887-0.47912 0.19513-0.49604 0.62409-1.1498 1.6165-2.5013 1.0458-1.4923 1.2185-1.5385 0.99534-1.1532 0.60789-0.64442 0.59019-0.5651 0.65208-0.56 0.95908-0.73613 1.4931-1.0109 3.5868-2.1944 1.0258-0.73732 0.57382-0.48538 0.75146-0.73084 0.87635-0.97951 0.54879-0.683 0.81639-1.1115 0.53009-0.78712 0.69529-1.1332 0.58795-1.0762 0.49984-1.0163 2.5609-5.6567 2.3433-4.855 0.73487-1.6725 0.52064-1.4282 0.32481-1.2024 0.12633-0.65405 0.11976-0.93305 0.056265-0.9198 0.00354-0.90158-0.13211-1.8677-0.15042-1.0579-0.20118-1.0527-0.29007-1.1874-0.58809-1.7967-0.64451-1.4485-0.50007-0.88572-0.40997-0.60866-0.80485-0.95103-0.53171-0.44133-0.33347-0.071055-0.019552 0.098568-0.30552 0.31229-0.6658 0.43239-0.88377 0.43691-0.84648 0.31847-0.66357 0.18644-0.90577 0.16127-1.4491 0.032459-1.4864-0.20514-1.6671-0.45916-1.5349-0.61382-1.4633-0.75309-1.3612-0.8583-1.2275-0.93818-0.98782-0.91538-0.72861-0.81598-0.59046-0.82685-0.60318-1.1674-0.49339-1.1145-0.26328-0.52002-0.41568-0.68462-0.38719-0.47525-0.43656-0.40492-0.29872-0.21824-0.58444-0.34392-1.4737-0.70261-0.39217-0.30124-0.39804-0.60815-0.11968-0.3898-0.19769-1.335-0.11365-0.52562-0.13156-0.40409-0.22174-0.47823-0.58264-0.83021-0.76821-0.81886-1.8083-1.6733-0.83969-0.83389-0.93262-1.1446-0.85789-1.2812-0.79413-1.3683-0.73663-1.4126-0.59065-1.26-0.49944-1.2895-0.45262-1.3088-0.51526-1.5277-0.25527-0.86764-0.259-1.1759-0.1958-1.4944-0.083827-1.1504-0.04746-1.5329 0.031626-1.5574 0.08803-1.0805 0.19708-1.3957 0.36763-1.7001 0.29123-1.0123 0.62555-1.747 0.69686-1.6098 0.73404-1.4862 0.73825-1.3637 0.89506-1.5184 4.8191-7.7747 1.5303-2.6306 1.7753-3.2376 0.76427-1.2703 0.59169-0.8569 0.52039-0.67446 1.9475-2.2339 1.2719-1.5678 0.70741-0.9976 0.81223-1.2998 0.79023-1.4225 0.74388-1.5073 2.8017-6.2129 1.6238-3.7789 0.91293-1.8267 1.4061-2.4808 1.6811-2.8568 1.2937-2.1193 1.1382-1.7848 1.2605-1.8209 1.9566-2.6419 1.0553-1.371 0.75322-0.88326 0.79922-0.7672 0.56752-0.42748 0.6481-0.37376 0.68406-0.26555 0.75598-0.14847 0.77907-0.021141 1.0392 0.1338 0.93491 0.21024 2.0665 0.5657 1.516 0.45685 3.9466 1.289 4.14 1.4197 0.92044 0.26027 0.63938 0.13827 0.81091 0.11308 1.573 0.045529 1.6296-0.13869 1.6623-0.2946 1.6728-0.43353 1.8191-0.61883 1.7299-0.71013 1.0582-0.48392 1.0404-0.50882 4.6284-2.4688 1.4673-0.62963 4.516-1.6658 1.8376-0.51957 1.1418-0.35954 0.71857-0.3122 0.55438-0.32502 0.76313-0.63078 0.66148-0.76642 0.56028-0.86829 0.57495-1.1612 2.6904-5.7488 0.97685-1.8645 0.46212-0.73185 0.53685-0.71638 0.65088-0.70033 0.74009-0.60835 0.51387-0.3238 0.59446-0.30728 0.9012-0.38836 0.94398-0.35671 2.0681-0.66495 6.2724-1.885 2.4364-0.80902 3.1655-1.1916 5.1119-2.0775 2.3002-0.98728 1.4919-0.67758 1.6589-0.7998 1.5569-0.80523 1.0464-0.57859 1.6016-0.9621 0.8164-0.52894 0.45984-0.32594 0.09416-0.10097 0.51309 1.1114 0.44637 1.0994 1.5776 4.042 0.61152 1.6695 1.1628 3.3585 0.73442 2.2286 1.5047 5.3493 0.52053 1.4855 0.60887 1.4127 0.37261 1.0586 0.79326 3.502 0.31973 1.1738 0.37296 1.1769 0.42983 1.1526 0.72303 1.6013 0.43117 0.84477 0.47044 0.78815 0.27256 0.38477 0.82324 0.92519 0.7657 0.59944 0.55736 0.34784 2.443 1.2762 0.91306 0.57258 0.7447 0.62089 0.392 0.40418 0.63069 0.76271 0.51558 0.71897 0.54726 0.85053 0.60498 1.0404 0.78007 1.467 2.165 4.3323 0.41642 1.0164 0.15936 0.78539-0.065347 1.1376-0.40017 1.356-0.56634 1.2313-0.61447 1.0902-1.1671 1.8072-1.4327 2.0686-2.769 3.7257-0.87943 1.2396-0.85765 1.3705-0.81077 1.5239-0.71117 1.5984-0.64489 1.831-0.3635 1.3704-0.23422 1.3849-0.074728 1.1241 0.020477 1.1011 0.099334 1.0355 0.2666 1.4151 0.38767 1.2824 0.50604 1.2326 0.60804 1.1716 0.69848 1.0971 1.5844 2.0359 0.76821 1.0465 0.80033 1.3579 0.68558 1.4724 0.58499 1.5543 0.4925 1.6072 0.40193 1.6332 0.30692 1.6326 0.20073 1.6038 0.076054 1.5436-0.075091 1.4463-0.26153 1.304-0.24812 0.67149-0.50768 0.96745-0.89972 1.3653-0.21214 0.37193-0.14614 0.45874 0.091955 0.29866 0.47897 0.076034 0.7929-0.20764 0.9994-0.4332 1.1146-0.61919 2.1988-1.4508 1.2457-0.9375 0.81202-0.6957 3.9025-3.6096 1.6045-1.3796 1.4176-1.1604 1.9935-1.5701 1.6386-1.2096 1.1971-0.78007 0.7791-0.43736 1.0121-0.47285 0.83118-0.28132 0.68762-0.14059 0.86331-0.059904 0.92082 0.090913 0.75121 0.1793 1.0574 0.36272 1.0968 0.46245 0.75417 0.35635 0.73143 0.39416 0.73558 0.4565 0.64223 0.46301 0.6826 0.5773 0.51833 0.50633 0.55704 0.63803 0.54632 0.77021 0.43432 0.73811 0.36212 0.71279 0.44571 1.0077 0.3217 0.83858 0.2747 0.82334 0.34162 1.2033 0.72655 2.9589 0.3919 1.0548 0.27407 0.51784 0.35944 0.50491 0.35343 0.37073 0.51771 0.39808 0.5352 0.29777 0.61309 0.25668 1.1492 0.34114 0.89677 0.19931 1.1212 0.19962 1.5607 0.21036 2.7652 0.20342 4.047 0.1964 1.0786 0.013326 2.6222-0.11552 1.0003-0.006136 1.0077 0.085999 0.81672 0.16095 0.8607 0.24467 1.4268 0.53541 1.0599 0.48843 1.3869 0.74991 1.5875 1.012 1.6712 1.2364 1.5828 1.303 1.4754 1.3748 1.1319 1.2423 0.76751 0.98504 0.63799 0.94727 0.23118 0.38182 0.72316 1.3831 0.62152 1.4661 0.42146 1.1735 0.38303 1.204 0.74107 2.6989 0.79501 3.3952 2.5612 12.262 0.40599 1.8258 0.75175 2.9808 0.42045 1.4414 0.56836 1.6945 0.65509 1.5952 0.63648 1.2237 0.74542 1.101 0.88384 0.94385 0.34547 0.28454 0.59562 0.41289 0.67168 0.37992 1.1055 0.48859 1.1837 0.39423 1.2452 0.31559 1.8495 0.33472 1.915 0.21441 1.956 0.096575 1.977-0.03078 1.1281-0.082747 1.0418-0.1246 1.3805-0.22586 1.3751-0.2777 4.9273-1.1644 1.7657-0.36702 0.92147-0.15756 1.4884-0.18193 1.0859-0.058465 1.0174 0.019824 1.0249 0.12442 0.88555 0.24826 0.53228 0.2689 0.42324 0.35601 0.17546 0.22844 0.24428 0.49296 0.18084 0.72967 0.052803 0.54444-5.53e-4 0.59497-0.062286 0.65168-0.20044 1.0345-0.28938 1.0383-0.50483 1.4507-1.2346 3.1901-0.64047 1.7544-0.49506 1.5004-0.71911 2.5404-0.67575 2.7916-0.29733 1.3738-0.39431 2.0953-0.40053 2.7232-0.45637 3.9027-0.17867 1.2911-0.40037 2.0961-0.2646 1.0459-0.51911 1.7435-2.3039 6.7296-0.4513 1.4152-0.35889 1.2479-0.31785 1.2649-0.33598 1.6695-0.18361 1.2731-0.14822 1.8112-0.014606 1.9922 0.14063 2.0508 0.27586 1.9573 0.18687 0.9684 0.1922 0.841 0.2569 0.92037 0.162 0.35524" stroke="#bdc660"/>
    </defs>
    <g clip-path="url(#p45e5f1f490)">
     <use y="280.512" fill="#bdc660" stroke="#bdc660" xlink:href="#m6f3a4e8211"/>
    </g>
   </g>
  </g>
 </g>
 <defs>
  <clipPath id="p45e5f1f490">
   <rect x="7.2" y="7.2" width="284.84" height="266.11"/>
  </clipPath>
 </defs>
</svg>
