<?xml version="1.0" encoding="UTF-8"?>
<!DOCTYPE svg  PUBLIC '-//W3C//DTD SVG 1.1//EN'  'http://www.w3.org/Graphics/SVG/1.1/DTD/svg11.dtd'>
<svg width="280.77pt" height="280.51pt" version="1.1" viewBox="0 0 280.77 280.51" xmlns="http://www.w3.org/2000/svg" xmlns:xlink="http://www.w3.org/1999/xlink">
 <metadata>
  <rdf:RDF xmlns:cc="http://creativecommons.org/ns#" xmlns:dc="http://purl.org/dc/elements/1.1/" xmlns:rdf="http://www.w3.org/1999/02/22-rdf-syntax-ns#">
   <cc:Work>
    <dc:type rdf:resource="http://purl.org/dc/dcmitype/StillImage"/>
    <dc:date>2024-07-04T12:09:06.383820</dc:date>
    <dc:format>image/svg+xml</dc:format>
    <dc:creator>
     <cc:Agent>
      <dc:title>Matplotlib v3.7.1, https://matplotlib.org/</dc:title>
     </cc:Agent>
    </dc:creator>
   </cc:Work>
  </rdf:RDF>
 </metadata>
 <defs>
  <style type="text/css">*{stroke-linejoin: round; stroke-linecap: butt}</style>
 </defs>
 <g id="figure_1">
  <g id="patch_1">
   <path d="m0 280.51h280.77v-280.51h-280.77v280.51z" fill="none"/>
  </g>
  <g id="axes_1">
   <g id="PatchCollection_1">
    <defs>
     <path id="m6d8344073d" d="m254.52-96.343-0.13124-0.094017-0.34353-0.39085-1.5348-2.0906-0.66722-0.76108-0.93265-0.86419-0.49573-0.37833-0.64158-0.40148-0.91624-0.44762-0.99766-0.40554-1.7371-0.65297-1.3546-0.4613-1.2041-0.30816-1.5752-0.2131-1.6992-0.11796-1.8976-0.011077-1.2513 0.050471-3.0762 0.27902-1.537 0.015493-1.448-0.080337-1.0274-0.11685-2.5789-0.38053-2.8501-0.47319-0.709-0.060573-1.0749 0.028673-0.94205 0.18272-0.89176 0.29031-0.98104 0.41058-1.9441 0.956-0.97213 0.55475-0.69539 0.47889-0.94732 0.79565-0.59469 0.58868-0.841 0.94842-0.95143 1.2194-2.5575 3.7054-0.81432 1.2947-0.69957 1.3103-0.37074 0.86256-0.27821 0.75659-0.65388 2.0889-0.22365 0.78317-0.15933 0.73524-0.052719 0.88988 0.12331 0.79492 0.29232 0.67975 0.88962 1.4009 0.41583 0.98242 0.22447 0.792 0.27564 1.304 0.16573 0.6272 0.86006 2.4726 1.1244 3.8409 0.2465 1.1254 0.24928 1.617 0.1204 1.1857 0.082888 1.4998-0.002056 1.7609-0.050791 1.0515-0.087824 1.0419-0.18142 1.3909-0.32153 1.6063-0.44799 1.4964-0.47192 1.1029-0.58909 0.97327-0.68774 0.79508-0.82157 0.72033-2.5314 1.9078-0.86464 0.70351-0.44513 0.39891-0.84692 0.88224-0.57511 0.73322-0.77885 1.1513-0.81867 1.4282-2.0107 3.1666-0.28788 0.52279-0.75039 1.6136-0.81811 1.5462-0.33007 0.55478-1.0718 1.5263-0.78288 0.909-0.86176 0.85127-0.91281 0.77573-1.679 1.2734-1.1002 0.98678-1.2205 1.32-0.62634 0.78304-2.2704 3.1384-1.4468 2.1465-0.97914 1.6667-2.373 4.3248-0.69915 1.0963-0.42661 0.57347-0.056109 0.067884-0.11953 0.094674-0.077176 0.043746 0.042322 0.08139-0.48594-0.022553-2.6257-0.44797-2.0136-0.29463-2.1487-0.22119-1.1343-0.076143-1.9596-0.074166-7.9331 0.011267-4.2122-0.093294-1.8132-0.091041-1.6867-0.13918-1.0414-0.13472-1.0643-0.19431-0.90446-0.21606-3.1391-0.87976-4.4582-1.1472-4.1979-1.2231-1.5199-0.54131-1.3621-0.69865-1.3152-0.83832-2.5413-1.7755-1.2458-0.77987-1.2396-0.59576-1.2398-0.31501-1.276 0.046748-1.2388 0.36082-0.96862 0.45777-2.6037 1.3591-0.88695 0.40158-1.2502 0.444-0.97398 0.21239-0.60236 0.061979-1.1983-0.067773-1.2501-0.39713-1.2133-0.68478-0.92544-0.69588-0.90655-0.80863-1.1806-1.2137-1.2014-1.3793-1.6793-2.0866-1.705-2.2644-2.1068-2.9866-6.5837-9.8955-2.2051-3.1868-2.0466-2.7364-2.1695-2.6937-1.7205-1.8676-1.037-1.0171-0.85016-0.77267-0.8477-0.70678-0.91676-0.67476-0.91315-0.54555-0.88412-0.36881-0.76786-0.17268-0.76964-0.068137-0.58706-0.009757-2.0713 0.021437-1.2406 0.049556-1.2282 0.15628-1.072 0.27304-2.498 0.88988-1.0979 0.3156-1.949 0.36919-2.9706 0.76255-2.2908 0.37581-1.1408 0.27126-1.1821 0.35733-1.2071 0.41937-4.1218 1.526-1.8048 0.7378-1.6431 0.79177-0.84608 0.48743-0.53034 0.34919-1.124 0.87925-1.079 0.96875-1.4117 1.3378-1.7091 1.737-4.1496 4.3923-2.7868 2.6171-0.48436 0.5056-0.35008 0.42872-0.037452 0.037781-0.13583-0.024482-0.3248-0.14782-0.69494-0.42702-0.60545-0.43593-1.4851-1.228-0.85886-0.79499-0.85313-0.85111-1.9996-2.1717-0.95998-1.1472-0.51792-0.69579-0.46043-0.71333-0.47425-0.90107-1.3355-2.9545-1.2681-2.541-0.43045-0.97619-0.19128-0.52886-0.14854-0.52899-0.13617-0.80209-0.20761-2.2153-0.25497-1.2612-0.94246-3.7051-0.20461-0.60168-0.81944-1.9611-0.16832-0.61012-0.32116-1.5112-0.17412-0.57442-0.2163-0.436-0.17244-0.18788-0.47094-0.29063-0.18618-0.15147-0.243-0.32804-0.41734-0.98065-0.82578-2.3048-0.66017-1.476-0.84668-1.568-1.7542-2.8384-0.43082-0.72364-0.31672-0.61042-0.20569-0.52399-0.12708-0.53968-0.025832-0.42702 0.14193-0.31528 0.061963-0.11242 0.5342-0.17251 0.51892-0.086058 1.5025-0.11209 1.8299-0.022542 6.0354 0.10394 1.8952-0.028776 1.7294-0.11971 1.5056-0.2494 1.2194-0.42297 0.93512-0.64043 1.2242-1.1814 0.75942-0.62187 0.63054-0.37794 0.68998-0.25919 1.1078-0.12319 1.1863 0.10154 3.1925 0.65662 0.63985 0.07497 0.63859 0.008122 0.37045-0.033405 0.98101-0.25122 0.61826-0.27789 0.59113-0.35676 0.70083-0.55912 0.84073-0.95433 0.52602-0.93321 0.31294-1.1115-5.38e-4 -1.2212-0.1693-1.0073-0.78657-3.2392-0.14776-1.1738 0.051286-1.1507 0.19872-0.80891 0.50629-1.159 0.77635-1.2433 2.2754-3.0768 1.6712-2.0358 1.1706-1.5668 1.2526-1.5539 0.54708-0.83136 0.26052-0.65336 0.089802-0.48164 0.029565-0.44163-0.01471-0.64724-0.069441-0.71238-0.1451-0.91711-0.46401-2.1332-0.68945-2.8211-0.65019-2.4132-0.61537-1.9733-1.4063-4.1437-0.39373-1.4253-0.25029-1.3185-0.078984-0.73579-0.011321-1.1156 0.21436-1.4163 0.66309-2.6524 0.10772-1.3081-0.15807-1.0611-0.34713-1.0783-0.48407-1.0919-0.5746-1.1023-0.64703-1.1353-0.69752-1.1135-0.75044-1.0616-1.6155-2.051-0.76046-1.1667-0.70073-1.2835-0.64593-1.376-0.59383-1.4482-0.54213-1.5035-0.57741-1.8226-1.0799-3.6971-0.57492-1.8166-0.37124-1.0338-0.76972-1.7654-1.7484-3.4184-0.80925-1.6968-0.6408-1.7149-0.40796-1.7726-0.24294-1.7737-0.1446-1.8323 0.052835-1.752 0.17468-1.7134 0.48984-3.5311-3.26e-4 -0.94811-0.1968-0.64482-0.34377-0.30754-0.27219 0.01638-0.30277 0.19988-0.26291-0.30592-0.20018-0.65-0.094267-0.86924 0.037284-0.8938 0.12499-0.96522 0.21487-1.2131 0.31503-1.2399 0.47598-1.2164 0.7917-1.305 1.0014-1.2261 1.1227-1.1636 2.2814-2.2142 1.0058-1.0879 0.81476-1.0999 0.58945-1.1338 0.4683-1.1164 0.49578-1.0507 0.59898-0.90698 1.5352-1.9515 0.68955-1.11 0.53242-1.2135 0.3029-1.2076 0.41611-2.5127 0.17449-1.2666 0.085787-1.2761-0.022895-1.0096-0.16588-2.3523-0.26541-2.4568-0.13028-1.638-0.016636-0.79363 0.080934-0.73169 0.31369-0.82165 0.54356-0.69754 0.84781-0.60121 2.1159-1.0685 0.91772-0.57157 2.8053-2.028 1.0971-0.90083 2.2054-1.9717 1.1175-0.94804 1.7595-1.3926 0.80023-0.76694 0.80425-1.0536 0.65694-1.2071 0.5018-1.3222 0.3301-1.4025 0.13339-1.4503-0.035693-1.0833-0.11311-1.1042-0.20168-1.4168-0.28088-1.44-1.1064-4.3046-0.94097-4.0864-0.072849-0.34489 0.013433-0.11957 19.285 3.2555 4.4715 0.71586 4.3707 0.65404 3.9686 0.5295 4.3256 0.51755 13.313 1.5097 13.233 1.4166 3.8774 0.44449 3.8562 0.52101 1.9143 0.3119 1.9004 0.36367 1.8817 0.43326 1.4092 0.38728 1.0068 0.31546 1.9919 0.71521 1.2509 0.49573 9.0597 3.8223 12.332 5.0926 2.9238 1.2624 2.345 1.0846 1.3434 0.68557 1.1237 0.65993 0.8286 0.62891 0.43762 0.5913-0.021997 0.57304-0.34542 0.58879-0.4722 0.67052-0.26571 0.46542-0.22582 0.57742-0.14301 0.86808-0.001667 0.9333 0.066118 0.71873 0.50094 2.4183 0.12131 0.88445 0.063904 1.0262-0.033016 1.011-0.28599 1.9834-0.095147 0.95574-0.22542 4.2694-0.29467 2.8724-0.011616 0.81345 0.091722 1.2952 0.31833 2.6672 0.05284 0.93984-0.025047 0.94579-0.10993 0.8638-0.18279 0.86598-0.2778 0.99276-0.63395 1.8174-0.49635 1.1662-1.3885 2.9804-1.0854 2.2283-0.61251 1.38-0.53676 1.4825-0.37714 1.4754-0.19295 1.4468-0.026478 0.85994 0.051829 0.82585 0.24813 1.5334 0.23039 0.92468 0.91569 3.2551 0.2625 0.81956 0.30023 0.7131 0.4486 0.80058 0.55443 0.68728 0.66037 0.59762 0.73628 0.49639 0.78807 0.39477 1.7659 0.71646 1.0163 0.36583 1.6721 0.46199 0.44494 0.15321 0.48591 0.22201 0.3051 0.18149 0.48458 0.35625 0.40372 0.35315 0.84511 0.86709 1.0668 1.1925 0.47656 0.44907 0.67416 0.46332 0.76209 0.329 0.57732 0.081574 0.24127-0.004019 0.55872-0.067221 1.2366-0.22234 0.64684-0.064826 1.1088 0.022992 1.6975 0.15834 1.55 0.062624 1.0701 0.092832 0.77868 0.13459 1.0777 0.29856 1.0783 0.41968 0.70447 0.33179 3.817 1.9692 1.2625 0.57971 1.3548 0.54512 0.85575 0.29757 0.96502 0.28164 4.6431 0.97225 1.2045 0.31984 0.98828 0.40616 0.83201 0.47894 2.5345 1.7153 1.2485 0.94593 1.3178 1.1308 0.53599 0.41387 1.0852 0.6535 4.0995 1.8132 1.132 0.5857 0.66664 0.39607 1.2846 0.92458 0.70748 0.60631 0.64538 0.62135 0.59287 0.65207 0.45537 0.6207 0.263 0.47753 0.16275 0.41335 0.14663 0.72819 0.001809 0.56673-0.075037 0.53313-0.68277 2.2823-0.18128 0.77022-0.090038 0.87432 0.02319 0.41232 0.11447 0.51744 0.15014 0.35419 0.49998 0.68622 0.389 0.34613 0.49844 0.33052 0.51772 0.26071 0.74901 0.29093 0.84016 0.25963 2.1895 0.53723 4.4951 0.94814 1.7943 0.42516 2.1355 0.65764 2.3966 0.91413 1.7283 0.77468 1.3317 0.66773 1.1263 0.61552 1.1568 0.68489 1.7182 1.1106 1.3023 0.91813 0.87864 0.69424 0.72113 0.65725 0.84324 0.94149 0.75747 1.1384 0.40434 0.85338 0.44736 1.61 0.17609 1.7368-0.028858 1.8368-0.18207 1.9172-0.31479 2.0957-0.40744 2.1572-1.0005 4.4676-1.7555 6.9879-2.8464 10.839-0.32704 1.3012-0.07894 0.49502" stroke="#bdc660"/>
    </defs>
    <g clip-path="url(#p1059d7e9fb)">
     <use y="280.512" fill="#bdc660" stroke="#bdc660" xlink:href="#m6d8344073d"/>
    </g>
   </g>
  </g>
 </g>
 <defs>
  <clipPath id="p1059d7e9fb">
   <rect x="7.2" y="7.2" width="266.37" height="266.11"/>
  </clipPath>
 </defs>
</svg>
