<?xml version="1.0" encoding="UTF-8"?>
<!DOCTYPE svg  PUBLIC '-//W3C//DTD SVG 1.1//EN'  'http://www.w3.org/Graphics/SVG/1.1/DTD/svg11.dtd'>
<svg width="371.52pt" height="202.12pt" version="1.1" viewBox="0 0 371.52 202.12" xmlns="http://www.w3.org/2000/svg" xmlns:xlink="http://www.w3.org/1999/xlink">
 <metadata>
  <rdf:RDF xmlns:cc="http://creativecommons.org/ns#" xmlns:dc="http://purl.org/dc/elements/1.1/" xmlns:rdf="http://www.w3.org/1999/02/22-rdf-syntax-ns#">
   <cc:Work>
    <dc:type rdf:resource="http://purl.org/dc/dcmitype/StillImage"/>
    <dc:date>2024-07-04T12:08:58.308719</dc:date>
    <dc:format>image/svg+xml</dc:format>
    <dc:creator>
     <cc:Agent>
      <dc:title>Matplotlib v3.7.1, https://matplotlib.org/</dc:title>
     </cc:Agent>
    </dc:creator>
   </cc:Work>
  </rdf:RDF>
 </metadata>
 <defs>
  <style type="text/css">*{stroke-linejoin: round; stroke-linecap: butt}</style>
 </defs>
 <g id="figure_1">
  <g id="patch_1">
   <path d="m0 202.12h371.52v-202.12h-371.52v202.12z" fill="none"/>
  </g>
  <g id="axes_1">
   <g id="PatchCollection_1">
    <defs>
     <path id="mea2968799f" d="m315.55-167.47-0.048549 0.23462 0.29264-0.13137 0.46586-0.28681 2.5763-1.654 1.1927-0.65487 1.2387-0.54972 1.142-0.35197 1.1365-0.16006 1.5521 0.15315 1.4696 0.52557 1.3482 0.80298 0.86168 0.6868 0.59031 0.55101 0.57531 0.63095 0.58365 0.77495 0.55801 0.91605 0.2905 0.58572 0.45375 1.2847 0.25933 1.201 0.1213 0.97534 0.026461 0.97658-0.082071 0.96096-0.47868 2.6291-0.12936 0.96735-0.03702 0.67715 0.025387 0.72258 0.17748 1.085 0.32374 1.1036 0.35285 0.91009 0.44061 0.95576 1.0917 1.983 0.93284 1.486 0.95816 1.4179 2.1664 3.0798 1.0038 1.5288 0.75472 1.3369 0.84518 1.9094 0.44933 1.3133 0.48065 1.9418 0.21273 1.4075 0.097366 1.3794-0.042595 1.9566-0.16932 1.4554-0.2111 1.1015-0.9613 3.7238-0.34346 1.7065-0.11701 1.0095-0.025205 1.1658 0.12837 1.2084 0.23527 1.0536 0.27544 0.84988 0.5432 1.1673 0.75868 1.0997 4.0068 4.4881 0.88722 1.2131 0.36506 0.753 0.26552 0.74128 0.46 1.5042 0.1169 0.56715 0.06527 0.62672 0.024204 0.99329-0.017847 0.82924-0.046868 0.33945-0.21743 0.62652-0.29179 0.41969-0.59559 0.52075-0.5143 0.3205-1.261 0.61708-4.3736 1.752-1.0847 0.49783-1.342 0.76259-1.172 0.77813-1.3066 0.97418-1.0133 0.86057-0.33091 0.3134-2.0015 2.2083-0.88593 0.90607-0.63665 0.54651-1.2178 0.81185-1.2286 0.62768-3.7917 1.5757-5.2254 2.4549-1.3611 0.74321-1.3651 1.0052-0.9979 1.099-0.70016 1.1332-0.3706 0.9888 0.039362 0.63343 0.085447 0.3642-0.19913 0.70345-0.49758 1.0361-0.33075 0.54887-0.51406 0.74031-1.2639 1.4964-1.5182 1.4717-1.6981 1.3974-1.8225 1.29-1.9082 1.156-1.9693 0.996-2.0162 0.80704-0.78422 0.25289-2.1926 0.55469-2.1883 0.40791-4.2237 0.70168-1.9613 0.44992-1.8023 0.6253-1.5875 0.89474-1.2423 1.1381-1.0514 1.3859-0.90138 1.5708-0.66307 1.4265-0.59047 1.5-0.52585 1.5554-0.44779 1.5311-0.39375 1.5584-0.3385 1.577-0.34294 2.02-0.22683 2.0273-0.081251 1.7068 0.03165 1.6919 0.25731 3.9063 0.066768 1.7753-0.013469 1.5298-0.074933 1.6642-0.15041 1.7886-0.16108 1.1035-0.43766 2.0155-0.21312 0.76496-0.4785 1.4583-0.55992 1.4324-0.63366 1.3946-0.63835 1.2287-0.69272 1.1792-0.82219 1.2265-0.88619 1.1345-0.75669 0.82586-0.79952 0.73963-1.141 0.82785-0.94571 0.49039-1.0518 0.36998-0.72978 0.16042-0.81814 0.096987-1.2103-0.0097-0.8216-0.11362-0.44044-0.09985-0.36729-0.10686-0.88717-0.35443-0.86651-0.46758-1.3666-0.94169-1.3002-1.0817-1.2336-1.1543-0.84272-0.85476-1.1478-1.2815-1.3684-1.7993-1.2664-1.9325-1.1935-2.0193-1.1444-2.0688-3.3336-6.1917-1.1403-1.9525-1.1908-1.8307-1.2698-1.6537-1.3852-1.4053-1.5474-1.0642-1.0829-0.45775-1.5981-0.41397-2.2665-0.3195-2.0005-0.13818-2.0739-0.056904-4.2897 0.042419-4.3935 0.16325-4.4358 0.23594-4.444 0.30637-2.2182 0.18899-4.4172 0.48818-6.5414 0.89464-3.3598 0.29841-2.3005 0.11536-2.3051 0.039278-2.3073-0.047117-2.3067-0.15224-2.3025-0.28604-2.2533-0.43492-2.2539-0.56286-2.2627-0.65962-4.5806-1.5162-9.3119-3.2935-6.6984-2.3077-4.7445-1.5813-1.5895-0.48161-0.21506-0.18562-0.55108-0.28543-1.358-0.56706-1.2065-0.421-1.2445-0.36486-1.2877-0.30631-2.0417-0.32317-0.94006-0.074105-1.5343-0.015388-1.1372 0.080999-1.85 0.3008-1.5121 0.43719-1.1002 0.4742-1.0454 0.5667-2.7382 1.7-1.0297 0.58127-1.051 0.53049-1.4955 0.62357-1.5224 0.41838-1.5714 0.22373-1.5934 0.030841-1.5906-0.17014-0.90537-0.19277-2.1868-0.72166-1.2068-0.53512-0.95761-0.48488-1.1042-0.62344-4.9937-3.1362-1.5955-1.068-2.6134-1.8461-2.3599-1.5453-1.6065-0.95321-1.451-0.80904-2.0592-1.0629-1.7917-0.82375-0.93169-0.38297-1.5198-0.55058-1.7376-0.52078-1.1243-0.2914-2.9441-0.66158-11.628-2.4162-1.496-0.3769-2.7635-0.81392-1.7742-0.59445-1.5055-0.59254-1.4311-0.66921-1.3941-0.74996-1.229-0.78265-1.0621-0.80468-1.0799-0.99015-0.81216-0.90981-0.80094-1.1108-0.60465-1.0652-0.37304-0.81246-0.2637-0.68546-0.40457-1.3135-0.80197-3.3678-0.65082-3.2378-0.49561-3.3318-0.19943-0.99498-0.31721-1.1186-0.5274-1.291-0.29931-0.57552-0.66778-1.0991-0.60064-0.87123-4.3837-5.6792-1.7465-2.1152-2.0179-2.1991-2.7851-2.8051-1.3956-1.3471-1.3983-1.2805-1.0101-0.84705-1.0681-0.81738-1.1717-0.82768-2.1267-1.3884-4.8502-2.9524-1.8915-1.1995-1.9571-1.3451-0.89162-0.67373-1.4343-1.2051-1.2626-1.2626-0.68767-0.84202-0.7188-1.1027-0.60162-1.1663-0.37489-0.87118-0.36398-0.99632-0.30281-1.0086-0.30486-1.3642-0.17238-1.3496-0.029014-0.7811 0.1126-1.3477 0.23638-1.034 0.29175-0.82921 0.31204-0.68273 0.71999-1.2032 0.24768-0.3396 1.0262-1.1876 1.063-1.0363 4.1039-3.5508 1.0978-1.1179 0.82537-1.0455 0.40389-0.73247 0.11295-0.44155-0.027109-0.15815-0.12153-0.12422 0.70054-0.60932 1.3147-1.3439 4.3684-4.221 0.83804-0.86442 0.79523-0.93577 2.6853-3.342 4.3985-4.8252 1.0796-1.3068 0.84888-1.2297 0.71645-1.3815 0.78283-1.7995 1.6782-4.189 0.5656-1.2012 0.36161-0.6431 0.45631-0.69554 0.40018-0.49143 0.54361-0.51266 0.60822-0.3921 0.36806-0.15514 0.2933-0.088117 0.88082-0.13004 0.90021 0.014232 0.61505 0.070531 0.73836 0.14086 1.2863 0.38777 0.62486 0.24766 0.99425 0.46144 1.658 0.91158 1.808 1.0839 0.41776 0.42482 0.64624 0.53155 1.3819 0.98388 0.86888 0.51953 0.95004 0.50307 1.0019 0.46862 1.9419 0.7274 1.3408 0.3694 1.7528 0.36428 1.7142 0.14852 1.3397-0.094236 1.3187-0.23803 1.774-0.48278 0.95242-0.36444 1.4168-0.64564 3.4535-1.7287 1.3203-0.67216 1.2266-0.71536 0.67977-0.48664 0.9591-0.89169 0.8414-1.0089 0.73991-1.0693 1.2194-1.9525 1.4175-2.1548 0.39498-0.56366 0.41334-0.49835 0.8199-0.65127 0.98824-0.32819 1.2946 0.11836 1.4408 0.5466 1.5352 0.86704 1.5858 1.1089 1.4698 1.1861 1.4509 1.3151 1.403 1.4264 1.4692 1.7118 1.4029 1.9192 3.0432 4.6773 1.0072 1.4401 1.1517 1.4333 1.1982 1.2115 1.2466 0.91882 1.1981 0.55098 2.0658 0.59213 1.1009 0.38833 1.1757 0.61266 1.955 1.32 0.54956 0.32808 0.85501 0.39658 0.92391 0.27647 0.76544 0.1177 0.79664 0.05993 4.4743 0.26678 0.71332 0.095861 0.79259 0.17128 0.77338 0.24364 1.2694 0.56153 1.2684 0.63477 3.0666 1.4253 3.7911 2.0467 4.173 2.1255 3.5125 1.7115 1.0306 0.4049 0.9411 0.23653 1.3489 0.17136 2.9908 0.21453 3.4565 0.12724 1.561 0.154 1.435 0.24861 1.3335 0.33839 0.85008 0.28184 0.8119 0.34262 2.0708 1.0017 1.1495 0.44186 0.93982 0.18338 0.99921 0.00624 0.94382-0.16887 0.97284-0.30807 1.1332-0.47279 2.7284-1.2767 1.2287-0.46803 1.5849-0.48054 3.5353-0.88399 1.4879-0.40706 2.5744-0.78106 0.94199-0.24334 1.8968-0.41254 5.7035-1.0398 1.2702-0.28265 1.1997-0.31642 1.2212-0.37928 1.4583-0.53046 1.3429-0.55534 1.2378-0.56536 2.166-1.1259 1.6648-1.0254 1.3541-0.93981 1.3427-1.0249 1.3228-1.1002 1.3671-1.2473 0.8785-0.88707 1.7424-1.9225 0.9008-0.93578 1.9722-1.9342 1.4071-1.294 1.4438-1.2304 0.86416-0.68262 0.87086-0.64197 1.3201-0.87123 0.89481-0.50676 0.89422-0.42075 1.5556-0.46968 1.1408-0.074204 0.89134 0.13332 1.2346 0.42795 1.1898 0.62922 1.3148 0.89586 1.2702 1.0228 1.9468 1.7688 2.2601 2.2141 5.6871 5.7269 2.3629 2.2671 1.1243 1.0031 1.1251 0.93347 1.0231 0.77216 1.0254 0.68206 1.0356 0.57523 1.0391 0.44194 1.0093 0.29055 1.0078 0.19385 1.927 0.26758 1.5832 0.28633 1.6025 0.47219 1.6306 0.62887 4.9508 2.1956 1.6316 0.62189 1.5988 0.44626 1.5471 0.18103 1.0268-0.073659 0.97958-0.2219 0.33736-0.11094 0.93841-0.42103 0.82929-0.57783 0.80839-0.91388 0.60298-1.1161 0.3903-1.2684 0.14174-0.95115 0.047587-0.99006-0.007699-0.53781-0.15309-1.8286-0.49332-3.6394-0.10819-1.3256-0.049302-1.6846 0.066689-1.0285 0.32602-1.3104 0.6201-1.1959 0.93129-0.98767 0.7441-0.46778 0.67268-0.2958 1.4073-0.39494 1.8669-0.2081 2.063 0.016231 2.2175 0.18852 2.3392 0.32107 2.4333 0.42347 2.5009 0.50282 5.0732 1.1725 4.7969 1.2761 2.0382 0.60787 1.548 0.51374 0.75577 0.31753" stroke="#bdc660"/>
    </defs>
    <g clip-path="url(#p6b6d78f7c0)">
     <use y="202.119616" fill="#bdc660" stroke="#bdc660" xlink:href="#mea2968799f"/>
    </g>
   </g>
  </g>
 </g>
 <defs>
  <clipPath id="p6b6d78f7c0">
   <rect x="7.2" y="7.2" width="357.12" height="187.72"/>
  </clipPath>
 </defs>
</svg>
