<?xml version="1.0" encoding="UTF-8"?>
<!DOCTYPE svg  PUBLIC '-//W3C//DTD SVG 1.1//EN'  'http://www.w3.org/Graphics/SVG/1.1/DTD/svg11.dtd'>
<svg width="155.4pt" height="280.51pt" version="1.1" viewBox="0 0 155.4 280.51" xmlns="http://www.w3.org/2000/svg" xmlns:xlink="http://www.w3.org/1999/xlink">
 <metadata>
  <rdf:RDF xmlns:cc="http://creativecommons.org/ns#" xmlns:dc="http://purl.org/dc/elements/1.1/" xmlns:rdf="http://www.w3.org/1999/02/22-rdf-syntax-ns#">
   <cc:Work>
    <dc:type rdf:resource="http://purl.org/dc/dcmitype/StillImage"/>
    <dc:date>2024-07-04T12:08:54.685500</dc:date>
    <dc:format>image/svg+xml</dc:format>
    <dc:creator>
     <cc:Agent>
      <dc:title>Matplotlib v3.7.1, https://matplotlib.org/</dc:title>
     </cc:Agent>
    </dc:creator>
   </cc:Work>
  </rdf:RDF>
 </metadata>
 <defs>
  <style type="text/css">*{stroke-linejoin: round; stroke-linecap: butt}</style>
 </defs>
 <g id="figure_1">
  <g id="patch_1">
   <path d="m0 280.51h155.4v-280.51h-155.4v280.51z" fill="none"/>
  </g>
  <g id="axes_1">
   <g id="PatchCollection_1">
    <defs>
     <path id="m331990f173" d="m126.22-211.18-0.22835 0.27556-0.041969 0.69703 0.14173 0.88977 0.37207 1.3048 0.52146 1.4517 1.8912 4.7613 1.1877 3.228 1.072 3.2281 1.2681 4.3188 0.73515 2.8982 3.4749 14.942 1.2599 5.7805 0.57259 3.028 0.47652 2.8827 1.4156 9.4169 0.53806 4.0077 0.30314 2.8909 0.24874 3.2088 0.23002 4.3093 0.12906 3.9926-0.15884 2.4258-0.35321 3.0697-0.25436 1.3965-0.34985 1.3958-0.38884 1.2331-0.70805 1.9962-0.91895 2.3525-1.535 3.5428-1.3381 2.7319-1.4643 2.5698-1.0566 1.6205-1.8227 2.4843-2.272 2.7879-3.0275 3.4505-3.1721 3.3945-2.2478 2.2806-3.9555 3.7111-2.9945 2.9182-2.0254 2.1325-1.0552 1.2251-1.0111 1.2628-1.449 1.9555-1.3229 1.9502-1.0321 1.6687-0.94209 1.729-0.55796 1.1793-0.65977 1.5749-0.69316 1.8876-0.86028 2.7203-0.70564 2.6078-0.63049 2.8622-0.29335 1.7844-0.26274 2.3486-0.12578 2.1356-0.024886 2.0463 0.12115 2.9329 0.19062 2.0896 0.21805 1.6738 0.26052 1.4941 0.28346 1.2612 0.37096 1.3155 0.35436 1.0216 0.44083 1.0437 0.35723 0.70292 0.372 0.6129 0.43364 0.55088 0.33774 0.17044-0.054071 0.1502 0.11722 0.72647 1.1627 5.2378 0.25023 1.4583 0.18854 1.4745 0.1077 1.4974 0.00809 1.4687-0.10998 1.4835-0.23695 1.4081-0.32854 1.1966-0.43214 1.1014-0.47673 0.90384-0.54965 0.8027-0.6199 0.6965-0.67471 0.57355-0.79702 0.47954-0.8329 0.30454-1.2546 0.10313-1.0369-0.24454-0.83705-0.43267-0.7336-0.56464-0.72843-0.73864-0.6377-0.77991-1.0783-1.5525-3.3708-5.4798-1.6835-2.6322-1.4896-2.2356-0.82197-1.1403-0.85645-1.0535-1.1887-1.1724-0.8635-0.6246-0.82682-0.42847-0.71994-0.25134-1.5293-0.20881-0.94055 0.056293-0.95824 0.17024-1.7385 0.51868-2.7757 1.1255-8.6165 3.8686-1.6608 0.66335-1.1544 0.40647-1.3569 0.39932-1.507 0.33014-1.5434 0.20502-1.7224 0.07791-4.7003-0.13521-2.5243 0.035782-1.3627 0.11002-1.339 0.19163-1.1824 0.25512-1.1361 0.33922-1.3808 0.56646-1.4436 0.79864-1.0562 0.71912-0.70538 0.53918-1.1032 0.94151-0.23737 0.02504-0.27896-0.068212-0.42387-0.16939-0.41757-0.23116-0.42923-0.30779-0.61287-0.59515-0.39398-0.51417-0.35093-0.57793-0.51181-1.1514-0.31667-1.0413-0.22737-1.0926-0.13559-0.99202-0.14493-1.827-0.21535-4.5578-0.20425-2.1602-0.26493-1.7374-0.44823-1.923-1.7612-5.317-0.33834-1.2708-1.1484-5.1323-0.34561-1.2585-0.4206-1.2307-0.78818-1.7297-0.63131-1.1315-0.61092-0.9814-2.0522-2.9099-3.0064-3.8825-1.4536-1.9616-0.66503-1.0197-0.59101-1.0702-0.47401-1.0799-0.39704-1.1311-0.33579-1.171-0.37459-1.6238-0.46392-2.8604-0.37138-3.4316-0.28919-1.7792-0.91238-4.4884-0.38975-2.1833-0.38866-2.9155-0.62642-5.7336-0.13593-1.6604-0.1106-2.9621 0.030479-8.7311-0.12656-2.652-0.44992-4.1873-0.12365-1.5032-0.040702-0.96225 0.002845-1.9538 0.4143-7.2597 0.019423-1.9024-0.16145-3.4164 0.052408-0.75007 0.27425-1.7961 0.62626-3.1829 0.44411-2.6082 0.21577-1.4661 0.32431-2.7916 0.17069-2.7991 0.17479-7.9614 0.53304-9.1995 0.33619-3.6506 0.84031-6.726 0.7405-6.6681 0.29408-3.7038 0.020386-1.2029-0.046722-0.25039-0.023106-0.086405 0.075918-0.20181 0.66292-1.0435 2.5004-3.331 1.4034-1.9881 1.0021-1.6082 0.88273-1.6687 0.80634-1.8576 0.48103-1.3307 0.41726-1.3574 0.50759-2.11 0.74942-4.2276 0.27272-1.0009 0.28653-0.78893 0.60326-1.2332 0.73672-1.1769 0.72282-0.9975 2.9025-3.5797 0.7979-1.0489 0.73427-1.0762 0.64433-1.1135 0.42425-0.89393 0.35107-0.87339 1.2016-3.7825 0.49499-1.328 0.23346-0.5172 0.47573-0.85877 0.67563-0.86173 0.852-0.79142 1.2439-0.91638 0.64004-0.41795 2.0034-1.1784 2.7152-1.4053 1.5217-0.71649 2.6141-1.1206 6.092-2.3617 2.5563-1.0724 2.6567-1.2827 1.2268-0.68244 2.1813-1.3987 0.9547-0.6976 1.5127-1.2194 1.575-1.4085 3.8078-3.7337 0.39362-0.36619 0.26704-0.18336 0.15996-0.058054 3.7752-2.267 0.82713-0.4167 0.78866-0.33592 0.78008-0.25496 0.84742-0.16323 0.81812-0.009329 1.1373 0.29822 1.0631 0.61265 0.99733 0.8499 0.93949 1.0207 0.888 1.1368 0.93291 1.3479 0.90485 1.4372 0.83342 1.4402 0.74641 1.4081 1.4449 3.091 0.44246 0.7124 0.51003 0.64204 0.59821 0.57136 0.89502 0.57326 0.91043 0.41575 6.9438 2.4486 2.373 0.92728 1.3993 0.6355 0.8607 0.448 1.2745 0.77702 1.1831 0.87207 0.85068 0.7478 0.83489 0.87897 0.47951 0.60186 0.5108 0.73821 0.46713 0.77483 0.8532 1.7146 0.69057 1.7547 0.39164 1.1701 1.1155 3.7805 0.96986 2.9082 0.52988 1.4287 0.52473 1.2377 0.7985 1.5183 0.87784 1.256 1.4676 1.7927 0.72891 1.0117 2.1504 3.3875 0.57477 0.78046 0.49489 0.5424 0.23852 0.20168 0.40844 0.21092 0.26575-0.064572" stroke="#bdc660"/>
    </defs>
    <g clip-path="url(#p7d140675eb)">
     <use y="280.512" fill="#bdc660" stroke="#bdc660" xlink:href="#m331990f173"/>
    </g>
   </g>
  </g>
 </g>
 <defs>
  <clipPath id="p7d140675eb">
   <rect x="7.2" y="7.2" width="141" height="266.11"/>
  </clipPath>
 </defs>
</svg>
