<?xml version="1.0" encoding="UTF-8"?>
<!DOCTYPE svg  PUBLIC '-//W3C//DTD SVG 1.1//EN'  'http://www.w3.org/Graphics/SVG/1.1/DTD/svg11.dtd'>
<svg width="349.82pt" height="280.51pt" version="1.1" viewBox="0 0 349.82 280.51" xmlns="http://www.w3.org/2000/svg" xmlns:xlink="http://www.w3.org/1999/xlink">
 <metadata>
  <rdf:RDF xmlns:cc="http://creativecommons.org/ns#" xmlns:dc="http://purl.org/dc/elements/1.1/" xmlns:rdf="http://www.w3.org/1999/02/22-rdf-syntax-ns#">
   <cc:Work>
    <dc:type rdf:resource="http://purl.org/dc/dcmitype/StillImage"/>
    <dc:date>2024-07-04T12:09:09.525480</dc:date>
    <dc:format>image/svg+xml</dc:format>
    <dc:creator>
     <cc:Agent>
      <dc:title>Matplotlib v3.7.1, https://matplotlib.org/</dc:title>
     </cc:Agent>
    </dc:creator>
   </cc:Work>
  </rdf:RDF>
 </metadata>
 <defs>
  <style type="text/css">*{stroke-linejoin: round; stroke-linecap: butt}</style>
 </defs>
 <g id="figure_1">
  <g id="patch_1">
   <path d="m-0 280.51h349.82v-280.51h-349.82v280.51z" fill="none"/>
  </g>
  <g id="axes_1">
   <g id="PatchCollection_1">
    <defs>
     <path id="m3a4edc0601" d="m200.7-251.13 0.60668-0.3855 1.2341-0.018354 1.5459 0.43319 0.96084 0.49369 0.96919 0.65657 1.4112 1.199 0.99484 0.98602 2.0291 2.2638 1.9802 2.418 2.2142 2.9243 1.0051 1.4319 0.68074 1.0368 0.67777 1.1618 0.69808 1.3801 2.1565 4.5889 1.1609 2.2927 1.5735 2.87 3.3409 6.3895 1.6439 2.8466 1.3737 2.0792 1.0809 1.4925 1.3085 1.674 1.8729 2.1766 1.5757 1.6425 1.6572 1.5339 1.7537 1.3947 1.8778 1.2355 1.9736 1.0603 1.6913 0.75198 7.8216 2.9491 1.6665 0.70837 1.5641 0.77118 1.8984 1.1956 1.5423 1.4291 1.0003 1.5202 0.58441 1.4586 0.24774 0.99654 0.20651 1.568 0.25232 4.7404 0.57217 5.1888 0.27144 5.7819 0.21419 2.0708 0.30984 1.8043 0.24573 1.0299 0.67201 2.1403 0.94438 2.6015 0.89447 2.256 0.94497 2.0626 1.0281 1.8383 1.2932 1.7577 1.073 1.0811 1.3527 1.0538 1.3457 0.72814 1.4107 0.46348 1.3958 0.16585 1.404-0.13504 0.98384-0.23485 1.4634-0.49858 1.6077-0.75739 0.93124-0.55306 0.89824-0.60775 1.2451-0.97402 0.69383-0.6611 0.49329-0.58364 0.35668-0.56223 0.38963-1.2092 0.032081-0.86668-0.41124-3.0453 0.00407-1.2137 0.13275-0.95925 0.36154-1.2931 0.72232-1.8092 0.44637-0.90169 0.48313-0.72319 0.54319-0.56111 0.57522-0.40258 0.68328-0.30368 0.87196-0.1899 0.89904-0.013913 1.0319 0.17238 0.76654 0.24694 0.62109 0.27001 1.1604 0.68583 1.4325 1.2761 1.3259 1.617 1.2441 1.8587 1.1839 2.017 3.0335 5.5222 0.83727 1.3917 1.0471 1.5907 1.3412 1.8025 1.3694 1.5955 0.65081 0.67866 1.169 1.0688 1.4074 1.0229 1.669 0.86303 0.84922 0.30739 1.1638 0.30758 1.3866 0.23328 1.575 0.12857 1.7742 0.010935 2.2026-0.13399 2.2956-0.2599 3.9744-0.60851 0.40723 0.27583 0.13411 0.49092-0.041248 0.8771-0.12037 0.54079-0.35556 1.0383-0.51048 1.1285-0.98772 1.8107-0.66085 1.1004-1.5622 2.4164-1.8905 2.6794-1.6856 2.2039-2.4367 3.0121-2.2713 2.6559-1.6128 1.755-3.357 3.3464-5.08 4.7647-1.7217 1.7498-0.99375 1.1155-1.8721 2.2647-1.3633 1.7929-1.1369 1.6531-0.71555 1.1672-0.5814 1.0593-0.5661 1.1793-0.4402 1.0796-0.58964 1.7259-0.49312 1.8646-1.0696 5.3198-0.4079 1.705-1.2515 4.2015-1.4361 4.174-1.1355 3.6148-0.41628 1.6305-0.66539 3.0698-0.58792 1.852-0.55544 1.3523-0.54221 1.1392-0.83286 1.4749-0.50407 0.75621-0.61561 0.80253-0.8949 0.95356-0.97008 0.7957-0.98272 0.602-1.2792 0.58439-1.326 0.36385-1.2269 0.10139-1.2453-0.054735-2.807-0.33263-1.5232-0.3282-1.1839-0.41916-3.5715-1.5719-1.227-0.54697-1.1615-0.63538-1.4094-1.0596-1.9339-1.7065-0.76722-0.57097-1.1524-0.55803-1.0753-0.17086-1.1588 0.071847-1.2146 0.26309-1.1268 0.38267-0.97168 0.46236-0.98372 0.58203-1.0044 0.69324-1.0081 0.78159-2.3841 2.1271-4.2935 4.1978-1.8858 1.6474-1.8685 1.3982-0.87572 0.57622-1.592 0.94588-2.4657 1.2853-2.0771 0.96214-3.8196 1.5277-1.6226 0.57992-1.8151 0.58207-4.441 1.2704-6.4154 1.5232-2.1927 0.72578-2.1904 0.89978-4.1179 1.9253-3.5307 1.7655-5.9001 3.117-1.2208 0.5407-2.0126 0.73912-1.6144 0.47889-1.8985 0.47599-3.9579 0.8263-3.7093 0.66215-1.7201 0.35851-1.5312 0.40012-1.2962 0.41325-0.92535 0.35474-3.2008 1.5221-1.1773 0.42418-1.1845 0.24816-0.89387 0.055652-1.2791-0.049126-2.3523-0.18586-1.9502 0.006806-1.2431 0.18644-0.89527 0.28526-0.99838 0.46142-0.57619 0.32678-1.3379 0.9061-1.561 1.2439-2.3941 2.0545-2.2874 1.795-2.8001 2.0105-2.3334 1.4385-1.2141 0.65596-2.402 1.172-2.8549 1.2788-3.0042 1.2776-1.24 0.48388-1.3458 0.45871-1.1609 0.33394-1.6584 0.39793-1.8396 0.23941-0.92436-0.04331-1.145-0.21695-0.68905-0.21092-0.92281-0.3773-0.88204-0.466-0.66006-0.41655-1.4595-1.131-2.0771-1.9068-1.3882-1.4671-1.0004-1.2262-0.58687-0.8051-0.7303-1.0971-0.72405-1.2151-1.3015-2.4307-2.0718-4.1664-1.5093-2.6729-1.8217-2.8043-6.0512-8.886-1.6089-2.2097-0.84534-1.0125-0.78506-0.85307-1.6198-1.5273-1.0275-0.8312-0.76745-0.5508-1.5451-0.9534-2.1116-1.056-1.7804-0.7179-2.4067-0.82264-3.5672-1.042-7.7187-1.835-4.1695-1.1432-4.4675-1.4461-10.463-3.5922-4.0518-1.2554-4.6717-1.296-2.3815-0.55307-2.6537-0.38982-3.9469-0.42105-2.0471-0.34179-1.9681-0.50987-1.7724-0.65973-1.0195-0.5056-0.90926-0.55732-0.56245-0.40852-0.71734-0.60931-0.49761-0.49522-0.62343-0.72735-0.60501-0.85561-0.44632-0.78028-0.36688-0.82012-0.33395-1.0806-0.12418-0.66002-0.075953-0.99433 0.068434-1.0675 0.28003-1.2277 0.29914-0.65273 0.25813-0.23755 0.2005-0.16036 0.18314-0.49932 0.31357-1.6967 0.13782-1.5282 0.033349-1.8047-0.12294-2.3077-0.2563-2.2013-0.2897-1.7527-0.36466-1.7556-0.33422-1.3451-0.33683-1.1732-0.57614-1.6896-0.47542-1.1927-0.76046-1.7098-0.8269-1.6822-1.0674-2.0034-3.5621-6.3041-1.1235-2.2405-0.60627-1.4756-0.49825-1.9094-0.060824-0.64753 0.014613-0.69538 0.082337-0.59108 0.15649-0.60947 0.20442-0.5362 0.54292-0.96185 0.66599-0.79866 0.80828-0.6741 0.96208-0.55492 0.52977-0.21245 0.55644-0.15773 1.6674-0.14412 1.8449 0.19773 1.9726 0.44982 2.0615 0.6299 2.8321 1.0515 2.5028 1.0596 7.6409 3.4831 2.5311 1.1051 2.4935 0.99238 2.4344 0.81522 2.3481 0.55704 2.227 0.19516 2.0608-0.29999 1.1463-0.47754 1.0759-0.68017 1.5767-1.4033 1.4364-1.6878 1.5111-2.1657 1.2732-2.1126 1.0317-1.8934 0.9738-1.9526 0.9686-2.1654 0.75975-2.0172 0.60752-1.9753 0.49045-2.0213 0.16731-0.9704 0.093245-1.0363-0.028215-0.87795-0.055361-0.37766-0.45854-1.3407-0.66066-1.2344-0.62349-1.3233-0.34916-1.4581-0.042942-0.56382 0.029257-1.0589 0.15496-1.1156 0.53257-2.0138 0.60286-1.5862 0.63831-1.4114 0.71378-1.4254 3.1695-5.7725 1.316-2.5356 2.0223-4.4407 1.8753-4.6608 0.62802-1.3694 0.79932-1.4869 0.83174-1.2714 1.4826-2.0907 0.62349-1.0019 0.54418-1.0391 0.34908-0.78594 0.52888-1.3429 0.4494-1.3781 1.2464-4.6125 0.36942-1.5946 0.31956-1.7853 0.39503-1.7954 0.36819-1.1345 1.0573-2.636 0.60438-1.6532 0.89123-2.8197 1.0103-3.7872 0.50125-1.5135 0.58091-1.4592 0.7353-1.4485 1.9278-3.2999 1.7989-3.6023 0.68138-1.7646 0.86502-2.8142 0.080148-0.39058 0.45271-0.23579 0.96836 0.11224 1.201 0.34695 1.3738 0.54447 2.2027 1.1101 4.7963 2.7985 1.7925 0.83264 1.3325 0.46531 1.6494 0.36329 1.0399 0.072612 1.6108-0.19484 1.4455-0.49266 0.65766-0.3283 0.55952-0.35917 1.0683-1.0371 0.77292-1.253 0.54472-1.5139 0.47418-1.5422 0.71923-1.4846 1.2099-1.3621 1.6261-1.2083 1.9173-1.0336 2.109-0.82464 2.22-0.56553 2.2624-0.23753 1.9091 0.088032 4.3301 0.65329 1.7464 0.16186 1.6518-0.1093 1.3945-0.42916 1.2743-0.70962 1.1268-0.93373 0.94493-1.1119 0.57994-0.93063 0.5143-0.98974 0.85227-1.8382 0.67086-1.7857 0.32452-1.1336 0.5418-2.5749 0.18295-0.67247 0.29928-0.84023 0.71769-1.2877 0.97286-1.0223 1.2453-0.71609 2.8624-0.99818 1.4318-0.65659 1.2742-0.90734 2.4353-2.2857 1.2699-1.1303 1.3832-0.95148 1.519-0.67365 3.3018-0.95156 1.658-0.53687 1.5187-0.6696 2.9666-1.4491 1.6862-0.57452 1.4715-0.23234 1.5354-0.042216 1.9542 0.17106 1.9026 0.47474 1.7514 0.87005 1.658 1.4592 1.4421 1.819 2.5158 3.7265 1.1512 1.3173 0.91544 0.52046 0.60762-0.27367" stroke="#bdc660"/>
    </defs>
    <g clip-path="url(#pf53a49686a)">
     <use y="280.512" fill="#bdc660" stroke="#bdc660" xlink:href="#m3a4edc0601"/>
    </g>
   </g>
  </g>
 </g>
 <defs>
  <clipPath id="pf53a49686a">
   <rect x="7.2" y="7.2" width="335.42" height="266.11"/>
  </clipPath>
 </defs>
</svg>
