<?xml version="1.0" encoding="UTF-8"?>
<!DOCTYPE svg  PUBLIC '-//W3C//DTD SVG 1.1//EN'  'http://www.w3.org/Graphics/SVG/1.1/DTD/svg11.dtd'>
<svg width="371.52pt" height="271.97pt" version="1.1" viewBox="0 0 371.52 271.97" xmlns="http://www.w3.org/2000/svg" xmlns:xlink="http://www.w3.org/1999/xlink">
 <metadata>
  <rdf:RDF xmlns:cc="http://creativecommons.org/ns#" xmlns:dc="http://purl.org/dc/elements/1.1/" xmlns:rdf="http://www.w3.org/1999/02/22-rdf-syntax-ns#">
   <cc:Work>
    <dc:type rdf:resource="http://purl.org/dc/dcmitype/StillImage"/>
    <dc:date>2024-07-04T12:09:01.372682</dc:date>
    <dc:format>image/svg+xml</dc:format>
    <dc:creator>
     <cc:Agent>
      <dc:title>Matplotlib v3.7.1, https://matplotlib.org/</dc:title>
     </cc:Agent>
    </dc:creator>
   </cc:Work>
  </rdf:RDF>
 </metadata>
 <defs>
  <style type="text/css">*{stroke-linejoin: round; stroke-linecap: butt}</style>
 </defs>
 <g id="figure_1">
  <g id="patch_1">
   <path d="m0 271.97h371.52v-271.97h-371.52v271.97z" fill="none"/>
  </g>
  <g id="axes_1">
   <g id="PatchCollection_1">
    <defs>
     <path id="m8665b39727" d="m239.24-240.33 2.9125 1.0511 1.673 0.70502 0.81772 0.39511 0.78858 0.43007 0.76533 0.47852 0.73175 0.51025 1.3866 1.0748 1.3138 1.1032 3.8349 3.3549 1.1718 1.1322 2.8158 2.8819 1.6549 1.6182 0.73202 0.91859 1.0766 1.5662 0.49002 0.64818 1.0929 1.2751 1.2362 1.2259 0.67771 0.58013 0.60462 0.46514 3.9461 2.7126 1.1193 0.81663 0.49438 0.4031 0.20449 0.13859 0.2517 0.27454 0.50751 0.64751 1.0063 1.4935 0.90578 1.5579 0.61943 1.2126 0.56285 1.2599 0.6685 1.8739 0.33166 1.3251 0.10826 0.62664 0.085339 0.77868 0.039974 0.90212-0.046036 1.7067-0.085599 1.0716-0.18641 1.5817-0.34126 2.0342-0.60042 2.6714-0.61154 2.3111-1.013 3.2805-1.0004 2.8314-1.4045 3.7038-0.47896 1.4129-0.39591 1.3968-0.27407 1.3827-0.10771 1.3699 0.086454 1.3704 0.17591 1.1522 0.81656 4.1371 0.2671 1.6933 0.25186 2.1333 0.34168 3.7548 0.12991 1.0616 0.1755 1.0076 0.26238 1.0054 0.54852 1.2456 0.5674 0.7377 0.98023 0.70664 0.79258 0.32778 0.38813 0.11319 1.1339 0.22413 2.7879 0.32413 1.0961 0.17385 1.3459 0.32096 3.2803 0.95538 0.96485 0.24358 1.1382 0.24423 2.385 0.39856 1.2378 0.16279 2.535 0.26288 1.5316 0.11588 3.0316 0.13472 4.7145 0.024458 7.6205-0.21981 1.2403 0.027424 1.4047 0.098948 1.1311 0.12873 0.85385 0.14425 0.88383 0.21584 3.0193 0.92822 3.25 0.86022 1.3922 0.41341 2.7419 0.92444 1.8082 0.71347 1.4796 0.67424 1.3324 0.68358 1.3415 0.75666 3.7144 2.3115 1.7954 1.2564 1.4256 1.1051 2.0335 1.7026 3.0912 2.6706 2.1946 1.8176 1.5878 1.1961 0.41096 0.24625 0.04934 0.018077-0.29548 0.11392-0.70087 0.33772-0.60738 0.36698-0.59654 0.42542-0.97451 0.82529-0.56982 0.57316-1.5106 1.7072-0.70702 0.65399-2.8657 2.2502-0.62123 0.63251-0.27359 0.3767-0.21254 0.40416-0.10004 0.27471-0.11172 0.49088-0.051265 0.51064 0.014584 0.88113 0.10846 0.91675 0.13635 0.75536 0.35579 1.55 0.34618 1.2629 0.33081 1.0616 3.8759 12.158 0.28878 1.0058 0.38084 1.6431 0.12984 0.80631 0.073912 0.75629 0.011478 0.73697-0.074381 0.80849-0.1489 0.77146-0.2469 0.8161-0.31073 0.65088-0.34068 0.54091-0.59855 0.77468-2.5247 2.8143-0.45797 0.59853-0.355 0.59468-0.25845 0.60168-0.14931 0.58363-0.036089 0.46982 0.053522 0.46603 0.072542 0.21256 0.12756 0.18038 0.13282 0.06896-0.16924 0.15953-0.19525 0.10501-0.83211 0.25387-0.86178 0.14087-0.55121 0.028155-0.46562-0.02219-0.54417-0.093511-0.4366-0.14798-0.43951-0.23527-0.54346-0.43948-0.58153-0.63889-0.5153-0.67937-0.35896-0.60948-0.22853-0.49413-0.24007-0.63223-0.26599-0.85479-0.38895-1.4674-0.29317-0.96202-0.28555-0.69771-0.35597-0.69317-0.317-0.52468-0.48108-0.64709-0.35108-0.3424-0.2511-0.17994-0.48277-0.2227-0.40664-0.10004-0.54935-0.056552-0.60886-0.002274-1.9701 0.13711-1.3063 0.051092-1.0767-0.004997-2.8338-0.09779-1.7776 0.021935-1.366 0.1384-1.034 0.23873-0.31339 0.11385-0.40958 0.20951-0.23848 0.17188-0.23566 0.22468-0.3147 0.43646-0.31585 0.71145-0.22366 0.80572-0.18505 1.0099-0.086438 0.97186-0.001249 0.94017 0.067907 0.84656 0.17682 1.0266 0.13198 0.51163 0.29482 0.85294 0.37094 0.84602 0.31646 0.62602 0.99135 1.6765 1.8124 2.7016 0.59657 1.0539 0.27888 0.59687 0.25947 0.65892 0.29349 0.9467 0.27281 1.2883 0.078945 0.62476 0.044162 0.92778-0.070554 1.0794-0.10468 0.62229-0.19296 0.76139-0.19857 0.59423-0.30677 0.75359-0.31229 0.66387-0.75582 1.3639-0.85852 1.3185-1.4491 2.0675-3.2307 4.34-1.1645 1.6153-0.68819 1.0114-0.92599 1.4817-0.25158 0.47412-0.078968 0.37869-0.45221-0.049101-1.0153 0.1243-2.1953 0.36485-1.8681 0.16916-3.2905 0.055109-1.4768-0.009668-1.4854-0.080527-1.4728-0.2024-1.1037-0.26312-1.0832-0.34805-1.115-0.44137-1.0821-0.50963-0.93746-0.51066-0.9014-0.55264-1.2095-0.83944-1.314-1.0591-1.0168-0.98966-0.58623-0.69259-0.50627-0.7188-0.67021-1.2195-1.0303-2.056-1.6208-2.9217-0.37147-0.74959-0.83523-1.9867-0.45684-0.98106-0.67574-1.1324-0.7072-0.9612-2.9079-3.4876-1.9893-2.6534-0.44367-0.49016-0.88708-0.82372-0.90462-0.71445-0.73526-0.51441-1.0827-0.65669-1.1087-0.5426-1.1155-0.39305-0.83184-0.18152-0.82276-0.11502-1.0329-0.090998-0.99576 0.008782-0.93904 0.17074-0.72899 0.30518-0.66822 0.4329-0.26598 0.21589-0.7729 0.75936-0.8939 1.1247-0.99653 1.4283-0.89642 1.0119-1.5573 1.5536-0.98012 0.89095-1.0374 0.82281-1.0606 0.69796-0.47603 0.25411-0.48571 0.20682-0.74875 0.2215-0.76398 0.15212-0.93154 0.13493-1.6849 0.10175-3.3405 0.27172-3.6191 0.12887-1.2706-0.044286-0.89638-0.11289-0.82466-0.23341-0.67063-0.36686-0.55635-0.49246-0.42514-0.58847-0.34202-0.82861-0.36976-1.5415-0.2922-0.90588-0.46819-0.94-0.43205-0.58313-0.52198-0.45479-0.43796-0.22941-0.67175-0.19249-0.43543-0.040667-0.75463 0.047228-0.77807 0.22261-0.69725 0.38154-0.70696 0.55483-0.67923 0.69178-0.77962 0.98633-0.816 1.1995-2.7467 4.29-2.8864 4.3368-1.0253 1.4572-2.217 2.9324-2.8356 3.5947-1.4404 1.7163-0.88547 0.97667-0.72333 0.73905-1.3048 1.202-0.82688 0.68958-0.85058 0.66035-1.2783 0.90989-0.86911 0.56878-2.26 1.3516-1.3907 0.77563-6.8215 3.6014-1.265 0.70298-1.2852 0.78499-2.886 2.0543-0.74529 0.47469-5.1556 3.0161-0.76839 0.57407-0.72162 0.66401-0.36048 0.39207-0.39892 0.50399-0.85158 1.2896-1.3301 2.2751-0.65708 1.0493-0.88886 1.2814-0.57344 0.75126-1.5289 1.8058-0.87682 0.94958-1.4416 1.4379-3.5352 3.2234-1.7458 1.6553-1.2981 1.2828-1.2155 1.2344-3.9846 4.178-0.54349 0.50422-0.38807 0.27348-0.17791-0.037657-0.37935-0.31182-2.2196-1.2844-2.6437-1.3996-3.2225-1.5888-2.944-1.3569-2.9065-1.2405-3.4372-1.4052-1.2024-0.51607-1.6503-0.7762-0.88598-0.47148-0.83343-0.50428-1.2179-0.92371-0.76297-0.77046-0.6919-0.84064-0.62894-0.85642-0.38355-0.56566-0.95431-1.5823-2.3849-4.4169-2.4971-4.459-1.0873-2.1259-0.72944-1.6212-0.50129-1.2391-0.45373-1.2195-0.79171-2.3852-0.33998-1.1611-0.42237-1.6243-1.0402-4.4502-0.32421-1.1752-0.37468-1.1393-0.84978-2.0741-0.69346-1.5272-0.75084-1.5378-0.803-1.539-0.85432-1.53-0.9092-1.5095-0.97225-1.4758-1.0484-1.4262-0.80135-0.97889-0.83958-0.95046-1.0163-1.0802-1.1682-1.1732-1.418-1.3232-1.1986-1.032-1.5256-1.2165-3.1325-2.3213-1.2543-0.97672-1.4581-1.2212-3.9133-3.4004-5.7334-4.7306-2.1402-1.9452-1.9167-1.9319-1.1056-1.1876-1.7012-1.9308-1.2955-1.6044-0.63521-0.87122-0.49862-0.75055-0.44942-0.75552-0.67161-1.3151-1.139-2.4444-0.5041-1.2626-0.41333-1.29-0.30698-1.3406-0.47439-2.5081-0.47364-2.1824-0.83315-3.1358-0.29946-1.3199-0.10905-0.85594-0.015654-0.41984 0.032293-0.59476 0.077347-0.4578 0.21508-0.68199 0.31656-0.6646 0.69824-1.0857 2.6491-3.3473 0.92968-1.3745 0.49181-0.87177 2.9515-6.3809 0.3514-0.89005 0.34418-1.1383 0.15547-0.88355 0.034396-0.97354-0.10364-0.94962-0.25943-0.93505-0.34644-0.79419-0.58989-0.99-0.59008-0.78692-0.43541-0.50764-0.62672-0.6578-0.54709-0.51711-0.6024-0.514-1.0882-0.80003-1.2906-0.78548-2.9241-1.515-0.82858-0.49685-3.1406-2.0833-1.511-1.0648-1.0075-0.76858-0.9913-0.82178-3.395-2.9888-1.2582-1.0662-1.1025-0.86837-1.0764-0.72028-1.4604-0.83467-1.5707-0.79866-2.6887-1.2643-2.3519-1.0301-0.99755-0.40532-0.5898-0.18759-0.87981-0.18421-0.86701-0.075883-0.91911-0.012523-1.6725 0.052866-2.5683 0.15095-3.9687 0.15876-2.899 0.21405-1.0914 0.03588-1.1381-0.031076-1.1349-0.1283-1.418-0.31964-1.4424-0.44755-2.0961-0.7616-1.2862-0.50903-1.9713-0.83751-1.0676-0.49986-3.5263-1.86-0.60609-0.29356-0.18932-0.054029 0.009111-0.10036 0.30023-0.50746 0.59181-0.77564 0.5704-0.66571 0.97773-1.0298 0.85893-0.81316 1.0572-0.89942 0.96871-0.73077 1.0298-0.67685 1.0093-0.57341 3.4984-1.7927 2.6243-1.4305 1.4496-0.91494 0.72808-0.54297 0.70098-0.58078 0.95819-0.87019 4.047-3.9977 2.1799-2.0795 1.9358-1.7132 3.4607-2.9101 1.2202-1.1128 1.2548-1.2262 1.5136-1.6178 0.6738-0.79295 0.63598-0.80917 1.8121-2.4798 0.84504-1.0615 0.63122-0.71546 0.85673-0.86282 0.97929-0.84852 1.0943-0.79577 1.0551-0.63789 1.0498-0.55779 3.6761-1.784 1.4563-0.77078 1.8073-1.0228 2.0812-1.3505 3.3193-2.3255 1.0477-0.65528 0.5223-0.26991 1.1582-0.52463 0.23688 0.18934 0.5052-0.006538 0.58053-0.17695 0.6458-0.31746 0.67167-0.426 1.0243-0.80856 0.63393-0.6192 0.56168-0.62484 0.7368-0.89979 1.7088-2.3656 1.4829-1.8518 1.429-1.9299 0.43332-0.50442 0.41043-0.37307 0.84012-0.43582 0.21649-0.19087 0.18966-0.38406 0.11134-0.52286 0.063748-1.1093 0.069918-0.50128 0.2156-0.68716 0.35078-0.60659 0.48141-0.59533 0.50964-0.51719 1.1181-0.95343 1.3306-0.9798 1.4578-0.9936 3.1046-2.0373 2.1799-1.391 1.5663-0.94563 4.2906-2.3611 0.94269-0.61745 0.92028-0.69127 0.7608-0.64696 0.95031-0.90364 1.1318-1.2132 1.1666-1.4221 0.62828-0.85601 0.38565-0.62418 0.12625 0.40915 0.39966 0.45394 0.86828 0.73204 0.48012 0.33744 0.45268 0.28537 0.89146 0.4842 2.2613 0.97754 0.65144 0.32986 0.66249 0.41868 0.97412 0.85713 0.62594 0.73985 0.56713 0.8296 0.8146 1.5581 0.34284 0.85593 0.28159 0.86346 0.32427 1.3391 0.18368 1.125 0.082948 0.76175 0.071159 1.5874-0.068701 2.1516-0.102 1.2722-0.22709 2.0392-0.75032 5.2809-0.46945 2.5345-0.21231 0.94583-0.31452 1.0998-0.36983 1.0475-0.40352 0.98009-0.65034 1.326-0.27391 0.46137-0.27351 0.38208-0.15661 0.18128-0.44518 0.3879-0.31729 0.18847-0.24542 0.10126-0.20335 0.053356-0.73487-0.029575-0.36862-0.12859-0.78653-0.45088-0.71089-0.58832-0.95318-0.97342-0.34021-0.17002-0.33623 0.058738-0.27099 0.29326-0.12799 0.37355-0.05359 0.47962 0.038235 0.72514 0.13031 0.68727 0.19328 0.66116 0.26302 0.701 0.39662 0.88615 0.44003 0.83662 2.1474 3.6327 1.1319 2.0761 0.89248 1.7351 0.73121 1.5445 0.59039 1.4218 0.67902 1.9584 0.53225 1.8308 0.41025 1.6081 0.61151 2.8372 0.82907 4.6468 0.30764 1.2477 0.43477 1.3799 0.53053 1.3346 0.68938 1.3794 0.79919 1.3019 0.86863 1.2206 2.4128 3.0533 0.91593 1.2492 0.5331 0.80001 1.6803 2.7084 0.67477 0.96028 0.41319 0.47894 0.44806 0.3948 0.72783 0.38766 0.83381 0.17863 0.59754 0.031317 0.81969-0.024355 0.84832-0.071104 1.6695-0.21276 4.3222-0.69276 1.1935-0.12806 1.4126-0.040751 0.85724 0.053548 0.73213 0.10027 1.4735 0.35719 1.461 0.52351 1.4547 0.64362 1.4549 0.72384 4.6809 2.4337 1.7676 0.83766 1.7071 0.73639 1.7189 0.65844 1.7235 0.56 1.7211 0.4323 1.7117 0.26439 1.6942 0.042893 0.97506-0.097105 0.74301-0.12561 1.0916-0.24485 1.4571-0.41727 1.6571-0.581 1.7374-0.71653 1.0256-0.47822 1.006-0.51702 1.4294-0.83877 0.60931-0.40455 1.1188-0.82855 1.3537-1.1701 1.2587-1.3167 1.03-1.359 0.70692-1.1903 0.44072-0.88916 0.37035-0.84512 1.6639-4.1647 0.70555-1.5731 0.78376-1.5426 0.88292-1.4916 0.98812-1.4112 1.0837-1.3541 1.1573-1.3091 1.2134-1.2738 1.2558-1.2459 2.5982-2.4297 5.5258-4.9401 1.3462-1.2895 1.2861-1.3377 1.0868-1.2547 1.0241-1.3011 0.96437-1.3403 0.90399-1.3745 0.83925-1.4058 0.76628-1.436 1.9502-4.0231 2.0375-3.7947 1.1702-2.084 1.3724-2.3145 0.782-1.2371 0.82285-1.2257 1.2032-1.6458 1.2997-1.6246 1.0563-1.2432 2.9854-3.3729 1.8828-2.2498 2.8633-3.7399 0.39625-0.55673" stroke="#bdc660"/>
    </defs>
    <g clip-path="url(#p16cdfe507f)">
     <use y="271.96909" fill="#bdc660" stroke="#bdc660" xlink:href="#m8665b39727"/>
    </g>
   </g>
  </g>
 </g>
 <defs>
  <clipPath id="p16cdfe507f">
   <rect x="7.2" y="7.2" width="357.12" height="257.57"/>
  </clipPath>
 </defs>
</svg>
