<?xml version="1.0" encoding="UTF-8"?>
<!DOCTYPE svg  PUBLIC '-//W3C//DTD SVG 1.1//EN'  'http://www.w3.org/Graphics/SVG/1.1/DTD/svg11.dtd'>
<svg width="209.34pt" height="280.51pt" version="1.1" viewBox="0 0 209.34 280.51" xmlns="http://www.w3.org/2000/svg" xmlns:xlink="http://www.w3.org/1999/xlink">
 <metadata>
  <rdf:RDF xmlns:cc="http://creativecommons.org/ns#" xmlns:dc="http://purl.org/dc/elements/1.1/" xmlns:rdf="http://www.w3.org/1999/02/22-rdf-syntax-ns#">
   <cc:Work>
    <dc:type rdf:resource="http://purl.org/dc/dcmitype/StillImage"/>
    <dc:date>2024-07-04T12:08:54.437653</dc:date>
    <dc:format>image/svg+xml</dc:format>
    <dc:creator>
     <cc:Agent>
      <dc:title>Matplotlib v3.7.1, https://matplotlib.org/</dc:title>
     </cc:Agent>
    </dc:creator>
   </cc:Work>
  </rdf:RDF>
 </metadata>
 <defs>
  <style type="text/css">*{stroke-linejoin: round; stroke-linecap: butt}</style>
 </defs>
 <g id="figure_1">
  <g id="patch_1">
   <path d="m0 280.51h209.34v-280.51h-209.34v280.51z" fill="none"/>
  </g>
  <g id="axes_1">
   <g id="PatchCollection_1">
    <defs>
     <path id="m4fa5d79777" d="m182.96-126.12 0.25095 0.41988 0.79672 0.93556 5.7553 6.4372 0.9755 1.3599 0.42598 0.77998 0.72293 1.6683 0.45786 1.216 0.41106 1.2488 0.32213 1.2739 0.18694 1.2937 0.018028 1.3797-0.094807 1.2171-0.15329 1.2254-0.30808 1.851-0.20849 0.87384-0.26304 0.90944-0.71102 1.989-2.3476 5.7668-0.70202 1.5258-0.63604 1.2529-0.66907 1.2229-0.61363 1.0575-1.2332 1.9505-0.96508 1.3868-3.428 4.6231-1.0813 1.5424-0.90273 1.4106-0.72721 1.4396-0.4184 1.2568-0.21925 0.89743-0.70418 3.4362-0.60204 3.1729-0.2678 1.2985-0.21734 0.86457-0.26904 0.83926-0.64036 1.4019-0.83293 1.2971-0.99616 1.1718-1.1402 1.0169-1.2741 0.82212-0.28243 0.14281-0.92154 0.39613-0.75588 0.27185-1.1736 0.36403-2.2152 0.58583-3.4414 0.83873-1.3507 0.41332-0.84124 0.35042-0.66461 0.38007-0.47987 0.40597-0.29988 0.45646-0.07793 0.29131 0.048473 0.58646 0.29999 0.70469 0.35355 0.55856 0.9879 1.2617 2.4832 2.9653 1.166 1.5115 0.71721 0.98655 1.3361 1.9317 0.78417 1.2666 0.54749 1.0478 0.31915 0.74142 0.33539 0.99835 0.21397 0.97331 0.081784 1.2126-0.14886 1.1893-0.33169 1.1674-0.45302 1.1544-0.67144 1.4056-0.8349 1.3228-1.0715 1.1572-1.0242 0.72828-1.4136 0.66647-1.3095 0.38847-1.028 0.19253-0.75172 0.091164-0.90339 0.064482-1.0589 0.026565-2.4565-0.012464-0.31248 0.10094-6.5196-2.706-2.2824-1.0093-2.0847-1.0439-1.6972-1.0129-0.83779-0.59144-1.1746-1.0452-0.91017-1.0704-0.64367-1.0146-0.57789-1.2997-0.3186-0.62663-0.3099-0.46442-0.32816-0.41389-0.64124-0.67193-0.77922-0.65068-0.55395-0.38044-0.83494-0.47028-0.98097-0.40544-0.90616-0.2299-0.86584-0.077234-0.53823 0.025061-0.97794 0.15535-1.0138 0.25682-4.4417 1.4032-1.2738 0.35026-1.4437 0.32276-1.0652 0.1546-1.0464 0.040467-1.0628-0.10506-1.069-0.22533-1.0208-0.29409-0.5903-0.20343-1.0912-0.44144-0.892-0.42114-1.5438-0.81207-4.7402-2.6934-1.1535-0.56634-1.5332-0.61131-1.3963-0.39513-1.0636-0.22812-1.5301-0.25082-1.5538-0.17679-2.0382-0.12444-1.9088-0.004602-1.6226 0.097112-0.96919 0.11475-0.83362 0.14194-0.70273 0.1565-0.80037 0.22932-0.64676 0.2406-0.75786 0.35554-0.6384 0.36519-0.67969 0.45537-0.99098 0.77884-0.96471 0.86659-0.82366 0.80202-2.2691 2.3981-3.3062 3.7941-1.1638 1.2901-0.93332 0.96153-1.2939 1.2254-1.2418 1.0575-1.1223 0.84725-0.59483 0.38768-0.42212 0.23141-0.38092 0.12678-0.11897-0.05445-0.0381-0.081445-0.14289-0.12652-0.21848-0.12267-0.34291-0.11198-0.38268-0.025795-0.30595 0.057931-0.60632 0.27639-1.5018 1.0149-0.7034 0.42157-2.4682 1.2684-1.2102 0.70825-0.83574 0.62809-1.3987 1.2461-0.77232 0.58775-1.7657 1.1874-2.2228 1.5937-1.6648 1.0411-1.69 0.96608-1.6364 0.79802-1.1721 0.44403-0.5803 0.15436-0.38203 0.034825-1.691-2.198-0.82958-1.1765-0.99934-1.5771-0.60415-1.0847-0.67844-1.4-0.50633-1.2283-0.31478-0.88207-0.31387-1.0128-0.37483-1.416-0.35327-1.6673-0.15074-0.95678-0.13549-1.3035-0.04445-1.4138 0.070191-1.4118 0.091005-0.7437 0.20828-1.0999 0.27454-1.041 0.35051-1.0698 0.74015-1.8663 1.1707-2.6835 0.64321-1.751 0.18781-0.63492 0.24195-1.0491 0.19106-1.32 0.052981-0.77395 0.001721-1.4185-0.38667-5.8803-0.12775-5.574-0.16254-1.7339-0.098697-0.58569-0.20493-0.89216-0.2016-0.66257-0.25721-0.65718-0.30974-0.60187-0.33086-0.49206-0.3559-0.42715-0.35477-0.36238-0.66636-0.57986-1.1299-0.79487-2.6198-1.4394-1.158-0.68662-0.61186-0.41757-0.60995-0.4698-0.641-0.55069-1.2862-1.2757-1.6672-1.8575-1.6236-1.6536-1.1397-1.0338-1.2206-0.9762-1.1756-1.0078-0.77452-0.83769-0.71172-0.93292-1.0561-1.6606-0.80592-1.4424-2.3306-4.5237-2.0463-3.4056-0.7164-1.374-0.54521-1.3876-0.27861-1.3776 0.092173-1.3365 0.38543-1.0101 0.61302-0.94127 0.61757-0.70024 0.67479-0.61982 0.52177-0.40557 0.84243-0.53775 0.46397-0.22074 0.16858-0.031041 0.19323-0.064528 0.13404-0.15636 0.068369-0.26124-0.03547-0.46117-0.07571-0.28137-0.22071-0.54146-0.40541-0.73427-0.32036-0.50282-1.7549-2.5132-0.72472-1.102-0.50564-0.85617-1.0517-2.0463-1.4047-3.0623-0.30287-0.72983-0.44498-1.2195-0.32584-1.1674-0.18611-1.0415-0.079083-1.1504 0.015141-0.84775 0.098603-1.112 0.21786-1.3119 0.32906-1.3813 0.71733-2.3598 1.2119-3.5871 1.4341-4.5697 0.36257-0.98535 0.46721-1.1142 0.80555-1.6425 1.3115-2.3036 0.64892-1.0183 0.53101-0.75318 0.83969-1.0056 0.55195-0.50617 0.53731-0.36271 0.61552-0.28644 0.42801-0.11984 0.46807-0.042899 0.44679 0.069674 0.52214 0.26615 0.48436 0.42835 0.37556 0.42911 1.0115 1.3235 0.65723 0.80092 0.74452 0.75302 0.44692 0.36241 0.70822 0.44825 0.73591 0.36796 2.8267 1.1971 0.97785 0.338 0.99154 0.18613 1.0842 0.04474 0.63398-0.07463 0.34817-0.081311 0.8899-0.30958 2.7203-1.205 0.6664-0.22562 0.90568-0.2078 0.85631-0.11201 1.2111-0.023915 2.0293 0.022641 0.68248-0.061736 0.64736-0.12592 0.41536-0.12598 0.74072-0.3294 0.70684-0.43192 0.93242-0.71036 0.76866-0.66759 1.3426-1.2881 1.3747-1.4667 0.77957-0.91336 0.83466-1.065 0.9233-1.3147 0.70912-1.1429 0.4976-0.89345 0.84661-1.7444 0.53345-1.3296 0.40443-1.3455 0.19957-1.1668 0.033644-0.52229-0.036684-1.1418-0.13835-1.0133-0.20231-0.92279-0.4299-1.338-0.35848-0.8127-0.45158-0.81538-3.4518-5.4291-3.2383-4.8665-7.2198-10.44-1.3681-1.8892-1.6283-2.1436-1.7323-2.1472-1.4926-1.7217-0.70727-0.7608-1.3423-1.3165-1.1832-0.99217-0.67952-0.47994-0.68079-0.39941-0.91349-0.3831-1.2963-0.23331-2.4792-0.029455-1.1017-0.1855-0.8518-0.44467-0.69233-0.66834-0.49159-0.81859-0.23352-0.90301 0.10133-0.92626 0.54259-0.96092 0.90584-0.93848 1.1625-0.93557 2.7536-1.9512 1.3876-1.0226 1.3523-1.1135 1.2587-1.235 1.0616-1.2964 0.96647-1.3923 1.8123-2.8967 0.92384-1.4133 0.98412-1.3241 1.1741-1.3192 2.2532-2.2937 0.85166-1.0302 0.55608-0.90844 0.39344-0.73534 0.36388-0.51001 0.32805-0.31572 0.72352-0.10623 0.96731 0.11153 0.74606 0.21184 0.79511 0.30123 2.5989 1.1343 1.4058 0.53915 5.8746 2.0739 1.5166 0.33741 1.6301 0.082955 1.6765-0.15057 1.7018-0.32455 1.7096-0.45207 1.7019-0.54448 1.6801-0.61103 3.1889-1.3167 2.5219-1.1646 2.6477-1.3965 4.3166-2.6197 3.4445-2.0282 1.3971-0.7279 0.47235-0.20072 1.2719-0.42825 0.88648-0.22285 1.2599-0.24662 2.1003-0.32988 1.3528-0.26888 1.4015-0.3456 1.4398-0.40705 1.3399-0.41446 2.7329-0.92509 3.6836-1.3674 4.896-1.937 4.7417-1.9394 10.781-4.6587 3.9588-1.6616 17.5-7.2082 8.2751-3.3057 0.014526 0.17605 0.17765 0.6837 1.3992 5.1298 0.8151 3.3787 0.74984 3.5425 0.28912 1.5763 0.37505 2.543 0.1322 1.2737 0.12396 1.8297 0.044727 1.7352-0.034436 1.7907-0.085523 1.2655-0.13746 1.1699-0.1735 1.021-0.22286 0.99544-0.26861 0.95796-0.37054 1.0696-0.43006 1.0045-2.1399 4.0173-0.62472 1.3267-0.50694 1.287-0.84471 2.6983-0.34568 0.97077-0.3857 0.94322-0.37204 0.79502-0.38283 0.72202-0.63875 1.0408-0.59084 0.82443-1.0045 1.1736-0.69046 0.67872-0.70051 0.60231-0.86286 0.64114-0.82776 0.53209-0.93046 0.53929-2.7475 1.5285-0.95368 0.60421-1.1388 0.85196-0.88764 0.84621-0.4985 0.6075-0.44835 0.63766-0.5387 0.85717-0.47854 0.89522-0.3878 0.93524-0.25915 0.90627-0.17626 0.92668-0.29294 2.3055-0.28617 1.4595-0.54889 2.2053-0.22184 0.74965-0.38065 1.0099-0.3224 0.72942-0.91724 1.9017-0.53945 1.2284-2.2755 6.7493-0.34014 0.90444-0.62922 1.3217-1.4333 2.6551-0.60854 1.3662-0.39673 1.4171-0.10628 1.1314 0.030319 1.1826 0.13227 1.3434 0.58443 3.9745 0.41877 2.2433 0.2977 1.1622 0.26867 0.86225 0.35905 0.96216 0.69174 1.4941 1.0417 1.9904 0.51268 1.0799 0.26208 0.67122 0.25365 0.8968 0.1224 0.8251 0.001514 0.99998-0.15766 1.1382-0.21855 1.0207-0.86931 3.2183-0.22989 1.0402-0.16875 1.5092 0.053905 1.0783 0.10292 0.62376 0.15869 0.62108 0.26703 0.73046 0.33948 0.66843 0.51958 0.69342 0.4351 0.35638 0.49187 0.20642 1.0188-0.042794 1.1678-0.46847 1.2755-0.78094 1.352-1.0066 1.4053-1.166 2.9072-2.6211 5.9574-5.5443 1.492-1.3071 1.4876-1.2203 1.4806-1.0948 1.4709-0.91937 1.4576-0.67905 1.4398-0.35498 1.419 0.025425 1.406 0.28451 0.80249 0.22962 1.0012 0.36454 2.8973 1.1833 0.79374 0.25602 0.79346 0.18654 0.86866 0.09715 1.2504-0.091842 1.2214-0.30603 1.1707-0.43928 1.68-0.72432 1.4023-0.54816 0.77232-0.25747 0.66899-0.17017 0.63977-0.097593 0.76038-0.024297 0.57288 0.15701 0.32324 0.39381 0.03227 0.58047-0.17466 0.49453-0.31574 0.54784-0.4572 0.63846-3.028 3.7546-0.59661 0.82867-0.57971 0.90126-0.49442 0.91869-0.51854 1.4459-0.151 1.299 0.065043 1.3165 0.38326 2.5497 0.14857 1.2062 0.088002 2.7795 0.13454 1.1865 0.39013 1.4907 0.56793 1.5655 0.40742 1.0049 0.62328 1.3475 2.3595 4.6659 0.54737 1.1428 0.36476 0.8614" stroke="#bdc660"/>
    </defs>
    <g clip-path="url(#pcd246df4f7)">
     <use y="280.512" fill="#bdc660" stroke="#bdc660" xlink:href="#m4fa5d79777"/>
    </g>
   </g>
  </g>
 </g>
 <defs>
  <clipPath id="pcd246df4f7">
   <rect x="7.2" y="7.2" width="194.94" height="266.11"/>
  </clipPath>
 </defs>
</svg>
