<?xml version="1.0" encoding="UTF-8"?>
<!DOCTYPE svg  PUBLIC '-//W3C//DTD SVG 1.1//EN'  'http://www.w3.org/Graphics/SVG/1.1/DTD/svg11.dtd'>
<svg width="307.47pt" height="280.51pt" version="1.1" viewBox="0 0 307.47 280.51" xmlns="http://www.w3.org/2000/svg" xmlns:xlink="http://www.w3.org/1999/xlink">
 <metadata>
  <rdf:RDF xmlns:cc="http://creativecommons.org/ns#" xmlns:dc="http://purl.org/dc/elements/1.1/" xmlns:rdf="http://www.w3.org/1999/02/22-rdf-syntax-ns#">
   <cc:Work>
    <dc:type rdf:resource="http://purl.org/dc/dcmitype/StillImage"/>
    <dc:date>2024-07-04T12:09:05.236413</dc:date>
    <dc:format>image/svg+xml</dc:format>
    <dc:creator>
     <cc:Agent>
      <dc:title>Matplotlib v3.7.1, https://matplotlib.org/</dc:title>
     </cc:Agent>
    </dc:creator>
   </cc:Work>
  </rdf:RDF>
 </metadata>
 <defs>
  <style type="text/css">*{stroke-linejoin: round; stroke-linecap: butt}</style>
 </defs>
 <g id="figure_1">
  <g id="patch_1">
   <path d="m0 280.51h307.47v-280.51h-307.47v280.51z" fill="none"/>
  </g>
  <g id="axes_1">
   <g id="PatchCollection_1">
    <defs>
     <path id="mcdd989f111" d="m286.95-194.06-5.0883 2.527-3.3524 1.5536-2.0968 0.81253-1.5652 0.42468-1.0335 0.15877-0.64943 0.044334-1.0296-0.018904-0.92071-0.11094-0.63792-0.13098-1.2311-0.38211-0.88328-0.38462-1.117-0.64471-1.1548-0.92792-0.8708-0.94471-0.81688-1.1678-0.34478-0.62804-0.50608-1.142-0.73161-2.1126-0.60363-2.158-1.0594-5.1727-0.45457-1.8533-0.78661-2.2976-1.056-2.4939-1.2197-2.3626-0.47068-0.72709-0.31205-0.36808-0.33508-0.25763-0.34714-0.063975-0.24905 0.099299-0.29423 0.26037-0.49064 0.77826-0.57736 1.3899-0.75399 2.2598-0.49167 1.763-0.94565 3.9356-2.75 12.755-1.0124 4.4634-1.33 5.2869-0.86095 3.0302-1.2615 3.8694-3.2314 8.8193-0.78993 2.2958-1.8692 5.9168-1.4298 5.0282-1.1069 4.5262-0.6169 3.1836-0.30059 2.2689-0.85819 8.8449-0.49085 4.1403-0.31214 2.0432-0.32523 1.5348-0.44887 1.6066-0.80554 2.2374-0.83947 1.8271-0.91504 1.5252-1.0488 1.1918-1.134 0.74609-1.9719 0.89555-1.4083 0.7457-1.2176 0.86453-0.75245 0.68794-0.80622 0.90922-0.94883 1.3328-1.1159 1.9498-0.89477 1.8443-1.966 4.5201-1.0379 2.1928-1.1137 1.9849-0.9438 1.399-0.91647 1.1624-0.98477 1.0845-0.95185 0.92094-1.2284 1.066-1.6921 1.3608-1.2817 0.9381-1.682 1.0694-2.6824 1.5004-4.1799 1.9527-6.1824 3.2767-1.3342 0.81477-5.4178 3.5202-2.3445 1.6904-1.12 0.74643-1.145 0.59196-0.52572 0.18929-0.70357 0.15975-1.1874 0.017719-1.1455-0.25083-0.9433-0.33608-1.4603-0.64342-2.7968-1.3923-4.5638-2.1661-1.4301-0.84997-0.89029-0.76536-0.40632-0.49546-0.32467-0.5075-0.37301-0.74445-0.39376-1.0001-0.75825-2.3101-0.45558-1.7104-0.20578-1.1099-0.28386-2.2481-0.12286-0.62386-0.16133-0.47212-0.21945-0.3581-0.37667-0.2859-0.59147-0.092383-0.67107 0.1178-0.87876 0.33929-0.87599 0.4792-0.65349 0.43106-1.2357 0.95036-1.2387 1.0993-1.6395 1.6316-1.4199 1.5512-1.8062 2.128-4.0803 5.1056-2.4872 2.9731-2.4275 2.6727-1.1091 1.1017-1.1325 1.0313-1.0864 0.89638-1.042 0.77303-1.0413 0.69244-1.4365 0.85708-2.863 1.6154-1.4058 0.8749-1.6064 1.1527-0.71816 0.59794-1.1511 1.127-1.013 1.2522-0.51094 0.76915-0.90652 1.6913-0.4123 0.95149-0.6884 1.9374-0.42309 1.4778-0.43773 1.8672-0.36209 1.9304-0.33483 2.2835-0.25924 2.3408-0.71423 9.8987-0.20341 1.9193-0.26459 1.895-0.2986 1.653-0.37119 1.6081-0.68745 2.216-0.87374 2.0478-0.90741 1.6508-1.0317 1.5245-0.78371 0.96305-0.70798 0.6987-0.61096 0.25619-0.19678 0.27994-0.58473 0.32868-0.9822 0.37976-1.2427 0.35484-1.4423 0.29415-1.561 0.19746-2.0341 0.07412-1.737-0.10665-1.7004-0.27212-1.5524-0.41888-1.4555-0.57107-2.1914-1.3146-1.5055-1.4418-0.92861-1.3419-0.5874-1.2585-0.34227-1.1227-0.23416-1.3593-0.093561-1.4251 0.006948-5.1971-0.13796-1.34-0.26165-1.1422-0.34641-0.92186-0.91056-1.4751-1.0466-1.0424-1.5874-1.0046-1.7153-0.64742-1.5705-0.34007-1.9411-0.21272-3.4425-0.17446-1.3649-0.1164-1.4108-0.23228-1.1364-0.31787-1.2306-0.49452-1.2018-0.63224-1.0491-0.65235-1.3146-0.90243-2.7569-1.9691-1.8494-1.18-0.70439-0.39035-1.2632-0.60822-1.0786-0.4536-3.2553-1.2204-1.3385-0.45399-1.04-0.29928-0.98893-0.21194-1.0866-0.15361-1.8823-0.1576-3.5726-0.13926-1.4939-0.12115-1.4749-0.20726-2.229-0.41305-5.1548-0.69815-1.186-0.21064-1.1552-0.27059-1.7522-0.61684-1.6809-1.0344-0.26784-0.2375-1.114-1.3172-0.62756-1.0241-0.84006-1.7667-0.5252-1.3654-0.68654-2.1139-0.72172-2.6611-0.60291-2.6479-0.41236-2.1008-1.3479-8.0173-0.54042-2.8153-0.68843-2.9379-3.0844-11.743-0.8193-3.2903-1.133-5.083-0.49257-2.5961-0.54311-3.6738-0.25314-2.7374-0.085324-2.3609 0.049409-2.2963 0.25626-2.6417 0.52088-2.744 0.66446-2.3388 0.35682-0.88993 0.2572-0.3359 0.71367 0.57972 1.76 0.75301 2.0947 0.59264 2.24 0.32161 1.3134 0.018274 0.94498-0.078459 1.7363-0.36677 1.785-0.67948 2.1661-1.259 1.1254-0.87399 1.0371-0.97531 1.3402-1.5999 1.1411-1.891 0.4898-1.1072 0.41732-1.1743 0.57265-2.1815 0.282-1.547 0.20427-1.5699 0.19212-2.54 0.15522-6.2364 0.29664-3.0614 0.1925-1.306 0.47482-2.3128 0.75383-2.1885 0.4474-0.88006 0.4565-0.75102 0.95423-1.3117 1.1089-1.2552 0.6676-0.64954 0.84913-0.72524 1.0329-0.741 1.5098-0.85219 1.589-0.67065 1.1706-0.36755 0.72196-0.17266 1.3357-0.20362 1.0558-0.043107 1.1709 0.10312 0.74799 0.15839 1.2519 0.4009 2.9244 1.2511 0.79519 0.23758 1.2249 0.16015 1.0699-0.014943 1.3059-0.15923 1.2233-0.26833 1.3669-0.42129 1.3937-0.52985 2.5422-1.1241 5.5421-2.6076 2.1089-0.82378 1.4156-0.40654 1.1168-0.18206 1.3191-0.016255 1.3182 0.19487 2.1494 0.74926 1.2411 0.64475 1.2196 0.7602 4.4172 3.1613 1.698 1.1516 10.155 6.2483 2.6816 1.844 2.3312 1.7485 2.4118 1.6802 1.0998 0.68634 1.537 0.83987 1.2466 0.55545 0.73004 0.26201 0.78194 0.22617 1.5724 0.28209 1.283 0.04173 0.71483-0.060136 0.85199-0.17038 0.45389-0.15096 0.68254-0.35818 0.69871-0.68635 0.50358-0.92106 0.22638-0.87213 0.074797-0.73122 0.002163-0.72131-0.043707-0.64288-0.17116-1.1656-0.49845-1.9486-0.7105-1.9248-1.2375-2.5817-1.5104-2.7311-1.3431-2.0967-1.6405-1.9403-1.9319-1.86-2.1215-1.8043-6.6543-5.2913-2.0427-1.7915-1.801-1.8432-1.4412-1.9227-0.93526-2.0358-0.29025-1.6146 0.011928-1.6742 0.18271-1.3882 0.3-1.4 0.74913-2.5402 0.52236-1.4638 0.5872-1.4088 1.4532-2.9042 0.9121-2.0873 0.55048-1.5778 0.14763-0.50091 0.33311-1.5855 0.06307-1.6647-0.070268-0.64176-0.16639-0.74634-0.30184-0.77174-0.37382-0.6001-0.4245-0.46085-0.55272-0.40522-0.95391-0.38875-0.52401-0.092833-2.2788-0.14317-0.67532-0.20085-0.60308-0.36273-0.24747-0.237-0.38838-0.53519-0.30656-0.64023-0.24472-0.84252-0.074451-0.60467 0.005713-0.7411 0.14251-1.0419 0.24368-0.98987 0.40767-1.2134 0.48697-1.164 0.48474-0.98521 0.47047-0.83992 0.77379-1.1952 0.9463-1.221 1.1953-1.2502 0.93459-0.78543 0.99296-0.66718 1.5778-0.72365 1.485-0.33992 1.4831-0.12996 1.1063-0.022894 7.4075 0.21577 1.6965 0.1167 2.1677 0.32083 1.8894 0.40353 5.161 1.3396 2.9591 0.69919 1.2523 0.22487 1.2017 0.143 1.3459 0.032931 1.403-0.16637 1.1045-0.31433 1.3454-0.59899 1.6786-1.0644 0.9909-0.79533 0.87927-0.82186 1.0761-1.214 0.44855-0.66632 0.14277-0.45643 0.2545-0.087271 0.45283-0.020625 2.7124 0.15202 3.4062 0.42368 4.0225 0.64265 2.168 0.22218 1.0895 0.025732 1.418-0.071407 1.5543-0.22041 0.79845-0.16951 1.6946-0.46121 1.8957-0.62966 8.0273-2.9059 5.2249-1.6782 13.211-3.851 3.5252-1.1037 1.2918-0.35329 1.4023-0.26064 1.4017-0.055783 1.6153 0.26433 1.5363 0.49075 2.7507 1.0209 1.1446 0.33476 0.7782 0.16386 1.5309 0.15349 0.73193 0.007355 1.2613-0.071758 1.2859-0.18727 1.4502-0.36949 0.77677-0.27694 1.1367-0.51411 1.0712-0.6062 1.4121-0.96486 1.4031-1.108 3.8584-3.3745 1.4885-1.2119 1.2046-0.84878 1.5941-0.91866 1.7088-0.79526 1.4102-0.55349 1.4627-0.5045 1.8645-0.57123 8.9779-2.3761 3.7218-1.1231 4.2922-1.4704 5.4172-1.9594 0.42189 3.8982 0.527 3.2494 0.42554 1.8446 0.38145 1.3302 0.45103 1.285 0.53847 1.2268 0.67138 1.2157 0.75547 1.1584 1.6513 2.2284 3.4153 4.4104 2.3312 3.3057 0.694 1.1149 0.71716 1.2854 0.89536 1.9649 0.4778 1.3981 0.39261 1.4297 1.3045 5.8302 0.38435 1.4436 2.0007 6.0401 0.50919 2.1845 0.30095 1.9737 0.23203 2.4539 0.24464 5.1777 0.16464 2.0755 0.15403 1.1269 0.25829 1.2412 0.35973 1.1829 0.58141 1.308 0.39865 0.65652 0.44756 0.5841 0.69621 0.67608 0.4876 0.34964 0.47435 0.2626 0.48151 0.19242 0.3169 0.077488 0.26965-0.028445" stroke="#bdc660"/>
    </defs>
    <g clip-path="url(#p3ef97a8a18)">
     <use y="280.512" fill="#bdc660" stroke="#bdc660" xlink:href="#mcdd989f111"/>
    </g>
   </g>
  </g>
 </g>
 <defs>
  <clipPath id="p3ef97a8a18">
   <rect x="7.2" y="7.2" width="293.07" height="266.11"/>
  </clipPath>
 </defs>
</svg>
