<?xml version="1.0" encoding="UTF-8"?>
<!DOCTYPE svg  PUBLIC '-//W3C//DTD SVG 1.1//EN'  'http://www.w3.org/Graphics/SVG/1.1/DTD/svg11.dtd'>
<svg width="371.52pt" height="264.49pt" version="1.1" viewBox="0 0 371.52 264.49" xmlns="http://www.w3.org/2000/svg" xmlns:xlink="http://www.w3.org/1999/xlink">
 <metadata>
  <rdf:RDF xmlns:cc="http://creativecommons.org/ns#" xmlns:dc="http://purl.org/dc/elements/1.1/" xmlns:rdf="http://www.w3.org/1999/02/22-rdf-syntax-ns#">
   <cc:Work>
    <dc:type rdf:resource="http://purl.org/dc/dcmitype/StillImage"/>
    <dc:date>2024-07-04T12:08:52.017544</dc:date>
    <dc:format>image/svg+xml</dc:format>
    <dc:creator>
     <cc:Agent>
      <dc:title>Matplotlib v3.7.1, https://matplotlib.org/</dc:title>
     </cc:Agent>
    </dc:creator>
   </cc:Work>
  </rdf:RDF>
 </metadata>
 <defs>
  <style type="text/css">*{stroke-linejoin: round; stroke-linecap: butt}</style>
 </defs>
 <g id="figure_1">
  <g id="patch_1">
   <path d="m0 264.49h371.52v-264.49h-371.52v264.49z" fill="none"/>
  </g>
  <g id="axes_1">
   <g id="PatchCollection_1">
    <defs>
     <path id="mba5126834d" d="m229.83-219.88-0.24625 0.61169-0.23276 0.694-0.41057 1.3645-0.4404 1.7416-0.17819 0.91124-0.15365 1.4698 0.025523 0.71844 0.12337 0.66234 0.51194 1.0477 0.21835 0.27077 0.34835 0.35261 0.62864 0.51517 0.52347 0.37232 2.5142 1.6219 0.6568 0.4918 0.50473 0.49933 0.2035 0.29636 0.14232 0.34604 0.043442 0.32937-0.020824 0.2563-0.1021 0.38477-0.21455 0.48048-0.18789 0.33634-0.78674 1.2069-1.3723 1.8418-0.2763 0.43283-0.35805 0.69224-0.27949 0.76087-0.079651 0.3465-0.038837 0.87296 0.070829 0.41239 0.12697 0.42751 0.20092 0.49095 0.31557 0.60642 0.39871 0.6388 0.45409 0.63844 0.9328 1.1386 0.53817 0.57573 0.89666 0.86029 1.0868 0.92542 1.0965 0.83891 1.2446 0.85193 1.646 0.98144 1.0016 0.53081 2.122 1.0027 3.6538 1.5992 1.6501 0.64091 1.1509 0.38798 1.041 0.30802 2.2173 0.53402 1.1963 0.23124 1.7803 0.28431 10.133 1.207 5.5888 0.59573 2.0447 0.27669 1.9069 0.39176 0.81041 0.21898 0.60086 0.20521 0.27491 0.11586 0.51059 0.28012 0.23728 0.1773 0.32215 0.33146 0.30451 0.58504 0.059367 0.30234-0.007447 0.4861-0.07679 0.39802-0.13026 0.41257-0.2275 0.53281-0.29462 0.56221-0.72125 1.153-0.60884 0.87655-5.9097 8.0553-0.92683 1.427-0.32214 0.56192-0.51088 1.0071-0.35621 0.86557-0.27551 0.91896-0.18833 1.0905-0.027412 0.86751 0.036868 0.41305 0.11609 0.53843 0.10382 0.28245 0.48461 0.69803 0.209 0.16921 0.46196 0.24923 0.40749 0.13297 0.50791 0.093335 0.90186 0.02983 0.53421-0.04477 0.436-0.066095 0.87073-0.19945 2.0591-0.62952 1.2723-0.30978 0.36395-0.056863 0.79812-0.051988 0.28963 0.013401 0.71084 0.10461 0.82645 0.22782 0.58031 0.20956 2.1857 0.89991 1.106 0.39378 0.55586 0.15418 0.76834 0.17046 1.0812 0.16396 0.48233 0.032936 0.62276-0.022848 0.57373-0.12142 0.5043-0.2145 0.21647-0.13438 0.31181-0.24466 0.88342-0.86348 0.46202-0.39965 0.56082-0.40909 0.8749-0.49699 0.90598-0.37498 1.0305-0.30567 0.97831-0.19009 0.98309-0.075847 0.39314 0.00727 2.6132 0.24352 1.0604 0.058432 1.2506-0.004761 1.1985-0.057734 1.3416-0.13482 2.1234-0.32319 3.0073-0.57233 5.0451-1.0204 2.0334-0.33302 1.2672-0.10773 0.94764 0.003315 1.4449 0.13967 1.0371 0.1889 1.4549 0.37462 0.97116 0.31674 1.1602 0.44422 1.0932 0.47901 1.1568 0.56479 1.7939 0.99 1.1188 0.69196 1.656 1.1585 1.0993 0.87573 1.1 0.96446 0.99825 0.95475 1.1119 1.1535 1.4656 1.6582 0.97528 1.1881 0.99309 1.287 1.3429 1.8885 1.3647 2.0808 0.221 0.28203 0.10289 0.087668 0.049397-0.017677 0.58646 0.43475 0.61324 0.516 1.2091 1.1233 0.94167 0.9924 1.1707 1.4018 0.65065 0.89823 0.64342 1.0911 0.31747 0.68599 0.50419 1.571 0.29108 1.6485 0.13329 1.6926 0.023892 1.7094-0.045058 1.7037-0.23544 4.8839-0.1136 4.7771-0.001227 1.1571 0.12514 1.2529 0.17863 1.2072 0.11339 1.1441-0.074783 1.0571-0.16182 0.5316-0.24286 0.49162-0.39549 0.53519-0.80943 0.6272-0.61864 0.28405-0.64853 0.18867-0.54721 0.091876-0.49933 0.039399-0.64056-0.002045-1.4718-0.14216-1.6537-0.24622-1.3412-0.25409-1.4695-0.33685-1.9778-0.50391-1.147-0.19666-1.1166-0.08554-0.73861 0.013129-0.54891 0.06758-0.57515 0.13303-0.88941 0.34936-1.1117 0.62587-2.0943 1.3709-0.8666 0.52255-0.98812 0.4768-0.59702 0.20316-0.66942 0.13503-1.0407 0.012538-0.95542-0.14705-2.7882-0.71911-0.59421-0.068588-0.73216 0.008339-1.4121 0.18745-1.5698 0.30393-4.4918 1.0249-1.3217 0.18898-1.116 0.014755-0.85846-0.074359-0.87152-0.13834-0.89376-0.19824-1.2167-0.35854-0.77776-0.31561-1.5015-0.77489-4.4304-2.634-3.3303-1.8552-0.93662-0.46607-1.1736-0.50754-1.0477-0.3615-0.95122-0.23379-1.1975-0.15991-0.79735-0.041567-0.86499 0.004923-1.5059 0.10912-2.3128 0.31608-0.77318 0.13519-1.2347 0.26807-1.3764 0.39253-1.4559 0.54165-1.3869 0.65162-1.2502 0.72386-0.86805 0.6077-0.64103 0.55634-0.34792 0.35479-0.54804 0.65625-0.34214 0.49558-0.53842 0.99101-0.70182 1.5308-1.2303 2.3902-0.30008 0.6394-0.21566 0.54221-0.26884 0.98867-0.083306 0.63238-0.013208 0.38922 0.02716 0.43542 0.078745 0.38156 0.34257 0.68231 0.56428 0.53427 0.61513 0.30779 0.70814 0.2075 2.2081 0.38076 0.41902 0.10017 0.49572 0.16202 0.68376 0.352 0.67134 0.61285 0.50761 0.79337 0.32477 0.92818 0.11302 1.024-0.1402 1.1685-0.29352 0.99741-0.3429 0.8411-0.37216 0.76114-0.74404 1.2996-2.4372 3.7195-2.4801 4.0845-0.83493 1.2336-0.8728 1.1257-1.3618 1.4861-1.0067 1.0308-0.45284 0.41664-2.2658 1.8311-0.67987 0.61302-3.959 3.8597-3.1132 3.1477-3.971 3.8511-1.6043 1.6467-1.8161 1.961-1.5512 1.7466-0.47122 0.59344-1.2666-0.10427-1.1349-0.055932-1.6952 0.012383-1.2414 0.11829-1.0822 0.19297-1.0189 0.26865-0.35957 0.11899-0.92462 0.39221-0.78816 0.47778-0.64514 0.58294-0.42783 0.65322-0.18412 0.68353 0.022356 0.70599 0.20129 0.69988 0.52898 0.94968 1.4033 1.9909 0.27271 0.46505 0.36456 0.6991 1.0384 2.2119 0.64505 1.2229 0.6277 0.95131 1.8617 2.353 0.63798 0.92344 0.3482 0.58003 0.64094 1.2851 0.29872 0.71813 0.40256 1.1221 0.36855 1.3029 0.2161 1.2303 0.044187 0.59964-0.009226 0.69687-0.11236 0.87227-0.13665 0.55258-0.22408 0.61376-0.26739 0.52263-0.38983 0.55501-0.77994 0.73854-0.94239 0.56916-1.0637 0.3977-0.30787 0.07812-1.0559 0.17582-1.1053 0.055191-1.133-0.067551-0.69962-0.10415-0.97074-0.21896-0.95923-0.29354-1.1335-0.42928-1.3452-0.59633-1.837-0.92852-0.92165-0.5391-1.0166-0.71501-0.58738-0.51423-0.94163-1.0879-0.83165-1.2298-2.8991-4.7075-1.4091-2.3491-0.77298-1.1414-0.53687-0.63072-0.35128-0.34347-0.78319-0.61717-0.82722-0.5099-0.79733-0.39773-1.4937-0.596-0.87293-0.27984-1.1365-0.25912-0.42231-0.053664-1.2632 0.023747-0.60846 0.13567-0.63746 0.23151-0.6325 0.31296-0.88828 0.55737-0.73334 0.54395-0.65806 0.54046-0.83609 0.74427-2.3954 2.3356-1.2191 1.1037-1.0175 0.79215-1.3278 0.91232-1.3581 0.82095-0.97644 0.52915-1.1681 0.5733-1.4566 0.62183-1.8453 0.65187-5.6667 1.6441-1.468 0.38976-1.0627 0.23607-1.4343 0.22924-0.94654 0.094189-1.503 0.066858-1.8332 0.01544-1.1324-0.018599-1.602-0.088174-1.4635-0.12269-1.7558-0.22638-2.1142-0.39424-0.93309-0.2564-0.86382-0.34402-1.9674-0.99537-1.2217-0.55655-1.0476-0.3601-0.97501-0.20932-1.749-0.26946-1.7131-0.33201-0.85166-0.093461-0.79872-0.004801-0.5359 0.039137-0.39144 0.050027-1.0769 0.21982-1.0492 0.30554-0.8556 0.29835-1.7167 0.70075-1.2748 0.63465-0.56255 0.35171-0.47753 0.39354-0.26769 0.38754-0.028848 0.17795 0.16714 0.36546 0.40703 0.36186 0.55145 0.42771 1.4123 1.2389 0.81073 0.63032 1.4931 0.91802 0.69242 0.47589 0.57712 0.56311 0.37888 0.63068 0.20128 0.6387 0.077109 0.73547-0.026102 0.50059-0.097555 0.5387-0.10517 0.35359-0.28377 0.64521-0.3565 0.55921-0.19951 0.24915-0.56597 0.58164-0.70749 0.60884-0.91284 0.69818-0.84136 0.52018-0.92813 0.47287-0.99188 0.42364-1.1205 0.39992-1.4466 0.42843-1.3207 0.3195-0.79973 0.14551-1.2724 0.11774-0.92832-0.046369-0.95194-0.20896-0.91609-0.32068-1.6575-0.638-1.0034-0.2954-2.0841-0.55242-0.68245-0.22543-0.87011-0.34656-2.5272-1.2544-1.1295-0.44721-1.5476-0.44169-2.6135-0.59847-0.83812-0.27226-0.94192-0.44738-1.7646-0.98225-0.34444-0.13786-0.60363-0.14756-0.63289 0.00841-0.6259 0.17527-0.58185 0.3403-0.26088 0.22799-0.41298 0.47226-0.93303 1.4088-0.5832 0.8067-0.69398 0.73986-0.81428 0.64686-1.0251 0.60709-0.7941 0.34758-0.64268 0.16618-0.39983-0.069561 0.040078-0.16487-0.29076-0.21667-0.52052-0.26415-5.8846-2.447-1.3072-0.58656-0.48872-0.25588-0.25801-0.15424-0.67332-0.54103-0.28906-0.42492-0.12256-0.45537 0.18641-0.84765 0.23695-0.43738 0.30402-0.45186 0.40547-0.52113 0.90769-1.0133 3.2668-3.5087 0.60001-0.60072 0.80494-0.74145 0.58919-0.49813 0.85647-0.66586 1.9842-1.4474 1.2671-0.98704 1.1633-1.0205 0.9826-1.0562 0.64182-0.94278 0.30517-0.69114 0.085048-0.31542 0.058276-0.65722-0.040063-0.36765-0.052703-0.23051-0.19179-0.51256-0.19215-0.35493-0.24594-0.36117-0.4101-0.48262-0.75902-0.68816-0.44123-0.33091-0.75162-0.49823-1.1075-0.64062-2.2726-1.1293-0.62124-0.34676-1.095-0.73882-1.0079-0.84942-0.89259-0.93648-0.64586-0.84953-0.52582-0.87831-0.31453-0.6674-0.94741-2.2335-0.47308-0.98101-0.79418-1.4646-0.50969-0.86565-1.0222-1.5169-0.85786-1.0542-0.5327-0.53042-0.62911-0.50825-0.66851-0.4009-0.7637-0.29051-0.7858-0.15966-2.7369-0.15017-0.66356-0.14042-0.30208-0.1025-0.97841-0.52562-0.95562-0.75798-0.95327-0.92581-1.9851-2.1407-6.6202-6.9141-1.5188-1.6924-1.4866-1.7947-1.0983-1.4475-0.71832-1.0056-0.65919-1.0074-0.74476-1.3584-0.33428-0.76574-1.0281-2.6948-0.43912-0.94248-0.73223-1.346-0.79881-1.2886-0.60238-0.86162-0.32672-0.37864-0.091932-0.052441 0.46921-0.20092 0.46947-0.44109 0.40467-0.56288 0.36543-0.84471 0.23492-0.9557 0.27646-1.7772 0.21492-1.0911 0.79237-2.7968 0.21951-0.88858 0.11315-0.71334 0.032046-0.69989-0.058352-0.7938-0.092807-0.57091-0.24526-0.99931-0.28005-0.83653-0.23754-0.58514-0.34139-0.7174-0.41782-0.75538-0.83525-1.2714-0.87762-1.0876-0.98302-1.0322-1.532-1.3818-3.1937-2.6417-1.0964-1.015-0.77188-0.80011-0.73738-0.88574-0.66667-0.9179-0.55442-0.84617-2.2311-3.6974-0.55276-0.80375-1.2178-1.5701-0.65506-0.94277-0.44338-0.79034-0.27886-0.59554-1.3659-3.3657-0.41961-1.2799-0.46074-2.0088-0.22289-0.82977-0.26595-0.76695-0.55493-1.2985-1.0888-2.1462-1.368-2.3773-3.8953-5.9721-0.58195-1.0464-1.6725-3.8418-0.49801-0.9609-0.56312-0.90946-0.26838-0.37494-0.34102-0.42943-2.8548-3.2113-1.2953-1.5511-1.2942-1.4763-0.7855-0.80989-2.8855-2.8289-1.4795-1.3702-1.2595-1.0778-1.2106-0.9775-1.5448-1.1445-0.93313-0.57598-1.2604-0.65519-2.5018-1.2223-1.1843-0.74956-0.89111-0.80378-0.80801-0.948-0.74048-1.048-0.68518-1.1038-1.3057-2.2427-1.0627-1.9417-0.33187-0.77616-0.12093-0.46568 0.032581-0.22147 0.22064-0.10621 0.39053-0.43882 0.50361-0.66822 0.57796-0.83428 2.6352-4.0384 0.95997-1.3282 1.0693-1.2806 1.1293-1.0908 1.2-0.84097 0.74863-0.35939 0.7686-0.26653 0.73084-0.183 2.5362-0.48011 1.4339-0.37109 2.9668-0.89622 1.5295-0.39946 1.0921-0.21774 0.74765-0.11009 4.5587-0.42165 1.8163-0.20709 1.0699-0.16525 1.0956-0.20839 1.0866-0.2556 1.6348-0.49309 1.5998-0.58824 1.2885-0.53389 1.2539-0.57225 1.4345-0.72707 1.3569-0.76144 2.3614-1.5003 0.88116-0.52776 0.91719-0.48056 0.81632-0.36586 0.83594-0.3098 3.4692-0.96362 0.93586-0.32447 1.153-0.46618 1.1338-0.54038 1.3227-0.76018 1.0635-0.7464 0.48834-0.39624 0.69859-0.63974 0.64482-0.67967 0.519-0.62396 0.47207-0.64372 0.59396-0.95772 0.47436-0.97323 0.30166-0.85059 0.18026-0.84148 0.051328-0.75714-0.028827-0.73913-0.24299-2.2133-0.010331-0.70681 0.15618-0.6785 0.27536-0.35839 0.39907-0.21461 0.5619-0.057579 0.65518 0.096213 0.72084 0.20273 1.5935 0.53167 0.86358 0.20183 1.2508 0.095287 1.2826-0.066125 1.2328-0.18483 0.67121-0.16548 0.96723-0.32267 0.7276-0.33419 0.61518-0.41581 0.46428-0.49211 0.27427-0.55568 0.058194-0.56521-0.10567-0.59057-0.18444-0.4958-0.84095-1.5843-0.37126-0.89939-0.24087-0.98675-0.044243-1.0423 0.10658-0.70494 0.19769-0.70799 0.50024-1.2158 0.58592-1.088 0.55407-0.89004 0.69383-1.0125 1.3372-1.7684 1.2506-1.5438 0.381-0.56397 0.12777-0.25524 0.22402-0.82171-0.037001-0.81423-0.14498-0.43181-0.24848-0.40386-0.32761-0.36099-0.69386-0.56167-1.0819-0.66703-0.66531-0.44857-0.30213-0.29288-0.23865-0.33259-0.17255-0.39899-0.086875-0.41455-0.010368-0.34993 0.034817-0.24 0.1744-0.4154 0.27325-0.27745 0.16413-0.085465 0.58904-0.039307-0.035614 0.27341 0.12381 0.15484 0.44239 0.25379 0.61616 0.19886 1.3298 0.23098 1.1523 0.080814 0.9445 0.00547 1.6624-0.0973 1.9516-0.24493 2.047-0.38886 2.8599-0.6505 1.5833-0.27157 0.71067-0.082759 1.3412-0.093844 1.3221 0.009568 1.0852 0.11019 0.74224 0.13748 1.5286 0.45718 1.4763 0.71084 1.305 0.91467 1.21 1.0705 3.4335 3.4914 1.1986 1.0519 1.2545 0.896 1.4295 0.88919 1.2281 0.61528 0.71529 0.27839 0.67676 0.209 0.89609 0.19271 0.8129 0.093477 1.2001 0.028285 1.5967-0.085233 1.1557-0.11916 2.7046-0.35921 2.0528-0.23617 1.7042-0.15894 1.6994-0.09307 2.214-0.03054 3.6266 0.018414 1.6977 0.034141 4.1251 0.15143 1.1343-0.03674 0.93823-0.083251 1.1511-0.17245 1.4381-0.30015 1.1859-0.3115 1.2028-0.38598 1.1527-0.42461 1.3871-0.56723 4.3554-2.0682 1.0709-0.42423 0.9012-0.28582 0.51039-0.13007 1.4082-0.25337 1.1851-0.11584 1.1386-0.04443 1.1355-0.00237 2.6577 0.046067 2.0574 0.079032 1.1284 0.10276 1.5153 0.24 0.93953 0.1944 0.8118 0.20672 0.72623 0.23367 0.60481 0.24761 0.99005 0.51484 1.0313 0.67102 0.71964 0.56058 0.63335 0.55686 0.72427 0.74744 0.33993 0.41223 0.6605 0.93217 1.7722 2.8122 0.77495 1.0976 1.7591 2.2129 1.4666 1.6601 0.85572 0.90889 1.0368 1.0521 0.99222 0.94073 0.58414 0.50697 0.83024 0.66072 0.92036 0.67544 1.6259 1.0875 0.85919 0.50314 1.1581 0.58236 1.6242 0.66427 1.2022 0.3935 1.6477 0.46066 0.96186 0.22465 1.0777 0.19625 1.3008 0.14268 0.94501 0.031685 1.6661-0.096537 4.9336-0.62987 2.2853-0.25862 1.6681-0.15335 1.4494-0.09476 0.56141-5.11e-4 0.11461 0.044536" stroke="#bdc660"/>
    </defs>
    <g clip-path="url(#pe3a1661114)">
     <use y="264.491906" fill="#bdc660" stroke="#bdc660" xlink:href="#mba5126834d"/>
    </g>
   </g>
  </g>
 </g>
 <defs>
  <clipPath id="pe3a1661114">
   <rect x="7.2" y="7.2" width="357.12" height="250.09"/>
  </clipPath>
 </defs>
</svg>
