<?xml version="1.0" encoding="UTF-8"?>
<!DOCTYPE svg  PUBLIC '-//W3C//DTD SVG 1.1//EN'  'http://www.w3.org/Graphics/SVG/1.1/DTD/svg11.dtd'>
<svg width="263.2pt" height="280.51pt" version="1.1" viewBox="0 0 263.2 280.51" xmlns="http://www.w3.org/2000/svg" xmlns:xlink="http://www.w3.org/1999/xlink">
 <metadata>
  <rdf:RDF xmlns:cc="http://creativecommons.org/ns#" xmlns:dc="http://purl.org/dc/elements/1.1/" xmlns:rdf="http://www.w3.org/1999/02/22-rdf-syntax-ns#">
   <cc:Work>
    <dc:type rdf:resource="http://purl.org/dc/dcmitype/StillImage"/>
    <dc:date>2024-07-04T12:09:03.302568</dc:date>
    <dc:format>image/svg+xml</dc:format>
    <dc:creator>
     <cc:Agent>
      <dc:title>Matplotlib v3.7.1, https://matplotlib.org/</dc:title>
     </cc:Agent>
    </dc:creator>
   </cc:Work>
  </rdf:RDF>
 </metadata>
 <defs>
  <style type="text/css">*{stroke-linejoin: round; stroke-linecap: butt}</style>
 </defs>
 <g id="figure_1">
  <g id="patch_1">
   <path d="m0 280.51h263.2v-280.51h-263.2v280.51z" fill="none"/>
  </g>
  <g id="axes_1">
   <g id="PatchCollection_1">
    <defs>
     <path id="mf2f5f2587d" d="m241.58-216.87-0.2011 0.27399-0.3477 0.71047-0.62549 1.512-0.59345 1.6511-0.71523 2.226-0.76378 2.7961-0.54868 2.6993-0.22073 1.6463-0.1414 1.5967-0.084089 1.7169 0.04638 1.6325 0.25212 1.5495 0.60846 1.6946 0.55335 1.0937 0.71466 1.2028 2.9769 4.4305 0.63647 1.0873 0.7881 1.6246 0.46898 1.3156 0.30623 1.7669-0.080339 1.325-0.22616 1.1024-0.19062 0.68285-0.50767 1.4479-0.65317 1.4971-0.96402 1.8725-1.1789 2.0168-1.2659 1.9411-1.3494 1.8387-1.3243 1.6088-2.0717 2.1936-1.2987 1.2126-3.8693 3.3077-1.703 1.5913-1.4996 1.6571-1.4619 2.1316-0.79669 1.6627-0.56616 1.7763-0.35472 2.0221-0.083033 0.93548-0.039951 0.84207 0.09155 2.278 0.31091 1.6579 0.66776 1.9193 0.83592 1.6174 0.85227 1.2886 2.5841 3.1831 1.1812 1.5541 1.0092 1.5542 0.75516 1.3779 0.71889 1.5255 0.74131 1.7429 2.7447 6.643 0.82201 2.2347 0.65516 2.0846 0.46426 2.081 0.24547 2.4808 0.35156 8.5076 0.017007 2.0216-0.046408 1.487-0.11345 1.4707-0.31928 2.1005-0.41399 1.664-1.1656 3.5846-0.74236 1.924-0.86774 1.8735-1.0424 1.7861-1.3755 1.8087-0.94179 1.0331-1.0077 0.99183-1.7231 1.5137-1.303 1.0385-2.3334 1.7232-2.4039 1.636-1.6131 1.0227-1.6315 0.9401-1.1205 0.57383-1.6625 0.72938-1.411 0.51695-3.5102 1.0701-3.6402 0.8948-2.3703 0.48122-1.5592 0.25725-2.6202 0.29037-2.5042 0.095813-2.3-0.090121-1.637-0.19951-3.4061-0.57464-1.8437-0.19677-1.4406-0.089066-1.4021-0.030555-1.5016 0.044551-2.9642 0.28716-1.7963 0.28211-1.6494 0.32045-3.5814 0.8765-1.5825 0.48689-1.4475 0.63325-1.2262 0.82639-1.0872 1.0363-0.93824 1.2104-0.77871 1.3274-1.3245 2.7584-1.2091 2.9465-0.60745 1.8996-2.2459 8.3975-2.7444 9.6898-4.4424 15.202-0.71264 2.2494-0.10761 0.17548-0.52404 0.95454-0.48863-0.47092-3.2496-2.2883-8.6255-5.6585-2.0892-1.4991-1.2605-0.98199-1.852-1.6008-1.9101-1.935-1.724-2.0285-1.4031-1.8571-1.2797-1.87-3.4656-5.7113-1.4153-2.1224-1.5049-2.0465-1.5969-1.9323-3.2545-3.5082-1.9067-1.9399-2.016-1.8667-2.6551-2.1247-6.4039-4.2995-1.9278-1.4456-5.5143-4.389-2.0387-1.4444-5.2197-3.1412-5.8369-3.7637-2.1678-1.3386-6.591-3.8672-5.0348-3.04-1.9972-1.0321-2.0936-0.92677-2.1708-0.8352-2.0496-0.6908-2.3683-0.6729-1.753-0.3975-2.5093-0.39703-2.0122-0.15656-1.9323-0.003355-1.528 0.088661-2.4451 0.29067-1.6484 0.2845-3.011 0.65629-5.6277 1.399-1.8059 0.51672-3.022 1.0359-1.6248-6.0298-0.28737-1.342-0.18414-1.1947-0.12148-1.203-0.090495-2.2802 0.11615-6.6271-0.017195-1.1522-0.10146-1.6629-0.31203-2.1217-1.061-4.9279-0.97703-5.4266-0.33343-2.4003-0.56684-4.9075-0.35685-1.8939-0.50568-1.6763-0.64266-1.3824-0.68844-1.0781-0.47265-0.63245-2.6694-3.1797-0.7874-1.0203-0.67703-0.98996-0.61682-1.0435-0.48861-0.97484-0.43155-1.0156-0.52442-1.5449-0.2839-1.1025-0.42346-2.4347-0.22056-2.5698-0.04169-1.8743 0.026489-1.6938 0.26995 0.057138 0.58882-0.41496 0.82465-0.76507 6.0459-6.3394 1.8443-1.873 1.9697-1.9464 2.6489-2.5116 5.364-4.8909 2.1873-2.1818 1.3304-1.4408 2.3198-2.74 0.8701-1.1399 1.3487-1.9443 0.997-1.5921 2.0181-3.452 1.2921-1.9567 0.60528-0.76471 0.54696-0.59489 1.0949-1.0075 1.1659-0.87104 7.8227-4.5764 1.1308-0.72026 4.379-3.117 1.9501-1.1911 1.9194-1.0666 10.35-5.4644 2.1102-1.1769 3.4291-2.0508 1.3187-0.86302 1.9396-1.3806 1.2906-1.002 1.2546-1.0463 1.9798-1.8238 1.0975-1.1214 1.3435-1.4819 2.1856-2.6041 4.3025-5.4544 3.3638-4.4493 1.5557-2.2111 4.3796-6.5803 4.1676-6.5093 1.2381-1.82 1.1829-1.4966 1.0306-1.0497 1.0727-0.84186 1.0579-0.57892 1.1806-0.33778 1.145-0.071659 0.66068 0.061704 1.0193 0.29207 0.66452 0.34809 0.792 0.69006 0.65555 0.88479 0.7104 1.4263 0.44335 1.3745 0.56104 2.3389 0.51895 1.2573 0.64508 0.8929 0.84416 0.74722 1.0176 0.55665 1.2513 0.35416 1.3601 0.17129 1.9279 0.067196 5.4913-0.19554 5.0686-0.41229 2.5565-0.15439 1.4134-0.20473 1.1592-0.23082 1.1361-0.33609 0.73698-0.31382 0.72228-0.38557 1.6093-1.059 1.574-1.2485 1.4872-1.3518 2.3629-2.3573 1.3602-1.5354 1.5121-2.1672 1.3563-1.7066 1.1727-1.1522 0.40358-0.32758 1.0139-0.65685 1.1061-0.46306 1.4248-0.25907 1.5109-0.013325 1.5672 0.13807 1.2484 0.17452 1.2622 0.27543 1.6926 0.59638 1.6822 0.8233 1.6429 0.9964 1.1156 0.78052 1.3726 1.084 1.346 1.2498 0.67319 0.74372 3.0184 4.026 4.4121 5.2918 1.073 1.4584 1.0253 1.7182 0.69318 1.4886 1.2673 3.0144 0.56364 1.1374 2.4592 4.4331 1.5633 3.1196 1.0169 1.8504 0.76816 1.0906 0.8895 1.0509 1.5428 1.5016 1.9938 1.6069 1.8351 1.2737 1.3677 0.83852 1.4224 0.77483 1.6418 0.77327 1.6917 0.6697 1.6435 0.5281 1.6746 0.39924 2.2347 0.3071 2.2539 0.12218 2.2408 0.014671 4.9928-0.083619 2.8344-0.25667 3.331-0.55359 1.5405-0.1886 0.68614 0.074502" stroke="#bdc660"/>
    </defs>
    <g clip-path="url(#p8bd429c028)">
     <use y="280.512" fill="#bdc660" stroke="#bdc660" xlink:href="#mf2f5f2587d"/>
    </g>
   </g>
  </g>
 </g>
 <defs>
  <clipPath id="p8bd429c028">
   <rect x="7.2" y="7.2" width="248.8" height="266.11"/>
  </clipPath>
 </defs>
</svg>
