<?xml version="1.0" encoding="UTF-8"?>
<!DOCTYPE svg  PUBLIC '-//W3C//DTD SVG 1.1//EN'  'http://www.w3.org/Graphics/SVG/1.1/DTD/svg11.dtd'>
<svg width="245.66pt" height="280.51pt" version="1.1" viewBox="0 0 245.66 280.51" xmlns="http://www.w3.org/2000/svg" xmlns:xlink="http://www.w3.org/1999/xlink">
 <metadata>
  <rdf:RDF xmlns:cc="http://creativecommons.org/ns#" xmlns:dc="http://purl.org/dc/elements/1.1/" xmlns:rdf="http://www.w3.org/1999/02/22-rdf-syntax-ns#">
   <cc:Work>
    <dc:type rdf:resource="http://purl.org/dc/dcmitype/StillImage"/>
    <dc:date>2024-07-04T12:08:57.733159</dc:date>
    <dc:format>image/svg+xml</dc:format>
    <dc:creator>
     <cc:Agent>
      <dc:title>Matplotlib v3.7.1, https://matplotlib.org/</dc:title>
     </cc:Agent>
    </dc:creator>
   </cc:Work>
  </rdf:RDF>
 </metadata>
 <defs>
  <style type="text/css">*{stroke-linejoin: round; stroke-linecap: butt}</style>
 </defs>
 <g id="figure_1">
  <g id="patch_1">
   <path d="m0 280.51h245.66v-280.51h-245.66v280.51z" fill="none"/>
  </g>
  <g id="axes_1">
   <g id="PatchCollection_1">
    <defs>
     <path id="m8a4c6a898d" d="m227.95-206.46-0.36575 0.49208-2.0984 3.3566-5.8878 9.7021-4.15 7.0859-1.5544 2.7833-1.2752 2.4095-0.7559 1.2908-0.38302 0.5636-0.97686 1.233-1.205 1.3574-1.2993 1.2959-1.3919 1.16-1.4896 0.94015-1.5987 0.62294-1.446 0.22057-1.5091-0.01671-1.547-0.19292-1.64-0.33943-1.6232-0.44545-1.5731-0.527-1.4881-0.58985-1.7338-0.77367-1.2748-0.51564-2.9606-0.99153-0.96497-0.37212-0.94382-0.43573-1.4217-0.79391-1.2891-0.85245-2.464-1.8417-0.79022-0.74074-0.83118-1.0929-0.5902-1.2336-0.36848-1.5647-0.20686-1.5975-0.22124-1.2682-0.41687-1.1826-0.72965-1.0618-0.61728-0.60122-0.70697-0.52804-1.1424-0.61769-1.4985-0.47167-1.4003-0.12018-1.0799 0.14458-0.97504 0.35942-0.79448 0.50573-0.7433 0.66106-0.88712 1.0208-0.83854 1.1717-3.5055 5.7636-0.78517 1.1547-0.82202 1.072-1.6059 1.7589-1.653 1.587-0.81605 0.67302-0.95058 0.66315-0.69992 0.39811-0.81802 0.365-1.1714 0.35053-0.60343 0.12203-1.1231 0.14087-3.0291 0.13797-1.896-0.084003-1.6358-0.25256-2.2401-0.4493-1.7992-0.30622-1.7675-0.079359-1.6506 0.28723-0.93608 0.32131-0.89876 0.41587-1.1247 0.68544-0.89018 0.71114-0.44936 0.43897-0.79678 0.98662-0.36552 0.6267-0.2356 0.56683-0.1483 0.59727-0.011851 1.2352 0.27849 1.297 0.46732 1.3449 0.5721 1.3755 0.63103 1.3671 1.6209 3.2263 0.51575 1.1837 0.79488 2.094 0.4342 0.95781 0.35268 0.96842 0.15006 0.96982-0.095797 0.81115-0.24024 0.7964-0.62581 1.7623-0.62656 2.657-0.41642 1.4986-0.53752 1.4132-0.68256 1.4262-0.43581 0.79385-2.1095 3.5025-0.97731 1.7813-0.77561 1.8296-0.37424 1.3244-0.26075 1.3427-0.27496 1.9031-0.34564 1.9144-0.48794 1.6696-0.69949 1.7968-2.5339 5.4246-0.77737 1.8195-0.63417 1.8255-0.41708 1.8316-0.15543 1.8074 0.018019 3.6442-0.092548 1.8211-0.374 2.0267-0.64669 1.9352-0.88441 1.7773-1.1056 1.5389-1.3281 1.2011-0.51917 0.31728-1.4588 0.54926-1.6183 0.28123-3.4948 0.2464-1.7797 0.19557-1.7402 0.4-1.7108 0.72117-1.616 0.98965-1.5129 1.1883-1.3952 1.3291-1.7206 1.951-1.1952 1.6057-1.2792 2.1043-0.64794 1.3772-0.50226 1.4924-0.10023 0.42561-0.22207 1.6653-0.14342 1.6248-0.34713 1.5986-0.43925 1.0039-0.7446 1.2053-1.2755 1.6195-1.2959 1.4207-2.8838 2.9132-3.2753 3.245-2.5208 2.3754-1.3087 1.1392-2.3338 1.9044-6.3981 4.9621-2.938 2.3778-1.9051 1.6669-1.6606 1.6004-1.1286 1.2018-1.5593 1.8802-1.4067 1.9929-1.2097 2.067-0.99419 2.1757-0.72106 2.291-0.35399 1.9615-0.16287 1.8477-0.041173 1.5086 0.025227 1.5216 0.17934 2.7666 0.24587 2.3259 0.69209 5.3379 0.023257 0.61541-0.063708 0.11971-2.9645 1.5377-1.7604 0.77727-1.4675 0.47809-0.62052 0.10593-0.47451-0.003076-0.37318-0.11536-0.28012-0.2707-0.15416-0.39605-0.044814-0.48964 0.047587-0.54609 0.4519-2.1442 0.10214-0.80364 0.044598-1.7117-0.064593-0.98723-0.12478-0.99739-0.18382-0.99842-0.26481-1.0561-0.46393-1.3591-0.71854-1.6716-1.2286-2.6507-0.93568-1.8046-0.47616-0.79584-1.0597-1.5557-0.57824-0.7602-1.1953-1.4252-0.61442-0.66384-1.2386-1.1979-1.4645-1.165-1.3265-0.87001-0.92226-0.53814-0.951-0.51234-1.947-0.94637-3.2908-1.3868-1.2628-0.46342-2.0927-0.65753-1.408-0.36104-1.6371-0.34891-2.8712-0.46923 0.12729-0.58631 0.74381-2.3339 1.924-5.5126 0.62815-1.666 0.76487-1.8653 0.56046-1.2447 0.58834-1.2018 1.1041-1.9445 0.78002-1.1622 1.9883-2.7807 1.4802-2.2899 1.3382-2.4295 0.88634-1.9653 0.60924-1.586 0.41926-1.2357 0.40311-1.3321 0.34112-1.3124 0.2184-1.017 0.23573-1.483 0.10684-1.249 0.005346-1.1004-0.16208-1.5639-0.18828-0.85946-0.31642-0.99533-0.3124-0.76318-0.39448-0.80445-0.83836-1.4429-0.78954-1.2072-1.6649-2.2689-1.9045-2.2777-3.8757-4.3426-4.499-4.8023-1.2235-1.4477-0.9723-1.3032-1.0385-1.623-0.65168-1.1898-0.61256-1.3562-0.19083-0.51913-0.19372-0.63422-0.1805-0.86819-0.059316-1.5364 0.19668-1.5722 0.36552-1.602 1.2805-4.6786 0.26183-1.2101 0.23742-1.513 0.078533-1.2403-0.072384-1.0772-0.2931-1.1456-0.51768-1.1514-1.5352-2.4908-0.30197-0.60138-0.16633-0.52657-0.021431-0.48401 0.14842-0.44402 0.23557-0.30983 0.51717-0.37371 0.36469-0.16296 0.57874-0.17868 0.85306-0.12733 0.01349-0.15793 0.14622-0.21022 0.56337-0.53372 0.86494-0.62561 0.70893-0.43265 1.0818-0.5541 0.71098-0.30244 1.5215-0.49354 1.2509-0.24937 0.70388-0.078456 1.0615-0.035792 1.1018 0.063579 0.9453 0.133 1.1782 0.2642 1.1252 0.35011 1.6785 0.68278 1.4017 0.69667 2.1262 1.2302 1.7198 1.1431 1.765 1.3486 1.3807 1.218 2.5937 2.4916 0.99578 0.81652 0.52716 0.33798 0.42011 0.2074 0.43619 0.14944 0.66931 0.090724 0.5965-0.047372 0.72052-0.1899 0.51909-0.2142 0.9302-0.51378 1.0153-0.70434 1.4677-1.238 0.73888-0.73825 1.0766-1.2772 0.7368-1.0721 0.79184-1.4636 0.41814-1.0411 0.399-1.5369 0.14671-1.3534 0.01955-1.5227-0.078436-3.6524 0.033833-3.9454 0.097772-2.403 0.21762-3.037 0.34055-3.3438 0.53268-3.6967 0.52626-2.5824 0.48194-1.7519 0.30722-0.89365 0.41385-0.9939 0.445-0.85865 0.33302-0.53111 0.55261-0.72039 0.70056-0.73234 0.66981-0.59857 2.4956-1.9977 0.64784-0.56741 0.80724-0.7927 1.2619-1.4521 0.39187-0.54516 0.31504-0.48394 0.77309-1.4219 0.53004-1.2109 0.63506-1.9955 1.4835-6.1909 1.8191-6.686 1.1823-4.7685 0.19102-1.3651 0.04267-0.93294-0.013495-1.0396-0.084169-1.3144-0.14418-1.3509-0.48776-3.2145-0.86505-4.7644-1.1225-5.6318-0.43108-1.714-0.059693-0.43939 0.20937 0.023244 0.35547-0.14425 0.42908-0.29013 0.46381-0.44129 0.46336-0.54828 3.9232-5.1908 0.48926-0.71223 0.54223-0.99871 0.40862-0.95153 0.35923-0.99341 0.67789-2.2702 0.70588-2.8334 1.2101-5.5357 0.5796-2.3777 0.52612-1.6398 0.27388-0.64902 0.31344-0.58282 0.36698-0.49654 0.43754-0.38515 0.58367-0.27455 0.66874-0.13898 0.7308-0.036027 0.85788 0.046137 2.6971 0.29542 0.88168 0.022627 0.84124-0.084655 0.68922-0.18446 1.9919-0.75209 0.70379-0.14424 0.45824-0.025428 1.1612 0.11843 0.68762 0.15881 1.4159 0.47953 0.81488 0.40464 0.12762 0.1033 0.23632 0.46358 0.7481 1.8077 0.47509 1.015 0.36876 0.67862 0.81587 1.2714 0.64975 0.86443 1.2852 1.4509 1.2613 1.142 1.0028 0.69002 0.81574 0.39424 1.0585 0.25986 1.4073-0.11301 1.4269-0.54049 1.4366-0.85863 1.4395-1.0835 1.4377-1.2304 5.971-5.5478 1.7361-1.8488 3.0394-3.4528 0.75134-0.76433 0.76749-0.69344 0.80922-0.61431 0.84211-0.49731 1.1621-0.43316 1.1714-0.14992 1.222 0.072935 1.3745 0.27769 1.2535 0.38146 1.6045 0.61367 3.2621 1.5032 3.5815 1.8461 2.4711 1.3781 3.5029 2.1511 9.7353 6.4635 3.9292 2.5122 3.7052 2.1651 5.8721 3.1757 3.1196 1.7386 2.7953 1.669 1.833 1.1692 3.0293 2.1164 1.3953 1.1353 0.65254 0.59757 1.0456 1.1009 0.92004 1.2062 1.1192 1.6994 1.0944 1.5599 0.49914 0.59945 1.2181 1.1876 1.4123 1.0904 1.571 1.011 1.7002 0.94588 2.0933 1.0278 6.6453 2.9182 3.0114 1.4053 5.5198 2.8602 2.6496 1.312 4.925 2.1729 4.4008 1.6898" stroke="#bdc660"/>
    </defs>
    <g clip-path="url(#p22bb099197)">
     <use y="280.512" fill="#bdc660" stroke="#bdc660" xlink:href="#m8a4c6a898d"/>
    </g>
   </g>
  </g>
 </g>
 <defs>
  <clipPath id="p22bb099197">
   <rect x="7.2" y="7.2" width="231.26" height="266.11"/>
  </clipPath>
 </defs>
</svg>
