<?xml version="1.0" encoding="UTF-8"?>
<!DOCTYPE svg  PUBLIC '-//W3C//DTD SVG 1.1//EN'  'http://www.w3.org/Graphics/SVG/1.1/DTD/svg11.dtd'>
<svg width="342.4pt" height="280.51pt" version="1.1" viewBox="0 0 342.4 280.51" xmlns="http://www.w3.org/2000/svg" xmlns:xlink="http://www.w3.org/1999/xlink">
 <metadata>
  <rdf:RDF xmlns:cc="http://creativecommons.org/ns#" xmlns:dc="http://purl.org/dc/elements/1.1/" xmlns:rdf="http://www.w3.org/1999/02/22-rdf-syntax-ns#">
   <cc:Work>
    <dc:type rdf:resource="http://purl.org/dc/dcmitype/StillImage"/>
    <dc:date>2024-07-04T12:08:50.548365</dc:date>
    <dc:format>image/svg+xml</dc:format>
    <dc:creator>
     <cc:Agent>
      <dc:title>Matplotlib v3.7.1, https://matplotlib.org/</dc:title>
     </cc:Agent>
    </dc:creator>
   </cc:Work>
  </rdf:RDF>
 </metadata>
 <defs>
  <style type="text/css">*{stroke-linejoin: round; stroke-linecap: butt}</style>
 </defs>
 <g id="figure_1">
  <g id="patch_1">
   <path d="m-0 280.51h342.4v-280.51h-342.4v280.51z" fill="none"/>
  </g>
  <g id="axes_1">
   <g id="PatchCollection_1">
    <defs>
     <path id="m0681ade846" d="m285.02-199.57 0.095747 0.50119 0.68278 1.0761 8.0788 10.289 3.8206 5.041 3.5549 4.8614 1.6903 2.4203 1.6095 2.4161 1.508 2.4183 1.3807 2.4292 1.2212 2.4513 0.78741 1.8344 2.2675 6.0834 3.5369 9.0184 2.7897 7.3507 0.667 1.8668 0.77919 2.4926 0.15564 0.58716 0.43652 2.2321 0.20722 2.2996-0.021877 2.2789-0.20062 2.2847-0.2398 1.7185-0.94399 5.4985-0.23576 1.8271-0.26303 3.5146-0.27176 1.9466-0.31485 1.3119-0.68347 2.0342-2.5212 6.2374-1.4122 3.7199-0.77742 2.4499-2.7347 9.4842-1.812 5.8569-0.94273 3.7435-0.52751 2.4589-0.53497 2.916-0.8284 5.1489-0.24945 1.2824-1.6448 6.1578-0.27869 1.4698-0.1279 1.8403 0.051836 0.86749 0.16435 1.0804 0.42586 1.6246 0.31719 0.88872 1.461 3.3217 1.8153 3.761 0.99226 1.8802 1.6467 2.8172 1.6932 2.6061 5.1903 7.5709 0.71731 1.1558 0.17978 0.48458-0.34578 0.034703-1.3111 0.28806-2.6018 0.63097-1.9037 0.54144-2.1018 0.69329-2.3906 0.91671-2.73 1.1836-6.3014 2.9177-2.2522 0.93031-2.076 0.7125-1.3723 0.31131-0.83753 0.10695-1.862 0.097855-1.4104 0.004238-1.0235-0.10108-0.97514-0.20301-0.73961-0.22029-1.0002-0.40931-2.6139-1.4452-1.258-0.56566-2.0372-0.76265-0.67501-0.18885-0.93468-0.14875-0.8783-0.021596-0.86487 0.16301-0.69647 0.34938-1.2874 1.0124-0.50416 0.32353-0.62757 0.2988-0.87896 0.23512-0.62687 0.058613-0.7736-0.003381-2.4253-0.19551-2.4011-0.29714-2.3299-0.45409-1.3247-0.37314-1.2405-0.43828-1.5163-0.66713-0.89217-0.47222-1.2114-0.73512-1.6239-1.1056-5.1744-3.7699-1.4541-0.95249-1.0588-0.59215-1.193-0.55115-1.0952-0.40404-1.5539-0.44269-4.3154-0.87813-1.7086-0.42892-1.2482-0.38744-2.3634-0.85037-2.8687-1.1422-0.97414-0.42942-1.8525-0.9209-2.4365-1.4408-1.7732-1.187-3.7664-2.8271-1.0641-0.73828-5.638-3.5026-4.1162-2.7933-6.4823-3.8467-0.9627-0.62892-0.88075-0.6541-0.81008-0.71208-1.6121-1.63-1.2336-1.1367-1.6382-1.2471-1.6592-1.0721-2.1356-1.2032-2.165-1.0099-5.7756-2.3463-8.1209-3.5606-6.8589-3.4334-4.4287-2.5379-0.77375-0.53419-1.9521-1.5931-1.0932-0.80578-2.9236-1.7899-4.2006-2.7123-2.0199-1.0955-1.9907-0.91271-1.4229-0.52598-2.162-0.61873-1.6921-0.39829-2.7989-0.50549-1.7083-0.22932-5.9458-0.64741-7.7882-1.0538-2.1657-0.1859-2.4534-0.055714-2.0412 0.14433-1.0942 0.1813-1.4979 0.38921-2.3734 0.86385-1.4237 0.60364-2.3469 1.203-1.2012 0.75585-0.49997 0.40606-0.32398 0.48878-0.048464-0.29849-0.11656-0.20892-0.6014-0.71311-0.94682-0.77111-0.80527-0.47446-1.0176-0.45595-1.2553-0.45505-2.4962-0.82691-2.8354-0.84134-1.7866-0.36578-1.2296-0.15202-2.801-0.13064-4.0145-0.008184-1.2675-0.14208-0.89132-0.23063-0.7298-0.28596-0.83819-0.43604-0.82506-0.52536-0.92675-0.68702-1.1622-1.0019-1.0282-1.0048-1.0193-1.0903-2.1372-2.5378-2.8253-3.7664-2.1041-3.0578-1.5509-2.4159-1.0114-1.6703-1.2547-2.2108-1.0955-2.0447-1.4482-2.8353-1.5392-3.2528-1.5486-3.6084-1.1205-2.7959-0.97944-2.6066-1.1739-3.3638-1.2773-4.113-1.7585-6.1667-0.42611-1.839-0.49249-2.7234-0.29041-1.1921-0.18483-0.55659-0.87253-1.7979-1.2358-1.8097-1.5234-1.822-1.7526-1.8339-2.0301-1.9327-2.1847-1.9542-7.128-6.0902-4.9222-4.3439-2.3997-2.2766-2.2836-2.3398-2.1139-2.3811-1.8713-2.2958-1.5389-2.0399-1.0552-1.5352-0.32244-0.66902 4.1693-1.0268 2.3447-0.65098 2.4257-0.77244 2.3785-0.89512 2.234-1.0328 2.0051-1.1993 1.6917-1.4091 1.1711-1.4308 0.9184-1.5682 0.71316-1.6461 0.54326-1.6718 0.39702-1.6502 0.26378-1.5839 0.10705-1.2546-0.007447-0.73452-0.52464-5.0027 0.01308-0.98435 0.20974-1.1121 0.33703-0.8937 0.53238-0.99474 0.58327-0.86488 0.88306-1.1118 1.7352-1.9793 0.71878-0.90416 0.50128-0.81637 0.21558-0.57124 0.055711-0.55472-0.20535-0.71964-0.47061-0.74019-1.2384-1.4158-1.8874-1.8113-4.5574-3.7375-0.99478-0.90094-1.3909-1.4651-0.7783-1.0022-0.6454-1.0377-0.49037-1.1017-0.20276-0.71971-0.12469-1.332 0.042321-0.63077 0.25404-1.2257 0.6547-1.6171 1.8235-3.3152 0.85729-1.8213 0.4079-1.1481 0.33629-1.1992 0.54096-2.7121 0.77714-5.3441 0.24092-1.1743 0.16067-0.53484 0.20535-0.31613 0.47584-0.24492 2.1882-0.83552 8.0812-2.6906 3.2801-1.02 4.0168-1.0576 1.8418-0.37823 1.3656-0.20158 1.2368-0.1147 4.4526-0.10016 3.0042-0.25407 3.6321-0.41756 1.1682-0.027859 2.6242 0.11398 3.8109 0.3399 4.6028 0.52919 5.0846 0.82151 2.6089 0.26733 1.9232 0.084987 1.7982-0.007383 1.4242-0.067313 5.2412-0.41105 6.806-0.23113 4.6226-0.30366 5.2581-0.47346 1.4042-0.086629 1.707 0.014126 1.7902 0.24443 1.3018 0.39588 1.2174 0.52336 2.1068 1.0338 1.0353 0.43003 1.4545 0.48761 2.0377 0.51579 2.1097 0.36012 6.3688 0.628 6.8576 0.7445 1.3362 0.20036 0.78828 0.19261 0.93832 0.30424 1.1221 0.46119 1.3303 0.69382 1.5375 1.0182 1.2485 0.9174 1.2545 0.98817 3.8188 3.198 1.9306 1.5186 6.2638 4.5366 3.6472 2.524 1.3875 1.0799 1.6827 1.5227 0.89214 1.0746 0.66935 1.1414 0.50745 1.2434 0.3826 1.4075 0.2373 1.451 0.11636 2.1468-0.078399 1.2331-0.21494 1.2172-0.38188 1.249-0.4979 1.2276-0.57939 1.231-0.5178 0.96043-1.1383 1.7745-1.0514 1.2841-0.715 0.73919-0.98171 0.8553-2.785 2.0587-0.7808 0.70873-0.69616 0.79574-0.61273 0.94758-0.4436 1.0367-0.29696 1.1712-0.1372 1.072-0.025731 1.2083 0.074371 0.88544 0.18224 0.96286 0.24223 0.81099 0.31149 0.78749 0.80907 1.6306 2.0112 3.7584 0.95782 2.0087 0.9172 2.3415 0.51824 1.7007 0.27569 1.1909 0.31418 1.8818 0.38215 1.8618 0.48197 1.4216 0.40944 0.95831 0.56012 1.1342 0.56835 1.0066 1.1267 1.727 1.4605 1.9234 1.2898 1.5043 1.196 1.2613 1.061 1.0152 1.1169 0.96989 2.0736 1.5505 1.4474 0.90874 1.5088 0.84344 2.2229 1.1273 9.3505 4.3791 3.9215 1.9599 3.1262 1.6677 8.6867 4.8698 2.3226 1.2197 2.2813 1.0804 2.3093 0.90365 2.2358 0.59083 1.2626 0.15365 1.2229-0.022105 0.68426-0.10321 0.64045-0.16078 1.7389-0.79268 0.89462-0.6111 1.3048-1.1329 0.9634-1.0144 0.69282-0.81704 1.1271-1.4612 0.92642-1.2944 0.84227-1.2391 1.2743-2.0223 0.76546-1.3564 0.90761-1.8677 0.9768-2.5996 0.79306-2.696 1.4139-5.4463 0.80932-2.6313 1.0173-2.4791 1.3524-2.2412 1.4383-1.6036 2.0731-1.6786 2.3813-1.4773 2.6263-1.328 2.8205-1.2181 2.9716-1.1369 3.0815-1.0747 3.1456-1.0224 6.2222-1.8784 7.1163-2.0373 0.64117-0.25594" stroke="#bdc660"/>
    </defs>
    <g clip-path="url(#pc2d3540d6e)">
     <use y="280.512" fill="#bdc660" stroke="#bdc660" xlink:href="#m0681ade846"/>
    </g>
   </g>
  </g>
 </g>
 <defs>
  <clipPath id="pc2d3540d6e">
   <rect x="7.2" y="7.2" width="328" height="266.11"/>
  </clipPath>
 </defs>
</svg>
