<?xml version="1.0" encoding="UTF-8"?>
<!DOCTYPE svg  PUBLIC '-//W3C//DTD SVG 1.1//EN'  'http://www.w3.org/Graphics/SVG/1.1/DTD/svg11.dtd'>
<svg width="371.52pt" height="242.08pt" version="1.1" viewBox="0 0 371.52 242.08" xmlns="http://www.w3.org/2000/svg" xmlns:xlink="http://www.w3.org/1999/xlink">
 <metadata>
  <rdf:RDF xmlns:cc="http://creativecommons.org/ns#" xmlns:dc="http://purl.org/dc/elements/1.1/" xmlns:rdf="http://www.w3.org/1999/02/22-rdf-syntax-ns#">
   <cc:Work>
    <dc:type rdf:resource="http://purl.org/dc/dcmitype/StillImage"/>
    <dc:date>2024-07-04T12:08:58.015959</dc:date>
    <dc:format>image/svg+xml</dc:format>
    <dc:creator>
     <cc:Agent>
      <dc:title>Matplotlib v3.7.1, https://matplotlib.org/</dc:title>
     </cc:Agent>
    </dc:creator>
   </cc:Work>
  </rdf:RDF>
 </metadata>
 <defs>
  <style type="text/css">*{stroke-linejoin: round; stroke-linecap: butt}</style>
 </defs>
 <g id="figure_1">
  <g id="patch_1">
   <path d="m0 242.08h371.52v-242.08h-371.52v242.08z" fill="none"/>
  </g>
  <g id="axes_1">
   <g id="PatchCollection_1">
    <defs>
     <path id="m584fd609d9" d="m276.21-152.12 0.70805 0.17833 2.665 1.1683 1.2108 0.38329 1.1177 0.21901 2.3435 0.31447 1.619 0.4298 1.3919 0.58462 2.3238 1.1321 0.58582 0.21538 0.6489 0.15047 0.86949 0.046447 1.8254-0.066108 1.7566 0.39575 0.4982 0.014465 0.27958-0.049866 0.67711-0.33013 1.2679-1.2307 0.35274-0.27322 0.49173-0.25052 0.4231-0.10707 0.77546 0.010979 0.77632 0.22374 0.52877 0.24391 2.1847 1.2299 1.4529 0.63964 3.1213 1.0163 2.3782 0.58507 0.30831-0.045486 0.2775 0.096791 0.63026 0.38852 0.69726 0.61019 1.3092 1.4794 2.5898 3.2649 0.85422 0.93321 0.97516 0.93575 5.1466 4.274 4.6005 3.5078 1.2861 1.165 1.0682 1.1693 0.82919 1.1414 1.2787 2.6216 0.85409 2.958 0.5558 3.1938 0.3587 3.3527 0.65124 10.485 0.3856 4.4903 0.42255 3.3117 0.56501 3.2298 0.93233 4.0119 0.88192 3.1267 1.0015 2.9763 1.1328 2.7586 0.91708 1.8852 1.6704 3.2376 0.73232 1.258 0.76908 1.1551 1.1641 1.4475 2.0595 2.3958 0.58157 1.0848 0.11205 0.72086-0.12934 0.68711-0.69718 0.98892-0.6647 0.55479-0.72744 0.48925-1.396 0.7245-1.6559 0.68898-8.7725 3.2214-2.4196 0.80815-19.081 5.5477-3.2034 1.0311-3.1985 1.1493-8.7213 3.3771-3.0684 1.055-1.5863 0.42612-0.19705-0.32404-0.44898-0.10417-1.0755 0.075253-0.82303 0.16567-2.7878 0.79267-7.0304 2.3449-3.4888 1.0912-4.3728 1.1784-4.478 1.0004-15.343 2.8722-1.5707 0.23562-2.7243 0.28833-3.8284 0.12199-1.068 0.10776-4.1349 0.61564-1.4463 0.27146-1.3608 0.36675-1.2248 0.47596-1.5275 0.74581-2.333 1.7051-2.1812 1.3482-0.70985 0.56342-0.6802 0.63825-2.0922 2.0996-2.7515 2.3933-2.5243 2.2997-2.0385 1.6129-1.2083 0.79441-1.164 0.60694-1.1696 0.4874-1.1157 0.3741-1.4414 0.32202-0.6481 0.032216-0.32138-0.11398-0.76231 0.30524-1.1729 0.29443-1.2063 0.21362-1.2893 0.022339-1.014-0.20824-1.0108-0.43688-1.3065-0.95679-1.4435-1.5143-1.9618-2.329-1.8823-2.0412-2.1132-2.0904-4.616-4.2076-8.5948-7.5665-1.7664-1.6303-3.8797-3.7452-1.2178-0.90557-0.94553-0.49038-1.7754-0.58104-2.2582-0.47286-2.4363-0.33599-4.2508-0.45408-2.8312-0.3967-2.8747-0.49772-5.5381-1.0938-3.3871-0.85211-5.8231-1.8902-3.2593-0.91726-3.271-0.63057-1.2827-0.13642-1.8118-0.056874-1.4404 0.083887-1.5476 0.24661-1.5291 0.44692-1.5385 0.75005-1.2828 0.96642-1.1806 1.3369-0.974 1.3781-0.9839 1.2346-1.2153 0.89465-1.7955 0.41473-1.5923-0.009335-1.9269-0.2227-2.2234-0.40999-4.438-1.0331-12.876-3.1667-7.5591-1.5802-9.2984-1.7559-3.7147-0.64878-4.787-0.72864-6.3164-0.78932-0.54677 0.057291-0.77164-0.35559-0.75573-0.58774-0.58689-0.59851-0.55495-0.6981-0.71921-1.1597-0.44405-0.90906-0.70757-1.8846-0.48251-1.7433-0.41614-1.966-0.3272-1.9927-0.43893-3.8715-0.23425-3.841-0.22934-9.0596-0.38963-11.098-0.25599-10.363-0.16197-3.9097-0.36251-4.8191-0.39079-3.0023-0.3414-1.5124-0.44497-1.4861-0.75538-1.9535-0.73149-1.4943-0.62152-1.0915-1.381-2.0652-1.1192-1.4538-1.4104-1.6776-1.3171-1.409-4.126-3.9116-2.2573-2.3199-1.5871-1.8591-1.0313-1.3551-1.0033-1.4719-0.89733-1.4899-0.66498-1.2472-1.0856-2.4342-0.49724-1.4134-0.52604-1.975-0.67878-3.2826-0.15235-1.3105 0.002804-1.2167 0.36102-2.2016 0.47962-1.916 0.84788-3.016 1.3899-4.313 3.1454-8.3119 0.763-2.8406 0.22034-1.3297 0.12425-1.4413 0.019287-1.0058-0.094725-1.8691-0.47998-3.4343-0.68653-3.2214-0.33338-1.2129-0.70865-2.1218-1.015-2.4036-1.4634-2.7889-1.5562-2.4586-2.0834-2.8416-1.9615-2.4066-8.3843-9.4964 0.39153-0.5907 0.60421-0.49072 1.4517-0.91344 2.8362-1.4538 1.7205-0.7295 2.8682-1.044 1.8102-0.47036 1.3224-0.2191 2.4668-0.17442 2.9649 0.067331 2.6173 0.22466 9.4121 1.2735 7.1855 0.7824 2.0645 0.27714 3.3825 0.61088 2.0449 0.48134 2.6128 0.74774 1.7196 0.63565 2.4057 1.103 2.4411 1.3239 5.0765 3.2778 3.5332 2.1631 1.3212 0.97379 2.3591 1.9252 0.93508 0.64557 5.3521 3.067 8.289 4.1493 9.8141 4.303 6.9798 2.8355 2.6165 1.2205 2.5808 1.4541 2.0051 1.2957 1.9797 1.5071 1.4908 1.3737 1.9482 1.9698 0.97898 0.86055 1.0644 0.79048 1.1634 0.76005 7.8339 4.6487 4.9745 3.3757 6.8136 4.2329 1.286 0.89221 4.5517 3.4166 2.143 1.4345 2.9446 1.7413 2.2388 1.1129 1.1772 0.51896 3.4669 1.3803 2.8562 1.0277 1.5084 0.46823 2.0648 0.51835 5.2152 1.0612 1.8778 0.53499 1.3236 0.48828 1.4417 0.66607 1.2795 0.71562 1.7572 1.1511 6.2533 4.5559 1.9625 1.3361 1.464 0.8884 1.0782 0.57068 1.8324 0.80623 1.4992 0.52966 1.6009 0.45094 2.8157 0.54877 2.9017 0.3591 2.9309 0.23627 0.93489 0.004087 0.75757-0.070835 1.0622-0.28414 0.75842-0.3611 0.60928-0.39099 1.5559-1.2235 0.84169-0.42223 1.0452-0.197 1.0614 0.026098 1.1296 0.17977 0.81575 0.22822 2.462 0.92166 1.5203 0.68361 3.1589 1.7466 1.2088 0.49465 0.89382 0.26622 1.1785 0.24534 1.2368 0.12215 1.7045-0.005122 2.2502-0.11826 1.0122-0.12925 1.6584-0.37622 2.5089-0.86106 2.7218-1.1243 7.6153-3.526 3.2992-1.4303 2.8891-1.1078 2.54-0.83784 2.3006-0.65433 3.1443-0.76253 1.5845-0.34812 0.41788-0.041939" stroke="#bdc660"/>
    </defs>
    <g clip-path="url(#p273c4de46f)">
     <use y="242.077745" fill="#bdc660" stroke="#bdc660" xlink:href="#m584fd609d9"/>
    </g>
   </g>
  </g>
 </g>
 <defs>
  <clipPath id="p273c4de46f">
   <rect x="7.2" y="7.2" width="357.12" height="227.68"/>
  </clipPath>
 </defs>
</svg>
