<?xml version="1.0" encoding="UTF-8"?>
<!DOCTYPE svg  PUBLIC '-//W3C//DTD SVG 1.1//EN'  'http://www.w3.org/Graphics/SVG/1.1/DTD/svg11.dtd'>
<svg width="265.28pt" height="280.51pt" version="1.1" viewBox="0 0 265.28 280.51" xmlns="http://www.w3.org/2000/svg" xmlns:xlink="http://www.w3.org/1999/xlink">
 <metadata>
  <rdf:RDF xmlns:cc="http://creativecommons.org/ns#" xmlns:dc="http://purl.org/dc/elements/1.1/" xmlns:rdf="http://www.w3.org/1999/02/22-rdf-syntax-ns#">
   <cc:Work>
    <dc:type rdf:resource="http://purl.org/dc/dcmitype/StillImage"/>
    <dc:date>2024-07-04T12:09:26.947598</dc:date>
    <dc:format>image/svg+xml</dc:format>
    <dc:creator>
     <cc:Agent>
      <dc:title>Matplotlib v3.7.1, https://matplotlib.org/</dc:title>
     </cc:Agent>
    </dc:creator>
   </cc:Work>
  </rdf:RDF>
 </metadata>
 <defs>
  <style type="text/css">*{stroke-linejoin: round; stroke-linecap: butt}</style>
 </defs>
 <g id="figure_1">
  <g id="patch_1">
   <path d="m0 280.51h265.28v-280.51h-265.28v280.51z" fill="none"/>
  </g>
  <g id="axes_1">
   <g id="PatchCollection_1">
    <defs>
     <path id="m5df8fdc639" d="m246.64-125.8-3.2861 3.447-0.57387 0.54151-0.39738 0.3024-0.42547 0.20676-0.22497 0.048698-0.47372 0.015893-1.2176-0.1223-0.23961 0.001906-0.4603 0.10344-0.46041 0.19832-0.70219 0.39666-2.2783 1.486-0.46181 0.35157-1.0967 0.57925-2.8818 1.3317-7.3235 2.9742-2.2413 0.94604-3.7351 1.6808-5.1406 2.5232-3.7803 2.0673-3.2463 1.9905-1.893 1.262-3.5515 2.5496-5.6268 4.2187-2.9247 2.0432-1.3971 0.90015-2.1725 1.2799-2.2389 1.1554-2.2188 0.98485-2.4634 0.96716-6.7838 2.5656-28.095 10.819-5.1543 2.0523-5.0989 2.1591-2.5135 1.149-2.4774 1.219-2.1836 1.1661-2.1527 1.225-2.1281 1.2708-4.1999 2.6405-10.959 7.2695-2.3157 1.4197-2.3682 1.3171-2.1761 1.0666-2.2225 0.97872-2.2571 0.9149-4.5811 1.7151-7.9265 2.8614-7.7977 2.9901-10.434 4.1943-10.264 4.2179-4.6784 2.0052-4.4903 2.0788-3.7678 1.8761-9.0362 4.7527-1.813 0.90974-2.1369 0.99879-3.0106 1.2362-1.6452 0.57354-1.4378 0.40448-0.5314 0.02665-0.18642-0.93612-1.666-6.9468-1.3826-6.0931-0.87694-4.1286-1.0262-5.4785-0.49679-3.3769-0.40994-3.9563-0.17203-2.9425-0.050838-3.6329 0.13676-2.7695 0.15106-1.5166 0.18696-1.4331 0.48733-2.877 0.69458-3.3705 0.60334-2.5835 2.7687-10.499 0.74192-3.1396 0.45379-2.1626 0.59482-3.2377 0.95762-6.2158 1.3994-8.4473 0.21905-1.5313 0.12135-1.2387 0.077384-1.8189-0.018322-1.9047-0.11075-1.5038-0.31785-1.8599-0.43897-1.5285-0.52244-1.3208-0.40376-0.84382-2.2683-4.185-0.49724-1.0881-0.51725-1.3418-0.29111-0.93163-0.27687-1.1323-0.29342-1.8127-0.1996-2.0054-0.16627-3.0614 0.016015-3.0289 0.22944-3.5462 0.33435-2.715 0.44642-2.6004 0.6984-2.8758 0.58942-1.8534 1.0382-2.761 0.59016-1.3946 0.602-1.2803 0.6615-1.2271 0.53044-0.86621 1.4272-1.998 2.4472-3.011 4.0968-4.5647 1.202-1.4214 1.5563-2.0971 1.3013-2.1019 0.51022-0.97364 0.67971-1.5354 0.68622-2.1124 0.35927-1.4986 0.31221-1.6676 0.49689-3.4864 0.3114-1.8562 0.33239-1.3898 0.20002-0.6486 0.67272-1.6636 0.58129-1.0652 0.71352-0.98559 0.87324-0.87479 0.68107-0.52885 0.55815-0.34643 2.7381-1.1903 1.7748-0.4825 2.8615-0.86413 3.8773-1.0178 1.3928-0.41618 2.0109-0.72722 2.2932-1.0038 2.1994-1.1443 1.0776-0.61724 4.3968-2.6824 3.2201-1.8565 5.973-3.1674 7.5499-4.1858 4.8974-2.5302 2.5934-1.2231 1.5094-0.64938 1.597-0.621 2.4374-0.84279 5.1846-1.6994 1.4761-0.50854 1.2105-0.47656 0.67486-0.31264 0.89544-0.49666 0.90288-0.61972 0.7063-0.59721 0.40697-0.40688 0.77005-0.95713 0.68266-1.1593 0.28857-0.6346 0.47745-1.4862 0.21892-1.4404 0.006761-1.8607-0.10272-1.0368-0.15565-0.92124-0.31038-1.2188-0.44845-1.2197-0.96018-2.1625-0.44213-1.137-0.29353-1.0383-0.13168-0.76161-0.046842-0.5955 0.006626-0.66283 0.061938-0.6291 0.18356-0.88888 0.27896-0.8246 0.31754-0.69274 0.83283-1.5839 0.18143-0.53329 0.050593-0.32043-0.055897-0.82273-0.33786-1.6116-0.025372-1.2022 0.33346-1.3403 0.64069-1.1025 0.93052-1.0652 0.93977-0.82662 0.87506-0.61495 0.96648-0.55274 1.7415-0.77118 1.2569-0.47413 1.3333-0.45164 1.9107-0.54773 1.0673-0.24899 1.8575-0.31875 2.442-0.19069 1.5082-0.022534 1.5016 0.048594 1.959 0.1804 1.8395 0.29996 1.7105 0.43253 0.57763 0.22443 0.16727 0.17112 0.18037-0.13321 0.62092-0.29851 1.5614-0.61676 1.238-0.40792 1.3458-0.35944 2.2112-0.36281 2.2046 0.005514 1.228 0.21242 1.4682 0.43414 1.2585 0.48748 1.6976 0.83181 1.7533 1.0984 1.6179 1.1999 1.8628 1.5471 1.6883 1.491 1.9427 1.8228 1.6723 1.7915 1.0998 1.3709 0.75214 1.0901 0.45501 0.88997 0.28986 0.80256 0.18321 0.71308 0.085195 0.57729 0.008512 0.73094-0.14386 0.91206-0.31583 1.0378-1.4182 3.7043-0.44948 1.6955-0.1985 1.3488-0.054078 0.85814 0.022814 1.1844 0.19875 1.318 0.21191 0.74559 0.21785 0.57455 0.66894 1.2895 0.5444 0.8143 0.83591 1.0643 1.1883 1.2318 0.7405 0.63265 1.3002 0.93693 1.0794 0.67037 3.187 1.8288 1.6236 0.98272 1.5604 1.0677 1.383 1.0777 1.6557 1.464 1.1649 1.1359 1.7294 1.8368 1.1307 1.3052 1.2274 1.5416 0.90433 1.2576 1.1063 1.7058 0.84438 1.4694 1.2863 2.5748 2.4711 5.8601 1.1109 2.4079 0.92899 1.7741 1.1926 2.0043 0.89933 1.3396 0.86533 1.1704 0.85977 1.0686 2.2044 2.4785 1.3472 1.3807 0.9633 0.9081 0.97112 0.82748 0.95135 0.706 0.96548 0.59175 0.92359 0.43145 0.94303 0.28814 0.60528 0.098745 0.70145 0.036863 0.66973-0.03475 0.66336-0.095378 0.89797-0.21626 1.122-0.39382 0.90714-0.40481 0.92993-0.48366 2.7356-1.6559 1.1503-0.55211 1.1077-0.23167 1.0544 0.096459 0.91976 0.44781 0.24349 0.2144 0.52683 0.7041 0.40826 0.89374 0.30236 0.97344 0.2518 1.0325 0.91852 4.4811 0.99404 4.1382 0.99609 3.5774 1.8004 5.8345 1.3056 4.699 0.5572 2.3144 0.46315 2.2645 0.34042 2.1899 0.3212 2.8455 0.18557 1.1494 0.23239 0.99948 0.78119 2.1423 1.1122 2.147 1.3672 2.1556 1.5547 2.1622 1.6778 2.1593 5.0256 6.1636 1.3291 1.7355 0.90501 1.3704 0.28239 0.609-0.034849 0.24492" stroke="#bdc660"/>
    </defs>
    <g clip-path="url(#p0a48173ce8)">
     <use y="280.512" fill="#bdc660" stroke="#bdc660" xlink:href="#m5df8fdc639"/>
    </g>
   </g>
  </g>
 </g>
 <defs>
  <clipPath id="p0a48173ce8">
   <rect x="7.2" y="7.2" width="250.88" height="266.11"/>
  </clipPath>
 </defs>
</svg>
