<?xml version="1.0" encoding="UTF-8"?>
<!DOCTYPE svg  PUBLIC '-//W3C//DTD SVG 1.1//EN'  'http://www.w3.org/Graphics/SVG/1.1/DTD/svg11.dtd'>
<svg width="243.42pt" height="280.51pt" version="1.1" viewBox="0 0 243.42 280.51" xmlns="http://www.w3.org/2000/svg" xmlns:xlink="http://www.w3.org/1999/xlink">
 <metadata>
  <rdf:RDF xmlns:cc="http://creativecommons.org/ns#" xmlns:dc="http://purl.org/dc/elements/1.1/" xmlns:rdf="http://www.w3.org/1999/02/22-rdf-syntax-ns#">
   <cc:Work>
    <dc:type rdf:resource="http://purl.org/dc/dcmitype/StillImage"/>
    <dc:date>2024-07-04T12:09:13.652516</dc:date>
    <dc:format>image/svg+xml</dc:format>
    <dc:creator>
     <cc:Agent>
      <dc:title>Matplotlib v3.7.1, https://matplotlib.org/</dc:title>
     </cc:Agent>
    </dc:creator>
   </cc:Work>
  </rdf:RDF>
 </metadata>
 <defs>
  <style type="text/css">*{stroke-linejoin: round; stroke-linecap: butt}</style>
 </defs>
 <g id="figure_1">
  <g id="patch_1">
   <path d="m0 280.51h243.42v-280.51h-243.42v280.51z" fill="none"/>
  </g>
  <g id="axes_1">
   <g id="PatchCollection_1">
    <defs>
     <path id="me5bdd94990" d="m53.152-247.77 0.2672 0.44982 0.52252 0.72373 0.33291 0.34776 10.6 2.9514 1.1427 0.36207 6.1789 2.2918 2.363 0.65551 2.393 0.3809 1.4631 0.07154 2.3137-0.10675 1.7559-0.23609 1.0138-0.19115 1.7934-0.43645 2.219-0.69555 1.3609-0.47835 5.5373-2.0661 3.2067-1.097 1.6652-0.52714 1.6321-0.43327 1.6984-0.2924 1.0152-0.082249 1.1396 0.016024 3.7816 0.40274 6.4111 1.0287 2.0921 0.4889 2.0474 0.68616 1.7204 0.70842 1.6804 0.77142 1.7469 0.86277 1.1895 0.71743 1.1758 0.94188 1.03 1.0991 0.49571 0.65533 0.7344 1.1173 0.69026 1.1863 2.1476 4.0659 0.85235 1.4607 0.8889 1.2354 0.43587 0.47857 0.81655 0.73716 1.5895 1.1837 0.93445 0.63236 0.98736 0.56575 1.473 0.56746 1.52 0.21305 3.1208 0.021036 1.4904 0.18473 0.74008 0.22101 1.4365 0.66966 2.2555 1.2433 1.5806 0.77283 1.1411 0.4205 0.48784 0.093686 0.23991-0.030677 0.14486 0.23019 0.1687 0.96899 0.050105 1.628-0.050872 1.2475-0.33465 2.9726-0.20748 1.3551-0.74847 4.0548-1.0521 6.6939-0.26968 1.3726-0.33186 1.3825-0.61389 2.0699-0.8174 2.2925-0.80436 1.934-1.015 2.1483-1.0432 1.9816-0.8584 1.4738-2.8462 4.4957-1.4295 2.5323-1.6407 3.474-0.56395 1.4314-0.30546 1.4222-0.041618 1.2592 0.096879 1.1665 0.20355 1.2793 0.63016 2.8057 0.62539 2.1459 0.4715 1.3208 0.49835 1.2049 0.71556 1.4549 0.43706 0.74002 0.66333 0.90975 0.67491 0.66758 0.59683 0.3919 1.2412 0.37458 0.80059 0.057978 1.0642-0.042767 1.2112-0.14347 5.3698-0.98001 5.0939-0.78829 1.8573-0.37293 1.5968-0.43966 5.2199-1.7004 1.1322-0.28106 4.2016-0.70239 1.6474-0.42755 1.6633-0.55103 1.4306-0.53258 5.7854-2.2222 4.6918-1.9884 1.4092-0.63865 1.0642-0.58746 1.164-0.73083 3.5205-2.3898 2.0145-1.2412 7.5489-4.0457 1.7204-0.76847 1.7106-0.54628 1.6764-0.20649 1.1316 0.11152 0.89844 0.23554 1.0622 0.4358 1.0151 0.56942 1.0649 0.78065 0.71661 0.66725 0.86774 1.068 0.50759 0.91304 0.48989 1.587 0.21395 1.768 0.027778 2.0281-0.34208 6.4008-0.014105 1.9629 0.070281 1.1903 0.15562 1.1892 0.12713 0.63648 0.3659 1.2889 0.48559 1.2606 1.0403 2.1166 3.2619 5.5764 0.55213 1.0698 0.51534 1.1295 0.25627 0.63574 0.47986 1.4734 0.3244 2.0469-0.031794 0.97622-0.20123 1.0406-0.35425 1.0219-0.71393 1.431-0.80293 1.2692-1.1605 1.5799-2.6215 3.2561-0.81132 1.0607-0.77457 1.125-0.63331 1.1131-0.41635 0.99646-0.29465 1.2279-0.1024 1.2545 0.025904 1.034 0.18277 1.8886 0.21282 1.3865 0.25787 1.3044 0.77779 3.0726 2.3811 7.7199 0.4339 1.8892 0.23656 1.6655 0.12121 1.5514 0.041566 1.4107-0.035541 0.8847-0.096742 0.59009-0.11044 0.29157-0.10677 0.13518-0.13986 0.047767-0.41469 0.43762-3.5784 3.1493-0.79019 0.75122-1.2576 1.3088-1.1936 1.3549-0.9872 1.1926-1.1626 1.6029-0.78758 1.3706-0.75988 1.751-0.30177 0.92483-0.29336 1.2022-0.16795 1.0615-0.067015 0.74483-0.022866 0.99683 0.13242 1.7604 0.36394 2.1969 0.066994 0.77533-0.01958 0.81103-0.4388 3.3265-0.033443 1.3138 0.17775 1.7448 0.51361 2.9376 0.077576 1.1638-0.083847 1.5234-0.12238 0.78698-0.29506 1.3133-0.44114 1.56-0.90996 2.8502-0.40056 1.0945-0.67117 1.5591-0.6581 1.3125-0.96673 1.7242-3.8674 6.0716-0.97002 1.698-0.98775 2.1048-1.516 3.9613-0.65777 1.5381-0.83537 1.6671-0.82301 1.3368-0.84319 1.1384-0.61094 0.73958-1.2369 1.3743-1.5109 1.533-1.869 1.7187-1.3558 1.1317-1.5409 1.1252-1.3604 0.86266-1.8781 1.0153-2.08 0.93209-1.8774 0.71484-1.9533 0.66008-1.6447 0.50119-2.2699 0.58944-1.8932 0.34154-1.6145 0.12168-1.5467-0.075963-0.34589-0.063562-0.27117-0.15482 0.12513-0.25078 0.044534-0.28431-0.0903-0.65544-0.15631-0.44507-0.21823-0.44841-0.49716-0.75155-0.38654-0.45174-0.66856-0.61914-0.91656-0.63122-0.60222-0.32558-0.90286-0.39864-0.989-0.34944-2.7041-0.80443-0.74567-0.26432-1.04-0.49878-0.53555-0.35998-0.88348-0.8266-0.84894-1.1036-0.77519-1.2975-0.69948-1.4189-0.6393-1.5021-0.84657-2.26-0.82848-2.5397-0.49687-1.8763-0.35237-1.8551-0.41211-4.0005-0.48583-2.7913-2.53-11.441-0.49763-1.8437-0.33261-1.0374-0.43698-1.1913-0.59271-1.3924-0.45068-0.93103-2.512-4.4998-3.0269-5.9194-1.8388-3.4206-2.8223-4.8647-1.4494-2.3442-1.0954-1.6537-2.0261-2.774-6.6971-8.6636-4.0606-5.6209-1.1725-1.5541-1.1935-1.4558-1.0535-1.1418-1.3798-1.2519-1.4914-0.98555-1.3508-0.56845-1.4176-0.36073-0.79918-0.12287-1.6149-0.065505-1.2334 0.10269-1.214 0.22057-1.0201 0.27423-1.0292 0.35715-1.0419 0.44472-2.0132 1.0658-2.2924 1.4176-5.5969 3.6969-2.0265 1.2674-2.8749 1.6233-1.2734 0.64119-2.3672 1.0526-1.8574 0.69587-2.2892 0.70657-2.5483 0.61058-1.0806 0.20394-1.9483 0.28033-1.9973 0.1973-4.6476 0.2395-2.0995 0.17186-1.7311 0.23791-1.7124 0.36875-1.4424 0.44362-1.4098 0.54799-2.344 1.1373-1.3658 0.78502-2.2714 1.494-1.5019 1.1399-0.55269 0.54056 0.014525-0.19943-0.10666-0.42663-0.60006-1.4608-1.568-2.9849-0.65896-1.3435-0.58909-1.5655-0.27372-1.4216-0.021845-0.64727 0.050862-0.74165 0.14974-0.86601 0.20909-0.78383 0.59525-1.5887 1.5585-3.3713 0.75616-1.7398 0.49189-1.315 0.46447-1.525 0.39562-1.6302 0.20248-1.0663 0.15794-1.155 0.083315-1.2824-0.056939-1.5552-0.15436-1.186-0.48957-2.2815-0.8644-2.9263-0.915-2.6363-0.57891-1.4125-0.66096-1.3055-0.93762-1.3692-1.121-1.1114-1.1387-0.73219-1.2564-0.579-2.9745-1.1176-1.7075-0.55446-1.5858-0.41557-6.2068-1.4908-2.0941-0.34423-4.0064-0.30715-1.355-0.15303-0.77491-0.16376-0.69594-0.24344-0.61036-0.33893-0.50677-0.40384-0.40235-0.44543-0.40377-0.63988-0.23874-0.53274-0.18382-0.57646-0.40975-2.2174-0.14383-1.0608-0.099736-1.2835-0.082868-4.6657-0.066073-1.4796-0.24212-2.7539-0.016788-0.94697 0.08303-1.033 0.17774-1.0142 1.251-4.5746 0.17939-1.1255 0.056982-1.1493-0.15736-1.6235-0.2977-1.1107-1.7785-4.8812-0.29288-0.94916-0.11514-0.73333-0.004356-0.37928 0.099966-0.70723 0.25569-0.71192 0.22262-0.41427 0.43247-0.62705 0.64938-0.75151 0.80286-0.79723 2.1157-1.9776 1.5832-1.7369 1.4915-1.8869 1.4294-2.1788 1.981-3.4187 1.2649-2.5686 0.6108-1.5058 0.42816-1.3555 0.24531-1.1648 0.096931-0.99852-0.13052-1.8857-0.46282-1.8882-0.4691-1.3188-0.96518-2.2252-1.0583-2.0199-0.82971-1.4234-4.9409-7.9051-1.9668-3.2852-1.7556-3.2374-0.87826-1.8253-0.76809-1.8159-0.63943-1.8428-0.44484-1.8118-0.17794-1.2493-0.089661-1.3839 0.061998-1.3811 0.2345-1.3187 0.37504-1.3456 0.71308-1.9885 0.74549-1.685 0.68962-1.328 1.2252-2.0152 1.1388-1.656 1.2096-1.6327 3.5661-4.4358 0.24627-0.39172 0.54746-0.48658 1.0615-0.7277 0.58993-0.32301 1.8225-0.78293 0.60841-0.3515 0.5846-0.41808 1.0706-0.96054 1.3842-1.5304 0.49057-0.4713 0.90491-0.68495 1.0331-0.55829 0.517-0.15069 0.51502-0.013496 0.57016 0.18171 0.56494 0.3526 0.55877 0.47795 1.0998 1.1894 1.5478 1.8313 1.0203 1.0767 0.49163 0.43429 0.49664 0.36377 0.49996 0.27313 0.50165 0.15782 0.60218 0.017858 0.60328-0.1132 0.60518-0.17338 2.1029-0.69046 0.48474-0.040052 0.47486 0.10196 0.43589 0.23541 0.37388 0.34869 0.28464 0.44697 0.23291 0.80988 0.057539 0.44668 0.041589 2.8668 0.13058 0.97533 0.42446 1.8774" stroke="#bdc660"/>
    </defs>
    <g clip-path="url(#pa4d875ee28)">
     <use y="280.512" fill="#bdc660" stroke="#bdc660" xlink:href="#me5bdd94990"/>
    </g>
   </g>
  </g>
 </g>
 <defs>
  <clipPath id="pa4d875ee28">
   <rect x="7.2" y="7.2" width="229.02" height="266.11"/>
  </clipPath>
 </defs>
</svg>
