<?xml version="1.0" encoding="UTF-8"?>
<!DOCTYPE svg  PUBLIC '-//W3C//DTD SVG 1.1//EN'  'http://www.w3.org/Graphics/SVG/1.1/DTD/svg11.dtd'>
<svg width="198.33pt" height="280.51pt" version="1.1" viewBox="0 0 198.33 280.51" xmlns="http://www.w3.org/2000/svg" xmlns:xlink="http://www.w3.org/1999/xlink">
 <metadata>
  <rdf:RDF xmlns:cc="http://creativecommons.org/ns#" xmlns:dc="http://purl.org/dc/elements/1.1/" xmlns:rdf="http://www.w3.org/1999/02/22-rdf-syntax-ns#">
   <cc:Work>
    <dc:type rdf:resource="http://purl.org/dc/dcmitype/StillImage"/>
    <dc:date>2024-07-04T12:09:19.028530</dc:date>
    <dc:format>image/svg+xml</dc:format>
    <dc:creator>
     <cc:Agent>
      <dc:title>Matplotlib v3.7.1, https://matplotlib.org/</dc:title>
     </cc:Agent>
    </dc:creator>
   </cc:Work>
  </rdf:RDF>
 </metadata>
 <defs>
  <style type="text/css">*{stroke-linejoin: round; stroke-linecap: butt}</style>
 </defs>
 <g id="figure_1">
  <g id="patch_1">
   <path d="m-0 280.51h198.33v-280.51h-198.33v280.51z" fill="none"/>
  </g>
  <g id="axes_1">
   <g id="PatchCollection_1">
    <defs>
     <path id="ma630eba578" d="m79.53-252.99 0.093182 0.64405 0.43857 0.9459 0.89608 1.3848 1.1459 1.4889 2.3247 2.6167 2.5908 2.5626 13.072 12.111 7.6576 6.8858 3.4767 3.432 2.2026 2.4757 2.084 2.5796 3.6602 4.9909 4.0912 5.9685 3.4631 5.2423 5.4512 8.7321 3.2721 5.6127 1.4823 3.0665 0.76827 1.8601 3.6453 9.8449 1.4894 3.7239 1.4699 3.2978 2.3501 4.5861 2.2831 3.5769 2.059 2.3694 1.1516 1.1005 2.1918 1.8432 2.6443 1.9886 10.573 7.4976 1.5829 1.2691 1.4766 1.8134 0.63279 1.5842 0.47824 2.9288 0.095946 2.9156-0.1416 7.3799 0.068532 2.6002 0.51589 4.2825 0.98566 4.3776 1.3928 4.3746 3.444 8.7383 1.7592 4.7332 1.1623 3.7262 0.87324 3.6018 0.62509 3.8058 0.26387 3.6909-0.14172 2.947-0.38224 2.1046-1.2497 3.291-1.021 1.627-1.2335 1.4187-1.8834 1.4978-2.4062 1.2749-1.3484 0.51387-1.8561 0.5585-1.9598 0.46714-2.0097 0.32741-2.9167 0.17128-7.079-0.16043-3.9601 0.19833-1.8098 0.3345-1.8752 0.52688-3.0646 1.3063-2.3488 1.2689-6.3475 3.7276-2.9457 2.0806-3.6714 3.3037-3.57 3.9309-3.4688 4.3916-3.3443 4.6819-3.1646 4.7744-2.8846 4.6093-4.8348 8.2666-0.31926-0.70077-1.2928-1.5797-1.9442-2.1345-4.6457-4.6585-2.6261-2.454-3.4306-3.0437-3.5118-2.9527-9.1795-7.2975-2.7167-2.2626-2.1963-2.011-1.9153-2.0541-1.777-2.5429-1.0498-2.4008-0.65546-2.5413-0.33946-2.4705-0.13845-2.4983 0.06579-6.0068-0.06239-2.7921-0.75183-6.09-0.09319-2.9745 0.30056-3.0445 0.75984-2.9865 1.236-2.8212 2.9209-5.3861 1.0998-2.6988 0.27544-1.0934 0.22514-1.9485-0.056555-1.881-0.30004-1.806-0.68056-2.029-0.99968-1.7037-0.89461-0.93416-1.0493-0.64285-1.5993-0.34918-1.8303 0.074186-6.5869 1.1201-2.4508 0.2438-9.8112 0.18742-3.1064-0.12623-2.9206-0.30337-3.2699-0.47208-6.8523-1.3523-7.9478-0.88024-3.7388-0.63309-1.4181-0.415-1.7337-0.92874-0.47267-0.93767-0.10117-0.79028-0.43338-1.5703-1.6851-5.4015-0.93043-3.2946-0.6305-2.6971-0.51034-2.73-0.43469-3.2198-0.19228-2.3888-0.03461-2.721 0.13802-2.6668 0.62436-5.1128 1.1459-5.9716 0.5391-2.3026 1.5372-4.8709 0.56284-2.2654 4.1589-21.234 3.5933-14.349 1.8034-7.7234 1.8583-8.6292 1.6471-8.9443 0.44906-2.9949 0.59713-5.3957 0.55832-9.7552 0.008985-1.866-0.1617-1.5499-0.38466-1.7265-0.47164-1.2883-0.42916-0.59062 14.565-4.3584 5.6773-1.8599 6.1093-2.3687 2.388-1.1259 3.8246-2.0419 1.6003-0.67582 0.78819-0.1899 0.77959-0.034483 0.78802 0.16418 0.78261 0.33648 0.78166 0.46966 2.3695 1.9323 4.6694 4.4817 1.0705 0.84454" stroke="#bdc660"/>
    </defs>
    <g clip-path="url(#pf789441026)">
     <use y="280.512" fill="#bdc660" stroke="#bdc660" xlink:href="#ma630eba578"/>
    </g>
   </g>
  </g>
 </g>
 <defs>
  <clipPath id="pf789441026">
   <rect x="7.2" y="7.2" width="183.93" height="266.11"/>
  </clipPath>
 </defs>
</svg>
