<?xml version="1.0" encoding="UTF-8"?>
<!DOCTYPE svg  PUBLIC '-//W3C//DTD SVG 1.1//EN'  'http://www.w3.org/Graphics/SVG/1.1/DTD/svg11.dtd'>
<svg width="269.92pt" height="280.51pt" version="1.1" viewBox="0 0 269.92 280.51" xmlns="http://www.w3.org/2000/svg" xmlns:xlink="http://www.w3.org/1999/xlink">
 <metadata>
  <rdf:RDF xmlns:cc="http://creativecommons.org/ns#" xmlns:dc="http://purl.org/dc/elements/1.1/" xmlns:rdf="http://www.w3.org/1999/02/22-rdf-syntax-ns#">
   <cc:Work>
    <dc:type rdf:resource="http://purl.org/dc/dcmitype/StillImage"/>
    <dc:date>2024-07-04T12:09:17.227474</dc:date>
    <dc:format>image/svg+xml</dc:format>
    <dc:creator>
     <cc:Agent>
      <dc:title>Matplotlib v3.7.1, https://matplotlib.org/</dc:title>
     </cc:Agent>
    </dc:creator>
   </cc:Work>
  </rdf:RDF>
 </metadata>
 <defs>
  <style type="text/css">*{stroke-linejoin: round; stroke-linecap: butt}</style>
 </defs>
 <g id="figure_1">
  <g id="patch_1">
   <path d="m0 280.51h269.92v-280.51h-269.92v280.51z" fill="none"/>
  </g>
  <g id="axes_1">
   <g id="PatchCollection_1">
    <defs>
     <path id="m73bbe3095a" d="m249.03-169.03-0.025575 0.1099-0.11578 0.12233-0.9917 0.74157-1.6973 1.0694-2.1198 1.2474-4.8277 2.6439-6.0082 3.0712-2.2788 1.2993-1.1528 0.74162-1.5538 1.1167-1.3583 1.134-1.4093 1.3642-0.67224 0.74938-0.48895 0.62031-0.91174 1.4545-0.98242 2.0864-3.6836 9.2869-0.58162 1.7465-0.40635 1.7602-0.67463 4.2544-0.71457 5.2562-0.44798 4.1302-0.32538 4.295-0.06439 1.9292 0.012306 1.3683 0.1123 1.7346 0.19559 1.5208 0.22617 1.2582 0.55345 2.3112 0.47913 1.6149 0.6705 1.9179 0.78492 1.8735 0.64241 1.3206 0.70779 1.3137 1.2243 2.027 0.98241 1.4486 1.4844 1.9202 1.2811 1.4304 0.99148 0.9862 1.5671 1.3978 3.3177 2.7883 4.859 4.4474 1.4116 1.1424 1.2689 0.87807 1.3708 0.87208 0.5709 0.46078 0.1245 0.13913 0.26366 0.46947 0.067689 0.57732-0.23103 0.83236-0.29363 0.50447-0.35165 0.44347-0.44972 0.45012-0.97661 0.76296-4.2797 2.6573-5.1666 3.0457-1.8918 1.1625-2.2776 1.4979-2.3733 1.7011-1.6668 1.2906-2.2909 1.9169-3.3088 2.9451-4.076 3.7653-2.6591 2.6689-0.92533 1.0364-0.71357 0.8762-0.74271 1.039-0.60824 1.0598-0.48292 1.1476-0.30428 0.97368-0.82326 3.3885-0.2006 0.59946-0.17201 0.38716-0.12562 0.15881-1.7917-0.6249-0.95957-0.27368-1.1793-0.26967-1.1274-0.17947-1.7407-0.14536-1.9782-0.019744-1.7129 0.074401-2.0467 0.17724-2.0844 0.25881-5.0637 0.82699-4.1671 0.83822-1.467 0.35545-1.9442 0.5544-1.8853 0.65918-1.0408 0.4208-2.3768 1.1117-1.3256 0.7017-6.8817 4.0333-2.1273 1.1413-2.0805 0.92409-0.94921 0.3285-0.94614 0.24763-1.0242 0.15595-0.9547 0.02068-0.95281-0.1084-1.2908-0.33609-1.5327-0.61475-1.6348-0.82899-4.1118-2.3806-1.2042-0.64305-1.4577-0.62814-0.78043-0.23149-1.1317-0.15294-0.76253 0.0244-0.98561 0.14584-0.7415 0.17885-0.87168 0.29106-1.2845 0.56512-1.3166 0.70211-3.2151 1.9864-5.4602 3.583-2.0925 1.23-1.9018 1.0257-2.1805 1.0939-2.0986 0.98419-4.4636 1.9476-0.40196 0.17668-0.71368 0.17396-1.6521 0.29689-7.2209 0.92287-3.0473 0.49237-3.0854 0.60561-5.0543 1.0887-3.3473 0.62687-1.8887 0.25389-2.6164 0.18842-1.2391-0.002918-0.89645-0.051993-2.2277-0.3238-3.5123-0.79127-2.3072-0.64159-1.7904-0.57415-1.6512-0.65088-1.7084-0.86818-1.4564-0.9427-1.0869-1.0698-0.24791-0.38213-0.23038-0.46583-0.20676-0.59318-0.13734-0.66742-0.045214-0.58972 0.069578-0.96953 0.12662-0.60582 0.35062-1.1712 0.70012-1.8666 0.096726-0.59912-0.026723-0.54121-0.074411-0.26133-0.39053-0.55303-0.39922-0.26906-0.75666-0.29245-1.4292-0.26365-3.3831-0.35451-1.6824-0.36367-1.0817-0.41921-0.86118-0.4798-0.43738-0.32001-0.82413-0.90168-0.24941-0.48442-0.15483-0.55397-0.055764-0.48244 0.043984-1.2906 0.1832-1.6167 0.10038-1.685-0.03518-0.88207-0.21692-1.6197-0.3552-1.5294-0.47145-1.5179-0.90452-2.5498-0.21601-0.72184-0.40098-1.8675-0.27338-0.76044-0.37669-0.53088-0.5195-0.39442-0.45969-0.17291-0.42386-0.059687-0.52038 0.00862-0.60307 0.079303-1.1798 0.27866-0.80501 0.25372-1.9385 0.79022-1.4134 0.72004-2.2576 1.3554-2.1443 1.5076-2.6934 2.1288-0.961 0.58966-1.0112 0.47135-1.3039 0.38364-0.48613 0.074323-1.4522-0.0286-1.4119-0.43694-1.1241-0.62214-1.0819-0.81811-0.68257-0.62765-1.4766-1.6144-1.3965-1.7903-1.3182-1.8582-2.9331-4.3825-0.50481-0.85629-0.30807-0.64572-0.28902-0.80234-0.20991-0.90951-0.10354-1.1935 0.025965-0.7611 0.11238-0.97448 0.21212-1.157 0.24736-1.023 0.45818-1.4526 0.53002-1.2827 0.41287-0.82306 0.59145-1.0167 0.50018-0.76057 0.84002-1.1131 0.52868-0.58967 0.27379-0.24879 0.13477-0.054541 0.40042-0.39728 0.75528-0.37612 1.4247-0.52365 1.8714-0.51833 5.4541-1.0963 4.8057-1.2595 1.5252-0.37859 3.533-0.7643 1.2843-0.31475 1.2323-0.3597 2.334-0.83754 2.2803-0.96894 6.7874-3.1635 2.0107-0.84219 1.1791-0.43377 2.0812-0.65292 2.0591-0.53403 2.6533-0.57838 7.9586-1.4641 6.0812-1.2232 2.1226-0.49726 1.0443-0.29351 1.3732-0.45519 1.5405-0.60295 1.3578-0.59296 1.079-0.51584 1.9101-1.048 1.6634-1.1061 3.8124-2.9946 1.2217-0.81579 1.2376-0.67061 1.1255-0.48691 1.6093-0.50924 1.3791-0.25447 1.595-0.088914 2.3663-0.003151 1.0115-0.079976 1.2218-0.18989 1.4091-0.31625 2.1483-0.6184 1.5545-0.55922 2.0652-0.90077 1.1929-0.60334 1.164-0.65235 1.8443-1.189 1.1308-0.85797 1.1537-1.0468 0.56415-0.61379 0.53541-0.67604 0.66234-1.023 0.65112-1.4331 0.21058-0.72245 0.17342-0.93338 0.08838-1.1833-0.043423-1.3416-0.18034-1.4248-0.32448-1.5593-0.43485-1.5827-1.0459-3.0386-3.0081-7.4658-2.5483-6.6918-2.156-5.4608-0.81051-2.1886-0.68376-2.3113-0.27262-1.3481-0.15871-1.3424-0.029452-1.4348 0.11913-1.4098 0.4228-1.9311 0.77082-1.9436 1.0246-1.7262 1.2685-1.5713 0.84196-0.84868 0.86413-0.77269 2.227-1.7932 0.89533-0.80377 0.5418-0.67469 0.33377-0.98381-0.08808-0.69874-0.25694-0.46534-0.41671-0.37958-1.0905-0.41476-0.85016-0.11959-0.95268-0.038703-4.3087 0.20895-1.9472-0.016956-1.2688-0.13055-1.1932-0.26326-1.1102-0.41604-0.33519-0.17033-0.83025-0.55314-0.69818-0.6833-0.42271-0.596-0.50674-1.1932-0.2149-1.349 0.024755-1.1147 0.15214-1.1887 0.33713-1.6911 0.38041-1.5037 0.46243-1.56 1.9671-5.9679 0.74133-2.508 0.78292-3.0183 0.32421-1.5562 0.20666-1.7468-0.004865-0.40171-0.067534-0.37181-0.20549-0.14797 3.2139-0.92402 0.67164-0.13044 0.43937-0.022633 0.4548 0.061731 0.45084 0.11867 2.028 0.70767 0.92222 0.26802 2.5155 0.52238 0.37875 0.034989 0.25529-0.046776 0.28471-0.16826 2.079-0.49174 9.5206-1.7425 1.646-0.36603 2.5695-0.71366 1.5282-0.52959 1.8446-0.76883 1.4065-0.70652 1.5199-0.89858 1.425-0.98286 1.067-0.83876 1.7535-1.6438 1.3614-1.5738 2.5547-3.2423 1.1296-1.2911 1.7197-1.7988 4.783-4.7866 1.0826-1.1345 1.0168-1.1556 0.83029-1.0295 1.6161-2.2334 1.0265-1.7187 0.65136-1.5743 0.24698-1.1167 0.072898-0.64395 0.1159-3.9148 0.16726-1.4474 0.134-0.65101 0.5779-1.8708 0.51203-1.1762 0.61357-1.1276 0.89364-1.2981 1.0334-1.1519 0.50354-0.45203 0.84162-0.61363 0.85737-0.48957 0.68368-0.31837 0.77854-0.3046 1.4955-0.47753 1.5744-0.40254 1.3631-0.281 2.5652-0.3111 2.4707-0.13772 12.102-0.32114 1.2914 0.003151 3.8052 0.12482 2.7054-0.048197 1.5377-0.14401 1.0997-0.16998 2.2044-0.5543 1.8431-0.7447 1.7673-1.0744 1.3342-1.1867 0.98106-1.2532 0.70221-1.321 0.52742-1.6287 0.21524-1.2654 0.079542-1.1963-0.023724-1.2139-0.07211-0.87727-0.074022-0.36551 0.49513 0.060002 0.36364 0.18855 0.96771 0.65448 0.59271 0.46943 0.85912 0.74868 0.92441 0.88528 1.7614 1.9058 0.86794 1.0474 1.5853 2.1096 1.518 2.2649 3.2404 5.209 2.1079 2.9384 1.7575 2.1098 1.4268 1.527 5.2689 5.0179 1.4548 1.4561 1.0099 1.1108 0.76796 0.93872 1.2714 1.8158 1.5584 2.7316 0.84174 1.7411 0.71181 1.8116 0.62784 2.2288 0.44221 2.3016 0.30992 2.3397 0.16458 1.8268 0.090912 1.9102 0.006801 1.7041-0.10381 2.3972-0.11378 1.3947-0.45368 4.0439-0.54334 3.6038-0.30628 1.436-0.37182 1.1781-0.34339 0.71657-0.63442 0.85447-0.78077 0.69213-0.57294 0.37666-1.0625 0.55488-2.326 0.92061-1.3159 0.57648-1.2335 0.714-1.1885 0.94712-1.0468 0.99901-0.57204 0.64981-0.61468 0.97767-0.27883 0.76342-0.11551 0.84014 0.043972 0.70402 0.27097 1.1239 0.30444 0.79098 0.86168 1.6465 1.0539 1.5961 1.8133 2.3603 2.6939 3.1552 1.7296 1.8776 3.1291 3.2369" stroke="#bdc660"/>
    </defs>
    <g clip-path="url(#p0b52fcbace)">
     <use y="280.512" fill="#bdc660" stroke="#bdc660" xlink:href="#m73bbe3095a"/>
    </g>
   </g>
  </g>
 </g>
 <defs>
  <clipPath id="p0b52fcbace">
   <rect x="7.2" y="7.2" width="255.52" height="266.11"/>
  </clipPath>
 </defs>
</svg>
