<?xml version="1.0" encoding="UTF-8"?>
<!DOCTYPE svg  PUBLIC '-//W3C//DTD SVG 1.1//EN'  'http://www.w3.org/Graphics/SVG/1.1/DTD/svg11.dtd'>
<svg width="371.52pt" height="225.74pt" version="1.1" viewBox="0 0 371.52 225.74" xmlns="http://www.w3.org/2000/svg" xmlns:xlink="http://www.w3.org/1999/xlink">
 <metadata>
  <rdf:RDF xmlns:cc="http://creativecommons.org/ns#" xmlns:dc="http://purl.org/dc/elements/1.1/" xmlns:rdf="http://www.w3.org/1999/02/22-rdf-syntax-ns#">
   <cc:Work>
    <dc:type rdf:resource="http://purl.org/dc/dcmitype/StillImage"/>
    <dc:date>2024-07-04T12:09:10.580091</dc:date>
    <dc:format>image/svg+xml</dc:format>
    <dc:creator>
     <cc:Agent>
      <dc:title>Matplotlib v3.7.1, https://matplotlib.org/</dc:title>
     </cc:Agent>
    </dc:creator>
   </cc:Work>
  </rdf:RDF>
 </metadata>
 <defs>
  <style type="text/css">*{stroke-linejoin: round; stroke-linecap: butt}</style>
 </defs>
 <g id="figure_1">
  <g id="patch_1">
   <path d="m0 225.74h371.52v-225.74h-371.52v225.74z" fill="none"/>
  </g>
  <g id="axes_1">
   <g id="PatchCollection_1">
    <defs>
     <path id="m7ed1e62972" d="m348.09-106.94-0.17284 0.30652-0.41093 0.40924-0.88459 0.72798-1.3404 0.9499-1.8354 1.1298-2.2785 1.3029-1.3364 0.88994-0.81272 0.69909-0.67358 0.79247-0.76443 1.5226-0.43141 1.4557-1.1215 5.0158-1.3545 5.4184-0.44932 2.227-0.53356 3.2813-0.23745 1.137-0.4378 1.1933-0.5344 0.82492-0.40037 0.41991-1.1498 0.84202-0.90958 0.49599-2.0833 0.92197-1.2094 0.46072-1.2433 0.39252-3.4463 0.96605-1.6984 0.54551-1.936 0.77635-2.848 1.3145-1.9293 1.1096-3.7154 2.7651-1.8422 1.1407-5.9589 3.1514-2.5591 1.4765-1.9039 0.9392-3.5069 1.421-3.2688 1.1354-2.9393 0.94281-2.5683 0.6703-4.8884 1.0571-2.0343 0.55708-1.9457 0.70321-1.7978 0.90293-1.3092 0.89871-1.2294 1.0854-0.82284 0.90692-0.49791 0.65705-0.77916 1.3399-0.31495 0.92031 0.063528 0.56862-0.81024-0.15588-7.251-0.6887-2.5633-0.31848-3.1545-0.55312-1.9544-0.49094-0.98615-0.31225-1.5894-0.62041-1.5131-0.72089-1.5702-0.86495-6.0745-3.7903-1.7888-0.92075-3.9906-1.468-1.0649-0.47688-0.75472-0.43145-1.0867-0.79156-0.77776-0.71506-0.71709-0.78806-0.89318-1.1667-1.213-1.9207-2.4838-4.4788-1.5521-2.6454-2.5591-3.8845-2.7415-3.8597-1.0154-1.2734-1.005-1.1488-2.271-2.3994-2.8415-2.7686-3.4255-3.1566-4.2874-3.7979-2.2594-1.898-1.8022-1.4135-2.1538-1.5294-2.5126-1.528-1.5448-0.78947-1.0255-0.45372-1.2854-0.48225-0.94574-0.28948-1.517-0.34042-1.8317-0.18274-0.87879 0.01717-1.3412 0.19375-1.6959 0.61367-1.3997 0.82235-1.6563 1.2926-1.6018 1.5056-2.4822 2.671-1.717 2.0205-1.3125 1.6483-1.2402 1.6951-0.95569 1.4816-0.89673 1.7141-0.62796 1.6988-0.54707 2.1904-0.42543 2.6446-0.88019 7.0826-0.4623 3.1529-0.55092 2.4785-0.76526 2.3626-0.9304 2.3904-1.3243 3.1255-3.7043 8.1914-2.7511 7.0111-1.2557 2.8548-0.48799 0.95898-0.86597 1.484-1.4968 1.99-1.6752 1.5991-1.8114 1.1134-1.9165 0.49486-0.93761-0.024493-1.316-0.29247-1.8774-0.81013-1.1523-0.65446-1.1763-0.74736-7.0639-4.8463-3.8353-2.3631-2.0425-1.1195-1.5218-0.76852-6.7401-3.2362-3.0355-1.6438-6.5397-3.7822-3.5109-1.8041-2.3349-1.0373-1.7296-0.69483-2.6498-0.9429-2.4537-0.714-2.5837-0.52448-1.3036-0.13976-1.2513-0.022631-2.0369 0.31309-1.2142 0.49976-1.1253 0.70726-0.75461 0.61221-0.67472 0.67072-0.6413 0.76111-0.97519 1.4317-0.76128 1.4243-0.64363 1.4969-0.50015 1.4081-0.58048 2.0842-0.50395 2.6223-0.44357 3.6448-0.72721 7.5788-0.364 2.6049-0.42719 2.3467-0.50775 2.3118-0.80412 3.1353-0.81532 2.7572-0.92068 2.6427-0.45467 1.0266-0.352 0.46936-0.10534-0.013733-0.90052-0.19703-1.0971-0.50123-1.2821-0.73718-1.3391-0.92895-1.8069-1.6018-1.4541-1.8797-0.27658-0.49982-0.43452-1.0297-0.44194-2.0848-0.095958-2.2088 0.044554-4.6274-0.25495-2.3651-0.70435-2.5186-1.091-2.5185-1.379-2.5088-1.5904-2.4924-1.7446-2.4708-1.8582-2.4445-1.944-2.4131-2.0125-2.3754-2.0715-2.3297-2.1273-2.2733-2.1851-2.2034-6.3201-5.9284-2.0165-1.9885-1.8907-2.0547-1.7055-2.1616-1.5442-2.4223-1.327-2.5378-1.1604-2.6059-1.0306-2.6312-0.9249-2.6161-0.46326-1.4281-0.66648-2.5214-0.49666-2.571-0.33561-2.5832-0.17104-2.5572 0.009445-2.4896 0.20471-2.24 0.446-2.0548 1.336-4.295 0.47472-1.9062 0.21009-1.2763 0.097468-1.4582-0.10048-1.4396-0.22518-1.0478-0.24902-0.77263-0.43306-1.0243-0.47052-0.89975-0.50815-0.84164-1.2817-1.8434-1.3904-1.8603-1.5554-2.2176-1.3281-2.3729-0.73979-1.8792-0.51299-1.922-0.33896-2.3336-0.056436-2.0956 0.17423-1.605 0.39012-0.77793 0.013496-0.88381 0.44115-1.5961 0.81394-1.8687 1.174-1.8078 1.5468-1.4907 1.8784-0.98522 2.1696-0.56057 1.6327-0.192 1.7064-0.069323 2.6534 0.050244 5.0187 0.30027 4.9411 0.49542 3.0177 0.4566 3.2558 0.7072 1.6922 0.49082 1.7528 0.6335 2.0396 0.93045 3.8961 1.9379 1.1413 0.4707 1.3363 0.43985 2.2573 0.54966 5.6982 1.0285 3.089 0.45394 1.4808 0.059762 1.2568-0.1919 0.94414-0.48692 0.65142-0.73261 0.34699-0.89073 0.38064-2.2515 0.36207-1.5176 0.52504-1.6521 0.54356-1.437 0.62777-1.4555 1.5095-3.2242 2.3017-5.2119 0.66034-1.3392 1.4981-2.7119 0.82609-1.3582 3.7055-5.7473 1.1141-1.9926 0.9356-2.0698 0.67875-2.05 0.34602-1.337 1.367-6.0795 0.66231-2.4657 0.6436-2.1548 0.53924-1.5866 0.33171-0.63721 1.3998 1.216 1.8628 1.4782 2.2333 1.5724 1.1983 0.73556 1.7977 0.90219 1.0268 0.35472 0.94116 0.16047 0.62742-0.030697 0.55145-0.17585 0.62585-0.49323 0.50173-0.71193 0.42496-0.84848 0.78298-1.8292 0.5618-1.0688 0.49244-0.64147 0.33717-0.29379 0.77152-0.36463 0.868-0.10508 0.89948 0.14232 0.86956 0.39849 0.79926 0.66931 0.73127 0.87864 0.68456 1.0247 2.6295 4.6922 0.72183 1.1521 0.79365 1.0769 0.8982 0.95974 0.90085 0.7178 0.99076 0.60688 1.0624 0.50904 1.12 0.4175 1.167 0.32552 1.2063 0.22611 1.2403 0.11187 1.3861-0.022174 1.4178-0.14767 1.4461-0.24415 1.4709-0.31802 2.9941-0.78931 2.9842-0.90098 4.6811-1.5139 0.30778-0.060103-0.21587 0.65384 0.50372 0.62604 1.284 0.55108 1.8747 0.37546 2.2904 0.23468 2.0252 0.11531 6.4216 0.19765 4.8666 0.24891 3.3123 0.3414 2.6119 0.4378 1.7278 0.4055 1.3591 0.40248 1.6389 0.59718 1.0368 0.44482 1.6959 0.85368 2.4921 1.5644 2.5446 1.9053 6.1663 5.1223 1.8669 1.4168 1.8579 1.1879 1.9862 0.90325 1.7647 0.41958 1.7851 0.1629 1.7899 0.020528 2.3992-0.10435 1.2803-0.1872 1.5735-0.44519 2.0826-1.0664 2.0398-1.4762 6.3458-5.4836 1.4354-1.132 2.6959-1.9633 5.4269-3.7255 3.0103-2.2113 3.1693-2.494 6.5156-5.2677 3.707-2.7601 7.4241-5.3074 4.9735-3.6918 3.038-2.3864 5.154-4.256 1.5259-1.1713 1.0342-0.71389 1.6264-0.91496 1.4996-0.55076 1.347-0.22952 1.0059-0.033838 0.90644 0.052913 1.1717 0.16986 1.3092 0.30717 1.3126 0.41524 2.0581 0.83471 2.0195 1.0091 1.0877 0.60923 2.5391 1.5559 3.678 2.4546 3.4435 2.4196 8.4057 6.1341 4.2401 3.28 7.6132 6.1989 2.6931 2.1141 1.6009 1.1739 6.1171 4.2559 3.2444 2.5492 1.4032 1.2166 1.2507 1.1797 1.4193 1.4918 1.6202 1.971 1.0664 1.5261 0.89112 1.4849 0.69319 1.2886 0.62976 1.3079 0.74135 1.8065 0.65987 2.0719 0.84459 3.9553 0.69736 3.9646 0.77406 5.2376 0.37347 2.9557 0.53464 5.4694 0.16725 2.7316 0.069018 2.1395 0.006193 2.1246-0.17598 6.061-0.00748 1.8755 0.095318 1.8409 0.17135 1.3714 0.43136 2.1488 0.7127 2.432 0.63464 1.6806 1.6862 3.8703 0.4501 1.2575" stroke="#bdc660"/>
    </defs>
    <g clip-path="url(#p9835c03583)">
     <use y="225.743225" fill="#bdc660" stroke="#bdc660" xlink:href="#m7ed1e62972"/>
    </g>
   </g>
  </g>
 </g>
 <defs>
  <clipPath id="p9835c03583">
   <rect x="7.2" y="7.2" width="357.12" height="211.34"/>
  </clipPath>
 </defs>
</svg>
