<?xml version="1.0" encoding="UTF-8"?>
<!DOCTYPE svg  PUBLIC '-//W3C//DTD SVG 1.1//EN'  'http://www.w3.org/Graphics/SVG/1.1/DTD/svg11.dtd'>
<svg width="356.79pt" height="280.51pt" version="1.1" viewBox="0 0 356.79 280.51" xmlns="http://www.w3.org/2000/svg" xmlns:xlink="http://www.w3.org/1999/xlink">
 <metadata>
  <rdf:RDF xmlns:cc="http://creativecommons.org/ns#" xmlns:dc="http://purl.org/dc/elements/1.1/" xmlns:rdf="http://www.w3.org/1999/02/22-rdf-syntax-ns#">
   <cc:Work>
    <dc:type rdf:resource="http://purl.org/dc/dcmitype/StillImage"/>
    <dc:date>2024-07-04T12:09:11.433374</dc:date>
    <dc:format>image/svg+xml</dc:format>
    <dc:creator>
     <cc:Agent>
      <dc:title>Matplotlib v3.7.1, https://matplotlib.org/</dc:title>
     </cc:Agent>
    </dc:creator>
   </cc:Work>
  </rdf:RDF>
 </metadata>
 <defs>
  <style type="text/css">*{stroke-linejoin: round; stroke-linecap: butt}</style>
 </defs>
 <g id="figure_1">
  <g id="patch_1">
   <path d="m0 280.51h356.79v-280.51h-356.79v280.51z" fill="none"/>
  </g>
  <g id="axes_1">
   <g id="PatchCollection_1">
    <defs>
     <path id="m2ddc76f0e6" d="m304.86-242.22 0.239 2.4196 0.14714 2.5043 0.042144 3.6043-0.22233 3.8179-0.59708 3.7546-1.09 3.4836-1.3222 2.5233-1.6772 2.1949-1.9787 1.8324-2.2412 1.4266-1.6491 0.71666-1.7384 0.54474-1.8993 0.42561-1.9632 0.31488-4.7122 0.46881-4.2366 0.22152-4.2338 0.061365-5.0114-0.17787-2.8607-0.27322-2.4648-0.38648-1.1833-0.2464-3.4749-0.87963-3.4708-1.0469-3.4472-1.1513-12.936-4.5997-3.729-1.1256-1.9258-0.40086-0.74715-0.065566-1.1893 0.10499-0.45448 0.13918-0.64494 0.37208-0.34947 0.35329-0.40543 0.72064-0.18038 0.7529-0.041053 1.1197 0.16825 1.5891 0.35636 1.8707 1.9906 8.05 0.63708 2.8429 0.49265 2.8204 0.25809 2.7382-0.037048 2.1356-0.24115 1.617-0.69233 1.994-1.418 2.0291-1.9521 1.7521-2.3421 1.5518-2.616 1.413-4.1172 1.8869-2.9627 1.1681-3.0145 1.0222-3.0288 0.82843-3.008 0.57128-2.9516 0.23259-1.2642-0.024569-2.4116-0.20566-2.2523-0.33869-2.3272-0.5496-4.4067-1.423-1.3214-0.34972-1.1527-0.17457-1.1767 8.12e-4 -0.84266 0.13078-0.95051 0.26889-1.4643 0.62697-1.2649 0.73145-0.97948 0.69965-0.88167 0.77732-0.87117 1.0267-0.78029 1.5057-0.37288 2.3426 0.25086 2.6511 0.72913 2.8487 1.1062 2.9527 1.4204 2.9734 1.7058 2.9142 1.9938 2.7719 2.3151 2.5369 2.5768 2.1622 2.8402 1.9185 3.0292 1.7364 3.1623 1.602 3.2537 1.5044 3.3148 1.4346 6.7318 2.7371 10.184 3.9458 13.553 5.1393 6.7489 2.4911 7.0529 2.4542 1.9486 0.61421 3.5396 0.97576 3.168 0.69252 3.8798 0.63787 7.3152 0.85883 5.5943 0.76056 5.8497 1.0044 4.2844 0.91802 4.7659 1.295 4.0393 1.3403 3.6934 1.4136 4.0509 1.7481 3.959 1.895 2.1449 1.1099 2.0979 1.1562 2.2898 1.3672 2.1878 1.4565 2.061 1.5778 1.3373 1.1729 1.3302 1.2725 2.8226 2.9501 2.451 2.7643 3.4311 4.1151 1.1297 1.6091 0.39117 0.75804 0.2492 0.77406 0.03566 0.79165-0.24797 0.7135-1.1088 1.0521-1.7674 0.67261-2.2429 0.216-2.4281-0.27352-2.6396-0.65544-2.7852-0.93811-2.8801-1.141-5.895-2.6404-6.4668-3.0486-4.8521-2.1466-1.4224-0.5425-2.3588-0.71553-2.9688-0.43786-2.8329 0.18311-2.8363 0.68602-2.8807 1.0957-2.8782 1.3905-2.7649 1.5353-2.757 1.6839-2.7389 1.8024-4.9593 3.5425-10.431 8.0227-2.5979 1.912-2.5579 1.7542-1.8314 1.138-1.8057 0.98206-1.7791 0.78297-1.726 0.52894-2.3069 0.23502-2.057-0.3609-1.9895-0.79883-1.9251-1.0846-3.421-2.2011-1.565-0.83922-0.81143-0.34683-1.5753-0.48976-1.2771-0.24566-1.921-0.12587-1.9868 0.13836-1.3662 0.23664-2.286 0.61941-2.3543 0.876-2.3681 1.0748-2.3732 1.2357-2.3704 1.3678-2.1255 1.3259-4.2115 2.865-2.7567 2.0231-10.585 8.1194-5.1181 3.6878-2.6188 1.7122-2.1492 1.2852-2.1741 1.1729-2.7997 1.2662-2.7219 0.8602-1.9036 0.32864-3.739 0.40494-1.7026 0.28968-7.6669 1.7076-2.6043 0.4458-2.591 0.12281-2.0431-0.22468-4.0378-0.84324-2.0587-0.35472-1.4773-0.13229-1.5354 0.003726-2.6995 0.28131-1.6541 0.29556-1.6875 0.37155-3.8701 1.0466-3.6911 1.1892-3.072 1.1274-3.8018 1.5762-2.3279 1.0543-2.3295 1.1139-4.6098 2.3507-10.831 5.8932-6.6657 3.518-4.6866 2.3094-2.1147 0.9772-4.1356 1.7748-4.2008 1.617-2.1725 0.76326-3.999 1.2564-2.3099 0.6103-1.751 0.3803-2.5657 0.36944-0.94126 0.04502-0.48478-0.023814-0.20179-0.097766-0.35569-0.93066-0.90001-1.9203-0.77298-1.4622-0.91736-1.5232-0.80785-1.1624-0.90297-1.121-1.1018-1.1529-1.505-1.3123-2.339-1.6939-3.3184-2.0377-6.8892-3.8945-2.7346-1.7871-0.91382-0.68924-0.85877-0.72224-1.0178-0.99718-0.89233-1.0665-0.79616-1.2157-0.62298-1.2826-0.42391-1.2814-0.2461-1.3158-0.041646-1.7311 0.2687-1.7672 0.32175-1.1652 0.40986-1.1494 2.8947-6.315 0.53824-1.4548 0.34749-1.4424 0.066186-0.71133-0.031527-1.3598-0.14071-1.7871 0.008741-0.70147 0.21445-1.0212 0.4259-0.8265 0.90312-1.0735 2.3846-2.1138 0.64507-0.66888 0.46669-0.68826 0.1869-0.69632-0.10678-0.58586-0.425-0.79091-2.1345-2.7673-0.75857-1.1306-0.7067-1.2501-0.62209-1.3786-0.48892-1.4656-0.29098-1.311-0.16367-1.3248-0.014212-1.9427 0.21448-1.7425 0.29482-1.1405 0.28082-0.62959 0.1545-0.17462 0.11249-0.03248-1.7105-3.3848-1.0981-2.7273-0.59748-1.7151-3.5751-10.789-0.72915-2.4046-0.79656-3.4631-0.2243-1.4573-0.13134-1.4318-0.027029-1.3762 0.071294-1.1938 0.13238-0.9375 0.24305-1.043 0.35602-1.0307 0.3366-0.7469 0.79983-1.383 1.5033-1.9956 2.6892-2.9809 3.6398-3.5927 2.4197-2.1597 1.7226-1.3967 1.4581-1.057 1.8084-1.11 2.4704-1.1236 2.5883-0.78173 1.6352-0.32583 8.2754-1.1933 8.0715-1.4562 6.1661-1.0004 2.4284-0.50859 1.6169-0.47447 1.3517-0.50542 1.5125-0.6906 1.9468-1.1009 0.96827-0.65222 1.3376-1.0536 1.1468-1.1015 1.154-1.4096 0.85468-1.3787 0.68114-1.3467 1.4177-3.3604 2.2224-5.7282 2.04-4.7395 1.1102-2.7785 0.5427-1.7149 0.84486-3.2143 0.31987-1.5042 0.24209-1.7624 0.040603-2.3031-0.29901-2.7083-0.60543-2.7715-0.55599-1.9191-0.63925-1.8951-0.89978-2.2864-1.1024-2.1823-0.48429-0.77731-0.95412-1.32-1.031-1.2185-1.3848-1.4115-1.1957-1.0791-1.4816-1.2157-1.6975-1.2656-2.4504-1.6302-2.7433-1.5913-2.2732-1.0949-1.3304-0.50356-1.9596-0.58135-2.1236-0.49367-8.5365-1.7679-1.7822-0.248-1.4949-0.10277-1.7414 0.031701-1.8108 0.22821-1.7896 0.42669-2.6285 0.89636-4.56 1.9107-8.1776 3.6999-1.7025 0.66662-1.496 0.45962-1.8392 0.32368-0.52341 0.031291-1.433-0.076151-1.7171-0.43427-1.4807-0.67654-1.3902-0.89023-1.2342-0.99873-1.4427-1.4148-1.3103-1.5202-1.6956-2.3228-1.5361-2.5101-1.2889-2.5138-0.8296-1.9127-0.60327-1.6073-0.93595-3.0097-0.45315-1.7815-0.4834-2.271-0.65279-4.0822-0.68509-5.611-0.15598-0.53705 3.5197-1.6156 4.4631-1.9194 2.4532-0.9614 4.1908-1.4405 3.065-0.8361 4.6977-0.91914 2.1286-0.29872 1.4609-0.061522 0.92917 0.076314 0.85238 0.20023 0.41838 0.16536 0.43668 0.2395 0.60956 0.48934 0.78434 0.97187 1.4617 2.3241 0.44726 0.54762 0.45407 0.44956 1.2541 0.87695 1.5125 0.70158 1.7004 0.54588 1.8309 0.40034 1.9137 0.25586 1.9558 0.10367 6.3115-0.18707 1.0674 0.06084 1.0718 0.13904 1.9428 0.4809 1.1098 0.43784 1.6461 0.92784 5.3268 3.9471 1.8722 1.0594 2.0417 0.74615 2.1755 0.43972 2.2625 0.15386 2.3067-0.13559 2.3095-0.45339 1.5174-0.4903 1.5162-0.60964 2.0999-0.95803 6.1479-2.9636 3.1737-1.7188 3.2418-1.9696 5.7167-3.8289 0.67597-0.36839 0.59174-0.08072 1.9785 0.45652 9.961 2.9456 3.8518 1.008 3.9138 0.84925 3.9216 0.60264 3.5903 0.2586 2.918-0.036733 2.0071-0.14055 1.9946-0.21497 4.2352-0.63698 12.96-2.4197 11.532-1.7783 3.4568-0.58329 2.9372-0.57213 2.7003-0.59967 4.6537-1.1992 8.1683-2.4289 9.3534-2.6133 5.5283-1.3579 3.3922-0.6667 2.2548-0.33934 3.0304-0.35093 4.7998-0.65584 16.366-2.5866 9.2582-1.2657 5.3094-0.6091 4.9425-0.44734 5.2226-0.26621 2.8018-0.019376 3.2745 0.1213 1.9059 0.16106 1.8843 0.24427 2.363 0.44717 2.3119 0.57853 2.228 0.67508 3.5184 1.2966 2.6177 1.2289 1.5272 0.9312 0.8782 0.66232 1.1778 1.1199 0.67254 0.82567 0.945 1.5783 0.67146 1.6506 0.44746 1.6267 0.17802 0.92391 0.17584 1.4399 0.046154 1.1872-0.047906 1.0146-0.10685 0.69895-0.27452 0.5876" stroke="#bdc660"/>
    </defs>
    <g clip-path="url(#p98f24d6ebf)">
     <use y="280.512" fill="#bdc660" stroke="#bdc660" xlink:href="#m2ddc76f0e6"/>
    </g>
   </g>
  </g>
 </g>
 <defs>
  <clipPath id="p98f24d6ebf">
   <rect x="7.2" y="7.2" width="342.39" height="266.11"/>
  </clipPath>
 </defs>
</svg>
