<?xml version="1.0" encoding="UTF-8"?>
<!DOCTYPE svg  PUBLIC '-//W3C//DTD SVG 1.1//EN'  'http://www.w3.org/Graphics/SVG/1.1/DTD/svg11.dtd'>
<svg width="371.52pt" height="234.04pt" version="1.1" viewBox="0 0 371.52 234.04" xmlns="http://www.w3.org/2000/svg" xmlns:xlink="http://www.w3.org/1999/xlink">
 <metadata>
  <rdf:RDF xmlns:cc="http://creativecommons.org/ns#" xmlns:dc="http://purl.org/dc/elements/1.1/" xmlns:rdf="http://www.w3.org/1999/02/22-rdf-syntax-ns#">
   <cc:Work>
    <dc:type rdf:resource="http://purl.org/dc/dcmitype/StillImage"/>
    <dc:date>2024-07-04T12:09:21.199413</dc:date>
    <dc:format>image/svg+xml</dc:format>
    <dc:creator>
     <cc:Agent>
      <dc:title>Matplotlib v3.7.1, https://matplotlib.org/</dc:title>
     </cc:Agent>
    </dc:creator>
   </cc:Work>
  </rdf:RDF>
 </metadata>
 <defs>
  <style type="text/css">*{stroke-linejoin: round; stroke-linecap: butt}</style>
 </defs>
 <g id="figure_1">
  <g id="patch_1">
   <path d="m0 234.04h371.52v-234.04h-371.52v234.04z" fill="none"/>
  </g>
  <g id="axes_1">
   <g id="PatchCollection_1">
    <defs>
     <path id="m3b94a3aacf" d="m330.93-178.48 0.25589 0.18427 0.084098 0.46301 0.006059 0.50024-0.25734 2.1752-0.40373 1.9379-0.97496 3.7586-0.92316 3.1232-2.4495 7.4317-0.57586 1.9426-0.47371 1.8725-0.41982 2.1059-0.18946 1.4803-0.030827 1.3881 0.26761 1.6799 0.63104 1.4859 0.5264 0.74218 0.86943 0.8509 1.0339 0.68882 0.41741 0.21211 1.3825 0.51809 1.4859 0.32783 1.58 0.16257 2.4248 0.021114 5.3656-0.2602 1.1864 0.048196 1.0587 0.14893 1.358 0.5165 0.51892 0.47268 0.31996 0.57948 0.10969 0.87013-0.41564 1.2251-0.67469 0.84018-1.1149 1.0009-2.7733 2.2331-1.0761 0.96221-1.0485 1.0568-1.5797 1.9567-1.2759 2.1496-0.95988 2.4203-0.52651 2.4047-0.14835 1.7556 0.036677 1.7867 0.19764 1.6716 0.33949 1.6788 0.85147 2.8782 1.0093 2.7254 2.6849 6.8003 3.1733 8.3331 3.7459 9.297 1.3025 3.784 0.54151 1.9709 0.40406 1.9417 0.22458 1.7743 0.054074 1.6707-0.11006 1.4736-0.21595 1.1623-0.26224 0.89965-0.81083 1.7846-0.8248 1.2739-0.66673 0.84186-0.70253 0.76434-1.4366 1.3035-1.4082 1.0684-2.2967 1.4806-1.4494 0.81235-1.4855 0.75132-2.5718 1.1217-1.9357 0.69639-2.6753 0.77009-1.7547 0.39382-1.5215 0.23647-1.2597 0.099593-2.9467 0.003923-1.9862 0.11072-1.7174 0.31688-2.0041 0.63414-1.4015 0.60634-1.5411 0.8351-1.5214 1.0159-4.7474 3.7291-2.0714 1.3774-2.3786 1.305-1.3437 0.64237-1.6908 0.73841-1.9183 0.75084-1.71 0.56684-1.3004 0.3655-2.6432 0.61923-7.5729 1.5233-9.9107 1.8232-3.304 0.72025-2.5641 0.66501-2.5917 0.81307-1.4683 0.54017-2.5039 1.0488-8.4522 3.9394-2.8396 1.2066-2.9064 1.043-1.5345 0.44792-1.5993 0.39195-4.3996 0.95177-1.8993 0.47145-5.9844 1.5684-6.7919 1.3652-2.3305 0.64546-1.7741 0.6521-0.94054 0.46838-0.49864 0.49473-1.8176-0.55585-1.0716-0.23688-2.1864-0.34904-3.3315-0.27032-1.2497-0.028472-2.2008 0.059656-2.0168 0.19594-1.0461 0.16038-1.7951 0.38347-1.7001 0.51359-3.9933 1.5798-1.1042 0.36355-1.5774 0.36269-0.80051 0.10322-1.5408 0.045941-4.3463-0.42642-1.5492-0.025598-1.3488 0.1082-1.1648 0.2311-0.77591 0.21858-1.4129 0.51306-1.4767 0.70897-4.0091 2.4282-1.6038 0.863-1.877 0.79669-1.2586 0.34775-0.72322 0.10621-0.72571 0.023896-0.63201-0.053946-0.63007-0.12-1.176-0.37634-4.9629-2.2333-1.6658-0.53173-1.0102-0.13967-0.64328 0.039172-0.26224 0.095813-0.10824 0.16127-0.11737-0.17348-0.88002-0.72908-2.3145-1.6858-2.4054-1.5529-3.9887-2.3482-2.0281-1.0836-3.0997-1.5133-8.8339-3.8792-1.3218-0.68072-0.99991-0.5962-1.2824-0.89874-1.1654-0.96573-1.2609-1.1788-2.4723-2.5545-1.3839-1.2776-1.2424-0.90109-0.64974-0.35782-0.85582-0.33911-0.82741-0.18751-1.0918-0.080117-1.3727 0.10591-1.7852 0.40113-1.4801 0.51167-1.438 0.63086-1.3921 0.72872-1.3015 0.78502-2.146 1.4989-2.5836 2.0002-7.6161 6.0854-1.2551 0.94238-1.2343 0.87318-2.0656 1.2837-1.234 0.61181-1.5562 0.52252-1.1891 0.1578-1.1294-0.10796-1.1803-0.47705-0.72091-0.49616-0.98189-0.94327-0.9512-1.226-0.9886-1.636-1.1314-2.4266-0.59311-1.6056-0.80088-2.7292-1.5563-6.4817-0.64516-2.3576-0.94686-2.7922-1.3388-3.2223-1.662-3.3598-1.0343-1.9178-2.9331-4.944-1.1097-2.0098-1.3558-2.8243-0.93397-2.3576-0.74148-2.3854-0.57312-2.8512-0.166-2.4454 0.20538-2.6723 1.181-6.411 0.25534-2.0672 0.1004-1.4086 0.029087-1.7568-0.10115-2.0728-0.16446-1.0901-0.1582-0.54338-0.29255-0.51146-0.46898-0.21289-0.44724 0.1844-0.65735 0.79463-0.44849 1.0208-5.5994-10.213-3.6649-6.3416-6.4816-10.405-2.0172-2.9791-1.0037-1.3565-1.0463-1.3123-1.6789-1.882-1.4509-1.4152-1.6445-1.4123-1.5323-1.1866-2.3113-1.6459-6.7033-4.3959-1.3358-0.981-1.2504-1.0826-0.72335-0.7614-0.71319-0.88229-1.2061-1.8292-0.48156-0.89384-0.66978-1.4439-0.92862-2.544-0.37645-1.3883-0.25751-1.2343-0.15756-1.0429-0.13441-1.485-0.001216-2.1751 0.25688-2.5431 0.50463-2.4963 0.8383-3.1 3.4347-11.554 0.68317-2.1338 0.67285-1.7655 0.72632-1.4562 0.67401-1.0063 0.7789-0.8818 0.47026-0.43003 0.90835-0.68115 1.3563-0.76071 1.5944-0.60448 0.65324-0.13119 0.1906 0.033259 0.10202-0.21585 0.5319-0.25688 0.9288-0.1573 1.261-0.031301 1.7548 0.15546 1.7326 0.30523 1.5056 0.34892 2.6043 0.7461 6.3976 2.2481 8.5525 2.8261 2.3956 0.92086 2.7685 1.19 7.5866 3.579 5.0427 2.1197 2.4534 1.1475 1.7051 0.92954 5.5482 3.4409 3.1356 1.843 2.3517 1.1911 1.9023 0.81304 1.2208 0.44496 1.8965 0.57327 2.6519 0.5698 2.4595 0.29173 2.6068 0.018162 2.0947-0.29361 1.4785-0.47396 1.236-0.67141 0.5584-0.41434 0.74523-0.68624 0.72904-0.84822 0.5777-0.84532 0.45108-0.81688 0.77033-1.9176 0.35633-1.2083 0.4196-1.71 2.3795-10.838 0.86983-3.4262 0.68512-2.2605 0.68987-1.8419 0.78273-1.6584 0.88103-1.493 0.7956-1.1104 0.80547-0.95669 1.1286-1.1285 1.8395-1.4766 1.4-0.8936 1.4841-0.78128 1.9418-0.83801 3.7663-1.3265 7.2987-2.2403 6.1646-2.0183 5.6385-1.7554 1.7651-0.59605 3.1175-1.2526 1.677-0.79628 3.1218-1.6209 2.7629-1.5348 1.6951-1.0428 0.7002-0.49824 0.76643-0.65057 0.61886-0.73182 0.19295-0.40838-0.11049-0.50186 0.27414 0.02399 0.74544 0.24794 2.5908 1.1235 3.2148 1.6418 3.4059 1.9343 1.6879 1.0384 2.9986 2.0004 2.8975 2.1532 2.5269 2.1136 1.8774 1.7544 2.0294 2.0798 2.4599 2.7477 2.5649 3.1235 1.6039 2.1257 1.2726 1.8955 1.258 2.173 0.97941 2.074 0.74002 1.9746 0.58869 1.9638 0.56432 2.4858 0.20882 1.1701 0.23126 1.5659 0.21927 2.1169 0.12776 2.2166 0.027011 1.9531-0.11519 3.1013-0.25087 2.938-1.5318 10.376-0.66774 5.5472-0.22005 2.8743-0.091972 2.1439-0.005878 3.0803 0.051606 1.2918 0.18074 2.3499 0.51116 3.9751 0.27633 1.5804 0.5541 2.3414 0.3731 1.0718 0.37989 0.79158 0.417 0.61234 0.53742 0.50883 0.36785 0.22108 0.70296 0.24861 0.8315 0.10731 0.87317-0.035169 1.3878-0.27582 1.5056-0.5129 2.0685-0.91825 1.4145-0.69304 6.3299-3.2057 2.5877-1.3564 7.4827-4.0913 4.2765-2.196 5.878-2.8384 8.742-4.0041 16.384-7.1397 25.287-10.52 30.402-12.901 4.3697-1.8021" stroke="#bdc660"/>
    </defs>
    <g clip-path="url(#p7986877e5e)">
     <use y="234.036809" fill="#bdc660" stroke="#bdc660" xlink:href="#m3b94a3aacf"/>
    </g>
   </g>
  </g>
 </g>
 <defs>
  <clipPath id="p7986877e5e">
   <rect x="7.2" y="7.2" width="357.12" height="219.64"/>
  </clipPath>
 </defs>
</svg>
