<?xml version="1.0" encoding="UTF-8"?>
<!DOCTYPE svg  PUBLIC '-//W3C//DTD SVG 1.1//EN'  'http://www.w3.org/Graphics/SVG/1.1/DTD/svg11.dtd'>
<svg width="288.52pt" height="280.51pt" version="1.1" viewBox="0 0 288.52 280.51" xmlns="http://www.w3.org/2000/svg" xmlns:xlink="http://www.w3.org/1999/xlink">
 <metadata>
  <rdf:RDF xmlns:cc="http://creativecommons.org/ns#" xmlns:dc="http://purl.org/dc/elements/1.1/" xmlns:rdf="http://www.w3.org/1999/02/22-rdf-syntax-ns#">
   <cc:Work>
    <dc:type rdf:resource="http://purl.org/dc/dcmitype/StillImage"/>
    <dc:date>2024-07-04T12:09:26.088088</dc:date>
    <dc:format>image/svg+xml</dc:format>
    <dc:creator>
     <cc:Agent>
      <dc:title>Matplotlib v3.7.1, https://matplotlib.org/</dc:title>
     </cc:Agent>
    </dc:creator>
   </cc:Work>
  </rdf:RDF>
 </metadata>
 <defs>
  <style type="text/css">*{stroke-linejoin: round; stroke-linecap: butt}</style>
 </defs>
 <g id="figure_1">
  <g id="patch_1">
   <path d="m0 280.51h288.52v-280.51h-288.52v280.51z" fill="none"/>
  </g>
  <g id="axes_1">
   <g id="PatchCollection_1">
    <defs>
     <path id="maea2040f4b" d="m180.57-255.3 0.52699 0.32735 0.77596 0.97467 1.0019 1.6202 0.98838 2.0262 0.83382 2.3218 0.64189 2.838 0.39317 2.8461 0.24876 3.271 0.040059 1.493-0.048451 2.841-0.54136 8.511-0.07547 3.359 0.073317 2.0284 0.14743 1.6915 0.22796 1.66 0.39347 2.0294 2.1946 8.8866 0.59972 2.1709 0.6034 1.8363 1.2331 3.1908 1.594 3.6339 1.214 2.4545 1.1369 2.0212 1.8841 3.1074 1.1155 1.712 0.97722 1.3474 1.5405 1.8056 1.3055 1.2554 1.3499 1.077 1.7725 1.142 4.5233 2.4207 1.5648 0.91364 1.1984 0.88175 0.42105 0.37627 0.61614 0.6404 0.67961 0.85212 0.92026 1.4518 0.82154 1.8242 0.264 0.91186 0.10709 0.61853 0.030872 0.9258-0.090579 0.74616-0.17215 0.68451-0.40141 1.0289-0.53545 1.0219-2.2114 3.4384-0.78786 1.3787-0.69814 1.5555-0.65444 2.0293-0.5388 2.3776-0.68343 3.8238-0.52281 2.4941-0.70433 2.3998-1.3978 3.9611-0.39238 1.3053-0.31692 1.4067-0.21346 1.5876-0.071489 1.617 0.087755 1.7981 0.26472 1.7964 0.3672 1.5045 0.50492 1.477 0.83452 1.7859 1.1334 1.8597 0.9963 1.3772 1.0897 1.3495 1.6673 1.8707 1.7831 1.8376 2.2681 2.1846 2.3621 2.1447 4.0227 3.389 2.2648 1.7383 2.5691 1.7773 2.6624 1.5787 2.7751 1.304 2.9146 0.92909 2.9551 0.46037 3.0882 0.093159 3.196-0.19578 3.2775-0.42118 3.3272-0.59382 3.3339-0.72027 6.2976-1.6053 6.7499-1.9214 0.5955-0.078115-0.10468 0.64751-0.84936 1.0384-1.4228 1.2183-2.2737 1.4629-2.2855 1.1344-2.5125 1.0258-2.6548 0.93706-9.2181 2.9386-3.1234 1.1685-2.564 1.1335-2.4685 1.2521-2.3681 1.3526-1.3047 0.81077-5.1982 3.4577-2.2101 1.3214-1.747 0.91097-1.779 0.81004-2.9927 1.132-6.2113 1.9847-1.4802 0.44409-2.7868 0.66441-2.0968 0.2979-7.5931 0.62552-4.3866 0.44184-1.9639 0.34076-1.3216 0.39481-1.0078 0.4664-0.39402 0.24827-0.69344 0.60396-0.61136 0.78098-0.80105 1.2822-0.7699 1.0791-0.92153 0.9691-1.0625 0.84047-1.4229 0.84312-1.5043 0.70974-1.232 0.49999-1.3577 0.45989-1.0268 0.27532-1.0231 0.22036-2.0611 0.32988-1.4184 0.1452-2.073 0.10849-4.0377 0.085845-1.5119-0.023236-1.9421-0.13914-1.6372-0.24067-1.7437-0.39023-3.1147-0.97155-4.0353-1.4964-4.6742-2.0161-1.5147-0.55674-0.66234-0.12453-0.53767-0.016015-1.1647 0.25544-0.99374 0.50396-0.82153 0.59854-1.2443 1.2966-2.4554 3.176-2.4998 2.9232-0.89533 0.9506-1.0024 0.94554-1.3128 1.0121-1.2409 0.72228-1.2268 0.50216-1.7471 0.42794-0.64052 0.099792-2.767 0.17258-1.8242-0.1358-0.6993-0.11192-1.7165-0.41882-1.6442-0.60576-1.5869-0.78532-1.3816-0.85605-1.317-0.96001-1.1973-0.98141-3.7833-3.3323-1.0872-0.85718-1.43-0.92399-1.4837-0.59649-1.9235-0.17316-2.0481 0.33599-2.1357 0.72742-2.3172 1.0921-1.8621 1.0535-1.8491 1.2056-1.9531 1.4834-1.3538 1.1855-1.9497 1.9509-1.8521 2.097-4.2239 5.253-2.8386 3.1098-2.2847 2.2217-2.3927 2.1593-4.6567 3.8925-2.2321 1.7457-2.6265 1.9479-2.6953 1.8962-5.6651 3.7328-6.2666 3.8823-5.5154 3.1986-2.6522 1.4345-2.7062 1.3761-2.4136 1.1404-2.4516 1.0617-2.8208 1.084-2.011 0.67463-2.7482 0.79126-2.7591 0.65534-2.5707 0.48871-2.485 0.34744-1.7704 0.13658-0.63223-0.060584-1.0048-2.4256-0.44602-1.3495-0.21655-1.1235 0.019456-0.75393 0.071123-0.28092 0.23014-0.43663 0.29748-0.32368 1.0596-0.93655 0.60932-0.8058 0.65684-1.3618 0.87302-2.4018 0.94533-3.2555 0.78643-3.761 0.42686-1.7386 1.2023-3.9458 0.34947-1.3218 0.25911-1.6068 0.16303-2.1511 5.6213-5.8062 7.0708-6.951 2.9162-3.089 3.012-3.5133 3.0529-3.7279 4.1116-5.2151 3.638-4.9029 2.4836-3.5332 2.5838-3.9135 1.4569-2.4154 1.5792-2.9366 1.0572-2.2537 0.82891-2.1153 0.43676-1.3407 0.48662-1.8779 0.33742-1.8733 0.18475-1.7959 0.065025-1.5469-0.001885-0.77043-0.13043-1.8293-0.46089-2.2076-0.31945-0.98428-0.71906-1.6367-1.0015-1.6416-1.172-1.4214-1.0186-0.9381-1.0695-0.75376-1.0744-0.53925-1.0739-0.3061-0.74953-0.055707-0.98721 0.15174-0.95413 0.40953-1.4523 1.0581-1.5512 1.3268-0.82168 0.61914-0.87444 0.54228-1.5074 0.62048-1.1763 0.21397-1.1567-0.047836-0.93126-0.27459-0.84934-0.49807-0.62328-0.59005-0.59529-0.84752-0.48146-1.0163-0.43538-1.4027-0.30121-1.5789-0.19113-1.9017-0.037586-2.8916 0.073167-1.8257 0.14088-1.887 0.30282-2.5664 0.45306-2.6054 0.57343-2.4402 0.70322-2.3944 0.9484-2.6714 1.0138-2.4479 1.7873-3.8642 0.21763-0.56491-0.019013-0.21621 0.31402-0.1438 0.28802-0.59961 0.23559-1.045 0.15189-1.3215 0.40615-6.3783 0.2136-1.6333 0.30874-1.5927 0.42335-1.5339 0.56296-1.4582 0.64764-1.2519 0.74583-1.1983 3.3352-4.7698 0.85052-1.3661 0.79687-1.3956 1.4374-2.8592 0.63257-1.4586 0.60326-1.5923 0.50683-1.6138 0.38709-1.6368 0.21424-1.3882 0.12064-1.4017 0.03492-1.4109-0.055978-1.6012-0.34002-3.2148-0.55651-3.2206-0.75393-3.2851-0.91836-3.3559-1.002-3.3811-7.4193-24.041 0.24002-0.004038 0.58462-0.23714 2.9207-1.5878 5.7864-3.5843 5.9936-3.8361 3.954-2.6943 8.4571-6.2591 1.9751-1.3918 1.9799-1.3135 1.9838-1.2258 4.3688-2.4195 3.1759-1.6193 1.7243-0.78936 1.4483-0.58274 2.3213-0.83463 2.1391-0.57863 2.1067-0.28822 2.0557 0.1121 1.9957 0.5924 1.971 0.95914 6.4093 3.8556 5.1103 2.9134 5.777 3.1095 3.6358 1.8016 1.8594 0.83713 2.4405 0.95592 2.4576 0.72368 2.4859 0.39092 2.2826-0.004162 2.3162-0.29129 2.445-0.53513 1.8299-0.52571 5.7981-2.0082 3.2655-1.0551 2.5861-0.73379 2.6378-0.67508 9.1202-2.0548 4.2551-1.0401 2.0261-0.62539 1.1111-0.47515 0.36045-0.31136" stroke="#bdc660"/>
    </defs>
    <g clip-path="url(#p7fea8a43cd)">
     <use y="280.512" fill="#bdc660" stroke="#bdc660" xlink:href="#maea2040f4b"/>
    </g>
   </g>
  </g>
 </g>
 <defs>
  <clipPath id="p7fea8a43cd">
   <rect x="7.2" y="7.2" width="274.12" height="266.11"/>
  </clipPath>
 </defs>
</svg>
