<?xml version="1.0" encoding="UTF-8"?>
<!DOCTYPE svg  PUBLIC '-//W3C//DTD SVG 1.1//EN'  'http://www.w3.org/Graphics/SVG/1.1/DTD/svg11.dtd'>
<svg width="285.7pt" height="280.51pt" version="1.1" viewBox="0 0 285.7 280.51" xmlns="http://www.w3.org/2000/svg" xmlns:xlink="http://www.w3.org/1999/xlink">
 <metadata>
  <rdf:RDF xmlns:cc="http://creativecommons.org/ns#" xmlns:dc="http://purl.org/dc/elements/1.1/" xmlns:rdf="http://www.w3.org/1999/02/22-rdf-syntax-ns#">
   <cc:Work>
    <dc:type rdf:resource="http://purl.org/dc/dcmitype/StillImage"/>
    <dc:date>2024-07-04T12:09:22.464952</dc:date>
    <dc:format>image/svg+xml</dc:format>
    <dc:creator>
     <cc:Agent>
      <dc:title>Matplotlib v3.7.1, https://matplotlib.org/</dc:title>
     </cc:Agent>
    </dc:creator>
   </cc:Work>
  </rdf:RDF>
 </metadata>
 <defs>
  <style type="text/css">*{stroke-linejoin: round; stroke-linecap: butt}</style>
 </defs>
 <g id="figure_1">
  <g id="patch_1">
   <path d="m0 280.51h285.7v-280.51h-285.7v280.51z" fill="none"/>
  </g>
  <g id="axes_1">
   <g id="PatchCollection_1">
    <defs>
     <path id="ma772793673" d="m264.53-74.485 0.13905 0.007475 0.13874 0.087128 0.20496 0.21193 0.31752 0.4971 0.23651 0.53812 0.2535 0.83098 0.15394 0.71591 0.12085 0.78969 0.070849 0.95151 0.002721 0.79054-0.07232 1.6185-0.078022 1.1816-0.091348 0.78986-0.16316 0.89178-0.3291 1.4229-0.24771 0.90876-0.32216 0.862-0.43435 0.82413-0.32793 0.50215-0.59105 0.77494-0.82123 0.9415-2.3994 2.5998-1.3434 1.5221-1.1656 1.3908-0.60469 0.78795-0.57933 0.88596-0.45714 0.82976-0.43247 0.93625-0.7036 1.8075-0.6041 1.4389-1.6687 3.4735-0.42695 0.82887-0.42675 0.75166-0.68303 0.9987-0.75312 0.89019-0.46183 0.48882-1.141 1.0967-1.1217 0.89817-1.7318 1.1725-5.4266 3.3464-4.0757 2.6918-3.0401 1.9348-1.0756 0.64108-2.2666 1.1969-1.8079 0.87062-0.78252 0.34067-0.98979 0.38658-1.2199 0.39876-1.0437 0.25188-0.8978 0.15056-0.53463 0.061225-1.1414 0.059306-1.2998-0.046971-1.3235-0.13407-1.2505-0.17992-1.2928-0.23267-2.8471-0.56814-1.1204-0.18729-1.7088-0.1876-0.93937-0.047934-1.0614 0.004761-0.89529 0.050578-6.0556 0.54699-1.5807 0.2246-1.801 0.36693-1.9359 0.50739-1.992 0.64093-0.71019 0.26823-0.97756 0.41931-0.78113 0.38063-0.9327 0.50498-1.4602 0.90798-0.72037 0.52756-0.14336 0.15492 0.046437-0.41784 0.019452-1.0114-0.045794-1.3652-0.14321-1.5566-0.27024-1.6382-0.42936-1.6444-0.62045-1.6226-0.77362-1.5669-0.88314-1.513-0.95795-1.4648-1.0071-1.4231-2.0954-2.7464-3.2159-3.9419-4.3066-5.11-1.5488-1.9736-1.3208-1.7992-1.5382-2.2808-1.4007-2.199-3.3262-5.6699-1.4483-2.3473-0.90074-1.3693-0.66066-0.9514-0.65801-0.87315-0.57953-0.69912-0.58478-0.63948-0.60026-0.59143-0.59363-0.53239-0.58886-0.47919-1.1773-0.8834-1.877-1.3251-0.74142-0.50029-0.91829-0.57031-2.152-1.2444-1.7482-0.88472-1.8825-0.85974-4.1739-1.8216-2.1134-0.9949-0.64314-0.34417-0.77899-0.47345-0.72279-0.51213-0.49412-0.41568-0.5607-0.58076-0.66389-0.88012-0.48869-0.79119-0.53719-1.0307-0.45364-1.1286-0.39783-1.2332-0.37143-1.2677-0.60538-2.2773-0.30393-1.0091-0.92334-2.5397-0.46233-1.0274-0.2362-0.44451-0.42911-0.70502-0.55335-0.75875-0.57691-0.66961-0.93225-0.9456-0.99012-0.86992-1.3466-1.0348-2.1968-1.536-1.088-0.69503-1.2576-0.73233-2.8379-1.4943-1.5174-0.8597-1.1541-0.75014-1.0683-0.81004-0.62215-0.51376-0.92189-0.82542-0.60904-0.61809-0.76949-0.88463-0.61848-0.83264-1.5878-2.5485-0.54935-0.81671-0.62898-0.80828-0.68953-0.75272-0.55758-0.52457-0.37518-0.31205-0.55804-0.40825-0.92506-0.55653-0.63242-0.31376-1.7889-0.81112-1.1097-0.56047-0.77366-0.50682-0.68211-0.60455-0.39645-0.45452-0.35171-0.50354-0.36107-0.68742-0.24795-0.67839-0.15162-0.6292-0.065234-0.40593-0.081582-0.91635-0.048751-1.928 0.047273-1.4342 0.093377-1.3882 0.009394-0.90154-0.067144-0.83404-0.18811-0.96247-0.39763-1.1867-0.43073-0.92722-0.38949-0.69802-0.81275-1.2076-0.56868-0.69972-0.67224-0.69367-0.54032-0.47911-0.85726-0.66568-0.71416-0.48138-0.50598-0.3053-1.1152-0.56612-1.137-0.42426-1.1408-0.30676-1.3129-0.24801-4.3031-0.51078-3.1019-0.26524-0.81817-0.13957-1.268-0.31896-1.4887-0.49417-1.2797-0.50444-1.0776-0.47697-1.2151-0.60699-0.6047-0.33786-1.313-0.83628-1.0663-0.78426-0.78819-0.63926-1.1352-1.0376-0.6889-0.74906-0.47109-0.60865-0.34598-0.52862-0.43283-0.81795-0.53694-1.5196-0.2774-1.5801-0.061071-1.4004 0.068483-1.0749 0.10317-0.63239 0.082288-0.30417 0.072103-0.17778 0.054485-0.019192 0.093684-0.019068 0.07796-0.20669-0.011399-0.62249-0.20622-1.2869-0.35122-1.4829-0.43302-1.4627-0.28768-0.85004-0.53387-1.4221-1.1216-2.7446-0.17941-0.50172-0.16526-0.57807-0.095533-0.62498 0.006261-0.70083 0.059829-0.49654 0.18295-0.50493 0.19497-0.20651 0.23986-0.11953 0.71496-0.18194 0.69535-0.22053 0.76249-0.17175 0.86537-0.066869 1.4806-0.013292 1.2296 0.040457 1.5834 0.10132 0.48042-0.010091 0.73817-0.12654 0.45003-0.15257 0.31388-0.15382 0.25379-0.18188 0.23562-0.25447 0.32989-0.57314 0.22264-0.60607 0.50812-1.7242 0.14131-0.57336 0.044286-0.49718-0.050682-0.37756-0.15932-0.4141-0.48125-0.88614-0.58442-1.377-0.4289-0.77951-0.54334-0.84191-1.3305-1.8194-1.7616-2.2026-1.9343-2.2467-1.662-1.7828-1.0503-1.0571-1.0769-1.0334-1.1012-1.0063-1.1256-0.97397-1.1523-0.93423-1.1833-0.8845-1.3607-0.92038-1.3877-0.86459-5.4729-3.2241-1.2564-0.811-1.1656-0.83655-1.1428-0.9083-0.95593-0.7142-3.4634-2.3266-3.2021-2.2238-3.0128-2.0519-2.1475-1.5733-5.6381-4.3033-3.0253-2.2605-1.3316-1.061-0.4727-0.4295-0.31614-0.33576-0.19014-0.24842-0.15029-0.26135-0.11823-0.3452-0.035778-0.2838 0.01304-0.27048 0.077502-0.34263 0.13487-0.33462 0.77099-1.3047 0.13361-0.32729 0.077327-0.43796-0.038871-0.40382-0.039809-0.14031-0.28228-0.5654-0.30319-0.42999-1.6155-2.0126-1.1708-1.5994-0.99087-1.5377-0.78357-1.4013-0.5681-1.1757-0.31115-0.7466-0.26753-0.75646-0.20434-0.72437-0.13416-0.633-0.12786-0.96632-0.076103-1.4598-0.022968-2.2066-0.1359-3.2832 0.009821-0.76134 0.047986-0.74033 0.18708-1.3414 0.31029-1.2659 0.34373-0.98715 0.90366-2.2906 0.48084-1.3857 0.35388-1.242 0.23006-1.1595 0.136-1.0025 0.093542-1.0152 0.033561-0.79882-0.010894-0.67329-0.085064-0.81131-0.12114-0.54479-0.14361-0.35382-0.044088-0.062386-0.11245-0.070244 11.931 0.91065 6.2455 0.5322 5.8882 0.56921 14.495 1.4655 4.4346 0.41168 2.9676 0.22418 1.4896 0.081664 1.7589 0.054377 1.7564-0.00502 2.7473-0.12083 1.3842-0.11312 1.3917-0.1539 1.4307-0.2056 1.4393-0.25468 1.4478-0.30512 1.466-0.3609 1.4725-0.4116 1.4756-0.45962 1.4714-0.50656 1.4461-0.54666 2.767-1.1619 1.2507-0.56978 2.3287-1.1237 0.98308 0.88127 0.92515 0.88053 1.0176 1.0376 1.0151 1.1329 0.94036 1.1874 0.80493 1.2158 0.61224 1.2284 0.35976 1.2324 0.061487 0.53175 0.002856 0.60086-0.045251 0.49302-0.12599 0.68929-0.24363 0.87599-0.29151 0.83105-1.3354 3.1809-0.39025 1.0932-0.2491 1.0375-0.060998 0.49214-0.005447 0.61254 0.23348 1.1511 0.48313 1.152 0.6485 1.1557 2.1836 3.4543 0.76378 1.3543 0.35574 0.73637 0.18234 0.43261 0.29704 0.87285 0.06557 0.251 0.16124 0.99866-0.010407 0.9952-0.22106 1.0713-0.34844 0.93343-0.47194 0.95122-0.53065 0.88503-1.6833 2.399-0.65972 1.0702-0.45714 0.94948-0.2427 0.65093-0.15927 0.54218-0.14094 0.65818-0.078166 0.61122-0.024419 0.56785 0.049334 0.83593 0.084109 0.55538 0.1831 0.80524 0.17149 0.58564 0.31052 0.88349 0.24688 0.60636 0.58249 1.2293 0.60534 1.0732 0.79259 1.1842 0.88149 1.1184 0.93712 1.0509 1.5566 1.5926 2.1033 2.0398 0.88138 0.88953 1.2043 1.3163 0.49006 0.58048 0.8214 1.0545 0.94517 1.3776 0.53097 0.92917 0.82169 1.6967 0.33353 0.60114 0.48202 0.66986 0.59172 0.54828 0.67453 0.40507 0.5586 0.21094 0.58958 0.11396 0.51314 0.012568 0.59629-0.062529 0.38598-0.070648 1.0819-0.2811 1.3332-0.4799 0.94708-0.42871 1.0138-0.53205 2.6911-1.515 0.91455-0.41301 0.35652-0.097236 0.34806-0.039108 0.40672 0.027607 1.7138 0.42588 0.73463 0.073693 1.2672 0.060601 0.60906 0.06076 1.0505 0.20166 2.2253 0.59728 1.1455 0.27814 1.1512 0.18614 1.2427 0.048286 2.1369-0.10435 1.2804-0.02283 1.2897 0.061956 1.2633 0.19832 1.1994 0.39663 1.1142 0.64741 1.0402 0.84478 0.99413 0.97589 1.7693 1.9586 3.1676 3.6641 0.47263 0.61287 0.75951 1.1032 1.7793 2.8452 1.8329 2.6768 0.47106 0.75346 0.52511 0.93912 0.59892 1.243 0.33992 0.81656 1.0887 2.9603 0.36703 0.9203 0.62553 1.3925 0.61375 1.1436 0.33669 0.52266 0.31268 0.42135 0.3103 0.36346 0.62929 0.60337 0.67548 0.48689 0.48138 0.26018 0.43096 0.17042 0.4137 0.10734 0.36146 0.049557 0.36433 0.009448 0.66607-0.081005 0.42544-0.10659 0.91404-0.31187 2.2571-0.90304 1.159-0.41388 0.87194-0.25904 0.71503-0.17228 1.0449-0.17754 0.70014-0.063956 0.74692-0.011235 1.1964 0.092565 3.3404 0.53058 1.2145 0.11928 1.4609 0.03661 2.7427-0.09324 1.2766 0.027388 1.1477 0.12053 1.0519 0.19626 1.2877 0.32237 1.2367 0.35271 1.2433 0.38814 1.0748 0.38528 2.9059 1.1856 1.7416 0.63482 1.3387 0.40168 1.1835 0.2459 0.61568 0.069462 0.59931 0.026716 1.0375-0.038199 1.2941-0.14785 3.0007-0.483 0.81439-0.109 1.1367-0.085062 0.85649 0.018368 0.56502 0.06115 0.92864 0.18648 0.64267 0.19508 0.93696 0.3884 0.39178 0.2085 0.6225 0.41606 0.73446 0.65645 0.95511 1.0949 1.0121 1.3265 1.1787 1.7359 0.7023 0.96086 0.6182 0.73362 3.3471 3.4726 2.7378 2.4306 0.77261 0.74946 0.82225 0.87615 2.4405 2.9241 1.1667 1.3064 1.4149 1.501 0.58058 0.67846 0.53195 0.69582 0.35083 0.51473 0.32381 0.53048 0.36447 0.67854 0.40793 0.86806 0.36831 0.87377 0.22113 0.57972 0.44058 1.3187 0.42116 1.5407 0.55871 2.5561 0.31984 1.8119 0.17946 1.1934 0.28121 2.2253 0.39476 3.5214 0.28406 3.7712 0.15222 1.3112 0.12343 0.68498 0.19861 0.8167 0.42301 1.3098 0.35622 0.87323 0.2539 0.53113 0.46175 0.83486 0.64802 0.98711 1.1494 1.5296 0.96079 1.1743 1.9319 2.2263 1.1589 1.2437 2.3282 2.365 1.0998 1.1991 0.86496 1.0373 0.83425 1.082 1.0451 1.4554 1.4506 2.1793 1.3415 2.1739 0.57758 1.035 0.50102 1.0624 0.30975 0.86442 0.19982 0.76573 0.18162 1.0758 0.070114 0.71671 0.03838 0.89354-0.063334 3.2683 0.003646 0.7486 0.040745 0.85422 0.092548 0.82144 0.14121 0.76917 0.24692 0.94721 0.28505 0.84053 0.52497 1.2178 0.47851 0.91408 1.3072 2.247 0.97735 1.7425 0.363 0.54437" stroke="#bdc660"/>
    </defs>
    <g clip-path="url(#p2e71f77ba9)">
     <use y="280.512" fill="#bdc660" stroke="#bdc660" xlink:href="#ma772793673"/>
    </g>
   </g>
  </g>
 </g>
 <defs>
  <clipPath id="p2e71f77ba9">
   <rect x="7.2" y="7.2" width="271.3" height="266.11"/>
  </clipPath>
 </defs>
</svg>
