<?xml version="1.0" encoding="UTF-8"?>
<!DOCTYPE svg  PUBLIC '-//W3C//DTD SVG 1.1//EN'  'http://www.w3.org/Graphics/SVG/1.1/DTD/svg11.dtd'>
<svg width="371.52pt" height="220.31pt" version="1.1" viewBox="0 0 371.52 220.31" xmlns="http://www.w3.org/2000/svg" xmlns:xlink="http://www.w3.org/1999/xlink">
 <metadata>
  <rdf:RDF xmlns:cc="http://creativecommons.org/ns#" xmlns:dc="http://purl.org/dc/elements/1.1/" xmlns:rdf="http://www.w3.org/1999/02/22-rdf-syntax-ns#">
   <cc:Work>
    <dc:type rdf:resource="http://purl.org/dc/dcmitype/StillImage"/>
    <dc:date>2024-07-04T12:09:21.498077</dc:date>
    <dc:format>image/svg+xml</dc:format>
    <dc:creator>
     <cc:Agent>
      <dc:title>Matplotlib v3.7.1, https://matplotlib.org/</dc:title>
     </cc:Agent>
    </dc:creator>
   </cc:Work>
  </rdf:RDF>
 </metadata>
 <defs>
  <style type="text/css">*{stroke-linejoin: round; stroke-linecap: butt}</style>
 </defs>
 <g id="figure_1">
  <g id="patch_1">
   <path d="m0 220.31h371.52v-220.31h-371.52v220.31z" fill="none"/>
  </g>
  <g id="axes_1">
   <g id="PatchCollection_1">
    <defs>
     <path id="mf9aa72c71d" d="m330-121.33 0.019625 0.22318-0.22464 0.58311-1.8449 3.9887-1.0465 2.5268-0.97896 2.7575-0.72588 2.4715-0.5919 2.5189-0.46765 2.6893-0.31258 2.6491-0.14542 1.9478-0.075525 1.8846 0.038797 2.9847 0.19729 1.963 0.31092 1.6298 0.44941 1.4479 0.49697 1.0491 0.61447 0.87482 0.64337 0.60907 0.8767 0.51412 0.96127 0.28344 1.194 0.049376 1.2142-0.22087 1.5559-0.64048 0.90262-0.55975 0.84815-0.63908 1.6012-1.3696 1.4991-1.0922 0.98488-0.42273 1.019-0.15662 0.77368 0.057502 1.1085 0.31597 1.1091 0.55662 1.104 0.77805 1.0514 0.96832 1.2098 1.4672 1.0337 1.6944 0.74222 1.6894 0.32974 1.016 0.47574 2.2788 0.13463 1.8883 0.001946 0.79526-0.067121 1.5967-0.19071 1.8537-0.34829 1.9336-0.5023 1.9384-0.45084 1.3839-0.85562 2.1835-1.0913 2.3264-1.6301 3.0312-1.5039 2.4932-2.667 4.0396-2.5636 3.6471-3.7552 5.0609-4.2441 5.3831-3.1513 3.848-3.109 3.6265-3.0102 3.1885-7.2987 7.175-5.8024 5.9933-0.43717 0.01822-1.0662-0.2658-1.7452-0.56471-2.1289-0.79139-2.7269-1.1257-9.0375-3.9102-3.2592-1.2762-3.2699-1.1864-5.7219-1.9205-11.854-3.8553-2.215-0.63404-2.2069-0.54463-2.3779-0.47246-2.3555-0.35512-4.2513-0.47811-1.9357-0.27262-9.7648-1.7019-3.397-0.6765-2.7485-0.6993-1.7192-0.52655-3.2994-1.1662-4.3341-1.6529-3.7536-1.2914-2.1033-0.61254-2.0196-0.47749-2.1852-0.30347-2.1688 0.073749-1.8899 0.32695-1.9142 0.48289-6.3853 1.8466-2.3361 0.46027-2.4442 0.15407-2.4488-0.17404-2.4945-0.50661-2.3882-0.80445-2.3109-1.0743-2.2497-1.1363-2.3002-0.97364-1.5546-0.44065-2.5547-0.31736-2.7412 0.22494-2.8158 0.68766-2.8756 1.0264-2.926 1.2675-2.8538 1.3748-9.7024 5.0865-5.0224 2.4808-2.5718 1.1486-2.618 1.0549-2.8498 0.98658-2.9183 0.79791-3.6589 0.68925-2.3163 0.30633-3.6576 0.32448-2.449 0.122-3.9566 0.022774-14.509-0.23749-2.2269 0.008762-0.89116 0.085395 0.34436-0.34978 0.25744-0.70244 0.19762-1.598-0.13732-1.9284-0.55925-2.0176-1.1749-2.1657-1.623-2.0917-1.8478-2.0373-1.7008-1.698-1.8176-1.5974-1.0548-0.8091-1.5977-1.0764-1.6441-0.95888-1.4838-0.76006-0.90063-0.41483-2.4921-0.9726-3.254-1.1274-10.119-3.9135-5.5619-1.9216-2.8227-0.85117-2.0984-0.41404-2.1833-0.26574-1.7-0.12643-10.208-0.24112-3.5568-0.21236-2.0394-0.21454-1.7648-0.34327-0.84335-0.37816-0.2142-0.21428-0.10986-0.42669 0.27459-0.58356 0.62888-0.66602 2.2946-2.0373 0.72521-0.71193 2.1761-2.4478 2.8979-3.5331 0.96344-1.0942 1.9686-1.9531 1.795-1.4505 4.6707-3.2126 3.4243-2.6315 3.0452-2.2422 6.5154-4.4332 1.3908-1.0305 0.96793-0.78432 1.3291-1.2412 1.2431-1.5135 0.91388-1.6659 0.58962-2.0586 0.21874-2.1347 0.008652-1.3134-0.064352-0.95829-0.46644-2.4303-0.79709-2.4982-0.68651-1.6789-0.91448-1.7718-0.84531-1.1555-1.0354-0.76643-1.0155-0.27465-1.9783 0.08607-1.366 0.31379-1.7544 0.56035-2.7779 1.0618-2.1926 0.94461-2.1561 1.0087-7.039 3.6417-2.1579 1.0503-3.3787 1.5009-1.8906 0.75664-2.3607 0.85796-4.1662 1.3216-3.7664 1.1253-4.0736 1.1071-1.7029 0.39367-2.2551 0.41474-1.0262 0.13129-1.438 0.055006-1.11-0.20252-0.69475-0.41055-0.4061-0.48247-0.20938-0.46665-0.10562-0.74309 0.068961-0.63281 0.14377-0.50492 0.45726-0.92564 0.99763-1.3105 1.5196-1.5559 7.3017-6.8879 2.1388-1.9231 4.0693-3.4458 0.95788-0.89538 0.66273-0.67339 1.8862-2.1253 2.5206-3.0864 2.2659-2.9712 6.7538-9.3457 1.3767-2.0008 1.7138-2.8052 0.8138-1.5925 1.3948-3.0696 0.44811-0.82026 1.2542-1.7029 1.2792-1.2273 1.4702-1.0358 1.3857-0.71741 1.5933-0.65106 1.649-0.56298 4.1668-1.2531 0.91318-0.33134 1.3493-0.64546 1.6427-1.2563 1.2038-1.2944 3.811-4.4437 2.1935-2.3175 2.3552-2.217 4.4909-3.9533 1.8246-1.8788 1.0906-1.2898 1.0279-1.3263 2.2374-3.0708 1.1472-1.4697 1.6016-1.7354 1.2544-1.1644 1.7381-1.4424 5.8729-4.3708 2.0482-1.6001 1.8418-1.6244 1.5218-1.6372 1.0776-1.5227 0.72203-1.3278 0.31383-0.78305 0.00533-0.42968 0.11208-0.022543 0.11262 0.10124 0.6234 0.13299 0.90617-0.050954 0.78097-0.15492 0.78027-0.25815 0.67591-0.33952 0.42708-0.30364 0.79892-0.85439 0.50809-0.78389 1.3641-2.5435 0.50005-0.69169 0.53152-0.47256 0.40987-0.16699 0.40466 0.018698 0.44448 0.2714 0.42087 0.49829 0.65905 1.2112 0.4828 1.2588 1.5052 5.0981 0.64553 1.8985 0.37799 0.94849 0.47127 0.9803 0.54877 0.8888 0.41888 0.53335 0.3522 0.38131 0.876 0.72729 0.74298 0.43015 0.79484 0.32428 0.83985 0.23366 0.99024 0.17385 1.0051 0.081379 0.99794-0.01233 1.0662-0.1303 0.99943-0.26958 0.89868-0.43462 0.44638-0.32651 0.68493-0.71178 1.893-2.8579 0.62444-0.84384 0.69987-0.81087 0.79802-0.77267 0.8717-0.71001 1.128-0.76889 1.1873-0.68019 5.352-2.7266 4.5533-2.1848 1.5042-0.89274 0.66624-0.52121 0.99867-1.0987 0.70387-1.2147 0.35956-1.0692 0.1112-0.88513-0.14438-0.49798 0.82858 0.008257 1.6822 0.42738 2.0865 0.79446 2.3754 1.1168 1.6223 0.90612 1.6006 1.0083 1.5966 1.1106 1.6447 1.2614 1.5061 1.335 1.5569 1.7645 1.1095 1.8582 0.72479 2.0187 0.42021 2.0738 0.2386 2.1852 0.12942 2.2652 0.16832 7.4047 0.1214 2.7189 0.26255 3.1012 0.38634 3.1046 0.45636 2.8862 0.54336 2.8677 0.62991 2.8384 0.66061 2.5883 0.73322 2.5441 2.4611 7.6682 0.55657 2.0721 0.49195 2.6099 0.1672 2.5711-0.21488 2.3284-0.70803 2.5337-1.1304 2.4232-1.3032 2.0581-1.5383 1.9442-1.7462 1.8092-1.4354 1.2518-1.5359 1.1491-1.9937 1.2464-2.1043 1.0805-1.9464 0.83259-1.9847 0.74874-2.9322 1.0066-6.4759 2.0227-2.3972 0.81595-2.1341 0.87564-1.2859 0.66485-1.0606 0.70969-1.0297 1.0721-0.35846 0.97325 0.071976 0.53923 0.3002 0.59348 0.43963 0.52008 0.8639 0.76454 4.5933 3.4923 2.5381 2.256 2.8555 2.893 3.5795 3.7876 2.094 2.0945 1.7291 1.5719 1.793 1.4284 1.8748 1.2312 1.4903 0.76816 2.6669 0.93427 2.7645 0.44658 1.7363 0.021636 1.7365-0.17796 2.4924-0.59871 2.3878-0.87833 2.3715-1.0751 6.9844-3.5086 2.5167-1.094 2.5476-0.87122 1.9054-0.44674 1.9189-0.24266 2.0937-0.002338 2.0836 0.26711 2.1998 0.56238 2.1879 0.7775 10.184 4.4302 3.6073 1.4701 2.8459 1.0897 3.7913 1.2751 1.635 0.46254 2.2011 0.53612 2.1019 0.32919 1.6338 0.034633 1.6322-0.26097 1.5381-0.56554 1.9854-1.3157 1.3037-1.3544 1.1012-1.5987 0.78752-1.5638 0.6167-1.6853 0.5103-2.1567 0.26015-2.2452 0.0094-2.29-0.082685-1.0623-0.24736-1.7452-0.35586-1.7317-0.38563-1.5405-1.3545-4.6677-0.47211-1.8811-0.99105-4.8926-0.31325-2.7693 0.050013-2.5488 0.42074-2.6265 0.39511-1.5683 0.47239-1.5511 0.71417-2.0425 1.7794-4.8659 0.43345-1.5224 0.31894-1.9338-0.033835-1.9537-0.1273-0.75102-0.25405-0.94224-0.52962-1.3654-0.68337-1.3387-1.1643-1.8115-1.3637-1.6987-0.9541-0.99741-1.6972-1.4576-1.5109-1.0368-1.6796-0.91699-3.4287-1.7168-1.564-1.0177-0.86396-0.74978-0.43148-0.4538-0.63253-0.8379-0.33626-0.58762-0.44477-1.1629-0.23803-1.2283-0.07188-1.1262 0.089538-2.1522 0.39616-2.1348 0.45871-1.2896 0.64506-1.1455 0.93556-1.0222 0.29958-0.23681 1.6712-0.8517 0.98775-0.20735 1.0103-0.015775 1.0716 0.19407 0.78084 0.26247 0.9582 0.44396 1.6689 0.96351 1.2403 0.8135 5.5179 3.9761 1.4966 1.1657 1.5749 1.4177 1.4792 1.5564 1.235 1.5048 2.8471 3.9621 1.1379 1.4953 1.217 1.401 1.3668 1.2994 1.1802 0.92294 1.2342 0.83604 3.4955 2.1198 1.2958 0.87205 1.4002 1.0719 3.229 2.8261 4.0635 3.797 2.4863 2.5002 1.5478 1.9351 1.3356 2.285 1.0847 2.4034 1.9235 4.6501 1.0898 1.9566 1.3567 1.474 1.7111 0.79914 1.2004 0.13545 2.0296-0.2843 1.5778-0.4928 5.4619-2.1622 2.9949-0.93859 2.0097-0.42454 2.0696-0.2543 2.6373-0.053696 2.6126 0.2273 2.8235 0.55994 2.5114 0.80521 1.4728 0.65968 1.1079 0.66484 0.54274 0.49458 0.1274 0.42986" stroke="#bdc660"/>
    </defs>
    <g clip-path="url(#pfcf29689f2)">
     <use y="220.306898" fill="#bdc660" stroke="#bdc660" xlink:href="#mf9aa72c71d"/>
    </g>
   </g>
  </g>
 </g>
 <defs>
  <clipPath id="pfcf29689f2">
   <rect x="7.2" y="7.2" width="357.12" height="205.91"/>
  </clipPath>
 </defs>
</svg>
