<?xml version="1.0" encoding="UTF-8"?>
<!DOCTYPE svg  PUBLIC '-//W3C//DTD SVG 1.1//EN'  'http://www.w3.org/Graphics/SVG/1.1/DTD/svg11.dtd'>
<svg width="253.61pt" height="280.51pt" version="1.1" viewBox="0 0 253.61 280.51" xmlns="http://www.w3.org/2000/svg" xmlns:xlink="http://www.w3.org/1999/xlink">
 <metadata>
  <rdf:RDF xmlns:cc="http://creativecommons.org/ns#" xmlns:dc="http://purl.org/dc/elements/1.1/" xmlns:rdf="http://www.w3.org/1999/02/22-rdf-syntax-ns#">
   <cc:Work>
    <dc:type rdf:resource="http://purl.org/dc/dcmitype/StillImage"/>
    <dc:date>2024-07-04T12:09:16.433864</dc:date>
    <dc:format>image/svg+xml</dc:format>
    <dc:creator>
     <cc:Agent>
      <dc:title>Matplotlib v3.7.1, https://matplotlib.org/</dc:title>
     </cc:Agent>
    </dc:creator>
   </cc:Work>
  </rdf:RDF>
 </metadata>
 <defs>
  <style type="text/css">*{stroke-linejoin: round; stroke-linecap: butt}</style>
 </defs>
 <g id="figure_1">
  <g id="patch_1">
   <path d="m0 280.51h253.61v-280.51h-253.61v280.51z" fill="none"/>
  </g>
  <g id="axes_1">
   <g id="PatchCollection_1">
    <defs>
     <path id="m94a49342ea" d="m150.94-249.74-0.078914 0.49678-0.30628 1.0471-0.10006 0.69946 0.04522 0.65933 0.21429 0.65985 0.16659 0.31172 0.4252 0.569 0.804 0.73249 3.9444 2.4351 1.2805 1.0122 1.5024 1.4064 2.7825 2.7683 1.3213 1.2232 0.7386 0.5837 1.1419 0.7887 2.2389 1.4585 0.97721 0.88484 0.83036 1.3075 0.18307 0.44358 0.48638 1.7598 0.14591 0.88496 0.040366 0.89006-0.055897 0.69393-0.2047 0.99182-0.87149 2.9232-0.1321 0.81622 0.027076 1.066 0.17607 0.84069 0.23909 0.6769 0.2626 0.5505 1.2113 1.9768 0.40632 0.91841 0.33092 1.1746 0.64185 3.7911 0.23358 0.84486 0.56986 1.569 0.54386 1.3028 0.63941 1.3158 0.80444 1.3657 1.7049 2.4796 0.86996 1.1025 0.82564 0.91635 1.6746 1.6345 4.7505 4.2538 2.4425 1.8631 1.1436 0.75029 1.3415 0.77455 1.3684 0.68716 4.1159 1.8539 1.7895 0.76315 2.0925 0.73318 1.788 0.40246 1.6005 0.13705 0.95838-0.011378 1.6553-0.14975 2.5923-0.47678 5.3733-1.438 1.7929-0.42222 1.7973-0.29547 2.4801-0.095587 0.47653 0.03209 2.4716 0.44293 2.2752 0.8001 1.4211 0.67602 1.3574 0.73365 4.45 2.6296 0.85759 0.42854 0.38659 0.12396-0.21941 1.0652 0.009911 0.2785 0.078878 0.13849 0.49274 0.25355 2.7783 0.95102-0.10835 0.021792-0.005152 0.41537-0.30338 0.75696-0.69797 1.2836-1.0417 1.4719-1.4711 1.5826-1.7805 1.5703-1.98 1.5468-5.6772 4.2251-1.6802 1.3943-1.2126 1.1256-1.5482 1.6776-1.109 1.4207-2.1629 2.9685-0.99363 1.2821-1.0543 1.2469-1.7638 1.8162-4.3413 3.8216-2.2767 2.1431-2.1204 2.2403-3.684 4.2957-1.1636 1.2512-1.588 1.2145-1.3043 0.62396-0.88275 0.3203-4.028 1.2113-1.5941 0.54422-1.5402 0.62936-1.3395 0.6935-1.4212 1.0013-1.2366 1.1864-1.2124 1.6462-0.43318 0.79294-1.3483 2.9673-0.78669 1.5395-1.6567 2.7117-1.3308 1.9342-6.5287 9.0343-2.1904 2.8722-2.4366 2.9835-1.8233 2.0544-0.64065 0.65095-0.92597 0.86555-3.9337 3.3309-2.0675 1.859-7.0585 6.6585-1.469 1.504-0.96439 1.2668-0.44202 0.8948-0.13898 0.4881-0.066664 0.61172 0.1021 0.71833 0.20241 0.4511 0.39257 0.4664 0.6716 0.39687 1.0731 0.19578 1.3901-0.053174 0.99205-0.12691 2.18-0.40092 1.6462-0.38055 3.9379-1.0702 3.6409-1.0878 4.0274-1.2776 2.282-0.82937 1.8276-0.73143 3.2662-1.4509 2.086-1.0153 6.8045-3.5204 2.0843-0.9751 2.1195-0.91314 2.6853-1.0264 1.6959-0.54168 1.3205-0.30333 1.9124-0.083203 0.98164 0.2655 1.0009 0.7409 0.81715 1.117 0.88401 1.7127 0.66363 1.623 0.77053 2.415 0.4509 2.3493 0.062208 0.92636-0.008364 1.2696-0.21145 2.0636-0.56997 1.99-0.88343 1.6104-1.2017 1.4631-1.2848 1.1998-0.93568 0.75819-1.3445 0.9962-6.2984 4.2855-2.9438 2.1675-3.3102 2.5438-4.5151 3.1056-1.7352 1.4022-1.9031 1.8881-0.93134 1.0578-2.8013 3.4153-2.1036 2.3662-0.70104 0.68821-2.2181 1.9695-0.60792 0.64383-0.26544 0.56412 0.1062 0.41247 0.20706 0.20714 0.81525 0.36556 1.706 0.33184 1.9715 0.20739 3.4383 0.20528 9.8674 0.23309 1.6433 0.12222 2.1106 0.25688 2.0284 0.40024 2.7286 0.82281 5.3766 1.8575 9.7819 3.7831 3.1456 1.0899 2.4091 0.9402 0.87062 0.40101 1.4344 0.73474 1.5893 0.92693 1.5445 1.0405 1.0196 0.78214 1.7571 1.5441 1.6442 1.6415 1.7863 1.9694 1.5689 2.022 1.1358 2.0935 0.54062 1.9503 0.13274 1.8641-0.19103 1.5448-0.24886 0.67903-0.33288 0.33813-11.552 0.325-12.757 0.27085-7.9414 0.3611-1.8615 0.033272-1.8025-0.074245-0.90932-0.10708-1.1456-0.21963-1.8419-0.50198-5.4745-1.8222-1.9608-0.59347-1.8474-0.48378-2.2553-0.43147-1.7078-0.20039-1.7298-0.10688-2.5546-0.015947-3.9961 0.17396-8.8188 0.60815-6.6621 0.34463-4.882 0.20274-7.4161 0.1951-12.36 0.70791-6.356 0.18184-3.1762 0.014989-2.4523-0.061739-5.1123-0.24258-8.3086-0.48898-2.0327-0.067605-3.0774 0.027773-1.7418 0.12405-2.6084 0.36816-1.4714 0.30694-1.6879 0.44255-1.9375 0.67226-0.69974 0.30547-0.95339 0.50054-0.43831 0.37833-3.7805-3.9108-2.0897-2.2685-3.2548-3.8121-2.1908-2.8517-1.2733-1.9284-1.0411-1.9893-0.36783-0.95566-0.32738-1.3579-0.053126-0.85059 0.13956-1.0151 0.33688-0.92236 0.74265-1.1812 0.69114-0.7851 1.2647-1.207 1.4359-1.1443 1.4904-0.86266 1.5899-0.6965 2.8103-1.1123 1.2838-0.6704 0.69222-0.45507 0.94332-0.83623 0.76651-1.0324 0.41488-0.86576 0.44924-1.4234 0.37004-1.7349 0.65646-4.3541 0.54814-4.8858 0.13747-1.6851 0.12542-2.8963-0.008217-2.0589-0.10984-2.3079-0.19885-2.2072-0.37444-2.8269-0.53428-2.7808-0.75855-2.6929-0.86001-2.1887-1.017-2.1036-1.8828-3.3003-1.5361-2.1939-0.92784-1.1342-1.2202-1.3421-1.7577-1.7593-6.3659-6.0627-1.7238-1.845-2.1234-2.549-2.5468-3.5502-3.915-6.2935-1.8341-2.7365-1.9153-2.5488-1.0486-1.2654-2.1281-2.3026-1.1169-1.0696-1.038-0.90456-0.71611-0.56716-1.1692-0.79074-0.43935-0.22781-0.59822-0.072494-2.6583-1.6594-1.6766-1.1469-1.8211-1.3534-1.6179-1.3221-1.6013-1.4442-1.6702-1.6765-2.4034-2.6744-2.3658-2.8189-1.5931-2.0073-1.9379-2.6135-1.3789-2.0528-1.2261-2.0535-0.89186-1.7251-0.74435-1.7206-0.52427-1.5367-0.37169-1.5286-0.13779-0.87161-0.097402-1.1099 0.001884-1.9774 0.33247-4.5842 0.04659-1.756-0.055231-1.6782-0.4015-5.3603-0.003993-1.3476 0.091756-1.4235 0.2587-1.7945 0.63584-2.6184 0.78581-2.3044 0.86713-2.0541 1.1261-2.238 0.81394-1.4025 0.88236-1.3592 1.022-1.3978 1.8565-2.1487 1.6065-1.5273 1.9812-1.537 1.5258-0.95291 2.2123-1.0966 1.4634-0.58245 2.6871-0.86111 5.8558-1.5374 1.4966-0.47793 1.2357-0.46939 1.4996-0.70109 0.97828-0.55932 0.95251-0.63188 2.9689-2.2567 1.5726-1.0587 1.5238-0.80039 1.603-0.55873 2.1084-0.27835 2.1557 0.14797 0.53757 0.096697 1.2296 0.29792 1.208 0.37793 4.9964 1.9232 1.5057 0.42353 1.0193 0.088342 0.86322-0.20673 0.84448-0.7543 0.63859-1.2068 0.50547-1.5293 1.0394-4.2729 0.59407-2.0621 0.7681-1.8683 1.032-1.5118 0.53571-0.48938 0.51579-0.34818 0.73025-0.32587 0.67303-0.16368 1.361-0.057098 1.0754 0.13093 1.1256 0.24686 1.3733 0.40362 1.4104 0.49319 6.9047 2.6503 2.7449 0.90176 4.0125 1.0882 1.353 0.18273 1.1622-0.1775 0.71489-0.47442 0.55396-0.75066 0.20394-0.44642 0.35265-1.2415 0.29384-2.0367 0.48986-5.5099 0.35223-2.5269 0.31366-1.5869 0.57152-2.1061 1.0024-2.4608 1.4263-2.5676 1.2512-1.8859 1.3465-1.7892 3.4567-4.1138 3.1347-4.0159 1.1794-1.3421 0.91053-0.84481 1.4681-1.1327 1.0369-0.68052 1.2538-0.72667 1.1654-0.60358 1.7068-0.78217 2.697-1.0111 2.5235-0.76391 1.9656-0.4933 1.3434-0.26036 1.4567-0.18653 0.79651-0.03837 0.082473 0.10032 0.75905 0.29925 1.1524 0.29828 1.29 0.21787 2.7849 0.29988 0.5522 0.11941 0.46142 0.18422 0.2126 0.14462 0.16884 0.17683 0.20821 0.51764 0.017274 0.68916-0.14786 0.93726-0.4621 1.5622-0.45229 1.1237-0.61393 1.2473-0.6335 1.064-0.6244 0.87088-1.3263 1.5325-0.47262 0.6482-0.16489 0.45202 0.014723 0.14799 0.11781 0.18337 0.51218 0.25206 0.44358 0.086806 1.5685 0.082509 1.0342-0.060066 1.5304-0.34565 3.2457-1.1295 0.96299-0.2373 0.14638 0.012731" stroke="#bdc660"/>
    </defs>
    <g clip-path="url(#p0c52447880)">
     <use y="280.512" fill="#bdc660" stroke="#bdc660" xlink:href="#m94a49342ea"/>
    </g>
   </g>
  </g>
 </g>
 <defs>
  <clipPath id="p0c52447880">
   <rect x="7.2" y="7.2" width="239.21" height="266.11"/>
  </clipPath>
 </defs>
</svg>
