<?xml version="1.0" encoding="UTF-8"?>
<!DOCTYPE svg  PUBLIC '-//W3C//DTD SVG 1.1//EN'  'http://www.w3.org/Graphics/SVG/1.1/DTD/svg11.dtd'>
<svg width="222.76pt" height="280.51pt" version="1.1" viewBox="0 0 222.76 280.51" xmlns="http://www.w3.org/2000/svg" xmlns:xlink="http://www.w3.org/1999/xlink">
 <metadata>
  <rdf:RDF xmlns:cc="http://creativecommons.org/ns#" xmlns:dc="http://purl.org/dc/elements/1.1/" xmlns:rdf="http://www.w3.org/1999/02/22-rdf-syntax-ns#">
   <cc:Work>
    <dc:type rdf:resource="http://purl.org/dc/dcmitype/StillImage"/>
    <dc:date>2024-07-04T12:09:17.529709</dc:date>
    <dc:format>image/svg+xml</dc:format>
    <dc:creator>
     <cc:Agent>
      <dc:title>Matplotlib v3.7.1, https://matplotlib.org/</dc:title>
     </cc:Agent>
    </dc:creator>
   </cc:Work>
  </rdf:RDF>
 </metadata>
 <defs>
  <style type="text/css">*{stroke-linejoin: round; stroke-linecap: butt}</style>
 </defs>
 <g id="figure_1">
  <g id="patch_1">
   <path d="m0 280.51h222.76v-280.51h-222.76v280.51z" fill="none"/>
  </g>
  <g id="axes_1">
   <g id="PatchCollection_1">
    <defs>
     <path id="m106d0a5a8e" d="m158.28-65.3 0.051831 2.2203 0.20527 1.2445 0.35551 1.024 0.24194 0.47201 0.90821 1.2156 1.1169 1.1267 1.3203 1.0138 1.5672 0.86192 3.601 1.6677 0.90075 0.54743 0.66599 0.58018 0.32019 0.38359 0.53096 0.86148 0.40511 0.95063 0.26472 1.0177 0.070139 0.59572-0.01361 1.2352-0.19954 1.259-0.34412 1.2656-1.2034 3.3806 0.16319 0.56284-0.12568 1.0004-0.40639 1.2085-0.79554 1.3729-1.1287 1.2418-0.75301 0.58909-1.7001 1.009-5.1463 2.4693-6.049 3.0817-1.342 0.76878-1.2749 0.86903-0.98523 0.80248-0.90195 0.8733-0.79103 0.91647-0.70577 0.95374-2.1395 3.2301-0.77413 0.80448-0.50451 0.36904-1.0157 0.49122-1.1296 0.30469-1.205 0.14727-1.1279 0.013936-1.136-0.091977-1.1192-0.19649-0.94923-0.26409-0.89836-0.36651-0.83974-0.48617-0.9901-0.82201-0.39807-0.43098-0.47344-0.60281-0.62024-1.0046-0.53265-1.108-0.42722-1.072-0.7296-2.1457-1.7013-5.7621-0.54568-1.4227-0.74488-1.3689-0.47568-0.56319-0.50237-0.30675-0.45736-0.021134-0.46325 0.18874-0.60075 0.5341-0.56518 0.78178-1.5417 2.8748-0.57426 0.88599-0.90297 0.96566-0.4827 0.34319-0.76394 0.38374-0.8819 0.29177-0.88268 0.1751-1.0242 0.05759-0.70459-0.15032-0.12728-0.11442-3.2484-1.1119-0.57611-0.29645-0.092224-0.16192-0.011588-0.32562 0.25654-1.2454-0.452-0.14493-1.0027-0.50105-5.203-3.0745-1.5871-0.85778-1.6615-0.7904-2.6602-0.93547-2.8898-0.51787-0.55715-0.037519-2.8998 0.11176-2.1014 0.34547-2.0962 0.49366-6.2824 1.6813-3.0309 0.55745-1.9354 0.17509-1.1205 0.013303-1.8713-0.16024-2.0905-0.47056-2.4465-0.85723-2.0922-0.89227-4.8123-2.1676-1.5999-0.80342-1.5685-0.9056-1.3371-0.87724-2.8558-2.1783-5.5543-4.9735-1.958-1.9111-0.96533-1.0714-1.0172-1.289-1.9934-2.8992-0.94055-1.5967-0.74759-1.5384-0.63588-1.5232-0.66628-1.8345-0.2731-0.9878-0.75044-4.4325-0.38691-1.3734-0.47506-1.0738-1.4163-2.3113-0.30704-0.64364-0.27955-0.79143-0.20586-0.98293-0.031657-1.2464 0.15445-0.95433 1.0189-3.4178 0.23934-1.1596 0.065354-0.81134-0.047196-1.0407-0.1706-1.0347-0.56867-2.0575-0.21405-0.51863-0.97085-1.5287-1.1425-1.0345-2.6177-1.7052-1.3352-0.92215-0.86357-0.68246-1.5448-1.4301-3.2533-3.2367-1.7566-1.6443-1.4971-1.1834-4.6118-2.8471-0.94003-0.85643-0.49714-0.66527-0.19478-0.36446-0.25054-0.7715-0.052871-0.77088 0.11699-0.81781 0.3581-1.2243 0.092266-0.58084 4.1468-0.99037 3.6839-1.2145 11.072-4.5766 11.08-5.109 3.6742-1.3983 1.932-0.59647 1.8665-0.47025 1.8545-0.36477 2.932-0.37482 2.791-0.1458 1.4072 0.030984 2.5058 0.28579 1.6091 0.31527 8.3049 2.1752 2.1952 0.33012 1.2609 0.03217 1.2014-0.12144 1.7525-0.45568 1.5598-0.72731 1.0947-0.76634 0.89137-0.88543 0.66737-0.9988 0.3842-1.0504 0.040449-1.7-0.31787-1.8122-0.26718-2.0208 0.089436-2.2063 0.40981-2.3882 0.7867-3.4934 0.34857-2.0529 0.11074-1.3222-0.024484-1.7521-0.18601-1.79-0.47866-2.6768-0.95216-4.4767-0.34092-2.2167-0.10248-2.5097 0.27724-2.2997 0.53036-2.2855 1.2244-4.6637 0.56433-3.2662 0.74911-5.5264 0.38128-1.7338 0.55395-1.845 0.50245-1.2958 0.86-1.7336 1.429-1.9002 1.4637-1.1193 1.791-0.66757 1.5068-0.19677 1.5978 0.038088 2.5449 0.41251 2.6947 0.73488 2.0792 0.69999 2.4182 0.93416 2.3264 1.0157 2.3403 1.1137 3.1936 1.6332 3.4368 1.9121 7.387 4.5321 2.7108 1.5762 3.8882 2.0495 1.7568 0.78136 1.6562 0.62899 1.6397 0.48969 1.2301 0.21742 1.3027-0.044198 1.0126-0.37754 0.63048-0.69188 0.14668-1.2244-0.31043-1.1303-1.0499-1.9867-1.9431-2.8604-9.8773-13.574-3.7459-5.3599-2.1682-3.3267-1.4261-2.3551-1.3253-2.4087-1.0761-2.2202-1.4306-3.5267-1.1595-3.5562-0.91124-3.4906-0.63404-2.9691-0.33546-1.8051-0.91372-5.9882 5.7066-8.218 3.0069-4.1441 2.0302-2.6214 2.1769-2.4311 2.8996-2.866 2.5368-2.2203 11.309-8.7701 0.34608 0.067429 0.71347 0.43504 1.3395 1.0062 1.6422 1.3996 1.8107 1.7142 2.0029 2.0955 6.8153 7.7465 4.5752 4.9795 2.1453 2.1884 7.191 7.0031 7.1269 7.0645 5.5578 5.6627 2.6695 2.8276 2.3035 2.5413 2.196 2.5537 2.0581 2.5721 2.0371 2.819 1.7918 2.8347 1.2592 2.3852 1.0362 2.7829 0.49464 2.6483 0.13879 2.7544-0.093602 2.3929-0.244 2.4352-0.43605 2.9214-1.8019 9.6045-0.57425 3.6708-0.36013 3.6186-0.085058 2.7141 0.016212 1.5974 0.16436 2.4129 0.35606 2.3655 0.69475 2.7706 0.91279 2.6359 1.0466 2.4682 1.1008 2.2563 2.3541 4.3404 0.38316 1.496-0.078652 0.53636-0.36854 0.70225-0.68929 0.7074-1.3348 0.9119-1.4179 0.74264-3.0886 1.3523-8.1789 3.2531-5.0997 2.1679-2.0175 1.0042-1.8238 1.1323-1.6045 1.3382-1.32 1.476-1.017 1.5493-0.68051 1.4686-0.9702 2.7111-0.54869 1.1676-0.59412 0.84421-0.7201 0.72182-1.5484 0.92744-1.1249 0.32092-2.6582 0.44801-1.1165 0.31303-1.598 0.72165-1.6481 1.0503-1.6475 1.3471-1.5263 1.5348-1.4481 1.7137-2.593 3.5729-2.3704 3.6804-1.5505 2.6845-0.66935 1.3287-0.76956 1.787-0.68328 1.9539-0.8007 3.3479-0.33769 2.3955-0.14646 2.4326 0.10434 3.0121 0.22249 1.9306 0.47562 2.4903 0.4875 1.8517 1.2356 3.5466 1.0695 2.4651 0.72064 1.4179 1.3058 2.2107 2.3485 3.4627 0.11859 0.29586-0.10839 0.10244" stroke="#bdc660"/>
    </defs>
    <g clip-path="url(#p1658ef5787)">
     <use y="280.512" fill="#bdc660" stroke="#bdc660" xlink:href="#m106d0a5a8e"/>
    </g>
   </g>
  </g>
 </g>
 <defs>
  <clipPath id="p1658ef5787">
   <rect x="7.2" y="7.2" width="208.36" height="266.11"/>
  </clipPath>
 </defs>
</svg>
