<?xml version="1.0" encoding="UTF-8"?>
<!DOCTYPE svg  PUBLIC '-//W3C//DTD SVG 1.1//EN'  'http://www.w3.org/Graphics/SVG/1.1/DTD/svg11.dtd'>
<svg width="272pt" height="280.51pt" version="1.1" viewBox="0 0 272 280.51" xmlns="http://www.w3.org/2000/svg" xmlns:xlink="http://www.w3.org/1999/xlink">
 <metadata>
  <rdf:RDF xmlns:cc="http://creativecommons.org/ns#" xmlns:dc="http://purl.org/dc/elements/1.1/" xmlns:rdf="http://www.w3.org/1999/02/22-rdf-syntax-ns#">
   <cc:Work>
    <dc:type rdf:resource="http://purl.org/dc/dcmitype/StillImage"/>
    <dc:date>2024-07-04T12:09:34.499748</dc:date>
    <dc:format>image/svg+xml</dc:format>
    <dc:creator>
     <cc:Agent>
      <dc:title>Matplotlib v3.7.1, https://matplotlib.org/</dc:title>
     </cc:Agent>
    </dc:creator>
   </cc:Work>
  </rdf:RDF>
 </metadata>
 <defs>
  <style type="text/css">*{stroke-linejoin: round; stroke-linecap: butt}</style>
 </defs>
 <g id="figure_1">
  <g id="patch_1">
   <path d="m0 280.51h272v-280.51h-272v280.51z" fill="none"/>
  </g>
  <g id="axes_1">
   <g id="PatchCollection_1">
    <defs>
     <path id="m185508c63e" d="m248.23-181.82-0.070429 1.3628-0.036275 3.436 0.027454 1.8548 0.10712 1.5267 0.22692 1.4674 0.69872 2.7352 0.20174 1.0074 0.21848 1.6622 0.055792 0.93222-0.015987 1.61-0.098314 1.6357-0.38445 4.1157-0.16532 2.7232 0.005594 1.715 0.097075 1.7212 0.36104 3.1002 0.16967 0.91949 0.23702 0.83286 0.3128 0.67029 0.34554 0.4444 0.36469 0.31152 0.92136 0.59264 0.44257 0.5068 0.27638 0.55405 0.35691 1.3196 0.19074 1.8388 0.011023 0.85548-0.043935 7.021-0.18778 3.0304-0.46037 3.7175-0.71938 3.8645-0.6887 2.701-0.44434 1.4179-0.79195 2.0836-0.60194 1.3125-0.75244 1.4295-0.88003 1.4765-0.94209 1.4321-1.92 2.6294-1.8291 2.2718-1.3246 1.5316-0.986 0.39905-1.8354 0.86283-2.1658 1.1382-1.4817 0.85393-2.2404 1.3911-2.1943 1.4599-3.0614 2.1859-1.6803 1.2837-1.5083 1.2261-1.7629 1.563-1.5662 1.5742-1.4914 1.7894-0.70445 1.0409-0.51938 0.95084-0.35512 0.86534-0.22771 0.8684-0.077172 0.75557 0.17719 1.3113 0.51461 1.1933 0.74961 1.0767 0.81576 0.95066 4.0232 4.0738 1.2751 1.5538 0.60145 1.0746 0.52566 1.3625 0.52023 2.0444 0.10328 0.76112 0.043854 0.88822-0.1297 1.6072-0.32674 1.6489-0.94209 3.5167-0.45273 1.9193-0.25984 1.9308 0.007931 1.7827 0.17954 1.7834 1.0932 7.0553 0.080008 1.7768-0.30392 2.0486-0.21802 0.7888-0.8738 2.5578-0.46995 1.0823-0.60388 1.0508-0.70946 0.97762-1.4518 1.6023-1.3127 1.179-0.69654 0.49577-0.69009 0.37407-0.55643 0.20419-0.83851 0.15834-1.832 0.10745-1.0696 0.15855-1.3635 0.38185-3.1824 1.0431-5.6705 1.4298-2.0925 0.73886-1.3713 0.68001-1.7361 1.1336-3.5517 2.6174-2.3725 1.5311-4.1706 2.3724-1.1912 0.6082-0.69335 0.27256-0.3054 0.039051-0.621-0.11926-1.4525-0.53528-2.0121-0.98378-2.8711-1.5826-1.8287-0.85246-0.9421-0.28134-1.8972-0.23516-3.9726-0.026777-1.9349-0.27121-1.8751-0.72235-1.2569-0.72017-1.1895-0.80497-2.0234-1.5069-1.0394-0.93838-0.55485-0.6092-1.1315-1.5726-1.085-1.8595-2.7338-5.1757-0.87868-1.5101-0.93486-1.4223-0.63102-0.8342-1.3112-1.3991-1.4967-1.199-1.5142-0.91326-2.2238-1.0983-2.1391-0.98199-2.19-0.90179-2.6063-0.87346-2.6632-0.62235-8.1611-1.3095-4.8138-0.51267-1.4507-0.020397-1.2924 0.1047-2.162 0.37221-2.0776 0.55154-2.1197 0.67103-4.082 1.3965-7.0488 2.6301-1.7324 0.60892-2.8247 0.8854-2.283 0.55559-1.2905 0.24332-2.2351 0.30053-2.9452 0.13589-1.8625-0.091069-3.0462-0.48486-3.008-0.83444-7.8655-2.9174-1.4547-0.4609-13.493-3.7571-0.42379-0.44268-0.66515-0.92128-0.34014-0.57261-0.54032-2.3898-0.16622-1.2416-0.052942-3.6494-0.073245-0.56861-0.29648-1.0309-0.36234-0.56898-0.47593-0.44386-0.55487-0.29967-0.60447-0.12979-0.61705 0.050985-2.6769 0.87892-0.77038 0.2207-0.76796 0.1441-0.76654-0.022732-0.63858-0.20089-0.63643-0.34768-0.63221-0.46307-0.62583-0.55283-1.2988-1.3706-1.9702-2.3312-1.4-1.5141-0.7113-0.60841-0.71915-0.44885-0.7258-0.23131-0.6556 0.017179-0.65812 0.19183-1.3151 0.71068-1.1519 0.87191-0.62447 0.59994-1.762 1.9482-1.3629 1.2227-0.74417 0.53219-0.77448 0.44745-2.3199 0.99663-0.75096 0.41118-1.3513 0.92634-0.69689 0.61939-0.37511-0.23387-0.62417-0.7198-1.0071-1.5976-1.3959-2.4644-0.55551-1.1856-0.41566-1.2304-0.22054-1.2455-0.067365-1.2792 0.038315-1.2949 0.52274-5.6711 0.31421-2.4137 0.091371-1.1508-0.048883-1.1052-0.24546-1.0876-0.76191-2.0901-0.31942-1.042-0.14667-1.0655 0.12003-1.2126 0.34527-1.2516 1.4588-3.891 0.33708-1.3188 0.10566-1.3205-0.20376-1.3298-0.45094-1.326-0.56557-1.2353-1.9252-3.826-1.5911-4.1209-0.2522-0.8674-0.20738-1.1472-0.020426-0.74479 0.23771-1.3493 0.49818-1.3554 1.3738-2.9654 0.41905-1.0769 0.31481-1.1011 0.20761-1.2999 0.20663-2.5968 0.1773-1.2338 0.28471-1.066 0.35652-0.9021 0.35701-0.64499 0.28231-0.25868 0.46912 0.16422 1.0908-0.4758 1.415-0.99076 3.494-2.7711 8.3809-5.6994 2.5276-1.5208 3.4908-1.8313 1.9099-0.91719 3.7307-1.6486 2.3342-1.2345 3.8745-2.4079 1.945-1.3089 1.4372-1.1183 1.3561-1.207 1.3769-1.3937 1.4584-1.769 1.2153-1.8524 0.92108-1.8784 0.55126-1.7177 0.1991-1.3128-0.090116-1.6827-0.36421-1.6039-0.56476-1.6073-0.70086-1.2984-1.1275-1.6481-0.85054-1.4028-0.69224-1.5847-0.37167-1.4244-0.242-1.5143-0.48494-3.9372-0.48142-3.2596-0.10908-1.3256 0.010397-1.3525 0.095336-0.91607 0.17686-0.97737 0.24992-0.98601 0.68748-1.9605 0.55536-1.2457 0.80333-1.5374 0.96754-1.5989 0.7208-1.07 1.7938-2.3495 1.9164-2.1552 1.5883-1.5904 1.9-1.7506 8.0765-6.8664 4.1899-3.786 4.2326-4.1842 4.0643-4.4052 2.0936-2.4559 1.8241-2.2973 1.7684-2.4475 0.87615-1.3401 1.3097-2.2703 0.51403-1.048 0.3461-0.90284-0.018125-0.2838 2.7538-3.2502 3.1645-3.6111 2.7497-3.0149 3.6244-3.7696 3.7462-3.6031 2.2667-2.0034 2.2688-1.8462 1.7193-1.2759 1.7136-1.1496 2.7989-1.5642 2.0546-0.84483 2.1648-0.54195 1.4476-0.12075 0.93755 0.041172 1.2213 0.19038 1.3851 0.38404 0.68635 0.2503 1.4531 0.65292 0.93804 0.50722 1.484 0.93396 2.0828 1.5452 1.1601 0.9589 2.9546 2.6651 2.5365 2.438 6.0149 5.9821 2.768 2.5773 2.3446 1.9395 1.7322 1.2548 2.7292 1.6758 1.5271 0.81402 3.8442 1.7774 3.2461 1.3413 3.9179 1.5262 5.0761 1.8671 12.793 4.4854 2.0411 0.59476 1.9234 0.44714 6.9803 1.3669 2.998 0.80742 3.0291 1.004 3.0274 1.1622 2.9886 1.2949 2.905 1.4141 2.7641 1.5318 2.5483 1.6605 2.2331 1.8138 1.593 1.7463 1.0644 1.7816 0.29094 0.76108 0.48561 2.6356-0.003733 2.5955-0.13481 1.5743-1.2858 8.9732-0.2483 2.6674-0.055496 2.0541 0.15339 2.1203 0.44606 1.8453 0.6499 1.2756 0.6661 0.75322 0.84974 0.58704 1.0464 0.43275 1.655 0.33601 2.1718 0.080636 2.373-0.1907 2.6706-0.45638 1.9869-0.49095 1.0299-0.32139 0.61721-0.27077" stroke="#bdc660"/>
    </defs>
    <g clip-path="url(#pccf64fb29f)">
     <use y="280.512" fill="#bdc660" stroke="#bdc660" xlink:href="#m185508c63e"/>
    </g>
   </g>
  </g>
 </g>
 <defs>
  <clipPath id="pccf64fb29f">
   <rect x="7.2" y="7.2" width="257.6" height="266.11"/>
  </clipPath>
 </defs>
</svg>
