<?xml version="1.0" encoding="UTF-8"?>
<!DOCTYPE svg  PUBLIC '-//W3C//DTD SVG 1.1//EN'  'http://www.w3.org/Graphics/SVG/1.1/DTD/svg11.dtd'>
<svg width="278.78pt" height="280.51pt" version="1.1" viewBox="0 0 278.78 280.51" xmlns="http://www.w3.org/2000/svg" xmlns:xlink="http://www.w3.org/1999/xlink">
 <metadata>
  <rdf:RDF xmlns:cc="http://creativecommons.org/ns#" xmlns:dc="http://purl.org/dc/elements/1.1/" xmlns:rdf="http://www.w3.org/1999/02/22-rdf-syntax-ns#">
   <cc:Work>
    <dc:type rdf:resource="http://purl.org/dc/dcmitype/StillImage"/>
    <dc:date>2024-07-04T12:09:13.414587</dc:date>
    <dc:format>image/svg+xml</dc:format>
    <dc:creator>
     <cc:Agent>
      <dc:title>Matplotlib v3.7.1, https://matplotlib.org/</dc:title>
     </cc:Agent>
    </dc:creator>
   </cc:Work>
  </rdf:RDF>
 </metadata>
 <defs>
  <style type="text/css">*{stroke-linejoin: round; stroke-linecap: butt}</style>
 </defs>
 <g id="figure_1">
  <g id="patch_1">
   <path d="m0 280.51h278.78v-280.51h-278.78v280.51z" fill="none"/>
  </g>
  <g id="axes_1">
   <g id="PatchCollection_1">
    <defs>
     <path id="m60e2c25150" d="m259.51-248.64 0.057473 0.82351-0.27887 1.8825-0.58189 2.4741-0.64622 2.1443-0.88517 2.7113-1.0194 2.8172-1.2047 2.8171-1.1418 2.2187-1.2661 2.1501-0.95145 1.4763-1.439 2.0452-1.4951 1.9404-2.0869 2.4704-1.7376 1.878-1.698 1.6815-3.3829 3.1883-0.91654 0.97027-0.72576 0.89364-1.0697 1.7198-0.87853 1.9313-0.68935 2.0604-0.4895 2.1156-0.27846 2.7737 0.16368 2.485 0.17653 0.9824 0.29676 1.2699 0.36712 1.2479 2.0979 5.7959 0.35262 1.2431 0.27624 1.2785 0.20746 1.3998 0.1561 2.4944-0.23612 2.4812-0.22168 0.90626-0.57894 1.6263-0.81595 1.7173-0.8678 1.5579-2.8784 4.7071-1.3804 2.5266-0.45168 1.0206-0.41221 1.2336-0.20733 1.113 0.013755 1.5561 0.30812 1.5362 0.50156 1.4896 1.4146 3.6329 0.45486 1.334 0.35975 1.3108 0.26579 1.3434 0.17308 1.573 0.048697 2.3132-0.15445 4.643 0.24807 5.3725-0.011042 0.73019-0.13623 1.9484-0.60546 5.1852-0.073521 1.8541 0.0637 1.3329 0.45029 4.1954 0.097108 1.2679 0.03245 1.391-0.058355 1.1154-0.22285 1.4197-0.62934 1.9539-0.92277 1.8861-1.1221 1.8243-2.9899 4.3822-1.8408 2.9806-4.5686 8.4911-1.3796 2.215-0.84554 1.0981-1.512 1.6529-1.7054 1.3509-1.7008 0.86137-1.8189 0.63957-7.2665 2.1759-0.80228 0.39854-0.26364 0.32377 0.070287 0.3326 0.14491 0.68815-0.14643 1.3082-0.42884 1.6549-0.73213 1.7887-1.1598 1.9737-2.2258 3.2707-1.2414 2.1059-1.1586 2.2747-1.193 2.6331-2.2925 5.4197-1.1983 2.6762-1.3063 2.5885-1.4787 2.4514-1.3573 1.8468-1.4931 1.7305-1.5454 1.5621-1.6279 1.4752-1.6488 1.37-3.509 2.6372-1.6092 1.1067-3.434 2.2187-13.719 8.3917-1.1315 0.62108-1.1002 0.46319-1.0438 0.33185-1.4639 0.32759-1.1552 0.16647-2.9209 0.25057-0.89649 0.13113-0.87974 0.21497-1.1414 0.4201-0.71439 0.35162-0.72891 0.44091-1.1247 0.88457-0.63174 0.61756-2.2863 2.5046-0.75432 0.66522-0.76577 0.53127-1.4504 0.78448-2.4979 1.1547-2.0667 0.84101-1.8672 0.6057-1.893 0.39263-1.5926 0.088751-1.5513-0.2058-1.1395-0.38602-1.0851-0.55993-1.4054-1.009-0.78072-0.71184-0.74795-0.80635-0.90017-1.2335-0.44987-0.84149-0.28485-0.70339-0.078927-0.59529 0.17488-0.059726 0.1335-0.16902 0.13808-0.36456 0.12096-0.73782 0.044439-1.1062-0.051972-1.7639-0.15155-1.9398-0.29578-2.0824-0.54252-2.3621-2.9771-9.6525-0.97251-3.8418-0.32243-1.6309-0.26609-1.7336-0.22852-2.3614-0.032388-1.2929 0.12803-1.5685 0.36841-1.5353 0.52058-1.2459 0.79185-1.3917 0.96848-1.4066 1.0144-1.3262 3.2778-4.0712 1.451-1.9754 1.0039-1.5869 0.89266-1.7893 0.44293-1.2777 0.25161-1.3011 0.039754-1.2206-0.40561-2.5594-0.59999-1.8423-0.32043-0.79489-0.64435-1.4122-0.69035-1.3376-4.0785-6.9724-1.3008-2.6464-0.60715-1.5761-0.45749-1.6116-0.15895-0.79582-0.19457-1.4869-0.087875-1.4882 0.017636-2.4543 0.42771-8.0032-0.034732-2.5359-0.26751-2.2106-0.61253-1.9842-0.63466-1.1416-1.085-1.3354-0.89601-0.83429-1.3315-0.97608-1.2692-0.71197-1.3281-0.5449-1.1233-0.2945-1.4149-0.13944-2.0961 0.25818-2.1389 0.68304-2.151 0.96085-9.4387 5.0585-2.5188 1.5519-4.4018 2.9881-1.4554 0.91378-1.3307 0.73452-1.7619 0.79852-5.8663 2.4862-7.2337 2.7785-1.7888 0.6659-2.0797 0.68898-2.0598 0.53458-5.2534 0.87822-1.4157 0.35142-6.5266 2.126-1.9966 0.54973-2.3223 0.46628-6.3691 0.98563-6.714 1.2253-1.5145 0.17938-1.3306 0.053472-1.001-0.072492-1.5519-0.46835-0.74624-0.49-0.84386-0.8347-0.82938-1.1375-0.54647-0.92527-0.89469-1.8191-0.6231-1.5065-0.58954-1.6514-0.78194-2.6831-0.78791-3.508-0.25451-1.5995-0.12113-1.4586 0.052037-1.5744 0.38192-1.7782 0.70513-1.7898 2.0515-4.3437 1.7874-3.1662 3.5587-5.6211 1.0733-1.8427 1.3043-2.4777 1.2691-2.6861 1.0057-2.4182 1.022-2.8664 0.76757-2.5881 0.41494-1.7286 0.33719-1.7162 1.3155-8.3696 0.93584-5.0699 0.25941-1.6943 0.41843-3.7167 0.063607-1.5598-0.062648-2.0356-0.21093-1.2116-0.18113-0.28782 0.68103-0.26772 1.1701-0.59739 4.0965-2.3302 2.3304-1.5039 3.4886-2.5709 1.7052-1.1134 1.3469-0.66792 2.0553-0.72573 5.5697-1.4043 3.1258-1.0246 1.3393-0.37506 1.0506-0.15573 1.7995-0.10554 0.82361-0.15553 0.54654-0.20056 0.67782-0.36742 0.68416-0.48696 1.2893-1.1581 1.426-1.5738 0.69685-0.96025 0.59315-1.0321 0.4616-1.063 0.85827-2.5124 0.21414-0.77478 0.29852-2.0122-0.078586-1.7452-1.0737-6.9299-0.17635-1.7517-0.00779-1.751 0.25522-1.8965 0.44468-1.8852 0.92535-3.4542 0.32093-1.6196 0.1274-1.5786-0.043074-0.87243-0.10145-0.7476-0.51098-2.0081-0.51632-1.3383-0.59076-1.0555-1.2524-1.5262-3.9517-4.0014-0.80126-0.93377-0.73629-1.0576-0.50547-1.172-0.17404-1.288 0.0758-0.74214 0.22367-0.85296 0.34881-0.84996 0.51015-0.93394 0.69193-1.0224 1.4649-1.7576 1.5383-1.5462 1.7316-1.5352 1.4814-1.2043 1.6505-1.2609 3.007-2.1471 2.1553-1.434 2.2006-1.3664 1.4554-0.83875 2.1274-1.118 1.8027-0.8475 0.96848-0.39196 11.798 6.7312 3.2046 1.9128 3.1957 2.0042 2.0901 1.3655 3.7989 2.6313 2.6986 2.0439 2.5633 2.0972 2.4204 2.1297 2.2644 2.1459 2.0878 2.1488 1.8818 2.1402 1.636 2.1201 1.3384 2.0872 1.7292 3.4329 0.7731 1.3254 0.83009 1.1115 0.97052 1.0565 1.2175 1.0973 1.0874 0.82785 1.0775 0.70847 1.6898 0.919 1.8761 0.79562 1.3506 0.45381 1.6037 0.41079 1.4053 0.2568 2.4819 0.27237 1.9176 0.037228 2.3498-0.12961 11.768-1.3435 6.9093-0.46712 2.3541-0.23352 3.2321-0.50938 2.3147-0.4925 2.3494-0.59806 2.0264-0.63445 1.9095-0.69862 2.8742-1.1768 3.9211-1.7415 3.1228-1.5106 5.4504-2.8965 3.022-1.5265 4.8599-2.3817 3.4635-1.5866 5.6652-2.2759 11.212-4.2633 4.5403-1.6286 4.6272-1.5422 2.2783-0.68698 3.2858-0.86878 3.2499-0.73652 3.1286-0.61478 5.3379-0.86405 2.4656-0.28023" stroke="#bdc660"/>
    </defs>
    <g clip-path="url(#p30a428e397)">
     <use y="280.512" fill="#bdc660" stroke="#bdc660" xlink:href="#m60e2c25150"/>
    </g>
   </g>
  </g>
 </g>
 <defs>
  <clipPath id="p30a428e397">
   <rect x="7.2" y="7.2" width="264.38" height="266.11"/>
  </clipPath>
 </defs>
</svg>
