<?xml version="1.0" encoding="UTF-8"?>
<!DOCTYPE svg  PUBLIC '-//W3C//DTD SVG 1.1//EN'  'http://www.w3.org/Graphics/SVG/1.1/DTD/svg11.dtd'>
<svg width="328.7pt" height="280.51pt" version="1.1" viewBox="0 0 328.7 280.51" xmlns="http://www.w3.org/2000/svg" xmlns:xlink="http://www.w3.org/1999/xlink">
 <metadata>
  <rdf:RDF xmlns:cc="http://creativecommons.org/ns#" xmlns:dc="http://purl.org/dc/elements/1.1/" xmlns:rdf="http://www.w3.org/1999/02/22-rdf-syntax-ns#">
   <cc:Work>
    <dc:type rdf:resource="http://purl.org/dc/dcmitype/StillImage"/>
    <dc:date>2024-07-04T12:09:20.560632</dc:date>
    <dc:format>image/svg+xml</dc:format>
    <dc:creator>
     <cc:Agent>
      <dc:title>Matplotlib v3.7.1, https://matplotlib.org/</dc:title>
     </cc:Agent>
    </dc:creator>
   </cc:Work>
  </rdf:RDF>
 </metadata>
 <defs>
  <style type="text/css">*{stroke-linejoin: round; stroke-linecap: butt}</style>
 </defs>
 <g id="figure_1">
  <g id="patch_1">
   <path d="m0 280.51h328.7v-280.51h-328.7v280.51z" fill="none"/>
  </g>
  <g id="axes_1">
   <g id="PatchCollection_1">
    <defs>
     <path id="mfe54f1eaaa" d="m299.58-191.16 0.39212 0.52953 0.95857 1.5349 1.2276 2.1795 0.96895 1.9083 0.94004 2.0677 0.89264 2.2611 0.7722 2.334 0.62261 2.3729 0.49803 2.7 0.28372 2.6807 0.078016 1.884-0.010984 1.4666-0.17297 2.2742-0.34656 2.2195-0.40076 1.798-0.48203 1.7497-0.80627 2.4938-1.8773 5.5378-0.83721 2.1456-0.89928 1.8331-0.93691 1.6844-1.4922 2.2166-1.7227 2.0824-1.9144 1.889-2.086 1.6161-2.2538 1.238-0.77461 0.30256-2.385 0.6034-2.354 0.16209-0.91911-0.051636-1.1275-0.15819-1.6695-0.44586-1.6389-0.65794-1.6058-0.82274-1.749-1.0605-1.7073-1.1561-3.5546-2.57-1.8538-1.2646-1.8382-1.0571-1.8385-0.74059-1.8768-0.35633-1.8591-0.084067-3.5197-0.02509-1.078-0.14785-0.81349-0.21765-1.1651-0.49993-1.1684-0.69581-1.4641-1.0908-1.4601-1.2686-1.1577-1.0983-1.5952-1.6271-2.5253-2.7336-3.0229-3.6006-0.64356-0.70185-0.97919-0.90301-0.55543-0.41617-1.1357-0.64845-1.1189-0.4042-0.38298-0.084412-0.73194-0.060887-0.40909 0.041987-0.57366 0.17089-0.22804 0.1109-1.042 0.90755-0.65653 0.9739-0.58261 1.1819-0.40508 1.0234-0.4557 1.3862-0.47527 1.846-0.47554 2.5562-0.3571 2.8344-0.14028 1.548-0.39246 6.0612-0.3303 2.1024-0.62968 1.9387-1.2051 1.9708-1.6226 1.7987-1.2257 1.134-2.3465 1.9042-1.5599 1.1269-3.402 2.3093-1.7304 1.2586-1.8844 1.674-0.82441 0.95575-0.99785 1.564-0.73652 1.7214-0.47056 1.8313-0.19259 1.7266 0.028663 1.7279 0.3732 2.2904 0.65603 2.0272 0.39243 0.88318 0.32128 0.59197 0.37874 0.56035 0.3221 0.35613 0.22518 0.15937-0.11714 0.059118-0.4439 0.047317-1.8456 0.039112-2.3386-0.14392-2.0771-0.20433-4.8823-0.69397-4.9774-0.95519-3.4591-0.83995-3.7059-1.0689-2.568-0.84298-6.0143-2.1269-3.884-1.3092-1.5237-0.4096-1.5714-0.27894-0.74259-0.05042-1.0539 0.055871-0.42704 0.073338-1.3876 0.48698-0.59543 0.33331-1.5005 1.1499-1.3916 1.4631-0.76562 0.99438-0.89694 1.398-1.13 2.1328-0.70114 1.5487-0.51907 1.289-0.52751 1.4674-1.0914 3.3563-0.40552 1.0582-0.38899 0.7541-0.4604 0.71426-0.94775 1.1598-0.70168 0.65484-0.81122 0.57281-3.1281 1.7362-0.87633 0.69574-0.34914 0.3902-0.69664 1.176-1.0626 2.7718-0.67094 1.3789-0.74736 1.0249-0.9147 0.87643-1.214 0.75075-1.37 0.38389-1.5959-0.07542-1.8492-0.53315-2.0174-0.97996-1.0413-0.66259-1.6811-1.2897-4.7385-4.2663-1.9005-1.4312-1.618-0.89222-1.6624-0.63245-1.6533-0.35436-1.5881-0.044176-1.5892 0.33918-1.3618 0.71182-1.0428 1.0522-0.50325 0.95383-0.19928 0.61643-0.17361 0.84842-0.12555 1.1662-0.053755 1.2491 0.006803 2.0128 0.098759 1.669 0.2543 2.1182 0.50268 2.7499 0.51078 2.4097 1.0639 4.0544 0.59433 2.6828 0.55892 3.1563 0.48669 3.6269 0.33053 3.6639 0.14752 3.2998 0.006198 2.8164-0.15043 5.2213 0.061131 2.3498 0.20868 1.3587 0.12365 0.42749 0.54378 1.0182 0.62446 0.18448-8.9603 6.9486-2.0099 1.7592-2.2974 2.2708-1.7248 1.9262-1.6085 2.077-2.3824 3.2834-4.5214 6.5112-0.047244 0.051933-0.64444-0.13915-1.157-0.42524-3.0904-1.3862-1.7025-0.85756-2.683-1.4824-1.3061-0.78791-1.2647-0.81533-2.6711-1.9136-1.3485-1.071-1.3038-1.2265-1.2118-1.3292-1.1414-1.4002-1.0878-1.4462-3.9654-5.7-0.98947-1.332-0.93463-1.1555-0.9587-1.08-1.6094-1.6553-1.3533-1.2793-0.95306-0.73856-0.71906-0.44409-0.59668-0.29497-1.1244-0.43639-3.2845-1.0687-1.7964-0.73023-2.0169-0.98724-2.1616-1.2809-0.83213-0.57859-0.78139-0.62971-3.0017-2.7119-2.2424-1.8695-1.741-1.5257-0.72314-0.55223-0.55038-0.34399-0.5547-0.27682-0.59211-0.22306-0.65935-0.17026-0.85772-0.10965-0.76255 0.008087-0.47848 0.062081-0.55188 0.13091-1.0019 0.39934-1.0702 0.66117-0.73479 0.59433-1.0285 1.0336-0.44588 0.53317-0.66216 0.93222-0.47164 0.85333-0.026845 0.061444-0.26689-0.20334-0.6401-0.3247-0.83755-0.33127-1.3747-0.45871-5.9248-1.8012-1.373-0.47946-1.8908-0.74984-2.3476-1.1322-1.4625-0.87809-0.75472-0.5438-0.66652-0.56116-0.90871-0.95812-0.50169-0.69228-0.37292-0.66135-0.32313-0.80552-0.21549-1.114 0.027957-0.9125 0.22823-1.0104 0.50539-1.2029 0.66441-1.1162 0.70251-0.95991 1.1062-1.2868 0.7097-0.73899 1.306-1.2481 1.4543-1.2746 1.9537-1.5644 1.6981-1.2079 1.0195-0.65654 1.8718-1.0789 2.6268-1.2806 2.2679-0.9376 4.8951-1.7999 1.528-0.69161 1.1535-0.63945 6.9136-4.1314 1.8906-1.2336 1.0705-0.77346 1.3639-1.1374 0.97466-0.94304 5.8094-6.2882 7.5793-7.3965 4.0777-4.1061 1.1839-1.2614 1.3514-1.6033 1.7334-2.3902 1.4555-2.518 1.0513-2.4269 0.7187-2.4567 0.32104-2.4054-0.044759-1.8413-0.30985-2.8493-0.090005-1.3291-0.00486-1.0164 0.052003-0.63933 0.11287-0.39145 0.087803-0.080576 0.22025-0.73991 0.798-1.8288 2.0408-4.0124 2.6977-4.6832 1.4051-2.2082 1.0459-1.4926 0.96395-1.2409 1.0327-1.1841 1.5608-1.5943 3.9675-3.8092 1.7318-1.8834 3.386-4.1376 1.0388-1.3939 0.83502-1.2203 1.9312-3.079 1.2661-2.227 0.73174-1.4375 2.5146-5.3481 1.9475-3.8106 1.4086-2.3933 1.6581-2.5196 1.6415-2.1496 1.0696-1.2366 2.1706-2.3602 2.9647-3.0696 2.9826-2.7284 1.1766-1.3688 0.81913-1.3831 0.48048-1.0697 0.42572-1.1442 0.51521-1.655 0.82182-3.2122 0.67358-3.0087 1.1288-5.7297 2.0456-12.491 1.1082-5.4558 1.4304-6.1218 1.3562-5.0201 0.94478-2.7848 0.50043-1.0872 0.25704-0.40375 0.17561-0.19471 0.22381-0.11838 0.22831 0.084446 0.23643 0.035231 0.32828 0.34512 0.45473 0.81651 1.5133 4.2274 0.85494 2.0511 0.83456 1.7139 1.1738 1.8844 1.1228 1.444 0.57724 0.65247 0.77512 0.76574 0.90246 0.71418 1.0507 0.65671 1.2944 0.63923 1.3481 0.47035 1.3817 0.24597 0.44888 0.021596 1.2576-0.080451 1.0484-0.1961 1.5642-0.50124 6.7534-2.9521 1.7232-0.85675 1.3198-0.73026 3.1951-1.9727 1.9431-1.4768 1.5413-1.5245 0.97751-1.1528 0.93006-1.2076 3.4565-4.744 1.5048-1.7695 1.0271-1.0144 0.87976-0.74302 1.7455-1.1283 2.1257-1.0223 2.8611-1.0981 2.0197-0.66932 2.2772-0.60988 1.3615-0.26425 1.3645-0.17117 1.5171-0.058247 1.5024 0.10912 1.0282 0.18959 1.4607 0.43263 1.1102 0.44498 1.8087 0.91769 1.2278 0.74734 1.3411 0.90556 3.0034 2.2072 1.456 1.1675 1.5261 1.3533 0.84709 0.83639 1.119 1.2274 4.1409 4.9947 6.5669 7.7142 4.3605 5.2889 2.0588 2.6281 1.1557 1.7712 0.97457 1.7563 0.67951 1.3872 0.59058 1.3606 2.0998 5.4377 3.4464 8.114 1.0913 2.7827 0.96478 2.8173 0.76674 2.8528 0.30817 1.5818 0.34586 2.4853 0.54675 5.2177 0.27369 2.104 0.46309 2.3728 0.52862 1.8639 0.76154 1.9486 0.65195 1.2381 0.4079 0.64296 0.93416 1.1717 0.8957 0.79828 0.66634 0.43242 1.1022 0.5266 0.82515 0.30012 1.5432 0.44762 9.1391 2.0626 3.5834 0.62323 1.167 0.1403 2.2814 0.16182 2.1357-0.012272 1.9969-0.18498 1.9893-0.36881 1.1745-0.2986 2.5417-0.80135 2.0903-0.77017 2.5397-1.0716 1.6233-0.81504 1.3273-0.79113 0.99873-0.70317 0.70879-0.57565 0.846-0.79656 0.80347-0.89984 0.81751-1.1102 0.59022-0.97426 0.53566-1.061 0.49033-1.1705 1.1019-3.1033" stroke="#bdc660"/>
    </defs>
    <g clip-path="url(#p805bc717ca)">
     <use y="280.512" fill="#bdc660" stroke="#bdc660" xlink:href="#mfe54f1eaaa"/>
    </g>
   </g>
  </g>
 </g>
 <defs>
  <clipPath id="p805bc717ca">
   <rect x="7.2" y="7.2" width="314.3" height="266.11"/>
  </clipPath>
 </defs>
</svg>
