<?xml version="1.0" encoding="UTF-8"?>
<!DOCTYPE svg  PUBLIC '-//W3C//DTD SVG 1.1//EN'  'http://www.w3.org/Graphics/SVG/1.1/DTD/svg11.dtd'>
<svg width="282.7pt" height="280.51pt" version="1.1" viewBox="0 0 282.7 280.51" xmlns="http://www.w3.org/2000/svg" xmlns:xlink="http://www.w3.org/1999/xlink">
 <metadata>
  <rdf:RDF xmlns:cc="http://creativecommons.org/ns#" xmlns:dc="http://purl.org/dc/elements/1.1/" xmlns:rdf="http://www.w3.org/1999/02/22-rdf-syntax-ns#">
   <cc:Work>
    <dc:type rdf:resource="http://purl.org/dc/dcmitype/StillImage"/>
    <dc:date>2024-07-04T12:09:28.647777</dc:date>
    <dc:format>image/svg+xml</dc:format>
    <dc:creator>
     <cc:Agent>
      <dc:title>Matplotlib v3.7.1, https://matplotlib.org/</dc:title>
     </cc:Agent>
    </dc:creator>
   </cc:Work>
  </rdf:RDF>
 </metadata>
 <defs>
  <style type="text/css">*{stroke-linejoin: round; stroke-linecap: butt}</style>
 </defs>
 <g id="figure_1">
  <g id="patch_1">
   <path d="m0 280.51h282.7v-280.51h-282.7v280.51z" fill="none"/>
  </g>
  <g id="axes_1">
   <g id="PatchCollection_1">
    <defs>
     <path id="m29a1cd96b7" d="m189.73-250.09-0.46314 0.56661-3.2369 3.5861-2.5076 2.9327-2.3755 2.9662-1.8043 2.3829-1.9013 2.6336-1.8111 2.638-1.6995 2.6199-1.4152 2.3339-1.279 2.3008-1.1098 2.2628-0.8979 2.2204-0.53421 1.7637-0.3221 1.7299-0.065156 1.6926 0.14759 1.2308 0.40267 1.4717 0.9635 2.1448 1.2893 2.0979 1.5215 2.0645 1.3562 1.6586 2.9205 3.2927 5.4376 5.8213 3.2463 3.572 2.7922 3.2683 1.266 1.5703 2.4264 3.2161 1.0847 1.5478 1.6417 2.4784 3.0072 4.8909 2.7925 4.8234 7.2704 12.882 3.3106 5.5257 2.9394 4.5669 2.8306 4.0805 2.7312 3.5788 1.6653 1.9761 2.2975 2.4544 2.1944 2.0663 1.6364 1.419 1.682 1.3906 3.9242 3.1164 12.834 10.006 4.2384 3.4426 2.5345 2.1409 4.8329 4.261 3.9639 3.6822 1.809 1.8008-4.1469 2.001-2.2272 1.0146-4.9274 2.0691-2.5751 0.97346-2.6202 0.90205-2.6278 0.81848-2.6222 0.73296-2.6105 0.64266-2.5781 0.54335-2.563 0.45352-2.5478 0.36612-2.4783 0.27406-2.465 0.20144-4.8922 0.21516-3.1276 0.008939-3.1321-0.096833-2.6526-0.14542-5.2845-0.3992-7.8969-0.73311-25.812-2.6097-10.485-1.0136-11.122-0.94771-21.246-1.6216-0.067349-0.29766-0.27675-0.53594-0.35463-0.57149-0.76228-1.0473-0.98773-1.0887-1.0434-0.89534-1.2853-0.87412-0.74618-0.42317-1.1748-0.55863-1.3999-0.50744-1.831-0.47957-0.89292-0.15503-1.2848-0.094677-0.74725 0.025598-1.5635 0.22805-1.8593 0.52854-1.4166 0.55789-1.8246 0.87641-1.7274 0.93615-4.6716 2.6633-3.0438 1.8702-1.2287 0.83082-1.3136 0.96709-1.0064 0.81635-1.6794 1.5784-0.84966 0.92747-0.86827 1.0448-0.76398 1.0023-1.1417 1.641-1.6456 2.6576-3.3329 5.732-0.86387 1.319-0.76736 1.0557-1.3961 1.6447-2.5622 2.6925-1.6833 1.6617-1.2525 1.1298-1.16 0.94662-1.1676 0.85602-2.2245 1.4393-3.1027 1.7635-5.5641 3.0325-3.0959 1.8729-2.5506 1.7543-1.5706 1.234-1.1009 0.99857-0.62379 0.64844-0.94626 1.1702-0.60718 0.95414-0.34394 0.67476-0.28425 0.69748-0.23291 0.7737-0.13579 0.68877-0.080248 1.2684 0.12335 1.2307 0.25034 1.0369 0.45451 1.2841 1.2811 2.9947 0.63481 1.6007 0.60941 1.7452 0.43204 1.5258 0.19285 0.89679 0.20406 1.596 0.038639 1.1108-0.081432 1.6815-0.13871 1.068-0.37101 1.8415-0.9521 3.4571-0.99162 3.1159-0.98811 2.7945-0.51166 1.3009-0.39686 0.87438-0.13399 0.18332-2.2403-0.17427-3.9029-0.13925-1.6281-0.18938-0.62066-0.13621-0.93341-0.32466-0.5048-0.25097-0.83602-0.52606-0.67078-0.52595-1.2341-1.187-1.036-1.1744-1.8645-2.2909-0.48672-0.49381-0.63834-0.51231-2.1366-1.3604-1.2304-0.88257-1.1884-0.98619-1.1461-1.0824-1.6404-1.7707-3.3489-4.0183-1.0811-1.0839-1.1914-0.95277-2.4743-1.4613-1.0482-0.71721-1.0407-0.94403-0.6284-0.76973-0.062719-0.18518 0.12044-0.25451 1.5554-1.9592 2.6856-3.0744 1.613-1.7532 3.2895-3.4248 5.1401-5.1731 1.8684-1.942 2.8406-3.1745 3.8135-4.4627 1.8375-2.0562 5.4862-5.5828 1.2556-1.3637 1.2145-1.5209 0.87564-1.4271 0.4295-1.0136 0.22718-0.86667 0.097375-0.87675-0.065211-1.3861-0.45457-2.1806-2.4526-7.6472-0.48043-1.7679-0.42755-1.8264-0.67041-3.6009-0.25349-1.7582-0.32397-3.0389-0.14689-2.5356 0.006375-2.799 0.28766-6.0666 0.033575-2.9112-0.060737-1.9779-0.17222-2.2268-0.46768-3.2184-1.6011-8.2573-0.54365-3.1218-0.31295-2.1546-0.22101-2.1332-0.08548-2.0212 0.052198-1.6011 0.27276-2.0497 0.43994-1.6952 0.88003-2.2119 0.83315-1.5851 0.76636-1.2456 1.2141-1.7408 1.5546-1.9982 1.3337-1.6001 3.1664-3.5373 2.8832-2.9864 1.3906-1.3507 1.4056-1.2665 1.2585-1.0432 1.3088-1.0038 2.0139-1.405 1.6284-1.0288 2.7169-1.5396 2.7123-1.3647 2.2259-1.0191 6.7777-2.8529 2.6214-1.1675 1.8876-0.93944 1.086-0.60298 0.82965-0.524 0.48374-0.39249 0.093501-0.25611 0.88408-0.79414 2.2739-1.8294 2.0753-1.9245 0.69493-0.72243 0.66616-0.78292 0.90762-1.3726 0.10469-0.039979 0.57588-0.57812 1.1231-1.3549 1.7178-2.333 0.95142-1.4549 1.3866-2.3888 3.5318-6.5545 2.3611-4.1821 1.3942-2.332 6.0485-9.7469 1.5633-2.3323 0.77278-1.0309 0.74408-0.90569 1.0184-1.1296 2.4964-2.5671 5.1336-5.1537 3.6234-3.4574 1.1612-1.0498 1.5435-1.293 2.0751-1.5412 2.0134-1.3193 1.5636-0.92741 3.2973-1.7685 12.716-6.4992 3.6466-1.7063 3.872-1.6023 3.5404-1.2574 2.7062-0.79195 1.1526-0.25415 1.3065-0.18755 0.92043-0.049958 1.2762 0.065602 0.44654 0.063657 1.3598 0.32199 1.4702 0.54939 2.0601 1.0794 2.02 1.3534 1.9578 1.5417 1.8563 1.6376 1.6914 1.6212 2.4534 2.526 0.40969 0.36955" stroke="#bdc660"/>
    </defs>
    <g clip-path="url(#p21128cbb29)">
     <use y="280.512" fill="#bdc660" stroke="#bdc660" xlink:href="#m29a1cd96b7"/>
    </g>
   </g>
  </g>
 </g>
 <defs>
  <clipPath id="p21128cbb29">
   <rect x="7.2" y="7.2" width="268.3" height="266.11"/>
  </clipPath>
 </defs>
</svg>
