<?xml version="1.0" encoding="UTF-8"?>
<!DOCTYPE svg  PUBLIC '-//W3C//DTD SVG 1.1//EN'  'http://www.w3.org/Graphics/SVG/1.1/DTD/svg11.dtd'>
<svg width="280.44pt" height="280.51pt" version="1.1" viewBox="0 0 280.44 280.51" xmlns="http://www.w3.org/2000/svg" xmlns:xlink="http://www.w3.org/1999/xlink">
 <metadata>
  <rdf:RDF xmlns:cc="http://creativecommons.org/ns#" xmlns:dc="http://purl.org/dc/elements/1.1/" xmlns:rdf="http://www.w3.org/1999/02/22-rdf-syntax-ns#">
   <cc:Work>
    <dc:type rdf:resource="http://purl.org/dc/dcmitype/StillImage"/>
    <dc:date>2024-07-04T12:09:32.062301</dc:date>
    <dc:format>image/svg+xml</dc:format>
    <dc:creator>
     <cc:Agent>
      <dc:title>Matplotlib v3.7.1, https://matplotlib.org/</dc:title>
     </cc:Agent>
    </dc:creator>
   </cc:Work>
  </rdf:RDF>
 </metadata>
 <defs>
  <style type="text/css">*{stroke-linejoin: round; stroke-linecap: butt}</style>
 </defs>
 <g id="figure_1">
  <g id="patch_1">
   <path d="m0 280.51h280.44v-280.51h-280.44v280.51z" fill="none"/>
  </g>
  <g id="axes_1">
   <g id="PatchCollection_1">
    <defs>
     <path id="m7b4fdbd7e2" d="m84.329-249.91 0.004019 0.38636 0.11449 0.60027 0.70222 2.4896 0.40386 1.1165 0.96501 2.1824 1.4221 2.4802 1.1682 1.7146 1.8692 2.2346 2.2408 1.8978 2.5981 1.3662 2.8672 0.87722 2.9039 0.46374 2.9784 0.16476 2.9852-0.080294 2.9315-0.28607 4.0683-0.6653 6.0815-1.1222 1.9504-0.19755 1.9105 0.021772 1.6742 0.2379 1.6262 0.38916 3.2456 0.96236 1.7163 0.40274 1.7385 0.17303 1.8319-0.15681 2.4003-0.66183 2.4504-1.1584 2.1339-1.4039 4.1358-3.0623 2.1514-1.2736 1.4178-0.60517 1.4676-0.4891 2.0488-0.53352 1.2806-0.22843 1.8781-0.15905 1.1925 0.018565 1.873 0.23856 2.4209 0.79757 2.1767 1.4599 2.0058 2.0055 1.9068 2.3822 4.9169 6.9208 3.5643 4.7194 1.9945 2.3927 2.0686 2.1486 2.1759 1.7835 2.3235 1.2712 2.1847 0.59866 1.6023 0.17811 1.6459 0.032456 5.3661-0.33696 2.5228-0.077363 2.5288 0.20056 2.627 0.63447 2.6394 0.98672 2.7297 1.3011 2.3121 1.4095 2.3092 1.6954 1.871 1.5749 1.7722 1.658 1.4183 1.4513 2.0777 2.3658 1.3065 1.6994 0.53254 0.79036 0.31977 0.57046 0.072516 0.33942 0.15765 0.38462 0.5841 0.87212 3.7708 4.951 1.9288 2.7419 1.6061 2.5967 0.69822 1.2925 0.96612 2.1514 0.3664 1.0659 0.29446 1.1703 0.15832 1.1587-0.039807 1.929-0.2396 2.4913 7.1e-4 2.2503 0.23137 2.8737 0.51932 3.1623 0.46598 1.9659 0.89465 2.6939 2.3122 4.9904 0.32834 0.55708 0.62779 0.81961 1.1212 1.0586 0.91914 0.67299 3.1654 1.9716 0.96202 0.68153 1.1829 0.97389 2.0477 2.0262 3.6423 4.1291 1.3952 1.3949 0.66603 0.58106 1.6788 1.2726 0.99457 0.66242 3.5665 2.1165 0.020248 0.31704-0.38664 1.0086-0.57424 1.1707-1.4631 2.5362-0.97877 1.4971-1.9755 2.7341-2.0377 2.5663-2.3388 2.7436-4.5403 4.9212-4.7283 4.6742-4.6806 4.2294-9.0224 7.6706-2.1225 1.9557-1.7744 1.7767-2.1409 2.4077-2.0039 2.6247-0.80523 1.1953-1.0809 1.7862-0.89742 1.7175-0.62041 1.3916-0.768 2.1901-0.27918 1.1015-0.19757 1.0918-0.1065 1.0234-0.011615 1.5109 0.12186 1.4809 0.5378 3.6414 0.54174 4.3984 0.27035 1.6917 0.4152 1.5912 0.77332 1.7703 0.95016 1.5671 1.2596 1.8411 0.78294 1.4505 0.63091 1.7956 0.40687 1.7917 0.10067 1.8798-0.22242 1.4665-0.61582 1.9189-1.029 2.0984-1.3577 2.0694-1.6292 1.9762-1.5382 1.557-1.5149 1.3484-1.6056 1.2493-2.1728 1.4622-4.3283 2.6899-2.6076 1.3791-4.1677 1.8417-2.1336 1.0246-3.8997 2.0458-2.8236 1.6989-9.3625 6.3669-3.9032 3.0956-1.5807 1.1068-1.2186 0.53152-0.52407-0.18346-0.28483-0.35167-0.22424-0.96466-0.36995-3.5691-0.4489-1.9488-0.30479-0.91055-0.60349-1.3403-0.69873-1.1635-2.008-2.6928-1.2732-1.5586-1.0604-1.223-1.5569-1.6086-1.2071-1.0666-1.0471-0.79586-1.6096-1.0492-1.6045-0.70098-1.7838-0.25804-1.8057 0.01037-1.8894 0.041691-1.7137 0.12235-1.5949 0.27084-2.5279 0.65023-1.8408 0.57824-4.0659 1.4477-5.5062 2.1406-10.28 4.1853-2.2102 0.81287-2.7547 0.89185-2.6614 0.70857-2.1144 0.46626-4.772 0.87644-4.8202 0.66298-3.7922 0.20983-3.4102-0.095311-2.6354-0.28505-1.7782-0.31939-2.7042-0.70136-4.9322-1.4781-1.5021-0.34668-2.715-0.38217-5.6132-0.39742-2.8676-0.35545-3.0779-0.69004-2.3894-0.70398-2.0922-0.74993-4.6195-1.8551-11.602-4.8143-1.6478-0.58263 0.18371-0.69667-0.18676-0.57114-0.43205-0.87662-1.4921-2.1958-2.0889-2.5152-2.4601-2.6723-10.653-10.703-2.7695-2.9977-1.6442-2.0532-1.0935-1.5443-4.0477-6.1522-0.94178-1.5638-1.3412-2.5353-0.81625-1.9279-0.72001-2.4557-0.31977-2.4756-0.027639-1.6531 0.15617-1.634 0.38778-1.6299 0.48989-1.3576 0.91284-1.9228 1.4419-2.4295 1.7724-2.5515 2.7024-3.6059 1.3849-1.6264 1.8143-1.6965 1.5367-1.1863 2.7627-1.7967 1.8198-1.0322 1.9194-0.98957 1.9627-0.91074 2.7223-1.0842 11.424-3.6848 6.3797-2.2307 3.0591-1.2269 2.8878-1.3333 2.2552-1.2364 2.0181-1.3534 1.7115-1.4929 1.3202-1.6614 0.8753-1.8775 0.48417-2.019 0.12584-1.1029 0.011291-1.5555-0.16242-1.5944-0.19204-1.0757-0.62897-2.5558-0.85902-2.6127-1.0791-2.5987-1.3061-2.5135-0.96394-1.5376-2.3113-3.1184-3.9097-4.9724-1.3451-1.5261-1.0631-1.0479-3.2033-2.766-4.7136-3.8015-9.7096-7.4411-1.1035-0.94749-0.82026-0.84317-1.1221-1.4474-1.8814-2.643-4.5032-5.3055-1.3986-2.0158-1.2183-2.2274-0.96959-2.3542-0.39684-1.3246-0.32169-1.6971-0.072876-2.0761 0.1461-2.1124 0.42161-3.3892 1.5893-6.9955 2.6764-9.1951 1.768-4.8284 0.78362-2.4261 0.47913-2.4674 0.032989-2.7638-0.32573-2.8219-1.299-7.0605-0.21227-2.9307 0.15089-1.9858 0.35732-1.8492 0.27897-1.0055 0.61428-1.7083 0.48508-1.0696 0.25954-0.34528 0.85057-0.001584 1.7337-0.30333 1.7886-0.60465 1.6363-0.83788 1.4984-0.95726 2.012-1.4911 6.0923-5.0939 1.455-1.0734 1.3307-0.80371 0.76208-0.36435 1.3821-0.43155 0.69724-0.074244 0.87072 0.066848 0.87502 0.21048 0.87834 0.3163 1.7645 0.84215 2.6646 1.5388 6.8734 4.2037 2.9123 1.5457 2.2177 0.88153 4.0493 1.1232 0.92286 0.32957 0.4808 0.24409" stroke="#bdc660"/>
    </defs>
    <g clip-path="url(#p21938ce9dd)">
     <use y="280.512" fill="#bdc660" stroke="#bdc660" xlink:href="#m7b4fdbd7e2"/>
    </g>
   </g>
  </g>
 </g>
 <defs>
  <clipPath id="p21938ce9dd">
   <rect x="7.2" y="7.2" width="266.04" height="266.11"/>
  </clipPath>
 </defs>
</svg>
