<?xml version="1.0" encoding="UTF-8"?>
<!DOCTYPE svg  PUBLIC '-//W3C//DTD SVG 1.1//EN'  'http://www.w3.org/Graphics/SVG/1.1/DTD/svg11.dtd'>
<svg width="203.86pt" height="280.51pt" version="1.1" viewBox="0 0 203.86 280.51" xmlns="http://www.w3.org/2000/svg" xmlns:xlink="http://www.w3.org/1999/xlink">
 <metadata>
  <rdf:RDF xmlns:cc="http://creativecommons.org/ns#" xmlns:dc="http://purl.org/dc/elements/1.1/" xmlns:rdf="http://www.w3.org/1999/02/22-rdf-syntax-ns#">
   <cc:Work>
    <dc:type rdf:resource="http://purl.org/dc/dcmitype/StillImage"/>
    <dc:date>2024-07-04T12:09:27.207352</dc:date>
    <dc:format>image/svg+xml</dc:format>
    <dc:creator>
     <cc:Agent>
      <dc:title>Matplotlib v3.7.1, https://matplotlib.org/</dc:title>
     </cc:Agent>
    </dc:creator>
   </cc:Work>
  </rdf:RDF>
 </metadata>
 <defs>
  <style type="text/css">*{stroke-linejoin: round; stroke-linecap: butt}</style>
 </defs>
 <g id="figure_1">
  <g id="patch_1">
   <path d="m0 280.51h203.86v-280.51h-203.86v280.51z" fill="none"/>
  </g>
  <g id="axes_1">
   <g id="PatchCollection_1">
    <defs>
     <path id="ma354a497f4" d="m155.68-96.354 0.14226-0.18799 0.28311-0.1824 0.31346-0.12112 0.42892-0.087136 0.53647-0.014097 0.39709 0.054282 0.25631 0.071799 0.20207 0.08225 0.3433 0.19811 0.29065 0.2308 0.27971 0.28761 0.25478 0.3391 0.29877 0.53863 0.29808 0.72931 0.42618 1.2302 0.73691 1.9428 0.39719 0.93371 0.35576 0.67335 0.22536 0.34423 0.26668 0.33449 0.40296 0.38078 0.29143 0.20018 0.55262 0.27008 1.3062 0.45625 0.95952 0.39559 0.7048 0.36248 0.81763 0.49404 0.73162 0.50677 1.4661 1.0935 2.283 1.7858 1.6756 1.4042 1.0535 0.81053 1.0747 0.68503 1.4964 0.87762 2.0207 1.2489 2.1727 1.289 3.1366 2.0761 0.85918 0.6311 0.4619 0.39121 0.45496 0.44866 0.3519 0.40592 0.26073 0.35088 0.30324 0.47823 0.26448 0.499 0.2911 0.70086 0.14429 0.49164 0.056113 0.27862 0.040657 0.32664 0.008344 0.55891-0.066137 0.62965-0.13179 0.6532-0.10727 0.41346-1.0335 3.434-0.36062 1.388-0.25438 1.3187-0.36017 2.5957-0.18547 1.1646-0.25763 1.3405-0.33526 1.5012-0.25452 0.96125-0.34791 1.1742-1.1602 3.5222-0.57329 1.922-0.98775 4.1936-0.077943 0.60754 0.008961 0.18574 0.026137 0.075405 0.032651 0.020562 0.093079 0.52221 0.055007 0.45816 0.11827 1.94 0.26381 2.9412 0.029632 0.6667-0.011341 0.75563-0.07595 0.78975-0.069892 0.33034-0.11065 0.33804-0.23179 0.4385-0.1571 0.2133-0.27429 0.29849-0.18626 0.16764-0.35908 0.26916-0.69721 0.38864-1.0346 0.42939-1.3531 0.44316-2.7305 0.73407-1.195 0.26868-0.85055 0.14371-0.73418 0.092455-2.454 0.24774-0.95097 0.16907-0.54172 0.14484-0.64074 0.21546-0.53096 0.21671-0.56307 0.27385-0.5659 0.33109-0.64156 0.45359-0.61563 0.50999-0.53735 0.49423-2.405 2.469-3.6778 3.6055-0.48756 0.51492-0.32749 0.38463 0.010268-0.16137 0.069194-0.33002 0.77574-3.307 0.3894-1.794 0.45678-2.3969 0.19183-1.3254 0.074562-0.79307 0.03359-0.65239 0.025633-3.0535 0.15074-2.8031 0.002894-0.67145-0.02395-0.46858-0.11344-0.86534-0.21188-0.91003-0.30633-0.97057-0.68117-1.965-0.36714-1.1883-1.3028-4.9159-0.36013-1.2092-0.41139-1.1738-0.48855-1.1201-0.59824-1.0431-0.28361-0.39724-0.55156-0.65755-0.60948-0.60972-0.51643-0.44911-0.73285-0.55604-1.0391-0.66179-0.91081-0.48336-0.99758-0.44609-0.8942-0.33689-0.96053-0.30847-1.2149-0.32667-0.66531-0.15089-1.6983-0.30067-3.0668-0.40995-1.0777-0.1731-0.89605-0.18403-0.87538-0.23199-0.94285-0.32572-0.90853-0.39107-0.87138-0.44838-0.82926-0.50064-0.6121-0.4259-0.63368-0.51439-0.46602-0.45144-0.75588-0.93544-0.63877-1.0336-0.54633-1.0957-0.47117-1.1264-0.80888-2.164-0.27695-0.65733-0.42728-0.87029-0.31191-0.5209-0.39542-0.5318-0.34255-0.35521-0.18784-0.1574-0.31568-0.21588-0.55777-0.28987-0.67155-0.2734-2.827-0.9916-3.0318-1.2618-1.0462-0.38252-1.0765-0.29729-1.1411-0.18196-1.1727-0.074832-1.195 0.007962-1.2099 0.072722-1.2188 0.1248-1.2227 0.1688-1.222 0.20873-1.217 0.24823-1.2075 0.29066-1.1932 0.33923-1.2417 0.41578-2.3592 0.86866-1.4099 0.46367-0.84585 0.22669-1.0531 0.21657-1.0615 0.14992-1.0445 0.085984-0.92425 0.027885-0.80394-0.015605-1.0088-0.077332-0.99418-0.14373-1.1391-0.2562-1.0741-0.34017-3.1002-1.2303-1.7587-0.63018-1.1967-0.37202-0.80338-0.21861-2.7656-0.63166-0.69598-0.2012-0.66742-0.25614-0.62525-0.32161-0.88564-0.57329-0.52761-0.39114-2.6884-2.1774-2.456-1.7382-1.0217-0.80263-0.38343-0.348-0.53748-0.55384-0.44701-0.52981-0.41071-0.54744-1.0838-1.5734-0.443-0.55252-0.38135-0.38159-0.3112-0.23563-0.27231-0.14868-0.19392-0.074201-0.38066-0.073954-0.34053 0.008338-0.32858 0.074357-0.26104 0.10773-0.29375 0.17294-0.26436 0.19949-0.49326 0.46606-0.45918 0.52071-0.40765 0.54919-0.38664 0.63643-0.77138 1.4809-0.36574 0.62035-0.51753 0.69701-0.29516 0.30764-0.37431 0.31261-0.37726 0.24707-0.46542 0.23339-0.60932 0.21565-0.81188 0.17641-0.8763 0.094917-0.81087 0.027352-0.88677-0.015177-1.8154-0.08666-1.5831-0.041501-1.4086 0.022203-1.3367 0.072989-1.1117 0.10962-1.3096 0.18288-1.1395 0.20346-1.432 0.29162-0.90077 0.15045-0.54615 0.053274-0.31848 0.009535-0.44591-0.026422-0.4443-0.097396-0.34764-0.16763-0.24414-0.21871-0.17043-0.28003-0.11122-0.37026-0.041041-0.49589 0.01838-0.36866 0.23513-1.7021 0.01714-0.29565-0.038384-0.34583-0.15944-0.23542-0.21368-0.046085-0.77472 0.20953-0.232-1.28e-4 -0.16797-0.055136-0.20907-0.16878-0.17049-0.26833-0.15212-0.50298-0.061942-0.3872-0.12984-1.2693-0.091809-0.59411-0.11588-0.43524-0.15194-0.34966-0.13565-0.20858-0.31042-0.3032-0.39634-0.2193-0.5094-0.13741-0.47452-0.053357-0.51728-0.017033-2.6564 0.035742-1.244-0.058848-0.61148-0.064367-0.63119-0.09626-0.61814-0.12733-1.021-0.29807-0.7855-0.33088-0.65991-0.38592-0.37684-0.29298-0.4699-0.49048-0.29157-0.41081-0.88354-1.5413-0.57111-0.89383-0.47863-0.60125-0.45567-0.43939-0.21017-0.16345-0.72363-0.42172-0.82169-0.3476-1.5459-0.59368-1.0182-0.45003-1.0567-0.56589-1.0249-0.64-0.95654-0.67132-0.83377-0.64868-0.63052-0.55325-0.2869-0.3167-0.027369-0.091683 0.069913-0.26414 0.2554-0.65199 0.3585-0.76302 0.35178-0.63247 0.43036-0.68683 0.57131-0.82562 0.54659-0.72823 0.64657-0.79613 0.74771-0.83688 0.6424-0.64983 0.79534-0.72322 0.96428-0.76789 0.63857-0.44459 0.64715-0.3972 0.63029-0.33249 0.63718-0.27788 0.70024-0.23216 0.70902-0.14956 0.69298-0.060444 0.53167-4.47e-4 0.53129 0.028765 1.2215 0.14051 0.78463 0.12512 3.882 0.70904 1.062 0.15087 1.0266 0.098183 0.91434 0.031172 1.0597-0.060324 0.51517-0.079304 0.37083-0.081413 0.79258-0.24367 0.76168-0.3224 0.31659-0.15926 5.4969-3.1692 1.1544-0.64538 0.95321-0.48114 0.88539-0.35451 0.59861-0.17008 0.69375-0.10154 0.49379 0.011208 1.0626 0.11816 0.38216 0.011332 0.46886-0.016147 0.64234-0.066613 0.88802-0.18615 0.53743-0.16918 0.45253-0.18071 0.36288-0.17631 0.45808-0.27509 0.36076-0.26919 0.42867-0.38525 0.6838-0.76555 0.52256-0.71519 0.34184-0.53329 0.47281-0.82555 1.3999-2.7029 0.42411-0.72703 0.42453-0.6421 0.55825-0.73695 1.8912-2.2847 0.51793-0.65632 0.59439-0.80367 1.1724-1.7411 2.6161-4.1993 0.67624-1.007 0.716-0.96189 0.77484-0.89789 0.49899-0.50028 0.85528-0.76875 1.3456-1.1169 0.77196-0.67462 1.0886-1.0836 0.8569-0.9643 0.79038-0.97932 0.9558-1.3045 0.53298-0.78801 0.51063-0.80415 0.48473-0.82053 0.69314-1.3002 1.6065-3.2682 0.64356-1.1951 0.64723-1.0908 0.39813-0.61423 2.0263-2.9297 0.44794-0.6777 0.39338-0.69493 0.44009-1.0656 0.24135-0.83443 0.18432-0.84845 0.14402-0.85094 0.14876-1.1827 0.037259-0.79743-0.055419-0.78491-0.18406-0.78198-0.39176-0.91071-0.53993-0.88271-0.649-0.86109-0.7263-0.84444-0.77734-0.83163-2.2441-2.2845-0.91661-0.98176-0.71089-0.84379-0.62752-0.86257-0.36964-0.60124-0.30656-0.60589-0.20433-0.52826-0.13561-0.53105-0.057271-0.52598 0.020986-0.59421 0.069045-0.43767 0.074586-0.30907 0.21662-0.61682 0.41093-0.79158 0.65292-0.97029 1.0463-1.4118 0.49159-0.62424 1.059-1.2096 0.36065-0.4638 0.37024-0.59016 0.14533-0.31087 0.11455-0.33037 0.10412-0.47911 0.048196-0.44735 0.004753-0.7646-0.069528-0.69964-0.11922-0.59094-0.15166-0.54355-0.71654-2.046-0.12636-0.42395-0.13718-0.57652-0.079165-0.48192-0.045346-0.62431 0.023381-0.48137 0.10307-0.49804 0.151-0.37465 0.20097-0.3473 0.48182-0.60995 0.88057-0.86928 1.9179-1.7444 0.49304-0.49029 0.69512-0.77485 0.50052-0.66765 0.40317-0.6762 0.36703-0.90883 0.1021-0.43999 0.064587-0.8015-0.051178-0.7536-0.1929-1.0201-0.29659-1.0279-0.34614-0.97424-0.45729-1.1468-1.38-3.2436-0.074339-0.28022 1.1066-0.7218 0.34107-0.19266 0.22363-0.096332 0.22358-0.050241 0.11638-9.26e-4 0.59141 0.059406 0.2301-0.00772 0.10927-0.023653 0.20666-0.10043 0.19302-0.14688 0.27874-0.26302 1.5962-1.6743 1.4857-1.5334 1.7594-1.7599 1.8951-1.7753 0.9333-0.81578 1.1523-0.94242 1.1781-0.88326 0.68201-0.47238 1.6985-1.0793 1.7915-1.0386 1.8691-1.021 4.5814-2.4172 2.7559-1.4792 1.8588-1.0165 1.942-1.0946 1.9842-1.1998 0.91394-0.60803 0.87041-0.63456 0.81383-0.66921 0.74088-0.71397 0.64756-0.7712 0.55615-0.85803 0.96609-1.8171 0.51762-0.89877 0.51948-0.75022 0.50527-0.62602 0.52417-0.57125 0.40753-0.39921 0.51779-0.46145 0.65097-0.52193 0.68345-0.47677 0.72068-0.4181 0.92108-0.41242 0.53566-0.1915 1.1114-0.30888 1.2573-0.23571 0.59963-0.078624 0.84998-0.077482 2.9413-0.1412 1.4033-0.10829 2.2459-0.25185 3.2152-0.40926 1.0514-0.15471 0.45736-0.085726 0.82116-0.20158 0.3782-0.11936 0.43005-0.15902 0.4821-0.21183 0.65974-0.36239 0.71768-0.50266 0.701-0.60746 0.63128-0.61702 0.7363-0.77643 0.73139-0.82315 0.76461-0.91495 1.0901-1.4256 1.6602-2.4432 0.70238-0.99377 0.91099-1.166 0.67883-0.76684 0.56065-0.56604 0.44814-0.40294 0.7172-0.55425 0.39366-0.25653 0.35301-0.19147 0.32713-0.056202 0.62388 1.1335 0.80424 1.5654 2.2045 4.4935 1.8218 3.7719 1.1409 2.4481 0.46943 1.0532 0.50536 1.1972 0.46324 1.1906 0.41098 1.1863 0.21843 0.72001 0.18983 0.72038 0.16843 0.78671 0.12085 0.78977 0.087557 1.3101-0.010791 1.2204-0.11864 2.1422-0.35532 5.0294-0.11455 2.2183-0.073215 2.5358-0.009857 1.2667 0.034466 2.1007 0.067253 1.4671 0.082336 1.0963 0.12826 1.1187 0.13328 0.85059 0.21911 1.1199 0.24942 1.0662 0.32502 1.1806 0.48379 1.4583 0.4483 1.1208 0.50114 1.0896 0.54663 1.0542 0.58792 1.0116 0.73653 1.1094 0.59387 0.76365 0.43049 0.49601 1.6688 1.7943 0.51268 0.63553 0.31222 0.4849 0.15884 0.30499 0.14397 0.34485 0.14944 0.54759 0.058934 0.55423-0.021081 0.55294-0.078987 0.52574-0.19773 0.78365-0.34721 1.0032-0.6824 1.7374-0.47716 1.2792-0.26879 0.82254-0.1742 0.67447-0.097434 0.56224-0.044242 0.41153-0.10847 2.0346-0.12287 0.71346-0.17723 0.57526-0.15998 0.37198-0.17636 0.32258-0.32318 0.47052-0.32605 0.3845-0.35308 0.35882-0.40685 0.36314-0.3597 0.29167-0.6495 0.47263-1.0074 0.61678-1.7692 0.97908-0.94523 0.48668-0.52792 0.24215-0.6476 0.2505-0.52378 0.17113-0.62489 0.15921-0.79113 0.1233-0.77726 0.06482-0.98381 0.018667-0.95964-0.060666-0.53067-0.068183-0.70794-0.12697-3.2109-0.77894-1.2344-0.25265-1.0541-0.17702-0.96832-0.1132-1.1792-0.072308-0.80184-0.005948-1.0151 0.044904-0.58866 0.052756-0.91673 0.12217-1.0361 0.21234-2.9509 0.75147-2.6692 0.74088-1.409 0.33998-2.3654 0.44659-5.8153 1.0243-1.0791 0.24025-0.82861 0.29126-0.42692 0.20703-0.25248 0.15508-0.24553 0.1794-0.36911 0.32376-0.51682 0.57928-0.32507 0.48875-0.31751 0.65268-0.1734 0.50639-0.11368 0.47868-0.063077 0.42569-0.026805 0.36088 0.023387 0.78703 0.11825 0.78698 0.22202 0.89268 0.16622 0.52169 0.3017 0.81124 0.35721 0.85878 0.2743 0.59797 1.8121 3.4349 0.55562 1.139 0.43653 0.98764 0.53228 1.3234 1.6371 4.4762 0.85294 2.2224 0.75511 1.841 1.4773 3.43 0.35206 0.91994 0.41294 1.2749 0.67971 2.7512 0.42631 1.523 0.28829 0.8585 0.3103 0.77566 0.33133 0.69285 0.30453 0.55232 1.0426 1.6728 1.2517 2.1182 0.44068 0.69335 0.21534 0.303 0.40412 0.50442 0.75548 0.79143 0.61866 0.6951 0.53587 0.77022 0.37686 0.85914 0.13464 0.71441 0.017935 0.41954-0.010274 0.31491-0.060237 0.57321-0.1053 0.58938-0.30131 1.1855-0.41506 1.2686-0.54922 1.3602-0.62382 1.3554-2.0149 4.0136-0.6744 1.4114-0.3139 0.78094-0.22029 0.77361-0.089754 0.60015-0.034714 0.60154 0.013896 1.7855-0.018763 0.57048-0.11363 1.0077-0.15096 1.0276-0.072299 0.7429-0.007016 0.89585 0.081129 1.686 0.009257 0.83252-0.052431 0.81432-0.1007 0.65086-0.1131 0.4587-0.15077 0.43054-0.35348 0.655-0.46193 0.53743-0.53831 0.47838-1.116 0.9255-0.65302 0.66273-0.55413 0.72732-0.29984 0.52742-0.21174 0.54153-0.10289 0.57816-0.002592 0.17974 0.029383 0.33248 0.099811 0.46161 0.19329 0.57146 0.1649 0.38058 0.24007 0.46874 0.31064 0.51529 0.34872 0.49075 0.55337 0.62956 0.30491 0.28493 0.53107 0.42489 0.73256 0.49011 0.67977 0.39333 0.75458 0.39464 3.2471 1.5513 0.75229 0.30232 0.46302 0.15631 0.5614 0.15376 0.71458 0.13914 0.94295 0.090846 0.43098 0.005581 0.63967-0.035276 0.54242-0.072521 0.36074-0.071828 0.65154-0.17902 0.54508-0.18951 1.1385-0.45505 0.91922-0.40876 0.54586-0.28227 0.35381-0.21806 0.24287-0.18976 0.082428-0.088959 0.022567-0.039994-0.008727-0.03264" stroke="#bdc660"/>
    </defs>
    <g clip-path="url(#p13aacb6364)">
     <use y="280.512" fill="#bdc660" stroke="#bdc660" xlink:href="#ma354a497f4"/>
    </g>
   </g>
  </g>
 </g>
 <defs>
  <clipPath id="p13aacb6364">
   <rect x="7.2" y="7.2" width="189.46" height="266.11"/>
  </clipPath>
 </defs>
</svg>
