<?xml version="1.0" encoding="UTF-8"?>
<!DOCTYPE svg  PUBLIC '-//W3C//DTD SVG 1.1//EN'  'http://www.w3.org/Graphics/SVG/1.1/DTD/svg11.dtd'>
<svg width="290.59pt" height="280.51pt" version="1.1" viewBox="0 0 290.59 280.51" xmlns="http://www.w3.org/2000/svg" xmlns:xlink="http://www.w3.org/1999/xlink">
 <metadata>
  <rdf:RDF xmlns:cc="http://creativecommons.org/ns#" xmlns:dc="http://purl.org/dc/elements/1.1/" xmlns:rdf="http://www.w3.org/1999/02/22-rdf-syntax-ns#">
   <cc:Work>
    <dc:type rdf:resource="http://purl.org/dc/dcmitype/StillImage"/>
    <dc:date>2024-07-04T12:09:29.982725</dc:date>
    <dc:format>image/svg+xml</dc:format>
    <dc:creator>
     <cc:Agent>
      <dc:title>Matplotlib v3.7.1, https://matplotlib.org/</dc:title>
     </cc:Agent>
    </dc:creator>
   </cc:Work>
  </rdf:RDF>
 </metadata>
 <defs>
  <style type="text/css">*{stroke-linejoin: round; stroke-linecap: butt}</style>
 </defs>
 <g id="figure_1">
  <g id="patch_1">
   <path d="m0 280.51h290.59v-280.51h-290.59v280.51z" fill="none"/>
  </g>
  <g id="axes_1">
   <g id="PatchCollection_1">
    <defs>
     <path id="mbdb5752900" d="m270.83-241.93-1.2694 4.3054-2.2223 7.8508-5.562 20.313-1.5387 5.106-11.52 35.285-3.8094 11.964-3.4512 11.075-2.7084 8.3791-2.8503 8.4868-2.1364 6.133-1.4121 3.8188-1.6823 4.1245-1.0159 2.1898-1.1263 2.1268-0.92289 1.5073-1.0273 1.4428-0.76511 0.93077-1.1805 1.2607-1.2784 1.2014-1.2256 1.0404-1.287 1.0052-1.7636 1.2666-1.8409 1.2203-2.4005 1.4796-2.4522 1.426-7.6429 4.2991-2.2549 1.3839-0.27554 0.28194-2.7877 2.002-2.2665 1.7732-8.4249 6.8975-6.8822 5.7637-1.6264 1.4003-1.6282 1.5109-1.0738 1.1094-1.9801 2.1714-0.355-0.32022-2.1259-2.1888-1.4656-1.4048-1.6085-1.419-1.6965-1.3359-1.7503-1.1727-1.7851-0.93532-1.2739-0.47605-1.1783-0.279-0.38693-0.055159-1.1058-0.056844-0.79756 0.043289-1.1321 0.16251-0.99871 0.22022-2.3449 0.68624-3.0678 1.0895-3.3551 1.3884-3.1598 1.4785-11.018 5.6316-2.8571 1.5325-1.3548 0.80361-1.7446 1.1432-1.7981 1.3355-1.3375 1.1204-1.0062 0.90968-3.1397 2.9959-4.4483 4.4658-2.1631 2.2244-0.88241 0.97883-0.64476 0.78479-0.66962 0.89331-1.3546 2.021-5.2411 8.4458-1.2081 2.0207-2.0459 3.6238-3.0603 5.6796-1.2015 2.0699-0.82442 1.2607-1.4885 2.0216-0.97316 1.1741-0.499 0.50094-0.090716 0.034642-0.57244-0.37883-2.0389-1.7401-4.8147-4.4576-2.5114-2.4547-1.2842-1.3232-2.2754-2.5238-2.444-2.9707-6.3972-8.326-3.5683-4.4887-7.5743-9.1153-5.5995-6.4041-0.99704-1.2078-1.6163-2.1206-1.2888-1.8967-1.0769-1.7707-0.86828-1.562-1.0939-2.1477-1.5211-3.3222-3.566-8.592-0.92327-2.0193-0.92134-1.8371-0.99282-1.8143-1.0657-1.7889-1.2494-1.913-1.3524-1.8642-1.4712-1.7966-1.6019-1.7038-1.1129-1.0551-1.1629-1.0076-1.4306-1.1208-1.4837-1.0355-1.4026-0.86665-1.4178-0.77088-1.3592-0.64387-1.3145-0.54241-2.223-0.75654-1.0175-0.28357-0.53576-0.10557 0.20889-0.1681 0.35638-0.56338 1.0661-2.1268 2.9396-6.674 1.427-3.0705 1.5365-2.9024 1.478-2.4233 1.6228-2.3648 0.90846-1.2166 2.7969-3.537 1.2834-1.7668 4.2907-6.4458 1.6909-2.3992 1.9147-2.5639 3.0128-3.739 2.3606-2.7548 4.1001-4.6739 2.0535-2.4805 3.1503-4.0916 4.9824-6.9509 1.2257-1.7981 1.0492-1.645 0.95634-1.6546 0.65926-1.2983 0.5617-1.3069 0.49533-1.5161 0.29662-1.5291 0.075621-1.3748-0.025636-0.86742-0.12563-1.3438-0.38507-2.0684-0.58587-2.0546-0.64622-1.7398-0.76704-1.6822-0.63453-1.1847-0.67532-1.1456-2.0052-3.1967-0.94371-1.393-0.72719-0.90662-0.86-0.88691-0.93207-0.81029-1.7491-1.284-2.8346-1.8309-2.4814-1.6653-1.3566-0.83956-1.0693-0.5682-2.605-1.2703-1.4819-0.85092-0.6091-0.42195-0.85318-0.67907-0.8017-0.73613-0.71463-0.73858-0.81791-0.93916-0.77549-0.97526-1.4251-1.9738-1.0429-1.5882-1.0349-1.7159-1.0259-1.8796-1.0486-2.2116-0.92928-2.4334-0.19247-0.61037-0.55226-2.2023-0.281-1.8368-0.094696-1.6567 0.054266-1.3835 0.12999-0.98848 0.22456-0.96772 0.28657-0.82062 0.61588-1.0189 0.28621-0.10307 0.088928-0.014502 0.59707 0.25388 0.82862 0.4496 5.4801 3.2912 1.7465 0.92977 0.98844 0.45347 1.7369 0.64031 1.2935 0.32236 1.2465 0.14516 1.2801-0.074639 1.5214-0.44802 1.3866-0.73606 1.2756-0.89744 1.8325-1.4066 1.0475-0.71054 1.085-0.6091 0.83604-0.36942 2.035-0.72058 1.1796-0.32614 1.5242-0.23655 2.4474-0.019763 2.5926-0.092899 0.93601 0.031125 1.1671 0.15348 0.58636 0.15329 0.68161 0.27416 0.89025 0.56735 1.0331 0.92686 1.0049 1.1734 0.63664 1.0558 1.1096 2.3293 0.59556 1.1365 0.59138 0.88664 0.64973 0.71665 0.76044 0.56193 1.2146 0.45843 0.45785 0.080602 0.84353 0.057774 0.76126-0.026263 0.66694-0.072525 1.1253-0.21092 1.5443-0.44789 1.8223-0.74224 1.2322-0.64714 1.9042-1.2055 1.8834-1.3745 7.5015-6.05 1.922-1.4121 1.9702-1.2737 2.337-1.2078 2.0456-0.78612 6.2422-2.0184 5.6506-1.9693 3.5983-1.177 1.9795-0.69415 3.2414-1.263 5.6277-2.4579 1.4893-0.56276 2.0901-0.72143 3.291-1.0308 4.7204-1.3588 1.9465-0.66163 3.8664-1.4062 1.814-0.56052 2.533-0.53962 1.0596-0.1224 1.6279-0.071413 2.0097 0.10366 2.5656 0.34394 2.8984 0.56824 1.9768 0.48253 1.9592 0.5598 2.6636 0.9209 2.417 1.0484 1.887 1.0043 1.7626 1.1387 1.6029 1.2885 1.1459 1.151 1.0208 1.2361 0.8978 1.2971 1.713 3.0044 1.0247 1.6549 0.7291 0.94754 0.65872 0.69734 1.0418 0.89124 1.2593 0.84246 1.0363 0.56518 1.1041 0.52771 2.3459 1.0094 1.669 0.65448 1.5591 0.55333 1.5963 0.49138 1.6359 0.39345 0.75926 0.13727 1.7479 0.22959 2.9492 0.26632 2.4054 0.1491 2.44 0.088467 3.8963-0.017042 1.4127-0.063129 3.1412-0.24466 5.3417-0.60368 3.7968-0.34818 1.5433-0.18191 1.6686-0.26266 5.6663-1.0615 10.379-1.7433 6.24-0.90841 2.4719-0.28798 1.8581-0.1589 1.8346-0.086533 1.7797-0.019503 1.7229 0.037685 2.0222 0.11772 0.92477 0.090742 1.7492 0.26502 1.052 0.27096 0.30512 0.13924 0.080276 0.10935" stroke="#bdc660"/>
    </defs>
    <g clip-path="url(#pa9b30c634a)">
     <use y="280.512" fill="#bdc660" stroke="#bdc660" xlink:href="#mbdb5752900"/>
    </g>
   </g>
  </g>
 </g>
 <defs>
  <clipPath id="pa9b30c634a">
   <rect x="7.2" y="7.2" width="276.19" height="266.11"/>
  </clipPath>
 </defs>
</svg>
