<?xml version="1.0" encoding="UTF-8"?>
<!DOCTYPE svg  PUBLIC '-//W3C//DTD SVG 1.1//EN'  'http://www.w3.org/Graphics/SVG/1.1/DTD/svg11.dtd'>
<svg width="335.38pt" height="280.51pt" version="1.1" viewBox="0 0 335.38 280.51" xmlns="http://www.w3.org/2000/svg" xmlns:xlink="http://www.w3.org/1999/xlink">
 <metadata>
  <rdf:RDF xmlns:cc="http://creativecommons.org/ns#" xmlns:dc="http://purl.org/dc/elements/1.1/" xmlns:rdf="http://www.w3.org/1999/02/22-rdf-syntax-ns#">
   <cc:Work>
    <dc:type rdf:resource="http://purl.org/dc/dcmitype/StillImage"/>
    <dc:date>2024-07-04T12:09:34.828542</dc:date>
    <dc:format>image/svg+xml</dc:format>
    <dc:creator>
     <cc:Agent>
      <dc:title>Matplotlib v3.7.1, https://matplotlib.org/</dc:title>
     </cc:Agent>
    </dc:creator>
   </cc:Work>
  </rdf:RDF>
 </metadata>
 <defs>
  <style type="text/css">*{stroke-linejoin: round; stroke-linecap: butt}</style>
 </defs>
 <g id="figure_1">
  <g id="patch_1">
   <path d="m0 280.51h335.38v-280.51h-335.38v280.51z" fill="none"/>
  </g>
  <g id="axes_1">
   <g id="PatchCollection_1">
    <defs>
     <path id="m66244301aa" d="m220.11-261.21 18.403 14.309 55.66 43.848 19.417 15.051-0.16687 0.4002-0.77406 0.44821-1.6121 0.52375-2.0871 0.43117-2.3782 0.34291-2.5444 0.27-5.2885 0.38543-10.46 0.50406-4.952 0.30275-2.367 0.21788-2.2691 0.29476-2.1424 0.40594-1.976 0.56244-1.7557 0.77851-1.4639 1.0723-1.1456 1.4776-0.84736 1.7821-0.63364 2.0002-0.48275 2.1543-0.37805 2.2617-0.30695 2.3353-0.70408 7.2437-3.2958 38.629-1.4044 14.875-0.80352-0.22369-2.1202-0.84214-6.2794-2.6466-7.2985-3.2107-3.7024-1.6945-7.2062-3.4932-10.538-5.6117-2.7263-1.3099-2.6525-1.0488-2.5797-0.68305-2.5025-0.19006-2.5865 0.45358-2.4674 1.0264-2.319 1.4733-2.1276 1.8357-1.8766 2.149-1.5456 2.4443-1.2019 2.8794-0.85084 3.1191-0.60018 3.2862-0.42517 3.4007-0.30698 3.4779-0.39778 6.6523-1.0265 23.638-1.972 54.127-0.85347-0.36277-19.932-7.4449-7.5804-2.9665-3.6947-1.5132-3.6128-1.549-3.5205-1.6055-3.4165-1.6903-3.297-1.8124-3.0597-1.8939-2.9603-2.0076-2.8859-2.0877-2.8306-2.1432-5.5493-4.3872-8.1605-6.7015-7.6572-6.4648-6.3235-5.5473-3.6768-3.4292-3.3318-3.3304-4.8062-5.0799-9.4052-10.206-5.5296-6.2396-3.8779-4.6106-4.3208-5.3528-6.2196-7.9346-3.8859-5.0775-5.536-7.57-5.1756-7.5387-5.8301-8.7888-25.323-38.593 54.338-9.7688 41.266-7.6458 6.521-1.0377 3.3908-0.34527 3.3804-0.087143 3.7098 0.3016 3.0503 0.51718 3.0459 0.69661 3.0421 0.82945 6.0713 1.9148 15.38 5.2512 3.9144 1.2092 3.0095 0.80001 2.8878 0.52557 2.7443 0.093745 0.95693-0.10601 1.032-0.2065 1.8491-0.5897 1.1989-0.5136 1.3453-0.69465 1.469-0.9069 1.3664-0.98501 1.3821-1.1239 1.0116-0.94119 1.3303-1.4102 0.99261-1.1829 1.4506-1.9171 2.6547-3.8024 3.5113-5.2876 3.1867-5.2656 2.5891-4.1261 2.5906-4.509 1.1747-2.2176 0.97624-2.0824 0.93204-2.3027 0.9913-2.7964 0.90718-2.902 1.1385-4.171 0.67905-2.7 2.04-8.9228 0.97704-3.6047 0.76391-2.263 0.8902-2.0892 0.76594-1.3309 0.18156-0.20373 0.13929-0.090796 0.097584 0.004585" stroke="#bdc660"/>
    </defs>
    <g clip-path="url(#p0fdb219739)">
     <use y="280.512" fill="#bdc660" stroke="#bdc660" xlink:href="#m66244301aa"/>
    </g>
   </g>
  </g>
 </g>
 <defs>
  <clipPath id="p0fdb219739">
   <rect x="7.2" y="7.2" width="320.98" height="266.11"/>
  </clipPath>
 </defs>
</svg>
