<?xml version="1.0" encoding="UTF-8"?>
<!DOCTYPE svg  PUBLIC '-//W3C//DTD SVG 1.1//EN'  'http://www.w3.org/Graphics/SVG/1.1/DTD/svg11.dtd'>
<svg width="371.52pt" height="207.35pt" version="1.1" viewBox="0 0 371.52 207.35" xmlns="http://www.w3.org/2000/svg" xmlns:xlink="http://www.w3.org/1999/xlink">
 <metadata>
  <rdf:RDF xmlns:cc="http://creativecommons.org/ns#" xmlns:dc="http://purl.org/dc/elements/1.1/" xmlns:rdf="http://www.w3.org/1999/02/22-rdf-syntax-ns#">
   <cc:Work>
    <dc:type rdf:resource="http://purl.org/dc/dcmitype/StillImage"/>
    <dc:date>2024-07-04T12:09:38.576033</dc:date>
    <dc:format>image/svg+xml</dc:format>
    <dc:creator>
     <cc:Agent>
      <dc:title>Matplotlib v3.7.1, https://matplotlib.org/</dc:title>
     </cc:Agent>
    </dc:creator>
   </cc:Work>
  </rdf:RDF>
 </metadata>
 <defs>
  <style type="text/css">*{stroke-linejoin: round; stroke-linecap: butt}</style>
 </defs>
 <g id="figure_1">
  <g id="patch_1">
   <path d="m0 207.35h371.52v-207.35h-371.52v207.35z" fill="none"/>
  </g>
  <g id="axes_1">
   <g id="PatchCollection_1">
    <defs>
     <path id="md9f609bf72" d="m205.08-191.35 0.095297 0.42337 0.41724 3.4517 0.341 2.0871 0.41691 1.666 0.9566 3.218 0.52205 1.5246 0.68652 1.4578 0.74703 1.1211 0.95498 1.1213 1.1042 1.0832 0.82766 0.72729 0.92857 0.765 2.1555 1.645 1.9833 1.3661 1.488 0.91911 1.1258 0.62589 1.3825 0.67889 0.93016 0.40398 1.3373 0.5168 1.5435 0.5239 1.452 0.44013 2.3848 0.62472 1.7893 0.36381 1.3919 0.21615 1.9872 0.20453 1.2568 0.053134 0.76735-0.01397 1.2403-0.11853 0.88592-0.14989 1.9876-0.47927 1.82-0.57071 2.0664-0.74776 1.8673-0.62896 1.3182-0.37693 1.6242-0.36203 1.9598-0.31048 2.801-0.33481 2.6022-0.2644 4.1251-0.32457 1.8894-0.18727 1.4625-0.19366 1.5368-0.29993 1.1394-0.29237 1.6018-0.51036 1.1405-0.44311 1.6972-0.76586 0.68376-0.34563 1.5383-0.86531 2.4259-1.519 0.82826-0.48185 1.1846-0.6046 1.3037-0.55219 1.3238-0.45309 1.7447-0.51719 3.7587-0.96371 1.9775-0.36957 1.2354-0.15821 0.91386-0.06933 1.4735-0.004276 1.3103 0.10659 0.63771 0.092303 1.4155 0.31097 0.64847 0.19665 1.2068 0.46184 0.76052 0.34427 0.98698 0.49259 3.4984 1.8709 1.6484 0.73276 1.3917 0.472 1.9156 0.4089 1.9943 0.20347 2.0561 0.045057 2.1051-0.077185 2.1446-0.17221 2.1544-0.24272 2.1834-0.29261 6.7105-0.9853 2.287-0.30342 2.3079-0.25594 2.3225-0.18082 2.3252-0.071154 2.3082 0.080563 2.26 0.27943 1.8916 0.42684 1.7856 0.5613 1.6265 0.64162 1.3893 0.65747 1.0398 0.59033 0.42543 0.30414 0.13626 0.18407-0.22964 0.33794-1.6675 1.5576-10.096 8.6248-2.2164 1.9509-1.6032 1.5259-1.6852 1.7717-2.1594 2.5089-0.96358 1.2237-1.3821 1.9544-0.99322 1.6211-0.86908 1.6368-0.80542 1.7552-0.68022 1.7189-0.39874 1.1517-1.4727 5.1162-0.33607 0.88717-0.44057 0.8894-0.54004 0.84078-0.33983 0.4375-1.1695 1.1859-1.3692 1.0405-1.5192 0.90986-1.6305 0.78429-1.7119 0.65476-1.5156 0.46317-4.4488 1.244-2.4263 0.85724-1.4637 0.59963-1.6198 0.74441-1.0873 0.57338-1.6951 0.96842-1.1497 0.58209-0.95281 0.41116-1.8311 0.6576-1.5648 0.46489-1.6235 0.42096-11.598 2.6199-2.7701 0.66996-2.7561 0.74555-1.6906 0.5111-2.1691 0.75467-1.8912 0.79305-1.4632 0.73024-1.2195 0.72212-0.59562 0.41148-0.62444 0.49215-0.5987 0.56864-0.48806 0.57983-1.2777 1.871-1.0698 1.364-1.0433 1.191-3.7422 3.9036-1.0863 1.1977-1.5057 1.8178-4.0239 5.0828-0.25038-0.51659-0.84938-0.6079-1.1206-0.50472-1.6484-0.47138-1.8838-0.26316-1.5592-0.033446-1.6155 0.088623-6.696 0.76627-3.4471 0.24165-2.1465 0.072614-2.134 0.017901-2.1131-0.03544-2.0847-0.090964-2.0491-0.15235-3.591-0.37907-3.668-0.45826-6.6798-1.0085-2.0977-0.29585-2.0753-0.24452-2.8583-0.21005-3.0255-0.066047-1.0545 0.064932-1.4386 0.19647-1.4272 0.32139-1.4606 0.4539-1.0672 0.41286-1.704 0.80486-1.6324 0.94585-0.92458 0.6436-0.98266 0.81914-0.71119 0.72296-0.53094 0.6446-0.51279 0.74178-0.45603 0.79702-0.21854 0.44485-0.49232 1.2238-0.38571 1.2859-0.36923 1.7454-0.28395 2.1767-0.15092 2.3344-0.00353 2.0597 0.11176 2.2092 0.17051 2.0838 0.38125 3.6193 0.30116 2.4538 0.5053 3.3229 1.2272 6.7063 0.30179 2.1446 0.3845 4.0933 0.29513 5.4252 0.1516 1.5744 0.14939 0.75502 0.28623 0.87349 0.42702 0.78723 0.70432 1.0412 0.35339 0.60729 0.24196 0.53553 0.29822 0.89731 0.25037 1.1915 0.111 0.97749 0.03263 0.67259-1.6e-4 0.67856-0.056578 0.91063-0.16706 0.94196-0.30099 0.94891-0.20028 0.45928-0.29549 0.56185-0.35153 0.55505-0.52901 0.69334-0.86536 0.92893-0.66041 0.60928-0.6757 0.56174-0.80718 0.60494-1.2879 0.83652-1.4544 0.81806-1.3539 0.67609-4.1183 1.8854-2.0924 1.1267-2.2298 1.3825-3.2388 2.1979-1.9539 1.2746-1.996 1.1804-1.3559 0.70691-0.78471 0.36465-1.7548 0.70722-1.7166 0.55346-0.95999 0.23862-1.5895 0.28598-0.85001 0.088909-1.0982 0.01261-1.0063-0.13695-0.76513-0.26944-1.0291-0.73335-0.86629-1.0122-0.74427-1.1612-2.1011-3.9268-0.78899-1.3411-0.87747-1.2918-0.99743-1.2009-1.2331-1.1525-1.375-1.0205-1.4843-0.90736-1.5672-0.80658-1.6285-0.71158-1.655-0.60988-1.6835-0.50791-1.6772-0.38676-1.6812-0.25269-1.6742-0.089895-1.656 0.11196-1.1536 0.21922-1.1476 0.31605-1.3611 0.46274-4.6488 1.7483-3.4215 1.1098-3.5893 1.0365-5.1726 1.4281-11.155 3.0366-3.4583 0.90004-0.15555-0.19856-0.2783-0.51779-0.95813-1.9867-1.6962-3.8843-0.7672-1.9283-0.78424-2.1166-1.8814-5.4987-0.61429-1.6801-0.87536-2.1582-0.87318-1.9366-0.84509-1.7307-1.2616-2.4098-1.6168-2.8844-3.9177-6.5431-0.96477-1.6941-0.63345-1.1711-1.8642-3.6868-0.53659-0.98149-0.6064-0.9022-0.51441-0.53373-0.56808-0.33884-0.3309-0.090033-0.33193-0.028143-0.69582 0.088336-0.83102 0.27261-0.75035 0.32989-1.0077 0.52134-0.85434 0.50578-0.95484 0.61724-3.3434 2.3194-0.98353 0.62529-1.0549 0.60365-0.88406 0.45384-2.5771 1.1715-3.5625 1.5019-3.82 1.5077-1.9939 0.745-4.039 1.3928-2.0284 0.61604-2.0199 0.5306-1.9956 0.40996-1.9487 0.24218-1.8694 0.013605-1.7448-0.28865-1.301-0.50751-1.1376-0.73084-0.92841-0.91804-0.66778-1.0631-0.334-0.97848-0.12102-0.96772 0.15921-1.2177 0.46301-0.63289 10.841-21.429 11.483-22.9 2.4546-4.5989 0.88379-1.5026 0.49212-0.73758 0.48148-0.6219 0.36872-0.40593 0.91389-0.79134 1.0856-0.69811 0.6256-0.33455 1.4924-0.69966 5.0868-2.1604 1.0258-0.50005 1.0483-0.5871 0.69749-0.45787 0.99335-0.80726 0.60378-0.64349 0.32423-0.4265 0.39304-0.61908 0.32625-0.61574 0.50004-1.1619 0.50993-1.5064 0.33488-1.2355 0.32311-1.4152 0.24841-1.2454 0.99876-5.6634 0.61481-3.0989 0.79738-3.6828 0.54246-3.0371 0.27558-2.3359 0.072485-1.2085-0.017238-5.7239 0.04319-1.2884 0.068177-0.85371 0.28663-1.6342 0.52128-1.3348 0.16945-0.27556 0.46297-0.5718 0.49062-0.41506 0.59528-0.34134 0.34725-0.13983 0.79082-0.2116 1.178-0.17186 1.5283-0.054137 0.80753 0.0395 1.7145 0.15612 3.641 0.36757 2.558 0.31728 1.9642 0.17632 2.4484 0.13584 1.9072-0.036202 2.1751-0.17108 3.9046-0.52746 3.8972-0.38113 2.9258-0.451 1.9845-0.41272 1.03-0.25772 1.3406-0.40244 3.3825-1.2105 1.7428-0.53186 1.8697-0.44906 4.5687-0.9318 5.0295-1.3044 4.2347-0.91076 1.6289-0.46093 2.487-0.84586 4.6134-1.7219 0.87419-0.35716 1.3397-0.61875 2.9743-1.5723 5.3456-2.7262 3.697-1.9955 1.6399-0.7955 2.1118-0.82488 3.7094-1.2306 2.2858-0.66235 3.0344-0.80173 5.9628-1.3641 3.8137-0.70955 8.3817-1.3494 3.4384-0.66923 1.6359-0.35838 1.8567-0.45838 2.2811-0.64334 1.5446-0.49635 3.4065-1.1752 3.492-1.0709 2.2064-0.56643 0.68331-0.11474 0.1522 0.023226" stroke="#bdc660"/>
    </defs>
    <g clip-path="url(#pc3adce7e7a)">
     <use y="207.346922" fill="#bdc660" stroke="#bdc660" xlink:href="#md9f609bf72"/>
    </g>
   </g>
  </g>
 </g>
 <defs>
  <clipPath id="pc3adce7e7a">
   <rect x="7.2" y="7.2" width="357.12" height="192.95"/>
  </clipPath>
 </defs>
</svg>
