<?xml version="1.0" encoding="UTF-8"?>
<!DOCTYPE svg  PUBLIC '-//W3C//DTD SVG 1.1//EN'  'http://www.w3.org/Graphics/SVG/1.1/DTD/svg11.dtd'>
<svg width="242.74pt" height="280.51pt" version="1.1" viewBox="0 0 242.74 280.51" xmlns="http://www.w3.org/2000/svg" xmlns:xlink="http://www.w3.org/1999/xlink">
 <metadata>
  <rdf:RDF xmlns:cc="http://creativecommons.org/ns#" xmlns:dc="http://purl.org/dc/elements/1.1/" xmlns:rdf="http://www.w3.org/1999/02/22-rdf-syntax-ns#">
   <cc:Work>
    <dc:type rdf:resource="http://purl.org/dc/dcmitype/StillImage"/>
    <dc:date>2024-07-04T12:09:41.587612</dc:date>
    <dc:format>image/svg+xml</dc:format>
    <dc:creator>
     <cc:Agent>
      <dc:title>Matplotlib v3.7.1, https://matplotlib.org/</dc:title>
     </cc:Agent>
    </dc:creator>
   </cc:Work>
  </rdf:RDF>
 </metadata>
 <defs>
  <style type="text/css">*{stroke-linejoin: round; stroke-linecap: butt}</style>
 </defs>
 <g id="figure_1">
  <g id="patch_1">
   <path d="m0 280.51h242.74v-280.51h-242.74v280.51z" fill="none"/>
  </g>
  <g id="axes_1">
   <g id="PatchCollection_1">
    <defs>
     <path id="m225c61f149" d="m80.178-260.75 0.96337 1.0414 2.2817 2.6932 2.3996 2.9744 2.1374 2.7602 3.6178 4.8674 9.0129 12.512 2.2724 3.0119 1.1609 1.4802 2.0375 2.487 1.046 1.2105 1.5536 1.7009 2.6589 2.6682 2.8914 2.7069 5.96 5.4222 1.5182 1.4587 1.0573 1.0752 1.4373 1.6037 0.82328 1.0374 0.44813 0.62298 0.78595 1.2605 0.29767 0.57076 0.44885 1.0196 0.50567 1.4844 0.18714 0.6983 0.38788 1.9365 0.24349 1.8121 0.14532 1.5004 0.15461 2.2191 0.050572 1.2843 0.003443 1.4695-0.044247 1.2358-0.17379 2.3698-0.60504 5.4374-0.26487 2.6973-0.1166 1.7943-0.041377 1.5581 0.027121 1.3478 0.13098 1.5281 0.19257 1.1178 0.24625 0.91863 0.20031 0.55275 0.32574 0.69753 0.27586 0.47079 0.47751 0.65019 0.35831 0.38073 0.74523 0.55485 0.6921 0.29683 0.76529 0.17454 0.86912 0.071335 0.95184-0.02094 1.6456-0.16506 1.7613-0.29408 1.5004-0.3229 1.7467-0.4426 1.7825-0.5053 4.3887-1.3835 4.4488-1.5077 12.502-4.3476 4.1053-1.3454 2.0221-0.61057 1.9902-0.54353 1.9458-0.44833 1.8844-0.31524 1.8006-0.13176 1.6873 0.11792 1.536 0.4534 1.3518 0.85403 1.2083 1.1837 1.1105 1.4234 1.0509 1.592 3.2329 5.459 1.182 1.8806 1.2356 1.8703 1.2777 1.8574 2.649 3.6673 2.7434 3.5854 1.4035 1.7501 1.4269 1.7111 1.4543 1.6601 1.4882 1.5928 1.5309 1.5039 1.5855 1.3869 2.7946 2.1266 1.3602 1.0922 1.0792 0.99188 2.0587 2.1521 3.8395 4.336 2.4236 2.8847 1.1217 1.3981 1.027 1.3448 0.896 1.2688 1.5153 2.3561 0.38822 0.75931 0.29678 1.1977 0.002411 0.67759-0.085724 0.70845-0.68395 3.1369-0.63077 4.227-0.24503 1.1182-0.59407 2.1909-1.1702 3.9151-0.26086 0.97409-0.22692 1.0321-0.10419 0.8572 0.067323 0.67834 0.27909 0.23095-0.2181 0.39983-0.62656 0.85947-0.85492 1.0278-1.0081 1.0339-0.74894 0.64939-0.80999 0.59007-1.4941 0.7862-1.922 0.50066-2.0839 0.12602-2.1897-0.14266-2.2544-0.31442-4.603-0.82265-2.3211-0.37038-2.2442-0.26248-2.2309-0.1683-2.2007-0.079942-2.3311 0.007776-2.0118 0.089902-1.9219 0.18246-1.7995 0.29789-1.6353 0.4464-1.4174 0.64007-1.131 0.89327-0.77382 1.1456-0.53638 1.3629-0.39399 1.505-0.69503 3.1852-0.4605 1.5681-0.64677 1.4788-0.63026 0.98841-0.44678 0.55883-0.44111 0.47735-0.43832 0.42195-0.7745 0.65707-1.1132 0.81158-2.8694 1.9115-0.77505 0.55623-1.0915 0.87062-0.7606 0.71268-0.41691 0.4556-0.76919 1.0175-0.49958 0.81895-0.39561 0.77161-0.31482 0.72044-0.55262 1.5909-1.7882 6.9039-1.4659 4.9661-0.50864 1.6049-2.8068 8.0496-0.64265 1.647-0.81682 1.8186-0.9004 1.7609-1.0847 1.9176-1.0694 1.7252-0.83499 1.2029-0.6904 0.89665-0.84615 1.0117-1.2472 1.3822-2.9299 3.1084-0.54276 0.62306-0.29178 0.41669 0.001903 0.081431-16.16-1.9178-2.9322-0.32141-2.8622-0.25896-2.7949-0.13658-2.1265 0.049551-1.1907 0.13704-1.1842 0.21446-1.1794 0.2729-2.349 0.66601-2.3413 0.76578-2.6096 0.92125-3.9128 1.4563-3.9034 1.5583-2.5728 1.1619-1.2642 0.65036-0.89461 0.5092-1.6313 1.059-2.1157 1.5968-2.3089 1.9292-6.6204 5.8043-1.2244 0.93675-0.17713 0.063412-0.12045-0.38027-0.4936-2.1927-0.37533-1.9996-0.20372-1.8939-0.047922-1.5838 0.063201-1.8971 0.16561-2.0714 0.80188-6.9903 0.36397-3.6845 0.37498-2.7134 0.8375-4.8431 0.15452-1.2007 0.074153-1.0857 8.61e-4 -1.0333-0.10767-1.5229-0.19098-1.4771-0.51806-3.2713-0.27759-2.4817-0.1045-1.6977 0.032546-1.1637 0.08896-0.79666 0.18408-0.89324 0.25446-0.82617 0.2894-0.74666 0.58305-1.1953 1.2524-2.223 0.70308-1.3547 0.54431-1.21 0.44916-1.2047 0.24498-0.89814 0.15415-0.92169 0.084147-1.3766-0.023801-1.0277-0.13544-1.5124-0.29707-2.0014-0.25007-1.2698-0.43914-1.9275-1.2726-4.7571-1.8668-7.4268-1.7723-6.5386-0.38802-1.3021-0.54604-1.5865-1.4595-3.8949-1.7091-4.1493-0.42566-1.4691-0.2549-1.5538-0.065327-1.5319 0.068925-1.4001 0.2716-3.0631 0.025639-1.0573-0.024139-0.66368-0.1139-0.9576-0.15214-0.73566-0.41655-1.3353-0.29533-0.65563-0.36284-0.61145-0.41207-0.56154-0.55143-0.60614-0.52065-0.47172-0.51515-0.39518-0.49934-0.32801-0.63316-0.33522-0.69975-0.26188-1.5676-0.41618-0.8448-0.26957-0.57226-0.24416-2.0068-1.0244-0.81516-0.31495-1.0759-0.23039-2.6596-0.21447-1.2625-0.19958-0.74349-0.20577-0.55137-0.21658-0.71448-0.37607-0.3565-0.23532-0.59384-0.48032-0.60016-0.62091-0.55923-0.72202-0.7622-1.177-0.5532-1.0183-0.43186-0.96127-0.23637-0.62975-0.56668-1.8208-0.26173-0.69065-0.19822-0.36285-0.16206-0.21451-0.18882-0.17714-0.17859-0.1091-0.29251-0.084293-0.20191-0.005385-0.27137 0.049687-0.28851 0.11767-0.36051 0.22713-0.45005 0.37275-1.2156 1.0907-0.45269 0.29708-0.43168 0.19787-0.7851 0.19033-0.90882 0.059658-0.85236-0.039247-0.91129-0.11163-1.6928-0.34117-1.6518-0.45342-2.0587-0.69733-1.3329-0.52408-1.3225-0.57999-1.5827-0.79051-1.4965-0.89237-1.3828-1.0362-1.3546-1.3444-1.1845-1.5187-0.9392-1.4854-0.82427-1.5595-0.5436-1.1972-0.4802-1.2137-0.37711-1.1086-0.31473-1.1088-0.30228-1.4318-0.1485-1.247-0.025196-1.006 0.057741-1.1115 0.12149-1.0763 0.3363-2.2831 0.12056-1.17-0.007427-1.0874-0.083897-0.5538-0.47349-1.2057-0.76835-0.9501-0.96086-0.63313-0.53513-0.18341-0.42574-0.09269-2.143-0.32235-0.45552-0.11199-0.48873-0.17196-0.38041-0.1886-0.35723-0.23874-0.87985-0.94306-0.75274-1.2895-0.63539-1.5174-0.51787-1.6115-0.38857-1.5396-0.23298-1.2477-0.02554-0.66842 4.2176-5.955 4.5569-6.1525 5.8522-8.1566 14.708-20.784 5.3781-7.7656 2.5953-3.5976 4.0063-5.4212 8.9547-13.082 1.268-1.7312 1.3456-1.6589 0.71988-0.77253 0.76535-0.70763 0.82481-0.61264 0.90063-0.47824 0.43584-0.16102 0.9578-0.23295 1.0645-0.1161 0.65627-0.011076 1.2803 0.092259 2.1116 0.37155" stroke="#bdc660"/>
    </defs>
    <g clip-path="url(#p5af6d6ced2)">
     <use y="280.512" fill="#bdc660" stroke="#bdc660" xlink:href="#m225c61f149"/>
    </g>
   </g>
  </g>
 </g>
 <defs>
  <clipPath id="p5af6d6ced2">
   <rect x="7.2" y="7.2" width="228.34" height="266.11"/>
  </clipPath>
 </defs>
</svg>
