<?xml version="1.0" encoding="UTF-8"?>
<!DOCTYPE svg  PUBLIC '-//W3C//DTD SVG 1.1//EN'  'http://www.w3.org/Graphics/SVG/1.1/DTD/svg11.dtd'>
<svg width="312.04pt" height="280.51pt" version="1.1" viewBox="0 0 312.04 280.51" xmlns="http://www.w3.org/2000/svg" xmlns:xlink="http://www.w3.org/1999/xlink">
 <metadata>
  <rdf:RDF xmlns:cc="http://creativecommons.org/ns#" xmlns:dc="http://purl.org/dc/elements/1.1/" xmlns:rdf="http://www.w3.org/1999/02/22-rdf-syntax-ns#">
   <cc:Work>
    <dc:type rdf:resource="http://purl.org/dc/dcmitype/StillImage"/>
    <dc:date>2024-07-04T12:09:36.487570</dc:date>
    <dc:format>image/svg+xml</dc:format>
    <dc:creator>
     <cc:Agent>
      <dc:title>Matplotlib v3.7.1, https://matplotlib.org/</dc:title>
     </cc:Agent>
    </dc:creator>
   </cc:Work>
  </rdf:RDF>
 </metadata>
 <defs>
  <style type="text/css">*{stroke-linejoin: round; stroke-linecap: butt}</style>
 </defs>
 <g id="figure_1">
  <g id="patch_1">
   <path d="m0 280.51h312.04v-280.51h-312.04v280.51z" fill="none"/>
  </g>
  <g id="axes_1">
   <g id="PatchCollection_1">
    <defs>
     <path id="mb11f6a8249" d="m272.24-232.98-0.25287 0.17202-4.5844 2.6126-2.8923 1.8021-1.4175 0.96079-1.836 1.3473-1.2942 1.0144-1.6146 1.3405-1.4221 1.3087-1.1403 1.1818-0.96923 1.1352-0.87703 1.2095-0.57248 0.97585-0.32144 0.69384-0.23988 0.6941-0.14175 0.66282-0.04268 0.66001 0.20805 1.2361 0.5172 1.2111 0.75307 1.1741 0.93925 1.122 0.80802 0.80034 0.8761 0.76401 0.8604 0.67782 0.89794 0.64629 0.92999 0.61113 0.97522 0.58101 1.0002 0.53545 1.0222 0.48417 0.99042 0.40614 1.0064 0.34698 1.088 0.3026 4.1341 0.93018 1.014 0.31288 0.62604 0.24595 1.3413 0.70886 0.92142 0.61721 0.90025 0.69033 0.79595 0.67278 1.5803 1.4808 0.78949 0.79811 1.6432 1.7468 3.0204 3.3705 7.2804 8.2563 1.7649 1.9366-1.6918 1.4813-2.2105 1.8556-2.845 2.2514-1.4566 1.082-2.4194 1.6836-1.8946 1.2181-2.5673 1.5545-2.5548 1.4953-2.5368 1.3998-1.369 0.68797-1.0644 0.49417-1.5848 0.66956-3.0546 1.1292-8.4556 2.9268-4.0805 1.3454-1.2106 0.42586-1.6968 0.68317-0.91953 0.43969-2.3425 1.231-1.2115 0.68219-1.6935 1.0387-1.1426 0.82967-0.76291 0.66122-0.80014 0.8384-0.51813 0.64605-0.53445 0.78901-0.36097 0.64544-0.23674 0.51057-0.19781 0.53069-0.13635 0.49618-0.097634 0.63052 0.003033 0.7029 0.073542 0.51867 0.10884 0.46873 0.76902 2.3476 0.17914 0.71135 0.12898 0.689 0.12324 1.4065 0.10839 3.6274 0.14532 1.3806 0.20935 1.1849 0.39684 1.5183 0.37685 1.0608 0.22973 0.54771 0.57178 1.1812 1.2048 2.1488 0.35701 0.68841 0.40033 0.8589 0.41292 1.0375 0.2317 0.71031 0.18844 0.70123 0.18257 0.9732 0.058513 0.64487-0.021822 0.89475-0.1257 0.7844-0.20956 0.76036-0.28903 0.74418-0.31065 0.64098-0.63351 1.1284-1.1706 1.8917-0.83173 1.2414-0.57342 0.77744-0.72141 0.91157-0.90465 1.0594-0.66016 0.71412-0.80563 0.80885-1.9746 1.8399-4.0687 3.5428-0.79298 0.77747-0.67765 0.73696-0.47534 0.58267-0.41711 0.5726-0.60218 0.98068-0.35576 0.74884-0.17184 0.45325-0.31923 1.1365-0.17472 1.17-0.029848 0.8712 0.044805 0.87657 0.087007 0.90312 0.26274 2.0594 0.098814 0.55781 0.32235 1.43 0.41356 1.4673 0.49063 1.4878 0.55936 1.4927 0.97057 2.2308 0.82737 1.606 1.7645 3.0736 0.81954 1.4989 0.68744 1.4843 0.47221 1.4759 0.11992 0.69834 0.035837 0.52054-0.018425 0.59704-0.091558 0.67977-0.2778 1.1303-0.44109 1.2823-1.3651 3.3766-0.4358 1.1874-0.57997 1.8283-0.24178 0.88908-0.25584 1.0563-0.37626 1.8424-0.18264 1.186-0.24159 2.1224-0.17592 1.1647-0.28825 1.1338-0.38289 1.0435-0.43876 0.90624-0.36025 0.60529-0.41439 0.6136-0.25418 0.26659-0.55509 0.052779-1.1266 0.19008-1.2548 0.30357-0.57299 0.18973-0.52395 0.23697-0.45536 0.3031-0.45153 0.48926-0.33198 0.58929-0.20363 0.55999-0.1716 0.69484-0.25075 1.3101-0.15333 0.58259-0.18942 0.51012-0.24832 0.48429-0.21539 0.32174-0.40853 0.48324-0.46794 0.45088-0.51014 0.42883-0.8849 0.6675-0.9452 0.64012-2.3569 1.3809-0.63694 0.44062-0.56143 0.49389-0.51323 0.55508-0.47132 0.604-0.33634 0.4923-0.47767 0.80491-0.4292 0.86606-0.3117 0.74846-0.24299 0.68115-0.34818 1.1551-0.39984 1.4811-0.36361 1.5992-0.1456 1.0436-0.037603 0.85407 0.037824 0.9976 0.1554 1.9092 0.043497 0.88879 0.002242 0.65398-0.062227 1.1935-0.081153 0.81075-0.22975 1.6054-0.31528 1.6564-0.35278 1.5257-0.52117 0.28749-0.29503 0.022426-0.39279-2.204-0.58205-2.9826-0.45439-2.1083-0.57418-2.3634-0.76842-2.7167-0.47038-1.48-2.1427-6.1479-0.45474-1.5375-0.33365-1.4459-0.33595-2.1437-0.26391-2.7127-0.24506-3.7551-0.13084-1.3378-0.25526-1.4926-0.28562-0.94938-0.19357-0.45943-0.44002-0.77225-0.25267-0.37326-0.51307-0.60705-0.42407-0.33563-0.78966-0.39448-0.93278-0.29925-1.7842-0.40052-3.5074-0.55729-3.8821-0.82915-1.0759-0.19699-1.022-0.11531-0.84127-0.040415-0.9006-8.05e-4 -2.2083 0.069231-1.6982-0.060309-2.2098-0.19473-1.1418-0.14868-1.24-0.20412-1.236-0.29798-1.0495-0.34281-1.0242-0.41624-1.4421-0.72099-0.32161-0.10871-0.076829 0.025964-0.17083 0.025644-0.43756-0.070779-1.4142-0.3658-1.221-0.42398-1.2899-0.5254-1.15-0.54622-0.71394-0.3837-0.96558-0.57476-1.2627-0.83044-1.0479-0.75582-1.321-1.0208-1.3473-1.1014-0.94284-0.82733-1.8872-1.8331-3.1317-3.2483-1.035-0.98213-0.69162-0.60233-1.5382-1.1848-1.2243-0.84237-1.099-0.66708-1.026-0.53129-1.9572-0.85665-1.6457-0.6111-1.5599-0.4753-1.7083-0.40936-1.6078-0.30811-3.0156-0.50721-1.3815-0.15847-3.6999-0.29423-1.0562-0.17774-1.0458-0.25852-1.7601-0.5697-2.3338-0.92974-1.3678-0.61712-0.99805-0.59334-0.57251-0.4078-0.96388-0.75145-1.1523-0.99174-0.50131-0.53047-0.43531-0.52646-0.44694-0.63309-0.30577-0.52416-0.29746-0.64641-0.32821-0.99923-0.12432-0.58869-0.21002-1.7868-0.18315-1.0525-0.27917-1.1078-0.24156-0.6998-0.47994-1.0849-0.49257-0.91889-0.54738-0.90674-0.42103-0.63257-0.51092-0.67692-0.85171-0.96141-1.3449-1.3096-1.1141-0.94881-1.1794-0.85675-0.81126-0.48622-0.58471-0.27552-0.7828-0.2696-0.50444-0.12651-0.65269-0.11395-0.61239-0.050216-0.69778 0.015196-0.50664 0.055195-0.59165 0.11303-0.86306 0.25676-0.54552 0.21257-0.50348 0.22763-0.8424 0.44287-2.021 1.2482-1.9795 1.3181-0.98929 0.73521-3.0565 2.4113-0.9353 0.67467-1.5018 1.0055-1.3542 0.83243-1.5233 0.8575-5.3291 2.6578-1.918 1.0502-1.2334 0.77103-1.0274 0.72083-1.2904 1.0174-0.92201 0.81689-0.77386 0.78303-0.4707 0.53827-0.49673 0.63797-0.4469 0.65977-0.61809 1.0927-0.27626 0.58868-0.48136 1.2852-0.38069 1.4727-0.15785 0.86355-0.22132 1.7578-0.16066 2.4115-0.070849 3.3729-1.199 0.067847-5.5763 0.46881-3.0724 0.22695-3.0003 0.1659-1.4556 0.042926-1.4196 0.002193-1.3782-0.053818-1.3293-0.13033-1.2696-0.23404-1.195-0.37335-0.6861-0.31062-0.65783-0.36379-0.57402-0.36285-1.1269-0.81445-2.0735-1.6382-0.75423-0.56173-1.27-0.82597-1.4746-0.85638-0.43411-0.32715-0.40506-0.40086-0.25013-0.32372-0.24911-0.40452-0.29158-0.62495-0.12141-0.33546-0.19736-0.72846-0.13555-0.80636-0.051888-0.8182 0.009123-0.39205 0.059918-0.62145 0.096178-0.56566 0.28359-1.169 0.28312-0.94022 2.0523-6.2158 0.3092-1.197 0.16495-0.85802 0.10091-0.86344 0.048402-0.87843 0.081161-4.4032-0.010811-1.6208-0.047299-1.0507-0.09535-0.94899-0.22188-1.1214-0.13006-0.3804-0.077765-0.093661 0.27092-0.79264 0.37465-1.4246 0.2362-1.1376 0.16842-1.1397 0.10044-1.3785 0.001507-1.1517-0.13177-1.6283-0.1494-0.94301-0.37811-1.602-0.40956-1.2941-1.2133-3.4267-0.38157-1.3147-0.28643-1.2832-0.2405-1.5838-0.22682-2.1869-0.091762-1.5895-0.096303-3.0404-0.082017-0.97446-0.091751-0.61883-0.11573-0.52838-0.27064-0.80011-0.1627-0.34963-0.32988-0.57191-0.35733-0.49525-0.3041-0.35725-0.42483-0.43676-0.73538-0.65431-1.3147-1.013-1.085-0.71793-1.2924-0.74784-2.1324-1.1656-3.1783-1.6824-0.69698-0.40123-1.5221-0.95413-1.3966-0.98736-0.63346-0.48859-0.5585-0.49803-0.25605-0.27549-0.37486-0.53829-0.13786-0.28249-0.26783-0.99852-0.065954-0.7331-2.8e-5 -0.78697 0.075642-1.0859 0.13893-1.1461 0.40982-2.5334 0.33977-1.7638 1.7099-7.6852 1.5327-7.6819 0.80007-3.7265 0.78103-3.1365 0.89249-3.014 0.87441-2.6137 0.45897-1.1583 0.39877-0.86555 0.40652-0.78418 0.79894-1.4059 1.6916-2.7088 1.0139-1.7584 1.189-2.2714 1.5068-3.108 0.61337-1.4471 0.48797-1.4371 0.34914-1.4462 0.16646-1.4434 0.0044-0.60928-0.15978-1.5573-0.095968-0.43684-0.41763-1.3248-0.59868-1.4046-0.45583-0.90619-1.2218-2.2589-0.93842-1.9333-0.67779-1.7321-0.30694-0.95114-0.26342-0.93724-0.34885-1.5103-0.20922-1.3473-0.0576-0.95577 0.009635-0.75053 0.06786-0.51319 0.098447-0.15875 0.041444-0.1287 0.021334-0.039227 0.12587-0.098467 0.30643-0.11483 0.60115-0.061695 0.39056 0.026389 0.7995 0.15724 0.80008 0.2395 2.4011 0.8535 0.80374 0.25282 1.0593 0.25633 0.6275 0.10298 0.97979 0.096266 2.9009 0.12504 1.4852 0.014876 0.86844-0.02763 1.8301-0.16101 0.82726-0.12714 1.2099-0.27042 0.83942-0.26802 0.92347-0.41727 0.63286-0.41264 0.29467-0.25776 0.18527-0.19816 0.3071-0.41694 0.2537-0.46828 0.22692-0.57124 0.7974-2.686 0.29202-0.78033 0.28951-0.66191 0.39631-0.77512 0.77832-1.288 0.5156-0.77416 0.54456-0.76506 0.83341-1.0752 0.69379-0.8118 0.72001-0.76892 0.74136-0.71476 0.75879-0.64602 0.67938-0.49619 0.69096-0.41087 0.80748-0.35953 1.8739-0.71238 0.69483-0.39114 0.51053-0.52333 0.1498-0.29231 0.096562-0.29734 0.088773-0.55332-0.010267-0.93876-0.092459-0.71471-0.15222-0.76074-0.21723-0.84212-0.27111-0.8758-0.39861-1.101-0.85643-2.0004-1.0959-2.2537-1.7188-3.2921-0.14755-0.33724 0.013367-0.04662 0.097217-0.063212 0.27643-0.087874 0.8166-0.18796 1.1102-0.20111 1.2897-0.18846 1.3848-0.15602 1.6059-0.11608 1.5791-0.026141 1.4988 0.092181 1.3732 0.24194 0.76448 0.23107 0.73029 0.27737 1.3614 0.5877 1.6302 0.79068 1.8905 1.0799 0.95382 0.4298 0.83378 0.28716 0.95799 0.14226 0.94185-0.10078 1.478-0.39752 0.77912-0.15705 0.61483-0.051345 0.64235-0.006828 1.1003 0.063927 1.0994 0.22294 0.89226 0.35671 3.7697 2.0719 1.1519 0.5705 0.63347 0.2357 0.96322 0.2159 1.8762 0.17647 0.85089 0.10798 0.7471 0.21841 0.71694 0.44958 0.62765 0.55306 0.63906 0.50938 0.75214 0.31392 0.80522 0.014976 1.0493-0.24658 0.96244-0.38706 0.64867-0.32558 0.8368-0.46392 4.3353-2.558 0.78087-0.41761 1.3246-0.64045 0.79302-0.33332 1.2193-0.41826 1.3439-0.30461 0.84639-0.095965 0.82335-0.03 0.71254 0.017857 0.67913 0.058084 1.9024 0.30656 2.1788 0.18255 0.64867 0.098506 0.6207 0.15277 2.1981 0.8849 0.73791 0.14298 0.97951-0.087257 1.0662-0.29388 2.1778-0.68422 1.0637-0.24816 1.0785-0.15556 1.0695-0.021869 1.0788 0.14323 2.1062 0.50309 1.0536 0.17689 0.70114 0.031482 0.69758-0.038389 0.87908-0.15462 0.95814-0.36085 1.0215-0.61538 1.1523-0.85582 1.2111-1.0011 1.2231-1.0821 3.3386-3.1352 0.68016 2.5039 0.36008 1.1914 0.43084 1.1357 0.51739 0.979 0.62479 0.73295 0.39062 0.26845 0.40877 0.17898 0.38506 0.099139 0.91819 0.074116 0.84619-0.029192 2.3413-0.22284 3.3061-0.22341 1.4304 0.001397 1.2097 0.13423 0.77446 0.17413 0.56891 0.17517 0.77288 0.30344 0.57138 0.27476 0.81056 0.47006 0.7707 0.54996 1.1849 1.0862 1.087 1.2558 1.0143 1.3784 0.961 1.466 0.92235 1.5277 1.7702 3.1685 5.3297 10.126 0.87477 1.5749 0.79276 1.3374 0.81367 1.2558 0.84159 1.1452 0.87844 0.99752 0.92653 0.8023 0.52734 0.33861 0.49034 0.25931 0.96785 0.40517 0.85603 0.22838 0.50801 0.062875 0.74099-0.024954 0.42747-0.077945 0.50842-0.14991 0.63375-0.27169 0.62537-0.35519 0.44894-0.29446 2.8151-1.9657 2.0316-1.3559 1.9297-1.153 2.3042-1.2461 1.8742-0.91708 1.1327-0.50087 1.236-0.48532 2.4696-0.90686 1.854-0.79526 3.4058-1.7746 2.5388-1.4298 2.3404-1.2339 1.5181-0.70785 3.3462-1.4898 2.8143-1.3385 1.5639-0.79361 1.4866-0.8014 2.7531-1.6325 0.96761-0.52865 3.0149-1.4624 1.9356-0.89685 1.9833-0.81611 1.6445-0.59104 1.4205-0.43328 1.5267-0.40891 2.0641-0.48468 1.1581-0.22814 3.4726-0.57368 1.0733-0.14989 0.8228-0.073368 1.3617 0.0184 0.62954 0.10186 0.88528 0.28494 0.95898 0.47908 0.95613 0.62571 0.81372 0.62971 0.81479 0.70479 0.90668 0.85633 0.91045 0.92268 1.6012 1.745 1.151 1.3367 1.1469 1.3921 1.5518 1.9752 1.4869 2.0112 1.4898 2.1587 1.5952 2.5205 0.95672 1.6332" stroke="#bdc660"/>
    </defs>
    <g clip-path="url(#p466c7de262)">
     <use y="280.512" fill="#bdc660" stroke="#bdc660" xlink:href="#mb11f6a8249"/>
    </g>
   </g>
  </g>
 </g>
 <defs>
  <clipPath id="p466c7de262">
   <rect x="7.2" y="7.2" width="297.64" height="266.11"/>
  </clipPath>
 </defs>
</svg>
