<?xml version="1.0" encoding="UTF-8"?>
<!DOCTYPE svg  PUBLIC '-//W3C//DTD SVG 1.1//EN'  'http://www.w3.org/Graphics/SVG/1.1/DTD/svg11.dtd'>
<svg width="366.27pt" height="280.51pt" version="1.1" viewBox="0 0 366.27 280.51" xmlns="http://www.w3.org/2000/svg" xmlns:xlink="http://www.w3.org/1999/xlink">
 <metadata>
  <rdf:RDF xmlns:cc="http://creativecommons.org/ns#" xmlns:dc="http://purl.org/dc/elements/1.1/" xmlns:rdf="http://www.w3.org/1999/02/22-rdf-syntax-ns#">
   <cc:Work>
    <dc:type rdf:resource="http://purl.org/dc/dcmitype/StillImage"/>
    <dc:date>2024-07-04T12:09:40.398232</dc:date>
    <dc:format>image/svg+xml</dc:format>
    <dc:creator>
     <cc:Agent>
      <dc:title>Matplotlib v3.7.1, https://matplotlib.org/</dc:title>
     </cc:Agent>
    </dc:creator>
   </cc:Work>
  </rdf:RDF>
 </metadata>
 <defs>
  <style type="text/css">*{stroke-linejoin: round; stroke-linecap: butt}</style>
 </defs>
 <g id="figure_1">
  <g id="patch_1">
   <path d="m0 280.51h366.27v-280.51h-366.27v280.51z" fill="none"/>
  </g>
  <g id="axes_1">
   <g id="PatchCollection_1">
    <defs>
     <path id="mf5687adaa8" d="m343.08-93.081-0.021178 0.072606-0.10993 0.088182-0.28522 0.082406-0.56926 0.031461-0.65294-0.041015-2.8571-0.39403-2.6557-0.54289-1.4446-0.38768-1.6809-0.53006-3.3989-1.1627-5.4069-1.925-2.1885-0.59889-1.6906-0.3288-1.1654-0.14677-0.99117-0.066898-1.1365-0.019126-3.8405 0.12173-1.7778 0.001934-8.8006-0.38797-3.085 0.055192-4.5186 0.26047-2.6624 0.10083-7.4956 0.088993-2.4232 0.15977-1.7945 0.20738-2.0769 0.34356-1.8442 0.40031-7.5067 1.9857-1.0792 0.33886-1.2481 0.48929-0.85547 0.42121-0.89198 0.56197-0.5657 0.44907-0.59384 0.59641-0.35967 0.46768-0.45918 0.84363-0.31548 0.90977-0.16018 0.72523-0.098952 1.1076 0.008286 0.71843 0.070065 1.082 0.36993 3.5436 0.11342 1.7587 0.002747 1.7744 0.075859 1.7537 0.094516 0.66081 0.15095 0.74814 0.33241 1.2278 0.40846 1.2184 1.056 2.8479 0.37755 1.3284 0.10335 0.57408 0.050152 0.71717-0.034429 0.51399-0.13 0.60176-0.28114 0.67582-0.41013 0.65186-0.78925 0.91591-0.84249 0.77934-1.2976 1.0241-1.612 1.149-3.2064 2.1737-3.3248 2.1529-1.1032 0.78187-0.77369 0.62419-0.63112 0.6099-0.39257 0.46162-0.56719 0.85896-0.43732 0.99741-0.29874 1.1713-0.55059 4.2837-0.36451 2.3043-1.6463 9.2227-0.97918 6.2645-0.36208 1.8702-0.30754 1.2455-0.3967 1.3163-0.47432 1.309-0.52477 1.2182-0.90444 1.7099-0.9095 1.3801-0.78056 0.92113-0.4956 0.26308-0.44059-0.6905-1.0513-1.2219-0.82352-0.76095-0.89718-0.63575-0.42347-0.22885-1.0849-0.41726-2.2876-0.60823-1.3044-0.47947-2.7927-1.1288-1.493-0.42272-1.752-0.22909-3.2631-0.19446-2.3183-0.19832-1.8666-0.30501-3.1667-0.65424-1.0309-0.17543-1.277-0.1385-1.2494-0.004616-0.73336 0.081653-1.3939 0.36512-0.94806 0.38725-0.92939 0.46684-1.6635 0.98669-2.5322 1.6152-1.4503 0.7347-1.6278 0.48118-1.6832 0.23078-1.6729 0.063124-0.98137-0.024566-0.9682-0.1106-1.5711-0.45586-1.5084-0.78658-1.3755-1.1001-0.711-0.77545-0.66341-0.85962-1.0936-1.6363-0.88684-1.447-2.38-3.9825-1.1129-2.023-0.66181-1.3368-0.69373-1.5353-0.60866-1.5447-0.4455-1.2995-0.49873-1.7538-0.26625-1.2878-0.15884-1.1147-0.20909-2.1617-0.16875-0.99274-0.24557-0.8111-0.42858-0.84195-0.55672-0.67189-0.30408-0.26137-0.48475-0.32752-0.65429-0.3284-0.9084-0.32884-0.98564-0.25905-0.94686-0.1778-1.0846-0.12899-1.9523-0.089073-2.7626 0.010924-10.199 0.33752-5.8715-0.081458-2.0154 0.024757-1.4781 0.074768-1.645 0.15181-3.0329 0.45028-6.8169 1.3198-11.101 2.4089-3.1227 0.74908-2.3329 0.6329-3.9438 1.1552-10.912 3.3801-5.7324 1.7011-3.5945 0.99613-4.5643 1.1308-8.8702 1.8933-7.113 1.7652-2.5727 0.55107-1.5479 0.23529-1.7592 0.12159-1.4034-0.074409-1.2024-0.25272-1.1254-0.45879-0.8557-0.50257-1.0735-0.808-0.69886-0.62685-0.562-0.56169-1.4915-1.7233-1.4249-1.92-1.3788-2.0587-1.3481-2.1544-1.3292-2.2184-6.6434-11.405-2.7938-4.4813-1.4665-2.173-1.5348-2.1021-1.9156-2.3367-4.2488-4.6044-1.3726-1.6735-1.2973-1.7949-2.7616-4.3636-3.428-5.0775-1.4838-2.3386-2.7508-4.5522-2.3119-4.0175 4.5451-5.0571 3.626-4.1121 3.6803-4.2784 1.7886-2.1402 3.3945-4.2499 4.5154-6.1036 1.6668-2.1222 1.7078-2.0654 1.7509-2.0009 1.8001-1.9248 1.2793-1.2805 1.3058-1.2349 5.0191-4.3623 1.5522-1.4322 3.0548-2.9653 3.2519-3.3083 3.4046-3.6258 1.6332-1.8303 1.5601-1.8412 1.4573-1.8529 1.3145-1.8664 1.1185-1.8826 0.85294-1.9028 0.49756-1.9278 0.067729-2.0612-0.29345-2.0585-0.51962-2.0176-0.90482-2.8435-0.47838-1.9558-0.1252-0.91969-0.23033-2.4485-0.40569-3.197-0.039024-0.49734 0.03231-1.7733 0.30187-1.4582 0.53066-1.441 0.71637-1.4004 0.93872-1.431 1.0803-1.3185 0.8868-0.88951 0.94322-0.78352 1.0499-0.68806 0.93552-0.46688 0.97097-0.40485 1.4472-0.55401 1.508-0.50045 2.8848-0.81135 2.4687-0.90116 13.495-5.7462 1.5847-0.73045 2.184-1.1387 2.2294-1.2583 2.4276-1.5018 1.2288-0.826 1.803-1.3122 0.95122-0.74857 1.8621-1.5856 2.3245-2.19 3.779-3.9054 0.94265-1.0372 2.5314-3.0228 1.8468-2.0367 0.88824-0.89417 2.1488-2.0368 3.1172-3.1991 1.3061-1.2142 0.99473-0.81696 1.0761-0.80073 3.2799-2.2669 2.4346-1.4527 2.3551-1.2098 1.6589-0.74492 1.08-0.43337 2.7555-1.0081 2.5912-0.86311 3.8119-1.1012 3.2822-0.85037 2.2992-0.53751 2.4492-0.48702 1.135-0.18409 8.3608-1.1142 2.2125-0.25852 4.2279-0.37986 6.2064-0.35637 2.0684-0.24223 2.4287-0.41634 2.4692-0.52332 2.5032-0.60765 2.5318-0.67544 5.1273-1.5131 5.1564-1.7007 2.5505-0.92231 2.4935-0.97675 2.3881-1.0387 2.2119-1.1091 1.9359-1.1858 1.529-1.2599 0.96886-1.3069 0.25837-0.74802 0.059858-0.57336-0.089795-0.5891-0.13015-0.28456 1.4712 1.0954 12.803 9.302 6.6984 5.0194 4.2268 3.3456 2.0196 1.699 1.9427 1.7362 1.8499 1.7929 1.8286 1.9593 1.7317 2.0232 1.6551 2.0684 1.5914 2.1004 1.9399 2.7162 1.2872 1.9402 1.2107 1.9656 0.85417 1.4866 0.80694 1.5027 2.4667 4.9136 0.87584 1.6403 0.87032 1.5169 0.70631 1.1346 1.0581 1.5598 1.441 1.9504 1.5137 1.91 1.5683 1.8793 3.2502 3.6923 5.0548 5.4167 3.4648 3.5234 3.5631 3.4096 1.8346 1.6391 1.8832 1.5772 2.015 1.5647 6.1352 4.5432 1.9703 1.5828 1.872 1.6827 1.7209 1.7916 1.6128 1.901 1.5289 1.9827 1.4615 2.0433 1.4034 2.0878 1.3477 2.1203 1.2871 2.1442 1.2141 2.1618 1.1195 2.1751 0.99276 2.1858 0.82059 2.1948 0.58674 2.203 0.27103 2.2111-0.026953 1.3659-0.11873 1.0623-0.20954 1.1263-0.43975 1.6583-0.57344 1.6691-0.54758 1.3612-0.8747 1.9405-1.6829 3.5209-0.53739 1.2169-0.56044 1.5299-0.29026 1.1312-0.14082 1.0538-0.004157 0.77724 0.068103 0.63506 0.29099 1.2164 0.66084 1.5105 0.7983 1.2946 0.87977 1.2069 3.8623 4.7634 1.2957 1.7443 1.2707 1.8466 1.2453 1.9351 1.2183 2.0109 1.6362 2.8744 2.9089 5.4346 2.7361 5.3239 1.1842 2.4515 0.14259 0.38079" stroke="#bdc660"/>
    </defs>
    <g clip-path="url(#pbe937963a8)">
     <use y="280.512" fill="#bdc660" stroke="#bdc660" xlink:href="#mf5687adaa8"/>
    </g>
   </g>
  </g>
 </g>
 <defs>
  <clipPath id="pbe937963a8">
   <rect x="7.2" y="7.2" width="351.87" height="266.11"/>
  </clipPath>
 </defs>
</svg>
