<?xml version="1.0" encoding="UTF-8"?>
<!DOCTYPE svg  PUBLIC '-//W3C//DTD SVG 1.1//EN'  'http://www.w3.org/Graphics/SVG/1.1/DTD/svg11.dtd'>
<svg width="226.62pt" height="280.51pt" version="1.1" viewBox="0 0 226.62 280.51" xmlns="http://www.w3.org/2000/svg" xmlns:xlink="http://www.w3.org/1999/xlink">
 <metadata>
  <rdf:RDF xmlns:cc="http://creativecommons.org/ns#" xmlns:dc="http://purl.org/dc/elements/1.1/" xmlns:rdf="http://www.w3.org/1999/02/22-rdf-syntax-ns#">
   <cc:Work>
    <dc:type rdf:resource="http://purl.org/dc/dcmitype/StillImage"/>
    <dc:date>2024-07-04T12:09:45.805169</dc:date>
    <dc:format>image/svg+xml</dc:format>
    <dc:creator>
     <cc:Agent>
      <dc:title>Matplotlib v3.7.1, https://matplotlib.org/</dc:title>
     </cc:Agent>
    </dc:creator>
   </cc:Work>
  </rdf:RDF>
 </metadata>
 <defs>
  <style type="text/css">*{stroke-linejoin: round; stroke-linecap: butt}</style>
 </defs>
 <g id="figure_1">
  <g id="patch_1">
   <path d="m0 280.51h226.62v-280.51h-226.62v280.51z" fill="none"/>
  </g>
  <g id="axes_1">
   <g id="PatchCollection_1">
    <defs>
     <path id="m347edccc56" d="m209.5-74.426-0.33169-0.28938-0.53697 0.082417-0.71837 0.52939-1.5278 2.0983-2.0983 4.4171-3.0611 8.4955-3.4975 6.8717-15.353 26.923-2.8558 4.143-1.8456 1.6632-0.88331 0.19556-1.1875-0.71379-1.1285-1.7328-1.0145-2.5617-1.1455-4.7339-1.613-10.686-0.15461-1.062-0.73162-1.941-1.6879-3.6599-3.9533-7.1772-6.2882-9.5123-5.8565-7.4395-5.3491-5.6271-4.6718-3.7245-3.5088-1.8188-2.8184-0.65065-1.4086 0.0037-1.9595 0.32759-2.4168 0.80505-3.5235 1.7729-5.4953 3.7985-7.9315 6.8016-13.194 12.838-6.1848 5.7088-5.5314 4.3495-2.7516 1.7122-7.8217 3.6557-8.0587 5.2852-3.2672 1.9322-3.4377 1.5396-3.5856 0.86177-2.6615 0.055416-2.7124-0.34828-2.7458-0.64166-5.5498-2.0646-3.7892-1.9992-3.789-2.3905-3.7147-2.7156-3.5521-2.9978-3.281-3.256-2.8767-3.5047-2.5246-3.9217-2.0681-3.7478-1.6817-3.8678-1.0516-3.9893-0.27298-3.6376 0.25795-3.4863 0.61325-3.0556 0.76587-2.2413 0.7034-0.8936 41.904-113.3 7.4388-19.065 7.5857-17.78 3.9295-8.143 4.083-7.4115 4.2998-6.4225 4.5972-5.0885 4.9963-3.2992 4.272-1.061 4.4066 0.16857 4.3546 1.2035 2.5384 1.1519 4.461 2.6514 16.221 12.395 5.2102 4.2662 4.9204 4.5784 4.8155 5.6104 2.3972 3.706 1.9771 4.094 1.6457 4.3553 1.8617 5.9336 1.7887 7.8109 0.88287 4.9749 2.7008 18.144 1.4173 8.062 2.458 11.019 5.7819 20.668 5.3813 15.889 3.7164 9.0072 2.6111 5.4053 2.2081 4.1728 4.3553 7.0112 4.7313 6.4454 4.7352 5.6864 8.9143 9.8153 0.98972 1.7263-0.27181 0.83734" stroke="#bdc660"/>
    </defs>
    <g clip-path="url(#p3d962f0cec)">
     <use y="280.512" fill="#bdc660" stroke="#bdc660" xlink:href="#m347edccc56"/>
    </g>
   </g>
  </g>
 </g>
 <defs>
  <clipPath id="p3d962f0cec">
   <rect x="7.2" y="7.2" width="212.22" height="266.11"/>
  </clipPath>
 </defs>
</svg>
