<?xml version="1.0" encoding="UTF-8"?>
<!DOCTYPE svg  PUBLIC '-//W3C//DTD SVG 1.1//EN'  'http://www.w3.org/Graphics/SVG/1.1/DTD/svg11.dtd'>
<svg width="244.33pt" height="280.51pt" version="1.1" viewBox="0 0 244.33 280.51" xmlns="http://www.w3.org/2000/svg" xmlns:xlink="http://www.w3.org/1999/xlink">
 <metadata>
  <rdf:RDF xmlns:cc="http://creativecommons.org/ns#" xmlns:dc="http://purl.org/dc/elements/1.1/" xmlns:rdf="http://www.w3.org/1999/02/22-rdf-syntax-ns#">
   <cc:Work>
    <dc:type rdf:resource="http://purl.org/dc/dcmitype/StillImage"/>
    <dc:date>2024-07-04T12:09:46.651198</dc:date>
    <dc:format>image/svg+xml</dc:format>
    <dc:creator>
     <cc:Agent>
      <dc:title>Matplotlib v3.7.1, https://matplotlib.org/</dc:title>
     </cc:Agent>
    </dc:creator>
   </cc:Work>
  </rdf:RDF>
 </metadata>
 <defs>
  <style type="text/css">*{stroke-linejoin: round; stroke-linecap: butt}</style>
 </defs>
 <g id="figure_1">
  <g id="patch_1">
   <path d="m-0 280.51h244.33v-280.51h-244.33v280.51z" fill="none"/>
  </g>
  <g id="axes_1">
   <g id="PatchCollection_1">
    <defs>
     <path id="mfab74e5491" d="m226.68-189.95-0.045979 0.30356-0.30714 0.40085-0.62213 0.53811-0.84338 0.54322-1.137 0.54116-1.2896 0.42532-1.3388 0.26665-1.3993 0.1136-1.6294-0.061479-1.6368-0.24766-1.7942-0.46183-1.7601-0.60929-4.1262-1.7277-1.2169-0.47754-1.0362-0.35723-1.0417-0.29969-1.2945-0.27511-1.2968-0.16312-1.2297-0.046069-1.2172 0.060469-1.114 0.15147-1.0905 0.2385-1.2824 0.40022-1.2272 0.51628-1.0574 0.56922-0.98911 0.6642-0.81108 0.67088-0.74036 0.74452-1.023 1.3384-0.54699 0.94721-0.45967 1.0034-0.37387 1.0515-0.29223 1.0911-0.31192 1.8138-0.10267 1.0271-0.12282 2.541-0.12707 4.7497-0.10127 1.7089-0.15409 1.7031-0.19737 1.5426-0.25454 1.5299-0.31482 1.5136-0.38144 1.4928-0.49984 1.6012-0.58194 1.5688-0.66025 1.5333-0.74017 1.4924-0.82715 1.4434-0.87344 1.3204-0.94717 1.2735-1.0088 1.2316-1.0618 1.1922-1.3237 1.3768-2.7457 2.7379-1.3669 1.4066-1.2177 1.3248-1.167 1.3619-1.1018 1.4057-0.90637 1.2818-0.84203 1.3168-0.77554 1.347-0.85679 1.674-2.0763 4.5071-0.55187 1.119-0.58052 1.0499-0.84959 1.2462-1.0029 1.014-0.43534 0.30801-0.91324 0.47695-0.72354 0.27086-0.82359 0.23304-1.4706 0.28852-3.0793 0.39201-1.4963 0.27083-1.2673 0.36074-1.9473 0.73697-1.2105 0.52675-1.2965 0.61014-1.9273 0.98409-1.4746 0.81525-1.6625 0.98739-1.0453 0.68526-0.73026 0.52447-2.5007 1.8625-0.90101 0.60541-1.0458 0.63685-2.9066 1.588-3.0283 1.8506-0.78031 0.43348-0.78572 0.38612-2.4187 0.99968-1.2128 0.63748-1.1693 0.73534-1.1131 0.77588-0.89517 0.68199-0.99008 0.9568-0.72604 0.96364-0.52076 1.0411-0.25589 1.0923-0.014944 0.41751 0.10472 0.97094 0.19496 0.8486 0.74891 2.6317 0.1647 0.91426 0.024225 0.82491-0.063926 0.52162-0.26493 0.95608-0.33447 0.78517-0.30431 0.58418-0.89942 1.4225-1.9288 2.7853-0.53923 0.91671-0.3938 0.82775-0.20074 0.56386-0.13906 0.56558-0.15053 1.1254-0.10293 1.2515-0.32574 3.0417-0.083123 1.8359-0.1422 2.1443 0.019473 2.1115-0.22693 2.629-0.12979 2.0303-0.22103 1.4659-0.60213 3.0987-0.19964 1.5998-0.043442 1.2187 0.012688 3.5046-0.050928 1.3554-0.13335 1.2546-0.92112 4.0172-0.4292 2.2479-0.12231 0.86448-0.041264 1.2808 0.086134 1.0748 0.064894 0.44762 0.25371 1.2153 0.37636 1.3117 0.44573 1.313 1.3282 3.6897 0.82154 2.0963 1.0556 2.5094 1.4487 2.8167 0.60664 1.3191 0.77104 2.2904 0.2159 0.4618 0.14365 0.17515-0.14638 0.17512-0.50174 0.33399-0.73339 0.41872-5.3634 2.766-3.9896 2.1734-1.4443 0.72721-0.6297 0.2729-0.81964 0.28161-0.79112 0.15308-0.75833-0.019972-0.70046-0.21642-0.67504-0.36985-0.65916-0.47318-1.9646-1.6486-0.67792-0.51222-0.70528-0.43571-0.74481-0.31852-0.30057-0.082705-0.62679-0.10496-0.61526-0.035894-0.6335 0.013278-1.4832 0.1593-1.7078 0.30665-3.3626 0.68664-1.6091 0.22122-0.77353 0.032367-0.76332-0.048221-0.83817-0.1805-0.8678-0.34288-0.84876-0.46925-0.8361-0.56829-0.82722-0.64493-1.6266-1.4431-1.5402-1.5113-1.7087-1.764-0.17713-0.14455 1.5298-1.5457 3.1725-3.3505 2.3305-2.5419 1.1641-1.3659 1.0384-1.3779 0.55042-0.84309 0.67239-1.1465 0.57266-1.1568 0.4667-1.2061 0.38191-1.2056 0.30836-1.1025 0.16083-0.69039 0.2417-1.4942 0.038075-0.99864-0.070989-1.0962-0.16292-1.0574-0.25013-1.0879-0.3996-1.2927-0.41373-1.0744-0.61697-1.3558-0.68141-1.3028-0.54162-0.93466-0.80766-1.2651-0.90872-1.2758-0.6589-0.84519-0.66906-0.77697-0.6302-0.62273-0.70292-0.60589-1.7528-1.3612-0.92647-0.64352-1.4003-0.88587-0.81702-0.47878-0.82828-0.44464-1.3227-0.59245-1.1301-0.37099-3.0124-0.78795-1.1873-0.36986-0.81172-0.29161-3.0102-1.1758-1.395-0.60802-1.0368-0.50442-1.5401-0.82073-3.3124-1.946-6.1336-3.8708-0.83687-0.6005-1.0094-0.88178-0.9262-0.99041-0.84258-1.0786-0.62787-0.94182-0.46724-0.7985-0.42113-0.82274-0.39239-0.90964-0.31926-0.93705-0.28275-1.2317-0.20083-1.7375-0.061924-1.5668-0.001318-1.4442 0.13476-6.0473-0.048641-2.7114-0.085268-1.1706-0.25064-2.0782-0.51889-3.2291-0.46964-2.6206-0.54852-2.431-0.6046-2.0578-0.61493-1.7455-0.94955-2.5117-0.38295-1.1241-0.32591-1.081-0.26267-0.99181-0.35935-1.6402-0.71777-4.5476-0.41706-2.0611-0.27552-1.0504-0.44767-1.3442-0.44636-1.0138-0.28291-0.52149-0.32708-0.51484-0.36317-0.48386-0.40981-0.45632-1.0904-0.90306-1.2553-0.75229-1.3676-0.66176-2.8939-1.2665-1.446-0.70747-1.3639-0.78833-1.3208-0.86517-1.2826-0.90756-3.6206-2.6387-1.4217-0.91451-1.7147-0.89796-0.70291-0.42874-0.27814-0.28206-0.1679-0.5768 0.27828-0.70374 0.36204-0.49859 2.0213-2.3657 1.0988-1.2185 1.5486-1.5484 1.2993-1.1436 0.92512-0.73091 0.97569-0.7094 1.8154-1.1932 1.8061-1.0764 2.2294-1.2247 4.1119-2.12 0.66964-0.36744 0.96296-0.58626 0.29424-0.20698 0.49918-0.45156 0.025954-0.26829 0.12348 0.033484 0.32836 0.28371 2.657 2.6211 1.1728 1.1206 1.3882 1.2586 1.4535 1.2223 1.4266 1.0884 1.4626 0.98612 1.4952 0.85399 0.88723 0.42434 0.92045 0.37047 0.94075 0.30427 1.501 0.33216 1.5111 0.16875 1.5088 0.023599 1.495-0.11061 1.7717-0.29927 1.4281-0.35713 1.3925-0.43471 1.3497-0.49752 1.1242-0.47253 1.5269-0.74128 1.3933-0.8252 1.2117-0.92917 0.24957-0.23407 0.57485-0.63842 0.56318-0.88403 0.42773-1.2234 0.19506-1.3493 0.031254-1.4451-0.072649-1.4686-1.6263-17.51-0.34506-3.1066-0.52093-3.5697-0.37475-2.1648-0.75691-3.9249-0.9242-4.3613-0.47551-2.0138-0.56528-2.0578-0.36206-1.1856-0.61941-1.8972-1.5953-4.5959-0.95624-3.0473-0.45039-1.5905-0.49864-1.9582-0.44869-2.0496-0.61219-3.3326-0.5745-3.7672-0.31972-2.4317-0.85836-7.5997-0.15795-1.1319 6.374-3.8826 16.453-10.135 3.461-2.0913 3.4192-1.9708 1.7006-0.91205 1.6978-0.83799 1.6976-0.73598 1.6999-0.59627 1.7049-0.40657 0.69444-0.097107 1.4948-0.07165 1.4793 0.091221 1.4478 0.23079 1.3991 0.35635 1.5311 0.5279 3.1066 1.3055 2.3136 0.82102 1.6836 0.50149 1.7334 0.45487 1.7707 0.41211 1.7982 0.37091 1.8962 0.34516 9.4511 1.5058 1.8031 0.34477 1.7345 0.39495 1.6389 0.46719 1.5086 0.56721 1.3337 0.70223 0.98574 0.72419 2.0568 1.7246 0.61738 0.45098 0.74112 0.44209 0.79981 0.38527 1.4003 0.52711 1.3338 0.38992 2.61 0.64189 2.9819 0.8529 7.0307 1.8367 2.3041 0.63675 2.8988 0.88992 1.3579 0.45672 3.0307 1.0944 0.75828 0.21475 0.99776 0.17389 0.99962 0.059409 0.84344-0.032175 0.8209-0.10585 1.2465-0.32531 1.1504-0.54741 0.17443-0.11391 0.62012-0.47794 1.5498-1.3371 1.216-0.8874 1.3641-0.86033 1.4723-0.82407 1.5477-0.77608 1.5955-0.71219 1.6194-0.62635 1.621-0.5105 1.6007-0.35407 1.557-0.14375 1.487 0.137 1.2422 0.39956 1.1917 0.5981 3.0273 1.9156 0.95287 0.55658 0.98396 0.4885 1.0018 0.39673 1.0095 0.28644 0.67998 0.12438 0.87137 0.099523 2.4854 0.20309 0.93988 0.14058 0.66525 0.18053 0.44654 0.18844 0.49362 0.31252 0.76704 0.86756 0.5718 1.1569 0.41021 1.34 0.28431 1.4894 0.16529 1.5597 0.052361 1.6286-0.043165 1.2929-0.12227 1.3081-0.15874 1.047-0.2152 1.0464-0.34358 1.2822-0.42408 1.2714-0.72892 1.7902-0.84601 1.7634-1.3234 2.4174-1.6905 2.7969-2.043 3.1765-5.4683 8.2178-1.8338 2.8487-0.89151 1.4502-0.79425 1.3711-0.6573 1.2593-0.46751 1.1039-0.20816 0.89106 0.14164 0.60341 0.39375 0.22401 0.61058 0.045676 0.60301-0.064946 0.69316-0.13505 1.2932-0.33715 2.4249-0.78942 1.5978-0.58236 3.2083-1.266 1.5751-0.67286 1.8727-0.86974 1.4458-0.74357 1.214-0.68598 1.1949-0.74116 1.0875-0.72553 2.6563-1.8615 1.3155-0.88328 1.6296-0.97837 0.82983-0.42467 0.82897-0.35596 0.63449-0.2156 1.4537-0.28196 1.4158-0.008694 1.3213 0.24559 1.159 0.50122 0.91319 0.77894 0.56024 0.97748 0.32197 1.141 0.13139 1.0035 0.039614 1.0674-0.092144 1.8435-0.28071 3.0623-0.047639 1.0197 0.026075 2.5604-0.053633 2.6882 0.012949 1.0348 0.061057 0.71437 0.12336 0.62501 0.19794 0.52214 0.25047 0.37636 0.53909 0.18043" stroke="#bdc660"/>
    </defs>
    <g clip-path="url(#pcecf320aae)">
     <use y="280.512" fill="#bdc660" stroke="#bdc660" xlink:href="#mfab74e5491"/>
    </g>
   </g>
  </g>
 </g>
 <defs>
  <clipPath id="pcecf320aae">
   <rect x="7.2" y="7.2" width="229.93" height="266.11"/>
  </clipPath>
 </defs>
</svg>
