<?xml version="1.0" encoding="UTF-8"?>
<!DOCTYPE svg  PUBLIC '-//W3C//DTD SVG 1.1//EN'  'http://www.w3.org/Graphics/SVG/1.1/DTD/svg11.dtd'>
<svg width="341.65pt" height="280.51pt" version="1.1" viewBox="0 0 341.65 280.51" xmlns="http://www.w3.org/2000/svg" xmlns:xlink="http://www.w3.org/1999/xlink">
 <metadata>
  <rdf:RDF xmlns:cc="http://creativecommons.org/ns#" xmlns:dc="http://purl.org/dc/elements/1.1/" xmlns:rdf="http://www.w3.org/1999/02/22-rdf-syntax-ns#">
   <cc:Work>
    <dc:type rdf:resource="http://purl.org/dc/dcmitype/StillImage"/>
    <dc:date>2024-07-04T12:09:35.655744</dc:date>
    <dc:format>image/svg+xml</dc:format>
    <dc:creator>
     <cc:Agent>
      <dc:title>Matplotlib v3.7.1, https://matplotlib.org/</dc:title>
     </cc:Agent>
    </dc:creator>
   </cc:Work>
  </rdf:RDF>
 </metadata>
 <defs>
  <style type="text/css">*{stroke-linejoin: round; stroke-linecap: butt}</style>
 </defs>
 <g id="figure_1">
  <g id="patch_1">
   <path d="m0 280.51h341.65v-280.51h-341.65v280.51z" fill="none"/>
  </g>
  <g id="axes_1">
   <g id="PatchCollection_1">
    <defs>
     <path id="mfabc921f08" d="m207.78-258.21 15.342-0.13584 14.176 21.605 3.2638 4.9202 2.8974 4.2203 3.0992 4.2378 2.1754 2.8425 3.4818 4.4419 2.4189 2.9966 2.1709 2.5811 3.0956 3.493 5.2652 5.7136 2.6906 2.8438 1.8652 1.8644 2.0584 1.9197 3.54 3.1055 4.2867 3.6191 4.5684 3.7516 3.1066 2.456 1.5846 1.1998 1.6156 1.1687 1.6572 1.1239 1.7129 1.0603 1.8457 1.0146 1.9126 0.94628 1.9709 0.89877 2.0225 0.86713 2.0684 0.8471 4.2437 1.6607 11.158 4.1678 0.47779 0.20308 0.026422 0.38236-27.974 17.821-5.0661 3.2846-3.2983 2.2042-1.6122 1.1146-1.5761 1.1273-1.5272 1.1439-1.461 1.1649-1.3876 1.2064-1.2621 1.242-0.93368 1.058-1.6416 2.0257-0.62706 0.72605-0.61869 0.61719-0.4732 0.37426-0.48304 0.27243-0.45527 0.14284-0.88282-0.015752-0.68301-0.1822-0.55336-0.20587-2.162-0.93663-1.5792-0.58821-0.77169-0.20918-0.55401-0.10357-0.82135-0.059639-0.5885 0.039683-0.91327 0.19501-0.65906 0.23571-0.72778 0.35233-0.76353 0.48705-0.67044 0.53955-0.41254 0.3897-0.59602 0.64911-0.76316 0.99545-0.7156 1.1334-0.57144 1.0702-0.61832 1.3702-0.43508 1.1548-0.34034 1.0795-0.31762 1.2401-0.2046 0.98054-0.17194 0.99399-0.24114 1.8665-0.097442 1.065-0.14032 2.3155-0.2865 7.1178-0.32632 5.4256-0.12346 2.8145-0.12168 3.657-0.083248 5.5104-0.24176 10.505-0.10168 2.7424-0.10998 1.7778-0.18748 2.0768-0.29417 2.2686-1.0199 6.1401-0.39433 2.7594-0.3106 2.8027-0.37162 4.5953-0.30151 2.9358-0.28978 1.7901-0.33915 1.454-0.30212 0.98259-0.49063 1.259-0.82351 1.6769-1.0892 1.8435-1.0449 1.5685-0.65813 0.9274-2.0588 2.7222-1.9833 2.4712-2.4801 2.9851-6.8772 8.1462-1.5903 1.9578-0.21846 0.34592-0.12091-0.32098-0.49916-0.43295-0.78273-0.44739-1.2651-0.46003-0.93425-0.22212-1.0002-0.16503-1.8943-0.16104-1.6962-0.015072-1.4299 0.05757-1.8788 0.1679-1.7012 0.24745-1.341 0.26042-2.4719 0.59112-4.5768 1.2502-2.4943 0.6269-1.9335 0.43465-2.1757 0.44336-0.78848 0.13756-1.2435 0.15204-1.5012 0.09222-1.5148 0.020538-1.2757-0.028352-2.0876-0.11851-1.7521-0.16051-1.878-0.21061-1.952-0.29412-2.4615-0.50109-1.4474-0.37171-1.1666-0.35008-1.4323-0.50666-1.2422-0.52505-0.91612-0.44792-0.86642-0.47846-0.81115-0.5033-0.61723-0.42491-0.80134-0.61018-1.8492-1.5861-2.2927-2.1612-1.803-1.8404-3.8325-4.1712-1.8615-1.8416-1.1334-1.0067-0.89515-0.72176-1.0578-0.75582-0.75942-0.46612-0.63984-0.3242-0.41451-0.15601-0.29503-0.04581-0.095208 0.051166-0.29655-0.38323-0.67959-1.001-3.0452-4.5804-2.2574-3.3098-2.1597-3.0244-2.2207-2.8955-1.2578-1.5092-1.1117-1.2364-1.0254-1.0645-1.4878-1.4448-1.5172-1.3876-3.0825-2.6578-3.1075-2.5625-3.1101-2.5117-7.7573-6.1655-4.6668-3.5854-3.1458-2.2598-1.5387-1.0207-1.5591-0.95147-1.5868-0.85819-1.6237-0.7344-1.6637-0.59339-3.3697-1.0286-1.6559-0.59249-0.61184-0.26023-1.1535-0.56707-1.1229-0.64345-1.1453-0.74124-1.118-0.79689-1.7829-1.3954-1.1489-0.96134-5.285-4.5874-0.98514-0.80518-1.1169-0.80968-1.1576-0.55187-0.5704-0.13285-0.49808-0.054635-0.46208-0.009494-1.0523 0.10364-0.70176 0.15194-0.70407 0.20837-1.0032 0.37656-1.0037 0.44952-1.1066 0.55907-1.0301 0.56798-1.4524 0.866-1.9035 1.2582-1.6906 1.2353-1.0571 0.83974-1.4293 1.2211-1.1461 1.052-1.0764 1.051-1.0924 1.1359-2.062 2.3315-1.8775-2.0602-7.7452-8.7834-3.2133-3.5857-1.7481-1.8583-0.8399-0.84906-1.6811-1.5754-0.84677-0.71573-0.95772-0.7344-0.98024-0.65662-1.4269-0.75411-0.666-0.26165-1.0787-0.33286-4.3981-0.98956-1.1574-0.32192-1.0707-0.36914-1.0537-0.43207-1.0875-0.51508-1.0641-0.56964-1.0375-0.61811-0.98936-0.65014-0.95526-0.68755-0.91533-0.72109-0.93204-0.81278-0.85961-0.85144-0.99922-1.1936-0.80115-1.249-0.55022-1.2884-0.22134-1.315 0.045405-0.70214 0.1508-0.70514 0.25519-0.73841 0.34196-0.73814 0.60902-1.0381 0.93302-1.2867 1.0311-1.2077 1.2131-1.2573 1.5129-1.3922 1.7176-1.4261 1.3768-1.0791 1.9532-1.4333 1.508-1.0221 3.0769-1.9172 4.8771-2.7794 0.26901-0.18301 1.4395-0.77154 14.262-7.2208 4.5978-2.4378 3.6595-2.0809 1.7448-1.0752 1.6707-1.1205 1.5768-1.1881 1.4562-1.2842 0.51425-0.52026 1.1761-1.3793 1.0607-1.4794 0.97709-1.5499 0.85688-1.4858 3.3702-6.2814 1.5264-2.6647 0.81765-1.2975 0.87744-1.2561 1.3031-1.6182 0.9029-1.0064 1.9064-1.9428 1.764-1.6609 1.1965-1.0753 3.6708-3.1292 2.5831-2.1108 3.8499-3.062 3.6349-2.814 5.9112-4.4734 3.0382-2.4131 5.0741-4.1629 5.2274-4.3744 5.175-4.3929 4.2786-3.6974 0.0545-0.19994 0.38936-0.65622 0.65026-0.9399 1.0896-1.4264 1.1901-1.4402 2.6596-2.992 4.1915-4.4271 10.758-10.971 4.0724-4.2257 2.5349-2.7676 3.8718-4.4406 2.4576-2.6955 1.255-1.2977 1.2796-1.2452 1.3127-1.1706 1.3579-1.0653 1.4196-0.91804 1.5036-0.71442 1.5957-0.46111 1.6838-0.25478 1.7544-0.10106 1.8122 0.012453 1.8612 0.095618 1.9043 0.15616 3.9232 0.4317 6.1127 0.80635 9.4599 1.333 1.1371 0.14876 0.4416 0.023374" stroke="#bdc660"/>
    </defs>
    <g clip-path="url(#pde309a9d8a)">
     <use y="280.512" fill="#bdc660" stroke="#bdc660" xlink:href="#mfabc921f08"/>
    </g>
   </g>
  </g>
 </g>
 <defs>
  <clipPath id="pde309a9d8a">
   <rect x="7.2" y="7.2" width="327.25" height="266.11"/>
  </clipPath>
 </defs>
</svg>
