<?xml version="1.0" encoding="UTF-8"?>
<!DOCTYPE svg  PUBLIC '-//W3C//DTD SVG 1.1//EN'  'http://www.w3.org/Graphics/SVG/1.1/DTD/svg11.dtd'>
<svg width="340.68pt" height="280.51pt" version="1.1" viewBox="0 0 340.68 280.51" xmlns="http://www.w3.org/2000/svg" xmlns:xlink="http://www.w3.org/1999/xlink">
 <metadata>
  <rdf:RDF xmlns:cc="http://creativecommons.org/ns#" xmlns:dc="http://purl.org/dc/elements/1.1/" xmlns:rdf="http://www.w3.org/1999/02/22-rdf-syntax-ns#">
   <cc:Work>
    <dc:type rdf:resource="http://purl.org/dc/dcmitype/StillImage"/>
    <dc:date>2024-07-04T12:09:40.109479</dc:date>
    <dc:format>image/svg+xml</dc:format>
    <dc:creator>
     <cc:Agent>
      <dc:title>Matplotlib v3.7.1, https://matplotlib.org/</dc:title>
     </cc:Agent>
    </dc:creator>
   </cc:Work>
  </rdf:RDF>
 </metadata>
 <defs>
  <style type="text/css">*{stroke-linejoin: round; stroke-linecap: butt}</style>
 </defs>
 <g id="figure_1">
  <g id="patch_1">
   <path d="m0 280.51h340.68v-280.51h-340.68v280.51z" fill="none"/>
  </g>
  <g id="axes_1">
   <g id="PatchCollection_1">
    <defs>
     <path id="m153a8d0042" d="m318.11-164.23 0.11123 0.32037 0.23018 0.17794 0.11525 0.25198 0.079514 0.52165-0.053004 0.50771-0.22879 0.66238-0.85794 1.1572-1.3539 1.1156-1.7143 1.05-1.9586 0.98213-2.1147 0.91982-2.208 0.86492-2.2585 0.81672-4.566 1.506-4.5402 1.3398-2.2419 0.59811-2.2166 0.53808-2.1865 0.4634-2.1506 0.36868-1.8316 0.2145-5.4958 0.31557-3.7439 0.33637-1.9592 0.22892-7.4036 0.98664-1.005 0.16301-2.1688 0.43126-2.0359 0.47597-2.9064 0.75301-3.3755 0.97514-2.2945 0.76429-2.44 0.89269-0.95631 0.38375-1.469 0.65963-2.0855 1.0713-2.1559 1.2864-2.9044 2.0074-0.95294 0.70906-0.88084 0.72343-1.1566 1.0752-2.7603 2.8328-1.9028 1.8036-0.78654 0.79179-1.6353 1.8035-2.2416 2.6767-0.83473 0.91842-3.3463 3.4582-2.0584 1.9393-1.6489 1.4041-0.84231 0.66287-1.5966 1.162-1.0881 0.73143-2.1497 1.3298-1.9742 1.1143-1.934 1.0083-1.4033 0.64682-11.95 5.0883-2.186 0.79798-2.5545 0.71846-1.3353 0.44316-1.2815 0.49058-0.8598 0.3585-0.82841 0.41343-0.92972 0.60928-0.83523 0.69382-0.78527 0.78767-0.95663 1.1675-0.83124 1.2671-0.63436 1.2401-0.4699 1.276-0.2673 1.2913-0.028611 1.5703 0.034555 0.4404 0.35924 2.8309 0.20396 2.1682 0.11086 0.81439 0.4236 1.7319 0.80123 2.518 0.46013 1.7866 0.25986 1.8228-0.059974 1.8252-0.44059 1.7071-0.75529 1.6849-0.99044 1.6671-1.164 1.6527-1.2905 1.6408-1.3815 1.6304-1.4462 1.6207-3.0148 3.2107-2.8796 2.9296-2.705 2.6258-1.3745 1.2682-4.4445 3.8629-1.1563 1.0935-1.1328 1.1339-1.594 1.7044-1.5505 1.7718-1.5123 1.8289-1.476 1.8792-3.9984 5.4048-3.0059 3.7634-1.5838 1.8951-3.259 3.7885-3.2109 3.6413-4.0247 4.4782-3.4318-5.8961-3.6525-6.1448-2.1801-4.1471-1.7749-3.2081-12.427-21.763-0.025705-0.10705 0.084943-0.13887 0.365-0.27082 0.7038-0.34397 1.0544-0.39958 3.7933-1.1893 4.7062-1.3433 4.4495-1.3357 1.3674-0.4953 1.0881-0.49054 0.93378-0.50749 0.94302-0.61351 0.87452-0.67163 0.54971-0.52101 0.558-0.69179 0.31641-0.53495 0.18828-0.47094 0.1138-0.63044-0.067398-0.81572-0.30852-1.0445-0.77056-1.8021-1.4678-3.0591-1.3529-2.9604-1.1161-2.7471-0.66352-1.815-0.62383-1.8481-1.1315-3.7593-1.0078-3.8464-1.6099-6.4324-0.50699-1.8804-0.94527-3.2324-1.6154-5.0473-4.7406-13.952-2.1494-6.684-0.28426-0.56158-0.10198-0.12878-0.2259-0.2039-0.36109-0.18233-0.35348-0.081331-0.54581-0.028267-0.66115 0.047507-1.0197 0.15136-3.5901 0.63931-1.5516 0.19899-2.3289 0.13202-2.1197-0.02491-2.1753-0.12555-2.2124-0.20421-2.2359-0.26648-2.2494-0.31728-4.511-0.76269-4.4933-0.9321-2.2291-0.54343-2.4847-0.68175-10.406-3.1403-3.2361-0.85514-3.0683-0.66276-1.544-0.26524-1.7377-0.23602-1.7438-0.1731-1.5465-0.10396-3.22-0.10572-4.8968-0.084911-1.5535-0.074424-1.5274-0.13033-1.6334-0.23522-1.5783-0.36801-1.3946-0.49686-1.1192-0.56-1.0733-0.67827-0.91449-0.68172-0.89085-0.74943-1.7054-1.6636-1.3756-1.5565-1.333-1.6789-1.2925-1.784-1.2492-1.8755-1.3227-2.1578-1.2672-2.2175-1.2086-2.232-1.1346-2.1838-2.5366-5.0744-0.28501-0.44528-0.001938-0.082972 0.2973-0.42458 0.55303-0.63486 2.9854-3.1672 1.2708-1.4083 0.86216-1.0309 0.70346-0.91362 0.85079-1.2256 1.0896-1.7578 1.1052-1.9539 0.91743-1.7942 0.83228-1.853 0.65481-1.6782 2.8599-8.2019 0.51826-1.6353 1.4937-5.0601 1.8221-7.0346 0.56307-1.621 0.32078-0.73407 0.40309-0.78621 0.50903-0.83445 0.78375-1.0367 0.4248-0.46422 0.775-0.72617 1.1121-0.8871 0.78972-0.56675 2.9237-1.9476 1.1343-0.82694 0.78916-0.6695 0.44661-0.42994 0.44946-0.48639 0.45523-0.56941 0.64219-1.0071 0.65901-1.5068 0.46922-1.5978 0.70818-3.2454 0.40144-1.5335 0.54653-1.3887 0.78846-1.1672 1.1524-0.91017 1.4442-0.65218 1.6663-0.45485 1.8336-0.30353 1.9583-0.18592 2.0499-0.091603 2.3752-0.007924 2.2423 0.081455 2.2731 0.17148 2.2867 0.26745 2.3651 0.37739 4.6901 0.83822 2.2971 0.32037 2.2311 0.14536 2.1234-0.12841 1.9583-0.51013 1.5224-0.80108 0.82532-0.60124 0.76311-0.66168 1.0272-1.0534 0.8711-1.0472 0.63841-0.87573 0.22222-0.40739 0.24727 0.26591 2.448 3.3215 1.0583 1.319 1.0966 1.255 1.1125 1.1242 1.1161 0.93004 1.1138 0.66682 1.1101 0.32146 0.57483 0.00328 0.81378-0.17398 0.88466-0.39662 0.98192-0.65528 0.84508-0.7207 0.68365-0.68068 0.91113-1.0325 0.89673-1.1316 3.2406-4.5214 1.2492-1.5954 0.91027-1.0755 1.4529-1.5858 0.88976-0.86459 0.99182-0.83655 0.92146-0.65769 0.67657-0.41629 0.86333-0.45922 0.86024-0.39566 1.877-0.76865 5.646-2.1856 3.3052-1.4796 3.549-1.7805 5.231-2.939 2.8791-1.5527 4.3597-2.1516 3.3018-1.502 0.088809 0.22929 0.74638 0.53275 1.2629 0.69088 1.6051 0.78438 4.1704 1.879 4.5634 1.9096 4.6336 1.8296 15.519 5.9413 12.122 4.7147 12.512 4.9125 12.351 4.9416 7.9909 3.1533 19.692 7.6702 21.902 8.4672 6.4941 2.5491 6.2943 2.6174 5.3876 2.3506 3.5434 1.6769 1.7837 0.92576 1.731 0.97253 1.6242 1.0006 1.5373 1.0556 1.4232 1.1188 1.2725 1.1947 1.0737 1.2881 0.92403 1.5869 0.62159 1.6655 0.3295 1.6762 0.024765 1.6187-0.28005 1.5697-0.38512 1.5362-0.23165 1.6095 0.1179 1.6908 0.42988 1.8314 0.67768 1.9462 0.87242 2.0377 1.0219 2.1053 1.1302 2.1445 2.4112 4.2355 1.1688 1.951 2.0958 3.3724" stroke="#bdc660"/>
    </defs>
    <g clip-path="url(#p7a793c713e)">
     <use y="280.512" fill="#bdc660" stroke="#bdc660" xlink:href="#m153a8d0042"/>
    </g>
   </g>
  </g>
 </g>
 <defs>
  <clipPath id="p7a793c713e">
   <rect x="7.2" y="7.2" width="326.28" height="266.11"/>
  </clipPath>
 </defs>
</svg>
