<?xml version="1.0" encoding="UTF-8"?>
<!DOCTYPE svg  PUBLIC '-//W3C//DTD SVG 1.1//EN'  'http://www.w3.org/Graphics/SVG/1.1/DTD/svg11.dtd'>
<svg width="301.8pt" height="280.51pt" version="1.1" viewBox="0 0 301.8 280.51" xmlns="http://www.w3.org/2000/svg" xmlns:xlink="http://www.w3.org/1999/xlink">
 <metadata>
  <rdf:RDF xmlns:cc="http://creativecommons.org/ns#" xmlns:dc="http://purl.org/dc/elements/1.1/" xmlns:rdf="http://www.w3.org/1999/02/22-rdf-syntax-ns#">
   <cc:Work>
    <dc:type rdf:resource="http://purl.org/dc/dcmitype/StillImage"/>
    <dc:date>2024-07-04T12:09:41.044952</dc:date>
    <dc:format>image/svg+xml</dc:format>
    <dc:creator>
     <cc:Agent>
      <dc:title>Matplotlib v3.7.1, https://matplotlib.org/</dc:title>
     </cc:Agent>
    </dc:creator>
   </cc:Work>
  </rdf:RDF>
 </metadata>
 <defs>
  <style type="text/css">*{stroke-linejoin: round; stroke-linecap: butt}</style>
 </defs>
 <g id="figure_1">
  <g id="patch_1">
   <path d="m0 280.51h301.8v-280.51h-301.8v280.51z" fill="none"/>
  </g>
  <g id="axes_1">
   <g id="PatchCollection_1">
    <defs>
     <path id="m84401146a5" d="m281.54-236.17-11.835 16.724-4.7092 6.5635-3.6669 4.9509-3.3938 4.7919-1.3245 1.8892-7.5234 10.973-4.1558 5.9213-4.8943 6.7685-15.207 20.779-6.4347 8.9103-9.5627 13.347-12.085 17.337-3.1227 4.4042-2.029 2.7879-3.9915 5.3064-4.2928 5.5237-4.567 5.7465-7.4487 9.2903-5.784 7.42-4.8966 6.215-1.5632 1.9155-1.2831 1.5038-1.1545 1.3916-2.0694 2.5837-11.991 15.225-5.7859 7.278-5.4444 6.7595-3.4658 4.1482-1.177 1.3356-1.1958 1.2939-1.2215 1.235-1.0493 0.97935-1.0591 0.926-1.0551 0.87329-2.0427 1.5703-0.84406 0.58823-0.70968 0.42038-0.8325 0.35992-0.83188 0.20768-1.0048 0.097845-1.1592-0.024479-1.3072-0.11911-1.1715-0.15453-2.6041-0.40603-1.5555-0.18981-1.3629-0.083611-1.8836-0.019822-3.995 0.098274-4.1447 0.23181-3.506 0.27618-3.9235 0.42971-4.633 0.46467-0.63503 0.033153-0.59189-0.018503-0.23614-0.073232-0.18222-2.8668-0.24637-5.7735-0.31315-10.882-0.18661-10.79 0.004884-3.635 0.061338-4.0252-0.005896-1.6892-0.038153-1.6868-0.078239-1.6809-0.16569-2.0252-0.19613-1.5401-0.26387-1.476-0.22914-0.98846-0.28744-1.0259-0.57117-1.6242-0.72736-1.6116-0.52782-1.0012-0.56938-0.98348-0.6921-1.1003-0.72992-1.0828-1.4308-1.9831-2.7476-3.6048-4.3133-5.4831-5.6545-6.9816-3.4388-4.1359-2.3488-2.6888-1.2082-1.303-1.2432-1.2598-1.2916-1.1998-1.3573-1.1176-1.4837-1.0494-1.5502-0.96871-4.827-2.7245-1.5988-0.94008-1.5547-1.006-1.4802-1.1091-0.43287-0.36701-0.82079-0.76564-0.66013-0.68031-0.92659-1.0424-1.2508-1.5324-2.8098-3.6038-0.53258-0.64402-0.99077-1.1148-0.67986-0.69432-0.69738-0.64471-0.71519-0.58403-0.72846-0.50971-1.264-0.68461-1.1702-0.43851-0.92419-0.19303-0.47827 0.083532-1.5922-8.0961-0.6638-3.8031-0.2642-1.7062-0.42979-3.3725-0.14909-1.6631-0.094232-1.5754-0.075772-2.1188-0.038747-3.803 0.032099-3.7466 0.50611-27.443 0.089676-3.6274 0.16025-3.6005 0.13194-1.7806 0.18824-1.7591 0.26841-1.7285 0.38072-1.6855 0.5358-1.6258 0.7265-1.5528 0.88483-1.4934 1.0026-1.4513 1.0897-1.4228 1.1542-1.405 1.2023-1.3955 2.5062-2.7885 13.324-14.335 4.4401-4.8179 0.59976-0.11198 2.7139-0.90817 3.6171-1.3016 11.457-4.2108 3.6637-1.2952 1.8026-0.60236 1.7871-0.55906 1.7746-0.50105 1.765-0.42298 1.7584-0.31799 1.7547-0.17746 1.559-0.015676 1.5566 0.094569 1.6942 0.19455 1.6513 0.2629 1.649 0.3212 1.8171 0.40439 3.1235 0.75198 16.361 4.142 5.0309 1.1834 1.6777 0.35005 1.6784 0.3122 1.6795 0.2602 1.6809 0.18965 1.6829 0.095094 1.4054-0.007924 1.4072-0.074595 2.218-0.21438 1.5737-0.20381 3.147-0.49072 6.2658-1.1282 2.2802-0.37463 2.6072-0.35574 2.7767-0.26369 2.1564-0.11662 3.4165-0.064378 3.4317 0.025685 8.5907 0.17859 2.3937 0.011886 1.3855-0.023059 1.3719-0.056504 1.1356-0.080857 1.1189-0.11833 1.7048-0.27649 1.2907-0.30893 1.012-0.32468 0.65826-0.2631 1.2811-0.64087 1.0715-0.68658 0.5695-0.43191 0.85733-0.75646 0.69772-0.7204 0.79913-0.95194 0.41553-0.5796 0.61189-1.0604 0.61211-1.3979 0.54509-1.5508 0.81358-2.6065 1.2847-3.9144 1.4148-4.5427 0.25639-0.68694 0.27712-0.58457 0.31993-0.52463 0.31858-0.39734 0.39243-0.36665 0.34757-0.2374 1.1114-0.40764 1.3147-0.13304 1.4634 0.067134 1.5706 0.2108 1.6466 0.31212 1.6994 0.38215 1.7353 0.42937 3.533 0.9396 16.085 4.4425 16 4.3285 13.117 3.6207 4.1368 1.2074 5.4542 1.7213 7.5375 2.4992 14.478 4.8804" stroke="#bdc660"/>
    </defs>
    <g clip-path="url(#pcbe51447dd)">
     <use y="280.512" fill="#bdc660" stroke="#bdc660" xlink:href="#m84401146a5"/>
    </g>
   </g>
  </g>
 </g>
 <defs>
  <clipPath id="pcbe51447dd">
   <rect x="7.2" y="7.2" width="287.4" height="266.11"/>
  </clipPath>
 </defs>
</svg>
