<?xml version="1.0" encoding="UTF-8"?>
<!DOCTYPE svg  PUBLIC '-//W3C//DTD SVG 1.1//EN'  'http://www.w3.org/Graphics/SVG/1.1/DTD/svg11.dtd'>
<svg width="371.52pt" height="184.24pt" version="1.1" viewBox="0 0 371.52 184.24" xmlns="http://www.w3.org/2000/svg" xmlns:xlink="http://www.w3.org/1999/xlink">
 <metadata>
  <rdf:RDF xmlns:cc="http://creativecommons.org/ns#" xmlns:dc="http://purl.org/dc/elements/1.1/" xmlns:rdf="http://www.w3.org/1999/02/22-rdf-syntax-ns#">
   <cc:Work>
    <dc:type rdf:resource="http://purl.org/dc/dcmitype/StillImage"/>
    <dc:date>2024-07-04T12:09:38.878136</dc:date>
    <dc:format>image/svg+xml</dc:format>
    <dc:creator>
     <cc:Agent>
      <dc:title>Matplotlib v3.7.1, https://matplotlib.org/</dc:title>
     </cc:Agent>
    </dc:creator>
   </cc:Work>
  </rdf:RDF>
 </metadata>
 <defs>
  <style type="text/css">*{stroke-linejoin: round; stroke-linecap: butt}</style>
 </defs>
 <g id="figure_1">
  <g id="patch_1">
   <path d="m0 184.24h371.52v-184.24h-371.52v184.24z" fill="none"/>
  </g>
  <g id="axes_1">
   <g id="PatchCollection_1">
    <defs>
     <path id="ma74f2e12e7" d="m348.09-135.15-5.9432 5.136-7.1884 6.102-7.2612 6.0763-7.0482 5.7825-4.2202 3.352-8.2111 6.2138-5.0491 3.9088-5.3478 4.2533-3.5881 2.932-5.099 4.3467-1.662 1.4936-2.4503 2.3071-2.648 2.6987-1.2542 1.398-1.8101 2.2478-1.2188 1.7448-1.1358 1.8022-2.1203 3.7015-4.6814 8.7252-1.1903 2.0639-1.3572 2.153-1.4734 2.055-1.6337 1.916-0.71432 0.72267-2.0228 1.7839-2.1903 1.6503-2.3207 1.5564-2.4237 1.4936-5.0833 2.8905-6.3866 3.3862-19.811 10.03-1.9995 1.0717-1.4138-2.4134-2.3573-3.7247-2.2016-3.19-2.1973-2.9721-2.2932-2.9189-1.6948-2.0571-1.7008-1.9753-2.3662-2.5787-1.3454-1.3635-1.3398-1.2654-1.2041-1.0415-1.2025-0.93055-1.4129-0.92464-1.4171-0.70795-1.3082-0.42107-0.9303-0.15052-2.0122-0.027191-1.2159 0.10842-1.5861 0.2215-5.1316 0.84776-1.7113 0.33714-3.0502 0.71623-2.2561 0.60427-2.0991 0.64027-2.4301 0.87341-2.9309 1.206-2.8603 1.3253-4.4552 2.161-1.4299 0.78122-4.0683 2.4124-2.1969 1.1843-2.311 1.1727-4.1588 1.9779-4.9448 2.2015-2.2433 1.046-3.4585 1.8234-3.7518 2.1129-5.0329 2.6224-2.7398 1.1752-3.6494 1.3401-1.8265 0.71718-1.6738 0.74015-2.7696 1.3552-3.405 1.8414-2.8517 1.7038-3.0021 2.0037-4.16 2.9049-0.66342 0.43513-0.92414 0.52488-0.93652 0.40149-0.75132 0.22153-0.63169 0.11518-1.095 0.036875-0.75071-0.092913-1.265-0.33749-1.4302-0.59874-0.7246-0.3832-0.77928-0.50037-1.3692-1.1856-1.2981-1.4741-1.2437-1.6924-1.2024-1.8557-1.1715-1.9764-1.2927-2.3273-7.876-14.963-2.6159-4.6823-1.363-2.2575-1.4201-2.1664-1.4989-2.0369-1.6063-1.8557-1.751-1.6052-1.1389-0.81271-1.1978-0.69464-0.84435-0.40602-1.1421-0.44842-0.84071-0.25885-1.1445-0.25733-1.7877-0.19835-2.1137-0.002064-4.8856 0.33015-3.4598 0.32929-1.2504 0.043138-1.3568-0.10952-0.56902-0.1465-0.60406-0.26449-0.57724-0.3967-0.92328-1.0831-0.76458-1.4467-0.63666-1.6783-0.53211-1.7605-1.0051-3.7002 0.072438-0.63131-0.10831-1.1457-0.25294-1.4527-0.38448-1.5882-0.21884-0.7307-0.53545-1.4221-0.60517-1.2218-0.35421-0.57836-0.73393-1.0015-0.8418-0.89324-1.1137-0.87813-0.95868-0.60528-2.775-1.5678-1.0366-0.68353-0.9692-0.7929-1.2611-1.4172-1.092-1.6619-0.95993-1.8325-0.85693-1.9409-0.57456-1.4996-0.76523-2.5043-0.4209-1.7354-0.35243-1.762-0.26189-1.6085-0.36704-3.1662-0.10462-1.5361-0.04482-1.6033 0.043124-1.5492 0.28446-2.1851 0.3401-1.2204 0.50564-1.129 0.73514-1.0771 1.3344-1.3642 1.1987-0.95556 1.3184-0.90972 2.6791-1.6369 6.9872-3.9245 13.13-7.1186 4.7763-2.6503 4.5301-2.6466 2.125-1.3238 2.12-1.4079 1.9927-1.4485 1.818-1.502 1.5801-1.5727 1.2595-1.6662 0.83172-1.7892 0.32615-1.9566-0.066995-2.0658-0.30066-2.1258-0.73022-4.2453-0.14586-2.0204 0.20893-1.874 0.62652-1.5256 1.0402-1.2782 1.4756-1.0086 1.8014-0.74202 2.0497-0.54047 2.2384-0.38981 2.3818-0.27852 2.4917-0.19739 2.5772-0.13913 2.6455-0.098021 6.2498-0.13231 27.825-0.26586 4.8776-0.096984 8.2334-0.14037 18.86-0.42199 42.33-1.177 9.9611-0.18422 5.4148 0.009989 2.7042 0.054491 5.1599 0.22938 5.144 0.40734 2.2607 0.24716 4.5053 0.61621 4.4792 0.78022 4.9787 1.0823 4.9474 1.2407 7.2764 2.0325 91.238 27.471" stroke="#bdc660"/>
    </defs>
    <g clip-path="url(#pe6dda23c54)">
     <use y="184.235986" fill="#bdc660" stroke="#bdc660" xlink:href="#ma74f2e12e7"/>
    </g>
   </g>
  </g>
 </g>
 <defs>
  <clipPath id="pe6dda23c54">
   <rect x="7.2" y="7.2" width="357.12" height="169.84"/>
  </clipPath>
 </defs>
</svg>
