<?xml version="1.0" encoding="UTF-8"?>
<!DOCTYPE svg  PUBLIC '-//W3C//DTD SVG 1.1//EN'  'http://www.w3.org/Graphics/SVG/1.1/DTD/svg11.dtd'>
<svg width="242.32pt" height="280.51pt" version="1.1" viewBox="0 0 242.32 280.51" xmlns="http://www.w3.org/2000/svg" xmlns:xlink="http://www.w3.org/1999/xlink">
 <metadata>
  <rdf:RDF xmlns:cc="http://creativecommons.org/ns#" xmlns:dc="http://purl.org/dc/elements/1.1/" xmlns:rdf="http://www.w3.org/1999/02/22-rdf-syntax-ns#">
   <cc:Work>
    <dc:type rdf:resource="http://purl.org/dc/dcmitype/StillImage"/>
    <dc:date>2024-07-04T12:09:39.850281</dc:date>
    <dc:format>image/svg+xml</dc:format>
    <dc:creator>
     <cc:Agent>
      <dc:title>Matplotlib v3.7.1, https://matplotlib.org/</dc:title>
     </cc:Agent>
    </dc:creator>
   </cc:Work>
  </rdf:RDF>
 </metadata>
 <defs>
  <style type="text/css">*{stroke-linejoin: round; stroke-linecap: butt}</style>
 </defs>
 <g id="figure_1">
  <g id="patch_1">
   <path d="m0 280.51h242.32v-280.51h-242.32v280.51z" fill="none"/>
  </g>
  <g id="axes_1">
   <g id="PatchCollection_1">
    <defs>
     <path id="m0c1c2439f0" d="m224.58-111.12-3.8732 0.077013-22.095 0.21111-4.9629 0.10506-2.1007 0.077837-2.0465 0.11048-1.9786 0.15674-1.8913 0.22117-1.7774 0.30954-1.6276 0.42918-1.4305 0.58922-1.1717 0.80094-0.82602 1.015-0.4975 1.2114-0.16591 1.4881 0.11582 1.6043 0.57985 3.3711 0.23874 1.688 0.053199 1.6404-0.25899 1.5537-0.66045 1.4208-1.0002 1.3231-1.2548 1.2489-1.4436 1.1927-1.5824 1.1503-1.6834 1.118-1.6874 1.0512-3.5973 2.1016-3.7928 2.1046-10.426 5.6527-5.5484 3.1164-2.1274 1.2998-1.0469 0.72239-0.95184 0.75879-1.0596 1.0833-0.58376 0.85528-0.40152 0.89655-0.27007 0.9691-0.22588 1.7351-0.034243 1.2302 0.03559 1.2732 0.083075 1.2198 0.29146 2.5142 0.20796 1.2773 0.27986 1.3992 0.33422 1.3781 0.60765 1.9886 0.45624 1.1908 0.68047 1.5413 0.76226 1.4551 0.86711 1.3197 1.0014 1.1253 0.76962 0.62962 0.82312 0.54278 2.2036 1.245 0.76127 0.48064 0.88434 0.6973 0.66846 0.7093 0.5828 0.79531 0.28127 0.45927 0.48056 0.97018 0.42519 1.1293 0.17377 0.58023 0.30531 1.2612 0.20086 1.1536 0.086006 0.90977-0.057521 0.50131-3.9177 3.679-1.4353 1.2698-1.4211 1.1747-1.3522 1.0043-1.1987 0.72211-1.1243 0.42344-1.0316 0.18143-0.81857 0.045049-0.82275-0.036944-1.2364-0.20757-2.4715-0.59035-1.2659-0.16808-1.255 0.025662-1.2656 0.18254-1.2482 0.29121-2.5556 0.8029-1.2512 0.34486-1.1494 0.10239-0.86589-0.16778-2.5794-1.0384-0.72835-0.17927-0.76118-0.11559-2.5567-0.21421-2.2324-0.35973-0.79692-0.068159-0.83613-0.020953-0.96615 0.035202-0.99319 0.11261-1.577 0.35744-1.4307 0.49081-0.93057 0.39114-1.5543 0.75153-0.91631 0.49004-5.0872 3.0016-0.98194 0.54439-0.76118 0.38204-1.1294 0.4542-1.2313 0.28934-0.94488-0.017574-0.88259-0.36837-0.7499-0.59773-0.73652-0.64898-0.84128-0.52755-0.87668-0.25629-0.99848-0.12671-2.2017-0.20708-1.1303-0.25335-0.74335-0.27658-1.3517-0.66945-4.4235-2.4312-1.047-0.41858-1.2901-0.26161-1.2912-0.075014-0.75376 0.008012-0.72147 0.060251-0.91426 0.18429-1.7343 0.46647-1.1052 0.11825-1.1242-0.16693-0.9784-0.33697-1.1193-0.50435-2.2184-1.2672-1.913-0.92782-1.5975-0.68964-0.85696-0.32548-0.89708-0.27115-1.6114-0.28391-1.7588-0.10817-1.853 0.030676-1.8844 0.13621-1.625 0.18308-1.5134 0.22115-1.3028 0.23599-0.95824 0.22056-0.32438 0.10312-0.11408 0.074176-0.45139-0.68318-0.75708-1.3339-1.9412-3.7189-1.0165-2.0928-0.97691-2.1333-0.70313-1.6428-0.8041-2.0851-1.0486-3.2859-0.49009-1.7889-0.37444-1.7538-0.51702-3.7312-0.30346-1.6424-0.52186-1.7543-0.71069-1.7483-0.85681-1.7351-0.97066-1.7139-1.0608-1.6833-0.97837-1.421-0.86434-1.1653-1.1366-1.4229-3.5986-4.1275-0.88108-1.1284-0.74888-1.1544-0.72534-1.5906-0.41075-1.6058-0.082143-1.5526 0.25489-1.3012 0.46286-0.918 0.73991-0.90352 1.0462-0.87462 1.0282-0.63104 0.94828-0.45604 0.93774-0.36837 1.6162-0.51444 3.8013-1.086 1.624-0.52321 1.7156-0.6203 1.695-0.69647 1.1873-0.54844 1.1634-0.59277 1.2212-0.69049 1.1834-0.74753 2.2764-1.6321 2.431-1.9049 1.9825-1.7322 1.0335-0.97643 0.90114-0.9315 0.58494-0.67496 0.72764-0.95107 0.6476-1.0072 0.4892-0.95802 0.22386-0.56078 0.29364-1.0968 0.10666-1.0729-0.014598-0.46814-0.051502-0.42771-0.16866-0.70553-0.28912-0.74053-0.29731-0.56009-0.44237-0.6563-0.6722-0.76975-0.49891-0.45761-0.52616-0.40658-0.65798-0.42133-0.7798-0.39863-1.1361-0.46455-2.5429-0.93975-0.94275-0.42692-1.4695-0.78839-1.4413-0.90999-1.4036-1.0222-1.0968-0.90596-1.0485-0.97218-0.91105-0.94186-0.9901-1.0982-2.3945-2.7307-8.7715-10.565-2.0985-2.729-1.3716-1.9885-1.1522-1.817-0.74315-1.2448-1.1881-2.1156-5.294-10.137-0.98975-2.0155 1.3532-0.63128 4.3218-1.8056 5.5565-2.3981 4.6337-2.0568 1.8631-0.76258 2.5022-0.86777 4.1512-1.2015 1.8921-0.58186 2.053-0.77536 1.3062-0.57526 2.2843-1.1517 2.0324-1.2073 1.1411-0.77125 1.0298-0.77378 0.88843-0.75578 0.85547-0.86222 0.35724-0.42892 0.4571-0.65902 0.43765-0.87364 0.25814-0.81947 0.11855-0.62882 0.057145-0.57227 0.003907-0.96213-0.15158-1.3497-0.24207-1.1437-0.30957-1.0934-0.4127-1.2155-0.59972-1.5405-1.7897-4.1388-0.44636-1.1333-0.30965-0.8983-0.26385-0.97965-0.10975-0.75622-0.006579-0.75394 0.053465-0.46277 0.15463-0.68431 0.22058-0.65287 0.52556-1.1497 0.46967-0.85289 0.82554-1.3743 0.83733-1.2068 0.56174-0.65688 0.60242-0.61161 0.85774-0.7626 1.1212-0.86832 1.5537-1.0148 0.88168-0.48695 0.93408-0.4515 1.1768-0.47417 1.3881-0.41891 0.74563-0.16031 1.4198-0.21994 2.0452-0.17412 1.3857-0.030149 1.2749 0.044677 1.3969 0.14589 1.5954 0.3268 1.0533 0.33276 0.96611 0.3984 3.4877 1.7571 1.0624 0.46312 0.88612 0.31869 0.93008 0.17016 0.57884 0.003844 2.2007-0.32565 1.234-0.070675 1.0061 0.051954 1.3776 0.19151 3.341 0.75411 0.49613 0.082063 1.1946 0.11958 1.4596 0.014565 1.598-0.11913 1.139-0.15426 0.91299-0.17248 0.74346-0.18308 1.1254-0.33111 3.4898-1.1533 1.9346-0.72866 1.2208-0.53579 2.1628-1.0476 1.5899-0.83399 5.1683-2.8577 5.9051-3.3231 5.9283-3.1018 2.497-1.3597 1.4158-0.81869 1.7565-1.1097 1.1506-0.81274 2.4006-1.8341 1.1176-0.80885 1.6175-0.9795 1.232-0.60695 2.2731-0.97058 2.9841-1.1542 4.2675-1.5142 2.1328-0.90608 2.0838-1.0276 2.0124-1.0882 2.4971-1.4702 1.3061-0.8387 1.0968-0.75424 1.7399-1.2821 1.6577-1.2886 5.7376-4.6285 2.7821-2.3764 2.6263-2.4376 5.047-5.0399 4.8316-4.6611 6.6914-6.2519 1.6218-1.4684 0.46341-0.36065-0.60589 5.0184-0.76555 7.0426-2.7074 26.883-0.49435 5.6885-0.12025 1.8844-0.0995 2.4648-0.017144 1.4104 0.038533 2.1358 0.12678 2.2277 0.21337 2.2915 0.66421 5.2253 1.3153 9.1435 0.50855 3.196 0.48606 2.2527 0.43413 1.5452 0.78533 2.2968 0.7989 1.779 2.0162 3.691 0.5184 0.83598 0.78514 0.98556 2.8755 2.8519 0.98575 1.0275 1.8356 2.0876 1.6062 2.0756 0.75776 1.0734 0.91677 1.3873 0.8809 1.4285 1.5817 2.808 2.2368 4.3946 2.884 6.0262 0.82542 1.8333 0.60964 1.497 0.35694 1.0253 0.32556 1.224 0.15522 0.823 0.21396 1.7394 0.045736 1.7714-0.027849 0.56341-0.10989 1.2101-0.15978 1.245-0.45741 2.6499-0.28778 1.189-0.34676 1.1806-0.74092 2.0832-0.73724 1.7752-1.1769 2.6529-0.36882 0.93282-0.33844 1.1893-0.041302 0.95025 0.36196 0.89212 0.58872 0.54672 0.90529 0.45663 0.84655 0.2722 2.7442 0.67236 1.0601 0.3222 1.2212 0.51942 0.82075 0.53427 0.63356 0.60002 0.53874 0.69519 0.55232 0.98599 0.27683 0.69128 0.19039 0.66854 0.10892 0.95478-0.1885 0.59335" stroke="#bdc660"/>
    </defs>
    <g clip-path="url(#p75451536be)">
     <use y="280.512" fill="#bdc660" stroke="#bdc660" xlink:href="#m0c1c2439f0"/>
    </g>
   </g>
  </g>
 </g>
 <defs>
  <clipPath id="p75451536be">
   <rect x="7.2" y="7.2" width="227.92" height="266.11"/>
  </clipPath>
 </defs>
</svg>
