<?xml version="1.0" encoding="UTF-8"?>
<!DOCTYPE svg  PUBLIC '-//W3C//DTD SVG 1.1//EN'  'http://www.w3.org/Graphics/SVG/1.1/DTD/svg11.dtd'>
<svg width="218.18pt" height="280.51pt" version="1.1" viewBox="0 0 218.18 280.51" xmlns="http://www.w3.org/2000/svg" xmlns:xlink="http://www.w3.org/1999/xlink">
 <metadata>
  <rdf:RDF xmlns:cc="http://creativecommons.org/ns#" xmlns:dc="http://purl.org/dc/elements/1.1/" xmlns:rdf="http://www.w3.org/1999/02/22-rdf-syntax-ns#">
   <cc:Work>
    <dc:type rdf:resource="http://purl.org/dc/dcmitype/StillImage"/>
    <dc:date>2024-07-04T12:10:02.300165</dc:date>
    <dc:format>image/svg+xml</dc:format>
    <dc:creator>
     <cc:Agent>
      <dc:title>Matplotlib v3.7.1, https://matplotlib.org/</dc:title>
     </cc:Agent>
    </dc:creator>
   </cc:Work>
  </rdf:RDF>
 </metadata>
 <defs>
  <style type="text/css">*{stroke-linejoin: round; stroke-linecap: butt}</style>
 </defs>
 <g id="figure_1">
  <g id="patch_1">
   <path d="m0 280.51h218.18v-280.51h-218.18v280.51z" fill="none"/>
  </g>
  <g id="axes_1">
   <g id="PatchCollection_1">
    <defs>
     <path id="m49357f0eab" d="m137.22-241.2-0.26595 0.49581-0.22438 0.97025-0.1686 1.5984-0.009509 0.7979 0.050928 0.88624 0.15945 1.0944 0.2511 1.1022 0.31642 1.0926 0.66257 1.9496 0.64191 1.7246 0.66532 1.4531 0.54114 1.0074 0.58749 0.85559 0.6892 0.65614 0.1658 0.10962 0.93434 0.39594 0.73479 0.15209 0.7671 0.079889 1.8428 0.10006 0.9709 0.11411 0.8454 0.20938 0.72621 0.34763 0.62246 0.59638 0.42484 1.1393 0.004647 1.1527-0.15532 0.78559-0.18758 0.58811-0.37985 0.87945-0.42494 0.79988-1.7001 2.8142-0.75492 1.3338-1.3948 2.7027-2.9091 6.2869-1.1112 2.6705-0.56453 1.9309-0.99573 4.3405-0.1193 0.80674-0.044193 0.69376 0.020988 0.69746 0.096596 0.71473 0.11204 0.4815 0.49058 1.2793 0.70807 1.2478 0.93796 1.3351 2.0619 2.6551 1.7159 2.3622 1.0084 1.6087 0.73864 1.6513 0.20112 0.71854 0.24334 1.4 0.35428 3.1218 0.17648 1.0248 1.213 6.25 0.57864 2.2759 0.87821 2.9547 0.42987 1.9426 0.56524 2.2603 0.33265 1.1107 0.54901 1.4517 0.72333 1.4151 1.9659 2.8834 6.5036 10.678 0.70686 1.2488 0.53422 1.1181 0.67075 1.8332 0.42006 1.8589 0.27442 1.911 0.22501 2.343 0.13335 2.5375 1.61e-4 2.3619-0.15257 2.1311-0.41629 2.9859-0.098796 1.4201 0.10829 1.6774 0.22248 1.2099 0.30344 1.1876 0.57456 1.8248 2.4224 6.657 0.89814 2.8508 0.61674 2.3752 0.33944 1.6414 0.28759 1.7843 0.80741 7.0712 0.20215 1.327 0.2598 1.3036 0.32149 1.2164 0.46175 1.3302 0.57736 1.3266 0.89901 1.666 1.1432 1.7056 0.95276 1.2184 3.8646 4.5502 1.1791 1.2548 1.0833 0.98856 1.5938 1.1203 1.4109 0.68852 2.4544 0.77816 2.5986 0.48468 2.1576 0.23999 2.8431 0.15604 1.7427 0.022119 2.8379-0.070201 3.2349-0.19129-1.1243 0.6133-3.4264 1.5872-4.1076 1.814-6.2842 2.6832-6.4119 2.598-2.673 1.0133-3.0064 1.0749-3.5021 1.1551-2.1107 0.64252-6.3085 1.7629-6.3015 1.5954-6.6035 1.5217-2.6215 0.54778-4.8381 0.85795-3.944 0.51989-2.1814 0.18707-2.7765 0.092935-1.555-0.019212-2.7526-0.12405-2.5781-0.19576-6.1138-0.58555-2.4592-0.18973-2.6411-0.0959-2.7754 0.086222-2.3208 0.26884-2.1775 0.46881-1.655 0.52026-0.94843 0.37094-1.0163 0.47559-0.79936 0.45723-1.3652 1.0067-1.2699 1.1696-0.85396 0.88323-0.82159 0.94381-0.99145 1.3159-0.91732 1.4149-1.0186 1.8181-0.84897 1.7345-1.8384 4.3613-0.8399 1.855-0.77307 1.5111-1.0538 1.7761-1.2586 1.774-1.2082 1.4421-1.7392 1.7341-1.9049 1.5273-1.9897 1.2099-1.0847 0.49362-1.3742 0.46019-1.3281 0.27746-1.6811 0.11344-1.5943-0.13019-1.3031-0.2613-1.3141-0.38716-1.6218-0.63957-1.8551-0.98167-0.92194-0.6192-0.84051-0.68056-0.88217-0.91222-0.49528-0.67246-0.45591-0.79011-0.63206-1.4562-1.2025-3.4498-0.29483-1.003-0.3191-1.343-0.32372-1.993-0.1855-1.9054-0.077822-1.4084-0.032689-2.4538 0.019272-5.6326-0.1139-2.226-0.15612-1.3239-0.31295-1.5792-0.27278-0.94404-0.27962-0.7465-0.45581-0.94087-0.59197-0.95085-0.59242-0.78272-0.63595-0.73116-1.3927-1.4025-2.9495-2.6289-1.5629-1.2123-1.2899-0.88744-3.7068-2.3485-2.567-1.4093-2.8341-1.2712-0.87227-0.49471-0.85893-0.59496-0.68782-0.5703-2.6055-2.512-3.5674-3.055-1.2231-1.1524-0.77817-0.83431-1.1617-1.5227-0.98376-1.4657-0.25322-0.48145-0.19168-0.49981-0.10967-0.48318-0.031739-0.42012 0.076183-0.57227 0.19408-0.49719 0.40996-0.6454 0.50336-0.56846 0.66331-0.57838 0.82597-0.62835 0.96207-0.64324 2.0983-1.279 2.9101-2.0552 1.4109-1.1022 1.3354-1.1392 7.1909-7.2505 3.1199-3.4744 1.8271-1.8157 0.98242-0.90541 0.80323-0.64097 1.1975-0.77653 3.8814-2.0434 1.1779-0.73608 0.74325-0.57415 0.39344-0.36168 0.28189-0.2981 0.48273-0.63475 0.55828-1.1199 0.3705-1.2789 0.24883-1.7294 0.081136-1.8753-0.040402-2.0556-0.12549-2.1386-0.6071-7.7717-0.087126-1.8874-0.069191-3.4725-0.11148-2.533-0.14772-1.7377-0.13345-1.1131-0.39661-2.171-0.58793-2.1256-0.79383-2.0504-1.0277-1.9409-1.0097-1.4556-1.1841-1.4122-1.3017-1.3454-1.2971-1.2085-3.0547-2.5654-10.872-8.6006-4.761-4.0482-8.5764-7.4371-1.9495-1.5534-3.6188-2.781-2.7673-2.2801-1.7038-1.5945-0.97666-1.1302-0.49537-0.75578-0.29835-0.59157-0.32265-0.95855-0.11682-1.1003 0.091416-0.75082 0.11327-0.40141 0.42353-0.90135 0.8487-1.1801 3.0681-3.3564 0.70424-0.82466 0.79564-1.0123 0.74131-1.04 0.8657-1.3522 0.82191-1.4141 2.6388-4.8951 2.8023-4.9751 2.4447-4.4565 4.6145-8.8052 4.7001-8.8405 1.2285-2.4417 0.56415-1.3043 0.054448-0.058873 0.48301 0.23814 3.8261 2.4631 1.8427 1.0836 1.9802 1.0282 2.0367 0.87316 1.7678 0.56962 1.7296 0.35596 1.4541 0.143 1.4069 0.01074 1.2862-0.098387 1.525-0.27798 1.4527-0.38916 1.4723-0.46941 1.382-0.56342 0.962-0.50985 2.0689-1.2879 1.1921-0.67864 1.2401-0.51657 0.6371-0.17005 1.074-0.16006 1.2135-0.005484 0.89886 0.07561 1.4937 0.23963 3.5085 0.79632 2.2277 0.36759 1.3942 0.14539 1.3974 0.04575 1.0903-0.058778 1.2615-0.17368 1.5573-0.36904 1.9561-0.7291 1.2154-0.64329 1.2195-0.86067 0.95097-0.90712 0.57183-0.70904 0.46565-0.70702 0.63626-1.1954 0.48216-1.1589 0.28482-0.95738 0.1872-0.99182 0.51958-5.2454 0.50159-3.3632 0.2651-1.4094 0.31122-1.3484 0.3269-1.0535 0.29166-0.70559 0.56464-1.0251 0.75687-1.0162 0.72431-0.75101 0.642-0.54074 0.93043-0.627 0.91426-0.47311 1.3757-0.50713 1.3745-0.31493 1.3809-0.14517 1.2173 0.011915 1.1128 0.13138 1.2665 0.3025 0.8854 0.3176 0.70034 0.31762 1.1238 0.63544 1.0476 0.7293 1.0344 0.8739 1.0664 1.1319 0.6928 0.87585 0.82745 1.1898 1.0822 1.7775 2.3625 4.1668 0.94672 1.4783 0.96425 1.2564 0.97465 1.039 1.0329 0.94111 1.1897 0.94042 1.2515 0.78394 1.106 0.50337 1.1275 0.36561 0.71833 0.16949 1.7008 0.2515 1.38 0.027512 0.71004-0.20549" stroke="#bdc660"/>
    </defs>
    <g clip-path="url(#p5f7aa98371)">
     <use y="280.512" fill="#bdc660" stroke="#bdc660" xlink:href="#m49357f0eab"/>
    </g>
   </g>
  </g>
 </g>
 <defs>
  <clipPath id="p5f7aa98371">
   <rect x="7.2" y="7.2" width="203.78" height="266.11"/>
  </clipPath>
 </defs>
</svg>
