<?xml version="1.0" encoding="UTF-8"?>
<!DOCTYPE svg  PUBLIC '-//W3C//DTD SVG 1.1//EN'  'http://www.w3.org/Graphics/SVG/1.1/DTD/svg11.dtd'>
<svg width="371.52pt" height="264.84pt" version="1.1" viewBox="0 0 371.52 264.84" xmlns="http://www.w3.org/2000/svg" xmlns:xlink="http://www.w3.org/1999/xlink">
 <metadata>
  <rdf:RDF xmlns:cc="http://creativecommons.org/ns#" xmlns:dc="http://purl.org/dc/elements/1.1/" xmlns:rdf="http://www.w3.org/1999/02/22-rdf-syntax-ns#">
   <cc:Work>
    <dc:type rdf:resource="http://purl.org/dc/dcmitype/StillImage"/>
    <dc:date>2024-07-04T12:10:02.023910</dc:date>
    <dc:format>image/svg+xml</dc:format>
    <dc:creator>
     <cc:Agent>
      <dc:title>Matplotlib v3.7.1, https://matplotlib.org/</dc:title>
     </cc:Agent>
    </dc:creator>
   </cc:Work>
  </rdf:RDF>
 </metadata>
 <defs>
  <style type="text/css">*{stroke-linejoin: round; stroke-linecap: butt}</style>
 </defs>
 <g id="figure_1">
  <g id="patch_1">
   <path d="m0 264.84h371.52v-264.84h-371.52v264.84z" fill="none"/>
  </g>
  <g id="axes_1">
   <g id="PatchCollection_1">
    <defs>
     <path id="m74d37d9c10" d="m304.77-244.99 16.002 11.792 1.4901 1.0233 1.2982 0.80409 1.0813 0.5626 0.54084 0.23069 0.72149 0.24672 1.2789 0.2889 0.90757 0.13209 1.8584 0.16767 3.8413 0.16134 11.352 0.25759 1.3655 0.061776 0.35675 0.25367 0.41845 0.96676 0.37363 1.4456 0.27493 1.7467 0.12613 1.5704 0.027244 1.3251-0.044121 1.3492-0.16334 1.7207-0.32987 1.9391-0.48567 1.978-0.6151 1.9617-0.36137 1.0028-0.75235 1.8701-1.7433 4.0079-0.54605 1.4043-0.38767 1.1909-0.28594 1.168-0.195 1.1627-0.41299 3.0963-0.37271 1.7693-0.44418 1.7602-0.55086 1.6666-0.7085 1.6718-0.85849 1.6394-1.0141 1.5664-0.94979 1.1992-1.0387 1.1224-1.1056 1.0445-0.69639 0.58855-1.5198 1.077-1.6537 0.97173-1.7406 0.90758-3.5877 1.7649-1.7777 0.92539-1.7203 1.0028-1.6233 1.1234-0.98932 0.81935-0.93038 0.88431-0.87148 0.94357-0.80816 1.0004-0.64532 0.91108-0.59763 0.94754-0.72182 1.2852-2.5501 4.9882-1.1328 2.0996-1.4605 2.4588-0.5847 0.89445-1.0827 1.5303-1.1069 1.3804-0.70166 0.76058-0.97073 0.92626-1.5259 1.2313-3.0353 2.1863-1.384 1.1587-0.79214 0.79993-0.66531 0.87702-0.25943 0.50584-0.20791 0.86929-0.014752 0.89766 0.031294 0.91959-0.025682 1.5932 0.078737 0.85109 0.1384 0.6425 0.24058 0.78463 0.31287 0.82466 0.48237 1.0983 0.5553 1.1432 2.2409 4.3375 2.8722 5.8629 0.78919 1.5218 0.96948 1.7212 0.49874 0.81334 0.83903 1.2474 0.67957 0.90089 1.1322 1.3171 1.9466 2.0059 0.79476 0.76216 2.3469 1.9755 0.62607 0.59941 0.51681 0.55416 0.90676 1.1237 2.5852 3.6204 0.95916 1.1407 0.92705 0.91729 0.66573 0.58708 2.6991 2.2171 0.86476 0.78778 1.167 1.2354 0.86309 1.1175 0.88553 1.4595 0.62873 1.2493 0.37438 0.98187 0.61832 2.0079 0.4203 1.2023 0.70339 1.5862 0.67726 1.1916 0.46302 0.67566 0.43525 0.56275 0.51738 0.60568 0.81625 0.87024 0.72373 0.70334 2.731 2.4388 1.1234 1.1412 0.57216 0.67366 0.36615 0.49164 0.3874 0.58421 0.46805 0.81258 0.55286 1.1296 0.49627 1.2346 1.5322 4.8901 0.67103 1.9065 1.0177 2.7083 0.54074 1.5771 0.22832 0.77199 0.12364 0.58644-0.28715 0.1993-0.41911 0.005439-0.35664-0.048383-0.76302-0.18968-0.95477-0.34907-1.5424-0.75195-0.80938-0.46178-1.3209-0.83389-0.75897-0.53431-1.1881-0.94987-0.98972-0.95803-0.65662-0.74774-0.91455-1.1953-1.5887-2.2539-0.55052-0.55272-0.27654-0.19632-0.31627-0.16422-0.39724-0.12073-0.32294-0.030109-0.49046 0.069274-0.48261 0.19936-0.31126 0.19507-0.50355 0.4134-1.1036 1.1872-0.55381 0.398-1.1039 0.66791-0.31998 0.25625-0.33058 0.34723-0.4061 0.64415-0.29568 0.73161-0.5087 1.688-0.78393 2.366-0.32439 1.3291-0.58464 2.8936-0.735 2.8875-0.32936 1.5783-0.16015 1.2319-0.18113 2.5126-0.11546 2.232-0.17445 4.9083-0.086468 1.5378-0.21301 2.531-0.22961 1.7401-0.25672 1.2369-0.22876 0.84842-0.28061 0.82888-0.34999 0.78618-0.8708 1.3412-0.89907 1.0649-2.2778 2.4916-0.9134 1.1313-0.93847 1.3979-1.5188 2.6163-0.49883 0.73778-0.51239 0.66774-2.1009 2.3537-1.0936 1.2805-1.0312 1.0966-1.1866 1.038-1.2571 0.98786-1.2509 0.94802-0.92914 0.64314-0.87545 0.52992-0.70106 0.34782-0.72159 0.26779-0.21059 0.042825-0.12692-0.0228-0.034943-0.29911-0.28755-0.39309-0.58021-0.52109-0.67366-0.45889-0.90242-0.47788-1.1947-0.47329-0.97346-0.28537-1.0412-0.22664-1.7812-0.25648-3.0538-0.28889-1.5954-0.19554-2.5916-0.50249-1.1651-0.28991-8.85-2.629-2.1449-0.54593-0.96683-0.18936-1.6609-0.1359-1.6865 0.076524-3.3347 0.47544-1.4274 0.16667-2.2113 0.1992-4.1998 0.3027-1.1732 0.18323-2.8746 0.59484-1.192 0.12882-0.61679 7.16e-4 -0.83569-0.057235-1.57-0.15237-1.3374-0.031053-2.4154 0.02277-3.2938-0.086052-2.359-0.10038-1.738-0.1068-1.7054-0.23141-1.7483-0.35391-1.7746-0.44432-1.7863-0.50884-3.5538-1.1305-2.8045-0.94909-6.2558-1.9412-3.0565-1.1313-1.3419-0.42513-1.5177-0.34543-1.0137-0.16794-1.4034-0.17795-1.6707-0.089842-3.4117-0.06361-1.9876-0.14495-1.5508-0.15309-1.4089-0.2154-1.418-0.28709-1.7568-0.4281-3.0362-0.87361-7.7634-2.5959-2.3144-0.83971-2.8151-0.91474-1.2833-0.55003-1.1176-0.74757-0.53151-0.5431-0.44208-0.58374-0.59794-0.98852-0.578-1.208-0.41256-1.0771-0.36525-1.14-0.41129-1.555-0.33757-1.6179-0.17685-1.0795-0.14015-1.0945-0.14056-1.6861-0.12729-4.8693-0.29276-7.7518-0.13332-1.4323-0.1383-0.64128-0.10701-0.32047-0.13584-0.29982-0.47013-0.66466-0.64383-0.58149-0.7562-0.51741-0.60792-0.35763-0.64731-0.29957-0.96911-0.2759-0.66294-0.10634-2.1469-0.17356-2.8107-0.35402-1.376-0.067613-1.0453 0.085642-1.964 0.25584-3.5052 0.035218-1.0823 0.079782-1.0863 0.20366-0.86227 0.27189-1.4749 0.57739-0.75787 0.23379-0.97941 0.10116-0.55136-0.04642-1.2028-0.20709-0.77653-0.081126-0.61341-0.003522-0.83773 0.047849-2.047 0.3535-2.2466 0.45957-0.99473 0.29991-0.9978 0.37465-6.7501 2.8106-0.8952 0.33821-1.6119 0.53874-1.7733 0.45579-2.9656 0.54047-2.0075 0.4549-4.2094 1.0736-3.735 0.91051-2.7008 0.71565-3.4889 0.79858-2.5414 0.66911-2.7995 0.8588-2.8899 0.97554-6.467 2.3665-2.9902 1.0415-4.3069 1.342-8.3797 2.6815-9.118 2.81-1.436 0.38468-1.2597 0.019403-1.1437-0.087733-0.89036-0.14282-1.1733-0.26108-1.1879-0.34246-1.6342-0.59152-1.0077-0.42454-1.4175-0.76317-1.2699-0.9215-1.0482-1.0604-0.58536-0.83587-0.44608-0.81622-0.29152-0.69546-0.17004-0.58061-0.1368-0.75032-0.055046-0.50986-0.055131-0.9958-0.067283-2.8029-0.09629-1.001-0.12786-0.63725-0.22882-0.7659-0.20596-0.53255-0.45126-0.90756-0.34229-0.53125-0.66904-0.81671-1.8225-1.8529-1.7248-1.9477-1.2731-1.5795-1.1459-1.5275-0.62998-0.77866-0.84111-0.84582-0.72899-0.61719-0.39874-0.27572-1.2873-0.75502-0.51544-0.3922-0.46662-0.47089-0.4241-0.62605-0.3251-0.83619-0.16459-0.74192-0.066755-1.0135 0.069535-1.1492 0.35083-2.5689 0.16106-1.7779 0.028803-1.2254-0.014368-1.6892-0.12718-2.6232-0.27298-2.559-0.38634-2.2032-0.68635-2.9652-0.55752-1.8803-0.38871-1.0822-0.38326-0.94484-0.88519-1.8705-0.58618-1.0521-0.91211-1.5141-1.2979-1.9442-0.92055-1.2034-0.92848-1.0215-1.0308-0.991-2.1992-1.9697-1.286-1.3194-1.1272-1.3544-0.85948-1.2155-0.51501-0.85212-0.34448-0.65188-0.51907-1.1651-0.34047-0.99417-0.26272-1.0092-0.24205-1.3072-0.13995-1.126-0.046025-1.1089 0.021383-0.29802 0.058216-0.18408 0.11148 0.013649 0.15825-0.058219 0.59562-0.35403 1.3982-1.0549 0.81087-0.68272 1.6883-1.5549 0.83568-0.85596 1.0037-1.147 0.6202-0.7993 0.78334-1.1444 0.60298-1.02 0.60329-1.1902 1.5115-3.4164 0.64698-1.3315 0.69566-1.2203 0.98841-1.4209 0.9269-1.0542 1.2759-1.0793 1.0199-0.60731 1.096-0.47986 1.0354-0.33458 1.073-0.24996 1.8397-0.23829 1.1672-0.043514 0.92889 0.015396 1.3556 0.079449 5.2752 0.46662 1.7848 0.10717 3.4359 0.12733 1.4352 0.084021 1.309 0.17292 1.9055 0.41659 0.65026 0.057582 0.56941-0.059793 0.63882-0.24026 0.55093-0.34169 1.0681-0.81053 0.75077-0.51298 0.75192-0.42527 1.1662-0.55182 2.7767-1.1233 1.7248-0.57715 1.1672-0.3146 1.5291-0.29319 1.3248-0.14012 0.82379-0.034475 1.3468 0.022327 1.3446 0.099263 1.384 0.15939 2.862 0.40418 1.4407 0.16464 1.2287 0.059275 1.1451-0.069018 1.0551-0.25293 0.6165-0.2885 0.56036-0.37822 0.4711-0.41924 0.46859-0.52446 0.68471-0.96077 1.5274-2.6399 1.1128-1.7691 0.517-0.88676 0.37528-0.72765 1.495-3.2213 1.2345-2.226 0.51937-1.0016 0.54116-1.301 0.30829-0.93949 0.56175-2.1318 0.40141-1.8285 0.27572-1.5095 0.30781-2.2598 0.1403-1.6522 0.16116-2.5572 0.091773-0.80235 0.10851-0.61385 0.22643-0.84102 0.11889-0.32299 0.52003-1.0047 0.69518-0.75847 0.70783-0.39066 0.79665-0.18637 1.0647 0.01328 2.2906 0.30074 1.2115-0.018703 0.87075-0.1839 1.211-0.48354 1.3286-0.81615 0.84262-0.68332 0.66604-0.65176 0.6233-0.72221 0.83822-1.1707 0.823-1.3764 0.71702-1.3718 0.57617-1.2188 0.84727-2.0187 0.40126-1.125 0.32695-1.1075 0.22129-0.98145 0.12527-0.80251 0.083426-1.0266 0.015186-1.0365-0.20535-4.133-0.025525-1.5735 0.20597-5.334 0.051127-3.5886 0.057009-1.7008 0.12702-1.4282 0.23994-1.3088 0.39844-1.1488 0.61173-0.93908 0.85501-0.68747 1.0683-0.50797 1.2338-0.40292 0.83557-0.2253 2.3596-0.50901 1.4187-0.22164 1.6631-0.17199 1.3029-0.06739 1.9343-0.012769 2.7339 0.10443 9.0044 0.67559 1.6999 0.17877 1.6291 0.26537 1.6097 0.35874 1.5839 0.44661 1.5505 0.53322 1.5079 0.62265 0.98498 0.46863 4.4302 2.3372 1.7393 0.78437 1.7813 0.57045 1.1586 0.20972 1.6069 0.11299 1.6316-0.051017 2.0893-0.2481 1.3705-0.23974 2.3493-0.53291 1.9464-0.55397 1.162-0.37575 2.1899-0.8126 1.0165-0.43641 1.0432-0.50101 0.98118-0.53492 1.0341-0.67 0.64371-0.50477 0.64679-0.57133 0.61141-0.60783 0.72081-0.82126 2.7718-3.4375 1.4674-1.6186 0.59728-0.62198 0.93068-0.86619 1.2818-0.97578 0.6462-0.40897 1.8831-0.97101 1.0198-0.56548 1.8409-1.2084 0.88204-0.5229 0.87563-0.34034 0.92089-0.18012 0.99582-0.014463 1.0061 0.088764 0.89029 0.10792 1.1706 0.25223 1.1599 0.42493 0.96927 0.54846 0.86194 0.62741 0.60735 0.51371 1.4101 1.2884 0.74536 0.59386 1.3765 0.96965 0.79846 0.41344 0.56842 0.23892 0.82544 0.27518 0.67839 0.16046 2.3731 0.39661 0.57708 0.20313 0.48878 0.30389 0.61361 0.54618 0.56548 0.66699 0.51117 0.75552 1.4485 2.6534 0.37965 0.585 0.53583 0.63177 0.81255 0.61692 0.62256 0.29956 0.6466 0.22448 1.1754 0.28764 4.1693 0.74192 1.6378 0.44251 1.3707 0.53244 0.84882 0.42913 1.3733 0.86916 0.92165 0.70196 1.1258 0.97701 3.2374 3.1543 0.6788 0.58492 0.97626 0.7162 0.90827 0.52252 0.91866 0.41516 0.71483 0.26046 1.1966 0.31332 1.1509 0.054611 0.67393-0.13755 0.64974-0.26457 0.95727-0.65099 0.74112-0.7658 0.50639-0.69609 0.49625-0.86437 0.37013-0.79558 0.39885-1.0408 0.98233-3.0104 0.64279-1.6478 0.44643-0.93234 0.88242-1.6538 0.46156-0.97624 0.29366-0.7226 0.3372-0.97978 0.61127-1.9965 0.46609-1.2223 0.42899-0.86561 0.7553-1.1698 0.73567-0.8903 0.76706-0.77542 1.0689-0.91967 1.3108-0.96588 1.2653-0.82959 1.4421-0.883 2.9847-1.7356 2.5685-1.3974 1.5607-0.7659 2.4433-1.1145 0.93149-0.49397 1.9649-1.1302 1.5832-0.82326 1.155-0.5159 0.55282-0.18646 1.1139-0.23899 1.2103-0.12407 1.7095-0.05619 3.7929-0.044727 2.24-0.068041 6.1166-0.36831 1.7106 0.033046 1.6104 0.2138 1.3706 0.34019 0.98063 0.37404 0.37087 0.30502" stroke="#bdc660"/>
    </defs>
    <g clip-path="url(#pc110a7647a)">
     <use y="264.843838" fill="#bdc660" stroke="#bdc660" xlink:href="#m74d37d9c10"/>
    </g>
   </g>
  </g>
 </g>
 <defs>
  <clipPath id="pc110a7647a">
   <rect x="7.2" y="7.2" width="357.12" height="250.44"/>
  </clipPath>
 </defs>
</svg>
