<?xml version="1.0" encoding="UTF-8"?>
<!DOCTYPE svg  PUBLIC '-//W3C//DTD SVG 1.1//EN'  'http://www.w3.org/Graphics/SVG/1.1/DTD/svg11.dtd'>
<svg width="283.62pt" height="280.51pt" version="1.1" viewBox="0 0 283.62 280.51" xmlns="http://www.w3.org/2000/svg" xmlns:xlink="http://www.w3.org/1999/xlink">
 <metadata>
  <rdf:RDF xmlns:cc="http://creativecommons.org/ns#" xmlns:dc="http://purl.org/dc/elements/1.1/" xmlns:rdf="http://www.w3.org/1999/02/22-rdf-syntax-ns#">
   <cc:Work>
    <dc:type rdf:resource="http://purl.org/dc/dcmitype/StillImage"/>
    <dc:date>2024-07-04T12:09:58.946613</dc:date>
    <dc:format>image/svg+xml</dc:format>
    <dc:creator>
     <cc:Agent>
      <dc:title>Matplotlib v3.7.1, https://matplotlib.org/</dc:title>
     </cc:Agent>
    </dc:creator>
   </cc:Work>
  </rdf:RDF>
 </metadata>
 <defs>
  <style type="text/css">*{stroke-linejoin: round; stroke-linecap: butt}</style>
 </defs>
 <g id="figure_1">
  <g id="patch_1">
   <path d="m0 280.51h283.62v-280.51h-283.62v280.51z" fill="none"/>
  </g>
  <g id="axes_1">
   <g id="PatchCollection_1">
    <defs>
     <path id="mda4eea54c0" d="m225.89-196.81 0.021301 0.048821 0.54486 0.18122 0.88999 0.35649 2.0611 0.95714 1.4267 0.79896 1.0167 0.67721 0.90768 0.72531 0.49537 0.46846 0.63315 0.71634 0.84003 1.2844 0.5281 1.085 0.51419 1.4306 0.32007 1.233 0.17721 0.89991 0.18031 1.2345 0.15958 1.884 0.058072 1.9147-0.009101 1.896-0.17845 4.9854 0.027821 1.5705 0.13458 1.2218 0.22785 1.2179 0.24825 1.0091 0.29304 1.0046 0.38239 1.1436 0.42529 1.1339 0.70782 1.6823 0.90204 1.8984 0.87806 1.6286 0.91386 1.467 0.74351 1.0301 1.2588 1.5156 1.9577 2.1697 0.77713 1.0138 0.36998 0.54749 0.75006 1.2575 0.47463 0.89336 1.0271 2.0875 0.72266 1.6746 0.50807 1.4976 0.3945 1.4383 0.2818 1.2244 0.47243 2.4436 1.1191 6.666 1.0639 7.6262 0.29553 1.7969 0.31122 1.6515 0.69842 3.2346 0.87133 3.579 1.2189 4.5405 0.53014 1.7887 1.2259 3.7257 0.35237 1.3376 0.36734 1.7138 0.89457 4.6796 0.65184 2.7836 0.53445 2.0649 0.92456 3.1308 1.2933 4.0008 0.36774 1.2317 0.10016 0.49515-2.3394 0.92481-2.86 1.0251-1.5484 0.47923-1.571 0.41481-1.5694 0.3219-1.552 0.19884-1.5242 0.041397-1.5627-0.15188-1.5213-0.31424-1.4777-0.43014-1.4313-0.50866-3.1298-1.307-1.2593-0.4608-0.71726-0.19623-0.9701-0.17737-1.032-0.09122-0.97913-0.019289-2.186 0.088031-0.83801 0.083863-1.028 0.15128-2.9288 0.55186-0.70284 0.10366-1.675 0.13986-2.0932 0.004715-1.7331-0.12012-1.4084-0.22516-1.404-0.35213-3.2471-0.9403-1.1518-0.24926-0.74879-0.10944-1.2106-0.084699-1.0439 0.008672-1.0922 0.095896-0.96393 0.17466-0.76604 0.20633-0.86258 0.32019-0.6646 0.32759-0.84629 0.55017-0.35493 0.2996-0.47222 0.50083-0.45273 0.64781-0.31368 0.62672-0.252 0.78684-0.13309 0.91157-0.022919 0.88053 0.085545 2.7139-0.02649 1.1852-0.12125 1.3584-0.18851 1.1392-0.33778 1.3216-0.36733 0.93372-0.15623 0.27076-0.1605 0.1955-0.12919 0.086415-0.075053 0.015583-0.10696-0.02893-0.23843 0.045931-0.15342-0.020794-1.1343-0.19733-4.3643-0.99288-1.3557-0.27268-1.3602-0.21292-1.0185-0.092886-1.2873 0.00639-1.3138 0.21445-1.2456 0.49661-0.70215 0.47634-0.54202 0.52202-0.43168 0.56786-0.38506 0.6989-0.25912 0.65168-0.1511 0.49843-0.27228 1.3362-0.17524 1.4816-0.10783 1.3794-0.14289 2.8903-0.14438 1.7222-0.16727 1.0916-0.16094 0.74155-0.19081 0.69452-0.40526 1.1416-0.31709 0.69945-0.40324 0.72613-0.52304 0.79462-0.84885 1.1246-0.55902 0.66067-0.67523 0.72621-0.60539 0.59112-0.6125 0.54841-0.8351 0.68125-1.3445 0.98501-1.2504 0.81905-0.9812 0.57329-1.0447 0.54271-1.4289 0.64174-3.4595 1.268-0.68647 0.29969-0.97632 0.49019-0.63737 0.3624-0.91927 0.5854-2.6208 1.9085-1.0919 0.75015-0.83502 0.49443-0.8071 0.41119-0.64247 0.28741-1.1494 0.4476-1.2423 0.41907-1.5082 0.42825-3.3359 0.79371-2.1467 0.40954-1.4942 0.18029-0.95147 0.070311-4.7472 0.17823-1.9749 0.18572-1.3917 0.23127-1.4615 0.34969-1.2793 0.40441-1.4408 0.55806-1.3953 0.64677-1.2575 0.7046-0.66772 0.44426-0.73784 0.56098-0.50921 0.43789-0.66846 0.65651-0.51505 0.58635-0.53998 0.69993-0.40316 0.58924-0.81506 1.4127-0.57075 1.2247-1.1092 2.9389-0.23163 0.53812-0.29496 0.5726-0.25527 0.40142-0.37689 0.46401-0.40374 0.37146-0.22976 0.16786-0.61911 0.3361-0.49106 0.17274-0.37482 0.086805-0.86732 0.084174-1.0965-0.047069-2.0115-0.29257-5.3684-0.99325-1.7319-0.3561-1.5324-0.3604-1.6007-0.43336-1.3294-0.40553-3.8065-1.3288-1.7317-0.56114-11.719-3.3197-1.6569-0.51258-1.8578-0.68674-0.83889-0.35828-1.0274-0.49524-1.3401-0.78172-1.2104-0.89075-3.1592-2.7922-0.91087-0.76126-1.3535-1.0396-0.62336-0.43663-1.1906-0.7505-0.98268-0.53585-0.94504-0.44862-0.9155-0.377-0.8704-0.31404-0.98088-0.30725-0.9176-0.24533-2.1233-0.46713-5.8751-1.1528-2.3235-0.52753-1.5168-0.43604-1.1576-0.3923-1.2741-0.50769-1.1493-0.54346-0.86649-0.47102-0.94561-0.56592-3.33-2.1388-1.0468-0.58355-0.69362-0.34414-2.1295-0.90288-5.1176-1.8729-2.2329-0.92247-2.0194-0.95102-1.5541-0.82496-1.0842-0.62588-1.3236-0.82643-1.3384-0.91314-1.3997-1.0507-1.5464-1.2853-3.4122-3.0914-1.6995-1.4244-2.3248-1.7764-4.0472-2.9637-0.00424-0.057802 0.069517-0.14017 0.56245-0.72221 0.87785-0.96586 0.91321-0.92168 1.7026-1.5433 1.0039-0.81024 1.1542-0.8541 1.3395-0.89712 2.0072-1.1923 1.825-0.9914 3.0402-1.581 1.7833-1.0054 1.4982-0.97594 0.8167-0.60913 0.71033-0.58724 0.90687-0.84463 0.93022-0.97715 0.70832-0.8222 0.89673-1.1536 0.86355-1.2662 0.62837-1.0411 0.65188-1.1927 1.1177-2.2078 0.53696-0.92539 0.68442-0.93982 0.69692-0.74222 1.0463-0.91474 0.95859-0.74437 1.4514-1.0449 1.7045-1.1644 1.7107-1.096 4.511-2.6603 1.1323-0.73333 0.6516-0.4679 0.76987-0.61475 1.1522-1.1106 0.57814-0.69243 0.4617-0.64092 0.68225-1.1254 0.45159-0.9045 0.45746-1.1267 0.32066-1.0188 0.31639-1.4514 0.12929-0.95297 0.10671-1.5498 0.052496-2.4008 0.1357-1.3804 0.20873-0.97913 0.21558-0.65745 0.31879-0.67871 0.28754-0.43678 0.27394-0.31858 0.65286-0.56641 0.58266-0.39295 1.9718-1.1509 1.0552-0.76539 1.0909-0.96731 1.515-1.5676 0.93128-1.0615 0.86406-1.0538 0.64071-0.87136 0.47462-0.72758 0.97181-1.705 1.341-2.6431 0.28543-0.71724 0.21331-0.72063 0.1879-0.93983 0.10293-0.90281 0.057905-1.4043-0.071093-6.1955-0.052329-1.2335-0.074566-0.67494-0.12822-0.69584-0.43262-1.3722-0.26902-0.64595-0.49627-0.98479-0.83463-1.4372-0.96348-1.5716-0.3846-0.75686-0.17056-0.52656-0.045483-0.37184 0.005142-0.19509 0.079768-0.38538 0.17251-0.34414 0.15045-0.1844 0.2048-0.17449 0.35249-0.18841 0.74986-0.18772 0.63377-0.045649 0.79608 0.028338 1.248 0.16415 2.9933 0.64815 1.1534 0.18452 0.4322 0.02937 0.62333-0.016225 0.69109-0.13252 0.82745-0.39595 0.59363-0.49741 0.48669-0.6 0.33856-0.5957 0.18734-0.45362 0.22497-0.88273 0.072836-0.85203-0.015971-0.48284-0.085964-0.63012-0.13205-0.52713-0.21459-0.58168-0.23535-0.47065-0.25626-0.4113-0.73122-0.91551-0.53065-0.54636-0.88162-0.80441-1.6533-1.4163-0.82087-0.76865-0.76462-0.8387-0.57644-0.7706-0.35867-0.57275-0.47404-0.95068-0.20937-0.53466-0.29914-0.99584-0.15659-0.71234-0.16154-0.96442-0.24943-2.1311-0.16454-1.8018-0.11734-1.8599 0.003776-1.6383 0.068779-1.013 0.24738-1.9023 0.35552-1.8785 0.49125-2.0923 1.4907-5.8027 0.30779-1.4442 0.12193-0.7844 0.13073-1.2621 0.08526-1.5863 0.0058-1.1478-0.062088-3.2307 0.035703-1.3526 0.1218-1.478 0.21494-1.3541 0.31485-1.2611 0.29189-0.93038 0.64759-1.771 1.5369-3.9258 0.60307-1.8454 0.24221-0.89543 0.40158-1.8647 0.86287-5.317 0.51575-2.7671 1.55-6.816 2.5119-11.634 0.46281-1.9566 0.88567-3.3587 2.5783-8.7598 0.19416-0.7125 0.078548-0.41573 0.43678-0.10494 0.47686 0.19665 0.42582 0.46382 0.22159 0.47846 0.157 0.6145 0.10572 0.8874 0.037602 1.2894-0.034829 2.9675 0.020255 1.4597 0.11814 2.387 0.007265 1.7025-0.13605 1.4276-0.21814 1.2108-0.30196 1.2118-0.60321 1.8458-0.70953 1.7487-0.48298 1.0648-2.6002 5.3747-0.86638 1.8966-0.72273 1.75-0.52093 1.4807-0.3528 1.2797-0.21438 1.1261-0.10482 1.1234 0.078846 1.7072 0.34414 1.6745 0.5877 1.617 0.84478 1.6057 0.55544 0.89736 2.3882 3.5614 1.2079 1.8804 1.5905 2.6328 1.5946 2.7246 1.1152 2.2175 2.2582 5.2066 0.58783 1.1559 0.86342 1.3588 0.81205 1.0105 0.50201 0.51009 0.32122 0.27829 0.32867 0.2466 0.5417 0.3276 1.0983 0.4151 1.019 0.18691 1.131 0.064268 0.91234-0.024971 1.3298-0.11696 5.1832-0.70113 1.458-0.13346 1.088-0.044879 3.2054 0.01362 1.1792-0.037373 2.8401-0.16348 3.2444-0.26261 3.3724-0.34146 1.7835-0.21335 3.538-0.50762 2.3644-0.4143 2.4133-0.51614 2.0591-0.51279 2.6828-0.74023 3.0708-0.92683 11.653-3.7534 2.3808-0.70981 2.8955-0.77382 2.1679-0.49953 2.2659-0.42743 1.4503-0.20468 1.4269-0.12982 0.94332-0.036106 0.92654 0.011278 1.3747 0.12226 0.99568 0.18035 2.1163 0.50972 1.5444 0.33182 1.6387 0.22794 2.8944 0.29694 2.2415 0.27793 1.3557 0.23046 0.93469 0.23961 0.36419 0.12566 0.86858 0.41027 0.63596 0.40399 0.4285 0.3203 0.84364 0.76008 1.6589 1.657 0.79386 0.65804 0.68135 0.47873 0.7208 0.44313 1.7345 0.92808 0.8207 0.36263 0.88867 0.30226 0.9537 0.24228 1.1363 0.20835 1.1956 0.15177 1.2473 0.10733 1.6182 0.087503 3.9024 0.076883 5.1768-0.044559 2.7558 0.021988 2.2089 0.094946 0.5538 0.06151 0.17369 0.03571" stroke="#bdc660"/>
    </defs>
    <g clip-path="url(#p54e34780c6)">
     <use y="280.512" fill="#bdc660" stroke="#bdc660" xlink:href="#mda4eea54c0"/>
    </g>
   </g>
  </g>
 </g>
 <defs>
  <clipPath id="p54e34780c6">
   <rect x="7.2" y="7.2" width="269.22" height="266.11"/>
  </clipPath>
 </defs>
</svg>
