<?xml version="1.0" encoding="UTF-8"?>
<!DOCTYPE svg  PUBLIC '-//W3C//DTD SVG 1.1//EN'  'http://www.w3.org/Graphics/SVG/1.1/DTD/svg11.dtd'>
<svg width="279.63pt" height="280.51pt" version="1.1" viewBox="0 0 279.63 280.51" xmlns="http://www.w3.org/2000/svg" xmlns:xlink="http://www.w3.org/1999/xlink">
 <metadata>
  <rdf:RDF xmlns:cc="http://creativecommons.org/ns#" xmlns:dc="http://purl.org/dc/elements/1.1/" xmlns:rdf="http://www.w3.org/1999/02/22-rdf-syntax-ns#">
   <cc:Work>
    <dc:type rdf:resource="http://purl.org/dc/dcmitype/StillImage"/>
    <dc:date>2024-07-04T12:09:48.778433</dc:date>
    <dc:format>image/svg+xml</dc:format>
    <dc:creator>
     <cc:Agent>
      <dc:title>Matplotlib v3.7.1, https://matplotlib.org/</dc:title>
     </cc:Agent>
    </dc:creator>
   </cc:Work>
  </rdf:RDF>
 </metadata>
 <defs>
  <style type="text/css">*{stroke-linejoin: round; stroke-linecap: butt}</style>
 </defs>
 <g id="figure_1">
  <g id="patch_1">
   <path d="m0 280.51h279.63v-280.51h-279.63v280.51z" fill="none"/>
  </g>
  <g id="axes_1">
   <g id="PatchCollection_1">
    <defs>
     <path id="m3a2edf9df6" d="m253.07-86.666 0.14288 0.59146 0.041077 1.372-0.12541 1.7698-0.35534 1.9051-0.64769 1.8547-0.5433 1.0142-0.65998 0.93048-0.68395 0.75634-0.60812 0.56211-1.1482 0.89156-1.3862 0.90532-1.4597 0.84543-1.6509 0.87456-1.6821 0.71853-1.097 0.33419-1.277 0.27887-1.2097 0.16807-0.79403 0.056392-1.0458-0.00455-0.65836-0.055464-1.0351-0.17225-1.0314-0.26065-1.1991-0.39312-2.6915-1.0339-0.88906-0.28207-1.2396-0.29548-1.0048-0.15732-1.1318-0.098339-1.1447-0.02585-1.2891 0.046519-1.4713 0.12708-3.8411 0.43492-1.3768 0.19346-1.0185 0.22796-0.86194 0.33113-0.73698 0.51102-0.47713 0.61415-0.35646 0.7367-0.55982 1.5397-0.41442 0.98859-0.25959 0.49194-0.64536 0.94709-0.78137 0.90304-0.87006 0.85986-2.0668 1.9312-0.95665 1.0232-0.86654 1.0899-0.49444 0.74295-0.43059 0.76611-0.37363 0.78459-1.0288 2.4015-0.29578 0.5473-0.27901 0.42601-0.75771 0.83127-0.89001 0.61532-0.77073 0.31155-0.79872 0.12532-0.65172-0.046893-0.66462-0.15408-0.77207-0.27033-0.95443-0.44931-0.55605-0.30084-1.8217-1.1089-0.74024-0.53306-0.51267-0.43848-0.57789-0.62613-0.69147-1.0359-0.62049-1.2012-0.28078-0.68614-0.31162-0.99791-0.2177-0.98807-0.19441-1.3153-0.10524-1.2614-0.005548-1.1168 0.14444-3.0449-0.003292-1.3167-0.052528-1.0738-0.20866-2.0266-0.40319-2.3344-0.50848-1.6447-0.62565-1.1972-0.80496-1.042-0.55714-0.53289-1.066-0.71093-0.88942-0.39742-1.1247-0.33842-1.0134-0.18788-1.0643-0.099891-1.2718-0.015251-1.3497 0.079365-0.99664 0.11949-1.2495 0.22643-1.309 0.32308-1.4116 0.43836-1.0637 0.38556-1.9365 0.79971-5.9193 2.6125-1.1181 0.54021-0.95167 0.51124-2.2146 1.2815-0.7506 0.38563-0.75145 0.3404-1.8684 0.73948-1.1308 0.5429-0.49218 0.30295-0.76888 0.59988-0.73151 0.76067-0.54862 0.69923-0.59382 0.87809-0.43649 0.72918-1.1517 2.2378-2.1417 4.85-0.85304 1.6803-0.74676 1.249-1.1883 1.658-1.015 1.1716-0.73992 0.69318-0.82894 0.6281-0.8052 0.47756-0.96554 0.43638-4.3791 1.6551-1.5679 0.52467-0.89014 0.25646-2.1103 0.51708-3.3357 0.69318-1.5508 0.41596-3.6402 1.1911-0.89963 0.33022-1.1929 0.53524-1.603 0.8518-1.6551 1.032-1.269 0.93449-0.77436 0.64331-0.74949 0.68316-0.72391 0.72503-0.6917 0.76177-1.1918 1.5078-0.64983 0.94933-0.60936 0.97522-1.9112 3.3549-0.64115 1.0592-0.52726 0.79604-0.52788 0.71816-0.73299 0.89594-1.2568 1.4235-3.7691 4.0196-1.1511 1.365-1.2931 1.6072-0.72119 0.80646-0.38569 0.37586-0.99631 0.83146-1.292 0.80146-0.66022 0.26642-1.3448 0.30876-1.5269 0.072786-1.7055-0.16021-1.8959-0.3516-1.508-0.37154-1.7479-0.54194-1.6798-0.62932-1.681-0.72595-1.4388-0.69562-1.4243-0.76206-1.2996-0.76957-1.2704-0.83504-1.0854-0.7948-1.0455-0.85925-1.2826-1.2248-0.89146-0.99327-0.83398-1.0588-0.74963-1.0814-0.69354-1.1312-0.88976-1.6816-0.7726-1.7405-0.76326-2.0876-0.41107-1.31-0.7935-2.9625-0.41939-1.9948-0.12671-0.60102-0.234-0.79119-0.55419-1.6164-1.0431-2.7756-0.68771-1.9539-1.5702-5.0117-0.50861-1.2653-0.56661-1.1577-0.47969-0.83279-0.39704-0.59874-0.37525-0.50386-0.58638-0.69041-1.1513-1.1696-2.7989-2.4994-0.74173-0.72082-0.83654-0.89188-0.53025-0.62074-0.44607-0.57674-0.47454-0.69246-0.69411-1.2212-0.72088-1.6256-0.43074-1.2322-0.6337-2.0578-0.38368-1.0063-0.64436-1.2803-0.90755-1.4958-0.88455-1.1453-1.196-1.2661-0.88626-0.80737-2.7662-2.2722-0.68229-0.60167-0.9501-0.9401-0.98301-1.1691-2.6495-3.7104-0.9293-1.1517-0.52966-0.56794-0.64164-0.61432-2.4053-2.0246-0.81453-0.78112-1.995-2.0558-1.1603-1.3499-0.69646-0.92329-0.8599-1.2784-0.51114-0.83356-0.99358-1.764-0.80882-1.5596-2.9437-6.0087-2.2966-4.4453-0.56911-1.1716-0.49436-1.1256-0.32065-0.84517-0.24656-0.80414-0.14184-0.65848-0.080695-0.87225 0.02632-1.6328-0.032071-0.94246 0.015118-0.91998 0.21308-0.89091 0.26588-0.51842 0.68185-0.89882 0.81184-0.81982 1.4184-1.1875 3.1108-2.2407 1.5638-1.2619 0.99487-0.94929 0.7191-0.77949 1.1344-1.4148 1.1096-1.5684 0.59924-0.91669 1.4968-2.52 1.161-2.1518 2.6135-5.1122 0.73977-1.3172 0.61249-0.9711 0.66137-0.93374 0.82825-1.0253 0.89315-0.96704 0.95352-0.9063 1.0139-0.83973 1.6636-1.1514 1.763-1.0277 1.8219-0.9484 3.6769-1.8088 1.7839-0.93014 1.6948-0.99589 1.5576-1.1038 0.71371-0.60318 1.1331-1.0705 1.0645-1.1503 0.9734-1.229 1.0393-1.6053 0.87984-1.6802 0.72612-1.7133 0.56455-1.7081 0.45522-1.804 0.38197-1.8133 0.42326-3.1733 0.19985-1.1916 0.29305-1.197 0.39731-1.2205 0.55963-1.4392 1.7867-4.1075 0.77106-1.9166 0.37035-1.0278 0.6304-2.0105 0.49774-2.0272 0.33807-1.9873 0.16741-1.7635 0.045218-1.3827-0.027921-1.358-0.12927-1.6095-0.28176-1.7901-0.38292-1.4815-0.42885-0.9908-0.36562-0.25998 0.38487-0.26849 0.54014-0.088976 0.57041-0.007062 0.69349 0.062804 1.0591 0.20671 0.85252 0.24229 0.78508 0.28032 0.66314 0.28741 0.88438 0.46811 0.72977 0.45102 2.0932 1.5519 1.0486 0.73584 1.4753 0.78093 1.5406 0.5079 1.0657 0.17938 2.1639 0.20064 2.906 0.43607 1.4318 0.14811 1.4091-0.009975 1.0676-0.1459 0.98393-0.24325 0.95908-0.33899 0.71415-0.3199 0.72143-0.37581 2.6831-1.5166 3.3268-1.4989 1.3011-0.6763 1.2722-0.8401 1.1947-0.94432 2.032-1.7147 0.89701-0.69177 4.197-3.0811 5.3533-4.2103 3.5551-2.5036 1.4821-1.2304 1.4052-1.3598 1.316-1.4677 1.2054-1.5617 1.0621-1.6485 0.87258-1.7339 0.39594-1.0308 0.54162-1.8561 0.4001-1.8553 0.51988-2.6766 0.3323-1.3124 0.34073-1.0218 0.653-1.7336 0.66051-1.5621 0.36577-0.70898 0.46289-0.75614 0.58719-0.78927 0.42415-0.49992 0.97647-1.0296 1.0612-0.9813 0.65672-0.45066 0.13577-0.037122 3.4064-1.3807 2.0176-0.76346 1.7489-0.6143 2.0968-0.67077 2.7358-0.77093 1.8903-0.48873 3.2042-0.67235 1.804-0.32476 2.096-0.28462 1.1339-0.097245 3.9031-0.18889 0.87475-0.082732 3.4886-0.46814 1.6325-0.10062 1.0566 0.017786 0.7392 0.054262 3.5269 0.44797 1.1306 0.065429 0.8892-0.028958 0.84291-0.12541 0.61457-0.16945 0.58118-0.21767 0.54276-0.24688 0.77252-0.41226 1.3661-0.85979 2.2425-1.5551 1.1213-0.66694 0.4495-0.21107 0.64577-0.23821 0.7131-0.17487 0.76387-0.085487 0.59534 0.010981 0.51392 0.069114 0.68528 0.18601 0.84291 0.38783 0.54915 0.34536 0.74304 0.59933 0.76152 0.80835 0.57999 0.7663 0.57844 0.91544 0.73468 1.3969 0.60738 1.3999 0.46668 1.2966 0.37132 1.243 0.33384 1.4202 0.1953 1.1425 0.12296 1.0495 0.22659 2.9811 0.17774 1.6519 0.21929 1.2493 0.24704 1.0065 0.30964 0.99255 0.53852 1.37 0.6433 1.3364 0.49944 0.90836 1.1815 1.9043 2.5767 3.7373 1.5322 2.3824 0.65322 1.1369 0.62392 1.1804 2.2068 4.4564 0.66017 1.1796 0.5249 0.83737 0.595 0.85161 0.71214 0.91466 1.0933 1.2714 2.0087 2.2359 1.3983 1.7167 0.75149 1.0394 0.76024 1.1427 1.0871 1.7834 0.50058 0.89499 1.2447 2.4724 0.53095 1.2061 0.48378 1.2126 0.4613 1.2736 2.1368 6.4691 0.89653 2.288 0.82516 1.7575 0.57646 1.0417 0.63534 0.98919 0.7247 0.96628 3.204 3.8853 1.1815 1.543 1.1027 1.607 0.97655 1.6886 0.7736 1.683 0.6552 1.7494 0.57372 1.7927 1.696 5.8805 0.6099 1.8744 0.38186 1.0649 0.73556 1.8558 0.70118 1.5433 0.34418 0.65276 0.74533 1.2107 2.9203 4.352 0.75487 0.99103 0.84742 0.91596 0.87851 0.78741 1.0101 0.74934 0.9224 0.5544 1.0615 0.50134 1.0274 0.36674 3.1382 0.88468 0.86039 0.29613 0.74596 0.31713 0.53754 0.27552 0.62152 0.37662 0.69506 0.51162 0.47568 0.42373 0.52841 0.56181 0.49958 0.63374 0.44943 0.66878 0.58412 1.0592 0.39394 0.91689 0.3331 1.0507 0.30348 1.6864 0.10814 1.7268-0.088795 5.6535-0.11673 1.6766-0.23327 1.1601-0.25509 0.74174-0.26103 0.5879-0.78861 1.4455-1.3647 2.3354-0.62786 1.2549-0.50124 1.3028-0.3252 1.3038-0.21573 1.3482-0.28428 2.4079-0.45762 5.0867-0.21095 1.6321-0.44556 2.3623-0.43384 1.8856-0.26004 1.359-0.18213 1.8157-0.055824 1.8736-0.046348 3.8321-0.13792 2.1725-0.18545 1.8395-0.48477 3.1105-0.14113 1.2221-0.019097 0.36882 0.041594 1.1639 0.17876 1.0029 0.21459 0.62823 0.22966 0.37113 0.15504 0.09094" stroke="#bdc660"/>
    </defs>
    <g clip-path="url(#p720c8ce58f)">
     <use y="280.512" fill="#bdc660" stroke="#bdc660" xlink:href="#m3a2edf9df6"/>
    </g>
   </g>
  </g>
 </g>
 <defs>
  <clipPath id="p720c8ce58f">
   <rect x="7.2" y="7.2" width="265.23" height="266.11"/>
  </clipPath>
 </defs>
</svg>
