<?xml version="1.0" encoding="UTF-8"?>
<!DOCTYPE svg  PUBLIC '-//W3C//DTD SVG 1.1//EN'  'http://www.w3.org/Graphics/SVG/1.1/DTD/svg11.dtd'>
<svg width="316pt" height="280.51pt" version="1.1" viewBox="0 0 316 280.51" xmlns="http://www.w3.org/2000/svg" xmlns:xlink="http://www.w3.org/1999/xlink">
 <metadata>
  <rdf:RDF xmlns:cc="http://creativecommons.org/ns#" xmlns:dc="http://purl.org/dc/elements/1.1/" xmlns:rdf="http://www.w3.org/1999/02/22-rdf-syntax-ns#">
   <cc:Work>
    <dc:type rdf:resource="http://purl.org/dc/dcmitype/StillImage"/>
    <dc:date>2024-07-04T12:10:00.763117</dc:date>
    <dc:format>image/svg+xml</dc:format>
    <dc:creator>
     <cc:Agent>
      <dc:title>Matplotlib v3.7.1, https://matplotlib.org/</dc:title>
     </cc:Agent>
    </dc:creator>
   </cc:Work>
  </rdf:RDF>
 </metadata>
 <defs>
  <style type="text/css">*{stroke-linejoin: round; stroke-linecap: butt}</style>
 </defs>
 <g id="figure_1">
  <g id="patch_1">
   <path d="m0 280.51h316v-280.51h-316v280.51z" fill="none"/>
  </g>
  <g id="axes_1">
   <g id="PatchCollection_1">
    <defs>
     <path id="m1ea02efc57" d="m294.99-42.907-0.31589 0.19803-1.5585 0.65577-8.7105 3.0302-4.251 1.5343-1.7426 0.71736-1.5277 0.8074-0.7636 0.49913-1.117 0.86266-0.7158 0.64179-1.2294 1.2652-1.1979 1.4317-2.3302 3.0148-0.81664 0.90903-1.4407 1.344-2.2582 1.6143-2.0958 1.107-2.1255 0.77575-1.2535 0.29396-3.6352 0.64739-2.4856 0.32775-1.0549 0.048698-0.96577-0.017429-2.3708-0.15048-1.5686-0.030858-1.7341 0.11805-1.7978 0.27512-6.3681 1.2828-2.3368 0.31944-1.3959 0.087145-1.0893 0.00128-3.8092-0.16164-2.0069-0.14384-1.1237-0.16962-1.2262-0.26397-1.2676-0.35276-1.1622-0.39968-2.1541-0.95379-1.5853-0.89177-1.8474-1.3019-0.98432-0.85224-2.9279-3.067-1.2507-1.0874-2.5953-1.9044-8.7218-5.7883-2.7975-1.6325-2.0095-1.0349-1.5786-0.73918-1.0829-0.42953-1.7624-0.50707-1.8311-0.33222-2.9975-0.30012-4.8011-0.35603-2.2752-0.29443-2.0956-0.48655-1.8316-0.77696-1.0247-0.70707-0.91245-0.82711-1.3633-1.4636-1.48-1.4594-1.4269-1.0474-1.6467-0.91532-1.8269-0.76447-1.3574-0.43277-1.4145-0.35741-1.5919-0.31363-1.6283-0.24553-3.014-0.312-5.5152-0.37766-2.549-0.27713-2.2473-0.4882-0.60737-0.20233-0.78509-0.31319-0.87957-0.43093-0.93018-0.53788-0.78141-0.52228-1.5684-1.2042-3.2426-2.7306-1.3779-1.0932-2.2224-1.6037-1.6337-0.98959-1.0635-0.50348-1.9927-0.62847-0.51405-0.11696-1.103-0.21151-1.3035-0.17209-1.8037-0.049307-1.317 0.18275-1.5221 0.44106-1.5143 0.57679-3.5561 1.4976-3.0004 1.1892-1.8822 0.64594-2.7485 0.80557-1.853 0.47869-2.2164 0.43893-1.3187 0.15512-3.79 0.26966-1.192 0.16642-1.7239 0.33904-1.2205 0.31493-3.0568 0.98066-4.1374 1.1769-1.5431 0.50246-1.3732 0.56853-0.84485 0.46423-0.96476 0.72301-0.53479 0.52837-0.86679 1.0815-0.80815 1.232-2.0007 3.298-1.4238 1.9423-1.1388 1.2258-1.3813 1.2712-1.0829 0.89843-1.5429 1.1726-1.852 1.2645-1.4034 0.86138-1.1217 0.62918-1.8016 0.88119-1.0976 0.40931-0.34762 0.057863-0.13881-0.042662-0.32431-0.33364-4.2429-3.7361-4.3102-3.516-0.50854-0.47088-1.25-1.3448-1.1414-1.4887-0.95403-1.4395-1.2556-2.0702-1.4809-2.7621-2.0861-4.5354-1.106-2.6871-0.57598-1.6915-0.5642-1.995-0.49891-2.1822-0.4532-2.6102-0.17257-1.4886-0.11512-2.0753 0.012928-1.5683 0.097401-1.5373 0.16736-1.4096 0.24255-1.3638 0.38321-1.5508 0.39491-1.2156 0.54167-1.2856 0.34486-0.67436 0.81776-1.3454 1.574-2.24 1.0325-1.3021 1.1178-1.2082 1.4809-1.3096 2.2632-1.855 0.92419-0.83666 6.5556-6.0587 2.3843-2.3493 2.9661-3.0469 2.8-2.9878 1.1872-1.3544 0.99524-1.2289 1.4622-2.06 1.0874-1.7366 1.2495-2.2222 1.0035-1.9915 0.98931-2.1909 0.97032-2.4603 0.50992-1.4587 0.62632-2.0475 0.354-1.426 0.40272-2.3228 0.11428-1.1921 0.042443-1.3788-0.10926-1.8139-0.19814-1.2617-0.34229-1.3749-0.19665-0.60916-0.81768-1.9635-1.1523-2.1427-0.83638-1.3693-3.6383-5.5703-1.7935-2.8466-1.6778-2.9207-0.83822-1.6307-1.9184-4.2594-1.0296-2.5858-0.68832-1.9911-1.0605-3.5016-0.46393-1.3278-0.79149-1.8286-0.96461-1.5443-0.63296-0.76324-0.55022-0.5564-0.62939-0.54484-0.96421-0.70752-1.0332-0.65453-1.3788-0.77982-4.6816-2.3748-2.14-1.3421-1.7996-1.4574-2.1585-2.0914-2.3972-2.6591-1.4011-1.7224-1.0801-1.4438-0.98113-1.4321-3.6024-5.8564-1.5055-2.1199-1.1707-1.3622-0.64887-0.65699-2.8806-2.4925-1.3642-1.2497-1.5056-1.73-2.7181-3.6628-2.6085-3.1886-0.58499-0.88093-0.51233-1.0416-0.38951-1.3379-0.19001-1.4772 0.022258-2.1575 0.30873-2.3047 0.53977-2.2682 0.77878-2.3006 1.0166-2.2637 1.2659-2.1887 1.0284-1.4447 1.1463-1.3602 1.0171-1.0404 1.995-1.7755 1.6199-1.3041 2.2479-1.7019 1.8921-1.3068-0.32813 0.52375-0.4022 0.72922-0.46687 1.0217-0.35637 0.9623-0.34592 1.2656-0.15038 0.88724-0.067142 0.88699 0.037145 1.0906 0.32711 1.6705 0.371 1.0288 0.42714 0.87224 0.87061 1.2947 0.53045 0.61749 0.83951 0.83308 1.4495 1.1974 2.5167 1.7444 3.5149 2.2294 3.9918 2.4328 1.8907 1.0402 1.4074 0.67383 4.0884 1.5475 0.96628 0.49523 0.9622 0.6843 0.45077 0.40728 0.89364 1.0017 0.8871 1.3473 0.72547 1.5543 0.66218 1.6125 0.81818 1.6964 0.96653 1.5828 1.1106 1.3552 1.2584 1.0019 0.67233 0.3245 1.0244 0.29865 2.9095 0.40389 1.1807 0.24017 1.124 0.35944 0.97931 0.43444 1.2104 0.67131 1.0626 0.67718 4.026 2.9165 1.538 1.0533 1.0001 0.60281 1.5624 0.74473 1.5679 0.44339 0.88795 0.12482 2.7102 0.21265 2.7306 0.37088 1.4929 0.096472 1.2642-0.045388 1.3153-0.15642 1.3692-0.26169 2.0679-0.55036 5.3667-1.8108 1.644-0.43355 1.2946-0.22664 1.8872-0.17257 1.4095-0.025972 1.2911 0.058747 1.8674 0.23469 1.3883 0.25376 1.3936 0.33202 2.3424 0.75887 5.4525 2.1136 3.0885 1.0606 4.0785 1.2815 1.7157 0.49056 2.1036 0.51169 3.8455 0.71883 2.7428 0.32617 1.905 0.097489 1.8895-0.003623 2.4035-0.14828 1.0677-0.12524 2.2652-0.3889 1.3021-0.29585 1.855-0.52708 1.5101-0.57768 1.8417-0.906 2.1431-1.3508 1.866-1.4659 1.6407-1.5738 1.5455-1.8334 1.4096-2.1939 1.0329-2.3697 0.4838-1.8713 0.24595-2.4556-0.12698-2.5385-0.2092-1.4298-0.28721-1.4298-0.42758-1.7186-0.83583-2.7078-1.2777-3.6136-0.52566-1.6764-0.46383-1.8944-0.2903-2.0399-0.001087-2.3779 0.19888-1.4467 0.65536-2.3798 0.67857-1.6209 0.8058-1.5408 0.99836-1.6077 1.0106-1.3739 1.2617-1.416 1.117-1.022 1.1561-0.867 0.54805-0.35068 1.6858-0.89449 2.7043-1.2205 1.347-0.69434 2.5139-1.4787 1.054-0.72212 1.0317-0.78175 1.4954-1.2726 5.2434-5.4348 1.8622-1.7349 1.0377-0.84382 0.97474-0.69603 1.384-0.79131 0.94129-0.37145 1.5367-0.26334 1.3142 0.099762 1.3685 0.55284 0.93928 0.70657 0.67971 0.7136 0.70037 0.94391 0.53419 0.86238 1.5835 2.8959 0.75044 1.1171 0.87297 0.82607 0.85802 0.37986 0.95477 0.067797 0.91589-0.21712 1.3579-0.65642 4.9457-3.2977 7.79-4.863 0.83708-0.44496 0.037291 1.8356-0.2643 10.521 0.021413 3.2553 0.10558 2.594 0.17316 2.1552 0.16959 1.4345 0.97605 6.2108 0.12702 1.5542-0.028572 2.3622-0.54432 6.4878-0.087272 2.1036 0.014142 2.3973 0.16438 2.5759 0.28602 2.5138 1.3368 8.6418 0.20564 1.9949 0.43698 6.4192 0.039181 2.7697-0.20717 2.6035-1.0009 6.6964-0.22239 1.9171-0.11295 1.5979-0.025638 1.5577 0.2064 2.5053 0.28816 1.3368 0.42546 1.2392 0.59501 1.1872 0.70672 1.1143 1.0475 1.4243 1.1891 1.323 1.4135 1.2251 1.3697 0.96534 2.7696 1.783 1.3759 0.84232 1.3242 0.72629 4.6958 2.3613 2.6017 1.1319 2.0623 0.69592 3.4015 0.94331 2.0152 0.51883 1.7928 0.30029 1.53 0.12295 1.5531 0.004365 2.1135-0.20564 2.0515-0.49811 1.2019-0.46652 1.0125-0.47422 4.1722-2.1559 1.7836-0.80144 2.3488-0.91002 8.4187-3.0572 1.814-0.6432 1.8202-0.54711 1.0188-0.2081 0.94167-0.07504 0.40713 0.02467 0.51981 0.10659 0.55248 0.23771 0.5704 0.42214 0.33982 0.37569 0.38317 0.637 0.18213 0.48187 0.20758 0.94774 0.10917 1.062 0.038569 0.94102-0.030492 1.8164-0.37262 4.6906-0.55805 9.3444-0.22548 2.3687-0.33295 2.3189-0.35079 1.6799-0.46747 1.6268-0.82509 2.0805-2.7427 5.5023-1.4864 3.4032-0.46799 1.2628-0.61229 1.9521-0.45479 1.7449-0.39109 1.787-0.38708 2.1621-0.31273 2.2022-0.26521 2.4466-0.19197 2.4767-0.17889 4.8483 0.067588 5.2665 0.13307 2.9277 0.40229 5.6183 0.63611 6.6028 0.98692 9.0431 0.76751 5.8321 0.48669 2.9831 0.59836 2.9567 0.73012 2.8156 0.91245 2.7415 0.66036 1.6225 0.74212 1.5726 1.0076 1.8306 0.84471 1.3542 1.4413 2.1249 4.6906 6.5542 0.71861 1.1593 0.10166 0.34788-0.10902 0.096609" stroke="#bdc660"/>
    </defs>
    <g clip-path="url(#p4f15924030)">
     <use y="280.512" fill="#bdc660" stroke="#bdc660" xlink:href="#m1ea02efc57"/>
    </g>
   </g>
  </g>
 </g>
 <defs>
  <clipPath id="p4f15924030">
   <rect x="7.2" y="7.2" width="301.6" height="266.11"/>
  </clipPath>
 </defs>
</svg>
