<?xml version="1.0" encoding="UTF-8"?>
<!DOCTYPE svg  PUBLIC '-//W3C//DTD SVG 1.1//EN'  'http://www.w3.org/Graphics/SVG/1.1/DTD/svg11.dtd'>
<svg width="236.27pt" height="280.51pt" version="1.1" viewBox="0 0 236.27 280.51" xmlns="http://www.w3.org/2000/svg" xmlns:xlink="http://www.w3.org/1999/xlink">
 <metadata>
  <rdf:RDF xmlns:cc="http://creativecommons.org/ns#" xmlns:dc="http://purl.org/dc/elements/1.1/" xmlns:rdf="http://www.w3.org/1999/02/22-rdf-syntax-ns#">
   <cc:Work>
    <dc:type rdf:resource="http://purl.org/dc/dcmitype/StillImage"/>
    <dc:date>2024-07-04T12:09:55.924492</dc:date>
    <dc:format>image/svg+xml</dc:format>
    <dc:creator>
     <cc:Agent>
      <dc:title>Matplotlib v3.7.1, https://matplotlib.org/</dc:title>
     </cc:Agent>
    </dc:creator>
   </cc:Work>
  </rdf:RDF>
 </metadata>
 <defs>
  <style type="text/css">*{stroke-linejoin: round; stroke-linecap: butt}</style>
 </defs>
 <g id="figure_1">
  <g id="patch_1">
   <path d="m0 280.51h236.27v-280.51h-236.27v280.51z" fill="none"/>
  </g>
  <g id="axes_1">
   <g id="PatchCollection_1">
    <defs>
     <path id="m56a8bf614e" d="m194-183.64 0.40571 0.17024 0.17164 0.15788 0.26078 0.42285 0.26949 0.22653 0.10941 0.13193 0.43234 0.83061 0.28245 0.32959 0.003491 0.03983-0.035518 0.088607-0.2046 0.37391-1.4072 2.2114-0.75666 1.3494-0.7064 1.3948-0.26698 0.5702-0.18944 0.4871-0.10897 0.47441-0.003171 0.26773 0.025852 0.14475 0.10084 0.22728 0.093787 0.11482 0.13004 0.10396 0.13932 0.070588 0.21172 0.055426 0.29199 0.009805 0.89574-0.15539 0.45566-0.016971 0.13851 0.019326 0.2277 0.069863 0.23376 0.14235 0.15885 0.16199 0.077345 0.11163 0.14832 0.32867 0.12069 0.48846 0.084868 0.6506 0.020377 0.72538-0.01582 0.34201-0.065068 0.62381-0.17673 1.0138-0.30408 1.2055-0.15108 0.4787-0.25061 0.68396-0.36625 0.82472-0.35684 0.67434-0.53715 0.91007-0.22952 0.4386-0.067909 0.17046-0.069723 0.28813 0.0092 0.29191 0.093122 0.26128 0.092272 0.14597 0.10568 0.12416 0.23594 0.19612 0.19156 0.11448 0.4003 0.17572 0.96245 0.31933 0.42782 0.17162 0.33892 0.17163 0.33105 0.22186 0.28901 0.27003 0.14433 0.18226 0.10267 0.16452 0.12484 0.27698 0.1192 0.51304 0.11474 1.492 0.082045 0.54091 0.10514 0.48723 0.32199 1.1297 0.24626 0.77355 0.89529 2.5898 0.67603 2.1547 0.44778 1.6469 0.35801 1.5491 0.31141 1.6228 0.1753 1.1267 0.15225 1.3413 0.12845 1.9683 0.058088 0.62373 0.15629 1.0122 0.20544 0.86487 0.15846 0.53736 0.27663 0.80396 0.29298 0.7261 0.50909 1.0603 0.53185 0.93007 0.52395 0.78547 0.44368 0.57992 0.39451 0.45224 0.63149 0.59296 0.57887 0.40328 0.45628 0.23164 0.7159 0.23083 0.71971 0.09699 0.70358-0.01499 0.59723-0.088162 0.62447-0.16002 0.63312-0.22926 0.7926-0.37613 0.67843-0.39452 0.51441-0.34057 0.50169-0.36439 1.1766-0.96362 1.8849-1.6532 0.60911-0.47229 0.49708-0.3187 0.38391-0.18006 0.32601-0.083871 0.27996 0.005438 0.20959 0.076606 0.30037 0.27157 0.12045 0.19125 0.092644 0.20308 0.11331 0.37917 0.047159 0.26765 0.031803 0.35146 0.00368 0.32258-0.046471 0.54845-0.17294 0.79401-0.27143 0.75801-0.23065 0.49264-0.41654 0.75136-2.339 3.6232-0.80567 1.3827-0.58088 1.0975-0.33681 0.6996-0.25551 0.58801-0.38506 1.0527-0.19514 0.68735-0.11508 0.50523-0.12288 0.71236-0.082694 0.95255 0.014227 0.85549 0.11618 0.90532 0.18695 0.79206 0.211 0.65123 0.23991 0.61321 1.1575 2.5377 1.0741 2.6019 0.079575 0.59253 0.43651 2.5963 0.12371 1.0984 0.041293 0.90621-0.005702 0.59146-0.033411 0.60745-0.0962 0.78672-0.073408 0.37774-0.19158 0.68167-0.18535 0.47386-0.33029 0.64866-0.22037 0.35513-0.3596 0.49354-0.30924 0.36122-0.44409 0.45114-0.40073 0.36098-0.54871 0.44531-0.48643 0.35789-0.68977 0.4649-0.78166 0.46886-2.9893 1.6233-0.88995 0.5296-0.53548 0.34656-0.88799 0.64173-1.7406 1.4412-0.8414 0.66299-1.0652 0.75969-0.80533 0.5027-0.72588 0.3956-0.76474 0.36063-0.65507 0.26667-0.68118 0.24488-0.89246 0.28738-1.5837 0.47535-1.0975 0.36124-1.0723 0.40178-0.83582 0.35402-0.80193 0.38385-0.75711 0.41778-0.75513 0.49856-0.66533 0.55511-0.6197 0.72532-0.32581 0.57158-0.34471 0.83482-0.33867 1.0833-0.32326 1.2827-0.28992 1.3792-0.11356 0.78063-0.10792 1.3112-0.016051 0.81106 0.006975 1.6432-0.039321 0.90356-0.13597 1.1096-0.40536 2.1494-0.15785 1.0188-0.071133 0.77957-0.022004 0.56117 0.021951 1.2765 0.034996 0.43776 0.092272 0.69825 0.19875 0.9485 0.2621 0.87763 0.13679 0.38772 0.96124 2.4046 0.38932 1.1583 0.32048 1.2169 0.62464 2.9446 0.64093 2.3791 0.21637 0.95002 0.15051 0.95139 0.09551 1.1238 0.082428 2.5822 0.15651 2.6061-0.023426 0.61035-0.060586 0.27244-0.053381 0.12517-0.08377 0.12374-0.13199 0.11323-0.12577 0.061593-0.18193 0.045536-0.20902 0.013502-0.29902-0.024166-1.2218-0.25775-1.0219-0.18384-0.58734-0.076011-0.50781-0.034689-0.49168 0.007728-0.63368 0.10145-0.47737 0.17394-0.66848 0.40811-0.38558 0.33996-0.3477 0.3963-0.45202 0.72107-0.30596 0.76863-0.15602 0.6921-0.059915 0.66365 0.023415 0.81448 0.086296 0.68443 0.11015 0.56809 0.30989 1.1593 0.39538 1.1184 0.32615 0.77369 0.46849 1.002 0.9084 1.8334 0.97918 1.903 0.81146 1.4721-0.099881 0.016818-0.14747 0.1986-0.19081 0.34575-0.34623 0.75233-1.0176 2.4041-0.74018 1.5205-0.67641 1.2142-0.7543 1.2154-0.46068 0.66982-0.37215 0.49256-0.38372 0.45932-0.57548 0.59456-0.34039 0.29818-0.30638 0.23409-0.32229 0.2096-0.31966 0.1688-0.25052 0.10284-0.23541 0.070039-0.37069 0.048137-0.25482-0.017187-0.20053-0.041232-0.31883-0.1126-0.36596-0.19237-0.27563-0.18035-1.4354-1.0983-0.64115-0.42073-0.31352-0.17126-0.48285-0.214-0.3343-0.12005-0.56864-0.16322-0.86116-0.16734-0.85649-0.090639-2.5818-0.076206-2.2973-0.14792-1.7752-0.082661-0.81587-0.056836-0.56545-0.091663-0.27374-0.077549-0.20867-0.083464-0.35242-0.2156-0.21474-0.19481-0.20347-0.23905-0.18423-0.26804-0.31567-0.57107-0.91676-1.9894-0.85699-1.7287-0.28591-0.71254-0.18327-0.68937-0.075201-0.40164-0.11658-1.0434-0.029507-0.87794 0.018743-0.98602 0.085948-1.3849 0.27638-3.1188 0.079641-1.7462-0.002337-0.57862-0.058926-1.0423-0.11774-0.86597-0.16542-0.7722-0.19642-0.72804-0.32844-1.0717-1.057-3.175-0.53342-1.5259-1.0348-2.8025-0.49864-1.4421-0.31076-0.95386-0.7048-2.3885-0.26112-0.79748-0.3003-0.78289-0.27872-0.6338-0.54281-1.0941-0.533-0.99848-1.0053-1.8348-0.7663-1.3476-1.5755-2.6003-2.2556-3.8476-1.3654-2.1275-0.9416-1.3577-3.247-4.4987-0.45775-0.65752-2.0138-3.0288-1.3131-1.9122-2.369-3.3589-2.8588-3.9889-0.7785-1.0093-0.4112-0.47246-0.63243-0.62533-0.45544-0.38191-0.38045-0.28339-0.759-0.48712-0.39028-0.21363-0.47709-0.2256-0.45285-0.17175-0.34482-0.096985-0.55141-0.082293-0.42314 0.010952-0.2676 0.046794-0.53666 0.1795-0.54467 0.27066-0.56046 0.33909-1.352 0.87967-0.71102 0.39966-0.83063 0.39128-0.87504 0.34597-0.71418 0.2427-0.76471 0.22758-3.6469 0.95187-1.9716 0.43983-0.84163 0.15212-0.69371 0.096278-0.52494 0.04715-0.78138 0.015745-0.69553-0.039326-1.3373-0.16651-1.0354-0.19212-0.47319-0.10894-0.87178-0.25131-0.82577-0.32195-0.72265-0.38404-0.54535-0.40166-0.44121-0.45045-0.36499-0.47562-0.31312-0.47399-1.0402-1.7155-0.36204-0.5152-0.45237-0.54333-0.53601-0.50724-0.62587-0.44306-0.50898-0.29387-0.62906-0.32081-1.4393-0.65842-4.925-2.1333-1.2835-0.50114-0.81984-0.27644-1.156-0.32468-3.6681-0.80957-1.2526-0.33976-0.89021-0.28868-0.89458-0.32375-1.2836-0.51165-1.856-0.78341-0.59821-0.28057-1.2195-0.6185-4.6562-2.5086-1.3497-0.70429-2.7885-1.3922-2.7587-1.4354-3.9013-1.9141-2.8088-1.4718-1.3121-0.74548-1.2962-0.81403-1.2284-0.83608-0.78379-0.56557-0.59086-0.46081-0.47443-0.4105-0.33244-0.32575-0.53073-0.63203-0.4095-0.60902-0.373-0.67432-0.24057-0.51625-0.21198-0.52305-0.23086-0.65425-0.57285-1.8754-0.30002-0.87096-0.3167-0.75812-0.58694-1.2015-1.4299-2.5951-1.8483-3.0695-0.69066-1.0492-1.4091-1.8629-0.44562-0.71188-0.2224-0.46396-0.15084-0.41149-0.11472-0.40866-0.30543-1.3633-0.27225-1.0063-0.24604-0.74883-0.2652-0.62736-0.17924-0.32752-0.15066-0.22772-0.21993-0.27225-0.2112-0.21442-0.39341-0.31765-0.41739-0.2569-0.58516-0.26476-0.64893-0.19982-0.38933-0.080712-0.8409-0.093086-0.85983-0.026243-0.87148 0.005936-3.0008 0.11374-1.3207 0.015671-1.1962-0.029317-1.5533-0.1209-4.6499-0.60145-3.5724-0.59218-2.2415-0.33362-1.0611-0.12306-0.52538-0.041409-0.70058-0.02466-0.24686 0.010106-0.090187 0.030206-0.008569-0.14216 0.033723-0.26529 0.12834-0.71608 0.44794-1.7683 0.18099-0.7985 0.20755-1.2607 0.08096-0.69639 0.11115-1.3901 0.15492-3.033 0.05867-0.64709 0.085241-0.63291 0.11512-0.59101 0.15745-0.57361 0.22498-0.59734 0.20948-0.44759 0.39112-0.68939 0.33825-0.50044 0.36869-0.48215 0.44963-0.52708 0.47576-0.50547 1.0742-1.0132 2.1104-1.8266 0.66193-0.64059 0.55057-0.64624 0.27385-0.41652 0.25536-0.56504 0.10507-0.46665 0.02672-0.46133-0.06113-0.64838-0.16198-0.82257-0.033791-0.2971 0.01444-0.3742 0.088476-0.35789 0.078789-0.19031 0.25626-0.41018 0.10442-0.12245 0.25151-0.24382 0.30626-0.23763 0.5471-0.3326 0.46245-0.22317 0.82599-0.32219 0.66123-0.21253 2.3484-0.6596 0.4697-0.17107 0.49859-0.24667 0.25553-0.17363 0.29099-0.25436 0.24786-0.27383 0.26369-0.35803 0.17147-0.27524 0.30868-0.60113 0.15051-0.37555 0.1156-0.4532 0.016883-0.37044-0.090634-0.42733-0.3143-0.58798-0.28925-0.38742-1.0906-1.347-0.38597-0.53283-0.38819-0.59929-0.2997-0.52745-0.32191-0.6554-0.27773-0.66951-0.20188-0.57168-0.17817-0.588-0.16298-0.6363-0.1393-0.6502-0.20499-1.248-0.0902-0.73974-0.070775-0.74907-0.087234-1.5645-0.01562-0.75813 0.013967-1.5246 0.23603-4.5042-0.006354-1.1435-0.070882-0.91126-0.10933-0.71264-0.19505-0.83293-0.26882-0.84741-0.2381-0.62169-0.35106-0.79783-0.41976-0.84113-0.36051-0.66009-0.29853-0.47463 0.12632 0.031 0.087233-0.022403 0.29245-0.14228 0.45761-0.32285 0.53954-0.48155 0.6689-0.71139 0.60973-0.72831 0.59582-0.77891 0.60961-0.87675 0.50143-0.82044 0.43624-0.81756 0.46698-1.0078 0.57394-1.4083 0.80881-2.17 0.42242-1.0139 0.48607-0.92628 0.59248-0.80361 0.4923-0.47037 0.54731-0.41555 0.70932-0.45815 1.4812-0.88482 0.72536-0.48419 0.45315-0.34658 1.5401-1.2954 0.62948-0.4922 0.63337-0.45325 0.62927-0.40605 0.59923-0.34452 0.46682-0.24024 0.66425-0.30327 0.73121-0.29016 1.2242-0.39737 1.3946-0.34315 2.6797-0.49727 0.99492-0.20702 0.75837-0.19332 0.43521-0.13153 0.6418-0.22841 0.82002-0.36006 0.6675-0.35623 0.64012-0.39773 0.79021-0.56578 0.81506-0.66252 1.7459-1.5228 1.0812-0.89018 2.4329-1.8281 0.63234-0.49742 0.85814-0.73507 0.57096-0.54633 0.68986-0.7581 0.52973-0.70584 0.42277-0.71916 0.375-0.92114 0.22212-0.85918 0.12783-0.87089 0.040915-0.74662-0.020592-0.73046-0.071141-0.6303-0.16429-0.74231-0.30813-0.77484-0.45521-0.67878-0.98651-1.1649-0.11324-0.16566-0.25867-0.48975-0.11482-0.38818-0.005863-0.36427 0.058563-0.19495 0.35881-0.40733 0.58608-0.28814 0.40151-0.11854 0.44646-0.093748 1.0159-0.12613 0.87208-0.049422 0.78157-0.014131 4.1712 0.082294 1.0989-0.033981 0.96768-0.072267 0.6686-0.095978 0.25118-0.056459 0.76259-0.26238 0.71205-0.3622 0.49471-0.309 4.659-3.2757 1.1186-0.87412 0.74169-0.61968 1.0532-0.9307 1.0682-1.0221 0.054172 0.26088 0.2787 0.32109 0.32447 0.21634 0.36276 0.15405 0.45664 0.098413 0.63506-0.005358 0.74928-0.15518 0.34219-0.10949 0.47396-0.18389 0.4647-0.21549 0.90012-0.50795 0.47409-0.3075 0.51076-0.35689 1.0612-0.82818 1.6566-1.4824 0.75843-0.60372 0.32799-0.22204 0.66565-0.39787 1.4294-0.78005 0.54176-0.26546 0.3662-0.15623 0.33695-0.11659 0.41151-0.096513 0.43298-0.033491 0.2952 0.024864 0.22639 0.048908 0.28234 0.10201 0.21115 0.10943 0.22175 0.14963 0.31637 0.28339 0.18736 0.209 0.3712 0.50891 0.27293 0.47354 0.18876 0.4015 0.20521 0.54279 0.16741 0.59185 0.12508 0.66607 0.060903 0.58701 0.017726 0.69104-0.030526 0.67298-0.19353 2.0812-0.004285 0.45854 0.032601 0.38707 0.05691 0.28286 0.14087 0.37282 0.45949 0.57793 0.66448 0.46569 0.80407 0.38714 2.463 0.90344 0.91833 0.44112 3.5982 1.9929 1.4612 0.85169 1.6197 0.98172 0.51246 0.33824 0.58616 0.43006 1.8171 1.4613 1.2344 0.9365 0.56148 0.39276 1.9377 1.2731 0.77342 0.55532 0.44178 0.36166 0.42279 0.39734 0.28203 0.3145 0.25726 0.34734 0.26462 0.44997 0.18796 0.38371 0.23238 0.5672 0.14884 0.44435 0.19903 0.8182 0.10374 0.76794 0.016138 0.40924-0.013324 0.39631-0.14616 1.3661-0.002312 0.50356 0.14914 0.759 0.16664 0.47576 0.27991 0.62911 0.30328 0.58592 0.6974 1.2341 0.31289 0.60323 0.71038 1.5563 1.1877 2.49 0.51621 1.2265 0.22793 0.59909 0.44688 1.2793 0.45338 1.4665 0.22189 0.64521 0.28586 0.59248 0.40443 0.5482 0.50526 0.4782 0.58778 0.40507 0.65573 0.32529 0.50209 0.18202 0.41434 0.12463 0.93246 0.22034 1.08 0.18284 1.0279 0.12742 1.8076 0.15064 1.1804 0.060522 1.5916 0.038863 3.0533-0.022987 1.2759 0.013354 0.52472-0.01426 3.6896-0.20897 1.2389-0.022485 1.2473 0.050129 0.80777 0.066382 0.59776 0.074089 0.68497 0.15404 0.45089 0.16634 0.45542 0.2143 2.175 1.1783 1.0719 0.60386 0.80508 0.4952 0.62046 0.42719 0.62228 0.50591 0.22114 0.20958 0.35692 0.38368 0.27664 0.34101 0.33426 0.46613 0.33339 0.51799 0.88086 1.4416 0.28734 0.40416 0.27149 0.31924 0.23286 0.22094 0.4933 0.32721 0.53759 0.21235 0.55454 0.10809 0.5446 0.009809 0.55566-0.084944 1.1843-0.24407 0.97309-0.15087 0.33542-0.071633 0.52328-0.18758 0.24028-0.11724 0.33588-0.2028 0.46036-0.35455 0.32009-0.31468 0.16149-0.20049 0.16306-0.27579 0.067275-0.18154 0.042353-0.28477-0.002581-0.12999-0.052155-0.32113-0.12862-0.39701-0.14473-0.3294-0.15704-0.28818-0.46434-0.74101-0.13476-0.25895-0.1329-0.33079-0.064277-0.21703-0.10644-0.5325-0.072411-0.60636-0.039543-0.63808-0.01804-0.72764 0.024574-0.51105 0.057276-0.34048 0.14926-0.46389 0.16107-0.30979 0.12156-0.16034 0.095126-0.086326 0.12334-0.06271 0.12065-0.010414 0.19723 0.093012 0.1083 0.13942 0.14844 0.35926 0.59305 2.057 0.33979 0.93678 0.37035 0.8441 0.8204 1.7229 0.47794 1.1425 0.2981 0.97673 0.39091 1.8997 0.13374 0.41546 0.16331 0.37295 0.31539 0.57024 1.0129 1.6098 0.85939 1.7161 0.48428 0.86279 0.44567 0.6252 0.633 0.74258 0.31652 0.40262 0.40302 0.6257 0.2624 0.52786 0.1825 0.54355 0.067152 0.45622-0.009073 0.2866-0.10341 0.59707-0.027616 0.27778 0.022688 0.3468 0.062261 0.28278 0.245 0.69557 0.47399 1.099 0.41642 0.84204 0.40957 0.71448 0.40506 0.61854 0.41986 0.56824 0.58309 0.69226 0.66931 0.68801 0.65839 0.57117 0.71786 0.50686 1.028 0.59062 3.4294 1.715 0.76563 0.42119 0.35098 0.2182 0.58819 0.44165 0.3169 0.30645 0.15169 0.18373 0.1388 0.2272 0.048271 0.13311 1.73e-4 0.16259-0.070138 0.088145" stroke="#bdc660"/>
    </defs>
    <g clip-path="url(#p628a96b352)">
     <use y="280.512" fill="#bdc660" stroke="#bdc660" xlink:href="#m56a8bf614e"/>
    </g>
   </g>
  </g>
 </g>
 <defs>
  <clipPath id="p628a96b352">
   <rect x="7.2" y="7.2" width="221.87" height="266.11"/>
  </clipPath>
 </defs>
</svg>
