<?xml version="1.0" encoding="UTF-8"?>
<!DOCTYPE svg  PUBLIC '-//W3C//DTD SVG 1.1//EN'  'http://www.w3.org/Graphics/SVG/1.1/DTD/svg11.dtd'>
<svg width="235.02pt" height="280.51pt" version="1.1" viewBox="0 0 235.02 280.51" xmlns="http://www.w3.org/2000/svg" xmlns:xlink="http://www.w3.org/1999/xlink">
 <metadata>
  <rdf:RDF xmlns:cc="http://creativecommons.org/ns#" xmlns:dc="http://purl.org/dc/elements/1.1/" xmlns:rdf="http://www.w3.org/1999/02/22-rdf-syntax-ns#">
   <cc:Work>
    <dc:type rdf:resource="http://purl.org/dc/dcmitype/StillImage"/>
    <dc:date>2024-07-04T12:09:55.600570</dc:date>
    <dc:format>image/svg+xml</dc:format>
    <dc:creator>
     <cc:Agent>
      <dc:title>Matplotlib v3.7.1, https://matplotlib.org/</dc:title>
     </cc:Agent>
    </dc:creator>
   </cc:Work>
  </rdf:RDF>
 </metadata>
 <defs>
  <style type="text/css">*{stroke-linejoin: round; stroke-linecap: butt}</style>
 </defs>
 <g id="figure_1">
  <g id="patch_1">
   <path d="m0 280.51h235.02v-280.51h-235.02v280.51z" fill="none"/>
  </g>
  <g id="axes_1">
   <g id="PatchCollection_1">
    <defs>
     <path id="m42e7442556" d="m151.3-234.03 0.047388 0.059499-0.001359 0.060496-0.070549 0.2102-0.22775 0.41067-0.26046 0.37366-0.68145 0.82935-2.2378 2.4899-0.6056 0.7466-0.35526 0.47837-0.58821 0.90856-0.2722 0.51305-0.15478 0.34449-0.13408 0.35994-0.10285 0.35852-0.080921 0.42729-0.033186 0.35076 0.009386 0.72152 0.13263 1.1001 0.72329 4.8701 0.29393 1.5255 0.19524 0.77977 0.25814 0.86092 0.31443 0.88967 0.39857 0.97697 0.3729 0.81517 0.61966 1.2131 1.3615 2.462 0.62144 1.2357 0.32538 0.73414 0.45963 1.2082 0.23098 0.69668 0.46772 1.5742 0.64543 2.3124 0.28424 0.88796 0.23244 0.623 0.36035 0.82029 0.45637 0.869 0.597 0.92785 0.39767 0.50924 0.64043 0.66246 0.32502 0.27345 0.43476 0.31771 0.61723 0.37828 0.57496 0.29161 0.52089 0.22333 0.63552 0.22923 0.5118 0.15624 0.83573 0.21279 1.3519 0.25924 3.8449 0.4981 1.3348 0.2172 0.74169 0.15871 0.47988 0.13117 0.59422 0.21716 0.40709 0.20741 0.35662 0.25155 0.24255 0.23811 0.15987 0.21297 0.093869 0.16444 0.10146 0.24665 0.056558 0.20725 0.057455 0.49788-0.010132 0.31885-0.049885 0.35768-0.075535 0.29794-0.050428 0.13657-0.10832 0.18183-0.21401 0.038997-0.22375 0.12986-0.26816 0.24271-0.21958 0.27766-0.2262 0.41423-0.10086 0.28119-0.093007 0.49896-0.005002 0.44269 0.061079 0.472 0.074503 0.30492 0.13122 0.3764 0.25622 0.53453 0.65919 1.1557 0.25312 0.57918 0.11289 0.40882 0.20676 1.1169 0.28735 0.82702 0.23475 0.5189 0.27892 0.54445 0.51504 0.88822 0.78842 1.1782 0.51237 0.68286 0.5439 0.67356 2.0592 2.4573 0.55926 0.71831 0.46766 0.65137 0.58954 0.90664 0.45087 0.76524 1.4417 2.7192 0.43142 0.68391 0.28305 0.38921 0.62011 0.72833 0.6398 0.64016 0.78033 0.69618 1.9685 1.6469 0.68928 0.62442 0.70316 0.68253 1.2225 1.3031 2.0655 2.4094 0.80393 0.84447 0.5871 0.55958 0.60882 0.53529 1.0956 0.85994 2.5 1.7049 2.009 1.4374 1.4523 1.1309 1.4082 1.2133 1.4933 1.427 0.6086 0.61082 0.44846 0.49344 2.0808 2.4753 0.32892 0.45585 0.29238 0.47561 0.34221 0.68006 0.21372 0.54178 0.13102 0.44129 0.25115 1.1092 0.34893 0.94121 0.061911 0.38531-0.005907 0.23518-0.1401 0.64263-0.77866 2.2957-0.33288 1.1404-0.14894 0.6638-0.11422 0.8263-0.038723 1.0146 0.025503 0.65791 0.18551 2.0358 0.031599 0.81724-0.018335 1.3689 0.011476 0.65185 0.032035 0.53194 0.062407 0.528 0.12199 0.59416 0.19098 0.57527 0.3651 0.7022 0.19476 0.2864 0.60926 0.71108 0.5936 0.53499 0.54584 0.40619 0.60256 0.38827 2.5931 1.4709 1.5503 0.9619 0.5329 0.37754 0.48867 0.40219 0.31181 0.33009 0.248 0.36164 0.10216 0.21139 0.10909 0.31326 0.2692 1.1678 0.24415 0.80424 0.12081 0.59729 0.061025 0.6546-0.016024 0.686-0.23338 1.4899-0.08874 0.77362-0.03947 0.75631 0.007708 0.79064 0.038126 0.54074 0.090373 0.64652 0.15803 0.64 0.17444 0.45664 0.28032 0.52275 0.33415 0.4905 0.38998 0.49397 0.41952 0.45871 1.5998 1.4642 0.23858 0.24058 0.23197 0.31281 0.047749 0.16385-0.081769 0.21687-0.2784 0.10641-0.15602 0.054439-0.21755 0.1494-0.53239 0.46213-0.55036 0.53966-0.536 0.62741-0.22547 0.32406-1.1713 1.9776-1.152 1.6962-0.3499 0.54091-0.22671 0.40895-0.26498 0.56372-0.26239 0.66968-0.6059 1.7436-0.25189 0.55923-0.23617 0.43026-0.28661 0.44796-0.6257 0.84362-0.56382 0.69184-0.6604 0.71481-0.62885 0.57668-0.34505 0.27394-0.67033 0.42117-0.46823 0.19668-0.25474 0.062849-0.27859 0.024097-0.2698-0.033369-0.2529-0.10201-0.21688-0.16555-0.15586-0.17345-0.18435-0.26986-0.16965-0.30649-0.93542-1.9429-0.71724-1.3383-0.59772-1.0316-0.52247-0.83743-0.48559-0.71621-0.44806-0.60832-0.76295-0.92605-0.519-0.56393-0.49917-0.50079-0.64675-0.58896-0.79798-0.6359-0.4107-0.28802-0.61066-0.37524-1.005-0.48899-1.0274-0.43107-1.0215-0.46782-0.84618-0.48261-0.82988-0.5513-2.9796-2.2155-0.90829-0.64934-0.65525-0.43707-0.52472-0.32273-0.52847-0.29335-0.68953-0.33377-0.70411-0.31018-1.778-0.73266-0.73863-0.35692-1.6478-0.8628-0.62973-0.29967-0.56709-0.22138-0.48626-0.12201-0.68368-0.05-0.7098 0.067552-0.67757 0.15245-0.58687 0.18384-0.61561 0.23869-0.65977 0.31464-0.91122 0.52977-0.72877 0.49928-0.69173 0.52653-0.91654 0.72958-1.2246 1.0346-0.267 0.19227-0.68544 0.36512-0.33955 0.12965-1.3739 0.42502-0.69966 0.24241-1.4214 0.56807-1.1957 0.53918-1.0696 0.53103-0.90487 0.48835-0.84447 0.49102-0.96858 0.61311-0.9757 0.68225-1.0473 0.83413-0.8006 0.7482-0.51604 0.56074-0.62388 0.798-0.47658 0.70732-0.46802 0.77577-1.0774 1.9924-0.38982 0.66167-0.59712 0.89918-0.59422 0.79802-0.4772 0.5836-0.56932 0.6385-0.97692 1.0034-0.85158 0.81463-0.30587 0.25334-0.3922 0.28485-0.373 0.23054-0.70722 0.3515-1.24 0.48336-2.4537 0.79608-1.0305 0.36573-1.0146 0.40098-1.3889 0.60545-1.4774 0.68332-0.92154 0.47547-0.99823 0.58701-0.60027 0.39839-0.44503 0.32715-0.41972 0.3587-0.43255 0.45735-0.4709 0.62226-0.66365 1.0191-0.48894 0.70835-0.28572 0.36118-0.45708 0.48281-0.41618 0.3394-0.2525 0.16758-0.28759 0.1634-0.37586 0.17114-0.28881 0.098333-0.55916 0.1154-0.35232 0.029148-0.44213-0.001922-0.83508-0.087606-0.62727-0.12028-0.58233-0.14761-0.72879-0.23034-0.5766-0.21805-0.81737-0.37281-0.68791-0.37841-1.7991-1.0865-0.67717-0.34437-0.59461-0.23323-0.80484-0.20875-1.0204-0.14394-0.80111-0.054553-0.98395-0.028435-2.9259-0.021547-0.79294 0.02377-0.83981 0.058017-0.88323 0.098908-1.3644 0.20963-0.9714 0.18139-1.4858 0.34159-2.718 0.80536-0.97038 0.26128-2.7344 0.58791-0.87701 0.2182-1.0137 0.30763-0.89372 0.31331-0.77982 0.30863-0.65764 0.30074-0.74262 0.39449-1.3424 0.83458-1.5178 1.0371-1.941 1.4059-0.70554 0.46374-0.92556 0.54694-1.9266 1.0665-0.88552 0.53776-0.44087 0.29612-1.1932 0.91069-2.2415 1.9036-0.66018 0.53367-0.85492 0.62307-0.40344 0.26312-0.71734 0.41888-0.69126 0.34194-0.61306 0.25821-0.77429 0.27483-0.98663 0.26276-0.59525 0.091062-0.46387 0.026746-0.48972-0.016204-0.39397-0.047431-0.67138-0.153-0.43547-0.14534-0.60054-0.25397-0.70198-0.36282-0.4253-0.25684-0.83382-0.58295-1.2525-0.95891-0.36688-0.23098-0.16282-0.068476-0.16842-0.032291-0.1031 0.008403-0.15011 0.073672-0.13388 0.21007-0.065514 0.38898 0.020695 0.44183 0.13915 0.72716 0.28062 0.87865 0.33426 0.81504 0.69203 1.546 0.32406 0.7744 0.44963 1.1868 0.93572 2.6421 0.24495 0.65055 0.4118 0.98238 0.41278 0.80197 0.52096 0.74606 0.44346 0.42066 0.36403 0.20595 0.31036 0.076854 0.30188-0.010092 0.47037-0.17107 0.42516-0.29418 1.0821-0.9949 0.29156-0.22594 0.27837-0.17261 0.34768-0.14592 0.34618-0.0608 0.17991 0.005564 0.32387 0.082097 0.35818 0.21846 0.35443 0.405 0.15044 0.26476 0.13171 0.31056 0.17724 0.62882 0.10707 0.64081 0.065636 0.64939 0.15916 2.3117 0.095463 0.79313 0.24628 1.3886 0.3715 1.5233 0.36095 1.2133 0.48763 1.3932 1.471 3.6348 0.41092 1.0665 0.39765 1.1527 0.33508 1.1567 0.2217 0.98941 0.16764 1.1798 0.038875 0.76429-0.027228 0.75184-0.13033 0.86774-0.27148 0.89549-0.37776 0.78424-0.5794 0.83444-0.66876 0.7073-0.66295 0.5619-0.93608 0.67356-1.7251 1.1449-0.73097 0.5303-0.90572 0.76111-0.66702 0.67765-0.81353 1.0475-0.35277 0.57823-0.29831 0.58909-0.39873 1.0763-0.18651 0.87525-0.04117 0.72819 0.059126 0.34069 0.10004 0.11839-0.073234-0.007241-0.29322-0.22075-1.5504-1.3596-0.61216-0.48882-0.62684-0.44341-0.63268-0.36858-0.63394-0.2643-0.63361-0.12772-0.58077 0.021765-0.63876 0.14004-0.60993 0.20399-1.4134 0.55713-0.70348 0.23857-0.52028 0.13475-0.47698 0.083185-0.64418 0.049865-0.70278-0.014481-0.71232-0.069324-1.13-0.18753-1.034-0.2587-0.67613-0.23868-0.45969-0.20915-0.44069-0.24412-1.4048-0.94493-0.73501-0.46564-0.70688-0.38345-0.37827-0.179-0.83191-0.33561-0.69795-0.22929-0.74441-0.20941-1.182-0.25732-0.42989-0.060381-0.60504-0.050171-1.2363-0.031988-1.0293 7.53e-4 -2.1281 0.036559-8.3423 0.23406-1.1447-2.7729-1.2336-2.7045-0.25568-0.65352-0.22488-0.69405-0.19925-0.84413-0.12382-0.96484-0.015162-0.91173 0.08813-1.0152 0.13096-0.75919 0.12265-0.53845 0.20797-0.73254 0.41038-1.1219 0.27231-0.62667 0.35895-0.74559 0.61907-1.1696 0.85863-1.4736 2.4928-3.8614 0.44392-0.80076 0.24581-0.52503 0.28927-0.80785 0.18431-0.84621 0.049526-0.5845-0.003921-0.34379-0.033895-0.37457-0.050259-0.28525-0.12076-0.4041-0.098735-0.21644-0.12837-0.20382-0.32012-0.28943-0.22337-0.081642-0.29836-0.005796-0.34745 0.089386-0.40915 0.1919-0.52976 0.33966-0.64916 0.50334-2.0088 1.7619-1.254 1.027-0.53468 0.38835-0.54823 0.36296-0.72304 0.42046-0.8447 0.40086-0.67475 0.24433-0.66552 0.17054-0.6365 0.093957-0.74983 0.015976-0.76703-0.10337-0.76297-0.246-0.48627-0.24687-0.61693-0.4298-0.67301-0.63194-0.42044-0.48197-0.47285-0.61804-0.5584-0.83711-0.56682-0.99122-0.54256-1.13-0.31225-0.77384-0.29482-0.85682-0.16887-0.57269-0.21895-0.92173-0.16656-1.0787-0.061906-0.66474-0.1369-2.0977-0.16226-1.4295-0.18683-1.2008-0.33188-1.7295-0.38155-1.6509-0.47722-1.7552-0.72047-2.2963-0.95415-2.7601-0.26245-0.82441-0.34316-1.204-0.11206-0.51926-0.08744-0.57647-0.12228-1.5901-0.12703-0.54677-0.13304-0.29519-0.10942-0.17533-0.15382-0.19424-0.30801-0.28778-0.35281-0.23645-0.3612-0.18291-0.45595-0.1829-1.0257-0.34032-0.42662-0.18727-0.20416-0.122-0.25145-0.20902-0.11263-0.13232-0.098339-0.15556-0.099244-0.27845-0.009805-0.3111 0.074307-0.30707 0.072374-0.18166 0.24461-0.46743 0.57247-0.9699 0.38031-0.71868 0.39033-0.87894 0.26709-0.72892 0.16102-0.51017 0.32408-1.2848 0.18835-1.0804 0.069346-0.66482 0.01686-0.3645-0.021718-0.77307-0.090447-0.69337-0.12862-0.52057-0.15808-0.35027-0.082429-0.11897-0.1693-0.17264-0.24913-0.15171-0.24267-0.074456-0.14762-0.020597-0.48561 0.018087-0.95464 0.1656-0.31118-0.010449-0.22564-0.059071-0.14848-0.075228-0.13859-0.11079-0.099952-0.12237-0.10747-0.24222-0.027552-0.15426 0.00338-0.28534 0.11613-0.5056 0.2019-0.51912 0.28454-0.60769 0.75284-1.4865 0.80641-1.4381 1.4997-2.3567 0.21805-0.39849 0.037853-0.094433-0.00372-0.042448-0.12074-0.91962-0.051335-0.95172 0.017922-0.9155 0.087525-0.83558 0.13221-0.64702 0.20562-0.6252 0.20717-0.43199 0.15449-0.25405 0.31324-0.40734 0.39345-0.39562 0.27287-0.23272 2.1078-1.541 2.2718-1.8765 0.82603-0.61619 0.60625-0.37755 1.2505-0.67582 0.48997-0.31138 0.46525-0.34273 1.6945-1.3418 0.73416-0.51747 0.70597-0.45594 0.87293-0.48702 1.528-0.68146 0.38721-0.21749 0.28642-0.2293 0.24288-0.30869 0.16222-0.36149 0.056483-0.20396 0.07219-0.41887 0.18759-1.6351 0.10375-0.51408 0.17218-0.48093 0.24839-0.40673 0.32242-0.36737 1.396-1.1783 0.4379-0.44401 0.31159-0.34972 0.85055-1.0178 0.53142-0.67936 0.24386-0.35508 0.18623-0.3174 0.1564-0.3434 0.11671-0.45209 0.017184-0.31079-0.028561-0.34883-0.08766-0.4534-0.17643-0.6479-0.29272-0.93148-0.94212-2.7156-0.36204-1.1117-0.36956-1.3724-0.30776-1.5483-0.19103-1.4772-0.067102-0.95393-0.010656-0.91271 0.029099-0.62681 0.13656-1.7875 0.16602-0.83664 0.29606-0.82186 0.29402-0.55153 0.28448-0.43857 0.64406-0.84219 0.69836-0.80899 1.0153-1.1032 1.7616-1.8513 0.65353-0.73557 0.34052-0.42532 0.481-0.70135 0.22135-0.39438 0.32077-0.73116 0.25941-0.79334 0.21266-0.87888 0.092806-0.52852 0.070616-0.57888 0.033882-0.51421 0.003623-0.66708-0.099032-1.3598-0.28882-2.1127-0.20181-1.9196-0.10792-1.8627-0.016233-1.6993 0.058082-1.6517 0.14969-1.9791 0.12786-1.1858 0.15362-1.1589 0.16547-1.036 0.19204-0.99339 0.30305-1.3579 0.28563-1.4924 0.29122-1.3106 0.32543-1.8677 0.16408-0.66093 0.21964-0.5908 0.29565-0.59723 0.38509-0.65047 0.5766-0.89699 0.3122-0.58825 0.17362-0.531 0.073125-0.50371 0.088945-1.5947 0.11245-1.3025 0.042088-0.25024 0.22422-0.74105 0.37247-0.69738 0.37619-0.47957 1.0461-1.1223 0.41422-0.50216 0.18143-0.26342 0.28612-0.50525 0.21832-0.54777 0.15822-0.81999 4.56e-4 -0.81814-0.12641-0.82477-0.22681-0.80345-0.21007-0.55456-0.24938-0.55228-0.40447-0.75865-0.31199-0.51244-0.71706-1.0187-0.41521-0.51654-0.43813-0.50015-0.45847-0.48025-0.47949-0.45809-0.35796-0.31375-0.66936-0.53061-1.0161-0.70307-0.59114-0.36708-1.1573-0.65386-1.565-0.83769-1.3911-0.70505-0.63149-0.38162-0.48868-0.37128-2.1022-1.7606-6.8259-5.5698-0.50386-0.38271-0.5052-0.3445-1.2176-0.74742-0.23021-0.16179-2.4005-1.9199-0.45209-0.33555-0.38649-0.2349-0.14962-0.067855-0.50726-0.11063-0.49007 0.085536-0.32882 0.19836-0.25688 0.25359-0.29529 0.39406-0.88569 1.4564-0.52425 0.8164-0.51698 0.71708-0.33844 0.42623-0.58417 0.66577-0.56643 0.54902-0.35858 0.292-0.48753 0.30675-0.51467 0.16691-0.24922 0.013835-0.32706-0.048786-0.29883-0.1123-0.2947-0.18207-0.262-0.23771-0.2484-0.33801-0.14695-0.3517-0.037839-0.22983 0.012834-0.26169 0.049078-0.23008 0.49767-1.3895 0.1514-0.60905 0.11696-0.67312 0.1139-0.9431 0.21523-2.5386 0.086652-0.73411 0.15354-0.83609 0.27494-0.83903 0.19298-0.36342 0.42491-0.51578 0.3794-0.31055 0.36731-0.22774 0.35076-0.17036 0.35854-0.13571 0.61621-0.16976 0.55861-0.18207 0.44563-0.27882 0.33175-0.38864 0.19104-0.52902 0.03659-0.31191-0.01278-0.2936-0.059502-0.33425-0.26713-1.087-0.051271-0.28619-0.087603-0.83747 0.023429-0.82482 0.12243-0.94316 0.12783-0.61798 0.21218-0.79194 0.29979-0.90854 0.39456-1.029 0.35009-0.83894 0.58369-1.2956 0.39197-0.77828 0.6195-1.0912 0.66119-1.031 1.5217-2.2232 0.62308-0.71779 0.5979-0.58952 0.4836-0.42153 1.35-1.0958 0.53325-0.48696 0.45296-0.49306 0.42516-0.60293 0.16001-0.2881 0.22745-0.50448 0.27389-0.76184 0.3333-1.1501 0.62237-2.306 0.1766-0.57077 0.27911-0.78022 0.33129-0.77818 0.25882-0.5345 0.37908-0.71226 0.6495-1.1153 1.0825-1.6938 0.71757-1.0213 1.5113-2.0197 0.66768-0.99367 0.24377-0.40738 0.43822-0.84554 0.16204-0.43897 0.018436-0.15466-0.029913-0.059732 0.68088 0.036843 0.81202 0.076494 1.7792 0.2059 2.1316 0.29276 2.4619 0.38782 3.3315 0.5864 2.2284 0.42611 2.3253 0.4844 2.5815 0.60157 1.3802 0.35072 2.5264 0.69064 4.0273 1.2069 3.0527 0.95214 2.1079 0.71058 0.84306 0.31609 2.3838 1.0059 0.57316 0.27699 0.49359 0.33093 1.2231 0.90585 0.40252 0.41192 0.29195 0.40604 0.14719 0.24164 0.31451 0.64281 0.16185 0.4409 0.22831 0.85228 0.28926 1.3422 0.28916 0.96884 0.29972 0.72136 0.3353 0.65693 0.56256 0.88483 0.59074 0.78461 0.36661 0.44358 0.90858 1.0019 0.69625 0.68712 0.66124 0.6113 0.41249 0.35467 0.62478 0.48858 0.65416 0.46925 2.6958 1.8396 4.1576 2.9481 1.6922 1.1116 1.0325 0.59639 0.39585 0.20212 1.4637 0.67098 1.688 0.87493 2.2566 1.0908 0.88441 0.3845 0.73266 0.27376 0.79599 0.24507 2.6464 0.63603 1.5031 0.39636 1.3422 0.37719 2.0192 0.6114 1.1763 0.28218 1.4489 0.27412 1.2402 0.1938 1.1423 0.1265 1.1457 0.064568 1.1291-6.09e-4 1.161-0.07575 0.79269-0.10396 1.1452-0.23322 1.1383-0.30142 2.7432-0.82507 1.9131-0.66054 2.3468-0.92054 0.98474-0.36308 3.5848-1.231 1.8358-0.57537 1.4966-0.4073 3.3889-0.82179 3.3463-0.9751 2.7264-0.72608 0.3292-0.079282 0.63167-0.098101 0.26559 0.016749 0.10038 0.041133 0.038775 0.074156" stroke="#bdc660"/>
    </defs>
    <g clip-path="url(#p0e6045467a)">
     <use y="280.512" fill="#bdc660" stroke="#bdc660" xlink:href="#m42e7442556"/>
    </g>
   </g>
  </g>
 </g>
 <defs>
  <clipPath id="p0e6045467a">
   <rect x="7.2" y="7.2" width="220.62" height="266.11"/>
  </clipPath>
 </defs>
</svg>
