<?xml version="1.0" encoding="UTF-8"?>
<!DOCTYPE svg  PUBLIC '-//W3C//DTD SVG 1.1//EN'  'http://www.w3.org/Graphics/SVG/1.1/DTD/svg11.dtd'>
<svg width="307.9pt" height="280.51pt" version="1.1" viewBox="0 0 307.9 280.51" xmlns="http://www.w3.org/2000/svg" xmlns:xlink="http://www.w3.org/1999/xlink">
 <metadata>
  <rdf:RDF xmlns:cc="http://creativecommons.org/ns#" xmlns:dc="http://purl.org/dc/elements/1.1/" xmlns:rdf="http://www.w3.org/1999/02/22-rdf-syntax-ns#">
   <cc:Work>
    <dc:type rdf:resource="http://purl.org/dc/dcmitype/StillImage"/>
    <dc:date>2024-07-04T12:09:59.283945</dc:date>
    <dc:format>image/svg+xml</dc:format>
    <dc:creator>
     <cc:Agent>
      <dc:title>Matplotlib v3.7.1, https://matplotlib.org/</dc:title>
     </cc:Agent>
    </dc:creator>
   </cc:Work>
  </rdf:RDF>
 </metadata>
 <defs>
  <style type="text/css">*{stroke-linejoin: round; stroke-linecap: butt}</style>
 </defs>
 <g id="figure_1">
  <g id="patch_1">
   <path d="m0 280.51h307.9v-280.51h-307.9v280.51z" fill="none"/>
  </g>
  <g id="axes_1">
   <g id="PatchCollection_1">
    <defs>
     <path id="mda031a330b" d="m283.93-168.47-0.13819 0.040542-0.61253 0.35529-0.55936 0.39585-0.6093 0.49856-0.60324 0.5721-0.63802 0.71255-0.19583 0.24666-0.49822 0.73559-0.38872 0.78348-0.203 0.60709-0.18778 1.1422 0.034767 0.89746 0.17185 0.91268 0.31995 1.0217 0.42908 1.0195 0.40708 0.80626 0.45648 0.79398 0.81305 1.2252 0.836 1.1178 2.1577 2.7435 0.67522 0.92973 0.55721 0.84311 0.47675 0.82752 0.39377 0.85156 0.23971 0.75598 0.077298 0.44101 0.020801 0.3659-0.024256 0.3567-0.11875 0.50389-0.18561 0.46368-0.23435 0.45871-1.5929 2.7495-0.56846 0.88684-0.42707 0.54436-0.41003 0.42395-0.55086 0.45631-0.61121 0.41422-0.59064 0.34358-0.57455 0.2939-1.0577 0.44723-1.7618 0.6151-4.8208 1.4911-1.3698 0.45646-3.4111 1.2921-1.2302 0.50813-0.86804 0.39373-0.73272 0.38181-0.80349 0.51703-0.75637 0.59399-0.68074 0.63223-0.592 0.6356-0.42696 0.51686-0.68844 0.95118-0.59267 0.95213-0.51078 0.93722-0.28232 0.57558-0.33831 0.76975-0.27152 0.72494-0.161 0.51161-0.14177 0.54122-0.13845 0.66787-0.1299 0.84176-0.23082 1.9253-0.1465 1.4898-0.031521 0.72914 0.007679 0.7934 0.074155 1.0164 0.11541 0.80596 0.19772 0.9041 0.2337 0.78104 0.23615 0.64587 0.7388 1.7688 0.17615 0.49119 0.10502 0.36484 0.10192 0.59263-0.022193 0.77862-0.17341 0.8003-0.25495 0.7192-0.334 0.72634-0.29926 0.5542-0.61125 0.97609-0.47728 0.66346-0.41092 0.52177-1.0728 1.2371-1.9827 2.1278-0.83451 0.97143-0.49727 0.64346-0.34205 0.4871-0.44504 0.70968-0.49822 0.92126-0.45703 0.9619-1.2371 2.7853-0.61202 1.225-0.82798 1.4461-1.0548 1.6272-1.2149 1.725-2.8906 3.9257-1.5854 2.2011-3.9195 5.7178-4.5346 6.2759-1.5714 2.1164-1.2446 1.5743-0.53342 0.58597-0.1924 0.16311-0.061097 0.027203-0.025707-0.010278-0.14861 0.061476-0.40362 0.046052-1.8048 0.06691-1.9769-0.01727-3.3691-0.11648-2.123 0.015207-1.5693 0.1042-1.5024 0.18734-0.92917 0.16336-0.91561 0.19686-0.98394 0.25069-0.96771 0.28415-1.3688 0.46135-1.3389 0.5112-1.0667 0.44437-2.0075 0.89536-1.8783 0.8919-1.093 0.5479-1.073 0.55947-4.0959 2.2242-0.69574 0.3434-0.95422 0.40254-0.96891 0.28324-0.67212 0.13831-0.68843 0.10655-0.97649 0.10579-0.99645 0.065467-0.95661 0.031203-2.0937-0.006486-2.0751-0.076691-0.9395-0.059407-1.5226-0.14959-0.78047-0.11634-0.77147-0.15973-0.90783-0.26028-1.1612-0.42476-2.5256-1.0564-1.2273-0.47461-1.2361-0.40747-1.2436-0.3022-0.77306-0.11797-0.77146-0.067349-0.9815-0.020453-0.99677 0.056526-0.8674 0.13161-0.71314 0.18815-0.88835 0.37193-0.76755 0.46009-0.9428 0.70997-0.91395 0.77587-0.59742 0.54452-1.0707 1.0516-1.4745 1.6133-0.82334 0.98526-0.59539 0.75199-1.091 1.4578-0.63784 0.75004-0.69739 0.61676-0.43864 0.3143-0.73422 0.4445-1.0453 0.50871-0.45551 0.19002-1.1173 0.40817-1.27 0.39448-1.4206 0.34757-0.65379 0.12092-1.0775 0.14717-0.58027 0.052801-1.8689 0.085329-0.85827 0.089541-1.0987 0.152-0.96109 0.1634-0.59243 0.12748-1.3388 0.36693-0.65215 0.22067-0.79106 0.30708-3.5523 1.5665-3.5944 1.4097-1.5306 0.66846-1.634 0.76451-1.0754 0.54097-1.3802 0.76739-1.3897 0.9055-0.78439 0.6249-1.3565 1.2125-1.0212 0.81751-0.51441 0.38237-2.3581 1.7105-1.9309 1.2161-1.1393 0.76852-1.3853 1.0597-2.947 2.3503-1.8197 1.4192-1.0351 0.77045-1.7947 1.2792-1.616 1.0949-0.77526 0.49896-0.76501 0.46407-0.85884 0.47262-0.7953 0.3851-1.1872 0.49076-0.87086 0.309-1.5372 0.47025-1.0467 0.27887-1.7837 0.39531-1.5644 0.2637-2.3004 0.27074-1.6199 0.096365-0.97328-0.025134-0.91234-0.12394-0.64546-0.15706-0.73652-0.25082-0.70743-0.30974-0.76095-0.40313-0.70179-0.42728-1.245-0.83288-1.8472-1.3395-0.87262-0.66633-1.7324-1.3805-2.0412-1.7449-1.9319-1.7676-1.3412-1.3111-1.0933-1.176-2.6311-3.09-0.64462-0.66874-0.54264-0.49685-0.4394-0.35426-0.48152-0.33642-0.85668-0.47387-0.92175-0.36372-0.83484-0.21912-0.76146-0.11585-0.73612-0.041385-0.8454 0.024216-0.70331 0.068711-0.70477 0.10354-0.88984 0.16658-2.0782 0.44165-1.1852 0.20047-1.2123 0.11028-1.0592 0.009592-2.6338-0.17145-1.3011-0.021209-1.2488 0.082967-1.0446 0.17339-0.66753 0.17884-0.75659 0.28615-0.3901 0.18424-0.56263 0.30631-0.46857 0.28882-0.53487 0.36538-0.57009 0.43123-0.84798 0.71524-1.787 1.6467-0.64452 0.55919-0.28912 0.2184-0.13735 0.046845 0.11567-0.19418 0.053851-0.14584 0.080663-0.31817 0.053272-0.38196 0.01082-0.3405-0.061356-0.53168-0.060397-0.22132-0.10835-0.26339-0.10024-0.17561-0.17072-0.22743-0.25902-0.25427-0.38082-0.26862-0.43473-0.22149-0.63456-0.2319-0.51246-0.14007-0.79204-0.16949-1.4254-0.23195-4.1059-0.53191-1.4436-0.27684-0.89246-0.22724-0.54655-0.16684-0.67866-0.24479-0.55625-0.2385-0.61399-0.31141-0.65913-0.40396-0.46428-0.33928-0.34708-0.29201-0.6839-0.70743-0.42466-0.54381-0.63753-0.99084-0.48735-0.928-0.38482-0.87598-0.24822-0.66529-0.30353-0.94824-0.68924-2.4694-0.49948-1.6811-0.24666-0.74397-0.49083-1.2902-0.34747-0.78397-0.66362-1.3196-1.454-2.6292-0.66173-1.2955-0.39822-0.87051-0.42563-1.0433-0.33577-0.95007-0.27566-0.91937-0.2085-0.8327-0.31388-1.6291-0.77239-5.2007-0.14163-1.1748-0.010023-0.7705 0.035439-0.37457 0.086414-0.45629 0.10983-0.38286 0.14319-0.38437 0.16528-0.36787 0.29068-0.54788 0.62814-0.97024 0.37938-0.51084 0.64671-0.79728 2.3897-2.6589 0.72771-0.88565 0.27814-0.39902 0.24321-0.43855 0.075339-0.22446 0.001451-0.064603-0.050605-0.063537 1.054 0.13066 1.1904 0.090757 9.3698 0.51672 1.824 0.064 1.9495 0.001461 1.0762-0.039938 0.87087-0.071694 0.72952-0.095235 0.99832-0.19275 1.0736-0.31121 0.54188-0.20527 0.59835-0.26708 0.77854-0.41906 0.74192-0.49493 0.59126-0.47716 0.48385-0.44244 0.42574-0.42219 0.88529-0.96465 0.76144-0.92816 0.57837-0.81066 0.32181-0.51828 0.34597-0.62496 0.5565-1.1557 0.50701-1.1803 0.90659-2.3286 0.71236-1.9395 0.23509-0.74108 0.23653-0.92008 0.15925-0.90657 0.053936-0.47141 0.038632-0.534 0.016174-0.73584-0.031514-0.83382-0.085165-0.83293-0.13388-0.80027-0.27492-1.1184-0.33078-1.0467-1.5767-4.2659-0.56245-1.7161-0.26307-0.94944-0.22857-0.95838-0.1908-0.97068-0.12012-0.7678-0.10412-0.88657-0.10083-1.6023-0.027549-1.1387-0.001017-2.1358 0.031305-1.5531 0.099685-2.4359 0.18152-2.5784 0.24022-2.7351 0.053941-0.89081 0.026877-1.0289-0.00121-1.2747-0.023889-0.75958-0.082966-1.2525-0.13043-1.14-0.15571-0.95873-0.13133-0.65135-0.4034-1.5809-0.36424-1.1148-0.77477-2.0616-0.2746-0.78792-0.33891-1.1116-0.20664-0.80559-0.22753-1.1449-0.14096-1.0769-0.067396-1.2598 0.045219-1.1817 0.10687-0.91404 0.10781-0.62329 0.16792-0.74968 0.18303-0.64484 0.22133-0.64144 0.22066-0.55375 0.26244-0.59523 0.91255-1.9152 0.3859-0.90922 1.7978-4.7996 0.53777-1.5226 0.36775-1.1857 0.21707-0.97594 0.085466-0.77068 0.013098-0.59705-0.021385-0.46206-0.057237-0.49503-0.11594-0.58111-0.1503-0.54265-0.60836-1.9181-0.21337-0.83568-0.14851-0.75801-0.13668-1.0291-0.072684-1.019-0.023177-2.3805-0.026545-0.67872-0.10392-0.961-0.17944-0.82564-0.17832-0.55395-0.32593-0.77705-0.26302-0.52711-1.1879-2.1987-0.67244-1.4373-0.68775-1.7558-0.98423-2.8429-0.30715-0.71561-0.16404-0.27736 0.37546-0.16336 0.76449-0.42222 0.89095-0.45078 1.592-0.69886 1.4577-0.56364 1.2303-0.42843 1.7715-0.53639 0.9096-0.23587 1.1172-0.25292 2.8825-0.53839 3.2555-0.55728 3.9716-0.53958 1.3671-0.26086 0.35203-0.093337 0.7974-0.27378 0.77333-0.34678 0.64132-0.34603 0.62365-0.38583 0.98838-0.70921 0.55458-0.44986 0.53602-0.47252 0.54694-0.52414 0.52313-0.54375 0.90327-1.0499 0.63881-0.8487 0.6144-0.93318 1.1452-2.0765 0.62494-1.024 0.63365-0.85114 0.58012-0.64897 0.62016-0.58292 0.51566-0.41336 0.76342-0.53133 2.0314-1.2684 0.9142-0.63823 0.4734-0.38217 0.54153-0.50706 0.35076-0.36966 0.40085-0.45978 0.77423-0.98683 1.0405-1.4715 0.76339-1.1521 0.70474-1.1637 0.38624-0.70783 0.86901-1.8152 0.17845-0.2467 0.22557-0.2065 0.52833-0.24248 0.63916-0.098743 0.423 0.020494 0.44997 0.079859 0.73686 0.23433 0.83367 0.39481 0.43959 0.25402 0.61246 0.39975 5.1949 3.8891 0.7364 0.53572 0.88611 0.60486 0.52458 0.32314 0.70559 0.38733 0.88258 0.43512 0.35281 0.15092 0.86485 0.28706 1.0308 0.20579 1.2703 0.12394 1.1683 0.036834 1.2006-0.005087 3.6814-0.083968 1.2205 0.005601 1.2007 0.052396 1.1698 0.1206 1.1262 0.21404 0.7363 0.20955 0.71437 0.24811 5.0016 1.8654 1.3136 0.40714 1.5154 0.37798 1.6344 0.33648 1.414 0.22372 0.82348 0.086165 1.325 0.057069 1.2787-0.058829 1.0245-0.15039 0.84794-0.21161 0.6395-0.20973 0.61723-0.24322 1.1404-0.56942 0.62906-0.39014 0.60582-0.43174 0.78942-0.65067 0.82693-0.78748 2.4782-2.6367 0.60973-0.59297 0.47946-0.43005 0.85443-0.69161 0.95622-0.69296 0.99618-0.66474 2.946-1.8702 2.1625-1.4195 1.1544-0.83161 0.91064-0.74295 0.91904-0.87456 0.94782-1.0388 0.76092-0.92132 0.74484-0.96958 0.74016-1.0437 0.76907-1.1906 0.51041-0.86787 0.47838-0.88525 0.60467-1.2539 0.30432-0.70873 0.67532-1.7689 0.4535-1.372 0.24021-0.82641 0.21321-0.82878 0.27331-1.3305 0.16748-1.2127 0.14186-1.3142 0.10724-1.2765 0.12572-3.3171 0.066651-0.81833 0.088601-0.64481 0.13175-0.63239 0.19811-0.66104 0.18271-0.48421 0.30147-0.67302 0.31699-0.61323 0.41445-0.70893 0.45705-0.69318 0.47488-0.64384 0.5115-0.62303 0.75748-0.80978 1.016-0.9101 0.68384-0.52356 0.71788-0.48716 0.85898-0.51017 0.89699-0.45966 1.2732-0.54195 1.207-0.4217 1.9835-0.6048 3.8039-1.0981 1.5483-0.47575 1.0298-0.36096 0.97431-0.40002 0.6539-0.31855 0.60236-0.34949 0.54769-0.39189 0.46937-0.43308 0.29916-0.35821 0.31335-0.48698 0.2507-0.53145 0.1905-0.61921 0.055266-0.45519-0.07608-0.29002 0.055164-0.032065 0.26045-0.008641 0.37143 0.024136 1.6038 0.21274 1.5419 0.28764 3.9294 0.81409 1.4223 0.26735 1.4118 0.23844 1.7033 0.2449 1.0432 0.12018 0.8661 0.072457 0.89973 0.043724 1.2104 0.009805 0.78194-0.018652 1.8531-0.098484 3.1623-0.22376 1.4389-0.066747 0.81248-0.009232 0.97388 0.02625 1.4519 0.12364 0.99417 0.14529 1.0026 0.19331 1.4862 0.33845 2.1117 0.52523 3.8359 1.0141 0.64012 0.21666 0.22637 0.11187 0.16603 0.12139 0.099364 0.13064 0.034229 0.11619-0.020793 0.16975-0.14128 0.25167-0.23634 0.25746-0.18871 0.1661-1.0664 0.8158-0.65299 0.54876-0.5464 0.51863-0.48974 0.52264-0.6562 0.79877-0.30705 0.41607-0.50604 0.7526-0.48638 0.81712-0.65667 1.2628-0.58073 1.2386-0.43716 1.0294-0.62951 1.5875-0.403 1.1107-0.20965 0.68954-0.1895 0.77105-0.12818 0.73121-0.083984 0.94456 0.003772 0.91872 0.090294 1.0779 0.21047 1.4013 0.74474 4.4106 0.22795 1.2348 0.26047 1.2178 0.34117 1.2907 0.42761 1.2391 0.43359 0.97265 0.48896 0.93048 0.32425 0.55777 0.351 0.53978 0.63398 0.8147 0.71389 0.7733 0.68125 0.65874 0.5617 0.50456 1.2371 1.0208 1.7585 1.2963 2.7144 1.8526 1.1919 0.85634 1.0435 0.83624 2.2808 2.043 0.86566 0.73684 0.80631 0.645 1.6488 1.2302 1.7901 1.2289 7.6258 5.1238 1.2793 0.8861 2.0437 1.4753 1.5658 1.2258 1.1081 0.95508 0.98552 0.9464 0.52595 0.56114 0.49796 0.57838 0.4767 0.60688 0.40335 0.55832 1.1425 1.6529 0.6708 1.0133 0.64422 1.0476 0.50511 0.89021 0.99163 1.8713 0.56716 1.1293 0.55592 1.1812 0.84024 1.9273 0.7169 1.7726 0.27903 0.80895 0.18339 0.70389 0.063608 0.36923 0.054011 0.7813-0.023337 0.93917-0.13238 2.1011-0.060795 2.1139 0.034896 1.6321 0.062368 0.84265 0.13109 0.99135 0.20057 0.90675 0.32129 0.90292 0.1541 0.31562 0.20512 0.35908 0.31584 0.46938 0.26108 0.3385 0.39412 0.45022 0.55145 0.52281 0.40825 0.31262 0.3456 0.2197 0.3485 0.18415 0.82279 0.31828 0.72368 0.17902 1.0483 0.1399 1.1955 0.038657 1.3009-0.054848 1.6142-0.15433 3.8449-0.45746 1.0807-0.094836 0.98454-0.038213 0.79947 0.019589 0.51132 0.043526 0.64104 0.10344 0.47466 0.14897 0.13635 0.097409 0.025124 0.056881-0.01011 0.06081" stroke="#bdc660"/>
    </defs>
    <g clip-path="url(#p943347ea36)">
     <use y="280.512" fill="#bdc660" stroke="#bdc660" xlink:href="#mda031a330b"/>
    </g>
   </g>
  </g>
 </g>
 <defs>
  <clipPath id="p943347ea36">
   <rect x="7.2" y="7.2" width="293.5" height="266.11"/>
  </clipPath>
 </defs>
</svg>
