<?xml version="1.0" encoding="UTF-8"?>
<!DOCTYPE svg  PUBLIC '-//W3C//DTD SVG 1.1//EN'  'http://www.w3.org/Graphics/SVG/1.1/DTD/svg11.dtd'>
<svg width="316.25pt" height="280.51pt" version="1.1" viewBox="0 0 316.25 280.51" xmlns="http://www.w3.org/2000/svg" xmlns:xlink="http://www.w3.org/1999/xlink">
 <metadata>
  <rdf:RDF xmlns:cc="http://creativecommons.org/ns#" xmlns:dc="http://purl.org/dc/elements/1.1/" xmlns:rdf="http://www.w3.org/1999/02/22-rdf-syntax-ns#">
   <cc:Work>
    <dc:type rdf:resource="http://purl.org/dc/dcmitype/StillImage"/>
    <dc:date>2024-07-04T12:09:50.286864</dc:date>
    <dc:format>image/svg+xml</dc:format>
    <dc:creator>
     <cc:Agent>
      <dc:title>Matplotlib v3.7.1, https://matplotlib.org/</dc:title>
     </cc:Agent>
    </dc:creator>
   </cc:Work>
  </rdf:RDF>
 </metadata>
 <defs>
  <style type="text/css">*{stroke-linejoin: round; stroke-linecap: butt}</style>
 </defs>
 <g id="figure_1">
  <g id="patch_1">
   <path d="m0 280.51h316.25v-280.51h-316.25v280.51z" fill="none"/>
  </g>
  <g id="axes_1">
   <g id="PatchCollection_1">
    <defs>
     <path id="m856239728c" d="m217.11-260.38 0.072447-0.1129 0.12455-0.064972 0.26299-0.060836 0.4053-0.023274 0.53444 0.034293 0.69979 0.11822 0.8173 0.22298 0.64549 0.23101 1.2598 0.55093 5.5373 2.6473 2.6854 1.2256 1.6788 0.67232 1.2199 0.42193 3.833 1.1286 1.5061 0.5292 0.80856 0.35043 0.66433 0.34074 0.52094 0.31122 0.63863 0.4495 0.79249 0.69622 0.57333 0.62924 0.68954 0.95051 0.49284 0.87233 0.38456 0.85454 0.23033 0.61949 1.1782 3.9735 0.34052 0.94136 0.43651 1.0306 0.57297 1.2035 2.4233 4.8403 0.92455 1.6872 0.9099 1.4824 0.3502 0.51001 0.9061 1.1899 0.74863 0.87804 1.5593 1.6976 1.1062 1.2628 3.1077 3.6871 0.95324 1.0063 1.6594 1.6217 0.69135 0.87352 2.147 3.2064 0.83683 1.1161 0.7325 0.86047 2.7526 2.8261 1.8527 1.7821 0.45964 0.36432 0.75253 0.46224 1.5177 0.80542 1.4936 1.0533 0.49755 0.29476 0.25755 0.11771 0.93961 0.27489 2.065 0.4047 0.54754 0.16442 1.8021 0.60298 0.85894 0.36465 0.21768 0.1314 0.44914 0.36488 0.19661 0.23465 0.31141 0.55506 0.20149 0.51928 0.54171 1.777 0.19117 0.4732 0.38617 0.72516 0.35406 0.51133 0.77448 0.89366 0.34873 0.32639 1.1252 0.80361 0.85368 0.41085 1.2068 0.36796 1.0459 0.15684 0.91837 0.035565 1.0026-0.057881 0.96924-0.15238 0.4209-0.11225 0.30113-0.17334 0.2364 0.25326 0.32446 0.52891 0.44375 0.89831 0.27189 0.69168 0.34327 1.2019 0.21541 1.096 0.072112 0.61844 0.040232 0.71612-0.011934 1.049-0.087507 1.0794-0.099632 0.74809-0.1533 0.87726-0.2021 0.90594-0.2276 0.7929-0.27167 0.75401-0.69835 1.4411-0.72559 1.1766-0.8895 1.2501-2.1703 2.7786-0.83395 1.1333-0.88269 1.3445-0.49822 0.84511-0.69471 1.3192-1.6769 3.5048-2.5792 5.059-0.65303 1.0975-1.1759 1.8022-1.8852 2.593-0.58481 1.0019-0.6572 1.2366-0.19812 0.30997-0.36136 0.42078-0.34968 0.24733-0.33702 0.059826-0.31454-0.10328-0.31742-0.22642-0.32532-0.3231-0.33191-0.43573-0.31494-0.54477-0.43649-0.90849-0.3092-0.54025-0.39282-0.52953-0.58154-0.56645-0.86643-0.61357-0.97572-0.62372-0.9246-0.6586-0.93757-0.74812-0.91773-0.81063-1.8923-1.8463-0.87362-0.77507-0.83258-0.54698-0.2432-0.10448-0.49866-0.124-0.27135-0.008523-0.33319 0.072587-0.3514 0.29163-0.14748 0.61175 0.10899 0.84014 0.32792 0.99877 0.38009 0.83496 0.34345 0.65128 0.9211 1.547 0.79334 1.2091 0.79782 1.1305 0.84185 1.1091 0.76526 0.93463 0.78972 0.8869 0.81223 0.82265 1.1365 0.98129 0.93373 0.65976 1.79 1.1791 0.78375 0.6178 0.6159 0.55058 0.77262 0.83727 0.66199 0.80629 1.5023 1.6817 0.67243 0.9743 0.57656 1.1217 0.44064 1.2327 0.25505 1.3147 0.045348 0.75946-0.007613 0.78104-0.076067 1.1563-0.17749 1.2433-0.26746 1.2796-0.66057 2.4046-2.0715 6.3343-0.96633 3.1081-0.81891 2.7851-0.23846 0.90521-0.22957 1.321-0.030628 0.83563 0.048055 0.52899 0.12737 0.64517 0.15532 0.52684 0.46888 1.1667 1.5329 3.139 0.65068 1.5386 0.34551 0.8993 0.48926 1.4195 0.32967 1.1331 0.29402 1.2855 0.1455 0.89506 0.092246 1.2091-0.012222 0.67127-0.13382 1.2821-0.26048 1.2344-0.37631 1.1605-0.47717 1.0091-0.58242 0.83758-0.76793 0.84804-0.60969 0.5736-0.61854 0.52697-3.3505 2.5927-1.9801 1.636-0.65789 0.60392-0.90614 0.89996-1.4924 1.6416-0.73574 0.86522-1.3158 1.6767-1.2237 1.7536-0.73153 1.1965-0.53011 0.97654-0.46677 0.97704-0.97838 2.4477-0.50806 1.1383-0.6261 1.0357-1.0032 1.084-1.2092 0.90106-0.84573 0.48955-0.67687 0.33207-0.94881 0.38804-0.80416 0.26359-0.73598 0.19418-1.2261 0.24918-1.9353 0.335-1.2652 0.26678-3.0403 0.74419-0.88755 0.15684-0.92773 0.095513-1.1714 0.010046-1.1951-0.12632-0.86809-0.17676-1.535-0.41196-1.0964-0.22208-0.69568-0.042156-0.71631 0.041231-1.058 0.19849-1.4032 0.42832-0.79004 0.29045-8.8623 3.5478-1.3508 0.596-4.0921 1.9967-1.914 0.89133-3.9376 1.5978-1.405 0.6308-0.96057 0.54141-0.91299 0.65642-1.0049 0.88976-1.1506 1.1576-3.7603 4.0142-1.5956 1.9432-0.9239 1.2384-0.78619 1.1323-1.1762 1.8667-0.68449 1.2449-0.30787 0.62314-0.44246 0.96909-0.49026 1.2349-0.44644 1.2787-2.1196 6.5635-0.3725 1.0574-1.264 2.4685-0.52505 1.3765-0.58225 1.7023-0.2983 0.7674-0.39877 0.84735-0.38464 0.66382-0.42904 0.63849-0.4542 0.59889-0.49721 0.56153-0.81218 0.72786-0.89316 0.63188-1.1764 0.6678-0.94257 0.43435-0.88308 0.33108-1.5025 0.44073-0.63981 0.24248-0.42095 0.23841-0.47216 0.37655-0.90706 0.84781-0.43055 0.31914-0.48877 0.29204-0.93727 0.39146-0.67777 0.15672-0.71302 0.047851-1.1834-0.1841-0.69228-0.23244-0.79809-0.35928-0.55868-0.29888-2.6745-1.6563-0.80048-0.43738-0.62831-0.26219-0.50751-0.13444-0.43577-0.044975-0.52444 0.031652-0.88711 0.20581-2.2171 0.70896-0.59653 0.23278-0.58789 0.29725-0.57095 0.3606-0.38356 0.29532-0.17153 0.16066-0.14295 0.19557-0.4365 0.62503-0.61658 0.753-0.35797 0.36656-0.38167 0.33092-0.40276 0.27709-0.42405 0.20528-0.4691 0.12476-0.48667 0.044942-0.49731-0.016972-1.0068-0.16677-1.0132-0.29374-1.0063-0.38049-1.7823-0.78832-1.8091-0.71639-1.5082-0.51874-1.0268-0.28759-0.51274-0.11304-0.81002-0.1175-2.165 0.002602-0.42015-0.045583-0.41353-0.085269-0.41589-0.13713-0.40186-0.1856-0.38462-0.2324-0.36824-0.28204-0.34701-0.32455-0.3253-0.36292-0.3477-0.46376-0.31737-0.50501-0.46868-0.91985-0.39411-0.92518-0.8228-2.1832 0.19752-0.10789 0.43476-0.51757 1.6583-2.6017 1.6286-2.4258 0.94721-1.5073 0.43944-0.78554 0.37882-0.7746 0.43042-1.1755 0.15986-0.86115-0.086289-1.3192-0.26442-0.88902-0.15814-0.38041-0.61248-1.0782-0.59767-0.70664-0.68276-0.52032-0.62218-0.26605-0.65756-0.15959-1.447-0.23678-0.84903-0.23588-0.84272-0.43893-0.66406-0.58582-0.31405-0.43133-0.52978-0.92146-0.28854-0.41087-0.3434-0.34547-0.38618-0.24847-0.63169-0.20812-0.74646-0.11197-0.65639-0.054912-2.8896-0.041863-0.908-0.04497-0.87048-0.11426-0.59285-0.14797-0.6122-0.24365-0.55832-0.30959-0.31964-0.21785-0.66028-0.60245-0.51066-0.69695-0.30227-0.61517-0.54948-1.3086-0.60094-0.99792-0.80144-0.96039-0.97623-0.84271-1.0239-0.62596-2.1873-1.1589-1.1262-0.5746-1.1866-0.49661-1.4686-0.41515-3.4932-0.67079-0.93614-0.26834-1.2022-0.51923-1.1631-0.68522-0.75204-0.52558-1.1756-0.89853-1.1689-0.97137-1.1462-1.0309-1.1057-1.0816-1.0453-1.1272-0.962-1.1709-2.0177-2.7598-0.79499-1.0167-0.86533-1.0102-0.64683-0.67585-0.74799-0.70162-0.69775-0.58717-0.7007-0.53143-4.5169-3.047-1.0469-0.73445-1.0733-0.80354-1.232-1.0338-0.69011-0.66325-0.63364-0.69214-0.85795-1.1499-0.48358-0.8517-0.37087-0.89107-0.28192-1.082-0.18354-1.2353-0.44121-4.4767-0.32944-2.0764-0.19792-0.93272-0.37253-1.4191-0.55655-1.6699-0.64996-1.5923-0.91184-1.8696-0.90529-1.4897-0.68853-0.96541-0.65449-0.83485-3.4748-4.1178-0.8506-1.0993-0.6415-0.90062-0.61979-0.95302-0.64489-1.1078-0.65123-1.2701-0.49983-1.094-0.53535-1.2892-0.85069-2.2084-2.387-6.4304-0.78953-1.9279-0.44025-0.94974-0.58177-1.1095-0.92332-1.4893-0.65387-0.92381-0.83213-1.0704-1.2467-1.4353-1.1909-1.2132-1.1096-1.0029-1.2165-0.95171-1.2654-0.79226-1.1981-0.50582-0.98254-0.17444-0.91453 0.078064-0.7276 0.203-0.79504 0.32431-1.9828 1.0222-0.65977 0.30183-0.42447 0.15014-0.50031 0.12068-1.0547 0.06455-1.1312-0.098929-2.3479-0.30843-1.3849-0.14206-1.4191-0.11911-2.8165-0.16887-1.3335-0.044656-1.2989 0.01052-1.2128 0.18377-0.99755 0.38465-0.73554 0.40856-3.2616 2.2304-0.76718 0.45575-0.91595 0.44783-0.48916 0.18544-1.0302 0.25211-1.0544 0.076829-1.0536-0.10665-0.91877-0.25627-0.88751-0.39464-0.35274-0.19899-0.31705-0.20314-0.82325-0.64747-0.84488-0.87984-0.9219-1.3539-0.56888-1.2653-0.36345-1.3417-0.16664-1.5234 0.089278-1.7938 0.2674-1.4828 0.40926-1.4714 0.43479-1.2215 0.49224-1.1831 0.50683-1.0741 0.83734-1.5168 0.23096-0.33948 0.09783-0.067231 0.049433-0.082002 0.028658-0.5061-0.18619-4.7103 0.013658-1.5654 0.099833-1.404 0.23759-1.386 0.20059-0.6832 0.17769-0.44874 0.33492-0.65823 0.28899-0.45847 0.442-0.55884 0.3989-0.39125 0.5419-0.4146 0.5714-0.33976 0.54592-0.26361 0.68659-0.27711 1.4446-0.44376 0.83893-0.15534 1.0717-0.11477 3.6253-0.15619 0.88529-0.074036 0.86446-0.1067 1.0998-0.19334 0.96502-0.22672 1.454-0.46249 1.1318-0.51282 1.0074-0.61771 1.3023-1.0236 3.5066-3.1514 1.3083-1.1383 1.6269-1.2603 2.6423-1.9006 0.9524-0.78886 1.5781-1.4456 1.2351-1.2406 0.91414-1.0327 0.7611-0.93634 1.0113-1.3976 1.8201-2.8414 0.47457-0.64412 0.40684-0.48259 0.6781-0.66882 0.41934-0.34583 0.45792-0.33218 1.0928-0.63038 0.63059-0.27036 0.6698-0.22758 0.63753-0.16753 0.66632-0.12887 0.72919-0.093174 1.3634-0.065924 1.0279 0.0391 0.77849 0.089233 1.3331 0.24679 1.083 0.24931 2.9534 0.77816 0.71136 0.12379 0.95904 0.071268 1.0633-0.072264 0.7137-0.14594 0.79582-0.26379 0.57047-0.25967 0.77916-0.45277 0.79992-0.56675 3.8152-3.1028 3.2458-2.4162 1.4615-1.1486 0.72846-0.61368 1.177-1.0522 1.3086-1.297 0.76751-0.87449 0.76813-1.0112 0.78106-1.249 0.61317-1.2514 0.44133-1.1906 0.27032-0.95509 0.20375-0.92211 0.59903-3.9663 0.19146-0.97642 0.2255-0.85655 0.23826-0.67069 0.27887-0.59098 0.36552-0.55934 0.50523-0.42495 0.30961 0.014736 0.30381-0.039574 0.34908 0.28726 0.55354 0.7495 0.4197 0.72539 0.50464 1.0128 0.54077 1.2135 1.2287 3.0048 0.58016 1.2484 0.49787 0.84833 0.7257 0.90836 0.76299 0.63688 0.69614 0.36903 0.59011 0.19269 0.62002 0.11297 1.1363 0.028001 0.70294-0.082352 0.69506-0.14666 1.0854-0.33055 1.1393-0.44516 3.4206-1.5493 4.435-1.9026 1.3574-0.65676 0.9863-0.53441 0.92478-0.56017 1.5089-1.0526 1.1834-0.95142 1.165-1.0686 2.0641-2.093 0.72023-0.65712 0.71632-0.55019 0.73623-0.44302 0.66295-0.29958 0.85528-0.26792 0.87258-0.15804 0.74564-0.060118 1.2437 0.016319 3.1283 0.3237 1.0081 0.035122 1.2833-0.12402 1.2033-0.35711 0.89853-0.48571 0.5749-0.45896 0.59019-0.63913 0.44735-0.61426 0.77679-1.3068 1.4587-2.6863 0.44642-0.73195 0.83144-1.1702 0.89813-0.95108 0.6875-0.53048 0.67815-0.39043 0.63798-0.27352 0.9534-0.28106 1.158-0.19528 1.3683-0.084241 0.97746 0.016911 1.5249 0.14085 2.8217 0.37953 1.3848 0.076048 0.92671-0.043296 0.89486-0.14079 0.96261-0.299 0.61743-0.29999 0.91224-0.64901 0.82642-0.87022 0.75478-1.1389 0.56242-1.1398 0.33492-0.80788 1.4158-3.9633 0.63164-1.49 0.69244-1.2061 0.75479-0.92101 1.0102-0.80683 0.88419-0.41151 0.64445-0.1564 0.64936-0.044567 1.1599 0.20982 0.86031 0.4316 0.5816 0.47637 0.37867 0.42295 0.50985 0.74851 0.45352 0.85459 0.94274 2.044 0.51458 0.97084 0.29387 0.43519 0.27797 0.31686 0.35721 0.28948 0.43194 0.20725 0.50612 0.079482 0.45506-0.060459 0.44556-0.17918 0.75526-0.63059 0.37045-0.52113 0.30843-0.61908 0.37783-1.3076 0.15246-1.2314 0.028271-1.0317-0.026669-0.97517-0.22283-3.5053-0.055868-1.3235-0.007592-0.97424 0.032031-0.9283 0.088676-1.0608 0.15925-1.1944 0.20071-1.1202 0.194-0.82948 0.21677-0.67421 0.25957-0.548 0.21264-0.30881 0.41071-0.3659 0.19904-0.094065 0.31328-0.062078 0.40208 0.038631 0.4495 0.15682 0.6634 0.36114 1.8922 1.1828 1.0072 0.5067 1.132 0.40058 0.86006 0.16578 0.74462 0.039805 1.1558-0.12878 1.0341-0.30593 1.0415-0.51042 0.845-0.59899 0.67936-0.62564 0.78652-0.88679 1.5612-2.002 0.99264-1.1339 0.55676-0.52658 0.58792-0.45634 0.96296-0.52024 0.94248-0.25571 1.0197-0.031224 1.0594 0.1928 1.2986 0.45998 2.2559 0.992 0.69902 0.24399 0.58029 0.13908 0.53052 0.055821 0.69095-0.070748 0.48845-0.21969 0.3034-0.39717-0.05172-0.56496" stroke="#bdc660"/>
    </defs>
    <g clip-path="url(#p5dd1914e4e)">
     <use y="280.512" fill="#bdc660" stroke="#bdc660" xlink:href="#m856239728c"/>
    </g>
   </g>
  </g>
 </g>
 <defs>
  <clipPath id="p5dd1914e4e">
   <rect x="7.2" y="7.2" width="301.85" height="266.11"/>
  </clipPath>
 </defs>
</svg>
