<?xml version="1.0" encoding="UTF-8"?>
<!DOCTYPE svg  PUBLIC '-//W3C//DTD SVG 1.1//EN'  'http://www.w3.org/Graphics/SVG/1.1/DTD/svg11.dtd'>
<svg width="307.78pt" height="280.51pt" version="1.1" viewBox="0 0 307.78 280.51" xmlns="http://www.w3.org/2000/svg" xmlns:xlink="http://www.w3.org/1999/xlink">
 <metadata>
  <rdf:RDF xmlns:cc="http://creativecommons.org/ns#" xmlns:dc="http://purl.org/dc/elements/1.1/" xmlns:rdf="http://www.w3.org/1999/02/22-rdf-syntax-ns#">
   <cc:Work>
    <dc:type rdf:resource="http://purl.org/dc/dcmitype/StillImage"/>
    <dc:date>2024-07-04T12:09:57.665404</dc:date>
    <dc:format>image/svg+xml</dc:format>
    <dc:creator>
     <cc:Agent>
      <dc:title>Matplotlib v3.7.1, https://matplotlib.org/</dc:title>
     </cc:Agent>
    </dc:creator>
   </cc:Work>
  </rdf:RDF>
 </metadata>
 <defs>
  <style type="text/css">*{stroke-linejoin: round; stroke-linecap: butt}</style>
 </defs>
 <g id="figure_1">
  <g id="patch_1">
   <path d="m0 280.51h307.78v-280.51h-307.78v280.51z" fill="none"/>
  </g>
  <g id="axes_1">
   <g id="PatchCollection_1">
    <defs>
     <path id="m8763c66b71" d="m287.25-197.41-0.17122 0.028515-0.29648 0.15962-0.66012 0.45889-0.79171 0.64834-0.83278 0.79172-0.84958 0.93555-2.3401 2.7398-1.0432 1.1331-0.92939 0.95736-0.74872 0.70489-0.71939 0.61804-0.82762 0.63827-1.1065 0.73616-0.85782 0.49334-2.628 1.3919-1.2517 0.7601-1.2749 0.90871-2.0986 1.6685-1.1304 0.85942-0.95146 0.66986-4.1817 2.8082-1.0426 0.72946-0.64856 0.48735-0.81969 0.68997-0.68508 0.68988-0.42291 0.53207-0.24695 0.39006-0.37838 0.90805-0.12537 0.58817-0.064772 0.92472 0.035915 0.78709 0.11534 0.87242 0.38703 1.8045 1.0097 4.0984 0.24626 1.0974 0.25548 1.2963 0.7903 4.8683 0.34472 1.4342 0.42097 1.1847 0.43518 0.87538 0.36658 0.57212 0.84371 0.99714 0.64163 0.6144 1.2707 1.0675 0.6526 0.50934 4.9285 3.6832 0.80758 0.6265 1.0566 0.89551 0.58692 0.57477 0.78985 0.94708 0.58852 0.87984 0.37957 0.6749 0.33279 0.69212 0.45362 1.1862 0.22337 0.74869 0.32185 1.3748 0.6454 3.6696 0.40724 1.9403 0.23659 0.87496 0.41124 1.2381 0.45092 1.0636 0.293 0.56891 0.58812 0.96493 0.90546 1.3699 0.30047 0.52072 0.2361 0.48038 0.25058 0.67861 0.12434 0.62563-0.057642 1.0346-0.36578 1.0127-0.46384 0.72551-0.59347 0.69294-0.69159 0.66695-2.8811 2.379-0.83128 0.78557-0.5728 0.62806-0.543 0.66674-0.62504 0.84608-0.95972 1.4294-0.76867 1.2154-0.73669 1.2309-0.68652 1.241-1.0255 1.9888-0.51326 0.89726-0.62852 1.0187-1.8729 2.8964-0.62955 0.92134-1.0263 1.412-0.55575 0.851-0.50295 0.98867-0.27515 0.78664-0.19999 0.79263-0.17246 0.88775-0.23008 1.8215-0.11272 0.60234-0.2154 0.63876-0.14939 0.26384-0.19184 0.23344-0.091932 0.083508-0.68256 0.338-0.8784 0.12064-1.0033-0.058449-0.49904-0.081049-0.79404-0.17708-0.72114-0.20311-0.61588-0.20747-0.84602-0.36442-0.502-0.28304-0.39967-0.26487-0.53618-0.39687-1.9176-1.5889-0.74445-0.57347-0.90929-0.58655-0.9449-0.55729-0.46501-0.23632-0.82022-0.33777-0.94662-0.29326-1.1743-0.21376-4.4883-0.52895-0.9462-0.059408-1.1601 0.032157-0.80557 0.071286-1.6375 0.22635-0.81914 0.15095-1.2654 0.29612-1.3947 0.4586-1.2536 0.61679-0.78481 0.55308-0.724 0.646-0.51371 0.53986-0.48718 0.57114-0.90011 1.1818-1.9819 2.7876-0.56345 0.69854-0.38242 0.41466-0.55229 0.48909-0.437 0.29182-0.78338 0.36603-0.73559 0.18124-0.77188 0.078697-0.68041 0.007939-0.68293-0.049273-0.70269-0.11386-1.6314-0.34378-0.79796-0.10719-0.99149-0.012416-2.6763 0.1584-1.03 0.028349-1.4338-0.028598-1.3649-0.097109-0.64366-0.075369-1.0109-0.18206-0.76261-0.21671-1.968-0.78699-0.76133-0.22065-0.48779-0.10435-1.1969-0.1581-0.83321-0.020813-0.83481 0.072302-0.80584 0.17314-0.98251 0.36962-0.5159 0.27231-0.40617 0.26615-0.36124 0.28691-0.43546 0.4245-0.94763 1.1075-1.2522 1.6439-0.55122 0.65206-2.0475 2.1802-0.87721 0.80085-3.1386 2.6846-1.0364 1.0012-0.78409 0.83439-0.62793 0.74422-1.4188 1.8183-1.9265 2.3865-1.7641 2.4666-0.6253 0.93972-0.58982 0.98447-0.3274 0.60237-0.55825 1.1211-0.56625 1.2613-0.64957 1.5829-1.1265 2.897-0.32358 0.78862-0.36633 0.75215-0.51432 0.81617-0.51539 0.65333-0.66764 0.71308-1.0277 0.93384-0.85727 0.68426-0.99605 0.72364-1.1033 0.75218-1.5125 0.95845-4.4629 2.5771-0.46354 0.24814-1.2138 0.53106-0.42275 0.13123-0.95992 0.21762-0.54081 0.086087-2.5386 0.28776-1.1801 0.20741-1.9604 0.47624-1.4178 0.42519-0.83792 0.28304-1.4831 0.56108-1.2881 0.54706-1.241 0.57532-1.7954 0.89122-3.9055 2.0029-1.3397 0.6291-0.62786 0.24316-0.054855 0.17338 0.029539 0.3415 0.58617 3.421 0.46384 3.7678 0.084673 1.2753-0.035485 0.66793-0.068134 0.3483-0.11292 0.30417-0.11428 0.19178-0.30794 0.32657-0.34382 0.24431-0.28829 0.15802-1.6389 0.65331-0.67435 0.30363-0.69649 0.37505-1.1095 0.73321-1.285 0.93446-1.219 0.93224-2.0708 1.6509-0.71248 0.50032-2.9859 1.7812-2.0903 1.3615-0.83359 0.48801-0.94484 0.44536-0.50444 0.18938-0.50522 0.15794-0.9597 0.21266-0.86474 0.076006-0.65936-0.045967-0.5418-0.14458-0.36687-0.18352-0.4415-0.36543-0.19683-0.24668-0.4989-0.87442-0.21817-0.23413-0.26374-0.1587-0.29269-0.10871-0.57154-0.13814-1.1015-0.1702-0.6122-0.013158-0.30543 0.081364-0.096858 0.091233-0.10456 0.045718-0.095924-0.005023-0.074882-0.047696-0.11502-0.20129-0.090208-0.53245 0.041218-1.0749 0.14422-0.95904 0.23037-1.049 0.45204-1.5598 0.55156-1.5493 1.9196-4.8476 0.3292-0.90784 0.34227-1.0699 0.28413-1.0691 0.20408-0.97328 0.15578-0.96592 0.4598-4.3263 0.54445-3.2213 0.090699-0.81645 0.060793-0.98276-0.050739-1.8916-0.079499-0.96947-0.093153-0.73382-0.15303-0.84173-0.22749-0.93409-0.24505-0.78771-0.27182-0.71327-0.32785-0.73824-0.8658-1.6689-0.7405-1.2055-1.678-2.2824-0.46753-0.82216-0.28071-0.70757-0.22846-0.96316-0.0951-0.90956 0.020332-1.3372 0.079125-0.72383 0.12196-0.72245 0.2203-0.94427 0.2249-0.76402 0.2533-0.74264 0.82715-2.1865 0.27674-1.0714 0.087337-0.50964 0.15121-1.4832 0.017829-0.74544-0.031876-0.51429-0.10449-0.4138-0.1824-0.25957-0.22568-0.13663-0.23908-0.063634-0.96477-0.05179-0.65497-0.078863-0.7001-0.23138-0.45566-0.21214-0.44386-0.27559-0.58603-0.5271-1.4511-1.7026-0.48113-0.47126-0.4522-0.35606-0.7202-0.4612-0.80422-0.42256-0.72249-0.32372-3.7123-1.4368-1.5737-0.7493-0.64697-0.33343-0.48628-0.29318-0.74251-0.5481-0.50167-0.44677-0.54442-0.57447-0.64098-0.82819-1.1849-1.8127-0.74853-1.2789-0.23155-0.27567-0.27699-0.2468-0.43046-0.27767-0.5921-0.27174-0.7957-0.3044-0.74479-0.35563-0.76675-0.56604-1.0519-1.0178-0.7507-0.84803-1.0508-1.3512-1.1771-1.4462-0.47713-0.63529-0.42914-0.59987-0.68722-1.0835-4.4512-7.6387-0.54968-1.089-0.36369-0.88896-0.10624-0.39894-0.007585-0.15513 0.049923-0.065281 0.3583-0.13695 0.10523-0.27911-0.061451-0.21088-0.29854-0.40258-0.30705-0.30962-2.059-1.8843-0.53991-0.59035-0.5019-0.63573-0.43004-0.63126-0.36077-0.67277-0.2245-0.58769-0.20338-0.82366-0.11631-0.83206-0.049068-0.69592-0.00992-1.0175 0.050798-0.97335 0.11421-0.99563 0.30035-1.9175 0.020623-0.88286-0.078539-0.84246-0.15548-0.76869-0.31421-1.035-0.34646-1.503-0.1404-0.40316-0.13148-0.27205-0.31917-0.46542-0.40129-0.42482-0.6289-0.51761-0.68583-0.48588-1.9952-1.2379-3.3373-1.893-0.77548-0.49969-0.70248-0.52276-0.76395-0.68852-0.7841-0.91515-0.25065-0.36859-0.46987-0.90372-0.24578-0.74036-0.157-0.76467-0.080316-0.67953-0.041228-0.6846-0.01477-0.83892 0.023598-1.7617-0.040667-1.0518-0.23875-2.62-0.032822-0.84672 0.049836-1.3058 0.147-1.0634 0.19168-0.8543 0.4284-1.4677 1.0021-2.9545 0.1803-0.82706 0.007602-0.30267-0.079677-0.49588-0.44906-1.2113-0.32322-1.4276-0.16863-0.56793-0.27505-0.69726-0.44042-0.87523-0.37628-0.6121-0.42331-0.58667-2.678-3.1857-0.57716-0.63504-0.78325-0.78611-1.9219-1.8365-1.8124-1.5615-1.8691-1.4555-2.5855-1.8499-3.2175-2.1942-1.4101-1.1067-0.78353-0.68891-0.75558-0.72017-1.0346-1.0868-2.6583-3.1008-1.5733-1.677-0.90495-0.8784-0.88708-0.80362-2.5334-2.1195-1.0043-0.89596-0.8234-0.82388-0.79807-0.93734-0.36427-0.50091-0.55522-0.88018-1.8554-3.4995-0.58026-0.98484-0.75872-1.1668-0.60187-0.8383-0.71975-0.92445-2.6502-3.1625-0.69999-0.86686-0.6594-0.87882-1.0147-1.5163-0.66284-1.1431-0.35897-0.70069-0.30212-0.66781-0.36981-1.0643-0.2661-1.4374-0.14528-0.52614-0.32576-0.74539-0.84836-1.4874-0.32976-0.68793-0.16888-0.48442-0.095883-0.39242-0.078608-0.60746 0.006438-0.56973 0.1197-0.64215 0.12981-0.36188 0.29112-0.53311 0.2826-0.35734 0.34512-0.31236 0.28796-0.16713 0.27543-0.05019 0.16553-0.056456 0.34844-0.26321 0.77675-0.67392 2.1537-1.9846 1.022-0.86198 0.68706-0.5197 0.6446-0.44035 0.5647-0.34807 0.67807-0.36915 0.47014-0.22204 0.91182-0.34486 0.80449-0.21553 1.2589-0.20896 1.5051-0.099989 1.568 0.025561 3.1741 0.20662 1.2765-0.011559 1.4611-0.13291 1.4284-0.2416 2.5046-0.53226 1.0724-0.20075 0.84936-0.12479 0.84761-0.082808 1.0189-0.029184 0.88714 0.049876 0.91769 0.13962 1.0061 0.26408 1.1109 0.43835 1.0324 0.5711 0.58031 0.40545 0.52956 0.42694 0.65398 0.59878 0.77688 0.80595 3.171 3.724 1.3177 1.4173 1.6164 1.5801 2.3282 2.1302 2.46 2.1029 2.0878 1.6637 1.0516 0.80303 2.2262 1.6143 1.5004 1.0038 0.84578 0.51494 0.91707 0.48584 0.85256 0.37329 0.88763 0.30228 0.77789 0.18928 1.0995 0.14937 1.173 0.030291 1.9523-0.11614 2.7724-0.32629 1.8854-0.31781 2.1497-0.47642 1.2614-0.33608 1.8525-0.56672 1.0495-0.3724 1.4308-0.59145 0.95846-0.46411 1.035-0.56958 0.92196-0.55929 0.93431-0.60133 1.9476-1.3196 2.1629-1.5416 1.2474-0.92852 2.1931-1.7104 3.5516-2.8324 1.6696-1.2772 1.373-0.92619 2.327-1.4656 2.8419-2.0614 0.61995-0.46082 1.2307-0.98524 1.6348-1.4613 0.94532-0.7531 1.6749-1.0913 1.6633-0.92483 1.296-0.65196 1.9692-0.92136 1.8446-0.8056 4.3319-1.6989 4.2811-1.8879 0.95336-0.37008 0.78595-0.26595 1.6135-0.44221 0.71397-0.15364 1.1583-0.19693 1.3242-0.18318 1.0344-0.10791 2.2524-0.10284 0.69932-0.063633 1.2986-0.17736 0.78793-0.14572 1.712-0.41888 1.5306-0.47542 1.3466-0.49192 0.54897-0.229 1.2597-0.61308 0.88485-0.53569 0.52863-0.37878 0.84047-0.74329 0.7687-0.90392 1.3149-1.7569 0.71754-0.90627 0.99226-1.1874 1.777-1.9442 1.2903-1.2673 0.72-0.65624 1.1015-0.93505 1.1362-0.85562 0.92502-0.55449 1.0706-0.44824 0.85945-0.22675 1.0454-0.15861 1.2013-0.068123 1.1829 0.024649 0.92973 0.081167 0.93167 0.14218 1.4987 0.3642 1.4897 0.49107 1.4792 0.57199 3.0437 1.2732 1.3994 0.5119 1.0941 0.31368 0.92975 0.1925 0.94059 0.14021 1.835 0.18028 1.1323 0.071595 2.5008 0.092426 2.5233 0.007817 1.1529-0.037606 1.2009-0.078897 1.1768-0.1275 0.82967-0.1284 0.81002-0.16669 1.1677-0.34135 1.15-0.48513 0.83848-0.41386 4.9362-2.6805 1.2931-0.67425 1.3173-0.6603 2.2636-1.0749 2.4193-1.0791 1.2855-0.53554 1.6136-0.61608 1.6496-0.556 1.1663-0.34244 1.1858-0.30213 1.1035-0.23725 1.1198-0.19688 1.8107-0.22578 1.8913-0.12557 2.5585-0.018327 4.0603 0.14037 2.3825 0.020813 2.1751-0.080637 0.48643-0.055501 0.1791-0.074089-0.046625 0.13932 0.10564 0.312 0.21408 0.38427 0.3905 0.57062 0.38052 0.49512 1.3011 1.5116 2.3061 2.4497 0.75148 0.83708 0.96459 1.1944 0.87044 1.2399 0.97516 1.5831 0.51733 0.90206 0.4363 0.8217 0.41602 0.86738 0.53712 1.2861 0.32889 0.90836 0.69091 2.1039 0.36974 0.98743 0.31541 0.67666 0.51119 0.87747 0.5243 0.76716 0.56861 0.75438 3.4737 4.2748 1.2646 1.4809 0.99583 1.0125 1.0194 0.85995 0.51593 0.36331 2.7043 1.6747 0.9176 0.62991 0.92612 0.68791 0.65669 0.55565 0.63874 0.59297 2.5938 2.5948 0.82837 0.78898 0.73696 0.64691 0.40526 0.3274 2.3327 1.7291 1.141 0.80306 1.6185 1.0054 0.59557 0.39063 0.81573 0.59038 0.33625 0.26839 0.97492 0.91844 0.58052 0.7536 0.4098 0.79582 0.24945 0.7507 0.12968 0.63144 0.063187 0.59205 0.002428 0.84159-0.10923 0.94466-0.49367 2.054-0.13823 0.74318-0.058467 0.5066-0.047084 0.90696 0.001016 0.61068 0.031804 0.66489 0.11502 1.0304 0.22297 1.1506 0.34649 1.2507 0.48641 1.3634 0.473 1.1163 1.0662 2.273 0.38495 0.96432" stroke="#bdc660"/>
    </defs>
    <g clip-path="url(#p92d6affa02)">
     <use y="280.512" fill="#bdc660" stroke="#bdc660" xlink:href="#m8763c66b71"/>
    </g>
   </g>
  </g>
 </g>
 <defs>
  <clipPath id="p92d6affa02">
   <rect x="7.2" y="7.2" width="293.38" height="266.11"/>
  </clipPath>
 </defs>
</svg>
