<?xml version="1.0" encoding="UTF-8"?>
<!DOCTYPE svg  PUBLIC '-//W3C//DTD SVG 1.1//EN'  'http://www.w3.org/Graphics/SVG/1.1/DTD/svg11.dtd'>
<svg width="371.52pt" height="251.18pt" version="1.1" viewBox="0 0 371.52 251.18" xmlns="http://www.w3.org/2000/svg" xmlns:xlink="http://www.w3.org/1999/xlink">
 <metadata>
  <rdf:RDF xmlns:cc="http://creativecommons.org/ns#" xmlns:dc="http://purl.org/dc/elements/1.1/" xmlns:rdf="http://www.w3.org/1999/02/22-rdf-syntax-ns#">
   <cc:Work>
    <dc:type rdf:resource="http://purl.org/dc/dcmitype/StillImage"/>
    <dc:date>2024-07-04T12:09:49.079235</dc:date>
    <dc:format>image/svg+xml</dc:format>
    <dc:creator>
     <cc:Agent>
      <dc:title>Matplotlib v3.7.1, https://matplotlib.org/</dc:title>
     </cc:Agent>
    </dc:creator>
   </cc:Work>
  </rdf:RDF>
 </metadata>
 <defs>
  <style type="text/css">*{stroke-linejoin: round; stroke-linecap: butt}</style>
 </defs>
 <g id="figure_1">
  <g id="patch_1">
   <path d="m0 251.18h371.52v-251.18h-371.52v251.18z" fill="none"/>
  </g>
  <g id="axes_1">
   <g id="PatchCollection_1">
    <defs>
     <path id="m45d95de1a8" d="m303.03-194.85-0.1304 0.26216-0.13498 0.7091-0.09602 0.80237-0.08795 1.6336 0.01057 2.8389 0.084749 2.4259 0.19575 2.8812 0.33363 3.0087 0.47548 2.8817 0.37214 1.6798 0.42511 1.5466 0.69199 2.0167 0.59132 1.3992 0.63107 1.2579 0.41967 0.73052 0.5687 0.86176 0.75999 0.93178 0.86835 0.80583 0.74106 0.53749 0.7994 0.48031 1.6266 0.76664 1.7091 0.6145 1.9194 0.53767 2.1624 0.44086 1.1001 0.15359 1.0465 0.097363 2.004 0.056278 1.8404-0.098752 1.8323-0.24624 1.6709-0.32246 1.2796-0.30007 1.8459-0.51864 1.0451-0.38383 1.4803-0.6531 1.3625-0.74818 3.324-2.0849 1.0563-0.52093 1.0121-0.33661 0.95016-0.1314 1.0617 0.10557 1.0224 0.33376 0.86801 0.46455 0.8905 0.73806 0.70368 0.81487 0.63954 0.96664 0.63087 1.2338 0.4208 1.0191 0.48549 1.4376 0.38133 1.5748 0.16988 1.3455-0.010926 1.2857-0.17111 1.0387-0.28802 0.86717-0.28695 0.60587-0.54127 0.90127-2.5835 3.6567-0.7387 1.3178-0.32082 0.7336-0.22217 0.68242-0.13489 0.80659-0.005315 0.31338 0.13829 0.85927 0.34858 0.86457 0.72776 1.1549 1.256 1.6002 0.42407 0.60316 0.42159 0.73867 0.32318 0.78275 0.33651 1.3602 0.16246 1.4371 0.121 3.0416 0.28225 2.747 0.054399 1.0273-0.044314 0.97218-0.17764 0.93866-0.18694 0.54254-0.84381 1.3938-1.2112 1.2681-1.4429 1.1791-2.3903 1.8085-1.8501 1.5039-5.6981 4.8593-1.2553 1.0987-1.1878 1.1159-0.81307 0.87222-0.78186 1.0009-2.7514 4.25-0.87556 1.1144-0.85558 0.89722-0.8777 0.76837-1.3274 0.96566-1.6709 1.0374-3.6951 2.1597-2.452 1.4861-1.2383 0.77894-1.4289 0.98874-1.6771 1.3572-2.6229 2.334-5.6025 4.5102-0.88256 0.80888-1.2401 1.2991-0.63746 0.77279-0.75167 1.1481-0.37622 0.91606-0.10743 0.50549-0.057318 0.80175 0.064145 1.0809 0.34909 2.8042 0.092316 1.3316 0.004083 0.69118-0.10096 1.324-0.24208 1.3741-0.24858 0.87987-0.47016 1.184-0.50873 1.0315-0.63696 1.098-0.49548 0.76003-0.95225 1.3002-1.1406 1.2441-0.6567 0.6383-1.0823 1.0115-1.1944 0.95184-0.99998 0.62641-1.0948 0.57068-1.2589 0.56916-1.3262 0.53946-11.178 4.1424-1.8317 0.63909-1.7791 0.56168-2.2714 0.5867-1.4221 0.25796-1.2669 0.12199-1.4584-0.017974-2.7381-0.17232-1.3219 0.093815-0.81029 0.18699-1.0191 0.37255-1.2111 0.61898-0.69409 0.42906-1.8687 1.3402-1.8732 1.4374-1.1591 0.99105-1.0998 1.0597-1.6655 1.7225-0.94086 0.82968-0.91248 0.61716-0.43651 0.23325-0.7897 0.31102-0.96478 0.17946-1.0197 0.012547-0.60894-0.054758-2.4655-0.40821-2.8646-0.38501-1.7364-0.39669-1.0906-0.37266-1.0861-0.48453-3.7139-2.0213-1.2518-0.62881-1.007-0.43583-1.6251-0.55293-0.86995-0.20782-1.9413-0.23294-0.99986-0.043453-1.2566 0.012068-3.6542 0.15347-1.3869 0.00274-1.8749-0.087129-1.6065-0.1624-1.2872-0.19783-1.7439-0.33535-1.3402-0.30814-2.4367-0.70628-3.2198-1.1269-2.5462-1.1213-2.0907-1.1393-1.7155-1.1258-1.3388-1.0477-2.4359-2.0703-2.1006-1.992-1.7254-1.7289-4.9603-5.4003-1.667-1.7246-1.4296-1.3495-0.90567-0.75703-1.4775-1.1054-3.0319-2.1463-1.2407-0.82353-1.146-0.62613-2.0001-0.82935-1.0178-0.46984-0.82605-0.48091-0.82424-0.57142-1.4558-1.2139-2.8919-2.8283-1.1431-1.0182-0.61852-0.4892-1.4386-0.95002-1.5636-0.75461-1.0584-0.35836-1.0992-0.26395-0.82563-0.13637-1.2176-0.11647-1.2858-0.021407-1.4655 0.092903-1.68 0.23416-2.1016 0.43802-2.091 0.54824-11.224 3.3863-0.85698 0.3317-0.54318 0.26212-0.77116 0.48783-0.49132 0.40934-0.41869 0.44131-0.83819 1.3399-0.61637 1.5472-0.96794 2.7898-1.8094 3.972-0.47771 1.2614-0.19723 0.62725-0.35924 1.5269-0.18684 1.4218-0.16106 2.5482 0.048483 2.1186 0.12035 1.306 0.72552 4.4021 0.29226 2.2534 0.20222 1.8256 0.13858 1.8393 0.033781 1.7749-0.049329 3.2195-0.16619 2.482-0.63484 5.4537-0.32182 4.7843-0.23285 1.6772-0.3724 1.3063-0.40536 0.8425-0.58411 0.85525-0.69017 0.77898-0.82456 0.78354-1.3331 1.1439-1.3036 1.0108-3.2786 2.4309-1.7492 1.1082-1.0702 0.56317-1.2353 0.58366-1.2864 0.54755-1.5312 0.57487-1.7365 0.54583-1.087 0.28009-2.1319 0.4254-2.4523 0.31054-2.0135 0.1271-1.2461 0.010444-1.2259-0.04913-1.4067-0.14215-1.3532-0.24736-1.496-0.45-1.3705-0.66146-1.1362-0.81971-0.57365-0.50996-0.81-0.8166-0.8613-0.96813-1.261-1.5491-0.93799-1.2314-1.7225-2.3944-1.235-1.8092-1.3373-2.1097-0.55433-1.0228-0.3543-0.79776-0.25206-0.7836-0.10648-0.61544 0.078402-0.96937 0.23909-0.27106 0.26164-0.16402 0.090297-0.080019-0.084203-0.28814-0.59521-0.96019-3.8851-5.4287-1.1938-1.76-0.69966-1.1217-0.83454-1.5163-0.61468-1.3026-0.54696-1.3439-0.75576-2.2707-0.60474-2.3321-0.49561-2.4489-0.40312-2.4708-0.63571-4.8306-0.81745-7.4902-0.52688-5.4689-0.33321-4.6535-0.11022-2.425-0.055982-4.3621 0.14817-4.0157 0.159-2.0514 0.21967-2.0265 0.25902-1.824 0.32061-1.7908 0.32393-1.4802 0.3767-1.4452 0.50715-1.6169 0.38763-1.046 1.2311-2.8188 2.2717-4.5575 0.68341-1.7232 0.38719-1.3475 0.29056-1.3914 0.27578-1.9207 0.18676-1.9619 0.46222-7.7398 0.30864-3.8851 0.025256-1.5045-0.031946-0.77942-0.090425-0.87965-0.17193-0.785-0.15085-0.39912-0.31738-0.52762-0.28147-0.31118-0.47245-0.34965-0.45761-0.19689-0.43055-0.088284-0.33722-0.020434-0.77996 0.062154-0.84385 0.17237-1.5076 0.45316-1.5025 0.53274-6.973 2.5322-1.9455 0.75375-1.4773 0.66382-3.4558 1.7857-0.83862 0.39279-0.99554 0.38641-1.6992 0.41257-1.7506 0.17033-1.2864-0.003616-1.2673-0.10183-1.485-0.24873-1.6691-0.42974-2.8174-0.78132-1.7081-0.57642-2.1549-0.93749-3.8894-1.9558-1.0968-0.60157-1.1396-0.69768-2.294-1.4768-1.1345-0.79957-1.1708-1.0147-0.9849-1.0958-0.8676-1.1797-0.58536-0.92296-0.49283-0.9833-0.3524-1.0264-0.23867-1.1072-0.17095-2.0751 0.021235-1.2902 0.093554-1.3235 0.1842-1.5879 0.82906-5.5465 0.17159-2.1564-0.032453-2.2941-0.36194-5.3169-0.17032-1.6524-1.1072-7.1578-0.2369-2.0821-0.13615-2.1336-0.011714-1.9856 0.072286-1.7424 0.45085-5.3737 0.023666-1.9566-0.10521-1.2873-0.80844-5.1443-0.14047-1.1882-0.14342-1.7851-0.08745-2.1486-0.017736-2.6963 0.21892-8.7141-0.030887-1.5204-0.2063-0.35084-0.33987-0.82372-0.4033-1.2163-0.31493-1.3642-0.096216-0.73231-0.028894-0.70271 0.13019-1.0543 0.22074-0.57882 0.26065-0.39051 0.46779-0.41008 0.4644-0.24533 0.62566-0.21102 0.90972-0.18852 4.3235-0.54001 1.1186-0.026665 0.58964 0.043858 0.61406 0.096974 0.68249 0.17092 0.83063 0.28654 2.6436 1.0516 0.98288 0.27519 2.5363 0.59496 1.7668 0.54936 1.4757 0.59319 0.94396 0.49689 0.82409 0.54289 0.66145 0.57302 0.90416 1.1931 0.38084 0.3534 0.23997 0.065981 0.25726-0.033353 0.39353-0.23382 0.33813-0.34483 0.45468-0.73552 0.49043-1.1443 0.72079-1.9993 0.44747-1.1117 0.52195-1.0982 0.61252-1.0439 0.71734-0.9614 0.71628-0.77828 0.83766-0.68722 0.94382-0.58845 1.026-0.49389 1.9204-0.70239 1.7642-0.5214 0.93781-0.22505 2.0895-0.40515 2.7256-0.40224 3.4931-0.43969 0.53334-0.082462 0.20781-0.070347 0.24957 0.30011 0.72484 0.34522 1.0551 0.40616 8.0768 2.602 1.8331 0.68568 1.3052 0.56876 1.2444 0.63819 1.4086 0.88055 1.2995 0.98193 1.0152 0.89216 0.93598 0.9364 0.83225 0.94573 0.74877 0.97 0.83226 1.2756 0.66314 1.2926 0.5556 1.5185 0.525 1.9521 0.38427 1.7575 0.1788 1.3005 0.031082 1.1023-0.090442 1.0714-0.23934 1.1787-0.55842 1.9489-0.55378 2.1466-0.17781 0.55362-1.2484 3.155-0.26912 0.84535-0.23848 1.0955-0.1128 1.0912 0.020137 1.0463 0.20619 1.2495 0.65226 3.1024 0.15118 0.55305 0.21541 0.50989 0.32642 0.46596 0.35076 0.30611 0.29088 0.16752 0.57285 0.18752 0.66177 0.057324 0.83915-0.094574 1.0159-0.28447 2.477-1.0215 0.79038-0.18927 0.49738 0.026046 0.45657 0.16589 0.49171 0.41797 0.38346 0.61335 0.26272 0.68743 0.8078 3.4747 0.34841 0.87023 0.28274 0.42615 0.56814 0.38431 0.91715 0.013373 0.56782-0.17096 0.58042-0.26552 0.85766-0.51587 0.87649-0.64081 3.4763-2.9092 1.5454-1.1367 1.3604-0.84602 0.77476-0.41195 1.0935-0.49473 1.1201-0.40287 1.0694-0.28313 1.9766-0.25795 2.0068-0.012312 1.1886 0.074858 1.7279 0.24036 1.7316 0.36077 6.4394 1.6036 5.8149 1.5495 1.8547 0.54154 1.5071 0.64808 1.3468 0.90495 2.4728 2.2135 1.2936 1.0749 1.4235 0.9457 5.4294 3.3946 1.3692 0.8007 1.159 0.60082 1.1544 0.50575 1.5695 0.49071 1.5232 0.17115 1.4106-0.19507 1.3475-0.45682 3.1004-1.4277 1.6274-0.57412 0.99416-0.20372 1.1912-0.12919 1.3442-0.030055 1.1974 0.10872 1.2018 0.20632 1.5361 0.37216 1.2842 0.46844 1.2719 0.60548 0.95956 0.53752 3.8155 2.3512 2.551 1.4601 5.7732 3.8399 1.5219 0.95271 1.5504 0.86388 1.2659 0.57697 1.757 0.67394 1.0455 0.32151 3.1127 0.80915 2.2192 0.73708 1.0161 0.4921 0.40204 0.26732 0.7588 0.61876 2.5305 2.3641 2.8031 2.5032 9.4084 8.3014 2.4843 2.0867 2.5833 1.9434 2.534 1.7448 2.8189 1.7903 3.3462 1.9889 2.0909 1.3276 1.8424 1.238 2.1186 1.5251 3.2784 2.4663 3.3384 2.6642 1.9624 1.6442 4.4644 3.9336 1.3272 1.0705 0.97197 0.69166 1.6205 0.86174 1.4664 0.43288 0.88064 0.084423 1.4387-0.12814 0.89855-0.20304 0.83608-0.26592 1.0041-0.40325 2.0667-0.90284 0.87217-0.27608 0.72055-0.11215 0.49186 0.004541 0.38182 0.056703 0.40597 0.11305 0.52969 0.22737 0.50962 0.2959 1.1846 0.87419 2.2953 1.9235 0.97756 0.68099 0.48781 0.28492 0.9468 0.46329 1.019 0.38986 0.86626 0.25554 1.2448 0.25377 0.86668 0.09725 0.79348 0.031695 0.79241-0.024521 0.77451-0.078664 1.0686-0.20053 0.66007-0.18491 1.4229-0.56632 0.77102-0.41523 0.52704-0.34076 0.45456-0.34326 0.52343-0.47317 0.57118-0.65921 0.6147-1.0097 0.43536-1.0382 0.45981-1.5575 0.2165-0.93184 0.16774-0.95368 0.12584-1.3651-0.010097-2.1572-0.15743-3.0013-0.004713-0.99061 0.19734-4.3223-0.010511-1.6884-0.11544-1.7054-0.39245-2.5725-1.0783-4.4752-0.71178-3.1928-0.81802-4.1375-0.35955-2.3658-0.12564-2.1891 0.093979-1.5564 0.13829-1.0074 0.20086-1.028 0.25205-0.98846 0.41852-1.3173 0.5463-1.4516 0.85771-2.0022 1.0878-2.2987 1.1509-2.2732 1.0891-2.0307 1.4336-2.494 1.8314-2.917 2.5899-3.8068 2.3031-3.1583 2.5801-3.2776" stroke="#bdc660"/>
    </defs>
    <g clip-path="url(#p71c63c0e5d)">
     <use y="251.178677" fill="#bdc660" stroke="#bdc660" xlink:href="#m45d95de1a8"/>
    </g>
   </g>
  </g>
 </g>
 <defs>
  <clipPath id="p71c63c0e5d">
   <rect x="7.2" y="7.2" width="357.12" height="236.78"/>
  </clipPath>
 </defs>
</svg>
