<?xml version="1.0" encoding="UTF-8"?>
<!DOCTYPE svg  PUBLIC '-//W3C//DTD SVG 1.1//EN'  'http://www.w3.org/Graphics/SVG/1.1/DTD/svg11.dtd'>
<svg width="275.38pt" height="280.51pt" version="1.1" viewBox="0 0 275.38 280.51" xmlns="http://www.w3.org/2000/svg" xmlns:xlink="http://www.w3.org/1999/xlink">
 <metadata>
  <rdf:RDF xmlns:cc="http://creativecommons.org/ns#" xmlns:dc="http://purl.org/dc/elements/1.1/" xmlns:rdf="http://www.w3.org/1999/02/22-rdf-syntax-ns#">
   <cc:Work>
    <dc:type rdf:resource="http://purl.org/dc/dcmitype/StillImage"/>
    <dc:date>2024-07-04T12:09:51.885658</dc:date>
    <dc:format>image/svg+xml</dc:format>
    <dc:creator>
     <cc:Agent>
      <dc:title>Matplotlib v3.7.1, https://matplotlib.org/</dc:title>
     </cc:Agent>
    </dc:creator>
   </cc:Work>
  </rdf:RDF>
 </metadata>
 <defs>
  <style type="text/css">*{stroke-linejoin: round; stroke-linecap: butt}</style>
 </defs>
 <g id="figure_1">
  <g id="patch_1">
   <path d="m0 280.51h275.38v-280.51h-275.38v280.51z" fill="none"/>
  </g>
  <g id="axes_1">
   <g id="PatchCollection_1">
    <defs>
     <path id="m32ca0c6899" d="m234.92-223.8-1.0383 2.6424-0.56412 1.5152-0.32949 0.97796-0.22887 0.80696-0.14083 0.60292-0.12402 0.65614-0.21279 1.557-0.044444 0.61588-0.019888 0.73884 0.009667 0.74163 0.041254 0.8964 0.26132 3.6498 0.14633 2.8712 0.16095 1.6805 0.12446 0.83589 0.20117 1.0327 0.24919 0.99812 0.23024 0.76445 0.88244 2.6658 0.25543 0.94062 0.18054 0.81304 0.20138 1.3069 0.079907 0.87397 0.17594 4.3071 0.14243 1.8367 0.099379 0.84874 0.1294 0.8889 0.24658 1.2971 0.20973 0.86815 0.70074 2.4111 0.27697 1.0576 0.1835 0.99124 0.071248 0.63653 0.029701 0.50718 0.002186 0.74799-0.046852 0.81776-0.07822 0.73761-0.24734 1.5846-0.75582 3.8008-0.15772 1.096-0.051529 0.74224 0.026002 0.83614 0.069243 0.47865 0.079976 0.34294 0.10172 0.30185 0.13819 0.27973 0.16883 0.23055 0.18194 0.18071 0.26384 0.19876 0.26772 0.15999 0.41075 0.1734 0.41598 0.081587 0.50592-0.003006 0.64954-0.096446 0.51942-0.12083 1.0348-0.30969 0.88111-0.3046 0.64828-0.25283 0.50623-0.23589 0.73328-0.44893 1.2784-0.92615 0.95932-0.639 0.70152-0.41234 0.68046-0.35301 0.70564-0.3101 0.60073-0.20856 0.44603-0.11145 0.72501-0.063683 0.39141 0.050574 0.31161 0.085078 0.32607 0.12352 0.78449 0.37756 1.651 0.8862 0.68044 0.41663 0.4179 0.30158 0.48547 0.42087 0.35174 0.37302 0.31028 0.40238 0.34282 0.59023 0.21134 0.55251 0.084668 0.35866 0.070208 0.55712 0.019379 0.59338-0.016893 0.59494-0.12025 1.3188-0.17492 1.1395-0.15921 0.7403-0.27848 0.92876-0.17312 0.44385-0.39704 0.8483-0.69612 1.2488-0.7247 1.1901-0.73739 1.127-0.49714 0.69408-0.43607 0.56965-0.91143 1.0976-2.9326 3.254-0.90164 1.0907-0.59239 0.8466-0.44921 0.84714-0.3103 0.92799-0.15912 1.0228-0.014254 0.65245 0.025697 0.44384 0.085636 0.68544 0.20686 1.0139 0.28321 1.037 0.30744 0.96378 0.34222 0.97649 1.579 4.1428 0.6334 1.819 0.18145 0.64385 0.10736 0.54151 0.011687 0.40971-0.080179 0.20428-0.17152 0.036112-0.12545-0.010636-0.33214 0.090075-0.6619 0.24799-1.2616 0.57082-1.3076 0.65914-1.3232 0.72454-2.724 1.6134-2.2055 1.2603-1.2154 0.66062-1.4169 0.70579-3.1314 1.4662-2.3754 1.0656-0.86506 0.35936-0.96294 0.36592-1.0674 0.36229-0.89604 0.26941-1.0991 0.29083-0.76511 0.1768-1.5864 0.31027-1.3806 0.22351-1.2976 0.1801-2.3049 0.25626-2.3862 0.19166-1.7891 0.1024-7.1602 0.30206-2.6841 0.13576-2.6406 0.20756-1.2882 0.15424-1.2533 0.20712-1.2038 0.28041-1.1348 0.3804-0.78216 0.35864-0.81055 0.44406-2.5632 1.519-0.68797 0.45443-0.29843 0.23592-0.28626 0.2655-0.26898 0.30225-0.2582 0.37355-0.14568 0.278-0.25653 0.71043-0.13933 0.59294-0.10675 0.63223-0.08168 0.63677-0.12591 1.3193-0.42466 5.8687-0.33319 3.3078-0.077063 0.97879-0.014885 0.93564 0.08121 0.88253 0.1428 0.64288 0.7474 2.4949 1.0575 3.3497 0.24957 1.0045 0.1081 0.75728 0.014188 0.50366-0.046991 0.48846-0.1191 0.47973-0.18385 0.46116-0.30838 0.55211-0.30083 0.41782-0.29613 0.3452-0.34554 0.34882-1.8439 1.5944-0.47219 0.4589-0.13011 0.1384-0.54521 0.70775-0.34632 0.7629-0.096347 0.59853-0.006991 0.29897 0.041314 0.56694 0.16836 1.1901 0.085675 0.91061 0.11966 2.0071 0.29926 3.8297 0.048513 1.2741-0.009188 1.1978-0.072882 1.2027-0.14385 1.1787-0.56456 3.5368-0.11863 1.1855-0.034616 1.2411 0.031737 1.0991 0.12802 1.7534 0.26942 2.8037 0.055267 0.93404-0.015277 0.97591-0.066175 0.51642-0.12976 0.49897-0.13392 0.317-0.34887 0.51024-0.38045 0.35463-0.43883 0.29306-0.50758 0.26177-0.64162 0.27477-1.9721 0.76746-1.9767 0.85985-0.80365 0.30673-0.78698 0.26785-0.78111 0.23193-1.4497 0.34197-4.2621 0.72778-0.54878 0.11358-1.0541 0.26147-1.3101 0.40444-0.86948 0.29652-3.8481 1.4025-3.5988 1.147-1.8401 0.66025-1.0615 0.43983-1.1641 0.55231-4.9224 2.6182-2.2368 1.151-2.1059 1.0485-1.7221 0.78093-2.458 0.94312-0.58836 0.23864-0.75256 0.34214-1.1378 0.59791-1.159 0.71605-3.0394 2.1619-3.4651 2.3519-0.68049 0.48911-1.2247 0.93365-1.1498 0.94268-1.1436 1.0199-1.3131 1.3101-2.2222 2.3294-0.73094 0.71311-0.31854 0.28322-0.11757 0.087972-0.051364 0.014876-0.247 0.32914-0.56952 0.35148-0.59696 0.22024-0.66903 0.10569-0.76718-0.057059-0.78391-0.21367-0.78371-0.32559-0.77239-0.39222-1.3955-0.78591-0.77578-0.52697-0.62816-0.5484-0.41768-0.43316-1.669-1.8488-1.1942-1.2153-1.1741-1.1216-0.84847-0.76806-2.2101-1.8481-0.78333-0.70354-0.15506-0.15711-0.59117-0.709-0.45855-0.75184-0.31816-0.74605-0.29411-0.78008-0.32402-0.74711-0.34816-0.72455-1.4951-2.8761-0.65154-1.1606-0.49231-0.78917-1.1032-1.6154-0.93502-1.4542-0.48424-0.81598-1.8112-3.2181-0.61572-1.0425-0.86402-1.3921-1.8299-3.1008-0.62502-0.9768-0.66132-0.901-0.26777-0.31818-0.68494-0.67886-0.32377-0.25311-0.29225-0.19916-0.54476-0.31107-0.64402-0.28127-0.55921-0.1783-0.55913-0.12792-0.65465-0.095855-0.83965-0.046163-1.1567 0.010529-0.63844-0.066865-0.65556-0.14289-0.74227-0.24758-0.49121-0.21821-0.47434-0.27722-0.23522-0.17517-0.40886-0.39159-0.27332-0.32135-0.38588-0.51742-0.57285-0.8759-1.2646-2.0602-0.50782-0.78995-0.4001-0.59787-0.69508-0.95734-0.58928-0.69176-0.47386-0.48117-0.51652-0.45296-0.57937-0.42208-0.60516-0.3386-0.4597-0.1972-0.30484-0.1054-0.33954-0.084881-0.22298-0.024834-0.26452 0.026283-0.23495 0.10063-0.1927 0.15431-0.1257 0.13492-0.17467 0.27009-0.063016 0.16392-0.076233 0.37906-0.12325 1.0125-0.069079 0.29452-0.12873 0.32679-0.2053 0.28515-0.1459 0.1113-0.3045 0.084979-0.18846-0.016046-0.37024-0.12001-1.6305-0.84052-0.408-0.1699-0.50916-0.16337-0.47687-0.10406-0.59866-0.07992-0.49071-0.021254-0.35837 0.012074-0.47516 0.050669-0.59087 0.11141-3.4685 0.85862-0.96857 0.32212-2.0225 0.77125-0.56548 0.16098-0.27519 0.038571-0.21022-0.002666-0.19006-0.039035-0.12682-0.057769-0.12681-0.12199-0.066968-0.21489 0.031604-0.37713 0.1297-0.43787 0.35473-0.82524 0.34802-0.70198 0.69521-1.2413 0.33886-0.6543 0.91715-2.1254 0.43065-0.80859 1.4493-2.3635 0.41934-0.7722 0.26676-0.58064 0.2946-0.72532 0.73736-2.375 0.63435-1.4954 0.15652-0.43787 0.11716-0.4528 0.083178-0.67398 0.018313-0.70574-0.053031-2.4605 0.017693-2.6009-0.037986-1.086-0.086039-0.95974-0.2061-1.2511-0.23311-0.98511-0.16881-0.59699-0.17788-0.55642-0.32849-0.90287-0.25527-0.6281-0.55767-1.2247-0.32022-0.63515-0.68713-1.2246-0.75884-1.2275-1.1886-1.8291-0.89238-1.2887-0.6517-0.84991-0.43346-0.51254-0.44468-0.47729-0.73602-0.67391-0.51634-0.38381-1.411-0.83855-0.4547-0.29579-0.60194-0.44751-0.64302-0.55437-0.54273-0.53413-0.82365-0.92532-0.441-0.55463-0.42359-0.57955-0.40214-0.60278-0.37986-0.62516-0.52893-0.98155-0.52617-1.1363-0.6794-1.7361-1.2726-3.5511-0.38254-0.93419-0.41842-0.92115-0.38644-0.77275-0.63822-1.1645-0.66302-1.128-3.3672-5.5736-1.3572-2.1468-2.7261-4.1012-0.75934-1.2289-0.66214-1.147-1.0188-1.87-0.42848-0.90004-0.34082-0.91422-0.25092-0.88307-0.1956-0.80864-0.25027-0.77052-0.31726-0.61593-0.34221-0.50303-0.39953-0.49312-0.50584-0.5442-1.7999-1.6838-0.76934-0.76435-2.7324-3.0081-0.5516-0.58096-0.73389-0.72509-0.65304-0.60773-0.88201-0.76479-2.9301-2.279-0.80509-0.69838-0.48359-0.46595-0.71814-0.78803-0.65296-0.84294-0.3808-0.57498-0.28646-0.50389-0.26056-0.56441-0.18548-0.55398-0.073623-0.33646-0.040799-0.38211 0.014646-0.36098 0.14772-0.51908 0.12426-0.22026 0.13583-0.1748 0.35542-0.30726 0.42452-0.21756 0.33866-0.098321 0.53832-0.054342 1.7726 0.065358 0.43778-0.028685 0.34939-0.068157 0.32404-0.14634 0.17788-0.18325 0.10753-0.39754-0.029578-0.27907-0.1034-0.2905-0.06181-0.11416-0.46948-0.55973-0.67222-0.56722-1.5945-1.2207-0.75646-0.69472-0.61445-0.78696-0.3702-0.809-0.20056-0.86807-0.045196-0.50296 0.00292-0.50018 0.068307-0.58734 0.14426-0.55664 0.19506-0.44925 0.26676-0.4017 0.37366-0.36976 0.44643-0.3055 0.54252-0.26609 0.37723-0.14166 0.80901-0.22714 2.5197-0.49085 0.60064-0.14522 0.37843-0.11887 0.34737-0.14268 0.31344-0.1772 0.25812-0.21087 0.36236-0.54982 0.15036-0.66887-0.057105-0.73293-0.26756-0.7433-0.14111-0.24816-0.46932-0.61744-0.46815-0.4934-1.0723-1.0362-0.3821-0.39566-0.333-0.3955-0.3301-0.55572 0.02451-0.31576 0.038456-0.027961 0.18719-0.047631 1.9952-0.40393 1.0561-0.25826 1.4141-0.41974 1.5732-0.55881 1.8792-0.76504 1.8787-0.86748 0.81182-0.42008 2.1694-1.2154 0.85035-0.41379 0.45537-0.1781 0.43842-0.12944 1.9826-0.34158 0.96885-0.29617 1.007-0.4285 1.0271-0.53193 1.031-0.6149 1.0192-0.68464 0.99131-0.74739 2.4574-2.0917 2.5395-2.1041 0.64279-0.61051 0.52732-0.60278 0.48047-0.63836 1.4951-2.2054 0.47739-0.57593 0.46085-0.49332 0.52586-0.51952 1.8482-1.6998 0.92329-0.88864 0.88721-0.93887 1.42-1.6483 0.5674-0.56835 0.50977-0.41142 1.0051-0.65646 0.43064-0.25265 0.41657-0.18528 0.41528-0.12778 0.42648-0.097168 2.2587-0.42683 0.66886-0.15326 0.84042-0.2352 1.0838-0.38438 0.57193-0.2348 1.4671-0.68882 0.66678-0.26936 1.2496-0.41727 1.4887-0.42446 1.8064-0.45112 0.69838-0.14882 0.92359-0.16702 0.78915-0.10941 0.70697-0.066993 0.67557-0.033503 2.9019-0.028769 2.9863-0.1977 0.65033 0.003629 0.2713 0.031697 0.4397 0.11754 0.28652 0.1392 0.41763 0.3019 0.36931 0.36057 0.79833 0.94979 0.44116 0.46358 0.43053 0.34859 0.40762 0.2345 0.45814 0.16984 0.34702 0.078484 0.43243 0.055584 0.69072 0.018013 0.57623-0.039869 0.46757-0.066055 0.5541-0.11217 0.8327-0.21938 4.4565-1.4328 1.2312-0.31775 0.76945-0.14841 0.91009-0.1365 2.6726-0.24761 0.72243-0.089529 0.83886-0.15005 1.0882-0.28607 1.0523-0.36682 1.755-0.70258 3.3922-1.5237 1.7726-0.7731 2.5893-1.0785 1.4578-0.5419 1.2269-0.36444 0.96843-0.22245 2.7176-0.45813 1.1538-0.23949 0.75536-0.2076 0.55026-0.18293 0.51338-0.19703 0.67651-0.29909 0.84748-0.42961 1.2701-0.72695 0.8188-0.53349 0.6911-0.5173 0.34948-0.29802 0.34311-0.33065 0.40442-0.46049 0.28617-0.38674 0.29541-0.46599 0.27756-0.51278 0.37393-0.81122 0.98882-2.313 1.4519-3.0114 0.28631-0.7154 0.26108-0.84146 0.11894-0.61887 0.038564-0.37132 0.008917-0.62216-0.049751-0.59972-0.050116-0.32634-0.1138-0.47182-0.16064-0.42742-0.40504-0.9071-0.055531-0.20353-0.026949-0.22549 0.009133-0.17451 0.053332-0.21624 0.1512-0.28734 0.17089-0.20876 0.21667-0.20132 0.30442-0.22161 0.42598-0.24302 0.53463-0.23723 0.5296-0.18394 0.66854-0.17507 0.87989-0.14856 1.0232-0.06892 0.52295 0.002774 1.0412 0.067632 0.70986 0.082642 0.91738 0.14042 1.3232 0.25757 0.7763 0.17583 3.0866 0.78717 0.74694 0.14666 0.57311 0.07246 0.49565 0.024481 1.0272-0.0783 1.032-0.22374 1.039-0.3338 1.0486-0.41488 1.1809-0.5311 1.1918-0.59122 0.99729-0.53337 1.0008-0.56721 1.958-1.1878 1.6319-1.0477 1.2743-0.86207 1.4129-1.0163 1.1047-0.85774 0.93102-0.77837 0.80888-0.73134 0.85727-0.84646 0.53422-0.57225 0.73493-0.85403 0.66856-0.85597 0.43652-0.62317 0.21712-0.36331 0.028356-0.10042 6.9861-2.9755 8.2514-3.4572 3.9036-1.5656 1.2563-0.47018 1.2243-0.42778 1.1816-0.36931 1.1236-0.28897 1.0441-0.17929 0.93522-0.030877 0.78685 0.16796 0.18005 0.086518 0.22704 0.14959 0.17278 0.15439 0.13057 0.14882 0.16988 0.25631 0.13797 0.31076 0.10022 0.42794 0.016722 0.2471-0.026754 0.35785-0.098909 0.38537-0.10556 0.25647-0.21049 0.38399-0.24347 0.35376-0.41454 0.49868-0.36241 0.3852-0.94467 0.89479-1.2633 1.0507-1.933 1.4888-0.48388 0.41873-0.35728 0.34575-0.27147 0.29202-0.38459 0.47243-0.43791 0.67462-0.27468 0.5846-0.2156 0.727-0.10044 0.7559 0.0116 0.77347 0.084171 0.60476 0.19781 0.81053 0.23652 0.70862 0.29643 0.73839 0.31773 0.70512 1.2712 2.559 1.9535 3.5235 2.0266 3.4644 0.61984 1.2032 0.44595 1.0626 0.33049 1.047 0.22926 1.0447 0.10534 0.78946 0.027068 0.50512-0.015432 0.47553-0.051785 0.38347-0.23123 0.76272-0.33298 0.665-0.18517 0.29722-0.67105 0.9025-0.70012 0.83218-1.1399 1.288-1.0808 1.1223-1.0001 0.92475-2.4195 2.1027-0.4906 0.48512-0.22854 0.26312-0.31142 0.443-0.23341 0.50468-0.086936 0.36994-0.022932 0.22901 0.011437 0.42076 0.058492 0.33381 0.059794 0.20453 0.19209 0.41604 0.31288 0.4151 0.41671 0.38401 0.55534 0.38173 0.73498 0.38174 0.28723 0.11949 0.5649 0.18749 0.85229 0.17378 1.0637 0.092671 2.3994 0.019144 0.52224 0.0595 0.37754 0.083025 0.38289 0.13238 0.5806 0.31074 0.99054 0.70539 0.434 0.34958 0.62621 0.55774 0.9278 0.87104 0.67221 0.51625 0.30193 0.18992 0.4065 0.21447 0.28441 0.12254 0.50488 0.16474 0.2764 0.063126 1.0247 0.093349 1.0812-0.066637 1.12-0.17596 1.1443-0.24284 2.3128-0.54172 1.1459-0.23183 1.2857-0.18087 0.5437-0.04236 0.56858-0.013562 0.6723 0.035043 1.1938 0.13161 0.69589 0.053608 0.68231-0.007492 0.66238-0.10244 0.60154-0.20626 0.65128-0.33001 0.45818-0.28719 0.69392-0.52219 0.80656-0.6883 0.67769-0.62374 1.6774-1.6374 1.0729-1.0892 0.81551-0.90516 0.89187-1.1061 1.0628-1.5027 1.1992-1.8367 0.58973-0.8646 0.62341-0.8077 0.51221-0.52481 0.30805-0.22641 0.39671-0.15921 0.1455-0.013658 0.12239 0.013981 0.1615 0.075086 0.13605 0.20754" stroke="#bdc660"/>
    </defs>
    <g clip-path="url(#p7b8b9504e1)">
     <use y="280.512" fill="#bdc660" stroke="#bdc660" xlink:href="#m32ca0c6899"/>
    </g>
   </g>
  </g>
 </g>
 <defs>
  <clipPath id="p7b8b9504e1">
   <rect x="7.2" y="7.2" width="260.98" height="266.11"/>
  </clipPath>
 </defs>
</svg>
