<?xml version="1.0" encoding="UTF-8"?>
<!DOCTYPE svg  PUBLIC '-//W3C//DTD SVG 1.1//EN'  'http://www.w3.org/Graphics/SVG/1.1/DTD/svg11.dtd'>
<svg width="203.95pt" height="280.51pt" version="1.1" viewBox="0 0 203.95 280.51" xmlns="http://www.w3.org/2000/svg" xmlns:xlink="http://www.w3.org/1999/xlink">
 <metadata>
  <rdf:RDF xmlns:cc="http://creativecommons.org/ns#" xmlns:dc="http://purl.org/dc/elements/1.1/" xmlns:rdf="http://www.w3.org/1999/02/22-rdf-syntax-ns#">
   <cc:Work>
    <dc:type rdf:resource="http://purl.org/dc/dcmitype/StillImage"/>
    <dc:date>2024-07-04T12:09:49.976640</dc:date>
    <dc:format>image/svg+xml</dc:format>
    <dc:creator>
     <cc:Agent>
      <dc:title>Matplotlib v3.7.1, https://matplotlib.org/</dc:title>
     </cc:Agent>
    </dc:creator>
   </cc:Work>
  </rdf:RDF>
 </metadata>
 <defs>
  <style type="text/css">*{stroke-linejoin: round; stroke-linecap: butt}</style>
 </defs>
 <g id="figure_1">
  <g id="patch_1">
   <path d="m0 280.51h203.95v-280.51h-203.95v280.51z" fill="none"/>
  </g>
  <g id="axes_1">
   <g id="PatchCollection_1">
    <defs>
     <path id="mff6397329c" d="m178.75-198.41-0.17926 0.15129-0.22265 0.46283-0.115 0.41282-0.066964 0.47344-0.005893 0.45177 0.081099 0.63504 0.16868 0.63858 0.21815 0.59753 0.21575 0.50729 0.24188 0.50313 0.41244 0.72045 0.23975 0.35079 0.41069 0.50493 0.26841 0.27759 0.40087 0.36809 0.33289 0.27782 1.2752 0.98416 0.64455 0.55981 0.62141 0.58436 0.59255 0.60243 0.52755 0.58101 0.62956 0.75619 0.48884 0.63588 0.40962 0.5739 0.34194 0.52536 0.26259 0.44814 0.35112 0.69589 0.24768 0.57338 0.21317 0.57548 0.20525 0.69344 0.12817 0.62074 0.049366 0.45368-7.47e-4 0.43581-0.11592 0.68495-0.19583 0.65645-0.20171 0.59743-0.255 0.58064-0.23115 0.38376-0.40539 0.54272-0.34433 0.40592-1.222 1.3336-0.37341 0.47092-0.46965 0.69556-0.66887 1.2084-0.31238 0.50443-0.33091 0.4383-0.96633 1.1123-0.6286 0.76374-0.32472 0.44935-0.22314 0.34892-0.16228 0.28765-0.22046 0.48926-0.11056 0.37021-0.055879 0.33208-0.02593 0.37962 0.015731 0.52559 0.15953 1.5635 0.37711 2.1148 0.058506 0.51645 0.021158 0.41239-0.004434 0.37049-0.052197 0.57094-0.0689 0.3416-0.13724 0.3954-0.10243 0.20256-0.17628 0.27252-0.40267 0.45853-0.46398 0.42267-0.69148 0.58321-0.41048 0.36835-0.38156 0.39671-0.30467 0.38101-0.28641 0.39763-0.3626 0.52473-0.33106 0.55298-0.3072 0.67436-0.57043 1.4114-0.37434 0.67483-0.35292 0.46124-0.57227 0.59379-0.39682 0.35708-1.0477 0.83396-1.0662 0.76289-0.65095 0.4338-0.7604 0.45976-0.43888 0.23715-1.2124 0.56654-0.42222 0.16788-0.49952 0.16023-0.41878 0.099144-1.1739 0.23516-1.3481 0.36935-0.92106 0.29678-0.46081 0.17617-0.45913 0.20286-0.39277 0.19945-0.5968 0.36135-0.56653 0.41911-1.2356 0.95874-1.4013 1.1216-0.40218 0.24312-0.48526 0.23358-0.66637 0.26473-1.3774 0.38846-0.73856 0.23302-0.44109 0.18524-0.4278 0.21349-0.41015 0.23479-0.32212 0.22548-0.28821 0.24146-0.19184 0.18652-0.22353 0.25386-0.20688 0.29303-0.17262 0.32682-0.15597 0.46105-0.094332 0.48892-0.056101 0.50748-0.029542 0.48862 0.009555 0.56472 0.061368 0.67594 0.09129 0.61167 0.47422 2.3969 0.11573 0.68478 0.08178 0.79487 0.032807 1.1263 0.046678 0.76608 0.10555 1.124 0.29277 2.467 0.08357 0.50514 0.12652 0.54149 0.20911 0.6583 0.32318 0.75756 0.39953 0.73198 0.44433 0.6671 0.50444 0.62865 0.25281 0.27525 0.78599 0.77598 0.90036 0.83906 1.0692 1.0292 0.77323 0.79371 1.4752 1.5818 0.55274 0.54994 0.38167 0.33895 0.41496 0.32198 0.42996 0.27948 0.647 0.32692 1.4386 0.6269 0.46222 0.25311 0.35861 0.23413 0.50983 0.40602 0.36301 0.36563 0.25404 0.32249 0.17406 0.28807 0.097363 0.2159 0.094 0.28141 0.11081 0.50428 0.079249 0.57102 0.047751 0.68466 0.00629 0.50247-0.037797 1.0971-0.09433 1.4544-0.051518 0.45406-0.10764 0.6042-0.15261 0.60211-0.19387 0.59319-0.41886 1.0221-0.34814 0.71836-0.29651 0.53593-0.31799 0.51955-0.29634 0.44266-0.314 0.42073-0.32079 0.38118-0.69126 0.73995-1.0279 0.9781-0.71164 0.62153-0.57172 0.4326-0.59614 0.38247-0.57934 0.31124-1.8102 0.8692-0.62533 0.25836-1.3278 0.45523-0.84902 0.35748-0.59256 0.29966-0.57816 0.3259-1.434 0.92002-0.61422 0.34347-0.60123 0.25758-1.8303 0.63235-0.79151 0.32692-0.30609 0.15522-0.37792 0.22793-0.52125 0.41465-0.45156 0.49153-0.37127 0.5591-0.19329 0.39329-0.16639 0.41453-0.2223 0.66368-0.18973 0.69011-0.15766 0.70393-0.10869 0.60889-0.16996 1.2515-0.10713 0.602-0.13897 0.52572-0.17932 0.49725-0.22285 0.46288-0.27586 0.41129-0.29241 0.33256-0.37468 0.33269-0.38115 0.26128-0.21843 0.11966-0.30416 0.13263-0.207 0.068526-0.45463 0.097111-0.5769 0.045587-0.64709-0.013109-0.84815-0.062066-0.67925-0.070467-0.54874-0.082114-0.54716-0.11343-0.55516-0.15537-1.6139-0.55886-0.51239-0.15696-0.53499-0.11958-0.52848-0.047848-0.55426 0.048282-0.54326 0.1387-0.3763 0.1435-0.64439 0.32401-0.27305 0.16601-0.42998 0.30281-0.8783 0.74795-0.51116 0.39348-0.40994 0.24773-0.4421 0.21425-0.65018 0.24418-0.41482 0.12087-0.78072 0.15206-0.57476 0.055245-0.57787 0.00897-0.78244-0.054744-0.7808-0.081313-0.78875-0.050597-0.41629-8.48e-4 -0.63837 0.050842-0.47659 0.095186-0.45565 0.14427-0.45672 0.20336-0.3702 0.21452-0.27177 0.19248-0.33642 0.29128-0.29165 0.32516-0.23613 0.35677-0.20286 0.46486-0.1386 0.50305-0.2008 1.1417-0.11061 0.52831-0.19154 0.63205-0.37503 1.097-0.11078 0.41232-0.14689 0.83257-0.21441 1.4932-0.12852 0.6757-0.15476 0.63684-0.26649 0.7745-0.70967 1.5899-0.29255 0.79531-0.13379 0.48004-0.13115 0.59961-0.029704 0.18283-0.062464 0.78958 0.027343 0.78499 0.099454 0.75917 0.15899 0.71061 0.34189 1.1904 0.22271 1.0917 0.12594 0.84878 0.15131 0.7262 0.58218 2.2109 0.22701 1.095 0.10787 0.77126 0.044413 0.74582-0.029369 0.59324-0.10783 0.54798-0.25719 0.61987-0.093688 0.17469-0.41566 0.7077-0.7383 1.1788-0.15748 0.31644-0.39097 0.96542-0.65435 1.9187-0.23451 0.58656-0.3027 0.52263-0.20906 0.24004-0.33231 0.29422-0.49998 0.35672-1.0255 0.63294-0.34888 0.2423-0.30117 0.27144-0.18638 0.23488-0.11612 0.1892-0.12591 0.25132-0.12991 0.31569-0.11556 0.34723-0.081858 0.33528-0.22915 1.2206-0.12868 0.89793-0.03034 0.36284-0.029967 1.0634-0.038646 0.55812-0.14511 1.1328-0.12656 0.71209-0.10474 0.39443-0.30082 0.98592-0.12682 0.51033-0.099966 0.52331-0.10262 0.71608-0.42895 3.5838-0.032978 0.83884 0.076703 1.4127-0.02617 0.60598-0.088094 0.39802-0.20248 0.44986-0.30412 0.43754-0.4312 0.46836-0.6449 0.56687-0.74516 0.55913-0.72149 0.48809-0.76856 0.48858-2.774 1.6907-1.7906 1.1321-1.3252 0.90904-0.23309 0.18892-0.054043 0.089569-0.14903 0.062613-0.11842 0.008308-0.45779-0.024895-0.27934-0.046913-0.46626-0.12725-0.60304-0.25069-0.41823-0.21914-0.42702-0.25048-2.0222-1.3152-0.66782-0.40751-0.62751-0.34248-0.62569-0.29232-0.54009-0.21019-0.87201-0.28168-0.78147-0.21233-2.2688-0.53866-0.67819-0.19312-1.2706-0.4486-0.58697-0.24238-0.56131-0.25915-0.46474-0.23704-0.59644-0.33745-0.53991-0.3492-0.36959-0.27341-0.44431-0.35811-0.21166-0.18618-0.34961-0.34626-0.18657-0.2153-0.29319-0.39392-0.24269-0.41099-0.26186-0.54737-0.2844-0.76204-0.14307-0.55093-0.078448-0.55188-0.012371-0.52015 0.010336-0.31416 0.13259-1.6863 0.061691-0.51317 0.32119-1.858 0.13212-0.63711 0.19297-0.59389 0.17404-0.36345 0.34011-0.59882 0.14958-0.24406 0.32941-0.4763 0.16228-0.27307 0.10643-0.28831 0.024309-0.17701-0.010065-0.22911-0.057052-0.24635-0.17337-0.38575-0.16542-0.21735-0.18974-0.15653-0.26156-0.14327-0.59549-0.27447-0.30298-0.15944-0.49763-0.2961-0.66542-0.46748-0.37444-0.31448-0.23335-0.23592-0.27787-0.38481-0.11486-0.31669-0.040739-0.24141-0.030069-0.58989 0.001554-0.36613 0.030578-0.46628 0.131-0.92982 0.11588-0.52722 0.2208-0.69977 0.19628-0.44776 0.32676-0.57548 0.393-0.55585 0.55522-0.64974 0.99213-0.99346 0.38452-0.45837 0.2261-0.46465 0.034295-0.31858-0.04894-0.36212-0.092771-0.32488-0.16876-0.44512-0.22666-0.4986-0.34714-0.63659-0.29802-0.43537-0.28829-0.33594-0.46975-0.38506-0.40349-0.20315-0.28069-0.099688-0.76716-0.16993-0.45797-0.057115-0.75073-0.047001-1.6517-0.006727-0.83545-0.03203-2.1133-0.23791-0.85149-0.041808-0.51811 0.013827-0.49169 0.052984-0.46979 0.10283-0.41897 0.1574-0.52409 0.3353-0.38548 0.37093-0.23978 0.29144-0.052157 0.099871 0.1248-0.83972 1.6282-9.857 0.34013-2.1987 0.28681-2.1246 0.10956-1.029 0.075124-1.0006 0.027736-0.96446-0.036962-0.91737-0.12448-0.8551-0.24164-0.77237-0.18304-0.3629-0.29751-0.43961-0.344-0.39714-0.40396-0.38893-1.0185-0.85919-0.27295-0.20675-0.26622-0.16232-0.27942-0.1297-0.93432-0.27373-0.3418-0.12845-0.33526-0.17535-0.35212-0.25784-0.42588-0.41771-0.39054-0.49375-0.3781-0.60687-0.10726-0.22059-0.13188-0.35966-0.069355-0.33425-0.021578-0.23575 0.013146-0.5792 0.089462-0.61582 0.15668-0.63619 0.2364-0.68586 0.3074-0.67206 0.2333-0.41325 0.25558-0.39966 0.37889-0.53489 1.3862-1.8203 0.17164-0.271 0.13445-0.3046-0.009381-0.20356-0.12167-0.055477-0.30864 0.047585-0.35314 0.1324-0.30352 0.14158-1.3855 0.71687-0.55524 0.22887-0.30802 0.089933-0.25947 0.048221-0.51607-0.001179-0.20846-0.047503-0.19462-0.069832-0.31011-0.15666-0.31887-0.21176-0.36435-0.3076-0.22396-0.23304-0.30037-0.37975-0.4697-0.73306-0.16228-0.22573-0.21489-0.23366-0.11373-0.096407-0.25406-0.15916-0.3294-0.11673-0.33658-0.030108-0.24706 0.02567-0.4067 0.10389-0.40211 0.17306-0.37075 0.2394-0.31143 0.30599-0.20352 0.31227-0.52441 1.1601-0.23009 0.37566-0.27829 0.32406-0.32281 0.27415-0.35214 0.21386-0.1514 0.068149-0.33288 0.099067-0.37361 0.018412-0.22335-0.045243-0.30116-0.13945-0.31327-0.27536-0.1937-0.29209-0.09289-0.21487-0.079512-0.28031-0.065102-0.46885-0.002815-0.60848 0.083537-0.7764 0.15585-0.79303 0.38415-1.5159 0.11374-0.73896-0.008725-0.68201-0.12314-0.6477-0.26081-0.65052-0.30194-0.48273-0.6936-0.9931-1.1537-1.7495-1.7269-2.3331-0.5644-0.81533-0.29056-0.45661-0.54578-0.92465-1.225-2.2396-0.59501-1.0289-0.3286-0.50167-0.45054-0.55068-0.46284-0.36202-0.35468-0.14089-0.37244-0.062868-0.45285-0.007324-1.3085 0.041297-0.66605-0.035914-0.62141-0.13366-0.23255-0.093852-0.47598-0.28854-0.2973-0.22893-0.69292-0.62022-0.58012-0.58456-0.58138-0.63798-0.75499-0.92286-0.99421-1.3823-0.49858-0.6375-0.53644-0.54598-0.60531-0.40493-0.39728-0.1525-0.42778-0.096446-0.60432-0.058929-0.64016 0.00216-0.73415 0.054671-0.75781 0.093647-0.77319 0.11873-2.5153 0.41145-0.80572 0.095915-0.77999 0.042648-0.74622-0.039286-0.69854-0.15752-0.48204-0.21329-0.45345-0.28718-0.39171-0.31468-0.42527-0.41275-0.56813-0.67774-0.40362-0.58508-0.29201-0.48644-0.44469-0.8507-0.86402-1.8657-0.53883-1.2468-1.4552-3.5716-0.31674-0.69472-0.27154-0.53772-0.29517-0.51317-0.55282-0.80082-0.59817-0.77108-1.1052-1.3503-0.54329-0.78907-0.44232-0.825-0.37891-0.85583-0.84339-2.0079-0.17565-0.3723-0.07986-0.13026 0.074755-0.10227 0.089705-0.084021 0.20059-0.15444 0.29858-0.18858 0.30745-0.15545 0.31196-0.12174 1.1594-0.37076 0.46392-0.10763 0.27426-0.016553 0.22789 0.02352 0.26541 0.070308 0.32858 0.13712 0.41862 0.22873 1.3987 0.86616 0.29217 0.1563 0.41737 0.18789 0.36204 0.12156 0.61889 0.096278 0.37288-0.025024 0.35445-0.081962 0.49016-0.20472 0.25561-0.15272 0.22516-0.1669 0.47436-0.44337 0.24692-0.19692 0.22014-0.12468 0.3346-0.12681 0.78576-0.23048 0.46182-0.17314 0.49293-0.22715 0.6152-0.34923 0.46709-0.33045 0.42474-0.38064 0.26002-0.29366 0.23753-0.3132 0.22437-0.33391 0.20115-0.34715 0.20854-0.44313 0.156-0.40132 0.3045-0.89024 0.27458-0.71985 0.66101-1.291 0.1948-0.55298 1.1085-3.4325 0.23347-0.6687 0.25639-0.64579 0.23139-0.5068 0.161-0.32588 0.35796-0.65104 0.61509-0.97622 0.41115-0.59215 0.48316-0.64762 0.83441-1.0162 1.9665-2.0993 0.6017-0.6054 0.52554-0.46531 0.47746-0.34328 0.50234-0.28314 0.73474-0.32988 2.0592-0.83557 1.001-0.46613 2.14-1.0442 0.70644-0.31169 4.6347-1.8554 0.41316-0.15189 0.73384-0.22399 0.55328-0.1038 0.3746-0.021562 0.36382 0.022046 0.57339 0.11614 0.80276 0.21544 0.45398 0.092437 0.62502 0.066061 0.6126-0.005253 0.48517-0.04995 0.46416-0.082023 1.59-0.38918 0.66164-0.13952 1.0121-0.17519 0.64119-0.13031 0.38489-0.10155 0.42054-0.13785 0.49619-0.20293 0.35398-0.17366 0.44228-0.25602 0.63239-0.47122 0.52465-0.56692 0.32743-0.54163 0.2657-0.59531 0.51166-1.2801 0.2441-0.51096 0.27723-0.51069 0.38256-0.62574 0.63998-0.91705 0.68812-0.87687 0.38477-0.45248 0.78048-0.85848 0.47388-0.47065 0.34405-0.31583 1.0355-0.85559 1.7522-1.3559 0.32347-0.27558 0.31884-0.29997 0.4016-0.4435 0.30458-0.43802 0.24954-0.52772 0.1968-0.60689 0.13622-0.64554 0.069981-0.67047 0.006391-0.35105-0.048241-0.6323-0.076091-0.46809-0.15376-0.67227-0.17241-0.59255-0.25586-0.74235-0.18069-0.4703-0.34028-0.80462-0.80162-1.6416-0.2452-0.61016-0.081225-0.27552-0.06661-0.3374-0.025131-0.27664 0.016017-0.437 0.12006-0.69081 0.1247-0.47339 0.42826-1.4565 0.50536-1.6254 1.0833-3.3126 0.34546-1.2575 0.13987-0.66918 0.09282-0.6502 0.039781-0.60471 0.003981-0.40845-0.023716-0.39717-0.13338-0.68752-0.23044-0.64467-0.30152-0.5866-0.35166-0.50952-0.78566-0.87949-0.3462-0.42166-0.40405-0.43786-0.32209-0.28794-0.40987-0.32309-0.93609-0.61663-0.48831-0.34503-0.59437-0.51318-0.42476-0.43022-0.41299-0.46381-0.4002-0.48878-0.44026-0.58002-0.41723-0.59119-0.41489-0.63233-0.4817-0.80904-0.17961-0.34059-0.19877-0.43666-0.17149-0.52232-0.056996-0.43936 0.077124-0.31992 0.18377-0.15251 0.17424-0.03796 0.14191 0.004457 0.26078 0.06485 0.12719 0.054636 0.43541 0.28605 0.45687 0.40533 0.98958 0.96554 0.47994 0.42393 0.49032 0.39124 0.48353 0.34442 0.51026 0.32618 0.45311 0.32087 0.30412 0.29623 0.20543 0.27692 0.1617 0.28253 0.22827 0.4751 0.1647 0.28489 0.17358 0.22787 0.17013 0.16897 0.166 0.11841 0.16449 0.054013 0.17625-0.031287 0.18287-0.12934 0.18898-0.22005 0.10361-0.1621 0.34369-0.6467 0.30583-0.52397 0.98591-1.3561 0.61496-0.94247 0.34151-0.57397 1.3488-2.6457 0.87698-1.8329 0.3633-0.68988 0.26055-0.44196 0.46161-0.7031 0.43612-0.59265 1.135-1.4531 0.46518-0.65378 0.37946-0.6153 0.36521-0.75364 0.14207-0.39432 0.11903-0.41466 0.10569-0.47378 0.080171-0.45878 0.052103-0.39122 0.045763-0.5645 0.006241-0.5486-0.021039-0.37451-0.037713-0.32342-0.11265-0.57316-0.17952-0.62856-0.14219-0.36172-0.23207-0.46978-0.16968-0.2766-0.12362-0.13244-0.05738-0.093469 0.08099-0.14548 0.33689-0.3845 0.39129-0.36845 0.65704-0.553 0.66606-0.50847 0.48346-0.34057 0.49163-0.31794 0.521-0.29924 0.51772-0.25232 0.4507-0.17573 0.44105-0.12229 0.72076-0.059511 0.36993 0.055461 0.34158 0.10309 0.32712 0.13951 0.53114 0.2985 0.51842 0.38335 0.3958 0.38309 0.43006 0.52378 0.69911 0.992 0.84812 1.2715 0.2978 0.38934 0.12977 0.1369 0.18814 0.14327 0.13632 0.056647 0.10657 0.015341 0.12559-0.011159 0.14528-0.047312 0.15157-0.083958 0.23037-0.18711 0.33188-0.38786 0.22707-0.36106 0.14943-0.39435 0.13325-0.71164 0.10847-0.43641 0.10712-0.34595 0.099698-0.24408 0.21016-0.36965 0.13272-0.18479 0.33159-0.39387 0.5603-0.56061 0.72585-0.64826 0.60874-0.46977 0.34076-0.22781 0.52481-0.2927 0.22224-0.10028 0.62711-0.20365 0.39226-0.067344 0.37592-0.034118 1.468-0.035783 0.66249-0.037939 0.54532-0.079822 0.43277-0.12119 0.4398-0.20669 0.38809-0.28201 0.32441-0.35484 0.18996-0.30176 0.19245-0.42311 0.17119-0.52396 0.24857-1.0607 0.41123-2.1412 0.12891-0.56635 0.10655-0.40563 0.29297-0.90894 0.21504-0.5442 0.2389-0.54153 1.0482-2.1599 0.3868-0.8644 1.074-2.5602 1.0781-2.3218 0.25719-0.63744 0.54949-1.5114 0.25069-0.56688 0.18099-0.33854 0.27082-0.42359 0.32584-0.42218 0.26318-0.29741 0.6547-0.64722 1.6575-1.4995 0.38258-0.38662 0.38283-0.42187 0.3659-0.44453 0.34346-0.4662 0.29334-0.45716 0.18119-0.3339 0.11473-0.27532 0.056536-0.19946 0.053119-0.43471-0.024717-0.61162-0.1032-0.7075-0.038289-0.3765-0.009029-0.25618 0.015233-0.31232 0.0352-0.21946 0.085107-0.28774 0.064369-0.14929 0.1684-0.28659 0.24135-0.30363 0.26875-0.27124 0.2966-0.25614 0.48917-0.36451 0.3817-0.24504 0.48646-0.25548 0.35992-0.11982 0.36956-0.061367 0.4552 0.002635 0.28252 0.032858 1.0122 0.22775 0.45784 0.075324 0.91811 0.098906 0.40792 0.060418 0.41611 0.090406 0.37183 0.11262 0.36449 0.14933 0.27848 0.14884 0.17432 0.11305 0.35318 0.289 0.1383 0.13733 0.4749 0.57847 0.3301 0.49806 0.31113 0.53993 0.28338 0.55046 0.26922 0.57585 0.52355 1.2702 0.54225 1.5061 0.91464 2.753 0.38685 1.1025 0.86558 2.3313 0.50403 1.2164 0.29915 0.63545 0.31724 0.59047 0.25348 0.40719 0.73811 0.99586 0.78867 1.0258 0.26265 0.31401 0.31997 0.3311 0.31997 0.29945 0.2099 0.17583 0.28041 0.20295 0.42418 0.23816 0.19836 0.08453 0.39198 0.12461 0.42675 0.080377 0.20438 0.020571 0.53921 0.00547 0.67685-0.081459 1.3978-0.26437 0.56136-0.055469 0.43418 0.001654 0.44306 0.056136 0.53889 0.15986 0.50814 0.25012 0.35674 0.23647 0.5269 0.43646 1.1747 1.1124 1.0645 1.1026 0.61291 0.72964 1.1492 1.4741 1.3287 1.642 0.73902 0.98395 0.62518 0.91395 0.35241 0.55828 0.35362 0.59642 0.33168 0.60114 0.36146 0.7201 0.3169 0.7178 0.22896 0.61055 0.17956 0.60093 0.12304 0.6182 0.03851 0.59789-0.066889 0.57162-0.16978 0.50166-0.32133 0.57806-0.29524 0.40945-0.94913 1.1427-0.3768 0.50105-0.33304 0.52503-0.26862 0.54949-0.19471 0.59857-0.11762 0.61304-0.05534 0.61442 0.013885 0.77347 0.1519 0.73419 0.15358 0.36359 0.28377 0.46578 0.23109 0.29991 0.2873 0.33087 1.5541 1.6609 0.63609 0.77592 0.42074 0.59452 0.23863 0.38184 0.22213 0.41359 0.15746 0.34317 0.18953 0.48958 0.17096 0.54948 0.15851 0.658 0.25396 1.232 0.13072 0.56314 0.16019 0.58046 0.17714 0.51725 0.45972 1.1378 0.16259 0.4953 0.057728 0.36822 0.004809 0.17529-0.098929 1.0772-0.003697 0.25779 0.066602 0.5792 0.16113 0.59641 0.24653 0.58435 0.32828 0.54109 0.41195 0.46301 0.50329 0.34467 0.31458 0.12335 0.44227 0.097063 0.47747 0.040949 0.50778-0.003075 0.52915-0.040112 0.50407-0.065892 0.51193-0.090419 0.58814-0.12943 1.9522-0.51042 1.0226-0.20814 0.68349-0.10376 0.66633-0.055651 0.76651 0.004828 0.4867 0.048904 0.4364 0.080256 0.50446 0.13987 0.50862 0.19598 0.35069 0.17286 1.3184 0.76327 0.38562 0.18228 0.60144 0.21561 0.67871 0.17793 0.84185 0.19421 0.68838 0.19885 0.61181 0.25309 0.60891 0.29624 0.59137 0.25708 3.9531 1.3031" stroke="#bdc660"/>
    </defs>
    <g clip-path="url(#pbcdc430221)">
     <use y="280.512" fill="#bdc660" stroke="#bdc660" xlink:href="#mff6397329c"/>
    </g>
   </g>
  </g>
 </g>
 <defs>
  <clipPath id="pbcdc430221">
   <rect x="7.2" y="7.2" width="189.55" height="266.11"/>
  </clipPath>
 </defs>
</svg>
