<?xml version="1.0" encoding="UTF-8"?>
<!DOCTYPE svg  PUBLIC '-//W3C//DTD SVG 1.1//EN'  'http://www.w3.org/Graphics/SVG/1.1/DTD/svg11.dtd'>
<svg width="371.52pt" height="264.8pt" version="1.1" viewBox="0 0 371.52 264.8" xmlns="http://www.w3.org/2000/svg" xmlns:xlink="http://www.w3.org/1999/xlink">
 <metadata>
  <rdf:RDF xmlns:cc="http://creativecommons.org/ns#" xmlns:dc="http://purl.org/dc/elements/1.1/" xmlns:rdf="http://www.w3.org/1999/02/22-rdf-syntax-ns#">
   <cc:Work>
    <dc:type rdf:resource="http://purl.org/dc/dcmitype/StillImage"/>
    <dc:date>2024-07-04T12:09:48.402407</dc:date>
    <dc:format>image/svg+xml</dc:format>
    <dc:creator>
     <cc:Agent>
      <dc:title>Matplotlib v3.7.1, https://matplotlib.org/</dc:title>
     </cc:Agent>
    </dc:creator>
   </cc:Work>
  </rdf:RDF>
 </metadata>
 <defs>
  <style type="text/css">*{stroke-linejoin: round; stroke-linecap: butt}</style>
 </defs>
 <g id="figure_1">
  <g id="patch_1">
   <path d="m0 264.8h371.52v-264.8h-371.52v264.8z" fill="none"/>
  </g>
  <g id="axes_1">
   <g id="PatchCollection_1">
    <defs>
     <path id="me9a24da2e0" d="m309.43-23.393-0.27853-0.39272-0.7861-0.84868-1.0495-1.0636-2.6236-2.5872-0.69575-0.65954-0.8739-0.76214-1.3718-1.0583-1.3699-0.93084-3.2058-2.012-0.96337-0.65343-1.0803-0.81231-0.99269-0.87456-0.7121-0.77235-0.65404-0.94388-0.4178-0.90379-0.22212-0.68958-0.20514-0.87388-0.15656-0.92543-0.10388-1.1282-0.11758-2.6616-0.065236-0.80273-0.20032-1.2927-0.24859-1.0146-0.49329-1.5758-0.57489-1.543-0.64911-1.5366-1.0203-2.1117-0.55909-1.0249-0.59242-0.97883-0.55293-0.80804-0.59122-0.7482-1.0025-1.0041-1.131-0.77393-1.2657-0.50231-1.2339-0.27234-0.81459-0.11339-3.6328-0.31895-1.4758-0.16223-0.88738-0.12806-1.1967-0.22601-0.74724-0.18632-2.3733-0.80651-3.2421-0.99903-1.1648-0.39444-1.246-0.52533-0.9128-0.49818-1.7977-1.0514-0.9071-0.47942-0.86437-0.41823-0.98856-0.38595-0.65691-0.13003-0.66512-0.005757-0.9215 0.20958-0.91655 0.38138-1.1824 0.57727-1.006 0.4167-1.0456 0.22082-1.0544-0.064931-1.091-0.28919-0.63394-0.23755-0.95799-0.41515-0.88095-0.41554-2.6327-1.4076-1.2171-0.50714-3.6128-1.2906-0.80795-0.21822-0.64676-0.10553-3.7342-0.30897-0.32834 0.006028-0.84129 0.11113-1.0408 0.32562-0.70278 0.34235-0.72153 0.44178-0.59429 0.41754-0.92262 0.69964-1.2443 1.0316-0.74253 0.66962-2.0078 2.0027-0.95277 0.84971-2.923 2.381-1.4111 1.2019-1.1125 0.76711-0.97798 0.41924-0.98449 0.21399-0.98105 0.010559-0.84268-0.21817-0.35707-0.21303-0.50812-0.68496-0.12967-0.91872 0.19889-0.86133 0.25806-0.61793 0.3345-0.64707 0.50496-0.85522 1.2331-1.9358 0.64768-1.1079 0.55084-1.1207 0.48678-1.1807 0.42619-1.2242 0.43504-1.5132 0.34754-1.5331 0.2532-1.5323 0.14563-1.5113 0.017661-1.4695-0.13892-1.4049-0.1793-0.85298-0.45778-1.5175-0.81397-1.991-0.49072-1.0803-0.96822-1.9062-2.8914-5.1256-0.61388-1.1829-1.01-2.1091-0.30839-0.52335-0.36638-0.51843-0.39384-0.45676-0.76051-0.6151-0.65234-0.22529-0.40291 0.028826-0.38589 0.16317-0.62899 0.62154-0.52169 0.87259-0.48705 1.1074-0.45882 1.2862-0.8764 2.6914-0.4955 1.2234-0.61948 1.1745-0.44615 0.65808-1.4252 1.7763-0.64836 0.89326-0.57014 0.97234-0.51967 1.0456-0.59176 1.3345-0.63061 1.6154-0.90108 2.5885-0.52176 1.2653-0.2981 0.576-0.46769 0.68135-0.454 0.44362-0.51334 0.3324-0.38396 0.15191-1.8501 0.46956-0.39995 0.16133-1.3479 0.7755-0.39157 0.139-0.44 0.077549-0.61798-0.01529-0.67344-0.13872-1.0659-0.42911-0.71422-0.4318-0.68384-0.54732-0.61438-0.63852-0.53461-0.69258-0.35757-0.53674-0.43015-0.72765-0.44006-0.85218-0.39256-0.88078-0.32733-0.85266-0.36223-1.1021-0.64484-2.2333-0.24404-0.73486-0.43103-1.0449-0.63579-1.0759-0.51973-0.55902-0.57762-0.34472-0.70388-0.10222-0.69352 0.121-0.76 0.30488-0.67038 0.39384-0.56983 0.43068-0.60415 0.58236-0.58717 0.76692-0.43878 0.81929-0.37578 0.99196-0.256 0.91303-0.18736 0.84016-0.32426 1.9279-0.26374 2.2108-0.12082 1.5699-0.17122 4.6951-0.10808 1.9008-0.08403 0.80064-0.21854 1.5312-0.31811 1.4366-0.25099 0.79339-0.91133 2.2634-0.28114 0.77863-0.19286 0.90728-0.007525 1.0248 0.15986 1.0516 0.14931 0.60352 0.21393 0.63502 0.35378 0.78624 0.53007 0.93096 1.4196 2.1603 1.0513 1.7725 0.72863 1.4211 0.58556 1.4191 0.19959 0.61348 0.1823 0.72615 0.11212 0.75288 0.021056 0.71327-0.046479 0.74497-0.097508 0.70078-0.1887 0.76395-0.32703 0.64958-0.17993 0.22654-0.35705 0.30302-0.75079 0.30918-0.88235 0.099006-0.93337-0.07879-0.5047-0.10528-1.9877-0.52291-0.55498-0.074797-0.65718-0.001204-0.45652 0.053387-0.51489 0.10447-0.75515 0.23032-0.71584 0.35237-0.79489 0.6489-0.69145 0.84226-0.32159 0.5036-0.41445 0.8042-0.38138 0.91892-0.30189 0.87133-0.30033 1.235-0.20272 1.2714-0.39717 2.9204-0.37545 2.2147-0.2343 1.0519-0.22981 0.8188-0.4814 1.2125-0.64181 1.1353-0.79504 1.008-0.95141 0.82117-0.75737 0.43406-0.68934 0.28599-0.75558 0.21319-0.61094 0.11564-0.75596 0.093037-0.75862 0.046107-1.8611-0.028445-1.7721-0.15183-2.0395-0.29552-5.9435-1.0219-3.091-0.69999-1.1217-0.16198-1.0788-0.007923-1.47 0.17327-1.3636 0.30746-1.0194 0.3063-0.74305 0.2833-1.2645 0.59951-1.0901 0.60686-2.4592 1.4573-1.3845 0.73632-0.7417 0.32732-0.86532 0.29728-1.4293 0.29729-2.5239 0.29803-1.0837 0.080942-1.0679-0.020434-0.98513-0.14948-0.96856-0.24001-1.702-0.48732-1.0161-0.21834-0.75118-0.095455-0.769-0.04362-1.3981 0.026216-3.4362 0.2327-0.97251 0.00685-0.73381-0.098202-0.34172-0.16217-0.071151-0.21215 0.52643-0.21097 0.76528-0.46681 0.82383-0.64506 0.72735-0.76596 0.50427-0.84702 0.17096-0.63572 0.021804-0.64357-0.11331-0.69731-0.77064-2.5652-0.75834-2.8494-0.47304-2.063-0.24996-1.4319-0.15619-1.1377-0.17516-1.8728-0.26409-4.9655-0.11256-1.3392-0.34992-2.419-0.23137-1.086-0.62181-2.3194-0.57581-2.9469-0.18981-0.80472-0.15484-0.46262-0.25401-0.51449-0.17325-0.24276-0.26817-0.26559-0.18654-0.12558-0.30812-0.12619-0.25829-0.043055-0.49327 0.038456-0.59661 0.19815-0.51648 0.24981-2.0996 1.1743-0.48704 0.23442-0.62987 0.2522-0.50118 0.14443-0.59211 0.087138-0.72588-0.051236-0.53393-0.17467-0.52053-0.27823-0.84416-0.63406-2.492-2.3989-0.96942-0.79657-0.87052-0.5782-1.0896-0.58168-0.85896-0.37064-0.89425-0.32032-0.91999-0.27167-0.94213-0.2284-1.5488-0.28536-1.6848-0.19782-0.96928-0.062998-1.0498-0.023915-1.0415 0.027655-2.9361 0.26996-1.5409 0.084038-1.5532-0.11483-0.9853-0.19733-0.74924-0.21848-0.6313-0.22951-0.70187-0.30165-0.95252-0.48259-1.2332-0.70778-3.9062-2.339-1.0571-0.58438-1.4448-0.71773-1.6234-0.67319-1.3481-0.43812-1.615-0.38933-1.6663-0.29-1.5882-0.20997-2.1108-0.20009-1.4091-0.065204-2.0755 0.034126-4.3506 0.34853-0.5952 0.015042 0.26787-0.26776 0.61666-0.79579 0.79851-1.1521 0.77856-1.2538 0.67675-1.2148 0.85471-1.7586 0.60054-1.465 0.48558-1.4165 0.35197-1.2543 0.45094-2.12 0.22608-1.4371 0.16813-1.3897 0.11012-1.239 0.075963-1.3982 0.018587-1.0449-0.039923-1.2917-0.16766-1.3139-0.25967-0.94625-0.33254-0.7602-0.40102-0.71346-1.1001-1.8041-0.3568-0.73149-0.33894-0.94153-0.42189-1.6626-0.92908-4.587-0.76656-3.2748-0.5859-2.0527-0.4045-1.2142-0.45065-1.1986-0.55869-1.3017-0.75777-1.5091-0.64492-1.1425-1.9635-3.3027-1.1623-2.1082-0.70677-1.421-0.66467-1.5021-0.56629-1.4892-0.43366-1.3396-0.46324-1.6885-0.4967-2.1482-0.57012-2.6602-0.5229-2.1588-0.5073-1.6861-0.4578-1.1915-0.68648-1.4073-1.5774-2.7262-0.57605-1.0609-2.0581-4.3393-1.0426-1.9817-0.81092-1.3321-2.3877-3.7495-2.3418-3.3842-0.53521-0.87344-0.16468-0.31211-0.060721-0.1866 0.11554 0.020755 0.19171-0.038985 0.65689-0.24378 0.63821-0.31664 0.79696-0.48241 0.84584-0.58548 1.1387-0.86302 1.1444-0.8993 1.0803-0.94491 0.93873-0.99832 0.99556-1.1657 1.9126-2.1427 0.46645-0.60787 0.45411-0.67163 1.3826-2.3817 0.85433-1.2726 0.83151-1.0299 2.0736-2.2683 0.81847-0.96939 0.79273-1.2209 0.31861-0.71569 0.25545-0.75457 0.20825-0.77235 0.2337-1.126 0.20902-1.5841 0.19391-2.3041 0.078717-1.3999 0.15881-4.4683 0.10511-2.0319 0.16489-2.2874 0.14579-1.1215 0.29984-1.4368 0.6691-2.6286 0.53222-2.6342 0.2953-1.21 0.71364-2.1539 0.4631-1.5366 0.26917-0.66602 0.3697-0.5864 0.30094-0.3161 0.29129-0.23328 1.005-0.60803 0.50416-0.36231 1.0047-1.0808 0.4584-0.37634 0.28336-0.17758 0.43934-0.18149 0.44649-0.063064 0.29399 0.02741 0.36163 0.10991 0.28792 0.1495 0.25175 0.17872 0.50116 0.50316 1.4463 2.0518 0.83256 1.0881 0.59775 0.68071 0.90098 0.87214 1.0816 0.86471 0.69093 0.48641 1.2024 0.75913 0.73681 0.42038 1.4041 0.68454 0.86917 0.31777 0.69461 0.17268 0.32467 0.044045 0.38154-0.004951 0.26141-0.18143 0.37253 1.7719 0.70484 2.6314 0.36514 1.1637 0.67797 1.8544 0.68627 1.546 0.79034 1.4937 0.61605 1.0048 0.66587 0.96054 0.74079 0.94048 0.79185 0.88228 1.1393 1.088 0.92865 0.76324 0.96408 0.70599 1.1285 0.74173 1.1543 0.68358 1.2652 0.67691 1.278 0.61789 1.4932 0.64483 1.4921 0.559 1.5526 0.48138 1.3395 0.33002 1.6841 0.31232 1.5149 0.14231 1.3563-0.064653 1.1945-0.27426 0.58645-0.23665 1.1476-0.7119 0.88498-0.73855 0.34259-0.33386 0.64061-0.71634 1.1486-1.4277 1.0225-1.2125 3.3479-3.5704 1.1164-1.2644 0.65109-0.79583 0.4689-0.63791 0.46834-0.70709 0.56951-0.94085 1.6976-2.98 0.54127-0.86625 0.57722-0.84325 1.0587-1.3393 0.61441-0.67665 0.64302-0.64402 0.66574-0.60683 0.68783-0.57143 1.1272-0.83007 1.4702-0.91666 1.4239-0.75662 1.0596-0.47543 0.79911-0.29332 3.2334-1.058 1.3775-0.36948 2.963-0.61573 1.8745-0.4593 0.79068-0.2278 1.3927-0.46604 3.8897-1.4702 0.85765-0.38762 0.71522-0.4242 0.73631-0.55792 0.65725-0.61572 0.90154-1.0407 1.0555-1.4728 0.66332-1.1094 0.75772-1.4925 1.9024-4.3081 1.023-1.9878 0.38772-0.6477 0.52747-0.77998 0.48732-0.6211 0.64977-0.67567 0.68297-0.53285 0.43718-0.2691 1.0044-0.48224 1.6597-0.65685 0.66748-0.30236 0.66672-0.34254 1.9671-1.1383 0.84533-0.45412 0.99314-0.47985 5.2579-2.3206 1.7202-0.71035 0.94485-0.34248 1.2538-0.38938 1.1627-0.28698 1.1099-0.20113 0.88528-0.10614 1.1989-0.070497 1.1297 0.013548 0.94536 0.088728 0.90017 0.16689 0.99906 0.30061 0.79004 0.35301 0.94689 0.63149 0.49489 0.47334 0.71501 0.92556 0.55574 1.0634 0.45167 1.4609 0.35814 2.0735 0.18534 1.8002 0.046659 0.95381 0.002924 1.1696-0.1283 2.7047 0.004928 0.99201 0.093476 1.1205 0.17269 1.1683 0.19338 0.87766 0.2768 0.8864 0.2494 0.60947 0.55115 1.0669 0.61421 0.92014 0.51331 0.55616 0.45538 0.38949 0.65752 0.47349 1.6181 0.98498 0.49392 0.26723 0.84778 0.3991 0.6858 0.24012 0.59036 0.13687 0.5789 0.041653 0.70947-0.11132 0.68461-0.27674 0.79056-0.54657 0.67305-0.73839 0.24783-0.3784 0.26273-0.48615 0.91385-2.1331 0.33188-0.69692 0.38248-0.6805 0.43919-0.65993 0.76971-0.96814 0.84975-0.90888 1.8359-1.7155 0.77284-0.76378 0.69406-0.80213 0.57325-0.84126 0.23059-0.43697 0.36811-0.87812 0.49726-1.3677 0.31663-0.65439 0.42382-0.54553 0.65463-0.45392 0.76563-0.29413 0.90473-0.20249 1.2229-0.17184 3.4119-0.38633 1.3069-0.11288 1.1451-0.041321 1.0168 0.022961 1.0053 0.087351 0.89253 0.13974 1.1011 0.26246 0.78972 0.25055 2.3908 0.91834 1.0651 0.3492 0.91616 0.23153 0.91943 0.153 0.58479 0.049266 0.92892 0.004042 0.7053-0.05009 1.0745-0.14929 1.1343-0.2477 0.97438-0.29685 1.4941-0.63824 1.4664-0.77683 1.2966-0.75096 1.2313-0.80416 1.0199-0.79194 0.54017-0.4993 0.60752-0.67182 0.58623-0.82651 0.48259-0.90083 0.57532-1.6474 0.31564-1.6922 0.1114-1.5721-0.036487-1.2187-0.12691-0.52537 0.47644-0.14135 1.4256-0.30127 1.7552-0.2773 0.97265-0.10194 1.0112-0.061435 1.6928 0.004144 2.3652 0.19202 1.2466 0.19159 0.85108 0.18543 1.0769 0.29632 1.0778 0.36689 3.4156 1.4759 0.83399 0.32639 0.845 0.29223 1.2294 0.34183 1.2871 0.22786 0.77042 0.065293 1.0297 0.003073 1.1593-0.113 0.79902-0.15218 0.59714-0.15363 1.0809-0.35798 1.2769-0.53567 1.5333-0.75588 3.4532-1.8165 1.8004-0.90363 4.7099-2.1984 3.3265-1.6542 1.5591-0.68006 0.99699-0.35617 0.86888-0.25284 1.0167-0.21474 1.2673-0.1264 1.2724-0.019546 1.5281 0.060457 1.2272 0.14369 1.2107 0.25395 0.58181 0.17254 1.2283 0.49469 0.80228 0.42279 1.1116 0.71902 1.0507 0.81199 0.99249 0.87285 0.93381 0.9055 2.1431 2.2643 1.0794 1.0688 0.89702 0.74379 1.8034 1.3805 0.79101 0.75413 0.35343 0.45191 0.47609 0.81648 0.29108 0.66311 0.56152 1.6072 0.24252 0.8637 0.17374 0.7645 0.11347 0.69419 0.11861 1.267 0.17142 1.2569 0.18292 0.67836 0.1652 0.47133 0.45763 1.0068 0.2082 0.36346 0.32718 0.49344 0.35646 0.46595 0.44057 0.51042 0.65507 0.67598 4.7184 4.2931 0.78858 0.78818 1.291 1.4155 0.8304 0.99284 0.95357 1.293 0.76803 1.2496 0.21428 0.41578 0.40768 0.98137 0.19195 0.71104 0.063724 0.40687 0.027398 0.65432-0.11482 0.98693-0.16772 0.66726-0.36138 0.99348-0.71396 1.4659-0.46025 0.81957-1.3406 2.1758-2.6205 4.0167-1.0179 1.4705-1.0928 1.4865-1.0043 1.2705-1.3011 1.5057-1.8819 1.967-5.0594 4.8662-1.1513 1.2529-0.72566 0.87745-0.75399 0.97911-1.049 1.4417-2.4543 3.5079-0.54302 0.86482-0.38534 0.71445-0.3398 0.73617-0.40334 1.0669-0.78131 2.6629-1.4286 4.2002-0.66226 2.1512-0.15364 0.63764-0.64542 3.4728-0.70547 3.4036-0.2996 1.6778-0.22344 1.7061-0.078877 0.96342-0.051757 0.96503-0.035642 1.7783 0.018878 0.74284 0.086019 1.1833 0.13721 0.99006 0.31817 1.4359 0.27632 0.8957 0.32696 0.87612 0.37188 0.8607 0.51643 1.0464 0.51899 0.92146 0.56704 0.8876 1.0031 1.3177 0.88492 0.93288 1.1354 0.94564 0.80139 0.54029 0.8555 0.49086 1.175 0.58001 5.9588 2.7451 1.4846 0.58982 4.8448 1.5491 1.3076 0.51931 1.504 0.69934 1.5262 0.83437 1.0445 0.65593 0.80532 0.57774 1.3332 1.0269 2.0539 1.4029 1.3262 1.0792 0.56135 0.41689 0.34782 0.21248 0.65041 0.29256 0.3921 0.10575 0.32569 0.043509 0.41456-9.17e-4 1.9387-0.29924 0.4745-0.011323 0.49752 0.049814 0.34826 0.083464 0.57715 0.24597 0.7517 0.4886 0.7991 0.63027 1.3232 1.1337 0.62551 0.4692 0.32443 0.19465 0.37968 0.1779 0.40018 0.12734 0.60153 0.079853 0.34584-0.007596 1.8829-0.2829 0.83284-0.022994 0.77658 0.11918 0.43591 0.1182 2.2978 0.83423 0.92015 0.23149 0.40308 0.05823 0.66643 0.023976 0.67767-0.06362 1.0562-0.16065 0.53861-0.002354 0.31723 0.071136 0.40018 0.2159 0.29661 0.28616 0.27674 0.42541 0.48929 1.0437 0.40219 0.64698 0.43901 0.49307 0.37964 0.29693 0.4681 0.24593 0.35423 0.1224 0.53441 0.11334 0.75533 0.070099 1.8425 0.074705 1.0035 0.14556 0.53191 0.1467 0.47499 0.19484 0.61644 0.38054 0.42951 0.38131 0.26395 0.29727 0.2874 0.41307 0.25496 0.52751 0.14693 0.48518 0.076043 0.58434-0.022102 0.47364-0.080455 0.38977-0.222 0.55739-0.51766 0.82802-0.4828 0.60581-1.7508 2.0374-0.81454 1.1124-0.75215 1.2969-0.3526 0.72291-0.40167 0.94544-0.27618 0.74821-0.18133 0.55131-0.3156 1.1547-0.19225 1.0015-0.10131 0.8447-0.060891 0.84132-0.11178 2.289-0.15455 1.4419-0.20286 0.9686-0.64186 2.4237-0.24868 1.112-0.19733 1.106-0.20774 1.6688-0.04165 0.68948-0.007166 2.2569 0.083065 2.5418 0.1148 1.4003 0.1372 1.1444 0.36437 2.2973 0.26066 1.2655 0.18101 0.70521 0.80346 2.3919 0.55313 1.8064 1.1092 4.2571 1.2376 4.2711 0.26382 1.2025 0.071039 0.71124-0.026349 0.69611-0.20356 0.8812-0.36714 0.86406-0.70313 1.1552-0.88551 1.1094-0.61292 0.64308-0.66066 0.60842-0.70571 0.56185-0.71661 0.48393-0.97331 0.53817-1.0144 0.43133-1.0234 0.30529-1.0419 0.16885-0.83847 0.028709-0.85173-0.039695-2.8118-0.23936-0.79395-0.038488-1.5082-0.008284-1.6235 0.10126-1.3802 0.19643-0.90567 0.19475-0.89314 0.2425-1.2502 0.41825-1.3636 0.5594-1.2645 0.63981-0.97614 0.60762-0.40203 0.29031-1.1859 0.99819-1.0609 1.0481-0.4626 0.51733-0.31879 0.39326-0.61076 0.91337-0.51038 1.0798-0.33543 1.1408-0.1467 1.175 0.01052 0.76528 0.075096 0.7702 0.38186 2.2814 0.16011 1.1674 0.041259 0.52069 0.023789 1.1691-0.043671 0.73628-0.20485 1.2068-0.23568 0.77044-0.34171 0.82624-0.39103 0.76071-0.41816 0.70033-0.56424 0.83532-1.2081 1.5486-2.0739 2.3219-0.2763 0.37012" stroke="#bdc660"/>
    </defs>
    <g clip-path="url(#p73ae313601)">
     <use y="264.802974" fill="#bdc660" stroke="#bdc660" xlink:href="#me9a24da2e0"/>
    </g>
   </g>
  </g>
 </g>
 <defs>
  <clipPath id="p73ae313601">
   <rect x="7.2" y="7.2" width="357.12" height="250.4"/>
  </clipPath>
 </defs>
</svg>
