<?xml version="1.0" encoding="UTF-8"?>
<!DOCTYPE svg  PUBLIC '-//W3C//DTD SVG 1.1//EN'  'http://www.w3.org/Graphics/SVG/1.1/DTD/svg11.dtd'>
<svg width="301.66pt" height="280.51pt" version="1.1" viewBox="0 0 301.66 280.51" xmlns="http://www.w3.org/2000/svg" xmlns:xlink="http://www.w3.org/1999/xlink">
 <metadata>
  <rdf:RDF xmlns:cc="http://creativecommons.org/ns#" xmlns:dc="http://purl.org/dc/elements/1.1/" xmlns:rdf="http://www.w3.org/1999/02/22-rdf-syntax-ns#">
   <cc:Work>
    <dc:type rdf:resource="http://purl.org/dc/dcmitype/StillImage"/>
    <dc:date>2024-07-04T12:09:54.576418</dc:date>
    <dc:format>image/svg+xml</dc:format>
    <dc:creator>
     <cc:Agent>
      <dc:title>Matplotlib v3.7.1, https://matplotlib.org/</dc:title>
     </cc:Agent>
    </dc:creator>
   </cc:Work>
  </rdf:RDF>
 </metadata>
 <defs>
  <style type="text/css">*{stroke-linejoin: round; stroke-linecap: butt}</style>
 </defs>
 <g id="figure_1">
  <g id="patch_1">
   <path d="m0 280.51h301.66v-280.51h-301.66v280.51z" fill="none"/>
  </g>
  <g id="axes_1">
   <g id="PatchCollection_1">
    <defs>
     <path id="m83200dc88b" d="m224.15-221.21 0.11019-0.029865 0.16063 0.02152 0.32278 0.11877 0.56365 0.30133 0.88632 0.60698 0.60712 0.50477 0.64202 0.64107 0.57503 0.70646 0.4309 0.64849 0.38414 0.70657 0.32736 0.74388 0.24244 0.68022 0.24331 0.86228 0.22292 1.0602 0.47196 3.4417 0.27891 1.4702 0.26281 0.85216 0.40765 0.87604 0.3177 0.49474 0.29274 0.38254 0.71265 0.77478 0.66324 0.60979 1.0084 0.81954 4.0044 2.9276 1.5139 1.1422 1.8542 1.4665 1.4968 1.2628 1.2036 1.0824 1.4469 1.3954 1.4221 1.4975 1.5151 1.7682 1.2925 1.6818 0.58645 0.82218 2.6478 4.0375 1.5332 2.257 0.66165 0.88936 1.0023 1.2301 0.71991 0.79485 0.95434 0.95516 1.3015 1.1622 1.2291 0.99098 1.3522 1.0067 4.9233 3.4538 0.85117 0.67178 0.86763 0.79387 0.55209 0.63318 0.51701 0.80169 0.3163 0.63812 0.75899 1.8858 1.0037 2.2798 0.70655 1.8569 0.33194 0.74444 0.40857 0.70537 0.51916 0.6398 0.96409 0.76989 1.1778 0.6204 1.3067 0.48562 1.4942 0.39496 1.3546 0.24374 0.81577 0.085096 0.44024-0.017636 0.07487 0.2881-0.13565 0.64766-0.29346 0.65059-0.40038 0.64201-0.64855 0.78763-0.64088 0.60471-0.46273 0.35997-0.60196 0.3932-0.96326 0.51129-2.6044 1.1071-0.96097 0.44244-1.4373 0.77014-0.81297 0.48412-1.5648 1.0001-1.9453 1.3611-1.1166 0.87185-1.2231 1.0862-1.0885 1.1444-0.96096 1.199-0.61274 0.85146-1.8965 2.7952-1.2307 1.6127-0.638 0.75718-1.3444 1.4796-2.1613 2.2111-5.3838 5.2487-1.1034 1.1778-0.83003 0.96397-0.93623 1.1754-0.77924 1.0552-1.1273 1.6564-1.9204 2.9527-0.71878 0.98807-0.68232 0.85261-0.81315 0.91751-0.61771 0.63373-0.73266 0.68226-1.1167 0.91582-0.74408 0.53954-1.1909 0.77074-1.1287 0.64811-1.8768 0.95137-4.9933 2.283-5.956 2.9505-0.95072 0.40511-1.1331 0.39167-0.69669 0.17235-0.52831 0.087174-0.81306 0.062362-0.55622-0.015244-0.56024-0.06468-0.80686-0.16479-1.654-0.47281-0.93282-0.20724-0.41122-0.047649-1.0747-0.008243-0.9011 0.10713-0.62551 0.15417-0.56336 0.19166-1.2909 0.59249-3.3492 1.948-1.1504 0.61546-0.96574 0.4592-1.254 0.52756-1.3654 0.51478-0.7583 0.21046-0.57316 0.091226-0.4531 0.007549-0.40043-0.044758-1.5386-0.39923-0.67657-0.097882-0.74299-0.044945-3.0142-0.058883-0.36939-0.035145-1.1623-0.21228-1.1552-0.31473-0.83175-0.27379-3.4993-1.3337-2.1728-0.73124-2.2919-0.63906-3.2919-0.81379-0.68213-0.1092-1.3574-0.11835-0.87218-0.015426-0.9545 0.049828-0.69351 0.1044-0.52385 0.14126-0.36125 0.14498-0.412 0.23664-0.58058 0.58024-0.23665 0.46219-0.15018 0.52437-0.096853 0.69006-0.035873 0.68357 0.01317 3.0788-0.08451 1.8074-0.49861 6.1861-0.19881 2.0388-0.18472 1.3834-0.36799 2.0365-0.32115 1.2986-0.28422 0.90574-0.20293 0.54029-0.3823 0.83026-0.43729 0.72882-0.44572 0.55572-0.33181 0.25088-0.10975 0.024534-0.11188-0.04264-0.024306 0.11554-0.22275 0.20851-0.85706 0.50147-1.1968 0.50908-0.8822 0.29725-7.3597 2.1095-6.3547 1.892-0.93524 0.24128-1.5995 0.34199-5.3554 0.85665-1.9921 0.37214-1.437 0.32829-2.4685 0.69365-3.1611 1.0841-2.6359 0.8619-3.5394 1.0676-2.268 0.59289-8.0277 1.9041-1.7429 0.47303-1.9907 0.69976-0.98709 0.41493-1.1153 0.5281-1.6975 0.92514-3.0603 1.8789-2.9313 1.8538-1.9808 1.307-1.3707 0.98396-1.4132 1.1296-1.2142 1.0946-0.99091 1.0436-0.93974 1.1485-0.8974 1.273-0.81356 1.3542-0.88082 1.661-1.0724 2.2696-0.84911 1.9481-0.89387 2.3089-1.3657 3.9025-2.0133 6.4061-0.40983 1.1808-0.2924 0.72777-0.42034 0.85768-0.4178 0.67036-0.46886 0.61159-0.90998 0.93701-0.80798 0.67716-0.92179 0.68606-2.5382 1.703-2.6463 1.6456-2.0315 1.1313-2.2297 1.0756-0.94715 0.40027-1.0668 0.40009-0.69805 0.21895-0.33988 0.080819-0.14325-9.77e-4 0.076336-0.18807-0.13934-0.39121-0.48366-0.79588-0.87192-1.3016-3.1495-4.3708-0.98912-1.5604-0.42433-0.77804-0.57738-1.2967-0.33557-1.0229-0.17504-0.73831-0.11852-0.74039-0.11768-1.641-0.055253-2.476-0.32737-7.6292-2.02e-4 -2.4897 0.043696-1.874-0.019919-1.484-0.057519-0.94434-0.15154-1.2427-0.31041-1.4198-0.38906-1.1821-0.48524-1.1146-0.32736-0.62744-0.61208-1.0213-2.1151-3.2757-0.93356-1.5311-1.0486-1.8329-0.9288-1.7562-0.80018-1.6921-0.78738-1.9027-2.4398-6.8479-0.17753-0.58192-0.27859-1.2019-0.2-1.2245-0.60876-4.4582-0.11586-1.5699-0.24143-4.4765-0.20408-2.286-0.20572-1.3511-0.30561-1.3346-0.40875-1.238-0.40327-0.91912-0.96713-1.7947-0.73437-1.2002-0.50169-0.71009-0.64022-0.81712-1.6331-1.8959-1.0645-1.1539-2.2885-2.3724-1.0316-1.1498-1.2853-1.5946-1.7882-2.4048-1.9214-2.85-2.5075-3.8709-0.85953-1.3942-1.9373-3.345-1.8161-3.2593-0.53034-1.114-0.27842-0.69908-0.24502-0.7777-0.17561-0.84061-0.28584-2.3909-0.15509-0.74308-0.23834-0.74483-0.30927-0.74696-1.1782-2.3814-0.34834-0.77377-0.39224-1.0501-0.67473-2.249-0.37851-1.0818-0.52394-1.12-0.61092-1.0107 0.029922-0.10416 0.023667-0.62786 0.064503-3.3638 0.045308-8.8218 0.071117-2.4058 0.084674-1.4198 0.2195-1.8447 0.18065-0.90854 0.2478-0.89805 0.32179-0.85987 0.48553-0.95838 0.29645-0.47156 0.39438-0.54692 0.44734-0.53777 0.74355-0.74343 0.42045-0.3493 0.57664-0.40496 0.94544-0.49226 0.58271-0.20331 0.74257-0.1849 1.908-0.36086 1.2308-0.31393 1.2926-0.47342 0.80033-0.39899 0.97241-0.63707 0.7771-0.68536 0.62851-0.71349 0.39012-0.53512 0.37555-0.59982 0.51032-0.978 0.37705-0.87051 0.39891-1.1164 0.36236-1.316 0.21897-1.075 0.23564-1.814 0.36942-6.0884 0.19996-1.6487 0.2051-1.1233 0.29498-1.1785 0.62007-1.8577 0.72958-1.7324 0.38131-0.80725 0.56022-1.097 0.82788-1.4461 0.71993-1.1014 0.48064-0.65772 0.62351-0.75559 0.55454-0.58012 0.6636-0.5728 0.92875-0.54228 0.35529-0.11728 0.41859-0.071822 1.1692 0.13452 1.2058 0.48951 2.5113 1.4452 1.3083 0.68612 1.4863 0.57746 0.86154 0.25078 1.0854 0.21211 0.57362 0.052508 0.94182-0.042166 0.76102-0.15658 0.52439-0.1589 1.3278-0.53952 1.1233-0.56177 1.6315-0.88871 1.0332-0.64172 0.75749-0.54898 1.0388-0.894 1.8793-1.905 0.76701-0.68712 0.50481-0.38467 1.8207-1.2522 2.7335-2.0563 2.848-2.0201 1.2071-1.0032 0.68426-0.73604 0.455-0.56366 0.66465-0.92875 0.6885-1.0917 0.80987-1.4325 1.7898-3.5575 0.93695-1.6859 0.46663-0.69412 0.36416-0.46677 0.54693-0.57706 0.38354-0.32001 0.53464-0.34652 0.36126-0.18543 0.6681-0.2723 0.99483-0.29588 1.6033-0.34058 0.85433-0.11467 0.52718-0.029288 0.93807 0.043251 0.93289 0.13804 2.2968 0.46047 1.4303 0.18034 1.2071 0.00149 1.3495-0.21476 1.3563-0.40529 1.361-0.53852 1.3629-0.621 1.394-0.69696 0.75422-0.42219 0.86621-0.54076 0.59981-0.41971 1.2685-1.0487 0.84864-0.87614 0.72236-0.95995 0.34088-0.60298 0.34843-0.88277 0.12321-0.47657 0.11313-0.66384 0.085676-1.0558 0.016944-3.4421-0.037304-1.5364-0.050658-0.73071-0.37227-2.9247-0.25978-1.4903-0.33825-1.4026-0.43557-1.2264-0.45541-0.85916-0.43559-0.55302-0.31156-0.1303 0.31118-0.26071 3.2419-3.3955 1.3914-1.3099 1.6865-1.368 1.0944-0.73635 0.63491-0.36815 1.1758-0.59021 0.83111-0.35931 1.7972-0.63716 0.76173-0.20281 1.7118-0.3239 1.2137-0.12931 1.0415-0.046966 4.2042 0.034094 1.8375 0.10347 0.82648 0.12341 0.83629 0.20543 0.9357 0.34183 0.80246 0.37955 1.0416 0.59593 0.72619 0.47592 2.069 1.5694 1.0752 0.878 0.80946 0.71604 1.5769 1.4858 1.3475 1.1882 1.1051 0.86341 1.3539 0.95415 2.8932 1.8385 1.2584 0.7184 0.93498 0.48004 1.0813 0.49459 0.74665 0.29973 0.7608 0.262 1.1694 0.31216 1.4423 0.22238 1.2731 0.028671 1.1265-0.12849 0.65739-0.15378 0.63775-0.20154 1.35-0.5638 1.2048-0.64173 1.285-0.81415 2.5998-1.8533 1.0293-0.66331 0.67177-0.34153 0.71179-0.24737 0.56616-0.08134 0.53707 0.056143 0.45286 0.18186 0.5865 0.42984 0.31181 0.31598 0.43408 0.54064 0.26718 0.3918 0.52914 0.90952 0.4735 0.94219 2.0189 4.5769 0.64157 1.2493 0.74846 1.23 0.85843 1.1791 0.6455 0.76901 0.72164 0.77762 1.9177 1.8528 1.9502 1.7407 1.5481 1.3048 1.4932 1.2037 1.628 1.2466 1.6508 1.1906 2.4354 1.6252 2.6515 1.6334 1.6226 0.9237 2.1207 1.1059 2.2254 1.0051 1.6127 0.60142 1.5428 0.45913 1.4038 0.31518 1.7789 0.26974 1.6059 0.1233 1.4399 0.01734 3.9418-0.054763 1.3523 0.015098 2.1035 0.091801 2.0341 0.17832 5.972 0.72431" stroke="#bdc660"/>
    </defs>
    <g clip-path="url(#pfeedfd0a9c)">
     <use y="280.512" fill="#bdc660" stroke="#bdc660" xlink:href="#m83200dc88b"/>
    </g>
   </g>
  </g>
 </g>
 <defs>
  <clipPath id="pfeedfd0a9c">
   <rect x="7.2" y="7.2" width="287.26" height="266.11"/>
  </clipPath>
 </defs>
</svg>
