<?xml version="1.0" encoding="UTF-8"?>
<!DOCTYPE svg  PUBLIC '-//W3C//DTD SVG 1.1//EN'  'http://www.w3.org/Graphics/SVG/1.1/DTD/svg11.dtd'>
<svg width="175.53pt" height="280.51pt" version="1.1" viewBox="0 0 175.53 280.51" xmlns="http://www.w3.org/2000/svg" xmlns:xlink="http://www.w3.org/1999/xlink">
 <metadata>
  <rdf:RDF xmlns:cc="http://creativecommons.org/ns#" xmlns:dc="http://purl.org/dc/elements/1.1/" xmlns:rdf="http://www.w3.org/1999/02/22-rdf-syntax-ns#">
   <cc:Work>
    <dc:type rdf:resource="http://purl.org/dc/dcmitype/StillImage"/>
    <dc:date>2024-07-04T12:09:58.017508</dc:date>
    <dc:format>image/svg+xml</dc:format>
    <dc:creator>
     <cc:Agent>
      <dc:title>Matplotlib v3.7.1, https://matplotlib.org/</dc:title>
     </cc:Agent>
    </dc:creator>
   </cc:Work>
  </rdf:RDF>
 </metadata>
 <defs>
  <style type="text/css">*{stroke-linejoin: round; stroke-linecap: butt}</style>
 </defs>
 <g id="figure_1">
  <g id="patch_1">
   <path d="m0 280.51h175.53v-280.51h-175.53v280.51z" fill="none"/>
  </g>
  <g id="axes_1">
   <g id="PatchCollection_1">
    <defs>
     <path id="mc0b27123a8" d="m149.9-175.25 0.028938 0.057784-0.017835 0.14962-0.15676 0.42466-0.42393 0.81797-0.23582 0.39409-0.64591 0.96127-1.462 1.9538-0.69418 0.988-1.0472 1.6386-0.62833 1.0789-0.36672 0.68904-0.25038 0.51707-0.32049 0.75281-0.27001 0.75478-0.17085 0.55216-0.60208 2.2309-0.32243 1.1126-0.26496 0.737-0.22003 0.48803-0.15479 0.2787-0.4113 0.58327-0.4382 0.47699-0.51586 0.47109-1.306 1.06-0.46783 0.40778-0.57841 0.5703-0.60276 0.69439-1.4721 2.1507-0.63963 0.99742-0.5993 1.0556-0.37919 0.75291-0.56466 1.2533-0.33868 0.81159-0.38169 0.99548-0.29002 0.87891-0.20526 0.76612-0.12366 0.59783-0.11844 0.91241-0.022665 0.79792 0.084746 0.81017 0.049599 0.27686 0.25842 1.0515 0.057562 0.32335 0.012363 0.28403-0.035397 0.30174-0.18481 0.51178-0.32093 0.37596-0.4311 0.26973-0.5404 0.17613-0.59612 0.16423-0.34685 0.13128-0.33932 0.16481-0.35534 0.22031-0.36703 0.30042-0.41106 0.49896-0.18669 0.35158-0.26598 0.81167-0.14853 0.80883-0.083827 0.71017-0.20821 2.4559-0.11019 0.91235-0.11315 0.65117-0.14646 0.5892-0.48145 1.3442-0.047478 0.22258-0.012415 0.25316 0.036606 0.22234 0.14216 0.34024 0.2403 0.32699 0.25346 0.22996 0.2851 0.17613 0.28909 0.10864 0.31639 0.047196 0.2411-0.013384 0.49789-0.16147 0.47163-0.29675 0.34689-0.28248 0.54796-0.53112 0.56512-0.64406 0.32741-0.41233 0.50013-0.6937 0.50716-0.78978 0.85681-1.4089 0.28566-0.38121 0.2485-0.24532 0.3181-0.19189 0.47409-0.082746 0.49072 0.10702 0.14474 0.065643 0.37389 0.22724 0.43735 0.32461 2.3222 1.8573 0.22271 0.15651 1.1779 0.72305 0.48873 0.33327 0.48744 0.37023 6.6034 5.3882 2.0337 1.7032 0.47275 0.35917 0.6109 0.36918 1.3457 0.68206 1.514 0.81038 1.1196 0.63255 0.57187 0.35511 0.98293 0.68015 0.64754 0.51331 0.34628 0.30352 0.46386 0.44316 0.44352 0.46459 0.42385 0.48384 0.40168 0.4997 0.69368 0.98548 0.30182 0.49574 0.39128 0.73392 0.24124 0.53428 0.20322 0.53648 0.21941 0.77726 0.12229 0.79788-4.41e-4 0.79146-0.15306 0.79325-0.21121 0.52991-0.27679 0.48878-0.17552 0.25483-0.40072 0.48579-1.012 1.0857-0.36392 0.46393-0.36032 0.67464-0.21691 0.71689-0.040715 0.24208-0.10879 1.26-0.086045 1.5427-0.070741 0.48729-0.16796 0.51369-0.30202 0.56908-0.5578 0.86774-0.37253 0.62926-0.28601 0.57776-0.21248 0.57154-0.15873 0.63938-0.31482 1.8068-0.28172 1.2679-0.27632 1.4438-0.29317 1.3137-0.18578 0.961-0.16008 1.0022-0.14861 1.1211-0.12369 1.1472-0.14481 1.9146-0.056189 1.5979 0.015704 1.6439 0.1044 1.8019 0.19523 1.857 0.2794 2.0438 0.095804 1.3155-0.003505 0.64533-0.032777 0.49744-0.068314 0.56-0.08978 0.51128-0.20572 0.85023-0.25095 0.76747-0.31031 0.70732-0.21413 0.38152-0.46532 0.67848-0.32942 0.41145-0.63222 0.71159-1.7042 1.7909-0.98218 1.0672-0.67559 0.78261-0.62306 0.81473-0.27521 0.42427-0.28444 0.53355-0.2864 0.79507-0.16061 0.80936-0.13211 1.7292-0.028151 0.60637 0.010309 0.88296 0.064914 0.92283 0.1848 1.429 0.29772 1.4978 0.35752 1.3277 0.35024 1.0755 0.9114 2.627 0.28318 0.90111 0.17068 0.62677 0.084802 0.43862 0.02763 0.33745-0.016624 0.30066-0.1129 0.43735-0.1513 0.33221-0.18016 0.30706-0.23591 0.3435-0.51409 0.65721-0.82282 0.98461-0.30143 0.33831-0.42362 0.42953-1.3505 1.1399-0.3119 0.35539-0.24029 0.39347-0.16657 0.46525-0.10037 0.49732-0.18147 1.5818-0.069836 0.40521-0.054642 0.19731-0.15693 0.3497-0.23496 0.29863-0.27708 0.22182-0.37459 0.2104-1.4782 0.65924-0.84447 0.47114-0.68295 0.44107-0.71022 0.5006-1.6393 1.2981-0.45008 0.33156-0.47399 0.30123-1.2098 0.65379-0.58648 0.36524-0.7991 0.5961-2.1977 1.8153-2.0391 1.4908-0.26398 0.22513-0.38062 0.38272-0.30302 0.39406-0.14945 0.24576-0.20042 0.41791-0.19892 0.60482-0.1279 0.62592-0.084672 0.80834-0.017337 0.88566 0.049661 0.92069 0.1168 0.88963-0.29121-0.33981-0.44574-0.85635-0.1128-0.13602-0.27784-0.23355-0.26886-0.43596-0.17697-0.16277-0.41828-0.17552 0.072313-0.090876-1.8e-4 -0.16763-0.049766-0.13723-0.14311-0.23424-0.15639-0.18942-0.32672-0.31594-0.60642-0.45534-0.36186-0.22496-0.78937-0.43424-3.5357-1.7681-1.0599-0.60893-0.74011-0.52257-0.6788-0.58888-0.69005-0.70934-0.60117-0.71372-0.43288-0.58586-0.41762-0.63771-0.42226-0.73662-0.42932-0.86814-0.48868-1.1331-0.2526-0.71713-0.064191-0.29155-0.023392-0.35755 0.028472-0.28639 0.10662-0.61557 0.009354-0.29548-0.069234-0.47036-0.18816-0.5604-0.27053-0.54422-0.41552-0.64509-0.32633-0.4151-0.65262-0.76559-0.45948-0.64458-0.49929-0.88953-0.88602-1.7693-1.0443-1.6597-0.32516-0.58792-0.16837-0.38451-0.13789-0.42834-0.40303-1.9586-0.30734-1.007-0.49275-1.1779-0.84582-1.7763-0.38182-0.87026-0.35032-0.96582-0.61143-2.1208-0.15304-0.37039-0.11166-0.14374-0.20334-0.095896-0.12439 0.010737-0.12716 0.064654-0.098075 0.089001-0.12533 0.1653-0.16606 0.31939-0.15389 0.47827-0.059051 0.35104-0.025336 0.52689 0.018599 0.75019 0.040769 0.65786 0.074656 0.62516 0.10974 0.54901 0.06627 0.22375 0.13702 0.34104 0.13894 0.26697 0.47873 0.76398 0.1619 0.29711 0.14921 0.33961 0.13261 0.40931 0.053772 0.33108 0.002661 0.13402-0.043667 0.2936-0.069359 0.18717-0.16811 0.28434-0.1665 0.20671-0.33002 0.32444-0.47463 0.36554-0.34629 0.20909-0.24773 0.12088-0.5395 0.19339-0.34582 0.073853-1.0033 0.15554-1.221 0.25164-0.57289 0.087577-0.56149-0.010114-0.57173-0.11144-0.55426-0.21893-0.50858-0.33735-0.24008-0.22779-0.27991-0.32913-0.29624-0.41669-0.90817-1.4862-0.34373-0.53405-0.34462-0.48058-0.28522-0.35158-0.36798-0.39557-0.228-0.21607-0.64156-0.5216-0.6397-0.44043-0.83003-0.51055-1.1051-0.62258-2.2424-1.2148-0.46954-0.22094-0.46487-0.1715-0.7062-0.15881-0.61628-0.076385-0.83281-0.06844-1.286-0.051682-1.2773 0.023181-3.804 0.21544-0.54098 0.014702-1.3155-0.013768-3.148 0.023699-1.6409-0.040068-1.217-0.062397-1.8637-0.15531-1.0598-0.13137-1.1135-0.18851-0.96136-0.22717-0.42718-0.12849-0.51766-0.18766-0.67606-0.33537-0.606-0.41763-0.52092-0.49302-0.41696-0.5652-0.29472-0.61084-0.22876-0.66521-0.46743-1.5119-0.46073-1.3189-0.23499-0.61766-0.53221-1.2645-1.2245-2.5672-0.7324-1.6045-0.32258-0.62192-0.71902-1.2723-0.31269-0.60408-0.28859-0.64861-0.1718-0.49051-0.15376-0.78253 0.002383-0.51917 0.15068-1.4085 0.013737-0.40859-0.016638-0.42192-0.10696-0.79174-0.2052-0.84357-0.15345-0.45813-0.23959-0.58478-0.19378-0.3956-0.27283-0.46392-0.26523-0.35811-0.29078-0.32425-0.4359-0.40965-0.45547-0.37287-0.79739-0.57253-1.9978-1.3125-0.57889-0.40493-1.2726-0.96553-1.8734-1.5066-0.60432-0.44338-0.52834-0.34872-1.6699-1.0121-1.5065-0.87809-3.7097-2.0547-0.94679-0.45479-2.5394-0.93144-0.829-0.39914-0.68508-0.48012-0.47374-0.59584-0.14524-0.38438-0.058673-0.29163-0.033612-0.39907 0.004418-0.47275 0.19953-2.1457 0.031472-0.69384-0.018276-0.71246-0.062791-0.6052-0.12895-0.68672-0.1726-0.6102-0.21158-0.55961-0.19462-0.41395-0.28138-0.48821-0.38271-0.52469-0.19317-0.21548-0.32618-0.29217-0.22863-0.15427-0.21769-0.11283-0.29109-0.10517-0.23341-0.050424-0.30435-0.025635-0.4464 0.03453-0.42427 0.099504-0.34739 0.1202-0.37755 0.16107-0.55856 0.27369-1.4737 0.80423-0.68628 0.4102-0.33816 0.22892-0.78194 0.62243-1.7079 1.5283-1.0941 0.85385-0.52659 0.36795-0.48878 0.31703-0.92802 0.52369-0.47911 0.22217-0.48865 0.18959-0.3528 0.11288-0.7725 0.15998-0.65474 0.005524-0.4708-0.10146-0.374-0.15883-0.33453-0.22304-0.28734-0.33104-0.055851-0.26897 0.034673-0.093563 0.2645-0.20435 0.98752-0.62839 1.259-0.73454 2.1133-1.1825 1.3351-0.78426 0.83297-0.53437 0.84993-0.59968 0.79076-0.62023 0.82999-0.72862 0.78572-0.77925 0.48582-0.53926 0.35865-0.43589 0.62203-0.88165 0.30238-0.55191 0.19675-0.51658 0.057684-0.66056-0.088704-0.28573-0.11643-0.18518-0.10864-0.12268-0.42522-0.31974-0.41402-0.21159-0.4751-0.18873-0.55334-0.17862-0.59552-0.16354-3.0503-0.73444-1.0843-0.3104-0.92246-0.31017-0.77692-0.3033-0.58445-0.25951-0.62238-0.32027-0.44247-0.27898-0.36697-0.29085-0.3106-0.30657-0.98221-1.2799-0.3536-0.39013-1.0734-1.0771-0.37682-0.40375-0.31993-0.38329-0.30542-0.43128-0.25247-0.46457-0.2206-0.73571-0.024221-0.28336 0.026715-0.53217 0.12944-0.68042 0.15245-0.53827 0.1871-0.54612 0.35419-0.88321 0.39446-0.86745 0.6099-1.1646 0.39002-0.59671 0.34621-0.4042 0.2173-0.18999 0.28834-0.18598 0.48311-0.20743 0.47401-0.14033 1.0627-0.21195 0.65107-0.093168 1.0207-0.089171 2.3508-0.073675 0.96986-0.068461 1.0199-0.12267 0.60494-0.11879 0.77861-0.2403 0.67835-0.28855 0.59887-0.31069 0.47029-0.27938 0.62934-0.42303 0.47725-0.36003 0.4587-0.38101 0.75029-0.71134 0.50892-0.56331 0.31541-0.39373 0.41446-0.5871 0.36477-0.61022 0.23714-0.47477 0.2923-0.73296 0.29921-0.91718 0.7369-3.2453 0.24859-0.80889 0.19534-0.52312 0.32588-0.7378 0.43102-0.81883 0.30725-0.52345 0.51209-0.8115 0.80874-1.203 1.1665-1.6978 0.82943-1.132 0.51206-0.59684 0.66455-0.63689 0.41474-0.32211 0.68351-0.42696 0.7599-0.36432 1.035-0.35051 1.2737-0.32157 2.4389-0.53353 1.0027-0.26819 0.58777-0.20476 0.49984-0.20199 0.9703-0.45335 0.51595-0.28503 0.50569-0.31484 0.58165-0.40778 0.64514-0.49055 0.79478-0.67957 1.3562-1.326 0.6809-0.6073 1.1539-0.89361 1.3973-0.99448 0.53601-0.34854 0.61525-0.36523 1.0123-0.52471 1.0594-0.4639 1.3023-0.50409 1.1222-0.36915 1.1874-0.32447 1.0388-0.21046 0.91629-0.12143 1.174-0.089107 3.4745-0.17593 3.8616-0.14991 1.922-0.10224 1.0305-0.083822 0.90874-0.13915 0.54245-0.12069 0.50372-0.14095 0.53116-0.1858 0.44475-0.19339 0.49413-0.26425 0.40484-0.26961 0.42647-0.36036 0.36564-0.42337 0.18717-0.34071 0.047417-0.15537 0.021504-0.1817-0.012728-0.16902-0.038794-0.15016-0.043243-0.10514-0.17434-0.26869-0.18801-0.19824-0.41354-0.32436-0.45067-0.29094-2.8593-1.6372-0.40094-0.26175-0.69991-0.52107-0.46771-0.40386-0.39663-0.38726-0.338-0.36865-1.2296-1.5272-0.58809-0.68275-0.81023-0.82078-2.2595-2.1149-0.72676-0.73882-0.72164-0.80532-0.74901-0.92398-0.88697-1.2179-0.45807-0.67252-0.55877-0.87451-0.36555-0.61699-0.34616-0.62657-0.59063-1.2003-0.36596-0.87069-0.34461-0.98185-0.1832-0.64256-0.14984-0.64976-0.16983-1.082-0.060107-0.69631-0.026992-0.69976 0.003808-0.79403 0.033236-0.79548 0.14316-1.6713 0.12834-0.93703 0.19448-1.0237 0.19824-0.79787 0.3062-1.0082 0.23993-0.69801 0.928-2.5579 0.19952-0.61652 0.23973-0.85689 0.1245-0.54889 0.12649-0.70869 0.09179-0.71618 0.075955-1.0524 0.018172-0.87613-0.041747-1.4936-0.11407-1.3334-0.15366-1.1377-0.58264-3.6314-0.19457-1.6636-0.084562-1.2289-0.059421-3.3494-0.050172-0.90689-0.082544-0.73514-0.12963-0.67749-0.096402-0.35314-0.13686-0.38986-0.12194-0.27812-0.20019-0.36386-0.22215-0.30466-0.20365-0.20118-0.15379-0.047828 0.1043-0.10603 0.096526-0.34765 0.087934-0.56386 0.38654-3.638 0.12729-0.78519 0.14286-0.6499 0.2157-0.73992 0.22502-0.60015 0.26516-0.57166 0.29228-0.5169 0.3367-0.49912 0.3563-0.44787 0.36202-0.38754 0.55025-0.49025 0.69203-0.50148 1.7443-1.1033 1.1039-0.74076 0.63954-0.47908 0.58895-0.50928 0.35248-0.35273 0.5121-0.61321 0.29616-0.45313 0.2452-0.48075 0.20112-0.52225 0.17315-0.67111 0.079733-0.58197 0.027155-0.61932-0.013856-0.71508-0.065213-0.96826-0.10054-0.82904-0.24597-1.4851-0.042851-0.46798 0.007955-0.4317 0.043263-0.2917 0.067891-0.24751 0.08839-0.22027 0.15294-0.2801 0.17299-0.24637 0.29809-0.34512 0.55185-0.51543 0.46834-0.36918 0.55173-0.39089 1.5224-0.9992 1.3746-0.81838 0.75329-0.3956 0.72621-0.34019 0.8712-0.34872 0.57442-0.18871 0.44908-0.1208 0.47804-0.099733 0.44905-0.062496 0.5526-0.025768 0.74595 0.065068 0.74208 0.14764 0.56404 0.17442 0.34455 0.13096 1.7337 0.79355 0.85628 0.3464 0.49514 0.15421 1.7217 0.43468 1.4073 0.39969 0.42885 0.088611 0.22348 0.024404 0.34062-0.00209 0.25494-0.037573 0.21404-0.058033 0.24318-0.097655 0.28082-0.15815 0.22578-0.16535 0.20205-0.17967 0.31722-0.34822 0.42555-0.60236 0.21298-0.35944 0.27314-0.53046 0.22258-0.5034 0.68264-1.6959 0.86919-1.9877 0.25287-0.63524 0.14482-0.42322 0.15744-0.557 0.13788-0.72464 0.053832-0.64032-0.011332-0.5436-0.072108-0.55007-0.10879-0.45555-0.19397-0.5637-0.23205-0.53714-0.96012-1.9168-0.11066-0.28854-0.031516-0.13944 0.023544-0.06796 0.024853-0.23206 0.099983-0.34621 0.15666-0.41853 0.22056-0.47401 0.28686-0.45578 0.20289-0.23661 0.24998-0.21179 0.18995-0.10833 0.22694-0.079801 0.23415-0.039556 0.376-0.005549 0.4943 0.075938 0.35089 0.12914 0.19658 0.12678 0.25409 0.32249 0.12198 0.39378 0.014865 0.20138-0.022406 0.65576 0.013255 0.26714 0.10232 0.46033 0.22195 0.45933 0.24615 0.31689 0.38664 0.37164 1.2287 0.95681 0.50829 0.48745 0.19424 0.24906 0.14344 0.22825 0.27996 0.59272 0.65684 1.899 0.20142 0.53022 0.26204 0.60406 0.33586 0.64109 0.48373 0.74446 0.37059 0.50005 0.94163 1.1588 1.9579 2.3012 0.75626 0.84886 0.76536 0.81285 0.77475 0.75532 0.83576 0.71017 0.54001 0.38402 0.42524 0.25424 0.42314 0.20735 0.36624 0.13569 0.66532 0.13247 0.68179 0.010715 0.68209-0.094025 0.6412-0.17685 0.61253-0.2497 0.56888-0.31321 0.55346-0.40875 0.45542-0.47227 0.34429-0.57458 0.18547-0.79195 0.00347-0.67704-0.1112-0.86103-0.29911-1.585-0.042159-0.60657 0.057658-0.43208 0.15721-0.37271 0.11962-0.17044 0.12804-0.13826 0.301-0.2246 0.33581-0.15555 0.44162-0.12009 0.40801-0.04779 0.2676-2.1e-5 0.35528 0.035234 0.47798 0.092351 1.2146 0.28958 0.75311 0.11672 0.49228 0.023127 0.41676-0.032106 0.40981-0.10386 0.28286-0.13817 0.18813-0.13938 0.35684-0.45117 0.1664-0.36702 0.12185-0.40998 0.083054-0.42846 0.20187-2.0048 0.12245-0.66284 0.10976-0.36328 0.18832-0.41496 0.36381-0.49338 0.36213-0.33447 0.48735-0.32962 0.38235-0.19047 0.53744-0.18172 0.57043-0.078374 0.5112 0.046829 0.62716 0.2352 0.60398 0.39617 0.58039 0.51428 0.55578 0.59652 1.4287 1.7996 0.7457 0.78854 2.5623 2.348 0.82018 0.86014 0.50595 0.61878 0.85666 1.1943 0.91783 1.4193 0.6282 1.1274 1.0804 2.1358 0.36974 0.66526 0.51012 0.85385 0.64913 0.98535 0.79838 1.1449 0.47509 0.62397 0.57688 0.67982 0.40391 0.41692 0.29384 0.26859 0.31165 0.25097 0.4259 0.29085 0.42387 0.24313 0.31153 0.14688 1.4868 0.54851 0.55773 0.25842 0.43472 0.3054 0.20832 0.20799 0.22748 0.29628 0.20019 0.34744 0.15812 0.39727 0.094171 0.38241 0.052192 0.39949 0.016534 0.37623-0.011068 0.4943-0.13488 1.6154-0.039047 0.72214 0.00227 0.52768 0.053725 0.54313 0.089911 0.45874 0.17904 0.64596 0.86571 2.5329 0.27591 0.95434 0.08658 0.4089 0.059783 0.47694 0.003368 0.42794-0.10734 0.63925-0.1939 0.46882-0.30954 0.48475-0.4758 0.54301-0.43804 0.39922-0.64691 0.49144-0.84175 0.54674-1.1568 0.71121-0.79708 0.54618-0.66059 0.52128-0.25013 0.229-0.47208 0.51399-0.19112 0.25244-0.32928 0.53281-0.17716 0.37266-0.12348 0.32246-0.10516 0.34612-0.099642 0.47616-0.042865 0.36927-0.01544 0.52079 0.060703 0.6544 0.12879 0.55851 0.20536 0.57196 0.30798 0.63523 0.45464 0.764 0.42176 0.6194 0.62023 0.84409 1.1911 1.5339 0.48618 0.70533 0.26311 0.44869 0.23186 0.45156 0.19127 0.42323 0.34185 0.86474 0.79654 2.331 0.70604 1.9846 0.2031 0.69412 0.117 0.52646 0.11798 0.9319 0.0178 0.83636-0.061632 0.85792-0.12618 0.67196-0.16766 0.5304-0.12366 0.30403-0.31172 0.60163-0.36864 0.56547-0.42413 0.55453-0.71142 0.80866-0.78152 0.79952-0.6645 0.64524-5.7865 5.4423-1.0766 1.0638-0.7277 0.75449-0.73324 0.82068-0.60076 0.76077-0.55132 0.84107-0.33001 0.67431-0.18171 0.63543-0.021889 0.38654 0.06901 0.35838 0.18312 0.34568 0.28492 0.31527 0.54827 0.40767 0.5341 0.29596 0.5359 0.2409 0.55332 0.20484 0.49412 0.1505 0.55983 0.13944 0.70232 0.1397 1.8317 0.30568 0.72259 0.13956 0.63499 0.14859 0.6172 0.17649 0.6308 0.22091 0.85115 0.38294 0.57787 0.37404 0.17416 0.23127 0.004138 0.047268-0.045925 0.092262" stroke="#bdc660"/>
    </defs>
    <g clip-path="url(#p435ab90ad8)">
     <use y="280.512" fill="#bdc660" stroke="#bdc660" xlink:href="#mc0b27123a8"/>
    </g>
   </g>
  </g>
 </g>
 <defs>
  <clipPath id="p435ab90ad8">
   <rect x="7.2" y="7.2" width="161.13" height="266.11"/>
  </clipPath>
 </defs>
</svg>
