<?xml version="1.0" encoding="UTF-8"?>
<!DOCTYPE svg  PUBLIC '-//W3C//DTD SVG 1.1//EN'  'http://www.w3.org/Graphics/SVG/1.1/DTD/svg11.dtd'>
<svg width="291.35pt" height="280.51pt" version="1.1" viewBox="0 0 291.35 280.51" xmlns="http://www.w3.org/2000/svg" xmlns:xlink="http://www.w3.org/1999/xlink">
 <metadata>
  <rdf:RDF xmlns:cc="http://creativecommons.org/ns#" xmlns:dc="http://purl.org/dc/elements/1.1/" xmlns:rdf="http://www.w3.org/1999/02/22-rdf-syntax-ns#">
   <cc:Work>
    <dc:type rdf:resource="http://purl.org/dc/dcmitype/StillImage"/>
    <dc:date>2024-07-04T12:10:08.757834</dc:date>
    <dc:format>image/svg+xml</dc:format>
    <dc:creator>
     <cc:Agent>
      <dc:title>Matplotlib v3.7.1, https://matplotlib.org/</dc:title>
     </cc:Agent>
    </dc:creator>
   </cc:Work>
  </rdf:RDF>
 </metadata>
 <defs>
  <style type="text/css">*{stroke-linejoin: round; stroke-linecap: butt}</style>
 </defs>
 <g id="figure_1">
  <g id="patch_1">
   <path d="m0 280.51h291.35v-280.51h-291.35v280.51z" fill="none"/>
  </g>
  <g id="axes_1">
   <g id="PatchCollection_1">
    <defs>
     <path id="ma7bde40a8c" d="m265.4-250.92 2.3026 2.3728 0.84938 0.94634 0.81206 0.97974 0.73166 0.98927 0.5842 0.92756 0.45686 0.90138 0.30552 0.85614 0.1235 0.79196-0.09808 0.70769-0.25639 0.49229-0.38681 0.44681-0.4209 0.37261-2.227 1.6291-0.65251 0.51364-0.55822 0.5019-0.44904 0.47822-0.55285 0.77385-0.36053 0.84524-0.12858 0.95338 0.073776 1.0162 0.22023 1.0611 0.32463 1.0928 0.39755 1.1149 0.44686 1.1302 2.4399 5.7552 0.43924 1.1598 0.38569 1.1607 0.3067 1.1607 0.19354 1.1596 0.03455 1.1566-0.15084 1.0918-0.30539 1.0895-0.42789 1.0889-0.52693 1.0887-0.60974 1.0871-0.68225 1.0819-0.74922 1.0698-0.81397 1.0467-0.87762 1.0073-0.96103 0.97655-0.98384 0.90339-0.953 0.80902-1.6955 1.3383-0.23425 0.33925-0.68131 0.8471-7.0318 8.5689-3.653 4.5359-2.2644 2.9501-1.0514 1.4599-0.97527 1.4553-0.87432 1.4555-0.73948 1.4613-0.55919 1.4734-0.31899 1.4926-0.02794 1.5553 0.22231 1.5696 0.41129 1.5702 0.5583 1.5562 0.67938 1.5259 0.78813 1.4755 0.68637 1.1004 0.74101 1.0486 0.78832 0.98762 0.77069 0.85096 0.80785 0.77337 0.84702 0.6782 0.85287 0.54126 0.89664 0.41158 0.92701 0.26313 0.67518 0.11392 0.67278 0.068117 2.8115 0.10737 1.91 0.18213 1.3995 0.22923 1.3643 0.30411 1.2971 0.3786 1.1919 0.45777 1.0406 0.5473 0.83196 0.65363 0.55192 0.78411 0.21889 0.95533-0.061662 1.0825-0.25582 1.1752-0.37742 1.2403-0.8739 2.5891-0.38452 1.3134-0.22582 1.0329-0.16609 1.1826-0.065645 1.1217 0.027315 1.0228 0.062502 0.76853 0.33376 2.8982 0.10895 1.3718-0.02058 1.2565-0.23086 1.0796-0.38562 0.68881-0.5467 0.49422-0.67979 0.25823-0.99823-0.048038-1.1207-0.37618-1.2026-0.6077-1.2523-0.76132-3.7663-2.5524-1.2034-0.72324-1.202-0.54203-1.2093-0.26424-1.1251 0.071721-0.8392 0.22648-0.62317 0.24626-0.75116 0.37092-0.63774 0.36915-0.95807 0.63137-1.2828 0.95109-0.82891 0.66502-1.2371 1.0637-1.4805 1.395-1.3659 1.4054-3.2926 3.5489-0.98421 0.96897-2.2389 2.0677-0.92194 0.98752-0.93232 1.1264-0.9509 1.2584-1.1302 1.6019-2.875 4.2625-0.89374 1.2052-0.93952 1.1788-0.97587 1.1569-2.0317 2.262-5.0796 5.4002-1.0972 1.2422-1.049 1.2679-0.98087 1.3037-0.84299 1.2598-0.90852 1.5229-0.64304 1.1956-0.5982 1.1984-1.3079 2.8307-0.59504 1.1576-0.65145 1.0751-0.71911 0.9647-0.78068 0.83614-0.80156 0.78568-1.7836 1.8647-0.5132 0.58946-0.65006 0.91263-0.56355 0.97853-0.34047 0.69906-0.27907 0.7228-0.22007 0.85925-0.17272 1.1327-0.49152 5.3394-0.076862 1.2658 8.19e-4 0.87187 0.056212 1.1573 0.090329 0.93868 0.14332 0.97797 0.18866 0.90943 0.21052 0.77094 0.27389 0.7805 0.32961 0.74256 0.19757 0.37257 0.55978 0.89884 1.6764 2.3401 0.79365 1.2007 0.43458 0.74268 0.79631 1.5683 0.77274 1.7911 0.38598 0.99151 0.55179 1.5321 0.64284 1.9722 0.46307 1.5518 0.39634 1.4594 0.385 1.5683 0.29742 1.3502 0.41876 2.3169 0.11845 0.88846 0.12622 1.4386 0.021236 1.4123-0.088925 1.1738-0.21752 1.1398-0.24845 0.78748-0.47421 1.0862-0.43594 0.79226-0.49447 0.77583-0.58071 0.80791-0.78712 0.97479-0.52046 0.58873-0.84454 0.88354-0.97066 0.93017-1.2605 1.1201-1.7328 1.4573-1.945 1.5885-2.9539 2.3546-4.5877 3.562-6.3859 4.8103-0.30574 0.26364-0.55962-0.35105-1.809-1.2695-4.9007-3.6237-1.0312-0.67428-0.46106-0.25421-0.44948-0.2051-0.43659-0.14496-0.56202-0.074194-0.53828 0.086437-0.52467 0.20298-1.5123 0.78895-0.48556 0.16324-0.4752 0.027981-0.46764-0.14984-0.4589-0.29568-0.45317-0.39734-1.8017-1.9261-0.45837-0.4106-0.46645-0.31153-0.4778-0.16489-0.3705 6.18e-4 -0.37117 0.10173-0.36365 0.1898-0.46683 0.36823-1.5172 1.4705-0.60053 0.51121-1.3228 1.0286-1.4399 1.0297-1.5012 1.0098-2.0482 1.2809-0.98677 0.54028-0.6819-1.5101-0.99947-1.965-1.5753-2.8596-1.5965-2.7479-0.9441-1.5278-0.44766-0.63517-0.22677-0.271-0.83308-0.71633-0.93055-0.42615-0.97075-0.086398-0.54877 0.1188-0.49866 0.19351-0.49941 0.2481-1.5997 0.91142-0.79867 0.42131-1.0073 0.43582-0.6961 0.21762-0.71926 0.14032-0.94444 0.04889-0.96942-0.078353-0.98354-0.1825-1.4269-0.40975-1.4068-0.53951-1.292-0.60167-1.2137-0.66975-0.87371-0.56109-0.63017-0.45166-0.5702-0.47921-0.74501-0.85477-0.50475-0.96299-0.23263-1.0258-0.052976-0.82518 0.041315-1.5518 0.20496-2.1385 0.086362-1.2327 0.016542-1.2391-0.063847-1.0883-0.26346-2.7699-0.026025-1.055 0.13228-1.761 0.009987-0.48871-0.022468-0.43026-0.060392-0.44094-0.1099-0.46782-0.38465-0.95478-0.58191-0.87045-0.8516-0.81812-1.006-0.67782-0.71973-0.3704-1.236-0.42489-1.3393-0.2827-1.3869-0.19626-2.2518-0.2521-1.2834-0.11242-0.72681-0.016672-0.74662 0.0522-0.54722 0.081579-0.74284 0.15936-0.87595 0.227-0.86362 0.18606-0.70034 0.064902-0.70996-0.041571-0.82228-0.20205-0.77328-0.31086-1.1189-0.56617-1.6366-0.87511-3.6824-1.896-1.8208-0.99813-3.2857-1.8952-7.1859-4.3875-2.2302-1.2742-1.0108-0.51317-0.83288-0.36834-0.78962-0.28318-0.57666-0.14862-0.5395-0.073458-0.5227 0.019602-0.44532 0.12814-0.54783 0.38416-0.37212 0.43957-0.3403 0.53861-0.50046 1.0022-0.43324 1.01-1.4993 3.7816-0.50482 1.1371-0.33536 0.66965-0.55832 0.914-0.57972 0.65663-0.58194 0.3504-0.36105 0.029514-0.23411-0.080193-0.23141-0.19152-0.27642-0.44031-0.24435-0.69424-0.12935-0.56974-0.10083-0.63345-0.11548-1.1802-0.24023-3.5344-0.2725-2.5737-0.26439-1.823-0.15605-0.88298-0.29511-1.3189-0.17091-0.59113-0.54275-1.4196-0.68004-1.3209-0.78721-1.2036-0.87247-1.0576-0.94294-0.87065-1.0048-0.62782-1.0636-0.3111-1.1025 0.05873-1.1444 0.3492-1.1729 0.54929-1.1904 0.67246-2.3975 1.4451-1.1907 0.64308-1.1743 0.49779-0.96881 0.24816-0.94059 0.035275-1.0345-0.27205-0.98167-0.55824-0.92488-0.78427-0.62293-0.66582-0.9343-1.1378-0.93103-1.2491-1.863-2.7067-2.8271-4.288-1.9301-2.8689-0.98639-1.4097-3.9036-5.3029-0.81503-1.1649-0.73288-1.1488-0.6167-1.1335-0.77862-1.7944-0.42607-0.87525-0.68987-1.0644-0.8575-1.0262-0.99798-0.97638-1.1165-0.90852-1.2169-0.81488-1.3013-0.68655-1.3695-0.51471-1.4178-0.29404-1.1297-0.057182-0.53752 0.017513-0.91102 0.081839-1.4047 0.23306-1.8164 0.4352-1.3455-2.7062-0.61989-1.4126-0.52972-1.4932-0.35448-1.5233-0.10598-0.97788-0.025324-0.63822 0.011423-0.88638 0.072651-1.2831 0.28425-4.0555 0.066674-0.79788 0.10401-0.78267 0.29945-1.3066 0.43257-1.2274 0.54057-1.1179 0.63155-0.97149 0.37316-0.44582 0.6852-0.60591 0.31758-0.1936 0.43154-0.17873 0.74679-0.11247 0.80721 0.044677 4.4994 0.71576 0.73856 0.092921 0.67631 0.037851 1.0101-0.028005 1.3098-0.17872 0.88268-0.20992 0.63213-0.19334 0.72375-0.26731 0.50352-0.21769 0.79426-0.40109 0.69277-0.41625 0.73646-0.53247 0.75198-0.69355 0.74184-1.0132 0.31084-0.77473 0.11954-1.1268-0.16115-1.2101-0.37498-1.2712-0.53765-1.3151-0.66206-1.3456-0.81346-1.4617-0.89466-1.4786-1.9569-2.993-1.0401-1.51-2.1356-2.9879-2.2385-3.0277-2.3361-3.066-3.6484-4.5801-4.6277-5.5544 0.55948-0.21508 1.1713-0.37517 2.9124-0.85913 2.1268-0.56227 1.8709-0.4245 0.84768-0.16168 1.5768-0.22745 0.85598-0.066672 2.2967-0.038779 0.78122-0.096475 0.91903-0.25 0.64938-0.25766 1.0934-0.55648 1.3368-0.84395 1.5281-1.1211 1.8578-1.4685 1.6728-1.2399 1.1254-0.72597 0.97033-0.56495 2.0345-1.0577 1.2742-0.58591 1.2495-0.5202 1.0327-0.38997 1.4464-0.48165 0.94318-0.26951 0.86105-0.21176 0.99114-0.19941 0.85153-0.13148 1.4177-0.13926 1.1362-0.04941 2.3143 0.020842 4.9281 0.27841 2.9721 0.11387 2.0718-0.008949 1.0186-0.042073 1.5015-0.11835 2.2477-0.32172 2.1202-0.41589 1.1684-0.27407 1.2674-0.33915 1.6018-0.50337 1.4242-0.52852 1.2464-0.5338 1.562-0.77467 1.4221-0.81275 1.3277-0.84642 1.5907-1.0992 7.082-5.1904 1.2221-0.84853 0.27332-0.12875 1.5835-0.68268 2.6488-1.0247 2.8551-0.99756 2.7916-0.8765 1.4093-0.39932 2.6636-0.66071 2.6452-0.54056 3.5412-0.64373 2.6982-0.53052 2.1439-0.49823 1.1168-0.29183 2.6944-0.78581 1.5995-0.50924 8.6162-2.9019 2.6107-0.79611 1.408-0.39352 2.5624-0.63553 1.9829-0.41504 2.4074-0.40482 3.6995-0.49404 1.4349-0.2351 1.1481-0.25534 0.94665-0.2688 1.0502-0.39148 0.52587-0.26206 0.47769-0.31202 0.31856-0.27995 0.34211-0.44209 0.31834-0.9296 0.057423-1.0741-0.20824-2.3365-0.054538-1.1487 0.024348-0.51752 0.13136-0.89635 0.30559-0.7857 0.41639-0.51561 0.55916-0.40379 0.68002-0.27836 1.1717-0.16839 1.3338 0.058268 1.4513 0.22237 1.5354 0.33777 1.595 0.41495 4.9899 1.4227 1.7023 0.45316 1.7145 0.4018 1.7251 0.32086 1.4739 0.18798 1.4761 0.11028 1.4729 0.034627 1.4643-0.043924 1.4493-0.13062 1.6945-0.27691 1.658-0.3897 1.6127-0.48396 1.4147-0.51805 1.3202-0.60337 1.2348-0.71543 1.1245-0.84566 0.36973-0.33769 0.72036-0.74923 1.0537-1.2429 5.4487-6.6086 4.2447-4.9451 0.77884-0.95363 0.71626-0.9906 0.59686-0.99922 0.49139-1.0617 0.30537-0.89212 0.23766-0.92956 0.18545-0.98496 0.13685-1.0111 0.1599-1.985 0.19169-5.9749 0.067257-0.88047 0.085504-0.21977 0.1035 0.2865 0.12903 0.12058 0.089092 0.055483 0.33298 0.11284 0.41446 0.014121 0.48175-0.10322 0.53461-0.2114 1.0076-0.5589 1.0869-0.73742 3.4544-2.6478 1.1701-0.87066 1.1719-0.79974 1.1749-0.68924 0.81525-0.39024 0.81316-0.30743 1.1152-0.26975 1.0843-0.05803 1.0707 0.17649 1.039 0.32702 1.0255 0.37153 0.80684 0.25748 1.0822 0.20127 0.74075 0.003962 0.76067-0.091146 0.62344-0.12983 0.63064-0.1707 1.5493-0.53738 2.6325-1.068 0.88048-0.32191 0.93299-0.26998 1.0856-0.1682 0.92805 0.024591 0.91528 0.18555 1 0.39223 0.97364 0.54854 0.95516 0.66609 0.94341 0.75286 0.93746 0.81511 1.448 1.3437 1.6271 1.5947 2.5561 2.603 1.6053 1.5176 1.2376 1.0126 0.67468 0.47472 0.89332 0.52644 0.84883 0.37234 1.0915 0.25438 0.50806 0.015148 0.3308-0.029927 0.63618-0.14158 0.71829-0.28348 0.51018-0.27754 0.48643-0.32191 0.46329-0.36013 0.62114-0.58012 0.31084-0.35624 0.12376-0.171 0.11412-0.28299" stroke="#bdc660"/>
    </defs>
    <g clip-path="url(#pbfabaa7412)">
     <use y="280.512" fill="#bdc660" stroke="#bdc660" xlink:href="#ma7bde40a8c"/>
    </g>
   </g>
  </g>
 </g>
 <defs>
  <clipPath id="pbfabaa7412">
   <rect x="7.2" y="7.2" width="276.95" height="266.11"/>
  </clipPath>
 </defs>
</svg>
