<?xml version="1.0" encoding="UTF-8"?>
<!DOCTYPE svg  PUBLIC '-//W3C//DTD SVG 1.1//EN'  'http://www.w3.org/Graphics/SVG/1.1/DTD/svg11.dtd'>
<svg width="292.8pt" height="280.51pt" version="1.1" viewBox="0 0 292.8 280.51" xmlns="http://www.w3.org/2000/svg" xmlns:xlink="http://www.w3.org/1999/xlink">
 <metadata>
  <rdf:RDF xmlns:cc="http://creativecommons.org/ns#" xmlns:dc="http://purl.org/dc/elements/1.1/" xmlns:rdf="http://www.w3.org/1999/02/22-rdf-syntax-ns#">
   <cc:Work>
    <dc:type rdf:resource="http://purl.org/dc/dcmitype/StillImage"/>
    <dc:date>2024-07-04T12:10:04.566605</dc:date>
    <dc:format>image/svg+xml</dc:format>
    <dc:creator>
     <cc:Agent>
      <dc:title>Matplotlib v3.7.1, https://matplotlib.org/</dc:title>
     </cc:Agent>
    </dc:creator>
   </cc:Work>
  </rdf:RDF>
 </metadata>
 <defs>
  <style type="text/css">*{stroke-linejoin: round; stroke-linecap: butt}</style>
 </defs>
 <g id="figure_1">
  <g id="patch_1">
   <path d="m0 280.51h292.8v-280.51h-292.8v280.51z" fill="none"/>
  </g>
  <g id="axes_1">
   <g id="PatchCollection_1">
    <defs>
     <path id="ma935740402" d="m231.91-222.4 0.17442 0.23131 0.4239 0.44359 1.1535 1.1145 1.2943 1.1997 1.3999 1.2225 1.0779 0.87398 1.0778 0.81731 1.0882 0.75428 1.6235 1.0415 1.1 0.7743 0.99545 0.80646 0.96666 0.91802 0.67061 0.79699 0.57606 0.81361 0.32865 0.51324 0.73253 1.2825 0.92295 1.8026 0.50976 0.92656 0.54733 0.88985 1.6581 2.5113 0.77954 1.0657 1.6293 1.9684 0.21658 0.32498-0.4411 0.090759-0.77389 0.50895-0.87277 0.83066-0.64783 0.84782-0.56406 0.97557-0.45932 1.0666-0.33441 1.111-0.19962 1.1489-0.052866 1.1975 0.094706 1.3279 0.23856 1.377 0.19852 0.81897 0.23366 0.81421 0.33234 1.0019 0.47592 1.2483 0.35712 0.8507 0.99126 2.1612 0.68064 1.3811 0.71371 1.3719 1.3195 2.3308 2.7354 4.4905 0.55119 0.95313 0.42669 0.8003 0.56134 1.2397 0.24879 0.71211 0.16754 0.64081 0.078346 0.41765 0.088083 0.94156 0.006458 0.56312-0.055474 2.3361 0.063236 2.8623-0.013447 1.0111-0.073939 1.1073-0.086603 0.65434-0.20845 0.99813-0.33143 1.1657-1.6171 4.7139-0.45194 1.4925-0.15594 0.61885-0.18294 1.0309-0.057849 0.95021 0.018466 0.59624 0.068023 0.67726 0.11994 0.72931 0.16498 0.75134 0.59949 2.091 1.3696 4.3546 1.0564 3.7267 0.3772 1.1569 0.2651 0.69011 0.29648 0.65937 0.61827 1.0598 0.55738 0.67922 0.8736 0.74504 1.0132 0.63423 0.81252 0.42411 3.0819 1.4755 0.96978 0.54513 0.82496 0.54373 0.78775 0.60914 0.68552 0.61506 0.50435 0.51248 0.74038 0.86098 0.39388 0.52115 0.40342 0.60324 0.2103 0.37676 0.17354 0.40118 0.072597 0.24125 0.050609 0.29789-7.71e-4 0.37705-0.058214 0.35575-0.07136 0.2542-0.18032 0.44238-0.25412 0.44779-0.37324 0.50669-0.5956 0.63034-0.57987 0.5005-0.8733 0.64591-0.60626 0.40584-3.9906 2.4982-1.8418 1.1985-1.1599 0.79852-1.1555 0.87796-0.94331 0.84765-0.52177 0.57094-0.44704 0.60559-0.16439 0.27091-0.21158 0.41544-0.1977 0.50169-0.21364 0.83407-0.076417 0.57138-0.02836 0.51555 0.011383 0.7229 0.045132 0.60468 0.20607 1.5209 0.34206 1.7909 0.36395 1.4629 0.64501 2.1098 0.25949 1.0344 0.1426 0.99988 0.013373 0.98847-0.082719 0.73928-0.15906 0.79198-0.71028 2.6268-0.14906 0.74095-0.31224 1.84-0.12457 0.57522-0.32194 1.1016-0.30241 0.76272-0.47205 0.90545-0.35665 0.5338-0.28064 0.35406-0.39822 0.44062-0.57809 0.56326-0.90832 0.77754-2.8887 2.1918-2.4391 1.9481-1.7177 1.2979-1.6913 1.1713-4.1263 2.6786-1.4446 1.0554-0.57832 0.47816-0.53948 0.49789-0.50595 0.53899-0.44524 0.57395-0.31124 0.50054-0.19575 0.37842-0.30759 0.73311-0.31801 1.0562-0.1619 0.84166-0.14691 1.3368-0.15934 3.3716-0.10782 1.3458-0.09283 0.70723-0.1533 0.83029-0.19733 0.81625-0.22454 0.76276-0.25563 0.74446-0.32059 0.81114-0.35412 0.77689-0.40233 0.75832-0.4446 0.70051-0.61822 0.76598-0.66587 0.60303-0.68544 0.42928-0.91592 0.37341-0.60636 0.15772-1.8579 0.35233-0.71337 0.18326-0.76014 0.29792-0.56226 0.32838-0.68741 0.51249-1.6149 1.3642-1.3395 1.0735-1.4332 1.0336-2.3051 1.5427-1.8181 1.3593-1.3416 1.0816-1.9695 1.6681-1.1312 0.92106-0.9852 0.75478-1.8658 1.3245-0.88361 0.68113-1.1488 0.95456-0.94007 0.86258-0.81889 0.88722-0.59829 0.82339-0.59164 0.99981-1.1249 2.2394-0.71154 1.3542-1.0474 1.8434-0.62974 0.99364-1.4401 2.127-1.5197 2.3495-0.44994 0.63997-0.24002 0.3035-0.10568 0.096181-0.063028 0.027248-0.069947-0.062606-0.1368-0.2206-1.5739-2.9123-0.69012-1.2013-0.73996-1.2008-0.76768-1.1364-0.80397-1.0541-0.84236-0.93787-0.88701-0.78764-0.77544-0.51614-0.60477-0.31913-4.0344-1.8468-1.4435-0.6136-0.92092-0.359-1.1218-0.3817-0.89349-0.23946-0.5759-0.12167-1.1492-0.15875-1.146-0.049975-2.013 0.003008-1.1687-0.074256-0.47524-0.072018-0.50678-0.11705-0.67699-0.25174-0.55643-0.35468-0.33455-0.33833-0.41202-0.6181-0.43099-0.96219-0.74662-2.2096-0.26651-0.7024-0.38438-0.80822-0.46816-0.749-0.56158-0.66075-0.85697-0.6782-1.0201-0.51591-0.59374-0.19971-0.60748-0.1379-0.88351-0.083362-0.66753 0.032102-0.82406 0.16917-0.51324 0.19076-0.52812 0.27348-0.54705 0.36679-0.41304 0.32297-0.56438 0.48184-0.53222 0.50192-0.70221 0.72442-0.61458 0.57718-0.45372 0.37044-0.48416 0.33945-0.38483 0.22702-1.7789 0.86047-3.2821 1.7079-1.7607 0.84123-1.2175 0.55029-0.90572 0.35875-0.60636 0.16983-0.60304 0.09413-0.6217 0.035088-0.78458-0.016-2.3276-0.16197-0.98831-0.015983-1.031 0.07122-0.66898 0.10282-1.2664 0.31604-0.99129 0.33865-0.94364 0.39449-1.7926 0.83876-0.60006 0.25-0.75015 0.2544-0.76947 0.20072-0.78603 0.14765-0.30348 0.040992-1.1677 0.067189-0.93685-0.036487-0.97246-0.08862-3.6314-0.43167-1.3827-0.18995-0.82313-0.13416-1.2835-0.27366-2.5969-0.67427-0.78576-0.17638-0.59236-0.062934-0.27262 0.050746-0.076058 0.14026-0.14592-0.16386-1.3747-1.086-1.6665-1.2191-1.2859-0.87014-2.7481-1.7182-5.578-3.3686-2.1781-1.4004-0.67688-0.46808-1.3247-0.98321-1.2584-1.0508-0.42114-0.3951-0.67693-0.70409-0.46626-0.54144-0.52473-0.67098-0.70049-1.0103-0.50901-0.81826-0.51935-0.90468-0.98818-1.9058-0.85672-1.8535-0.43234-1.0351-0.80652-2.1712-1.5116-4.5588-0.79234-2.1802-1.2256-3.0668-0.68671-1.6435-0.60889-1.3448-0.62649-1.2237-0.63128-1.0658-0.53699-0.78394-0.4322-0.5567-0.69792-0.77905-0.46201-0.45056-0.66737-0.57791-0.53504-0.40373-0.56402-0.37131-0.94497-0.52788-0.81414-0.38596-0.79933-0.33537-0.78028-0.29073-1.2347-0.38742-0.73424-0.18541-1.1421-0.20004-1.0033-0.07537-0.8641 0.003987-0.86041 0.050016-2.0699 0.20659-3.4213 0.45082-1.2217 0.066049-1.1572-0.050404-0.59574-0.07171-0.5139-0.090776-0.69484-0.16687-0.67247-0.20667-0.57358-0.20517-2.3766-0.95898-0.7746-0.28041-3.7668-1.1866-0.91729-0.31383-1.968-0.76726-4.2827-1.8067-1.0071-0.38365-1.1674-0.40629-1.2733-0.39461-1.2399-0.3378-1.1399-0.27236-3.5866-0.73868-1.8037-0.41699-0.7387-0.2073-1.0573-0.34619-1.6527-0.62187-1.8987-0.79156-1.7325-0.77393-4.7474-2.2115-1.7243-0.71993-2.7054-1.0665-0.7276-0.34465-0.44213-0.2532-0.31776-0.21906-0.34738-0.30047-0.28937-0.3407-0.23755-0.41465-0.11265-0.33654-0.022692-0.32624 0.070473-0.15169-0.052171-0.19292-0.075656-0.65058-0.2322-3.154-0.35094-4.2016-0.081115-1.3733-0.032565-1.3653 0.017332-1.3492 0.06047-1.1688 0.099392-1.0979 0.12388-1.0232 0.18637-1.1004 0.16556-0.77044 0.29861-1.1298 0.61852-1.9892 0.4556-1.3501 1.7791-4.918 0.28831-0.95974 0.23672-1.0285 0.17852-1.2081 0.076039-1.3437-0.042952-1.4314-0.15386-2.3184-0.019723-0.60985 0.025148-0.89109 0.11569-0.83128 0.088709-0.35533 0.23248-0.60485 0.36056-0.57884 0.19423-0.22853 0.30002-0.28735 0.55734-0.40123 0.6764-0.33866 0.68488-0.2421 0.84759-0.21809 0.69307-0.1225 1.9653-0.27997 1.4671-0.27156 1.3997-0.34101 0.8962-0.27111 0.76352-0.29466 0.49141-0.22742 0.85887-0.46956 0.96225-0.63916 0.81731-0.65438 0.68898-0.64027 0.60414-0.60616 1.1737-1.3038 0.71164-0.85642 1.7442-2.1968 1.7881-2.118 0.9102-1.1765 0.79906-1.1755 0.96242-1.518 1.7145-2.8366 0.5084-0.94707 0.39746-0.81754 0.28284-0.67353 0.27979-0.85082 0.14716-0.63031 0.08929-0.591 0.037385-0.6402-0.016536-0.56634-0.055354-0.58427-0.10276-0.68956-0.70711-3.4145-0.19407-1.1445-0.12842-1.0337-0.065425-0.86168-0.027335-1.1098 0.053145-1.6348 0.061501-0.88358 0.16898-1.4234 0.33525-1.6769 0.52847-2.2154 1.8294-7.1325 0.32688-1.3738 0.095916-0.47194 0.1804-1.1751 0.073056-1.169-0.026278-0.79025-0.068912-0.62007-0.21177-1.072-0.40559-1.4835-0.7456-2.5154-0.24743-1.1589-0.075999-0.59175-0.050775-0.87886 0.004263-0.98522 0.054416-1.1007 0.11358-1.1997 0.14-0.92508 0.22365-1.0921 0.17554-0.66446 0.41704-1.212 1.1394-2.7031 0.17496-0.52043 0.18172-0.80924 0.064132-0.59384 0.018445-0.55735-0.045783-1.951 0.026805-1.0313 0.059323-0.72074 0.094435-0.64925 0.21765-0.79971 0.21028-0.5041 0.23349-0.45016 0.33188-0.54502 0.41541-0.59439 0.91055-1.171 0.85385-0.96162 2.3999-2.3755 0.9862-1.0509 0.63368-0.75011 0.4829-0.62221 1.9701-2.8025 0.52747-0.68562 0.53838-0.6336 0.50698-0.53781 0.77356-0.69912 0.54332-0.42197 1.1635-0.78691 2.2702-1.4269 0.82644-0.56444 0.97265-0.72984 0.69161-0.5642 1.2065-1.0944 0.69624-0.70691 0.57402-0.65295 0.50944-0.66133 0.40068-0.59171 0.6094-1.0963 0.39358-0.9405 0.1797-0.545 0.17514-0.66772 0.18794-1.0633 0.070624-0.70178 0.037891-0.87328-0.013853-1.3943-0.041953-0.63356-0.068014-0.31419 0.04648 0.059391 0.11397 0.017389 0.39763-0.081052 0.57706-0.21603 1.314-0.59422 0.72059-0.28428 0.68428-0.19348 0.4623-0.077278 0.36731-0.025692 0.45335 0.015181 0.45286 0.068225 0.38664 0.099434 0.43961 0.16206 0.39207 0.193 0.3315 0.20278 0.82664 0.67268 0.55557 0.58052 1.6444 1.9933 0.93596 1.0447 0.72849 0.71431 2.76 2.5848 3.1391 3.1426 0.5509 0.47868 0.27853 0.20687 0.40876 0.24922 0.35634 0.16298 0.31189 0.10204 0.49554 0.092083 0.46868 0.019107 0.60019-0.058678 0.47574-0.10748 0.60654-0.21334 0.4346-0.20395 0.41768-0.23334 0.60165-0.39345 1.209-0.85182 0.43392-0.26308 0.71954-0.3465 0.44578-0.16369 0.59414-0.17402 0.75826-0.1739 0.82198-0.14222 2.5756-0.35936 1.0556-0.18961 0.80886-0.18848 1.0597-0.32008 0.69254-0.25504 0.85964-0.36299 1.4816-0.68183 1.1039-0.43833 0.6571-0.19223 0.59205-0.11986 0.63878-0.068435 0.61269-0.001895 0.7373 0.085585 0.57372 0.13664 0.53304 0.18448 0.6856 0.31528 0.5944 0.33167 2.1973 1.3811 1.8022 1.0727 0.67039 0.35429 0.57768 0.25974 0.50181 0.18043 0.42064 0.11337 0.49377 0.086603 0.87664 0.061831 0.75314-0.011486 0.72608-0.077462 2.4372-0.37425 1.9943-0.14377 0.44721-0.055998 0.42052-0.088357 0.49361-0.16695 0.59644-0.30236 0.49007-0.31575 0.78085-0.62502 0.77476-0.77847 0.48966-0.57076 0.8491-1.1274 1.4708-2.2292 1.8264-2.965 1.1423-1.8035 1.2653-1.8761 0.89516-1.2557 0.46474-0.59478 0.4222-0.4883 0.37782-0.38999 0.76958-0.6838 0.79948-0.59039 0.96326-0.60581 1.7679-0.93741 3.3216-1.6322 3.5302-1.6441 2.1114-0.87144 1.3778-0.48354 1.5365-0.45388 1.3409-0.29961 1.218-0.12152 1.0072 0.05019 0.76329 0.14874 0.7731 0.26171 0.74338 0.35981 0.70861 0.44482 0.67414 0.52096 0.58196 0.53326 0.55167 0.58131 0.70396 0.85402 0.79682 1.1056 2.3187 3.3801 0.53563 0.70885 0.56122 0.67167 0.69811 0.7228 0.53089 0.47378 0.45344 0.36287 0.58907 0.41971 0.60432 0.36609 0.76129 0.35949 0.96862 0.29457 0.94355 0.1123 1.0049-0.0917 0.5027-0.14072 0.48104-0.18666 0.47481-0.21966 1.9719-0.99842 1.075-0.44979 1.0046-0.34358 1.0527-0.30703 1.091-0.27842 1.2966-0.29404 2.4896-0.48194 5.2206-0.9276 7.7438-1.5502 3.2287-0.56815 2.4354-0.32633 1.3983-0.11432 1.2845-0.013423 0.87372 0.077558 0.82134 0.17878 0.85825 0.38041 0.4837 0.41186 0.23236 0.33442 0.29983 0.80428 0.12554 0.87173-0.005588 1.0087-0.1392 1.0312-0.30796 1.285-0.2443 0.82237-0.53772 1.573-0.56878 1.4343-0.60518 1.2824-0.3172 0.57059-0.58504 0.87598-0.53544 0.63349-0.92412 0.89043-1.1291 0.87974-1.219 0.82044-1.9804 1.2761-1.2379 0.87108-0.61167 0.48009-0.86932 0.73367-0.97401 0.8836-1.2426 1.2451-2.6097 2.8573-1.2911 1.3671-2.4912 2.4823-2.2503 2.3216-0.6329 0.62175-2.0699 1.8886-0.78458 0.75173-0.54785 0.5751-0.56807 0.66294-0.5585 0.73139-0.58104 0.85575-0.44358 0.72667-1.6132 2.992-0.59975 0.99365-1.4127 2.1914-0.3026 0.55228-0.25252 0.5902-0.17897 0.65672-0.10464 0.78318-0.018559 0.50616 0.063828 1.004 0.13996 0.76702 0.2167 0.71408 0.22493 0.52872 0.32866 0.58372 0.26286 0.3597 0.40056 0.41618 0.58394 0.39415 0.41565 0.15971 0.59624 0.10616 0.27224 0.009908 0.39571-0.027799 0.26667-0.048345 0.37896-0.1097 0.4347-0.18728 0.33018-0.18864 0.421-0.30094 0.50659-0.45948 0.47783-0.5433 1.1493-1.542 0.9254-1.1461 0.77677-0.81861 0.85862-0.79789 0.93695-0.78056 1.1213-0.81416 1.2027-0.7332 0.93787-0.4769 1.4904-0.63701 3.0404-1.179 1.5019-0.62016 8.151-3.5282 3.827-1.7024 1.2633-0.50292 1.1467-0.4027 1.1276-0.34175 1.3303-0.33355 1.9079-0.37216 1.0598-0.14054 1.3191-0.074346 0.81665 0.025809 0.62573 0.076183 0.48069 0.11285 0.24064 0.15773" stroke="#bdc660"/>
    </defs>
    <g clip-path="url(#pe910f7cb2b)">
     <use y="280.512" fill="#bdc660" stroke="#bdc660" xlink:href="#ma935740402"/>
    </g>
   </g>
  </g>
 </g>
 <defs>
  <clipPath id="pe910f7cb2b">
   <rect x="7.2" y="7.2" width="278.4" height="266.11"/>
  </clipPath>
 </defs>
</svg>
