<?xml version="1.0" encoding="UTF-8"?>
<!DOCTYPE svg  PUBLIC '-//W3C//DTD SVG 1.1//EN'  'http://www.w3.org/Graphics/SVG/1.1/DTD/svg11.dtd'>
<svg width="327.13pt" height="280.51pt" version="1.1" viewBox="0 0 327.13 280.51" xmlns="http://www.w3.org/2000/svg" xmlns:xlink="http://www.w3.org/1999/xlink">
 <metadata>
  <rdf:RDF xmlns:cc="http://creativecommons.org/ns#" xmlns:dc="http://purl.org/dc/elements/1.1/" xmlns:rdf="http://www.w3.org/1999/02/22-rdf-syntax-ns#">
   <cc:Work>
    <dc:type rdf:resource="http://purl.org/dc/dcmitype/StillImage"/>
    <dc:date>2024-07-04T12:10:13.594617</dc:date>
    <dc:format>image/svg+xml</dc:format>
    <dc:creator>
     <cc:Agent>
      <dc:title>Matplotlib v3.7.1, https://matplotlib.org/</dc:title>
     </cc:Agent>
    </dc:creator>
   </cc:Work>
  </rdf:RDF>
 </metadata>
 <defs>
  <style type="text/css">*{stroke-linejoin: round; stroke-linecap: butt}</style>
 </defs>
 <g id="figure_1">
  <g id="patch_1">
   <path d="m-0 280.51h327.13v-280.51h-327.13v280.51z" fill="none"/>
  </g>
  <g id="axes_1">
   <g id="PatchCollection_1">
    <defs>
     <path id="ma3cd018474" d="m282.46-244.53-0.052094 0.25491 0.009543 0.83878 0.093567 1.2538 0.40471 3.6787 0.38844 3.1092 0.18526 1.2702 0.63205 3.8099 0.58911 2.8739 1.97 7.9863 0.47573 1.4697 0.35165 0.84093 0.39791 0.79149 0.50591 0.82922 0.58701 0.74448 1.0368 0.92969 1.1949 0.82917 1.1988 0.76194 3.8625 2.3281 1.0725 0.67712 2.135 1.4334 1.1665 0.86919 1.0309 0.91677 0.94714 0.99867 0.8553 1.0624 0.74892 1.1113 0.69234 1.2948 0.50251 1.3143 0.27039 1.3082-0.022429 1.2762-0.15427 0.65318-0.28001 0.68789-0.41212 0.70665-0.45633 0.61242-0.55176 0.62112-1.0757 1.0175-0.7292 0.60294-0.95477 0.71402-1.9327 1.2834-4.4412 2.7229-2.6087 1.653-4.8017 3.1518-2.1635 1.4999-3.3237 2.4507-1.9496 1.3221-0.83782 0.52851-1.0418 0.60824-0.81055 0.42933-0.95616 0.45973-1.0826 0.46721-1.0323 0.40254-1.0864 0.39023-1.9654 0.64885-2.0423 0.61436-1.5773 0.42439-0.93516 0.21436-1.1732 0.2169-0.79759 0.10854-1.4134 0.099753-0.84253 0.001761-0.9114-0.03878-1.8629-0.16942-3.0654-0.37948-1.2293-0.095331-0.62214-0.01224-0.72003 0.031749-0.62469 0.0816-0.55907 0.13135-0.46628 0.16692-1.0357 0.6252-0.89767 0.87268-0.77778 1.051-0.58711 1.0162-0.5319 1.1435-0.41922 1.1798-0.27663 1.1903-0.093816 1.1766 0.14125 1.139 0.15897 0.5046 0.24032 0.54166 0.29911 0.52558 0.33462 0.49292 0.58734 0.74548 0.88297 0.98482 0.98041 0.96961 1.0671 0.93661 1.5058 1.1602 3.5822 2.6057 1.3566 1.0911 1.2711 1.1726 0.56919 0.6024 0.66058 0.77729 0.99161 1.3272 2.6474 3.9252 0.54044 0.72247 0.99327 1.1756 1.0842 1.0618 1.1933 0.91117 1.3423 0.74222 1.4509 0.58538 1.5353 0.46674 1.6014 0.37799 1.6539 0.31235 1.6966 0.26438 1.7324 0.22973 3.5567 0.39226 12.105 1.091 4.0313 0.39982 3.512 0.43224 1.5671 0.29046 0.3558 0.12812 0.041605 0.064009-7.2358 4.7918-4.6187 2.9885-4.0126 2.4772-2.5837 1.484-1.8716 0.9967-1.0569 0.52917-1.5881 0.74263-2.0172 0.8628-5.2113 2.0879-2.4132 1.022-1.8211 0.86728-2.2353 1.2069-2.1976 1.3441-1.0877 0.72783-0.94218 0.6819-0.99507 0.80253-0.91415 0.85272-0.81117 0.91392-0.6813 0.98924-0.42033 0.81396-0.35284 0.85835-0.31952 0.9215-2.5792 8.1186-1.6154 4.7095-1.1821 3.1021-0.6331 1.4993-0.67159 1.4451-0.72116 1.3709-0.78503 1.2708-0.86708 1.1377-0.97182 0.96292-1.1939 0.82109-1.2651 0.647-2.4009 1.108-0.95014 0.6184-0.63716 0.77022-0.13041 0.33547-0.067662 0.31741 0.018421 1.06 0.27025 1.1953 0.43372 1.2989 1.0073 2.6767 0.45379 1.3368 0.37248 1.3665 0.23808 1.3888 0.061074 1.3008-0.08328 1.3005-0.20348 1.243-0.37907 1.3933-0.54193 1.3275-0.72487 1.2303-1.0281 1.2143-1.2221 1.0922-1.3642 1.0024-1.467 0.93778-1.5405 0.89261-1.5927 0.86242-3.285 1.6784-6.0071 2.9559-4.6458 2.2344-8.0392 3.7857-3.4755 1.6948-4.9946 2.5715-2.6478 1.4443 0.28066-0.25073 0.37526-0.87093 0.13571-0.42825 0.17335-0.69365 0.1178-0.65526 0.13783-1.5289 0.012916-1.0903-0.071156-1.5938-0.13374-1.4188-0.35507-2.4445-0.34939-1.6915-0.35468-1.299-0.47779-1.3221-0.37523-0.78167-0.39266-0.63454-0.8431-0.90396-1.0942-0.58005-1.0678-0.23719-1.1648-0.046259-0.91215 0.068137-1.1947 0.17946-2.8532 0.55207-0.83674 0.13395-1.105 0.1271-0.71409 0.04285-0.78849 0.006775-1.6465-0.11069-1.049-0.13959-1.0526-0.17827-4.3074-0.87982-1.3712-0.2517-1.5651-0.22308-1.2087-0.10871-1.2153-0.060484-1.2197-0.022891-6.3177 0.11289-1.6895-0.038769-1.5314-0.11672-1.516-0.18554-1.4959-0.23922-1.4697-0.28053-1.4357-0.31157-2.8722-0.69913-2.8896-0.57556-3.3819-0.811-0.9959-0.18019-0.99973-0.074929-1.2059 0.094468-1.2234 0.26729-1.2364 0.40114-1.2456 0.50309-1.2516 0.57894-2.1706 1.0863-7.3177 3.7603-1.5834 0.73242-1.6184 0.66772-1.6424 0.61298-3.0289 0.99263-2.3842 0.67263-3.5137 0.8529-3.9215 0.87374-1.6383 0.42175-1.6148 0.4738-1.5761 0.5387-1.5188 0.62179-1.0056 0.49151-1.2517 0.74649-0.73037 0.53572-0.69807 0.58159-0.68821 0.62759-0.67187 0.65253-3.5126 3.6045-1.4884 1.4507-0.84365 0.8796-0.7637 0.9199-0.5411 0.78677-0.4005 0.66459-1.4296 2.6232-0.42164 0.68571-0.61468 0.82552-0.5954 0.60778-1.0026 0.69966-1.147 0.56613-2.5453 1.0657-1.3418 0.65343-1.3461 0.74686-1.3361 0.82124-1.3114 0.87911-1.2708 0.92193-2.5896 1.9883-1.2625 0.84268-1.2728 0.62932-1.2475 0.34084-1.1821-0.030904-0.77544-0.29176-0.71866-0.49249-0.65869-0.65945-0.79027-1.1014-0.69952-1.2828-0.63048-1.4064-0.81609-2.1458-0.68588-2.0477-0.76577-2.4855-0.47999-1.3545-0.56221-1.3282-0.93155-1.8853-0.73719-1.3509-0.72109-1.2064-0.77585-1.1746-0.68349-0.93101-0.72696-0.88847-0.51131-0.56402-1.0086-0.98463-1.0541-0.91521-2.1849-1.7397-1.1402-0.78267-1.2081-0.62777-1.4591-0.45417-1.5709-0.25342-1.657-0.12536-5.3173-0.12388-2.8261-0.12331-4.8622-0.44296-1.2525-0.18485-1.13-0.33458-1.0352-0.57422-0.54716-0.44319-0.45291-0.46897-0.31742-0.41888-0.21114-0.37926-0.070735-0.42257-0.27948-0.65854-0.40609-1.1348-1.3279-4.0081-2.0743-6.42-2.8581-8.6222-1.5233-4.8329-0.84514-2.961-0.28195-1.2077-0.13326-1.1197 0.10763-1.0388 0.49175-1.0788 0.81677-1.0059 1.0553-0.95316 1.228-0.91542 1.3512-0.88886 1.4373-0.87061 7.4224-4.1598 2.7584-1.6284 1.3298-0.83849 1.279-0.86028 1.21-0.88833 1.1177-0.92482 1.0114-0.98981 0.43042-0.49968 0.59434-0.8243 0.85235-1.4053 0.73479-1.328 0.66468-1.3405 0.43903-1.0447 0.1814-0.51144 0.65256-2.3859 0.36132-1.1682 1.4733-4.2005 0.51461-1.6676 0.41139-1.6315 0.19419-0.96395 0.15453-0.96487 0.11223-0.98529 0.058918-0.96764-0.011813-1.2045-0.12188-1.1525-0.19208-0.91824-0.22278-0.71424-0.31884-0.66502-0.20065-0.14579 0.10424-0.012642 0.13023-0.072117 0.81286-0.56316 4.6039-3.4568 2.8672-2.0424 1.3746-0.91068 1.7385-1.0684 3.4806-1.9498 1.2011-0.62487 1.5637-0.75566 1.0452-0.45987 1.3517-0.5438 3.0473-1.1052 1.0105-0.31875 0.99656-0.27314 0.84869-0.19967 1.0765-0.19574 1.664-0.19909 3.1144-0.17058 1.3282-0.18921 1.4679-0.31673 3.0161-0.8024 1.4943-0.33925 1.8584-0.35989 1.7176-0.23979 1.1815-0.099999 1.2613 7.21e-4 0.76576 0.059078 2.5479 0.29782 1.5795 0.14952 1.3244 0.07689 0.9912 0.015446 1.1075-0.030843 1.0816-0.092639 1.0705-0.1536 1.1481-0.22885 1.4052-0.37056 1.46-0.49262 1.8169-0.70404 2.9836-1.2524 2.2874-1.0738 3.515-1.8179 2.6611-1.2729 1.0224-0.44336 0.96522-0.3503 0.95421-0.28088 0.82545-0.18148 0.89696-0.14064 1.2982-0.090867 0.70712 0.007824 0.45699 0.036365 0.92442 0.17617 0.275 0.081891 0.93807 0.36981 1.0883 0.56421 1.189 0.72614 5.0247 3.3694 1.3797 0.85499 2.8481 1.6498 0.98203 0.61983 1.2705 0.88688 0.95688 0.72514 0.85595 0.69523 0.94747 0.83852 1.2783 1.266 2.2531 2.4073 1.2332 1.2671 1.1808 1.132 1.1828 1.0783 2.255 1.9718 1.3832 1.0283 0.65508 0.42533 0.69001 0.38042 0.74987 0.32466 0.38102 0.12773 0.62587 0.15434 0.70584 0.090778 0.67831 0.003217 0.6534-0.07743 0.45821-0.10515 0.64538-0.22804 0.72481-0.37852 0.51859-0.33951 2.3196-1.7158 0.56416-0.37508 1.4331-0.86532 3.6775-2.0974 1.5514-0.82989 1.2251-0.58628 1.5388-0.61917 1.1853-0.39729 1.5504-0.4351 0.8377-0.19834 1.3627-0.26643 0.99387-0.1535 1.3302-0.15343 5.198-0.39836 1.3083-0.12759 2.1649-0.3288 1.1337-0.25531 0.89743-0.23905 0.89217-0.26616 1.5799-0.53357 0.88087-0.33003 1.6831-0.69533 1.5982-0.73754 2.0296-1.0211 1.1712-0.64646 1.5325-0.96786 0.78184-0.57304 0.87413-0.7303 0.70277-0.6839 0.55994-0.63923 0.59628-0.83894 0.62339-1.2478 0.43322-1.3368 0.27824-1.3873 0.15333-1.4462 0.040705-1.3707-0.072072-1.6105-0.21576-1.6494-0.34174-1.4842-0.27637-0.84903-0.33659-0.80994-0.74728-1.2839-0.28087-0.36361-0.75204-0.81244-1.0486-0.93652-1.0877-0.85934-2.4855-1.8521-0.65929-0.5501-0.84255-0.81728-0.99393-1.2409-0.88222-1.3708-0.83271-1.4557-1.4728-2.7069-1.4113-2.7718-0.67597-1.4115-0.64653-1.4246-0.57004-1.3468-0.52219-1.3577-0.45842-1.3699-0.37479-1.3845-0.26657-1.4023-0.15357-1.7186-0.003562-1.7423 0.10589-1.7594 0.18367-1.7711 0.23651-1.7782 1.1092-7.0944 0.23714-1.7401 0.16722-1.5237 0.10782-1.4886 0.026677-1.4401-0.08215-1.3742-0.24524-1.3598-0.45993-1.2253-0.78066-1.1414-0.74458-0.75858-0.6651-0.55934-2.3558-1.7007-0.80839-0.66797-0.36463-0.37286-0.43974-0.6067-0.36046-0.97983-0.1112-1.0849 0.055197-1.1449 0.14889-1.1607 0.21956-1.2209 0.19825-0.69809 0.26237-0.62521 0.21429-0.40775 1.3077-2.1002 0.52304-0.89714 0.24994-0.49181 0.30759-0.71656 0.20562-0.6438 0.11779-0.5674 0.059022-0.58718-0.001059-0.57432-0.04128-0.44799-0.12708-0.6341-0.23668-0.60771-0.13227-0.198-0.2671-0.18037 0.021308-0.12013 0.22426-0.20811 0.46437-0.28956 1.0687-0.52854 0.90951-0.39924 1.637-0.63885 1.2769-0.422 3.7014-0.98721 1.7819-0.50098 0.89926-0.2927 0.86078-0.32089 1.2713-0.58748 0.9914-0.62142 0.62439-0.52442 0.79149-0.88811 0.66975-0.98892 0.47434-0.82879 1.4591-2.7215 2.74-5.3451 0.80722-1.4934 0.84146-1.4246 0.92152-1.3574 0.99606-1.1933 0.79889-0.73905 0.86816-0.58221 0.96713-0.40927 1.0368-0.26294 0.88398-0.13342 1.1016-0.061856 0.63879 0.00374 1.0753 0.052743 1.8651 0.17537 0.61705 0.08216 1.6093 0.28956 0.97975 0.24969 0.57454 0.18449 1.0853 0.43198 0.67915 0.31758 4.3137 2.2431 4.3631 2.1439 1.148 0.68988 0.51201 0.36507 0.53926 0.4385 0.47925 0.44905 0.42067 0.44736 0.74979 0.9177 1.957 2.6934 1.1295 1.4545 0.63379 0.76795 0.39497 0.40396 0.3918 0.2927 0.45213 0.19371 0.4088 0.066431 0.31334-0.006516 0.56145-0.12339 0.39776-0.15395 0.48992-0.25009 1.103-0.70401 0.36259-0.20118 0.45-0.19003 0.28829-0.078034 0.31929-0.040387 0.28348 0.007836 0.48003 0.099809 0.31917 0.11594 1.1917 0.57483 0.54609 0.22318 0.33802 0.10474 0.61306 0.11817 0.58917 0.028016 0.39332-0.017868 2.1853-0.2495 0.55501 0.007784 0.38807 0.06133 0.30316 0.090725 0.34296 0.15898 0.29297 0.19306 0.36235 0.3276 0.24175 0.2788 0.39431 0.56272 0.7665 1.3146 0.47304 0.73726 0.50389 0.6367 0.51394 0.51106 0.37393 0.29715 0.43363 0.28001 0.36065 0.18905 0.59306 0.23963 0.56558 0.16153 0.63341 0.11687 0.5573 0.053767 1.0581-0.011631 0.60768-0.068566 0.74801-0.14434 0.92979-0.27489 0.69825-0.28121 0.58796-0.28966 0.59124-0.34026 1.1456-0.75426 1.9592-1.3896 0.6611-0.40348 0.40627-0.19694 0.29106-0.10737 0.30053-0.068539 0.23375-1.2e-5 0.16518 0.089446 0.040826 0.09492" stroke="#bdc660"/>
    </defs>
    <g clip-path="url(#pab10520e41)">
     <use y="280.512" fill="#bdc660" stroke="#bdc660" xlink:href="#ma3cd018474"/>
    </g>
   </g>
  </g>
 </g>
 <defs>
  <clipPath id="pab10520e41">
   <rect x="7.2" y="7.2" width="312.73" height="266.11"/>
  </clipPath>
 </defs>
</svg>
