<?xml version="1.0" encoding="UTF-8"?>
<!DOCTYPE svg  PUBLIC '-//W3C//DTD SVG 1.1//EN'  'http://www.w3.org/Graphics/SVG/1.1/DTD/svg11.dtd'>
<svg width="180.97pt" height="280.51pt" version="1.1" viewBox="0 0 180.97 280.51" xmlns="http://www.w3.org/2000/svg" xmlns:xlink="http://www.w3.org/1999/xlink">
 <metadata>
  <rdf:RDF xmlns:cc="http://creativecommons.org/ns#" xmlns:dc="http://purl.org/dc/elements/1.1/" xmlns:rdf="http://www.w3.org/1999/02/22-rdf-syntax-ns#">
   <cc:Work>
    <dc:type rdf:resource="http://purl.org/dc/dcmitype/StillImage"/>
    <dc:date>2024-07-04T12:10:07.872238</dc:date>
    <dc:format>image/svg+xml</dc:format>
    <dc:creator>
     <cc:Agent>
      <dc:title>Matplotlib v3.7.1, https://matplotlib.org/</dc:title>
     </cc:Agent>
    </dc:creator>
   </cc:Work>
  </rdf:RDF>
 </metadata>
 <defs>
  <style type="text/css">*{stroke-linejoin: round; stroke-linecap: butt}</style>
 </defs>
 <g id="figure_1">
  <g id="patch_1">
   <path d="m0 280.51h180.97v-280.51h-180.97v280.51z" fill="none"/>
  </g>
  <g id="axes_1">
   <g id="PatchCollection_1">
    <defs>
     <path id="m4a6c18247b" d="m115.67-239.3 0.058411-0.025251 0.4955 0.039691 0.76253 0.12678 0.33247 0.084239 0.63821 0.2162 0.36183 0.1539 0.57627 0.29071 0.79026 0.49518 1.0001 0.79754 0.77965 0.76756 0.78847 0.94336 0.64243 0.94527 0.41443 0.73286 0.30237 0.62032 0.35484 0.85002 0.27848 0.80364 0.18987 0.68812 0.15601 0.88296 0.030495 0.433-0.005175 0.47197-0.046348 0.46593-0.085097 0.43836-0.22194 0.68198-0.23214 0.52749-0.9476 1.8841-0.32865 0.71801-0.42612 1.0508-0.69197 1.915-0.72316 1.8454-0.74024 1.6215-1.3839 2.729-0.69412 1.54-0.25314 0.67213-0.19667 0.61544-0.20967 0.84483-0.37641 2.2422-0.19405 0.83484-0.12844 0.3806-0.20525 0.46409-0.26941 0.45955-0.39885 0.52761-0.57126 0.59614-0.34518 0.2976-0.46303 0.34187-0.7423 0.43186-0.35905 0.16278-0.88224 0.30988-2.237 0.61163-1.132 0.37614-0.78171 0.30592-0.66874 0.2997-0.70753 0.36688-0.4526 0.27326-0.73606 0.5443-0.30232 0.27492-0.35525 0.38102-0.45321 0.62387-0.33309 0.6217-0.13886 0.34577-0.11373 0.38307-0.08013 0.431-0.033936 0.42457 0.013192 0.519 0.081483 0.60594 0.23347 0.95007 0.65321 1.9961 0.51606 2.0481 0.51807 1.8181 0.20879 0.94134 0.57333 3.2448 0.19212 0.78604 0.12523 0.40867 0.21296 0.56671 0.273 0.58331 1.0647 1.9993 0.43427 0.6216 0.39925 0.41149 0.27022 0.21924 0.44076 0.2854 0.3482 0.1757 0.42892 0.17213 0.78783 0.22046 1.7817 0.29043 0.88484 0.19097 0.4406 0.13558 0.42445 0.16388 0.74235 0.38063 0.44762 0.29697 0.58684 0.47394 1.834 1.7696 0.2933 0.26118 0.99616 0.75703 1.1094 0.70285 1.1864 0.67188 2.4848 1.3404 1.2463 0.71579 1.2153 0.78248 1.1163 0.83292 1.0757 0.90186 1.045 0.95303 1.0219 0.99054 1.0049 1.0177 2.9508 3.1498 2.8913 3.2261 1.8904 2.1847 1.8342 2.2284 0.88189 1.1403 0.83442 1.1405 1.6007 2.3251 4.5208 6.9017 2.0423 3.0631 0.53516 0.94618 0.29711 0.72292 0.22572 0.69925 0.14083 0.6214 0.059645 0.46322 0.018513 0.51835-0.048126 0.77811-0.1455 0.96143-0.22346 1.042-0.62791 2.6451-0.1019 0.55197-0.10226 0.75606-0.052291 1.0936 0.040873 0.84434 0.056236 0.4869 0.13172 0.73807 0.15871 0.63886 0.33001 1.0185 0.40711 0.97373 0.49127 0.93999 0.52926 0.84331 1.5857 2.3489 1.0424 1.708 0.78904 1.442 0.40486 0.81259 0.17209 0.40429 0.023511 0.18057 0.35427 0.56325 0.42782 0.78334 0.49814 0.99819 0.41661 0.9468 0.28256 0.73777 0.31901 1.0056 0.23146 0.98845 0.12974 0.8457 0.084118 1.0814 0.00754 1.3571-0.2801 5.3452-0.016575 1.8093 0.018536 0.89969 0.10352 1.8567 0.08399 0.88894 0.10704 0.87787 0.24327 1.481 0.16531 0.7716 0.19341 0.7551 0.21143 0.69779 0.23958 0.67842 0.32959 0.79452 0.38202 0.77777 0.35566 0.62594 0.46067 0.71118 0.45804 0.63232 1.2942 1.5985 0.34326 0.45976 0.37298 0.69776 0.10756 0.50712-0.020034 0.43961-0.13718 0.53782-0.17861 0.44567-0.36632 0.71337-0.20349 0.32664-0.31292 0.42488-0.29414 0.32496-0.34532 0.30186-0.30324 0.20605-0.59168 0.29273-0.5574 0.20302-2.7869 0.78275-0.78469 0.25221-0.98022 0.38234-0.5488 0.26484-0.64925 0.3947-0.36344 0.282-0.29848 0.28935-0.12391 0.14532-0.3041 0.48677-0.0935 0.22584-0.105 0.42471-0.017136 0.44408 0.040101 0.35258 0.19223 0.97616 0.072544 0.76944-0.03171 0.54747-0.12469 0.55378-0.30304 0.67055-0.32498 0.49429-0.65337 0.7669-0.78553 0.7602-2.5045 2.1677-1.2748 1.2024-0.5646 0.59986-0.53358 0.62549-0.43753 0.57217-0.40141 0.59388-0.46415 0.81812-0.24859 0.53116-0.26699 0.70887-0.18685 0.68072-0.13662 0.70136-0.10116 0.75108-0.069625 0.76791-0.18384 3.5993-0.13191 1.6497-0.096076 0.82642-0.2463 1.4961-0.21479 0.94759-0.53158 2.0984-0.1523 0.84979-0.04002 0.31482 0.010169 0.1687 0.013556 0.27403-0.12938 0.45088-0.35266 0.76886-0.46402 0.72697-0.28302 0.3468-0.29644 0.3037-0.54726 0.43705-0.67198 0.38134-0.87811 0.32703-1.0146 0.212-0.7822 0.061583-0.59525-0.014215-0.74576-0.096112-0.80825-0.18926-0.80785-0.26889-1.0259-0.44059-2.6352-1.3397-0.47295-0.21386-0.37329-0.14066-0.60277-0.14484-0.60296-0.026672-0.6326 0.063308-0.68611 0.13885-0.47219 0.12718-0.51468 0.16493-0.69166 0.26466-0.51348 0.22744-1.1023 0.57166-0.49134 0.29369-0.70248 0.47414-0.49482 0.38213-0.61991 0.54765-0.67862 0.73617-0.55525 0.7887-0.61785 1.1649-0.30529 0.71134-1.1326 2.984-0.59798 1.3511-0.34852 0.68025-0.43589 0.74998-0.45552 0.67734-0.36689 0.47043-0.37213 0.40748-0.48203 0.41348-0.48742 0.26283-0.28608 0.073355-0.30948 0.0257-0.39223-0.016803-0.95024-0.10141-0.76419-0.034233-0.8208 0.042654-0.85167 0.1498-0.85056 0.27557-0.85023 0.38489-1.0971 0.62134-0.97648 0.64998-0.94572 0.71303-0.89757 0.75993-0.82991 0.79337-1.4925 1.5476-0.79403 0.64109-0.64835 0.38786-0.4321 0.19061-0.55017 0.17261-1.0994 0.18385-1.0862 0.048462-1.3364-0.050344-3.008-0.27692-1.0217-0.044724-0.84589 0.008886-1.2211 0.10564-1.0948 0.19202-1.1135 0.26164-3.0035 0.79666-5.044 1.4023-0.99305 0.25953-1.3425 0.28313-0.66136 0.10204-0.79679 0.086909-0.79493 0.045539-1.0043-0.006812-0.68689-0.050583-0.87307-0.12059-0.97824-0.20945-0.932-0.27231-0.75046-0.27583-0.48131-0.2081-0.91814-0.46612-2.4238-1.3836-0.86398-0.38705-0.64968-0.21127-0.63424-0.14896-0.5775-0.098131-3.9811-0.4968-2.005-0.29317-1.8362-0.3557-0.79203-0.21878-0.79746-0.30276-0.78598-0.37494-0.66335-0.36517-0.65911-0.39736-1.2491-0.81725-3.1204-2.144-0.57968-0.36911-1.0627-0.59714-0.73786-0.33954-0.74962-0.28752-0.91788-0.28055-0.91566-0.20383-1.0768-0.1351-0.75517-0.024949-0.73668 0.027561-0.5878 0.061801-0.78666 0.152-0.40194 0.11624-0.44515 0.16887-0.43386 0.22425-0.38139 0.27952-0.54645 0.66099-0.24044 0.42237-0.84098 1.7913-0.25017 0.43388-0.50941 0.63937-0.42218 0.34757-0.48817 0.29459-0.718 0.31391-0.81119 0.24598-0.77122 0.16207-0.65157 0.09775-0.91352 0.085768-0.85517 0.024998-0.45095-0.012056-0.37626-0.026303-1.0695-0.15764-0.94677-0.24076-0.75933-0.26278-0.87609-0.38204-1.0403-0.55542-0.38758-0.23207-1.373-0.89345-1.7922-1.2407-0.74716-0.5616-0.40207-0.3471-0.28459-0.28562-0.29635-0.3693-0.21726-0.38969-0.10417-0.32138-0.036138-0.35452 0.1865-0.77057 0.46216-0.79484 0.4821-0.6364 1.5476-1.8953 0.51696-0.68922 0.49792-0.721 0.55397-0.90372 0.64809-1.2781 1.2181-2.8635 0.30112-0.64571 0.35209-0.69472 1.5199-2.8009 0.53309-1.186 0.5538-1.3747 0.83233-2.2173 0.48201-1.4369 0.23986-0.93522 0.14178-0.65715 0.49265-2.6237 0.39502-1.9316 0.72543-3.1734 0.32247-1.1047 0.22422-0.60733 0.43164-0.90468 0.53145-0.82384 0.53201-0.69176 0.76865-0.88227 0.63939-0.63716 0.75906-0.66315 0.78886-0.60905 2.2408-1.6413 0.80152-0.67195 0.5222-0.51558 0.43724-0.53553 0.41092-0.70587 0.16468-0.43786 0.13475-0.58682 0.047415-0.85646-0.082727-0.65284-0.16524-0.57289-0.2462-0.55517-0.14644-0.26136-0.38833-0.57939-0.39543-0.49172-2.1069-2.3114-0.64717-0.79754-0.4356-0.61726-0.38195-0.64434-0.27506-0.57304-0.23675-0.59184-0.22727-0.67725-0.24318-0.94379-0.33188-1.6975-0.43-2.9621-0.48842-2.846-0.38927-2.6997-0.34986-1.8651-0.11482-0.73767-0.035844-0.36165-0.011106-0.53825 0.02375-0.28201 0.072784-0.34836 0.16462-0.35924 0.18993-0.18905 0.16288-0.044117 0.070208 0.011816 0.066035 0.015725 0.072041-0.10328 0.081535-0.38501 0.02968-0.40263-0.002096-0.95289-0.12411-1.7297-0.13934-1.1249-0.14773-0.93495-0.16984-0.88198-0.24059-1.0182-0.18433-0.63577-0.21801-0.62599-0.33901-0.78296-0.57299-0.95887-0.65067-0.70602-0.5061-0.36202-0.52793-0.28027-0.6772-0.27638-0.64633-0.21011-0.72608-0.1933-2.3105-0.46652-1.0256-0.23765-0.75362-0.23997-0.34776-0.14186-0.40499-0.20889-0.41438-0.30831-0.44068-0.53639-0.2077-0.35872-0.20586-0.43862-0.22705-0.59092-0.34977-1.1771-0.20079-0.87783-0.46451-2.2805-0.34775-1.206-0.27976-0.74997-0.46214-1.0622-1.783-3.7574-0.64751-1.5101-0.31204-0.82775-0.27306-0.80948-0.3116-1.0901-0.21847-0.97369-0.17688-1.0165-0.12159-0.89959-0.11822-1.1554-0.10594-1.4505-0.2002-3.6633-0.086678-1.1418-0.22814-2.1099-0.17109-1.1894-0.41414-2.608-0.39557-2.0428-0.5213-2.2313-0.30487-1.0424-0.40598-1.2478-0.043268-0.20999-0.009853-0.20811 0.065712-0.18169 0.075723-0.053498 0.081559-0.02035 0.10339 0.001947 0.32034 0.10405 1.4967 0.83234 0.92634 0.47136 1.0243 0.42295 0.90185 0.26791 0.67331 0.13304 0.64076 0.073987 0.64622 0.023274 1.0342-0.073299 1.0517-0.22472 0.60368-0.20764 0.57749-0.26153 0.88848-0.55087 0.7769-0.67955 0.71227-0.88683 0.41553-0.76227 0.201-0.52259 0.14751-0.52343 0.15683-0.83099 0.32278-3.0065 0.10338-0.73786 0.12741-0.74306 0.28045-1.2911 0.36022-1.3135 0.25205-0.78931 0.27568-0.78206 0.49336-1.2452 0.34301-0.77476 0.36411-0.75904 0.47219-0.90287 0.50649-0.87725 0.62927-0.97554 0.55035-0.75407 0.57569-0.69989 0.843-0.88619 1.243-1.1691 0.60982-0.68271 0.23597-0.35537 0.25906-0.53284 0.097213-0.27891 0.10659-0.42776 0.094931-0.74488 0.026177-0.61814 0.004614-2.0907 0.040963-1.0234 0.1326-1.0988 0.14793-0.71546 0.16643-0.64077 0.27403-0.90621 0.4412-1.2744 0.70681-1.7633 0.81609-1.7539 0.54112-1.0539 1.0469-1.8539 2.1237-3.4094 1.3006-2.1676 0.43586-0.69191 0.6729-0.95601 0.48792-0.58925 0.85714-0.87116 0.78569-0.67962 0.67653-0.53216 2.0984-1.5721 0.6323-0.52339 0.46002-0.43071 0.53931-0.58178 0.44626-0.58509 0.29744-0.48907 0.27987-0.61584 0.088596-0.26788 0.11192-0.50938 0.034835-0.41751-0.033233-0.53696-0.13782-0.57973-0.27259-0.61862-0.44838-0.63756-0.3926-0.39244-0.38165-0.295-0.33703-0.21016-0.7247-0.33571-0.57287-0.19671-0.63139-0.18179-2.3265-0.56982-0.52563-0.15472-0.49991-0.19225-0.46302-0.26831-0.26527-0.25887-0.16023-0.28187-0.077125-0.26529-0.029569-0.27988 0.01386-0.31835 0.056368-0.32915 0.15279-0.4892 0.24203-0.50038 0.29931-0.4441 0.26634-0.30946 0.29729-0.28802 0.55011-0.43091 0.67013-0.40606 0.89714-0.41363 2.3136-0.82514 0.50884-0.19362 0.81357-0.357 0.69394-0.37922 0.55303-0.37706 0.33736-0.27558 0.43543-0.429 0.27727-0.33201 0.3749-0.54567 0.26643-0.47796 0.32473-0.75632 0.15391-0.51814 0.078332-0.42359 0.031405-0.44362-0.13659-1.084-0.37776-1.1096-0.55305-1.1295-0.67632-1.1461-0.7579-1.1615-2.4361-3.5915-0.76725-1.247-0.69114-1.2841-0.57507-1.3319-0.33974-1.0509-0.27518-1.0782-0.69802-3.2316-0.29063-1.1211-0.35772-1.0945-0.39794-0.94119-0.27852-0.5379-0.50103-0.80745-0.78771-1.0186-0.56151-0.6085-0.56276-0.54096-0.73094-0.61726-0.52762-0.38136-0.28913-0.16633-0.10735-0.02078 0.070486-0.12998 0.25264-0.047029 0.54896 0.058324 0.7282 0.16346 2.4066 0.62487 1.1894 0.25361 0.76283 0.12433 1.2814 0.17604 3.3653 0.40005 0.90122 0.082128 0.86822 0.033814 1.0822-0.062267 0.28124-0.037988 0.72844-0.13684 0.7131-0.18602 0.69519-0.23576 0.5561-0.23169 1.6613-0.77731 0.87452-0.36559 0.91867-0.31384 1.1736-0.29289 0.61998-0.095289 0.95543-0.066002 0.91591 0.014812 2.1571 0.1501 0.7271 0.014827 0.57615-0.032518 0.55886-0.087233 0.56194-0.15739 0.83937-0.33247 1.1283-0.50998 1.6317-0.77961 3.0416-1.5828 1.6486-0.79743 0.35664-0.21038 0.44869-0.31458 0.42048-0.3433 0.56956-0.5349 0.65077-0.67135 0.49323-0.46515 0.52304-0.44654 0.38278-0.29931 0.50697-0.33992 0.48943-0.25344 0.47564-0.17678 0.76368-0.15678 0.61862-0.02975 0.81878 0.077255 0.56298 0.1278 0.55024 0.18508 0.9454 0.47812 0.79419 0.62852 0.52044 0.61234 0.43387 0.69412 0.35622 0.74901 0.24699 0.65094 0.69193 2.0477 0.39942 0.8917 0.38183 0.57282 0.31004 0.31354 0.51567 0.3287 0.62739 0.23329 0.46966 0.10847 0.44043 0.066742 1.083 0.068816 1.8656-0.002787 1.0621 0.046313 1.065 0.14712 0.53371 0.11276 0.82803 0.22191 1.0396 0.35374 0.85346 0.3327 1.3378 0.56865 3.7388 1.7115 0.56047 0.29575 0.71863 0.47832 0.82203 0.72994 0.78065 0.86917 0.74507 0.97691 0.71144 1.0531 0.68576 1.1128 0.63957 1.1133 1.4586 2.699 0.12677 0.20444 0.064823 0.05802" stroke="#bdc660"/>
    </defs>
    <g clip-path="url(#p2c55358fa7)">
     <use y="280.512" fill="#bdc660" stroke="#bdc660" xlink:href="#m4a6c18247b"/>
    </g>
   </g>
  </g>
 </g>
 <defs>
  <clipPath id="p2c55358fa7">
   <rect x="7.2" y="7.2" width="166.57" height="266.11"/>
  </clipPath>
 </defs>
</svg>
