<?xml version="1.0" encoding="UTF-8"?>
<!DOCTYPE svg  PUBLIC '-//W3C//DTD SVG 1.1//EN'  'http://www.w3.org/Graphics/SVG/1.1/DTD/svg11.dtd'>
<svg width="199.65pt" height="280.51pt" version="1.1" viewBox="0 0 199.65 280.51" xmlns="http://www.w3.org/2000/svg" xmlns:xlink="http://www.w3.org/1999/xlink">
 <metadata>
  <rdf:RDF xmlns:cc="http://creativecommons.org/ns#" xmlns:dc="http://purl.org/dc/elements/1.1/" xmlns:rdf="http://www.w3.org/1999/02/22-rdf-syntax-ns#">
   <cc:Work>
    <dc:type rdf:resource="http://purl.org/dc/dcmitype/StillImage"/>
    <dc:date>2024-07-04T12:10:13.284548</dc:date>
    <dc:format>image/svg+xml</dc:format>
    <dc:creator>
     <cc:Agent>
      <dc:title>Matplotlib v3.7.1, https://matplotlib.org/</dc:title>
     </cc:Agent>
    </dc:creator>
   </cc:Work>
  </rdf:RDF>
 </metadata>
 <defs>
  <style type="text/css">*{stroke-linejoin: round; stroke-linecap: butt}</style>
 </defs>
 <g id="figure_1">
  <g id="patch_1">
   <path d="m-0 280.51h199.65v-280.51h-199.65v280.51z" fill="none"/>
  </g>
  <g id="axes_1">
   <g id="PatchCollection_1">
    <defs>
     <path id="m9d5a2eee1e" d="m133.59-203.96 0.15368 0.25323 0.171 0.54559 0.14146 0.7176 0.068037 0.80177-0.043721 0.82264-0.19252 0.79625-0.36984 0.74377-0.51481 0.68314-0.61472 0.63123-0.67424 0.58927-1.7247 1.3534-0.54266 0.4642-0.45206 0.46612-0.33611 0.4592-0.20079 0.38582-0.2081 0.68402-0.09523 0.74035-0.022907 0.78293 0.033566 1.6541-0.005425 0.85756-0.06642 1.0131-0.12494 1.024-0.17141 1.0279-0.20895 1.0256-0.24017 1.0172-0.26714 1.002-0.29143 0.97886-0.31407 0.94583-0.3355 0.90032-0.39724 0.99449-0.17567 0.50985-0.15192 0.61527-0.061911 0.613 0.076887 0.80432 0.23553 0.78248 0.37022 0.7431 0.4921 0.6827 0.61152 0.59671 0.73743 0.49835 0.82491 0.42602 1.7786 0.80384 0.6884 0.3391 0.68535 0.3619 0.83945 0.47107 0.82312 0.49818 0.79514 0.52931 0.75324 0.56695 0.69414 0.61401 0.61342 0.674 0.27903 0.37945 0.47647 0.82579 0.37843 0.88562 0.30099 0.92683 0.23727 0.95282 0.18116 0.96592 0.12706 0.96751 0.069546 0.95804 0.003215 0.93713-0.077626 0.90352-0.1791 0.85516-0.2711 0.75423-0.42208 0.94861-0.28158 0.70452-0.083347 0.2683-0.11947 0.55388-0.049819 0.43316-0.015417 0.4505 0.014152 0.36069 0.036443 0.3607 0.14324 0.7685 0.24478 0.82614 0.26371 0.68677 0.33825 0.76637 0.38243 0.77678 0.3774 0.68106 0.37522 0.59772 0.48767 0.68958 1.2722 1.6505 0.44177 0.61448 0.42145 0.68869 0.40009 0.82596 0.32632 0.85122 0.23749 0.8361 0.44153 1.8728 0.3651 1.4449 0.19784 0.71785 0.38009 1.2503 0.17915 0.53017 0.34749 0.92234 0.40145 0.91514 0.29867 0.60662 0.63772 1.1667 1.1028 1.845 0.33066 0.60521 1.21 2.4684 0.40041 0.76551 0.28939 0.50984 0.30565 0.50292 0.70184 1.0508 1.7489 2.3775 0.93271 1.3714 0.90722 1.4867 0.39644 0.71886 0.3411 0.69718 0.30675 0.71519 0.34298 0.93127 0.29941 0.94933 0.26457 0.96048 0.54729 2.1746 0.3631 1.3353 0.50075 1.6074 0.31735 0.89775 0.48761 1.2059 0.31031 0.63916 0.18379 0.32592 0.1938 0.28995 0.24878 0.29202 0.3786 0.2982 0.47263 0.17125 0.26296 0.010867 0.19907-0.024288 0.37788-0.10754 0.2809-0.12183 0.52594-0.29552 0.41402-0.2734 1.7231-1.2958 0.83223-0.58779 0.51497-0.33828 0.80101-0.49418 0.82613-0.4832 1.7591-0.94789 1.0885-0.53094 0.6769-0.29838 2.1735-0.88387 1.1489-0.42918 0.91554-0.31644 0.93184-0.30236 0.75957-0.21808 1.0079-0.23696 0.50553-0.092088 1.0935-0.14008 0.73572-0.04088 0.59226 0.013105 0.52338 0.063306 0.3545 0.083182 0.26151 0.090619 0.23719 0.11184 0.19558 0.12195 0.3105 0.27243 0.26494 0.33299 0.2216 0.37424 0.18912 0.41354 0.20251 0.58072 0.19573 0.78653 0.11947 0.77888 0.043329 0.62562-8.16e-4 0.5085-0.026951 0.42258-0.057824 0.47017-0.10338 0.56624-0.1499 0.63471-0.31943 1.197-0.22047 0.9301-0.18296 0.94774-0.45983 3.1597-0.69494 3.5617-0.086713 0.58783-0.073907 0.75086-0.018062 0.49611 0.042612 0.92452 0.11812 0.77486 0.10025 0.42914 0.25395 0.80256 0.23689 0.60208 0.95734 2.1359 0.33262 0.80816 0.35261 1.0251 0.17573 0.64894 0.20323 0.91373 0.20269 1.0801 0.19357 1.2435 0.1266 1.1548 0.037937 0.70656-0.005353 0.69753-0.036306 0.48456-0.079388 0.53599-0.16105 0.6324-0.12568 0.34765-0.24796 0.52887-0.44583 0.71106-0.46044 0.58261-0.40382 0.43618-0.31924 0.29738-0.16852 0.10705-0.14718-0.011352-0.56252 0.036996-1.0517 0.13824-0.8521 0.15771-1.2955 0.29481-1.5302 0.42423-5.7021 1.745-2.0378 0.66314-0.85729 0.33666-0.88879 0.4352-0.80977 0.46807-0.6577 0.42284-0.90948 0.64717-0.79091 0.64173-0.50224 0.46566-0.35069 0.3661-0.32072 0.38107-0.17583 0.23705-0.22931 0.35505-0.27978 0.5223-0.30199 0.66133-0.80193 1.8642-0.52036 1.0257-0.35254 0.60193-0.45319 0.68457-0.49696 0.63581-0.42712 0.49421-0.63158 0.67677-0.74461 0.72661-0.79811 0.70093-0.73663 0.59496-0.73556 0.54787-0.56616 0.38226-0.62755 0.37223-0.53324 0.27035-0.68063 0.29675-0.87781 0.31833-0.71408 0.21713-0.83896 0.22886-1.1194 0.28574-1.0065 0.22829-1.2394 0.25022-0.99279 0.17314-0.63592 0.091568-0.9302 0.09937-0.65633 0.043136-0.66425 0.01719-1.2524-0.029676-1.6413-0.1162-1.0128-0.04785-0.55242-0.00244-0.55345 0.034946-0.51278 0.086905-0.32948 0.098136-0.21118 0.088003-0.41949 0.24788-0.37338 0.29235-0.47818 0.42985-0.43098 0.43094-0.37844 0.41524-2.1986 2.4813-2.0064 2.3735-0.76414 0.96378-0.39622 0.59824-0.35285 0.6012-0.8243 1.5703-0.68109 1.2252-1.3527 2.2165-1.0185 1.7353-1.8832 3.4513-0.38063 0.59699-0.16718 0.22235-0.2718 0.31354-0.25873 0.2478-0.25977 0.20282-0.13823 0.090438-0.42945 0.21678-0.61615 0.20623-1.0048 0.24216-0.72734 0.20178-0.48524 0.18034-0.44629 0.19896-0.60962 0.31543-0.54468 0.32175-0.59632 0.39018-1.6672 1.2028-0.62652 0.41482-0.63551 0.36624-0.50202 0.23077-0.28746 0.10207-0.65737 0.15285-0.69876 0.075969-0.60206 0.020578-1.0174-0.023277-0.82937-0.055518-1.0154-0.09957-3.9082-0.50001-0.91809-0.082702-0.8011-0.038951-0.87466 0.002156-0.93973 0.069788-0.73137 0.10268-1.024 0.18516-2.6727 0.57199-1.5467 0.26958-0.68094 0.083032-0.70946 0.019808-0.62486-0.029998-1.7118-0.21966-0.76576-0.057167-0.29456-0.001125-0.56922 0.041689-0.40228 0.061231-0.42278 0.087799-0.89743 0.24538-0.91181 0.31024-0.92241 0.35772-1.8659 0.80844-2.8269 1.3326-9.4942 4.6438-1.9026 0.89709-0.94932 0.42807-0.9462 0.40492-0.94092 0.37086-0.93248 0.32158-0.91954 0.25133-0.97303 0.17164-0.81125 0.045117-0.78712-0.08423-0.45857-0.12658-0.42102-0.16482-0.4855-0.23467-0.85116-0.4822-1.3752-0.81871-0.29388-0.16172-0.87904-0.43002-0.45067-0.18258-0.82989-0.28523-2.6953-0.7811-0.86087-0.3034-0.37965-0.17159 0.079819-0.11917 0.17947-0.20509 2.8516-3.1291 0.99549-1.1693 0.71062-0.90356 0.47009-0.65134 0.72594-1.115 0.97698-1.6163 0.50343-0.874 0.31326-0.58218 0.45625-0.93848 0.23737-0.55626 0.1705-0.45297 0.19582-0.63255 0.13365-0.6081 0.091675-0.78332-0.004156-0.99316-0.079347-0.81812-0.12677-0.8227-0.22856-1.1474-0.3858-1.626-0.34052-1.1806-0.31671-0.95215-1.7569-4.8196-0.80618-2.124-1.1308-2.8065-0.70841-1.6704-0.38837-0.86959-0.40457-0.86077-0.5627-1.1126-0.73915-1.319-0.52016-0.8375-0.79605-1.1839-0.58498-0.8274-2.7175-3.727-1.6622-2.4072-1.0289-1.58-0.55462-0.90811-0.55315-0.9622-0.70797-1.3345-0.50965-1.0454-0.5357-1.1868-0.4025-0.97189-0.44053-1.1853-0.26012-0.79331-0.26187-0.8753-0.4914-1.744-0.37289-1.2528-0.35493-1.0727-0.21234-0.58473-0.22544-0.57809-0.3414-0.80011-1.1854-2.4544-0.1948-0.43295-0.21263-0.51311-0.25222-0.70454-0.1775-0.60576-0.13804-0.59087-0.090864-0.50908-0.066832-0.51355-0.059338-0.8396-0.002849-0.80311 0.025656-0.55364 0.060381-0.73012 0.082767-0.73236 0.62382-4.4743 0.1122-1.02 0.072736-0.98231 0.042715-1.0924 0.002355-1.4783-0.038737-1.1308-0.074547-1.1008-0.093807-0.89479-0.1757-1.2714-0.17381-1.0442-0.26414-1.3743-0.49765-2.2638-0.83599-3.4778-0.41675-1.8465-0.2679-1.3065-0.2899-1.5664-0.31704-1.9672-0.1966-1.4944-0.1303-1.3281-0.13758-1.8638-0.084103-0.85516-0.18876-1.347-0.23064-1.3321-0.26036-1.209-0.40175-1.6156-0.29832-1.0692-0.28803-0.85184-0.17975-0.6006-0.0884-0.47814-0.050172-0.50574-0.017427-0.44459 0.004001-0.52609 0.046034-0.76801 0.085851-0.78507 0.11596-0.79108 0.24344-1.3528 0.12432-0.82445 0.077354-0.83865 0.017362-0.84058-0.059423-0.82964-0.16234-0.85284-0.25366-0.81051-0.14058-0.34764-0.26725-0.55376-0.18469-0.3219-0.40671-0.57183-0.33961-0.35555-0.28368-0.22307-0.54144-0.2774-0.56426-0.178-0.55441-0.1428-0.51208-0.16836-0.24149-0.11585-0.91456-0.56713-0.21814-0.096163-0.20514-0.065518-0.37647-0.057352-0.22638 0.002405-0.47189 0.075121-0.48932 0.14814-1.6549 0.63931-0.74507 0.21168-0.62104 0.080114-0.59189-0.046957-0.35774-0.1124-0.39994-0.21239-0.32968-0.24889-0.33206-0.33007-0.23094-0.2941-0.1852-0.30943-0.11251-0.25913-0.075913-0.24935-0.054473-0.28532-0.027899-0.41407 0.031024-0.4223 0.1247-0.61311 0.23823-0.77095 0.56729-1.6327 0.81728-2.1684 0.17974-0.52065 0.16509-0.5668 0.11649-0.5372 0.043725-0.28746 0.051733-0.74343-0.005353-0.50337-0.029027-0.54929-0.079473-1.0927-0.039766-0.41616-0.0727-0.4803-0.094139-0.42477-0.14372-0.46255-0.097454-0.24564-0.2443-0.50567-0.54169-1.0136-0.16229-0.3468-0.23764-0.5844-0.29668-0.87275-0.23162-0.82463-0.15259-0.66616-0.10835-0.60274-0.087126-0.67574-0.050894-0.70656-0.010205-0.80886 0.020779-0.67851 0.099977-1.2832 0.7112-5.2651 0.34954-2.9194 0.53551-3.6944 0.063196-0.72292 0.024733-0.72362-0.014422-0.6274-0.071857-0.81186-0.1073-0.73446-0.15691-0.83183-0.50854-2.3143-0.27805-1.4644-0.50191-3.1985-0.43979-2.4297-0.12353-0.80324-0.14798-1.2748-0.20017-2.4003-0.1662-1.5064-0.19116-1.392-0.67208-4.4946-0.40549-2.2569-1.0784-5.1121-0.073487-0.086662-0.079648-0.16894-0.086896-0.25524-0.060027-0.26062-0.044267-0.34268-0.011742-0.30801 0.011368-0.31809 0.0262-0.26883 0.071946-0.4309 0.098725-0.4008 0.20977-0.69959 0.43127-1.2776 0.83687-2.051 0.23555-0.50304 0.21475-0.39251 0.39094-0.61275 0.22598-0.3126 0.2388-0.30194 0.49008-0.5414 0.31382-0.30698 0.56436-0.49631 1.2516-0.94042 0.4204-0.34065 0.5425-0.50468 0.48578-0.53928 0.20242-0.26662 0.3415-0.53699 0.36064-0.72674 0.30978-0.81915 0.59533-1.8114 0.11282-0.27943 0.1649-0.33754 0.12924-0.21718 0.24178-0.32476 0.25713-0.2661 0.2834-0.23469 0.37412-0.24864 0.24322-0.13659 0.74139-0.3361 0.51212 0.1161 1.0967 0.14349 0.64939 0.05529 0.62739 0.010432 0.58632-0.044583 0.45652-0.080044 0.4563-0.12802 0.58635-0.22692 0.89522-0.42729 0.79158-0.42703 1.432-0.85012 0.85684-0.54867 0.79152-0.54598 0.70514-0.51625 0.79592-0.60829 1.5589-1.2323 0.78981-0.55563 0.43978-0.26272 0.31608-0.16285 0.40634-0.17826 0.56578-0.18908 0.39897-0.085979 0.2743-0.033436 0.27847-0.010671 0.38446 0.021493 0.72944 0.12632 1.197 0.26894 0.33053 0.050986 0.43185 0.039879 0.82562 0.012982 0.74941-0.043532 0.59932-0.069271 0.60391-0.099693 0.51314-0.10856 0.57366-0.14842 0.96487-0.31025 1.7262-0.61556 1.0745-0.33196 1.4454-0.37099 1.7902-0.39776 0.58348-0.15946 0.31835-0.11092 0.31706-0.13462 0.3362-0.17548 0.424-0.27959 0.46562-0.38873 0.48066-0.47528 0.24447-0.26973 0.40233-0.48817 0.34963-0.48579 0.59953-0.93132 0.35286-0.44941 0.18117-0.18412 0.17114-0.1399 0.31468-0.18212 0.35084-0.12881 0.49251-0.10548 1.5578-0.22235 0.64616-0.10774 2.4048-0.49102 1.276-0.21053 0.79935-0.11128 0.79652-0.077802 0.74121-0.032653 0.60385 0.001758 2.3416 0.077336 1.0897-0.018873 0.60258-0.050348 0.6486-0.09763 0.51521-0.11415 0.64194-0.18605 0.62277-0.22487 0.51646-0.21933 0.65869-0.32145 0.7808-0.43554 0.67888-0.42001 0.77769-0.52175 3.2305-2.3197 0.19919-0.091655 0.36448 0.016298 0.44667 0.067973 0.86245 0.19851 0.61282 0.18039 0.59954 0.20586 0.82788 0.3319 0.52843 0.24376 0.51726 0.26564 0.71217 0.41819 0.76831 0.5484 0.60236 0.54007 0.50396 0.57252 0.45559 0.64655 0.44666 0.79501 0.28931 0.63458 0.31469 0.85496 0.22607 0.79006 0.18886 0.86968 0.15496 0.99569 0.1118 1.0036 0.29338 3.5613 0.10074 0.90188 0.13599 0.88458 0.20927 0.94155 0.3006 0.93846 0.38439 0.89313 0.46746 0.83882 0.35545 0.52449 2.4426 3.3284 2.8872 4.0784 1.1744 1.6212 0.6 0.78992 0.61426 0.76571 0.63465 0.73054 0.66309 0.6809 0.66097 0.57958 0.5566 0.403 0.35381 0.21522 0.40135 0.20871 0.39721 0.17545 0.53222 0.19779 0.56728 0.1733 0.65896 0.15155 0.64217 0.10011 0.84943 0.060776 0.49343-0.001255 0.95293-0.069652 1.2147-0.18593 0.76083-0.16019 1.3897-0.35829 3.3396-0.98702 0.59356-0.14411 0.84673-0.14784 0.46957-0.040833 0.45396-0.003031 0.72647 0.096096 0.49068 0.1706 0.61891 0.41431 0.33626 0.33559 0.31096 0.38662 0.40702 0.62492 0.37267 0.69224 0.32588 0.695 0.30965 0.72927 0.65013 1.7022 0.86861 2.5181 3.3757 10.185 1.0407 3.2915 1.0642 3.5913" stroke="#bdc660"/>
    </defs>
    <g clip-path="url(#p6d74310106)">
     <use y="280.512" fill="#bdc660" stroke="#bdc660" xlink:href="#m9d5a2eee1e"/>
    </g>
   </g>
  </g>
 </g>
 <defs>
  <clipPath id="p6d74310106">
   <rect x="7.2" y="7.2" width="185.25" height="266.11"/>
  </clipPath>
 </defs>
</svg>
