<?xml version="1.0" encoding="UTF-8"?>
<!DOCTYPE svg  PUBLIC '-//W3C//DTD SVG 1.1//EN'  'http://www.w3.org/Graphics/SVG/1.1/DTD/svg11.dtd'>
<svg width="371.52pt" height="260.74pt" version="1.1" viewBox="0 0 371.52 260.74" xmlns="http://www.w3.org/2000/svg" xmlns:xlink="http://www.w3.org/1999/xlink">
 <metadata>
  <rdf:RDF xmlns:cc="http://creativecommons.org/ns#" xmlns:dc="http://purl.org/dc/elements/1.1/" xmlns:rdf="http://www.w3.org/1999/02/22-rdf-syntax-ns#">
   <cc:Work>
    <dc:type rdf:resource="http://purl.org/dc/dcmitype/StillImage"/>
    <dc:date>2024-07-04T12:10:06.041892</dc:date>
    <dc:format>image/svg+xml</dc:format>
    <dc:creator>
     <cc:Agent>
      <dc:title>Matplotlib v3.7.1, https://matplotlib.org/</dc:title>
     </cc:Agent>
    </dc:creator>
   </cc:Work>
  </rdf:RDF>
 </metadata>
 <defs>
  <style type="text/css">*{stroke-linejoin: round; stroke-linecap: butt}</style>
 </defs>
 <g id="figure_1">
  <g id="patch_1">
   <path d="m0 260.74h371.52v-260.74h-371.52v260.74z" fill="none"/>
  </g>
  <g id="axes_1">
   <g id="PatchCollection_1">
    <defs>
     <path id="m52fb934a76" d="m252.67-241.34 0.057166 0.14259-0.028026 0.49037-0.16288 1.1087-0.29656 1.5427-0.57966 2.4453-0.76015 2.6366-1.6918 5.2821-0.41112 1.3631-0.32855 1.2106-0.21857 0.93019-0.16204 0.82174-0.15834 1.0584-0.091719 0.97217-0.033543 1.0656 0.061191 1.094 0.066547 0.48323 0.12231 0.59912 0.42965 1.227 0.61361 1.0556 0.67794 0.95239 0.76414 0.91249 1.4325 1.4581 0.56309 0.6321 0.55801 0.67991 2.9179 3.8482 0.77153 0.96526 0.97105 1.1145 0.968 0.97554 0.70308 0.62677 1.249 0.98539 2.5931 1.8697 2.267 1.5673 1.0673 0.63476 1.0892 0.50292 1.1362 0.31142 1.2212 0.05965 1.2615-0.15914 1.2901-0.3146 1.3089-0.41706 3.9567-1.4263 1.3027-0.39745 1.2801-0.28571 0.67956-0.094466 0.98107-0.076311 1.2891 0.017877 0.92828 0.070598 0.90542 0.13727 0.87175 0.23994 0.41831 0.1684 0.85556 0.4537 0.9348 0.63637 2.2247 1.756 1.3838 0.98494 1.1489 0.68698 0.65757 0.32951 1.6422 0.74916 0.88406 0.50905 0.6209 0.44057 0.55686 0.45595 0.8491 0.81525 0.59 0.65935 0.4811 0.60267 0.55022 0.77042 0.59969 0.93921 0.43679 0.74846 2.4841 4.7102 2.5977 4.6875 1.1145 1.8467 0.52179 0.76149 0.5217 0.68925 0.83732 0.97225 0.66724 0.67572 0.49928 0.45592 0.34714 0.2853 0.27296 0.18222 0.10896 0.015715-0.14067 0.13545-1.7059 1.2964-1.4805 1.1945-1.0931 0.93995-0.73188 0.68955-0.53087 0.54654-0.65503 0.77319-0.46154 0.67248-0.46871 0.88609-0.29859 0.74784-0.31798 1.0937-0.22296 1.1435-0.08473 0.66056-0.072061 1.2691 0.015099 0.93178 0.21823 3.1286 0.025162 1.54-0.035762 1.1121-0.071787 0.84517-0.086546 0.56778-0.1815 0.78735-0.3521 1.0548-0.2817 0.65393-0.36812 0.70592-0.35039 0.56328-0.48273 0.67166-0.4818 0.59716-2.2254 2.4451-0.68834 0.82543-0.43417 0.60268-0.32022 0.53143-0.22108 0.50692-0.035021 0.42486 0.13163 0.273 0.24704 0.21321 0.27675 0.13797 0.4582 0.13729 0.59514 0.073908 0.68769 0.002248 1.0274-0.094707 1.559-0.2833 1.4037-0.34886 0.9701-0.28171 0.97488-0.31478 1.5768-0.55736 2.7864-1.0984 4.4258-1.9066 1.0153-0.38833 0.7861-0.26437 0.93-0.25308 0.88501-0.15922 1.2333-0.040194 0.68632 0.094842 0.67006 0.17115 0.34603 0.11589 0.83752 0.36331 0.81988 0.45256 1.1472 0.74758 1.1868 0.86232 0.90625 0.70654 0.95032 0.8365 0.52469 0.53288 0.51968 0.59104 0.68697 0.93777 0.39992 0.64415 1.6455 2.8915 0.64336 1.0302 0.51423 0.74247 0.42175 0.51578 0.30204 0.3152 0.4676 0.4101 0.36838 0.2683 0.35897 0.22336 0.70795 0.34558 0.46385 0.16446 0.79841 0.18626 0.58488 0.072168 0.78595 0.041764 3.1226-0.036312 0.84425 0.037818 0.52619 0.059729 0.6583 0.12861 0.83838 0.26286 0.72837 0.33583 0.51212 0.34186 0.12301 0.13279 0.055571 0.16695 0.14468 0.15214 0.2909 0.53458 0.27243 0.64848 0.24533 0.75463 0.59606 2.3942 1.7957 6.5175 0.52341 2.0801 0.40316 2.0406 0.26366 1.9226 0.1208 1.5809 0.024283 0.84826-0.032832 1.2249-0.17223 1.3914-0.39741 1.3864-0.25222 0.55625-0.53974 0.9254-0.70437 0.97272-0.81151 0.97158-0.76611 0.83357-2.0649 2.1209-0.93717 1.111-0.53334 0.7831-0.22906 0.41524-0.26081 0.60353-0.1365 0.42386-0.1888 0.84941-0.31191 2.419-0.22697 1.1004-0.48124 2.0225-0.13608 0.85637-0.061096 1.1058-0.01719 1.5826-0.11433 1.8794 0.052952 1.4169 0.17618 1.824 0.065386 0.97079-0.004737 1.048-0.050882 0.46828-0.11148 0.48668-0.15802 0.39101-0.24962 0.38124-0.16359 0.17579-0.21878 0.17895-0.34891 0.18574-0.14849 0.04882-0.36377 0.065685-0.34103 0.014757-0.85047-0.067105-2.4113-0.34687-0.75952-0.073534-1.3094-0.06846-1.0584 0.009003-1.3123 0.097269-1.0573 0.14768-1.0897 0.21281-1.2396 0.31055-1.0882 0.33047-1.1671 0.41211-4.2002 1.7554-0.90616 0.30492-1.1258 0.27827-0.84462 0.13933-1.1744 0.13268-1.2631 0.091055-1.1432-6.23e-4 -0.72395-0.053094-0.80684-0.10541-1.1256-0.22151-1.1073-0.29038-0.93431-0.29079-1.7546-0.61789-1.6016-0.61132-2.5004-1.0132-0.71131-0.32628-0.50701-0.28858-0.5266-0.39668-0.27746-0.26627-0.32486-0.39005-0.37008-0.61798-0.38612-0.88245-0.27894-0.73496-0.3158-0.88205-0.26875-0.86912-0.30704-1.3108-0.31047-1.6594-0.28447-1.0927-0.32142-0.96516-0.32238-0.81091-0.42326-0.91675-0.86831-1.6943-1.8067-2.9043-1.7495-2.9094-0.29616-0.43764-0.3627-0.4089-0.24373-0.20528-0.27355-0.18242-0.40906-0.20398-0.62572-0.19148-0.94275-0.072198-1.0276 0.13478-0.87708 0.25496-0.90236 0.36225-0.92261 0.44631-1.3593 0.75457-1.3802 0.8454-2.0397 1.3365-2.9851 2.0538-1.6978 1.2199-1.4026 1.0911-0.55111 0.4816-0.67679 0.69924-0.5128 0.7418-0.35825 0.99334-0.025811 0.13209-0.075631 0.98681 0.096263 1.0008 0.10744 0.50333 0.14596 0.48914 0.38089 0.90745 0.30722 0.51821 0.35387 0.44855 0.48861 0.47346 0.66624 0.47439 0.74378 0.41711 2.1821 1.0941 1.1593 0.64959 2.378 1.4093 2.0843 1.1715 1.1036 0.70969 1.0221 0.78311 0.90356 0.8434 0.53076 0.58275 0.32094 0.40284 0.35831 0.51492 0.38507 0.6593 0.38294 0.76454 0.42143 1.0019 0.29357 0.89393 0.21204 0.99655 0.09765 1.0581 0.095206 2.0207 0.080257 0.70006 0.21206 1.133 0.22878 0.86274 0.25799 0.77648 0.33267 0.83104 0.2739 0.59726 0.33456 0.65001 0.4121 0.70288 0.45595 0.67781 0.51645 0.67301 1.0708 1.201 1.5647 1.6383 0.96785 1.1585 0.89678 1.2348 0.82277 1.292 1.5394 2.6847 0.44067 0.6988 2.062 2.9823 0.61475 0.92066 0.52149 0.84449 0.51591 0.92734 0.3868 0.78334 0.3269 0.7477 0.55994 1.554 0.25007 0.8352 0.34534 1.3196 0.55003 2.5311 0.23846 1.3707 0.20727 1.6425 0.083851 1.4122-0.024172 1.2923-0.07132 0.74724-0.0955 0.59667-0.11393 0.50801-0.1909 0.62634-0.16762 0.42444-0.16438 0.3465-0.31932 0.54338-0.43155 0.5623-0.87665 0.84003-1.0112 0.71298-1.2697 0.67787-0.72513 0.31209-0.76005 0.2787-1.4346 0.40562-0.70753 0.14809-1.1535 0.17696-1.2959 0.11486-1.0422 0.025421-0.74121-0.030207-0.27097-0.035564-0.099741-0.053882-0.09202 0.12405-0.19188 0.12695-0.35356 0.13752-0.41284 0.097276-0.44843 0.055877-0.45998 0.012172-0.42976-0.027216-0.53105-0.084476-0.51392-0.13676-0.4995-0.18853-0.58663-0.29995-0.76932-0.53705-0.85787-0.78713-0.79471-0.89667-0.75118-0.9485-4.0612-5.3386-1.0698-1.2656-0.49647-0.53607-0.66144-0.6655-0.9294-0.84658-1.0178-0.81479-0.72248-0.50574-0.74487-0.45556-1.1758-0.5888-1.2086-0.48044-1.2204-0.39195-1.2126-0.3166-1.2281-0.2571-1.5142-0.24257-0.7979-0.073404-0.91149 0.022282-0.56431 0.086909-0.46518 0.11806-0.43862 0.15067-0.83935 0.39056-1.2174 0.77837-0.97629 0.77193-0.74095 0.65481-0.7344 0.69661-1.4531 1.4865-1.8156 1.9992-2.1041 2.4334-3.3752 4.0703-0.89424 1.0099-1.1312 1.1839-0.75767 0.74127-1.6917 1.5344-0.8428 0.69928-1.0562 0.78385-0.90937 0.54164-1.0488 0.39452-0.70996 0.098745-0.82531-0.035339-0.83854-0.17652-1.0747-0.3983-0.88126-0.43627-1.3171-0.7557-2.6238-1.6473-6.2979-4.1567-1.0256-0.73615-1.0765-0.86302-0.60473-0.54964-1.0177-1.0599-3.1577-3.7966-2.2979-2.5026-0.76615-0.80016-0.89403-0.87849-0.70353-0.64115-0.85218-0.71826-1.0568-0.79905-1.1635-0.75238-1.6358-0.94461-0.72727-0.51044-0.62632-0.58167-0.44045-0.49397-0.80108-1.0425-0.48403-0.71807-0.5274-0.90206-0.72518-1.4067-2.2237-4.5701-1.4419-2.7836-0.60207-1.2308-0.43887-0.98504-0.27912-0.69994-0.38684-1.1214-0.72321-2.4767-0.20243-0.49775-0.23967-0.43393-0.24308-0.31933-0.29682-0.27637-0.79965-0.40017-0.61565-0.14568-0.68193-0.079134-0.86739-0.026295-0.92921 0.02889-1.9418 0.16475-3.3787 0.43103-6.0485 0.85708-4.6979 0.43728-1.0547 0.13497-1.0113 0.17174-1.593 0.32137-1.3522 0.19553-1.2033 0.064415-2.9991-0.16906-1.1547-0.004824-1.0274 0.035026-1.0519 0.072231-1.0702 0.11102-1.6145 0.23958-1.6299 0.32334-1.4112 0.34386-1.4081 0.40033-1.5385 0.50292-1.5218 0.56357-2.1985 0.93317-1.8996 0.92294-1.5145 0.82768-1.61 0.99767-0.818 0.56863-0.7739 0.58874-1.1073 0.96669-0.73729 0.78577-0.70657 1.0231-0.33624 0.76369-0.2037 0.68753-0.12024 0.57885-0.12794 1.041-0.042426 1.2725 0.052635 1.1686 0.16404 1.5983 0.31721 2.3827 0.21197 1.0712 0.42743 1.8461 1.6714 6.6965 0.43384 2.1195 0.18093 1.1335 0.10154 0.93565 0.027938 1.1781-0.057167 0.65079-0.12047 0.53263-0.23114 0.50908-0.31672 0.39379-0.36234 0.2514-0.4139 0.11449-0.42056-0.009308-0.46912-0.097753-0.91105-0.31154-1.1271-0.507-1.1935-0.62836-1.1465-0.68946-0.75889-0.5026-1.6509-1.1826-4.4236-3.3562-2.1793-1.5651-1.6524-1.0584-1.4268-0.8019-3.8773-1.9394-1.035-0.53354-1.2087-0.6823-1.0468-0.69577-0.7966-0.65815-0.49829-0.51681-0.26636-0.33267-0.22877-0.33362-0.41859-0.78789-0.31035-0.82448-0.27138-1.0066-0.50128-2.3724-0.26274-0.96216-0.37987-0.95387-0.20842-0.37891-0.57689-0.76982-0.58598-0.59022-0.48818-0.42429-1.5503-1.2536-0.71087-0.65083-0.66167-0.77731-0.49601-0.84008-0.39702-0.94197-0.29742-0.93227-0.25118-0.98489-0.21917-1.0251-0.99412-5.3732-0.2786-1.2851-0.30773-1.2492-0.33701-1.1787-0.37918-1.1078-0.43203-1.0139-0.88648-1.623-0.39413-0.79082-0.3477-0.98328-0.23815-1.0109-0.27258-1.8506-0.088121-0.51095-0.12565-0.46742-0.21911-0.47131-0.43536-0.48296-0.57838-0.32025-0.49459-0.12564-0.53903-0.053386-1.6736 0.006617-0.55619-0.016216-0.56058-0.051338-0.91127-0.16831-1.5875-0.36088-0.91132-0.14081-0.92477-0.018051-1.0224 0.18083-0.8109 0.32643-0.71791 0.40119-2.5117 1.6999-1.0818 0.621-1.1621 0.51259-0.68916 0.22549-1.1402 0.27849-1.1599 0.20632-3.1404 0.46578-2.4935 0.47772-3.1508 0.72831-0.91678 0.25375-0.9921 0.32392-0.93694 0.37131-0.75463 0.36053-0.88069 0.50748-0.75019 0.50914-0.42696 0.32411-0.79481 0.68115-0.48991 0.47682-0.42403 0.44882-1.6091 1.829-0.83134 0.81757-0.58926 0.49601-0.62136 0.45749-0.66229 0.43209-0.95458 0.55572-1.2431 0.64521-1.7418 0.7814-0.80106 0.30579-2.9143 0.99615-1.2018 0.49968-1.3497 0.65698-2.2775 1.1631-1.1219 0.49826-0.69113 0.24901-0.75199 0.18954-0.46817 0.0632-0.20804 0.002206-0.1747-0.036734-0.049945-0.049461-0.34854-0.14208-1.46-0.3463-1.0581-0.3747-0.39248-0.063975-0.43352 0.040517-0.82707 0.20893-0.2665 0.039222-2.0692-0.016391-0.52053 0.056741-0.27434 0.083829-0.14976-1.2687-0.20928-1.2926-0.17718-0.81626-0.32092-1.1306-0.48968-1.3301-0.36642-0.8171-0.47548-0.9319-0.73289-1.288-0.80769-1.2733-0.84083-1.2192-0.79649-1.084-0.98796-1.2635-0.95569-1.1446-1.7563-1.9487-4.5958-4.8776-0.9387-1.0974-0.36746-0.51422-0.42888-0.74556-0.18695-0.38711-1.5985-3.7527-0.35685-0.88036-0.28227-0.8505-0.093403-0.38045-0.089629-0.9929 0.045761-0.43292 0.16195-0.66855 0.66375-1.8487 0.14344-0.59586 0.094555-0.63462 0.051556-0.85142-0.052566-2.9459-0.057404-1.1384-0.098585-0.99936-0.087711-0.59737-0.18952-0.81985-0.18292-0.51733-0.16522-0.35408-0.36362-0.58746-0.39678-0.50214-0.35113-0.38855-1.8443-1.9045-0.32431-0.38977-0.20212-0.2938-0.19321-0.38073-0.091626-0.29169-0.026436-0.82351 0.24455-0.85062 0.46472-0.81134 0.49635-0.55765 0.28824-0.23391 0.92112-0.48436 1.0521-0.28232 1.1387-0.11628 0.68676-0.014171 0.55772 0.032089 0.38279 0.093913 0.019922 0.028925 0.43776 0.030088 1.6944-0.035372 1.7492-0.13375 6.3947-0.7569 2.181-0.1867 1.0781-0.040714 3.1699-1.29e-4 4.0917-0.1689 1.1463-0.095599 2.3684-0.35883 0.76445-0.08159 1.0018-0.050045 1.0168 0.008388 2.5763 0.15834 1.5213 0.063646 2.2535 0.019128 2.2506-0.019688 1.623 0.026788 6.1535 0.34442 6.519 0.18731 1.5775 0.004256 1.4526-0.047943 3.6024-0.17999 0.90704-0.009027 0.86888 0.030017 1.9959 0.19293 0.91637 0.023382 0.87173-0.13673 0.94892-0.43581 0.91087-0.69657 0.88486-0.90006 0.86835-1.0587 0.85931-1.1828 0.8561-1.2805 0.85733-1.3583 1.7299-2.893 2.088-3.6434 4.369-7.8282 0.53371-0.9386 0.22655-0.33188 1.4985-2.4448 1.7383-2.7365 1.7607-2.6849 1.3516-1.9659 0.46318-0.73313 0.36301-0.72281 0.63863-1.5068 0.23349-0.45091 0.22676-0.36111 0.44906-0.56235 1.8303-1.9176 0.51787-0.58596 0.38551-0.47127 0.67403-0.91028 1.3649-1.8835 0.65846-0.98844 0.30056-0.55093 0.30085-0.64712 0.25195-0.64874 0.27109-0.97077 0.081648-0.52054 0.01993-1.0614-0.11892-1.0979-0.22715-1.2247-0.45536-2.0434-0.77207-3.6881-0.68312-2.8499-0.34686-1.5632-0.43076-2.5314-0.1133-1.2823 0.053237-1.2248 0.23568-0.97147 0.48324-0.88667 0.37944-0.44434 0.34194-0.30888 0.39755-0.29704 0.5261-0.33686 2.276-1.302 3.1736-1.8793 1.3596-0.88272 2.0401-1.386 0.6514-0.40797 0.97733-0.53607 0.69289-0.32565 0.80012-0.33145 0.6797-0.24086 0.6577-0.18671 0.54985-0.11235 0.52711-0.062965 0.63531-0.007508 0.4923 0.047783 0.60141 0.1317 0.63696 0.25314 0.4958 0.29658 0.45637 0.3818 0.31158 0.34735 0.26515 0.37932 0.32968 0.63544 0.35816 1.0419 0.24734 1.1976 0.144 1.3704 0.036089 1.0528-0.023706 1.2236-0.058659 0.90645-0.1181 1.1519-0.17195 1.2256-0.43343 2.5682-0.099071 1.1855-0.001587 0.75004 0.061651 0.90709 0.089953 0.64017 0.15483 0.67499 0.24151 0.64269 0.30854 0.51802 0.38206 0.42862 0.66685 0.46394 0.49817 0.20182 0.52839 0.11451 0.69867 0.014338 0.70202-0.13704 0.65157-0.27813 0.23795-0.14366 0.34891-0.25581 0.50007-0.46555 0.46649-0.54112 0.62517-0.87606 1.673-2.6916 0.41916-0.61584 1.0339-1.3419 0.45886-0.47053 0.53951-0.36688 0.47396-0.17527 0.40988-0.037834 0.33315 0.064372 0.26974 0.13486 0.22523 0.19312 0.15235 0.19377 0.14807 0.26988 0.23268 0.8342 0.72548 5.2065 0.12299 1.2001 0.097249 1.7257 0.030872 1.2453-0.008447 1.6379-0.06354 1.9561-0.07812 1.1405-0.17857 1.53-0.22438 1.1809-0.36374 1.343-0.32406 0.8587-0.36834 0.82322-0.44833 0.90956-1.4544 2.4697-0.39538 0.8026-0.10935 0.3306-0.02884 0.22118 0.078581 0.25421 0.21618 0.11769 0.53051-0.11992 0.71273-0.42321 0.76234-0.61098 0.52275-0.49064 0.83411-0.90078 0.79052-0.99511 0.53564-0.75657 0.75215-1.2223 0.28963-0.56341 0.24688-0.56644 0.29191-0.87842 0.15661-0.67308 0.10577-0.63674 0.1244-1.2659 0.03851-0.79784 0.019471-3.8286 0.038827-0.8574 0.063156-0.65809 0.11005-0.70725 0.19539-0.79505 0.24647-0.65668 0.20737-0.39419 0.36076-0.4975 0.44451-0.46649 1.5277-1.3851 0.47217-0.51963 0.41242-0.54075 0.28741-0.44208 0.37461-0.68385 0.43026-1.0386 0.19066-0.61189 0.21452-0.93334 0.1326-1.1422 0.11557-5.0366 0.1879-4.1342 0.18591-2.6771 0.16113-1.7971 0.18518-1.6271 0.21465-1.4372 0.16719-0.88828 0.26916-1.1693 0.25392-0.88865 0.32177-0.90945 0.38408-0.86536 0.7641-1.2592 0.93271-1.0481 1.0918-0.92274 1.2021-0.83002 1.1343-0.68401 1.1643-0.64461 3.8576-2.0261 0.83456-0.4731 0.76764-0.47362 0.68254-0.47561 1.0429-0.84292 0.49086-0.3546 0.49283-0.2688 0.52343-0.19221 0.55847-0.098729 0.60419 0.023842 0.6261 0.14509 0.5139 0.1974 0.63898 0.32971 0.63735 0.41228 0.62488 0.48 0.41182 0.35444 0.91923 0.8543 0.9086 0.92314 0.86848 0.97111 1.6231 1.9926 0.81129 0.87062 0.26948 0.24484 0.53421 0.43017 0.53484 0.35998 1.732 0.91871 1.4176 0.95796 0.63951 0.35368 0.2749 0.11056 0.3449 0.096871 0.78635 0.053633 0.81997-0.11749 0.80999-0.23999 0.70031-0.30957 0.49689-0.31474 0.46851-0.42723 0.2603-0.30906 0.26964-0.38428 0.2439-0.47161 0.089386-0.25438 0.059934-0.26879 0.01448-0.47016-0.11336-0.49469-0.72451-1.3683-0.17-0.6176-0.15099-1.634-0.31656-2.2468-0.040242-0.99479 0.077605-0.90678 0.6713-4.2921 0.58549-2.9364 0.50789-2.9442 0.20104-1.6208 0.095189-1.2584 0.038644-1.2288-0.029768-1.4091-0.054356-0.79513-0.40504-3.5092-0.47856-3.2571-0.10786-0.99223-0.01366-1.0564 0.21114-0.92616 0.42756-0.67719 0.62221-0.60949 0.76442-0.58158 0.88988-0.59549 0.98191-0.57707 1.1239-0.56445 1.1883-0.53068 2.4612-1.0301 3.5511-1.5416 1.374-0.51471 0.76642-0.25288 1.1017-0.31018 0.91496-0.19513 0.9206-0.12413 0.81059-0.038946 0.81123 0.030385 1.2551 0.18229 1.2483 0.31308 1.2417 0.40542 3.688 1.4221 1.2398 0.41143 1.262 0.30344 1.3004 0.15875 0.90212 0.03542 0.91437-0.011139 1.7239-0.11647 0.93895-0.10538 1.5112-0.23601 0.94197-0.19475 1.2984-0.32645 1.8521-0.54641 7.0893-2.2773 1.3353-0.35902 1.1975-0.19384 0.98726 0.044377 0.57109 0.22388 0.34682 0.33706 0.062423 0.4001" stroke="#bdc660"/>
    </defs>
    <g clip-path="url(#p44ea7e9d15)">
     <use y="260.743801" fill="#bdc660" stroke="#bdc660" xlink:href="#m52fb934a76"/>
    </g>
   </g>
  </g>
 </g>
 <defs>
  <clipPath id="p44ea7e9d15">
   <rect x="7.2" y="7.2" width="357.12" height="246.34"/>
  </clipPath>
 </defs>
</svg>
