<?xml version="1.0" encoding="UTF-8"?>
<!DOCTYPE svg  PUBLIC '-//W3C//DTD SVG 1.1//EN'  'http://www.w3.org/Graphics/SVG/1.1/DTD/svg11.dtd'>
<svg width="196.36pt" height="280.51pt" version="1.1" viewBox="0 0 196.36 280.51" xmlns="http://www.w3.org/2000/svg" xmlns:xlink="http://www.w3.org/1999/xlink">
 <metadata>
  <rdf:RDF xmlns:cc="http://creativecommons.org/ns#" xmlns:dc="http://purl.org/dc/elements/1.1/" xmlns:rdf="http://www.w3.org/1999/02/22-rdf-syntax-ns#">
   <cc:Work>
    <dc:type rdf:resource="http://purl.org/dc/dcmitype/StillImage"/>
    <dc:date>2024-07-04T12:10:11.463650</dc:date>
    <dc:format>image/svg+xml</dc:format>
    <dc:creator>
     <cc:Agent>
      <dc:title>Matplotlib v3.7.1, https://matplotlib.org/</dc:title>
     </cc:Agent>
    </dc:creator>
   </cc:Work>
  </rdf:RDF>
 </metadata>
 <defs>
  <style type="text/css">*{stroke-linejoin: round; stroke-linecap: butt}</style>
 </defs>
 <g id="figure_1">
  <g id="patch_1">
   <path d="m0 280.51h196.36v-280.51h-196.36v280.51z" fill="none"/>
  </g>
  <g id="axes_1">
   <g id="PatchCollection_1">
    <defs>
     <path id="m59c9903033" d="m180.43-71.222 0.37368 0.50816 0.078888 0.98675-0.17284 1.0179-0.4232 1.0562-0.32377 0.5265-0.46046 0.58316-0.45571 0.46798-0.46807 0.40817-0.67877 0.50228-0.54504 0.34681-1.3086 0.68674-1.5444 0.62243-1.0942 0.34315-0.82452 0.20984-1.0452 0.2039-0.77875 0.10112-1.9868 0.013088-1.8851-0.35146-1.7075-0.73374-1.072-0.76385-0.62929-0.5739-0.9388-1.0187-1.9967-2.4262-1.1003-1.2092-3.5436-3.5836-3.9995-4.1586-1.4981-1.4392-0.76188-0.64932-0.6993-0.50014-0.68487-0.34285-0.86094-0.15663-0.72547 0.11049-0.63745 0.32296-0.31166 0.27726-0.23173 0.29695-0.29259 0.6109-0.24903 1.0185-0.40799 2.7684-0.22652 0.95424-0.57691 1.6184-1.3119 3.2523-1.3431 3.7014-0.82257 2.0116-0.79593 1.6111-0.64694 1.098-0.65454 0.98446-1.3405 1.7675-0.78021 0.93431-1.2692 1.4226-1.2895 1.3346-2.6381 2.5322-8.7029 8.0047-5.2391 4.6645-1.8685 1.5841-2.2385 1.8161-1.9512 1.4895-1.8345 1.2787-3.9714 2.4299-2.1332 1.4226-1.7002 1.3654-3.5482 3.0452-1.3514 1.0616-1.5053 1.0689-1.5784 0.99533-1.4699 0.81298-1.363 0.64121-1.4183 0.5222-1.5657 0.35256-1.2155 0.065995-0.79834-0.082724-0.91456-0.25122-0.605-0.27194-0.45011-0.25747-0.68357-0.47761-0.54084-0.44872-0.90687-0.88765-0.76459-0.88935-1.1839-1.6633-0.76618-1.2972-0.69006-1.388-0.77821-1.9521-0.63777-1.9717-0.55341-1.9776-1.1923-4.5534-0.16536-0.44431-0.11765-0.075863-0.1334-0.21757 0.029761-0.90715 0.27732-1.4644 0.92193-4.0879 0.38238-2.0143 0.73952-4.5868 0.86549-5.9838 0.4532-2.851 0.51705-2.7742 0.30894-1.4409 0.41559-1.6864 0.35914-1.2769 0.3927-1.2463 0.67672-1.8474 0.8825-1.9274 0.51041-0.91105 0.92277-1.4182 0.91753-1.2413 2.5289-3.099 0.6662-0.87459 0.5908-0.94003 0.34756-0.74995 0.14465-0.43168 0.18009-0.87212 0.053719-0.90911-0.056431-0.91546-0.089984-0.60645-0.31829-1.2418-0.27243-0.72371-0.46772-0.95122-0.54841-0.85051-0.34865-0.44087-0.4729-0.50483-0.62343-0.53284-0.72034-0.45922-0.60701-0.27093-0.59238-0.16826-0.85354-0.088298-0.92118 0.067246-0.87204 0.18094-0.9478 0.29206-1.0651 0.40638-3.938 1.6542-1.4155 0.48755-1.6076 0.40895-0.7886 0.13588-1.0568 0.11354-0.89763 0.03681-0.84774-0.011961-1.2886-0.091242-1.3973-0.18058-1.496-0.27067-1.5982-0.36203-1.3179-0.34576-1.9452-0.58552-1.7052-0.61554-1.0688-0.45088-1.6669-0.828-1.4125-0.83916-1.2261-0.84527-0.87678-0.66945-3.3736-2.7295-0.82412-0.59848-0.74441-0.49-1.0324-0.58041-0.77913-0.34653-0.77014-0.24966-1.1602-0.18342-0.97615-0.006228-1.9449 0.09722-1.0061-0.063665-1.0825-0.21627-0.58602-0.18235-1.2109-0.49303-0.66803-0.33023-0.44976-0.26796-0.63074-0.50351-0.28109-0.31313-0.22872-0.3314-0.22006-0.44659-0.14081-0.45701-0.095909-0.87325 0.018277-0.64374 0.30888-3.8996 0.03285-1.1503-0.07352-1.2521-0.16282-1.0176-0.21678-0.8418-0.33205-0.89443-0.4725-0.89681-0.48492-0.67301-0.3816-0.41612-0.56289-0.48089-0.43662-0.28614-0.57176-0.28414-0.85724-0.27141-0.94577-0.11538-0.74159 0.059771-0.72448 0.37617-0.48136 0.15806-0.57918 0.10121-0.613-0.013491-0.29889-0.067764-0.56736-0.23801-0.48993-0.3053-1.0938-0.90929-1.0824-1.081-0.76445-0.9528-0.50356-0.78204-1.3041-2.2412-0.95312-1.3451-1.0095-1.1486-1.0417-0.97725 0.35739-0.11544 2.8095 0.014255 1.2111-0.030383 1.0332-0.073749 0.85975-0.10427 1.1758-0.2202 1.4977-0.4443 1.6167-0.76225 1.1714-0.83295 1.2255-1.3236 0.95489-1.5129 0.76794-1.6076 0.51812-1.3204 0.37936-1.3351 0.17025-1.3602-0.093537-1.3869-0.24472-1.1132-0.3836-1.1418-0.36502-0.84797-0.62618-1.1984-0.89688-1.4486-1.5282-2.2093-0.82028-1.1283-1.3336-1.7288-2.84-3.3914-1.1299-1.4431-0.40436-0.63884-0.3431-0.80596-0.05544-0.67075 0.08913-0.33318 0.34298-0.52206 0.54884-0.46431 0.76012-0.4347 0.96214-0.40079 1.5448-0.47272 3.936-0.95927 2.5336-0.67003 1.3423-0.41635 0.86452-0.31092 1.054-0.45306 0.32302-0.16334 1.4572-0.94028 1.304-1.163 1.1393-1.3402 0.95264-1.4836 0.7324-1.6033 0.3077-0.95988 0.24858-0.98882 0.30628-1.4851 0.68856-3.6289 0.80538-3.9301 0.25076-1.0264 0.47854-1.4374 0.83172-1.6465 1.0325-1.6134 1.2367-1.7641 3.9207-5.2875 1.1038-1.5861 1.4104-2.2308 0.70182-1.2095 0.76523-1.3987 0.72745-1.433 0.80291-1.7451 2.6849-6.5957 0.8132-2.2748 0.30084-1.0401 0.23846-0.99942 0.35236-2.117 0.17532-1.4016 0.10843-1.3921-0.02062-1.578-0.2138-1.4796-0.36843-1.457-0.47013-1.4283-0.52366-1.3907-0.82683-1.9081-0.4872-0.89208-1.1157-1.5553-6.5824-7.3624-0.91122-1.07-0.28702-0.48022 10.913-5.2697 7.6835-3.5516 3.8591-1.7348 7.9204-3.4744 7.3615-3.1458 4.634-1.8396 3.5295-1.2449 3.4065-1.0303 6.3498-1.7497 0.1088 0.66258 0.27251 1.1663 0.18198 0.66769 0.37254 1.0897 0.29071 0.66888 0.33287 0.63382 0.37845 0.60214 0.65713 0.84825 0.83756 0.85677 0.41199 0.3661 3.999 3.1227 1.9232 1.5925 1.8423 1.6766 1.2505 1.2279 1.7188 1.8649 2.538 2.9858 3.0859 3.8031 2.2397 2.948 0.99316 1.4068 1.112 1.6739 0.99441 1.6168 0.96673 1.7334 0.83576 1.7026 0.63372 1.5305 0.36039 1.0642 0.36254 1.4652 0.12702 0.86168 0.042825 0.58561-0.036237 1.2245-0.20484 1.1983-0.22911 0.79396-0.40783 1.0591-0.53801 1.1181-0.46953 0.84623-0.63086 1.0251-0.60454 0.90419-2.5364 3.519-1.0776 1.5563-1.3192 2.1118-0.6547 1.1587-1.4569 2.8657-1.4047 3.1319-1.581 3.9276-0.53719 1.586-0.24331 0.86566-0.33667 1.6015-0.18444 1.426-0.10057 1.7489 0.021989 1.5848 0.16584 1.9363 0.17074 1.1594 0.2378 1.2228 0.3252 1.3408 0.68022 2.2868 1.0698 2.9378 1.2553 2.9053 1.8653 3.8318 1.4585 2.713 1.3308 2.223 2.0648 3.0927 3.7983 5.3424 3.0129 4.4136 1.1145 1.4787 1.2986 1.5077 1.4252 1.3848 1.5084 1.2614 1.8052 1.402 4.3257 3.2065 2.7599 1.9255 2.7476 1.7838 2.8599 1.7499 4.585 2.7182 0.87959 0.63071 0.99717 1.0593 0.60295 1.2255 0.16293 1.1355-0.016163 0.8257-0.22178 2.8829 0.032976 1.5413 0.19786 1.7641 0.20716 1.2305 0.73316 3.3531 0.84661 3.3127 0.90782 3.1963 1.3682 4.554 1.2846 4.0928 1.5771 4.8124 0.72268 2.0735 1.2993 3.4597 1.3566 3.2659 1.0802 2.4048 2.5965 5.4407 1.6846 3.7115 1.3044 3.1676 0.35178 0.9627 0.086968 0.3886" stroke="#bdc660"/>
    </defs>
    <g clip-path="url(#p474d16f157)">
     <use y="280.512" fill="#bdc660" stroke="#bdc660" xlink:href="#m59c9903033"/>
    </g>
   </g>
  </g>
 </g>
 <defs>
  <clipPath id="p474d16f157">
   <rect x="7.2" y="7.2" width="181.96" height="266.11"/>
  </clipPath>
 </defs>
</svg>
