<?xml version="1.0" encoding="UTF-8"?>
<!DOCTYPE svg  PUBLIC '-//W3C//DTD SVG 1.1//EN'  'http://www.w3.org/Graphics/SVG/1.1/DTD/svg11.dtd'>
<svg width="371.52pt" height="249.85pt" version="1.1" viewBox="0 0 371.52 249.85" xmlns="http://www.w3.org/2000/svg" xmlns:xlink="http://www.w3.org/1999/xlink">
 <metadata>
  <rdf:RDF xmlns:cc="http://creativecommons.org/ns#" xmlns:dc="http://purl.org/dc/elements/1.1/" xmlns:rdf="http://www.w3.org/1999/02/22-rdf-syntax-ns#">
   <cc:Work>
    <dc:type rdf:resource="http://purl.org/dc/dcmitype/StillImage"/>
    <dc:date>2024-07-04T12:10:08.203773</dc:date>
    <dc:format>image/svg+xml</dc:format>
    <dc:creator>
     <cc:Agent>
      <dc:title>Matplotlib v3.7.1, https://matplotlib.org/</dc:title>
     </cc:Agent>
    </dc:creator>
   </cc:Work>
  </rdf:RDF>
 </metadata>
 <defs>
  <style type="text/css">*{stroke-linejoin: round; stroke-linecap: butt}</style>
 </defs>
 <g id="figure_1">
  <g id="patch_1">
   <path d="m0 249.85h371.52v-249.85h-371.52v249.85z" fill="none"/>
  </g>
  <g id="axes_1">
   <g id="PatchCollection_1">
    <defs>
     <path id="ma965b000be" d="m311.76-183.65 0.089617 0.83963 0.11423 0.3976 0.23143 0.56999 0.361 0.69237 1.2181 2.1243 0.90646 1.8146 1.2444 2.2834-0.11089 0.25924-0.53614 0.55188-1.5684 1.3903-2.1599 1.7265-2.063 1.491-2.5641 1.6767-2.1839 1.3265-4.8733 2.8024-1.017 0.6103-1.3287 0.87088-1.3872 1.1016-1.0331 1.166-0.53178 1.0285-0.23658 1.3526 0.053951 1.1364 0.177 1.0957 0.30181 1.3001 1.4789 5.5657 0.47398 2.2006 0.39436 2.3669 0.15133 1.3818 0.095463 1.6879 0.003025 5.4567 0.078181 2.0379 0.15887 1.4087 0.13515 0.7843 0.28571 1.2165 0.16499 0.55534 0.30622 0.85033 0.25617 0.59086 0.5169 0.99134 0.29111 0.46745 0.53509 0.73904 0.5639 0.65305 1.1536 1.0755 0.77025 0.59758 1.0992 0.74186 1.1077 0.6813 1.1096 0.60949 0.87352 0.39372 0.68617 0.25587 0.7158 0.21328 0.96119 0.20749 1.8594 0.24076 3.0115 0.21106 2.0784 0.023657 1.8081-0.097065 1.4393-0.19186 1.2674-0.27842 3.2561-0.93833 5.0944-1.5525 1.5633-0.37341 1.0209-0.19239 1.195-0.1647 0.60629-0.044265 0.74862 0.011635 0.54861 0.08787 0.32827 0.10325 0.41101 0.20495 0.3251 0.23872 0.23039 0.22071 0.42716 0.57174 0.19249 0.37762 0.14621 0.41035 0.085777 0.43622 2.58e-4 0.57531-0.31632 1.0615-0.47544 0.84457-0.98827 1.3256-0.73773 0.86112-2.9361 3.2016-1.0523 1.2128-0.97602 1.2659-0.28203 0.41518-0.68362 1.2493-0.31874 0.96765-0.074582 0.43381-0.038998 0.53703 0.020623 0.66656 0.18513 1.1551 0.27677 0.96521 0.32572 0.84338 0.55484 1.1055 0.63654 1.0162 0.34761 0.48976 1.5458 2.0057 0.65054 0.89896 1.0383 1.6592 0.51725 0.97378 0.82406 1.8255 0.58387 1.5301 1.0926 3.0768 0.4204 1.055 0.39041 0.85837 0.82041 1.5249 0.62525 1.01 1.4184 1.9836 1.1661 1.4162 3.4329 3.8969 1.0932 1.3741 0.91542 1.3531 0.81274 1.6066 0.39608 1.2882-0.10647 0.65446-0.4989 0.12172-0.72923 0.26841-2.0982 0.8595-3.2127 1.468-2.0682 1.0406-1.3005 0.69386-2.5297 1.4349-6.8922 4.1554-5.0052 2.8391-3.0832 1.6725-1.9604 0.91369-1.614 0.62462-1.0999 0.35158-1.6518 0.42359-1.1649 0.24112-2.5398 0.41781-6.2174 0.83448-1.5009 0.25955-1.2468 0.26743-1.4255 0.38174-1.7286 0.57243-1.4508 0.55337-4.1054 1.7193-2.5099 1.1305-1.4111 0.77578-0.74508 0.47242-1.3339 0.93629-2.9241 2.2005-3.3087 2.5884-1.5559 1.3408-1.4956 1.405-1.4245 1.4547-2.951 3.1933-1.5046 1.3353-1.6593 1.2355-1.7832 1.1532-1.8825 1.0824-1.9619 1.0176-8.0399 3.8691-9.2134 4.3516-2.077 1.0203-0.39909 0.23743-0.069387-0.46325-0.38334-0.63272-0.6058-0.78706-1.0077-1.105-3.1752-3.1867-1.4713-1.6037-1.8742-2.2685-1.4237-1.8846-1.3634-1.914-4.0263-5.8961-0.81763-1.1329-1.5237-1.9612-0.70576-0.83206-0.9611-1.0431-0.98412-0.94396-0.88118-0.72592-0.90506-0.62297-0.85018-0.47682-2.892-1.3571-1.2493-0.70312-2.5896-1.6348-1.1266-0.66904-1.1697-0.6029-1.6157-0.65088-1.6729-0.53173-2.6438-0.72374-1.3709-0.34096-1.4588-0.29931-0.86326-0.13176-1.2172-0.096982-1.2517 0.077241-0.60063 0.13329-0.88374 0.34233-0.8836 0.50908-1.2672 0.96333-1.5828 1.3241-1.5202 1.1801-0.76296 0.53801-1.5004 0.94299-1.3586 0.72152-1.5426 0.66315-1.9563 0.6242-2.0373 0.46696-2.096 0.34922-2.138 0.26208-2.1675 0.1983-4.3893 0.27132-6.6456 0.2444-15.531 0.42608-4.4088 0.19749-2.1908 0.14109-2.1766 0.18598-2.1567 0.24893-2.1293 0.3359-2.0918 0.45451-1.3973 0.39827-0.98342 0.33821-0.63985 0.24695-1.9003 0.83977-1.8665 0.94829-1.8448 1.0202-5.5022 3.1941-1.8519 1.0177-1.9709 1.0036-1.9763 0.94499-3.8067 1.717-1.6556 0.64582-1.768 0.55986-1.4014 0.32599-1.382 0.19078-1.3555 0.024265-1.3784-0.17184-1.3549-0.31951-0.97849-0.29182-3.3182-1.1523-0.9211-0.28867-3.7189-0.96078-1.3028-0.43746-1.5387-0.68295-1.0303-0.5427-2.8701-1.6259-1.3336-0.69605-0.91688-0.41758-0.93547-0.36234-1.3874-0.41479-1.4095-0.30987-1.4141-0.23849-1.5888-0.20088-1.114-0.07318-1.1541 0.003706-1.1233 0.10076-0.93886 0.16971-2.5518 0.6666-1.5843 0.506-2.4149 0.92946-1.2784 0.64544-0.65604 0.46303-0.71052 0.73257-0.70259 0.90724-0.80798 0.89079-0.68358 0.52652-0.81059 0.45511-0.9456 0.37489-0.67588 0.19283-1.5902 0.29727-1.4867 0.15918-1.2183 0.070315-1.8228 0.016654-1.8915-0.074615-2.014-0.17572-2.58-0.37024-1.7-0.33475-3.3151-0.74811-1.2984-0.25529-0.75187-0.10988-1.3541-0.13353-1.3121-0.063241-1.3227 0.013059-0.75864 0.050724-0.93133 0.12122-1.7585 0.46105-1.6043 0.70235-1.3627 0.85722-1.0138 0.90484-0.58974 0.80433-0.11598 0.43252-0.4026 0.23177-0.6167-0.15186-0.84924-0.66055-0.84189-1.0669-0.5319-0.89079-0.6899-1.5639-0.31294-1.0829-0.17369-1.1162-0.009498-1.1712 0.044331-0.48875 0.18948-1.0784 0.27069-0.9728 0.23387-0.66396 0.56806-1.3094 1.4552-2.8156 0.96724-2.0974 1.0975-2.7443 0.7459-2.2054 0.28469-1.0165 0.45858-1.9636 0.39731-2.2108 0.11204-0.90551 0.066363-1.294-0.10485-1.2541-0.25646-1.0328-0.28367-0.77842-0.32107-0.72565-0.85514-1.6028-1.7424-2.8578-0.54294-0.95941-0.57855-1.103-0.68598-1.4651-0.45158-1.1224-0.41682-1.2668-0.26338-1.0858-0.13146-0.83376-0.061928-1.0489 0.031608-0.66967 0.11665-0.7576 0.3561-1.1248 0.53016-1.1007 0.89458-1.4719 1.2554-1.8078 3.1625-4.3139 1.774-2.3318 1.2771-1.574 2.1648-2.4435 1.2576-1.2688 0.83163-0.70496 2.7898-1.924 1.0196-0.82705 1.0074-0.92842 1.0056-1.002 1.1636-1.2309 1.3425-1.5755 1.1145-1.485 0.91984-1.3567 1.1848-1.9808 1.0895-2.1195 0.80916-1.8611 0.66313-1.8257 0.89986-2.9969 0.63788-2.4818 0.13833-0.68633 0.24673-1.6391 0.19382-2.3627 0.051124-1.7688-0.045709-1.3803-0.14574-1.5651-0.5354-4.6324-0.11374-2.1955 0.030865-1.4001 0.094938-1.1452 0.42862-3.054 0.13951-1.3356 0.036957-0.88444-0.042139-1.119-0.08737-0.7283-0.15154-0.82504-0.45009-1.6843-0.36852-1.1085-0.38343-1.0112-0.71358-1.5156-0.5672-0.92665-0.57725-0.74-0.66352-0.70406-0.83986-0.7601-0.91802-0.72888-1.1932-0.84995-1.2653-0.82485-1.2897-0.79014-5.161-3.0253-2.1458-1.3122-1.9534-1.2949-0.9627-0.69756-0.93343-0.73462-0.87455-0.7598-1.1509-1.162-0.69173-0.8483-0.5737-0.87099-0.5202-1.1172-0.25844-1.1307 0.051581-1.1267 0.42001-1.167 0.60846-0.9825 0.73762-0.91559 0.76893-0.81612 1.6033-1.5051 2.1166-1.8833 0.44824-0.42724 0.12651-0.18563 0.10482 0.57751 0.49109 0.73482 0.78421 0.74155 1.0196 0.6052 1.3723 0.39298 1.2997 0.082193 1.327-0.13658 1.3498-0.34606 0.64748-0.24159 0.76845-0.354 1.2255-0.7091 1.5715-1.1237 3.742-3.026 1.8732-1.3875 5.0634-3.246 1.9311-1.1583 1.3198-0.73096 1.1545-0.57963 1.1055-0.48587 1.5424-0.55249 1.0405-0.30461 2.3426-0.54111 1.5344-0.26794 1.0804-0.13618 1.0615-0.076539 3.1176 0.029668 3.3929-0.074663 1.276 0.013555 1.5305 0.11441 1.525 0.19744 2.9055 0.50384 1.3529 0.33159 1.2878 0.46614 0.95522 0.49221 0.9154 0.58494 1.3107 0.97799 2.3486 1.8593 1.0829 0.75199 0.99999 0.56398 1.0274 0.41298 0.84267 0.20021 0.8575 0.10135 1.3679 0.013491 1.1373-0.099159 1.2381-0.2598 1.2027-0.39636 1.6226-0.70836 3.1989-1.6483 0.98445-0.43185 2.1522-0.81267 1.1175-0.51974 0.68036-0.44576 0.68027-0.5291 1.6824-1.4869 3.2238-3.22 1.9665-2.0388 0.76763-0.86813 1.0192-1.3692 0.78711-1.46 0.42333-1.2432 0.28097-1.2928 0.17573-1.3099 0.045311-1.687-0.20272-3.5403-0.064733-1.823 0.086702-1.8414 0.24377-1.5621 0.2759-1.257 0.83983-3.05 0.68422-2.1005 0.81799-2.1042 0.61768-1.3382 0.68933-1.3311 0.88494-1.5432 0.78417-1.2377 0.47314-0.68785 0.97958-1.2943 0.98727-1.158 1.235-1.2846 0.98986-0.91783 0.5337-0.43184 0.24149-0.1178 18.341 1.0708 16.742 1.1207 7.5936 0.46642 9.4274 0.49341 24.517 1.1618 5.1508 0.27973 3.774 0.28905 1.7856 0.19947 1.6831 0.25834 1.5446 0.33918 1.3598 0.44754 1.1162 0.59024 0.66586 0.56772 0.7676 0.94994 0.59901 1.0432 0.41578 1.0354 0.1456 0.58466 0.041301 0.5603-0.069115 0.52974-0.33708 0.75835-0.48918 0.6014-0.4616 0.43302-0.39496 0.45387-0.15007 0.28234-0.1145 0.40011-0.021674 0.20802 0.022073 0.42456 0.11492 0.48586 0.27006 0.64409 0.39431 0.6653 0.62441 0.82961 1.5588 1.8543 0.65322 0.8422 0.63212 0.88429 0.71989 1.1177 0.63674 1.1477 0.56961 1.2839 0.39536 1.27 0.18208 1.2228-0.01397 0.81149-0.096116 0.78012-0.31637 1.8419-0.056623 0.79952 0.040562 0.64939 0.12506 0.67783 0.42862 1.7242 0.2118 1.1123 0.10765 1.1504-0.076123 2.3963 0.021403 0.86238 0.12747 1.0471 0.34391 1.3151 0.5208 1.316 0.65828 1.2943 0.76374 1.2489 0.84336 1.1779 1.5913 1.9797 2.4778 3.5463 0.64724 0.83384 0.91779 1.0538 0.65526 0.6594 1.0692 0.90395 1.1862 0.80642 1.209 0.68023 1.3191 0.62071 0.88519 0.33305 2.6517 0.81494 1.3544 0.4541 2.792 1.1637 1.5372 0.68288 1.629 0.83341 1.6109 0.87954 1.1345 0.72585 2.5562 1.7583 0.98606 0.56875 0.5382 0.2473 0.89667 0.29258 0.90019 0.16856 0.87637 0.05422 0.71549-0.048057 0.90366-0.18018 0.83785-0.28231 1.3084-0.51476 2.0629-0.60283 1.3901-0.48046 1.6807-0.6941 1.2447-0.57151 2.4949-1.2733 1.6984-0.96742 3.247-1.9477 3.421-1.8115 3.5098-1.9428 1.7571-1.0248 3.0428-1.848 0.70812-0.38813 6.5075-3.0813 2.1495-1.1105 0.90118-0.49609 0.79456-0.49287" stroke="#bdc660"/>
    </defs>
    <g clip-path="url(#p11dcc45d3a)">
     <use y="249.854012" fill="#bdc660" stroke="#bdc660" xlink:href="#ma965b000be"/>
    </g>
   </g>
  </g>
 </g>
 <defs>
  <clipPath id="p11dcc45d3a">
   <rect x="7.2" y="7.2" width="357.12" height="235.45"/>
  </clipPath>
 </defs>
</svg>
