<?xml version="1.0" encoding="UTF-8"?>
<!DOCTYPE svg  PUBLIC '-//W3C//DTD SVG 1.1//EN'  'http://www.w3.org/Graphics/SVG/1.1/DTD/svg11.dtd'>
<svg width="304.09pt" height="280.51pt" version="1.1" viewBox="0 0 304.09 280.51" xmlns="http://www.w3.org/2000/svg" xmlns:xlink="http://www.w3.org/1999/xlink">
 <metadata>
  <rdf:RDF xmlns:cc="http://creativecommons.org/ns#" xmlns:dc="http://purl.org/dc/elements/1.1/" xmlns:rdf="http://www.w3.org/1999/02/22-rdf-syntax-ns#">
   <cc:Work>
    <dc:type rdf:resource="http://purl.org/dc/dcmitype/StillImage"/>
    <dc:date>2024-07-04T12:10:09.029073</dc:date>
    <dc:format>image/svg+xml</dc:format>
    <dc:creator>
     <cc:Agent>
      <dc:title>Matplotlib v3.7.1, https://matplotlib.org/</dc:title>
     </cc:Agent>
    </dc:creator>
   </cc:Work>
  </rdf:RDF>
 </metadata>
 <defs>
  <style type="text/css">*{stroke-linejoin: round; stroke-linecap: butt}</style>
 </defs>
 <g id="figure_1">
  <g id="patch_1">
   <path d="m0 280.51h304.09v-280.51h-304.09v280.51z" fill="none"/>
  </g>
  <g id="axes_1">
   <g id="PatchCollection_1">
    <defs>
     <path id="m6b0ee5571d" d="m283.72-74.649-0.10798 0.32289-0.13019 1.4118-0.20742 0.9982-0.21398 0.52625-0.30909 0.48162-0.75576 0.67102-0.99893 0.52419-1.1628 0.42704-2.5332 0.77544-0.97764 0.34963-0.94303 0.44008-0.9438 0.60293-0.90593 0.72328-0.9654 0.88202-3.4116 3.2314-5.4213 4.5947-2.7256 2.4951-4.6356 4.3616-4.6332 4.1801-4.6742 4.4028-1.8553 1.9042-1.7793 1.9364-7.4629 8.7527-1.6281 1.816-1.7994 1.9179-2.0485 2.0789-2.578 2.4577-1.5788 1.3598-0.63889 0.48213-0.32314 0.20622-0.14438 0.039618-0.39053-0.49712-0.91316-1.3539-7.5568-11.424-3.324-4.9512-3.3-4.7818-1.6484-2.2979-1.6595-2.2194-1.6846-2.1237-1.728-2.0045-1.7952-1.8534-1.8925-1.6591-2.0281-1.4079-2.2252-1.1263-2.3633-0.88019-2.4628-0.7014-2.5334-0.57326-2.5825-0.48292-2.6157-0.42073-13.224-1.7712-5.2013-0.78422-2.5369-0.46366-2.469-0.54001-2.374-0.64619-2.2432-0.79138-1.467-0.66586-1.3609-0.77908-1.2317-0.91385-1.5627-1.6177-1.328-1.8375-2.3118-3.8695-1.1417-1.8097-1.2347-1.5691-1.4113-1.1917-0.82079-0.42465-0.8845-0.32007-1.3187-0.33548-2.8942-0.60434-1.3716-0.36092-2.2839-0.71666-2.837-1.0594-2.269-0.94879-4.6152-2.1099-11.69-5.7648-4.6571-2.2069-2.3096-1.0053-2.2894-0.89698-2.2612-0.74376-2.2224-0.53151-2.1696-0.24239-2.0988 0.14588-1.8784 0.55503-1.8196 0.88278-1.7798 1.1114-1.7561 1.2552-3.496 2.6464-1.7644 1.2522-4.2847 2.7324-2.5319 1.5254-1.1265 0.57198-1.0927 0.43077-1.0513 0.24319-1.0156 0.007384-1.2637-0.3954-1.2207-0.78066-0.99222-0.87323-0.98381-1.032-1.607-1.9257-3.0163-3.8262-1.2798-1.5157-1.1139-1.2084-2.033-1.9471-1.761-1.4885-1.774-1.3862-2.4535-1.7805-2.125-1.4297-2.3769-1.5155-6.4199-4.0153-1.5597-1.0606-1.3265-0.96523-1.2966-1.0172-2.3698-2.0766-3.8074-3.6914-3.7791-3.941-3.9074-4.3048 0.41186-0.004888 0.57993-0.3871 0.44077-0.43949 0.62345-0.78637 0.89546-1.4518 0.57031-1.1774 0.45934-1.156 0.47676-1.4916 0.45197-1.797 0.52143-2.7478 0.76705-4.707 0.27834-1.3929 0.52398-2.104 0.58497-1.8815 0.9724-2.6348 0.59079-1.4594 2.2298-5.2871 2.6289-6.6383 0.77978-1.7179 0.66362-1.2432 0.68739-1.1082 1.1557-1.5493 0.93336-1.0254 0.80477-0.74503 1.0198-0.80082 1.6794-1.2011 1.3245-1.083 0.94687-1.008 0.85854-1.1469 0.76831-1.2642 0.83122-1.712 0.65215-1.6475 1.1689-3.2746 0.59615-1.5348 1.2101-2.8744 2.6313-5.9524 1.0307-2.726 0.52208-1.7434 0.50596-2.1645 0.56219-2.8895 0.51557-2.2692 0.42399-1.469 0.98636-2.9463 0.5942-1.9453 0.41609-1.6962 0.3472-1.8737 0.28868-2.0844 0.32506-2.8893 0.15724-2.3368-0.026575-2.0476-0.098384-1.096-0.30485-1.869-1.0868-4.5719-1.7951-6.5157-0.25382-1.1545-0.13888-0.90698-0.068734-1.3294 0.11244-1.095 0.18344-0.69212 0.36194-0.80153 0.43812-0.65476 0.75685-0.82861 0.84942-0.73392 1.4152-1.029 2.2814-1.4163 3.1908-1.8208 2.232-1.1225 1.215-0.53106 2.6375-0.99686 4.0283-1.2646 4.5575-1.2357 10.794-2.6881 2.2015-0.65592 0.41392-0.19593 0.036632-0.10117 0.076585 0.23123 0.27723 2.7832 0.3257 2.2082 0.40566 2.0832 0.4826 1.9316 0.65427 2.0417 0.56482 1.3561 0.5711 1.0869 0.37747 0.59757 0.50067 0.6752 0.84907 0.91836 0.95645 0.81508 1.6774 1.0933 1.8474 0.89645 1.9733 0.72463 1.6939 0.48132 1.7394 0.39313 2.4481 0.42062 2.483 0.29888 2.3922 0.18123 2.3918 0.078257 1.9001-0.017242 1.8869-0.09763 1.8683-0.19108 1.8818-0.30808 1.8495-0.43942 1.1233-0.34288 2.0406-0.74511 1.7514-0.73567 1.9348-0.89629 2.929-1.4916 6.2549-3.3465 2.1912-1.0998 2.0296-0.9497 2.233-0.93249 1.4235-0.51586 2.2824-0.67842 1.3585-0.30937 1.3569-0.23986 1.7361-0.20776 2.0697-0.091911 2.013 0.09431 1.9284 0.30484 1.8106 0.55346 1.5862 0.79136 1.4332 1.0244 0.91904 0.84173 1.465 1.5721 1.4315 1.7512 1.4019 1.8843 1.3723 1.9839 1.3392 2.06 1.299 2.1208 1.2484 2.173 2.4662 4.6533 1.5933 2.908 2.194 3.723 2.1393 3.4366 2.2261 3.4458 3.6099 5.3965 11.546 16.765 2.3016 3.4874 0.86969 1.4711 0.49972 0.99863 0.39631 1.0167 0.36147 1.5391 0.14968 1.5958 0.01057 1.1521-0.045193 1.165-0.33123 4.3712-0.057711 1.6907 0.09079 3.1452-0.022027 1.6171-0.098132 1.0346-0.15449 0.90328-0.29728 1.1361-0.2776 0.78317-0.36939 0.84169-0.52823 0.98109-0.70944 1.0934-0.65651 0.88992-2.5163 3.1454-0.74822 1.0842-0.70465 1.1559-0.98857 1.8593-0.90736 1.9709-0.69531 1.699-0.64834 1.7486-1.0518 3.2267-0.6077 2.1178-0.55605 2.1475-0.62661 2.7512-0.93843 5.011-0.60091 4.1212-0.18524 1.6832-0.25803 3.6249-0.041454 1.5725 0.050581 2.7366 0.2708 4.6095 0.26236 3.5775 1.1387 11.679 0.16958 2.4925 0.25613 6.2379 0.11534 1.4994 0.2608 1.8023 0.27462 1.0717 0.40062 1.0081 0.89581 1.3157 0.96417 0.76655 0.4017 0.22378 1.1967 0.48642 1.2915 0.35997 1.205 0.26622 2.2256 0.32456 3.073 0.30959 2.1878 0.14559 1.6762 0.051164 1.4032-0.01313 6.8911-0.23574 2.7097-0.14444 1.2716-0.11668 1.2617-0.19872 1.1707-0.28599 0.96028-0.304 1.189-0.44943 1.3066-0.57045 1.7336-0.85093 4.6556-2.5042 2.211-1.0548 2.1233-0.8621 3.1909-1.0887 1.4294-0.55058 1.249-0.58192 1.161-0.64164 1.8521-1.2211 1.0574-0.79954 1.4477-1.1983 0.80288-0.71401 1.4188-1.4384 1.8524-2.0157 0.94627-0.90414 5.2711-4.2626 1.5421-1.0765 0.63262-0.3577 0.93198-0.41856 0.76774-0.23538 0.84685-0.1224 0.68003 0.03075 0.55832 0.13126 0.9854 0.51209 0.91884 0.81537 0.86526 1.0665 1.0504 1.6715 0.99466 1.9432 0.94928 2.1591 0.90124 2.3067 0.86857 2.4434 0.87852 2.6752 1.687 5.5864 3.7033 13.156 0.33678 1.0508 0.17202 0.29667" stroke="#bdc660"/>
    </defs>
    <g clip-path="url(#p5e81213aeb)">
     <use y="280.512" fill="#bdc660" stroke="#bdc660" xlink:href="#m6b0ee5571d"/>
    </g>
   </g>
  </g>
 </g>
 <defs>
  <clipPath id="p5e81213aeb">
   <rect x="7.2" y="7.2" width="289.69" height="266.11"/>
  </clipPath>
 </defs>
</svg>
