<?xml version="1.0" encoding="UTF-8"?>
<!DOCTYPE svg  PUBLIC '-//W3C//DTD SVG 1.1//EN'  'http://www.w3.org/Graphics/SVG/1.1/DTD/svg11.dtd'>
<svg width="371.52pt" height="248.17pt" version="1.1" viewBox="0 0 371.52 248.17" xmlns="http://www.w3.org/2000/svg" xmlns:xlink="http://www.w3.org/1999/xlink">
 <metadata>
  <rdf:RDF xmlns:cc="http://creativecommons.org/ns#" xmlns:dc="http://purl.org/dc/elements/1.1/" xmlns:rdf="http://www.w3.org/1999/02/22-rdf-syntax-ns#">
   <cc:Work>
    <dc:type rdf:resource="http://purl.org/dc/dcmitype/StillImage"/>
    <dc:date>2024-07-04T12:10:08.462636</dc:date>
    <dc:format>image/svg+xml</dc:format>
    <dc:creator>
     <cc:Agent>
      <dc:title>Matplotlib v3.7.1, https://matplotlib.org/</dc:title>
     </cc:Agent>
    </dc:creator>
   </cc:Work>
  </rdf:RDF>
 </metadata>
 <defs>
  <style type="text/css">*{stroke-linejoin: round; stroke-linecap: butt}</style>
 </defs>
 <g id="figure_1">
  <g id="patch_1">
   <path d="m0 248.17h371.52v-248.17h-371.52v248.17z" fill="none"/>
  </g>
  <g id="axes_1">
   <g id="PatchCollection_1">
    <defs>
     <path id="mce21712fea" d="m344.95-119.09-0.39465 0.2289-0.60179 0.54319-0.8721 0.94127-0.7567 0.98287-0.65454 1.0823-0.41045 0.96389-0.22916 0.99969-0.018356 0.95631 0.15374 0.97424 0.25285 0.8616 0.34328 0.86406 0.78821 1.5413 0.98039 1.5678 0.65488 0.93978 1.8246 2.4427 0.6454 0.92404 0.50194 0.80326 0.54814 1.0615 0.20529 0.53172 0.14784 0.60814 0.032532 0.30447-0.022565 0.5548-0.25903 0.90814-0.61607 1.1616-0.8193 1.1923-1.6181 2.1523-0.77182 0.91938-1.0024 0.98975-1.1349 0.9587-1.0439 0.79775-2.1553 1.5063-7.4773 4.7992-2.3596 1.621-2.1623 1.5811-1.7296 1.3351-2.7433 2.3567-1.4139 1.073-0.56435 0.35187-2.539 1.2806-3.7586 2.0824-1.5084 0.75347-1.9828 0.85308-2.5164 1.0183-0.80013 0.38057-0.78632 0.41856-2.8398 1.6317-0.82601 0.37625-0.71487 0.21267-0.66025 0.073939-0.64389-0.057453-1.0271-0.37506-0.67054-0.45038-0.46176-0.41736-1.8337-2.0633-0.8892-0.84728-0.89464-0.74901-2.726-2.2379-1.0688-0.76766-2.0327-1.2491-1.0279-0.69152-0.71584-0.56316-0.70896-0.62041-1.1117-1.0658-1.0927-1.1351-1.7737-1.9834-4.0495-4.896-1.0729-1.2418-1.5451-1.6171-1.3318-1.2238-0.62547-0.4926-1.2644-0.77989-1.3248-0.51766-1.3656-0.20464-1.1241 0.093378-1.1421 0.28917-1.2666 0.48739-1.2821 0.63298-1.4433 0.84933-1.0549 0.69365-2.23 1.6046-2.3377 1.8276-3.4486 2.8126-2.0633 1.6278-3.5602 2.6344-2.7746 1.8944-1.5282 0.99289-8.1267 5.0699-1.5943 1.088-1.2716 0.9964-1.0764 1.0607-0.80797 1.1662-0.48009 1.3171-0.16842 1.4207 0.10706 1.4769 0.36471 1.4878 0.33956 0.88262 0.41702 0.86883 0.51919 0.9131 0.85676 1.2603 0.8681 1.073 0.99743 1.0429 1.068 0.92542 1.3197 0.87841 1.4602 0.66018 1.5381 0.49269 3.1075 0.85195 1.4641 0.54287 1.0378 0.53838 0.79763 0.51423 1.1818 0.95903 0.61173 0.6501 0.49482 0.68442 0.42199 0.8961 0.1435 1.1682-0.1104 0.54024-0.38242 0.83168-0.63856 0.86732-0.74015 0.77667-2.0964 1.9083-0.86951 0.89986-0.53525 0.75642-0.25013 0.70863 0.076916 0.56839 0.39943 0.27338-1.0489 0.71816-1.5618 0.9247-1.1701 0.60946-1.228 0.56776-1.8008 0.69965-1.1486 0.36778-2.2166 0.62235-1.0246 0.36894-0.48318 0.24559-0.45787 0.28376-0.83804 0.65596-0.37332 0.36522-0.33373 0.38904-0.28321 0.41476-0.2178 0.44453-0.1473 0.51106-0.075425 0.54164-0.023009 0.56413 0.054752 1.1729 0.32007 3.0358 0.060002 1.1985-0.019487 0.5788-0.07193 0.55409-0.14449 0.51709-0.2421 0.46389-0.35748 0.39626-0.45327 0.3374-0.52018 0.28822-0.5564 0.2445-0.5555 0.20211-1.0373 0.30644-0.17788-2.004-0.21778-1.9342-0.30733-2.199-0.40418-2.3068-0.5551-2.572-0.49383-1.9654-0.55416-1.8994-0.6253-1.8037-0.71224-1.6794-0.82008-1.5255-1.0226-1.4889-1.0699-1.4543-0.89483-1.3506-0.84957-1.4393-0.80295-1.5079-0.88218-1.831-0.82896-1.8695-2.0847-4.9484-0.59234-1.2877-0.62744-1.2143-0.7841-1.2652-0.88765-1.0934-1.0295-0.86882-1.489-0.70886-1.6428-0.40045-2.1303-0.24213-2.1879-0.10403-1.2813-0.006913-1.8253 0.062711-1.093 0.081643-6.2833 0.68174-5.3257 0.46135-0.75207 0.11001-1.0631 0.23177-0.87869 0.27967-0.95374 0.41673-0.6526 0.3712-0.85372 0.62624-1.044 1.0147-0.80064 0.95294-1.9391 2.6326-0.67306 0.85882-0.56793 0.65028-0.59775 0.59464-1.3047 1.0196-1.4599 0.87604-1.5703 0.77695-1.6432 0.71626-2.5239 1.0095-1.4965 0.52787-1.9751 0.62237-1.8183 0.51239-1.8963 0.4811-2.0856 0.4787-2.8762 0.59002-2.8579 0.50672-2.1214 0.32421-3.8336 0.4992-5.6614 0.66662-3.5563 0.3228-5.9503 0.33981-3.7403 0.27881-1.8399 0.21466-5.3275 0.79245-3.3017 0.34196-2.8666 0.13681-2.2818-0.033473-0.82586-0.068693-2.9668-0.46561-1.289-0.10019-1.3628-0.013038-1.4183 0.063767-1.1582 0.099963-1.7141 0.21127-1.7321 0.28407-1.7305 0.35683-1.7098 0.43449-1.6693 0.52207-12.578 4.6848-3.9581 1.3656-1.9671 0.62374-1.9491 0.5622-1.9138 0.46964-2.0036 0.39651-2.4397 0.40069-2.8811 0.36219-1.9912 0.17262-1.0283 0.034933-1.3316-0.036146-1.2782-0.12012-14.128-2.2232-0.78804-0.16088-0.29499-0.11653-0.19783-0.1442-0.094565-0.12376-0.070161-0.22162 0.018649-0.22055 0.058129-0.15856 0.25364-0.35139 0.21014-0.18932 0.42083-0.28494 0.7604-0.37015 0.66618-0.24083 2.6426-0.80815 1.0073-0.40355 0.58926-0.28855 0.67201-0.37869 0.92324-0.61358 0.84853-0.67389 0.72476-0.67679 0.73925-0.81492 0.3794-0.48032 0.62747-0.89276 0.38871-0.63595 0.33836-0.62917 0.48809-1.1016 0.30618-0.8832 0.30881-1.208 0.16071-0.89365 0.13687-1.0687 0.15687-2.1642 0.021435-1.3506-0.025433-0.967-0.06211-0.97816-0.1855-1.6126-0.31706-1.7703-0.28281-1.2336-1.2439-4.4853-0.29904-1.2672-0.26065-1.2774-1.0067-5.6903-0.66004-3.1351-0.39878-1.4673-0.54932-1.359-0.56165-0.93423-0.47031-0.60394-0.54243-0.56988-0.7267-0.61887-0.73606-0.49929-0.87458-0.46237-1.2174-0.46177-1.6188-0.40755-1.45-0.26014-4.5051-0.65009-2.4036-0.44711-1.3331-0.35769-1.2818-0.46823-1.0771-0.53185-0.73195-0.46311-0.72588-0.55983-0.84577-0.78671-0.72914-0.79111-0.87197-1.0771-1.4483-2.0444-2.0234-3.0391-1.5186-2.2053-0.69031-0.89501-0.15394-0.16546-0.10286-0.05382 0.35532-0.39764 1.3307-1.8496 0.56594-0.71709 0.64029-0.73121 1.0874-1.0824 0.82646-0.70179 0.71502-0.52556 0.66366-0.42259 0.77435-0.43061 1.8741-0.87624 1.5006-0.55873 0.74379-0.23668 2.5115-0.71872 1.9623-0.5139 0.90306-0.19818 2.0121-0.33563 1.2217-0.25305 1.1232-0.34982 0.96502-0.47281 0.59391-0.4449 0.55585-0.53427 0.8505-0.89245 0.44756-0.52468 0.34332-0.50737 0.76535-1.348 0.69448-1.0117 1.0852-1.6929 0.61175-0.77101 0.77797-0.77716 0.69277-0.54795 0.46352-0.27585 0.81339-0.27331 0.42001-0.044645 1.338 0.008665 0.5847-0.084108 0.32481-0.098592 0.30838-0.14392 0.29322-0.20174 0.21302-0.20503 0.24878-0.34109 0.15133-0.30196 0.13194-0.38871 0.085318-0.41669 0.044446-0.65938-0.094046-0.90525-0.27225-1.0957-0.60029-1.6292-0.81572-2.4111-0.92851-2.4858-0.3753-1.3839-0.16043-1.2799-0.025118-1.3757 0.085431-1.4528 0.28113-2.2172 0.3416-1.8719 0.31828-1.4358 0.37447-1.4369 0.61726-2.0327 1.5488-4.6461 0.65302-2.1113 1.0776-3.7734 0.33121-1.3043 0.075442-0.52797 0.19047 0.19106 0.14488 0.054049 0.24572 0.010008 0.2989-0.071874 0.27574-0.12488 0.78205-0.59182 1.0781-1.2728 0.89831-1.4487 0.77264-1.5782 0.52836-1.295 0.87369-2.5837 1.2179-4.0132 0.52141-1.4319 0.61492-1.3319 0.58698-0.96004 0.62011-0.76451 1.2597-1.0677 1.4756-0.85757 1.6206-0.71612 5.1817-1.8526 1.6799-0.68173 1.5822-0.796 0.36497-0.21667 1.2606-0.86902 1.2329-1.0948 0.51576-0.51984 1.2305-1.3312 0.95906-1.1404 0.89927-1.1858 1.5549-2.2187 1.3051-2.0179 0.50717-0.87452 1.085-2.084 0.91219-2.075 0.5141-1.4291 0.37642-1.3183 0.28791-1.4737 0.12784-1.4067-0.042657-1.3053-0.57492-3.0735-0.040381-1.2612 0.17798-1.3083 0.38222-1.2488 0.53751-1.2426 1.4744-2.8241 0.5994-1.25 0.49412-1.2749 0.32655-1.2974 0.11738-1.3113-0.031976-1.31-0.18226-2.5616 0.023859-1.3869 0.08314-0.64032 0.18734-0.71748 0.10512-0.25218 0.33507-0.50358 0.49041-0.313 0.92621 0.048514 1.1355 0.52181 1.2874 0.86135 1.3957 1.0952 4.5459 3.9012 1.5709 1.2862 1.5771 1.1691 1.5738 0.97224 1.5618 0.67673 1.5412 0.25549 1.5124-0.26208 1.3975-0.60154 1.3274-0.77214 1.0722-0.69902 1.8041-1.241 3.5654-2.5542 1.6321-1.0603 1.3869-0.77708 8.6079-4.3622 3.1311-1.671 1.3214-0.76564 2.0175-1.2604 2.0247-1.381 0.77766-0.57154 0.47264-0.37609 0.11584-0.13038 0.041367 0.23434 0.32241 0.42711 0.36126 0.38267 0.70089 0.63893 2.8952 2.2602 0.7055 0.62164 0.86889 0.84463 0.89587 0.96902 0.87945 1.0587 0.648 0.85571 0.6373 0.91351 0.87872 1.4047 0.79012 1.4647 0.44958 0.9768 0.43136 1.1075 0.36834 1.1653 0.26078 1.0016 0.58076 2.5487 0.30054 1.0297 0.64186 1.3564 0.32583 0.43226 0.7845 0.73784 0.91796 0.56351 0.78221 0.31307 1.0298 0.23267 0.89247 0.050267 0.74401-0.071563 0.73674-0.15506 1.2767-0.4133 1.1758-0.52866 0.61826-0.35069 0.54367-0.40158 0.68363-0.75622 1.039-1.6576 0.49894-0.68472 0.57798-0.43727 0.61705-0.097035 0.67248 0.18774 0.77127 0.53766 0.78618 0.78908 1.7155 1.9254 0.98758 0.94964 1.1215 0.81812 1.3893 0.65686 1.5275 0.46039 1.6048 0.32298 1.6262 0.23472 4.1521 0.48936 0.99248 0.059179 0.95388-0.089701 0.77572-0.23923 0.7498-0.38791 0.63447-0.46006 0.59656-0.55768 0.57019-0.66911 0.51678-0.75247 0.53293-0.9763 0.45919-1.0638 0.3679-1.0439 0.96813-3.0981 0.69902-1.8279 0.47752-1.0163 0.59259-1.0853 0.6342-1.0043 0.46836-0.64675 0.68096-0.82363 0.60792-0.63964 0.81365-0.74249 1.031-0.79229 1.0778-0.68431 0.97695-0.5014 1.0603-0.40871 0.88703-0.22771 0.72139-0.10413 0.63943-0.021402 0.62424 0.058218 1.1466 0.34522 1.1099 0.59679 1.0869 0.77965 1.0768 0.90377 0.95584 0.87069 3.7708 3.7585 5.8385 5.405 1.7815 1.831 1.1928 1.377 1.3927 1.821 1.4389 2.1134 2.3444 3.8799 2.5866 4.0043 3.0616 5.3967 1.0803 1.7705 1.1203 1.7269 1.1217 1.6341 1.0026 1.3385 3.1682 3.9741 1.9406 2.5038 0.94736 1.2897 1.2277 1.7619 2.3613 3.6212 4.5699 7.2685 1.1522 1.7272 1.1728 1.6407 1.205 1.5144 1.2519 1.3355 1.318 1.0876 1.4086 0.74981 1.325 0.32176 1.3931 0.074702 1.4399-0.086416 1.1815-0.15246 1.019-0.21402 0.85582-0.24092 1.366-0.49192 0.91784-0.39168 1.5439-0.73746 6.293-3.4265 1.6244-0.8197 2.2887-1.0338 1.2561-0.50293 1.4165-0.50326 1.4005-0.42038 1.3749-0.3216 1.3168-0.1993 1.2711-0.055336 1.3971 0.1591 0.52149 0.13872 0.94784 0.3977 0.95336 0.624 0.89136 0.77976 0.86404 0.89072 3.1686 3.6118 1.6714 1.8002 0.89003 0.87855 0.9385 0.85618 0.96189 0.77328 0.98331 0.65761 0.9974 0.50623 1.0273 0.32407 1.6055 0.08912 0.84221-0.12544 0.78584-0.21208 0.50206-0.18214 1.254-0.59627 0.91721-0.52754 1.2072-0.76048 4.1138-2.7669 5.5788-3.9311 0.95802-0.56753 0.8893-0.40125 0.89507-0.19076 0.86444 0.17055 0.70412 0.48207 0.3863 0.43514 0.96609 1.2977 0.68639 0.83701 1.1938 1.3348 0.69895 0.90401 0.68702 1.0093 1.1011 1.8386 0.74403 1.3958 0.73835 1.6121 0.49569 1.5104 0.1928 1.0935 0.39387 4.4757 0.05929 1.1442-0.12859 3.7559-0.16875 1.7446-0.36063 1.7674-0.44115 1.7849-0.35772 1.8212-0.12457 1.2457-0.051654 1.2605 0.001783 3.0219 0.18551 1.7523 0.40567 1.5617 0.59168 1.5085 0.70028 1.3923 0.71771 1.1865 0.62084 0.85396 0.38741 0.34288" stroke="#bdc660"/>
    </defs>
    <g clip-path="url(#p492c4377d5)">
     <use y="248.171057" fill="#bdc660" stroke="#bdc660" xlink:href="#mce21712fea"/>
    </g>
   </g>
  </g>
 </g>
 <defs>
  <clipPath id="p492c4377d5">
   <rect x="7.2" y="7.2" width="357.12" height="233.77"/>
  </clipPath>
 </defs>
</svg>
