<?xml version="1.0" encoding="UTF-8"?>
<!DOCTYPE svg  PUBLIC '-//W3C//DTD SVG 1.1//EN'  'http://www.w3.org/Graphics/SVG/1.1/DTD/svg11.dtd'>
<svg width="216.12pt" height="280.51pt" version="1.1" viewBox="0 0 216.12 280.51" xmlns="http://www.w3.org/2000/svg" xmlns:xlink="http://www.w3.org/1999/xlink">
 <metadata>
  <rdf:RDF xmlns:cc="http://creativecommons.org/ns#" xmlns:dc="http://purl.org/dc/elements/1.1/" xmlns:rdf="http://www.w3.org/1999/02/22-rdf-syntax-ns#">
   <cc:Work>
    <dc:type rdf:resource="http://purl.org/dc/dcmitype/StillImage"/>
    <dc:date>2024-07-04T12:10:11.773355</dc:date>
    <dc:format>image/svg+xml</dc:format>
    <dc:creator>
     <cc:Agent>
      <dc:title>Matplotlib v3.7.1, https://matplotlib.org/</dc:title>
     </cc:Agent>
    </dc:creator>
   </cc:Work>
  </rdf:RDF>
 </metadata>
 <defs>
  <style type="text/css">*{stroke-linejoin: round; stroke-linecap: butt}</style>
 </defs>
 <g id="figure_1">
  <g id="patch_1">
   <path d="m0 280.51h216.12v-280.51h-216.12v280.51z" fill="none"/>
  </g>
  <g id="axes_1">
   <g id="PatchCollection_1">
    <defs>
     <path id="m9886658914" d="m164.94-198.09-0.22746 0.45358-0.10159 0.9358 0.032906 1.2219 0.19763 1.3606 0.2991 1.1207 0.43134 1.0957 0.77438 1.3835 0.9069 1.293 0.81071 1.0847 0.74733 1.0748 0.29628 0.49072 0.27434 0.52461 0.2525 0.59722 0.14519 0.45049 0.13129 0.61091 0.058589 0.83938-0.05683 0.85022-0.1225 0.74413-0.27679 1.1114-0.77894 2.5043-0.26005 1.1981-0.11936 1.306-0.005507 1.4516 0.099728 1.491 0.19568 1.5062 0.28958 1.499 0.3886 1.4702 0.2701 0.83269 0.53927 1.5253 0.60088 1.5342 0.6766 1.5194 0.77369 1.4797 0.90036 1.4123 0.99441 1.2604 1.1024 1.198 1.1757 1.1594 3.685 3.4566 1.274 1.2847 1.2403 1.3255 1.2078 1.3583 1.1734 1.385 1.1335 1.407 1.0834 1.4253 1.0172 1.4406 0.92727 1.4532 0.80406 1.4628 0.63613 1.4684 0.41068 1.4685 0.14865 1.379-0.025978 2.6981 0.05595 1.2879 0.25768 1.2156 0.25335 0.60036 0.16126 0.29143 0.84782 1.096 1.0535 0.93392 0.78076 0.54163 0.74753 0.42982 0.63965 0.29225 0.52505 0.11488-0.13472 0.40775-0.59514 0.94348-0.80622 1.0994-1.0568 1.357-0.58449 0.97478-0.31669 0.69525-0.25642 0.73528-0.255 1.1792-0.061284 1.2222 0.14808 1.2106 0.34049 1.2845 0.55315 1.4574 0.75587 1.6254 0.41952 0.81226 1.8779 3.3433 0.99176 1.9285 0.59834 1.2969 0.43691 1.0489 0.46789 1.2823 0.30811 0.96252 0.28687 1.0695 0.14292 0.74439 0.083296 0.74994 0.011849 0.72483-0.060912 0.67808-0.10998 0.55522-0.16434 0.52696-0.45264 0.90644-0.61924 0.82006-0.75526 0.72814-0.85962 0.63092-0.9319 0.56501-2.4226 1.3213-0.77636 0.4598-0.95308 0.60435-1.9983 1.4243-0.70817 0.44501-0.68653 0.36703-1.5351 0.68722-4.5884 1.8492-0.68001 0.32271-0.52253 0.2997-0.60618 0.446-0.4113 0.39496-0.70304 0.89946-0.6398 1.0536-1.2767 2.3124-0.51573 0.86672-1.0982 1.6524-0.6783 0.89745-0.55909 0.63026-0.32121 0.28328-0.17532 0.053489-0.20342 0.099226-0.44956 0.36376-0.83381 0.77313-1.0403 1.0821-0.83162 0.97542-0.82515 1.0902-0.39855 0.57941-0.66055 1.0426-0.74542 1.3-0.58065 1.1212-0.5203 1.1273-0.68903 1.7725-0.57635 1.7693-0.70743 2.5692-0.2324 1.0588-0.20534 1.3158-0.073033 1.5511 0.054527 1.5356 0.17076 2.9821-0.038167 1.421-0.14802 1.1034-0.23667 1.089-0.35659 1.0472-0.66302 1.2298-0.85855 1.1533-0.64661 0.73127-1.6565 1.7173-2.7155 2.7123-1.4172 1.2525-0.57302 0.44569-0.5731 0.37548-0.94131 0.4378-1.8129 0.68455-0.82925 0.36377-2.6946 1.3884-1.3668 0.59669-1.0131 0.33387-1.0429 0.21884-0.95798 0.083526-1.1522-0.011364-0.72232-0.085374-0.70982-0.16864-0.86539-0.34787-0.84234-0.47507-0.91217-0.63344-1.9784-1.5662-1.1041-0.82381-0.77109-0.49272-0.80463-0.41461-1.0848-0.39266-1.1396-0.27932-2.4474-0.42441-1.2846-0.16632-1.2892-0.096377-1.0748-0.011417-2.858 0.062892-2.6261-0.024991-0.89416 0.064472-0.91006 0.11471-1.2925 0.2257-1.9733 0.4558-0.87644 0.25659-1.2993 0.46539-0.93123 0.40927-0.97248 0.48825-1.1118 0.61573-1.6267 0.97567-4.2651 2.7343-1.5779 1.1688-3.152 2.5489-1.3238 0.94656-1.0323 0.59731-0.6473 0.29819-0.5454 0.2035-1.137 0.2915-1.1178 0.11505-1.0948-0.069235-1.156-0.33102-0.85886-0.50979-0.66058-0.62464-0.41367-0.61898-0.088295-0.48647 0.34765-0.37402 0.066949-0.89227-0.25817-1.1815-0.54856-1.3212-0.62873-1.126-0.7479-1.1054-0.72321-0.91623-0.77662-0.85366-0.97284-0.90252-1.0168-0.75838-1.0486-0.5837-1.1301-0.4133-2.8068-0.65106-1.0494-0.33199-1.0719-0.446-0.8-0.47144-0.8666-0.63156-0.82123-0.7197-0.74498-0.79334-0.65277-0.85064-1.1991-1.6678-0.65264-0.70734-0.5273-0.42292-2.0063-1.2344-0.44505-0.3095-0.85812-0.72676-1.6843-1.6237-0.83279-0.69174-1.077-0.69285-0.92322-0.48157-0.96351-0.32893-0.98083-0.102-1.0649 0.099601-1.1418 0.30756-0.4069 0.16283-0.83426 0.43123-0.61918 0.41039-0.37563 0.29118-0.78558 0.72506-0.83641 0.9535-0.72074 0.96678-0.75524 1.148-0.82655 1.4186-0.57239 1.094-0.79312 1.6968-0.60705 1.5709-0.40043 1.3916-0.26507 1.182-0.18516 1.0424-0.89988 6.0622-0.28742 1.4143-0.26288 1.0772-0.50047 1.6888-0.37631 1.078-0.62598 1.5936-0.4386 1.0203-0.49295 1.025-0.57422 1.0246-0.4271 0.64669-0.46286 0.60452-0.7606 0.81181-0.71946 0.59017-0.59236 0.36523-0.62205 0.26872-1.1115 0.21905-0.9763 0.003835-0.99205-0.08931-3.4334-0.42034-1.8132-0.25071-0.92436-0.16057-1.3942-0.32056-1.0801-0.30438-1.1947-0.3935-1.0301-0.40483-0.45055-0.20504-1.0033-0.53879-0.94378-0.60498-1.2991-0.96732-0.81195-0.70085-1.0036-0.98472-0.69869-0.79574-0.66988-1.0791-0.39192-1.1658-0.029778-1.2043 0.23607-0.83561 0.42393-0.82557 0.70036-0.95799 0.86779-0.92679 0.99422-0.88715 1.0676-0.82655 1.1211-0.7788 2.3939-1.5178 1.1368-0.78663 0.31589-0.25019 0.95638-0.93001 0.67365-0.99581 0.30511-1.0347-0.1141-0.98407-0.44445-0.97684-0.70101-0.94921-0.90024-0.89822-1.0558-0.81939-1.1786-0.70648-1.2776-0.55143-0.39831-0.12801-1.7498-0.39245-4.3003-0.55825-0.76926-0.16788-0.69026-0.25041-0.91883-0.65652-0.6101-0.9478-0.25098-1.1785 0.003611-1.3737 0.34056-3.5229 0.086247-1.4956 0.019131-1.4458-0.038614-1.2788-0.091995-0.94916-0.16139-0.39108 0.33003-0.28458 6.8931-5.1924 4.9521-3.8449 3.1885-2.5416 2.0995-1.7147 1.8704-1.573 1.3606-1.209 1.0478-1.0041 0.91162-0.95371 0.5618-0.63549 0.84964-1.0522 0.62683-0.87208 0.53375-0.83745 0.47057-0.85519 0.51188-1.1724 0.26818-0.85003 0.2348-1.2304 0.095988-1.267-0.022922-1.5245-0.13624-1.5529-0.12786-0.95902-0.45202-2.5009-0.32104-1.4575-0.41558-1.6929-0.42782-1.5753-0.49985-1.6751-0.6939-2.1288-0.59561-1.6538-0.41663-1.0703-0.83412-1.9334-0.85956-1.6929-0.46909-0.80167-0.85669-1.2961-1.8095-2.526-0.60424-0.97024-0.21326-0.40217-0.35579-0.80154-0.29564-0.8425-0.22724-0.83217-0.20365-0.98167-0.1547-1.0556-0.097503-1.0132-0.060678-1.2492-8.83e-4 -0.94112 0.082967-1.3663 0.53056-5.7635 0.18644-1.2227 0.23755-0.9275 0.30124-0.78021 0.36751-0.75458 0.60832-1.0563 0.70169-0.98512 0.55396-0.63628 1.9253-2.0128 0.86522-0.84808 0.84269-0.90255 0.77623-1.0413 0.70319-1.1605 0.64231-1.2495 1.4118-3.0555 0.64571-1.2936 0.69412-1.2906 0.98068-1.6439 0.90995-1.3599 1.0588-1.4073 1.1323-1.3686 1.1844-1.3409 5.483-5.8291 2.1931-2.4416 1.0534-1.2488 1.0141-1.2724 0.96473-1.301 3.1034-4.601 1.22-1.7292 1.0264-1.3584 1.0064-1.2159 0.99517-1.066 2.4168-2.2319 1.0624-1.0459 3.5541-3.8308 1.4744-1.5171 1.5981-1.5058 1.3353-1.1482 0.89475-0.71784 1.3847-1.0266 1.0342-0.68152 0.6884-0.39847 0.81082-0.40038 0.67267-0.26582 0.90586-0.24447 1.2145-0.077418 1.3054 0.28522 1.2974 0.58508 1.299 0.78069 4.0655 2.7551 1.3518 0.82179 1.2981 0.65597 1.2097 0.40606 1.0775 0.051854 0.73379-0.27874 0.59012-0.53347 0.41625-0.74352 0.2492-1.1654 0.022214-1.3563-0.1176-1.4808-0.36027-3.1284-0.067465-0.82957-0.029485-1.1041 0.070859-1.2108 0.17928-1.2765 0.24376-1.115 0.41506-1.4178 0.94332-2.7947 0.4074-1.3388 0.27614-1.2686 0.06656-1.1685-0.23628-1.0312-0.59576-0.8464-0.89804-0.70555-1.1232-0.59077-1.2866-0.49413-1.4001-0.40867-1.4727-0.32827-1.5107-0.24744-2.0618-0.1966-3.0348-0.1159-0.72622-0.073528-0.72881-0.12297-1.0006-0.28403-0.96786-0.44428-0.92061-0.58426-0.9143-0.73207-0.87201-0.8348-0.8319-0.91855-0.85093-1.0661-0.79987-1.1319-0.74089-1.1879-0.85073-1.5927-0.73334-1.647-0.60265-1.6798-0.44395-1.6949-0.23997-1.6943 0.03016-1.6788 0.34432-1.6112 0.60361-1.5904 0.79822-1.5774 0.94377-1.5711 1.0527-1.5709 1.1349-1.5759 2.4442-3.1845 3.9432-4.8962 7.5903-9.2495 0.73543-0.91438 0.25286-0.3662-0.00796 0.10182 0.078119 0.13589 0.47381 0.4853 0.54601 0.44552 0.56156 0.40595 1.1149 0.7073 0.81353 0.46226 1.2882 0.67303 4.6272 2.277 2.412 1.2736 5.4316 3.0454 1.5102 0.88484 1.9552 1.212 0.96173 0.636 1.6815 1.1999 1.5349 1.2356 1.3097 1.213 1.3419 1.5282 0.30822 0.425 0.67576 1.106 0.4386 0.91001 0.34688 0.92246 0.3225 1.2948 0.10739 0.9726-7.42e-4 0.60412-0.13289 1.0708-0.25194 1.1178-0.50902 1.9404-0.2843 1.4469-0.22147 1.8031-0.10234 1.7019-0.011491 0.97265 0.030404 0.96807 0.098118 1.0893 0.2567 1.3724 0.23705 0.78016 0.19943 0.50619 0.43082 0.87084 0.59727 0.95524 0.62124 0.81935 0.63148 0.71619 1.1033 1.1002 2.1918 2.0058 1.27 1.0419 1.5447 1.1668 3.0918 2.2371 1.994 1.3216 7.2853 4.6895 1.9624 1.2139 1.7796 1.0134 1.4739 0.75566 1.8146 0.8386 1.4189 0.61679 2.0185 0.80062 1.3132 0.47588 1.687 0.56132 1.3683 0.40705 1.5565 0.39772 0.74435 0.15707 0.29328 0.033941" stroke="#bdc660"/>
    </defs>
    <g clip-path="url(#paa496412ff)">
     <use y="280.512" fill="#bdc660" stroke="#bdc660" xlink:href="#m9886658914"/>
    </g>
   </g>
  </g>
 </g>
 <defs>
  <clipPath id="paa496412ff">
   <rect x="7.2" y="7.2" width="201.72" height="266.11"/>
  </clipPath>
 </defs>
</svg>
