<?xml version="1.0" encoding="UTF-8"?>
<!DOCTYPE svg  PUBLIC '-//W3C//DTD SVG 1.1//EN'  'http://www.w3.org/Graphics/SVG/1.1/DTD/svg11.dtd'>
<svg width="290.84pt" height="280.51pt" version="1.1" viewBox="0 0 290.84 280.51" xmlns="http://www.w3.org/2000/svg" xmlns:xlink="http://www.w3.org/1999/xlink">
 <metadata>
  <rdf:RDF xmlns:cc="http://creativecommons.org/ns#" xmlns:dc="http://purl.org/dc/elements/1.1/" xmlns:rdf="http://www.w3.org/1999/02/22-rdf-syntax-ns#">
   <cc:Work>
    <dc:type rdf:resource="http://purl.org/dc/dcmitype/StillImage"/>
    <dc:date>2024-07-04T12:10:40.090169</dc:date>
    <dc:format>image/svg+xml</dc:format>
    <dc:creator>
     <cc:Agent>
      <dc:title>Matplotlib v3.7.1, https://matplotlib.org/</dc:title>
     </cc:Agent>
    </dc:creator>
   </cc:Work>
  </rdf:RDF>
 </metadata>
 <defs>
  <style type="text/css">*{stroke-linejoin: round; stroke-linecap: butt}</style>
 </defs>
 <g id="figure_1">
  <g id="patch_1">
   <path d="m0 280.51h290.84v-280.51h-290.84v280.51z" fill="none"/>
  </g>
  <g id="axes_1">
   <g id="PatchCollection_1">
    <defs>
     <path id="mb0df8ae688" d="m122.14-257.51 0.50993 0.74143 0.40201 0.62555 0.37978 0.63717 0.34826 0.64688 0.30449 0.65573 0.24482 0.66469 0.16474 0.67467 0.047929 0.3811-0.004829 0.74253-0.10953 0.7521-0.18818 0.75916-0.24681 0.76442-0.29033 0.7684-0.57745 1.3444-0.5382 1.1507-0.82776 1.6943-3.5484 7.1186-2.462 5.0068-0.33724 0.69924-0.432 1.0331-0.20516 0.57971-0.17813 0.59964-0.13836 0.61098-0.086712 0.58928-0.048233 0.59083-0.018422 0.58935 0.025081 1.1678 0.081425 1.215 0.18334 1.8835 0.21118 1.8392 0.29715 2.3953 0.55511 4.2309 1.7499 12.778 8.5282-3.451 9.5532-3.9173 1.6875-0.66793 0.84298-0.31781 0.84322-0.30026 0.84408-0.27513 0.84566-0.23968 0.84809-0.1904 0.85155-0.12288 0.77576-0.039908 0.77666 0.01758 0.77463 0.06147 0.76957 0.094993 0.76124 0.12078 2.0058 0.37954 2.1631 0.32902 1.7839 0.31475 2.7963 0.5517 9.9615 2.0409 6.5796 1.3045 2.5891 0.547 1.3876 0.33441 0.74594 0.19756 0.65552 0.1881 1.0998 0.35927 0.4463 0.1658 0.68476 0.28099 0.66577 0.30836 2.1703 1.1336 0.69016 0.316 0.59468 0.2194 0.59844 0.15706 0.70533 0.084407 0.45268-0.01026 0.45643-0.048764 0.47091-0.083362 0.48389-0.12245 0.30323-0.095669 0.54275-0.22252 0.44286-0.23856 0.61912-0.43238 0.39473-0.3028 0.88017-0.76158 0.34351-0.27095 0.17999-0.12365 0.28008-0.16115 0.21754-0.097582 0.45137-0.13571 0.29184-0.049379 0.45067-0.024754 0.35722 0.019876 0.41775 0.047052 1.0691 0.14839 0.61456 0.067121 0.5893 0.037768 0.6977 0.005905 0.72113-0.031745 0.62902-0.053397 0.6799-0.077988 3.667-0.52328 1.3306-0.15573 6.9802 4.4461 3.2104 2 1.5407 0.92575 1.5005 0.87716 6.9191 3.9893 1.5514 0.9194 1.5076 0.94216 0.877 0.60186 0.6264 0.48659 0.57781 0.52262 0.51295 0.56979 0.24841 0.34008 0.4404 0.78612 0.29795 0.72042 0.24645 0.75504 0.20865 0.78049 0.18126 0.799 0.16164 0.81233 0.14773 0.82186 0.26875 1.6623 0.24677 1.6779 0.32068 2.3998 0.28587 2.4285 0.39796 3.6431 0.18269 1.7652 0.58694 6.1503 0.24807 2.8712 0.84033 6.6844 0.021254 0.20297 0.21155 1.2057 0.45528 2.2631 0.35416 1.6236 1.1036 4.8078 0.31717 1.5213 0.22796 1.2633 0.22718 1.621 0.17816 1.5693 0.12615 1.5608 0.032823 0.7784 0.007479 0.62612-0.036808 1.5103-0.11307 1.7655-0.17815 1.7839-0.11075 0.90084-0.26049 1.8715-0.26284 1.6286-0.14571 0.8018-0.32648 1.5628-0.186 0.75163-0.20628 0.72336-0.23884 0.7616-0.20136 0.77651-0.16513 0.81464-0.13753 0.84568-0.21794 1.7647-0.17072 1.8429-0.13956 1.8481-0.16754 2.7739-0.077544 1.8695-0.023633 1.7824 0.021159 0.7936 0.051765 0.66584 0.087133 0.46342 0.11505 0.15601 0.42278 0.18564 1.3601 0.65255 0.73712 0.32668 1.5715 0.65339 1.6014 0.63134 3.1268 1.1897 4.4829 1.6758 8.0089 2.9798 7.373 2.7191 2.3413 0.87926 1.5965 0.61822 1.5772 0.64035 1.4053 0.60867 1.1518 0.53145-0.5988 4.209-0.44302 2.9016-0.32222 1.8757-0.36421 1.7992-0.20526 0.85812-0.20904 0.77044-0.80399 2.6598-0.39974 1.3981-0.58432 1.8369-0.93833 3.2801-0.13497 0.51387-0.1372 0.6576-0.034433 0.20636-0.023173 0.31195 0.020265 0.23737 0.044306 0.17749 0.18008 0.39116 0.81054 1.3145 0.65967 1.0057 0.23993 0.42712 0.24573 0.56356 0.085948 0.27388 0.30323 1.1701 0.52952 1.559 0.11534 0.41866 0.10545 0.4715 0.08234 0.49165 0.085573 0.71923 0.16117 1.7344 0.07547 1.1874 0.064213 0.44078 0.087878 0.39828 0.15747 0.50972 0.2319 0.54825 0.27653 0.52202 0.71311 1.232 0.33286 0.65495 0.13795 0.30421 0.016314 0.033664-0.001745 0.049695-0.045791 0.17915-0.11129 0.2745-0.25055 0.528-0.14364 0.35338-0.11357 0.3614-0.11422 0.43629-0.14436 0.61642-0.084843 0.48905-0.047794 0.47973-0.058943 0.88387-0.038183 0.32246-0.061461 0.34086-0.09835 0.39446-0.12985 0.41235-0.36798 0.97678-0.19372 0.43267-0.25588 0.51119-0.82584 1.5102-0.36457 0.72391-0.38042 0.87778-0.50888 1.3387-0.26328 0.64541-0.27809 0.61506-0.45446 0.94081-0.36719 0.68281-0.55908 0.97451-0.21338 0.42177-0.59643 1.2969-0.25126 0.48319-0.61392 1.0167-0.61784 1.1571-0.29458 0.51729-0.33537 0.53087-0.18456 0.24112-0.23611 0.21722-1.4091 1.115-0.81681 0.67307-0.83098 0.72444-0.81511 0.7703-0.42104 0.43514-0.36096 0.40618-0.45286 0.55869-1.3796 1.7706-0.97613 1.1753-0.24585 0.25518-0.21514 0.19228-0.29027 0.22908-0.18999 0.11769-0.13998 0.057476-0.17435 0.033749-0.39899 0.010061-0.22456-0.014638-0.22124-0.038512-0.21635-0.073306-0.12254-0.064486-0.20627-0.16346-0.1923-0.21424-0.1837-0.25117-0.6823-1.0689-0.27517-0.35986-0.10716-0.10015-0.091407-0.052748-0.05827 1.04e-4 -0.033897 0.049419-0.040533-0.084251-0.033437-0.18334-0.029558-0.34053-0.04001-0.95248-0.091384-0.64279-0.069044-0.29034-0.13621-0.43857-0.29033-0.74138-0.15159-0.32503-0.18605-0.34726-0.40146-0.63677-0.64004-0.91097-1.0093-1.3388-0.54313-0.74853-0.35984-0.54848-0.3121-0.57433-0.1884-0.431-0.17694-0.5186-0.12496-0.47779-0.23768-1.046-0.20618-0.69774-0.24298-0.64137-0.59011-1.3185-0.21829-0.56599-0.15577-0.45079-0.13505-0.45111-0.15934-0.60904-0.27505-1.344-0.17561-0.54358-0.17253-0.39675-0.19243-0.34597-0.24556-0.36743-0.59801-0.80407-0.30621-0.49224-0.64648-1.2418-0.17978-0.41618-0.12513-0.34445-0.092168-0.3131-0.09817-0.43292-0.1997-1.1333-0.12348-0.60364-0.16671-0.70064-0.36856-1.3844-0.08546-0.40341-0.059884-0.40135-0.02933-0.441 0.012239-0.44158 0.2223-1.7989 0.025565-0.40678 0.003873-0.44041-0.032846-0.45087-0.061818-0.39205-0.14522-0.5798-0.15332-0.44222-0.30017-0.66872-0.38138-0.70032-0.38213-0.58428-0.45734-0.59948-0.698-0.82369-1.0662-1.1922-0.64034-0.63415-0.57643-0.48263-0.4368-0.30541-0.53676-0.30027-0.30468-0.13093-0.3738-0.11969-0.38159-0.072359-0.62554-0.010313-0.64286 0.093957-0.39774 0.094962-0.40305 0.11649-0.6747 0.22503-2.3954 0.86819-1.3519 0.45162-1.6955 0.53496-3.4485 1.0551-1.4277 0.45841-1.8755 0.64618-4.5691 1.6673-1.3173 0.44348-0.68971 0.21732-1.2122 0.34942-1.0551 0.26076-0.8868 0.17612-1.629 0.24977-0.73757 0.093058-1.5676 0.16773-3.1063 0.28623-1.44 0.14877-1.6062 0.20571-1.2043 0.20626-0.79602 0.17754-0.75584 0.20833-0.4888 0.15638-0.83044 0.2975-2.3997 0.94946-0.76142 0.27598-0.7325 0.21926-0.69334 0.13278-0.52021 0.017954-0.47791-0.090725-0.47194-0.25187-0.35775-0.31656-0.39661-0.48536-0.36323-0.5709-0.27086-0.50401-0.25524-0.53753-0.24013-0.56505-0.29589-0.78287-0.27609-0.8128-0.26175-0.8352-0.58672-2.0419-2.696-9.9266-0.70663-2.6674-0.70657-0.22328-1.3605-0.32781-0.78363-0.16907-0.8407-0.15809-0.86235-0.13128-0.85936-0.090293-0.83855-0.03489-0.80395 0.036558-0.7576 0.12681-0.75568 0.24453-1.4712 0.61038-0.77113 0.25078-0.8077 0.20441-0.8328 0.16997-0.84855 0.14565-2.565 0.37312-0.83755 0.12803-0.8149 0.14327-0.78102 0.16857-0.73274 0.20637-0.66573 0.26008-0.57443 0.33412-0.45182 0.43416-0.29644 0.5335-0.18423 0.62566-0.10354 0.69232-0.04836 0.7383-0.014343 0.76707 0.001438 1.5612-0.017969 0.76586-0.054105 0.73566-0.11087 0.68725-0.1922 0.61675-0.30351 0.5188-0.43549 0.39671-0.54395 0.29335-0.62076 0.21013-0.67101 0.1403-0.6982 0.077672-0.70432 0.016382-0.68991-0.049396-0.65405-0.12572-0.59439-0.21914-0.50712-0.33695-0.38722-0.45768-0.19665-0.34339-0.13856-0.30578-0.20855-0.5949-0.18792-0.72273-0.15231-0.75578-0.47283-2.9598-0.13021-0.6168-0.15403-0.51167-0.18969-0.36681-0.15495-0.14091-0.10274-0.035106-0.26982 0.053242-0.30382 0.20212-1.0058 0.92666-0.33652 0.28041-0.36113 0.25808-0.32216 0.19129-0.46091 0.21554-0.62159 0.23612-1.2229 0.41652-0.63487 0.2318-0.62086 0.25675-0.62077 0.2866-0.61828 0.31328-0.61344 0.33821-0.54092 0.32166-1.0633 0.69456-0.74932 0.5378-1.4721 1.1418-4.4293 3.6646-1.5485 1.2377-0.7975 0.60537-0.81432 0.5846-0.8301 0.54944-0.63094 0.37694-0.63437 0.33364-0.63137 0.27674-0.70316 0.23471-0.64091 0.15052-0.47663 0.067886-0.28276 0.007178-0.1228-0.041579-0.020969-0.13016-0.10584-0.31351-0.35256-0.92954-0.4406-1.0789-0.36689-0.79802-0.39642-0.72883-0.9498-1.5552-0.27211-0.49554-0.11714-0.25025-0.091173-0.23067-0.10798-0.38991-0.032597-0.44497 0.10387-0.49692 0.22418-0.4891 0.30902-0.48462 0.36663-0.48324 0.76366-0.8972 0.90321-0.97956 0.93991-0.95423 1.2755-1.2332 0.42207-0.45688 0.36615-0.47655 0.28403-0.50942 0.18082-0.55414 0.094504-0.59141 0.030715-0.61982-0.015923-0.64164-0.049661-0.65872-0.073825-0.67252-0.090982-0.68419-0.21468-1.3992-1.2481-7.3433-0.18707-1.1696 0.15319-0.079992 1.0152-0.4428 0.65686-0.31695 0.67266-0.36256 0.64745-0.40236 0.58952-0.44149 0.50211-0.48456 0.38476-0.53589 0.24764-0.59833 0.13043-0.64489 0.042977-0.67707-0.020972-0.69841-0.067144-0.7119-0.10031-0.71982-0.26618-1.4492-0.15562-0.72483-0.34539-1.443-0.39378-1.427-0.22113-0.7045-0.25761-0.74226-0.27582-0.73549-0.58674-1.4578-0.92484-2.1723-6.8327-15.714-14.513-13.987-6.9303-6.6736-4.3122 1.2245-8.5262 2.464-2.6713 0.7295-0.87722 0.21406-0.87057 0.18877-0.86318 0.15314-0.85443 0.10347-0.84362 0.035034-0.82986-0.058141-0.77649-0.16098-0.7644-0.24591-0.75544-0.30841-0.7489-0.35382-0.74418-0.38634-1.4795-0.83412-4.4244-2.6537-0.74252-0.43518-1.3487-0.75956-1.2658-0.66439-1.3003-0.62166-0.64153-0.27689-0.64903-0.25374-0.65846-0.22425-0.80439-0.22348-0.81789-0.18054-0.82871-0.14543-0.83763-0.11534-0.8453-0.087708-0.87939-0.063379-1.7779-0.070464-4.5435-0.078208-1.8422-0.070582-0.91442-0.06195-0.89886-0.089602-0.79528-0.11458-0.75455-0.1556-0.69192-0.20756-0.60068-0.27048-0.47491-0.34033-0.27906-0.3315-0.16785-0.33535-0.055565-0.27148 0.053407-0.187 0.13044-0.11502 0.4179-0.051455 0.59785 0.00505 2.1781 0.14674 0.4296 0.015168 0.52682-0.003048 0.53594-0.044319 0.44072-0.095266 0.26028-0.1048 0.20882-0.13622 0.13723-0.13967 0.16133-0.27438 0.079124-0.25382 0.044804-0.37897-0.030244-0.52374-0.089647-0.48237-0.16331-0.59156-0.19898-0.58418-0.5672-1.4925-0.20442-0.63529-0.098148-0.46679-0.025297-0.4595 0.069785-0.48117 0.14905-0.47788 0.25866-0.59894 0.56965-1.2036 0.21611-0.61289 0.103-0.62669-0.04829-0.63467-0.17442-0.64893-0.26909-0.65934-0.33945-0.66671-0.33273-0.57511-0.36257-0.57698-0.38635-0.57727-0.49366-0.69877-0.51346-0.69719-1.0623-1.3905-5.9827-7.6066-3.7462-4.8288-6.2584-8.2597-1.586-2.1406-1.0277-1.4463-0.49566-0.73432-0.47668-0.74571-0.45036-0.76125-0.41158-0.76762-0.38571-0.78295-0.36661-0.79443-0.69413-1.6122-0.65748-1.6307-0.61971-1.6382-0.28835-0.81874-0.26582-0.81633-0.23338-0.81162-0.18689-0.80372-0.12094-0.79134-0.028574-0.77274 0.098954-0.74561 0.24614-0.69058 0.37031-0.66222 0.46243-0.63926 0.52738-0.61911 0.56827-0.59906 1.6252-1.5781 0.48929-0.46738 0.48498-0.40446 0.48467-0.3033 0.49871-0.18159 0.40495-0.044304 0.20017 0.083768-0.35105-1.9147-0.26215-1.7845-0.01578-0.37919 0.063864-0.31873 0.14531-0.27551 0.26451-0.25287 0.67362-0.43624 0.32192-0.28063 0.26066-0.36995 0.19424-0.44203 0.12343-0.48449 0.044557-0.50072-0.046578-0.49305-0.13272-0.44893-0.36051-0.924-0.11469-0.39572-0.09563-0.42001-0.074991-0.4119-0.063223-0.50284-0.038669-0.52741-0.020478-1.0067 0.012548-1.0636-0.02807-0.63457-0.035221-0.27432-0.11103-0.51741-0.1557-0.47504-0.19487-0.4451-0.32631-0.57757-0.38473-0.53954-0.4334-0.49236-0.47563-0.43293-0.41262-0.29474-0.44128-0.23273-0.69036-0.21606-0.73538-0.1249-1.0033-0.13159-0.57577-0.092142-0.6834-0.14855-0.64571-0.18647-0.59644-0.22335-0.52148-0.2606-0.41502-0.30038-0.26953-0.34497-0.080603-0.26358 0.001914-0.27604 0.029632-0.1395 0.11219-0.29107 0.090717-0.1702 0.10824-0.17279 0.35232-0.43216 0.45129-0.37076 0.50382-0.26534 1.2586-0.53915 1.4918-0.7046 1.5732-0.79371 2.4115-1.2678 6.4211-3.4405 8.8126-4.7937 3.5802-1.9024 6.9651-3.5785 1.3168-0.65865 1.4738-0.69199 1.1586-0.47768 0.58949-0.20784 0.78102-0.23164 0.79345-0.19452 1.0227-0.20806 0.72811-0.12875 3.47-0.54079 1.306-0.22557 0.71255-0.14213 0.99464-0.23201 1.1694-0.33187 0.51881-0.1711 0.6042-0.22176 0.74114-0.31449 0.44237-0.217 0.53842-0.30343 0.4423-0.29126 0.31896-0.23865 0.50864-0.43537 0.60262-0.59306 1.6979-1.7863 0.71924-0.6847 0.69675-0.58613 0.36807-0.27533 0.37745-0.25846 0.3853-0.2396 0.39464-0.21914 0.38499-0.18703 0.39422-0.16356 0.538-0.1777 0.58292-0.13843 0.51979-0.082051 0.83244-0.065666 0.84626-0.004719 0.84704 0.033871 1.9526 0.12187 0.69053 0.026569 0.86071 9.99e-4 0.86276-0.030449 0.86396-0.055147 0.86454-0.074656 1.729-0.19377 1.7379-0.24194 1.7463-0.27616 6.996-1.194 8.9271-1.4947 1.7831-0.2781 1.7638-0.2259 0.86666-0.074571 0.84961-0.032911 0.82493 0.026284 0.78997 0.10891 0.74133 0.22245 0.67786 0.35862 0.62814 0.46994 0.59021 0.54942 0.56019 0.60423 0.60922 0.73366 0.47532 0.63228" stroke="#bdc660"/>
    </defs>
    <g clip-path="url(#p1859731db4)">
     <use y="280.512" fill="#bdc660" stroke="#bdc660" xlink:href="#mb0df8ae688"/>
    </g>
   </g>
  </g>
 </g>
 <defs>
  <clipPath id="p1859731db4">
   <rect x="7.2" y="7.2" width="276.44" height="266.11"/>
  </clipPath>
 </defs>
</svg>
