<?xml version="1.0" encoding="UTF-8"?>
<!DOCTYPE svg  PUBLIC '-//W3C//DTD SVG 1.1//EN'  'http://www.w3.org/Graphics/SVG/1.1/DTD/svg11.dtd'>
<svg width="171.53pt" height="280.51pt" version="1.1" viewBox="0 0 171.53 280.51" xmlns="http://www.w3.org/2000/svg" xmlns:xlink="http://www.w3.org/1999/xlink">
 <metadata>
  <rdf:RDF xmlns:cc="http://creativecommons.org/ns#" xmlns:dc="http://purl.org/dc/elements/1.1/" xmlns:rdf="http://www.w3.org/1999/02/22-rdf-syntax-ns#">
   <cc:Work>
    <dc:type rdf:resource="http://purl.org/dc/dcmitype/StillImage"/>
    <dc:date>2024-07-04T12:10:42.980690</dc:date>
    <dc:format>image/svg+xml</dc:format>
    <dc:creator>
     <cc:Agent>
      <dc:title>Matplotlib v3.7.1, https://matplotlib.org/</dc:title>
     </cc:Agent>
    </dc:creator>
   </cc:Work>
  </rdf:RDF>
 </metadata>
 <defs>
  <style type="text/css">*{stroke-linejoin: round; stroke-linecap: butt}</style>
 </defs>
 <g id="figure_1">
  <g id="patch_1">
   <path d="m0 280.51h171.53v-280.51h-171.53v280.51z" fill="none"/>
  </g>
  <g id="axes_1">
   <g id="PatchCollection_1">
    <defs>
     <path id="ma9e96c13a9" d="m70.495-249.76 1.2325 0.012628 1.2616-0.022254 4.4525-0.15334 1.4665-0.037239 0.76121 0.002647 0.37063 0.012675 0.49956 0.036962 0.47505 0.068512 0.44244 0.11231 0.26026 0.10209 0.17711 0.093641 0.20576 0.14171 0.11812 0.10029 0.21579 0.22148 0.19929 0.24961 0.28098 0.42452 0.2403 0.42952 0.29668 0.60315 0.50212 1.1484 0.48568 1.1906 1.9332 4.8278 1.4773 3.5941 2.9441 6.9304 2.0303 4.7 0.21622 0.52996 0.19962 0.53069 0.17796 0.53046 0.14927 0.52918 0.11111 0.52672 0.060469 0.52287-0.006319 0.51735-0.096589 0.5537-0.17303 0.54709-0.22893 0.54226-0.26915 0.53881-0.29751 0.53645-0.31698 0.53493-0.6675 1.068-0.98441 1.5405-0.64365 1.0372-0.77571 1.3307-0.6253 1.1428-0.90632 1.7303-0.8901 1.7396-5.7223 11.334-1.8259 3.5805 0.63175 0.67765 0.73366 0.811 9.8372 10.962 5.3146 5.8805 1.277 1.4339 0.86604 0.98948 0.84828 1.011 0.33802 0.43167 0.32482 0.43966 0.30787 0.4497 0.28616 0.46239 0.26984 0.49387 0.24945 0.50582 0.70356 1.5454 0.24336 0.5112 0.26003 0.50243 0.32185 0.55438 0.34739 0.54 0.36807 0.52739 0.38543 0.51556 0.40077 0.50356 0.46532 0.54766 1.2307 1.366 0.39341 0.45888 0.36923 0.46915 0.33279 0.4856 0.28114 0.50954 0.22181 0.5527 0.16667 0.57864 0.12624 0.59773 0.097038 0.61161 0.076283 0.62155 0.061809 0.62858 0.13859 1.9096 0.4209 7.1225 0.6502 10.119 0.54666 0.14937 6.6488 1.9576 1.3073 0.36442 0.64058 0.16596 0.6318 0.1496 0.62241 0.12695 0.6118 0.095679 0.5992 0.052731 0.58364-0.005764 0.56399-0.084666 0.51192-0.16746 0.49551-0.23686 0.48398-0.28698 0.47642-0.32199 0.47224-0.34505 1.4211-1.0834 0.48523-0.352 0.49686-0.33515 0.28173-0.17594 0.68542-0.39343 0.40494-0.2147 0.79506-0.3919 0.93589-0.42356 0.65093-0.27376 1.1223-0.45028 1.2172-0.46704 0.94076-0.33103 0.84789-0.26757 1.9708-0.5246 0.55136-0.16268 0.988-0.32526 0.47868-0.12104 0.47726-0.052319 0.51772 0.048023 0.52222 0.13861 0.52582 0.20524 0.52864 0.25352 0.53085 0.28794 0.53257 0.31202 0.53391 0.32848 1.0708 0.68582 3.2276 2.1176 1.622 1.0524 5.3476 3.4097 0.99711 0.66597 0.48025 0.33989 0.46033 0.34744 0.43205 0.35818 0.39262 0.37319 0.33851 0.39383 0.26532 0.42178 0.1057 0.24596 0.12784 0.56104 0.025738 0.54554-0.036394 0.56969-0.080924 0.58699-0.11228 0.59916-0.13389 0.60755-0.30623 1.23-1.6717 6.2047-2.6292 9.9271-0.322 1.247-0.29389 1.2402-0.12312 0.61716-0.095308 0.61316-0.054447 0.60652-0.002624 0.47684 0.045465 0.4672 0.10721 0.45378 0.20041 0.47768 0.2758 0.46184 0.33595 0.45057 0.42919 0.49201 0.47327 0.48379 0.50363 0.47473 0.51933 0.46157 0.51692 0.43995 1.2201 1 0.099803 0.10887-1.5624 1.6953-4.6884 5.0443-0.88191 0.98123-0.42306 0.49106-0.40615 0.49439-0.38346 0.50068-0.3528 0.5107-0.31136 0.5255-0.25565 0.5464-0.18854 0.5721-0.13397 0.59309-0.094449 0.60824-0.06624 0.61902-0.046429 0.62656-0.056391 1.267-0.031555 1.2764-0.1781 9.6569-0.011295 1.3184 0.013634 1.3382 0.026664 0.74558 0.033159 0.55438 0.052462 0.58522 0.15124 1.1867 0.092967 0.60039 0.23358 1.3383 0.56028 2.8489-0.034389 0.13279-0.006247 0.31197 0.02488 0.42681 0.062115 0.49509 0.10612 0.53011 0.15802 0.54122 0.14514 0.37649 0.17021 0.37185 0.18761 0.36153 0.20338 0.35604 0.32 0.51258 0.33649 0.50203 1.0602 1.5133 0.36322 0.54159 0.33957 0.54534 0.30607 0.5538 0.26052 0.56786 0.1925 0.5438 0.15222 0.55709 0.12086 0.5668 0.095824 0.57372 0.094537 0.75382 0.063957 0.70736 0.042751 0.69178 0.021077 0.92064-0.010819 0.46886-0.026896 0.43332-0.038704 0.3804-0.091089 0.59027-0.064994 0.31049-0.076587 0.30231-0.089801 0.29477-0.10404 0.28291-0.13376 0.29573-0.15656 0.27495-0.28888 0.36763-0.18257 0.16754-0.32039 0.22668-0.29973 0.16557-0.25332 0.11655-0.34961 0.13435-0.30494 0.096382-0.30558 0.079961-0.30733 0.064965-0.39864 0.062046-0.57625 0.049548-0.66149 0.014094-0.68123-0.020895-0.79967-0.06459-0.58605-0.0708-0.57787-0.090067-1.0868-0.21962-0.71364-0.17003-0.97679-0.25365-0.54256-0.12256-0.72865-0.12177-0.55147-0.062311-0.57873-0.042331-0.50614-0.020448-0.52315-0.006299-0.64487 0.012331-0.51938 0.030239-0.40637 0.042102-0.52826 0.093464-0.42631 0.10942-0.26129 0.079623-0.76975 0.27196-0.76315 0.30993-0.6303 0.2884-0.34371 0.17773-0.30678 0.17394-0.38076 0.23648-0.81081 0.55231-0.29228 0.17532-0.16934 0.081703-0.17546 0.05883-0.14654 0.016629-0.10356-0.016611-0.074732-0.035375-0.050175-0.041584-0.12421-0.23256-0.053956-0.338 0.004656-0.41248 0.056647-0.46196 0.10665-0.49095 0.15909-0.50257 0.14703-0.36025 0.16467-0.36376 0.43975-0.91377 0.19675-0.36865 0.19049-0.32883 0.34588-0.53433 0.15717-0.22049 0.47237-0.60466 0.55119-0.64584 0.41973-0.46801 1.4191-1.5279 0.77056-0.85878 0.40069-0.47738 0.36548-0.47531 0.3146-0.47198 0.24286-0.46648 0.14355-0.45763 0.022407-0.178-0.023657-0.389-0.035546-0.13941-0.17529-0.3565-0.2796-0.27836-0.33868-0.16751-0.40143-0.10139-0.36247-0.047976-0.45101-0.030983-1.2407-0.043618-0.36627-0.022387-0.64074-0.067466-0.46813-0.08368-0.30895-0.077715-0.72815-0.2348-0.29359-0.06142-0.20655-0.015517-0.17997 0.002882-0.23564 0.019799-0.45279 0.067499-0.73127 0.14145-2.1978 0.46284-0.68531 0.14817-0.49042 0.11954-0.43659 0.12382-0.46437 0.15608-0.53482 0.21394-0.51512 0.24121-0.4477 0.25226-0.1671 0.11239-0.14738 0.1145-0.12169 0.1138-0.089708 0.1026-0.08871 0.12995-0.049072 0.097646-0.041992 0.12282-0.028551 0.17278 0.005558 0.24861 0.079634 0.36376 0.086809 0.2388 0.11086 0.24403 0.23658 0.42587 0.20746 0.32237 0.23997 0.34492 0.84914 1.1549 0.43646 0.61052 0.29506 0.44118 0.22548 0.37261 0.19063 0.36706 0.12029 0.28994 0.083183 0.28392 0.042617 0.3987-0.041348 0.34095-0.11588 0.29856-0.19158 0.23871-0.14633 0.10452-0.11658 0.059852-0.1786 0.066575-0.14797 0.039076-0.39125 0.059369-0.21442 0.015172-0.35012 0.007411-0.36317-0.007861-0.83047-0.04503-0.46244-0.007151-0.30889 0.006236-0.3889 0.022447-0.32313 0.034012-0.50804 0.09117-0.38649 0.1139-0.27751 0.11874-0.22258 0.12491-0.57108 0.37959-0.20467 0.1195-0.29669 0.14294-0.4062 0.15545-0.42567 0.1217-0.48627 0.10804-1.274 0.22618-0.45035 0.059996-0.31923 0.022463-0.30416 0.007613-0.20239-0.005009-0.2564-0.024144-0.54844-0.094335-0.95608-0.21864-0.40119-0.070184-0.60207-0.072992-0.5794-0.038679-0.42056-0.039623-1.2294-0.19006-0.17487-0.008713-0.13275 0.010651-0.10278 0.025165-0.10954 0.052606-0.042033 0.030434-0.16262 0.2033-0.12476 0.27448-0.11658 0.31298-0.1368 0.32208-0.36932 0.64924-0.1106 0.247-0.069507 0.25453-0.019511 0.16653 0.006872 0.35578 0.039198 0.31104 0.25558 1.3002 0.17232 1.1613 0.060505 0.4881 0.024952 0.28566 0.015365 0.3962-0.016194 0.39179-0.059076 0.38448-0.079636 0.286-0.10688 0.28092-0.11673 0.25083-0.20424 0.36907-0.18978 0.2962-0.23877 0.33484-0.86108 1.1263-0.71194 0.97407-1.76 2.5092-0.71247 0.98837-0.36444 0.47916-0.37359 0.46265-0.38652 0.43929-0.40436 0.40696-0.23263 0.2081-0.23183 0.19277-0.47787 0.34674-1.0052 0.63501-0.49302 0.32477-0.2474 0.18013-0.77913 0.62858-0.4142 0.29563-0.34995 0.20141-0.37628 0.18038-0.55836 0.22453-0.49596 0.17444-1.284 0.40386-1.4925 0.41702-2.1264-0.12669-1.928-0.13436-0.76853-0.037343-0.47948 0.003879-0.22336 0.018308-0.20752 0.034746-0.18648 0.056957-0.15865 0.086623-0.073249 0.06328-0.063726 0.072719-0.085911 0.13046-0.18476 0.36331-0.091558 0.1305-0.13186 0.1211-0.162 0.10391-0.18456 0.091518-0.20088 0.08327-0.65098 0.23696-0.4304 0.18547-0.1998 0.11529-0.18138 0.13908-0.16879 0.18083-0.14585 0.199-0.44971 0.68161-0.91531 1.1836-0.2577-1.663-0.18726-1.3533-0.16533-1.3909-0.065718-0.68522-0.049555-0.67171-0.029013-0.65475-0.003173-0.63457 0.02912-0.61074 0.041983-0.40077 0.21378-1.3521 0.023568-0.42506-0.042332-0.48473-0.10335-0.46887-0.14461-0.44706-0.17014-0.41031-0.19998-0.36481-0.23774-0.29968-0.072328-0.067411-0.24112-0.17552-0.34836-0.18836-0.41956-0.18906-0.36725-0.1341-1.7797-0.46723-0.57302-0.18853-0.41352-0.1594-0.41052-0.19287-0.31278-0.18319-0.30643-0.21696-0.38008-0.30285-0.17046-0.12297-0.19649-0.10998-0.1385-0.054981-0.30555-0.073978-0.27957-0.031969-0.9611-0.041343-0.34562-0.032376-0.40756-0.068594-0.40939-0.098464-0.32495-0.10777-0.15084-0.063862-0.23643-0.12254-0.23063-0.14298-0.27984-0.19593-0.41273-0.31215-0.38673-0.31004-0.58141-0.50944-0.2419-0.23464-0.41112-0.44858-0.26448-0.33918-0.28862-0.42099-0.2704-0.43941-0.2571-0.45268-0.36388-0.68469-0.75796-1.4991-0.28396-0.59578-0.1673-0.37181-0.29792-0.71598-0.20488-0.54663-0.19186-0.55219-0.36004-1.1144-0.71158-2.3135-0.34531-1.1698-0.31236-1.1524-0.13512-0.56798-0.11602-0.56923-0.089753-0.571-0.054225-0.57343-0.010888-0.59343 0.027104-0.59636 0.055554-0.59896 0.076665-0.60137 0.092214-0.60371 0.21565-1.2146 0.36849-1.8416 0.55111-2.5352 0.2443-1.1936 0.60775-2.6532 0.34515-1.6028 0.092351-0.4765-0.24894-0.045774-0.43605-0.11516-1.6948-0.53877-0.60739-0.17562-0.47639-0.1241-0.61718-0.14429-0.68057-0.13654-1.023-0.15035-0.46573-0.080871-0.42052-0.11426-0.36097-0.172-0.12671-0.092187-0.10216-0.090377-0.12464-0.1305-0.17822-0.22341-0.16266-0.23834-0.1083-0.18707-0.067956-0.13748-0.087086-0.21982-0.066319-0.24036-0.058632-0.37054-0.022776-0.40239 0.002367-0.29572 0.01505-0.30212 0.044106-0.48115 0.063122-0.4899 0.16257-0.99615 0.69844-3.6806 0.19789-1.1367 0.15526-0.98353 0.13335-0.97781 0.098867-0.99774 0.023941-0.5001-0.00537-0.47705-0.04606-0.44246-0.10132-0.39218-0.17404-0.32171-0.16529-0.16588-0.22654-0.13246-0.18479-0.060521-0.13398-0.028149-0.30168-0.031687-0.81397-0.010032-0.1533-0.017049-0.068074-0.042582 0.016199-0.08346 0.073817-0.16988 0.46187-0.98064 0.30636-0.60707 0.38034-0.68899 0.93535-1.5901 0.44156-0.82404 0.67071-1.1117 0.2562-0.5102 0.10676-0.25464 0.098763-0.28283 0.12845-0.50452 0.077784-0.45719 0.068339-0.58109 0.077413-1.0812 0.030939-0.78934 0.010943-0.63622-0.001843-0.63913-0.015668-0.63914-0.032281-0.63627-0.053634-0.63022-0.082006-0.6203-0.12014-0.60548-0.16238-0.57355-0.19848-0.55213-0.2205-0.51949-0.2367-0.49131-0.24544-0.45612-0.24781-0.41085-0.43249-0.66289-0.17771-0.24649-0.23867-0.27351-0.26351-0.2723-0.2376-0.2327-0.26592-0.20961-0.20309-0.11836-0.223-0.10433-0.41222-0.15872-0.95039-0.3273-0.46547-0.18074-0.42491-0.20906-0.27148-0.18423-0.2184-0.22511-0.096284-0.15423-0.057994-0.12994-0.046255-0.14608-0.029426-0.14006-0.025463-0.3108 0.020142-0.36092 0.06571-0.42119 0.079777-0.37067 0.35227-1.3339 0.008799-0.10021 0.061663-0.23808 0.10289-0.32466 0.1381-0.37485 0.1706-0.39949 0.22217-0.44561 0.25113-0.44241 0.27194-0.43297 0.28676-0.42004 0.76024-1.0336 0.2381-0.34157 0.25197-0.39841 0.22742-0.40518 0.20133-0.41143 0.17224-0.41777 0.12286-0.3607 0.32901-1.0777 0.13036-0.34619 0.19489-0.40742 0.2331-0.38611 0.27024-0.36136 0.24064-0.26707 0.25881-0.25262 0.5512-0.47619 1.2269-0.99666 0.27718-0.24908 0.2514-0.25228 0.21605-0.25705 0.10698-0.15554 0.11981-0.22664 0.053558-0.14634 0.041924-0.15808 0.079284-0.41668 0.053109-0.20298 0.105-0.21672 0.17632-0.18976 0.24101-0.16481 0.29363-0.14512 0.33646-0.12954 0.4211-0.13162 0.45568-0.12069 0.98071-0.22277 0.64499-0.13272 1.7028-0.32501 0.13137-0.037682 0.47281-0.34943 0.37482-0.30416 0.23566-0.20648 0.37004-0.34962 0.4625-0.49219 0.30935-0.38711 0.15298-0.22454 0.13048-0.22454 0.13003-0.28895 0.070005-0.23988 0.031791-0.3051-0.03195-0.31695-0.084945-0.29648-0.069942-0.17618-0.10472-0.22018-0.14325-0.25181-0.11166-0.17216-0.70672-0.99251-0.6878-1.0959-0.48301-0.72755-0.23174-0.32367-0.35009-0.45436-0.26021-0.29739-0.28847-0.28445-0.13356-0.11581-0.34504-0.257-0.33007-0.17995-0.3463-0.12027-0.36166-0.08037-0.82558-0.14357-0.44199-0.11598-0.41162-0.18293-0.37995-0.28571-0.34074-0.36886-0.31165-0.43084-0.29037-0.47647-0.27506-0.5096-0.26421-0.53331-0.25663-0.54999-0.74341-1.7051-0.47988-1.1568-0.46032-1.1614-0.21677-0.58127-0.20225-0.58155-0.18149-0.58197-0.15229-0.58271-0.11189-0.58391-0.056821-0.58575 0.012044-0.61522 0.071723-0.61736 0.11503-0.61892 0.14598-0.62006 0.16772-0.62094 0.18271-0.62167 0.59584-1.8691 2.3137-7.0125 2.3438-7.2333-6.2117-0.9423-1.8425-0.29834-1.1875-0.21068-0.93012-0.1833-1.2089-0.27139-1.2559-0.31779-2.4899-0.66663-0.88091-0.21592-0.5542-0.12007-0.55337-0.10159-0.55244-0.076418-0.53919-0.042274-0.53767-3.72e-4 -0.45689 0.039265-0.45518 0.072132-0.58995 0.13419-0.58746 0.1682-0.58563 0.19157-2.3294 0.83849-0.57802 0.19032-0.57469 0.16479-0.56967 0.12662-0.56222 0.072061-0.34195 0.009715-0.40363-0.025151-0.24293-0.037355-0.25768-0.054812-0.19346-0.050932-0.25312-0.082572-0.2218-0.089015-0.20962-0.09817-0.34736-0.19369-0.45119-0.30248-0.37584-0.29563-0.37985-0.35796-0.35938-0.40137-0.39362-0.49291-0.41482-0.57697-0.46849-0.71608-0.25045-0.44217-0.15333-0.34643-0.055943-0.17252-0.053095-0.2458-0.020885-0.18418-0.005783-0.19073 0.010963-0.19891 0.060461-0.30998 0.08959-0.13582 0.034057-0.15366 0.12289-0.3957 1.4968-4.6701 0.41346-1.3692 0.18702-0.66676 0.16744-0.65359 0.14066-0.63902 0.104-0.62227 0.053938-0.60218-0.014082-0.57722-0.10578-0.54545-0.19993-0.47739-0.2807-0.44909-0.34107-0.42626-0.38645-0.40685-0.4212-0.38908-0.44884-0.37124-0.47234-0.35168-0.49417-0.32872-0.54686-0.32058-0.56444-0.29752-0.57644-0.28103-0.58442-0.26945-1.1822-0.51779-4.1656-1.7633-2.6869-1.1758-2.9734-1.2706-3.3636-1.4901-1.8932-0.79564-2.1223-0.85038 0.24401-0.31924 12.948-16.214 1.2368-1.499 0.8534-0.9709 0.44302-0.4695 0.45062-0.44842 0.9331-0.86577 1.4425-1.2569 2.4413-2.0591 7.3573-6.162 0.97501-0.82946 0.95958-0.84114 0.77705-0.71996 0.69137-0.69224 0.57717-0.61763 0.78035-0.86558 0.45688-0.55982 0.21003-0.3084 0.14942-0.26113 0.12554-0.26279 0.10954-0.27181 0.14219-0.4228 0.11054-0.38476 0.50109-2.0254 0.1145-0.38585 0.10359-0.29288 0.13985-0.33436 0.12517-0.25543 0.1574-0.28392 0.63926-1.0798 0.14045-0.2643 0.1212-0.25754 0.11086-0.2738 0.087478-0.25811 0.072936-0.26423 0.091925-0.48098 0.027119-0.23728 0.016908-0.2736-6.86e-4 -0.48089-0.040533-0.9736-0.038908-0.4243-0.038511-0.29401-0.070423-0.38963-0.1405-0.56942-0.48345-1.6278-0.12039-0.48872-0.083108-0.49662-0.028522-0.25934-0.023588-0.44733 0.004212-0.35581 0.020952-0.33774 0.053222-0.4733 0.06418-0.39775 0.083406-0.4059 0.10447-0.42092 0.20789-0.69055 0.23387-0.64423 0.24027-0.56159 0.18431-0.37378 0.12131-0.22225 0.19205-0.3189 0.16742-0.24903 0.41234-0.54245 1.2542-1.4885 0.43201-0.55987 0.33598-0.4652 0.28442-0.41698 1.0537-1.654 0.59165-0.87816 0.23081-0.30901 0.20408-0.2512 0.46565-0.50899 0.39833-0.39042 0.2341-0.21244 0.62447-0.52069 1.3894-1.0446 0.70776-0.49402 0.82227-0.51245 0.3098-0.16918 0.16013-0.073762 0.24984-0.089752 0.21806-0.053214 0.20807-0.030402 0.21286-0.010814 0.32337 0.02523 0.31492 0.080782 0.2261 0.10556 0.15325 0.10559 0.15092 0.13658 0.092683 0.10552 0.094801 0.13669 0.075985 0.14597 0.090796 0.24948 0.063213 0.27482 0.02561 0.16762 0.044782 0.55452 0.007375 0.59425-0.038573 1.8415 0.010685 0.55744 0.023504 0.28632 0.036909 0.23121 0.10858 0.41903 0.072853 0.21039 0.16623 0.39106 0.11323 0.22666 0.3051 0.55452 0.8006 1.3173 0.54038 0.77003 0.33227 0.43757 0.40577 0.47536 0.20159 0.20253 0.16006 0.14033 0.24977 0.17672 0.39069 0.18841 0.43369 0.13402 0.18485 0.041714 0.54607 0.088272 0.57526 0.054261 0.59623 0.029789" stroke="#bdc660"/>
    </defs>
    <g clip-path="url(#p69a81c500a)">
     <use y="280.512" fill="#bdc660" stroke="#bdc660" xlink:href="#ma9e96c13a9"/>
    </g>
   </g>
  </g>
 </g>
 <defs>
  <clipPath id="p69a81c500a">
   <rect x="7.2" y="7.2" width="157.13" height="266.11"/>
  </clipPath>
 </defs>
</svg>
