<?xml version="1.0" encoding="UTF-8"?>
<!DOCTYPE svg  PUBLIC '-//W3C//DTD SVG 1.1//EN'  'http://www.w3.org/Graphics/SVG/1.1/DTD/svg11.dtd'>
<svg width="371.52pt" height="248.13pt" version="1.1" viewBox="0 0 371.52 248.13" xmlns="http://www.w3.org/2000/svg" xmlns:xlink="http://www.w3.org/1999/xlink">
 <metadata>
  <rdf:RDF xmlns:cc="http://creativecommons.org/ns#" xmlns:dc="http://purl.org/dc/elements/1.1/" xmlns:rdf="http://www.w3.org/1999/02/22-rdf-syntax-ns#">
   <cc:Work>
    <dc:type rdf:resource="http://purl.org/dc/dcmitype/StillImage"/>
    <dc:date>2024-07-04T12:10:44.665639</dc:date>
    <dc:format>image/svg+xml</dc:format>
    <dc:creator>
     <cc:Agent>
      <dc:title>Matplotlib v3.7.1, https://matplotlib.org/</dc:title>
     </cc:Agent>
    </dc:creator>
   </cc:Work>
  </rdf:RDF>
 </metadata>
 <defs>
  <style type="text/css">*{stroke-linejoin: round; stroke-linecap: butt}</style>
 </defs>
 <g id="figure_1">
  <g id="patch_1">
   <path d="m0 248.13h371.52v-248.13h-371.52v248.13z" fill="none"/>
  </g>
  <g id="axes_1">
   <g id="PatchCollection_1">
    <defs>
     <path id="md5335a6f25" d="m193.68-212.99 0.80756 0.56875 0.59742 0.57275 0.31259 0.57926 0.004288 0.47196-0.16048 0.48398-0.60041 1.1982-0.24319 0.72478-0.068785 0.57241 0.030345 0.59651 0.11062 0.56248 0.27599 0.90819 0.49036 1.3978 0.16757 0.66848 0.063268 0.5213-0.004087 0.38294-0.055213 0.36892-0.10507 0.34401-0.15075 0.31571-0.17301 0.26139-0.18033 0.21203-0.2603 0.2398-0.39377 0.27292-0.36068 0.19597-0.54036 0.24124-0.81666 0.29746-1.3544 0.43997-0.64777 0.27575-0.32083 0.22881-0.23603 0.26669-0.20239 0.3597-0.14789 0.40526-0.1111 0.45756-0.12846 0.95748-0.039631 0.64454-0.007705 1.7104 0.048646 1.2323 0.15008 2.0414 0.20285 1.7224 0.14764 0.92196 0.20098 0.96422 0.25848 0.89683 0.17546 0.4519 0.19663 0.3924 0.15487 0.24243 0.22064 0.26333 0.24192 0.19689 0.20002 0.10077 0.60124 0.052473 0.33549-0.072868 0.33185-0.11616 1.3359-0.62196 0.78242-0.29012 0.61168-0.1423 0.37783-0.045362 0.42583-0.007612 0.31744 0.028725 0.2961 0.058117 0.35194 0.1181 0.27075 0.13856 0.27165 0.19949 0.22238 0.23559 0.18646 0.29467 0.12724 0.33631 0.05274 0.29923 0.00559 0.25323-0.03293 0.28591-0.092836 0.36911-0.24576 0.60776-0.53246 0.9506-1.2855 1.9871-0.48622 0.91437-0.18071 0.45356-0.18042 0.72049-0.04225 0.59061 0.044936 0.64378 0.10858 0.59636 0.19449 0.73537 0.74916 2.2906 0.19762 0.66717 0.15422 0.6213 0.08508 0.44711 0.070183 0.61954 5e-3 0.51891-0.093189 0.68558-0.098972 0.32947-0.24328 0.50323-0.31207 0.44832-0.44112 0.50366-0.39535 0.39921-0.71884 0.6479-0.37681 0.27085-0.36541 0.21488-0.52513 0.25488-0.53933 0.22269-2.2792 0.81517-1.4072 0.56279-1.1273 0.53383-0.99909 0.54934-0.72966 0.4576-0.39199 0.27446-0.50824 0.4015-0.3946 0.36486-0.3401 0.37235-0.19132 0.24487-0.2242 0.33954-0.092171 0.16691-0.17861 0.42662-0.064706 0.24839-0.009707 0.93568 0.27166 1.0018 0.47721 1.0563 0.62138 1.1027 1.7208 2.7379 0.5528 0.93799 0.54162 1.0133 0.37505 0.78364 0.51775 1.2595 0.24197 0.71728 0.24712 0.91698 0.1786 0.8958 0.092967 0.65958 0.068738 0.96081-0.016111 0.65-0.066422 0.41574-0.19687 0.25192 0.12279 0.66935 0.085051 0.32009 0.1181 0.21361 0.21624 0.20567 0.1175 0.065879 0.14175 0.045802 0.46125 0.048788 0.3134 0.059717 0.22603 0.011073 0.40432-0.032775 0.13522 0.01493 0.18526 0.089194 0.34176 0.25871 0.15223 0.088419 0.074117 0.069998 0.17673 0.014457 0.5518-0.086207 1.1553-0.32104 2.2637-0.75454 0.45195-0.13114 0.93248-0.22458 1.6047-0.30501 0.66829-0.08865 0.84103-0.047676 0.62256 0.004554 1.7126 0.080614 0.84496-0.025667 0.58076-0.085824 2.1685-0.56147 0.98183-0.16556 0.60698-0.049988 0.91531 0.026436 0.8518 0.1436 1.4517 0.4456 0.70003 0.18022 0.84286 0.14239 0.36244 0.04457 0.48398 0.025794 0.48994-0.036447 0.52028-0.12406 0.53587-0.19928 0.47722-0.21964 0.48624-0.26065 0.45166-0.27597 0.97988-0.70415 0.79602-0.6534 0.66291-0.58035 2.7354-2.4893 1.3089-1.1283 0.78345-0.63388 0.80219-0.6108 0.72263-0.51337 1.2831-0.81622 1.0239-0.57115 1.0275-0.52281 1.3446-0.63392 3.2136-1.4428 0.81202-0.38398 1.2978-0.6671 0.68099-0.38562 1.2484-0.79481 0.6492-0.47361 0.93689-0.78318 0.73362-0.7245 0.68711-0.80051 0.47243-0.62227 0.52357-0.75586 0.4718-0.73877 0.48817-0.82092 0.5829-1.0505 0.75155-1.4491 1.6922-3.4027 0.41031-0.78378 0.62989-1.0955 0.54658-0.81127 0.60819-0.73868 0.3974-0.39656 0.5049-0.43215 0.6027-0.43983 0.84418-0.52595 2.309-1.3251 2.5541-1.6519 1.8777-1.1312 1.1938-0.65425 0.84709-0.42588 0.93679-0.40048 0.49204-0.1831 0.96434-0.30009 0.77982-0.19386 0.70636-0.14635 1.3473-0.23598 1.0508-0.13437 0.71577-0.046496 2.364 0.004336 0.84227-0.057828 1.0184-0.16069 1.1499-0.27096 1.6133-0.46043 1.8912-0.60668 1.2958-0.46605 0.092353 0.2758 0.10613 0.6591 0.20953 1.9497 0.077796 1.1201 0.076989 2.7664 0.087863 1.1483 0.1486 1.1758 0.88198 5.249 0.65644 4.4085 0.31385 1.7602 0.17799 0.77828 0.31175 1.0823 0.28144 0.76063 0.32829 0.70692 0.55771 0.88617 0.59244 0.63542 0.24242 0.19142 0.46844 0.28427 0.51338 0.22239 0.90542 0.25134 0.81358 0.12785 1.1043 0.080406 1.0722 0.01166 1.1126-0.034868 1.1928-0.074766 1.259-0.11136 1.8745-0.21368 2.4492-0.348 2.1606-0.36648 3.627-0.65227 1.0805-0.21629 3.9832-0.88014 1.1098-0.28014 1.1166-0.31267 1.6724-0.53546 1.183-0.41885 5.4935-2.094 1.9113-0.64365 0.71678-0.20204 0.69322-0.16279 0.62673-0.11398 1.2082-0.17814 0.60531-0.04926 0.91458 0.04559 0.96534 0.18225 0.72517 0.2144 0.71956 0.27814 0.80368 0.39764 0.76443 0.48745 0.47236 0.36867 2.4718 2.1861 0.86208 0.70611 1.3905 1.057 1.0749 0.77144 1.9769 1.3534 1.8888 1.2422 2.3429 1.4924 2.2187 1.3539 1.99 1.1476 1.0926 0.59187 1.0523 0.53057 1.3097 0.5768 0.73074 0.2569 0.52638 0.13294 0.22077-0.016991-0.52582 1.3256-0.40995 0.78736-0.16663 0.25938-0.33154 0.44078-1.1205 1.2309-0.32057 0.38386-0.27602 0.40043-0.23246 0.45709-0.15703 0.48015-0.09326 0.45998-0.31551 2.3454-0.23429 1.1319-0.11663 0.41481-0.15127 0.4228-0.65753 1.5161-0.15944 0.52025-0.20092 0.81272-0.092844-0.014169-0.41684 0.069997-1.346 0.34554-2.1303 0.65331-2.0781 0.7169-0.94227 0.30279-1.3915 0.39245-1.1326 0.27962-0.99795 0.21862-2.0975 0.40825-5.1131 0.82315-2.3265 0.43285-3.6375 0.83215-1.851 0.48908-1.3944 0.40405-2.2629 0.75069-1.2883 0.50321-1.0004 0.48528-2.2553 1.2173-3.261 1.6631-1.8144 0.95915-0.81724 0.37746-0.53328 0.21788-2.8143 1.0504-1.5171 0.516-0.99368 0.28118-2.5833 0.55559-3.0682 0.79572-2.787 0.56843-1.1406 0.27394-1.0632 0.32445-2.0635 0.73843-0.81781 0.2455-0.62834 0.15722-1.2106 0.25177-1.7848 0.27513-2.3774 0.2325-2.382 0.32177-1.3269 0.10436-1.1635 0.022083-1.4936-0.082865-1.1982-0.10756-1.5604-0.19355-2.2211-0.22423-1.0459-0.095236-0.49262-0.024097-0.93231 0.033026-0.7186 0.10484-0.48242 0.12908-0.21183 0.085301-0.36314 0.20822-0.29929 0.2532-0.28243 0.34881-0.10337 0.1681-0.318 0.81424-0.17485 0.99693-0.04159 0.52079-0.026347 0.78597 0.010516 3.4918-0.044218 0.73724-0.16811 1.425-0.33092 1.8527-0.48643 2.2466-0.37506 1.8904-0.60928 3.4549-0.15154 0.75975-0.19711 0.86334-0.20429 0.75371-0.31108 0.91898-0.30504 0.70878-0.19902 0.37562-0.23976 0.37766-0.19779 0.26017-0.36833 0.39255-0.60597 0.49245-0.42549 0.27931-0.63947 0.35815-0.62575 0.30505-3.1031 1.3179-0.91044 0.42681-0.38163 0.20408-0.66222 0.42587-0.5575 0.48274-0.22493 0.24763-0.29372 0.37938-0.3002 0.44995-0.53914 0.91666-1.4974 2.8055-7.0049 13.97-6.6135 13.072-0.083726-0.074879-0.073118-0.27303-0.060019-0.40112-0.04895-0.62063-0.07733-2.0548-0.055166-0.62781-0.098382-0.55412-0.16214-0.4533-0.25068-0.32075-0.35444-0.16411-0.43936-0.040022-0.49937 0.049233-0.54077 0.1121-1.1553 0.33929-3.0056 1.0184-0.58707 0.16579-0.572 0.12859-0.55026 0.074775-0.5197-0.001055-0.47742-0.10596-0.37311-0.198-0.33779-0.28216-0.30856-0.34743-0.2833-0.39828-0.26013-0.43842-0.23725-0.47098-0.22601-0.5268-0.39798-1.1173-0.35771-1.1728-1.4095-4.9771-0.70753-2.3607-0.41343-1.301-2.9695 1.9734-1.9997 1.3597-1.8406 1.3297-1.2154 0.96315-0.70093 0.59557-0.26686 0.2664-0.51345 0.60037-0.8235 1.0466-0.92072 1.0263-0.5672 0.54088-0.52774 0.44613-0.37142 0.27119-0.3939 0.25232-1.8234 1.0989-1.0658 0.59953-0.76817 0.37299-0.94909 0.41072-0.65792 0.22861-0.358 0.097401-0.31746 0.069849-0.74503 0.11382-1.93 0.20187-2.2545 0.40709-1.0501 0.14849-1.0254 0.10597-1.2362 0.090654-0.80239 0.095705-0.70319 0.17215-0.48231 0.18496-0.34043 0.18375-0.12511 0.14164-0.002314-0.093763-0.082453-0.094869-0.23731-0.14684-0.24095-0.10075-0.28328-0.091141-0.60788-0.14248-1.0634-0.15271-1.9631-0.13841-3.7542-0.17173-1.1091 0.007068-1.4124 0.098416-0.85689 0.10095-1.4648 0.23817-1.0869 0.23626-0.82667 0.21201-5.1705 1.5274-1.1244 0.39909-1.1519 0.52369-0.72513 0.41106-0.69447 0.46976-0.75558 0.59907-0.50125 0.43701-2.5685 2.3751-0.80868 0.78413-0.63383 0.70952-0.46503 0.60129-0.41351 0.60837-0.58893 1.0339-0.31692 0.68076-0.3146 0.832-0.24608 0.83756-0.43584 2.0713-0.26339 0.88621-0.14094 0.33153-0.1696 0.32312-0.23331 0.35959-0.26298 0.33175-0.50666 0.50777-0.64686 0.50918-2.6334 1.7859-0.85216 0.5011-0.63497 0.28491-0.44077 0.15912-0.47707 0.13997-0.61869 0.13572-1.6759 0.25798-0.60483 0.12121-0.83559 0.21074-1.2415 0.35501-0.93677 0.29427-1.0264 0.38021-1.0074 0.42087-1.9888 0.88054-0.70804 0.28394-0.56551 0.19474-0.47246 0.13241-0.41244 0.087735-0.6787 0.07837-0.58232-0.006898-0.55435-0.071143-0.6641-0.15828-0.50254-0.16635-1.0847-0.45407-2.021-0.98792-1.1262-0.51178-0.88463-0.33099-0.80457-0.22792-0.97948-0.18154-0.56988-0.05218-0.43835-0.012241-0.63383 0.022504-0.48022 0.043612-0.71065 0.099968-0.63162 0.12429-0.60617 0.15289-0.73979 0.22946-0.79891 0.28898-1.1996 0.48865-0.80693 0.36965-0.62524 0.31886-1.2514 0.74153-0.94778 0.63674-0.77029 0.59193-0.76332 0.68443-2.2906 2.267-0.6562 0.55841-0.72835 0.49173-0.43338 0.22937-0.58154 0.2563-0.85783 0.32032-2.4798 0.83949-0.85388 0.34122-0.72974 0.34541-0.77022 0.42608-2.5771 1.589-0.77277 0.49483-1.5971 1.0809-0.6977 0.41995-0.99751 0.53289-0.64669 0.30305-0.6467 0.25045-0.63169 0.1856-0.94871 0.19688-0.99745 0.14004-1.3841 0.12754-1.0142 0.058991-1.6646 0.04887-2.5998 0.14323-3.9401 0.30272-2.4787 0.048645-2.5118-0.022028-1.1374 0.086932-0.77952 0.11886-0.79902 0.17057-1.1345 0.31356-2.7619 0.84045-0.89 0.23831-0.88678 0.19742-0.8491 0.13493-0.76408 0.082838-3.7226 0.30342-0.13499-0.13187-0.18084-0.37912-0.18591-0.53677-0.16295-0.63035-0.11851-0.67935-0.055327-0.69733 0.026466-0.69332 0.13278-0.72948 0.21876-0.73601 0.44836-1.2649 0.11327-0.38241 0.08917-0.37525 0.078848-0.5461 0.009921-0.43149-0.043545-0.47122-0.11058-0.56397-0.22018-0.89136-0.074288-0.45874-0.020507-0.4796 0.044693-0.46253 0.16949-0.88748 0.057459-0.42553-0.006773-0.41253-0.10207-0.40905-0.18454-0.38728-0.096953-0.1555-0.24295-0.33446-0.28217-0.32265-0.31797-0.29877-0.80024-0.59426-0.39616-0.3271-0.36574-0.39878-0.31973-0.46467-0.23076-0.4376-0.19966-0.47038-0.17522-0.49582-0.18187-0.60276-0.50115-1.8778-0.19275-0.63326-0.22972-0.6156-0.28744-0.58638-0.4323-0.64368-0.62887-0.74564-0.60192-0.62979-0.77697-0.76811-0.7569-0.65401-0.63038-0.42839-0.29328-0.15906-0.44827-0.20749-1.4164-0.53537-0.63758 0.060537-0.32914-0.006245-0.33768-0.043541-0.32794-0.093587-0.38774-0.20556-0.30519-0.24215-0.28095-0.28406-0.24855-0.29611-0.45708-0.63863-0.3382-0.53875-0.47756-0.85437-0.30213-0.61543-0.24356-0.56816-0.19285-0.51838-0.29309-0.9188-0.73174-2.5901-0.62314-2.074-0.36189-1.074-0.30194-0.75565-0.53042-1.1396-0.61634-1.102-0.66589-0.99365-0.57037-0.72831-0.10691-0.13639-0.039109-0.3007 0.058941-0.66635 0.17702-0.83708 0.26688-0.92737 0.33353-0.95808 0.67296-1.7738 0.19819-0.66096 0.23435-1.0278 0.18892-1.2388 0.28288-2.8473 0.15519-0.972 0.27661-1.1317 1.5155-5.2243 0.71212-2.6444 0.32119-1.3239 0.28181-1.3168 0.22518-1.303 0.14543-1.2809 0.029828-0.55266 0.003092-0.4192-0.032844-0.69166-0.098924-0.82149-0.17733-0.87318-0.28707-0.96369-0.23938-0.62729-0.27407-0.60354-0.54629-0.9584-0.3441-0.48157-0.37641-0.4422-0.34657-0.33988-0.25904-0.21639-0.31109-0.22072-0.39428-0.22455-0.36945-0.16429-0.3959-0.13774-0.71372-0.17346-0.94001-0.12267-0.41797-0.027387-1.1366-0.022367-2.3144 0.032318-1.0532-0.00789-1.6068-0.065776-0.93355-0.086937-0.74703-0.14031-0.37939-0.1049-0.62134-0.22754-0.41985-0.19739-0.48653-0.26588-0.80656-0.52236-0.50145-0.38158-0.61971-0.54702-0.45429-0.47836-0.57686-0.74668-0.3811-0.58531-0.32984-0.5658-0.31951-0.6156-0.53157-1.1174-0.29723-0.55403-0.48659-0.79669-0.57564-0.78245-0.62115-0.68002-0.25168-0.24481-1.2867-1.1681-0.77539-0.7423-0.58624-0.65902-0.23744-0.36247-0.1637-0.3782-0.080427-0.39525 7.15e-4 -0.32331 0.094982-0.49782 0.17158-0.47812 0.4464-0.86546 0.60229-0.96076 1.1861-1.7476 1.4879-2.1045 1.1501-1.5944 1.0904-1.4446 1.3313-1.6257 0.54935-0.61015 0.89902-0.93514 0.90114-0.83595 0.63239-0.50331 0.49359-0.34298 0.48378-0.29597 0.59051-0.3133 0.70215-0.30953 0.55225-0.19646 0.45194-0.13008 0.7322-0.15292 1.0408-0.090631 0.94516 0.049672 1.8695 0.27978 0.93162 0.11443 0.93461 0.018374 0.81341-0.099957 0.81919-0.19764 0.8504-0.28646 1.1451-0.49134 1.1519-0.58686 1.1591-0.65719 2.3421-1.45 3.5832-2.3018 1.2124-0.7472 1.2173-0.70934 1.215-0.64941 1.1998-0.56442 1.8354-0.75097 0.81165-0.38523 0.69434-0.44665 0.56614-0.5475 0.39292-0.57234 0.20642-0.50882-0.015885-0.3464 1.8988-7.7786 0.47559-1.7318 0.36423-1.0646 0.21009-0.4887 0.23823-0.44718 0.27602-0.39254 0.87064-0.87324 0.2587-0.33157 0.23393-0.36839 0.41503-0.80573 0.36815-0.84029 0.15754-0.39812 0.13788-0.45353 0.10327-0.47423 0.073115-0.48762 0.04495-0.49419 0.01627-0.4939-0.015561-0.48622-0.053402-0.47003-0.10042-0.44362-0.16004-0.4047-0.25277-0.39032-0.60897-0.68783-0.27028-0.34494-0.18664-0.37573-0.046587-0.19063-0.025026-0.29808 0.046448-0.61225 0.14299-0.86196 0.1236-0.51243 0.087971-0.017247 0.31201 0.052225 2.0281 0.44564 1.191 0.16602 0.79159 0.066817 0.82973 0.032781 0.7484-0.010608 0.63989-0.044101 0.6661-0.084638 0.48233-0.089195 0.54998-0.13593 0.72128-0.24714 0.57442-0.25999 0.45772-0.25804 0.38996-0.2607 0.60567-0.47991 0.34687-0.31363 0.58056-0.5873 0.76319-0.90602 0.69838-0.96644 0.39759-0.64038 0.20667-0.37774 0.44954-0.97928 0.3847-1.0147 0.50717-1.6164 0.85226-2.9116 0.18639-0.48807 0.4164-0.91138 1.8585-3.586 0.39684-0.70109 0.45857-0.67031 0.36452-0.41328 0.30406-0.28628 0.73663-0.57279 1.1409-0.73896 1.4314-0.83998 3.4215-2.0798 0.5891-0.43019 0.49463-0.45731 0.24846-0.30571 0.21821-0.3715 0.14254-0.38303 0.082552-0.58694-0.043679-1.2228 0.031522-0.77751 0.15039-0.76877 0.21031-0.56002 0.52689-1.1509 0.1688-0.47596 0.15542-0.71247 0.032972-0.38696-3.89e-4 -0.57863-0.038228-0.59976-0.16124-1.8813-0.021082-0.52767 0.009481-1.5928-0.046457-0.75916-0.1364-0.77177-0.40416-1.5191-0.21229-0.94032-0.079676-0.8883 0.13998-0.79578 0.096122-0.20933 0.18841-0.29232 0.30358-0.34329 0.38667-0.3452 1.4641-1.1321 0.42491-0.37771 0.38111-0.38885 0.27696-0.32333 0.30417-0.4066 0.22797-0.34972 0.22146-0.39766 0.16926-0.38605 0.13146-0.43779 0.070933-0.51732-0.001142-0.39605-0.041351-0.36305-0.069038-0.31346-0.16871-0.44053-0.18132-0.26634-0.22289-0.14117 0.25252-0.073227 0.60496-0.05963 1.0167-0.055098 1.3481-0.033999 2.8511 0.03388 1.1387-0.028926 1.1429-0.099978 0.48409-0.064922 0.74847-0.12754 0.73265-0.15618 1.1202-0.30016 2.221-0.75003 0.72584-0.21378 1.867-0.43265 0.29211-0.091853 0.38157-0.14616 0.44399-0.20522 1.3439-0.74223 1.0792-0.67305 3.6754-2.4109 1.6194-0.98528 1.0357-0.55899 0.89836-0.43524 1.4746-0.67135 0.80412-0.42589 0.63595-0.42251 0.47112-0.3577 1.9464-1.5949 0.79931-0.59232 0.83542-0.51662 0.79044-0.36533 1.0829-0.31192 1.1251-0.18162 2.2666-0.23712 1.0848-0.18368 0.32181-0.079313 1.1931-0.35175 2.7817-0.88146 1.9096-0.62667 2.4517-0.85894 0.74326-0.199 0.45184-0.069912 0.55744-0.033228 0.41436 0.004911 1.1746 0.099053 1.0549 0.14794 0.23754 0.054183 17.47 7.8371 13.056 5.7816 3.7006 1.6986 1.1474 0.56515 1.07 0.56542 0.96042 0.56648" stroke="#bdc660"/>
    </defs>
    <g clip-path="url(#p1de1e738bb)">
     <use y="248.131972" fill="#bdc660" stroke="#bdc660" xlink:href="#md5335a6f25"/>
    </g>
   </g>
  </g>
 </g>
 <defs>
  <clipPath id="p1de1e738bb">
   <rect x="7.2" y="7.2" width="357.12" height="233.73"/>
  </clipPath>
 </defs>
</svg>
