<?xml version="1.0" encoding="UTF-8"?>
<!DOCTYPE svg  PUBLIC '-//W3C//DTD SVG 1.1//EN'  'http://www.w3.org/Graphics/SVG/1.1/DTD/svg11.dtd'>
<svg width="311.68pt" height="280.51pt" version="1.1" viewBox="0 0 311.68 280.51" xmlns="http://www.w3.org/2000/svg" xmlns:xlink="http://www.w3.org/1999/xlink">
 <metadata>
  <rdf:RDF xmlns:cc="http://creativecommons.org/ns#" xmlns:dc="http://purl.org/dc/elements/1.1/" xmlns:rdf="http://www.w3.org/1999/02/22-rdf-syntax-ns#">
   <cc:Work>
    <dc:type rdf:resource="http://purl.org/dc/dcmitype/StillImage"/>
    <dc:date>2024-07-04T12:10:40.412004</dc:date>
    <dc:format>image/svg+xml</dc:format>
    <dc:creator>
     <cc:Agent>
      <dc:title>Matplotlib v3.7.1, https://matplotlib.org/</dc:title>
     </cc:Agent>
    </dc:creator>
   </cc:Work>
  </rdf:RDF>
 </metadata>
 <defs>
  <style type="text/css">*{stroke-linejoin: round; stroke-linecap: butt}</style>
 </defs>
 <g id="figure_1">
  <g id="patch_1">
   <path d="m-0 280.51h311.68v-280.51h-311.68v280.51z" fill="none"/>
  </g>
  <g id="axes_1">
   <g id="PatchCollection_1">
    <defs>
     <path id="mff6b053537" d="m183.57-243.96 2.7485 1.5496 1.3825 0.71771 1.3913 0.6573 1.4034 0.57295 1.42 0.45683 1.4425 0.29906 1.5417 0.10801 1.5672-0.065084 1.5873-0.19222 1.6035-0.28449 1.6173-0.35068 1.6296-0.39767 4.9625-1.3552 15.839-4.5775 8.0109-2.2748 12.875 12.398 26.962 25.985 12.693 29.193 1.7181 4.0356 1.09 2.7083 0.51239 1.3663 0.47857 1.3789 0.4108 1.3088 0.73155 2.6509 0.64164 2.6807 0.28911 1.3465 0.49449 2.6922 0.18635 1.3372 0.12474 1.3225 0.03896 1.2975-0.079841 1.2578-0.2423 1.198-0.46004 1.1115-0.71479 0.99553-0.93278 0.90019-1.0952 0.82017-1.2028 0.74748-1.2496 0.67354-1.2203 0.5888-1.886 0.8226-0.28458 0.1486 0.34752 2.1729 2.3186 13.642 0.39883 2.5993 0.16902 1.271 0.13715 1.2494 0.092257 1.2237 0.02958 1.192-0.057059 1.1515-0.17556 1.0987-0.3359 1.0294-0.52765 0.94637-0.68022 0.88529-0.78409 0.84875-2.3695 2.2909-1.7461 1.7727-1.6779 1.8198-1.4187 1.6668-0.6811 0.89774-0.57408 0.9003-0.41646 0.90862-0.19296 0.92315 0.060557 0.82663 0.20061 0.72434 0.16938 0.42852 0.21762 0.4649 0.50551 0.92058 1.7645 2.8891 0.73645 1.354 0.68158 1.4825 0.81851 2.0043 0.65497 1.7268 0.19661 0.58242 0.038956 0.2418-0.36843-0.026871-0.16473 0.091266-0.23273 0.19403-0.28388 0.3312-0.33497 0.53872-0.28648 0.63042-0.25353 0.73814-0.21632 0.79814-0.26852 1.2728-0.29014 1.9924-0.17137 1.935-0.075623 1.5042-0.033887 1.6001 0.036832 2.1633 0.066135 1.1871 0.19722 2.1128 0.55268 4.022 0.072391 0.74002 0.018227 0.54359-0.037964 0.89377-0.10557 0.7913-0.17058 0.76426-0.2993 0.98698-0.58393 1.5068-0.7619 1.7311-1.2168 2.609-2.1117 4.3416-1.3047 2.9891-0.75178 1.9982-0.69743 2.0437-0.9076 2.9681-0.81676 2.8853-0.38937 1.2142-0.57088 1.4897-0.67398 1.4574-0.54585 1.0115-0.55936 0.91821-0.55889 0.8233-0.7693 1.0249-1.5606 1.8804-1.5492 1.7989-0.77694 0.8459-1.4393 1.4512-0.27304 0.30975 0.004017 0.048479-0.097521 0.10951-0.47079 0.34966-1.5923 0.90483-2.4016 1.1853-4.5279 2.1192-0.93448 0.50828-1.9811 1.2562-0.88757 0.51081-0.84388 0.4411-1.3106 0.60917-1.3347 0.5086-2.6284 0.77726-4.2832 1.4359-1.3425 0.36762-0.86748 0.18936-0.81494 0.13112-0.73325 0.080608-1.0701 0.060715-1.1586-0.011025-0.62909-0.0359-0.73917-0.065762-0.99808-0.13094-0.98602-0.17862-1.4231-0.31305-0.91799-0.27013-1.0425-0.38621-0.75602-0.3278-2.3452-1.114-1.1953-0.47122-1.1177-0.35058-2.1955-0.59813-2.6321-0.80308-0.97516-0.25024-0.87943-0.17122-0.72067-0.097545-1.4107-0.079926-0.95558 0.018481-1.0838 0.073959-1.1123 0.14223-1.559 0.29406-1.6667 0.37927-0.84324 0.25827-0.014847 0.054149-0.053405 0.050689-0.27294 0.17322-0.91568 0.42164-0.97432 0.33048-0.89222 0.22869-1.0649 0.20308-1.2467 0.17344-1.161 0.1135-0.918 0.053663-1.2795 0.006322-1.663-0.0989-1.1854-0.12515-3.1945-0.40055-1.517-0.14529-1.7285-0.083294-2.7552-0.046537-1.1351-0.087416-1.3064-0.22007-1.0577-0.28277-0.71698-0.2612-0.40743-0.18109-0.33904-0.17587-0.44393-0.27851-0.54261-0.44664-0.45568-0.4907-0.3071-0.40788-0.41038-0.68102-0.41166-0.91014-0.21838-0.60812-0.23646-0.79034-0.23202-1.0535-0.092549-0.63483-0.074727-0.97887 0.00107-0.72955 0.094995-1.0185 0.19822-0.9648 0.31973-1.0602 0.35014-0.90029 0.31118-0.6246 0.46016-0.73781 0.56043-0.74518 0.40801-0.48328 1.8461-2.0055 2.8822-2.7711 0.88865-0.95184 0.75627-1.0013 0.5538-1.0772 0.2876-1.1048 0.091773-0.84967 0.021006-0.88503-0.056372-1.3954-0.74624-9.2937-0.33523-6.0783-0.25131-2.6997-0.2642-2.0635-0.1991-1.307-0.4155-2.2558-0.32727-1.4422-0.28221-1.061-0.3242-1.0432-0.50277-1.2963-0.30299-0.61708-0.26968-0.46113-0.15797-0.22399-0.10064-0.10367-0.058551-0.014203-3.3968-7.2797-2.0121-4.4904-1.987-4.6318-0.93197-2.2675-1.6063-4.0754-1.3537-3.1425-13.037-28.634-0.071569-0.027189-0.25857 0.085198-0.76387 0.42254-0.77622 0.52325-2.8633 2.0819-1.2309 0.85268-0.95295 0.59408-0.91963 0.47533-0.48094 0.19907-0.62521 0.20041-0.68261 0.1511-1.637 0.29382-0.71532 0.18985-0.87555 0.29084-0.68745 0.27186-0.55121 0.26073-1.6044 0.83687-0.61115 0.26534-0.3902 0.12-0.35354 0.056428-0.32487-0.013672-0.31713-0.11523-0.29347-0.28338-0.22135-0.41873-0.17809-0.5712-0.13646-0.66411-0.39504-2.5965-0.33167-1.6799-0.4021-1.5052-0.40941-1.1885-0.23632-0.57745-0.39176-0.81679-0.38406-0.65596-1.1439-1.6313-0.33307-0.58353-0.37279-0.75447-0.58719-1.4045-1.5588-4.2344-0.44151-1.0848-0.5481-1.1964-0.51373-0.98423-0.50712-0.87052-0.45764-0.69364-0.34447-0.42001-0.076637-0.05957-0.052819 0.002642-2.5684 2.2641-2.4517 2.408-0.80571 0.62406-1.8542 1.3089 0.50458 1.7142-5.1013 3.1058-1.2844 0.73068-0.4904 0.3193-0.68846 0.5808-1.7472 1.7229-0.37451 0.31657-0.41048 0.29301-0.56997 0.3392-0.60655 0.31754-2.3399 1.0991-0.12068 0.035636-0.72608-0.16944-1.1689-0.38943-3.0352-1.1446-6.8664-2.6706-2.9825-1.092-7.4568-2.6344-3.2368-1.1987-1.5706-0.62305-1.5285-0.65194-1.4744-0.69454-1.4034-0.75519-1.3098-0.83944-1.1861-0.95426-0.43575-0.42477-0.53658-0.5842-3.149-3.8381-0.78259-0.88232-0.60079-0.62865-1.1667-1.0955-1.2318-1.0425-2.5486-2.0195-1.2647-1.022-0.82205-0.70282-0.79393-0.72856-0.6087-0.60703-0.65974-0.72105-0.68453-0.83447-0.6351-0.86996-0.62201-0.96295-0.56982-0.993-0.5142-0.99672-1.1735-2.5524-1.9976-4.21-0.61503-1.4272-0.52736-1.4586-0.51594-1.8953-1.6563-7.2552-0.75158-2.9657-0.43015-1.4648-0.4287-1.2887-0.47809-1.2659-0.56395-1.298-0.63848-1.2564-0.839-1.386-0.93197-1.3236-1.0059-1.264-1.0673-1.2009-1.1221-1.1276-1.0786-0.95652-1.126-0.85864-1.179-0.73257-1.241-0.56947-1.1222-0.33616-1.1587-0.21906-1.4421-0.15712-3.8421-0.23811-1.294-0.15833-1.1323-0.2703-0.81835-0.36062-0.61712-0.43262-0.26727-0.28491-0.17864-0.40209-0.010055-0.10994 0.037711-0.2992 0.37736-0.76085 0.69222-0.8476 0.9188-0.91032 1.0791-0.95497 2.4565-1.9939 2.6635-2.0536 13.804-10.465 14.333-11.04 2.2648-1.6953 7.9829-5.8551 0.084012-0.11056 0.23927-0.13273 0.34919-0.12808 0.42735-0.097138 0.60692-0.051533 0.65885 0.021109 0.68698 0.078152 0.69957 0.11988 1.4023 0.31718 4.065 1.1106 1.3154 0.31882 0.65491 0.12994 0.65455 0.10069 1.1045 0.08543 1.2673 6.37e-4 1.8548-0.041575 1.1666 0.040823 0.54558 0.070133 0.50898 0.12047 1.1094 0.44804 0.37758 0.11828 0.48256 0.071566 0.51639 0.005557 0.54394-0.04513 1.1526-0.19563 3.515-0.83206 4.3247-0.84199 1.1182-0.26249 1.7361-0.68431 1.1779-0.50578 1.1997-0.56701 1.7436-0.92747 7.7234-4.4733 10.809-6.1708 2.5469-1.5125 2.5446-1.589-0.099215 0.3474 0.10322 0.50434 0.31183 0.62299 0.51842 0.61583 0.88225 0.63223 1.1159 0.50248 1.2854 0.38558 1.4017 0.28905 1.4774 0.21287 1.6698 0.16646 1.6988 0.11509 3.4223 0.13112 8.4405 0.14529 3.3028 0.1309 1.6337 0.11774 1.5703 0.16294 1.5561 0.21427 1.5395 0.27017 1.5194 0.33539 1.4943 0.41517 1.2232 0.41659 1.2057 0.47138 1.1918 0.51438 2.4156 1.1549 2.3515 1.2343 2.5055 1.4111 1.3794 0.80845 8.2194 4.9298" stroke="#bdc660"/>
    </defs>
    <g clip-path="url(#p441c877f0e)">
     <use y="280.512" fill="#bdc660" stroke="#bdc660" xlink:href="#mff6b053537"/>
    </g>
   </g>
  </g>
 </g>
 <defs>
  <clipPath id="p441c877f0e">
   <rect x="7.2" y="7.2" width="297.28" height="266.11"/>
  </clipPath>
 </defs>
</svg>
