<?xml version="1.0" encoding="UTF-8"?>
<!DOCTYPE svg  PUBLIC '-//W3C//DTD SVG 1.1//EN'  'http://www.w3.org/Graphics/SVG/1.1/DTD/svg11.dtd'>
<svg width="330.88pt" height="280.51pt" version="1.1" viewBox="0 0 330.88 280.51" xmlns="http://www.w3.org/2000/svg" xmlns:xlink="http://www.w3.org/1999/xlink">
 <metadata>
  <rdf:RDF xmlns:cc="http://creativecommons.org/ns#" xmlns:dc="http://purl.org/dc/elements/1.1/" xmlns:rdf="http://www.w3.org/1999/02/22-rdf-syntax-ns#">
   <cc:Work>
    <dc:type rdf:resource="http://purl.org/dc/dcmitype/StillImage"/>
    <dc:date>2024-07-04T12:10:42.367889</dc:date>
    <dc:format>image/svg+xml</dc:format>
    <dc:creator>
     <cc:Agent>
      <dc:title>Matplotlib v3.7.1, https://matplotlib.org/</dc:title>
     </cc:Agent>
    </dc:creator>
   </cc:Work>
  </rdf:RDF>
 </metadata>
 <defs>
  <style type="text/css">*{stroke-linejoin: round; stroke-linecap: butt}</style>
 </defs>
 <g id="figure_1">
  <g id="patch_1">
   <path d="m-0 280.51h330.88v-280.51h-330.88v280.51z" fill="none"/>
  </g>
  <g id="axes_1">
   <g id="PatchCollection_1">
    <defs>
     <path id="mcd29b0a8aa" d="m231.79-256.73-0.56535 1.6646-0.37586 1.5508-0.20858 1.4632-0.075564 1.3914 0.049809 1.4856 0.12731 1.0125 0.098803 0.49922 0.25824 0.98676 0.32468 0.97183 0.6099 1.4645 2.5155 5.3381 1.11 2.681 0.3407 0.90832 0.19632 0.6446 0.057023 0.19689-0.13042 0.52741-0.34933 0.88778-0.79356 1.6592-2.3554 4.4532-1.0003 1.9896-0.8438 1.9334-0.36542 1.0028-0.31304 1.0489-0.22627 1.0488-0.10094 0.77306-0.044534 0.77008 0.011781 0.76391 0.067522 0.73932 0.12201 0.72678 0.17699 0.71035 0.27962 0.80607 0.35582 0.77143 0.47653 0.79897 0.55905 0.74396 0.53982 0.59028 0.58602 0.54823 0.7043 0.56739 0.74794 0.51018 0.79111 0.44243 0.65709 0.29426 0.68141 0.24545 0.83384 0.23107 0.85669 0.1746 1.5581 0.19978 5.6803 0.33683 1.8061 0.17462 0.90472 0.12903 1.1454 0.21918 1.1408 0.28941 0.87224 0.27631 0.86424 0.32358 0.85275 0.37136 0.96786 0.49002 0.93888 0.54605 0.8981 0.59125 0.72355 0.53074 1.2588 1.05 0.52611 0.49814 0.48163 0.53035 2.815 3.1159 1.4533 1.5105 1.7613 1.66 1.7434 1.4852 1.5364 1.1637 4.9467 3.4871 5.7246 3.7926 4.593 2.7785 1.9526 1.0909 3.5742 1.9149 1.2929 0.80516 0.99286 0.75239 0.91455 0.83151 0.45461 0.4772 0.84892 1.0097 0.47897 0.63453 0.91014 1.3095 0.77668 1.1974 2.3136 3.7686 0.70113 1.0733 1.1825 1.5911 1.0049 1.1407 0.60986 0.60988 0.98143 0.87659 0.52056 0.41972 1.1681 0.84668 1.2367 0.79364 0.8017 0.47197 3.2064 1.7262-0.079784 0.30724-0.42321 0.64207-0.97134 1.2275-1.0894 1.2304-1.9404 2.0162-5.3366 5.195-2.3807 2.3682-2.2702 2.4232-1.0632 1.2367-1.1867 1.5031-1.0973 1.5416-1.1765 1.8732-1.0541 1.9228-0.89906 1.8734-0.81497 1.9031-1.2997 3.4418-0.5981 1.735-1.1838 3.6602-4.298 14.035-3.8494 12.355-24.604 78.034-0.41352-0.074827-0.38597-0.18104-0.93707-0.53876-1.0691-0.71803-1.7516-1.3574-1.4966-1.326-0.76545-0.74424-0.96352-1.0137-0.88917-1.0267-0.83953-1.065-1.1174-1.5647-3.4898-5.242-1.004-1.4162-0.95595-1.2563-1.3397-1.583-0.74829-0.79392-0.81397-0.79489-0.82754-0.73679-0.96152-0.76818-1.201-0.82652-0.83006-0.48907-0.9436-0.49653-1.622-0.76272-10.782-4.7869-2.1064-0.82295-1.7612-0.59697-1.015-0.30253-1.1924-0.31973-2.0639-0.46759-3.0147-0.50953-2.052-0.26033-2.443-0.25077-6.2142-0.49204-0.65757-0.078359-1.0696-0.20243-0.73874-0.2277-0.3426-0.13978-0.47176-0.23808-0.43353-0.27083-0.66041-0.50442-1.5777-1.3975-0.74556-0.52047-0.95056-0.4709-0.65321-0.22428-0.4411-0.10857-0.70493-0.10266-1.0721-0.036432-0.73268 0.02327-1.3046 0.11002-3.3678 0.50298-0.91419-0.17257-1.043-0.094564-1.5647-0.021133-1.1251 0.059718-0.95936 0.11482-0.82481 0.19818-0.7783 0.30308-0.71004 0.41184-0.73472 0.6232-0.59831 0.67899-0.4747 0.70823-0.43718 0.79426-1.4712 2.8337-0.79473 1.2988-0.42943 0.6295-0.72814 0.95498-0.46425 0.53539-0.43366 0.44792-0.95339 0.79841-0.82288 0.54698-2.5191 1.5094-0.59531 0.31218-0.69976 0.30718-1.161 0.35986-6.1935 1.6452-0.67363 0.12356-1.9595 0.25429-1.8171 0.38088-2.5775 0.64852-0.95637 0.17416-1.4995 0.13917-0.62437 0.012122-0.97345-0.046739-1.3333-0.20996-1.3597-0.35359-1.3796-0.46383-1.3905-0.54617-1.3878-0.60348-4.5978-2.2189-0.62934-0.26966-0.69553-0.19671-0.2946 0.081127-0.049993-0.54303-0.38978-1.3061-0.65972-1.6757-0.89876-1.776-1.1304-1.6837-1.1007-1.2187-0.93608-0.82519-1.1652-0.84324-0.8761-0.53797-0.87277-0.4747-1.1103-0.52271-0.80617-0.29851-0.65323-0.17357-0.57848-0.089222-0.79657-9.59e-4 -0.79934 0.15229-0.78471 0.28253-0.6247 0.3017-0.78724 0.45243-1.0275 0.67782-1.6275 1.1915-3.0431 2.3429-2.0585 1.7133-1.0194 0.9738-0.9611 1.0696-1.0567 1.3803-1.4347 2.0692-1.0596 1.2537-1.0157 1.0132-1.294 1.1817-1.1473 0.97054-0.85595 0.66149-1.2173 0.81308-2.47 1.4785-1.458 0.81566-1.1651 0.56213-0.96885 0.36145-1.005 0.26011-0.76044 0.099369-0.80892-0.004009-0.96102-0.12037-3.5674-0.70725-0.78808-0.16872-1.3009-0.34009-0.81036-0.25818-1.4151-0.53674-1.1063-0.50823-0.94062-0.51509-1.6767-1.0957-2.0995-1.6078-6.558-5.5274-2.2397-1.7817-1.1318-0.82769-1.2673-0.85001-1.2632-0.75303-1.236-0.63582-1.4201-0.59112-0.90976-0.29254-0.94715-0.23244-0.82308-0.14133-1.1265-0.093693-1.1062 0.045227-0.61316 0.11772-0.41713 0.28655-0.0192-0.25336-0.19521-0.62778-0.5177-1.4095-2.5323-6.1131-0.59903-1.7372-0.23426-0.86156-0.18869-0.91131-0.12162-0.90369-0.048208-0.89321 0.026159-0.80088 0.091835-0.78656 0.15715-0.76861 0.27929-0.902 0.37256-0.86452 0.5259-0.92208 0.62319-0.86798 0.58226-0.68162 0.62718-0.65124 1.136-1.0537 3.5422-2.9603 0.8129-0.71785 1.4495-1.4004 1.5953-1.7649 3.0126-3.5472 0.98429-1.2575 0.86061-1.2903 0.40261-0.73298 0.35186-0.77044 0.31376-0.87879 0.20039-0.75425 0.15045-0.77173 0.12792-0.9843 0.067705-0.90543 0.031683-1.2981-0.020356-0.90861-0.073635-1.1103-0.10851-0.94271-0.1476-0.86073-0.11249-0.47296-0.0909-0.28496-0.074523-0.12269 0.005809-0.12093-0.073288-0.13082-0.41246-0.24112-1.0069-0.30457-1.1829-0.22377-1.3552-0.17313-1.9068-0.14988-3.0352-0.15476-1.2254-0.10538-1.3709-0.21873-1.2269-0.35013-1.0821-0.49694-1.3469-0.99266-1.1122-1.346-0.48562-0.86851-0.3921-0.93439-0.34937-1.1572-0.24986-1.215-0.18916-1.494-0.095841-1.5393-0.016197-1.9418 0.075637-1.9725 0.29164-3.3788 0.20097-1.6973 0.49312-3.4957 0.56267-3.3828 1.5232-8.1149 0.54404-3.5487 0.20219-1.7727 0.14949-1.9065 0.065111-1.8992-0.019399-1.5061-0.088742-1.4949-0.16522-1.4795-0.24709-1.446-0.33139-1.4215-0.41823-1.3913-0.68144-1.757-0.83478-1.6821-0.97876-1.5759-1.1273-1.4752-0.94296-1.0331-1.018-0.96907-1.0856-0.90508-1.3218-0.96257-1.3828-0.89595-1.4246-0.84727-4.4659-2.5466-0.99252-0.62866-1.6348-1.1662-1.514-1.2894-1.4063-1.4911-1.1981-1.6514-0.83481-1.5573-0.6445-1.6691-0.4903-1.9596-0.27984-2.0585-0.083184-1.5556 0.011746-1.5912 0.12438-1.8684 0.24059-1.9528 0.28472-1.6786 0.41797-1.9576 0.50742-1.9463 0.59528-1.9247 0.92673-2.5136 0.65568-1.5395 0.63686-1.3416 0.51649-0.94272 0.094239-0.20035 0.75388-0.67846 0.98834-0.74442 1.4242-0.96554 1.4567-0.90007 1.8439-1.0492 2.0339-1.0683 6.7066-3.3025 1.9502-1.0428 1.4985-0.8718 1.9759-1.2648 1.9215-1.3646 1.545-1.1973 1.4972-1.2474 1.0726-0.9469 1.3953-1.302 1.2774-1.2707 1.436-1.525 2.3098-2.6653 2.0989-2.6203 4.0977-5.2871 7.1233-9.4864 0.8598-1.0677 1.4535-1.6745 0.92448-0.96089 1.0399-0.96983 1.1624-0.94278 1.1542-0.79166 1.1182-0.6367 0.97695-0.45833 1.0637-0.40548 1.2272-0.36083 1.1311-0.24504 1.4137-0.20689 1.6901-0.12363 1.7968-0.005974 1.3584 0.071758 1.8205 0.1934 2.0341 0.34112 1.9132 0.43225 1.9513 0.54686 1.3965 0.45608 1.4928 0.54839 1.8652 0.76818 1.715 0.77808 1.7063 0.83148 2.2375 1.1663 1.8158 0.99886 7.23 4.1737 1.9158 1.0633 1.8681 0.97099 2.3391 1.0827 1.1456 0.46194 1.3183 0.46802 1.3348 0.40142 1.9284 0.44488 1.2565 0.20288 1.2667 0.13795 1.2735 0.076485 2.0728 5.5e-4 1.2194-0.067283 1.2196-0.11261 1.7664-0.23511 2.0216-0.36057 1.1974-0.25728 2.301-0.57637 2.1824-0.63978 2.7202-0.92242 1.9476-0.74734 1.9429-0.82684 1.2446-0.57626 1.2318-0.60918 1.8861-1.012 1.0581-0.60693 2.1679-1.3197 6.0797-3.9649 1.6521-1.0293 1.3382-0.78701 2.0532-1.1162 2.0327-0.99665 1.6339-0.72216 2.6063-1.011 1.6659-0.55499 1.9488-0.56531 2.1872-0.53416 1.306-0.27195 1.8626-0.33184 2.0815-0.30263 1.7164-0.20089 2.5553-0.21899 1.2724-0.07343 2.1543-0.036519 6.9881 0.13374 2.9313-0.036574 2.0251-0.10603 2.5966-0.20158 2.0348-0.21401 2.828-0.36967 2.0778-0.33056 2.7152-0.50406 3.6238-0.75917 1.8379-0.46569 1.2889-0.41947 1.6926-0.70381 1.0293-0.52256 1.7593-1.0363-0.77182 1.3834-0.69954 1.4269-0.69642 1.6751" stroke="#bdc660"/>
    </defs>
    <g clip-path="url(#p45b0a3136b)">
     <use y="280.512" fill="#bdc660" stroke="#bdc660" xlink:href="#mcd29b0a8aa"/>
    </g>
   </g>
  </g>
 </g>
 <defs>
  <clipPath id="p45b0a3136b">
   <rect x="7.2" y="7.2" width="316.48" height="266.11"/>
  </clipPath>
 </defs>
</svg>
