<?xml version="1.0" encoding="UTF-8"?>
<!DOCTYPE svg  PUBLIC '-//W3C//DTD SVG 1.1//EN'  'http://www.w3.org/Graphics/SVG/1.1/DTD/svg11.dtd'>
<svg width="371.52pt" height="223.62pt" version="1.1" viewBox="0 0 371.52 223.62" xmlns="http://www.w3.org/2000/svg">
 <metadata>
  <rdf:RDF xmlns:cc="http://creativecommons.org/ns#" xmlns:dc="http://purl.org/dc/elements/1.1/" xmlns:rdf="http://www.w3.org/1999/02/22-rdf-syntax-ns#">
   <cc:Work>
    <dc:type rdf:resource="http://purl.org/dc/dcmitype/StillImage"/>
    <dc:date>2024-07-04T12:10:47.845290</dc:date>
    <dc:format>image/svg+xml</dc:format>
    <dc:creator>
     <cc:Agent>
      <dc:title>Matplotlib v3.7.1, https://matplotlib.org/</dc:title>
     </cc:Agent>
    </dc:creator>
   </cc:Work>
  </rdf:RDF>
 </metadata>
 <defs>
  <style type="text/css">*{stroke-linejoin: round; stroke-linecap: butt}</style>
 </defs>
 <g id="figure_1">
  <g id="patch_1">
   <path d="m0 223.62h371.52v-223.62h-371.52v223.62z" fill="none"/>
  </g>
  <g id="axes_1">
   <g id="PatchCollection_1" fill="#bdc660" stroke="#bdc660">
    <path d="m66.692 83.534-1.5599 0.075264-1.4575-0.13073-1.2986-0.3629-0.65208-0.3319-0.48887-0.36681-0.88962-1.082-0.62498-1.1526-0.55382-1.3251-0.50359-1.4557-2.2532-7.5778-0.80291-2.1873-0.90991-1.9461-1.1289-1.7977-1.556-1.7657-1.8236-1.5752-2.02-1.4381-1.8004-1.129-3.7999-2.1291-8.8093-4.6081-1.6739-0.94769-2.0628-1.2701-1.9183-1.3505-1.5912-1.3475-1.34-1.4685-0.72491-1.0856-0.53768-1.1697-0.33628-1.3017-0.14158-1.386 0.008936-1.3391 0.24356-2.5002 0.45476-2.7396 0.60037-2.742 0.75355-2.677 1.0125 0.59341 1.0588 0.52776 2.5375 1.1497 7.9959 3.2506 16.621 6.444 2.3603 0.81516 3.5081 0.92271 1.1547 0.36445 2.4768 0.97152 1.3052 0.62373 2.6876 1.547 3.3665 2.3336 3.4305 2.6047 10.443 8.2926 4.6012 3.4161 2.4206 1.6224 2.3786 1.4037 2.3512 1.1313 0.80411 0.31072 0.34387 0.070177-0.51377 0.10907-1.1534 0.54102-3.3216 1.8552-2.2057 1.3852-2.027 1.3664-4.1952 3.1275-2.2019 1.4705-7.8743 4.5572-1.3149 0.69361-1.3052 0.56685-2.0959 0.7582-1.8402 0.51791-1.6103 0.26766" clip-path="url(#pe88b66513b)"/>
    <path d="m238.56 32.753 1.7764 0.045065 1.2678-0.19814 3.328-0.98496 1.0673-0.26216 1.0876-0.14321 1.7091 0.090201 1.7569 0.40623 1.7709 0.64875 1.751 0.8363 1.6946 0.98444 1.5968 1.1063 1.4496 1.213 1.2423 1.3145 0.84727 1.1566 2.7036 3.9891 1.087 1.8651 1.6336 3.2321 1.1203 1.5799 1.0487 1.1437 0.86881 0.79675 1.0182 0.80699 1.7601 1.1479 1.8908 0.9694 1.2596 0.5554 1.3083 0.51893 2.9129 0.9594 2.7306 0.68196 6.278 1.3595 7.562 1.7654 0.9325 0.26994 0.38408-0.034904 0.38 0.051176 0.8851 0.22714 2.8904 0.92974 1.6888 0.6428 0.70261 0.35567 0.64603 0.42147 0.56335 0.49613 0.43354 0.58852 0.16688 0.38565 0.18941 0.84178 0.070593 1.3352-0.086056 1.2975-0.3872 1.8333 0.0421 0.83724 0.49406 2.3887 1.3365 4.9582 0.39662-0.048248 0.55013 0.47267 0.49503 0.59516 0.70644 1.0077 0.98233 1.594 4.1465 7.4458 1.8598 3.0003 1.8697 2.7357 0.80311 1.3985 0.64521 1.5143 0.59435 1.9771 0.45411 2.2416 0.3253 2.4926 0.6535 8.9756 0.60267 6.332 0.1006 2.0252-0.051977 2.8527-0.10889 1.2797-0.97839 6.5734-0.12851 2.175 0.16788 2.3918 0.44379 2.412 0.65044 2.4286 0.8037 2.4427 1.9153 4.9224 3.2967 7.477 19.473 41.646-59.271 8.3907 0.009391-0.17424-0.37814-0.7057-1.0058-1.3447-1.7624-1.9417-2.002-1.8627-1.9243-1.584-3.1676-2.3105-1.0419-0.67178-1.9379-1.1122-2.0022-0.96558-1.5547-0.62346-1.5074-0.4976-1.3928-0.36731-2.3542-0.43789-2.6236-0.25577-2.5591-0.053266-2.459 0.10456-4.2827 0.33056-1.287 0.006884-1.8209-0.1638-1.7238-0.38868-1.4221-0.47744-1.3649-0.56827-2.8061-1.4391-3.3973-2.0945-8.2172-5.4954-2.6028-1.5274-2.2461-1.1032-2.524-1.0753-2.5393-0.78247-1.8996-0.29232-1.8948-0.07084-1.8671 0.1358-2.3736 0.56662-2.4288 0.93848-2.4749 1.2021-2.678 1.4699-8.043 4.6298-2.6515 1.4229-2.6328 1.2224-1.6022 0.59466-2.0485 0.55124-1.9511 0.27648-2.3646 0.032906-1.656-0.13092-3.2199-0.50063-4.1646-0.91177-2.19-0.69452-2.4951-1.1181-0.84906-0.45861-1.7771-1.0791-2.3664-1.6521-3.0727-2.4402-2.4488-2.1368-2.3565-2.1736-5.1387-4.8654-0.98683-0.84775-0.61204-0.42514-0.28104-0.018249-10.169 6.9604-1.3905 0.84974-0.91369 0.4107-0.44982 0.11466-0.44276 0.021969-0.43073-0.090915-0.42418-0.18323-0.83772-0.54931-2.9744-2.4762-0.89681-0.52985-0.45865-0.15601-0.46371-0.045418-0.42765 0.07492-0.42217 0.16785-0.78169 0.50181-0.64553 0.59621-0.38269 0.24723-5.643 4.8738-3.3527 2.5668-1.5901 1.0613-1.5578 0.89604-1.5131 0.68168-1.4571 0.4078-1.3898 0.060029-1.1933-0.29442-1.1396-0.57219-1.0959-0.78289-1.0603-0.94042-1.0309-1.0564-5.5039-6.4574-5.1107-5.8732-2.8348-3.458-1.9778-2.6055-1.1711-1.7337-1.0665-1.9531-0.43781-1.0276-0.50057-1.6032-0.26484-1.6302-0.005705-1.6637 0.1871-1.6702 0.87032-4.9502 0.11452-1.5861-0.13007-1.5231-0.44172-1.4318-0.67808-1.3859-2.1024-3.6735-0.52578-1.2293-0.4743-1.6837-0.26276-1.4759-0.19972-2.6059 0.014358-1.6526 0.089039-0.92051 0.068185-0.31185 0.18823-0.30371 0.18558-0.053158 0.22248-0.32083 0.40953-0.91783 0.58373-1.8499 0.47104-2.2447 0.69188-4.6004 0.32308-1.2784 0.25085-0.54906 0.25774-0.35451 0.69696-0.50651 0.90455-0.29961 1.0385-0.14178 1.1444-0.025141 1.0622 0.053846 2.2205 0.26714 3.4552 0.65968 1.8441 0.43321 2.9245 0.80781 10.315 3.194 2.5523 0.6033 1.2825 0.19469 1.2285 0.070879 1.1522-0.098889 1.0464-0.33006 0.91371-0.61167 0.80358-0.85182 0.71924-1.038 0.65381-1.1833 1.0156-2.3153 0.89392-2.5723 0.82783-2.8285 2.337-9.2711 0.11137-0.27375 6.0545-4.4633 0.9178-0.57403 0.43502-0.14461 0.40086 0.071979 0.54267 0.5005 0.693 0.99789 1.4925 2.4081 14.575-11.526 8.0938-6.3178 2.2813-1.9176 1.3649-1.3053 0.60192-0.6638 0.53888-0.68565 0.45472-0.71306 0.34294-0.74782 0.20812-0.77466 0.10935-0.80343 0.11343-2.3876 0.086522-0.75792 0.1723-0.72182 0.4621-1.0135 1.4212-2.5416 0.73786-1.6267 0.19259-0.70438 0.013058-0.53629-0.15376-0.24594 10.02-7.2687 12.081-8.6149 2.8114-2.2211 1.716-1.6084 0.77446-0.87332 0.69032-0.91951 0.63134-0.96953 1.6775-3.1043 1.8423-3.9802 5.268-11.892 2.4643-5.1784 0.49907-0.19902 0.9569 0.003482 1.0573 0.18477 1.4528 0.49604 1.601 0.90451 1.5326 1.3209 0.7818 0.94068 2.2726 3.2174 1.3414 1.4376 1.5706 1.3536 1.7346 1.2655 1.8435 1.1711 1.908 1.0652 1.9369 0.9408 1.936 0.78867 1.9088 0.59784 1.856 0.35516" clip-path="url(#pe88b66513b)"/>
   </g>
  </g>
 </g>
 <defs>
  <clipPath id="pe88b66513b">
   <rect x="7.2" y="7.2" width="357.12" height="209.22"/>
  </clipPath>
 </defs>
</svg>
