<?xml version="1.0" encoding="UTF-8"?>
<!DOCTYPE svg  PUBLIC '-//W3C//DTD SVG 1.1//EN'  'http://www.w3.org/Graphics/SVG/1.1/DTD/svg11.dtd'>
<svg width="236.53pt" height="280.51pt" version="1.1" viewBox="0 0 236.53 280.51" xmlns="http://www.w3.org/2000/svg" xmlns:xlink="http://www.w3.org/1999/xlink">
 <metadata>
  <rdf:RDF xmlns:cc="http://creativecommons.org/ns#" xmlns:dc="http://purl.org/dc/elements/1.1/" xmlns:rdf="http://www.w3.org/1999/02/22-rdf-syntax-ns#">
   <cc:Work>
    <dc:type rdf:resource="http://purl.org/dc/dcmitype/StillImage"/>
    <dc:date>2024-07-04T12:10:45.642502</dc:date>
    <dc:format>image/svg+xml</dc:format>
    <dc:creator>
     <cc:Agent>
      <dc:title>Matplotlib v3.7.1, https://matplotlib.org/</dc:title>
     </cc:Agent>
    </dc:creator>
   </cc:Work>
  </rdf:RDF>
 </metadata>
 <defs>
  <style type="text/css">*{stroke-linejoin: round; stroke-linecap: butt}</style>
 </defs>
 <g id="figure_1">
  <g id="patch_1">
   <path d="m-0 280.51h236.53v-280.51h-236.53v280.51z" fill="none"/>
  </g>
  <g id="axes_1">
   <g id="PatchCollection_1">
    <defs>
     <path id="m9a0d93bcd7" d="m172.15-241.95 1.6405 1.8194 1.1241 1.3087 0.67129 0.84087 0.81474 1.0736 0.93565 1.3496 0.88082 1.2154 0.69445 0.83516 0.61186 0.60728 0.26509 0.21965 0.38278 0.27004 0.39238 0.2223 0.51276 0.21767 0.4882 0.15891 0.49364 0.11501 0.24704 0.038426 1.6941 0.14299 1.027 0.1775 1.1225 0.25788 2.497 0.64925 0.75186 0.178 0.75423 0.14824 1.8603 0.30225 0.93128 0.19674 0.90932 0.24672 1.1093 0.33352-0.01084 0.25047-0.25649 2.2625-0.04635 0.72572-0.010863 0.54818 0.023496 0.70803 0.053389 0.54171 0.10269 0.59792 0.20398 0.76971 0.17786 0.52364 0.68388 1.8439 0.51525 1.798 0.31188 0.99107 0.18338 0.50802 0.45974 1.1261 0.50394 1.0684 0.76894 1.4587 2.3613 4.0917 0.32452 0.59024 0.45425 0.89266 0.37585 0.86046 0.23937 0.68209 0.1785 0.73608 0.062342 0.58821-0.002105 0.28205-0.03187 0.31475-0.1608 0.61772-0.27625 0.64548-1.0366 1.9063-0.42852 0.82373-0.28546 0.67398-0.15056 0.52217-0.060576 0.41286 0.006285 0.35898 0.071226 0.34828 0.17682 0.42974 0.27614 0.43352 0.23419 0.28508 0.5517 0.54021 0.64754 0.51854 0.83309 0.57849 0.89731 0.56579 2.899 1.7089 1.646 0.99814 1.2788 0.85006 0.62061 0.46919 0.45458 0.40642 0.41484 0.43522 0.42471 0.529 0.31859 0.47758 0.27796 0.513 0.24767 0.59679 0.12214 0.40421 0.086541 0.4342 0.034563 0.42949-0.026233 0.43862-0.048486 0.2557-0.12553 0.40798-0.2483 0.55-0.23754 0.42512-0.95847 1.5802-0.39385 0.80174-0.30738 0.86582-0.12897 0.68495-0.049973 0.63022 0.011169 0.95084 0.098844 0.97613 0.18159 0.98561 0.13683 0.54882 0.30199 0.99023 0.57408 1.5979 0.43239 1.041 0.22884 0.48331 0.30026 0.56612 0.32709 0.53384 0.90967 1.2464 0.49954 0.74332 0.49064 0.80878 0.4858 0.86006 1.5725 2.9429 0.55037 0.98854 0.48976 0.81506 0.47909 0.70866 0.44809 0.5472 0.25543 0.23941 0.13068 0.093605 0.088939 0.044634 0.046215 0.004169-0.2099 0.14343-0.41488 0.32937-2.951 2.5117-0.66044 0.59675-2.2617 2.1471-0.58867 0.53513-0.57733 0.46272-0.78939 0.53366-1.0019 0.57006-1.1283 0.53877-2.2311 0.93026-1.3384 0.38064-0.39565 0.1244-0.62365 0.23113-2.8762 1.2572-1.4078 0.66031-0.5031 0.25947 0.10921 0.11139 0.32711 0.23064 1.3994 0.91418 0.65317 0.48384 0.40839 0.32783 2.9308 2.5467 2.3714 1.9943 0.58172 0.54564 0.64156 0.72093 0.45948 0.60035 0.84606 1.2209 0.63256 0.99723 0.38999 0.66168 0.44091 0.84366 0.25314 0.57849 0.22363 0.587 0.19345 0.58938 0.16048 0.58577 0.15339 0.76451 0.052746 0.51428 0.010308 0.3916-0.037521 0.6017-0.12487 1.0205-0.032046 0.49683 0.014336 0.46906 0.054683 0.47411 0.086287 0.47478 0.15988 0.68528 0.18001 0.63708 0.22508 0.60321 0.27616 0.59246 0.51711 0.95883 0.36434 0.62442 0.40873 0.62108 0.4553 0.60126 0.78815 0.93379 2.0109 2.2123 0.30347 0.40779 0.17926 0.29397 0.17453 0.39081 0.033912 0.1397-0.021518 0.083837-3.0921 0.88123-0.78657 0.26282-0.51736 0.21874-0.4187 0.24033-0.2797 0.22473-0.13068 0.13442-0.13253 0.16664-0.20751 0.36379-0.074547 0.19388-0.061511 0.23074-0.061138 0.48114-0.005424 0.24616 0.02928 0.45611 0.086661 0.45725 0.1779 0.51176 0.25616 0.48633 0.27922 0.40142 0.16963 0.20823 0.3909 0.42012 0.88378 0.85476 0.16641 0.20919 0.28591 0.47673 0.27189 0.6279 0.20411 0.63009 0.18488 0.80978 0.07257 0.43194 0.037506 0.40837-0.010524 0.065103 0.023287 0.16485 0.33837 1.4961 0.088785 0.64668-0.014259 0.4734-0.035974 0.19914-0.11187 0.37687-0.10298 0.23351-0.16865 0.27815-0.13535 0.17824-0.35905 0.37936-0.3739 0.32043-0.74806 0.55067-0.79021 0.6265-0.29371 0.25173-0.25743 0.26029-0.14884 0.19632-0.35436 0.59282-0.2024 0.26897-0.24979 0.28537-0.71872 0.74013-0.24556 0.31706-0.097701 0.19815-0.027069 0.17322 0.055021 0.16867 0.073169 0.07947 0.077413 0.029213-0.64893 0.82295-0.16964 0.15555-0.20074 0.11653-1.0117 0.4544-0.36094 0.11727-0.32374 0.032453-0.56494-0.057149-1.7467 2.2497-0.64573 0.90254-1.0907 1.6065-0.36582 0.50208-0.6855 0.8744-1.6012 1.9188-0.35959 0.50312-0.30969 0.52184-0.25662 0.54083-0.20338 0.57451-0.11166 0.45232-0.078314 0.49062-0.043352 0.51015 0.005682 0.64405 0.085366 0.84626 0.10191 0.63841 0.23686 1.2257 0.19769 0.87376 0.24922 0.88857 0.22184 0.61191 0.15599 0.31203 0.2663 0.3573 0.31907 0.30091 0.34474 0.24447 0.77351 0.45708 0.34845 0.25759 0.80613 0.68942 0.63456 0.47832 0.84597 0.54086 2.0458 1.2391 0.29949 0.23911 0.25805 0.25354 0.17801 0.21175 0.12831 0.18898 0.059536 0.1261 0.003496 0.084541-0.074857 0.064768-0.61586 0.28339-1.125 0.46787-1.5092 0.59486-0.54294 0.25188-0.40856 0.25404-0.23092 0.19266-0.18546 0.20786-0.1567 0.27969-0.054452 0.21441 0.004559 0.26445 0.10053 0.31149 0.18269 0.32268 0.23543 0.33286 0.88025 1.1272 0.27183 0.38226 0.28173 0.45551 0.33561 0.66413 0.31761 0.79716 0.19071 0.60156 0.13865 0.60216 0.037862 0.32265-0.004456 0.2998-0.064673 0.28186-0.089079 0.17117-0.12223 0.14959-0.13203 0.11407-0.15011 0.096252-0.34227 0.13984-0.30047 0.063867-0.6536 0.068987-0.25474 0.054877-0.2209 0.091711-0.1985 0.13206-0.1284 0.12286-0.10921 0.14096-0.10035 0.18308-0.069036 0.19857-0.032728 0.18496-0.003789 0.18967 0.043791 0.2733 0.28109 0.84474 0.091002 0.34779 0.14495 0.71431-0.50178 3.5311-0.24725 1.2552-0.23 0.80892-0.26394 0.72912-0.29595 0.7097-0.35593 0.63283-0.4727 0.53386-0.17634 0.13729-0.28058 0.17382-0.3901 0.17893-0.42437 0.14117-0.62276 0.14438-0.97476 0.13336-1.9705 0.11649-0.42996 0.055298-0.49674 0.10099-0.37313 0.10509-0.35801 0.12546-0.50256 0.21962-1.3819 0.72114-0.65488 0.31683-0.65636 0.2505-0.84146 0.25268-1.2639 0.31271-2.9436 0.66356-0.96281 0.195-1.8427 0.33395-0.93068 0.21179-0.36011 0.11431-0.51861 0.21932-0.48766 0.27362-0.64982 0.49265-0.26663 0.26146-0.41073 0.50127-0.32648 0.52995-0.26163 0.60653-0.094944 0.29351-0.12686 0.48229-0.11845 0.6932-0.23056 2.6802-0.076627 0.56367-0.15914 0.93051-0.26831 1.1015-0.26692 0.80333-0.23052 0.57711-0.2612 0.57095-0.39686 0.75264-0.51873 0.84797-0.4738 0.68734-1.3338 1.7638-1.1395 1.5552-0.90714 1.304-0.81978 1.2768-0.52965 0.94441-0.31061 0.67578-0.18056 0.52578-0.05292 0.21625-0.059543 0.41136 0.023084 0.36701 0.10752 0.13369-0.13952 0.026024-0.13392 0.3023-0.4469 1.6812-0.14373 0.47701-0.16407 0.45214-0.35311 0.68157-0.45955 0.45906-0.1375 0.071052-0.23923 0.075269-0.34437 0.033302-0.46948-0.046648-0.58174-0.1461-0.67756-0.23445-0.84831-0.3432-1.0217-0.49046-0.49647-0.2831-0.86017-0.55417-0.38481-0.22541-0.38064-0.17902-0.23796-0.091586-0.42232-0.11658-0.86378-0.17486-0.25719-0.093026-0.2966-0.15493-0.40503-0.30558-0.49089-0.49414-0.51129-0.62924-0.48709-0.68648-0.32935-0.50548-0.6024-0.99798-0.6157-1.0998-2.3754-4.5745-0.48247-0.85073-0.49296-0.7651-0.50859-0.64454-0.38229-0.37962-0.28229-0.24152-0.27578-0.20063-0.27169-0.15578-0.30739-0.12579-0.27871-0.037581-0.24563 0.070863-0.25785 0.23271-0.22459 0.38987-0.13191 0.48095-0.067731 0.5514-0.064637 1.2789-0.05186 0.4304-0.14438 0.88201-0.035786 0.34347-0.08869 1.4697-0.097987 0.58232-0.21052 0.4867-0.19168 0.20499-0.2354 0.14116-0.28493 0.08166-0.29648 0.022574-0.24051-0.008331-0.99736-0.071607-0.42776 0.0202-0.4192 0.086133-0.50753 0.22716-0.11079 0.071635-0.54922 0.47758-0.52283 0.6234-0.29032 0.40841-0.24715 0.39325-0.45507 0.829-0.58401 1.2454-0.37037 0.94144-0.2705 0.88723-0.19572 0.90731-0.04998 0.3752 0.022156 0.24859-0.020797 0.028427-0.066054-0.32644-0.19072-1.4504-0.19035-0.93605-0.23532-0.84576-0.44568-1.2875-1.2096-3.05-0.99468-2.6266-0.43893-1.0055-0.46002-0.84508-0.33308-0.50467-0.30267-0.401-0.41925-0.4773-0.25448-0.25058-0.49176-0.41827-0.64985-0.47761-3.324-2.1849-3.1259-1.9003-1.4174-0.80178-0.68449-0.35347-0.91261-0.42455-1.3648-0.54018-0.80483-0.27505-1.5933-0.49578-1.8515-0.63051-2.1264-0.66643-1.0133-0.34536-0.7087-0.27228-1.2678-0.55892-0.60366-0.31016-0.52076-0.30212-0.71189-0.47892-0.75368-0.59602-0.89416-0.812-2.8051-2.8407-1.6441-1.7157-0.74352-0.84442-0.61152-0.76479-0.66751-0.94267-0.27033-0.4264-0.33154-0.57769-0.22276-0.44587-0.082496-0.26043-1.4326-0.22467-0.67679-0.082189-0.62814-0.027268-0.28314 0.020455-0.18789 0.034566-0.1719 0.056535-0.18485 0.10115-0.16767 0.1279-0.73378 0.65912-0.20282 0.15974-0.22012 0.12259-0.22188 0.064831-0.23995 0.028701-0.25235 0.003644-1.1351-0.086648-0.28411-0.051964-0.57301-0.16859-0.82804-0.34428-0.36554-0.20262-0.52316-0.37103-0.33801-0.21033-0.45476-0.22631-0.82941-0.35481-0.76301-0.29076-0.78559-0.26297-2.0667-0.60974 0.09513-0.21558 0.16603-0.5365 0.18342-0.72733 0.16067-0.83192 0.10644-0.87937 0.024063-0.88859-0.08707-0.87145-0.2129-0.82629-0.30872-0.79442-0.36437-0.76824-0.7541-1.4828-0.32428-0.7267-0.24452-0.72464-0.12706-0.72832 0.01606-0.72791 0.12327-0.73229 0.18762-0.73186 0.4207-1.4413 0.16289-0.69638 0.081366-0.66853-0.044045-0.62858-0.19509-0.55826-0.32078-0.50387-0.4144-0.44255-0.39654-0.31206-0.43134-0.25254-0.43424-0.1753-0.44517-0.10172-0.46468-0.015161-0.30954 0.047816-0.50116 0.16106-1.2447 0.60224-0.5194 0.19585-0.59517 0.12985-0.6211 0.065428-1.2599 0.065508-0.97685 0.074449-1.3197 0.04534-0.98972 0.09476-1.782 0.21592-0.83815 0.059416-1.086 0.022583-0.75819-0.044578-0.6431-0.10302-0.32742-0.080697-0.45101-0.15666-0.19311-0.10803-0.056819-0.067207-0.001331-0.031524-0.12002 0.13712-0.54964 0.36769-0.72172 0.40596-0.76343 0.37848-0.92392 0.40251-0.8555 0.31871-0.86139 0.26023-0.85072 0.18284-0.82708 0.085994-0.50182-0.002196-0.33767-0.023268-0.60932-0.077701-1.5303-0.2608-0.23651-0.023739-0.62612-0.013916-0.96871 0.07927-1.847 0.33527-0.71836 0.17703-0.68712 0.26486-0.22395 0.11936-0.60497 0.41181-0.56513 0.49178-0.70208 0.73107-0.98748 1.1863-0.46506 0.50681-0.5108 0.52121-0.33137 0.29484-0.43746 0.30085-0.2496 0.13085-0.43665 0.17398-0.44723 0.095092-0.56048-0.008157-0.28822-0.043754-0.63966-0.1783-0.63389-0.2674-0.5805-0.32826-0.52351-0.41237-0.59012-0.57156-1.6741-1.866-0.50804-0.52009-0.53379-0.47928-0.48209-0.35154-0.4672-0.25908-0.29835-0.12621-0.41465-0.13295-0.42178-0.092691-0.4307-0.060459-1.678-0.17006-2.5795-0.33269-0.50824-0.043345-1.0964 0.012856-0.95256 0.049827-0.62259 0.053823-0.48029 0.063354-0.68882 0.144-1.5353 0.48421-1.3903 0.3954-0.71282 0.22484-0.73318 0.27776-2.5899 1.0419-0.89089 0.32824-0.48153 0.156-0.73113 0.2016-0.6341 0.12029-0.63846 0.048853-0.34183-0.00885-0.52472-0.05252-0.69702-0.12268-0.61056-0.14787-0.61752-0.18283-0.79243-0.27938-0.77934-0.32276-0.97455-0.47452-0.52117-0.28403-1.7769-1.0379 1.1545-1.4382 2.2683-2.7558 0.50851-0.69698 0.15131-0.23769 0.23331-0.43721 0.15378-0.40175 0.075041-0.30129 0.0467-0.30844 0.022012-0.31813-0.007841-0.64715-0.16396-2.076-0.038985-0.96512 0.033456-0.67972 0.099169-0.55621 0.082712-0.27294 0.10942-0.26827 0.2884-0.51789 0.406-0.54643 0.85017-0.9486 0.080937-0.07279 0.1247-0.17318 0.36973-0.60647 1.0606-1.9895 0.2345-0.36446 0.23135-0.29654 0.32949-0.33519 0.39527-0.30462 0.31153-0.18449 0.29536-0.14098 0.5514-0.20519 0.82606-0.26889 0.66611-0.25684 1.2074-0.55555 2.8112-1.1705 0.6113-0.29008 0.38286-0.21359 0.39057-0.2527 0.31305-0.23377 0.31913-0.27069 0.46127-0.45239 0.71562-0.82475 0.66002-0.90188 0.21603-0.339 0.34078-0.61102 0.30546-0.66892 0.23043-0.63428 0.089154-0.30923 0.084447-0.38976 0.047196-0.48011-0.013631-0.32594-0.070485-0.3639-0.22812-0.78248-0.078358-0.5646 0.012131-0.49265 0.050675-0.29163 0.11679-0.43314 0.15622-0.47869 0.29728-0.79478 0.48924-1.2016 0.29587-0.78311 0.79314-1.6304 0.30837-0.70451 0.2043-0.54813 0.17722-0.57632 0.14166-0.59451 0.43009-2.5794 0.16188-0.63953 0.12945-0.41061 0.28485-0.72905 0.2117-0.42848 0.31074-0.49648 0.15344-0.16631 0.058398-0.0214 0.03465-0.046849 0.028228-0.13499 0.008977-0.19339-0.019016-0.22901-0.054205-0.2472-0.09095-0.2522-0.16047-0.30321-0.20565-0.28635-0.24171-0.26362-0.23226-0.20577-0.25056-0.18258-0.26676-0.15635-0.29417-0.13291-0.30628-0.10467-0.6698-0.14971-1.6074-0.25606-0.48064-0.12579-0.29617-0.11322-0.29227-0.14941-0.26874-0.17656-0.19335-0.15259-0.40163-0.3859-0.20683-0.23379-0.34042-0.43429-0.2202-0.31412-0.20814-0.32463-0.35106-0.62766-0.27905-0.59058-0.76851-1.8701-0.46992-1.0906-0.41166-0.84109-0.27308-0.46488-0.36411-0.52968-0.68698-0.85408-0.73465-0.81421-0.85217-0.89634 0.056169-0.077432 0.19627-0.14411 0.54766-0.34053 1.1253-0.62534 0.90144-0.45042 1.5281-0.66658 1.1525-0.44619 2.055-0.72771 1.0354-0.39549 0.84436-0.3774 0.69118-0.36786 0.67774-0.41001 1.4978-1.0127 2.8485-2.012 1.7802-1.3102 0.8431-0.67213 0.769-0.66583 0.69906-0.68132 0.5642-0.64951 0.45775-0.66654 0.20813-0.40113 0.1545-0.4092 0.098409-0.47815 0.010951-0.42164-0.049917-0.42595-0.052747-0.24947-0.17276-0.56462-0.23201-0.56488-0.21224-0.43737-0.24014-0.43066-0.30028-0.46381-0.33096-0.4468-0.28662-0.34874-0.97099-1.0926-0.41892-0.52228-1.6551-2.2133-0.2859-0.44295-0.46898-0.9039-0.24166-0.57867-0.21516-0.60016-0.18269-0.59072-0.16207-0.60375-0.22692-1.0182-0.18252-1.0351-0.11908-0.81759-0.14944-1.2732-0.11668-1.2912-0.11651-2.0344 0.005552-0.77882 0.080617-0.70633 0.17149-0.68162 0.37187-0.8506 0.48155-0.82604 0.58737-0.91153 0.4211-0.61069 0.44922-0.6092 0.51236-0.64596 0.57208-0.67232 0.61213-0.64382 0.46417-0.35872 0.2908-0.14757 0.26046-0.081993 0.73459-0.043203 0.80967 0.15004 0.8648 0.29181 0.90464 0.39405 0.93287 0.46619 0.95236 0.51554 4.8719 2.827 1.9394 1.0693 0.95638 0.48452 1.2979 0.58257 0.96242 0.33763 1.7485 0.49114 0.7557 0.24926 0.70612 0.32233 0.64203 0.42225 0.6078 0.4994 1.2414 1.0831 0.52512 0.39871 0.55956 0.37743 0.53549 0.32227 0.56148 0.30456 0.61631 0.30394 1.2877 0.57019 1.3803 0.55752 1.4832 0.51421 1.6236 0.49221 1.1948 0.3978 1.0369 0.41943 0.7079 0.35031 0.6778 0.41886 0.38835 0.29755 0.25762 0.22967 0.25874 0.26442 0.2899 0.34906 0.27299 0.39759 0.23718 0.42346 0.17932 0.39277 0.23674 0.66044 0.11374-0.34247 0.24832-0.59468 0.18482-0.35548 0.3168-0.52445 0.31221-0.4473 1.2859-1.6218 0.42527-0.63977 0.32918-0.69713 0.13856-0.39518 0.21271-0.83966 0.23711-1.4207 0.13248-0.43662 0.28195-0.48624 0.39555-0.38234 0.48949-0.24794 0.39635-0.080177 0.18653-0.014191 0.39971 0.005181 0.77047 0.096912 1.9086 0.39417 1.3408 0.33726 0.22843 0.022643 0.28582-0.016878 0.20762-0.056849 0.34931-0.23314 0.22506-0.29556 0.18402-0.35922 0.12202-0.30034 0.087925-0.2767 0.075765-0.29264 0.11597-0.60578 0.16323-1.5729 0.10472-0.60747 0.16815-0.55185 0.264-0.46055 0.26268-0.25326 0.21912-0.14357 0.45847-0.20976 0.88345-0.32338 0.34214-0.14933 0.40031-0.21227 0.43867-0.29938 0.63013-0.55078 0.76328-0.73184 0.55958-0.56521 1.4699-1.5542 0.37456-0.36622-0.17037-0.21791-1.7628-1.8738-0.67826-0.75526-0.82341-0.96771-0.76088-0.97102-0.6569-0.94864-0.51116-0.90891-0.30386-0.80617-0.06548-0.33245-0.018691-0.22644 0.02103-0.34288 0.20892-0.60255 0.38136-0.56651 0.49537-0.55238 1.2145-1.2203 0.63923-0.6906 0.58392-0.71623 0.48765-0.73987 0.34533-0.76331 0.11063-0.416 0.059213-0.38198 0.020824-0.26754 0.003239-0.48895-0.043742-1.0135 0.002121-0.38176 0.04257-0.52161 0.080598-0.52522 0.13287-0.59847 0.36072-1.1758 0.10807-0.49607-0.023396-0.42454-0.10104-0.21422-0.16478-0.18947-0.28561-0.22459-0.46186-0.31485-0.37232-0.28037-0.30716-0.26188-0.28793-0.28192-0.35568-0.39736-0.3502-0.4378-0.28417-0.38552-0.54484-0.8126-0.4657-0.78331-0.45005-0.86978-0.26391-0.59805-0.22207-0.60029-0.3807-1.2948-0.28004-0.80877-0.31195-0.76119-0.35691-0.77322-0.6897-1.3263-0.41537-0.73386-0.90053-1.4856-0.90323-1.4025-2.2156-3.3336-0.91829-1.4372-0.69073-1.2015-0.26362-0.53067-0.22478-0.5272-0.17825-0.53-0.11759-0.52531-0.034446-0.28419-0.01157-0.30614 0.016563-0.33706 0.069805-0.46655 0.094116-0.39061 0.16624-0.51811 0.18236-0.44071 0.20526-0.40271 0.40685-0.64348 0.65076-0.83843 0.037324 0.00172 0.076672-0.090536 0.16666-0.3873 0.28207-0.87661 0.56054-1.9108 0.23624-0.73317 0.24427-0.62694 0.28069-0.55264 0.22778-0.3281 0.20074-0.20408 0.2323-0.15349 0.23963-0.098484 0.70345-0.18045 0.32767-0.15012 0.31595-0.22089 0.1794-0.15226 0.47029-0.45813 0.44012-0.49203 0.42549-0.52955 0.61772-0.88418 0.553-0.9358 0.2059-0.39907 0.21991-0.50189 0.18703-0.60344 0.05036-0.26587 0.045584-0.41797 0.021244-0.51502 0.023956-2.3109-0.010937-0.92732-0.032378-0.51511-0.12287-1.2233-0.017704-0.4285 0.013295-0.64222 0.06321-0.64764 0.13003-0.68469 0.30364-1.1229 0.21031-0.62362 0.25799-0.57579 0.33022-0.54687 0.39069-0.49414 0.32283-0.35553 0.34459-0.34237 0.30497-0.27221 0.31737-0.25346 0.5891-0.38948 0.60573-0.28483 0.58262-0.17594 0.66304-0.11125 1.1638-0.12343 0.052923 0.064013 0.10642 0.077274 0.43902 0.24133 0.38748 0.14422 0.19521 0.048559 0.26221 0.042586 0.37844 0.024738 1.9316-0.018079 0.60212 0.017555 0.41824 0.042478 0.41528 0.083179 0.50404 0.15186 1.3534 0.53714 1.0314 0.4897 0.66342 0.38028 0.40774 0.298 0.72095 0.63621 0.29568 0.2377 0.47763 0.33768 0.44829 0.27322 1.0863 0.56441 3.545 1.6347 0.79505 0.47449 1.406 0.96138 0.53991 0.29408 0.37289 0.15147 0.52075 0.14124 0.59822 0.072903 0.53869-0.002032 1.3999-0.088306 0.40899 0.004962 0.22224 0.030832-0.021224-0.17626 0.052077-0.050458 0.23808-0.10983 0.24817-0.061345 1.9109-0.22377 0.56882-0.054166 1.5981-0.10427 0.70434-0.067328 0.43752-0.061166 0.75441-0.15003 0.72287-0.19016 0.948-0.31268 0.60174-0.24378 0.76249-0.37809 0.43208-0.28212 0.2821-0.21431 0.35922-0.30324 1.3853-1.2835 0.50039-0.41895 0.50067-0.38321 0.5513-0.38761 0.64256-0.41103 0.97356-0.54442 0.60645-0.29742 0.62764-0.27969 0.80811-0.32985 2.2115-0.84634 0.33602-0.15113 0.9301-0.4707 1.1066-0.48686 1.5109-0.60623 0.4395-0.14953 0.91184-0.26088 0.34352-0.19443 0.2461-0.3087 0.17128-0.40507 0.33594-1.0129 0.27848-0.59081 0.34171-0.60234 0.35051-0.5624 2.0552-3.0784 1.3134-1.7354 1.1415-1.57 0.28521-0.36108 6.1966 7.6913 0.84462 1.125 0.39939 0.57024 0.64391 0.99382 0.34762 0.58956 0.43219 0.80022 0.27449 0.55178 0.3429 0.75696 0.42504 1.0554 0.25658 0.5829 0.3921 0.73451 1.4552 2.3801 0.52321 0.72691 0.58763 0.70951" stroke="#bdc660"/>
    </defs>
    <g clip-path="url(#ped28a6a0b0)">
     <use y="280.512" fill="#bdc660" stroke="#bdc660" xlink:href="#m9a0d93bcd7"/>
    </g>
   </g>
  </g>
 </g>
 <defs>
  <clipPath id="ped28a6a0b0">
   <rect x="7.2" y="7.2" width="222.13" height="266.11"/>
  </clipPath>
 </defs>
</svg>
