<?xml version="1.0" encoding="UTF-8"?>
<!DOCTYPE svg  PUBLIC '-//W3C//DTD SVG 1.1//EN'  'http://www.w3.org/Graphics/SVG/1.1/DTD/svg11.dtd'>
<svg width="225.1pt" height="280.51pt" version="1.1" viewBox="0 0 225.1 280.51" xmlns="http://www.w3.org/2000/svg" xmlns:xlink="http://www.w3.org/1999/xlink">
 <metadata>
  <rdf:RDF xmlns:cc="http://creativecommons.org/ns#" xmlns:dc="http://purl.org/dc/elements/1.1/" xmlns:rdf="http://www.w3.org/1999/02/22-rdf-syntax-ns#">
   <cc:Work>
    <dc:type rdf:resource="http://purl.org/dc/dcmitype/StillImage"/>
    <dc:date>2024-07-04T12:10:49.424821</dc:date>
    <dc:format>image/svg+xml</dc:format>
    <dc:creator>
     <cc:Agent>
      <dc:title>Matplotlib v3.7.1, https://matplotlib.org/</dc:title>
     </cc:Agent>
    </dc:creator>
   </cc:Work>
  </rdf:RDF>
 </metadata>
 <defs>
  <style type="text/css">*{stroke-linejoin: round; stroke-linecap: butt}</style>
 </defs>
 <g id="figure_1">
  <g id="patch_1">
   <path d="m0 280.51h225.1v-280.51h-225.1v280.51z" fill="none"/>
  </g>
  <g id="axes_1">
   <g id="PatchCollection_1">
    <defs>
     <path id="mf1e7fea03f" d="m60.158-245.21 0.32371 0.006142 0.62706-0.059539 1.3931 0.52654 0.44087 0.20407 0.28844 0.15644 0.61998 0.42132 0.74442 0.64322 0.76415 0.75544 0.59199 0.6194 0.6185 0.73334 0.42517 0.63306 0.2827 0.57671 0.22592 0.60544 0.18957 0.62281 0.49288 1.8468 0.17887 0.59281 0.17233 0.48764 0.19636 0.46262 0.22696 0.43038 0.31445 0.457 0.35971 0.3922 0.38962 0.3217 0.78704 0.58446 0.31272 0.29384 0.27752 0.31732 0.23894 0.32895 0.095352 0.15293 0.1815 0.38089 0.10038 0.4023 0.006661 0.40572-0.05651 0.41851-0.16669 0.87284-0.043956 0.4549 0.020169 0.47168 0.073062 0.45117 0.21655 0.87665 0.10876 0.55466 0.042827 0.46344-0.009757 0.42438-0.077547 0.53709-0.087699 0.36906-0.1114 0.3761-0.44097 1.2441-0.21515 0.72387-0.13059 0.71745-0.026028 0.68188 0.054414 0.68583 0.11656 0.66815 0.16026 0.61995 0.18285 0.52792 0.17786 0.37286 0.13276 0.12969 3.6612-0.29841 0.75147-0.081471 0.83508-0.13271 0.87215-0.19416 0.87532-0.23438 2.7163-0.82658 1.1157-0.30838 0.78584-0.16776 0.76666-0.1169 1.1186-0.085497 2.4704 0.021664 2.4378-0.047842 3.8751-0.29773 2.5569-0.14087 1.6372-0.048065 0.99747-0.058017 1.3613-0.12543 0.98099-0.13773 0.93306-0.19363 0.62126-0.18254 0.63603-0.24632 0.63602-0.29805 0.98106-0.5241 0.68619-0.41302 1.5708-1.063 0.76002-0.48667 2.5346-1.5628 0.75752-0.41904 0.7177-0.33971 0.83979-0.33559 2.4389-0.82564 0.84368-0.31504 0.57195-0.25208 0.42623-0.22559 0.71633-0.48362 0.64537-0.5492 2.2529-2.2296 0.75072-0.67314 0.75758-0.58217 0.93214-0.62624 1.2307-0.7293 0.61493-0.3136 0.79362-0.36355 1.1798-0.48059 0.78573-0.28421 0.72759-0.22567 0.59617-0.15037 0.62119-0.12224 0.69892-0.098319 0.4723-0.042892 0.62337-0.022133 0.43112 0.012039 0.56048 0.05132 0.96332 0.17855 0.7913 0.22416 0.87003 0.32553 1.1077 0.50333 1.9876 0.97162 1.0669 0.44658 0.49425 0.1636 0.65314 0.15567 0.54521 0.069969 0.57272 0.006784 0.6675-0.077077 0.40563-0.086287 0.46467-0.13023 0.55618-0.19153 0.69635-0.27926 1.956-0.86601 0.99082-0.41392 1.0095-0.37394 0.92131-0.28942 1.221-0.34916 0.8218-0.20727 0.59485-0.11921 1.6482-0.25372 0.60849-0.13348 0.4692-0.13766 0.4335-0.15649 0.6245-0.28021 0.8381-0.49284 2.5899-1.7565 0.63619-0.50078 0.4983-0.49939 0.25864-0.32628 0.22946-0.35366 0.1668-0.31779 0.13861-0.32606 0.25905-0.87159 0.42865-2.0371 0.24202-0.82374 0.3094-0.81828 0.31169-0.66953 0.57921-1.0168 0.40669-0.59834 0.45736-0.59137 0.62337-0.69781 0.79534-0.7712 2.5262-2.3359 0.49298-0.4298 0.74312-0.58919 0.68301-0.46201 0.71317-0.40428 1.1329-0.51505 1.1058-0.3925 5.0852-1.5022 0.81303-0.20851 1.069-0.23236 1.4406-0.23424 0.84275-0.099283 1.3891-0.096792 1.0908-0.006951 3.6923 0.1689 1.9308 0.13612 1.0459 0.15019 0.59785 0.14012 0.27861 0.089638 0.23698 0.099089 0.23339 0.14442 0.081092 0.093304 0.002276 0.092216-0.10812 0.53314-0.18399 1.3314-0.14035 0.83442-0.71757 2.7834-0.15233 0.77557-0.36935 2.162-0.16104 0.73872-0.58651 2.2891-0.17164 1.0293-0.085109 0.80462-0.16382 2.991-0.11805 1.3118-0.10328 2.168-0.10084 1.5346-0.017102 1.8862-0.079147 0.90142-0.13746 1.0508-0.40936 1.697-0.13616 0.7124-0.081574 0.91276-0.00214 1.4992 0.22991 5.234-0.03149 0.83432-0.058996 0.40538-0.059692 0.27159-0.16292 0.52388-0.23717 0.43074-0.11562 0.13109-0.17654 0.14996-0.47326 0.2589-1.3567 0.40908-0.37963 0.15144-0.33935 0.18458-0.38992 0.34628-0.27965 0.46687-0.15715 0.7429 0.005491 0.86976 0.095078 0.84305 0.26103 1.4669 0.4949 2.3888 0.17902 1.0395 0.083607 0.79975 0.002276 0.80988-0.082402 0.61568-0.07705 0.3015-0.15948 0.45167-0.33414 0.71587-0.45137 0.76056-0.38875 0.5206-0.44346 0.46127-0.35947 0.28048-0.48748 0.26922-0.75618 0.32949-0.4337 0.22533-1.7455 1.1508-0.62277 0.3707-2.1687 1.2047-0.75528 0.39058-0.80035 0.30676-0.84199 0.20188-0.59104 0.066333-2.0732-0.014363-0.66425 0.051725-3.07 0.53561-1.1039 0.28009-1.8477 0.61749-1.2289 0.3357-0.59308 0.22426-0.4076 0.20194-0.66693 0.40552-0.27291 0.21098-0.1805 0.18906-0.12222 0.18114-0.065674 0.14243-0.068112 0.29192-0.009833 0.2008 0.031737 0.32048 0.085102 0.28714 0.17038 0.31902 0.14987 0.19944 0.17484 0.1851 0.34805 0.29053 1.3823 0.9271 0.5057 0.44961 0.34606 0.4117 0.38211 0.57079 0.28325 0.50778 0.2785 0.56997 0.35834 0.82836 0.38042 0.9977 0.3461 1.0481 0.37391 1.3116 0.15975 0.70517 0.13205 0.782 0.079009 0.74748 0.10441 1.4853 0.082325 0.54037 0.12239 0.50424 0.38768 1.2556 0.16832 0.46986 0.19452 0.45382 0.22745 0.43242 0.63651 1.0822 0.40894 0.66625 0.53312 0.78156 0.59079 0.70509 0.5489 0.50581 0.39311 0.31256 0.40839 0.2746 0.53131 0.27127 0.52798 0.19224 0.32536 0.076096 0.75452 0.07641 1.8388-0.040541 1.0886 0.024098 1.6594 2.95e-4 0.68742 0.046253 0.58342 0.11611 0.4962 0.19474 0.5045 0.33874 0.45708 0.45327 0.44444 0.5914 0.40228 0.67996 0.38731 0.80214 0.3521 0.86614 0.36973 1.0572 0.3412 1.1064 0.66579 2.4725 1.443 6.0999 0.52756 2.0918 0.45031 1.5366 1.2964 4.149 0.44942 1.6026 0.35296 1.4245 0.26432 1.1727 0.48674 2.3614 0.75225 3.9225 0.14037 0.63214 0.098211 0.2796 0.008074 0.025153 0.39447 0.74795 2.5997 5.3004 0.64932 1.2347 0.50554 0.90284 1.2877 2.0876 3.1177 4.7441 0.72328 1.1742 0.68472 1.1846 0.46143 0.85913 0.43322 0.86872 0.39781 0.86928 0.36668 0.87983 0.40689 1.0917 0.28962 0.86288 0.42519 1.4314 0.25193 0.9646 0.49005 2.12 0.72726 3.537 1.7499 8.896 0.24813 1.4695 0.14947 1.3212 0.024525 0.66715-0.027716 0.63845-0.1789 0.92817-0.16602 0.42381-0.30373 0.50584-0.39137 0.46501-0.53558 0.49462-0.6094 0.46268-0.56251 0.37334-0.5945 0.36032-0.9364 0.52556-2.0285 1.0611-1.7381 0.86594-1.2718 0.58788-1.1726 0.43752-1.0813 0.31348-0.91177 0.21773-1.9357 0.41111-0.9122 0.22491-0.69985 0.20673-1.3869 0.47882-1.5783 0.61288-1.1235 0.49078-0.68372 0.34568-0.81117 0.47558-0.64362 0.44591-0.68182 0.56518-0.52882 0.51111-0.54516 0.58485-0.49885 0.58098-1.2373 1.6072-0.27845 0.33098-0.51221 0.5209-1.1963 1.0465-0.41932 0.42209-0.20392 0.24471-0.27298 0.40241-0.25095 0.5109-0.21189 0.63216-0.1547 0.72566-0.077729 0.62447-0.039305 0.68201 0.011836 0.92144 0.060437 0.7131 0.088457 0.59365 0.15371 0.70666 0.18435 0.6251 0.29966 0.7689 0.61113 1.3458 1.1111 2.65 0.68666 1.5487 0.60299 1.2015 0.69171 1.1732 0.40781 0.79694 0.38395 0.85601 0.9382 2.2404 0.55126 1.1884 0.4328 0.79918 0.48135 0.73739 0.54344 0.65122 0.54398 0.49749 1.352 1.069 0.8039 0.74389 0.87658 0.94507 0.75677 0.90576 0.75548 0.97323 0.74767 1.0329 1.1 1.6664 0.80552 1.3581 0.3828 0.70259 0.77279 1.5576 0.38311 0.84506 0.75929 1.7993 0.50543 1.2771 0.31377 0.88158 0.23593 0.75381 0.14461 0.54349 0.030364 0.22043-0.50934 0.37039-2.1691 1.4563-2.3098 1.5915-2.8055 1.8015-0.65196 0.45537-0.61543 0.47387-0.5674 0.5029-0.50473 0.5446-0.21253 0.27583-0.4878 0.76513-0.4044 0.75346-0.40956 0.85735-0.88586 2.0997-0.24251 0.43633-0.2681 0.36596-0.30461 0.28843-0.16551 0.11163-0.37576 0.17637-0.50466 0.13111-0.45105 0.047873-1.9138-0.023893-3.1869 0.042634-0.97293 0.025942-1.1026 0.096638-0.67155 0.11601-0.59439 0.14886-0.49062 0.16813-0.45521 0.20512-0.52042 0.31561-0.35842 0.28952-0.33692 0.35319-0.32765 0.44574-0.35016 0.60588-0.29783 0.63365-0.8004 2.0084-0.21583 0.44598-0.056897 0.04037-0.21472-0.1457-0.35339-0.53892-0.25819-0.47202-1.3609-2.7195-0.39729-0.75416-0.70236-1.2353-0.35239-0.5646-0.40008-0.58807-0.46983-0.60729-0.47071-0.50985-0.47138-0.41285-0.29268-0.21032-0.36014-0.21994-0.4023-0.20664-0.43544-0.191-0.9282-0.34697-2.4776-0.77992-1.1356-0.40453-0.69975-0.29868-2.0467-0.94292-1.9131-0.81426-0.62518-0.32311-0.39141-0.25211-0.20591-0.15953-0.36051-0.35949-0.33962-0.46251-0.67284-1.1619-0.25807-0.38752-0.269-0.31867-0.13347-0.12627-0.31599-0.21478-0.21404-0.086238-0.24371-0.049312-0.47979 0.01942-0.4497 0.12553-0.35116 0.16025-0.55283 0.34984-0.70709 0.5869-0.85645 0.84852-1.2135 1.3426-1.8415 2.1209-0.38891 0.41006-0.55659 0.51714-0.30554 0.23674-0.44071 0.2741-0.28318 0.13104-0.25452 0.086798-0.43671 0.084668-0.73746-0.084223-0.41206-0.22109-0.38443-0.33467-0.50961-0.62501-0.50559-0.78902-0.8636-1.5342-0.68598-1.1159-0.51356-0.72192-0.31166-0.38935-0.58959-0.65018-0.63542-0.60147-0.56205-0.46144-0.36179-0.26482-0.62468-0.39809-0.50714-0.26811-0.61181-0.26139-0.65928-0.21664-0.52873-0.13694-0.89065-0.1792-1.6054-0.24693-0.81899-0.1579-0.27707-0.074949-0.77221-0.33571-0.3963-0.29554-0.35893-0.36071-0.30557-0.37474-1.6776-2.4731-0.63329-0.7887-1.4393-1.5196-0.81561-0.79307-0.40265-0.33836-0.26398-0.19187-0.23969-0.141-0.20455-0.088772-0.42246-0.092656-0.44066-0.003993-0.40212 0.048922-0.83282 0.16686-0.59069 0.09223-0.42008 0.002345-0.15344-0.021602-0.30566-0.089708-0.17677-0.082684-0.26183-0.16287-0.88678-0.72523-0.62599-0.43262-0.40709-0.22585-0.53265-0.25079-0.83853-0.35874-0.26035-0.12774-0.23614-0.15066-0.19607-0.19052-0.10033-0.15994-0.080693-0.23812-0.03322-0.24222-0.002507-0.32122 0.16488-1.766 0.007589-0.75419-0.05213-0.69687-0.25087-1.5428-0.15363-1.1476-0.10811-1.3853 0.017056-1.3725 0.11764-2.9706-0.004683-0.44943-0.12056-1.1823-0.23028-0.93841-0.2092-0.54849-0.24142-0.47161-0.29777-0.44039-0.32752-0.33803-0.14305-0.094458-0.13049-0.04625-0.13769 0.01852 0.014219-0.033499-0.07335-0.11465-0.83247-1.0073-0.65304-0.88205-0.41201-0.62663-0.34161-0.61236-0.29127-0.64295-0.28257-0.81263-0.22532-0.8885-0.17845-1.0314-0.10005-1.0492-0.025763-1.1801 0.034332-1.4442 0.14005-2.4937 0.040912-1.3134-0.16004-7.5927-0.074333-1.2101-0.14767-1.2946-0.14389-0.82634-0.40448-1.9324-0.15411-1.0202-0.033619-0.53732 0.011828-0.48456 0.031448-0.27474 0.10453-0.47667 0.097324-0.28563 0.32701-0.64613 0.4449-0.62187 0.53615-0.59586 0.72151-0.67525 1.535-1.3292 0.72012-0.70341 0.30286-0.3433 0.59792-0.82509 1.0455-1.7528 1.0322-1.6598 0.40933-0.78472 0.30697-0.83892 0.1611-0.90591 0.043319-0.60881 0.031551-1.9477 0.043321-0.6915 0.11687-0.74568 0.16873-0.55804 0.32373-0.62457 0.26734-0.33577 0.2943-0.28775 0.67247-0.50609 0.48932-0.29673 2.3047-1.2627 1.6275-0.98717 1.0291-0.66432 1.6331-1.1073 1.3022-0.9614 0.62235-0.5209 0.62396-0.59409 0.30374-0.32777 0.48001-0.58516 1.1442-1.4966 1.4022-1.5684 0.42688-0.5488 0.21758-0.3203 0.41929-0.74222 0.25083-0.57984 0.19614-0.61613 0.13502-0.68623 0.040765-1.2384-0.15776-1.2909-0.30142-1.2973-0.38935-1.2408-0.41178-1.0932-0.50152-1.1319-0.063192 0.032872-0.18389 0.009585-0.33416-0.065284-0.54004-0.20955-0.67551-0.40826-0.62007-0.42185-0.57742-0.35596-0.60461-0.30331-0.89883-0.35911-1.0929-0.35655-2.7001-0.77762-0.82408-0.26416-0.8035-0.29794-2.2557-1.0015-1.1075-0.46818-2.2931-0.90442-2.8704-1.0258-2.3618-0.76523-2.2033-0.62041-1.1613-0.28171-2.2822-0.47733-2.3809-0.41442-1.2632-0.17812-0.86612-0.096503-0.86607-0.068698-1.216-0.039344-1.2131 0.029936-1.216 0.10298-1.2066 0.17548-1.2736 0.26826-1.2547 0.35063-0.64352 0.21496-0.63795 0.23445-1.0573 0.42963-1.4566 0.67614-1.3781 0.73134-1.2309 0.72655-2.7887 1.7673-0.73627 0.43847-1.197 0.65294-1.229 0.59184-0.93405 0.3956-0.95048 0.35538-1.4703 0.45686-1.6984 0.4137-2.2363 0.43676-2.9824 0.51516-1.1039 0.23553-0.85923 0.24693-0.91595 0.35171-0.54797 0.2332-0.64459 0.3115-0.44608 0.27122-0.40491 0.30256-0.37451 0.34792-0.3835 0.47794-0.15349 0.26921-0.082868 0.21432-0.045477 0.30949 0.026732 0.17842 0.12624 0.18667-1.4402 0.13792-2.2717 0.13999-2.4847 0.10197-1.9115 0.027932-0.88919-0.02574-0.68488-0.05006-0.64884-0.082416-0.58282-0.11531-0.5392-0.15833-0.59139-0.26332-0.45523-0.30816-0.27676-0.26173-0.47265-0.64184-0.4278-0.87988-0.32422-0.88252-0.5421-1.6382-0.20714-0.55752-0.20621-0.48052-0.22749-0.4433-0.26329-0.4097-0.29688-0.34823-0.3247-0.27409-0.3487-0.22207-1.1927-0.58604-0.32919-0.19857-0.30305-0.24641-0.4067-0.52842-0.22652-0.47934-0.15141-0.52748-0.069324-0.68521 0.077602-0.69697 0.061424-0.22701 0.25758-0.64422 0.77903-1.5105 0.33853-0.89608 0.14631-0.75041 0.049372-0.61906 0.003321-0.64448-0.031637-0.62434-0.14688-1.2709-0.19932-1.0861-0.21201-0.90965-0.35064-1.2826-0.63672-2.0845-0.57307-2.0569-0.24795-0.76568-0.24238-0.61412-0.42011-0.91127-1.2237-2.3569-0.73681-1.5002-0.59295-1.3872-1.0047-2.7685-0.1659-0.35133-0.04551-0.045569-0.042111 0.061068-0.088418 0.035445-0.14507 0.011414-0.17681-0.022489-0.34006-0.12141-0.2708-0.15644-1.2744-0.86788-1.3046-0.80831-0.46458-0.26-0.52604-0.21492-0.17377-0.039192-0.43687-0.013791-0.68022 0.091822-0.83728 0.24372-0.14872-0.004636-0.13713-0.057429-0.12975-0.13251-0.10381-0.21811-0.068789-0.29219-0.067856-0.56463-0.083073-0.44448-0.15607-0.40778-0.11408-0.19112-0.14069-0.17874-0.24778-0.23259-0.28883-0.20508-0.35518-0.20197-0.68987-0.30759-0.63782-0.22864-0.71667-0.2184-1.1319-0.29568-1.1352-0.32755-0.697-0.13287-0.61611-0.031387-0.7543 0.056883-0.56427 0.13717-0.37656 0.16914-0.064449 0.06534-0.033553-0.071064-0.084729-0.41347-0.072951-0.53232-0.052026-0.55608-0.035696-0.75367 3.96e-4 -0.66315 0.097863-1.3212 0.13229-0.79547 0.19639-0.78508 0.29214-0.81427 0.50945-0.95265 0.58063-0.72765 0.63344-0.59665 0.59558-0.46041 0.65954-0.4421 0.71094-0.42925 3.631-1.9883 1.2839-0.75519 0.58002-0.36625 1.501-1.0311 0.55942-0.42217 0.85641-0.71507 0.74049-0.74986 0.58253-0.80371 0.2767-0.56074 0.20789-0.58296 0.20516-0.81151 0.57054-2.8234 0.092226-0.78204-2.34e-4 -0.53756-0.04749-0.55444-0.15788-0.92284-0.33342-1.3037-0.35207-1.1247-0.75309-2.1146-0.59221-1.8109-0.68627-2.3815-0.93089-3.5122-0.21052-0.64117-0.34446-0.80412-0.19174-0.36172-0.32408-0.51708-0.51234-0.65769-0.38339-0.409-0.71914-0.64191-0.53554-0.41037-2.042-1.438-0.62243-0.48632-0.77321-0.66989-1.0629-1.0598-0.44941-0.50962-0.41744-0.51847-0.5451-0.77326-0.43592-0.76459-0.27549-0.64768-0.19472-0.82626-0.018148-0.31808 0.030993-0.49777 0.087509-0.49316 0.32259-1.3835 0.048744-0.34969 0.021779-0.54527-0.037044-0.51279-0.13732-0.78578-0.17016-0.65172-0.23206-0.71149-0.22353-0.58731-0.45112-1.0263-0.31455-0.6268-0.44327-0.79438-0.42294-0.68787-0.56988-0.84792-0.78247-1.0552-0.53453-0.66346-0.93494-1.0879-0.90594-0.99429 0.23869 0.098638 0.55037 0.16394 0.72581 0.1587 0.80876 0.10095 0.82869 7.7e-4 0.80393-0.1394 0.20885-0.066908 0.44831-0.18906 0.59085-0.33455 0.4899-0.3427 0.67682-0.54868 0.94214-0.85662 1.2217-1.2076 2.0508-2.1489 2.104-2.268 1.8176-2.0409 2.7307-3.1394 1.6749-1.839 1.1779-1.1584 0.62328-0.54068 0.641-0.49232 0.71506-0.47714 0.74778-0.44133 0.77456-0.41556 0.79714-0.39757 1.6518-0.76345 1.7189-0.74446 1.7752-0.73628 1.7527-0.69855 3.6404-1.4005 0.56096 0.7163 0.6549 0.97725 0.60617 1.0838 0.52167 1.1208 0.29696 0.74319 0.35592 1.0562 0.61286 2.0398 0.71967 2.5474 0.28826 0.90364 0.18967 0.50982 0.23954 0.55879 0.29714 0.60528 0.46968 0.84028 0.33262 0.52986 0.44953 0.62809 0.24445 0.29123 0.27632 0.27937 0.30016 0.23815 0.38134 0.20217 0.32254 0.092044 0.33211 0.042822" stroke="#bdc660"/>
    </defs>
    <g clip-path="url(#pad37f2bb48)">
     <use y="280.512" fill="#bdc660" stroke="#bdc660" xlink:href="#mf1e7fea03f"/>
    </g>
   </g>
  </g>
 </g>
 <defs>
  <clipPath id="pad37f2bb48">
   <rect x="7.2" y="7.2" width="210.7" height="266.11"/>
  </clipPath>
 </defs>
</svg>
