<?xml version="1.0" encoding="UTF-8"?>
<!DOCTYPE svg  PUBLIC '-//W3C//DTD SVG 1.1//EN'  'http://www.w3.org/Graphics/SVG/1.1/DTD/svg11.dtd'>
<svg width="317.49pt" height="280.51pt" version="1.1" viewBox="0 0 317.49 280.51" xmlns="http://www.w3.org/2000/svg" xmlns:xlink="http://www.w3.org/1999/xlink">
 <metadata>
  <rdf:RDF xmlns:cc="http://creativecommons.org/ns#" xmlns:dc="http://purl.org/dc/elements/1.1/" xmlns:rdf="http://www.w3.org/1999/02/22-rdf-syntax-ns#">
   <cc:Work>
    <dc:type rdf:resource="http://purl.org/dc/dcmitype/StillImage"/>
    <dc:date>2024-07-04T12:10:49.099775</dc:date>
    <dc:format>image/svg+xml</dc:format>
    <dc:creator>
     <cc:Agent>
      <dc:title>Matplotlib v3.7.1, https://matplotlib.org/</dc:title>
     </cc:Agent>
    </dc:creator>
   </cc:Work>
  </rdf:RDF>
 </metadata>
 <defs>
  <style type="text/css">*{stroke-linejoin: round; stroke-linecap: butt}</style>
 </defs>
 <g id="figure_1">
  <g id="patch_1">
   <path d="m0 280.51h317.49v-280.51h-317.49v280.51z" fill="none"/>
  </g>
  <g id="axes_1">
   <g id="PatchCollection_1">
    <defs>
     <path id="me17f3caf2d" d="m159.85-259.46 0.38386 0.55928 0.21269 0.43472 0.24798 0.67561 0.15331 0.55135 0.11927 0.53519 0.15772 0.91607 0.40484 2.9433 0.16675 0.92578 0.12452 0.5616 2.1647 8.2275 0.45541 1.6877 0.3511 1.2293 0.18024 0.57064 0.19335 0.54074 0.24765 0.57629 0.16823 0.32049 0.2507 0.38602 0.25071 0.29389 0.39147 0.32022 0.43279 0.19783 0.253 0.049136 0.29674 0.008646 0.27734-0.029404 0.43632-0.096379 0.57935-0.17595 1.1124-0.37116 2.2609-0.63893 3.2759-0.974 1.6303-0.53339 1.193-0.45724 0.57682-0.2569 0.54543-0.2777 1.926-1.1631 0.63171-0.42082 0.50269-0.3651 0.69401-0.54756 0.35707-0.30889 0.35329-0.332 0.41908-0.4361 0.28106-0.3246 0.41128-0.54903 0.25865-0.42788 0.15681-0.32069 0.13905-0.35596 0.16489-0.61975 0.095656-0.60289 0.10434-1.1701 0.053289-0.27452 0.068078-0.091996 0.4168-0.41797 0.43638-0.39449 1.1415-0.78992 0.217-0.1661 0.35771-0.3151 0.52726-0.58604 0.96348-1.2495 0.18388-0.18574 0.41334-0.32933 0.46622-0.29028 0.24989-0.13019 0.25501-0.11506 0.71137-0.2608 0.34956-0.15048 0.4554-0.25576 0.51161-0.31437 0.42358-0.27371 0.47206-0.33614 0.39735-0.24828 0.50963-0.26798 1.4292-0.67916 0.77663-0.41119 0.60021-0.37542 0.44473-0.32154 0.56014-0.47078 0.27172-0.28692 0.066739 0.12918 0.19307 0.21684 0.44828 0.42179 0.50353 0.41028 0.46966 0.33157 0.37589 0.2299 0.71279 0.3351 0.84003 0.21903 0.89274 0.083858 0.91834-0.02063 0.92063-0.095836 0.80549-0.12768 1.8551-0.36705 0.77153-0.12631 0.7192-0.014398 0.32958 0.054905 0.18218 0.050998 0.23045 0.086715 0.34606 0.17406 0.55584 0.36453 0.43397 0.3362 0.46863 0.40918 0.58808 0.62333 0.70954 0.83313 0.30903 0.40038 0.46297 0.66738 0.19265 0.31517 0.31584 0.60412 0.32107 0.74793 0.23773 0.64982 0.2208 0.73617 0.16731 0.71556 0.10662 0.57327 0.078449 0.59748 0.1372 1.5653 0.22108 1.9052 0.01893 0.58782-0.014815 1.1381 0.024239 0.4735 0.032408 0.19703 0.053989 0.18239 0.071058 0.14574 0.067399 0.093012 0.12377 0.10784 0.18347 0.076251 0.22361 0.022402 0.21754-0.023203 0.13473-0.032156 0.28604-0.10672 0.35641-0.18664 0.42508-0.27092 1.2733-0.91584 1.434-0.98886 0.43891-0.28499 1.163-0.70065 0.45948-0.30919 0.68894-0.5271 0.82631-0.72823 0.8973-0.88743 1.6088-1.6786 0.51638-0.4892 0.60725-0.5288 0.62774-0.49634 0.3886-0.27536 0.3591-0.23106 0.35883-0.20355 0.45622-0.20418 0.48306-0.13141 0.29184-0.034105 0.18135-0.001352 0.30269 0.037628 0.24961 0.072754 0.27109 0.11966 0.3592 0.21216 1.3265 0.95696 0.3288 0.20036 0.47637 0.23933 0.49746 0.20562 0.60244 0.20416 0.41738 0.1039 0.47611 0.08798 1.4652 0.20795 0.44099 0.046435 0.34494 0.004051 0.25618-0.029987 0.18944-0.076414 0.06554-0.11747 0.043691 0.012494 0.12914 0.14762 0.27484 0.44486 0.18778 0.40608 0.1521 0.41477 0.19129 0.61675 0.17804 0.6677 0.83785 3.3733 0.18736 0.90667 0.12164 0.87362 0.024395 0.82564-0.043487 0.47166-0.076484 0.45397-0.15121 0.62514-0.23151 0.59056-0.2346 0.39252-0.29835 0.3735-0.37342 0.3654-0.33478 0.27217-0.3057 0.21965-0.3991 0.26104-0.79721 0.47651-0.98854 0.52489-1.3641 0.63156-0.83727 0.35964-1.246 0.49846-0.58681 0.21409-0.82652 0.2722-1.9864 0.56899-0.3754 0.13072-0.3422 0.14812-0.31408 0.17329-0.32441 0.24224-0.2267 0.23453-0.33594 0.47411-0.62124 1.0472-0.23107 0.31467-0.47488 0.49257-0.63467 0.51044-0.82763 0.5595-0.59917 0.36804-2.0107 1.1766-0.65987 0.4283-0.62571 0.4618-0.69356 0.59741-0.65451 0.67675-0.30323 0.37054-0.24478 0.34126-0.35896 0.60612-0.20082 0.43137-0.12274 0.33696-0.19984 0.82862-0.059879 0.3904-0.068063 0.7271-0.014165 0.58515 0.029334 0.68225 0.081164 0.68249 0.11044 0.53916 0.13287 0.42915 0.16642 0.37644 0.19808 0.34513 0.2313 0.32808 0.26558 0.29588 0.33707 0.26355 0.13814 0.078915 0.50152 0.18582 1.7458 0.33513 3.0299 0.79526 0.86579 0.19044 0.88461 0.15248 0.90074 0.09453 0.99853 0.018984 1.0116-0.0539 1.0214-0.10747 1.0291-0.14608 1.0356-0.17311 4.2094-0.80367 2.1591-0.38005 1.0988-0.15977 1.1139-0.12582 1.1301-0.078012 1.1792-0.018686 1.192 0.03441 1.1966 0.07477 1.1861 0.10416 1.1499 0.12313 2.948 0.38429 0.005732 0.043089-0.051312 0.17555-0.20764 0.53663-0.58792 1.3108-3.2215 6.4182-0.22285 0.50443-0.64571 1.7135-0.31257 0.75054-0.21301 0.44346-0.46261 0.84916-0.50754 0.83278-0.94608 1.4569-0.28926 0.50922-0.11655 0.25118-0.10699 0.29437-0.068896 0.2997-0.020941 0.258 0.02106 0.25358 0.085477 0.33943 0.3202 0.82542 0.17815 0.51059 0.54883 1.9314 0.23115 0.60061 0.30202 0.52168 0.40779 0.40198 0.57955 0.26303 0.70603 0.12961 0.73855 0.040515 0.66886-0.005809 0.86872-0.044468 3.9589-0.35418 0.99438-0.055529 0.95257-0.004374 0.88709 0.072946 0.54397 0.10894 0.48918 0.17167 0.4204 0.24971 0.42561 0.4553 0.30591 0.57968 0.20254 0.67382 0.10826 0.74348 0.016164 0.7932-0.0807 0.8264-0.18502 0.85736-0.27128 0.87313-0.33803 0.88645-0.38977 0.89833-0.43008 0.90942-1.0198 1.9844-1.1826 2.1608-2.8445 5.0029-0.34103 0.60736-0.10659 0.23236 0.065239 0.019052 0.11572-0.007336 0.45244-0.099389 0.83448-0.23515 0.53903-0.18801 0.37418-0.16163 0.38561-0.20644 1.1513-0.70929 0.40861-0.18384 0.4329-0.11258 0.23639-0.022579 0.28759 0.005804 0.2358 0.028943 0.39849 0.093514 0.36931 0.13523 0.26795 0.12851 0.65514 0.42732 0.63223 0.54298 0.6402 0.64736 0.53346 0.5924 0.5236 0.61943 0.60492 0.7568 0.94989 1.2348 0.29392 0.35866 0.57795 0.63698 0.43875 0.43533 0.79861 0.7125 0.5228 0.42158 0.7437 0.55494 1.8281 1.2627 0.75354 0.54605 0.63944 0.50203 0.61292 0.52667 0.57949 0.55513 0.53763 0.58858 0.43221 0.54649 0.40239 0.56781 0.3818 0.58044 0.90785 1.44 0.53982 0.82216 0.57816 0.78036 0.47338 0.57278 0.29119 0.32723 0.44005 0.43101 0.47925 0.3695 0.65984 0.34998 0.71761 0.22682 0.38568 0.069746 0.61922 0.063616 0.73677 0.029509 0.71746-0.00436 2.1065-0.12309 0.58085-0.013777 0.35278 0.01171 0.32343 0.032419 0.34084 0.065093 0.23445 0.069454 0.34735 0.15069 0.32818 0.19811 0.5804 0.4725 0.53463 0.55291 0.95807 1.1388 0.4263 0.47468 0.38612 0.32432 0.33657 0.093033 0.27992-0.20412 0.20691-0.40059 0.15285-0.50267 0.11641-0.57494 0.060897-0.40636 0.1589-1.5029 0.045643-0.28429 0.059995-0.22891 0.094365-0.18787 0.084033-0.052318 0.069765 0.065048 0.061167 0.19449-0.052744 0.2217 0.010807 0.56628 0.05509 0.77575 0.093372 0.89216 0.13066 0.94394 0.17033 0.94997 0.21484 0.92236 0.4259 1.4824 0.12601 0.53272 0.12125 0.82648 0.036294 0.73423-0.036898 0.8527-0.047893 0.40248-0.10239 0.55623-0.11797 0.46124-0.15181 0.47123-0.17063 0.43113-0.22062 0.45291-0.21956 0.36101-0.32484 0.40239-0.56414 0.45031-0.64695 0.32755-0.35138 0.12717-0.75515 0.15771-0.79146 0.027497-0.47892-0.045677-0.38862-0.070175-0.46324-0.11565-1.271-0.41444-0.63139-0.17334-0.29505-0.057972-0.42981-0.053311-0.39089-0.005664-0.34228 0.036088-0.38503 0.10379-0.30195 0.182-0.1245 0.18061-0.046641 0.22146 0.071578 0.36017 0.12168 0.2632 0.17147 0.28186 0.26108 0.35716 0.46642 0.55258 0.7497 0.81472 2.2226 2.3303 1.7018 1.8303 0.32994 0.31416 0.57556 0.48115 2.5915 1.9211 0.55103 0.44887 0.45867 0.41621 0.22805 0.23328 0.22242 0.25604 0.16208 0.21591 0.1486 0.23487 0.18521 0.40435 0.080456 0.37429-0.007508 0.24727-0.029439 0.13036-0.24898 0.41782-0.42347 0.3673-0.536 0.3409-1.1993 0.6935-0.5676 0.39919-0.48291 0.46857-0.30936 0.45395-0.24908 0.50122-0.43761 1.07-0.24784 0.54537-0.27907 0.52017-0.31268 0.47574-0.88201 1.0519-0.36619 0.54628-0.16637 0.29749-0.13869 0.30967-0.10752 0.34959-0.083684 0.41958-0.10858 0.8672-0.069719 0.98577-0.12141 1.118-0.091286 0.5566-0.18475 0.71682-0.27612 0.81546-0.36119 0.9274-0.69592 1.5115-0.27189 0.66766-0.12345 0.39366-0.055062 0.2615-0.029676 0.31007 0.004097 0.17002 0.024975 0.17966 0.072642 0.22518 0.11568 0.20115 0.11261 0.14212 0.24802 0.24139 0.90628 0.69672 0.53088 0.47763 0.44174 0.49174 0.34838 0.48974 0.17919 0.33583 0.16262 0.44512 0.27654 1.0816 0.11201 0.31419 0.11313 0.2224 0.13386 0.21095 0.40401 0.53864 0.49112 0.58478 0.58158 0.62565 2.5493 2.4785 0.89571 0.93888 1.6622 1.8665 0.56093 0.67996 0.55762 0.74441 0.47244 0.72285 0.42817 0.76545 0.28433 0.59784 0.21733 0.54097 0.16672 0.51741 0.12497 0.55038 0.046029 0.33362 0.018579 0.31739-0.019407 0.38742-0.053792 0.29115-0.12502 0.35818-0.19859 0.36679-0.28408 0.38069-0.35239 0.36991-0.30797 0.28119-0.29139 0.24391-0.52361 0.37829-0.4394 0.27285-0.41477 0.22966-0.71256 0.34627-1.3251 0.54951-2.4812 0.94463-1.1573 0.5134-1.1671 0.60171-0.84907 0.50879-0.78666 0.55124-0.54092 0.44602-0.86952 0.81554-0.52643 0.43664-0.64746 0.43624-1.4641 0.75384-0.38206 0.2204-0.18191 0.13019-0.1566-0.20839-0.43656-0.43877-0.38785-0.35413-0.61999-0.52253-0.70102-0.53161-0.76382-0.50573-0.90452-0.50114-0.94336-0.43691-0.62562-0.25328-0.62906-0.22982-0.61638-0.20287-2.4703-0.68534-0.79452-0.24696-1.2761-0.43534-2.3191-0.8706-4.6453-1.8108-0.6968-0.25737-1.1203-0.38315-0.61356-0.18384-0.57717-0.14514-0.56626-0.10537-0.79909-0.080562-1.0088-0.07382-0.55758-0.064235-0.43127-0.076402-0.44436-0.12409-0.12932-0.049086-0.49527-0.25739-0.46181-0.33511-0.44316-0.39597-0.88746-0.87735-0.23013-0.20582-0.47226-0.35371-0.64576-0.33706-0.71858-0.25021-0.77198-0.17726-0.328-0.053944-1.1437-0.12027-0.94706-0.052094-0.58377-0.011037-0.34458 0.00449-0.73732 0.04482-0.78896 0.1176-0.38566 0.091822-0.52958 0.17008-0.51522 0.21145-0.57616 0.2834-0.43704 0.24122-2.2444 1.3504-1.8681 0.97908-0.24066 0.15903-0.27196 0.22905-0.2335 0.24198-0.18284 0.21622-0.51764 0.70704-0.19562 0.1867-0.19763 0.14832-1.0749 0.70746-0.21555 0.13216-0.16785 0.080096-0.2709 0.083603-0.3005 0.037132-0.17822-0.002272-0.34071-0.040002-1.6827-0.39432-1.2852-0.37089-0.50794-0.12712-0.26242-0.049294-0.51484-0.062332-0.27673-0.00835-0.38626 0.017181-0.68828 0.10111-0.40652 0.12455-0.27807 0.15498-0.24356 0.20622-0.12481 0.14256-0.2537 0.40456-0.15581 0.46643-0.038535 0.39486 0.007535 0.32366 0.22535 2.4645 0.005571 0.51971-0.022531 0.23054-0.11358 0.49627-0.18906 0.50517-0.34566 0.70189-0.35739 0.61818-0.24522 0.38144-0.51944 0.72866-1.2836 1.6523-0.34344 0.50636-0.48175 0.80776-0.32132 0.48874-0.24451 0.31908-0.28028 0.32134-0.26503 0.26445-0.28979 0.24806-0.25348 0.18335-0.32424 0.19093-0.42245 0.18668-0.38735 0.11526-0.21254 0.036206-0.19798 0.012252-0.20986-0.013989-0.4853-0.15469-0.26843-0.15954-0.24144-0.19037-0.27736-0.2774-0.2108-0.25572-0.29144-0.42261-0.2386-0.41504-0.16023-0.32298-0.19106-0.44284-0.43919-1.1706-0.1213-0.23586-0.16354-0.2515-0.18469-0.21509-0.14095-0.12251-0.11712-0.077115-0.11516-0.055628-0.15225-0.045095-0.18212-0.014458-0.38536 0.093462-0.18174 0.089555-0.42344 0.2809-3.3812 2.6937-0.74734 0.56675-0.90674 0.64628-0.55352 0.3701-0.99367 0.61764-0.64828 0.36619-0.22229 0.10347-0.058938-5.86e-4 -0.31158-0.072625-1.3107-0.41348-0.46447-0.1175-0.22492-0.038251-0.40679-0.028978-0.42469 0.040937-0.18918 0.062032-0.092118 0.066855-0.024537 0.059957 0.0188 0.058254 0.051225 0.062345 0.48477 0.39787 0.19932 0.21147 0.054744 0.096966 0.023825 0.11279-0.032873 0.11282-0.084821 0.098391-0.12624 0.076712-0.17215 0.053724-0.76277 0.14795-0.98384 0.2825-0.21033 0.042016-0.18007 0.006047-0.13778-0.047389-0.080113-0.10184-0.047426-0.15098-0.29388-3.0249-0.078178-0.49295-0.042167-0.15728-0.036739-0.048692-0.080927 0.089783-0.1351 0.073264-0.11867 0.033025-0.25812 0.020774-0.35665-0.04958-0.21741-0.071733-0.18889-0.090995-0.22085-0.14432-0.2532-0.21714-0.81223-0.89709-0.24264-0.24084-0.35716-0.30148-0.36452-0.23022-0.20924-0.091026-0.1697-0.05019-0.47494-0.038636-1.0449 0.09967-0.50309 0.001858-0.35824-0.01854-2.9934-0.23165-0.46623-0.063033-1.2468-0.23459-0.36751-0.038764-0.24166 0.001709-0.27176 0.041371-0.41445 0.17453-0.22481 0.15096-0.79652 0.65425-0.22363 0.15554-0.32685 0.17823-0.28459 0.10584-0.24461 0.062377-0.38891 0.059221-2.2121 0.15575-0.63873 0.029694-0.74308 0.009969-0.73543-0.058527-0.74673-0.12738-0.40849-0.096002-2.7868-0.7471-0.53364-0.16552-0.83971-0.32102-0.80164-0.37272-0.71438-0.37599-1.1716-0.66798-2.4781-1.4612-2.0555-1.1293-0.75459-0.39407-0.89606-0.41116-2.6304-1.0876-0.35465-0.10266-0.11561-0.017763-0.1685 0.027161-0.003577 0.031345 0.010624 0.12562 0.12155 0.40346 1.6303 5.0779 0.78694 2.3556 0.18012 0.59563 0.1626 0.63194 0.098509 0.47104 0.096058 0.5976 0.091858 1.0532 0.013607 0.73158-0.009836 0.49578-0.075438 1.0925-0.11394 0.87933-0.1276 0.66445-0.19846 0.72499-0.35618 1.1509-0.33692 0.97481-0.74869 1.9844-0.3003 0.76712-0.31414 0.73977-0.30984 0.64019-0.34855 0.58394-0.45519 0.58262-0.47675 0.53288-0.44283 0.52852-0.28842 0.41938-0.87646 1.4365-0.22638 0.43894-0.11843 0.29694-0.12171 0.42236-0.097235 0.54141-0.046677 1.1256-0.15665 0.95039-0.050051 0.43848 3.84e-4 0.4391 0.030058 0.26921 0.11124 0.44814 0.25686 0.60457 0.28549 0.51078 0.89318 1.4308 0.45796 0.77358 0.36305 0.69932 0.47458 1.0963 0.39589 0.78992 0.49842 0.88596 0.84556 1.4005 0.39119 0.71317 0.5501 1.1184 1.095 2.425 0.22574 0.44113 0.20587 0.35608 0.23986 0.36719 0.37619 0.50432 0.36472 0.3888 0.30625 0.24763 0.47336 0.29905 0.51809 0.26673 0.43445 0.18132 0.80938 0.29768 0.42993 0.19511 0.21574 0.12352 0.3028 0.21403 0.29404 0.27067 0.27379 0.34111 0.18241 0.30586 0.10795 0.24304 0.09071 0.29194 0.058803 0.31158 0.035801 0.49039-0.015867 0.32273-0.05627 0.31748-0.070246 0.22593-0.07991 0.17226-0.13012 0.19705-0.097047 0.11454-0.25711 0.24562-0.55444 0.42299-0.18386 0.18601-0.14826 0.19966-0.12608 0.22414-0.14825 0.36872-0.2854 1.0258-0.14835 0.34375-0.20657 0.31039-0.3477 0.37191-0.4144 0.339-0.83268 0.5544-0.3552 0.25558-0.45965 0.41894-0.41901 0.48701-0.36707 0.53288-0.30167 0.5588-0.51645 1.2261-0.21904 0.39978-0.42098 0.61742-0.29215 0.36889-0.38678 0.43922-0.25009 0.25486-0.35039 0.31637-0.2506 0.1967-0.45145 0.30211-0.41704 0.23099-0.98224 0.4527-0.59 0.31087-0.50625 0.3477-0.6779 0.51293-0.46597 0.32653-0.43469 0.27554-0.5018 0.28468-0.77517 0.37305-0.64897 0.24544-0.51904 0.1344-0.65691 0.1059-0.72588 0.08251-0.75572 0.055766-0.77244 0.017496-0.6932-0.021059-0.74128-0.047532-0.49271-0.055699-0.754-0.13229-1.5-0.29533-0.82416-0.098821-0.75972-0.045869-0.62764-0.006837-0.294 0.017308-0.19737 0.086251-0.053856-0.10377-0.21432-0.040882-0.19622 0.005393-0.36133 0.045874-0.42657 0.081227-0.63304 0.14437-1.4736 0.38026-4.1622 1.1723-0.7593 0.19336-0.61008 0.12388-0.72724 0.1071-0.58371 0.042635-0.57872-0.016121-0.55034-0.09433-0.65377-0.2533-0.59079-0.37492-0.31698-0.2618-0.42334-0.3935-0.41639-0.428-0.65801-0.76928-0.36325-0.49309-0.32436-0.51113-0.28446-0.55426-0.21093-0.5718-0.093672-0.39303-0.064697-0.40004-0.058738-0.57179-0.017116-0.57771 0.082758-1.37 0.11819-1.1514 0.15216-0.91465 0.38869-1.8176 0.12767-0.92762 0.05101-0.70194 0.016046-0.50275-0.004651-0.69813-0.051795-0.85649-0.071165-0.59367-0.073388-0.43217-0.17609-0.76156-0.69522-2.4289-0.23811-0.92316-0.18318-0.91613-0.23909-1.471-0.10406-0.551-0.16437-0.73517-0.21095-0.74364-0.17304-0.44201-0.12162-0.16297-0.030474-0.055655 0.005639-0.064733 0.045392-0.061029 0.073639-0.049459 0.21252-0.066165 0.44128-0.067161 0.38386-0.080684 0.36222-0.1285 0.45169-0.22559 0.44144-0.25074 0.9465-0.56878 0.70075-0.45448 0.44281-0.34522 0.4875-0.44987 0.2657-0.29165 0.256-0.32705 0.29488-0.45311 0.27851-0.53859 0.4719-1.0596 0.15992-0.28001 0.18712-0.26597 0.26338-0.289 0.50064-0.4562 0.38576-0.32991 0.71292-0.54562 0.481-0.45629 0.28788-0.30488 0.84977-0.97521 0.33908-0.43022 0.10758-0.20498 0.05353-0.16839 0.024599-0.1815-0.006398-0.217-0.035376-0.18935-0.04976-0.13887-0.16365-0.25868-0.093439-0.10489-0.1483-0.1399-0.35658-0.26104-0.4221-0.22952-0.402-0.16979-0.56685-0.18796-0.38826-0.099505-0.45682-0.090201-0.62064-0.083675-0.53295-0.039468-0.88291-0.022776-2.8628 0.016185-1.9306-0.022363-2.9369-0.10682-1.2425-0.07105-0.53602-0.056429-0.57984-0.10218-0.45341-0.11658-1.6191-0.47789-0.7629-0.13532-0.43393-0.018132-0.634 0.045693-1.3484 0.24073-0.53648 0.080141-0.27099 0.017544-0.30536-0.017501-0.17054-0.0376-0.14496-0.057757-0.1026-0.062916-0.12248-0.10883-0.1097-0.1386-0.10602-0.18998-0.084525-0.21654-0.075264-0.2923-0.055761-0.47946 0.002502-0.43602 0.039111-0.43114 0.28266-1.6683 0.068041-0.54324 0.018313-0.37711-0.011846-0.42236-0.030355-0.30096-0.056176-0.31855-0.069706-0.25427-0.21927-0.49601-0.69279-1.1557-0.34595-0.51441-0.34936-0.46416-0.3102-0.36288-0.27541-0.27976-0.28785-0.24541-0.50207-0.30191-0.32491-0.10932-0.32324-0.061706-0.46061-0.041477-0.62037-0.024478-0.36917 0.007809-0.44168 0.053017-1.2164 0.25217-0.57832 0.04778-0.21892-0.010417-0.52065-0.078342-0.68245-0.18322-1.7867-0.64573-0.80235-0.31275-1.5832-0.68122-1.0766-0.53564-0.82155-0.47032-0.56264-0.36516-0.5126-0.35872-0.77928-0.60741-0.51734-0.49166-0.25372-0.28942-0.27061-0.35619-0.24981-0.37574-0.24179-0.41064-0.21416-0.40484-0.17715-0.38317-0.1225-0.31258-0.11448-0.36473-0.07137-0.31692-0.042154-0.36745 0.020017-0.41072 0.069907-0.28806 0.25402-0.48593 0.3832-0.44502 0.4724-0.42066 1.9875-1.6049 1.0801-0.91921 1.0296-0.91164 1.3816-1.2697 0.55589-0.53131 0.9356-0.94448 0.38657-0.41887 0.68339-0.81594 0.32073-0.43737 0.22695-0.34365 0.36267-0.6377 0.2383-0.51294 0.23654-0.64716 0.1241-0.45383 0.076658-0.38854 0.06683-0.61115 0.010491-0.44167-0.030987-0.63134-0.051171-0.45679-0.070433-0.43965-0.10161-0.43799-0.049466-0.1592-0.15834-0.38112-0.37835-0.59169-0.43487-0.51938-0.87441-0.88695-0.25308-0.30922-0.21885-0.33394-0.11641-0.22496-0.14507-0.35944-0.15592-0.59443-0.061363-0.50172 0.014385-0.40101 0.10704-0.23729-0.080766-0.009574-0.2097 0.038616-0.4486 0.11671-0.82137 0.25858-0.72526 0.26273-0.76411 0.31146-0.77501 0.3578-0.57104 0.2952-0.60085 0.33851-0.62995 0.38347-0.83981 0.55634-0.61397 0.44199-0.67384 0.52725-0.43381 0.37018-1.2698 1.2252-0.53101 0.46035-0.54176 0.36706-0.57669 0.2965-0.46517 0.1728-0.34774 0.090137-0.65955 0.081414-1.8232 0.070348-0.32366 0.032018-0.51836 0.084051-0.40129 0.096538-0.42813 0.13276-0.59864 0.23441-0.50168 0.24053-0.55424 0.32789-0.41158 0.31343-0.36431 0.35624-0.20506 0.24915-0.17076 0.24058-0.63805 1.0644-0.25599 0.39117-0.23799 0.30764-0.24235 0.25518-0.34792 0.2784-0.37882 0.22539-0.64907 0.27901-0.83755 0.26422-0.37022 0.085413-0.50221 0.071432-0.29829 0.005279-0.32278-0.044345-0.33628-0.11584-0.25456-0.1414-0.23043-0.17896-0.21883-0.239-0.16907-0.28193-0.0718-0.19972-0.036236-0.24965 0.071272-0.43526 0.32818-0.91585 0.066946-0.39971-6.56e-4 -0.37355-0.066168-0.36048-0.13931-0.32655-0.1828-0.24099-0.23023-0.20487-0.45358-0.25065-0.33454-0.086549-0.2479-0.032492-0.70322-0.016574-0.49346 0.024305-0.66341 0.058497-1.4959 0.19345-1.6594 0.26253-8.8236 1.5068-8.2573 1.3619-2.9783 0.53085-0.99196 0.20261-0.9888 0.22593-0.98256 0.25865-0.9718 0.30366-0.95462 0.36441-0.9288 0.43561-0.9111 0.49385-0.89882 0.53246-2.6288 1.6251-0.83317 0.46863-0.78428 0.37965-0.70308 0.25493-0.19644 0.049844-0.57813 0.088405-0.17886 0.005359-0.081131-0.03064-4.2381-2.9916-2.6334-1.7967-2.7429-1.8135-7.2728-4.7332-1.7516-1.1693-0.83348-0.57587-0.78836-0.56719-0.72411-0.55506-0.63363-0.53807-0.50771-0.51437-0.33462-0.4816-0.099569-0.43678 0.053111-0.18637 0.1186-0.1826 0.19252-0.18922 0.25962-0.19233 0.29843-0.19004 1.6933-1.067 0.55443-0.33126 0.08894-0.071206 0.016975-0.039207-0.065933-0.03399-0.15644 2.59e-4 -1.021 0.17673-0.41917 0.023922-0.24336-0.022686-0.22834-0.051446-0.17003-0.058466-0.23531-0.11153-0.28169-0.18888-0.22192-0.2062-0.1578-0.19396-0.14777-0.2449-0.065491-0.14502-0.090585-0.2967-0.036101-0.28466 0.050751-0.52096 0.22194-0.63165 0.21296-0.39365 0.26253-0.38855 0.28762-0.36033 1.5942-1.7484 0.43143-0.51284 0.43699-0.58357 0.14649-0.22738 0.23784-0.44111 0.16547-0.42724 0.087641-0.39058 0.021847-0.35103-0.028117-0.32344-0.086678-0.35507-0.12569-0.29453-0.15547-0.22134-0.19145-0.10527 16.441-2.3274 0.064189-0.028783 0.079858 0.065631 0.12989 0.22512 0.41926 0.98004 0.1418 0.27537 0.15113 0.24102 0.15558 0.19586 0.1935 0.17784 0.21417 0.12132 0.28828 0.061303 0.31359-0.017159 0.32127-0.072684 0.33395-0.11288 0.59933-0.25722 0.84413-0.40133 0.62081-0.27373 1.3635-0.52774 0.60592-0.19707 1.4324-0.36506 0.66494-0.18754 1.1605-0.3767 0.52133-0.21797 0.23543-0.12537 0.21146-0.13815 0.19574-0.16586 0.13462-0.1576 0.12339-0.24652 0.032004-0.28382-0.048691-0.3103-0.1101-0.33141-0.15628-0.34856-0.1905-0.36293-1.1881-1.9909-0.69179-1.2627-0.64631-1.3097-0.28167-0.64603-0.15188-0.40163 0.17212-0.036061 0.2744-0.15278 0.27224-0.17773 0.42814-0.32799 0.44235-0.39213 0.66936-0.64485 0.33591-0.28422 0.55908-0.35076 0.60512-0.21775 0.6275-0.046712 0.1429 0.017228 0.42665 0.10745 0.4788 0.19828 0.2882 0.1501 0.39667 0.23544 0.46161 0.304 1.7954 1.2782 0.38431 0.24575 0.39604 0.21346 0.26254 0.11165 0.24653 0.078724 0.22753 0.046704 0.25895 0.018061 0.18612-0.013685 0.54054-0.1777 0.52291-0.34363 0.50724-0.46443 0.49238-0.54936 0.47719-0.60527 0.46056-0.63684 1.2078-1.7581 0.36976-0.45739 0.21703-0.2242 0.37811-0.30202 0.16823-0.10122 0.2982-0.13288 0.31251-0.075722 0.38828 0.005972 0.3686 0.11938 0.32745 0.18994 0.3917 0.31213 0.94086 0.92638 0.2003 0.17433 0.21518 0.15206 0.26809 0.1196 0.13315 0.025357 0.17324 0.001815 0.25734-0.055454 0.3342-0.17659 0.21727-0.19652 0.17922-0.25012 0.12705-0.29486 0.0554-0.22145 0.029085-0.23597-0.003002-0.30037-0.041387-0.28439-0.080603-0.31498-0.15765-0.43953-0.28158-0.6157-0.24746-0.47247-0.63378-1.0884-0.75799-1.1988-1.6497-2.4886-0.21622-0.33241-0.048519-0.1021 0.17021 0.041715 0.38254 0.25218 0.52045 0.38392 1.9413 1.5137 0.63477 0.45791 0.71918 0.44502 0.71757 0.33268 0.58538 0.17102 0.80753 0.086104 0.81491-0.055244 0.36821-0.063132 0.34456-0.082196 0.34576-0.10621 0.48382-0.18766 0.70633-0.34179 0.61708-0.34961 0.61228-0.38212 1.2632-0.86099 0.77777-0.56728 1.0075-0.79411 0.91395-0.76237 0.74792-0.65581 0.67361-0.63708 0.35346-0.36361 0.49141-0.55733 0.35401-0.45555 0.41003-0.61455 0.33616-0.6027 0.22705-0.48601 0.15788-0.41325 0.10899-0.36555 0.10928-0.5372 0.048605-0.51548 4.66e-4 -0.34278-0.024291-0.33686-0.061167-0.42196-0.16363-0.69114-0.19623-0.59865-0.37115-0.88486-0.18865-0.38087-0.47391-0.84372-1.4593-2.2791-0.407-0.69068-0.29794-0.5897-0.28174-0.72814-0.12417-0.44934-0.084285-0.44362-0.11281-1.5276-0.11149-0.81429-0.17244-0.84632-0.53861-2.1776-0.24013-1.1043-0.11939-0.82863-0.061212-1.0073-0.17539-2.2924 0.002827-0.69149 0.091701-0.6094 0.20042-0.49659 0.14961-0.2499 0.63401-0.91875 0.35334-0.43765 0.33472-0.29757 0.43232-0.31947 0.41242-0.35025 0.36257-0.47281 0.25576-0.5449 0.2871-1.0947 0.095208-0.25962 0.08519-0.17244 0.1367-0.20669 0.2077-0.21769 0.16659-0.11587 0.091887-0.041235 0.12151-0.014582-0.36145-0.16725-1.8603-1.092-0.8049-0.53293-0.46395-0.36757-0.3416-0.33509-0.62808-0.80996-0.55186-0.54633-0.26204-0.34123-0.2568-0.40787-0.25354-0.45688-0.50437-1.0088-0.47441-1.0274-0.58262-1.4024-0.48468-1.2625-1.6306-4.3771-1.188-3.4822-0.68444-1.9482-2.5957-7.1722 0.70687-0.29585 4.0325-1.8843 3.8363-1.9146 1.541-0.79083 1.0216-0.56891 0.63772-0.40532 0.41464-0.32248 0.35571-0.3519 0.28054-0.38042 0.1845-0.40983 0.071462-0.40318-0.002455-0.42309-0.050822-0.43694-0.11982-0.67455-0.29916-1.4466-0.11927-0.95775-0.065013-0.37442-0.15288-0.72087-0.35534-1.3376-0.091277-0.44193-0.074979-0.67058-0.026457-0.52726 0.027083-0.49501 0.067488-0.51064 0.17604-1.0409 0.068819-0.51564 0.028715-0.50126-0.082563-1.3725 0.00767-0.32529 0.053046-0.36987 0.096432-0.35792 0.16508-0.42959 0.55575-1.2948 0.13431 0.10491 0.31578 0.057586 0.58783-0.002125 0.70951-0.084206 0.76374-0.1562 0.59931-0.16119 1.1243-0.35095 0.47737-0.18009 0.66811-0.30317 1.0344-0.50456 0.57606-0.23867 1.3387-0.47925 1.2051-0.47788 0.54267-0.18887 0.55597-0.15445 0.52984-0.11482 1.2974-0.23055 1.948-0.21366 0.42682-0.010539 0.35754 0.018278 0.81885 0.089591 0.44702 0.080725 0.39923 0.11233 0.35833 0.131 0.18671 0.086306 1.0508 0.57258 0.33698 0.12672 0.32545 0.025044 0.24416-0.10821 0.16055-0.18136 0.75329-1.4443 0.23632-0.36398 0.33089-0.26769 0.39464-0.11862 0.3463 0.036118 0.34618 0.1226 0.65891 0.30403 0.37995 0.11017 0.18239 0.01657 0.4035-0.028222 1.092-0.16983 0.45706-0.041792 0.2736-0.007069 0.6416 0.031294 0.33796 0.058174 0.71129 0.17044 0.36364 0.057293 0.22886 0.001024 0.38815-0.091403 0.1549-0.078055 0.28375-0.21895 0.12825-0.17363 0.095289-0.30867 0.031191-0.34088 0.059657-0.37621 0.15937-0.40497 0.31523-0.40104 0.15661-0.14793 0.49163-0.39915 0.2649-0.1909 0.55904-0.34222 0.62858-0.31153 1.8414-0.76515 1.6845-0.76361 2.029-0.85848 2.4272-1.0809 0.84525-0.33969 1.4352-0.45055 0.58784-0.22683 0.48372-0.25575 0.2678-0.17953 0.21872-0.17628 0.16861-0.16152 0.17579-0.19844 0.22389-0.3243 0.14104-0.29146 0.072628-0.20572 0.064687-0.25452 0.042203-0.25737 0.027388-0.40583-0.014329-0.44769-0.1101-0.76501-0.18721-0.87462-0.29428-1.2203-0.14196-0.7506-0.056225-0.69674 0.021569-0.69245 0.09144-0.69027 0.16176-0.67495 0.23606-0.64529 0.21068-0.4283 0.23812-0.41702 0.45018-0.69759 0.41471-0.53567 0.45536-0.52144 0.47837-0.51284 0.49028-0.50134 0.53298-0.47814 0.79524-0.56259 0.89377-0.50232 0.95698-0.44964 0.97908-0.39898 0.94766-0.34419 1.7031-0.5495 1.6127-0.18723 1.0937-0.1514 2.496-0.43752 0.76177-0.10851 1.8182-0.21253 1.4525-0.10508 0.34555-0.042818 0.31289-0.079041 0.26862-0.13583 0.21801-0.2138 0.16911-0.27744 0.12725-0.3167 0.09936-0.34993 0.079205-0.37406 0.1189-0.79523 0.078394-0.78685 0.032121-0.80704-0.010317-0.41922-0.066283-0.85041-0.10826-0.86678-0.13945-0.88291-0.17049-0.8924-0.20874-0.87791-0.12056-0.41677-0.38916-1.1771 0.051809 0.007198 0.18379-0.048689 2.9042-0.92036 1.0803-0.31717 1.1408-0.2886 0.86017-0.17481 1.0197-0.15028 1.109-0.085607 0.82853-0.006011 0.96382 0.06041 0.75674 0.10232 0.46957 0.090076 0.82397 0.2216 0.26758 0.094481 0.46294 0.19669 0.38846 0.20368 0.53078 0.35904 0.44951 0.43119" stroke="#bdc660"/>
    </defs>
    <g clip-path="url(#p16e896b443)">
     <use y="280.512" fill="#bdc660" stroke="#bdc660" xlink:href="#me17f3caf2d"/>
    </g>
   </g>
  </g>
 </g>
 <defs>
  <clipPath id="p16e896b443">
   <rect x="7.2" y="7.2" width="303.09" height="266.11"/>
  </clipPath>
 </defs>
</svg>
