<?xml version="1.0" encoding="UTF-8"?>
<!DOCTYPE svg  PUBLIC '-//W3C//DTD SVG 1.1//EN'  'http://www.w3.org/Graphics/SVG/1.1/DTD/svg11.dtd'>
<svg width="238.59pt" height="280.51pt" version="1.1" viewBox="0 0 238.59 280.51" xmlns="http://www.w3.org/2000/svg" xmlns:xlink="http://www.w3.org/1999/xlink">
 <metadata>
  <rdf:RDF xmlns:cc="http://creativecommons.org/ns#" xmlns:dc="http://purl.org/dc/elements/1.1/" xmlns:rdf="http://www.w3.org/1999/02/22-rdf-syntax-ns#">
   <cc:Work>
    <dc:type rdf:resource="http://purl.org/dc/dcmitype/StillImage"/>
    <dc:date>2024-07-04T12:10:46.967268</dc:date>
    <dc:format>image/svg+xml</dc:format>
    <dc:creator>
     <cc:Agent>
      <dc:title>Matplotlib v3.7.1, https://matplotlib.org/</dc:title>
     </cc:Agent>
    </dc:creator>
   </cc:Work>
  </rdf:RDF>
 </metadata>
 <defs>
  <style type="text/css">*{stroke-linejoin: round; stroke-linecap: butt}</style>
 </defs>
 <g id="figure_1">
  <g id="patch_1">
   <path d="m0 280.51h238.59v-280.51h-238.59v280.51z" fill="none"/>
  </g>
  <g id="axes_1">
   <g id="PatchCollection_1">
    <defs>
     <path id="mde27840c69" d="m74.143-260.91 0.6222 0.30824 0.48802 0.34068 1.0327 0.91476 0.43228 0.33018 0.28378 0.17728 0.3088 0.15584 0.22425 0.091495 0.48355 0.14904 0.70013 0.1325 0.43042 0.051291 4.0676 0.32207 1.5991 0.16414 1.3431 0.1704 1.9733 0.33352 1.351 0.30607 0.78051 0.20929 0.66436 0.19803 1.1528 0.39076 1.3788 0.53867 7.0578 3.1333 1.0617 0.49925 0.61765 0.32501 0.54333 0.32013 0.78615 0.54101 0.62937 0.50282 0.54168 0.48228 0.5328 0.5203 0.48981 0.51968 0.87693 1.0362 0.62573 0.82234 0.6572 0.927 2.2843 3.4312 0.73139 1.0242 0.54953 0.69712 0.58202 0.67207 0.63069 0.66355 0.50104 0.48716 0.97965 0.86794 1.1465 0.88854 0.6998 0.47 0.61337 0.35266 0.25264 0.1185 0.27068 0.04898 0.025202 0.022603 0.20269 0.042646 1.3488 0.15706 2.2203 0.1761 2.8995 0.13662 1.3878 0.021318 1.0011-0.009636 1.9298-0.076127 2.0508-0.1591 1.4742-0.16042 2.7026-0.35372 0.79078-0.076805 0.80562-0.035652 0.97006 0.035034 0.96133 0.094963 0.90516 0.15462 0.82335 0.23009 0.50053 0.21343 0.61591 0.40839 0.24516 0.22278 0.31669 0.37395 0.29427 0.47842 0.26504 0.6449 0.11602 0.48337 0.043454 0.52939-0.027342 0.42923-0.057462 0.34398-0.13021 0.48925-0.24723 0.63846-0.31781 0.63882-0.49767 0.84432-1.1768 1.7753-0.62176 0.98038-0.49862 0.90686-0.32376 0.73477-0.15732 0.51828-0.052494 0.2597-0.049897 0.5916 0.082886 0.64859 0.18331 0.439 0.052461 0.08003 0.21613 0.23346 0.25176 0.16186 0.30766 0.11484 0.54407 0.088337 0.70096 0.011479 1.5786-0.073606 0.65771-0.003479 0.60896 0.035209 0.96573 0.14959 2.1455 0.50859 1.2211 0.24438 0.89826 0.13091 0.75872 0.070941 0.95 0.023676 0.57168-0.02857 0.62174-0.066393 0.63767-0.11071 0.63533-0.1852 0.60849-0.26378 0.62975-0.38344 0.3959-0.30451 0.53047-0.50334 0.50225-0.62593 0.56367-0.986 1.1784-2.5336 0.63802-1.235 0.39042-0.67861 0.32806-0.52149 0.6124-0.87024 0.85407-1.0626 0.8468-0.8858 0.98881-0.87922 0.67819-0.53824 0.69479-0.5106 0.86733-0.59042 2.1052-1.3208 0.64019-0.42797 0.93154-0.69618 0.8723-0.73753 0.31261-0.31812 0.22192-0.28783 0.16227-0.27707 0.13132-0.29058 0.3358-0.9205 0.194-0.37933 0.29944-0.37933 0.19729-0.17804 0.19552-0.14041 0.28276-0.15468 0.25488-0.10143 0.31699-0.086324 0.59288-0.068911 0.38523 0.002884 0.85037 0.090189 0.70486 0.13349 0.87917 0.20643 1.0816 0.3081 0.053679 0.011164 0.06082 0.2349-0.032715 0.17557-0.11067 0.34533-0.45852 1.0191-0.52661 0.94-0.83777 1.2526-1.7134 2.2748-1.5901 2.2401-1.4894 2.0161-0.5637 0.91626-0.48597 1.0048-0.4097 1.0967-0.6663 2.1099-0.27528 0.96399-0.23521 1.031-0.93105 5.0275-0.039995 0.4175 2.32e-4 0.42879 0.031079 0.33111 0.062353 0.3389 0.11644 0.41217 0.14614 0.36547 0.17185 0.31526 0.2603 0.35874 0.19708 0.21563 0.30183 0.25735 0.10844 0.074038 0.56659 0.27653 0.70284 0.20166 0.7784 0.14225 5.5499 0.78664 0.97246 0.16962 1.2293 0.28188 1.3559 0.39726 1.3986 0.50154 2.4773 1.0291 0.48665 0.24489 0.34917 0.21228 0.29411 0.21115 0.39029 0.34761 0.34546 0.42207 0.30687 0.55362 0.16918 0.44562 0.10509 0.37352 0.083493 0.3894 0.08263 0.55681 0.07134 1.077-0.020239 1.3384-0.11564 1.4791-2.3413 2.2934-0.94603 0.842-0.78679 0.57888-0.6179 0.37718-0.47587 0.24522-0.52833 0.22477-0.65499 0.21344-0.52401 0.10478-0.30903 0.02289-0.30324-0.006441-0.42884-0.055124-0.54754-0.14205-1.3085-0.50617-0.42619-0.1295-0.44544-0.071513-0.35852 0.005034-0.34831 0.057135-0.5488 0.19171-0.85869 0.48136-0.62991 0.30245-0.34569 0.11921-1.275 0.27758-0.4087 0.17222-0.38248 0.23389-0.39811 0.33765-0.76149 0.89371-0.32241 0.32474-1.217 1.094-0.23142 0.29483-0.15034 0.32292-0.077508 0.37705 0.009765 0.43731 0.092252 0.47823 0.24394 0.72104 0.35352 0.76843 0.40178 0.73531 0.96338 1.5407 1.073 1.579 5.309 7.5317 0.51522 0.76158 0.077247 0.065154 0.1713 0.26893 2.0192 3.5148 0.96577 1.5583 0.92462 1.3419 1.0896 1.3858 0.68896 0.78415 0.71059 0.70486 0.74133 0.59934 0.51646 0.33127 0.39632 0.2166 0.78435 0.34692 0.56908 0.18389 0.88734 0.18536 0.46192 0.048908 0.42835 0.007295 0.57376-0.066252 0.327-0.084627 0.45345-0.16885 0.71328-0.35524 0.78508-0.47087 0.80538-0.53336 2.4356-1.6993 0.78342-0.48984 1.0172-0.57839 1.0003-0.50284 1.1734-0.48689 1.0529-0.3305 0.96943-0.21238 0.64653-0.081474 0.37362-0.017616 0.53867 0.022109 0.45928 0.074592 0.24036 0.066105 0.46257 0.19272 0.50176 0.3092 0.63739 0.53684 0.67166 0.72049 0.33557 0.42598 0.35596 0.52329 0.36425 0.64788 0.27334 0.62226 0.19938 0.58318 0.27239 1.0093 0.12368 0.6047 0.096697 0.73118 0.030632 0.81515-0.03867 0.81102-0.052927 0.46911-0.1337 0.7279-0.26529 0.89759-0.36093 0.8622-0.98496 1.9912-0.24825 0.64514-0.13236 0.48713-0.13614 0.85147-0.25412 2.9821-0.32422 2.467-0.040161 0.72291 0.02219 0.51403 0.07565 0.4807 0.094787 0.35189 0.1722 0.45659 0.21314 0.43448 0.37156 0.59833 0.22202 0.29497 0.43888 0.4772 0.51133 0.42175 0.65917 0.4032 0.77707 0.34644 0.83412 0.26773 1.6318 0.40652 0.84451 0.23783 0.98755 0.35429 0.462 0.20871 0.47561 0.26236 0.42902 0.30509 0.30171 0.27922 0.40706 0.50068 0.20594 0.34272 0.13441 0.29345 0.11008 0.34351 0.0852 0.8127-0.1012 0.93732-0.12849 0.57158-0.16697 0.58696-0.47408 1.3726-0.85632 2.1771-1.2234 2.7462-0.2557 0.67503-0.24436 0.79013-0.27209 1.3-0.087811 0.71473-0.046242 0.72124 0.008142 1.0193 0.052597 0.65349 0.16316 1.0227 0.13356 0.57457 0.18524 0.6584 0.32536 0.96119 0.19743 0.50087 0.44756 0.97243 0.67481 1.2089 0.78992 1.1848 0.97945 1.2533 1.951 2.3158 0.41999 0.5709 0.35819 0.5626 0.30787 0.58533 0.17494 0.42759 0.090476 0.28608 0.10132 0.44372 0.06655 0.50897-0.003729 0.34015-0.056368 0.10958 0.79888 0.8113 1.3361 1.1806 0.20555 0.22358 0.40032 0.50208 0.20842 0.19267 0.1167 0.063284 0.28657 0.044001 0.31672-0.033437 0.62967-0.11327 0.25766 0.004851 0.095803 0.042476 0.065012 0.078082 0.064117 0.23952 0.038214 0.98086 0.081116 0.29437 0.078716 0.11515 0.10807 0.084472 0.13016 0.058652 0.27468 0.055406 0.16554-0.008517-0.068515 2.0904-0.027107 0.22193-0.042724 0.12126-0.081791 0.07534-0.19006 0.03601-1.1392-0.087076 0.035401 0.047919-0.011448 0.10226-0.09295 0.15174-0.10925 0.1249-0.26534 0.23988-0.64595 0.4852-0.42237 0.35747-0.40785 0.41009-0.59973 0.67416-0.53923 0.66527-0.32918 0.45925-0.19766 0.31266-0.28768 0.53753-0.33433 0.78844-0.62573 1.6835-0.43603 1.2801-0.30743 0.78913-0.6821 1.4578-1.0013 1.8595-0.66295 1.5896-0.68081 1.5127-0.34428 0.81859-0.32684 0.93046-0.48507 1.9067-0.44218 1.446-0.42508 1.7824-0.24441 0.82512-0.28623 0.68164-0.64611 1.2946-0.33372 0.71898-0.41185 0.76197-0.17667 0.24907-0.63693 0.6389-0.55096 0.3788-0.61038 0.33627-0.9559 0.4433-1.9054 0.7496-0.88725 0.38682-0.6974 0.37265-0.69154 0.44624-1.0601 0.80877-1.4552 1.2299-0.9504 0.8672-2.7152 2.5689-0.83267 0.73336-0.79837 0.65854-1.0703 0.80897-1.1879 0.82041-0.98386 0.58988-0.98194 0.48982-1.2584 0.51724-1.3657 0.46411-1.9181 0.5531-2.102 0.51227-1.337 0.26203-0.99712 0.16216-3.5878 0.47744-1.7232 0.26873-2.1853 0.41232-1.6419 0.39894-1.4853 0.4591-0.82324 0.31121-0.59898 0.25983-0.67906 0.33276-0.73553 0.41246-0.59352 0.38714-0.41058 0.30569-0.42304 0.36023-0.47216 0.47916-0.38022 0.46843-0.26913 0.37841-0.38895 0.61347-0.29348 0.51779-0.53245 1.0713-0.29627 0.6782-0.51421 1.3353-0.28318 0.82621-2.1035 6.8894-0.97463 3.0089-0.89778 2.5082-1.5812 3.9507-0.77259-0.072513-1.1626-0.050538-1.3963-0.014301-3.9117 0.018874-1.3762-0.05247-1.0268-0.078992-1.4354-0.17696-1.3548-0.23904-1.1614-0.2867-1.8845-0.52338-0.83717-0.18322-1.093-0.14865-1.0967-0.045351-0.8071 0.030675-1.1907 0.12164-1.3254 0.20646-1.4021 0.26654-2.212 0.46057-2.0728 0.48215-1.2104 0.33008-1.2041 0.39805-1.635 0.90037-3.7434 2.1645-0.93626 0.61114-0.60912 0.46241-0.81153 0.72958-0.69099 0.75496-0.49264 0.61339-1.139 1.5131-0.69466 0.82168-0.45147 0.44455-0.59766 0.48075-0.63279 0.41218-0.61751 0.33309-0.58973 0.28403-1.0182 0.45233-2.5011 1.0507-1.806 1.0006-3.5064 2.0677-0.48705 0.25838-0.58522 0.25679-0.49074 0.13926-1.4331 0.24117-1.2199 0.29426-0.41337 0.076118-0.75485 0.082335-1.5256 0.11723-0.8034 0.003383 0.026086-0.10164-0.041111-0.16936-0.21158-0.47378-0.21732-0.35639-0.3679-0.49437-2.4378-2.682-0.95548-1.132-0.55196-0.72891-0.4955-0.75293-0.4417-0.75699-0.62689-1.1624-0.33479-0.71825-0.27286-0.73127-0.21823-0.77234-0.19383-0.83076-0.10461-0.57557-0.066293-0.57477-0.017379-0.56865 0.038849-0.6023 0.15138-1.2372 0.045487-0.72944-0.012496-0.47473-0.063944-0.62346-0.18596-0.92681-0.19456-0.71013-0.23452-0.7145-0.27111-0.71162-0.30688-0.70131-0.53451-1.0228-0.47279-0.80216-0.76686-1.2089-1.0257-1.4801-0.55703-0.72781-0.77777-0.87398-0.70522-0.66148-2.8748-2.4177-3.5531-3.0874-0.49509-0.39743-0.79184-0.58656-1.6965-1.1083-0.39655-0.2796-0.1324-0.13504 0.60991-0.31455 1.7066-0.8005 3.4868-1.5241 0.75605-0.2802 0.47964-0.15081 1.6225-0.46145 2.7047-1.1278 1.3679-0.65316 1.2146-0.69108 0.95698-0.64696 0.6999-0.56096 0.71364-0.64874 2.7419-2.603 0.80066-0.72344 3.5775-3.045 0.50296-0.39929 0.25447-0.17388-0.056026-0.005055-0.10782-0.054109-0.15843-0.11348-0.30966-0.29024-0.54322-0.66337-0.58081-0.8591-0.59374-0.98809-0.66721-1.1984-1.9064-3.5676-0.58894-1.0427-0.59481-0.98048-0.60559-0.90113-1.1028-1.511-0.39653-0.64717-0.364-0.68631-0.27742-0.58592-0.52418-1.262-0.69596-1.9372-0.3661-1.2005-0.16588-0.66533-0.22014-1.1949-0.11983-1.1834-0.01354-1.1527 0.060583-0.76402 0.15635-0.83036 0.37264-1.0496 0.47747-0.97196 1.162-1.9157 0.28798-0.51538 0.30101-0.66677 0.15218-0.4946 0.058779-0.30999 0.031803-0.53175-0.041901-0.52068-0.10492-0.52638-0.14807-0.49002-0.30025-0.72349-0.33697-0.62191-0.38622-0.57898-0.51488-0.64131-0.50291-0.52762-0.55109-0.4927-0.75236-0.5688-1.5503-1.0305-1.9954-1.21-3.5144-2.0717-1.0878-0.6859-1.01-0.7013-0.78501-0.62863-0.66883-0.6549-0.28391-0.34561-0.33477-0.52556-0.21436-0.52098-0.086348-0.42222-0.007619-0.43519 0.073436-0.50052 0.18253-0.63303 0.34606-0.81706 0.51949-0.99861 1.2567-2.311 0.3349-0.78251 0.19494-0.74887 0.038636-0.38157 0.002552-0.34193-0.075577-0.71309-0.21639-0.89235-0.29019-0.8269-0.45564-1.0431-0.55068-1.0822-0.39341-0.71555-2.8626-4.9603-0.93219-1.7683-0.61093-1.2953-0.55734-1.3651-0.22231-0.61587-0.3781-1.2015-0.62464-2.1797-0.82907-2.2354-0.21562-0.63482-0.24728-0.93312-0.12449-0.72486-0.064724-0.65672-0.028485-0.85835 0.01317-0.66456 0.05619-0.87979 0.31094-2.7429 0.013141-0.30364-1.3448-0.40432-1.1024-0.29911-1.129-0.23851-2.2553-0.36642-0.91435-0.1797-0.91148-0.2158-3.0272-0.78709-1.3608-0.31263-1.2451-0.21519-2.0537-0.17335-0.29948-0.046584-0.59844-0.13943-0.59184-0.19264-0.62162-0.26388-0.47568-0.2695-0.46404-0.32737-0.32138-0.26629-0.74176-0.73621-0.84188-1.0125-1.0678-1.4735-1.1343-1.6362-0.98771-1.3016-0.81381-1.0194-1.3627-1.5865-1.9888-2.2057-0.71238-0.86014-0.63429-0.88123-1.7642-2.8854-0.47535-0.89045-0.31106-0.70665-0.51528-1.2794-0.4157-0.91766-0.33276-0.66892-0.52395-0.97011-0.42142-0.71472-0.78061-1.2048-0.48418-0.69131-1.0239-1.3638-7.5122-9.3241 0.047083-0.11383 0.19275-0.25882 1.6961-2.079 0.90352-1.2407 0.50852-0.78993 0.53102-0.91325 0.34747-0.68597 0.20322-0.4707 0.17848-0.49863 0.1252-0.44542 0.09364-0.4663 0.061316-0.57893 0.009763-0.68455-0.038919-0.70888-0.067522-0.65595-0.13428-0.76563-0.25017-0.86167-0.1815-0.47298-0.22109-0.47191-0.48127-0.829-0.30641-0.45131-0.41167-0.54808-0.59279-0.71331-0.89501-0.97817-4.9877-5.1087-0.508-0.56556-0.46522-0.58285-0.43264-0.65017-0.13697-0.25405-0.14061-0.33009-0.11531-0.49962 6.97e-4 -0.33423 0.034-0.19411 0.11097-0.32318 0.22742-0.4017 0.33302-0.4151 0.32999-0.32863 0.45469-0.38187 0.62754-0.44664 0.57969-0.35896 0.5563-0.31048 0.67273-0.34147 1.3409-0.59003 1.1489-0.42882 2.5278-0.87459 0.85055-0.33264 0.62674-0.27894 0.78352-0.41587 0.85318-0.61797 0.47678-0.49801 0.33916-0.44059 0.41721-0.62255 0.53368-0.8594 0.35682-0.64223 0.36114-0.85184 0.15067-0.4516 0.26658-0.99038 0.25274-1.308 0.15337-1.3405 0.039492-0.83871-0.005775-0.81329-0.21445-3.7906-0.057432-2.2365 0.006757-0.99903 0.048685-1.375 0.10878-1.4371 0.12847-1.1161 0.19345-1.2748 0.22466-1.1874 0.455-1.9618 0.41095-1.5084 0.45702-1.4805 0.30117-0.82855 0.1083-0.18715 0.19284-0.053103 0.45527 0.12876 0.41194 0.17651 3.0095 1.4524 0.90838 0.39502 0.91018 0.3575 0.90306 0.30361 0.89003 0.23144 0.87272 0.13743 0.63719 0.030594 0.40869-0.007935 0.98151-0.091094 0.62601-0.114 1.6872-0.4245 1.1894-0.24931 1.2826-0.16645 0.44093-0.080877 4.054-1.0769 0.75995-0.23555 0.45804-0.20107 0.38967-0.20434 1.6489-0.98799 0.53863-0.35803 0.62405-0.52261 0.28386-0.29319 0.30388-0.35045 0.47662-0.6251 0.28109-0.41205 0.5202-0.85016 0.963-1.8548 0.28616-0.5199 0.31072-0.46358 0.39163-0.44444 0.48092-0.40792 0.46477-0.26958 0.50945-0.19839 0.53989-0.12972 0.62796-0.075156 0.73643-0.039089 1.0242 0.013833 0.68272 0.061898 0.5984 0.11296 2.2045-0.32923 0.85397-0.072018 0.47958-0.015232 0.70175 0.023847 0.46142 0.0672 0.28873 0.071065 0.42757 0.14681" stroke="#bdc660"/>
    </defs>
    <g clip-path="url(#p15e4f61f3e)">
     <use y="280.512" fill="#bdc660" stroke="#bdc660" xlink:href="#mde27840c69"/>
    </g>
   </g>
  </g>
 </g>
 <defs>
  <clipPath id="p15e4f61f3e">
   <rect x="7.2" y="7.2" width="224.19" height="266.11"/>
  </clipPath>
 </defs>
</svg>
