<?xml version="1.0" encoding="UTF-8"?>
<!DOCTYPE svg  PUBLIC '-//W3C//DTD SVG 1.1//EN'  'http://www.w3.org/Graphics/SVG/1.1/DTD/svg11.dtd'>
<svg width="371.52pt" height="197.64pt" version="1.1" viewBox="0 0 371.52 197.64" xmlns="http://www.w3.org/2000/svg" xmlns:xlink="http://www.w3.org/1999/xlink">
 <metadata>
  <rdf:RDF xmlns:cc="http://creativecommons.org/ns#" xmlns:dc="http://purl.org/dc/elements/1.1/" xmlns:rdf="http://www.w3.org/1999/02/22-rdf-syntax-ns#">
   <cc:Work>
    <dc:type rdf:resource="http://purl.org/dc/dcmitype/StillImage"/>
    <dc:date>2024-07-04T12:10:50.019641</dc:date>
    <dc:format>image/svg+xml</dc:format>
    <dc:creator>
     <cc:Agent>
      <dc:title>Matplotlib v3.7.1, https://matplotlib.org/</dc:title>
     </cc:Agent>
    </dc:creator>
   </cc:Work>
  </rdf:RDF>
 </metadata>
 <defs>
  <style type="text/css">*{stroke-linejoin: round; stroke-linecap: butt}</style>
 </defs>
 <g id="figure_1">
  <g id="patch_1">
   <path d="m0 197.64h371.52v-197.64h-371.52v197.64z" fill="none"/>
  </g>
  <g id="axes_1">
   <g id="PatchCollection_1">
    <defs>
     <path id="md9047184b1" d="m155.49-181.61 0.1459 0.074472 0.19081-0.025665 0.18083 0.064094 0.19824 0.1309 0.45387 0.46845 0.41265 0.61029 0.33456 0.65356 0.28991 0.7601 0.31912 1.3004 0.16707 1.6384 0.006489 0.62283-0.16303 4.1166-0.023637 1.902 0.14982 1.9198 0.2129 1.5903 0.34766 2.138 0.072241 0.96573-0.010516 1.0452-0.22849 2.4473 0.003474 0.44514 0.046036 0.33567 0.11182 0.32999 0.13904 0.22164 0.27171 0.26402 0.32724 0.20878 0.36079 0.17703 1.162 0.49715 0.73815 0.34755 0.56415 0.31298 0.8675 0.59952 1.2289 1.005 0.36284 0.22571 0.24496 0.11458 0.42358 0.12432 0.21264 0.029937 0.58215-0.003249 0.81858-0.12781 1.1541-0.23124 0.55726-0.067797 0.61067 0.005534 0.58545 0.1284 0.28347 0.12302 0.33217 0.19539 0.36582 0.2659 0.558 0.4689 1.1303 1.099 1.9946 2.1058 0.87762 1.093 2.3248 3.4272 0.42346 0.51932 0.4974 0.49987 0.54919 0.40956 1.0701 0.46523 0.38396 0.10386 1.135 0.21882 2.2248 0.3422 1.2343 0.24834 0.73272 0.18977 0.91363 0.30022 0.84784 0.36224 0.70279 0.37155 0.86568 0.55167 0.50137 0.36698 0.77889 0.63946 0.88056 0.83352 0.81706 0.90103 0.4319 0.53957 0.7117 1.0004 0.95063 1.5464 1.1968 2.1261 0.70065 1.0934 0.70622 0.86615 0.53274 0.46379 0.57104 0.30639 1.022 0.11672 0.60519-0.11733 0.35271-0.12028 0.39244-0.1816 0.61074-0.37984 0.42342-0.32807 0.77132-0.71666 0.53895-0.56826 2.552-2.9391 1.6817-1.8606 1.1869-1.1759 0.97988-0.81332 0.76612-0.48481 0.48664-0.22208 0.6232-0.17396 0.66489-0.026912 0.33774 0.068335 0.29662 0.11951 0.4379 0.29764 0.18496 0.17498 0.37277 0.44162 0.35764 0.53702 0.93242 1.6102 0.47065 0.64094 0.49959 0.49818 0.28536 0.22108 0.54242 0.34938 0.86638 0.44777 2.6512 1.1284 2.8363 1.3067 0.96971 0.4139 1.5737 0.5606 3.4334 1.0808 1.2863 0.48083 0.60343 0.26468 0.5575 0.28637 0.49909 0.3048 0.40559 0.29147 0.65324 0.57213 0.65231 0.70655 0.6511 0.84158 0.55444 0.81495 0.48835 0.78242 0.97333 1.7119 0.55056 1.0451 1.886 3.7686 0.3578 0.65413 0.48973 0.74684 0.29756 0.20191 0.078847-0.055945 0.2991-0.61804 1.1092-2.7833 0.41273-0.87811 0.48525-0.83964 0.45406-0.61772 0.4669-0.48946 0.4967-0.40121 0.7212-0.43737 0.63082-0.28425 0.6799-0.23299 0.82371-0.20628 0.93064-0.16076 1.528-0.13392 1.3483-0.03595 4.4164-0.059082 2.6521 0.03311 0.62507-0.066343 0.69936-0.1817 0.52073-0.24441 0.22937-0.1547 0.42213-0.39971 0.37154-0.50716 0.33607-0.60466 1.2276-2.9098 0.56756-1.1881 0.56042-1.0441 0.67599-1.0603 0.29453-0.38224 0.69946-0.7547 0.78631-0.69692 0.85287-0.65668 0.90349-0.63106 3.8878-2.4965 3.201-2.2056 3.006-2.0182 0.70585-0.51329 0.23762-0.067403 0.96441-0.45196 2.0431-1.118 0.90981-0.5509 0.89326-0.59486 2.7237-2.0302 0.8037-0.48139 2.7559-1.4655 1.0953-0.67761 1.0209-0.69216 1.2828-0.96322 1.0145-0.83574 2.9007-2.6445 1.0558-0.91002 2.5252-2.0268 0.45194-0.3219 0.53083-0.28604 0.47618-0.12094 0.55094 0.066767 0.57243 0.22571 1.3082 0.60704 0.78468 0.24294 0.86795 0.18149 0.93396 0.13194 0.98687 0.092006 2.0958 0.092063 1.096 0.009271 2.2645-0.04479 2.3242-0.13392 1.1613-0.10686 1.5422-0.19177 3.2615-0.52546 0.068782 0.47369 0.32427 1.118 0.48419 1.4925 1.3814 3.8661 0.3474 1.0617 0.2472 0.8761 0.31234 1.3036 0.31197 1.5624 0.26304 1.5298 1.0777 7.1814 0.22197 1.7475 0.10168 1.6545-0.029608 0.9856-0.12981 0.93368-0.20012 0.72216-0.64558 1.2789-0.62533 0.83929-0.68388 0.75522-2.3178 2.2157-0.58885 0.6536-0.35809 0.51752-0.232 0.53319-0.071251 0.37346-0.008786 0.29386 0.034428 0.34082 0.12054 0.49222 0.162 0.42452 0.25417 0.50153 0.36614 0.56651 0.29721 0.38386 0.70617 0.74792 1.7553 1.5079 0.76686 0.7253 0.99241 1.0152 0.90447 0.99795 5.034 5.9555 1.823 2.0009 2.6436 2.7264 0.88001 0.97662 0.54161 0.72176 0.4256 0.73551 0.23878 0.60114 0.13182 0.61582 0.020655 0.32433-0.1328 1.0341-0.37534 1.0511-0.55337 1.0583-0.28804 0.46871-0.55972 0.81978-0.41039 0.53655-0.60663 0.71409-0.64041 0.68776-1.3964 1.3423-2.2554 1.9775-0.85985 0.84528-0.89771 1.0005-0.74614 1.015-0.2647 0.44411-0.21161 0.42812-0.15891 0.427-0.10476 0.42038-0.045955 0.33811-0.006412 0.38084 0.078834 0.56324 0.16534 0.57872 0.7721 2.2092 1.156 3.7743 0.52283 1.4296 0.65727 1.484 0.79244 1.4762 0.58983 0.95008 0.67492 0.97169 0.72067 0.94213 1.3547 1.5951 0.8905 0.96842 2.9392 3.0314 2.4911 2.7733 2.304 2.4143 1.3865 1.5383 0.72839 0.97725 0.52483 0.81715 0.46117 0.82713 0.32717 0.71437 0.18364 0.5273 0.2289 1.3651-0.01743 0.6747-0.053164 0.45793-0.14025 0.70262-0.21094 0.70786-0.40648 0.97427-0.31969 0.59141-0.50639 0.74207-0.85886 0.91121-0.90805 0.70028-0.78934 0.43699-0.45962 0.083334-0.006865-0.55671-0.17564-0.26685-0.17714-0.17771-0.26983-0.19558-0.72766-0.30803-0.50738-0.11383-0.56281-0.065927-0.74722-0.014047-0.79763 0.055628-0.69695 0.094767-0.83874 0.16309-0.84798 0.22534-1.6316 0.62112-1.6214 0.80511-4.8958 2.785-1.2755 0.66144-3.9896 1.9559-1.0138 0.53062-1.2269 0.70092-1.7263 1.0952-1.1016 0.755-1.0681 0.77865-1.497 1.2078-1.4178 1.283-1.1562 1.1235-1.125 1.15-1.0903 1.1647-3.3959 3.7812-1.7098 1.8173-3.0313 3.0373-1.0054 0.97062-1.0213 0.81546-1.1012 0.716-1.007 0.55933-1.6469 0.81773-3.2659 1.4943-1.2318 0.50111-0.77853 0.27298-0.7682 0.21856-0.84658 0.17309-3.0481 0.45297-3.5807 0.34295-1.0059 0.1566-3.1283 0.59802-1.0818 0.23559-0.79282 0.24538-1.6807 0.61968-0.86474 0.23288-0.6668 0.053535-0.36474-0.062889-0.29245-0.1341-0.23098-0.19219-0.26501-0.4623-0.1145-0.59284-0.078264-1.401-0.059808-0.54218-0.20295-0.93409-0.31311-0.97144-0.6615-1.7003-2.2251-5.3429-0.73369-1.52-1.2363-2.0975-0.25914-0.50393-0.2385-0.56883-0.29079-0.8865-0.34521-1.4489-0.18706-1.0437-0.34129-2.4368-0.19369-1.9054-0.13481-2.8345-0.14039-1.1578-0.20719-1.1483-0.24785-0.8362-0.67514-1.6224-0.29809-0.80719-0.20582-0.82178-0.080591-0.68178-0.061166-1.2905-0.10278-0.71263-0.3256-1.2625-0.10438-0.59522 0.024191-0.56457 0.23352-0.83143 0.29497-0.67532 0.59927-0.94172 0.80816-0.8799 0.4319-0.36202 0.53999-0.39587 2.9706-1.9133 1.0748-0.75231 0.78397-0.61922 0.26681-0.25542 0.28235-0.35367 0.21563-0.4564 0.076477-0.71825-0.11058-0.60248-0.38634-0.84809-0.495-0.63172-0.63689-0.51793-0.92916-0.43105-0.75412-0.21274-0.82184-0.10627-0.8766 0.030641-0.75837 0.11128-0.79118 0.17345-1.3232 0.37823-0.91595 0.3044-4.3746 1.5518-1.8043 0.52934-1.2761 0.27474-0.91514 0.13124-1.0566 0.07166-1.442-0.068569-1.2891-0.29522-1.0576-0.56009-0.28166-0.2508-0.22802-0.26423-0.38229-0.64046-0.28136-0.74357-0.28029-1.1598-0.5115-2.8712-0.26754-1.216-0.26465-0.95089-0.454-1.2572-0.53651-1.1511-0.73724-1.288-1.0018-1.4549-0.80424-1.0261-0.81805-0.95706-1.1272-1.2037-0.71124-0.67909-0.60976-0.49768-0.46161-0.31926-0.47748-0.26792-0.31075-0.12405-0.24782-0.034269-0.068888 0.02135-0.055163 0.060004-1.3331 2.6214-1.1132 2.0525-0.92354 1.5619-2.0254 3.2657-1.0327 1.8046-1.2624 2.4178-1.3453 2.8471-0.50188 0.88445-0.25358 0.3568-0.27249 0.31079-1.0128 0.86296-1.6123 1.5681-0.57776 0.60479-1.3981 1.573-0.69715 0.671-0.55066 0.43006-0.5932 0.39396-0.61777 0.36098-1.2121 0.61432-1.0606 0.46072-0.71934-0.15985-0.67352-0.20741-0.78828-0.33383-1.1041-0.66407-1.226-0.94815-0.81419-0.71678-0.75086-0.71202-0.89304-0.9063-1.1922-1.3087-2.7694-3.2765-3.138-3.6236-2.0629-2.5292-0.82765-1.1048-1.0193-1.457-1.2583-2.012-1.0722-2.037-3.6006-7.7436-1.0107-2.3143-0.64533-1.6859-1.4474-4.249-1.0112-2.6497-0.31847-1.015-0.81114-3.0751-0.40196-1.3645-0.32194-0.86-0.33727-0.68312-0.27046-0.42478-0.44986-0.55996-0.42437-0.40586-0.31164-0.24625-0.43526-0.28406-0.4539-0.22958-0.50307-0.17921-0.68235-0.12156-0.68568-0.012592-0.9132 0.09548-1.1473 0.28549-0.46548 0.17261-0.89165 0.4365-0.49518 0.30476-0.61397 0.44306-0.76093 0.69138-0.81857 0.96549-0.36824 0.50123-1.5094 2.3113-1.274 1.7749-0.55354 0.68191-0.50749 0.56273-0.83875 0.80788-0.86848 0.73539-1.0351 0.80098-5.612 3.9902-0.93725 0.69597-0.8058 0.66054-0.6812 0.63697-0.55491 0.59474-0.52508 0.65334-1.147 1.6727-0.8741 1.4319-0.44287 0.79949-1.9752 3.7802-0.75788 1.3186-0.73064 1.0204-0.42559 0.48002-0.40971 0.39656-1.1381 0.88978-1.2014 0.7386-1.0007 0.51685-0.90279 0.41231-1.3814 0.57438-4.1842 1.6044-1.0407 0.46408-0.93062 0.48059-1.6953 1.0096-1.9887 1.2892-0.91119 0.65525-2.0799 1.6259-0.7086 0.46846-1.6783 0.91792-0.88752 0.41035-0.66061 0.27339-1.1892 0.42554-1.2072 0.36334-3.4037 0.92167-1.0057 0.38056-0.98025 0.46766-0.94336 0.53233-3.5227 2.2091-1.017 0.60796-0.77709 0.4073-0.69517 0.2898-0.94355 0.27169-0.45176 0.081422-1.288 0.10052-1.3039-0.075409-1.2659-0.25816-1.1677-0.46187-1.0003-0.70086-0.7366-0.89556-0.58126-1.0743-0.48176-1.1846-0.87557-2.434-0.39222-0.89608-0.47181-0.8235-0.30973-0.43951-0.31879-0.3946-0.57729-0.60423-0.44692-0.39271-0.57783-0.43151-0.59813-0.35934-0.50279-0.18753-0.343 0.052713-0.10972-0.34886-0.12514-0.11668-0.15074 0.093847-0.16927 0.337-0.10762 0.41062-0.081872 0.50994-0.28502 2.6959-0.10924 0.72891-0.20881 1.0313-0.27418 0.90167-0.37115 0.71857-0.5021 0.36614-0.60373-0.16688-0.6926-0.58175-0.76468-0.85146-1.7185-2.0427-0.959-0.99179-1.0411-0.84755-0.58868-0.35536-0.62307-0.27031-0.42054-0.12458-0.61138-0.11676-0.58015-0.058152-0.63281-0.021003-1.0419 0.024711-3.7785 0.2208-1.2869 0.007821-1.3216-0.052931-1.1107-0.11411-0.69181-0.12511-1.2872-0.40685-1.1836-0.62777-0.85966-0.6628-0.78935-0.77313-0.52232-0.58698-0.84913-1.0274-1.0371-1.3998-0.9683-1.4748-1.6285-2.5831-0.68485-1.0412-0.72179-1.0185-0.77529-0.98028-0.96438-1.0558-1.0395-0.99576-1.0994-0.94472-1.147-0.90052-1.3517-0.97949-3.2791-2.2651-1.334-0.99542-0.93778-0.7562-1.4325-1.278-0.78702-0.78088-1.0367-1.1426-0.52722-0.64335-1.7039-2.215-1.0851-1.3575-0.93921-1.1111-0.95691-1.0626-1.1484-1.1612-1.1341-0.97397-1.1752-0.7665-0.48063-0.23052-0.66245-0.24257-0.71479-0.16774-0.42297-0.051917-0.51586-0.01041-0.42402 0.040501-0.77652 0.20193-0.73295 0.32976-2.0652 1.2723-0.69169 0.37031-0.6712 0.28993-0.96689 0.33725-1.4969 0.4218-0.81157 0.17828-0.20758 0.013159-0.11702-0.034174 0.19119-0.41681 0.61173-1.0894 5.1024-8.9741 2.1213-3.876 1.8293-3.5595 0.77145-1.6313 0.69916-1.6114 0.60634-1.5901 0.4866-1.5662 0.33188-1.5379 0.14476-1.4824-0.028994-1.4228-0.1942-1.3336-0.3633-1.2087-0.54873-1.0398-0.76344-0.81669-0.7541-0.44792-0.87748-0.30793-0.97574-0.19541-1.5912-0.13085-1.7087 0.007845-1.7837 0.099607-7.1014 0.63531-1.5583 0.079763-1.1998 0.010421-1.3248-0.072674-1.2665-0.23249-1.0396-0.47181-0.73147-0.72105-0.54175-0.93576-0.41463-1.0773-0.98447-3.4644-0.31956-0.91588-0.57437-1.4806-0.15332-0.60885-0.037778-0.45486 0.037563-0.4628 0.12358-0.53759 0.19191-0.52803 0.20907-0.45055 0.51886-0.91341 1.697-2.6132 0.9104-1.4938 0.82981-1.5232 0.38209-0.79545 0.56068-1.3463 1.1582-3.0737 0.39975-0.90482 5.7786-11.513 1.0546-2.3513 0.37246-0.96259 0.092042-0.3149-0.010282-0.077293 0.2069-0.10347 0.42602-0.039714 1.2518 0.033999 1.5924 0.1721 3.7336 0.5882 1.7936 0.22968 1.1018 0.08321 0.63163 0.016971 1.5995-0.076284 1.5748-0.21658 1.5406-0.31254 3.9228-1.0067 1.3659-0.28617 1.3732-0.18318 3.4514-0.17418 1.6585-0.14369 3.4521-0.40371 3.7309-0.48327 1.2205-0.12118 1.3292-0.031011 0.77139 0.068684 0.74059 0.16069 0.74515 0.28634 1.0136 0.59356 1.1195 0.91195 0.86309 0.87894 0.91156 1.0982 0.86354 1.248 0.41578 0.70634 0.48089 0.94391 0.4364 0.97982 0.47329 1.1709 1.9703 5.1594 0.55938 1.5381 0.35888 1.0779 0.60502 2.1126 0.3256 0.99451 0.39623 0.88081 0.49037 0.71236 0.61245 0.47944 0.71472 0.1929 0.82307-0.027311 0.5278-0.10275 0.45029-0.13238 0.62231-0.24077 0.81373-0.39725 0.88611-0.51437 0.66564-0.42998 1.1776-0.84442 1.1876-0.9626 1.3193-1.1633 3.0379-2.8956 0.9749-1.017 3.2977-3.733 0.89707-0.89079 0.68816-0.61446 1.0174-0.81814 0.95839-0.68384 0.72679-0.46898 1.6203-0.91502 1.3394-0.62749 1.6774-0.63991 0.88943-0.2764 1.2431-0.32071 1.2553-0.25975 1.2605-0.20716 2.6888-0.35974 1.5344-0.2681 6.5867-1.3901 1.7398-0.44128 1.7151-0.5484 1.5823-0.64697 1.5635-0.74387 3.144-1.6047 1.6156-0.77225 1.667-0.68731 0.89185-0.3068 1.8724-0.51291 0.7731-0.16871 1.4032-0.24024 1.2432-0.13823 1.0726-0.061397 1.0201-0.011375 0.98115 0.030216 1.7625 0.15499 1.0453 0.15997 0.66519 0.15156" stroke="#bdc660"/>
    </defs>
    <g clip-path="url(#pb7ec86b659)">
     <use y="197.636138" fill="#bdc660" stroke="#bdc660" xlink:href="#md9047184b1"/>
    </g>
   </g>
  </g>
 </g>
 <defs>
  <clipPath id="pb7ec86b659">
   <rect x="7.2" y="7.2" width="357.12" height="183.24"/>
  </clipPath>
 </defs>
</svg>
