<?xml version="1.0" encoding="UTF-8"?>
<!DOCTYPE svg  PUBLIC '-//W3C//DTD SVG 1.1//EN'  'http://www.w3.org/Graphics/SVG/1.1/DTD/svg11.dtd'>
<svg width="252.64pt" height="280.51pt" version="1.1" viewBox="0 0 252.64 280.51" xmlns="http://www.w3.org/2000/svg">
 <metadata>
  <rdf:RDF xmlns:cc="http://creativecommons.org/ns#" xmlns:dc="http://purl.org/dc/elements/1.1/" xmlns:rdf="http://www.w3.org/1999/02/22-rdf-syntax-ns#">
   <cc:Work>
    <dc:type rdf:resource="http://purl.org/dc/dcmitype/StillImage"/>
    <dc:date>2024-07-04T12:10:45.325445</dc:date>
    <dc:format>image/svg+xml</dc:format>
    <dc:creator>
     <cc:Agent>
      <dc:title>Matplotlib v3.7.1, https://matplotlib.org/</dc:title>
     </cc:Agent>
    </dc:creator>
   </cc:Work>
  </rdf:RDF>
 </metadata>
 <defs>
  <style type="text/css">*{stroke-linejoin: round; stroke-linecap: butt}</style>
 </defs>
 <g id="figure_1">
  <g id="patch_1">
   <path d="m0 280.51h252.64v-280.51h-252.64v280.51z" fill="none"/>
  </g>
  <g id="axes_1">
   <g id="PatchCollection_1" fill="#bdc660" stroke="#bdc660">
    <path d="m180.58 115.03 14.175 6.4074 2.9844 1.2751 2.4865 0.98424 1.4994 0.54533 2.6833 0.84649 1.3248 0.3337 2.4061 0.36061 2.4521-0.10905 1.3264-0.2842 1.2669-0.46506 1.3428-0.75531 0.81357-0.58833 1.5311-1.3596 1.6103-1.7611 2.7035-3.2193 1.0768-1.1611 0.7486-0.67371 0.65428-0.24598 0.51474 3.2173 0.31651 1.2306 0.33374 0.73457 0.33326 0.38635 0.41917 0.25647 0.4874 0.16785 1.5906 0.33867 0.49173 0.16875 0.43183 0.25428 0.35747 0.37302 0.29038 0.46874 0.24147 0.53818 0.55244 1.8582 1.333 6.23 0.81079 3.5198 2.4445 9.3033-0.84056 0.19491-1.1915 0.38539-1.957 0.82151-1.5731 0.84296-1.6005 1.0955-0.78345 0.67488-0.55174 0.56312-0.92062 1.1664-1.346 1.8986-0.8504 1.0842-3.4081 3.8065-0.91761 1.2293-0.76393 1.3547-2.7417 6.5548-1.6945 3.2142-1.2238 2.5919-0.89277 1.4706-0.62367 0.77926-0.7306 0.729-0.82539 0.65429-0.98282 0.61024-1.878 0.88283-3.5635 1.331-0.45962 0.19834-0.11156 0.10322-0.394 0.74389-0.67802 1.0534-3.5207 4.9662-2.6737 3.9875-1.6533 2.7881-2.6834 5.2354-1.3281 2.3784-1.3177 1.9738-2.0128 2.6345-1.9369 2.1894-1.0515 1.0528-1.7759 1.5647-2.1937 1.6778-5.4646 3.7342-2.8128 2.1151-1.1153 0.92236-1.0107 0.9809-0.92012 1.121-2.9194 4.1168-1.0776 1.6375-0.4886 0.93168-0.32238 0.78037-0.24064 0.86923-0.12456 0.8525-0.04182 0.73908 0.02472 0.74344 0.19829 1.2222 0.92216 3.5002 0.14927 1.0345 0.065937 0.89628-0.01869 1.0732-0.15736 1.0243-0.46201 1.3415-0.24419 0.46843-0.78778 1.104-0.9747 0.94164-0.82124 0.57379-0.60236 0.31335-1.1036 0.34978-0.94933 0.075268-0.44479-0.096397-0.13708-0.11139-4.3742-0.65053-3.8223-0.78182-1.1376-0.16846-0.7983 0.040623-0.84872 0.31302-0.49975 0.099127-0.54887-0.002762-1.8067-0.22593-0.18674 0.001403-0.093567 0.056085-1.0478 1.8283-1.5818 2.36-1.3769 1.8375-0.70704 0.83797-0.91453 0.97231-1.5445 1.3928-1.9274 1.4634-2.0959 1.3264-1.5985 0.81943-2.0537 0.78513-2.4585 0.71475-8.8108 2.1509-7.183 1.6551-1.6248 0.26693-2.1291 0.17841-1.8579-0.025742-1.84-0.18556-2.2922-0.45538-1.9173-0.56465-1.9981-0.80949-1.9909-1.0621-1.6492-1.0683-1.1915-0.9164-1.4311-1.2626-2.8552-2.7104-1.9823-1.652-1.3899-0.95955-1.2708-0.72432-1.354-0.62501-0.90056-0.34172-1.3336-0.40514-1.698-0.37188-1.7174-0.25066-1.8641-0.15792-2.5292-0.066855-5.0187 0.091661-3.4808-4.51e-4 -1.6646-0.036215-1.8164-0.11268-1.278-0.15073-1.0716-0.2064-1.089-0.31672-1.0698-0.44001-1.0124-0.58195-1.4189-1.1942-1.2675-1.4748-1.1781-1.6746-2.3986-3.7916-1.5148-2.2555-1.0478-1.4185-1.0924-1.3243-0.81459-0.87646-1.7706-1.5905-1.2398-0.88083-1.3408-0.79834-1.9641-0.99851-5.7795-2.7072-2.1456-0.85223-1.7049-0.41699-1.6647-0.091068-1.5767 0.21076-1.4115 0.46466-1.4727 0.81957-1.6735 1.0555-0.47862 0.13481-0.29474-0.36649-0.063279-1.0061 0.16322-1.1277 0.14507-0.59281 0.49496-1.4413 0.85147-1.8525 1.4519-2.5889 2.2473-3.5001 2.4867-3.5746 3.1238-4.2633 3.6563-4.8349 1.2988-1.8842 1.422-2.3245 1.0879-2.0632 0.71603-1.5651 0.63192-1.582 0.73171-2.2022 0.73551-3.0195 0.43626-2.5508 0.21006-1.5452 0.63203-7.3473 0.32472-1.9003 0.34776-1.3221 0.26027-0.80459 0.7172-1.6627 0.89496-1.4527 1.1259-1.3741 0.73091-0.71674 1.7813-1.3505 1.3368-0.75007 1.4217-0.60122 0.98716-0.31335 2.5513-0.58057 5.0514-0.91545 2.6393-0.53455 8.0692-1.819 3.4648-0.85724 2.3067-0.69267 1.7993-0.68668 1.7952-0.86851 3.7882-1.9769 1.3777-0.60204 0.98141-0.34393 1.0229-0.28809 1.3617-0.27686 1.1787-0.15159 5.4017-0.31932 2.6721-0.36556 1.7072-0.39578 1.1633-0.38698 1.0694-0.4905 0.76914-0.47648 0.4834-0.37635 1.2958-1.4635 0.9757-1.7348 0.81127-1.9455 0.72353-1.9987 0.63048-2.2175 0.67778-3.4409 1.3755-9.6798 0.26078 0.11733 0.58535 0.07109 1.4039-0.023312 2.2748-0.23836 1.6388-0.2625 1.4987-0.31513 1.5847-0.45056 0.89555-0.33742 0.8793-0.41964 1.3285-0.91257 0.76284-0.80861 0.59833-0.89067 0.56812-1.1571 0.96527-2.4545 0.41541-0.8533 0.4986-0.72908 0.6335-0.59169 0.71654-0.42473 0.64665-0.23084 1.0629-0.073436 0.77071 0.14924 2.6394 0.86605 1.1421 0.22393 1.3016 0.15914 0.97801 0.074902 1.6861 0.036791 1.2389-0.056047 1.23-0.13549 1.5708-0.31303 2.9911-0.97392 1.9003-0.52492 6.2202-1.1168 2.1629-0.51835 5.7065-1.5449 1.4505-0.31363 2.0541-0.3067 2.0878-0.13646 1.0658 0.006139 2.218 0.19376 1.3691 0.23556 1.7866 0.41867 2.5652 0.77913 3.8447 1.4287 3.7538 1.5649" clip-path="url(#p09423c9729)"/>
    <path d="m125.59 19.296 9.6026 7.5824 8.1657 6.6428 1.7458 1.3157 1.5869 1.1122 1.8064 1.1368 1.0159 0.56768 1.0326 0.51635 1.4749 0.60772 0.75546 0.23882 1.0767 0.24281 1.5093 0.17732 4.6549 0.23702 1.7843 0.18836 1.7707 0.33366 0.87149 0.2433 0.84825 0.30455 1.3426 0.61781 1.7837 0.92893 4.1026 2.4491 1.6199 1.087 0.62366 0.48938 0.41567 0.41166 0.12315 0.19783-0.017901 0.10745-6.0562 0.43598-2.6852 0.31608-0.82108 0.16019-0.85018 0.23706-0.86148 0.34836-0.75048 0.42642-0.71008 0.5347-2.245 1.9706-0.78164 0.85841-0.31446 0.52868-0.20942 0.6166-0.074878 0.39802-0.070944 1.3933 0.062921 0.51801 0.49943 1.7298-0.36424-0.020177-0.48805 0.45602-0.42735 0.79335-1.1533 3.3699-0.49373 1.1408-0.50365 0.86737-1.622 2.1217-0.86738 1.2363-0.4038 0.74623-0.45663 1.5774-0.20152 0.41498-0.34493 0.38824-1.2813 0.94746-0.33984 0.37541-0.25631 0.43562-0.13896 0.48041 0.02289 0.64906 0.48518 1.7991 0.14889 0.88243 0.041886 0.916-0.12034 0.90613-0.14126 0.44646-0.42849 0.83023-0.53727 0.63556-0.67798 0.58472-0.7887 0.54754-2.1287 1.1836-6.769 3.1172-4.0875 1.7538-2.2738 0.77523-1.0156 0.25476-1.4049 0.22933-1.4122 0.1036-1.3999-0.004671-3.0213-0.16321-3.7024-0.098595-0.67671-0.065822-0.47341-0.10401-0.18937-0.18849-0.009583-0.23175-0.1632-0.34567-0.35174-0.51806-0.48798-0.58047-0.70739-0.69504-0.82099-0.65547-5.6081-3.3968-2.319-1.4827-1.7395-1.3112-2.2098-1.8899-0.95519-0.70613-2.1204-1.253-0.94502-0.67016-0.87467-0.82489-0.73002-0.97948-0.42762-0.85536-0.60812-1.6774-0.6832-2.4358-0.54192-2.3952-0.6493-3.3599-0.27937-1.7501-0.23401-2.3198-0.015575-1.7655 0.11884-1.3985 0.21468-1.3449 0.30609-1.2399 0.55751-1.5749 0.70348-1.4826 0.84895-1.4305 0.98574-1.3792 4.3893-5.26 1.8791-2.397 1.0028-1.3763 2.9899-4.404 1.7701-2.4741 4.7883-6.167 1.5487 0.15666 0.88747-0.088963 0.98944-0.32148 2.7734-1.2456 0.55028-0.31943 0.46503-0.42641 1.7789-2.2559" clip-path="url(#p09423c9729)"/>
   </g>
  </g>
 </g>
 <defs>
  <clipPath id="p09423c9729">
   <rect x="7.2" y="7.2" width="238.24" height="266.11"/>
  </clipPath>
 </defs>
</svg>
