<?xml version="1.0" encoding="UTF-8"?>
<!DOCTYPE svg  PUBLIC '-//W3C//DTD SVG 1.1//EN'  'http://www.w3.org/Graphics/SVG/1.1/DTD/svg11.dtd'>
<svg width="350.03pt" height="280.51pt" version="1.1" viewBox="0 0 350.03 280.51" xmlns="http://www.w3.org/2000/svg">
 <metadata>
  <rdf:RDF xmlns:cc="http://creativecommons.org/ns#" xmlns:dc="http://purl.org/dc/elements/1.1/" xmlns:rdf="http://www.w3.org/1999/02/22-rdf-syntax-ns#">
   <cc:Work>
    <dc:type rdf:resource="http://purl.org/dc/dcmitype/StillImage"/>
    <dc:date>2024-07-04T12:10:46.368021</dc:date>
    <dc:format>image/svg+xml</dc:format>
    <dc:creator>
     <cc:Agent>
      <dc:title>Matplotlib v3.7.1, https://matplotlib.org/</dc:title>
     </cc:Agent>
    </dc:creator>
   </cc:Work>
  </rdf:RDF>
 </metadata>
 <defs>
  <style type="text/css">*{stroke-linejoin: round; stroke-linecap: butt}</style>
 </defs>
 <g id="figure_1">
  <g id="patch_1">
   <path d="m-0 280.51h350.03v-280.51h-350.03v280.51z" fill="none"/>
  </g>
  <g id="axes_1">
   <g id="PatchCollection_1" fill="#bdc660" stroke="#bdc660">
    <path d="m73.73 103.18-0.15696 1.0466-0.28011 1.0285-0.40961 0.9409-0.54628 0.82181-0.8874 0.84619-0.9651 0.59397-0.84978 0.32517-0.47831 0.002392-0.27704-2.2915-0.15584-0.72032-0.3182-0.79258-0.32585-0.5004-0.65112-0.65119-0.54346-0.31458-0.60951-0.1826-0.53611-0.046713-1.4004 0.13282-4.0814 0.93488-1.3879 0.17494-0.80238 0.008589-0.77723-0.070735-3.4885-0.80513-1.7662-0.32141-1.025-0.06247-0.99933 0.03136-1.3 0.20826-0.84424 0.29511-0.72843 0.42733-0.44747 0.40591-0.39293 0.45884-2.4682 3.2583-0.52716 0.49556-0.71581 0.42026-0.85165 0.3153-0.95972 0.23551-1.0461 0.17615-2.4413 0.24499-2.6526 0.1401-8.067 0.27877-2.9644 0.21524 0.034692-0.11845-0.067078-0.28549-0.67981-1.6649-0.34474-1.2623-0.084567-0.61064-0.00692-0.56018 0.089494-0.48236 0.21029-0.37494 0.25078-0.19656 0.31835-0.13307 0.81678-0.13348 2.5531 0.00954 1.0703-0.11111 0.45411-0.16881 0.38125-0.27371 0.32517-0.35332 0.73568-1.0968 0.36398-0.74828 0.67435-2.1445 1.2986-2.715 0.71719-1.6234 0.45469-1.1773 0.53602-1.7026 0.47598-1.3058 0.8345-1.8361 0.69851-1.1938 0.10166-0.32777-0.081235-0.017586 0.49636-1.2968 0.92918-2.9865 0.52452-1.4986 0.54168-1.2019 0.39914-0.7018 0.91726-1.3136 1.0224-1.2108 1.1423-1.1631 2.1836-1.9286 1.2128-1.2492 0.98698-1.2434 0.2859-0.46959 0.25847-0.61971 0.18238-0.68254 0.19807-1.4918 0.0331-1.5841-0.11625-1.6059-0.30635-1.5631-1.125-3.0642-0.16067-0.72544-0.03489-0.52829 0.11301-1.7047 0.10436-0.66132 0.19901-0.70184 1.0631-3.0448 0.29862-1.2251 0.042134-0.42865-0.028591-0.18252 4.801 7.4027 3.7367 5.9562 0.84608 1.1915 1.8683 2.4255 1.6808 2.4023 0.48875 0.78914 0.7079 1.4169 0.60002 1.4146 0.7111 1.3432 1.0886 1.811 1.2063 1.5793 0.53942 0.86205 0.34056 0.81956 0.26152 0.89663 0.75026 3.0544 0.35281 0.95466 0.61711 1.1932 0.75853 1.1669 2.5593 3.5545 0.76392 1.2828 0.46486 0.96979 0.40059 1.0105 0.63516 2.1229 0.3889 2.1342 0.096301 1.044 0.026781 1.1018-0.059443 1.0823" clip-path="url(#pf7c0f6ef99)"/>
    <path d="m92.02 31.117 0.5565 0.031099 0.89739-0.094245 0.72882-0.20898 0.61947-0.31469 0.45471-0.4355-0.15852 0.25577-0.057422 0.26263-0.074985 0.77521-0.012092 1.3917 0.16819 2.1946 0.22129 1.2429 0.39944 1.418 0.44278 1.0353 1.7706 3.0937 0.57105 1.1671 0.372 1.2058 0.10954 1.2827-0.096446 1.3358-0.73294 4.1688-0.15757 1.4066 0.004804 1.4011 0.22304 1.3729 0.42156 1.3502 0.3687 0.86536 0.89818 1.6448 0.98622 1.4601 1.6656 2.1942 2.3874 2.9122 4.304 4.9461 4.6352 5.4382 0.8682 0.88966 0.89293 0.79198 0.92292 0.65932 0.95971 0.48187 1.005 0.24795 1.1704-0.050553 1.2271-0.34343 1.2742-0.57408 1.3119-0.7546 1.3391-0.89378 2.8235-2.1617 4.7523-4.1045 0.32229-0.2082 0.54364-0.5021 0.65831-0.4226 0.35554-0.14135 0.36015-0.063095 0.39052 0.038249 0.38625 0.13138 0.75526 0.44622 2.5049 2.0854 0.70549 0.46261 0.35723 0.15431 0.36274 0.076564 0.37287-0.0185 0.37882-0.096564 0.76947-0.34587 1.171-0.71562 8.5637-5.8617 0.23668 0.015369 0.51543 0.35804 0.83107 0.71394 4.3276 4.0975 1.9845 1.8305 2.0623 1.7995 2.5877 2.055 1.9928 1.3913 1.4966 0.90873 0.71504 0.38622 2.1013 0.94165 1.8443 0.58489 3.5073 0.76786 2.7117 0.42161 1.3946 0.11026 1.9914-0.027712 1.6432-0.23284 1.7252-0.46423 1.3493-0.5008 2.2172-1.0294 2.2329-1.1983 6.7735-3.899 2.2553-1.2379 2.0842-1.0123 2.0454-0.79034 1.9989-0.47718 1.5724-0.11436 1.5957 0.059658 1.5998 0.24618 2.1385 0.65896 2.1256 0.90558 1.8916 0.92908 2.192 1.2863 6.9202 4.628 2.8611 1.7639 2.3632 1.212 1.1495 0.47857 1.1976 0.40208 1.4517 0.32733 1.5334 0.13795 1.0839-0.005797 3.6067-0.27838 2.0709-0.088059 2.1552 0.044858 2.2095 0.2154 1.9826 0.36878 1.173 0.30933 1.2694 0.41906 1.3093 0.52505 1.6862 0.81317 1.632 0.93663 0.87748 0.56574 2.6676 1.9458 1.6206 1.334 1.686 1.5687 1.4842 1.6352 0.84705 1.1324 0.31845 0.59431-0.007909 0.14673 0.58126 0.31961 0.47204 0.67202 0.38162 0.89423 0.26317 1.078 0.085367 0.982-0.066328 1.0658-0.26609 1.1858-0.50238 1.2972-0.72212 1.3393-0.44477 0.69036-1.3268 1.7718-1.3099 1.5571-4.8403 5.3085-0.87324 1.094-0.79706 1.1797-0.64658 1.1952-0.67382 1.9178-0.15409 1.5817 0.10961 0.86427 0.27503 0.90083 0.19884 0.44031 0.44864 0.74354 0.47909 0.5889 0.67378 0.62603 0.85525 0.57348 0.71443 0.33862 0.51624 0.17751 0.69328 0.1562 0.73888 0.068878 1.2726-0.072631 3.0998-0.53659 0.47496-7.88e-4 0.20018 0.1032-0.051539 0.11904-0.27003 0.21619-1.6833 1.0057-5.1411 3.2395-0.90608 0.57698-0.78826 0.58395-0.5845 0.57448-0.36008 0.5544-0.16125 0.56583 0.3023 1.3261 1.0159 1.4622 1.5415 1.5617 1.9238 1.6336 2.1985 1.6852 2.3936 1.7221 2.5305 1.7484 5.318 3.55 22.081 14.371 8.3278 5.5061 7.9955 5.4549 12.867 9.0828-0.1902 0.13893 0.027794 0.32333 0.21574 0.41514 0.35398 0.46647 1.7785 1.9469 0.33296 0.45302 0.21266 0.42634 0.048151 0.39354-0.11499 0.30489-0.23652 0.28184-0.32943 0.2636-0.39943 0.24926-1.0592 0.51995-7.5619 3.0937-16.386 6.9336-8.3035 3.5244-3.7609 1.6634-2.2704 1.1102-2.216 1.2748-4.1545 2.7597-12.252 8.4961-2.2919 1.6469-4.4409 3.3741-1.2729 0.91233-1.2003 0.78169-24.674 14.396-4.7385 2.6008-3.0679 1.4733-1.4947 0.59573-1.1157 0.36262-1.0897 0.26131-0.96698 0.12965-0.93313 0.004623-1.204-0.20104-2.3357-0.67351-1.2085-0.20967-1.2787 0.022737-1.3424 0.23003-1.3927 0.389-1.4327 0.50986-2.9259 1.2551-7.4196 3.6023-6.2448 2.847-13.473 5.7705-9.4793 3.7139-0.27944-0.26582-0.66804-0.86477-2.8709-4.1339-12.116-18.226-6.55-9.5138-2.2336-3.4478-2.3455-4.0269-4.253-7.8433-0.98942-1.9573-0.84555-1.8159-0.95468-2.4342-0.33351-1.1814-0.19935-1.1661-0.036472-0.53815 0.038984-0.97136 0.2768-1.2509 0.50419-1.1206 0.6952-1.072 0.99092-1.2224 3.7005-3.9637 1.4413-1.7984 1.2219-1.807 0.77614-1.4541 0.34754-0.89671 0.22543-0.8995 0.086897-1.1812-0.13893-1.1496-0.12661-0.48951-0.30219-0.8426-1.5685-3.4794-0.68732-1.8001-0.41859-1.3475-0.24282-1.0623 0.0261-0.55101 0.2746-0.75846 0.43086-2.3843-0.047725-0.79022-0.41755-1.172-0.96342-1.8508-3.1962-5.4409-0.8852-1.2839-3.8804-5.2197-0.51843 0.48035-1.5146 0.28406-1.5855-0.087398-1.8054-0.43869-2.512-1.0898-2.1677-1.3769-1.6594-1.3623-2.1904-2.2527-1.4478-1.8-1.3147-1.8841-1.2042-1.9796-1.1522-2.1816-0.55729-1.1868-0.98762-2.3583-0.78395-2.0805-3.6185-10.414-1.8758-5.244-0.61693-1.587-1.5154-3.4132-0.76771-1.5146-0.94779-1.6619-0.83211-1.227-0.8926-1.0621-1.37-1.1594-0.93186-0.5114-0.97518-0.38995-2.7402-0.89812-0.8163-0.34019-0.54404-0.27486-1.2889-0.84406-1.2638-1.0718-1.0392-1.0403-1.0258-1.1492-1.3053-1.6117-2.5123-3.4596-2.5772-3.8933-2.2358-3.5948-4.8321-8.1581-2.2767-3.5583-1.2788-1.8152-3.9402-5.2516-0.98691-1.3941-1.756-2.7221-1.247-2.11-0.81614-1.5147-0.7084-1.5054-1.4044-3.7056-0.8015-1.8603-0.7135-1.1876-0.87411-1.0991-1.4302-1.3645-3.0985-2.6412-1.6329-1.4932-1.5646-1.5883-1.961-2.3008-1.5498-2.087-0.998-1.4613-1.183-1.9902-0.64138-1.534-0.35053-1.5504-0.048964-0.7453 0.264-2.0343 0.88928-1.8924 0.97062-1.3059 1.1884-1.2562 1.6835-1.4575 1.885-1.3631 2.2774-1.3782 2.4856-1.2189 1.9415-0.77494 5.2734-1.7459 4.191-1.2231 2.1519-0.54799 2.1407-0.34569 2.104-0.19062 3.7006-0.19401 1.6055 0.088834 1.5013 0.38208 1.3916 0.68969 1.4952 1.2799 1.1869 1.6838 2.662 5.1022 0.63796 1.0306 0.77458 0.83216 1.1871 0.60247 0.63008 0.12908" clip-path="url(#pf7c0f6ef99)"/>
   </g>
  </g>
 </g>
 <defs>
  <clipPath id="pf7c0f6ef99">
   <rect x="7.2" y="7.2" width="335.63" height="266.11"/>
  </clipPath>
 </defs>
</svg>
