<?xml version="1.0" encoding="UTF-8"?>
<!DOCTYPE svg  PUBLIC '-//W3C//DTD SVG 1.1//EN'  'http://www.w3.org/Graphics/SVG/1.1/DTD/svg11.dtd'>
<svg width="266.92pt" height="280.51pt" version="1.1" viewBox="0 0 266.92 280.51" xmlns="http://www.w3.org/2000/svg" xmlns:xlink="http://www.w3.org/1999/xlink">
 <metadata>
  <rdf:RDF xmlns:cc="http://creativecommons.org/ns#" xmlns:dc="http://purl.org/dc/elements/1.1/" xmlns:rdf="http://www.w3.org/1999/02/22-rdf-syntax-ns#">
   <cc:Work>
    <dc:type rdf:resource="http://purl.org/dc/dcmitype/StillImage"/>
    <dc:date>2024-07-04T12:10:50.658533</dc:date>
    <dc:format>image/svg+xml</dc:format>
    <dc:creator>
     <cc:Agent>
      <dc:title>Matplotlib v3.7.1, https://matplotlib.org/</dc:title>
     </cc:Agent>
    </dc:creator>
   </cc:Work>
  </rdf:RDF>
 </metadata>
 <defs>
  <style type="text/css">*{stroke-linejoin: round; stroke-linecap: butt}</style>
 </defs>
 <g id="figure_1">
  <g id="patch_1">
   <path d="m0 280.51h266.92v-280.51h-266.92v280.51z" fill="none"/>
  </g>
  <g id="axes_1">
   <g id="PatchCollection_1">
    <defs>
     <path id="mf8326b4e2f" d="m175.87-259.53 0.34624-0.011381 0.97872 0.081113 1.1296 0.13829 1.2708 0.19932 1.5346 0.30818 1.6796 0.43586 1.2879 0.40534 1.3218 0.47742 2.0061 0.84701 1.328 0.6442 1.2469 0.67008 1.1522 0.68459 1.9708 1.2934 1.1565 0.81705 0.78191 0.65875 0.37206 0.39303 0.43646 0.62273 0.26228 0.61637 0.11612 0.56899 0.02759 0.4146-0.045054 0.80776-0.14121 0.8048-0.20524 0.78323-1.3757 3.8259-0.3536 1.2934-0.16148 1.2959 0.029882 0.7873 0.095273 0.62854 0.26496 0.96056 0.59675 1.3801 0.61218 1.116 0.54129 0.87824 1.4088 2.0235 0.63833 0.78867 0.67883 0.75232 0.74369 0.72608 1.1566 0.89658 1.2869 0.78241 1.3755 0.67646 1.4279 0.5708 1.4474 0.45733 1.4354 0.32756 1.6931 0.23355 0.92513 0.072923 1.1769 0.028194 2.3738-0.027335 1.0352 0.055239 1.9361 0.20488 1.6084 0.007021 0.76404 0.083291 0.53776 0.16 0.50248 0.24793 0.27929 0.18864 0.72983 0.70105 0.51303 0.78529 0.59074 1.0886 0.51242 0.75974 0.76299 0.79109 0.83381 0.61544 0.7275 0.32398 0.25823 0.0038 0.30458 0.055653 0.2614 0.11876 0.63927 0.40399 0.33993 0.28196 0.37734 0.39039 0.32955 0.44936 0.26866 0.50965 0.38145 1.1098 0.9908 3.505 0.71913 2.3436 2.2052 6.4007 0.32145 1.1897 0.64624 2.9512 0.61049 1.7803 0.42382 1.0092 1.2202 2.4834 0.3212 0.48796 1.0248 1.3651 0.49396 0.83393 0.16835 0.41638 0.16567 0.72302 0.1948 2.3792 0.13904 0.76783 0.42071 1.5553 0.44734 1.2817 0.43257 0.85235 0.52233 0.82432 0.57354 0.78922 0.55285 0.67627 0.53033 0.54236 0.53599 0.46751 0.49215 0.37249 0.38325 0.24679 0.1904 0.074598-0.22917 0.45288-0.63597 1.0081-1.9504 2.9198-1.4334 2.0642-3.232 4.3901-2.1729 3.1248-1.044 1.6237-1.1405 1.9463-0.73006 1.4331-1.1346 2.6373-1.2995 2.8094-4.728 9.3126-1.213 2.7351-1.1458 3.0727-0.83265 2.6472-0.7417 2.8378-0.6448 3.0033-0.28077 1.6478-0.19697 1.4725-0.13279 1.4411-0.053058 1.121 0.02051 1.5109 0.090896 1.0594 0.15598 1.0036 0.32664 1.2669 0.30391 0.77123 0.28077 0.53306 0.36608 0.5265 0.63276 0.62733 0.71532 0.48202 1.0387 0.4508 0.71684 0.18337 2.2744 0.35286 0.68798 0.14681 0.94362 0.27136 2.1243 0.73149 0.94651 0.40235 2.6784 1.3961 0.73243 0.4176 1.4397 0.9483 1.7452 1.3601 0.7868 0.71768 1.7977 1.8354 1.0721 0.97944 0.88234 0.61716 0.94716 0.53492 2.6111 1.3059 1.1399 0.62591 0.67178 0.46985 0.60476 0.53182 0.25981 0.27554 0.41092 0.54075 0.4982 1.0503 0.18907 1.147-0.0493 1.2165-0.21178 1.2375-0.3087 1.2119-0.23164 0.74718-0.33348 0.84761-1.1201 2.3701-0.57208 1.0738-0.37709 0.58851-0.9991 1.3464-2.1062 2.5602-0.85474 1.2268-0.77298 1.314-0.68907 1.3553-1.4362 3.3837-0.99921 2.124-0.50189 1.2075-1.1551 3.0497-0.83677 1.8851-0.37146 0.71109-0.9178 1.5329-0.57403 0.82753-1.201 1.5715-0.35522 0.54895-0.26136 0.50827-0.34848 1.0336-0.77786 3.6069-0.79571 3.0066-0.57095 1.9029-1.1222 3.4022-0.36426 1.3198-0.21621 1.0385-0.5368 3.7307-0.29592 1.5081-0.74696 3.1788-0.43196 2.5603-0.1653 0.60362-0.59263 1.5677-0.39484 0.8734-0.59208 1.0845-0.62969 1.0197-0.89011 1.3207-2.1536 2.927-0.39244 0.68512-0.030853 0.16699 0.048891 0.23205-0.048192 0.6429-0.25587 1.3456-0.46266 1.453-0.69456 1.4273-0.98798 1.3632-1.3877 1.4211-1.3035 1.0363-1.5912 1.0473-1.6865 0.864-1.7701 0.59435-1.264 0.20974-1.2254 0.04996-1.3603-0.098717-1.5847-0.2924-1.4774-0.42017-1.5376-0.56488-3.5909-1.5545-0.83904-0.34044-1.5745-0.55953-1.143-0.32497-3.7896-0.78171-1.2157-0.36465-1.578-0.73613-2.8211-1.6786-1.5349-0.7859-1.4789-0.56881-1.7704-0.47427-1.3111-0.23339-1.084-0.12385-1.0428-0.056987-1.3415 0.036616-1.4724 0.20141-4.0304 0.90341-1.2197 0.1493-1.1529-0.054793-0.99394-0.28706-1.0641-0.5795-1.1626-0.9641-3.025-3.3667-1.8222-2.1802-1.1443-1.6444-0.92865-1.5623-0.55598-1.0573-0.60132-1.2696-0.67122-1.6621-0.65591-1.9054-0.39632-0.85054-0.42237-0.62083-0.45424-0.49442-0.44758-0.40029-0.90647-0.65215-0.75184-0.41636-1.4438-0.60008-1.4922-0.34899-2.4113-0.32638-1.8331-0.18238-0.91847 0.005847-0.70745 0.074725-0.36502 0.10744-2.2825-2.3423-2.1375-2.2786-4.8413-5.4036-4.4761-4.9264-1.4183-1.6218-1.3535-1.7049-0.49303-0.726-0.51582-0.92146-0.35952-0.9032-0.23016-1.0449-0.087022-1.3414 0.050512-1.4701 0.31817-5.5757 0.006783-1.741-0.18164-3.5378-0.14723-3.9643-0.08669-1.0097-0.13945-0.98905-0.54074-2.2642-0.89797-2.9996-0.34627-1.4763-0.15415-1.4673 0.11105-1.5296 0.29728-1.5315 0.58604-2.6146 0.57507-2.9904 0.23668-1.5104 0.072156-1.469-0.20824-1.4044-0.46671-1.12-0.70226-1.0632-0.65502-0.76804-0.7428-0.74122-0.79943-0.70299-0.85487-0.6801-1.6519-1.1798-2.1289-1.3693-6.2908-3.6297-1.9007-1.2469-5.3787-3.6904-1.6156-1.1994-4.6833-3.6185-1.8882-1.3567-1.9071-1.2879-5.5534-3.5909-3.8921-2.3945-1.7488-0.96876-1.0885-0.53862-0.54239-0.23592-0.36106-0.094966-2.0519-3.9721-3.5967-7.47-1.2452-2.2518-1.6097-2.5136-1.1115-1.5704-3.1337-4.0966-3.3302-4.5674-2.4473-3.2037-2.947-3.5566-3.2211-3.6764-0.55198-0.55213-0.53295-0.4242-0.79635-0.47357-0.88987-0.41307-0.946-0.30978-0.77877-0.14576-1.9082-0.18934-0.71125-0.10476-1.7123-0.34669-3.7392-0.86081-1.6489-0.46847-1.6862-0.54194-1.716-0.60828-2.6357-1.0396-2.7577-1.2109-7.7345-3.505-1.2289-0.49547-0.33035-0.06047 1.4417-4.4166 1.0221-3.5294 0.38156-1.7317 0.12107-0.81159 0.073177-0.88955 0.003473-0.73977-0.23542-1.8515-0.49584-1.7982-0.63718-1.7507-2.6592-6.8053-0.51559-1.4104-0.37717-1.384-0.15023-1.3595 0.13559-1.3163 0.35336-1.2958 0.1718-0.47826 0.74965-1.614 0.63655-1.0632 0.72658-1.04 0.7877-1.0115 2.4842-3.0217 7.9753-9.3409 1.1384-1.2904 1.0451-1.1153 2.9148-2.8118 1.6238-1.7958 1.7991-2.2288 0.60068-0.65102 0.97542-0.83726 0.60284-0.41793 1.539-0.8953 1.7115-0.82388 1.8358-0.75845 5.8046-2.0689 6.0038-2.428 1.6013-0.73518 1.2851-0.69572 0.60106-0.40709 0.42145-0.44648-0.030915-0.080105 2.3811 1.0663 1.2919 0.5246 1.719 0.62395 1.6457 0.49974 1.6682 0.38334 1.6745 0.24257 3.2085 0.28598 3.0666 0.35968 1.3997 0.20819 2.9301 0.56718 2.8314 0.21743 0.71029 0.083511 1.0689 0.23014 0.86326 0.32277 0.80329 0.42372 2.4673 1.7236 1.2978 0.81077 0.8268 0.43757 0.84913 0.37029 0.72101 0.24701 0.79694 0.21312 0.80146 0.1375 0.64767 0.04463 0.89604-0.022926 0.67201-0.084398 1.2404-0.31152 2.3515-0.83166 0.91573-0.28509 1.0198-0.2131 0.79035-0.043214 0.91013 0.12425 0.8144 0.25931 1.019 0.48326 1.6421 0.99618 0.8069 0.55721 0.63526 0.51441 0.76512 0.80722 0.63942 0.92993 0.56641 1.2251 0.23473 0.7815 0.35773 1.7935 0.12472 1.0141 0.059246 0.97374 0.021945 1.1358-0.082578 1.8371-0.21216 2.0894-0.5799 3.8775-0.1753 1.413-0.06804 1.5411 0.073138 1.0028 0.33749 1.3805 0.55351 1.1069 0.26673 0.39361 0.62106 0.75916 0.7148 0.72585 1.0292 0.90916 1.0964 0.87205 2.4677 1.7694 6.0287 4.0086 2.4509 1.5075 1.3607 0.71055 1.1665 0.49026 1.1232 0.3257 1.1131 0.12185 0.87604-0.092723 0.8189-0.24017 1.0139-0.47314 2.7372-1.5124 2.6021-1.3445 1.7757-1.0239 2.4803-1.5785 1.9137-1.3544 0.88467-0.70878 1.5047-1.3072 1.4823-1.3893 1.5281-1.5218 1.2625-1.3371 1.5933-1.8589 1.2987-1.7419 0.80744-1.2372 2.3627-4.0614 3.2525-5.0969 1.0832-1.7706 1.5046-2.5473 4.9443-8.6088 2.5308-4.1779" stroke="#bdc660"/>
    </defs>
    <g clip-path="url(#p525b82e37f)">
     <use y="280.512" fill="#bdc660" stroke="#bdc660" xlink:href="#mf8326b4e2f"/>
    </g>
   </g>
  </g>
 </g>
 <defs>
  <clipPath id="p525b82e37f">
   <rect x="7.2" y="7.2" width="252.52" height="266.11"/>
  </clipPath>
 </defs>
</svg>
