<?xml version="1.0" encoding="UTF-8"?>
<!DOCTYPE svg  PUBLIC '-//W3C//DTD SVG 1.1//EN'  'http://www.w3.org/Graphics/SVG/1.1/DTD/svg11.dtd'>
<svg width="297.43pt" height="280.51pt" version="1.1" viewBox="0 0 297.43 280.51" xmlns="http://www.w3.org/2000/svg" xmlns:xlink="http://www.w3.org/1999/xlink">
 <metadata>
  <rdf:RDF xmlns:cc="http://creativecommons.org/ns#" xmlns:dc="http://purl.org/dc/elements/1.1/" xmlns:rdf="http://www.w3.org/1999/02/22-rdf-syntax-ns#">
   <cc:Work>
    <dc:type rdf:resource="http://purl.org/dc/dcmitype/StillImage"/>
    <dc:date>2024-07-04T12:10:48.465382</dc:date>
    <dc:format>image/svg+xml</dc:format>
    <dc:creator>
     <cc:Agent>
      <dc:title>Matplotlib v3.7.1, https://matplotlib.org/</dc:title>
     </cc:Agent>
    </dc:creator>
   </cc:Work>
  </rdf:RDF>
 </metadata>
 <defs>
  <style type="text/css">*{stroke-linejoin: round; stroke-linecap: butt}</style>
 </defs>
 <g id="figure_1">
  <g id="patch_1">
   <path d="m0 280.51h297.43v-280.51h-297.43v280.51z" fill="none"/>
  </g>
  <g id="axes_1">
   <g id="PatchCollection_1">
    <defs>
     <path id="m3051afdc42" d="m130.21-206.98-1.0957 0.11374-2.6137-0.009767-0.83617 0.13665-0.3259 0.13623-0.25673 0.20123-0.21528 0.38384-0.091617 0.4938 0.007084 0.57348 0.086574 0.62513 0.35292 1.2923 0.69595 1.7044 0.06867 0.29227-0.035515 0.12126 3.0348-0.22035 8.2585-0.28539 2.7155-0.14343 2.4992-0.2508 1.0709-0.18033 0.9825-0.2411 0.87186-0.32278 0.7328-0.43023 0.53967-0.50732 2.5268-3.3356 0.40225-0.46972 0.45809-0.41554 0.74572-0.43747 0.86427-0.30211 1.3308-0.2132 1.023-0.032104 1.0493 0.063952 1.8081 0.32903 3.5713 0.82424 0.79568 0.072414 0.82142-0.008792 1.4208-0.17909 4.1782-0.95707 1.4336-0.13597 0.54883 0.047821 0.62398 0.18694 0.55636 0.32205 0.66657 0.66664 0.33358 0.51228 0.32575 0.81138 0.15954 0.73741 0.28361 2.3459-0.080116 0.23472 0.001055 0.78702 0.30003 2.6049 0.49146 2.4349 0.68131 2.6455 0.83909 2.7097 0.97674 2.6682 1.1066 2.5458 1.0456 2.055 2.1984 4.0681 0.88545 2.0754 0.30717 1.0426 0.37064 1.9755 0.3786 4.6029 0.41345 2.7517 0.54742 2.5424 0.77831 2.589 0.53317 1.3371 0.66177 1.3626 0.9764 1.8206 0.98774 1.5416 0.91574 1.1993 0.95766 1.1158 3.1857 3.3338 0.62871 1.0135 0.8064 1.6825 0.51037 0.58923 1.1489 0.73869 1.6039 0.68479 1.949 0.64742 4.616 1.2293 5.2259 1.1928 5.5958 1.1938 34.742 7.2243-0.026719 0.56408 0.24858 1.0875 0.42853 1.3795 0.70362 1.8428 1.6057 3.5619 0.30936 0.8626 0.12962 0.50113 0.14223 1.1769-0.088958 1.2092-0.23078 0.92085-0.35579 0.91799-0.79456 1.4886-1.2509 1.8499-1.4755 1.841-3.7884 4.0577-1.0144 1.2515-0.7117 1.0974-0.51615 1.1472-0.28337 1.2806-0.039909 0.99441 0.037337 0.55092 0.20408 1.1938 0.34143 1.2094 0.97734 2.492 0.86561 1.859 1.0129 2.0037 4.3539 8.0294 2.4012 4.1225 2.2866 3.5296 6.7054 9.7396 12.404 18.658 2.9391 4.232 0.6839 0.8853 0.28607 0.27213-17.102 7.9137-24.662 11.557-8.625 3.9174-2.7749 1.18-2.7025 1.0723-2.6071 0.92121-2.4794 0.71096-2.3079 0.42107-2.0779 0.025472-1.7712-0.50865-1.0683-0.7911-0.9586-1.1896-0.69443-1.2146-2.5664-5.8606-1.2037-2.044-0.81605-1.0375-0.90918-0.98773-1.4921-1.4092-2.1164-1.5766-2.392-1.432-2.5987-1.3214-2.7517-1.2364-2.8624-1.1693-5.9219-2.1752-5.9724-1.9515-2.9067-0.85884-2.7753-0.74132-2.557-0.5754-2.2219-0.34274-1.7395-0.025595-1.0958 0.38365-0.17162 0.18736-0.13405 0.25562-0.11362 0.71219 0.07023 1.2532 0.18774 1.3127-0.19588-0.30531-0.62817-0.55812-0.6324-0.47506-1.2304-0.75096-1.5136-0.75668-1.7137-0.73558-1.8459-0.70035-1.9268-0.65706-3.9598-1.1617-1.9901-0.49308-6.2055-1.3215-2.6391-0.64804-2.6215-0.79651-8.3335-2.7394-1.6957-0.52047-1.1642-0.29384-1.6428-0.24022-1.3716-0.054455-1.3363 0.073869-1.1461 0.16792-0.83649 0.18398-1.4342 0.42224-4.1131 1.4481-2.1984 0.68226-1.4547 0.32045-1.4454 0.16999-1.4728 0.043292-1.4939-0.061565-1.4976-0.14792-1.5071-0.22284-1.511-0.29026-1.8314-0.43801-1.8163-0.5339-1.5269-0.53596-1.4986-0.60972-1.9403-0.93207-1.8424-1.084-1.1033-0.78224-1.0356-0.86228-1.2491-1.2415-1.3596-1.5208-3.7435-4.5745-4.2898-4.9496-1.456-1.4208-0.67826-0.49556-0.43683-0.17974-0.19787 0.075394-0.034986-0.22063-0.1526-0.31961-0.94372-1.5804-2.2215-3.3157-1.4335-2.249-1.5013-2.6181-0.70878-1.384-1.0256-2.2764-2.785-7.0685-1.2567-2.9648-1.0864-2.7423-0.389-1.3456-0.13798-0.68859-0.61399-4.5928-0.84981-4.3218-0.77307-3.4396-0.7536-4.659-0.84603-4.4637-0.5122-2.1637-0.45422-1.6012-0.4729-1.3686-0.51225-1.1763-0.59906-1.1093-0.6031-0.94967-0.90081-1.1942-0.78669-0.84989-1.0861-0.9023-1.1187-0.74002-3.5041-2.0762-1.1071-0.57528-1.0696-0.48257-1.7231-0.62602 0.018918 0.15888-0.2049 0.060112-0.34729 0.005563-1.0152-0.15263-4.7859-1.0945-3.5637-0.95553-2.0573-0.73658-0.95035-0.44-1.2964-0.80136-0.55831-0.45857-0.5966-0.60328-0.90002-1.2018-0.51689-0.91472-0.43526-0.95016-3.5606-9.6715-0.61012-2.1499-0.25681-1.7931-0.042899-1.0633 0.1046-1.855 0.39025-2.2917 1.2307-5.5464 0.29593-1.1593 0.64606-2.0748 0.90226-2.3453 1.1827-2.5382 1.7069-3.084 0.44323-1.0296 0.37236-1.0968 0.58492-2.3208 0.76677-3.7088 0.348-2.0592-0.046697-0.32877 0.13982 0.11361 0.45365 0.098316 0.96822-0.076767 1.1256-0.35674 0.61435-0.31959 0.83759-0.58521 0.99411-0.96038 0.80346-1.126 0.24905-0.47775 0.4712-1.3682 0.16049-1.0447 0.019062-1.0946-0.06725-0.91412-0.15224-1.0551-0.94052-3.5698-0.20224-1.2465-0.025212-0.75824 0.042653-0.7538 0.12704-0.86947 0.24544-0.88654 0.32879-0.7959 0.49832-0.95023 1.0991-1.6701 2.9775-4.1987 0.93844-1.1433 1.0308-1.0004 1.1375-0.94073 2.8687-2.1572 5.5734-3.8085 2.2373-1.7112 1.8113-1.5958 1.0724-1.0737 1.9754-2.233 2.0529-2.6869 1.3439-2.0131 1.3546-2.4258 2.7369-5.3396 1.6862-2.8436 2.7269-4.0669 3.5908-5.065 0.69152-1.0744 0.40185-0.7587 4.8041 1.8374 3.0345 1.3194 1.5982 0.75784 3.1032 1.5895 1.4885 0.82556 2.8173 1.7315 1.3113 0.92582 1.2295 0.9863 0.87107 0.79559 3.3998 3.4341 3.1909 3.0688 1.9182 2.0319 2.4198 2.9457 3.3464 4.4584 1.0993 1.3406 1.241 1.3553 1.5162 1.3601 1.1704 0.875 1.2255 0.78303 1.276 0.67794 1.3261 0.55026 1.0495 0.32701 4.0746 1.0879 3.1954 0.74416 1.5839 0.2766 2.6173 0.3457 7.4737 0.72179 0.083162 0.018003-0.10407 0.33555-0.71508 1.2221-0.85431 1.8797-0.48728 1.3368-0.54874 1.743-0.46548 1.2052-0.73421 1.662-1.3294 2.7794-0.69035 2.1954-0.37261 0.76603-0.75314 1.1229-0.33289 0.36171-0.3903 0.28021-0.46488 0.17281" stroke="#bdc660"/>
    </defs>
    <g clip-path="url(#p99e3d0a453)">
     <use y="280.512" fill="#bdc660" stroke="#bdc660" xlink:href="#m3051afdc42"/>
    </g>
   </g>
  </g>
 </g>
 <defs>
  <clipPath id="p99e3d0a453">
   <rect x="7.2" y="7.2" width="283.03" height="266.11"/>
  </clipPath>
 </defs>
</svg>
