<?xml version="1.0" encoding="UTF-8"?>
<!DOCTYPE svg  PUBLIC '-//W3C//DTD SVG 1.1//EN'  'http://www.w3.org/Graphics/SVG/1.1/DTD/svg11.dtd'>
<svg width="371.52pt" height="234.48pt" version="1.1" viewBox="0 0 371.52 234.48" xmlns="http://www.w3.org/2000/svg" xmlns:xlink="http://www.w3.org/1999/xlink">
 <metadata>
  <rdf:RDF xmlns:cc="http://creativecommons.org/ns#" xmlns:dc="http://purl.org/dc/elements/1.1/" xmlns:rdf="http://www.w3.org/1999/02/22-rdf-syntax-ns#">
   <cc:Work>
    <dc:type rdf:resource="http://purl.org/dc/dcmitype/StillImage"/>
    <dc:date>2024-07-04T12:10:45.959129</dc:date>
    <dc:format>image/svg+xml</dc:format>
    <dc:creator>
     <cc:Agent>
      <dc:title>Matplotlib v3.7.1, https://matplotlib.org/</dc:title>
     </cc:Agent>
    </dc:creator>
   </cc:Work>
  </rdf:RDF>
 </metadata>
 <defs>
  <style type="text/css">*{stroke-linejoin: round; stroke-linecap: butt}</style>
 </defs>
 <g id="figure_1">
  <g id="patch_1">
   <path d="m0 234.48h371.52v-234.48h-371.52v234.48z" fill="none"/>
  </g>
  <g id="axes_1">
   <g id="PatchCollection_1">
    <defs>
     <path id="me8e6d76315" d="m166.48-213.5 2.6389 5.0819 0.68399 1.2218 0.66922 1.1087 0.36588 0.56155 0.54111 0.76262 0.568 0.69903 0.54534 0.54896 0.44996 0.33948 0.3295 0.17212 0.28571 0.10334 0.95959 0.19425 0.46916 0.12951 0.26435 0.10174 0.42286 0.19888 0.42749 0.25041 0.95558 0.61563 0.55154 0.31451 1.135 0.54486 0.9424 0.38127 0.75272 0.26046 0.64627 0.1623 0.52155 0.051822 0.38256-0.036995 0.26576-0.083618 0.15275-0.078933 0.51052-0.50998 0.39227-0.75717 0.18227-0.50229 0.15967-0.52992 0.49647-1.8676 0.14877-0.33583 0.155-0.02891 0.19396-0.054631 0.67819-0.42776 0.59683-0.33213 0.57202-0.1883 0.63897-0.085409 0.67462 0.036906 0.69092 0.16899 0.8695 0.34537 2.3422 1.0971 0.79595 0.40465 0.54336 0.32353 0.50242 0.35696 0.71753 0.64454 0.33012 0.35519 0.44271 0.53669 0.42464 0.57484 0.61387 0.91405 0.97206 1.5365 0.47745 0.67864 0.51367 0.59768 0.57501 0.48397 0.41026 0.23584 0.43355 0.17832 0.44133 0.12835 0.43426 0.083643 0.5179 0.061084 0.73608 0.045666 0.67458 0.014676 1.4106 1.83e-4 2.0338-0.037146 1.025 0.027093 0.75544 0.063997 0.69598 0.10158 0.68812 0.15071 0.54046 0.16418 0.36496 0.13848 0.54871 0.25329 0.515 0.29353 0.56325 0.38886 0.80335 0.66947 1.1571 1.0984 0.57994 0.51166 0.48284 0.37138 0.66836 0.43291 0.80683 0.43043 0.80973 0.32805 0.77701 0.22883 0.92892 0.18455 0.74567 0.075201 0.75291 0.010432 0.86281-0.072299 0.65847-0.10818 2.9109-0.67075 3.5706-0.87167 0.99631-0.28966 0.83227-0.31818 0.64779-0.33208 0.84936-0.53752 0.78108-0.59306 0.62593-0.56444 0.37062-0.39403 0.28653-0.33959 0.55799-0.74464 0.64101-0.95638 0.42463-0.74094 0.037918-0.022729 0.075679-5.68e-4 0.73216 0.091558 0.22243 0.001119 0.20253-0.040172 0.34395-0.12685 0.32351-0.016462 0.461 0.068268 1.549 0.31684 1.7727 0.26363 0.018555 0.13064-0.13828 0.81821-0.30467 1.4737-0.23241 0.92217-0.14795 0.4358-0.17611 0.40908-0.67824 1.2254-0.46995 1.0085-0.35851 0.9319-0.25671 0.82439-0.11759 0.46062-0.48902 2.2038-0.15506 0.9106-0.041564 0.73707 0.017045 0.42248 0.10204 0.71246 0.24243 0.85426 1.4148 3.8429 0.17295 0.37754 0.20538 0.36346 0.35762 0.47752 0.23706 0.23971 0.22184 0.18221 0.51513 0.31842 0.37761 0.17483 0.81746 0.29268 1.416 0.37967 1.9016 0.4349 0.40339 0.060647 0.13799-0.00221 0.081414-0.023886-0.007517-0.06313 0.68468 0.24875 0.42501 0.19174 0.43991 0.22858 1.3923 0.82495 0.4445 0.29404 0.43155 0.35853 0.31259 0.3377 0.35793 0.47451 0.23964 0.37735 0.23803 0.44077 0.20354 0.4674 0.18791 0.54381 0.18048 0.63624 0.20352 0.85974 0.33616 1.7736 0.29944 1.8512 0.30718 1.3667 0.33767 1.7172 0.24396 1.8249 0.054824 0.27361 0.15457 0.53466 0.43169 1.0896 0.49933 1.178 1.1066 2.8086 0.40753 0.90453 0.28163 0.54993 0.59654 1.0403 0.56961 0.89362 0.8827 1.3175 0.37498 0.62798 0.060636 0.127 0.013901 0.087664 0.078622-0.029957 0.17357 0.071421 0.2695 0.19691 0.57853 0.56453 1.7045 1.9667 1.4875 1.8177 0.54021 0.60428 0.49631 0.4933 0.41147 0.34262 0.43839 0.31082 0.73207 0.43074 0.77096 0.37035 0.59546 0.24227 0.60669 0.21296 0.72171 0.21214 0.72768 0.17404 0.60039 0.11533 0.59883 0.088544 0.59504 0.058777 0.5936 0.024462 0.58522-0.017201 0.57433-0.067543 0.578-0.12733 0.87351-0.27109 1.6343-0.57537 0.56985-0.16778 0.33238-0.073102 0.45538-0.066721 0.53097-0.029351 0.54501 0.021637 0.65275 0.095451 0.46259 0.11675 0.67379 0.20681 3.3113 1.0885 1.0416 0.31649 1.0486 0.25749 2.4657 0.52511 0.79074 0.19592 1.5734 0.46159 0.76561 0.26108 0.73347 0.27828 0.68091 0.29228 0.6014 0.30066 0.48888 0.29839 0.25128 0.18876 0.2496 0.22176 0.077831 0.12131-0.074598-0.5216-0.027906-0.49796 0.045148-0.28298 0.053263-0.10157 0.068194-0.074447 0.43539-0.15244 0.69118 0.01017 0.88286 0.13619 1.016 0.22863 1.1027 0.29456 1.155 0.34126 2.3731 0.77543 2.353 0.8643 1.1374 0.46461 1.0934 0.49127 1.0326 0.52507 0.95047 0.569 0.84093 0.62647 0.59286 0.55992 0.36126 0.39247 0.32425 0.41225 0.47828 0.81218 1.0198 2.3287 0.27593 0.48263 0.3809 0.47266 0.4245 0.31434 0.70378 0.20211 0.82564-0.010122 0.91703-0.16731 0.98518-0.2825 1.0359-0.36604 1.0738-0.42606 1.1026-0.46885 3.4271-1.5566 9.7992-4.592 6.7953-3.1445 3.8559-1.5107 0.033128 0.22858 0.2374 0.47297 0.48549 0.84604 1.7164 2.8523 0.68493 1.2192 0.47617 0.9266 0.42175 0.91423 0.35349 0.89265 0.25228 0.79781 0.16586 0.76682 0.061754 0.73011-0.097489 0.83676-0.32836 0.78785-0.52229 0.7188-0.42644 0.4399-0.47958 0.41704-0.56354 0.42474-0.60447 0.40403-1.0602 0.62454-0.89242 0.46942-4.0793 1.949-1.8449 0.93451-0.78899 0.44727-0.74443 0.46723-0.53323 0.37615-0.49092 0.39684-0.65725 0.67173-0.49301 0.75339-0.32028 0.9447-0.1261 1.0384 0.015908 1.1073 0.11841 1.1574 0.19137 1.1936 0.24254 1.2197 0.27781 1.2387 0.94691 3.7897 3.1105 11.942 2.6354 10.398-3.2249 0.36099-5.3133 0.53704-3.8447 0.34987-3.6789 0.28537-0.85396 0.093047-0.7169 0.14879-0.71124 0.21583-0.6996 0.27534-2.5047 1.2274-0.50695 0.20882-1.0606 0.37618-1.1077 0.33372-1.1416 0.30361-4.3444 1.0267-1.8598 0.47715-0.81052 0.23328-0.79432 0.24761-1.145 0.39667-1.0337 0.41476-1.0022 0.49588-0.86813 0.58562-0.68119 0.71671-0.43754 0.84038-0.2728 0.96727-0.11521 0.67403-0.083043 0.70626-0.10975 1.5788-0.053228 1.699-0.039402 4.3684-0.038076 1.2045-0.080807 1.1655-0.14668 1.1049-0.2424 1.0153-0.3768 0.88722-0.56077 0.70883-0.76447 0.48039-0.95027 0.30599-1.0956 0.17833-1.2051 0.090445-1.2798 0.037384-2.3852 0.031118-2.4045 0.083947-0.81445 0.067926-0.28661 0.10459-0.32082 0.14765-0.70661 0.18365-0.92103 0.14329-1.0128 0.039849-1.0163-0.11696-0.61033-0.17738-0.95546-0.51524-0.85701-0.74087-0.77458-0.906-0.709-1.0212-0.65819-1.0987-0.61936-1.1494-0.58993-1.1815-0.56774-1.2012-1.0899-2.4316-2.6152-6.0839-1.0609-2.3674-0.54828-1.1441-0.56813-1.1006-0.59621-1.0379-0.63502-0.94881-0.60196-0.7359-0.64569-0.6119-0.6947-0.45214-0.62506-0.23468-0.40606-0.087914-0.43925-0.050752-0.51778-0.006152-0.37896 0.038036-0.30973 0.06528-0.32437 0.10644-0.36263 0.16512-0.33297 0.19222-0.37122 0.25646-0.34088 0.27035-0.71327 0.64759-2.2839 2.2686-0.7711 0.72927-0.76655 0.66592-1.7778 1.3894-0.39448 0.42071-0.30309 0.47442-0.2178 0.63739-0.092308 0.66251-0.008612 0.68387 0.052442 0.67595 0.11332 0.69262 0.072077 0.27884 0.20696 0.53136 0.31035 0.39522 0.1639 0.11018 0.1925 0.082568 0.28651 0.065296 0.42789 0.009539 0.45816-0.068854 0.63228-0.18539 0.39723-0.15978 1.0114-0.50724 0.6118-0.35403 1.1674-0.735 0.28239-0.16339 0.28248-0.1217 0.23702-0.019191 0.12011 0.068206 0.092558 0.16888 0.041612 0.23256 0.007899 0.27938-0.072905 0.81842-0.11973 0.68525-0.31096 1.4629-0.15597 1.0033-0.07287 0.71394-0.035837 1.0787 0.03898 0.79693 0.10783 0.77982 0.077001 0.3549 0.23451 0.83531 0.28276 0.82477 0.81298 2.1793 0.2005 0.69538 0.071243 0.38702 0.016497 0.55524-0.087677 0.42223-0.042794 0.080963-0.14126 0.1471-0.19532 0.081702-0.25086-0.003041-0.26811-0.056635-1.1055-0.32311-1.5031-0.55834-0.50527-0.15512-0.51179-0.08636-0.61091 0.044914-0.57261 0.13519-0.55912 0.10326-0.56877-0.055909-0.25079-0.10358-0.31487-0.20375-0.51258-0.47415-0.51364-0.60713-0.50461-0.68476-0.8987-1.3115-0.41156-0.54128-0.13411-0.13289-0.096207-0.062442-0.066827 0.019277-0.32571-0.038546-0.70393-0.15715-0.80807-0.22592-0.3976-0.13506-0.6146-0.26136-1.0521-0.5815-0.15247-0.057056-0.19443-0.022953-0.11105 0.028478-0.10188 0.058264-0.10539 0.094726-0.47454 0.60891-0.17186 0.14078-0.12742 0.061354-0.29838 0.053698-1.0491 0.008504-0.38002 0.021667-0.20629 0.03756-0.28363 0.12117-0.21451 0.19548-0.17597 0.2624-0.13492 0.28418-0.21556 0.66831-0.60671 2.742-0.13441 1.5158-0.092015 0.55509-0.155 0.62741-0.10177 0.32307-0.23844 0.61387-0.18941 0.40891-0.52557 1.0195 0.22796 1.5663 0.033568 0.48015-0.034687 0.57736-0.10561 0.64959-0.20542 0.68079-0.36333 0.84019-1.2488 2.5427-0.40095 0.88244-0.15006 0.39748-0.21104 0.74332-0.09832 0.67594-0.010993 0.3325 0.013965 0.31114 0.07789 0.56688 0.11164 0.47939 0.11127 0.34644 0.14065 0.34395 0.34103 0.6442 0.7953 1.2078 0.32023 0.55573 0.1053 0.25766 0.064282 0.2638 0.012388 0.30292-0.044601 0.31168-0.094164 0.31758-0.14276 0.33148-0.18104 0.33396-0.46182 0.68779-0.27046 0.34822-0.53334 0.61738-0.84902 0.86757-0.3561 0.14517-2.4207 1.1556-2.1909 1.1353-1.7863 1.0026-3.3459 1.9688-0.64708 0.35645-1.053 0.5242-0.53223 0.23444-0.76803 0.29702-1.1217 0.32713-0.76048 0.1244-0.96564-1.71e-4 -0.8185-0.17448-0.73388-0.28202-0.73098-0.38191-1.8451-1.1914-0.63206-0.38463-0.77641-0.43428-1.414-0.6964-1.0396-0.44755-1.1741-0.47337-1.4946-0.55384-1.2829-0.41156-1.0428-0.29815-2.236-0.56706-0.29744-0.058467-0.68127-0.077822-0.93614-0.018223-0.77334 0.047567-2.0402 0.2424-0.85788 0.028809-1.0494-0.041222-2.2092-0.15166-0.68549-0.003787-0.83678 0.059175-0.529 0.087176-0.57294 0.15646-0.99044 0.4616-0.80621 0.53598-0.73656 0.59643-0.98916 0.93232-1.2076 1.2995-2.4712 2.8785-4.6331 5.2289-1.7861 2.0759-0.41801 0.44824-0.086489 0.07342-0.083763 0.023705-0.12964 0.011011-0.25293-0.06195-0.70032-0.26626-0.71522-0.34112-0.63755-0.35511-0.74148-0.48063-0.49654-0.37189-0.44323-0.37493-0.84092-0.84344-0.45788-0.52507-2.673-3.281-0.75394-0.87616-1.0496-1.1611-1.0598-1.0944-1.0374-0.98245-0.91677-0.78814-0.65652-0.51358-0.66356-0.47058-0.88702-0.5547-0.85516-0.48112-2.9542-1.5809-1.2419-0.73021-1.4453-0.936-0.91826-0.64585-0.89897-0.67355-0.79174-0.62874-1.3331-1.1143-2.5895-2.2234-0.88939-0.74068-1.2177-0.97383-0.96502-0.71456-0.70663-0.47838-0.89085-0.53963-1.1924-0.60862-0.54675-0.23799-1.1899-0.43036-1.03-0.28117-1.0742-0.20891-0.85717-0.10859-1.0337-0.071477-0.78724-0.022418-1.6676 0.006694-4.3038 0.12458-2.3063 0.1181-6.7576 0.43585-1.3441 0.053391-0.9799-0.008466-0.84266-0.091701-0.57532-0.17416-0.27087-0.1381-0.57171-0.43417-0.50126-0.54872-0.5395-0.77694-0.24147-0.4174-0.28747-0.55998-0.27283-0.59159-0.53006-1.2871-1.4877-4.0038-0.78627-1.9432-0.70299-1.566-1.4842-3.0617-0.68918-1.5125-0.7532-1.8414-0.17816-0.48827-0.15311-0.46982-0.015628-0.10308-0.4748-0.21467-1.4181-0.79083-2.4454-1.4283-0.98791-0.61035-0.43163-0.29018-0.76115-0.56377-0.66313-0.55564-0.6076-0.56179-1.688-1.6801-0.45636-0.41071-0.46048-0.37938-0.5268-0.39833-0.77216-0.55651-0.77338-0.51243-0.82856-0.47143-0.78756-0.36742-0.48486-0.17462-0.68954-0.12796-0.55498 0.026258-0.34518 0.15218-0.081428 0.17686 0.049855 0.19218 0.164 0.18909 0.48088 0.42213 0.11291 0.19636-0.022412 0.28113-0.12549 0.19609-0.33424 0.31243-0.31673 0.23002-0.7025 0.43448-0.56088 0.28306-0.47052 0.17319-0.44632 0.090446-0.64254-0.009078-0.66352-0.14088-0.66169-0.2427-0.63736-0.31926-0.5899-0.3741-1.035-0.77457-0.36838-0.22308-0.55962-0.24351-0.77563-0.2178-0.52552-0.096405-0.5674-0.060982-0.54882-0.007569-0.59335 0.068273-0.42051 0.11921-0.34117 0.15964-0.36398 0.24322-0.26088 0.22174-0.29064 0.29496-0.36382 0.45774-0.31226 0.48192-0.27751 0.50192-0.31901 0.74415-0.24376 0.74504-0.16934 0.66587-0.44844 2.1775-0.4005 1.2318-0.32225 0.76586-0.36769 0.77423-0.48371 0.93327-1.71 3.0827-1.1211 2.1337-0.30408 0.66949-0.20584 0.52323-0.075143 0.24821-0.036204-0.076006-0.099778-0.089609-0.1639-0.085793-0.35551-0.10562-0.45176-0.062953-0.69254-0.009376-0.71018 0.062381-0.67059 0.10578-1.2917 0.28532-0.87721 0.25366-1.1411 0.40962-1.739 0.73396-2.7702 1.2481-1.4406 0.55448-1.4075 0.44944-0.65066 0.17514-1.1127 0.23288-0.80132 0.078935-0.60779 6.33e-4 -0.58743-0.044884-0.75884-0.12532-0.68668-0.18825-0.37439-0.14561-0.33484-0.18263-0.33205-0.26944-0.22377-0.24894-0.27461-0.40069-0.43233-0.77312-0.32425-0.51502-0.22531-0.30079-0.2582-0.24562-0.14276-0.081957-0.19481-0.057462-0.21014-0.011292-0.18562 0.023757-0.20303 0.059035-0.17093 0.076454-0.36229 0.24545-0.3529 0.33501-0.70162 0.79081-0.4876 0.59693-2.8424 3.6798-1.6353 2.1812-1.8892 2.3312-0.4536 0.63334-0.33633 0.62138-0.16854 0.6344 0.053997 0.63908 0.18006 0.49747 0.26484 0.44394 0.19602 0.22252 0.17294 0.1038-0.1648 0.082622-0.35267-0.010467-0.48867-0.11725-0.87372-0.2991-0.88723-0.37012-1.5954-0.86355-0.60516-0.29114-0.61572-0.23798-0.6211-0.16059-0.57053-0.067702-1.1203-0.042872-0.53785-0.056083-0.51427-0.13361-0.53342-0.27264-0.50272-0.38296-0.47702-0.46383-0.45405-0.52179-0.43168-0.5619-0.40775-0.58782-0.37998-0.60203-0.34585-0.60591-0.30249-0.59981-0.24652-0.58312-0.13513-0.40705-0.089876-0.38556-0.097045-1.0956-0.071517-0.23795-0.10892-0.1485-0.1523-0.094302-0.26651-0.030954-0.26515 0.048834-0.29085 0.099627-1.0407 0.45631-0.63298 0.19814-2.5333 0.57411-2.9737 0.72004-0.88806 0.14321-0.734 0.054464-0.6065-8.5e-5 -0.44872-0.029032-0.74603-0.11337-0.2636-0.066509-0.39259-0.13847-0.26-0.131-0.23545-0.18625-0.045253-0.16276 0.15703-0.27809 2.651-5.5056 1.294-2.6297 1.309-2.5556 0.54087-1.0057 0.9904-1.7236 0.62851-1.0053 0.41588-0.62875 0.74355-1.0334 0.49362-0.6075 0.5241-0.56941 0.71133-0.65683 0.75874-0.59708 0.79435-0.54681 0.8202-0.50331 1.0079-0.55407 1.0189-0.50577 1.0166-0.462 1.0012-0.41953 1.7782-0.67491 0.7695-0.33574 0.46982-0.26199 0.79866-0.54635 0.80711-0.64245 0.80238-0.71121 0.76814-0.75555 0.71636-0.79189 0.64269-0.82339 0.51197-0.7852 0.45013-0.84831 0.68437-1.7445 0.35532-0.77465 0.4673-0.80662 0.37341-0.5465 0.41017-0.54436 0.98121-1.1749 2.796-3.1128 3.7099-4.2462 1.6055-1.7526 1.1504-1.3114 0.58862-0.74422 0.3316-0.46695 2.0278-2.8739 0.24256-0.36692 0.084606-0.1771 0.043411-0.061009 0.15987-0.096557 0.2877-0.094011 1.2081-0.14619 0.434-0.1069 0.40922-0.16919 0.4056-0.23825 0.36626-0.27623 0.19629-0.16713 0.67464-0.66958 0.43904-0.52238 0.41099-0.5566 0.37647-0.57517 0.42981-0.72514 0.45419-0.70757 0.26007-0.339 0.37061-0.42858 0.64967-0.66928 0.69379-0.6418 0.71431-0.60442 0.7837-0.58593 0.63143-0.37546 0.43561-0.20195 0.4702-0.1677 0.82557-0.20714 1.1374-0.21117 1.0197-0.13188 1.0392-0.06963 0.70058 0.003565 0.66831 0.050997 0.99633 0.11512 0.66004 0.027101 0.4954-0.025461 0.55974-0.10503 0.50328-0.16278 0.67909-0.31246 0.52751-0.30062 0.55842-0.35342 0.56131-0.39762 0.30136-0.25493 0.28138-0.29332 0.27014-0.38573 0.11881-0.25283 0.14423-0.71123-0.021578-0.77229-0.23353-1.7644-0.029087-0.47929 0.01567-0.43072 0.058475-0.37694 0.092803-0.37596 0.29039-0.95501 0.12136-0.49566 0.065662-0.51012-0.041251-0.75037-0.091434-0.43437-0.17177-0.51888-0.30522-0.66968-0.35037-0.61171-0.29515-0.43676-1.2144-1.6701-0.54056-0.68276-0.57268-0.67236-1.9592-2.0885-0.58673-0.71692-0.37219-0.54891-0.1675-0.29874-0.33389-0.79075-0.15276-0.4627-0.11893-0.44046-0.083725-0.46609 0.002985-0.47529 0.093742-0.2938 0.13394-0.21401 0.13048-0.14887 0.21438-0.18919 0.34498-0.23011 0.3952-0.19801 1.7782-0.66297 1.6412-0.73912 1.4395-0.72289 2.9831-1.5928 3.1273-1.534 1.0671-0.58447 0.43766-0.30283 0.36534-0.32007 0.29291-0.34769 0.20981-0.38322 0.11117-0.40558 0.016515-0.24807-0.043409-0.41456-0.048751-0.20726-0.12444-0.36636-0.24366-0.49981-0.27735-0.43402-1.0816-1.3747-0.5082-0.71086-0.31962-0.52246-0.37471-0.74132-0.34741-0.87828-0.29884-1.0149-0.32856-1.5619-0.12132-0.68016 1.54e-4 -0.15939 0.18328-0.24494 0.48812-0.22836 0.27745-0.085326 0.57935-0.13441 0.4923-0.078268 0.52142-0.048082 1.0199 0.014195 0.52215 0.063586 0.79976 0.16242 1.2425 0.30932 0.40252 0.079276 0.49758 0.059242 0.49721-0.004015 0.40563-0.070706 0.37291-0.13789 0.46652-0.27522 0.50341-0.41709 0.43085-0.4824 0.79085-1.1898 0.13177-0.16869 0.3079-0.33403 0.22146-0.19877 2.1687-1.5584 2.1106-1.6261 0.6078-0.43682 0.65619-0.36586 2.441-1.0621 2.0487-0.96797 1.1162-0.48668 1.5442-0.56708 1.093-0.32989 0.81655-0.19535 0.42183-0.077292 1.4017-0.15378 2.1766-0.10444 0.57219 0.007651 1.4877 0.13026 0.56041 0.013671 0.55682-0.067411 0.98798-0.2729 0.36981-0.051345 0.39473 0.038537 0.43349 0.15467 1.0102 0.51172 0.4513 0.20698 1.4934 0.52209 0.3854 0.18209 0.7395 0.39342 0.18724 0.076103 1.3897 0.38314 0.39223 0.1718 0.22583 0.16591 0.17575 0.21437 0.071533 0.15376 0.008545 0.13555 0.25079-0.067084 0.46471-0.28585 0.50979-0.38521 0.47131-0.40789 0.768-0.77305 0.29181-0.32682 2.2316-2.6684 0.40073-0.44206 0.78692-0.79224 0.84055-0.76776 0.87343-0.74814 3.2407-2.6806 0.86407-0.77194 0.79023-0.78051 0.68807-0.79676 0.55098-0.82194 0.32374-0.67234 0.48826-1.3152 0.19657-0.63622 0.15816-0.69808 0.07355-0.71255-0.025795-0.66838-0.099115-0.67994-0.23078-1.009-0.68829-2.5358-0.16069-0.75355-0.10693-0.76162-0.025209-0.55653 0.012201-0.30215 0.05151-0.37546 0.078322-0.27641 0.071097-0.16268 0.21853-0.31368 0.38907-0.32615 0.89764-0.44758 0.42478-0.26915 0.1442-0.12135 0.18539-0.19929 0.19627-0.31713 0.10888-0.27758 0.05777-0.21722 0.069578-0.51011 0.004381-0.43652-0.043437-1.0958 0.040726-0.69972 0.084046-0.61736 0.16334-0.83422 0.34345-1.3195 0.46137-1.5202 0.4143-1.2471 0.90096-2.5263 0.309-0.97584 0.14906-0.56783 0.082521-0.4478 0.008372-0.23675-0.023813-0.073779-0.031392-0.013118-0.024614-0.27617 0.055524-0.41681 0.21743-1.008 0.30051-0.98564 0.41145-1.0459 0.64878-1.3835 0.50554-0.92096 0.27456-0.43686 0.32252-0.45371 0.58082-0.69254 0.61014-0.53055 0.12308-0.079581 0.56382-0.25235 0.4657-0.095685 0.4752-0.022442 1.108 0.07955 0.26719 0.009255 0.32936-0.025078 0.31653-0.090717 0.26152-0.15682 0.21294-0.22773 0.23387-0.54068 0.10886-0.6469 0.098527-1.6327 0.039755-0.38157 0.1604-0.97984 0.057613-0.47814 0.071805-1.4207 0.075244-0.61256 0.14654-0.5343 0.2495-0.43311 0.28645-0.25852 0.27287-0.078723 0.30962 0.041749 0.34148 0.13974 0.30183 0.17306 0.30637 0.22288 0.3136 0.26831 0.42469 0.42172 0.565 0.71602 0.54764 0.84996 0.53599 0.94509" stroke="#bdc660"/>
    </defs>
    <g clip-path="url(#p2fff33ef05)">
     <use y="234.478638" fill="#bdc660" stroke="#bdc660" xlink:href="#me8e6d76315"/>
    </g>
   </g>
  </g>
 </g>
 <defs>
  <clipPath id="p2fff33ef05">
   <rect x="7.2" y="7.2" width="357.12" height="220.08"/>
  </clipPath>
 </defs>
</svg>
