<?xml version="1.0" encoding="UTF-8"?>
<!DOCTYPE svg  PUBLIC '-//W3C//DTD SVG 1.1//EN'  'http://www.w3.org/Graphics/SVG/1.1/DTD/svg11.dtd'>
<svg width="296.8pt" height="280.51pt" version="1.1" viewBox="0 0 296.8 280.51" xmlns="http://www.w3.org/2000/svg" xmlns:xlink="http://www.w3.org/1999/xlink">
 <metadata>
  <rdf:RDF xmlns:cc="http://creativecommons.org/ns#" xmlns:dc="http://purl.org/dc/elements/1.1/" xmlns:rdf="http://www.w3.org/1999/02/22-rdf-syntax-ns#">
   <cc:Work>
    <dc:type rdf:resource="http://purl.org/dc/dcmitype/StillImage"/>
    <dc:date>2024-07-04T12:10:51.007102</dc:date>
    <dc:format>image/svg+xml</dc:format>
    <dc:creator>
     <cc:Agent>
      <dc:title>Matplotlib v3.7.1, https://matplotlib.org/</dc:title>
     </cc:Agent>
    </dc:creator>
   </cc:Work>
  </rdf:RDF>
 </metadata>
 <defs>
  <style type="text/css">*{stroke-linejoin: round; stroke-linecap: butt}</style>
 </defs>
 <g id="figure_1">
  <g id="patch_1">
   <path d="m0 280.51h296.8v-280.51h-296.8v280.51z" fill="none"/>
  </g>
  <g id="axes_1">
   <g id="PatchCollection_1">
    <defs>
     <path id="m02ed11cd65" d="m131.05-219.38 0.94776 0.57004 0.67667 0.28656 0.57816 0.17804 0.61748 0.13722 0.91047-0.39548 1.0405-0.52733 0.5303-0.30987 0.50921-0.33818 0.47269-0.36916 0.59844-0.57599 1.2001-1.3503 0.49595-0.51916 1.384-1.3461 0.8694-0.74077 0.23391-0.26679 0.21767-0.30628 0.43081-0.75922 1.1548-2.4439 1.0836-2.0755 0.88644-1.5491 1.7386-2.8033 0.79277-1.3407 0.95556-1.7619 1.1444-2.2503 0.047351-0.051508 0.059134-0.018328 0.21273 0.029418 0.26675 0.10649 0.40987 0.22998 0.39625 0.27406 0.52342 0.42721 0.61053 0.58294 0.96761 1.0332 0.70222 0.82155 0.69037 0.88077 0.85992 1.2489 0.63286 1.1057 0.46054 0.98813 0.38971 1.0792 0.22718 0.81625 0.22966 1.0438 0.43907 2.4646 0.2406 0.99558 0.24152 0.63828 0.32816 0.54978 0.19573 0.22681 0.24178 0.21528 0.90781 0.48078 1.1066 0.25342 1.2378 0.05886 0.907-0.061514 0.78556-0.11266 1.0954-0.23583 1.5489-0.45439 3.7552-1.3321 0.78626-0.2613 1.1358-0.32468 0.67915-0.14889 0.65099-0.095526 0.75248-0.026302 0.70547 0.091221 0.64734 0.18262 0.7976 0.37002 0.54671 0.44459 0.42491 0.54228 0.33163 0.728 0.094922 0.51718-0.065648 0.61655-0.1851 0.39177-0.24237 0.30359-0.22903 0.21925-0.67297 0.53154-0.92261 0.64579-2.55 1.6424-0.46353 0.33982-0.37075 0.31076-0.69373 0.75531-0.51442 0.80838-0.25321 0.5797-0.20045 0.71371-0.020766 0.48463 0.089596 0.51094 0.2795 1.0837 0.088228 0.61173 0.052506 1.1078 0.069179 0.58524 0.17668 0.70542 0.25588 0.6929 0.57954 1.3927 0.21276 0.71779 0.17785 0.98571 0.12051 0.99389 0.11572 2.4332 0.16626 1.6356 0.29297 2.0918 0.16057 0.89591 0.29633 1.2437 0.24962 0.76098 0.20473 0.48829 0.22245 0.43258 1.0612 1.8005 0.62981 1.3048 1.91 4.5863 0.56784 1.4596 0.26878 0.83389 0.17422 0.80183 0.05134 0.46542 0.067182 1.2026 0.09829 0.5089 0.22749 0.39684 0.19827 0.16498 0.25104 0.11511 0.3131 0.053984 0.57239-0.045954 0.7423-0.1999 1.4427-0.53194 0.68056-0.21064 0.92862-0.20223 2.6854-0.51334 0.86348-0.13443 3.0737-0.29439 2.6165-0.38883 0.72671-0.14858 0.65942-0.18761 0.66829-0.23432 1.0574-0.43015 2.8035-1.2827 1.4137-0.70194 0.86442-0.48013 0.94532-0.61462 0.87669-0.7 0.86304-0.83318 2.6021-2.6072 1.4677-1.56 2.915-3.2458 0.93592-0.99978 0.96568-0.98718 0.99246-0.96442 1.217-1.1013 1.285-1.0368 0.91685-0.6684 0.94566-0.6481 1.4819-0.94014 1.0532-0.60167 0.87029-0.45549 3.4247-1.679 1.0949-0.56778 4.2026-2.3907 1.3918-0.69111 1.4006-0.53317 0.72792-0.19343 0.71998-0.14 0.59826-0.081349 0.68469-0.047751 0.64142 0.012058 0.48312 0.056591 0.43554 0.097716 0.62463 0.26441 0.23162 0.16789 0.15206 0.15255 0.15077 0.22906 0.005893 0.47789 0.067943 2.2416 0.099477 1.1288 0.14088 0.59154 0.11012 0.21607 0.14874 0.14183 0.13135 0.046795 0.31933-0.00887 0.40391-0.10957 1.7912-0.7461 0.88236-0.29698 1.8772-0.52644 1.2378-0.2623 0.26661-0.077283 0.6959-0.27848 0.46276-0.10549 0.27069-0.018288 0.40101 0.034123 0.61726 0.17944 0.41854 0.18536 0.49046 0.26287 0.56718 0.35155 0.50988 0.35427 0.021555 0.06002 0.52349 0.51879 1.3026 1.0988 1 0.75179 1.1499 0.73098 1.0109 0.53812 1.3996 0.65012 1.0649 0.43683 2.3831 0.89312 1.2499 0.49919 1.2124 0.52446 1.1299 0.54941 1.05 0.60297 0.89373 0.6194 0.3331 0.26854 0.55991 0.51361 0.76912 0.85828 0.40202 0.52504 0.63188 0.9348 0.61591 1.0239 0.46908 0.84834 0.8621 1.7703 0.54477 1.2546 0.33707 0.86258 0.40273 1.273 1.3185 4.86 0.55798 2.427 0.60329 3.0396 0.26148 1.4785 0.21293 1.3878 0.18458 1.5074 0.13258 1.454 0.0758 1.1899 0.040776 1.2962-0.020814 1.3465-0.066013 0.93837-0.075458 0.62464-0.16241 0.8752-0.27234 0.95596-0.26105 0.66204-0.36972 0.71132-0.26052 0.39767-0.394 0.50565-0.3499 0.38623-0.79398 0.74355-0.8872 0.71997-1.1419 0.8448-0.94054 0.61176-1.0118 0.56725-0.81538 0.39559-0.79506 0.33524-0.83643 0.29467-1.1263 0.31292-1.4006 0.2669-1.0447 0.11635-0.6895 0.037836-0.85833 0.008896-2.7514-0.059991-0.52827 0.022939-0.72933 0.07461-1.1839 0.22117-1.1985 0.31325-0.87831 0.28916-0.46055 0.17845-0.74496 0.33762-0.93576 0.53646-0.80846 0.60604-0.7641 0.6918-1.8618 1.8401-0.69595 0.77077-0.40314 0.53597-0.29566 0.50284-0.25 0.70466-0.059496 0.75016 0.10591 0.76415 0.24751 0.83817 2.1525 6.3716 0.3277 1.1166 0.64221 2.4509 0.72869 2.2809 1.0958 3.1888 0.45512 1.0127 0.38667 0.69386 0.57624 0.86971 0.63452 0.74815 0.71579 0.71009 1.6131 1.438 0.73565 0.57806 0.93123 0.63158 1.5665 0.86106 0.51822 0.31354 0.99581 0.74722 0.95501 0.89917 1.0922 1.2574 0.62798 0.86557 0.58948 0.90559 1.0408 1.6851 0.72839 1.0692 0.60432 0.74552 1.0393 1.1974 0.33686 0.48762 0.047108 0.1567 0.020922 0.054214-0.28523 0.30217-0.4068 0.27552-0.86976 0.47086-1.0838 0.49756-4.0633 1.6433-3.9285 1.4002-1.2424 0.51331-1.1583 0.55759-1.0416 0.60593-0.408 0.28286-0.66016 0.56665-0.40653 0.4406-1.2176 1.5084-1.0989 1.2154-1.9727 1.903-0.70735 0.75484-0.77044 0.87336-5.3976 6.3219-1.6813 2.045-0.53311 0.6846-0.49174 0.70384-0.43081 0.71954-0.50736 1.0923-0.11627 0.32368-0.23915 0.877-0.091764 0.89089 0.10168 0.92012 0.25526 0.9367 0.34895 0.95453 1.7998 4.6058 0.43124 1.1849 0.33558 1.217 0.15933 1.2531-0.002351 0.50067-0.049526 0.60204-0.081938 0.54928-0.25823 1.172-0.69174 2.3887-0.97571 2.9891-0.15485-0.098343-0.40513-0.084474-0.56671-0.036635-0.7019 0.024121-0.4395 0.048987-0.55121 0.10113-0.54436 0.15198-0.7231 0.29686-0.84444 0.44422-1.4858 0.86924-0.69648 0.47335-1.9088 1.5049-0.77414 0.43697-0.65466 0.19882-0.6956 0.081412-0.713-0.02669-0.50539-0.077237-2.1984-0.49551-0.71142-0.10088-0.83912-0.035944-0.70037 0.062104-0.63866 0.15416-0.41439 0.16336-0.35882 0.19433-0.30325 0.2153-0.23843 0.21359-0.25335 0.28741-0.31593 0.49786-0.15646 0.32993-0.28403 0.79539-0.58847 2.2318-0.30221 0.98876-0.26164 0.66365-0.33985 0.64343-0.53602 0.71007-0.63002 0.64285-1.7116 1.5497-0.79364 0.79191-0.6209 0.72029-1.0853 1.4338-1.328 1.6871-1.3162 1.5564-0.63916 0.67893-2.3558 2.3479-3.7892 3.5664-0.70729 0.73132-0.60948 0.76673-0.41093 0.68004-0.31395 0.68286-0.18109 0.51512-0.12242 0.46814-0.069384 0.47221 0.009966 0.25622 0.046414 0.072153 0.20618 0.18887 0.10462 0.35129-0.043036 0.42805-0.14857 0.32049-0.24179 0.31654-0.41197 0.38268-0.50722 0.36196-0.87303 0.492-1.1393 0.51306-1.6828 0.61418-1.603 0.49304-2.8896 0.80816-1.0421 0.3622-0.87615 0.38666-1.7784 0.9024-1.3437 0.57855-0.69963 0.2537-0.71632 0.21717-0.73303 0.16824-0.64725 0.098071-0.65755 0.060923-1.3362 0.045931-3.0644-0.005517-0.67788 0.024702-1.146 0.1027-0.51544 0.081271-0.89383 0.21971-0.3772 0.13637-0.54672 0.27187-0.31794 0.21939-0.35159 0.33014-0.090644 0.10863-0.3422 0.56461-0.25494 0.64621-0.45075 1.4301-0.29487 0.73407-0.26134 0.49815-0.30372 0.49-0.51475 0.72434-0.60456 0.7642-1.0463 1.2107-0.29898 0.32218-0.19545 0.1721-0.10791-0.21993-0.35294-0.54441-0.67027-0.95949-0.7217-0.96597-1.2876-1.5544-0.79992-0.87707-1.3329-1.334-1.045-0.92857-1.072-0.83644-0.87494-0.60559-1.2347-0.77019-1.4167-0.77719-0.98056-0.46182-0.92268-0.37672-0.97175-0.33698-1.4685-0.40402-3.0944-0.63911-0.69131-0.17051-0.39121-0.1261-0.45553-0.20229-0.3035-0.19973-0.25696-0.27149-0.17412-0.35332-0.075605-0.31617-0.034406-0.41874 0.018711-0.47381 0.078143-0.59721 0.13053-0.67095 0.78736-3.3057 0.22369-1.1565 0.10778-0.88234 0.019388-0.46449-0.015024-0.43193-0.067169-0.49431-0.13138-0.50282-0.13335-0.36846-0.23371-0.5228-0.34873-0.65891-0.6364-1.0574-1.9492-2.9984-0.39222-0.6588-0.46316-0.88988-0.28249-0.67527-0.17794-0.56645-0.1084-0.52794-0.05244-0.64971 0.023737-0.65914 0.12279-0.86606 0.2045-0.87323 0.21665-0.73432 0.93092-2.8491 0.15834-0.60168 0.14063-0.71176 0.086296-0.72383 0.12056-1.5011 0.18223-1.5847 0.036058-0.68007-0.034194-0.52542-0.08995-0.37583-0.12754-0.27118-0.12104-0.16171-0.45471-0.31644-0.34538-0.1262-0.52542-0.1238-1.4601-0.25861-0.62311-0.14941-0.45994-0.14333-0.38991-0.15379-0.48057-0.23677-0.81146-0.51471-0.49292-0.44488-0.25883-0.30518-0.25545-0.36685-0.371-0.65926-0.63226-1.2957-0.26317-0.48731-0.21006-0.32869-0.34842-0.40559-0.36953-0.26323-0.17187-0.06714-0.1894-0.027938-0.31293 0.05831-0.2536 0.12203-0.28414 0.18705-0.51205 0.40664-0.67453 0.61546-1.2141 1.2273-0.60693 0.6719-0.47223 0.60776-0.53462 0.79052-0.50014 0.8241-1.3704 2.4073-0.60721 0.98934-0.47455 0.71196-0.48656 0.66887-0.71687 0.88882-0.60963 0.67358-0.61072 0.60899-0.87545 0.82995-0.92687 0.82297-0.64879 0.51413-0.76193 0.50433-0.6217 0.35183-0.42109 0.2063-0.62977 0.24829-0.45999 0.12551-0.66631 0.080378-1.1413-0.16255-1.0902-0.42108-1.0917-0.58785-2.8861-1.8431-0.72114-0.422-0.86331-0.42078-0.38841-0.14349-0.66822-0.1539-0.6662-0.032871-0.51454 0.033802-2.4002 0.35216-1.1123 0.062046-0.9638-0.039491-2.3926-0.22982-0.70202-0.026567-0.81325 0.024868-0.78532 0.067488-0.99431 0.12299-3.2136 0.53118-1.1468 0.15719-1.388 0.11257-0.79206-0.007275-0.66902-0.065008-0.56318-0.092415-1.369-0.33083-1.133-0.35646-2.6392-0.94498-1.0727-0.30792-0.63064-0.12038-0.48282-0.061153-1.7432-0.1353-0.55227-0.075229-0.65905-0.14363-1.7892-0.50172-0.72452-0.17274-0.7409-0.12071-0.59349-0.038529-0.66074 0.030553-0.6788 0.11926-0.74976 0.24164-0.73217 0.32599-0.68721 0.35569-0.83816 0.47877-2.8599 1.8019-0.89191 0.52826-0.7874 0.42553-1.0683 0.49078-0.95999 0.32516-0.84446 0.16531-0.68359 0.033688-0.44971-0.031794-0.36312-0.059271-0.41584-0.10915-0.63982-0.27052-0.25814-0.15005-0.4928-0.35601-0.23261-0.20108-0.58868-0.60971-0.3714-0.46466-0.5864-0.87722-0.30452-0.53589-0.48792-1.0009-0.33736-0.81616-0.35064-0.98848-0.26398-0.87178-0.21661-0.83437-0.2854-1.3642-0.17134-1.1086-0.10272-1.0775 0.014886-0.080074 0.087125-0.084889 0.33512-0.23444 1.9134-1.0144 0.55235-0.31418 0.74517-0.47682 0.79668-0.60341 0.39318-0.35561 0.36942-0.39514 0.27899-0.36836 0.23188-0.40461 0.24251-0.82874 0.027291-0.38487-0.012387-0.34261-0.062994-0.44928-0.13761-0.50123-0.22327-0.45532-0.28384-0.38362-0.53646-0.51731-0.64937-0.39106-0.35973-0.12891-0.4852-0.11019-0.35063-0.047695-2.2457-0.093003-0.59215-0.096841-0.72077-0.21026-1.9099-0.80152-1.0439-0.36976-0.88579-0.20234-0.78921-0.099382-0.63845-0.032169-0.66547 0.004121-1.301 0.079693-2.2562 0.19433-1.5057 0.067482-0.87834-9.2e-4 -1.0678-0.046216-1.0943-0.095667-0.95396-0.12073-0.93174-0.15185-1.3304-0.28643-1.1859-0.36901-0.65062-0.28795-0.59528-0.35778-0.7067-0.60849-0.63857-0.73189-0.27582-0.35934-0.52762-0.75154-0.36877-0.57643-0.66906-1.1567-0.7862-1.5391-0.44872-0.96558-0.8033-1.8692-1.5247-3.7299-0.66119-1.477-0.73468-1.4307-0.84019-1.3529-0.79878-1.0596-1.7076-2.0192-2.4216-2.9536-0.73587-0.85795-0.43923-0.47094-0.077038-1.8231-0.067781-0.9341-0.11564-0.648-0.1491-0.38722-0.20696-0.35226-0.23916-0.33746-1.1835-1.4715-1.4894-1.7821-1.3176-1.4602 0.2801-0.20047 0.58828-0.33936 2.2544-1.1607 0.99695-0.67171 0.81058-0.67232 1.3389-1.2558 0.83289-0.68678 1.2113-0.84878 1.3074-0.78342 1.797-0.92649 1.7819-0.79052 3.8205-1.4545 2.0403-0.84612 1.0972-0.53318 0.63865-0.35362 0.67658-0.42012 0.80624-0.58248 0.44867-0.37556 0.47421-0.43296 0.5426-0.56958 0.43742-0.58618 0.30579-0.56478 0.1925-0.55151 0.082828-0.4483 0.029882-0.59653-0.028608-0.48871-0.070873-0.5137-0.19243-0.84745-0.25672-0.7967-0.33464-0.83297-0.4378-0.92053-0.65928-1.1786-0.72745-1.113-0.8586-1.1462-0.8637-1.047-2.5594-2.8739-1.3792-1.4457-3.9253-3.8163-0.8955-0.96336-0.75622-0.90043-0.62208-0.82938-0.20612-0.32482-0.1742-0.34244-0.17246-0.48377-0.42581-1.6655-0.25039-0.68538-0.27591-0.5171-0.53642-0.75408-0.68017-0.75717-0.81744-0.73545-1.3955-1.0728-0.38189-0.37168-0.17339-0.21884-0.17811-0.30972-0.11185-0.34673-0.038456-0.27664-0.006308-0.2618 0.045695-0.47743 0.084782-0.40266 0.19009-0.60615 0.41865-1.028 1.0716-2.3273 0.55615-1.428 0.42516-1.2556 0.28447-1.1037 0.14056-0.85704 0.18694-1.7215 0.10735-1.5179 0.16719-1.3353 0.12885-0.64606 0.16555-0.53829 0.21355-0.47682 0.25617-0.45807 0.56385-0.84115 1.3581-1.6196 0.48146-0.73253 0.4297-0.80095 0.38161-0.83974 0.67382-1.6476 0.38352-0.77176 0.47635-0.69898 0.74358-0.7215 0.87398-0.61466 1.8467-1.0678 0.82531-0.5249 0.65204-0.56556 0.38337-0.64335 0.045329-0.20073 0.01156-0.38074-0.12388-0.57632-0.28518-0.6226-0.22881-0.36165-0.24957-0.33245-0.34247-0.39424-0.35115-0.3592-0.70626-0.64088-0.84845-0.69116-3.9903-2.958-0.88622-0.74086-0.50804-0.48373-2.6204-2.8182-3.4222-3.5881-1.1544-1.2545-0.71818-0.85084-0.402-0.54994-0.26402-0.43399-0.18736-0.40526-0.11022-0.55458 0.071817-0.34099 0.19171-0.2781 0.46494-0.28024 0.59286-0.15981 0.52703-0.055568 0.60188 0.008721 0.66181 0.082087 0.45431 0.089263 0.9722 0.26691 1.9571 0.63814 0.71329 0.17808 0.59838 0.10805 0.73743 0.070332 1.2187-0.042338 1.1628-0.24284 0.54105-0.19581 0.99616-0.50435 0.86864-0.69337 0.50018-0.61958 0.33807-0.55588 0.3397-0.69738 0.26274-0.66384 0.23375-0.72559 0.18165-0.7102 0.15766-0.85647 0.073745-0.61972 0.056815-1.313-0.055885-1.1305-0.18669-1.2726-0.19403-0.82026-0.65579-2.2825-0.3308-1.4202-0.26227-1.4627-0.2012-1.4534-0.14377-1.3737-0.084827-1.1945-0.01664-0.87194 0.081214-0.34136 0.29444-0.045249 0.4316 0.16098 0.51344 0.30846 0.49601 0.37041 0.38364 0.3371 0.49555 0.51867 0.27365 0.33873 0.26588 0.37728 0.40501 0.7069 0.33669 0.7692 0.75159 2.0894 0.41354 1.0169 0.49896 0.92216 0.63231 0.76876 0.85864 0.60162 1.0024 0.39647 1.0867 0.22161 1.1193 0.064731 1.1057-0.086288 0.38779-0.069893 0.80995-0.23322 0.59674-0.24876 0.66706-0.34963 0.87303-0.52188 3.0239-1.8963 0.80978-0.45695 0.84145-0.40144 0.8633-0.32667 2.9218-0.79117 1.0363-0.31189 1.0208-0.36529 0.56707-0.23468 0.76186-0.35225 1.4407-0.78795 0.60826-0.40213 1.7854-1.3957 0.78217-0.56247 1.7071-1.1066 1.4553-0.86661 0.79885-0.41254 0.89334-0.39837 3.5917-1.3772 1.1858-0.49306 0.77496-0.35393 0.85901-0.44367 1.0313-0.63402 0.97699-0.7638 0.3517-0.34041 0.36533-0.41205 0.62719-0.87588 0.65057-1.1319 1.6955-3.2449 0.38016-0.68629 0.75033-1.2292 0.98461-1.4359 0.45073-0.56083 0.47634-0.51052 0.58475-0.54678 0.6917-0.56701 0.80454-0.59742 4.8174-3.4252 0.88852-0.68756 0.74551-0.63126 0.71999-0.69349 0.43564-0.48305 0.47516-0.58536 1.0936-1.5235 1.2957-1.984 0.3161-0.43026 0.70266-0.82878 0.65319-0.59348 0.52703-0.38032 0.42507-0.26161 0.7654-0.3747 0.39957-0.14817 0.98485-0.24507 0.78389-0.08196 0.58859 0.010809 0.58574 0.10434 0.43183 0.15384 0.38963 0.19708 0.37363 0.24384 0.26751 0.21138 0.36428 0.34839 0.38616 0.48067 0.23217 0.36463 0.28952 0.58639 0.27635 0.73823 0.34504 1.1713 0.69628 2.6397 0.27338 0.87125 0.86806 2.2745 1.2424 3.6474 0.55396 1.4472 0.86758 1.9866 3.0908 6.6472 0.92039 1.7486 1.0801 1.7271 0.87501 1.2507 0.71046 0.94834 1.7708 2.1711 2.6937 3.1106 2.3773 2.8126 1.0234 1.1234 0.76659 0.77797 0.64454 0.6112 0.6989 0.61529 1.0524 0.8139" stroke="#bdc660"/>
    </defs>
    <g clip-path="url(#pab3cd826d3)">
     <use y="280.512" fill="#bdc660" stroke="#bdc660" xlink:href="#m02ed11cd65"/>
    </g>
   </g>
  </g>
 </g>
 <defs>
  <clipPath id="pab3cd826d3">
   <rect x="7.2" y="7.2" width="282.4" height="266.11"/>
  </clipPath>
 </defs>
</svg>
