<?xml version="1.0" encoding="UTF-8"?>
<!DOCTYPE svg  PUBLIC '-//W3C//DTD SVG 1.1//EN'  'http://www.w3.org/Graphics/SVG/1.1/DTD/svg11.dtd'>
<svg width="169.15pt" height="280.51pt" version="1.1" viewBox="0 0 169.15 280.51" xmlns="http://www.w3.org/2000/svg" xmlns:xlink="http://www.w3.org/1999/xlink">
 <metadata>
  <rdf:RDF xmlns:cc="http://creativecommons.org/ns#" xmlns:dc="http://purl.org/dc/elements/1.1/" xmlns:rdf="http://www.w3.org/1999/02/22-rdf-syntax-ns#">
   <cc:Work>
    <dc:type rdf:resource="http://purl.org/dc/dcmitype/StillImage"/>
    <dc:date>2024-07-04T12:10:57.933157</dc:date>
    <dc:format>image/svg+xml</dc:format>
    <dc:creator>
     <cc:Agent>
      <dc:title>Matplotlib v3.7.1, https://matplotlib.org/</dc:title>
     </cc:Agent>
    </dc:creator>
   </cc:Work>
  </rdf:RDF>
 </metadata>
 <defs>
  <style type="text/css">*{stroke-linejoin: round; stroke-linecap: butt}</style>
 </defs>
 <g id="figure_1">
  <g id="patch_1">
   <path d="m-0 280.51h169.15v-280.51h-169.15v280.51z" fill="none"/>
  </g>
  <g id="axes_1">
   <g id="PatchCollection_1">
    <defs>
     <path id="mc20060e877" d="m116.83-202.5 0.63227 0.02048 0.35715-0.006415 0.54778-0.047275 0.38664-0.070345 0.32654-0.085407 0.4098-0.14105 0.34617-0.14754 0.64837-0.33585 0.38876-0.23299 0.56971-0.38162 0.64017-0.48576 1.4-1.1903 0.54115-0.48625 1.1312-1.0879 0.29304-0.25195 0.33962-0.23894 0.13242-0.064941 0.1869-0.057931 0.21113-0.016123 0.15202 0.022921 0.20126 0.076492 0.16067 0.098567 0.16074 0.13169 0.17544 0.18786 0.14505 0.21137 0.13493 0.30256 0.066956 0.23941 0.13271 0.76202 0.24378 1.9937 0.090477 0.59413 0.22663 1.1309 0.265 1.0055 0.24666 0.75281 0.35103 0.9364 0.32162 0.73022 0.29296 0.58396 0.37446 0.61004 0.46989 0.60404 0.51423 0.49781 0.59926 0.46169 0.59202 0.38656 0.51617 0.27437 0.57256 0.25936 1.5521 0.64714 0.49944 0.23362 0.37216 0.20183 0.45156 0.29603 0.40541 0.32833 0.354 0.34423 0.38548 0.44563 0.32365 0.4432 0.27044 0.43065 0.23349 0.42726 0.38218 0.85394 0.32166 0.96841 0.21471 0.92603 0.13869 0.93006 0.091109 1.0065 0.070884 1.2662 0.053914 0.47578 0.085378 0.32176 0.10017 0.12902 0.098938 0.004009 0.07766-0.061954-0.008178 0.044288 0.11755 0.3585 0.87965 2.2182 0.59246 1.5778 0.44938 1.3419 0.36418 1.2652 0.34538 1.4761 0.21859 1.2723 0.074651 0.92576-0.005553 0.29156-0.047549 0.49227-0.12095 0.57683-0.12298 0.38228-0.31821 0.71981-0.32027 0.5729-0.41603 0.65558-0.72995 1.0539-2.3521 3.213-0.38773 0.58202-0.26608 0.43984-0.43092 0.82966-0.3615 0.84891-0.39234 1.1362-0.3654 1.284-0.61843 2.4018-0.31676 1.0628-0.29925 0.77904-0.17212 0.34617-0.18172 0.29312-0.21107 0.25838-0.17135 0.1534-0.16647 0.10744-0.17803 0.076648-0.22453 0.054178-0.246 0.02156-0.53353-0.030173-1.839-0.26264-0.94824-0.060226-0.75755 0.007784-0.39728 0.023842-0.98414 0.1139-0.4708 0.080519-1.0667 0.24325-0.4444 0.12789-0.80463 0.2781-0.59177 0.25165-0.32505 0.16221-0.88032 0.5359-0.86186 0.66668-0.57115 0.53371-0.64892 0.73701-0.49899 0.71668-0.19878 0.34216-0.30368 0.61309-0.28454 0.67662-0.77558 1.9761-0.33645 0.77267-0.31633 0.65186-0.54893 0.98045-0.28471 0.45176-0.50735 0.72631-0.40531 0.4988-0.49673 0.51211-0.41614 0.37328-0.45371 0.36959-0.92269 0.67282-0.97622 0.64037-3.0852 1.8507-1.6852 1.0462-0.6387 0.42998-0.69973 0.50638-0.67548 0.53557-0.64516 0.57028-0.82331 0.83823-0.77197 0.89578-0.73582 0.93692-0.71229 0.96384-1.9671 2.7482-0.7505 1.0047-0.7596 0.95584-0.7697 0.87874-0.77948 0.76364-0.65884 0.5293-0.56935 0.38335-0.56284 0.26975-0.57248 0.11544-0.7891-0.11648-0.79462-0.3354-1.3836-0.7867-0.27085-0.11875-0.15274-0.01507-0.10663 0.12867-0.019597 0.32548 0.06618 0.41548 0.17374 0.60928 0.24349 0.67786 0.88311 2.2233 0.55458 1.5073 0.50055 1.5073 0.59215 2.0167 0.34328 1.3533 1.6226 6.9772 0.5883 2.6992 0.26737 1.4139 0.22251 1.3461 0.66101 4.3972 0.25125 1.8714 0.14155 1.3499 0.11615 1.4983 0.1074 2.0122 0.060267 1.8643 0.089292 0.064184 0.15846 0.055787 0.81022 0.21034 3.6828 0.73865 0.70564 0.1878 0.50871 0.19765 0.3966 0.22939 0.30821 0.2724 0.38119 0.63925 0.20749 0.79765 0.086406 0.90669 0.010835 0.97419-0.050498 2.0156 0.009046 0.98274 0.079246 0.92818 0.18901 0.84283 0.34451 0.72221 0.57811 0.61192 0.73696 0.47201 0.82572 0.36851 2.2172 0.72891 0.57108 0.2878 0.27999 0.21216 0.21042 0.20123 0.76753 0.93331 0.50091 0.53127 0.59031 0.53912 0.65487 0.53012 0.62231 0.45233 0.55188 0.36314 0.73127 0.41971 0.72587 0.32892 0.70409 0.20307 0.34312 0.041886 0.25074-3.1e-5 0.33558-0.048905 0.2198-0.067346 0.26518-0.11906 0.2892-0.17223 1.1014-0.84582 0.37941-0.24556 0.44998-0.16116 0.40287 0.008899 0.17728 0.078282 0.13992 0.10537 0.20671 0.22296 0.49637 0.67354 0.23828 0.25232 0.27907 0.2295 0.39062 0.26484 1.5722 0.91359 0.61189 0.39521 0.3146 0.23191 0.52639 0.47041 0.26774 0.31515 0.3401 0.5589 0.18758 0.4224 0.17412 0.52832 0.12286 0.73032 0.00282 0.40577-0.027157 0.35943-0.26383 1.802-0.050087 0.59444-0.013924 0.43923 0.010806 0.64031 0.043031 0.59001 0.085647 0.68403 0.17153 1.0345 0.21433 1.0663 0.33296 1.4271 1.2946 4.8983 0.35597 1.1805 0.27161 0.82321 0.33643 0.90855 0.72412 1.8055 0.20085 0.62573 0.14505 0.58905 0.086963 0.50448 0.058041 0.70478-0.004574 0.58383-0.085041 1.8378 0.043561 0.90616 0.1001 0.62696 0.046191 0.17357 0.085893 0.2539 0.25897 0.54076 0.31743 0.4565 0.20297 0.22101 0.21817 0.19539 0.37991 0.26589 0.43366 0.2148 0.63456 0.18838 1.3994 0.2322 1.1532 0.26267 0.5392 0.18227 0.33032 0.13452 0.49178 0.22742 0.56679 0.29344 1.2424 0.73657 3.1286 2.0792 1.4654 0.91766 0.70813 0.40676 0.73824 0.39077 0.73166 0.34704 1.4391 0.61831 0.86727 0.44847 0.81436 0.51354 0.82798 0.61477 0.6608 0.56974 0.51098 0.50063 0.5646 0.63929 0.44832 0.61713 0.30959 0.53718 0.29167 0.70381 0.19977 0.96814 0.021752 0.74526-0.057842 0.55948-0.12301 0.45691-0.13686 0.1736-0.11645 0.012262-0.66599 0.21857-1.2946 0.51094-0.71451 0.33438-0.95902 0.54784-0.50909 0.24866-0.39169 0.10853-0.39765 0.038313-0.3933-0.031954-0.37882-0.10692-0.32488-0.1635-0.56471-0.40173-1.0042-0.86205-0.65618-0.52749-0.35241-0.24493-0.36237-0.2153-0.37981-0.17972-0.38821-0.13229-0.49021-0.088106-0.32868-0.010659-0.32244 0.02685-0.24312 0.046174-0.23442 0.068131-0.3045 0.13112-0.3714 0.23939-0.31756 0.25186-0.57826 0.54805-0.86868 0.99716-0.65273 0.69205-0.47981 0.42863-0.62306 0.4628-0.67526 0.43227-1.8862 1.1388-0.50374 0.25549-0.39901 0.17487-0.34521 0.095018-0.087552-0.009401-0.046749 0.059036-0.10215 0.040131-0.38824 0.090103-0.53738 0.068647-0.52534 0.036054-1.3905 0.014888-1.4936-0.067164-1.5611-0.12073-1.3065-0.13415-2.4294-0.29658-2.9096-0.41003-2.7905-0.41658-2.3166-0.37374-1.1605-0.2214-1.2195-0.27807-1.0314-0.28922-1.1902-0.41138-1.2599-0.53449-0.62841-0.30609-1.2273-0.6779-0.59609-0.37296-0.81631-0.56989-0.62501-0.49264-0.59661-0.52309-0.44888-0.43226-0.61639-0.64933-0.89912-1.0405-0.8572-1.1053-0.50322-0.73478-1.5125-2.4721-0.53294-0.80332-0.61617-0.85714-0.43016-0.55111-0.40126-0.45949-0.30746-0.31597-0.72459-0.64873-0.82234-0.62197-0.83414-0.55271-1.388-0.84055-0.49037-0.32422-0.4826-0.38244-0.41228-0.41408-0.25268-0.30876-0.39938-0.58054-0.57671-1.0234-0.66954-1.3733-1.0386-2.3326-0.38374-0.72026-0.41798-0.61216-0.64928-0.66429-0.39921-0.28353-0.57314-0.2962-0.9695-0.30674-1.1335-0.15694-0.81488-0.016205-1.0061 0.072203-0.62847 0.09473-0.60725 0.1296-0.81883 0.24378-0.48721 0.19436-0.34061 0.16856-0.24022 0.1449-0.27019 0.22436-0.043214 0.05873-0.023353 0.079626 0.012998 0.032655-0.025249 0.070136 0.054737 0.33922 0.5429 2.4458 0.11685 0.68093 0.08804 0.68851 0.050291 0.69921 0.003778 0.68582-0.051355 0.69272-0.11065 0.65751-0.15341 0.55873-0.20179 0.51428-0.22261 0.42205-0.25666 0.37482-0.28946 0.32523-0.31506 0.26782-0.37217 0.22392-0.38893 0.14221-0.58584 0.048155-0.48418-0.11419-0.39086-0.20203-0.34256-0.26366-0.34014-0.34491-0.29778-0.36418-0.50351-0.72492-1.574-2.5588-0.7861-1.2291-0.69558-1.0439-0.38382-0.53246-0.39992-0.49194-0.55504-0.54743-0.40321-0.29166-0.38608-0.20008-0.33618-0.11736-0.71409-0.097505-0.43919 0.026286-0.44745 0.079491-0.81177 0.2422-1.2961 0.52554-4.0235 1.8065-0.77549 0.30975-0.53904 0.1898-0.63362 0.18646-0.70368 0.15416-0.72071 0.095735-0.80427 0.036379-2.1948-0.063135-1.1787 0.016708-0.6363 0.051374-0.62525 0.089483-0.55214 0.11913-0.53052 0.1584-0.64478 0.2645-0.67408 0.37292-0.49318 0.33579-0.32938 0.25177-0.51512 0.43964-0.11084 0.011692-0.13026-0.031851-0.19793-0.079096-0.19498-0.10794-0.20043-0.14372-0.28618-0.2779-0.18397-0.24009-0.16386-0.26986-0.23899-0.53766-0.14787-0.48625-0.10617-0.51019-0.063313-0.46322-0.067678-0.85314-0.10056-2.1283-0.095376-1.0087-0.12371-0.81129-0.2093-0.89792-0.82239-2.4828-0.15799-0.59338-0.53623-2.3965-0.16138-0.58767-0.1964-0.57467-0.36804-0.80767-0.29479-0.52836-0.28527-0.45826-0.95826-1.3588-1.4039-1.8129-0.67875-0.91597-0.31054-0.47616-0.27597-0.49972-0.22134-0.50426-0.1854-0.52818-0.1568-0.54678-0.17492-0.75822-0.21663-1.3357-0.17342-1.6024-0.13504-0.83079-0.42604-2.0959-0.18199-1.0195-0.18148-1.3614-0.29251-2.6773-0.063475-0.77534-0.051646-1.3831 0.014232-4.077-0.059097-1.2383-0.21009-1.9553-0.057738-0.70193-0.019004-0.44932 0.001328-0.91235 0.19346-3.3899 0.00907-0.88831-0.075387-1.5953 0.024472-0.35025 0.12806-0.83868 0.29243-1.4863 0.20738-1.2179 0.10075-0.68458 0.15144-1.3035 0.079703-1.307 0.081619-3.7176 0.2489-4.2957 0.15698-1.7046 0.39238-3.1407 0.34578-3.1137 0.13732-1.7295 0.009519-0.5617-0.021817-0.11692-0.027128-0.00833-0.03531-0.13317-0.10586-1.8951-0.05657-0.50618-0.089988-0.48352-0.17456-0.54149-0.26492-0.45521-0.22729-0.23681-0.26717-0.19516-0.29762-0.15793-0.32389-0.12706-0.65194-0.16728-0.46907-0.073003-0.57233-0.059255-1.8929-0.12156-1.0031-0.0304-0.94485 0.00624-0.68739 0.036519-0.56126 0.055437-0.91891 0.13384-0.68915 0.12608-1.9233 0.43296-1.8259 0.50698-1.3188 0.45357-0.54965 0.23117-0.45022 0.21572-1.6473 0.91899-0.42171 0.1921-0.3295 0.12345-0.33858 0.10836-0.71996 0.18712-1.276 0.24606-2.4756 0.39742-0.50123 0.037496-0.51321 0.005352-0.66674-0.034387-1.017-0.13008-0.80244-0.15948-0.91997-0.25241 0.28712-0.29588 0.29508-0.35022 0.76461-0.9818 0.66289-0.90507 0.47668-0.7334 0.38034-0.69925 0.12536-0.27616 0.29173-0.81643 0.12846-0.48557 0.13951-0.68293 0.12278-0.88544 0.058362-0.72649 0.020118-1.3049-0.11525-2.2422-9.18e-4 -0.5484 0.073009-0.94164 0.17269-0.96231 0.418-1.6203 0.33017-1.0846 0.2025-0.57774 0.25116-0.6147 0.34869-0.68849 0.7672-1.2169 0.41002-0.73864 1.1604-2.3377 0.64642-1.1118 0.37777-0.5291 0.33494-0.37344 0.37148-0.35143 0.40835-0.34302 1.6387-1.269 0.53061-0.49492 0.45456-0.55428 0.36663-0.65597 0.27769-0.72551 0.21369-0.77535 0.17156-0.80767 0.4857-2.6335 0.20775-0.82594 0.26534-0.7653 0.3937-0.8041 0.40768-0.72975 0.32243-0.69419 0.12926-0.69506-0.017476-0.22615-0.053954-0.25855-0.14118-0.39446-0.18199-0.36216-0.24197-0.39087-0.34557-0.47958-0.63674-0.78193-0.55261-0.62743-0.95941-1.0048-2.2005-2.1147-0.91073-0.91552-0.84945-0.91808-0.7866-0.93836-0.38132-0.50587-0.44465-0.65248-0.26371-0.43278-0.42714-0.80762-0.4531-1.0655-0.29979-0.87433-0.2571-0.90099-0.18503-0.76522-0.16223-0.77965-0.22017-1.2927-0.18529-1.4171-0.21114-2.2119-0.20084-2.4437-0.073791-1.2218-0.019539-1.1962 0.039887-1.9888-0.003358-0.34985-0.015603-0.17434-0.025694-0.046885 0.087977-0.17532 0.042438-0.2987 0.023176-0.47637-0.046062-0.98209-0.092525-0.74495-0.15712-0.88683-0.16486-0.75778-0.61225-2.3861-0.20348-1.0015-0.51924-3.373-0.17809-1.7305-0.25131-4.2589-0.008652-0.91087 0.017964-1.1756 0.033529-0.73878 0.10896-0.78097 0.17084-0.64183 0.084543-0.21 0.20757-0.38037 0.26465-0.36479 0.51008-0.54778 0.62048-0.5388 0.51442-0.39386 2.5631-1.834 2.5561-1.9663 0.8153-0.5992 0.393-0.27173 0.7518-0.47288 1.2124-0.65294 0.51248-0.29849 0.6034-0.40669 0.42502-0.35265 0.15015-0.15555 0.31715-0.43997 0.21884-0.44572 0.52183-1.3899 0.63456-1.5679 0.21952-0.49449 0.20096-0.32577 0.16118-0.11011 0.21934-0.14231 0.17766-0.15799 0.18481-0.19654 0.17166-0.227 0.14202-0.25301 0.081976-0.21279 0.060489-0.23759 0.036347-0.24614 0.017104-0.31703-0.043215-1.2141 0.01274-0.63752 0.13565-1.5385 0.040367-0.78045-0.004551-0.35074-0.061949-0.91829 0.00248-0.43765 0.038669-0.29526 0.086335-0.3238 0.10026-0.2583 0.26086-0.50132 0.41689-0.61432 0.52737-0.62873 1.1619-1.2232 0.2942-0.40918 0.12428-0.23551 0.17468-0.49797 0.26862-1.4371 0.2498-1.083-0.036018-0.09527 0.076386-0.28368 0.18981-0.3529 0.2988-0.40563 0.64642-0.69365 1.3964-1.3451 0.42847-0.46572 0.96249-1.2062 0.37982-0.38777 0.41714-0.35987 0.44228-0.32798 0.46627-0.30252 0.85373-0.47557 1.4576-0.72759 0.83842-0.49467 0.32385-0.23206 0.4573-0.38566 0.38236-0.37728 0.36218-0.4017 0.36767-0.44882 0.66845-0.9102 0.87546-1.3594 0.31764-0.55554 0.51272-1.0261 0.63317-1.529 0.34026-0.7489 0.36564-0.66219 0.51182-0.7431 1.3657-1.7238 0.87644-1.1554 0.41424-0.49682 0.43789-0.47896 1.1849-1.189 0.8615-0.8128 0.86347-0.72236 0.24905-0.1798 0.2499-0.13653 0.034155 0.17565 0.054861 0.088096 0.4859 0.59927 1.0932 1.1344 2.8889 2.824 0.7455 0.79038 0.56181 0.66368 0.32248 0.43241 0.35387 0.56142 0.18802 0.36972 0.17114 0.40382 0.28261 0.85648 0.32009 1.1691 0.10374 0.30847 0.19127 0.42027 0.092725 0.15268 0.29888 0.36499 0.34492 0.30722 0.76275 0.57316 0.90794 0.79808 0.34656 0.37036 0.35625 0.51356 0.31614 0.57158 0.24825 0.50621 1.1027 2.4885 0.25638 0.5529 0.3959 0.778 0.47909 0.81933 0.57483 0.84396 0.43405 0.55849 0.48223 0.55692 0.47617 0.4985 0.67096 0.63899 0.55293 0.48058 0.87502 0.68764 1.9266 1.3511 2.9876 1.9378 0.80068 0.54752 0.68444 0.50718 1.2726 1.0255 1.378 1.1935 0.91988 0.82582 2.7162 2.5064 2.0855 1.9772 2.1273 2.1127 2.26 2.3628 2.267 2.5071 1.7775 2.0662 1.202 1.4544 0.95154 1.1932 1.1948 1.6017 0.79608 1.2011 0.61149 1.027 1.132 2.0616 0.72089 1.1946 0.54154 0.77779 0.58935 0.70586 0.67195 0.59204 0.47239 0.2929 0.2813 0.14044 0.70505 0.27517 0.97277 0.26582 1.7426 0.35212 1.4858 0.23458 3.8657 0.51803 0.54932 0.044777" stroke="#bdc660"/>
    </defs>
    <g clip-path="url(#p40a6e20487)">
     <use y="280.512" fill="#bdc660" stroke="#bdc660" xlink:href="#mc20060e877"/>
    </g>
   </g>
  </g>
 </g>
 <defs>
  <clipPath id="p40a6e20487">
   <rect x="7.2" y="7.2" width="154.75" height="266.11"/>
  </clipPath>
 </defs>
</svg>
