<?xml version="1.0" encoding="UTF-8"?>
<!DOCTYPE svg  PUBLIC '-//W3C//DTD SVG 1.1//EN'  'http://www.w3.org/Graphics/SVG/1.1/DTD/svg11.dtd'>
<svg width="371.52pt" height="247.88pt" version="1.1" viewBox="0 0 371.52 247.88" xmlns="http://www.w3.org/2000/svg" xmlns:xlink="http://www.w3.org/1999/xlink">
 <metadata>
  <rdf:RDF xmlns:cc="http://creativecommons.org/ns#" xmlns:dc="http://purl.org/dc/elements/1.1/" xmlns:rdf="http://www.w3.org/1999/02/22-rdf-syntax-ns#">
   <cc:Work>
    <dc:type rdf:resource="http://purl.org/dc/dcmitype/StillImage"/>
    <dc:date>2024-07-04T12:11:01.555398</dc:date>
    <dc:format>image/svg+xml</dc:format>
    <dc:creator>
     <cc:Agent>
      <dc:title>Matplotlib v3.7.1, https://matplotlib.org/</dc:title>
     </cc:Agent>
    </dc:creator>
   </cc:Work>
  </rdf:RDF>
 </metadata>
 <defs>
  <style type="text/css">*{stroke-linejoin: round; stroke-linecap: butt}</style>
 </defs>
 <g id="figure_1">
  <g id="patch_1">
   <path d="m0 247.88h371.52v-247.88h-371.52v247.88z" fill="none"/>
  </g>
  <g id="axes_1">
   <g id="PatchCollection_1">
    <defs>
     <path id="m373af3b244" d="m146.91-221.36 1.7043 2.2009 1.1633 1.6496 0.34632 0.55634 0.35788 0.64144 0.4468 0.98052 0.23843 0.69766 0.19592 0.71344 0.65099 2.9094 0.1918 0.72037 0.9984 3.0141 0.2541 1.0901 0.15018 0.98492 0.11579 1.2246 0.12208 2.5838 0.082162 1.0357 0.076863 0.56236 0.12889 0.61938 0.17952 0.59031 0.29014 0.65273 0.19893 0.32762 0.22334 0.29148 0.34742 0.33738 0.24332 0.17448 0.23671 0.13104 0.24029 0.096024 0.15814 0.038667 0.13456-0.014193 0.62536-0.53373 0.39987-0.30565 0.59872-0.40766 0.81834-0.45274 0.78277-0.32111 0.64406-0.1923 0.67031-0.14462 0.75906-0.10863 0.77248-0.062368 1.431-0.020284 2.6645 0.076647 0.9764-0.044165 0.87495-0.11622 0.85428-0.18715 0.76922-0.22637 0.6544-0.23042 0.94146-0.37604 4.8846-2.1931 1.5735-0.63801 0.9855-0.29403 0.54321-0.096502 0.53318-0.031912 0.86692 0.11837 0.40812 0.14248 0.46871 0.2429 0.4895 0.35407 0.67383 0.66459 0.4855 0.59722 0.46596 0.64641 0.84444 1.2673 0.95433 1.4922 1.9109 3.1064 0.61127 0.88006 0.3615 0.44212 0.41294 0.41872 0.41587 0.32008 0.47451 0.24527 0.5878 0.13863 0.71122-0.058462 0.47216-0.17264 0.45182-0.27184 0.38248-0.32514 0.35141-0.39483 0.31159-0.45504 0.27025-0.51237 0.24497-0.62434 0.18624-0.6783 0.13432-0.79822 0.062346-0.84097-0.004586-0.83259-0.061055-0.84886-0.10688-0.83586-0.14185-0.82666-0.65909-2.9692-0.066452-0.41182 0.030652-0.085146-0.015779-0.039643 0.028352-0.096668 0.052462-0.071298 0.32802-0.27238 0.29163-0.17591 0.41351-0.20463 0.59148-0.23596 0.99407-0.29595 0.73721-0.15734 0.76297-0.115 1.2215-0.087655 0.98927 0.019674 1.376 0.19053 1.177 0.37239 0.6958 0.35959 0.48464 0.34421 0.78824 0.80646 0.50744 0.74317 0.46586 0.87441 1.2609 2.8319 0.81283 1.6672 0.70013 1.2425 0.48485 0.70479 0.30675 0.37484 0.50052 0.5027 0.58589 0.46428 0.59531 0.39361 1.685 1.0204 1.0127 0.671 0.99833 0.75508 0.87966 0.78757 0.37326 0.3836 0.48713 0.55782 0.52222 0.66906 0.74804 1.0406 0.64699 0.97524 1.8362 3.0012 0.61092 0.89203 1.0407 1.3419 1.0915 1.2632 0.74831 0.7883 0.54495 0.52476 0.72429 0.63504 0.75877 0.59808 0.99101 0.69186 0.72366 0.45277 1.49 0.82298 0.7629 0.3716 1.5296 0.64888 1.4449 0.49942 1.2521 0.35112 1.4805 0.33758 1.4089 0.26878 2.8123 0.45372 3.3877 0.50574 3.5323 0.49779 2.9493 0.36005 1.5861 0.16286 1.8951 0.14657 1.8133 0.081538 1.6881-0.018074 0.63777-0.04377 0.65238-0.083339 0.47133-0.10938 0.12401-0.048721 0.056753-0.07167 0.10629 0.011414 0.41909-0.11535 0.4844-0.21229 0.61155-0.31017 2.2899-1.3826 0.81978-0.52478 0.7564-0.56185 0.58249-0.52036 0.79242-0.84016 1.0546-1.2106 0.70201-0.66534 0.38552-0.30576 0.45088-0.29062 0.36967-0.15918 0.28459-0.082712 0.29516-0.056056 0.39145-0.032596 0.39902 0.012939 0.59512 0.10696 0.47129 0.1606 0.46109 0.21819 0.43992 0.26138 0.42783 0.29735 0.79661 0.64038 1.2192 1.0465 0.68556 0.4877 0.3944 0.19849 0.45989 0.1298 0.47747 0.038793 0.48275-0.046513 0.47552-0.13176 0.61804-0.30188 1.1643-0.66508 0.86742-0.40594 1.5717-0.62029 0.80852-0.26534 0.14137-0.014885 0.27437 0.10802 0.70464-0.090531 0.81949-0.17885 4.1589-1.0817 0.99708-0.22424 0.87769-0.16659 0.9056-0.13741 0.94711-0.10656 0.7244-0.045745 0.69009-0.002112 0.61768 0.046276 0.53502 0.093083 0.30935 0.084489 0.49902 0.18658 0.52124 0.25515 0.62643 0.37027 1.5171 0.95789 0.51332 0.34231 0.46132 0.40743 0.14805 0.17167 0.42109 0.67741 0.34082 0.81107 0.29178 0.90252 0.75216 2.6023 0.41773 1.1266 0.3117 0.66143 0.29188 0.50545 0.38246 0.5246 0.53027 0.52102 0.70982 0.4377 0.84259 0.3182 0.92393 0.2024 0.98204 0.097091 1.0207-0.005356 1.0426-0.11246 0.6421-0.12509 0.91325-0.24593 1.1688-0.42047 1.0321-0.46588 1.0339-0.55428 0.843-0.5193 0.69567-0.4766 0.68287-0.50764 1.5261-1.2471 1.6155-1.4143 0.99837-0.91542 1.447-1.4367 0.74402-0.80605 2.612-2.9791 0.91392-0.93991 0.93296-0.79725 0.91252-0.6033 0.8984-0.45887 0.81157-0.31291 0.62727-0.15426 0.31669 0.040718 0.093994 0.020375 0.096107 0.082146 0.37106 0.47014 0.38578 0.61029 0.64013 1.1443 0.43553 0.86529 0.54319 1.2143 0.71441 1.8644 0.70129 2.1598 0.83913 3.1327 0.33437 1.3964 0.47616 2.3748 0.38688 1.6079 0.27224 0.92092 0.27568 0.81738 0.44799 1.1104 0.46976 0.93803 0.31212 0.53231 0.34562 0.52466 0.71975 0.95848 1.8862 2.302 0.48507 0.64521 0.45967 0.66552 0.72852 1.1726 1.6876 2.9625 1.355 2.1526 0.66501 1.2899 0.5924 1.3593 0.76671 1.9777 0.68248 1.9439 0.29396 0.99763 0.22478 0.9225 0.18502 0.93584 0.14713 0.94614 0.11313 1.0559 0.042054 1.1399-0.02384 1.1601-0.066407 1.1788-0.17588 2.4065-0.26286 4.2988-0.25818 2.5482-0.14554 1.0584-0.27698 1.7038-0.020013 0.28664-0.32698 0.25358-0.4715 0.78603-0.31935 0.69349-0.42984 1.0869-0.51828 1.5424-0.56389 1.8171-0.26401 0.93802-0.85166 3.3432-0.39595 1.3862-0.27487 0.82627-0.35831 0.93586-0.421 0.94607-0.45013 0.88209-0.50693 0.88554-0.67532 1.0692-1.6501 2.4425-0.50034 0.78226-0.52097 0.87968-0.41529 0.78172-0.3758 0.81996-0.24444 0.63938-0.27364 0.96524-0.15498 1.0201-0.15482 2.0311-0.15168 1.0314-0.2729 0.99675-0.3044 0.70908-0.37974 0.67564-0.32528 0.48519-0.4657 0.59531-0.64542 0.67592-0.69291 0.59031-1.5224 1.1838-0.78808 0.67052-1.8138 1.6218-0.53064 0.40436-0.49211 0.31183-0.57969 0.28777-0.5309 0.18965-0.93418 0.18106-0.97025 0.026327-0.79645-0.087367-0.39688-0.079012-0.73302-0.19483-0.60577-0.19402-3.5347-1.2828-1.9929-0.67955-1.2129-0.35759-0.90426-0.22773-1.1291-0.22535-0.50978-0.077192-1.3051-0.13906-0.92095-0.059804-3.2999-0.13977-1.0241-0.099417-0.50418-0.075683-0.97794-0.18874-1.1567-0.28786-0.95729-0.31598-2.0122-0.79524-0.39381-0.11807-0.58825-0.1207-0.31503-0.030999-0.49026 0.008363-0.48825 0.076813-0.85032 0.25786-2.9305 1.2427-1.5816 0.63458-2.4193 1.1093-0.95854 0.34743-1.0209 0.24413-1.1071 0.1763-1.0573 0.097127-0.56874-0.025418-0.51043-0.095781-0.43094-0.13802-1.7935-0.81273-0.6947-0.28051-1.3511-0.49364-3.9785-1.2959-3.5216-1.2606-4.0884-1.3981-0.92923-0.26768-0.64964-0.12761-0.4083-0.037588-0.49137 0.020925-0.70415 0.24471-0.28087 0.22162-0.20532 0.27308-0.13438 0.3513-0.055446 0.31885-0.049855 1.4987 0.007671 0.35765 0.076854 0.87266 0.11773 0.68758 0.71818 3.1725 0.11561 0.73726 0.053378 0.74479-0.031897 0.77248-0.11252 0.78256-0.27287 1.1195-0.37737 1.1266-0.49823 1.2282-0.5597 1.2246-0.87167 1.7558-1.679 3.2548-0.45774 0.96359-0.68236 1.5346-0.31759 0.60447-0.72508 1.1679-0.39494 0.56118-0.73472 0.95035-0.6145 0.71379-0.71731 0.75065-0.76531 0.70843-1.0801 0.85808-1.1318 0.79186-1.8547 1.2131-0.92744 0.55561-0.81762 0.43686-0.89646 0.4129-0.91957 0.34227-0.944 0.25354-1.3923 0.19037-1.4328 0.044999-5.5217-0.12738-2.3781 0.004212-1.0742-0.060454-1.1497-0.20183-1.1597-0.31624-3.265-1.1146-0.85608-0.25481-0.57048-0.14254-0.15002 0.002416-0.15307 0.29713-0.15844 0.74096-0.14473 1.0116-0.10604 1.1604-0.12392 2.3935-0.087664 0.8401-0.13222 0.8234-0.22142 0.97139-0.26281 0.92238-0.31024 0.92897-0.2712 0.64156-0.4035 0.73215-0.2732 0.39608-0.73303 0.84656-1.7333 1.6808-1.9072 1.6631-0.42512 0.50098-0.1879 0.3062-0.15815 0.33218-0.19855 0.59024-0.51322 2.3026-0.2304 0.76052-0.20256 0.51408-0.3207 0.64261-0.35989 0.6275-1.2772 2.0578-0.8354 1.4469-0.42392 0.54334-0.51179 0.46639-0.59207 0.34429-0.57796 0.1718-0.41251 0.049914-0.72567-0.048554-0.74557-0.19154-0.73851-0.30476-1.3419-0.73214-0.82224-0.40388-2.0697-0.90118-0.94063-0.38254-1.1555-0.33619-1.2459-0.23064-1.2981-0.13208-1.3151-0.032707-1.2979 0.075627-1.2446 0.20164-1.1511 0.35484-0.72304 0.34728-0.62045 0.37791-1.6514 1.2147-0.48148 0.32686-0.42069 0.22957-0.30579 0.10632-0.21572 0.023131-0.18211-0.026337-0.3026-0.15103-0.34621-0.24697-0.2908-0.16355-0.34477-0.12205-0.24877-0.042888-0.34466-0.018827-1.5297 0.059051-1.7708 0.2242-0.70023 0.051574-0.70428-0.020997-1.3342-0.14052-0.76404-0.003787-0.67141 0.12086-0.65215 0.26346-0.6287 0.44031-0.56756 0.56988-0.50582 0.65233-0.44069 0.69178-0.95465 1.8557-0.45959 0.59567-0.59876 0.49186-0.64731 0.31679-0.73111 0.23343-1.6029 0.38896-0.68954 0.19341-0.67494 0.23083-0.69029 0.29336-0.63968 0.3271-1.7906 1.1048-0.44872 0.43833-0.22258 0.60166-0.013782 0.7198 0.15446 1.5724-0.085974 0.75323-0.30547 0.60997-0.50281 0.48481-0.63721 0.3253-1.4838 0.47578-0.78432 0.19287-0.81871 0.11352-0.68949 0.005838-0.68639-0.062068-0.63097-0.10208-1.4259-0.30876-0.5867-0.068332-0.5238 0.055148-0.42876 0.17176-0.44146 0.38193-0.32026 0.49932-0.19026 0.52309-0.035643 0.45054 0.014284 0.068574-0.086875-0.028244-0.048539-0.06926-0.056738-0.18161-0.043905-0.54504 0.025544-0.57031 0.18142-1.372 0.33068-1.5502 0.35808-1.2512 0.29616-0.88988 1.5684-4.1414 0.43143-1.2341 0.50426-1.7609 0.24171-1.3058 0.063016-0.87516-0.012096-0.9026-0.11606-0.90442-0.33696-1.4422-0.27335-0.78096-0.26051-0.49834-0.34096-0.44233-0.64138-0.51495-0.50978-0.27782-0.56558-0.23845-0.64521-0.21627-0.68456-0.18707-1.2945-0.28168-3.9578-0.70603-1.2974-0.31061-0.65884-0.21093-0.44628-0.18157-0.69545-0.40183-0.51447-0.50654-0.34087-0.54854-0.1416-0.35112-0.062736-0.3539 0.024219-0.30886 0.091529-0.30504 0.3077-0.58418 0.44758-0.63476 1.1424-1.3479 0.50969-0.65811 0.46782-0.67769 0.33438-0.58388 0.24491-0.57618 0.11524-0.4367 0.059182-0.41814 3.67e-4 -0.54891-0.14548-0.49147-0.18404-0.26766-0.22308-0.223-0.42365-0.31481-0.5337-0.31856-1.2348-0.67458-2.7044-1.551-2.5076-1.3941-1.455-0.77909-1.4012-0.71282-1.9496-0.9049-1.4108-0.56508-1.8517-0.61002-3.4581-0.95935-4.5638-1.4156-3.2138-0.89325-1.0955-0.34064-2.1654-0.73719-1.0833-0.29315-1.0068-0.16406-0.66886-0.048662-0.64926 2.62e-4 -0.63106 0.04925-0.7671 0.13972-0.63365 0.19574-0.6065 0.24998-0.76324 0.39302-0.56566 0.36387-0.51086 0.38552-0.44139 0.38265-0.3689 0.38014-0.35819 0.44036-0.16286 0.26757-0.50888-0.26684-2.5882-1.489-3.0924-1.5995-1.547-0.86086-0.96462-0.61882-1.6651-1.2461-0.61521-0.42458-0.58332-0.35861-0.81125-0.36605-0.47785-0.1182-0.48123-0.021233-0.4464 0.093506-0.41896 0.19261-0.42528 0.29801-0.48962 0.43804-3.2799 3.577-0.58648 0.86388-0.45458 0.9336-0.83739 2.3414-0.29245 0.70043-0.36122 0.59323-0.21059 0.18082-0.39769 0.084128-0.28723-0.10725-0.26251-0.23638-0.080563-0.10149-0.35912-0.65025-0.75046-1.7791-0.33016-0.88404-0.29269-0.99692-0.17134-0.68596-0.98526-4.2905-0.53872-1.9619-0.22572-0.71882-0.4775-1.3289-0.45436-1.1092-0.35593-0.79124-0.41717-0.70562-0.35615-0.45825-0.27444-0.28135-0.56903-0.43828-0.60893-0.40075-0.63624-0.47376-0.28774-0.24403-0.57953-0.57222-0.43238-0.53994-0.14164-0.21534-0.29248-0.55254-0.5095-1.241-0.1476-0.44208-0.12639-0.68786 5.68e-4 -0.5112 0.052973-0.47496 0.10632-0.46854 0.26034-0.67623 0.30671-0.68732 0.3002-0.83286 0.16994-0.686 0.075079-0.90991-0.039116-1.9935 0.012841-0.53388 0.11355-1.0533 0.24322-1.0117 0.2831-0.7502 0.45253-1.0838 0.23133-0.72238 0.12659-0.74584-0.037542-0.96686-0.2226-0.97542-0.35988-0.95764-0.39265-0.77337-0.50043-0.70696-0.70403-0.67191-0.83226-0.59468-1.5222-0.91496-0.91508-0.48817-2.745-1.3718-1.0074-0.5583-0.95295-0.61003-0.55447-0.41526-0.64723-0.56277-2.4788-2.4093-0.53044-0.55189-0.42317-0.50893-0.27833-0.41286-0.28294-0.60745-0.09594-0.49614 0.11273-0.29107-0.098195 0.13969-0.29179 0.16402-0.49014 0.18951-0.62012 0.17707-0.71971 0.14679-0.77895 0.098536-1.0151 0.036987-0.86678-0.05322-0.84854-0.13579-0.77467-0.20903-0.72631-0.28498-1.0935-0.656-0.75129-0.71947-0.4634-0.66963-0.29312-0.628-0.1708-0.56025-0.11685-0.67832-0.04669-0.71113 0.003468-2.5935-0.068843-0.66871-0.13057-0.57-0.17287-0.46003-0.45439-0.73609-0.52229-0.52019-0.79217-0.50134-0.85596-0.32308-0.78372-0.1697-0.96866-0.10615-1.7179-0.087061-0.68112-0.058083-0.70402-0.11591-0.56706-0.15863-0.6141-0.24678-0.59973-0.3155-0.52351-0.32554-0.656-0.45033-1.3757-0.98261-0.92288-0.58883-0.3515-0.1948-0.63036-0.30351-0.53823-0.22636-1.6245-0.60902-0.66793-0.22655-0.51898-0.14935-0.4935-0.10576-0.54225-0.076655-0.93932-0.078645-1.7828-0.069496-0.74547-0.060458-0.73603-0.10343-1.1123-0.20612-2.5724-0.34839-0.59182-0.10511-0.57644-0.13503-0.87436-0.30782-0.83879-0.51621-0.13366-0.11852-0.5559-0.65734-0.31317-0.51102-0.4192-0.88164-0.26209-0.68138-0.3426-1.0549-0.36015-1.3279-0.30086-1.3214-0.20578-1.0483-0.67261-4.0008-0.26968-1.4049-0.34354-1.4661-1.5392-5.8602-0.40885-1.6419-0.56537-2.5365-0.2458-1.2955-0.27102-1.8333-0.12632-1.366-0.042578-1.1782 0.024656-1.1459 0.12788-1.3183 0.25993-1.3693 0.33158-1.1671 0.17806-0.44409 0.12835-0.16762 0.35614 0.28929 0.8783 0.37577 1.0453 0.29574 1.1178 0.16049 0.65541 0.00912 0.47156-0.039153 0.86645-0.18302 0.89075-0.33908 1.0809-0.62826 0.56158-0.43614 0.51754-0.4867 0.66876-0.7984 0.56945-0.94367 0.24442-0.55251 0.20825-0.586 0.28576-1.0886 0.14072-0.77201 0.10194-0.78342 0.095872-1.2675 0.077459-3.1121 0.14803-1.5277 0.096059-0.65171 0.23695-1.1541 0.37618-1.0921 0.22326-0.43917 0.2278-0.37478 0.47618-0.65457 0.55336-0.62636 0.33314-0.32414 0.42373-0.36191 0.51546-0.36977 0.75344-0.42526 0.79296-0.33467 0.58416-0.18342 0.36027-0.086161 0.66656-0.10161 0.52686-0.021512 0.58429 0.051458 0.37326 0.07904 0.62474 0.20006 1.4594 0.62432 0.39681 0.11856 0.61125 0.079917 0.53392-0.007456 0.6517-0.079458 0.61045-0.1339 0.68211-0.21023 0.6955-0.26441 1.2686-0.56094 2.7656-1.3013 1.0524-0.41108 0.70642-0.20287 0.55733-0.090851 0.65825-0.008112 0.65781 0.097246 1.0726 0.37389 0.61935 0.32175 0.60859 0.37935 2.2043 1.5775 0.84733 0.57465 5.0674 3.118 1.3382 0.92019 1.1633 0.87253 1.2035 0.83845 0.5488 0.3425 0.76699 0.41912 0.6221 0.27718 0.3643 0.13075 0.39021 0.11286 0.78467 0.14077 0.64026 0.020825 0.35671-0.03001 0.42516-0.085025 0.2265-0.075332 0.3406-0.17874 0.34867-0.3425 0.2513-0.45963 0.11297-0.43521 0.037325-0.36489 0.001079-0.35995-0.021811-0.32081-0.085414-0.58166-0.24874-0.97237-0.35455-0.96052-0.61754-1.2883-0.75371-1.3629-0.67023-1.0463-0.81863-0.96825-0.96404-0.92817-1.0587-0.90039-3.3206-2.6404-1.0194-0.89402-0.89875-0.91979-0.7192-0.95947-0.46672-1.0159-0.14484-0.80572 0.005952-0.83545 0.091174-0.69274 0.14971-0.69862 0.37383-1.2676 0.26067-0.73044 0.29303-0.70301 0.72518-1.4492 0.45516-1.0416 0.2747-0.78734 0.073671-0.24996 0.16623-0.7912 0.031474-0.83074-0.035066-0.32025-0.083032-0.37244-0.15062-0.38511-0.18654-0.29946-0.21183-0.22997-0.27582-0.20221-0.47602-0.19399-0.26149-0.046326-1.1372-0.071446-0.337-0.10023-0.30095-0.18101-0.12349-0.11827-0.19381-0.26707-0.15298-0.31949-0.12212-0.42043-0.037153-0.30174 0.002852-0.36982 0.071114-0.51993 0.1216-0.49396 0.20343-0.60549 0.24301-0.58087 0.24189-0.49164 0.23477-0.41914 0.38614-0.59645 0.47222-0.6093 0.59646-0.62387 0.46638-0.39194 0.49551-0.33293 0.78737-0.36112 0.74104-0.16963 0.74009-0.064854 0.55207-0.011424 3.6965 0.10768 0.84657 0.058236 1.0817 0.1601 0.94286 0.20137 2.5755 0.66849 1.4767 0.34891 0.62495 0.11221 0.59968 0.071359 0.67165 0.016433 0.70014-0.083024 0.55119-0.15686 0.67136-0.29891 0.83764-0.53117 0.49448-0.39689 0.43877-0.41013 0.53702-0.60581 0.22383-0.33251 0.071246-0.22777 0.127-0.04355 0.22598-0.010293 1.3536 0.075859 1.6998 0.21142 2.0073 0.3207 1.0819 0.11087 0.54368 0.01284 0.70763-0.035634 0.77561-0.10999 0.39844-0.084587 0.84566-0.23015 0.946-0.31421 4.0058-1.4501 2.6073-0.83748 6.5927-1.9217 1.7592-0.55078 0.64462-0.1763 0.69979-0.13006 0.69947-0.027836 0.80607 0.13191 0.76666 0.24489 1.3726 0.50944 0.57116 0.16705 0.38834 0.08177 0.76396 0.076596 0.36525 0.00367 0.62942-0.035809 0.64171-0.093451 0.72368-0.18438 0.38763-0.1382 0.56726-0.25655 0.53456-0.30251 0.70465-0.48148 0.70017-0.55294 1.9254-1.6839 0.74281-0.60479 0.60111-0.42356 0.7955-0.45843 0.85273-0.39685 0.70372-0.2762 0.7299-0.25176 0.93042-0.28506 4.4802-1.1857 1.8572-0.56045 2.1419-0.73374 2.7033-0.97778 0.21053 1.9453 0.26299 1.6215 0.21235 0.92049 0.19035 0.6638 0.22508 0.64122 0.26871 0.61217 0.33503 0.60667 0.37699 0.57807 0.82401 1.112" stroke="#bdc660"/>
    </defs>
    <g clip-path="url(#p60b540dc12)">
     <use y="247.8755" fill="#bdc660" stroke="#bdc660" xlink:href="#m373af3b244"/>
    </g>
   </g>
  </g>
 </g>
 <defs>
  <clipPath id="p60b540dc12">
   <rect x="7.2" y="7.2" width="357.12" height="233.48"/>
  </clipPath>
 </defs>
</svg>
