<?xml version="1.0" encoding="UTF-8"?>
<!DOCTYPE svg  PUBLIC '-//W3C//DTD SVG 1.1//EN'  'http://www.w3.org/Graphics/SVG/1.1/DTD/svg11.dtd'>
<svg width="371.52pt" height="215.38pt" version="1.1" viewBox="0 0 371.52 215.38" xmlns="http://www.w3.org/2000/svg" xmlns:xlink="http://www.w3.org/1999/xlink">
 <metadata>
  <rdf:RDF xmlns:cc="http://creativecommons.org/ns#" xmlns:dc="http://purl.org/dc/elements/1.1/" xmlns:rdf="http://www.w3.org/1999/02/22-rdf-syntax-ns#">
   <cc:Work>
    <dc:type rdf:resource="http://purl.org/dc/dcmitype/StillImage"/>
    <dc:date>2024-07-04T12:10:54.983748</dc:date>
    <dc:format>image/svg+xml</dc:format>
    <dc:creator>
     <cc:Agent>
      <dc:title>Matplotlib v3.7.1, https://matplotlib.org/</dc:title>
     </cc:Agent>
    </dc:creator>
   </cc:Work>
  </rdf:RDF>
 </metadata>
 <defs>
  <style type="text/css">*{stroke-linejoin: round; stroke-linecap: butt}</style>
 </defs>
 <g id="figure_1">
  <g id="patch_1">
   <path d="m0 215.38h371.52v-215.38h-371.52v215.38z" fill="none"/>
  </g>
  <g id="axes_1">
   <g id="PatchCollection_1">
    <defs>
     <path id="m1d05185aee" d="m348.09-80.521-0.45457 0.7471-0.50345 0.97153-0.71509 1.7009-0.33819 1.1151-0.65052 2.8693-0.51794 1.8784-0.95144 2.8094-1.0649 2.815-0.68083 1.6738-0.74103 1.6367-0.56157 1.0483-1.078 1.7627-1.2558 2.7012-1.2906 2.4083-0.3188 0.83989-0.16971 0.62839-0.33108 2.0713-0.59278 0.37526-2.3637 1.0669-1.9388 0.77334-1.1821 0.40667-3.1216 0.84297-5.7078 1.2223-2.0763 0.6016-2.0185 0.72793-1.4019 0.56834-3.7564 1.62-1.3332 0.50686-1.3373 0.43078-1.3446 0.34164-0.94966 0.17862-3.1465 0.45688-1.4667 0.2806-2.0567 0.59143-1.8714 0.77769-1.6216 0.98433-0.42696 0.344-0.86991 0.86927-0.7925 1.1937-0.22019 0.53858-0.22186 0.94705-0.07991 0.95353-0.009961 2.7154-0.053683 0.8443-0.17613 0.72948-0.26206 0.40817-0.6239 0.35742-0.91026 0.074553-0.94428-0.25013-3.2199-1.4417-1.4494-0.57554-1.5324-0.68656-1.723-1.0159-1.7842-1.2375-5.5966-4.138-3.2122-2.2388-3.128-2.0333-2.0115-1.0927-1.2952-0.54428-1.2996-0.35766-1.4793-0.12659-1.4746 0.16327-1.6383 0.51073-1.5949 0.77523-1.555 0.95206-3.2056 2.2091-1.6302 0.99372-1.8678 0.8905-1.5238 0.60454-1.5473 0.46662-1.2333 0.23421-1.2473 0.14842-1.2141 0.090056-1.2306 0.010022-1.7358-0.16215-0.92554-0.14677-4.5719-0.9867-2.299-0.38608-2.3593-0.11675-2.4495 0.12219-2.5161 0.3122-2.5637 0.46469-2.5958 0.58937-10.545 2.9154-1.5873 0.36847-12.299 2.5483-9.0896 2.0664-3.1457 0.77229-2.9772 0.80796-5.7611 1.7304-7.9759 2.6257-0.63523 0.21745-1.4839 0.3601-2.0142 0.42424-4.131 0.71038-2.7411 0.31246-2.1161 0.088286-1.7714-0.080627-1.7508-0.19363-3.9448-0.55692-2.2366-0.18362-2.2423-0.057573-3.1872 0.11379-7.8576 0.69527-2.5209 0.39029-1.6243 0.3959-1.5531 0.47067-4.1178 1.455-2.4915 0.8062-2.2718 0.48377-1.4002 0.092285-1.3627-0.097503-1.4526-0.32846-1.4262-0.48566-2.895-1.0976-3.2485-1.0415-1.6932-0.47532-2.6103-0.60357-3.0694-0.51327-1.3632-0.14944-1.087-0.058262-1.0088 0.009928-0.79797 0.067266-0.71471 0.1124-1.1611 0.28376-2.1541 0.7842-0.68332 0.21893-0.68082 0.13576-0.91086 0.002822-0.82538-0.19057-0.45635-0.21251-0.3608-0.27178-0.089293-0.096356-0.32404-0.83126 0.061308-0.56234 0.2295-0.67094 1.493-3.1029 0.40042-1.1409 0.31245-1.1384 0.38769-1.8077 0.16151-1.0461 0.17195-1.8471 0.069551-1.7405-0.093408-1.4864-0.45007-1.9025-0.51506-1.2574-0.55912-1.0428-0.78375-1.1745-1.1974-1.4035-1.5684-1.4475-1.2245-0.9394-1.0938-0.6807-0.94486-0.48745-1.1113-0.47338-6.2285-2.0672-2.9067-1.1237-2.5407-1.2815-2.1687-1.3905-1.4481-1.0733-1.9147-1.5766-1.8235-1.6715-1.9523-2.0332-1.0101-1.2094-0.89456-1.2391-0.81143-1.38-0.5088-1.172-0.35027-1.1837-0.16692-0.81499-0.13928-1.3039 0.006325-1.03 0.10469-1.0072 0.20008-1.028 0.25728-0.93074 0.46208-1.3059 0.4167-0.92453 0.48504-0.89158 0.5261-0.84076 1.047-1.4373 3.9479-4.6667 1.1263-1.4458 1.1319-1.6026 0.93899-1.4736 0.55603-0.97345 0.48738-0.96146 0.73038-1.7621 0.35356-1.0853 0.45314-1.8832 0.16102-1.0542 0.094333-1.4251-0.083087-1.4556-0.20726-1.1266-0.25464-0.8829-0.3069-0.81896-0.46102-0.99687-0.9745-1.6711-0.89637-1.2596-0.7959-0.9685-1.3456-1.4195-1.7592-1.6069-2.2794-1.8797-3.1516-2.5026-4.7866-3.5762-1.1677-0.99186-0.84981-0.80561-0.90239-0.95909-0.95499-1.1745-1.4319-2.1746-1.2181-2.3831-0.55844-1.3137-0.50674-1.344-0.66824-2.0492-0.78402-3.0269-1.1865-6.107-0.59881-2.5728-0.35996-1.241-0.74311-2.1446-1.9326-4.6785-1.6704-3.6012-1.8143-3.5794-2.0576-3.7788-4.4019-7.8139-0.92228-1.5117-0.94324-1.3011-0.52306-0.59433-0.46191-0.42832 0.45496 0.17621 1.0237 0.28943 1.1832 0.23736 1.2711 0.13441 1.3061-0.015011 1.1368-0.16638 1.2573-0.35439 1.0276-0.42172 0.56368-0.28295 1.2899-0.79111 0.68728-0.49952 2.246-1.8106 0.72663-0.53606 0.7743-0.49007 0.56888-0.2856 0.59053-0.21122 0.84153-0.11744 1.0194 0.15724 1.0213 0.41255 1.0182 0.58718 3.9723 2.7812 1.49 0.81868 1.0056 0.4097 1.7184 0.47355 0.72838 0.094036 0.93092-0.025603 1.5282-0.28886 2.2075-0.64852 2.2068-0.77846 2.328-0.94144 1.808-0.83125 3.9724-2.0659 6.9839-3.9126 2.4497-1.3247 3.0021-1.512 2.5458-1.1484 2.0623-0.83491 1.7173-0.63037 2.773-0.9104 4.575-1.4116 2.8288-0.94525 1.3925-0.52698 0.54972-0.26423 0.050627-0.064079 3.9651-3.2927 1.4693-1.1078 1.5661-1.0981 2.2934-1.445 2.2696-1.2108 2.2858-0.95134 2.0629-0.57678 1.8102-0.26735 1.6814-0.10259 2.517 0.004041 2.1197 0.17043 2.1647 0.31162 1.6678 0.33429 1.7287 0.49127 1.5818 0.58648 0.67144 0.29775 1.8871 1.0219 3.1209 2.058 2.4771 1.815 2.5101 2.0031 2.7067 2.2928 2.6698 2.371 4.8207 4.4119 3.1708 2.7326 3.6116 2.838 1.6753 1.1908 1.7171 0.99623 0.49232 0.22842 1.4903 0.55558 1.5571 0.43148 5.6395 1.1686 1.4887 0.37345 1.2341 0.38081 1.4579 0.57311 1.7561 0.91956 1.1197 0.69905 2.1423 1.4706 4.2222 3.0333 2.2386 1.5568 2.0207 1.3283 5.0074 3.0778 3.4056 1.9132 1.9328 0.9743 1.232 0.56544 2.4871 1.0157 1.553 0.56089 1.5662 0.51534 3.1792 0.9116 3.1134 0.75271 1.9927 0.36548 1.6898 0.24158 2.3367 0.24888 3.5549 0.22232 3.7728 0.049655 4.8263-0.13853 4.0707-0.20788 4.4809-0.41306 7.1306-1.0154 2.0132-0.24588 2.0178-0.16783 1.3238-0.052024 2.1411 0.02275 2.5184 0.21036 2.4955 0.42804 2.2871 0.6399 1.0275 0.39689 0.8703 0.41064 3.0236 1.6586 0.67648 0.30014 0.99173 0.34425 0.87863 0.21274 0.89554 0.12899 0.82213 0.045964 1.0034-0.035874 1.2439-0.21555 1.1217-0.36986 0.88824-0.41842 0.5417-0.31388 1.013-0.71161 3.9484-3.2197 1.5043-1.1097 2.135-1.346 2.2601-1.1103 2.3665-0.91616 2.4119-0.75491 2.2447-0.56286 2.2077-0.3662 2.1423-0.081716 2.0448 0.31104 2.1091 0.89334 1.986 1.3684 1.8947 1.7174 1.828 1.9701 1.7797 2.1505 1.745 2.2774 3.3799 4.7299 3.2849 4.8309 4.3848 6.6354 5.326 8.259 2.7065 4.3706 4.1914 7.02 1.2523 2.2104 1.1055 2.146 0.59739 1.3582 0.46305 1.3318 0.36976 1.329 2.1338 8.6006 0.65453 1.7974 0.87837 1.8491 0.78801 1.3927 0.94022 1.496 0.87335 1.268 0.91687 1.1981 1.426 1.675 1.7815 1.8981 1.06 1.0287 0.4882 0.32362" stroke="#bdc660"/>
    </defs>
    <g clip-path="url(#pf2126a72d4)">
     <use y="215.380213" fill="#bdc660" stroke="#bdc660" xlink:href="#m1d05185aee"/>
    </g>
   </g>
  </g>
 </g>
 <defs>
  <clipPath id="pf2126a72d4">
   <rect x="7.2" y="7.2" width="357.12" height="200.98"/>
  </clipPath>
 </defs>
</svg>
