<?xml version="1.0" encoding="UTF-8"?>
<!DOCTYPE svg  PUBLIC '-//W3C//DTD SVG 1.1//EN'  'http://www.w3.org/Graphics/SVG/1.1/DTD/svg11.dtd'>
<svg width="274.46pt" height="280.51pt" version="1.1" viewBox="0 0 274.46 280.51" xmlns="http://www.w3.org/2000/svg" xmlns:xlink="http://www.w3.org/1999/xlink">
 <metadata>
  <rdf:RDF xmlns:cc="http://creativecommons.org/ns#" xmlns:dc="http://purl.org/dc/elements/1.1/" xmlns:rdf="http://www.w3.org/1999/02/22-rdf-syntax-ns#">
   <cc:Work>
    <dc:type rdf:resource="http://purl.org/dc/dcmitype/StillImage"/>
    <dc:date>2024-07-04T12:10:56.226934</dc:date>
    <dc:format>image/svg+xml</dc:format>
    <dc:creator>
     <cc:Agent>
      <dc:title>Matplotlib v3.7.1, https://matplotlib.org/</dc:title>
     </cc:Agent>
    </dc:creator>
   </cc:Work>
  </rdf:RDF>
 </metadata>
 <defs>
  <style type="text/css">*{stroke-linejoin: round; stroke-linecap: butt}</style>
 </defs>
 <g id="figure_1">
  <g id="patch_1">
   <path d="m0 280.51h274.46v-280.51h-274.46v280.51z" fill="none"/>
  </g>
  <g id="axes_1">
   <g id="PatchCollection_1">
    <defs>
     <path id="m4449a55b2b" d="m144.45-246.27 0.63351 0.060241 0.65428-0.012457 0.69707-0.059123 1.9751-0.23868 0.96127-0.078275 0.87962-0.009264 0.8777 0.081431 1.2756 0.31401 0.65501 0.22835 1.3106 0.53279 3.0502 1.3234 1.5762 0.57613 0.88228 0.26456 0.74349 0.18463 1.0675 0.19529 0.42662 0.049821 1.2556 0.046698 1.5986-0.010337 0.32067 0.017446 0.63269 0.094958 0.62166 0.21687 0.23977 0.11898 0.74587 0.51994 0.44616 0.53969 0.20262 0.48023 0.33557 1.3572 0.1128 0.27782 0.24406 0.41334 0.27588 0.31733 0.38533 0.31728 0.34777 0.221 0.76805 0.37241 1.0377 0.35201 1.4826 0.3597 9.0754 1.8275 1.2196 0.22023 1.4306 0.20835 1.8702 0.15821 1.9103 0.031388 0.93932-0.032755 1.6508-0.1394 1.6721-0.23806 2.7703-0.48867 1.8123-0.25631 1.6069-0.17447 3.313-0.26929 1.8862-0.20981 1.7788-0.28443 1.6076-0.36063 3.9529-1.0952 0.91214-0.28129 2.7306-0.93556 2.6032-0.96064 1.2316-0.49041 1.4756-0.63869 4.9617-2.3745 1.4763-0.63974 1.5071-0.59779 1.0198-0.36986 1.0346-0.34283 1.8249-0.51495 1.1038-0.25292 1.7302-0.31188 1.5402-0.19137 1.5499-0.10365 1.5481-0.001602 0.86193 0.04953 1.9174 0.24736 1.7989 0.4216 0.87779 0.28876 0.60681 0.24098 0.93089 0.45858 0.50393 0.31857 0.24801 0.19099 0.32595 0.34468 0.062827 0.17286-0.02733 0.07494-0.86349 1.5453-0.46981 0.9849-0.44359 1.0928-0.30263 0.92312-0.23367 0.97151-0.10692 0.68335-0.058937 0.69488-0.007435 0.86388 0.057186 0.8632 0.17176 1.1915 0.16589 0.77617 0.33381 1.1916 0.40797 1.1689 0.44478 1.1013 0.96071 2.085 1.6029 3.0869 3.2388 5.8989 1.0153 2.0319 0.44829 0.98887 0.39459 0.97386 0.32317 0.95545 0.2294 0.9327 0.10763 0.90454-0.040917 1.0268-0.11396 1.0454-0.076978 1.059-0.11069 2.164-0.0768 0.957-0.13297 1.1375-0.17687 1.1546-0.41167 2.1087-0.47563 2.0227-0.66687 2.6144-0.69193 2.3431-0.37869 1.0253-0.3921 0.868-2.3637 4.5933-0.45206 0.95036-0.58287 1.3861-0.2183 0.66553-0.11211 0.54915-0.003136 0.31362 0.064272 0.19755 0.10268 0.054336-0.57206 0.038174-0.1594 0.083002-0.26537 0.26945-0.16937 0.40342-0.033813 0.23308 0.010069 0.33984 0.08437 0.4026 0.16758 0.38748 0.23177 0.323 0.29342 0.28443 0.64613 0.43563 1.0507 0.6478 0.67385 0.54547 0.31817 0.35058 0.24131 0.39222 0.1408 0.41936 0.035934 0.79075-0.21756 0.79802-0.12408 0.24788-0.37001 0.54771-1.2145 1.4993-1.2986 1.7174-0.67383 0.98333-0.5381 0.86438-0.56903 1.0567-0.48582 1.1808-0.19199 0.68758-0.1035 0.68461 0.042967 1.0122 0.23393 0.9583 0.36055 0.87346 0.8167 1.5386 0.17912 0.48151 0.10262 0.57354-0.056516 0.54891-0.26636 0.53966-0.4509 0.47792-0.59745 0.40382-0.70662 0.32456-0.93934 0.31337-0.65186 0.16071-1.1972 0.1795-1.2456 0.064217-1.2147-0.092538-0.83868-0.19601-1.5476-0.51634-0.70006-0.19688-0.63629-0.093439-0.5457 0.055919-0.38757 0.20842-0.26742 0.34806-0.15168 0.65894 0.010034 0.68643 0.23599 2.1495 0.027996 0.71782-0.049849 0.73531-0.17506 0.81722-0.29296 0.82607-0.46068 0.94517-0.57683 0.9301-0.45846 0.62516-0.50404 0.60597-0.62622 0.66007-0.67845 0.62129-0.47427 0.38481-1.0329 0.72488-1.2845 0.73827-1.1011 0.5248-1.1198 0.45274-0.90888 0.31512-3.3692 0.93584-0.81184 0.30087-0.79279 0.35531-0.89074 0.46671-0.85575 0.51254-2.2933 1.4571-1.3178 0.73948-1.3932 0.7061-1.2177 0.55575-1.2514 0.5185-1.5537 0.57128-1.5877 0.47887-1.0553 0.24823-1.064 0.20238-1.039 0.16049-1.7639 0.20112-4.4273 0.40949-0.7261 0.10692-1.0606 0.21147-1.4854 0.38794-2.8813 0.87038-1.3925 0.36039-2.4631 0.46627-0.70976 0.17772-0.74644 0.25885-0.72705 0.34903-1.1654 0.81672-1.0968 1.0594-1.0385 1.2437-0.93229 1.2899-2.5592 3.9219-0.5613 0.81022-0.48909 0.64896-0.37927 0.42617-0.21427 0.10314-0.031642 0.21509 0.11745 0.45225 0.3223 0.75378 1.0321 1.8857 1.268 2.1781 0.66542 1.072 0.71913 1.0178 0.78471 0.92067 0.86541 0.7806 1.1501 0.72795 2.4296 1.1871 1.224 0.6363 0.90623 0.55937 1.5002 1.1115 1.1757 0.94932 1.2232 1.0467 1.4369 1.3307 2.8023 2.7473 0.76285 0.78654 1.2569 1.4338 1.258 1.5063 2.7725 3.1187 0.33119 0.41704 0.26064 0.36413 0.54688 0.88324 0.48365 0.9332 1.6242 3.7311 0.56517 1.0162 3.783 5.7999 1.3286 2.3088 1.0574 2.0843 0.53893 1.2611 0.25829 0.74484 0.21646 0.80585 0.44745 1.9509 0.40751 1.243 1.3266 3.2687 0.27082 0.57837 0.4306 0.76755 0.63618 0.91558 1.1827 1.5248 0.53683 0.78058 2.1667 3.5908 0.53843 0.82178 0.64745 0.89144 0.71612 0.86021 0.74963 0.77704 1.0648 0.98571 3.1016 2.5655 1.4878 1.342 0.95468 1.0024 0.85232 1.0563 0.81117 1.2347 0.40578 0.7336 0.33155 0.69672 0.23069 0.56827 0.27198 0.81241 0.23819 0.9705 0.090132 0.55445 0.056668 0.77092-0.031121 0.67971-0.10989 0.69278-0.21318 0.86296-0.76953 2.7162-0.20872 1.0596-0.26849 1.726-0.22815 0.92814-0.35489 0.82036-0.393 0.54665-0.45593 0.42838-0.45568 0.19513-0.66922 0.55466-1.556 1.136-1.6874 1.0944-1.5772 0.89928-1.1075 0.56923-1.1381 0.54157-2.4932 1.0773-5.2264 2.1522-7.1205 2.8793-4.9116 2.1494-1.2875 0.53386-1.267 0.47676-1.2748 0.41439-1.1466 0.30076-1.1126 0.18356-1.0801 0.019408-1.0606-0.18066-1.0361-0.33875-1.361-0.60332-3.7771-2.0345-0.83782-0.37532-1.2195-0.467-0.88129-0.24609-0.90459-0.17138-1.1435-0.10047-0.94628 0.02205-0.60697 0.048886-1.8222 0.2431-3.2669 0.63339-1.0465 0.15947-1.0127 0.069998-1.2312-0.073658-1.0209-0.21763-0.98114-0.319-0.59608-0.22962-2.1031-0.95394-0.98614-0.40058-1.006-0.27638-0.45769-0.066199-0.99044-0.04067-1.928 0.063971-1.3158-0.033562-0.5222-0.06539-0.97153-0.22717-0.80269-0.26994-0.7778-0.36854-1.9676-1.2041-1.6638-1.0676-1.9194-1.331-3.3327-2.5765-4.5521-3.4593-1.0328-0.85863-0.98237-0.93314-0.42446-0.49883-0.33709-0.49965-0.2776-0.54256-0.29191-0.78702-0.16249-0.60411-0.11357-0.56474-0.23299-1.8-0.20775-1.2472-0.17142-0.62214-0.26053-0.66339-0.27178-0.52043-0.7499-1.0309-0.94652-0.96033-0.7659-0.65591-4.7346-3.5753-1.467-1.0463-1.4331-0.91999-4.9995-2.9364-1.2198-0.76759-1.606-1.1571-2.098-1.655-1.0639-0.80583-0.7773-0.54729-3.0944-2.0255-5.1174-3.1978-0.5935-0.42073-0.55575-0.44365-0.74394-0.7063-0.36523-0.41506-0.28476-0.38274-0.53135-0.94908-0.27661-0.67863-0.18049-0.5722-0.22989-1.1149-0.096998-0.81591-0.19426-2.6933-0.18717-1.3106-0.37132-1.2403-0.55459-1.0323-0.73344-0.96366-0.86571-0.91184-0.95852-0.87369-0.89136-0.74573-0.49627-0.39242-1.3008-0.92517-4.3617-2.7436-3.3639-2.2738-1.1053-0.66745-0.77786-0.3943-0.97075-0.38084-0.96304-0.24117-0.94182-0.077227-0.21233 0.00841-0.61462 0.079352-0.43428 0.10006-1.1126 0.37208-2.5282 1.0153-1.0171 0.49026-1.0438 0.56245-2.5315 1.5024-2.2256 1.4438-2.7872 1.9402-1.6682 1.2744-1.0893 0.899-1.2344 1.1207-0.7692 0.7903-4.5433 4.8851-1.0906 1.2228-0.93311 1.1161-0.67579 0.89926-0.25921 0.43622-0.016346 0.12054-1.7625 0.95723-1.5547 0.77047-1.7676 0.72344-0.69951 0.2355-1.1088 0.32239-1.122 0.26656-1.477 0.26086-1.4451 0.16032-1.3857 0.063073-1.4293-0.040969-1.1745-0.14183-1.2807-0.37915-1.0036-0.64855-0.59957-0.79932-0.41733-1.0658-0.18067-1.0203-0.033598-1.0974 0.058399-0.78873 0.19166-1.1933 0.27877-1.2242 0.72341-2.8007 0.3266-1.4523 0.28538-1.6293 0.20461-1.6449 0.10406-1.2836 0.056172-1.2782 0.007785-1.2665-0.068852-2.8358 0.04573-2.1126 0.89488-9.9039 0.1557-1.259 0.20672-0.98187 0.3014-0.96594 0.53795-1.2242 0.50342-0.90492 0.56808-0.86952 0.19365-0.26899 0.99226-1.1869 1.1226-1.0617 1.2289-0.90222 1.0367-0.59126 2.0933-1.0976 1.0665-0.69747 0.97603-0.78411 0.8558-0.84831 0.69755-0.89301 0.49086-0.92045 0.22284-0.93221-0.11016-1.0168-0.38495-1.0184-0.54573-1.0296-0.88772-1.5715-0.82085-1.6308-0.50756-0.84994-0.59104-0.84424-0.66694-0.82046-0.79466-0.83926-0.85153-0.78488-0.68981-0.57114-2.2456-1.7346-0.73614-0.63494-0.48838-0.51223-0.39066-0.49979-0.89836-1.3336-0.46297-0.63641-0.60366-0.6832-1.5062-1.4471-5.0948-4.6052-1.9955-1.8487-1.6468-1.6266-0.74322-0.80524-1.1514-1.3551-0.53869-0.6883-0.48216-0.71579-0.40272-0.73574-0.46582-1.156-0.41904-1.1651-0.5558-1.1465-0.86833-1.1357-1.1451-1.0966-1.3601-1.0658-1.5184-1.0371-1.6193-1.003-1.6536-0.95339-1.6008-0.87446-2.91-1.5115 0.083718-0.042248 0.39911-0.5866 0.33439-0.56517 1.1711-2.0849 1.214-2.2518 0.47018-0.79649 0.50961-0.77236 1.0691-1.3246 1.048-1.0027 1.018-0.78031 1.0159-0.63615 1.0644-0.54672 1.104-0.45874 0.96583-0.3217 0.98456-0.26363 0.87572-0.18834 0.88394-0.15469 1.786-0.23999 6.5209-0.66989 2.8145-0.33234 1.4223-0.22774 1.3895-0.28676 1.4778-0.39944 1.4129-0.48471 0.93581-0.38482 0.89056-0.41988 0.83791-0.45143 1.3632-0.8826 0.60904-0.46599 1.0903-0.91107 0.75672-0.5341 0.64647-0.36761 2.156-1.0595 0.56984-0.31846 0.73457-0.49728 0.4713-0.41398 0.35136-0.4008 0.26585-0.39283 0.30069-0.57613 0.29378-0.69669 0.34016-0.91802 1.0353-3.2037 0.34682-0.8901 0.41652-0.88123 0.95871-1.7842 0.64646-1.2892 0.87056-1.8843 0.50516-1.2098 0.32531-0.96432 0.18129-0.79647 0.10462-0.84831 0.10159-1.4515 0.11117-0.7649-0.032746-0.49367 0.075529-0.99869 0.080547-0.554 0.1443-0.67866 0.31127-0.98419 0.27758-0.64962 0.5227-0.95399 0.7336-1.0128 0.67988-0.72998 0.61554-0.53708 0.89959-0.62733 0.86951-0.47248 0.73945-0.3205 0.95774-0.32628 1.5038-0.35478 1.4646-0.20128 1.1379-0.075182 0.99738-0.013837 1.5461 0.067849 1.2345 0.11949 3.9848 0.54664 2.0534 0.17999 1.4063 0.024426 1.3188-0.063912 1.4465-0.17985 1.2716-0.26292 1.5382-0.46578 0.88995-0.34867 1.2823-0.60913 1.5013-0.84491 1.0577-0.55225 2.0487-0.88395 2.4301-0.89676 0.84413-0.42651 0.3984-0.27356 0.33284-0.28477 0.31538-0.33819 0.43411-0.64894 0.29473-0.74005 0.10717-0.52353 0.03725-0.47808-0.012832-0.57382-0.11125-1.0139-0.4935-3.4354-0.20557-1.0292-0.40958-1.7172-0.051578-0.48055 0.013889-0.48426 0.1614-0.61613 0.24534-0.37615 0.32033-0.24165 0.30006-0.099851 0.30482-0.023543 0.32159 0.032951 1.7599 0.47767 0.53089 0.096535 0.43008 0.042262 0.37797 0.003271 0.53892-0.069988 0.41122-0.13627 0.30257-0.17843 0.16902-0.15572 0.11452-0.15231 0.15378-0.38324 0.044611-0.36314-0.002321-0.64797 0.049143-0.60732 0.090452-0.34452 0.28336-0.57376 0.55453-0.64136 0.60079-0.45705 0.38134-0.22253 0.70831-0.312 0.63923-0.18608 0.48233-0.090089 0.75114-0.069779 0.88513 0.00437 0.63206 0.049947 0.64848 0.087766 2.5276 0.46357 0.996 0.089157 0.50048 0.013436 1.5427-0.047074 1.7419-0.15946 4.3508-0.63298 0.92721-0.076727 1.0532-5.3e-5 0.36069 0.036848 0.22422 0.063878 0.02311 0.039522 0.14669-0.052036 0.18241-0.19535 0.29224-0.52064 0.23751-0.73753 0.31465-1.5229 0.19003-0.60238 0.42688-0.93671 1.3821-2.4887 0.55701-1.1274 0.31379-0.83868 0.11186-0.42507 0.0914-0.64327 3.82e-4 -0.36333-0.072101-0.48944-0.16989-0.51316-0.34352-0.62714-0.34911-0.46813-0.891-1.033-0.47538-0.61745-0.29664-0.47884-0.25372-0.51235-0.24014-0.64316-0.18188-0.67612-0.13027-0.70087-0.097332-0.91295-0.012595-1.3883 0.10114-1.2895 0.19556-1.3808 0.14525-0.71709 0.18206-0.6768 0.22583-0.61833 0.2699-0.54368 0.31342-0.44527 0.32109-0.29575 0.34232-0.17164 0.31635-0.032809 0.30004 0.086293 0.2038 0.14334 0.17603 0.20526 0.12617 0.2231 0.12856 0.33848 0.1008 0.38956 0.47216 2.8848 0.20621 0.8226 0.31913 0.88794 0.42737 0.84977 0.39895 0.60612 0.44539 0.56123 0.58265 0.62352 0.68126 0.62666 0.40635 0.32018 0.22514 0.13969 0.10714 0.005476-0.15486 0.26328-0.10779 0.45503-0.03823 0.4904 0.027157 0.69913 0.045049 0.38939 0.1788 0.9296 0.3035 0.86077 0.27692 0.44537 0.3227 0.31825 0.43651 0.24326 0.51233 0.14161" stroke="#bdc660"/>
    </defs>
    <g clip-path="url(#p41bd9cdbd8)">
     <use y="280.512" fill="#bdc660" stroke="#bdc660" xlink:href="#m4449a55b2b"/>
    </g>
   </g>
  </g>
 </g>
 <defs>
  <clipPath id="p41bd9cdbd8">
   <rect x="7.2" y="7.2" width="260.06" height="266.11"/>
  </clipPath>
 </defs>
</svg>
