<?xml version="1.0" encoding="UTF-8"?>
<!DOCTYPE svg  PUBLIC '-//W3C//DTD SVG 1.1//EN'  'http://www.w3.org/Graphics/SVG/1.1/DTD/svg11.dtd'>
<svg width="331.25pt" height="280.51pt" version="1.1" viewBox="0 0 331.25 280.51" xmlns="http://www.w3.org/2000/svg" xmlns:xlink="http://www.w3.org/1999/xlink">
 <metadata>
  <rdf:RDF xmlns:cc="http://creativecommons.org/ns#" xmlns:dc="http://purl.org/dc/elements/1.1/" xmlns:rdf="http://www.w3.org/1999/02/22-rdf-syntax-ns#">
   <cc:Work>
    <dc:type rdf:resource="http://purl.org/dc/dcmitype/StillImage"/>
    <dc:date>2024-07-04T12:10:53.610837</dc:date>
    <dc:format>image/svg+xml</dc:format>
    <dc:creator>
     <cc:Agent>
      <dc:title>Matplotlib v3.7.1, https://matplotlib.org/</dc:title>
     </cc:Agent>
    </dc:creator>
   </cc:Work>
  </rdf:RDF>
 </metadata>
 <defs>
  <style type="text/css">*{stroke-linejoin: round; stroke-linecap: butt}</style>
 </defs>
 <g id="figure_1">
  <g id="patch_1">
   <path d="m0 280.51h331.25v-280.51h-331.25v280.51z" fill="none"/>
  </g>
  <g id="axes_1">
   <g id="PatchCollection_1">
    <defs>
     <path id="mac5f04eb02" d="m280.91-233.21 1.4873 0.10692 1.375-0.14707 0.78009-0.25967 0.67613-0.40028 0.76271-0.80879 0.51602-0.9505 0.27978-0.92942-0.019782-0.63694 0.067425 0.011631 1.0137 0.11937 0.57317 0.10259 0.57844 0.13638 0.54824 0.17528 0.48944 0.22208 0.40456 0.28009 0.26195 0.28477 0.63322 0.99201 0.2874 0.36967 1.3329 1.4081 0.29097 0.35185 1.0774 1.5608 0.21874 0.39609 0.16 0.40269 0.2213 1.2586 0.13028 0.41271 0.69935 1.5897 0.093036 0.36593 0.012522 0.38497-0.077496 0.72765 0.045954 0.29736 0.091213 0.19803 0.19437 0.25231 0.88968 0.90529 0.53975 0.6536 0.44856 0.63645 1.2513 1.9209 0.29406 0.3978 0.27314 0.30668 0.23465 0.17291 0.13303 0.018128 0.066554-0.088375 0.56563 1.0999 0.77794 1.6822 2.4262 5.836 2.0139 4.6509 1.2251 3.1405 0.76768 2.2645 0.42575 1.404 0.47155 1.7445 0.37099 1.6187 0.19079 1.0841 0.081323 0.62853 0.086816 1.2525-0.018245 1.17-0.12654 1.1326-0.35623 1.5467-0.22367 0.77244-0.66654 1.9895-0.35951 0.96218-3.2453 7.9811-0.49606 1.1681-0.53016 1.1186-1.1339 2.0518-1.2409 2.1091-0.5511 0.87235-1.0396 1.4269-1.1649 1.4052-3.6944 4.1318-1.1127 1.3558-0.94382 1.3444-0.40706 0.71521-0.42776 1.0251-0.18168 0.84948 0.02815 0.89419 0.15543 0.55008 0.17836 0.40187 0.36825 0.62384 0.55904 0.74834 0.87709 0.97511 1.7232 1.6272 4.4414 3.744 2.0205 1.7891 1.148 1.1362 0.54465 0.60611 0.43289 0.53791 0.38438 0.54857 0.46246 0.85337 0.25249 0.76323 0.046356 0.24652 0.013772 1.0772-0.24138 1.0273-0.43061 0.94187-0.26468 0.41649-0.29811 0.3746-0.48391 0.46906-0.43848 0.3081-0.33439 0.18056-0.49969 0.209-0.49309 0.15736-1.2705 0.2702-2.1729 0.29741-1.0544 0.1809-3.3456 0.69437-1.0285 0.26753-1.0215 0.31843-0.48483 0.17985-1.1313 0.50148-1.1083 0.60373-1.0756 0.69887-1.1343 0.87503-1.2861 1.1621-3.6947 3.7185-1.7949 1.7108-1.188 1.0146-0.8359 0.64005-1.1825 0.79674-1.0376 0.58271-1.2818 0.57199-4.367 1.7794-1.3085 0.64253-2.591 1.401-1.2923 0.60938-1.296 0.4387-1.3035 0.17128-1.3398-0.18002-1.3372-0.48403-1.3192-0.71453-1.2833-0.88826-1.2262-1.019-1.1429-1.1178-1.0269-1.1936-0.87016-1.2535-0.66249-1.3032-0.21769-0.60218-0.16778-0.58222-0.58667-2.7036-0.24131-0.81201-0.32251-0.76848-0.62858-0.99731-0.77918-0.91583-1.7382-1.7224-0.82972-0.86856-1.2904-1.5823-0.65398-0.72951-0.74852-0.65914-0.66101-0.47961-1.0006-0.60588-0.74425-0.3587-1.2619-0.54316-0.37692-0.2313-0.76559-0.63343-0.81658-0.73274-0.98307-0.69439-1.0629-0.48044-1.2399-0.36766-0.95018-0.19948-1.0083-0.15724-2.0443-0.19382-2.0763-0.078834-1.7041-0.008096-2.2606 0.040578-8.7887 0.3474-4.0402 0.10382-2.9436 0.034099-2.4492-0.029538-2.6189-0.087916-3.4246-0.1969-1.2501-0.12447 0.17507 0.27084 0.067103 0.67705-0.05153 0.95147-0.25889 1.4957-1.6139 6.9795-0.60771 2.8689-0.40543 1.5502-0.64707 2.2237-0.6862 3.2059-0.22347 0.9076-0.42557 1.494-0.47195 1.3497-0.30279 0.75785-0.69559 1.406-0.92882 1.4976-0.57508 0.81266-1.4246 1.8911-0.43306 0.78808-0.12598 0.53512 0.042168 0.7428 0.24308 0.78604 0.41065 0.7938 2.0992 2.9877 2.4608 3.696 2.2215 3.261 0.7771 1.2639 0.6261 1.2583 0.39929 1.2609 0.11474 1.0593-0.048833 1.0582-0.16114 1.0482-0.71282 3.1624-0.31276 1.2312-0.49777 1.3516-2.0057 4.2876-0.6071 1.5027-0.31442 0.95055-0.46268 1.602-0.73831 2.7434-0.34701 1.0769-0.49467 1.079-0.42571 0.60358-0.521 0.51993-0.96811 0.61926-0.50439 0.22658-1.1508 0.3977-1.5629 0.37806-0.53625 0.093554-0.47012 0.035099-1.5771-0.94548-1.4462-0.79516-0.86726-0.4025-0.54505-0.21603-1.122-0.33824-0.64405-0.12287-0.5365-0.061525-0.78523-0.012413-0.76832 0.11343-0.25584 0.076862-0.32105 0.13533-0.53054 0.34202-0.47418 0.44718-0.34907 0.42866-0.39802 0.60671-0.31542 0.56097-0.49337 1.0478-1.4639 3.654-0.68285 1.5696-0.62495 1.2051-0.74046 1.0727-0.94168 1.1399-3.8367 4.209-2.3423 2.9152-0.69366 0.81626-0.73101 0.75402-3.8104 3.6819-1.1468 1.1723-0.61107 0.5315-0.23822-0.015066-1.2932-0.28833-3.722-0.99268-1.2742-0.24414-1.0598-0.071973-1.1758 0.034992-0.77547 0.083996-1.239 0.21285-6.3417 1.4389-1.4456 0.36961-1.3919 0.41567-4.4792 1.5243-2.1149 0.65649-3.3666 0.90902-1.1973 0.26208-2.2406 0.41935-1.0492 0.23909-1.0279 0.29551-1.3813 0.51858-1.3279 0.59466-1.0908 0.53858-0.51225 0.28827-0.68026 0.43967-0.85454 0.63123-1.1673 0.96846-1.5471 1.4421-0.85401 0.90486-0.69333 0.82534-0.4276 0.56677-0.45768 0.67738-0.47884 0.82036-0.39352 0.79334-0.30302 0.71137-1.441 4.0555-1.0627 3.3416-0.63874 1.556-0.57043 1.0346-0.59025 0.79716-0.50225 0.50124-0.51251 0.37436-0.65114 0.31888-0.69043 0.20526-0.70179 0.10758-0.98677 0.027134-1.0568-0.082597-1.3106-0.20748-1.1733-0.25169-2.1578-0.56851-1.98-0.63689-1.5173-0.57967-1.6024-0.68655-1.7115-0.80202-1.441-0.7325-1.4357-0.8024-1.7215-1.0706-1.4749-1.0163-1.2125-0.95573-0.33293-0.31149-0.088266-0.11955-0.019841-0.33854 0.05908-0.40786 0.23038-1.0716 0.87415-3.5729 0.56834-2.0389 0.63506-1.8516 1.7126-4.2561 0.44751-1.3105 0.37039-1.319 0.46444-2.1952 0.29216-1.9682 0.083506-1.4896-0.015374-0.64659-0.060102-0.66802-0.095534-0.55545-0.14426-0.54746-0.17571-0.48851-0.31588-0.68474-0.5183-0.9081-0.52218-0.79968-2.4882-3.4416-0.50408-0.76542-0.45575-0.76873-0.50251-0.96144-0.39542-0.86304-1.6674-4.1731-0.81896-1.8036-0.7463-1.5491-0.55979-1.0229-0.56988-0.87558-0.90316-1.1061-1.3085-1.2665-0.78775-0.64975-0.82878-0.62258-1.556-1.0501-1.4027-0.85973-4.3939-2.491-2.7436-1.4568-2.2871-1.0886-1.7633-0.69163-0.48398-0.1462-0.66795-0.14292-0.79805-0.079405-0.44831-0.010334-0.60672 0.026167-0.67173 0.072606-2.2737 0.36426-1.0983 0.13537-0.94929 0.02813-0.58033-0.051517-0.75302-0.19849-0.34718-0.15658-0.3943-0.23615-2.5116-1.9931-0.76655-0.54886-0.86138-0.53279-1.0651-0.51205-1.1545-0.42469-1.2146-0.35036-1.3936-0.31516-1.0503-0.17453-1.6469-0.11478-3.4329 0.001018-1.5129-0.040446-0.95462-0.061288-1.67-0.20034-1.5995-0.35429-1.477-0.56064-1.2916-0.82933-0.63636-0.62613-0.51969-0.67904-0.31145-0.5015-0.50189-1.0203-0.19882-0.51075-0.46064-1.6293-0.22886-1.2393-0.15483-1.1863-0.10369-1.1013-0.093626-1.5979-0.10551-0.19616 0.012847-0.26692 0.38487-0.72993 0.81295-0.77332 1.3502-0.73103 1.706-0.56808 1.9342-0.43007 2.0611-0.32852 6.245-0.72619 1.9248-0.2611 1.7614-0.32369 1.5366-0.42321 1.2354-0.56658 0.44116-0.31849 0.23362-0.21589 0.31531-0.38768 0.12376-0.21666 0.16476-0.51892 0.027973-0.43241-0.071643-0.49483-0.13168-0.43469-0.24365-0.60904-0.39535-0.81791-0.65875-1.1376-0.42269-0.83356-0.44158-1.1007-0.85714-2.3678-1.1976-2.8143-0.87889-2.6391-0.5315-1.1212-0.73178-1.0082-0.81961-0.87869-2.0527-2.0004-0.69982-0.83177-0.43091-0.70496-0.25633-0.74418-0.038447-0.87383 0.18374-0.90157 0.47159-1.1523 0.48285-0.85588 0.57265-0.85353 1.1119-1.4064 0.57171-0.64394 1.1922-1.1744 0.32163-0.26916 1.1978-0.83541 1.2713-0.6425 1.3105-0.41521 1.3195-0.13929 0.4889 0.029339 0.58459 0.086992 0.85598 0.2031 4.3125 1.3962 0.7937 0.22764 0.94732 0.22008 0.68495 0.097953 0.6866 0.01997 0.79379-0.091396 0.66896-0.16336 0.761-0.25792 2.0171-0.81373 1.0656-0.39493 1.7844-0.59995 1.4214-0.55373 1.4342-0.64534 1.8147-0.92662 6.3442-3.4789 1.8903-0.92291 2.5185-1.0594 0.97923-0.47051 0.74852-0.45473 0.30402-0.22596 0.61699-0.58771 0.30925-0.39506 0.25092-0.41466 0.18542-0.41863 0.19804-0.81953 0.039552-0.36269 0.010888-2.0968 0.086449-0.84242 0.19051-0.8354 0.30684-0.79366 0.30062-0.53732 0.39-0.57713 1.2017-1.6053 0.89204-1.1052 0.95054-1.0695 0.97938-0.9668 0.97981-0.791 1.7115-1.0686 0.62828-0.63598 0.38722-0.8939 0.20254-1.1208 0.084183-1.2767 0.039225-2.7822 0.057055-1.3998 0.17395-2.2864-0.037924-1.1272-0.20799-1.0924-0.34915-1.0957-1.1337-2.6994-0.4142-1.1557-0.2668-1.0651-0.1551-1.0928-0.023909-1.1776 0.14699-1.1676 0.31177-1.0616 0.37357-0.8369 0.57127-0.952 0.6972-0.90532 0.70426-0.75168 0.71769-0.6526 0.86954-0.67588 1.2772-0.81849 1.0625-0.5567 1.3924-0.5993 1.0573-0.38192 1.0825-0.34541 2.9356-0.80111 8.0477-1.8942 1.3982-0.36647 1.7964-0.53202 1.1087-0.37967 1.2615-0.52238 0.90158-0.44941 0.88079-0.49691 1.0805-0.68715 1.1341-0.88109 0.80638-0.72248 1.3041-1.2983 1.2775-1.3891 4.9746-5.7548 1.2284-1.3105 1.2262-1.1706 1.2247-0.96768 1.2237-0.68465 0.25371-0.098071 0.47259-0.14451 0.71548-0.14449 1.0627-0.12054 1.1342-0.079987 1.1599 0.076877 0.80952 0.21456 0.7869 0.33855 1.2082 0.72474 0.79612 0.56697 1.3889 1.0996 1.4161 1.2225 1.4298 1.3058 2.8476 2.7452 2.7306 2.7765 1.8175 1.9434 1.8509 2.0568 0.906 0.89034 0.90426 0.6479 0.87124 0.53603 0.59275 0.41354 1.0908 0.86352 0.57974 0.32205 0.65472 0.11797 0.53009-0.04816 0.53843-0.12382 1.3375-0.45081 3.1342-1.209 0.91428-0.29622 1.0527-0.27359 0.78736-0.15345 1.3862-0.14156 0.89349 0.015424 1.2382 0.14078 1.1005 0.21723 1.1104 0.28889 1.4095 0.44802 1.3716 0.50867 1.5034 0.62969 1.2859 0.5997 0.92199 0.48266 0.34692 0.25298 0.18933 0.05467 0.24236-0.11755 0.24948-0.28442 0.26545-0.56197 0.21015-0.75906 0.63221-3.5835 1.2007-5.0047 0.52202-2.3665 0.43634-2.3551 0.42263-2.9423 0.23454-1.0792 0.21521-0.75581 0.38254-1.1056 0.32883-0.78913 0.30363-0.60268 0.47031-0.78153 0.46903-0.65929 1.2696-1.5109 0.87377-0.93898 1.2105-1.207 1.9579-1.8181 0.78843-0.83499 0.52548-0.6295 0.56178-0.74497 0.81035-1.2136 1.921-3.2472 1.0704-1.6321 0.68474-0.90569 0.69271-0.84567 0.9948-1.1464 1.0042-1.0917 2.8147-2.8087 1.259-1.2144 1.2767-1.1387 1.3233-1.0082 1.4025-0.81345 1.123-0.45146 1.1725-0.34458 4.6567-1.0107 1.907-0.54283 6.0415-1.9966 3.1043-0.86893 1.0203-0.39731 1.1535-0.61184 0.98367-0.80009 0.5798-0.65692 2.6951-3.3818 0.69907-0.77005 0.73343-0.67468 0.83016-0.58956 0.84778-0.52091 0.99951-0.67223 0.89698-0.76814 1.1271-1.0856 0.47749-0.4148 0.45119-0.31954 0.6308-0.31826 0.66874-0.2238 0.72046-0.14253 0.81256-0.028584 0.60616 0.050665 0.76366 0.14743 0.65336 0.27453 0.5476 0.42049 0.3769 0.42987 0.19208 0.2724 0.40245 0.7052 0.29179 0.64638 0.4032 1.2 0.32145 1.302 0.67364 3.3074 0.53993 2.0239 0.30488 0.88241 0.51252 1.1571 0.36332 0.64408 0.73814 1.0915 0.82271 0.9607 0.89907 0.77644 1.027 0.59686 1.8124 0.88008 0.59166 0.36163 1.0204 0.7365 2.0295 1.5844 1.2668 0.93706 1.2184 0.81996 1.2696 0.73566 1.1429 0.54549 1.5225 0.66935 2.6756 1.0797 1.2067 0.37996 1.2549 0.31086 1.6733 0.31186 1.3682 0.18735 2.4901 0.26689 1.2174 0.17304 1.6062 0.33872 2.0996 0.51797 1.5322 0.2851" stroke="#bdc660"/>
    </defs>
    <g clip-path="url(#p827b5cf3d1)">
     <use y="280.512" fill="#bdc660" stroke="#bdc660" xlink:href="#mac5f04eb02"/>
    </g>
   </g>
  </g>
 </g>
 <defs>
  <clipPath id="p827b5cf3d1">
   <rect x="7.2" y="7.2" width="316.85" height="266.11"/>
  </clipPath>
 </defs>
</svg>
