<?xml version="1.0" encoding="UTF-8"?>
<!DOCTYPE svg  PUBLIC '-//W3C//DTD SVG 1.1//EN'  'http://www.w3.org/Graphics/SVG/1.1/DTD/svg11.dtd'>
<svg width="250.32pt" height="280.51pt" version="1.1" viewBox="0 0 250.32 280.51" xmlns="http://www.w3.org/2000/svg" xmlns:xlink="http://www.w3.org/1999/xlink">
 <metadata>
  <rdf:RDF xmlns:cc="http://creativecommons.org/ns#" xmlns:dc="http://purl.org/dc/elements/1.1/" xmlns:rdf="http://www.w3.org/1999/02/22-rdf-syntax-ns#">
   <cc:Work>
    <dc:type rdf:resource="http://purl.org/dc/dcmitype/StillImage"/>
    <dc:date>2024-07-04T12:10:53.936185</dc:date>
    <dc:format>image/svg+xml</dc:format>
    <dc:creator>
     <cc:Agent>
      <dc:title>Matplotlib v3.7.1, https://matplotlib.org/</dc:title>
     </cc:Agent>
    </dc:creator>
   </cc:Work>
  </rdf:RDF>
 </metadata>
 <defs>
  <style type="text/css">*{stroke-linejoin: round; stroke-linecap: butt}</style>
 </defs>
 <g id="figure_1">
  <g id="patch_1">
   <path d="m0 280.51h250.32v-280.51h-250.32v280.51z" fill="none"/>
  </g>
  <g id="axes_1">
   <g id="PatchCollection_1">
    <defs>
     <path id="mfdf757c791" d="m129.87-242.78 1.1748 1.4119 0.54116 0.72815 0.49671 0.8146 0.33608 0.74613 0.20276 0.7172 0.098619 0.65603 0.088331 2.5434 0.13889 1.3057 0.17316 0.73953 0.20697 0.61167 0.52079 1.1065 0.35529 0.59146 0.52011 0.71698 0.51219 0.57556 0.49476 0.44942 0.52819 0.37014 0.48885 0.25034 0.57888 0.19824 0.66967 0.12314 0.73021 0.037236 1.3699-0.11306 1.0138-0.18315 1.0521-0.2451 2.4112-0.6714 4.7791-1.4274 3.2365-0.91669 2.487-0.65584 1.9555-0.44265 2.4113-0.44463 1.386-0.19897 1.3642-0.14993 2.6007-0.21863 1.866-0.23714 2.0706-0.37939 0.82696-0.19995 1.1065-0.33553 0.97339-0.39304 0.73619-0.38354 1.4334-0.92966 1.752-1.3393 3.2535-2.7147 1.2458-0.88177 0.69722-0.41555 1.5792-0.72733 0.89474-0.32328 2.9662-0.8639 1.351-0.43329 1.3279-0.54502 0.69998-0.35983 1.0776-0.65197 1.324-0.94133 3.5618-2.8804 1.8418-1.358 1.6851-1.055 1.1924-0.6475 1.252-0.57114 0.53367-0.18013 0.60533-0.12685 0.66472 0.016533 0.30013 0.098809 0.24794 0.1539 0.28705 0.30737 0.22307 0.42422 0.15466 0.60396 0.033671 0.32327-0.033145 0.96464-0.13592 0.78923-0.1895 0.74021-0.50473 1.44-0.44422 1.0044-0.64072 1.2431-1.3714 2.4493-0.80823 1.6529-0.61965 1.6338-0.32175 1.2752-0.13856 1.0157-0.026854 1.1059 0.099728 1.0629 0.24497 1.1416 0.35377 1.1107 0.4222 1.0648 0.62187 1.3572 1.3121 2.6348 1.0168 2.2029 4.7828 11.738 0.80264 1.6273 0.78941 1.3319 0.92832 1.3329 0.3805 0.49161 0.67747 0.81906 1.1934 1.3384 1.6989 1.7692 3.3596 3.3005 1.0414 1.1282 0.68389 0.81053 1.516 2.0168 1.0298 1.5079 0.84876 1.3633 0.81184 1.4444 1.5041 2.781 0.76367 1.6146 0.26972 0.68215 0.41762 1.2309 0.84266 2.9921 0.58798 1.8892 0.64808 1.8495 0.66284 1.7299 0.62006 1.4944 0.5015 1.0893 0.28965 0.43756-0.36044 0.097272-0.24783 0.4691-0.10412 0.50728-0.042219 0.62563 0.010743 0.56221 0.085446 0.92553 0.12162 0.79298 0.34896 1.6891 0.87638 3.8242 0.3069 1.8757 0.20726 1.8958 0.12585 1.9901 0.02468 1.6986-0.067085 1.4423-0.094819 0.92026-0.14149 0.92735-0.22786 1.0834-0.33862 1.2-0.34432 0.96197-0.44668 1.0358-0.4327 0.88131-0.68745 1.2612-2.1662 3.5343-0.9155 1.7039-0.46217 1.1897-0.67496 2.274-0.35044 0.97608-0.38422 0.69594-0.5094 0.50274-0.23844 0.13073-0.40084 0.13229-0.75266 0.075433-1.0261-0.084581-0.96808-0.18538-1.1293-0.32656-1.0122-0.37271-3.8356-1.6483-1.926-0.77049-1.3956-0.45772-2.3288-0.67384-3.4683-0.91362-2.8146-0.94175-1.0002-0.2423-0.84481-0.10319-0.56562-0.004252-1.1538 0.16815-1.4983 0.50642-1.189 0.57136-1.2161 0.69092-1.244 0.78006-1.387 0.92929-1.7749 1.3064-1.207 1.0011-1.1775 1.0731-1.1373 1.1225-1.337 1.424-1.2163 1.3856-2.252 2.7379 0.35329 0.1281 0.20517 0.12226 1.1612 0.80716 1.3502 1.0628 1.4859 1.2735 1.4552 1.3381 1.5906 1.5368 4.0344 4.0419 1.2786 1.3994 0.86716 1.075 0.4742 0.67649 0.54383 0.91044 1.8752 3.7463 0.54238 0.90081 0.61049 0.8249 0.88884 0.91508 0.97716 0.8041 0.99865 0.70226 2.1516 1.2683 0.83698 0.52948 0.49768 0.36625 0.44337 0.38747 0.58419 0.67108 0.40568 0.64507 0.34632 0.74662 0.3045 0.96076 0.1418 0.68389 0.32014 2.6676 0.15656 1.0326 0.97788 5.0357 0.26535 1.674 0.19588 1.8589 0.3126 4.4392 0.38325 3.7254 0.20706 1.601 0.13911 0.75897 0.34337 1.473 1.1512 4.1663 0.18486 0.97968 0.068049 0.59889 0.015286 0.93798-0.041655 0.46338-0.13659 0.76378-0.16096 0.62298-0.42242 1.3041-2.3057 5.9239-1.2388 3.4481-0.76331 1.8552-0.49341 1.0399-0.59069 1.1236-0.91183 1.5501-2.7278 4.1472-0.95289 1.3337-0.30112 0.37049-0.077911-0.46628-0.46873-0.52059-0.74896-0.46576-0.9147-0.30396-1.029-0.12892-0.57069 0.005209-0.87234 0.098472-0.77521 0.17246-0.88885 0.2965-0.84714 0.40144-0.74892 0.50058-0.68699 0.65798-0.58795 0.7411-1.1516 1.6889-0.75239 1.2411-0.45514 0.89296-0.3557 0.94625-0.24714 1.1657-0.14866 1.7517 0.005708 1.7933 0.080759 1.1148 0.31878 2.6018 0.31764 1.681 0.45904 1.6407 0.62074 1.7794 1.083 2.7688 0.27925 0.79919 0.20926 0.91412 0.022367 0.76821-0.082572 0.46304-0.19183 0.50638-0.36825 0.57547-0.21136 0.24292-0.35726 0.33509-0.50765 0.37424-0.59821 0.34245-0.60227 0.27547-0.89462 0.31853-0.80285 0.20619-0.6288 0.11591-0.92255 0.099161-1.1276 0.03535-1.2729-0.019005-0.92734-0.056252-1.2953-0.1601-1.624-0.31274-1.4316-0.35729-1.2544-0.36952-4.1304-1.3435-1.4027-0.38414-1.3299-0.29366-2.0678-0.33861-4.7795-0.57404-7.9589-1.1369-1.546-0.2807-0.93469-0.21199-2.8682-0.77673-1.067-0.25118-0.63146-0.09933-0.20553 0.021063-0.057737 0.020662-0.12026-0.10247-0.25832-0.32964-1.5951-2.4321-1.5697-2.2074-1.1608-1.5043-1.1399-1.3886-1.7131-1.9381-1.2996-1.3482-1.1668-1.1159-1.2857-1.1273-1.2849-1.0236-1.9355-1.354-1.3077-0.80878-2.0968-1.1571-1.3521-0.66014-1.2778-0.55988-1.3561-0.51921-1.1351-0.37022-1.7005-0.43787-1.2122-0.22079-1.6888-0.16324-1.1076-0.003875-1.4811 0.12592-2.3767 0.38925-5.8968 1.1927-3.515 0.66895-2.4819 0.37776-1.5681 0.15758-1.4008 0.06748-1.4617 0.005563-1.2394-0.068295-3.0543-0.28463-0.45951-0.008496-1.1491 0.088651-1.1435 0.22218-1.2045 0.35727-1.0589 0.43828-1.0226 0.5809-0.6555 0.47816-0.54002 0.46713-1.0326 1.0093-0.36445 0.28597-0.25302 0.15707-0.58943 0.25072-0.67059 0.14191-0.7279 0.026705-0.56376-0.038497-1.2637-0.19164-0.89806-0.19924-0.64971-0.18021-1.2927-0.46025-2.5547-1.0518-0.67829-0.24494-0.96598-0.26628-0.83085-0.12227-0.33852-0.015664-0.93286 0.060764-0.42539 0.066462-1.4871 0.36208-2.4067 0.7358-1.0177 0.23312-0.5096 0.077255-0.6244 0.052327-1.0541-0.034867-0.59365-0.10909-0.47628-0.15542-0.53996-0.2913-0.24428-0.19778-0.56642-0.81587-0.12135-0.33013-0.13569-0.62933-0.043091-0.48279 0.03204-1.014 0.22013-1.2746 0.32202-1.0741 0.41635-1.0117 0.59714-1.1771 0.37652-0.65678 1.0833-1.6679 6.9074-9.4153 0.71163-1.0245 0.84302-1.3476 0.34435-0.65713 0.26591-0.62276 0.15225-0.48222 0.089754-0.46522 0.008704-0.56817-0.069388-0.35338-0.35592-0.68381-0.37653-0.38742-0.27734-0.20724-0.59679-0.32741-0.32132-0.13542-0.7023-0.23986-0.94723-0.25595-2.2288-0.4579-2.3899-0.3234-6.5323-0.6963-11.843-1.4108-2.0809-0.33231-1.3983-0.27028-2.5916-0.62418-1.2167-0.36002-1.3452-0.45348-1.9287-0.74912-4.2706-1.8692-2.4802-1.172-1.1707-0.62042-1.9239-1.1471-1.4548-0.99576-1.2816-0.98054-1.2702-1.0817-1.048-1.0055-0.62903-0.67293-1.0903-1.3308-0.53075-0.74623-0.46603-0.74665-0.36884-0.7088-0.23484-0.57384-0.1484-0.49969-0.082786-0.48201 0.045393-1.0203 0.093098-0.405 0.32668-0.88932 0.4185-0.80911 0.32295-0.5059 1.604-2.1527 0.91956-1.4107 0.21961-0.39312 0.25077-0.5616 0.11934-0.44973 0.024339-0.29958-0.050777-0.38498-0.16634-0.40446-0.23785-0.34639-0.58994-0.58363-0.76768-0.57483-2.9387-1.8957-0.61185-0.43518-0.73477-0.60214-0.40716-0.41214-0.25521-0.31648-0.59836-1.2246-0.1442-0.77416-0.029833-0.83972 0.17959-1.718 0.20827-1.0651 0.51475-2.0356 0.47988-1.5949 0.27206-0.81116 0.28782-0.71496 0.10584-0.60506 0.037509-1.3751 0.023126-6.3355 0.11349-5.5601 0.16578-3.7248 0.10835-1.6982 0.29152-3.3274 0.22668-1.8934 0.44604-2.9129 0.45601-2.5525 0.53435-2.6298 0.51153-2.185 0.41744-1.4531 0.37154-1.0377 0.22104-0.5139 0.93708-1.6718 1.1675-1.5747 1.3347-1.5046 1.4539-1.4549 1.5365-1.4207 1.5913-1.3985 6.5258-5.5385 1.5903-1.4064 1.5383-1.4309 1.4622-1.4658 1.3557-1.514 1.2102-1.5788 0.48262-0.73107 0.50695-0.85666 0.54998-1.0948 0.48036-1.1286 0.51822-1.3959 0.64102-1.9111 1.6071-5.6037 0.48286-1.3371 0.58401-1.1926 0.33748-0.51518 0.44089-0.52203 0.67854-0.58252 0.77927-0.49333 0.92852-0.46357 3.0227-1.2557 1.1237-0.51331 1.6674-0.89406 1.3262-0.8857 1.7226-1.4299 1.3021-1.2753 1.3843-1.5663 0.75919-0.97832 0.78401-1.1422 0.56499-0.95581 0.55082-1.1546 0.30134-0.85683 0.31864-1.2938 0.12948-1.2635-0.014135-0.55404-0.070572-0.69681-0.81012-5.4178-0.041773-0.51911 0.004907-0.97399 0.14888-0.96939 0.3155-0.93608 0.63039-1.2151 0.70237-1.0364 3.2245-4.0295 0.99301-1.442 0.79651-1.5042 0.44813-1.2141 0.71087-2.5829 0.83287-2.701 0.19973-0.77009 0.14534-0.48965 0.36572-0.86046 0.24424-0.40874 0.28375-0.33947 0.32748-0.23517 0.36099-0.1059 0.3952-0.009001 0.41769 0.056886 1.7376 0.38684 0.60012 0.035184 0.36514-0.040352 0.40172-0.12849 0.38856-0.19455 1.4703-0.90405 0.35218-0.13092 0.34617-0.034014 0.34784 0.091406 0.34285 0.19419 0.33961 0.26498 1.3523 1.2868 0.34233 0.26938 0.34665 0.19786 0.35274 0.091303 0.30244-0.028916 0.30741-0.11329 0.31171-0.17986 0.82611-0.68132 0.91046-0.9209 1.7799-1.9396 1.112-1.0838 0.60698-0.52822-0.040347-0.099586 0.009684-0.12753 0.065272-0.16323 0.25252-0.30611 0.29643-0.20404 0.32863-0.1462 0.38035-0.11617 0.62383-0.12507 0.64818-0.082939 2.9739-0.3004 1.5437-0.10149 0.61912 0.004924 0.91421 0.085589 1.114 0.2533 1.5074 0.48765 0.56889 0.12749 0.29947 0.029933 0.36489-0.012976 0.35163-0.072419 0.37387-0.13672 0.55424-0.29053 0.93731-0.64314 0.88-0.69705 2.0023-1.7442 1.6799-1.5523 2.4274-2.4025 1.0576-1.1142 2.3199-2.5596 1.2633-1.2156 1.6501-1.4072 3.5798-2.9164 2.0478-1.7963 0.70199-0.68302 0.56695 0.1927 0.50334 0.69074 0.39726 1.184 0.079769 0.5733 0.021793 0.69661-0.018468 0.40511-0.12761 1.0277-0.19358 0.93487-1.4049 4.9214-0.36736 1.7182-0.23972 1.7135-0.047554 1.5703 0.21406 1.3679 0.20692 0.54884 0.24329 0.45262 0.30392 0.44276" stroke="#bdc660"/>
    </defs>
    <g clip-path="url(#p6d90ab2b57)">
     <use y="280.512" fill="#bdc660" stroke="#bdc660" xlink:href="#mfdf757c791"/>
    </g>
   </g>
  </g>
 </g>
 <defs>
  <clipPath id="p6d90ab2b57">
   <rect x="7.2" y="7.2" width="235.92" height="266.11"/>
  </clipPath>
 </defs>
</svg>
