<?xml version="1.0" encoding="UTF-8"?>
<!DOCTYPE svg  PUBLIC '-//W3C//DTD SVG 1.1//EN'  'http://www.w3.org/Graphics/SVG/1.1/DTD/svg11.dtd'>
<svg width="235.23pt" height="280.51pt" version="1.1" viewBox="0 0 235.23 280.51" xmlns="http://www.w3.org/2000/svg" xmlns:xlink="http://www.w3.org/1999/xlink">
 <metadata>
  <rdf:RDF xmlns:cc="http://creativecommons.org/ns#" xmlns:dc="http://purl.org/dc/elements/1.1/" xmlns:rdf="http://www.w3.org/1999/02/22-rdf-syntax-ns#">
   <cc:Work>
    <dc:type rdf:resource="http://purl.org/dc/dcmitype/StillImage"/>
    <dc:date>2024-07-04T12:11:01.897769</dc:date>
    <dc:format>image/svg+xml</dc:format>
    <dc:creator>
     <cc:Agent>
      <dc:title>Matplotlib v3.7.1, https://matplotlib.org/</dc:title>
     </cc:Agent>
    </dc:creator>
   </cc:Work>
  </rdf:RDF>
 </metadata>
 <defs>
  <style type="text/css">*{stroke-linejoin: round; stroke-linecap: butt}</style>
 </defs>
 <g id="figure_1">
  <g id="patch_1">
   <path d="m0 280.51h235.23v-280.51h-235.23v280.51z" fill="none"/>
  </g>
  <g id="axes_1">
   <g id="PatchCollection_1">
    <defs>
     <path id="mb368d95f57" d="m143.44-247.76-0.015956 0.20349 0.041333 0.23316 0.093292 0.23134 0.22458 0.3614 0.33896 0.33373 0.4582 0.26475 0.29403 0.11963 0.43408 0.13897 0.85479 0.20464 2.6076 0.46516 0.8529 0.18559 0.45102 0.12325 0.42509 0.14249 0.37263 0.1571 0.33587 0.18304 0.42257 0.33927 0.22464 0.29143 0.17163 0.32833 0.18009 0.51453 0.222 0.95019 0.076465 0.59588 0.00797 0.59468-0.041518 0.5766-0.15925 0.86034-0.33223 1.1602-0.28425 0.81309-1.0333 2.7286-0.19512 0.5863-0.23592 0.82438-0.21786 1.0213-0.11953 0.90394-0.016829 0.37575 0.028927 0.3591 0.037382 0.11965 0.031979 0.045632 0.057238 0.018608-0.023583 0.10223-0.17439 0.25622-0.31113 0.34271-0.41304 0.37886-0.48419 0.37876-0.59656 0.38894-0.62846 0.32171-1.8048 0.6536-0.55922 0.23324-0.79553 0.36352-1.4928 0.75091-0.43668 0.26567-0.34633 0.24085-0.3038 0.23767-0.38188 0.34288-1.6507 1.7153-1.4058 1.2521-0.7747 0.73976-0.57873 0.61497-0.48411 0.58292-0.34117 0.46603-0.28295 0.43593-0.24779 0.43173-0.25629 0.5187-0.19048 0.47016-0.139 0.46787-0.074218 0.41456-0.039087 0.41262-0.070032 1.4539-0.21985 1.4097-0.041857 0.48239-0.022171 0.94251 0.043019 0.43108 0.133 0.37233 0.20448 0.25556 0.35733 0.24622 0.23039 0.10216 0.29854 0.10348 0.9601 0.29229 0.44977 0.18219 0.38025 0.20956 0.3177 0.2338 0.33495 0.30206 0.29781 0.29949 0.39239 0.45214 0.21019 0.28688 0.22803 0.35863 0.88953 1.5647 0.41906 0.63316 0.50456 0.6229 0.27894 0.29512 0.35816 0.34311 0.53103 0.45678 0.26989 0.20979 0.43797 0.31147 0.9051 0.56924 1.3892 0.76431 2.1372 1.0703 0.47901 0.27463 0.45563 0.30958 0.34567 0.28521 0.5331 0.57556 0.91724 1.1772 0.41682 0.46291 0.45722 0.41378 0.38178 0.26988 0.40504 0.23025 0.57962 0.25669 0.46704 0.15987 1.1779 0.32645 0.57751 0.18367 0.57368 0.21852 0.79316 0.37219 0.34944 0.1838 0.45635 0.2691 0.43082 0.29672 1.2143 0.90826 0.68696 0.45897 0.318 0.18198 0.55901 0.2807 0.76475 0.32911 0.79777 0.30428 1.7263 0.61244 1.0038 0.37586 0.81074 0.33785 0.67638 0.31739 0.58942 0.30817 0.5896 0.34101 0.56899 0.36039 2.2886 1.578 0.69653 0.45794 0.74013 0.46062 1.0979 0.63773 0.73561 0.40249 1.2997 0.65954 1.0577 0.49205 0.73866 0.32194 0.5639 0.2165 0.49362-0.99838 0.25322-0.47068 0.27577-0.45055 0.27222-0.39655 0.29422-0.39085 0.61694-0.74128 0.89393-1.0025 1.3936-1.5106 0.86025-0.904 0.39399-0.39678 0.69169-0.65006 0.95756-0.81855 1.4083-1.1589 0.4555-0.39934 0.44351-0.41881 0.37921-0.39257 0.40531-0.4649 0.36473-0.46554 1.0174-1.4045 0.52488-0.65224 0.72289-0.79631 0.80114-0.77802 0.3633-0.31478 0.42061-0.33291 0.42758-0.3032 0.43959-0.27097 0.40575-0.202 0.35617-0.12697 0.39486-0.077652 0.4572-0.023676 0.46293 0.030491 0.32452 0.048274 0.39156 0.086365 0.38758 0.11812 0.25021 0.09602 0.43005 0.20477 0.34527 0.1975 1.0881 0.7178 0.41038 0.23171 1.1588 0.58862 1.1641 0.645 0.704 0.30656 0.73495 0.26965 0.7209 0.23684 0.77008 0.18296 1.6122 0.27832 0.79943 0.1641 0.76335 0.23106 0.69896 0.34214 0.36132 0.26289 0.32815 0.30308 0.33124 0.37524 0.23924 0.32038 0.18874 0.28505 0.7948 1.3836 0.23585 0.38228 0.25905 0.37916 0.30408 0.3907 0.2803 0.31121 0.33421 0.31592 0.57115 0.44251 0.86843 0.5571 0.2373 0.14193 0.098241 0.040894 0.19308-0.022839 0.40479-0.003461 0.49782 0.019206 0.74829 0.075 0.65739 0.12604 0.72521 0.24784 0.37699 0.21744 0.24272 0.21213 0.18746 0.23599 0.088922 0.15824 0.16451 0.5175 0.068786 0.52041 0.026511 0.33984 0.07927 1.354 0.006547 0.33594-0.035457 0.4709-0.16198 0.80415-0.14541 0.52517-0.22966 0.66942-0.29154 0.63348-0.94003 1.4376-0.22677 0.514-0.30561 0.93458-0.43229 0.99972-0.16006 0.40703-0.1308 0.48432-0.12981 0.79184-0.034836 0.55617 0.034675 0.55755 0.10005 0.55268 0.34963 1.2562 0.13336 0.65751 0.040918 0.37375 0.022466 1.1288 0.027874 0.42005 0.10904 0.74046 0.25437 1.2849 0.065659 0.42384 0.027233 0.36573-0.008922 0.2694-0.042325 0.2537-0.07185 0.21578-0.13896 0.25624-0.18621 0.22732-0.16537 0.14957-0.27373 0.19283-0.17709 0.10289-0.73882 0.33497-0.33274 0.1743-0.42726 0.29372-0.18918 0.15949-0.13496 0.13929-0.24828 0.32766-0.26945 0.4659-0.14174 0.35909-0.12256 0.52209-0.08756 0.95422-0.029145 0.61488-0.006332 0.60228 0.033898 0.84114 0.14088 1.4534 0.041278 0.80233 0.011157 0.68734-0.011225 0.54448-0.051767 0.74315-0.097961 0.72685-0.16436 0.86114-0.15863 0.6022-0.5311 1.7147-0.14294 0.62759-0.063547 0.44833-0.019792 0.25937-0.005463 0.39166 0.042179 0.57398 0.13081 0.80477 0.28599 1.4253 0.051356 0.4083 0.020084 0.41193-0.00862 0.33695-0.033574 0.35004-0.047796 0.29143-0.070524 0.29932-0.067173 0.20464-0.056757 0.12102-0.074752 0.078096 0.14541 0.10412 0.87314 0.46654 0.49321 0.31191 0.22329 0.1663 0.35987 0.32098 0.34777 0.39782 0.35384 0.53223 0.20551 0.38244 0.21479 0.46932 0.28475 0.74892 0.28962 1.0213 0.099174 0.44411 0.074192 0.46102 0.19784 2.4059 0.18126 1.5324 0.016041 0.48639-0.023664 0.34535-0.078715 0.46134-0.15761 0.54467-0.17827 0.44505-0.13778 0.28659-0.27521 0.48984-0.24281 0.37897-0.23924 0.34536-0.32465 0.42602-0.32401 0.37682-0.36823 0.37555-0.24317 0.22096-0.3292 0.27015-0.34316 0.25176-0.37638 0.24855-0.5455 0.32634-2.192 1.2123-1.1268 0.66181-2.8676 1.8065-2.7882 1.8348-1.0302 0.62611-0.94824 0.50429-1.1408 0.50382-2.6425 1.0373-1.6094 0.59805-0.85531 0.35776-0.89701 0.45529-0.29146 0.1714-0.53136 0.35552-0.38862 0.30311-0.40364 0.36857-0.28005 0.30396-0.32796 0.45023-0.11363 0.20232-0.10878 0.23931-0.12554 0.38434-0.087961 0.45164-0.029188 0.27584-0.015104 0.29327 0.002617 0.49994 0.05031 0.75649 0.10267 0.88503 0.12895 0.88111 0.64438 3.8186 0.082077 0.80226 0.064592 1.2257 0.11154 0.72453 0.16917 0.64236 0.15259 0.42869 0.1817 0.41094 0.37737 0.63609 0.28663 0.3463 0.33023 0.29677 0.60927 0.36414 0.70176 0.29759 0.76077 0.26403 1.5848 0.51154 0.77182 0.28786 0.72292 0.33784 0.64479 0.41258 0.40527 0.35721 0.28274 0.30064 1.1038 1.3373 0.16355 0.17427 0.34636 0.32191 0.48734 0.35258 0.42144 0.25144 1.2076 0.65965 0.38548 0.24069 0.64968 0.48745 0.64145 0.57938 0.70475 0.73898 0.65289 0.78059 0.52635 0.74708 0.51341 0.87488 0.42058 0.85396 0.28209 0.67648 0.23799 0.6755 0.2535 0.87967 0.16101 0.70563 0.1654 0.99218 0.080888 0.8684 0.017461 0.50654-0.01023 0.64109-0.02898 0.44436-0.075847 0.66971-0.11206 0.68723-0.20603 0.96132-0.66084 2.6727-0.12902 0.64492-0.090193 0.59928-0.038702 0.48758 0.014965 0.57552 0.066469 0.42698 0.15107 0.52631 0.12678 0.3233 0.19205 0.41282 0.84054 1.5584 0.88024 1.6927 0.45104 0.76203 0.2983 0.42635 0.36332 0.43603 0.49408 0.47988 1.3392 1.0703 0.61355 0.55663 1.5454 1.633 0.55817 0.61424 0.45129 0.54205 0.43092 0.57436 0.62406 0.92682 1.0334 1.6698 0.38836 0.52589 0.089946 0.095961 0.079779 0.044894-0.70817 0.32104-0.23232 0.13047-0.35736 0.2375-0.2707 0.22417-0.24561 0.25418-0.23094 0.31021-0.12344 0.20745-0.15751 0.32242-0.10777 0.26691-0.56865 1.7303-0.2959 0.78244-0.34448 0.69417-0.3262 0.51293-0.19335 0.25468-0.46401 0.51512-0.51819 0.48206-0.40156 0.32539-1.1955 0.89827-0.53907 0.47406-0.29975 0.29322-0.46812 0.51714-0.2281 0.28841-0.21585 0.29859-0.37342 0.58529-0.20513 0.37492-0.22499 0.4805-0.79936 1.9591-0.41194 1.2203-0.20037 0.66824-0.0943 0.38284-0.068723 0.41159-0.025026 0.25678-0.010858 0.30384 0.011216 0.29421 0.042283 0.32732 0.057337 0.24895 0.083001 0.2438 0.076079 0.16137 0.070195 0.082778-0.099369-0.073106-0.30634-0.092112-0.40026-0.059115-0.42276-0.018814-0.63528 0.045431-0.3681 0.070064-0.33081 0.096059-0.30756 0.12411-0.17488 0.089144-0.18915 0.11523-0.23904 0.18048-0.2519 0.2466-0.25667 0.33813-0.2562 0.47206-0.16846 0.42053-0.16087 0.51269-0.2042 0.83107-0.36504 1.7481-0.29281 1.1307-0.4169 1.2925-0.67338 1.8027-0.089512 0.29386-0.11354 0.47014-0.12165 0.76405-0.050618 0.54492-0.12485 3.0969-0.14363 1.9161-0.10248 0.85438-0.14989 0.82851-0.21988 0.79114-0.31725 0.7397-0.47186 0.72394-0.58418 0.66504-0.66692 0.62166-0.72718 0.58987-0.77063 0.5664-0.80172 0.54848-0.82393 0.53373-1.692 1.0248-0.86183 0.48634-0.87073 0.46161-0.87998 0.4276-0.89069 0.38053-0.90392 0.3157-0.92075 0.22736-0.95616 0.12079-0.9706 0.027553-0.97786-0.043666-0.97796-0.099421-0.97023-0.1453-0.95321-0.18618-0.72014-0.17113-0.69728-0.19179-0.66714-0.21032-0.67823-0.24704-0.67359-0.28991-0.61169-0.32705-0.48073-0.35243-0.27614-0.367-0.039794-0.15207 0.031869-0.27961 0.1317-0.28241 0.45468-0.71767 0.15553-0.317 0.069234-0.20647 0.047429-0.28332 0.002124-0.24677-0.065495-0.42035-0.055648-0.2205-0.3447-1.2201-0.14691-0.43612-0.25195-0.57328-0.23278-0.41992-0.98017-1.5049-0.19495-0.34936-0.27859-0.68488-0.20621-0.75945-0.15086-0.81577-0.10903-0.85778-0.077783-0.88871-0.092728-1.8383-0.17142-8.6962-0.040491-3.6757-0.042757-1.8236-0.11121-1.9692-0.3292-4.633-0.11175-1.049-0.093245-0.62787-0.11769-0.60186-0.19065-0.70375-0.25073-0.65995-0.32068-0.58238-0.41636-0.47711-0.4184-0.29085-0.44489-0.20659-0.39097-0.13111-0.76357-0.17921-0.86728-0.14074-1.3008-0.15887-2.1288-0.15803-1.363-0.12552-2.7101-0.31197-1.9716-0.14125-1.6806-0.075181-0.89399 0.004986-0.72974 0.052127-0.58786 0.076519-0.76925 0.1479-0.69117 0.18169-0.67905 0.22053-2.7758 1.0119-0.52778 0.17735-0.53638 0.14712-0.33597 0.068118-0.45756 0.061519-0.29816 0.021501-0.63684 0.004079-0.56322-0.036045-0.67637-0.084782-1.4677-0.24723-1.0872-0.14773-1.241-0.10684-0.87506-0.036226-0.5503 0.001856-0.61905 0.036114-2.3459 0.26961-1.2944 0.097598-0.96896 0.041313-0.86437 0.016598-1.259-0.013178-0.81114-0.034322-0.49206-0.04059-0.70795-0.095517-0.75856-0.1546-0.34403-0.089213-0.49132-0.15614-0.36698-0.14823-0.32954-0.176-0.1104-0.089691-0.020164-0.066076 0.004536-0.058716-0.045177-0.10965-0.070598-0.093474-0.10367-0.10378-0.21984-0.16791-0.32269-0.17997-0.21594-0.09485-0.46882-0.16542-0.42673-0.11541-0.52204-0.10076-0.47016-0.059319-1.8528-0.17174-0.58155-0.088177-0.48245-0.10529-0.38959-0.10279-0.71235-0.22065-0.67709-0.2596-0.48594-0.22661-0.69631-0.38607-0.69985-0.45643-0.57419-0.42163-0.69262-0.55957-0.66003-0.57889-0.60484-0.56398-1.4844-1.466-0.63976-0.59195-0.39721-0.31542-0.40941-0.26594-0.27368-0.14029-0.23768-0.0996-0.58621-0.17999-2.7072-0.64098-0.38744-0.073119-0.62859-0.073703-0.3643-0.011298-0.54586 0.020564-0.4228 0.042792-0.7043 0.11613-0.72872 0.16802-1.9433 0.49366-1.7698 0.39511-1.451 0.35476-0.71144 0.12777-0.64798 0.066835-1.3277 0.032883-0.5924-0.001635-0.37998-0.023389-0.39554-0.047056-0.37657-0.069605-1.3201-0.33149-0.53722-0.094322-0.231-0.017603-0.33691 0.004509-0.29643 0.03001-0.28698 0.050284-0.55789 0.15291-0.44238 0.16464-0.41425 0.18221-0.5174 0.26691-0.79778 0.49355-1.4676 1.0181-0.59327 0.39133-0.76839 0.4635-0.71005 0.36741-0.33592 0.15035-0.5084 0.19841-0.77263 0.2411-0.68559 0.15932-1.1605 0.1895-0.72045 0.070898-0.3804 0.018222-0.58776 0.002541-0.77227-0.033229-0.90992-0.080894-1.7753-0.27289-0.84662-0.092175-1.8384-0.10998-2.2828-0.090699-0.98601-0.019949-0.88578 0.00555-2.4842 0.14144-0.097625-0.1671-0.52215-1.0944-0.47421-1.0878-0.19224-0.53838-0.10504-0.3506-0.13121-0.5457-0.081868-0.47332-0.07957-0.82784-0.002415-0.87467 0.049133-0.73072 0.16702-1.7744 0.031875-0.63548-0.024756-0.66533-0.055149-0.35888-0.065896-0.25919-0.10285-0.2841-0.1742-0.34432-0.14367-0.21697-0.1768-0.2179-0.24058-0.23788-0.25724-0.20065-0.28133-0.17179-0.32381-0.14936-0.24912-0.085261-0.44349-0.098996-0.48089-0.05143-0.5019-0.010521-0.53574 0.022994-0.59077 0.052279-1.2841 0.16842-3.446 0.56488-1.9489 0.27191-0.87795 0.097856-1.4096 0.11538-0.88612 0.04108-1.3052 0.010735-0.63625-0.020026-0.79637-0.0523-0.77857-0.080647-0.72684-0.099082-1.4718-0.25844-3.6352-0.7141-1.5486-0.25734-0.82981-0.10709-1.1375-0.099079-0.75816-0.019257-0.83784 0.04516-0.61968 0.10404-0.4477 0.13353-0.52206 0.26139-0.23849 0.18284-0.17642 0.17065-0.2351 0.28169-0.145 0.20686-0.24802 0.41054-0.45843 0.89166-0.31201 0.70227-0.57145 1.4039-0.33692 0.71288-0.24983 0.39423-0.21851 0.25452-0.1398 0.12979-0.2276 0.17083-0.17166 0.10268-0.30285 0.13823-0.34134 0.10397-0.3057 0.060973-0.69658 0.076778-0.87396 0.042813-0.81512 0.015817-3.0721-0.038957-0.29072 0.014104-0.074837 0.031737 0.009361-0.02424-0.040956-0.046231-0.12228-0.076651-0.28274-0.13844-3.3674-1.3696-1.0081-0.442-0.96962-0.4602-0.47942-0.24598-0.78854-0.44234-0.74079-0.47735-0.61943-0.47036-0.41523-0.37457-0.3547-0.36383-0.54936-0.63719-0.59986-0.7948-0.25702-0.39203-0.17994-0.30824-0.2525-0.53186-0.15563-0.51246-0.04439-0.30624-0.011713-0.24889 0.012948-0.34951 0.02626-0.23885 0.12004-0.60176 0.23494-0.76881 0.26723-0.67532 0.26284-0.56209 0.2323-0.44054 0.34408-0.56193 0.20554-0.29401 0.31554-0.40934 0.92164-1.1161 0.50303-0.68275 0.44305-0.71384 0.20252-0.38985 0.17576-0.4033 0.17739-0.4966 0.1432-0.50339 0.099347-0.42522 0.29889-1.5564 0.21443-0.97102 0.58604-2.321 0.2475-0.88804 0.30046-0.90437 0.30677-0.76507 0.23339-0.49544 0.24849-0.46165 0.21306-0.35473 0.28405-0.42935 0.41179-0.56433 0.71587-0.86846 0.97059-1.0347 1.2104-1.1795 0.73716-0.66781 1.0742-0.90895 0.93616-0.71368 1.477-1.03 0.53627-0.42038 0.46516-0.41253 0.59087-0.59172 0.48838-0.53893 0.41766-0.50258 0.35072-0.47353 0.4108-0.66551 0.33901-0.69381 0.26196-0.71218 0.12922-0.47206 0.134-0.60137 0.097899-0.61792 0.06439-0.86099 0.023952-1.2055-0.027263-1.45-0.10073-1.4999-0.097693-0.78004-0.089475-0.50585-0.12528-0.52247-0.19907-0.57365-0.12159-0.25842-0.17022-0.2896-0.21082-0.28697-0.15387-0.18003-0.41105-0.41478-1.3458-1.1842-0.30784-0.32417-0.22668-0.29538-0.17818-0.31339-0.16547-0.54228-0.029779-0.28429 0.003173-0.4172 0.038323-0.43709 0.066314-0.45586 0.16362-0.78041 0.22438-0.78861 0.22903-0.63884 0.26772-0.61244 0.19385-0.37452 0.21087-0.35273 0.30773-0.43619 0.58671-0.76584 0.18199-0.27972 0.19538-0.37325 0.62026-1.4904 0.62679-1.4484 0.29543-0.81157 0.26145-0.92991 0.19612-0.86333 0.18683-0.95 0.20381-1.1874 0.29605-1.8752 0.061667-0.5777 0.087256-1.4174 0.056582-0.4776 0.071052-0.38585 0.1504-0.50035 0.1436-0.3058 0.21307-0.32802 0.65894-0.83272 0.18476-0.29399 0.22472-0.43943 0.26863-0.6985 0.16477-0.60722 0.12645-0.65223 0.09036-0.68141 0.075233-1.0827 0.001795-0.93215-0.058892-0.94748-0.072274-0.60648-0.089652-0.54324-0.11378-0.53569-0.2546-0.88378-0.16836-0.4432-0.19655-0.42826-0.36668-0.64143-0.34248-0.51318-1.5837-2.1387-0.81225-1.203-1.1001-1.7371-0.18183-0.33203-0.19635-0.45651-0.094679-0.28122-0.12632-0.47681-0.15956-0.82876-0.3299-2.49-0.051795-0.69326 0.016252-0.43372 0.049052-0.21863 0.048135-0.12617 0.10467-0.17838 0.092766-0.10762 0.20224-0.15631 0.17614-0.093786 0.24628-0.099954 0.44686-0.14395 2.0967-0.62238 0.51938-0.12598 0.64943-0.13065 0.67156-0.11166 3.2519-0.4561 1.4771-0.18753-0.035146-0.1861 0.13997-0.2531 0.41461-0.38335 0.57719-0.38492 0.82142-0.47727 0.41396-0.2259 0.87449-0.42949 0.26141-0.14808 0.35057-0.25893 0.18094-0.17613 0.14781-0.19564 0.10586-0.201 0.054977-0.15233 0.058907-0.26234 0.051311-0.45548 0.06986-0.25598 0.10414-0.21142 0.15163-0.2214 0.22306-0.25424 1.2174-1.2032 0.36817-0.38542 0.20259-0.24205 0.29788-0.40096 0.28451-0.4312 0.3389-0.57517 0.31251-0.59173 0.36181-0.75345 0.42547-0.97165 0.76455-1.9142 1.6127-4.349 0.574-1.4161 0.38427-0.85511 0.38319-0.71061 0.32797-0.51256 0.5675-0.769 0.61846-0.74034 0.65392-0.71956 1.3672-1.398 2.0887-2.0443 0.69721-0.65837 0.69818-0.61536 0.70551-0.5498 0.32086-0.21823 0.25988-0.15913 0.3255-0.17207 0.66733-0.26024 0.6435-0.17688 1.9124-0.44098 1.5417-0.43251 0.62172-0.20922 0.59074-0.25896 0.33545-0.18998 0.44461-0.29968 0.43159-0.32891 0.40587-0.35019 1.2541-1.206 0.57988-0.51034 0.58378-0.46881 0.49164-0.36439 1.5026-1.0633 0.88703-0.66997 0.92118-0.75805 0.63514-0.58814 0.51715-0.51889 0.57895-0.61988 0.54216-0.61663 0.86902-1.0633 0.51393-0.67972 0.48276-0.68959 0.26245-0.406 0.24137-0.40335 0.34848-0.66084 0.13272-0.28886 0.19679-0.47852 0.21981-0.62016 0.23312-0.79645 0.13785-0.57932 0.1253-0.66996 0.088976-0.82588 0.017402-0.47594-0.005331-0.50717-0.019224-0.28723-0.074432-0.55792-0.15807-0.68196-0.20272-0.59496-0.22215-0.5037-0.32164-0.60323-0.49902-0.79044-1.1776-1.6214-0.5025-0.72704-0.35177-0.58469-0.27193-0.50491-0.38932-0.78455-1.8413-3.974-0.46742-0.97067-0.63011-1.2274-0.36152-0.64366-0.40125-0.64547-0.60211-0.83625-0.64708-0.7858-0.94244-1.0193-0.52538-0.50341-0.39168-0.32874-1.3261-0.96513 0.32966-0.6309 0.1549-0.33162 0.56676-1.4509 0.13581-0.26383 0.15704-0.233 0.18457-0.19412 0.21562-0.14979 0.24092-0.11634 0.25822-0.095667 0.72923-0.24041 0.48051-0.21413 1.7208-0.92096 0.48779-0.31208 0.20539-0.17672 0.16763-0.19814 0.13419-0.24829 0.095767-0.26964 0.15258-0.55468 0.093174-0.26068 0.12985-0.23159 0.15814-0.17079 0.19247-0.14024 0.21687-0.11277 0.23528-0.087573 0.24255-0.06041 0.39469-0.036107 0.2667 0.027437 0.20019 0.062845 0.29878 0.19145 0.16562 0.078737 0.19814 0.034838 0.24109-0.002144 0.32014-0.046694 0.34923-0.086396 0.56889-0.18936 0.73899-0.27782 0.13785-0.043729 0.082265-0.005852 1.2987-0.55936 0.89761-0.36464 0.51412-0.18663 0.63501-0.20174 0.47894-0.1273 0.82788-0.16642 1.0079-0.12805 0.61755-0.050143 0.80545-0.040999 1.5969-0.02201 2.3498 0.056742 3.1024 0.16659 5.1327 0.3701 1.7012 0.073133 1.6128 0.026264 0.79852-0.018985 0.78872-0.054901 0.77401-0.106 0.27257-0.053573 0.74857-0.18791 0.64256-0.20871 0.623-0.2646 0.46797-0.24566 0.44077-0.26573 0.47936-0.32752 0.39129-0.3032 0.32808-0.28658 0.33702-0.33826 0.30859-0.3667 0.18313-0.25438 0.24158-0.383 0.24586-0.44356 1.2218-2.5161 0.61048-1.1192 1.8242-2.966 0.23317-0.34365 0.23546-0.30873 0.10744-0.084088 0.1073-0.17628 0.236-0.29013 0.24305-0.25045 0.29081-0.25211 0.33658-0.254 0.37269-0.23973 0.50286-0.25894 0.3996-0.1647 0.41748-0.12896 0.50541-0.092058 0.41577-0.032448 0.42776-1.73e-4 0.44068 0.032061 0.66334 0.10809 0.71375 0.19314 1.4266 0.4857 0.7218 0.22443 2.1174 0.58852 3.0068 0.93268 2.2784 0.63207 1.22 0.40191 0.9295 0.3723 1.2845 0.59619 0.92316 0.46964 0.9586 0.5133 1.6521 0.91848 1.7818 1.0219 0.81357 0.44445 0.35163 0.20988 0.27912 0.20741 0.14697 0.14692 0.12126 0.17635 0.095847 0.3238-2.41e-4 0.36165-0.038993 0.27549-0.075925 0.28772-0.16136 0.37961-0.2203 0.38469-0.30822 0.4465-0.33581 0.4336-0.75266 0.88807-0.29488 0.41821-0.20273 0.38488-0.060304 0.20097" stroke="#bdc660"/>
    </defs>
    <g clip-path="url(#p278e63dd81)">
     <use y="280.512" fill="#bdc660" stroke="#bdc660" xlink:href="#mb368d95f57"/>
    </g>
   </g>
  </g>
 </g>
 <defs>
  <clipPath id="p278e63dd81">
   <rect x="7.2" y="7.2" width="220.83" height="266.11"/>
  </clipPath>
 </defs>
</svg>
