<?xml version="1.0" encoding="UTF-8"?>
<!DOCTYPE svg  PUBLIC '-//W3C//DTD SVG 1.1//EN'  'http://www.w3.org/Graphics/SVG/1.1/DTD/svg11.dtd'>
<svg width="273.31pt" height="280.51pt" version="1.1" viewBox="0 0 273.31 280.51" xmlns="http://www.w3.org/2000/svg" xmlns:xlink="http://www.w3.org/1999/xlink">
 <metadata>
  <rdf:RDF xmlns:cc="http://creativecommons.org/ns#" xmlns:dc="http://purl.org/dc/elements/1.1/" xmlns:rdf="http://www.w3.org/1999/02/22-rdf-syntax-ns#">
   <cc:Work>
    <dc:type rdf:resource="http://purl.org/dc/dcmitype/StillImage"/>
    <dc:date>2024-07-04T12:10:59.486713</dc:date>
    <dc:format>image/svg+xml</dc:format>
    <dc:creator>
     <cc:Agent>
      <dc:title>Matplotlib v3.7.1, https://matplotlib.org/</dc:title>
     </cc:Agent>
    </dc:creator>
   </cc:Work>
  </rdf:RDF>
 </metadata>
 <defs>
  <style type="text/css">*{stroke-linejoin: round; stroke-linecap: butt}</style>
 </defs>
 <g id="figure_1">
  <g id="patch_1">
   <path d="m0 280.51h273.31v-280.51h-273.31v280.51z" fill="none"/>
  </g>
  <g id="axes_1">
   <g id="PatchCollection_1">
    <defs>
     <path id="m7fa9f31fdd" d="m172.95-248.82 0.93355 0.19173 0.92067-0.016492 0.73362-0.19883 0.71343-0.34633 0.61984-0.41277 0.59904-0.4918 0.93763-0.94569 0.78737-0.96584 0.81514-1.2042 1.2375-2.0138 0.62218-0.88809 0.50738-0.54688 0.5951-0.42359 0.6267-0.27643 0.48382-0.14541 0.75556-0.16009 1.1513-0.14698 0.86885-0.054576 0.8809-0.013982 1.0556 0.041552 1.0802 0.13981 0.8983 0.20757 0.86215 0.24776 1.0112 0.31574 0.90377 0.34272 0.7988 0.43979 0.53002 0.45549 0.15387 0.16993 0.33255 0.45892 0.2477 0.50076 0.15187 0.55023 0.033845 0.26445-0.020762 0.73131-0.16189 0.72545-0.27514 0.69253-0.20192 0.37946-0.5466 0.82112-0.39113 0.45909-0.74495 0.72007-0.4357 0.32031-0.45792 0.26915-1.778 0.76504-2.1354 1.0305-0.70977 0.42767-0.35305 0.28961-0.4943 0.46217-0.35889 0.34926-0.29007 0.39143-0.19313 0.57459 0.016444 0.67694 0.22719 0.63903 0.36291 0.58777 0.40931 0.48841 0.28922 0.28721 0.44576 0.38259 0.37867 0.28075 0.52225 0.33141 0.39111 0.2114 0.98666 0.43727 1.0596 0.33593 1.114 0.2055 0.98471 0.058296 1.4474-0.033499 1.8702-0.14016 1.3705-0.16733 2.8333-0.41402 1.0187-0.058397 0.63362 0.060917 0.25706 0.063139 0.53053 0.24726 0.58461 0.638 0.34902 0.90086 0.074691 0.40392 0.047379 0.49063-0.005789 1.1238-0.11069 1.2549-0.45966 3.6736-0.1547 1.448-0.16824 2.0638-0.12152 2.0321-0.023607 1.5679 0.092235 1.5135 0.26842 1.4285 0.5198 1.3043 0.49964 0.75365 0.6189 0.69384 0.69969 0.62889 0.77714 0.59115 0.97032 0.64704 2.8246 1.6915 1.437 0.90238 0.94456 0.66612 0.94604 0.77724 0.32396 0.3136 0.4844 0.5687 0.253 0.4612-0.050844 0.29166-0.18552-0.012751-0.44977 0.05817-1.0558 0.18689-0.96827 0.20345-1.3152 0.32558-1.3347 0.41184-0.57186 0.21345-0.27905 0.11534-1.1648 0.59271-0.91377 0.69276-0.53965 0.68096-0.27608 0.70928 0.001248 0.69042 0.12487 0.35987 0.15121 0.26761 0.25212 0.32846 0.48035 0.4656 0.51368 0.38926 0.49407 0.31272 0.58757 0.31371 0.89817 0.37924 0.93993 0.28871 0.83251 0.17596 0.64704 0.091262 1.3543 0.085605 2.0774-0.00207 1.0261-0.025727 1.712-0.14432 0.96166-0.18144 0.83839-0.28554 0.76968-0.35481 1.3142-0.67438 0.4732-0.17149 0.3705-0.049803 0.44908 0.064969 0.50751 0.33527 0.37281 0.56452 0.19774 0.72633 0.009944 0.71467-0.024346 0.27314-0.46549 2.5345-0.070394 0.69181-0.034775 1.0749 0.092682 1.0865 0.095908 0.61442 0.18036 0.82375 0.33346 1.1981 1.8327 5.8079 0.41342 1.1278 0.48048 1.1083 0.62091 1.0766 0.73029 1.024 0.79247 0.9766 2.0959 2.3971 0.5073 0.70228 0.48826 1.0113 0.13337 0.41884 0.16712 0.81584 0.065199 1.0812-0.059493 0.8474-0.12226 0.67005-0.25836 0.75068-0.41158 0.68613-0.45883 0.54615-0.70759 0.67722-1.4363 1.2575-0.6382 0.60431-0.548 0.63216-0.39867 0.67947-0.21189 0.79665-0.020953 0.83708 0.12149 0.84048 0.51784 1.9543 0.15815 0.90353 0.061121 0.6323 0.019883 0.62966-0.028837 1.5987 0.013422 1.015 0.051977 0.68025 0.08909 0.64779 0.1391 0.70135 0.16965 0.67704 0.55385 1.8547 0.30524 1.162 0.6357 3.7977 0.2355 0.9728 0.32072 0.93245 0.46859 0.96296 1.1917 2.061 0.5773 1.2513 0.39816 1.3651 0.14992 1.3786-0.040314 1.4649-0.2019 1.5898-0.3274 1.6329-0.41813 1.6421-0.474 1.6047-0.48998 1.4995-0.92809 2.5991-0.035199 0.1701 0.21216-0.095244 0.33775-0.20794 1.8678-1.1992 0.8647-0.47478 0.89805-0.39854 0.82792-0.25518 0.82397-0.11604 1.1252 0.11104 1.0655 0.38104 0.97747 0.58216 0.62471 0.49792 0.42797 0.39948 0.4171 0.45743 0.42314 0.56183 0.40455 0.66413 0.21061 0.42464 0.32897 0.93142 0.18801 0.87073 0.087942 0.70711 0.019185 0.70802-0.059502 0.69669-0.34704 1.9061-0.093785 0.70132-0.02684 0.49093 0.018407 0.52386 0.12867 0.7866 0.23471 0.8001 0.25582 0.65981 0.31944 0.69292 0.79144 1.4376 0.67631 1.0773 0.69466 1.0279 1.5706 2.2328 0.72773 1.1084 0.54716 0.96925 0.61275 1.3843 0.32576 0.95217 0.34847 1.4078 0.15423 1.0205 0.07059 1-0.030882 1.4185-0.12276 1.0551-0.15305 0.79856-0.69693 2.6997-0.249 1.2372-0.084832 0.73191-0.018273 0.84522 0.093066 0.87605 0.17057 0.76383 0.19969 0.61616 0.39381 0.84628 0.55004 0.79728 2.9049 3.2539 0.64323 0.8795 0.26466 0.54592 0.1925 0.53742 0.3335 1.0905 0.084751 0.41118 0.04732 0.45437 0.017549 0.72013-0.01294 0.60119-0.033979 0.2461-0.15763 0.45422-0.21155 0.30427-0.43179 0.37754-0.37287 0.23236-0.91424 0.44738-3.1709 1.2702-0.78641 0.36092-0.97294 0.55287-0.84969 0.56414-0.94725 0.70627-0.73464 0.62391-0.23991 0.22722-1.4511 1.601-0.64229 0.65689-0.46157 0.39622-0.88286 0.58859-0.8907 0.45507-2.749 1.1424-3.7884 1.7798-0.98678 0.53882-0.9897 0.72874-0.72347 0.79674-0.50761 0.82159-0.26868 0.71688 0.028538 0.45923 0.061948 0.26404-0.14437 0.51-0.36074 0.75118-0.23979 0.39793-0.37269 0.53672-0.91633 1.0849-1.1007 1.0669-1.2311 1.0131-1.3213 0.93522-1.3835 0.83807-1.4277 0.7221-1.4617 0.5851-0.56856 0.18335-1.5896 0.40214-1.5865 0.29573-3.0621 0.50872-1.4219 0.32619-1.3067 0.45334-1.1509 0.64868-0.90066 0.82511-0.76223 1.0047-0.6535 1.1388-0.48072 1.0342-0.42809 1.0875-0.38124 1.1276-0.32464 1.1101-0.28547 1.1298-0.24541 1.1433-0.24863 1.4645-0.16445 1.4698-0.058907 1.2374 0.022945 1.2266 0.18655 2.832 0.048406 1.2871-0.009764 1.1091-0.054326 1.2065-0.10904 1.2967-0.11679 0.80006-0.3173 1.4613-0.15451 0.55459-0.34691 1.0573-0.40594 1.0385-0.4594 1.011-0.4628 0.89083-0.50222 0.85494-0.59608 0.88919-0.64248 0.82247-0.54859 0.59874-0.57964 0.53623-0.82718 0.60018-0.68564 0.35553-0.76252 0.26823-0.52908 0.11631-0.59315 0.070316-0.87743-0.007034-0.59565-0.082375-0.31932-0.07239-0.26628-0.077471-0.64319-0.25696-0.62821-0.339-0.99078-0.68272-0.94265-0.78424-0.89438-0.83688-0.61097-0.6197-0.83216-0.92905-0.9921-1.3045-0.91812-1.401-0.86526-1.464-0.82967-1.4999-2.4168-4.4889-0.82668-1.4156-0.86329-1.3273-0.92059-1.1989-1.0042-1.0188-1.1218-0.7715-0.78511-0.33187-1.1586-0.30012-1.6432-0.23163-1.4503-0.10018-1.5035-0.041256-3.11 0.030753-3.1853 0.11836-3.2159 0.17106-3.2219 0.22212-1.6081 0.13702-3.2024 0.35393-4.7425 0.64861-2.4358 0.21634-1.6678 0.083638-1.6712 0.028476-1.6728-0.03416-1.6724-0.11037-1.6693-0.20738-1.6336-0.31532-1.6341-0.40807-1.6405-0.47822-3.3209-1.0992-6.751-2.3878-4.8563-1.6731-3.4397-1.1464-1.1523-0.34916-0.15592-0.13457-0.39953-0.20693-0.98455-0.41112-0.87468-0.30522-0.90223-0.26452-0.93355-0.22207-1.4803-0.2343-0.68154-0.053727-1.1124-0.011154-0.82448 0.058723-1.3413 0.21808-1.0963 0.31696-0.79761 0.34379-0.75787 0.41085-1.9852 1.2325-0.74652 0.42141-0.76194 0.3846-1.0842 0.45208-1.1037 0.30332-1.1392 0.1622-1.1552 0.02236-1.1532-0.12335-0.65639-0.13976-1.5854-0.5232-0.87495-0.38796-0.69426-0.35153-0.80056-0.45199-3.6204-2.2737-1.1568-0.77429-1.8947-1.3384-1.7109-1.1203-1.1647-0.69107-1.052-0.58655-1.4929-0.77059-1.299-0.59722-0.67547-0.27765-1.1018-0.39917-1.2597-0.37756-0.8151-0.21126-2.1344-0.47964-8.4303-1.7517-1.0846-0.27325-2.0035-0.59008-1.2863-0.43097-1.0915-0.42958-1.0376-0.48517-1.0107-0.54371-0.89099-0.56742-0.77003-0.58339-0.7829-0.71785-0.58881-0.6596-0.58067-0.80529-0.43837-0.77223-0.27045-0.58903-0.19118-0.49696-0.29331-0.95231-0.58142-2.4416-0.47184-2.3474-0.35932-2.4155-0.14458-0.72136-0.22998-0.811-0.38236-0.93595-0.217-0.41725-0.48414-0.79681-0.43546-0.63164-3.1781-4.1173-1.2662-1.5335-1.463-1.5943-2.0192-2.0337-1.0118-0.97667-1.0137-0.92838-0.73233-0.6141-0.77436-0.5926-0.84948-0.60006-1.5419-1.0066-3.5164-2.1405-1.3713-0.86962-1.4189-0.97517-0.64641-0.48845-1.0399-0.87371-0.91539-0.91539-0.49856-0.61046-0.52113-0.79942-0.43617-0.84558-0.27179-0.6316-0.26388-0.72233-0.21954-0.73121-0.22102-0.98903-0.12498-0.97845-0.021034-0.5663 0.081633-0.97706 0.17137-0.74965 0.21152-0.60117 0.22623-0.49497 0.52199-0.87234 0.17957-0.2462 0.74396-0.861 0.77066-0.75134 2.9753-2.5743 0.7959-0.81046 0.59839-0.75796 0.29282-0.53104 0.081889-0.32012-0.019652-0.11466-0.08811-0.090061 0.50789-0.44176 0.95318-0.97433 3.167-3.0602 0.60758-0.6267 0.57653-0.67843 1.9468-2.4229 3.1889-3.4983 0.78267-0.9474 0.61543-0.89154 0.51942-1.0016 0.56755-1.3046 1.2167-3.037 0.41006-0.87089 0.26216-0.46624 0.33082-0.50426 0.29013-0.35628 0.39411-0.37168 0.44095-0.28427 0.26684-0.11248 0.21264-0.063883 0.63859-0.09428 0.65264 0.010317 0.44591 0.051136 0.5353 0.10212 0.93258 0.28113 0.45302 0.17955 0.72082 0.33454 1.202 0.66089 1.3108 0.78583 0.39074-0.029172 0.4457-0.077757 1.299-0.31422 0.9565-0.33054 0.41922-0.18832 0.80464-0.5147 0.43303-0.43214 0.35383-0.50166 0.41114-0.8968 0.28842-0.89509 0.61364-2.2801 0.38455-1.3315 0.26133-0.79005 0.50459-1.249 1.6671-3.5636 0.41372-1.1233 0.25995-1.0233 0.59246-2.6284 0.13393-0.87122 0.040588-0.8795-0.095362-0.88042-0.33187-1.048-0.52038-1.0459-0.64589-1.0505-1.8464-2.7104-2.0453-3.0719-1.7448-2.4832-0.34131-0.65976-0.20204-0.65332-0.035048-0.61738 0.10471-0.44476 0.35994-0.65502 1.1841-1.5718 0.47798-0.67544 0.77198-1.2448 0.57814-1.1686 0.25166-0.62989 0.39226-1.1218 0.35371-1.2418 0.18574-0.75435 0.57033-2.6646 0.53781-1.8482 0.33697-1.2884 0.5051-2.3845 1.3414-5.801 0.21518-1.2432 0.042829-0.79081-0.055772-0.56273-0.14551-0.22511 1.039 0.10345 2.8463 0.16365 2.1767 0.073072 2.0356 0.02455 2.4466-0.028342 3.358-0.086286 7.3047-0.28874 1.8789-0.033726 1.4163 0.006729 1.7257 0.065523 1.6991 0.16109 0.83805 0.13069 0.78974 0.1658 1.0305 0.30558 0.88344 0.39931 0.81708 0.57714 0.6787 0.60902 0.63632 0.52647 0.31328 0.19225 1.0488 0.45144 0.61858 0.29813 0.83168 0.50357 0.5494 0.39863 0.62213 0.54784 0.54356 0.60633 1.0725 1.3151 0.68962 0.7219 1.4447 1.4315 0.64762 0.76119 0.52244 0.82892 0.26805 0.63872 0.20056 0.6749 0.48761 2.2471 0.13945 0.48392 0.18093 0.5005 0.55063 1.0832 0.72323 1.0419 0.85352 0.99206 0.9499 0.92904 1.0191 0.84692 1.0666 0.73828 1.0964 0.59388 1.1114 0.4023 1.1136 0.14962 1.0834-0.14236 1.0772-0.36462 1.0741-0.50648 2.1535-1.1644 1.0876-0.53404 3.6296-1.479 1.0653-0.47541 0.86236-0.48432 0.98287-0.66221 0.69475-0.53197 0.98738-0.84325 1.4919-1.4219 3.0709-3.0907 1.0689-0.96591 0.9428-0.72728 0.89395-0.58086 0.92119-0.50179 0.94024-0.4168 0.40296-0.14948 0.84898-0.26466 0.85486-0.22236 2.7807-0.57712 0.87639-0.15036 1.806-0.24719 1.056-0.22458 0.40983-0.13079 0.41532-0.17371 0.27793-0.15007 0.36444-0.25608 0.4022-0.38986 0.24777-0.31135 0.21999-0.34616 0.3579-0.78283 0.20063-0.85388-0.011447-0.89527-0.038528-0.2049-0.20986-0.63436-0.38437-0.70928-0.31948-0.45594-0.3598-0.44709-0.45268-0.50377-0.95419-0.94436-1.6794-1.487-3.6914-3.1118-1.4323-1.3524-0.72899-0.81046-0.46464-0.62198-0.30607-0.5185-0.14824-0.33401-0.12918-0.4572-0.023397-0.74321 0.151-0.70604 0.35553-0.85199 0.33832-0.59445 0.78446-1.1174 0.92482-1.1269 3.0706-3.4342 0.96818-1.1679 0.86409-1.186 0.45805-0.72505 1.0313-1.753 0.94248-1.7054 0.44064-0.9297 0.4123-0.97087 2.6973-6.6335 0.2988-0.79972 0.554-1.6536 0.18591-0.64202 0.29608-1.2856 0.10518-0.94134 0.015164-0.97248-0.072157-1.041-0.067591-0.5224-0.15858-0.90104-0.30835-1.3453-0.39192-1.4499-0.35386-1.167-0.63805-1.8821-1.0182-2.6102-1.6739-3.8656-2.0165-4.8506-0.64658-1.3981-0.47012-0.91422 0.071635-0.15726 0.26447-0.2123 0.52415-0.27917 0.67807-0.26405 0.57306-0.16994 0.60883-0.13666 0.67501-0.10343 0.52313-0.046526 0.39718-0.015438 1.089 0.043054 1.0574 0.15373 0.99525 0.24456 2.0932 0.72918 1.1848 0.34212 0.32835 0.070645 1.0317 0.14498 0.99838 0.11403 0.96178 0.21098 1.0036 0.45267 0.78279 0.52523 0.67046 0.57279 0.59245 0.62277 1.008 1.2686 0.64052 0.67375 0.2821 0.25658 0.9108 0.72388 1.4819 0.99909 0.57963 0.42536 1.3893 1.1897 0.80822 0.64566 0.88438 0.6197 0.93425 0.56747 0.60167 0.31485 0.29391 0.13629 0.93269 0.34812" stroke="#bdc660"/>
    </defs>
    <g clip-path="url(#pf31969a8b9)">
     <use y="280.512" fill="#bdc660" stroke="#bdc660" xlink:href="#m7fa9f31fdd"/>
    </g>
   </g>
  </g>
 </g>
 <defs>
  <clipPath id="pf31969a8b9">
   <rect x="7.2" y="7.2" width="258.91" height="266.11"/>
  </clipPath>
 </defs>
</svg>
