<?xml version="1.0" encoding="UTF-8"?>
<!DOCTYPE svg  PUBLIC '-//W3C//DTD SVG 1.1//EN'  'http://www.w3.org/Graphics/SVG/1.1/DTD/svg11.dtd'>
<svg width="363.84pt" height="280.51pt" version="1.1" viewBox="0 0 363.84 280.51" xmlns="http://www.w3.org/2000/svg" xmlns:xlink="http://www.w3.org/1999/xlink">
 <metadata>
  <rdf:RDF xmlns:cc="http://creativecommons.org/ns#" xmlns:dc="http://purl.org/dc/elements/1.1/" xmlns:rdf="http://www.w3.org/1999/02/22-rdf-syntax-ns#">
   <cc:Work>
    <dc:type rdf:resource="http://purl.org/dc/dcmitype/StillImage"/>
    <dc:date>2024-07-04T12:11:00.991189</dc:date>
    <dc:format>image/svg+xml</dc:format>
    <dc:creator>
     <cc:Agent>
      <dc:title>Matplotlib v3.7.1, https://matplotlib.org/</dc:title>
     </cc:Agent>
    </dc:creator>
   </cc:Work>
  </rdf:RDF>
 </metadata>
 <defs>
  <style type="text/css">*{stroke-linejoin: round; stroke-linecap: butt}</style>
 </defs>
 <g id="figure_1">
  <g id="patch_1">
   <path d="m0 280.51h363.84v-280.51h-363.84v280.51z" fill="none"/>
  </g>
  <g id="axes_1">
   <g id="PatchCollection_1">
    <defs>
     <path id="mc47a296e0b" d="m310.64-206.84-0.33685 0.58561-0.25398 1.2167-0.13429 1.5975 0.042503 1.7924 0.65053 4.8512 0.052706 1.0776-0.010286 0.98984-0.076272 1.171-0.27004 1.9845-0.36797 1.8395-1.1886 5.2272-0.72101 3.0549-0.58724 2.2698-4.8745 16.393-1.8512 5.975-0.76962 2.883-0.23616 1.1287-0.2178 1.363-0.14277 1.2461-0.097245 1.4448 0.005999 2.2416 0.08014 0.87162 0.15136 0.91676 0.25585 1.001 0.27866 0.76494 0.39478 0.81134 0.40462 0.63885 0.36138 0.45591 0.68253 0.64994 0.61087 0.42678 0.7164 0.37965 1.4261 0.50195 0.61419 0.14259 3.1871 0.52894 3.2264 0.63857 0.76116 0.1106 1.6642 0.119 2.1293 0.087428 0.98174 0.10189 0.64365 0.12576 0.56337 0.176 0.35864 0.15989 0.43825 0.26888 0.41468 0.34809 0.59948 0.68515 0.70023 1.0586 2.3141 4.2078 3.2601 5.2926 0.82985 1.283 7.4289 10.152 0.92836 1.3418 0.85911 1.341 1.9529 3.3804 0.81203 1.6153 0.59424 1.3861 0.48466 1.4617 0.18035 0.76087 0.16244 1.0924 0.045258 1.1826-0.085389 1.2815-0.24897 1.5427-0.17665 0.79237-0.5061 1.8376-1.0568 3.0802-2.1378 5.5225-0.15046 0.4813 0.009285 0.16102-0.48717 1.546-0.4872 1.2931-0.41487 0.93429-0.98055 1.8426-0.52381 0.85494-1.0377 1.5314-0.82502 1.0808-0.73599 0.85804-0.62423 0.64666-1.0763 0.96428-0.78186 0.60391-1.5909 1.0353-1.7142 0.90622-3.8481 1.8062-1.7184 0.98173-0.58377 0.42126-2.3419 2.1042-1.9225 1.4325-2.4722 1.584-3.3796 1.9977-1.3185 0.88038-0.55363 0.46412-0.85606 0.93235-1.8145 2.4327-0.58675 0.71875-1.2082 1.3077-0.84789 0.80191-0.81221 0.68514-0.99592 0.72501-3.338 1.9422-0.34503 0.25282-0.54774 0.50874-0.57751 0.76944-0.2606 0.43876-1.36 2.6905-1.1246 1.9889-0.44556 0.68101-0.83662 1.1232-0.50399 0.59247-0.93694 0.97828-1.2499 1.115-0.69699 0.55066-1.735 1.2043-1.1795 0.7152-1.3086 0.68776-0.65625 0.25144-0.14221 0.016186-0.07128-0.062474-0.33428-0.050788-1.1956 0.089042-7.1269 0.90298-2.4061 0.44433-0.9059 0.22683-1.0931 0.34162-1.9844 0.86224-1.8969 1.0852-1.8357 1.2199-4.1198 2.8562-1.5257 0.91822-1.0728 0.57071-1.7034 0.80612-1.6305 0.68893-8.5445 3.2562-2.706 0.97759-1.6747 0.50414-1.7332 0.37025-1.5307 0.15825-2.1532-0.082218-2.1532-0.35766-2.5474-0.66138-2.8681-0.94213-2.8751-1.102-3.5284-1.556-2.3923-1.1964-3.2129-1.8081-2.916-1.8264-0.81313-0.54812-0.93435-0.70696-0.63611-0.56391-0.7558-0.7998-0.72649-0.89784-1.4666-1.9567-3.3178-4.0767-1.31-1.7991-0.46817-0.72705-0.78368-1.3606-0.38733-0.75599-0.73048-1.6176-1.3613-3.2428-0.5774-1.1895-0.63251-1.0967-1.0956-1.558-0.89367-1.0614-0.75891-0.78924-1.0464-0.936-0.7807-0.58697-1.0136-0.62008-0.57687-0.27775-0.70529-0.25623-0.85453-0.1698-0.67026-0.01413-0.41688 0.037345-1.0202 0.19883-3.0423 0.91821-2.977 0.718-1.4355 0.41272-1.6632 0.53974-0.77018 0.30465-0.95714 0.46003-0.69416 0.39283-0.59605 0.37861-0.98708 0.71536-0.91576 0.76539-1.0587 0.99186-2.425 2.5308-3.7518 4.2127-1.3154 1.3408-0.73825 0.6735-1.1027 0.88058-1.3585 0.90977-1.1086 0.64873-1.5796 0.81334-1.456 0.61557-0.80243 0.26767-1.2311 0.29016-1.0911 0.13109-2.0588-0.060896-1.327-0.20009-1.3302-0.28155-2.0239-0.5072-2.5831-0.72299-2.4951-0.80469-1.0618-0.39145-1.9399-0.88167-1.8818-1.0272-5.9692-3.6898-1.3607-0.65636-0.81929-0.25477-0.88584-0.11656-0.86874 0.012417-2.3125 0.21064-0.74053-0.027771-1.0626-0.22216-1.055-0.42828-1.007-0.61635-0.92961-0.77473-1.1584-1.1481-0.83381-0.94261-0.98444-1.3419-0.87702-1.4694-1.2541-2.4759-0.63426-1.1478-0.76536-1.2086-0.79095-1.1358-2.4377-3.2494-3.5839-4.5815-2.5773-3.1159-1.7262-1.9534-1.0446-1.0959-1.0334-0.99231-1.1012-0.95602-1.8019-1.4624-4.3204-3.1545-4.5829-3.5259-1.4029-0.95177-0.77373-0.46225-0.64705-0.34343-1.221-0.54208-4.1397-1.5151-1.5454-0.62495-4.1057-2.0887-1.161-0.42119-1.2029-0.23651-0.93922-0.011751-1.0382 0.19174-0.42058 0.13203-1.1342 0.49-0.90435 0.53256-0.91055 0.6781-0.7638 0.69724-0.61793 0.66424-2.3011 2.9863-0.56141 0.6097-1.1055 0.89701-1.2625 0.69609-1.367 0.46226-1.036 0.16424-1.0436-0.006497-0.9259-0.17203-0.89813-0.34974-1.5124-1.0993-1.3927-1.604-1.2896-1.9835-1.1923-2.2437-1.0878-2.3757-0.96059-2.3516-1.5496-4.2681 0.36544-0.44963 1.1564-1.6186 3.3105-5.033 1.1066-1.8812 0.71687-1.3636 0.5988-1.2621 0.92636-2.2515 1.5034-4.1846 2.7983-7.1892 0.51265-1.5827 0.19534-0.75605 0.16577-0.92692 0.050552-0.56236-0.018551-1.1383-0.082584-0.72681-0.22434-1.1889-1.3971-5.0562-0.41671-1.7876-0.16882-0.92109-0.25128-1.9429-0.46511-4.5212-0.37937-5.3875-0.23772-2.256-0.32203-2.0315-1.1868-6.1114-0.19001-1.2532-0.38852-3.2374-0.17209-0.82997-0.36955-1.166-0.42029-0.9061-0.49234-0.78286-0.70898-0.81443-0.53808-0.47024-0.60398-0.44448-1.0158-0.64258-2.6112-1.5392-1.212-0.85227-1.1859-0.97586-1.0787-1.1105-0.74089-1.0011-0.65823-1.0932-2.2758-4.5465-0.66-1.1049-0.57549-0.82099-1.0524-1.3046-1.5517-1.6983-4.8961-4.9052-1.9304-1.8651-1.766-1.624-1.8033-1.5455-1.6387-1.2898-1.4092-0.97958-0.249-0.14837-0.42876-0.15546 2.733-3.3228 1.4761-1.6816 1.6225-1.7282 1.3802-1.3623 1.4291-1.3023 1.4648-1.215 2.154-1.5854 1.6833-1.1278 1.5097-0.94669 1.4758-0.8385 1.4429-0.6934 1.8184-0.61459 1.4003-0.20407 0.68643 0.005161 1.0253 0.12523 1.2138 0.29406 3.4158 1.1429 4.2091 1.1088 2.8263 0.81778 1.6937 0.55549 2.3374 0.93508 4.6549 2.0004 1.2284 0.45233 1.3705 0.39632 1.1749 0.22498 1.2452 0.10265 0.91344-0.091545 0.48646-0.16054 0.28937-0.15865 0.6182-0.61013 0.46629-0.8446 0.42529-1.1846 0.81914-2.7598 0.5609-1.4438 1.1111-2.0678 2.6289-4.2893 0.8343-1.5306 0.52513-1.0696 0.5421-1.257 0.41786-1.1674 0.41095-1.4564 0.27653-1.3148 0.17171-1.1254 0.11507-1.1168 0.081415-1.7504-0.029951-2.0614-0.15273-2.4152-0.25153-2.3007-0.37245-2.2764-1.0636-4.641-0.4235-2.0499-0.1476-0.96236-0.1037-1.1232-0.013037-0.6823 0.051236-0.75926 0.12636-0.61564 0.30076-0.5693 0.43743-0.11805 0.21142-0.091052 0.52471-0.1066 2.3668-0.29815 1.3359-0.29601 3.9346-1.0764 1.0161-0.22798 1.2332-0.21399 1.2353-0.12004 1.5803 0.009325 1.5704 0.14101 3.937 0.51481 1.0633 0.07375 0.74485 0.002349 1.2366-0.068933 4.9736-0.60705 5.0788-0.71148 1.5555-0.30013 4.7574-1.0743 2.635-0.53998 4.8432-0.861 3.3465-0.49334 3.0267-0.30169 3.793-0.1803 10.253-0.30845 5.0594-0.062156 1.3528-0.05308 1.5338-0.18906 1.1664-0.3317 0.66323-0.3321 0.22391-0.30008 0.16498 0.48009 0.91799 3.67 0.40914 1.3871 0.3747 1.1228 0.58982 1.5303 0.8381 1.7719 0.45953 0.81246 0.80964 1.2261 0.4513 0.59228 1.0015 1.1323 0.69544 0.66412 0.6128 0.51518 1.6023 1.1319 1.1774 0.70846 1.8744 1.0069 2.3514 1.1458 7.8935 3.6151 1.4575 0.59168 1.4652 0.48404 0.54835 0.14553 2.1044 0.38526 2.1429 0.19562 6.3908 0.25633 3.6321 0.29325 1.7447 0.020574 1.7-0.20639 0.59562-0.14908 0.82886-0.27558 0.8207-0.34425 0.80562-0.40185 1.2929-0.76318 1.0184-0.68335 4.4376-3.3149 1.6413-1.1671 1.1766-0.76129 1.6424-0.95899 3.534-1.9347 4.6766-2.7672 1.9063-0.99916 1.5155-0.6338 0.89964-0.28207 1.1383-0.25326 2.402-0.35261 0.86141-0.175 0.63869-0.19334 1.9033-0.73829 1.6141-0.29734 0.49058-0.1931 0.45519-0.34141 0.2778-0.32541 0.20684-0.3328 0.35173-0.89111 0.60454-2.2325 0.3866-0.71459 0.24667-0.22746 0.33848-0.14344 0.57812 1.06e-4 2.0373 0.5713 2.1138 0.32595 0.88208 0.21255 0.75894 0.26267 3.4538 1.4739 1.409 0.53513 1.4474 0.44523 1.4692 0.3012 1.5557 0.13066 3.3133 0.074836 1.7735-0.014216 1.8078-0.1579 2.1711-0.44791 5.4342-1.5439 5.5618-1.6601 1.7613-0.48959 1.7468-0.36383 1.7396-0.15986 2.1606 0.17335 2.1356 0.54064 2.083 0.84862 1.9973 1.1221 1.0351 0.71785 0.88468 0.69774 1.1984 1.0829 1.1265 1.1748 1.2667 1.5254 1.3772 1.9166 1.2603 1.9825 1.4141 2.4683 1.876 3.6729 0.89836 1.5458 1.4037 2.1376 3.2498 4.5497 0.86047 1.2972 2.2783 3.618 1.0763 1.807 0.97081 1.8484 0.81272 1.8398 0.31528 0.88033 0.40264 1.8573-0.039489 1.8304-0.56103 1.7922-0.91719 1.7255-1.0451 1.6863-0.93882 1.6602-0.59306 1.6223-0.078687 1.47 0.37188 1.1898 0.75475 0.69648 0.40858 0.068952" stroke="#bdc660"/>
    </defs>
    <g clip-path="url(#p66f9a8a584)">
     <use y="280.512" fill="#bdc660" stroke="#bdc660" xlink:href="#mc47a296e0b"/>
    </g>
   </g>
  </g>
 </g>
 <defs>
  <clipPath id="p66f9a8a584">
   <rect x="7.2" y="7.2" width="349.44" height="266.11"/>
  </clipPath>
 </defs>
</svg>
