<?xml version="1.0" encoding="UTF-8"?>
<!DOCTYPE svg  PUBLIC '-//W3C//DTD SVG 1.1//EN'  'http://www.w3.org/Graphics/SVG/1.1/DTD/svg11.dtd'>
<svg width="248.62pt" height="280.51pt" version="1.1" viewBox="0 0 248.62 280.51" xmlns="http://www.w3.org/2000/svg" xmlns:xlink="http://www.w3.org/1999/xlink">
 <metadata>
  <rdf:RDF xmlns:cc="http://creativecommons.org/ns#" xmlns:dc="http://purl.org/dc/elements/1.1/" xmlns:rdf="http://www.w3.org/1999/02/22-rdf-syntax-ns#">
   <cc:Work>
    <dc:type rdf:resource="http://purl.org/dc/dcmitype/StillImage"/>
    <dc:date>2024-07-04T12:11:02.798326</dc:date>
    <dc:format>image/svg+xml</dc:format>
    <dc:creator>
     <cc:Agent>
      <dc:title>Matplotlib v3.7.1, https://matplotlib.org/</dc:title>
     </cc:Agent>
    </dc:creator>
   </cc:Work>
  </rdf:RDF>
 </metadata>
 <defs>
  <style type="text/css">*{stroke-linejoin: round; stroke-linecap: butt}</style>
 </defs>
 <g id="figure_1">
  <g id="patch_1">
   <path d="m0 280.51h248.62v-280.51h-248.62v280.51z" fill="none"/>
  </g>
  <g id="axes_1">
   <g id="PatchCollection_1">
    <defs>
     <path id="m16ff84465c" d="m105.97-220.58-0.015242 0.49502 0.029836 0.47539 0.14283 0.88268 0.13262 0.53228 0.52711 1.8737 0.1511 0.47177 0.17282 0.41049 0.25823 0.46085 0.31915 0.39562 0.38013 0.34401 0.42383 0.28574 0.45364 0.22724 1.0165 0.41242 0.58502 0.21058 0.9625 0.26594 0.25612 0.088191 0.27971 0.1278 0.17563 0.10448 0.27894 0.20507 0.2324 0.20329 0.48648 0.49913 0.61406 0.68646 0.27432 0.2585 0.38807 0.2667 0.43869 0.18938 0.33233 0.046958 0.13889-0.002314 0.32162-0.038695 0.71184-0.12799 0.37235-0.037317 0.63825 0.013236 0.97717 0.091147 0.89225 0.03605 0.616 0.053437 0.44824 0.077476 0.62036 0.17186 0.62073 0.24158 0.40552 0.19099 2.1972 1.1336 0.72676 0.3337 0.77986 0.31379 0.4926 0.17129 0.5555 0.16212 2.6728 0.55966 0.69333 0.18411 0.56889 0.2338 0.47894 0.27569 1.4589 0.98741 0.71866 0.54452 0.75859 0.65095 0.30854 0.23824 0.6247 0.37618 2.3598 1.0437 0.65163 0.33715 0.38374 0.228 0.73944 0.53222 0.40726 0.34901 0.37151 0.35767 0.34128 0.37536 0.26213 0.3573 0.15139 0.27488 0.093685 0.23794 0.084405 0.41917 0.001041 0.32623-0.043194 0.30689-0.39303 1.3138-0.10435 0.44337-0.05183 0.5033 0.013348 0.23735 0.065895 0.29786 0.086428 0.20388 0.28781 0.39502 0.22392 0.19925 0.28692 0.19026 0.29802 0.15007 0.43116 0.16747 0.48363 0.14946 1.2604 0.30925 2.5876 0.54579 1.0328 0.24474 1.2293 0.37856 1.3796 0.52621 0.99488 0.44593 0.76659 0.38437 0.64832 0.35432 0.66587 0.39425 0.98908 0.63933 0.74963 0.52851 0.50578 0.39963 0.41511 0.37834 0.48541 0.54196 0.43603 0.65531 0.23275 0.49124 0.25752 0.92678 0.10137 0.99974-0.016611 1.0574-0.1048 1.1036-0.1812 1.2064-0.23454 1.2418-0.57595 2.5717-1.0106 4.0225-1.6385 6.2394-0.18826 0.74903-0.04544 0.28495 0.26926 0.33877 0.34659 0.51412 0.68704 1.2124 0.15007 0.28582 0.085733 0.24562 0.040034 0.20782 0.013423 0.32247-0.089819 0.98298-0.007643 0.75169 0.043713 0.37189 0.10833 0.27561 0.16294 0.24418 0.19674 0.20319 0.4227 0.32719 0.21605 0.22012 0.080796 0.11312 0.094345 0.22266 0.014592 0.10059-0.016214 0.21852-0.070281 0.24365-0.27175 0.66198-0.077087 0.26204-0.025567 0.17828 0.003751 0.17887 0.068539 0.26477 0.13262 0.26347 0.20861 0.29603 0.25378 0.29695 0.87099 0.91694 0.57409 0.68792 0.34677 0.49805 0.16642 0.2811 0.23922 0.52142 0.084438 0.28688 0.05468 0.36806 0.00851 0.31232-0.016556 0.31797-0.067341 0.547-0.256 1.3918-0.10234 0.13366-0.14198 0.35411-0.26439 0.93061-0.20726 1.0919-0.10197 1.0512-0.01966 0.91373 0.033951 0.93944 0.10073 1.0892 0.21611 1.4618 0.196 1.033 0.45081 2.0226 0.32601 1.3092 1.2273 4.6728 0.27393 1.169 0.21504 1.1202 0.53633 3.1902 0.16408 0.83592 0.2399 1.0536 0.28718 1.0589 0.27318 0.84113 0.20898 0.54332 0.33427 0.703 0.24971 0.40748 0.44327 0.52415 0.10657 0.094504 0.66884 0.41162 0.6972 0.24545 0.45965 0.10767 0.4719 0.083815 2.0512 0.2778 0.88696 0.16436 0.58689 0.082472 0.59443 0.048208 1.4216 0.055414 0.749 0.062711 0.43238 0.061123 0.3935 0.084335 0.41383 0.11909 0.5326 0.18065 1.2953 0.48562 0.42917 0.18049 0.50264 0.24202 0.28028 0.15533 0.73589 0.46952 1.097 0.78352 0.52308 0.35908 0.41744 0.25958 0.47822 0.25157 0.48967 0.19677 0.45217 0.12648 0.56138 0.092427 0.54312 0.046315 1.3698 0.06942 0.77239 0.084644 0.62493 0.13532 0.68253 0.25762 0.63166 0.39976 0.41647 0.41479 0.36232 0.58695 0.13784 0.36682 0.10412 0.45451 0.054894 0.53322-0.002765 2.068 0.03723 0.56704 0.093172 0.54088 0.13619 0.44674 0.23373 0.50076 0.36951 0.53395 0.59906 0.57369 0.87198 0.52308 0.57914 0.22723 0.61771 0.16668 0.67662 0.10828 0.69116 0.042437 0.80939-0.029493 0.62112-0.078571 0.57389-0.11704 0.49447-0.14119 0.39083-0.15111 0.23267-0.13078 0.078299-0.11139-0.089887 0.23209 0.076501 0.39561 0.22561 0.48437 0.22193 0.3292 0.33743 0.40581 0.42296 0.44007 1.9765 1.9211 0.51609 0.44874 0.44213 0.33112 0.75987 0.48643 0.80326 0.44518 2.1888 1.0939 0.72967 0.38926 1.2138 0.72957 0.66363 0.47418 0.56138 0.53577 0.39903 0.56372 0.31309 0.61668 0.28696 0.7636 0.1775 0.77778 0.029935 0.77096-0.10094 0.59472-0.18446 0.57601-0.36084 0.8642-0.22574 0.59819-0.19394 0.80671-0.090545 0.83986-0.01024 0.4257 0.031191 1.5896-0.059867 0.72554-0.13551 0.54701-0.23937 0.6641-0.24456 0.54806-0.2076 0.53921-0.084778 0.3736-0.04224 0.37873-4.53e-4 0.40762 0.10078 0.54849 0.1177 0.35251 0.40627 0.98952 0.23322 0.44058 0.11294 0.17171 0.34477 0.43054 0.4621 0.45628 0.22944 0.19459 0.50732 0.37777 0.48555 0.31955 0.45374 0.34948 0.21883 0.22434 0.28399 0.3654 0.33264 0.56265 0.28381 0.63093 0.3623 0.88443 0.38075 1.0597 0.17999 0.57317 0.42956 1.5644 0.78563 3.4212 0.13663 0.54698 0.23338 0.79493 0.26327 0.70492 0.59841 1.4186 0.28635 0.5185 0.06424 0.080925 0.20932 0.18849 0.22903 0.085516 0.31711-0.067082 0.16792-0.14419 0.28803-0.47303 0.23319-0.55851 0.66772-1.867 0.36247-0.74444 0.46765-0.68885 2.6154-2.8522 0.39042-0.34929 0.33911-0.23763 0.33407-0.15358 0.35596-0.07456 0.38372 0.016931 0.38103 0.094246 0.64688 0.29188 0.46512 0.28595 0.49056 0.33855 1.3277 0.99358 0.76917 0.49344 1.2336 0.68644 2.4658 1.2754 2.0638 1.1873 0.40577 0.21278-0.13004 0.10177-0.28497 0.37364-0.2822 0.41591-2.2078 3.5897-0.73884 1.3545-1.4787 3.0452-0.29756 0.53682-0.29237 0.46353-0.22164 0.30787-0.37348 0.44381-0.40788 0.40939-0.39707 0.34684-0.47356 0.36696-0.58016 0.39639-0.53345 0.3216-0.56637 0.29732-0.754 0.32023-0.77767 0.25259-0.90597 0.22742-0.32988 0.064837-0.93676 0.12828-0.95456 0.066445-0.96642 0.022976-1.9519-0.031787-2.0589-0.088509-6.2119-0.44792-3.7548-0.20162-2.8439-0.068673-1.9327 0.026638-0.97481 0.049621-0.7474 0.060686-1.2199 0.15497-1.0019 0.20142-0.57964 0.15407-0.76854 0.24416-0.62222 0.22587-1.0863 0.44131-1.5718 0.67698-0.099562 0.007083-0.16684 0.052924-0.89438 0.33624-0.68851 0.22918-0.42266 0.10456-0.38745 0.056512-0.29178 0.002596-0.2398-0.042164-0.20044-0.095293-0.3616-0.23171-0.24229-0.076058-0.32277-0.033207-0.47768 0.0437-0.29355 0.073112-0.28475 0.10599-0.26248 0.13648-0.23294 0.16973-0.19139 0.2067-0.15715 0.28029-0.11276 0.31549-0.18467 0.67131-0.1159 0.32634-0.1624 0.3005-0.20288 0.23981-0.24858 0.21388-0.59035 0.3777-2.0826 1.1146-0.58154 0.25916-0.88257 0.29096-0.31251 0.11578-0.29158 0.1408-0.26096 0.18128-0.22338 0.23494-0.19007 0.282-0.16437 0.3193-0.68593 1.756-0.18746 0.40135-0.39897 0.76356-0.024354-0.04265-0.081353-0.055596-0.25399-0.071966-0.56423-0.046164-0.43858 0.010454-1.6885 0.19551-2.6231 0.41139-0.81218 0.074411-0.61634 0.027332-0.6154 3.13e-4 -0.97976-0.062458-1.1313-0.16439-2.1408-0.38311-0.87973-0.13052-3.0165-0.31735-1.5069-0.12766-1.805-0.11248-0.36176-0.043623-0.7937-0.16071-0.7674-0.23575-0.73165-0.29441-0.68417-0.34033-0.55972-0.34206-0.49286-0.40381-0.22919-0.24982-0.43606-0.62208-0.29461-0.54075-0.38895-0.89217-0.19311-0.56058-0.12744-0.46523-0.075637-0.35993-0.095882-0.75693-0.036787-0.69427-0.033304-2.0037-0.031121-0.59958-0.069941-0.71973-0.14492-0.82788-0.24797-0.79975-0.33027-0.62118-0.41183-0.4774-0.52558-0.42924-0.46138-0.30591-1.413-0.86659-0.55589-0.41586-0.28575-0.26473-0.51879-0.637-0.88774-1.3063-0.51174-0.54648-0.6122-0.40773-0.70562-0.28944-0.76181-0.17513-0.78384-0.056754-0.7731 0.074094-0.72936 0.22634-0.66901 0.39661-0.62114 0.51502-1.2179 1.1456-0.65479 0.51937-0.44659 0.28025-0.46458 0.24641-1.4223 0.64523-0.51945 0.26167-0.4047 0.24874-0.23578 0.17862-0.15441 0.13985-0.3373 0.41919-0.18373 0.34832-0.17043 0.4877-0.72224 2.8049-0.29157 1.0213-0.17555 0.52643-0.25881 0.62204-0.41769 0.81864-0.33404 0.56935-1.1491 1.8-0.17978 0.31158-0.25132 0.50151-0.19539 0.53738-0.079794 0.35496-0.050435 0.54037 0.009457 0.32204 0.034089 0.2762 0.10604 0.43879 0.12975 0.3449 0.19426 0.3691 0.20434 0.29627 0.20176 0.23815 0.28465 0.27453 0.39906 0.30614 0.73477 0.44227 0.53768 0.27939 1.6357 0.78077 1.1476 0.50799 2.2873 0.90789 1.0052 0.43816 0.44132 0.22276 0.52564 0.30829 0.4712 0.33851 0.52479 0.4833 0.6153 0.71724 2.0203 2.7115 0.78462 1.1319 0.37326 0.57499 0.33812 0.58992 0.31922 0.72905 0.2448 0.86369 0.1451 0.90557 0.063668 0.93098-0.005241 0.94108-0.066979 0.93625-0.14698 0.99867-0.20039 0.84198-0.27624 0.80296-0.3647 0.7463-0.24258 0.37841-0.27641 0.36158-0.3652 0.41164-0.62811 0.6276-0.71502 0.67185-0.76014 0.638-0.82983 0.55924-0.80498 0.39652-0.86342 0.31558-0.90615 0.24974-0.93593 0.19486-0.95489 0.14718-1.1434 0.11366-1.0321 0.042188-1.027-0.019726-0.66736-0.047367-0.78852-0.079318-0.70015-0.097339-0.75899-0.14215-0.93126-0.23085-1.9012-0.53404-0.91098-0.19794-0.57045-0.08924-0.59168-0.061817-1.042-0.034032-0.98897 0.035437-2.2718 0.13057-0.97444 0.00851-0.46254-0.026827-0.41068-0.052676-0.35299-0.078726-0.43352-0.15996-0.32843-0.18346-0.32055-0.2626-0.27527-0.38994-0.15549-0.46047-0.033858-0.49952 0.036846-0.31351 0.16885-0.60986 0.25332-0.73373 0.14841-0.51961 0.13763-0.638 0.09996-0.77332 0.026654-0.97763-0.090388-1.0071-0.18292-0.81293-0.17911-0.55404-0.2043-0.5226-0.21936-0.49048-0.67804-1.3968-0.19028-0.4558-0.17422-0.53082-0.12919-0.58777-0.061316-0.50953-0.022953-0.65265 0.028038-0.86039 0.159-3.0251 0.018168-0.84742-0.013879-0.77794-0.075698-0.84635-0.10905-0.5566-0.17537-0.51515-0.16226-0.30594-0.14445-0.19898-0.13511-0.14514-0.178-0.1505-0.2798-0.17758-0.30769-0.14339-0.41496-0.13933-0.40345-0.09624-0.43732-0.07441-0.65505-0.067512-0.7234-0.025769-0.83521 0.018902-2.1792 0.16481-0.58685 0.019872-0.46976-0.025586-0.36071-0.069111-0.19673-0.068485-0.29215-0.16672-0.18596-0.15769-0.32437-0.38409-0.18417-0.28452-0.27311-0.52939-0.11042-0.26119-0.15743-0.4406-0.18886-0.7186-0.11577-0.77543-0.025037-0.62279 0.041538-0.62713 0.15049-0.83787 0.22644-0.85322 0.568-1.8747 0.30177-1.2388 0.32295-1.716 0.15926-0.96923 0.22314-1.5918 0.13504-1.2837 0.067977-1.0623 0.018693-0.84355-0.048076-1.7956-0.1688-1.9519-0.13078-1.077-0.19651-1.3199-0.39608-2.1788-0.23631-1.1121-0.35705-1.5134-0.38792-1.4341-0.29146-0.93344-0.217-0.62316-0.23912-0.61784-0.27584-0.62774-0.32782-0.64578-0.32234-0.56342-1.6974-2.6838-1.1408-1.9855-0.32178-0.44027-0.36398-0.37427-0.40716-0.2881-0.40403-0.16783-0.39243-0.072962-0.6109-0.009694-1.2687 0.090198-0.53471 0.00524-0.73178-0.052074-0.94845-0.14614-0.53931-0.1421-0.49334-0.20615-0.28268-0.16921-0.32852-0.25067-0.2804-0.26003-0.35777-0.39232-0.33312-0.42284-0.29246-0.41214-0.64947-1.0183-1.0486-1.7513-0.9439-1.5097-0.80472-1.1915-0.89159-1.2061-1.1287-1.3648-0.51325-0.56692-0.53348-0.54713-0.9881-0.8621-0.91107-0.62361-0.95141-0.48018-0.98222-0.2976-0.71205-0.0851-0.72816-0.012752-1.8656 0.057867-1.1334 0.091637-0.79216 0.1211-0.74634 0.15203-0.75872 0.18389-0.76455 0.21373-0.068729 0.01837-0.28432 0.17683-1.501 1.009-0.60619 0.38074-0.46429 0.26351-0.39112 0.19593-0.40525 0.17265-0.63404 0.19593-0.39437 0.066588-0.40881 0.014737-0.50414-0.072775-0.41579-0.14896-0.28433-0.16918-0.41267-0.41647-0.29714-0.53231-0.19608-0.59451-0.12985-0.53731-0.25521-1.3308-0.43422-2.727-0.51504-4.1224-0.13031-0.70973-0.15374-0.64214-0.22273-0.72987-0.11947-0.32664-0.15632-0.37971-0.25578-0.53195-0.24184-0.42597-0.26594-0.40879-0.32399-0.43927-0.7184-0.83794-0.56386-0.58583-2.6224-2.5132-0.82199-0.85275-0.40452-0.44764-0.83864-0.98042-1.1548-1.4527-0.96233-1.3016-1.2246-1.7251-0.43439-0.57031-0.64938-0.74906-0.35611-0.35152-0.55255-0.47346-0.51733-0.38571-0.9919-0.6347-0.77791-0.43638-2.7238-1.4157-0.5556-0.3276-0.48664-0.34604-0.28865-0.24378-0.30395-0.29712-0.48824-0.62106-0.4182-0.68465-0.81373-1.5102-0.39878-0.87637-0.70499-1.8863-0.262-0.57439-0.34418-0.57216-0.46153-0.52883-0.39019-0.315-0.65771-0.38537-1.0073-0.39917-0.82169-0.22692-0.65621-0.13955-0.91081-0.1523-2.6128-0.33049-0.4432-0.0768-0.3085-0.086036-0.09681-0.08857-0.021558 0.021749-0.078188-0.014093-0.18697-0.085091-0.40003-0.24581-0.34852-0.25094-0.8549-0.70687-0.49439-0.45763-0.4911-0.48993-1.151-1.2501-0.5526-0.66039-0.29814-0.40052-0.26504-0.41062-0.273-0.51869-0.76877-1.7007-0.72994-1.4627-0.24778-0.56194-0.11011-0.30443-0.085507-0.3045-0.078386-0.46172-0.11951-1.2752-0.14677-0.72598-0.54252-2.1328-0.11778-0.34635-0.4717-1.1289-0.096892-0.35121-0.18487-0.8699-0.10023-0.33066-0.12451-0.25098-0.099263-0.10815-0.27109-0.1673-0.10717-0.087194-0.13988-0.18883-0.24024-0.5645-0.47535-1.3267-0.38002-0.84962-0.48738-0.90262-1.0098-1.6339-0.248-0.41655-0.18232-0.35138-0.1184-0.30163-0.073152-0.31066-0.014869-0.24581 0.0817-0.18149 0.035668-0.064716 0.3075-0.099304 0.29871-0.049539 0.86492-0.064521 1.0534-0.012976 3.4742 0.059833 1.091-0.016564 0.99554-0.068912 0.86668-0.14357 0.70192-0.24348 0.53829-0.36866 0.7047-0.68003 0.43715-0.35797 0.36296-0.21756 0.39718-0.1492 0.63768-0.070914 0.68288 0.058453 1.8377 0.37798 0.36832 0.043156 0.3676 0.004675 0.21325-0.01923 0.56471-0.14461 0.35589-0.15996 0.34028-0.20537 0.40342-0.32185 0.48396-0.54935 0.3028-0.53719 0.18014-0.6398-3.09e-4 -0.70297-0.097457-0.57986-0.45278-1.8646-0.085058-0.67568 0.029522-0.66237 0.11439-0.46564 0.29144-0.66718 0.4469-0.71568 1.3098-1.7711 0.96204-1.1719 0.67387-0.90189 0.72106-0.89449 0.31492-0.47856 0.14996-0.3761 0.051694-0.27725 0.017018-0.25422-0.008468-0.37258-0.039973-0.41008-0.083528-0.52793-0.2671-1.2279-0.39687-1.6239-0.37427-1.3891-0.35423-1.1359-0.8095-2.3853-0.22665-0.82047-0.14408-0.75896-0.045466-0.42355-0.006517-0.64219 0.12339-0.81528 0.3817-1.5268 0.062011-0.75297-0.090992-0.61082-0.19982-0.62072-0.27865-0.62855-0.33076-0.63451-0.37246-0.6535-0.40152-0.641-0.43198-0.61107-0.92996-1.1807-0.43775-0.67159-0.40336-0.73885-0.37182-0.79209-0.34183-0.83366-0.31207-0.86547-0.33238-1.0491-0.62166-2.1282-0.33095-1.0457-0.2137-0.5951-0.44308-1.0162-1.0064-1.9677-0.46584-0.97677-0.36887-0.98717-0.23484-1.0204-0.13985-1.021-0.083234-1.0547 0.030414-1.0085 0.10055-0.98632 0.28197-2.0326-1.87e-4 -0.54577-0.11329-0.37118-0.19789-0.17704-0.15668 0.009429-0.17428 0.11506-0.15134-0.1761-0.11523-0.37417-0.054263-0.50037 0.021461-0.51451 0.071949-0.55562 0.12369-0.6983 0.18134-0.71373 0.27399-0.70022 0.45573-0.75118 0.57646-0.70581 0.64626-0.66982 1.3132-1.2746 0.57896-0.62626 0.469-0.63313 0.33931-0.65269 0.26957-0.64266 0.28539-0.6048 0.34479-0.5221 0.88371-1.1234 0.39693-0.63894 0.30648-0.69855 0.17436-0.69515 0.23953-1.4464 0.10044-0.72913 0.049382-0.73454-0.013179-0.58117-0.095486-1.3541-0.15278-1.4142-0.074993-0.94288-0.009576-0.45684 0.046588-0.42119 0.18057-0.47297 0.31289-0.40153 0.48803-0.34608 1.218-0.61505 0.52828-0.32902 1.6149-1.1674 0.63156-0.51855 1.2695-1.135 0.6433-0.54573 1.0128-0.80163 0.46064-0.44148 0.46296-0.6065 0.37816-0.69486 0.28886-0.76112 0.19002-0.80734 0.076782-0.83487-0.020546-0.62358-0.065113-0.63563-0.11609-0.81555-0.16168-0.82892-0.63691-2.4779-0.54166-2.3523-0.041936-0.19853 0.007734-0.068828 11.101 1.874 2.574 0.41208 2.516 0.37649 2.2845 0.3048 2.49 0.29792 7.6632 0.86907 7.6173 0.81547 2.232 0.25587 2.2198 0.29991 1.102 0.17954 1.094 0.20934 1.0832 0.2494 0.81117 0.22293 0.57956 0.18159 1.1466 0.4117 0.72005 0.28536 5.2151 2.2002 7.099 2.9315 1.683 0.72671 1.3499 0.62434 0.77332 0.39464 0.64683 0.37988 0.47698 0.36202 0.25191 0.34038-0.012662 0.32987-0.19883 0.33893-0.27182 0.38598-0.15295 0.26791-0.12999 0.33238-0.082324 0.4997-9.59e-4 0.53725 0.03806 0.41373 0.28836 1.392 0.069833 0.50912 0.036785 0.59073-0.019005 0.58199-0.16463 1.1417-0.054769 0.55016-0.12976 2.4576-0.16963 1.6535-0.006686 0.46825 0.052799 0.74556 0.18324 1.5353 0.030417 0.54101-0.014417 0.54443-0.063279 0.49724-0.10522 0.49849-0.15991 0.57148-0.36492 1.0462-0.28572 0.6713-0.79929 1.7157-0.62482 1.2827-0.35258 0.79439-0.30898 0.85337-0.2171 0.84931-0.11107 0.83285" stroke="#bdc660"/>
    </defs>
    <g clip-path="url(#p0eab6a4e17)">
     <use y="280.512" fill="#bdc660" stroke="#bdc660" xlink:href="#m16ff84465c"/>
    </g>
   </g>
  </g>
 </g>
 <defs>
  <clipPath id="p0eab6a4e17">
   <rect x="7.2" y="7.2" width="234.22" height="266.11"/>
  </clipPath>
 </defs>
</svg>
