<?xml version="1.0" encoding="UTF-8"?>
<!DOCTYPE svg  PUBLIC '-//W3C//DTD SVG 1.1//EN'  'http://www.w3.org/Graphics/SVG/1.1/DTD/svg11.dtd'>
<svg width="283.94pt" height="280.51pt" version="1.1" viewBox="0 0 283.94 280.51" xmlns="http://www.w3.org/2000/svg" xmlns:xlink="http://www.w3.org/1999/xlink">
 <metadata>
  <rdf:RDF xmlns:cc="http://creativecommons.org/ns#" xmlns:dc="http://purl.org/dc/elements/1.1/" xmlns:rdf="http://www.w3.org/1999/02/22-rdf-syntax-ns#">
   <cc:Work>
    <dc:type rdf:resource="http://purl.org/dc/dcmitype/StillImage"/>
    <dc:date>2024-07-04T12:11:04.564324</dc:date>
    <dc:format>image/svg+xml</dc:format>
    <dc:creator>
     <cc:Agent>
      <dc:title>Matplotlib v3.7.1, https://matplotlib.org/</dc:title>
     </cc:Agent>
    </dc:creator>
   </cc:Work>
  </rdf:RDF>
 </metadata>
 <defs>
  <style type="text/css">*{stroke-linejoin: round; stroke-linecap: butt}</style>
 </defs>
 <g id="figure_1">
  <g id="patch_1">
   <path d="m0 280.51h283.94v-280.51h-283.94v280.51z" fill="none"/>
  </g>
  <g id="axes_1">
   <g id="PatchCollection_1">
    <defs>
     <path id="me48d4f3861" d="m223.86-255.77 0.13293 0.58512 0.14924 0.81413 0.29985 2.5915 0.069043 1.1057-0.011299 1.4648 0.03775 0.58724 0.10394 0.61227 0.42613 1.9175 0.26564 1.5341 0.044176 0.10074 0.21428-0.092225 0.3347-0.10586 0.41801-0.10335 0.44742-0.080674 0.64638-0.069124 0.87253-0.016514 0.70554 0.06358 0.61809 0.13473 0.57355 0.20521 0.20179 0.097494 0.30598 0.19253 0.34074 0.32006 0.28555 0.38377 0.16993 0.28798 0.34048 0.72567 0.32354 0.91479 0.1374 0.54639 0.069719 0.37973 0.080713 0.66419 0.046671 0.79633 0.044948 1.5306 0.068634 0.86102 0.072048 0.39353 0.11322 0.3596 0.13409 0.27322 0.16028 0.25373 0.21017 0.28229 0.41132 0.43347 0.3668 0.29807 0.33428 0.23394 0.43098 0.24271 0.91469 0.45776 0.43303 0.2662 0.28716 0.22554 0.26334 0.23869 0.50651 0.53274 0.78635 0.95839 0.27566 0.27793 0.25522 0.21699 0.32817 0.23797 0.4459 0.27254 0.47657 0.24782 0.59699 0.2679 0.60099 0.23684 1.4608 0.49377 1.09 0.32049-0.059417 0.075486-0.064695 0.18933-0.051803 0.25812-0.021791 0.2945 0.023059 0.30728 0.088829 0.33699 0.14206 0.32672 0.1747 0.31659 0.21326 0.33128 0.243 0.29605 0.27716 0.27504 0.30006 0.25323 0.31379 0.2294 0.32007 0.20194 0.32009 0.16888 0.46881 0.17441 0.23195 0.054202 0.22913 0.02942 0.22483-0.004681 0.30289-0.072796 0.2904-0.13005 0.27599-0.16322 0.68075-0.44646 0.66072-0.30881 0.23244-0.14464 0.46725-0.36742 0.52245-0.48224 1.1145-1.0845 0.67-0.57455 0.4642-0.32087 0.29764-0.14976 0.20416-0.068006 0.16552-0.027672 0.11899-3.12e-4 0.23808 0.054962 0.2964 0.15364 0.39464 0.31462 0.45185 0.47534 0.49472 0.62843 0.53118 0.80353 0.33395 0.60628 0.14258 0.30916 0.061803 0.16397 0.01306 0.08971-0.18771 0.065673-0.29286 0.23115-0.52909 0.56611-0.4348 0.59436-0.19495 0.32039-0.41438 0.81809-0.2792 0.71931-0.5928 1.8116-0.36714 0.89999-1.3124 2.7492-0.37134 0.93343-0.20443 0.65182-0.13473 0.50632-0.33487 1.4211-0.17365 0.88426-0.1062 0.83628-0.020985 0.51881 0.016304 1.1817-0.020749 1.2366 0.088288 2.426-0.011225 0.68402-0.060374 1.3628-9.66e-4 0.66499 0.088094 1.4759-0.01504 0.75415-0.16562 2.6034-0.13798 1.1532-0.29335 2.0372-0.074295 0.74167-0.006215 0.71846 0.10565 0.68055 0.27513 0.67344 0.4091 0.61251 0.58965 0.65233 0.54493 0.50178 0.95894 0.82543 0.47483 0.49519 0.41704 0.55769 0.32745 0.6155 0.20398 0.61187 0.11641 0.54724 0.073674 0.76011 0.015099 1.4104-0.045855 1.4564-0.00679 1.0806-0.043694 0.73921-0.098457 0.46625-0.11534 0.1878-0.069368 0.12257-1.6171 2.0797-0.54748 0.74838-0.5311 0.7675-0.74333 1.1907-0.30852 0.56803-0.23397 0.47893-0.20248 0.46646-0.19333 0.53204-0.11892 0.43561-0.084402 0.61774 0.041909 0.62597 0.073834 0.35113 0.11743 0.41893 0.23302 0.71209 0.29489 0.72479 0.38456 0.70932 0.47302 0.64502 0.55414 0.61388 0.60853 0.59001 0.64085 0.5717 1.9329 1.6402 0.49824 0.444 0.4318 0.41311 0.43426 0.47405 0.28869 0.38958 0.1773 0.30782 0.1459 0.30726 0.23773 0.62589 0.19428 0.80217 0.12999 0.33388 0.20219 0.2593 0.27263 0.1827 0.31772 0.094761 1.016 0.1285 0.27481 0.06878 0.54122 0.23181 0.54378 0.33713 0.42005 0.32593 0.48725 0.50263 0.44852 0.60198 0.40549 0.67894 0.35486 0.73748 0.29312 0.7804 0.35873 1.3256 0.17882 0.71977 0.15712 0.72988 0.12568 0.81856 0.20155 1.582 0.13736 0.69371 0.14826 0.48758 0.15178 0.37401 0.12032 0.22308 0.056242 0.032832-0.04724 0.13028-0.056422 0.37449-0.20723 1.9084-0.13422 0.76648-0.18315 0.79346-0.24096 0.86127-0.27827 0.8586-0.26786 0.73914-0.28669 0.71976-0.30291 0.69228-0.41693 0.84355-0.39938 0.68779-0.57736 0.82819-0.37981 0.46076-0.23881 0.25355-0.44835 0.41618-1.44 1.1658-1.1639 0.98292-0.59526 0.47102-0.26421 0.18072-0.41966 0.22874-0.43656 0.16816-0.89949 0.28096-1.5877 0.60766-0.56556 0.16522-1.0531 0.20459-0.52857 0.12233-0.51898 0.1746-0.51393 0.21899-0.36074 0.17651-0.70329 0.4246-0.67747 0.49689-1.4495 1.2135-0.48546 0.35744-0.41804 0.26257-0.25386 0.13629-0.3918 0.17697-0.98319 0.36178-0.58656 0.16236-1.2288 0.17369-0.50792 0.091699-0.17949 0.049312-0.36852 0.13992-0.32511 0.18733-0.29583 0.23567-0.28125 0.29075-0.33302 0.40748-0.24886 0.34184-0.47754 0.70716-0.33594 0.43526-0.34997 0.3749-0.48434 0.38469-0.19243 0.12152-0.73942 0.3781-0.83586 0.32859-0.90687 0.29034-0.95774 0.26028-0.99254 0.23571-2.039 0.40778-1.0253 0.17149-1.0161 0.14571-0.99654 0.11368-0.96523 0.072561-1.7662 0.086595-0.83413 0.1205-0.81739 0.14569-0.81122 0.1038-0.79668-0.007704-0.82145-0.1733-0.56258-0.20395-0.62159-0.29055-0.74449-0.41443-0.91854-0.57307-1.3681-0.93903-2.0255-1.5395-1.2268-0.86744-2.6929-1.8345-1.3098-0.85171-0.23765-0.11917-0.21458 0.058664-0.31004 0.12848-0.81175 0.39238-0.89657 0.51072-0.93186 0.63362-0.88638 0.67874-0.84693 0.69109-3.1704 2.7268-1.5231 1.349-2.6794 2.4713-3.5796 3.2096-0.82472 0.76096-0.82536 0.79502-0.79553 0.83281-0.36652 0.42688-0.32789 0.42574-0.25517 0.37915-0.1987 0.33671-0.12816 0.25349-0.03345 0.11322 0.001215 0.19917 0.1359 0.38817 0.24941 0.48737 0.35598 0.51906 0.48312 0.5299 0.56971 0.49891 0.62848 0.46741 0.66534 0.43984 1.3818 0.81839 2.7481 1.5403 0.65704 0.39648 0.9987 0.66758 0.951 0.75028 1.885 1.6475 1.1301 0.92329 0.94144 0.68284 2.1521 1.4339 0.7671 0.54136 0.83208 0.65295 0.78623 0.71875 0.67026 0.72559 0.35161 0.44061 0.32681 0.45864 0.39068 0.63147 0.3303 0.63232 0.26772 0.59 0.56904 1.3584 0.2986 0.63402 0.46239 0.85338 0.31896 0.47362 0.35801 0.43726 2.3535 2.4013 0.81126 0.86892 0.090233 0.15503 0.26885 0.28694 0.80149 0.75 0.91942 0.75717 0.99195 0.7431 0.49697 0.4173 0.2225 0.21179 0.15686 0.1781 0.147 0.21285 0.11079 0.22237 0.087568 0.25057 0.056424 0.23792 0.043568 0.30174 0.13714 1.8188 0.091632 0.78851 0.12084 0.81812 0.15137 0.80618 0.40593 1.9465 0.30634 1.3593 0.063585 0.45356 0.016392 0.32324-0.010749 0.81734 0.0098 0.20118 0.053422 0.34603 0.099326 0.33609 0.27187 0.63068 1.0306 1.9071 0.33484 0.70683 0.14036 0.37043 0.1643 0.68823 0.026867 0.41392-0.015734 0.37808-0.050802 0.41278-0.10167 0.53264-0.44491 1.895-0.11695 0.8469-0.038248 0.61344-0.003706 0.91082 0.038126 0.64532 0.086524 0.65279 0.15134 0.59846 0.2202 0.46876 0.13406 0.17586 0.19852 0.17274 0.29834 0.14825 0.38932 0.098664 0.11434 0.013005 0.12871-0.011664 0.77778 0.26185 0.13807 0.077027-0.048317 0.054417-0.38232 0.19778 0.031078 0.056839-0.010889 0.11675-0.20305 0.4449-0.042376 0.16928-0.005636 0.16236 0.036297 0.24941 0.074068 0.25018 0.11175 0.23133 0.087263 0.10254 0.086914 0.044856 0.10592-0.001509 0.43693-0.16072 0.19825 0.002055 0.24203 0.089629 0.5357 0.27851 0.26396 0.11439 0.36554 0.11928 0.29827 0.061175 0.012893 0.044326-0.039854 0.11532-0.1109 0.19551-0.42794 0.57771-1.3271 1.5965-0.46091 0.52025-0.73336 0.78104-0.76459 0.77073-1.416 1.3516-0.83591 0.73256-2.3642 1.941-0.77453 0.68282-3.0303 2.8509-0.75717 0.77302-0.51362 0.61879-0.2587 0.36542-0.31193 0.52291-0.22832 0.48506-0.1554 0.43925-0.10178 0.41314-0.074171 0.58632 0.010209 0.63376 0.050336 0.37199 0.066506 0.30708 0.13541 0.45198 0.13128 0.34985 0.25078 0.57298 0.52082 1.0975 0.44515 0.79793 0.76714 1.0855 0.39352 0.62035 0.22714 0.49025 0.14469 0.45001 0.065947 0.37334-0.042228 0.53046-0.27596 0.50369-0.33522 0.34868-0.42291 0.33503-0.65197 0.42244-0.73914 0.41582-0.81476 0.42233-1.7702 0.85549-3.7179 1.7034-1.2205 0.53975-0.94947 0.39606-1.6027 0.62537-3.8864 1.4503-1.7945 0.7329-1.0569 0.464-2.12 0.99572-1.9963 1.0057-1.8037 0.95386-2.6228 1.4205-0.1776-0.23577-0.13422-0.36209-0.078151-0.29169-0.1007-0.53554-0.056228-0.4678-0.028139-0.61769 0.046075-0.6412 0.055293-0.3179 0.10961-0.42731 0.12531-0.3595 0.22579-0.48955 0.25267-0.41531 0.33922-0.43524 0.63965-0.712 0.34695-0.42728 0.28822-0.44422 0.16637-0.3425 0.096729-0.26932 0.093257-0.40001 0.047353-0.42044 0.007352-0.44296-0.028026-0.45692-0.07392-0.56604-0.21355-1.0165-0.18605-0.66523-0.3436-1.0068-0.22709-0.57428-0.41048-0.9505-0.46865-1.0042-1.24-2.5203-0.32542-0.70765-0.35941-0.88042-0.13517-0.38394-0.2168-0.73416-0.43844-2.0529-0.12986-0.51175-0.2441-0.71938-0.29854-0.71862-0.83671-1.8187-0.4551-0.91881-0.41458-0.77066-0.45909-0.77337-0.41368-0.6237-0.40228-0.54503-0.59992-0.73229-1.0731-1.233-0.83406-0.91045-0.65796-0.67568-1.1289-1.0846-1.0549-0.95602-1.8639-1.5928-1.7806-1.4628-1.5204-1.1815-0.22917-0.21174-0.023126-0.10943 0.086743-0.10653 0.26397-0.13113 2.3908-0.71593 0.59848-0.21044 0.5596-0.28341 0.56112-0.44447 0.4975-0.54385 0.2782-0.36131 0.45392-0.7288 1.5032-2.7938 0.60567-0.98069 0.98375-1.4418 0.3692-0.60023 0.30362-0.62058 0.20707-0.64287 0.073324-0.46711 0.019201-0.36699-0.010677-0.45767-0.031952-0.41718-0.14816-1.3804-0.020959-0.43854 0.024191-0.61006 0.19921-1.7061 0.044822-0.64107 0.003634-0.24025-0.081621-1.7677 0.05082-1.5276-0.016024-0.7611-0.056945-0.51756-0.087451-0.44202-0.11837-0.43129-0.14966-0.43893-0.46543-1.1953-0.16502-0.49013-0.10138-0.50543-0.004526-0.51198 0.068217-0.36621 0.13563-0.40589 0.14862-0.33582 0.45419-0.83132 0.94708-1.5488 0.28553-0.5126 0.26847-0.56504 0.19049-0.5351 0.07294-0.29818 0.077691-0.81638-0.051359-0.82072-0.068259-0.46058-0.090889-0.42067-0.11602-0.409-0.69025-1.907-0.12079-0.41061-0.09764-0.41783-0.058085-0.32323-0.053853-0.81762 0.091621-0.91262 0.16106-0.6961 0.22681-0.67792 0.28906-0.63546 0.35197-0.56586 0.2388-0.29403 0.30156-0.31924 1.1131-1.049 0.55868-0.55326 0.57171-0.6179 0.68663-0.81283 0.49191-0.63844 0.47347-0.67293 0.31305-0.48573 0.41657-0.70744 0.37567-0.73001 0.39639-0.9269 0.33541-0.92692 0.29124-0.89209 0.21262-0.70553 0.19146-0.81405 0.091756-0.61939-0.01891-0.27095-0.81124 0.092202-1.7563 0.2843-1.0294 0.20228-1.0693 0.24233-1.0811 0.28585-0.74961 0.22603-1.5225 0.50743-1.4939 0.53585-3.6892 1.4027-1.864 0.74884-1.1396 0.52202-1.599 0.78365-0.9943 0.50226-1.7933 0.95301-1.0275 0.49702-1.2901 0.573-0.9457 0.3872-0.62827 0.22986-0.66673 0.20875-0.773 0.19678-0.76158 0.16204-1.0635 0.1676-0.77456 0.076835-2.2733 0.1537-3.8719 0.44205-0.77313 0.042646-0.63094-0.01225-0.81662-0.089618-0.46239-0.084494-0.52766-0.13516-0.44438-0.14932-0.61728-0.26178-0.55599-0.30238-0.35451-0.2331-0.35779-0.27238-0.40059-0.36104-0.31932-0.34762-0.27312-0.36572-0.25437-0.43608-0.56894-1.1295-0.44037-0.68675-0.53827-0.69755-0.61917-0.70417-0.68695-0.70702-0.74504-0.70605-0.79638-0.70072-0.8434-0.69002-0.88792-0.6725-1.2499-0.86577-0.68768-0.44928-1.0515-0.65944-1.0544-0.62935-3.882-2.2147-0.31865 0.12896-0.59315 0.27885-0.69995 0.36784-0.47885 0.27597-0.72404 0.44958-0.70916 0.47182-0.98937 0.70644-0.54305 0.41487-0.48743 0.39625-0.56974 0.50512-0.50615 0.50874-0.48198 0.57828-0.22766 0.33641-0.16785 0.30729-0.11477 0.27966-0.073593 0.28065-0.02494 0.24418 0.057263 0.4238 0.16631 0.38563 0.24226 0.34797 0.26364 0.30723 1.3002 1.3166 0.41209 0.50215 0.19438 0.3473 0.16988 0.44033 0.16812 0.66072 0.033378 0.24598 0.014174 0.28705-0.041918 0.51941-0.1056 0.53289-0.30446 1.1365-0.14631 0.62028-0.083975 0.62399 0.002563 0.57613 0.058023 0.57637 0.35328 2.2801 0.025856 0.57421-0.09822 0.66207-0.070457 0.25492-0.28239 0.82664-0.15188 0.34976-0.19516 0.3396-0.22928 0.31594-0.4692 0.51783-0.42422 0.38103-0.22511 0.16022-0.22302 0.12089-0.17983 0.065988-0.27099 0.051173-0.59207 0.034726-0.34568 0.05124-0.44065 0.12341-1.0285 0.33711-1.8326 0.46206-0.67625 0.23878-0.44318 0.21976-0.56107 0.36634-1.1478 0.84588-0.76674 0.49482-1.3478 0.7667-0.38498 0.19656-0.22408 0.088086-0.098698 0.012621-0.20069-0.038542-0.46942-0.17299-0.65026-0.31794-0.92788-0.51147-0.59099-0.27549-0.30446-0.090924-0.61313-0.075997-1.2839-0.008654-0.62533-0.087648-0.60599-0.23345-0.40619-0.23274-0.38442-0.26015-0.65391-0.48698-0.33592-0.30326-0.17932-0.19688-0.36569-0.50822-0.35065-0.60093-0.8835-1.6727-0.28397-0.48805-0.30212-0.45964-0.20393-0.2696-0.42374-0.45216-0.4837-0.38748-0.48934-0.29515-0.71867-0.35494-0.69131-0.31736-0.70776-0.29144-0.84229-0.28228-0.86068-0.20113-2.6375-0.42321-1.5557-0.16568-0.46882-0.006591-0.41767 0.033836-0.69871 0.12029-0.67144 0.17824-0.68504 0.21686-1.3192 0.45131-2.278 0.85-0.55986 0.19679-0.91289 0.28614-0.7378 0.17955-0.41707 0.078637-0.72235 0.097123-0.95183 0.043916-0.60191-0.029431-0.98448-0.1567-0.97211-0.26967-2.542-0.94285-0.47011-0.14895-4.3607-1.2142-0.13696-0.14306-0.21496-0.29774-0.10992-0.18506-0.17462-0.77234-0.053717-0.40124-0.01711-1.1794-0.023672-0.18376-0.095816-0.33318-0.1171-0.18388-0.15381-0.14345-0.17932-0.096847-0.19535-0.041945-0.19942 0.016477-0.86512 0.28405-0.24897 0.071324-0.24819 0.04657-0.24773-0.007347-0.20637-0.064924-0.20568-0.11236-0.20432-0.14965-0.20225-0.17866-0.41973-0.44295-0.63673-0.7534-0.45244-0.48932-0.22988-0.19662-0.23241-0.14506-0.23456-0.074755-0.21187 0.005551-0.21269 0.061994-0.42502 0.22968-0.37228 0.28178-0.20182 0.19389-0.56946 0.62962-0.44045 0.39516-0.2405 0.17199-0.2503 0.1446-0.74975 0.32209-0.24269 0.13288-0.4367 0.29937-0.22522 0.20018-0.12122-0.075583-0.20172-0.23262-0.32546-0.51631-0.45114-0.79642-0.17953-0.38316-0.13433-0.39764-0.071275-0.40252-0.02177-0.4134 0.012382-0.4185 0.16894-1.8328 0.10155-0.78004 0.02953-0.37192-0.015799-0.35717-0.079326-0.3515-0.24623-0.67548-0.10323-0.33676-0.047402-0.34434 0.038792-0.3919 0.11158-0.40448 0.47144-1.2575 0.10894-0.4262 0.034146-0.42674-0.065849-0.42975-0.14574-0.42855-0.18278-0.39923-0.62217-1.2365-0.5142-1.3318-0.081505-0.28032-0.067018-0.37075-0.006602-0.2407 0.076822-0.43606 0.161-0.43803 0.44399-0.95836 0.13543-0.34804 0.10174-0.35586 0.067095-0.42011 0.066777-0.83924 0.057299-0.39874 0.092013-0.34452 0.11522-0.29154 0.11538-0.20845 0.091236-0.083601-0.082401-0.10174-0.064869-0.27907-0.10702-1.0325-0.12986-0.56378-0.088174-0.26342-0.17458-0.38774-0.20214-0.33661-0.5809-0.77902-0.36832-0.45089-0.30676-0.35381-0.4504-0.46535-0.3492-0.30855-0.30293-0.23024-0.46564-0.30351-0.46416-0.20279-0.51603-0.074649-0.52238 3e-3 -0.5466 0.012061-0.49577 0.035394-0.46139 0.078354-0.7313 0.18811-0.53252 0.16728-1.1762 0.41882-1.5929 0.61926-2.9739 1.2108-0.6394 0.23516-0.79692 0.25801-0.76993 0.20498-0.61169 0.13488-1.3805 0.25355-1.3944 0.1918-1.0971 0.060702-0.98656-0.027573-0.76239-0.082463-0.51441-0.092398-0.7823-0.2029-1.4269-0.42762-0.43456-0.10029-0.78544-0.11056-1.6239-0.11497-0.82957-0.10283-0.89042-0.19962-0.69124-0.20366-0.60526-0.21695-1.3364-0.53666-3.3565-1.3928-0.4767-0.16855 0.053147-0.20154-0.054028-0.16523-0.12499-0.2536-0.43166-0.63523-0.6043-0.72764-0.71171-0.77309-3.0817-3.0963-0.8012-0.86723-0.47566-0.59397-0.31635-0.44675-1.171-1.7798-0.27245-0.45239-0.38801-0.73346-0.23614-0.55772-0.2083-0.71043-0.092507-0.71617-0.007996-0.47824 0.045179-0.47271 0.11218-0.47152 0.14172-0.39273 0.26408-0.55624 0.41714-0.70284 0.51275-0.73813 0.78178-1.0432 0.40065-0.47051 0.52488-0.4908 0.44456-0.34318 0.79922-0.51977 0.52645-0.2986 0.55528-0.28628 0.5678-0.26347 0.78753-0.31365 3.3049-1.066 1.8456-0.64532 0.88496-0.35494 0.83541-0.38571 0.65241-0.35769 0.58381-0.39152 0.49513-0.43188 0.38192-0.48064 0.25322-0.54315 0.14007-0.58409 0.036406-0.31907 0.003266-0.45001-0.046989-0.46125-0.055555-0.31119-0.18196-0.73939-0.24851-0.75585-0.31218-0.7518-0.37786-0.72714-0.27886-0.44481-0.66864-0.90212-1.131-1.4385-0.38914-0.44148-0.30755-0.30316-0.9267-0.8002-1.3636-1.0998-2.8089-2.1527-0.31924-0.2741-0.2373-0.24392-0.32463-0.41871-0.54429-0.76461-1.3028-1.5348-0.40462-0.58317-0.35245-0.64438-0.2805-0.68107-0.1148-0.38319-0.093064-0.49096-0.021083-0.6006 0.042266-0.61111 0.12197-0.98048 0.45978-2.0238 0.77428-2.6601 0.51148-1.3968 0.2267-0.70184 0.13861-0.71382 0.009543-0.79956-0.094231-0.81637-0.37579-2.0426-0.061408-0.84783 0.043652-0.57448 0.10337-0.53496 0.080704-0.2909 0.17771-0.4942 0.14033-0.30943 0.075084-0.099886 0.24606-4.59e-4 0.50154-0.08775 0.51744-0.17492 0.47337-0.24239 0.43347-0.27693 0.58206-0.43137 1.7625-1.4736 0.42092-0.31052 0.38495-0.23251 0.22047-0.10541 0.39982-0.12484 0.20171-0.021479 0.2519 0.019339 0.25314 0.060892 0.2541 0.091501 0.51045 0.24363 0.77084 0.44518 1.9884 1.2161 0.84252 0.44716 0.64156 0.25502 1.1714 0.32492 0.26698 0.095343 0.13909 0.070613-0.001408-0.023971 0.063553-0.075028 0.33024-0.30984 1.3361-1.1465 1.6549-1.3405 2.8829-2.2771 0.7535-0.6261 0.84321-0.75231 0.8247-0.79881 0.66193-0.69063 0.55772-0.62748 0.55248-0.68596 0.42154-0.59824 0.31107-0.49788 0.31081-0.58898 0.15393-0.36725 0.085192-0.25548 0.10064-0.4597 0.029927-0.57788-0.019066-0.29892-0.11534-0.83028-0.11287-0.59554-0.21533-0.78818-0.28807-0.82697-0.3396-0.8515-0.3747-0.86334-0.62081-1.3332-0.88055-1.7531-0.54397-0.96032-0.56916-0.8663-0.37187-0.45971-0.28386-0.28398-0.35026-0.28013-0.48212-0.30903-1.3359-0.70881-0.60126-0.36032-0.33458-0.25901-0.42423-0.47231-0.29283-0.54439-0.1613-0.637-0.053072-0.60024 0.030413-0.62845 0.11967-0.79528 0.62608-2.8841 0.18796-0.58901 0.23792-0.52556 0.20534-0.33378 0.37184-0.37077 0.38638-0.20357 0.4321-0.13234 0.79148-0.17329 0.45471-0.12897 0.38284-0.15657 0.74286-0.36354 0.30464-0.10833 0.20328-0.039566 0.32811-0.002569 0.33877 0.065671 0.32107 0.11767 0.33224 0.15601 1.4133 0.73668 1.2033 0.56677 1.4865 0.76947 0.52275 0.2512 0.48793 0.22378 0.74658 0.29883 1.015 0.47273 1.5161 0.76076 0.55486 0.29693 1.1567 0.66397 0.56221 0.2935 0.51834 0.23861 0.70282 0.26202 0.61869 0.12586 0.3568 0.029725 0.43202-0.003609 0.51477-0.062042 0.58979-0.14877 0.78-0.29612 1.7664-0.85771 0.90872-0.41226 0.93758-0.39131 2.5158-0.9981 0.61826-0.22865 0.99812-0.30384 0.40431-0.10271 0.91914-0.17723 0.78648-0.096103 0.74716-0.051831 0.75072-0.018987 2.0393 0.018238 2.3589-0.10137 1.0732-0.00636 1.0897 0.039166 1.0976 0.088899 1.1455 0.15483 1.1274 0.23004 1.0889 0.32197 1.0234 0.43381 0.88022 0.51544 0.79556 0.5731 1.3019 1.0583 0.34069 0.25418 0.24428 0.14634 0.16051 0.062913 0.051265-0.027423 0.61427-0.34341 0.4604-0.30494 0.43483-0.33697 0.53461-0.49961 0.26774-0.30631 0.322-0.43937 0.41108-0.61396 0.36094-0.61036 0.23478-0.52613 0.13503-0.47812 0.082478-0.55409 0.092554-1.201 0.082402-0.6666 0.1904-0.94568 0.21187-0.75189 0.26642-0.71162 0.29824-0.65258 0.22894-0.4397 0.78851-1.4045 0.15745-0.30732 0.10192-0.2639 0.04205 0.035769 0.097561 0.41302 0.90005 5.3259 0.1733 0.85311 0.15825 0.62605 0.15392 0.51823 0.20167 0.58746 0.24645 0.61559 0.18422 0.40696 0.38732 0.74973 0.51272 0.82706 0.36136 0.48211 0.21507 0.24978 0.32817 0.33258 0.27263 0.23615 0.38323 0.28045 0.26768 0.16866 0.44852 0.24614 0.38445 0.1841 0.80966 0.33041 0.56342 0.19245 0.71385 0.20663 0.98766 0.23543 1.5613 0.30733 1.5348 0.25223 1.0773 0.13317 0.59632 0.051396 0.47236 0.02647 0.96188 0.002807 0.70706-0.056063 0.45304-0.068213 0.46829-0.10022 0.7277-0.2163 0.84679-0.30079 0.84198-0.3341 0.45602-0.19709 0.71615-0.36314 0.67758-0.43784 0.32029-0.24873 0.29213-0.26012 0.29906-0.31075 0.18451-0.22231 0.32047-0.45645 1.0267-1.7437 0.3512-0.55657 2.6249-3.8382 0.30762-0.47341 1.0715-1.8925 0.39017-0.56374 0.18774-0.22394 0.44116-0.44701 0.29061-0.25664 1.3217-1.0577 0.60958-0.45803 0.37444-0.24088 0.70284-0.35557 0.50796-0.22199 0.53265-0.14845 0.50914-0.03051 0.54636 0.056269 0.72221 0.17936 0.5081 0.18945 0.73453 0.36606 0.3016 0.18306 0.7135 0.47995 0.94616 0.68644 0.85431 0.58353 0.30606 0.18886 0.71712 0.36878 0.73754 0.26462 0.24156 0.059983 2.7084 0.46027 0.4598 0.10592 0.57424 0.17358 1.3342 0.47832 0.60483 0.24777 0.59647 0.30168 0.57101 0.33034 0.48513 0.30347 0.4635 0.33706 0.4319 0.36194 0.71505 0.69296 1.0681 0.98402 0.431 0.47013 0.39751 0.52546 0.78974 1.1915 0.39805 0.54378 0.67478 0.79626 0.70634 0.64641 0.60279 0.401 0.61869 0.22921 0.082181 0.014227 0.36517 0.018972 0.4112-0.047834 0.28639-0.065765 0.45976-0.14971 1.315-0.53965 0.55318-0.25287 0.12214-0.038877 0.043186 0.008229 0.088744-0.13767 0.026546-0.36762-0.25842-4.0795-6.72e-4 -0.90458 0.13055-1.1627 0.050216-0.23766 0.18379-0.6657 0.14232-0.4135 0.34723-0.83789 0.43384-0.86069 0.48768-0.81924 0.53387-0.76623 0.5769-0.69935 0.62084-0.61546 0.66948-0.51066 0.55135-0.31461 1.1721-0.55203 0.80838-0.40902 1.663-0.94587 1.7293-1.0524 3.571-2.2367 2.5383-1.6292 1.6954-1.1346 0.86661-0.61395 0.8298-0.62639 0.45557-0.36602 0.80776-0.69306 0.84066-0.77497 0.82088-0.79931 1.603-1.6464 4.7176-5.0336 0.79848-0.81087 0.81075-0.78548 0.82862-0.74824 0.85398-0.69503 0.88926-0.62042 0.93758-0.51751 0.96156-0.37998 1.0071-0.28226 1.0405-0.20966 1.0646-0.1559 1.0812-0.1158 1.092-0.085074 2.1969-0.097564 1.0961-0.014393 1.0884 0.012344 1.0751 0.046009 1.0549 0.090358 1.0257 0.14984 0.74412 0.1581 0.99233 0.27332 0.5854 0.21798 0.56753 0.25893 0.43211 0.22912 0.50117 0.29964 1.9999 1.3674 0.62593 0.37379 0.5433 0.2395 0.44728 0.11706 0.19191 0.026144 0.66045-0.013931 0.68774-0.14892 0.51296-0.1771 0.52522-0.2261 0.85736-0.44284 0.94485-0.56393 1.4194-0.93453 1.2101-0.83892 1.4238-1.0206 1.7222-1.2701 0.2259-0.1399 0.41067 0.59844 0.27738 0.45407 0.29777 0.53879 0.433 0.8973 0.35974 0.8546 0.30187 0.79549 0.24048 0.71849 0.16119 0.5854" stroke="#bdc660"/>
    </defs>
    <g clip-path="url(#p85b12e8c87)">
     <use y="280.512" fill="#bdc660" stroke="#bdc660" xlink:href="#me48d4f3861"/>
    </g>
   </g>
  </g>
 </g>
 <defs>
  <clipPath id="p85b12e8c87">
   <rect x="7.2" y="7.2" width="269.54" height="266.11"/>
  </clipPath>
 </defs>
</svg>
