<?xml version="1.0" encoding="UTF-8"?>
<!DOCTYPE svg  PUBLIC '-//W3C//DTD SVG 1.1//EN'  'http://www.w3.org/Graphics/SVG/1.1/DTD/svg11.dtd'>
<svg width="313.74pt" height="280.51pt" version="1.1" viewBox="0 0 313.74 280.51" xmlns="http://www.w3.org/2000/svg" xmlns:xlink="http://www.w3.org/1999/xlink">
 <metadata>
  <rdf:RDF xmlns:cc="http://creativecommons.org/ns#" xmlns:dc="http://purl.org/dc/elements/1.1/" xmlns:rdf="http://www.w3.org/1999/02/22-rdf-syntax-ns#">
   <cc:Work>
    <dc:type rdf:resource="http://purl.org/dc/dcmitype/StillImage"/>
    <dc:date>2024-07-04T12:11:04.265227</dc:date>
    <dc:format>image/svg+xml</dc:format>
    <dc:creator>
     <cc:Agent>
      <dc:title>Matplotlib v3.7.1, https://matplotlib.org/</dc:title>
     </cc:Agent>
    </dc:creator>
   </cc:Work>
  </rdf:RDF>
 </metadata>
 <defs>
  <style type="text/css">*{stroke-linejoin: round; stroke-linecap: butt}</style>
 </defs>
 <g id="figure_1">
  <g id="patch_1">
   <path d="m0 280.51h313.74v-280.51h-313.74v280.51z" fill="none"/>
  </g>
  <g id="axes_1">
   <g id="PatchCollection_1">
    <defs>
     <path id="mcca49b6fc7" d="m159.37-233.13 0.58024 1.3814-0.052151-0.009099-0.17874 0.035896-0.43625 0.16539-0.37109 0.20814-0.24854 0.18637-0.12867 0.11766-0.21312 0.24127-0.18442 0.27532-0.19873 0.39843-0.1841 0.48306-0.18692 0.58383-0.93979 3.1614-0.22937 0.8482-0.13807 0.68301-0.070285 0.69583 3.33e-4 0.59514 0.036776 0.4063 0.04311 0.28536 0.070457 0.3377 0.103 0.37985 0.25408 0.69606 0.18326 0.39507 0.13176 0.24457 0.33001 0.5005 0.19514 0.2414 0.19792 0.20833 0.34214 0.29621 0.36548 0.26841 1.8341 1.2028 0.63239 0.45035 0.41926 0.32467 0.44996 0.38643 0.39698 0.38721 0.45936 0.51494 0.28628 0.35907 0.27462 0.37115 0.55193 0.81511 1.7735 2.847 1.0027 1.7351 1.532 2.7943 0.12271-0.27931 0.17986-0.21742 0.12237-0.050455 0.12832 0.05825 0.080045 0.13994 0.043284 0.14868 0.044999 0.29826 0.027677 0.56715-0.007959 0.48067-0.027472 0.38542-0.069862 0.56561-0.32314 1.7541-0.056193 0.73118 0.04542 0.66909 0.15681 0.78011 0.20288 0.65268 0.25554 0.64506 0.37097 0.77276 0.30363 0.54992 0.80252 1.3527 0.28299 0.52475 0.45475 0.91929 0.3663 0.88166 0.25907 0.76397 0.17652 0.64507 0.42582 1.7735 0.21913 0.74675 0.16228 0.4393 0.30958 0.66394 0.27049 0.44763 0.26026 0.33544 0.26866 0.25809 0.19725 0.13576 0.32294 0.13052 0.30903 0.029539 0.32536-0.043177 0.4258-0.14297 0.33765-0.1674 0.56518-0.35123 0.3377-0.23891 0.34342-0.25784 2.0839-1.665 0.70689-0.54729 0.58716-0.41012 0.35611-0.21479 0.3809-0.19939 0.39344-0.17261 0.40497-0.14 0.48845-0.10975 0.37558-0.028978 0.29874 0.021921 0.22639 0.051303 0.23416 0.092785 0.17778 0.097902 0.33994 0.24655 0.37865 0.34956 0.67644 0.69893 0.34498 0.32254 0.31886 0.26423 0.35087 0.2459 0.27359 0.16313 0.36166 0.18625 2.4171 1.0614 0.84812 0.41405 0.55491 0.29649 1.0913 0.6425 0.65814 0.4249 0.63328 0.46124 0.24078 0.19948 0.032115 0.047466 0.029616-0.044125 0.071751-0.026216 0.17601-0.010717 0.2764 0.038216 0.45579 0.14549 1.3579 0.61107 0.32176 0.10297 0.1724 0.032833 0.17292 0.01476 0.19856-0.006538 0.19788-0.029059 0.34437-0.095149 0.51358-0.21798 0.43882-0.23613 1.0969-0.66438 0.40404-0.19398 0.38659-0.14038 0.2123-0.059806 0.31869-0.063231 0.36905-0.029605 0.42388 0.007004 1.1892 0.11667 0.42157-0.01257 0.21903-0.028242 0.43158-0.099235 0.30211-0.09947 1.0926-0.43225 0.46517-0.14052 0.49116-0.10492 0.28622-0.043883 0.5518-0.05361 0.60217-0.016323 0.34194 0.007791 0.91155 0.073962 0.59824 0.095501 0.29321 0.064812 0.49732 0.15209-0.045919 0.018583-0.093288 0.084769-0.18014 0.20092-0.28621 0.37926-0.17042 0.25914-0.20152 0.34641-0.14068 0.28044-0.18059 0.43704-0.15611 0.49493-0.084279 0.34854-0.072274 0.39423-0.038289 0.33203-0.008847 0.25932 0.035279 0.40666 0.071522 0.30989 0.098475 0.27338 0.10496 0.22001 0.172 0.29176 0.99937 1.4932 0.44913 0.63314 0.47582 0.60999 0.50312 0.55006 0.23257 0.21385 0.36864 0.27875 0.383 0.21198 0.48106 0.14888 0.49479 0.009744 0.16564-0.025324 0.44427-0.13071 0.34454-0.1606 0.32743-0.20091 0.91771-0.72533 0.73062-0.51368 0.76922-0.4618 0.48158-0.24533 0.6605-0.26925 0.27428-0.086448 0.40198-0.094947 0.20548-0.027021 0.1773-0.002937 0.14442 0.020338 0.15663 0.058914 0.177 0.13439 0.12835 0.18088 0.093147 0.2591 0.13662 0.63632 0.0736 0.24595 0.30819 0.86878 0.16064 0.51719 0.12102 0.5211 0.07391 0.55187 0.011987 0.30054-0.034202 0.57412-0.06242 0.55084-0.014986 0.43974 0.019 0.16438 0.052754 0.18875 0.084981 0.16505 0.2808 0.30722 0.14902 0.10904 0.29342 0.16348 0.36856 0.14283 0.57324 0.12391 1.1527 0.12079 0.48698 0.089832 0.25781 0.099646 0.13602 0.091675 0.13306 0.18843 0.025354 0.089042 0.009104 0.1844-0.032956 0.20413-0.23855 0.63599-0.11946 0.39905-0.043141 0.20642-0.023707 0.33034 0.015405 0.20093 0.046796 0.22741 0.070447 0.20211 0.078494 0.15872 0.084468 0.1302 0.37032 0.36449 0.49624 0.3212 0.58208 0.29581 0.5626 0.22177 0.61004 0.19563 0.78611 0.2186 1.1967 0.2696 0.75903 0.11033 0.30544 0.017716 0.42219 9.94e-4 0.89147-0.064199 0.64352-0.086507 1.1405-0.21359 1.7221-0.37094 1.0513-0.20634 1.0383-0.16776 2.4603-0.31444 0.56292-0.10116 0.24317-0.059273 0.13696-0.060198-0.014969 0.094727 0.052618 0.23383 0.103 0.33262 0.14392 0.40513 0.31838 0.79185 0.29158 0.64718 0.33552 0.67976 0.97476 1.8063 0.37634 0.75726 0.30005 0.70623 0.20137 0.58101 0.13124 0.47351 0.095736 0.45158 0.076541 0.62603 0.00214 0.94965 0.013515 0.23107 0.030867 0.196 0.06031 0.2143 0.071838 0.18702 0.30585 0.6707 0.66063 1.7341 0.15546 0.41803 0.17155 0.60186 0.11617 0.63842 0.049833 0.66302-0.021572 0.62888-0.081049 0.63315-0.13327 0.62984-0.18089 0.61913-1.0401 2.8218-0.19763 0.57182-0.18514 0.60176-0.40917 1.5543-0.5119 2.21-0.20846 0.69302-0.45396 1.1868-0.13084 0.4028-0.74234 2.8307-0.23861 0.84676-0.26229 0.84429-0.24973 0.69937-0.32687 0.75923-0.32078 0.58783-0.48123 0.67472-1.6861 1.9555-0.54382 0.70207-0.50532 0.7285-0.44779 0.75287-0.36464 0.7759-0.24745 0.79799-0.08658 0.81894 0.05254 0.5589 0.12736 0.54184 0.19132 0.54426 0.22189 0.49599 0.25966 0.49117 0.47873 0.76726 0.48671 0.66753 0.66588 0.79006 0.29722 0.31695 0.40033 0.38589 0.15104-0.020604 0.50499 0.11652 2.5425 0.75185 0.98317 0.25728 0.99898 0.21677 1.001 0.15382 0.91642 0.066007 0.74481-0.009376 0.51231-0.035874 0.50912-0.05487 1.081-0.16259 3.308-0.61762 2.9434-0.45389 0.88232-0.14888 0.74972-0.14603 0.68923-0.15306 1.1878-0.3061 2.0849-0.61995 2.3874-0.66702 1.4111-0.34659 0.86585-0.17017 0.57552-0.086613 0.77349-0.089574 1.2251-0.1674 4.1775-0.66023 2.3631-0.32307 1.3552-0.15547 1.2616-0.11418 1.333-0.06795 0.71514-0.004946 0.8358 0.030962 0.48646 0.041109 0.48096 0.062349 0.60315 0.11414 0.59009 0.14767 0.56869 0.17231 0.89804 0.33096 0.66816 0.31368 0.3898 0.23768 0.22416 0.16906 0.30062 0.28585 0.17166 0.21075 0.24121 0.40286 0.17139 0.4213 0.11421 0.41521 0.045441 0.23582 0.044882 0.36752 0.01178 0.30303-0.012227 0.25897-0.027273 0.1784-0.070071 0.14998 0.061004 0.6176 0.037558 0.6392 0.010757 0.91999-0.056749 0.9745-0.1524 0.95836-0.27822 0.88917-0.33749 0.64405-0.4281 0.56024-0.50506 0.46771-0.57206 0.36412-0.42092 0.18292-0.44373 0.13904-0.48479 0.10864-0.5011 0.080372-1.2028 0.11966-1.0814 0.056542-1.0806 0.015663-1.2791-0.045401-0.73018-0.069737-0.62913-0.098646-0.30204-0.062893-0.88695-0.22452-0.8859-0.2672-0.87989-0.29387-3.3019-1.1741-0.9518-0.2873-0.49155-0.10232-0.19071-0.016735-0.30358 0.026798-0.116 0.035525-0.16462 0.094972-0.089202 0.090176-0.10348 0.18394-0.046042 0.19218-0.010479 0.2858 0.042945 0.40561 0.090957 0.47748 0.5081 2.0547 0.16261 0.72565 0.12575 0.71989 0.065876 0.6989-0.009456 0.5451-0.061552 0.41274-0.17672 0.50895-0.36193 0.51793-0.49826 0.4472-0.59782 0.39608-0.66771 0.36067-1.0509 0.48163-0.7562 0.29815-0.76945 0.26092-0.77309 0.21145-0.76778 0.14582-0.75337 0.059368-0.32269-0.006272-0.61556-0.052493-0.5749-0.08645-0.594-0.14028-1.1248-0.36322-0.33728-0.089264-0.29423-0.04456-0.30035 2.08e-4 -0.21508 0.03338-0.24261 0.068633-0.37376 0.16003-0.32285 0.1867-0.25001 0.17858-0.22504 0.19841-0.22236 0.26205-0.19917 0.38432-0.095176 0.59795 0.064032 0.67669 0.18611 0.72711 0.28235 0.75367 0.36255 0.75895 0.43539 0.74384 0.50892 0.7075 0.59092 0.64753 0.65771 0.55189 0.72496 0.4897 0.7732 0.4432 0.80715 0.40892 0.8305 0.384 0.8461 0.36616 1.7183 0.69863 2.5994 1.0072 3.4594 1.3118 1.7226 0.63584 1.8002 0.62642 0.49737 0.15677 0.90346 0.24906 0.80861 0.17676 0.9903 0.16281 1.8672 0.21922 1.4279 0.19413 1.4931 0.25637 1.0936 0.23432 1.2165 0.33055 1.031 0.34211 0.94272 0.36081 1.034 0.44619 1.0105 0.4837 0.54748 0.28331 0.53547 0.29512 0.58446 0.34898 0.55843 0.37178 0.52607 0.40273 0.34134 0.29937 0.33953 0.3248 0.72046 0.75299 0.6256 0.70557 0.87578 1.0504 0.28834 0.41071 0.099844 0.19349 0.063607 0.19757 0.009102 0.20207-0.063293 0.18212-0.28302 0.26855-0.45113 0.17168-0.5725 0.055134-0.61977-0.069815-0.67374-0.1673-0.71091-0.23945-0.73514-0.29123-1.5047-0.67394-1.6506-0.77814-1.2385-0.54792-0.36306-0.13847-0.60208-0.18264-0.75777-0.11176-0.72309 0.046737-0.72395 0.1751-0.73528 0.27967-0.73464 0.35492-0.70573 0.39188-0.70372 0.42982-0.69909 0.46006-1.2658 0.90422-2.6625 2.0478-0.6631 0.48804-0.65289 0.44775-0.46745 0.29048-0.46089 0.25067-0.45411 0.19985-0.44054 0.13501-0.58884 0.059989-0.52505-0.092117-0.50782-0.2039-0.49137-0.27684-0.8732-0.56182-0.39946-0.21421-0.20712-0.088526-0.4021-0.12501-0.32598-0.062702-0.49032-0.032129-0.50714 0.035314-0.34872 0.060403-0.58348 0.1581-0.60093 0.2236-0.60444 0.27433-0.60576 0.31541-0.60503 0.34912-0.54252 0.33843-1.075 0.73129-0.70365 0.51639-2.7017 2.0724-1.3064 0.9413-0.66843 0.43704-0.54858 0.32805-0.55492 0.29939-0.71461 0.3232-0.69476 0.21956-0.48589 0.083884-0.95435 0.10336-0.43459 0.073939-1.9569 0.43585-0.66473 0.11379-0.66133 0.031347-0.5215-0.057348-1.0306-0.21523-0.52547-0.090542-0.37707-0.033766-0.39191 9.52e-4 -0.68902 0.071802-0.42221 0.075441-0.43073 0.094837-0.98782 0.26713-0.94215 0.30353-0.78411 0.28777-0.9704 0.40232-0.5942 0.26911-0.59458 0.28431-1.1766 0.6-2.7646 1.5042-1.7014 0.89796-1.1962 0.58947-0.53977 0.24943-1.0556 0.45302-1.0722 0.41273-0.55451 0.19482-1.0207 0.32068-0.5896 0.15578-0.44693 0.09707-0.65488 0.094297-0.24025 0.011492-0.12374-0.006079-0.051505-0.024954-0.090788-0.23755-0.22972-0.49014-0.1973-0.37321-0.23415-0.38879-0.2062-0.29669-0.23048-0.28614-0.28123-0.29427-0.38413-0.33497-0.59703-0.43236-0.847-0.52011-1.7584-0.99406-0.69801-0.45616-0.23325-0.17593-0.2192-0.18435-0.2598-0.25452-0.22776-0.27222-0.20322-0.3103-0.15901-0.32739-0.1082-0.32706-0.062815-0.33584-0.01063-0.44184 0.068583-0.45107 0.082125-0.29742 0.10461-0.29339 0.73886-1.6119 0.13738-0.37134 0.088695-0.36816 0.016894-0.18156-0.008047-0.34708-0.035917-0.45616 0.002231-0.17905 0.054738-0.26065 0.10871-0.21096 0.23052-0.274 0.60867-0.53953 0.16465-0.17073 0.11912-0.17568 0.047707-0.17773-0.027254-0.14954-0.10848-0.20188-0.54483-0.70634-0.19362-0.28857-0.18038-0.31908-0.15879-0.35188-0.1248-0.37408-0.07427-0.33462-0.041777-0.33814-0.003627-0.49586 0.054747-0.44477 0.07525-0.29111 0.071677-0.1607 0.039434-0.044573 0.028714-0.00829-0.06087-0.015794-0.33823 0.031272-0.8195 0.1556-1.1039 0.2861-1.0405 0.31019-0.92631 0.32098-0.76935 0.31449-0.49509 0.23249-0.61585 0.33277-0.5441 0.34632-0.40023 0.29323-0.35119 0.28484-1.4142 1.2128-0.40745 0.31889-0.36037 0.25456-0.64514 0.4077-0.4844 0.27132-0.55095 0.26845-1.2147 0.55387-0.41327 0.21162-0.35751 0.20485-0.92136 0.60118-1.4355 1.0581-0.32567 0.22292-0.64404 0.39872-0.77978 0.41189-0.46278 0.2137-1.5783 0.66378-1.6808 0.75855-0.89739 0.47386-0.87058 0.51305-0.611 0.41086-0.51602 0.40392-0.48078 0.42784-1.3625 1.2863-1.278 1.1233-0.42332 0.35463-1.7064 1.3622-0.43537 0.30286-0.33684 0.18086-0.2906 0.10688-0.20801 0.046627-0.15844 0.019357-0.27367 0.003937-0.32343-0.038182-0.47568-0.12016-1.533-0.56524-0.59096-0.18738-0.76021-0.18938-0.90334-0.19071-0.73736-0.20787-0.29352-0.10941-0.26662-0.13326-0.18197-0.12281-0.16793-0.15368-0.13396-0.17052-0.07726-0.13403-0.072315-0.17571-0.043035-0.16674-0.023928-0.18341-0.005164-0.28536 0.070547-0.77567-0.003625-0.39194-0.070256-0.35951-0.1249-0.35192-0.14363-0.30913-0.15687-0.29263-0.91736-1.4979-0.34497-0.49065-0.98286-1.2678-0.24852-0.36346-0.20435-0.36028-0.11007-0.23943-0.18452-0.545-0.08482-0.35115-0.14086-0.81668-0.063335-0.29018-0.082807-0.20967-0.062405-0.098162-0.13066-0.1314-0.12884-0.079166-0.27451-0.090149-0.22592-0.031442-0.27012-0.009648-0.33897 0.010707-1.1627 0.065728-0.57052 0.007486-0.85192-0.040623-0.89354-0.11827-0.51317-0.098649-0.66677-0.16494-0.48357-0.15245-0.70683-0.28156-0.76382-0.37121-0.69305-0.39533-0.45272-0.29145-0.57243-0.41082-0.6261-0.52652-0.49044-0.49282-0.22732-0.26559-0.23247-0.31333-0.25192-0.41297-0.2113-0.42073-0.42513-0.95251-0.23967-0.44718-0.28138-0.45187-0.26959-0.38516-0.29558-0.38317-0.44186-0.51263-0.42993-0.43994-0.59682-0.528-0.45606-0.34291-0.56524-0.35911-0.44406-0.23528-0.45921-0.20203-0.57318-0.19726-0.57792-0.14858-0.75001-0.1319-0.42478-0.04739-0.38648-0.025978-0.46828-0.004105-0.21921 0.01916-0.088031 0.036045-0.35013 0.11629-0.84964 0.34774-0.77493 0.34639-1.5307 0.72652-1.4244 0.74423-1.1601 0.67781-0.65244 0.4215-0.59768 0.42304-0.50459 0.39378-0.37876 0.32523-0.41228 0.39391-0.22429 0.23864-0.21171 0.2478-0.20914 0.27672-0.17739 0.27462-0.35256 0.76279-0.23093 0.8248-0.14278 0.86751-0.07942 0.89532-0.033867 0.91136-6.08e-4 0.91765 0.024743 0.91514 0.045715 0.90385 0.065318 0.88287 0.086237 0.85036 0.16496 1.2768 0.059948 0.58299 0.06712 0.98686 0.085044 0.44306 0.083453 0.23432 0.10607 0.214 0.12085 0.1856 0.1167 0.14223 0.22353 0.20659 0.20284 0.14087 0.20536 0.11536 0.2787 0.128 0.52381 0.17833 0.27984 0.065283 0.37594 0.058986 0.71513 0.0415 0.79298-0.026653 2.5919-0.24308 0.7871-0.028359 0.65095 0.022081 0.62907 0.079175 0.35975 0.080119 0.43108 0.13856 0.29403 0.1263 0.33598 0.18092 0.41436 0.28197 0.36432 0.3067 0.40783 0.41601 0.37542 0.46028 0.34336 0.4917 0.36183 0.59496 0.26176 0.48254 0.3356 0.68196 0.39215 0.88334 0.33259 0.85356 0.23489 0.74593 0.17551 0.73348 0.082877 0.45156 0.092027 0.73417 0.02894 0.58817-0.020757 0.53249-0.066485 0.48549-0.1532 0.68274-0.20075 0.66784-0.17494 0.46016-0.17189 0.37323-0.22212 0.39905-0.18254 0.27887-0.26096 0.34754-0.31046 0.35548-0.28488 0.28828-0.34695 0.31555-1.0859 0.88652-1.2676 0.95044-0.94116 0.63925-1.7515 1.1002-0.73209 0.5029-0.9517 0.72547-1.943 1.5723-1.8189 1.3525-0.74595 0.61796-0.88122 0.80589-0.97475 0.93371-1.614 1.6131-0.81414 0.87723-1.7296 1.9625-0.52981 0.64525-0.51321 0.68921-0.39027 0.6138-0.31292 0.61103-0.24919 0.65207-0.39952 1.3289-0.14969 0.37895-0.16959 0.34456-0.27045 0.44054-0.19994 0.26872-0.14876 0.17041-0.26692 0.23336-0.12551 0.059712-0.077742-1.4e-5 -0.031047-0.11224-0.23835-0.48506-0.26384-0.47306-0.5729-0.90631-0.63788-0.84568-0.58448-0.67106-0.39772-0.41519-0.6086-0.58165-0.59617-0.51334-0.55652-0.43126-0.61334-0.42066-0.72977-0.41718-0.59533-0.25614-0.47278-0.13519-0.20899-0.036564-0.42451-0.025049-0.47173 0.055372-0.15671 0.039986-0.37634 0.14515-0.31961 0.18176-0.18365 0.13211-0.3006 0.26866-1.1719 1.3312-0.5765 0.55916-0.43148 0.37456-0.6509 0.51004-0.69268 0.48755-0.85109 0.52999-0.29083 0.15788-0.5056 0.24332-0.60953 0.25761-0.46424 0.16713-0.32217 0.095034-0.38056 0.086255-0.31325 0.048596-0.35134 0.027469-0.28173-7.01e-4 -0.34713-0.029823-0.57123-0.11197-0.54318-0.15346-0.42868-0.1408-0.40041-0.1607-0.19678-0.095276-0.28663-0.15911-0.27216-0.18844-0.22065-0.21915-0.17525-0.2901-0.13032-0.33794-0.15706-0.54527-0.2127-0.94891-0.15181-0.52654-0.2897-0.57463-0.45145-0.57518-0.57962-0.54149-0.68423-0.50014-0.7719-0.44671-0.41598-0.19858-0.3734-0.15556-0.79375-0.2683-0.93154-0.22011-0.95702-0.12254-0.53091-0.019555-0.52741 0.018599-0.55231 0.06507-0.42193 0.08428-0.41214 0.10988-0.66152 0.22782-0.58819 0.25516-0.46138 0.24589-0.17191 0.11875-0.041829 0.064704-0.16693 0.059309-0.24999 0.19793-0.54056 0.52343-0.61226 0.66255-2.0492 2.3637-0.8131 0.90772-0.77086 0.80719-0.75382 0.72106-0.46334 0.40514-0.47262 0.38744-0.86624 0.65926-1.0291 0.72986-1.8111 1.2143-4.5355 2.974-1.1952 0.73535-1.3523 0.75727-1.0259 0.51218-0.68888 0.30929-1.0117 0.41138-2.555 0.97481-1.1303 0.47355-0.89397 0.43411-0.53778 0.29948-0.52551 0.32127-1.0786 0.73387-3.0082 2.2433-0.48377 0.33763-0.64822 0.4094-0.46412 0.24511-0.45313 0.18096-0.4457 0.09937-0.42987-0.005367-0.36004-0.1031-0.3491-0.1837-0.22552-0.15729-0.21379-0.17344-0.26926-0.24772-0.51046-0.54246-0.43185-0.5173-0.4155-0.53414-2.8729-3.8888-1.2466-1.6111-0.73477-0.89046-0.66849-0.75612-0.35299-0.37305-0.98971-0.97165-0.31758-0.3647-0.28858-0.39645-0.19383-0.3139-0.20677-0.37559-0.30719-0.68201-0.20985-0.63582-0.21871-0.92186-0.13058-0.73944-0.10656-0.75926-0.13497-1.2786-0.11929-1.711-0.070998-1.6873-0.012717-1.0106 0.035531-1.0113 0.044923-0.42797 0.0548-0.33416 0.091658-0.38807 0.072633-0.23639 0.27332-0.67637 0.3074-0.59936 1.1737-2.0134 0.33666-0.68759 0.11418-0.30287 0.096562-0.3783 0.021799-0.26451-0.028424-0.23814-0.23293-0.45714-0.41832-0.38726-0.54645-0.31729-0.62826-0.2411-0.67152-0.15246-0.67741-0.061106-0.66202-0.027193-0.62196-0.06324-0.55558-0.17148-0.2511-0.15127-0.2036-0.16414-0.20755-0.20184-0.30958-0.34805-0.70246-0.85292-0.39894-0.42137-0.32837-0.28141-0.44049-0.29397-1.4597-0.77377-1.2806-0.79858-0.34382-0.19992-0.4693-0.23646-0.63389-0.25414-1.7665-0.57235-0.59965-0.222-1.3592-0.55046-0.58589-0.19433-0.60153-0.10076-0.48992 0.014789-0.38433 0.059571-0.35783 0.081706-0.52194 0.14737-0.9566 0.30361-0.37912 0.10859-0.41353 0.09527-0.5352 0.071517-0.54499 0.001758-0.41618-0.035187-0.84825-0.13231-2.3907-0.4949-1.117-0.18242-2.6486-0.38355-1.1108-0.2046-0.95862-0.2386-0.77799-0.2677-0.31118-0.13527-0.35286-0.1788-0.51873-0.3171-0.56654-0.43737-0.34224-0.32542-0.36798-0.40285-0.54259-0.67109-0.70859-0.92814-1.1941-1.4836-0.85645-1.092-0.90816-1.2701-0.80323-1.1971-3.7526-5.8461-0.25735-0.38421-0.056745-0.061372 1.7434-1.6263 2.06-1.7933 2.3033-2.0964 0.69857-0.5787 1.8037-1.3957 0.61466-0.54679 0.3316-0.36143 0.15592-0.19698 0.25393-0.35955 0.25023-0.41349 0.13445-0.26027 0.19705-0.45897 0.12802-0.39138 0.037723-0.18408 0.10052-0.041178 0.3989-0.27278 2.8235-2.1289 1.2777-0.92822 0.81613-0.562 0.94916-0.60176 0.67645-0.37433 0.41544-0.19698 0.55151-0.21426 0.28204-0.086684 0.71102-0.17422 0.22995-0.074839 0.31889-0.15527 0.28627-0.2025 0.24429-0.23957 0.19906-0.2656 0.17661-0.27848 0.15057-0.28667 0.30648-0.75261 0.15568-0.27198 0.11039-0.12997 0.3011-0.24544 0.30903-0.16984 0.40592-0.14528 0.22243-0.048014 0.49354-0.072595 1.3027-0.10802 0.94093-0.034932 0.35039 0.007086 0.4525 0.033397 0.25345 0.034855 1.5972 0.34912 0.5494 0.049995 0.45551-0.023867 0.46228-0.080326 0.46424-0.1315 0.46042-0.17848 0.48238-0.23776 0.46371-0.27338 0.6998-0.48844 0.56031-0.45843 0.2391-0.23653-0.13352-0.1867-0.091274-0.45546-0.01365-0.62135 0.060777-0.54557 0.11163-0.58659 0.29337-1.1759 0.22437-0.72661 0.2669-0.7219 0.31757-0.70407 0.36975-0.67006 0.41374-0.6454 0.44324-0.62542 1.6247-2.1455 0.45743-0.63787 0.39507-0.58339 0.36414-0.5811 0.36157-0.64977 0.29708-0.64722 0.16689-0.47415 0.11473-0.47211 0.057096-0.45384 0.014377-0.33942-0.005343-0.38598-0.050383-0.8747-0.003731-0.41826 0.025462-0.3608 0.055102-0.35584 0.099232-0.39554 0.11104-0.32435 0.13798-0.32879 0.35395-0.67878 0.70653-1.1803 0.26466-0.53657 0.20241-0.52435 0.15049-0.56276 0.062434-0.42012 0.015955-0.33427-0.02628-0.39631-0.040717-0.23422-0.082028-0.30983-0.11709-0.31963-0.17744-0.37605-0.15625-0.27784-0.3939-0.58399-0.28856-0.35362-0.4136-0.44856-0.44092-0.43014-0.35133-0.31754-1.1869-1.0098-0.75444-0.73274-0.82405-0.88312-1.5474-1.718-1.1064-1.2785-0.55264-0.70002-0.36246-0.50337-1.5332-2.2565-0.39783-0.6541-0.25344-0.51249-0.16697-0.46014-0.11782-0.49037-0.051264-0.36263-0.033032-0.59525 0.017431-0.5385 0.24287-1.8357 0.041245-0.53552-0.001264-0.69611-0.079794-0.75576-0.29965-1.6575-0.16396-0.70396-0.2377-0.74884-0.10266-0.25167-0.19018-0.3949-0.18773-0.32727-0.30736-0.45697-0.73841-0.95961-1.8787-2.3268-0.37011-0.50688-0.35762-0.54665-0.37238-0.63949-0.50553-0.95554-1.4854-3.1526-0.2733-0.48824-0.18364-0.27416-0.22785-0.29153-0.23424-0.25364-0.23442-0.21692-0.34294-0.26777-0.31626-0.20976-0.28346-0.157-0.31692-0.13323-0.29873-0.087832-0.29305-0.055981-0.58288-0.040088-0.57916 0.031535-0.39604 0.052426-1.1616 0.20739-0.71413 0.084179-1.4067 0.07002-1.1531 0.11248-0.5441 0.03863-0.78942 0.026255-0.35833-0.015905-0.41562-0.054349-0.21765-0.047224-0.30281-0.091126-0.24894-0.099666-0.22362-0.11009-0.23854-0.1421-0.26582-0.20376-0.16319-0.16145-0.20507-0.26967-0.16191-0.30958-0.09456-0.27557-0.04175-0.19072-0.027308-0.28434 0.022979-0.34362 0.078817-0.31516 0.062218-0.15063 0.14324-0.24504 0.32178-0.35697 0.34227-0.25943 0.35769-0.20939 1.3384-0.65921 0.59126-0.34192 0.26511-0.21302 0.083279-0.12088 0.00707-0.056949 0.039991 0.02927 0.3174-0.043227 0.61254-0.15441 0.77655-0.22243 1.5878-0.49668 0.86091-0.32158 0.86634-0.36463 0.86484-0.39048 3.3848-1.585 0.8146-0.36028 0.79853-0.32868 0.78028-0.28572 0.75908-0.22855 0.73393-0.15345 0.70359-0.055836 0.61686 0.044153 1.2257 0.17287 0.61276 0.032878 1.9483-0.012155 0.66907 0.032304 0.6193 0.073733 0.47113 0.080255 0.81394 0.17416 0.79116 0.20258 1.9458 0.57136 0.58194 0.15702 0.38442 0.0762 0.88559 0.14052 0.48946 0.054493 0.46464 0.003606 0.43032-0.076879 0.19866-0.077701 0.28012-0.16699 0.1327-0.1044 0.24016-0.23616 0.11975-0.14626 0.14844-0.2179 0.12947-0.23513 0.38707-0.91937 0.21867-0.42174 0.28615-0.39174 0.48097-0.41295 0.57558-0.30607 0.65951-0.20754 0.35724-0.063533 0.47969-0.040433 0.61304 0.005614 0.6332 0.055036 0.64738 0.094071 0.82143 0.15709 1.6694 0.34991 0.79018 0.13446 0.79111 0.087187 0.78922 0.017258 0.82451-0.076178 0.81771-0.15762 0.80873-0.21908 0.79644-0.26497 0.77937-0.29894 0.75554-0.32395 0.72234-0.34242 0.67644-0.35636 0.6135-0.36743 0.52803-0.37711 0.41312-0.38677 0.26024-0.39781 0.083986-0.42186-0.031261-0.44086-0.066242-0.56763-0.014283-0.78511 0.019092-0.63183 0.066425-0.78681 0.1014-0.62454 0.10769-0.44029 0.12157-0.39519 0.14694-0.408 0.16331-0.39193 0.11903-0.25224 0.20073-0.36668 0.17904-0.27389 0.24603-0.31682 0.32865-0.32376 0.17668-0.13565 0.28597-0.18193 0.35734-0.1778 0.83118-0.35923 0.63239-0.32776 0.67591-0.40461 0.70443-0.46268 0.71535-0.50084 1.3625-1.018 0.97804-0.7908 0.148-0.15951 0.020551 0.036457 0.064447-0.020927 0.15647-0.11984 0.11513-0.1236 0.86605-1.1725 0.32437-0.3824 0.33994-0.36658 0.79122-0.77395 0.71499-0.61905 0.40516-0.31063 0.63026-0.43167 1.6433-0.97684 1.075-0.6657 0.67556-0.36712 0.98099-0.4464 0.33403-0.18961 0.2583-0.18876 0.24525-0.21959 0.26497-0.29465 0.61632-0.79583 0.15522-0.15015 0.047232-0.010615 0.013805-0.043144-0.040062-0.092189-0.19821-0.25708-0.29435-0.29705-0.64758-0.54923-0.17713-0.1733-0.29257-0.33939-0.19605-0.28062-0.13865-0.27911-0.077938-0.27672-0.022517-0.25759 0.00248-0.14574 0.047495-0.36924 0.044443-0.1734 0.13804-0.37484 0.49659-1.0758 0.19432-0.4759 0.40128-1.2463 0.25427-1.1268 0.15342-0.48572 0.16606-0.43146 0.1723-0.31361 0.2181-0.33533 0.58072-0.73602 0.48614-0.70149 0.21375-0.24897 0.46863-0.47845-0.062619-0.063919-0.11672-0.18556-0.28346-0.53738-0.4785-1.0657-0.23621-0.58178-0.35231-0.98503-0.38802-1.174-0.23067-0.76651-0.24767-0.93958-0.1574-0.41845-0.26538-0.58934-0.82601-1.7217-1.4935-2.8062-0.20275-0.46512-0.17877-0.48015-0.1901-0.5837-0.2868-1.0258-0.19558-0.81215-0.15145-0.76386-0.12683-0.94211-0.039623-0.55734-0.008297-0.58108 0.030568-0.57658 0.057299-0.45668 0.090748-0.44949 0.13834-0.46897 0.18292-0.45515 0.20487-0.39737 0.23995-0.38344 0.38731-0.5118 0.43907-0.48951 0.46236-0.45307 0.49533-0.43982 0.52326-0.42901 1.0121-0.7573 1.0655-0.72431 0.55403-0.35206 1.0764-0.64337 1.2831-0.7219 2.1686-1.1745 1.4914-0.78868 1.6506-0.83156 1.7529-0.82329 0.87392-0.38365 1.4837-0.60598 3.2134-1.1992 1.3252-0.51708 0.78506-0.32748 1.0092-0.44629 3.0741-1.4084 1.4637-0.70734 0.67368-0.34919 0.61114-0.34382 0.53907-0.34929 0.34967-0.27702 0.27717-0.2883 0.22818-0.41647 0.034916-0.4386-0.054528-0.30869-0.11963-0.37208-0.1878-0.40535-0.32537-0.51293-0.6343-0.89755-0.36807-0.65976-0.43063-0.90744-0.20735-0.47376-0.10855-0.28927-0.11196-0.37371-0.054989-0.2539-0.041619-0.30757-0.008442-0.52402 0.061327-0.48479 0.084155-0.3416 0.12849-0.36319 0.18878-0.40106 0.25791-0.43236 0.21391-0.30214 0.42468-0.51164 0.62605-0.63916 2.5055-2.3572 0.64041-0.56457 1.9548-1.6049 0.69115-0.6057 1.1708-1.1176 0.63219-0.63727 0.60637-0.64579 0.38109-0.43016 1.0973-1.32 0.35384-0.47767 0.091699-0.16166 0.032952-0.095353-0.01066-0.03665-0.069323-0.10034 0.003141-0.096298 0.051527-0.169 0.097822-0.18863 0.10898-0.16001 0.18858-0.2234 0.23133-0.22433 0.45871-0.3541 0.27925-0.17633 0.53012-0.27997 0.60559-0.25812 0.36265-0.12876 0.75421-0.20964 0.39921-0.080211 0.3673-0.055934 0.51639-0.050926 0.57283-0.024142 0.66597 0.007289 0.64721 0.067981 0.37542 0.08098 0.48617 0.15446 0.53894 0.2366 0.51039 0.29074 0.57074 0.4058 0.40481 0.33951 0.42426 0.3998 1.8553 1.9703 0.23643 0.28567 0.29614 0.42117 0.27132 0.46385 0.33102 0.68594 0.23676 0.58316 0.26413 0.78523 0.22173 0.83436 0.085864 0.48057 0.036631 0.44483-0.030775 0.65039-0.066584 0.64813-0.029219 0.49467-0.057148 1.653-0.035372 0.35056-0.053967 0.33649-0.30594 1.1798-0.055092 0.34476 0.005383 0.31787 0.056277 0.21842 0.042728 0.097357 0.025991 0.048662 0.29552 0.3555 0.42116 0.32177 1.0569 0.65645 0.565 0.39432 0.61811 0.53376 0.61074 0.61064 0.62003 0.66486 0.55574 0.6529 0.54608 0.70036 0.53763 0.74053 0.52942 0.77532 0.52019 0.80609 0.50835 0.83352 0.4919 0.85742 0.46859 0.87639 0.418 0.84389 0.38885 0.83625 0.59172 1.3525" stroke="#bdc660"/>
    </defs>
    <g clip-path="url(#p7d619ffc59)">
     <use y="280.512" fill="#bdc660" stroke="#bdc660" xlink:href="#mcca49b6fc7"/>
    </g>
   </g>
  </g>
 </g>
 <defs>
  <clipPath id="p7d619ffc59">
   <rect x="7.2" y="7.2" width="299.34" height="266.11"/>
  </clipPath>
 </defs>
</svg>
