<?xml version="1.0" encoding="UTF-8"?>
<!DOCTYPE svg  PUBLIC '-//W3C//DTD SVG 1.1//EN'  'http://www.w3.org/Graphics/SVG/1.1/DTD/svg11.dtd'>
<svg width="292.52pt" height="280.51pt" version="1.1" viewBox="0 0 292.52 280.51" xmlns="http://www.w3.org/2000/svg" xmlns:xlink="http://www.w3.org/1999/xlink">
 <metadata>
  <rdf:RDF xmlns:cc="http://creativecommons.org/ns#" xmlns:dc="http://purl.org/dc/elements/1.1/" xmlns:rdf="http://www.w3.org/1999/02/22-rdf-syntax-ns#">
   <cc:Work>
    <dc:type rdf:resource="http://purl.org/dc/dcmitype/StillImage"/>
    <dc:date>2024-07-04T12:11:05.938123</dc:date>
    <dc:format>image/svg+xml</dc:format>
    <dc:creator>
     <cc:Agent>
      <dc:title>Matplotlib v3.7.1, https://matplotlib.org/</dc:title>
     </cc:Agent>
    </dc:creator>
   </cc:Work>
  </rdf:RDF>
 </metadata>
 <defs>
  <style type="text/css">*{stroke-linejoin: round; stroke-linecap: butt}</style>
 </defs>
 <g id="figure_1">
  <g id="patch_1">
   <path d="m0 280.51h292.52v-280.51h-292.52v280.51z" fill="none"/>
  </g>
  <g id="axes_1">
   <g id="PatchCollection_1">
    <defs>
     <path id="m8e5c7e3c25" d="m258.7-258.95 0.95453 0.36323 2.9592 1.2966 0.97454 0.3823 0.57436 0.1535 0.20074 0.005002-0.12612 0.34882-0.5289 1.8384-0.70634 2.7752-0.46856 2.2059-1.0653 5.6418-0.52008 2.5919-0.37423 1.6097-0.22933 0.85263-0.34922 1.1446-0.61299 1.7309-0.86315 2.2064-0.65749 1.7797-0.37053 1.1032-0.32514 0.81383-0.37548 0.80233-1.3818 2.5764-0.2806 0.63267-0.50064 1.3064-0.34229 0.71476-0.73919 1.7278-0.16482 0.65379-0.4444 2.2985-0.25351 1.0164-0.28906 0.99978-0.81321 2.4768-2.1926 6.3057-0.78142 2.0662-0.62858 1.5269-0.6983 1.5079-0.75309 1.4562-0.79459 1.3925-0.54742 0.88222-0.56084 0.83672-0.88559 1.1676-0.61658 0.68551-0.63474 0.5805-0.71506 0.48286-0.59922 0.24905-0.70933 0.10813-0.72555-0.057422-0.72185-0.19681-0.41681-0.17088-0.80134-0.4143-0.91751-0.60098-0.63063-0.48551-1.8947-1.5885-0.27045-0.18313-0.38476-0.18109-0.1316-0.033237-0.34476 0.00655-0.29474 0.15778-0.2006 0.215-0.24271 0.38313-0.22695 0.47501-0.81735 2.2308-0.2142 0.67153-0.17847 0.69632-0.089236 0.48744-0.091786 1.101 0.044045 3.8729-0.046553 1.091-0.049627 0.59094-0.13303 1.0222-0.23628 1.1468-0.3157 1.1136-0.26669 0.77093-0.41035 1.007-0.45691 0.93697-0.96907 1.7108-0.70659 1.3754-0.43519 0.93711-0.27271 0.7166-0.28762 1.1098-0.17673 1.1084-0.16109 1.3774-0.20231 1.215-0.3049 1.29-0.41496 1.3287-0.53599 1.3307-1.8142 3.5548-0.43583 0.96174-0.3696 0.94446-0.31658 1.0546-0.15141 0.95182 0.004802 0.55344 0.092496 0.49488 0.16222 0.31846 0.18966 0.10003 0.03106-0.10382 0.092724-0.10108 0.1931-0.089768 0.43007-0.038297 0.48575 0.051217 0.49319 0.088756 0.53968 0.142 0.44765 0.16282 0.42194 0.18967 0.75043 0.41913 0.53594 0.36527 0.95697 0.77974 1.5609 1.4186 0.47507 0.38114 0.92929 0.64862 3.6681 2.2292 1.2363 0.65817 0.88646 0.41886 0.90576 0.36016 0.93001 0.31292 1.324 0.37797 4.0857 0.93237 1.7502 0.50197 0.639 0.22758 0.90024 0.37776 1.2048 0.56931 1.5047 0.8776 0.77574 0.52636 0.72148 0.59613 0.63488 0.69401 0.55746 0.87819 0.44501 0.99598 0.36835 1.1307 0.29438 1.2051 0.23803 1.26 0.21756 1.4633 0.17872 1.4939 0.57271 6.078 0.22696 1.7173 0.14338 0.78437 0.1777 0.74691 0.24289 0.75332 0.31326 0.68988 0.39779 0.60678 0.64698 0.64709 0.78583 0.53024 0.68145 0.3422 0.73527 0.29393 0.88287 0.28304 0.84219 0.22068 1.9314 0.39039 3.1406 0.47824 1.2849 0.2105 0.89454 0.18 0.8553 0.21875 0.79718 0.27004 0.73134 0.33966 0.81445 0.56976 0.51086 0.56204 0.34241 0.53191 0.39019 0.87059 0.3221 1.1543 0.21161 1.392 0.071077 0.95373 0.027107 0.99288-0.027903 1.4248-0.10873 1.6025-0.14435 1.4066-0.18004 1.4205-0.42 2.7477-0.87039 4.724 0.002356 0.085892 0.034095 0.20174-0.1793 0.82226-0.27748 0.8302-0.38377 0.93581-0.86626 1.7744-1.385 2.5893-0.69388 1.3589-0.68627 1.4677-0.61528 1.4744-0.79488 2.2166-1.3714 4.4813-0.70729 2.144-0.71305 1.9449-0.88066 2.1453-0.84719 1.7714-0.8436 1.5283-0.48146 0.80236-1.5817 2.4875-1.0221 1.7225-0.46489 0.90834-0.47249 1.1202-0.30402 0.99982-0.19949 1.0664-0.086975 0.79334-0.22733 3.011-0.28282 2.2096-0.39497 2.1921-0.49392 2.2869-0.27739 1.1569-0.62353 2.3074-0.40979 1.3028-0.39996 1.1082-0.37726 0.9039-0.426 0.87654-0.3024 0.5354-0.23873 0.35722-0.13284 0.11467-1.2821 2.3577-0.40195 0.6346-0.54873 0.76321-0.6951 0.82509-0.8051 0.84276-1.0651 1.0124-0.77356 0.67151-0.80164 0.6295-0.55933 0.40035-1.0913 0.67612-6.4927 3.3659-1.9146 1.0766-1.4805 0.91866-0.60247 0.43945-1.4598 1.1471-1.4646 1.0665-1.1486 0.88634-0.022631-0.034094 0.068852-0.26142 1.6824-3.9636 0.49993-1.2536 0.42879-1.2019 0.36775-1.3062 0.18425-1.3006-0.046347-0.84165-0.087897-0.38698-0.14817-0.40897-0.36578-0.66478-0.48547-0.62171-0.48371-0.49229-0.54145-0.4698-0.69532-0.52808-0.746-0.51104-1.231-0.77641-1.0353-0.6162-2.1447-1.2195-8.7085-4.7906-8.3944-4.8454-2.2418-1.3326-1.8801-1.1787-1.0423-0.68551-3.065-2.1339-2.6819-1.9833-0.62996-0.41383-0.63439-0.34154-0.63985-0.24411-0.80132-0.16644-0.82564-0.065754-4.324-0.061419-0.93462 0.021573-1.3711 0.1337-1.3893 0.23359-1.3844 0.30103-1.3556 0.34094-3.5477 0.9674-1.3981 0.41818-0.5911 0.13059-0.60539 0.072971-1.2034-0.056205-1.2509-0.24913-2.5776-0.74224-1.2919-0.33617-3.4336-0.59334-0.54542-0.18026-0.49989-0.23816-0.59115-0.39321-1.1576-0.86672-0.49947-0.26445-0.20374-0.080656-0.97153-0.21905-1.0975-0.052073-1.1382 0.073859-1.0711 0.15798-0.86011 0.19534-0.46244 0.18606-0.84714 0.36348-2.2249 1.0513-1.6573 0.7117-1.6938 0.62381-0.96473 0.29445-1.1389 0.27202-1.035 0.1492-0.752 0.024696-0.72975-0.058777-1.5671-0.27309-0.99127-0.13034-0.67934-0.013693-0.65362 0.083629-0.81634 0.28088-1.6235 0.87227-0.88851 0.43236-0.95002 0.33502-1.0215 0.25726-1.2301 0.22633-0.95822 0.13595-1.5491 0.17348-4.6804 0.44364-2.7962 0.34503-1.8802 0.2994-1.3601 0.29579-0.49846 0.13516-0.89849 0.29296-0.45668 0.17897-0.89586 0.42461-0.44295 0.25201-0.8 0.53869-0.797 0.66632-0.48186 0.481-0.39352 0.44583-0.4548 0.58867-0.55733 0.87209-0.43566 0.90095-0.28826 0.91875-0.10682 0.9267 0.013118 0.3353 0.13508 0.82339 0.2782 0.89275 0.31146 0.74333 0.37189 0.74414 0.32327 0.57416 0.54658 0.87932 0.75794 1.1309 0.74296 1.0538 2.4311 3.3082 0.99245 1.4217 0.71469 1.1196 0.79948 1.4397 0.56184 1.3399 0.14737 0.46649 0.21335 0.84039 0.18396 0.99952 0.15829 1.491 0.030173 0.7476-0.008602 0.70646-0.052493 0.49135-0.072298 0.14579-1.4237-0.16885-0.96044-0.17462-0.80014-0.21411-0.6196-0.22363-0.62385-0.26794-2.7693-1.3185-3.9142-1.7026-1.4169-0.67817-0.52306-0.29065-0.52312-0.33779-0.42743-0.3471-0.38763-0.48733-0.11071-0.29087-0.032835-0.16541-0.035867-1.3816-0.066203-0.24558-0.24132-0.37449-0.18428-0.16439-0.3836-0.24077-0.36576-0.16599-0.56874-0.20914-0.49768-0.12046-0.40438-0.029801-0.48423 0.058514-0.48792 0.15505-0.55822 0.28724-1.1292 0.72157-0.6128 0.32898-0.56444 0.21961-0.59561 0.17892-1.7297 0.46103-0.82872 0.25696-0.66056 0.22328-0.65056 0.26899-0.70443 0.39512-0.67496 0.48116-0.4236 0.35428-0.71795 0.74686-0.6501 0.85799-0.25896 0.39862-0.42614 0.76859-0.38838 0.82141-0.60444 1.5055-0.81303 2.305-0.51448 1.3267-0.45932 1.0674-0.87258 1.8188-0.32763 0.59038-0.17598 0.19795-3.959-3.408-2.509-2.0492-1.186-0.8952-1.0836-0.7599-1.8552-1.1573-1.2294-0.67246-0.85172-0.42205-0.91598-0.40406-0.85597-0.31836-0.59738-0.18035-0.76134-0.17108-1.2072-0.14257-1.1411-0.087694-1.0828-0.18327-0.88907-0.32582-0.83971-0.46238-1.1457-0.83524-0.85528-0.75047-0.9135-0.87339-0.71831-0.59249-0.77981-0.52743-1.4433-0.77548-2.4027-1.1867-2.1466-1.2212-0.95735-0.64139-0.93679-0.70392-1.4312-1.1505-0.72297-0.64018-0.60554-0.62063-0.45588-0.53254-0.3939-0.52273-0.44905-0.73103-0.21612-0.53409-0.053761-0.48912 0.05349-0.25443 0.089908-0.19465 0.63694-0.94407 0.34498-0.61168 0.2944-0.69214 0.13838-0.46371 0.27703-1.1908 0.11702-0.72445 0.067358-1.5345 0.06689-0.73316 0.19066-0.68828 0.24858-0.45196 0.63504-0.71885 2.3574-2.0825 0.97201-0.90459 0.54711-0.55062 1.2173-1.342 1.0366-1.2539 1.0651-1.4268 0.50113-0.78026 0.39444-0.75039 0.14159-0.34714 0.18707-0.90877-0.11606-0.88845-0.34093-0.86479-0.46762-0.8332-0.37095-0.56684-0.53552-0.74448-0.52996-0.83202-0.43028-0.88697-0.25839-0.91526-0.026891-0.20967-0.01892-0.42326 0.063508-0.76008 0.1305-0.60833 0.13204-0.38161 0.29686-0.54394 0.23513-0.28791 0.37338-0.3501 0.35267-0.2701 1.5813-1.0078 0.67062-0.46466 0.74978-0.63119 0.44344-0.49724 0.44726-0.73878 0.33753-0.816 0.28158-0.95401 0.077622-0.41843 0.065342-0.59266-0.007455-1.0285-0.11682-1.0825-0.38769-2.2404-0.23866-1.1237-0.2835-1.1095-0.34429-1.0729-0.4501-1.1004-0.9337-1.9299-0.50019-0.82226-0.68816-0.81058-0.8107-0.67315-0.90686-0.5095-0.98311-0.30952-1.2078-0.085134-1.2747 0.099783-1.3334 0.15376-1.6461 0.078516-0.92986-0.060188-0.57869-0.072441-1.4299-0.27738-0.71122-0.18542-0.99927-0.30781-1.1788-0.42566-0.88494-0.35813-3.7409-1.6667-1.2588-0.52712-0.9424-0.35163-1.0239-0.31772-0.78562-0.17919-0.7609-0.099872-0.8688 0.009514-0.80955 0.18331-0.5845 0.28489-0.31923 0.21742-0.43812 0.37218-0.56293 0.60565-0.36407 0.46829-0.45459 0.66803-0.55149 0.93364-0.57199 1.1094-0.53584 1.1605-1.2667 2.9051-0.91086 1.7834-0.61694 1.0261-0.53325 0.78479-0.5379 0.71808-1.2778 1.5244-0.49784 0.51997-0.27767 0.17148-1.2932-0.77414-3.0964-1.7573-0.91356-0.55865-0.80294-0.58623-0.33686-0.31107-0.2717-0.32215-0.15113-0.25207-0.094475-0.26082-0.030922-0.35995 0.045526-0.37298 0.24321-1.1696 0.026609-1.2604-0.04465-2.0373-0.22321-1.3841-0.04959-0.44718 0.011041-0.43495 0.068648-0.33449 0.11074-0.32702 0.45199-1.0491 0.11338-0.37168 0.076132-0.68161 0.045707-1.1522-0.018637-0.4063-0.071949-0.40531-0.16723-0.45587-0.24005-0.43608-0.28408-0.40034-0.2865-0.33403-0.24862-0.24468-0.15476-0.10761 0.018819-0.085642 0.11359-0.16194 0.29875-0.33882 0.43562-0.43768 0.65121-0.59384 0.89356-0.72867 0.45314-0.33641 1.0952-0.73948 1.0352-0.6221 1.0995-0.59537 1.8074-0.88627 3.8754-1.7744 0.88993-0.46471 0.74519-0.47022 0.37313-0.27438 0.54055-0.45059 0.4321-0.40556 2.2053-2.2916 1.3529-1.3072 1.144-1.0121 1.6185-1.3033 1.4681-1.0779 1.4254-0.97241 1.4889-0.95171 6.281-3.8581 1.4769-0.95209 1.6372-1.1247 1.0021-0.73426 1.8195-1.4156 2.8888-2.3318 3.1147-2.6165 0.82881-0.65948 0.84011-0.62461 0.8484-0.57394 0.85488-0.50799 0.85818-0.42512 2.9884-1.1273 1.8529-0.76739 0.57357-0.25676 0.26204-0.16709 0.00328-0.2654-0.2069-0.51752-0.4788-0.86766-1.5488-2.4386-0.78523-1.2941-0.78961-1.5423-0.42084-1.0648-0.29362-1.0977-0.1268-0.6563-0.11905-0.86296-0.12808-1.4939-0.034712-2.5109-0.098788-2.524 0.010816-0.5214 0.087665-0.99719 0.16604-0.99476 0.26534-1.1467 0.91939-3.1794 0.52601-2.0465 0.24382-0.69997 0.42485-0.89633 0.54169-0.76656 0.28098-0.28569 0.58608-0.43776 0.65165-0.32338 0.79386-0.23817 0.76391-0.093253 0.50749 0.008549 0.73434 0.093038 1.6928 0.37292 2.1746 0.42367 0.43753 0.049653 0.63769 0.010824 0.60273-0.059931 0.4275-0.087413 1.9555-0.60967 0.73062-0.16464 0.73574-0.11953 1.238-0.12877 1.0534-0.070527 5.2214-0.17126 1.3953-0.12088 1.4012-0.19832 1.3886-0.28708 1.3545-0.39289 1.2947-0.5218 0.91519-0.48908 0.85814-0.56664 0.79627-0.62848 0.55222-0.48727 0.8366-0.82986 0.64936-0.71045 0.59896-0.74605 0.48399-0.71596 0.37608-0.65125 0.32209-0.6466 0.41504-1.0263 0.23386-0.80068 0.02259-0.3763 0.22409 0.029931 0.53866 0.004151 0.74171-0.041393 1.838-0.1951 1.3456-0.066444 4.4409-0.038068 3.1281-0.098621 1.0482-0.064263 1.623-0.18915 0.94812-0.20389 0.90431-0.28986 0.97614-0.45219 0.86018-0.58868 0.62958-0.62293 0.46261-0.58152 0.78244-1.1745 1.1185-1.8479 0.6743-1.3335 1.1702-2.7641 0.47813-0.86917 0.54121-0.82145 0.62101-0.78127 0.21623-0.23426 0.92766-0.83682 1.0443-0.66572 1.1398-0.53647 1.1832-0.43765 1.1579-0.33815 1.1533-0.19167 1.0271-0.002018 1.01 0.11615 0.58411 0.1013 0.80636 0.17186 1.6356 0.4049 0.82807 0.14892 1.0826 0.081352 1.6644 0.028919 0.74676 0.076209 0.81353 0.12206 1.493 0.35026 0.58362 0.080987 0.52215-0.039307 0.26855-0.09866 0.26248-0.17509 0.37658-0.47466 0.75576-1.4698 0.33368-0.4463 0.22894-0.25063 0.72124-0.59677 0.81688-0.49227 3.7485-1.9882 1.8814-0.96309 0.9532-0.45871 1.1228-0.50157 1.1088-0.43742 1.0821-0.34805 3.2254-0.75966 0.758-0.14024 1.1213-0.090947 1.8926 0.072809 0.4084-0.10231 0.14253-0.10876 0.18614-0.42873 0.034575-0.59101-0.013839-0.44227-0.0567-0.46736-0.14001-0.55577-0.35696-1.1203-0.11499-0.68608 0.044605-0.73826 0.29746-0.8405 0.51541-0.86102 0.68059-0.87564 1.1101-1.1806 1.1141-1.0613 0.73991-0.64729 1.0477-0.81386 0.92068-0.60758 0.94512-0.50187 0.96617-0.36082 0.63063-0.1436 1.0153-0.11954 0.95867-0.018184 2.3643 0.1038 0.713 0.0633 2.3798 0.34521 1.1646 0.091463 0.65629-0.018333 1.6368-0.16215 0.68272-0.10807 0.67414-0.16166 0.70129-0.25293 0.68416-0.32841 0.5604-0.32017 3.7885-2.4155 1.0078-0.60273 2.3907-1.3497 1.1843-0.72314 0.95968-0.66268 0.92942-0.71348 0.89863-0.75689 1.2802-1.2122 1.0542-1.1123 0.8048-0.90064 1.6038-1.8831 1.5927-1.9598 0.9346-1.1991 0.9066-1.2168 0.86625-1.2396 0.81019-1.2691 0.72133-1.266 0.66624-1.2886 0.67624-1.4143 0.59125-1.327 0.54107-1.3218 0.47645-1.3114 0.39303-1.2949 0.28582-1.2709 0.3334-2.38 0.27987-1.4316 0.35658-1.2925 0.17683-0.52387 0.2916-0.73325 0.36774-0.78925 0.29421-0.55714 0.71108-1.108 0.61913-0.72713 0.69804-0.60275 0.67052-0.40598 0.92023-0.40901 0.96683-0.33956 1.2034-0.34314 0.81716-0.14441 1.1557-0.10084 1.5843-0.013652 3.8813 0.157 1.9497 0.0404 1.3749-0.047265 0.8551-0.086471 0.51622-0.08223 0.88616-0.20788 1.2053-0.4 0.85192-0.35066 1.6916-0.84411 0.47001-0.20937 0.31774-0.10961 0.45604-0.10722 0.41148-0.042827 0.35579 0.008388 0.31713 0.045357 0.4775 0.12834 0.52138 0.20751 1.324 0.60392 0.48094 0.16389 0.52056 0.1245 0.62441 0.094275 0.6342 0.04852 2.2471 0.061336 1.3897 0.12566 1.4496 0.26698 1.3079 0.39056" stroke="#bdc660"/>
    </defs>
    <g clip-path="url(#p0bd4572fe6)">
     <use y="280.512" fill="#bdc660" stroke="#bdc660" xlink:href="#m8e5c7e3c25"/>
    </g>
   </g>
  </g>
 </g>
 <defs>
  <clipPath id="p0bd4572fe6">
   <rect x="7.2" y="7.2" width="278.12" height="266.11"/>
  </clipPath>
 </defs>
</svg>
