<?xml version="1.0" encoding="UTF-8"?>
<!DOCTYPE svg  PUBLIC '-//W3C//DTD SVG 1.1//EN'  'http://www.w3.org/Graphics/SVG/1.1/DTD/svg11.dtd'>
<svg width="250.74pt" height="280.51pt" version="1.1" viewBox="0 0 250.74 280.51" xmlns="http://www.w3.org/2000/svg" xmlns:xlink="http://www.w3.org/1999/xlink">
 <metadata>
  <rdf:RDF xmlns:cc="http://creativecommons.org/ns#" xmlns:dc="http://purl.org/dc/elements/1.1/" xmlns:rdf="http://www.w3.org/1999/02/22-rdf-syntax-ns#">
   <cc:Work>
    <dc:type rdf:resource="http://purl.org/dc/dcmitype/StillImage"/>
    <dc:date>2024-07-04T12:11:03.703576</dc:date>
    <dc:format>image/svg+xml</dc:format>
    <dc:creator>
     <cc:Agent>
      <dc:title>Matplotlib v3.7.1, https://matplotlib.org/</dc:title>
     </cc:Agent>
    </dc:creator>
   </cc:Work>
  </rdf:RDF>
 </metadata>
 <defs>
  <style type="text/css">*{stroke-linejoin: round; stroke-linecap: butt}</style>
 </defs>
 <g id="figure_1">
  <g id="patch_1">
   <path d="m0 280.51h250.74v-280.51h-250.74v280.51z" fill="none"/>
  </g>
  <g id="axes_1">
   <g id="PatchCollection_1">
    <defs>
     <path id="m3ff0ab074f" d="m220.24-231.11 0.47492 1.1572 0.42272 1.3273 0.54105 2.5338 0.44674 2.5397 0.49587 3.3553 0.23925 1.8935 0.3425 3.5037 0.10714 1.7499 0.044214 1.3706 0.003968 1.3611-0.11274 3.8827-0.004792 1.2015 0.061061 1.1793 0.10977 0.87851 0.27634 1.3765 0.45656 1.558 0.40656 1.0766 1.0802 2.4793 0.28834 0.80558-0.11072 0.19636-0.26324 0.26216-0.56668 0.46635-0.85867 0.60852-1.1758 0.72378-1.4596 0.83463-0.85609 0.5701-0.52064 0.44784-0.4315 0.50767-0.48971 0.97537-0.27637 0.93253-0.71846 3.2132-0.86771 3.4711-0.28784 1.4267-0.3418 2.1021-0.15212 0.72836-0.28046 0.76446-0.34234 0.52845-0.25649 0.269-0.73656 0.53941-0.58269 0.31774-1.3346 0.59063-0.77478 0.29514-0.79647 0.25146-2.2077 0.61886-1.088 0.34946-1.2403 0.49734-1.8245 0.8421-1.2359 0.71085-2.3801 1.7714-1.1802 0.73075-3.8173 2.0188-1.6394 0.94587-1.2197 0.60166-2.2466 0.91034-2.094 0.72738-1.883 0.60397-1.6453 0.4294-3.1316 0.67717-1.3032 0.35688-1.2464 0.45049-1.1517 0.57843-0.83868 0.57572-0.7876 0.69535-0.52712 0.58098-0.31897 0.42092-0.49914 0.85833-0.20176 0.58956 0.040698 0.36427-0.21522 0.34943-0.14543 0.84539-0.053231 1.4908 0.050504 0.94205 0.11749 0.99632 0.44508 2.0053 0.26866 0.81795 0.37006 0.94362 0.33217 0.73943 0.61564 1.2005 0.49531 0.8518 1.2324 1.8388 1.4498 1.8665 3.0538 3.5647 0.90438 1.1771 0.48541 0.69972 0.75173 1.2449 0.49972 1.0413 0.4704 1.4903 0.13078 0.98387-0.008761 0.79792-0.12018 0.90215-0.24072 1.0067-1.3598 4.0472-1.2533 3.3007-0.39864 1.2084-0.18852 0.80829-0.083756 0.77315 0.12757 1.0524 0.12615 0.33578 0.50901 0.80922 0.6741 0.69394 1.1187 0.85086 0.70076 0.44428 2.0204 1.1098 4.0643 2.0558 1.6345 0.94062 0.71096 0.46174 1.0808 0.80522 1.6094 1.3817 0.84751 0.57276 0.79996 0.43396 0.99488 0.44567 1.056 0.36494 0.40128 0.10793 1.4964 0.27273 1.2578 0.061621 3.2077 0.049739 2.7872 0.18148 3.2825 0.31396 3.4854 0.41822 1.8675 0.2854 1.7333 0.36061 1.6519 0.5048 1.1633 0.49397 0.79839 0.39316 1.2002 0.65747 1.3238 0.82305 0.93482 0.65768 0.77654 0.6059 1.2893 1.1522 0.98587 1.054 0.53299 0.68201 0.44977 0.69414 0.26452 0.50706 0.22828 0.57066 0.13898 0.50975 0.067136 0.42935 0.019429 0.43255-0.22375 1.296-0.32312 0.84023-1.2736 2.463-0.76051 1.5484-1.9124 3.5291-0.74983 1.2552-0.87768 1.1708-1.3843 1.5483-4.5478 4.4975-1.9067 2.0239-2.3742 2.6836-2.3939 2.8268-0.86129 1.0896-0.80666 1.0945-0.73176 1.0781-0.97855 1.5228-0.86322 1.4635-1.2613 2.3734-0.38554 0.61993-0.77586 0.97763-0.93148 0.94049-1.0448 0.9106-1.1205 0.88596-6.2475 4.8325-0.76112 0.55505-2.3908 1.6144-1.8856 1.4299-0.7383 0.62531-1.2506 1.1551-0.8451 0.87389-0.37407 0.44625-0.3954 0.56025-0.39392 0.79043-0.081934 0.24719-0.13526 0.73289-0.009787 0.41544 0.041699 0.45234 0.19954 0.78566 0.42297 0.89026 0.47572 0.66627 0.34048 0.35875 0.65097 0.38127-0.73537 0.45614-0.83404 0.45913-1.9894 1.0278-6.0227 2.8517-0.65536 0.35921-2.8161 1.7103-1.6262 0.94842-3.2483 1.798-3.1661 1.6765-3.0051 1.8026-1.5719 0.89534-2.3091 1.1785-1.152 0.52893-1.5555 0.64238-1.2865 0.44466-1.9092 0.55791-1.2109 0.47641-0.77542 0.26128-0.83633 0.16676-0.66219 0.044478-0.81108-0.05018-0.83312-0.15601-0.82987-0.27078-0.4981-0.22887-0.91259-0.52638-2.3657-1.6273-1.0499-0.67177-1.4909-0.81401-1.5076-0.77132-1.4227-0.632-2.584-1.077-1.2535-0.42026-2.4541-0.75422-0.81924-0.30824-1.2208-0.57446-1.1189-0.62955-1.0978-0.74633-0.98958-0.8366-0.60644-0.61028-0.84941-0.97527-0.59902-0.77172-2.2932-3.2821-1.4727-1.8322-0.78052-1.0901-0.70684-1.1559-0.60924-1.1979-0.482-1.218-0.31828-1.2171-0.11797-0.96905-0.019808-0.79813 0.070453-2.2178-0.099631-1.0647-0.19601-1.0294-0.39668-1.5958-0.11574-0.62733-0.03754-0.60101 0.052405-0.73996 0.2928-1.7046 0.088956-0.722 0.012929-0.75103-0.16851-1.1317-0.3659-1.1753-0.52717-1.1882-0.5893-1.0622-0.66626-1.0344-0.58502-0.81841-0.60455-0.77946-1.4427-1.7161-0.57789-0.7678-0.36493-0.61573-0.24994-0.5961-0.10636-0.44967-0.020428-0.39293 0.020057-0.19252 0.10597-0.3703 0.13889-0.2613 0.36553-0.42005 0.42721-0.40075 0.45273-0.55659 0.31197-0.70185 0.063965-0.49027-0.038223-0.51855-0.13475-0.5411-0.3848-0.95827-0.55438-0.96551-0.71041-0.87916-0.61625-0.52542-1.0331-0.54626-1.2585-0.41419-1.4295-0.31391-1.5577-0.23909-1.6526-0.18461-3.4928-0.26752-4.767-0.25889-22.691-1.0752-8.725-0.45665-7.0278-0.43167-15.495-1.0372-16.975-0.99106 0.19262-0.058768 0.35292-0.31124 0.61427-0.69248 0.74526-0.98604 1.2066-1.8155 0.56663-0.95227 1.4028-2.5406 0.70296-1.1576 0.77243-0.98825 0.4519-0.43394 0.66602-0.49003 0.5741-0.32928 0.74714-0.35457 5.0414-2.0318 1.6867-0.75506 0.7543-0.40325 0.77808-0.48894 2.1955-1.5649 1.0472-0.66401 0.85299-0.50519 2.6617-1.4517 1.0239-0.62079 0.94447-0.6932 0.82981-0.80001 0.68037-0.90101 0.49732-0.99592 0.18056-0.57898 0.12083-0.61003 0.066927-0.74501-0.013019-0.79638-0.09152-0.82397-0.15703-0.81787-0.31519-1.175-0.33852-1.0575-0.51407-1.4089-0.48004-1.1524-0.6574-1.4249-1.0896-2.1189-2.0633-3.6733-0.46093-0.89244-0.83048-1.7859-0.60775-1.6013-0.3741-1.4113-0.1627-1.33 0.067332-1.3429 0.28018-1.2956 0.28174-0.80786 0.34795-0.76388 0.64218-1.071 1.1611-1.491 0.88581-1.2079 0.65389-1.0366 0.14801-0.44799-0.57688-0.12622-0.70279-0.32109-0.82132-0.47224-0.85783-0.59509-1.1575-1.0261-0.93151-1.2042-0.17718-0.32019-0.27835-0.65962-0.28311-1.3356-0.061473-1.415 0.028541-2.9644-0.16332-1.5151-0.45122-1.6134-0.69892-1.6134-0.88343-1.6072-1.0188-1.5966-1.1176-1.5828-1.1904-1.566-1.2454-1.5459-1.2892-1.5217-1.327-1.4924-1.3628-1.4563-1.3998-1.4115-4.0487-3.7978-1.2918-1.2738-1.2112-1.3163-1.0926-1.3848-0.98924-1.5518-0.85006-1.6258-0.74338-1.6694-0.66019-1.6856-0.5925-1.6759-0.29677-0.91489-0.42695-1.6153-0.31817-1.647-0.215-1.6548-0.10957-1.6381 0.00605-1.5949 0.13114-1.4349 0.28572-1.3163 0.85583-2.7515 0.30411-1.2211 0.13459-0.81758 0.062439-0.93415-0.064372-0.92223-0.14425-0.67122-0.15952-0.49495-0.27743-0.65617-0.30142-0.57639-0.32552-0.53916-0.8211-1.1809-0.89074-1.1917-0.99642-1.4206-0.85082-1.5201-0.47392-1.2038-0.32863-1.2313-0.21714-1.495-0.036154-1.3425 0.11162-1.0282 0.24991-0.49835 0.008644-0.56618 0.28261-1.0225 0.52142-1.1971 0.75208-1.1581 0.9909-0.95497 1.2033-0.63114 1.3899-0.35911 1.0459-0.123 1.0931-0.04441 1.6998 0.032188 3.215 0.19236 3.1653 0.31738 1.9331 0.2925 2.0857 0.45304 1.084 0.31443 1.1229 0.40582 1.3066 0.59606 2.4959 1.2414 0.73115 0.30153 0.85602 0.28177 1.446 0.35212 3.6503 0.65885 1.9788 0.2908 0.9486 0.038285 0.80509-0.12293 0.60483-0.31192 0.41731-0.46932 0.22229-0.57062 0.24384-1.4423 0.23195-0.97217 0.33635-1.0584 0.34821-0.92055 0.40216-0.93239 0.96702-2.0655 1.4745-3.3388 0.42302-0.8579 0.95968-1.7373 0.5292-0.8701 2.3738-3.6818 0.71372-1.2765 0.59936-1.3259 0.43482-1.3132 0.22167-0.85648 0.87572-3.8946 0.42428-1.5795 0.4123-1.3804 0.34544-1.0164 0.2125-0.40821 0.8967 0.77899 1.1934 0.94695 1.4307 1.0073 0.76762 0.47121 1.1517 0.57795 0.6578 0.22724 0.60292 0.1028 0.40193-0.019664 0.35327-0.11265 0.40093-0.31597 0.32141-0.45607 0.27223-0.54354 0.50159-1.1718 0.3599-0.6847 0.31546-0.41094 0.216-0.18821 0.49424-0.23358 0.55605-0.067316 0.57622 0.09117 0.55705 0.25528 0.51201 0.42877 0.46846 0.56287 0.43854 0.65646 1.6845 3.0059 0.46241 0.73806 0.50842 0.68985 0.5754 0.61482 0.5771 0.45983 0.63469 0.38878 0.68058 0.3261 0.71747 0.26746 0.74759 0.20854 0.7728 0.14485 0.79455 0.071663 0.88797-0.014207 0.90828-0.094598 0.92639-0.15641 0.94225-0.20372 1.918-0.50564 1.9117-0.57718 2.9987-0.96983 0.19717-0.038501-0.13829 0.41886 0.32269 0.40105 0.82255 0.35303 1.201 0.24052 1.4673 0.15034 1.2973 0.073871 4.1138 0.12661 3.1176 0.15945 2.1219 0.2187 1.6732 0.28046 1.1069 0.25977 0.87066 0.25783 1.0499 0.38256 0.66417 0.28496 1.0864 0.54688 1.5965 1.0022 1.6301 1.2206 3.9502 3.2814 1.1959 0.9076 1.1902 0.76096 1.2724 0.57863 1.1305 0.26878 1.1435 0.10436 1.1466 0.013152 1.537-0.066846 0.82016-0.11992 1.008-0.2852 1.3341-0.68316 1.3067-0.94567 4.0652-3.5128 0.91957-0.72516 1.727-1.2577 3.4765-2.3866 1.9285-1.4166 2.0303-1.5977 4.174-3.3746 2.3748-1.7682 4.756-3.4 3.1861-2.365 1.9462-1.5287 3.3017-2.7264 0.97754-0.75035 0.66253-0.45733 1.0419-0.58613 0.96064-0.35282 0.86293-0.14703 0.64437-0.021678 0.58068 0.033898 0.75058 0.10882 0.83868 0.19678 0.84085 0.26601 1.3184 0.53472 1.2937 0.64644 0.69679 0.39028 1.6266 0.99674 2.3562 1.5724 2.2059 1.55 5.3848 3.9296 2.7163 2.1012 4.8771 3.9711 1.7253 1.3543 1.0255 0.75203 3.9187 2.7264 2.0784 1.633 0.89892 0.7794 0.80125 0.75572 0.90924 0.95563 1.0379 1.2627 0.68314 0.97761 0.57087 0.95122 0.44406 0.8255 0.40343 0.83788" stroke="#bdc660"/>
    </defs>
    <g clip-path="url(#pe07fec22b9)">
     <use y="280.512" fill="#bdc660" stroke="#bdc660" xlink:href="#m3ff0ab074f"/>
    </g>
   </g>
  </g>
 </g>
 <defs>
  <clipPath id="pe07fec22b9">
   <rect x="7.2" y="7.2" width="236.34" height="266.11"/>
  </clipPath>
 </defs>
</svg>
