<?xml version="1.0" encoding="UTF-8"?>
<!DOCTYPE svg  PUBLIC '-//W3C//DTD SVG 1.1//EN'  'http://www.w3.org/Graphics/SVG/1.1/DTD/svg11.dtd'>
<svg width="199.98pt" height="280.51pt" version="1.1" viewBox="0 0 199.98 280.51" xmlns="http://www.w3.org/2000/svg" xmlns:xlink="http://www.w3.org/1999/xlink">
 <metadata>
  <rdf:RDF xmlns:cc="http://creativecommons.org/ns#" xmlns:dc="http://purl.org/dc/elements/1.1/" xmlns:rdf="http://www.w3.org/1999/02/22-rdf-syntax-ns#">
   <cc:Work>
    <dc:type rdf:resource="http://purl.org/dc/dcmitype/StillImage"/>
    <dc:date>2024-07-04T12:11:09.956583</dc:date>
    <dc:format>image/svg+xml</dc:format>
    <dc:creator>
     <cc:Agent>
      <dc:title>Matplotlib v3.7.1, https://matplotlib.org/</dc:title>
     </cc:Agent>
    </dc:creator>
   </cc:Work>
  </rdf:RDF>
 </metadata>
 <defs>
  <style type="text/css">*{stroke-linejoin: round; stroke-linecap: butt}</style>
 </defs>
 <g id="figure_1">
  <g id="patch_1">
   <path d="m0 280.51h199.98v-280.51h-199.98v280.51z" fill="none"/>
  </g>
  <g id="axes_1">
   <g id="PatchCollection_1">
    <defs>
     <path id="m72301f9c70" d="m110.13-245.71 0.093717 0.004672 0.31384-0.045404 0.15062-0.047803 0.24066-0.10932 0.14138-0.078344 0.66802-0.41879 0.23287-0.13713 0.38122-0.20123 0.27963-0.13642 0.356-0.1588 0.68529-0.28769 1.0167-0.37254 0.31301-0.12274 0.53183-0.22576 0.39071-0.18258 0.17516-0.089832 0.34674-0.20002 1.3792-0.86546 0.32154-0.18689 0.43645-0.23057 0.29287-0.13395 0.2876-0.10966 0.10576-0.033475 0.3543-0.075215 0.21521-0.014195 0.20953 0.013728 0.24461 0.057023 0.22946 0.096858 0.10829 0.061885 0.059841 0.039177 0.24202 0.19538 0.069085 0.065768 0.50008 0.54397 0.18094 0.16762 0.10492 0.083624 0.11861 0.079639 0.18939 0.09695 0.2534 0.086937 0.28928 0.058784 0.32991 0.031371 0.20926 0.00476 0.21744-0.007456 0.22863-0.023907 0.18182-0.034016 0.18958-0.052907 0.19249-0.074766 0.25057-0.13088 0.28986-0.19179 0.27779-0.21425 0.98374-0.85242 0.40902-0.31516 0.32902-0.21421 0.36279-0.18476 0.34604-0.11239 0.289-0.040354 0.29696-0.001606 0.42557 0.044653 1.0457 0.1893 1.0401 0.14916 0.28106 0.052741 0.20946 0.049053 0.22597 0.065134 0.228 0.082143 0.17723 0.078292 0.30703 0.17337 0.37604 0.29687 0.32959 0.34649 0.28009 0.3654 0.21789 0.34057 0.12456 0.23083 0.044409 0.12171 0.31662 0.053698 0.71806 0.10206 0.68381 0.077945 0.66468 0.055444 0.60014 0.027145 0.30051 0.003193 0.55984-0.016946 0.3262-0.026263 0.34216-0.047588 0.27141-0.059313 0.51672-0.15852 0.34086-0.12408 1.0528-0.43013 0.72861-0.27922 0.39528-0.14165 0.33172-0.10243 0.30003-0.074102 0.3055-0.051147 0.28791-0.019281 0.30727 0.018199 0.37339 0.085719 0.36322 0.14379 0.3678 0.19728 0.43594 0.29391 0.30618 0.2498 0.79909 0.76673 0.41158 0.35958 0.46032 0.35795 0.21715 0.15154 0.38502 0.24548 0.39356 0.22548 0.34992 0.18172 0.93165 0.44282 0.49266 0.1974 1.3724 0.48002 0.52794 0.218 0.50987 0.24721 0.24168 0.13659 0.24702 0.1566 0.98672 0.72144 0.34824 0.2154 0.182 0.092558 0.25287 0.10114 0.19213 0.058468 0.38207 0.079523 0.27025 0.032682 0.28222 0.020728 1.0712 0.052019 0.51563 0.03348 0.59287 0.05552 0.47882 0.066538 0.38132 0.075922 0.26135 0.077075 0.18378 0.079041 0.18828 0.11816 0.095475 0.093019 0.035278 0.050312 0.035372 0.080403 0.011176 0.064613-0.005472 0.086415-0.017434 0.067633-0.036195 0.089564-0.077916 0.13962-0.11812 0.16222-0.1438 0.16742-0.89813 0.95777-0.48652 0.57219-0.31449 0.42146-0.13005 0.20059-0.17664 0.31923-0.12467 0.27563-0.14228 0.4121-0.13194 0.52494-0.074549 0.38606-0.16556 0.9661-0.10486 0.47965-0.1399 0.51031-0.30704 0.98094-0.064932 0.26494-0.031693 0.18026-0.022288 0.24858 0.007877 0.30032 0.040762 0.27862 0.030813 0.12241 0.05954 0.17824 0.089158 0.19857 0.08853 0.15664 0.11071 0.16773 0.38282 0.53126 0.14197 0.22631 0.14047 0.25558 0.13272 0.2844 0.07964 0.20275 0.073445 0.23038 0.069821 0.29201 0.03362 0.207 0.022844 0.27443 0.002548 0.24335-0.011527 0.25905-0.041886 0.43516-0.14866 1.1257-0.025623 0.2926-0.008899 0.25926 0.010489 0.26545 0.02783 0.21848 0.027578 0.13393 0.091728 0.28958 0.073716 0.16754 0.1179 0.21636 0.094335 0.14756 0.23776 0.32014 0.38234 0.44366 0.31825 0.32257 0.1413 0.12912 0.16555 0.14069 0.30978 0.23563 0.88544 0.59158 0.37175 0.23026 0.19295 0.1086 0.36998 0.18166 0.48213 0.19038 0.35568 0.11175 0.39234 0.10121 0.93126 0.20852 0.49824 0.14198 0.98094 0.30802 0.26705 0.069943 0.4768 0.09314 0.43202 0.045565 0.36271 0.008679 0.28876-0.007513 1.0342-0.068576 0.34582-0.014505 0.36937 0.00512 0.39497 0.049355 0.34221 0.10827 0.18413 0.098305 0.27674 0.21229 0.21161 0.2212 0.15015 0.19259 0.18551 0.28585 0.12874 0.23433 0.098396 0.20187 0.11659 0.26838 0.10725 0.27818 0.10612 0.30922 0.086998 0.28136 0.16478 0.60526 0.14495 0.61638 0.12947 0.62095 0.18452 0.98578 0.1153 0.69124 0.12385 0.83345 0.053411 0.41825 0.071912 0.75457 0.054322 1.2143 0.006366 0.34923-0.005668 0.35829-0.019725 0.42026-0.031745 0.42738-0.051931 0.52221-0.065336 0.52663-0.078518 0.52836-0.092725 0.5269-0.10937 0.52362-0.092255 0.3778-0.10496 0.37351-0.55277 1.6414-0.21505 0.58714-0.13767 0.34682-0.31512 0.74891-0.21668 0.4851-0.60342 1.2988-0.33036 0.76826-0.12853 0.33932-0.11311 0.34117-0.12599 0.49511-0.043489 0.26026-0.026889 0.27089-0.006522 0.48703 0.035057 0.49168 0.044723 0.35906 0.12139 0.72252 0.31814 1.5708 0.16786 0.90848 0.063957 0.45401 0.04148 0.44005 0.014453 0.43929-0.019223 0.44371-0.062828 0.50791-0.097893 0.5048-0.13023 0.52048-0.1528 0.51693-0.12276 0.37359-0.27191 0.73864-0.15228 0.37016-0.16309 0.3647-0.17587 0.35775-0.1291 0.2402-0.13688 0.23559-0.20336 0.31918-0.21152 0.30599-0.90092 1.2344-0.291 0.43637-0.24059 0.39665-0.22057 0.40532-0.22479 0.47965-0.15622 0.40376-0.12492 0.37706-0.23114 0.75855-0.19071 0.56144-0.17767 0.42052-0.21579 0.40638-0.12019 0.19131-0.21117 0.29684-0.2301 0.2866-0.25664 0.29131-0.64668 0.66804-0.68222 0.67248-0.54121 0.55268-0.43698 0.48778-0.18749 0.23015-0.18359 0.24501-0.29665 0.45109-0.15271 0.26632-0.1371 0.26715-0.1289 0.28779-0.10635 0.28469-0.066685 0.22468-0.047531 0.21993-0.02582 0.21928 0.001228 0.21132 0.048559 0.25658 0.088684 0.20466 0.14582 0.21806 0.18377 0.20897 0.19602 0.19015 0.21375 0.19065 1.0754 0.94094 1.2184 1.1365 0.31314 0.27462 0.41918 0.32347 0.27053 0.18159 1.0431 0.65175 0.46754 0.3252 0.24176 0.18236 0.23479 0.18925 0.36739 0.32876 0.25606 0.26127 0.18502 0.20686 0.34904 0.43001 0.19007 0.25611 0.32772 0.47774 0.20788 0.33544 0.77196 1.3775 0.33495 0.65031 0.23098 0.49458 0.37463 0.84771 0.17418 0.44546 0.087101 0.2809 0.15981 0.77532 0.058789 0.22751 0.10395 0.23751 0.10282 0.14266 0.12775 0.1217 0.205 0.13061 0.26429 0.1226 0.31421 0.12533 0.73193 0.25484 0.26356 0.11471 0.063324 0.03618 0.017909 0.018653 0.001991 0.013996 0.056109 0.10404 0.1173 0.14124 0.20332 0.19674 0.46055 0.3479 0.59784 0.42032 0.27374 0.16911 0.28487 0.1494 0.4334 0.18796 0.7888 0.28986 0.37128 0.17137 0.37203 0.20136 0.37192 0.22421 0.66043 0.44004 0.31719 0.22659 0.62824 0.47173 0.69786 0.55622 0.7363 0.62481 0.75923 0.68844 0.38674 0.37688 0.28598 0.29788 0.2717 0.30602 0.25447 0.31726 0.23255 0.32914 0.17712 0.28959 0.1571 0.29883 0.13314 0.29928 0.11559 0.30538 0.14586 0.45941 0.22753 0.81467 0.10535 0.34635 0.12002 0.33422 0.20042 0.42506 0.23443 0.35207 0.22129 0.25086 0.18749 0.18001 0.67588 0.57632 0.30209 0.28487 0.15726 0.17615 0.14196 0.18844 0.19506 0.34253 0.096791 0.23748 0.076306 0.24909 0.078174 0.37397 0.047505 0.3896 0.022102 0.37989 0.004772 0.38799-0.007485 0.36051-0.042317 0.72991-0.048017 0.50973-0.061842 0.50748-0.071725 0.47578-0.086124 0.46642-0.078178 0.34958-0.091611 0.33856-0.10881 0.3243-0.13586 0.31736-0.1644 0.29272-0.19929 0.26193-0.16302 0.16192-0.30502 0.23425-0.33988 0.20296-0.22393 0.11212-0.45921 0.19402-0.37861 0.13543-0.47105 0.1463-0.48082 0.1286-0.37936 0.088876-0.72898 0.14494-0.34694 0.058248-0.64451 0.089517-0.53709 0.0525-0.30733 0.01905-1.1264 0.023976-0.31304 0.011637-0.38911 0.032048-0.36686 0.061511-0.33798 0.10343-0.13145 0.058884-0.18938 0.10724-0.12703 0.088576-0.13176 0.10793-0.13806 0.13156-0.41336 0.45762-0.558 0.56303-0.28954 0.33248-0.25312 0.34426-0.16372 0.26165-0.6955 1.3306-0.059972 0.10098-0.12488 0.17805-0.10628 0.12586-0.15106 0.14817-0.11509 0.093155-0.12995 0.089088-0.19367 0.10903-0.20632 0.093346-0.32294 0.11023-0.20622 0.049425-0.3166 0.042935-0.23192 0.005927-0.44484-0.029452-1.5349-0.16494-0.21211-0.014251-0.34932 2.05e-4 -0.13447 0.012688-0.20436 0.040258-0.23514 0.087273-0.21372 0.11399-0.14915 0.093403-0.16421 0.12131-0.10631 0.0945-0.13919 0.15778-0.052626 0.082538-0.053984 0.1101-0.054419 0.15743-0.054605 0.26319-0.037867 0.40518 0.005074 0.17828 0.033916 0.20978 0.02851 0.11774 0.10694 0.35854 0.096482 0.25233 0.12164 0.25333 0.26093 0.48674 0.45588 0.80474 0.038545 0.095175 0.011348 0.072905-0.011376 0.027124-0.030718 0.014587-0.038033-2.66e-4 -0.12126-0.03599-0.18099-0.086838-0.28031-0.16381-0.30551-0.20901-1.2181-0.96211-1.039-0.77782-0.3173-0.24795-0.30034-0.25643-0.28017-0.26785-0.5227-0.5546-0.66564-0.73413-0.21426-0.20464-0.14813-0.1196-0.19068-0.12792-0.18197-0.10207-0.21602-0.10371-0.60371-0.26222-0.34561-0.16057-0.20746-0.1115-0.18534-0.12592-0.11574-0.1183-0.04223-0.068146-0.034607-0.085733-0.01965-0.11341-0.018676-0.31421-0.03246-0.11566-0.033166-0.057332-0.090326-0.096124-0.12357-0.094729-0.069159-0.038263-0.086375-0.031448-0.13545-0.021507-0.15811 5.25e-4 -0.30031 0.042694-0.70332 0.13923-0.17232 0.025687-0.18139 0.015488-0.15438-0.001504-0.13715-0.022616-0.052505-0.017976-0.14064-0.090636-0.11622-0.13658-0.040969-0.060225-0.38071-0.61253-0.14897-0.26245-0.064527-0.13811-0.094658-0.24993-0.15828-0.57062-0.090928-0.26261-0.11913-0.25407-0.14912-0.23125-0.10155-0.11729-0.11879-0.10431-0.18395-0.11566-0.16685-0.078441-0.44301-0.16058-0.28763-0.077643-0.22715-0.03831-0.30857-0.003375-0.13176 0.02012-0.15606 0.04325-0.1536 0.061265-0.19294 0.098412-0.23072 0.1402-0.24859 0.16774-0.89394 0.65842-0.45724 0.30958-0.26152 0.1567-0.24039 0.129-0.28213 0.12487-0.13086 0.043503-0.22656 0.04234-0.18862-0.009098-0.17203-0.043121-0.38007-0.14831-0.25518-0.061338-0.20248-0.022406-0.71095-0.049345-0.18886-0.006452-0.25615 0.007403-0.15351 0.016593-0.3191 0.064014-0.27735 0.088094-0.15474 0.062305-0.25038 0.12104-0.33812 0.20702-0.2462 0.18999-0.26349 0.27598-0.10161 0.14677-0.10367 0.19366-0.072559 0.18336-0.066237 0.25259-0.028665 0.2051-0.008383 0.19477 0.007133 0.18217 0.023309 0.20528 0.033596 0.19192 0.19271 0.80354 0.21459 0.94726 0.099801 0.35912 0.091297 0.27372 0.10642 0.27843 0.17103 0.40375 0.028896 0.1136-0.005211 0.016806-0.02783-0.003681 0.015109 0.037705-0.005147 0.029067-0.036226 0.056957-0.081366 0.073494-0.22852 0.1401-0.21568 0.09526-0.17971 0.060289-0.26091 0.067475-0.299 0.059138-0.61095 0.096449-0.6063 0.11612-0.27255 0.069396-0.30367 0.10292-0.28114 0.1227-0.29871 0.16215-0.19579 0.12954-0.16511 0.12216-0.21164 0.18521-0.13378 0.15452-0.05305 0.079908-0.093824 0.19092-0.067864 0.23266-0.025483 0.20974-0.019596 0.45788 0.003171 0.38143 0.029335 0.31425 0.019307 0.11726 0.11994 0.49967 0.045352 0.25153 0.011159 0.15451-0.007831 0.26732-0.032618 0.251-0.061934 0.26752-0.077855 0.20429-0.39312 0.79475-0.24955 0.59569-0.13557 0.27407-0.28876 0.5044-0.46888 0.64512-0.10593 0.16357-0.23721 0.44806-0.10881 0.18648-0.13006 0.19322-0.24588 0.29669-0.74836 0.78339-0.13512 0.16273-0.13464 0.19604-0.12854 0.25952-0.076984 0.26399-0.03602 0.2484-0.011652 0.25352 0.01917 0.7428-0.002977 0.17611-0.023486 0.28509-0.075827 0.53678-0.050651 0.6509-0.031926 0.17988-0.088976 0.29564-0.10986 0.26915-0.070957 0.12456-0.032392 0.016232-0.049658 0.13015-0.003406 0.12629 0.014321 0.14886 0.054038 0.25823 0.076188 0.24076 0.15372 0.36167 0.1533 0.29499 0.21276 0.35395 0.20704 0.29976 0.41066 0.55625 0.28571 0.43226 0.13426 0.22526 0.21079 0.39505 0.1681 0.38762 0.10263 0.32873 0.038026 0.1788 0.026927 0.21221 0.007085 0.19481-0.007823 0.19244-0.020865 0.18265-0.029428 0.16268-0.087291 0.3138-0.13079 0.3135-0.16414 0.29766-0.20892 0.31164-0.13872 0.18114-0.14847 0.17457-0.79983 0.84308-0.3773 0.43962-0.40169 0.52353-0.33549 0.46887-0.20888 0.31384-0.53785 0.85296-0.32549 0.46564-0.22564 0.28182-0.23523 0.26476-0.19478 0.19536-0.18037 0.15908-0.123 0.093334-0.1344 0.08529-0.19993 0.096062-0.16369 0.055338-0.29793 0.057618-1.042 0.076284-0.41618 0.050613-0.20323 0.040802-0.37395 0.099636-0.38531 0.12171-0.74681 0.28813-0.32436 0.11506-0.20096 0.057344-0.16191 0.035681-0.22181 0.032186-0.2724 0.019658-0.34975 0.005033-0.30368-0.013258-0.21985-0.02472-0.23216-0.042873-0.31398-0.089512-0.87822-0.30864-0.30389-0.050264-0.2165 0.009274-0.22124 0.045013-0.3321 0.12459-0.33352 0.17901-1.1959 0.78231-0.38794 0.24227-0.47248 0.2759-0.50594 0.26938-0.25845 0.12758-0.61026 0.27512-0.61355 0.24202-0.34019 0.10963-0.33635 0.089261-0.36413 0.078692-0.48309 0.082522-0.40388 0.051673-0.4432 0.034256-0.60016 0.020107-0.24142 0.027579-0.25726 0.050976-0.26755 0.078546-0.22167 0.086387-0.22466 0.10413-0.34254 0.18187-1.015 0.58871-0.86872 0.47232-0.69395 0.34444-0.57832 0.27123-0.39298 0.20327-0.1983 0.11909-0.32464 0.23206-0.5309 0.42549-0.63564 0.47703-0.22305 0.14769-0.10022 0.056595-0.089347 0.043175-0.13445 0.048718-0.20369 0.027664-0.12882-0.0119-0.27446-0.054493-0.093443-0.009547-0.12195-0.001758-0.18602 0.020268-0.23446 0.069942-0.10846 0.052578-0.1684 0.10478-0.11926 0.087597-0.96742 0.80904-0.34857 0.25924-0.53942 0.33479-0.2748 0.19038-0.1596 0.13498-0.22041 0.22365-0.20311 0.24807-0.20424 0.298-0.16265 0.29646-0.067538 0.15786-0.063438 0.18142-0.21182 0.748-0.29438 0.90187-0.18239 0.63818-0.16947 0.52358-0.14863 0.40471-0.26911 0.68644-0.35253 0.83369-0.26522 0.58248-0.23582 0.48604-0.1431 0.27287-0.15621 0.27159-0.18579 0.28203-0.2167 0.28183-0.13955 0.16102-0.24174 0.2504-0.22622 0.20943-0.15734 0.1323-0.29759 0.22028-0.14669 0.094623-0.23924 0.13538-0.19534 0.09336-0.22712 0.090736-0.28153 0.090897-0.27805 0.068648-0.21639 0.040808-0.4611 0.05771-0.43294 0.026474-1.3758 0.026723-0.35051 0.025203-0.37893 0.050118-0.25712 0.049018-0.37062 0.092315-0.28452 0.088122-0.44058 0.16795-0.53935 0.2477-0.53877 0.28272-0.28945 0.17743-0.18623 0.12982-0.10968 0.084301-0.21573 0.18864-0.25143 0.27224-0.1946 0.26355-0.12612 0.19904-0.11679 0.20785-0.12127 0.26102-0.057876 0.16256-0.032941 0.1226-0.024363 0.15191-7.91e-4 0.091407 0.010027 0.05291 0.01365 0.024352 0.020493 0.017828 0.0876 0.035694 0.078531 0.072704 0.091465 0.10705 0.13173 0.18734 0.12853 0.22228 0.10894 0.23216 0.083586 0.22921 0.065434 0.26356 0.025459 0.17983 0.009962 0.28542-0.044494 0.37732-0.058631 0.22144-0.12661 0.3067-0.13735 0.22992-0.11831 0.15493-0.28255 0.28682-0.21665 0.17357-0.24644 0.1686-0.8596 0.49523-0.24599 0.16016-0.21549 0.16797-0.18331 0.17447-0.21382 0.26291-0.18176 0.32336-0.072343 0.18845-0.056917 0.22244-0.028265 0.22761-0.003068 0.13619 0.012913 0.18069 0.052822 0.24775 0.067178 0.17782 0.093711 0.17076 0.12037 0.15749 0.060236 0.063245 0.16349 0.14043 0.12189 0.086724 0.23296 0.14307 1.0223 0.54095 0.37851 0.23084 0.32215 0.21512 0.40337 0.28791 0.51967 0.40141 0.34063 0.30088 0.30771 0.32794 0.2581 0.32816 0.41025 0.58781 0.3311 0.50036 0.20943 0.33458 0.16915 0.29138 0.28749 0.56024 0.38156 0.85562 0.23158 0.49344 0.14936 0.28599 0.18793 0.32435 0.14423 0.22526 0.19716 0.28069 0.13964 0.184 0.47655 0.58589 0.12041 0.16465 0.08728 0.14329 0.067776 0.15101 0.040523 0.15869 0.011317 0.13773-0.007076 0.12823-0.058344 0.29736-0.15025 0.57283-0.062886 0.34394-0.038688 0.41592-0.036566 0.65877-0.088002 1.0094-0.013698 0.6238 0.022506 1.0396-0.001908 0.33135-0.02934 0.46267-0.09626 0.93141-0.010242 0.32287 0.009706 0.25373 0.057669 0.36129 0.041693 0.1528 0.050962 0.15457 0.12281 0.31203 0.11413 0.25168 0.2469 0.48985 0.48558 0.87007 0.12573 0.24136 0.070777 0.15356 0.082214 0.20974 0.046398 0.14757 0.037215 0.15333 0.031838 0.20255 0.012659 0.28759-0.01032 0.18162-0.033919 0.26034-0.099098 0.54014-0.023459 0.17174-0.009916 0.15764 0.008113 0.16742 0.018637 0.1079 0.028898 0.10676 0.056143 0.14906 0.097332 0.19473 0.11278 0.18567 0.25814 0.3888 0.12037 0.20687 0.063369 0.14665 0.031339 0.13553 0.002176 0.087534-0.009826 0.07574-0.041444 0.12841-0.037357 0.070752-0.060237 0.081145-0.061844 0.055146-0.068581 0.033575-0.035187 0.065779-0.096771 0.083187-0.15285 0.10442-0.2878 0.16019-0.246 0.11302-0.23417 0.092836-0.22942 0.078244-0.32724 0.089916-0.44937 0.083416-0.48685 0.041509-0.31112-2.26e-4 -0.41125-0.035671-0.71322-0.12401-0.28086-0.034863-0.19168-0.005192-0.16808 0.006415-1.1573 0.078562-1.458 0.14466-0.9091 0.050391-0.3712 0.042509-0.37083 0.097522-0.30096 0.11427-0.22347 0.10552-0.13055 0.071985-0.26678 0.16803-0.11009 0.079302-0.1694 0.13968-0.10612 0.10083-0.18369 0.20523-0.10579 0.14108-0.094571 0.14633-0.16028 0.30702-0.50788 1.2342-0.14911 0.3195-0.14297 0.26112-0.13998 0.20424-0.09065 0.10602-0.15944 0.1391-0.18227 0.097908-0.20006 0.057031-0.1556 0.016507-0.23312-0.01621-0.13054-0.030927-0.13398-0.04857-0.11276-0.054284-0.27601-0.17984-0.27823-0.23738-0.31327-0.31321-0.5848-0.60852-0.21614-0.20072-0.13514-0.113-0.17583-0.13122-0.21043-0.13621-0.2438-0.13069-0.26059-0.10402-0.19778-0.05085-0.19961-0.022837-0.075975-3.94e-4 -0.28594 0.051273-0.16377 0.082424-0.083375 0.061068-0.079853 0.07274-0.10285 0.11899-0.11479 0.17523-0.1029 0.20807-0.078707 0.20882-0.063318 0.2247-0.038526 0.19073-0.024984 0.19504-0.010526 0.21646 0.008272 0.24398 0.1129 0.8863 0.00194 0.15236-0.013393 0.13761-0.049654 0.18569-0.046338 0.10246-0.08196 0.13088-0.1892 0.21095-0.24488 0.20376-0.50764 0.37749-0.16254 0.14422-0.15778 0.18115-0.073447 0.11633-0.056737 0.12165-0.072858 0.29565-0.005014 0.28468 0.047015 0.2977 0.078666 0.27037 0.11646 0.28792 0.11391 0.2286 0.12925 0.22755 0.21816 0.34203 0.61098 0.8591 0.19729 0.29641 0.14496 0.2571 0.1599 0.36692 0.070924 0.20332 0.084673 0.30589 0.033632 0.1757 0.021974 0.21921-0.013023 0.31183-0.040844 0.23231-0.063931 0.23111-0.087865 0.23746-0.10694 0.23382-0.16392 0.29529-0.10971 0.1679-0.1496 0.19968-0.25925 0.28136-0.1872 0.16469-0.20119 0.15079-0.30545 0.18925-0.37814 0.18554-0.25211 0.10267-0.25604 0.090847-0.28093 0.086353-0.91251 0.28132-0.21143 0.18922-0.10013 0.26711 3.3e-5 0.30049 0.12246 0.38951 0.20037 0.44515 0.31166 0.43401 0.47861 0.50076 0.25601 0.32272 0.23374 0.24482 0.22092 0.16425 0.18737 0.097034 0.3102 0.10784 0.35191 0.011361 0.21693-0.044335 0.22201-0.073108 0.31023-0.12831 0.74178-0.34146 0.24426-0.10352 0.39063-0.13428 0.38671-0.064034 0.25444 0.016232 0.24538 0.060265 0.12706 0.047804 0.16248 0.078783 0.15349 0.093226 0.1207 0.088645 0.1135 0.099763 0.14126 0.15999 0.13029 0.21074 0.081999 0.18125 0.10034 0.28927 0.14918 0.56106 0.13003 0.55947 0.090633 0.45454 0.11147 0.70983 0.055628 0.60742 0.00946 0.33652-0.012739 0.32788-0.045129 0.33284-0.061918 0.24595-0.10466 0.2973-0.11197 0.26044-0.31338 0.63277-0.36108 0.65908-0.21938 0.35786-0.18366 0.25404-0.20631 0.24463-0.31622 0.32217-0.2818 0.24659-0.3577 0.26686-0.25431 0.16339-0.25696 0.14867-0.96949 0.49458-0.52491 0.27988-0.2236 0.13249-0.2273 0.15268-0.26922 0.22122-0.14164 0.14493-0.14807 0.18467-0.18612 0.30132-0.18424 0.39484-0.37765 1.0205-0.07417 0.16788-0.035527 0.061262-0.03178 0.033941-0.019873 4.81e-4 -0.013412 0.013755-0.049795 0.013147-0.17705 0.00789-0.14775-0.005223-0.29533-0.031884-0.20796-0.039099-0.23303-0.060686-0.1871-0.062152-0.22175-0.089674-0.24339-0.11826-0.37999-0.22361-0.30657-0.2112-0.23972-0.1796-0.91442-0.71975-0.45607-0.34306-0.4894-0.32733-0.34211-0.20387-0.31496-0.17183-0.48914-0.24292-0.33723-0.14893-0.2756-0.10797-0.26042-0.089868-0.46997-0.12841-1.121-0.24899-0.43074-0.11788-0.23319-0.08425-0.22172-0.11044-0.13013-0.094611-0.096114-0.099238-0.12398-0.20423-0.079252-0.24173-0.019524-0.10181-0.021862-0.24323 0.004124-0.23564 0.023647-0.26213 0.080486-0.52206 0.058126-0.29549 0.094519-0.40467 0.15818-0.54636 0.11064-0.3232 0.12165-0.31648 0.14251-0.3288 0.15695-0.3137 0.55005-0.94717 0.24941-0.41545 0.14433-0.21554 0.12596-0.17155 0.22594-0.27774 0.22957-0.25586 0.78828-0.80534 0.26084-0.29221 0.10639-0.15188 0.065257-0.13032 0.029041-0.095371 0.012079-0.1102-0.013804-0.12745-0.025863-0.090276-0.044977-0.10374-0.098124-0.15542-0.13902-0.1661-0.13297-0.13815-0.48185-0.4573-0.2762-0.2746-0.25479-0.27551-0.1696-0.19872-0.31024-0.39837-0.22704-0.32092-0.1479-0.23888-0.087262-0.17346-0.042838-0.10727-0.044212-0.14869-0.026777-0.13922-0.017633-0.21596 0.010622-0.25975 0.033663-0.2452 0.10619-0.48109 0.2802-1.0053 0.14428-0.57865 0.053653-0.31352 0.02182-0.25473-0.004813-0.24947-0.059818-0.3357-0.12267-0.31596-0.13456-0.22344-0.11488-0.15165-0.18039-0.2008-0.32888-0.30227-0.33483-0.26341-0.32472-0.23331-0.97226-0.65217-0.59673-0.38237-0.83168-0.51673-0.64156-0.3811-0.43624-0.2444-0.49359-0.25079-0.33279-0.14654-0.33611-0.1243-0.34024-0.096594-0.16079-0.034148-0.26776-0.041627-0.27262-0.023087-0.29792-0.00451-0.24929 0.010028-0.90712 0.073928-0.28892 0.015165-0.41181 0.005322-0.42853-0.019686-0.51848-0.062905-0.44904-0.087704-1.5541-0.39418-0.22118-0.050745-0.34162-0.063572-0.14556-0.018825-0.28869-0.019837-0.19886 0.001722-0.22694 0.019944-0.17966 0.031151-0.25238 0.069212-0.23032 0.092545-0.19353 0.10434-0.16698 0.11661-0.14898 0.1353-0.14914 0.18567-0.098511 0.17523-0.062781 0.1475-0.10226 0.3362-0.041699 0.19372-0.053314 0.38466-0.018538 0.48518 0.023701 0.59438 0.1141 1.2046 0.051375 0.69862 0.004175 0.57537-0.017932 0.32472-0.026645 0.26155-0.066477 0.41222-0.074527 0.33917-0.12872 0.48506-0.096686 0.30533-0.093385 0.25043-0.093877 0.20857-0.075456 0.13827-0.10763 0.15724-0.058576 0.068205-0.071268 0.069097-0.1429 0.10551-0.1143 0.064361-0.1688 0.076202-0.29653 0.10084-0.88815 0.23648-0.40189 0.1422-0.16953 0.072328-0.43829 0.2174-1.1176 0.65818-0.29871 0.16182-0.31093 0.15158-0.22763 0.098034-0.42337 0.1489-0.34022 0.084466-0.19057 0.030345-0.39502 0.029148-0.24935-1.4e-5 -0.4477-0.032778-0.25643-0.034833-0.29179-0.051509-0.34645-0.077204-0.24255-0.064225-0.50067-0.16082-0.39436-0.15141-0.96336-0.39834-1.3396-0.57396-1.6301-0.64466-0.65816-0.28742-0.39449-0.18429-0.78472-0.38998-0.70166-0.38042-0.52739-0.3127-0.46379-0.30123-0.40777-0.28654-0.48888-0.36584-0.39086-0.32022-0.24068-0.21965-0.2333-0.23544-0.22372-0.25454-0.20846-0.27338-0.12142-0.18266-0.092876-0.1569-0.15497-0.30984-0.10552-0.26121-0.071808-0.2139-0.083261-0.30536-0.099287-0.48174-0.077656-0.48879-0.067394-0.54063-0.10596-1.0173-0.077655-0.60251-0.1311-0.77598-0.10261-0.49065-0.14738-0.60183-0.23912-0.846-0.50444-1.5833-0.34453-1.1567-0.22752-0.88002-0.11835-0.54788 0.069534-0.01464 0.032505-0.082814-0.004739-0.1661-0.043521-0.21953-0.073559-0.26102-0.25678-0.73744-0.64014-1.6795-0.13874-0.39587-0.12464-0.39072-0.11481-0.4204-0.083861-0.41102-0.034716-0.27788-0.010418-0.17993 0.005778-0.2645 0.064506-0.41465 0.12579-0.37621 0.18211-0.34343 0.24016-0.34321 0.36552-0.44216 1.1889-1.3192 0.36949-0.44496 0.17678-0.23094 0.20154-0.28138 0.29894-0.45689 0.29379-0.48247 0.28221-0.50628 0.16096-0.3439 0.070181-0.17994 0.1129-0.37652 0.064544-0.30012 0.070911-0.46197 0.048751-0.53462 0.006848-0.24119-0.007856-0.24056-0.028462-0.22586-0.034324-0.1454-0.085676-0.22399-0.13898-0.23928-0.12579-0.16312-0.1426-0.15122-0.19681-0.17062-0.16942-0.12226-0.27585-0.1689-0.66932-0.35926-0.31803-0.15306-0.13219-0.050076-0.12633-0.03449-0.15868-0.020503-0.29392 0.025818-0.18082 0.045182-0.24354 0.084549-0.28607 0.12572-0.27586 0.14311-0.2844 0.16716-0.38891 0.25905-0.51826 0.37546-0.29727 0.182-0.20522 0.095631-0.26282 0.1025-0.3572 0.12349-0.41952 0.12555-0.21057 0.048983-0.26332 0.039099-0.2051 0.001219-0.16864-0.033076-0.16652-0.070296-0.10854-0.064861-0.10696-0.080578-0.07376-0.073258-0.068445-0.093464-0.056023-0.1134-0.041237-0.12237-0.032423-0.13903-0.028071-0.19404-0.010541-0.33897 0.02089-0.30091 0.063942-0.44433 0.30641-1.5408 0.10027-0.64238 0.03171-0.29903 0.018994-0.33152-8.86e-4 -0.30324-0.01204-0.20561-0.028885-0.25805-0.074389-0.40185-0.11228-0.42874-0.28408-0.97746-0.085024-0.35195-0.099964-0.52582-0.052457-0.36036-0.040288-0.34408-0.057742-0.7446-0.071326-1.7461-0.032394-0.35431-0.08164-0.52981-0.073192-0.32961-0.10355-0.38133-0.35774-1.0807-0.093339-0.30991-0.10102-0.40464-0.081556-0.41867-0.050458-0.33887-0.065249-0.68128-0.059322-1.164-0.10594-1.4796-0.016725-0.3634-0.003919-0.30066 0.008063-0.29953 0.018017-0.24968 0.086264-0.63122 0.050276-0.266 0.057091-0.24442 0.092786-0.32714 0.13357-0.39646 0.2287-0.61424 0.42094-1.0712 0.12653-0.29595 0.17034-0.4627 0.49334-1.5467 0.073299-0.36206 0.046336-0.41664 0.060237-0.37277 0.086856-0.38439 0.24493-0.96286 0.031873-0.15132 0.021976-0.2451-0.040198-0.53707-0.030449-0.24223-0.08473-0.46787-0.12369-0.47868-0.49509-1.5874-0.22173-0.83043-0.13229-0.6056-0.50515-2.4968 5.28e-4 -0.093498-0.040194-0.53651-0.1866-1.9343-0.039407-0.6645-0.029937-1.9704 0.008384-0.93262 0.021248-0.60668 0.045391-0.66167 0.10192-1.1044 0.12014-1.5157 0.064732-0.65387 0.064373-0.52777 0.09255-0.63994 0.25919-1.5257 0.043884-0.31818 0.034434-0.3419 0.029191-0.52832 0.037206-1.4639 0.035329-0.80352 0.086731-1.1963 0.21438-2.0689 0.032736-0.66539-0.003561-0.37944-0.023142-0.35135-0.024563-0.20064-0.078021-0.40216-0.17874-0.62445-0.24545-0.72031-0.15557-0.58027-0.25634-1.1236-0.37674-1.8927-0.14603-0.68839-0.13411-0.507-0.071693-0.21292-0.16359-0.38894-0.14967-0.28464-0.18875-0.30075-0.17065-0.23205-0.22678-0.26348-0.22444-0.22034-0.2892-0.23821-0.30045-0.20676-0.34106-0.2001-0.29191-0.14782-0.51238-0.21929-0.55895-0.2019-1.134-0.37422-0.38035-0.13518-0.39113-0.15006-0.98668-0.40179-2.5949-0.9657-0.7091-0.27634-0.5299-0.23821-0.32296-0.17594-0.31239-0.20688-0.19714-0.15852-0.16222-0.15499-0.18013-0.20933-0.17234-0.23878-0.15155-0.23569-0.28224-0.47745-0.26906-0.48814-0.27964-0.55817-0.16488-0.37335-0.15158-0.40058-0.10452-0.34134-0.079086-0.34717-0.038261-0.25348-0.018849-0.23225 0.004794-0.39608 0.032152-0.35411 0.061262-0.47925 0.47849-0.057746 0.86056-0.075341 0.95124-0.062452 0.46148-0.015227 0.73708 0.015013 1.0922 0.068009 0.57651 0.025856 0.37099 0.002946 0.33324-0.012206 0.32993-0.028793 0.33939-0.058168 0.16006-0.043627 0.20277-0.077539 0.1708-0.091249 0.12654-0.087535 0.11961-0.10057 0.14878-0.15159 0.17607-0.2178 0.31012-0.46219 0.16754-0.29229 0.079239-0.16453 0.064477-0.16623 0.050067-0.19879 0.014034-0.14503-0.00325-0.14623-0.029148-0.20103-0.05483-0.19699-0.074945-0.18149-0.094404-0.16982-0.079055-0.11235-0.088154-0.10163-0.11664-0.10278-0.13216-0.078597-0.18847-0.059308-0.12424-0.018745-0.2741-0.009712-0.78845 0.044191-0.11442-0.006872-0.049658-0.012797-0.018451-0.017733 0.012138-0.025143 0.13408-0.15748 0.19962-0.21082 1.5058-1.4762 0.98468-1.0109 0.22001-0.20235 0.25205-0.20881 0.26267-0.18571 0.23169-0.13556 0.23054-0.11212 0.21739-0.088726 0.26234-0.088216 0.2218-0.059301 0.38935-0.069222 1.0047-0.10143 0.30059-0.037854 0.34824-0.05884 0.48928-0.11 1.118-0.30055 0.55401-0.18144 0.42358-0.1758 0.28546-0.15912 0.14702-0.1102 0.076261-0.068638 0.1123-0.12221 0.064323-0.087329 0.0949-0.17954 0.045304-0.1384 0.028616-0.13525 0.031096-0.32335 0.004643-0.30938-0.012132-0.27296-0.10801-1.2042-0.048422-0.79428-0.022521-0.18758-0.038109-0.2138 0.25977-0.10736 0.5093-0.19059 0.63275-0.21918 0.48019-0.1524 0.69006-0.19526 0.39348-0.10202 1.3625-0.32499 0.63888-0.12299 0.71266-0.095466 0.58931-0.050548 0.82313-0.036928 0.64811-0.010832 1.2458-0.002863 1.8015 0.008395 0.89645 0.017029 0.55118 0.026773 0.4423 0.038319 1.0145 0.14124 0.34169 0.039832 0.28229 0.015281 0.48757-0.015465 0.28139 0.009456 0.30336 0.029308 0.2893 0.040187 0.3022 0.05108 0.61005 0.12292 0.98045 0.22915 1.4062 0.36066 0.056956 0.031511 0.12436-0.018987 0.31427-0.1351 0.3894-0.23608 0.42249-0.30572 0.42784-0.35234 0.41398-0.38348 0.38568-0.40508 1.06-1.2716 0.30515-0.34654 0.33099-0.33857 0.86083-0.82184 0.24987-0.26706 0.11933-0.1428 0.1303-0.17063 0.18703-0.27455 0.2194-0.36978 0.31794-0.62012 0.17757-0.39551 0.082486-0.21357 0.1048-0.35774 0.049038-0.31249 0.066164-0.99622 0.051611-0.32901 0.096302-0.31358 0.079139-0.16577 0.090014-0.15161 0.13244-0.1894 0.28579-0.35103 0.39093-0.43981 1.0108-1.1009 1.1449-1.2955 0.15979-0.1699 0.33428-0.32889 0.8753-0.77688 0.54214-0.50711 1.9445-1.9245 0.36052-0.32517 0.20645-0.17184 0.27928-0.21286 0.28212-0.19417 0.222-0.13883 0.33577-0.18794 0.24174-0.12056 0.33764-0.15021 0.23264-0.091509 0.30224-0.098743 0.08352-0.01746 0.022571 0.003053 0.05463 0.028156 0.19004 0.15518 0.6035 0.54388 0.17851 0.14519 0.14 0.098535 0.20472 0.11566 0.21149 0.07614 0.30505 0.026367 0.2638-0.040059 0.20303-0.060894 0.15938-0.063224 0.19185-0.093979 0.18768-0.11306 0.21123-0.15782 0.21055-0.19955 0.19247-0.2378 0.064793-0.098288 0.18265-0.34724 0.12873-0.3414 0.077398-0.28655 0.03645-0.18069 0.05664-0.4203 0.062578-0.57157 0.067538-0.32948 0.11826-0.30607 0.12847-0.20319 0.15982-0.18766 0.17414-0.16584 0.19102-0.1557 1.5727-1.1399 0.37758-0.25585 0.21264-0.13114 0.46693-0.26056 0.70846-0.35797 1.1547-0.55011 0.75602-0.40109 0.92531-0.52125 0.60386-0.30777 0.26753-0.11678 0.42788-0.15737 0.93448-0.27619 0.61096-0.2027 0.32315-0.12567 0.35386-0.15642 0.26579-0.1333 0.25801-0.1471 0.26897-0.17721 0.25906-0.19383 0.23228-0.19196 0.22563-0.20189 0.25837-0.24848 0.25107-0.25721 1.112-1.2261 0.3168-0.32195 0.23433-0.21178 0.28732-0.22451 0.33425-0.22453 0.50506-0.29784 0.61141-0.32468 0.29341-0.1748 0.17448-0.13102 0.19281-0.19045 0.34241-0.41526 0.19862-0.21478 0.92477-0.87955 0.16466-0.1422 0.16765-0.12324 0.22264-0.1191 0.2907-0.06391 0.28355 0.031109 0.24659 0.11006 0.19621 0.13384 0.24349 0.21936 0.24826 0.26508 0.092504 0.086846 0.09377 0.063598 0.087293 0.030583 0.043645 0.004418 0.10342-0.015698 0.11595-0.059555 0.087773-0.075127 0.071777-0.077549 0.48951-0.61811 0.20547-0.21939 0.29649-0.28595 0.19846-0.17632 0.2161-0.17488 0.10358-0.070759 0.063317-0.023438 0.024703-0.41474-0.001751-0.45207-0.033826-0.49711-0.074094-0.51698-0.14116-0.62066-0.12061-0.43294-0.11061-0.35797-0.41143-1.2023-0.11123-0.35504-0.097702-0.34932-0.18-0.76482-0.11435-0.43495-0.05073-0.15985-0.14604-0.39018-0.17822-0.33957-0.19174-0.24393-0.071945-0.073434-0.13638-0.1173-0.14278-0.098986-0.17165-0.091271-0.1629-0.056731-0.14339-0.032061-0.21503-0.020428-0.67077 0.012638-0.25384-0.002011-0.26656-0.019968-0.26879-0.044274-0.20804-0.052117-0.28475-0.094594-0.27699-0.11416-0.32874-0.15873-0.40618-0.22929-0.53991-0.34579-0.97722-0.66965-0.36334-0.22315-0.2116-0.11498-0.2151-0.10438-0.53473-0.22114-1.128-0.41566-0.89229-0.34724-0.58774-0.26022-0.42031-0.21889-0.25265-0.15977-0.2491-0.21205-0.099693-0.12583-0.080335-0.16651-0.044496-0.23342-0.011746-0.28869-0.004327-0.27248 0.0414-0.87492-0.004493-0.37777-0.016931-0.26827-0.05123-0.46509-0.19873-1.3953-0.17764-0.99188-0.023354-0.23314-0.001682-0.10689 0.011516-0.15118 0.027246-0.14061 0.043543-0.14517 0.14367-0.30741 0.32139-0.50947 0.57388-0.83066 0.21211-0.35298 0.1017-0.19798 0.10206-0.23022 0.091011-0.24441 0.079985-0.26066 0.049549-0.19572 0.057397-0.28828 0.031727-0.24124 0.011412-0.21532-0.015658-0.24902-0.047218-0.2337-0.26035-0.80831-0.08471-0.37164-0.060008-0.4251-0.13752-1.144-0.12612-1.2298-0.059512-0.72052-0.085154-1.6575-0.10882-2.7403-0.067707-2.3302-0.022888-0.38882-0.041068-0.47079-0.062568-0.49716-0.081329-0.48752-0.14164-0.67661-0.096793-0.38047-0.15879-0.53305-0.32712-0.94252-0.5839-1.5669-0.27725-0.8067-0.20282-0.64122-0.1993-0.71846-0.11914-0.4993-0.10755-0.5027-0.16457-0.8849-0.12886-0.82088-0.090073-0.66396-0.084659-0.7516-0.061664-0.68512-0.040632-0.60597-0.07044-2.15-0.032053-0.56871-0.027432-0.31212-0.044943-0.35526-0.042327-0.24479-0.069723-0.306-0.084557-0.2879-0.12399-0.3357-0.16856-0.36432-0.18903-0.3272-0.20545-0.27918-0.23697-0.2415-0.29857-0.21377-0.40687-0.21575-1.049-0.48291-0.35422-0.18524-0.25188-0.14592-0.24578-0.15613-0.23585-0.16541-0.22606-0.17624-0.27432-0.24402-0.32854-0.35036-0.17854-0.22509-0.16151-0.23234-0.19155-0.32838-0.17884-0.41266-0.080109-0.28935-0.043974-0.32514-0.00104-0.24886 0.024878-0.24279 0.054658-0.31775 0.12774-0.64289 0.070129-0.2927 0.092828-0.32718 0.15614-0.44352 0.17045-0.38798 0.09716-0.19595 0.21148-0.38542 0.19889-0.32612 0.3256-0.48008 0.33281-0.43396 0.16908-0.20021 0.28714-0.31145 0.29592-0.28617 0.26159-0.22551 0.28093-0.21651 0.51321-0.3529 0.6365-0.40446 0.43464-0.28769 1.6521-1.167 0.90438-0.69133 0.27688-0.19218 0.28824-0.17599 0.29991-0.15623 0.18703-0.083615 0.56898-0.21331 0.6404-0.20446 1.3225-0.38599 1.597-0.41059 1.3947-0.28166 1.0244-0.23394 0.4565-0.11612 0.45714-0.1385 0.55628-0.19552 2.2931-0.85875 2.1898-0.86651 1.7132-0.61024 0.48715-0.19652 0.18177-0.087587 0.043693-0.027383 0.010346-0.015496 0.38107-0.060485 0.60977-0.066402 0.63939-0.037533 0.41688-0.003798 0.50489 0.019445 0.41716 0.038 0.62227 0.087289 0.32026 0.06022 0.23418 0.054818 0.29226 0.087697 0.22524 0.086052 0.22583 0.10867 0.311 0.20087 0.15322 0.12279 0.22787 0.21548 0.21937 0.23847 0.22688 0.26862 0.74924 0.92735 0.14063 0.18362 0.17428 0.26524 0.063117 0.12323 0.052371 0.13132 0.059505 0.25463 0.076115 0.51065 0.10217 0.30139 0.15875 0.29567 0.15431 0.21646 0.40381 0.51276 0.19377 0.29159 0.39269 0.68018 0.65042 1.1825 0.40123 0.68671 0.32788 0.53564 0.62618 0.95149 0.20558 0.36025 0.23714 0.47811 0.23378 0.52364 0.20998 0.54535 0.1077 0.35028 0.076339 0.35841 0.029327 0.2152 0.02509 0.33884 0.012674 0.40553 0.018401 0.2721 0.045185 0.26764 0.079227 0.24739 0.11149 0.23899 0.097537 0.1678 0.18093 0.26501 0.20299 0.24712 0.22201 0.21919 0.23908 0.17942 0.21494 0.11066 0.16032 0.052324 0.15991 0.027838" stroke="#bdc660"/>
    </defs>
    <g clip-path="url(#p8a8f1fba67)">
     <use y="280.512" fill="#bdc660" stroke="#bdc660" xlink:href="#m72301f9c70"/>
    </g>
   </g>
  </g>
 </g>
 <defs>
  <clipPath id="p8a8f1fba67">
   <rect x="7.2" y="7.2" width="185.58" height="266.11"/>
  </clipPath>
 </defs>
</svg>
