<?xml version="1.0" encoding="UTF-8"?>
<!DOCTYPE svg  PUBLIC '-//W3C//DTD SVG 1.1//EN'  'http://www.w3.org/Graphics/SVG/1.1/DTD/svg11.dtd'>
<svg width="209.07pt" height="280.51pt" version="1.1" viewBox="0 0 209.07 280.51" xmlns="http://www.w3.org/2000/svg" xmlns:xlink="http://www.w3.org/1999/xlink">
 <metadata>
  <rdf:RDF xmlns:cc="http://creativecommons.org/ns#" xmlns:dc="http://purl.org/dc/elements/1.1/" xmlns:rdf="http://www.w3.org/1999/02/22-rdf-syntax-ns#">
   <cc:Work>
    <dc:type rdf:resource="http://purl.org/dc/dcmitype/StillImage"/>
    <dc:date>2024-07-04T12:11:06.221421</dc:date>
    <dc:format>image/svg+xml</dc:format>
    <dc:creator>
     <cc:Agent>
      <dc:title>Matplotlib v3.7.1, https://matplotlib.org/</dc:title>
     </cc:Agent>
    </dc:creator>
   </cc:Work>
  </rdf:RDF>
 </metadata>
 <defs>
  <style type="text/css">*{stroke-linejoin: round; stroke-linecap: butt}</style>
 </defs>
 <g id="figure_1">
  <g id="patch_1">
   <path d="m0 280.51h209.07v-280.51h-209.07v280.51z" fill="none"/>
  </g>
  <g id="axes_1">
   <g id="PatchCollection_1">
    <defs>
     <path id="mbe15c8a328" d="m158.03-251.14 1.8901 2.2925 0.89244 1.1392 0.50096 0.76773 0.42244 0.76129 0.29454 0.60131 0.256 0.58978 0.91021 2.357 1.4939 3.5171 0.47302 1.2062 0.4182 1.2212 0.33236 1.2366 0.13358 0.68567 0.14992 1.0773 0.237 2.2617 0.11863 0.91201 0.20073 1.0285 0.22914 0.80794 0.3301 0.84464 0.2826 0.53668 0.17681 0.2787 0.40492 0.50787 0.38825 0.34602 0.28884 0.18744 0.47774 0.22826 0.35768 0.13009 0.66891 0.19403 3.9615 0.89406 1.5533 0.27015 0.50586 0.060817 0.98891 0.070141 0.92574-0.005319 0.86558-0.080184 0.86229-0.15987 0.50912-0.12943 1.1017-0.34736 0.90606-0.33384 1.1009-0.46452 0.70364-0.35329 0.57536-0.34292 0.43291-0.3048 0.30724-0.24953 0.36671-0.34528 0.34827-0.39005 0.35436-0.48124 0.25584-0.42231 0.23219-0.4599 0.21254-0.50739 0.47762-1.3452 0.16997 0.22953 0.41551 0.66532 0.53211 0.94473 0.42001 0.82716 0.40747 0.89628 0.38693 0.98009 0.33472 1.0117 0.26988 1.0286 0.21588 1.1704 0.12298 1.162 0.033817 0.81666-0.004761 0.63573-0.074976 0.98581-0.15022 0.96208-0.17372 0.77936-0.20894 0.75844-0.34949 1.081-0.81372 2.4004-0.3629 0.93003-0.38981 0.7946-0.40612 0.73014-0.64683 0.9608-0.74672 0.90267-0.82983 0.81882-0.9042 0.70054-0.97694 0.53662-0.33576 0.13115-1.0338 0.26155-1.0204 0.07026-0.3984-0.022383-0.48873-0.068568-0.72367-0.19326-0.71039-0.28519-0.69604-0.35663-0.75812-0.45969-0.74005-0.50111-1.5408-1.114-0.80357-0.54814-0.7968-0.45823-0.79694-0.32102-0.81354-0.15446-0.80584-0.03644-1.5257-0.010876-0.4673-0.064087-0.35262-0.094345-0.50503-0.2167-0.50644-0.30161-0.63465-0.47284-0.63288-0.5499-0.50182-0.47607-0.69147-0.7053-1.0946-1.1849-1.3103-1.5607-0.27896-0.30423-0.42445-0.39142-0.24076-0.18039-0.49227-0.28108-0.48501-0.17521-0.16601-0.036589-0.31727-0.026393-0.17733 0.0182-0.24866 0.074077-0.098845 0.048072-0.45166 0.39339-0.28458 0.42215-0.25254 0.51231-0.17559 0.44362-0.19753 0.60085-0.20601 0.80018-0.20613 1.108-0.15479 1.2286-0.060807 0.671-0.17012 2.6273-0.14318 0.91133-0.27294 0.84036-0.52235 0.85425-0.70336 0.77969-0.53131 0.49157-1.0171 0.8254-0.67614 0.48845-1.4747 1.001-0.75009 0.54557-0.81681 0.7256-0.35735 0.41428-0.43253 0.67793-0.31925 0.74615-0.20397 0.79381-0.083483 0.7484 0.012425 0.749 0.16177 0.99279 0.28437 0.87873 0.17011 0.38283 0.13926 0.2566 0.16417 0.24289 0.13962 0.15437 0.097609 0.069084 0.03655-0.009521 0.029459 0.023542 0.088793 0.001575 0.40152-0.048066 1.5762-0.23925 0.69327-0.083901 1.2633-0.088387 1.564-0.027107 0.75188 0.011104 1.8204 0.095651 1.6673 0.17329 0.54859 0.089584 0.68788 0.16825 0.59121 0.22009 0.27242 0.1362 0.23531 0.13815 0.57124 0.42369 0.31667 0.31526 0.21655 0.26272 0.48716 0.76587 0.42226 0.80865 0.80202 1.6636 1.7139 3.2806 1.2366 2.4907 0.51789 0.97314 0.7558 1.3127 2.0638 3.3464 1.4351 2.6039 0.3508 0.60664 0.33165 0.51945 0.42066 0.58304 0.51618 0.61084 0.79781 0.7894 1.2362 1.0685 2.0904 1.6535 0.81922 0.69881 0.44003 0.42218 0.71931 0.80577 0.3992 0.55322 0.33912 0.5758 0.26376 0.57226 0.19863 0.59349 0.12626 0.6217 0.030009 0.33493-0.031033 0.87143-0.095374 0.63196-0.1383 0.6432-0.82035 3.1107-0.17921 0.8419-0.14068 0.85155-0.098032 0.92063-0.044329 0.92211 0.015224 1.3537 0.082665 2.1127 0.001965 0.83157-0.053976 0.81536-0.12664 0.78041-0.18994 0.76168-0.23754 0.74065-1.0958 2.8433-0.44195 1.2904-0.38317 1.2664-0.75252 2.6748-0.3314 1.3459-0.18227 0.98128-0.098473 0.94032-0.004528 0.94445 0.10833 0.91892 0.14822 0.59971 0.28447 0.73515 0.32362 0.6296 0.72583 1.2035 0.50147 0.77884 1.7652 2.5866 0.49009 0.75434 1.0231 1.705 0.52289 0.94474 1.3312 2.5026 0.32067 0.63213 0.41408 0.89993 0.29565 0.734 0.26451 0.76056 0.16508 0.58072 0.14436 0.71766 0.075244 0.69755-0.016345 0.88671-0.11796 0.57219-0.39972 0.81146-0.57301 0.63204-0.70912 0.55993-1.6326 1.132-0.80051 0.65186-0.6586 0.69429-0.51339 0.75102-0.31114 0.77735-0.071691 0.51566 0.012757 0.52899 0.078472 0.55473 0.24912 1.0007 0.3779 1.0926 0.30921 0.77056 0.70456 1.6107 0.57449 1.1501-0.28744 0.067884-2.8373 0.92681-3.6589 1.138-2.5032 0.75304-0.77908 0.22181-0.89593 0.21551-0.90234 0.17835-0.95179 0.1547-0.95123 0.11278-1.3229 0.06657-1.307-0.055991-0.84484-0.11421-0.48367-0.097567-1.0517-0.29251-1.0323-0.37277-0.69917-0.28619-2.6833-1.1637-1.0034-0.40654-0.85719-0.31514-0.86645-0.27982-1.1829-0.30874-1.3395-0.24944-1.0967-0.13986-4.2379-0.38877-0.85237-0.10367-0.83928-0.14905-1.1186-0.3055-0.87662-0.30985-1.4762-0.626-1.7809-0.88338-1.5117-0.83022-1.2561-0.76106-0.84339-0.55917-0.91431-0.64868-3.2905-2.513-0.7518-0.54645-0.69686-0.46523-0.70443-0.4105-0.71764-0.3363-0.70582-0.23309-0.67226-0.12624-0.7282-0.04274-0.73127 0.041274-0.98974 0.1788-1.0017 0.34316-0.93963 0.51888-0.76067 0.61768-0.70636 0.74152-0.6708 0.8354-0.65183 0.90353-0.64742 0.94896-0.93972 1.435-0.75617 1.2681-0.74651 1.3703-0.49889 1.0136-0.46429 1.064-0.80891 1.9993-0.18947 0.41865-0.11425 0.20132-0.11444 0.12531-0.084101-0.02629 0.017801 0.76254 0.070497 0.42741 0.1221 0.35169 0.083093 0.16211 0.31191 0.4175 0.3836 0.38695 0.45344 0.34818 0.53824 0.29602 1.2367 0.57274 0.30935 0.18801 0.22873 0.19926 0.10997 0.13174 0.18235 0.29587 0.13913 0.32648 0.090917 0.34951 0.024088 0.20459-0.004674 0.42423-0.068529 0.4324-0.11818 0.43466-0.41329 1.161 0.32163 0.003205 0.65298 0.1659 0.80989 0.30838 0.92205 0.43352 0.62972 0.35173 0.62129 0.39137 0.61974 0.43111 0.63843 0.48962 0.5846 0.51821 0.60433 0.68493 0.43066 0.7213 0.28134 0.78358 0.16311 0.80497 0.092617 0.84822 0.050237 0.87927 0.065335 2.8743 0.047125 1.0554 0.10191 1.2038 0.14996 1.2051 0.17714 1.1203 0.21092 1.1131 0.24451 1.1018 0.25643 1.0047 0.28461 0.98753 0.95531 2.9766 0.21604 0.80433 0.19096 1.0131 0.064904 0.998-0.083409 0.90381-0.27484 0.9835-0.4388 0.9406-0.50584 0.79888-0.59711 0.75467-0.67781 0.70228-0.55716 0.48591-0.59617 0.44606-0.77389 0.4838-0.81682 0.41942-0.75554 0.32318-0.77042 0.29064-1.1382 0.39072-2.5137 0.78514-0.93051 0.31673-0.82839 0.3399-0.49916 0.25807-0.41167 0.27548-0.39968 0.41614-0.13914 0.37778 0.027939 0.20931 0.11653 0.23037 0.17065 0.20188 0.33534 0.29677 1.783 1.3556 0.98522 0.87569 1.1084 1.123 1.3894 1.4702 0.8128 0.81301 0.67116 0.61017 0.696 0.55445 0.72774 0.4779 0.57849 0.29818 1.0352 0.36266 1.0731 0.17335 0.67399 0.008398 0.67404-0.069078 0.96748-0.2324 0.92687-0.34094 0.92055-0.41733 2.7111-1.3619 0.97689-0.42467 0.98888-0.33818 0.73961-0.17341 0.74486-0.094192 0.8127-9.07e-4 0.80877 0.10368 0.85389 0.2183 0.84928 0.3018 3.9531 1.7196 1.4002 0.57066 1.1047 0.423 1.4717 0.49495 0.63465 0.17954 0.8544 0.2081 0.81589 0.12778 0.63419 0.013443 0.63356-0.1013 0.59705-0.21953 0.77065-0.51071 0.50604-0.52573 0.42744-0.62055 0.30569-0.60702 0.23938-0.65418 0.19808-0.83715 0.10098-0.87152 0.003649-0.88891-0.032096-0.41235-0.096018-0.67743-0.13814-0.67219-0.14969-0.59798-0.52577-1.8118-0.18326-0.73019-0.3847-1.8991-0.12159-1.0749 0.019414-0.98935 0.16332-1.0195 0.15337-0.60877 0.18337-0.60209 0.27722-0.79284 0.69071-1.8888 0.16825-0.59094 0.1238-0.75065-0.013134-0.75836-0.049413-0.29152-0.098613-0.36575-0.20558-0.52999-0.26526-0.51964-0.45195-0.70317-0.52935-0.65939-0.37035-0.38716-0.6588-0.5658-0.58649-0.40246-0.65196-0.35595-1.3309-0.66639-0.60709-0.39504-0.33536-0.29104-0.16749-0.17615-0.24553-0.32524-0.13052-0.22809-0.17265-0.45139-0.092396-0.47679-0.027902-0.43716 0.034756-0.8354 0.15378-0.82867 0.17806-0.50059 0.25039-0.44463 0.36315-0.3968 0.11629-0.091924 0.64872-0.3306 0.38341-0.080488 0.39216-0.006124 0.41594 0.075331 0.3031 0.10188 0.37194 0.17233 0.6478 0.374 0.48145 0.31578 2.1419 1.5434 0.58092 0.4525 0.61133 0.55032 0.57418 0.60415 0.47937 0.58411 1.1052 1.538 0.44169 0.58042 0.47239 0.54382 0.53056 0.5044 0.45812 0.35826 0.47906 0.32452 1.3568 0.82286 0.503 0.3385 0.54353 0.41609 1.2534 1.097 1.5773 1.4739 0.96512 0.97048 0.60079 0.75116 0.51844 0.88694 0.42103 0.93292 0.74666 1.805 0.42301 0.7595 0.52664 0.57216 0.66421 0.3102 0.46597 0.052576 0.78782-0.11036 0.61243-0.19129 2.1201-0.83931 1.1625-0.36433 0.78009-0.16479 0.80337-0.098711 1.0237-0.020843 1.0141 0.088229 1.096 0.21735 0.97484 0.31256 0.5717 0.25607 0.43005 0.25807 0.21067 0.19198 0.049453 0.16686 0.007618 0.08663-0.087198 0.22634-0.71613 1.5483-0.40621 0.98082-0.38 1.0704-0.28176 0.95937-0.22976 0.97775-0.18153 1.0439-0.12133 1.0283-0.056447 0.75607-0.029316 0.73152 0.015059 1.1586 0.076582 0.76198 0.12069 0.63263 0.17445 0.56203 0.19291 0.40722 0.23852 0.33958 0.24973 0.23642 0.34031 0.19956 0.37314 0.11002 0.46347 0.019167 0.4713-0.085734 0.60396-0.24861 0.35037-0.21728 0.32922-0.24807 0.62152-0.53164 0.58191-0.42394 0.3823-0.16409 0.39555-0.060797 0.30032 0.022321 0.43029 0.12265 0.4305 0.21606 0.42852 0.30201 0.40812 0.37587 0.46959 0.56954 0.40126 0.65773 0.28811 0.65579 0.128 0.39438 0.18467 0.88455 0.052259 0.73297 7.55e-4 0.30869-0.026054 0.61981-0.074026 0.71956-0.1352 0.75057-0.19498 0.75243-0.175 0.53719-0.33212 0.84756-0.4236 0.90302-0.63274 1.1766-0.58376 0.9678-1.0352 1.568-0.99511 1.4157-1.4577 1.9645-1.6474 2.0895-1.2232 1.4937-1.2068 1.4077-1.1685 1.2377-2.8331 2.7851-2.2523 2.3264-0.1697 0.007072-0.41385-0.10317-0.67744-0.2192-0.82639-0.30719-1.0585-0.43697-3.508-1.5178-1.2651-0.49538-1.2693-0.46051-2.2211-0.74546-4.6012-1.4965-0.85977-0.24612-0.85666-0.21141-0.92303-0.18339-0.91433-0.13784-1.6502-0.18558-0.75136-0.10582-3.7904-0.66061-1.3186-0.26259-1.0669-0.27144-0.66734-0.20439-1.2807-0.4527-1.6824-0.64161-1.457-0.50127-0.81644-0.23777-0.78393-0.18535-0.84822-0.1178-0.84185 0.028627-0.73361 0.12691-0.74302 0.18744-2.4786 0.71677-0.90678 0.17866-0.94874 0.059806-0.95055-0.067556-0.96827-0.19665-0.92703-0.31226-0.89702-0.41702-0.87325-0.44107-0.89285-0.37794-0.60344-0.17104-0.99167-0.12319-1.0641 0.087314-1.093 0.26693-1.1162 0.39842-1.1358 0.49199-1.1077 0.53367-3.7662 1.9744-1.9496 0.96296-0.99829 0.44583-1.0162 0.40949-1.1062 0.38296-1.1328 0.30972-1.4203 0.26754-0.89912 0.11891-1.4198 0.12595-0.95061 0.047355-1.5358 0.00884-5.6318-0.092185-0.86441 0.003401-0.34592 0.033147-4.6388 0.1305-5.1223 0.10876-3.1888 0.145-0.7475 0.01336-0.72378-0.029813-0.36513-0.042999-0.46001-0.088192-0.73961-0.20157-2.1983-0.73168-0.78736-0.2383-0.7418-0.19426-0.90562-0.17326-0.68578-0.080467-0.69458-0.042916-1.0258-0.006404-1.6046 0.069855-3.5412 0.2442-2.6751 0.13838-1.9603 0.081409-2.9779 0.078344-4.9631 0.28426-2.5522 0.073017-1.2754 0.006019-0.98472-0.024791-2.0528-0.097408-3.3363-0.19635-0.8162-0.027147-1.2357 0.011153-0.69942 0.049813-1.0474 0.14783-0.59082 0.12325-0.67776 0.1777-0.77799 0.26994-0.28098 0.12266-0.38283 0.20099-0.176 0.15192-1.5181-1.5704-0.83913-0.91089-1.3069-1.5307-0.87971-1.1451-0.51128-0.77434-0.41804-0.7988-0.1477-0.38374-0.13146-0.54528-0.021333-0.34155 0.056039-0.40759 0.13528-0.37037 0.29821-0.47432 0.27752-0.31525 0.50785-0.48467 0.57659-0.45949 0.59845-0.3464 0.63842-0.27968 1.1285-0.44663 0.51549-0.2692 0.27796-0.18273 0.37879-0.33579 0.30779-0.41454 0.16659-0.34764 0.18039-0.57157 0.14859-0.69665 0.2636-1.7484 0.2201-1.9619 0.0552-0.67666 0.050361-1.163-0.003299-0.82675-0.044106-0.92672-0.079848-0.88628-0.15036-1.1351-0.21454-1.1166-0.30459-1.0813-0.34534-0.87888-0.40837-0.84471-0.75604-1.3252-0.61683-0.88094-0.37257-0.45542-0.48997-0.53892-0.70578-0.70644-2.5562-2.4344-0.69219-0.74084-0.85265-1.0235-1.0226-1.4256-1.572-2.5271-0.73646-1.0988-0.76909-1.0235-0.42108-0.50812-0.85452-0.92459-0.44848-0.42949-0.4168-0.36322-0.28755-0.22774-0.46948-0.31752-0.17642-0.091477-0.24021-0.029109-1.0674-0.66632-0.67324-0.46053-0.73127-0.54344-0.64965-0.53087-0.64298-0.57991-0.67067-0.67321-0.96509-1.0739-0.95-1.1319-0.63968-0.80604-0.77817-1.0494-0.55368-0.82431-0.49233-0.82459-0.35812-0.6927-0.29889-0.69089-0.21052-0.61706-0.14925-0.61379-0.055329-0.34999-0.039111-0.44567 7.57e-4 -0.79401 0.1335-1.8408 0.018708-0.70511-0.022177-0.67387-0.16122-2.1524-0.001604-0.54113 0.036845-0.5716 0.10388-0.72058 0.25532-1.0514 0.31554-0.92532 0.34819-0.82482 0.45216-0.89865 0.32684-0.56316 0.35431-0.54576 0.41037-0.56126 0.74548-0.86278 0.64507-0.61329 0.79554-0.61718 0.61268-0.38264 0.88834-0.44033 0.58764-0.23388 1.079-0.34578 2.3514-0.61735 0.60094-0.19191 0.49619-0.18848 0.60215-0.28152 0.39282-0.22459 0.38248-0.25373 1.1922-0.90616 0.63149-0.42511 0.61187-0.32139 0.64368-0.22436 0.8466-0.11177 0.86559 0.059418 0.21586 0.038828 0.49376 0.11963 0.48505 0.15176 2.0063 0.77225 0.60459 0.17007 0.4093 0.035474 0.34662-0.083012 0.3391-0.30289 0.25642-0.48458 0.20297-0.6141 0.41738-1.7158 0.23855-0.82801 0.30843-0.75022 0.41438-0.60706 0.21511-0.19651 0.20711-0.13981 0.29323-0.13085 0.27025-0.065726 0.54652-0.022927 0.43183 0.052572 0.45199 0.099126 0.55145 0.16207 0.56635 0.19804 2.7726 1.0642 1.1022 0.3621 1.6112 0.43695 0.54328 0.073375 0.46666-0.071275 0.28706-0.1905 0.22244-0.30142 0.08189-0.17926 0.1416-0.49852 0.11799-0.81783 0.1967-2.2125 0.14144-1.0147 0.12595-0.6372 0.22949-0.8457 0.40251-0.98811 0.57274-1.031 0.50241-0.75726 0.5407-0.71843 1.388-1.6519 1.2587-1.6126 0.47358-0.53893 0.36562-0.33923 0.58949-0.45485 0.41636-0.27326 0.50347-0.29179 0.46794-0.24237 0.68538-0.31408 1.083-0.40601 1.0133-0.30674 0.78926-0.19809 0.53944-0.10455 0.58493-0.074901 0.31984-0.015408-0.33413-0.23346-0.41488-0.3395-0.4238-0.40092-0.4161-0.47483-0.34798-0.50858-0.26995-0.55444-0.18379-0.64956-0.088432-0.682-0.029797-0.70414-0.001242-0.62292 0.064993-0.97008 0.11292-0.70234 0.22247-0.85354 0.48018-1.3428 0.14243-0.47035 0.10557-0.48363 0.060416-0.55171 0.002495-0.56281-0.020466-0.29173-0.16885-0.94322-0.29262-0.96755-0.2801-0.7703-0.89852-2.0981-0.12503-0.37761-0.039295-0.29118 0.030452-0.19919 0.18511-0.26715 0.31906-0.2056 0.41079-0.17208 0.39662-0.13244 1.6594-0.39766 0.75723-0.25646 0.63181-0.31974 0.40594-0.29933 0.48111-0.539 0.3888-0.62778 0.33571-0.68949 0.68132-1.5699 0.3151-0.56108 0.24242-0.29817 0.21764-0.2088 0.47554-0.34019 0.29515-0.14847 0.49879-0.17556 0.53756-0.12987 0.51979-0.062195 0.34874-0.002719 0.31106 0.026762 0.36772 0.067859 1.4365 0.41208 0.79709 0.1788 0.868 0.1073 0.38343 0.016281 0.75946-0.048441 0.46471-0.079242 0.47976-0.12098 0.78902-0.33536 0.42839-0.30583 0.33304-0.3277 0.32828-0.39897 0.88679-1.2361 0.729-0.92866 1.0884-1.5337 0.67231-0.79822 0.84116-0.89366 0.13037-0.18184 0.23481-0.45673 0.099597-0.3297 0.059164-0.35212 0.003771-0.35698-0.047768-0.29587-0.077352-0.26276-0.1815-0.4428-0.4203-0.75576-0.3092-0.44429-1.4901-1.975-0.57288-0.7925-0.28429-0.4425-0.86527-1.5035-0.25574-0.401-0.3715-0.50669-1.8836-2.2454-0.58373-0.59655-0.81442-0.70903-0.37317-0.36792-0.28758-0.38817-0.21484-0.43255-0.10538-0.33946-0.070588-0.41139-0.008662-0.39728 0.069543-0.52839 0.21544-0.73826 0.8404-2.1257 0.25534-0.82266 0.076759-0.36463 0.036682-0.47068-0.022673-0.19181-0.079558-0.18869-0.13897-0.074461 0.017932-0.051167-0.001948-0.039712-0.11569-0.08814-0.27746-0.14075-0.36305-0.14359-0.5959-0.19883-2.5682-0.78075-0.59516-0.20783-0.81962-0.32503-1.0176-0.49075-0.63396-0.38062-0.32714-0.23572-0.28891-0.24324-0.3939-0.41531-0.21746-0.30008-0.16165-0.28667-0.14007-0.34916-0.093408-0.48287 0.012118-0.39554 0.09893-0.43798 0.21907-0.52143 0.288-0.48381 0.30451-0.41609 0.47949-0.5578 0.30763-0.32032 0.56611-0.54099 0.6304-0.55248 0.84685-0.67813 0.73608-0.52359 0.44192-0.28459 0.81135-0.46766 1.1386-0.55511 0.98304-0.40642 2.1218-0.78021 0.66234-0.29979 0.49998-0.27718 2.9968-1.7908 0.81953-0.53472 0.46401-0.33527 0.59119-0.49301 0.42248-0.40877 2.5182-2.7257 3.2854-3.2061 1.7675-1.7799 0.51316-0.54678 0.5858-0.69498 0.75138-1.0361 0.63091-1.0915 0.45572-1.052 0.31153-1.0649 0.13916-1.0427-0.019402-0.79813-0.13431-1.2351-0.039014-0.57611-0.002107-0.44057 0.022542-0.27713 0.048924-0.16968 0.038059-0.034927 0.095471-0.32072 0.3459-0.79271 0.88462-1.7392 1.1694-2.03 0.60908-0.95718 0.45334-0.64699 0.41784-0.53789 0.44764-0.51328 0.67654-0.69109 1.7198-1.6512 0.7507-0.81637 1.4677-1.7935 0.4503-0.60422 0.36195-0.52896 0.83712-1.3347 0.54883-0.96535 0.31718-0.62312 1.09-2.3182 0.84419-1.6518 0.61057-1.0374 0.71874-1.0922 0.71154-0.93178 0.46364-0.53601 0.94087-1.0231 1.2851-1.3306 1.2929-1.1827 0.51001-0.59331 0.35506-0.59954 0.20827-0.46367 0.18454-0.49598 0.22332-0.71738 0.35623-1.3924 0.29197-1.3042 0.48929-2.4836 0.88669-5.4146 0.48036-2.3649 0.62001-2.6536 0.58788-2.176 0.40953-1.2071 0.21692-0.47128 0.11142-0.17501 0.076121-0.084401 0.097016-0.051315 0.098963 0.036604 0.10248 0.015272 0.1423 0.1496 0.19711 0.35393 0.65598 1.8324 0.37059 0.88906 0.36175 0.74294 0.50882 0.81683 0.4867 0.62593 0.25021 0.28282 0.33599 0.33192 0.39118 0.30957 0.45542 0.28466 0.56107 0.27708 0.58435 0.20388 0.59891 0.10662 0.19457 0.009361 0.54512-0.034873 0.45445-0.085 0.67803-0.21727 2.9274-1.2797 0.74694-0.37137 0.57208-0.31654 1.385-0.8551 0.84228-0.64012 0.6681-0.66083 0.42372-0.49971 0.40315-0.52346 1.4983-2.0563 0.65227-0.76702 0.44523-0.4397 0.38134-0.32207 0.75659-0.48907 0.92141-0.44312 1.2402-0.47599 0.87548-0.29013 0.9871-0.26436 0.59016-0.11454 0.59148-0.074195 0.65759-0.025248 0.65125 0.047298 0.44567 0.082181 0.63318 0.18753 0.48122 0.19288 0.78403 0.39779 0.53221 0.32395 0.58132 0.39253 1.3019 0.95674 0.63112 0.50608 0.66152 0.5866 0.36718 0.36254 0.48504 0.53204 1.7949 2.165 2.8465 3.3438" stroke="#bdc660"/>
    </defs>
    <g clip-path="url(#p9d42c53842)">
     <use y="280.512" fill="#bdc660" stroke="#bdc660" xlink:href="#mbe15c8a328"/>
    </g>
   </g>
  </g>
 </g>
 <defs>
  <clipPath id="p9d42c53842">
   <rect x="7.2" y="7.2" width="194.67" height="266.11"/>
  </clipPath>
 </defs>
</svg>
