<?xml version="1.0" encoding="UTF-8"?>
<!DOCTYPE svg  PUBLIC '-//W3C//DTD SVG 1.1//EN'  'http://www.w3.org/Graphics/SVG/1.1/DTD/svg11.dtd'>
<svg width="325.52pt" height="280.51pt" version="1.1" viewBox="0 0 325.52 280.51" xmlns="http://www.w3.org/2000/svg" xmlns:xlink="http://www.w3.org/1999/xlink">
 <metadata>
  <rdf:RDF xmlns:cc="http://creativecommons.org/ns#" xmlns:dc="http://purl.org/dc/elements/1.1/" xmlns:rdf="http://www.w3.org/1999/02/22-rdf-syntax-ns#">
   <cc:Work>
    <dc:type rdf:resource="http://purl.org/dc/dcmitype/StillImage"/>
    <dc:date>2024-07-04T12:11:03.966470</dc:date>
    <dc:format>image/svg+xml</dc:format>
    <dc:creator>
     <cc:Agent>
      <dc:title>Matplotlib v3.7.1, https://matplotlib.org/</dc:title>
     </cc:Agent>
    </dc:creator>
   </cc:Work>
  </rdf:RDF>
 </metadata>
 <defs>
  <style type="text/css">*{stroke-linejoin: round; stroke-linecap: butt}</style>
 </defs>
 <g id="figure_1">
  <g id="patch_1">
   <path d="m0 280.51h325.52v-280.51h-325.52v280.51z" fill="none"/>
  </g>
  <g id="axes_1">
   <g id="PatchCollection_1">
    <defs>
     <path id="m56aebdb113" d="m225.08-229.33 1.3828 0.026847 1.6944-0.093463 8.4856-0.96878 4.9822-0.33683 1.6975-0.16839 2.3306-0.3673 1.6691-0.35513 1.6941-0.43125 1.4612-0.45749 1.3769-0.50376 2.0726-0.84857 2.8274-1.2558 2.2518-1.0893 3.9302-2.0886 2.1791-1.1007 3.5044-1.7174 2.4975-1.144 4.0851-1.6411 8.0851-3.0742 3.2739-1.1744 3.3366-1.1121 1.6428-0.49536 2.3693-0.62646 2.3435-0.53109 2.256-0.44331 3.8491-0.62305 1.7779-0.20207 0.041443 0.59382-0.20109 1.3574-0.41959 1.784-0.46598 1.5462-0.63828 1.9551-0.73508 2.0314-0.86871 2.0314-0.8233 1.5999-0.91294 1.5504-0.68607 1.0645-1.0376 1.4748-1.0781 1.3992-1.5048 1.7814-1.2529 1.3542-1.2244 1.2125-2.4394 2.299-0.6609 0.69964-0.52334 0.64439-0.77137 1.2401-0.6335 1.3926-0.49708 1.4857-0.35297 1.5255-0.20079 2.0001 0.11802 1.7919 0.1273 0.70839 0.21399 0.91571 0.26472 0.89987 1.5127 4.1793 0.25427 0.89634 0.19919 0.92193 0.14959 1.0094 0.11256 1.7987-0.17026 1.7892-0.15985 0.65348-0.41747 1.1727-0.58836 1.2383-0.62575 1.1234-2.0756 3.3942-0.99539 1.8219-0.3257 0.73597-0.29723 0.88954-0.1495 0.80257 0.009921 1.122 0.22218 1.1077 0.36166 1.0741 1.02 2.6196 0.32799 0.96195 0.25941 0.9452 0.19165 0.96871 0.1248 1.1343 0.035116 1.668-0.11138 3.348 0.17888 3.874-0.007963 0.52653-0.098231 1.4049-0.43659 3.7389-0.053015 1.337 0.045933 0.9611 0.32469 3.0252 0.070024 0.91429 0.023399 1.003-0.042079 0.80428-0.1607 1.0237-0.45381 1.4089-0.6654 1.36-0.80912 1.3154-2.156 3.1599-1.3274 2.1492-3.2943 6.1228-0.99479 1.5972-0.6097 0.79184-1.0903 1.1919-1.2297 0.9741-1.2264 0.62112-1.3116 0.46118-5.2397 1.569-0.57851 0.28738-0.1901 0.23346 0.050683 0.23983 0.10449 0.49622-0.10559 0.94334-0.30923 1.1933-0.52792 1.2898-0.83628 1.4232-1.605 2.3584-0.89514 1.5186-0.83544 1.6403-0.86024 1.8987-1.6531 3.908-0.86405 1.9298-0.94196 1.8665-1.0663 1.7676-0.97875 1.3317-1.0766 1.2478-1.1144 1.1264-1.1738 1.0637-1.189 0.9879-2.5303 1.9016-1.1603 0.79801-2.4762 1.5999-9.8922 6.0511-0.81593 0.44785-0.79334 0.334-0.7527 0.23929-1.0556 0.23622-0.83297 0.12004-2.1062 0.18068-0.64644 0.094558-0.63436 0.15501-0.82301 0.30293-0.51513 0.25355-0.5256 0.31793-0.81103 0.63785-0.45553 0.44531-1.6486 1.806-0.54392 0.47968-0.55218 0.38309-1.0458 0.56567-1.8012 0.83262-1.4902 0.60643-1.3464 0.43676-1.365 0.28312-1.1484 0.063998-1.1186-0.1484-0.82165-0.27835-0.78245-0.40375-1.0134-0.7276-0.56296-0.51329-0.53933-0.58145-0.6491-0.88945-0.32439-0.60678-0.2054-0.5072-0.056911-0.42926-0.37388 0.39456-3.2263 2.8394-0.71243 0.6773-1.1338 1.18-1.0762 1.2216-0.89006 1.0752-1.0482 1.4452-0.71008 1.2358-0.6851 1.5787-0.27208 0.83383-0.26449 1.0839-0.15142 0.95703-0.06042 0.67154-0.020616 0.89874 0.11939 1.5872 0.32812 1.9807 0.060403 0.69904-0.017654 0.73122-0.39562 2.9992-0.030151 1.1845 0.16026 1.5732 0.46307 2.6486 0.069943 1.0493-0.075595 1.3735-0.11034 0.70954-0.26603 1.184-0.39773 1.4065-0.82042 2.5697-0.36114 0.9868-0.60512 1.4057-0.59334 1.1833-0.8716 1.5545-3.4868 5.4741-0.87456 1.5309-0.89055 1.8977-1.3668 3.5715-0.59304 1.3868-0.75317 1.5031-0.74202 1.2052-0.76022 1.0264-0.55082 0.6668-1.1152 1.2391-1.3622 1.3821-1.6851 1.5496-1.2224 1.0203-1.3893 1.0145-1.2266 0.77777-1.6933 0.91539-1.8753 0.84037-1.6926 0.6445-1.7611 0.59512-1.4829 0.45187-2.0465 0.53144-1.7069 0.30793-1.4556 0.10971-1.3945-0.068487-0.31186-0.057307-0.24449-0.13958 0.11282-0.22611 0.040151-0.25633-0.081414-0.59094-0.14093-0.40128-0.19676-0.40428-0.44824-0.6776-0.3485-0.40729-0.60277-0.55822-0.82637-0.56911-0.54296-0.29355-0.81402-0.35941-0.89168-0.31505-2.438-0.72527-0.67229-0.23831-0.93764-0.4497-0.48285-0.32456-0.79654-0.74526-0.7654-0.99503-0.69891-1.1699-0.63065-1.2793-0.57639-1.3543-0.76326-2.0376-0.74695-2.2898-0.44798-1.6917-0.3177-1.6725-0.37156-3.6068-0.43802-2.5167-2.281-10.315-0.44866-1.6622-0.29988-0.9353-0.39398-1.074-0.53438-1.2554-0.40634-0.83941-2.2648-4.057-2.729-5.3369-1.6579-3.084-2.5446-4.386-1.3067-2.1135-0.98758-1.491-1.8267-2.501-6.0381-7.811-3.6611-5.0678-1.0571-1.4012-1.076-1.3126-0.94984-1.0294-1.2441-1.1287-1.3446-0.88857-1.2179-0.51251-1.2781-0.32524-0.72054-0.11078-1.456-0.059058-1.112 0.092587-1.0946 0.19886-0.91975 0.24725-0.9279 0.32201-0.9394 0.40096-1.8151 0.96096-2.0668 1.2781-5.0462 3.3331-1.8271 1.1427-2.592 1.4635-1.1481 0.5781-2.1342 0.94899-1.6746 0.62739-2.0639 0.63705-2.2976 0.55049-0.97425 0.18387-1.7566 0.25275-1.8008 0.17789-4.1903 0.21593-1.8929 0.15495-1.5607 0.2145-1.5439 0.33246-1.3005 0.39997-1.2711 0.49407-2.1133 1.0254-1.2314 0.70778-2.0479 1.347-1.3541 1.0277-0.4983 0.48737 0.013097-0.17981-0.096162-0.38464-0.54101-1.3171-1.4137-2.6912-0.59412-1.2113-0.53112-1.4114-0.24679-1.2817-0.019693-0.58358 0.045855-0.66867 0.135-0.7808 0.18852-0.7067 0.53668-1.4323 1.4051-3.0395 0.68175-1.5686 0.44349-1.1856 0.41876-1.3749 0.35668-1.4698 0.18256-0.9614 0.1424-1.0414 0.075116-1.1562-0.051336-1.4022-0.13917-1.0692-0.4414-2.057-0.77934-2.6384-0.82496-2.3769-0.52194-1.2735-0.59592-1.177-0.84536-1.2345-1.0107-1.002-1.0266-0.66014-1.1328-0.52202-2.6818-1.0076-1.5395-0.4999-1.4298-0.37468-5.5961-1.3441-1.8881-0.31035-3.6121-0.27693-1.2217-0.13797-0.69866-0.14764-0.62745-0.21948-0.5503-0.30557-0.4569-0.3641-0.36276-0.4016-0.36404-0.57691-0.21525-0.48032-0.16574-0.51974-0.36943-1.9992-0.12968-0.9564-0.089923-1.1572-0.074713-4.2066-0.059572-1.334-0.21829-2.4829-0.015135-0.85379 0.074859-0.93135 0.16026-0.91444 1.1279-4.1244 0.16174-1.0147 0.051377-1.0362-0.14188-1.4637-0.2684-1.0014-1.6035-4.4009-0.26406-0.85576-0.10381-0.66116-0.003928-0.34195 0.09013-0.63764 0.23053-0.64187 0.20071-0.3735 0.38991-0.56535 0.58548-0.67756 0.72386-0.71878 1.9075-1.783 1.4274-1.5659 1.3447-1.7013 1.2888-1.9644 1.7861-3.0823 1.1404-2.3159 0.5507-1.3576 0.38603-1.2221 0.22117-1.0502 0.087392-0.90026-0.11768-1.7001-0.41728-1.7024-0.42294-1.189-0.8702-2.0062-0.95414-1.8211-0.74806-1.2833-4.4547-7.1272-1.7733-2.9619-1.5828-2.9188-0.79183-1.6457-0.69251-1.6372-0.57651-1.6615-0.40106-1.6335-0.16043-1.1264-0.080837-1.2477 0.055899-1.2452 0.21142-1.189 0.33813-1.2132 0.64291-1.7928 0.67213-1.5192 0.62176-1.1973 1.1047-1.8169 1.0268-1.493 1.0906-1.4721 3.2152-3.9993 0.22204-0.35317 0.49358-0.4387 0.95707-0.65609 0.53188-0.29122 1.6431-0.70588 0.54854-0.31691 0.52707-0.37694 0.96528-0.86602 1.248-1.3798 0.44229-0.42492 0.81587-0.61754 0.93146-0.50335 0.46613-0.13586 0.46434-0.012167 0.51406 0.16383 0.50935 0.31791 0.50379 0.43092 0.99156 1.0724 1.3954 1.6511 0.91987 0.97075 0.44325 0.39155 0.44777 0.32797 0.45076 0.24625 0.45228 0.14228 0.54292 0.0161 0.54392-0.10206 0.54563-0.15631 1.896-0.62251 0.43704-0.03611 0.42813 0.091925 0.393 0.21225 0.33709 0.31438 0.25663 0.40299 0.20999 0.73018 0.051878 0.40273 0.037498 2.5847 0.11773 0.87935 0.38269 1.6926 0.24091 0.40556 0.4711 0.65251 0.30015 0.31354 9.5568 2.661 1.0303 0.32644 5.5709 2.0663 2.1304 0.59101 2.1575 0.34341 1.3191 0.064501 2.086-0.096246 1.5831-0.21285 0.91404-0.17234 1.617-0.3935 2.0007-0.6271 1.227-0.43128 4.9924-1.8628 2.8912-0.98907 1.5013-0.47527 1.4715-0.39064 1.5313-0.26363 0.91534-0.074153 1.0275 0.014445 3.4095 0.3631 5.7802 0.92749 1.8862 0.44079 1.8459 0.61864 1.5511 0.63871 1.5151 0.69551 1.575 0.77787 1.0724 0.64684 1.0601 0.8492 0.92865 0.99093 0.44693 0.59084 0.66213 1.0073 0.62234 1.0696 1.9363 3.6658 0.76848 1.317 0.80143 1.1138 0.39298 0.43148 0.7362 0.66462 1.4331 1.0673 0.84249 0.57013 0.8902 0.51008 1.3281 0.51162 1.3705 0.19209 2.8137 0.018966 1.3437 0.16655 0.66726 0.19927 1.2952 0.60377 2.0335 1.1209 1.4251 0.69678 1.0288 0.37912 0.43983 0.084469 0.2163-0.02766 0.49108-0.19305 0.84371-0.43077 2.9539-1.6803 1.6804-1.0844 2.5155-1.8538 1.2296-0.80287 0.97125-0.48163 1.482-0.52331 4.0162-1.0126 2.254-0.7388 0.96572-0.27045 0.75759-0.1123 1.2976-0.076105 0.59389-0.11215 0.3941-0.14462 0.48877-0.26494 0.49334-0.35114 0.92971-0.83505 1.0283-1.1349 0.50248-0.69242 0.42771-0.74425 0.33285-0.76653 0.61888-1.8116 0.15441-0.55868 0.21526-1.451-0.056666-1.2584-0.77424-4.997-0.12716-1.2632-0.005616-1.2626 0.18404-1.3675 0.32065-1.3594 0.66725-2.4908 0.23142-1.1679 0.091865-1.1383-0.031062-0.6291-0.07315-0.53908-0.36846-1.448-0.37231-0.96502-0.42599-0.76112-0.90312-1.1005-2.8495-2.8853-0.57778-0.67332-0.53092-0.76259-0.36448-0.84514-0.12549-0.92879 0.054657-0.53514 0.16128-0.61506 0.25152-0.61289 0.36786-0.67345 0.49894-0.73727 1.0563-1.2673 1.1093-1.1149 1.2486-1.107 1.0682-0.86841 1.1901-0.90921 2.1683-1.5482 1.5542-1.034 1.5868-0.98528 1.0494-0.60481 1.534-0.80614 1.2999-0.61111 0.69835-0.28264 8.5076 4.8537 2.3108 1.3793 2.3044 1.4452 1.5071 0.98462 2.7393 1.8974 1.9459 1.4738 1.8484 1.5122 1.7453 1.5357 1.6328 1.5474 1.5055 1.5495 1.357 1.5432 1.1797 1.5287 0.9651 1.5051 1.2469 2.4754 0.55747 0.9557 0.59856 0.8015 0.69982 0.76184 0.87792 0.79124 0.78412 0.59694 0.77694 0.51087 1.2185 0.66268 1.3528 0.57371 0.97389 0.32724 1.1564 0.29621 1.0134 0.18518 1.7897 0.1964" stroke="#bdc660"/>
    </defs>
    <g clip-path="url(#p235935f763)">
     <use y="280.512" fill="#bdc660" stroke="#bdc660" xlink:href="#m56aebdb113"/>
    </g>
   </g>
  </g>
 </g>
 <defs>
  <clipPath id="p235935f763">
   <rect x="7.2" y="7.2" width="311.12" height="266.11"/>
  </clipPath>
 </defs>
</svg>
