<?xml version="1.0" encoding="UTF-8"?>
<!DOCTYPE svg  PUBLIC '-//W3C//DTD SVG 1.1//EN'  'http://www.w3.org/Graphics/SVG/1.1/DTD/svg11.dtd'>
<svg width="354.33pt" height="280.51pt" version="1.1" viewBox="0 0 354.33 280.51" xmlns="http://www.w3.org/2000/svg" xmlns:xlink="http://www.w3.org/1999/xlink">
 <metadata>
  <rdf:RDF xmlns:cc="http://creativecommons.org/ns#" xmlns:dc="http://purl.org/dc/elements/1.1/" xmlns:rdf="http://www.w3.org/1999/02/22-rdf-syntax-ns#">
   <cc:Work>
    <dc:type rdf:resource="http://purl.org/dc/dcmitype/StillImage"/>
    <dc:date>2024-07-04T12:11:03.426601</dc:date>
    <dc:format>image/svg+xml</dc:format>
    <dc:creator>
     <cc:Agent>
      <dc:title>Matplotlib v3.7.1, https://matplotlib.org/</dc:title>
     </cc:Agent>
    </dc:creator>
   </cc:Work>
  </rdf:RDF>
 </metadata>
 <defs>
  <style type="text/css">*{stroke-linejoin: round; stroke-linecap: butt}</style>
 </defs>
 <g id="figure_1">
  <g id="patch_1">
   <path d="m0 280.51h354.33v-280.51h-354.33v280.51z" fill="none"/>
  </g>
  <g id="axes_1">
   <g id="PatchCollection_1">
    <defs>
     <path id="m01647ba4ec" d="m321.75-119.62 0.57924 0.23135 1.2152 0.66725 0.79569 0.50567 0.82653 0.59279 0.82083 0.67784 0.61363 0.58574 1.2156 1.4455 0.93569 1.6022 0.48133 1.3409 0.23618 1.4339 0.040475 0.92159-0.080105 1.6625-0.22026 1.6362-0.26323 1.3897-1.3036 5.589-0.35049 1.8072-0.93142 5.5604-0.39935 2.0243-0.43932 1.8343-0.46367 1.5855-0.73866 2.0325-0.71797 1.6339-0.77903 1.5676-1.7149 3.1755-0.54193 1.0722-0.38451 0.83716-0.46744 1.1688-0.39664 1.1889-0.36454 1.365-0.29487 1.4997-0.19134 1.7162-0.010003 1.6662 0.045864 0.59634 0.14417 1.0082 0.38134 1.5045 0.3559 0.96125 0.32492 0.71288 0.50143 0.92977 0.70841 1.1036 0.78784 1.0399 0.45503 0.53271 0.6388 0.6783 0.70686 0.67155 0.72756 0.61714 0.80899 0.61074 0.8798 0.58408 0.82322 0.47826 2.1048 1.0517 1.1221 0.61144 0.35862 0.24864 0.35476 0.30686 0.36905 0.44202 0.23288 0.39807 0.1866 0.45617 0.13559 0.5251 0.067034 0.75188-0.081301 0.74963-0.22951 0.72867-0.24963 0.50879-0.37995 0.56605-0.21061 0.2475-0.62144 0.566-0.69587 0.46822-1.2656 0.63093-1.4021 0.52552-1.4493 0.44167-1.5441 0.38426-1.1804 0.23815-1.5254 0.2496-2.9178 0.34573-5.1062 0.40968-5.4569 0.33139-2.4964 0.2331-1.3364 0.17497-2.4992 0.4326-2.4275 0.52958-1.4222 0.35314-1.8187 0.51235-1.1077 0.35254-2.2238 0.81038-1.5389 0.64442-1.4162 0.6618-1.4244 0.74864-1.3254 0.79739-1.2237 0.86329-1.2261 1.0521-0.84595 0.89105-0.75732 0.94351-0.838 1.2408-0.61716 1.0794-0.50261 1.0169-0.56234 1.394-0.12204 0.61728-7.9984 2.8291-4.8556 1.6134-2.6314 0.76916-3.8319 1.0357-3.6733 0.85104-2.804 0.50755-2.5242 0.37508-3.0146 0.37327-2.1991 0.20287-2.1518 0.1301-2.5938 0.056091-2.3667-0.055335-1.7634-0.13033-1.8551-0.25955-1.6287-0.38479-1.3405-0.47306-1.135-0.5171-0.79828-0.42622-1.3789-0.84981-12.037-8.457-1.2687-0.82839-1.4701-0.87803-1.4437-0.76693-1.3733-0.63298-1.0394-0.40907-0.69454-0.23452-1.2757-0.35925-2.0786-0.54352-0.69153-0.23214-0.26692-0.16428 0.045905-0.13643 0.099144-0.11647 0.42444-0.3924 2.66-2.1421 1.2041-1.0794 0.80603-0.89599 0.35558-0.5071 0.23277-0.42239 0.20996-0.57273 0.068959-0.42929-0.18061-1.0694-0.40105-0.69681-0.86548-0.89863-0.86355-0.64446-1.0489-0.64507-0.89546-0.4906-6.3698-3.1483-4.2084-2.1582-9.7169-5.1009-3.6149-1.9745-3.2644-1.9065-1.5222-0.98391-1.3568-0.97555-1.0082-0.80184-0.94774-0.8127-1.8577-1.748-1.7685-1.8485-1.89-2.168-1.0254-1.2552-1.4316-1.8449-3.5618-4.8225-1.3641-1.7738-1.8288-2.1765-1.0131-1.0995-0.79666-0.81147-1.1124-1.0503-3.5045-3.0565-1.7769-1.7143-1.2612-1.4064-0.58504-0.74473-1.3221-1.8565-1.1843-1.5663-1.088-1.273-1.1648-1.1893-1.2442-1.07-1.3308-0.90771-1.2875-0.6647-1.0019-0.43492-1.665-0.6016-1.1767-0.34697-1.4493-0.35521-0.97878-0.1999-1.6996-0.23649-1.1294-0.058642-1.6782 0.07582-2.3331 0.32421-1.709 0.373-9.5317 2.5331-3.0697 0.73948-2.498 0.53314-1.5921 0.38643-2.2042 0.66929-1.752 0.74431-1.3637 0.80678-1.1141 0.82747-1.007 0.89235-1.9211 1.9555-1.3193 1.1591-2.573 2.0403-3.9354 3.2178-1.4089 1.0799-1.937 1.3692-1.3721 0.89909-1.4323 0.87983-1.7439 0.97903-1.0356 0.51999-1.0385 0.46693-1.6949 0.62175-1.2585 0.31984-1.259 0.16647-1.6562-0.036873-1.6791-0.23478-7.4726-1.3092-8.0266-1.5179-1.9699-0.41954-1.1287-0.29326-1.807-0.60168-1.4377-0.58761-2.321-1.052-0.94228-0.464-1.0979-0.60084-1.5254-0.98273-1.6818-1.1776-0.8803-0.65334-1.4402-1.1733-0.76589-0.7111-0.70198-0.74301-0.68159-0.86092-0.5671-0.90263-0.43542-0.943-0.28705-0.97004-0.1232-1.4859 0.2961-1.5673 0.53196-1.1774 0.89791-1.2622 0.98845-1.0461 2.022-1.9062 1.043-1.1735 0.82933-1.312 0.43311-1.1782 0.13791-1.2263-0.076474-0.74697-0.19391-0.71996-0.33929-0.74726-0.45697-0.68614-0.89199-0.89497-1.1045-0.66635-0.96747-0.30549-1.0378-0.11402-1.3057 0.072551-1.6098 0.288-4.0782 1.0212-1.131 0.20218-1.6855 0.14458-1.9485-0.072336-1.3531-0.20228-1.3076-0.33211-1.7004-0.7022-1.4402-0.9792-1.1536-1.2881-0.71914-1.409-0.34431-1.415-0.061485-0.82151 0.057413-1.153 0.19592-1.2051 0.51239-2.1522 0.12614-0.71017 0.12377 0.059966 0.29735 0.014607 0.57734-0.027614 1.5737-0.2266 1.074-0.23327 1.4168-0.37434 2.4529-0.77061 1.3325-0.46816 2.5767-0.99182 2.5367-1.0886 1.2971-0.59939 2.8747-1.4165 4.0886-2.1579 6.6435-3.6147 2.8275-1.4418 1.4288-0.68322 1.4279-0.64669 2.3319-0.9668 1.8843-0.69153 2.264-0.7294 2.3738-0.64193 1.0351-0.2279 1.0146-0.18129 1.6558-0.17255 0.9418-0.002286 0.90612 0.081142 1.2627 0.21758 2.4767 0.51722 1.2532 0.13781 1.5892-0.075328 1.5974-0.27344 4.7026-1.0474 1.0443-0.17768 2.2934-0.24838 1.1676-0.20158 1.6695-0.52763 1.7173-0.77666 1.3335-0.71946 1.3183-0.78833 1.6063-1.0502 3.1393-2.262 6.4924-4.9802 1.6909-1.2409 2.5832-1.7573 1.3037-0.81328 1.4539-0.83895 1.4557-0.75795 1.4525-0.65923 1.4441-0.53732 1.4021-0.37993 0.83799-0.14515 1.2187-0.084864 1.1783 0.077209 0.78336 0.15068 0.96626 0.3004 0.49771 0.21273 0.95993 0.51475 2.0983 1.3501 1.1808 0.66527 1.2203 0.48998 1.2617 0.22136 1.415-0.14416 1.0587-0.32444 1.0913-0.48026 1.1075-0.60237 1.1233-0.69803 1.5689-1.076 1.5935-1.1728 6.3982-4.9209 3.0419-2.1729 1.68-1.1056 1.6911-1.0329 1.6959-0.94171 1.7654-0.8529 1.7669-0.67206 1.7397-0.42079 1.7376-0.11231 1.821 0.26857 1.4468 0.43888 0.87245 0.33276 2.9761 1.3167 3.9665 1.8699 3.6158 1.6195 1.7666 0.69985 1.7084 0.57541 1.619 0.40203 1.4893 0.16777 1.3758-0.13249 1.0841-0.41256 0.68012-0.64533 0.1521-0.43764-0.021873-0.48558-0.15285-0.47478-0.23993-0.46496-0.69291-0.98697-2.1046-2.5241-1.5034-1.6955-1.7313-1.8095-0.8159-0.78051-0.82028-0.71941-1.2642-0.96778-1.3419-0.89341-1.4045-0.83863-1.2868-0.7092-1.3156-0.68081-2.4284-1.1624-2.4847-1.0722-2.2654-0.86706-2.4776-0.82212-2.9233-0.79433-2.6279-0.56309-3.5881-0.61608-3.4314-0.46651-4.487-0.52679-2.3798-0.39125-1.9431-0.42478-2.1711-0.59851-1.1952-0.37674-4.326-1.5053-4.1396-1.528-8.3131-3.1523-6.2465-2.4203-4.1291-1.6789-2.0332-0.87991-1.9958-0.92276-1.9396-0.98265-1.858-1.065-1.7421-1.1768-1.5805-1.3262-1.42-1.5561-1.223-1.7002-1.0463-1.7875-0.87124-1.8238-0.67851-1.8111-0.44723-1.7473-0.15387-1.6261 0.22871-1.4369 0.47861-0.92355 0.53435-0.62972 0.54079-0.47679 0.60079-0.42915 0.77584-0.44865 0.89817-0.38456 0.58302-0.16493 0.51686-0.080213 0.72176-4.99e-4 0.70706 0.10708 0.81052 0.21451 2.7029 0.87283 1.4274 0.33711 1.3815 0.20774 1.4792 0.12614 0.77544 0.015073 1.8104-0.14267 1.845-0.35041 1.8578-0.50813 1.849-0.627 1.8172-0.71647 2.5254-1.1574 1.6046-0.86672 1.4366-0.9518 1.1974-1.0747 0.86974-1.2446 0.42466-1.223 0.14791-0.99185 0.022723-1.3099-0.1583-1.6795-0.30218-1.73-0.39077-1.7438-1.221-4.9377-0.21858-1.1474-0.1032-0.9747 0.025181-0.6868 0.11064-0.46181 0.24868-0.44202 0.21436-0.2167 0.39559-0.22822 0.27877-0.085368 0.72951-0.064398 0.45828 0.040215 1.1812 0.24588 2.2872 0.69039 7.9347 2.8213 2.1144 0.70619 2.1289 0.64211 2.1314 0.53954 0.72583 0.15114 1.5118 0.23706 1.7547 0.16758 3.0738 0.1091 2.5969-0.037639 2.5986-0.13587 2.8903-0.28755 1.2042-0.19314 1.165-0.26106 1.0663-0.33413 1.0115-0.43958 1.3747-0.87501 1.2137-1.1239 1.0288-1.3463 0.81101-1.5477 0.66857-2.1367 0.36624-2.303 0.13637-2.3418-0.02585-2.2108-0.090255-1.5361-0.1466-1.4841 2.535 0.19455 1.9986 0.027082 1.2153-0.082058 2.7212-0.32815 1.5387-0.048609 1.2191 0.080624 4.2014 0.45592 1.2409 0.061954 0.85614-0.013611 0.8671-0.080073 1.1608-0.26004 0.70944-0.26787 0.32976-0.16683 0.52922-0.36317 0.31414 0.48449 2.1949 2.6418 1.0224 1.4029 0.51163 0.81772 0.34252 0.62796 0.46436 1.0327 0.44115 1.2637 0.36246 1.3293 0.27398 1.222 1.1488 6.182 0.65182 2.8626 0.56159 2.1431 0.61183 2.1236 1.0155 3.1888 1.3085 3.6607 0.81746 2.0561 0.65242 1.5168 0.68651 1.497 0.99831 2.0337 1.0461 2.0037 1.085 1.976 1.1304 1.9462 1.9242 3.0398 1.5047 2.1821 4.7665 6.6719 2.0785 2.8722 2.2538 3.0034 9.4606 12.101 2.3179 3.0194 0.97338 1.3368 0.87366 1.2888 0.79185 1.3333 0.56427 1.2444 0.25027 1.0676-0.10862 0.94272-0.39779 0.65134-0.64188 0.56455-0.62676 0.38044-0.72403 0.34014-0.8448 0.31632-0.91751 0.27806-1.9188 0.43415-1.8868 0.29563-4.4003 0.50546-2.0135 0.30124-0.91855 0.19926-0.8405 0.24778-1.1266 0.52489-0.49464 0.38473-0.60941 0.8806-0.26406 1.0535 0.060572 1.1459 0.38422 1.1636 0.37196 0.65881 0.79343 1.0587 1.0593 1.1871 2.4583 2.6387 1.4356 1.6902 0.92461 1.2909 0.86312 1.4527 0.4122 0.81904 0.4446 1.0464 0.21323 0.61395 0.24649 0.91769 0.21575 1.269 0.27013 2.5827 0.19109 0.93788 0.16909 0.52745 0.32958 0.72855 0.39698 0.62282 0.45552 0.52872 0.5469 0.46699 0.67739 0.38074 0.70782 0.20173 0.33648 0.04934 0.49045 0.036791 0.94111-0.003781 6.3872-0.39163 1.5102-0.043079 0.78623 0.019526 1.466 0.14206 0.79463 0.15814 0.81512 0.25348 1.3767 0.72566 1.0799 0.84934 0.51471 0.49452 0.7698 0.84512 0.82938 1.043 0.6912 0.98986 0.70173 1.1532 0.75914 1.4939 0.58194 1.4538 0.35285 1.1616 0.22447 1.0512 0.090892 0.68597 0.04616 0.83735-0.010448 0.73318-0.043136 0.6415-0.16338 1.2111-0.52773 2.6864-0.12739 0.55294-0.21572 0.67102-0.28219 0.58611-0.24043 0.36792-0.41895 0.50702-0.54804 0.52731-0.86878 0.65686-1.1874 0.69198-4.2087 2.0254-0.89651 0.46339-0.82479 0.49281-0.70285 0.50826-0.54481 0.48233-0.4186 0.45101-0.4235 0.57466-0.32614 0.58695-0.21468 0.53149-0.16084 0.56596-0.1161 0.68384-0.038058 0.72969 0.10204 1.0987 0.26837 1.0704 0.48597 1.2296 0.32987 0.66739 0.57511 1.0077 1.1392 1.6837 1.1566 1.4701 1.0809 1.2271 0.76389 0.78039 0.79647 0.74555 0.99168 0.8449 1.0228 0.78146 1.7013 1.1026 1.4511 0.74298 0.8406 0.33934 0.65747 0.2144 0.60794 0.15166 0.79078 0.11689 0.66582 0.018766 0.62859-0.053507 0.81715-0.17476 0.69834-0.24277 0.87245-0.42333 1.038-0.68141 0.82119-0.68496 0.74104-0.74122 0.7216-0.85657 0.47936-0.66083 0.56483-0.88787 0.4434-0.78403 1.3395-2.6195 0.72506-1.2127 0.40244-0.55022 0.4785-0.57238 0.59234-0.62174 0.75766-0.69322 0.81934-0.65007 0.81713-0.56483 1.4657-0.84615 0.90389-0.42262 0.79024-0.30934 0.93212-0.29369 1.0893-0.24587 1.0156-0.13446 1.0998-0.041076 1.0295 0.069163 0.69392 0.12006 0.90552 0.2366 1.6619 0.5694 3.1061 1.1542 5.1826 2.0603 1.8173 0.5528 1.3333 0.28819 1.7382 0.25589 4.8896 0.42355 5.4652 0.59969 1.9324 0.17869 1.2566 0.069516 1.5932-0.015737 1.1417-0.10043 0.84139-0.12566 0.84398-0.17357 1.1506-0.31238 0.87163-0.29518 0.91367-0.36911 0.9235-0.44692 0.97383-0.5681 0.6206-0.42524 0.83503-0.66175 0.63633-0.58652 0.68806-0.72737 0.76743-0.93569 0.65747-0.92715 0.70016-1.1379 0.58208-1.0895 0.59978-1.304 0.14971-0.44217" stroke="#bdc660"/>
    </defs>
    <g clip-path="url(#p3224f7681b)">
     <use y="280.512" fill="#bdc660" stroke="#bdc660" xlink:href="#m01647ba4ec"/>
    </g>
   </g>
  </g>
 </g>
 <defs>
  <clipPath id="p3224f7681b">
   <rect x="7.2" y="7.2" width="339.93" height="266.11"/>
  </clipPath>
 </defs>
</svg>
