<?xml version="1.0" encoding="UTF-8"?>
<!DOCTYPE svg  PUBLIC '-//W3C//DTD SVG 1.1//EN'  'http://www.w3.org/Graphics/SVG/1.1/DTD/svg11.dtd'>
<svg width="371.52pt" height="196.5pt" version="1.1" viewBox="0 0 371.52 196.5" xmlns="http://www.w3.org/2000/svg">
 <metadata>
  <rdf:RDF xmlns:cc="http://creativecommons.org/ns#" xmlns:dc="http://purl.org/dc/elements/1.1/" xmlns:rdf="http://www.w3.org/1999/02/22-rdf-syntax-ns#">
   <cc:Work>
    <dc:type rdf:resource="http://purl.org/dc/dcmitype/StillImage"/>
    <dc:date>2024-07-04T12:11:07.916688</dc:date>
    <dc:format>image/svg+xml</dc:format>
    <dc:creator>
     <cc:Agent>
      <dc:title>Matplotlib v3.7.1, https://matplotlib.org/</dc:title>
     </cc:Agent>
    </dc:creator>
   </cc:Work>
  </rdf:RDF>
 </metadata>
 <defs>
  <style type="text/css">*{stroke-linejoin: round; stroke-linecap: butt}</style>
 </defs>
 <g id="figure_1">
  <g id="patch_1">
   <path d="m0 196.5h371.52v-196.5h-371.52v196.5z" fill="none"/>
  </g>
  <g id="axes_1">
   <g id="PatchCollection_1" fill="#bdc660" stroke="#bdc660">
    <path d="m91.362 72.391 1.5346 0.42683 0.70578 0.14237 1.2328 0.16665 1.9073 0.081702 1.9304-0.097139 1.388-0.16456 1.3889-0.22573 1.3167-0.26024 1.3074-0.31448 1.1368-0.32367 3.6527-1.0988 5.3392-1.6606 4.1402-1.3524 0.41944-0.099056 0.082206 0.20958 0.26003 0.343 0.80962 0.7178 0.2146 0.22981 0.38279 0.53244 0.33648 0.588 0.30423 0.61228 0.40579 0.93506 0.22848 0.63049 0.26351 0.99179 0.15739 0.98874 0.021087 0.64632-0.072014 0.78251-0.003684 0.59161 0.16846 1.0117 0.49046 1.7462 1.3561 4.2934 4.3378 14.056 0.58582 1.9768 0.53694 1.9621 0.4408 1.9207 0.32538 1.883 0.1988 1.8796 0.032728 0.93617-0.020417 0.82492-0.070534 0.81954-0.12526 0.81164-0.22632 0.957-0.29633 0.94354-0.35271 0.93099-0.36984 0.85277-0.84041 1.6717-0.4659 0.81596-0.49727 0.79869-1.95 2.7888-0.43607 0.70061-0.37865 0.73193-0.32915 0.85254-0.24752 0.8968-0.18051 0.93118-0.12488 0.95496-0.23746 3.7292-0.088807 0.77262-0.13774 0.61098-0.1684 0.35057-0.1836 0.084076-0.072162-0.24348-0.30742-0.28014-0.62753-0.37658-0.83423-0.37365-1.4225-0.45609-1.5993-0.31716-1.4798-0.12874-1.4938 0.030414-1.1723 0.14404-1.1383 0.24047-1.6964 0.53163-3.0937 1.2247-0.89367 0.27913-1.1496 0.16103-0.67994-0.07672-0.96922-0.45265-0.76847-0.8349-0.61726-1.1083-1.0895-2.6339-0.61437-1.3613-0.75651-1.2942-0.87668-1.0961-1.4083-1.4161-2.3016-2.1507-1.829-1.6007-0.79312-0.60716-0.73399-0.49394-1.9799-1.2007-0.69905-0.47355-0.66849-0.52277-0.77419-0.73603-0.68931-0.79354-0.64452-0.84695-1.6127-2.2442-0.6995-0.85233-0.83785-0.88157-0.89205-0.80303-0.84768-0.6603-3.1254-2.2521-0.70253-0.46078-0.94528-0.54575-0.54274-0.25146-0.44228-0.14867-0.60695-0.10992-0.57224 0.008935-0.55948 0.11745-0.94661 0.48241-0.16969 0.13414-0.52992 0.57901-0.36538 0.64881-0.25982 0.73047-0.22439 1.2092-0.050716 1.219 0.040714 0.6379 0.13482 0.69573 0.25193 0.65868 0.19046 0.33284 0.35828 0.4746 0.2444 0.25704 0.48936 0.42469 0.88587 0.57645 1.9421 0.9724 0.95135 0.5194 0.8558 0.58728 0.96132 0.82563 0.54042 0.56495 0.77242 0.96218 0.65948 1.0261 0.38707 0.75826 0.29998 0.77337 0.1439 0.5337 0.072105 0.42539 0.019165 1.1066-0.18065 1.0953-0.24551 0.8623-1.0079 2.7561-0.40452 1.1569-0.26757 0.87857-0.2238 0.88832-0.23832 1.4877-0.028329 1.4437 0.17743 1.5686 0.56135 2.7712 0.26741 1.0655 0.76721 2.6438 0.21843 0.87258 0.20157 0.98087 0.14011 0.98851 0.046835 0.6017-0.005325 1.2971-0.14735 1.2717-0.28904 1.2216-0.34931 0.95458-0.44606 0.88578-0.62372 0.90551-0.73842 0.76715-1.1245 0.74523-0.87122 0.32033-0.92449 0.14782-0.92542-0.019617-1.1906-0.18646-1.2468-0.30366-0.92608-0.26199-2.1475-0.72224-1.612-0.61725-2.0432-0.83271-5.7683-2.5093-1.2393-0.44039-1.246-0.31854-1.1802-0.1513-1.1859 0.001324-1.0869 0.13744-1.0792 0.25304-1.443 0.49348-1.4255 0.61968-3.9561 1.9874-1.3433 0.60897-1.3525 0.4975-1.4117 0.33912-0.98356 0.1008-0.98349-0.012255-1.5658-0.25295-1.5106-0.52919-0.84414-0.4351-1.0619-0.69735-1.0156-0.80906-0.97937-0.89036-1.186-1.1863-2.0275-2.1453-1.6174-1.6387-1.4376-1.2778-2.6017-1.9781-0.48933-0.43305-0.24902-0.29458-0.17004-0.33616-0.040769-0.30543 0.20304-0.55126 0.58322-0.60723 0.60071-0.40198 0.72837-0.37658 1.2088-0.49598 1.3578-0.46217 3.6681-1.1457 1.6609-0.57014 1.1242-0.4241 1.1025-0.47159 1.1919-0.61202 1.1293-0.70597 0.86993-0.6509 0.81301-0.70904 0.98907-1.0248 0.87131-1.1012 0.73813-1.1657 0.64031-1.3725 0.40104-1.4351 0.12171-1.3188-0.094707-1.4563-0.27865-1.4783-0.31525-1.1737-1.394-4.3434-0.41531-1.441-0.37418-1.466-0.35679-1.6077-0.30777-1.6243-0.25849-1.6348-0.21883-1.7585-0.14871-1.7566-0.068765-1.54-0.095337-4.1942-0.073306-1.283-0.13515-1.2377-0.23801-1.1746-0.41054-1.1434-0.62842-1.0525-0.88184-0.99946-0.85306-0.75618-0.9316-0.71446-0.90432-0.62907-0.90659-0.57109-0.9189-0.51324-1.3455-0.63259-1.1818-0.45-0.95284-0.24207-0.46932-0.004677 0.60308-1.6942 0.17246-0.63425 0.099998-0.63096 0.006821-0.61904-0.035151-0.29854-0.13267-0.51001-0.20302-0.47641-0.26609-0.43173-0.16046-0.19224-0.33376-0.29076-0.45141-0.27434-1.8046-0.83575-0.7854-0.43195-0.66167-0.50807-0.55975-0.56464-0.45515-0.60921-0.12125-0.23655-0.17816-0.51319-0.10287-0.62367-0.025975-1.1127 0.12272 0.038363 0.167-0.18286 0.16672-0.29377 0.27647-0.6109 1.1804-2.9174 0.6775-1.5526 0.72798-1.4791 1.0893-1.9995 1.1034-1.8505 1.3712-2.094 0.94472-1.3847 0.95115-1.3184 0.97884-1.219 1.0307-1.082 1.11-0.90132 1.3711-0.75715 1.4617-0.50074 1.4442-0.2609 1.0671-0.060227 1.0626 0.062367 0.98097 0.18421 1.0299 0.34012 1.0472 0.49073 1.0279 0.599 1.0169 0.67886 1.097 0.79739 4.8016 3.6669 1.3342 0.94656 1.2307 0.81594 1.8329 1.1105 2.2059 1.2115 2.5987 1.289 2.1541 0.91346 1.2792 0.45214 1.6322 0.44578 1.2247 0.21749 1.2438 0.15128 6.184 0.5673 1.6003 0.20408 1.9547 0.36399 1.7261 0.45051 1.2643 0.40832 1.2508 0.45986 1.4641 0.59322 3.9155 1.6981 1.0202 0.41761 1.5064 0.54395" clip-path="url(#pd6b2a4e907)"/>
    <path d="m245.2 75.043 2.0593 0.004394 3.3736-0.16627 1.8713-0.058041 1.3828 0.047307 2.0817 0.19815 1.1786 0.029997 1.0512-0.089157 1.0478-0.18223 3.1267-0.76121 0.89469-0.14453 0.98341-0.063766 0.94704-0.021988 0.95896-0.075837 0.44977-0.086534 0.84373-0.2763 0.8275-0.41163 0.98265-0.68718 0.37172-0.32494 0.70112-0.70762 1.7218-2.0602 0.79796-0.87138 0.62005-0.5756 0.64635-0.43392 0.44333-0.19896 1.0447-0.25656 2.036-0.18045 1.244-0.24407 0.70126-0.25002 1.0134-0.4706 3.7589-2.053 1.1279-0.52139 1.09-0.41256 1.1252-0.32843 0.68331-0.14982 0.96304-0.14873 4.0211-0.3324 4.524-0.48649 1.101-0.086905 1.1068-0.057952 2.0948-0.031623 5.7814 0.10093 0.84072-0.039135 0.95278-0.104 1.2264-0.24432 1.2997-0.40217 1.1957-0.50657 1.417-0.77529 0.92565-0.61872 0.81823-0.62942 0.95693-0.84557 2.088-2.1609 0.98588-0.92529 0.4549-0.36267 0.61111-0.42242 0.56393-0.32857 0.63517-0.30378 0.55649-0.20997 0.57766-0.16232 0.61425-0.10709 0.74144-0.03027 0.36896 0.030934 0.544 0.10883 0.45717 0.15224 0.45229 0.20452 0.42253 0.23772 0.54823 0.37616 0.18738 0.16361 0.087643 0.12185 0.1538 0.27323 0.82771 1.1512 3.2376 4.2931 1.0253 1.2102 1.6484 1.7929 0.85191 1.0925 0.5507 0.87015 0.31426 0.62342 0.20352 0.51196 0.20301 0.71314 0.11194 0.67869 0.062944 0.76535 0.11967 5.3438 0.16265 2.637 0.17599 1.5901 0.13168 0.8761 0.133 0.73216 0.31008 1.3447 0.39346 1.2941 0.24399 0.67352 0.65866 1.5499 0.85777 1.7088 1.8927 3.5352 1.7973 3.657 0.6527 1.4481 0.55174 1.5615 0.44731 1.6763 0.29263 1.4641 0.60094 3.9802 0.73504 4.1316 0.22914 1.5653-0.28803 0.046764-1.0283 0.064734-1.4739-0.002706-1.5879-0.11157-0.81302-0.093354-1.2117-0.1876-1.4002-0.29498-0.77047-0.19669-1.561-0.48039-0.98756-0.37067-1.0864-0.47637-1.3582-0.67736-1.5958-0.87592-1.237-0.78633-2.9427-2.0651-0.81573-0.5073-0.62357-0.33117-0.45126-0.20265-0.71223-0.24963-0.83076-0.18829-0.69452-0.081138-0.63607-0.016667-0.73317 0.055786-0.51497 0.08798-0.58995 0.15348-0.68127 0.24208-0.79973 0.35448-1.0976 0.5942-1.4504 0.94998-0.7061 0.536-0.62831 0.53157-0.9739 0.95848-0.48247 0.5511-0.49343 0.64656-0.2887 0.44099-0.46793 0.91145-0.26211 0.75727-0.12459 0.58595-0.047941 0.51235 0.053157 0.708 0.11126 0.41159 0.15581 0.37197 0.29888 0.50776 0.61598 0.75751 0.89834 0.87532 0.64026 0.55964 1.0244 0.82498 1.3557 1.023 2.9171 2.0998 0.85374 0.68147 0.82665 0.75556 0.51075 0.54836 0.41151 0.50403 0.54502 0.79296 0.33935 0.6169 0.20018 0.43472 0.34623 0.93965 0.18707 0.66471 0.15797 0.73883 0.13243 0.91852 0.085328 1.3062-0.029279 1.7476-0.11527 1.7453-0.51066 5.322-0.12665 1.6618-0.047191 1.4844 0.072285 1.1822 0.16196 0.6165 0.24525 0.17554-0.30059 0.17631-0.72166 0.27364-4.0483 1.2976-0.93943 0.35327-0.91751 0.42305-0.705 0.40415-1.0625 0.77162-0.98915 0.90351-0.92286 1.0064-0.4224 0.51164-0.84598 1.0952-1.1744 1.6321-0.73602 1.1038-0.96659 1.557-1.5773 2.7447-1.1623 1.8997-1.9939 2.9146-0.92436 1.2358-0.44684 0.548-0.69664 0.76524-0.73322 0.70896-1.4007 1.1891-0.97246 0.7154-1.5287 0.93853-0.73044 0.36886-1.3127 0.55009-1.3624 0.4481-1.7999 0.44109-1.8408 0.30929-1.6215 0.1743-1.6284 0.1079-3.9342 0.17462-1.513 0.1238-1.7327 0.2112-2.3107 0.41571-1.6122 0.37199-1.9034 0.50985-1.8939 0.5751-1.8815 0.63615-1.865 0.69845-1.8431 0.76726-2.9333 1.3884-4.89 2.4711-1.6487 0.78143-1.67 0.72157-1.925 0.71745-1.5506 0.49394-1.5535 0.44475-3.6345 0.93543-1.731 0.3952-1.6258 0.32878-1.4699 0.23881-1.2464 0.11508-0.9332-0.055117-0.5019-0.28764 0.025727-0.57096 0.46062-0.80481 0.78003-0.97705 1.0109-1.1026 2.4618-2.4525 5.6029-5.4143 1.3883-1.4181 1.3337-1.4431 1.2466-1.4715 1.1173-1.5048 0.58311-0.91249 0.75102-1.3925 0.57885-1.372 0.38261-1.3106 0.1472-1.1999-0.14304-1.0298-0.50166-0.7899-0.8677-0.48431-1.175-0.24014-1.3846-0.040841-1.4871 0.11654-1.3141 0.20027-1.1723 0.24446-0.87053 0.23182-0.35109 0.15046-0.34817 0.045672-3.9464 1.1234-3.682 0.93859-1.9493 0.42112-1.9453 0.34719-1.9163 0.24625-1.8686 0.11447-1.8056-0.054468-1.7278-0.26917-1.704-0.54321-1.6225-0.76241-1.5566-0.92299-1.502-1.0391-1.3241-1.0163-2.3519-1.9815-1.3811-1.2539-1.3261-1.2773-1.0425-1.0744-0.97482-1.0938-0.6371-0.78902-0.5825-0.80523-0.66265-1.0873-0.48792-1.0442-0.29521-0.86353-0.21469-0.87966-0.15478-1.0503-0.051308-1.0513 0.041798-0.9454 0.1248-0.92822 0.18529-0.82248 0.22941-0.76314 0.81722-2.3159 0.4118-1.4031 0.30567-1.4582 0.39958-2.2357 0.31502-1.3901 0.38263-1.1865 0.40818-0.90943 0.46064-0.80607 1.293-2.0103 0.31306-0.5975 0.23469-0.60156 0.10065-0.40021 0.052959-0.43626-0.01805-0.54129-0.06261-0.36164-0.15435-0.53313-0.48033-1.0665-0.53805-0.84884-0.39734-0.4982-0.36024-0.37442-0.24617-0.21999-0.70064-0.51553-0.91491-0.53417-2.6446-1.4153-1.0363-0.66769-0.78924-0.62969-0.76327-0.73397-0.9007-1.0557-0.57135-0.78778-0.65222-1.0009-1.1016-1.8168-0.6647-1.1817-0.70977-1.4351-0.93193-2.1246-0.72098-1.8655-0.35279-1.0736-0.35064-1.2693-1.2831-5.1957-0.23005-1.1865-0.13328-0.97055-0.086196-0.98896-0.042866-1.186 0.044125-1.9639 0.31651-4.9761 0.028328-1.6611-0.023422-0.87292-0.14544-1.9125-0.22988-1.664-0.37529-1.6593-0.48751-1.3575-0.57787-1.1846-0.58577-0.94728-0.45368-0.56986-0.30811-0.19139 0.15586-0.12269 0.37864-0.39476 0.55791-0.6491 1.2659-1.6539 0.77988-1.1517 0.74728-1.2202 0.68603-1.248 0.61935-1.288 0.48835-1.2827 0.30734-1.2752 0.056988-0.4691-0.032349-1.4292-0.30037-1.4177-0.51454-1.3963-0.68524-1.3661-0.82295-1.3272-0.90221-1.2449-0.96853-1.2157-2.9124-3.538-1.7878-2.3855-1.6636-2.4463-1.1814-1.8953-0.86728-1.5086-0.97676-1.9272-0.44008-1.0964-0.23121-0.88877-0.066714-0.8771 0.13469-0.90265 0.31096-0.90475 0.46562-0.94607 0.58432-0.95165 0.68309-0.95053 1.0645-1.2873 0.94466-1.0209 1.0023-1.0049 1.0439-0.98824 2.2293-1.9669 0.86498-0.71138 1.3261-0.98679 0.9726-0.60858 0.84019-0.45666 1.5907-0.74195 1.5351-0.61103 1.5837-0.53751 1.4556-0.41307 1.484-0.35015 1.7384-0.33077 1.7566-0.26676 1.7628-0.21598 3.4868-0.31098 1.686-0.099644 2.4934-0.063502 0.83904 0.024028 1.3829 0.16902 1.2049 0.42625 0.64562 0.43115 0.56075 0.53563 0.49119 0.61166 0.54415 0.84567 0.46099 0.86032 0.55558 1.1773 0.3728 0.25364 0.57796 0.55691 0.66782 0.7577 0.65703 0.87954 0.44307 0.72271 0.34604 0.76313 0.21404 0.77518 0.074613 0.79208-0.027543 0.47606-0.30178 1.2842-0.51138 1.245-2.0038 3.9168-0.32732 0.79502-0.25746 0.81046-0.25463 1.399-0.098423 1.4103-0.049181 2.0646-0.065668 0.92586-0.14007 0.88736-0.29837 1.3126-0.31868 1.1091-0.51761 1.4402-0.49818 1.0832-1.0099 1.8525-0.42009 0.95078-0.30186 1.0026-0.11466 0.69094-0.080064 1.201-0.060011 1.6151-0.12812 1.6958-0.014275 0.82168 0.040361 1.8914 0.12738 1.0857 0.22623 0.8784 0.32981 0.9021 0.36007 0.81172 0.91169 1.7193 0.54315 0.8986 1.3087 1.9455 0.88492 1.1674 0.96715 1.15 1.0103 1.0879 0.96511 0.94146 0.97971 0.85992 1.0469 0.80809 1.0282 0.6792 0.70591 0.39946 1.292 0.67538 0.59984 0.27494 0.68592 0.22596 0.66532 0.12603 1.6563 0.065758 2.2272 0.32707 1.0183 0.071986" clip-path="url(#pd6b2a4e907)"/>
   </g>
  </g>
 </g>
 <defs>
  <clipPath id="pd6b2a4e907">
   <rect x="7.2" y="7.2" width="357.12" height="182.1"/>
  </clipPath>
 </defs>
</svg>
