<?xml version="1.0" encoding="UTF-8"?>
<!DOCTYPE svg  PUBLIC '-//W3C//DTD SVG 1.1//EN'  'http://www.w3.org/Graphics/SVG/1.1/DTD/svg11.dtd'>
<svg width="166.35pt" height="280.51pt" version="1.1" viewBox="0 0 166.35 280.51" xmlns="http://www.w3.org/2000/svg" xmlns:xlink="http://www.w3.org/1999/xlink">
 <metadata>
  <rdf:RDF xmlns:cc="http://creativecommons.org/ns#" xmlns:dc="http://purl.org/dc/elements/1.1/" xmlns:rdf="http://www.w3.org/1999/02/22-rdf-syntax-ns#">
   <cc:Work>
    <dc:type rdf:resource="http://purl.org/dc/dcmitype/StillImage"/>
    <dc:date>2024-07-04T12:11:06.800561</dc:date>
    <dc:format>image/svg+xml</dc:format>
    <dc:creator>
     <cc:Agent>
      <dc:title>Matplotlib v3.7.1, https://matplotlib.org/</dc:title>
     </cc:Agent>
    </dc:creator>
   </cc:Work>
  </rdf:RDF>
 </metadata>
 <defs>
  <style type="text/css">*{stroke-linejoin: round; stroke-linecap: butt}</style>
 </defs>
 <g id="figure_1">
  <g id="patch_1">
   <path d="m0 280.51h166.35v-280.51h-166.35v280.51z" fill="none"/>
  </g>
  <g id="axes_1">
   <g id="PatchCollection_1">
    <defs>
     <path id="mcf94d4f611" d="m123.26-237.94-0.32374 0.75144-0.079315 0.23423-0.049169 0.23958-0.007908 0.31153 0.035518 0.32029 0.15987 0.99133 0.031981 1.4593-0.019059 0.90277-0.1742 0.83775-0.032608 0.26714 0.022148 0.25782 0.067668 0.18681 0.10825 0.18054 0.19461 0.23074 0.24127 0.2228 0.5751 0.41989 0.65434 0.40014 2.2178 1.2587 0.92629 0.55448-0.10049 0.15464-0.44911 0.4064-0.6873 0.56058-1.767 1.3588-1.986 1.4708-3.0301 2.1782-3.1252 2.1748-1.9244 1.2794-2.0165 1.2903-0.4378 0.32782-0.69324 0.59042-0.45025 0.44009-0.54522 0.61397-0.3108 0.40298-0.28077 0.4096-0.37165 0.64584-0.30149 0.71674-0.15868 0.74375-0.00728 0.21086 0.018231 0.25033 0.063411 0.30437 0.086399 0.25923 0.35342 0.69287 0.56009 0.76619 0.69279 0.75852 0.48574 0.46862 0.51702 0.46361 1.1415 0.93935 0.62888 0.47931 0.82474 0.59326 1.3241 0.87748 2.7763 1.7026 0.72942 0.4653 0.70592 0.48025 0.52049 0.38459 0.55833 0.45494 0.65585 0.60278 0.59839 0.62851 0.42224 0.50354 0.37787 0.51363 0.37932 0.61904 0.2903 0.63182 0.18055 0.64568 0.060607 0.71019-0.049201 0.93459-0.13955 0.98379-0.19681 1.0136-0.66519 3.0446-0.16214 0.95467-0.084984 0.88729 0.028339 0.79028 0.18634 0.65632 0.1661 0.26531 0.11202 0.12996 0.33763 0.28423 0.55014 0.32068 1.0096 0.46402 0.57672 0.32177 0.57472 0.41029 0.6009 0.53821 1.037 0.97999 3.0612 2.6673 0.46314 0.43835 0.58416 0.61878 0.31987 0.40533 0.26736 0.41935 0.33091 0.77022 0.098272 0.33076 0.10157 0.48483 0.074133 0.83502-0.009435 1.5008-0.064393 0.65779-0.15861 0.68455-0.23679 0.68559-0.34142 0.7979-0.64641 1.4232-0.19665 0.546-0.2623 0.8206-0.30817 1.0582-0.33984 1.3048-0.3182 1.4277-0.12955 0.68612-0.11946 0.77289-0.086019 0.78139-0.049184 0.78252 0.001007 1.1838 0.069913 0.90762 0.15719 0.9517 0.185 0.67351 0.28584 0.7163 0.28096 0.61276 0.20482 0.52547 0.047208 0.2982-0.04801 0.024782-0.018575 0.17039 0.07608 0.22761 0.15926 0.2396 0.24013 0.2094 0.15001 0.082772 0.34404 0.1189 0.38752 0.071358 0.75361 0.057219 1.2574 0.010605 2.381-0.023176 1.3777 0.016095 1.273 0.041847 0.977 0.078984 0.99248 0.15814 0.40131 0.097691 0.4735 0.14936 0.62325 0.26415 0.48097 0.26469 0.30121 0.1965 0.2898 0.21286 0.44879 0.37783 0.47149 0.45992 0.6619 0.7549 0.53578 0.69628 0.2117 0.30317 0.19141 0.30128 0.19672 0.36634 0.14084 0.36857 0.082621 0.4424 0.061596 0.89797 0.082946 0.4478 0.1643 0.41696 0.22857 0.4019 0.4628 0.64781 1.0091 1.2741 2.3554 3.0468 0.44067 0.60699 0.059489 0.10685 0.090699 0.12482 0.099676 0.27226 0.081295 0.36487 0.034174 0.32756-0.001899 0.39436-0.118 2.0617-0.1262 1.1403-0.094904 0.63295-0.3481 1.8903-0.39273 1.8237-0.38114 1.6323-0.75942 3.0325-0.87895 4.4877-0.11895 0.47878-0.32487 1.0294-0.11393 0.48664-0.24217 1.262-0.13195 1.0805-0.029169 0.5636 0.007315 0.57505 0.040636 0.50486 0.091869 0.68048 0.10786 0.57697 0.13325 0.57001 0.19664 0.69629 0.35612 1.1416 0.091592 0.33188 0.021382 0.16702-0.11146 0.078996-0.24818 0.27446-1.6631 2.0331-1.0137 1.1403-0.74557 0.79847-0.62489 0.59761-0.32866 0.2848-1.0469 0.80542-0.84709 0.55557-0.4696 0.26344-0.44964 0.21536-0.44749 0.17402-0.50915 0.14151-0.49795 0.069034-0.35104-0.002513-0.33951-0.053092-0.39665-0.13668-0.38555-0.19869-1.5381-1.0084-1.7558-1.0902-1.3188-0.85632-2.0725-1.2641-0.94778-0.61455-0.34015-0.1804-0.23841-0.092053-0.46074-0.089302-0.255 0.014739-0.25979 0.059531-0.31254 0.12479-0.31135 0.17846-0.40145 0.30942-0.44009 0.43741-0.71893 0.86055-2.1022 2.7816-0.90398 1.0644-0.43622 0.4611-0.77378 0.72978-0.31232 0.25983-0.36584 0.26525-0.14722 0.045698-0.077139 0.064944 0.01872 0.21277 0.13363 0.25846 0.29561 0.39185 0.36098 0.39647 1.226 1.2449 0.40466 0.44275 0.43129 0.51913 0.54239 0.75779 0.58666 0.9959 0.49314 1.0501 0.14218 0.35867 0.31624 0.91864 0.15951 0.52638 0.74068 2.777 0.21894 0.70974 0.51183 1.403 0.9475 2.232 0.28729 0.74462 0.49542 1.5363 1.1189 3.1733 0.19041 0.69976 0.11195 0.68915-3.2e-5 0.68028-0.19025 0.83753-0.36147 0.83073-0.34729 0.61199-0.39621 0.61265-0.43028 0.61531-1.6804 2.3058-0.58093 0.85781-0.407 0.65724-0.3713 0.66596-0.2522 0.50914-0.22428 0.51235-0.29798 0.83267-0.21111 0.82708-0.10874 0.74375-0.028258 0.73594-0.0104 1.4585-0.077404 0.70169-0.12174 0.72193-0.16582 0.84202-0.17315 0.74463-0.20236 0.75187-0.23163 0.75261-0.30033 0.83947-0.30924 0.71486-0.20511 0.40299-0.21664 0.37936-0.37421 0.58123-0.74543 1.013-1.5842 2.0165-0.5356 0.72532-0.39361 0.58131-0.4441 0.7335-0.37218 0.70498-0.39686 0.89171-0.16435 0.43883-0.15694 0.48924-0.15154 0.6043-0.075767 0.44629-0.03897 0.48426 0.029096 0.63414 0.038574 0.24727 0.087161 0.36337 0.056935 0.17899 0.19833 0.46659 0.17968 0.30749 0.34741 0.43552 0.49948 0.43148 0.43554 0.26587 0.54764 0.24668 0.70494 0.25129 0.99405 0.32282 0.79874 0.29731 0.71218 0.31954 0.55153 0.27738 0.46502 0.25114 0.5941 0.35378 0.48066 0.33515 0.28658 0.23383 0.35611 0.34207 0.29183 0.33842 0.22045 0.30272 0.37978 0.65361 0.34183 0.78407 0.26104 0.78727 0.16742 0.63812 0.34636 1.7504 0.15552 0.67068 0.12708 0.41671 0.10373 0.24774 0.096191 0.13732 0.057505 0.006743 0.037959 0.17241-0.066285 0.14029-0.2126 0.2514-0.26329 0.22349-0.24054 0.17116-0.58231 0.35824-0.94914 0.52726-1.0724 0.55684-0.57609 0.27355-1.071 0.43029-0.60636 0.20476-1.937 0.60304-2.1177 0.69335-2.5073 0.76963-1.2938 0.45569-0.66707 0.28788-0.50985 0.26839-0.48094 0.30698-0.63192 0.50725-0.38772 0.38768-0.27671 0.32866-0.27332 0.38146-0.30266 0.51288-0.26889 0.56972-0.23699 0.63276-0.23536 0.77656-0.29881 1.177-0.81744 3.723-0.14415 0.58743-0.12241 0.4151-0.26463 0.65875-0.15496 0.28063-0.19846 0.29039-0.25045 0.29139-0.25601 0.23575-0.19183 0.14234-0.42462 0.23065-0.50792 0.16282-0.71958 0.10086-0.89554-0.006239-0.84491-0.10022-0.91103-0.19574-0.65152-0.19694-0.41938-0.15286-0.65351-0.27931-0.80787-0.4092-1.0772-0.63313-1.906-1.1821-0.58577-0.31933-0.84283-0.39422-1.7323-0.7282-2.6063-1.2295-0.95107-0.40879-0.82295-0.31635-2.9381-0.97086-2.1978-0.77231-0.89466-0.25631-0.51721-0.11987-0.5952-0.10486-0.60283-0.053406-0.4332 0.010753-0.31907 0.054037-0.18272 0.088247-0.035048 0.074152-0.72852-1.7344-0.74293-1.6981-0.48822-1.05-0.52483-1.0595-0.58834-1.1003-0.61761-1.0765-0.63826-1.0465-0.65313-1.0121-0.66472-0.97345-0.67502-0.92977-0.68563-0.87934-0.69775-0.81974-0.77848-0.83477-0.76681-0.7667-0.77606-0.67016-0.70939-0.49508-1.327-0.8242-0.52879-0.404-0.37103-0.44635-0.032633-0.061098-0.053648-0.12224-0.070658-0.27424-0.006758-0.3991 0.069171-0.43286 0.38412-1.4813 0.067758-0.42248 0.044411-0.44014 0.071753-2.0754 0.036686-0.62109 0.083599-0.81376 0.038639-0.8166-0.045992-0.5585-0.10781-0.60337-0.2784-1.0476-0.33163-0.98589-0.29726-0.73219-0.41562-0.86123-0.34065-0.58239-0.37182-0.5288-0.29685-0.35867-2.3294-2.4738-0.53268-0.50197-0.50826-0.42627-0.71659-0.5095-0.64082-0.36504-0.67666-0.29706-0.6104-0.19394-0.47135-0.10167-0.8126-0.085353-0.83616-0.009153-0.71921 0.030312-0.64835 0.06394-0.46117 0.070228-0.50123 0.10071-0.94695 0.26322-0.45533 0.16167-0.76034 0.32408-0.66559 0.35152-0.35061 0.22139-0.57593 0.4446-0.29045 0.28165-0.23677 0.28049-0.13683 0.2009-0.12282 0.23684-0.064695 0.21218-0.003944 0.12091 0.087038 0.12598-0.30964-0.063508-0.37947-0.12383-0.27403-0.11876-0.55613-0.28912-0.25126-0.093047-0.20581-0.002133-0.45359 0.16684-0.10996 0.001566-0.090228-0.046566-0.090591-0.10644-0.11601-0.24015-0.076893-0.25972-0.037681-0.25892 0.005852-0.16856 0.043991-0.17573 0.21079-0.46186 0.011304-0.1212-0.032262-0.059006 0.3969-0.20532 0.05016-0.056493-0.14333-0.079963-0.80743-0.27183-0.13362 0.012109-0.1187-0.013501-0.40416-0.10243-0.30971-0.1539-0.20609-0.17932-0.13918-0.18257-0.2286-0.48664-0.15712-0.62128-0.089822-0.67768-0.039581-0.66992 0.003848-0.94555 0.039706-0.63683 0.12141-0.87919 0.46188-1.9673 0.10554-0.55295 0.052738-0.42852 0.016334-0.3925-0.027891-0.42971-0.17057-0.71448-0.14571-0.38456-0.34761-0.73378-1.0699-1.9798-0.28224-0.65473-0.10311-0.3489-0.055459-0.35922-0.010173-0.20885 0.011158-0.84851-0.017017-0.33556-0.066009-0.47086-0.31802-1.4111-0.42141-2.0207-0.15714-0.83692-0.12544-0.84931-0.095126-0.81858-0.14237-1.8882-0.045229-0.31324-0.058576-0.24699-0.090907-0.26013-0.11502-0.23085-0.15261-0.22097-0.16284-0.18489-0.23098-0.21986-0.51592-0.43322-1.0298-0.77144-0.95448-0.78604-0.83205-0.77859-0.2791-0.29788-0.093673-0.16094-0.84219-0.90205-2.4432-2.4929-0.37166-0.45393-0.33112-0.49168-0.48002-0.88592-0.30998-0.6582-0.59074-1.4102-0.27793-0.6125-0.3429-0.65643-0.40557-0.65555-0.33927-0.47612-0.36502-0.45742-0.69582-0.75326-0.81621-0.74616-0.86381-0.67785-0.79635-0.562-2.2341-1.4886-0.97734-0.70888-1.1732-0.9585-1.9568-1.7103-0.98726-0.77888-1.0368-0.69303-0.68209-0.4116-2.8528-1.599-1.4344-0.8496-0.69071-0.45661-0.65244-0.48523-0.59143-0.51793-0.50154-0.5501-0.36955-0.53885-0.25892-0.50595-0.14108-0.40297-0.001262-0.20676 0.034726-0.11754 0.13305-0.26316 0.20628-0.34955 0.2649-0.3936 0.34039-0.44198 0.38049-0.44316 0.82586-0.86457 0.85683-0.82533 0.85617-0.78998 3.7161-3.332 2.7816-2.5655 1.5812-1.4005 3.2913-2.8307 0.87922-0.71744 0.92018-0.70462 0.9674-0.65778 0.93076-0.5302 0.8427-0.40735 0.32186-0.13338 0.22276-0.060901 0.24671 0.12372 1.3598 0.88419 2.7956 1.9044 1.2736 0.90052 2.1028 1.5982 1.4202 0.97484 0.95356 0.59492 0.77288 0.43023 0.64529 0.30163 0.58404 0.21173 0.85277 0.17991 0.82706 0.007998 0.84215-0.10776 0.84856-0.15125 0.86594-0.12509 1.8336-0.089897 1.002-0.075328 1.0345-0.11802 1.0549-0.15126 1.0644-0.17803 2.1168-0.42333 1.0304-0.2447 0.99426-0.2702 0.94145-0.30141 0.86773-0.34112 0.76762-0.39252 0.19977-0.12615 0.5028-0.39936 0.36331-0.38919 0.34874-0.45186 0.49575-0.73413 0.25835-0.35488 0.34572-0.42302 0.29197-0.30183 0.30711-0.24466 0.33751-0.19447 0.38257-0.14526 0.18633-0.051192 0.52729-0.095196 1.2757-0.18032 0.60893-0.16855 1.0207-0.37557 0.40674-0.18372 0.26354-0.14149 0.43398-0.27258 0.50397-0.37107 1.5048-1.2597 0.7033-0.51583 0.73011-0.4408 0.37449-0.18324 0.53352-0.22734 0.53877-0.18126 0.54872-0.12699 1.0933-0.21239 0.58712-0.17152 1.6482-0.63083 0.93379-0.29167 0.4532-0.17457 0.43566-0.23746 0.27428-0.18761 0.61796-0.48898 1.2082-1.0204 1.4949-1.2103 0.46544-0.43204 0.24791-0.26322 0.39429-0.47833 0.59938-0.85976 0.41461-0.71402 0.43283-0.87572 0.31446-0.71868 0.29763-0.7472 0.27808-0.76732 0.28888-0.89134 0.25015-0.89411 0.19013-0.82372 0.13934-0.79571 0.21513-1.9812 0.058573-0.38877 0.049041-0.13524-0.058387-0.034084-0.12491-0.23158-0.15756-0.38827-0.15392-0.50617-0.1426-0.72016-0.20924-1.6423-0.13047-0.84977-0.16311-0.75772-0.18564-0.74722-0.37241-1.3761-0.3043-0.81016-0.36839-0.7656-0.42095-0.70483-0.46562-0.62493-0.50583-0.52179-0.43607-0.33836-0.56451-0.34998-0.56185-0.24065-0.28529-0.071402-1.0548-0.1334-0.32983-0.098374-0.28303-0.18966-0.2099-0.26919-0.13494-0.34661-0.20169-0.83275-0.24679-0.64976-0.15147-0.31897-0.18406-0.31956-0.29969-0.40444-0.45081-0.49212-0.44827-0.42887-0.51723-0.46093-2.0066-1.7027-0.66528-0.5935-0.63173-0.61251-0.57527-0.63729-0.49106-0.66961-0.39922-0.73636-0.30614-0.75243-0.2419-0.73924-0.1219-0.43491-0.076651-0.36451-0.043506-0.64983 0.08762-0.6413 0.12346-0.45222 0.2007-0.55232 0.2102-0.48425 0.24289-0.4972 0.32028-0.58969 0.77168-1.2361 0.55135-0.79677 0.56836-0.77691 1.6788-2.159 0.072013-0.12724 0.11974-0.19496 0.10221-0.48402 0.045361-0.7674 0.007048-1.1218 0.047604-1.5119-0.015675-1.4642-0.076483-0.78909-0.12085-0.5681-0.21175-0.6352-0.33994-0.63896-0.43294-0.57895-0.49293-0.51408-0.99551-0.8569-0.56571-0.52092-0.61213-0.6772-0.4247-0.63586-0.28562-0.69912-0.10968-0.7065 0.006453-0.74585 0.077128-0.76995 0.30453-2.1149 0.14324-1.1972 0.17194-2.7027 0.015612-0.78291-0.091452-1.5322 0.001002-0.69035 0.062677-1.4148 0.011652-0.7101-0.091654-2.5185 0.02154-1.2837-0.016925-1.2268 0.021784-0.53859 0.11025-0.86816 0.18027-0.91798 0.34764-1.4752 0.13987-0.52562 0.21222-0.67668 0.3855-0.96902 1.3624-2.854 0.38114-0.9343 0.6154-1.8807 0.28985-0.74674 0.43018-0.84928 0.20238-0.3326 0.45138-0.61702 0.54926-0.5877 0.30403-0.23996 0.19486-0.068176 0.14145 0.93708 0.10045 0.41514 0.088969 0.22465 0.098964 0.15196 0.10414 0.062596 0.077461-0.01715 0.16185-0.14585 0.25044-0.36332 1.3463-2.361 0.30671-0.60261 0.26844-0.74501 0.18401-0.38735 0.13398-0.18401 0.062996-0.046424 0.04709-0.007229 0.029087 0.025377 0.13767 0.081766 0.38858 0.055242 1.569-0.017285 1.4264 0.022627 1.7143 0.05104 1.4788 0.097575 0.70747 0.078723 0.78903 0.11567 0.74798 0.14075 0.69252 0.16408 1.1728 0.32913 0.47854 0.097785 0.4558 0.043692 0.34865-2.14e-4 0.61915-0.087982 0.61669-0.20659 0.67122-0.3978 0.39301-0.37144 0.30946-0.43571 0.24052-0.54377 0.3587-1.219 0.24229-0.71117 0.57152-1.4486 0.33436-0.79648 0.26399-0.51615 0.30756-0.50322 0.33059-0.4656 1.156-1.5128 1.3533-1.6817 0.51966-0.68668 0.39677-0.58087 0.25933-0.43422 0.31119-0.63246 0.18314-0.50035 0.16727-0.7724 0.069006-0.80635 0.001296-0.82761-0.12983-2.3083-0.018657-0.81432 0.021051-0.55622 0.063479-0.52383 0.15385-0.62351 0.20692-0.58303 0.24654-0.58047 0.29041-0.51955 0.36359-0.42393 0.54055-0.33385 0.62956-0.16313 0.66884 0.00639 0.66121 0.18763 0.46066 0.26102 0.44475 0.34302 1.1425 1.0688 0.81009 0.72426 0.52248 0.43309 1.5589 1.2145 0.4654 0.38267 0.65016 0.62861 0.38416 0.44292 0.35354 0.47282 0.48488 0.81312 0.31233 0.72326 0.24258 0.76646 0.22629 1.0184 0.15632 1.0195 0.069792 0.63979 0.18965 2.9777 0.09172 0.84858 0.17269 1.0883 0.068767 0.3075 0.2131 0.72036 0.36335 0.81069 0.44098 0.71232 0.46086 0.57837 0.40971 0.38928 0.27831 0.11433 0.11084 0.077076 0.17808 0.17526 0.20521 0.23925 0.20348 0.28674 0.17194 0.31234 0.11978 0.32652 0.051533 0.2903 0.013349 0.29101-0.032738 0.82526-0.05453 0.4882-0.081205 0.26621" stroke="#bdc660"/>
    </defs>
    <g clip-path="url(#p5446f4df90)">
     <use y="280.512" fill="#bdc660" stroke="#bdc660" xlink:href="#mcf94d4f611"/>
    </g>
   </g>
  </g>
 </g>
 <defs>
  <clipPath id="p5446f4df90">
   <rect x="7.2" y="7.2" width="151.95" height="266.11"/>
  </clipPath>
 </defs>
</svg>
