<?xml version="1.0" encoding="UTF-8"?>
<!DOCTYPE svg  PUBLIC '-//W3C//DTD SVG 1.1//EN'  'http://www.w3.org/Graphics/SVG/1.1/DTD/svg11.dtd'>
<svg width="185.05pt" height="280.51pt" version="1.1" viewBox="0 0 185.05 280.51" xmlns="http://www.w3.org/2000/svg" xmlns:xlink="http://www.w3.org/1999/xlink">
 <metadata>
  <rdf:RDF xmlns:cc="http://creativecommons.org/ns#" xmlns:dc="http://purl.org/dc/elements/1.1/" xmlns:rdf="http://www.w3.org/1999/02/22-rdf-syntax-ns#">
   <cc:Work>
    <dc:type rdf:resource="http://purl.org/dc/dcmitype/StillImage"/>
    <dc:date>2024-07-04T12:11:09.696569</dc:date>
    <dc:format>image/svg+xml</dc:format>
    <dc:creator>
     <cc:Agent>
      <dc:title>Matplotlib v3.7.1, https://matplotlib.org/</dc:title>
     </cc:Agent>
    </dc:creator>
   </cc:Work>
  </rdf:RDF>
 </metadata>
 <defs>
  <style type="text/css">*{stroke-linejoin: round; stroke-linecap: butt}</style>
 </defs>
 <g id="figure_1">
  <g id="patch_1">
   <path d="m0 280.51h185.05v-280.51h-185.05v280.51z" fill="none"/>
  </g>
  <g id="axes_1">
   <g id="PatchCollection_1">
    <defs>
     <path id="mb594e739b7" d="m166-207.89-3.0353 1.0812-3.8797 1.5352-4.0627 1.5214-0.98556 0.34639-0.80992 0.24539-0.80877 0.20574-1.8149 0.41447-2.4709 0.49901-2.8294 0.72744-2.3431 0.68385-1.1346 0.36225-1.0081 0.37792-0.33137 0.14814-0.53134 0.2768-0.51067 0.3118-0.49054 0.34048-1.6023 1.2248-2.927 2.0675-0.77006 0.5097-1.1277 0.71657-0.90924 0.62523-0.49772 0.38358-0.46346 0.39953-0.52429 0.507-0.50871 0.55179-0.29955 0.35472-0.58963 0.76884-0.57686 0.85055-0.35237 0.57778-0.37468 0.68285-0.17214 0.34717-0.30198 0.68738-0.27662 0.78579-0.16446 0.57965-0.12425 0.51857-0.22632 1.139-0.096836 0.56295-0.044076 0.43015 0.001843 0.44091 0.077908 0.57604 0.14193 0.51265 0.31685 0.73111 0.33936 0.5818 0.28615 0.41164 0.31631 0.3988 0.58206 0.62073 0.48601 0.43233 0.40051 0.31225 0.41785 0.29306 0.43544 0.27661 0.44625 0.25852 0.62757 0.32819 1.8584 0.85557 0.72085 0.38224 0.52896 0.37874 0.41984 0.42786 0.36399 0.49462 0.3349 0.5797 0.29863 0.64547 0.21967 0.59475 0.14981 0.51006 0.12353 0.54214 0.07499 0.43369 0.079625 0.62941 0.0486 0.55298 0.056788 1.0076 0.1248 3.8092 0.071989 1.0736 0.10925 1.2138 0.14999 1.3316 0.15958 1.1763 0.2283 1.4543 0.29157 1.5678 0.19054 0.89062 0.21107 0.8846 0.3531 1.2729 0.35933 1.136 0.49121 1.4292 1.0345 2.7761 0.57956 1.6699 0.28133 0.94439 0.17149 0.67407 0.25095 1.1987 0.14409 0.86374 0.11085 0.8808 0.07276 0.83409 0.04055 0.68886 0.11996 4.1283 0.1928 4.855 0.15087 2.9365 0.10544 1.2765 0.22344 2.1788 0.24365 2.0269 0.10632 0.75315 0.15008 0.65844 0.46126 1.4321 0.083655 0.41405 0.027742 0.44119-0.020218 0.38148-0.056212 0.42741-0.10169 0.51074-0.087785 0.34675-0.14171 0.4618-0.16124 0.43302-0.18083 0.40788-0.18018 0.35075-0.37579 0.62537-1.0167 1.4717-0.5694 0.90263-0.25454 0.54463-0.077145 0.2572-0.048272 0.24911-0.020403 0.26784 0.002981 0.18937 0.041376 0.41305 0.31473 1.7573 0.35208 2.472 0.090764 0.824 0.029995 0.4753 0.007962 0.6693-0.073348 1.5501 0.007666 0.48275 0.020809 0.51147 0.078833 0.41355 0.14233 0.295 0.17662 0.22293 0.44132 0.37568 0.44762 0.28307 0.74466 0.3878 1.0413 0.46103 1.5809 0.61521 1.9985 0.73642 0.94738 0.39179 0.38108 0.18492 0.3749 0.2037 0.64372 0.39535 1.7313 1.1864 0.95654 0.61264 0.71962 0.40623 0.58242 0.28121 0.49074 0.20225 0.50449 0.16759 0.36859 0.092334 0.47622 0.07844 0.47225 0.035377 0.44972 0.003563 1.1884-0.022391 0.38096 0.036192 0.25404 0.056802 0.28861 0.10051 0.30411 0.1617 0.25297 0.17537 0.24163 0.20782 0.12746 0.1301 0.33971 0.43216 0.31574 0.60161 0.25874 0.69128 0.089878 0.2832 0.2026 0.7706 0.3189 1.355 0.1731 0.61888 0.19707 0.62903 0.72893 2.1302 0.19596 0.63421 0.21368 0.76704 0.25009 1.0996 0.13127 0.91593 0.059929 0.88072 0.003103 0.80094-0.043766 0.73478-0.11218 0.041524-0.18352 0.12536-0.38286 0.30983-0.35162 0.31238-0.52528 0.50661-0.36402 0.3887-0.86726 1.0951-0.12717 0.13739-0.1555 0.1331-0.20543 0.10551-0.18322 0.027812-0.077326-0.007828-0.15466-0.054183-0.16613-0.11268-0.16389-0.15386-0.43984-0.46964-0.4314-0.38864-0.34763-0.23713-0.43688-0.19499-0.50236-0.055115-0.51503 0.11323-0.39444 0.211-0.29703 0.21835-0.29172 0.25193-1.6384 1.5583-0.35189 0.38052-0.60665 0.7357-0.3416 0.33741-0.30912 0.23213-0.51983 0.30969-1.0832 0.57524-0.89481 0.52768-0.59219 0.3978-0.50903 0.39776-0.41517 0.3752-0.56126 0.5704-1.9702 2.1723-0.44481 0.4557-0.45774 0.44023-0.39975 0.35768-0.41153 0.34009-0.45897 0.3434-0.47653 0.31396-0.45712 0.26062-0.47089 0.23616-0.62694 0.27713-0.57252 0.22265-1.0824 0.35911-1.6556 0.48933-0.75806 0.27881-0.47397 0.2069-1.0699 0.54527-1.6394 0.9235-1.3394 0.7106-2.0457 0.97462-1.2552 0.63421-0.82725 0.46163-0.37674 0.23235-0.66896 0.45328-2.7863 2.0196-0.33843 0.27585-0.30853 0.29381-0.28316 0.33248-0.22761 0.35999-0.20951 0.54227-0.11966 0.58374-0.11087 1.0126-0.10035 0.74463-0.064577 0.32012-0.13712 0.50767-0.22807 0.60486-0.32361 0.6152-0.11479 0.17414-0.341 0.42131-0.37304 0.35355-0.37423 0.2796-0.3325 0.20031-0.3399 0.1665-0.28238 0.11201-0.3597 0.10789-0.46738 0.070972-0.54045-0.046713-0.37469-0.1349-0.3627-0.20492-0.24804-0.17457-0.31627-0.25724-1.0692-0.96359-0.3367-0.27492-0.096786-0.049884-0.039989-0.005409-0.14797 0.030933-0.53548 0.17494-0.41216 0.16212-0.5982 0.26613-0.42828 0.21359-0.59488 0.33298-0.39331 0.24596-0.49984 0.344-0.49481 0.37713-0.36577 0.30445-0.63873 0.57609-3.445 3.4097-0.9605 0.89845-1.5508 1.3764-0.59225 0.58269-0.2831 0.301-2.0285 2.2952-1.7909 1.9505-0.69261 0.7792-0.50634 0.62191-0.23465 0.33556-0.15948 0.2686-0.14021 0.29369-0.17062 0.55557-0.091439 0.5829-0.11722 1.765-0.08688 0.55364-0.18568 0.6338-0.14614 0.37838-0.3146 0.70072-0.56329 1.0987-0.3887 0.65513-0.33136 0.48641-0.23086 0.30231-0.21141 0.25299-0.44269 0.47314-1.5251 1.456-0.58641 0.59985-0.54063 0.61396-1.878 2.2529-0.68331 0.71768-0.73344 0.67941-0.758 0.62425-0.74852 0.54165-0.68989 0.41825-0.55679 0.23935-0.22033 0.03364-0.10091-0.055828-2.4914-0.63897-1.737-0.40598-1.0808-0.21777-0.53541-0.090498-0.51254-0.071199-0.53747-0.051925-0.49854-0.016753-0.86382 0.027398-0.50014-0.027072-0.60537-0.070571-1.7974-0.25024-0.78363-0.06789-0.97652-0.047433-1.5882-0.03017-3.1918-0.014874-2.2072 0.005073-1.1482 0.019192-1.4583 0.065424-1.0441 0.089554-1.2626 0.16914-1.1319 0.2179-2.4139 0.57578-0.69713 0.18075-1.2226 0.34593-0.85075 0.27-1.121 0.38833-0.90232 0.33767-0.46023 0.19021-0.023685-0.014915-0.018958-0.054696-0.0065-0.13474 0.056537-0.4407 0.71649-3.0419 0.41585-1.3942 0.84158-2.5549 0.25237-0.85176 0.18462-0.69727 0.24319-1.089 0.18688-0.97235 0.13453-0.84478 0.26126-1.8828 0.18452-0.95655 0.26159-1.0068 0.74968-2.4909 0.077809-0.29992 0.095595-0.47382 0.047975-0.45673-0.006054-0.40542-0.029491-0.23694-0.040703-0.20211-0.10467-0.35662-0.21116-0.50839-0.19185-0.36196-0.21997-0.3469-0.18913-0.25452-0.25526-0.29444-0.33002-0.32545-0.33505-0.28378-0.62323-0.45778-2.2752-1.506-1.576-0.93499-1.4658-0.90596-1.0855-0.63661-0.77956-0.4969-0.76421-0.58794-1.2154-1.0186-1.656-1.2954-1.0635-0.79322-0.5307-0.3676-0.59309-0.35837-0.51125-0.26294-0.69601-0.28695-0.94751-0.33095-0.40086-0.19591-0.2114-0.14521-0.2923-0.27621-0.19344-0.24263-0.16347-0.2497-0.25806-0.48843-0.28811-0.67729-0.53454-1.4093-0.30914-0.89234-0.21622-0.52902-0.21672-0.39071-0.18481-0.24597-0.20289-0.20863-0.21083-0.16742-0.24902-0.1437-0.14658-0.059662-0.18592-0.052082-0.28804-0.039374-0.38914 0.010225-0.31113 0.063206-0.22738 0.087855-0.20536 0.13231-0.1032 0.13636 0.00633 0.023676-0.016368 0.029012-0.059792 0.064528-0.17618 0.13765-0.25664 0.15818-0.39596 0.20475-0.66678 0.29651-0.82581 0.33008-0.39538 0.13747-0.47261 0.12985-0.26168 0.052102-0.39346 0.052605-0.464 0.025589-0.31262-0.004049-0.68399-0.065897-0.51834-0.10093-0.40723-0.11153-0.33586-0.11338-0.54569-0.2193-2.3554-1.1252-0.54735-0.28626-0.49309-0.28531-0.53138-0.35552-0.38523-0.3082-0.22118-0.20668-0.4014-0.45667-0.25295-0.35598-0.22533-0.37378-0.17414-0.34001-0.11961-0.27606-0.14021-0.41452-0.072401-0.33484-0.021313-0.24117 0.00188-0.13038 0.074633-0.41938 0.15359-0.39281 0.2175-0.38258 0.40195-0.52758 0.47368-0.48073 0.80951-0.67134 0.39048-0.34701 0.33508-0.38984 0.2564-0.47512 0.10936-0.31231 0.082037-0.33273 0.073045-0.47212 0.038033-0.59069-0.006715-0.60389-0.058849-1.223 0.00509-0.64983 0.052443-0.53888 0.1095-0.74543 0.082423-0.73099 0.013611-0.41381-0.01008-1.2952 0.02518-0.43634 0.065106-0.43533 0.15979-0.56116 0.2277-0.56647 0.48919-1.0238 1.4616-2.9114 0.4525-0.98319 0.39839-0.98666 0.30107-0.92023 0.21856-0.85993 0.076384-0.42752 0.043694-0.4158 0.007453-0.22843-0.01301-0.30432-0.097666-0.51822-0.27336-0.6232-0.38871-0.5587-0.44876-0.50421-0.54801-0.57408-0.29314-0.3659-0.1562-0.21979-0.31966-0.50294-0.90796-1.5365-0.75629-1.2134-0.2209-0.40064-0.24034-0.50258-0.22508-0.56265-0.20912-0.62273-0.30924-1.1048-0.49305-1.9957-0.29954-0.92477-0.25538-0.6673-1.0716-2.488-0.54774-1.3354-0.6187-1.6121-1.1875-3.2469-0.3861-0.95996-0.31665-0.71642-0.40304-0.82621-1.3144-2.4916-0.19897-0.43375-0.25911-0.62294-0.21884-0.58845-0.12057-0.37842-0.16105-0.64753-0.085774-0.57086-0.016964-0.5709 0.019443-0.26177 0.045755-0.30879 0.082463-0.34722 0.12578-0.36732 0.23032-0.47344 0.2358-0.35453 0.37489-0.4202 0.26775-0.23485 0.1781-0.13013 0.18314-0.1125 0.30968-0.15017 0.60106-0.21127 0.78277-0.17427 4.2183-0.743 1.7158-0.32395 1.0221-0.24661 1.9362-0.53742 2.1405-0.5451 0.75153-0.15402 0.66497-0.08862 0.427-0.038268 0.73636-0.032572 0.58164 0.004314 0.85538 0.052451 0.7024 0.082112 0.76463 0.12841 0.89542 0.18326 2.3291 0.56502 0.51352 0.092103 0.38493 0.049458 0.6961 0.044006 0.71363-0.013541 0.56381-0.047019 0.57387-0.089435 0.45328-0.11549 0.37994-0.12414 0.46976-0.1817 0.38294-0.17565 0.68565-0.35303 1.2833-0.7102 0.73078-0.4474 0.47113-0.34284 0.26092-0.21157 0.29512-0.26341 0.25612-0.26028 0.23651-0.27891 0.23443-0.3413 0.12792-0.23399 0.11604-0.26983 0.12856-0.41728 0.089127-0.51753 0.078682-1.4759 0.032093-0.29851 0.070676-0.40784 0.12636-0.48925 0.19497-0.59665 0.34612-0.92787 0.495-1.2603 0.25186-0.72767 0.14343-0.56844 0.057295-0.38136 0.015292-0.40109-0.042749-0.40202-0.1084-0.39721-0.10443-0.25015-0.11522-0.22123-0.22647-0.35174-0.37189-0.461-1.2105-1.3015-0.31227-0.3598-0.43078-0.55394-0.53426-0.80474-0.42646-0.73382-0.39651-0.7647-0.36352-0.79039-0.32518-0.81298-0.35093-1.0578-0.23576-0.85638-0.18092-0.77343-0.15894-0.81238-0.096681-0.617-0.09304-0.81146-0.059724-0.79522-0.048784-1.0642-0.025001-1.5238 0.00715-0.91884 0.053108-1.8394 0.083089-1.6091 0.25774-3.6482 0.086058-1.5539 0.007827-0.88524-0.063512-0.95029-0.087662-0.57288-0.12218-0.57066-0.1377-0.52255-0.15844-0.52228-0.29811-0.86053-0.33603-0.86362-0.36658-0.86845-0.34051-0.76393-0.82757-1.7758-1.3215-2.7361-1.5991-3.2595-0.58338-1.1355-0.45255-0.82222 1.6931-1.3593 2.8623-2.4634 0.74213-0.61447 0.7523-0.58743 0.70034-0.50747 1.4203-0.94285 1.4256-0.87902 5.6316-3.3468 8.9652-5.3818 2.0013-1.1774 4.427-2.5553 1.4469-0.86068 1.6696-1.0275 1.6878-1.0655 4.3007-2.7943 0.068013-0.036281 0.23041-0.058025 0.60888-0.094728 2.0615-0.23434 1.5994-0.20531 2.4599-0.28868 0.083768-0.09052 0.42092-0.30826 0.85318-0.53054 0.54499-0.29506 0.45642-0.2224 0.5712-0.24501 0.41497-0.15673 1.164-0.3745 1.1311-0.29647 1.0523-0.2144 0.92359-0.13124 3.5383-0.31961 0.52313-0.029552 0.62019-0.002783 0.54888 0.028008 0.99849 0.10962 0.65467 0.10944 1.6636 0.33197 0.75542 0.13595 0.7307 0.10513 0.77335 0.07834 0.75949 0.027445 0.66696-0.034652 0.31239-0.035775 0.52459-0.087971 0.60986-0.14717 0.71279-0.233 0.57834-0.22588 0.45723-0.19906 1.0564-0.50871 1.3244-0.69934 0.62848-0.37459 1.7764-1.1305 2.3815-1.5728 3.1708-1.9554 1.0119-0.68513 0.65542-0.52481 0.66672-0.64082 0.26986-0.28562 0.44006-0.52014 0.3991-0.58355 0.24935-0.4392 0.24947-0.48432 0.97505-2.0296 0.35298-0.84078 0.41112-1.0562 0.2527-0.54706 0.26711-0.48484 0.33851-0.51768 0.35333-0.46041 0.68108-0.81267 0.78498-0.8894 1.402-1.5191 0.47986-0.55013 0.34536-0.45281 0.19161-0.29341 0.2538-0.48155 0.18824-0.50367 0.14474-0.531 0.1923-0.83141 0.095337-0.52108 0.053375-0.46152 0.04559-0.6904 0.042257-0.9457-0.00159-0.46192-0.041397-0.55598-0.070615-0.46142-0.089946-0.41832-0.14812-0.48555-0.1382-0.31443-0.18553-0.29046-0.11976-0.12383-0.081067-0.050909-0.081248-0.004368-0.00524-0.043505 0.070142-0.075191 0.11589-0.053026 0.3927-0.092043 0.64423-0.073886 1.5886-0.12107 0.6458-0.066579 0.8332-0.13106 0.5543-0.12362 0.55757-0.15565 0.5993-0.20135 0.41973-0.16141 0.86922-0.38692 1.1729-0.60692 1.9977-1.0983 1.0352-0.61015 0.97236-0.62984 0.82475-0.59625 0.54698-0.43217 0.38628-0.33093 0.70448-0.67707 0.63084-0.7073 0.60418-0.75061 0.47408-0.62383 0.46655-0.66145 0.36321-0.57294 0.17828-0.30983 0.34879-0.71422 0.28643-0.83886 0.19923-0.88147 0.13582-0.91229 0.090762-0.93379 0.059939-0.94767 0.040434-0.95493 0.095154-2.842 0.052489-0.9121 0.080608-0.87464 0.12347-0.81909 0.1857-0.73908 0.27361-0.62612 0.39552-0.46914 0.5412-0.27367 0.66654-0.11418 0.7624 0.005096 0.836 0.093598 0.89309 0.15888 0.93814 0.20685 0.97448 0.24208 2.0335 0.55511 3.1773 0.92753 4.4412 1.343 0.23193 0.058794 0.004662 0.20624-0.15675 0.29279-0.18544 0.24085-0.13431 0.14757-1.6646 1.5848-2.4683 2.2832-1.7002 1.61-0.89939 0.88827-0.70546 0.75467-0.5483 0.68549-0.2001 0.30806-0.18462 0.3634-0.10688 0.31039-0.070934 0.39749-9.29e-4 0.4005 0.084835 0.4768 0.14995 0.4872 0.52731 1.4433 0.24665 0.78869 0.19709 0.86779 0.14265 0.90532 0.10186 0.93145 0.072352 0.94859 0.17419 3.8264 0.058094 0.92982 0.08499 0.90111 0.12688 0.85896 0.18815 0.79922 0.27461 0.7164 0.39374 0.60349 0.4138 0.3796 0.24566 0.1672 0.44418 0.23321 0.31968 0.1285 0.46489 0.15101 1.6554 0.44655 0.84327 0.28292 0.83387 0.35037 0.80685 0.42372 0.71987 0.46362 1.1811 0.85269 1.5699 1.1881 1.1649 0.93908 0.54562 0.49638 0.50647 0.56702 0.28072 0.47029 0.14693 0.40053 0.089883 0.62029-0.008815 0.37282-0.047355 0.37732-0.10576 0.47012-0.15199 0.46593-0.15946 0.38078-0.18955 0.36858-0.28549 0.43949-0.34775 0.4119-0.43623 0.42764-0.9405 0.85791-0.31072 0.3125-0.53111 0.60205-0.33918 0.43953-0.35163 0.51824-0.28972 0.50191-0.24491 0.52009-0.21291 0.61999-0.095625 0.44782-0.044553 0.53553 0.022359 0.45995 0.041157 0.28706 0.17723 0.70286 0.24387 0.66274 0.23871 0.54942 0.46643 0.98131 0.57352 1.1015 0.2178 0.37135 0.21765 0.33936 0.085555 0.10833-0.01833 0.027454-0.077409 0.048513-0.32205 0.15518-0.86308 0.34817" stroke="#bdc660"/>
    </defs>
    <g clip-path="url(#pd43c29086e)">
     <use y="280.512" fill="#bdc660" stroke="#bdc660" xlink:href="#mb594e739b7"/>
    </g>
   </g>
  </g>
 </g>
 <defs>
  <clipPath id="pd43c29086e">
   <rect x="7.2" y="7.2" width="170.65" height="266.11"/>
  </clipPath>
 </defs>
</svg>
