<?xml version="1.0" encoding="UTF-8"?>
<!DOCTYPE svg  PUBLIC '-//W3C//DTD SVG 1.1//EN'  'http://www.w3.org/Graphics/SVG/1.1/DTD/svg11.dtd'>
<svg width="194.22pt" height="280.51pt" version="1.1" viewBox="0 0 194.22 280.51" xmlns="http://www.w3.org/2000/svg" xmlns:xlink="http://www.w3.org/1999/xlink">
 <metadata>
  <rdf:RDF xmlns:cc="http://creativecommons.org/ns#" xmlns:dc="http://purl.org/dc/elements/1.1/" xmlns:rdf="http://www.w3.org/1999/02/22-rdf-syntax-ns#">
   <cc:Work>
    <dc:type rdf:resource="http://purl.org/dc/dcmitype/StillImage"/>
    <dc:date>2024-07-04T12:11:14.859877</dc:date>
    <dc:format>image/svg+xml</dc:format>
    <dc:creator>
     <cc:Agent>
      <dc:title>Matplotlib v3.7.1, https://matplotlib.org/</dc:title>
     </cc:Agent>
    </dc:creator>
   </cc:Work>
  </rdf:RDF>
 </metadata>
 <defs>
  <style type="text/css">*{stroke-linejoin: round; stroke-linecap: butt}</style>
 </defs>
 <g id="figure_1">
  <g id="patch_1">
   <path d="m0 280.51h194.22v-280.51h-194.22v280.51z" fill="none"/>
  </g>
  <g id="axes_1">
   <g id="PatchCollection_1">
    <defs>
     <path id="me74d0c46c1" d="m166.36-256.3 0.40758 0.028799 1.0059-8.21e-4 1.7164-0.07603 1.0218-0.11191 0.84144-0.12742 0.6758-0.12594 0.92542-0.2146 0.71503-0.20252 1.1825-0.39366 1.0478-0.41404 1.3829-0.69424 0.37714-0.17487 0.14328-0.032571-0.022838 0.096037 0.025661 0.27291 0.59584 3.5807 0.16638 1.1307 0.13788 1.1511 0.079535 0.91639 0.047891 0.91291 0.011742 0.90496-0.045708 1.163-0.11748 1.1376-0.15968 0.9456-0.21696 0.92064-0.31125 0.99212-0.38065 0.95676-0.48896 1.0019-0.55685 0.96004-0.43223 0.65703-0.4579 0.63874-0.64078 0.82502-0.66738 0.80344-2.7308 3.0907-0.63739 0.76517-0.6489 0.83922-0.61321 0.86408-0.61304 0.94788-0.57785 0.97034-0.53581 0.95888-1.8522 3.4642-0.96227 1.7058-0.52272 0.83825-0.55726 0.80725-0.58102 0.7422-0.6276 0.69738-0.7638 0.72246-0.81917 0.65968-0.68704 0.48287-0.71019 0.44981-0.87902 0.50898-1.8037 0.99946-0.88822 0.53742-0.88996 0.63333-0.45973 0.39015-0.43205 0.41929-0.49595 0.55945-0.45201 0.59878-0.41429 0.6408-0.37882 0.66934-0.42387 0.83833-1.1151 2.3289-0.3886 0.73243-0.41396 0.72321-0.74917 1.1807-0.50968 0.72842-1.0841 1.4391-2.8462 3.5797-1.3942 1.8234-0.6684 0.92699-0.60245 0.8855-0.5662 0.89804-0.51764 0.91223-0.45251 0.92865-0.3447 0.87851-0.25815 0.89121-0.1328 0.70849-0.065209 0.70955 0.014626 0.82258 0.11234 0.80828 0.21656 0.80316 0.31407 0.76794 0.53448 0.90774 0.61368 0.7452 0.71723 0.65511 0.64316 0.45492 0.69226 0.38639 0.88127 0.3677 0.92502 0.26371 0.70756 0.12616 0.71933 0.065235 0.89442-0.004624 0.89646-0.092881 1.0135-0.20739 0.99543-0.30952 0.78265-0.32215 0.76005-0.38396 0.94156-0.58017 0.73244-0.52737 0.70943-0.56379 1.9703-1.6875 0.63345-0.51049 0.62566-0.45593 0.64375-0.40818 0.59149-0.31399 0.60792-0.25886 0.65384-0.20444 0.66727-0.13248 0.65705-0.057515 0.66127 0.009878 0.72654 0.084866 0.72106 0.15775 0.98538 0.33271 0.95542 0.44913 0.95664 0.58004 0.90536 0.67607 0.50515 0.43799 0.48191 0.46459 0.49623 0.5341 0.46367 0.55978 0.6084 0.85093 0.52407 0.88912 0.38408 0.81781 0.29366 0.83565 0.17923 0.78494 0.082294 0.78606-0.012231 0.66437-0.090394 0.65155-0.17974 0.65889-0.26556 0.62944-0.38397 0.64306-0.47322 0.59454-0.42738 0.43095-0.46761 0.40272-0.54291 0.41146-2.2223 1.5092-0.72806 0.51815-0.70532 0.54388-0.81846 0.71698-0.58446 0.60545-0.52578 0.65012-0.37977 0.56595-0.33459 0.59477-0.286 0.60836-0.25037 0.62879-0.21857 0.63382-1.3101 4.4564-0.61261 1.8995-0.33339 0.94129-0.62041 1.5774-0.34028 0.77424-0.44418 0.92051-0.48368 0.89869-0.40396 0.67735-0.43014 0.66142-0.5354 0.75459-0.56331 0.7367-1.2005 1.4572-2.2721 2.6679-0.73929 0.92423-0.71266 0.94546-0.61274 0.86794-0.58744 0.88615-0.56132 0.90401-0.41855 0.71825-0.78293 1.4695-0.46135 0.96912-0.42414 0.98864-0.38091 1.0097-0.25814 0.78996-0.22821 0.80322-0.19802 0.81607-0.20745 1.0592-0.15721 1.0788-0.1187 1.2419-0.067715 1.2634-0.066027 3.2522-0.052791 1.3099-0.1022 1.2737-0.16254 1.2476-0.1895 1.0223-0.22954 0.95446-0.22128 0.74376-0.22552 0.633-0.25643 0.5728-0.17527 0.20583-0.028307 0.18688-0.18908 0.24678-0.38301 0.33128-0.51922 0.33443-0.69998 0.33316-0.79394 0.26184-0.82424 0.16416-0.86143 0.069937-1.0031-0.037848-1.0077-0.15247-1.1046-0.28432-1.0836-0.3751-2.5402-1.0636-0.74915-0.29399-0.63792-0.21993-0.64132-0.1845-0.79696-0.16936-0.79837-0.10042-0.75707-0.028362-0.74936 0.037227-0.68581 0.093249-0.67135 0.14683-0.7895 0.24639-0.75554 0.31784-0.65098 0.35043-0.60893 0.40891-0.49933 0.41302-0.45579 0.45835-0.62982 0.824-0.33675 0.58314-0.28299 0.61772-0.23017 0.64733-0.17991 0.67172-0.19203 1.1166-0.063207 0.63233-0.075614 1.5643-0.07823 2.9241-0.062345 1.052-0.094863 1.0485-0.12151 0.9497-0.1567 0.94189-0.19381 0.93183-0.23483 0.91903-0.30772 0.98573-0.35826 0.9658-0.40647 0.94397-0.45568 0.91879-0.50922 0.88864-0.53772 0.81288-0.58311 0.78403-0.62103 0.7582-0.6537 0.73395-0.81491 0.84758-1.6904 1.6855-0.84149 0.86595-0.74968 0.81558-0.71847 0.83845-0.67832 0.86542-0.55799 0.78915-0.51838 0.81068-0.47745 0.82927-0.52747 1.0306-1.2782 2.7747-0.33975 0.68892-0.35739 0.64637-0.52304 0.76722-0.61745 0.62425-0.26801 0.18962-0.56222 0.29363-0.44544 0.16675-0.50703 0.14347-0.90536 0.17762-1.8957 0.24134-0.92116 0.16674-0.78022 0.22208-1.1988 0.4537-0.74522 0.32429-0.79815 0.37563-1.1865 0.60584-0.90783 0.50189-1.0235 0.60788-0.64353 0.42187-0.44958 0.32288-1.5396 1.1466-0.55469 0.37271-0.64385 0.39207-1.7894 0.97766-1.8643 1.1393-0.48039 0.26686-0.48371 0.23771-1.489 0.61544-0.74664 0.39246-0.71986 0.4527-0.68529 0.47766-0.5511 0.41986-0.60953 0.58904-0.44697 0.59325-0.3206 0.64096-0.15754 0.67247-0.009199 0.25704 0.064471 0.59774 0.12002 0.52242 0.46106 1.6202 0.1014 0.56285 0.014913 0.50784-0.039355 0.32113-0.1631 0.5886-0.20591 0.48338-0.18734 0.35964-0.55372 0.87574-1.1875 1.7148-0.33197 0.56436-0.24244 0.50959-0.12358 0.34713-0.085608 0.34819-0.092674 0.69284-0.063366 0.77048-0.20053 1.8726-0.051174 1.1302-0.08754 1.3201 0.011988 1.2999-0.13971 1.6185-0.079902 1.25-0.13607 0.90245-0.37069 1.9077-0.12291 0.98489-0.026744 0.7503 0.00781 2.1576-0.031353 0.83446-0.082095 0.77236-0.56708 2.4731-0.26423 1.3839-0.075298 0.5322-0.025403 0.78849 0.053028 0.6617 0.03995 0.27557 0.15619 0.74819 0.2317 0.80754 0.27441 0.80832 0.8177 2.2715 0.50577 1.2906 0.64987 1.5449 0.89186 1.7341 0.37347 0.8121 0.47468 1.41 0.13292 0.2843 0.08844 0.10783-0.090117 0.10781-0.30889 0.20561-0.4515 0.25778-3.3019 1.7028-2.4562 1.338-0.88914 0.4477-0.38767 0.168-0.5046 0.17337-0.48704 0.09424-0.46685-0.012296-0.43123-0.13324-0.41558-0.22769-0.4058-0.2913-1.2095-1.0149-0.41735-0.31534-0.4342-0.26824-0.45853-0.19609-0.18504-0.050916-0.38587-0.064621-0.37878-0.022097-0.39 0.008174-0.91309 0.098072-1.0514 0.18878-2.0701 0.42272-0.99064 0.13619-0.47621 0.019926-0.46992-0.029686-0.516-0.11112-0.53425-0.21109-0.52252-0.28888-0.51474-0.34986-0.50926-0.39704-1.0014-0.88842-0.94821-0.93043-1.0519-1.086-0.10905-0.08899 0.94179-0.95159 1.9531-2.0627 1.4348-1.5649 0.71666-0.84092 0.63929-0.84827 0.33886-0.51904 0.41395-0.70584 0.35255-0.7122 0.28732-0.74253 0.23512-0.74219 0.18984-0.67871 0.099012-0.42503 0.1488-0.91992 0.02344-0.6148-0.043703-0.67485-0.1003-0.651-0.15399-0.66977-0.24601-0.79581-0.2547-0.66141-0.37983-0.83467-0.4195-0.80208-0.33344-0.57541-0.49723-0.77882-0.55944-0.78543-0.40565-0.52033-0.4119-0.47833-0.38797-0.38337-0.43274-0.37301-1.0791-0.838-0.57037-0.39618-0.86205-0.54538-0.50298-0.29475-0.50992-0.27374-0.81433-0.36473-0.69576-0.22839-1.8546-0.48509-0.73095-0.2277-0.49972-0.17952-1.8532-0.72389-0.85878-0.37432-0.63828-0.31054-0.94817-0.50527-2.0393-1.198-3.7761-2.383-0.51521-0.36969-0.62141-0.54286-0.5702-0.60973-0.51873-0.66404-0.38654-0.57982-0.28765-0.49159-0.25926-0.50651-0.24157-0.56001-0.19655-0.57688-0.17407-0.7583-0.12364-1.0697-0.038123-0.96459-8.11e-4 -0.88912 0.082967-3.7229-0.029946-1.6692-0.052494-0.72066-0.15431-1.2794-0.31944-1.9879-0.28913-1.6133-0.33769-1.4966-0.37222-1.2668-0.37857-1.0746-0.58458-1.5463-0.23576-0.69203-0.20064-0.66548-0.16171-0.6106-0.22123-1.0098-0.44188-2.7997-0.25676-1.2689-0.16962-0.64667-0.2756-0.82752-0.27479-0.62413-0.17417-0.32105-0.20136-0.31695-0.22358-0.29788-0.25229-0.28092-0.67128-0.55596-0.77282-0.46314-0.84192-0.4074-1.7816-0.77972-0.89021-0.43554-0.83967-0.48532-0.81316-0.53263-0.78959-0.55872-2.229-1.6244-0.87528-0.56301-1.0557-0.55282-0.43273-0.26395-0.17123-0.17364-0.10336-0.3551 0.17132-0.43324 0.22289-0.30695 1.2444-1.4564 0.67645-0.75015 0.95338-0.95325 0.7999-0.70406 0.56954-0.44998 0.60067-0.43673 1.1176-0.73459 1.1119-0.66269 1.3725-0.75397 2.5314-1.3052 0.41226-0.22621 0.59284-0.36092 0.18114-0.12742 0.30732-0.278 0.015978-0.16517 0.076015 0.020614 0.20215 0.17466 1.6357 1.6136 0.72204 0.68987 0.85464 0.77482 0.89481 0.75252 0.87828 0.67007 0.9004 0.60709 0.9205 0.52574 0.54621 0.26124 0.56666 0.22807 0.57916 0.18732 0.92408 0.20449 0.93029 0.10389 0.92888 0.014528 0.92036-0.068095 1.0907-0.18424 0.8792-0.21986 0.85727-0.26762 0.83094-0.30629 0.6921-0.29091 0.94004-0.45636 0.85777-0.50802 0.74597-0.57203 0.15364-0.1441 0.3539-0.39304 0.34671-0.54424 0.26333-0.7532 0.12008-0.83069 0.019241-0.88968-0.044724-0.90413-1.0012-10.78-0.21243-1.9125-0.3207-2.1976-0.23071-1.3328-0.46598-2.4163-0.56898-2.685-0.29274-1.2398-0.34801-1.2668-0.2229-0.72993-0.38133-1.168-0.98211-2.8294-0.5887-1.876-0.27727-0.97916-0.30698-1.2055-0.27623-1.2618-0.37688-2.0517-0.35368-2.3192-0.19683-1.4971-0.52844-4.6787-0.09724-0.69685-0.12527-1.1801-0.43737-4.7306-0.26705-2.585-0.15013-1.2767-0.32317-2.3865-1.9983-12.833-2.5325-15.53-2.7653-17.665-0.015826-0.22903 0.66124-18.15 0.34421-7.9263 0.13338-2.2307 0.10294-1.1662 0.14257-1.1403 0.20126-1.1019 0.28531-1.0459 0.40301-0.96554 0.51829-0.81964 0.62927-0.72061 0.71344-0.61554 0.77761-0.49403 0.82737-0.34419 0.8673-0.1521 0.83916 0.063733 0.86504 0.22904 0.88944 0.3517 0.9142 0.43925 3.5337 1.8817 2.4164 1.1713 1.2415 0.5682 2.4474 1.0766 2.1056 0.88747 0.71095 0.28239 0.26944 0.075009 0.29046 0.097202 2.8383 1.1212 1.2265 0.46181 1.2706 0.45594 1.2884 0.43233 1.4061 0.42532 1.1 0.28646 1.0901 0.23213 0.90543 0.14642 1.1397 0.13088 0.663 0.053637 1.542 0.077227 1.1955 0.02231 2.0694-0.010921 2.8393-0.073603 4.0708-0.15995 1.4842-0.084597 1.6465-0.14098 0.86583-0.10425 0.83624-0.12768 0.82606-0.16003 1.1383-0.29496 0.84882-0.2909 1.0129-0.41423 1.0017-0.45962 5.1577-2.5793 2.1056-1.0052 1.0649-0.47007 1.0349-0.42108 1.047-0.38361 1.0611-0.33731 0.96326-0.25647 0.97399-0.22023 0.98233-0.19238 1.1537-0.19804 2.3252-0.34085 3.5139-0.44526 8.2438-0.98885 3.4987-0.3926 2.2632-0.19919 1.088-0.059768 1.0418-0.017551 0.97727 0.041467 0.88838 0.12266 0.76769 0.2328 0.60602 0.38018 0.41164 0.54129 0.23412 0.50748 0.40776 1.1745 0.24361 0.61292 0.3147 0.58096 0.39076 0.50839 0.40924 0.36715 0.39632 0.25452 0.25496 0.12007 0.15264 0.055127 0.48525 0.093753 0.49575-0.019675 0.2291-0.047006 0.6137-0.21466 1.4437-0.66542 0.57617-0.21371 0.86452-0.2312 1.8064-0.35104 0.88661-0.20641 2.1503-0.69513 0.66715-0.22785 0.62434-0.2767 0.59034-0.36843 1.1084-0.83592 1.789-1.2284 0.52464-0.42718 0.36959-0.3424 0.18838-0.20616 0.19409-0.26547 0.12155-0.22144 0.11842-0.28494 0.18581-0.57843 0.23116-0.58059 0.18368-0.30387 0.22773-0.2942 0.26223-0.27692 0.2934-0.25821 0.37043-0.2688 0.65394-0.37873 0.53017-0.26542 1.0533-0.4714 0.51246-0.25648 0.23081-0.14118 0.44304-0.32879 0.3688-0.34239 0.31686-0.35815 0.36708-0.51494 0.21346-0.35373 0.79649-1.4507 0.26777-0.42967 0.29314-0.40122 0.35748-0.40116 0.24218-0.22277 0.28094-0.21018 0.44024-0.23566 0.33659-0.10956 0.36908-0.048976 0.37124 0.015606 0.26964 0.04619 0.62957 0.18704 0.63259 0.26387 0.6113 0.30196 0.97581 0.54713 0.34767 0.27234 0.19115 0.22383 0.12376 0.19617 0.44298 0.96459 0.28597 0.53655 0.36475 0.48906 0.30217 0.28246 0.48755 0.30438 0.40233 0.15584 0.31079 0.075973 0.32786 0.048547" stroke="#bdc660"/>
    </defs>
    <g clip-path="url(#p5bda993d2f)">
     <use y="280.512" fill="#bdc660" stroke="#bdc660" xlink:href="#me74d0c46c1"/>
    </g>
   </g>
  </g>
 </g>
 <defs>
  <clipPath id="p5bda993d2f">
   <rect x="7.2" y="7.2" width="179.82" height="266.11"/>
  </clipPath>
 </defs>
</svg>
