<?xml version="1.0" encoding="UTF-8"?>
<!DOCTYPE svg  PUBLIC '-//W3C//DTD SVG 1.1//EN'  'http://www.w3.org/Graphics/SVG/1.1/DTD/svg11.dtd'>
<svg width="197.29pt" height="280.51pt" version="1.1" viewBox="0 0 197.29 280.51" xmlns="http://www.w3.org/2000/svg" xmlns:xlink="http://www.w3.org/1999/xlink">
 <metadata>
  <rdf:RDF xmlns:cc="http://creativecommons.org/ns#" xmlns:dc="http://purl.org/dc/elements/1.1/" xmlns:rdf="http://www.w3.org/1999/02/22-rdf-syntax-ns#">
   <cc:Work>
    <dc:type rdf:resource="http://purl.org/dc/dcmitype/StillImage"/>
    <dc:date>2024-07-04T12:11:14.546217</dc:date>
    <dc:format>image/svg+xml</dc:format>
    <dc:creator>
     <cc:Agent>
      <dc:title>Matplotlib v3.7.1, https://matplotlib.org/</dc:title>
     </cc:Agent>
    </dc:creator>
   </cc:Work>
  </rdf:RDF>
 </metadata>
 <defs>
  <style type="text/css">*{stroke-linejoin: round; stroke-linecap: butt}</style>
 </defs>
 <g id="figure_1">
  <g id="patch_1">
   <path d="m0 280.51h197.29v-280.51h-197.29v280.51z" fill="none"/>
  </g>
  <g id="axes_1">
   <g id="PatchCollection_1">
    <defs>
     <path id="m13132170c8" d="m83.042-234.93 0.25625 0.041451 0.10004-0.015018 0.044994-0.015206 0.18835 0.063662 0.84453 0.42224 0.59983 0.24377 0.61464 0.20076 0.72385 0.17451 0.72618 0.11954 0.66866 0.087072 1.2941 0.11404 0.99451 0.035319 1.2933-0.040545 0.52742 4.73e-4 0.49268 0.023668 0.59854 0.067529 0.63007 0.11537 2.2735 0.48558 2.0541 0.32637 1.0449 0.23456 0.54627 0.17525 0.46245 0.23102 0.24835 0.19656 0.30047 0.35551 0.14798 0.21859 0.25769 0.45226 0.11336 0.26906 0.16727 0.55599 0.14949 0.87415 0.076624 0.78346 0.14351 2.1991 0.15455 1.5886 0.19674 1.2554 0.1954 0.84676 0.26631 0.90043 1.2548 3.6004 0.27547 0.86673 0.45002 1.591 0.33626 1.3841 0.26611 1.2347 0.34087 1.7467 0.23003 1.2907 0.17278-0.013133 0.30521-0.16836 0.2066-0.89351 0.18464-0.97003 0.13455-0.94016 0.047526-0.4748 0.036442-0.69893-0.001313-0.38299-0.025473-0.52051-0.091011-1.1181-0.022151-0.58423 0.022022-0.50017 0.085272-0.61116 0.21294-0.93657 0.23416-0.86737 0.2039-0.67649 0.1423-0.3989 0.18254-0.43832 0.25136-0.50719 0.27974-0.47138 0.19697-0.28831 0.27602-0.35372 0.30057-0.32508 0.32879-0.28924 0.37302-0.25804 1.3803-0.80872 0.55354-0.37487 0.51823-0.39091 0.29876-0.25114 0.27404-0.26405 0.23925-0.28301 0.12614-0.18842 0.14543-0.28362 0.11093-0.29874 0.089794-0.34119 0.14685-0.76723 0.1005-0.40692 0.11925-0.32795 0.19442-0.34511 0.26443-0.28653 0.26668-0.17751 0.30685-0.13878 0.33556-0.11111 0.73486-0.17778 0.65981-0.11132 0.32508-0.030909 0.064399-0.025465 0.17133 0.010505 0.55142 0.12277 0.6302 0.20503 0.53701 0.21702 0.70661 0.32655 0.98235 0.48801 3.2277 1.7626 0.91388 0.46773 0.70873 0.29734 0.52784 0.17901 0.41919 0.11748 0.67205 0.14371 0.48544 0.073758 0.70415 0.073695 0.70452 0.038137 0.607 0.001588 1.2605-0.076861 2.4557-0.26119 0.83486-0.069103 0.99803-0.040457 2.1919-0.03348 1.4455 0.019421 0.76118 0.048762 0.54134 0.083757 0.60606 0.16128 0.50258 0.18997 0.61335 0.29983 0.62815 0.36942 0.6542 0.43923 0.73241 0.57177 2.3962 2.123 0.50482 0.40654 0.42376 0.30531 0.4648 0.28172 0.35006 0.16923 0.28052 0.10372 0.42359 0.096501 0.48697 0.029601 0.3086-0.023292 0.63116-0.12368 0.55161-0.15985 1.1558-0.38476 0.66757-0.20363 0.86045-0.24195 2.8818-0.74574 0.88078-0.25237 0.92289-0.30409 1.0293-0.41944 0.37047-0.17601 0.53932-0.28294 0.44298-0.25629 1.122-0.72963 1.4727-1.0588 0.77272-0.49864 0.76309-0.41178 0.36132-0.17095 0.99342-0.40516 0.56408-0.19411 1.1318-0.32222 1.237-0.26117 0.749-0.11962 0.8298-0.089175 0.98185-0.011882 0.4452 0.041478 0.54201 0.097397 0.60267 0.16333 0.85784 0.30365 1.4198 0.60536 1.0586 0.51208 0.95457 0.50422 1.0972 0.63517 0.83565 0.53388 0.74903 0.52363 1.0396 0.81426 0.25885 0.22539 0.20466 0.20834 0.009568 0.1269 0.019373 0.15675-0.055437 0.69891-0.16097 1.1985-0.24523 1.4982-0.70091 3.9841-0.15025 0.99532-0.22464 1.8263-0.1937 2.3097-0.12826 2.0258-0.080078 2.1173-0.022671 2.0534 0.040658 1.4274 0.11607 1.7002 0.11782 1.0368 0.1459 0.95001 0.3198 1.5766 0.22916 0.90433 0.14916 0.51155 0.26001 0.77758 0.54227 1.4879 0.23407 0.71439 0.14206 0.542 0.078118 0.41512 0.048734 0.42486 0.010169 0.27509-0.083486 0.71668-0.21266 0.56431-0.32269 0.53667-0.55258 0.68004-0.65073 0.6483-0.71036 0.61769-0.42028 0.33454-0.69016 0.48294-0.724 0.44619-1.7665 0.98732-0.62503 0.37343-0.59864 0.40676-0.55321 0.4948-0.31269 0.37518-0.26177 0.44609-0.25267 0.69834-0.095491 0.47624-0.046507 0.49855-5.74e-4 0.4204 0.10299 0.91474 0.11853 0.54933 0.22324 0.77092 0.47039 1.2859 0.61714 1.4793 1.9007 4.3316 1.0404 2.2571 0.30086 0.73742 0.21885 0.70818 0.099089 0.67707-0.015401 0.4147-0.080103 0.44219-0.060568 0.21622-0.24925 0.6719-0.18247 0.42041-0.21382 0.42437-0.35746 0.57414-0.41936 0.5771-1.1131 1.4203-0.52451 0.71394-0.36303 0.5405-0.3443 0.56394-0.54776 1.0398-1.4878 3.1583-0.21916 0.42102-0.33004 0.56522-0.29612 0.43459-0.23256 0.2941-0.38161 0.4146-1.0341 1.0261-0.18062 0.22292-0.10186 0.18699-0.040496 0.1459-5.99e-4 0.20486 0.0478 0.16861 0.098888 0.19022 0.15688 0.21622 0.20136 0.22237 0.27929 0.26294 0.37341 0.31272-0.12183-0.063563-0.17558-0.009381-0.0638 0.012563-0.23652 0.11874-0.22131 0.2197-0.17692 0.28101-0.3378 0.60877-0.20161 0.27073-0.26521 0.29713-0.30395 0.30165-1.2387 1.1189-1.2183 1.1326-0.86611 0.7402-0.5587 0.50224-1.1301 1.0714-0.53816 0.55883-0.78227 0.89508-2.6611 3.3128-0.51562 0.60738-0.59851 0.6075-0.36351 0.29549-0.23918 0.16017-0.32763 0.18664-0.36003 0.15555-0.38996 0.10747-1.2895 0.18591-2.1171 0.19238-0.74179 0.012056-0.31073-0.024432-1.5862-0.2062-0.61642-0.14272-0.64854-0.25879-1.4057-0.7094-0.39715-0.15046-0.17308 0.011002 0.021197 0.018666 0.015433 0.14726-0.021179 0.68428-0.1003 1.6926-0.13412 1.6834-0.17695 1.6188-0.33947 2.6216-0.062104 0.87431 0.043715 0.89406 0.22003 0.87895 0.36301 0.83393 0.34549 0.61376 1.0728 1.6969 0.21512 0.39924 0.23249 0.53899 0.16077 0.62207 0.026818 0.2323 0.010789 0.35771-0.027563 0.44322-0.054034 0.39513-0.17364 0.84218-0.24447 0.9308-0.57453 2.0116-0.28143 1.0682-0.21628 0.91318-0.21636 1.2273-0.16817 1.3332-0.035859 0.56847-5.05e-4 0.47172 0.041856 0.72694 0.075931 0.69794 0.096405 0.67192 0.45267 2.5818 0.18772 1.2746 0.084229 0.94244 0.01618 1.0086-0.051262 0.69235-0.1146 0.78677-0.50657 2.5452-0.19023 1.0931-0.13738 1.0609-0.30655 2.8668-0.096198 0.61458-0.080159 0.38008-0.097445 0.35275-0.14843 0.39695-0.28824 0.5232-0.47341 0.54748-0.44052 0.36466-0.50283 0.32916-0.72024 0.37461-0.79154 0.33146-0.43023 0.15663-1.0707 0.34128-0.62102 0.17398-1.8271 0.44317-2.5724 0.52844-0.22148 0.077514 0.12551 0.10226 0.21876 0.23727 0.7034 0.85465 0.25656 0.35425 0.96153 1.4945 0.40178 0.58546 0.51702 0.61041 0.48526 0.467 0.68703 0.53728 0.68894 0.44207 0.42894 0.23838 0.41365 0.19817 1.0257 0.39226 0.27117 0.14284 0.62877 0.41822 0.29333 0.1693 0.83788 0.37655 0.20283 0.13291 0.11645 0.12988 0.1095 0.21392 0.048281 0.20058 0.011799 0.25345-0.058119 0.4968-0.24542 1.3133-0.1154 0.57405-0.44426 1.9045-0.12645 0.65169-0.097479 0.65559-0.039953 0.45911-0.002795 0.53189 0.033632 0.53614 0.21314 1.2061 0.014602 0.50175-0.028809 0.19783-0.16996 0.53552-0.24589 0.521-0.18786 0.34843-0.25772 0.4173-0.54916 0.78756-0.50232 0.62704-1.0928 1.2481-0.51523 0.61799-0.38016 0.51329-0.69611 1.0207-0.43397 0.49476-0.45854 0.41384-0.76512 0.57104-0.4222 0.35024-0.38463 0.39039-0.21536 0.26984-0.19883 0.30025-0.11387 0.26314 0.034601 0.25285-0.21818 0.13512-1.6633 1.2267-1.3752 0.98577-1.1688 0.81025-1.3709 0.9026-0.91256 0.54466-0.82807 0.42771-0.50727 0.21837-0.49543 0.17105-0.66424 0.14383-0.63788 0.013455-0.18535-0.02525-0.432-0.11306-0.52474-0.23132-0.60454-0.36102-1.9316-1.3207-0.48405-0.28941-0.41735-0.22129-0.54814-0.25008-0.5654-0.21053-0.95842-0.26398-0.7187-0.1527-0.99067-0.14472-1.0188-0.08727-1.0384-0.044438-1.0512-0.011922-1.0587 0.013902-2.1218 0.094229-1.0546 0.082167-1.0443 0.11185-1.0282 0.15057-1.005 0.2025-0.97264 0.27262-0.9287 0.367-0.90555 0.49982-0.85887 0.59922-0.8248 0.67128-0.8003 0.72268-0.78304 0.75864-0.77119 0.78316-4.5564 4.8616-1.5482 1.5902-0.79283 0.772-0.81194 0.74849-0.78016 0.66937-0.44 0.35351-0.80145 0.60498-0.837 0.59297-1.6374 1.0958-2.4516 1.5736-3.449 2.1603-1.6702 1.0165-1.6062 0.91354-0.78076 0.39504-1.132 0.53316-0.53251 0.30386-0.64661 0.49321-0.59963 0.59443-0.55719 0.67545-0.51563 0.74005-0.47102 0.79125-0.41901 0.83128-0.33537 0.80926-0.13746 0.39937-0.17751 0.64296-0.0485 0.22954-0.12609 1.123 6.49e-4 0.87367 0.24959 3.9401-0.025639 0.35506-0.085712 0.13297-0.04171-0.007948-0.11796 0.037549-0.53427 0.24423-1.2701 0.52122-0.44405 0.1446-0.2766 0.063517-0.39715 0.0462-0.35269-0.018324-0.079373-0.013741-0.59755-0.22138-0.58219-0.3873-0.6822-0.62432-0.65172-0.76905-0.38445-0.5252-0.76275-1.1508-0.38392-0.50751-0.41627-0.45407-1.0316-0.9504-0.69062-0.66928-0.41714-0.34957-0.44766-0.32554-0.46855-0.2931-0.5515-0.31905-0.57609-0.29137-0.58416-0.23931-1.2886-0.46198-0.55462-0.16765-0.44408-0.1023-2.6159-0.44454-0.23331-0.057933-0.71234-0.25558-0.69261-0.35618-0.2956-0.1824-0.82512-0.56359-0.91383-0.66298-0.68912-0.46355-0.29129-0.17681-0.70943-0.35356-0.49073-0.18297-0.69753-0.17323-0.52769-0.054346-0.49174 0.029467-0.51445 0.14338-0.4906 0.2144-0.67883 0.34342-0.36165 0.23265-0.58876 0.44238-1.2766 1.0216-0.28068 0.24787-0.42608 0.43174-0.18132 0.21628-0.37684 0.54448-1.0349 1.8278-0.29711 0.45723-2.5352 3.707-0.3392 0.53755-0.99157 1.6841-0.30952 0.44085-0.17821 0.21471-0.28884 0.30013-0.28215 0.25123-0.30934 0.24023-0.65443 0.42288-0.69168 0.35073-0.44044 0.19035-0.81321 0.32268-0.81785 0.29051-0.70283 0.20891-0.45229 0.096797-0.43756 0.065883-0.6829 0.054147-0.92901-0.002712-0.45622-0.025565-0.57594-0.04964-1.0405-0.12862-1.4823-0.24361-1.5079-0.29683-0.9539-0.22738-0.68946-0.19957-0.54417-0.18587-0.78199-0.31912-0.37131-0.1778-0.43319-0.23773-0.25853-0.1629-0.37014-0.27087-0.26331-0.22808-0.31696-0.32121-0.20772-0.24124-0.34901-0.46564-0.4952-0.7988-0.37408-0.72411-0.17792-0.39306-0.23803-0.59456-0.19478-0.56739-0.14866-0.50052-0.15284-0.60466-0.16738-0.82396-0.86929-5.1439-0.094227-0.39891-0.040612-0.034546-0.39386-1.8792-0.71351-3.1803-0.24604-1.2174-0.10404-0.71187-0.03837-0.46603-0.006631-0.44149 0.053731-0.57084 0.14426-0.49849 0.20479-0.36391 0.60314-0.74776 0.22844-0.3162 0.17527-0.31125 0.89719-1.8468 0.82699-1.7795 0.3176-0.76963 0.66124-1.9316 0.11186-0.44333 0.15713-0.96081 0.13387-0.43972 0.18628-0.4241 0.22332-0.39418 0.33154-0.49783 0.24043-0.43045 0.19838-0.47454 0.18626-0.67061 0.072923-0.40971 0.032353-0.32222 0.057648-0.84916 0.011741-0.53218-0.053596-0.68438-0.064414-0.3596-0.10617-0.37698-0.13265-0.36787-0.23864-0.54327-0.2622-0.43778-0.25033-0.31978-0.15886-0.12786 0.29979-0.10901 1.3578-0.36215 2.1891-0.54864 1.0301-0.2252 1.7518-0.3253 2.316-0.29861 0.49728-0.087991 1.5706-0.33648 1.4369-0.26066 0.53152-0.14185 0.38122-0.14036 1.2841-0.58031 0.92644-0.37087 0.61619-0.18537 0.6959-0.13676 0.48499-0.047151 0.42188-0.018001 0.71431 0.008063 0.26732 0.022738 0.46313 0.077969 0.42551 0.1189 0.30409 0.10848 0.31736 0.133 0.63466 0.33315 0.94375 0.64253 0.46444 0.29608 0.5838 0.28111 0.58469 0.19754 1.0939 0.24079 0.29872 0.043075 0.1478 0.002196 0.22436-0.04445 0.11526-0.06003 0.072012-0.062152 0.077287-0.11274 0.046027-0.15806-0.023423-0.26623-0.067296-0.17216-0.12644-0.21296-0.32456-0.39004-0.43208-0.40551-1.986-1.6103-0.57534-0.52765-0.3819-0.39662-0.32994-0.38901-0.29026-0.39057-0.24096-0.36958-0.28243-0.51463-0.21908-0.51849-0.11217-0.36049-0.15102-0.68238-0.11037-0.76469-0.044458-0.58868 0.024623-0.5951 0.1104-0.68058 0.51517-2.2181 0.66548-2.6292 0.76001-3.1488 0.57533-2.0921 0.20901-0.93983 0.090546-0.72653 0.012395-0.76845-0.084722-0.68399-0.063452-0.25018-0.13711-0.41177-0.15549-0.39522-0.15494-0.31282-0.35403-0.60507-0.065095-0.13813-0.10562-0.3599-0.009994-0.26568 0.029613-0.25295 0.3159-1.3914 0.072889-0.44406 0.018875-0.25537-0.012659-0.30276-0.049593-0.23521-0.12413-0.2811-0.12376-0.19013-0.28482-0.3446-0.6362-0.69609-0.1693-0.22466-0.087713-0.14748-0.066381-0.15598-0.030215-0.12565-0.001855-0.17528 0.052102-0.1787 0.0772-0.13888 0.14241-0.178 0.27314-0.2441 0.45383-0.30105 0.4391-0.2429 1.1578-0.55417 0.85238-0.35429 0.82107-0.30932 5.7566-2.0234 1.0119-0.36943 0.78646-0.30886 0.70406-0.36408 0.23328-0.16321 0.24294-0.20651 0.2322-0.24472 0.17247-0.22498 0.18433-0.3001 0.13958-0.28955 0.17057-0.48814 0.083937-0.36398 0.066504-0.53229 0.010391-0.46237-0.029094-0.4472-0.085513-0.54303-0.13928-0.54844-0.17523-0.51673-0.33348-0.78539-0.30296-0.61849-1.5011-2.7326-2.0988-4.06-0.41286-0.91892-0.16678-0.4745-0.028793-0.11442 0.019394-0.18316-1.7427 0.16332-1.3023 0.10177-1.1339 0.065635-1.5794 0.054015-1.3733 3.3e-4 -4.4792-0.1276-4.0256 0.041604-1.4163-0.020027-1.2228-0.074109-0.55564-0.061807-0.82383-0.14202-0.74479-0.21321-0.39264-0.16842-0.40278-0.24425-0.35902-0.32153-0.29399-0.37283-0.26406-0.45582-0.14861-0.32384-0.15507-0.43752-0.091981-0.32456-0.083845-0.38185-0.071302-0.58103-0.011456-0.6012 0.039658-0.65945 0.066087-0.55691 0.18645-1.2115 0.084913-0.88861 0.028526-0.74145-0.034398-2.3377 0.024294-1.4492-0.008804-1.3191-0.095233-3.1932 0.030733-0.78761 0.10145-0.75064 0.15645-0.60514 0.12872-0.37778 0.18175-0.42881 0.2017-0.40852 0.6674-1.2243 0.25163-0.54262 0.2574-0.79244 0.17621-0.83124 0.22028-1.5587 0.13052-0.69405 0.22087-0.65988 0.082537-0.171 0.31356-0.50212 0.40346-0.48655 0.65541-0.62796 0.7455-0.60102 0.69829-0.50997 0.72522-0.49804 2.2627-1.4813 2.0622-1.3824 2.164-1.5181 2.09-1.5029 1.2686-0.96213 0.55476-0.44794 1.0836-0.92916 1.0265-0.9575 0.57658-0.57875 1.1946-1.3023 0.68793-0.72107 0.72102-0.703 0.74102-0.68248 1.9544-1.6938 0.45111-0.42205 0.32898-0.35206 0.44743-0.5536 0.31351-0.44445 0.28271-0.44634 0.43857-0.79887 0.25047-0.54562 0.10854-0.3134 0.002487-0.062203-0.025926-0.004359-0.068-0.070067-0.16663-0.24077-0.22865-0.3917-0.28876-0.55791-0.30457-0.63731-1.5084-3.3243-0.62012-1.2138-0.5017-0.84167-0.65371-0.92102-0.48797-0.61231-0.49929-0.58996-1.4843-1.6731-0.9005-1.0482-0.75865-0.9841-0.31106-0.37564-0.67837-0.73892-0.81491-0.84851-1.514-1.4048-0.85371-0.84592-0.35629-0.41041-0.45374-0.56515-0.19808-0.31255-0.42581-0.92904-0.83045-1.618-0.49484-1.1373-0.27275-0.74591-0.25819-0.78199-1.5899-5.2111-0.047641 0.004743-0.15072-0.07079-0.25246-0.16772-0.28827-0.22726-0.40263-0.35648-0.64035-0.62883-1.5651-1.6999-0.26089-0.24931-0.40894-0.34495-0.36626-0.26343-0.36744-0.22895-1.2941-0.70108-0.36016-0.21645-0.42387-0.28398-0.74782-0.58152-0.32696-0.29033-0.36004-0.35224-0.50769-0.5752-1.1364-1.4582-0.75255-0.88167-0.6383-0.64436-1.2355-1.1349-0.54272-0.53931-0.50968-0.56335-0.95323-1.1149-0.66305-0.7314-0.64652-0.77483-0.99248-1.3305-0.45361-0.48825-0.11024-0.15924-0.064597-0.13497-0.010642-0.086214 0.13255-0.12978 0.10449-0.27388 0.77688-2.9171 0.31011-1.0101 0.27434-0.7567 0.24468-0.56919 0.31794-0.63944 0.88563-1.543 0.33293-0.61928 0.25432-0.54556 0.22307-0.5638 0.19325-0.58984 0.1556-0.6202 0.42302-1.9441 0.13158-0.53853 0.16937-0.59092 0.20561-0.57738 0.11542-0.27181 0.18338-0.38388 0.23903-0.44277 0.33944-0.54415 0.36618-0.49769 0.4958-0.58248 0.6194-0.64028 0.61916-0.57963 0.70634-0.61346 2.0647-1.6744 1.0945-0.92702 0.66193-0.61073 0.42754-0.45347 0.21136-0.2502 0.38437-0.51086 0.3256-0.51001 0.23876-0.42673 0.21622-0.45814 0.13457-0.3671 0.085826-0.29979 0.11185-0.57236 0.07466-0.66413 0.024851-0.50705-0.032696-0.59655-0.090857-0.43985-0.14979-0.36465-0.19057-0.28514-0.31-0.31211-0.26698-0.19699-0.61626-0.3441-0.49128-0.22212-0.88921-0.33279-0.50729-0.15504-0.40871-0.10795-0.81267-0.17672-2.7738-0.47453-0.70257-0.13855-0.81952-0.20531-0.37531-0.11702-0.4857-0.19289-0.28886-0.16609-0.11544-0.1041-0.035304-0.053558-0.013574-0.060815 0.03175-0.06891 0.041492-1.9753 0.094089-1.4123 0.12961-1.0294 0.092443-0.50573 0.22295-0.86246 0.2819-0.75264 0.16179-0.34475 0.36198-0.63994 0.26172-0.38639 0.2909-0.37362 0.27566-0.31523 0.4532-0.45857 0.53996-0.4784 0.7557-0.59585 0.60166-0.42215 0.72232-0.45154 1.1233-0.61501 3.1209-1.5565 0.89209-0.50218 0.79306-0.4875 0.8795-0.58887 0.54774-0.39511 1.79-1.4122 0.57937-0.43056 1.1593-0.77191 1.1836-0.731 0.49334-0.25936 0.29486-0.13331 0.31947-0.12449 0.50544-0.15036 0.34649-0.066196 0.2967-0.032324 0.40864-0.0089 0.35864 0.029409 0.38224 0.066732 0.29542 0.074086 0.45844 0.15789 0.34243 0.16135 0.4751 0.28475 0.69069 0.50174 0.65247 0.55566 0.7876 0.76695 0.49879 0.56304 0.29921 0.39643 0.24657 0.37046 0.32057 0.53102 0.28847 0.53814 0.28107 0.63535 0.14147 0.40983 0.16349 0.64879 0.10726 0.61641 0.123 1.0464 0.072805 0.34476 0.19221 0.58519 0.1742 0.37856 0.17907 0.30697 0.26174 0.37076 0.25493 0.30832 0.29358 0.31066 0.67481 0.5808 0.56448 0.44008 0.33528 0.23882 0.58449 0.34748 0.80102 0.36141 1.3668 0.54449 1.0308 0.33364 0.61245 0.1514 0.61855 0.10409 2.1668 0.17231 0.80908 0.092809 1.766 0.29704 0.94157 0.18044 1.0004 0.23973 0.91352 0.27836 0.96381 0.35788 1.1462 0.50168 0.60086 0.31114 0.64362 0.39067 0.717 0.49332 0.90082 0.69386 0.40504 0.35275 0.60615 0.57517 1.834 1.9023 1.1052 1.0735 0.55216 0.48451 0.78904 0.64502 0.77363 0.5978 0.61368 0.44263 0.73948 0.48634 0.56548 0.3366 0.41811 0.22471 0.67346 0.31989 0.75543 0.30769 0.71507 0.2483 0.8282 0.21423" stroke="#bdc660"/>
    </defs>
    <g clip-path="url(#pae3921fd76)">
     <use y="280.512" fill="#bdc660" stroke="#bdc660" xlink:href="#m13132170c8"/>
    </g>
   </g>
  </g>
 </g>
 <defs>
  <clipPath id="pae3921fd76">
   <rect x="7.2" y="7.2" width="182.89" height="266.11"/>
  </clipPath>
 </defs>
</svg>
