<?xml version="1.0" encoding="UTF-8"?>
<!DOCTYPE svg  PUBLIC '-//W3C//DTD SVG 1.1//EN'  'http://www.w3.org/Graphics/SVG/1.1/DTD/svg11.dtd'>
<svg width="266.11pt" height="280.51pt" version="1.1" viewBox="0 0 266.11 280.51" xmlns="http://www.w3.org/2000/svg" xmlns:xlink="http://www.w3.org/1999/xlink">
 <metadata>
  <rdf:RDF xmlns:cc="http://creativecommons.org/ns#" xmlns:dc="http://purl.org/dc/elements/1.1/" xmlns:rdf="http://www.w3.org/1999/02/22-rdf-syntax-ns#">
   <cc:Work>
    <dc:type rdf:resource="http://purl.org/dc/dcmitype/StillImage"/>
    <dc:date>2024-07-04T12:11:16.080170</dc:date>
    <dc:format>image/svg+xml</dc:format>
    <dc:creator>
     <cc:Agent>
      <dc:title>Matplotlib v3.7.1, https://matplotlib.org/</dc:title>
     </cc:Agent>
    </dc:creator>
   </cc:Work>
  </rdf:RDF>
 </metadata>
 <defs>
  <style type="text/css">*{stroke-linejoin: round; stroke-linecap: butt}</style>
 </defs>
 <g id="figure_1">
  <g id="patch_1">
   <path d="m0 280.51h266.11v-280.51h-266.11v280.51z" fill="none"/>
  </g>
  <g id="axes_1">
   <g id="PatchCollection_1">
    <defs>
     <path id="mb9703e9241" d="m164.92-238.91-0.32278 1.4239-0.40404 1.4053-0.39582 1.137-0.4521 1.0965-0.51159 1.0408-0.60153 1.029-1.1453 1.7978-0.46898 0.79428-0.31066 0.60096-0.23968 0.5739-0.18472 0.79996 0.12043 0.85326 0.47192 0.63615 0.33163 0.19785 0.78264 0.20263 0.91114-0.009808 0.91434-0.19874 0.90829-0.38937 1.0332-0.71245 1.3105-1.1163 2.7147-2.2114 0.88488-0.78916 1.8647-1.86 0.68962-0.62191 1.1556-0.95812 0.85688-0.64979 0.55194-0.38779 0.67012-0.4103 0.6527-0.31795 0.96663-0.30242 0.78134-0.10322 0.30495-0.005598 3.4681 0.28695 0.60067 0.098011 0.75038 0.20267 3.3553 1.1986 1.1304 0.471 2.4451 1.3073 0.81818 0.38593 0.88972 0.38556 0.58877 0.22063 1.0133 0.26859 0.97925 0.060304 0.97106-0.20509 0.93435-0.387 1.0982-0.53614 0.85124-0.3542 0.85584-0.19465 0.61773 0.005348 0.6101 0.12076 0.91812 0.35845 0.80278 0.38842 0.84246 0.44526 1.6696 0.97648 0.84776 0.46268 1.1572 0.4879 1.0818 0.36633 3.011 0.92784 2.2042 0.74904 0.694 0.17304 1.1114 0.20991 0.82415 0.11894 1.3707 0.15067 3.374 0.29622 0.75655 0.10531 1.146 0.25294 1.1756 0.46651 1.0504 0.71878 0.93105 0.93256 0.54909 0.69489 0.51353 0.75046 0.5502 0.90908 0.51925 0.95186 0.94758 1.9612 0.60286 1.4271 0.53393 1.4331 0.45814 1.4635 0.23087 0.94232 0.18604 1.2006 0.060588 0.74553 0.1092 2.472 0.09648 1.0478 0.1454 0.85949 0.19052 0.81161 0.2063 0.64044 0.38803 0.83939 0.60744 0.87663 0.66136 0.71731 0.92196 0.81224 1.0033 0.75442 0.89472 0.60687 2.9774 1.8687 1.2723 0.86451 1.274 0.98288 0.81163 0.70783 0.64617 0.61254 2.4367 2.4029 0.97471 0.98782 0.73008 0.78821 0.25869 0.36474-0.10318 0.069864-0.35832 0.40674-0.7319 0.9742-0.9456 1.4522-0.76969 1.4009-0.55134 1.2223-0.31382 0.82577-0.2661 0.82451-0.25973 0.98372-0.16051 0.76028-0.2204 1.4452-0.098456 1.0149-0.084159 1.7867 0.002903 1.5751 0.058253 1.3143 0.076678 0.98319 0.17361 1.3563 0.29464 1.9126 0.062882 0.6232 0.048247 1.2729-0.05297 1.1851-0.21001 2.9363-0.079807 0.63939-0.16327 0.86102-0.15909 0.62462-0.26569 0.77427-0.13402 0.30374-0.51167 0.89145-0.44659 0.58793-0.46927 0.51456-0.51403 0.48933-1.0074 0.83395-0.82764 0.60669-1.2254 0.78232-1.2511 0.70272-0.86858 0.45142-3.6549 1.7935-1.025 0.57378-0.76162 0.47735-1.9199 1.3569-5.53 4.1343-1.2052 0.87717-2.0383 1.415-1.3944 0.92513-2.4066 1.5171-6.4655 3.8277-1.0368 0.6924-0.093582 0.11868-0.088128 0.17718-0.091226 0.47924-0.064895 0.54228-0.059441 1.104 0.007144 1.9186 0.057277 1.6395 0.13229 1.9472 0.22548 2.0334 0.32135 1.9476 0.25151 1.1353 0.2873 1.0453 0.46768 1.3629 0.39964 0.94563 0.4265 0.85016 0.28363 0.49372 0.38435 0.58241 0.51363 0.62974 0.58687 0.54461 0.50084 0.36326 0.54027 0.32461 1.0993 0.51813 1.1551 0.4153 1.2972 0.36338 1.4615 0.29795 0.74347 0.1038 0.7073 0.065801 1.3544 0.038035 1.2438-0.06674 1.2384-0.16642 1.1293-0.21794 0.86478-0.2028 1.2475-0.35052 0.70632-0.25941 1.0005-0.4414 0.92084-0.50565 2.2465-1.4091 0.71392-0.35207 0.68403-0.2275 0.64216-0.088802 0.71752 0.071348 0.69096 0.22557 0.58664 0.31396 0.60183 0.49882 0.47558 0.55072 0.43223 0.6533 0.42637 0.83387 0.28439 0.68876 0.32812 0.9716 0.25772 1.0643 0.11481 0.90934-0.007383 0.86892-0.11564 0.70203-0.19466 0.58607-0.19393 0.40947-0.36581 0.60912-1.746 2.4714-0.49925 0.89063-0.21682 0.4958-0.15015 0.46121-0.091167 0.54512-0.003591 0.21179 0.093462 0.58073 0.23558 0.58432 0.49185 0.7805 0.84888 1.0815 0.2866 0.40764 0.28492 0.49922 0.21842 0.52901 0.22743 0.91927 0.1098 0.97124 0.081777 2.0556 0.19076 1.8565 0.036764 0.6943-0.029948 0.65704-0.12006 0.63438-0.12634 0.36667-0.57028 0.94198-0.81859 0.85706-0.97515 0.79692-1.6155 1.2223-1.2504 1.0164-3.851 3.2841-0.84835 0.74255-0.80275 0.75418-0.54951 0.58948-0.52841 0.67645-1.8595 2.8723-0.59174 0.75318-0.57824 0.60638-0.59319 0.5193-0.89712 0.65264-1.1293 0.70112-2.4973 1.4596-1.6572 1.0044-0.83687 0.52644-0.96572 0.66824-1.1334 0.91722-1.7727 1.5774-3.7864 3.0482-0.59647 0.54667-0.83812 0.87795-0.43082 0.52228-0.50801 0.77596-0.25426 0.61911-0.072605 0.34163-0.038739 0.54186 0.043353 0.73051 0.23593 1.8952 0.062391 0.89992 0.00276 0.46713-0.068232 0.89478-0.16361 0.92864-0.168 0.59466-0.31776 0.80017-0.34382 0.6971-0.43049 0.74206-0.33486 0.51366-0.64357 0.87873-0.77083 0.84084-0.44383 0.43139-0.73148 0.68364-0.80719 0.6433-0.67582 0.42336-0.73993 0.38569-0.85081 0.38466-0.89633 0.36459-7.5545 2.7996-1.2379 0.43193-1.2024 0.37961-1.5351 0.39652-0.9611 0.17434-0.85625 0.082442-0.98564-0.012148-1.8505-0.11646-0.89343 0.063405-0.54762 0.12637-0.68877 0.25179-0.81852 0.41833-0.46909 0.28997-1.2629 0.90578-1.266 0.97142-0.78339 0.66979-0.74329 0.71621-1.1256 1.1641-0.63587 0.56073-0.61669 0.4171-0.29501 0.15764-0.53371 0.2102-0.65204 0.12128-0.68913 0.008479-0.41154-0.037007-1.6663-0.27588-1.936-0.26021-1.1735-0.2681-0.73707-0.25186-0.73405-0.32746-2.51-1.3661-0.84602-0.42498-0.6806-0.29456-1.0983-0.37369-0.58795-0.14045-1.312-0.15743-0.67575-0.029367-0.84928 0.008155-2.4697 0.10372-0.93735 0.001851-1.2671-0.058885-1.0858-0.10976-0.86991-0.1337-1.1786-0.22664-0.90578-0.20826-1.6468-0.47733-2.1761-0.76162-1.7208-0.75785-1.413-0.76997-1.1594-0.76084-0.9048-0.70807-1.6463-1.3992-1.4197-1.3463-1.1661-1.1685-3.3524-3.6497-1.1266-1.1656-0.96622-0.91205-0.61209-0.51163-0.99856-0.74704-2.0491-1.4506-0.83853-0.55658-0.77451-0.42316-1.3517-0.56051-0.68785-0.31754-0.55828-0.32502-0.55706-0.38619-0.98391-0.82037-1.9545-1.9115-0.77255-0.68816-0.41802-0.33062-0.97229-0.64206-1.0567-0.51-0.7153-0.24219-0.74286-0.17838-0.55799-0.092167-0.82293-0.078714-0.86902-0.014467-0.99042 0.062787-1.1354 0.15826-1.4204 0.29603-1.4132 0.37052-7.5855 2.2886-0.57918 0.22418-0.3671 0.17715-0.52118 0.32969-0.33205 0.27665-0.28297 0.29826-0.56648 0.90555-0.41657 1.0457-0.65417 1.8855-1.2228 2.6844-0.32286 0.85252-0.13329 0.42392-0.24279 1.0319-0.12628 0.96092-0.10885 1.7222 0.032768 1.4318 0.081333 0.88268 0.49034 2.9752 0.19752 1.523 0.13667 1.2338 0.093657 1.2431 0.02283 1.1996-0.033338 2.1758-0.11232 1.6774-0.42905 3.6858-0.2175 3.2335-0.15737 1.1335-0.25168 0.88288-0.27396 0.56939-0.39477 0.57801-0.46644 0.52647-0.55727 0.52955-0.90095 0.77309-0.881 0.68313-2.2158 1.6429-1.1822 0.74899-0.72327 0.38061-0.83488 0.39446-0.86937 0.37005-1.0348 0.38852-1.1736 0.3689-0.73466 0.18929-1.4408 0.28751-1.6574 0.20988-1.3608 0.085895-0.84216 0.00706-0.82853-0.033205-0.95071-0.096073-0.91458-0.16717-1.011-0.30413-0.92626-0.44704-0.76786-0.55399-0.3877-0.34466-0.54743-0.55189-0.5821-0.6543-0.85223-1.0469-0.63393-0.83222-1.1642-1.6183-0.83469-1.2227-0.90378-1.4258-0.37464-0.69126-0.23945-0.53916-0.17035-0.52959-0.071963-0.41594 0.052989-0.65514 0.16158-0.18319 0.17683-0.11085 0.061027-0.054081-0.056907-0.19474-0.40226-0.64894-2.6257-3.6689-0.80683-1.1895-0.47286-0.75806-0.56402-1.0248-0.41543-0.88033-0.36966-0.90824-0.51078-1.5347-0.40871-1.5761-0.33496-1.6551-0.27244-1.6699-0.42964-3.2647-0.55247-5.0622-0.35609-3.6961-0.2252-3.1451-0.07449-1.6389-0.037835-2.9481 0.10014-2.714 0.10746-1.3864 0.14846-1.3696 0.17506-1.2328 0.21668-1.2103 0.21892-1.0004 0.25459-0.97675 0.34275-1.0928 0.26198-0.70692 0.83206-1.9051 1.5353-3.0801 0.46188-1.1646 0.26168-0.91067 0.19637-0.94038 0.18638-1.2981 0.12622-1.326 0.31239-5.2309 0.20859-2.6257 0.017068-1.0168-0.021589-0.52677-0.061114-0.59451-0.1162-0.53053-0.10195-0.26974-0.2145-0.35658-0.19023-0.21031-0.3193-0.2363-0.30927-0.13307-0.29098-0.059667-0.2279-0.013809-0.52713 0.042006-0.57031 0.11649-1.0189 0.30626-1.0154 0.36005-4.7127 1.7114-1.3148 0.50942-0.99842 0.44864-2.3355 1.2068-0.56677 0.26546-0.67282 0.26115-1.1484 0.27883-1.1831 0.11511-0.8694-0.002445-0.85646-0.068822-1.0036-0.1681-1.1281-0.29043-1.9041-0.52805-1.1544-0.38957-1.4564-0.6336-2.6286-1.3218-0.74129-0.40657-0.7702-0.47152-1.5504-0.99808-0.76674-0.54038-0.79126-0.68578-0.66563-0.7406-0.58636-0.79732-0.39561-0.62377-0.33308-0.66455-0.23817-0.69369-0.16131-0.7483-0.11554-1.4024 0.014353-0.872 0.063227-0.89448 0.12449-1.0732 0.56031-3.7485 0.11597-1.4574-0.021933-1.5504-0.24462-3.5934-0.11511-1.1167-0.7483-4.8375-0.16011-1.4072-0.092017-1.442-0.007917-1.342 0.048854-1.1776 0.3047-3.6318 0.015993-1.3223-0.071106-0.87004-0.54638-3.4767-0.094933-0.80302-0.09693-1.2065-0.059103-1.4521-0.011986-1.8223 0.14795-5.8894-0.020874-1.0275-0.13943-0.23712-0.2297-0.5567-0.27256-0.82202-0.21284-0.92197-0.065026-0.49492-0.019528-0.47492 0.087984-0.71251 0.14919-0.39119 0.17616-0.26392 0.31615-0.27715 0.31386-0.1658 0.42285-0.14262 0.61482-0.12741 2.922-0.36496 0.75602-0.018022 0.3985 0.029641 0.41501 0.065541 0.46125 0.11552 0.56137 0.19366 1.7867 0.7107 0.66427 0.18599 1.7141 0.4021 1.1941 0.37128 0.99732 0.40091 0.63797 0.33582 0.55695 0.36691 0.44703 0.38727 0.61107 0.80638 0.25739 0.23884 0.16218 0.044593 0.17387-0.022543 0.26596-0.15803 0.22852-0.23305 0.30729-0.49709 0.33146-0.77336 0.48714-1.3512 0.30242-0.75133 0.35275-0.74224 0.41397-0.70553 0.48481-0.64975 0.48409-0.52599 0.56613-0.46446 0.63787-0.3977 0.69342-0.33379 1.2979-0.47471 1.1923-0.35238 0.63381-0.1521 1.4122-0.27382 1.8421-0.27185 2.3608-0.29716 0.36045-0.05573 0.14044-0.047544 0.040052 0.006922 0.13307-0.11824 0.14568-0.24994 0.2047-0.51458 0.2177-0.73065 0.5984-2.3411 0.48474-1.4716 0.21605-0.51245 0.38665-0.78729 0.98218-1.7454 0.48635-0.75488 0.75704-0.99084 0.74245-0.8409 1.9039-1.9758 0.88355-0.96256 0.35961-0.42946 0.50876-0.73459 0.14258-0.30581 0.056533-0.19616 0.019202-0.26718-0.034018-0.17496-0.10898-0.19384-0.28046-0.18313-0.92214-0.29499-0.26088-0.10993-0.19522-0.12911-0.095257-0.15283 0.046139-0.20872 0.18459-0.23644 0.28446-0.25454 0.35091-0.26386 1.4152-0.94743 0.22717-0.20573 0.1868-0.25681 0.17964-0.44042 0.11499-0.52911 0.2019-1.8468 0.098866-0.59754 0.15091-0.51958 0.17272-0.34167 0.18458-0.21284 0.16448-0.033831 0.066082 0.19703 0.31737 0.15061 0.68152 0.091205 0.90321-0.006363 3.1914-0.21612 1.2985-0.024348 0.7142 0.040512 0.69765 0.088653 0.94373 0.20278 1.5807 0.45259 0.89954 0.22291 0.91493 0.13883 0.9918 0.018979 1.0065-0.075176 2.3441-0.27679 1.3275-0.2761 0.80366-0.2761 0.68884-0.304 1.2858-0.68386 2.2839-1.3535 1.0124-0.56362 1.1744-0.55678 0.6901-0.26312 0.9468-0.28447 1.2664-0.28555 1.3653-0.16092 1.0019 0.007358 1.0418 0.15044 2.8708 0.65011 5.52 0.94906 1.8941 0.27446 1.6458 0.14101 1.7285 0.026418 0.70456-0.042822 0.70209-0.086407 0.56741-0.10741 0.70174-0.198 0.64022-0.26561 0.7034-0.40313 0.88362-0.76265 0.73838-0.93613 0.59608-1.0544 0.44709-1.1261 0.21344-0.76046 0.21761-0.97699 0.3487-2.0569 0.36887-2.7123 0.18827-1.1808 0.27893-1.147 0.28038-0.80925 0.3542-0.85344 0.38492-0.7469 0.29867-0.46771 0.64218-0.78224 0.73825-0.60266 0.66483-0.32726 0.70134-0.21391 0.4782-0.097022 0.42399-0.049583 0.61036 0.001119 0.51543 0.069468 1.8461 0.48564 0.46873 0.097772 0.86686 0.073177 0.81948-0.091953 0.69729-0.28715 0.33161-0.28143 0.16711-0.2104 0.30373-0.60329 0.17525-0.70951 0.09056-0.65084 0.043167-0.69188-0.019556-0.66244-0.10414-0.69923-0.16931-0.67441-0.18537-0.56976-0.54384-1.318-0.67671-1.3198-0.97639-1.6462-1.3184-2.0064-0.4923-0.86462-0.32857-0.73021-0.19869-0.58977-0.13867-0.56051-0.14847-0.97662 0.006988-0.95176 0.17912-0.84264 0.2611-0.72314 0.84639-2.1021 0.2331-0.73685 0.29545-1.3343 0.20297-1.4221 0.078042-0.74359 0.10038-1.7654 0.15902-4.3605 0.11221-1.4581 0.24495-2.0533 0.30116-1.7905 0.17401-0.78029 0.23775-0.84797 0.349-0.92128 0.40751-0.76091 0.54533-0.71228 0.5611-0.54086 0.52922-0.39999 0.62261-0.36578 0.70584-0.28316 0.6441-0.11238 0.65373 0.094935 0.53646 0.32016 0.4827 0.51918 0.59048 0.99927 0.40032 0.97043 0.22665 0.6825 0.59889 2.0742 0.33642 1.0235 0.30401 0.7919 0.36459 0.81801 0.4087 0.79146 0.3995 0.67579 0.33209 0.49849 0.49651 0.64322 0.5706 0.59302 0.63511 0.50832 0.66333 0.40103 0.98993 0.39853 0.62545 0.12884 0.57395 0.0142 0.40865-0.072021 0.36367-0.12909 1.2518-0.72024 0.37145-0.14983 1.7183-0.4361 0.3566-0.14109 0.47676-0.30872 0.42165-0.41201 0.43436-0.6328 0.27686-0.53496 0.48458-1.1751 0.83687-2.4041 0.58568-1.5003 0.5496-1.2394 0.48264-0.97113 0.52952-0.90305 0.60216-0.82961 1.3236-1.6497 0.41436-0.61119 0.57534-1.0908 0.46019-1.1363 0.81395-2.4996 0.42612-1.1945 0.45235-1.0285 0.48451-0.81042 0.58417-0.57725 0.35839-0.15155 0.3742-0.026771 0.60586 0.20924 0.70631 0.57127 0.36578 0.42422 0.34028 0.48148 0.28642 0.48605 0.93804 1.9588 0.57014 1.0986 2.6854 4.7604 0.89922 1.7704 0.45575 1.0034 0.75597 1.8492 0.42516 1.4094 0.16652 0.7922 0.12902 1.3048-0.016403 1.3648-0.13525 1.4036-0.23515 1.4231" stroke="#bdc660"/>
    </defs>
    <g clip-path="url(#pbb1720eeb7)">
     <use y="280.512" fill="#bdc660" stroke="#bdc660" xlink:href="#mb9703e9241"/>
    </g>
   </g>
  </g>
 </g>
 <defs>
  <clipPath id="pbb1720eeb7">
   <rect x="7.2" y="7.2" width="251.71" height="266.11"/>
  </clipPath>
 </defs>
</svg>
