<?xml version="1.0" encoding="UTF-8"?>
<!DOCTYPE svg  PUBLIC '-//W3C//DTD SVG 1.1//EN'  'http://www.w3.org/Graphics/SVG/1.1/DTD/svg11.dtd'>
<svg width="290.4pt" height="280.51pt" version="1.1" viewBox="0 0 290.4 280.51" xmlns="http://www.w3.org/2000/svg" xmlns:xlink="http://www.w3.org/1999/xlink">
 <metadata>
  <rdf:RDF xmlns:cc="http://creativecommons.org/ns#" xmlns:dc="http://purl.org/dc/elements/1.1/" xmlns:rdf="http://www.w3.org/1999/02/22-rdf-syntax-ns#">
   <cc:Work>
    <dc:type rdf:resource="http://purl.org/dc/dcmitype/StillImage"/>
    <dc:date>2024-07-04T12:11:18.828240</dc:date>
    <dc:format>image/svg+xml</dc:format>
    <dc:creator>
     <cc:Agent>
      <dc:title>Matplotlib v3.7.1, https://matplotlib.org/</dc:title>
     </cc:Agent>
    </dc:creator>
   </cc:Work>
  </rdf:RDF>
 </metadata>
 <defs>
  <style type="text/css">*{stroke-linejoin: round; stroke-linecap: butt}</style>
 </defs>
 <g id="figure_1">
  <g id="patch_1">
   <path d="m0 280.51h290.4v-280.51h-290.4v280.51z" fill="none"/>
  </g>
  <g id="axes_1">
   <g id="PatchCollection_1">
    <defs>
     <path id="mf6279edd9b" d="m117.82-254.44 0.59332 0.013361 0.525-0.059878 0.30636-0.071666 0.29721-0.093926 0.62912-0.26275 0.56147-0.29906 0.59884-0.37942 1.2116-0.86369 0.4797-0.30912 0.31306-0.15916 0.33172-0.11528 0.26385-0.037907 0.25029 0.026165 0.21104 0.084752 0.27333 0.20032 0.14532 0.14725 0.2023 0.25195 0.12451 0.18259 0.24659 0.42386 0.22066 0.43909 0.94086 2.133 0.29899 0.58221 0.3488 0.57319 0.40006 0.54949 0.30082 0.35838 0.3363 0.3624 0.89371 0.86345 0.90884 0.8112 0.72148 0.60809 0.69588 0.56096 0.75871 0.58096 0.76931 0.55484 1.135 0.75741 1.2357 0.76119 0.75618 0.43047 0.98832 0.51536 1.0371 0.46839 0.75155 0.28028 0.71898 0.21397 0.65422 0.14688 0.82902 0.12571 0.74838 0.05746 0.67101 0.008081 1.837-0.02552 0.63023 0.007036 0.9803 0.042781 0.94796 0.083104 2.7831 0.33755 0.051353-0.013918 0.074859 0.010029 0.15043 0.055349 0.26268 0.14043 0.41305 0.28287 0.28293 0.23524 0.2992 0.29876 0.26798 0.32923 0.20082 0.30222 0.17902 0.32928 0.15256 0.34667 0.11298 0.317 0.11339 0.40185 0.10389 0.49408 0.21995 1.6039 0.12998 0.68517 0.12248 0.39713 0.18998 0.40826 0.14806 0.23056 0.13642 0.17828 0.33212 0.36107 0.30909 0.28418 0.46993 0.38193 1.8662 1.3644 0.7055 0.53232 0.86412 0.68344 0.69756 0.58852 0.56092 0.50443 0.67431 0.65031 0.66274 0.69786 0.7061 0.82403 0.60234 0.78378 0.2733 0.38316 1.234 1.8816 0.7145 1.0518 0.30835 0.41447 0.46708 0.57324 0.3355 0.37042 0.44475 0.44514 0.60655 0.54161 0.57279 0.46183 0.63016 0.46917 2.2944 1.6096 0.39667 0.31307 0.40434 0.36997 0.25729 0.29508 0.24094 0.37361 0.14741 0.29738 0.35371 0.87885 0.46776 1.0625 0.32928 0.86536 0.15469 0.34693 0.19041 0.32873 0.24194 0.29816 0.44929 0.35879 0.54887 0.28913 0.60897 0.22631 0.69634 0.18406 0.6313 0.11359 0.38017 0.039657 0.20516-0.008219 0.13613-0.17796 0.84724-1.2389 1.2685-1.9592 0.26968-0.35548 0.32224-0.36827 0.34086-0.33299 0.5047-0.40447 0.3596-0.23292 0.36607-0.19457 0.63554-0.23762 0.48536-0.088376 0.56972 0.022212 0.24029 0.062697 0.182 0.075192 0.13627 0.072706 0.27067 0.18471 0.19867 0.16568 0.80294 0.77991 0.37929 0.33129 0.3159 0.23057 0.43904 0.25831 0.54443 0.25286 0.32228 0.1012 0.48124 0.074659 0.30514 0.013402 0.39511-0.028335 0.36275-0.093245 0.46671-0.26296 0.33982-0.31021 0.14454-0.18634 0.11671-0.18935 0.61322-1.3034 0.292-0.49644 0.16974-0.22362 0.23529-0.23811 0.14656-0.11382 0.29065-0.16238 0.25645-0.086395 0.50793-0.075819 1.0996-0.02821 1.747-0.1295 1.0245-0.028963 0.48843 0.01176 0.49299 0.032235 0.6947 0.085534 0.76476 0.15377 0.78973 0.22322 0.81641 0.27937 0.6552 0.26121 0.52274 0.23748 2.3671 1.2299 0.92002 0.40464 0.68172 0.24212 0.64138 0.16598 0.41873 0.074327 0.46455 0.0512 0.45668 0.017796 0.47991-0.017323 0.50897-0.058674 0.51984-0.10064 0.49516-0.13108 0.60531-0.19953 1.0612-0.42261 2.3295-1.014 0.8081-0.31297 0.83782-0.27625 1.2991-0.3494 0.72732-0.16183 0.87245-0.16643 1.2336-0.19119 0.7874-0.101 1.0186-0.1028 1.0028-0.061772 0.9842-0.017995 1.5294 0.036056 2.589 0.13572 1.5087 0.057812 1.4747 0.025367 1.381-0.004286 0.70951-0.017508 0.86857-0.046064 0.76514-0.07706 0.69085-0.11076 0.61794-0.13946 0.623-0.18704 0.62362-0.23492 1.0306-0.46872 1.1553-0.59667 4.013-2.1456 1.3348-0.68907 1.8877-0.92388 0.65454-0.29772 0.27422-0.11159 0.086961-0.016441 0.079426 0.10441 0.1237 0.24326 0.43122 0.96129 0.47956 1.1619 0.3169 0.833 0.28285 0.86168 0.32725 1.3209 0.17038 0.57111 0.23569 0.53756 0.32392 0.48871 0.40092 0.45198 0.38436 0.35484 0.55665 0.41206 0.44931 0.28225 0.58928 0.33597 3.9903 2.1626 0.52579 0.30714 0.71022 0.45667 0.69465 0.50778 0.42018 0.34298 0.4752 0.42985 0.59085 0.63353 0.2269 0.29378 0.15715 0.23231 0.29404 0.53039 0.17697 0.40377 0.26024 0.74029 0.89054 3.1293 0.22 0.87234 0.13766 0.69649 0.061765 0.46628 0.056386 0.75463 0.014 0.59305-0.013004 0.63942-0.091515 0.9659-0.19116 1.5074-0.025766 0.70844 0.031665 0.47705 0.093272 0.50587 0.0432 0.15138 0.14901 0.38758 0.18961 0.37375 0.22623 0.3729 0.36683 0.48555 0.25253 0.27525 0.37302 0.35286 0.55892 0.44026 0.57114 0.36904 0.66429 0.36932 0.65106 0.31753 1.6829 0.75855 0.65319 0.33255 0.50608 0.29233 0.68566 0.44773 0.63957 0.47721 0.41022 0.36004 0.36544 0.38854 0.33029 0.4395 0.27635 0.49464 0.19023 0.49896 0.07715 0.29431 0.062703 0.34928 0.02579 0.25134 0.009135 0.35016-0.038864 0.51986-0.11834 0.66894-0.17784 0.72113-0.18262 0.60311-0.20211 0.5412-0.15174 0.33595-0.17128 0.31584-0.20807 0.30909-0.22738 0.2692-0.371 0.35323-0.27848 0.22274-0.31653 0.22405-0.36078 0.22668-0.49317 0.26983-0.71922 0.34045-0.82002 0.34754-6.2199 2.4813-4.1702 1.5781-0.75284 0.24234-0.58642 0.12899-0.68609 0.054312-0.47602-0.054539-0.4363-0.16599-0.091153-0.057366-0.21546-0.18075-0.21634-0.25969-0.15417-0.24372-0.20154-0.41032-0.15572-0.41073-0.16456-0.58101-0.12084-0.58224-0.092057-0.5572-0.31098-2.5832-0.15435-1.475-0.17091-2.2366-0.11878-1.1224-0.085492-0.55704-0.092149-0.46789-0.074388-0.29398-0.14336-0.43378-0.2459-0.54214-0.24812-0.39901-0.2725-0.32071-0.28259-0.23968-0.249-0.14687-0.29401-0.10339-0.26213-0.034017-0.25484 0.00793-0.23666 0.034463-0.29085 0.06718-1.7925 0.56775-0.7928 0.23199-0.665 0.17828-2.053 0.498-0.76224 0.22512-0.697 0.25702-0.73475 0.3507-0.67657 0.42122-0.3741 0.28413-0.29469 0.2556-0.30624 0.29958-0.51531 0.58705-0.4904 0.66008-0.4291 0.66126-0.40028 0.69474-0.33096 0.64203-0.53135 1.183-0.9392 2.3933-0.69475 1.67-1.1634 2.5575-0.33554 0.69905-0.071904 0.13228-0.033699 0.03395-0.15441 0.20778-0.70015 1.0798-0.9246 1.4839-0.3378 0.61262-0.67916 1.3319-0.36136 0.61946-0.4773 0.70369-0.40076 0.52885-0.4052 0.4902-0.35719 0.36649-0.2944 0.23847-0.22012 0.14437-0.38575 0.20495-0.32972 0.14316-1.6281 0.56666-1.1033 0.40289-1.0189 0.41273-0.8633 0.3802-0.65006 0.3103-1.2971 0.66266-0.52767 0.28052-0.45837 0.27551-0.36298 0.2902-0.23588 0.30016-0.13196 0.30153-0.042214 0.26983-0.002992 0.4824-0.026985 0.56794-0.049465 0.34354-0.036314 0.12461-0.081994 0.17243-0.14509 0.17776-0.18479 0.14649-0.10374 0.061528-0.21004 0.087396-0.24779 0.058126-0.64622 0.09351-0.39035 0.077448-0.32411 0.094811-0.28071 0.10964-0.40073 0.18258-0.74124 0.39288-0.34912 0.22237-0.49238 0.36414-0.31238 0.25857-0.50028 0.4506-0.30081 0.29312-0.44943 0.49656-1.6841 2.1498-0.43022 0.62917-0.22008 0.39046-0.27231 0.63762-0.14092 0.5716-0.030891 0.40844 0.024984 0.32358 0.077086 0.33258 0.14808 0.39992 0.22684 0.49128 0.93912 1.9034 0.25554 0.56027 0.23241 0.57108 0.20656 0.65349 0.089961 0.49677 0.014503 0.3233-0.026445 0.31277-0.083591 0.35803-0.12703 0.3408-0.45169 0.99709-0.077346 0.21254-0.11548 0.41604-0.09068 0.59714-0.074947 1.6496-0.031937 0.37951-0.093277 0.62503-0.19346 0.76904-0.23541 0.64803-0.31514 0.6879-0.28602 0.54582-0.87701 1.5821-0.21576 0.44404-0.19446 0.46792-0.11123 0.3289-0.093312 0.36176-0.063138 0.40852-0.001471 0.6164 0.050814 0.33254 0.13679 0.47046 0.13868 0.32722 0.17332 0.32725 0.3234 0.49061 0.22687 0.28844 0.21589 0.24134 0.12613 0.12564 0.26286 0.21964 0.14779 0.092247 0.24711 0.088433 0.17852-0.008342 0.15332-0.10214 0.072781-0.15149 0.021236-0.2397-0.053831-0.38037-0.1903-0.82273-0.050052-0.27967-0.035657-0.2833-0.021309-0.47964 0.032044-0.46707 0.079183-0.42292 0.10212-0.34418 0.1531-0.37539 0.2377-0.42544 0.34542-0.42687 0.27946-0.23185 0.38317-0.19475 0.44061-0.080719 0.3966 0.044882 0.4255 0.16873 0.26432 0.16468 0.86832 0.66833 0.3319 0.20117 0.35985 0.15072 0.45472 0.087153 0.40779-0.011507 0.32871-0.060215 0.3354-0.094791 1.5831-0.57301 0.40536-0.1241 0.67838-0.14669 0.72832-0.043201 0.65713 0.090308 0.45879 0.15705 0.60072 0.35688 0.53467 0.50118 0.45797 0.62876 0.3435 0.66311 0.17366 0.42836 0.15361 0.44684 0.19117 0.66391 0.16345 0.6858 0.18154 0.93744 0.13038 0.87013 0.10361 0.95964 0.040534 0.57271 0.020042 0.56242-0.014327 0.74944-0.050407 0.54873-0.08816 0.51863-0.1239 0.46604-0.16215 0.42162-0.21405 0.38842-0.25484 0.31465-0.24201 0.19628-0.2629 0.12793-0.40704 0.051606-0.37076-0.092339-0.46133-0.28251-0.4342-0.39648-0.84468-0.84781-0.51674-0.40985-0.33476-0.19673-0.44808-0.16159-0.29387-0.033352-0.39911 0.068847-0.33227 0.1998-0.21931 0.27434-0.10568 0.24604-0.05766 0.27724-4.89e-4 0.39686 0.081438 0.42204 0.13252 0.3742 0.18063 0.37944 0.41454 0.69393 0.88247 1.2944 0.65919 0.90996 0.27365 0.32681 0.55647 0.52385 0.64173 0.38859 0.64523 0.22109 0.42597 0.084055 1.2009 0.14331 0.58551 0.11303 0.6264 0.2378 0.43561 0.30259 0.33083 0.39681 0.16998 0.34654 0.090224 0.29261 0.072774 0.40137 0.042575 0.42113 0.11936 1.6007 0.015606 0.83532-0.016345 0.63607-0.076999 1.2304-0.23318 2.3972-0.083171 0.62757-0.078916 0.45985-0.10241 0.44675-0.11954 0.38859-0.30051 0.68602-0.34839 0.55909-0.36535 0.4575-0.29093 0.31628-0.66755 0.6771-0.35462 0.39506-0.27134 0.3737-0.17053 0.30624-0.24038 0.68812-0.08125 0.47461-0.030413 0.49888 0.024228 0.61821 0.1053 0.79261 0.14713 0.69621 0.27269 0.92103 0.23321 0.60068 0.36306 0.74284 0.52637 0.84735 0.56047 0.74471 0.50088 0.58684 0.47345 0.507 0.54876 0.54462 0.36116 0.32729 0.025851 0.28239-0.15165 0.19852-0.24414 0.10981-0.34536 0.035363-0.26517-0.027901-0.29005-0.069515-0.34939-0.12195-1.1276-0.49583-0.64906-0.22991-0.5295-0.096366-0.50967 0.015607-0.47108 0.12781-0.48132 0.26003-0.29386 0.22809-0.27828 0.2632-0.49615 0.56674-0.78035 1.0007-0.39312 0.44325-0.33956 0.31271-0.42236 0.2994-0.52059 0.25512-0.51689 0.15291-0.57772 0.06437-0.37218-0.019896-0.42988-0.082863-0.5658-0.20022-0.50342-0.25327-0.9458-0.59118-0.33159-0.18051-0.22467-0.078382-0.20097-0.019309-0.15659 0.031029-0.099487 0.047016-0.20529 0.18289-0.10628 0.15435-0.12974 0.27391-0.10835 0.33699-0.096969 0.4146-0.10032 0.5599-0.0796 0.59701-0.044322 0.53022-0.01601 0.46399 0.003795 0.48695 0.027924 0.66153 0.11138 1.7521 0.01333 0.48742-0.01413 0.51566-0.076203 0.61549-0.18885 0.65359-0.15416 0.30943-0.18516 0.26048-0.3775 0.31519-0.2227 0.089557-0.22746 0.03022-0.25297-0.039728-0.2159-0.10359-0.17855-0.14469-0.13894-0.15838-0.14688-0.21752-0.2572-0.48526-0.47121-1.0217-0.22668-0.42715-0.25484-0.37413-0.18927-0.2114-0.2907-0.2381-0.43001-0.21572-0.57973-0.10488-0.32457 0.022276-0.32211 0.078175-0.44195 0.20569-0.50495 0.40328-0.37727 0.46035-0.3461 0.60285-0.31571 0.74475-0.70766 1.981-0.1674 0.4038-0.28112 0.56972-0.37726 0.56927-0.41307 0.43496-0.45597 0.32439-0.30861 0.14994-0.48114 0.14945-0.44728 0.070369-0.4632 0.021641-0.69218-0.038011-1.4104-0.1897-0.76217-0.0704-0.48856-0.008453-0.6839 0.042106-0.57879 0.097606-0.47654 0.14048-0.31888 0.13671-0.33896 0.19515-0.34363 0.26515-0.44891 0.47538-0.41558 0.58489-0.22313 0.36585-0.72908 1.3427-0.38826 0.65318-0.2236 0.30703-0.295 0.31946-0.28735 0.2294-0.44911 0.24277-0.60143 0.17849-0.64145 0.061988-0.50387-0.017554-1.5636-0.1618-0.62165-0.008157-0.3727 0.030049-0.43614 0.078995-0.42749 0.13391-0.33136 0.14974-0.36799 0.22144-0.35804 0.275-0.35999 0.32845-1.0317 1.0461-0.5823 0.53413-0.59149 0.47555-0.75421 0.5261-0.46223 0.27999-0.49298 0.26711-0.67845 0.32827-2.2167 0.95098-1.7097 0.77441-0.56946 0.2225-0.54254 0.16522-0.34741 0.073305-0.35135 0.041162-0.56795-0.013996-0.3099-0.056467-0.29496-0.09631-0.34795-0.18445-0.38136-0.31833-0.36273-0.45403-0.24885-0.42402-0.28998-0.62399-0.61415-1.5019-0.27029-0.60654-0.25223-0.50624-0.20978-0.36257-0.27668-0.37462-0.17448-0.14358-0.15185 0.019781-0.15475-0.007365-0.25253 0.2124-0.1827 0.27957-0.13939 0.29539-0.11909 0.33523-0.11272 0.42813-0.095699 0.48804-0.29942 1.9825-0.10184 0.4609-0.13512 0.47738-0.22059 0.59511-0.30648 0.62549-0.3904 0.62427-0.38394 0.50541-0.38362 0.4371-0.65407 0.6483-0.5883 0.52592-0.3641 0.30673-0.73052 0.57412-1.6224 1.2077-1.907 1.5509-0.39983 0.28328-0.38945 0.22631-0.28514 0.12979-0.39777 0.13185-0.35673 0.072944-0.53147 0.03612-0.47936-0.035623-0.35556-0.061874-1.4762-0.38895-0.54134-0.12461-0.6663-0.12335-0.38911-0.044602-0.5138-0.019543-0.68149 0.03295-0.36447 0.046571-0.33304 0.064413-0.31866 0.083737-0.33479 0.11375-0.31519 0.13513-0.54623 0.31508-0.22888 0.16603-0.2096 0.17285-0.33894 0.3343-0.20335 0.24121-0.23721 0.32195-0.90973 1.4202-0.5055 0.69857-0.38042 0.46801-0.45692 0.51616-0.61734 0.6201-0.78878 0.72254-0.47604 0.39429-1.3207 0.95-0.81317 0.62995-0.65393 0.56895-1.7527 1.5751-0.65092 0.51163-0.5035 0.30875-0.56569 0.25633-0.72676 0.23117-0.48234 0.11332-0.54972 0.096635-0.43208 0.05333-0.44249 0.037005-1.812 0.078071-0.53568 0.057364-0.41932 0.077644-0.72204 0.2218-0.34318 0.13851-0.27287 0.13176-0.2856 0.16982-0.27086 0.20723-0.19938 0.19556-0.22093 0.27932-0.14445 0.22916-0.1674 0.329-0.088814 0.22429-0.10026 0.34148-0.11875 0.69276-0.0499 0.70174-0.006826 0.78242 0.093065 2.3544-0.014325 0.25296-0.024708 0.040986-0.065725-0.037512-0.15643-0.019231-0.23297-0.001571-0.9491 0.071301-2.103 0.076198-0.61406 0.006754-0.68245-0.025424-0.78822-0.060082-1.9549-0.074218-0.53649-0.072105-0.51106-0.1345-0.49353-0.16938-0.49937-0.1982-0.4976-0.22019-1.0978-0.54275-0.48316-0.27717-0.48111-0.34838-0.19785-0.17554-0.30737-0.32326-0.27309-0.33694-0.52241-0.73681-0.32202-0.52527-0.34602-0.65801-0.19458-0.33557-0.22408-0.30965-0.39388-0.43849-0.44215-0.44849-0.44378-0.41134-0.40765-0.33122-0.63799-0.4486-0.59018-0.37357-0.69083-0.39373-0.84989-0.42958-0.8087-0.35156-0.63269-0.23522-0.60147-0.19552-0.65728-0.18525-0.68188-0.15267-0.68824-0.1012-0.62544-0.04374-0.55785-0.00791-0.82399 0.024939-1.7257 0.094276-1.6744 0.054779-2.4705 0.16843-0.81511 0.003255-1.5589-0.035333-1.0483 0.02413-0.63314 0.041723-0.36645 0.045346-0.33658 0.073979-0.2573 0.092543-0.29903 0.16354-0.44099 0.33472-0.90559 0.74125-0.62126 0.4605-0.67172 0.46425-0.71063 0.45721-0.74062 0.43905-0.76388 0.40853-0.78219 0.36344-0.797 0.30058-0.66897 0.1885-0.6701 0.13052-0.35376 0.046475-3.5499 0.32128-0.70918 0.039881-0.42151 0.006752-1.5764-0.071161-0.66915-0.003166-1.4414 0.037438-0.84415 0.075602-0.50019 0.085689-0.39285 0.08778-0.69937 0.21414-0.51532 0.20609-0.54458 0.24868-0.74219 0.40473-0.803 0.52029-0.8124 0.6094-0.33378 0.28624-0.45884 0.43384-0.58997 0.61283-0.38532 0.43365-0.42771 0.54803-0.55341 0.78503-0.72674 1.0998-1.1326 1.8138-0.98296 1.408-0.3901 0.51543-0.4704 0.57688-0.68815 0.80351-0.56862 0.63303-0.55794 0.6008-1.5033 1.5519-2.4669 2.3065-1.6766 1.6369-1.1739 1.2125-1.8584 2.0085-0.41299 0.40978-0.53628 0.46966-0.65606 0.47874-0.3331 0.20952-0.3966 0.22139-0.87829 0.42172-0.91214 0.37645-0.70155 0.24288-0.76426 0.23128-3.663 0.96228-1.7885 0.53046-1.0685 0.36422-0.93961 0.36246-0.61688 0.28419-0.12208 0.075234-0.048842 0.06691-0.074049 0.031387-0.036648 0.018162-0.12888 0.035127-0.22822 0.038144-0.32182 0.018781-0.40856-0.044892-0.29079-0.093865-0.31335-0.17745-0.36313-0.31209-0.38684-0.46196-0.27385-0.40959-0.26018-0.44814-0.34659-0.66997-1.5603-3.3481-1.9411-4.4272-0.49401-1.1542-0.31608-0.78304-0.28094-0.7669-0.22843-0.73437-0.17873-0.73713-0.35875-1.7574-0.12967-0.51967-0.15569-0.50366-0.17156-0.43846-0.20687-0.41704-0.38049-0.58027-0.44263-0.54373-0.91171-1.0141-1.3899-1.6564-0.26772-0.28491-0.43905-0.41544-1.8733-1.597-0.72582-0.69821-0.35636-0.37992-0.54653-0.64341-0.51066-0.68684-0.2711-0.4105-0.25495-0.42474-0.39073-0.74882-0.29326-0.6665-0.20717-0.54345-0.20618-0.61419-0.70616-2.4165-0.24505-0.77593-0.05982-0.12819 0.004108-0.025846 0.1189-0.14639 0.86103-0.89764 0.40605-0.44536 0.67352-0.80555 0.47275-0.61879 0.35765-0.50646 0.3906-0.61118 0.23916-0.4229 0.35308-0.75047 0.28415-0.8499 0.040823-0.16919 0.055532-0.27194 0.1119-0.88147 0.034698-0.89598-0.016595-0.86623-0.047374-0.8695-0.23514-3.2598-0.039576-0.94628-0.002665-0.93339 0.023661-0.5549 0.047686-0.5481 0.12452-0.79487 0.15708-0.63348 0.19368-0.60035 0.25208-0.65657 0.86653-2.1237 0.69401-1.8677 1.0988-3.1066 0.98607-3.0535 0.30608-0.89268 0.50353-1.3099 0.89747-2.0742 0.62347-1.3912 0.50021-1.0347 0.26884-0.51257 0.37178-0.6514 0.40329-0.62416 0.4465-0.58976 0.45799-0.51089 0.62509-0.58789 0.67027-0.53341 0.7052-0.48086 0.73268-0.42564 0.75508-0.36288 0.82366-0.30204 0.84518-0.19203 0.35887-0.040365 0.31286-0.015508 0.80116 0.029733 0.53366 0.064187 0.53647 0.09154 0.58553 0.1236 1.1865 0.30302 1.6553 0.47575 1.1246 0.30213 5.0707 1.1372 0.4199 0.071491 0.38653 0.039555 0.44016-0.002479 0.35595-0.055298 0.29341-0.099134 0.26975-0.14206 0.16898-0.11502 0.26666-0.22536 0.38612-0.41255 1.2997-1.5973 0.47663-0.52401 0.21932-0.20732 0.35691-0.28019 0.24803-0.15969 0.32254-0.16788 0.24483-0.096994 0.26792-0.078332 0.34294-0.062982 0.40852-0.027609 0.32492 0.007246 1.132 0.10515 0.73554 0.040772 0.77908-0.022995 0.43162-0.044425 0.35141-0.056957 0.66387-0.16345 0.53282-0.1832 0.55708-0.23498 0.35139-0.17393 0.43575-0.248 0.36542-0.2388 0.59609-0.45094 0.52274-0.46412 0.57335-0.58658 0.66308-0.76501 0.28134-0.35673 0.48515-0.6765 0.4244-0.68225 0.2812-0.54827 0.20648-0.51411 0.15905-0.52625 0.086022-0.41296 0.049299-0.47524 0.002487-0.34262-0.045775-0.54082-0.07669-0.41834-0.12103-0.44485-0.15188-0.43082-0.2807-0.63864-0.16892-0.32393-0.30922-0.51891-1.3008-1.9553-0.47293-0.81449-0.28109-0.55607-0.25087-0.56645-0.32768-0.91705-0.21522-0.73168-0.10998-0.43162-0.16398-0.77352-0.11043-0.65367-0.082996-0.60594-0.11356-1.0941-0.073535-0.97537-0.084377-1.5244-0.055474-0.64045-0.11276-0.76144-0.17644-0.79834-0.28962-1.1029-0.28098-0.98018-0.397-1.2216-0.30232-0.85501-0.53794-1.3797-0.87652-2.0563-0.29819-0.79218-0.099637-0.34635-0.081846-0.44399-0.015695-0.37665 0.050623-0.41356 0.12007-0.36844 0.16414-0.31684 0.27038-0.37425 0.32318-0.33982 0.46912-0.38123 0.45955-0.29562 0.41012-0.21394 0.50785-0.2162 0.39794-0.14234 0.73628-0.22362 0.83053-0.2134 0.80728-0.17491 0.65925-0.1147 0.63336-0.088285 1.0492-0.11108 0.17884-0.035786 0.058185-0.08574 0.21234-0.17832 0.29862-0.19649 0.29243-0.15754 0.42186-0.18397 0.66359-0.22634 0.93791-0.35882 0.29803-0.13484 0.24765-0.14229 0.2879-0.21821 0.26877-0.26197 0.12693-0.14661 0.21642-0.29859 0.086336-0.14995 0.069218-0.15176 0.047473-0.15326 0.019675-0.15459-0.017517-0.17987-0.052747-0.18117-0.17606-0.36527-0.23107-0.36875-0.75243-1.0838-0.5954-0.89387-0.28176-0.34986-0.31465-0.31797-0.34416-0.28033-0.44205-0.28867 0.71242-0.013445 0.37521-0.03959 0.7132-0.14144 0.55671-0.13705 0.37894-0.11596 0.37849-0.15678 0.19736-0.11065 0.36817-0.25995 0.34107-0.29259 0.31386-0.31567 0.27444-0.34108 0.11451-0.18388 0.091265-0.18695 0.14245-0.39683 0.27181-1.0397 0.12592-0.40407 0.17143-0.37322 0.14538-0.2094 0.16297-0.17325 0.15346-0.12648 0.91502-0.65038 0.6121-0.35381 0.32215-0.1565 0.23192-0.084545 0.035575-0.087649-0.064939-0.18231-0.2254-0.3709-0.40634-0.60661-1.4678-2.0369-0.46096-0.72721-0.19775-0.36259-0.26908-0.60432-0.15639-0.47669-0.081576-0.34407-0.055236-0.34504-0.054841-0.76477-0.02575-1.1539-0.15256-3.5554-9.5e-5 -1.1603 0.020364-0.87333-0.009283-0.6916-0.026806-0.44009-0.070621-0.57914-0.14466-0.66168-0.18131-0.55089-0.22613-0.51943-0.15256-0.2924-0.28525-0.47597-0.9857-1.5266-0.43506-0.71353-0.48869-0.8542-0.43285-0.81842-0.37291-0.78857-0.36694-0.88669-1.137-3.1913-0.082735-0.27119-0.12983-0.56014-0.093208-0.57065-0.2837-2.0777-0.053993-0.73162-0.11251-2.0862-0.095106-1.0653-0.095871-0.62964-0.14242-0.62194-0.19049-0.57695-0.18794-0.42834-0.45071-0.8364-0.34224-0.55934-0.2338-0.33092-0.29836-0.3808-0.76108-0.88355-0.49608-0.53773-1.0665-1.1056-0.48074-0.53584-0.59899-0.74312-0.83337-1.1207-0.89544-1.3282-1.1686-1.8039-0.40057-0.64975-0.90283-1.5589-0.84637-1.5189-0.24715-0.51914-0.12975-0.32579-0.11419-0.36243-0.081841-0.39175-0.13321-1.1142-0.072277-0.3463-0.11108-0.34712-0.14413-0.34811-0.5491-1.1098-0.16233-0.3606-0.1828-0.4894-0.31444-1.0481-0.17639-0.50417-0.24417-0.52195-0.28471-0.47102 0.013945-0.048544 0.011028-0.2926 0.030061-1.5676 0.021115-4.1112 0.033142-1.1212 0.039461-0.66169 0.1023-0.8597 0.084189-0.42341 0.11548-0.41852 0.14996-0.40072 0.22627-0.44663 0.13816-0.21976 0.18379-0.25488 0.20848-0.25062 0.34652-0.34646 0.19594-0.16278 0.26873-0.18872 0.4406-0.22941 0.27156-0.094749 0.34606-0.08617 0.88918-0.16817 0.57358-0.1463 0.60237-0.22063 0.37298-0.18594 0.45317-0.29689 0.36215-0.3194 0.29291-0.33251 0.18181-0.24938 0.17502-0.27954 0.23782-0.45578 0.17572-0.40568 0.1859-0.52027 0.16887-0.6133 0.10205-0.501 0.10982-0.84535 0.17216-2.8374 0.093187-0.76835 0.09558-0.5235 0.13747-0.54923 0.28897-0.86576 0.34-0.80736 0.1777-0.3762 0.26108-0.51122 0.38582-0.67391 0.33551-0.51331 0.22399-0.30652 0.29058-0.35213 0.25843-0.27035 0.30926-0.26694 0.43282-0.25272 0.16558-0.054655 0.19507-0.033471 0.54488 0.062691 0.56196 0.22812 1.1704 0.67352 0.60969 0.31975 0.69267 0.26912 0.4015 0.11687 0.50581 0.098849 0.26732 0.02447 0.43892-0.01965 0.35466-0.072971 0.24438-0.074051 0.61877-0.25144 0.52348-0.2618 0.76033-0.41416 0.48152-0.29906 0.35301-0.25584 0.48411-0.41663 0.87579-0.88779 0.35745-0.32022 0.23526-0.17927 0.84848-0.58354 1.2739-0.9583 1.3272-0.94143 0.56253-0.46754 0.31889-0.34301 0.21204-0.26268 0.30975-0.43282 0.32086-0.50874 0.37742-0.66761 0.83409-1.6579 0.43665-0.78569 0.21746-0.32348 0.16971-0.21753 0.25488-0.26893 0.17874-0.14914 0.24916-0.16149 0.16836-0.086414 0.31136-0.1269 0.46362-0.13789 0.7472-0.15872 0.39814-0.053438 0.24568-0.013651 0.43717 0.020157 0.43475 0.06433 1.0704 0.21459 0.66655 0.084041 0.56254 6.95e-4 0.62891-0.10008 0.63208-0.18888 0.63428-0.25096 0.63517-0.2894 0.64965-0.32481 0.35149-0.19675 0.40368-0.25201 0.27953-0.1956 0.59114-0.48871 0.39549-0.40831 0.33664-0.44737 0.15886-0.28101 0.16238-0.4114 0.057418-0.2221 0.052723-0.30937 0.039928-0.49204 0.007896-1.6041-0.017385-0.71599-0.023608-0.34053-0.17349-1.363-0.12107-0.6945-0.15764-0.65364-0.20299-0.57156-0.21224-0.40039-0.203-0.25773-0.14519-0.060724 0.14502-0.1215 1.5108-1.5824 0.64843-0.61046 0.78597-0.63753 0.51003-0.34316 0.29589-0.17157 0.54796-0.27506 0.38732-0.16745 0.83753-0.29694 0.35499-0.094515 0.79777-0.15095 0.56563-0.060263 0.48536-0.021887 1.9593 0.015889 0.85631 0.048222 0.38516 0.057511 0.38974 0.095736 0.43606 0.1593 0.37397 0.17688 0.48542 0.27772 0.33842 0.22179 0.96421 0.73137 0.50109 0.40917 0.37723 0.3337 0.7349 0.69242 0.62796 0.55375 0.51501 0.40238 0.63094 0.44466 1.3483 0.85678 0.58645 0.3348 0.43573 0.22371 0.50394 0.23049 0.34796 0.13968 0.35456 0.1221 0.54497 0.14548 0.67214 0.10364" stroke="#bdc660"/>
    </defs>
    <g clip-path="url(#p398e47a064)">
     <use y="280.512" fill="#bdc660" stroke="#bdc660" xlink:href="#mf6279edd9b"/>
    </g>
   </g>
  </g>
 </g>
 <defs>
  <clipPath id="p398e47a064">
   <rect x="7.2" y="7.2" width="276" height="266.11"/>
  </clipPath>
 </defs>
</svg>
