<?xml version="1.0" encoding="UTF-8"?>
<!DOCTYPE svg  PUBLIC '-//W3C//DTD SVG 1.1//EN'  'http://www.w3.org/Graphics/SVG/1.1/DTD/svg11.dtd'>
<svg width="185.85pt" height="280.51pt" version="1.1" viewBox="0 0 185.85 280.51" xmlns="http://www.w3.org/2000/svg" xmlns:xlink="http://www.w3.org/1999/xlink">
 <metadata>
  <rdf:RDF xmlns:cc="http://creativecommons.org/ns#" xmlns:dc="http://purl.org/dc/elements/1.1/" xmlns:rdf="http://www.w3.org/1999/02/22-rdf-syntax-ns#">
   <cc:Work>
    <dc:type rdf:resource="http://purl.org/dc/dcmitype/StillImage"/>
    <dc:date>2024-07-04T12:11:15.772965</dc:date>
    <dc:format>image/svg+xml</dc:format>
    <dc:creator>
     <cc:Agent>
      <dc:title>Matplotlib v3.7.1, https://matplotlib.org/</dc:title>
     </cc:Agent>
    </dc:creator>
   </cc:Work>
  </rdf:RDF>
 </metadata>
 <defs>
  <style type="text/css">*{stroke-linejoin: round; stroke-linecap: butt}</style>
 </defs>
 <g id="figure_1">
  <g id="patch_1">
   <path d="m0 280.51h185.85v-280.51h-185.85v280.51z" fill="none"/>
  </g>
  <g id="axes_1">
   <g id="PatchCollection_1">
    <defs>
     <path id="m457fdd099c" d="m64.612-250.44-0.43244 0.19265-0.36843 0.093061-0.2327 0.02984-0.47459 0.001892-0.20998-0.020506-0.76229-0.12117-0.26024-0.025452-0.36114 0.015165-0.20557 0.046177-0.2685 0.11351-0.12804 0.080629-0.18827 0.16108-0.17526 0.21406-0.12024 0.20473-0.074053 0.16422-0.087072 0.25242-0.074739 0.29739-0.098957 0.6503-0.02955 0.56858 0.001666 0.33988 0.092439 1.4174 0.010961 0.37822-0.011088 0.23933-0.044742 0.31335-0.086474 0.31214-0.085894 0.207-0.15594 0.26968-0.23934 0.28819-0.27897 0.23883-0.2951 0.18748-0.31501 0.15134-0.26048 0.097879-0.30955 0.094228-1.0413 0.25724-0.21563 0.066623-0.3138 0.12214-0.21655 0.1069-0.29273 0.18126-0.24692 0.19584-0.21599 0.21666-0.26198 0.34656-0.24794 0.45688-0.12545 0.30894-0.10876 0.34354-0.073777 0.32373-0.055831 0.43494-0.016361 0.47584 0.00924 0.26285 0.036916 0.36685 0.055902 0.31576 0.11887 0.43299 0.26287 0.60417 0.34468 0.59392 1.0912 1.6494 0.29541 0.49546 0.48191 0.91049 0.34793 0.73551 0.25089 0.57305 0.36502 0.93758 0.31182 0.96031 0.29564 1.0928 0.10507 0.48466 0.062008 0.374 0.037693 0.38708 0.005917 0.21199-0.02103 0.40774-0.07071 0.43697-0.091694 0.34777-0.15563 0.44143-0.61414 1.4399-0.11592 0.31883-0.15202 0.56732-0.060584 0.49039-0.003893 0.38615 0.037083 0.4394 0.079939 0.44362 0.13792 0.50001 0.18366 0.50295 0.15257 0.35237 0.24666 0.50042 0.19693 0.35131 0.34603 0.5318 0.24274 0.32035 0.35447 0.40877 0.679 0.73485 0.20269 0.24113 0.29946 0.4235 0.26161 0.5458 0.14097 0.4537 0.092987 0.43687 0.06938 0.513 0.22971 3.4991 0.10037 1.1158 0.1107 0.90443 0.11058 0.77863 1.3813 8.1523 0.63545 3.3447 0.16452 0.77549 0.18801 0.76077 0.16584 0.53152 0.21486 0.56354 0.30656 0.69634 0.18839 0.35216 1.4445-0.58548 0.85556-0.32374 0.74163-0.2605 0.88916-0.28444 1.1601-0.32692 0.80157-0.20725 1.3588-0.28511 0.765-0.13772 0.88883-0.12069 0.48085-0.041237 1.6551-0.0801 0.37094-0.035084 1.4794-0.19851 0.69226-0.042667 0.44807 0.007542 0.31346 0.02301 1.4956 0.18996 0.47942 0.027745 0.37707-0.012279 0.35744-0.05318 0.26061-0.071857 0.24645-0.092304 0.23016-0.10469 0.32759-0.17482 0.57929-0.3646 0.95092-0.65945 0.47549-0.28282 0.19061-0.089503 0.27384-0.10101 0.30239-0.074154 0.32392-0.036251 0.25246 0.004657 0.21793 0.029308 0.2906 0.078877 0.35744 0.16446 0.23287 0.14645 0.31509 0.25415 0.32293 0.34278 0.24595 0.32495 0.24529 0.38819 0.31154 0.59234 0.25756 0.59362 0.1979 0.54982 0.15746 0.5271 0.14156 0.60223 0.082818 0.48449 0.052142 0.44506 0.096086 1.2641 0.07537 0.70047 0.092992 0.52978 0.10476 0.42681 0.1313 0.42089 0.22836 0.58096 0.27279 0.5667 0.21179 0.38519 0.50102 0.80754 1.0926 1.5848 0.64972 1.0102 0.277 0.4821 0.26457 0.50057 0.9358 1.8898 0.27995 0.50023 0.22258 0.35509 0.25231 0.36113 0.30199 0.38787 0.46361 0.53915 0.85179 0.94816 0.59294 0.72797 0.31867 0.44076 0.32238 0.48455 0.46098 0.75626 0.21227 0.37952 0.52783 1.0484 0.22515 0.51143 0.20515 0.5142 0.19562 0.54008 0.90613 2.7433 0.38018 0.97025 0.34991 0.74526 0.24445 0.44175 0.26942 0.41947 0.30731 0.40975 1.3587 1.6476 0.50101 0.6543 0.46761 0.68144 0.41411 0.71608 0.32805 0.71368 0.27784 0.74184 0.24329 0.76019 0.71918 2.4937 0.25863 0.79484 0.16193 0.45158 0.31191 0.78695 0.29734 0.65446 0.14595 0.2768 0.31606 0.51341 1.2384 1.8455 0.32011 0.42025 0.35935 0.38841 0.37254 0.3339 0.42834 0.31776 0.39115 0.23509 0.45014 0.2126 0.43566 0.15552 1.3308 0.37515 0.36485 0.12558 0.31633 0.13448 0.22795 0.11684 0.26356 0.1597 0.29474 0.21696 0.20171 0.17968 0.22408 0.23824 0.21185 0.26874 0.19058 0.2836 0.2477 0.44917 0.16705 0.38881 0.14125 0.44557 0.12869 0.71511 0.045858 0.73226-0.037654 2.3974-0.049501 0.71096-0.098918 0.49196-0.10817 0.31454-0.11069 0.2493-0.33441 0.61295-0.57869 0.99033-0.26625 0.53215-0.21255 0.55244-0.1379 0.55288-0.091481 0.5717-0.12055 1.0211-0.19406 2.157-0.089454 0.69211-0.18894 1.0017-0.18397 0.79959-0.11027 0.5763-0.077233 0.76995-0.023673 0.79449-0.019654 1.625-0.058486 0.92127-0.078641 0.78004-0.20557 1.319-0.059848 0.51823-0.008098 0.1564 0.017638 0.49356 0.075806 0.42527 0.090997 0.2664 0.097386 0.15738 0.065743 0.038563 0.22745-0.067479 0.68056-0.14383 0.83795-0.13238 0.46434-0.048669 0.48274-0.029329 0.80816 0.001978 1.1291 0.091672 0.5951 0.091466 0.4063 0.088525 0.51412 0.14146 0.51455 0.17515 1.6306 0.70457 0.39814 0.15582 0.4034 0.13951 0.58693 0.16319 0.61445 0.10878 0.3678 0.03117 0.49159 0.001468 0.55345-0.053946 0.38145-0.072649 0.28507-0.073344 0.51604-0.1709 0.60961-0.25573 0.73198-0.36085 1.6485-0.86719 0.85951-0.43139 2.2485-1.0495 1.5881-0.7897 0.74433-0.32466 0.47596-0.17003 0.4148-0.12071 0.48537-0.10252 0.605-0.060341 0.60743-0.009331 0.72952 0.028862 0.58585 0.068596 0.57799 0.12124 0.27776 0.082371 0.58641 0.23616 0.38301 0.20184 0.53068 0.34326 0.5016 0.38764 0.47381 0.4167 0.4458 0.43229 1.0231 1.081 0.51531 0.51025 0.42824 0.35508 0.86095 0.65907 0.37763 0.36002 0.16873 0.21574 0.22728 0.38978 0.13896 0.31657 0.26807 0.76727 0.11578 0.41233 0.082942 0.36497 0.05417 0.33141 0.056624 0.60484 0.081835 0.60002 0.087325 0.32385 0.078866 0.22501 0.21847 0.48063 0.099397 0.17352 0.1562 0.23557 0.17017 0.22244 0.21033 0.24367 0.31273 0.32271 2.2525 2.0495 0.37647 0.37628 0.6163 0.67576 0.39643 0.47398 0.45523 0.61729 0.36666 0.59656 0.1023 0.19849 0.19463 0.4685 0.091637 0.33945 0.030422 0.19424 0.01308 0.31237-0.054817 0.47116-0.080071 0.31855-0.17252 0.47428-0.34084 0.6998-0.21972 0.39126-0.64001 1.0387-1.251 1.9176-0.48596 0.70203-0.5217 0.70966-0.47946 0.60654-0.62116 0.71884-0.89842 0.93905-2.4153 2.3231-0.54963 0.59812-0.34643 0.41889-0.35995 0.46742-0.50079 0.68827-1.1717 1.6746-0.25924 0.41286-0.18396 0.34108-0.16222 0.35144-0.19255 0.50934-0.373 1.2713-0.682 2.0052-0.31616 1.027-0.07335 0.30441-0.30812 1.6579-0.33679 1.6249-0.14303 0.80097-0.10667 0.81451-0.037655 0.45994-0.024709 0.4607-0.017016 0.84897 0.009013 0.35463 0.041065 0.56492 0.065502 0.47265 0.15189 0.6855 0.13191 0.42761 0.15609 0.41826 0.17753 0.4109 0.24654 0.49956 0.24776 0.4399 0.2707 0.42374 0.47887 0.62908 0.42246 0.44535 0.54203 0.45145 0.38258 0.25793 0.40841 0.23434 0.56097 0.27689 2.8447 1.3105 0.70873 0.28158 2.3129 0.73954 0.62423 0.24792 0.718 0.33386 0.72861 0.39832 0.49866 0.31314 0.38446 0.27581 0.63648 0.49024 0.98054 0.66975 0.6331 0.5152 0.26799 0.19902 0.16605 0.10144 0.3105 0.13967 0.18719 0.050485 0.15548 0.020771 0.19791-4.38e-4 0.92551-0.14286 0.22653-0.005405 0.23751 0.023781 0.16626 0.039846 0.27553 0.11742 0.35886 0.23325 0.38149 0.30089 0.63171 0.54124 0.29862 0.224 0.15488 0.092925 0.18126 0.08493 0.19104 0.060789 0.28717 0.038123 0.1651-0.003627 0.89891-0.13506 0.3976-0.010978 0.37074 0.056898 0.2081 0.056428 1.0969 0.39826 0.43928 0.11051 0.19243 0.027799 0.31815 0.011446 0.32352-0.030372 0.50421-0.076693 0.25713-0.001124 0.15144 0.033961 0.19105 0.10307 0.1416 0.13661 0.13211 0.20309 0.23359 0.49825 0.192 0.30887 0.20958 0.23539 0.18124 0.14175 0.22347 0.11741 0.16911 0.058432 0.25513 0.05411 0.36059 0.033465 0.87963 0.035664 0.47906 0.069488 0.25393 0.070034 0.22676 0.093015 0.29429 0.18167 0.20505 0.18204 0.12601 0.14191 0.13721 0.1972 0.12172 0.25183 0.070142 0.23163 0.036303 0.27896-0.010551 0.22611-0.03841 0.18608-0.10598 0.2661-0.24713 0.3953-0.23049 0.28921-0.83584 0.97266-0.38886 0.53104-0.35907 0.61912-0.16833 0.34512-0.19176 0.45135-0.13185 0.3572-0.086568 0.26319-0.15066 0.55125-0.091781 0.47811-0.048365 0.40326-0.029069 0.40164-0.053362 1.0928-0.073781 0.68834-0.096843 0.4624-0.30642 1.1571-0.11872 0.53085-0.094206 0.52802-0.099172 0.79668-0.019884 0.32916-0.003421 1.0775 0.039655 1.2135 0.054806 0.66849 0.065501 0.54633 0.17395 1.0967 0.12444 0.60417 0.086414 0.33667 0.38357 1.1419 0.26406 0.86237 0.52954 2.0323 0.59084 2.039 0.12594 0.57406 0.033913 0.33954-0.012579 0.33232-0.097177 0.42068-0.17527 0.4125-0.33568 0.5515-0.42274 0.52962-0.29261 0.30701-0.3154 0.29046-0.3369 0.26823-0.34211 0.23103-0.46465 0.25692-0.48426 0.20592-0.48857 0.14574-0.49739 0.080608-0.40028 0.013705-0.40662-0.01895-1.3423-0.11427-0.37903-0.018375-0.72001-0.003954-0.77505 0.048341-0.65892 0.093776-0.43236 0.092972-0.42638 0.11577-0.59685 0.19967-0.651 0.26706-0.60369 0.30544-0.46601 0.29008-0.19193 0.1386-0.56613 0.47654-0.50648 0.50036-0.22084 0.24697-0.15219 0.18774-0.29157 0.43604-0.24365 0.51549-0.16013 0.5446-0.070035 0.56092 0.005023 0.36534 0.03585 0.36769 0.1823 1.0891 0.076434 0.55729 0.019697 0.24858 0.011357 0.55811-0.020849 0.3515-0.097793 0.5761-0.11251 0.36781-0.16313 0.39445-0.18668 0.36316-0.19963 0.33434-0.26937 0.39878-0.57673 0.7393-0.99008 1.1085-0.1319 0.17669-0.13297-0.18748-0.37528-0.40516-0.50103-0.50776-1.2525-1.2351-0.33215-0.31486-0.4172-0.36384-0.65489-0.50522-0.65399-0.44438-1.5304-0.96054-0.45991-0.31195-0.51572-0.38779-0.47391-0.41751-0.33996-0.36872-0.31224-0.45061-0.19946-0.43147-0.10604-0.3292-0.097935-0.41719-0.074742-0.4418-0.049593-0.53858-0.056132-1.2707-0.031144-0.38322-0.095632-0.61712-0.11868-0.48438-0.23549-0.75227-0.27445-0.73665-0.30988-0.73355-0.48708-1.0081-0.26691-0.48928-0.28282-0.46729-0.26397-0.38576-0.28225-0.35719-0.47859-0.47936-0.53992-0.36947-0.60426-0.2398-0.58907-0.13002-0.38888-0.054133-1.7343-0.15227-0.70456-0.07745-0.42363-0.061135-0.57128-0.1079-0.35673-0.088947-1.133-0.38503-1.5478-0.47694-0.55608-0.1883-0.59485-0.25079-0.43577-0.23783-0.8582-0.50194-0.43304-0.22888-0.41265-0.19966-0.47194-0.18425-0.31361-0.062075-0.31753-0.002749-0.43992 0.10006-0.43756 0.18207-0.56449 0.27559-0.48028 0.19893-0.49915 0.10542-0.50336-0.030998-0.52086-0.13806-0.30264-0.11341-0.45734-0.19819-0.42056-0.19838-1.2568-0.67201-0.58105-0.24211-1.7247-0.61611-0.38571-0.10418-0.30876-0.05038-1.7827-0.1475-0.15675 0.002877-0.40163 0.053055-0.49687 0.15545-0.33551 0.16344-0.34446 0.2109-0.28371 0.19933-0.44046 0.33401-0.59401 0.4925-0.35448 0.31968-0.95851 0.9561-0.45485 0.40565-1.3954 1.1367-0.67365 0.57379-0.53111 0.36622-0.46689 0.20014-0.47 0.10216-0.46835 0.005042-0.4023-0.10416-0.17047-0.1017-0.24258-0.327-0.061902-0.4386 0.09495-0.4112 0.1232-0.295 0.15969-0.30891 0.24107-0.40828 0.58869-0.92414 0.3092-0.52893 0.26297-0.53501 0.23239-0.56364 0.20346-0.58443 0.20769-0.72238 0.16592-0.7319 0.12088-0.73151 0.069525-0.7215 0.008431-0.70152-0.06632-0.6707-0.085596-0.40721-0.21854-0.72447-0.38859-0.95052-0.23427-0.51576-0.46222-0.91004-1.3803-2.4469-0.29307-0.56473-0.48218-1.0069-0.14723-0.24984-0.17491-0.2475-0.18802-0.21806-0.36306-0.29365-0.31143-0.10755-0.19235 0.013761-0.18422 0.077898-0.30028 0.29672-0.24905 0.41658-0.23252 0.52869-0.21904 0.61402-0.41839 1.2849-0.23655 0.58407-0.29574 0.56072-0.21299 0.31417-0.68037 0.84799-0.30952 0.42644-0.27218 0.46419-0.24809 0.49919-0.28251 0.63707-0.30105 0.77119-0.43017 1.2358-0.24908 0.60403-0.14231 0.27498-0.22327 0.32527-0.21674 0.21178-0.24506 0.15869-0.1833 0.072522-0.88325 0.22416-0.19093 0.077017-0.64347 0.37022-0.18694 0.066356-0.21006 0.037021-0.29502-0.007299-0.3215-0.066225-0.50885-0.20485-0.34097-0.20614-0.32646-0.26129-0.2933-0.30483-0.25522-0.33063-0.1707-0.25624-0.20536-0.34738-0.21008-0.40683-0.18741-0.42048-0.15627-0.40706-0.17293-0.52612-0.30784-1.0662-0.1165-0.35082-0.20577-0.49883-0.30352-0.51365-0.24812-0.26687-0.27576-0.16457-0.33603-0.048799-0.33108 0.057764-0.36282 0.14555-0.32004 0.18802-0.27203 0.2056-0.28842 0.27802-0.28031 0.36613-0.20947 0.39113-0.1794 0.47356-0.12221 0.43588-0.089447 0.40109-0.1548 0.92036-0.12591 1.0554-0.057677 0.74948-0.08174 2.2414-0.051598 0.90745-0.040116 0.38222-0.10433 0.731-0.15187 0.68585-0.11982 0.37876-0.43507 1.0805-0.13421 0.37172-0.092073 0.43314-0.003593 0.48923 0.076317 0.50201 0.071282 0.28812 0.10213 0.30316 0.16889 0.37535 0.25306 0.44444 0.67771 1.0313 0.50189 0.84618 0.34785 0.67842 0.27954 0.67749 0.095284 0.29287 0.087028 0.34666 0.053528 0.35942 0.010052 0.34051-0.022189 0.35565-0.04655 0.33455-0.090083 0.36471-0.15612 0.31011-0.085897 0.10815-0.17046 0.14466-0.35842 0.1476-0.42123 0.047266-0.44559-0.037615-0.24094-0.050257-0.94893-0.24964-0.26495-0.035708-0.31374-5.75e-4 -0.21794 0.025487-0.2458 0.049872-0.36051 0.10995-0.34174 0.16822-0.37948 0.30978-0.3301 0.40209-0.15352 0.24042-0.19786 0.38392-0.18207 0.43869-0.14412 0.41597-0.14338 0.58957-0.096777 0.60698-0.18961 1.3942-0.17924 1.0573-0.11186 0.5022-0.10971 0.39089-0.22982 0.57883-0.3064 0.542-0.37955 0.4812-0.4542 0.39202-0.36157 0.20722-0.32909 0.13653-0.36071 0.10178-0.29166 0.05521-0.3609 0.044415-0.36216 0.022012-0.88849-0.01358-0.84598-0.072481-0.97364-0.14108-2.8374-0.48784-1.4756-0.33418-0.5355-0.077329-0.51499-0.003782-0.70179 0.082719-0.65096 0.14678-0.48668 0.14623-0.35473 0.13525-0.60367 0.2862-0.5204 0.28972-1.174 0.69572-0.66094 0.35152-0.35408 0.15626-0.4131 0.14192-0.68236 0.14192-1.2049 0.14228-0.51736 0.038642-0.50981-0.009756-0.4703-0.071363-0.46239-0.11458-0.81251-0.23264-0.4851-0.10423-0.35861-0.04557-0.36712-0.020824-0.66746 0.012515-1.6405 0.11109-0.46428 0.003271-0.35032-0.046882-0.16314-0.077418-0.033968-0.10128 0.25132-0.10071 0.36534-0.22286 0.3933-0.30795 0.34724-0.36567 0.24074-0.40437 0.081618-0.30349 0.010409-0.30724-0.054092-0.3329-0.3679-1.2246-0.36203-1.3603-0.22583-0.98486-0.11933-0.68357-0.074566-0.54312-0.083623-0.89408-0.12608-2.3705-0.053735-0.63934-0.16705-1.1548-0.11046-0.51845-0.29685-1.1073-0.27489-1.4068-0.090614-0.38417-0.073922-0.22085-0.12126-0.24562-0.08271-0.1159-0.12802-0.12679-0.089056-0.059952-0.14709-0.060244-0.1233-0.020555-0.23549 0.018359-0.28482 0.094597-0.24657 0.11926-1.0023 0.5606-0.23251 0.11191-0.3007 0.1204-0.23926 0.068949-0.28267 0.041599-0.34653-0.02446-0.2549-0.083388-0.2485-0.13283-0.403-0.3027-1.1897-1.1452-0.4628-0.38028-0.41558-0.27603-0.52015-0.27769-0.41007-0.17694-0.42692-0.15292-0.4392-0.1297-0.44977-0.10904-0.7394-0.13623-0.80433-0.09444-0.46273-0.030075-0.50117-0.011417-0.4972 0.013202-1.4017 0.12888-0.73562 0.04012-0.74151-0.054821-0.47038-0.094203-0.35769-0.1043-0.30138-0.10957-0.33507-0.14401-0.45473-0.23039-0.58874-0.33789-1.8648-1.1167-0.50464-0.27898-0.68974-0.34264-0.77503-0.32138-0.64356-0.20916-0.77102-0.18587-0.7955-0.13845-0.75818-0.10024-1.0077-0.095521-0.67271-0.031129-0.99084 0.016292-2.077 0.16639-0.28415 0.007181 0.12788-0.12783 0.29439-0.37991 0.38121-0.55 0.37168-0.59855 0.32308-0.57996 0.40804-0.83957 0.2867-0.6994 0.23182-0.67626 0.16803-0.59881 0.21528-1.0121 0.10793-0.68607 0.080263-0.66343 0.052569-0.5915 0.036265-0.6675 0.008874-0.49885-0.01906-0.61664-0.080041-0.62724-0.12397-0.45174-0.15875-0.36292-0.19145-0.34061-0.5252-0.86128-0.17034-0.34921-0.16181-0.44949-0.20141-0.79371-0.44354-2.1898-0.36595-1.5634-0.2797-0.97994-0.1931-0.57968-0.21514-0.57221-0.26672-0.62143-0.36176-0.72044-0.30789-0.54541-0.93735-1.5767-0.55489-1.0064-0.33741-0.67839-0.31731-0.71708-0.27035-0.71094-0.20703-0.63954-0.22115-0.80608-0.23712-1.0255-0.27217-1.27-0.24963-1.0306-0.24218-0.80495-0.21855-0.56881-0.32772-0.67186-0.75303-1.3015-0.275-0.50646-0.98253-2.0716-0.49775-0.94606-0.38713-0.63593-1.1399-1.79-1.118-1.6156-0.25551-0.41698-0.07862-0.149-0.028988-0.089083 0.055158 0.009909 0.09152-0.018612 0.3136-0.11638 0.30468-0.15116 0.38047-0.2303 0.4038-0.27951 0.54362-0.412 0.54633-0.42932 0.51571-0.4511 0.44815-0.4766 0.47528-0.55648 0.91306-1.0229 0.22268-0.2902 0.21679-0.32064 0.66005-1.137 0.40786-0.60753 0.39696-0.49166 0.98991-1.0829 0.39074-0.46278 0.37845-0.58287 0.1521-0.34167 0.12195-0.36023 0.099417-0.36872 0.11157-0.53754 0.099788-0.75626 0.092574-1.1 0.037579-0.66833 0.075816-2.1331 0.050181-0.97003 0.07872-1.092 0.069602-0.53539 0.14314-0.68592 0.31943-1.2549 0.25408-1.2576 0.14098-0.57763 0.34069-1.0282 0.22108-0.73359 0.1285-0.31795 0.17649-0.27995 0.14367-0.1509 0.13906-0.11137 0.47977-0.29027 0.24068-0.17297 0.47964-0.51597 0.21884-0.17966 0.13527-0.084778 0.20974-0.086641 0.21316-0.030107 0.14035 0.013086 0.17264 0.052471 0.13745 0.071371 0.12018 0.085321 0.23925 0.24021 0.69047 0.97953 0.39746 0.51946 0.28537 0.32497 0.43013 0.41636 0.51634 0.41281 0.32985 0.23221 0.57405 0.3624 0.35175 0.20069 0.67032 0.3268 0.41494 0.1517 0.33161 0.082437 0.155 0.021028 0.18214-0.002365 0.1248-0.086615-0.053732-0.25486-0.099228-0.3355-0.235-0.68542-0.44231-1.177-0.29163-0.82857-0.66587-2.1252-0.21568-0.53656-0.24027-0.49092-0.20341-0.35315-0.16836-0.2539-0.15913-0.21366-0.24866-0.29277-0.48822-0.49598-1.1869-1.0599-0.31453-0.30567-0.35474-0.3782-0.22485-0.26323-0.18916-0.24457-0.20123-0.29364-0.29434-0.51785-0.30569-0.68936-0.18266-0.52252-0.26872-0.87262-0.1627-0.42672-0.27324-0.54292-0.38485-0.63429-0.3751-0.48567-0.50718-0.53691-0.37582-0.34237-1.173-0.96353-0.28933-0.25514-0.4029-0.39865-0.41685-0.49574-1.1235-1.5734-0.39407-0.48836-0.22461-0.24084-0.27209-0.2605-1.02-0.85853-0.3454-0.33124-0.84599-0.87177-0.49204-0.57242-0.29534-0.39152-0.36464-0.54212-0.21675-0.35347-0.42133-0.74804-0.34298-0.66135-1.2483-2.548-0.9739-1.8851-0.24133-0.49681-0.20964-0.47733-0.13597-0.3584-0.10456-0.341-0.060146-0.27923-0.03422-0.36988 0.011161-0.69241-0.0136-0.39965 0.006412-0.39012 0.090355-0.37779 0.11275-0.21984 0.28914-0.38115 0.34426-0.34765 0.60146-0.50356 1.3192-0.95017 0.66314-0.53512 0.42188-0.40255 0.30494-0.33055 0.48106-0.59994 0.47055-0.66508 0.25411-0.38872 0.63473-1.0686 0.49233-0.91246 1.1083-2.1678 0.3137-0.55856 0.25973-0.4118 0.28046-0.39596 0.35122-0.43478 0.37874-0.41007 0.40434-0.38432 0.42996-0.35609 0.70547-0.48824 0.74762-0.43582 0.77259-0.40217 1.5592-0.76701 0.75647-0.39443 0.7187-0.42231 0.6605-0.46808 0.30265-0.25578 0.48049-0.45395 0.4514-0.48781 0.41277-0.52115 0.44073-0.68074 0.3731-0.71248 0.30791-0.72655 0.2394-0.72431 0.19304-0.76499 0.16198-0.76892 0.17949-1.3456 0.084748-0.50531 0.12427-0.50761 0.16848-0.51757 0.23731-0.61031 0.75764-1.7418 0.32697-0.81273 0.15705-0.43583 0.26732-0.85257 0.21107-0.85963 0.14336-0.84271 0.070989-0.74782 0.019175-0.58636-0.01184-0.57588-0.054816-0.6825-0.11948-0.75909-0.16238-0.62823-0.18186-0.42015-0.15504-0.11024-0.59346-0.026847-4.9334-0.11195-1.6694-0.070119-0.80767-0.07287-0.39443-0.057405-0.55582-0.12556-0.31356-0.10722-0.23505-0.10026-0.46993-0.2445-0.56418-0.34946-0.6476-0.44473-6.9546-5.1247 0.064181-0.060008 0.16136-0.24582 0.5105-0.93441 0.78892-1.6151 0.81679-1.7677 1.572-3.5196 6.0864-13.828 1.0381-2.4093 0.65191-1.6217 0.299-0.81872 0.26909-0.82608 0.22568-0.8355 0.16372-0.84741 0.063195-0.57887 0.016457-0.60082-0.054363-0.87845-0.12715-0.8934-0.18355-0.90704-0.22761-0.91823-0.26228-0.92481-0.28941-0.92317-0.30967-0.90749-0.32203-0.86886-0.32305-0.79388-0.30524-0.66305-0.25377-0.44895-0.12982-0.12328 0.10031-0.037812 0.14335-0.15821 0.081979-0.11418 0.2695-0.45595 0.28375-0.60903 0.13119-0.33712 0.23911-0.74866 0.14163-0.55503 0.14235-0.72037 0.086315-0.59939 0.063829-0.64419 0.033462-0.63339 0.004235-0.62539-0.025476-0.61714-0.16058-1.9261-0.009394-0.49319 0.019889-0.41511 0.031645-0.29149 0.055941-0.33769 0.13765-0.57155 0.22423-0.66004 0.26335-0.59918 0.20338-0.38885 0.27805-0.46955 0.27094-0.41974 0.69941-1.0296 0.33035-0.51669 0.21382-0.36945 0.19476-0.3734 0.46369-1.0168 0.72766-1.8907 0.22658-0.47943 0.48135-0.92605 0.25776-0.45018 0.24041-0.36192 0.81421-1.074 0.39012-0.53778 0.35903-0.56102 0.35054-0.58577 0.20785-0.36639 0.18844-0.37594 0.15067-0.37976 0.11124-0.37894 0.07878-0.39191 0.052435-0.4597 0.021011-0.48535 8.7e-4 -0.54762-0.062785-2.3268-0.002284-0.62291 0.007882-0.2609 0.066422-0.68133 0.14791-0.6732 0.091799-0.28043 0.20329-0.4948 0.20144-0.40673 0.36437-0.61207 0.2442-0.33922 0.26784-0.31996 0.45828-0.44498 0.51691-0.3789 0.5897-0.31186 0.41869-0.16674 0.43238-0.13818 1.0035-0.23001 1.0624-0.18578 0.76283-0.11312 0.98523-0.11676 1.4163-0.12975 0.85862-0.12621 0.58355-0.12592 0.67351-0.17766 0.65454-0.19757 2.3725-0.7771 0.51678-0.13387 0.51735-0.093942 0.51361-0.05125 0.63777-0.028634 0.64523 0.020839 0.64137 0.095784 0.60073 0.18042 0.57242 0.2553 0.52813 0.31202 0.46312 0.35076 0.18855 0.17405 0.33705 0.41116 0.17728 0.39735-0.004264 0.32228-0.17087 0.16326-0.12276 0.11097-0.030989 0.15801 0.076693 0.24529 0.11727 0.17907 0.12502 0.14092 0.13981 0.12843 0.18292 0.13935 0.3668 0.2201 0.49326 0.23463 0.60348 0.23752 0.39829 0.13131 1.5367 0.45737 0.76383 0.26381 0.38865 0.17421 0.27721 0.14998 0.31374 0.20206 0.42216 0.33358 0.32099 0.30758 0.38859 0.45729 0.22971 0.33969 0.13934 0.25195 0.17854 0.43253 0.067511 0.24417 0.053769 0.31525 0.018012 0.40183-0.047278 0.43288-0.129 0.42849-0.14318 0.27839-0.19569 0.26388-0.19649 0.19507-0.33217 0.23535" stroke="#bdc660"/>
    </defs>
    <g clip-path="url(#p3a489f9780)">
     <use y="280.512" fill="#bdc660" stroke="#bdc660" xlink:href="#m457fdd099c"/>
    </g>
   </g>
  </g>
 </g>
 <defs>
  <clipPath id="p3a489f9780">
   <rect x="7.2" y="7.2" width="171.45" height="266.11"/>
  </clipPath>
 </defs>
</svg>
