<?xml version="1.0" encoding="UTF-8"?>
<!DOCTYPE svg  PUBLIC '-//W3C//DTD SVG 1.1//EN'  'http://www.w3.org/Graphics/SVG/1.1/DTD/svg11.dtd'>
<svg width="320.45pt" height="280.51pt" version="1.1" viewBox="0 0 320.45 280.51" xmlns="http://www.w3.org/2000/svg" xmlns:xlink="http://www.w3.org/1999/xlink">
 <metadata>
  <rdf:RDF xmlns:cc="http://creativecommons.org/ns#" xmlns:dc="http://purl.org/dc/elements/1.1/" xmlns:rdf="http://www.w3.org/1999/02/22-rdf-syntax-ns#">
   <cc:Work>
    <dc:type rdf:resource="http://purl.org/dc/dcmitype/StillImage"/>
    <dc:date>2024-07-04T12:11:22.246120</dc:date>
    <dc:format>image/svg+xml</dc:format>
    <dc:creator>
     <cc:Agent>
      <dc:title>Matplotlib v3.7.1, https://matplotlib.org/</dc:title>
     </cc:Agent>
    </dc:creator>
   </cc:Work>
  </rdf:RDF>
 </metadata>
 <defs>
  <style type="text/css">*{stroke-linejoin: round; stroke-linecap: butt}</style>
 </defs>
 <g id="figure_1">
  <g id="patch_1">
   <path d="m0 280.51h320.45v-280.51h-320.45v280.51z" fill="none"/>
  </g>
  <g id="axes_1">
   <g id="PatchCollection_1">
    <defs>
     <path id="m2945e8edcf" d="m298.11-240.14-0.46299 1.1508-1.0728 2.4664-0.33603 0.86419-0.23857 0.73288-0.17596 0.71878-0.12 0.71551-0.25415 1.9054-0.22936 1.0888-0.27334 1.0832-0.33899 1.0256-0.436 1.0288-0.52831 1.0089-0.62408 0.96393-0.58449 0.73795-0.63918 0.69074-0.68038 0.64279-0.42855 0.36219-0.93527 0.6628-1.0177 0.59799-1.0712 0.55851-2.2078 1.0861-1.094 0.56947-1.0586 0.61711-0.99894 0.69134-0.60882 0.50422-0.57255 0.54419-0.5363 0.58066-0.49733 0.61565-0.39712 0.56067-0.36777 0.5831-0.4442 0.79092-1.5693 3.0697-0.69714 1.292-0.89877 1.5131-0.35982 0.55043-0.6663 0.94175-0.68118 0.84951-0.43179 0.46805-0.59738 0.57001-0.93901 0.75774-1.8679 1.3454-0.85167 0.71304-0.48747 0.49227-0.40942 0.5397-0.15965 0.31129-0.12794 0.53495-0.009078 0.55241 0.019257 0.56591-0.015804 0.98045 0.048454 0.52375 0.085168 0.39539 0.14805 0.48285 0.19254 0.50749 0.29684 0.6759 0.34173 0.70348 1.379 2.6692 1.7675 3.608 0.48566 0.93647 0.5966 1.0592 0.30692 0.50052 0.51633 0.76765 0.4182 0.5544 0.69673 0.81054 1.1979 1.2344 0.48909 0.46903 1.4443 1.2157 0.38528 0.36887 0.31804 0.34102 0.55801 0.69152 1.5909 2.228 0.59026 0.70197 0.5705 0.56449 0.40968 0.36128 1.661 1.3644 0.53216 0.48479 0.71816 0.76026 0.53114 0.68771 0.54495 0.89815 0.38691 0.76878 0.23039 0.60423 0.38051 1.2356 0.25864 0.73988 0.43286 0.97612 0.41678 0.73328 0.28494 0.41579 0.26785 0.34631 0.31839 0.37273 0.50231 0.53554 0.44538 0.43282 1.6806 1.5008 0.69132 0.70231 0.3521 0.41456 0.22532 0.30255 0.2384 0.35952 0.28803 0.50005 0.34023 0.69514 0.3054 0.75977 0.94287 3.0093 0.41294 1.1733 0.62631 1.6666 0.33277 0.97056 0.14051 0.47507 0.076084 0.36089-0.17671 0.12265-0.25792 0.003347-0.21947-0.029775-0.46955-0.11673-0.58755-0.21481-0.94918-0.46274-0.49808-0.28417-0.81285-0.51316-0.46706-0.32881-0.73114-0.58454-0.60906-0.58956-0.40408-0.46015-0.5628-0.73555-0.9777-1.387-0.33878-0.34014-0.17018-0.12082-0.19463-0.10106-0.24446-0.074298-0.19873-0.01853-0.30183 0.042632-0.29699 0.12268-0.19155 0.12004-0.30988 0.2544-0.67917 0.73061-0.34081 0.24492-0.67935 0.41102-0.19691 0.15769-0.20343 0.21368-0.24991 0.3964-0.18196 0.45022-0.31305 1.0388-0.48242 1.456-0.19962 0.81792-0.35978 1.7807-0.45231 1.7769-0.20269 0.97127-0.098556 0.7581-0.11147 1.5463-0.071056 1.3736-0.10736 3.0205-0.053212 0.94635-0.13108 1.5576-0.1413 1.0709-0.15798 0.76115-0.14077 0.5221-0.17268 0.51008-0.21538 0.4838-0.53588 0.82534-0.55328 0.6553-1.4017 1.5333-0.5621 0.6962-0.57752 0.86027-0.93463 1.61-0.30698 0.45402-0.31532 0.41092-1.2929 1.4484-0.67299 0.78798-0.63458 0.67486-0.73024 0.63875-0.77361 0.60792-0.76977 0.5834-0.57178 0.39578-0.53874 0.32611-0.43142 0.21405-0.44406 0.1648-0.12959 0.026354-0.078104-0.01403 0.041047 0.12614 0.11133 0.21098 0.3618 0.59044 1.583 2.2877 1.614 2.5346 0.54818 0.90048 0.70481 1.3396 1.3913 2.9333 0.3894 0.71715 1.0663 1.8429 0.46405 0.95134 0.30947 0.80543 0.34293 1.1398 0.35348 1.4593 0.3854 1.7983 0.33576 1.4522 0.31315 1.1414 0.29315 0.90558 0.38281 1.0067 0.44932 1.0154 0.47777 0.96059 0.78572 1.4251 1.3273 2.2326 0.43596 0.77229 0.51225 1.0201 0.37767 0.87994 0.30464 0.81024 0.27344 0.82082 0.39606 1.3876 0.51819 2.2138 0.62805 3.1008 0.28519 1.1239 0.22912 0.63647 0.24119 0.49448 0.74368 1.2196 0.27109 0.4823 0.22479 0.51389 0.17554 0.63966 0.11334 0.88816 0.026988 0.87315-0.012564 0.70637-0.051352 0.94518-0.074438 0.83756-0.11365 0.93941-0.15283 0.97147-0.30483 1.4331-0.23793 0.84791-0.32825 0.95758-0.40596 0.99035-0.57778 1.1888-0.45748 0.82122-0.5263 0.84755-0.53979 0.7788-0.41686 0.53795-0.18108 0.18101-0.16902 0.22472-0.47869 0.45313-2.8175 2.3718-0.90109 0.80201-0.75063 0.72487-0.54872 0.57598-0.57865 0.66034-0.98372 1.2562-0.58285 0.81739-2.2258 3.309-1.3374 1.8932-0.78468 1.0311-0.77347 0.95778-1.1796 1.3521-0.55238 0.58406-1.079 1.0491-0.53331 0.47205-0.9654 0.7749-0.44628 0.30143-0.47462 0.24167-0.60314 0.10547-0.29286-0.065716-0.40718-0.22506-0.41584-0.3735-1.2694-1.5296-0.84715-0.92526-1.0403-1.0017-1.9243-1.7273-0.5808-0.46986-0.61318-0.4358-1.6503-1.0576-0.91976-0.69086-0.91141-0.79301-2.5842-2.4524-1.0752-0.92887-0.66345-0.51688-0.76771-0.54904-2.0338-1.3312-1.4298-0.84822-0.82807-0.42347-0.52467-0.21423-0.60312-0.15542-0.60414-0.006366-0.40866 0.11443-0.33594 0.16484-0.38662 0.25505-0.30663 0.24266-1.2413 1.1403-2.3713 2.1074-0.79923 0.73622-0.55825 0.54629-0.56098 0.59652-0.42734 0.52749-0.32469 0.48434-0.33903 0.66368-0.21999 0.62898-0.1382 0.62339-0.066455 0.5668-0.017006 0.55548 0.035764 0.70519 0.061869 0.536 0.14456 0.82374 0.22843 0.9392 0.69743 2.3972 0.20042 0.95037 0.067466 0.56809 0.012712 0.59839-0.026189 0.32584-0.11815 0.57097-0.11452 0.32172-0.17487 0.35855-0.30097 0.45343-0.41515 0.48786-0.5351 0.53071-0.54474 0.47581-0.83252 0.65779-1.0671 0.79313-0.91239 0.62394-0.62725 0.37298-0.58693 0.29681-0.54282 0.23175-0.5709 0.20258-0.66903 0.18784-0.80546 0.17997-1.3262 0.24118-1.1309 0.17312-0.91024 0.10556-0.73361 0.05358-0.016358-0.024526-0.048519-0.006254-0.12278 0.032944-0.48903 0.25164-2.4071 1.5561-0.63943 0.40295-0.60678 0.35041-0.81722 0.41142-1.0284 0.41465-0.62264 0.2013-1.2394 0.33616-2.0503 0.47826-1.1937 0.24634-0.95232 0.16343-0.93018 0.12715-0.55682 0.055946-1.0715 0.050951-0.58322-0.010948-1.0666-0.099561-0.8361-0.15141-0.57351-0.14591-0.82372-0.28455-1.8094-0.78264-1.2477-0.46586-1.2487-0.36352-2.0434-0.48857-0.67935-0.18602-2.9206-0.97011-2.7406-0.82584-0.55266-0.20733-0.3925-0.17682-0.53456-0.3002-0.41095-0.29022-0.40283-0.34788-0.46842-0.50557-0.37488-0.50967-0.20231-0.32625-0.43317-0.85199-0.23576-0.58704-0.14513-0.4398-0.17311-0.66625-0.12472-0.63903-0.22627-1.5717-0.21106-1.2186-0.25956-1.022-0.14481-0.4261-0.18763-0.45665-0.24003-0.47444-0.32144-0.51404-0.38024-0.50134-0.23898-0.27673-0.60356-0.61537-0.58034-0.52276-0.66745-0.55412-0.82163-0.63256-0.3948-0.27531-0.79436-0.47141-0.81904-0.36299-0.6182-0.20989-0.5586-0.14821-1.2095-0.22693-1.3836-0.17448-2.3035-0.18801-0.62781-0.015301-0.33085 0.015384-0.43983 0.053909-0.36824 0.079708-0.61013 0.21366-0.53752 0.2887-0.47296 0.3536-0.32796 0.31606-0.33475 0.40187-0.32314 0.49289-0.30982 0.62492-0.33182 0.99834-0.123 0.56944-0.088778 0.5876-0.086135 1.1403-0.007038 0.65637 0.022577 0.6629 0.051707 0.64802 0.091818 0.71574 0.13406 0.75938 0.16233 0.74377 0.22447 0.85972 0.2029 0.65749 1.1358 3.1038 0.33071 1.0756 0.26368 1.1157 0.13454 0.86841 0.04526 0.51564 0.01551 0.82495-0.037468 0.70416-0.053135 0.49138-0.13175 0.76267-0.1399 0.56637-0.17022 0.52995-0.30454 0.69-0.25677 0.40519-0.14158 0.17163-0.30551 0.27217-0.63308 0.29224-0.69057 0.12649-0.70078 0.028635-0.50177-0.01914-0.72703-0.066692-0.88568-0.1157-3.5931-0.54936-5.5231-0.99238-3.4164-0.52936-1.6412-0.27958-1.589-0.35636-1.0663-0.3041-1.0509-0.36298-0.89179-0.36655-0.87564-0.41468-1.2822-0.70352-1.4913-0.90905-1.0971-0.73392-0.59492-0.43141-0.57942-0.45058-0.96141-0.838-0.49788-0.49235-0.67363-0.73224-1.5994-1.8911-0.31489-0.34735-0.49797-0.4665-0.12297-0.078706-0.11257-0.002241-0.059222 0.025113-0.23769 0.25257-0.50994 0.72481-0.57265 0.98522-0.84619 1.6461-0.34048 0.50283-0.4881 0.52647-1.4766 1.2911-0.57756 0.59472-0.37325 0.49873-0.26211 0.42664-0.29335 0.54187-0.25423 0.56167-0.13801 0.39889-0.09045 0.3488-0.10089 0.64025-0.02682 0.7458 0.047274 0.80347 0.069252 0.51796 0.11786 0.53955 0.41831 1.3645 0.38589 1.5873 0.053042 0.32737-2.66e-4 0.40111-0.029515 0.1327-0.11387 0.24932-0.11171 0.14728-0.13745 0.13174-0.18666 0.13078-0.20828 0.10543-0.26159 0.09062-0.25857 0.054194-0.21424 0.019556-0.16367-0.005547-0.080787-0.027825-0.050308 0.002953-0.20001 0.011916-0.10817-0.11713-0.074632-0.15169-0.08536-0.32092-0.059248-0.60728 0.038304-2.1271-0.00727-0.74982-0.051789-0.9268-0.11482-1.0514-0.16072-1.008-0.18991-0.92328-0.25067-0.99124-0.30211-0.99406-0.44863-1.2184-0.385-0.87993-0.9129-1.7662-0.38269-0.70536-0.53041-0.90268-0.45086-0.6708-0.63735-0.78576-0.70296-0.67251-2.3118-1.9455-0.64007-0.4829-0.58768-0.39398-0.61517-0.35928-0.68676-0.33731-0.71581-0.28537-0.8442-0.25713-0.87145-0.18885-0.91338-0.12665-0.92988-0.067826-0.7935-0.017477-0.79949 0.013051-1.4197 0.087056-1.2144 0.13948-1.3745 0.22838-1.8126 0.38491-1.5878 0.38975-2.7728 0.71955-1.1609 0.24774-0.58581 0.098355-0.84986 0.10953-2.2964 0.21103-0.92013 0.14038-0.39213 0.093945-0.5608 0.18581-0.54881 0.24371-0.56032 0.31657-0.44852 0.30472-0.32126 0.2465-0.4207 0.36017-0.33409 0.3184-1.3488 1.4623-0.89874 0.91318-0.45036 0.41356-0.79969 0.63912-0.43509 0.29211-0.37104 0.21845-0.65063 0.3062-0.477 0.12822-0.29519 0.017517-0.18561-0.014954-0.32578-0.072344-0.33918-0.14697-0.32556-0.22858-0.33327-0.34638-0.19328-0.26633-0.29902-0.52228-0.90338-2.0383-0.27188-0.49388-0.22877-0.34353-0.38296-0.46012-0.35922-0.33714-0.43471-0.29062-0.17-0.078716-0.33925-0.10575-0.35171-0.053352-0.61953 0.002799-0.58685 0.076066-0.61897 0.12596-0.78977 0.19678-2.3047 0.60282-1.2701 0.2617-1.2846 0.17677-0.71263 0.059138-0.71766 0.032481-0.90606 0.00346-0.90773-0.035541-1.4408-0.12833-1.445-0.1955-2.4017-0.3657-1.4464-0.16498-0.75157-0.044619-0.80718-0.001164-1.0771 0.086466-1.7318 0.21086-0.5821 0.02887-0.40641-0.009517-0.54024-0.052582-0.51679-0.093171-0.66062-0.18112-0.67138-0.25898-0.45054-0.22041-0.55832-0.33852-0.27905-0.20433-0.47136-0.40764-0.29868-0.30412-0.40807-0.48279-0.47203-0.6841-0.43818-0.80284-0.41598-0.94246-0.59781-1.477-0.48641-1.0243-0.34128-0.58602-0.15143-0.21958-0.30461-0.37592-0.28533-0.28503-0.3342-0.26017-0.43488-0.24085-0.32647-0.11931-0.33196-0.073348-0.4102-0.030226-0.33635 0.020311-0.49378 0.091746-0.45489 0.13627-0.47861 0.18482-0.57293 0.26806-0.4438 0.2401-0.9617 0.60619-2.2486 1.593-0.91547 0.57007-0.8848 0.48501-3.1024 1.5501-1.5988 0.87464-3.1333 1.921-2.6085 1.6787-0.98392 0.54313-0.96374 0.42867-0.56939 0.21386-0.62351 0.20889-1.7727 0.51883-0.91081 0.30606-0.69034 0.27624-1.5439 0.71877-2.0505 1.0717 0.44153-1.8007 0.50155-1.7983 0.91094-3.1212 0.4189-1.6398 0.47387-2.2791 0.83894-4.6703 0.16398-0.79386 0.3138-1.2944 0.35252-1.1612 0.35632-0.9683 1.2747-3.0393 0.46533-1.2267 0.17985-0.57307 0.14425-0.57268 0.12687-0.84651 0.015286-0.39935-0.039329-0.6049-0.11825-0.64062-0.13582-0.49526-0.16725-0.4946-0.22247-0.56438-0.62251-1.3336-1.8299-3.3993-0.50192-0.99678-0.38443-0.83829-0.29726-0.7108-0.33245-0.87101-0.68487-2.0405-0.76618-2.6171-0.73359-2.7967-0.3025-1.2761-0.12192-0.63903 0.00671-0.048944 0.074381-0.019136 0.44456-2.17e-4 3.976 0.10619 2.7012 0.033378 1.3395-0.012223 1.3056-0.041739 1.2568-0.08122 1.1938-0.13337 1.1155-0.2017 1.0194-0.29059 0.9012-0.40536 0.78669-0.5455 1.4016-1.2624 1.357-1.1349 0.64526-0.60497 0.56861-0.65119 1.071-1.3707 0.57143-0.64317 0.64219-0.56325 0.61825-0.39062 0.67588-0.3239 0.71213-0.27504 1.6376-0.54471 0.88407-0.32097 0.59912-0.26104 0.56294-0.30089 0.45907-0.30875 0.41118-0.35473 0.42734-0.5053 0.33454-0.57463 0.28024-0.77923 0.16795-0.84715 0.063004-0.57511 0.042408-0.9914-0.02108-2.757 0.025191-2.0206-0.00716-1.1113-0.049864-0.96663-0.18854-2.4907-0.10762-2.6725-0.056839-0.6905-0.1227-0.79443-0.22002-0.88718-0.26594-0.82562-0.6591-1.8366-0.18197-0.576-0.16376-0.72548-0.10601-0.76668-0.050555-0.75092-0.004108-0.76857 0.027793-0.58839 0.07831-0.78036 0.12409-0.7481 0.17773-0.74267 0.23266-0.72453 0.22456-0.55318 0.26116-0.53248 0.39945-0.6616 0.4625-0.60856 0.74218-0.73373 0.49376-0.36856 0.89271-0.50977 0.39933-0.1818 0.5672-0.21717 0.51528-0.16587 0.50904-0.1364 0.99814-0.2123 1.9822-0.33028 0.80533-0.17477 0.72849-0.23718 0.62113-0.33442 0.23792-0.19328 0.19619-0.2017 0.41365-0.61875 0.30963-0.70466 0.47592-1.485 0.22158-0.57121 0.25702-0.49007 0.30809-0.47562 0.32988-0.43562 0.37067-0.41004 0.51617-0.45833 1.6377-1.1879 0.5503-0.41958 0.38789-0.32879 0.43087-0.41454 0.3927-0.44352 0.2637-0.3519 0.21578-0.35845 0.24846-0.63656 0.0821-0.33839 0.057554-0.41963 0.025665-0.80462 0.037682-0.49219 0.11473-0.48929 0.087784-0.24985 0.42628-0.992 0.63289-1.8901 0.33071-0.77582 0.20346-0.37535 0.23753-0.35432 0.25102-0.29518 0.30947-0.27847 0.39638-0.2445 0.32011-0.11392 0.25857-0.050362 1.0132-0.080443 1.2443-0.20698 0.74402-0.063573 0.62908 0.02716 0.35994 0.055611 0.28386 0.062757 1.081 0.31293 0.58237 0.14437 0.3703 0.056576 0.53127 0.016087 0.41931-0.046087 0.33807-0.074546 0.37207-0.12156 0.34633-0.14463 0.3724-0.18406 0.35427-0.23909 0.25623-0.30264 0.051833-0.10532 0.060289-0.18398 0.040701-0.27775-0.008737-0.42535-0.032741-0.28136-0.21246-1.3048-0.18302-1.3183-0.24321-2.6316-0.17274-1.0541-0.23888-0.90958-0.24245-0.66058-0.3705-0.76462-0.49601-0.79041-0.22367-0.30492-3.7863-4.6837-0.4607-0.53837-0.65047-0.6131-0.70519-0.53759-1.7498-1.1771-0.40526-0.32868-0.47078-0.52244-0.42429-0.59414-0.28551-0.44225-0.31182-0.55759-0.78974-1.6008-1.0627-1.7961-0.46932-0.66639-0.2766-0.31543-0.61846-0.59832-1.8178-1.6196-2.3793-2.2384-0.44693-0.38357-0.46952-0.35367-0.93644-0.54069-1.0372-0.44297-1.1066-0.3742-1.149-0.32968-2.3276-0.60897-1.1287-0.31884-1.0671-0.3567-0.96948-0.41985-0.82682-0.51382-0.62687-0.64624-0.30555-0.59022-0.18012-0.67016-0.075815-0.73268 0.024192-0.94434 0.13098-0.99277 0.13353-0.65303 0.16933-0.66192 0.23623-0.76928 0.27323-0.77442 0.3855-0.97933 0.88265-1.9956 2.6812-5.5065 0.57235-1.2225 0.46363-1.067 0.40891-1.0556 0.33386-1.0394 0.23208-1.0172 0.095478-0.98704-0.086027-0.94679-0.34438-0.98595-0.55744-0.93864-0.71214-0.90437-0.8227-0.87999-0.90035-0.86301-0.95381-0.85149-0.98973-0.84394-3.0774-2.5112-8.3298-6.6768-2.0675-1.6389-2.0495-1.5797-1.012-0.74909-0.99778-0.70664-0.72162-0.48346-1.1204-0.68554-1.5175-0.83977-0.49815-0.32072-1.1928-0.98555-0.32914-0.20964-0.32541-0.16072-0.5673-0.21683-2.0199-0.6103-0.63058-0.23464-0.52637-0.23465-0.34937-0.18007-0.4173-0.25129-0.46676-0.3509-0.4879-0.4925-0.38555-0.60656-0.13214-0.50213 0.017192-0.32422 0.16829-0.48311 0.33018-0.52317 0.32999-0.39784 0.42971-0.4323 0.74978-0.63782 1.3782-1.0592 0.82653-0.68303 0.51384-0.47317 0.85366-0.88704 0.50432-0.60988 0.29769-0.41112 0.4676-0.73848 0.47126-0.90124 0.28218-0.80253 0.14603-0.80874-0.004704-0.79225-0.10969-0.56441-0.14918-0.45231-0.28305-0.67353-0.80451-1.6561-0.15615-0.3381-0.19387-0.50107-0.13416-0.47408-0.12332-0.73821-0.030298-0.49639 0.006548-0.49693 0.058857-0.68854 0.12042-0.72521 0.18893-0.73057 0.3285-0.86711 0.42985-0.86226 0.54286-0.89733 0.62403-0.88718 0.6397-0.80642 0.69295-0.78892 0.52524-0.55022 0.54759-0.53429 0.67655-0.60723 0.70287-0.56903 0.88784-0.62738 0.76835-0.46126 0.41377-0.21895 0.61705-0.29135 0.77044-0.30384 0.49544-0.15585 0.38802-0.090992 0.28413 0.01216 0.081195-0.044467 0.40287-0.001022 0.84336 0.14293 1.0495 0.29092 1.1353 0.41567 1.1374 0.52386 1.0777 0.62478 0.96761 0.72818 0.81125 0.84364 0.31326 0.43659 0.39787 0.68898 0.34399 0.73073 0.35287 0.86094 1.0712 2.7958 0.52796 1.2698 0.75871 1.7208 0.38229 0.80306 0.3099 0.59614 0.72207 1.2423 0.41355 0.64402 0.64182 0.9292 0.67247 0.90904 3.2838 4.1204 2.7399 3.6933 4.2064 5.5116 0.647 0.87988 1.4343 2.0244 1.8005 2.5969 0.88216 1.1677 0.49722 0.59725 0.51766 0.57365 0.53948 0.55253 0.55315 0.5255 1.2013 1.0284 1.9964 1.5906 1.0596 0.90256 0.96636 0.9139 0.48995 0.51685 0.45284 0.53064 0.39554 0.53306 0.51744 0.88022 0.4343 0.9214 0.32147 0.77172 0.7358 2.0443 0.35338 0.90022 0.38701 0.85386 0.46476 0.9097 0.61889 1.0784 0.68103 1.0635 0.6987 0.9734 0.73223 0.90243 0.60466 0.65407 0.57624 0.55935 0.80558 0.69584 0.79974 0.60626 0.71402 0.4862 0.67951 0.42463 2.4216 1.4062 1.1805 0.72133 1.0562 0.7192 1.5576 1.1651 1.5527 1.3041 2.7942 2.5038 1.3193 1.228 0.92312 0.93898 0.0686 0.008399 0.097383-0.035828 0.36654-0.21786 0.86041-0.64915 0.499-0.42014 1.039-0.95684 0.51426-0.52675 0.61766-0.70585 0.38166-0.49188 0.48206-0.70427 0.37107-0.62772 0.37126-0.73241 0.93015-2.1024 0.39814-0.8194 0.4281-0.75093 0.60826-0.87439 0.5704-0.64876 0.78516-0.66417 0.62761-0.37373 0.67446-0.2953 0.63719-0.2059 0.66033-0.15382 1.1321-0.14664 0.71826-0.02678 0.57163 0.009476 0.8342 0.048892 3.2463 0.28715 1.0983 0.06595 2.1144 0.078358 0.88322 0.051705 0.80551 0.10641 1.1726 0.25637 0.40016 0.035434 0.35041-0.036795 0.39312-0.14785 0.33904-0.21028 0.65727-0.49879 0.46201-0.31568 0.46272-0.26171 0.71764-0.33959 1.7087-0.69126 1.0614-0.35517 0.71831-0.1936 0.941-0.18042 0.81524-0.08623 0.50695-0.021215 0.82882 0.013739 0.82742 0.061085 0.85169 0.098086 1.7613 0.24873 0.8866 0.10132 0.75613 0.036476 0.70469-0.042472 0.64932-0.15565 0.37938-0.17754 0.34484-0.23275 0.28991-0.25799 0.28837-0.32274 0.42136-0.59125 0.93995-1.6246 0.6848-1.0887 0.31815-0.5457 0.23094-0.44779 0.91999-1.9824 0.75968-1.3698 0.31962-0.6164 0.33303-0.80062 0.18972-0.57815 0.34569-1.3119 0.24702-1.1252 0.16968-0.92891 0.18942-1.3907 0.086336-1.0167 0.099178-1.5737 0.056476-0.49376 0.066776-0.37776 0.13934-0.51756 0.073165-0.19876 0.32002-0.61828 0.42781-0.46676 0.43559-0.2404 0.49025-0.11469 0.65518 0.008174 1.4096 0.18507 0.74556-0.01151 0.53585-0.11317 0.74521-0.29757 0.8176-0.50225 0.51854-0.4205 0.40988-0.40108 0.38357-0.44444 0.51583-0.72043 0.50646-0.847 0.44125-0.84416 0.35457-0.75006 0.5214-1.2423 0.24693-0.69228 0.2012-0.68156 0.13618-0.60398 0.07709-0.49386 0.051339-0.63178 0.009345-0.63783-0.12637-2.5434-0.015707-0.96833 0.12675-3.2825 0.031463-2.2084 0.035083-1.0466 0.078169-0.87887 0.14766-0.8054 0.24519-0.70698 0.37645-0.5779 0.52616-0.42306 0.65742-0.3126 0.7593-0.24795 0.5142-0.13865 1.4521-0.31324 0.87303-0.1364 1.0234-0.10584 0.80182-0.041471 1.1903-0.007858 1.6824 0.064265 5.5412 0.41575 1.0461 0.11001 1.0025 0.16331 0.9906 0.22076 0.97474 0.27484 0.95418 0.32814 0.92794 0.38317 0.60614 0.28839 2.7263 1.4383 1.0703 0.48269 1.0962 0.35105 0.71299 0.12906 0.9889 0.069531 1.004-0.031395 1.2857-0.15268 0.84341-0.14754 1.4457-0.32795 1.1978-0.34091 0.7151-0.23123 1.3476-0.50007 0.62554-0.26856 0.64197-0.30831 0.60381-0.32918 0.63637-0.41231 0.39613-0.31063 0.39803-0.35159 0.37626-0.37405 0.44358-0.50539 1.7057-2.1154 0.90303-0.99608 0.36756-0.38276 0.57273-0.53304 0.78881-0.60048 0.39766-0.25168 1.1589-0.59755 0.62757-0.34799 1.1329-0.74365 0.5428-0.32178 0.53885-0.20944 0.56671-0.11084 0.61282-0.0089 0.61914 0.054623 0.54788 0.066412 0.72038 0.15522 0.71377 0.2615 0.59648 0.33752 0.53043 0.3861 0.37376 0.31613 0.86774 0.79288 0.45868 0.36546 0.84707 0.59671 0.49136 0.25442 0.3498 0.14703 0.50797 0.16934 0.41747 0.098742 1.4604 0.24407 0.35513 0.12501 0.30079 0.18701 0.37761 0.33611 0.34799 0.41046 0.31457 0.46494 0.89142 1.6329 0.23363 0.36 0.32974 0.38878 0.50004 0.37965 0.38312 0.18435 0.39791 0.13814 0.7233 0.17701 2.5657 0.45657 1.0079 0.27231 0.84353 0.32766 0.52235 0.26408 0.8451 0.53487 0.56717 0.43198 0.6928 0.60124 1.9923 1.9411 0.41772 0.35996 0.60078 0.44074 0.55894 0.32155 0.56533 0.25548 0.4399 0.16029 0.73636 0.19281 0.70828 0.033606 0.41473-0.084648 0.39984-0.16282 0.58909-0.40061 0.45608-0.47126 0.31162-0.42837 0.30539-0.53192 0.22778-0.48959 0.24545-0.64048 0.60452-1.8526 0.39557-1.0141 0.27473-0.57375 0.54303-1.0177 0.28404-0.60077 0.18071-0.44468 0.20751-0.60295 0.37617-1.2286 0.28682-0.75216 0.264-0.53269 0.4648-0.71987 0.45272-0.54788 0.47204-0.47718 0.65779-0.56596 0.80666-0.59439 0.77868-0.51052 0.88748-0.54339 1.8368-1.0681 1.5806-0.85997 0.96045-0.47132 1.5036-0.68588 0.57323-0.30399 1.2092-0.69552 0.97431-0.50662 0.71076-0.31748 0.3402-0.11474 0.6855-0.14707 0.74483-0.076353 1.052-0.034579 2.3341-0.027524 1.3785-0.041871 3.7641-0.22666 1.0527 0.020336 0.99105 0.13157 0.84343 0.20935 0.60347 0.23018 0.22823 0.18771 9.8477 7.2566 0.917 0.62974 0.79888 0.49483 0.66542 0.34622 0.33283 0.14196 0.44399 0.15183 0.78704 0.17779 0.55851 0.081286 1.1437 0.10318 2.3639 0.099288 6.9856 0.15852 0.84033 0.038016 0.21954 0.15611 0.25751 0.59494 0.22993 0.88958 0.16919 1.0749 0.07762 0.96642 0.016765 0.81545-0.027152 0.83028-0.10052 1.0589-0.203 1.1933-0.29888 1.2172-0.37853 1.2072-0.22238 0.61714" stroke="#bdc660"/>
    </defs>
    <g clip-path="url(#padff23ad91)">
     <use y="280.512" fill="#bdc660" stroke="#bdc660" xlink:href="#m2945e8edcf"/>
    </g>
   </g>
  </g>
 </g>
 <defs>
  <clipPath id="padff23ad91">
   <rect x="7.2" y="7.2" width="306.05" height="266.11"/>
  </clipPath>
 </defs>
</svg>
