<?xml version="1.0" encoding="UTF-8"?>
<!DOCTYPE svg  PUBLIC '-//W3C//DTD SVG 1.1//EN'  'http://www.w3.org/Graphics/SVG/1.1/DTD/svg11.dtd'>
<svg width="249.89pt" height="280.51pt" version="1.1" viewBox="0 0 249.89 280.51" xmlns="http://www.w3.org/2000/svg" xmlns:xlink="http://www.w3.org/1999/xlink">
 <metadata>
  <rdf:RDF xmlns:cc="http://creativecommons.org/ns#" xmlns:dc="http://purl.org/dc/elements/1.1/" xmlns:rdf="http://www.w3.org/1999/02/22-rdf-syntax-ns#">
   <cc:Work>
    <dc:type rdf:resource="http://purl.org/dc/dcmitype/StillImage"/>
    <dc:date>2024-07-04T12:11:17.675577</dc:date>
    <dc:format>image/svg+xml</dc:format>
    <dc:creator>
     <cc:Agent>
      <dc:title>Matplotlib v3.7.1, https://matplotlib.org/</dc:title>
     </cc:Agent>
    </dc:creator>
   </cc:Work>
  </rdf:RDF>
 </metadata>
 <defs>
  <style type="text/css">*{stroke-linejoin: round; stroke-linecap: butt}</style>
 </defs>
 <g id="figure_1">
  <g id="patch_1">
   <path d="m0 280.51h249.89v-280.51h-249.89v280.51z" fill="none"/>
  </g>
  <g id="axes_1">
   <g id="PatchCollection_1">
    <defs>
     <path id="m00b8ceadcd" d="m134.63-253.73 0.49146 0.008901 0.52288-0.014231 2.1096-0.1271 1.0054-0.008085 0.76641 0.046982 0.66178 0.063022 0.45838 0.061176 0.74702 0.13666 0.38805 0.096824 0.51568 0.17269 0.82734 0.37333 1.0534 0.54294 1.5158 0.8472 0.54863 0.2893 1.994 1.0206 0.50196 0.2404 0.52284 0.22551 0.40453 0.15726 0.71061 0.24761 3.2907 1.0638 1.1919 0.35396 0.90702 0.22221 0.52375 0.094676 0.54758 0.068707 0.5599 0.035592 0.57107-0.006225 0.48009-0.040097 0.51512-0.085185 0.66113-0.17178 0.47833-0.17561 0.38195-0.17351 0.67395-0.3687 0.5331-0.3362 0.66413-0.47097 0.3863-0.30809 0.38957-0.33915 1.5488-1.4876 0.40492-0.3429 0.39126-0.26677 0.373-0.18688 0.14186-0.054295 0.34286-0.09771 0.25484-0.046414 0.28357-0.029566 0.53631-3.87e-4 0.65192 0.064422 0.91142 0.15856 2.4788 0.5563 0.974 0.23839 0.76277 0.234 0.60212 0.24044 0.63631 0.31067 0.62544 0.34757 0.68231 0.44127 0.72718 0.53613 0.54994 0.46067 0.52709 0.49721 0.35776 0.3759 0.47019 0.53884 1.2806 1.5864 0.71247 0.84521 0.42794 0.4729 0.4551 0.44535 0.35773 0.29438 0.38634 0.24977 0.31766 0.15115 0.48348 0.15198 0.51831 0.089396 0.43302 0.034449 0.45004 0.007275 0.49343-0.017711 0.50858-0.040301 1.0965-0.14399 0.92846-0.16872 1.1592-0.2544 5.0729-1.2566 0.55431-0.13407 0.2307-0.048365 0.053563 0.002853-0.10229 0.80019-0.053685 0.59125-0.008003 0.66133 0.031471 0.38778 0.063883 0.42322 0.13205 0.57966 0.17451 0.56992 0.25308 0.66883 0.2753 0.62337 0.46691 0.93196 0.44924 0.81502 0.47125 0.79718 0.25304 0.39353 0.28776 0.39868 0.30076 0.34951 0.27085 0.25878 0.32915 0.26467 0.52158 0.34541 0.53924 0.29376 0.88476 0.39774 1.184 0.46139 4.3326 1.6124 1.6474 0.67086 0.65306 0.25054 0.63506 0.22571 1.8934 0.62483 0.93326 0.3371 0.8555 0.36614 0.48739 0.24681 0.56945 0.3341 0.50165 0.34522 0.48286 0.39773 0.37473 0.36788 0.37866 0.43992 0.28494 0.38745 0.31514 0.50216 0.2499 0.47525 0.27314 0.64941 0.1197 0.35551 0.22392 0.84653 0.24382 1.1494 0.62903 3.1602 0.428 1.876 0.25975 0.96886 0.40982 1.2027 0.29844 1.0426 0.13027 0.67148 0.041014 0.33501 0.038639 0.58664 0.005946 0.63354-0.054658 1.111-0.35794 3.4544-0.14481 1.9975-0.058986 1.3416-0.062123 2.4442-0.048739 0.88212-0.057494 0.57086-0.073272 0.53126-0.43276 2.5474-0.15453 1.0685-0.10748 0.8812-0.10808 1.0917-0.20059 2.5307-0.17017 1.8439-0.075788 1.1048-0.035478 1.013-0.013998 1.5572 0.049985 3.2899 0.065797 1.1095 0.31156 3.2297 0.067111 0.89579-8.81e-4 0.15611 0.84344 4.1689 0.22088 1.0112 0.37022 1.3865 0.82663 2.6505 0.20652 0.79923 0.14147 0.78118 0.050841 0.40444 0.067117 0.89673-0.036693 0.40924-0.053216 0.25265-0.40896 1.6077-0.14502 0.6418-0.10058 0.62241-0.077366 0.69565-0.12238 0.60453-0.82372 2.5824-0.28441 0.77255-0.21127 0.49413-0.70284 1.7886-0.38185 1.0256-0.22303 0.66196-0.15492 0.54622-0.095324 0.40811-0.083944 0.44413-0.14403 1.0539-0.030083 0.41688-0.013462 0.50011 0.006543 0.502 0.027925 0.60676 0.17688 2.4705 0.099049 1.9435 0.10894 1.1375 0.084248 0.5658 0.13617 0.69904 0.16867 0.67562 0.15585 0.51744 0.59731 1.8045 0.17289 0.63669 0.12221 0.55033 0.13631 0.8846 0.054088 0.59157 0.11909 2.9154 0.096411 1.2432 0.067268 0.5745 0.087586 0.60169 0.16691 0.87795 0.14196 0.58764 0.47432 1.632 0.18748 0.71586 0.12421 0.67095 0.048227 0.43086 0.020103 0.3433 0.00148 0.5063-0.031713 0.55353-0.052945 0.49928-0.16742 1.0726-0.5116 2.5727-0.10676 0.74189-0.034878 0.50241 0.0176 0.56597 0.046869 0.32399 0.054135 0.23213 0.068853 0.20432 0.09354 0.18934 0.11428 0.15605 0.12316 0.12232 0.17859 0.13454 0.18122 0.1083 0.27803 0.11737 0.28157 0.055225 0.34245-0.002035 0.43966-0.065282 0.35159-0.081786 0.70046-0.20962 0.59641-0.20618 0.43881-0.17114 0.34266-0.15967 0.49635-0.30388 0.86533-0.6269 0.64935-0.43253 0.47485-0.2791 0.46059-0.23894 0.47764-0.2099 0.40663-0.14117 0.30191-0.07544 0.49075-0.043106 0.26494 0.034232 0.21092 0.057588 0.22071 0.08361 0.53101 0.25556 1.1176 0.59985 0.46058 0.28201 0.28287 0.20414 0.3286 0.28488 0.23809 0.25249 0.21002 0.27236 0.23205 0.39952 0.14305 0.37399 0.057311 0.24277 0.047522 0.37711 0.013117 0.40165-0.011434 0.4027-0.081399 0.89264-0.1184 0.77133-0.10777 0.5011-0.1885 0.62867-0.11718 0.30043-0.26875 0.5742-0.47119 0.84531-0.49054 0.80557-0.49913 0.76286-0.3365 0.46981-0.29517 0.38559-0.61693 0.74294-1.985 2.2026-0.61031 0.73826-0.40098 0.57305-0.30406 0.57342-0.21004 0.62814-0.1077 0.69233-0.009648 0.44163 0.017394 0.30043 0.057965 0.46396 0.14002 0.68626 0.1917 0.70193 0.2081 0.65237 0.23165 0.66097 1.0688 2.8042 0.42874 1.2313 0.12282 0.43581 0.072667 0.36654 0.007912 0.27733-0.054272 0.13827-0.1161 0.024444-0.084916-0.007199-0.22482 0.06097-0.44803 0.16786-0.85397 0.38638-0.88507 0.44616-0.89566 0.49043-1.8438 1.0921-1.4928 0.85308-0.82266 0.44716-0.9591 0.47774-2.1196 0.99243-1.6078 0.72129-0.58555 0.24324-0.6518 0.24768-0.72251 0.24523-0.60651 0.18236-0.74398 0.19686-0.51789 0.11967-1.0738 0.21002-0.93448 0.15129-0.87829 0.12191-1.5601 0.17346-1.6152 0.12973-1.211 0.069315-4.8466 0.20446-1.8168 0.091894-1.7873 0.1405-0.87193 0.1044-0.84832 0.14019-0.81482 0.1898-0.76813 0.25748-0.52943 0.24276-0.54865 0.30058-1.735 1.0282-0.46568 0.3076-0.202 0.15969-0.19377 0.17971-0.18206 0.20459-0.17477 0.25285-0.098606 0.18817-0.17364 0.48088-0.094308 0.40135-0.072259 0.42795-0.055288 0.43102-0.085227 0.89299-0.28744 3.9724-0.22553 2.239-0.052162 0.66253-0.010076 0.63332 0.05497 0.59737 0.09666 0.43515 0.5059 1.6888 0.7158 2.2674 0.16893 0.67995 0.073168 0.51259 0.009603 0.34092-0.031808 0.33063-0.080619 0.32472-0.12444 0.31215-0.20874 0.37372-0.20363 0.28282-0.20044 0.23366-0.23389 0.23611-1.2481 1.0793-0.31962 0.31062-0.088066 0.09368-0.36904 0.47907-0.23442 0.5164-0.065216 0.40513-0.004732 0.20237 0.027965 0.38375 0.11396 0.80555 0.057991 0.61638 0.080997 1.3586 0.20256 2.5922 0.032839 0.86243-0.00622 0.81078-0.049332 0.81408-0.097369 0.79787-0.38214 2.394-0.080301 0.80242-0.023432 0.84008 0.021482 0.74393 0.086652 1.1869 0.18236 1.8978 0.03741 0.63224-0.010341 0.66058-0.044792 0.34955-0.087834 0.33775-0.090645 0.21457-0.23614 0.34538-0.25752 0.24004-0.29704 0.19837-0.34357 0.17719-0.4343 0.18599-1.3349 0.51948-1.338 0.58202-0.54398 0.20762-0.53269 0.1813-0.52872 0.15699-0.98126 0.23147-2.885 0.49262-0.37146 0.076877-0.71347 0.17698-0.88675 0.27376-0.58854 0.20071-2.6047 0.94936-2.436 0.77636-1.2456 0.44691-0.71852 0.29771-0.78795 0.37385-3.3319 1.7722-1.514 0.77909-1.4254 0.70974-1.1656 0.5286-1.6638 0.63839-0.39825 0.16153-0.50939 0.23159-0.77013 0.40472-0.78454 0.48468-2.0573 1.4634-2.3455 1.5919-0.46061 0.33107-0.829 0.63197-0.77829 0.63808-0.77412 0.69033-0.88881 0.8868-1.5042 1.5767-0.49476 0.48269-0.21561 0.1917-0.079583 0.059547-0.034768 0.01007-0.16719 0.22279-0.3855 0.23791-0.40407 0.14908-0.45285 0.071539-0.51929-0.038623-0.53062-0.14463-0.53048-0.22038-0.52282-0.26549-0.94458-0.53197-0.52511-0.3567-0.42519-0.37121-0.28272-0.2932-1.1297-1.2515-0.80831-0.82264-0.79475-0.75919-0.57432-0.51989-1.496-1.251-0.53022-0.47622-0.10496-0.10635-0.40015-0.47991-0.31038-0.50891-0.21536-0.50499-0.19908-0.52802-0.21933-0.5057-0.23566-0.49044-1.012-1.9468-0.44101-0.78558-0.33324-0.53418-0.74672-1.0934-0.6329-0.98433-0.32778-0.55232-1.226-2.1783-0.41678-0.70566-0.58484-0.94228-1.2386-2.0989-0.42307-0.66118-0.44764-0.60987-0.18125-0.21537-0.46363-0.45951-0.21915-0.17133-0.19782-0.1348-0.36874-0.21056-0.43593-0.19039-0.37852-0.12069-0.37846-0.086584-0.44312-0.064882-0.56834-0.031248-0.78297 0.007128-0.43215-0.04526-0.44374-0.09672-0.50243-0.16758-0.33249-0.1477-0.32107-0.18765-0.15922-0.11857-0.27675-0.26506-0.185-0.21752-0.2612-0.35024-0.38775-0.59288-0.85601-1.3945-0.34373-0.5347-0.27082-0.40469-0.47048-0.64801-0.39887-0.46824-0.32075-0.3257-0.34962-0.3066-0.39217-0.2857-0.40962-0.22919-0.31116-0.13348-0.20634-0.07134-0.22983-0.057454-0.15093-0.016811-0.17905 0.017791-0.15904 0.068114-0.13043 0.10445-0.085085 0.091327-0.11823 0.18282-0.042655 0.11096-0.051601 0.25658-0.083426 0.68534-0.046759 0.19936-0.087137 0.2212-0.13897 0.19301-0.098759 0.075339-0.20611 0.057521-0.12757-0.010861-0.25061-0.081236-1.1037-0.56893-0.27617-0.115-0.34464-0.11058-0.32278-0.070436-0.40523-0.054097-0.33215-0.014386-0.24258 0.008173-0.32163 0.034297-0.39995 0.075411-2.3478 0.58119-0.65561 0.21804-1.369 0.52205-0.38277 0.10896-0.18627 0.026107-0.1423-0.001804-0.12865-0.026422-0.085842-0.039103-0.085835-0.082575-0.045329-0.14546 0.021392-0.25527 0.087793-0.29639 0.24011-0.55859 0.23557-0.47516 0.47058-0.84021 0.22937-0.44288 0.6208-1.4386 0.2915-0.54732 0.98101-1.5998 0.28384-0.52269 0.18057-0.39303 0.19941-0.49096 0.4991-1.6076 0.42938-1.0122 0.10594-0.29639 0.079301-0.30649 0.056301-0.45621 0.012397-0.4777-0.035897-1.6654 0.011978-1.7605-0.025713-0.73509-0.058239-0.64963-0.13951-0.84682-0.15779-0.66681-0.11426-0.40409-0.12041-0.37663-0.22235-0.61114-0.17279-0.42515-0.37748-0.82901-0.21676-0.42992-0.4651-0.82894-0.51364-0.83091-0.80456-1.2381-0.60404-0.8723-0.44113-0.57529-0.2934-0.34693-0.301-0.32307-0.4982-0.45616-0.3495-0.2598-0.95507-0.5676-0.30778-0.20022-0.40744-0.30291-0.43525-0.37524-0.36737-0.36154-0.55752-0.62633-0.29851-0.37542-0.28672-0.39229-0.2722-0.40802-0.25712-0.42316-0.35802-0.6644-0.35616-0.76912-0.45987-1.1751-0.86139-2.4037-0.25894-0.63234-0.28322-0.62351-0.26157-0.52306-0.432-0.7882-0.44878-0.76353-2.2792-3.7727-0.91864-1.4531-1.8453-2.776-0.51398-0.83184-0.44819-0.7764-0.6896-1.2658-0.29003-0.60922-0.2307-0.61882-0.16985-0.59774-0.1324-0.54736-0.1694-0.52155-0.21475-0.41692-0.23163-0.34049-0.27043-0.33378-0.3424-0.36836-1.2183-1.1398-0.52076-0.51738-1.8495-2.0361-0.37337-0.39324-0.49676-0.4908-0.44203-0.41136-0.59702-0.51767-1.9834-1.5426-0.54495-0.47272-0.32733-0.31539-0.4861-0.53341-0.44198-0.57057-0.25776-0.3892-0.1939-0.34108-0.17637-0.38204-0.12555-0.37498-0.049834-0.22774-0.027617-0.25864 0.009915-0.24434 0.099991-0.35136 0.08411-0.14909 0.091944-0.11832 0.24058-0.20798 0.28735-0.14726 0.22923-0.066552 0.36438-0.036783 1.1999 0.04424 0.29633-0.019417 0.2365-0.046135 0.21934-0.099052 0.12041-0.12404 0.072784-0.26909-0.020022-0.1889-0.069986-0.19664-0.041839-0.077272-0.31778-0.37887-0.45501-0.38394-1.0793-0.82627-0.51204-0.47024-0.41591-0.53268-0.25058-0.5476-0.13576-0.58758-0.030593-0.34045 0.001978-0.33857 0.046236-0.39756 0.097649-0.37678 0.13204-0.30409 0.18057-0.27191 0.25292-0.25029 0.30218-0.20679 0.36722-0.18011 0.25534-0.095885 0.54761-0.15375 1.7055-0.33225 0.40657-0.098297 0.25615-0.08046 0.23513-0.096578 0.21216-0.11994 0.17472-0.14273 0.24527-0.37216 0.10178-0.45275-0.038653-0.49611-0.1811-0.50313-0.095515-0.16798-0.31768-0.41793-0.31688-0.33398-0.72582-0.70139-0.25864-0.26782-0.2254-0.26771-0.22344-0.37615 0.016591-0.21374-0.063432-0.023073-0.11875-0.00437-0.63455 0.024118-1.0551 0.074785-2.7627 0.23983-1.3332 0.075261-0.62071 0.007737-0.72982-0.04015-0.57211-0.087661-0.46913-0.11649-0.41134-0.13819-0.31444-0.12555-0.50805-0.2471-0.53495-0.32924-0.57323-0.43184-0.53859-0.47778-0.50514-0.51169-0.46081-0.52794-0.40578-0.51994-0.89908-1.2443-0.39174-0.51945-0.40314-0.47567-0.52924-0.56615-0.88214-0.87647-1.2044-1.0841-0.45475-0.37106-0.33672-0.23724-0.51254-0.31195-0.43612-0.23158-0.6972-0.32171-0.38681-0.15635-0.8059-0.27777-0.82981-0.24334-1.6898-0.46272-1.5201-0.45075-1.7635-0.56363-1.3868-0.47907-1.3273-0.49308-1.4352-0.56493-2.9174-1.2366-1.5412-0.6132-0.68246-0.24169-0.50835-0.16118-0.58391-0.15902-0.61238-0.12855-0.61409-0.075718-0.66358-0.013097-0.5509 0.046659-0.4108 0.075786-0.21526 0.055532-0.38182 0.12255-0.49215 0.19548-1.5502 0.74257-0.76639 0.32424-0.76254 0.26596-0.68472 0.17051-0.49907 0.087874-0.82766 0.11349-3.0859 0.32212-1.2955 0.15445-1.1315 0.18684-0.82389 0.18711-0.657 0.18353-0.83658 0.27944-0.90461 0.36392-0.42638 0.19736-0.7163 0.37511-0.59609 0.35699-0.46008 0.30682-0.16362 0.12818 0.20863-0.47814 0.48468-0.97512 1.9003-3.6664 1.0419-2.0836 0.81841-1.7177 1.3656-2.9474 2.3742-5.0579 0.57023-1.2643 0.52603-1.2718 0.23174-0.64072 0.19824-0.64547 0.15081-0.65177 0.084615-0.66005 0.002853-0.66329-0.064839-0.67332-0.11602-0.68322-0.15463-0.69328-0.18376-0.70361-0.42828-1.4384-0.72736-2.2135-1.05-3.0704-0.040417-0.16381 0.15899 0.1226 0.4622 0.14783 0.60541 0.11395 2.3291 0.2871 3.1772 0.5562 0.76386 0.098861 0.61062 0.059108 0.78737 0.055761 0.92357 0.040403 0.46503 0.008801 0.81191-0.010567 0.60244-0.032779 0.58606-0.055949 0.61422-0.089787 0.83897-0.16889 0.8245-0.21841 0.61402-0.21215 0.32057-0.13629 0.47377-0.23919 0.40184-0.24541 0.39719-0.29094 0.41453-0.36608 0.49316-0.51212 0.66959-0.79976 0.86422-1.1168 0.46038-0.51007 0.3197-0.28909 0.35534-0.26841 0.29175-0.18964 0.42778-0.23806 0.76205-0.34743 0.94473-0.36647 2.218-0.80456 0.63971-0.20223 0.44583-0.11888 0.43997-0.097526 0.49453-0.085018 0.50191-0.057137 0.61758-0.027711 0.38562 0.005364 0.48359 0.02933 0.47004 0.050624 0.87558 0.14935 0.77603 0.2026 0.67571 0.2392 0.62916 0.27148 0.74512 0.36835 0.63511 0.34331 1.894 1.0706 0.70134 0.37799 0.6393 0.32426 0.49394 0.22802 0.57402 0.22627 0.21411 0.06865 0.6832 0.14541 0.69075 0.03595 0.60007-0.053306 0.26184-0.038407 1.0183-0.19961 2.0776-0.49838 1.1706-0.25855 0.93705-0.17072 0.4849-0.071646 0.79651-0.088109 0.95326-0.055684 0.64995-0.013988 0.62752 0.01958 0.43702 0.04343 0.73557 0.12482 0.41071 0.1038 0.3889 0.13406 0.4094 0.19818 0.21057 0.12607 0.37162 0.25961 0.19814 0.15858 0.32081 0.30374 0.2552 0.29348 0.19553 0.27545 0.51922 0.90979 0.26601 0.40256 0.80284 1.0067 0.30582 0.46136 0.16368 0.32301 0.20127 0.51435 0.096523 0.30121 0.20044 0.75051 0.26523 1.2401 0.14569 0.54964 0.057382 0.15634 0.11763 0.22665 0.10131 0.11044 0.09554 0.046605 0.14096-0.019724 0.16876-0.17412 0.15252-0.31055 0.13974-0.41348 0.12996-0.48844 0.21651-0.98985 0.40431-2.008 0.24819-1.4128 0.15187-0.59539 0.10672-0.33423 0.13359-0.31295 0.24056-0.36964 0.32195-0.3147 0.36777-0.22963 0.60902-0.24283 0.58186-0.1553 0.73968-0.14554 1.4851-0.23966 1.2403-0.18107 0.65641-0.10801 0.56896-0.11239 0.53028-0.12483 0.67754-0.1859 1.7493-0.52919 0.53763-0.13474 0.55939-0.096802 0.32665-0.02793 0.77759 0.032593 0.77157 0.15708 0.75408 0.26635 0.69788 0.34574 0.67652 0.40643 1.7513 1.1771 0.43792 0.27836 0.54999 0.30971 0.63688 0.25696 0.58638 0.13922 0.44622 0.0438 0.22782 8.42e-4 0.48126-0.045159 0.46606-0.095701 0.47773-0.1352 0.7059-0.2355 2.1352-0.72426 0.61097-0.22894 0.62252-0.26527 0.46432-0.22021 1.1903-0.62593 2.7348-1.5682 0.59931-0.32937 1.1654-0.59267 0.56528-0.26091 0.77967-0.3292 0.7848-0.29284 0.87464-0.27465 0.63147-0.16192 1.942-0.43817 0.66095-0.19006 0.46937-0.17746 0.42434-0.21548 0.36798-0.26465 0.35809-0.39499 0.16129-0.24525 0.16392-0.29755 0.14873-0.31644 0.27434-0.68872 0.90721-2.5111 0.17673-0.42633 0.24452-0.52075 0.24778-0.44362 0.28989-0.4284 0.34522-0.4071 0.40609-0.36958 0.56065-0.43675 0.39365-0.32811 0.42317-0.44225 0.22531-0.27444 0.84285-1.1002 0.54009-0.64041 0.14378-0.30954 0.012229-0.18529-0.036312-0.17518-0.06597-0.14306-0.077501-0.10977-0.33809-0.28177-0.26648-0.14954-0.3071-0.14126-0.48912-0.18839-0.46347-0.15486-0.97698-0.28435-1.0553-0.26626-1.4786-0.32433-1.3387-0.24209-0.9309-0.12718-0.46798-0.048356-1.0314-0.063759-1.0454 0.004129-1.071 0.065891-1.4344 0.16087-0.83374 0.12267-1.3941 0.24314-1.1138 0.22277-2.7884 0.59587-0.68916 0.10996-0.58188 0.055018-0.48915 0.0036-0.51045-0.059417-0.39999-0.1246-0.27092-0.16587-0.1381-0.14263-0.13817-0.22223-0.075188-0.18278-0.075141-0.27443-0.051924-0.38509-0.019685-0.41417-0.033543-1.3315 0.025122-0.45726 0.071262-0.4512 0.35966-1.4803 0.16146-0.5592 0.15439-0.40223 0.13104-0.26436 0.23262-0.36168 0.27215-0.34125 0.84289-0.9145 0.19956-0.23368 0.33379-0.451 0.24498-0.38844 0.22648-0.4063 0.65736-1.3476 0.27459-0.45864 0.37815-0.5312 0.335-0.42163 1.3358-1.5272 0.42738-0.54705 0.28462-0.48443 0.093059-0.22994 0.1064-0.48771 0.016764-0.48903-0.040068-0.47193-0.088622-0.52465-0.14192-0.70378-0.054223-0.5976 0.056279-0.59831 0.17321-0.52608 0.27511-0.50135 0.22055-0.30777 1.0632-1.2709 0.91506-1.2643 0.95035-1.2276 0.35744-0.56337 0.24425-0.46559 0.26589-0.58936 0.2424-0.61726 0.19308-0.54773 0.35245-1.1161 0.90458-3.1392 0.3543-1.1378 0.34933-1.0211 0.16499-0.59085 0.0701-0.4385 0.033924-0.4508 0.06161-1.5543 0.009144-0.83618-0.027894-0.49766-0.04507-0.34657-0.068592-0.31786-0.09833-0.29928-0.27652-0.5285-1.476-2.3224-0.48182-0.72952-0.31511-0.45783-0.46769-0.637-0.26781-0.33489-0.4856-0.54157-0.40337-0.38726-0.32335-0.27203-0.28992-0.21908-0.37829-0.25745-0.51554-0.30923-0.73655-0.37519-0.70406-0.29891-0.7066-0.24708-0.84936-0.22967-0.59917-0.11491-0.5779-0.067125-0.45524-0.015604-0.31244 0.012624-0.4982 0.063464-0.38651 0.10154-0.10999 0.052079-0.043967 0.056136 0.022117-0.11692 0.037085-0.93151 0.061543-3.1255 0.060842-1.1132 0.059307-0.70037 0.14148-1.1263 0.1507-0.82414 0.23623-0.93029 0.27448-0.8379 0.34732-0.91024 0.3461-0.81315 1.4309-3.0148 0.4604-0.90734 0.31502-0.57796 0.88614-1.5273 0.62928-1.0316 0.57986-0.9119 0.32211-0.46873 0.25452-0.32277 0.34759-0.35504 0.20579-0.15441 0.25797-0.12737 0.12491-0.034453 0.16313-0.019469 0.29839 0.02311 0.25875 0.064691 0.21571 0.076637 0.39076 0.17594 0.63787 0.34758 1.6983 1.021 0.99787 0.57947 1.1806 0.63565 1.0271 0.50593 1.4212 0.64331 3.17 1.3265 1.5976 0.71068 0.79721 0.32638 0.4165 0.1534 0.95836 0.30647 0.90795 0.24191 0.85689 0.19259 0.72287 0.11411 0.47879 0.037475" stroke="#bdc660"/>
    </defs>
    <g clip-path="url(#p2be7b8419c)">
     <use y="280.512" fill="#bdc660" stroke="#bdc660" xlink:href="#m00b8ceadcd"/>
    </g>
   </g>
  </g>
 </g>
 <defs>
  <clipPath id="p2be7b8419c">
   <rect x="7.2" y="7.2" width="235.49" height="266.11"/>
  </clipPath>
 </defs>
</svg>
