<?xml version="1.0" encoding="UTF-8"?>
<!DOCTYPE svg  PUBLIC '-//W3C//DTD SVG 1.1//EN'  'http://www.w3.org/Graphics/SVG/1.1/DTD/svg11.dtd'>
<svg width="339.09pt" height="280.51pt" version="1.1" viewBox="0 0 339.09 280.51" xmlns="http://www.w3.org/2000/svg" xmlns:xlink="http://www.w3.org/1999/xlink">
 <metadata>
  <rdf:RDF xmlns:cc="http://creativecommons.org/ns#" xmlns:dc="http://purl.org/dc/elements/1.1/" xmlns:rdf="http://www.w3.org/1999/02/22-rdf-syntax-ns#">
   <cc:Work>
    <dc:type rdf:resource="http://purl.org/dc/dcmitype/StillImage"/>
    <dc:date>2024-07-04T12:11:26.653015</dc:date>
    <dc:format>image/svg+xml</dc:format>
    <dc:creator>
     <cc:Agent>
      <dc:title>Matplotlib v3.7.1, https://matplotlib.org/</dc:title>
     </cc:Agent>
    </dc:creator>
   </cc:Work>
  </rdf:RDF>
 </metadata>
 <defs>
  <style type="text/css">*{stroke-linejoin: round; stroke-linecap: butt}</style>
 </defs>
 <g id="figure_1">
  <g id="patch_1">
   <path d="m0 280.51h339.09v-280.51h-339.09v280.51z" fill="none"/>
  </g>
  <g id="axes_1">
   <g id="PatchCollection_1">
    <defs>
     <path id="m7d262aa2f5" d="m234.94-259.26 0.71364 0.62049 1.1023 1.0229 1.2386 1.214 1.9458 1.9815 1.222 1.1553 0.94208 0.77084 0.51359 0.36138 0.68004 0.40075 0.64616 0.28344 0.83093 0.19364 0.38675 0.011532 0.25182-0.022782 0.48429-0.10778 0.54679-0.21579 0.38837-0.21127 0.37029-0.24506 0.35267-0.27414 0.47284-0.44161 0.23662-0.27118 0.094208-0.13017 0.086878-0.21543 1.7528 1.8063 0.64658 0.7204 0.61818 0.74582 0.55697 0.75307 0.44472 0.7061 0.34778 0.68617 0.23258 0.65173 0.094015 0.60287-0.074663 0.53872-0.19518 0.37475-0.29446 0.34013-0.3204 0.28364-1.6953 1.2401-0.49671 0.39101-0.42494 0.38206-0.34182 0.36404-0.42085 0.58908-0.27445 0.64344-0.097881 0.72575 0.056161 0.77355 0.16765 0.80772 0.24712 0.83185 0.30263 0.8487 0.34016 0.86033 1.8573 4.3811 0.33436 0.88289 0.2936 0.88354 0.23348 0.88357 0.14733 0.8827 0.0263 0.88048-0.11483 0.83113-0.23248 0.82939-0.32572 0.82893-0.40112 0.82877-0.46416 0.82758-0.51936 0.82359-0.57034 0.81438-0.61963 0.79676-0.66808 0.76678-0.73158 0.74339-0.74894 0.6877-0.72546 0.61586-1.2907 1.0188-0.005614 0.071802 0.055092 0.095834 0.33414 0.34224 0.38506 0.31419 0.39603 0.28629 0.78626 0.49881 0.57372 0.326 0.90847 0.47464 3.2632 1.6058 1.701 0.89815 3.8305 2.1477 1.0651 0.62401 1.3789 0.85471 0.67824 0.44852 1.1858 0.84621 1.0824 0.8714 0.92364 0.85543 0.94637 1.0777 0.21736 0.29972 0.47657 0.78 0.30932 0.64176 0.24463 0.65054 0.22744 0.91311 0.075733 0.6859-5.22e-4 0.42604-0.093718 0.75517-0.17768 0.7883-0.35898 1.3684-0.2005 1.0204-0.15619 1.2716-0.072173 1.2002-0.008105 0.68594 0.021442 0.68271 0.069195 0.76822 0.18103 0.96787 0.16717 0.55019 0.14064 0.35698 0.30383 0.61414 0.42121 0.67366 0.43812 0.57783 0.44534 0.50508 0.77808 0.77591 1.5457 1.4145 0.89565 0.73476 1.0894 0.82288 2.1805 1.5776 1.4062 0.93203 5.1378 3.3072 1.3839 0.85606 1.255 0.71466 1.0394 0.53291 1.2797 0.59141 1.0006 0.43498 1.4235 0.56462 0.92612 0.3356 1.1897 0.39586 0.96499 0.28706 1.0977 0.28048 0.52493 0.11077 0.20683 0.023937-0.16041 0.31988-0.071643 0.65995 0.023206 0.8617 0.13938 0.95956 0.21094 0.79032 0.30419 0.77269 0.54612 0.97571 0.63957 0.91187 0.57174 0.76493 0.52704 0.75799 0.20894 0.34607 0.19347 0.36997 0.17807 0.42118 0.10239 0.3177 0.092592 0.43083 0.041318 0.59195-0.040078 0.5996-0.086386 0.52478-0.1952 0.78382-0.54933 1.7661-0.18339 0.84492-0.084173 0.92104-0.003883 1.0237 0.07033 1.0515 0.138 1.0622 0.20422 1.0572 0.27405 1.0368 0.19048 0.58724 0.38031 1.0757 0.42375 1.0819 0.47715 1.0715 0.54563 1.0435 0.63496 0.99602 0.70128 0.88883 0.77744 0.84487 0.82916 0.81764 2.5988 2.4377 0.89848 0.90599 0.87472 0.93476 0.85176 0.95792 0.82751 0.97674 0.79937 0.99224 0.76406 1.0051 0.71736 1.016 0.65393 1.0248 0.56704 1.0316 0.44862 1.0356 0.28962 1.0356 0.10483 0.9725-0.018319 1.9027 0.039457 0.90824 0.18172 0.85726 0.17867 0.42339 0.11373 0.20552 0.59791 0.77292 0.74296 0.65863 0.55061 0.38197 0.52718 0.30312 0.4511 0.2061 0.37028 0.081015-0.095004 0.28755-0.41971 0.66537-0.56857 0.7753-0.74529 0.95701-0.4122 0.68744-0.22334 0.49031-0.18084 0.51854-0.17984 0.83162-0.043218 0.86194 0.10443 0.85372 0.24012 0.90588 0.39009 1.0278 0.53306 1.1463 0.29586 0.57283 1.3244 2.3578 0.69941 1.36 0.42196 0.91459 0.30812 0.73971 0.32997 0.90432 0.21728 0.67879 0.20231 0.75422 0.10079 0.52496 0.058743 0.52888 0.008357 0.51117-0.042958 0.4782-0.077559 0.39156-0.11589 0.37163-0.31921 0.63925-0.4367 0.57833-0.53263 0.5135-0.60623 0.44494-0.6572 0.39846-1.7085 0.9318-0.54751 0.32426-0.67214 0.4262-1.4092 1.0044-0.49942 0.31383-0.48416 0.25884-1.0826 0.48465-3.2359 1.3041-0.47956 0.22759-0.3685 0.21136-0.4275 0.31454-0.29006 0.27853-0.4958 0.63433-0.45121 0.743-0.90038 1.6307-0.3637 0.61123-0.77449 1.1653-0.47836 0.6329-0.39428 0.44448-0.22653 0.19978-0.12364 0.037722-0.14346 0.069977-0.31704 0.25654-0.58802 0.54523-0.73363 0.76312-0.58648 0.68789-0.58192 0.76885-0.28107 0.40861-0.46584 0.73528-0.52569 0.91676-0.40949 0.79071-0.36693 0.79497-0.48592 1.25-0.40646 1.2478-0.4989 1.8118-0.1639 0.74669-0.14481 0.92796-0.051504 1.0939 0.038454 1.083 0.12042 2.1031-0.026917 1.0021-0.10439 0.77814-0.16691 0.76797-0.25148 0.73855-0.46758 0.86731-0.60547 0.81336-0.45601 0.51571-1.1682 1.2111-1.9151 1.9128-0.99942 0.88328-0.40411 0.31431-0.40416 0.2648-0.66384 0.30875-1.2785 0.48276-0.58481 0.25654-1.9003 0.97916-0.96391 0.4208-0.71444 0.23546-0.73546 0.15433-0.67559 0.058904-0.81259-0.008013-0.5094-0.060209-0.50058-0.11893-0.6103-0.24533-0.59404-0.33503-0.64328-0.44672-1.3952-1.1045-0.77862-0.58097-0.54379-0.34748-0.56744-0.2924-0.76504-0.27691-0.80366-0.19698-1.726-0.2993-0.90591-0.11729-0.90921-0.067967-0.75798-0.008052-2.0155 0.044354-1.852-0.017625-0.63059 0.045468-0.6418 0.080898-0.91153 0.15917-1.3916 0.32144-0.61809 0.18095-0.91628 0.3282-0.65673 0.28863-0.68582 0.34432-0.78404 0.43423-1.1472 0.68807-3.0079 1.9283-1.1128 0.82427-2.2229 1.7976-0.93357 0.66754-0.72798 0.42124-0.45649 0.21029-0.38463 0.14352-0.80185 0.20557-0.78831 0.081135-0.77206-0.048826-0.81522-0.23344-0.60569-0.35952-0.46586-0.44052-0.29173-0.43652-0.062269-0.34307 0.24517-0.26377 0.047216-0.62925-0.18207-0.83325-0.38686-0.93175-0.4434-0.79406-0.52744-0.77953-0.51003-0.64615-0.54769-0.60202-0.68607-0.63648-0.71704-0.53483-0.73954-0.41164-0.79697-0.29147-1.9794-0.45914-0.74009-0.23413-0.7559-0.31453-0.56418-0.33248-0.61115-0.44539-0.57915-0.50755-0.52538-0.55948-0.46035-0.5999-0.84567-1.1762-0.46026-0.49884-0.37187-0.29826-1.4149-0.87056-0.31386-0.21827-0.60517-0.51253-1.1878-1.1451-0.58731-0.48783-0.75953-0.48862-0.65108-0.33961-0.6795-0.23197-0.69171-0.071933-0.751 0.070242-0.80522 0.2169-0.28695 0.11483-0.58834 0.30412-0.43666 0.28942-0.2649 0.20535-0.55402 0.51133-0.58986 0.67244-0.50829 0.6818-0.53262 0.8096-0.58291 1.0004-0.40367 0.77149-0.55933 1.1966-0.4281 1.1078-0.2824 0.98143-0.18693 0.83358-0.13058 0.73516-0.63462 4.2752-0.20269 0.99742-0.18539 0.75966-0.35294 1.191-0.26538 0.76025-0.44146 1.1239-0.30931 0.71956-0.34764 0.72284-0.40496 0.72257-0.3012 0.45606-0.32642 0.42632-0.53639 0.57251-0.50739 0.4162-0.41774 0.25757-0.43868 0.18951-0.78384 0.15448-0.68851 0.002704-0.69962-0.062984-2.4214-0.29644-1.2787-0.17681-0.65188-0.11324-0.98321-0.22606-0.7617-0.21465-0.84256-0.27751-0.72644-0.2855-0.31774-0.1446-0.70758-0.37997-0.66558-0.42665-0.91619-0.68218-0.57261-0.49426-0.70775-0.69445-0.49274-0.56118-0.47242-0.76099-0.27639-0.82217-0.020999-0.84928 0.16648-0.5893 0.29897-0.58221 0.49391-0.6756 0.61199-0.6536 0.70115-0.62564 0.75288-0.5829 0.7906-0.54923 1.6882-1.0704 0.80172-0.55475 0.22277-0.17644 0.67447-0.65587 0.47508-0.70227 0.21517-0.7297-0.080466-0.69399-0.31344-0.6889-0.49437-0.66941-0.63487-0.63345-0.74455-0.57785-0.8312-0.49823-0.90102-0.38888-0.2809-0.090277-1.234-0.27677-3.0327-0.39369-0.54251-0.11839-0.48679-0.17659-0.64798-0.46299-0.43026-0.66842-0.17699-0.83114 0.002547-0.96879 0.24017-2.4845 0.060823-1.0547 0.013492-1.0196-0.027231-0.90185-0.064877-0.66937-0.11382-0.2758-0.42601-0.26723-1.3771-0.96642-3.7306-2.7585-0.78501-0.51329-0.35098-0.19352-0.34216-0.15613-0.33235-0.11035-0.42783-0.056481-0.40976 0.0658-0.3994 0.15451-1.1512 0.60058-0.36963 0.12426-0.36174 0.0213-0.35599-0.11406-0.34934-0.22508-0.34497-0.30247-1.3715-1.4662-0.34893-0.31257-0.35508-0.23715-0.36372-0.12552-0.28204 4.7e-4 -0.28255 0.077439-0.27682 0.14448-0.35537 0.28031-1.155 1.1194-0.45715 0.38916-1.007 0.783-1.0961 0.78386-1.1428 0.76873-1.5592 0.9751-0.75117 0.41129 0.2157 0.57581 0.20721 0.65723 0.22104 0.80693 0.16181 0.71789 0.12435 0.73018 0.083985 1.1208-0.086398 0.91933-0.21108 0.64682-0.45434 0.69199-0.39439 0.33529-0.49506 0.23038-0.527 0.10375-0.53064 0.006378-0.46141-0.063134-0.42762-0.14389-0.32116-0.19359-0.23676-0.19816-0.97003-1.0413-0.34704-0.30332-0.27954-0.18822-0.41095-0.18775-0.41164-0.096106-0.44801-0.03307-0.58873 0.034295-0.6148 0.10562-0.66414 0.17301-0.74587 0.24155-1.9245 0.70796-0.65506 0.20842-0.63293 0.1486-0.69423 0.070123-0.82936-0.078835-0.40509-0.093809-0.38047-0.13152-0.27625-0.13298-0.37062-0.23278-0.32735-0.28461-0.11473-0.12855-0.1929-0.26036-0.16938-0.27675-0.67931-1.2712-0.39728-0.68025-0.41148-0.64872-0.34776-0.48306-0.39047-0.40114-0.17958-0.13069-0.29846-0.15894-0.47194-0.14706-0.43051-0.062568-0.65158-0.02024-0.69607 0.031243-1.5287 0.11676-0.80521 0.074444-0.79077 0.10399-0.81526 0.15685-1.3746 0.33727-0.53932 0.18543-0.35474 0.18092-0.45429 0.33895-0.43635 0.37702-0.44022 0.325-0.62443 0.36144-0.48938 0.20128-1.0054 0.31536-1.1086 0.26827-1.0265 0.16237-1.6671 0.20112-0.9932 0.19637-0.88494 0.31598-0.42543 0.20953-0.51326 0.28833-0.68507 0.42595-0.6356 0.45501-0.53961 0.485-0.39006 0.51863-0.17744 0.55872 0.023495 0.37734 0.037137 0.15936 0.15127 0.41319 0.13999 0.28623 0.25228 0.44312 1.0186 1.654 0.44243 0.78267 0.3631 0.71343 0.35624 0.81074 0.20619 0.5633 0.16236 0.55599 0.10531 0.51881 0.047529 0.50312-0.06134 0.71601-0.30406 0.77524-0.49119 0.72235-1.2297 1.4048-0.59638 0.74059-0.49108 0.80714-0.33132 0.87945-0.22145 0.94276-0.34619 1.9514-0.23987 0.94887-0.36658 0.88916-0.2899 0.47062-0.36908 0.47064-0.43676 0.45985-0.40926 0.37479-0.99432 0.79853-2.6987 2.0302-0.59346 0.41247-0.99992 0.56504-1.0881 0.49561-1.1438 0.44792-3.4816 1.2286-1.0797 0.42133-0.98085 0.45322-0.83527 0.50384-0.63105 0.57711-0.32756 0.52637-0.21619 0.56625-0.13003 0.49098-0.068062 0.50099 0.013554 0.51642 0.077473 0.51266 0.26326 1.3173 0.22461 2.4655-0.013932 0.71478-0.13082 0.70449-0.17976 0.47021-0.17501 0.33846-0.25185 0.40083-0.35276 0.47658-1.6788 1.9929-1.1209 1.4298-1.0533 1.534-1.7926 2.863-0.48656 0.68052-0.38569 0.4766-0.41991 0.46571-0.56825 0.5616-0.65238 0.58814-0.72212 0.60926-0.7368 0.53981-0.28243 0.16381-0.56633 0.23134-0.74865 0.10765-0.69448-0.040821-0.72812-0.1425-0.58314-0.17022-0.594-0.21496-0.6228-0.2642-0.62673-0.30283-0.95925-0.53389-0.5999-0.3782-0.59377-0.40665-0.66323-0.49026-0.65355-0.51799-0.86485-0.73384-1.6582-1.5133-3.3523-3.1774-0.82487-0.74447-0.8294-0.69839-0.83725-0.63433-0.93392-0.59646-0.95434-0.45448-0.98256-0.2647-1.0263-0.03827-0.64713 0.070293-0.65911 0.12365-0.67455 0.16548-0.76053 0.21971-3.0854 0.97841-1.0463 0.29717-1.4847 0.35009-1.6126 0.27398-1.2346 0.13699-1.2674 0.08202-1.4792 0.031888-1.2325-0.02359-1.7775-0.11999-1.0616-0.1246-1.0382-0.1547-1.9776-0.36515-2.578-0.55452-0.9022-0.23978-0.78014-0.37014-0.63717-0.57576-0.54835-0.72995-1.3879-2.1971-0.37389-0.65139-1.0581-2.059-0.11732-0.20204-0.37664-0.54356-0.4424-0.47072-0.37697-0.29367-0.4094-0.2565-1.4331-0.76922-0.5107-0.31275-0.48202-0.3643-0.36306-0.34807-0.34054-0.38892-0.39763-0.51935-1.5515-2.2544-1.3837-1.8438-0.59987-0.78969-0.76735-0.83948-0.46199-0.38074-0.50834-0.31187-0.56019-0.23451-0.45975-0.1345-0.81414-0.16266-0.88143-0.10688-0.50816-0.027567-0.39721 0.004577-0.32759 0.034583-0.16778 0.060293-0.1148-0.21313-0.21573-0.61612-0.26256-0.95241-0.16845-0.84074-0.080888-0.71535-0.011479-0.59149 0.052391-0.58455 0.30118-1.0894 0.52614-1.0556 0.6916-1.0142 0.46421-0.58056 2.4536-2.8538 0.96346-1.1569 0.68501-0.88556 0.70671-1.0519 0.32988-0.6031 0.15-0.32638 0.21057-0.58916 0.12716-0.64785 0.002067-0.59088-0.10071-0.51346-0.18387-0.50886-0.234-0.47804-0.28082-0.47897-0.34-0.51467-0.91821-1.2495-3.2049-4.1418-0.62107-0.86067-0.3187-0.48819-0.27905-0.48001-0.31748-0.68402-0.13796-0.44096-0.067885-0.47755 0.031853-0.45146 0.085673-0.35581 0.17301-0.45134 0.23104-0.45491 0.70092-1.1575 0.29618-0.54394 0.16049-0.37375 0.11494-0.36386 0.11381-0.674-0.015063-0.67244-0.10739-0.52516-0.14687-0.40831-0.21057-0.41709-0.35912-0.53498-0.2276-0.28153-0.44179-0.48006-1.1624-1.1423-0.33842-0.36162-0.46118-0.55559-0.84486-1.168-0.55481-0.84617-0.47365-0.90943-1.3078-3.1004-0.51556-1.085-0.56828-1.0789-0.6095-1.0649-0.6412-1.0423-0.66457-1.0096-0.67994-0.96453-1.2909-1.7417-0.533-0.82362-0.38169-0.80918-0.16026-0.80585 0.087977-0.71227 0.26897-0.71749 0.25437-0.4765 0.30239-0.4779 0.6058-0.8263 1.7988-2.2006 0.53338-0.69558 0.45505-0.65898 0.39342-0.66882 0.31106-0.68058 0.23622-0.76662 0.35633-1.6528 0.24966-0.90723 0.30369-0.90879 0.33463-0.89526 0.76008-1.9263 0.18242-0.54064 0.12361-0.51372 0.05452-0.5758 0.006392-1.065 0.14174-1.5727 0.009091-0.50822-0.088525-0.82962-0.30086-1.5789-0.038214-0.44112 0.040608-0.3659 0.22732-0.35093 0.37207-0.099525 0.062794 0.010509 0.31936 0.13037 0.34643 0.23028 2.0451 1.719 1.2278 1.1108 1.9365 1.673 0.84234 0.88058 0.19395 0.16438 0.29335 0.13868 0.28535-0.005888 0.22256-0.13987 0.10439-0.12048 0.15156-0.27433 0.10537-0.33086 0.096385-0.6375 0.004473-0.46387-0.050157-1.1372 0.037885-0.55649 0.1003-0.40933 0.15236-0.35708 0.2996-0.42927 0.55682-0.49186 0.39417-0.23776 0.27516-0.13505 3.8941-1.6417 1.1707-0.54538 1.2957-0.66504 0.81484-0.46146 0.79319-0.49092 0.76286-0.52319 1.7081-1.3183 0.89738-0.75186 1.3597-1.3094 0.84122-0.90694 2.6855-3.0229 1.48-1.6266 1.7995-1.9055 0.90587-0.92365 0.89182-0.87929 0.85501-0.80519 0.78367-0.68864 0.47142-0.3763 0.38912-0.26956 0.25843-0.13098 0.12365 0.008861-1.0243-2.0601-0.47188-1.0754-0.40324-1.1367-0.26984-1.1596-0.080677-0.7444-0.019278-0.48584 0.008696-0.67475 0.055305-0.97674 0.21638-3.0872 0.050755-0.60738 0.079175-0.5958 0.22795-0.99466 0.32929-0.93436 0.41151-0.85102 0.48077-0.73954 0.28406-0.33938 0.5216-0.46124 0.24176-0.14738 0.3285-0.13606 0.56849-0.085618 0.61448 0.034011 3.4252 0.54486 0.56223 0.070735 0.51484 0.028814 0.76896-0.021318 0.99706-0.13605 0.67193-0.1598 0.4812-0.14718 0.55095-0.20349 0.3833-0.16571 0.60462-0.30533 0.52737-0.31687 0.56062-0.40534 0.57243-0.52796 0.56472-0.77129 0.23662-0.58976 0.091-0.85773-0.12268-0.9212-0.28545-0.96771-0.40928-1.0011-0.50399-1.0243-0.61924-1.1127-0.68105-1.1256-1.4897-2.2784-0.79179-1.1494-1.6257-2.2745-1.704-2.3048-1.7783-2.3339-2.7773-3.4866-3.5228-4.2282 0.4259-0.16373 0.89168-0.2856 2.217-0.65401 1.619-0.42802 1.4242-0.32315 0.64529-0.12308 1.2003-0.17315 0.65161-0.050753 1.7483-0.02952 0.59469-0.073441 0.6996-0.19031 0.49434-0.19614 0.83238-0.42361 1.0177-0.64245 1.1633-0.85339 1.4142-1.1179 1.2734-0.94388 0.85674-0.55264 0.73865-0.43006 1.5487-0.80519 0.97-0.44602 0.95115-0.396 0.7861-0.29686 1.1011-0.36665 0.71799-0.20516 0.65546-0.1612 0.7545-0.1518 0.64822-0.10009 1.0792-0.10601 0.86495-0.037613 1.7617 0.015865 3.7515 0.21194 2.2625 0.086682 1.5772-0.006813 0.77541-0.032028 1.143-0.090095 1.711-0.24491 1.614-0.31659 0.88945-0.20863 0.96482-0.25818 1.2193-0.38319 1.0842-0.40233 0.9488-0.40635 1.1891-0.58971 1.0826-0.6187 1.0107-0.64433 1.2109-0.83676 5.3911-3.9511 0.93035-0.64594 0.20806-0.098012 1.2055-0.51968 2.0164-0.78008 2.1734-0.75939 2.1251-0.66722 1.0728-0.30398 2.0276-0.50296 2.0137-0.4115 2.6957-0.49004 2.054-0.40385 1.632-0.37927 0.85016-0.22215 2.0511-0.59819 1.2176-0.38766 6.559-2.209 1.9874-0.60603 1.0718-0.29957 1.9506-0.48379 1.5095-0.31594 1.8326-0.30817 2.8162-0.37609 1.0923-0.17897 0.87395-0.19438 0.72063-0.20462 0.79944-0.29801 0.40032-0.19949 0.36364-0.23752 0.2425-0.21311 0.26043-0.33654 0.24233-0.70765 0.043714-0.81769-0.15852-1.7786-0.041516-0.87445 0.018534-0.39396 0.099997-0.68234 0.23263-0.59811 0.31698-0.3925 0.42565-0.30738 0.51766-0.2119 0.89194-0.12819 1.0154 0.044357 1.1048 0.16928 1.1688 0.25712 1.2141 0.31588 3.7985 1.083 1.2959 0.34496 1.3051 0.30587 1.3132 0.24425 1.122 0.1431 1.1236 0.083946 1.1213 0.02636 1.1147-0.033437 1.1033-0.099432 1.2899-0.2108 1.2621-0.29665 1.2276-0.36841 1.0769-0.39436 1.005-0.45931 0.93998-0.54462 0.85602-0.64375 0.28146-0.25707 0.54837-0.57035 0.80213-0.94612 4.1478-5.0307 3.2312-3.7644 0.59289-0.72594 0.54525-0.75408 0.45435-0.76065 0.37407-0.80819 0.23246-0.67912 0.18092-0.70762 0.14117-0.74979 0.10417-0.7697 0.12172-1.511 0.14592-4.5483 0.051199-0.67025 0.06509-0.1673 0.078791 0.21809 0.098224 0.091789 0.06782 0.042237 0.25348 0.085902 0.3155 0.010749 0.36673-0.078573 0.40697-0.16093 0.76702-0.42546 0.82738-0.56135 2.6296-2.0156 0.89072-0.66278 0.89209-0.60879 0.89438-0.52468 0.6206-0.29706 0.61902-0.23403 0.84893-0.20534 0.8254-0.044175 0.81507 0.13435 0.79092 0.24894 0.78069 0.28283 0.6142 0.196 0.82382 0.15322 0.56389 0.003016 0.57906-0.069384 0.47459-0.098829 0.48007-0.12994 1.1794-0.40907 2.004-0.81302 0.67026-0.24505 0.71023-0.20552 0.82642-0.12804 0.70647 0.018718 0.69675 0.14125 0.76127 0.29858 0.74117 0.41757 0.72711 0.50706 0.71817 0.5731" stroke="#bdc660"/>
    </defs>
    <g clip-path="url(#pd9a51515af)">
     <use y="280.512" fill="#bdc660" stroke="#bdc660" xlink:href="#m7d262aa2f5"/>
    </g>
   </g>
  </g>
 </g>
 <defs>
  <clipPath id="pd9a51515af">
   <rect x="7.2" y="7.2" width="324.69" height="266.11"/>
  </clipPath>
 </defs>
</svg>
