<?xml version="1.0" encoding="UTF-8"?>
<!DOCTYPE svg  PUBLIC '-//W3C//DTD SVG 1.1//EN'  'http://www.w3.org/Graphics/SVG/1.1/DTD/svg11.dtd'>
<svg width="213.46pt" height="280.51pt" version="1.1" viewBox="0 0 213.46 280.51" xmlns="http://www.w3.org/2000/svg" xmlns:xlink="http://www.w3.org/1999/xlink">
 <metadata>
  <rdf:RDF xmlns:cc="http://creativecommons.org/ns#" xmlns:dc="http://purl.org/dc/elements/1.1/" xmlns:rdf="http://www.w3.org/1999/02/22-rdf-syntax-ns#">
   <cc:Work>
    <dc:type rdf:resource="http://purl.org/dc/dcmitype/StillImage"/>
    <dc:date>2024-07-04T12:11:27.278790</dc:date>
    <dc:format>image/svg+xml</dc:format>
    <dc:creator>
     <cc:Agent>
      <dc:title>Matplotlib v3.7.1, https://matplotlib.org/</dc:title>
     </cc:Agent>
    </dc:creator>
   </cc:Work>
  </rdf:RDF>
 </metadata>
 <defs>
  <style type="text/css">*{stroke-linejoin: round; stroke-linecap: butt}</style>
 </defs>
 <g id="figure_1">
  <g id="patch_1">
   <path d="m0 280.51h213.46v-280.51h-213.46v280.51z" fill="none"/>
  </g>
  <g id="axes_1">
   <g id="PatchCollection_1">
    <defs>
     <path id="mb521e29228" d="m145.28-260.95 0.41701 0.43018 0.31081 0.40252 0.2845 0.46215 0.32659 0.73528 0.25011 0.75655 0.2894 0.95698 0.19245 0.55299 0.23135 0.53296 0.46187 0.772 0.5569 0.69715 0.61035 0.61824 0.626 0.53251 0.79496 0.61064 0.34258 0.3189 0.3504 0.44873 0.27542 0.49856 0.20258 0.52475 0.074492 0.27468 0.062849 0.40871 0.005038 0.41711-0.066239 0.48605-0.12045 0.48681-0.15032 0.4729-0.55627 1.3053-0.2096 0.55823-0.098352 0.36019-0.045741 0.24611-0.028785 0.73607 0.096812 0.75534 0.18754 0.75442 0.25002 0.733 0.2891 0.68942 0.30797 0.62073 0.3913 0.72538 0.19496 0.50236 0.1037 0.5225 0.009735 0.28661-0.031031 0.43661-0.10565 0.82606-0.027266 0.45942 0.02605 0.40654 0.09715 0.32029 0.15928 0.18832 0.18419 0.079874 0.20225 0.008038 0.18211-0.038301 0.44043-0.1365 0.92982-0.23058 0.32541-0.11742 0.47814-0.2422 0.26874-0.17712 0.31176-0.23932 0.3635-0.31569 0.43536-0.41632 1.7028-1.761 1.2302-1.2449 0.57003-0.55929 1.1645-1.0817 1.2704-1.1228 1.0478-0.86694 1.1202-0.86394 0.83278-0.58457 0.64417-0.41749 1.2436-0.72626 0.51353-0.2668 0.79042-0.35978 0.83584-0.31122 0.84308-0.24378 0.66994-0.13534 0.76322-0.086201 0.86427-0.02239 1.6207 0.05468 0.86723-7.93e-4 0.92954-0.069321 1.3494-0.14417 0.54289-0.017464 0.28106 0.010247 0.4642 0.048445 0.39567 0.073306 0.51975 0.14391 0.41653 0.15728 0.32631 0.15065 0.4476 0.24951 0.38766 0.25977 0.43681 0.34791 0.4889 0.46972 0.38676 0.44311 0.34854 0.46722 0.21973 0.33592 0.36356 0.63944 0.51107 1.0409 0.43233 0.93339 0.95642 2.1595 0.25262 0.53183 0.4831 0.9129 0.20549 0.33828 0.30915 0.43695 0.33183 0.35399 0.17993 0.13355 0.13177 0.068801 0.24403 0.06354 0.24638-0.00782 0.25302-0.075825 0.23813-0.13679 0.36154-0.38008 0.1641-0.33139 0.06445-0.25672 0.019143-0.34252-0.039709-0.37301-0.15799-0.62064-0.27341-0.70699-0.30483-0.63429-0.25238-0.46703-0.52078-0.86022-1.6746-2.4487-0.5149-0.86686-0.30629-0.60412-0.14696-0.32964-0.2525-0.66629-0.10782-0.34841-0.1075-0.42545-0.069941-0.37312-0.039168-0.32807-0.01209-0.34312 0.035606-0.36556 0.085087-0.25722 0.058089-0.088938 0.10307-0.084826 0.21266 0.009843 2.6919 3.231 2.1223 2.6642 1.3589 1.7835 1.3021 1.7612 1.2423 1.7381 0.60504 0.87834 1.1383 1.741 0.52042 0.86009 0.47319 0.85027 0.38512 0.78274 0.31275 0.76499 0.21813 0.73947 0.093743 0.70393-0.069537 0.65543-0.18081 0.45066-0.43153 0.58938-0.43742 0.40344-0.4284 0.30974-0.40299 0.24213-0.46202 0.23331-0.2929 0.12663-0.42101 0.1555-0.36771 0.11247-0.51346 0.12211-0.7619 0.10396-0.5876 0.01629-0.39341-0.022018-0.42962-0.054052-2.6173-0.41636-0.46956-0.025989-0.43441 0.065424-0.25102 0.10397-0.18474 0.11262-0.39858 0.35246-0.21706 0.25934-0.36738 0.56511-0.31445 0.65031-0.25162 0.71399-0.17419 0.76007-0.060501 0.45528-0.038784 0.46413-0.16535 2.3591-0.042261 0.74637-0.006645 0.51561 0.014731 0.37125 0.061648 0.56883 0.2062 0.8861 0.30814 0.86857 0.36059 0.82173 0.78269 1.5742-0.094489-0.00677-0.19748 0.10009-0.29734 0.20598-0.36023 0.28755-0.59884 0.52622-0.65336 0.61528-0.68148 0.67191-0.69222 0.7058-1.3751 1.4561-1.131 1.2429-2.0521 2.3099-0.64281 0.69304-1.039 1.0006-0.68573 0.57453-1.3053 1.0074-0.58293 0.3998-0.60611 0.37513-0.62266 0.35262-0.9901 0.50819-0.89457 0.41675-2.9757 1.2545-0.21026 0.1032-0.3012 0.18169-0.42549 0.37585-0.22894 0.32803-0.11642 0.27286-0.076644 0.31279-0.02895 0.42524 0.038328 0.86898-0.003418 0.35446-0.073652 0.48714-0.08052 0.25283-0.11582 0.20963-0.079769 0.092063-0.17007 0.10688-0.21805 0.0045-0.22416-0.10598-0.14821-0.12561-0.64367-0.67289-1.4798-1.2784-0.9382-0.84885-1.5628-1.3136-0.26472-0.17596-0.24404-0.099624-0.047984-0.00803-0.28432 0.076052-0.17371 0.26816-0.031031 0.2796 0.029201 0.33708 0.2299 1.2065 0.067646 0.63395-0.006947 0.38835-0.10831 1.2018-0.004885 0.8138-0.041661 0.44-0.094453 0.39256-0.1394 0.41313-0.58081 1.472-0.25571 0.68411-0.23206 0.69445-0.19078 0.69326-0.27229 1.263-0.18051 0.58581-0.2377 0.52006-0.30063 0.51108-0.34773 0.50356-0.40758 0.53152-1.3746 1.6816-0.46292 0.63141-0.23107 0.36518-0.19438 0.36412-0.20553 0.54827-0.067227 0.54428 0.12246 0.61579 0.29167 0.61833 0.40729 0.62937 0.9864 1.3309 0.51957 0.73704 0.50783 0.77146 0.48997 0.79646 0.46575 0.81374 0.43425 0.82441 0.39396 0.82911 0.99935 2.3691 0.36194 0.69494 0.42396 0.6466 0.6456 0.89255 0.35241 0.42456 0.25861 0.27633 0.88828 0.87291 0.33759 0.36684 0.17392 0.21513 0.27442 0.40881 0.16091 0.31872 0.11223 0.31201 0.082062 0.4013 0.011511 0.51384-0.08697 0.51504-0.087834 0.27804-0.12264 0.2856-0.22632 0.41565-0.5356 0.8845-0.17654 0.34762-0.1322 0.34489-0.065467 0.27189-0.024341 0.34498 0.051875 0.36492 0.10542 0.33696 0.2426 0.52269 0.21323 0.3668 0.24353 0.37305 0.47459 0.65768 2.449 3.165 0.70165 0.95483 0.25981 0.39329 0.21458 0.366 0.17881 0.3653 0.1405 0.38884 0.076958 0.39236-0.001579 0.45152-0.097171 0.49506-0.16091 0.4502-0.11462 0.2494-0.25208 0.46086-0.54003 0.80384-0.52345 0.6767-0.73622 0.88404-1.8749 2.1807-0.35473 0.44364-0.52848 0.77502-0.40205 0.80665-0.23014 0.8325-0.040034 0.44668 0.008772 0.45199 0.06181 0.54663 0.12872 0.64245 0.20064 0.72778 0.16485 0.4708 0.087723 0.16286-0.27233 0.06064-2.0711 0.3421-0.5923 0.11638-0.82442 0.2004-0.80296 0.25208-0.26162 0.10579-0.70936 0.34289-0.28358 0.10847-0.39178 0.085466-0.6925 0.084397-0.35856 0.064594-0.38812 0.11398-0.39427 0.15636-0.3243 0.15286-0.32449 0.17272-0.51321 0.31503-0.44392 0.32151-0.46422 0.38863-0.56764 0.54946-1.3334 1.4475-0.55429 0.5719-0.7645 0.71144-0.79325 0.64482-0.77158 0.54337-0.4709 0.29909-1.8179 1.0511-0.72416 0.44395-0.91758 0.63743-1.8236 1.3753-0.76885 0.54577-0.38292 0.24788-0.5507 0.3131-0.4711 0.20874-0.39597 0.1064-0.45269 0.019439-0.40564-0.07035-0.30935-0.12011-0.14429-0.12806-0.029983 0.39191-0.002332 0.77618 0.06347 2.6741 0.050519 0.9782 0.21991 2.9482 0.028147 0.58472 0.006649 0.93475-0.032324 0.69296-0.04579 0.50726-0.13683 1.0037-0.087402 0.49673-0.18967 0.90619-0.56194 2.4134-0.14246 0.81356-0.046442 0.47774-0.016959 0.59721 0.019843 0.59798 0.039689 0.5116 0.059158 0.51143 0.1531 0.90073 0.22378 0.91177 0.14582 0.45881 0.2031 0.52524 0.38116 0.77813 0.2626 0.4545 0.44445 0.66066 0.44069 0.54457 0.4827 0.49163 1.5789 1.3841 1.0985 0.92597 0.70107 0.6488 0.30046 0.31753 0.40746 0.48957 0.16922 0.25399 0.012391 0.086771-0.013769 0.038028-0.15559 0.073647-0.82752 0.24655-4.0575 1.0104-1.7131 0.46449-1.5142 0.47534-0.9914 0.37471-0.4567 0.19962-0.83899 0.42194-1.1994 0.6844-0.85755 0.53237-0.53194 0.38679-0.31929 0.27587-0.28449 0.31147-0.16468 0.24612-0.13605 0.30128-0.068955 0.26016-0.042265 0.41161 0.025836 0.4997 0.052205 0.34092 0.095409 0.43397 0.67478 2.4492 0.40852 1.7185 0.11459 0.70254 0.036982 0.41199 0.00999 0.76967-0.059104 0.87836-0.12219 1.0861-0.10851 0.7835-0.13051 0.7043-0.1564 0.63759-0.22335 0.73121-0.37076 1.1075-0.15937 0.55217-0.1938 0.85297-0.21132 1.0861-0.19019 0.81362-0.19624 0.65532-0.38744 1.0247-0.98907 2.2375-0.45486 1.0804-0.22409 0.57691-0.43937 1.2309-0.24514 0.61926-0.31244 0.64352-0.2888 0.47522-0.32272 0.43112-0.35592 0.37888-0.49787 0.40708-0.63128 0.45148-0.38334 0.30102-0.30251 0.28005-0.35084 0.38544-0.4344 0.58237-0.25838 0.41656-0.24945 0.4673-0.29311 0.64575-0.98817 2.4953-0.83814 1.9874-0.22207 0.54859-0.36551 0.9904-0.21989 0.70723-0.19696 0.79088-0.10463 0.52356-0.28833 1.7693-0.196 1.0329-0.16989 0.67546-0.17921 0.56069-0.17266 0.43452-0.21437 0.44259-0.3366 0.54573-0.23435 0.29559-0.16568 0.1652-0.21799 0.1455-0.15481 0.001837-0.25911 0.088431-0.5476 0.25312-0.47152 0.27821-0.30834 0.23228-0.22512 0.22222-0.20579 0.28425-0.38195 0.65335-0.26892 0.37259-0.19822 0.22676-0.38698 0.38606-0.52348 0.44843-3.0246 2.2075-0.79759 0.5052-0.77369 0.4081-0.68097 0.27808-0.43827 0.12936-0.24096 0.048602-0.86111 0.14426-1.5102 0.18121-0.60603 0.096882-1.7167 0.35252-2.591 0.38202-0.91693 0.18655-0.57567 0.15204 0.16275 0.22132 0.034358 0.42977-0.075277 0.44331-0.18432 0.45999-0.14101 0.22931-0.20055 0.25399-0.19848 0.20382-0.20386 0.17777-0.29563 0.21876-0.23738 0.15105-0.56993 0.2991-0.67265 0.27109-0.47657 0.14946-0.35911 0.091395-0.45521 0.088807-0.33918 0.044043-0.86534 0.005701-0.82104-0.15308-0.7437-0.31957-0.46689-0.33268-0.27408-0.24996-0.40888-0.44367-0.86962-1.0567-0.47922-0.52666-1.5434-1.5608-1.7419-1.8112-0.65248-0.62682-0.33183-0.2828-0.30457-0.21783-0.29829-0.14932-0.37497-0.068219-0.31597 0.048123-0.27763 0.14066-0.13574 0.12076-0.10093 0.12933-0.12743 0.26607-0.10846 0.4436-0.17769 1.2057-0.098661 0.41561-0.25126 0.70488-0.57139 1.4165-0.58497 1.6121-0.35826 0.87612-0.34666 0.70168-0.28176 0.47821-0.28507 0.42877-0.58385 0.76982-0.33981 0.40693-0.55279 0.61958-0.56164 0.58128-1.149 1.1029-3.7904 3.4863-2.2818 2.0315-0.81378 0.68991-0.97495 0.79096-0.84984 0.64872-0.799 0.55694-1.7297 1.0583-0.92908 0.61958-0.74052 0.5947-1.5454 1.3263-0.58858 0.46236-0.65559 0.46556-0.68744 0.4335-0.64019 0.35408-0.59365 0.27927-0.61771 0.22743-0.68191 0.15355-0.52937 0.028744-0.3477-0.03603-0.39832-0.10941-0.2635-0.11844-0.19604-0.11214-0.29772-0.20802-0.23555-0.19543-0.39498-0.3866-0.33301-0.38735-0.51563-0.72441-0.3337-0.56498-0.30055-0.60453-0.33894-0.85022-0.27777-0.85873-0.24103-0.86131-0.51928-1.9832-0.072022-0.19351-0.05124-0.033041-0.058102-0.094759 0.012963-0.3951 0.12078-0.63782 0.40153-1.7804 0.16654-0.8773 0.32209-1.9977 0.37695-2.6062 0.19739-1.2417 0.2252-1.2083 0.13455-0.62758 0.18101-0.7345 0.15642-0.55612 0.17103-0.5428 0.29474-0.80462 0.38436-0.83943 0.2223-0.3968 0.4019-0.61769 0.39962-0.54064 1.1014-1.3497 0.29015-0.38092 0.25732-0.40942 0.15137-0.32663 0.063-0.18801 0.078435-0.37984 0.023396-0.39595-0.024579-0.39872-0.03919-0.26413-0.13863-0.54083-0.11865-0.3152-0.20371-0.41429-0.23885-0.37043-0.15185-0.19202-0.20597-0.21987-0.27153-0.23207-0.31374-0.20001-0.26438-0.118-0.258-0.073283-0.37175-0.038458-0.40121 0.029288-0.3798 0.078806-0.4128 0.12721-0.46387 0.17699-1.7151 0.72048-0.61651 0.21234-0.70016 0.17811-0.34346 0.059179-0.4603 0.049453-0.39095 0.016033-0.36922-0.005209-0.56125-0.03974-0.60859-0.078651-0.65156-0.11789-0.69606-0.15768-0.574-0.15059-0.8472-0.25502-0.74269-0.26809-0.46551-0.19638-0.726-0.36062-0.61519-0.36548-0.53399-0.36815-0.38187-0.29157-1.4693-1.1888-0.35894-0.26066-0.32422-0.21341-0.44964-0.25279-0.33934-0.15093-0.33542-0.10874-0.50532-0.079884-0.42515-0.002713-0.84707 0.042343-0.43818-0.027729-0.47145-0.094194-0.25523-0.079421-0.52739-0.21473-0.29095-0.14383-0.19589-0.11671-0.27471-0.2193-0.12242-0.13638-0.099614-0.14434-0.095844-0.19451-0.061329-0.19905-0.041772-0.38033 0.00796-0.28037 0.13453-1.6984 0.014306-0.50099-0.032021-0.54532-0.070915-0.44319-0.094413-0.36664-0.14462-0.38956-0.20579-0.39059-0.2112-0.29312-0.1662-0.18124-0.24516-0.20944-0.19016-0.12463-0.24902-0.12375-0.37336-0.11821-0.41192-0.050252-0.32299 0.026033-0.31554 0.16384-0.20965 0.068839-0.25225 0.04408-0.26699-0.005876-0.13017-0.029514-0.24711-0.10366-0.21338-0.13297-0.4764-0.39603-0.47142-0.47082-0.33294-0.41498-0.21932-0.34061-0.56799-0.97612-0.41512-0.58585-0.43969-0.50027-0.45371-0.42563 0.15566-0.050279 1.2236 0.006209 0.52746-0.013233 0.45001-0.032121 0.37445-0.045411 0.5121-0.095903 0.65228-0.19351 0.70414-0.33199 0.5102-0.36278 0.53376-0.57646 0.41589-0.65894 0.33446-0.70016 0.22566-0.57506 0.16522-0.5815 0.074151-0.59241-0.040738-0.60406-0.10659-0.48484-0.16707-0.49731-0.15898-0.36932-0.27272-0.52193-0.39062-0.63092-0.66557-0.96224-0.35726-0.49143-0.58084-0.75295-1.2369-1.4771-0.4921-0.6285-0.17611-0.27824-0.14943-0.35103-0.024145-0.29214 0.038819-0.14511 0.14938-0.22738 0.23904-0.20222 0.33106-0.18933 0.41905-0.17456 0.67282-0.20589 1.7143-0.4178 1.1035-0.29182 0.58463-0.18134 0.37653-0.13542 0.45905-0.19732 0.14069-0.071139 0.63468-0.40953 0.56796-0.50653 0.49622-0.58369 0.41491-0.64615 0.31898-0.69831 0.13402-0.41806 0.10826-0.43067 0.1334-0.64681 0.2999-1.5805 0.35077-1.7117 0.10922-0.44704 0.20842-0.62603 0.36225-0.71711 0.44968-0.70268 0.53864-0.76834 1.7076-2.3029 0.48074-0.69081 0.6143-0.97159 0.30567-0.52679 0.33328-0.60917 0.31683-0.62412 0.3497-0.76007 1.1694-2.8726 0.35418-0.99077 0.13103-0.45302 0.10386-0.43529 0.15347-0.92205 0.076357-0.61043 0.047227-0.6063-0.00898-0.68726-0.093119-0.64442-0.16047-0.6346-0.20476-0.62208-0.22807-0.60571-0.36011-0.83105-0.21219-0.38853-0.48593-0.67739-2.8669-3.2066-0.39687-0.46603-0.12501-0.20915-0.1817-0.42909-0.27266-0.56926-1.1753-2.3242-0.31048-0.67124-0.20295-0.50057-0.2829-0.77983-0.19434-0.74258-0.067021-0.59105-0.043836-1.3846-0.074006-0.60085-0.19092-1.2701-0.0324-0.6558 0.075218-0.64707 0.2583-0.72027 0.24629-0.45763 0.28877-0.44895 0.29719-0.41279 1.5084-1.8703 0.22774-0.31804 0.15728-0.2729 0.087006-0.24634-0.016074-0.28915-0.16102-0.19617-0.28537-0.078213-0.37877 0.012104-0.31869 0.048613-0.33325 0.084767-0.38472 0.12825-0.69855 0.27305-0.83686 0.3608-0.58316 0.21882-0.60843 0.15244-0.62285 0.04575-0.4327-0.048393-0.39525-0.092925-0.39538-0.12753-1.4432-0.58945-0.49873-0.18159-0.39975-0.11438-0.7004-0.14172-0.70684-0.012664-0.71718 0.17683-0.72608 0.33826-0.73269 0.45797-0.73756 0.54538-0.741 0.60788-0.74322 0.65109-2.9676 2.7618-1.4482 1.3057-0.70003 0.58083-0.67345 0.5014-0.63535 0.38901-0.58172 0.23336-0.5075 0.021317-0.24502-0.10282-0.21674-0.17752-0.25882-0.34541-0.1691-0.33297-0.13302-0.36386-0.079046-0.30938-0.051268-0.31072-0.026853-0.53716 0.084061-0.7518 0.11451-0.51814 0.43303-1.6032 0.10887-0.50846 0.078536-0.56697-7.53e-4 -0.49812-0.06097-0.41101-0.12635-0.44673-0.13055-0.33435-0.25538-0.53795-0.51891-0.99147-0.34458-0.74426-0.17885-0.47928-0.13383-0.42952-0.14829-0.57892-0.2086-1.1175-0.29112-1.9798-0.06589-0.66919-0.015103-0.58909 0.052943-0.5636 0.19762-0.7059 0.30313-0.68054 0.71395-1.3226 0.31344-0.6584 0.16943-0.45053 1.1335-3.362 0.26872-0.61192 0.4569-0.94729 0.1606-0.36335 0.18961-0.50306 0.11051-0.37342 0.27342-1.0985 0.14255-0.72703 0.14592-1.1485 0.0878-0.46161 0.12909-0.45144 0.19318-0.46587 0.23838-0.44594 0.26834-0.42698 0.22334-0.31764 0.24832-0.30262 0.44216-0.42152 0.56725-0.42439 0.47506-0.30098 1.3686-0.76139 0.46349-0.26864 0.41233-0.26505 0.42982-0.31937 0.34895-0.30003 0.34394-0.33809 0.50037-0.58462 0.29432-0.41068 0.31818-0.51843 0.1907-0.35966 0.18532-0.39603 0.19213-0.46985 0.1722-0.48357 0.42078-1.3441 0.25252-0.64109 0.31119-0.66089 1.0659-2.0012 0.21423-0.50038 0.18458-0.53282 0.1338-0.47719 0.11101-0.49586 0.086424-0.50859 0.068473-0.58275 0.042601-0.63038 0.017154-0.892-0.02228-0.86435-0.06175-0.91144-0.065855-0.63445-0.18683-1.2668-0.14402-0.78519-0.37352-1.7646-0.40602-1.683-0.697-2.5553-0.088492-0.34058-0.007237-0.087695-0.073807-1.1619-0.12937-2.7425-0.048363-0.7447-0.12804-1.2761-0.18446-1.3322-0.26223-1.6332-0.21773-1.1224-0.28662-1.1337-0.56145-1.8411-0.19262-0.72281-0.11211-0.5445-0.11386-0.7935-0.052053-0.76234 0.015868-0.90147 0.067043-0.81226 0.30054-2.8485 0.043696-0.64262-0.002917-0.37525 0.18996-0.077458 1.1404-0.27611 2.4685-0.48393 0.82977-0.19627 0.99854-0.28928 1.3999-0.46023 1.3679-0.48658 0.84657-0.33584 0.49523-0.22198 0.87131-0.43823 1.2133-0.6998 0.97138-0.61565 2.0602-1.3581 0.88086-0.54637 0.68112-0.37174 1.7008-0.76721 0.68332-0.3499 0.70162-0.4073 0.58331-0.36816 0.58291-0.31427 0.43325-0.15838 0.1883-0.051606 0.56345-0.11403 0.7446-0.091613 1.0776-0.060912 0.62582 0.004065 0.45278 0.027919 0.44354 0.052823 1.2361 0.24875 0.5356 0.084369 0.65809 0.034484 0.52792-0.012756 1.417-0.079643 0.76947 0.015526 0.4273 0.061786 0.40418 0.11855 0.2189 0.098684 0.36627 0.22686 0.28918 0.23873 0.2676 0.27436 0.33974 0.43995 0.28648 0.4897 0.18967 0.42565 0.22265 0.62176 0.38119 1.1949 0.18882 0.51235 0.23131 0.46483 0.39995 0.50545 0.49812 0.35155 0.57422 0.15443 0.53466-0.045826 0.55554-0.17901 0.45231-0.21326 0.43762-0.24615 0.95164-0.59158 0.1854-0.087283 0.07478 0.007235 0.11332-0.017978 1.6734-0.45783 0.30145-0.065579 0.66614-0.089133 0.69714 0.010672 0.67089 0.13252 0.53791 0.17965 1.3276 0.57295 0.53519 0.21057 0.53485 0.1514 0.5141 0.070723 0.50984 0.014679 1.1799-0.044697 0.35364 0.015686 0.36132 0.0621 0.17667 0.052544 0.28609 0.11836 0.40206 0.23883 0.22916 0.18333 0.35983 0.36875 0.85307 1.0585 0.2729 0.27709 0.31088 0.24529 0.36819 0.19479 0.55657 0.13347 0.62534 0.014716 0.6781-0.07668 0.71814-0.14647 0.74816-0.19938 0.77029-0.23931 1.4504-0.51227 1.2566-0.48502 2.9007-1.179 1.8413-0.79247 0.9983-0.46314 2.2171-1.0723 0.78678-0.41564 0.70194-0.48089 0.28324-0.25402 0.41741-0.44458 0.48289-0.59654 0.38954-0.55198 0.40902-0.6732 0.34877-0.70809 0.19542-0.52866 0.12642-0.52619 0.040642-0.43116-0.030359-0.42388-0.22106-0.67998-0.39338-0.66055-0.51847-0.64685-0.60645-0.63832-0.66505-0.63469-2.1264-1.9349-0.69125-0.67671-0.65245-0.70696-0.59296-0.7492-0.41433-0.6279-0.37417-0.65546-0.34438-0.67616-0.33588-0.72096-0.37434-0.87592-0.34873-0.88821-0.32422-0.89607-0.29838-0.90033-0.26863-0.90147-0.23217-0.89975-0.1858-0.89515-0.12584-0.88747-0.10758-1.5699-0.099297-0.93931-0.60258-3.8498-0.10134-0.96498-0.1879-3.1597-0.026013-1.374 0.059402-2.0926 0.08981-1.9365 0.095187-1.2589 0.05989-0.48957 0.042824-0.14268 0.19853-0.30169 1.6788-1.9227 0.54347-0.56608 0.58507-0.51581 0.85024-0.66603 1.3927-0.99767 0.7891-0.52372 0.69664-0.37495 0.7278-0.3175 0.74042-0.26676 0.73595-0.21906 0.67275-0.15699 0.55696-0.078509 0.46284-0.011599 0.44851 0.053795 0.38696 0.1114 0.37649 0.1637 0.65198 0.39273 0.48566 0.36974 0.61814 0.54587 1.1927 1.1279 0.59645 0.50196 0.61084 0.40591 0.33055 0.16363 1.0169 0.41155 0.72998 0.34933 0.75922 0.42149 0.77882 0.47026 2.325 1.4755 0.7607 0.46152 0.56631 0.32138 0.55716 0.28846 0.54519 0.24527 0.88658 0.33141 0.6447 0.26315 1.6532 0.71269 0.48218 0.17452 0.94772 0.28734 0.45714 0.16702 0.32783 0.15535 0.5649 0.33332 0.3967 0.27026 0.69553 0.526 1.201 0.96776 0.50298 0.36688 0.47426 0.30806 0.46722 0.25693 0.38317 0.1641 0.36446 0.10173 0.38052 0.03113 0.3571-0.03604 1.1616-0.24646 0.64247-0.18115 0.49387-0.18486 0.49321-0.24369 0.43257-0.29533 0.19054-0.17385 0.17109-0.19197 0.2087-0.3097 0.18712-0.43277 0.11323-0.47201 0.046527-0.46859 0.002328-0.28506-0.054971-0.74845-0.18298-1.6146-0.13334-0.70114-0.2206-0.6387-0.41197-0.92769-0.19768-0.48561-0.15001-0.51054-0.061331-0.5285 0.047204-0.52814 0.1709-0.53295 0.2104-0.41686 0.32375-0.49616 0.37291-0.47983 0.27111-0.31662 0.40046-0.43147 0.51143-0.49251 0.6413-0.52334 0.588-0.37536 0.57518-0.2756 0.9559-0.40757 1.8938-0.86055 0.39091-0.16138 0.39331-0.13563 0.50748-0.12533 1.3365-0.21945 0.38073-0.080878 0.35294-0.10119 0.68388-0.26675 1.2442-0.61124 0.33657-0.12284 0.25508-0.062925 0.39053-0.053083 0.19175-0.010692 0.40315 0.010181 0.24542 0.032664 0.56102 0.13162 0.84807 0.25063 0.61716 0.14487 0.34394 0.040246 0.33025-0.004948 0.28129-0.047077 0.41215-0.13112 0.81094-0.36062 0.26941-0.14081 0.081988 0.002197 0.10612 0.0504 0.27638 0.21212" stroke="#bdc660"/>
    </defs>
    <g clip-path="url(#pe8c4a70999)">
     <use y="280.512" fill="#bdc660" stroke="#bdc660" xlink:href="#mb521e29228"/>
    </g>
   </g>
  </g>
 </g>
 <defs>
  <clipPath id="pe8c4a70999">
   <rect x="7.2" y="7.2" width="199.06" height="266.11"/>
  </clipPath>
 </defs>
</svg>
