<?xml version="1.0" encoding="UTF-8"?>
<!DOCTYPE svg  PUBLIC '-//W3C//DTD SVG 1.1//EN'  'http://www.w3.org/Graphics/SVG/1.1/DTD/svg11.dtd'>
<svg width="339.99pt" height="280.51pt" version="1.1" viewBox="0 0 339.99 280.51" xmlns="http://www.w3.org/2000/svg" xmlns:xlink="http://www.w3.org/1999/xlink">
 <metadata>
  <rdf:RDF xmlns:cc="http://creativecommons.org/ns#" xmlns:dc="http://purl.org/dc/elements/1.1/" xmlns:rdf="http://www.w3.org/1999/02/22-rdf-syntax-ns#">
   <cc:Work>
    <dc:type rdf:resource="http://purl.org/dc/dcmitype/StillImage"/>
    <dc:date>2024-07-04T12:11:25.889469</dc:date>
    <dc:format>image/svg+xml</dc:format>
    <dc:creator>
     <cc:Agent>
      <dc:title>Matplotlib v3.7.1, https://matplotlib.org/</dc:title>
     </cc:Agent>
    </dc:creator>
   </cc:Work>
  </rdf:RDF>
 </metadata>
 <defs>
  <style type="text/css">*{stroke-linejoin: round; stroke-linecap: butt}</style>
 </defs>
 <g id="figure_1">
  <g id="patch_1">
   <path d="m0 280.51h339.99v-280.51h-339.99v280.51z" fill="none"/>
  </g>
  <g id="axes_1">
   <g id="PatchCollection_1">
    <defs>
     <path id="mbbcb3dbbaf" d="m166.25-259.05 0.28935 0.092713 0.29402-0.017313 0.30044-0.101 0.93573-0.48815 0.32463-0.12559 0.33305-0.053482 0.34774 0.045907 0.27014 0.089694 0.27811 0.1269 0.28528 0.15729 0.63806 0.41721 3.0323 2.2421 1.1193 0.78551 0.34626 0.21721 0.092512 0.22417 0.052732 0.54407 0.022135 0.73303-0.010967 0.82872-0.049437 0.85727-0.19521 2.0194-0.00207 0.78744 0.14386 0.67556 0.34972 0.54329 0.52668 0.37632 0.39566 0.14354 0.44095 0.096227 2.465 0.32 1.003 0.22496 0.22832 0.073377 0.73236 0.31609 0.6756 0.40496 0.60517 0.46968 0.51603 0.51487 0.40183 0.5441 0.25476 0.55994 0.065403 0.56408-0.17489 0.5931-0.38614 0.57081-0.54821 0.53309-0.18107 0.14341-0.65164 0.4509-1.3722 0.87002-0.6426 0.44642-0.61194 0.47379-0.5699 0.50853-0.49742 0.53125-0.40145 0.54913-0.243 0.47322-0.13532 0.47898 0.017068 0.6903 0.22465 0.66826 0.38398 0.61853 0.4005 0.45613 0.57526 0.56445 0.46542 0.40174 0.74469 0.55448 0.54098 0.34678 0.57512 0.30884 0.25826 0.11753 0.59045 0.23205 0.68483 0.22556 0.61912 0.17447 0.79916 0.18374 0.52985 0.092041 1.0394 0.14371 1.9681 0.24094 0.56866 0.051193 0.55963-0.002198 0.63711-0.12556 0.35656-0.15404 0.33954-0.20935 0.4124-0.33829 0.43598-0.46534 0.26532-0.34652 0.24482-0.37069 0.32915-0.58731 0.28257-0.58752 0.25141-0.58486 0.35882-0.91349 0.2157-0.61794 0.28688-0.96804 0.15068-0.61745 0.16475-0.81071 0.51582-3.4749 0.10613-0.59754 0.15194-0.67754 0.22953-0.79771 0.34797-0.90045 0.45462-0.97263 0.3281-0.62707 0.47379-0.81315 0.43291-0.65804 0.41314-0.55417 0.47944-0.54656 0.45031-0.41562 0.21531-0.16691 0.35492-0.23524 0.47821-0.24719 0.23324-0.093334 0.65448-0.1763 0.61042-0.057093 0.56222 0.058468 0.5523 0.18855 0.5292 0.27604 0.61734 0.39715 0.47737 0.39651 0.96544 0.93074 0.49188 0.41659 0.25511 0.17741 1.15 0.70759 0.30226 0.24242 0.3741 0.40546 0.68736 0.95601 0.37417 0.4876 0.42703 0.45475 0.47074 0.41254 0.49675 0.36202 0.45857 0.27024 0.6144 0.25565 0.60155 0.1903 1.6089 0.37319 0.64778 0.23691 0.6011 0.33459 0.58281 0.43471 0.55764 0.51734 0.44517 0.48933 0.41455 0.52519 0.42871 0.6336 0.3604 0.64542 0.31444 0.75733 0.14799 0.67727-0.038377 0.51146-0.19928 0.21439-0.061085 0.089627-0.21643 0.20629-1.022 0.90934-0.77413 0.72674-0.37127 0.39406-0.35616 0.44209-0.29379 0.47439-0.2028 0.56348-0.024905 0.54403 0.12478 0.54597 0.25117 0.53944 0.277 0.42055 0.334 0.4096 0.5557 0.56108 0.42227 0.36686 0.4507 0.35471 0.46483 0.33681 0.94318 0.62522 1.0361 0.63357 2.4919 1.4607 0.62272 0.38151 0.61092 0.39827 0.57612 0.4104 0.44326 0.35193 0.40552 0.36701 0.32038 0.33995 0.27872 0.35731 0.27386 0.44743 0.34455 0.73181 0.18514 0.48826 0.17794 0.53524 0.21732 0.81326 0.073171 0.39837 0.042186 0.35166 0.020346 0.5403-0.017844 0.42704-0.067362 0.64487-0.20695 1.4746-0.04584 0.55297-0.014903 0.67603 0.054916 1.0601 0.25851 2.2367 0.070369 0.75572 0.02207 0.66649-0.024686 0.85403-0.093587 1.1408-0.11913 0.79141-0.066793 0.33139-0.308 1.1983-0.43449 1.447-0.32019 0.88155-0.3907 0.89861-0.52608 1.0234-0.57209 0.95643-0.44414 0.65509-0.53812 0.71702-0.64824 0.76072-0.56185 0.59431-0.48553 0.48381-0.4864 0.44828-0.49229 0.39934-1.347 0.92897-0.40155 0.34038-0.60721 0.61261-1.0452 1.1798-0.61662 0.76-0.85657 1.1259-1.527 2.0829-0.60615 0.8729-0.43194 0.71068-0.25599 0.53145-0.17194 0.5431-0.056325 0.3658-0.015262 0.32335 0.029902 0.50644 0.063476 0.40258 0.12717 0.52426 0.20126 0.61169 0.21804 0.54193 0.33122 0.70742 0.27935 0.53255 0.26215 0.46324 0.84129 1.3799 0.4129 0.77391 0.15503 0.35037 0.13696 0.37586 0.12383 0.49867 0.050625 0.60553-0.032042 0.62478-0.0541 0.43722-0.19184 1.0675-0.22142 0.94813-0.13746 0.49079-0.36015 1.0649-0.52991 1.325-0.46703 1.0127-0.70263 1.3595-0.27428 0.63224-0.11292 0.32059-0.1307 0.46971-0.09149 0.5207-0.021404 0.23599 0.004586 0.56552 0.083864 0.53896 0.1511 0.52286 0.33312 0.75513 0.25683 0.43011 0.4065 0.51513 0.41005 0.31894 0.29777 0.073323 0.1944-0.11191 0.034901 0.013768 0.077486 0.084922 0.24191 0.36484 0.26665 0.47296 0.30486 0.62589 0.2283 0.56281 0.12276 0.36743 0.078685 0.2811 0.11593 0.55498 0.05387 0.4468 0.019441 0.41124-0.004489 0.35829-0.032574 0.46664-0.10885 0.76042-0.22081 0.9613-0.15971 0.53337-0.23331 0.64815-0.18896 0.43791-0.23094 0.45694-0.27384 0.45883-0.35897 0.49291-0.35891 0.3924-0.25958 0.23237-0.31253 0.24078-0.69615 0.44953-1.0041 0.59032-0.28873 0.18928-0.29373 0.2349-0.21542 0.25782-0.085463 0.19304-0.02061 0.36216 0.10698 0.39326 0.14707 0.31153 0.17643 0.29109 0.24077 0.33416 0.24871 0.30549 0.70995 0.76626 0.88576 0.84242 1.8973 1.6752 0.60654 0.49926 1.3274 1.0475 0.40152 0.34147 0.69499 0.64586 0.55485 0.5822 0.55965 0.65793 0.38042 0.498 0.2906 0.41895 0.40747 0.67038 0.18987 0.36568 0.16812 0.37536 0.19054 0.55412 0.10436 0.53996 0.018246 0.2777-0.008379 0.30685-0.031557 0.27417-0.088398 0.42609-0.12778 0.43445-0.16646 0.46175-0.27052 0.64288-0.20401 0.43535-0.36199 0.7057-0.73177 1.3113-0.24698 0.47438-0.18329 0.40051-0.22148 0.64196-0.10135 0.57814 0.00847 0.63721 0.044309 0.32566 0.14173 0.6237 0.27868 0.82424 0.23131 0.55442 0.27013 0.5814 0.36724 0.7249 0.71286 1.2956 1.1707 2.0398 0.24183 0.44844 0.070218 0.15638 0.001318 0.044705 0.020363 0.11535 0.1587 0.21024 0.17782 0.18836 0.34501 0.31451 1.4251 1.1126 0.34727 0.306 0.4277 0.41576 0.44098 0.47699 0.4329 0.52116 0.31897 0.42121 0.3137 0.44966 0.43254 0.69145 0.38892 0.72099 0.2213 0.48082 0.21233 0.54516 0.18131 0.5736 0.12836 0.493 0.28588 1.2545 0.14794 0.50684 0.31595 0.66765 0.16039 0.21278 0.38616 0.36319 0.45186 0.27738 0.38503 0.1541 0.50691 0.11453 0.43931 0.024744 0.36623-0.035227 0.36265-0.076327 0.62846-0.20344 0.57879-0.26023 0.30433-0.17262 0.26761-0.19768 0.33651-0.37224 0.51141-0.81593 0.2456-0.33704 0.2845-0.21524 0.30373-0.047764 0.33102 0.09241 0.37965 0.26466 0.38699 0.38841 0.84444 0.94773 0.48613 0.46745 0.55204 0.40271 0.68388 0.32333 0.75188 0.22662 0.78992 0.15898 0.80048 0.11554 2.0438 0.24088 0.48854 0.02913 0.46954-0.044154 0.38184-0.11776 0.36908-0.19094 0.31231-0.22646 0.29365-0.27451 0.28067-0.32936 0.25438-0.37039 0.26233-0.48057 0.22603-0.52364 0.1811-0.51384 0.47655-1.525 0.34408-0.89976 0.23506-0.50027 0.29169-0.53421 0.31218-0.49437 0.23054-0.31835 0.33519-0.40542 0.29924-0.31486 0.40051-0.36548 0.50748-0.39 0.53055-0.33684 0.48089-0.24681 0.5219-0.20118 0.43663-0.11209 0.35509-0.051258 0.31475-0.010535 0.30727 0.028658 0.56442 0.16993 0.54635 0.29376 0.53503 0.38378 0.53005 0.44487 0.4705 0.42859 1.8561 1.8501 2.8739 2.6606 0.87693 0.90131 0.58714 0.67782 0.68552 0.89635 0.70828 1.0403 1.154 1.9098 1.2732 1.971 1.507 2.6564 0.53174 0.87152 0.55146 0.85007 0.55213 0.80438 0.49352 0.65887 1.5595 1.9562 0.95525 1.2324 0.46632 0.63484 0.6043 0.86726 1.1623 1.7825 2.2495 3.5778 0.56716 0.8502 0.57729 0.80759 0.59313 0.74542 0.61625 0.65739 0.64876 0.53535 0.69336 0.36908 0.6522 0.15838 0.68575 0.036772 0.70877-0.042537 0.58158-0.075046 0.50159-0.10535 0.42126-0.11859 0.67239-0.24214 0.45179-0.1928 0.75997-0.363 3.0977-1.6866 0.7996-0.40349 1.1266-0.5089 0.6183-0.24756 0.69724-0.24772 0.68938-0.20693 0.6768-0.1583 0.64819-0.098099 0.6257-0.027239 0.6877 0.078313 0.2567 0.068282 0.46656 0.19576 0.46928 0.30716 0.43876 0.38383 0.42532 0.43844 1.5597 1.7779 0.82274 0.88614 0.4381 0.43245 0.46197 0.42144 0.47348 0.38064 0.48402 0.3237 0.49096 0.24919 0.50569 0.15952 0.79028 0.043869 0.41457-0.061748 0.38682-0.10439 0.24713-0.089657 0.61729-0.29351 0.45148-0.25967 0.5942-0.37434 2.025-1.362 2.7461-1.935 0.47158-0.27936 0.43775-0.19751 0.44058-0.093898 0.42551 0.083951 0.3466 0.23729 0.19015 0.21419 0.47555 0.63878 0.33786 0.41201 0.58764 0.65703 0.34405 0.44499 0.33818 0.49679 0.54201 0.90502 0.36624 0.68704 0.36344 0.79355 0.244 0.74345 0.094903 0.53827 0.19388 2.2031 0.029185 0.5632-0.063296 1.8488-0.083065 0.85874-0.17752 0.86998-0.21715 0.8786-0.17608 0.89648-0.061321 0.61316-0.025426 0.62047 8.79e-4 1.4875 0.091317 0.86257 0.19968 0.76871 0.29125 0.74254 0.3447 0.68532 0.35328 0.58406 0.3056 0.42035 0.1907 0.16878-0.19426 0.11267-0.29622 0.26738-0.42928 0.46333-0.37248 0.48381-0.32219 0.53277-0.20204 0.47446-0.1128 0.49209-0.009036 0.47073 0.075677 0.47956 0.12446 0.42411 0.16898 0.42532 0.38799 0.7587 0.48259 0.77172 0.32236 0.46259 0.89812 1.2024 0.31769 0.45485 0.24707 0.39539 0.26981 0.52252 0.10105 0.26173 0.072774 0.29935 0.016013 0.14987-0.011107 0.2731-0.1275 0.44702-0.30325 0.57177-0.40329 0.58691-0.79647 1.0594-0.37992 0.45256-0.49342 0.48719-0.55866 0.47191-0.51384 0.39268-1.0609 0.74148-3.6806 2.3623-1.1615 0.79793-1.0644 0.77827-0.85138 0.65719-1.3503 1.16-0.69598 0.52818-0.27779 0.1732-1.2498 0.63037-1.8501 1.025-0.74247 0.37088-0.97603 0.41992-1.2387 0.50123-0.39386 0.18733-0.38706 0.20603-1.3978 0.80319-0.40659 0.1852-0.35188 0.10469-0.325 0.036396-0.31695-0.02828-0.50559-0.18462-0.33007-0.2217-0.2273-0.20544-0.90259-1.0157-0.4377-0.41706-0.44038-0.36869-1.3418-1.1016-0.52611-0.37787-1.0006-0.61484-0.50595-0.34039-0.35237-0.27721-0.34898-0.30539-0.54721-0.52464-0.53787-0.55875-0.87308-0.9763-1.9933-2.41-0.52814-0.61125-0.76057-0.79599-0.65555-0.60242-0.30788-0.24248-0.6224-0.38389-0.65212-0.25481-0.67219-0.10073-0.55331 0.045964-0.56218 0.14234-0.62348 0.23991-0.63109 0.31158-0.71045 0.41807-0.51927 0.34144-1.0977 0.78986-1.1507 0.89961-1.6975 1.3845-1.0156 0.80128-1.7525 1.2968-1.3658 0.93248-0.75226 0.48874-4.0003 2.4956-0.78477 0.53557-0.62592 0.49046-0.52983 0.52213-0.39772 0.57405-0.23632 0.64833-0.082903 0.69934 0.052702 0.72696 0.17953 0.73233 0.16715 0.43446 0.20527 0.42767 0.25557 0.44946 0.42173 0.62037 0.42731 0.52815 0.49097 0.51335 0.52572 0.45553 0.6496 0.43238 0.71878 0.32497 0.7571 0.24252 1.5296 0.41936 0.72068 0.26722 0.51084 0.26501 0.39262 0.25312 0.58174 0.47207 0.30111 0.32 0.24357 0.3369 0.20772 0.44109 0.070638 0.57501-0.054345 0.26592-0.18824 0.40939-0.31432 0.42692-0.36433 0.38231-1.0319 0.93934-0.428 0.44295-0.26347 0.37234-0.12312 0.34881 0.037861 0.27978 0.19662 0.13457-0.51629 0.35351-0.76879 0.45517-0.57599 0.3-0.60445 0.27947-0.88642 0.34439-0.56539 0.18103-1.0911 0.30634-0.50435 0.1816-0.23784 0.12089-0.22538 0.13968-0.41251 0.32289-0.18376 0.17978-0.16427 0.1915-0.13941 0.20416-0.10721 0.21881-0.072503 0.25156-0.037127 0.26662-0.011327 0.27769 0.026952 0.57733 0.15755 1.4943 0.029535 0.58996-0.009592 0.2849-0.035407 0.27274-0.071124 0.25453-0.11917 0.22834-0.17596 0.19506-0.22311 0.16608-0.25605 0.14188-0.27388 0.12035-0.27344 0.099487-0.51062 0.15084-0.087557-0.98644-0.1072-0.95209-0.15128-1.0824-0.19896-1.1355-0.27324-1.266-0.24308-0.96742-0.27278-0.93494-0.3078-0.88784-0.35059-0.82668-0.40367-0.75092-0.50335-0.7329-0.52663-0.71584-0.44047-0.66484-0.41819-0.70847-0.39524-0.74226-0.43424-0.90127-0.40804-0.92025-1.0262-2.4358-0.29157-0.63387-0.30885-0.59771-0.38596-0.6228-0.43694-0.53822-0.50676-0.42766-0.73296-0.34893-0.80863-0.19712-1.0486-0.11918-1.077-0.051206-0.63068-0.003404-0.89847 0.030869-0.53799 0.040188-3.0929 0.33558-2.6215 0.2271-0.3702 0.054152-0.5233 0.11408-0.43252 0.13766-0.46946 0.20513-0.32123 0.18272-0.42023 0.30826-0.51388 0.49945-0.3941 0.46908-0.95452 1.2959-0.3313 0.42274-0.27956 0.32009-0.29423 0.2927-0.6422 0.50188-0.7186 0.43122-0.77297 0.38244-0.80884 0.35257-1.2424 0.49691-0.73665 0.25984-0.9722 0.30635-0.89503 0.25222-0.93344 0.23682-1.0266 0.23564-1.4158 0.29043-1.4067 0.24942-1.0442 0.15959-1.887 0.24573-2.7867 0.32814-1.7506 0.1589-2.929 0.16727-1.8411 0.13724-0.90568 0.10567-2.6224 0.39007-1.6252 0.16833-1.4111 0.067344-1.1232-0.016477-0.40652-0.033813-1.4604-0.22919-0.63449-0.049317-0.67081-0.006417-0.69814 0.031389-0.57012 0.049204-0.84375 0.104-0.8526 0.13983-0.85183 0.17565-0.84161 0.21387-0.82172 0.25698-6.1915 2.306-1.9483 0.67221-0.96829 0.30703-0.9594 0.27674-0.94204 0.23118-0.98624 0.19518-1.2009 0.19724-1.4182 0.17828-0.98015 0.084969-0.50617 0.017195-0.65546-0.017792-0.62918-0.059126-6.9544-1.0943-0.3879-0.079194-0.1452-0.057359-0.097381-0.070979-0.046549-0.060918-0.034536-0.10909 0.00918-0.10856 0.028613-0.07805 0.12485-0.17297 0.10344-0.09319 0.20715-0.14026 0.3743-0.1822 0.32792-0.11854 1.3008-0.3978 0.49582-0.19864 0.29006-0.14204 0.33079-0.18641 0.45446-0.30203 0.41768-0.33172 0.35675-0.33314 0.36389-0.40113 0.18676-0.23643 0.30886-0.43945 0.19134-0.31304 0.16655-0.3097 0.24026-0.54224 0.15071-0.43474 0.15201-0.59463 0.079108-0.43989 0.067373-0.52604 0.07722-1.0653 0.01055-0.66483-0.012519-0.476-0.030572-0.48149-0.091312-0.79377-0.15607-0.8714-0.13921-0.60722-0.61227-2.2078-0.1472-0.62375-0.1283-0.62879-0.49555-2.801-0.3249-1.5432-0.1963-0.72227-0.2704-0.66897-0.27646-0.45986-0.2315-0.29728-0.267-0.28051-0.35771-0.30463-0.36232-0.24577-0.4305-0.2276-0.59925-0.2273-0.79683-0.20061-0.71375-0.12805-2.2176-0.32-1.1831-0.22009-0.65621-0.17607-0.63097-0.23048-0.53017-0.2618-0.36029-0.22796-0.35731-0.27557-0.41632-0.38725-0.35891-0.38941-0.42921-0.53021-0.71289-1.0063-0.99599-1.4959-0.74752-1.0855-0.3398-0.44056-0.075775-0.081446-0.050629-0.026491 0.1749-0.19574 0.65503-0.91044 0.27858-0.35298 0.31518-0.35993 0.53526-0.53282 0.40682-0.34545 0.35196-0.2587 0.32668-0.20801 0.38116-0.21196 0.92248-0.43132 0.73863-0.27503 0.36612-0.1165 1.2362-0.35378 0.96593-0.25296 0.44452-0.097549 0.99043-0.16521 0.60136-0.12456 0.55286-0.17219 0.47502-0.23274 0.29234-0.219 0.27361-0.26299 0.41865-0.4393 0.2203-0.25827 0.169-0.24974 0.37673-0.66355 0.34185-0.49798 0.53417-0.83331 0.30113-0.37952 0.38294-0.38255 0.34101-0.26972 0.22816-0.13578 0.40038-0.13453 0.20674-0.021976 0.65862 0.004266 0.28781-0.041402 0.15988-0.048531 0.1518-0.070841 0.14433-0.099306 0.10486-0.10092 0.12246-0.1679 0.074489-0.14864 0.064946-0.19134 0.041997-0.20511 0.021877-0.32457-0.046292-0.4456-0.13401-0.53932-0.29548-0.80197-0.40153-1.1868-0.45704-1.2236-0.18474-0.68123-0.078967-0.63-0.012364-0.67719 0.042052-0.7151 0.13838-1.0914 0.16815-0.92142 0.15667-0.70678 0.18433-0.7073 0.30384-1.0006 0.7624-2.287 0.32144-1.0392 0.53045-1.8574 0.16303-0.642 0.037135-0.25989-0.026154-0.021246-0.099386-0.021802-0.23294-0.032527-3.7755-0.42413-1.4056-0.19541-0.75117-0.1292-0.96648-0.23373-0.77769-0.24012-0.61008-0.22592-0.37416-0.16471-0.35657-0.18146-0.59682-0.36888-0.48062-0.38241-0.35743-0.37124-0.24751-0.34565-0.12903-0.23851-0.12507-0.29839-0.079467-0.24436-0.11565-0.50943-0.083189-0.74903-0.055999-0.99788-0.093379-0.81853-0.17305-0.65628-0.11798-0.2753-0.17421-0.30212-0.29494-0.37542-0.34397-0.3316-0.49692-0.37054-0.34267-0.20662-0.35021-0.18128-0.39062-0.17392-0.46097-0.17578-0.46714-0.15429-0.74062-0.20706-0.80183-0.18194-0.64994-0.12241-0.74551-0.11657-1.39-0.15778-1.3736-0.079638-1.347-0.003663-1.1469 0.047384-1.405 0.13201-0.74583 0.11107-0.50747 0.1042-0.48444 0.13146-0.65848 0.25371-0.43572 0.24158-0.38706 0.29701-0.32361 0.34552-0.28086 0.39444-0.34654 0.62703-0.30588 0.67968-0.71762 1.7692-0.30295 0.66299-0.28008 0.52206-0.31593 0.48293-0.45848 0.52479-0.31043 0.26044-0.37897 0.25285-0.50873 0.27045-0.6334 0.27192-0.5851 0.20498-0.49632 0.14304-0.26752 0.0666-0.94898 0.18454-1.192 0.14856-1.0355 0.082798-1.2496 0.050822-0.81784 0.005104-1.5091-0.042206-0.77693-0.053491-1.2853-0.15207-1.154-0.21468-3.0458-0.69338-0.90339-0.23131-0.87141-0.29073-0.56556-0.25829-0.46043-0.27679-0.44142-0.31928-0.33343-0.26779-2.2962-1.9996-2.1693-1.7088-1.1197-0.91854-0.81142-0.74591-0.5783-0.58798-0.55772-0.61141-0.94855-1.1434-0.68978-0.91886-0.57474-0.83976-0.51799-0.85156-0.29748-0.55253-0.27122-0.56457-0.3258-0.80143-0.26703-0.82518-0.58669-2.1609-0.22524-0.75028-0.24793-0.72416-0.26736-0.66744-0.28501-0.60154-0.4583-0.78602-0.55893-0.74554-0.70457-0.72153-0.79085-0.64838-0.84501-0.5818-0.86179-0.5154-0.83084-0.44204-0.73469-0.3534-0.77257-0.32593-0.068778-0.11862-0.13465-0.42015-1.4807-5.2599-0.6745-2.2336-0.35126-1.0696-0.34728-0.97692-0.36034-0.92229-0.37954-0.86328-0.39769-0.77694-0.41998-0.66832-0.34595-0.42641-0.36737-0.326-0.39398-0.20475-0.22323-0.052482-0.27189-0.012295-0.33859 0.048938-0.30696 0.094111-0.37263 0.16735-0.25293 0.14302-0.61658 0.43041-2.1075 1.7043-0.37834 0.3615-0.74063 0.80594-0.56728 0.57512-0.32101 0.28548-0.57882 0.47909-0.42276 0.31967-0.74052 0.48821-0.46419 0.25654-0.49939 0.23266-0.57152 0.22014-1.2758 0.43528-0.84896 0.34469-0.88401 0.42173-1.8614 1.0012-0.69314 0.34022-0.52242 0.22808-0.47537 0.17969-0.38394 0.12155-0.46809 0.11435-0.50446 0.079454-0.50842 0.04665-1.0834 0.05775-2.7552 0.094253-0.56104 0.00525-0.67019-0.020457-0.87472-0.05821-1.2287-0.12378-0.88987-0.12977-0.48178-0.10644-0.51638-0.14392-0.47846-0.19448-0.16061-0.089473-0.3855-0.30648-0.35816-0.52604-0.16018-0.40305-0.1098-0.42847-0.10428-0.7206-0.046116-0.59951-0.10241-2.4941-0.067802-0.99656-0.4553-4.6697-0.1049-1.4304-0.10827-1.843-0.020223-1.0942 0.016574-0.62874 0.10317-1.4493 0.074063-0.67297 0.24026-1.6477 0.37521-2.0035 0.25053-1.1 0.22232-0.85861 0.24297-0.84676 0.42053-1.2901 0.25922-0.69914 0.278-0.67931 0.36278-0.78801 0.39526-0.7434 0.28174-0.46215 0.29916-0.4335 1.0061-1.2576 0.26249-0.35581 0.28365-0.43715 0.2112-0.39226 0.14769-0.33653 0.11099-0.31313 0.11886-0.45423 0.061769-0.36115 0.039235-0.41365 0.008808-0.64657-0.0363-1.2575 0.023074-0.67599 0.13244-1.7477 0.018069-0.46582-0.004225-0.46063-0.059846-0.63802-0.14452-0.61538-0.15846-0.40651-0.1998-0.39928-0.34772-0.58818-0.92022-1.3944-4.6165-6.7029-1.4433-2.1577-0.89006-1.3777-0.85534-1.374-0.87724-1.4885-0.63705-1.1627-0.98606-1.8605-0.49914-0.86882-0.51938-0.84796-0.53544-0.82364-0.5487-0.7932-0.56052-0.75338-0.57234-0.70017-0.58574-0.62858-0.36746-0.33654-0.57304-0.40956-0.63421-0.3164-0.72394-0.22128-0.771-0.12188-0.80483-0.037706-0.82751 0.036748-0.69415 0.083065-0.54252 0.095903-0.54317 0.12369-0.91255 0.27125-0.56917 0.20625-0.89281 0.37283-0.8115 0.37972-0.87608 0.43972-2.5008 1.338-1.1711 0.59637-0.77359 0.35836-0.70024 0.29414-0.81586 0.29791-0.44914 0.1371-0.73949 0.17569-0.75239 0.12318-0.74698 0.0764-0.75443 0.039035-0.75972 0.006893-0.95631-0.031289-0.95648-0.07246-0.99275-0.1195-0.9788-0.16818-0.69546-0.15718-0.67726-0.19244-0.78898-0.28972-0.73863-0.35842-0.67067-0.43714-0.38241-0.32589-0.33948-0.36718-0.20018-0.26996-0.15092-0.23892-0.22834-0.43455-0.22583-0.54222-0.26159-0.81632-0.19296-0.77229-0.16219-0.8329-0.13022-0.88289-0.11084-1.1128-0.030621-0.092451-0.01318-0.092296-0.17999-0.27016-0.43341-0.52074-0.31959-0.33775-0.74571-0.69012-1.1685-0.98493-1.6794-1.4722-0.51343-0.52294-0.46875-0.57925-0.47275-0.70273-0.27932-0.48344-0.40543-0.82768-0.21603-0.55869-0.15511-0.48802-0.23803-0.96983-0.16285-0.95809-0.062925-0.54399-0.042217-0.54417-0.021106-0.63605 0.018039-0.63524 0.049399-0.50817 0.15153-0.86536 0.59772-2.5671 0.20175-0.96389 0.092969-0.52836 0.14554-1.0676 0.048706-0.53956 0.034381-0.73709-0.007072-0.99427-0.029939-0.62195-0.23392-3.136-0.053735-1.0405-0.067512-2.8444 0.002481-0.8256 0.031891-0.41687 0.15347 0.13621 0.32905 0.12776 0.43146 0.074829 0.48151-0.020677 0.42118-0.11318 0.5011-0.22203 0.58577-0.33304 0.4073-0.26366 0.8178-0.58053 1.9398-1.4628 0.97601-0.67801 0.77028-0.47222 1.9337-1.118 0.50088-0.31814 0.82071-0.57797 0.84376-0.68588 0.81318-0.75674 0.58959-0.60831 1.4183-1.5397 0.60378-0.58445 0.49377-0.41338 0.47219-0.34198 0.54589-0.33509 0.34515-0.18372 0.34495-0.1626 0.41937-0.16632 0.41283-0.12123 0.38139-0.068708 0.7366-0.089771 0.41672-0.090908 0.30164-0.11538 0.75453-0.36472 0.27828-0.11252 0.85408-0.26813 0.87691-0.21316 0.63001-0.12379 2.2029-0.36388 0.28967-0.064502 0.13637-0.049006 0.26627-0.028109 0.32285-0.00372 0.41303 0.022406 0.71643 0.086869 0.66173 0.13221 0.37368 0.10932 0.45532 0.19061 0.41318 0.25349 0.3755 0.30946 0.62371 0.68233 0.48758 0.64186 1.1247 1.4987 1.2611 1.8324 0.3232 0.42213 0.27679 0.31612 0.2951 0.28292 0.39179 0.2961 0.4151 0.2542 1.1648 0.62522 0.33276 0.20848 0.3064 0.2387 0.35959 0.3826 0.30614 0.44181 0.095355 0.16422 0.85999 1.6736 0.3039 0.52945 1.1281 1.7858 0.4457 0.59331 0.51789 0.46798 0.6341 0.30085 0.73332 0.19489 2.0954 0.45071 1.6074 0.2968 0.84381 0.12574 0.86288 0.10127 1.4447 0.097526 1.0018 0.019174 1.2023-0.025918 1.0302-0.066667 1.0034-0.11135 1.3107-0.22269 1.2068-0.28456 0.85041-0.24154 2.5079-0.79525 0.61816-0.17858 0.54827-0.1345 0.53573-0.1005 0.52599-0.057134 0.83418 0.031106 0.79863 0.21515 0.77569 0.36941 0.75909 0.48481 0.68052 0.51559 0.67414 0.56766 0.67046 0.60511 2.7248 2.5826 1.3478 1.23 0.70296 0.59647 0.5312 0.42103 0.53908 0.39849 0.48262 0.33052 0.4876 0.3074 0.77968 0.43395 0.50941 0.24614 0.50621 0.21474 0.4828 0.17472 0.47398 0.13836 0.59182 0.11582 0.56447 0.033179 0.60851-0.087498 0.46031-0.18804 0.22956-0.13314 0.59887-0.43876 0.58694-0.49521 0.53026-0.47804 0.46188-0.45647 0.3413-0.37853 0.31349-0.38738 0.39548-0.55313 1.457-2.327 0.85615-1.2469 0.91104-1.1622 1.3646-1.6199 0.28672-0.38737 0.20471-0.32579 0.14225-0.2751 0.14611-0.38219 0.10633-0.57261 0.011325-0.58098-0.18256-2.0039-0.21398-1.0707-0.06297-0.41669-0.011016-0.41975 0.05532-0.4072 0.10569-0.39908 0.17572-0.46025 0.26624-0.42784 0.51292-0.46908 0.67891-0.40952 0.79724-0.36838 0.87762-0.34246 2.8298-0.99861 0.92972-0.36408 0.8844-0.40284 0.81274-0.45926 0.48236-0.33526 2.1935-1.6502 0.80819-0.64905 0.33265-0.30463 0.355-0.37377 0.29999-0.38254 0.23563-0.38252 0.29796-0.72272 0.19497-0.77124 0.28139-1.5861 0.17999-0.76628 0.2693-0.71482 0.39916-0.65604 0.48474-0.60196 0.99947-1.1419 0.39924-0.58713 0.24714-0.63012 0.049858-0.58198-0.038632-0.40894-0.085598-0.42169-0.13196-0.45191-0.16759-0.45786-0.28956-0.65898-0.29513-0.57988-0.35961-0.63616-0.82789-1.3443-0.20505-0.36017-0.11379-0.23265-0.12295-0.33584-0.030185-0.12952-0.019097-0.3067 0.14422-0.45413 0.31704-0.42155 0.4386-0.39421 0.51662-0.36983 0.55683-0.34622 0.41718-0.23436 0.34579-0.17031 0.71928-0.25683 0.80728-0.15961 1.355-0.16347 0.83433-0.13197 0.90109-0.21805 0.81716-0.25633 0.39777-0.1636 0.50754-0.29378 0.35782-0.26416 0.35467-0.30644 0.36925-0.2755 0.28834-0.14705 0.43836-0.15072 1.1173-0.27414 0.66264-0.12748 0.64274-0.084523 0.65448-0.060509 1.2425-0.094899 0.56577-0.025394 0.52961 0.016451 0.34992 0.050855 0.38359 0.11953 0.24259 0.12919 0.14596 0.10622 0.31737 0.32604 0.28266 0.39263 0.33445 0.52729 0.32291 0.55291 0.55214 1.0333 0.13767 0.22494 0.15679 0.21162 0.093252 0.10448 0.26607 0.23133 0.30124 0.1892 0.22454 0.10809 0.30925 0.1069 0.32926 0.076248 0.6741 0.064077 0.56427-0.056996 0.51445-0.12078 0.53244-0.1694 1.5642-0.57543 0.60625-0.19634 0.53981-0.14062 0.49971-0.085851 0.47852-0.027875 0.36414 0.02688 0.33458 0.078115 0.33402 0.1526 0.22721 0.15299 0.28208 0.24654 0.78845 0.8464 0.19244 0.16106 0.26104 0.15735 0.34758 0.11695 0.37504 0.051316 0.4313-0.005184 0.42835-0.084327 0.40238-0.18726 0.32056-0.27252 0.36929-0.56246 0.17157-0.52573 0.070225-0.74724-0.068263-0.91101-0.10107-0.59349-0.13152-0.5835-0.17966-0.65588-0.16842-0.5342-0.17532-0.46802 0.61055-0.3343 1.2673-0.79257 0.92888-0.62483 0.89092-0.63713 0.81848-0.63642 0.37157-0.31631 0.93876-0.90987 0.28885-0.22784 0.225-0.11744 0.22966-0.062943 0.22924-3.82e-4 0.29563 0.10203 0.28861 0.19276 0.28361 0.25406 1.1148 1.1918 0.2804 0.24585 0.28394 0.18295" stroke="#bdc660"/>
    </defs>
    <g clip-path="url(#p671b380b07)">
     <use y="280.512" fill="#bdc660" stroke="#bdc660" xlink:href="#mbbcb3dbbaf"/>
    </g>
   </g>
  </g>
 </g>
 <defs>
  <clipPath id="p671b380b07">
   <rect x="7.2" y="7.2" width="325.59" height="266.11"/>
  </clipPath>
 </defs>
</svg>
