<?xml version="1.0" encoding="UTF-8"?>
<!DOCTYPE svg  PUBLIC '-//W3C//DTD SVG 1.1//EN'  'http://www.w3.org/Graphics/SVG/1.1/DTD/svg11.dtd'>
<svg width="371.52pt" height="203.66pt" version="1.1" viewBox="0 0 371.52 203.66" xmlns="http://www.w3.org/2000/svg" xmlns:xlink="http://www.w3.org/1999/xlink">
 <metadata>
  <rdf:RDF xmlns:cc="http://creativecommons.org/ns#" xmlns:dc="http://purl.org/dc/elements/1.1/" xmlns:rdf="http://www.w3.org/1999/02/22-rdf-syntax-ns#">
   <cc:Work>
    <dc:type rdf:resource="http://purl.org/dc/dcmitype/StillImage"/>
    <dc:date>2024-07-04T12:11:24.609003</dc:date>
    <dc:format>image/svg+xml</dc:format>
    <dc:creator>
     <cc:Agent>
      <dc:title>Matplotlib v3.7.1, https://matplotlib.org/</dc:title>
     </cc:Agent>
    </dc:creator>
   </cc:Work>
  </rdf:RDF>
 </metadata>
 <defs>
  <style type="text/css">*{stroke-linejoin: round; stroke-linecap: butt}</style>
 </defs>
 <g id="figure_1">
  <g id="patch_1">
   <path d="m0 203.66h371.52v-203.66h-371.52v203.66z" fill="none"/>
  </g>
  <g id="axes_1">
   <g id="PatchCollection_1">
    <defs>
     <path id="m580ceb5029" d="m67.027-185.07-0.11576 1.2663-0.033743 0.66324 0.003173 0.89817 0.04852 0.69033 0.057587 0.4278 0.10457 0.47699 0.1519 0.39753 0.11059 0.17071 0.12906 0.12387 0.12077 0.074183 0.13186 0.056508 0.84134 0.2664 0.79582 0.36385 0.98817 0.53772 2.7691 1.6166 0.3017 0.16025 0.44259 0.2029 0.44969 0.15477 0.36317 0.085279 0.30483 0.049958 1.3366 0.15423 0.588 0.12964 0.52397 0.17225 3.3397 1.2798 0.78672 0.26776 0.5192 0.11729 0.22021 0.024132 0.15017 0.005399 0.43869-0.038605 0.43383-0.10729 0.41374-0.14611 1.1537-0.46464 0.52658-0.17252 0.43075-0.10333 0.43162-0.072878 0.44355-0.048137 0.8614-0.028314 0.56954 0.024816 0.65078 0.074361 0.50189 0.0955 0.71262 0.19848 0.88155 0.32842 0.88771 0.39426 2.2863 1.1024 0.62219 0.26981 1.0328 0.38542 2.124 0.68863 0.66333 0.228 0.63205 0.24377 0.60297 0.27212 0.58513 0.32365 0.53058 0.37861 0.18695 0.1641 0.48084 0.53411 0.4165 0.60765 0.38006 0.65992 0.37662 0.71673 0.36512 0.74181 0.68742 1.5222 0.93858 2.3027 0.2671 0.53439 0.27471 0.4314 0.32519 0.37754 0.43967 0.35003 0.45694 0.25585 0.3704 0.15703 0.32188 0.1049 0.46385 0.10993 0.61912 0.086449 0.82889 0.026809 0.60065-0.037399 0.6734-0.091838 0.94346-0.20602 0.6832-0.20403 0.49609-0.18688 0.21772-0.12398 0.91031-0.48605 1.2882-0.7434 2.9729-1.7576 2.606-1.5859 0.88204-0.4824 0.40493-0.1964 0.81013-0.352 0.48195-0.19118 2.7368-1.0418 0.48521-0.1552 1.7941-0.49526 0.44436-0.14202 0.48704-0.17988 0.47697-0.21212 0.55684-0.3265 0.54311-0.45982 0.32769-0.39832 0.22488-0.34958 0.12289-0.22227 0.54701-1.0837 0.36511-0.58741 0.41696-0.57211 0.49382-0.58714 0.55144-0.5108 0.43752-0.33096 0.37935-0.2485 0.54113-0.30145 0.54665-0.24315 0.51449-0.16934 0.40507-0.09146 0.5023-0.072005 0.55386-0.040099 0.59556-0.011171 1.9027 0.031846 1.4679-0.044103 2.1579-0.13197 4.1053-0.31523 1.9839-0.11733 1.2987-0.023491 0.56266 0.023466 0.56293 0.05949 0.46661 0.091078 0.52536 0.17585 0.41656 0.23263 0.32282 0.27626 0.28491 0.33642 0.3272 0.51758 0.18992 0.37308 0.19465 0.43899 0.5726 1.4634 0.29943 0.67983 0.26667 0.49128 0.19079 0.16648 2.8181 3.0247 1.5968 1.7684 1.5127 1.7591 0.69419 0.86077 0.63635 0.84455 0.56316 0.82623 0.47049 0.80534 0.23607 0.48072 0.2491 0.5622 0.15569 0.39602 0.48598 1.7705 0.17748 0.51716 0.19551 0.49 0.1425 0.3111 0.28187 0.49527 0.34497 0.45322 0.41081 0.381 0.4831 0.27442 0.46048 0.12612 0.50486 0.044071 0.53837-0.022176 0.47846-0.061435 0.49083-0.093651 0.93695-0.24339 0.83882-0.27164 0.59695-0.21704 2.0667-0.86263 0.64352-0.21549 0.85152-0.21255 0.66859-0.11286 0.82294-0.076395 1.672-0.082744 1.3531-0.13355 0.88831-0.12699 0.81332-0.14273 0.93262-0.19378 0.67273-0.16985 0.87662-0.2763 0.4739-0.18931 0.57574-0.30267 0.93704-0.60098 0.3344-0.15752 0.45015-0.1127 0.43377-0.014527 0.514 0.096708 0.39982 0.16649 1.4326 0.79653 0.65759 0.31337 0.7048 0.29109 0.74355 0.25517 0.77621 0.20382 0.56817 0.10618 0.67518 0.088213 0.81697 0.061476 0.63812 0.017541 0.84187-0.009731 0.9324-0.054902 0.80993-0.08635 0.78594-0.1254 0.85006-0.19328 0.58032-0.17463 0.58208-0.21081 0.76733-0.33219 0.53661-0.26662 1.6433-0.88373 0.62-0.29869 0.44559-0.18122 0.42462-0.14986 0.67266-0.20578 0.51895-0.13925 0.76655-0.18085 0.79144-0.1625 1.7211-0.31454 1.3034-0.21693 0.51711-0.071167 0.81931-0.083143 0.98067-0.033752 0.50176 0.017135 0.49374 0.044779 0.60176 0.10058 0.31099 0.076144 0.58386 0.18639 0.90502 0.36619 1.6296 0.82054 0.98755 0.44529 0.47837 0.19284 0.85923 0.31452 0.87829 0.28489 0.89151 0.25484 0.65915 0.16614 0.66206 0.14586 0.66355 0.12202 0.71302 0.099801 0.71084 0.062743 0.68633 0.019806 0.69721-0.023754 0.62562-0.044219 2.7262-0.25608 0.58794-0.084624 1.5066-0.29612 0.92914-0.14786 0.29442-0.030061 1.2316-0.054523 0.62037-0.043567 0.83219-0.13954 0.83084-0.23416 0.46499-0.16776 0.46254-0.18888 0.64853-0.29341 1.4408-0.68365 0.5691-0.24738 0.57865-0.21912 0.39084-0.12283 0.5543-0.13246 0.54001-0.077267 0.59343-0.019868 0.49593 0.045561 0.22078 0.042561 0.45436 0.13663 0.43386 0.18419 0.50977 0.26306 2.237 1.256 0.57204 0.3047 0.55186 0.25326 0.41365 0.1543 0.64655 0.1725 0.34223 0.056778 1.2655 0.11624 0.5668 0.082141 0.55919 0.12989 0.53674 0.19706 0.39828 0.2103 1.2512 0.82277 0.57189 0.35142 0.79976 0.44103 0.36139 0.17257 0.34868 0.14616 0.52166 0.17949 0.6179 0.16155 1.5271 0.34474 0.46805 0.1329 0.5895 0.2041 0.56644 0.24725 0.5226 0.27693 0.71478 0.45836 0.90673 0.64299 0.49871 0.2962 0.29965 0.13053 0.31277 0.0919 0.30862 0.047216 0.29432 0.001564 0.39102-0.062992 0.30996-0.10143 0.44962-0.21316 0.55488-0.33571 0.64307-0.4346 0.39738-0.31677 0.2671-0.27794 0.20191-0.30235 0.091325-0.20549 0.079249-0.266 0.043293-0.23023 0.043216-0.46009 0.025398-0.93428 0.038727-0.54376 0.091437-0.53802 0.11966-0.42641 0.22226-0.52636 0.27399-0.46132 0.25536-0.33857 0.17916-0.20016 0.21989-0.21176 0.33896-0.265 0.23793-0.1459 0.54055-0.22928 0.5835-0.14616 0.60984-0.088676 0.9109-0.05948 0.43159 0.00501 0.41837 0.032416 0.3759 0.059746 0.35235 0.092341 0.43192 0.18782 0.19413 0.12771 0.37225 0.38161 0.24913 0.46502 0.10518 0.36589 0.19019 1.2196 0.05087 0.24114 0.13976 0.47832 0.19469 0.49944 0.27263 0.58829 0.34914 0.64548 1.0189 1.6389 0.49235 0.88008 0.40132 0.80782 0.26517 0.63373 0.13063 0.3703 0.21139 0.76628 0.11544 0.59465 0.21609 1.3298 0.095657 0.40673 0.19762 0.59454 0.14251 0.32434 0.14438 0.27954 0.2717 0.43846 0.17245 0.23724 0.31227 0.37779 0.27265 0.28568 0.55154 0.50188 1.2793 1.0592 0.48108 0.43974 0.22592 0.23121 0.36799 0.45222 0.14565 0.23165 0.12101 0.24391 0.11193 0.33098 0.051795 0.27264 0.022761 0.45977-0.028934 0.42289-0.050354 0.3591-0.27321 1.2942-0.034277 0.25854-3.08e-4 0.15013 0.020608 0.09965 0.068205 0.05955 0.011924-0.067227 0.1255-0.11646 0.25987-0.16204 0.59808-0.29578 0.50897-0.22342 0.9161-0.35751 0.71458-0.23616 2.0713-0.55246 0.99717-0.28036 0.50324-0.1638 0.4817-0.17957 0.71143-0.32876 0.5548-0.34775 0.34942-0.29347 0.44293-0.497 0.3748-0.55341 0.26544-0.4638 0.81653-1.523 1.5333-2.9912 0.45173-0.83574 0.47089-0.79723 0.5157-0.7596 0.5574-0.66781 0.44707-0.41358 0.48583-0.32581 0.54122-0.22903 0.58018-0.14714 0.49469-0.074666 0.61645-0.034614 0.35747 0.002093 0.60173 0.029515 1.0437 0.098141 0.34531 0.045978 0.90058 0.16204 0.54828 0.13973 0.32152 0.10324 0.60734 0.24174 0.38006 0.17772 2.414 1.2553 2.4416 1.1998 0.64244 0.38606 0.28653 0.2043 0.30178 0.24539 0.26819 0.25129 0.23541 0.25035 0.41959 0.51356 1.0952 1.5073 0.63206 0.81398 0.35468 0.42976 0.22103 0.22606 0.21926 0.1638 0.25302 0.1084 0.22877 0.037176 0.17535-0.003646 0.31419-0.06905 0.22259-0.086154 0.27417-0.13996 0.61723-0.39397 0.20291-0.11258 0.25182-0.10634 0.16133-0.043669 0.17868-0.022601 0.15864 0.004385 0.26863 0.055855 0.17861 0.064879 0.66687 0.32168 0.3056 0.12489 0.18916 0.058617 0.34307 0.066126 0.32971 0.015678 0.22011-0.009998 1.2229-0.13962 0.31059 0.004356 0.21717 0.034321 0.16965 0.05077 0.19192 0.088965 0.16395 0.10804 0.20278 0.18333 0.13528 0.15602 0.22066 0.31491 0.42894 0.73566 0.26472 0.41258 0.28198 0.35631 0.28761 0.28599 0.20926 0.16629 0.24267 0.1567 0.20183 0.10579 0.33188 0.1341 0.31651 0.090397 0.35446 0.065399 0.31187 0.030089 0.59213-0.006508 0.34007-0.038371 0.4186-0.080774 0.52032-0.15383 0.39075-0.15737 0.32903-0.16209 0.33087-0.19042 0.64107-0.42209 1.0964-0.77764 0.36996-0.22579 0.22736-0.11021 0.16288-0.060088 0.16818-0.038355 0.13081-6e-6 0.092433 0.050054 0.022847 0.053119-0.029152 0.14265 0.00534 0.46939 0.052361 0.70165 0.22648 2.0586 0.21737 1.74 0.10367 0.71082 0.3537 2.1321 0.32967 1.6083 1.1025 4.4692 0.26623 0.82244 0.19679 0.4706 0.22267 0.44293 0.28311 0.46404 0.3285 0.41662 0.58019 0.52026 0.66867 0.46401 0.67087 0.42639 2.1615 1.3028 0.60021 0.37892 1.1948 0.80216 0.65278 0.48641 0.57693 0.51304 0.53003 0.55887 0.47864 0.59456 0.41911 0.6219 0.38744 0.72457 0.28121 0.73548 0.15132 0.73207-0.012552 0.71418-0.086331 0.36553-0.1567 0.38495-0.23063 0.39545-0.25537 0.34272-0.30877 0.34759-0.60198 0.5694-0.40807 0.33741-0.5343 0.39958-1.0816 0.71822-2.4854 1.5238-1.4599 0.92506-2.6871 1.7638-1.2107 0.83938-1.86 1.3714-1.091 0.73988-0.46886 0.29576-0.58302 0.34038-0.45359 0.24026-0.53508 0.25727-0.60581 0.26146-0.57771 0.22527-0.60797 0.21838-1.0999 0.36311-1.1429 0.3438-0.88266 0.23749-0.52333 0.11996-0.65651 0.12138-0.44634 0.060742-0.79093 0.055822-0.47149 9.87e-4 -0.51003-0.021703-1.0425-0.094808-1.7154-0.21236-0.68792-0.053349-0.34816-0.00685-0.40294 0.017768-0.34958 0.045664-0.31286 0.073507-0.26094 0.093409-0.57958 0.34987-0.50235 0.48836-0.43526 0.58816-0.32855 0.56865-0.29766 0.63993-0.2346 0.66022-0.1548 0.66608-0.0525 0.65842 0.079046 0.63742 0.088961 0.28238 0.13448 0.30312 0.16738 0.29412 0.18726 0.27584 0.32868 0.41718 0.49412 0.55112 0.54865 0.54261 0.59718 0.52414 0.84264 0.64925 2.0047 1.4582 0.75919 0.61058 0.71134 0.65618 0.31852 0.33711 0.36967 0.43498 0.55492 0.74271 1.4815 2.1966 0.30244 0.4043 0.55585 0.65787 0.60672 0.59421 0.6678 0.5099 0.75118 0.41536 0.81193 0.32758 0.85919 0.26119 0.89619 0.21152 0.92555 0.1748 0.94941 0.14795 0.96949 0.12856 1.9904 0.21951 6.7743 0.61052 2.256 0.22375 1.9654 0.24189 0.87697 0.16255 0.19911 0.071699 0.023283 0.035819-4.0492 2.6815-2.5847 1.6724-2.2455 1.3863-1.4459 0.83049-1.0474 0.55777-0.59147 0.29613-0.88873 0.41558-1.1288 0.48283-2.9163 1.1684-1.3504 0.57195-1.0191 0.48534-1.2509 0.6754-1.2298 0.75216-0.60871 0.4073-0.52726 0.3816-0.55685 0.44911-0.51157 0.47719-0.45394 0.51144-0.38127 0.55359-0.23522 0.4555-0.19745 0.48034-0.17881 0.51568-1.4434 4.5433-0.90401 2.6355-0.66152 1.736-0.35429 0.83904-0.37583 0.80872-0.40357 0.76716-0.43931 0.71115-0.48522 0.63669-0.54384 0.53886-0.66811 0.4595-0.70794 0.36207-1.3436 0.62003-0.53171 0.34606-0.35656 0.43102-0.072981 0.18774-0.037864 0.17762 0.010309 0.59318 0.15124 0.66888 0.24272 0.72688 0.56368 1.4979 0.25394 0.74811 0.20844 0.76469 0.13323 0.7772 0.034177 0.72793-0.046604 0.72776-0.11387 0.69562-0.21213 0.77971-0.30327 0.74287-0.40565 0.68847-0.57533 0.67956-0.68392 0.61118-0.76341 0.56095-0.82093 0.5248-0.86211 0.49951-0.89131 0.48262-1.8383 0.93926-3.3617 1.6542-2.5998 1.2504-4.4988 2.1185-1.9449 0.94841-2.795 1.439-1.4817 0.80822 0.15706-0.14031 0.21-0.48738 0.075945-0.23965 0.097011-0.38817 0.065921-0.36669 0.077131-0.85558 0.007228-0.61013-0.039819-0.89189-0.074842-0.79397-0.1987-1.368-0.19552-0.94656-0.19848-0.72691-0.26738-0.73984-0.20998-0.43743-0.21973-0.3551-0.47181-0.50587-0.61232-0.32461-0.59757-0.13274-0.65185-0.025888-0.51045 0.03813-0.66855 0.10043-1.5967 0.30895-0.46825 0.074959-0.61839 0.071124-0.39961 0.023979-0.44125 0.003792-0.92138-0.061942-0.58701-0.078115-0.58908-0.099763-2.4105-0.49236-0.76732-0.14085-0.87586-0.12484-0.6764-0.060832-0.68009-0.033848-0.68255-0.01281-3.5355 0.063174-0.94544-0.021696-0.85696-0.065317-0.8484-0.10383-0.83715-0.13387-0.82247-0.15699-0.80342-0.17436-1.6073-0.39124-1.6171-0.32209-1.8926-0.45384-0.55732-0.10084-0.55946-0.041931-0.67486 0.052865-0.6846 0.14958-0.6919 0.22448-0.69708 0.28153-0.70042 0.32398-1.2147 0.60788-4.0951 2.1043-0.88607 0.40987-0.90568 0.37367-0.9191 0.34303-1.695 0.55549-1.3342 0.37641-1.9663 0.47729-2.1945 0.48896-0.9168 0.23602-0.90364 0.26515-0.882 0.30147-0.84994 0.34796-0.56274 0.27506-0.70046 0.41775-0.40872 0.2998-0.39065 0.32546-0.38513 0.35121-0.37599 0.36516-1.9657 2.0171-0.83295 0.81182-0.47212 0.49223-0.42738 0.51479-0.30281 0.44029-0.22412 0.37192-0.8 1.468-0.23596 0.38373-0.34398 0.46197-0.33319 0.34012-0.56105 0.39154-0.64188 0.31681-1.4244 0.59636-0.75088 0.36567-0.7533 0.41795-0.74768 0.45958-0.73386 0.49196-0.71115 0.51592-1.4491 1.1127-0.70651 0.47157-0.71227 0.35217-0.69814 0.19074-0.66149-0.017294-0.43395-0.16328-0.40217-0.2756-0.36861-0.36904-0.44224-0.61635-0.39146-0.71788-0.35282-0.78701-0.45669-1.2008-0.38383-1.1459-0.42854-1.3909-0.26861-0.75798-0.31462-0.74325-0.52131-1.0551-0.41254-0.756-0.40353-0.67513-0.43417-0.65733-0.38249-0.521-0.40682-0.4972-0.28613-0.31563-0.56443-0.55101-0.58987-0.51216-1.2227-0.97356-0.63808-0.43799-0.67609-0.35131-0.81655-0.25416-0.87912-0.14182-0.92728-0.070153-2.9756-0.069325-1.5815-0.069007-2.7209-0.24788-0.70092-0.10345-0.63234-0.18724-0.57931-0.32134-0.3062-0.24801-0.25345-0.26244-0.17763-0.23441-0.11816-0.21224-0.039584-0.23648-0.088648-0.009828-0.19419 0.029584-0.56684 0.17855-0.2543 0.10276-0.46552 0.22115-0.37133 0.21282-0.34564 0.23898-0.2978 0.25476-0.22484 0.24162-0.18645 0.25741-0.15396 0.29095-0.11719 0.33146-0.045304 0.18665-0.064696 0.46245-0.014952 0.36621 0.043432 0.85651 0.17039 1.443 0.059029 0.69678-0.00746 0.66418-0.042442 0.37611-0.078737 0.38501-0.1324 0.41062-0.37866 0.719-0.51718 0.67261-0.61753 0.63783-0.68909 0.61193-0.73937 0.59263-0.77418 0.57797-0.79795 0.56634-1.6389 1.1028-1.6706 1.0575-0.84332 0.50418-0.84886 0.48002-0.85578 0.44697-0.86504 0.40185-0.8777 0.34068-0.644 0.19924-0.64934 0.16273-0.92841 0.17774-0.74205 0.090864-0.754 0.050204-0.64154 0.018349-1.5241 0.006655-1.2072 0.045812-0.88242 0.080894-0.89076 0.11378-0.8987 0.1412-1.0306 0.1881-1.0412 0.21175-3.996 0.89888-2.0565 0.42945-1.031 0.1818-1.0194 0.14406-0.98978 0.091928-0.93228 0.025687-0.75063-0.034815-0.632-0.063335-0.4578-0.06431-0.18334-0.050709-1.0288-3.4719-1.0061-3.182-3.2635-9.8467-0.83973-2.4344-0.62851-1.6456-0.29935-0.70502-0.31505-0.67189-0.36028-0.66923-0.39348-0.60414-0.30062-0.37377-0.32508-0.32443-0.59833-0.40054-0.47437-0.16492-0.70231-0.092901-0.43887 0.00293-0.45396 0.039477-0.81858 0.14292-0.57382 0.13932-3.2285 0.9542-1.3435 0.34638-0.73553 0.15486-1.1743 0.17975-0.92125 0.067335-0.47702 0.001214-0.82118-0.058755-0.62082-0.096783-0.63705-0.14651-0.54842-0.16754-0.51452-0.19121-0.384-0.16961-0.388-0.20177-0.34205-0.20806-0.53809-0.3896-0.63899-0.56031-0.64104-0.65826-0.61355-0.70625-0.59383-0.74025-0.58005-0.76365-1.1354-1.5673-2.7912-3.9428-2.3614-3.2178-0.34363-0.50705-0.45192-0.81093-0.37161-0.86344-0.2906-0.90726-0.20231-0.91024-0.13147-0.85517-0.097393-0.87189-0.28362-3.4429-0.10808-0.97026-0.14981-0.96258-0.18258-0.84076-0.21855-0.76379-0.30422-0.82653-0.27969-0.61348-0.43181-0.76858-0.44044-0.62505-0.48721-0.55348-0.58233-0.52211-0.74276-0.53016-0.68849-0.40428-0.50006-0.2568-0.51086-0.23566-0.80035-0.32086-0.57961-0.19902-0.59244-0.17439-0.83378-0.19191-0.43182-0.065712-0.35236-0.015756-0.19256 0.088607-3.123 2.2425-0.75183 0.5044-0.6563 0.40604-0.75484 0.42105-0.63679 0.31076-0.49929 0.21204-0.60206 0.2174-0.6206 0.17986-0.49808 0.11036-0.62703 0.094383-0.58255 0.048675-1.0534 0.018244-2.2637-0.074764-0.58377-0.0017-0.71656 0.031568-0.77003 0.075215-0.77278 0.10758-1.2336 0.20353-2.3248 0.4747-0.62468 0.10416-1.506 0.21496-0.47614 0.10197-0.33917 0.12453-0.30422 0.17607-0.16544 0.13524-0.17515 0.178-0.34113 0.43447-0.5796 0.90035-0.338 0.46964-0.38895 0.47194-0.23634 0.26076-0.46467 0.45948-0.45014 0.3758-0.40991 0.2703-0.32503 0.16965-0.30652 0.13015-0.30776 0.10723-0.56408 0.15416-1.7307 0.38454-1.3973 0.35866-1.0388 0.32092-1.6688 0.59509-0.93279 0.29994-0.55459 0.14348-0.49607 0.10496-0.58383 0.096378-0.57939 0.066968-0.72449 0.042084-0.79817-0.01255-0.41749-0.038553-0.31954-0.04929-1.1572-0.26-0.70518-0.12212-0.37167-0.020777-0.26921 0.010316-0.26518 0.032323-0.38571 0.08312-0.54697 0.1828-0.39283 0.17233-0.30557 0.15743-0.42516 0.25398-0.76355 0.53716-1.5071 1.1913-0.76945 0.58807-0.6817 0.49909-0.7652 0.52782-0.82835 0.53043-1.3844 0.82185-0.76526 0.41283-0.86545 0.41308-0.56685 0.21937-0.44113 0.12376-0.44134 0.077382-0.56683 0.043101-0.60652-0.010086-0.6278-0.053451-1.0602-0.13872-0.4951-0.11224-0.080745-0.045438-0.091035-0.097122-0.39306-0.53226-1.0459-1.69-0.63162-0.93804-0.43614-0.58131-0.45675-0.54861-0.56493-0.62168-1.5641-1.6528-0.62098-0.56337-1.3554-1.0833-0.50006-0.48568-0.36771-0.4413-0.30192-0.43152-0.4565-0.77125-0.8909-1.7132-0.85072-1.5773-0.19437-0.41781-0.12831-0.32721-0.1529-0.53268-0.067274-0.43215-0.015146-0.58249 0.039171-0.49348 0.091284-0.60653 0.13059-0.65273 0.66884-2.705 0.20853-0.97296 0.11342-0.69555 0.076766-0.67782 0.029331-0.44973 0.010354-0.64885-0.017672-0.51267-0.081868-0.87892-0.16741-1.0042-0.16296-0.71417-0.25657-0.89032-0.24087-0.68368-0.28551-0.68467-0.42567-0.8643-0.51962-0.88547-0.53272-0.75613-0.66079-0.79004-0.71328-0.74793-0.64922-0.5864-0.65754-0.49335-0.39014-0.2436-1.2223-0.66763-0.42654-0.25448-0.49324-0.35685-0.35055-0.3258-0.16553-0.17638-1.1172-1.3534-0.28616-0.30428-0.41018-0.36154-0.65259-0.41757-0.73167-0.34193-0.78116-0.29135-1.604-0.51774-0.76998-0.26722-0.71026-0.3012-0.61665-0.36855-0.33423-0.30036-0.2901-0.35049-0.38193-0.64379-0.1839-0.41592-0.15444-0.43388-0.17122-0.65013-0.11289-0.7333-0.065373-1.2405-0.083071-0.81197-0.65218-3.8649-0.13051-0.89177-0.10392-0.89574-0.050918-0.76565-0.002649-0.506 0.015287-0.29682 0.029541-0.27918 0.089026-0.45711 0.12706-0.389 0.1101-0.24221 0.115-0.20477 0.33193-0.45568 0.28344-0.30764 0.40853-0.37303 0.39333-0.30678 0.53779-0.35982 0.29499-0.17348 0.90787-0.4608 0.86566-0.36209 1.6288-0.60529 2.6745-1.0499 1.1546-0.50992 0.95971-0.51039 1.0427-0.63369 2.8219-1.8571 2.9023-1.8284 1.1404-0.66982 2.2185-1.227 0.5521-0.3303 0.38093-0.25156 0.34732-0.25481 0.33318-0.27342 0.24611-0.22364 0.37269-0.3801 0.32793-0.38138 0.32858-0.43118 0.24214-0.34954 0.24575-0.38356 0.27854-0.49578 0.13945-0.29006 0.18042-0.45044 0.15952-0.55126 0.079668-0.46693 0.023951-0.34953-0.016236-0.49228-0.18346-1.5509-0.20024-2.435-0.07509-0.4666-0.10037-0.44948-0.29313-1.0337-0.2882-0.75798-0.21739-0.475-0.208-0.38707-0.35812-0.53867-0.35198-0.40264-0.36423-0.32486-0.22599-0.16832-0.49918-0.31568-0.88371-0.47219-0.14717-0.10538 0.075656-0.079041 0.057445-0.12249 0.067986-0.20711 0.071378-0.30294 0.048375-0.29495 0.03398-0.35427 0.008724-0.34103-0.020327-0.41692-0.051978-0.41324-0.28945-1.4426-0.13239-0.81451-0.04269-0.58093 0.00553-0.3964 0.020031-0.26251 0.064316-0.45376 0.14467-0.63518 0.53753-1.7354 0.16055-0.60949 0.16634-0.87157 0.099147-0.73565 0.052393-0.75214 0.011361-0.55107-0.011292-0.69566-0.041777-0.81205-0.14259-1.471-0.034308-0.85132 0.006409-0.60958 0.029498-0.62232 0.08862-0.96577 0.12404-0.52841 0.14345-0.36344 0.27271-0.47154 0.25129-0.33163 0.1366-0.14097 0.19146-0.16142 0.43243-0.29728 0.33677-0.17642 0.74776-0.33903 0.17923-0.10413 0.27704-0.19516 0.16737-0.15138 0.18847-0.23007 0.14064-0.25934 0.072719-0.2184 0.042838-0.25677 0.00903-0.27266-0.027562-0.37016-0.066455-0.42897-0.25745-1.3004-0.11036-0.74942-0.028212-0.42514-0.022737-1.1425-0.041413-0.37827-0.13498-0.66547-0.35386-1.2714-0.10126-0.55937-0.035095-0.5643 0.035258-0.5629 0.13138-0.80143 0.13238-0.49018 0.162-0.41195 0.43753-1.0118 0.30931-0.94589 0.22952-0.52022 0.95141-1.455 0.29507-0.64115 0.23244-0.67752 0.14717-0.53152 0.16394-0.81389 0.035887-0.4766-0.006627-0.34-0.080229-1.3704-0.026832-0.34395-0.069619-0.52671-0.1665-0.52377-0.089999-0.16016-0.18973-0.23885-0.24566-0.2147-0.38156-0.22007-0.73399-0.25084-0.66535-0.12756-0.75734-0.075908-0.50385-0.019439-0.40969 0.003503-0.19542 0.023116 0.067603-0.19095 0.48015-1.762 0.20535-0.65117 0.16468-0.47181 0.32638-0.81179 0.34752-0.66538 0.26838-0.37957 0.30174-0.31011 0.16776-0.12871 0.50601-0.25248 0.68741-0.15164 0.51939-0.032695 0.89232 0.037382 0.93865 0.11028 2.36 0.33844 0.88256 0.08517 0.82182 0.030307 0.58388-0.018608 0.43161-0.038701 0.555-0.085095 0.47427-0.10749 0.67038-0.21251 0.41224-0.16914 0.62614-0.32218 0.58562-0.36437 0.75211-0.51544 0.61068-0.37929 0.51806-0.24666 0.43298-0.15512 0.37141-0.10634 0.36752-0.081887 0.50834-0.064701 0.54012 0.020212 0.51936 0.099985 0.50945 0.17352 0.44226 0.2508 0.27339 0.25354 0.20017 0.30918 0.14004 0.49981 0.028963 0.57168-0.034802 0.61048" stroke="#bdc660"/>
    </defs>
    <g clip-path="url(#pb10cbcf38a)">
     <use y="203.661279" fill="#bdc660" stroke="#bdc660" xlink:href="#m580ceb5029"/>
    </g>
   </g>
  </g>
 </g>
 <defs>
  <clipPath id="pb10cbcf38a">
   <rect x="7.2" y="7.2" width="357.12" height="189.26"/>
  </clipPath>
 </defs>
</svg>
