<?xml version="1.0" encoding="UTF-8"?>
<!DOCTYPE svg  PUBLIC '-//W3C//DTD SVG 1.1//EN'  'http://www.w3.org/Graphics/SVG/1.1/DTD/svg11.dtd'>
<svg width="371.52pt" height="238.41pt" version="1.1" viewBox="0 0 371.52 238.41" xmlns="http://www.w3.org/2000/svg" xmlns:xlink="http://www.w3.org/1999/xlink">
 <metadata>
  <rdf:RDF xmlns:cc="http://creativecommons.org/ns#" xmlns:dc="http://purl.org/dc/elements/1.1/" xmlns:rdf="http://www.w3.org/1999/02/22-rdf-syntax-ns#">
   <cc:Work>
    <dc:type rdf:resource="http://purl.org/dc/dcmitype/StillImage"/>
    <dc:date>2024-07-04T12:11:33.400738</dc:date>
    <dc:format>image/svg+xml</dc:format>
    <dc:creator>
     <cc:Agent>
      <dc:title>Matplotlib v3.7.1, https://matplotlib.org/</dc:title>
     </cc:Agent>
    </dc:creator>
   </cc:Work>
  </rdf:RDF>
 </metadata>
 <defs>
  <style type="text/css">*{stroke-linejoin: round; stroke-linecap: butt}</style>
 </defs>
 <g id="figure_1">
  <g id="patch_1">
   <path d="m0 238.41h371.52v-238.41h-371.52v238.41z" fill="none"/>
  </g>
  <g id="axes_1">
   <g id="PatchCollection_1">
    <defs>
     <path id="m6cb74eeee2" d="m173.49-206.56 1.7326 0.77512 1.341 0.68888 0.91307 0.53425 1.1394 0.74885 3.572 2.4575 1.3066 0.8241 0.83395 0.46022 1.0718 0.47339 1.3551 0.44746 1.4164 0.3287 0.92736 0.15234 1.5719 0.1567 0.88765 0.0303 0.96007-0.022543 0.78751-0.068523 0.8582-0.1313 0.77256-0.16797 0.8933-0.24399 0.89041-0.28573 1.3713-0.49994 4.0524-1.6312 1.857-0.69321 1.8848-0.5904 1.2805-0.35073 1.691-0.42131 1.1343-0.24946 1.7087-0.30744 3.4404-0.56147 1.9012-0.35284 1.4699-0.29291 4.5046-0.96803 1.2609-0.19164 1.2363-0.087319 1.2437 0.040754 0.70818 0.071988 0.79743 0.11706 0.77898 0.15586 0.71223 0.18856 0.51406 0.18816 0.29142 0.23225 0.31439 1.0385 0.20411 0.88833 0.12344 1.0331 0.12195 1.7708 0.003352 0.89876-0.10122 1.4367-0.086483 0.70004-0.28025 1.5354-0.077478 0.76915 0.037628 0.83351 0.14993 0.84754 0.24148 0.84842 0.31866 0.83648 0.38739 0.81134 0.45314 0.77179 0.44927 0.63893 0.36278 0.46781 0.57941 0.6534 0.3659 0.34408 0.44167 0.35054 0.47305 0.32057 0.62335 0.36543 0.65201 0.33448 1.1966 0.52928 2.0311 0.83494 0.69208 0.30937 1.2687 0.63647 0.7741 0.46448 0.41945 0.31812 0.22197 0.21341 0.30115 0.40701 0.20276 0.5017 0.11367 0.56768 0.084439 0.87364 0.1412 2.5427 0.1474 1.6544 0.21178 1.543 0.31066 1.6681 0.55975 2.3643 0.42484 1.5245 0.95022 3.1961 0.32159 1.185 0.36535 1.5761 0.25915 1.3584 0.30441 0.003562 0.76605-0.05005 2.3292-0.23292 1.7642-0.25442 2.7384-0.48486 4.4264-0.899 10.052-2.1275 7.4659-1.4802 2.1325-0.47486 3.9819-1.0065 2.7105-0.5825 2.6127-0.51154 1.2897-0.22544 1.2476-0.17966 1.879-0.18557 2.6964-0.16998 1.1498-0.13502 1.1285-0.21284 0.60419-0.16716 0.55556-0.20133 0.33524-0.15114 0.86057-0.51728 0.65576-0.51064 1.4852-1.2507 0.80596-0.56961 2.3885-1.5098 0.87087-0.48581 0.68075-0.33014 1.1562-0.46644 0.58622-0.19273 1.0481-0.27428 1.0142-0.18965 1.6415-0.19331 1.6649-0.084148 0.83623 0.039498 0.69135 0.11047 0.55776 0.16433 0.4855 0.20985 0.46204 0.279 0.29643 0.26862 0.080246 0.20628 0.095923 0.060421 0.47237 0.47546 0.92375 1.0604 0.79234 0.96098 3.7177 4.6663 3.9517 4.8963 0.64075 0.84561 0.41743 0.6306 0.30577 0.55446 0.1711 0.37922 0.2567 0.77587 0.20733 1.0717 0.097717 1.0948 0.025738 1.0979-0.053034 1.2424-0.18284 1.1546-0.31139 1.1718-0.50978 1.4478-0.57716 1.4069-1.3543 3.0163-0.62198 1.467-0.29371 0.83993-0.15775 0.70649-0.034689 0.42148 0.012801 0.38804 0.031894 0.2485 0.11041 0.46142 0.083355 0.23639 0.23835 0.49405 0.39211 0.55176 0.31525 0.32282 0.4188 0.32506 0.25132 0.15243 0.64953 0.29592 0.42472 0.14107 0.89982 0.21971 2.5145 0.45822 1.5851 0.34353 1.5996 0.4215 1.6369 0.54116 1.9542 0.78898 1.4289 0.64745 2.0393 0.98482 2.6817 1.3782 1.0462 0.49978 0.69972 0.28279 0.70246 0.22073 0.51405 0.082284 0.075199-0.013251 0.043465-0.04991-0.001721 0.1146-0.17479 0.3226-0.55214 0.81824-0.96462 1.2816-2.3573 3.0123-1.4576 1.9513-1.168 1.6475-1.8416 2.7177-1.6076 2.1888-0.5769 0.82974-0.55749 0.94983-0.28288 0.62084-0.22722 0.71154-0.088405 0.46054-0.033618 0.65339 0.086386 0.4966 0.21478 0.43097 0.3168 0.35896 0.15002 0.12389 0.40864 0.24098 0.75617 0.24253 1.0639 0.26649 0.9796 0.3093 0.79692 0.36023 0.80459 0.46564 0.79247 0.55528 0.37778 0.30134 0.89756 0.83798 0.44212 0.497 0.58287 0.79915 0.3461 0.619 0.18825 0.41414 0.31572 0.91617 0.13149 0.54275 0.13567 0.81404 0.069218 0.79289 0.008459 0.43296-0.064314 0.97381-0.2221 1.189-0.34382 1.1062-0.43613 0.98322-0.96601 1.687-0.44795 1.0151-0.14625 0.46345-0.1418 0.73904-0.098539 0.73462-0.15146 0.73479-0.21836 0.60199-0.15662 0.3319-0.59845 0.99974-3.2764 4.6537-0.94093 1.247-0.46887 0.55564-0.66149 0.70658-0.95976 0.86859-0.71485 0.52156-0.8628 0.47185-0.55418 0.20926-0.56461 0.1608-1.6605 0.39945-0.73007 0.2278-0.42438 0.16625-0.66016 0.3268-0.63667 0.39817-0.33624 0.24468-0.64208 0.53167-0.88783 0.87034-1.5252 1.7354-1.2188 1.4754-0.46916 0.60437-0.53367 0.77658-0.47057 0.81558-0.39228 0.85156-0.23346 0.65024-0.83658 2.9201-0.28574 0.79991-0.34866 0.78316-0.32528 0.59323-0.78748 1.1759-0.4848 0.63611-2.2823 2.8269-0.68236 0.91686-0.59604 0.86378-0.72396 1.1298-1.4419 2.4684-1.2809 2.3849-1.2494 2.4451-2.2028 4.4475-0.4963 1.0269-3.0602 6.6902-1.6096 3.3847-1.2334 2.4373-2.1497 4.0141-1.2788 2.5429-0.4994 1.0301-0.36484 0.83452-0.38726 0.74013-0.33022 0.44022-0.36262 0.37436-0.44057 0.37919-1.0911 0.80757-0.65156 0.61628-0.59767 0.74254-0.44477 0.70378-0.4543 0.79184-0.43406 0.8292-0.48345 1.0606-0.8068 2.1194-0.33322 0.73486-0.45798 0.62055-0.42136 0.33784-0.54029 0.29125-0.39038 0.15473-0.72439 0.20182-0.54535 0.094135-0.72432 0.070135-0.77117 0.027845-1.2495-0.012915-1.6979-0.11381-1.143-0.1337-1.5956-0.24247-2.0619-0.40485-1.2376-0.30382-1.225-0.34795-1.1105-0.34816-0.91591-0.33612-0.84149-0.37599-0.56207-0.30969-0.51309-0.34909-0.82638-0.83-0.1312-0.1936-0.3812-0.76682-0.24724-0.77326-0.19287-0.91839-0.17167-1.3045-0.3757-4.6125-0.11558-1.1156-0.15972-1.1964-0.29558-1.5418-0.18675-0.70149-0.22421-0.66248-0.27154-0.61692-0.33114-0.56069-0.31853-0.40679-0.42561-0.42697-0.416-0.33648-0.64186-0.41388-0.5293-0.2685-0.37445-0.15591-0.80489-0.2664-2.0005-0.51037-2.9185-0.82926-0.75043-0.16786-0.65449-0.10317-0.90031-0.04788-1.091 0.11512-0.74487 0.16213-0.96634 0.27962-1.4896 0.54189-1.2533 0.53099-1.2644 0.58056-3.7181 1.7836-1.3554 0.61869-1.3516 0.565-0.94808 0.34945-1.4263 0.42374-0.78706 0.16743-0.77658 0.10731-1.3281 0.011774-0.88482-0.14101-0.86351-0.22746-0.63677-0.20587-0.84643-0.325-0.93339-0.4378-0.72546-0.40195-0.63444-0.403-0.56884-0.41245-0.401-0.32525-0.93044-0.87647-0.8552-0.96473-0.86099-1.1452-0.69354-1.0483-1.7289-2.7944-0.89898-1.349-0.69683-0.83401-0.17867-0.17462-0.54035-0.44739-0.44933-0.30585-1.2485-0.70807-0.9991-0.47409-0.57674-0.21031-0.47615-0.13679-0.58566-0.12499-0.37109-0.051035-0.35357-0.021273-0.56782 0.02396-0.46534 0.067351-0.52827 0.13693-0.36444 0.13492-0.32307 0.1691-0.23224 0.20631-0.051949 0.11007 0.010463 0.1093-0.085578 0.10536-0.17455 0.13128-0.71469 0.43127-0.89019 0.45822-0.83115 0.37705-0.72162 0.2909-0.93461 0.33219-0.77032 0.22512-0.81999 0.17592-0.84067 0.12022-0.73401 0.062311-0.75694 0.018677-0.83137-0.01957-1.3355-0.13075-2.0885-0.38728-0.7526-0.10169-0.56376-0.034391-0.92106 0.032975-0.47727 0.075588-0.76355 0.22692-3.2727 1.44-0.80614 0.28985-0.88991 0.23952-0.51095 0.080731-0.67194 0.050037-1.8422 0.002678-1.9554 0.1188-1.9237 0.20776-1.0266 0.18884-1.2843 0.33413-0.90648 0.29034-2.0213 0.87332-4.5372 1.8505-1.9587 0.75982-1.8635 0.61146-1.4696 0.36098-1.2702 0.2094-1.0812 0.069699-0.59777-0.016606-0.70857-0.064571-2.2208-0.37294-0.68319-0.079841-0.40158-0.0082-0.43634 0.032707-0.33581 0.053584-0.59901 0.15445-0.70057 0.27447-0.81619 0.45126-1.264 0.87729-1.8159 1.371-0.80625 0.57216-0.74589 0.47307-2.2028 1.3052-1.6039 1.0346-1.1508 0.80724-0.96211 0.71725-1.4844 1.1811-0.60164 0.5371-0.72483-1.1064-0.94346-1.3316-3.1434-4.1433-0.756-1.0763-0.65314-1.0168-0.40172-0.68912-0.57291-1.1098-1.3799-3.2278-0.27456-0.5679-0.29494-0.53338-0.32271-0.48976-0.35891-0.43531-0.41537-0.39051-1.2161-1.032-1.0845-1.1051-0.91627-1.0084-0.45705-0.56745-0.42846-0.68115-0.22516-0.55407-0.12881-0.58126-0.033375-0.60167 0.13938-1.9408 0.012187-0.51966-0.067618-0.98978-0.12851-0.74914-0.19201-0.74746-0.14496-0.44137-0.1689-0.43576-0.27287-0.58519-0.25311-0.45647-0.46844-0.72201-0.88939-1.2236-0.41177-0.52411-0.43685-0.49679-0.47176-0.45417-0.68981-0.52437-0.65982-0.40212-0.8841-0.4426-0.53993-0.19558-0.10879-0.003281-0.050355-0.021169-0.33896-0.44818-0.40964-0.8465-0.36289-1.06-0.21899-1.141 0.007363-1.1252 0.16493-0.7126 0.23084-0.54623 0.17637-0.30438 0.28553-0.38862 0.43224-0.44625 0.42353-0.33558 0.52769-0.32749 0.80197-0.35526 0.82811-0.2381 1.2853-0.2154 1.4162-0.12573 1.2331-0.038933 0.74208 0.025337 2.5464 0.17946 1.0791-0.012361 0.55008-0.053042 0.7417-0.14549 0.77179-0.26874 0.44557-0.21448 0.41607-0.24138 0.45904-0.32373 0.42123-0.35346 2.4284-2.4054 2.1701-2.0436 0.43568-0.45166 0.74189-0.87961 0.41269-0.5933 0.42242-0.73506 0.3949-0.85025 0.33699-0.94671 0.14865-0.59128 0.089413-0.60269 0.010675-0.70201-0.075606-0.51551-0.097398-0.34625-0.1196-0.31612-0.22884-0.45862-1.5786-2.4079-0.28166-0.39484-0.38801-0.46002-0.64547-0.64241-0.82937-0.73222-0.93969-0.76908-1.7556-1.3537-0.78146-0.66616-0.89563-0.84923-1.6416-1.6536-0.68526-0.63176-0.49855-0.41537-0.5035-0.37428-0.62368-0.39333-0.51693-0.27928-0.67996-0.31307-0.6683-0.24448-0.66764-0.19007-0.7457-0.15939-1.0233-0.1203-2.5963-0.12403-0.6135-0.0541-0.96337-0.14175-1.5292-0.34438-1.3194-0.41276-1.0783-0.44223-0.64126-0.33171-0.38482-0.23623-0.71183-0.545-0.21752-0.20549-0.42718-0.48882-0.55268-0.93482-0.20701-0.54202-0.17126-0.63736-0.19161-1.1201-0.10105-0.82502-0.06644-0.81142-0.017591-0.78003 0.076757-1.807-0.004753-1.0819-0.078102-0.68321-0.10208-0.34486-0.1618-0.33129-0.17696-0.256-0.28295-0.2997-0.52557-0.37579-0.59398-0.34786-0.63288-0.41469-0.59394-0.44052-1.5589-1.2737-0.57409-0.37428-1.0653-0.58141-1.1718-0.55318-3.7782-1.6746-1.2389-0.62531-0.97363-0.55463-2.5512-1.5449-0.39822-0.2214-0.84935-0.41292-0.70798-0.2625-0.68081-0.20662-0.69043-0.16741-3.4264-0.61476-1.077-0.27609-1.349-0.41189-0.59789-0.21706-1.1949-0.48847-1.2324-0.58-0.79306-0.48744-0.56336-0.4464-1.0428-0.98708-0.48487-0.53375-0.38752-0.50398-0.4238-0.65609-0.28643-0.55756-0.78311-1.8823-0.3067-0.61547-0.64544-0.99268-0.90173-1.1901-1.0552-1.2879-2.1525-2.4583-1.8546-2.0237-2.7351-2.8967-2.6223-2.7137-1.9545-1.9662-1.5569-1.4961-1.6509-1.4988-0.84132-0.72139-1.0317-0.83684-1.0559-0.79229-1.0864-0.73557-1.1252-0.66345-1.3815-0.67606-1.4283-0.59304-4.4022-1.6469-2.2342-0.92933-1.3423-0.59841-2.3316-1.1192-1.2157-0.6429-2.3907-1.3795-2.3528-1.4724-2.5063-1.6708-2.5416-1.8072-4.0976-3.0935-2.1491-1.5592-2.2982-1.5861-1.8445-1.2351-6.4598-4.1752-1.3121-0.88198-1.2548-0.8879-1.0575-0.78771-0.75162-0.59356-0.27982-0.26573 0.53828-0.74007 1.2058-1.4922 0.73023-0.82329 0.78276-0.81091 0.82424-0.76529 1.6782-1.375 1.7306-1.3816 1.7494-1.3076 0.88584-0.59689 0.89839-0.54042 0.91634-0.46685 0.9788-0.39722 0.98718-0.32913 2.8343-0.86188 0.83688-0.33016 2.0654-1.0682 0.59042-0.35849 0.53726-0.39388 0.19875-0.17451 0.42933-0.45267 0.82647-0.95654 0.48777-0.45533 1.8179-1.4616 0.73794-0.67002 0.53072-0.5685 0.5011-0.60986 0.475-0.63899 1.3469-1.9847 0.49873-0.64099 0.56241-0.57749 0.67673-0.51251 0.84362-0.48813 1.0534-0.50663 1.1774-0.5069 1.6477-0.61019 2.3366-0.72859 2.4897-0.70064 2.8854-0.77355 0.27393-0.095422 23.305 2.2398 4.8653 0.42158 3.1712 0.1929 1.5599 0.045513 1.5381-0.006493 1.5292-0.075674 1.4922-0.15368 1.4231-0.25172 0.91971-0.25448 0.90146-0.32216 1.3271-0.588 2.7536-1.4467 1.046-0.52034 1.2349-0.53565 1.3148-0.47402 0.86838-0.26013 0.77809-0.20006 4.2142-0.87293 0.90024-0.22223 0.98567-0.3 0.63331-0.23984 1.2401-0.60729 1.1908-0.73758 1.1547-0.82877 1.1294-0.88613 3.3149-2.6997 1.1011-0.80966 1.1078-0.70314 1.1194-0.54901 0.79794-0.27001 0.93266-0.19837 0.84655-0.06167 0.70343 0.059458 0.54318 0.12606 0.67321 0.25007 0.95216 0.462 1.1664 0.62892 0.86552 0.50475 2.7913 1.7927 1.63 1.0943 0.84815 0.5135 1.0851 0.54726 1.0036 0.39878 0.99672 0.30032 3.3012 0.78031 1.0498 0.27106 1.3209 0.39588 1.6602 0.606 2.9289 1.1766 1.8401 0.68368 2.7245 0.92729 5.8987 1.8725 0.87551 0.31024 1.9381 0.75991" stroke="#bdc660"/>
    </defs>
    <g clip-path="url(#pa8f246f4ca)">
     <use y="238.405466" fill="#bdc660" stroke="#bdc660" xlink:href="#m6cb74eeee2"/>
    </g>
   </g>
  </g>
 </g>
 <defs>
  <clipPath id="pa8f246f4ca">
   <rect x="7.2" y="7.2" width="357.12" height="224.01"/>
  </clipPath>
 </defs>
</svg>
