<?xml version="1.0" encoding="UTF-8"?>
<!DOCTYPE svg  PUBLIC '-//W3C//DTD SVG 1.1//EN'  'http://www.w3.org/Graphics/SVG/1.1/DTD/svg11.dtd'>
<svg width="332.52pt" height="280.51pt" version="1.1" viewBox="0 0 332.52 280.51" xmlns="http://www.w3.org/2000/svg" xmlns:xlink="http://www.w3.org/1999/xlink">
 <metadata>
  <rdf:RDF xmlns:cc="http://creativecommons.org/ns#" xmlns:dc="http://purl.org/dc/elements/1.1/" xmlns:rdf="http://www.w3.org/1999/02/22-rdf-syntax-ns#">
   <cc:Work>
    <dc:type rdf:resource="http://purl.org/dc/dcmitype/StillImage"/>
    <dc:date>2024-07-04T12:11:34.804542</dc:date>
    <dc:format>image/svg+xml</dc:format>
    <dc:creator>
     <cc:Agent>
      <dc:title>Matplotlib v3.7.1, https://matplotlib.org/</dc:title>
     </cc:Agent>
    </dc:creator>
   </cc:Work>
  </rdf:RDF>
 </metadata>
 <defs>
  <style type="text/css">*{stroke-linejoin: round; stroke-linecap: butt}</style>
 </defs>
 <g id="figure_1">
  <g id="patch_1">
   <path d="m0 280.51h332.52v-280.51h-332.52v280.51z" fill="none"/>
  </g>
  <g id="axes_1">
   <g id="PatchCollection_1">
    <defs>
     <path id="m86ebc60a5e" d="m249.55-234.66 1.339 0.018008 1.6228-0.066871 1.4258-0.14818 1.2571-0.21058 0.84856-0.18986 0.89972-0.24594 0.80424-0.25726 0.98476-0.35864 0.95472-0.39211 0.93691-0.42957 0.94864-0.48717 0.68662-0.39624 0.55116-0.35672 0.52626-0.39273 0.32128-0.29579 0.104-0.12636 0.065088 0.056897 0.18861 0.063317 0.29315 0.040233 0.4994 0.01933 0.97424-0.035469 1.5742-0.13875 1.2705-0.079254 0.9744-0.024655 0.60173 0.01172 0.65738 0.039254 0.92036 0.10198 1.0668 0.17257 0.83594 0.16754 1.3426 0.33553 0.95153 0.34744 1.0925 0.61194 0.38358 0.30178 0.43875 0.42326 0.56652 0.70215 0.49027 0.75842 0.4301 0.78817 0.1987 0.4292 0.23014 0.59294 0.17567 0.55164 0.25097 1.0106 0.19208 1.1409 0.055358 0.54973 0.079581 1.4607 0.14208 1.251 0.23188 1.01 0.21938 0.65774 0.27558 0.62984 0.24759 0.4417 0.30132 0.42738 0.34615 0.38602 0.48424 0.39913 0.53347 0.29678 0.27208 0.11564 0.60058 0.19497 1.3238 0.35417 0.62408 0.24222 0.45791 0.26648 0.58215 0.53294 0.48973 0.68198 0.39812 0.79455 0.30275 0.876 0.18912 0.8648 0.15403 1.2999 0.21464 3.0417 0.13284 0.78835 0.30141 0.94348 0.39194 0.88224 1.5288 2.9419 0.72864 1.6227 0.56809 1.4188 0.37371 1.0583 0.31088 1.005 0.29896 1.1117 0.8449 3.4472 0.61406 2.1427 0.58966 1.7525 0.56871 1.5377 0.54537 1.2808 0.39026 0.77906-0.031202 0.091935-0.034623 0.062344-0.55214 0.46169-4.5069 3.3601-2.1962 1.7461-1.5849 1.3719-1.2252 1.1799-0.99486 1.0883-0.86263 1.1008-0.70319 1.1114-0.36246 0.72537-0.72169 1.7082-0.35354 0.98038-0.26596 0.98078-0.13625 0.98256 0.02724 1.0611 0.14711 1.0665 0.52164 3.0592 0.13558 1.3247 0.00723 0.43139-0.042438 0.85816-0.14148 1.1866-0.20637 1.1922-0.2894 1.2543-0.34234 1.2674-1.0933 3.8411-0.58967 2.3211-0.70469 2.9434-0.21705 0.81584-0.36576 1.1645-0.42701 1.1626-0.4674 1.1242-0.49777 1.0753-1.4066 2.6962-0.35321 0.89947-0.20469 0.65977-0.1522 0.67803-0.10323 1.0144-0.005153 0.77472 0.06856 1.1248 0.14275 1.1463 0.11552 0.67836 0.4078 1.9763 0.25205 1.0441 0.76514 2.6517 0.18102 0.86376 0.074902 0.72024-0.049985 1.0741-0.20517 1.0815-0.27564 0.97028-0.25463 0.72197-0.12 0.29559-0.53605 1.0431-0.31324 0.45824-0.34221 0.4279-0.71414 0.75142-0.55692 0.50401-0.44373 0.36232-1.3042 0.91314-1.5476 0.90699-2.4403 1.3061-0.26401 0.16064-0.090478 0.10437 0.66644 1.9239 0.20735 0.81577 0.18805 1.1616 0.094289 2.0498 0.080504 0.69658 0.050491 0.2515 0.17203 0.57664 0.25108 0.54498 0.20748 0.33355 0.33777 0.44284 0.3162 0.36109 2.412 2.6134 2.7728 2.8061 1.2802 1.3851 0.57279 0.65434 0.72438 0.92376 0.36886 0.5437 0.49542 0.87475 0.35516 0.82341 0.20695 0.68767 0.081917 0.40179 0.059231 0.4758 0.01729 0.38681-0.019141 0.51711-0.12302 0.8435-0.16818 0.66777-0.37365 1.0577-0.37114 0.82397-0.6726 1.3125-0.22701 0.53409-0.13991 0.55415-0.021562 0.37472 0.01733 0.18751 0.084955 0.32376 0.16842 0.31058 0.33007 0.32498 0.17165 0.10887 0.42638 0.167 0.36148 0.046586 1.1647-3.12e-4 0.50662 0.10418 0.4702 0.20155 0.30479 0.22201 0.21935 0.27847 0.12669 0.43341-0.016165 0.48163-0.042925 0.21699-0.15405 0.42402-0.22846 0.39265-0.56631 0.68337-0.25389 0.37038-0.16119 0.38079-0.11781 0.64592-0.024228 0.82796 0.14931 0.87854 0.24594 0.59053 0.42467 0.64846 0.2722 0.30992 0.36704 0.33878 0.65578 0.45032 0.8552 0.36493 0.81918 0.13691 0.54455-0.026189 0.95666-0.20826 0.717-0.23895 0.6576-0.26287 0.58237-0.28955 0.56274-0.3317 1.1445-0.79688 0.75234-0.59364 0.43606-0.45169 0.20657-0.28753 0.20124-0.3805 0.1696-0.47768 0.068314-0.28479 0.085144-0.63506 0.012245-0.70434-0.040359-0.63422-0.18985-1.3677-0.17285-0.82367-0.19702-0.72972-0.32337-0.96104-0.47447-1.1627-0.56944-1.2086-1.0432-2.0564-0.31741-0.69191-0.27303-0.71745-0.19356-0.76986-0.049556-0.52057 0.02469-0.47609 0.042611-0.23815 0.079232-0.26993 0.11992-0.26587 0.158-0.24009 0.25766-0.27249 0.4052-0.28714 0.36318-0.17456 0.25542-0.091707 0.53111-0.13544 1.1513-0.15614 1.7879-0.11813 0.99885-0.098262 4.0378-0.64968 0.074779-0.020639 0.066252 0.025456 0.17809 0.13914 0.40293 0.4999 0.24021 0.38079 0.47582 0.88763 0.7316 1.6022 2.0017 4.8296 0.4676 1.1744 0.36914 1.0387 0.24371 0.81735 0.13989 0.56584 0.28278 1.5595 0.17352 1.5702 0.10418 1.5667 0.13474 3.0724 0.090992 1.4797 0.14703 1.4214 0.23673 1.3431 0.36549 1.2396 0.14392 0.35544 0.36546 0.75839 0.42047 0.71361 1.3145 1.8628 0.40512 0.65204 0.47322 0.99286 0.13966 0.42197 0.12022 0.47625 0.096145 0.52452 0.072372 0.59215 0.049058 0.77864-0.02045 1.5509-0.043344 0.50325-0.07815 0.49366-0.20058 0.71988-0.23421 0.50898-0.46622 0.72099-0.59618 0.72979-1.2947 1.4598-0.67491 0.92181-0.45589 0.74668-0.33571 0.73189-0.16371 0.69912 0.021906 0.50123 0.072643 0.27766 0.34237 0.59882 0.47769 0.39138 0.61324 0.30747 2.1954 0.7724 0.35946 0.1525 0.61567 0.34335 0.67109 0.59846 0.516 0.75379 0.17823 0.38533 0.18509 0.51681 0.23606 0.89178 0.14762 0.9106 0.034547 0.85587-0.10238 0.71144-0.10541 0.27106-0.16828 0.23455-0.2029 0.088399-0.50473 0.49109-1.4724 1.2916-2.5739 2.0969-1.1864 1.0118-0.90834 0.87401-1.668 1.8403-0.76042 0.80113-1.7453 1.7274-1.2078 1.1161-1.4397 1.2541-0.63272 0.50118-0.67392 0.46242-0.3985 0.20889-0.26881 0.0983-0.25282 0.05207-0.26236 0.00933-0.21532-0.021523-0.40903-0.091668-1.0838-0.35062-0.80098-0.18212-0.65732-0.061538-0.44515-0.003541-1.1099 0.072971-2.1382 0.21599-0.46605 0.059633-0.44853 0.089927-0.27348 0.083529-0.23628 0.10512-0.21313 0.1467-0.18157 0.22009-0.046931 0.11736-0.006962 0.091696 0.029009 0.071603-0.43642 0.37979-0.79956 0.77927-1.2798 1.3945-0.65462 0.66212-0.59398 0.48987-0.22412 0.12932-0.22103 0.081455-0.21746 0.020791-0.25362-0.065647-0.24924-0.14226-0.24614-0.19368-0.97228-0.92521-0.24418-0.19052-0.24651-0.13962-0.2501-0.06572-0.2489 0.024456-0.25322 0.094134-1.0571 0.65001-0.27937 0.13988-0.28884 0.092386-0.26254 0.029013-0.43148-0.025298-1.2494-0.27814-0.30032-0.040902-0.28415 0.006472-0.25956 0.076144-0.23546 0.16909-0.20402 0.24408-0.17561 0.29388-0.26296 0.61867-0.1045 0.35206-0.80907 0.17588-1.2376 0.15908-0.72529 0.021685-0.772-0.02486-1.4251-0.13694-2.9531-0.48594-1.1868-0.30358-0.9137-0.37959-0.8822-0.49678-0.73571-0.50886-0.70291-0.56706-0.98268-0.93631-0.57079-0.63402-0.61112-0.76178-0.66252-0.94296-0.32057-0.53894-0.4599-0.95954-0.83101-1.9523-0.45914-0.8596-0.69018-1.0706-1.9625-2.5765-0.58816-0.89945-1.8396-3.2642-0.62109-0.97892-0.57497-0.77601-0.55117-0.67033-0.64328-0.69194-0.1821-0.14554-0.28475-0.16022-0.14868-0.0522-0.30127-0.037695-0.15179 0.022653-0.18444 0.074871-0.18806 0.14686-0.18174 0.23269-0.24093 0.54284-0.13117 0.66624-0.003043 0.73917 0.1186 0.73495 0.32617 1.5956 0.14751 1.0578 0.12597 1.3956 0.033108 1.1577-0.050949 1.1831-0.1368 1.061-0.22875 1.0467-0.37394 1.148-0.45777 1.0435-0.2743 0.52453-0.53574 0.89923-0.61067 0.91247-0.509 0.70224-1.0816 1.3539-0.60236 0.6779-0.51959 0.54045-0.97886 0.89756-0.69605 0.52384-0.36373 0.2304-0.34178 0.18868-0.47292 0.21727-0.31548 0.11683-0.49556 0.13571-0.54895 0.079704-0.79305 0.004056-1.0246-0.12389-2.633-0.45226-0.34801-0.045414-1.2475-0.080795-1.2861 0.031642-1.3039 0.13484-1.3021 0.23495-1.2811 0.3383-1.2397 0.45146-0.84167 0.39161-1.1474 0.6316-2.4866 1.5559-1.0006 0.5478-0.89906 0.36309-0.691 0.20627-0.78717 0.17823-0.68303 0.11749-1.3102 0.14891-1.0165 0.049407-2.0048 0.018468-1.1959 0.088885-0.7573 0.12023-0.92645 0.19641-2.4217 0.59044-1.4097 0.29979-1.0443 0.17904-2.1348 0.28366-2.8433 0.2726-1.6719 0.11675-1.6725 0.068541-0.98226-0.00168-0.98532-0.037358-1.789-0.15679-4.6501-0.67195-1.641-0.15346-0.72466-0.030928-0.9867-0.002209-0.87642 0.036444-0.8806 0.073015-1.6537 0.23525-1.5885 0.33919-1.6949 0.46952-1.5447 0.51011-1.3525 0.50524-2.8962 1.1982-0.48625 0.16839-0.091257-0.001514 0.11045-0.35702-0.048931-0.37189-0.13052-0.54869-0.21748-0.70199-0.96829-2.7146-0.44739-1.416-0.39136-1.4356-0.91-3.7814-0.48564-1.8359-0.37021-1.2483-0.32893-0.98656-2.3885-6.3639-0.7032-2.0897-0.59767-2.0737-0.15802-0.63972-0.30276-1.504-0.13932-1.0128-0.054407-0.69651-0.005635-0.94266 0.1249-2.7023-0.063039-2.3346 0.006368-0.71326 0.087338-0.94546 0.084184-0.41845 0.27813-0.80875 0.40416-0.7364 0.17224-0.24476 0.45966-0.55453 0.69986-0.72056 0.65934-0.72514 0.56003-0.77117 0.3765-0.81277 0.10481-0.51235 0.01214-0.51299-0.10352-0.67575-0.34858-1.4012-0.11057-0.79733-0.045446-0.8372 0.026212-2.4707-0.1008-0.73271-0.2201-0.60817-0.30526-0.55136-0.54737-0.84275-0.22609-0.45601-0.11998-0.43043-0.042219-0.51166 0.066362-0.71564 0.1281-0.48395 0.92516-2.388 0.18604-0.62266 0.15972-0.89751 0.05451-0.81228-0.034316-0.57139-0.08334-0.23837-0.1344-0.10828-0.21243-0.33924-0.1262-0.11039-0.54709-0.36154-0.70963-0.31395-0.8183-0.19478-0.47814-0.034462-0.51453 0.022931-0.394 0.056356-0.37927 0.085522-0.61883 0.20734-0.67957 0.31645-1.0255 0.63511-1.0023 0.80164-0.93541 0.93068-0.60298 0.7181-0.37861 0.51108-0.39387 0.59003-0.43836 0.735-0.4055 0.75704-0.59649 1.2424-2.0285 4.7102-0.44754 0.88132-0.4029 0.65584-0.43065 0.57388-0.2794 0.31508-0.63988 0.59347-0.49897 0.35504-0.33994 0.19941-0.53808 0.25754-0.87856 0.28051-0.52764 0.08476-0.56567 0.018157-0.47321-0.046261-0.66581-0.1679-0.55311-0.24183-0.66133-0.44715-0.72411-0.76709-0.55359-0.79127-0.46788-0.77554-0.91127-1.7079-2.6986-5.5568-2.2963-4.2258-0.64302-1.0544-0.58837-0.80952-1.2072-1.563-1.6936-2.4717-5.6191-7.8722-1.8338-2.4015-0.92885-1.1377-1.7254-1.9757-0.64423-0.78246-1.4402-1.9607-3.0935 1.1236-4.2146 1.3285-2.3989 0.81206-1.9406 0.75399-0.75956 0.33673-0.76346 0.38327-0.76342 0.43897-0.74251 0.48579-0.7108 0.53439-1.0418 0.88368-0.68475 0.64122-0.88719 0.9153-1.1516 1.2972-0.79588 0.96742-1.2387-1.3565-0.83536-0.96472-0.69494-0.88098-1.3007-1.7308-0.63889-0.73624-0.32916-0.30807-0.34152-0.25139-1.1441-0.58343-1.4165-0.82532-0.29274-0.26244-0.27157-0.3182-0.50099-0.75006-0.46905-0.8417-1.6038-3.1965-0.7388-1.3795-0.67414-1.0752-0.48875-0.621-0.2592-0.25168-0.26732-0.18764-0.27375-0.10587-0.20152-0.018958-0.25444 0.039612-0.28825 0.12394-0.14077 0.11602-0.1638-0.15317-0.35304-0.52225-0.30626-0.54939-0.41619-0.85165-0.84686-2.0076-0.59339-1.6114-0.36467-1.2144-1.2081-4.6303-0.64519-3.1631-0.20768-0.75564-0.21822-0.54564-0.22302-0.39352-0.18195-0.24756-0.22726-0.24872-0.45352-0.37516-0.36999-0.2295-0.43727-0.21918-1.5658-0.68074-0.67512-0.32448-0.6703-0.39693-0.37819-0.28478-0.32273-0.30546-0.15826-0.18696-0.23873-0.38422-0.20463-0.64165-0.019819-0.53324 0.025195-0.18273 0.12752-0.41815 0.14842-0.27649 0.59209-0.59739 0.53727-0.257 0.61723-0.16214 1.4789-0.22173 1.723-0.33846 1.4799-0.40767 1.0057-0.34276 0.76405-0.3156 0.67202-0.32286 0.65138-0.36077 1.0318-0.6908 0.38995-0.30358 0.73828-0.64675 0.93876-0.95446 0.29996-0.35995 0.34271-0.47099 0.33126-0.54814 0.32048-0.69896 0.1729-0.55257 0.087087-0.46236 0.0262-0.30205 0.002431-0.22177-0.060439-0.56748-0.14744-0.56124-0.24588-0.59672-0.2092-0.39081-0.31024-0.48076-0.52165-0.65206-0.43834-0.4452-0.85881-0.67631-1.0567-0.64724-1.4499-0.77519-3.1351-1.6117-0.88761-0.49664-0.84518-0.51645-1.0123-0.67869-0.67624-0.54807-0.5095-0.51532-0.41371-0.51583-0.30026-0.45909-0.19296-0.36625-0.23378-0.57341-0.20321-0.81587-0.039214-0.43766 0.015141-0.48203 0.059453-0.42603 0.32628-1.4285 0.024291-0.70311-0.036805-0.21725-0.12663-0.39776-0.089664-0.19916-0.29709-0.50744-0.37001-0.49176-0.40043-0.45071-0.50077-0.50019-3.082-2.8474-1.2029-1.212-0.5872-0.63311-0.78153-0.90734-0.47265-0.59685-0.5341-0.74191-0.49355-0.77718-0.4541-0.7989-0.93814-1.8389-0.47245-1.0167-0.74894-1.8898-1.509-4.3368-0.41073-1.0464-0.28314-0.62838-0.47852-0.84603-0.35591-0.50813-0.46224-0.58711-0.7778-0.85124-0.91172-0.86242-0.9135-0.77007-0.71066-0.5205-0.66112-0.40963-0.71271-0.36726-0.88982-0.34695-0.4886-0.13822-0.89271-0.15287-0.7556-0.026859-0.78494 0.05135-1.3784 0.19249-0.80654 0.16349-0.93638 0.2798-0.72225 0.28289-0.58439 0.2662-2.4133 1.294-0.75276 0.36401-0.93825 0.38473-0.77924 0.24384-0.65891 0.13943-0.45304 0.051732-0.40508 0.008114-0.388-0.033066-0.3645-0.076918-0.5644-0.23732-0.17058-0.105-0.58668-0.49501-0.526-0.63515-0.47639-0.74355-0.33782-0.62565-0.2518-0.51481-0.47159-1.0792-0.43594-1.1189-0.91363-2.5231-0.3553-0.87352-0.50114-1.0805-0.24367-0.44098-0.37898-0.54001-0.22022-0.24075-0.52208-0.45135-1.5323-1.0816-2.7932-2.257-1.2985-0.98481-1.293-0.8593-1.7745-1.0793-0.94707-0.6936-0.52222-0.4367-0.62001-0.5907-0.30104-0.37897-0.041991-0.084001-0.00585-0.088897-0.22591-0.20134-0.22375-0.38789-0.15969-0.48857-0.034149-0.52469 0.14792-0.54583 0.31809-0.49247 0.4493-0.40587 0.46446-0.26721 1.273-0.56173 0.55334-0.31797 0.47524-0.40721 0.3172-0.45273 0.22604-0.53357 0.14404-0.63964 0.059092-0.74443-0.041502-1.3136-0.21717-2.2718-0.030078-0.73153 0.042996-0.84448 0.093557-0.70659 0.14022-0.68799 0.21128-0.73367 0.22991-0.59178 0.27538-0.53838 0.3252-0.46763 0.38297-0.37463 0.21123-0.14069 0.3016-0.13656 0.32877-0.090567 0.37427-0.054892 0.3954-0.019297 0.75223 0.039074 0.43437 0.05813 2.8796 0.60398 1.1493 0.14894 0.58337 0.019351 0.47482-0.032117 0.42844-0.077165 0.42546-0.12042 0.69537-0.27891 0.69198-0.35891 0.69154-0.41842 1.2642-0.87354 0.64998-0.50728 0.63408-0.55161 0.57364-0.57671 0.32449-0.37783 0.2983-0.3961 0.26378-0.40387 0.15269-0.27348 0.067743-0.20854 0.13139 0.13273 0.32369 0.16664 0.47581 0.18787 0.35747 0.10636 0.62512 0.14256 1.4071 0.20975 1.6651 0.11984 1.3933 0.004618 1.5375-0.066167 2.8123-0.18091 1.3719-0.14904 1.3128-0.21486 1.2261-0.30417 1.0956-0.39182 1.5891-0.64582 0.61849-0.18616 0.35527-0.069979 0.4565-0.042202 0.54966 0.029429 0.2657 0.051069 0.43035 0.13814 0.58498 0.28618 0.49329 0.31781 0.42276 0.32143 0.4261 0.39 0.59055 0.69147 1.0065 1.486 0.51051 0.69154 0.85959 0.99389 0.44828 0.44638 0.56451 0.50908 3.241 2.8441 0.49748 0.48928 0.96523 1.061 0.47321 0.48387 1.279 1.1647 1.0068 0.96284 0.73366 0.58178 0.34186 0.20798 0.25115 0.12073 0.36112 0.12243 0.62202 0.078532 0.29236-0.01195 0.41952-0.06291 0.49843-0.13601 0.3931-0.15499 0.61093-0.33431 1.4816-1.0574 1.0263-0.63548 1.235-0.62314 0.59764-0.25307 1.1561-0.39143 1.0177-0.25954 0.92312-0.18921 2.1138-0.34337 2.088-0.23932 4.1199-0.34328 1.2197-0.15658 1.2513-0.22296 1.1766-0.29088 1.0966-0.35715 2.6386-0.9999 3.5008-1.1992 0.7669-0.34158 0.42794-0.27321 0.36978-0.32799 0.21403-0.24669 0.24956-0.3603 0.19352-0.35388 0.17865-0.4159 0.17615-0.58124 0.088013-0.5087 0.027872-0.47098-0.032169-0.6859-0.088531-0.65293-0.23912-1.1404-0.51908-2.0042-0.26863-1.146-0.17618-1.0864-0.045521-0.58347 0.003056-0.96686 0.097644-0.94566 0.11097-0.58398 0.23311-0.81966 0.33849-0.79246 0.38189-0.62328 0.17963-0.22952 0.36569-0.37843 0.6989-0.48573 0.32092-0.14382 0.29365-0.096815 0.64579-0.11439 0.36009-0.010225 0.56595 0.051809 0.56612 0.12416 0.58927 0.19545 0.60099 0.26019 0.62817 0.33381 1.1794 0.76991 0.82229 0.62026 0.82674 0.67254 1.5878 1.3791 2.2618 2.0393 1.954 1.7113 0.91182 0.72258 0.6599 0.4575 0.66713 0.3859 1.2456 0.49744 1.1609 0.23943 0.91346 0.010737 0.43664-0.22574 0.81572-0.18762 1.6898-0.49835 1.9133-0.66967 0.93972-0.38917 0.8961-0.42981 0.64204-0.3572 0.60329-0.37811 1.113-0.75467 1.095-0.66224 1.3612-0.75493 0.88452-0.43696 0.55398-0.22183 0.5589-0.17575 0.37715-0.088281 0.5988-0.086257 0.82998-0.005354 0.61108 0.066842 0.50699 0.097059 0.63046 0.19936 0.62725 0.31908 0.58562 0.3863 1.0873 0.781 0.4974 0.41463 0.43553 0.47973 0.39826 0.5498 1.7714 2.9119 0.44292 0.635 0.47394 0.57324 0.51681 0.48015 0.57472 0.34797 0.58175 0.17258 0.42236 0.046707 0.61951-0.021095 0.54556-0.091255 0.60158-0.16334 0.61469-0.21751 0.99782-0.43483 1.6077-0.85073 2.8574-1.714 1.3693-0.91202 0.70289-0.52177 0.68067-0.55542 0.45516-0.41035 0.20542-0.21893 4.2033-2.318 2.1234-1.2194 1.4085-0.86265 1.3563-0.89994 1.2735-0.94432 0.99754-0.84817 0.95755-0.94348 1.3723-1.5144 1.8831-2.2127 0.5813-0.7361 0.52922-0.79028 0.15365-0.28566 0.19287-0.44943 0.19918-0.749 0.095555-0.7838 0.025517-0.80592-0.094902-2.6708 0.029217-0.78831 0.096878-0.69591 0.12969-0.59801 0.23827-0.83917 0.37-0.82124 0.090685-0.14413 0.2857-0.3741 0.72367-0.66449 0.91047-0.5553 0.67817-0.29934 0.88013-0.29855 0.9355-0.23339 0.83876-0.14441 0.67866-0.072807 0.69579-0.03991 3.1292-0.074681 1.4252-0.057233 0.72853-0.055002 0.95047-0.10579 0.93572-0.14266 1.0826-0.2058 1.0504-0.24143 0.85209-0.23006 0.84415-0.26258 1.2256-0.44638 0.90556-0.37242 2.1845-0.99281 2.5355-1.3073 0.68808-0.32975 1.1356-0.48846 0.71676-0.26786 0.7732-0.24236 1.1325-0.27192 5.5902-1.1459 1.0795-0.18585 0.55074-0.054662 0.79839-0.010189 1.2076 0.1319 1.1897 0.30671 0.72742 0.28391 0.98521 0.49939 0.95213 0.58817 0.92322 0.64576 2.6417 2.0049 1.7872 1.3079 0.83949 0.71344 1.4746 1.4594 1.1812 1.1092 0.62132 0.63598 0.4137 0.52817 0.49454 0.81389 0.33058 0.89156 0.10918 0.90908-0.061102 1.2132-0.05285 0.41019-0.32842 1.8292-0.11766 0.92669-0.020115 0.58307 0.087731 1.1031 0.20972 1.068 0.24287 0.83323 0.18936 0.46356 0.25097 0.45376 0.38507 0.4947 0.3962 0.38642 0.43522 0.34628 0.55507 0.37005 1.0006 0.57266 1.1521 0.59529 1.9294 0.91054 1.3545 0.48507 1.449 0.35892 0.9446 0.1499 1.0367 0.1076 1.1655 0.068737" stroke="#bdc660"/>
    </defs>
    <g clip-path="url(#p964a3ec55d)">
     <use y="280.512" fill="#bdc660" stroke="#bdc660" xlink:href="#m86ebc60a5e"/>
    </g>
   </g>
  </g>
 </g>
 <defs>
  <clipPath id="p964a3ec55d">
   <rect x="7.2" y="7.2" width="318.12" height="266.11"/>
  </clipPath>
 </defs>
</svg>
