<?xml version="1.0" encoding="UTF-8"?>
<!DOCTYPE svg  PUBLIC '-//W3C//DTD SVG 1.1//EN'  'http://www.w3.org/Graphics/SVG/1.1/DTD/svg11.dtd'>
<svg width="197.04pt" height="280.51pt" version="1.1" viewBox="0 0 197.04 280.51" xmlns="http://www.w3.org/2000/svg" xmlns:xlink="http://www.w3.org/1999/xlink">
 <metadata>
  <rdf:RDF xmlns:cc="http://creativecommons.org/ns#" xmlns:dc="http://purl.org/dc/elements/1.1/" xmlns:rdf="http://www.w3.org/1999/02/22-rdf-syntax-ns#">
   <cc:Work>
    <dc:type rdf:resource="http://purl.org/dc/dcmitype/StillImage"/>
    <dc:date>2024-07-04T12:11:31.095144</dc:date>
    <dc:format>image/svg+xml</dc:format>
    <dc:creator>
     <cc:Agent>
      <dc:title>Matplotlib v3.7.1, https://matplotlib.org/</dc:title>
     </cc:Agent>
    </dc:creator>
   </cc:Work>
  </rdf:RDF>
 </metadata>
 <defs>
  <style type="text/css">*{stroke-linejoin: round; stroke-linecap: butt}</style>
 </defs>
 <g id="figure_1">
  <g id="patch_1">
   <path d="m0 280.51h197.04v-280.51h-197.04v280.51z" fill="none"/>
  </g>
  <g id="axes_1">
   <g id="PatchCollection_1">
    <defs>
     <path id="m63a473b005" d="m85.901-261.03-0.16077 0.74825-4.75e-4 0.85613 0.10161 1.0146 0.13036 0.72204 0.41419 1.4605 0.61093 1.3507 0.75339 1.0615 0.93313 0.75903 0.62524 0.2696 0.46371 0.11443 0.56721 0.066542 0.42651 0.008731 0.9605-0.072799 1.1916-0.19916 3.6556-0.72927 2.3278-0.31401 1.3065-0.11918 1.8934-0.10802 1.895-0.037419 3.1713 0.09786 2.2064 0.24556 1.2278 0.22526 1.9632 0.55485 1.7315 0.87946 1.0464 0.8758 0.41472 0.44167 0.52351 0.64246 0.60649 0.87162 0.63021 1.0604 0.7641 1.5083 0.58974 1.3306 0.70076 1.7546 0.69509 1.9011 0.83416 2.5283 0.86274 3.0797 0.7796 3.5852 0.67554 3.8625 1.6075 10.449 0.53148 2.74 0.30164 1.1727 0.42001 1.2386 0.41457 0.87321 0.4838 0.70863 0.59322 0.55453 0.43592 0.25365 0.57036 0.19294 0.48665 0.078717 0.88749 0.012812 0.84106-0.091011 0.58872-0.10962 1.2237-0.32511 1.6028-0.56288 2.0698-0.83635 2.8706-1.243 1.3807-0.50431 0.56145-0.1351 0.5484-0.061698 0.68834 0.075306 0.2898 0.10748 0.4132 0.25152 0.56008 0.5433 0.35647 0.4672 0.43947 0.68054 1.2026 1.9923 0.34544 0.49381 0.52514 0.63993 0.45152 0.4456 0.6442 0.48628 0.78946 0.40891 0.88491 0.3098 1.4905 0.32307 1.3234 0.16767 1.3523 0.10938 4.4933 0.2991 1.0877 0.13378 1.1245 0.20401 1.1077 0.30563 0.90662 0.37845 0.74541 0.46354 0.894 0.90967 0.60363 1.0268 0.32754 0.87917 0.21942 0.99663 0.079535 0.93842-0.040139 0.93387-0.094796 0.63216-0.71351 2.9783-0.1963 1.5276-0.025344 0.9784 0.038605 0.96427 0.2243 1.8213 0.39478 1.8638 0.511 1.882 2.8778 8.8504 1.0021 3.2278 0.66622 2.4679 0.84071 3.5807 0.62415 3.0404 0.7704 4.1912 2.4693 15.37 0.93276 5.2763 0.73693 3.3684 1.9717 7.1143 0.30365 1.271 0.20516 1.2534 0.51098 5.0257 0.58792 3.5593 0.30783 2.4938 0.17838 2.3722 0.072872 1.6056 0.043159 1.8028-0.00514 2.7827-0.10815 3.0328-0.14874 2.1146-0.22523 2.1837-0.19565 1.4408-0.42941 2.3694-0.25305 1.0926-0.39748 1.4324-0.48069 1.4331-1.4496 3.8815-0.51822 1.5462-0.64303 2.197-0.32856 1.3343-0.55692 2.8852-0.31111 2.3916-0.18236 2.7078-0.002231 2.173 0.076852 1.7137 0.3439 3.7581 0.50239 3.8352 0.83113 5.7135 1.5315 9.8644 0.78945 5.4956 0.55119 4.5188 0.59363 6.5444 0.29006 2.3551 0.55984 3.7759 0.4753 2.7971 0.45762 2.4462 0.38464 1.72-5.7967-0.25178-3.2222-0.21562-3.2913-0.32994-4.4005-0.62237-2.8877-0.53326-0.99106-0.22534-1.0625-0.30218-1.105-0.39006-3.1227-1.2364-1.3179-0.45346-0.64134-0.17723-0.65388-0.13832-0.7377-0.097988-0.75373-0.053065-3.0939-0.076147-0.75108-0.060802-1.193-0.22346-0.77595-0.27094-0.23758-0.12246-0.083566-0.091372-0.61282-0.31516-6.5762-3.8111-1.7471-0.93925-2.2174-1.0926-2.1564-0.90449-1.4062-0.47251-1.7556-0.43731-2.3268-0.39301-2.5429-0.28374-4.3848-0.31559-5.7319-0.26879-5.0342-0.13175-5.1548 0.029908-5.0218 0.15382-6.4234 0.34409-4.3935 0.31894-1.6726 0.060659-1.544-0.07737-3.2784-0.47717-1.9444-0.1622-1.5279 0.031153-1.212 0.12677-0.61329 0.11015 0.16017-2.8805 0.53234-15.349 0.11493-7.1766-0.044316-4.8248-0.24155-5.7565-0.27874-3.4121-0.33121-2.4187-0.4493-2.4388-0.53089-2.4502-0.91219-3.7751-1.9138-7.5109-1.8448-7.5601-0.67014-2.3096-0.3507-1.0491-0.40677-1.0263-0.94836-1.7946-1.1831-1.7549-1.3446-1.7244-1.4424-1.6993-2.8296-3.2041-1.3344-1.573-1.0681-1.3669-0.91994-1.3403-0.719-1.3026-0.44852-1.231-0.11301-1.3904 0.39546-1.2001 0.47108-0.56713 1.1347-0.77351 0.96063-0.42877 1.0578-0.37153 3.5811-1.0598 1.0953-0.39021 1.3014-0.63598 0.74846-0.57384 0.39056-0.47706 0.31628-0.71808 0.14548-1.125-0.089008-1.1927-0.15166-0.84623-0.29051-1.2146-2.4467-9.0775-0.34208-1.0539-0.51367-1.3713-0.55216-1.2999-1.2507-2.5434-0.64887-1.1478-0.69376-1.096-0.9435-1.2804-0.37252-0.44352-1.1422-1.1515-0.97911-0.79578-1.2545-0.88609-3.4047-2.2206-2.7364-2.0873-1.3638-0.96074-1.4917-0.85163-1.866-0.9912-2.53-1.495-1.1944-0.64504-1.2516-0.52341-0.72442-0.21032-0.70098-0.13661-1.6714-0.11358-1.7646 0.10675-1.6988 0.24472-1.7457 0.34144-6.6178 1.4813-2.2802 0.35898-1.8766 0.11517-1.7187-0.15305-1.4944-0.50398-1.3156-0.99848-0.94892-1.3084-0.55234-1.3865-0.098935-1.175 0.25164-0.53055 2.5891-3.5066 2.6254-3.6554 11.104-15.803 4.2273-6.2386 2.1886-3.452 2.403-4.0949 0.82314-1.4945 1.0595-2.0618 1.3189-2.9088 2.9158-7.228 1.088-2.514 1.1804-2.4821 1.7192-3.3034 2.3352-4.1024 2.78-4.5175 2.3133-3.4517 1.4282-1.9922 1.4832-1.9622 1.3103-1.641 1.3626-1.6047 2.1495-2.2987 1.5112-1.4406 1.7365-1.4741 1.2315-0.93331 1.5896-1.1067 0.87378-0.5753 1.8411-1.1141 1.892-1.0288 1.9033-0.94073 1.8636-0.84066 1.7558-0.71759 1.5543-0.55878 1.2702-0.35897 0.70978-0.054212 0.010337 0.19077" stroke="#bdc660"/>
    </defs>
    <g clip-path="url(#pf519cf921a)">
     <use y="280.512" fill="#bdc660" stroke="#bdc660" xlink:href="#m63a473b005"/>
    </g>
   </g>
  </g>
 </g>
 <defs>
  <clipPath id="pf519cf921a">
   <rect x="7.2" y="7.2" width="182.64" height="266.11"/>
  </clipPath>
 </defs>
</svg>
