<?xml version="1.0" encoding="UTF-8"?>
<!DOCTYPE svg  PUBLIC '-//W3C//DTD SVG 1.1//EN'  'http://www.w3.org/Graphics/SVG/1.1/DTD/svg11.dtd'>
<svg width="371.52pt" height="247.44pt" version="1.1" viewBox="0 0 371.52 247.44" xmlns="http://www.w3.org/2000/svg" xmlns:xlink="http://www.w3.org/1999/xlink">
 <metadata>
  <rdf:RDF xmlns:cc="http://creativecommons.org/ns#" xmlns:dc="http://purl.org/dc/elements/1.1/" xmlns:rdf="http://www.w3.org/1999/02/22-rdf-syntax-ns#">
   <cc:Work>
    <dc:type rdf:resource="http://purl.org/dc/dcmitype/StillImage"/>
    <dc:date>2024-07-04T12:11:36.033896</dc:date>
    <dc:format>image/svg+xml</dc:format>
    <dc:creator>
     <cc:Agent>
      <dc:title>Matplotlib v3.7.1, https://matplotlib.org/</dc:title>
     </cc:Agent>
    </dc:creator>
   </cc:Work>
  </rdf:RDF>
 </metadata>
 <defs>
  <style type="text/css">*{stroke-linejoin: round; stroke-linecap: butt}</style>
 </defs>
 <g id="figure_1">
  <g id="patch_1">
   <path d="m0 247.44h371.52v-247.44h-371.52v247.44z" fill="none"/>
  </g>
  <g id="axes_1">
   <g id="PatchCollection_1">
    <defs>
     <path id="m8883e92350" d="m180.73-181.09 0.62587 0.061185 0.74816-0.024014 0.69787-0.1121 1.162-0.371 0.71168-0.34062 0.44961-0.26375 0.65995-0.46958 0.84631-0.78494 0.36953-0.41674 0.56958-0.75903 0.53288-0.86743 0.59192-1.1656 2.6829-6.2298 0.78893-1.6432 0.53632-1.0013 0.57978-0.97212 0.52094-0.78038 0.50075-0.67596 0.79752-0.94977 1.2372-1.2309 1.3256-1.0603 1.3563-0.84001 0.89881-0.41854 0.81848-0.27423 0.50162-0.11311 0.52111-0.074538 0.68052-0.030329 0.6324 0.04558 1.0823 0.25762 0.93856 0.41524 0.72359 0.47818 0.16692 0.146 0.28096 0.44869 0.17776 0.14321 0.11023 0.31528 0.045387 0.75573-0.072096 1.0743-0.21124 1.1871-0.24606 0.82355-1.2236 3.1584-0.16942 0.64008-0.087771 0.94651 0.055839 0.67674 0.15868 0.56929 0.29904 0.60312 0.72396 1.1146 0.40374 0.72924 0.29111 0.80437 0.13332 0.96909-0.034668 3.2678 0.060107 1.1073 0.14624 1.0546 0.46104 1.8532 0.13692 0.89376-0.016057 0.67848-0.13862 0.67764-0.49797 1.075-0.74071 1.02-0.87205 0.95908-0.92564 0.95302-0.60795 0.73343-0.22781 0.32372-0.53454 0.97397-0.36786 1.0697-0.11134 0.55345-0.11552 1.2505-0.008422 0.94336 0.083376 3.0877-0.1652 3.5742 0.007452 1.2468 0.071961 0.92121 0.18427 1.3395 0.40043 1.9892 0.209 0.8461 0.79049 2.7427 0.93007 2.7639 3.1591 8.417 0.43505 1.3048 0.48964 1.651 0.64231 2.4282 1.2036 5.0013 0.51762 1.8987 0.59173 1.8728 1.2807 3.5904 0.28764 0.92847 0.17262 0.72571 0.064718 0.49187-0.14608 0.4722 0.1207 0.002003 0.64313-0.22272 3.8306-1.5848 1.7888-0.66824 2.0431-0.67468 2.2417-0.62099 2.101-0.44862 2.1872-0.31114 1.1647-0.096571 1.1592-0.048201 1.305 0.002921 0.95844 0.040907 2.1704 0.20297 6.1504 0.88873 2.3662 0.20737 1.3032 0.049411 1.2991 0.002221 2.212-0.090653 2.2113-0.15442 3.7606-0.36054 2.8235-0.37518 1.3812-0.2368 1.8645-0.39651 3.203-0.78092 1.2253-0.25978 1.0016-0.15902 1.5818-0.11756 2.6516-0.024426 1.3444-0.065346 1.7329-0.19695 0.90339-0.1554 1.0411-0.23573 0.91392-0.27281 1.1891-0.48023 1.3234-0.72453 3.2888-2.0579 1.5176-0.83536 1.1132-0.51795 1.6397-0.59711 1.6944-0.44744 1.7222-0.31074 1.7246-0.17834 1.7011-0.04185 1.65 0.10686 0.46028 0.060066 3.4825 0.59817 1.3551 0.16386 1.0489-0.005364 0.72606-0.10542 0.65543-0.1795 0.41725-0.15453 0.6255-0.28737 0.45205-0.24956 0.48107-0.30473 0.92061-0.69284 1.2946-1.1871 0.68721-0.7148 0.79669-0.8966 1.4306-1.7906 0.67321-0.9288 0.80768-1.2069 0.70858-1.1893 0.3628-0.69375 0.60546-1.3802 0.49458-1.5184 0.30255-1.3844 0.18094-1.4032 0.067386-1.5648-0.043789-1.5312-0.16661-1.8458-0.1951-1.3991-0.4314-2.1104-0.15686-0.97206 0.004025-0.97764 0.17349-0.88119 0.31865-0.71797 0.24037-0.30776 0.24873-0.19424 0.24394-0.099027 0.20076-0.02996 0.39846 0.049855 0.19665 0.069041 0.37662 0.21191 0.24086 0.1925 0.85081 0.91517 0.72899 0.88658 0.76046 1.0264 0.82146 1.2947 2.4331 4.3172 0.77791 1.1896 2.5957 3.4077 0.91284 1.416 0.60727 1.1369 1.0991 2.5822 0.60828 1.2691 0.42399 0.71281 0.87625 1.2472 0.80827 1.0075 0.75494 0.83856 1.2997 1.2384 0.92968 0.75 0.97306 0.67303 1.1668 0.65706 1.2085 0.50206 1.5697 0.40152 3.9059 0.64272 1.8848 0.18112 1.0211 0.032881 0.95928-0.028681 1.6369-0.2104 1.0701-0.23262-0.18994 0.73232-0.79203 2.5686-0.67601 2.4562-0.42615 1.1546-0.75745 1.4304-0.94432 1.3713-3.0664 3.8319-0.66793 0.98553-0.59948 1.1556-0.30002 0.89018-0.14158 0.92185-0.004667 0.92623 0.039725 0.49365 0.77039 5.1521 0.067111 0.66264 0.013442 0.52687-0.12313 1.2015-0.30302 1.2303-0.28657 0.81482-0.52381 1.098-0.53728 0.90894-0.74556 1.0862-0.72196 0.93035-1.3164 1.4895-1.2383 1.2127-1.6381 1.3598-1.2612 0.84227-1.5856 0.85022-1.0686 0.48814-2.8745 1.1942-0.88299 0.44084-0.74106 0.46914-0.64527 0.55396-0.41927 0.49643-0.32093 0.48991-0.55537 1.1342-0.45918 1.2716-1.5283 5.3289-0.60959 1.8174-0.49281 1.3274-0.45681 1.0732-0.52301 1.0411-0.48209 0.81465-0.45895 0.69522-1.1508 1.5014-1.2892 1.4397-1.3905 1.3939-1.4629 1.3607-1.5123 1.3375-6.2058 5.2669-1.5133 1.3299-1.4612 1.3511-1.3826 1.3835-1.2693 1.4308-1.1102 1.4975-0.89112 1.5898-0.2102 0.4887-0.35332 0.98684-0.39696 1.3818-0.48645 2.0778-0.50815 2.5009-0.43365 2.4274-0.42417 2.7701-0.21556 1.8006-0.27722 3.1643-0.10303 1.6149-0.15765 3.5421-0.10793 5.2874-0.021992 6.0249-0.035669 1.3077-0.10065 0.57539-0.12739-0.049503-0.62401 5.68e-4 -1.611 0.10533-1.8541 0.17045-2.5401 0.28746-5.4837 0.70011-1.8519 0.1073-1.0504-0.035218-1.4459-0.15859-1.1979-0.21814-1.0691-0.2497-1.8315-0.51202-1.3362-0.43738-1.8053-0.73834-1.2872-0.6473-0.955-0.55924-1.8072-1.2087-1.023-0.75076-0.92282-0.73439-0.64928-0.5635-1.1029-1.0456-1.1524-1.1695-0.95114-1.0102-1.6301-1.8452-1.9553-2.4596-0.86136-1.2199-1.9698-3.1257-0.73415-1.0361-0.37783-0.4582-0.80503-0.83078-0.70398-0.61896-0.79989-0.6231-1.1463-0.74584-1.1005-0.57225-0.67225-0.27522-0.80721-0.25973-0.90232-0.22977-1.0443-0.21607-1.6843-0.26676-1.2542-0.11421-2.2868-0.087846-2.9541-0.051205-1.2621 0.002635-1.2655 0.049386-1.3173 0.12876-1.5652 0.28162-0.5673 0.14457-1.0017 0.31769-1.1904 0.47154-4.8411 2.2988-1.5418 0.63048-1.2812 0.47196-1.3369 0.42902-1.3182 0.34623-1.5984 0.33362-1.2794 0.19168-1.0429 0.092532-1.2607 0.040838-4.585-0.16831-1.8871-0.037948-4.031-0.020468-2.4609 0.033945-1.8889 0.10345-1.8942 0.17666-2.2817 0.2625-3.0062 0.39926-1.2846 0.13244-1.7748 0.094736-1.334-0.031438-0.90355-0.1039-0.99602-0.2142-0.75223-0.2323-0.79505-0.30943-1.365-0.68389-1.5889-0.98835-1.3944-0.99592-1.3322-1.1692-3.8164-3.8807-1.3449-1.1898-1.4505-1.0167-1.641-0.79011-1.6991-0.50816-0.825-0.15282-1.2062-0.12248-1.4695-0.010635-1.4908 0.10431-0.78992 0.091986-1.7599 0.30186-3.1788 0.72303-2.2753 0.43222-2.1693 0.27225-1.8477 0.10815-1.0498-0.006081-1.2808-0.089824-1.4781-0.25673-0.68487-0.22104-0.49172-0.2821-0.13761-0.1721 0.039585-0.3039-0.11752-0.062188-0.073559-0.2261 0.003589-0.35894 0.12831-0.6285 0.24985-0.7617 0.6671-1.5865 0.51739-1.0877 2.7053-5.2571 0.44876-0.99343 0.43341-1.1735 0.79192-2.6817 0.76324-2.9923 0.54437-2.315 0.47116-2.4134 0.20243-1.3214 0.15219-1.3019 0.087898-1.0953 0.12668-2.4768 0.088103-1.2121 0.13042-1.1964 0.04683-1.1752-0.12318-1.0353-0.26255-1.0675-0.36987-1.0935-0.45161-1.1146-0.51308-1.1318-1.162-2.3255-3.7068-6.7514-1.8345-3.533-1.0995-2.3863-0.50905-1.2604-0.46692-1.3379-0.38205-1.3638-0.18987-0.88834-0.19658-1.3637-0.065451-0.98794 0.00851-0.98872 0.067454-0.7953 0.12237-0.7821 0.26744-1.1119 0.34637-1.0565 0.50769-1.2508 0.5377-1.1272 0.98827-1.7686 0.031279-0.08577-0.071905-0.19784-0.37305-0.39449-0.28385-0.21859-0.57675-0.3646-1.0654-0.52484-0.6945-0.2758-1.0046-0.33048-2.0589-0.48253-2.1945-0.28311-0.98648-0.056688-1.7718 0.001833-1.7739 0.11863-1.7627 0.21902-1.9802 0.35695-1.2633 0.28947-2.0886 0.58936-1.1842 0.39237-1.1672 0.4233-1.7249 0.68417-1.6896 0.73218-5.6787 2.7177-1.6888 0.73099-1.4096 0.56128-2.9794 1.0995-3.1252 1.0708-1.044 0.32194-4.5241 1.2535-1.8399 0.41274-2.0359 0.32553-2.1587 0.24013-3.7917 0.3082-1.8391 0.19969-2.0742 0.29335-3.1706 0.55929-1.9137 0.27247-1.8893 0.15955-1.0751 0.037489-2.1863-0.035925-2.1405-0.18108-1.6374-0.23846-1.3958-0.25205-10.387-2.0916-1.6968-0.41168-1.1876-0.40287-0.87904-0.42623-0.39803-0.25294-0.44101-0.36312-0.31574-0.36318-0.27933-0.47307-0.1291-0.31797-0.38406-1.5533-0.2319-0.54963-0.51064-0.61768-0.85366-0.59508-0.27442-0.13617-0.71149-0.24821-0.72412-0.10868-0.367-0.019968-1.8296 0.011832-1.437-0.053447-0.48828-0.05702-1.2218-0.22351-0.85093-0.21131-1.0098-0.30279-1.8039-0.65939-3.4909-1.5146-1.5-0.60978-0.74967-0.26135-1.46-0.35939-1.0045-0.093199-1.0067 0.010603-1.1002 0.089587-2.2605 0.27317-0.79781 0.067667-0.74883 0.014257-0.72506-0.068946-0.58636-0.16208-0.49959-0.27842-0.36933-0.36424-0.31694-0.50972-0.34735-0.98516-0.20464-1.0639-0.051559-0.44566-0.031082-0.80015 0.043756-0.56127 0.12337-0.52078 0.17724-0.30132 8.3395-8.0071 2.6718-2.6309 6.3807-6.3975 2.119-2.0722 1.254-1.1706 1.7301-1.5147 1.7724-1.4255 1.2704-0.9539 3.6668-2.6348 1.4371-1.1036 1.5142-1.2986 1.4409-1.4154 0.81482-0.89586 0.94608-1.1425 1.3984-1.9188 1.1989-1.8658 2.6713-4.5149 1.3-2.0982 1.3822-2.047 1.5005-2.0232 1.303-1.6312 1.3458-1.5976 2.5956-2.8905 1.2388-1.2967 1.2663-1.2639 1.299-1.2221 1.3996-1.2186 1.7621-1.369 1.6169-1.0854 1.6875-0.96969 1.9796-0.9546 1.1142-0.4603 1.1341-0.41605 2.1187-0.6475 2.5301-0.60462 3.7331-0.74535 2.3399-0.50672 1.7575-0.46704 1.7216-0.57177 1.1208-0.4506 0.82341-0.37797 1.5942-0.86493 0.99452-0.64397 0.55007-0.39627 0.80086-0.63441 0.76994-0.68197 1.2098-1.2404 0.968-1.1729 0.5931-0.81108 0.74403-1.1294 1.0146-1.7576 0.72096-1.409 0.58642-1.2462 2.4327-5.7002 1.0322-2.2861 0.76813-1.5213 0.36745-0.64534 0.32334-0.47195 0.20075-0.11643 1.0526-1.2795 1.5232-1.7157 1.1734-1.2106 0.90566-0.84809 1.3779-1.1688 0.94012-0.70679 0.98205-0.64251 1.0097-0.58059 1.0098-0.50692 1.0046-0.44536 2.5667-0.99723 3.1728-1.074 5.5743-1.7571 4.0915-1.486 1.9048 2.5933 0.85207 1.0349 2.282 2.6131 1.2285 1.5047 2.4254 3.1763 7.432 10.412 2.24 3.2691 1.5966 2.0673 0.77819 1.0707 0.85048 1.3945 3.0371 5.5891 3.5692 7.3495 1.2053 2.2589 0.61882 1.0257 0.73219 1.0465 0.95772 1.0146 0.87469 0.59141 0.73155 0.31985 0.88061 0.22206" stroke="#bdc660"/>
    </defs>
    <g clip-path="url(#pef550a962e)">
     <use y="247.43994" fill="#bdc660" stroke="#bdc660" xlink:href="#m8883e92350"/>
    </g>
   </g>
  </g>
 </g>
 <defs>
  <clipPath id="pef550a962e">
   <rect x="7.2" y="7.2" width="357.12" height="233.04"/>
  </clipPath>
 </defs>
</svg>
