<?xml version="1.0" encoding="UTF-8"?>
<!DOCTYPE svg  PUBLIC '-//W3C//DTD SVG 1.1//EN'  'http://www.w3.org/Graphics/SVG/1.1/DTD/svg11.dtd'>
<svg width="263.6pt" height="280.51pt" version="1.1" viewBox="0 0 263.6 280.51" xmlns="http://www.w3.org/2000/svg" xmlns:xlink="http://www.w3.org/1999/xlink">
 <metadata>
  <rdf:RDF xmlns:cc="http://creativecommons.org/ns#" xmlns:dc="http://purl.org/dc/elements/1.1/" xmlns:rdf="http://www.w3.org/1999/02/22-rdf-syntax-ns#">
   <cc:Work>
    <dc:type rdf:resource="http://purl.org/dc/dcmitype/StillImage"/>
    <dc:date>2024-07-04T12:11:29.929307</dc:date>
    <dc:format>image/svg+xml</dc:format>
    <dc:creator>
     <cc:Agent>
      <dc:title>Matplotlib v3.7.1, https://matplotlib.org/</dc:title>
     </cc:Agent>
    </dc:creator>
   </cc:Work>
  </rdf:RDF>
 </metadata>
 <defs>
  <style type="text/css">*{stroke-linejoin: round; stroke-linecap: butt}</style>
 </defs>
 <g id="figure_1">
  <g id="patch_1">
   <path d="m0 280.51h263.6v-280.51h-263.6v280.51z" fill="none"/>
  </g>
  <g id="axes_1">
   <g id="PatchCollection_1">
    <defs>
     <path id="mfaaf669d36" d="m151.6-241.56 0.83509 11.763 0.27825 2.7802 0.16605 1.3062 0.44917 2.8722 0.84944 4.7063 0.648 3.1723 1.7139 8.0237 0.52696 2.7413 0.39711 2.3591 0.32605 2.2574 0.35624 2.8927 0.23307 2.3133 0.58663 6.6484 0.26018 2.07 0.15212 0.92654 0.17049 0.85914 0.20841 0.85389 0.30257 0.96499 0.21744 0.55305 0.29109 0.60329 0.19606 0.33162 0.40546 0.52862 0.25504 0.23362 0.11753 0.062976 0.069911-0.016582 0.25173 0.06951 0.63276 0.40675 0.65698 0.53347 0.50833 0.48767 0.2673 0.29464 0.55386 0.71674 0.63672 1.0507 0.45176 0.96762 0.28114 0.76331 0.21563 0.74462 0.22579 1.1408 0.095183 0.98203 0.013969 0.79994-0.080101 1.3681-0.35082 3.2237-0.33121 2.0287-0.22789 1.07-0.15706 0.58478-0.1952 0.60524-0.27545 0.71935-0.571 1.2362-0.373 0.68876-0.50927 0.83177-0.6867 1.0034-2.802 3.8972-0.87741 1.3219-0.60241 0.98022-0.7469 1.3425-0.67663 1.3714-0.72391 1.6598-0.47977 1.2853-0.48092 1.4872-0.48557 1.7922-0.18317 1.0361-0.032146 0.45182 0.0092 0.48441 0.034823 0.31652 0.087291 0.41426 0.37692 0.87053 0.6214 0.7962 0.55691 0.484 0.52631 0.34805 1.4088 0.80451 0.75642 0.50103 3.5825 2.7092 1.0945 0.7931 1.0532 0.71346 1.5627 0.94783 0.65986 0.36151 1.4569 0.72736 0.90293 0.40671 1.1813 0.48745 2.0553 0.76698 0.86732 0.25595 0.84984 0.20512 1.2587 0.21222 0.83074 0.013831 0.94729-0.14332 0.83094-0.24323 1.0955-0.46244 0.68474-0.36785 0.66912-0.42431 0.62615-0.46574 0.81603-0.73176 0.78493-0.87003 0.82274-1.1034 0.79461-1.2202 0.70948-1.1653 0.8313-1.426 0.99868-1.8491 0.46631-0.94893 0.60223-1.3714 0.44435-1.1942 0.4654-1.4988 1.1893-4.4059 0.32063-0.9679 0.40898-1.0273 0.41258-0.83494 0.39627-0.65145 0.32011-0.43919 0.57993-0.63746 0.50257-0.42048 0.68675-0.42453 0.59422-0.26037 0.56454-0.17695 0.56038-0.12215 0.67794-0.093788 2.9513-0.15624 0.63762-0.084307 0.78368-0.20443 0.73824-0.32489 2.0721-1.1929 1.1659-0.60233 1.1229-0.50275 1.2753-0.45898 0.80712-0.22182 1.1312-0.22025 0.57975-0.068257 0.5432-0.029119 0.5573 0.016817 0.34622 0.042711 0.31138 0.067293 0.34401 0.11704 0.28796 0.14174 0.32638 0.22832 0.2602 0.2624 0.15466 0.20449 0.29121 0.5351 0.22618 0.6824 0.14072 0.79508 0.19214 2.6761 0.036789 1.1571-0.049629 1.1414-0.23177 1.5944-0.22232 1.1877-0.199 0.7443-0.24795 0.7741-1.1097 3.0418-0.56646 1.7606-0.21246 0.82222-0.16112 0.78112-0.11956 0.82385-0.063806 0.76125-0.011572 0.90633 0.086669 1.1864 0.10872 0.72172 0.25829 1.1255 0.31059 0.95491 0.35665 0.85432 0.50094 0.94926 0.36076 0.56061 0.70826 0.91748 0.69601 0.75156 0.84731 0.76183 0.75028 0.56611 0.78222 0.49243 0.89171 0.47503 1.0497 0.49374 1.5557 0.63406 1.5733 0.53558 2.457 0.73015 1.6933 0.46538 1.5798 0.36149 1.6439 0.27543 0.96746 0.11071 3.5058 0.22617 1.2523 0.15138 0.9072 0.17557 0.72825 0.20941 0.35375 0.15037 0.24656 0.14564 0.26036 0.27361-0.001064 0.21456-0.23129 0.04844-0.36802 0.23736-0.25758 0.2293-0.25117 0.28318-0.32127 0.4895-0.25976 0.53716-0.44547 1.1852-0.38946 1.2214-0.21245 0.97744-0.1463 0.89262-0.22106 1.8131-0.19966 2.4303-0.092847 1.8023-0.02385 2.1039 0.05324 1.4784 0.12328 1.3163 0.16607 1.1201 0.29214 1.4595 0.21038 0.82991 0.21226 0.69494 0.43245 1.1639 0.5326 1.1592 0.41932 0.77734 0.37019 0.60857 0.58664 0.84605 1.0617 1.3227 3.1145 3.4713 1.101 1.3305 0.84575 1.1828 0.60327 0.93412 1.0006 1.6778 0.75427 1.3834-1.389 0.66621-7.5793 3.4991-2.9565 1.2601-1.318 0.51598-1.2572 0.44633-1.4853 0.43879-1.5775 0.35196-4.9508 0.93471-1.2554 0.17237-0.96785 0.078858-1.2608 0.027374-0.93236-0.032466-1.2848-0.10309-1.1766-0.14331-2.3887-0.37013-6.1423-1.0247-4.8484-0.93013-1.6389-0.2199-1.9085-0.11529-2.8382 0.009256-2.917 0.10773-2.4686 0.17801-1.2559 0.061044-0.88305 0.020749-0.96886-0.042343-0.73072-0.128-0.38728-0.12964-0.49028-0.2627-0.54016-0.4149-0.82878-0.72617-0.51652-0.36423-0.33136-0.17233-0.61883-0.21924-0.38883-0.080658-0.42367-0.041236-0.624 0.032524-0.54496 0.13406-0.52684 0.25518-0.40832 0.28958-0.95382 0.84116-0.47611 0.50306-0.56132 0.83391-0.1865 0.42684-0.13504 0.40773-0.20126 0.9033-0.14968 1.1396-0.48669 5.5715-0.043673 0.89045-0.002959 1.0421 0.13492 3.3006-0.04204 0.68238-0.0832 0.47037-0.22312 0.7309-0.24752 0.56175-0.2986 0.53114-0.33606 0.47067-0.31745 0.34563-0.44334 0.35744-0.35764 0.1975-0.21727 0.078542-0.24491 0.04417-0.27908-0.015614-0.53689-0.26098-0.16415-0.15485-0.27098-0.33812-1.023-1.5037-0.8133-1.0395-1.0975-1.2505-0.84284-0.85349-0.78855-0.70583-0.83981-0.64724-0.6617-0.43261-0.94657-0.50877-0.68037-0.29105-0.62243-0.21386-0.50318-0.13636-0.82296-0.15866-1.3525-0.15112-2.0791-0.13122-1.0435-0.094033-0.67153-0.094666-0.93162-0.20062-1.1714-0.33995-1.6812-0.59414-1.0396-0.43232-2.2844-1.0616-0.81907-0.32478-0.92225-0.29741-1.0697-0.27877-0.94544-0.19232-3.7394-0.54756-1.1111-0.20224-0.81774-0.1948-0.87232-0.25424-1.1348-0.39739-1.1265-0.47246-0.81476-0.40175-1.1539-0.67383-0.89988-0.61998-0.58531-0.44793-0.91471-0.75842-4.59-4.1514-0.13026 0.60928-0.33128 1.045-0.42438 1.0152-0.41973 0.8297-0.52328 0.81375-0.38867 0.47051-0.39696 0.3831-0.46857 0.34651-0.50513 0.27636-0.6998 0.25671-0.51211 0.1084-0.68172 0.070663-1.751 0.054825-0.77905 0.054407-1.4564 0.19554-1.5678 0.32472-0.95691 0.2772-0.53863 0.19767-1.2129 0.5438-1.0551 0.55873-2.5086 1.4737-1.8124 1.0295-1.0125 0.65332-0.3725 0.28872-0.4085 0.35547-0.49049 0.48236-0.48936 0.54146-2.295 2.9184-1.1145 1.2921-0.87212 0.8581-0.61622 0.51017-0.85021 0.61948-0.83966 0.56719-1.2327 0.74384-2.6047 1.3709-2.8706 1.3534-2.9112 1.2354-0.91137 0.43773-0.79352 0.49403-0.51122 0.41426-0.35939 0.34982-0.43253 0.49252-0.47453 0.64682-1.3936 2.3225-0.69998 1.0327-1.0053 1.2988-0.82989 0.97588-1.0402 1.1006-0.72789 0.68658-0.55478 0.47806-1.1016 0.85784-1.8217 1.2961-0.69678 0.58628-0.33181 0.34671-0.3758 0.50663-0.18723 0.34974-0.21981 0.61212-0.14186 0.70409-0.21581 2.6365-0.21791 1.9979-0.19777 1.5427-0.20179 1.1363-0.31207 1.352-1.3067 5.0761-0.51522 2.3175-0.23196 0.72734-0.094548 0.189-0.097141 0.085111 2.65e-4 0.077701-0.1167 0.18418-0.30883 0.31067-0.39127 0.27637-0.57385 0.30863-2.2727 1.0167-0.58585 0.29092-1.33 0.80233-0.57501 0.25167-0.59344 0.18801-0.97856 0.1991-0.60207 0.017434-0.47227-0.07402-0.43244-0.17619-0.23321-0.16578-0.21177-0.20252-1.1391-1.492-0.23677-0.23609-0.31089-0.23407-0.25046-0.13997-0.25963-0.10693-0.27824-0.074249-0.27819-0.032318-0.35501 0.019245-1.0333 0.19796-0.34893 0.022262-0.44022-0.053121-0.31738-0.088104-0.30953-0.12385-0.43361-0.24447-0.37389-0.30469-0.8246-0.99846-0.3705-0.28884-0.25985-0.14148-0.2743-0.10839-0.42998-0.090408-0.2711-0.001328-0.26154 0.050914-0.42404 0.22422-0.38003 0.35246-0.3409 0.42603-0.58852 0.86092-0.34499 0.35841-0.46812 0.27976-0.62012 0.22013-0.99674 0.19622-0.7408 0.068524-0.31732 0.002706-0.16129-0.033362-0.047062-0.032749-0.033857-0.10097-0.069522-0.61544-0.028191-0.75938 0.012662-1.0153 0.10114-1.3787 0.22566-1.5013 0.22061-0.99751 0.33314-1.2103 1.4819-4.4527 0.38247-1.2387 0.25837-1.0141 0.2083-1.1497 0.078926-0.7611 0.018549-0.59914-0.069509-0.88-0.10773-0.53305-0.095104-0.321-0.19676-0.47786-0.1883-0.33979-0.38638-0.50209-0.41317-0.37072-0.46381-0.32349-0.46766-0.28128-1.5844-0.82987-0.67385-0.41682-0.91938-0.67643-0.6809-0.59016-0.59744-0.5988-0.42093-0.4848-0.35149-0.46507-0.35569-0.55104-0.49777-0.89773-0.60661-1.3504-0.25466-0.50734-0.23661-0.39404-0.36775-0.51096-0.31445-0.36883-0.50322-0.49214-0.448-0.35316-0.49234-0.31458-1.2792-0.67288-0.99376-0.58217-0.77189-0.5441-1.9885-1.5409-0.65273-0.46791-0.80704-0.49193-0.81942-0.37083-0.72285-0.19313-0.6768-0.052259-0.55112 0.032109-1.9099 0.33169-0.74388 0.059703-0.69601-0.11177-0.53157-0.28468-0.16552-0.1361-0.24536-0.25339-0.29462-0.40733-0.22974-0.42904-0.22698-0.58127-0.14675-0.5241-0.55835-2.6569-0.15265-0.55113-0.23396-0.67824-0.34283-0.72591-0.28399-0.41232-0.24889-0.20465-0.16623-0.025926-0.077986 0.031845 0.011008-0.3713-0.089512-1.2205-0.20771-1.7725-0.38027-1.9777-0.53757-2.301-0.24132-1.3298-0.043792-0.63575 0.019752-0.41479 0.072428-0.38856 0.083604-0.24836 0.29837-0.55026 0.32731-0.41956 0.37472-0.39785 0.49221-0.45149 0.3255-0.2486 0.42716-0.28321 1.1111-0.61426 2.8006-1.3461 1.2333-0.65893 0.85551-0.54358 0.96933-0.72715 0.6258-0.54156 0.46942-0.45887 0.3569-0.40346 0.40884-0.59332 0.18211-0.38529 0.11156-0.39892 0.030168-0.29579-0.009155-0.3008-0.08264-0.47758-0.11214-0.36811-0.28018-0.64118-0.42193-0.74583-0.33432-0.51841-0.96585-1.3238-0.78474-0.95799-1.6405-1.8625-0.74147-0.94141-0.27872-0.3985-0.48316-0.77928-0.36414-0.68604-0.32137-0.70198-0.28315-0.77995-0.16861-0.67-0.14358-0.96572-0.042709-0.61991-0.008977-0.84398 0.10288-2.4495 0.18264 0.15738 0.1717 0.089473 0.4857 0.13877 0.32847 0.036639 0.30492 3e-6 0.57988-0.096246 0.27958-0.10287 0.21581-0.11478 0.18891-0.1359 0.27049-0.2843 0.24992-0.43602 0.14335-0.44706 0.079734-0.54214 0.013573-0.36106-0.012411-0.39646-0.086482-0.74341-0.092778-0.47096-0.19118-0.72154-0.79015-2.3605-0.20712-0.76339-0.1962-1.089-0.073937-1.1117 0.0296-0.71763 0.093761-0.71246 0.1254-0.58396 0.15131-0.51943 0.2687-0.72983 0.78504-1.8259 0.21203-0.58669 0.18974-0.84235 0.037133-0.42403-0.005647-0.35467-0.033484-0.27547-0.11378-0.40875-0.1271-0.25894-0.16536-0.22862-0.22273-0.21302-0.30232-0.20314-0.37437-0.17836-0.44785-0.15372-0.64864-0.15835-2.9215-0.41545-1.1955-0.26262-1.0883-0.3675-0.79722-0.42814-0.28427-0.21016-0.33181-0.30626-0.48373-0.60671-0.18542-0.30064-0.2662-0.52432-0.2225-0.55499-0.27613-0.91804-0.23419-1.0236-0.25955-1.3629-0.5523-3.6826-0.12156-1.4334-0.1529-2.6268-0.33036-3.0225-0.023189-0.85338 0.032509-0.59249 0.15619-1.1279 0.27377-1.2522 1.4449-5.4946 0.22631-0.79064 0.29277-0.85239 0.63772-1.5074 0.31013-0.65098 0.062832-0.43947 0.34354-3.8928 0.3967-3.6129 0.48556-3.8959 0.58368-4.1606 0.50512-3.172 0.67262-3.6237 0.5378-2.3381 0.43725-1.4986 0.29958-0.86731 0.72048-1.7627 0.37556-0.79304 0.46573-0.89282 0.66492-1.1153 0.57587-0.81364 0.46163-0.55174 0.38377-0.40986 0.78207-0.74194 1.3652-1.1526 0.69342-0.62567 0.50714-0.52837 0.53463-0.67002 0.43022-0.66476 0.31808-0.59134 0.31251-0.71325 0.17693-0.51114 0.18291-0.74297 0.07338-0.557 0.009161-0.57777-0.096628-0.69346-0.22706-0.67406-0.22948-0.45491-0.50373-0.73289-0.56818-0.62163-0.37819-0.34713-0.67926-0.53548-0.36539-0.25019-0.4832-0.29436-0.61037-0.31525-0.43637-0.18909-1.2142-0.41171-2.4841-0.6231-1.1742-0.34299-1.0926-0.41343-0.45633-0.22961-0.32351-0.20351-0.29075-0.2312-0.29082-0.31691-0.18269-0.2874-0.094206-0.21948-0.091242-0.49679 0.015784-0.35777 0.18808-0.70405 0.23667-0.48786 0.37929-0.58954 0.40954-0.53096 0.6108-0.70276 2.2255-2.3436 0.94186-1.0522 0.81701-0.98024 2.0406-2.5758 1.0009-1.1905 1.0403-1.1759 0.54579-0.56775 0.67136-0.65709 1.1979-1.1007 2.6744-2.3064 4.2372-3.4305 3.3876-2.6143 0.16037-0.04868 0.33474 0.15728 0.5955 0.39716 0.90398 0.70845 1.6522 1.4552 3.9412 3.7256 1.7837 1.6315 1.6243 1.3541 1.01 0.74445 0.78789 0.50996 0.68099 0.37944 0.66767 0.30845 0.94237 0.31703 0.55765 0.11455 0.56325 0.049245 0.41982-0.015485 0.34857-0.053789 0.75298-0.26392 0.69642-0.42132 0.71394-0.5971 0.76839-0.8094 0.60525-0.74227 0.88637-1.2168 0.74689-1.1123 2.7174-4.2552 0.8239-1.2286 1.1382-1.5676 0.45796-0.57733 0.83198-0.95621 0.41834-0.43464 0.67937-0.6377 0.68082-0.56638 0.69113-0.52157 0.84107-0.5853 1.4328-0.92398 2.9759-1.8012 1.1484-0.64014 1.5156-0.76605 0.8744-0.38882 1.2681-0.47522 1.3498-0.37444 0.75396-0.14679 0.96956-0.11668 0.90548-0.024861 1.0727 0.09856 0.7219 0.1665 0.65668 0.23505 0.43303 0.19596 0.85014 0.4698 0.82381 0.5498 1.4527 1.0734 0.58741 0.40168 0.67288 0.37812 0.7885 0.26632 0.23219 0.032514 0.43887 0.00702 0.55944-0.07955 0.76842-0.2429 0.71171-0.34289 0.68734-0.43023 1.4947-1.108 0.8683-0.49875 0.93323-0.4354 0.70314-0.28374 0.86878-0.26755 0.42326-0.10181 2.4114-0.48695 0.69931-0.19907 0.95614-0.36883 1.9186-0.96776 1.8341-0.76992 0.79406-0.37708 0.41731-0.24062 0.52412-0.37251 0.29061-0.2544 0.60806-0.65289 0.81838-1.1057 0.65577-1.0639 1.1583-2.023 0.45847-0.68822 0.48249-0.61705 0.65055-0.71536 1.1205-1.0619 1.3283-1.1245 1.1907-0.92325 1.323-0.94024 0.89197-0.5928 1.5912-0.97938 0.91469-0.51671 1.4696-0.76138 3.3163-1.5858 1.7183-0.85212 2.1837-1.1968 1.3113-0.80301 1.4113-0.93881 1.5692-1.1361 0.53948-0.44627 0.076284-0.11133 1.0986 1.5769 1.6217 2.5359 0.22712 0.28816 0.58913 0.61975 0.42058 0.5602 1.1588 1.9062 0.91584 1.676 0.1545 0.1638 0.25812 0.60403 0.1952 0.60258 0.25246 0.97446 0.22891 1.0975 0.34723 2.146 0.23772 1.9153 0.28681 2.9896" stroke="#bdc660"/>
    </defs>
    <g clip-path="url(#p66a71cf23e)">
     <use y="280.512" fill="#bdc660" stroke="#bdc660" xlink:href="#mfaaf669d36"/>
    </g>
   </g>
  </g>
 </g>
 <defs>
  <clipPath id="p66a71cf23e">
   <rect x="7.2" y="7.2" width="249.2" height="266.11"/>
  </clipPath>
 </defs>
</svg>
