<?xml version="1.0" encoding="UTF-8"?>
<!DOCTYPE svg  PUBLIC '-//W3C//DTD SVG 1.1//EN'  'http://www.w3.org/Graphics/SVG/1.1/DTD/svg11.dtd'>
<svg width="219.99pt" height="280.51pt" version="1.1" viewBox="0 0 219.99 280.51" xmlns="http://www.w3.org/2000/svg" xmlns:xlink="http://www.w3.org/1999/xlink">
 <metadata>
  <rdf:RDF xmlns:cc="http://creativecommons.org/ns#" xmlns:dc="http://purl.org/dc/elements/1.1/" xmlns:rdf="http://www.w3.org/1999/02/22-rdf-syntax-ns#">
   <cc:Work>
    <dc:type rdf:resource="http://purl.org/dc/dcmitype/StillImage"/>
    <dc:date>2024-07-04T12:11:28.615527</dc:date>
    <dc:format>image/svg+xml</dc:format>
    <dc:creator>
     <cc:Agent>
      <dc:title>Matplotlib v3.7.1, https://matplotlib.org/</dc:title>
     </cc:Agent>
    </dc:creator>
   </cc:Work>
  </rdf:RDF>
 </metadata>
 <defs>
  <style type="text/css">*{stroke-linejoin: round; stroke-linecap: butt}</style>
 </defs>
 <g id="figure_1">
  <g id="patch_1">
   <path d="m0 280.51h219.99v-280.51h-219.99v280.51z" fill="none"/>
  </g>
  <g id="axes_1">
   <g id="PatchCollection_1">
    <defs>
     <path id="mca05929b68" d="m175.84-172.02-0.099301 0.39869-0.2035 0.53164-0.30874 0.57855-0.20022 0.31454-0.67291 0.9223-3.0017 3.6468-1.5277 1.9032-0.056809 0.011393-0.12165 0.1694-0.073739 0.24871-0.083696 0.61701-0.019818 0.44911 0.013014 0.87949 0.13587 2.3848 0.010483 0.78332-0.022895 0.55702-0.081143 0.75065-0.24613 1.161-0.34867 1.046-0.41909 0.93871-0.1945 0.36998-0.60106 0.99628-0.86423 1.2352-1.5503 2.0616-0.7162 1.0134-2.389 3.6954-0.8732 1.261-0.46733 0.60478-0.39912 0.46406-0.8353 0.83063-0.49424 0.42487-0.74636 0.57534-2.1928 1.5159-1.3874 0.99251-0.67372 0.50575-0.64506 0.53194-0.48558 0.45763-0.26964 0.28538-0.42644 0.51648-0.24899 0.35939-0.21629 0.3811-0.20846 0.56486-0.04014 0.25015-0.003401 0.32463 0.061599 0.35537 0.12091 0.33441 0.15968 0.3109 0.22664 0.36373 0.23699 0.32203 1.2463 1.5468 1.7253 1.9171 0.77046 0.73055 0.60823 0.47171 0.60846 0.35301 0.43154 0.19041 0.4333 0.14025 0.57925 0.11522 0.66841 0.051833 0.6341-0.01398 0.67112-0.073572 0.57162-0.10246 1.0247-0.25029 2.1225-0.63223 0.84171-0.22228 1.1014-0.21484 0.9431-0.10316 0.95712-0.009335 2.9973 0.1112 1.1933 0.005031 2.8-0.051606 0.99805 0.056388 0.57475 0.078251 0.54008 0.11931 0.5198 0.17323 0.52787 0.24539 0.47073 0.28958 0.41791 0.33639 0.34611 0.35808 0.25735 0.33182 0.2803 0.45507 0.19228 0.38568 0.24602 0.59403 0.22368 0.65828 0.1489 0.53792 0.24243 1.215 0.15555 1.2725 0.091544 1.366 0.0339 1.2907-0.007637 2.7333 0.053735 1.1799 0.11084 0.98995 0.24459 1.223 0.28155 0.95262 0.45457 1.1889 1.9762 4.3494 1.0274 2.4052 0.33182 0.90095 0.24022 0.76468 0.2588 1.071 0.18189 1.3031 0.15442 2.156 0.047064 1.5204 0.011672 2.6032 0.017205 0.64669 0.046004 0.34698-0.17454 0.016936-0.30023 0.17407-0.44129 0.43323-0.42962 0.61033-0.31619 0.61267-0.30239 0.80934-0.15743 0.58517-0.12307 0.62973-0.25404 1.9961-0.30677 1.687-0.36243 1.4816-0.25516 0.87998-0.40345 1.2196-0.64906 1.7403-2.2753 5.8319-1.2084 3.2335-0.34765 0.86698-0.46644 1.0554-0.64084 1.2992-1.0016 1.8561-1.3876 2.4078-2.2222 3.6524-0.75529 1.3019-0.3979 0.78052-0.43526 1.0446-0.7117 2.4448-0.19226 0.53355-0.50728 1.0262-0.70952 1.0558-4.3648 5.3613-0.85467 0.92268-0.84075 0.73684-0.72202 0.46678-0.38506 0.179-1.0018 0.25809-0.70834 0.060134-1.4989 0.011649-0.80608 0.061726-0.89588 0.19732-0.7138 0.24344-0.79146 0.3369-1.2839 0.64882-0.77892 0.47846-0.65798 0.47658-0.51532 0.41807-0.62875 0.55386-1.0913 1.032-0.64423 0.67031-0.23451 0.27877-0.24626 0.32912-0.43631 0.7066-1.1706 2.253-0.5545 0.871-0.6933 0.85206-1.2678 1.4563-0.52026 0.65436-0.343 0.47117-0.22129 0.3562-0.091904-0.015884-0.56735-0.38417-2.0412-1.5219-1.0943-0.7765-4.1071-2.8121-0.71464-0.43535-0.58513-0.27586-0.38113-0.1242-0.2055-0.045486-0.53563-0.045502-0.41979 0.03385-0.46834 0.10142-0.51849 0.17602-0.9569 0.43978-0.55053 0.298-0.52616 0.31434-1.0086 0.70462-0.9363 0.80366-0.43322 0.4258-0.85323 0.94028-0.55779 0.68906-0.53441 0.71531-0.50794 0.73036-0.95775 1.5159-0.87479 1.5487-1.9235 3.6638-0.72368 1.2607-0.67365 1.073-0.28921 0.36477-0.30493 0.27428-0.18755 0.10977-0.19918 0.071025-0.36604 0.038951-0.40785-0.044444-0.53536-0.14031-0.75684-0.29463-0.80208-0.39019-0.89292-0.50405-0.71628-0.46942-0.87251-0.66267-0.79794-0.6944-0.85448-0.8473-0.5129-0.56759-0.72094-0.88332-1.186-1.5875-1.2843-1.8048-0.9759-1.5003-1.3254-2.2941-0.13847-0.22213-0.060422-0.056606 0.30602-0.11098 0.15628-0.406-0.069785-0.77218-0.23545-0.74059-0.36665-0.82276-0.6522-1.1874-0.62096-1.0022-1.0369-1.5446-1.6276-2.2632-4.6542-6.1861-3.8336-5.1978-4.6127-5.9875-0.90744-1.138-1.7871-2.1474-3.2566-3.9949-2.4629-3.1038-1.2475-1.4814-0.85345-0.86506-1.0841-0.96907-3.3737-2.7993-1.8303-1.5762-0.56414-0.56788-0.50722-0.59097-1.4965-1.9617-0.69297-0.78439-0.48858-0.41947-0.52053-0.3155-0.42504-0.15878-0.4362-0.097189-0.51896-0.061445-1.799-0.084299-0.87079-0.088695-0.70363-0.1235-0.61706-0.1578-1.149-0.38806-0.8748-0.38921-1.1267-0.60134-0.73484-0.43843-2.2315-1.4408-0.68112-0.32647-0.92065-0.32302-0.42591-0.20268-0.41919-0.35605-0.43089-0.70024-0.36704-0.93444-0.88234-2.7764-0.79388-2.2599-0.39049-0.98152-0.40837-0.9196-0.42048-0.86679-0.80991-1.5121-0.47893-0.75306-0.37474-0.40309-0.37981-0.275-0.3999-0.21148-0.43941-0.18607-0.27349-0.086251-0.59189-0.071163-0.30129 0.033754-0.24852 0.063737-0.24761 0.10039-0.43459 0.27268-0.39772 0.36932-0.44378 0.59278-0.27993 0.55146-0.19387 0.59809-0.24209 1.1288-0.082629 0.58194-0.18639 1.9373-0.041135 0.20209-0.11912 0.33714-0.17776 0.21947-0.1568 0.069927-0.19838 0.010342-0.23198-0.051264-0.23538-0.096875-0.4355-0.26923-0.24741-0.20918-0.39981-0.43417-0.59377-0.80346-0.6116-0.94838-2.2219-3.6698-0.56936-0.88322-0.58544-0.83342-0.58158-0.72121-1.6205-1.7475-2.5103-2.9038-0.88734-0.90378-0.96529-0.81445-0.99448-0.78171-2.895-2.3671-0.684-0.60004-0.82855-0.78347-0.81632-0.87806-1.0273-1.1608-1.3558-1.4418-0.83927-0.81478-0.83947-0.69336-0.81966-0.50341-0.6891-0.24688-0.54994-0.046552-0.30484 0.16272-0.23168-0.23578-0.29931-0.60987-0.21521-0.58654-0.29736-1.2072-0.097913-0.8578-0.001841-0.94202 0.036203-0.52254 0.14177-1.129 0.28374-1.476 0.26746-1.0217 0.17509-0.55556 0.33626-0.90937 0.32257-0.74302 0.50052-0.99761 0.50524-0.8879 0.62049-1.0014 1.9745-3.0601 0.86582-1.4226 0.533-0.96198 0.33233-0.67094 0.19058-0.50184 0.16428-0.66156 0.12482-0.88225 0.081078-0.97812 0.050291-1.1452 0.009111-1.3951-0.075845-2.2131-0.16119-2.8461-0.032294-1.906 0.022657-0.57027 0.086232-0.84468 0.078706-0.43181 0.10968-0.4213 0.14893-0.40357 0.3138-0.56739 0.23697-0.32342 0.57754-0.65716 0.50418-0.51187 0.55522-0.41804 0.42774-0.1971 0.28974-0.08625 0.38949-0.065227 0.80189 0.012915 1.2558 0.15589 0.80003 0.066883 1.2031 0.045392 1.4678-0.019998 1.7695-0.13188 1.392-0.18427 1.1437-0.2491 0.84376-0.27124 0.71386-0.2916 1.0911-0.57141 0.56546-0.38767 0.92114-0.74849 0.86153-0.76176 0.98558-0.96908 0.41976-0.47257 0.54226-0.70642 0.35296-0.55264 0.2241-0.41219 0.23852-0.5196 0.19359-0.51921 0.2827-1.0701 0.56992-3.3309 0.29591-1.1364 0.78933-2.5338 0.16935-0.72381 0.15509-0.91969 0.071262-0.85411 0.007209-0.93094-0.063594-1.7704 0.019003-1.1969 0.079058-0.51362 0.058124-0.19254 0.069197-0.14114 0.06784-0.072509 0.07795-0.020466 0.14727 0.016224 0.42623 0.19646 1.9409 1.0846 1.0132 0.52519 1.151 0.51247 0.79947 0.28692 0.82433 0.21754 0.3947 0.070573 0.64444 0.056666 0.38825-0.009466 0.32523-0.039704 0.53142-0.14634 0.18279-0.081056 0.32789-0.19825 0.30645-0.25765 0.28736-0.31621 0.36287-0.51586 0.22005-0.37887 0.52363-1.073 0.2802-0.64179 1.1116-2.7885 0.48031-0.9573 0.57816-0.85639 0.40483-0.44715 0.44316-0.40571 0.49862-0.38685 0.61633-0.38224 0.9725-0.46013 1.1451-0.40059 0.97603-0.24954 1.0466-0.1811 1.4329-0.13301 1.353-0.02013 1.2681 0.060436 0.955 0.11406 0.98766 0.16392 1.1218 0.2335 0.95943 0.25348 1.0419 0.3451 0.966 0.36489 2.6883 1.1461 1.2001 0.46497 1.3312 0.42831 1.0765 0.24356 0.59095 0.073884 1.1567 0.042611 4.0328-0.14092 1.5425-0.009677 1.0878 0.046284 0.63121 0.054279 0.64977 0.083484 0.70249 0.15883 0.29346 0.11113 0.21193 0.11246 0.23961 0.18601 0.19731 0.24533 0.11159 0.21279 0.13705 0.46808 0.13593 1.0246 0.12971 0.60598 0.23876 0.73576 0.30628 0.693 0.28767 0.51204 0.4219 0.59794 0.30749 0.357 0.33775 0.33047 0.31046 0.2527 0.26186 0.18 0.66759 0.36348 0.40858 0.17626 0.9114 0.31562 1.3595 0.36051 3.0105 0.65367 1.1663 0.29837 0.55967 0.17924 1.2691 0.48705 0.68741 0.22709 0.56568 0.12073 0.25543 0.03013 0.4725 0.014571 0.73267-0.06126 0.59856-0.10607 0.77474-0.1834 3.342-0.92394 1.6969-0.39402 0.66943-0.11311 0.7815-0.087138 0.79053-0.032034 0.73932 0.021572 0.8425 0.080533 0.8561 0.13381 0.77432 0.1673 0.96908 0.27804 0.68182 0.23936 0.74607 0.29692 2.5124 1.1403 0.53369 0.2106 0.68235 0.22253 0.59331 0.15104 0.67728 0.12158 0.80242 0.067987 0.60015-7.66e-4 0.76795-0.063856 0.6705-0.11075 0.91596-0.22913 0.7279-0.24167 0.76488-0.3047 1.1044-0.52435 1.0431-0.57268 0.69013-0.41537 1.6284-1.0807 1.6191-1.1951 2.2874-1.8047 3.9884-3.2924 0.33607-0.26259 0.072526-0.029774-0.38269-0.64306-1.5689-2.3526-0.6435-0.88897-0.49798-0.6311-0.48042-0.54792-0.42533-0.42778-0.42143-0.37397-0.83516-0.61844-0.6907-0.42265-1.1258-0.63469-0.61402-0.40249-0.45777-0.42037-0.31577-0.49078-0.16482-0.53389-0.009455-0.58394 0.19002-0.65412 0.60293-1.1876 0.24141-0.57633 0.083033-0.28584 0.093599-0.52065 0.03944-0.52979-0.003306-0.55224-0.040709-0.56985-0.090605-0.6952-0.11627-0.64641-0.45439-1.973-0.076935-0.42773-0.031477-0.31959 0.019992-0.61301 0.17386-0.71754 0.21537-0.47214 0.23783-0.39464 0.6029-0.79357 1.7695-2.0112 0.77193-0.99284 0.31675-0.47344 0.33311-0.56837 0.28663-0.57667 0.27067-0.66675 0.17237-0.53141 0.1683-0.68031 0.24493-1.5852 0.084405-1.3193 0.004645-0.54935-0.15112-4.0805 0.044451-1.1117 0.11739-0.82736 0.13274-0.53505 0.27197-0.74914 1.1722-2.3987 0.46347-1.1104 0.29289-0.94616 0.13185-0.60916 0.079062-0.60271 0.018214-0.46301-0.015416-0.40715-0.1115-0.74364-0.17541-0.57401-0.13984-0.32421-0.27852-0.51278-0.28786-0.44088-0.76628-0.98377-0.60297-0.68202-1.5258-1.6002-0.33634-0.39196-0.22205-0.31054-0.39597-0.75886-0.18584-0.57229-0.10169-0.60202-0.009545-0.54399 0.075398-0.56824 0.14323-0.52287 0.15418-0.39875 0.21174-0.44147 0.40573-0.70224 0.44433-0.67474 2.8914-4.0352 2.0442-3.1091 0.84193-1.1993 0.3647-0.47918 0.58832-0.69413 0.54646-0.55183 0.24199-0.17618 0.004218-0.094598 0.1247-0.22644 0.38048-0.3789 0.48611-0.33046 0.56889-0.26562 0.34088-0.10825 0.46901-0.099843 0.68235-0.08048 1.3265-0.10578 0.60658-0.08508 0.43539-0.092705 0.62937-0.18264 0.93473-0.34156 0.95104-0.40856 0.78358-0.39807 0.44715-0.2606 0.67859-0.4458 0.50444-0.38073 0.66377-0.54819 0.73093-0.66134 1.7819-1.7429 0.80447-0.72209 0.51014-0.42196 0.71738-0.53615 0.48309-0.3184 1.1043-0.61442 0.79149-0.36251 0.72184-0.29701 0.8512-0.3066 0.56426-0.16154 0.64514-0.13161 0.59083-0.062477 0.3371-0.003107 0.74893 0.09257 0.72155 0.21529 0.67876 0.32295 0.61762 0.42281 0.53431 0.52177 0.29768 0.40349 0.25104 0.42761 0.39119 0.79669 1.2733 2.927 0.6373 1.3937 0.50563 0.99706 0.45883 0.81402 0.75621 1.1938 2.855 4.0312 0.89044 1.3374 0.4481 0.71622 0.67241 1.1522 0.46826 0.88342 0.64451 1.3243 0.18063 0.31674 1.1277 1.1861 0.97216 1.0774 0.90908 1.1302 0.48182 0.70092 0.36136 0.61516 0.54474 1.113 0.62183 1.4431 1.017 2.4746 0.36926 0.7815 0.46455 0.83058 0.27543 0.42957 0.29139 0.41567 0.45047 0.57469 0.2737 0.30937 0.53148 0.51065 0.25586 0.20192 0.35562 0.23364 0.38676 0.19771 0.39192 0.14982 0.63602 0.16646 2.1271 0.33884 0.88634 0.19811 0.4053 0.13851 0.38928 0.17588 0.35301 0.20689 0.33156 0.24161 0.30735 0.27229 0.31985 0.34884 0.27213 0.37892 0.21234 0.40124 0.12035 0.33373 0.071728 0.32711 0.025164 0.30304-0.011878 0.25592-0.037354 0.17862-0.045853 0.061995-0.077277 0.028318-0.20304 0.22008-0.41119 0.65699-0.28014 0.567-0.37694 0.96474-0.1713 0.54335-0.21422 0.84628-0.56914 3.4133-0.18746 0.7867-0.23452 0.76264-0.27035 0.72534-0.40806 0.93227-1.0496 2.1575-0.39152 1.0363-0.6474 1.59-0.39339 1.0517-0.20673 0.63344-0.15455 0.57316-0.067057 0.38591-0.016052 0.65191 0.10369 0.74713 0.30186 1.0354 0.093273 0.48155 0.018038 0.43131-0.062455 0.63532-0.11175 0.51576-0.11798 0.4092-0.30493 0.83933-0.40421 0.88518-0.45095 0.80855-0.28587 0.4486-0.8734 1.1934-0.94698 1.0914-0.61039 0.59864-0.42231 0.3582-0.41426 0.30935-0.51684 0.33439-0.50664 0.28264-0.80893 0.38386-3.7201 1.5489-1.5978 0.73515-0.88145 0.33988-1.0931 0.35582-0.72967 0.27152-0.39085 0.18656-0.41225 0.24414-0.52305 0.40311-0.43601 0.44355-0.30614 0.39242-0.31031 0.48228-1.4035 2.6327-0.48926 0.80254-0.16502 0.22916-0.1071 0.096322-1.125 1.2553-0.53725 0.72308-0.38164 0.68532-0.14479 0.355-0.10945 0.36118-0.13123 0.73603-0.044273 0.89946 0.051589 1.2771 0.21697 2.7471 0.010375 0.85636-0.029128 0.42098-0.061797 0.40816" stroke="#bdc660"/>
    </defs>
    <g clip-path="url(#pe7fbeb33b7)">
     <use y="280.512" fill="#bdc660" stroke="#bdc660" xlink:href="#mca05929b68"/>
    </g>
   </g>
  </g>
 </g>
 <defs>
  <clipPath id="pe7fbeb33b7">
   <rect x="7.2" y="7.2" width="205.59" height="266.11"/>
  </clipPath>
 </defs>
</svg>
