<?xml version="1.0" encoding="UTF-8"?>
<!DOCTYPE svg  PUBLIC '-//W3C//DTD SVG 1.1//EN'  'http://www.w3.org/Graphics/SVG/1.1/DTD/svg11.dtd'>
<svg width="265.4pt" height="280.51pt" version="1.1" viewBox="0 0 265.4 280.51" xmlns="http://www.w3.org/2000/svg" xmlns:xlink="http://www.w3.org/1999/xlink">
 <metadata>
  <rdf:RDF xmlns:cc="http://creativecommons.org/ns#" xmlns:dc="http://purl.org/dc/elements/1.1/" xmlns:rdf="http://www.w3.org/1999/02/22-rdf-syntax-ns#">
   <cc:Work>
    <dc:type rdf:resource="http://purl.org/dc/dcmitype/StillImage"/>
    <dc:date>2024-07-04T12:11:31.639776</dc:date>
    <dc:format>image/svg+xml</dc:format>
    <dc:creator>
     <cc:Agent>
      <dc:title>Matplotlib v3.7.1, https://matplotlib.org/</dc:title>
     </cc:Agent>
    </dc:creator>
   </cc:Work>
  </rdf:RDF>
 </metadata>
 <defs>
  <style type="text/css">*{stroke-linejoin: round; stroke-linecap: butt}</style>
 </defs>
 <g id="figure_1">
  <g id="patch_1">
   <path d="m-0 280.51h265.4v-280.51h-265.4v280.51z" fill="none"/>
  </g>
  <g id="axes_1">
   <g id="PatchCollection_1">
    <defs>
     <path id="mb66074de4c" d="m233.2-247.46 0.61857 0.042721 0.31369-0.045424 0.56004-0.19169 0.37416-0.1992 0.36653-0.24561 0.39546-0.31868 0.38222-0.36212 0.35374-0.38668 0.33665-0.41909 0.36534-0.52012 0.33927-0.5528 0.32943-0.61332 0.30073-0.63656 0.98097-2.4442 0.29589-0.66537 0.29729-0.56628 0.33054-0.49985 0.37833-0.41613 0.42298-0.29823 0.57385-0.18613 0.56961-0.01633 0.47704 0.10469 0.19123 0.1347 0.077816 0.050432 0.097515 0.26463 0.22423 0.35722 1.5476 2.2702 0.44323 0.73824 0.30273 0.57744 0.53506 1.2679 0.43189 1.4805 0.19834 1.0177 0.14538 1.2197 0.036481 0.71684-0.015008 0.87665-0.13346 1.1422-0.2224 0.98169-0.44454 1.3064-0.47531 1.0518-0.51391 0.92234-0.53215 0.77682-0.54616 0.65822-0.8461 0.83582-0.72214 0.61116-1.616 1.2763-2.3324 1.9948-3.9176 3.0358-1.8993 1.5185-1.2748 1.0905-1.0776 0.98557-0.84159 0.8259-0.59082 0.63253-0.81925 0.99163-0.57169 0.82461-0.39368 0.67444-0.45452 1.0243-0.1614 0.54244-0.18765 0.94293-0.1831 1.2119-0.054323 0.6473 0.018674 0.51785 0.079418 0.45317 0.14956 0.42922 0.27225 0.45118 0.39736 0.37971 0.58356 0.26832 0.513 0.045242 0.38295-0.067195 0.47166-0.19893 0.50831-0.35071 0.94916-0.89849 0.33535-0.26977 0.22431-0.13139 0.29738-0.11134 0.2423-0.042199 0.29513 0.001114 0.34005 0.063403 0.34896 0.12413 0.27848 0.13838 0.34426 0.22193 0.36133 0.30257 0.30792 0.3199 0.34115 0.41847 0.4771 0.67374 0.40773 0.67488 0.1866 0.39071 0.15289 0.40987 0.14593 0.56413 0.10557 0.77873 0.022995 0.82837-0.061172 1.0172-0.15193 1.1566-0.2539 1.3341-0.58298 2.4845-0.32912 1.6291-0.07641 0.65066-0.078085 1.2432-0.086108 0.6746-0.18208 0.72351-0.1745 0.48928-0.28653 0.65611-0.88686 1.7268-0.47142 0.99114-0.73682 1.8633-0.34376 1.0273-0.15791 0.7177-0.022242 0.75046 0.053627 0.29472 0.15073 0.41723 0.31241 0.4855 0.24076 0.248 0.49392 0.38672 0.66597 0.46498 0.92215 0.71872 1.0095 0.87553 1.9032 1.8071 1.6535 1.7189 0.7973 0.89667 0.96545 1.1706 0.90184 1.2053 0.76312 1.1651 0.53962 0.98449 0.43734 1.0004 0.33565 1.1044 0.16495 1.0057 0.068551 0.97602 0.043251 1.9275 0.041392 0.78879-0.35869 0.26816-0.96977 0.36438-1.0134 0.30511-1.1382 0.28939-1.0611 0.22422-1.0751 0.17781-1.4306 0.13925-1.3596-0.015562-0.77588-0.097866-2.7288-0.57227-0.99487-0.062212-0.78376 0.11834-0.73935 0.2631-0.65719 0.3705-0.49718 0.38882-0.18096 0.17194-0.45622 0.53393-0.4208 0.73285-0.22391 0.79984 0.021229 0.96568 0.25726 0.999 0.42739 0.99931 1.3033 2.4736 0.5748 1.2023 0.54792 1.2529 0.49758 1.2824 0.41872 1.2861 0.31301 1.2771 0.1703 1.248-0.019946 1.1965-0.1977 0.93913-0.36858 0.86381-0.28603 0.44712-0.29973 0.36915-0.21926 0.23013-0.8025 0.67657-0.5213 0.35604-0.77796 0.46036-1.0738 0.54963-1.1141 0.51647-2.4133 1.068-1.371 0.51211-1.4382 0.46602-1.4861 0.43269-3.062 0.80138-12.575 2.9703-3.1299 0.78063-1.5536 0.41447-1.5418 0.44006-1.5254 0.47603-1.5025 0.52596-1.7513 0.71936-1.6337 0.81309-2.1384 1.2291-1.935 1.1857-2.491 1.5661-1.8222 1.2193-1.3272 0.95982-2.2973 1.7283-2.349 1.8585-1.1678 0.99412-1.1442 1.0486-1.1022 1.1118-0.96276 1.0799-1.3127 1.6139-3.191 4.1889-0.25265 0.31638-0.22928 0.22644-0.009109-0.097615-0.049591-0.019686-0.09157 0.070442-0.81848 1.1871-0.51844 0.64556-0.28623 0.27615-0.7712 0.5876-0.42909 0.42898-0.40429 0.48746-0.45608 0.64084-0.44109 0.7349-0.39369 0.79058-0.35028 0.8173-0.32116 0.57514-0.51352 0.64129-0.21645 0.20039-0.31155 0.21874-0.36081 0.19002-0.70802 0.2623-0.66743 0.16505-1.1206 0.16474-1.1074 0.076364-1.101 0.007656-0.6385-0.035055-2.194-0.1952-0.97594-0.003346-0.47587 0.046813-0.8186 0.14506-0.6332 0.15452-0.53216 0.16855-1.1622 0.27233-1.0908 0.31634-1.2362 0.41704-1.2864 0.51207-1.2665 0.60827-0.43382 0.24082-0.94768 0.61138-0.89228 0.69424-0.83159 0.76383-1.1547 1.2578-0.84968 1.0493-0.81648 1.0908-1.4807 2.1347-2.1372 3.2726-2.9926 4.8333-0.99432 1.4647-0.5224 0.71523-0.72421 0.92633-0.7204 0.85361-0.81294 0.89827-2.0489 2.1692-0.70559 0.81464-0.82137 1.0663-2.8819 4.2459-0.60053 0.82127-1.1577 1.4614-1.2448 1.4234-2.0833 2.2315-1.3591 1.4995-0.81035 0.95399-0.78054 0.97958-0.73639 0.9925-1.2951 1.9164-1.0933 1.7965-1.1699 2.0926-2.7963 5.2591-0.6199 1.1178-1.226 2.1013-0.60448 0.98356-1.1581 1.7905-0.70364 1.0238-1.2553 1.7044-1.2911 1.5818-1.1114 1.2461-5.3891 5.6931-2.2875 2.5697-1.5595 1.6728-1.521 1.464-1.2008 1.0348-0.88063 0.68041-2.4959 1.7831-0.62082 0.49631-0.67582 0.61082-0.69412 0.73437-0.74629 0.94197-0.45487 0.7109-0.10425 0.2215-0.022851 0.20288-0.10168-0.11072-1.2154-1.8052-0.49967-0.67862-0.98355-1.2733-1.1318-1.3843-0.72485-0.83604-0.78119-0.77172-0.65745-0.53162-0.69632-0.44872-0.75719-0.35582-1.1064-0.29999-1.15-0.14542-2.1873-0.14091-1.01-0.028794-0.99905 0.049772-0.97958 0.17803-0.90988 0.32378-0.77797 0.38772-0.44336 0.25972-0.62295 0.41099-0.56073 0.42147-0.84312 0.7355-0.5636 0.55903-0.65333 0.71449-1.0913 1.3242-2.1873 2.8008-0.58149 0.68294-0.84397 0.89424-0.60731 0.56397-0.99514 0.79515-0.85382 0.58728-0.98123 0.59923-0.88508 0.48964-0.99206 0.50389-1.9374 0.87208-1.2896 0.50763-1.1198 0.3992-0.99913 0.32728-1.7324 0.51417-1.6949 0.43206-0.8141 0.16332-0.99014 0.13459-0.71947 0.040368-0.77418-0.017799-0.68922-0.062301-0.69657-0.09913-1.1684-0.23058-1.5943-0.43146-1.0748-0.3781-0.64641-0.26961-0.64518-0.30626-0.97611-0.54379-0.46666-0.29743-0.86217-0.61771-0.48001-0.3868-0.90231-0.82578-0.94575-1.0254-0.50522-0.61979-0.51961-0.68758-0.87101-1.2532-0.684-1.0533-0.64962-1.124-0.35053-0.73331-0.26442-0.6952-0.27885-1.0148-0.11582-0.63961-0.066186-0.80277 0.021751-0.70424 0.096427-0.80344 0.23502-1.1396 0.39968-1.3559 0.67695-1.8322 0.42324-0.99172 1.6034-3.4102 0.13152-0.35209-0.017749-0.078703 0.27847 0.068533 0.49124 0.014683 0.77714-0.03634 0.82073-0.092486 0.95896-0.17015 0.65219-0.15527 0.63193-0.18534 1.0159-0.39086 0.70375-0.36882 0.51507-0.35602 0.23978-0.20913 0.23184-0.24761 0.27751-0.42892 0.12713-0.41967 0.074555-0.64082 0.069855-0.32082 0.18461-0.41355 0.30056-0.38934 0.77924-0.7888 0.21288-0.29153 0.097958-0.18326 0.16682-0.51335 0.12316-0.85509 0.080689-0.37252 0.12365-0.34657 0.165-0.31558 0.24624-0.34622 0.2826-0.31599 0.49995-0.47025 0.46413-0.38463 0.55919-0.40566 0.51098-0.31662 1.2071-0.6725 0.5287-0.39134 0.38323-0.39826 0.36984-0.60692 0.13523-0.40728 0.062646-0.53232-0.025932-0.38653-0.081313-0.39092-0.25924-0.67112-0.36715-0.63461-1.9143-2.554-1.7955-2.5243-0.67118-1.0005-1.7745-2.7656-0.80079-1.1676-0.80918-1.0742-1.1873-1.4579-0.11587-0.14264-0.04335-0.25442-0.014234-0.42699 0.041108-0.67171 0.072754-0.55282 0.15559-0.77586 0.26653-0.91647 0.36896-0.9205 0.36183-0.70674 0.40839-0.66612 0.51161-0.71396 0.77531-0.91976 0.61628-0.63477 0.82342-0.74464 0.87287-0.67341 1.0342-0.65561 0.84758-0.43124 1.0556-0.41186 1.3692-0.33994 1.0622-0.1144 1.0151 0.010394 1.3234 0.18826 1.2198 0.35828 0.68429 0.29059 0.57489 0.30691 0.76345 0.5211 0.33614 0.27415 1.9206 1.7204 0.7583 0.58327 1.1208 0.72867 1.0884 0.56506 0.9956 0.41399 0.92423 0.31473 1.082 0.29635 0.65184 0.14354 0.70662 0.12683 1.0087 0.13003 0.98369 0.064587 0.97645-0.00269 0.56065-0.035168 0.67987-0.083011 0.76767-0.16065 0.52049-0.15861 0.67405-0.2793 0.66727-0.3849 0.5951-0.47383 0.62782-0.66743 0.34207-0.43048 0.7389-1.0492 0.28802-0.46783 0.46886-0.90329 0.21283-0.50322 0.25996-0.75068 0.14872-0.54317 0.23566-1.2192 0.11385-1.0982 0.019017-0.59811-0.027223-0.73404-0.067295-0.56652-0.14402-0.67251-0.16931-0.51444-0.18599-0.41797-0.19788-0.34867-0.35526-0.47543-0.30407-0.31093-0.31756-0.2624-0.29903-0.20303-0.59096-0.31382-0.79171-0.30962-1.1131-0.31252-0.84481-0.16595-0.96905-0.13627-1.3015-0.12368-1.68-0.065128-2.1219-0.006705-0.76822-0.032993-0.63051-0.057529-0.61296-0.089139-0.95842-0.21726-0.82155-0.27631-0.69167-0.3134-0.76052-0.45106-0.83021-0.66605-0.45271-0.48123-0.37996-0.51636-0.38165-0.74032-0.24133-0.9494-5.16e-4 -0.74874 0.13701-0.62186 0.22408-0.51945 0.39123-0.59176 0.50832-0.55122 0.50646-0.43412 0.58577-0.42121 1.0015-0.58995 0.82006-0.38898 0.78056-0.30074 0.69455-0.21182 1.2486-0.25351 0.55083-0.060239 0.98064-0.030528 0.7194 0.038493 0.64256 0.076519 1.0165 0.2018 0.98316 0.28675 0.68353 0.25025 2.1957 0.97766 0.99315 0.40781 0.7352 0.25482 0.8364 0.2295 1.102 0.18418 0.52712 0.032387 0.80512-0.022326 0.70345-0.09416 0.4332-0.095872 0.75015-0.24638 0.823-0.43612 0.59012-0.50621 0.39545-0.55158 0.14215-0.30794 0.16057-0.6475 0.016914-0.56475-0.076345-0.5504-0.10786-0.40982-0.22961-0.60996-0.39076-0.77484-0.68449-1.1089-2.1198-3.0473-1.032-1.5711-0.42927-0.71183-0.53535-0.99165-0.28192-0.70289-0.015184 0.076439-0.21041 0.25058-0.30376 0.1666-0.38656 0.077276-0.38656-0.018202-0.44912-0.1021-0.42536-0.15624-0.52598-0.25503-2.0439-1.2243-1.3169-0.7347-1.0787-0.5153-0.75926-0.30234-0.70659-0.22953-0.80656-0.19758-1.4464-0.1691-0.82959 0.016026-0.92193 0.1002-1.3493 0.26762-1.1754 0.3244-1.0839 0.35501-3.7799 1.4086-3.467 1.4344-0.69465 0.26751-0.68641 0.22811-0.78398 0.19392-0.78071 0.095233-1.1891-0.074962-1.1909-0.27574-0.85549-0.27636-2.5063-0.92244-1.3226-0.40433-2.9585-0.60016-0.93871-0.31493-0.59991-0.2948-0.93003-0.60495-0.74308-0.5938-1.3202-1.2269-1.3155-1.3598-0.64234-0.70905-0.9867-1.1735-0.61627-0.81561-0.46195-0.69056-0.34904-0.63575-0.28673-0.65938-0.17863-0.53078-0.15211-0.61158-0.10048-0.59325-0.062107-0.65635-0.009912-0.69462 0.079158-0.8901 0.17067-0.7622 0.34899-0.83044 0.44214-0.63145 0.5194-0.53401 0.56233-0.45944 0.56115-0.38604 0.95579-0.54808 0.90903-0.43743 1.2517-0.52492 1.1431-0.42258 1.6455-0.53768 1.5602-0.42428 2.3782-0.56831 0.72576-0.21068 0.91096-0.31346 1.5286-0.63854 2.9417-1.3628 2.0744-0.91359 1.9655-0.78253 3.4261-1.2825 0.94201-0.38692 0.90306-0.40886 1.1216-0.57096 0.85393-0.50923 0.69862-0.48813 0.67679-0.55402 0.62824-0.62077 0.45216-0.54727 0.35137-0.56068 0.18555-0.46401 0.090606-0.45862-0.018068-0.56038-0.14107-0.56288-0.42518-0.83735-0.31748-0.40959-0.37287-0.36459-0.33099-0.25068-0.4474-0.2804-3.0838-1.7778-0.96554-0.47468-1.7513-0.67573-0.63179-0.26885-0.98823-0.46441-0.5886-0.3239-0.86627-0.60397-0.32933-0.27113-0.81278-0.7651-0.94824-1.0646-0.78356-1.0239-0.53989-0.78776-0.52017-0.82353-0.80525-1.3983-0.59827-1.1362-0.77904-1.6311-0.42921-1.023-0.37087-1.0421-0.3608-1.3311-0.17221-0.8773-0.12041-0.87097-0.072961-0.90209-0.030883-0.87102-2.4e-4 -1.3056 0.051849-2.0205 0.28849 0.064818 0.51683-0.13592 0.69368-0.32742 0.79527-0.51647 0.59257-0.46875 0.92992-0.87692 0.77237-0.8382 0.75918-0.9135 0.44009-0.59378 0.34257-0.5147 0.34884-0.59058 0.29171-0.56129 0.39139-0.87614 1.0379-2.6954 0.49458-1.0652 0.49933-0.89524 0.41755-0.61916 0.4062-0.51303 0.904-0.96002 1.0554-0.93247 1.0514-0.82261 0.96014-0.67338 1.844-1.2095 0.66015-0.40739 0.75746-0.41599 2.6681-1.3185 1.6922-0.91652 1.1565-0.70937 0.89536-0.63038 0.49329-0.39709 0.44458-0.40105 0.54258-0.58219 0.17642-0.24249 0.18593-0.32156 0.20919-0.58078 0.068048-0.68567-0.12476-1.006-0.24262-0.91201-0.56557-1.823-0.30812-1.2839-0.087286-0.66429-0.018215-0.52878 0.011861-0.27626 0.080889-0.59397 0.12568-0.51074 0.35072-0.94657 0.20429-0.43396 0.79216-1.4219 1.2385-2.1045 0.76941-1.3849 0.53426-1.0902 0.31329-0.75726 0.29622-0.8886 0.28604-1.1827 0.16922-1.1972 0.009026-1.1736-0.12846-1.1572-0.23708-1.1598-0.24463-0.88568-0.33912-0.93994-0.27808-0.60212-0.62882-1.094-1.0554-1.669-0.66042-1.1744-0.44398-1.0074-0.42624-1.209-0.3651-1.2311-0.76382-2.775-0.23412-0.7593-0.44847-1.2385-0.29755-0.6534-0.31224-0.54272-0.22647-0.31094-0.1778-0.19554-0.16531-0.1241-0.10859-0.002925 0.60372-0.53896 1.4895-1.1852 0.96544-0.71973 1.1548-0.81003 1.6095-1.0382 2.2105-1.3098 0.74847-0.47471 0.80904-0.57414 1.8222-1.3757 1.2684-0.88033 0.81901-0.45282 0.70299-0.27542 0.60108-0.15498 0.33698-0.053769 0.43785-0.03282 0.40296 0.008229 0.68555 0.080117 2.2285 0.37424 0.71102 0.064794 0.59983 0.016663 1.0849-0.06994 1.2746-0.21013 1.4746-0.36222 1.8699-0.61358 1.9654-0.76245 4.5529-1.8569 2.0283-0.87634 0.90961-0.29135 1.2888-0.33529 1.0301-0.18949 1.9303-0.20848 1.9621-0.11921 1.8486-0.002688 0.67426-0.05021 0.51272-0.08101 0.89299-0.24035 0.80893-0.29085 3.284-1.445 0.76619-0.2277 0.47892-0.075849 0.92424-0.033089 0.56571 0.034509 0.7552 0.10204 2.0957 0.38862 1.3401 0.1312 0.83424 0.019638 0.75956-0.018742 0.73655-0.062526 0.84358-0.12064 0.82282-0.17653 0.77298-0.2259 0.93784-0.33334 0.72412-0.29191 0.83402-0.37836 0.89327-0.4598 0.71716-0.43276 0.17515-0.13174 0.085874-0.10572-0.0105-0.10967 0.052129-0.11045 0.23304-0.20703 0.32419-0.16968 0.3657-0.13539 0.5301-0.1374 0.46695-0.067584 0.56979-0.024043 0.35479 0.021347 0.37237 0.051212 0.58768 0.12542 0.4778 0.13726 0.57873 0.21104 1.0026 0.47573 1.2528 0.71052 0.45089 0.30691 0.54222 0.44893 0.17928 0.17522 0.69924 0.83689 0.90208 1.3537 1.7348 2.8041 0.69594 1.0519 0.86397 1.1491 0.85815 0.96807 0.93366 0.8795 0.40238 0.32638 0.5708 0.41388 0.63663 0.40439 0.72797 0.40334 0.93662 0.43932 0.84936 0.32612 0.63897 0.20658 0.8665 0.22825 0.88788 0.1415 1.3327-0.011815 0.77926-0.10768 0.78978-0.16801 1.4313-0.42521 0.95135-0.35066 1.3563-0.56695 1.3601-0.62082 3.7309-1.7897 1.2688-0.58257 1.2577-0.53282 1.4948-0.54376 0.96968-0.28059 0.74745-0.16269 1.0948-0.11552 0.90342 0.048046 0.65676 0.10353 0.75302 0.16844 2.9286 0.83213 2.0075 0.51214 0.80767 0.26732 0.37574 0.15645 0.53113 0.26943 0.64408 0.41531 0.41743 0.33765 0.42709 0.42845 0.31963 0.4082 0.33228 0.56262 0.27248 0.61906 0.22499 0.66477 0.18739 0.70391 0.2966 1.5471 0.16028 1.2005 0.11598 1.1194 0.377 4.6285 0.17226 1.309 0.19354 0.92156 0.24809 0.77593 0.38252 0.76947 0.13165 0.19428 0.82924 0.83287 0.51486 0.3503 0.56401 0.31076 0.8444 0.37729 0.91908 0.33728 1.1144 0.34937 1.2292 0.34915 1.2419 0.30488 2.069 0.40624 1.6012 0.24331 1.1469 0.13416 1.7037 0.1142 1.2539 0.01296 0.77384-0.027941 0.72683-0.070378 0.54723-0.09446 0.7269-0.20252 0.39173-0.15526 0.54215-0.29226 0.42282-0.33901 0.45956-0.62269 0.33437-0.7374 0.80958-2.1268 0.48512-1.0643 0.43556-0.83206 0.45587-0.79457 0.44631-0.70621 0.59973-0.74511 0.65382-0.61841 1.0948-0.81036 0.44209-0.3805 0.36388-0.37566 0.33137-0.44174 0.3886-0.74269 0.3661-0.83741 0.50113-1.0337 1.2832-2.5517 2.1572-4.028 1.2376-2.4457 1.6152-3.3964 3.0708-6.7134 0.49802-1.0304 4.4573 2.9448 1.4238 0.98264 1.3713 0.99122 1.5279 1.2012 2.946 2.5888 0.77193 0.61338 0.48865 0.33357 0.49616 0.27792 1.9627 0.7741 0.79972 0.348 0.55719 0.29628 1.9019 1.219 0.63494 0.38614 0.63576 0.34478 0.63368 0.27822 0.6282 0.18029" stroke="#bdc660"/>
    </defs>
    <g clip-path="url(#p109ed047a1)">
     <use y="280.512" fill="#bdc660" stroke="#bdc660" xlink:href="#mb66074de4c"/>
    </g>
   </g>
  </g>
 </g>
 <defs>
  <clipPath id="p109ed047a1">
   <rect x="7.2" y="7.2" width="251" height="266.11"/>
  </clipPath>
 </defs>
</svg>
