<?xml version="1.0" encoding="UTF-8"?>
<!DOCTYPE svg  PUBLIC '-//W3C//DTD SVG 1.1//EN'  'http://www.w3.org/Graphics/SVG/1.1/DTD/svg11.dtd'>
<svg width="295.01pt" height="280.51pt" version="1.1" viewBox="0 0 295.01 280.51" xmlns="http://www.w3.org/2000/svg" xmlns:xlink="http://www.w3.org/1999/xlink">
 <metadata>
  <rdf:RDF xmlns:cc="http://creativecommons.org/ns#" xmlns:dc="http://purl.org/dc/elements/1.1/" xmlns:rdf="http://www.w3.org/1999/02/22-rdf-syntax-ns#">
   <cc:Work>
    <dc:type rdf:resource="http://purl.org/dc/dcmitype/StillImage"/>
    <dc:date>2024-07-04T12:11:30.266006</dc:date>
    <dc:format>image/svg+xml</dc:format>
    <dc:creator>
     <cc:Agent>
      <dc:title>Matplotlib v3.7.1, https://matplotlib.org/</dc:title>
     </cc:Agent>
    </dc:creator>
   </cc:Work>
  </rdf:RDF>
 </metadata>
 <defs>
  <style type="text/css">*{stroke-linejoin: round; stroke-linecap: butt}</style>
 </defs>
 <g id="figure_1">
  <g id="patch_1">
   <path d="m0 280.51h295.01v-280.51h-295.01v280.51z" fill="none"/>
  </g>
  <g id="axes_1">
   <g id="PatchCollection_1">
    <defs>
     <path id="m0ab6c61a42" d="m227.07-244.11 0.8117 5.0901 0.48912 2.8374 0.48575 2.5595 0.70032 2.999 0.53024 1.7736 0.46573 1.279 0.35043 0.82443 0.48191 0.96228 0.38363 0.63969 0.54785 0.74786 0.55213 0.5855 0.5214 0.41934 0.70491 0.38918 0.85617 0.25082 0.7615 0.087025 0.9417-0.005009 0.7676-0.065084 1.4871-0.21099 2.5926-0.43424 1.328-0.17048 0.80691-0.062319 1.2392 1.78e-4 0.62583 0.062593 0.42707 0.074671 1.1623 0.35406 0.9746 0.46149 0.90572 0.60525 0.95408 0.8134 0.52876 0.51407 1.1027 1.1958 0.91717 1.2159 0.719 1.1051 1.2343 2.1321 2.2001 4.0068 2.1722 3.5924 0.54883 1.0054 0.39424 0.83378 0.45268 1.1974 0.34811 1.2075 0.2652 1.1951 0.19578 1.1813 0.074956 0.69712 0.035143 0.76647-0.044165 0.90154-0.095521 0.5948-0.44114 1.7237-0.13629 0.73539-0.039726 0.53492 0.024697 0.76742 0.098305 0.70364 0.1281 0.56013 0.22474 0.70778 0.34702 0.82571 0.30246 0.57997 0.43726 0.69609 0.49268 0.66819 0.67562 0.80437 0.72905 0.77599 1.9514 1.9645 0.76124 0.91472 0.80944 1.1315 3.8965 5.9929 3.378 4.9589 0.43341 0.68938-0.39796 0.16303-0.24412 0.26635-0.28276 0.39096-0.36482 0.62436-1.6276 3.6058-0.57249 1.0187-0.65598 0.98549-0.56046 0.72848-1.2125 1.2774-0.59355 0.52039-0.95174 0.7373-1.1957 0.8128-0.863 0.4958-1.2211 0.57209-0.55137 0.2099-1.1246 0.33243-2.9369 0.5247-0.64552 0.16704-0.63186 0.20531-1.0684 0.45499-0.67937 0.38035-0.81948 0.60489-0.39338 0.37762-0.39502 0.45972-0.38621 0.55884-0.28843 0.53206-0.3385 0.86857-0.20818 0.76334-0.51954 2.242-0.21742 0.69157-0.30579 0.73736-0.31052 0.5939-0.67266 1.0562-0.56932 0.77609-1.6535 2.0926-0.82665 1.1199-0.55697 0.89306-0.42594 0.91429-0.20468 0.73632-0.053215 0.44502 0.014446 0.59578 0.057577 0.37743 0.20223 0.70592 0.38888 0.862 1.3605 2.514 0.37691 0.81877 0.17728 0.51534 0.092979 0.41404 0.035277 0.34511-0.026902 0.44794-0.125 0.43335-0.2438 0.40135-0.20472 0.20779-0.31523 0.22594-0.30952 0.16231-0.74192 0.26835-1.2132 0.28064-2.3754 0.46787-3.6328 0.9488-1.5861 0.30395-0.80129 0.081316-0.92029 0.032804-0.97842-0.020527-3.5494-0.19383-1.9419 0.035407-1.6845 0.16287-0.84104 0.12158-0.83821 0.14534-1.9922 0.44074-1.6889 0.48453-0.98363 0.33365-1.7618 0.7065-0.91406 0.4284-1.3642 0.72714-1.2044 0.73764-1.4467 1.0047-1.0671 0.81728-1.2095 0.99607-2.1551 1.9388-1.095 1.0661-1.1528 1.1911-1.1692 1.296-0.90442 1.0747-1.4834 1.9276-0.7815 1.1135-1.2664 1.9848-0.9531 1.678-1.0432 2.0363-2.3115 4.9456-0.94367 1.9087-0.87989 1.6372-1.6644 2.9152-0.86861 1.691-0.46932 1.0909-0.26282 0.71557-0.34758 1.188-0.20313 1.1783-0.010792 0.44288 0.029162 0.2069 0.10551 0.15243 0.17846 1.5616 0.15368 2.4515 0.12999 5.2871 0.11591 2.6273 0.53164 6.8885 0.15398 2.5909 0.030747 1.5316-0.024468 1.2823-0.11295 1.5923-0.15505 1.1769-0.2984 1.5092-0.23618 0.89905-0.28135 0.88272-0.28665 0.75958-0.47369 1.0531-0.69648 1.259-0.69717 1.0392-0.47101 0.61548-0.78352 0.9136-1.3629 1.3673-0.81777 0.73389-2.2386 1.8311-8.2934 6.4087-7.2747 5.3051-2.8729 2.2579-1.7161 1.4822-4.0856 3.8611-2.0277 1.7903-1.6245 1.2511-1.2861 0.86796-1.1493 0.69076-0.96587 0.52399-1.1782 0.57653-1.5788 0.68016-1.0838 0.41289-2.4712 0.79994-2.1901 0.56945-2.024 0.43394-2.5938 0.45653-2.1495 0.31492-6.5036 0.83547-1.6807 0.25841-1.8563 0.38244-0.28584 0.095614-0.11546 0.10273 0.001345-0.27095-0.3288-0.34552-0.31137-0.18392-0.44673-0.18989-0.91965-0.26445-1.1456-0.22172-1.5814-0.19116-4.4273-0.28561-1.2217-0.1398-2.076-0.34782-1.995-0.4565-2.1383-0.58769-3.1028-0.92206-1.9869-0.67635-1.9646-0.8007-1.3255-0.62352-1.1261-0.59989-0.98781-0.62186-0.94747-0.7149-1.07-0.96207-0.87894-0.94909-0.89441-1.1586-0.45557-0.70796-0.6326-1.1987-0.45039-1.0789-0.39222-1.2059-0.32618-1.4213-0.13729-0.9114-0.10945-1.4982 0.014612-1.1445 0.080577-0.96133 0.15098-1.0404 0.20347-0.98643 0.2683-1.0383 0.71534-2.2233 1.4013-3.8412 0.31312-0.97756 0.2513-0.93992 0.28075-1.4999 0.29268-2.0135 0.062672-1.4414-0.046458-1.4613-0.24264-3.3795-0.17771-1.004-0.28562-0.86176-0.36775-0.67574-0.19531-0.25824-0.32858-0.33137-0.41216-0.28833-0.36365-0.179-0.43442-0.1478-0.39323-0.08498-0.43722-0.053936-0.70377-0.021237-0.68597 0.036772-0.73213 0.086197-1.4285 0.27814-1.0193 0.28013-1.6105 0.57961-1.418 0.63488-1.4724 0.76064-2.6167 1.5064-0.93227 0.41028-0.98965 0.25816-0.80521 0.10646-3.727 0.1973-0.85613 0.11844-0.70766 0.15426-0.71292 0.22346-0.75039 0.32881-0.86724 0.5361-0.63466 0.531-0.73235 0.80501-0.40424 0.55462-0.50042 0.82267-0.52102 1.0544-0.51648 1.2973-0.4049 1.2223-1.5019 5.5639-0.58772 1.8928-0.56113 1.508-0.76052 1.7318-0.58887 1.1983-1.2612 2.3352-1.0498 1.8007-0.89595 1.4716-1.0035 1.5409-1.039 1.3934-0.99123 1.0987-1.0305 0.92408-0.79072 0.58816-0.84499 0.53583-0.86472 0.46453-1.3834 0.58398-1.0493 0.30716-1.1963 0.18098-1.0491-0.017466-1.5895-0.268-1.0732-0.25903-1.0953-0.32322-2.5955-0.96856-1.4918-0.61556-1.1402-0.5136-1.8399-0.91854-0.8333-0.45652-1.9734-1.197-1.33-0.90098-1.3821-1.0015-4.524-3.4213-0.95523-0.63272-1.7791-1.016-0.66464-0.43953-0.70328-0.61121-0.78472-1.0055-0.47599-1.0993-0.11023-0.52313-0.043975-0.39971-0.011618-0.61173 0.040595-0.57057 0.23131-1.3084 0.61319-2.2632 0.60732-1.878 0.60587-1.6232 0.91418-2.096 0.85447-1.7318 0.94321-1.6953 0.76075-1.2379 1.108-1.6693 3.5384-4.9215 0.86718-1.2671 0.64312-1.0504 0.47104-0.86978 0.72108-1.5611 0.34785-0.90842 0.2465-0.76432 0.19834-0.73848 0.28778-1.3513 0.41826-2.5619 0.44302-4.071 0.10115-1.7277-0.01764-1.0102-0.1202-1.2401-0.28514-1.4406-0.2723-0.94032-0.35503-0.96393-0.5705-1.2219-0.80406-1.3268-0.69944-0.90513-0.33755-0.37208-0.64193-0.61584-0.82966-0.67368-0.79907-0.51366-0.31789-0.087781-0.088286 0.020941-0.14842-0.079528-0.32207-0.29502-0.51202-0.66756-0.24759-0.41878-0.3676-0.76185-0.27459-0.69841-0.38209-1.2186-0.26319-1.0783-0.2153-1.085-0.1921-1.1701-0.32856-2.614-0.74082-8.3959-0.29433-2.9213-0.44988-3.653-0.41174-2.8507-0.50148-2.9791-0.66545-3.4618-2.1643-10.133-0.81831-4.0061-1.0727-5.9433-0.56723-3.6271-0.2097-1.6495-0.35139-3.5109-1.0546-14.854-0.3622-3.7753-0.3002-2.4187-0.43849-2.71-0.28907-1.3859-0.31882-1.2306-0.24651-0.76096-0.32597-0.76279-0.19511-0.20685 7.9436-0.65615 20.251-1.7968 15.648-1.3087 8.7768-0.80011 15.297-1.4877 9.4084-0.77738 6.5558-0.67916 2.0648-0.26353 3.8443-0.58716 2.334-0.42757 3.8087-0.82204 3.2593-0.82167 3.7233-1.0719 2.5766-0.84377 2.0141-0.72491 1.848-0.71956 1.9977-0.83749 2.1693-0.97528 2.3046-1.1151 2.5374-1.3252 1.397-0.77628 2.5974-1.5364 2.5427-1.6257 1.3241-0.89583 2.3518-1.6783 1.717-1.2939 1.695-1.3307 2.8609-2.3621 4.1307-3.6334 6.0045-5.5518 8.5565-8.0896 5.7652-5.5125 2.9186-2.8284 2.3384-2.3826 0.076761 0.078768 0.24614 0.095347 0.66295 0.15669 1.1195 0.13472 2.9192 0.1269 1.8731 0.14167 1.3058 0.038272 0.60745-0.031627 1.0307-0.14992 0.85566-0.22718 1.5293-0.48557 0.74498-0.1679 0.73817-0.10688 1.5369-0.13261 0.65247-0.14726 0.40601-0.24978 0.23768-0.29766 0.19762-0.52532 0.18544-1.0628 0.13065-0.43502 0.21011-0.43912 0.42148-0.56029 0.46652-0.44551 2.4217-2.0461 1.9115-1.5409 1.1135-1.0039 0.77584-0.92044 1.2283-1.8839 0.61154-0.85313 0.73296-0.8002 0.94321-0.77685 0.55166-0.37262 0.67489-0.39488 0.63993-0.31873 0.85346-0.34893 0.85513-0.26579 0.81562-0.18433 0.74328-0.12253 2.722-0.29064 0.85339-0.11364 0.82562-0.15784 0.79399-0.22374 0.62704-0.25425 0.58835-0.3477 0.16722-0.15916 0.035546-0.13943 0.10341 0.10445 0.15146 0.37478 0.48615 1.6779 0.31631 1.3204 0.37009 1.9142 0.33092 2.3251 0.57948 5.0747 0.57879 4.3166" stroke="#bdc660"/>
    </defs>
    <g clip-path="url(#pc22ec34524)">
     <use y="280.512" fill="#bdc660" stroke="#bdc660" xlink:href="#m0ab6c61a42"/>
    </g>
   </g>
  </g>
 </g>
 <defs>
  <clipPath id="pc22ec34524">
   <rect x="7.2" y="7.2" width="280.61" height="266.11"/>
  </clipPath>
 </defs>
</svg>
