<?xml version="1.0" encoding="UTF-8"?>
<!DOCTYPE svg  PUBLIC '-//W3C//DTD SVG 1.1//EN'  'http://www.w3.org/Graphics/SVG/1.1/DTD/svg11.dtd'>
<svg width="336.41pt" height="280.51pt" version="1.1" viewBox="0 0 336.41 280.51" xmlns="http://www.w3.org/2000/svg" xmlns:xlink="http://www.w3.org/1999/xlink">
 <metadata>
  <rdf:RDF xmlns:cc="http://creativecommons.org/ns#" xmlns:dc="http://purl.org/dc/elements/1.1/" xmlns:rdf="http://www.w3.org/1999/02/22-rdf-syntax-ns#">
   <cc:Work>
    <dc:type rdf:resource="http://purl.org/dc/dcmitype/StillImage"/>
    <dc:date>2024-07-04T12:11:42.870672</dc:date>
    <dc:format>image/svg+xml</dc:format>
    <dc:creator>
     <cc:Agent>
      <dc:title>Matplotlib v3.7.1, https://matplotlib.org/</dc:title>
     </cc:Agent>
    </dc:creator>
   </cc:Work>
  </rdf:RDF>
 </metadata>
 <defs>
  <style type="text/css">*{stroke-linejoin: round; stroke-linecap: butt}</style>
 </defs>
 <g id="figure_1">
  <g id="patch_1">
   <path d="m-0 280.51h336.41v-280.51h-336.41v280.51z" fill="none"/>
  </g>
  <g id="axes_1">
   <g id="PatchCollection_1">
    <defs>
     <path id="mffc4a4a6f1" d="m75.405-257.74 0.30644 0.019916 0.15249-0.020746 0.34059-0.10498 1.2323-0.53403 0.48565-0.16041 0.51238-0.13264 1.077-0.19562 1.1168-0.1099 3.6866-0.12016 1.0128-0.005229 1.2052 0.078528 1.2259 0.1479 1.2491 0.19412 1.2635 0.23221 1.2393 0.27245 0.58164 0.15279 0.5277 0.16237 0.44071 0.16504 0.46113 0.21032 0.93573 3.3006 0.35375 1.1393 0.50481 1.4389 0.13311 0.45084 0.3532 1.4384 0.76 2.5377 0.28465 1.0154 0.22167 0.98718 0.20528 1.6611 0.24888 1.2669 0.038073 0.44358-0.033983 0.42267-0.068476 0.30723-0.095909 0.3042-0.40957 1.0726-0.094919 0.43226-0.05342 0.45975-0.024089 0.48074-0.002426 1.5117-0.043972 1.5422-0.013068 2.1089-0.028398 0.77798-0.035869 0.2897 0.22449-0.10527 0.32557 0.087572 0.47339 0.35293 0.48953 0.56045 0.40837 0.59825 0.44168 0.8174 0.33295 0.87052 0.17574 0.89215-0.002428 0.82353-0.10992 0.82085-0.14808 0.81936-0.11778 0.82107-0.019255 0.82725 0.063323 0.51305 0.12049 0.51361 0.18199 0.53748 0.23095 0.53131 0.31108 0.58859 0.35841 0.57184 0.23449 0.33098 0.19665 0.2568 0.67174 0.76839 0.73454 0.6955 1.5616 1.2315 0.5928 0.51823 0.7469 0.81265 0.56055 0.75626 0.49214 0.79594 0.41861 0.81687 0.79919 1.8724 0.47031 1.0263 0.40769 0.77049 0.27025 0.40027 0.31046 0.32185 0.28236 0.18546 0.18272 0.08023 0.28132 0.079637 0.35366 0.043956 0.4369-0.009856 0.68019-0.10402 0.57218-0.14036 1.3994-0.4212 0.47315-0.11703 0.30995-0.060504 0.62625-0.076327 0.55545-0.009574 0.68334 0.096308 0.16125 0.04642 0.42987 0.18212 0.31807 0.19697 0.32564 0.26833 0.28371 0.30271 0.40344 0.54529 0.64876 1.0834 1.1694 2.1117 0.6189 0.94072 0.92386 1.1646 0.50692 0.81195 0.45661 0.92771 0.40183 1.0105 0.33648 1.0665 0.17286 0.70919 0.14278 0.889 0.062248 0.864-0.004057 0.78218-0.071903 0.87718-0.2241 1.2814-0.35482 1.4933-0.29951 0.92118-0.43489 0.91668-0.56131 0.86177-0.47103 0.5718-0.52908 0.52614-0.3836 0.31851-0.52538 0.36684-0.60405 0.35218-0.68049 0.34296-2.1051 0.97594-0.84128 0.4377-0.76853 0.46144-0.61505 0.42931-0.36887 0.28957-0.56801 0.50201-0.47016 0.47949-0.29121 0.33426-0.47708 0.62835-0.29976 0.46372-0.38554 0.7114-0.33212 0.76534-0.2944 0.8458-0.28446 0.99072-0.47256 1.8517-0.23578 0.81407-0.27403 0.72842-0.1113 0.19845-0.051796 0.05705-0.057047 0.017105 0.6705 0.84043 0.38516 0.59734 0.52295 0.98281 0.70018 1.4385 0.38625 0.66823 0.35934 0.51707 0.70948 0.9308 0.53778 0.80642 0.1491 0.058796 0.28241 0.24753 0.35786 0.37616 0.39912 0.47985 0.40034 0.54521 0.37945 0.58956 0.29249 0.52068 0.26557 0.53172 0.23997 0.53356 0.66311 1.6068 0.23051 0.46851 0.26176 0.41704 0.31162 0.3467 0.37808 0.26343 0.55086 0.22084 0.56842 0.12652 1.0597 0.11208 2.0633 0.082033 0.78504 0.095638 0.31703 0.07556 0.301 0.1053 0.18898 0.089285 0.41154 0.26763 0.36572 0.34087 0.26916 0.33621 0.23954 0.37352 0.17337 0.31784 0.44423 0.95624 1.1059 2.6585 0.44019 0.90158 0.43847 0.74185 0.61006 0.87297 1.2358 1.6113 2.0089 2.6848 1.9719 2.9132 0.80868 1.3459 0.12737-0.071692 0.309-0.2478 1.1927-1.0184 1.3186-1.1702 1.5718-1.4371 1.2476-1.0738 0.38321-0.30014 0.49846-0.34598 0.3889-0.22636 0.52242-0.23786 0.42236-0.13758 0.42737-0.09013 0.52837-0.041206 0.45248 0.02842 0.46005 0.08257 0.56607 0.15925 1.6879 0.61429 0.39064 0.12517 0.55015 0.14752 0.43567 0.090037 0.7573 0.097732 0.55756 0.022732 0.71305-0.035659 0.67634-0.1005 0.42506-0.094018 0.80212-0.25036 0.37805-0.16613 0.3466-0.19806 0.2231-0.16132 0.29302-0.26568 0.29822-0.3419 0.28813-0.40927 0.2648-0.43225 0.35421-0.63482 0.77911-1.5709 0.28348-0.45674 0.23876-0.30057 0.42761-0.44959 0.55183-0.47701 0.58341-0.40648 0.58386-0.32347 0.67693-0.30375 0.41048-0.16046 0.92432-0.30086 0.74377-0.18182 0.50139-0.090386 0.63838-0.070888 0.53551-0.015171 0.37104 0.016865 0.46634 0.05582 0.38087 0.075083 0.50153 0.13632 0.86711 0.3247 0.95125 0.46957 0.10522 0.028032 0.2103 0.1183 1.1436 0.77409 0.91003 0.68336 2.0771 1.6341 1.0254 0.75409 1.6001 1.0972 1.2003 0.7627 2.6197 1.5831 1.946 1.1082 1.6934 1.1129 1.5182 0.9678 0.79534 0.60105 0.98063 0.87676 0.97896 0.9949 1.0726 1.2126 2.0433 2.4946 0.8913 1.0579 0.9423 1.0104 0.48472 0.45563 0.59956 0.48914 0.61061 0.40012 0.52213 0.25127 0.52971 0.15701 0.4252 0.04895 0.18436 0.001584 0.88535-0.14396 0.14477-0.043692 0.51662-0.19 0.52371-0.2374 0.47444-0.24788 0.92379-0.55706 0.92896-0.63916 0.9137-0.70221 0.87563-0.75377 0.51788-0.49548 0.56306-0.59596 0.5095-0.61382 1.9285-2.7389 0.69212-1.0787 0.43828-0.74086 0.45872-0.92892 0.28039-0.78056 0.13167-0.52308 0.10516-0.61147 0.042634-0.62397-0.070147-0.91947-0.19196-0.94183-0.26796-0.95509-0.5847-1.9009-0.22488-0.91046-0.11968-0.87164 0.003747-0.59214 0.067815-0.51613 0.12632-0.43602 0.1837-0.27346 0.23622-0.070251-0.24222-0.24423-1.3391-1.2198-0.51158-0.51594-0.719-0.81471-0.44763-0.59444-0.2958-0.44778-0.32074-0.57982-0.19124-0.51489-0.10617-0.56126-0.038617-0.60181-0.020912-1.0182-0.030295-0.4508-0.076023-0.62461-0.19907-1.37-0.35957-1.9253-0.074929-0.60026-0.13997-1.5815-0.032715-0.65586 0.002797-0.61685 0.03966-0.59231 0.081097-0.58578 0.094089-0.44197 0.12415-0.43378 0.28164-0.71537 0.35662-0.68606 0.41806-0.6552 0.47123-0.62012 0.52068-0.57785 0.54052-0.50835 1.6805-1.3911 1.0885-0.97498 0.40261-0.41462 0.29016-0.35138 0.23717-0.35448 0.18521-0.37323 0.14919-0.49036 0.076258-0.45214 0.067171-0.83997 0.12486-2.2436 0.012427-0.70038-0.022572-1.0226-0.12473-1.6467 0.011099-0.32692 0.035492-0.098608 0.028072-0.01335 0.26044 0.049731 0.59905 0.30081 1.6457 0.96473 1.5169 0.97572 2.3415 1.6293 1.5381 1.0431 0.74277 0.48502 0.50664 0.30472 0.4126 0.22078 0.48267 0.21493 0.42078 0.1436 0.81579 0.17571 0.79537 0.012318 0.77566-0.17591 0.44788-0.16609 1.2339-0.54246 0.78762-0.38118 1.0575-0.56662 0.86616-0.50945 1.1383-0.73094 0.68282-0.47082 1.3452-0.99403 0.67148-0.52915 1.459-1.2295 0.77045-0.70579 1.4915-1.4501 0.73909-0.66156 0.76782-0.62708 0.99528-0.73249 1.6914-1.1231 0.82047-0.57374 0.77411-0.62286 0.81864-0.80679 2.0941-2.3685 0.51143-0.53713 1.0869-1.0775 1.2252-1.1235 0.66068-0.56178 0.97686-0.75705 0.65319-0.4403 0.66319-0.38202 0.67291-0.31104 0.27464-0.1029 0.55792-0.17686 1.4923-0.38549 0.73173-0.21443 0.67476-0.22235 1.4822-0.55077 1.4832-0.61207 3.0372-1.3392 1.0706-0.49054 0.59054-0.30704 0.52674-0.29753 2.6677-1.6057 0.89084-0.48528 0.2788-0.12346 0.004708 0.071538 0.03379 0.067598 0.24226 0.30497 0.49894 0.47535 0.42025 0.35143 0.76213 0.55816 1.428 0.8685 1.0405 0.6915 1.045 0.7925 2.2477 1.8162 1.2331 0.87043 0.42013 0.36321 0.17721 0.19374 0.30498 0.43456 0.19609 0.35486 0.40328 0.86951 0.28592 0.70294 0.73522 2.0304 0.35081 0.90045 0.3795 0.86843 0.20263 0.41428 0.27185 0.50348 0.38336 0.59835 0.42328 0.51112 0.47212 0.39835 0.13727 0.084499 0.45419 0.19098 0.29332 0.061898 0.31223 0.026609 0.32598-0.006529 0.36457-0.041631 0.53024-0.1122 0.62707-0.19622 0.75503-0.30961 0.60576-0.29293 1.942-1.0413 0.47028-0.21422 0.58121-0.22765 0.75353-0.22516 0.64904-0.13157 1.1093-0.1549 0.63166-0.041323 0.60805 0.021614 0.71838 0.12302 0.39319 0.11123 0.71606 0.2792 0.57354 0.29554 0.53202 0.32964 0.57189 0.41886 0.73512 0.61969 0.73368 0.69402 0.62592 0.68501 0.37198 0.47246 0.28641 0.4089 0.38507 0.68082 0.22785 0.50568 0.33052 0.84206 1.2143 3.4899 0.6027 1.5208 0.38019 0.81818 0.75494 1.4798 0.36543 0.6429 0.39717 0.62541 0.42981 0.59704 0.38036 0.4803 0.62892 0.73016 0.47254 0.50948 0.96801 0.97534 2.4802 2.2914 0.40298 0.40252 0.32224 0.3627 0.29775 0.39573 0.23908 0.40835 0.072155 0.16027 0.1019 0.32009 0.029617 0.17483-0.019547 0.56581-0.26256 1.1496-0.047844 0.34284-0.012184 0.3879 0.031557 0.3522 0.16353 0.65655 0.18813 0.46144 0.15528 0.29473 0.24163 0.36944 0.33292 0.4151 0.41 0.41469 0.54419 0.44105 0.81464 0.54616 0.68014 0.4156 0.71428 0.39966 2.5229 1.297 1.1668 0.62382 0.85036 0.52085 0.6911 0.54424 0.35274 0.35827 0.41978 0.52473 0.24966 0.38688 0.16835 0.3145 0.19786 0.4802 0.11865 0.45165 0.048638 0.45666-0.001957 0.17846-0.021084 0.24306-0.070081 0.37208-0.13914 0.44467-0.2579 0.56247-0.26658 0.4411-0.27578 0.37902-0.24138 0.28966-0.75545 0.76808-0.59411 0.52045-0.3138 0.2443-0.83036 0.5559-0.52418 0.29032-0.5408 0.25981-0.61485 0.25397-0.80931 0.27583-1.1909 0.32806-1.3866 0.27236-1.1901 0.17844-0.4967 0.13048-0.43236 0.20682-0.47647 0.48074-0.11944 0.2225-0.10262 0.3365-0.020276 0.14705 0.015949 0.42911 0.16467 0.51635 0.19211 0.30919 0.12735 0.15045 0.25971 0.24582 0.30434 0.22917 0.5394 0.31942 0.54329 0.26112 1.2601 0.54781 0.35188 0.17638 0.29774 0.18468 0.36496 0.3019 0.18289 0.20015 0.14642 0.19922 0.17947 0.31667 0.17561 0.43909 0.16713 0.60808 0.5192 2.5454 0.97219 3.7261 0.29346 0.97727 0.47752 1.2967 0.68149 1.6156 0.33492 0.68535 0.24646 0.44211 0.2841 0.42027 0.13182 0.12326-0.13024 0.059648-0.078502 0.16826-0.062632 0.23326-0.38054 2.6292-0.061516 0.70766-0.017787 2.6779-0.10613 0.89967-0.12875 0.4936-0.19086 0.46395-0.37094 0.57818-0.47672 0.51841-0.71428 0.57962-0.50608 0.32744-0.5135 0.28481-0.5298 0.25704-0.66185 0.28045-2.2626 0.8481-1.0477 0.46144-0.60281 0.32053-1.6084 1.0046-2.2651 1.3117-0.69611 0.45432-1.3256 0.92618-0.76186 0.48611-0.78254 0.45092-0.79838 0.40058-0.81027 0.33252-0.46384 0.15371-0.62069 0.17957-1.0458 0.244-0.64346 0.10798-1.8306 0.18035-0.54046 0.075177-0.70511 0.13899-2.1868 0.53568-0.51994 0.10137-0.61052 0.082024-0.5997 0.027659-0.6311-0.037664-1.2276-0.16369-1.6905-0.27517-0.73082-0.073235-0.73302-0.028197-0.71633 0.071395-0.67666 0.21253-0.66086 0.34465-0.63893 0.45708-0.42822 0.37612-0.3087 0.30584-0.50245 0.55091-1.7606 2.1396-0.69161 0.79037-0.38594 0.42031-0.78304 0.77775-0.8336 0.72256-0.8743 0.64654-0.75402 0.4626-0.94018 0.44257-0.43135 0.14622-0.44207 0.10564-0.37968 0.053179-0.73665-0.006274-0.35136-0.060776-0.4313-0.12608-0.40553-0.16952-0.29055-0.15278-0.32206-0.19897-0.34455-0.2492-0.10762-0.088109-0.21139-0.24308-0.088397 0.26675-0.25973 0.35028-0.39514 0.38619-0.45644 0.33808-0.39151 0.2239-0.42061 0.18427-0.44126 0.13452-0.46801 0.079347-0.70508 0.027374-0.82452-0.045922-0.74669-0.083393-2.0432-0.32041-0.80445-0.1048-1.3687-0.11042-1.9159-0.071671-1.2814 0.018413-1.1396 0.076031-0.43317 0.056642-0.65425 0.12258-0.95599 0.25833-1.0738 0.39005-0.88267 0.38404-2.3307 1.1079-1.701 0.77335-0.42438 0.21189-0.9814 0.55497-0.84758 0.55019-0.541 0.38013-0.73368 0.55489-0.69172 0.5857-0.66518 0.65811-0.61201 0.73871-0.36401 0.50532-0.49182 0.72001-0.47266 0.74319-0.42523 0.75148-0.22053 0.44306-0.83939 1.9295-0.27006 0.68653-0.18762 0.54487-0.13065 0.46478-0.1337 0.70557-0.052404 0.58618 0.008962 2.0942-0.049804 0.76025-0.15498 0.72449-0.25928 0.61311-0.17476 0.30796-0.42914 0.61883-0.96405 1.2271-0.14558 0.20726-0.47783 0.79944-0.26888 0.60649-0.17986 0.53046-0.13389 0.49482-0.15977 0.76404-0.12003 0.92578-0.068734 1.4036-0.055112 3.3161-0.03029 0.78245-0.050564 0.59689-0.25341 1.7604-0.038847 0.46899 0.005995 0.73606 0.03581 0.47411 0.23469 2.1419 0.033255 0.81428 0.006598 0.82584-0.051489 0.83153-0.12266 0.73054-0.11552 0.47909-0.21735 0.6727-0.27585 0.67458-0.41052 0.84163-0.46947 0.83754-0.593 0.94834-0.65102 0.9234-0.44766 0.56849-0.83681 0.94926-0.63848 0.64881-1.4212 1.3802-1.3917 1.439-1.0344 1.0186-0.69256 0.64328-0.39652 0.3363-0.58384 0.4151-0.54862 0.33042-0.63948 0.33373-0.42013 0.18142-0.62948 0.196-0.64145 0.10111-1.3597 0.074217-0.66764 0.059938-0.40295 0.055235-0.63489 0.12155-0.59364 0.17028-0.96726 0.37599-1.1189 0.52366-1.2026 0.60789-1.8794 1.0156-0.55075 0.2782-2.1597 0.9773-0.41821 0.23482-0.36954 0.26078-0.54454 0.54753-0.41175 0.66182-0.177 0.45016-0.12189 0.47178-0.10267 0.82834-0.011747 0.50018 0.014568 0.35424 0.055964 0.50158 0.058484 0.27862 0.069534 0.2032 0.083008 0.11484-0.15564 0.11878-0.40924 0.12372-0.56896 0.10865-0.66661 0.070369-0.72396 0.017714-2.1596-0.075679-0.61869-0.00104-0.52949 0.027087-0.51866 0.063234-0.70157 0.15801-0.68193 0.22139-0.6671 0.26235-0.94776 0.42512-0.54074 0.27287-0.52402 0.29439-0.34424 0.21519-0.52293 0.36986-0.38302 0.309-1.263 1.1762-0.6701 0.57455-0.56637 0.43383-1.1879 0.81598-1.2327 0.77447-3.1528 1.8886-1.264 0.78104-3.1586 2.1153-1.1826 0.76298-0.58456 0.34647-0.57469 0.30657-0.55789 0.24856-0.53093 0.1666-0.48982 0.054615-0.43025-0.091346-0.34661-0.24835-0.2669-0.36296-0.18182-0.4155-0.08996-0.39331-0.008675-0.24753 0.027529-0.097809-0.17632 0.16876-0.82388 0.56969-0.63103 0.36741-0.91633 0.44684-0.98427 0.35816-1.0192 0.21174-0.78941 0.037068-0.79309-0.052645-0.79364-0.11355-3.3578-0.66455-0.81196-0.22606-0.79274-0.27064-0.76723-0.29987-1.0382-0.45515-1.1113-0.55383-0.81122-0.3585-0.23502-0.073111-0.43858-0.071709-0.39185 0.044385-0.35485 0.18954-0.28098 0.27241-0.23656 0.32644-0.24636 0.52726-0.15914 0.57756-0.11516 0.71562-0.049222 0.58748 0.003218 0.71667 0.046959 0.52767 0.054152 0.36136 0.16235 0.75367 0.35012 1.252 0.19596 0.61915 0.24767 0.66289 0.49306 1.1587 0.092551 0.26739 0.063256 0.26029 0.020795 0.22876-0.030785 0.23596-0.086984 0.20892-0.13643 0.19141-0.1174 0.11965-0.32529 0.22374-0.20993 0.090003-0.42337 0.11784-0.75964 0.13238-1.6465 0.21046-1.3873 0.22357-1.6683 0.15622-0.69144 0.10394-0.42417 0.097676-0.49225 0.14533-1.2507 0.46897-0.47651 0.15962-0.54015 0.14753-0.32496 0.05372-0.20606-0.1366-0.4474-0.43419-0.75197-0.80118-0.60191-0.70699-0.387-0.50572-0.36864-0.53522-0.39686-0.63144-0.33261-0.58785-0.37075-0.78051-0.27627-0.75868-0.90065-3.6302-0.15608-0.56096-0.19545-0.56212-0.25215-0.57327-0.46663-0.90582-0.52858-0.933-1.7692-2.9631-1.1424-1.8448-2.248-3.4861-1.8508-2.8008-1.3865-2.0391-1.4266-1.9965-0.73654-0.96129-0.75118-0.90772-0.77157-0.83156-0.79976-0.72488-0.83828-0.57761-0.89025-0.37707-0.8631-0.13129-0.90426 0.034491-0.93184 0.15457-0.94747 0.23758-1.018 0.31864-0.99886 0.3867-0.95399 0.46865-0.90115 0.56814-0.63494 0.4684-1.6666 1.359-0.4276 0.30036-0.22865 0.13249-0.37492 0.17661-0.47348 0.15612-0.52505 0.09098-0.42351 0.015143-0.34701-0.019401-0.378-0.054448-0.37086-0.089796-0.4186-0.1453-0.28554-0.12669-1.2762-0.70008-0.36735-0.17333-0.43371-0.16752-0.96536-0.2701-1.0533-0.18067-1.063-0.088793-0.90374-0.009603-0.55877 0.021959-0.85169 0.07084-0.84978 0.10378-3.0098 0.4286-1.8914 0.17435-1.7182 0.087746-2.0371 0.058472-1.5925-0.020959-1.5005-0.09384-0.98631-0.10505-0.71323-0.10197-0.84108-0.15427-1.3142-0.31771-1.3419-0.38478-0.66108-0.21752-0.65553-0.23675-1.0498-0.42872-0.52001-0.23867-0.81582-0.41124-1.4375-0.80753-2.1136-1.2991-0.85294-0.56069-0.94491-0.65712-1.7822-1.2803-0.90424-0.62071-0.47262-0.29506-0.74123-0.38814-0.61538-0.2419-0.52092-0.16074-0.62838-0.15763-2.3804-0.49324-0.65723-0.18212-0.62906-0.2345-0.2078-0.096416-0.72478-0.4205-0.70713-0.50262-1.5244-1.1979-1.3384-1.1534-2.0348-1.8622-1.1269-1.0008-1.1425-0.96778-1.0595-0.8455-1.0456-0.7661-1.3173-0.86866-0.79652-0.43134-0.28341-0.12568-0.66767-0.24755-0.72965-0.20736-0.70397-0.1411-0.91369-0.13153-0.89469-0.071936-1.0624-0.001706-0.70971 0.043303-0.76407 0.11285-0.87075 0.24345-0.96484 0.40155-0.95797 0.51109-0.96805 0.60991-0.66103 0.46351-0.62017 0.46758-1.6736 1.3898-0.21339-0.23744-0.25086-0.67124-0.28531-1.2272-0.14689-1.1421-0.081288-1.0813-0.1585-2.8922-0.11432-1.0875-0.12733-0.78351-0.17909-0.78612-0.26338-0.84186-0.1295-0.33592-0.23289-0.52289-0.39131-0.71907-0.48725-0.71696-0.34996-0.44679-0.49093-0.56578-0.89146-0.89705-0.80613-0.73767-2.3082-1.9441-0.4238-0.43442-0.27191-0.37042-0.27594-0.638-0.096297-0.51386-0.028652-0.4952 0.01568-0.74254 0.10236-0.85155 0.092751-0.43031 0.23794-0.80267 0.31831-0.79504 0.33556-0.71587 0.53109-1.0292 1.0256-1.8921 0.4096-0.6852 0.51765-0.76405 0.43177-0.54612 0.70199-0.78438 1.2612-1.3049 0.52304-0.56753 0.58403-0.71838 0.51899-0.81808 0.25518-0.5444 0.46188-1.1716 0.28572-0.61 0.26613-0.44058 0.47665-0.6301 1.3197-1.481 0.53342-0.65022 0.50038-0.67641 0.45317-0.69542 0.9345-1.6152 1.4252-2.2602 0.46906-0.9046 0.32946-0.90472 0.21984-0.95466 0.11084-0.99003-0.00514-1.0125-0.098766-0.84077-0.18344-0.84173-0.18285-0.60197-0.39118-1.0006-0.40231-0.83875-0.45857-0.83117-0.55562-0.89368-0.37097-0.54513-0.63594-0.85583-0.50685-0.62166-0.99017-1.1119-1.4612-1.5862-0.55076-0.6391-0.92199-1.1333-1.1546-1.5125-0.89402-1.2223-0.32495-0.48435-0.084412-0.20471 0.089128 0.043952 0.41765 0.081096 1.102 0.11292 0.72825 0.021776 0.68578-0.016735 0.58566-0.044261 0.53432-0.064774 0.65773-0.11002 0.63835-0.13362 0.8864-0.21994 0.92925-0.2741 0.86242-0.30894 0.95053-0.4395 0.72749-0.45582 0.69689-0.60468 0.52559-0.64139 0.52097-0.94548 0.37278-1.0401 0.26298-1.1061 0.18198-1.1507 0.12168-1.1794 0.075452-1.1964 0.037821-1.2044 0.004174-1.2051-0.029611-1.1993-0.06743-1.1871-0.11327-1.1679-0.091506-0.66669-0.17366-0.94834-0.24433-0.98862-0.23283-0.78243-0.88023-2.5891-0.33504-0.91679-0.39316-0.89515-0.55157-0.95654-0.75782-0.92994-0.80536-0.72411-0.4091-0.29892-0.95545-0.59948-1.0165-0.54807-4.1229-1.969-0.89998-0.49073-0.77317-0.50952-0.41543-0.3565-0.32311-0.39647-0.21929-0.43673-0.10937-0.52214 0.025144-0.54078 0.15116-0.5382 0.38673-0.69562 0.53682-0.65272 0.62425-0.60777 0.47774-0.40048 0.24408-0.17622 0.61718-0.36237 0.659-0.28515 0.29108-0.097363 0.38938-0.10292 0.56196-0.095396 1.9172-0.18036 1.9569-0.044778 0.66051-0.070504 0.50973-0.11719 0.47614-0.17566 0.32343-0.1699 0.39145-0.29399 0.34116-0.36864 0.3182-0.49266 0.2724-0.58992 0.22228-0.64852 0.15527-0.57908 0.26284-1.3283 0.43-3.0443 0.21956-1.1522 0.23757-0.79246 0.85099-2.0066 0.20433-0.56259 0.21043-0.67245 0.16244-0.58889 0.25034-1.1522 0.096758-0.63089 0.053695-0.64175 0.002777-0.6717-0.032138-0.53939-0.043647-0.44016-0.16108-1.043-0.14936-0.68642-0.18098-0.68628-0.25004-0.80995-0.3635-1.0344-0.67501-1.7147-2.912-7.1348-0.46875-1.0421-0.49775-1.0153-0.52731-0.97307-0.51051-0.87439-0.66171-1.2602-0.44591-0.95083-0.89228-2.0578-0.32152-0.80291-0.5128-1.4153-0.59624-1.871-0.92211-3.039-0.21499-0.61088-1.2852-5.1235-0.94861-4.2802-0.078214-0.48751-0.021498-0.46428 0.024267-0.21389 0.15754-0.62019 0.021915-0.29823-0.031905-0.16252-0.12834-0.14023-1.4419-2.162-3.5759-4.9474-1.0807-1.5942-0.55842-0.9111-0.51352-0.92531-0.3095-0.61881-0.99329-2.1231-0.28734-0.54166-0.31215-0.50912-0.34909-0.46296-0.40122-0.39913-0.42858-0.2999-0.47325-0.24574-0.50414-0.20819-2.0936-0.72607-0.48381-0.21894-0.43898-0.2636-0.37408-0.32789-0.31406-0.44678-0.23362-0.52886-0.17297-0.59381-0.12754-0.64516-0.093643-0.6852-0.11763-1.4482-0.058427-1.4602-0.036584-1.6896-0.022495-0.15578 0.057221-0.13821 0.23637-0.24171 0.41294-0.33265 0.53405-0.36753 0.93018-0.54453 1.0943-0.52845 0.7777-0.32924 2.1143-0.82899 0.8106-0.34815 3.1735-1.5374 1.5705-0.69249 0.8693-0.33835 0.8638-0.30034 0.85568-0.2552 0.8449-0.19976 0.60119-0.10148 0.5075-0.050789 0.42586-0.01069 0.41148 0.020165 0.89916 0.1168 3.3932 0.58194 1.4141 0.167 1.5507 0.11052 1.5466 0.040015 0.94176-0.013554 0.92703-0.045895 0.90548-0.083077 0.87547-0.12809 0.83495-0.18436 1.1414-0.34586 0.86849-0.23117 0.91968-0.20422 4.7189-0.91844 3.5893-0.80071 1.3357-0.33125 1.1681-0.31505 3.2218-0.95694 0.91957 0.37013 1.9494 0.84547 0.84014 0.43078 0.51502 0.31654 0.56894 0.40952 0.77263 0.7245 0.24882 0.19652 0.22411 0.12412 0.18609 0.059137" stroke="#bdc660"/>
    </defs>
    <g clip-path="url(#p85bd4ef80d)">
     <use y="280.512" fill="#bdc660" stroke="#bdc660" xlink:href="#mffc4a4a6f1"/>
    </g>
   </g>
  </g>
 </g>
 <defs>
  <clipPath id="p85bd4ef80d">
   <rect x="7.2" y="7.2" width="322.01" height="266.11"/>
  </clipPath>
 </defs>
</svg>
