<?xml version="1.0" encoding="UTF-8"?>
<!DOCTYPE svg  PUBLIC '-//W3C//DTD SVG 1.1//EN'  'http://www.w3.org/Graphics/SVG/1.1/DTD/svg11.dtd'>
<svg width="371.52pt" height="225.51pt" version="1.1" viewBox="0 0 371.52 225.51" xmlns="http://www.w3.org/2000/svg" xmlns:xlink="http://www.w3.org/1999/xlink">
 <metadata>
  <rdf:RDF xmlns:cc="http://creativecommons.org/ns#" xmlns:dc="http://purl.org/dc/elements/1.1/" xmlns:rdf="http://www.w3.org/1999/02/22-rdf-syntax-ns#">
   <cc:Work>
    <dc:type rdf:resource="http://purl.org/dc/dcmitype/StillImage"/>
    <dc:date>2024-07-04T12:11:45.790683</dc:date>
    <dc:format>image/svg+xml</dc:format>
    <dc:creator>
     <cc:Agent>
      <dc:title>Matplotlib v3.7.1, https://matplotlib.org/</dc:title>
     </cc:Agent>
    </dc:creator>
   </cc:Work>
  </rdf:RDF>
 </metadata>
 <defs>
  <style type="text/css">*{stroke-linejoin: round; stroke-linecap: butt}</style>
 </defs>
 <g id="figure_1">
  <g id="patch_1">
   <path d="m0 225.51h371.52v-225.51h-371.52v225.51z" fill="none"/>
  </g>
  <g id="axes_1">
   <g id="PatchCollection_1">
    <defs>
     <path id="m22e883a330" d="m233.03-181 0.268 0.60888 0.22042 0.42653 0.25627 0.41241 0.41399 0.52352 0.34715 0.34412 0.40767 0.322 0.63624 0.36791 0.39601 0.16697 0.50233 0.16001 0.63416 0.14127 0.93071 0.12258 1.0726 0.07116 1.6923 0.057357 0.87669 0.072833 0.48394 0.074863 0.5467 0.12711 1.0057 0.35854 0.88675 0.4093 2.6967 1.3598 1.1162 0.61905 0.54867 0.35906 0.85062 0.6251 1.748 1.4586 0.39169 0.29774 0.46359 0.29239 0.38193 0.1673 0.55616 0.062413 0.1311-0.02745 0.30948-0.13407 0.22359-0.15342 0.21018-0.18495 0.2653-0.28399 0.34412-0.43902 1.3028-1.9562 0.47672-0.64153 0.58121-0.6342 0.46818-0.40645 0.44568-0.29695 0.38709-0.14027 0.17159-0.019685 0.19408 0.013628 0.22297 0.067266 0.17677 0.094023 0.2057 0.15739 0.22412 0.23344 0.21075 0.2798 0.41137 0.7071 0.27799 0.58867 0.36519 0.88652 0.32042 0.87191 1.4129 4.1559 0.4539 1.1981 0.31082 0.74528 0.68484 1.5034 0.76139 1.5321 0.86538 1.6129 0.46877 0.80362 0.66005 1.0061 0.40108 0.52131 0.52793 0.62646 0.53819 0.53848 0.80413 0.53065 0.57437 0.22141 0.62702 0.16112 0.87847 0.1577 0.9299 0.10559 1.5182 0.075259 0.98105-0.009694 1.1337-0.10926 0.34203-0.057972 1.0125-0.23727 0.66429-0.20406 1.1225-0.41953 1.1234-0.50207 0.59206-0.31873 0.57893-0.35739 1.4106-0.99872 1.8148-1.3436 1.3181-0.92179 2.051-1.309 1.8391-1.1086 1.8667-1.0556 1.6305-0.83305 1.1349-0.49217 0.43674-0.15382 0.6955-0.19105 0.45263-0.086404 0.80938-0.074949 0.9835 0.061296 1.2014 0.26403 3.2512 1.0697 1.2283 0.30748 0.95126 0.15836 0.61794 0.044034 0.7924-0.019229 1.1063-0.1508 0.61077-0.14311 0.71664-0.20731 0.70512-0.24784 0.80504-0.33785 1.1763-0.53794 1.5487-0.79169 1.7741-0.97956 0.4684-0.2898 1.1004-0.78025 0.95601-0.81042 0.7988-0.7687 0.52001-0.55192 0.74127-0.86658 0.60588-0.77716 0.52356-0.73575 0.10618 0.003203 0.52695 0.19088 0.86286 0.43196 0.64396 0.39246 0.67324 0.51177 0.46042 0.44326 0.42636 0.48486 0.40188 0.51152 0.86802 1.1942 0.45718 0.70466 0.24703 0.44551 0.26631 0.57113 0.16484 0.42529 0.14148 0.43077 0.1874 0.7295 0.12542 0.73114 0.065993 0.966-0.011894 0.50717-0.13604 1.8942 0.032574 0.58721 0.12572 0.56729 0.21975 0.54076 0.41816 0.66479 0.44607 0.55382 0.89426 0.98421 1.0584 1.0785 1.1869 1.0072 0.40539 0.38113 0.35029 0.42485 0.31495 0.47799 0.28786 0.52056 0.26796 0.55426 1.3467 3.1503 0.55915 1.0831 0.39207 0.67256 0.63745 0.99239 0.73783 1.0505 3.0679 4.0438 0.92079 1.2996 0.70742 1.0798 0.10562 0.002844 0.16078 0.1207 0.17293 0.19018 0.22027 0.30243 0.30368 0.52785 0.2894 0.6355 0.43619 1.2046 0.22771 0.7385 0.7429 2.699 0.3551 1.1974 0.41456 1.1759 0.43182 0.97982 0.64233 1.1422 1.0265 1.6233 0.6116 1.064 0.27046 0.58563 0.32983 0.9142 0.23793 0.86142 0.23059 1.128 0.12495 1.1255-0.008778 1.1415-0.16459 1.1644-0.27821 1.1503-0.28811 0.86427-0.30471 0.73652-0.51963 1.0603-0.74834 1.347-1.2046 2.0469-0.77046 1.3829-0.19869 0.42207-0.34112 0.92064-0.12223 0.49675-0.078673 0.5777-0.011537 0.26869 0.017716 0.5143 0.084896 0.6461 0.29969 1.2487 0.55008 1.7731 0.23598 0.88703 0.12134 0.97849-0.066185 0.66689-0.20346 0.56488-0.18084 0.31275-0.17159 0.23584-0.52772 0.56624-0.43241 0.39007-0.47978 0.38622-0.87084 0.61311-1.1248 0.68994-1.6459 0.89142-2.595 1.2824-0.73671 0.4046-0.64207 0.39623-1.7935 1.1764-0.93384 0.65493-1.0226 0.80008-1.0265 0.90694-0.87924 0.93373-0.39507 0.49898-0.40612 0.6022-0.48565 0.87072-0.48103 1.036-1.0095 2.6216-0.38067 0.85215-0.28372 0.54592-0.33928 0.57441-0.33318 0.5006-0.42804 0.57752-0.73839 0.88848-0.75121 0.81525-0.90445 0.85291-0.57634 0.45591-0.77349 0.50233-0.67468 0.31846-0.50268 0.1322-0.28059-0.063042-0.14921-0.031231-0.33754 0.015855-1.1692 0.15625-1.6692 0.34632-2.1414 0.52672-1.5856 0.35324-1.2167 0.20005-0.84128 0.067262-0.84968 0.009122-1.2616-0.076755-0.80613-0.093315-3.0703-0.44465-1.3737-0.1167-0.97479-0.006227-0.76341 0.058329-1.197 0.19834-1.463 0.37482-0.79651 0.25506-2.3711 0.86811-0.96213 0.32211-3.6395 1.0285-2.3306 0.61684-1.8865 0.42712-1.7684 0.30166-1.7661 0.18464-1.0705 0.059364-1.4858 0.008386-0.75467-0.032642-1.484-0.14118-1.1921-0.18182-0.80708-0.16131-0.79503-0.20058-0.59339-0.18572-0.82579-0.32648-1.1517-0.58928-0.84002-0.51291-1.9949-1.3515-0.78082-0.45008-0.98307-0.4182-1.0089-0.30987-1.025-0.22178-0.69533-0.068537-0.70919-0.009306-0.80135 0.054361-0.89503 0.14651-0.70516 0.16858-1.2052 0.3597-1.3821 0.47455-1.1795 0.45501-0.80632 0.34622-0.85546 0.41597-0.91495 0.54994-0.53813 0.40764-0.46026 0.42606-0.45924 0.51864-0.49508 0.71952-0.22881 0.43487-0.22453 0.55055-0.20292 0.67067-0.23968 1.1772-0.29585 1.9824-0.1823 1.0029-0.17734 0.7308-0.27598 0.86017-0.3758 0.90339-0.57754 1.127-1.8256 2.9511-1.1144 1.9394-0.79422 1.5441-0.57847 1.273-0.57524 1.4952-0.32505 1.0059-0.32534 1.1422-0.39538 1.6833-0.42666 2.2667-0.12626-0.095031-0.2844-0.10405-0.57328-0.10717-0.57028-0.056437-0.42759-0.013634-0.41487 0.019828-0.22394 0.036105-0.39564 0.1158-1.7632 0.65617-1.0991 0.35121-1.6643 0.57971-0.4842 0.19165-1.7513 0.79563-1.0384 0.55402-1.3941 0.62038-3.3802 1.5795-0.097449-0.11744-0.22113-0.1848-1.0336-0.74341-0.89537-0.5797-1.5045-0.88566-2.171-1.1229-3.4205-1.5962-1.3971-0.67764-2.021-1.0259-2.2185-1.1802-2.4294-1.3706-1.66-1.0033-1.8755-1.2107-3.5361-2.3735-1.0584-0.65881-1.7899-0.98494-1.2939-0.63533-2.3865-1.1014-0.50432-0.26598-0.44799-0.27881-0.25507-0.18737-0.41914-0.37252-0.34549-0.37227-0.32565-0.40418-0.33448-0.46358-1.4545-2.2478-0.54047-0.77752-0.99682-1.2854-1.1203-1.2741-0.91016-0.93206-1.4711-1.4333-0.51559-0.52943-0.63497-0.70626-0.54304-0.66261-0.41818-0.56423-0.2204-0.34362-0.05425-0.1567-0.25-0.014743-0.57225 0.17283-0.69493 0.28493-0.59852 0.2849-0.91278 0.4939-0.79464 0.47903-1.0912 0.71686-2.8227 2.007-1.9371 1.3235-1.1564 0.71307-2.6312 1.5512-4.6991 2.9696-1.0819 0.6266-0.99986 0.50347-0.90676 0.38054-0.81585 0.28106-0.93857 0.24758-1.1068 0.20425-0.83324 0.097034-0.97611 0.03724-0.93208-0.04013-1.2379-0.15944-0.65537-0.14314-0.75888-0.23612-0.46648-0.19822-0.57054-0.31265-0.43632-0.2966-0.51297-0.42114-0.39498-0.39741-0.30564-0.36001-0.99332-1.3706-0.45194-0.55793-0.60065-0.58668-0.8926-0.74332-0.53605-0.36275-0.56108-0.25628-0.42477-0.10454-0.71406-0.011699-0.74337 0.14971-0.75289 0.27441-0.74306 0.36881-0.37374 0.22144-0.75929 0.55747-0.70641 0.66543-1.4577 1.6925-0.37927 0.40585-1.1968 1.1362-0.68106 0.60078-0.95426 0.76869-0.73934 0.54576-1.3187 0.91485-1.8491 1.2093-3.5905 2.2008-0.53442 0.28545-1.5409 0.75052-1.837 0.79103-1.3897 0.50455-0.77123 0.23802-0.91111 0.24639-1.2504 0.2845-2.0248 0.35201-2.2268 0.2558-1.954 0.10903-1.174 0.019729-1.4519-0.036192-1.0795-0.085773-0.60717-0.077122-0.87751-0.15704-0.56057-0.14464-0.24929-0.092512 0.035075 0.14596 0.031022 0.36442-0.003444 0.46319-0.051034 0.50629-0.11138 0.50732-0.18523 0.47554-0.27445 0.43738-0.68458 0.84532-0.2979 0.41954-0.2855 0.46006-0.54813 1.0373-0.54674 1.2183-1.4423 3.6098-0.50258 1.1933-0.50817 1.0715-0.61687 1.0975-0.7237 1.0876-0.48751 0.63108-0.4888 0.56181-0.51502 0.5385-0.74079 0.70763-1.9394 1.7053-0.44866 0.43803-0.8683 0.91591-0.91293 1.0712-0.43086 0.56082-0.48013 0.69232-0.38212 0.63297-0.51389 1.0643-0.50043 1.2563-0.67309 1.8997-0.38297 1.2112-0.21681 0.82218-0.14917 0.84471-0.028787 0.62828 0.015669 0.17469 0.039007 0.15208 0.03462 0.029597-0.001411 0.060535-0.058479 0.067696-0.19776 0.084523-0.27059 0.0561-0.46737 0.044555-0.50225 0.010349-1.507-0.081984-3.7807-0.43082-1.3545-0.11754-1.0266-0.058895-1.3339-0.034663-1.9401 0.036451-1.1878 0.095405-0.91693 0.13129-0.86663 0.18444-1.0283 0.32665-0.60951 0.27315-0.55367 0.31262-0.70466 0.49411-0.54338 0.42972-0.4915 0.4301-0.80331 0.77208-0.58287 0.44815-0.85788 0.41338-1.0118 0.29558-1.1128 0.19122-1.1684 0.091912-1.1838-0.010528-1.1617-0.12423-3.7232-0.81916-1.2751-0.2333-2.6145-0.42016-1.2651-0.28894-1.1835-0.41886-0.70685-0.36394-0.41965-0.2556-0.83545-0.60673-0.9228-0.77067-0.83375-0.78129-1.849-1.8798-1.1438-1.1111-0.49697-0.40698-0.59842-0.39138-0.65146-0.33483-0.60174-0.24925-1.9123-0.6337-0.80554-0.30411-0.27651-0.12618-0.85702-0.49587-0.80973-0.6088-0.75743-0.68529-0.69728-0.72662-1.3902-1.5558-0.84426-0.87711-0.4982-0.44441-0.45119-0.30395-0.51431-0.23084-0.57309-0.14702-0.61061-0.072848-0.63299-0.011949-0.62594 0.03847-0.75928 0.10715-0.47319 0.10474-0.34549 0.11207-0.14706 0.082388-0.0661 0.12566-0.17966 0.12241-0.31838 0.10472-0.50414 0.060515-0.97492-0.10784-0.48589-0.15639-0.56315-0.26997-0.51069-0.32063-0.5598-0.42601-0.55306-0.4901-0.87815-0.90203-0.97129-1.1498-0.92826-1.2399-0.65996-0.97038-0.65933-1.0495-0.70998-1.2359-0.64845-1.2585-0.45345-0.9896-0.40441-1.0005-0.30367-0.86691-0.16491-0.53298-0.27772-1.0604-0.22208-1.1272-0.17736-1.4195-0.06746-1.4166 0.046093-1.4067 0.17189-1.3899 0.22873-1.0698 0.29556-1.0594 0.34314-1.053 2.5134-6.8536 2.0896-6.1028 0.56519-1.7745 0.32194-1.2024 0.28689-1.2168 0.55269-2.7477 0.61122-3.5465 0.629-3.9127 0.26211-1.9929 0.12414-1.4952 0.058362-1.4984-0.032629-1.7724-0.077142-0.99782-0.19342-1.4829-0.18881-0.99525-0.23656-0.94985-0.272-0.84089-0.2672-0.64809-0.19496-0.39187-0.25665-0.4327-0.14847-0.21351-0.4021-0.47193-0.54394-0.47526-1.3023-0.93487-0.66688-0.57484-0.62248-0.66445-0.5407-0.73386-0.56659-1.0341-0.38578-0.86124-0.25823-0.71597-0.049925-0.43328 0.12231-0.045615 0.41408-0.34574 0.64931-0.72275 0.55018-0.79704 0.35909-0.77706 0.18264-0.57252 0.1754-0.7489 0.65732-3.3066 0.18216-0.74515 0.23118-0.70074 0.3114-0.67164 0.34476-0.62422 0.49672-0.80629 0.42073-0.50904 1.097-1.0464 0.39932-0.41601 1.084-1.2748 0.80065-1.0653 0.76769-1.1658 0.44677-0.75869 0.77692-1.455 2.1719-4.4995 0.97177-1.8871 1.0503-1.8333 2.0925-3.477 0.91704-1.6152 0.8291-1.5458 0.69309-1.4117 0.29615-0.66728 0.28577-0.7115 0.24801-0.71037 0.21318-0.74944 0.0999-0.44634 0.13361-0.89618 0.033463-0.49379 0.001287-0.415-0.030278-0.33587-0.059516-0.13669 0.76789-0.63387 4.8279-4.2411 1.9769-1.6105 1.2333-0.9262 1.4167-1.0138 1.4059-0.95998 1.2602-0.82317 0.9797-0.68191 4.0482-3.1423 0.77167-0.57555 1.0957-0.76508 0.51167-0.32933 0.87146-0.50327 0.53996-0.27448 0.60898-0.27777 1.1227-0.43888 1.1393-0.36251 0.85431-0.21961 0.84648-0.169 0.83085-0.10955 0.91689-0.037289 0.86893 0.076257 0.6144 0.15033 0.54635 0.22653 0.47026 0.2796 0.53235 0.44878 0.32703 0.36892 0.25894 0.35544 0.288 0.47644 0.24693 0.50427 0.19569 0.48149 0.33728 1.0353 0.70793 2.6837 0.28763 0.87753 0.42794 1.0651 0.2903 0.55594 0.2435 0.37274 0.29034 0.35551 0.38312 0.36819 0.4231 0.31864 0.58808 0.33387 0.75474 0.31305 0.6647 0.21394 1.3674 0.32598 2.3386 0.39774 2.1896 0.3203 1.3974 0.14278 1.1948 0.054807 0.020637 0.045068 0.092142 0.015151 0.32569-0.063493 0.39419-0.15126 0.56215-0.26785 1.4611-0.82383 1.7586-1.1141 1.0997-0.73305 1.0949-0.78866 1.2872-1.0559 1.2322-1.1406 1.183-1.1978 1.1413-1.2343 2.1863-2.5243 2.0966-2.549 6.0615-7.5578 2.0341-2.4067 1.0414-1.1499 1.0691-1.0939 1.1089-1.0156 1.1645-0.90726 1.2408-0.75928 1.1946-0.52777 1.2578-0.40424 1.3052-0.30991 1.3401-0.23775 1.365-0.18193 1.3818-0.13753 1.5762-0.11125 1.5809-0.069407 1.5776-0.027981 2.3127 0.04555 1.5428 0.10244 0.82327 0.081597 1.5905 0.2167 0.76138 0.13515 1.1934 0.26398 1.1072 0.3269 1.8336 0.72028 0.83591 0.30696 0.85975 0.2689 0.87655 0.21556 1.0648 0.15644 0.7177 0.01794 0.57555-0.031462 0.88824-0.11147 0.89197-0.16796 1.9955-0.44743 1.2739-0.33525 2.7433-0.81641 1.5155-0.41973 1.5939-0.41079 1.5381-0.34423 1.4133-0.22985 1.3509-0.1234 0.90241-0.032573 0.70941 0.003684 0.42911 0.031225 0.12118 0.049719 0.27423-0.019467 3.6549 0.079097 1.3684 0.001623 1.4104-0.095097 6.213-0.51138 1.4849-0.2069 2.6621-0.53724 2.0214-0.34382 1.7112-0.2168 3.4988-0.33682 1.8111-0.24608 1.04-0.21166 0.6307-0.16655 0.75719-0.24686 1.0569-0.43998 1.1362-0.60448 0.74505-0.52619 0.62616-0.62168 0.22154-0.29866 0.20604-0.33999 0.27046-0.5891 0.12064-0.3499 0.15278-0.60372 0.1465-1.1184 0.020676-0.38593 0.007871-0.82872-0.026011-0.76405-0.062743-0.92901-0.22524-2.3954-0.042086-0.949 0.032542-1.0837 0.048867-0.56393 0.15752-1.0972 0.1723-0.75048 0.24791-0.69794 0.3827-0.69904 0.47035-0.64578 0.66064-0.76606 0.61964-0.63851 0.5776-0.51779 0.60926-0.4599 0.45245-0.29033 0.43754-0.24341 0.55483-0.25814 0.49632-0.18563 2.5985-0.83784 1.4695-0.50736 0.89561-0.34738 2.7116-1.1683 0.52904-0.20384 1.0596-0.34656 0.92524-0.23518 1.0669-0.20412 1.0172-0.12932 1.1275-0.071322 1.095-0.010307 1.5352 0.053386 0.8176 0.057006 3.1308 0.3478-0.009187 0.047554 0.066128 0.20505 0.29435 0.68262 0.91463 1.8853 1.0415 1.9833 1.9436 3.571 1.1814 2.3853 0.40217 0.90673 0.5344 1.348 0.44747 1.2717 0.27132 0.92128 0.19661 0.91754 0.096434 0.82537 0.016672 0.76813-0.096062 1.162-0.15574 0.86183-0.10724 0.4433-0.15436 0.54305-0.57023 1.7362-0.22181 0.8273-0.10113 0.61016-0.033657 0.82328 0.082086 0.81648 0.10847 0.52554 0.17734 0.6199 0.20819 0.57256" stroke="#bdc660"/>
    </defs>
    <g clip-path="url(#p0b25ca9320)">
     <use y="225.513696" fill="#bdc660" stroke="#bdc660" xlink:href="#m22e883a330"/>
    </g>
   </g>
  </g>
 </g>
 <defs>
  <clipPath id="p0b25ca9320">
   <rect x="7.2" y="7.2" width="357.12" height="211.11"/>
  </clipPath>
 </defs>
</svg>
