<?xml version="1.0" encoding="UTF-8"?>
<!DOCTYPE svg  PUBLIC '-//W3C//DTD SVG 1.1//EN'  'http://www.w3.org/Graphics/SVG/1.1/DTD/svg11.dtd'>
<svg width="280.31pt" height="280.51pt" version="1.1" viewBox="0 0 280.31 280.51" xmlns="http://www.w3.org/2000/svg" xmlns:xlink="http://www.w3.org/1999/xlink">
 <metadata>
  <rdf:RDF xmlns:cc="http://creativecommons.org/ns#" xmlns:dc="http://purl.org/dc/elements/1.1/" xmlns:rdf="http://www.w3.org/1999/02/22-rdf-syntax-ns#">
   <cc:Work>
    <dc:type rdf:resource="http://purl.org/dc/dcmitype/StillImage"/>
    <dc:date>2024-07-04T12:11:39.715057</dc:date>
    <dc:format>image/svg+xml</dc:format>
    <dc:creator>
     <cc:Agent>
      <dc:title>Matplotlib v3.7.1, https://matplotlib.org/</dc:title>
     </cc:Agent>
    </dc:creator>
   </cc:Work>
  </rdf:RDF>
 </metadata>
 <defs>
  <style type="text/css">*{stroke-linejoin: round; stroke-linecap: butt}</style>
 </defs>
 <g id="figure_1">
  <g id="patch_1">
   <path d="m0 280.51h280.31v-280.51h-280.31v280.51z" fill="none"/>
  </g>
  <g id="axes_1">
   <g id="PatchCollection_1">
    <defs>
     <path id="m71549e359a" d="m253.62-68.049-0.29558-0.18102-0.20959-0.070583-1.3798-0.32812-1.2376-0.13333-1.1714-0.015871-1.5255 0.10808-2.0352 0.33459-1.4822 0.35298-1.4126 0.40008-1.4503 0.45548-7.119 2.4423-4.2002 1.3378-2.4981 0.9012-1.6288 0.68097-1.4553 0.68523-4.7627 2.4934-0.94287 0.42635-1.3847 0.54472-2.2015 0.69301-1.7881 0.44723-5.2797 1.1635-1.8551 0.49426-1.5282 0.47872-1.4988 0.55062-2.1822 0.98899-1.8453 1.0517-1.9079 1.3248-1.399 1.1203-4.3214 3.7477-2.3447 1.7818-1.6421 1.1051-1.9875 1.2074-1.8867 1.0535-2.6116 1.3643-1.4372 0.69195-2.2602 0.97398-3.0349 1.117-1.8282 0.59671-5.0398 1.4805-7.318 1.9408-2.617 0.83067-1.8792 0.74185-1.8499 0.87836-1.3939 0.76332-1.3638 0.82965-1.579 1.0698-1.7547 1.3485-0.88577 0.7547-2.0798 1.9837-0.75957 0.80615-2.2764 2.6114-0.2636 0.2473-0.17317 0.065527-0.10722 0.014339-0.23791-0.063372-0.57577-0.23973-0.717-0.37906-0.80438-0.50798-0.81588-0.60614-1.234-1.1229-1.2953-1.4877-2.2262-3.1617-1.0603-1.3354-2.4225-2.7795-3.3098-3.336-0.53054-0.63937-0.45983-0.67568-0.32212-0.60957-0.25719-0.63705-0.19222-0.65906-0.13485-0.74414-0.057583-0.75728 0.018918-0.76313 0.087969-0.73124 0.62471-2.8469 0.11444-0.69452 0.056557-0.88985-0.065877-0.87795-0.13311-0.61092-0.20381-0.59243-0.27228-0.56873-0.49115-0.7428-0.61203-0.67503-0.62922-0.52661-0.70572-0.46493-0.77335-0.40111-0.93989-0.37082-1.0017-0.29331-1.0491-0.22086-1.8225-0.21324-1.7103-0.03179-1.4553 0.095281-1.3101 0.19154-0.17046-0.15289-0.15945-0.52246-0.11678-0.68447-0.45106-4.823-0.26682-1.5237-0.37948-1.4142-0.39235-1.0613-0.26979-0.59921-0.61774-1.1296-0.87412-1.2589-0.87891-1.0302-0.90348-0.90083-0.85751-0.75119-1.2464-0.96317-1.1603-0.79731-1.2763-0.79501-5.0075-2.7473-1.0614-0.68453-0.80231-0.62169-0.89712-0.85026-1.0108-1.1602-4.2664-5.6503-1.1088-1.6023-1.2795-2.0392-1.0763-2.019-0.46662-1.0414-0.66403-1.6967-0.36536-1.0962-0.29798-1.1063-0.20525-1.0322-0.10887-0.85958-0.051461-1.2964 0.036367-1.091 0.72944-5.6736 0.22921-1.2276 0.27613-0.74123 0.31034-0.45162 0.39158-0.34239 0.4926-0.25135 0.78406-0.18256 1.3571 0.006631 1.2867 0.20403 4.5065 0.92178 2.3376 0.32141 1.5433 0.13472 2.245 0.073741 1.5441-0.06238 1.4797-0.18516 1.4247-0.34369 1.3709-0.53375 0.9609-0.49248 0.86168-0.51814 1.0043-0.68184 3.0586-2.3013 1.6769-1.1996 4.6451-3.0671 1.2194-0.93812 0.58116-0.53128 0.48244-0.50656 0.75979-0.97084 0.6224-1.0514 0.56778-1.4203 0.26394-1.167 0.10954-1.193-0.010501-1.1061-0.087013-1.0912-0.40907-3.2389-0.06386-1.7664 0.12016-1.4488 0.35763-2.3185 0.054827-1.462-0.052756-0.60552-0.17818-0.93744-0.35243-1.0235-0.30039-0.59629-0.37341-0.57694-0.73705-0.84203-0.96092-0.78235-1.173-0.70187-1.6115-0.6641-1.7121-0.60884-4.0871-1.7192-2.9474-1.1113-1.4567-0.63616-1.144-0.6165-1.1109-0.70295-1.4407-1.0407-6.3415-4.9867-2.0659-1.5317-0.93728-0.58926-1.2406-0.65797-2.1529-0.84748-2.3335-0.64414-2.4678-0.49156-2.5664-0.37871-2.6373-0.29681-2.687-0.23914-10.956-0.72726-5.4437-0.43879-2.6689-0.30375-2.6087-0.39857-2.5224-0.53412-2.4017-0.72377-2.2871-1.0153-0.4118-0.23427-1.924-1.3792-1.752-1.6748-1.6246-1.9013-1.5321-2.0747-1.4668-2.2083-1.4224-2.3125-1.3941-2.3957-2.7482-4.9883-9.3831-17.88-3.8563-7.12-1.6227-2.8901-0.37369-0.56653 11.383-7.2219 6.4097-4.147 3.107-2.1179 3.289-2.4437 1.7556-1.4103 6.894-5.9299 1.5886-1.3043 1.5033-1.1193 1.8717-1.1877 3.3838-1.8282 2.9464-1.5164 3.9787-1.916 2.1464-0.975 6.6514-2.7686 8.8983-3.5023 4.531-1.9681 4.4325-2.1147 7.3792-3.7271 10.855-5.3482 0.52571 0.4613 0.43625 1.0916 0.28488 1.5124 0.045485 1.7811-0.16722 1.4915-0.26398 1.3832-1.0797 4.912-0.37154 2.4431-0.12188 1.2141-0.11028 1.8914-0.028031 1.6187 0.021502 1.6012 0.14747 3.0144 0.25287 3.0187 0.32531 3.0125 0.78021 5.9866 1.3303 8.8543 0.97008 5.7856 1.1019 5.6114 0.64308 2.6933 0.74218 2.5764 0.8826 2.4127 1.0783 2.1859 1.3468 1.8749 1.4097 1.2996 1.5929 1.0563 0.7733 0.41334 1.5009 0.63314 1.5892 0.49589 2.3066 0.51791 7.4391 1.2356 6.4231 0.71266 1.1261 0.085466 1.3181 0.053864 1.5693-0.001868 1.8837-0.090707 2.2617-0.21871 1.9471-0.27597 1.5768-0.29654 2.2519-0.56476 1.1168-0.35474 2.2206-0.88207 1.2997-0.62892 2.2001-1.2328 2.3879-1.5383 1.3351-0.93578 3.0877-2.3207 1.7508-1.3894 7.7189-6.3991 6.9941-5.707 2.7608-2.1269 1.7247-1.253 2.3414-1.6101 2.9863-1.9129 1.5854-0.94427 1.4713-0.81647 1.5119-0.74501 1.2306-0.46564 0.88725-0.093611 0.23594 0.12277 0.14086 0.29177 0.01735 0.31968-0.082889 0.63606-0.38268 1.8917-0.062874 0.56856-0.009732 0.3927 0.098226 0.70833 0.19451 0.46479 0.36316 0.49513 1.4234 1.2324 0.60623 0.69442 0.32088 0.5867 0.13074 0.33944 0.14088 0.57187 0.040911 0.37982-0.013336 0.54688-0.064324 0.40108-0.34462 1.0027-0.70676 1.5444-0.44501 1.1818-0.21563 1.0652-0.018801 0.69548 0.050018 0.59771 0.1609 0.84858 0.29344 0.95078 0.3046 0.73485 0.42586 0.82842 0.4224 0.69135 1.0472 1.4203 1.2916 1.4804 3.3476 3.483 0.69478 0.78013 1.1219 1.4008 1.2061 1.7856 0.86867 1.5277 0.5996 1.2068 0.54515 1.2387 0.77668 2.1108 0.50075 1.7418 0.43543 2.0817 0.24063 1.8187 0.13052 2.2423-0.029927 2.0235-0.1714 2.0708-0.19621 1.4002-0.25437 1.3856-0.67867 2.8058-0.38526 1.3244-1.4614 4.5229-0.25378 0.97087-0.22215 1.1093-0.14517 1.1441-0.056083 1.6406 0.051775 1.0503 0.24152 1.9343 0.42147 2.0145 0.75141 2.5393 0.61014 1.6563 0.72001 1.7289 0.96198 2.1246 2.8594 6.069 1.0904 2.2111 1.5524 2.812 0.697 1.1111 1.0201 1.4758 1.1107 1.4416 0.98061 1.1541 1.0302 1.1145 1.1786 1.1725 1.5053 1.368 1.6171 1.3493 2.0764 1.6064 1.6359 1.1967 2.03 1.4137 4.0611 2.627 5.9623 3.4908 1.3357 0.83108 1.3746 0.95678 1.299 1.0584 1.0249 0.98553 1.0542 1.2023 1.2121 1.704 1.0906 1.9861 0.73861 1.8002 0.49877 1.6705 0.33675 1.6656 0.12914 0.95924 0.14551 2.4016-0.024699 1.6662-0.11689 1.7307-0.20045 1.7537-0.39066 2.3971-0.57219 2.6454-0.63945 2.3896-0.57284 1.8381-0.76443 2.1349-0.71404 1.7286-0.67441 1.4306-0.73864 1.3642-0.62638 1.0033-0.88927 1.1883-0.32426 0.33303-0.15356 0.050262" stroke="#bdc660"/>
    </defs>
    <g clip-path="url(#pefaf7226da)">
     <use y="280.512" fill="#bdc660" stroke="#bdc660" xlink:href="#m71549e359a"/>
    </g>
   </g>
  </g>
 </g>
 <defs>
  <clipPath id="pefaf7226da">
   <rect x="7.2" y="7.2" width="265.91" height="266.11"/>
  </clipPath>
 </defs>
</svg>
