<?xml version="1.0" encoding="UTF-8"?>
<!DOCTYPE svg  PUBLIC '-//W3C//DTD SVG 1.1//EN'  'http://www.w3.org/Graphics/SVG/1.1/DTD/svg11.dtd'>
<svg width="232.89pt" height="280.51pt" version="1.1" viewBox="0 0 232.89 280.51" xmlns="http://www.w3.org/2000/svg" xmlns:xlink="http://www.w3.org/1999/xlink">
 <metadata>
  <rdf:RDF xmlns:cc="http://creativecommons.org/ns#" xmlns:dc="http://purl.org/dc/elements/1.1/" xmlns:rdf="http://www.w3.org/1999/02/22-rdf-syntax-ns#">
   <cc:Work>
    <dc:type rdf:resource="http://purl.org/dc/dcmitype/StillImage"/>
    <dc:date>2024-07-04T12:11:42.280847</dc:date>
    <dc:format>image/svg+xml</dc:format>
    <dc:creator>
     <cc:Agent>
      <dc:title>Matplotlib v3.7.1, https://matplotlib.org/</dc:title>
     </cc:Agent>
    </dc:creator>
   </cc:Work>
  </rdf:RDF>
 </metadata>
 <defs>
  <style type="text/css">*{stroke-linejoin: round; stroke-linecap: butt}</style>
 </defs>
 <g id="figure_1">
  <g id="patch_1">
   <path d="m-0 280.51h232.89v-280.51h-232.89v280.51z" fill="none"/>
  </g>
  <g id="axes_1">
   <g id="PatchCollection_1">
    <defs>
     <path id="m3e636f8a2e" d="m209.17-213.82 2.0353 5.4691 0.59693 1.3535 1.7142 3.6051 0.25391 0.62971 0.18679 0.60429 0.092155 0.66391-0.06199 0.71719-0.1478 0.50164-0.58193 1.4722-0.12771 0.65234 0.019618 0.95438 0.11138 0.51908 0.7429 3.0236 0.4274 2.0386 0.45472 2.5531 0.31978 2.2402 0.2989 2.9255 0.12235 1.6688 0.106 2.1485 0.026399 3.1935-0.14987 3.5685-0.52241 7.6205-0.17837 3.6972-0.060461 4.0652 0.19337 7.713-0.004846 1.5692-0.046509 1.5816-0.19039 3.0681-0.32742 2.5043-0.28092 1.4561-0.29901 1.2654-0.75842 2.5536-0.45876 1.2836-0.74262 1.8281-0.93072 1.9827-0.90135 1.6753-1.2292 1.9997-1.3437 1.9054-1.6215 1.9877-1.2723 1.3521-1.3633 1.2526-1.2302 0.96767-1.2928 0.89553-1.5457 0.95731-2.7351 1.4967-2.3834 1.1676-1.7243 0.77635-2.0167 0.81821-1.766 0.62168-1.3095 0.39966-1.3151 0.34606-2.1708 0.46018-4.2474 0.81962-2.0067 0.54695-1.6602 0.64797-1.5376 0.79833-1.3901 0.93148-0.91163 0.76721-0.79347 0.83579-0.34999 0.44869-0.64657 1.0311-0.46388 1.1124-0.29753 1.6756 0.036841 1.8023 0.30102 1.9455 0.48268 2.0159 3.0146 10.635 0.86705 2.5292 0.62553 1.5941 1.6001 3.5643 1.894 4.4604 1.0501 2.3302 1.1349 2.2314 0.944 1.6566 1.4073 2.22 1.4632 2.1209 5.2187 6.9869 2.1675 3.064 3.6107 5.4171 2.9899 4.6743 0.68567 1.1679-0.15723-0.044329-0.37519 0.10076-0.66843 0.30111-1.6877 0.9744-1.8967 1.3044-2.2437 1.7166-3.7105 2.9517-1.3276 1.1237-1.2165 1.1772-2.7248 2.8687-0.69356 0.62974-1.2973 1.0017-1.7104 1.0128-0.54056 0.25653-1.2573 0.49219-1.5778 0.43951-1.3925 0.25164-0.83727 0.098588-1.3487 0.081822-0.84553-2.6e-5 -1.1999-0.075091-1.5721-0.23519-1.8448-0.47408-1.4004-0.49977-1.3992-0.61441-1.3775-0.70326-1.5095-0.86214-1.6399-1.011-3.1048-2.0217-7.4415-4.9794-3.4341-2.1875-4.4535-2.6374-2.8737-1.5571-2.1125-1.0432-1.8503-0.82855-1.8671-0.73735-1.7155-0.57074-1.7328-0.45415-1.5057-0.28184-1.5142-0.17718-2.3249-0.068417-2.3136 0.16414-1.2482 0.1847-1.236 0.24878-1.3065 0.33406-1.2859 0.39964-1.6017 0.59727-1.5564 0.68869-1.2047 0.60832-3.5888 1.9485-1.5585 0.77178-4.3377 1.9824-1.8586 0.91176-2.3585 1.2975-2.4358 1.5267-1.2201 0.85278-1.1785 0.9024-1.7894 1.5788-1.7087 1.8084-1.4338 1.7355-3.0121 3.903-1.5129 1.7071-0.95738 0.89903-1.0166 0.80266-0.97243 0.63042-1.0195 0.5297-2.0913 0.71377-1.6167 0.25678-2.1182 0.019596-1.2504-0.11881-1.2503-0.19397-1.8539-0.39821-1.7722-0.46978-3.5763-0.98589-1.4851-0.46361-1.5132-0.56819-1.8175-0.8508-1.1676-0.65032-1.1375-0.7093-1.1966-0.82384-2.0547-1.5894-1.2504-1.0901-0.90822-0.89713 0.096242-0.45168 0.4246-0.564 1.661-1.8026 1.9852-1.918 1.0039-0.88414 2.2396-1.803 5.509-4.069 1.4524-1.1861 0.84638-0.83 0.69486-0.93197 0.24073-0.48881 0.13057-0.40396 0.073042-0.91319-0.22415-0.87182-0.30994-0.54821-0.52592-0.64194-0.71943-0.68526-0.61843-0.52188-0.5861-0.4667-1.7602-1.2655-2.5113-1.5567-2.1523-1.0991-1.02-0.43822-1.2371-0.45744-3.5542-1.1576-1.7672-0.72432-2.4523-1.2589-2.277-1.3811-1.1704-0.85752-0.46966-0.42331-0.41522-0.44897-0.49889-0.69818-0.19187-0.3386-0.2689-0.57402-0.27455-0.74167-0.28686-0.9829-0.31746-1.3384-0.38267-2.2113-0.25501-2.9099-0.20098-4.456-0.22541-2.0261-0.46646-1.9008-0.67018-1.9055-2.0012-4.7704-0.56364-1.4382-0.77213-2.3621-0.4897-2.1267-0.22575-1.5258-0.12841-2.0107 0.036056-1.5643 0.15348-1.5668 0.29863-1.717 0.35257-1.4292 0.27738-0.9168 0.48089-1.3436 0.51798-1.2328 0.8124-1.6997 1.8479-3.5625 0.90037-1.8735 0.69376-1.7683 0.37735-1.4753 0.11757-2.0788-0.2955-2.1085-0.63814-2.0989-0.93851-2.0442-1.2228-1.9348-1.5159-1.7567-1.5025-1.2848-1.6763-1.1232-1.8033-0.97622-1.8873-0.83646-1.9296-0.69817-3.6741-1.1044-1.5618-0.54012-1.6411-0.6497-1.7908-0.86331-3.5912-1.9841-0.24896-0.092633 0.086249-0.24527 0.14701-0.99242 0.17093-2.0404 0.097522-2.5237 0.10402-5.9732 0.13649-2.6738 0.17337-1.7802 0.17751-1.3342 0.33938-1.8214 0.31914-1.1839 0.41412-1.124 0.35164-0.7377 0.37216-0.65837 0.82577-1.2122 1.1071-1.3273 0.95989-1.036 1.8686-1.9098 1.2498-1.1797 0.73448-0.62958 0.85934-0.65217 1.1495-0.75484 1.406-0.79668 2.3255-1.1311 2.8564-1.1935 2.9195-0.99782 1.6507-0.466 3.5203-0.86617 1.0577-0.35013 1.1661-0.49395 1.0838-0.53398 1.663-0.89936 1.4881-0.89383 0.91014-0.61121 1.5219-1.1502 1.474-1.2733 1.0699-1.0651 4.9091-5.3683 0.88472-0.84707 1.3582-1.1641 2.889-2.1961 4.7005-3.2796 1.3275-1.0088 3.5001-2.849 1.2636-0.9564 2.1049-1.4255 1.4979-0.85958 1.5558-0.67289 0.47709-0.15283 0.78888-0.20346 1.3934-0.23926 1.2775-0.099862 1.1398 0.001157 4.0257 0.17892 1.4434-0.040462 1.0286-0.10388 0.9641-0.17343 1.673-0.54686 1.5205-0.81265 1.3165-1.0389 1.0474-1.2407 0.57569-1.0434 0.46944-1.1566 1.6424-4.4551 0.57193-1.6937 0.45654-1.7311 0.27949-1.6193 0.68233-5.1591 0.2703-1.6638 0.46102-1.6169 0.92996-1.837 1.289-1.7532 1.0733-1.1893 1.1829-1.1612 1.2718-1.1386 1.766-1.4577 1.8639-1.4279 1.6457-1.1894 3.4179-2.3374 9.597-6.2769 4.5536-3.0851 3.0347-2.1909 2.9591-2.2665 1.801-1.3204 8.515-6.0347 5.4876 9.375 2.7083 4.5239 2.6776 4.3311 2.7513 4.214 1.877 2.6653 0.96714 1.2717 0.99767 1.2156 1.0401 1.142 0.59166 0.58588 0.67814 0.6149 0.88804 0.71333 1.2102 0.80205 0.89168 0.4716 1.1823 0.49291 0.89454 0.29865 2.9899 0.87783 0.9027 0.33447 0.8392 0.42198 0.90711 0.65836 0.83215 0.78955 2.4416 2.6496 0.93042 0.81337 1.0951 0.73264 1.3048 0.68772 1.1281 0.51121 2.5382 0.99542 1.8677 0.62044 1.9964 0.59847 5.5351 1.5073 2.8723 0.6852 4.4331 0.97378 1.725 0.48497 0.5298 0.19944 0.17478 0.13461" stroke="#bdc660"/>
    </defs>
    <g clip-path="url(#pe5e4d0c7dc)">
     <use y="280.512" fill="#bdc660" stroke="#bdc660" xlink:href="#m3e636f8a2e"/>
    </g>
   </g>
  </g>
 </g>
 <defs>
  <clipPath id="pe5e4d0c7dc">
   <rect x="7.2" y="7.2" width="218.49" height="266.11"/>
  </clipPath>
 </defs>
</svg>
