<?xml version="1.0" encoding="UTF-8"?>
<!DOCTYPE svg  PUBLIC '-//W3C//DTD SVG 1.1//EN'  'http://www.w3.org/Graphics/SVG/1.1/DTD/svg11.dtd'>
<svg width="186.65pt" height="280.51pt" version="1.1" viewBox="0 0 186.65 280.51" xmlns="http://www.w3.org/2000/svg" xmlns:xlink="http://www.w3.org/1999/xlink">
 <metadata>
  <rdf:RDF xmlns:cc="http://creativecommons.org/ns#" xmlns:dc="http://purl.org/dc/elements/1.1/" xmlns:rdf="http://www.w3.org/1999/02/22-rdf-syntax-ns#">
   <cc:Work>
    <dc:type rdf:resource="http://purl.org/dc/dcmitype/StillImage"/>
    <dc:date>2024-07-04T12:11:40.843822</dc:date>
    <dc:format>image/svg+xml</dc:format>
    <dc:creator>
     <cc:Agent>
      <dc:title>Matplotlib v3.7.1, https://matplotlib.org/</dc:title>
     </cc:Agent>
    </dc:creator>
   </cc:Work>
  </rdf:RDF>
 </metadata>
 <defs>
  <style type="text/css">*{stroke-linejoin: round; stroke-linecap: butt}</style>
 </defs>
 <g id="figure_1">
  <g id="patch_1">
   <path d="m0 280.51h186.65v-280.51h-186.65v280.51z" fill="none"/>
  </g>
  <g id="axes_1">
   <g id="PatchCollection_1">
    <defs>
     <path id="m1dce89e351" d="m164.49-253.07 0.41689 1.0086 0.20721 0.57729 0.14726 0.55371 0.036744 0.25817 0.00216 0.24117-0.042266 0.22035-0.08967 0.19305-0.48635 0.70848-0.15378 0.39035-0.045627 0.26971-5.82e-4 0.25498 0.031555 0.25988 0.11559 0.48136 0.16259 0.48507 0.29491 0.72616 0.35708 0.75391 0.51654 0.99297 1.1407 2.094 1.249 1.9528 0.019244 0.074307-0.098027 0.28288-0.20456 0.44654-0.47726 0.9666-0.44658 0.78632-0.95169 1.5462-0.475 0.71617-0.7604 1.0102-0.85436 1.0036-0.92222 0.99109-1.2028 1.2092-3.4635 3.3705-0.96307 1.0087-0.89079 1.0216-0.497 0.63231-0.45576 0.64316-1.3797 2.295-0.68083 1.0413-0.73864 1.037-3.9148 5.2711-1.8887 2.3582-1.0807 1.2442-1.1371 1.1647-1.7059 1.6191-3.8406 3.5845-1.3837 1.1871-0.98701 0.78654-1.1901 0.85989-5.2831 3.4726-0.92713 0.64261-0.84743 0.6828-0.72806 0.75854-0.42984 0.6076-0.36254 0.65314-0.47566 1.1004-1.0554 3.0043-0.28495 0.70108-0.76215 1.6617-0.32015 0.85921-0.38517 1.3714-0.10292 0.47579-0.1493 1.0071-0.070557 1.0947 0.008472 1.2196 0.076661 1.631 0.045002 2.0192 0.057119 0.95911 0.10346 0.6935 0.18168 0.76964 0.43108 1.2296 0.28032 0.62364 0.51054 0.98732 0.77403 1.3267 0.77559 1.2433 3.5176 5.4706 3.8553 6.2165 0.89455 1.3504 0.44037 0.60636 0.69659 0.84156 0.75024 0.70925 0.54307 0.38711 0.63907 0.37371 1.4108 0.74734 0.74311 0.45734 1.0074 0.7969 0.97008 0.94892 0.94587 1.057 2.8126 3.4645 0.97023 1.1481 1.0102 1.0924 1.0676 1.0011 0.53715 0.43824 2.4875 1.8059 1.3672 1.086 2.0503 1.7883 0.88415 0.86722 0.58451 0.66262 0.54985 0.69465 0.57009 0.79436 0.69389 1.084 0.98852 1.7289 0.57132 0.93926 0.74146 1.0899 0.75931 1.0256 0.87268 1.0403 1.0052 1.0671 1.3913 1.324 2.1133 1.8378 0.67428 0.66991 0.85125 0.9471 0.70479 0.87033 0.71311 1.0064 1.0658 1.7247 0.18174 0.33393 0.15227 0.37861-5.5832 3.9569-1.1809 0.86581-1.9402 1.4862-1.9898 1.4366-2.9858 2.0229-6.2927 4.1158-2.2411 1.5326-1.079 0.77985-1.2222 0.93624-1.1579 0.95578-0.83388 0.74655-0.77565 0.76137-0.70375 0.7798-0.84522 1.1496-0.60977 1.2045-0.30229 1.0602-0.17724 1.091-0.4474 3.3828-0.18326 1.0617-0.29935 1.1351-0.37501 1.1106-1.0769 2.9212-0.30781 0.75834-0.37747 0.68417-0.68679 0.81355-0.86323 0.68119-0.997 0.53285-1.097 0.35857-0.63216 0.11372-0.67442 0.068112-0.94646 0.02653-2.6396-0.11732-0.74735-7.59e-4 -0.83763 0.065479-0.91363 0.15688-0.51726 0.1334-0.31282 0.10021-1.0201 0.44121-0.98218 0.56362-1.3802 0.9347-0.82852 0.62711-2.295 1.8681-0.8704 0.6615-3.0821 2.1504-1.8943 1.44-0.89057 0.7633-0.5801 0.55542-3.2189 3.52-0.70156 0.69841-0.96651 0.83493-0.99792 0.7542-0.59677 0.40076-0.97571 0.58608-1.0904 0.5897-0.71062 0.35013-0.76462 0.32388-0.69353 0.22958-2.3082 0.56794-1.0824 0.30555-1.9143 0.65427-1.8729 0.78258-1.5248 0.74166-0.92194 0.52238-0.75372 0.49494-0.56346 0.42762-0.48159 0.41281-0.8195 0.77351-1.2252 1.2523-0.62939 0.67932-0.72589 0.87029-0.54145 0.79481-0.24403 0.43169-0.23056 0.48371-0.27154 0.73699-0.20926 0.77628-0.22253 1.1943-0.11639 0.87484-0.11368 1.1673-0.089495 1.7532-0.068208 3.9166-0.063945 1.6548-0.11208 1.3379-0.096392 0.65072-0.056553 0.16082-1.2096 0.79469-4.5999 3.1945-1.4232 0.94553-1.3499 0.84534-1.5322 0.87649-1.2088 0.62023-2.9154 1.3188-1.6696 0.70908-6.039 2.4728-1.1752 0.41895-1.4647 0.4572-1.0849 0.27027-1.9981 0.41156-1.0096 0.154-3.8024 0.49361-1.4177 0.24351-1.3489 0.27121-1.4671 0.34913-1.4361 0.43642-0.96035 0.36944-1.1318 0.52614-0.84725 0.4854-0.31324 0.20788-0.65988 0.50583-0.45167 0.40521-0.76301 0.80713-0.18298 0.23727-0.054401 0.11295-0.066266-0.020318-0.11956-0.14048-0.36489-0.57857-0.4643-0.87504-0.42767-0.91948-0.63775-1.5555-0.32727-0.87867-0.59711-1.7658-0.70097-2.4315-0.55286-2.2881-0.31806-1.774-0.174-1.2753-0.25771-1.5861-0.2875-1.4525-0.40483-1.6328-0.27501-0.96548-0.55772-1.6382-0.68623-1.7567-1.4648-3.5916-0.39539-1.1158-0.32044-1.0944-0.21774-1.0489-0.094859-1.0089 0.019191-0.72351 0.071554-0.70394 0.135-0.88115 0.20917-0.85102 0.33386-0.87596 0.39023-0.87436 0.37092-0.92263 0.21176-0.69553 0.16528-0.73538 0.15611-1.1088 0.051396-0.68837 0.027385-0.89681-0.036351-3.095 0.030585-1.0138 0.03171-0.41752 0.1195-0.86935 0.19296-0.82586 0.33795-0.937 0.32024-0.65108 0.19843-0.33924 0.21642-0.32386 0.26973-0.33843 0.39968-0.37354 0.3545-0.21627 0.17836-0.073773 0.75672-0.12328 0.37166 0.014058 0.64586 0.09102 0.85179 0.19085 0.78088 0.2176 1.0224 0.34269 0.68496 0.26537 1.6218 0.72671 0.89674 0.45413 1.1472 0.63304 1.0779 0.65513 0.99752 0.70017 0.6922 0.5721 1.635 1.5101 0.40854 0.33954 0.55225 0.37195 0.31275 0.15936 0.49751 0.16862 0.36342 0.045939 0.29887-0.023487 0.26417-0.079894 0.62624-0.50336 0.51618-0.83712 0.44502-1.0766 0.4068-1.2417 0.81238-2.755 0.45815-1.4265 0.6054-1.7299 0.4738-1.529 0.6107-2.2611 0.45441-2.001 0.19728-1.1294 0.18392-1.525 0.074567-1.1462 0.023761-1.3884-0.044684-1.4583-0.11323-1.4413-0.18518-1.4137-0.26678-1.3734-0.36481-1.3175-0.48689-1.242-0.64173-1.1421-0.91184-1.117-1.0895-0.99896-1.2201-0.91148-1.315-0.84742-1.3827-0.80107-1.4301-0.76792-1.4623-0.74445-2.9778-1.4444-7.4815-3.5364-2.0304-1.0013-1.2087-0.63624-0.89843-0.52499-0.86443-0.59277-0.68683-0.59412-0.69001-0.81698-0.54506-0.88646-0.42444-0.91522-0.32093-0.90483-0.22796-0.85531-0.13173-0.86779 0.002682-0.32008 0.094781-0.59563 0.30978-1.2457 0.097764-0.92582 1.62e-4 -0.93278-0.07716-1.0152-0.2265-1.5062-0.2713-1.2985-0.63497-2.4306-0.51056-1.653-0.68752-1.9526-0.65062-1.6314-0.8466-1.8763-0.51657-1.0166-0.55443-0.98487-0.67356-1.053-0.39832-0.55049-0.523-0.6522-0.54927-0.62254-1.7388-1.7922-0.68985-0.7522-0.7132-0.90772-0.4822-0.74313-0.40603-0.73388-0.21868-0.44123-0.78092-1.792-0.75227-1.8752-0.74168-2.0761-0.27097-0.91271-0.16392-0.6719-0.16805-0.95006-0.059423-0.56789-0.031775-0.69611 0.010614-0.78977 0.041796-0.62255 0.14787-1.0452 0.11429-0.50063 0.16976-0.53862 0.12425-0.2432 0.060906-0.056743 0.24971-0.22372 1.6825-1.9339 1.2526-1.5601 1.9512-2.5038 0.87864-1.0315 0.67731-0.71582 0.70199-0.6371 0.52965-0.40014 0.70972-0.42927 0.79044-0.3394 0.80807-0.21067 1.2411-0.14904 1.095-0.022433 1.3154 0.062036 1.3841 0.11328 4.3441 0.56323 0.83975 0.053964 1.4995 0.014876 2.0017-0.097155 1.0204-0.098538 2.0864-0.31185 2.0188-0.40789 1.7434-0.42132 0.77608-0.22274 1.1574-0.38963 0.9995-0.3996 1.0643-0.48908 1.0754-0.59157 0.87008-0.60868 0.54702-0.46006 0.57303-0.58833 0.51875-0.60724 1.2593-1.5634 0.25947-0.39008 0.3194-0.57944 0.38676-0.87905 0.30081-0.91704 0.1749-0.80924 0.091328-0.84544 0.086031-1.8536 0.001729-2.2236 0.080727-1.0042 0.17153-1.3903 0.093674-1.0831-0.057911-1.0629-0.16486-0.69255-0.16559-0.48711-0.67895-1.6927-0.34469-0.94652-0.40233-1.3047-0.37006-1.4023-0.43655-1.8553-0.46423-2.1775-0.80771-3.9853-0.66278-3.4343-0.44231-2.6986-0.13514-1.1026-0.12237-1.7688 0.030392-1.5579 0.19892-1.4474 0.21656-0.82602 0.42408-1.1246 0.66003-1.299 0.50835-0.81369 0.56152-0.77945 0.52927-0.64779 0.56374-0.61498 0.7372-0.70382 0.79651-0.6434 0.432-0.3005 0.42769-0.26412 1.0814-0.5331 0.92818-0.34012 0.62448-0.18364 0.81108-0.19762 3.2733-0.62668 0.8461-0.19159 0.75188-0.20801 0.69174-0.23546 1.1754-0.52687 1.0836-0.6785 0.44633-0.35703 0.42732-0.40051 0.88792-1.0744 0.76034-1.2377 0.66629-1.3681 0.59998-1.4712 0.55672-1.55 0.53257-1.6054 2.6326-8.1433 0.35104-1.0016 0.1823-0.358 0.12304-0.12636 0.36464-0.22161 1.2434-0.62666 1.8277-0.83198 1.9752-0.84487 2.7337-1.0771 3.4599-1.2765 1.8597-0.71447 4.8286-1.9577 1.1208-0.42117 1.1213-0.38448 1.6474-0.48866 1.6444-0.42663 6.5087-1.6074 3.9315-0.92518 1.9911-0.43806 6.0343-1.2149 0.89007-0.20607 1.3816-0.39176 1.607-0.56523 1.6741-0.72621 2.7997-1.4038 3.4092-1.7976 1.1798-0.55451 1.7272-0.7488 0.9787-0.35187 1.0644-0.28447 1.2485-0.29087 1.3521-0.23139 0.94283-0.008873 0.45351 0.093532 0.42833 0.15224 0.606 0.32937 0.21771 0.16721 0.4127 0.38402 0.41041 0.43282 2.4958 2.8128 1.3354 1.3717 1.0142 0.96812 0.88378 0.72909 0.92465 0.66946 0.48913 0.30951 1.1413 0.56303 0.39092 0.14847 0.88653 0.27649 0.91793 0.19593 0.84881 0.097389 1.5328 0.054744 0.72992-0.017153 1.3978-0.084652 1.1608-0.12322 1.0632-0.14952 0.81541-0.15981 2.1258-0.5405 1.6678-0.53117" stroke="#bdc660"/>
    </defs>
    <g clip-path="url(#pfe7439b43f)">
     <use y="280.512" fill="#bdc660" stroke="#bdc660" xlink:href="#m1dce89e351"/>
    </g>
   </g>
  </g>
 </g>
 <defs>
  <clipPath id="pfe7439b43f">
   <rect x="7.2" y="7.2" width="172.25" height="266.11"/>
  </clipPath>
 </defs>
</svg>
