<?xml version="1.0" encoding="UTF-8"?>
<!DOCTYPE svg  PUBLIC '-//W3C//DTD SVG 1.1//EN'  'http://www.w3.org/Graphics/SVG/1.1/DTD/svg11.dtd'>
<svg width="303.44pt" height="280.51pt" version="1.1" viewBox="0 0 303.44 280.51" xmlns="http://www.w3.org/2000/svg" xmlns:xlink="http://www.w3.org/1999/xlink">
 <metadata>
  <rdf:RDF xmlns:cc="http://creativecommons.org/ns#" xmlns:dc="http://purl.org/dc/elements/1.1/" xmlns:rdf="http://www.w3.org/1999/02/22-rdf-syntax-ns#">
   <cc:Work>
    <dc:type rdf:resource="http://purl.org/dc/dcmitype/StillImage"/>
    <dc:date>2024-07-04T12:11:38.836937</dc:date>
    <dc:format>image/svg+xml</dc:format>
    <dc:creator>
     <cc:Agent>
      <dc:title>Matplotlib v3.7.1, https://matplotlib.org/</dc:title>
     </cc:Agent>
    </dc:creator>
   </cc:Work>
  </rdf:RDF>
 </metadata>
 <defs>
  <style type="text/css">*{stroke-linejoin: round; stroke-linecap: butt}</style>
 </defs>
 <g id="figure_1">
  <g id="patch_1">
   <path d="m0 280.51h303.44v-280.51h-303.44v280.51z" fill="none"/>
  </g>
  <g id="axes_1">
   <g id="PatchCollection_1">
    <defs>
     <path id="m49495b6db0" d="m240.26-162.68-0.7442 1.4097-0.20315 0.31198-0.14124 0.18357-0.28762 0.30321-0.48717 0.40693-1.082 0.80371-1.2123 0.95262-0.29935 0.22551-0.31253 0.20793-0.3523 0.19666-0.43886 0.19458-0.45466 0.15023-0.37852 0.087507-0.39951 0.051362-0.1931 0.003597-0.12007-0.017741-0.026642-0.018604-1.6616-0.65283-0.5319-0.18806-0.49231-0.15269-0.62249-0.16566-1.8398-0.42984-0.47119-0.13855-0.44467-0.15836-0.35274-0.15502-0.42636-0.24162-0.38671-0.27168-1.0242-0.83544-0.4532-0.28912-0.32866-0.14826-1.0372-0.35326-0.51735-0.24943-0.43931-0.1747-0.47229-0.092376-0.60632-0.068707-0.29154-0.019195-0.40347 0.020027-0.22186 0.049673-0.19197 0.067972-0.28233 0.13382-0.95828 0.54085-0.41984 0.18687-0.45925 0.13636-0.74556 0.11086-0.60809 0.045376-0.37184 0.004417-0.54355-0.035965-0.49765-0.096052-0.30796-0.093574-0.438-0.16367-0.34787-0.097557-0.17095-0.019066-0.21673 0.005048-0.23036 0.038658-0.22267 0.07027-0.27694 0.13631-0.58845 0.3598-0.51349 0.26763-2.5506 1.0996-0.3713 0.12465-0.33888 0.076158-0.18011 0.009479-0.083055-0.040722-0.002585 0.076336 0.13168 0.38817 0.19435 0.44913 0.23488 0.48496 0.075713 0.21363 0.019226 0.1992-0.033167 0.13815-0.068341 0.13365-0.095569 0.13116-0.16471 0.17981-0.19178 0.17834-0.80467 0.66481-0.37291 0.3384-0.73267 0.787-0.17163 0.16224-0.18483 0.14237-0.22117 0.12719-0.23776 0.099855-0.46127 0.1289-0.88682 0.20215-0.41705 0.14783-0.40678 0.21608-0.95212 0.65353-0.37336 0.23137-0.51171 0.27053-0.50051 0.2129-0.47912 0.15264-0.42986 0.090067-0.21374 0.027517-0.3062 0.019057-0.69081-0.018256 0.67693 1.0033 0.30767 0.50303 0.44591 0.87194 0.22541 0.50842 0.17084 0.49477 0.081151 0.48492-0.016604 0.35216-0.084447 0.34352-0.16431 0.35599-0.22826 0.34327-0.36702 0.42628-0.60927 0.54991-0.69034 0.52496-1.4543 1.0447-0.69204 0.55527-0.62322 0.60317-0.29594 0.34865-0.32526 0.42669-1.4063 1.9457-0.29706 0.38811-0.69224 0.84728-0.26723 0.35985-2.2858 3.2153-0.67986 1.016-1.6678 2.7436-0.33642 0.51847-0.22152 0.3023-0.24126 0.2485-0.32646 0.20747-0.41097 0.13012-0.45663 0.035916-0.24141-0.016691-0.44348-0.072767-1.4223-0.33032-0.56848-0.075591-0.51512 0.008164-0.47599 0.099473-0.39878 0.15565-0.34603 0.18532-0.33432 0.22264-0.47714 0.39721-0.29179 0.29757-0.37257 0.46658-0.2268 0.36093-0.20504 0.38386-0.59823 1.2547-0.59481 1.1484-0.52026 0.87936-0.49542 0.75577-0.32838 0.46232-0.63785 0.81568-0.48246 0.51335-0.90756 0.84326-0.34022 0.25011-0.37719 0.19097-0.36684 0.10233-0.39895 0.046086-0.31237 0.001259-0.63976-0.074092-0.66419-0.16453-0.67277-0.24573-0.66611-0.32315-0.29152-0.1695-0.41371-0.27292-0.40662-0.30491-0.39424-0.32768-0.58214-0.53472-0.93964-0.94062-0.62547-0.57564-0.27486-0.21939-0.71136-0.49822-0.67054-0.41022-0.62318-0.3144-0.43264-0.17193-0.35687-0.11703-0.5645-0.14428-0.73385-0.11556-0.42336-0.032883-0.34394-0.007219-0.50049 0.02231-0.75199 0.09858-1.5473 0.32601-0.55396 0.075384-0.3785 0.030032-0.35283 0.011851-0.42345-0.008421-1.2495-0.11308-0.25452-0.018252-0.31 0.001191-0.3323 0.052147-0.253 0.11776-0.15667 0.18806-0.044688 0.15623 0.00943 0.19641 0.13703 0.2722-0.089891-0.015023-0.20654-0.11662-0.28595-0.19092-0.66063-0.50258-0.47222-0.40074-0.55126-0.51833-0.4706-0.49787-0.43271-0.52334-0.40377-0.58043-0.32384-0.57083-0.27168-0.57778-0.41752-1.0213-0.18585-0.41243-0.20714-0.37092-0.2412-0.31592-0.30394-0.26088-0.34525-0.17698-0.43283-0.088768-0.50461 0.047842-0.52676 0.16482-0.54178 0.24788-0.55173 0.30598-0.55817 0.34597-1.1268 0.76382-1.1329 0.8116-6.3028 4.6025-7.7199 5.5669 2.2058 3.1435 1.249 1.8302 1.1786 1.8095 0.53792 0.87804 0.24155 0.41524 0.41845 0.79431 0.31381 0.66357 0.27446 0.6331 0.46992 1.1516 0.24237 0.51753 0.46322 0.8659 0.43987 0.72949 0.46769 0.70701 0.24358 0.33758 0.84296 1.0558 0.29067 0.38802 0.3563 0.5247 0.40216 0.63538 0.51226 0.89548 0.77831 1.5869 0.34365 0.6632 0.81121 1.3693 0.28225 0.5154 0.27571 0.61395 0.16488 0.50315 0.10513 0.62658-0.002326 0.47808-0.060413 0.41888-0.091243 0.36067-0.39492 1.1309-0.22102 0.72739-0.1205 0.5049-0.13414 0.7404-0.083756 0.62924-0.054976 0.70328-0.008275 0.73293 0.03741 1.0863-0.014576 0.5462-0.034672 0.28535-0.097406 0.37815-0.13711 0.27917-0.1602 0.20365-0.13097 0.12177-0.23667 0.1629-0.17572 0.090834-0.3137 0.12429-0.62852 0.17211-2.3958 0.46789-1.0145 0.2593-0.91029 0.26779-2.0307 0.62816-1.2815 0.43676-1.0894 0.44053-0.8108 0.39386-0.98373 0.56269-0.74337 0.47055-0.8048 0.54802-0.65751 0.49769-0.33837 0.27855-0.64234 0.57186-1.9294 1.8861-0.73819 0.61979-1.1794 0.90976-0.46259 0.33443-0.64549 0.4138-0.33559 0.18337-0.69818 0.31885-0.678 0.23886-0.58211 0.1594-0.74699 0.15036-0.52277 0.06291-0.45956 0.021729-0.33142-0.006118-0.49768-0.050631-0.43944-0.089574-1.3034-0.36657-0.30156-0.055807-0.49934-0.038213-0.27204 0.009645-0.29899 0.035245-0.33372 0.068973-0.40756 0.12513-0.32764 0.13428-0.3111 0.15968-0.34382 0.22134-0.34396 0.27636-0.30441 0.29319-0.27262 0.30482-0.2169 0.27539-0.2209 0.31529-0.23794 0.38825-0.1339 0.24702-0.27244 0.59205-0.2556 0.71391-0.12739 0.43769-0.28932 1.22-0.15515 0.83395-0.058413 0.465-0.022494 0.63337 0.0531 0.56784 0.10153 0.52742 0.085806 0.30935 0.17229 0.45251 0.17302 0.33698 0.21363 0.32947 0.2268 0.28161 0.32984 0.32429 0.31842 0.24172 0.51316 0.28836 0.52502 0.23114 1.496 0.60549 0.87989 0.39048 0.9216 0.44208 0.61312 0.33547 0.61625 0.39662 0.57649 0.45526 0.48492 0.4642 0.34029 0.40752 1.2176 1.6884 0.30974 0.52739 0.13727 0.33564 0.060481 0.2355 0.022733 0.15857 0.005108 0.39726-0.050724 0.42952-0.19323 1.113-0.023938 0.33067 0.01538 0.34113 0.072751 0.33507 0.12868 0.29167 0.14993 0.23085 0.1864 0.21944 0.13256 0.12894 0.35828 0.27875 0.40022 0.24047 0.36574 0.17643 0.30548 0.12213 0.39812 0.13111 0.51047 0.13111 1.4946 0.28986 0.95483 0.21975 0.54586 0.15844 0.60537 0.21036 0.69036 0.2923 0.30547 0.14951 0.56726 0.31196 0.4534 0.28206 0.32429 0.21947 0.60135 0.44383 0.72301 0.58611 0.82687 0.71194 0.77802 0.70488 0.36143 0.369-0.06636 0.085427-0.20517 0.15745-1.232 0.78259-0.72657 0.53568-0.57158 0.37584-0.47847 0.37092-0.24052 0.13837-0.48596 0.22153-0.1257 0.083787-0.14631 0.13792-0.093636 0.13054-0.10388 0.25143-0.16287 0.75391-0.2979 0.90666-0.043205 0.19816-0.050701 0.39345-0.070314 0.22-0.15928 0.31504-0.1757 0.269-0.104 0.12849-0.074326-0.062161-0.20194-0.08022-0.31809-0.095193-0.36833-0.088617-0.55342-0.10289-0.38648-0.053386-0.57068-0.053268-0.82474-0.028708-0.9353 0.030462-0.65968 0.070203-0.41502 0.06671-0.71647 0.15418-0.98351 0.28422-0.90078 0.32238-0.98608 0.40544-2.8302 1.3059-2.9253 1.3003-1.359 0.52728-3.1603 1.1147-0.49287 0.1905-0.4806 0.20993-0.34853 0.2022-0.25889 0.2257-0.16539 0.19192-0.50416 0.6976-0.34894 0.42066-0.46826 0.45281-0.41675 0.3345-0.4442 0.27296-0.48045 0.22266-0.51222 0.18038-0.87698 0.26726-1.8068 0.61617-0.86512 0.23171-1.368 0.28951-1.962 0.38922-0.58059 0.074049-1.1262 0.037214-0.26977 0.030467-0.42206 0.091389-0.63251 0.22263-2.0578 0.87967-0.38588 0.20086-0.48531 0.30655-0.37648 0.28639-0.49785 0.45757-0.55617 0.60806-1.1704 1.477-0.46142 0.53952-0.56857 0.57969-1.052 0.98154-0.25064 0.25621-0.26447 0.3092-0.33211 0.46343-0.24342 0.48217-0.11246 0.30891-0.083048 0.30466-0.1342 0.81534-0.056597 0.21956-0.088131 0.20388-0.14834 0.20941-0.22021 0.19488-0.27904 0.1672-0.25613 0.11615-0.28856 0.10582-0.55825 0.1562-0.77049 0.1395-0.358 0.040274-0.57833 0.035044-0.82273-0.014009-0.3831-0.033186-0.60444-0.088582-0.34172-0.070575-0.57584-0.15217-0.70344-0.2377-0.41123-0.16552-0.37443-0.16969-0.60148-0.31745-0.63916-0.41439-0.46496-0.3667-0.46119-0.43037-0.50322-0.55868-0.49653-0.65723-0.5334-0.8464-0.26896-0.4938-0.39683-0.84038-0.2679-0.67557-0.1695-0.50194-0.13347-0.47069-0.13754-0.69869-0.016492-0.33553 0.059026-0.1175 0.053856-0.017628 0.11372-0.1168 0.31189-0.41677 0.21969-0.3519 0.25906-0.47845 0.23653-0.50175 0.25043-0.60626 0.26811-0.74877 0.20091-0.64468 0.22427-0.83809 0.20068-0.92781 0.13701-0.84073 0.070302-0.61507 0.040996-0.607 0.008663-0.58437-0.051035-0.8423-0.045294-0.33643-0.11811-0.58418-0.17493-0.5859-0.25905-0.63139-0.38251-0.69657-0.42511-0.59764-0.36975-0.42167-0.35944-0.34565-0.45559-0.37122-0.48209-0.33557-0.46846-0.29148-2.0911-1.2243-1.4243-0.92137-0.71198-0.49583-0.57377-0.41971-0.72826-0.5634-0.56715-0.47323-0.52793-0.47979-0.41337-0.41122-0.3613-0.39088-0.34392-0.40476-0.38955-0.50561-0.35777-0.5176-0.24446-0.38969-0.54445-0.98625-0.38244-0.77549-1.0029-2.1285-0.33739-0.74514-0.25253-0.60638-0.21399-0.58089-0.26354-0.8906-0.14782-0.70655-0.084708-0.67841-0.018159-0.36837 0.01967-0.5754 0.050916-0.40125 0.077914-0.38904 0.089008-0.34051 0.51253-1.5863 0.13512-0.46451 0.23803-0.98407 0.089214-0.48596 0.068816-0.49109 0.060114-0.7263 0.010496-0.70971-0.045775-0.78645-0.084395-0.63788-0.15272-0.7301-0.17562-0.61089-0.2724-0.74032-0.1912-0.43446-0.2103-0.42325-0.30466-0.5358-0.423-0.62626-0.39349-0.49128-0.24368-0.27361-1.1741-1.2216-0.45301-0.5192-0.36728-0.49812-0.14815-0.24247-0.14936-0.29055-0.10683-0.25773-0.10292-0.33346-0.056432-0.29762-0.017543-0.20963 0.006594-0.24392 0.075628-0.3736 0.15608-0.4145 0.24788-0.54167 0.12087-0.35168 0.02256-0.14067 0.004677-0.1918-0.014349-0.13321-0.049411-0.20057-0.045855-0.11905-0.11254-0.20577-0.21262-0.24355-0.49923-0.43222-0.12737-0.17365-0.06822-0.16301-0.03445-0.24843 0.003413-0.13773 0.022051-0.19941 0.13422-0.66345 0.029072-0.22308-0.006085-0.11212-0.049405-0.10233-0.082751-0.043057-0.31118 0.032832-0.4316 0.16331-0.53028 0.26129-0.51603 0.28636-0.55603 0.33118-1.0474 0.67091-0.8212 0.5647-0.60489 0.43947-0.96827 0.74597-2.453 2.0016-2.7072 2.2443-0.61404 0.48729-1.0829 0.81394-0.46824 0.3282-0.83748 0.53953-0.77163 0.43237-0.45583 0.22058-0.77881 0.30936-0.39169 0.12442-0.78979 0.19808-0.55303 0.104-0.6829 0.096791-0.79324 0.076708-0.66066 0.031813-0.55038 6.55e-4 -0.46231-0.018891-0.39494-0.029975-2.2528-0.24995-2.6091-0.43337-0.80897-0.18164-0.55736-0.17392-0.52639-0.22206-0.27121-0.14497-0.55868-0.37047-0.49442-0.45581-0.47236-0.65758-0.37818-0.76664-0.30955-0.84621-0.2603-0.90361-0.22554-0.94461-0.38645-1.9681-0.34023-2.0292-0.46656-3.1054-0.27364-2.0996-0.1141-1.0565-0.088687-1.0587-0.05172-1.0572-0.007542-0.56158 0.009831-0.56772 0.038677-0.66336 0.042745-0.42582 0.13031-0.85687 0.37869-1.7227 0.092584-0.48513 0.058647-0.5231-0.015953-0.62466-0.099913-0.53043-0.153-0.38286-0.18438-0.16179 4.1702-2.1665 1.162-0.63583 1.2872-0.73996 1.9133-1.145 1.5883-0.97947 1.0755-0.69708 2.2548-1.5079 1.4069-0.89039 1.3146-0.79195 3.667-2.151 1.8694-1.1505 6.1155-3.9385 2.5131-1.5669 2.6682-1.7524 2.2671-1.5289 2.9619-2.0322 4.4182-2.9344 1.3674-0.95278 1.4801-1.0948 0.52289-0.36508 5.9741-3.7025 1.9988-1.2098 1.8423-1.1518 3.7007-2.3927 6.0793-3.9989 13.726-9.1005 3.3215-2.221 2.455-1.6658 1.616-1.1252 1.5102-1.0924 1.4068-1.0557 2.558-1.9565 0.82165-0.60338 1.305-0.90834 2.6045-1.7395 4.4133-3.1829 2.4311-1.7093 1.0441-0.68064 0.94876-0.55828 0.7643-0.4169 1.4932-0.76485 0.72653-0.40164 0.9931-0.60363 1.1795-0.79286 0.76682-0.55887 1.2485-0.96872 1.2408-1.0484 0.60979-0.56022 0.57935-0.57415 0.52936-0.57751 0.87422-1.0333 0.66753-0.69834 0.77941-0.70381 0.42131-0.33998 0.73357-0.53166 0.75499-0.46953 0.7694-0.39197 0.29721-0.12552 0.57964-0.20617 0.42087-0.1252 1.0436-0.25306 0.43429-0.12118 0.36105-0.12814 0.32006-0.14601 0.5988-0.37162 1.1874-0.89391 0.34345-0.22945 0.5942-0.33848 0.68929-0.31494 0.69422-0.26228 1.0391-0.36068 0.63265-0.25524 1.4074-0.64056 1.4016-0.69271 1.4511-0.7742 1.6343-0.93369 1.8346-1.1062 1.5388-0.96334 0.94455-0.5819 4.1412-2.457 2.961-1.6827 1.6858-0.98032 3.3834-2.0172 4.1294-2.4961 3.7552-2.212 4.9546-2.8732 3.3333-1.8846 1.7255-1.0331 0.32904-0.22218 0.11285-0.094642 1.6239-0.98643 1.965-1.2514 2.163-1.4334 3.7858-2.5533 4.047-2.642 3.1626-2.0011 7.2431-4.5177 6.421-4.1014 1.5652-1.0237 4.257-2.8418 2.8108-1.8114 5.9413-3.8919 1.9298-1.3094 2.651-1.8805 2.3852-1.7339 2.1472-1.6423 1.6912-1.3618 2.3814-1.9834 1.2063-1.0427 1.1664-1.0664 2.1818-2.1547 0.87201-0.8331 0.4724-0.4185 0.41641-0.32692 0.43625-0.30416 1.0035-0.61574 1.3489-0.78562 1.5331-0.84103 1.4085-0.72532 1.1778-0.5769 4.7696-2.2563 1.9707-0.95815 6.0666-3.0972 3.7302-1.8607 0.64997-0.31063 0.20992-0.083028 1.2145 2.1605 0.58562 1.1478 0.26507 0.57801 0.29594 0.73612 0.1565 0.46238 0.12818 0.45914 0.10309 0.50532 0.050738 0.43742 0.003548 0.63775-0.22122 2.3281-0.089695 0.62142-0.077664 0.38161-0.096072 0.36965-0.11546 0.35126-0.13962 0.33213-0.15813 0.29106-0.2512 0.3475-0.40921 0.43992-0.43405 0.38098-0.5649 0.41094-1.2914 0.86263-0.44981 0.35946-0.20141 0.20394-0.18064 0.2295-0.13818 0.21646-0.17686 0.34355-0.21372 0.57276-0.11039 0.40818-0.13428 0.6931-0.1895 1.2104-0.082137 0.3944-0.207 0.78414-0.19894 0.62153-0.24728 0.69387-0.23393 0.60765-0.41806 1.0053-0.11354 0.35987-0.074118 0.34743-0.033056 0.4203 0.028757 0.31985 0.076306 0.1463-0.10595 0.040209-0.51958 0.062972-1.3127 0.077336-1.7943 0.052584-6.5355 0.099003-1.4303 0.054141-1.583 0.086859-2.7592 0.21543-2.954 0.28897-3.694 1.1034-0.78199 0.58664-0.15633 0.70388 0.19559 0.66474 0.46928 0.43008 1.2905 0.58641 1.2358 0.78194 0.41128 0.41249 0.37691 0.55593 0.46613 0.8935 0.32074 0.74102 0.30107 0.78755 0.28622 0.81568 0.62048 1.9046 0.3139 1.0427 0.35383 1.266 0.38107 1.2565 0.24437 0.7092 0.446 1.1451 0.15298 0.46292 0.23449 1.0459 0.24786 1.4834 0.12311 0.63479 0.1055 0.47686 0.10563 0.38985 0.21886 0.60441 0.21839 0.45982 0.53113 0.9482 0.21399 0.47136 0.11982 0.32517 0.13836 0.44762 0.33217 1.3164 0.07889 0.42606 0.12345 1.0432 0.08012 0.83737 0.004619 0.34011-0.054476 0.43031-0.28568 1.099-0.14279 0.61392-0.12718 0.60293-0.090614 0.57509-0.082923 1.0134-0.10284 1.7066-0.28733 2.919-0.031968 0.79182 0.023268 0.63178 0.070752 0.62471 0.3882 2.1173 0.14222 0.99865 0.032992 0.58823-0.021668 0.43575-0.1184 0.57506-0.19576 0.54138-0.11547 0.25667-0.20835 0.38901-0.36941 0.52507-0.7051 0.92487-0.49056 0.73992-1.5161 2.1388-0.24211 0.37712-0.4058 0.7574-0.23302 0.56986-0.15969 0.54239-0.12184 0.56509-0.086328 0.5292-0.054549 0.54619-0.01332 0.52039 0.019169 0.51271 0.10958 1.0099 0.40597 2.3985 0.07995 0.56884 0.050497 0.52524 0.012664 0.40618-0.01896 0.24868-0.058546 0.082679-0.03273 0.064128-0.36091 0.25951-0.29277 0.17371-0.49479 0.26106-0.90024 0.39877-0.83717 0.31129-3.8693 1.2817-2.9783 0.86327-0.77608 0.27578-0.52141 0.22343-0.49085 0.24262-0.58935 0.3394-0.30871 0.20339-0.28156 0.20967-0.24529 0.21389-0.20834 0.22378-0.16532 0.23788-0.057945 0.11296-0.12218 0.42858-0.029411 0.46615 0.051062 1.159-0.007291 0.35193-0.038511 0.34617-0.077927 0.3362-0.063553 0.19054-0.1004 0.2352-0.24018 0.44645-0.28992 0.4457-0.39056 0.45579-0.4632 0.41828-0.9613 0.75945-0.24728 0.21992-0.45772 0.47144-0.3344 0.3865-0.32658 0.4232-0.29346 0.43841" stroke="#bdc660"/>
    </defs>
    <g clip-path="url(#pa5481dfeae)">
     <use y="280.512" fill="#bdc660" stroke="#bdc660" xlink:href="#m49495b6db0"/>
    </g>
   </g>
  </g>
 </g>
 <defs>
  <clipPath id="pa5481dfeae">
   <rect x="7.2" y="7.2" width="289.04" height="266.11"/>
  </clipPath>
 </defs>
</svg>
