<?xml version="1.0" encoding="UTF-8"?>
<!DOCTYPE svg  PUBLIC '-//W3C//DTD SVG 1.1//EN'  'http://www.w3.org/Graphics/SVG/1.1/DTD/svg11.dtd'>
<svg width="371.52pt" height="164.94pt" version="1.1" viewBox="0 0 371.52 164.94" xmlns="http://www.w3.org/2000/svg">
 <metadata>
  <rdf:RDF xmlns:cc="http://creativecommons.org/ns#" xmlns:dc="http://purl.org/dc/elements/1.1/" xmlns:rdf="http://www.w3.org/1999/02/22-rdf-syntax-ns#">
   <cc:Work>
    <dc:type rdf:resource="http://purl.org/dc/dcmitype/StillImage"/>
    <dc:date>2024-07-04T12:11:46.113528</dc:date>
    <dc:format>image/svg+xml</dc:format>
    <dc:creator>
     <cc:Agent>
      <dc:title>Matplotlib v3.7.1, https://matplotlib.org/</dc:title>
     </cc:Agent>
    </dc:creator>
   </cc:Work>
  </rdf:RDF>
 </metadata>
 <defs>
  <style type="text/css">*{stroke-linejoin: round; stroke-linecap: butt}</style>
 </defs>
 <g id="figure_1">
  <g id="patch_1">
   <path d="m0 164.94h371.52v-164.94h-371.52v164.94z" fill="none"/>
  </g>
  <g id="axes_1">
   <g id="PatchCollection_1" fill="#bdc660" stroke="#bdc660">
    <path d="m151.27 36.445 2.9811 1.3758 1.6162 0.79362 2.2359 1.2303 1.3221 0.82295 4.4171 2.9648 2.3428 1.5124 2.0736 1.2533 3.0347 1.7121 2.7712 1.4743 2.5245 1.2814 1.7452 0.84647 4.2727 1.9939 2.7119 1.4027 1.8794 1.1063 1.1184 0.72413 1.2911 0.92863 0.27622 0.23084 0.12173 0.1467 0.90488 1.2875 0.90658 1.4795 0.95963 1.7509 0.88861 1.8433 0.42288 0.99316 0.43296 1.155 0.34217 1.1052 0.23897 1.0068 0.12382 0.74101 0.080686 0.91048-0.014987 1.0527-0.11064 1.0403-0.1142 0.69344-0.31496 1.3534-0.43044 1.3105-0.47528 1.1365-0.56187 1.1187-0.70982 1.1675-0.89768 1.2507-0.97829 1.1806-0.72616 0.7918-3.9701 3.9004-0.88545 0.96384-0.77877 0.92271-1.7182 2.2355-2.7077 3.796-1.4391 1.955-4.6952 5.9947-2.2744 2.7004-1.1754 1.3153-1.1972 1.28-1.219 1.2321-0.89777 0.84357-0.90732 0.77627-0.85617 0.67416-1.2597 0.91247-2.3701 1.5496-3.8518 2.3406-2.3845 1.5008-2.2448 1.552-1.3435 1.0659-0.96204 0.86759-0.91859 0.91515-0.97294 1.0583-0.93286 1.0959-0.89727 1.1247-1.6736 2.2642-1.3913 2.057-1.0428 1.7079-0.56354 1.0228-0.49493 1.0058-0.35986 0.83692-0.55107 1.5072-0.26741 0.88617-0.46413 2.1349-0.27084 1.0356-0.40121 0.99825-0.50558 0.81822-0.63262 0.72524-0.6564 0.59602-0.40567 0.32298-0.64455 0.46592-0.78236 0.50918-0.71203 0.42223-1.1602 0.62294-1.8973 0.89302-2.7111 1.1378-1.9634 0.76095-1.9958 0.67802-4.4057 1.391-2.0191 0.71096-0.48328 0.20131 0.040063-0.1114-0.090851-0.19351-0.36499-0.35314-0.62099-0.43723-0.95108-0.5522-1.604-0.77711-4.2415-1.7929-1.8421-0.85557-2.3662-1.1972-0.9403-0.53356-0.85524-0.54123-1.3298-0.9758-1.0138-0.87643-0.63569-0.61595-0.70574-0.74467-1.0554-1.2104-0.55636-0.69758-0.65797-0.93266-0.31356-0.51163-0.49392-0.96563-0.32579-0.83587-0.22552-0.81912-0.099102-0.52395-0.11551-1.0862-0.059555-2.1256-0.12919-1.4579-0.27559-1.8172-0.32786-1.4603-0.52349-1.8167-1.0729-3.3247-0.27747-0.81032-0.71047-1.7922-0.46203-1.2764-0.19931-0.75178-0.15954-0.79116-0.19441-1.3201-0.35194-3.3276-0.16494-1.2313-0.26882-1.3332-0.27294-1.0139-0.46809-1.366-0.35343-0.83772-0.30169-0.62478-0.40604-0.73557-0.57069-0.86578-0.5059-0.62833-0.65563-0.64933-0.53586-0.42063-0.38548-0.25748-0.56305-0.31478-0.48947-0.21786-0.65982-0.21392-0.97145-0.18874-2.0128-0.23704-1.2228-0.21557-1.202-0.33631-0.85541-0.33734-0.88977-0.46021-0.77909-0.51138-1.014-0.82741-1.5776-1.424-0.80852-0.60434-0.48196-0.26536-0.44068-0.18198-0.59759-0.16104-0.38493-0.052575-0.40446-0.013442-0.43832 0.030007-0.477 0.077692-1.0431 0.29784-1.2815 0.53165-4.1916 1.9491-0.77438 0.29236-0.70515 0.20684-0.88294 0.16692-0.97631 0.067738-0.25526-0.003864-1.3556-0.18232-0.59152-0.17648-1.0373-0.43716-0.7856-0.42671-0.97241-0.64044-1.0498-0.83942-2.483-2.2171-1.0389-0.88494-0.96664-0.74902-0.96344-0.66337-0.87112-0.53231-0.9933-0.53832-1.0504-0.43568-0.60717-0.17384-1.0146-0.19065-1.1271-0.10554-1.0338-0.025591-1.2738 0.037789-2.0051 0.16701-1.4519 0.17785-1.4108 0.20561-2.8263 0.47944-7.7154 1.4532-1.0798 0.15016-0.14106-0.02885-0.033414-1.168 0.10732-1.8892-0.037852-0.44633-0.088248-0.30966-0.22775-0.31915-0.33091-0.22579-0.52462-0.22906-0.74991-0.22867-0.043245-0.036972-0.048725-0.18996-0.019573-0.21822 0.035959-0.78482 0.18633-1.0552 0.27083-1.027 0.47839-1.513 0.84078-2.373 0.62511-1.5693 0.64192-1.3295 0.47732-0.79067 0.59975-0.86481 0.5382-0.70055 1.1404-1.3381 1.0846-1.1441 0.56044-0.54716 2.4225-2.1302 0.92535-0.88393 0.64334-0.67266 0.61058-0.70178 0.60897-0.78831 0.904-1.3586 0.77056-1.3709 0.63478-1.3384 0.6278-1.4906 1.8016-4.5091 0.68296-1.5219 0.68469-1.2957 0.35663-0.57468 0.37211-0.52406 0.85514-1.0559 0.34283-0.54635 0.23138-0.59402 0.13913-0.63372 0.06375-0.63243 0.004302-0.57859-0.038751-0.45522-0.043814-0.18233 0.3114 0.11556 0.70024 0.18067 1.0961 0.19617 0.75844 0.096336 1.3484 0.10714 1.8136 0.04521 1.4665-0.024645 2.4408-0.13619 2.7817-0.31953 2.5292-0.43971 1.5619-0.35539 1.1381-0.30778 0.96338-0.29732 1.7359-0.63025 2.2946-0.98811 1.9249-0.93751 0.66757-0.35657 4.485-2.7491 2.3098-1.5106 1.6473-1.1428 0.92354-0.68173 1.192-0.9602 0.85074-0.75046 1.495-1.4193 0.47377-0.50697 1.8209-2.1142 0.8824-0.83122 0.94846-0.69636 0.46686-0.27661 0.92819-0.4607 0.94047-0.34278 0.92857-0.187 0.89196 0.014613 0.5306 0.13058 0.70087 0.32012 0.66961 0.45313 1.115 0.92852 0.7503 0.73285 0.56454 0.69693 1.2408 1.712 0.38179 0.4497 0.49339 0.49642 0.64077 0.52606 0.54502 0.37049 0.71269 0.39055 0.5827 0.24761 0.94795 0.29494 0.81865 0.1788 1.5463 0.19916 1.1643 0.050128 1.2193-0.046517 1.0408-0.12121 1.3825-0.25514 1.1724-0.30926 1.0191-0.35108 1.1327-0.47535 1.249-0.62891 1.3515-0.78271 5.8699-3.7095 3.2868-1.9376 1.4444-0.89073 2.4198-1.6532 3.526-2.507 1.3631-0.89546 0.99262-0.59837 1.1402-0.61695 0.74764-0.35589 0.86806-0.35592 0.71482-0.21588 0.31228 0.018416 0.067766 0.19574 0.27531 0.42924 0.52237 0.7048 0.67834 0.8277 0.79317 0.88222 0.64404 0.66134 1.8376 1.7903 1.1369 1.1643 1.3994 1.5916 1.2452 1.6057 0.67513 0.97124 1.8168 2.8079 0.41781 0.57907 0.40678 0.50488 0.43156 0.46502 0.52356 0.46533 0.31862 0.23406 0.55961 0.34828 0.62997 0.33225" clip-path="url(#p8b7498f83a)"/>
    <path d="m302.45 14.082-0.062992 2.4548 2.9e-4 1.5862 0.037522 1.0582 0.088642 1.096 0.14629 1.0582 0.20922 1.0659 0.43835 1.6172 0.45058 1.2661 0.52146 1.2429 0.94648 1.9817 0.72685 1.3804 0.97832 1.6988 0.63197 1.0005 0.65593 0.95707 0.95198 1.2439 1.152 1.2934 0.98747 0.92954 0.40012 0.3294 1.0525 0.73378 0.71512 0.39351 1.2006 0.56422 0.76758 0.32663 2.1277 0.82096 1.1731 0.5767 3.7466 2.1599 0.54356 0.34066 0.40212 0.30456 0.45301 0.44296 0.38572 0.49763 0.51656 1.0173 0.17139 0.68386 0.021952 0.68082-0.11008 0.5572-0.22543 0.56374-0.42689 0.68119-0.54934 0.66489-0.76327 0.7542-0.82226 0.6731-0.84878 0.59305-1.0375 0.61868-1.3627 0.69367-1.0972 0.49674-1.1445 0.47009-4.1625 1.5581-2.388 0.95072-2.5202 1.1099-3.574 1.6557-1.8572 0.77578-1.1068 0.38083-0.88175 0.25596-2.8894 0.69045-1.8955 0.51547-1.9991 0.65324-1.3888 0.51341-1.5207 0.63774-1.1044 0.53145-1.1612 0.66588-0.68176 0.46901-0.6832 0.55819-0.63104 0.64879-0.53717 0.76717-0.424 1.0089-0.20736 0.92602-0.096171 1.0814 0.012043 0.84392 0.075455 0.79742 0.12207 0.72075 0.18481 0.74303 0.21702 0.64486 0.34836 0.8011 0.42406 0.77239 0.56124 0.83898 0.74872 0.99092 1.1988 1.4258 0.7804 0.86145 1.5982 1.6521 1.6039 1.4906 0.90279 0.72142 1.1299 0.73498 0.72885 0.35816 1.1405 0.38262 3.5944 0.72916 1.6069 0.49124 3.0449 1.1207 1.0394 0.33576 1.4469 0.33501 1.4447 0.091074 0.94851-0.1157 0.95248-0.2356 0.83394-0.27714 0.84396-0.32501 4.2122-1.7427 4.5923-1.7114 1.3169-0.43131 1.428-0.39413 1.6393-0.32514 1.1201-0.12174 1.0079-0.019471 1.7572 0.20544 0.97992 0.24005 0.85846 0.27886 0.92244 0.36732 1.3106 0.62606 1.5999 0.89262 2.4832 1.4875 0.63903 0.30984 0.51679 0.18982 0.54566 0.12405 0.46964 0.022115 0.46964-0.093886 0.36905-0.20241 0.25563-0.30443 0.018449-0.09287 0.34252 0.85397 0.65041 1.2048 0.52153 0.86483 1.2538 1.9088 2.5754 3.7022 0.83161 1.3472 0.47475 0.94138 0.27896 0.74106 0.13104 0.4979 0.092754 0.66869-0.020549 0.68613-0.19509 0.78666-0.17271 0.37412-0.48045 0.67013-0.71696 0.61501-0.99988 0.52985-0.91138 0.29933-0.52631 0.11648-0.85465 0.1144-0.97817 0.027124-0.64042-0.039348-1.3389-0.22376-1.0162-0.27882-0.89322-0.30959-1.2066-0.49546-2.6676-1.1878-0.83045-0.30404-1.1945-0.34838-1.235-0.24518-0.78066-0.092964-0.87402-0.046766-1.1914 0.037089-0.66922 0.073186-1.517 0.30799-0.84384 0.25735-0.94832 0.36538-0.99632 0.47259-1.2168 0.71675-0.71167 0.51174-0.61531 0.52742-0.61758 0.66969-0.47532 0.71895-0.27224 0.6311-0.16646 0.75551 6.28e-4 0.90967 0.2932 1.1535 0.46367 0.89944 0.46162 0.62734 0.55002 0.58467 1.0086 0.80921 0.92398 0.548 0.84034 0.38077 0.99813 0.3357 1.1644 0.26395 0.7447 0.1083 0.76602 0.069895 0.93333 0.040084 2.578 0.008146 2.0411 0.079125 1.5813 0.15026 1.1773 0.16556 1.0264 0.20162 1.3524 0.3797 0.96187 0.37617 0.71798 0.38127 0.3633 0.24666 0.38581 0.3188 0.36942 0.37776 0.43162 0.57761 0.24041 0.42361 0.22596 0.5078 0.2057 0.62501 0.17498 0.81706 0.081759 0.68828 0.033074 0.89181-0.023104 0.72666-0.13832 1.3342-0.28631 1.4812-0.18069 0.65992-0.31583 0.91202-0.25857 0.61138-0.56964 1.0974-0.34993 0.56838-0.89771 1.2748-0.41559 0.52301-0.76276 0.81088-0.72301 0.57567-0.81068 0.46763-0.81893 0.33932-0.63236 0.1927-0.93266 0.19518-0.82599 0.10085-0.68115 0.042727-1.1863 0.003268-1.1951-0.078468-1.2255-0.15798-0.8585-0.15409-0.79194-0.17439-1.3145-0.36005-1.1229-0.38238-1.2096-0.50297-1.3224-0.68651-1.3617-0.88529-0.92128-0.70864-2.3334-2.0902-0.40838-0.33308-0.92754-0.6331-0.69845-0.37287-0.83137-0.35305-1.4819-0.43528-1.6079-0.22872-1.2333-0.012628-1.2905 0.13898-1.6634 0.413-1.2824 0.50039-1.0298 0.52393-1.2564 0.79652-1.0605 0.81815-1.0004 0.90468-0.74874 0.77121-0.94195 1.1174-0.62157 0.86741-0.49616 0.80929-0.4396 0.85864-0.44826 1.1183-0.32382 1.1135-0.18903 0.94261-0.088391 0.67163-0.049944 0.81609 0.017294 0.51876 0.052666 0.30911 0.14078 0.1733-0.2325 0.94681-0.30804 0.97776-0.47797 1.3182-0.38817 0.9528-0.76661 1.638-0.88926 1.5668-0.90834 1.3818-1.0884 1.5018-0.61974 0.67623-0.4725 0.41669-0.57908 0.43012-1.1302 0.70295-0.7935 0.45332-0.43791 0.20439-0.65269 0.19519-0.32948 0.041112-0.35306 3.51e-4 -0.52044-0.068115-0.42114-0.10258-1.0355-0.38843-1.3182-0.68244-2.844-1.6923-2.0839-1.4004-2.2693-1.6948-4.6242-3.6289-2.2797-1.7302-1.9242-1.3713-1.8115-1.179-1.7991-1.0381-1.9238-0.9718-2.9076-1.3239-3.6328-1.5067-1.3057-0.57345-1.5667-0.78832-1.3228-0.78651-1.1278-0.78682-1.288-1.0756-1.0523-1.0465-1.0121-1.1787-1.0965-1.5014-1.0985-1.7366-1.0381-1.8149-1.0812-2.0776-0.62589-1.3764-0.63224-1.7075-0.33691-1.1658-0.31953-1.453-0.18394-1.3199-0.067412-1.3003 0.036257-1.1587 0.12509-1.1987 0.2271-1.3632 0.26194-1.2598 0.50665-2.1583 0.90467-3.5497 0.12911-0.67508 0.070308-0.57786 0.016144-0.55061-0.025911-0.36388-0.069704-0.39015-0.098483-0.32444-0.13269-0.30426-0.37821-0.56859-0.5112-0.48775-0.48922-0.32048-0.61294-0.27964-0.68253-0.21077-0.89047-0.17606-1.1665-0.11917-1.3688-0.022735-1.456 0.09051-0.76508 0.090493-1.3118 0.22214-1.1212 0.26009-1.1588 0.34312-1.0917 0.39953-1.083 0.47705-1.1588 0.6264-0.68042 0.49154-0.098725 0.11666 0.008224 0.094902-0.008772 0.087338-0.070103 0.050039-0.14182 0.018097-0.3355-0.059236-0.36252-0.12707-0.49841-0.2291-0.81922-0.45649-0.53466-0.341-0.80479-0.57531-0.70228-0.56679-0.63372-0.57615-0.57143-0.58361-1.0841-1.2252-0.66864-0.82914-0.60302-0.96091-0.41937-1.0173-0.079864-0.29916-0.10485-0.57431-0.038513-0.58547 0.076214-0.90744 0.14411-0.70657 0.37636-1.2691 0.70925-2.0768 0.53374-1.3527 1.685-3.531 0.50013-1.128 0.3745-0.96311 0.41076-1.2534 0.43437-1.4827 0.73184-3.1174 0.33667-1.2159 0.44567-1.1542 0.85266-1.7987 0.29036-0.71032 0.27551-0.8797 0.29752-1.2495 0.17505-1.0846 0.036652-0.47482-0.004921-0.46087-0.04324-0.37039-0.076542-0.32989-0.15962-0.41581-0.36324-0.60066-0.45075-0.52552-0.62937-0.57632-0.58903-0.44296-1.0474-0.64349-1.703-0.89653-2.5978-1.501-1.3374-0.69774-2.2559-0.99212-1.7365-0.61716-1.5054-0.41653-2.7867-0.56911-0.31497-0.078201-0.11185-0.062971 0.53296-2.8314 0.49389-2.1026 0.4064-1.4267 0.40603-1.2565 0.71856-1.8677 0.72259-1.5902 0.9921-1.9288 1.3921-2.4226 2.2804-3.6864 0.72144-1.4077 0.46942-1.1285 0.34474-1.0745 0.22152-0.91287 0.22772-1.2527 0.36955-2.4763 0.2994-1.4705 0.25348-0.83776 0.28047-0.68771 0.28582-0.54322 0.61842-0.89879 0.57366-0.64785 0.57494-0.53221 0.6722-0.50921 1.1429-0.68696 1.0686-0.51961 1.0072-0.43248 1.4733-0.56838 1.7264-0.59278 1.5054-0.44932 0.88084-0.21058 1.118-0.18301 1.001-0.067905 0.88588 0.011625 0.86857 0.085612 1.2803 0.27703 1.2603 0.38707 1.228 0.5224 0.97536 0.56221 2.4919 1.6882 1.0493 0.6407 1.4386 0.73609 1.0315 0.40782 0.74123 0.23199 0.99311 0.25055 1.0082 0.2015 1.4891 0.22712 1.8537 0.17635 0.94269 0.040773 1.856-0.010475 1.3373-0.074154 2.2061-0.23064 2.209-0.37682 2.3565-0.53353 2.9113-0.77052 4.5463-1.2847 1.2018-0.40236 2.9618-1.0844 0.99496-0.31861 1.8276-0.46821 1.4953-0.24776 0.9536-0.07286 1.2177 0.007777 1.7159 0.14577 3.8352 0.55543 1.007 0.11656 1.5759 0.095877 1.0614-0.011394 1.0509-0.084019 1.5198-0.24989 1.9806-0.44124 2.6749-0.65794 2.0851-0.4326 1.4605-0.19518 0.42163-0.019805 0.18639 0.039011" clip-path="url(#p8b7498f83a)"/>
   </g>
  </g>
 </g>
 <defs>
  <clipPath id="p8b7498f83a">
   <rect x="7.2" y="7.2" width="357.12" height="150.54"/>
  </clipPath>
 </defs>
</svg>
