<?xml version="1.0" encoding="UTF-8"?>
<!DOCTYPE svg  PUBLIC '-//W3C//DTD SVG 1.1//EN'  'http://www.w3.org/Graphics/SVG/1.1/DTD/svg11.dtd'>
<svg width="229.24pt" height="280.51pt" version="1.1" viewBox="0 0 229.24 280.51" xmlns="http://www.w3.org/2000/svg" xmlns:xlink="http://www.w3.org/1999/xlink">
 <metadata>
  <rdf:RDF xmlns:cc="http://creativecommons.org/ns#" xmlns:dc="http://purl.org/dc/elements/1.1/" xmlns:rdf="http://www.w3.org/1999/02/22-rdf-syntax-ns#">
   <cc:Work>
    <dc:type rdf:resource="http://purl.org/dc/dcmitype/StillImage"/>
    <dc:date>2024-07-04T12:11:38.215545</dc:date>
    <dc:format>image/svg+xml</dc:format>
    <dc:creator>
     <cc:Agent>
      <dc:title>Matplotlib v3.7.1, https://matplotlib.org/</dc:title>
     </cc:Agent>
    </dc:creator>
   </cc:Work>
  </rdf:RDF>
 </metadata>
 <defs>
  <style type="text/css">*{stroke-linejoin: round; stroke-linecap: butt}</style>
 </defs>
 <g id="figure_1">
  <g id="patch_1">
   <path d="m0 280.51h229.24v-280.51h-229.24v280.51z" fill="none"/>
  </g>
  <g id="axes_1">
   <g id="PatchCollection_1">
    <defs>
     <path id="m55e181be1c" d="m209.26-207.29 0.28423 0.22193 0.29029 0.42883 0.23615 0.5507 0.11835 0.60583-0.056425 0.61055-0.289 0.60807-0.49435 0.56437-0.64902 0.52218-0.7572 0.48455-1.6877 0.87769-2.4263 1.1442-0.47538 0.27205-0.7407 0.54777-0.59468 0.69712-0.42998 0.81383-0.26272 0.89324-0.078047 0.94349 0.08853 0.80741 0.20321 0.8202 0.28967 0.82849 0.35577 0.83959 0.66424 1.3836 0.65693 1.2565 1.405 2.4176 1.0755 1.6453 1.1487 1.515 1.0527 1.1121 2.0909 1.7772 0.33541 0.36444 0.36419 0.57738 0.26264 0.70845 0.19937 0.85531 0.1468 0.94418 0.1884 2.0903 0.1437 3.4757 0.17846 6.9191 0.073048 0.94704 0.032188 0.16141 0.06827 0.089184-0.55273 0.20992-5.8303 1.8519-2.4962 0.84488-2.7344 0.98075-2.3916 0.91788-2.5822 1.0836-2.2267 1.0427-2.031 1.0446-1.9645 1.0948-1.8951 1.1396-1.9517 1.2712-1.2973 0.90692-2.0875 1.5567-2.0412 1.6402-1.7984 1.5881-1.1253 1.115-1.0828 1.2616-0.66704 0.97001-0.71296 1.399-0.53693 1.4887-0.40199 1.5484-0.30129 1.5816-0.50592 3.6007-0.35573 1.7922-0.12328 0.44907-0.7069 1.8766-0.94488 1.8278-1.1142 1.7901-1.2272 1.7611-5.1631 6.8602-1.159 1.6842-2.2766 3.4619-3.7062 5.4386-2.1387 3.0501-1.2414 1.6983-1.3913 1.8043-4.3491 5.3434-1.62 2.0863-1.1704 1.6253-0.81691 1.2607-0.58143 1.0682-0.51095 1.1137-0.31456 0.78928-0.55498 1.6681-0.40468 1.5913-0.23306 1.2152-0.30617 2.2726-0.14551 1.6693-0.22019 3.4181-0.10196 0.94889-0.15113 0.89234-0.50549 1.5038-0.63013 0.92925-0.47622 0.48706-0.47025 0.38656-0.48779 0.33093-0.3127 0.18247-1.1553 0.54408-2.8428 1.0978-1.5061 0.6392-1.2898 0.6095-1.1437 0.60738-4.6234 2.8146-1.4862 1.0017-1.3535 1.0727-1.1394 1.1763-0.4936 0.67727-0.32806 0.5229-1.263 2.2274-1.3164 2.1116-0.66797 0.94513-2.5797 3.3411-0.83773 1.3366-0.66286 1.3071-0.51 1.2758-0.42986 1.2956-0.64616 2.187-0.19992 0.78182-0.24653 1.2595-0.33245 2.1941-0.26991 1.4617-0.32913 1.285-0.8985 3.1305-0.16468 0.76631-0.2147-0.020221-0.52066 0.10523-1.3381 0.4306-0.67284 0.31686-0.35675 0.23256-0.29478 0.25404-0.40433 0.50902-0.26257 0.47337-0.22485 0.52257-0.89506 2.8719-0.21502 0.57919-0.25311 0.54184-0.52176 0.76142-0.29495 0.28758-0.6214 0.40843-0.72541 0.30071-0.80504 0.22125-1.0483 0.19469-4.0961 0.46401-1.8005 0.30663-0.89632 0.20614-0.80929 0.21912-1.4617 0.47884-5.1331 2.0928-0.90976 0.31511-0.90356 0.25523-0.61516 0.12973-0.6112 0.084681-0.88493 0.039578-0.71358-0.01505-1.2122-0.092635-1.363-0.21858-1.4607-0.40017-4.5917-1.6993-1.3265-0.39077-6.4799-1.2916-2.159-0.29062-2.1548-0.19429 0.027016-3.2114-0.037332-1.3756-0.17216-1.9867-0.31363-1.9685-0.29031-1.3445-0.43773-1.6619-0.38655-1.2536-1.3071-3.7961-0.30673-1.0052-0.3123-1.2938-0.22936-1.576-0.14349-2.5075 0.028391-2.7069 0.10638-1.8516 0.5522-6.2247 0.10902-2.8766-0.054987-1.6783-0.26113-2.3731-0.34146-1.6162-0.55514-1.7662-0.80414-1.8842-0.66722-1.2469-1.0091-1.577-0.76018-1.0402-2.8117-3.5855-2.3738-2.877-0.84212-1.1008-0.79828-1.1544-1.1947-1.9578-2.4878-4.3786-1.0771-2.0612-0.6428-1.423-0.47123-1.3213-0.3805-1.4643-0.26056-1.651-0.057067-1.4597 0.08581-1.1385 0.18871-1.1048 1.0733-4.0922 0.26345-1.2078 0.23202-1.3185 0.13267-1.2326 0.023096-0.79382-0.097623-1.2006-0.083392-0.43848-0.18792-0.69163-0.3236-0.86724-0.39119-0.81675-0.51901-0.86821-0.6183-0.83442-0.71025-0.83267-2.5487-2.6032-0.45722-0.52724-0.7434-1.0218-0.33184-0.55262-0.5643-1.1411-0.61664-1.6528-0.36182-1.2519-0.31474-1.3304-0.9815-5.1182-0.48092-1.8086-0.67621-1.6873-0.67844-1.1613-0.7945-1.0933-1.4786-1.7734-1.9148-2.143-2.762-3.4845-1.1265-1.2357-1.2455-1.0464-0.57744-0.38142-0.48691-0.26388-0.36738-0.14939-0.5136-0.092777-0.29405 0.13225 20.259-41.506 2.1297-4.4592 4.9103-10.551 2.6144-5.5158 0.51883-1.0432 1.4958-2.7249 0.44403-1.3345 0.063793-1.098-0.16724-1.1294-0.2705-0.89583-0.37493-0.8788-0.3324-0.62989-0.71321-1.1782-0.89126-1.2698-0.99374-1.1995-1.3961-1.4569-1.0663-1.2569-0.99155-1.3857-0.83024-1.4385-0.49968-1.1481-0.3442-1.121-0.22087-1.6034 0.030707-0.90412 0.18707-1.1509 0.3455-1.1766 0.50893-1.2142 0.29687-0.58526 0.52178-0.90932 0.61007-0.94464 0.68182-0.95186 0.66414-0.83976 1.3231-1.4485 0.65034-0.62457 1.2371-1.0846 1.6596-1.2893 0.93494-0.62438 2.3454-1.2899 0.9757-0.56613 0.65512-0.44685 0.49068-0.38258 0.75767-0.69096 0.78105-0.9122 0.6329-0.99994 0.21613-0.44106 0.13143-0.31638 0.31301-1.042 0.26736-1.7372 0.22156-2.8714 0.20163-1.6743 0.016715-0.4446 0.51195-0.015328 4.3478-0.70028 4.7029-0.66016 3.0136-0.32498 2.81-0.1517 1.9176-0.003372 1.2647 0.05446 1.5721 0.1545 1.4955 0.28429 0.91477 0.27811 0.79118 0.33699 0.50178 0.27855 0.59325 0.41536 0.53316 0.45882 0.64308 0.66099 0.45718 0.54184 1.1568 1.6111 1.0513 1.6806 1.0127 1.8055 0.99959 1.9759 3.7911 8.2022 1.5414 3.0686 1.6708 2.9681 0.99465 1.5807 1.0006 1.4408 1.0633 1.3631 0.91732 1.0358 0.68375 0.69668 1.3916 1.2836 1.0079 0.82555 0.81109 0.58237 0.8182 0.49811 0.90584 0.42867 0.9208 0.28173 1.6062 0.11362 1.6246-0.22193 4.5952-1.2045 1.2935-0.12875 0.34515 0.024965 0.75136 0.15927 0.37527 0.12231 4.0422 1.5661 1.7033 0.55282 1.4939 0.42402 1.4308 0.31508 1.2419 0.17526 1.0333 0.063504 1.4016-0.027034 1.0957-0.096116 1.3418-0.17733 2.3243-0.37245 0.96292-0.20488 0.84788-0.25335 0.86256-0.3232 3.3891-1.3946 1.6181-0.53293 0.84755-0.20481 1.9168-0.38179 1.0698-0.16868 2.2768-0.21005 1.3865-0.17517 1.688-0.28414 1.3038-0.26847 0.99382-0.28138 0.99807-0.34236 3.2158-1.2444 1.027-0.34328 1.1173-0.30253 1.382-0.25732 0.70259-0.072409 0.9598-0.031935 0.95453 0.024393 2.2156 0.12363 1.8737 0.054706 4.4738 0.33322 2.1476-0.00744 0.91201-0.046624 1.6335-0.16021 1.6427-0.074502 0.60592 0.038698 0.94506 0.13097 1.7194 0.41771 1.0517 0.35278 1.0531 0.42292 1.7348 0.85446 1.6302 1.0061 1.2436 0.91571 2.2951 1.8142 2.5146 2.132 2.461 2.2057 1.4632 1.3861 1.7518 1.7574 2.4011 2.6441 5.4368 6.5665 1.2147 1.3037 1.02 0.85011 0.53344 0.22805 0.29247-0.1492" stroke="#bdc660"/>
    </defs>
    <g clip-path="url(#pbac443830f)">
     <use y="280.512" fill="#bdc660" stroke="#bdc660" xlink:href="#m55e181be1c"/>
    </g>
   </g>
  </g>
 </g>
 <defs>
  <clipPath id="pbac443830f">
   <rect x="7.2" y="7.2" width="214.84" height="266.11"/>
  </clipPath>
 </defs>
</svg>
