<svg xmlns="http://www.w3.org/2000/svg" width="495.4" height="295" viewBox="0 0 371.5 221.3"><defs><style>*{stroke-linejoin:round;stroke-linecap:butt}</style></defs><g id="figure_1"><path id="patch_1" fill="none" d="M0 221.3h371.5V0H0z"/><g id="axes_1"><g id="PatchCollection_1" fill="#0c1321" stroke="#0c1321"><path d="M313.6 105.9h-.2l-.2.1-.3.2-.2.1-.2.1-.4.2-.2.1h-.2v.1h-.3l-.2.1h-.8l-.7.1h-.8v.1h-.2l-.1.1-.3.2h-.1v.2l-.1.1v1.1h-.1v.5l.2.3v.5h-.1l-.2.2-.1.1v2.8l-.1.1h-.1l-.3.2h-.2l-.2.1h-.1l-.4.1h-.3v.1l-.4.1-.4.2h-.2l-.1.1-.5.3h-.2l-.2.2h-.2l-.2.1h-.1l-.1.1-.1.1-.3.2-.3.2h-.1l-.1.2h-.1l-.1.1-.2.2-.2.2v.9l-.1.1v.5l-.1.1v.2l-.2.2-.1.3v.1l-.1.1v.2l-.1.1v1.9h-.1v.1l-.1.2h-.1v.1h-.2l-.1.1h-.2l-.2.1h-.1l-.2.1v.1h-.2v.1h-.2v.1l-.1.1-.1.2h-.1v.1l-.3.2-.1.1-.1.1v.1h-.1v.2l-.1.2v.3h-.1v.6l.1.2.1.1h.1l.2.2.1.1v.1h.2v.2l.1.1.1.1v.2h.1v.7h-.1v.1l-.2.2-.1.1v.2h-.1l-.2.2v.1h-.1v.2h-.1v1l-.1.1v.1h-.1v.1h-.1v.1h-.1v.2l-.1.2-.1.1-.1.1-.2.1-.1.1-.2.1-.2.1h-.1v.1h-.4v.1h-.2l-.1.1-.2.2-.2.1h-.1v.1h-.3v.1h-.2v.1h-.1v.2h-.1v1l.1.1v.6h.1v.2l.1.1.1.1.1.2h.1l.2.2.2.3h.1l.1.1.1.1h.2v.1h.1l.1.1v.1h.1v.9l-.1.2v.1h-.1v.1l-.1.1-.1.1-.1.1-.1.1h-.1v.1h-.1l-.3.2h-.3v.1h-.2l-.1.2h-.1l-.3.1h-.1v.1h-.1l-.1.1v.1l-.1.2v.4h-.1v.2h-.1v.1h-.1v.1h-.9v-.1h-.5v.1l-.2.1-.1.1h-.8l-.1.1h-.1l-.1.1v.1l-.1.1v.2l-.1.2v.4l-.1.1v.1l-.1.2v.1l-.1.1v.6l.1.1v.2l.1.3v.6l-.2.2v.1l-.1.3v.1h-.1v.1h-.2v.1h-.1v.2l-.1.2v.6l-.1.1v.3l-.1.4v.5h-.1l-.1.1-.1.1h-.1l-.1.1-.3.2-.3.2h-.1v.1l-.2.2v.1l-.2.2-.2.2-.1.1-.3.4v.6l.1.1.1.1h.1l.2.1.2.1.3.2h.1l.1.1.3.1h.2l.1.1.5.2.3.1.3.2h.2v.1l.2.1.3.2.1.1.1.1v.1l.3.3v.5h-.1v.2l.1.1v.2l-.2.2h-.1v.1l-.1.1-.1.1h-.2l-.1-.1-.1-.1h-.9l-.2-.1h-.4v.2h-.1v.5h.1v.7l.1.1v.2l.2.2v.3h-.1l-.3.1-.3.1h-.2l-.2.1v.1h.1l.1.1h.1l.3.1.1.1h.1v.1h.1v.1h.1v.5h-.5l-.1.1v.1l-.1.2v.5h-.1v.1h-.3v.1h-.2v.1l-.1.1v.6l.2.3.1.2.1.1v.3l.1.2v.6l-.1.1v.4l.1.1v.1h.1v.1l.2.1v.3h.1v.9l.3 1.2v.5l.1.2v.1l.1.1h.3l.1-.1h.3l.1-.1h.5v-.1h1.2l.1-.1.1-.1h.1l.1-.1h.2l.1.1.1.1v.2h.1v.6l.1.1v.2h.1v.1l.1.1.2.3v.1l.1.1.1.3.1.1v.1l.2.1v.1l.2.1v.2h.1v.1l.1.2v.1l.2.5.1.2v.1h.1l.2.3.2.2v.2h.1v.2l.1.3v.2l.1.1v.1l.1.1.2.3h.1v.1h.1v.1h.1l.3.1h.1v.1h.1v.1l.1.1v1.1h-.1v.3l-.1.2v.5l-.1.1v1.2h.8l.3.1h.1l.1.1h.5l.1-.1.3-.1.4-.2.2-.1h.1v-.1h.8v.1h.1l.1.1.2.2.1.1.2.1v.2l.1.1v.3l.1.1v.1h.1v.1l.4.3.1.2.1.1v.1h.1v.5l-.2.2-.1.2-.1.1v.1l-.2.1v.1l-.2.1-.3.4-.1.1-.1.2-.2.2v.1l-.1.1v.2l-.2.3v.4l-.1.2v1h.1v.1l.1.1.2.1v.1h.2l.3.2h.1l.4.2h.1l.1.1h.1l.2.2.2.1h.4v.1h.1l.1.1v.1h.9v.2h.1v.1h.5v.2h.1v.2l-.2.2-.1.2v.1l-.1.1v.5l-.1.2v1.2l.1.1v.3l.2.3v.2l-.1.1v.1h-.1v.1h-.1l-.1.1h-.9l-.1.1h-.1l-.1.1h-.1v.1h-.2v.2l-.1.2v.8h-.1l-.1.2-.1.1-.1.1-.1.1v.1l-.1.1v.4l-.1.2v1.2h-.1v.1h-.1v.1h-.2v.1h-.1l-.3.2h-.1l-.2.2-.3.2-.1.1-.2.1-.2.2-.5.3h-.1v1l.1.1v.1h.1v.1h.1v.1h.2v.1h1l.2-.2h.3v.1h.1v.5l-.1.2v.5h.1v.8h-.3v.2l-.3.2-.1.1-.1.1-.1.2-.1.1h-.1l-.1.1-.2.1-.1.1h-.1l-.1.2h-.1l-.3.3h-.1v.1l-.1.1v.7h-.1v.1h-.1l-.1.1-.1.1h-.1l-.6.3h-.6l-.1.1h-.1l-.2.1v.1h-.1v.1h-.1v.1h-.7l-.2-.1h-.2v-.1h-1l-.2-.1v-.1h-.2v-.1h-.1l-.1-.2h-.1l-.1-.1-.3-.3-.1-.1-.1-.1-.2-.1v-.1h-.2l-.1-.1-.2-.2h-.1v-.1h-.1l-.1-.1h-.6l-.5.2h-.1v.1l-.1.1v.2l-.1.2-.1.1v1.9l-.1.1h-.1v.1l-.2.2h-.2l-.2.1h-.3l-.1.1h-.4v-.1h-.1v-.1l-.1-.1-.2-.2v-.2h-.1v-.1h-.4l-.2.1h-.1v.1h-.1v.1h-.1l-.1.2h-.1l-.1.2h-.8l-.3.1h-.8v-.1l-.2-.2-.1-.1-.4-.2v-.1h-.2l-.1-.1h-.6v-.1h-.1l-.1-.1-.1-.1h-.2v-.1h-.6l-.1-.1h-.1l-.1-.1-.2-.1-.1-.1-.1-.1h-.6l-.1.1h-.4v.1h-.5l-.1.1h-.1l-.1.1-.1.1v.2h-.1l-.1.1-.1.1h-.1v.1h-.2v.1l-.2.1v.2h-.1v.2l-.1.1v.1h-.1l-.4.4-.2.2-.1.2h-.1v.1l-.1.1-.1.2-.1.2v.2h-.1v.4l.2.3v.3l.1.1v.6l-.1.2-.1.2-.2.3v.2l-.2.2-.1.1v.1h-.1l-.1.1h-.4v-.2h-.1v-.1l-.1-.2v-.2l-.2-.1v-.4h-.1v-.1l-.1-.1-.1-.2-.2-.1v-.1h-.1l-.1-.1-.1-.1h-.2v-.1h-.4l-.3-.2h-.2l-.3-.2-.5-.2h-.2l-.2-.1h-1v-.1h-.5l-.1.1-.1.1-.2.1-.1.2-.1.1v.1l-.1.2-.1.4-.1.1v.1l-.1.1v.1h-.1v.1h-.1l-.1.1h-.1l-.3.2h-.1v.1h-.2l-.2.2h-.3l-.3.2h-.3l-.1.1h-.1l-.3.2h-.3l-.3.1h-.6l-.1.1h-1.3l-.2.1v.1l-.1.1-.1.1v.1l-.1.2v.1h-.1v.2h-.1v.1h-.2v.2h-.7l-.1-.1v-.1h-.1v-.2l-.1-.1v-.9l-.1-.1v-.1h-.1l-.2-.2h-.1l-.2-.2-.2-.1h-.1l-.2-.2-.1-.1-.1-.1v-.1h-.1v-.3h.1l.1-.1h.2v-.1l.4-.4.2-.2v-.1h.1l.3-.2.1-.1v-1.6h-.1v-.1h-.1l-.1-.2-.2-.1-.5-.4-.2-.2-.4-.3v-.1l-.2-.1-.2-.1v-.1h-.1v-.3l.2-.2v-.1l.1-.1.2-.3v-.2l.2-.2.2-.4.2-.4v-.1h.1-.5l-.2-.1h-.4l-.1-.1h-.1l-.1-.1h-.1l-.1-.1-.1-.1v-.1h-.1v-.2l-.1-.2-.1-.2-.2-.6v-.3l-.1-.3-.2-.4v-1l-.1-.1v-.1h-.1v-.2h-.1l-.1-.2h-.1l-.1-.1h-.1v-.1l-.3-.2h-.1v-.1l-.1-.1-.3-.5h-.1l-.1-.2-.1-.1-.2-.1v-.1h-.2l-.3-.2h-.1v-.1h-.1v-.1l-.1-.1-.2-.3h-.1v-.1l-.1-.1-.2-.1v-.1h-.2l-.2-.1-.6-.3h-.2l-.1-.1h-.1l-.1-.1-.1-.1h-.1v-.1h-.9l-.1-.1h-.1l-.2-.2-.1-.1-.2-.2h-.2v-.1l-.3-.2h-.1v-.1h-.5l-.1.1-.1.1v.3h-.1v.4l-.1.1v.3l-.1.1v.2l-.2.1v.2h-.1l-.1.1h-1v.1h-.2l-.2.1-.1.1h-.1l-.1.1-.2.1-.1.1h-.3v-.2l-.2-.4v-.3l-.2-.3v-.1l-.2-.2v-.5l-.1-.1v-.7h.1v-.2l.2-.3v-.1l.1-.1v-.1l.2-.3.3-.3.2-.4.2-.2v-.1l.1-.1h.1l.2-.2.1-.1.3-.2.3-.2v-.4l-.1-.1v-.1l-.1-.1h-.1v-.1l-.1-.1-.3-.3-.3-.3-.2-.2-.1-.2-.2-.2-.2-.1-.2-.2-.2-.3h-.1v-.1h-.2v-.1l-.2-.2h-.2l-.2-.2-.3-.2h-.1l-.1-.1-.3-.3-.2-.2-.2-.2h-.1v-.1h-.1v-.1l-.2-.4-.1-.2-.1-.1-.1-.1v-.1l-.1-.1h-.1l-.1-.2-.2-.1-.2-.2h-.1v-.1h-.9l-.2.1-.1.1h-.1l-.1.1-.1.2h-.1l-.3.4-.1.1v.1h-.1v.1h-.2l-.1.1h-.1l-.2-.2v-.1h-.1v-.1h-.2l-.3-.2h-.7l-.5.2h-.6v-.1l-.2-.1-.1-.1-.2-.3h-.1l-.1-.1h-.4l-.3.1h-.1l-.1.1h-.3l-.1-.1h-2.6l-.1-.1v-.2l-.1-.2v-.8l.1-.4v-.8l-.1-.1v-.1h-.1l-.1-.2-.1-.1-.1-.1-.1-.1h-.1v-.1h-.2v-.1h-.1l-.1-.1h-.1v.1l-.2.3v.2l-.2.2v.1h-.2v.1h-.5v-.1h-.1l-.2-.1h-.9v-.1h-.1v-.1l-.1-.2-.1-.2v-.1l-.1-.2V172l-.2-.3v-.2l-.1-.3v-.2l-.2-.3v-.1l-.1-.2-.2-.3v-.1l-.2-.3-.2-.4-.2-.2v-.1l-.4-.5-.2-.3-.2-.2-.2-.4-.3-.4-.1-.1-.1-.1-.1-.1h-.6l-.1.1-.2.1h-.1l-.4.1h-.2v.1h-.8v-.1h-.1v-.1h-.1v-.1l-.2-.2-.1-.1-.1-.1-.2-.1-.5-.2h-.2v-.1h-.2l-.3-.1h-.2l-.1-.1h-.2l-.1-.2h-.2l-.5-.3h-.1l-.3-.2-.3-.2-.4-.1-.3-.2h-.1l-.1-.2h-.2v-.1h-.1v-.1h-.1v-.1l-.1-.1v-.1l-.1-.3-.1-.1v-.2l-.2-.2-.2-.3v-.1l-.2-.2v-.1l-.1-.1v-.3l-.1-.1v-.1h-.2l-.1-.1h-1l-.5-.1h-.6v-.1h-.2v.1h-.1v.1h-.1v.1h-.6l-.3-.1h-.5l-.1.1h-.1v.2h-.1v.1h-.1l-.1.3v.2h-.1v.1l-.1.1h-.4l-.1.1h-.2l-.1.1v.1h-.2v.1l-.2.2h-.1l-.2.1h-1.1l-.5.2h-.9l-.2-.2h-.2l-.4-.1h-.3l-.1-.1h-.2l-.1-.2-.3-.1-.1-.1h-.1l-.1-.1h-.6v.1l-.1.2h-.1v.1h-.2v.1h-.7v-.1l-.2-.1-.2-.1v-.1h-.1v-.3l.2-.2v-.1h.1v-.2l.2-.2v-.1l.2-.3v-.2l.1-.2v-.1l.1-.1v-.4l.1-.3v-.1l.1-.1v-.1h.1v-.1l.1-.1h.1v-.1l.3-.1v-.1h.1v-.5l-.2-.3-.1-.1v-.1l-.1-.1v-.2l-.1-.3v-.5l-.1-.1v-1l-.1-.2h-.2v-.1h-.4v-.1h-.1l-.1-.1v-.1l-.1-.1v-.4h-.1v-.2l-.2-.3v-.1l-.1-.1v-.5l-.1-.1v-.9l-.1-.2v-.2h-.1v-.2h.2l.1.1h.6v-.1h.1v-.1l.1-.1v-.6l.1-.1v-.1l.1-.1v-.1l.1-.2.1-.1.1-.1v-.1l.2-.1v-.2l.1-.1v-.5l.1-.2v-.1l.1-.2.2-.2.1-.3.2-.2v-.2h.2v-.1l.3-.2.1-.1v-.1l.1-.1v-.2l-.1-.1h-.1v-.1h-.3l-.1-.1v-.3l.1-.1h.1l.2-.1h.1v-.1h.1l.1-.1v-.1l.1-.1v-.4h-.1l-.1-.2-.2-.3-.1-.2v-.1l-.1-.1v-.4h-.1v-.2h-.1v-.1l-.1-.1-.1-.1-.1-.1-.2-.1-.1-.1h-.1l-.2-.2-.5-.3-.1-.1-.2-.1v-.1h-.1l-.1-.1-.1-.2v-.1l-.2-.2v-.1l-.1-.3-.2-.3v-.2l-.1-.2v-.2h-.1v-.2h-.1v-.1l-.1-.1h-.1v-.1h-.2v-.1h-.1l-.2-.1H204l-.2-.1-.4-.1-.2-.1-.3-.2h-.3l-.2-.1h-.4v-.1h-.3l-.1-.1-.2-.1-.3-.2h-.2l-.2-.1h-.1v-.3l-.1-.3v-1.3h.1l.2-.5v-.9h.1l.1-.1h.3l.1-.1h.3v-.1h.2v-.1l.1-.1.1-.1v-.1l.2-.2.2-.1v-.1l.1-.1v-.1l.2-.3v-.1h.1v-1.6l.2-.6v-.8l-.1-.1v-.7l.2-.2v-.7l.1-.1h.1v-.2l.3-.2v-.1h.1l.2-.3.1-.1.1-.1.3-.2h.1v-.1l.2-.1v-.1h.1v-.2h.1v-1h-.1v-.1h-.6l-.1-.1h-.1l-.1-.1v-.1h-.1v-.1l-.1-.2v-.7h.1v-.3h-.1l-.1-.1-.3-.2h-.1v-.1h-.1v-.8h.3v-.1h.7l.1-.1h.2l.1-.1.1-.1v-.1l.1-.1v-.1h.1v-.3h.1v-.9l.1-.3v-.2l.2-.1v-.7l-.2-.2v-.2l-.1-.1v-.4l.4-.3v-.1h.1v-.1h.1v-.1h.1l.1-.2h.7v.1l.1.1h.1v.2l.1.1v.4l.1.1v.1h.1v.1h.1v.1l.2.1v.1h.2v.1h.3v-.1h.1v-.2l.1-.1v-.4l-.1-.1-.2-.2h-.1v-.4l.1-.5.1-.4v-.9l-.2-.4v-.2l-.1-.2v-.5l.1-.2v-.1l.1-.1.1-.1.1-.1.3-.2v-.1h.1v-.2h.1v-.2h.2v-.1h.5v-.1h.1l.1-.1h.1l.2-.2h.1v-.1l.2-.1v-.6h-.2l-.2-.1h-.3l-.1-.1h-.2v-.1h-.1v-.2l-.2-.3v-.3l-.1-.1v-.4l-.1-.3v-.1H207l-.1.1h-2.3v-.1h-.2l-.2-.1v-.1l-.2-.3-.2-.2-.1-.1v-.1l-.1-.1v-.2l-.1-.1v-.7h-.1l-.2.1v.2h-.1l-.2.3-.4.6-.2.4-.2.2-.1.1v.1h-.2v.2h-.1l-.1.1-.1.1-.2.1-.1.1-.2.1-.5.4-.3.2-.3.1-.2.1-.1.1-.2.1h-.1l-.4.2h-.2v.1l-.2.1-.2.1-.1.1-.2.1v.2h-.1v.1l-.2.6-.1.3-.1.2v.1l-.1.1v.1l-.1.1-.1.2h-.1l-.3.1v.8h.1v.5l-.1.1v.1h-.2v.1l-.2.1-.2.1-.2.1-.4.3-.3.1-.6.3h-.2l-.4.3h-.2v.1h-.1l-.1.1-.2.2-.1.1-.2.1-.2.1-.2.1h-.1l-.1.1h-.1l-.1.1-.1.1-.2.3-.1.3-.2.4-.1.1v.1l-.2.2v.2l-.1.1-.1.2v.1l-.1.2v.3l-.1.1v.1l-.1.2v.3l-.1.1-.1.1-.1.1-.1.2h-.1v.7h.1l.2.4v.2h.1v.1h.1l.1.1h.7v.1l.1.2.1.3v.6l-.1.1v.4l-.1.3v.3h-.1l-.2.6v.1l-.2.3v.4l-.2.4-.1.2v.2h-.1v2.1h.1v1.4l.1.1v.2h.1l.2.3v.2l-.1.1H189l-.2.1-.2.1h-.1l-.3.2-.5.1h-.1l-.5.2h-.1l-.3.2h-.4v.1h-.1v.1h-.2l-.1.1h-.5l-.2.1h-.4v.1h-2.3l-.2.1-.7.2-.3.1-.2.1-.1.1-.1.1h-.1l-.1.1v.1h-.1v.2l-.2.3v.1l-.1.1-.1.1-.1.1-.1.1-.1.1h-.1v.1h-.2v.1l-.2.1h-.2l-.2.1h-.3v.1h-1.2v.1h-.1v.1l-.4.4-.2.2v.2h-.1v.1l-.2.2v.1l-.2.3-.1.2-.3.4v.1l-.1.1h-.2l-.2.1-.1.1h-.1l-.3.2-.1.1H173l-.3.1h-1l-.1.1h-.2l-.2.1-.3.2-1.1.5-.3.2h-.2l-.1.1h-.8l-.2-.1-.1-.1h-.1l-.4-.2h-.2l-.5-.3-.4-.2-.2-.1-.2-.1h-.1l-.3-.1h-.2l-.3-.1h-.2l-.2-.1h-1.3l-.1-.1-.2-.1-.3-.2v-.1h-2.8l-.1-.1h-.1l-.1-.1h-.1v-.1h-.1v-.1l-.2-.2-.1-.2-.5-.4v-.1l-.2-.1-.1-.1h-.8l-.2-.1h-.1l-.2-.1h-.2l-.1-.1h-.1l-.2-.2-.4-.3h-.5l-.1.1-.2.1-.1.1h-.1l-.1.1h-.1l-.1.1h-.4l-.1.1H153l-.3-.1h-.5l-.3.1h-.5l-.1.1h-.1l-.3.1h-.4l-.1.1-.2.1h-.1l-.1.1-.3.2h-.3v.1h-1.5l-.1.1h-1.2l-.1.1h-.2l-.2.1h-.3v-1.5h-.1v-.1l-.1-.1h-.2v-.1h-.2v-.1h-.1l-.3-.2h-.1l-.3-.1-.2-.1-.1-.1-.1-.1-.2-.2-.1-.1h-.1l-.1-.1h-.7l-.5.1h-1.1l-.1-.1h-.1v-.6h.1l.1-.2.1-.1h.1v-.1h.2l.2-.2v-.1h.1v-.1h.1v-.1h.1v-.2h.1l.2-.4.1-.3v-.1l.1-.1v-.8l-.1-.1v-.1h-1v-.2h-.1l-.1-.1v-.2h-.1v-.1h-.2v-.2h-.1v-.1l-.1-.1-.1-.1-.1-.2-.1-.1v-.1h-.1v-.2l-.1-.2v-.9l.1-.2.1-.2.3-.4.1-.2.1-.2.1-.1.2-.2v-.1h.1v-.2h.1v-.2l.2-.4.1-.2.1-.1v-.2l.2-.1v-.2h.1l.1-.2.2-.2v-.1h.1v-.1h.5l.3.1.3.1h.8v-.1h.1l.3-.2.4-.1.2-.1.1-.1.1-.2.2-.3v-.1l.1-.1v-.1h.2v-.1h.2l.4-.2h.4l.3-.2h.1l.1-.1h.1l.1-.1.2-.1.2-.2.2-.2.1-.1v-.1h.1v-.2h.1v-.2l.1-.1v-1l-.2-.3v-.2h-.1l-.1-.4v-.1l-.1-.1v-.1h-.1l-.2-.2-.2-.2v-.1l-.1-.1-.1-.3-.1-.1v-.1h-.1v-.1h-.1v-.1h-.1v-.2h-.2l-.2-.1h-.1v-.1h-.1v-.1l-.1-.1-.1-.1v-.1l-.1-.1v-.3l.2-.1v-.3h-.1l-.2-.1h-.1l-.1-.1v-.5l.2-.3v-.4h.1V116l-.1-.2-.1-.2v-.9l-.1-.1-.1-.1h-1.2l-.2.1h-1l-.4-.1h-.4l-.1-.1h-.3v.1h-.1v.1l-.1.1v.1l-.1.2-.1.1v.1h-1l-.4-.1h-.1l-.2-.1-.1-.1h-.1v-.1h-.1v-.1l-.2-.1v-.2h-.1v-.6h.1v-.1l.1-.1.1-.2.1-.1v-.1h.1v-.4l.1-.1v-.3l.1-.1v-.2h.1v-.1l.1-.1v-.1l.1-.1.2-.1.1-.2h.1l.1-.2h.2l.1-.2h.1v-.1h.1l.1-.2h.1v-.2l.1-.1v-1.2l-.1-.1-.2-.2v-.1h-.1v-.5l.1-.1v-.1h.1v-.2h.1l.1-.2v-.2l.1-.1v-.3l.1-.2v-.5l.1-.1v-.1l.1-.1v-.1l.1-.1v-1.1h-.1l-.2-.4-.1-.1-.2-.2v-.3l-.1-.3v-.2h.1v-.1h.3v-.1h.7l.1-.1.1-.1.2-.1.1-.1h.1v-.2h.1v-.1l.2-.2.1-.1.1-.2v-.1l.1-.1.1-.3.2-.5.1-.2v-.1h.1v-.2h.1v-.1l.2-.1.1-.2.3-.3.2-.1.1-.1h.2v-.1h.3l.2-.1h.1v-.1h.1l.1-.1.2-.2.1-.1.3-.2.2-.2h.1l.1-.2.2-.2.1-.1v-.1l.1-.1v-.2l.1-.1v-.7l-.1-.2-.2-.2v-.1l-.1-.1V96l-.3-.5v-.1l-.1-.2-.1-.1-.1-.1v-.1l-.2-.2h-.1l-.2-.2h-2l-.2-.1h-.1v-.1h-.1v-.1l-.1-.1v-.3h-.1v-.6l-.1-.1h-.1l-.2-.2-.1-.1-.1-.1v-.1h-.3v-.1h-.2l-.1.1-.2.1v.1h-.1l-.2.1-.1.1v.1l-.2.3v.3h-.1l-.1.3v.1h-.1v.3h.1v.1h.1l.3.2.3.1h.1l.1.1h.1v.2l.3.2v.2h.1v.1l.1.1v.8h-.1l-.1.2h-.1l-.2.1-.2.1h-2l-.1-.1-.1-.1v-1l-.1-.1v-1h-.1l-.1-.1h-.7l-.1-.1v-.1l-.1-.1v-.6l.1-.1v-.3l.1-.2v-1.2h-.1v-.4h-.1V91h-.1l-.2-.4-.1-.2h-.2v-.1h-.6v-.1l-.1-.1-.1-.1-.1-.2-.1-.2-.1-.1-.1-.1-.1-.2h-.1l-.1-.2h-.2l-.1-.1h-.8l-.2.2h-.1l-.1.1h-.2l-.1-.1v-.3l-.1-.3v-.4l-.1-.1v-.2h-.1v-.1l-.1-.1-.1-.1-.3-.3h-.1V87l-.2-.1-.1-.2-.1-.2h-.1v-.1h-.1v-.1h-.2v-.1l-.3-.2h-.1l-.1-.1-.1-.1v-.2h-.1l-.1-.3-.1-.1-.1-.1h-.2l-.2-.1h-.3l-.1-.1-.1-.1-.1-.1-.1-.1h-.1v-.2l-.2-.2V84l-.1-.2v-.2l-.1-.2v-.1l-.1-.1V83l-.1-.1v-.1l-.1-.1-.1-.2v-.1h-.7v.1h-.1v.1h-.1v.2h-.1v.1l-.1.2h-.1v.1h-.1v.1h-.2v.1h-.5l-.3.1h-.2v.1h-.2v.1h-.4v.1h-.2v.1h-.2v.1l-.1.1-.1.1v.2h-.6l-.4-.3h-.2l-.1-.1h-.1v.1l-.2.3-.1.1h-.1v.1h-.1v-.9h-.5v.1l-.3.1-.6.4-.2.1-.6.3-.5.3-1.9 1-.2.2-.2.1-.2.1h-.2v.1h-.3v.1h-1.6v-.3l.1-.3v-.5l-.1-.1V85h-.9l-.1.1h-.5V85h-.2l-.1-.1-.1-.1h-.1l-.1-.2h-.2v-.2h-.4V84l-.1-.2v-.1l-.1-.1-.1-.1-.1-.1h-.1v-.1h-.2l-.2-.2h-.4l-.5-.2h-.1l-.2.1h-.7v.1h-.1v.1l-.1.1v.3h-.1v.1l-.1.1v.1h-.1v.1h-.2v.1h-.5l-.1-.1-.1-.1v-.1l-.1-.1v-.1l-.1-.1-.1-.2-.1-.1h-.2V83h-.5l-.1.1h-.9l-.2-.1h-1.7l-.1.1h-.1l-.1.2h-.1v.1h-.1l-.1.1h-.6l-.2-.2h-.6v.1h-.1v.1h-.2v.1h-.2v.1l-.1.1-.1.2-.1.1-.2.2v.6l-.1.1v.6l-.1.3v.1l-.1.1-.1.2h-.1v1.8h-.1v.8l-.1.1h-.3l-.1-.1-.2-.1v-.2l-.2-.3v-.2h-.2V88h-.1V88h-.1l-.1-.1h-.3v.6l.1.1.1.1.1.1v.1l.1.2v.2l.1.3v.3h-.2l-.1.1h-.1l-.2.1-.1-.2-.1-.2-.1-.2-.1-.1-.2-.2-.1-.1-.1-.1-.1-.1-.2-.2h-.1l-.1-.1v-.1l-.1-.2-.1-.1-.1-.1-.2-.1-.2-.2h-.1.4v-.1h.1v-.2l-.1-.1-.1-.1-.2-.2-.1-.1-.2-.2v-.1H99l-.2-.3-.1-.1-.1-.2-.1-.1-.2-.2v-1.2h-.1v-.1l-.1-.2-.2-.1-.1-.1-.1-.2-.2-.1v-2.2l-.1-.1v-.1h-.1v-.1l-.1-.1-.2-.2h-.1v-.1l-.1-.1V80h.1l.2-.3.1-.2.1-.1v-.2h.1l.1-.2.1-.3.1-.2.1-.2.2-.2V78l.1-.2v-1.5l.1-.3v-1.4l-.1-.3V74l-.1-.2v-.6h.1V73L98 73v-.2h-.1V71h-.1v-.3h-.1v-.1l-.1-.1-.2-.2h-.1V70h-.1V70l-.1-.1v-.7l.1-.3V68H97V68l-.1-.1v-.1l-.4-.4h-.1v-.1H96l-.2-.1h-.3V67h-.1V67l-.2-.1-.1-.2v-.1l-.2-.1v-.2l-.2-.2v-.3l-.1-.1v-.1l-.1-.1v-.2l-.1-.3v-.2h-.1v-.1l-.1-.1-.1-.2H94l-.1-.1-.3-.3-.2-.2h-.1l-.1-.1-.1-.1v-.1l-.1-.1v-.1H93l-.1-.2V63l-.1-.1-.1-.1-.2-.2h-.6l-.2.1-.2.2h-.2l-.1.1H91v.1h-1.1V63h-.1v-.1l-.2-.2v-.1l-.2-.1-.1-.2h-.1v-.1L89 62H89l-.1-.1h-.3l-.2.1H88v.1h-1v.1h-.2l-.2.1h-.1l-.2.1-.1.1h-1.6v.1h-.1l-.2.1-.2.2h-.2v.1l-.3.1-.2.1-.2.1-.1.1h-.2v.1h-.4v-.2h-.1v-.9l-.1-.2v-.6h.1l.1-.2.2-.3.2-.2.1-.1.3-.2.2-.1v-.2h.2v-.1l.1-.1.1-.1v-.1l.1-.1v-.3l.1-.3V59l.1-.1v-.5l-.1-.1-.2-.1-.2-.2-.3-.1h-.1l-.1-.1H83l-.3-.2H82l-.2.1h-.3l-.2-.2H81l-.1-.1h-.1l-.2-.2h-.3V57h-.6v.4h-.1v.1l-.2.1v.1l-.1.2h-.1l-.1.2-.2.1-.2.2v.1l-.2.1v.1l-.1.1v.1l-.1.2v.3h-.1v.2l-.1.2v.2l-.1.2v.1l-.1.1v.1h-.1l-.1.1h-.6l-.1-.1-.2-.1-.1-.1h-.2v.1h-.1l-.1.1-.2.2-.1.1H76l-.1.1h-.1l-.1.1h-.2v.1h-.1l-.2.1h-.3v.1h-.2l-.2.1-.1.1-.3.1H74l-.1.1h-.3l-.1.1h-.2l-.2.1h-.4l-.1.1h-.1v.1h-.2v.2H72l-.1.1-.2.1-.2.1h-.3v.1H71l-.1-.1-.1-.1-.1-.1v-.1h-.1v-.2l-.2-.2-.1-.2-.3-.4v-.1H70v-.1h-.1l-.1-.1h-.1l-.1-.1h-.3l-.3-.2h-.4l-.5-.2-.1-.1h-.3l-.2-.1h-.3l-.1-.1H67v-.1h-.1v-.4l-.2-.1-.1-.1-.2-.2v-.1l-.2-.2-.2-.1-.1-.1h-.5v-.1H65l-.1-.1h-.1l-.1-.1h-.2l-.1-.2h-.2l-.2-.2h-.2l-.1-.1V58h-.1l-.2-.2-.1-.1v-.1h-.1v-.2L63 57V57l-.1-.3h-.1v-.2l-.2-.2v-.2h-.1v-1.5l-.1-.1V54l.1-.1v-.4l-.1-.1v-.3l.2-.2v-.1h.1v-.3l-.2-.2v-.1l-.1-.1v-.9l.1-.2.1-.2v-.6l-.1-.1-.2-.3v-2.2l-.1-.1v-.3l-.1-.2v-.5H62v-.1l-.1-.2-.1-.2v-.3l-.1-.1v-.1l-.1-.1v-.1l-.1-.1-.2-.2-.1-.2-.2-.2-.2-.3-.1-.1v-.1l-.1-.2-.1-.2v-.4h.1V43l-.2-.2-.1-.3-.2-.3-.2-.3-.2-.3-.1-.1V41l.1-.3v-1l-.2-.2v-.1l-.1-.2h-.1v-.3l-.1-.1v-1.2l.1-.2.2-.2.2-.1.2-.2h.1v-.1h.2v-.1h.1l.3-.1.1-.1h.1l.2-.1.1-.1v-.5l-.1-.1-.1-.1v-.2l-.1-.1V35h-.1V35l-.1-.1v-.1l-.1-.1v-.4h.1v-.1l.2-.1.1-.1v-1.4h-.1l-.2-.2h-.2v-.2h-.1V32h-.1l-.2-.5-.1-.2-.1-.2v-.1H58l-.3.1-.2.1h-.3l-.2-.1H57l-.2-.1h-.5v-.2h.1v-.6l-.1-.1-.1-.1H56l-.3-.2h-.3v-.1h-.1v-.1l-.2-.1v-.1H55v-.2H55v-.4l.1-.1.2-.2.1-.2v-.1h.1v-.6h-.1v-.2h-.1l-.1-.1-.2-.1-.2-.2h-.1V27l-.1-.1v-.2l-.1-.1v-.1l-.1-.3V26l-.2-.2v-.2l-.1-.1v-.2l-.3-.3v-.1l-.1-.1h.4l.2-.1v-.1h.2l.2.1.1.1h.5v-.1l.3-.1.2-.2h.2v-.1h.2l.1-.1h.2l.2-.1h.1l.2-.2.2-.1.1-.1h.2l.1-.1h.6v.1l.2.1.1.1h.1l.1.2h.2l.2.3.2.2h.1l.1.1h.4v.1h.2v.1h.2l.1.2h.1l.1.1.2.2h.2l.1.1h.2l.2.1h.3v.1H64v.1h.3l.3-.2.1-.1h.1l.1-.1h.6l.1.1h.1v.2h.1l.2.3.1.2.2.3.2.3.2.2.1.3.1.2v.1l.2.4v.2h.1v.1l.2.2v.6l-.1.1v.2H67l-.1.2v.1l-.1.1h.2l.1.1h.1v.1l.4.3h.1v.1h.2v.1h.2l.2.1.2.1h.1l.3.2.1.1.2.1.1.1.2.1h.1v.1h.2v.1h.3v-.1l.1-.3V31l.2-.3v-.1l.1-.2V30h.1V30l.1-.2.1-.2.2-.2.1-.1h.2v-.1h.4l.5-.1h.2l.2-.1h.2v-.1h.1l.1-.1.2-.1.2-.1.1-.1v-.1h.1v-.1l.1-.3.1-.2.1-.2v-.1l.1-.1v-.5l.1-.1.1-.1.1-.1h.2l.1-.1h1.4l.1-.1h.1v-.1h.2l.2-.1.1-.1v-.8h.4V25l.1-.1.1-.1h1.3v-.1l.1-.1v-.2l.1-.1v-.1h.1V24h-.1v-.1l-.1-.1V23h.2v.3l.1.2h.1v.1h.1v.4h.8l.2.2h.6l.1.1v.1h.1v.1l.1.1h.2l.7.2h1.4l.2-.1h.1l.3-.1h.3l.1-.2h.2l.4-.2h.2v-.1h.3l.1-.1h.9v.4h-.1v.7l.1.2.1.2.3.4v.2h.1v1.2l-.1.1v.2l-.1.1-.2.4v.3h1.6v.1l.3.3.2.1.1.1h2.3l.1-.1h.1l.3-.2H93v.1h.1v.1l.1.1.2.2.1.2.1.1v.1h.2v.1l.1.1.2.1.1.1h.2l.1.1h1.1v-.8l.1-.3v-.7l.1-.1V28l.1-.1v-.1l.1-.1h.1v-.2h.2v-.1l.4-.4h.1l.1-.1.1-.1v-.1h.2v-.3h.1v-.2l.1-.3v-.1h.1v-.1h.1v-.1h.3v-.1h.1v-.1l.2-.1.1-.2h.1V25l.1-.1v-.8l.1-.1.2-.3v-.1l.1-.1v-.1l.1-.2v-.1h.3l.1-.1h.4l.1-.1h.1v-.1h.1v-.1h.8l.2-.2.2-.2.2-.2.2-.2.2-.1v-.1h.2v.5l-.1.1v.3l.1.2v.1h.1v.4l.1.1.1.1h.5l.3-.1h.1l.2-.1h.5l.2-.1h.2v-.1h.2V23l.3-.2.2-.1h.2v-.1h.2l.1-.1.2-.2h.1l.1-.2h.3v.4l-.1.2-.1.2v.4l.1.2v.2l.4.6v.2h.1v.1l.1.1.1.1.2.2v.1h.1l.1.2.1.1v.1l.2.2v.4h.1v.2h.1v.2h1.4l.2-.1h.4l.3-.1h.4l.5-.1h.5v.2h.1v.2l.1.1.1.1.1.1h.2v.1l.5.2h.2l.1.1h.8l.1-.1.2-.2h.1l.2-.1h.1l.2-.2h.1l.1-.1h.2l.2-.1h.1v-.2h.6l.1.1h.9l.2-.1h.7v.1h.1v.1h.1l.1.2.1.2.1.2.1.1.2.3.1.2.1.2.1.2v.2l-.1.1v.2h-.1v1.5l-.3.7v.3l-.1.2v.6h.4l.1.1h.4v.1l.2.3.1.2.4.6.1.1.1.2v.1l.1.1v.5l-.2.3h.8l.2-.1h.2l.2-.1h.3v.1h.1v.1l.1.2h.1v.1h.5l.2.1h1.8l.1.1h1.3l.2.1h.4l.3.1h.5v-.1h.1l.1-.1.3-.4.2-.1.1-.2.2-.2h.2V34h.1l.1-.1h.2v-.1h.4l.2.2.1.1h.1v.1h.2l.3.1h.9l.1-.1h.1l.4-.3.1-.1.4-.3h.1l.1-.1h.6l.1.1v.1l.2.3h.1v.1h.3v-.2h.1v-.2l.2-.2.1-.3.4-.7.3-.6v.1h.7l.2-.1h.1l.1-.1h.1v.2l.1.1v.1l.1.1.1.1.1.1h.3l.1.1h.1l.2.1h.2v-.2l.2-.3.2-.2.3-.4v-.1h.1v-.1h.2v.1l.1.1v.1h.8l.1-.1.3-.1h.2v-.1h.3l.1-.1h.2v-.1l.2-.2.1-.3v-.1h.1v-.2l.1-.3V30l.1-.1v-.1h.1v-.1h.5l.1.1h.1l.1.1h.3l.1-.1v-.2h.3v.1h.1v.1h.1l.1.1.2.2.1.1h.1l.1.1.3.2h.1v.1l.2.3v.1l.2.3v.2l.1.2.2.3v.2l.1.1v.1h.1v.1h2.5v.1h.2v.1h.1l.1.1.1.1.1.1.3.2.1.1h.1v.2h.2l.1.1h.1l.3.2h.1l.1.1.1.1.1.1.1.1.1.1.1.1.1.1.3.3v.2h.3v.1h.2l.2-.2.5-.5.2-.3h.1l.1-.2h.1l.2-.1h1.6l.1.1h.1l.1.1h.2v.1l.3.2h.6l.1-.1.4-.2.2-.1.2-.1.2-.1.1-.1v-.1h.1v-.1l.1-.1v-.1l-.1-.2v-.1l-.1-.1v-.3l.2-.3v-.5h.1v-.5l.2-.2v-.1h.2v-.1h.6v.1l.1.2h.1v.1h.4l.2.1h.2v-.1l-.1-.3V30h-.2l-.2.1h-.2V30h-.1v-.3l.1-.1.2-.2h.1l.2-.3h.1V29h.5l.1.1.1.1v.1l.1.1v.1l.2.3.2.6.1.2v.1l.1.1.1.2.1.2h.1l.1.1h.1l.2.1h1.1v-.1h.2l.1-.2V30l.1-.1v-.3l.2-.1.1-.1h.3v-.1h.3l.4-.2h.3V29l.3-.1h.2l.1-.1h.8l.5-.1h.3l.9-.2h.1l.6-.4.2-.1.2-.2.2-.1.2-.2.3-.2.2-.2.6-.5.2-.2.2-.1v-.1h.2V26h.8l.1.1h.4l.3.1h.8l.1-.1h.1l.2-.1.2-.2v-.1h.1v-.1h.2l.1.1.1.2v.6l-.1.1-.2.4v.2h-.1v.4h.1v.1h.2l.2-.1h.2v.6h.1v.1h.1v.1h.2l.1.2h.1v.1h.1v.1l.1.1v.3l.4.2h.3v.1h.3v.1h.4l.1-.1h.1v-.1l.1-.1.1-.1v-.6l-.2-.2V28l.1-.1h.5v-.1h.2l.2-.1v-.1l.3-.1h.1l.3-.3.3-.1V27h.2l.1-.1h.2v-.1h.2l.1.1.2.2h.1l.1-.1.1-.1h.1v-.1h.6l.1-.1.1-.1.2-.2.1-.3.1-.1v-.4l.1-.1v-.1l.1-.1.2-.1v-.1l.2-.1h.1l.1-.2h.4v-.1h.1l.1-.1.2-.1h.1v.2l.1.3v.2l.1.3v1.7h.1l.1.2h.1l.1.1h.6l.5-.1h.2v-.1h1.6l.1-.1.1-.1h.1l.2-.1.1-.1.1-.1.1-.2.1-.2.1-.1.1-.1.2-.1V26l.1-.2.1-.1h.1v-.5h-.1l-.2-.1h-.1V25l-.1-.1-.1-.1v-.1l-.2-.3v-.1l-.1-.1-.1-.2-.1-.2v-.1l-.1-.1v-.1l-.2-.2v-.7l.1-.2.1-.1v-.1h.1v-.1l.1-.1v-.2l.2-.2v-.3l.1-.2v-.8l-.1-.2-.2-.7.3.1h.1l.1.1.3.1.3.2.1.1h.1l.1.1h.1l.4.1h1v-.1h1l.1.1.2.1v.1h.1l.1.4h.3v-.1h.5l.1-.1.2-.1v-.1l.5-.3h.2l.1.2v.1h.1v.1h.1v.1h.3v-.1h.1v-.1h.1v-.2h.1l.2-.2V20l.1-.2v-.6l.1-.1V19h1.1l.1-.2h.1l.3-.2.2-.1.2-.1h1v.1l.2.1v.1h.5l.1.1h.3v.1l.6.2.3.1.2.1.4.1h.2l.1.1.1.1h.1l.1.1.1.1v.1l.2.1.1.2h.1v.4h.1v.1l.3.3v.1l.2.1v.2l.1.1.1.3.1.2.1.2v.1h.1v.1h.1v.1h.2l.2.1h1.1l.1.1h.3l.1.1.1.1v.3h-.1l-.1.1-.2.1v.6l.1.1.1.1v.1h.7l.2-.2h.1l.1-.1h.8v.1h.3v.1h1.8l.3.2h.6v-.1l.2-.1V24h.1V24l.1-.2.1-.2h.1v-.1h.1l.1-.2h.2l.1.1v.1h.1l.1.1h.3v.1l.1.1v.5l-.1.2v.5l.2.3v.1l.1.1v.8h.1l.2.1h.2l.1.1.2.1.2.1.1.2h.1v.1l.2.2.1.1h.2V27l.1-.1v-.1l.1-.1h.1v-.1h.8l.1-.1h.1l.1-.1h.2l.2-.1h.2v-.1h.2v-.1h.1v-.3l.1-.1v-.1h.1l.3-.3.2-.2.1-.2.1-.1.1-.1v-.1h.1l.2-.2.1-.1V24l.1-.1v-.1h.8l.2-.2h.2v-.1h.4l.4.2h.3l.1.1h.1l.3.1h.3l.1.1.2.3.2.1.1.2.2.3.2.2.1.2v.1l.3.4v.2h.1l.2.1.2.1.3.2v.1h.2l.2.3h.1l.3.2v.1l.4.2h.1l.1.1.1.1.1.1v1.5l.1.2v.7l.1.2h.1l.3.3.2.3.1.1.1.1h.4l.1.1h.1v.1h.1v.2l.1.1v.2h.2v.2l.2.2h1l.1.1.2.1h.1l.2.1h.2l.2.1.1.1h.5l.1-.1.1-.2h.1V32h1.6l.2.1h.2v.1h.2v.1h.1l.2.2.2.2.1.1.1.1.1.1.2.2h.2l.1.2h.1l.3.2h.2l.1.1.1.1h.2l.2-.1.1-.2h.5l.2.2h.1l.2.1.2-.2.2-.1.3-.3.2-.1V33h.1l.1-.1v-.1h.1v-.2h.1V32h-.1l-.1-.2-.1-.2v-.1l-.1-.1h-.1v-.1l-.2-.1h-.1V31l-.1-.1v-.7h.1v-.1h.2l.1-.1h.5l.1.1.2.1h.2v.1l.2.1h.1l.1.1h.1l.1.1h.3l.3-.1.2-.1.3-.1h.1l.2-.1h1.5v.1h.2v.1l.2.1v.1h.2v-.1h.1v-.1l.1-.1.1-.1v-.5l.1-.1v-.1l.2-.2.1.6v.2l.1.1v.1l.1.1.1.1.1.1h.1l.1.1h.2l.2.1h1l.1-.1h.1v-.1h.1v-.1l.2-.2.3-.5.2-.3v-.1h.1l.2-.1v-.1h.2v-.1h.3l.1.1h.1l.1.1h.1v.1h.2l.3.1h.1l.2.1h.1v.1h.1l.1.1.1.1.1.1.1.1.1.2.1.1h.1v.1h.5v-.9l.1-.1v-.1l.1-.1v-.1h.2V29h.1l.2-.1.3-.2h.2l.3-.3.3-.2.2-.1.1-.1h.1V28h.1l.1-.2h.1l.2-.2.5-.6h.1l.1-.2h.1v-.1l.2-.1h.1l.1-.1h.5v-.1h1.1l.1.1h.1l.3.2.1.1h.3l.1-.1h.1l.2-.2h.1l.2-.2.2-.1.1.2v.1l.1.1v.2l.1.1v.7l.1.3v.1h.6l.1.1v.2l.1.1v.5l.1.1v.1h.1l.2.1.1.1.1.2h.1l.1.1h.1l.2.1h.2v.4h.2v.1h.3V30h.1l.1-.1.1-.1.1-.1h.3v.1l.1.1v.2h.1v.1l.2-.3v-.1h1.6l.1-.1v-.2h.1v-.3h.1v-.1l.2-.2.2-.2v-.1l.1-.2v-.8l.1-.1v-.1h.4l.2.1v.1h.1l.2.2.1.1.1.2v.1l.1.1v.7h.1v.2l.1.1.1.1h.1l.1-.1.1-.1h.1v-.1h.2l.3-.2h.1v-.1h.1l.2-.3h.1l.1-.1.1-.1.2-.1.2-.2.5-.3.2-.1.2-.2.2-.2.3-.2.2-.1.3-.2h.2v-.1l-.1-.3h-.1v-.2h-.1v-1.4h.1v-.2h.1l.1-.1h1.7l.1-.1h.2l.1-.1.1-.1.1-.1.1-.1v-.1h.1v-.2h1.2v-.1h.2v-.1h.1v-.1h.1l.1-.2V23l.2-.2v-.2h.1v-.1h.2v-.1h1.3l.1-.1.1-.1.4-.2h.1V22h.2l.1-.1h.6v-.6l.2-.2.1-.1h.1v-.1h.2l.1-.1h1l.3-.2h.1l.2-.2.2-.1.1-.1.1-.1.1-.2.2-.1v-.2h.2v-.2l.2-.1V19l.1-.1v-.2l.1-.1v-.2l.1-.2V18h.1v-.1l.1-.1.1-.1h.1l.2-.1h1.1v-.1h.2v-.1h.4l.1.1h.6l.2.2h.1v-.1h.1V17h-.1v-.4h.4v.1h.1l.1.1v.1h.1l.1.1v.1l.1.1v.8l-.2.3v.1l-.1.1v.7l.2.5v.1l.2.2.1.3.1.1v.3h.1v.6l-.1.2-.1.3-.1.2v.2h-.1l-.1.2-.2.2v.1l-.4.5-.1.2v.1l-.2.1v.2l-.1.1v.3h-.1v.4h.1l.2.2.2.2.2.2h.3l.2.1h.3l.2.1h.5l.1.1h.2l.2.2h.3l.2.1h.2v.1h.1l.1.1h.1v-.1h.1v-.1l.1-.3.1-.2v-.1h.1V25h.2V25h.3l.1-.1h.9v.1h.1v.4h.1v.3h.1v.1h.1l.1.1h.4l.1-.1h.2l.2-.2.3-.1.2-.1.2-.1h.7l.2.2h.2l.2.2h.1l.2.1.1.1.1.1.2.1v.2h.2l.2.4.2.2.2.2h.1l.1.1.1.1v.6l.1.1.1.2.1.2.2.1.3.5.1.1v.1h.1v.2l.2.3.1.3.1.1.1.1h.2v.1h1.4l.2-.1.3-.1h.4l.1-.1h.6v-.1h1.3l.1.1.3.2.3.1.2.1.1.1h.1l.3.3h.1v-.1l.2-.4v-.1l.2-.2.1-.2.2-.2v-.1l.3-.3V29h.1l.2-.3.1-.1.2-.2.1-.2.2-.2.2-.3v-.1h.1v-.2h.1v-.9h-.1l-.1-.2-.1-.1-.2-.1-.1-.1-.1-.1h-.1l-.2-.1v-.1h-.1l-.1-.1v-.1l-.1-.1h-.1v-.2h-.1V25h-.1v-.6h.1l.3.1.1.1h.4l.2-.1.1-.1h.7l.1.1.1.2.1.1h.5l.1-.1h.1l.4-.4.2-.1.2-.1.3-.1.3-.1h.2v-.1h.2l.3-.2h.2l.1-.1h.3v-.1h.3l.2-.1h.7l.1.1h.1l.1.1h.1v.1l.1.1.1.1.1.2.1.1.1.1h.1l.2.1h.1l.1.1h1.9l.5-.2h1.1v.1l.3.2h.1v.2h.2v.1l.1.1h.2l.2.1h.1l.1.1.2.1v.2h.1l.1.2v1l-.2.4-.1.2v.1l-.1.2v.7l.1.2v.1l.1.2v.2h.1v.2h.3V29h.1v-.2l.1-.3v-.1l.1-.1v-.1l.1-.1h.4l.4.2.3.1h.2l.3.2h.3l.1.1h.2l.2.1h1.5l.2-.1h.5l.2-.1h.2v-.1h1.1l.1.1h.1l.1.1.2.2.1.1v.1h.1v.2l.1.2.1.3.1.2v.2l.1.2v.4l.1.1v.1h.1v.2h.1l.2.4h.1l.1.2v.1l.2.2v.1l.1.1.1.1.2.2v.1l.2.2.1.2v.1h.1v.5l.1.1v.2l.1.2v.1h.1v.1l.2.2.1.1.1.1.1.1v.1l.3.2h.1l.1.1.2.2.2.2v.1h.1v.1l.1.3.1.2v.2l.1.1v.2h.1v.2h.1l.1.2.1.1.1.1.1.1.1.1.1.1.2.1.3.3h.1v.1h.2v.3h.1v.6h-.1v.1h-.1v.1h-.2v.1h-.4l-.2.1h-.1v.4l.1.2.3.2.3.4v.1l.1.1h.1v.2h.1v.8h.1l.1.1h.3V42l.1-.1v-.1l.1-.1.1-.1v-.1h.1v-.2h.3v-.1h.8l.3.1h1.3v.1h.2l.1.1h.1l.3.2.2.1.2.2.3.1h.3l.8-.2h.7l.2-.1h.7l.1.1.1.1.1.1v.2l.1.1v.7l-.1.1v.1l-.1.1v.2h-.2v.2l-.2.2v.1l-.2.1v.1h-.1v.2h-.2l-.1.2-.3.2-.1.1-.1.2-.1.1v1.1l-.1.1v.1l-.2.2v.1l-.1.2-.1.2h-.1v.1h-.9l-.2-.1h-.3l-.1.1-.1.1v.2l-.2.3v.1l-.1.1-.1.2-.2.1v.1l-.2.2-.2.1-.3.3-.2.2v.1l-.2.3-.1.2-.1.2-.2.1v.1h-.2v.1l-.2.1h-.1l-.2.1h-.2l-.1.1-.3.3-.3.3-.2.2-.1.1-.1.1-.1.1v.6l.1.2v1.1h.1v.2l.1.1.1.1h.1l.3.1.2.1h.1v.1l.2.2.3.1.1.1.1.2h.1v.4l-.1.1-.1.1-.1.2h-.2v.2l-.1.1v.6l.1.1v.2h1l.1.1h.1l.1.1h.1v.1l.1.1.2.2v.1h.1v.3l.1.1.1.2.2.2.1.3.1.1v.2l.2.2.1.2.1.2v.3l.1.1v.2l.1.1.1.1.1.1h.3l.2-.1.1-.1h.2l.1-.1.3-.1.1-.1h.1l.2-.1.3-.2.2-.1h.1l.1-.1h.2l.1.1.1.1.1.1h.7l.3-.3.1-.1h1.1l.2.1.1.2.1.1v.1h1.3l.3-.1h.2v-.1h.6l.2.1.3.2v.1l.2.1v.1h.2v.1l.3.1.4.2h.3v.1l.3.2h.1l.1.1h.9v.1h.2v.3l-.3.2v.2h-.2v.3l-.1.2v.3h-.1v.2l-.1.2v.5l.2.1v.3h.1v1.1l.1.1.1.1.1.1.1.1.2.1h.1v.1h.1l.2.1h.1l.2.1h.2l.2.1h1l.1.1v.1l.1.1v.1h.1v.2l.1.2v.3l.1.2v.4l.1.2v1.3h-.1v.2l-.2.3v.2l-.1.2v.2l-.2.3v.1l-.1.1v1.4l.1.2v.5l-.1.2-.1.2v.1l-.1.2-.1.2-.3.3v.1l-.1.1v.1l-.1.1v.1l-.1.3v.1l-.1.1v.1l-.1.1-.1.1-.2.2-.2.1v.2h-.2v.2l-.1.1-.1.1v.6h.1l.3.3.2.2.1.1h.1v.1l.3.2h.1l.1.1.1.1.1.1.1.1.1.2.2.4.1.1v.1l.2.2v.4l.1.1h.1v.1h.1l.2.1h.1v.1l.2.1.1.1.1.1h.1l.2.1h.1l.1.1.2.2h.1l.2.1.1.1.2.2.2.1v.1l.1.1.1.2h.1v.2h.1v.2l.1.2v.2h.1v.1h.1v.1l.2.2h.1v.1l.1.1v1.4l-.1.1v.1h-.1v.1h-.2l-.1.1h-.2l-.1.1h-.3l-.2.1h-.8v.1h-.1l-.1.2-.2.1v.1h-.1v.1l-.2.3v.1h-.1v.1h-.2v.1h-1v.1h-.1v.7l.2.2h-.2l-.3-.3-.2-.2h-.1v-.1h-.2v-.2l-.2-.2h-.2v-.1h-.2v-.1h-.1V86h-.1v-.2h-.6l-.1-.2-.1-.2v-.2h-.1v-.1h-.3V85h-.3l-.1.1-.2.2h-.1l-.1.1h-1v.1h-.1v.1h-.1v.9l.1.1v.2h-.1l-.2.1h-.3l-.1.1h-.1l-.1.1v.1h-.1v.8l-.1.3v.1h-.1v.2l-.2.1v.2h-.1v.1l-.2.2-.1.1v.6l-.1.2v.6l.1.1.1.1v.1h.1v.2l.1.1v.5l-.1.1-.3.3-.1.2-.1.1-.2.3-.1.1v.1h-.1l-.1.1h-.1l-.3.1h-.3l-.2.1h-.2v.1h-.4l-.2-.1h-.3l-.3.2-.1.1h-.1l-.1.1h-.1l-.1.1h-.2v.1h-.7v.1h-.2l-.1.1-.3.1-.2.1-.1.1h-.2v.1h-.1v.1l-.2.1-.1.1h-.1v.1h-.4l-.3.3h-.2v.1l-.1.1-.1.1v.1h-.1v.3l-.1.2v.2l-.1.1v.2l-.2.2v.2l-.1.1-.1.1v.1h-.1v.1h-.1l-.1.1h-.1v.1h-.8l-.2.1h-.3l-.1.2h-.2v.1h-.1v.1h-.1v.1l-.1.1v.2l.1.1v.5l-.1.2h-.1l-.2.2h-.1l-.1.1v.5l.1.1.3.1.1.1.1.1h.1l.1.2.2.1v.1l.1.2.1.1v.1l.2.2v.2h.1v.2h.1l.1.2v2.1l.1.2.1.2v.1h.1v.7l.1.1v.3h-.2l-.1.1h-1.6l-.2.1h-.1v.1h-.1l-.1.1v.1l-.2.4-.1.1-.1.1h-.3v-.1h-.1l-.2-.2v-.1h-.2v-.1h-.3v.1l-.1.1v.6l-.1.1-.2.1v.7l.2.2h.1v.8h-.1v.1h-.1l-.1.1h-.2v.1h-.3v.5l.2.2h.1v.1h.6l.1-.1h.4v.2h.1v.3l.1.1v.7l-.1.2v.2h-.1v.1h-.1l-.1.1v.1h-.2v.1l-.3.1-.1.1h-.1v.1h-.1v.1h-.1v.2l-.1.2h-.6v-.1l-.3-.2-.1-.1h-.1l-.1-.1-.2-.1h-.1v-.1h-.2l-.3-.1h-.1l-.1-.1v-.8l.1-.1v-.1l.2-.2v-.1l.1-.1.1-.1.2-.2v-.4l-.1-.1-.1-.1-.2-.2v-1.3l-.2-.1-.1-.1-.2-.2h-.2l-.2-.2h-.1l-.1-.1h-.1l-.1-.1h-.2v-.1h-.9l-.4-.1h-.6v.2h-.1v1.5h-.1v.2h-.1l-.1.1h-.3v.1h-.2l-.3.2-.1.1h-1l-.2-.1-.3-.2-.4-.1h-.2v-.1l-.2-.1-.2-.1h-.1l-.1-.1-.1-.1-.1-.1h-.1v-.1h-.1l-.1-.1v-.1l-.1-.1v-.2l-.1-.1v-.7l-.1-.1v-.3l-.1-.2-.2-.4v-.4l-.1-.1M39.4 22h-.2v.1l-.1.1v.1l-.1.1-.1.1-.1.1h-.1v.1l-.2.1-.1.1-.3.3-.3.1-.3.3h-.1l-.2.2h-.1l-.1.1-.2.2-.3.1-.3.2H36l-.2.1-.2.3h-.1v.2h-.1l-.1.1h-.1l-.1.1H35v.1h-.6v-.1h-.1l-.1-.1H34V25h-.9v.1H33l-.1.2-.2.1v.1h-.2v.2l-.3.1v.1h-.1v.1l-.1.1-.1.1v.6l.1.2v.1h.1v.2h.1v.2l.1.2v.2h-.1l-.1.1H32l-.3.2h-.2v.1h-.1v.1h-.1v.2h-.1v.2l-.1.1v1.8l-.1.2v.1l-.1.2-.2.2-.1.2-.1.1h-.1v.1h-.3v.1h-.7v.1h-.1v.4h-.1v.7l-.1.1v.1h-.8v-.1h-.1V33l-.1-.1H28l-.1-.3-.3-.4-.1-.2-.1-.2-.2-.1v-.1h-1.6l-.1-.1h-.1l-.1-.1-.1-.2h-.1L25 31h.1V31h.1v-.1l.1-.1v-.6l-.3-.3-.2-.4v-.1h-.1v-.1l-.3-.2-.1-.1v-.1l-.2-.1v-.2l-.5-.5v-.2l-.1-.1v-.1l-.1-.1V27h.1v-.1l.3-.2v-.1h.1V26l-.1-.2-.1-.2-.2-.1v-.3h-.1v-.3l.1-.1.2-.1.2-.2h.1l.2-.1.2-.2.2-.1h.1l.4-.2.6-.1v.6h.1v.1h.6l.1-.1v-.5l-.2-.3h.2l.1.1h.1v.2l.2.2h.1l.1.2v.1h.1v.1h.1v.1h.3v.1H29l.1-.1h.5l.2-.1h.2l.1-.1h.1l.1-.1h.1v-.1h.1v-.5h-.1v-.4l.4-.2.4-.2.3-.1.3-.1.6-.3.1-.1h.2l.1-.1h.3l.2-.1h.4l.1-.1h.1v-.1h.1v-.1l.1-.1V21l-.1-.1v-.1l-.4-.4-.2-.4-.2-.2-.1-.2h-.1l-.1-.1-.1-.1h-.2v-.2H32V19h.1l.2-.1h.5l.1-.1h.1l.1-.1.1-.1h.1v-.1h.6v-.1h.2v-.1h.1l.1-.2.1-.1h.1V18h.2l.1-.1h.3l.3-.1h.3l.1-.1h.1l.5-.2h.1l.2-.2h.1l.1-.1h.1l.1-.1.4-.3h.3v.1h.2l.2.1.2.1.2.1.1.1v.1l.1.1v.6l-.1.2-.1.1v.9l.1.2v.3l.1.2v.4l.1.1.1.1h.1l.2.1.2.1h.1l.1.1.2.1.1.1v.3l-.4.3-.1.1-.1.1v.1" clip-path="url(#p8119bbb020)"/></g></g></g><defs><clipPath id="p8119bbb020"><path d="M7.2 7.2h357.1v206.9H7.2z"/></clipPath></defs></svg>