<svg xmlns="http://www.w3.org/2000/svg" xmlns:xlink="http://www.w3.org/1999/xlink" width="415.6" height="374" viewBox="0 0 311.7 280.5"><defs><style>*{stroke-linejoin:round;stroke-linecap:butt}</style></defs><g id="figure_1"><path id="patch_1" fill="none" d="M0 280.5h311.7V0H0z"/><g id="axes_1"><g id="PatchCollection_1"><defs><path id="m5a27eea40e" stroke="#f4f4e2" d="m183.6-244 2.7 1.6 1.4.7 1.4.7 1.4.5 1.4.5 1.5.3 1.5.1h1.6l1.6-.3 1.6-.2 1.6-.4 1.6-.4 5-1.3 15.8-4.6 8-2.3 12.9 12.4 27 26 12.6 29.2 1.8 4 1 2.7.6 1.4.4 1.4.5 1.3.7 2.6.6 2.7.3 1.4.5 2.6.2 1.4.1 1.3v2.6l-.3 1.2-.4 1-.7 1-1 1-1 .8-1.3.7-1.2.7-1.2.6-2 .8-.2.2.3 2.1 2.4 13.7.4 2.6.1 1.3.2 1.2v3.6l-.1 1-.4 1.1-.5 1-.7.8-.8.9-2.3 2.3-1.8 1.7-1.7 1.9-1.4 1.6-.7 1-.5.8-.5 1-.1.9v.8l.2.7.2.4.2.5.5 1 1.8 2.8.7 1.4.7 1.5.8 2 .7 1.7.2.6v.2h-.5l-.3.3-.3.3-.3.5-.3.7-.2.7-.2.8-.3 1.3-.3 2-.2 1.9v6.5l.2 2 .6 4v3.1l-.3.7-.3 1-.5 1.5-.8 1.7-1.2 2.7-2.1 4.3-1.3 3-.8 2-.7 2-.9 3-.8 2.9-.4 1.2-.6 1.5-.6 1.4-.6 1-.5 1-.6.8-.8 1-1.5 1.9-1.6 1.8-.8.8-1.4 1.5-.3.3v.2l-.5.3-1.6 1-2.4 1.1-4.6 2.1-.9.5-2 1.3-.9.5-.8.4-1.3.7-1.4.5-2.6.7-4.3 1.5-1.3.3-.9.2-.8.2h-.7l-1 .1h-2l-.7-.1-1-.1-1-.2-1.4-.3-1-.3-1-.4-.7-.3-2.4-1.1-1.2-.5-1.1-.4-2.2-.6-2.6-.8-1-.2-.9-.2h-.7l-1.4-.2h-1l-1 .1-1.2.2-1.5.3-1.7.4-.8.2-.1.1-.3.2-.9.4-1 .3-.9.3-1 .2-1.3.1-1.1.2H190l-1.2-.2-3.2-.4-1.5-.1-1.7-.1h-2.8l-1.1-.2-1.3-.2-1-.3-.8-.2-.4-.2-.3-.2-.5-.3-.5-.4-.5-.5-.3-.4-.4-.7-.4-.9-.2-.6-.3-.8-.2-1v-.7l-.2-1v-.7l.1-1 .2-1 .4-1 .3-1 .3-.6.5-.7.5-.7.4-.5 1.9-2 2.9-2.8.9-1 .7-1 .6-1 .3-1.1v-3.2l-.7-9.3-.4-6-.2-2.7-.3-2.1-.2-1.3-.4-2.3-.3-1.4-.3-1-.3-1.1-.5-1.3-.3-.6-.3-.5-.2-.2v-.1h-.1l-3.4-7.3-2-4.5-2-4.6-1-2.3-1.6-4-1.3-3.2-13-28.7h-.1l-.3.1-.7.4-.8.5-2.9 2.1-1.2.9-1 .6-.9.5-.5.2-.6.2-.7.1-1.6.3-.7.2-.9.3-.7.2-.5.3-1.6.8-.7.3-.3.1h-1l-.3-.3-.3-.4-.1-.6-.2-.7-.4-2.6-.3-1.7-.4-1.5-.4-1.1-.2-.6-.4-.8-.4-.7-1.2-1.6-.3-.6-.4-.8-.6-1.4-1.5-4.2-.5-1-.5-1.3-.5-1-.5-.8-.5-.7-.3-.5h-.1l-2.6 2.3-2.5 2.4-.8.6-1.8 1.3.5 1.7-5.1 3.1-1.3.7-.5.4-.7.5-1.7 1.8-.4.3-.4.3-.6.3-.6.3-2.3 1.1h-.2l-.7-.1-1.2-.4-3-1.1-6.9-2.7-3-1.1-7.4-2.6-3.2-1.2-1.6-.7-1.5-.6-1.5-.7-1.4-.8-1.3-.8-1.2-1-.4-.4-.6-.6-3.1-3.8-.8-.9-.6-.6-1.2-1.1-1.2-1-2.6-2-1.2-1-.9-.8-.7-.7-.7-.6-.6-.7-.7-.9-.6-.9-.7-1-.5-1-.5-.9-1.2-2.6-2-4.2-.6-1.4-.6-1.5-.5-1.8-1.6-7.3-.8-3-.4-1.4-.4-1.3-.5-1.3-.6-1.3-.6-1.2-.9-1.4-.9-1.4-1-1.2-1-1.2-1.2-1.1-1-1-1.2-.9-1.2-.7-1.2-.6-1.1-.3-1.2-.2-1.4-.2-3.9-.2-1.3-.2-1.1-.2-.8-.4-.6-.4-.3-.3-.2-.4v-.4l.4-.8.7-.8 1-1 1-.9 2.5-2 2.6-2 13.8-10.5 14.4-11 2.2-1.8 8-5.8.1-.1.2-.1.4-.2h.4l.6-.1h1.4l.7.2 1.4.3 4 1.1 1.4.3.6.2h.7l1 .2H85l.5.1 1.1.5.4.1h1.5l1.2-.2 3.5-.8 4.3-.8 1.2-.3 1.7-.7 1.2-.5 1.2-.5 1.7-1 7.7-4.4 10.8-6.2 2.6-1.5 2.5-1.6v.8l.3.7.6.6.8.6 1.2.5 1.3.4 1.4.3 1.4.2 1.7.2h1.7l3.4.2 8.5.2h3.3l1.6.2 1.6.2 1.5.2 1.6.2 1.5.4 1.5.4 1.2.4 1.2.5 1.2.5 2.4 1.2 2.4 1.2 2.5 1.4 1.4.8 8.2 5"/></defs><g clip-path="url(#p6b72ecdcdc)"><use xlink:href="#m5a27eea40e" y="280.5" fill="#f4f4e2" stroke="#f4f4e2"/></g></g></g></g><defs><clipPath id="p6b72ecdcdc"><path d="M7.2 7.2h297.3v266.1H7.2z"/></clipPath></defs></svg>