<svg xmlns="http://www.w3.org/2000/svg" xmlns:xlink="http://www.w3.org/1999/xlink" width="406.8" height="374" viewBox="0 0 305.1 280.5"><defs><style>*{stroke-linejoin:round;stroke-linecap:butt}</style></defs><g id="figure_1"><path id="patch_1" fill="none" d="M0 280.5h305V0H0z"/><g id="axes_1"><g id="PatchCollection_1"><defs><path id="m16e751d006" stroke="#f4f4e2" d="m159.6-260.4.2.5.6 2 .5 1.3.4 1 .3.8.3.6.3.4.3.5.3.3.4.4.7.4.9.3.9.2.9.2h1l1 .2h2.1l6.7.1 2.2.1h1.1l1 .2h1.1l1 .3.8.2.7.4.6.5.2.4.1.4v.3l.1.4.3 2.5v.3h.1l.1-.1.2-.2.2-.1.2-.1h.5l.4.2h.1l.1-.1v-.7l.1-.1.4-.2.2-.2.4-.6v-.4h.3l.4.4.5.5.5.6.5.7.5.8.5 1 .4 1 1.1 3 .4 1 .4 1 .5 1 .6 1 .6.8.7.9.7.8 1.5 1.6 2.6 2.7.8.9.4.5.5.7.3.6.2.5.3.5.2.5.5 1.6.4.7.2.5.3.4.4.3.3.3.4.1h.7l.5-.2 1.3-.6.3-.2.6-.1h.5l.5.1.5.2 1 .4.7.4.5.3 1 .7.6.3.2.1.3.2.7.2.5.1.7.2h1l.5-.2.4-.2.3-.3.2-.2.2-.5.2-.5.3-1.8.2-1.3.4-1.3.3-.9.5-1.6.3-.7.3-.8.4-.8.8-1.3.3-.6.4-.4.5-.4.4-.4.4-.2.7-.3.7-.4 3-1.2 1.2-.4.7-.2.7-.2 1-.2.7-.2 1.3-.4 1-.3.7-.3.6-.3.4-.3.7-.6.5-.5.5-.5.7-.9 2.3-2.9.2-.2h.2l.3.1h.4l.5.1h.9l.6-.2.5-.1 3.7-1 1.2-.3.6-.1h.4l.7-.1h.9l.6.1.6.2.5.1 2.4.7 1 .3.4.2.3.2.3.2.6.4.6.5.4.3 1 1.2.3.4.4.3.4.3.5.2.9.4 3 1.3 1.2.4.6.2.4.2.3.2.5.4.4.3.6.5.4.4.2.2-.6 2.3-.2.6v.7l-.1.6v.8l.2.3v.2l.2.2.4.4.5.3.7.4.8.3 1.6.6.7.2.4.2.3.2.5.4.4.4.5.4.4.5.3.4.7 1.2.4.7.5.7.4.9.3.9.4 1 .3.9.2 1 .1 1.1v1l.1 1.2v4.6l-.1 1.8-.1 1-.2.8-.2.9-.2.5-.1.4-.5.9-1.1 1.9-.8 1.4-1.6 2.7-.6 1.2-.6 1-.8 1.7v.3l-.1.1-.1.2v2.1l-.1.5-.3.4h-.9l-.5-.2h-1.3l-1 .3-.6.1-.6.2-.7.4-.6.5-.4.3-.1.2-.3.2v.2l-.2.5-.3 1.1-.1.6-.3.5-.4.4-.5.3-.5.3-1.3.5-.8.4-.8.6-1.5 1-.4.2-.5.2-.5.1h-.3l-.4.2h-3l-.7.1-.4.1-.4.2-.6.2-.6.2-.6.4-.6.3-.8.5-.7.5-1.1.8-1.8 1.3-.9.7-.3.2-1.3 1.2-.6.5-.3.2-.3.2-.3.2-.3.1-.4.1h-.2l-1 .2h-.2l-.2.2-.2.1-.2.2-.1.2-.2.3-.2.3-.4.8-1.3 2.6-.4.7-.4.6-.6 1-.6.9-.4.5-.3.3-.4.4-.6.5-.4.4-.5.3-.5.3-.9.6-1 .5-1 .4-.6.3-.5.1-.7.2-.6.2-.9.2h-.7l-1.4.3-1 .1-.6.1-.6.2-.9.2-1 .4-1.4.6-.9.4-1.1.6-1.7 1-3.3 1.8-2.8 1.6-4.7 2.8-2.8 1.6-.8.5-.8.6-3.9 2.7-.9.6-.8.5-1.1.6-1.7.9-1.7.8-1.6.7-1.3.5-.7.3-.7.2-1.3.3-1.6.3-3.8.6-.8.1-.8.2-.5.2-.6.1-.7.3-.3.2h-.2v.2l.2 1 .2.9.4 1 .4 1 .5 1 .5 1 .4.6.4.5.7.9.6.7.7.8 2.9 3 .7.8 1 1.2.5.6.5.8.5.8.5.9.5.8.5 1 1 1.8 1 2 .9 2.2 2.5 5.6 3 7 .7 1.5 1.7 3.6.3.8.3.8.2.6.2.7.2.9.1.7v3.3l-.1 1-.2 1-.1.8-.1.6-.3 1-.3 1.2-.3 1.3-.2.5-.2.5-.3.5-.3.4-.5.5-.7.5-.3.2-.6.3-.6.3-.7.3-1 .2-.6.2-1 .2-1 .1-1.2.2h-4.7l-.8-.1h-.2l-.8-.2h-2.1l-.6.2-2 .7-1.5.5-2.2.7-1 .3h-.2l-.9.2-1.8.2-.9.1-.8.3-.7.2-.6.5-.7.4-1.5 1.3-.4.3-.5.3-.7.4-1.1.5-.8.4-.8.4-1.3.8-3 2-.8.4-1 .6-.4.2-.3.1h-.2l-1.5.4-.6.2-1.8.6-.9.2-.6.2h-.6l-.3.1-1 .1h-5l-.5.1h-.2l.2.2.1.2.1.4v.2l.1.3v.7l-.1.4-.2.3-.1.3-.2.3-.3.3-.2.3-.3.3-.3.3-1.2.9-.3.3-.3.2-.1.3v.1l-.2.7v.7l.2.7.4 1.2v.7l.1.6v1.7l.1 1.5v1.8l-.2.4-.4.9-.2.4-.1.6v2.1l-.2.3-.2.3-.2.3-.4.3-.4.4-2.8 1.6-1.1.7-1 .6-.5.4-.2.3-.3.3-.4.5-.3.6-1.5 2.9-.3.7-.2.4-.7 2.3-.4 1.3-.3.8-.3.8-.2.3-.3.5-.6.8-.6.7-.5.5-.2.2-.5.4-.3.2-.4.2-.4.2-.6.2-.5.1-.3.1h-.6l-.5.1h-1.9l-1-.2-1.6-.4h-.6l-.5-.3-1-.5-.7-.4-.6-.4-.4-.3-.5-.4-.3-.3-.3-.3-.3-.4-.2-.3-.2-.4-.4-.8-.5-1.5-.3-.7-.3-.5-.2-.5-.3-.3-.2-.3-.5-.5-.6-.5-.4-.3L107-31l-.5-.4-.3-.3-.4-.4-.9-1-.4-.4-1-1-1.1-1-1.1-1.1-.6-.5-.4-.4-.5-.3-1-.7-.5-.3-.7-.5-.6-.5-.6-.7-.6-.7-.6-.7-.5-.7-.5-1-.4-.6-.2-.7-.1-.2v-.2l-.2-.1-.2-.2-.5-.2-.9-.4-1-.4-.6-.1-.6-.2h-3.1l-3.4.5-4.2.6H76l-.4.1-.3.1-.1.1-.1.2-.2.4-.2.3v.8l-.1.4v1.2l.2.7.3 1 .2.6v1.5l-.1 1.4-.2 2-.1.8-.2.5-.2.7-.2.3-.1.3-.3.3-.1.2-.3.3-.2.2-.3.2-.2.2-.3.1-.5.2-.4.1-.4.1H70l-.7-.1-.5-.2-.7-.2-1-.5-.8-.3-.7-.4-1.4-.8-.8-.5-.7-.3-.5-.2H62l-.5-.1h-.3l-1-.1h-5l-.2-.2h-.2l-.4-.3-.9-.6-.3-.2-.4-.2-1-.4-.4-.2-.2-.1-.3-.3-.4-.3-.7-.7-.6-.6-.6-.5-.9-.6-2.1-1.4-2.3-1.5-.5-.5-.4-.3-.4-.6-.8-1-.7-.8-.5-.7-.5-.4-.3-.3-.3-.1-.3-.1H38v-1.7l-.2-2.3v-1.4l.1-1 .2-1.3.3-1.2 1.5-6.8.6-2.5 1-5.1.3-1.4.2-1.2.1-1 .3-3.6H42l-.3-.1-.3-.2-.1-.1-.4-.4-.3-.4-.3-.4-.5-.8-.4-.8-.3-.5-.4-.8-.5-1.1-.3-1-.2-.7-.8-2.9-.3-.8-.2-.6-.4-.8-1.2-2.6-.3-.8-.4-1.1-.6-1.4-1-3.5-.6-1.5-.2-.6-.5-1.2-.3-.6-.4-.8-.4-.6-.7-1.2-.9-1.3-1-1.7-.3-.4-.3-.4-.3-.3-.3-.2-.3-.2-.3-.1h-.3l-.8-.2-.9-.1h-.3l-.5-.2-.4-.1-.2-.2-.2-.2-.1-.2v-2.4l-.1-.9-.2-.9-.7-3-.2-1-.1-1-.2-1.7v-.9l-.2-1v-1.9l.1-.7v-.4l.1-.3.2-.9.4-.8.4-.7.6-.6.4-.4.6-.3.7-.3.8-.2.7-.2.8-.1 1.5-.3 4-.5 1.6-.3.6-.1.7-.2.6-.2.8-.4.8-.6.6-.5.6-.6.4-.4.3-.5.3-.6.6-1.2.8-1.4.2-.6 1-2.5.2-.7.2-.6.5-1 1-1.5.5-1 .3-.7.2-.7.6-1.7.3-.7.3-.7.3-.7.5-.7.5-.7.5-.7 1.8-2.3.3-.3.2-.3v-.2l.2-.3.1-.6v-1.7l-.1-1-.2-.7-.4-.8-1-2.2-.3-.6-.3-.9-.3-.8-.2-.8-.3-1.2-.1-.7-.1-1v-2.8l.2-.8.3-.7.3-.9 1.3-2.9.5-1.4.4-1 .3-1 .6-2.4.3-.8.2-.6.3-.6.1-.3.2-.2.3-.2.4-.2h.8l.4.2h.3l.7.4.5.3h1.4l.3-.3.2-.3.2-.3.2-.5.1-.4.9-3.6.2-1.5v-.3l.4-.3h.2l.1.1.4.4.8 1.4.2.3.3.2.2.2.2.1h.2l.3.1H63l.3-.2.3-.3.3-.2.3-.3 1.2-1.5 1.7-2.1.5-.7.5-.5.5-.6 1-1 1-.8 1-.8 1.7-1.4.3-.3.2-.2.5-.7.3-.6.8-1.4.7-1.3.3-.6.8-1.6.2-.5.7-1.2.5-.8.5-1.2.4-.7.3-.8.6-1.7.5-1 .4-1 1-1.8.3-.6.3-.5.4-1.2.2-.5.1-.5v-.4l.1-.4.1-1.1v-.6l.2-.6.1-.7.2-.6.1-.4.2-.5.3-.6.1-.3.1-.3v-.1l.2-.3.2-.6.2-.9.2-1.1.4-1.3.3-.9.4-.8.3-.6.5-.9.6-1 .6-.6.3-.3.4-.4.6-.5.7-.4.6-.4.4-.2.8-.3.6-.2 2-.6.7-.2.7-.3.8-.3 1.4-.6 3.7-1.6 1.4-.6 1.3-.6 1.3-.4.8-.3 1-.2 1-.2.9-.2h1.5l.9.1 1 .3 2 .6.4.1.9.2.8.1.8.1h2.6l.5.1.8.2.8.3 3.2 1.1.4.1.5.2h1.1l.4-.1.4-.2.4-.4.3-.4.2-.3.3-.5.3-.5.2-.7.3-.8.2-.8.2-.9.4-1.8.4-2.4v-.1l.9-.4 6.2-3 3.3-1.4 1-.4 1-.4 1-.4 1-.3 1-.2 1-.2h.8l.9.1 1.6.4.9.1h.8l.8-.2 1.7-.5 1-.2.6-.1h.7l.2.2.3.2.2.4"/></defs><g clip-path="url(#p0fe39bb998)"><use xlink:href="#m16e751d006" y="280.5" fill="#f4f4e2" stroke="#f4f4e2"/></g></g></g></g><defs><clipPath id="p0fe39bb998"><path d="M7.2 7.2h290.7v266.1H7.2z"/></clipPath></defs></svg>