<svg xmlns="http://www.w3.org/2000/svg" xmlns:xlink="http://www.w3.org/1999/xlink" width="495.4" height="333.9" viewBox="0 0 371.5 250.4"><defs><style>*{stroke-linejoin:round;stroke-linecap:butt}</style></defs><g id="figure_1"><path id="patch_1" fill="none" d="M0 250.4h371.5V0H0z"/><g id="axes_1"><g id="PatchCollection_1"><defs><path id="m20207e2f73" stroke="#f4f4e2" d="M140.3-229.3v1.9l-.2 2-.3 1.8-.3 2-.4 2.1-1.3 7.1-.3 2-.2.9v3.6l.2.4.2.5.1.2.2.4.3.5.4.4.2.2.2.2.3.2.7.3.8.2.9.2 2 .3 1.3.3 1.2.2.9.3 1.2.3 3.2 1 .9.3h.5l-.2 1-.7 3-1.2 5.2-.4 2.3-1.1 5-.7 3.5-.4 2.3-.2 1.2-.2 1.2v1.1l-.1 1.2v1.1l.1 1.1.2 1.1.2 1.1.3 1.1.6 2.3.6 2.2 1.4 4.5.7 2.1.4 1.1.4 1 .6 1.4.3.8.5 1.1 1.5 3 .7 1.2.5 1 .5.8.6.8.5.6.8.9.4.5 1.2 1 .7.5.8.6.6.4.4.3.5.2.2.2.7.2.8.2h.8l.6.1 1.9.1h.5l.6.2.3.1.4.3.3.2.7.6.6.4.6.3.8.4.8.3 1.1.4 3.5.9.7.3.8.3.7.4.4.3.2.2.4.5.4.7.3.8.3.9.2.9.1 1v.8l-.5 2.6v.8l-.1 1.1v2.5l.2 1.3v1.3l.4 2.7.4 2.7.5 3.2 1.7-2.3 1-1.3.2-.4.3-.4.4-.2.4-.3.8-.3 1.2-.5.4-.1.4-.2.3-.2.3-.3.1-.2.4-.7.2-.3v-.1l.2-.1.3-.2.4-.1h.4l.4-.1h2.4l3.8.3 4 .3 3-.8 2.4-.8 1-.4 1-.4.8-.3.7-.4.8-.6 1.5-1.2.5-.4 1-.6 1.9-1.2.9-.7.4-.4.5-.4.8-.8.7-.8.7-.9.7-1 1.4-1.8 3.4-4.9 1.4-1.9 1.7-2.1.4-.7.4-.6.4-.7.2-.5.2-.5.2-.6v-.7l.1-.8v-1.3l-.2-1-.3-2.2-.5-2.5v-.6l-.1-.7v-.3l.2-.5.2-.5.7-1.2.3-.6.2-.6.2-.6.3-.4h.1l.2-.1h.8l2.4.3h.8l1.1.1 1.2.2.8.1 1.8.4 1 .2h3.1l2.4-.5 1-.2.8-.3.8-.3.5-.3.4-.2 1.1-.7.5-.3.5-.2.7-.2 1-.2h1.4l.6-.1h.9l1.6.1h1.8l.8-.1.2-.1.4-.2h.2l.3-.3.4-.4.2-.6v-1.4l-.2-.6-.2-.5-.4-.8-.4-.7-.6-.8-.8-1.2-1.7-2.2-.4-.7-.4-.6-.5-.9-.2-.4-.2-.5-.1-.7v-.8l.1-.2v-.2l.3-.3.1-.2.3-.2.3-.2.3-.2.8-.5 1-.5 1-.4 1-.3.8-.2 1-.3 1.3-.3 4.2-.9 1.5-.2.8-.2h1.2l.6.1 1.4.5.6.1 1 .2 1.1.1h.8l2.4.2h.8l.7.1.8.2.7.3.5.6.3.7.1.2v1.1l-.3 1-.4.8-.6 1-.8.8-.7 1-1.5 1.6-2.8 3-.8.9-1 1.2-1 1.2-.3.4-.6 1-.4.7-.4.7-.8 1.8-.3.7-.3.7-.3 1-.2.9-.1.9v1.4l.3.5.2.1h.8l.4-.2.5-.4 1.6-1 .7-.5.6-.3.7-.4 1.2-.5 1.5-.6 1.5-.6.5-.1.8-.2 1-.2h.8l1-.1h4.3l1.1.2 1.5.2 1 .3 1.9.4 1.4.4 2 .4 1.2.2 1.1.1 1.6.1h3.6l.8-.2h.6l.6-.2.6-.2.7-.3.5-.2.6-.3.6-.5.3-.3.6-.7.3-.5.3-.6.2-.6.1-.5.2-.6.1-.6.2-1.2v-.7l.1-.8v-4.1l-.2-1.3-.2-1.5-.2-1-.2-1.2-.3-1-.4-1.1-.5-1.1-.6-1-.6-1.1-.7-1-2-3-.7-1-.7-1-.4-.7-.3-.6-.3-.8-.3-.7-.3-1-.2-1-.2-1v-1.7h1l.8.4.9.4.5.4.5.4.4.4.5.5.7.7.3.5 2 2.4.8 1 .6.8.5.4.5.6.3.2 1 .8 1.1.7 1 .6 3.4 1.8 1 .7 1 .7 1 .8.8.8.9.9.8.8 1.6 1.9 2.3 2.8 3.9 4.7 3 3.8 1.8 2.4 1 1.4.5.7.4.7.4.7.4.7.5 1 .4 1.2.2.7.1.7.2 1 .1 1 .1 1.4v1.1l.1 1.2v6.3l.1 7.4.2 7.4.2 4 .1 1.9.1 2.5.5 7.6v1.3l.3 1.4v1.1l-.2.6-.3.9-.4.7h-1.6l-.6.1-.5.3-.6.3-.6.5-.5.5-.4.6-.4.6-1.3 2-.4.5-.5.6-.4.6-1 1-1.6 1.6-4.6 4.4-1 1-1 .9-1.7 1.4-1.2 1-.6.4-.6.4-.6.3-.7.3-.6.2h-1.6l-.4-.1-.7-.2-.5-.2-.6-.3h-.1l-.4-.5-3-3-.8-1-.7-.6-.8-.5-.8-.6-.8-.5-1-.4-.7-.3-.6-.3-.6-.2-.9-.2-.8-.2-1.2-.2-1.6-.3h-3.4l-.6.2h-.5l-.4.2-.4.2-.4.2-.3.2-.4.3-.2.3-.2.3-.1.4-.2.4-.1.7-1 5.6-.4 2.3-.2 1.3-.3.9-.2 1-.2.5-.3.8-.2.7-.4.8-.6 1.2-.3.7-.4.6-.6.9-.7.8-.5.6-.5.5-.7.5-1.2.9-1 .7-1 .6-4 2.4-1.8 1-1.5.8-.8.4-1 .4-.7.2-.7.2-1.5.3-1.3.2-1.3.2-1.2.1h-2.3l-.7-.2-1.4-.3-1-.2H264l-3.4.3-1.2.1h-1.2l-2.2-.3-1.4-.2H252l-.9.1-.5.1-1.1.3-1.1.3-.7.3-1.6.6-1.3.5-.6.1-1 .3-.7.1h-.6l-.6.1h-1.5L238-58l-2.4-.3h-2.2l-.6.2-.2.1-.2.2h-.1v1.6l-.1 1-.1 1-.1.8-.1.7-.3 1.2-.2.6-.4.9-.3.8-.3.5-1.3 2.3-.3.5-.5.6-.5.7-.9.8-.7.6-2.5 2-2 1.7-1.4 1.2-2.1 1.5-1 .7-1 1-1.7 1.8-.4.4-.8.8-1 .8-2.4 2-.8.7-.8.8-.4.5-.5.7-.6 1-.3.2h-.7l-.7-.3-1.2-.5-1-.5-.9-.5-1.8-1-2-1.3-2.1-1.3-1.7-1.1-1.8-1.2-1-.7-1.2-1-.8-.6-2.2-2-.5-.3-.6-.5-.8-.3-.6-.3-.7-.2-.8-.1H182l-1.1.1-.6.1-.6.2-.6.1-1.8.6-5 2-1 .3-1.5.5-1 .3-1 .2-3.6.8-1 .2-3.3.6-1.9.3-2.2.3-1.7.2-1.1.1-1.1.1h-3l-.7-.2-.8-.2-.5-.2-.4-.3-.2-.1-.6-.6-.5-.8-.3-.6-.2-.7-.3-1-.2-.7-.3-1.6-.5-4-.8-4.7-.2-1v-1.1l-.1-2.5v-1l-.3-1.8v-.6l-.2-.2-1.1.4-1.7.6-1.5.4-1 .2-1 .2H132l-1 .2-1.2.2-.6.1-.7.2-.9.3-.4.1-.9.4-.7.4-1.1.6-1.7 1-2.3 1.5-2 1.2-.8.4-.6.4-.4.4-.4.4-.5.7-.5.7-.6 1-.4.7-1.5 3-.7 1.4-.5 1-.5.7-.4.6-.4.7-.5.6-.6.7-.7.6-.8.7-.6.5-1.1.7-.6.3-1.2.6-.7.4-3 1.3-1.1.6-1 .4-.9.5-1.2.8-.6.4-.7.6-.7.6-1.2 1-2.5 2.2-.6.6-.7.5-.9.7-.4.2-.4.3-.5.2-.5.1-.4.2H85l-.8-.2-.6-.2-1.3-.4-.8-.1H80l-.9.2-2 .5H73l-.6.1-1.4.3-.9.2-.4.1-2 .7-1 .3h-.9l-.3-.3-.2-.1H64l-.1-.1h-.1l-.2-.3-.1-.2v-.3l-.2-.6.2-.2V-22l-.1-.6-.2-.8-.2-.8-.2-.7-.5-1.1-.3-.7-.5-1-.5-.8-1.5-2.5-.6-1-.4-1-.3-.8v-1.1l.2-.4.1-.1.2-.3.2-.3.3-.3.4-.3.4-.4.4-.2.6-.4 1-.5 1-.5 1-.4 2-.8.6-.2.4-.2.4-.2.3-.2.7-.6.3-.4.4-.4.3-.4.2-.5.1-.3v-2l-.2-.6-.2-.6-.6-2-.2-.7-.1-.6v-1.1l.1-.6.2-.4.4-.9 1.2-1.8.5-.8.2-.6v-.3l.1-.3v-.5l-.1-.3-.2-.2-.2-.2-.3-.2-.2-.1-.3-.2h-1.3l-.6.1-.7.3-1.2.6h-.3l-.3.1H65l-.2-.1-.2-.2-.2-.2-.1-.2-.2-.4-.2-.4-.2-.8-.2-.9-.1-.8-.2-1.6-.2-1.8v-3.2l.2-.9v-.4l.2-.4.2-.3.2-.2.3-.3.6-.2 1.2-.4.7-.3.5-.2.3-.2.4-.2.2-.2.2-.2.1-.3.2-.2v-.3l.1-.4v-.8l-.2-.6L68-76l-.3-.8v-1.5l.2-.7.5-1 .2-.5v-.4l-.3-.6-.6-.5-.7-.5-.8-.5-1-.5-1-.5-3.4-1.6L49-90.8l-15.7-7h.8l1.7.2h2.6l1-.1 1.4-.2 1.1-.2 1.2-.2.7-.2 1-.3 1-.3.5-.3.7-.4.4-.2.7-.6.6-.6.4-.4.3-.6.2-.5.2-.5.4-1.6.4-1.3.2-1.1.2-.7.1-1 .2-1.1.1-1.2v-1l.1-1.4v-1.2l-.1-.8-.3-1-.2-.7-.2-.7-.4-1-.4-.9-1.8-4-.9-1.8-3.3-7.8L41-140l-1-2.4-1.2-2.3-1-2.1-.6-1-.5-1-.6-1-.6-.9-.6-.9-.5-.7-1.1-1.3-.9-1-3.2-3.3-.8-.9-.7-.9-.8-.9-.4-.6-.4-.7-.7-1.1-.5-1.2-.5-1.1-.4-1.2-.3-1-.3-1 .2-.2h.1l.4-.3.8-.3.7-.2.5-.1 1-.3.9-.1 4.2-.7 1.8-.3 1.6-.4.7-.2.7-.3 1.6-.6 1.7-.8 2-1 1.9-1 1.3-.6.9-.6 1-.6 4.4-3.1 1-.6.8-.6 3.2-1.9 5.3-3.1 3-1.9 3.8-2 2-1.1 1.2-.6 1-.5 1.6-.7 1.1-.4 1-.3.7-.1.8-.2 1-.2 1.6-.2.8-.1 1-.2.7-.2.8-.2.6-.2.7-.3 1-.4 1.2-.6 1-.7.6-.3.5-.4.5-.4.7-.6.4-.4.4-.4.4-.5.7-1 .7-1.1.4-.7.5-.8 1.4-3 .5-.8.2-.4.2-.4.2-.2.2-.2.2-.1.3-.2h.3l1-.2h.3l.3-.1.4-.2.4-.2.3-.2.4-.3.7-.5 1.4-1.4.3-.3 1.1-.8 2-1.4 1.2-1 .8-.5.9-.5.7-.4.7-.4.6-.3.7-.2.5-.2h.5l.8-.1h1l2.3-.2h.5l.3-.1.5-.1.6-.3.5-.3 1.7-1 1-.7.8-.5 1.5-.6.6-.3.5-.3.4-.4.4-.6.1-.7.3-1.3.2-.5.1-.2.2-.3.2-.2.5-.4.7-.4.7-.5.7-.3.6-.1 1.2-.3h1.5l.6.1.4.2h.4l.2-.1.3-.5.1-.6.1-.7v-.7l-.1-1v-.1h.1l.2.1h1.8l.6.1h.3l.3.2.5.2.3.4.3.6.2.7.1.9"/></defs><g clip-path="url(#p1c8bf029f8)"><use xlink:href="#m20207e2f73" y="250.4" fill="#f4f4e2" stroke="#f4f4e2"/></g></g></g></g><defs><clipPath id="p1c8bf029f8"><path d="M7.2 7.2h357.1v236H7.2z"/></clipPath></defs></svg>