<svg xmlns="http://www.w3.org/2000/svg" width="495.4" height="298.2" viewBox="0 0 371.5 223.6"><defs><style>*{stroke-linejoin:round;stroke-linecap:butt}</style></defs><g id="figure_1"><path id="patch_1" fill="none" d="M0 223.6h371.5V0H0z"/><g id="axes_1"><path id="PatchCollection_1" fill="#f4f4e2" stroke="#f4f4e2" d="m66.7 83.5-1.6.1-1.4-.1-1.3-.4-.7-.3-.5-.4-.9-1-.6-1.2-.5-1.3-.5-1.5-2.3-7.6-.8-2.2-.9-2-1.1-1.7L52 62l-1.8-1.5-2-1.5-1.8-1.1-3.8-2.1-8.8-4.7-1.7-.9-2-1.3-2-1.3-1.6-1.4-1.3-1.4-.8-1.1-.5-1.2-.3-1.3-.2-1.4v-1.3l.3-2.5.4-2.8.6-2.7.8-2.7 1 .6 1 .5 2.6 1.2 8 3.2L54.7 40l2.4.8 3.5 1 1.1.3 2.5 1 1.3.6 2.7 1.5 3.4 2.4L75 50l10.5 8.3 4.6 3.4 2.4 1.6 2.4 1.4 2.3 1.1.8.3.4.1-.6.1-1.1.6-3.3 1.8-2.2 1.4-2 1.4-4.3 3.1-2.2 1.5-7.8 4.5-1.4.7-1.3.6-2 .7-1.9.6-1.6.2m171.9-50.6h1.7l1.3-.2 3.3-1 1.1-.2 1-.2 1.8.1 1.8.4 1.7.7 1.8.8 1.7 1 1.6 1 1.4 1.3 1.3 1.3.8 1.2 2.7 4 1.1 1.8 1.6 3.3 1.2 1.5 1 1.2.9.8 1 .8 1.7 1.1 2 1 1.2.6 1.3.5 3 1 2.6.6 6.3 1.4 7.6 1.7 1 .3h.7l.9.3 2.9.9 1.6.6.8.4.6.4.6.5.4.6.2.4.2.8v2.6l-.5 1.9v.8l.6 2.4 1.3 5h.4l.6.4.5.6.7 1 1 1.6 4.1 7.4 1.9 3 1.8 2.8.8 1.4.7 1.5.6 2 .4 2.2.3 2.5.7 9 .6 6.3.1 2v2.9l-.2 1.3-1 6.5v2.2l.1 2.4.5 2.4.6 2.4.8 2.5 2 4.9 3.2 7.5 19.5 41.6-59.3 8.4v-.2l-.4-.7-1-1.3-1.7-2-2-1.8-2-1.6-3.1-2.3-1-.7-2-1-2-1-1.5-.7-1.6-.5-1.3-.3-2.4-.5-2.6-.2h-5l-4.3.3h-1.3l-1.8-.1-1.8-.4-1.4-.5-1.3-.5-2.9-1.5-3.4-2-8.2-5.6-2.6-1.5-2.2-1.1-2.5-1-2.6-.9-1.9-.3h-1.9l-1.8.1-2.4.6-2.4 1-2.5 1.1-2.7 1.5-8 4.6-2.7 1.4-2.6 1.3-1.6.6-2 .5-2 .3H186l-1.6-.1-3.3-.5-4.1-1-2.2-.6-2.5-1.1-.9-.5-1.7-1-2.4-1.7-3-2.5-2.5-2.1-2.4-2.2-5.1-4.8-1-.9-.6-.4h-.3l-10.2 7-1.4.8-.9.4-.4.1h-.9l-.4-.3-.9-.5-3-2.5-.8-.5-.5-.2h-.9l-.4.2-.8.5-.6.6-.4.3-5.7 4.8-3.3 2.6-1.6 1-1.6 1-1.5.7-1.4.4h-1.4l-1.2-.3-1.2-.5-1-.8-1.1-1-1-1-5.5-6.5-5.2-5.9-2.8-3.4-2-2.6-1.1-1.8-1.1-2-.4-1-.5-1.5-.3-1.7v-1.6l.2-1.7.8-5 .2-1.5-.2-1.6-.4-1.4-.7-1.4-2-3.7-.6-1.2-.5-1.7-.3-1.4-.2-2.6v-1.7l.1-1 .1-.2.2-.3h.2l.2-.4.4-1 .6-1.8.5-2.2.7-4.6.3-1.3.2-.5.3-.4.7-.5.9-.3 1-.2H94l2.3.3 3.4.7 1.9.4 2.9.8 10.3 3.2 2.6.6 1.2.2 1.3.1h1.1l1-.4 1-.6.8-.9.7-1 .7-1.2 1-2.3.9-2.6.8-2.8 2.3-9.3.1-.3 6.1-4.4 1-.6.4-.1h.4l.5.5.7 1 1.5 2.4L155.4 88l8-6.3 2.3-2 1.4-1.2.6-.7.5-.7.5-.7.3-.7.2-.8.2-.8v-2.4l.2-.8.1-.7.5-1 1.4-2.5.7-1.7.2-.7v-.5l-.1-.3 10-7.2 12.1-8.6 2.8-2.3 1.7-1.6.8-.8.7-1 .6-1 1.7-3 1.8-4 5.3-12 2.5-5 .5-.3h1l1 .2 1.4.5 1.6.9 1.6 1.3.8 1 2.2 3.2 1.4 1.4 1.5 1.4 1.8 1.2L229 29l2 1 1.9 1 1.9.8 2 .6 1.8.4" clip-path="url(#p8abbab95d4)"/></g></g><defs><clipPath id="p8abbab95d4"><path d="M7.2 7.2h357.1v209.2H7.2z"/></clipPath></defs></svg>