<svg xmlns="http://www.w3.org/2000/svg" xmlns:xlink="http://www.w3.org/1999/xlink" width="312.4" height="374" viewBox="0 0 234.3 280.5"><defs><style>*{stroke-linejoin:round;stroke-linecap:butt}</style></defs><g id="figure_1"><path id="patch_1" fill="none" d="M0 280.5h234.3V0H0z"/><g id="axes_1"><g id="PatchCollection_1"><defs><path id="mf39f8bae73" stroke="#f4f4e2" d="m144.9-260 2.3 1 1.2.8.7.5.5.5 1.4 1.8 1.1 2 1.3 2.6 2.9 4.9.8 1.9.3 1 .6 6.2.2.9.7 2.6 1.2 2.5 1.4 2.4 1.8 2 2 1.5.6.3 2.3.8 2.8.3 5.4.1 1.2.1 2.3.5 2 1 1.7 1.2 1.4 1.5 1.2 1.8 1 1.8.8 1.8.5 1.1 1 3.4 1 3.6.7 3.9.5 3.6.3 3.7.2 3.8.3 8.2.1 11.8.2 3.7.4 3.7.5 3.6.6 3.4.7 3.1.5 2.4.5 1.2.2.2.5.2.8.9.7 1.2 1 2.4.7 1.7 1.2 4 .6 2.5.4 2.2.4 3 .5 7 .3 1.8.6 1.8.5 1 1 1.6 1.3 1.5 1.7 1.7 5 4.5 1.4 1.4 1.1 1.5.8 1.7.4 1.8v1.8l-.2 2-.6 2.3-1.7 6-1 3.9-.4 1.3-1.4 3.5-1 2.1-2.3 4.3-4 7-4.7 7.7-6.7 10.8-5.4 8.2-2.3 3.4-1.4 1.8-1.4 1.4-2.3 1.8-.3.3-.9.3-1 1-1.5 1.6-3.8 4.4-2.2 2.5-2.1 1.8-1.1.9-1.9 1-1.8.7-1.8.3-3.4.2-3.3-.5-1.9-.5-3.7-1.1-2-.8-3.5-1.4-4.1-1.7-19.6-8.9-5.2-2.2-5.4-2-3.5-1-2.5-.6-1.9-.3-3-.3h-1.5l-3 .2-2.8.4-2 .4-7.9 2.2-3 .7-8.6 1.6-2.6.7-4.2 1.3-2.1.5-1.7.1-1.8.1h-2.3l-1.4-.1-1.8-.2-1.5-.4-3.7-1.2-1-.2-1.5.1-1 .4-1 .5-.8.9-.7 1-.6 1.2-1.3 3.4-.8 1.6-.8 1.2-1 1.1-2 1.3-1.1.6-1.3.4-2.2.6-2 .5-2.3.3-3.2.4h-2.7l-.4-.3-.5-2.7-.4-1.3-1-3.2-.2-1v-.7l.1-.8.3-.7.4-.7.4-.5.5-.5.7-.5.9-.4 1-.2 2.4-.2 1.2-.3 1.3-.5.5-.4.5-.4.5-.6.3-.6.3-1V-38l-.1-1.2-.6-2.3-.7-2.3-1.2-3-1.3-2.6-1-1.7-1-1.4-3.4-4.3-1-1.3-.6-1.2-.4-1.2v-1l.2-.8.6-1 .7-.9.9-.7 1.5-1 2-1L29-69l4.3-1.7 2.3-1.1.3-.3.3.3.6.1 1 .1 5 .2 4.3.2h2l1.9-.1 2-.4 1.3-.3 3.2-1 5.6-2.5 9.4-4.3 3-1.7 1-.7 1-.8.7-1 .6-1 .2-.7.2-1.2v-1.3l-.3-1.2-.7-2.5v-1l.2-.6.4-.6.4-.5L81-96l.5-.6.3-.5.6-2.2.6-1 1.2-1.8 2.2-3 .7-1.1.7-1.6 1.6-4.7.6-1 .7-.7h.5l-.7-2.4-.1-.7v-1.9l.2-.5.3-.9.4-.7 1-1.2 3.2-2.8 1-.7 1-.6 1.2-.5 1.2-.3 1.1-.2 3.7-.5 8.4-.6v-.1l-.1-.3-.6-.5-.9-.7-2.2-1.5-5.7-3.4-2.4-1.3-2-.9-1-.4-1.3-.3-2.4-.5-2.5-.2-6.5-.4-2-.2-1.5-.4-1-.3-2.1-.8-1.5-.7-1.4-.8-2.5-1.6-2.2-1.5-2.4-1.9-11.3-9.2L44.2-167H44l-.3-.4-.2-.6.1-.7.4-.7 1-1.2 2.7-2.8 1-1.1.7-1 1.3-2.3.6-.7 1-1 1-1 3-2.4 3-2 1.3-1.3 1.4-1.4.5-.7.7-1 .4-1 .4-1.4.1-.7v-1.8l-.3-2.5-1.3-5.6v-.9l-.1-1.6-.3-1.6-.7-3-.8-2.5-1-2.4-1.1-1.8-.6-.8-3.4-3.2-1.5-1.6-.6-.8-1-1.5-1-1.9-.7-2-.4-1.6v-2.8l.2-1.7.2-1 .3-.6.8-1.4.5-.7.5-.5 1-.8 1.6-1 2-.8 3-1 11.7-3.3h2.5l4.8-.4 2.4-.2 1.3-.3 3.8-.9 4.5-.8 1.5-.4 1.8-.8 1.6-.8 11-6.5 5.6-3.1.1.2 1.7.2 2.5-.1 3-.4 10.2-1.3 4.8-.4h4l2 .2 2 .3 2.7.7"/></defs><g clip-path="url(#p86eb2a9cda)"><use xlink:href="#mf39f8bae73" y="280.5" fill="#f4f4e2" stroke="#f4f4e2"/></g></g></g></g><defs><clipPath id="p86eb2a9cda"><path d="M7.2 7.2h219.9v266.1H7.2z"/></clipPath></defs></svg>