<svg xmlns="http://www.w3.org/2000/svg" xmlns:xlink="http://www.w3.org/1999/xlink" width="495.4" height="371.3" viewBox="0 0 371.5 278.5"><defs><style>*{stroke-linejoin:round;stroke-linecap:butt}</style></defs><g id="figure_1"><path id="patch_1" fill="none" d="M0 278.5h371.5V0H0z"/><g id="axes_1"><g id="PatchCollection_1"><defs><path id="m4652660e7c" stroke="#f4f4e2" d="m339.2-157.7-.7.6-1.7 1.8-2.1 2.5-2.3 3-3.6 4.9-2 3.1-2 3.3-2.2 3.8-2 3.9-2 3.8-1.6 4-2.8 6.9-2 5.9-3.9 12.3-.9 2.6-1 2.4-.7 1.2-1.5 2.2-3.2 4-2 2.8-3.3 5.3-7.8 12.7-7.2 11.1-4.2 6-2 2.7-2.2 2.6-3 3.2-2.7 2.7-2 1.7-2.3 1.9-2.6 1.7-2.4 1.4-1.8 1-7 3.1-2.3 1-4.2 1.7-3.4 1-2.6.8-3.7.8-3.4.6-3.6.4-4.5.1-4.8-.1-3.5-.3-2.7-.4-1.3-.2-2-.5-1.1-.5-1.7-1-.7-.7-.5-.7-.9-1.6-.2-2 .2-2 .7-2 1.1-2 2.3-4.2 1.3-2.4 1-2.6 1-2.3.6-2.4.4-2 .3-2.2v-2.5l-.3-1.9-.9-3.3-1-2.2-.7-1.3-.9-1-1-1-1.6-1.1-1.2-.7-1.9-.9-1-.4-1.2-.4-3.4-.8-3-.4-18.9-2.6-19-2.3-17.2-2.5-8-1-7-1-5.2-.6-2.6-.2h-5.8l-4 .4-15 2-11.2 1.9-4.6.6h-4.2l-1-.1L67-75l-1.3-.6-1.2-.8-1.3-1.3-.7-1-.6-1-.7-1.5-.6-1.7-.7-2-.9-3.9-.4-2.4-.8-5.2-1.3-12.1-1.8-13.6-1-8.5-1.3-14.5-.4-3-.8-3.5-.9-3.7-.3-1-.2-.4.2-.4.1-1.3v-4l-.5-4.2-.5-2.7-.5-2.4-.5-1.3-1.5-3.7-2.2-4-2-3-2.7-4-6.8-9-2-3-2.1-3.1-1.5-2.5-.9-1.5-1-2.1-.9-2-.8-2.5-.3-2.3v-1l.2-2.5.8-2.5 1.2-2.5 1.6-2.4 1.2-1.6 1.1-1.3 1.3-1.3 2.2-1.8 2.3-1.5 1.2-.7L39-236l1.2-.5 2.5-.8 1.4-.4 3.7-.8 5.2-.8 7.8-1 12.9-1.2 4.3-.5 2.6-.4 3.4-.6 2.8-.7 2.7-1 2.4-1.1 4.5-2.4 2.3-.8 1.8-.2h1.8l2.8.4 4.3.7 2 .2h2.1l2.9-.5 3.1-.7 2.7-.9 4.6-1.7 4.6-2 6.2-2.9 2.3-1 1.3-.5 2.4-.5 3-.5 3-.2 3.1.2 2.7.6.6.2 1.3.7 3.2 2.4 1.7 1.1 1.3.7 1.5.5 9.5 1.6 3.6 1 7.1 2 3.5.7 3.3.1 1.7-.2 1.6-.3 3.9-1.2 9.8-2.6 3.7-1 3.8-.8 3.9-.7 3.8-.3h14.5l2.3.3 2.2.4 1.8.7 1.7 1 1.8 1 7.4 5.6 8.4 5.9 3 1.8 5.1 3.3 6.2 3.7 23.2 13.4 24 13.2 6 3.4 2.8 1.7 3.4 2.1 2.1 1.4 2 1.5 1.4 1.3 1.4 1.4 1.3 1.7 1 1.8.4 1.1.3 1.1v2.3l-.4 3.6-1 3.6-1.2 3.4-1.4 3.4-4.7 11-.1.7"/></defs><g clip-path="url(#p3f0c063754)"><use xlink:href="#m4652660e7c" y="278.5" fill="#f4f4e2" stroke="#f4f4e2"/></g></g></g></g><defs><clipPath id="p3f0c063754"><path d="M7.2 7.2h357.1v264.1H7.2z"/></clipPath></defs></svg>