<svg xmlns="http://www.w3.org/2000/svg" xmlns:xlink="http://www.w3.org/1999/xlink" width="495.4" height="367" viewBox="0 0 371.5 275.2"><defs><style>*{stroke-linejoin:round;stroke-linecap:butt}</style></defs><g id="figure_1"><path id="patch_1" fill="none" d="M0 275.2h371.5V0H0z"/><g id="axes_1"><g id="PatchCollection_1"><defs><path id="m8e6c4178ef" stroke="#f4f4e2" d="M118.3-213.5h2.2l3.3-.5h1l.6-.1h2.9l1.8-.1 2.1-.2 2.2-.2 1.1-.2 2.3-.3 1.5-.2 1.6-.4 1.3-.3 1.7-.5 2-.6 7.5-2.4 1.6-.5 1.8-.5 1.4-.3 1.5-.3h1l.9-.2h2l.7.2 1.4.3 1 .2 1 .2 1.9.2 1.4.2.9.1.6.2h.2l.6.3.4.3.3.2.5.5 1 1 .6.5.4.3.5.3 1.1.6.6.2.5.2.6.1.8.2h.7l.8.1 1 .1h9.1l.4.1h.1v-.8l.3-.6.3-.4.3-.4 1.2-1 .7-.7.6-.7.7-.7.6-.8.7-.8.7-.6.3-.2.5-.3.6-.2.6-.1.7-.2h.7l1.1-.2h4.9l6.6-.1 4.8-.2h3.2l.8.2.7.2.5.2.5.2.5.3 1 .8.4.2.4.2.4.1.4.1.9.1 1.7.1h3l.6-.2 1-.3h.8l.5.4.5.4.5.4.7.2h.8l.8-.1 1-.2 7.1-2.4 5.7-1.7 1.6-.5 1.4-.5.8-.3.7-.3 1-.5.7-.5.6-.5.5-.6.5-.8.4-.8.7-1.8.4-1 .5-.8.6-.8.8-.7.8-.6 1-.6 1-.6 1-.5 1-.4 1.1-.4 1.2-.2.8-.1.8-.1h3l4.3.2h11.2l.9.1 1 .2h.4l.6.3.6.2.5.3.1.1.2.2v.1l3 1.5 2.1 1 2.2 1 2 .9 2.2.9 5.2 2 1 .4 1.5.7.6.3 1.3.7.6.3 1.5 1 1 .6.5.3.3.3.3.3.2.3.2.3.2.3.2.5.4 1.2.2.4.3.6.6 1 .6.7.3.4.8.8.7.6 1.3 1 1.6 1.3.7.6 1.5 1.3 1.2 1 .6.3.9.5 2.6 1.3 1.2.5 1.4.6 1 .3.8.1.9.1h1.6l.8.1.6.3.8.4.7.7.5.8.2.5.2.5.3.7v.9l-.2.4-.2.4-.4.7-.4.4-.3.3-.2.2-.6.5-.6.4-1.2.7-3.3 1.6-3.3 1.7-3.2 1.5-1.3.6-1.8.8-.7.4-.6.3-.4.4-.3.3-.8.8-.9 1.1-.5.6-.5.3-.4.3-.6.3h-.4l-.7.3-.7.1-.7.1-1.7.2-.5.1-1 .3-2 .5-1.3.4-1.2.5-1.4.5-.6.3-.7.3-1 .7-.6.3-1.7.9-2.6 1.3-1.3.7-.4.2-.5.4-.4.4-.4.6-.3.5-1 1.6-.5 1.2-.3.7-.8 2-.4 1-.5.8-.4.6-.4.5-.4.4-.6.6-.7.5-1.2.7-2.1 1.2-.9.5-2 1.5-.4.1-.4.3-1.6.6-.7.3-.7.5-.5.5-.3.3-.2.4-.5.8-.8 1.4-1 2.2-.4.6-.4.6-1.2 1.6-.9 1.2-.5.9-1.2 1.9-1 1.3-.8 1.1-.7.8-1 1-.9 1-2.8 2.9-.4.5-.6.7-.5.8-.4.7-.4.7-.2.6-.2.6-.1 1v.7l-.1 1.6v.7l-.2.5-.2.6-.3.6-.3.5-.6 1-.2.4-.1.3-.1.5v1.9l.2 1 .4 2.3.1 1v1.1h-.1l-.3 1.4-.3.8-.4.9-.4.7-.5.6-.6.4-.5.2h-.9l-.9-.4-.5-.2-.4-.3-.4-.3-1.4-1-3.7-2.6-1-.6-.8-.5-2.7-1.5-1.3-.8-1.1-.8-1.5-1.2-.5-.4-.7-.4-.5-.2-.6-.2-1.1-.3-2.9-.6-1.1-.3-1.2-.3-2.1-.6-.8-.1-.7-.2h-3.2l-5.5.7-.9.1-1.5.2h-2l-1-.1-.8-.2-.8-.3-.7-.5-.3-.3-.3-.5-.3-.5-.3-.6-.2-.7-.1-.6-.2-.7-.1-.9-.1-.8-.2-1.8-.2-3v-.1l-1.5.6-1.8.6-1 .3-1 .3-1 .2-1 .1h-2l-1-.2-1-.3-1-.4-2-.8-.7-.3-.5-.1-.6-.1h-.7l-.6-.1h-1.4l-.6.1-.6.1-2 .4h-.4l-1 .1h-2.5l-1-.2-.8-.2-2.1-.6-.8-.2h-.5l-.7-.1h-1.4l-.6.2h-.5l-.6.3-.4.2-.6.4-.2.2-.3.3-.3.4-.2.4-.2.5v3.7l-.1.9-.1.7-.2.8-.3.6v.2l-.2.1v.1h-.4v.5l.1.3.3.4.6.6.4.4 2 1.5.8.8 1 .9.6.7.7.8.8 1.1.8 1.2 1.4 2.2.6.8.6.7 1.4 1.5.4.6.2.2.1.3.1.4.1.4v.5l.1 1.3v3l-.2 1-.1.5-.3.7-.3.6-.4.5-.6.5-.6.4-.7.4-.5.2h-.4l-.4.2-1 .1-2 .2-1 .2h-.5l-.6.2-.4.2-.5.2-.5.3-.4.3-2 1.5-1 .5-.4.4-1 .5-1.8.9-.8.4-.4.3-.4.3-.5.3-.2.4-.3.5-.3.6-.2 1-.2 1.6-.2.5v.4l-.3.6-.3.6-.3.5-.8 1.2-.5.7-.2.5-.2.5v1.6l.1.5.2.4.2.5.3.5 1 1.7.9 1.6.3.6.5.7 1.5 1.8.6.8.6.8.6 1 .3.4.3.8.2.4v.3l.2.5v.8l-.1.4-.2.4-.2.3-.3.3-1.4 1.5-.4.4-.3.4-.3.4-.3.8-.4 1-.3 1-.3 1-.2 1v1l-.1.8v1.3l.1.3.1.4.1.2.2.3.1.2.2.2.2.3.2.1.4.3h.3l.3.2h1.4l.5-.1.4-.2.8-.2.6-.2h.2v.1l.1.3 1 2 .3.5.1.6.2.4v1.8l-.2.7-.1.6-.2.4-.2.6-.9 2-.7 1.7-.2.5-.3.6-.2.3-.4.7-.3.3-.2.2-.3.2-.3.1-.2.1h-.2l-.3.1h-.5l-.5-.1-1.4-.4-1.7-.4-.5-.2-.9-.3-1.7-.9h-.4l-.6-.3-.7-.1h-1.8l-.5.1-.4.1-.6.2-.9.4-.7.3-.8.4-1.4.8-1.5 1-.5.5-.5.3-.6.5-.3.4-.1.2-.2.3v.2l-.2.3v1.2l.3 1.5v.8l.1 1v1.9l-.2.7-.2.5-.3.5-.3.5-.5.6-.3.4-.6.5-.7.5-1.1.7-1.8 1.1-.7.5-.5.5-.4.4-.3.5-.4.5-.3.5-.2.6-.3.6-.2.7-.1.7-.2.8-.3 3.6-.1.6-.1.4h-.1l-.1.1-.5.1-.8.1H141l-.6-.1-.9-.2-.9-.3-.7-.3-.8-.4-.7-.4-1.4-.8-3.8-2.4-1.4-.9-1-.6-2.8-1.4-.6-.4-.8-.6-2.2-1.6-2.6-2-1.3-1-1.2-1-.6-.6-.6-.6-.6-.6-.4-.5-.7-.9-.2-.4-.5-.7-.4-.7-.4-1-.3-.9-.3-1-.2-1.1-.2-.6-.2-1.8-.1-1-.2-1-.1-.4-.2-.5-.4-.5-.6-.7-.6-.5-.9-.6-.6-.4-.7-.4-.8-.3-1-.3-.6-.1-2.2-.3-1.2-.2-1-.3-.4-.2-1.7-.9-.2-.1-.4-.1-.5-.1h-1.2l-.5.2-.2.1-.4.2-.3.3-.6.4-.3.3-.5.6-1.7 2-.5.5-.6.5-.4.2-.4.3-.7.4-1 .5-1.2.5-.7.3-2 .6-.8.4-1.1.5-3 1.3-.8.3-.8.3-.9.2-1 .2-.8.1-.8.1h-4.4l-.8-.1-.7-.2-.7-.2-1.4-.4-1-.4-1-.4-1.4-.7-1.4-.6-.7-.4-.7-.5-.4-.3-.5-.4-.3-.4-.3-.4-.5-.6-.2-.3-.3-.8-.2-.4-.1-.5-.1-.4-.2-.8v-.7l-.1-.8V-56l.1-.9.2-.8.2-.7.1-.5.3-.5.4-.8.5-.9 1.1-1.8.3-.5.3-.6.2-.4v-.4l.2-.6v-.4l.1-.9v-1.2l-.2-.5-.1-.6-.3-.6-.3-.4-.4-.4-3-2.8-1.5-1.5-.9-1-1-1-.7-.9-2.5-3-.8-.8-.6-.7-1.4-1.3-.4-.4-.4-.5-.2-.4-.3-.5-.2-.4-.1-.5-.1-.5V-88l.2-2v-2.9l-.2-1.1-.3-.6-.2-.5-.2-.4-.2-.3-.3-.4-.4-.3-.3-.3-.6-.4-.7-.3-1-.5-.4-.1-.2-.1-.2-.3L39-100l-.7-.8-1.3-2-.5-.8-.4-.8-.7-1.4-.6-1-.3-.5-.5-.6-.5-.7-.8-.7-.8-.7-.9-.6-1.3-.9-.9-.6-.9-.6-.9-.7-1-1-1.1-1-1-1-.3-.3-.2-.2.9-.2 1.3-.4.8-.2.8-.1.5-.1h1.9l.9.2.8.3 2 .9.8.2.5.2h.6l.5.1h1.1l.4-.1.4-.1.4-.2.8-.5.8-.6.8-.8.5-.6.4-.7.4-.5.3-.6.3-.7.2-.4.1-.4.1-.5.1-.4.1-1 .1-1.2.2-3.3.1-1.2.1-1 .4-2.2.3-1.6.2-.8.2-.7.4-.9.2-.5.3-.5.2-.2.3-.3.2-.2.4-.3.2-.2h.2l.4-.2h1.4l.5.3.4.1.4.2.5.3.3.3.6.4.9.8 1 1 3.2 3.2 1.2 1.1.7.6.6.4.4.1h.1l.1-.2.4-.4.6-.7.6-.6 1-1 .7-.5.7-.5 1-.6 1.2-.8 1.2-.6 2-1 1-.7 1-.6.6-.4.4-.4.6-.5.6-.7.5-.5.6-.7.5-.8.4-.7.4-.8.8-1.4.3-.6.4-.6.5-.5.7-.6.6-.5 1-.6 1-.8 1.1-.7 3-1.7.7-.5.4-.3.5-.4.7-.7.4-.4.3-.5.4-.7.3-.6.3-.7.2-.6.2-1 .1-.6v-1l.1-1.5.1-1 .1-.6.2-.4.2-.4.2-.3.2-.2.4-.4.3-.2 1.3-.8.7-.5.7-.6 1-1 .6-.7.5-.7.4-.5.4-.5.6-1.1.8-1.7.2-.5.2-.4v-.6l.2-.6v-5.7l-.1-.4-.1-.5-.3-.9-.2-.4-.3-.6-.5-1-.6-1-.3-.5-.1-.3v-.6l.1-.2.1-.2h.2l.2-.2.5-.1h1.7l2 .5.7.1h1.1l.5-.3.4-.3.3-.4.2-.4.2-.3.1-.6v-1.6l-.2-.3-.2-.3-.1-.3-.5-.6-.4-.4-.5-.5-1.1-.9-.5-.5-.5-.5-.4-.5-.2-.4-.3-.6-.2-.3-.2-.7v-.5l-.2-.6-.1-1.3-.1-1.2-.1-1.2v-1.7l.2-1.2.2-1.3.3-1.3 1-3.7.2-1v-.5l.2-.8v-5.7l.2-.8.2-.9.2-.6.4-1.1 1-2.5.4-1.2.2-.6.2-1.2.6-3.4.3-1.8 1-4.4 1.6-7.5.3-1.3.6-2.1 1.7-5.7.1-.4v-.3h.6l.3.3.2.4v.4l.1.5v3.8l.1 1.4v2.1l-.2.7-.2.8-.4 1.2-.4 1.1-.4.7-1.6 3.5-.6 1.2-.5 1.2-.3 1-.2.7-.2.8v1.7l.2 1.2.4 1 .6 1 .3.6 1.6 2.3.7 1.2 1 1.7 1.1 1.8.7 1.4 1.5 3.4.4.7.5.9.5.6.4.4.2.2.2.1.3.2.7.3.7.1"/></defs><g clip-path="url(#p0b1000f265)"><use xlink:href="#m8e6c4178ef" y="275.2" fill="#f4f4e2" stroke="#f4f4e2"/></g></g></g></g><defs><clipPath id="p0b1000f265"><path d="M7.2 7.2h357.1V268H7.2z"/></clipPath></defs></svg>