<svg xmlns="http://www.w3.org/2000/svg" xmlns:xlink="http://www.w3.org/1999/xlink" width="483.8" height="374" viewBox="0 0 362.9 280.5"><defs><style>*{stroke-linejoin:round;stroke-linecap:butt}</style></defs><g id="figure_1"><path id="patch_1" fill="none" d="M0 280.5h362.9V0H0z"/><g id="axes_1"><g id="PatchCollection_1"><defs><path id="m96edbbf358" stroke="#f4f4e2" d="m294.1-236.8 1.1.1h1.3l1-.2 2-.5 1.1-.3 1.2-.2 1.3-.1 1.3-.1h4.6l1.3.2.9.2.9.2 1.2.4 1.1.5 1.1.5 1.2.6 1.2.7 2.4 1.4 3.5 2.3 2.4 1.5 2.2 1.6 1.1.9 1.6 1.3 1 .7 1 .6 1.1.4 1.2.2 1.2.2h1.1l1 .1h1.1l-1.2 5.2-1 4.4-.7 3-.2 1.5-.2 1.2-.1 1-.1 1.3v4.2l.2 4v2.1l-.1.7-.1.5-.2.7-.3.8-.3.6-.3.8-.4.5-.3.5-.4.4-.4.4-.5.4-.6.4-1 .6-.4.3-.8.4-.7.2-1.5.6-2 .7-2.4.8-2.6.7-2.2.5-1.7.3-.8.1-1.4.1h-3.6l-1.3-.2-1.6-.3-1.3-.2-1.4-.2-.9-.1h-3.2l-1.1.1-1.3.2-2 .3-2.7.5-2 .4-1.7.4-1.4.4-1.7.6-1.9.7-1 .5-2.3 1.1-1.1.5-1.2.5-1.2.5-1.4.6-1.6.5-.8.2-.9.3-1.5.3-1.6.3-1 .1-1.6.1h-1.3v-.1h-.4l-.6.2-.8.3-1 .4-1 .4-.9.5-1 .5-1 .6-.4.3-.8.6-.7.4-.9.8-.7.8-1.2 1.2-.7.8-.6.8-.8 1-.7 1-1.2 1.9-1.5 2.3-1.2 2.1-.9 1.8-.6 1.2-.6 1.3-1.5 3.8-.7 1.5-.5 1-.4.8-1.3 2.2-1.1 1.8-2.2 3.2-5.8 8.2-1.3 1.9-1.4 1.8-.1.3v.6l.3.7.5.7.7.5.8.3h1.9l1.1-.2 3.5-.8.9-.1.8-.2h1.8l.4.1.4.1.6.3.6.3 1.3.8 1 .5.8.4.7.5 1.4 1.1 1.8 1.2.6.4.5.4.6.6.2.3.5.6.4.6.3.6.7 1.3.2.7.3.7.2.6 1.3 4.7.1.6v.4l.1.6v.6l-.2.4-.2.3-.4.2-.7.4-.5.2-1.9.5-.5.2-.5.2-.6.4-.3.3-.2.7v.7l.3.6.4.7.5.7.5.7.7.8 1.5 1.7.7.9.7.9.6.9.5.9.2.5.2.6.4 1.2 1 3.9 1 3.9.4 2 .3 1.2.2 1.3.2 1.2.1 1.8.1 3v6.2l-.3 8v1.5l-2.2-.7-2.1-.5-1.1-.3-3.7-1.1-1.8-.6-1-.2h-1.5l-.4.4-.3.4-.7.9-.5.4-.5.3-.6.2-.7.2h-.7l-2.9.5-.7.1-.6.2-.5.3-.5.3-.3.3-.3.5-.5 1-.3.5-.4.6-.6.5-.7.5-.7.5-.8.5-.8.5-1.7.9-3 1.5h-.1l-.3-.1-.1-.2-.7-.7-1-1.3-.8-.8-.5-.5-.3-.4-.4-.2-.3-.2-.5-.2-.6-.2-.7-.1h-2.5l-.5.2-.6.2-.5.3-.3.3-.2.3-.3.4-.3.4-1.1 1.9-.5.6-.3.3-.3.3-.4.3-.8.5-.6.3-1 .4-4.3 1.9-2.1.8-5.7 2-.1.1h-4.2l-1 .1-2.7.3-1.5.2-.4.1-.5.2-.6.2-.5.3-.3.2-.7.5-.4.3-.4.4-.7.8-.7.9-.9 1.3-.4.5-.8 1-.9 1-1.6 2.4-1 1.1-.3.4-.3.6-.7 1.6-.4.8-.6 1-.6.9-.4.5-.6.6-2.1 2-.6.6-.7.7-.4.5-.3.6-.3.4v.3l.1.1h-.5l-2.2-.4-2.8-.5-1.5-.3-1.3-.3-1.4-.4-1.3-.5-1.3-.4-2.6-1-2.4-1.2-3.8-1.8-1-.4-.6-.2-1-.3h-.4l-.9-.1h-.8l-6 .2h-7.7l-4.1-.3-2.3-.2-1.8-.2-1.3-.2-1.2-.2-5-1.1-1.2-.2-1.1-.2-1.2-.1h-2l-.9.3-.8.5-.7.6-.7.7-.7.6-.8.4-.5.2-.8.1h-1l-.9-.1-1-.2-1.3-.4-.6-.2-1.3-.4-1.6-.6-2-.9-2.4-1.1-2.3-1.1-3.2-1.6-7-3.6-2.5-1.3-1.2-.5-1.7-.8-1.1-.5-1-.3-1.7-.4-.5-.2h-.2l-.1-.2h-.3l-1.8-.5-.6-.3-1-.5-.8-.8-.8-1-.7-1-.8-1.2-.7-1.2-.7-1.2-1.3-2.5-1.2-2.4L58-58l-1-2.1-1.8-3.2-3-5-.5-1.2-.6-1-.6-1.6-.4-1-.4-.9-.5-1.7-.8-2.8-.3-1.1-.3-.7-.3-.6-.3-.6-.4-.6-.6-.6-.7-.5-.7-.5-1-.6-1-.5-1-.6-1.4-.6-1.3-.5-.8-.3-.8-.2-.8-.1-1-.1h-1l-1 .2-.8.3-2.6.9-.7.2-1 .2h-.9l-.5-.1-.9-.4-.8-.7-.8-.8-.6-1-.6-.9-.4-.7-.2-.3.4-.1.6-.3.7-.5.7-.6.7-.8.6-.8.6-.9.5-.8.7-.8.5-.3.5-.3 1-.5.7-.2.7-.3.8-.1.9-.2 1.2-.2 2.4-.4.8-.1.8-.3.4-.1 1-.5 1-.7.8-.5.8-.6.7-.7.6-.8.6-.7.5-.9.4-.8.2-.9.2-.9v-1.3l-.5-2.6-.5-3-.2-1.2-.3-.8-.3-1-1-3.3-.3-1-.3-1.1-.2-1.2-.1-.6-.1-1.3-.2-.9-.2-.8-.2-.9-.3-.8-.3-.7-1.3-2.3-.5-.8-.5-.7-.6-.7-.7-.5-2.3-1.2-.6-.4-.6-.6-.5-.7-.4-.7-.2-.5-.3-.5-.3-1-.3-1.2-.2-.8v-1.5l.1-.7.4-.7v-.1l.5-.5.5-.4.5-.4.6-.4.7-.4 1.1-.6 2.4-1.1 3.1-1.4 2.5-1 4-1.5 3.3-1.4 1.2-.5 1.4-.7 1-.5.8-.5.9-.5.8-.5.6-.6.7-.5.6-.7.6-.8.3-.7.2-.7.1-.5.1-.6.1-.7.1-1.3v-4.1l-.3-1.9-.1-1-.3-1.6-1.1-4.8-.4-1.6-.6-1.6-.6-1.5-1.5-3-.9-2-.5-1.2-.8-2-1.6-4-.8-2-.5-1-.4-1-1-1.7-.4-1-.5-1.2-.4-1-.4-1.2-.3-1.2-.3-1.1-.4-2.3-.2-.8-.3-.7-.1-.4-1-2-.5-1.4-.1-.5-.2-.4v-.5l-.1-.5v-.1h.7l.7.2.8.2.8.4.7.3 1 .7.6.5.6.7.3.3 1 1.2 1.2 1.7L55-207l.7 1.1 1.2 1.5.5.6.6.7.5.5.6.6.6.5.5.4 1 .6 1.8 1.3.7.6.7.6.8.7.7.8.7.9 1.8 2.5.6.7.6.6.7.5.5.3.4.1.7.2h.8l.9-.1.7-.2 2-.8.4-.2.8-.1h1.2l.5.3.6.4.6.5 1.3 1.1 1.1 1 .8 1 .8.8.3.6.3.5.4.6.3.7.2.6.3 1 .3 1 .3 1.3.5 2.6.3 1.3.4 1.3.2.7.3.6.3.7.4.6.3.3.2.3.2.2.8.4.8.3 2.6.7 1.7.5 2.1.7 5 1.8 2.6.9.8.2 1.5.4.8.1 1.3.2 1.6.2h8.1l2.4-.2 5.2-.4 7.5-.6 5.9-.5 10.5-1 14-1.2 8.7-.8 2.8-.3 1.3-.2 1.3-.2 1.2-.2 1.2-.3 1-.3 1-.5.6-.7.3-.5.2-.5v-.5l.2-.7v-2l-.2-1-.1-1-.4-2.4-2.5-14.4-2.7-14.2-2.6-13.1-.5-2.6-.2-1.3-.1-1.2-.1-1.2v-2.3l.2-1 .4-.9.5-.5.7-.5.7-.4.7-.3.9-.2.8-.2 1-.1 1.2-.1h2.2l1 .3 1 .3.9.6.9.7 2.3 2.4.9.7.8.5.8.2h1.6l.8-.3.6-.3.6-.5.6-.6.7-.8.6-1 1.7-2.7.6-.8.6-.8.7-.6.8-.5.8-.2.9-.2.9-.1h1.6l1.5.1h2l.6-.2.5-.2.6-.3.6-.4.3-.3.8-.7 2.2-2.5.7-.7.8-.5.7-.3.7-.2h1.3l.7.2.8.3.8.4.8.5.9.6.9.7.9.7.8.8.8.7 1.4 1.6.6.7.7.6.9.7.9.6.7.3.6.3.7.2 1.7.4h.3l.6.2h.4l.4-.1.6-.3.5-.5.3-.7.3-.6.4-1.3.3-.9.4-.8.7-1.2.2-.5v-.3l.2-.4v-1.2l-.3-1-.4-.9-.7-1.5-.4-.9-.2-.8-.2-1v-1.6l.3-.8.3-.8.4-.8.4-.7.5-.8.7-1 .7-1 .7-.8.7-.8.7-.6.7-.6.7-.3h1.1l.5.3 6.8 3.5 9.7 5 2.4 1.2 1.1.6 1 .6.9.6.9.6.9.6.8.7.8.6 1.6 1.6.7.6.7.5.8.4.8.4.8.3 1.8.6 1 .4 1 .4 2 1 1.6.7 2.2 1 2.2 1.1 1.2.5 1.1.3 1.1.3"/></defs><g clip-path="url(#peb846c5bd9)"><use xlink:href="#m96edbbf358" y="280.5" fill="#f4f4e2" stroke="#f4f4e2"/></g></g></g></g><defs><clipPath id="peb846c5bd9"><path d="M7.2 7.2h348.4v266.1H7.2z"/></clipPath></defs></svg>