<svg xmlns="http://www.w3.org/2000/svg" xmlns:xlink="http://www.w3.org/1999/xlink" width="484.3" height="374" viewBox="0 0 363.2 280.5"><defs><style>*{stroke-linejoin:round;stroke-linecap:butt}</style></defs><g id="figure_1"><path id="patch_1" fill="none" d="M0 280.5h363.2V0H0z"/><g id="axes_1"><g id="PatchCollection_1"><defs><path id="m7c02c7349f" stroke="#f4f4e2" d="m338.4-230.4.7.1-.6 2.8-.4 2.2-.4 2.3-.4 3.3-.3 3.1-.2 3.9-.1 2.8v7.3l.3 5.3 1.5 19.5.3 3 .3 3 .6 6.4.4 5.4v10.3l-.4 4.7-.6 6.5-.8 6.8-1.3 9.2-.4 2.6-.5 2.6-.9 4.7-1 4.5-.7 2.3-.3 1.2-.9 2.4-.5 1.2-.6 1.4-.7 1.3-.6 1.3-.7 1-1.1 1.8-.5.7-2.1 2-2 1.6-2 1.6-2 1.4-1 .7-1.8 1-4.7 2.4-1.1.6-.7.5-1.9 1-1 .6-1.8.7-1.3.4-2 .5-3.7.8-2.8.5-2.1.4-3 .4-2 .2-2.7.2h-2.1l-3 .1-7.3-.1h-2.2l-1.3.1-2.7.2-1.7.2-2.2.4-2 .3-1.3.3-2.2.5-2 .6-1.8.6-2.7 1-1.7.8-2 1-2.2 1.2-1.4.8-1.7 1-6.3 4.1-2.2 1.4-1.1.6-2 1-1.2.7-1.3.6-2 .9-2 .7-2.9 1-2.2.7-2.4.6-1.2.2-2.1.4-1.9.2-1.2.2h-4.7l-1.4-.2-1.3-.2-2-.5-1.3-.4-1.4-.5-1.2-.4-2.4-1.2-2-1-2-1-7.4-4.4-1.9-1-2.3-1.2-1.7-.9-1.8-.8-2-.8-1.5-.6-1.4-.4-2-.6-2-.4-2.1-.4-2-.2h-4.9l-1.5.3-1.2.2-1.2.4-1.1.4-1 .5-1.2.7-1.2.8-1.2 1-1 1-1 1-1.5 1.7-1 1-7.3 9.9-4.2 5.5-2.2 2.7-2.4 2.7-1.5 1.6-1.3 1.3-1.4 1.4-1.2 1-1.5 1.2-1.6 1.3-2 1.4-2 1.3-1.6 1-2 1-7 3.4-2 1.1-2 1-1.5 1-1.4 1-1 .8-.8.7-.1.2h-.3l-.3-.3-.5-.8-.4-1-.3-1.3-.2-1.6v-3.4l.2-4.3v-1l-.1-1.6-.3-1.3-.3-.8-.6-1-.8-1-1-.7-1-.7-1.1-.4-1.2-.4-4-1.2-3.6-1.2-1.4-.4-.9-.2H75l-.7.2-.9.4-.9.6-1 .7-1.8 1.7-.8.7-.8.6-.8.4-.7.3-.7.3-.9.2-.8.2-1.3.2-1.9.1-3.2.1-2.3.2-1.4.2-1.6.5-1.6.6-1 .4-.8.5-.8.5-1.7 1L45-32l-3 2.4.1-.4-.2-.6-.3-.7-.6-.7-.6-.5-.7-.5-.8-.3-.9-.2-1.1-.3L35-34l-1-.2-2.4-.8-3.6-1-1.1-.4-.5-.2-.5-.4-.4-.3-.3-.4-.6-.8-.3-1-.1-.8v-3.4l.2-1.3.8-3.3.6-2.3.5-1.5 1.4-3.9.5-1.5.4-1.1.3-1.5.2-1 .1-1.7v-1.6L29-65l-.1-.7-.4-1-.3-1-1-2.5-1-2.4-.7-2.3-.7-2-1-3-.3-1.6-.3-1.3-.2-1.3v-2.7l.3-.8.3-.8.3-.7.8-1 .7-.6.4-.1 4.1-1 2.7-.8 3.2-.9 2.1-.7 2.7-.9 3.6-1.3 2.1-.8 3.3-1.4 1.7-.8 1.7-.9 2.7-1.4 2.3-1.4 3.8-2.3 3-1.7 6-3.5 2.3-1.1 1.5-.7.8-.3.7-.3 1.2-.3 1.1-.2 1-.2 1.9-.1h3.5l1-.2 1.1-.1 1-.2 1.1-.2.8-.3.7-.2 1-.5.8-.5.9-.7 1.7-1.5.9-.7 1.2-.8 1.3-.9 1.3-.7 1.3-.6 5.8-2.5 1.4-.7 1.5-.8 1.4-.7 1.2-.8 1.1-.7.8-.7.8-.7.7-.6.6-.8.5-.7.5-1 .4-1 .4-1 .2-.9.3-1 .3-1.7.2-1.8.3-4 .6-3.9.2-1.6.5-6.5.2-2.2.2-1.5.3-1.4.1-.6.3-1 .7-1.7.7-1 .8-.8 1.2-1 .5-.4 1.6-1 4.4-2.7 1.3-.8 1.5-1.2 3.6-2.7 2-1.4 1.4-.9 1.4-.7 1.5-.6 2.5-.8 1.8-.7.6-.4.7-.4.5-.4.5-.4.6-.6.4-.5.6-.9.5-.9.4-1 1.4-4.3.5-1.3.7-1.3.6-1 .8-1.1 1.7-2 .9-1 1-1 1.2-1.2 1.7-1.5 1.4-1.2 3.2-2.5.2-.1h.7l.5.3.4.4.4.4.3.4.6 1 .5.8.6 1 .8 1.8.8 2.2.8 2.4.3.7.3.9.5.6.6.7 1.7 1.4 1.1 1 1.2 1.3 1.4 2 1.1 1.2 1 1 .4.4h.8l1.6-.1h1.5l1.5-.2 1.1-.2 1.2-.2 1.6-.3 5.1-1.5 2-.5 1.6-.2 5.8-.8 2.4-.4 1.5-.4 1.2-.4 1.4-.5 2-1 1.6-1 1.6-1 1.6-1 3.2-2.2 8.3-6 3.5-2.3 2.7-1.7 3.2-2 15.7-9.4 8.7-5.3 5.2-3.2 3.3-2.2 2.8-1.7 3-2.2 2.5-1.7 2.5-2 2.2-1.6 2.7-2.2 2.3-2 2.6-2.2 7.9-7.2 3.2-2.9 1.8-1.5 1.3-1 1-.8 1.3-.9 1.8-1.1 1.8-1 1.8-.5.8-.2.6-.1 1.5-.1h1.5l.6.2h.3l.8 4 .4 2.3v3.3l-.3.7-.2.6-.5.8-.5.5-.5.5-1 1-.8.7-.4.5-.3.5-.3.5-.1.4-.2.7v5.6l.3.7.1.3.3.5.2.4.4.4 1 .8.9.7.5.4.4.3.9.4 1 .3.8.1.8.1h2.9l.8.2.7.1.8.3 3.4 1.2 1.4.5 1.1.3"/></defs><g clip-path="url(#p2896d5cf5b)"><use xlink:href="#m7c02c7349f" y="280.5" fill="#f4f4e2" stroke="#f4f4e2"/></g></g></g></g><defs><clipPath id="p2896d5cf5b"><path d="M7.2 7.2H356v266.1H7.2z"/></clipPath></defs></svg>