<svg xmlns="http://www.w3.org/2000/svg" xmlns:xlink="http://www.w3.org/1999/xlink" width="349" height="374" viewBox="0 0 261.8 280.5"><defs><style>*{stroke-linejoin:round;stroke-linecap:butt}</style></defs><g id="figure_1"><path id="patch_1" fill="none" d="M0 280.5h261.8V0H0z"/><g id="axes_1"><g id="PatchCollection_1"><defs><path id="m1964ad49cd" stroke="#f4f4e2" d="m185.8-252.7.4.3.5.8.5 1.2.3.9.1.6.1 1v3.3l-.2.7-.3 1-.2.6-.4 1-.2.5-.7 1-.3.4-.7 1-.8.7-.6.5-1 .7-.8.6-1.7 1.2-2.6 1.6-2.4 1.4-2.7 1.5-1 .5-.5.4-.9.6-.5.6-.4.4-.5.8-.4.7-.6 1.1-.4 1-.3.9-.4 1.3-.2 1.2v2.3l.2.9.3.8.3 1 .4.7.5.8.7 1 .8 1 1.6 1.8.8.8 2.3 2 2 1.7 2.4 1.9 4 3 4.2 3 3.8 2.7 2.2 1.6 2.2 1.3 7.9 4.8 1.3.8 1.8 1.2 1.3 1 .8.8.3.4.1.3v.2l.3.5.7 1.3.7 1.6 2 4.5 7.3 18.7 2.9 7 .8 2.2 1.3 3.6 4 12.5.7 2.4.4 1.3.4 2 .2 1.3.2 2.6.2 1.7v3.2l-.1 2.7-.3 2.3-.3 2-.3 1-.3 1.2-.3.9-.5 1.2-.8 1.6-2.7 4.8-.8 1.5-.7 1.6-.3 1.3-.2.6v1.7l.1.7.2.5.3.8.2.5.5.6.5.7.3.4.6.6.6.4.6.4.5.2.8.2.6.2 1 .2h4.2l.8.1.9.1.6.1 1.1.4.8.3.5.3.8.4.8.6 1.4 1.1 1 1 .8.7.1.2-2.5 2.5-3 3-6.2 5.9-9 8.6-6.4 5.9-4.4 3.8-3 2.5-1.9 1.5-1.8 1.3-2.5 1.8-1.4 1-2.7 1.7-2.8 1.6-1.4.8-2.7 1.5-2.6 1-2.3 1-2.1 1-2 .7-2.1.8-2.7.9-4 1.1-3.5 1-4 .8-2.5.4-4 .7-2.3.2-7 .8-9.9.8-16.2 1.6-9.4.8L98.4-22l-21.5 2-8.4.6-1.3-2.2-1.5-2.6-.6-.7-.8-.9-.3-.4-2.1-3.4-1.5-2-.3-.5-.5-.6-4-4-1.7-1.9-1.1-1-.8-.5-1.4-1.1-1.8-1.1-1.6-1-4.6-2.4-2-1.2-1.2-.8-1-.8-.6-.7-.8-.8-1-1.4-.5-1-1-1.9-1-2.3-1.1-3-2.5-6.8-.8-2.5-.7-2.7-.3-1.2-.2-1.7-.1-1.1v-1.3l.1-1.8.2-1.4.8-5.5.2-1.7v-3.1l-.3-1.7-.4-2.2-.5-2.3-1.6-6.6-.7-3.3-.4-2.4-.1-1.2-.2-1.9v-4.5l.2-3.1.3-3.9 1.2-9.2.2-2 .1-1.9v-7.4l-.3-2.2-.3-2.7-.4-3-.4-2.1-.7-3.1-.6-2-.5-1.7-.5-1.3-2.5-6.4-.5-1.4-.5-1.6-.6-2-.2-1.1-.2-1.8-.3-2.4v-4.9l.1-1.3.2-1.7.9-7.1.4-4 .4-4.3.2-3.3v-4.5l-.3-2.3-.3-2.4-.3-1.4-.2-1-.2-.8-.2-.3.3-.1.4-.1.4-.3.4-.2.9-1 .3-.1.5-.2h1l.4.2 1.1.6H26l.7-.7.5-.3.5-.2h.4l2 .2 2.1.4.9.3.9.3 1 .4 1 .6.6.7.3.3.3.5.4.8.2.6.2.8.2 1v2.9l-.1 1.3-.3 1.5-1 4.7-.2 1.8-.2 1.1v3.3l.1.9.3.8.4.7.2.3.4.3.5.3.4.1.7.2h1.1l.7-.2 1.2-.3 1.7-.7 2.2-1 2.3-1.3 1.2-.7 1.5-1 4.5-3L58-203l2.4-1.4 5.1-3 3-1.8L71-211l2.6-1.9 8.8-6.9 1.2-1 1.6-1.5.9-.7.6-.5.9-.5.8-.3 1.1-.3 3.2-.5 3.4-.7 4.8-.7 2-.4 1.2-.3 4.4-1.5.8-.4.8-.5.5-.4.4-.3 1.3-1.5 1.2-1.2.5-.6.3-.7.4-1 .1-.9.5-4 .2-1.2.2-1 .1-.7.4-1 .4-.9.4-.5.6-.8.6-.6.9-.7 1.2-.9 1.3-.7 1.5-.9 1-.5 1.4-.7 1.2-.4 1-.4 8-2.3 3-1 2-.8 3.6-1.5 3.4-1.3 3.2-1.3 1.1-.4 1.2-.4h.6l1-.2h1.7l1.1.1 1.1.2 1 .2 1.3.3 1.3.4 1 .4 1.3.4 2.3 1 3.7 2 1 .5 2.8 1.8 1 .6 1.1.5 1.4.5 1 .2.8.1 1.1.1h2l1-.2 1-.2.7-.2.3-.2"/></defs><g clip-path="url(#pb9ce578d27)"><use xlink:href="#m1964ad49cd" y="280.5" fill="#f4f4e2" stroke="#f4f4e2"/></g></g></g></g><defs><clipPath id="pb9ce578d27"><path d="M7.2 7.2h247.4v266.1H7.2z"/></clipPath></defs></svg>