<svg xmlns="http://www.w3.org/2000/svg" xmlns:xlink="http://www.w3.org/1999/xlink" width="372.4" height="374" viewBox="0 0 279.3 280.5"><defs><style>*{stroke-linejoin:round;stroke-linecap:butt}</style></defs><g id="figure_1"><path id="patch_1" fill="none" d="M0 280.5h279.3V0H0z"/><g id="axes_1"><g id="PatchCollection_1"><defs><path id="mcfc8800d97" stroke="#f4f4e2" d="M167.6-234.6h1l1-.2 1.7-.8h.4l.5-.2h.8l.7.3.6.3.6.3.6.4.6.4.7.6 1.1 1 1 1.1 1.1 1.4 1.4 1.8 1 1.7.4.7.3.8.3.7v1.6l-.1 1-.3 1-.4 1-1 3-.6 1.7-.3 1.4-.3 1.7-.1.9-.1 1.4v2.5l.2 1.3.2 1.4.3 1.4.3 1.5.7 2.3.5 1.7.2.5.1.2h.2l.3-.2.6-.5 2-1.6 1.4-1.2 1-1 1-1.2 1-1.2 3-3.7 1.1-1.4 1.2-1.1.8-.6.8-.3h.8l.8.3.7.4 1 .8 1.2 1.2 1.6 1.5 4.6 4.7 1.3 1.5 1 1 1.1 1.3 1.2 1.5.7 1 .7 1.1 1 1.7 1.2 2.6.9 1.6.8 1.5 1.4 2.3.8 1.3 1 1.4 1 1.3.7.8.8.9 1.2 1.1 1 .8 1 .6 1.6 1 2.7 1.5 5 2.5 2.2 1 2 1.2 1.3.9.8.6.8.7.8.7 1 1 .8.9 1 1.2 1.2 1.4.7 1 1.5 2.1 3.5 5.4.5.9.5.9.5 1.2.4 1.3.1.5.2 1v1.4l.1 2.4.1.9.1.7.4 1 .2.5.3.6 1.7 3.4.5 1 .3 1.2.3.9.2 1.6.2 1.6v2l-.2.2-.2.2-.9.9-1.6 1.8-1.4 1.8-1.2 1.5-.8 1.4-1 1.4-2 4-1 2-1 1.5-1 1.3-.8.8-.6.6-.6.6-.8.7-1.7 1.2-3 2-.9.6-1.5 1.2-.8.7-1 1-.6.7-.7 1-.7.9-.6 1-.8 1.5-.4.9-.7 1.8-1.7 4.7-.6 1.5-.6 1.3-.9 1.6-.8 1.3-.6 1-.5.5-.2.2h-.1l-2 1.4-1.4.7-2.3 1-2 .7-1.2.5-.3.3h-2.5l-1.3-.1-1.3-.3-1.4-.3-1.5-.3-1.8-.6-6.5-2.2-1.4-.4-1.1-.2-1-.3-1.5-.2-1.4-.2h-2.3l-1.2.1-1.2.2-1.1.2-1.6.4-1.5.5-1.2.6-1.3.7-1 .7-.9.6-.9.8-1 1.1-1 1.3-.7 1.1-.6 1.2-.4 1-.4 1-.4 1.4-.2 1.2-.2 1.2v3.6l.2 2.3.3 2 1 5.6.4 3 .2 2 .1 1.9.2 3v2.6l-.2.7-.2.6-.3.4-.5.3h-.8l-.5-.1-1.5-.8-1-.3-1-.3-1.3-.1h-.9l-4.3-.2-5.5-.2-3.3-.2h-2.1l-.9.3-.4.2-1 .6-.9.8-1 1.4-1 1.6-.5 1.2-.5 1.2-.7 1.7-.7 2.2-.7 2.5-1.5 5.8-.3 1-.2.6-.2.2-1.1-.9-11.3-8-4.6-3.2-1.2-.8-1.8-1.1-1.7-1-4.3-2.4-1.7-1-2.1-1.3-4.5-2.8-2.3-1.4-1.1-.5-1.1-.5-.9-.3-.8-.1H101l-.8.3-.9.3-.4.3-.7.4-.4.3-.8.6-.7.7-.9 1-.9 1-1.3 2-.8 1.2-1.2 2-1.2 2.3-1 2-.7 1.7-.3.8-.1.4h-.2l-.5-.1-.5-.3-.6-.3-.4-.3-1.1-.8-2.3-1.8-1.2-.8-.7-.3-.8-.3-1-.2-1-.1h-3.1l-1.5.1h-1.5l-2-.3-1-.2-.9-.2-1.4-.4-2.7-1L62-35l-1.2-.3-4.1-.7-1.3-.3-1.6-.4-1.4-.4-2.1-.7-3-1-3.4-1.4-2.5-1.1-2.6-1.3-1.7-1-1-.6-1-.6-2.4-2-2.4-1.8-1.2-.9-1-1-1-1-1.5-1.8-2.5-3.5-2-2.5-.8-1.2-.7-1.3-.2-.7-.3-1.3v-1.6l.2-1.2.2-1 .4-1.8 1.5-5.5.2-.7.1-.5.3-.3.3-.4 4-5.2 1.6-2 1.1-1.4 1.4-1.3L32-88l1.5-1.3 2.9-2.3 2.8-2.1 1.7-1.2 2.2-1.5 3.1-2 2.4-1.4 2.7-1.5 2-1 2.2-1 1.8-.6 1.9-.6 2-.5 1.8-.5 4-1 15.5-3.7 3.8-1 1.8-.5 1.8-.6 1.7-.6 3-1.3 1.4-.7 1.3-.7 1-.5.6-.5 1-.8.3-.3.3-.5.4-.5.5-1 .2-1.2v-1.5l-.2-1.6-.4-1.5-.5-1.6-.6-1.6-.7-1.6-.7-1.5-1.6-3-.5-1.3-.4-1.2v-1.2l.3-1 .5-.9.6-.7.2-.2.6-.5.8-.4 1-.3 1-.2h1.2l3.3.8 1 .1h1.7l1.7-.1 1.4-.3 1.3-.2 1.4-.4 1.3-.4 1.2-.4.4-.4v-1l-.1-2.3v-1.2l-.3-1.3-.4-1.3-.5-1.3-.7-1.2-1-1.4-1-1.5-1.3-1.5-1-1.1-2-2.1-2.4-2.3-1.2-1-1.2-1-.8-.5-.6-.5-.3-.3-.4-.6-.2-.5v-1.4l.2-.8.4-1.3 1-2.3.5-1.2 1.1-2.1.4-.9.2-.6.2-.9.1-.8.1-1.5.1-.8.4-2 .7-3.1.3-1.7.2-1.4.1-1.3v-1l-.1-1-.2-.7-.2-.5-.2-.5-.6-.8-.5-.8-.5-.6-.3-.4-.5-.3-.4-.3-.4-.2-.4-.1-.4-.1h-.7l-.4.2-.2.1-.4.4-1.2 1-.7.5-.5.3h-1.1l-.8-.3-.5-.5-.3-.6-.2-.5v-.6l-.1-.6v-.8l.3-1.5.2-1.2.2-.6.6-1.3.5-.8.7-1 1-1.3.7-.8 1-1 1.4-1.2 1.6-1.4 2.3-1.8 4.9-3.8 2.9-2.5 2-1.6.9-.7 1-1 .7-.9.7-1 .6-1 .6-1.4.5-1.6.3-1.2.2-1.4v-2l-.2-1.5-.3-1.3-.5-1.8-.7-1.6-.4-.7-.5-.9-2-2.8-.2-.5-.1-.3h-.1v-.6l.3-1.1.4-1.2.6-1.3.7-1.2.8-1.2.6-1 .7-.8 1.5-1.6 1.1-1 1.2-1 1.1-.8 1.2-.7 1-.5 1-.4 1.8-.5 1.2-.2h1.2l1 .1.8.2.8.2 1 .4 3.9 1.8 2 1.1 2 1.1 1.2.9 2.9 2 1.1.8 1.5 1 2.5 1.3 1.2.8.6.5.7.6 1.2 1.2.6.6.8 1 1.5 1.8 1.6 2.3 1.2 1.8 1.6 2.5.6.9.7.7.6.5.6.3h.3l.3.1"/></defs><g clip-path="url(#pf658e2e330)"><use xlink:href="#mcfc8800d97" y="280.5" fill="#f4f4e2" stroke="#f4f4e2"/></g></g></g></g><defs><clipPath id="pf658e2e330"><path d="M7.2 7.2h264.9v266.1H7.2z"/></clipPath></defs></svg>