<svg xmlns="http://www.w3.org/2000/svg" xmlns:xlink="http://www.w3.org/1999/xlink" width="393.3" height="374" viewBox="0 0 295 280.5"><defs><style>*{stroke-linejoin:round;stroke-linecap:butt}</style></defs><g id="figure_1"><path id="patch_1" fill="none" d="M0 280.5h295V0H0z"/><g id="axes_1"><g id="PatchCollection_1"><defs><path id="m41878d6428" stroke="#f4f4e2" d="m227-244.1.9 5 .5 3 .5 2.5.7 3 .5 1.7.5 1.3.3.9.5 1 .4.6.5.7.6.6.5.4.7.4.9.2.7.1h1.7l1.5-.2 2.6-.5 1.3-.2h2.7l.4.1 1.2.4 1 .4.9.6 1 .9.5.5 1 1.2 1 1.2.7 1 1.2 2.2 2.2 4 2.2 3.6.5 1 .4.9.5 1.2.3 1.2.3 1.2.2 1.1v.7l.1.8v1l-.1.5-.5 1.7-.1.8v2l.2.5.2.7.4.9.3.5.4.7.5.7.7.8.7.8 2 2 .7.9.8 1 4 6 3.3 5 .4.7-.4.2-.2.3-.3.4-.3.6-1.7 3.6-.5 1-.7 1-.6.7-1.2 1.3-.6.5-1 .8-1.1.8-.9.5-1.2.5-.5.2-1.2.4-3 .5-.6.2-.6.2-1 .4-.7.4-.9.6-.3.4-.4.5-.4.5-.3.5-.4 1-.2.7-.5 2.2-.2.7-.3.7-.3.6-.7 1.1-.6.8-1.6 2-.8 1.2-.6.9-.4.9-.2.7v1.4l.2.8.4.8 1.3 2.5.4.8.2.6v.4l.1.3v.5l-.1.4-.3.4-.2.2-.3.2-.3.2-.7.3-1.3.2-2.3.5-3.7 1-1.5.3h-2.8l-3.5-.1h-2l-1.6.2h-.9l-.8.2-2 .5-1.7.5-1 .3-1.7.7-1 .4-1.3.8-1.2.7-1.5 1-1 .8-1.2 1-2.2 2-1 1-1.2 1.2-1.2 1.3-1 1-1.4 2-.8 1.1-1.2 2-1 1.7-1 2-2.4 5-.9 1.9-.9 1.6-1.6 3-1 1.6-.4 1.1-.2.7-.4 1.2-.2 1.2v.6l.1.2.2 1.6.2 2.4.1 5.3.1 2.6.5 7 .2 2.5v2.8l-.1 1.6-.2 1.2-.3 1.5-.2.9-.3.9-.3.7-.4 1-.7 1.3-.7 1-.5.7-.8 1-1.4 1.3-.8.7-2.2 1.8-8.3 6.5-7.3 5.3-2.8 2.2-1.8 1.5-4 3.9-2 1.7-1.7 1.3-1.3.9-1.1.7-1 .5-1.2.6-1.6.6-1 .5-2.5.8-2.2.5-2 .5-2.6.4-2.2.3-6.5.9-1.7.2-1.8.4-.3.1-.1.1v-.3l-.3-.3-.4-.2-.4-.2-1-.3-1-.2-1.6-.2-4.5-.3h-1.2l-2-.4-2-.5-2.2-.6-3.1-.9-2-.7-2-.8-1.3-.6-1.1-.6-1-.6-1-.7-1-1-.9-1-.9-1.1-.4-.7-.7-1.2-.4-1.1L97-35l-.3-1.4-.2-1V-41l.2-1 .2-1 .2-1 .7-2.2 1.4-3.9.4-1 .2-.9.3-1.5.3-2v-2.9l-.2-3.4-.2-1-.3-.8-.4-.7-.2-.3-.3-.3-.4-.3-.4-.2-.4-.1-.4-.1h-2.6l-1.4.3-1 .3-1.6.6-1.4.6-1.5.8-2.6 1.5-1 .4-1 .2-.8.1-3.7.2-.8.2-.7.1-.8.2-.7.4-.9.5-.6.5-.7.8-.5.6-.5.8-.5 1-.5 1.4L71-53l-1.5 5.6-.6 1.9-.5 1.5-.8 1.7L67-41l-1.3 2.3-1 1.8-.9 1.5-1 1.5-1 1.4-1 1.1-1 1-.9.5-.8.6-.9.4-1.3.6-1.1.3-1.2.2h-1l-1.6-.3-1.1-.2-1.1-.4-2.6-1-1.5-.5-1.1-.6-1.9-.9-.8-.4-2-1.2-1.3-1-1.4-1-4.5-3.3-1-.7-1.7-1-.7-.4-.7-.6-.8-1-.5-1.2v-.5l-.1-.4v-1.2l.2-1.3.6-2.2.7-2 .6-1.5.9-2.1.8-1.8 1-1.7.7-1.2 1.1-1.7 3.6-4.9.8-1.2.7-1.1.5-.9.7-1.5.3-1 .3-.7.2-.7.3-1.4.4-2.6.4-4 .1-1.8v-1L41-85l-.3-1.4-.3-1-.3-1-.6-1.2-.8-1.3-.7-.9-.3-.4-.7-.6-.8-.7-.8-.5H35l-.2-.1-.3-.3-.5-.7-.2-.4-.4-.8-.3-.7-.4-1.2-.2-1-.2-1.1-.2-1.2-.4-2.6-.7-8.4-.3-3-.5-3.6-.4-2.9-.5-3-.6-3.4-2.2-10.1-.8-4-1-6-.7-3.6-.2-1.7-.3-3.5-1-14.8-.4-3.8-.3-2.4-.5-2.7-.3-1.4-.3-1.2-.2-.8-.4-.8-.1-.2 7.9-.6 20.1-2 15.7-1.3 8.8-.8 15.3-1.5 9.4-.8 6.5-.7 2.1-.2 3.8-.6 2.4-.5 3.8-.8 3.2-.8 3.8-1 2.5-1 2-.6 1.9-.8 2-.8 2.2-1 2.3-1 2.5-1.4 1.4-.8 2.6-1.5 2.6-1.6 1.3-1 2.3-1.6 1.7-1.3 1.7-1.3 2.9-2.4 4.1-3.6 6-5.6 8.6-8 5.8-5.6 2.9-2.8 2.3-2.4.3.2.7.1 1.1.2h3l1.8.2h1.9l1-.1 1-.2 1.4-.5.8-.2.7-.1 1.6-.1.6-.2.4-.2.3-.3.2-.6.1-1 .2-.5.2-.4.4-.6.5-.4 2.4-2 1.9-1.6 1.1-1 .8-1 1.2-1.8.6-.8.8-.8 1-.8.5-.4.6-.4.7-.3.8-.4.9-.2.8-.2.7-.1 2.8-.3.8-.1.8-.2.8-.2.7-.3.6-.3.1-.2v-.1h.2l.1.5.5 1.6.3 1.4.4 1.9.3 2.3.6 5 .6 4.4"/></defs><g clip-path="url(#p2be5cdfa53)"><use xlink:href="#m41878d6428" y="280.5" fill="#f4f4e2" stroke="#f4f4e2"/></g></g></g></g><defs><clipPath id="p2be5cdfa53"><path d="M7.2 7.2h280.6v266.1H7.2z"/></clipPath></defs></svg>