<svg xmlns="http://www.w3.org/2000/svg" xmlns:xlink="http://www.w3.org/1999/xlink" width="234.8" height="374" viewBox="0 0 176.1 280.5"><defs><style>*{stroke-linejoin:round;stroke-linecap:butt}</style></defs><g id="figure_1"><path id="patch_1" fill="none" d="M0 280.5h176.1V0H0z"/><g id="axes_1"><g id="PatchCollection_1"><defs><path id="m0ccb11f1dd" stroke="#f4f4e2" d="m161.6-194.7-4.8 3.7-6 4.8-3.7 3.3-1.7 1.5-1 1-.7.7-1.4 1.7-1.4 1.7-3 3.6-1 1.3-1.4 1.5-3.1 3.3-.9 1-.5.7-.6.9-.3.7-.3 1v.5l.1.6.2.4.2.4.4.4.4.3.5.3.6.3 1.6.6 1.6.5 3.5.9 1.7.6.6.2.9.5.7.4.5.3 1 .8.5.5.8.8.7 1 .3.7.3 1 .1 1v1.5l-.3 1-.3.8-.4 1-.5.8-.6 1-.7.9-.7.7-1 1-2 1.5-1 1-.6.6-.6.8-.8 1.2-1 1.5-.6 1.3-.5 1-1 2.6-.5 1.2-.6 2-.7 3.4-1 5-.7 4.5-.8 5.9-.7 5.4-.5 5.1-.5 5.5-.1.6-.5.9-.8 2.1-.5 1.2-.3 1.1-2 7.7-.4 1.8-.2 1.6v2l.4 4.3.3 3.6.1 2 .8 5.2.4 2 .3 1.4.4 1.3.3.7.4.8.2.4.7.9.5.4.4.3 1 .6 1.6.5 1.7.4 4.1.5 1 .3.5.2.6.2.4.3.3.3.2.3.2.4.2.6v1.5l-.3 1.1-.3.9-1 2.5-.5 1-.2.8-.2.8v1l-.1 1v1.6l.4 1.5.2 1 1.2 3.4.2 1 .2.7v2.8l-.2.7-.4.6-.4.4-.2.2-.3.1-.4.2-.8.1h-.9l-.7-.2-.3-.2-.2-.2-9.5-7.2-5.4-4.2-2.8-2-1.3-1-2.6-1.6-6.1-3.6-2.3-1.4-2.1-1.4-1-.6-1.9-1.5-1.7-1.5-1.4-1.3-11.9-11.4-1.6-1.7-1.7-1.9-1.3-1.6-1.3-1.9-1.4-2-1-1.7-1.5-3-1-2.2-1-2.6-3.3-8.4-2.5-6.1-.7-1.9-.3-.9-.4-1.7-.3-1.6-.2-1.2-.2-2.1-.5-9.8v-4.5l.2-1.5.2-1 .2-1 .4-1.7.3-1.2.2-.3v-.5l.1-.9.7-2.7.4-1.4 1-3 2.7-6.7.4-1.3.8-2.5.4-1.6.3-1.3.3-2.3.1-1.2v-3l-.2-1.3-.3-2-.4-1.2-.2-.8-.4-1-.4-1-.4-.8-.6-1-.6-1-.6-1-.8-1-1.4-1.5-1-1-.8-.7-1-.8-1.2-.8-1-.6-2-1.1-2.2-1-3-1.2-1.4-.5-2.5-.8-1.5-.3-3-.7-3.2-.6-8-1.2-2-.3-2-.5-4-1.1-.6-.2-5.1-.9-2.4-.4-1.7-.5-.8-.3-.7-.3-.7-.3-.5-.4-.3-.2-.2-.3-.1-.2-.1-.4v-.6l.1-.8.3-1 1.3-2.8.5-1.4.3-1.5.5-3 .4-1.8.2-.6.8-1.7.9-1.6.9-1.3.7-1 .9-1 1-1.2 1.2-1 1.4-1.2 1-.6.4-.3 1-.4.6-.3.7-.2 1.4-.3 1.7-.2 4.2-.3 1.7-.2 1.2-.3 1.9-.5 2.8-1 3.1-1 1.7-.7 1.5-.7 1.5-.8 1-.7 4-2.6 1.6-1 1-.4 1.6-.7 7.4-3.1 7.2-2.7 3-1.3 4-1.8 3.6-1.8 2.7-1.5 1.9-1 4.1-2.4 2.8-1.6 2-1.3 2.2-1.4 2.9-2 .4-.3 4.4-3.5 4.2-3.1 2.4-1.7 2.2-1.4 2.7-1.5 1.7-.9 4.7-2.2 4.3-1.9 3.7-1.5 3.2-1 2.4-.7 1.1-.2 1.2-.3 2-.3 1.3-.2 2.1-.2h3.5l1 .2 1.1.3.8.3.7.4.4.2.5.5.4.4.8 1.1.7 1.6.6 1.8.4 1.5.2 1.4.3 2v5.1l-.3 1.9-.5 2.2-.4 1.3-2.5 8.3-.2 1-.3 1.3-.2 1.3v.7l.1.7.2 1 .3 1.2.5 1.4.9 1.8.5 1 .5 1.5.4 1.8.3 1.3v2.4l-.2 1-.6 1.5-.9 1.3-1 1.2-2.9 3.2-.8 1.1-.6 1-.1.7-.1.7.1.8.4 1 .6.8.8 1 .9.6 1.2.8 1 .4.6.2.7.2.8.2h1.6"/></defs><g clip-path="url(#p36d9536d17)"><use xlink:href="#m0ccb11f1dd" y="280.5" fill="#f4f4e2" stroke="#f4f4e2"/></g></g></g></g><defs><clipPath id="p36d9536d17"><path d="M7.2 7.2h161.7v266.1H7.2z"/></clipPath></defs></svg>