<svg xmlns="http://www.w3.org/2000/svg" xmlns:xlink="http://www.w3.org/1999/xlink" width="310.5" height="374" viewBox="0 0 232.9 280.5"><defs><style>*{stroke-linejoin:round;stroke-linecap:butt}</style></defs><g id="figure_1"><path id="patch_1" fill="none" d="M0 280.5h232.9V0H0z"/><g id="axes_1"><g id="PatchCollection_1"><defs><path id="mfce27125a1" stroke="#f4f4e2" d="m209.2-213.8 2 5.4.6 1.4 1.7 3.6.3.6.2.6v1.4l-.2.5-.5 1.5-.2.6v1l.2.5.7 3 .4 2 .5 2.6.3 2.3.3 2.9.1 1.7.1 2.1v6.8l-.6 7.6-.2 3.7v4l.1 7.8v3.1l-.2 3.1-.3 2.5-.3 1.5-.3 1.2-.8 2.6-.4 1.3-.8 1.8-.9 2-.9 1.6-1.2 2-1.4 2-1.6 2-1.3 1.3-1.3 1.2-1.3 1-1.3 1-1.5.9-2.7 1.5-2.4 1.1-1.7.8-2 .8-1.8.6-1.3.4-1.3.4-2.2.5-4.3.8-2 .5-1.6.7-1.6.8-1.4.9-.9.8-.8.8-.3.4-.7 1-.4 1.2-.3 1.7v1.8l.3 2 .5 2 3 10.6.9 2.5.6 1.6 1.6 3.6 1.9 4.4 1 2.3 1.2 2.3 1 1.6 1.3 2.3 1.5 2 5.2 7 2.2 3.1 3.6 5.4 3 4.7.7 1.2h-.6l-.6.3-1.7 1-2 1.3-2.2 1.7-3.7 3-1.3 1.1-1.2 1.2-2.7 2.9-.7.6-1.3 1-1.7 1-.6.3-1.2.4-1.6.5-1.4.2-.8.1-1.4.1h-2l-1.6-.3-1.9-.5-1.4-.5-1.4-.6-1.3-.7-1.5-.8-1.7-1-3-2-7.5-5-3.5-2.2-4.4-2.7-2.9-1.5-2.1-1-1.9-1-1.8-.6-1.7-.6-1.8-.5-1.5-.3-1.5-.1-2.3-.1-2.3.2-1.3.2-1.2.2-1.3.3-1.3.4-1.6.6-1.6.7-1.2.6-3.6 2-1.5.7-4.4 2-1.8 1-2.4 1.2-2.4 1.6-1.2.8-1.2 1-1.8 1.5-1.7 1.8-1.4 1.7-3 4-1.6 1.7-1 .9-1 .8-1 .6-1 .5-2 .7-1.6.3H74l-1.2-.1-1.3-.2-1.8-.4-1.8-.5-3.6-1-1.4-.4-1.6-.6-1.8-.8-1.1-.7-1.2-.7-1.2-.8-2-1.6-1.3-1.1-.9-.9.1-.5.4-.5L54-32l2-2 1-.8 2.2-1.8 5.5-4.1 1.5-1.2.8-.8.7-1 .3-.4.1-.4v-1l-.2-.8-.3-.6-.5-.6-.7-.7-.6-.5-.6-.5-1.8-1.3-2.5-1.5-2.1-1.1-1-.4-1.3-.5-3.5-1.2-1.8-.7-2.5-1.2-2.2-1.4-1.2-.9-.5-.4-.4-.5-.5-.7-.2-.3-.3-.6-.2-.7-.3-1-.3-1.3-.4-2.2-.3-3-.2-4.4-.2-2-.5-2-.6-1.8-2-4.8-.6-1.4-.8-2.4-.5-2.1-.2-1.6-.1-2V-96l.2-1.6.3-1.7.3-1.4.3-1 .5-1.3.5-1.2.8-1.7 1.9-3.6.9-1.9.7-1.7.3-1.5.1-2.1-.2-2.1-.7-2.1-1-2-1.1-2-1.6-1.7L37-128l-1.6-1.2-1.8-1-2-.8-1.9-.7-3.6-1-1.6-.6-1.6-.7-1.8-.8-3.6-2-.3-.1.1-.2.2-1 .1-2 .1-2.6.1-6 .2-2.6.1-1.8.2-1.4.4-1.8.3-1.2.4-1 .3-.8.4-.7.8-1.2 1.2-1.3 1-1 1.8-2 1.2-1.2.8-.6.8-.6 1.2-.8 1.4-.8 2.3-1.1 2.9-1.2 2.9-1 1.6-.5 3.6-.8 1-.4 1.2-.5 1-.5 1.7-1 1.5-.8 1-.6 1.4-1.2 1.5-1.2 1-1.1 5-5.4.9-.8 1.3-1.2 3-2.2 4.6-3.3 1.4-1 3.5-2.8 1.2-1 2.1-1.4 1.5-.9 1.6-.6.5-.2.7-.2 1.4-.2 1.3-.1H86l4 .1h1.4l1-.1 1-.2 1.7-.5 1.5-.8 1.3-1 1-1.3.6-1 .5-1.2 1.7-4.5.5-1.7.5-1.7.3-1.6.7-5.2.2-1.6.5-1.6 1-1.9 1.2-1.7 1-1.2 1.3-1.2 1.2-1.1 1.8-1.5 1.9-1.4 1.6-1.2 3.4-2.3 9.6-6.3 4.6-3.1 3-2.2 3-2.3 1.8-1.3 8.5-6 5.5 9.4 2.7 4.5 2.7 4.3 2.7 4.2 1.9 2.7 1 1.3 1 1.2 1 1.1.6.6.7.6.8.7 1.3.8.8.5 1.2.5 1 .3 3 .9.8.3.9.4.9.7.8.8 2.4 2.6 1 .8 1 .8 1.4.7 1.1.5 2.5 1 1.9.6 2 .6 5.5 1.5 3 .7 4.3 1 1.8.4.5.2.2.2"/></defs><g clip-path="url(#p1d88690f01)"><use xlink:href="#mfce27125a1" y="280.5" fill="#f4f4e2" stroke="#f4f4e2"/></g></g></g></g><defs><clipPath id="p1d88690f01"><path d="M7.2 7.2h218.5v266.1H7.2z"/></clipPath></defs></svg>