<svg xmlns="http://www.w3.org/2000/svg" xmlns:xlink="http://www.w3.org/1999/xlink" width="495.4" height="246.4" viewBox="0 0 371.5 184.8"><defs><style>*{stroke-linejoin:round;stroke-linecap:butt}</style></defs><g id="figure_1"><path id="patch_1" fill="none" d="M0 184.8h371.5V0H0z"/><g id="axes_1"><g id="PatchCollection_1"><defs><path id="m733c8001d3" stroke="#0c1321" d="m261.3-167.5 2.2.8 1 .4.7.2.3.1 1.2.4h.3l.3.2h.3l.4.3.4.2.4.3.3.2.3.2.2.2.2.2v.1l.5.5.4.5.4.4v.1l.1.1v.4l.1.2v.6l.2.1.2.3.7.9.5.6.3.3.2.4.2.5.2.4.5 1.1.3.6v.3l.3.5.2.3.1.2.2.2v.1l.3.3.2.1.2.1.2.1.3.1.4.1h.3l.3.1h3.4l.3.2.6.2h.2l.2.1h.9v.1l.3.1.2.2v.1l.1.1v.9l-.2.1v.2h-.2l-.2.3-.3.1h-.1l-.6.4h-.1v.8l.1.4v.2l.2.3v.3l.2.3.1.3.1.1.2.3.1.1.2.2.2.2.3.1h1.1l.3-.2.3-.2.2-.1 1-.6.2-.1.2-.1.2-.1h.2l.2-.1h.8l.6.2h.4l.5.1h.3l.3.2.8.3h.4l.4.2h1.4l1-.2h.5l.2-.1h3l.3.2.2.1.9.6.3.2h.3l.4.1h.3l.2-.1h.1l.2-.2.3-.1.2-.2.2-.2.3-.3.2-.2.2-.2.2-.2.1-.2.2-.3.2-.3.4-.7.1-.2.2-.3.1-.2.2-.2.4-.3.2-.2.1-.2h.5l.1.2.2.2.2.4v.2l.2.1v.1l.2.1.2.2h.2v.1h.2l.2.1h.5l.1.1h.1l.2.2v1.7l-.1.2v.2l-.3.9v.2l-.2.3v.8l.1.2v.2l.2.2.1.2.6 1 .2.3.1.2.1.1v.3l.1.1v.9l-.3 1v.2l-.1.2v.4l.2.2h.2l.1.1h.2l1 .3h.4l.3.2.3.1.3.1.4.3.4.2.2.2.4.3.3.2.4.4.2.3.4.5.2.3.2.3.1.1h.2l.3-.4.2-.3.2-.2v-.1l.2-.2v-.2l.2-.4v-.2l.2-.2.1-.1v-.1h.3v-.1h.3l.2-.1h2.1l.2-.1h.2l.2-.1.2-.1.4-.2.6-.3h.2l.4-.2.8-.2.5-.2.5-.2.4-.1.2-.2h.2l.1-.2.1-.2v-.8l.1-.2.2-.2.2-.3.2-.2 1.1-1 .7-.8.2-.2.4-.5.4-.5.4-.4.1-.2.3-.3.5-.4.2-.2.2-.2v-.2l.1-.2.1-.3.2-.7v-.2l.1-.1.1-.2h.1v-.2h.2l.2-.1h.9l.7.1h.7l.3-.2.5-.4.3-.2.4-.2.3-.2h.2l.1-.1h.9l.3.1 1.6.7.6.3.5.2.4.1.3.1.3.1.8.2h.5l.4.1h.2l.2.1.1.1.2.1h.1l.1.2.7.8.6.7.5.6.7 1 .6.8.2.3.4.6.2.4.8 1.6.4.8v.8l-.1.3-.2.8-.4 1.5v.7l-.2.6v1.6l-.1.6v1.7l-.2.7v.3l-.2.2v.2l-.2.1-.1.2-.2.1-.2.1-.2.1h-1l-.2.1-.2.1-.2.2-.5.5-.2.2-.2.1-.3.2-.3.1-1 .5h-.2l-.8.4-.2.1-.2.1-.4.3-.2.2-.2.1-.2.3-.2.2-.2.3-.1.3v.2l.4.3.2.1.1.1.2.2.1.2.1.2v.1l.1.2v.9l-.2.5v.6h.1v.1l.2.2.4.4.2.3.2.2.2.2.4.2.3.2.3.2 1 .5.7.3.3.2.1.1.2.2h.1l.1.3.1.1v.2l.2.2.2 1v.2l.2.3.1.2.3.3.8 1 .4.5.3.3.2.2v.5l-.2.2-.1.1-.2.2-.1.1-.3.2-.1.2-.5.3-.4.2-.9.5-.3.2-.3.2-.5.3-.5.4-.3.3-.2.4-.2.3-.2.3v.2l-.2.4-.1.4-.1.6-.1.5-.1 1v.4l-.1.3v.3l-.3.8-.1.4v.4l-.1.6v3.1l.1.3v.9l-.2.9v1.1l.1.2.1.2.2.3.4 1v.3l.2.2v.6l.1.2v.6l-.2.3-.2.3-.2.4-.3.3-.2.3-1.1 1.3-.4.5-.3.4-.4.6-.2.3-.1.3-.2.3v.3l-.2.3-.1.4-.2.4v.4l-.1.4v3l-.2.2-.4.2-.1.1-.2.2-.2.3-.2.3-.2.2-.1.3v.1l-.2.1-.2.2-.2.2h-.2l-.2.1h-.9l-.3-.2-.1-.2-.4-.2-.4-.5-.7-.7-.5-.4-.4-.4-.3-.2-.2-.2-.3-.2-.2-.2h-.3l-.3-.1h-.8l-.2.2-.8.3-.4.1h-.3l-.3.1h-.5l-.2-.1-.3-.1-.3-.1h-.9l-.2.1-.2.1-.3.2-.4.2-.3.3-1 .7-.3.2-.2.2h-.5l-.1-.1v.3l-.1 1.7v.5l-.1.3v.3l-.1.2-.1.3-.1.3-.2.2-.2.3-.2.3-1.2 1.4-1.5 1.8-.3.3-.2.2-.1.1-.3.3-.4.2-.3.1-.4.2-.5.1-.4.1-.5.1h-2l-.5-.1-.5-.1-.5-.2-1.3-.4h-.5l-.4-.2h-1.3l-.2.2v.1l-.2.3v1.9h-.1l-.1.2h-.1l-.2.1-.3.1-.2.1h-.4l-.4.1-1 .2-.7.1-.5.1-.7.2-.4.1-.7.2-2.4.8-.5.2-.7.2h-.3l-.6.2-.8.1-1 .2-.7.2-.7.2h-.4l-.8.3-.8.3-.7.3-.5.2-.4.2-2 1.5-.4.3-.3.2-.4.2-.5.3-.3.1-.4.2h-.5l-.3.2h-.3l-.6.2h-.6l-.5.1h-3l-.7-.1h-.9l-.3.1-.2.1h-.3l-.4.2-.3.1-.3.2-.4.1-.5.3-.3.2-.3.2-.5.3-.5.4-.4.3-.4.3-.3.1-.2.1h-.2l-.2.1h-1.4l-.2.1-.5.2-.6.1-.8.2-.3.2h-.3l-.1.2v.9l.1.2.2.3v.1l.2.3.2.4.8 1.2.3.4v.2l.2.3.2.4v.9l-.2.2h-.7l-.1-.2-.2-.2v-.2l-.3-.4-.1-.3-.5-1-.2-.5-.2-.5-.2-.3v-.1l-.3-.2-.1-.3-.3-.2-.2-.1-.2-.2h-.2l-.1-.2h-.2l-.3-.1h-3.8l-.4.1-.4.2-.4.1-.3.2-.3.1-.6.3-.3.2-.4.3-.5.4-.5.5-.6.5-.6.5-.2.3-.6.6-.8.8-.3.2-.1.2h-.2l-.1.2h-.2l-.2.1-.4.1-.2.1h-.3v-.1l-.1-.2v-1.4l-.1-.2-.2-.4-.1-.2-.2-.4-.1-.3-.1-.4v-1l.1-.3.3-.6v-.2l.1-.2v-.7l-.1-.3-.1-.3-.2-.2-.2-.1-.3-.3-.3-.3-.3-.3-.3-.3-.2-.4-.1-.2-.1-.3-.2-.5v-.3l-.2-.4-.2-.2-.1-.2-.2-.2h-.1l-.1-.1h-.2l-.4.2h-.1l-.2.1h-.6l-.4-.2h-1.1l-.6.3-.4.2h-.3l-.6.1-.3.1h-.2l-.2.1-.9.5-.4.2h-.3l-.3.3-.3.2-.2.2-.2.3-.1.1-.2.2-.2.3v.2l-.2.2v.5l.1.3.1.2.2.4.1.3v.4l.2.8v.9l-.2.2v.2h-.2v.1l-.3.2h-.2l-.2.2h-.3l-.6.2h-.5l-.2-.1-.2-.2-.2-.1-.3-.2-.6-.5-.3-.2-.2-.1-.2-.2h-.2l-.2-.1-.5-.2h-.2l-.8-.4-.3-.1-.4-.2-.3-.1-.3-.1-.2-.2-.4-.2-1-.7-.5-.2-.3-.3-.4-.1-.5-.2h-.1l-.3-.3-.3-.2-.6-.6-.3-.2-.2-.2-.3-.2h-.2l-.2-.1h-1l-.3.2-.4.1-.3.2-.4.1-.3.3-.7.5-.4.3-.3.2-.3.3-.8 1v.1l-.1.3v1.5l-.1 1v2.1l.1.5.3 1.8v.5l.1.7v.5l.2.4v.4l.2.4.1.5.2.4.2.4.1.4.2.4.2.3.2.3.1.3.3.4.3.3.4.3 1 1 .3.3.3.3.2.3.2.3.1.3v.7l-.1.2-.2.4-.2.3-.2.3-.2.2-.2.3h-.1l-.4.3-.3.2-1.1.5-.5.2-.9.4-1.3.6-.6.2-.7.3h-.4l-.4.2h-1.2l-.2-.1-.1-.1-.1-.1-.4-.6-.2-.1-.1-.1-.2-.1h-.2v-.1h-1.4l-.3-.1-.2-.1-.7-.3-.2-.1h-1.1l-.8.2h-.2l-.5.4h-.2l-.2.2h-.8l-.2-.2-.2-.2-.1-.2-.1-.3-.2-.5-.1-.3-.1-.2-.1-.3-.2-.2-.1-.1-.2-.1-.1-.1h-.2l-.1-.1h-2.1l-.6-.2H203v.1h-.3l-.2.2-.3.2-.4.2-.3.2-.8.3-.3.2-.4.3-1 .6-.5.3-.6.3-.4.3h-.2l-.4.2-.7.3-.6.2-.5.1-.4.1-1.2.2-.5.2h-.1v.5l-.2 1.4v1.5l.1.3.1.3.3.9.1.5.1.6.1.7.1.7v.6l.1.3v1.4l.1.5-2 .8-4.1 1.7-1 .4-2.5 1.1-1.2.5-1.1.4-.9.4-.6.2h-.4l-.3.2h-.3l-.4.1-.5.1h-.3l-.2.1-.3.1-.4.2-.8.5-1 .6-.7.4-.6.2-.7.4-.4.1-.4.1-.5.1-.4.1h-1.1l-1.4-.5-.3-.2-.7-.2-.1-.1h-.7v-.1l.1-.2v-.4l.1-.3v-.3l.1-.5v-2.7l-.1-.4v-.2l-.2-.2-.1-.2h-.2l-.2-.1h-.8l-1.3.4-1 .2h-.4l-.2.1-.1.1-.2.1-.2.1-.6.5-.3.1-.3.2-.4.1H160l-.7-.2H158l-.2.1-.2.1-.1.2h-.1l-.2.2v.2l-.2.1-.5 1-.2.3-.4.5-.2.4h-.1l-.1.2h-.2l-.2.1h-.1l-.1-.1-.2-.2v-.1l-.2-.2-.2-.3v-.4l-.1-.1v-1l.1-.3.1-.3.2-.7.1-.4v-.3l.1-.3v-3.3l.1-.7v-.3l.2-.3v-.2l.2-.3.1-.1.2-.2.2-.2.2-.2.2-.2.3-.2 1-.7.2-.2.2-.2.1-.2.1-.2v-.9l-.2-.2v-.1l-.3-.3-.2-.2-.2-.1-.2-.2-.2-.2-.2-.3-.2-.3-.1-.4-.3-.5v-.2h-.8l-.5.3-.5.2-.6.2-1.5.6-.5.2-.4.1-.4.1-.4.1h-.3l-.2.1h-.6l-.1-.1h-.1l-.3-.2-.1-.1-.2-.2-.7-.7-.3-.3-.3-.2-.2-.2-.3-.1-.3-.2h-.2l-.4-.1h-.1l-.3-.1h-2l-.6.1-.7.1h-.3l-.6.2h-1.5l-.2-.1-.2-.2h-.1l-.2-.3-.3-.2-.7-1-.2-.2-.3-.2-.3-.2-.2-.2h-.5l-.3-.1h-1.7l-1.5.4h-.5l-.5.2h-2.4l-.4-.1h-1l-1.9-.2-.6-.1h-.3l-.1-.1-.2.1-.2.2-.1.2-.1.1-.1.3-.3.6-.2.2v.1l-.2.2-.7.6-.2-.2-.2-.1h-.2l-.2-.2h-.3l-.6-.2-.6-.2h-.2l-.2-.1h-.4l-.8-.1h-.2l-.3-.1-.9-.2h-1v.2l-.1.1v.2l-.1.2v.9l-.1.2-.1.1v.1l-.2.2-.1.2h-.1l-.2.2h-.2l-.6.3h-.3l-.4.2-.3.2-.5.4-.5.3-.4.4-.4.3v.1l-.2.2v.1l-.1.1-.1.3v.2l-.1.7v.4l-.1.2-.1.2-.1.2-.2.3-.3.4-.3.4-.3.3-.2.3-.3.2-.2.1-.1.1h-.1l-.2.2h-.4l-.2.1h-.8l-.2-.1-.2-.1-.2-.2h-.1l-.3-.3-.7-.7-.2-.2-.2-.3-.2-.2-.2-.3-.1-.3-.1-.2.7-.3.3-.2.3-.2.1-.1.2-.2.2-.2.2-.3.2-.5.2-.3v-.2l.2-.4.1-.2v-1.7l-.1-.3-.1-1v-.6l.2-.3.1-.5.4-.9v-.2l.1-.4v-1l-.1-.2-.2-.2-.1-.2-.3-.2h-.3l-.3-.2h-2l-.4.1-.4.1-1 .3h-.4l-.4.1h-.6l-.3.1h-.5l-.2.1h-1.2l-.3.1h-1.2l-.2-.1-.2-.1-.1-.1-.3-.2v-.2l-.2-.1v-.1l-.1-.3-.3-.8-.2-.5-.2-.4-.4-.9-.2-.5-.2-.2v-.4l-.2-.3v-.2l-.2-.2-.2-.3-.3-.4-.4-.6-.3-.3-.4-.4-.8-.8-1-1.1-.4-.3-.1-.3-.2-.2v-.2l-.5-.8-.4-.5-.2-.4-.2-.2-.2-.2-.2-.3-.3-.2-.2-.2-.5-.4-.4-.3-.2-.3-.5-.5-.1-.2h-.8l-.5.2h-.2l-.2.1-.7.2-.9.1-.7.1H81l-.3-.1h-.2l-.3-.1-.3-.1h-.2l-.1-.2h-.1l-.2-.1-.2-.1-.1-.2-.6-.5h-.1v-.1h-.2l-.2-.1h-.1v.1h-.1v-.6l.1-.2.1-.1.7-.7.1-.2v-.1l.2-.2V-57l-.1-.3-1-3v-.2l-.2-.3v-.6l-.1-.2v-.5l.1-.1v-.1l.2-.2.7-.5.2-.2.4-.4.1-.2.3-.2h.1l.2-.2h.2l-.1-.1-.4-.3-.5-.5-.8-.6-.5-.5-.4-.2-.4-.3-.9-.6-.3-.2-.4-.1-.3-.2-.5-.2-.6-.2-.4-.1-.8-.2-.7-.3h-.7L71-69h-5l-.3-.1-.6-.1h-.3l-.2-.1-.8-.3h-.4l-.2-.1h-.7l-.3-.1h-.1l-.2-.1-.2-.2-.2-.2-.1-.3v-.2l-.1-.3v-.3l-.1-.9v-.5l-.2-.4-.2-1v-1.3l.2-.4v-.3l.4-1 .3-.6.2-.8.2-.6.1-.6.1-.5v-2l-.2-.5-.2-.3-.1-.3-.2-.3-.3-.4-.1-.2H61l-.1-.2-.3-.2-1-.6-.1-.2h-.2l-.3-.4-.3-.3v-.2l-.3-.3-.2-.3-.4-.4-.7-.7-.3-.3-1-.8-.3-.2-.3-.3-.2-.1-.2-.2h-.2l-.2-.2-.4-.1-.7-.3v.1l-.8 1-.5.5-.7.8-.2.3-.4.4-.3.5-.2.3-.2.3-.3.5-.3.5-.5 1-.5 1-.1.3-.3.3-.2.4-.2.3-.3.3-.2.3-.3.4-.4.3-1.3 1.2-.7.6-.3.3-.3.3-.3.3-.2.4-.3.3-.2.4-.2.4-.1.3-.5 1v.3l-.2.2-.1.3-.3.3-.3.3-.3.3-.3.2-.1.1-.4.2-.2.2h-.3l-.4.2-.4.2h-.4l-.2.2h-1.3l-.4-.2-.4-.1-.5-.2-.4-.2-.4-.2-1.2-.6-.3-.1-.4-.2-.3-.1-.4-.1h-1l-1 .2h-1.3l-.1-.1-.2-.1v-.1l-.2-.3-.4-.6-.2-.2-.2-.3-.6-.8-.2-.3-.2-.3-.2-.3v-.4l-.2-.3v-.3l-.3-1.1-.1-.7-.1-.4-.2-.5-.1-.5-.2-.3-.1-.4-.3-.4-.2-.5-.6-1v-.1l-.2-.2v-.4l-.1-.1v-.4l.2-.1.3.3.2.1.2.1h.4l.1-.1.1-.2h.1l.2-.4v-.2l.1-.3.1-.3v-.2l.2-.6.2-1.3v-2.5l-.2-.2v-.2l-.2-.4-.2-.2-.1-.2-.3-.2-.1-.1-.2-.1-.6-.2-.2-.2-.2-.1-.2-.2-.1-.1v-.3l.1-.4 1-2v-.4l.1-.3.1-.4v-.4l.1-.3v-2.9l.4-1.3.1-.6v-.3l.1-.4v-1l.1-.2v-.3l.2-.8v-1.2l-.1-.3-.2-.4-.2-.3-.4-.5-.1-.3-.2-.3-.1-.4-.1-.4-.1-.4v-.3l-.1-.3v-.4l.1-.3.1-.2.2-.1.2-.2.3-.1.2-.1h1.1l.1-.1.1-.1 1-.6.3-.2.3-.1.3-.2h.5l.4-.2h.5l.2-.1h.2v-.1l.1-.1.1-.2v-.4l-.1-.1v-.1l-.2-.2h-.1l-.3-.2H29l-.3.1-.2.1-.3.2-.3.1-1.3.8h-.1v-.2l-.2-.1v-.7l.1-.2.2-.3.7-.9.6-.8 1-1.4.3-.2.2-.3.2-.1.1-.1h.5l.1.2.1.2.2.3.1.1v.1l.2.1h.1l.2.1.2.1H33l.2-.1.6-.2.5-.2 1-.5.7-.2.5-.2h.3l.5-.2h1.1v.1h.1v-.3l.2-.2.4-.8.7-1.2.1-.4.2-.3.1-.2.2-.5.1-.8v-.3l.2-.3.1-.2.1-.2.1-.2.2-.2v-.1h.2l.1-.2h.3l.2-.1h.6l.3.1.2.1.2.1.4.3.2.1.2.2h.3l.2.1h.6l.2-.2.3-.2h.1l.2-.2v-.2l-.2-.2v-.2h.7l.3.2.3.2.3.2.3.2.2.1.2.2.2.1.6.7.2.2.3.2.3.2.1.1.4.2 1 .6.5.3h.1v.1l.1.2v.2l.4.7.2.5.6 1.2.2.6.3.7.6 1.5.2.5.1.2.1.2.1.2.2.3.2.2.2.2h.3l.4.1h.8l2.6-.2h4.1l.4.1.4.1.5.2h.2l.4.3.4.2.2.2.4.2.4.4.4.3 1 .8.5.4.3.3.3.2.3.3.6.3.5.3 1 .6.4.2.3.2.3.2.2.2.4.3.4.3.4.5.4.4.3.3 1 1.3.1.2.4.3.1.1.2.2.3.1.2.2.3.1.3.1h.1l.2-.2.7-.8 1.8-2 .9-1 .4-.5.4-.4.3-.2.3-.2.4-.2h2.5l.8-.1h1l.9.2.3.2.5.1.6.2.4.2.4.2.6.2.3.2.2.1.7.5.3.1.2.1.4.1h.6l.4-.2h.3l.2-.2.4-.2.3-.1 1.2-.7.7-.4.8-.4 1-.5.4-.4.2-.2.1-.1.2-.3v-.1l.1-.1v-.5l-.1-.3-.3-.5-.2-.2v-.3l-.1-.1v-1l.1-.2.2-.3.5-1 .1-.3v-.3l.1-.2v-1l.1-.4.1-.1v-.3h.1v-.3l.1-.2v-.6l.3-1v-.3l.1-.1.1-.1.2-.1h.7l.1-.1.2-.3h.2l.5.2.2.1h.1l.4.1.2.1h.2l.2.3.3.5.2.2.2.3.2.2h1.5l.6.3.4.1h.3v-.9l-.4-.8v-.3l-.2-.3v-1.8l.2-.6v-.8h-.2l-.2.1-.4.3-.2.1-.4.2h-.2l-.2.1h-.5l-.2-.2v-.2h-.1v-1.4l.2-.1.1-.2.7-.5.3-.3.3-.2.8-.9.3-.2.1-.1.2-.1.1-.1h.1l.2-.1h1l.2.3.3.2.2.3.2.3.3.4.2.4.2.5.4.9 1 2.3.4.9.2.4.2.5.3.4.2.4.3.4.3.4.3.2.4.2h.2l.4.1h.7l.3-.1.2-.1h2.6l.5-.1h.4l.3-.2.3-.2.2-.2.2-.4v-.4l.1-.4v-2.5l.1-.7v-.8l.1-.3.1-.4.2-.3.2-.2.4-.3.3-.1.4-.2.5-.2h.3l.3-.1.7-.2 1.6-.4.4-.1.5-.1.4-.2h.2l1-.5.2-.1.2-.1h.3l.3-.1 1.4-.1 1.5-.1 2-.2 1.2-.2 3.5-.4.4-.3 2-1.3 1-.6 1-.7.7-.5.5-.5.4-.3.7-.6 1.1-1 2.1-1.8.8-.6.3-.3.4-.3.4-.3.3-.3.4-.2.3-.2.3-.1.2-.1h1.4l.2.1.2.1.5.3.3.1.3.1.3.1h.4l.4.1h1.2l.5.1h.6l.2-.1.6-.2h1.3l.3-.1.4-.2.3-.1.3-.2.3-.3.4-.3.3-.3.2-.3.1-.2.1-.1v-.2h.1l.4.3.4.3.1.2.3.2.2.3.1.3.1.4v.6l-.1.3-.2.4-.2.4-.2.5-.6 1.3-.2.4-.2.4-.1.4-.1.3v.6l.1.3.1.2.2.1.2.1h.7l.2-.2.4-.3.2-.1h.5v.2l.1.1v1l.2.6v.4l.2.3.2.2.2.3.2.1.2.2.3.1.2.2.5.3.3.4.2.2.2.1.2.3.1.3.1.2v.6l-.2.2h-.1l-.1.1.3.1 1.4.6 1 .5.6.1.7.3h1.3l.2-.1.3-.1.2-.1.2-.2.3-.2.2-.2.3-.3.2-.2.1-.3v-.3l.1-.2v-.9l-.1-.3-.2-.3-.1-.3-.4-.6-.2-.3-.1-.3v-.4l.1-.3.2-.2.3-.1.2-.1h1.3l.2-.1h.2l.3-.2.6-.2.6-.3.3-.2.8-.4.4-.3 1.2-.8 1-.6.5-.3.5-.3.3-.2.3-.1.3-.1h1l.2.2.2.2.2.2.5.4v.1l.2.2h.3v-.1l.2-.3.2-.2v-.2h.2l.2-.2.1-.2h.3l.2-.1h.1l.2-.1h1.6l.2-.2h.2l.2-.2.1-.1.2-.2.6-1 .5-.8.2-.3.2-.3.1-.4.1-.3v-.3l.1-.3v-.6l.1-.2v-.1l.2-.3.2-.2.2-.2.4-.3.3-.2.5-.4.5-.3.5-.3.3-.1.2-.1.2-.1.6-.2.3-.1.3-.2.3-.2.9-.4h.2v.2l.2.4v.3l.1.3.1.6.1.5.1.4.3 1.1.1.4v.5l.1.4v1.3l-.3.8v1l-.1.6v1l.2.2.1.3.2.2.1.2.3.4.2.2.2.2.2.1.3.2.3.1h1.4l.3-.2 2-.5.7-.2h.5l.1-.1h1.5l.7.2h.4l.2.1h2l.3-.2h.3l.3-.2.3-.2.2-.1.2-.2.3-.2.2-.2.3-.1.5-.2.2-.1.2-.2.2-.2.2-.1.1-.2.2-.2.2-.3v-.2l.3-.5.2-.3.1-.3.2-.2.2-.2.2-.1.4-.3.2-.1.2-.2v-.1l.1-.2.2-.5v-.2l.1-.1.1-.1.3-.2.1-.1.1-.2v-.2l.1-.1v-.7h-.1l-.1-.2-.1-.2-.2-.1-.1-.1h-.1l-.2-.2-.4-.1h-.2l-.2-.2-.2-.2h-.2l-.2-.3-.1-.2-.1-.2-.1-.1-.2-.2-.5-1.2-.2-.5-.2-.3-.4-.7-.2-.4-.2-.4-.2-.5-.2-.3-.2-.3-.4-.7-.2-.3v-.2l-.1-.2v-1.5l.1-.3v-.2l.1-.1.1-.2.4-.7.2-.2.2-.3.2-.2.2-.3.2-.2.1-.3.2-.4.1-.3.4-1 .1-.4.2-.6v-.3l.1-.3v-.4l.1-.5v-1.4l-.1-.2v-.3l-.2-.3-.3-1-.8-2.4v-.3h.2l1.3.6.4.1.3.2 1 .6 1.1.6.6.3.3.2.4.2.4.1.2.1 1.3.4h.6l.3.1h1.7l.2-.1h.2l.2-.2.5-.4.3-.1h.4l.5.1h.3l1.4.1h1.2l.2.2.2.1.1.1.4.5.2.1.2.1h.4l.1.3.1 1.4h.1v.1h.2l.5-.1.4-.1h.1v-.4l-.3-.2.1-.1h.7l.6.3h.3l.3-.2.5-.3.2-.2.5-.3.3-.3 1.6-1.2.2-.1.2-.1h.3v.1l.2.1v.2l.3.6v.2l.2.2v.1l.2.2.1.2h.1l.1.2h.2l.2.1h.5l.2-.1.1-.1.1-.1.2-.1v-.1l.2-.2.1-.1.2-.3.2-.3.2-.3.6-.8.2-.3.1-.2.2-.3.2-.3v-.2l.1-.3v-.3l-.1-1.2v-.5l.2-.2.2-.2h.3l.3-.1h.9l.6.2.8.2h.6l.1-.1.5-.3v-.1h.2l.2-.4.1-.1.1-.1.1-.1.2-.1.8-.5 1-.6.3-.1.2-.1.3-.1.2-.1h.2l.4-.1h1.9l.3.1.4.2.3.1.2.2h.1l.4.5.2.2.3.1.2.1.2.1h.2l.3.1h.9l.2.1h.3l.3.2.5.1.3.2"/></defs><g clip-path="url(#pa57ddda8d4)"><use xlink:href="#m733c8001d3" y="184.8" fill="#0c1321" stroke="#0c1321"/></g></g></g></g><defs><clipPath id="pa57ddda8d4"><path d="M7.2 7.2h357.1v170.4H7.2z"/></clipPath></defs></svg>