<svg xmlns="http://www.w3.org/2000/svg" xmlns:xlink="http://www.w3.org/1999/xlink" width="473.1" height="374" viewBox="0 0 354.8 280.5"><defs><style>*{stroke-linejoin:round;stroke-linecap:butt}</style></defs><g id="figure_1"><path id="patch_1" fill="none" d="M0 280.5h354.8V0H0z"/><g id="axes_1"><g id="PatchCollection_1"><defs><path id="m62a733016c" stroke="#0c1321" d="m325.2-252.4-.6.3-.7.4-.7.4-.6.4-.4.4-.3.2-.4.3-.2.2-.3.3-.2.3-.3.3-.1.4-.1.2v.2l-.1.3v1.2l.1.3.2.5.2.8.4 1.3 1.3 3.6.7 2 .4 1.1.2.7.1.5.2.5v.4l.1.4v2.7l.1.5.1.4.2.7.2.7.2.3.3.9.4.9.5 1 .2.3.2.4.2.3.6.9.4.6.4.6.1.3.2.3.2.6.2.7.2.5v.5l.2.6v.2l.6 2.5.2.5.1.3.2.3.3.4 1.5 1.8-.2.1h-.3l-.3.1h-1.4l-.4-.2-.3-.2-.3-.1-.7-.5-.3-.2-1-.5-.7-.3-.4-.2h-.3l-.3-.2h-.4l-.3-.1h-1.9l-.3.2-.9.4-1 .3-1 .4-.5.3-.9.3-2.2.6-.3.1-.3.1-.4.2-.3.2-.4.2-.4.2-.3.3-.3.2-.2.1-.1.3-.1.1-.2.3v.4l-.1.3-.1.3-.1 1.2v.2l-.2.3v.2l-.2.2-.3.3-.4.4-.1.1-.2.1-.2.2h-.2l-1.3.5-.3.1-.5.1-1.4.2-1 .2-.9.1-.3.1-.2.1-.2.2h-.2l-.3.3-.4.4-.3.3-2.5 2-.8.5-.6.4-.9.6-1.4.8-.7.4-.7.4-1.2.9-.4.2-.4.3-.6.3-.6.3-.5.2h-.4l-.2.1h-.5l-.2-.1-.1-.1v-.1l-.2-.2v-.2l-.1-.3v-1.2l.1-.5.3-1.3v-.5l.1-.4v-1l-.1-.3v-.1l-.2-.3v-.1l-.1-.1-.2-.2-.3-.2h-.3l-.2-.2h-.3l-.6-.1-.5-.1h-.3l-.1.1-.2.2h-.3l-.3-.1h-.2l-.1-.1h-.2l-.2.1-.2.3h-.1l-.2.1h-.2l.1.1v.3l.1.2.1.5.1.6v4.1l-.2 1.1-.3 2v2.9l.1.5v.3l.2.6.2.4.1.4.7 1.8.1.4.2.5.2.5.2.9v.6l.2.8v.8l.1.6v3.2l-.4 2.6v1l-.1 1v2.1l.2.7.2 1 .4 1.8.2.6v.6l.1.5v1.4l-.2 1.5v.4l-.1.5v.7l.1.5v.3l.3.8.2.7.7 1.9.3.8.3.7.3.5.1.3.3.4.2.2.2.2.3.2.3.2.6.4 1.3.7.4.2.5.4.4.3.2.1.3.3.6.5 1 1.2.2.1v.1l-.2.3-.5.4-.6.3-.5.3-.8.5-.6.3-1.3.6-.6.3-.3.2-.6.4-.3.2-.5.3-.5.4-.5.4-.4.4-.3.3-.1.2-.2.3-.4.7-.3.4-.3.5-.2.2-.1.1-.2.1-.2.1-.3.2-.7.3-.7.3-.4.2h-.2l-1 .2h-.1l-.3.2h-.3l-.4.2-.3.2-.5.5-.3.1-.3.1-.3.1h-.7l-.3-.2-.2-.1-.6-.5-.3-.2-.3-.1-.1-.1-.3-.1h-.3l-.4-.1h-.7l-.3.1-.5.2-.5.1-.3.2-.6.3-.4.2-1.1.7-.6.3-.3.3-.2.2-.3.2-.2.2-.2.2-.3.3-.2.3-.4.5-.3.5-1 1.6-.3.4-.4.5-.2.3-.3.3-.3.2-.2.2h-1.4l-.2-.2-.3-.2-.3-.1-.4-.3-.6-.5-.7-.7-1.4-1.4-.7-.5-.3-.3-.2-.1h-.2l-1.3 1-1.6 1.2-1 .9-.5.4-.2.2-.2.3-.4.4-.4.5-.8 1-.3.3-.3.4-.9.9-.2.2-.1.2-.2.3v.2l-.1.2v.5l.2.2h.1l.1.1.2.1.4.2h.5l.9.3.5.2h.1l.2.2h.2l.2.2.2.2.2.1.2.2.2.3v.2l.1.2v1.2l-.2.3-.1.2-.2.3-.2.2-.2.2-.2.2-.6.5-.3.3-.1.1-.2.2-.2.3-.2.4-.2.4-.2.3-.2.6-.1.4-.2.5-.2 1-.3 1.3-.2 1.2-.2 1.6-.2 1.4-.1 1.4-.1 1.5v.1l-.2.3-.2.5-.1.4-.1.3-.6 2v.5l-.1.4v.6l.1 1.1v1l.1.6.2 1.3.1.6.1.3.1.4v.2l.2.2v.1l.2.2.2.2.4.2.4.1.4.1 1.1.2h.3l.1.1h.2l.1.2.2.1v1l-.1.2-.3.7-.1.3v.2l-.1.2v1.4l.1.3.3.8v.3l.1.2v.9l-.1.2-.1.1-.2.1h-.9v1.8l.1.2.2.3v.3l.2.2.2.3.1.2.3.3.6.7.3.4.4.5v.2l.2.3.1.2v.2l.1.1v.4l-.1.2-.2.2v.1l-.3.2-.2.2-.4.3-.3.2-.5.2-1 .5-.4.3h-.2l-.1.2-.2.1-.1.2-.2.2v.2h-.1v1.1l.3.9.1.7v.7l.1.4v.2h.2l.1.2.1.3.1.2v.3l.3 1v.2l.1.2.1.1.1.2h.1v.1l.3.1h2l.3.2.3.1.3.2.7.6.3.2.4.2.5.3.1.1.2.1.2.2.1.2.2.2v.1l.1.2.3.5.2.3v.2l.2.2.2.2.2.2.3.3.3.2.3.2.6.3h.1l.2.2.2.1.1.2v.2l.2.1v1.6l-.1.4-.2.5-.5 1.7-.2.4v.4l-.1.6v1.5h-.1l-.2.5-.1.3-.1.3-.1.4v.9l.1.4v.3l.2.3.5 1 .2.5v.3l.1.3.2.9v.4l.1.5v1.7l-.2.3-.2.3-.2.3-.3.3-.3.2-.3.3-.3.1-.4.3-.3.2-.3.1-.5.2-.7.2-1.3.4-.8.2-.5.2-.4.2-.5.2-.3.2-.3.2-.3.2-.3.3-.3.2-.2.3-.2.3-.2.3-.1.2-.1.4v1.7l.5 1.6v1.7l-.2.3v.2l-.2.4-.6 1-.3.5-.2.5-.2.4-.1.5-.2.6v1.8l.1.2.1.3.2.4.2.2.2.3.6.9.1.1-.9.5-.3.2-.5.3-.6.3-.2.2-.4.4-.3.3-.2.3-.6.9-.3.4v.3l-.4.8-.2.4-.1.5-.1.3-.2.9-.1.3-.3.8-.2.8v.4l-.2.3-.1.4-.2.3-.2.2-.2.2-.4.4-.9.7-.4.3-.2.1-.3.1h-.2l-.1.1h-.2l-.3.1h-.4l-.2-.1-.3-.2-.8-.5-.4-.2-1.3-.5-.3-.2-.4-.3-.4-.3-.7-.6-.4-.3-.4-.3h-.2l-.4-.3-.5-.2-1.4-.5-.9-.3-.2-.1-.5-.3-.3-.2-.2-.2-.2-.2-.2-.3-.2-.3-.3-.5-.5-.8-.3-.7-.3-.4-.3-.4-.2-.3-.3-.3-1-1-.4-.4-.3-.3-.3-.4-.2-.3-.8-1.3-.3-.4-.5-.5-.3-.3-.3-.4-.3-.2-.3-.1-.2-.2-.3-.1h-.3l-.1-.1h-1l-.3.2h-.3l-.3.3-.5.2-.5.4-.4.2-1.4 1h-.2l-.5 1.2-.2.4-.3.6-.1.2-.1.1-.2.2h-.2l-.4.3-.3.1-.3.1-.6.5-.5.4-.4.3h-1l-.3.1-.5.2-.7.2-.6.3-1 .4-1.3.6-2 1-.5.2-.2.1h-.5l-.2-.1-.1-.2-.1-.2v-.2l-.1-.2v-.2l-.1-.2V-29l-.1-.2-.1-.3-.1-.2-.2-.3-.2-.3-.2-.3-.2-.1-.3-.1-.4-.1h-.6l-.3-.1h-.3l-1.4.2h-.8l-.5.1-.6.1-1.6.4h-.5l-.6.1h-.8l-.6-.2-.8-.2h-.3l-.4-.1h-1l-.5.1h-.3l-1.5.5h-.2l-.1.1-.2.1v.1l-.3.3v.1l-.1.2-.2.6-.1.2-.2.2v.1l-.3.2-.3.2h-.8l-.1-.1-.2-.1-.8-.7h-.3v-.3l-.3-.4-.2-.5-.4-.5-.4-.4-.2-.3-.3-.3-.3-.3-.4-.2-.4-.3-.3-.2-.4-.2-.5-.2-.5-.1h-.4l-.4-.1h-.7l-.7.3h-.5l-.4.2-.4.3h-.3l-.4.4-.5.3-.8.6-.3.2-.3.2-.3.1-.3.2-.3.1-.5.2h-.5l-.5.2-1.6.2h-2.3l-.3-.1-.4-.1-.4-.2-.4-.2-.2-.2-.3-.2-.1-.2-.4-.4-.3-.4-.2-.4-.2-.4-.1-.5-.3-.9-.1-.3-.1-.2-.1-.3-.2-.2-.1-.2-.2-.1-.2-.2-.2-.2-.3-.1-.5-.3-1-.4-1.8-.8-.3-.1-.5-.3-.4-.2-.4-.3-.2-.1-.2-.2-.2-.2v-.1l-.1-.2v-.1l-.1-.2v-.8l.2-.3.2-.3.2-.2.2-.2.7-.5.2-.2.2-.3v-.6l-.1-.2-.1-.2-.2-.2-.2-.4-.3-.3-.3-.4-.2-.1-.4-.3-3.6-2.6-1.5-1-.4-.3-.6-.4-.5-.3-1.4-.8-.6-.3-.7-.4-1.4-1-.8-.4-.3-.1-.4-.2h-.2l-.3-.1h-.8l-.3.2h-.1l-.2.2-.2.1-.2.2-.3.2-.2.3-.3.4-.4.6-.3.4-.4.7-.4.7-.3.6-.2.6-.1.3h-.4l-.2-.1-.2-.1-.3-.3-.8-.6-.4-.2-.2-.1-.2-.1-.4-.1h-2.9l-.3-.2h-.3l-.5-.2-.9-.3-.4-.1-.4-.1-1.3-.2-.4-.1-.5-.2h-.5l-.7-.3-1-.4-1-.4-.9-.4-.8-.4-.6-.3-.3-.2-.3-.2-.8-.6-.8-.6-.3-.3-.4-.3-.3-.3-.5-.6-.8-1.2-.6-.8-.3-.4-.2-.4v-.2l-.2-.4v-.9l.1-.4.2-.5.5-1.8v-.4l-.3.4-.2.3-.2.1-.3.2-.1.2-.2.2-.2.3-.2.3-.1.3-.2.3v.2l-.3.3-.2.2h-.1l-.3.1-.3.1h-.4l-.5.1h-2.7l-.2.1-.5.1-.4.2-.5.1-.5.2-.6.3h-.1l-.4.3-.4.3-.3.3-.5.5-.3.4-.3.5-.6.8-.9 1.3-1.2 2-.4.5-.2.3-.3.4-.3.3-.3.4-.8.9-.3.3-.3.4-1.2 1.7-.2.4-.5.5-.5.6-.8.9-.6.6-.3.4-.3.4-.3.4-.5.7-.4.8-.5.8-1.1 2.1-.3.5-.5.8-.2.4-.5.7-.3.4-.5.7-.5.6-.4.5-2.2 2.3-.9 1-.6.7-.6.6-.5.4-.4.3-1 .7-.2.2-.3.2-.3.3-.3.4-.1.3v.2h-.1l-.5-.8-.2-.3-.4-.5-.5-.5-.3-.4-.3-.3-.2-.2-.3-.2-.3-.1-.5-.1h-.4l-.9-.1h-1.2l-.4.2-.3.1-.1.1-.3.2-.2.2-.4.2-.2.3-.2.3-.5.5-.9 1.1-.2.3-.3.3-.3.3-.4.3-.3.2-.4.3-.4.2-.4.2-.7.3-.6.2-.4.2-.4.1-.7.2-.7.2h-.3l-.4.1h-1.1l-.5-.1-.7-.2-.4-.2h-.2L64-23l-.4-.2-.2-.1-.3-.3-.2-.1-.4-.4-.4-.4-.2-.2-.2-.3-.3-.5-.3-.4-.3-.5v-.3l-.2-.3-.1-.4V-29l.2-.5.3-.8.2-.4.6-1.3v-.2h1.4l.2-.2h.3l.4-.2.3-.1.2-.2.2-.2v-.1l.1-.2v-.3h.1v-.3l.2-.1.3-.3v-.1l.1-.1.1-.2v-.5l.1-.1v-.2l.2-.1.1-.1.2-.2.2-.2.2-.1.2-.2.5-.2.2-.2.2-.2.1-.2v-.2l.1-.2v-.3l-.2-.3-.1-.2-.8-1-.7-1-.3-.4-.7-1.2-.3-.4-.3-.5-.5-.5v-1.2l.2-.3.1-.4.2-.3.1-.3.2-.2.3-.4.3-.3.3-.3.4-.2.4-.3.3-.2.4-.1.6-.2h1.3l.5.2.3.1.2.2.3.2h.2l.7.8.4.2.4.3.4.2.4.2.4.1.4.1h.3l.3.1h.4l.4.1h.9l.3-.1h.2l.3-.2.2-.1.3-.2.2-.3.1-.2.3-.4.2-.2.1-.3.1-.2.1-.3.1-.3v-.4l.1-.5v-1l-.1-.2v-.2l-.2-.1-.1-.2-.1-.1-.2-.1v-.1l-.3-.2h-.3l-.5-.2h-.3l-.4-.1h-.5l-.7-.1h-1.7l-.3-.2h-.4l-.3-.2-.3-.2-.3-.2-.2-.2-.1-.2-.2-.3v-1.2l.2-.2.2-.2.2-.2.3-.2.4-.2.3-.2h.3l.3-.2h.5l.2-.1h1l.4.1.4.1.2.1.9.4.4.2h.3l.3.2h1.5l.3-.1.3-.2.2-.2.2-.2v-.1l.1-.3v-.6l-.2-.3-.1-.3-.3-.4-.8-1.2-.4-.7-.2-.2-.2-.4-.1-.3-.1.1H78l-.1.1h-.3l-.2-.1-.2-.1-.8-.5-.6-.3-.4-.2-.3-.1-.3-.1h-.3l-.6-.2h-.7l-.5.2-.5.1-.4.2-1.6.5-1.3.6-.3.1-.3.1h-.3l-.3.1h-.5l-.5-.1-.3-.1-1-.4-.6-.2-1.1-.2-.4-.1-.3-.1-.3-.3-.3-.2-.6-.5-.5-.6-.2-.2-.4-.5-.3-.3-.2-.3-.1-.3-.1-.2v-.2L60-65v-.2l-.1-.3v-.9l.2-.4.2-.2.2-.2.2-.2.3-.2.3-.2.4-.2.5-.2.5-.1.6-.3.6-.1 1-.3h.3l.4-.2.6-.2 1.1-.6.9-.3.8-.3 1.3-.6.4-.1.4-.2.4-.2.4-.2.2-.2.3-.2.3-.3.1-.2.2-.2v-.2l.1-.2v-.4l-.2-.4-.2-.1-.1-.2h-.1l-.2-.2-1.3-.7-.3-.2-.7-.3h-.3l-.4-.3-.2-.1-.4-.2-.1-.1-.3-.4-.4-.4-.3-.4-.2-.3-.3-.3-.3-.6-.2-.4-.3-.7-.2-.4-.1-.4-.2-.6v-.3l-.1-.4v-2h.3l.3-.2.3-.2.2-.2.4-.3.3-.3.3-.4.2-.2.1-.3.2-.2v-.2l.2-.4.5-1 .2-.5.2-.3.1-.3.2-.2.3-.4.5-.3.4-.4.4-.2.7-.5.3-.2.3-.2 1-.5.7-.4.5-.2.3-.3.2-.1.2-.2.2-.2.1-.1v-.2l.2-.2v-.7l-.2-.3-.2-.8-.1-.5v-1l.2-.4v-.2l.4-.5.5-.9.3-.5.2-.5.1-.3.1-.3.2-.5v-1.4l-.1-.5-.1-.3-.1-.4-.2-.3-.2-.4-.4-.7-.3-.4-.2-.4-.1-.5-.2-.5-.3-1.1v-.3l-.3-.5v-.3l-.2-.2-.1-.1v-.1h-.1l-.4-.5-.4-.5-1.2-1.7-.3-.4-.3-.4-.1-.3-.3-.5-.5-1.3-.1-.2-.2-.2v-.2l-.2-.2-.2-.1-.5-.4-.4-.5-.4-.4-.2-.2-.2-.3v-.5l-.1-.2v-1.7l-.1-.3v-.2l-.1-.1-.1-.3-.1-.2-.2-.2-.4-.5-.2-.3-.1-.2-.2-.1-.3-.2-.3-.2-.3-.2h-.3l-.1-.3-.2-.3-.1-.4-.1-.5v-.7l.1-.2.1-.2.1-.1.2-.2.2-.1.2-.2.3-.1.3-.1h.5l.6-.1h2.8l.3-.2h.2l.1-.1.2-.2.2-.1 1-1 .8-.8.2-.2.3-.3.2-.3.2-.3.1-.3.1-.4.1-.2v-1l-.2-.2-.6-1-.1-.1-.2-.2-.2-.3-.4-.3-.3-.3-.7-.5-.4-.3-.3-.3-.7-.7-.3-.3-.2-.1-.2-.2-.2-.1-.2-.1-.3-.2H69l-.2-.1-.3-.1H68l-1-.1h-.7l-.6-.2-.6-.2-.4-.2-.2-.1-.2-.1-.3-.2v-.1l-.2-.2-.3-.4v-.2l-.1-.2-.1-.5v-2.4l-.1-.1v-.2H63v-.2l-.3-.1-.2-.2-.3-.2-.2-.1-.6-.5-.3-.2-.4-.2-.5-.2-1.5-.7-.5-.3-.4-.2-1-.6-.2-.1-.3-.2h-.3l-.3-.2h-.2l-1.4-.3h-.4l-.6-.3H53l-.5-.2-.5-.3-.3-.2-.2-.1-.5-.4-.2-.3-.1-.2-.2-.2-.1-.2-.3-.8-.1-.2-.3-.4-.4-.5-.4-.5-.9-1-.7-.8-1.1-1.2-1-1.1-.8-.8-.7-.6-.6-.6-.4-.3-.4-.3-.4-.3-.4-.3-.5-.3-.5-.3-.6-.2-1.8-.7-.9-.3-.5-.3-1-.4-.5-.3-1-.5-.9-.6-1-.7-1-.7-1.6-1.3-.9-.6-1-.6-.7-.5-2.6-1.7-.5-.4-.5-.3-.4-.3-.3-.3h-.1l.2-.4.5-.6.3-.3.3-.3.3-.4.7-.5.7-.6.7-.5.3-.2.4-.2.4-.2.4-.2.4-.1 1.1-.4.3-.1.9-.4.2-.2.2-.1.1-.1.2-.2.3-.4.2-.2.7-.5.3-.3.2-.2.2-.3.2-.2.6-.8.2-.3.2-.2.3-.2.3-.2.4-.2.5-.2.7-.3 1-.3 1-.3 1-.3h.3l.3-.2.4-.2.5-.2.2-.2.4-.3.4-.4.3-.3.3-.4.6-1 .2-.2 1-1.5.3-.4.3-.4.2-.4.2-.5.1-.6.2-1 .1-.4.1-.3v-.2l.3-.3.1-.2.2-.2.2-.2.2-.2.5-.4 1.3-.9.4-.3.4-.3.2-.3.2-.3.3-.3.6-1 .3-.5.3-.5.2-.5.5-1.2.3-.6.3-.7.4-.6.4-.8 1-1.6.6-.9.4-.5.2-.4.3-.4.4-.5.2-.3v-1l-.3-.6v-.5l-.1-.2v-.9l.1-.4.2-.4.3-.6v-.3l.3-.4.3-.4 1.2-1.8.5-.6.3-.4.5-.4.1-.2h.1l.3.1.8.2.5.2.5.2.8.4.6.2 1.2.6 3.4 1.8 1.5.7 1 .6 1.3.5 1 .4.7.3.6.2.3.1.6.2h.5l.4.1h.9l.2-.1.4-.2.3-.3.3-.3.4-.3.4-.3h.4l.5-.1h1l.6.1.5.1 2.4.5.6.2h.6l1 .2h1l2 .1H91l.7.1h1.7l2.8-.1h1l.5.2h.3l.5.3 1.8.8 1.2.6 1.2.5.6.2.6.2.7.2.6.1.7.2 1.4.2 1 .2h.3v-.4l.2-.2.2-.3.3-.3.3-.3 1-1 .3-.3.2-.2.3-.4.3-.5.2-.4.3-.7.2-.3.1-.2.5-.6.8-1 .4-.6.3-.4.3-.3.4-.6.3-.5.3-.3.3-.2.1-.2.4-.2.1-.1.3-.2h.2l.3-.1h.2l.7-.2 1.3-.1h2.5l2.7-1.1 1-.4 2.1-.9.5-.2.3-.1.4-.3.1-.1.2-.1.1-.2.3-.3.5-.9.1-.2.2-.2.1-.1.2-.1.2-.2h.2l.3-.1h.3l.3-.1h.9l.3.1.3.2.3.2.2.1.2.3.3.4.6.6.3.3v.1h.2l1.5-.7.8-.4.4-.2.3-.3.4-.2.3-.2.3-.3.2-.3.1-.2.3-.5.1-.2.1-.2.3-.1.2-.2h.3l.4-.1 1.4-.2h.3l.3-.2h.3l.2-.2.3-.2.3-.4.2-.2.2-.1h.1l.2-.1h.4l.4.1 1 .3 1.7.5.5.2 1 .2 1 .3h1.4l.8.1h1.8l1.6-.1h6.3l.7.2h.5l.5.2h.3l.6.3.5.3.5.2 1.6 1h.2l.2.2h1.6l.2.1h.2l.3.2.8.3h.2l.3.1.2.1.8.1 1 .2h.9l.8.1h1.4l.4.1h5.4l1.2-.1h4.6v-.1l.2-.1.2-.2v-.3l.2-1.2v-1.9l-.4-2.4-.1-1v-2.5l.2-.4.1-.5.2-.4.2-.3.2-.2.2-.2.2-.1.4-.1h1l.4.2.3.1.4.1.5.3.7.3.8.4 1.4.7 1.3.7 2.4 1.3 1.2.7 1 .4.4.2.5.2.5.2h.3l.3.1h.7l.2-.1.2-.2.4-.2.1-.1.3-.2.2-.3.3-.3.1-.2.2-.2v-.2l.1-.3.2-.5v-.4l.1-.6v-2.5l.1-.9v-1l.2-2v-1l.1-.5v-1.4l-.1-1v-.9h.1l.1-.1h.4l.3.1.6.5.3.3 1 .5 1.3.8.4.3.3.2.4.1.3.2h.4l1.1.4.6.1.4.2 1 .3.8.3.7.2 1 .2h2.8l.6-.1 1.2-.2h.4l.2.1h.1l.2.2.7.5h.1l.9.5.2.2.2.1.4.5.2.1.1.1.2.2h.2l.3.2.2.1 1 .4.6.3h.5l.9-.1h.8l.1.1.8.3h.2l.1.1h.9l1.5-.1h1.8l.3.1h.1l.2.2v-.1l.2-.1v-.1l.3-.2h.2l.3-.1h.3l.2.1.4.2.2.1.2.2.2.2.2.2.2.2.2.2.4.8.2.2.2.2h.3l.3.1h1.4l.6-.2 1.1-.3 3.7-.9 1.2-.2.4-.1.6-.1h1.4l.3.2.4.1.2.2.4.2.3.2.2.2.2.2.2.2.4.5.2.2.2.1h.3v-1.7l-.1-.5-.2-.6-.6-2-.1-.5v-.5l-.1-.2v-1.1l.1-.2.2-.4.1-.3.4-.5.4-.7 1.9-2.9.4-.5.3-.4.2-.3.4-.5 1.8-1.8.6-.6 1.5-1.5.7-.8.5-.5.6-.7.5-.7.2-.3v-.1h.7l.4-.2.2-.1.4-.2.3-.2.7-.4.7-.5 2.6-1.9.6-.4.9-.6 1-.6.8-.5.8-.5.7-.4.8-.3.5-.3.7-.3.4-.2.6-.1.2-.1h1.3l.2.2.2.2h.1l.2.3v.1l.3.3.1.3.1.4v.2l.1.3v.9l-.1.3-.1.3-.2.6-.3.5-.3.4-.3.5-.2.2-.3.3-.6.7-.5.4-1.5 1.3-.3.3-.3.3-.3.3v.1l-.2.2v.1l-.1.2v1l.2.4.3.4.1.2.4.5 1 1.3.2.2.2.2.1.1.2.2h.1l.2.1h.2l.3.1h.7l.3-.1.4-.1 1.1-.4h.4l.2-.1h2.7l.3-.1.5-.2.7-.2.9-.4 1-.4.9-.4.5-.3.6-.4.6-.4 1.1-.8.5-.4.3-.1.3-.1h.2v-.2l-.1-.5-.2-.9v-.4l-.1-.4v-1.7l.2-.4.1-.2.2-.2.4-.5.2-.3.1-.1.2-.2h.2l.3-.3.3-.1 1.3-.6.6-.3.4-.2h.3l.3-.1h.3l.2.1.1.1.3.3.1.1.2.3.2.3.7 1.2.4.5.2.3.3.3.1.2.3.2.2.1h.2l.4.2h.5l.4-.1.5-.1.4-.2.5-.2.5-.3.5-.2.5-.3.6-.2.8-.2 1.1-.3.7-.1.5-.2 1.4-.2.4-.1.2-.1.2-.2.2-.1.2-.1.2-.2.1-.2.3-.3.3-.5.5-.7.5-.7.6-1 .2-.2.2-.2.2-.3.2-.1.2-.2.4-.2.5-.2.4-.1.5-.2h.4l.8-.2.8-.1.8-.1h.4v.1l.2.2h.2l.4.4.3.1.5.3.4.2 1 .4.5.3.3.2.2.1.2.2.4.3.3.3.4.4.3.3.3.5.4.5v.3l.2.2v.2l.1.2v.2l.1.2v.3l-.1.2-.2.2-.1.1-.3.3-.4.2-.5.3-2 .9-.6.2"/></defs><g clip-path="url(#pf86831b9b9)"><use xlink:href="#m62a733016c" y="280.5" fill="#0c1321" stroke="#0c1321"/></g></g></g></g><defs><clipPath id="pf86831b9b9"><path d="M7.2 7.2h340.4v266.1H7.2z"/></clipPath></defs></svg>