<svg xmlns="http://www.w3.org/2000/svg" width="365.1" height="374" viewBox="0 0 273.9 280.5"><defs><style>*{stroke-linejoin:round;stroke-linecap:butt}</style></defs><g id="figure_1"><path id="patch_1" fill="none" d="M0 280.5h273.9V0H0z"/><g id="axes_1"><path id="PatchCollection_1" fill="#f4f4e2" stroke="#f4f4e2" d="M223.3 229.7h.7l.4-.1h.9l.2.2.2.2.1.2.2.2.2.2.3.5.7 1 .3.6.3.4.3.3.2.3.2.2.3.2.2.2h.3l.3.1h1.1l.3-.2h.3l.7-.4h.3l.4-.2.4-.1.8-.2h.3l.1-.1.2-.1h.2l.1-.2h.2l.2-.3.7-.5.3-.2.3-.3.3-.2.3-.1.2-.1h.7l.2.1v.1l.1.2.1.2.1.3.2.4.2.7.2.8v.3l.1.2.1.1.1.1h.1l.2-.1v-.1l.2-.2.4-.4.3-.4.5-.5.4-.4.3-.3.3-.3.3-.2.3-.1.2-.2.2-.1.3-.2.4-.2.4-.1.4-.2 1.1-.4h.2l.2-.1.4-.2 1-.5.2-.1.2-.1.2-.1h.8v.2l.2.1.1.2.1.3v.2l.2.1v.5l.2.4v1.2l.1.8v.3l.1.4v.2l.1.2.1.1h.1v.2l-.1.1v1.3l.2.4.1.3.2.3.1.2.2.2.2.3v.1l.2.2.2.2h.1l.1.1.2.1.4.2h.1l.2.2.3.2.4.3.3.2h.1l.1.2.1.1.2.2.2.5.1.1.1.2.1.2.1.2v.3l.1.3v.9l-.1.2-.1.2-.2.2-.1.2-.2.3-.7 1-.4.5-.3.4-.5.6-.4.4-.4.5-.2.4-.3.3-.6.9-.2.2-.3.5-.2.2-.2.3-.2.3-.2.4-.2.5-.4.9-.2.3h-.1l-1-.6-.2-.2-.4-.2-.4-.3-1-.4-.8-.4-.2-.1-.2-.2h-.3l-.2-.1h-.2l-.2-.1h-1.5l-.8.1h-.3l-.9.2h-.3l-.4.1h-.4l-.3.1-.3.1-.4.1-.8.3h-.4l-.3.2h-.6l-.3.1h-1l-.5.1h-1.3v-.1h-.3l-.2-.1-.2-.1-.1-.1-.2-.2-.1-.2-.1-.2-.4-.7-.4-1-.1-.3-.1-.2-.1-.2-.1-.2-.3-.3-.9-1.2-.4-.5-.1-.2-.2-.3-.1-.2-.2-.3v-.2l-.1-.2v-1.3l-.1-.1-.1-.1-.2-.2-.3-.2-.2-.1-.1-.2-.5-.3-.2-.2-.2-.2-.1-.1-.2-.3-.6-.8-.3-.3-.2-.3-.3-.3-.2-.1-.3-.2-.4-.3-.4-.2-.4-.2-.4-.3-.3-.1-.4-.2-.5-.2-.5-.2-.3-.1h-.2l-.2-.1h-.5l-.3.1-.3.1-.3.1-.5.3-.8.4-.6.3-.5.2-.3.1h-.2l-.2.2h-.8l-.1-.1h-.1l-.1-.2h-.1l-.1-.2-.1-.3v-.1l-.1-.2v-.3l-.2-.5v-.4l-.2-.2-.1-.2-.5-.3H211l-.3.1h-.4l-.4.2h-.4l-.2.2h-.1l-.4.3h-.1l-.1.1v.2h-.1l-.1.3-.3.6-.2.6-.1.2v.2h-.2v.1l-.2.2h-.1l-.2-.1-.1-.1h-.1l-.1-.1h-.1l-.3-.2h-.4l-.3-.2h-.7l-.1-.1-.2-.1-.7-.3-.4-.2h-.3l-.2-.2h-.5l-.7-.1h-1.1l-.2-.1h-.2l-.4-.2-.4-.1h-.1l-.2-.1h-.2l-.1-.2-.3-.2-.3-.2-.5-.6-.4-.4-.1-.1-.1-.2-.1-.1v-.3h.6l.2.2.5.2.3.1.3.1.2.1h.3l.2.1h.9l.3-.2h.2l.1-.1.2-.1.2-.1.5-.4.2-.2h.2l.5-.2.2-.1.4-.2.3-.2.3-.1.1-.1h.2l.2-.1.4-.1.3-.2h.1l.1-.1.2-.1.1-.1.4-.4h.1l.1-.1.1-.1h.4l.1.1.1.1.2.3.4.5.2.1.1.2.2.1.2.2.2.1.3.2h1.3l.3-.1h.4l.3-.2.4-.5.2-.5v-.6l.1-.2v-.2l.2-.2v-.3l.2-.4.1-.2.1-.2.1-.2.3-.3.1-.3.2-.3.2-.1.3-.4.3-.4.3-.3.6-.5.4-.5.1-.1.2-.2.6-.7.7-.7.2-.2.2-.2.2-.2.3-.2.3-.2h.1l.2-.1h.1l.3-.2h1.4l.1.1h.1l.2.3.1.2.1.3.2.4.1.4.3 1.2.1.3v.2l.2.3v.2l.2.3v.2l.2.2.1.2.2.3.2.2.2.2h.2l.1.1m-66-201 .5.4.2.2.4.4.5.3.4.4.2.2.3.1 1 .8.3.2.3.2.1.2.2.1.1.2.1.2.1.2h.1v.3l.1.2.1.3v2.3l-.1 1V39l-.2.9v1.9l.2.7.1 1 .5 3 .4 2.2.1.9.2.1.2.1.2.1.6.3.7.3.7.3 2.4.9 1.9.7 1.9.8 1.8.7 1.3.5 3 1.2 3.3 1.3 1 .4 1 .4.8.3.5.3.3.1.3.2.2.1.2.2.3.1.2.2.1.2.2.3v.2l.1.3v.7l-.1.2v.6l.2.3.1.3.2.3.1.3.4.7.2.3.3.5h.1l.2-.2h.4l.3-.2h1.9l.3.1h.3l.2.1.2.1.3.1.2.1.3.1h1.2l1-.2h1.1l.7.2h.2l.2.1h1.2l.2.1h.2l.3.2h.3l.2.1.2.1h.4l.5.2h.6l.3-.2.7-.4.2-.1.3-.1.3-.2h.2l.2-.1.3-.1h.4l.4-.2h.4l.5-.1h.7l.3-.1h.4l.3-.2h.6l.4-.1h.1l.1-.1h.2l.4-.4h.2l.4-.3h.1l.2-.1h1l.2.2h.3l.8.6.6.3.1.1.3.1.3.1h.3l.6.2.3.1.4.1.3.1.3.2.3.2.3.2.2.2.3.2.2.2.2.3.1.2.1.3v.2l.1.3v1.4l.2.1.2.3v.4l-.2.2-.2.2-.7.4h-.1l-.1.1v.1h-.1v.2l-.1.2v.8l.1.1.1.1h.1l.1.1h.1l.2.1h.4l.2.1v.1l.2.1.2.2.1.2.1.1.1.2v1.1l-.3.8v.2l-.1.2v1l.1.2.2.2v.1l.2.1h.9l.2-.1.2-.1.1-.1.2-.2.5-.4.3-.1.4-.3.4-.3.2-.1.3-.1.6-.3.3-.1.3-.2.2-.1.2-.2.2-.1.2-.2.3-.4h.1l.2-.3h.3l.2-.1h.4l.2.1.7.3h.1l.2.1h.5l.1-.1.1-.1.1-.2.3-.5.2-.2.1-.1.3-.4.2-.2.2-.2.2-.1.1-.2h.1l.2-.1h.8v.1l.2.1.6.6.1.2.2.2.2.2.2.3v.2l.2.1.1.4v.1l.2.2v.2l.5.6h.1v.2h.1v.2l.2.6v.2l.1.2.1.2.2.1.2.2.1.2.5.4.4.4.3.2.4.3 1.2.8.6.4.5.4-.3.2-.8.5-.2.1-.2.1-.2.2-.2.2-.2.2-.1.2-.1.2-.2.2v.2l-.1.3-.1.2v.2l-.3.8v.2l-.1.2v.2l-.2.2v.1l-.2.2v.2l-.3.1-.1.1-.2.1-.3.1h-.2l-.2.1-.8.1h-.3l-.2.1h-.3l-.3.2h-.2l-.3.2h-.2l-.2.2-.2.2-.2.1-.1.2-.2.2-.2.2-.3.4-.8 1-.3.4-.2.3-.1.1-.1.1-.1.1-.2.2v.1l-.2.2-.2.2-.1.4-.2.3v.3l-.2.2v1.7l.1.1.1.3.2.2.1.2.2.1.2.2.3.1.2.1h.3l.3.1h1.4l.3.1h.2l.3.1h.2l.3.2.3.2.2.1.3.3.1.1.2.2.1.3.1.3.1.2V98l-.1.2v.2l-.2.2-.1.3-.2.2-.1.2-.2.2-.1.2-.2.1-.2.2h-.2l-.3.2h-1.1l-.3-.1-.2-.1-.9-.4h-.2l-.2-.1-.3-.1h-.5l-.3-.1h-.7l-.2.1-.3.1-.2.1-.3.1-.2.2-.2.1-.2.2h-.1l-.2.2v.1l-.2.2v.1l-.2.2v.2l-.1.2v1.2l.1.1.1.2.2.3.2.3.5.8.2.3v.2l.2.1.1.3v.3l.1.2v1.1l-.1.1-.2.2v.2h-.2l-.1.1h-.1l-.1.2v.2l-.2.1v.2l-.1.3v1.1l.1.5.3 1v.5l.1.2v1.1l-.1.2-.2.2-.1.2-.2.1-.1.1-.3.1-.2.1h-.2l-.2.1h-.9l-.2-.2h-.3l-.2-.2-.7-.3-.4-.2h-.3l-.2-.2h-.6l-.2-.1h-.5l-.2.1-.2.2v.1l-.2.1v.3l-.1.2v.2l-.1.2v1.6l-.1.6v.3l-.1.2v.3l-.1.2v.3l-.2.3v.2l-.1.3-.2.4-.2.6-.2.5-.2.5-.2.4-.2.4-.5.8-.3.5-.2.3v.2l-.1.2-.1.3-.1.2v1l.1.2.1.2.2.2.3.2.1.1.2.1.3.1.8.4h.2l.2.2h.3l.2.2.2.2.2.1.1.2.2.1.1.2.1.2v.1l.2.2v1.4l-.1.3-.1.2-.1.2-.2.3-.9 1.5-.2.5-.1.2-.2.3v.2l-.2.3v.5l-.1.1v.2l.2 1v1l.1.2v1.3l-.1.2-.1.3-.2.3-.1.3-.2.3v.2l-.2.2-.2.2-.2.2-.8 1-.2.2-.2.2-.2.3-.1.2-.2.3-.2.3-.5 1-.3.5-.2.3-.1.2-.2.2-.2.2-.2.3-.2.1-.2.2-.3.1-.2.2-.5.3-.3.1-.3.2-.1.1-.1.1-.2.2-.1.2-.1.2-.1.2-.2.2-.3.7-.1.2-.1.2-.2.4-.2.2-.3.4-.9 1-.4.6-.2.3-.1.2-.2.3-.2.3v.2l-.2.3v.3l-.1.2v.9l.2.2.1.3.2.2.2.2.2.1.2.2h.3l.2.1h1.6l.2-.2h.2l.3-.3.2-.1.2-.2.6-.5.2-.1.2-.2h.2l.1-.2h.2l.2-.1h1l.3.1.3.1.3.2.2.2.2.1.1.2.2.1.1.2.2.2.2.3v.2l.2.3v1l-.1.2-.1.2-.2.2-.1.1-.1.1-.2.1-.7.5-.2.1-.2.2-.2.2-.2.2-.2.2v.1l-.2.2v.2l-.1.2v.2l-.5 1.3-.1.5-.1.3-.2.5-.1.2-.2.3-.1.2-.1.2-.1.2-.2.3-.2.2-.3.4-.7.8-.2.3-.2.2-.2.3-.2.3-.1.2-.2.2-.2.5-.1.3-.2.2v.3l-.1.3-.1.2v.2l-.1.4v.3l-.1.3v2.1l-.1.4-.1.3v.3l-.1.2v.2l-.2.2v.1l-.2.1-.2.1-.2.1-.2.1h-1.4l-.3-.2-.8-.3h-.2l-.2-.1h-.2l-.2-.1h-1.3l-.2.2h-.2l-.2.2-.1.1-.2.2-.2.2v.2l-.1.1-.1.2v.2l-.1.4v1.5l-.1.3v.6l-.1.2v.3l-.1.3-.1.3-.1.3-.2.2v.3l-.2.3-.2.2-.2.2-.2.3-.1.2-.3.2-.5.5-.2.3-.3.2-.2.3-.2.2-.1.3-.2.2-.1.2-.2.3-.4.9v.2l-.2.1-.1.3-.2.2-.2.1h-.3l-.3.1-.5.1h-.3l-.2.1-.4.2h-.2l-.2.2-.4.1-.3.2-.3.2-.2.1-.5.4-.2.1-.2.2-.5.2-.6.4h-.1l-.1.1-.5.2-.2.1-.2.2h-.2l-.2.2-.2.2v.2l-.2.2v.6l.2.4v.6l-.1.2-.2.3-.4.5-.1.2v.1l-.1.1v.6l-.1.5v1.1l-.1.5v.6l-.2.6v1.6l-.2.7-.1.5v.8l.1.3v.2l.3.7.2.4.2.4.2.5.1.3.2.4.1.1.2.2v.2l.7 1 .1.1v.2l.1.2v.2l.1.2v1.3l.1.1v.1l.2.1.2.2.1.2.2.2.2.2.1.2.1.2v.2l.1.3v.4l.1.2v.3l.2.2.1.2h.1l.2.1v.1h.2l.2.2h.2l.2.1.9.3h.3l.2.1h.9l.1.1h.4l.2.1.3.1.4.1.3.1.2.1.2.1v.1l.2.2.4.3.1.1.2.1v.1h.2l.1.1h.2l.4.1h.1l.4.2h.1v.5l-.1.2v.5l.2.2v1.6l-.1.2h-.2l-.2-.1-.7-.3h-.2l-.2-.2h-1.3l-.2-.1h-.1l-.3-.2h-.7l-.4.2h-.1l-.3.2h-2.8l-.2.2h-.2l-.2.1-.2.1-.1.1-.2.2-.1.2v.1l-.1.2-.1.2-.1.4v.3l-.2.5v.2l-.1.3-.1.3-.1.3-.1.3-.2.3-.1.2-.2.3-.2.3-.1.2-.2.3-.2.3-.4.4-.3.4-.2.2-.2.2-.3.3-.2.1-.2.2-.2.1-.2.2-.5.3h-.3l-.8.6-.2.1h-.2l-.1.1h-2.6l-.2.1-.2.1-.2.1-.3.2-.1.1-.2.3-.3.2-.1.2-.1.2-.1.2v.5l.1.1v.4h-.5l-.3.1h-.1l-.7.2h-.3l-.2.2h-.2l-.2.2-.4.2-.8.4h-.2l-.2.2v.2l-.2.3h-.1v.1h-1.4l-.2-.1h-.2l-.3-.1h-.3l-.2-.1h-.5l-.3.1-.2.1-.3.1-.2.2-.2.1-.2.3v.1l-.2.2-.2.6-.2.3-.2.4-.2.2v.2h-.2l-.2.2-.2.1h-.2l-.2.1h-1.2l-1 .1h-.9v.1l-.1.2-.1.2v.2l-.2.1v.2l-.2.1-.1.2-.2.1-.1.1-.2.2-.2.1-.2.1-.3.1-.2.1h-.3l-.3.1H160l-.2.1h-.3l-.5.2h-.9l-.3-.2h-.5l-.1.1h-.2l-.1.2-.2.2v.2l-.1.1-.1.5-.2.6v.3l-.1.2v2l.1.3.1.2.2.3.2.3.3.5v.2l.1.1v.1h-.1l-.4.2-.7.3h-.2l-.1.2h-.2l-.2.2-.2.2-.6.5-.7.5-.3.3-.3.2-.3.2-.3.2-1.4.8-.3.2-.3.3-.3.2-.3.3-.3.2-.3.3-.4.4-.1.1-.2.1-.2.2h-.2l-.8.5-.4.2h-.2l-.3.2-.2.2-.3.2-.1.1-.1.1v.1h-.1l-.2-.1-.1-.2-.2-.2v-.2l-.1-.3-.1-.4v-.2l-.1-1v-.4l-.1-.3-.1-.2-.1-.2-.1-.3-.1-.1-.2-.2-.2-.1v-.2l-.6-.3-.1-.2-.3-.2-.3-.3h-.1l-.2-.2h-.5l-.2.1-.1.2-.1.1v.2l-.1.2v.1l-.1.2v2l-.2.1v.2l-.2.1-.1.2-.4.5-.4.5v.1l-.2.2v.1l-.1.3-.2.4v.2l-.2.4v.1l-.2.2-.3.2h-.9l-.2-.1h-.4l-.2-.1H135v.1l-.2.2v.2l-.5.7v.1h-.1l-.1-.2v-.3l-.1-.1-.1-.2-.2-.3-.1-.2-.2-.1-.1-.1h-.6l-.2.3-.3.3-.2.1-.1.2-.3.1-.2.1-.2.1h-.5l-.1-.1-.1-.1h-.1l-.1-.2-.1-.2h-.1v-.6l-.4-.1-.4-.2h-.2l-.2-.1-.1-.1h-.2v-.2h-.1l-.1-.1-.3-.3-.1-.2h-.1l-.1-.1-.1-.1-.3-.1-.1-.1h-.1l-.2-.2v-.1l-.2-.1v-.2l-.1-.2V246l-.1-.1v-.2l-.1-.3-.1-.2h-.1v-.2h-.2v-.1h-.2l-.1-.1h-.2l-.2-.1h-.8v.1h-.1l-.1-.5-.2-.6v-1.1l-.1-.8v-.3l-.1-.2v-.1l-.1-.3-.1-.2-.1-.3-.2-.2v-.2l-.2-.2v-.1h-.1l-.6.4-.4.3-.4.3-.4.3-.3.1-.3.2h-.2l-.1.1h-.8l-.2-.2-.6-.4-.2-.1-.3-.2h-.2l-.3-.1h-.2l-.3-.1h-2.7l-.3.1h-.3l-.4.2h-.2l-.3.2-.3.2-.3.2-.2.3-.3.2-.2.3-1.5 1.5-.5.5-.2.3-.3.2-.2.2-.2.1-.2.2-.3.2-.5.4-.8.5-1.1.7-.6.3-.5.3-.2.1-.4.2h-.2l-.2.2-.2.2-.1.2-.2.3-.1.2-.2.3v.3h-.1v.3h-.1v2.1l-.2.1-.4.2h-.7l-.2-.1-.2-.2-.2-.3-.2-.2-.2-.3-.1-.2-.2-.1-.3-.3-.2-.3h-.1l-.2-.2h-.1l-.2-.2H99l-.2-.1-.4-.2h-.3l-.8-.2h-.1l-.3-.1-.2-.1-.3-.3-.3-.2-.2-.1h-.1l-.3-.2h-.1l-.2-.1h-.5l-.2.1-.2.1h-.1l-.2.2-.4.3-.1.1-.1.2h-.1l-.1.2-.4.6v.1l-.9 1.2v.2l-.4.5v.2h-.1l-.1.1-.1.1-.1.1-.2.1-.3.1-.1.1-.3.1-.2.1h-.2l-.2.1h-1.3l-.5-.1-.5-.1H87l-.2-.1h-.2l-.2-.2h-.1l-.2-.1-.2-.2-.2-.1v-.1l-.1-.2-.2-.2-.1-.3-.2-.3v-.3l-.1-.2v-.3l-.3-1.6v-.1h-.1v.1l-.3.5-.2.3v.2l-.1.2v.3l-.1.2v.6l-.1.1v.2l-.2.2-.1.2-.1.1v.1l-.3.2-.2.2h-.4l-.5-.4-.2-.2-.3-.1-.3-.2H81l-.4-.1h-.3l-.4-.1h-2.7l-.3.1h-.1l-.3.1-.2.1-.8.3-.3.1-.3.2-.5.2-.3.1h-1l-.1-.1-.2-.1-.3-.2-.2-.1-.5-.2-.3-.2h-.2l-.2-.1-.1-.1-.5-.3-.4-.1-.4-.3h-.8l-.1.1h-.2l-.2.1h-.1l-.2.1v.1l-.1.1-.1.2v.2l-.3.9v.8l.1.2.2.1v.1l.3.1.4.2.1.1.1.1.1.1.1.1.2.3.2.3.3.6.1.4.2.2v.3l.2.2v.7l.1.1v.4l-.1.1-.1.2-.1.2-.1.2-.2.2-.2.2-.2.2-.2.2-.3.3-.2.2-1 .7-.4.4-.5.3v.1h-.2l-.4-.1H66l-.2-.2-.6-.4-.3-.1-.1-.1H64l-.2.2-.5.4-.2.2H63l-.2.1h-.1l-.2.1h-.1l-.2-.1-.2-.2-.3-.2-.5-.2-.8-.4-.3-.2-.4-.3-.4-.3-.5-.3-.3-.2v-.2l-.3-.3h-.1l-.2-.2-.1-.2-.6-.5-.4-.3-.2-.1-.2-.1-.1-.1-.2-.1-.2-.1h-.2l-.2-.2h-1.2l-.2-.1h-.5l-1.4-.4h-1.5l-.1.1.3-.5.1-.2.1-.1.1-.2v-.1l.2-.2v-.5l.2-.5v-.8l.1-.1v-.2l.2-.5.1-.3.1-.4.2-.6v-.2h.1l.2-.3v-.1l.2-.3.2-.4.2-.4v-.2l.2-.3.2-.5v-.2l.2-.2.1-.2.3-.4.2-.2.1-.2.2-.4v-.2l.1-.2v-.7h-.1l-.1-.2h-.1l-.2-.1-.4-.2-.1-.1h-.2l-.1-.2-.3-.3v-.1l-.4-.2-.2-.2-.5-.2H52l-.3-.2h-.2l-.4-.1H51l-.2-.1-.2-.2v-.1l-.1-.1v-.5l-.1-.3v-.6l.1-.2.1-.4.1-.5.1-.4.2-.4.2-.4.7-1.4.2-.4.1-.4.2-.2.1-.3.2-.2.3-.5.5-.7.2-.3.3-.4v-.1l.1-.1-.2-.1-.1-.2-.2-.2v-.1l-.1-.1v-.2l-.1-.3-.1-.4v-.1l-.1-.2-.2-.2-.2-.5v-.1l-.2-.3v-.4l-.1-.2-.3-1-.1-.3-.2-.5v-.2l-.1-.1-.1-.1h-.2v-.3l.2-.5.2-.7.1-.3.2-.3v-.3l.2-.3.4-.5.5-1 .2-.2.1-.2.2-.2v-.1l.3-.2h.1l.3-.2h.6l.3-.1H57l.3-.1.3-.1.3-.1.1-.2.2-.1.2-.2.1-.1.2-.2.1-.3.2-.2.2-.5.7-1.1.3-.6.2-.4.2-.3.3-.4.3-.4.2-.3.6-.7.2-.2v-.1l.2-.1v-.5l-.2-.1h-.8l-.3.2H60l-.2-.2h-.3l-.2-.2-.3-.2-.3-.2-.3-.2-.1-.2-.3-.3-.2-.3v-.1l-.1-.2V212l.1-.2.1-.3.1-.2.2-.3.3-.5.1-.3.1-.2v-.2l.1-.2v-.7l-.1-.6v-.3l-.1-.3V206l.1-.2v-.1l.1-.2.1-.3.1-.2.1-.2.2-.4.3-.4.3-.5.1-.3.1-.2.1-.2v-.1l.2-.3v-.7l-.2-.2-.3-.4-.2-.2-.1-.1v-.2h-.1v-.5l.1-.2.1-.2.2-.1.2-.2.2-.2.1-.1.3-.2.4-.3.1-.1.2-.2v-.1l.2-.2v-.3l.1-.1v-1.2h.6-.1v-.8l.2-.2.2-.3.1-.2.2-.3v-.2l.1-.2.1-.4v-.2l.1-.4v-.3l.1-.4v-3.8l.1-.1.1-.2h.1l.1-.1h.5l.1.2h.2l.2.2.2.2.5.5.2.2h.2l.3.3.3.1.2.1.2.1h.7l.2-.2h.2l.1-.2h.1l.2-.2.2-.2.1-.2.2-.2v-.2l.2-.1v-.2l.2-.2v-.3l.2-.3v-1.3l.1-.3v-.3l.1-.3.2-.3v-.2l.2-.3.7-.8v-.2l.1-.1.2-.3v-.4l.2-.3v-.6l.1-.7v-.5l.2-1.2v-1.2l-.1-.3v-.2l-.1-.2-.1-.1v-.2l-.2-.3-.2-.3-.3-.3-.2-.2-.2-.2-.4-.3-.3-.3-.4-.3-.4-.2h-.2l-.2-.2H68l-.3-.2h-.5l-.3-.1h-.7l-.7.2h-.9l-.6.1h-1l-.9-.1h-.3l-1-.1h-.4l-.3-.1-.3-.1-.3-.1-.3-.1H59l-.1-.2h-.2l-.1-.2h-.1l-.2-.3v-.3l-.2-.3-.3-1.3v-.3l-.1-.1h-.3l-.1.2-.2.1-.1.1-.2.1-.1.1-.5.2-.2.1-.2.1h-.2l-.5.3h-.5l-.3.1-.6.2h-.4l-1 .3-.4.1-.3.1-.5.2-.3.1-.3.2-.2.1-.2.1-.2.1-.1.1-.4.3-.6.5-.4.3-.3.2-.2.2-.2.3-.2.2-.2-.2-.3-.2-.3-.4-.2-.3-.3-.3-.4-.7-1-1.5-.4-.4v-.2H44l-.1-.2h-.2v-.1h-.6l-.3.2-.3.1-.2.2-.7.4-.2.1-.2.1-.2.1v.1h-1l-.3-.1-.4-.2h-.1l-.2-.1-.2-.2-.3-.2-.3-.2-.2-.2-.2-.2-.2-.2-.2-.2-.1-.2-.2-.3-.1-.2-.2-.3-.1-.4-.1-.2-.3-.6-.1-.5-.5-1.3v-.2l-.3-.5v-.2l-.2-.4v-.6H35v-.3l-.2-.4v-.4l-.1-.3-.2-.5v-.5l.9-.4.5-.3.2-.1.3-.2.2-.2.2-.2.2-.1.2-.3.2-.2.1-.3.2-.3.3-.7.1-.1.2-.3v-.2l.3-.2.1-.2.2-.2.2-.1.3-.3.2-.1.2-.2.3-.1.2-.1.2-.2h.2l.8-.4.4-.2.3-.2.2-.1.2-.2h.1l.1-.2.2-.1v-.2l.2-.2.1-.1.3-.4.7-1.3.1-.3.2-.2v-.2l.1-.2v-.2l.1-.1v-1.4l-.1-.3-.2-.6-.1-.2v-.3l-.4-1.6v-.3l-.1-.1v-.9h.1l.1-.2.3-.4.1-.3.1-.1.1-.2.2-.1.2-.2h.2l.4-.2.3-.1.5-.2.3-.1.2-.1.2-.1.2-.1.2-.2.4-.3.2-.2.5-.4.3-.3 1.2-1 .2-.1.3-.2.4-.2.2-.2.5-.2.5-.2h.1l.2-.1.3-.1h1.6l.6.1v-.1l-.2-.7v-.2l-.2-.5-.2-1.3v-.3l-.2-.6v-.5l-.2-.6v-.3l-.2-.3-.1-.4-.4-1-.2-.3v-.4l-.1-.2v-1l.2-.2.2-.2.1-.2.2-.1.2-.3.2-.1.2-.1.1-.2h.2l.2-.1h.5l.1.1v.4l-.1.5v.2l-.1.1v.7l.1.1.1.3.1.1.2.1v.1h.1l.1.1h.1l.2.1h1.3l.3-.2h.2l.4-.2.5-.3.4-.2.3-.2.8-.5.8-.5.3-.2.5-.2.5-.3.6-.3.6-.2-.7-.5-.4-.3h-.2l-.4-.4-.3-.2-.3-.3-.4-.3-.2-.2-.2-.2-.2-.2-.3-.5-.4-.4-.4-.5-.4-.4-.5-.5-.8-.7-1.2-1.2-.7-.7-.4-.3-.3-.3-.3-.4-.3-.3-.4-.5-.1-.2h-.2l-.3-.1h-1.8l-.5.1H49l-.5-.1-1-.2h-.7l-.5-.1h-1.1l-.2.1-.2.1-.2.1-.3.2h-.1l-.2.2v.1l-.2.1v.1l-.1.2-.1.2v.2l-.1.3v.3l-.1.4v1.6l.1.3.1.6.2 1v.3l.1.7v1.1h.1v.2l.1.2.1.1v.1h.1v.2l.1.2v.8l-.1.2-.2.2-.1.1-.1.1-.1.1-.1.1-.2.1-.3.2H43l-.6.4-.4.1-.3.3-.5.3-.3.2-.3.2h-.2l-.2.1-.2.2h-.5l-.2.1h-.5l-.2-.1-.2-.2v-.2l-.4-.6-.1-.2-.2-.2-.1-.2-.2-.2-.2-.1-.3-.2-.2-.1-.3-.1-.2-.1h-.3l-.3-.1h-.2l-.3-.1h-.4l-.2.1h-.2l-.7.3-.6.2-.5.2-.9.2-1.7.5-.5.1h-.1l-.2-.4-.2-.6-.1-.3-.2-.3-.3-.9v-.3l-.2-.3-.1-.3-.2-.3-.2-.3-.2-.5-.6-1-.2-.3v-.2l-.4-.5v-.2l-.1-.1-.1-.1h-.1l-.1-.1h-.3v.1h-.2l-.2.2H25l-.5.4-.2.1-.1.1H24l-.4.3-.5.2-.6.2-.4.2-.6.2h-.3l-.3.2h-1.4l-.2-.2-.1-.1-.1-.2v-.1l-.1-.2v-.2l1.8-3.4 1.8-3.6.4-.7.1-.3.2-.2.2-.2h.1l.1-.1.3-.1.8-.4h.1l.2-.1v-.1l.2-.1.1-.1v-.1l.1-.1.1-.1v-.2l.2-.2v-.4l.1-.2.2-1v-.4l.2-.6v-.4l.1-.4v-1.7l.2-.2v-.1h.1l.1-.1.2-.1h1.4l.4.1h1.9l.6-.1h.5l.3-.2h.4l.5-.3h.3l.3-.1.7-.1.8-.3.6-.1h.3l.4-.2.7-.3h.1l.2-.1.5-.3.8-.4.6-.3.3-.1.3-.2.6-.2h.3l.5-.2 1-.2.5-.1 1.4-.2.5-.1h.3l.2-.1.4-.1.2-.1.6-.2.5-.2h.5v-.4l.3-.4v-.5l.2-.6v-.3l.2-.2.3-.4.1-.1.2-.3.1-.3v-.1l.3-.3.1-.2.1-.1.2-.2.3-.2.7-.6.2-.2.3-.2v-.2l.6-.5.3-.3.2-.2.6-.4.5-.3.5-.5.7-.6.2-.2.2-.2.2-.2.1-.1.1-.2.4-.7.2-.3v-.3l.1-.1.1-.4v-.4l.1-.3v-.7h.1v-.1h3.3l.2-.1.4-.2.4-.1.2-.1.3-.1.4-.1h4.8l.4.1h1.9l.4-.2h.4l.3-.2.2-.1.5-.2.5-.3 1.1-.7.3-.2.3-.2.3-.2.2-.2.2-.1v-.2l.3-.2.2-.3v-.1l.2-.2.1-.4.1-.2.1-.2V88l.1-.2.1-.2v-.3l.1-.4.2-.6.2-1.6v-.2l.1-.1v-.1l.1-.1V84h.2v-.2h.3l.1-.1h2.1l.2.1h.3l.1.1.2.1h.2l.3.2.2.1.3.2.2.2.2.2.2.2.8.9.2.1.2.1.3.1h.9l.2-.2.2-.1.2-.1.3-.3.5-.4.2-.2.3-.3 1.4-1.3.4-.4.3-.3.1-.2.1-.1.2-.2.3-.6.1-.1.2-.2.1-.2h.2l.1-.2h.3l.2-.1h.3l.1-.2.1-.2v-1.3l-.2-2.1v-2.4l-.1-2.1V68l-.1-.4v-.3l-.1-.3-.1-.2-.1-.4-.2-.3v-.2l-.2-.2-.1-.2-.1-.2-.3-.4-.6-.7-.8-1-1-1.4-.7-.8-.5-.5-.2-.2-.3-.3-.2-.2-.3-.2-.3-.2-.3-.2-.9-.5-.3-.2-.3-.2-.3-.2V58l-.2-.2H80l-.1-.3-.3-.3-.5-.7-.1-.1-.2-.2-.2-.2-.2-.2h-.2l-.2-.2-.2-.1h-.3l-.3-1.6-.1-.7-.1-.4v-.6l-.1-.3v-8.2l.1-.7v-.7l.1-.3v-.3l.2-.4.1-.3.2-.2.2-.3.2-.3.2-.3.3-.2.4-.6 2.6-2.7.9-1h.1l.5-.2.7-.2 2.3-1 .7-.3.4-.1.3-.1.4-.1h.3l.4-.2h1.2l.3.1h.4l.3.2.6.1 3.2.8 1 .2.3.1h.3l.3.1h1.9l.7-.1 1.2-.2.4-.1h.5l.5-.1h4.9l.3-.1.3-.1h.2V34l.3-.1.2-.2h.1l.2-.2.1-.1.2-.2v-.1l.2-.2.1-.3.1-.3.2-.5.2-.8.3-.8V30h.1v-.2h.1l.1-.1.3-.2h.8l.3.1.4.1h.3l.7.3 3.1.8 3 .9 2.6.7.8.2 1 .3 1.5.5 2.8 1 .9-1.3.4-.5.6-.9 1.4-2 .2-.3.2-.2.1-.1.1-.2h.1l.2-.1h.2l.2-.1h.6l.3-.6.1-.4.2-.3v-.2l.3-.2.3-.3.3-.1.3-.2h.4l.3-.2h.3l.4-.1 1.4-.3.3-.1.4-.1h.3l.3-.2.3-.1.3-.1.3-.2.2-.2.3-.2.2-.2.5-.5.5-.5.2-.2.2-.3.2-.2.2-.3.1-.2.3-.8.1-.2.2-.2v-.3l.2-.2.2-.2.2-.2.2-.2.2-.2.1-.1.2-.2h.4l.2-.1h1l.2.1.6.2.9.2 1.9.4.7.2.3.1.3.1.4.1.3.2.2.1.3.2.2.2.2.3.2.3.1.2.4.6.1.3.2.3.2.3.2.2.2.3.3.5.4.5.6.7.6.7.6.7.7.7.6.7" clip-path="url(#p35a28f824e)"/></g></g><defs><clipPath id="p35a28f824e"><path d="M7.2 7.2h259.5v266.1H7.2z"/></clipPath></defs></svg>