<svg xmlns="http://www.w3.org/2000/svg" xmlns:xlink="http://www.w3.org/1999/xlink" width="277.8" height="374" viewBox="0 0 208.4 280.5"><defs><style>*{stroke-linejoin:round;stroke-linecap:butt}</style></defs><g id="figure_1"><path id="patch_1" fill="none" d="M0 280.5h208.4V0H0z"/><g id="axes_1"><g id="PatchCollection_1"><defs><path id="m22c2186306" stroke="#f4f4e2" d="M93.7-258.7h.9v.1h.1v.4h.1v.2l.1.1v.1l.3.3.1.1.2.4.1.1v.7h.1v.1h.1l.1.1h.2l.2.1h.4l.3.2h.6l.5-.4v-.1l.4-.3.3-.3.1-.1.2-.1.1-.1.2-.1.2-.1.4-.2.4-.2h.1l.2-.1.2-.1.4-.3.2-.2h.2l.3-.2h.2v-.2h.2l.1-.1.1-.1.4-.3.1-.1.2-.1.1-.1h.1l.2-.1.3-.1h.2l.3-.2h.2v.6h.1v.2h.1l.1.2v.2l-.2.2v.5l-.1.1-.2.4v.6l.1.1.1.1h.1l.2.2.4.2.2.2h.2v.2h.1v.1h.1v.2h.1v.2h.1v.9l.2.2h.1l.2.1h1.7l.1.1.1.2v.4h-.1l-.1.2-.2.2-.1.1-.1.1v.7l.1.1.1.1.2.2h.1l.2.2h.1l.1.1h.1l.3.2h.1l.2.1h.3l.8.2.8.2h.5l.3-.1.2-.1.1-.1.2-.1h.1l.2-.2.2-.1.4-.4.2-.2h.2l.1-.3h.2v-.2h.2l.2-.1h.2l.2-.1h.2l.3-.2 1-.2h1.2l.2.1.2.1.2.1v.1l.2.1.1.2.1.1.2.2.2.2.1.2.4.3.1.1.2.2.2.2.1.2.4.5.1.2.1.1.2.2.2.2.2.2.2.2h.1l.2.2.3.1.4.2 1 .6.4.2.6.3h.1l.1.1h.1v.2h.1v.3l-.1.1-.1.1-.3.3.2.1h.2l.1.1h.2l.1.2h.2l.1.1 1.2.9h.2v.1h.2v.1h.4l.2.1h1.3l.2-.1h.3l.4-.1.4-.1.2-.1.5-.2.8-.3v.2l-.2.2-.1.2-.1.2-.1.2-.1.3v.4l-.1.1v.8l.1.2.2.1h3.4l.4-.1h.2l.2-.1h.1l.2-.2.4-.2h.3l.2-.1h.6l.4.2h.1l.2.1h.3l.3.1h.6v.9h-.1v.2l-.1.1v.1h-.1l-.1.2-.2.3-.1.1-.1.1-.2.3-.1.1-.1.1v1l-.2.4v.6l.2.4v.2l.1.2v1.2l-.1.2v.1l-.1.1-.1.1-.1.1-.2.2-.2.1h-.1l-.2.1h-.2l-.1.1v.2h-.1v.6l.2.3.4 1.5.1.4.1.2v.2l.2.3.2.3v.2l.1.1.1.2.1.2.1.1.2.2.3.5.3.4.1.1.1.2.2.1v.1l.2.1.1.1h.2v.1h.8l.2-.1h2.1l.2.1h.2l.2.1.1.1v.1h.1v.2h.1v1.2l-.1.1-.1.1-.2.2-.3.3-.2.1-.1.2h-.1l-.2.2-.1.2v.2h-.2v.2l-.1.2v.2l-.2.4v.4l-.2 1v.2l-.2.4v.4h-.1l-.1.3v.1l-.2.2v.1l-.2.2v.1l-.2.2-.2.3-.3.2-.3.4-.2.2v.1l-.1.1v.1l-.1.1v.3h-.1v.4l.1.2.1.2.1.1h.2l.1.1h.6l.8.2h.6l.2.1h1l.2-.1.2-.1.2-.1.2-.1v-.1l.2-.2.2-.2.2-.2v-.2h.2v-.1h.1l.1-.1.2-.1h.3l.5-.3h.3l.1-.1h1.2l.1.1.2.1h.2l.1.2.5.2.2.1.2.1.2.1h.3l.1.1h.5l.5-.2h.3l.3-.1h1.4l.1.1.1.1.1.1.1.1.2.3.2.3.1.1v.1l.1.2v.2l.1.3v.2h.1v.1h.1l.1-.1v-.2l.1-.3.1-.5v-.4l.1-.1v-.2h.1l.1-.1.1-.1h.2l.1-.1h.6l.3-.1h.2l.1-.1h.3l.4-.2h1l.2.1.1.1.5.3v.1h.2l.2.1h.8l.6-.2h.1l.2-.1.1-.1.3-.2.7-.4h.1l.3-.2h.2l.2-.1.2-.1h.2l.1-.1.5-.1h.2l.1-.1h.1l.1-.1.1-.1v-.1l.1-.2.1-.1.2-.7.1-.2.1-.1v-.1l.2-.1v-.1l.2-.1.1-.1.1-.1.3-.4.1-.1v-.3h-.1l-.1-.1h-.1l-.2-.1h-.2l-.3-.1-.3-.1h-.4l-.2-.1H163l-.4.1h-.2l-.7.2h-.8v-.2l-.1-.1v-.7l.1-.4v-.2h.1v-.2h.1l.3-.3v-.2h.2v-.2l.2-.3v-.1l.1-.2h.1l.4-.4v-.2l.1-.1v-1.2h.1v-.2l.4-.3.2-.3.2-.3.1-.2.2-.2v-.3l.1-.3.3-.8v-.3l.2-.2v-1.5l-.5-.6v-.2l-.2-.1v-.2h-.1l-.2-.2-.2-.1v-.1h-.1l-.2-.1-.1-.1-.2-.1h-.2l-.2-.1h-.7v-2l.1-.2.1-.3v-.2l.2-.2.3-.8.2-.2v-.1l.3-.4.1-.3.2-.2v-.1l.1-.1h.1v-.1h.5l.1.1.5.3.2.1.3.2h.3l.3.3.8.3.4.2h.3l.3.2h.4l.2.1h1.9l.2.1.2.1.2.2.4.2h.2l.5.3.2.1h.1l.2.1.8.3h.3l.3.1h1.1l.2-.2h.1l.2-.2h.1l.1-.1.4-.4.1-.1h.1v-.1h.9l.6.1h.3l.1.1.2.1h.2l.1.2h.2l.2.2.1.1.1.2h.1l.1.2.4.4.1.2.2.1v.1l.2.1.1.1h1.6l1.2-.4h.2v.8l.1.2v.1l.2.2v.2l.2.2.1.2v.1l.1.1.1.1.2.2h.1l.1.1.3.1.3.1 1 .4.5.2h.1l.2.1.5.2h.2l.2.2h.1l.2.1h.1l.1.2h.1l.1.2.2.2v.1l.1.2v.3l.1.3.2.8.1.5v.2l.2.3v.4l.1.1v1.5l-.1.5v1.3l-.1.1-.1.7v.5l-.1.3v.6l-.1.5v3l.3 1.1v.3l.2.3.2.7v1.4l-.1.2v.3l-.3.7v.3l-.3.5v.2l-.1.2v.2l-.1.1v2.3l.1.2v.3l.2.5v.1l.1.2v1.1l.1.3v.3l.1.2v.2l.2.4v1.2l-.1.6v.8h.2v.1h.5l.2-.1h.1v-.1l.2-.1.2-.2h.2l.1-.1.1-.1h.2l.1-.1h.5l.2.2.2.1.1.1v.1h.1v.2h.1v1.1l-.1.1v.1l-.2.3-.1.2-.1.2h-.1l-.1.2-.2.2-.5.5-.1.2-.1.1v.2l-.1.1v1l.1.2.3.7.1.3v.3h-.2l-.2.2-.2.1-.2.1-.5.3-.4.2-.2.1-.2.1-.5.3-.4.2h-.2l-.2.1h-.1l-.2.1h-.3l-.3.1h-.2l-.2.1h-.8l-.3.1h-1.7l-.5.1h-.4l-.2.1h-.2l-.1.1-.2.1-.4.3h-.1v.1h-.1v.1h-.1v.2l-.1.1v.5l-.1 1-.1.5v.6l.2.5.1.5v.3l.1.1v.2l-.1.1v.1h-.1v.1l-.4.3v.1l-.2.1v3.4l-.1.2v1.6h-.1v.1h-.2v.1l-.4.1-.3.2h-.3l-.1.1h-.3l-.7.2h-.3l-.2.1-.2.1-.6.2-.6.2-.3.1-.2.1-.2.1-.9.5-.3.2-.4.1-.3.2-.4.1h-.1l-.1.1-.2.1-.2.2-.6.3-.5.4-.2.1-.2.2-.2.1-.2.2-.2.2-.4.4v.1h-.1v1.8l-.1.4v.2l-.1.3v.2l-.1.2-.1.1-.2.5-.2.4-.1.3-.1.2-.1.3v.2l-.1.2v.2l-.1.1v3l-.1.1v.1l-.2.1v.1l-.2.1-.1.1-.2.1-.2.1-.4.1-.2.1-.3.1-.3.1-.2.1v.1h-.2l-.2.2h-.1l-.1.2-.2.1-.2.3-.1.1-.2.1-.3.4-.2.1v.1l-.2.1v.1l-.1.2-.1.1-.1.2v.1l-.1.2v.1l-.1.2v.4l-.1.2v.8l.1.1.1.2.2.2.1.1.4.3.1.1.1.2.2.1v.1l.2.2.1.1.1.2h.1v.2l.1.1.1.2v.2l.1.2v.6l-.1.1v.1l-.2.1v.1l-.3.3-.1.1-.1.2-.2.3-.1.2-.2.2-.2.2v.2h-.1v.2l-.1.1v.5l.1.5v.7l-.2.1v.1l-.2.1-.1.1-.1.1-.1.2h-.1l-.1.2v.2l-.2.3v.1l-.2.1v.2h-.2l-.2.2-.2.2h-.2l-.2.2-.3.2h-.3l-.3.1-.3.1h-.2v.1h-.2v.1h-.2l-.1.2-.3.2-.3.2h-.1l-.1.1-.2.1h-.3l-.1.1h-.1l-.1.1h-.1l-.1.1-.1.1-.1.1v.3l-.1.1v.6l.1.5v.7l.1.3v.5l.1.2v.2l.1.2.1.2.1.1.1.1.1.1.2.2.2.2.2.2.2.2.3.3.1.1.1.1h.1l.1.2h.2l.3.2h.2v.2h.2v.2l.1.2v1.3l-.1.2v.2l-.2.1v.2h-.1v.2h-.1l-.1.2-.2.1-.2.2-.2.2-.2.2h-.1l-.4.2h-.2l-.3.2h-.2l-.1.1-.1.1-.3.2h-.2l-.1.1-.4.2h-.2l-.2.1v.1l-.2.1v.2h-.1v.3l-.1.1v.3l-.1.3v.3h-.1v.2h-.1v.1l-.2.1-.1.1h-1.2l-.4-.2h-.6l-.2.1-.1.1-.2.2h-.1l-.1.1h-.1l-.2.1-.2.1h-1.3l-.2.1v.1l-.2.1v.3l-.1.3v.2l-.2.3v.6l-.1.1v.2l-.1.1-.2.4v.4l-.1.2v.5l.1.3v.2l.1.2v.2l.2.5v.9l-.1.2-.2.3-.1.3-.2.4v.1l-.1.2h-.1l-.1.2-.3.1-.1.1v.1h-.1v.2l-.1.4v.6l-.1.2v.2l-.1.3v.4l-.2.8v.8l-.1.1-.1.1-.2.2h-.1l-.2.2h-.2l-.6.5-.4.2-.3.2v.1l-.2.3-.1.2-.1.1-.2.2-.4.3v.1l-.2.2v.1l-.5.7v.3l-.1.1v.6l.1.1h.1l.1.2h.1l.2.2.4.1.3.2h.1l.5.3.1.1h.1l.2.2.5.1h.1l.2.1.2.2h.2l.7.3.6.2h.1l.4.2.2.1h.1l.1.1.4.3.4.3.2.1.1.1v.1h.2l.1.3.3.4.1.2.1.1v.6h-.2v.2h-.1v.2l.1.1.1.2v.4l-.3.2-.1.1-.2.1-.2.3-.1.1h-.4l-.2-.2-.1-.1-.2-.1h-.6v.1h-.7l-.2-.1-.3-.1-.2-.1h-.4l-.2.1v.2l-.1.1v.7l.1.2v.2l.1.1v1l.1.1v.2l.2.3.1.3.1.1v.4h-.1l-.2.1-.4.2-.5.2h-.4l-.3.1v.3h.2l.1.1h.1l.1.1.4.1h.2l.1.1.2.1v.1h.2v.2h.1v.2l.1.1v.4l-.1.2h-.1l-.1.1h-.8l-.1.1v.1h-.1v1.2l-.1.1-.1.1v.1h-.2l-.1.1h-.3v.1h-.2l-.1.1-.1.1v.1l-.1.1v.1h-.1v.9l.2.1.2.5h.1l.1.3.1.2v.1l.2.3v.2l.1.3v.8l-.2.3v.9l.1.1v.1l.1.1.1.2.2.2.1.1v.1l.2.1v.3l.1.2v1.2l.1.2v.2l.4 2 .1.9v.2l.1.1v.2l.1.1.1.2h.4l.2-.1.2-.1h.2l.3-.2h.6l.2-.1h.8l.4-.1h1.2l.1-.1.1-.1.3-.2h.2v-.1h.5v.1l.2.1v.1l.1.1v.2l.1.1v.1l.1.2v.3h.1v.8l.1.1v.1l.2.2.1.3.3.4.2.2v.2h.1l.2.6h.1v.2h.1l.1.2.1.1.2.2.2.2v.1l.1.2.2.1v.1l.1.3.1.1v.2h.1l.2.8.1.2.1.2v.1l.1.1.1.1.4.4v.2l.2.2.1.2v.1l.2.2v.2l.2.6v.2l.1.2v.1l.2.2v.2l.4.5.2.2.2.1v.1h.2l.4.2h.2l.1.1.1.1.1.1v.1l.1.1v.1l.1.1v1.4l-.1.2-.2.3v.2l-.1.2v.4l-.1.5v.4l-.1.2v1l-.1.2v.5l-.1.2v.3h1.8l.4.3h.3l.2.1h.6l.2-.1.2-.1.4-.2.2-.2.6-.2.4-.2.1-.1h.2l.2-.1h.8l.2.1.2.2h.1l.2.2.3.3.2.2.3.2v.1h.1v.2h.1v.2l.1.1v.5l.1.2v.1h.1v.1h.1l.1.2.6.5.2.3h.1l.1.2.1.2.1.1v.5l-.1.2v.1l-.2.3-.4.5v.2l-.2.1-.1.2-.2.2-.2.2-.6.6-.2.1v.1l-.1.2-.2.1-.3.5v.1l-.1.1v.2l-.1.3-.2.5-.1.2v.1l-.1.4v.4l-.1.2v1.4l.1.1v.2h.1l.1.2.1.1.1.1.2.2h.2l.1.1.7.4h.2l.6.2h.1l.2.2h.2l.1.2h.1l.2.1.2.2.2.1.1.1h.6l.2.1v.1l.2.1v.1h.8l.3.2h.6v.1l.1.1v.1h.1l.1.1h.5l.1.1h.1v.1h.1v.1l.1.1v.4h-.1l-.3.3v.1l-.1.2-.1.2v.1l-.1.2v.6l-.1.1v.1l-.1.3v1.9l.2.4v.2l.2.5.1.5v.5l-.1.2h-.1l-.1.2-.2.1-.2.1-.2.1h-1.5l-.2.1-.1.1h-.2l-.1.2-.2.1-.1.1v.1h-.1v.2h-.1v.2l-.1.2v1.2l-.1.2-.2.2-.3.3v.1l-.2.2v.1l-.2.2v.2h-.1v.4l-.1.2v2.4l-.2.2v.1l-.1.1-.2.1-.2.2h-.2l-.1.1-.5.3h-.1l-.1.1-.3.2-.7.5-.1.1-.3.2-.2.1-.3.2-.8.5-.1.1v1.8l.1.2v.1l.1.1.1.2.2.1.1.1h.1l.2.1h.2l.1.1h1.1l.1-.1h.2v-.1l.4-.2.2-.1h.3v.1l.1.1.1.2.1.2v.7l-.3.3v.6l.1.1.1.1v.6l.1.2v.3l-.1.2h-.1l-.1.2-.2.1-.2.2-.5.4h-.1l-.1.2-.1.2-.3.3v.1l-.1.1h-.1l-.1.2h-.2l-.3.2-.2.2h-.1l-.1.1-.2.1-.2.2-.5.4v.1l-.2.1-.1.2v1l-.1.1-.1.2-.1.2h-.1v.1l-.2.1v.1h-.2v.1h-.2l-.1.1-1 .4h-.3l-.2.1h-.9v.1h-.1l-.2.2-.1.1-.2.1v.1l-.2.2h-.2v.1h-.9l-.1-.1-.4-.2h-.1l-.1-.1h-.4v-.1h-1.3l-.2-.1-.3-.1-.2-.1-.2-.1-.2-.1v-.1l-.3-.2-.2-.2-.1-.1-.5-.5-.1-.1-.1-.2h-.1l-.1-.1-.3-.2h-.1l-.1-.1-.2-.1-.1-.1h-.1l-.1-.2-.3-.2h-.1v-.1l-.2-.1h-.1l-.1-.1h-1l-1 .4h-.2v.1l-.1.1-.1.2v.2l-.2.4-.1.1v3.5h-.1v.2h-.2l-.1.2h-.1l-.3.3h-.2v.1h-.2v.1h-.2l-.2.1h-.2l-.3.1h-.7l-.1-.1h-.1v-.1h-.2v-.2l-.1-.1-.1-.1-.2-.2v-.2l-.2-.2v-.1h-.1v-.2h-.1l-.6.2-.3.1h-.2v.1h-.1l-.1.1-.1.2h-.1l-.2.3-.2.2h-.1l-.2.1-.1.1h-.4l-.2.1h-.6l-.5.1h-1.1l-.2-.1v-.1l-.2-.1h-.1l-.2-.3h-.1l-.2-.2-.6-.4-.2-.1-.2-.1h-.2v-.1h-.4l-.4-.1h-.3l-.1-.1h-.1v-.1l-.2-.1v-.1l-.2-.1-.2-.1h-.2l-.1-.1h-.8l-.2-.1h-.2v-.1h-.2l-.1-.2-.3-.2-.2-.2h-.2l-.2-.1h-.6l-.3.1-.2.1h-.1l-.2.1h-.1l-.2.1h-.6l-.3.2h-.4l-.1.1-.1.1-.1.1v.1l-.2.3h-.1l-.1.2h-.1l-.1.1-.1.1-.1.1h-.1l-.1.1h-.2v.1h-.1l-.2.3-.2.3v.2l-.1.2v.1h-.1v.1l-.1.1-.7.7-.3.2-.2.2-.1.2-.1.1-.2.2v.1l-.2.2v.1l-.1.1-.1.2-.1.2v.1l-.1.2v.9l.3.4v.3l.1.1v.2l.1.2v1.1l-.1.1-.1.3-.1.1v.2l-.4.5-.2.4-.2.3-.1.3h-.1v.1l-.1.1h-.1v.1h-.6l-.2-.1-.1-.1-.1-.1v-.1l-.2-.1-.1-.4-.1-.2-.1-.4-.1-.1-.2-.4v-.3l-.1-.1-.1-.1v-.1l-.2-.2-.1-.1-.2-.2-.1-.1-.1-.1-.2-.1-.2-.1v-.1h-.2l-.2-.1-.4-.1-.3-.1-.5-.2-.3-.1-.5-.3-1-.4h-.2l-.2-.1h-.7l-.3.1h-.7l-.3-.2-.2-.1h-.6l-.3.1-.2.1-.2.1-.1.2h-.1l-.1.2-.2.2-.2.2v.2l-.2.3v.2l-.2.5v.1l-.1.2v.1l-.1.1-.1.2h-.1l-.1.2h-.1v.1h-.2v.2h-.2l-.6.3-.2.1-.4.2-.3.2-.5.2-.6.2h-.2l-.2.2h-.3l-.2.1-.5.2-.5.1-.6.1h-.2l-.4.1h-.3l-.2.1h-2.6v.1l-.2.1-.1.1-.1.2h-.1l-.1.2v.1l-.2.2-.1.3v.2l-.1.1-.1.2-.1.1-.1.1-.2.2h-.1l-.2.2h-.3l-.1.1h-.4l-.1-.1-.2-.1-.1-.1-.1-.1v-.1l-.1-.1-.1-.3v-.2l-.1-.2V-22h-.1v-.1l-.1-.1-.1-.1-.1-.2-.3-.2-.2-.1-.3-.2-.2-.2h-.2l-.1-.1-.1-.1-.3-.2-.3-.3-.1-.1-.1-.1-.1-.2v-.3h.1v-.1h.2l.1-.2.3-.1v-.1l.2-.1.6-.6.2-.3.2-.2h.1l.1-.2.4-.1.1-.1.1-.1v-.2l.1-.2v-2l-.1-.2v-.2l-.1-.1-.1-.2-.1-.1-.1-.1-.1-.1-.1-.1-.3-.2-.9-.8-.4-.3-.7-.6-.1-.1-.3-.3-.3-.1v-.2h-.2v-.6l.3-.3.1-.1v-.1l.2-.1v-.2l.2-.4.3-.4.2-.3.4-.8.3-.7.1-.2v-.1h-1.7l-.2-.1-.2-.1h-.2l-.2-.2h-.2l-.1-.2-.2-.1v-.1l-.1-.1v-.2h-.1v-.2l-.2-.3v-.1l-.2-.4-.3-1v-.5l-.3-.5-.2-.9v-.1l-.1-.3v-1.2l-.1-.2v-.1l-.1-.2-.1-.1-.1-.2-.2-.2-.1-.1-.1-.1-.1-.2h-.1l-.2-.2H93l-.4-.3h-.1v-.1l-.2-.1-.2-.2v-.2l-.6-.7-.1-.2-.2-.2v-.1l-.1-.1-.2-.1-.1-.1-.2-.1v-.1l-.3-.1-.5-.3h-.2v-.1l-.2-.1-.1-.2-.1-.1-.3-.4-.1-.2-.1-.1-.1-.1h-.1l-.1-.2h-.2l-.2-.2-.2-.2h-.2l-.1-.1-1.1-.4-.3-.1v-.1h-.2l-.2-.2h-.1l-.2-.2h-.1l-.1-.1v-.1h-1.5l-.2-.1h-.1l-.1-.1-.2-.1-.3-.3h-.1l-.1-.2-.4-.2-.2-.2-.2-.1-.4-.3h-.1l-.1-.2h-.3v-.1h-.6v.1l-.2.1v.1l-.1.1v.1l-.1.2-.1.1v.2l-.1.2v.2l-.1.3v.5l-.1.2-.1.3-.1.1v.2l-.2.2-.1.2v.1h-.1v.1h-.1l-.1.1h-.2v.1H77l-.2.1h-.2l-.2.1-.4.2h-.2l-.2.2h-.1l-.3.3-.2.1-.2.1h-.3v-.1h-.1v-.1l-.1-.2v-.2l-.2-.6-.1-.3-.1-.2-.3-.5-.1-.3-.2-.4v-.2l-.1-.2v-.7l-.1-.2v-.6l.1-.1v-.2l.1-.2.1-.2.3-.6v-.1l.1-.2.1-.1v-.2l.4-.4.4-.6.5-.7.2-.4.2-.2.1-.1.2-.2.3-.2.2-.2.1-.1.5-.3.5-.4h.1v-.3l-.1-.1-.1-.2-.1-.2-.1-.2-.2-.2v-.1l-.2-.1v-.2l-.5-.4-.6-.7-.4-.4-.3-.3-.2-.3-.4-.3-.3-.3H74l-.4-.6h-.2v-.1l-.2-.2H73l-.4-.3-.4-.2-.4-.2-.5-.3-.2-.2H71l-.1-.2-.5-.4-.3-.4H70l-.3-.3-.2-.2-.1-.2-.4-.6-.1-.1-.2-.4v-.1l-.1-.1-.1-.2-.2-.2-.1-.1-.1-.2-.3-.2-.2-.2-.1-.1-.2-.1-.1-.1-.2-.1-.1-.1-.2-.1H66l-.3.2h-.3l-.3.1-.2.1v.1h-.2v.1l-.1.1h-.1l-.2.2-.2.3-.5.6-.1.2-.2.1v.1H63l-.1.2h-.2l-.1.1h-.2v-.2l-.2-.2-.1-.2H62l-.1-.2h-.3l-.4-.2-.3-.1h-.2l-.2-.1H60l-.2.1-1 .4H58l-.1-.1h-.1l-.1-.2-.2-.1-.2-.3-.4-.4h-.1l-.1-.2h-.2l-.1-.1h-.7l-.3.3h-.2l-.1.1h-.5l-.3-.1-.2-.1h-2.8l-.7.2h-1v-.1h-.1l-.1-.1-.1-.2v-.1l-.1-.2v-.3l-.1-.3v-1.2l.2-.8V-74l-.1-.2v-.1l-.2-.2v-.1l-.2-.2-.1-.1-.2-.2-.1-.1-.2-.2-.2-.1-.1-.1-.1-.1h-.2l-.2-.2h-.2l-.2.2-.1.4-.2.3-.1.2-.1.3h-.1v.2h-.2v.2H46l-.1.1h-.5l-.3-.2-.1-.1h-.2l-.1-.1H44l-.4-.1H43l-.2-.1v-.1l-.1-.2-.2-.3-.2-.3v-2.8l-.2-.2-.1-.6-.1-.2-.2-.6-.1-.2v-.2l-.2-.4v-.2l-.1-.1v-.1l-.2-.2v-.2l-.2-.4-.2-.2-.3-.5-.4-.7-.2-.4-.2-.2-.6-.9h-.1l-.4-.6-.2-.4-.4-.6-.6-.7-.1-.2v-.1l-.2-.1-.2-.1v-.1h-.2v-.1h-.7l-.3.2-.1.1h-.2l-.1.1H35v.1l-.8.2H34l-.2.1h-1.2l-.1-.2h-.1l-.1-.1H32v-.2l-.2-.4h-.1v-.2h-.2l-.1-.1-.2-.1-.3-.2-.9-.4h-.2l-.2-.1h-.2l-.6-.2h-.3l-.1-.1h-.2l-.2-.2-.4-.1-.3-.2-.9-.4-.2-.2-.5-.2-.5-.3-.8-.3-.5-.3-.2-.2-.2-.1-.3-.2h-.1l-.1-.1-.1-.1-.2-.2v-.1l-.1-.1v-.1l-.1-.1v-.1l-.1-.4-.1-.1v-.2l-.2-.2-.2-.5-.4-.5v-.2l-.4-.4v-.2H21v-.4l-.1-.2v-.1l-.1-.1v-.1h-.1v-.1h-.1l-.1-.1h-.1l-.1-.1h-1.9l-.8-.2h-.7l-.4-.1h-.4v-.7l.1-.3v-1.2h.1v-.2l.1-.2.2-.2.1-.2.3-.2.4-.4h.1l.1-.2.1-.2v-.7l.1-.1.2-.1.2-.1h.1l.5-.2h.1l.1-.1.1-.1.1-.2v-.4l-.3-.3v-.2l-.1-.1-.1-.1v-.2h-.1v-.4l-.1-.2v-2.5l-.1-.2-.2-.2v-.3H18v-.1h.1l.1-.2h.1l.2-.2v-.2l.2-.1v-.2l.2-.1v-.2l.1-.3.2-.4v-.2l.2-.1v-.2h.2v-.1l.2-.1.3-.2h.1v-.1l.4-.3.2-.1.1-.1h.1l.1-.1h.1l.2-.1.2-.1h.2l.5-.2h.4l.2-.1h.1l.1-.1.1-.1.2-.1.1-.1.4-.3.2-.2.4-.3.1-.1.2-.1v-.1l.2-.2.1-.1v-.1l.2-.2v-1l-.2-.1-.1-.2-.1-.2v-.2h.3l.2-.1H27l.1-.1h.2v-.1l1-.6.1-.2.2-.1.2-.2.2-.2.2-.1.2-.2.4-.2.2-.1.2-.1.1-.1.2-.1.1-.2h.2v-.2h.1l.1-.2v-.1l.1-.1v-.2H31v-.1h-.2v-.1h-.2l-.5-.2h-.4l-.1-.1h-.1l-.1-.1h-.1v-.1h-.1l-.2-.3-.3-.3v-.1h-.1v-.2l-.1-.1v-.5l.1-.1v-.2l.2-.2.1-.2h.2l.3-.1h.9l.2-.1h.2l.1-.1h.1l.1-.1.1-.1h.1v-.1l.2-.2h.1v-.1l.1-.1.1-.1v-.1l.1-.2v-.1l.2-.6v-.2l.1-.2.1-.1v-.1l.1-.1.2-.3.2-.3.1-.2h.1l.2-.2.1-.1h.2l.2-.1.2-.1.4-.1h.3l.1-.1.2-.1.2-.1.2-.2h.1l.3-.3v-.1l.3-.2.2-.2h.1l.1-.1h.2l.2-.2h.2l.2-.1h.2l.2-.1h1l.7-.1h.7l.1-.1h.2l.1-.1h.1l.1-.1v-.1l.1-.1v-.2h-.1l-.1-.1-.5-.3h-.1l-.1-.1-.1-.1-.1-.2-.3-.2v-.1l-.2-.2-.4-.4-.1-.1-.2-.1-.1-.2-.2-.2v-.1l-.1-.2-.1-.1v-.1l-.2-.2v-.2l-.1-.2v-.2l-.1-.2v-1.2l.1-.1v-.2l.1-.1.2-.5v-.3l.1-.2v-1.1l-.1-.7v-1.1l-.1-.1v-.4h-.1v-.2h-1l-.1-.1h-.2l-.1-.1-.1-.1-.3-.1-.6-.5-.3-.1-.2-.1-.5-.3-.2-.1-.4-.3-.5-.4-.2-.2-.2-.2h-.1l-.1-.2h-.1v-.2l-.2-.1-.1-.2v-.1l-.2-.2v-.3l-.1-.2v-.5l-.1-.1v-.4h-.2v-.2h-.2l-.1-.2h-.1l-.2-.1h.1l-.2-.1-.5-.1H30l-.1-.1-.3-.2H29v.1h-.2v.1l-.1.1-.3.4h-.1l-.1.2H28v.1l-.3.1-.2.1h-.1l-.3.2h-.2l-.2.1-.5.2-.2.1h-.1l-.2.1h-1.5l-.3-.1h-.2l-.2-.1-.2-.1-.3-.2h-.1l-.1-.1-.2-.1v-.1l-.2-.2v-.2h-.1v-.6l-.1-.3v-.6l.1-.1v-.1l.1-.2.1-.1.2-.3v-.1l.1-.1v-.1l.1-.2v-.7h-.1l-.1-.2-.5-.5-.3-.2-.2-.2-.1-.2-.2-.1-.4-.5-.1-.2-.2-.1-.2-.2v-.1l-.1-.1-.1-.2v-.1l-.1-.1v-1.5H20v-.1l-.1-.1-.1-.1h-.1l-.2-.1-.1-.1h-.1v-.1l-.3-.3-.1-.1-.3-.4v-.1l-.1-.2-.2-.2v-.2h-.1v-.2l-.2-.1-.1-.1-.2-.2h-.1l-.3-.2-.1-.1-.2-.1-.1-.2-.2-.1-.2-.2-.2-.2.1-.1h.2l.2-.1h.8l.4.2h1l.1-.2.1-.1.1-.1.1-.2.1-.1v-.2h.1v-.4l.1-.3v-.9l.1-.4v-.3l.1-.1v-.2l.1-.1v-.1l.1-.1.1-.1h.1v-.1h.6l.1.1.2.1.1.2.2.1.6.6.2.2.1.1h.1v.1h.1v-.1l.2-.1.1-.1.2-.2h.1l.1-.2h.2l.2-.2.2-.1.4-.2.2-.1.1-.1.1-.1h.1l.1-.2h.1l.1-.2.1-.1.1-.2.2-.2v-.3h.1l.1-.2h.1l.1-.2h.1l.2-.2.2-.1.2-.1.5-.3.1-.1h.1v-.1l.2-.2.1-.1.1-.1v-.1l.1-.2v-.3h.1v-.9h.1v-.1h.2v-.1l.3-.2.2-.2.2-.1v-.2h.2v-.2h.1l.1-.2.2-.3v-1.8l-.1-.1-.1-.2-.1-.2v-.3h1.2l.1-.1v-.6l-.1-.2-.2-.1-.1-.2H30l-.1-.2-.1-.1v-.2h-.1v-.3l-.1-.3v-1.3l.3-.7v-1.6l.1-.1v-.1l.1-.2.2-.5v-.2l.1-.3.1-.6v-.3l.3-.8.2-1.3.1-.2.1-.4.3-1v-.1h.2v2l-.2.2v.1l-.3.7-.1.2-.1.2v.1l-.1.2v.8l.2.2v.1l.3.4.1.2.2.3.2.3.1.3.3.6v.1l.2.2.1.1.1.1h.2l.2.1h.3l.6-.1h1.4l.4-.1h.6l.3-.1h.3l.2-.2h.3l.4-.1 1.3-.5h.3l.3-.1h.2l.3-.1h1.4l.3.1h.5v.1h.2v.1h.1l.1.1.2.2.2.1.2.2h.2l.1.1h2.3v-.2h.1v-.1l.3-.2.1-.1.1-.1.1-.2.1-.1.2-.1v-.1h.1l.1-.1h.2l.2-.1H50l.9-.1h.9v.1h.1l.2.2h.1v.1H54l.1.1.2.1h.5l1.2-.4 1-.3.3-.1.3-.1.2-.1.2-.1.1-.1.1-.1.1-.1.1-.1v-.2l.2-.3v-.2l.1-.1.2-.2h.1l.1-.2.2-.1.2-.1h.2l.2-.2h.5l.1-.1H64l.1.1h.2l.1.1v.1l.3-.2.1-.1.2-.2v-.1l.2-.1v-.1l.1-.2v-.1l.1-.1v-1.2h-.1v-.3H65v-.2l-.2-.2-.1-.1-.3-.2h-.2l-.1-.2-.1-.1-.2-.2-.4-.5-.1-.1h-.1v-.1l-.1-.1h-.2v-.1h-.1l-.2-.1h-.5l-.1-.1h-.2v-.1l-.2-.1v-.1h-.1v-.2h-.2v-.3l-.1-.2v-.5l.1-.2h.1l.1-.2.2-.1.2-.1.1-.1.4-.2 1.2-.7.3-.2h.1l.2-.1h.2l.1-.1h1.2l.1-.1v-.1h.1l.1-.2.2-.3.1-.2.1-.1.2-.1.2-.2.2-.2.4-.2.1-.1v-.1h.1v-1.4h-.1v-.2h-.1v-.1h-.1v-.1h-.1l-.1-.1-.2-.1h-.1v-.1h-.1v-.2l.1-.1h.1v-.1h.2v-.1h.1-.3l-.1-.1h-.4l-.2-.1-.3-.2-.1-.1-.2-.2-.1-.1-.1-.2-.1-.1-.2-.2v-.3l-.3-.5v-.2h-.1l-.1-.2-.2-.2-.4-.5-.2-.3-.2-.3-.4-.6-.3-.6-.1-.1-.1-.2-.2-.2-1-1.2-.1-.2-.1-.1v-.1l-.1-.2v-.5l.2-.1.2-.4v-.2h.1v-.5l-.2-.1h-1.1l-.1-.1-.1-.1H60l-.2-.1v-.2h-.1v-.3l.1-.2.1-.2h.1l.1-.2.4-.4.2-.3v-.2h.1v-.5l-.2-.2-.7-.7-.1-.1-.2-.2-.2-.2-.1-.2-.4-.5v-.1l-.2-.1-.1-.1h-.2v-.1h-1.2l-.1-.1h-.4l-.6-.2-.7-.1h-.2l-.1-.1H55v-.4l.1-.1.1-.1.1-.2.2-.1.2-.2.2-.2v-.1h.2l.2-.2.2-.2h.2v-.1h.2l.3-.2.3-.2.1-.1h.1l.1-.1h.6l.2.2.3.3h.1l.2.1.2.1h1l.2-.1h.2l.5-.2.6-.2.4-.2h.2l.2-.2h.2l.2-.2v-.1l.2-.1.1-.2.1-.2v-.1l.1-.2v-.6l-.1-.1-.1-.1v-.2l-.2-.1v-.2l-.2-.2-.3-.3-.1-.2v-.2h.3l.1-.1.8-.2h.3l.2-.1h.2l.3-.2h.3l.2-.2.2-.1.2-.1.1-.1h.2v-.2h.2l.2-.3.3-.3h.2v-.2h.6l.2.2v.1l.6.6.1.1.1.2.1.1.2.1v.1h.2v.1h.6l.4-.2.7-.3.6-.3.6-.3h.2l.2-.2h.2l.2-.2.2-.2.3-.2.3-.3.5-.4.3-.2.2-.2.4-.3.2-.2.2-.2.2-.1v-.1l.2-.2v-.1l.3-.3v-.2l.2-.2.1-.2v-.1h.1l.2-.2.1-.2.1-.2.3-.3.2-.1v-.1l.3-.1v-.1l.3-.2.3-.2.3-.3.1-.1.2-.2.2-.2v-.1l.2-.3.2-.2.2-.3.3-.3.2-.1v-.1l.7-.4h.2l.2-.2h.3l.4-.1h.2l.3-.1h.3l.3-.2.1-.1.3-.2.2-.2.3-.3.2-.2.2-.2.2-.2h.2l.3-.3h.2l.1-.2h.1l.2-.2v-.1h.1v-.2l.1-.1v-.4l.1-.2v-.5l-.1-.2v-.1l-.1-.2v-.1l-.1-.1v-.1h-.1v-.1l-.2-.2h-.1v-.1l-.1-.1v-.2l.1-.1.1-.1v-1.2l-.1-.3v-1l-.1-.2v-.2l-.1-.2v-.2l-.3-.5-.1-.4-.1-.1v-.1h-.1v-.1h-.1l-.2.2H84l-.1.1h-.1l-.1.1H83l-.3-.1h-.2l-.8-.3h-.2l-.2-.1h-1l-.2.1-.2.1-.1.2h-.1v.2h-.2v.1l-.1.2-.2.3-.2.4v.1l-.2.2v.1l-.2.2-.1.1-.3.3-.1.1-.1.1h-.4v-.2l-.2-.1-.2-.2v-.1l-.1-.2-.1-.1v-.1l-.1-.2v-.9l.1-.2v-.1l.1-.1v-.1l.2-.2.1-.1.2-.2v-.1l.3-.2h.1l.1-.2h.1l.2-.1v-.1h.2l.1-.1h.2l.2-.2h.2l.4-.2.6-.1.5-.2h.2l.2-.1.3-.1h.2l.1-.2h.1l.2-.1.2-.1v-.1h.1l.1-.1.2-.2.2-.2.3-.2.3-.2.2-.2.3-.2.1-.1.2-.2.2-.2.1-.1.2-.2.3-.2h.2v-.1l.1-.2v-.1l.1-.2v-.9h-.1l-.1-.1h-.1v-.1l-.2-.1-.3-.2h-.2l-.2-.2-.2-.1-.1-.2-.1-.1-.1-.2-.1-.2-.1-.2-.1-.3v-.1l-.1-.1v-.6l.1-.1.1-.1v-.1l.2-.1.1-.2.5-.5.2-.2.4-.6.2-.2.1-.1.1-.1.1-.1.2-.1v-.1l.2-.1v-.1l.2-.1v-.3h.1v-.2l.1-.2v-.1l.1-.1v-.3l-.2-.3v-1.4l-.1-.1-.1-.1v-.1l-.2-.2-.1-.1-.1-.1-.2-.2-.1-.1-.1-.1v-.2l.1-.1v-.1l.1-.1v-.1l.1-.3.1-.2v-.1l.2-.2.1-.2.1-.1.5-.5.2-.2.3-.4.3-.2.2-.2.2-.2.4-.3.5-.4.2-.2h.2l.4-.4.3-.1.3-.2.2-.3h.1v-.1h.2v-.2l.1-.1v-.1l.1-.1v-.4h.1v-.8l-.1-.2-.1-.2-.1-.2v-.2l-.2-.1v-.2h-.1l-.1-.2H90l-.1-.2h-.1l-.2-.1h-1.8l-.1-.1h-.2v-.1l-.1-.1v-.2l-.1-.3v-.9l-.1-.2v-1.1l.1-.2v-.2h.1l.1-.2.2-.1.2-.2h.2l.1-.2.3-.1.3-.2.4-.2h.2l.2-.2h.8l.1.1h.2v.1l.2.1h.1l.2.2v.1l.2.2.1.1v.2h.1l.1.3.1.2h.1v.1l.2.2h.1l.2.2.3.2h.1l.2.1h.3l.1.1h.2"/></defs><g clip-path="url(#pb42db7052b)"><use xlink:href="#m22c2186306" y="280.5" fill="#f4f4e2" stroke="#f4f4e2"/></g></g></g></g><defs><clipPath id="pb42db7052b"><path d="M7.2 7.2h194v266.1H7.2z"/></clipPath></defs></svg>