<?xml version="1.0" encoding="UTF-8"?>
<!DOCTYPE svg  PUBLIC '-//W3C//DTD SVG 1.1//EN'  'http://www.w3.org/Graphics/SVG/1.1/DTD/svg11.dtd'>
<svg width="262.46pt" height="280.51pt" version="1.1" viewBox="0 0 262.46 280.51" xmlns="http://www.w3.org/2000/svg" xmlns:xlink="http://www.w3.org/1999/xlink">
 <metadata>
  <rdf:RDF xmlns:cc="http://creativecommons.org/ns#" xmlns:dc="http://purl.org/dc/elements/1.1/" xmlns:rdf="http://www.w3.org/1999/02/22-rdf-syntax-ns#">
   <cc:Work>
    <dc:type rdf:resource="http://purl.org/dc/dcmitype/StillImage"/>
    <dc:date>2024-07-04T12:10:18.453166</dc:date>
    <dc:format>image/svg+xml</dc:format>
    <dc:creator>
     <cc:Agent>
      <dc:title>Matplotlib v3.7.1, https://matplotlib.org/</dc:title>
     </cc:Agent>
    </dc:creator>
   </cc:Work>
  </rdf:RDF>
 </metadata>
 <defs>
  <style type="text/css">*{stroke-linejoin: round; stroke-linecap: butt}</style>
 </defs>
 <g id="figure_1">
  <g id="patch_1">
   <path d="m0 280.51h262.46v-280.51h-262.46v280.51z" fill="none"/>
  </g>
  <g id="axes_1">
   <g id="PatchCollection_1">
    <defs>
     <path id="m0f2a93f8a5" d="m210.3-261.12 0.54578 1.0083 0.32025 0.64 0.14874 0.32389 0.13566 0.32332 0.11828 0.3222 0.095895 0.32141 0.067374 0.32164 0.032725 0.29382 0.011368 0.29441-0.002705 0.29441-0.033108 0.87979-0.002414 0.30159 0.006763 0.29972 0.016957 0.29706 0.028934 0.29345 0.04361 0.28864 0.062074 0.28231 0.085611 0.27405 0.1198 0.2782 0.1443 0.26954 0.16173 0.26345 0.17351 0.25943 0.54754 0.77048 0.17862 0.25906 0.16983 0.26271 0.15596 0.26819 0.13584 0.27586 0.11384 0.29554 0.08942 0.30314 0.068387 0.30775 0.048599 0.30967 0.027917 0.30902 0.004086 0.3057-0.025369 0.29942-0.063272 0.28967-0.10683 0.27436-0.14263 0.26417-0.16862 0.25666-0.1872 0.25122-0.20026 0.24734-0.42463 0.48736-0.66482 0.72246-2.0256 2.1624-0.44297 0.4832-0.42645 0.48526-0.2007 0.2437-0.18664 0.24464-0.16607 0.24579-0.13646 0.24721-0.094478 0.24894-0.035812 0.25104 0.034558 0.24417 0.092299 0.24679 0.13674 0.2497 0.17091 0.25286 0.19719 0.25618 0.21735 0.25944 0.23257 0.26226 0.49344 0.52784 1.0601 1.0847 0.040839 0.057446 0.054872 0.0421 0.092968 0.092146 0.11035 0.12493 0.082323 0.1049 0.077093 0.11136 0.068722 0.11777 0.053227 0.11818 0.025049 0.079469 0.011699 0.057955 0.004076 0.098616-0.010393 0.068502-0.03109 0.093345-0.064063 0.11705-0.1098 0.14167-0.10385 0.10759-0.15121 0.13394-0.1442 0.11305-0.66552 0.466-0.094697 0.07559-0.10519 0.09695-0.11225 0.13065-0.077838 0.12211-0.061491 0.13653-0.043789 0.15614-0.020269 0.15019-0.002981 0.12961 0.005622 0.098547 0.024226 0.17232 0.026808 0.12001 0.058638 0.19136 0.1073 0.25806 0.056497 0.11262 0.11157 0.19567 0.13569 0.20667 0.19547 0.25837 0.17895 0.20489 0.1177 0.12142 0.24662 0.22806 0.34818 0.28136 0.46198 0.35693 0.15837 0.13331 0.18871 0.17402 0.14014 0.14674 0.07839 0.092588 0.075421 0.099679 0.1117 0.17615 0.10498 0.22047 0.055803 0.16138 0.047313 0.19073 0.034485 0.20264 0.019617 0.15512 0.026888 0.30027 0.007977 0.1888-0.002578 0.20672-0.019355 0.18819-0.036953 0.16759-0.031829 0.099431-0.073148 0.17404-0.091339 0.16812-0.068946 0.10944-0.26775 0.39166-0.069985 0.12169-0.05717 0.12413-0.034486 0.098908-0.028584 0.11932-0.012868 0.096695-0.003751 0.11833 0.004198 0.07561 0.023921 0.15366 0.050909 0.17218 0.076714 0.17144 0.077991 0.1326 0.075657 0.10644 0.126 0.14461 0.12395 0.10975 0.089346 0.057435 0.053035 0.018319 0.017859-0.002715-0.003181 0.025543 0.014242 0.1278 0.023915 0.11566 0.028601 0.097169 0.044825 0.12639 0.13203 0.328 0.21465 0.48768 0.038198 0.10062 0.053049 0.16824 0.044952 0.17899 0.10989 0.54882 0.061374 0.27827 0.07676 0.27534 0.090738 0.27097 0.10147 0.26515 0.10966 0.2579 0.11596 0.24905 0.22453 0.43283 0.11119 0.22479 0.10616 0.23435 0.19602 0.47136 0.37184 0.95511 0.20027 0.49803 0.12987 0.29938 0.21034 0.45605 0.35457 0.72743 0.14263 0.35111 0.13459 0.39712 0.10436 0.37756 0.25906 1.1351 0.073518 0.38198 0.037638 0.25338 0.044631 0.43488 0.015501 0.24959 0.009287 0.27713-0.003622 0.47121-0.021518 0.32314-0.017436 0.14538-0.024887 0.14764-0.031683 0.13651-0.053434 0.1636-0.079613 0.16617-0.12671 0.18259-0.15473 0.16785-0.15074 0.13444-0.1641 0.12658-0.194 0.13172-0.20449 0.12473-0.21257 0.1191-0.21848 0.11422-0.32357 0.15673-0.28836 0.12955-0.81115 0.33894-0.95474 0.36178-0.58565 0.23709-0.7531 0.32364-0.56711 0.26448-0.26456 0.13858-0.16173 0.094461-0.15066 0.098665-0.1256 0.094469-0.11186 0.099271-0.10307 0.11448-0.026886 0.036349-0.083263 0.1532-0.042342 0.17776-0.002551 0.1864 0.023028 0.17675 0.038798 0.17631 0.086391 0.30713 0.071582 0.22045 0.053177 0.11925 0.06186 0.11902 0.099084 0.17247 0.11372 0.16347 0.13593 0.14359 0.15902 0.11384 0.54111 0.28898 0.1665 0.12047 0.14612 0.15233 0.1276 0.17714 0.11518 0.19304 0.29635 0.55698 0.076258 0.15629 0.075684 0.19535 0.05917 0.20276 0.04397 0.20576 0.02939 0.2046 0.029835 0.31558 0.021573 0.14966 0.056987 0.28003 0.069313 0.26645 0.073625 0.24742 0.24327 0.76049 0.075808 0.25684 0.052597 0.2009 0.056616 0.26399 0.12974 0.74488 0.09132 0.61668 0.006196 0.06533 0.004881 0.24735-0.031374 0.20951-0.062934 0.20879-0.089906 0.20538-0.11384 0.1989-0.1362 0.18881-0.15622 0.17451-0.17222 0.16151-0.18332 0.14891-0.19028 0.13589-0.24435 0.1511-0.23647 0.12049-0.10754 0.041114-0.17906 0.051629-0.19071 0.038821-0.58128 0.08547-0.28966 0.049382-0.19794 0.039755-0.19498 0.046231-0.17896 0.051035-0.17176 0.059635-0.23895 0.10961-0.12103 0.074748-0.10842 0.08578-0.15822 0.17698-0.13422 0.20025-0.13054 0.20862-0.14556 0.20152-0.16397 0.17405-0.177 0.14934-0.17181 0.11813-0.14319 0.075898-0.086254 0.014777 0.036733 0.087135 0.095395 0.17371 0.13545 0.21361 0.16326 0.2194 0.18342 0.19981 0.19937 0.15955 0.21375 0.10038 0.11563 0.023344 0.20462 7.5e-4 0.2401-0.042817 0.18051-0.051353 0.61068-0.21643 0.18835-0.057546 0.2331-0.043105 0.24571-0.013885 0.25268 0.01749 0.18004 0.032355 0.20127 0.052067 0.1883 0.060338 0.31062 0.11952 0.34726 0.15834 0.24371 0.1239 0.23588 0.13012 0.22493 0.13562 0.18147 0.12203 0.16555 0.13225 0.144 0.14915 0.091361 0.12715 0.07804 0.13866 0.069969 0.1552 0.06071 0.16355 0.083347 0.27192 0.18054 0.6716 0.12435 0.40074 0.086315 0.23344 0.095392 0.23123 0.16035 0.35083 0.13453 0.26854 0.14194 0.26547 0.70077 1.2208 0.40993 0.7503 0.25733 0.50729 0.54563 1.1427 0.28134 0.57532 0.31669 0.60011 0.16686 0.29423 0.1729 0.2869 0.17945 0.27503 0.18662 0.2564 0.19432 0.22832 0.20208 0.188 0.20862 0.13399 0.14972 0.058567 0.4339 0.11037 0.063444 0.02491 0.028666 0.022166-0.096378 0.093379-0.21286 0.22914-0.16985 0.19448-0.23234 0.29178-0.61986 0.87687-0.13428 0.20868-0.11651 0.20732-0.065986 0.13824-0.14436 0.33521-0.07348 0.19668-0.052794 0.19732-0.021288 0.1568-0.003557 0.15584 0.009504 0.12712 0.012942 0.087769 0.014203 0.071573 0.052369 0.19569 0.08807 0.28722 0.037712 0.16661 0.014765 0.10057 0.001665 0.11816-0.010715 0.073443-0.016922 0.057435-0.080889 0.14439-0.22237 0.26577-0.12547 0.16755-0.12671 0.18748-0.17276 0.27222-0.27986 0.46817-0.52599 0.79185-0.22307 0.3689-0.17911 0.32603-0.16322 0.33588-0.12818 0.28774-0.25894 0.62497-0.10837 0.23366-0.14135 0.27578-0.16173 0.27762-0.2811 0.44168-0.13306 0.19122-0.10835 0.13411-0.13528 0.14401-0.19166 0.17152-0.18616 0.14486-0.64265 0.44648-0.24317 0.18208-0.10485 0.088788-0.1154 0.11117-0.086117 0.097225-0.082585 0.11147-0.083023 0.14826-0.03162 0.07396-0.052551 0.15691-0.051648 0.22072-0.093748 0.50145-0.08435 0.29013-0.09082 0.23166-0.11184 0.2345-0.12061 0.21055-0.11797 0.17649-0.56116 0.74307-0.076935 0.11448-0.29126 0.47101-0.15461 0.20101-0.17632 0.19263-0.19192 0.18097-0.2009 0.16463-0.094474 0.069105-0.21499 0.13471-0.19998 0.10125-0.15738 0.062119-0.077837 0.012296-0.055031 0.01917-0.57966 0.1554-0.50016 0.14075-0.4694 0.14637-0.33101 0.12258-0.23653 0.10183-0.21162 0.10178-0.16948 0.098061-0.13595 0.10296-0.11298 0.11601-0.10019 0.12877-0.27058 0.39872-0.095425 0.12837-0.10067 0.12252-0.10662 0.11421-0.14825 0.1346-0.36521 0.29363-0.09799 0.091473-0.16603 0.19216-0.086248 0.090938-0.039928 0.035058-0.10793 0.079126-0.11861 0.072019-0.41492 0.2146-0.16812 0.066328-0.56938 0.17315-0.19832 0.066121-0.19663 0.079797-0.18409 0.093788-0.18048 0.10856-0.17796 0.11991-0.35144 0.26268-0.34766 0.27755-0.33714 0.27624-0.16558 0.15374-0.15725 0.16291-0.1467 0.16539-0.24223 0.29977-0.10814 0.14868 0.056215 0.053384 0.151 0.11924 0.21243 0.15824 0.25208 0.17837 0.2636 0.17718 1.2977 0.83877 0.37054 0.24813 0.46169 0.31864 0.43174 0.31324 0.82318 0.62147 0.5106 0.36305 0.50349 0.33566 0.47266 0.2958 0.48028 0.27714 0.24422 0.12916 0.4684 0.22484 0.26966 0.12022 0.44882 0.1867 0.88436 0.33085 0.28694 0.11914 0.27754 0.13581 0.22604 0.13328 0.21825 0.14777 0.21211 0.15916 0.20726 0.16811 0.16902 0.14492 0.33166 0.30109 0.31276 0.30056 0.39264 0.39499 0.5268 0.54516 0.54946 0.58192 0.37258 0.40656 0.43242 0.49385 0.21198 0.25873 0.18115 0.23908 0.12966 0.19942 0.061614 0.12364 0.15732 0.37815 0.057542 0.11201 0.085139 0.1318 0.077849 0.10124 0.097407 0.10723 0.20949 0.1983 0.11318 0.08968 0.15932 0.097924 0.24759 0.11652 0.24005 0.098129 0.12011 0.043606 0.271 0.082746 0.21636 0.055464 0.68834 0.1235 0.1387 0.03363 0.13677 0.041509 0.14223 0.052734 0.17063 0.082951 0.08 0.044477 0.51253 0.31035 0.19559 0.11142 0.24888 0.12562 0.75902 0.33641 0.23541 0.11113 0.21401 0.1168 0.11533 0.075189 0.31317 0.25588 0.11932 0.088498 0.12714 0.083308 0.11933 0.069883 0.10558 0.075493 0.056843 0.060207 0.035551 0.051428 0.032504 0.066555 0.020506 0.06928 0.01569 0.13725 9.55e-4 0.21734-0.01542 0.36302 0.003534 0.1567 0.013347 0.16301 0.0203 0.16574 0.038493 0.22502 0.034404 0.12804 0.041588 0.10889 0.11103 0.1878 0.085819 0.098201 0.043697 0.04128 0.143 0.10949 0.077307 0.047456 0.12882 0.066639 0.21662 0.08884 0.26506 0.082922 0.3072 0.069184 0.19354 0.028477 0.12325 0.010868 0.52158 0.024917 0.20558 0.024168 0.1498 0.032021 0.13412 0.038184 0.13426 0.049115 0.1366 0.062893 0.10385 0.056105 0.12529 0.079019 0.10115 0.075188 0.10016 0.083446 0.13766 0.12692 0.3298 0.3322 0.17993 0.1706 0.15699 0.13383 0.35269 0.27195 0.18878 0.1545 0.16662 0.1471 0.12967 0.12906 0.077949 0.092415 0.056583 0.07932 0.31714 0.48374 0.045972 0.092134 0.024028 0.063506 0.019566 0.069559 0.015189 0.10356-0.002144 0.14103-0.017963 0.12108-0.029862 0.11878-0.0677 0.19019-0.079332 0.17081-0.08486 0.14767-0.082906 0.11919-0.14904 0.17671-0.087526 0.090734-0.43595 0.41055-0.48784 0.48322-0.084622 0.071008-0.092217 0.065035-0.083585 0.048491-0.089513 0.043088-0.15505 0.053988-0.149 0.029228-0.11051 0.010656-0.21678 0.002484-0.51155-0.036053-0.14908-0.005089-0.24773 0.007821-0.28451 0.025258-0.2582 0.043272-0.16636 0.047832-0.16111 0.07137-0.10601 0.065791-0.085083 0.067416-0.086834 0.089649-0.057361 0.078071-0.035432 0.061148-0.046374 0.10974-0.033134 0.14316-0.001479 0.22604 0.043994 0.22923 0.072901 0.21295 0.082294 0.17006 0.068096 0.090037 0.010116 0.004252 0.021855 6.6e-4 0.10847 0.039291 0.17761 0.088915 0.13255 0.080783 0.13858 0.10534 0.094772 0.09124 0.087761 0.099802 0.082722 0.10529 0.17867 0.24582 0.094106 0.14505 0.050848 0.091703 0.054817 0.11756 0.03393 0.08754 0.029121 0.088668 0.038573 0.15016 0.025817 0.1505 0.013584 0.19884-0.002448 0.1044-0.028001 0.3899 0.006705 0.12087 0.025877 0.11677 0.045233 0.11131 0.086074 0.13684 0.091819 0.114 0.18407 0.20259 0.21786 0.222 0.2443 0.20732 0.083445 0.07845 0.072103 0.087452 0.06483 0.098389 0.059251 0.10715 0.055158 0.11409 0.27721 0.64844 0.11509 0.22295 0.080702 0.13844 0.13121 0.20427 0.15188 0.21622 0.63149 0.83236 0.18953 0.26751 0.14561 0.22227 0.02174 5.86e-4 0.033094 0.024845 0.035596 0.039147 0.04534 0.062251 0.062509 0.10865 0.059571 0.13081 0.089784 0.24795 0.046872 0.15201 0.15292 0.55557 0.073093 0.24648 0.085334 0.24204 0.088884 0.20168 0.13222 0.23511 0.21128 0.33413 0.12589 0.21901 0.055671 0.12055 0.067892 0.18818 0.048976 0.17731 0.047464 0.23218 0.025719 0.23168-0.001807 0.23496-0.033879 0.23968-0.057266 0.23678-0.059304 0.1779-0.06272 0.1516-0.10696 0.21826-0.15404 0.27727-0.24796 0.42132-0.15859 0.28466-0.040897 0.086879-0.070215 0.1895-0.02516 0.10225-0.016194 0.11891-0.002375 0.055307 0.003647 0.10586 0.017474 0.13299 0.061687 0.25703 0.11323 0.36497 0.048574 0.18258 0.024976 0.20141-0.013623 0.13727-0.041879 0.11627-0.037223 0.064375-0.03532 0.048546-0.10862 0.11655-0.089006 0.080291-0.098757 0.079499-0.17925 0.1262-0.23153 0.14202-0.33878 0.18349-0.53415 0.26396-0.15164 0.083282-0.13216 0.08156-0.36918 0.24214-0.19222 0.13481-0.21048 0.16469-0.2113 0.18668-0.18098 0.1922-0.081321 0.10271-0.083594 0.12396-0.099966 0.17923-0.099014 0.21325-0.20779 0.53962-0.078357 0.1754-0.058401 0.11237-0.069837 0.11824-0.068582 0.10304-0.088106 0.11888-0.15199 0.18288-0.15463 0.16781-0.18617 0.17556-0.11863 0.093844-0.15921 0.1034-0.13888 0.065551-0.10347 0.027211-0.057756-0.012977-0.01038 0.40451 4.8e-5 0.26138 0.006182 0.17438 0.014607 0.1806 0.024106 0.17437 0.034476 0.17564 0.072232 0.26649 0.074248 0.20863 0.085928 0.20481 0.15596 0.32655 0.11977 0.22747 0.16121 0.27994 0.10414 0.16487 0.10809 0.15771 0.15687 0.20498 0.18984 0.21314 0.16272 0.15317 0.065933 0.054281 0.17343 0.12092 0.11784 0.064844 0.19784 0.092975 0.12648 0.053824 0.3506 0.13528 0.1933 0.095031 0.61738 0.35591 0.089571 0.056136 0.066264 0.050187 0.074648 0.072991 0.063561 0.082001 0.085121 0.16764 0.028243 0.11269 0.003617 0.11219-0.018139 0.091817-0.037148 0.092894-0.070345 0.11225-0.090522 0.10956-0.12578 0.12428-0.13549 0.11092-0.13987 0.097724-0.17096 0.10195-0.22454 0.11431-0.18079 0.081855-0.18859 0.077463-0.68591 0.25675-0.39349 0.15666-0.4153 0.1829-0.58894 0.27284-0.30603 0.12784-0.18238 0.062755-0.1453 0.042178-0.47612 0.11378-0.31235 0.084941-0.32942 0.10764-0.22885 0.084601-0.25058 0.10509-0.18199 0.087575-0.19135 0.10973-0.11234 0.077285-0.11258 0.091982-0.10398 0.10691-0.088516 0.12642-0.069869 0.16626-0.034169 0.15259-0.015847 0.1782 0.001984 0.13906 0.012434 0.1314 0.020115 0.11877 0.030453 0.12244 0.035762 0.10626 0.057404 0.13201 0.069879 0.12728 0.092483 0.13825 0.12338 0.16329 0.19754 0.23494 0.1286 0.14195 0.26336 0.27224 0.2643 0.24563 0.14876 0.11888 0.18619 0.12111 0.1201 0.05902 0.18793 0.063048 0.5923 0.12015 0.26479 0.080949 0.50175 0.18467 0.17127 0.055329 0.23843 0.055204 0.23807 0.015007 0.1563-0.019066 0.15695-0.038823 0.13742-0.045668 0.13907-0.053556 0.6941-0.28716 0.75674-0.28201 0.217-0.071072 0.23531-0.064946 0.27013-0.053578 0.18457-0.020061 0.16608-0.003209 0.28956 0.033854 0.16148 0.039557 0.14146 0.045952 0.152 0.060529 0.21597 0.10316 0.26364 0.14709 0.40919 0.24511 0.1053 0.051056 0.085158 0.03128 0.089915 0.020441 0.07739 0.003644 0.077388-0.015471 0.060813-0.033353 0.042124-0.050165 0.00304-0.015304 0.056441 0.14072 0.10718 0.19853 0.08594 0.14251 0.20661 0.31454 0.42438 0.61006 0.13703 0.222 0.078232 0.15512 0.045968 0.12211 0.021592 0.082046 0.015285 0.11019-0.003386 0.11306-0.032147 0.12963-0.02846 0.061649-0.07917 0.11043-0.11814 0.10134-0.16476 0.087311-0.15018 0.049325-0.086726 0.019194-0.14083 0.018851-0.16119 0.004469-0.10553-0.006484-0.22063-0.036871-0.16745-0.045946-0.14719-0.051015-0.19883-0.081644-0.43957-0.19573-0.13684-0.0501-0.19683-0.057408-0.20351-0.040401-0.12864-0.015319-0.14402-0.007706-0.19633 0.006112-0.11028 0.01206-0.24998 0.050752-0.13905 0.042406-0.15627 0.060209-0.16418 0.077874-0.20051 0.11811-0.11727 0.084326-0.10139 0.086911-0.10177 0.11035-0.078326 0.11847-0.044861 0.104-0.027429 0.1245 1.03e-4 0.1499 0.048314 0.19007 0.076406 0.14821 0.076067 0.10338 0.090634 0.096343 0.16621 0.13334 0.15226 0.090302 0.13847 0.062744 0.16448 0.055318 0.19188 0.043495 0.12271 0.017846 0.12623 0.011517 0.1538 0.006606 0.42481 0.001342 0.33634 0.013038 0.26056 0.024761 0.194 0.02728 0.16913 0.033224 0.22285 0.062568 0.1585 0.061987 0.11831 0.062828 0.059866 0.040646 0.063575 0.052532 0.060875 0.062249 0.071123 0.095181 0.039616 0.069804 0.037236 0.083678 0.033896 0.10299 0.028834 0.13464 0.013472 0.11342 0.00545 0.14696-0.003807 0.11974-0.022792 0.21985-0.047179 0.24408-0.029775 0.10874-0.052044 0.15028-0.042607 0.10075-0.093867 0.18084-0.057662 0.09366-0.14793 0.21006-0.068482 0.086184-0.12569 0.13362-0.11914 0.094861-0.13359 0.077057-0.13495 0.055915-0.1042 0.031755-0.15369 0.032163-0.13611 0.016618-0.11224 0.007041-0.19548 5.39e-4 -0.19694-0.012931-0.20194-0.026032-0.14147-0.025391-0.1305-0.028736-0.21661-0.059331-0.18503-0.063009-0.19932-0.082881-0.2179-0.11313-0.22439-0.14588-0.15181-0.11677-0.38451-0.34443-0.067295-0.054885-0.15284-0.10433-0.11509-0.061443-0.137-0.058177-0.2442-0.071727-0.26495-0.037689-0.20322-0.00208-0.21266 0.022902-0.27411 0.068056-0.21132 0.082456-0.16969 0.086335-0.20704 0.13126-0.17475 0.13482-0.16485 0.14908-0.12338 0.12708-0.15522 0.18414-0.10242 0.14294-0.081759 0.13336-0.072439 0.14149-0.073865 0.18428-0.05336 0.18348-0.031149 0.15533-0.014566 0.11067-0.00823 0.13448 0.00285 0.085483 0.008678 0.050936 0.023198 0.028557 0.23771 0.29187 0.162 0.21506 0.16032 0.23376 0.35525 0.55368 0.13437 0.20031 0.35946 0.50536 0.38325 0.51131 0.073503 0.12705 0.051901 0.13436 0.016279 0.078262 0.005191 0.077384-0.012541 0.10657-0.027073 0.081537-0.074042 0.1215-0.076723 0.079732-0.10585 0.078347-0.24167 0.13463-0.1023 0.063388-0.11195 0.081213-0.092919 0.077003-0.10009 0.094145-0.056577 0.063261-0.049298 0.069314-0.033033 0.063181-0.024755 0.069383-0.016154 0.074579-0.024656 0.17119-0.033397 0.10277-0.019611 0.03669-0.042619 0.058364-0.156 0.15792-0.060172 0.077946-0.03696 0.082793-0.013985 0.064228-0.014926 0.12829-0.025452 0.084018-0.055557 0.085871-0.046415 0.049573-0.048005 0.041868-0.10312 0.071276-0.14089 0.073837-0.20338 0.078251-0.12651 0.037105-0.13057 0.031084-0.19198 0.034064-0.16431 0.018516-0.15558 0.007275-0.098347-0.002939-0.05575-0.013721 0.003553 0.015757-0.026331 0.070488-0.321 0.68273-0.084733 0.19854-0.13552 0.36681-0.080017 0.27144-0.04705 0.22816-0.019305 0.16085-0.004354 0.14099 0.01325 0.16072 0.023188 0.12805 0.055826 0.20317 0.052937 0.13918 0.070175 0.14681 0.13006 0.22502 0.13694 0.21086 0.17438 0.2509 0.10403 0.13765 0.10114 0.12408 0.18934 0.20529 0.18064 0.16532 0.096098 0.077437 0.17261 0.12367 0.093425 0.059545 0.19542 0.10887 0.12916 0.061312 0.12941 0.053977 0.21518 0.075696 0.31918 0.086378 0.2339 0.046162 0.13945 0.019846 0.13798 0.012473 0.15499 0.003563 0.14404-0.008082 0.19823-0.026944 0.16298-0.032697 0.33932-0.086498 0.34684-0.10294 0.20003-0.065521 0.22419-0.079921 0.25818-0.10163 0.38787-0.17459 0.19861-0.10088 0.17719-0.098027 0.19644-0.11997 0.17093-0.11757 0.19923-0.15919 0.12158-0.11291 0.16896-0.17903 0.11641-0.13673 0.4379-0.56072 0.21847-0.2651 0.1308-0.14304 0.11283-0.11192 0.16879-0.14725 0.11226-0.08438 0.12472-0.08228 0.08876-0.051996 0.15575-0.077622 0.18216-0.06482 0.19611-0.035643 0.20001-0.009964 0.2022 0.005764 0.4379 0.02821 0.23023 0.029114 0.2215 0.060059 0.15159 0.071236 0.1394 0.089834 0.13162 0.10643 0.15639 0.1545 0.14512 0.16738 0.22659 0.27714 0.19691 0.25492 0.10004 0.13586 0.24332 0.3614 0.020357 0.022165 0.56533 0.53689 0.14225 0.1605 0.11416 0.16137 0.2812 0.45104 0.090897 0.13194 0.14987 0.19038 0.29246 0.3403 0.08845 0.10982 0.08702 0.12888 0.047331 0.10315 0.013891 0.051979 0.006082 0.11196-0.017138 0.11388-0.11933 0.4825-0.054942 0.16078-0.070624 0.16772-0.25278 0.52788-0.13492 0.30862-0.054215 0.15595-0.039671 0.15712-0.019855 0.15848 0.007379 0.19204 0.034563 0.19424 0.053156 0.19647 0.19469 0.58326 0.05628 0.18537 0.047689 0.18826 0.028549 0.14819 0.020153 0.14953 0.010955 0.15033 2.07e-4 0.16279-0.013504 0.16215-0.029291 0.16051-0.05696 0.19062-0.045952 0.12418-0.18523 0.43787-0.3538 0.75835-0.03563 0.085172-0.014025 0.043177-0.031614 0.056621-0.054614 0.083617-0.06176 0.08201-0.067181 0.078226-0.11877 0.1194-0.13128 0.11421-0.13457 0.10503-0.26174 0.18086-0.14318 0.08663-0.14327 0.074309-0.14397 0.057746-0.088088 0.024933-0.088704 0.015976-0.098308 0.006649-0.12078-0.004006-0.23795-0.030836-0.5962-0.12505-0.089931-0.012035-0.15574-0.00809-0.081863 0.003995-0.077489 0.011365-0.068069 0.018751-0.062443 0.028274-0.043734 0.029129-0.079291 0.077564-0.06733 0.096819-0.057014 0.11147-0.0476 0.12252-0.043743 0.1519-0.029032 0.14244-0.01937 0.14629-0.008901 0.17484 0.006227 0.15146 0.044963 0.47035 0.008593 0.27197-0.012234 0.15413-0.029821 0.13243-0.046799 0.11047-0.065672 0.093733-0.098395 0.084308-0.11456 0.065833-0.26356 0.1163-0.096161 0.055323-0.093023 0.084031-0.065858 0.10196-0.030625 0.11301 0.007071 0.10863 0.033062 0.10116 0.046326 0.080309 0.046773 0.041685 0.001211 0.018405 0.008694 0.017391 0.062328 0.078463 0.12837 0.1223 0.10812 0.090416 0.19608 0.1436 0.3674 0.22345 0.2677 0.17791 0.26885 0.2039 0.5783 0.46728 0.31726 0.22394 0.10809 0.093447 0.045594 0.049845 0.078464 0.1118 0.05045 0.0913 0.10376 0.22371 0.073562 0.18085 0.18916 0.52237 0.090256 0.23167 0.097638 0.22343 0.052134 0.10659 0.069942 0.12954 0.098632 0.15394 0.1089 0.1315 0.12147 0.10249 0.035316 0.02174 0.11685 0.049134 0.075465 0.015925 0.080331 0.006846 0.083868-0.001679 0.093797-0.010711 0.13642-0.028868 0.16133-0.050484 0.19426-0.079656 0.15585-0.075365 0.49964-0.26792 0.12099-0.055115 0.14953-0.05857 0.19387-0.05793 0.16699-0.03385 0.28539-0.039853 0.16251-0.010632 0.15644 0.005561 0.18483 0.03165 0.10116 0.028618 0.18423 0.071833 0.14756 0.076036 0.13688 0.084811 0.14714 0.10776 0.18913 0.15944 0.18876 0.17856 0.16104 0.17624 0.095702 0.12156 0.073688 0.1052 0.099071 0.17516 0.058622 0.1301 0.085037 0.21665 0.31242 0.89789 0.15506 0.39127 0.097816 0.2105 0.19423 0.38072 0.094018 0.1654 0.10218 0.16091 0.11058 0.15361 0.097859 0.12357 0.16181 0.18786 0.12158 0.13108 0.24905 0.25094 0.6381 0.58952 0.10368 0.10356 0.082906 0.093315 0.076607 0.10181 0.06151 0.10506 0.018564 0.041234 0.026218 0.082353 0.00762 0.04498-0.005029 0.14557-0.067553 0.29576-0.012309 0.088205-0.003135 0.099801 0.008119 0.090613 0.042073 0.16892 0.048402 0.11872 0.039951 0.075829 0.062166 0.09505 0.085655 0.1068 0.10549 0.10669 0.14001 0.11347 0.20959 0.14052 0.17499 0.10693 0.18377 0.10282 0.6491 0.33369 0.30018 0.1605 0.21878 0.134 0.17781 0.14002 0.090753 0.092175 0.108 0.135 0.064233 0.099538 0.043313 0.080913 0.050906 0.12355 0.030527 0.1162 0.012514 0.11749-5.04e-4 0.045916-0.005424 0.062536-0.018031 0.095727-0.035798 0.1144-0.066352 0.14471-0.068585 0.11349-0.070954 0.097514-0.062103 0.074524-0.19436 0.19761-0.15285 0.1339-0.080736 0.062854-0.21363 0.14302-0.13486 0.074693-0.13914 0.066845-0.15819 0.065342-0.20822 0.070966-0.3064 0.084403-0.35673 0.070074-0.30619 0.045908-0.12779 0.03357-0.11124 0.05321-0.12258 0.12368-0.03073 0.057244-0.026402 0.086575-0.005217 0.037832 0.004104 0.1104 0.042366 0.13285 0.049426 0.079549 0.032766 0.038708 0.066818 0.063244 0.078301 0.05896 0.13878 0.082182 0.13978 0.06718 0.32419 0.14094 0.090532 0.045379 0.076603 0.047515 0.093897 0.077674 0.047053 0.051495 0.03767 0.051255 0.046174 0.081473 0.045181 0.11297 0.042999 0.15645 0.13358 0.65489 0.25013 0.95866 0.075501 0.25143 0.12286 0.33362 0.17534 0.41566 0.086168 0.17633 0.063409 0.11374 0.073094 0.10813 0.033914 0.031713 0.029146-0.02402 0.059678-0.025662 0.052679-0.008201 0.041724 0.003925 0.056677 0.021919 0.055346 0.03885 0.053666 0.052107 0.10119 0.12857 0.13957 0.2226 0.15296 0.2856 0.33205 0.66181 0.097113 0.17427 0.10372 0.15529 0.056226 0.065881 0.060609 0.054335 0.29328 0.17087 0.23686 0.12079 0.070708 0.052047 0.068151 0.063784 0.13228 0.15243 0.26931 0.35834 0.14388 0.1824 0.17295 0.19974 0.25646 0.28085-0.031425 0.018226-0.050614 0.073878-0.057521 0.10102-0.12024 0.23814-0.16158 0.35786-0.38082 0.8923-0.091798 0.19508-0.11286 0.22056-0.15882 0.27514-0.11647 0.17679-0.092844 0.12696-0.15153 0.1836-0.18938 0.19416-0.12053 0.10676-0.12536 0.099309-0.086107 0.062032-0.15568 0.10081-0.24956 0.1354-0.1289 0.059167-0.17545 0.070537-0.26949 0.089503-0.27512 0.073111-0.36629 0.079321-0.58437 0.11668-0.39606 0.094646-0.33166 0.10136-0.17754 0.065128-0.17441 0.072054-0.30988 0.14943-0.26416 0.15179-0.25311 0.1699-0.27583 0.2143-0.2191 0.19075-0.20335 0.19131-0.19822 0.19785-0.19392 0.20299-0.4063 0.45247-0.21067 0.25009-0.20396 0.25535-0.23488 0.31671-0.21638 0.32043-0.20349 0.32846-0.41816 0.70676-0.18767 0.29207-0.2189 0.30037-0.1481 0.17885-0.12755 0.14024-0.22556 0.22157-0.23703 0.20329-0.22497 0.17276-0.57399 0.41245-0.19886 0.14932-0.27745 0.22315-0.27082 0.23711-0.1963 0.18324-0.3317 0.32438-0.99883 1.0015-0.41824 0.41184-1.3055 1.2534-0.019195-9.81e-4 -0.040336-0.025027-0.072801-0.057363-0.12205-0.11227-0.10439-0.11171-0.079796-0.10055-0.071476-0.10859-0.076568-0.15224-0.057175-0.15908-0.036944-0.14738-0.084593-0.51684-0.018059-0.069794-0.023033-0.060641-0.022604-0.03997-0.031538-0.036774-0.036512-0.025681-0.053755-0.01546-0.056677 0.005878-0.061329 0.03075-0.057527 0.052986-0.056151 0.079774-0.048355 0.097405-0.040459 0.11078-0.032617 0.12125-0.026022 0.12847-0.035038 0.24739-0.018119 0.23103 0.002256 0.24872 0.017438 0.16356 0.023339 0.12557 0.032584 0.12113 0.043024 0.11523 0.045456 0.091793 0.053146 0.085788 0.085168 0.11062 0.15963 0.18506 0.062546 0.083869 0.061545 0.11236 0.030437 0.091936 0.012917 0.087688-6.8e-5 0.065094-0.016375 0.11525-0.020041 0.076156-0.056219 0.15026-0.099794 0.20198-0.24762 0.44588-0.076479 0.16782-0.034045 0.10792-0.056372 0.27284-0.042553 0.13214-0.052356 0.093277-0.03268 0.034999-0.026281 0.009323-0.004141-0.007081-0.04017-0.011444-0.064621-0.006602-0.18869 1e-5 -0.16612 0.013746-0.77949 0.1134-0.31209 0.028569-0.27639 0.008434-0.089664-0.002407-0.17844-0.015973-0.45285-0.083053-0.11618-0.015724-0.11324-0.008948-0.15858-7.83e-4 -0.13457 0.012502-0.086413 0.01614-0.11452 0.033338-0.1269 0.055899-0.068321 0.039868-0.10764 0.081884-0.099349 0.1149-0.050766 0.1028-0.016205 0.061725-0.008805 0.10881 4.16e-4 0.11609-0.007992 0.065061-0.027551 0.068662-0.020517 0.027287-0.030281 0.027899-0.054207 0.031967-0.073673 0.024414-0.096553 0.012539-0.067717-5.86e-4 -0.077053-0.007572-0.095113-0.017295-0.3153-0.085578-0.057616-0.005903-0.05461 0.004217-0.05376 0.01789-0.057389 0.043293-0.043956 0.067392-0.028916 0.11038-0.002488 0.086759 0.009241 0.086095 0.073381 0.30766 0.03683 0.18438 0.088415 0.61548 0.019931 0.18165 0.002299 0.10281-0.006674 0.085653-0.019201 0.093794-0.052803 0.13259-0.077775 0.11626-0.056503 0.06059-0.059631 0.051018-0.071376 0.04901-0.15123 0.076413-0.43538 0.16066-0.36704 0.15837-0.18949 0.09894-0.26897 0.15137-0.22973 0.10913-0.15944 0.062468-0.27558 0.083448-0.22782 0.047104-0.25916 0.032222-0.23628 0.01145-0.25195-0.004376-0.36789-0.032246-0.71391-0.097936-0.22118-0.021407-0.277-0.012156-0.17869 0.002479-0.20387 0.01347-0.2624 0.036062-0.26941 0.063561-0.17159 0.058456-0.13248 0.057421-0.15578 0.084649-0.16117 0.11239-0.11028 0.096223-0.12181 0.13078-0.13143 0.18145-0.093646 0.17092-0.049732 0.11638-0.055767 0.17633-0.025852 0.12159-0.014431 0.099255-0.013531 0.17892 0.005866 0.088445-0.019917 0.13704-0.0182 0.26005-0.018744 0.15198-0.032479 0.1427-0.058282 0.17277-0.090504 0.21675-0.15597 0.33758-0.11582 0.23097-0.17176 0.31966-0.074624 0.15788-0.062136 0.15947-0.18549 0.57397-0.060944 0.16447-0.052632 0.12482-0.053871 0.10322-0.04763 0.070378-0.06295 0.071807-0.084437 0.074169-0.1316 0.089093-0.10209 0.057054-0.38627 0.18981-0.11582 0.065861-0.13557 0.095689-0.19534 0.16323-0.10912 0.083486-0.24423 0.15813-0.15012 0.080878-0.15955 0.075225-0.16766 0.068945-0.25314 0.08684-0.26476 0.071564-0.24895 0.051375-0.25482 0.040802-0.50425 0.059542-1.1683 0.12002-0.31998 0.042996-0.15837 0.027714-0.15689 0.033744-0.17639 0.047232-0.17304 0.057635-0.19779 0.082187-0.1907 0.09795-0.18201 0.11397-0.18238 0.1398-0.18776 0.17964-0.19154 0.23732-0.091302 0.13838-0.084238 0.1427-0.2175 0.40344-0.20981 0.37354-0.05991 0.10126-0.071503 0.1051-0.014999 0.00757-0.034704 0.029012-0.037187 0.09144-0.035654 0.13457-0.030603 0.17315-0.053881 0.43162-0.02727 0.14507-0.071822 0.26976-0.05599 0.16875-0.10654 0.28176-0.060714 0.14473-0.29772 0.65174-0.11834 0.28777-0.18638 0.52994-0.07756 0.19271-0.10016 0.1784-0.078903 0.092411-0.091098 0.065115-0.12156 0.036783-0.13604 0.001084-0.14586-0.028541-0.078915-0.024853-0.20012-0.080098-0.21167-0.10231-0.21839-0.11856-0.22089-0.13038-0.45847-0.29718-0.30347-0.22111-0.47212-0.37554-0.15072-0.10856-0.21159-0.12323-0.71445-0.34581-0.37411-0.19174-0.23762-0.10887-0.13915-0.050409-0.572-0.17442-0.18673-0.062096-0.23862-0.095466-0.1772-0.089749-0.27602-0.15969-0.099612-0.065746-0.21911-0.15822-0.20508-0.15761-0.71497-0.56936-0.18099-0.13521-0.18107-0.12486-0.11332-0.071585-0.14224-0.082104-0.13635-0.068273-0.12718-0.051531-0.090068-0.027565-0.0524-0.011298-0.11338-5.62e-4 -0.034496 0.032098-0.063754 0.038721 0.035955-0.22494 0.01843-0.06824 0.034621-0.091208 0.14015-0.26153 0.13638-0.29334 0.11707-0.19143 0.060984-0.11384 0.080473-0.17774 0.073935-0.18177 0.11564-0.3057 0.10332-0.30509 0.056247-0.20398 0.070644-0.31159 0.036726-0.12109 0.077656-0.18471 0.054673-0.1055 0.049364-0.081133-0.053016-0.035143-0.11511-0.11171-0.19347-0.20613-0.15486-0.1819-0.099568-0.13011-0.094843-0.1377-0.1021-0.16246-0.085575-0.15124-0.095388-0.20081-0.071079-0.19519-0.23172-0.93399-0.040155-0.14432-0.050286-0.14462-0.064874-0.14749-0.12005-0.23305-0.13599-0.24004-0.45517-0.76234-0.29392-0.47463-0.57838-0.89689-0.47617-0.72058-0.35673-0.52461-0.36705-0.51365-0.1895-0.24732-0.19326-0.23354-0.19851-0.21394-0.20576-0.1865-0.21567-0.14861-0.22904-0.097013-0.22206-0.033778-0.23265 0.008874-0.23974 0.039767-0.24376 0.061124-0.26192 0.081981-0.25699 0.099491-0.24544 0.12057-0.23185 0.14617-0.16336 0.12051-0.42878 0.34965-0.11001 0.077278-0.058827 0.034086-0.096459 0.045438-0.12182 0.040165-0.13509 0.023408-0.10896 0.003896-0.08928-0.004992-0.097252-0.014008-0.095416-0.023103-0.1077-0.037384-0.073462-0.032594-0.32835-0.18012-0.094511-0.044595-0.11158-0.0431-0.24837-0.069491-0.271-0.046483-0.27349-0.022845-0.23251-0.00247-0.14376 0.005649-0.21912 0.018226-0.21863 0.026701-0.77436 0.11027-0.48661 0.044857-0.44206 0.022575-0.52412 0.015044-0.40972-0.005393-0.38605-0.024143-0.25376-0.027028-0.1835-0.026235-0.21639-0.03969-0.33811-0.081742-0.34525-0.098996-0.17008-0.055964-0.16865-0.06091-0.27009-0.1103-0.13379-0.061405-0.20989-0.1058-0.36983-0.20776-0.54378-0.33423-0.21944-0.14425-0.24311-0.16906-0.45851-0.32941-0.23264-0.1597-0.1216-0.075915-0.1907-0.09986-0.15833-0.062237-0.13402-0.041354-0.16167-0.040555-0.61243-0.1269-0.16909-0.046857-0.16184-0.060334-0.053465-0.024806-0.18647-0.10819-0.18193-0.12931-0.3922-0.3082-0.34434-0.29675-0.52351-0.47911-0.28993-0.25748-0.29393-0.24899-0.27259-0.21753-0.269-0.1971-0.33892-0.22349-0.20493-0.11098-0.072916-0.032335-0.17178-0.063689-0.18772-0.05335-0.18112-0.036303-0.23507-0.033841-0.23019-0.018507-0.27333-4.39e-4 -0.18259 0.011141-0.19658 0.029033-0.22403 0.062636-0.24823 0.10331-0.24647 0.13149-0.24906 0.15692-0.17007 0.11925-0.15956 0.1203-0.43059 0.35758-0.005497 0.006959-0.059698 0.028695-0.15122 0.057228-0.30719 0.10265-0.49682 0.1533-0.30113 0.098865-0.1865 0.068456-0.22396 0.090668-0.27646 0.12471-0.32602 0.1642-0.26603 0.14386-0.75842 0.42489-0.43139 0.22435-0.19634 0.09027-0.25281 0.10224-0.23965 0.084538-0.23972 0.070427-0.16596 0.031369-0.10109 0.00278-0.0791-0.010212-0.18662-0.051426-0.10921-0.044492-0.16181-0.088906-0.43137-0.30202-0.11057-0.063766-0.11091-0.044801-0.11071-0.017076-0.091387 0.012753-0.064129 0.022937-0.061778 0.031015-0.084086 0.053219-0.078909 0.058215-0.2439 0.19662-0.074636 0.054246-0.14008 0.085912-0.061214 0.030727-0.1116 0.045797-0.13653 0.038486-0.12345 0.018068-0.14184 0.00163-0.13804-0.014597-0.12849-0.025777-0.11117-0.031431-0.049406-0.019135-0.0139-0.012889-0.038606-0.02479-0.023719-8.96e-4 -0.02554-0.001234-0.021343-0.00885-0.11979-0.076225-0.14253-0.11344-0.15798-0.1444-0.10915-0.11259-0.1843-0.23068-0.081135-0.12621-0.084755-0.15693-0.096944-0.21664-0.24396-0.62065-0.093606-0.21862-0.098309-0.20482-0.1361-0.25455-0.14554-0.24994-0.15181-0.246-0.41203-0.63957-0.26771-0.44689-0.14283-0.25767-0.14762-0.28199-0.38956-0.77239-0.24252-0.43544-0.26271-0.43048-0.42018-0.63212-0.2654-0.41676-0.31904-0.5349-0.13788-0.24129-0.1687-0.31975-0.072998-0.15217-0.11527-0.26238-0.14961-0.3936-0.11434-0.35924-0.06109-0.22884-0.032976-0.14523-0.035276-0.19584-0.021261-0.19246-0.009096-0.18337-0.006512-0.50169-0.027487-0.25149-0.051584-0.24582-0.035806-0.12552-0.043252-0.12073-0.08659-0.1751-0.070246-0.10266-0.10365-0.11292-0.12131-0.092028-0.17514-0.081192-0.19711-0.047693-0.11496-0.013376-0.097812-0.004835-0.16816 0.002772-0.15438 0.012036-0.24202 0.032124-0.24082 0.043626-0.24512 0.053033-0.27398 0.066718-1.3909 0.37888-0.51338 0.13007-0.25072 0.055168-0.25784 0.046603-0.31421 0.036413-0.14859 0.006946-0.12876-0.001246-0.091336-0.006126-0.12344-0.016567-0.090718-0.018766-0.16368-0.049915-0.15208-0.070953-0.18489-0.13074-0.17004-0.16052-0.42686-0.46317-0.19897-0.20751-0.2778-0.26788-0.44058-0.38756-0.27637-0.22005-0.2055-0.14365-0.16593-0.10486-0.153-0.087922-0.11386-0.056054-0.11329-0.042618-0.071134-0.018217-0.17766-0.015094-0.18988 0.032682-0.14841 0.064031-0.16169 0.11494-0.14177 0.14669-0.086834 0.1142-0.08069 0.12427-0.094853 0.17024-0.086321 0.18023-0.078442 0.18857-0.069606 0.19332-0.059945 0.19589-0.043155 0.16965-0.04836 0.25113-0.06366 0.50596-0.048469 0.23482-0.043263 0.15963-0.096188 0.28028-0.068455 0.16372-0.077881 0.1637-0.085374 0.15948-0.12712 0.20989-0.18033 0.25758-0.092156 0.11742-0.14796 0.17222-0.23176 0.23885-0.1555 0.14441-0.17563 0.15121-0.14574 0.11686-0.2591 0.1871-0.10071 0.062519-0.059545 0.029705-0.018317 8.32e-4 -0.019873-0.005603-0.047422 0.012736-0.084485 0.038059-0.21332 0.12316-0.23974 0.16487-0.28359 0.21697-0.46898 0.37308-0.1678 0.14203-0.15376 0.14879-0.34439 0.36258-0.087663 0.079596-0.16398 0.12661-0.21618 0.12802-0.068324 0.032424-0.15891 0.06221-0.19942 0.055553-0.17601 0.031806-0.10583 0.012461-0.17047 0.010342-0.10687-4e-6 -0.15166-0.009491-0.19871-0.029727-0.23317-0.05992-0.177-0.063168-0.17686-0.077659-0.17411-0.088888-0.19079-0.10897-0.20728-0.12779-0.39243-0.25553-0.94057-0.62937-0.43405-0.27648-0.5629-0.33336-0.36322-0.19681-0.26701-0.13186-0.23386-0.10472-0.23599-0.093197-0.21683-0.072138-0.21901-0.057403-0.19031-0.035623-0.19139-0.022394-0.29385-0.008647-0.29242 0.020746-0.15777 0.023345-0.15622 0.031444-0.16513 0.042224-0.16252 0.050512-0.20244 0.075491-0.19672 0.087046-0.15226 0.076888-0.45361 0.24628-0.19698 0.097549-0.54826 0.25057-0.23491 0.11524-0.2981 0.16399-0.30787 0.19296-0.15421 0.10779-0.14895 0.11406-0.22617 0.19956-0.21597 0.22857-0.18122 0.21936-0.38072 0.49332-0.19122 0.21577-0.12101 0.11363-0.1285 0.10145-0.12291 0.079682-0.12886 0.06695-0.26433 0.090217-0.20435 0.032456-0.26772 0.002477-0.15804-0.015017-0.15803-0.024517-0.23432-0.050332-0.224-0.059377-0.45203-0.12461-0.18771-0.058598-0.19127-0.071816-0.22972-0.10754-0.14758-0.082197-0.14377-0.089651-0.15124-0.10413-0.25971-0.2009-0.15804-0.13778-0.11479-0.11339 0.012164-0.05709 0.053667-0.071286 0.20994-0.22784 0.25092-0.24242 0.12688-0.11175 0.28307-0.22789 0.6963-0.5143 0.18358-0.14991 0.10698-0.10491 0.087826-0.1178 0.030426-0.061783 0.016504-0.051058 0.009232-0.11542-0.028331-0.11019-0.039175-0.06929-0.066473-0.081138-0.090933-0.086613-0.078166-0.065962-0.074079-0.058988-0.22248-0.15995-0.31741-0.19676-0.27204-0.13893-0.12892-0.055389-0.15636-0.057818-0.44924-0.14631-0.22337-0.09155-0.30996-0.15911-0.28779-0.17456-0.14792-0.10838-0.059362-0.053504-0.052482-0.056748-0.063056-0.088246-0.024251-0.042797-0.033988-0.072554-0.034701-0.093743-0.036258-0.12423-0.040125-0.16917-0.048367-0.2795-0.032232-0.36779-0.025403-0.56322-0.028491-0.25609-0.058957-0.24026-0.084706-0.24085-0.25294-0.60296-0.07124-0.18178-0.097593-0.29856-0.061896-0.2688-0.028533-0.19285-0.016231-0.25414 0.004558-0.19771 0.019399-0.19804 0.037745-0.21702 0.044563-0.18064 0.03506-0.11588 0.060782-0.16982 0.06547-0.15582 0.10268-0.21484 0.23357-0.45028 0.1138-0.2368 0.087687-0.2235 0.047695-0.18647 0.014861-0.26276-0.037349-0.2665-0.080658-0.26529-0.11862-0.25838-0.15456-0.24455-0.1916-0.22204-0.18991-0.16239-0.21188-0.14196-0.22793-0.12339-0.23854-0.10572-0.24388-0.088245-0.46438-0.13959-0.1974-0.068268-0.20743-0.082117-0.22634-0.10912-0.4539-0.25078-0.031467-0.011709-0.23316 0.15319-0.8867 0.61579-0.27435 0.18226-0.2602 0.16295-0.29536 0.16896-0.23301 0.11956-0.56198 0.25421-0.32185 0.13668-1.1641 0.47666-0.22654 0.080759-0.28235 0.08813-0.20914 0.052099-0.38515 0.079334-0.19462 0.029687-0.73298 0.09515-0.27328 0.046941-0.26001 0.05228-0.2828 0.0673-0.27684 0.084125-0.18512 0.071216-0.21817 0.10142-0.16332 0.093567-0.060382 0.040072-0.1272 0.097507-0.087065 0.07811-0.14708 0.15558-0.035271 0.045737-0.010487 0.021772-0.037374 0.037739-0.22727 0.27862-0.17434 0.18767-0.10975 0.09749-0.064536 0.049926-0.16867 0.10738-0.113 0.056356-0.12469 0.051206-0.18257 0.057593-0.12933 0.028541-0.17837 0.021298-0.30934 0.002714-0.28649 0.022823-0.12567 0.018408-0.090216 0.01964-0.14738 0.048791-0.069763 0.031643-0.092978 0.051019-0.15816 0.10719-0.3613 0.29389-0.10487 0.07767-0.10911 0.070983-0.10416 0.056799-0.10852 0.047882-0.098184 0.033759-0.10098 0.026732-0.20441 0.033995-0.70889 0.049751-0.35914 0.040729-0.20405 0.031311-0.40809 0.090011-0.4793 0.12789-0.004205 0.020181 0.026318 0.029543 0.14257 0.084345 0.78074 0.35449 0.31713 0.15565 0.31201 0.17396 0.29628 0.19678 0.27074 0.2208 0.25039 0.24135 0.23382 0.25536 0.22034 0.26448 0.3119 0.40917 0.65826 0.93775 0.74413 0.96994 0.11346 0.17207 0.082814 0.14342 0.10001 0.19661 0.059168 0.13398 0.072933 0.194 0.06337 0.2001 0.040944 0.16009 0.030754 0.16197 0.015133 0.12456 0.010166 0.19254-0.003432 0.14726-0.014617 0.15325-0.031346 0.19955-0.041114 0.18952-0.050406 0.18253-0.04601 0.13078-0.076007 0.15005-0.070548 0.09274-0.033014 0.033642-0.060149 0.051388-0.1225 0.080872-0.22459 0.104-0.25646 0.081726-0.28472 0.066208-0.35505 0.0634-0.58353 0.089875-0.2745 0.046706-0.22434 0.044541-0.22371 0.051433-0.22463 0.059657-0.22291 0.067714-0.25223 0.087366-0.42251 0.16947-0.43221 0.19698-1.2749 0.63226-0.28066 0.13422-0.63634 0.28981-0.9605 0.42443-0.96966 0.42008-0.81547 0.34283-0.19858 0.073073-0.052302 0.035796-0.025182 0.10485-0.001795 0.15152 0.021167 0.17589 0.040328 0.19287 0.054933 0.20085 0.064082 0.19799 0.1934 0.5384 0.037152 0.12805 0.029208 0.14668 0.007486 0.15007-0.02173 0.13725-0.044325 0.10573-0.019071 0.031404-0.068743 0.086747-0.064695 0.061713-0.067492 0.053539-0.11273 0.075846-0.12832 0.072331-0.15157 0.07004-0.12525 0.049378-0.18926 0.067274-0.31058 0.099615-0.41117 0.11014-0.2789 0.062397-0.43228 0.084729-1.2053 0.20924-0.42094 0.079491-0.54175 0.11997-0.7626 0.19431-0.20762 0.037922-0.21909 0.0227-0.14243 0.005771-0.12698-0.001196-0.24284-0.020344-0.24577-0.042267-0.31896-0.073152-0.2536-0.074022-0.25973-0.10004-0.15969-0.08363-0.079853-0.05232-0.11619-0.087798-0.12011-0.10566-0.1146-0.11628-0.11258-0.12887-0.15962-0.20746-0.32155-0.4531-0.14852-0.19788-0.42144-0.53384-0.22786-0.29805-0.11717-0.16268-0.15018-0.22225-0.088737-0.14325-0.038552-0.073899-0.19201 0.047022-0.40322 0.08671 0.037791 0.11397 0.23167 0.60345 0.1092 0.32487 0.050086 0.18792 0.021685 0.10413 0.030109 0.19816 0.016818 0.1858 0.003949 0.24109-0.009563 0.11312-0.020686 0.10498-0.035466 0.094063-0.05164 0.078573-0.073761 0.071853-0.064171 0.041035-0.083058 0.032942-0.068967 0.016784-0.068004 0.0096-0.12826 0.003181-0.40775-0.015378-0.24122-0.028824-0.13795-0.028164-0.092501-0.026818-0.086896-0.034032-0.083333-0.045601-0.071693-0.058261-0.062845-0.081786-0.048474-0.097202-0.037719-0.10915-0.029764-0.11848-0.023945-0.12584-0.05102-0.40825-0.061917-0.80371-0.011974-0.1062-0.071004 0.02553-1.5096 0.41965-0.89934 0.27038-0.19663 0.063606-0.24791 0.090924-0.2551 0.11972-0.16268 0.099524-0.088018 0.06092-0.50067 0.37832-0.45696 0.31563-0.26807 0.16032-0.43413 0.23552-0.20934 0.12251-0.15515 0.10522-0.13191 0.10402-0.069272 0.062166-0.099241 0.10192-0.11534 0.15078-0.062909 0.11635-0.041422 0.12269-0.016151 0.10846-4.15e-4 0.11346 0.02628 0.18303 0.053472 0.18893 0.049506 0.13141 0.058472 0.13251 0.11282 0.21875 0.12444 0.21014 0.27802 0.44141 0.19681 0.3313 0.093333 0.16819 0.1398 0.27318 0.12191 0.27161 0.098278 0.26678 0.066803 0.25828 0.024812 0.24543-0.031048 0.22731-0.090221 0.19517-0.13508 0.18322-0.16179 0.18056-0.50285 0.53494-0.16067 0.18298-0.11488 0.14212-0.10735 0.14452-0.12223 0.19111-0.067783 0.13507-0.049013 0.13939-0.030246 0.20458 0.005618 0.18275 0.013613 0.10519 0.046365 0.21457 0.077642 0.24279 0.099976 0.24503 0.11822 0.24544 0.13384 0.2441 0.081477 0.1362 0.23708 0.36886 0.99514 1.468 0.26008 0.35413 0.19423 0.23414 0.2373 0.25824 0.1288 0.13011 0.21345 0.20064 0.4879 0.42719 0.12854 0.12392 0.12 0.13644 0.11292 0.14794 0.1024 0.14814 0.099733 0.15446 0.49617 0.80626 0.53824 0.83211 0.1341 0.22929 0.086927 0.17597 0.073907 0.19795 0.037027 0.16906 0.008734 0.13504-0.004715 0.081765-0.020155 0.11852-0.047284 0.15394-0.04333 0.1022-0.084245 0.15874-0.058423 0.093922-0.095201 0.1366-0.097595 0.12533-0.10441 0.12262-0.15022 0.1594-0.14628 0.14095-0.14994 0.13305-0.068521-0.064833-0.20144-0.22399-0.24663-0.28981-0.20191-0.25148-0.29254-0.40868-0.47655-0.70225-0.28982-0.45601-0.22981-0.39477-0.14663-0.28037-0.44592-0.91103-0.16128-0.28842-0.10455-0.16467-0.10481-0.14773-0.1364-0.1663-0.14872-0.14681-0.17086-0.12482-0.14271-0.069057-0.12962-0.036966-0.19084-0.021989-0.22276 0.008097-0.14602 0.018374-0.14891 0.02615-0.2656 0.059918-0.33739 0.093128-0.47929 0.15268-0.41608 0.11656-1.4467 0.34669-0.33396 0.095728-0.18164 0.06107-0.89334 0.32597-0.3532 0.14429-0.52591 0.2349-0.2385 0.091543-0.11741 0.035878-0.22117 0.042826-0.22438 7.09e-4 -0.046342-0.004447-0.17876-0.030242-0.17819-0.045902-0.52468-0.1645-0.22302-0.075105-0.25973-0.10884-0.22704-0.1113-0.13141-0.077558-0.12876-0.086047-0.17853-0.13226-0.37612-0.29221-0.4557-0.33218-0.16372-0.12527-0.5811-0.47198-0.15644-0.11957-0.31293-0.22595-0.23714-0.16106-0.37287-0.21749-0.19137-0.11614-0.18255-0.11948-0.16705-0.12008-0.19205-0.14785-0.074833-0.05086-0.17828-0.10194-0.28332-0.14071-0.082337-0.047906-0.051142-0.035866-0.087047-0.083369-0.065153-0.095102-0.044457-0.099571-0.017921-0.053994-0.084403-0.34199-0.09642-0.35934-0.12627-0.57486-0.07224-0.23409-0.064671-0.15509-0.075068-0.15314-0.1574-0.2942-0.10648-0.21449-0.10081-0.22375-0.095297-0.23002-0.17341-0.46856-0.1347-0.40361-0.092085-0.32296-0.05485-0.23366-0.19093-0.93013-0.047125-0.27295-0.018717-0.14761-0.014517-0.18504-0.001798-0.20401 0.041833-0.47878 0.020734-0.39801 5.76e-4 -0.42534-0.010551-0.24138-0.034085-0.38234-0.038726-0.2512-0.027258-0.11987-0.037841-0.12049-0.023015-0.056193-0.046831-0.088878-0.077525-0.10007-0.076743-0.06697-0.047502-0.032988-0.11688-0.06751-0.25575-0.12989-0.15249-0.088094-0.12601-0.08788-0.37896-0.30522-0.11874-0.088599-0.55788-0.36955-0.1745-0.10722-0.18401-0.095338-0.14094-0.058549-0.24227-0.083438-0.4613-0.14301-0.11073-0.040122-0.17021-0.074943-0.12568-0.071008-0.13215-0.094241-0.13613-0.1185-0.11256-0.11766-0.14948-0.19209-0.12883-0.20741-0.1074-0.21715-0.08381-0.22194-0.056595-0.22214-0.028715-0.22199-0.022394-0.31821-0.016998-0.13144-0.05457-0.19782-0.088953-0.17184-0.064494-0.081808-0.093871-0.090361-0.13643-0.090282-0.21526-0.11142-0.14031-0.098545-0.063644-0.076554-0.037008-0.074207-0.028529-0.12894-0.004229-0.12839 0.006441-0.1002 0.014627-0.11318 0.023611-0.12746 0.030668-0.13227 0.068183-0.24348 0.23356-0.73681 0.062334-0.22956 0.04617-0.22646 0.022205-0.22138-0.010841-0.21408-0.050161-0.20322-0.082837-0.19464-0.13559-0.23121-0.1789-0.25531-0.15563-0.20026-0.1469-0.1701-0.38504-0.42128-0.45725-0.55693-0.14832-0.15864-0.102-0.098108-0.11328-0.099392-0.15928-0.12716-0.18662-0.13375-0.16677-0.10834-0.16938-0.10111-0.187-0.10224-0.47036-0.23416-0.4007-0.18814-0.47628-0.2065-0.56903-0.22159-0.11492-0.061125-0.16881-0.12748-0.13313-0.13167-0.13053-0.14788-0.28092-0.33895-0.25241-0.31592-0.33345-0.4476-0.25717-0.38008-0.21089-0.34477-0.12987-0.23338-0.09046-0.17753-0.083183-0.1777-0.10242-0.24459-0.1288-0.35077-0.098373-0.24425-0.037405-0.077879-0.10478-0.18261-0.26316-0.39442-0.11248-0.20918-0.10078-0.229-0.092508-0.24385-0.088165-0.25837-0.14709-0.47649-0.14451-0.51791-0.056759-0.23359-0.046325-0.2214-0.033877-0.18734-0.049231-0.34215-0.026606-0.3096-5.69e-4 -0.15201 0.009991-0.12662 0.038205-0.23311 0.1315-0.6191 0.13734-0.52777 0.073673-0.36534 0.034815-0.20104 0.01893-0.21821-0.002444-0.11896-0.015116-0.11647-0.058195-0.19198-0.10733-0.20832-0.091844-0.13236-0.10268-0.12151-0.11431-0.12042-0.13796-0.13788-0.2008-0.18892-0.3178-0.27687-0.29417-0.23763-0.2281-0.16654-0.49163-0.32468-0.18574-0.12872-0.11429-0.092888-0.032968-0.041957 0.003365-0.015183-0.017538 0.022174-0.046867 0.038979-0.12509 0.0894-0.14622 0.091965-0.1011 0.053361-0.17647 0.072725-0.19824 0.059929-0.31086 0.06438-0.31346 0.040955-0.28221 0.022789-0.23249 0.010406-0.50615 0.001967-0.38476-0.009803-1.1164-0.042347-0.40275-0.007929-0.48551 0.00239-0.80866 0.025338-0.34855 0.002013-0.21242-0.005866-0.40877-0.027651-0.32382-0.041001-0.15263-0.028386-0.14087-0.033784-0.13528-0.041501-0.22741-0.09907-0.12407-0.078036-0.15258-0.13171-0.11306-0.12316-0.1884-0.24073-0.11905-0.16854-0.17596-0.26426-0.49213-0.76536-0.096534-0.13791-0.14231-0.17578-0.17981-0.1877-0.082841-0.075184-0.15413-0.11984-0.087721-0.055392-0.091768-0.04634-0.092613-0.032556-0.069104-0.013382-0.09279-2.88e-4 -0.10667 0.02894-0.086632 0.045767-0.093533 0.069174-0.11283 0.1046-0.38074 0.39346-0.54631 0.52567-0.46915 0.43165-0.21085 0.17531-0.20098 0.15425-0.20463 0.14739-0.19689 0.13314-0.17401 0.10802-0.16974 0.094038-0.19518 0.093677-0.22951 0.090409-0.22426 0.068134-0.23916 0.053935-0.19492 0.03289-0.24972 0.031423-0.37412 0.031073-0.4636 0.022743-0.51077 0.012818-0.49814 0.001453-0.28235-0.00561-0.30894-0.014249-0.30133-0.025361-0.28108-0.039138-0.26689-0.060316-0.19585-0.067754-0.1809-0.091398-0.17102-0.12564-0.1537-0.1521-0.13882-0.17339-0.14202-0.21769-0.12768-0.23484-0.095685-0.20345-0.088212-0.21064-0.081436-0.21643-0.081567-0.24098-0.07521-0.24524-0.14702-0.54965-0.12615-0.54836-0.10217-0.49141-0.15536-0.80506-0.087764-0.50369-0.046257-0.30673-0.18268-1.435-0.052769-0.33816-0.031844-0.17093-0.043467-0.20168-0.044585-0.17606-0.050997-0.17135-0.071004-0.1979-0.10136-0.22369-0.093513-0.16171-0.1086-0.14991-0.12995-0.15013-0.14311-0.1464-0.1475-0.13494-0.12257-0.099162-0.15964-0.1133-0.29512-0.18543-0.13044-0.099324-0.10426-0.10086-0.054397-0.063611-0.074403-0.10345-0.046968-0.079994-0.040129-0.083711-0.04439-0.11947-0.041609-0.14982-0.028648-0.13552-0.15171-0.93392-0.10294-0.8544-0.034309-0.19059-0.022921-0.098193-0.042107-0.13831-0.035148-0.085731-0.033632-0.06478-0.070779-0.10518-0.044134-0.052983-0.085014-0.085851-0.076347-0.064961-0.085251-0.063416-0.11788-0.076019-0.11132-0.062657-0.084216-0.042072-0.11892-0.04955-0.15471-0.044561-0.12944-0.017735-0.13513-0.004282-0.16268 0.008222-0.2202 0.026644-0.61736 0.10329-0.23779 0.019721-0.14667-0.006334-0.21918-0.037784-0.20028-0.054806-0.17933-0.085106-0.034016-0.023882-0.081929-0.073516-0.064871-0.078826-0.05371-0.089805-0.048369-0.12199-0.03064-0.12281-0.016358-0.11861-0.005719-0.12872 0.004009-0.13028 0.01546-0.1632 0.023929-0.15619 0.027427-0.13083 0.041937-0.15187 0.048819-0.14199 0.053446-0.13144 0.073107-0.1568 0.080243-0.15381 0.098952-0.16976 0.04353-0.065884 0.015964-0.016295 0.053571-0.030276 0.10582-0.10305 0.49416-0.57245 0.72495-0.7713 0.21697-0.25367 0.20364-0.27194 0.15912-0.23317 0.12571-0.19913 0.11798-0.2052 0.082235-0.16852 0.049334-0.12331 0.056264-0.18375 0.034632-0.16452 0.02762-0.21672 0.010943-0.22704-0.006877-0.26001-0.021176-0.1739-0.041728-0.1793-0.037312-0.10081-0.047895-0.10306-0.25553-0.47284-0.12922-0.25993-0.10502-0.23215-0.17351-0.42037-0.054953-0.15243-0.075458-0.25717-0.045243-0.20078-0.025851-0.18742-0.005245-0.12468 0.006522-0.16838 0.012826-0.11483 0.030819-0.17228 0.048523-0.18992 0.054619-0.17971 0.19185-0.52897 0.076076-0.24352 0.03481-0.1552 0.02111-0.13586 0.008906-0.11169-0.001681-0.11528-0.020994-0.18407-0.039426-0.15943-0.047929-0.11652-0.15396-0.29879-0.05247-0.11196-0.057402-0.1441-0.042386-0.13836-0.047774-0.18831-0.1099-0.5173-0.043102-0.15278-0.083267-0.24926-0.028873-0.11004-0.021063-0.14932-0.00197-0.17544 0.015336-0.16438 0.024677-0.14364 0.22703-1.0348 0.07305-0.24909 0.237-0.71313 0.08534-0.31352 0.029683-0.15075 0.019784-0.15223 0.012026-0.16948 0.001802-0.14612-0.011921-0.22819-0.024518-0.21587-0.040799-0.20113-0.053483-0.16508-0.05699-0.12771-0.058933-0.10768-0.30013-0.46088-0.052978-0.090541-0.015057-0.042626 0.064937-0.11663 0.033828-0.086762 0.01725-0.066653 0.010645-0.12249-0.011714-0.12482-0.025508-0.13913-0.021506-0.086959-0.029848-0.08858-0.057173-0.12458-0.14574-0.28182-0.065294-0.15939-0.021515-0.088415-0.007255-0.082564 0.004299-0.084018 0.020667-0.10715 0.026815-0.085104 0.08876-0.20018 0.097661-0.16626 0.27612-0.38029 0.099597-0.1482 0.065209-0.12109 0.039244-0.091287 0.053645-0.1605 0.034373-0.16651 0.005833-0.069516-0.002423-0.093559-0.014787-0.089252-0.08529-0.29622-0.01028-0.094678 0.009725-0.10415 0.071579-0.25427 0.012243-0.066893 0.003317-0.05321-0.008561-0.031019-0.026558-0.043862-0.040103-0.050927-0.17811-0.20689-0.15829-0.17171-0.12544-0.12034-0.12112-0.097191-0.075871-0.05063-0.10576-0.057384-0.086339-0.035773-0.10003-0.030277-0.082255-0.016969-0.10113-0.01297-0.13711-0.007115-0.20717 0.003349-0.40626 0.022965-0.24182 0.00809-0.18635-3.63e-4 -0.207-0.011792-0.15471-0.022339-0.12962-0.032228-0.11894-0.04385-0.14025-0.073229-0.10112-0.070407-0.046915-0.039118-0.063314-0.060831-0.055153-0.062935-0.062651-0.087277-0.041333-0.070415-0.067978-0.15245-0.04331-0.15242-0.018242-0.11889-0.004344-0.082945 0.004134-0.08803 0.014096-0.086837 0.014079-0.054065 0.044073-0.1148 0.044792-0.08416 0.048653-0.076052 0.067271-0.091786 0.099123-0.12036 0.10957-0.12226 0.40793-0.42862 0.20502-0.22327 0.25655-0.2959 0.51427-0.609 0.59316-0.66427 0.11639-0.1266 0.18102-0.1846 0.1475-0.13825 0.22386-0.19475 1.1147-0.92132 0.19882-0.15062 0.60918-0.42992 0.32326-0.24476 0.19128-0.1667 0.17789-0.18078 0.16094-0.19331 0.13933-0.20495 0.094948-0.17536 0.083895-0.18863 0.085969-0.22976 0.06039-0.19381 0.031745-0.13903 0.02716-0.16057 0.065339-0.45997 0.04415-0.18031 0.028798-0.078398 0.04483-0.091452 0.049574-0.077737 0.0544-0.066873 0.080671-0.076526 0.099724-0.073963 0.11699-0.071319 0.13582-0.069286 0.37526-0.1505 0.63703-0.22412 0.27293-0.10624 0.24208-0.10906 0.20249-0.11813 0.18275-0.14211 0.17541-0.19044 0.14008-0.21621 0.10142-0.23571 0.056321-0.25049 0.005708-0.26659-0.02005-0.1807-0.035189-0.18296-0.037969-0.14936-0.04538-0.14961-0.067178-0.1898-0.070986-0.17663-0.16422-0.37816-0.18795-0.4767-0.56713-1.602-0.087853-0.21496-0.48291-1.1045-0.13669-0.33765-0.1068-0.29376-0.086739-0.25898-0.27046-0.87635-0.14378-0.38295-0.17826-0.41016-0.10025-0.2126-0.069246-0.13345-0.18868-0.33206-0.26761-0.43197-0.18145-0.27064-0.36246-0.52201-0.16591-0.25838-0.073122-0.12694-0.054194-0.1032-0.069762-0.15219-0.023508-0.059488-0.069621-0.21734-0.060333-0.22103-0.22972-0.75256-0.076802-0.28023-0.12889-0.43685-0.069076-0.2674-0.065215-0.3773-0.078705-0.59732-0.003662-0.25567 0.021792-0.1506 0.062535-0.21621 0.082728-0.18668 0.10551-0.17311 0.086209-0.10008 0.038362-0.021456-0.026299-0.02945-0.046163-0.09849-0.32758-0.84058-0.075274-0.17057-0.096326-0.18886-0.111-0.17539-0.11473-0.14037-0.11072-0.10432-0.13556-0.10076-0.099445-0.060997-0.16938-0.086169-0.13594-0.057163-0.1728-0.06203-0.19563-0.062495-0.75499-0.22214-0.27084-0.08616-0.32109-0.11717-0.2435-0.10426-0.34411-0.16966-0.1536-0.083088-0.29484-0.17145-0.39136-0.24501-0.49061-0.32751-0.17477-0.12174-0.38006-0.27788-0.32099-0.25111-0.18124-0.1489-0.40852-0.35424-0.26039-0.24421-0.13199-0.13212-0.23043-0.2498-0.12081-0.14359-0.21058-0.27951-0.089935-0.13518-0.11849-0.20021-0.070197-0.1337-0.085477-0.18406-0.055539-0.13614-0.047745-0.13788-0.049326-0.1878-0.10713-0.57076-0.061001-0.24973-0.045187-0.14717-0.17284-0.50275-0.065739-0.22243-0.049854-0.23521-0.027465-0.23658-0.001976-0.23503 0.033171-0.27052 0.064853-0.26001 0.089058-0.24464 0.04525-0.10053 0.23167-0.42709 0.072025-0.16661 0.055619-0.20438 0.031197-0.21963 0.012096-0.23162-0.002618-0.24093-0.009678-0.18934-0.045104-0.49473-0.1261-0.96565-0.1506-0.95866-0.80802-4.6038-0.62829-3.6316-0.029667-0.11186-0.099801-0.50335-0.18364-1.0293-0.17239-1.0768-0.094288-0.70057-0.037414-0.34381-0.028627-0.33988-0.017497-0.33642-0.004944-0.33867 0.01678-0.99884-6.26e-4 -0.32711-0.012573-0.3237-0.030964-0.31966-0.018018-0.12003-0.050784-0.25804-0.063618-0.25515-0.073032-0.25272-0.079626-0.2506-0.25534-0.74708-0.1233-0.38123-0.097302-0.27628-0.22076-0.55352-0.63529-1.4596-0.39521-0.88948-0.57-1.2564-1.1037-2.4092 1.3365-0.69438 0.82214-0.42057 0.56483-0.29724 0.57513-0.31453 1.6548-0.92321 0.83347-0.44781 1.4068-0.72676 0.84744-0.4281 0.92263-0.4557 0.82842-0.42744 0.52294-0.27567 1.3058-0.71839 0.86058-0.46413 0.83875-0.43675 0.42211-0.20876 0.19419-0.089768 1.04-0.60805 1.1104-0.63486 0.54347-0.32311 0.36795-0.23049 0.75738-0.48955 0.6837-0.43415 0.65282-0.40539 0.94777-0.5749 0.92112-0.58074 0.45599-0.2968 0.52703-0.36153 0.47771-0.34858 0.99691-0.74706 0.32786-0.23282 0.24199-0.15624 0.23642-0.13807 0.12086-0.064779 0.29754-0.14212 0.14376-0.060227 0.33335-0.12058 0.30936-0.092259 0.68445-0.17902 0.4973-0.14168 0.30885-0.10026 0.45144-0.16377 0.48341-0.19058 0.66371-0.27185 0.95856-0.43757 0.88598-0.3855 0.57173-0.23415 0.67599-0.26115 0.37078-0.15462 0.47925-0.22182 0.46738-0.23077 1.9174-0.98198 1.5438-0.82031 0.60361-0.33425 0.19102-0.11789 1.2997-0.82458 0.73184-0.4735 0.35475-0.24182 0.37552-0.27902 0.20045-0.16102 0.78714-0.67706 0.18138-0.14892 0.17164-0.1278 0.21371-0.13561 0.38635-0.20874 0.33642-0.17314 0.45428-0.21876 0.24507-0.11132 0.75944-0.31612 1.016-0.39988 0.51734-0.22471 0.50609-0.24145 0.84254-0.42555 1.2394-0.61064 1.3576-0.70531 0.37828-0.20699 0.41906-0.24089 0.62287-0.37276 0.51706-0.31886 0.35012-0.22693 0.73405-0.49091 0.45802-0.28986 0.42797-0.25782 1.1938-0.70024 0.60858-0.37453 1.9909-1.2822 0.81813-0.51012 0.86862-0.57047 0.73804-0.49772 0.96425-0.66159 1.4383-0.9553 0.44515-0.31018 0.48183-0.35642 0.17022-0.11885 1.9449-1.2053 0.65071-0.39383 0.59975-0.37496 1.2048-0.77895 1.9791-1.3018 4.4685-2.9626 1.0813-0.72304 0.79921-0.54231 0.52609-0.3663 0.49165-0.35562 0.45796-0.34367 0.83276-0.63695 0.26749-0.19643 0.42484-0.29571 0.84789-0.56628 1.4367-1.0362 0.79144-0.55644 0.33991-0.22158 0.30886-0.18175 0.24881-0.13572 0.4861-0.24899 0.23652-0.13075 0.3233-0.19651 0.38399-0.25811 0.24964-0.18194 0.40645-0.31536 0.40394-0.3413 0.19852-0.18238 0.1886-0.18691 0.17233-0.18801 0.2846-0.33639 0.21731-0.22734 0.25374-0.22912 0.13716-0.11068 0.23881-0.17308 0.24578-0.15285 0.25047-0.1276 0.096756-0.040863 0.1887-0.067119 0.13701-0.040758 0.33973-0.082384 0.14138-0.039451 0.11754-0.041717 0.10419-0.047532 0.19494-0.12098 0.38656-0.29101 0.11181-0.074696 0.19344-0.11019 0.2244-0.10253 0.226-0.085383 0.33826-0.11742 0.20596-0.083092 0.45817-0.20853 0.4563-0.22551 0.47241-0.25204 0.53205-0.30396 0.59724-0.36013 0.50097-0.31361 0.3075-0.18944 1.3482-0.79988 0.96395-0.54781 0.54881-0.31914 1.1015-0.65668 1.3443-0.8126 1.2225-0.7201 1.6129-0.93537 1.0852-0.61354 0.56172-0.33633 0.10712-0.072332 0.036738-0.03081 0.52864-0.32113 0.63971-0.40741 0.70417-0.46665 1.2324-0.83121 1.3175-0.86009 1.0296-0.65145 2.358-1.4707 2.0903-1.3352 0.50954-0.33327 1.3858-0.92514 0.91504-0.5897 1.9342-1.267 0.62824-0.42628 0.86301-0.61219 0.77648-0.56448 0.69903-0.53466 0.55056-0.44332 0.77524-0.64569 0.3927-0.33944 0.37972-0.34716 0.71028-0.70145 0.28388-0.27121 0.15379-0.13624 0.13556-0.10643 0.14202-0.099018 0.32669-0.20045 0.43913-0.25576 0.49909-0.2738 0.45853-0.23613 0.38343-0.18781 1.5527-0.73452 0.64156-0.31192 1.975-1.0083 1.2144-0.60576 0.2116-0.10112 0.06834-0.02703 0.028436-0.005133 0.09754-0.033268 0.14287-0.055156 1.0615-0.43737 1.3078-0.50743 1.9748-0.73252 0.46451-0.18745 1.0047-0.4262 0.24668-0.097979 0.4394-0.15705 1.0798-0.3598 1.6217-0.55705 0.44775-0.17291 0.25188-0.11318 0.058117-0.030791 0.036155-0.02608 1.0292-0.36429 0.8401-0.31754 1.9306-0.77142 0.47475-0.19895 0.35465-0.1618 0.27593-0.13927 0.29363-0.16303 0.14403-0.0879 0.18068-0.12266 0.11219-0.087041 0.10121-0.091151 0.13478-0.15895 0.084179-0.15666 0.021921-0.064399 0.02933-0.21106-0.018387-0.22565-0.054605-0.23608-0.082076-0.24326-0.14236-0.33924-0.50426-1.0814-0.26469-0.58292-0.39375-0.92403-0.37028-0.93052-0.11519-0.31082-0.10821-0.31102-0.098226-0.31114-0.084007-0.31115-0.063951-0.31097-0.024615-0.17734-0.0141-0.17701-0.002868-0.14691 0.007948-0.17523 0.016483-0.14471 0.04535-0.22805 0.068469-0.22263 0.090438-0.216 0.12875-0.2399 0.16121-0.24576 0.1798-0.23793 0.19324-0.2321 0.20286-0.2277 0.20972-0.22425 0.43314-0.43972 0.44625-0.42628 0.22809-0.20562 0.2324-0.19807 0.23811-0.18764 0.24582-0.17332 0.24184-0.14712 0.25054-0.12854 0.25923-0.10751 0.27302-0.085803 0.28022-0.065838 0.28551-0.050299 0.28932-0.037936 0.29198-0.02766 0.29377-0.018502 0.29488-0.009574 0.29545-2.3e-5 0.29557 0.011008 0.32237 0.025957 0.32212 0.037456 0.32194 0.045577 0.64355 0.10625 0.96414 0.17872 0.63943 0.12892 0.317 0.069326 0.3137 0.074714 0.30867 0.082664 0.3012 0.094192 0.29036 0.1106 0.14494 0.065952 0.16285 0.085974 0.13336 0.082193 0.12687 0.090452 0.11976 0.098856 0.16512 0.16375 0.14671 0.18131 0.1281 0.19712 0.11491 0.22026 0.11515 0.27705 0.09687 0.28969 0.082493 0.29916 0.070605 0.30632 0.059937 0.31188 0.049298 0.31637 0.037514 0.32017 0.023366 0.32358 0.005254 0.16067 1.02e-4 0.19738-0.00741 0.21638-0.058251 0.91878-0.003138 0.26368 0.007805 0.25592 0.025739 0.35633 0.038702 0.354 0.097864 0.67053 0.10878 0.65147 0.009794-0.002172 1.1061-0.23778 1.0024-0.19843 0.33535-0.061358 0.62376-0.10362 0.96895-0.14052 0.52133-0.096803 0.32654-0.075284 0.32107-0.085857 0.31551-0.096525 0.30953-0.1082 0.23849-0.093453 0.97802-0.40888 0.50914-0.19685 0.25552-0.090537 0.25635-0.08345 0.78444-0.22662 0.3036-0.09768 0.30244-0.10604 0.30038-0.11498 0.23454-0.0972 0.46511-0.20731 0.4931-0.23159 0.77806-0.38414 0.50689-0.27174 0.40442-0.2351 0.55973-0.33537 0.24312-0.13268 0.24861-0.12435 0.2609-0.11895 0.2654-0.1109 0.26913-0.10375 0.26907-0.096115 0.54488-0.17666 0.55103-0.15942 0.82124-0.22363 0.26589-0.080427 0.2778-0.091196 0.55148-0.19647 0.82505-0.30386 0.58251-0.20102 0.29295-0.094793 0.58956-0.17512 0.29699-0.078066 0.26185-0.061715 0.90138-0.18337 0.29585-0.065016 0.53414-0.13167 0.47649-0.13077 1.4328-0.42494 0.62653-0.20082 1.2552-0.41723 0.63094-0.19825 0.31663-0.091492 0.31742-0.083573 0.59297-0.14328 0.48375-0.12619 0.58561-0.16817 0.34821-0.11654 0.62911-0.23241 0.17304-0.058996 0.11593-0.033326 0.13977-0.024295 0.032039-1.54e-4 0.045775 0.009694 0.017479 0.016348 0.003748 0.010964-5.97e-4 0.021567-0.022498 0.067076 0.007562 0.015365 0.032522 0.011037 0.1134 6.77e-4 0.11801-0.016027 0.14305-0.029614 0.16205-0.041968 0.75512-0.23002 0.22069-0.047866 0.088764-0.009063 0.073934 0.003268 0.032656 0.019075 0.034163 0.071566" stroke="#bdc660"/>
    </defs>
    <g clip-path="url(#p74cd6f5333)">
     <use y="280.512" fill="#bdc660" stroke="#bdc660" xlink:href="#m0f2a93f8a5"/>
    </g>
   </g>
  </g>
 </g>
 <defs>
  <clipPath id="p74cd6f5333">
   <rect x="7.2" y="7.2" width="248.06" height="266.11"/>
  </clipPath>
 </defs>
</svg>
