<?xml version="1.0" encoding="UTF-8"?>
<!DOCTYPE svg  PUBLIC '-//W3C//DTD SVG 1.1//EN'  'http://www.w3.org/Graphics/SVG/1.1/DTD/svg11.dtd'>
<svg width="280.46pt" height="280.51pt" version="1.1" viewBox="0 0 280.46 280.51" xmlns="http://www.w3.org/2000/svg" xmlns:xlink="http://www.w3.org/1999/xlink">
 <metadata>
  <rdf:RDF xmlns:cc="http://creativecommons.org/ns#" xmlns:dc="http://purl.org/dc/elements/1.1/" xmlns:rdf="http://www.w3.org/1999/02/22-rdf-syntax-ns#">
   <cc:Work>
    <dc:type rdf:resource="http://purl.org/dc/dcmitype/StillImage"/>
    <dc:date>2024-07-04T12:10:18.871678</dc:date>
    <dc:format>image/svg+xml</dc:format>
    <dc:creator>
     <cc:Agent>
      <dc:title>Matplotlib v3.7.1, https://matplotlib.org/</dc:title>
     </cc:Agent>
    </dc:creator>
   </cc:Work>
  </rdf:RDF>
 </metadata>
 <defs>
  <style type="text/css">*{stroke-linejoin: round; stroke-linecap: butt}</style>
 </defs>
 <g id="figure_1">
  <g id="patch_1">
   <path d="m0 280.51h280.46v-280.51h-280.46v280.51z" fill="none"/>
  </g>
  <g id="axes_1">
   <g id="PatchCollection_1">
    <defs>
     <path id="m3f07767027" d="m254.12-226.04-0.010872 0.039962-0.06929-0.00455-0.18238 0.013032-0.24737 0.032854-0.27896 0.055537-0.28672 0.081419-0.29413 0.11866-0.26713 0.1529-0.22655 0.18896-0.17997 0.2309-0.13514 0.25957-0.10044 0.27714-0.073865 0.28545-0.053247 0.2859-0.03656 0.27941-0.02198 0.26629-0.002053 0.26571 0.027406 0.19294 0.054209 0.1867 0.10583 0.23074 0.14137 0.24425 0.085939 0.13485 0.13951 0.20008 0.16353 0.21254 0.24812 0.28927 0.10806 0.13624 0.047404 0.070958 0.12112 0.23604 0.096983 0.26649 0.078858 0.28841 0.065243 0.30361 0.054912 0.31347 0.046869 0.319 0.074856 0.64025 0.057099 0.61958 0.075381 0.56664 0.070353 0.59887 0.086843 0.91284 0.040739 0.59542 0.018923 0.5619-0.008428 0.5816 0.012298 0.17748 0.024957 0.13286 0.019481 0.069679 0.083139 0.21647 0.18475 0.42063 0.19864 0.52401 0.75521 2.2234 0.18804 0.51875 0.10062 0.25364 0.10993 0.25662 0.24478 0.54329 0.25631 0.60278 0.091841 0.24618 0.069889 0.23951 0.036031 0.22884-0.010063 0.21015-0.064 0.18478-0.11755 0.14735-0.15835 0.12294-0.18226 0.10744-0.37476 0.19978-0.16209 0.10724-0.12334 0.12239-0.038564 0.062629-0.045585 0.14193-0.014452 0.12914 0.001689 0.15849 0.016285 0.16972 0.026645 0.17642 0.056518 0.27223 0.052135 0.1787 0.056344 0.14076 0.10302 0.19602 0.1211 0.19249 0.13251 0.17824 0.10446 0.11249 0.10431 0.085619 0.070265 0.043464 0.094248 0.042613 0.077541 0.023953 0.083438 0.016931 0.14609 0.013943 0.14366 0.001233 0.13289-0.009122 0.14695-0.019766 0.51965-0.10601 0.13227-0.010448 0.14564 0.0115 0.13925 0.042275 0.1058 0.060458 0.10493 0.087043 0.099251 0.10815 0.14829 0.21034 0.12368 0.222 0.078325 0.1635 0.075111 0.1744 0.071236 0.18264 0.089069 0.25477 0.13321 0.44502 0.073995 0.28911 0.092895 0.42878 0.037847 0.21024 0.032315 0.23161 0.12753 0.59629 0.054823 0.35571 0.013534 0.21773-0.005074 0.14647-0.019756 0.13866-0.028209 0.10422-0.040682 0.096729-0.074686 0.1159-0.071269 0.082079-0.078124 0.076771-0.16026 0.14462-0.11384 0.11246-0.060229 0.072107-0.055023 0.082896-0.034299 0.067856-0.02541 0.066764-0.026449 0.11326-0.009406 0.094424 6.22e-4 0.57842 0.007555 0.10558 0.011272 0.066286 0.033457 0.11357 0.022094 0.050002 0.039159 0.067598 0.041526 0.057135 0.061475 0.070914 0.13424 0.12557 0.14258 0.10887 0.079307 0.052779 0.068068 0.040503 0.13067 0.064088 0.14807 0.048213 0.12915 0.022624 0.11803 0.009056 0.29229 0.004576 0.14694 0.007747 0.12913 0.017191 0.10148 0.022766 0.12908 0.038279 0.51239 0.18471 0.22145 0.073218 0.17568 0.04847 0.10886 0.020832 0.019196-0.001931-0.09753 0.42034-0.065494 0.33756-0.058589 0.35351-0.065753 0.49986-0.045364 0.48419-0.035774 0.59008-0.017146 0.42221-0.005151 0.46643 0.013321 0.65809 0.04562 0.80621 0.23249 2.9839 0.04125 0.45196 0.051878 0.45495 0.091901 0.98579 0.049741 0.82815 0.013197 0.42902 0.003182 0.42033-0.019889 0.7141-0.048523 0.72765-0.0952 0.9849-0.12678 1.043-0.19326 1.4082-0.061551 0.3911-0.071374 0.4032-0.14481 0.72244-0.15672 0.68095-0.097916 0.357-0.055584 0.1789-0.13082 0.36527-0.073931 0.18051-0.0952 0.2114-0.10134 0.20481-0.10513 0.19436-0.09671 0.16446-0.17198 0.26327-0.08279 0.10571-0.31539 0.29822-0.30509 0.26317-0.29693 0.23724-0.29947 0.21931-0.15992 0.10196-0.28069 0.15893-0.71307 0.35695-0.17612 0.095885-0.11051 0.07041-0.27805 0.16378-0.16267 0.08259-0.26752 0.11124-0.2037 0.066295-0.29048 0.073602-0.57273 0.11998-0.42913 0.079665-0.3284 0.052244-0.44696 0.058425-0.3216 0.033823-0.41039 0.03186-0.32006 0.016758-0.46329 0.00578-1.1045-0.021137-0.34048 0.005771-0.20109 0.011606-0.40387 0.034611-0.27128 0.031751-0.32898 0.04783-0.29438 0.052446-0.20642 0.042982-0.34568 0.084422-0.308 0.089346-0.26328 0.087714-0.41193 0.15978-0.25823 0.11414-0.32127 0.15752-0.32451 0.17641-0.2115 0.12438-0.26111 0.16268-0.96089 0.62664-0.34263 0.20858-0.16723 0.095925-0.29809 0.15994-0.19469 0.096281-0.19671 0.091077-0.30708 0.13068-0.30782 0.11812-0.42993 0.14579-0.34492 0.10112-0.36367 0.091095-0.18924 0.040663-0.3195 0.056988-0.27917 0.037159-0.19275 0.017798-0.19272 0.010634-0.3276-8.7e-5 -0.20127-0.012088-0.20019-0.021803-0.19859-0.032066-0.30478-0.070312-0.21096-0.063444-0.20836-0.073969-0.18106-0.073009-0.36968-0.17112-0.29525-0.15346-0.30279-0.16805-1.1427-0.65964-0.28699-0.15787-0.35363-0.18434-0.26967-0.13141-0.27105-0.12297-0.29479-0.12141-0.23593-0.086672-0.22071-0.072082-0.3084-0.08643-0.30238-0.068315-0.32148-0.053913-0.28773-0.030567-0.2147-0.011341-0.28398 9.44e-4 -0.26711 0.019539-0.22343 0.032699-0.17877 0.038728-0.19396 0.057028-0.16811 0.064085-0.15441 0.072438-0.17672 0.10063-0.18242 0.12512-0.18371 0.14901-0.16436 0.15328-0.14611 0.15187-0.22972 0.26466-0.13589 0.16875-1.1258 1.4993-0.64763 0.83561-0.33172 0.41414-0.36506 0.42125-0.22695 0.24102-0.20189 0.20083-0.22052 0.20578-0.16952 0.14966-0.23663 0.19715-0.24419 0.18923-0.30369 0.21568-0.31228 0.1999-0.23684 0.13779-0.30822 0.16482-1.06 0.52196-0.32145 0.16885-0.29143 0.16582-0.23022 0.14226-0.2251 0.1526-0.15621 0.11766-0.11915 0.10723-0.014894 0.031664-0.081631 0.149-0.10065 0.21203-0.10363 0.24331-0.14647 0.39726-0.094084 0.3042-0.080197 0.30762-0.06606 0.30939-0.045 0.26531-0.038025 0.30863-0.019658 0.2953-0.001857 0.25148 0.013147 0.24586 0.044228 0.32534 0.077491 0.30972 0.10186 0.26379 0.13194 0.24613 0.18935 0.261 0.22227 0.23566 0.23929 0.20379 0.25838 0.18431 0.15686 0.099358 0.70584 0.40249 0.22516 0.13391 0.21854 0.1416 0.2089 0.15213 0.17157 0.14305 0.16089 0.15316 0.14903 0.16328 0.17817 0.23316 0.15469 0.24906 0.13194 0.26585 0.1077 0.27768 0.0661 0.21989 0.052376 0.22467 0.039052 0.22854 0.026111 0.23383 0.014026 0.23626 0.003066 0.23803-0.010291 0.30016-0.023626 0.30132-0.031955 0.28018-0.085986 0.56086-0.24074 1.2825-0.088929 0.53464-0.077937 0.55249-0.031763 0.26826-0.046093 0.53402-0.011954 0.31176 0.00256 0.3069 0.015147 0.24328 0.029897 0.23612 0.03949 0.19203 0.055217 0.1829 0.061971 0.14768 0.07675 0.13727 0.17578 0.21273 0.21288 0.15689 0.17103 0.078541 0.1939 0.055338 0.21667 0.03457 0.19367 0.016655 0.47971 0.02446 0.30137 0.023689 0.21418 0.027363 0.18695 0.035367 0.15914 0.048136 0.065189 0.038109 0.011583 0.020677-9.18e-4 0.019113 0.011778 0.019391 0.014367 0.045037 0.017778 0.07475 0.023328 0.13604 0.01715 0.149 0.011638 0.17548 0.003217 0.1436-0.005007 0.20517-0.010701 0.1431-0.020217 0.15557-0.023778 0.12197-0.031671 0.11921-0.049589 0.13889-0.055612 0.12177-0.063631 0.11585-0.13602 0.20393-0.15557 0.19875-0.47614 0.56062-0.25214 0.27894-0.22909 0.22132-0.12848 0.11346-0.55983 0.46787-0.17955 0.16653-0.099125 0.10293-0.092025 0.10773-0.098494 0.13718-0.083118 0.14573-0.058882 0.13664-0.044141 0.14256-0.024838 0.12148-0.014515 0.12431-0.004134 0.12658 0.007619 0.14117 0.019223 0.14283 0.029822 0.14403 0.037023 0.13617 0.094676 0.27457 0.40022 0.96617 0.081822 0.22277 0.030852 0.099219 0.003035 0.040042 0.065926-0.045289 0.09691-0.018606 0.17484-0.007148 0.17804 0.014808 0.13009 0.022337 0.1497 0.036737 0.14378 0.046236 0.22444 0.093425 0.19535 0.10049 0.19965 0.11902 0.20029 0.13434 0.17888 0.13082 0.35398 0.2816 1.0365 0.8736 0.33182 0.2541 0.265 0.17318 0.14866 0.081409 0.17485 0.080324 0.22366 0.084831 0.12808 0.040805 0.20561 0.053751 0.12456 0.026666 0.56381 0.11178 0.15189 0.019025 0.12785 6.33e-4 0.12018-0.015705 0.15884-0.041109 0.15312-0.057127 0.18415-0.088843 0.23044-0.12891 0.39038-0.23368 0.1924-0.12851 0.13528-0.10455 0.18133-0.15339 0.20451-0.18676 0.16054-0.16013 0.16747-0.19815 0.22674-0.32704 0.16702-0.21816 0.1519-0.16905 0.16111-0.15391 0.32534-0.27078 0.48096-0.37029 0.25722-0.18831 0.16239-0.10713 0.12442-0.071506 0.098733-0.047683 0.12402-0.044653 0.12634-0.024069 0.1259 1.51e-4 0.091427 0.014102 0.10324 0.027432 0.12741 0.047178 0.17549 0.082614 0.13794 0.075025 0.13846 0.085025 0.18417 0.13327 0.14794 0.13042 0.17396 0.19261 0.17865 0.26611 0.14205 0.2807 0.10427 0.26484 0.061604 0.20642 0.007901 0.085825-0.026151 0.045187-0.07272 0.20006-0.11035 0.35748-0.099227 0.3642-0.10986 0.47368-0.054245 0.2867-0.046709 0.30781-0.03102 0.2695-0.026266 0.347-0.011756 0.33199-0.001631 0.24122 0.013867 0.54002 0.05178 0.91526 0.001394 0.19637-0.009535 0.20251-0.037032 0.32366-0.061026 0.31582-0.064367 0.23913-0.03638 0.10904-0.087199 0.20568-0.086156 0.15507-0.12886 0.20751-0.10074 0.15032-0.081891 0.10638-0.11512 0.12025-0.206 0.14921-0.18918 0.10042-0.15133 0.067351-0.20537 0.080317-0.61036 0.21117-0.2774 0.10354-0.32376 0.14247-0.16244 0.082449-0.13432 0.074967-0.13997 0.086674-0.15152 0.10784-0.10979 0.092205-0.079679 0.079349-0.08041 0.10023-0.054913 0.096993-0.026793 0.078033-0.00821 0.04687-1.68e-4 0.080702 0.027842 0.12064 0.033951 0.079702 0.033073 0.061342 0.10446 0.15699 0.11233 0.14073 0.12266 0.13656 1.2043 1.2335 0.2161 0.23618 0.14313 0.17223 0.099401 0.13234 0.073984 0.10897 0.1162 0.20017 0.053383 0.11394 0.043824 0.1142 0.060406 0.20805 0.032422 0.18487 0.016304 0.15838 0.009397 0.17116-0.002358 0.16529-0.014805 0.13978-0.02261 0.11259-0.03023 0.10755-0.043096 0.1204-0.049067 0.11365-0.083899 0.16563-0.12822 0.22051-0.12278 0.19073-0.21816 0.29958-0.40954 0.50199-0.046542 0.062493-0.011368 0.027485-0.083485 0.10569-0.33414 0.45956-0.38446 0.50799-0.60159 0.90109-0.1026 0.16462-0.10002 0.17632-0.081515 0.17294-0.098335 0.29649-0.050136 0.11857-0.072038 0.090363-0.10056 0.056914-0.26691 0.076362-0.12865 0.043769-0.44225 0.17746-0.32391 0.14251-0.27226 0.13778-0.098358 0.044238-0.64734 0.24774-0.23655 0.096553-0.18372 0.081871-0.17752 0.087059-0.28498 0.15936-0.18809 0.12032-0.16138 0.11346-0.14655 0.11217-0.14647 0.12263-0.40549 0.3757-0.10515 0.088765-0.082575 0.062732-0.12648 0.082582-0.2232 0.11067-0.17614 0.071357-0.2775 0.091527-0.2116 0.055663-0.22083 0.043917-0.12807 0.017905-0.20617 0.019708-0.46778 0.030522-0.1665 0.015856-0.55936 0.0655-0.072644 0.017957-0.069691 0.03215-0.015244 0.01477 0.006213 0.051595-0.065054-0.009025-0.11972-0.001452-0.40977 0.025848-0.15768 5.95e-4 -0.17511-0.02134-0.15243-0.041344-0.10915-0.044338-0.15804-0.086082-0.41156-0.28141-0.23272-0.13889-1.0377-0.47851-0.31797-0.16521-0.13122-0.079975-0.13981-0.098844-0.086549-0.069579-0.21103-0.18623-0.11935-0.08723-0.1942-0.11132-0.30191-0.14334-0.39617-0.15723-0.14754-0.04445-0.12156-0.024349-0.12243-0.012434-0.17625-0.005138-0.56541 0.005292-0.11078-0.007241-0.076753-0.012466-0.05714-0.014214-0.11342-0.042214-0.12851-0.070642-0.03115-0.022619-0.015492-0.018738-0.34065 0.03613-0.19408 0.032566-0.17054 0.0515-0.17731 0.083375-0.17244 0.11401-0.0929 0.074192-0.08927 0.079681-0.10087 0.10022-0.094496 0.10407-0.11436 0.14464-0.09666 0.16008-0.075519 0.16854-0.061562 0.18254-0.088882 0.32868-0.038061 0.20042-0.018502 0.18958-0.003892 0.18799 0.005182 0.12543 0.035965 0.35807 0.009478 0.15078 0.003201 0.27144-0.007012 0.67645-0.006218 0.15076-0.013344 0.12235-0.014741 0.077825-0.054748 0.17664-0.06437 0.14691-0.06027 0.11681-0.16187 0.27392-0.18082 0.25881-0.12455 0.15501-0.12883 0.14402-0.13766 0.1341-0.052513 0.044569-0.092484 0.064657-0.095914 0.043943-0.20591 0.052821-0.070142 0.028828-0.068 0.04493-0.05876 0.059737-0.066676 0.096039-0.082164 0.16177-0.071502 0.18352-0.06915 0.21461-0.16408 0.55932-0.082566 0.2566-0.048784 0.11337-0.022443 0.026501-0.010926-5.04e-4 -0.19049 0.24542-0.11909 0.18836-0.060084 0.11788-0.053381 0.129-0.048661 0.15166-0.027549 0.11434-0.020434 0.13657-0.004848 0.098662 0.003387 0.089612 0.010083 0.083188 0.03442 0.15377 0.052176 0.15514 0.065798 0.15432 0.077166 0.15534 0.20219 0.3517 0.2688 0.42069 0.64856 0.97581 0.26439 0.41054 0.2636 0.43486 0.12159 0.21481 0.20189 0.38824 0.10447 0.22633 0.091313 0.22281 0.081972 0.23674 0.11144 0.37901 0.065004 0.17572 0.077252 0.17506 0.13174 0.2546 0.13632 0.22929 0.15948 0.23786 0.083181 0.11285 0.10251 0.12815 0.10411 0.11632 0.084284 0.082524 0.089911 0.076658 0.10898 0.082069 0.1352 0.092161 0.083603 0.065742 0.048234 0.055462 0.029576 0.062707 0.006849 0.12427-0.031634 0.14521-0.10559 0.34418-0.038893 0.17518-0.023592 0.15374-0.012461 0.15268-6.21e-4 0.11175 0.012804 0.29668-9.48e-4 0.14312-0.006096 0.078313-0.017332 0.11181-0.032383 0.12177-0.10108 0.22343-0.14274 0.21657-0.17092 0.20965-0.18712 0.20215-0.35549 0.3572-0.145 0.16169-0.11163 0.16583-0.061155 0.17638-0.006156 0.10037 0.005471 0.066284 0.019168 0.097314 0.088946 0.23598 0.14963 0.26605 0.19229 0.27768 0.22272 0.28423 0.24103 0.28326 0.19854 0.22108 0.516 0.54848 0.049869 0.063786-0.10964 0.1072-0.43026 0.45494-0.1638 0.16545-0.22342 0.21422-0.18445 0.16122-0.12841 0.087633-0.11718 0.062133-0.10015 0.043711-0.2586 0.094658-0.1342 0.0614-0.064139 0.042025-0.076893 0.074131-0.077276 0.13481-0.049221 0.16153-0.030652 0.17782-0.047779 0.46042-0.033947 0.17732-0.022178 0.08566-0.025737 0.080993-0.035717 0.087914-0.053866 0.10515-0.06588 0.086514-0.10225 0.068244-0.060775 0.016641-0.083666 0.00494-0.066864-0.006628-0.39248-0.098723-0.55868-0.11538-0.22553-0.028368-0.117-0.001516-0.0546 0.004154-0.11602 0.023469-0.14328 0.072576-0.11578 0.11192-0.082532 0.14233-0.038779 0.12781-0.069408 0.41586-0.062264 0.24578-0.040558 0.11567-0.096357 0.20406-0.12448 0.18727-0.37641 0.47474-0.091389 0.13093-0.092733 0.15352-0.054099 0.10405-0.072688 0.17408-0.033295 0.10025-0.069298-0.19332-0.052491-0.11497-0.069426-0.12395-0.079907-0.11638-0.08486-0.10218-0.075738-0.0774-0.07541-0.067229-0.11368-0.087097-0.1984-0.12261-0.20722-0.10254-0.30353-0.12278-0.34973-0.11644-0.47526-0.14408-0.43417-0.15052-0.40405-0.16319-0.37692-0.1669-0.1804-0.088968-0.16435-0.089151-0.15675-0.094334-0.16379-0.11048-0.15371-0.11671-0.36337-0.31704-0.17792-0.14618-0.18793-0.1236-0.20669-0.094351-0.22121-0.072963-0.51181-0.14377-0.28172-0.09883-0.3799-0.17053-0.27995-0.14183-0.5677-0.313-1.4261-0.82751-0.27877-0.15091-0.27307-0.13646-0.2648-0.11534-0.25314-0.085417-0.237-0.043918-0.21503 0.012646-0.076241 0.024001-0.085121 0.043196-0.13587 0.105-0.17918 0.18846-0.16746 0.1968-0.14998 0.18908-0.1315 0.17832-0.12326 0.17876-0.17193 0.26682-0.14096 0.2418-0.10885 0.24898-0.050198 0.19952-0.023598 0.20675-0.001625 0.22797 0.034103 0.59552 0.034155 0.37795 0.043742 0.3727 0.034857 0.23932 0.053426 0.303 0.066423 0.29806 0.047442 0.17673 0.053478 0.17291 0.06298 0.17568 0.070739 0.16939 0.13728 0.26459 0.083688 0.12966 0.48449 0.64788 0.12262 0.15288 0.28422 0.31981 0.0839 0.10208 0.096879 0.13079 0.087897 0.13577 0.070295 0.12606 0.062125 0.12803 0.067914 0.16535 0.050569 0.16528 0.01544 0.073024 0.014611 0.12468-0.003205 0.12342-0.028806 0.13996-0.045224 0.11978-0.060923 0.11742-0.13399 0.19511-0.16515 0.19012-0.20463 0.19944-0.2251 0.1949-0.24679 0.19674-0.5211 0.38353-0.8338 0.58894-0.43844 0.29645-0.19839 0.12002-0.20232 0.10768-0.24716 0.11047-0.30307 0.11577-0.60155 0.21301-0.33737 0.13061-0.44729 0.19512-0.26387 0.13184-0.3294 0.18305-0.16031 0.09968-0.057452 0.042182-0.016442 0.022666 0.24945 0.26237 0.21504 0.23834 0.20109 0.25 0.10658 0.15504 0.079934 0.13608 0.1205 0.2462 0.13755 0.31923 0.22496 0.5474 0.081682 0.17287 0.10276 0.18373 0.060926 0.095023 0.064457 0.091949 0.099647 0.12712 0.060543 0.068434 0.11756 0.11296 0.056598 0.044666 0.078665 0.051683 0.085552 0.043735 0.086693 0.03314 0.14069 0.036821 0.47052 0.074953 0.19606 0.043824 0.089654 0.030638 0.08611 0.038905 0.078086 0.045765 0.073342 0.053445 0.067987 0.060231 0.070753 0.077165 0.060196 0.083821 0.046972 0.088755 0.026622 0.073822 0.015867 0.072358 0.005566 0.067034-0.002627 0.05661-0.008263 0.039513-0.010143 0.013713-0.017094 0.006264-0.044914 0.048682-0.090958 0.14533-0.061967 0.12542-0.083382 0.2134-0.03789 0.12019-0.047386 0.1872-0.1259 0.75503-0.041466 0.17402-0.051877 0.1687-0.059803 0.16045-0.090264 0.20622-0.23217 0.47726-0.086605 0.22923-0.14321 0.35172-0.08702 0.23264-0.045729 0.14012-0.034186 0.12679-0.014834 0.085365-0.003551 0.14421 0.022937 0.16527 0.066773 0.22904 0.020633 0.10652 0.00399 0.095407-0.013816 0.14054-0.024719 0.11409-0.026096 0.090515-0.067452 0.18566-0.089413 0.1958-0.099751 0.17886-0.063235 0.099231-0.1932 0.264-0.20948 0.24142-0.13502 0.13242-0.093416 0.079236-0.091636 0.06843-0.11433 0.073969-0.11207 0.062521-0.17894 0.084911-0.8229 0.34262-0.35343 0.16262-0.19498 0.075182-0.2418 0.078708-0.1614 0.060062-0.086458 0.041267-0.091191 0.054004-0.1157 0.089169-0.096447 0.098115-0.067721 0.086804-0.068641 0.10668-0.31047 0.58237-0.10823 0.17752-0.036502 0.050692-0.023691 0.021307-0.24886 0.27767-0.11884 0.15995-0.084419 0.15159-0.032029 0.078528-0.024211 0.079895-0.029029 0.16281-0.009793 0.19896 0.011411 0.28251 0.047996 0.60768 0.002295 0.18943-0.006443 0.093123-0.01367 0.090286-0.021966 0.088194-0.045014 0.1176-0.068295 0.12798-0.04429 0.069577-0.14885 0.20402-0.66398 0.80668-0.33793 0.42099-0.012566 0.00252-0.026911 0.037471-0.016311 0.055016-0.018514 0.13648-0.004384 0.099345 0.002879 0.19455 0.030055 0.52752 0.002319 0.17327-0.005064 0.12322-0.017949 0.16605-0.054445 0.25681-0.077128 0.23137-0.092706 0.20765-0.043024 0.081841-0.13296 0.22038-0.19117 0.27324-0.34292 0.45603-0.15843 0.22417-0.52846 0.81744-0.19316 0.27893-0.10338 0.13378-0.088288 0.10265-0.18477 0.18374-0.10933 0.093984-0.1651 0.12727-0.48505 0.33533-0.30689 0.21955-0.14903 0.11188-0.14269 0.11767-0.10741 0.10123-0.059645 0.063127-0.094331 0.11425-0.055078 0.079499-0.047843 0.0843-0.046113 0.12495-0.00888 0.055334-7.52e-4 0.07181 0.013626 0.078609 0.026746 0.073973 0.035321 0.068773 0.050133 0.080459 0.052424 0.071235 0.27569 0.34216 0.38164 0.42407 0.17043 0.1616 0.13454 0.10434 0.13459 0.078087 0.095459 0.04212 0.095848 0.031024 0.12813 0.025487 0.14785 0.011466 0.14026-0.003093 0.14846-0.016275 0.12645-0.022665 0.22666-0.055365 0.46951-0.13985 0.18619-0.049168 0.24364-0.047523 0.20862-0.022819 0.21172-0.002066 0.66301 0.024597 0.26397 0.001113 0.61938-0.011415 0.22077 0.012473 0.12714 0.017309 0.11947 0.026393 0.11498 0.038319 0.11677 0.054281 0.10413 0.064055 0.092443 0.074411 0.07656 0.079209 0.056927 0.073401 0.062004 0.10066 0.042533 0.085315 0.054421 0.1314 0.049478 0.14561 0.032938 0.11899 0.053626 0.26877 0.03441 0.28147 0.02025 0.30218 0.007498 0.2855-0.001689 0.60461 0.011886 0.261 0.024519 0.21898 0.054104 0.27053 0.062281 0.21072 0.10055 0.26299 0.43714 0.96211 0.22727 0.53204 0.073401 0.1993 0.053139 0.16915 0.057248 0.23691 0.040235 0.28824 0.034159 0.47691 0.01041 0.33631 0.002582 0.57584 0.003806 0.14305 0.010177 0.076754-0.03861 0.003746-0.066412 0.038504-0.097615 0.095833-0.095034 0.13501-0.069943 0.13552-0.06689 0.17903-0.034825 0.12944-0.027224 0.1393-0.056196 0.44154-0.06786 0.37317-0.08017 0.32773-0.056441 0.19466-0.089245 0.26977-0.14357 0.38496-0.5033 1.29-0.26731 0.71527-0.076902 0.19178-0.10318 0.23346-0.14176 0.2874-0.22157 0.41058-0.30694 0.53261-0.49155 0.80794-0.16707 0.28798-0.088017 0.17266-0.096281 0.23107-0.15743 0.54081-0.042528 0.11802-0.11221 0.22701-0.15695 0.23355-0.96552 1.1859-0.18906 0.2041-0.18598 0.16299-0.15971 0.10325-0.085176 0.039594-0.2216 0.05709-0.15669 0.013302-0.33157 0.002577-0.17831 0.013654-0.19817 0.043647-0.1579 0.05385-0.17508 0.074524-0.284 0.14352-0.1723 0.10584-0.14555 0.10542-0.11399 0.092479-0.13908 0.12252-0.2414 0.22828-0.14251 0.14828-0.051875 0.061665-0.054474 0.072802-0.096514 0.1563-0.25894 0.49837-0.12266 0.19267-0.15336 0.18848-0.28045 0.32213-0.11508 0.14475-0.075874 0.10422-0.048951 0.078792-0.02033-0.003514-0.1255-0.08498-0.45153-0.33665-0.24206-0.17176-0.9085-0.62204-0.15808-0.096302-0.12943-0.06102-0.084308-0.027474-0.045459-0.010062-0.11848-0.010065-0.09286 0.007487-0.1036 0.022434-0.11469 0.038938-0.21167 0.097281-0.12178 0.065919-0.11639 0.069533-0.2231 0.15586-0.20711 0.17777-0.095831 0.094189-0.18874 0.20799-0.12338 0.15242-0.11822 0.15823-0.11236 0.16156-0.21186 0.33532-0.19351 0.34258-0.42548 0.81045-0.16008 0.27887-0.14901 0.23735-0.063975 0.080688-0.067452 0.060672-0.041485 0.02428-0.044059 0.015712-0.08097 0.008616-0.090217-0.009831-0.11842-0.031037-0.16742-0.065174-0.17742-0.086312-0.19752-0.1115-0.15844-0.10384-0.193-0.14658-0.17651-0.1536-0.18902-0.18743-0.11346-0.12555-0.15948-0.19539-0.26236-0.35115-0.2841-0.39923-0.21587-0.33188-0.29318-0.50746-0.03063-0.049135-0.013365-0.012522-0.03961-0.024708-0.056848 5.41e-4 -0.10416 0.024112-0.086402 0.031693-0.1172 0.054652-0.14279 0.081643-0.14675 0.09973-0.12406 0.096545-0.22752 0.20357-0.18631 0.18827-0.19782 0.22509-0.1531 0.20216-0.11768 0.17722-0.091379 0.15372-0.093096 0.1735-0.11086 0.23389-0.26693 0.62801-0.13259 0.29275-0.11776 0.24124-0.14218 0.26199-0.099458 0.15941-0.13979 0.19809-0.14848 0.1854-0.095018 0.10719-0.15038 0.15278-0.14304 0.12728-0.17005 0.12858-0.18514 0.11915-0.18483 0.099382-0.14743 0.061903-0.10475 0.033832-0.22058 0.047751-0.21794 0.02581-0.18394 0.010647-0.22922 0.002452-0.32658-0.01083-0.65386-0.04866-0.90741-0.083325-0.23407-0.030626-0.16068-0.038695-0.13871-0.059546-0.097417-0.072372-0.073934-0.092531-0.063969-0.1788-0.015318-0.21275 0.019613-0.23585 0.043234-0.24992 0.082178-0.40905 0.035006-0.23969 0.016026-0.18482 0.003291-0.28149-0.008417-0.14419-0.020787-0.1787-0.051253-0.23839-0.045848-0.13214-0.050693-0.10546-0.049647-0.078569-0.045241-0.0588-0.05725-0.063081-0.07995-0.073791-0.090334-0.069243-0.15774-0.095642-0.1702-0.081072-0.17785-0.070855-0.45146-0.16169-0.18314-0.080444-0.14285-0.07987-0.58436-0.38669-0.16488-0.089761-0.12436-0.053572-0.10443-0.033669-0.19498-0.033936-0.20348-0.002752-0.25491 0.033896-0.2081 0.052494-0.19293 0.064383-0.19306 0.075817-0.20838 0.091063-0.44004 0.20929-0.34802 0.17597-0.2719 0.16334-0.14587 0.10161-0.99887 0.75985-0.18756 0.16319-0.18676 0.18172-0.1131 0.12075-0.17984 0.21986-0.14235 0.20443-0.21533 0.33047-0.10384 0.17138-0.1131 0.2091-0.11768 0.24862-0.26806 0.6051-0.12862 0.27668-0.67151 1.3946-0.27786 0.61114-0.12468 0.29814-0.10926 0.29824-0.052131 0.16886-0.05687 0.23064-0.04519 0.30247-0.010538 0.17531-0.001065 0.17213 0.012896 0.27408 0.058608 0.80557 0.005794 0.61022 0.008463 0.29592 0.034912 0.48116 0.037309 0.4233 0.037816 0.26944 0.03934 0.18653 0.042002 0.14592 0.047498 0.12479 0.060322 0.11781 0.071654 0.10008 0.052397 0.053206 0.067631 0.049842 0.058877 0.03016 0.08383 0.025693 0.049293 0.007245 0.089309 0.0022 0.17436-0.021584 0.16428-0.0401 0.2328-0.075062 0.61518-0.22266 0.31259-0.089014 0.19627-0.039062 0.18216-0.012956 0.070838 0.003758 0.10081 0.017474 0.057236 0.018628 0.06585 0.032091 0.064324 0.044249 0.047939 0.042689 0.054904 0.061179 0.085492 0.12887 0.051388 0.10393 0.064354 0.1796 0.03068 0.12418 0.070607 0.38615 0.034444 0.13883 0.063738 0.21102 0.14875 0.42441 0.066104 0.23444 0.14834 0.58277 0.027633 0.092512 0.057514 0.15755 0.084281 0.17789 0.10322 0.16567 0.4187 0.56472 0.14747 0.21536 0.052432 0.090869 0.047444 0.097529 0.032022 0.083002 0.022218 0.076414 0.024509 0.15073 0.002861 0.17145-0.012616 0.13685-0.023786 0.13885-0.039857 0.16272-0.051207 0.16249-0.078338 0.2-0.097044 0.19532-0.10676 0.16616-0.074325 0.094563-0.093115 0.10095-0.13604 0.11885-0.098172 0.069962-0.21565 0.12671-0.50288 0.24993-0.15067 0.092353-0.10085 0.076436-0.083431 0.074402-0.084756 0.085684-0.14698 0.17377-0.065221 0.090255-0.06598 0.10685-0.021077 0.050996 0.005357 0.019656-0.12543-0.02543-1.0914-0.28774-0.26264-0.057854-0.24488-0.033033-0.2444-0.015721-0.17059-0.002882-0.28063 0.01586-0.28508 0.03462-0.51312 0.077611-0.56165 0.090414-0.68204 0.11988-0.51762 0.080871-0.45966 0.11359-0.18223 0.039138-0.15594 0.016101-0.13702-0.006033-0.15958-0.033693-0.16758-0.064301-0.13436-0.070614-0.13067-0.083138-0.2003-0.15212-0.14129-0.12324-0.34043-0.32883-0.092938-0.083247-0.090123-0.06794-0.13941-0.062696-0.1368 0.003042-0.13817 0.052988-0.13614 0.085809-0.24739 0.20178-0.11042 0.078673-0.12051 0.06261-0.106 0.034889-0.11348 0.025262-0.17942 0.028652-0.19351 0.010627-0.20386-0.021839-0.19011-0.056982-0.19684-0.086699-0.15847-0.082316-0.40943-0.23014-0.26825-0.14389-0.27628-0.13988-0.27466-0.1327-0.48639-0.22107-0.16599-0.068295-0.06605-0.016131-0.052376-0.008839-0.096749-0.08928-0.04767-0.15251 0.010086-0.18844 0.076024-0.20796 0.12034-0.21281 0.13396-0.21616 0.11757-0.22119 0.071917-0.22974 0.005062-0.23463-0.051614-0.23808-0.040415-0.11285-0.10418-0.23585-0.12445-0.23694-0.13797-0.23163-0.29205-0.46379-0.1103-0.16628-0.41658-0.58321-0.17993-0.27402-0.11516-0.19815-0.24048-0.47082-0.18128-0.3164-0.16155-0.25414-0.17654-0.24569-0.16237-0.19554-0.14441-0.15059-0.15362-0.13881-0.1134-0.089443-0.13269-0.092019-0.25603-0.14384-0.26702-0.10878-0.27376-0.069304-0.27696-0.022221-0.22299 0.020492-0.22391 0.046639-0.22577 0.062759-0.71295 0.2128-0.6966 0.19791-0.27831 0.057417-0.23173 0.02024-0.22735 0.001822-0.42472-0.009593-0.19943-0.016749-0.18833-0.03861-0.18554-0.057073-0.18062-0.068597-0.44273-0.18893-0.097286-0.033671-0.11307-0.027247-0.27096-0.041783-0.26115-0.073234-0.074108-1.3e-5 -0.043389 0.018387-0.031619 0.029158-0.049558 0.091602-0.077494 0.28618-0.045087 0.11423-0.026514 0.04266-0.03561 0.041714-0.05835 0.043764-0.062886 0.024753-0.2069 0.038115-0.24398 0.094639-0.081872 0.024784-0.11042 0.022433-0.30791 0.0452-0.14592 0.032465-0.11532 0.036158-0.19426 0.081244-0.24436 0.12808-0.59948 0.35472-0.45301 0.24801-0.21054 0.12293-0.15083 0.097588-0.21039 0.1496-0.56884 0.42492-0.13054 0.087597-0.16574 0.09783-0.10327 0.051512-0.1052 0.044128-0.10625 0.035325-0.076351 0.01911-0.21791 0.026456-0.22364-0.002637-0.46559-0.037591-0.81922-0.032858-0.2747-0.025077-0.26976-0.049385-0.070291-0.018655-0.18782-0.062048-0.18684-0.075846-1.0118-0.46342-0.30142-0.14688-0.24028-0.12908-0.15093-0.090816-0.2054-0.1451-0.078553-0.06604-0.089146-0.08513-0.12838-0.14515-0.057851-0.075922-0.10379-0.15717-0.058905-0.10415-0.10743-0.22714-0.075608-0.19617-0.048032-0.14393-0.052446-0.17781-0.11768-0.47045-0.021148-0.061542-0.028702 0.038467-0.085018 0.042571-0.14952 0.04252-0.19661 0.024235-0.17342 0.006804-0.64856 0.007968-1.3143 0.03954-0.48621 0.023112-0.38798 0.038673-0.42898 0.063241-0.62084 0.11037-0.33777 0.069218-0.60984 0.13772-0.1994 0.038473-0.65104 0.091203-0.63755 0.077816-0.15852 0.008836-0.09548-3.01e-4 -0.1363-0.009454-0.50468-0.065992-0.2013-0.018076-0.20258-0.001195-0.15836 0.015387-0.15808 0.027431-0.13025 0.029224-0.50436 0.13798-0.17125 0.037945-0.30339 0.038219-0.067261 0.013665-0.027101 0.011672-0.045061-0.068071-0.078017-0.16947-0.096463-0.23248-0.10312-0.26912-0.10082-0.28772-0.091471-0.2939-0.13109-0.46548-0.064969-0.1915-0.041961-0.10612-0.1188-0.25118-0.23399-0.43264-0.1263-0.2247-0.13204-0.21209-0.16021-0.23458-0.23584-0.31376-0.10639-0.12609-0.16201-0.17552-0.52266-0.51346-0.26429-0.27523-0.18566-0.20821-0.10539-0.12742-0.059193-0.076479-0.14442-0.20735-0.12281-0.2072-0.12486-0.25315-0.74406-1.826-0.15819-0.34271-0.20412-0.40989-0.096743-0.21113-0.065682-0.16564-0.055035-0.17279-0.038109-0.1776-0.015515-0.16535 0.004178-0.17205 0.021556-0.15801 0.050053-0.19838 0.096399-0.25417 0.12573-0.25714 0.21335-0.38104 0.099677-0.19339 0.069107-0.15625 0.078521-0.22402 0.02948-0.11515 0.021145-0.12278 0.005157-0.15007-0.005238-0.05029-0.024061-0.093958-0.034703-0.065996-0.044656-0.047817-0.038572-0.023942-0.046691-0.015371-0.10341-0.002572-0.094171 0.019734-0.083022 0.028023-0.19477 0.088852-0.1855 0.10073-0.26214 0.16412-0.28652 0.21126-0.5541 0.44811-0.20598 0.14644-0.16765 0.10143-0.1089 0.055979-0.20658 0.084788-0.21017 0.067406-0.46145 0.1344-0.13919 0.050292-0.24567 0.11315-0.10847 0.064646-0.19381 0.13718-0.50614 0.42232-0.27256 0.20835-0.223 0.14463-0.11453 0.059667-0.15143 0.061144-0.17214 0.052199-0.12865 0.031107-0.32212 0.059021-0.29029 0.036892-0.40459 0.034012-0.21222 0.023325-0.21562 0.030954-0.37513 0.069171-0.30422 0.068862-0.38691 0.10203-0.5035 0.14261-0.74347 0.22207-0.37511 0.10445-0.16367 0.03813-0.15772 0.028492-0.21311 0.017588-0.1136-0.005793-0.10418-0.019158-0.090056-0.030839-0.07605-0.038946-0.08217-0.057583-0.07697-0.069916-0.07968-0.08954-0.080913-0.11154-0.055271-0.092013-0.08102-0.17214-0.032197-0.095156-0.026939-0.11505-0.021607-0.20313-0.013741-0.39568-0.015342-0.10206-0.031543-0.11157-0.052283-0.11608-0.077273-0.12673-0.084188-0.11328-0.18276-0.21964-0.047281-0.068881-0.037848-0.070412-0.03219-0.085383-0.0333-0.2128 0.007398-0.24429 0.037293-0.26657 0.05715-0.26729 0.21856-0.76562 0.030114-0.14544 0.019853-0.15988 0.002873-0.063022-0.00339-0.10837-0.01241-0.089188-0.061801-0.1842-0.078305-0.10746-0.088199-0.029978-0.10921 0.10626-0.31858 0.27945-0.5569 0.45371-0.25671 0.21892-0.19654 0.18911-0.36091 0.39819-0.16453 0.17334-0.37762 0.37375-0.26134 0.24149-0.3115 0.27135-0.1369 0.10844-0.14582 0.10005-0.086223 0.045197-0.058163 0.021269-0.054702 0.011266-0.056766 0.002019-0.046589-0.004657-0.088502-0.019834-0.2345-0.075863-0.17331-0.039406-0.14222-0.013315-0.096316-7.66e-4 -0.24016 0.015789-0.46264 0.046733-0.10084 0.012902-0.097048 0.019458-0.059172 0.018073-0.051123 0.022745-0.046116 0.031741-0.039285 0.047621-0.010154 0.025394-0.001506 0.01984 0.006276 0.015492-0.094427 0.082176-0.173 0.16861-0.2769 0.30174-0.14164 0.14326-0.12852 0.10599-0.048492 0.02798-0.047823 0.017624-0.047051 0.004499-0.054875-0.014204-0.053928-0.03078-0.053256-0.041907-0.21037-0.20019-0.052834-0.041223-0.053336-0.03021-0.054113-0.014219-0.053853 0.005291-0.054788 0.020368-0.22873 0.14064-0.060448 0.030266-0.062495 0.019989-0.056805 0.006277-0.09336-0.005473-0.27032-0.06018-0.064979-0.00885-0.061482 0.001401-0.056159 0.016474-0.050945 0.036586-0.044143 0.052811-0.037996 0.063586-0.056895 0.13386-0.022611 0.076173-0.031072 0.1198-0.12957 0.4202-0.11059 0.40181-0.069715 0.18888-0.12391 0.234-0.15448 0.22433-0.50163 0.62687-0.10927 0.16122-0.098069 0.18904-0.049081 0.14562-0.023161 0.15081-7.63e-4 0.15152 0.006498 0.080757 0.12603 0.84284 0.010979 0.1084 0.002199 0.086191-0.020143 0.19656-0.049571 0.20127-0.04688 0.1333-0.085691 0.17962-0.087894 0.1487-0.12197 0.1777-0.11811 0.1522-0.21535 0.24367-0.20257 0.19839-0.26798 0.22244-0.20632 0.13779-0.25939 0.13909-0.17481 0.079855-0.47024 0.19535-0.14445 0.072117-0.12123 0.076746-0.10556 0.090623-0.068589 0.081211-0.052501 0.080145-0.090853 0.18554-0.075118 0.20802-0.25002 0.87176-0.099723 0.29731-0.080619 0.21715-0.07473 0.17557-0.085559 0.17031-0.078865 0.13327-0.07508 0.11373-0.18827 0.24562-0.21091 0.23552-0.22748 0.22803-0.23931 0.2226-0.24741 0.2188-1.0152 0.86162-0.24756 0.21756-0.23904 0.22102-0.22618 0.22634-0.20764 0.23406-0.18163 0.24497-0.14578 0.26008-0.034387 0.079948-0.057799 0.16144-0.06494 0.22606-0.079578 0.33992-0.083129 0.40912-0.070941 0.39709-0.06939 0.45316-0.035264 0.29456-0.045351 0.51764-0.016855 0.26418-0.025791 0.57946-0.017656 0.86497-0.003597 0.98561-0.005835 0.21392-0.016465 0.094129-0.020839-0.008098-0.10208 9.3e-5 -0.26355 0.01723-0.30331 0.027885-0.41554 0.047026-0.89708 0.11453-0.30295 0.017554-0.17183-0.005761-0.23653-0.025944-0.19596-0.035685-0.1749-0.040849-0.29961-0.083763-0.21859-0.071552-0.29534-0.12079-0.21057-0.10589-0.15623-0.091487-0.29564-0.19774-0.16735-0.12282-0.15096-0.12014-0.10622-0.092184-0.18042-0.17105-0.18852-0.19132-0.1556-0.16527-0.26667-0.30186-0.31987-0.40237-0.14091-0.19957-0.32224-0.51134-0.1201-0.1695-0.06181-0.074957-0.1317-0.13591-0.11516-0.10126-0.13086-0.10193-0.18752-0.12201-0.18002-0.093616-0.10998-0.045022-0.13205-0.042489-0.14761-0.037589-0.17084-0.035348-0.27554-0.04364-0.20518-0.018684-0.3741-0.014371-0.48326-0.008377-0.20646 4.31e-4 -0.20703 0.008079-0.2155 0.021064-0.25606 0.046072-0.092806 0.02365-0.16387 0.051972-0.19473 0.077139-0.79195 0.37607-0.25223 0.10314-0.2096 0.077208-0.2187 0.070184-0.21564 0.05664-0.26149 0.054578-0.2093 0.031357-0.1706 0.015138-0.20625 0.00668-0.75007-0.027534-0.30871-0.006208-0.65944-0.003348-0.40258 0.005553-0.30901 0.016923-0.30988 0.0289-0.37326 0.042943-0.49179 0.065316-0.21015 0.021667-0.29034 0.015498-0.21822-0.005143-0.14781-0.016997-0.16294-0.035041-0.12306-0.038002-0.13006-0.05062-0.22331-0.11188-0.25993-0.16168-0.22811-0.16292-0.21794-0.19127-0.62433-0.63485-0.22001-0.19465-0.23729-0.16632-0.26845-0.12926-0.27795-0.08313-0.13496-0.024999-0.19733-0.020037-0.2404-0.001739-0.24388 0.017064-0.12922 0.015048-0.2879 0.049381-0.52002 0.11828-0.37221 0.070707-0.35487 0.044537-0.30227 0.017692-0.17174-9.94e-4 -0.20952-0.014695-0.2418-0.041999-0.11204-0.036159-0.08044-0.046148-0.022513-0.028155 0.006476-0.049715-0.019225-0.010174-0.012033-0.036987 5.87e-4 -0.058719 0.02099-0.10282 0.040872-0.12461 0.10913-0.25953 0.08464-0.17794 0.44256-0.86001 0.073413-0.16252 0.070902-0.19197 0.12955-0.4387 0.12486-0.48951 0.089054-0.37871 0.077077-0.39481 0.033115-0.21617 0.024896-0.21298 0.014379-0.17918 0.020724-0.40518 0.014413-0.19828 0.021336-0.19573 0.007661-0.19225-0.020152-0.16936-0.042951-0.17463-0.060507-0.17889-0.073879-0.18234-0.083935-0.18515-0.1901-0.38044-0.6064-1.1045-0.3001-0.57797-0.17988-0.39037-0.083276-0.2062-0.076385-0.21886-0.0625-0.2231-0.03106-0.14532-0.032159-0.22309-0.010707-0.16162 0.001392-0.16175 0.011035-0.1301 0.020019-0.12794 0.04375-0.1819 0.056662-0.17284 0.083054-0.20461 0.087963-0.1844 0.16167-0.28934 0.005117-0.014031-0.011764-0.032365-0.061027-0.064535-0.046435-0.03576-0.094352-0.059646-0.17429-0.08586-0.11361-0.045118-0.16435-0.054064-0.33681-0.078937-0.35899-0.046314-0.16138-0.009274-0.28985 3e-4 -0.29019 0.019407-0.28836 0.035831-0.32394 0.058395-0.20667 0.047355-0.34168 0.096414-0.19372 0.064189-0.19094 0.069248-0.28217 0.11192-0.2764 0.11978-0.92898 0.44458-0.27628 0.11958-0.23059 0.09182-0.4874 0.17986-0.51125 0.17517-0.17078 0.052667-0.7401 0.20506-0.301 0.067521-0.33305 0.053254-0.35315 0.039284-0.6203 0.050418-0.30086 0.032668-0.33932 0.047988-0.51868 0.091495-0.31307 0.044573-0.30908 0.026101-0.17587 0.006133-0.35767-0.005877-0.35016-0.029623-0.26786-0.039009-0.22834-0.041234-1.6992-0.34216-0.27759-0.067347-0.19428-0.065907-0.1438-0.069727-0.065114-0.041379-0.072145-0.059404-0.051653-0.059413-0.045696-0.077389-0.02112-0.052017-0.062829-0.25411-0.037936-0.089914-0.083536-0.10105-0.13965-0.097349-0.044892-0.022276-0.11639-0.040605-0.11846-0.017779-0.060039-0.003267-0.2993 0.001936-0.23508-0.008743-0.079878-0.009328-0.19987-0.036564-0.1392-0.034569-0.16519-0.049534-0.29511-0.10787-0.57109-0.24778-0.24538-0.099755-0.12264-0.042754-0.23884-0.058793-0.16433-0.015246-0.16469 0.001734-0.17998 0.014656-0.3698 0.044688-0.13051 0.01107-0.1225 0.002332-0.11861-0.011279-0.095924-0.026514-0.081729-0.045547-0.060418-0.059586-0.051848-0.083386-0.056824-0.16116-0.033477-0.17405-0.008435-0.072906-0.005084-0.1309 0.007158-0.091818 0.020182-0.085195 0.028995-0.049293 1.3643-1.3099 0.43708-0.4304 1.0438-1.0466 0.34664-0.33899 0.20515-0.1915 0.28302-0.24779 0.28995-0.23321 0.20782-0.15605 0.59985-0.43104 0.2351-0.18054 0.2477-0.21245 0.23572-0.23155 0.1333-0.14655 0.15477-0.18691 0.22876-0.3139 0.19613-0.30523 0.437-0.7386 0.21266-0.34326 0.22612-0.33487 0.24546-0.33098 0.21315-0.26685 0.22016-0.26136 0.42461-0.47286 0.20266-0.21213 0.20715-0.20676 0.21251-0.19992 0.22897-0.19934 0.28826-0.22395 0.26452-0.17756 0.27606-0.15863 0.32384-0.15616 0.18227-0.0753 0.18553-0.068063 0.3466-0.10592 0.41391-0.098911 0.6107-0.12193 0.38279-0.082896 0.28751-0.076404 0.28164-0.093536 0.18335-0.073715 0.1347-0.061832 0.2608-0.1415 0.16269-0.10535 0.089987-0.064826 0.13101-0.10378 0.12596-0.11156 0.19791-0.20291 0.15836-0.19188 0.097026-0.13269 0.12172-0.18476 0.16597-0.28753 0.11794-0.23049 0.095933-0.20387 0.39797-0.9325 0.16886-0.37398 0.12566-0.24887 0.060112-0.10557 0.052895-0.077206 0.032841-0.019047-0.26801-0.2935-0.18075-0.20874-0.15036-0.19062-0.28144-0.37448-0.13823-0.1593-0.071221-0.066657-0.073894-0.054392-0.24754-0.12624-0.30649-0.17857-0.06334-0.056783-0.058758-0.068849-0.1084-0.16229-0.10149-0.18212-0.34701-0.69163-0.15985-0.29847-0.14586-0.23263-0.10575-0.13437-0.056083-0.054454-0.05784-0.0406-0.059231-0.022907-0.043603-0.004102-0.055053 0.008571-0.062367 0.026818-0.030458 0.025102-0.035443-0.033141-0.076387-0.113-0.066266-0.11887-0.09005-0.18427-0.18323-0.43439-0.12839-0.34865-0.078902-0.26276-0.2614-1.0019-0.1396-0.6844-0.044936-0.1635-0.047217-0.11806-0.048254-0.085145-0.039368-0.053564-0.049173-0.053815-0.098127-0.081173-0.080054-0.049656-0.094611-0.047424-0.33879-0.14729-0.14608-0.070207-0.14503-0.085884-0.081828-0.061616-0.069829-0.066093-0.034242-0.040452-0.051654-0.083134-0.044275-0.13883-0.004288-0.11538 0.005452-0.039537 0.027592-0.090475 0.032114-0.059823 0.12811-0.12926 0.11625-0.055607 0.13355-0.035082 0.31999-0.047977 0.3728-0.073231 0.32021-0.088206 0.2176-0.074163 0.16532-0.068286 0.1454-0.069856 0.14094-0.078059 0.22326-0.14947 0.084373-0.065686 0.15974-0.13994 0.20312-0.20652 0.064901-0.077882 0.07415-0.10191 0.071675-0.1186 0.069342-0.15123 0.037411-0.11956 0.018843-0.10004 0.005669-0.065354 5.26e-4 -0.047984-0.013077-0.12278-0.031903-0.12144-0.0532-0.12911-0.045263-0.084559-0.067127-0.10402-0.11287-0.14108-0.094842-0.096329-0.18582-0.14633-0.22864-0.14004-0.31371-0.16773-0.67834-0.34872-0.19205-0.10746-0.18287-0.11174-0.21903-0.14685-0.14632-0.11858-0.11024-0.1115-0.089514-0.11161-0.064967-0.099332-0.041751-0.079245-0.050583-0.12407-0.043968-0.17653-0.008485-0.094697 0.003276-0.1043 0.012864-0.092179 0.070596-0.30909 0.005256-0.15213-0.007963-0.047007-0.0274-0.086064-0.0194-0.043092-0.064282-0.10979-0.080057-0.1064-0.086642-0.097519-0.10835-0.10823-0.66685-0.61609-0.26027-0.26224-0.12705-0.13698-0.1691-0.19632-0.10227-0.12914-0.11556-0.16053-0.10679-0.16816-0.098254-0.17286-0.20298-0.39787-0.10222-0.21999-0.16205-0.4089-0.3265-0.93834-0.088869-0.22641-0.061263-0.13596-0.10354-0.18305-0.077007-0.10994-0.10001-0.12703-0.16829-0.18418-0.19727-0.1866-0.19765-0.16662-0.15376-0.11262-0.14305-0.088631-0.15421-0.079462-0.19253-0.07507-0.10572-0.029907-0.19315-0.033076-0.16349-0.005811-0.16984 0.011111-0.29825 0.041648-0.17451 0.035375-0.2026 0.06054-0.15627 0.061209-0.12644 0.057598-0.52215 0.27999-0.16287 0.078761-0.20301 0.083244-0.1686 0.052758-0.14257 0.030169-0.098023 0.011194-0.087647 0.001755-0.08395-0.007154-0.078866-0.016643-0.12212-0.051348-0.036907-0.022719-0.12694-0.10711-0.11381-0.13743-0.10308-0.16088-0.073094-0.13537-0.054482-0.11139-0.10204-0.2335-0.094323-0.2421-0.19768-0.54591-0.076877-0.189-0.10843-0.23379-0.052723-0.095413-0.082-0.11684-0.047648-0.05209-0.11296-0.097657-0.33155-0.23403-0.60436-0.48834-0.28096-0.21308-0.27976-0.18592-0.38395-0.23352-0.20492-0.15007-0.11299-0.09449-0.13415-0.12781-0.065137-0.081998-0.009085-0.018175-0.001266-0.019234-0.04888-0.043563-0.048413-0.083927-0.034552-0.10571-0.007389-0.11353 0.032005-0.1181 0.068825-0.10656 0.097213-0.087817 0.10049-0.057816 0.27544-0.12154 0.11972-0.068799 0.10283-0.088107 0.068631-0.097956 0.048907-0.11545 0.031165-0.1384 0.012785-0.16107-0.008979-0.28422-0.04699-0.49155-0.006508-0.15828 0.009303-0.18272 0.020243-0.15288 0.030339-0.14886 0.045714-0.15874 0.049745-0.12804 0.059583-0.11649 0.070363-0.10118 0.082864-0.081059 0.045704-0.030441 0.065257-0.029548 0.071135-0.019596 0.080981-0.011876 0.085551-0.004176 0.16276 0.008455 0.093984 0.012577 0.62306 0.13068 0.24868 0.032225 0.12622 0.004187 0.10274-0.006949 0.092701-0.016696 0.092056-0.026056 0.15046-0.060348 0.14972-0.077657 0.14963-0.090533 0.27353-0.18901 0.14064-0.10976 0.13719-0.11935 0.12412-0.12478 0.070208-0.08175 0.064543-0.085704 0.057074-0.087384 0.033038-0.059173 0.014657-0.045122 0.037236-0.089009 0.36974-0.79252 0.19358-0.4576 0.048022-0.12977 0.059527-0.1992 0.03061-0.16774 0.014113-0.16946-2.16e-4 -0.17012-0.011449-0.1571-0.021061-0.15626-0.029835-0.15486-0.049838-0.19674-0.058816-0.19372-0.20346-0.60954-0.055551-0.20532-0.036121-0.20299-0.00771-0.2007 0.020749-0.16562 0.041458-0.1642 0.056658-0.16298 0.141-0.32253 0.26417-0.55166 0.073805-0.17528 0.057418-0.16802 0.12471-0.50424 0.01791-0.11901-0.006357-0.11701-0.014516-0.05432-0.049464-0.1078-0.090941-0.13469-0.092434-0.11477-0.30564-0.35564-0.15662-0.19895-0.094993-0.13788-0.29387-0.47136-0.1193-0.16864-0.14866-0.16773-0.5908-0.56108-0.021275-0.023164-0.25429-0.37768-0.10454-0.14198-0.20578-0.2664-0.2368-0.28962-0.15165-0.17492-0.16344-0.16146-0.13755-0.11122-0.14568-0.093882-0.15842-0.074445-0.23147-0.062765-0.2406-0.030425-0.45763-0.029481-0.2113-0.006024-0.20902 0.010413-0.20495 0.037248-0.19037 0.067741-0.16277 0.081119-0.09276 0.054339-0.13033 0.085987-0.11732 0.088181-0.1764 0.15388-0.11792 0.11696-0.13669 0.14949-0.22832 0.27705-0.45763 0.58599-0.12166 0.14288-0.17658 0.1871-0.12706 0.118-0.2082 0.16636-0.17864 0.12287-0.20529 0.12537-0.18518 0.10244-0.20756 0.10542-0.40534 0.18246-0.26981 0.10621-0.23429 0.083522-0.20904 0.068473-0.36246 0.10758-0.35461 0.090395-0.17033 0.03417-0.20716 0.028158-0.15053 0.008446-0.16197-0.003724-0.1442-0.013035-0.14574-0.02074-0.24444-0.048241-0.33356-0.090269-0.22488-0.079108-0.13524-0.056408-0.13498-0.064075-0.20422-0.11377-0.097634-0.062228-0.18038-0.12924-0.10043-0.080926-0.18878-0.17277-0.19787-0.21454-0.1057-0.12967-0.10871-0.14386-0.18223-0.2622-0.14311-0.22036-0.13592-0.23515-0.073337-0.15342-0.055322-0.14545-0.058341-0.21233-0.024232-0.13382-0.013848-0.16796 0.004551-0.14734 0.020174-0.1681 0.049171-0.23844 0.083621-0.28367 0.14163-0.38334 0.08855-0.20749 0.33546-0.71349 0.027517-0.073664-0.003713-0.016467 0.058262 0.014339 0.10278 0.003071 0.16259-0.007602 0.17171-0.019351 0.20063-0.035598 0.13645-0.032484 0.13221-0.038778 0.21254-0.081776 0.14724-0.077163 0.10776-0.074487 0.050167-0.043756 0.048506-0.051805 0.058061-0.08974 0.026599-0.087804 0.015598-0.13407 0.014615-0.067122 0.038625-0.086523 0.062883-0.081457 0.16303-0.16503 0.044539-0.060994 0.020495-0.038343 0.034901-0.1074 0.025767-0.1789 0.016882-0.07794 0.02587-0.072509 0.034521-0.066027 0.051519-0.072437 0.059126-0.066111 0.1046-0.098387 0.097105-0.080472 0.117-0.084872 0.10691-0.066244 0.25255-0.1407 0.11062-0.081876 0.08018-0.083324 0.077378-0.12698 0.028292-0.085211 0.013107-0.11137-0.005426-0.08087-0.017012-0.081789-0.054239-0.14041-0.076814-0.13277-0.40052-0.53434-0.37565-0.52813-0.14042-0.20933-0.37126-0.57862-0.16754-0.24429-0.1693-0.22474-0.24842-0.30502-0.024243-0.029844-0.009069-0.053231-0.002978-0.089335 0.008601-0.14054 0.015221-0.11566 0.032552-0.16232 0.055765-0.19174 0.077193-0.19259 0.075702-0.14786 0.085443-0.13937 0.10704-0.14938 0.16221-0.19243 0.12894-0.13281 0.17228-0.15579 0.18262-0.14089 0.21637-0.13717 0.17733-0.090226 0.22085-0.08617 0.28646-0.071123 0.22224-0.023934 0.21238 0.002175 0.27689 0.039387 0.2552 0.074958 0.14317 0.060798 0.12028 0.064212 0.15973 0.10902 0.070327 0.057358 0.40184 0.35995 0.15865 0.12203 0.2345 0.15245 0.22772 0.11822 0.2083 0.086615 0.19337 0.065848 0.22637 0.062003 0.13638 0.030031 0.14784 0.026536 0.21104 0.027205 0.20581 0.013513 0.20429-5.63e-4 0.1173-0.007358 0.14224-0.017368 0.16061-0.033611 0.1089-0.033186 0.14102-0.058434 0.13961-0.080529 0.12451-0.099135 0.13135-0.13964 0.071567-0.090066 0.15459-0.21952 0.06026-0.09788 0.098095-0.18899 0.044528-0.10528 0.054389-0.15706 0.031116-0.11364 0.049304-0.25508 0.023819-0.22976 0.003979-0.12514-0.005695-0.15358-0.01408-0.11853-0.030133-0.1407-0.035423-0.10763-0.038913-0.087448-0.041401-0.072949-0.074328-0.099469-0.063617-0.065054-0.066439-0.054899-0.062564-0.042477-0.12364-0.065658-0.16564-0.064781-0.23289-0.065386-0.17675-0.034721-0.20275-0.028509-0.2723-0.025876-0.35149-0.013626-0.44395-0.001403-0.16073-0.006903-0.13192-0.012036-0.12824-0.01865-0.20052-0.045455-0.17188-0.05781-0.14471-0.065571-0.15912-0.09437-0.1737-0.13935-0.094717-0.10068-0.079494-0.10803-0.079849-0.15489-0.05049-0.19863-1.08e-4 -0.15665 0.028664-0.1301 0.046883-0.10868 0.081854-0.12381 0.10635-0.11532 0.10596-0.090827 0.12256-0.088126 0.20954-0.12343 0.17158-0.081383 0.16331-0.062921 0.14532-0.044318 0.26124-0.053038 0.11524-0.012603 0.20517-0.006387 0.15051 0.008053 0.13444 0.016009 0.21268 0.042222 0.2057 0.059993 0.14301 0.052357 0.45938 0.20455 0.20779 0.085323 0.15382 0.053313 0.17499 0.048016 0.23057 0.038533 0.11028 0.006776 0.16845-0.004671 0.14718-0.019701 0.090634-0.020058 0.15695-0.051547 0.17219-0.091245 0.12346-0.10591 0.082737-0.1154 0.029742-0.064426 0.033595-0.13547 0.003539-0.11816-0.015973-0.11516-0.022566-0.085742-0.048039-0.12762-0.081756-0.16211-0.14321-0.232-0.4435-0.63755-0.21591-0.32872-0.089813-0.14893-0.112-0.20748-0.058984-0.14706-0.003177 0.015993-0.044021 0.052426-0.063553 0.034856-0.080875 0.016168-0.080877-0.003808-0.093966-0.021362-0.088994-0.032689-0.11005-0.053357-0.42762-0.25615-0.27552-0.15372-0.2257-0.10781-0.15885-0.063256-0.14783-0.048023-0.16875-0.041338-0.30261-0.03538-0.17357 0.003354-0.19289 0.020964-0.2823 0.055992-0.24591 0.067872-0.22678 0.074275-0.79083 0.29472-0.72537 0.3001-0.14534 0.055969-0.14361 0.047725-0.16402 0.040573-0.16334 0.019925-0.24879-0.015684-0.24917-0.057691-0.17899-0.057821-0.52436-0.19299-0.27672-0.084595-0.61898-0.12557-0.1964-0.065889-0.12551-0.061679-0.19458-0.12657-0.15547-0.12424-0.27621-0.2567-0.27522-0.28451-0.13439-0.14835-0.20644-0.24553-0.12894-0.17064-0.096649-0.14448-0.073028-0.13301-0.05999-0.13796-0.037373-0.11105-0.031825-0.12796-0.021022-0.12412-0.012994-0.13732-0.002074-0.14533 0.016561-0.18623 0.035709-0.15947 0.073017-0.17375 0.092504-0.13211 0.10867-0.11173 0.11765-0.096125 0.1174-0.080768 0.19997-0.11467 0.19019-0.09152 0.26187-0.10982 0.23916-0.088413 0.34426-0.11249 0.32642-0.088768 0.49757-0.1189 0.15184-0.044079 0.19059-0.065582 0.31982-0.1336 0.61547-0.28513 0.43401-0.19114 0.41122-0.16372 0.71681-0.26832 0.19709-0.080953 0.18894-0.085543 0.23466-0.11946 0.17866-0.10654 0.14617-0.10213 0.1416-0.11591 0.13144-0.12988 0.0946-0.1145 0.073514-0.11731 0.038822-0.097081 0.018957-0.095953-0.003781-0.11724-0.029515-0.11777-0.088956-0.17519-0.066424-0.085696-0.078012-0.07628-0.06925-0.052447-0.093606-0.058665-0.6452-0.37195-0.20201-0.099313-0.3664-0.14138-0.13218-0.056248-0.20676-0.097164-0.12315-0.067766-0.18124-0.12636-0.068903-0.056726-0.17005-0.16007-0.19839-0.22274-0.16394-0.21422-0.11296-0.16481-0.10883-0.1723-0.16847-0.29256-0.12517-0.23772-0.16299-0.34127-0.0898-0.21404-0.077592-0.21803-0.075487-0.2785-0.03603-0.18355-0.025192-0.18222-0.015264-0.18874-0.006462-0.18224-5e-5 -0.27315 0.010848-0.42273 0.060359 0.013562 0.10813-0.028437 0.14513-0.068504 0.16639-0.10806 0.12398-0.098072 0.19456-0.18347 0.1616-0.17537 0.15884-0.19112 0.092076-0.12423 0.071671-0.10768 0.072984-0.12356 0.061032-0.11743 0.081888-0.18331 0.21715-0.56394 0.10348-0.22286 0.10447-0.1873 0.087361-0.12954 0.084985-0.10734 0.18913-0.20086 0.22082-0.19509 0.21996-0.17211 0.20088-0.14088 0.38581-0.25305 0.13812-0.085235 0.15848-0.087034 0.55821-0.27586 0.35404-0.19176 0.24196-0.14842 0.18733-0.13189 0.10321-0.08308 0.093016-0.083909 0.11352-0.1218 0.036911-0.050733 0.0389-0.067276 0.043766-0.12151 0.014237-0.14346-0.026102-0.21048-0.050762-0.19081-0.11833-0.38141-0.064466-0.26861-0.018262-0.13898-0.003811-0.11063 0.002482-0.057798 0.016923-0.12427 0.026294-0.10686 0.073378-0.19804 0.04274-0.090793 0.16574-0.29749 0.25913-0.44031 0.16098-0.28976 0.11178-0.22809 0.065547-0.15844 0.061975-0.18591 0.059847-0.24745 0.035404-0.25048 0.001889-0.24554-0.026878-0.24212-0.049602-0.24264-0.051182-0.1853-0.070951-0.19666-0.058179-0.12598-0.13156-0.22888-0.2208-0.34919-0.13817-0.2457-0.092889-0.21077-0.089177-0.25295-0.076387-0.25758-0.15981-0.5806-0.048983-0.15886-0.09383-0.25912-0.062254-0.1367-0.065326-0.11355-0.047383-0.065055-0.037199-0.040911-0.034585-0.025965-0.02272-6.12e-4 -0.15217-0.23228-0.19807-0.27956-0.65994-0.86986-0.15872-0.22597-0.13712-0.21348-0.084338-0.14468-0.12028-0.233-0.2897-0.67766-0.057642-0.11923-0.061922-0.11198-0.06775-0.10282-0.075352-0.091392-0.087205-0.081985-0.25531-0.21666-0.22768-0.232-0.19237-0.21172-0.095956-0.11913-0.089951-0.143-0.047272-0.11632-0.027043-0.12203-0.007007-0.12632 0.029263-0.40747 0.002558-0.1091-0.014196-0.2078-0.02698-0.15728-0.040311-0.15692-0.030433-0.092663-0.035459-0.091484-0.057286-0.12286-0.053139-0.095834-0.098346-0.15158-0.18672-0.25689-0.086449-0.11003-0.091715-0.1043-0.099042-0.09535-0.14482-0.11009-0.13852-0.084422-0.18561-0.092921-0.11335-0.041062-0.02284-6.89e-4 -0.010572-0.004444-0.071164-0.094093-0.086001-0.17772-0.076186-0.22254-0.045976-0.23955 0.001546-0.23622 0.034626-0.1496 0.048464-0.11468 0.037028-0.063903 0.059945-0.081588 0.090746-0.093689 0.088917-0.070453 0.11079-0.068756 0.16837-0.074585 0.17386-0.049987 0.26984-0.045222 0.29733-0.026396 0.25889-0.008173 0.1558 0.005319 0.5346 0.037676 0.22655-0.002595 0.11549-0.011136 0.15572-0.030545 0.16203-0.056421 0.093545-0.045028 0.087352-0.050677 0.096372-0.067964 0.088434-0.074208 0.50982-0.505 0.4556-0.42905 0.09147-0.094822 0.15575-0.18467 0.086641-0.12456 0.088684-0.15432 0.082906-0.1785 0.07075-0.19876 0.031208-0.12414 0.018771-0.12653 0.002241-0.14738-0.015873-0.10823-0.020448-0.072693-0.02511-0.066367-0.048043-0.096286-0.33143-0.50553-0.059133-0.082894-0.081461-0.096579-0.13551-0.13487-0.17412-0.15372-0.19728-0.16146-0.36858-0.2842-0.16406-0.13986-0.18803-0.17829-0.34465-0.34717-0.14387-0.13263-0.10467-0.087205-0.10571-0.078576-0.13094-0.082579-0.10853-0.058633-0.14275-0.065727-0.14031-0.051327-0.14017-0.039904-0.15656-0.033464-0.21484-0.025257-0.54508-0.02604-0.1288-0.011358-0.20226-0.029759-0.32104-0.072301-0.277-0.086658-0.22638-0.092843-0.13463-0.069642-0.08079-0.049594-0.14944-0.11442-0.045666-0.043141-0.089685-0.10262-0.11603-0.19626-0.043461-0.11379-0.035954-0.13381-0.040227-0.23516-0.021214-0.17321-0.013949-0.17035-0.003693-0.16376 0.016115-0.37938-9.98e-4 -0.22713-0.016397-0.14344-0.021431-0.072402-0.033968-0.069553-0.037152-0.053745-0.059404-0.062919-0.11034-0.078894-0.1247-0.073032-0.13287-0.087062-0.12469-0.092485-0.32728-0.26741-0.12053-0.078577-0.22365-0.12206-0.24602-0.11614-0.79322-0.35157-0.2601-0.13128-0.20441-0.11644-0.53562-0.32434-0.083605-0.046481-0.17832-0.086689-0.14864-0.05511-0.14293-0.043378-0.14495-0.035146-0.71935-0.12907-0.22611-0.057963-0.28321-0.086474-0.12552-0.04557-0.25086-0.10255-0.25874-0.12177-0.1665-0.10234-0.11828-0.09372-0.21893-0.20723-0.1018-0.11206-0.081356-0.10581-0.088975-0.13774-0.060135-0.11706-0.16441-0.39518-0.06439-0.12921-0.13551-0.20841-0.18931-0.24985-0.22153-0.27038-0.4519-0.5161-0.38937-0.42487-0.57421-0.60814-0.55053-0.56972-0.41033-0.41279-0.32686-0.3141-0.3466-0.31466-0.17663-0.15145-0.2166-0.17569-0.22167-0.16634-0.22808-0.15443-0.23622-0.13929-0.29004-0.14193-0.29987-0.1245-0.92421-0.34576-0.46905-0.19511-0.28181-0.12563-0.4895-0.23498-0.25523-0.13497-0.50192-0.28962-0.49396-0.30913-0.52618-0.35078-0.5336-0.37941-0.86027-0.64947-0.45119-0.32735-0.48249-0.33299-0.38724-0.25931-1.3562-0.87656-0.27547-0.18517-0.26343-0.18641-0.222-0.16538-0.1578-0.12461-0.058747-0.055789 0.11301-0.15537 0.25315-0.31328 0.15331-0.17285 0.16434-0.17024 0.17304-0.16067 0.35233-0.28868 0.36332-0.29006 0.36727-0.27452 0.18598-0.12531 0.18861-0.11346 0.19238-0.098013 0.20549-0.083393 0.20725-0.0691 0.59504-0.18095 0.1757-0.069316 0.43361-0.22427 0.12396-0.075263 0.1128-0.082692 0.041726-0.036636 0.090135-0.095036 0.17351-0.20082 0.1024-0.095594 0.38167-0.30686 0.15493-0.14067 0.11142-0.11935 0.1052-0.12804 0.099724-0.13415 0.28277-0.41668 0.1047-0.13457 0.11807-0.12124 0.14208-0.1076 0.17711-0.10248 0.22116-0.10636 0.24719-0.10642 0.34592-0.12811 0.49055-0.15296 0.52269-0.1471 0.60577-0.1624 0.057511-0.020033 0.081344-0.012851 0.16447-0.064918 0.20899-0.10581 0.22468-0.14078 0.09873-0.072219 0.20996-0.17205 0.20057-0.18912 0.18426-0.20131 0.16158-0.21007 0.30438-0.49223 0.080402-0.11964 0.58645-0.77655 0.12329-0.18444 0.12604-0.22003 0.11688-0.24507 0.094911-0.2421 0.088151-0.3032 0.097972-0.52405 0.053975-0.23067 0.054918-0.16398 0.033045-0.077293 0.086763-0.15494 0.086307-0.11649 0.089996-0.1016 0.1206-0.11618 0.10958-0.092789 0.25413-0.19028 0.6716-0.4666 0.19454-0.15138 0.2003-0.17925 0.14137-0.1505 0.11323-0.14016 0.13906-0.19984 0.29377-0.46158 0.16901-0.29013 0.14771-0.2882 0.11325-0.24419 0.27061-0.65313 0.13396-0.30071 0.17057-0.35102 0.18718-0.34072 0.23312-0.38552 0.54968-0.82752 0.29247-0.48926 0.18054-0.28448 0.13241-0.19592 0.13113-0.17509 0.23239-0.27774 0.084533-0.1509 0.017685-0.060022 0.011198-0.076753-0.001741-0.12348-0.015429-0.1051-0.039412-0.17412-0.092038-0.30016-0.054728-0.2045-0.014843-0.074798-0.013525-0.091723-0.009933-0.13285 0.003718-0.16286 0.022247-0.16387 0.055173-0.20621 0.076791-0.20554 0.15087-0.35031 0.068958-0.14447 0.12176-0.21666 0.14032-0.21808 0.64779-0.91637 0.24281-0.30492 0.17751-0.20325 0.22245-0.23946 0.10072-0.097586-0.029957-0.023164-0.066303-0.026032-0.45345-0.11534-0.15646-0.061207-0.21802-0.14002-0.21118-0.19647-0.20307-0.2386-0.19503-0.26796-0.18754-0.28742-0.18068-0.29983-0.17437-0.30749-0.33096-0.62714-0.29402-0.60124-0.57022-1.1941-0.26892-0.53015-0.4284-0.78411-0.73234-1.2758-0.14834-0.27744-0.14059-0.28064-0.16758-0.36664-0.099689-0.24165-0.090204-0.24396-0.12995-0.41879-0.18867-0.70186-0.087102-0.28417-0.063445-0.17092-0.073122-0.16219-0.081555-0.14491-0.095478-0.13288-0.15049-0.15587-0.17301-0.1382-0.18964-0.12753-0.23507-0.14173-0.24651-0.13598-0.25469-0.12948-0.36291-0.16548-0.32462-0.1249-0.19678-0.063057-0.21034-0.054413-0.18815-0.033812-0.26407-0.018278-0.25678 0.01451-0.2436 0.045048-0.19683 0.060138-0.63819 0.22618-0.18864 0.053667-0.25092 0.044746-0.21384-7.84e-4 -0.12084-0.024396-0.22338-0.1049-0.20836-0.16674-0.19169-0.20882-0.17062-0.22929-0.14155-0.22324-0.099693-0.18153-0.038389-0.09106 0.090141-0.015443 0.14964-0.079317 0.17955-0.12345 0.18498-0.15607 0.17135-0.1819 0.15212-0.2106 0.13642-0.21802 0.14027-0.20927 0.16535-0.18495 0.1133-0.089645 0.12648-0.078116 0.24972-0.11455 0.1795-0.062322 0.18703-0.053334 0.20377-0.048314 0.20686-0.041547 0.30271-0.051606 0.60747-0.089321 0.1993-0.04057 0.18713-0.053955 0.11239-0.042967 0.24712-0.12592 0.25536-0.15791 0.19885-0.14202 0.19158-0.15562 0.17998-0.16878 0.16326-0.18238 0.14233-0.19732 0.11897-0.20786 0.093956-0.21463 0.06577-0.21819 0.032787-0.21895-0.005101-0.25849-0.006475-0.068273-0.095434-0.64446-0.13559-0.77844-0.059168-0.27589-0.054966-0.20995-0.079224-0.26841-0.25423-0.79475-0.076942-0.25857-0.072436-0.27845-0.059554-0.29264-0.022545-0.15641-0.031179-0.32979-0.030715-0.21382-0.045951-0.21503-0.061836-0.21189-0.079093-0.20415-0.079694-0.16333-0.30971-0.58207-0.12037-0.20173-0.13335-0.18512-0.1527-0.1592-0.174-0.1259-0.56549-0.302-0.16618-0.11897-0.14205-0.15006-0.11885-0.17084-0.10355-0.18024-0.064646-0.12438-0.055574-0.12462-0.074807-0.23038-0.090283-0.32097-0.040546-0.18425-0.024065-0.18471 0.002666-0.1948 0.04425-0.18577 0.087014-0.1601 0.028098-0.037986 0.10772-0.11963 0.1169-0.10374 0.13126-0.098725 0.15745-0.10311 0.16901-0.098716 0.27648-0.14482 0.59266-0.2764 0.78703-0.33822 0.61204-0.24777 0.99775-0.37808 0.84769-0.35421 0.30135-0.13539 0.33815-0.16379 0.22832-0.11937 0.22214-0.12447 0.2137-0.13035 0.20274-0.13766 0.1715-0.13228 0.15753-0.1405 0.1617-0.17542 0.13242-0.19081 0.083199-0.17366 0.055841-0.17097 0.033111-0.14266 0.026009-0.15429 0.018221-0.15194 0.022487-0.33769 0.003786-0.49244-0.009706-0.28962-0.016199-0.26084-0.046642-0.45447-0.039334-0.2648-0.07683-0.39919-0.27073-1.1862-0.10906-0.39458-0.14065-0.41501-0.14906-0.36692-0.37054-0.7602-0.21981-0.4766-0.13572-0.31287-0.20929-0.52046-0.38859-0.99814-0.20485-0.49259-0.11094-0.24491-0.1162-0.23492-0.23465-0.45233-0.12119-0.26027-0.1146-0.26952-0.10604-0.2771-0.094826-0.28318-0.080218-0.28775-0.064139-0.2908-0.11484-0.57354-0.046978-0.18706-0.055439-0.17582-0.039919-0.10515-0.22432-0.50965-0.13797-0.34277-0.046844-0.13209-0.02989-0.10155-0.024992-0.12087-0.014884-0.13355 0.003324-0.026694 0.077125-0.002622 0.10526 0.018065 0.18106 0.044653 0.18579 0.058941 0.20771 0.08425 0.18121 0.094098 0.2483 0.16902 0.14076 0.12069 0.15907 0.1623 0.076447 0.088503 0.23068 0.30098 0.3024 0.43241 0.5742 0.844 0.1935 0.27274 0.28706 0.37546 0.13297 0.15916 0.13765 0.15299 0.12993 0.13268 0.16697 0.1551 0.13232 0.11239 0.13557 0.10724 0.22729 0.1662 0.46584 0.32347 0.17686 0.13277 0.17988 0.15022 0.19578 0.18754 0.17957 0.19886 0.1705 0.21492 0.45898 0.64355 0.13388 0.16502 0.15847 0.15897 0.16693 0.12191 0.12708 0.064663 0.10315 0.036826 0.17365 0.035266 0.20272 0.005246 0.21645-0.031621 0.18579-0.053038 0.47788-0.19014 0.12526-0.042169 0.19608-0.040874 0.15784-8.52e-4 0.079558 0.013555 0.061939 0.017654 0.13604 0.060588 0.13358 0.086098 0.15498 0.12258 0.33653 0.28961 0.26905 0.2507 0.20622 0.22174 0.18435 0.23383 0.091147 0.13304 0.074311 0.1209 0.086477 0.16022 0.076851 0.16807 0.064644 0.16808 0.074163 0.23404 0.064739 0.24976 0.069525 0.32014 0.12934 0.66008 0.077329 0.33408 0.095958 0.32755 0.056755 0.15835 0.062384 0.15058 0.091674 0.18436 0.09281 0.14776 0.063185 0.080651 0.06212 0.065203 0.050526 0.043864 0.19094 0.11462 0.22035 0.080874 0.64825 0.1663 0.41209 0.12362 0.5316 0.17984 1.2333 0.44584 0.65605 0.22096 0.20926 0.062113 0.37163 0.090983 0.19908 0.038605 0.33844 0.04922 0.38995 0.034769 0.20029 0.010406 0.42285 0.009353 0.69856-0.008451 0.70584-0.023823 0.58962-0.031917 1.3151-0.091095 1.8633-0.15278 1.4758-0.13118 2.6312-0.24917 3.5071-0.31147 2.1886-0.20127 0.67982-0.069154 0.33203-0.040193 0.32289-0.04689 0.30934-0.056898 0.28975-0.071445 0.26196-0.09213 0.22323-0.12101 0.17007-0.1607 0.073436-0.12661 0.044929-0.12603 0.029877-0.13755 0.019105-0.16712 0.005868-0.23635-0.01128-0.24975-0.024049-0.25974-0.033417-0.26709-0.092928-0.59483-0.64411-3.6004-0.66808-3.5556-0.64289-3.2704-0.11759-0.64941-0.050615-0.31972-0.041409-0.31383-0.028064-0.30505-0.009121-0.29233 0.017283-0.2743 0.053515-0.24921 0.10253-0.21484 0.12836-0.14422 0.16269-0.11841 0.17234-0.089093 0.19306-0.074142 0.20052-0.058037 0.2041-0.044476 0.27426-0.041233 0.27828-0.022071 0.27715-0.001032 0.27102 0.023678 0.25969 0.053987 0.24262 0.092024 0.23254 0.14366 0.21415 0.17886 0.59631 0.5932 0.2024 0.16712 0.21365 0.12447 0.19662 0.06093 0.20305 0.017744 0.20304-0.023999 0.19656-0.066564 0.15802-0.090964 0.14882-0.11794 0.13973-0.13987 0.1748-0.21548 0.16327-0.23584 0.41685-0.67456 0.14432-0.21688 0.15658-0.19308 0.17785-0.15758 0.18564-0.104 0.20491-0.070993 0.21846-0.043849 0.22695-0.021257 0.20466-0.002987 0.20476 0.008825 0.38795 0.030416 0.21832 0.003885 0.11488-0.006872 0.1539-0.021838 0.1399-0.034849 0.13922-0.051946 0.16026-0.085682 0.13626-0.096678 0.080311-0.066964 0.19208-0.18667 0.54565-0.60743 0.19053-0.17657 0.20472-0.14039 0.16255-0.071629 0.17054-0.042765 0.17538-0.012802 0.16402 0.015601 0.1642 0.039035 0.20473 0.077301 0.20029 0.10371 0.19953 0.12737 0.2241 0.1566 0.22416 0.16763 0.21962 0.17726 0.21013 0.18639 0.19517 0.19573 0.35365 0.39952 0.15826 0.16446 0.16492 0.15394 0.21836 0.17344 0.22324 0.14562 0.17727 0.091257 0.1623 0.060944 0.16267 0.047795 0.43044 0.10995 0.075832 0.017465 0.1603 0.023125 0.092552-0.001689 0.098631-0.021273 0.14198-0.079651 0.12189-0.12577 0.098461-0.1599 0.063395-0.15301 0.10785-0.3344 0.078756-0.21304 0.092492-0.20491 0.16291-0.30537 0.060937-0.13467 0.018944-0.053285 0.026329-0.10431 0.010019-0.085621-0.018977-0.21789-0.06644-0.2288-0.096654-0.23643-0.18122-0.39291-0.085944-0.21136-0.068607-0.21661-0.043515-0.21976-0.009468-0.22095 0.010362-0.10714 0.01797-0.098632 0.057544-0.19852 0.080904-0.19722 0.099068-0.19564 0.10799-0.18578 0.11725-0.18353 0.18072-0.26135 0.16942-0.22966 0.17213-0.21704 0.17385-0.19735 0.17501-0.16881 0.17598-0.12908 0.17709-0.075218 0.13865-0.012968 0.13558 0.022906 0.11798 0.04527 1.6955 0.89316 2.4349 1.2323 0.59834 0.31391 0.29216 0.16121 0.24482 0.14278 0.21072 0.13369 0.23215 0.15945 0.21497 0.15757 0.20645 0.16272 0.19583 0.16842 0.41445 0.38802 0.17476 0.14559 0.18328 0.13076 0.193 0.1116 0.19655 0.087255 0.20436 0.073278 0.45429 0.14788 0.24944 0.093874 0.24972 0.10558 0.49777 0.23489 0.39108 0.19758 0.55157 0.26892 0.56338 0.2589 0.28198 0.11353 0.28169 0.094888 0.28106 0.068404 0.28009 0.032077 0.16262-0.001937 0.16169-0.015898 0.21749-0.040002 0.50407-0.13618 0.29469-0.064355 0.30689-0.048637 0.31572-0.035358 0.3218-0.023627 0.32556-0.0125 0.32731-9.54e-4 0.32719 0.012155 0.18841 0.014321 0.32422 0.042236 0.21567 0.042091 0.2234 0.05789 0.2917 0.099292 0.2868 0.1195 0.28329 0.13451 0.28089 0.1455 0.32033 0.17696 0.59359 0.35268 0.88316 0.56236 0.58175 0.3911 0.56541 0.40494 0.27042 0.20809 0.40354 0.32871 0.24456 0.18056 0.25965 0.14605 0.27538 0.097392 0.29108 0.061564 0.29532 0.038086 0.28233 0.023949 0.25041 0.013683 0.27346 0.007299 0.051124-0.016489 0.08504 0.031506 0.10856 0.070703 0.11828 0.10104 0.17238 0.17689 0.64304 0.74993 0.2604 0.27088 0.094856 0.085965 0.1388 0.11284 0.072551 0.053852 0.27613 0.18174 0.25359 0.14306 0.26108 0.1309 0.21639 0.099355 0.42746 0.18009 0.39394 0.15318 0.58706 0.2131 0.6873 0.23621 0.46882 0.14721 0.26287 0.071062 0.28672 0.065005 0.26918 0.049021 0.38459 0.049093 0.24634 0.019348 0.24232 0.008419 0.17676-0.002107 0.17345-0.010786 0.13824-0.016368 0.77059-0.15484 0.16058-0.026142 0.35111-0.038351 0.15012-0.007175 0.20796-9.29e-4 0.20759 0.008473 0.25619 0.022174 0.21716 0.028142 0.37755 0.065547 0.42127 0.088816 2.0882 0.49609 1.2624 0.29174 1.0633 0.22923 0.67553 0.12152 0.075277 0.018036 0.13882 0.044037 0.1973 0.087714 0.17436 0.10486 0.17778 0.13854 0.18369 0.1803 0.20576 0.24185 0.21393 0.28592 0.29347 0.42769 0.36368 0.57477 0.098705 0.14407 0.16136 0.21438 0.14145 0.1648 0.18943 0.1856 0.12059 0.0978 0.12602 0.088287 0.19267 0.11244 0.19937 0.091629 0.23774 0.078667 0.23944 0.044359 0.23739 0.003974 0.075387-0.008516 0.15305-0.031636 0.24794-0.085265 0.14408-0.064279 0.40736-0.20818 0.14716-0.065673 0.15119-0.046839 0.12824-0.018965 0.14854-2.82e-4 0.12153 0.014285 0.1702 0.037607 0.13814 0.043044 0.25114 0.10252 0.12593 0.062422 0.16327 0.090464 0.32696 0.20439 0.86957 0.59507 0.29351 0.18882 0.34659 0.20511 0.6905 0.38957 0.20981 0.12874 0.19451 0.13362 0.15252 0.12254 0.13216 0.13069 0.14007 0.20083 0.022777 0.048579 0.050126 0.16584 0.020352 0.24478-0.013391 0.20184-0.032917 0.21015-0.063425 0.27606-0.044936 0.16237-0.1504 0.47124-0.32039 0.91081-0.17517 0.5317-0.10005 0.34862-0.044742 0.1796-0.080815 0.40439-0.050907 0.3412-0.039848 0.34318-0.05181 0.60911-0.050186 0.82947-0.072795 1.6146-0.04038 1.1521-0.022651 0.98243-6.02e-4 0.92948 0.022706 0.65491 0.019893 0.34796 0.040292 0.54017 0.24183 2.5386 0.034536 0.28102 0.043091 0.25251 0.054615 0.21172 0.023921 0.058838 0.009686 0.008067 0.024426 0.003525 0.15019 0.063277 0.31145 0.15078 0.15666 0.084629 0.34728 0.21018 0.32098 0.22584 0.60024 0.47436 0.2565 0.19255 0.2718 0.19368 0.38469 0.26544 0.10483 0.055976 0.089301 0.021165 0.086579-0.031589 0.027717-0.032327 0.031964-0.066305 0.021106-0.073397 0.06428-0.39653 0.039182-0.17373 0.047185-0.1286 0.048755-0.084977 0.040351-0.048955 0.06037-0.051235 0.084737-0.046811 0.083132-0.029111 0.078376-0.016397 0.18206-0.00966 0.23546 0.012157 0.26036 0.034136 0.27565 0.060915 0.29185 0.094265 0.16174 0.062161 0.37554 0.1607 0.75714 0.33712 0.27529 0.11102 0.27692 0.098786 0.26033 0.077037 0.18884 0.044017 0.22786 0.037758 0.24516 0.021996 0.12994 0.003933 0.30094-0.012268 0.2188-0.027849 0.19217-0.032836 0.18989-0.044068 0.099747-0.029799 0.29859-0.1088 0.37967-0.16673 0.3568-0.17478 0.74386-0.38163 0.25339-0.11383 0.23165-0.076465 0.19083-0.036724 0.20588-0.017058 0.15429-4.26e-4 0.15582 0.007714 0.70412 0.071133 0.80222 0.042526 0.26145 0.025563 0.51941 0.063727 0.2535 0.026055 0.44462 0.035971 0.14818 0.020361 0.16514 0.036005 0.14193 0.046665 0.13195 0.057456 0.079806 0.041644 0.12872 0.079322 0.096156 0.071383 0.06235 0.057614 0.022492 0.037929 0.034566 0.022061 0.095049-3.94e-4 0.12579-0.023368 0.085514-0.023919 0.1838-0.068138 0.12409-0.056097 0.18678-0.096388 0.18215-0.10409 0.32564-0.20166 0.38925-0.25919 1.3669-0.975 0.32094-0.22134 0.4547-0.30295 0.53946-0.34507 0.42508-0.25942 0.40302-0.23421 0.36056-0.19871 0.39234-0.2014 0.29812-0.14194 0.33086-0.146 0.24991-0.09848 0.26935-0.08755 0.14597-0.035618 0.14712-0.024179 0.17731-0.007582 0.089991 0.008235 0.074136 0.014763 0.06421 0.019721 0.091701 0.039847 0.12724 0.078822 0.090644 0.07424 0.056778 0.054807 0.084546 0.095014 0.061209 0.080349 0.10106 0.16054 0.077582 0.16036 0.061601 0.17626 0.030519 0.13285 0.016694 0.1343 0.002072 0.15109-0.020721 0.20364-0.021757 0.11594-0.047844 0.18734-0.045907 0.14318-0.11133 0.27942-0.13848 0.27605-0.13919 0.22912-0.171 0.2339-0.10184 0.12084-0.14288 0.15509-0.3515 0.34757-0.26392 0.24132-0.75458 0.65914-0.18354 0.17-0.12747 0.12716-0.14729 0.16692-0.057678 0.076853-0.052335 0.081619-0.036181 0.068889-0.039747 0.10204-0.018144 0.074468-0.008308 0.070405 7e-6 0.080997 0.009093 0.08237 0.027498 0.12001 0.030809 0.091231 0.08516 0.18536 0.12743 0.21114 0.091093 0.13202 0.1742 0.23388 0.53845 0.68906 0.10665 0.12444 0.10039 0.10379 0.057281 0.05243 0.10262 0.080242 0.056607 0.036289 0.085828 0.04384 0.11623 0.037894 0.14653 0.01901 0.19125-0.006401 0.17428-0.0247 0.16572-0.036697 0.22876-0.065437 0.57601-0.18366 0.17337-0.04408 0.14216-0.024775 0.13409-0.013134 0.16608-0.004023 0.63568 0.030228 0.19297-0.00285 0.16005-0.016321 0.12328-0.021535 0.15872-0.037374 0.22072-0.063402 0.38742-0.13221 0.45682-0.18286 0.57638-0.25216 0.40951-0.19687 0.29881-0.16077 0.30268-0.18627 0.28412-0.19993 0.61394-0.45632 0.26315-0.17156 0.15047-0.078248 0.14377-0.052449 0.073552-0.012223 0.033029 0.001218 0.019251 0.004875 0.020725 0.011454-0.036751-0.12276-0.063324-0.24099-0.10087-0.45099-0.043545-0.2491-0.02769-0.21153-0.018503-0.26666 0.003852-0.22592 0.012271-0.12272 0.01982-0.11324 0.046574-0.15938 0.07291-0.16171 0.060858-0.10722 0.0908-0.14234 0.17362-0.24082 0.13456-0.15366 0.05812-0.057266 0.092719-0.080596 0.086343-0.064246 0.15788-0.097257 0.16491-0.08397 0.67292-0.2878 0.35276-0.17306 0.20052-0.091622 0.1533-0.052468 0.1457-0.023691 0.13738 0.015221 0.060918 0.023141 0.068576 0.03912 0.072466 0.05591 0.11822 0.12091 0.079665 0.099845 0.083944 0.11847 0.1143 0.1787 0.37575 0.62678 0.18923 0.2778 0.11097 0.14055 0.13129 0.14392 0.088879 0.083134 0.1567 0.11824 0.11279 0.062654 0.078587 0.032615 0.22289 0.049019 0.23407 0.001606 0.23945-0.035181 0.23948-0.063906 0.23435-0.086691 0.224-0.10528 0.29654-0.16371 0.25293-0.1229 0.27352-0.11178 0.3025-0.10405 0.3979-0.11383 0.61395-0.16232 0.33812-0.083433 0.25772-0.055335 0.71407-0.13233 0.21409-0.062739 0.11361-0.047858 0.13825-0.078235 0.10181-0.074988 0.066678-0.057785 0.097858-0.096761 0.093472-0.10436 0.12629-0.15547 0.1733-0.23478 0.26518-0.4009 0.2538-0.367 0.31171-0.48177 0.10234-0.14198 0.087842-0.10666 0.11714-0.11986 0.11195-0.094174 0.11469-0.080271 0.20466-0.11426 0.23396-0.10048 0.23327-0.079065 0.27954-0.075989 0.20537-0.04596 0.40478-0.073393 0.40368-0.057275 0.41756-0.040987 0.17026-0.00465 0.052213 0.004715 0.007875 0.005126 0.035851 0.006283 0.025137-0.012994 0.048671-0.040308 0.081123-0.091801 0.10072-0.13992 0.15653-0.25207 0.34524-0.61243 0.35528-0.60125 0.20679-0.33526 0.20569-0.30683 0.11157-0.15203 0.18304-0.22445 0.1043-0.11189 0.11656-0.11005 0.18435-0.14363 0.41712-0.28425 0.54732-0.41577 0.33166-0.23483 0.25487-0.16097 0.86701-0.50487 0.17433-0.11057 0.15196-0.10574 0.19632-0.15701 0.44795-0.40942 0.35326-0.29994 0.2475-0.19606 0.202-0.14995 0.23973-0.16861 0.33938-0.2244 0.43098-0.26305 0.26574-0.14692 0.3585-0.17469 0.22857-0.094465 0.22033-0.077128 0.21688-0.061143 0.26617-0.051497 0.22444-0.021926 0.27054-0.013212 0.2481 7.43e-4 0.15215 0.008765 0.14965 0.016738 0.1488 0.026894 0.14423 0.038954 0.13314 0.049945 0.14815 0.070185 0.1235 0.068045 0.49097 0.29754 0.077865 0.041433 0.14558 0.063304 0.13122 0.036886 0.091688 0.014777 0.19826 0.008337 0.14647-0.009471 0.20704-0.027257 0.2229-0.041126 0.16767-0.037634 0.3918-0.1109 0.65385-0.22373 0.17596-0.04749 0.1662-0.021549 0.13433 0.00711 0.12405 0.03129 0.088687 0.036541 0.12085 0.066637 0.18788 0.13402 0.26351 0.20963 0.1382 0.099263 0.14711 0.087002 0.11855 0.054162 0.097055 0.035649 0.13755 0.037623 0.15115 0.027514 0.18351 0.01914 0.24601 0.007913 0.23805-0.006745 0.19462-0.013277 0.32487-0.033502 0.47106-0.066067 0.2527-0.042024 0.4985-0.097592 0.41612-0.1013 0.34898-0.10407 0.34671-0.1258 0.2282-0.097948 0.19381-0.094844 0.27669-0.15612 0.20523-0.13344 0.19813-0.14635 0.14628-0.12112 0.25269-0.23132 0.5702-0.55265 0.16909-0.15179 0.23418-0.19589 0.34775-0.2646 0.2624-0.18213 0.2386-0.14676 0.051042-0.014828-0.012966-0.00692-0.001691-0.01488 0.023034-0.038972 0.055986-0.053955 0.079468-0.061164 0.81239-0.5276 0.44475-0.31032 0.97439-0.73528 1.59-1.1597 0.93984-0.7081 0.98286-0.66018 2.1539-1.5252 1.5915-1.1425 3.4735-2.5136 7.1432-5.0987 1.5807-1.1106 0.71554-0.48447 0.33325-0.21243 0.092192-0.10138 0.35514-0.43561 0.94146-1.1847 5.7021-7.258 2.0889-2.6891 3.1753-4.116 5.7376-7.3383 0.060394 0.019858 0.16514 0.028327 1.1997 0.18103 0.35817 0.064268 0.35669 0.076667 0.36124 0.095328 0.35253 0.11058 0.34268 0.12416 0.3319 0.13735 0.32002 0.15148 0.27408 0.14774 0.26459 0.15841 0.25573 0.16762 0.24697 0.17621 0.23774 0.18493 0.22744 0.19454 0.24416 0.23318 0.23088 0.2447 0.21855 0.25449 0.20597 0.26363 0.19189 0.27311 0.16158 0.25832 0.14983 0.26538 0.13946 0.27113 0.12957 0.27608 0.11931 0.28068 0.10177 0.26665 0.093023 0.2699 0.084938 0.27258 0.076886 0.27491 0.068255 0.27708 0.057587 0.27261 0.048978 0.27426 0.040561 0.27561 0.031761 0.27675 0.021271 0.2592 0.021481 0.5201-0.004405 0.56793-0.012942 0.30734-0.045121 0.61372-0.032532 0.30598-0.037525 0.28806-0.093722 0.57339-0.056139 0.28506-0.1421 0.6123-0.16224 0.6067-0.18332 0.64906-0.084032 0.32449-0.07104 0.32581-0.044671 0.27209-0.02999 0.27329-0.01371 0.27408 0.001973 0.22329 0.012731 0.22338 0.028762 0.27792 0.040348 0.27775 0.049531 0.2775 0.12026 0.55382 0.071398 0.28573 0.1587 0.5684 0.18118 0.56179 0.099778 0.27337 0.10726 0.27016 0.1153 0.26634 0.12452 0.26161 0.14426 0.27252 0.15582 0.26564 0.1673 0.25811 0.18414 0.25623 0.19603 0.24688 0.20786 0.23664 0.2189 0.22414 0.2298 0.21296 0.2399 0.20153 0.22028 0.16796 0.22744 0.1583 0.23432 0.14822 0.18208 0.10511 0.18576 0.098983 0.25422 0.12355 0.25904 0.11478 0.5286 0.20929 0.56071 0.19493 0.59088 0.18157 0.28981 0.080902 0.58337 0.14929 0.5871 0.13428 1.151 0.2431 0.25721 0.063424 0.254 0.071755 0.25389 0.084268 0.24849 0.097001 0.28662 0.13294 0.27675 0.15188 0.24306 0.15473 0.23422 0.16842 0.22528 0.18072 0.21155 0.18842 0.20166 0.19894 0.19051 0.2094 0.19482 0.2425 0.17914 0.25395 0.16244 0.26432 0.14763 0.28191 0.12709 0.29085 0.10442 0.29874 0.079102 0.30674 0.053794 0.31195 0.027943 0.31522 0.002977 0.23591-0.011552 0.23606-0.025443 0.23548-0.049621 0.28695-0.068031 0.28413-0.085261 0.28032-0.08814 0.2404-0.10025 0.23622-0.15059 0.30554-0.1707 0.29591-0.13705 0.20792-0.14749 0.2018-0.21332 0.26166-0.22801 0.25224-0.19132 0.19662-0.67932 0.67504-0.21941 0.22414-0.37001 0.39256-0.37031 0.42067-0.17948 0.21909-0.17558 0.22544-0.19312 0.26159-0.18694 0.2682-0.17064 0.2595-0.28563 0.47-0.11512 0.20458-0.19682 0.37692-0.13375 0.28493-0.041646 0.10053" stroke="#bdc660"/>
    </defs>
    <g clip-path="url(#pb4cfb82e83)">
     <use y="280.512" fill="#bdc660" stroke="#bdc660" xlink:href="#m3f07767027"/>
    </g>
   </g>
  </g>
 </g>
 <defs>
  <clipPath id="pb4cfb82e83">
   <rect x="7.2" y="7.2" width="266.06" height="266.11"/>
  </clipPath>
 </defs>
</svg>
