<?xml version="1.0" encoding="UTF-8"?>
<!DOCTYPE svg  PUBLIC '-//W3C//DTD SVG 1.1//EN'  'http://www.w3.org/Graphics/SVG/1.1/DTD/svg11.dtd'>
<svg width="273.86pt" height="280.51pt" version="1.1" viewBox="0 0 273.86 280.51" xmlns="http://www.w3.org/2000/svg">
 <metadata>
  <rdf:RDF xmlns:cc="http://creativecommons.org/ns#" xmlns:dc="http://purl.org/dc/elements/1.1/" xmlns:rdf="http://www.w3.org/1999/02/22-rdf-syntax-ns#">
   <cc:Work>
    <dc:type rdf:resource="http://purl.org/dc/dcmitype/StillImage"/>
    <dc:date>2024-07-04T12:10:20.124363</dc:date>
    <dc:format>image/svg+xml</dc:format>
    <dc:creator>
     <cc:Agent>
      <dc:title>Matplotlib v3.7.1, https://matplotlib.org/</dc:title>
     </cc:Agent>
    </dc:creator>
   </cc:Work>
  </rdf:RDF>
 </metadata>
 <defs>
  <style type="text/css">*{stroke-linejoin: round; stroke-linecap: butt}</style>
 </defs>
 <g id="figure_1">
  <g id="patch_1">
   <path d="m0 280.51h273.86v-280.51h-273.86v280.51z" fill="none"/>
  </g>
  <g id="axes_1">
   <g id="PatchCollection_1" fill="#bdc660" stroke="#bdc660">
    <path d="m223.34 229.74 0.188 0.013173 0.22229-0.016317 0.25729-0.046649 0.42093-0.099932 0.20078-0.034673 0.15218-0.00971 0.14918 0.010765 0.10312 0.022847 0.22476 0.098971 0.21377 0.1521 0.18276 0.16974 0.17706 0.19441 0.17252 0.21329 0.1689 0.22761 0.32389 0.47426 0.68349 1.0539 0.32504 0.49008 0.33571 0.4745 0.21309 0.27449 0.222 0.258 0.23346 0.23513 0.2513 0.20592 0.27026 0.1627 0.090851 0.040552 0.1329 0.047508 0.1165 0.031666 0.20017 0.036091 0.16268 0.014669 0.31216-0.00194 0.28621-0.032245 0.14664-0.027198 0.18988-0.045625 0.30056-0.093598 0.31555-0.12002 0.67102-0.28146 0.29739-0.11516 0.40706-0.13357 0.46103-0.11868 0.79615-0.16858 0.27809-0.073251 0.15255-0.050957 0.19646-0.082441 0.11115-0.057018 0.14854-0.087911 0.1998-0.1369 0.23687-0.18246 0.66624-0.55144 0.25576-0.20425 0.37021-0.26735 0.26553-0.16407 0.27844-0.14034 0.25855-0.096527 0.24281-0.053865 0.2406-0.002182 0.15334 0.042825 0.02635 0.012689 0.039786 0.022971 0.12274 0.10375 0.089476 0.11207 0.080176 0.13122 0.098384 0.2044 0.11626 0.30396 0.11857 0.37797 0.18913 0.70821 0.20631 0.85261 0.077011 0.26869 0.077094 0.19644 0.089158 0.14197 0.098868 0.069572 0.031558 0.005211 0.03601-0.002556 0.039744-0.011469 0.075644-0.041141 0.1132-0.094828 0.059396-0.060512 0.18015-0.20874 0.33625-0.4135 0.35988-0.41079 0.46162-0.48897 0.40172-0.39143 0.29806-0.26731 0.32306-0.26426 0.28328-0.20967 0.2532-0.17444 0.20028-0.12998 0.21624-0.12788 0.35023-0.18795 0.35237-0.17323 0.39336-0.17182 0.42084-0.1602 1.1365-0.37794 0.15499-0.058833 0.24294-0.10333 0.38884-0.18794 0.96596-0.51111 0.22555-0.11014 0.21139-0.091279 0.18617-0.06641 0.17932-0.046174 0.19089-0.020768 0.17668 0.021592 0.073119 0.026161 0.057601 0.029377 0.074056 0.049833 0.098908 0.089369 0.12049 0.14736 0.12297 0.20003 0.12606 0.26629 0.071643 0.18572 0.062845 0.18987 0.053477 0.18605 0.061462 0.24884 0.081654 0.41287 0.040977 0.26036 0.036834 0.28457 0.031632 0.30531 0.028633 0.36552 0.044757 0.84251 0.023005 0.27986 0.049036 0.32942 0.048725 0.19502 0.091478 0.23204 0.10102 0.14682 0.091209 0.027372-0.039533 0.014237-0.085069 0.14074-0.039583 0.11335-0.031018 0.13367-0.017955 0.13654-0.007496 0.1911 0.01308 0.22884 0.038814 0.25372 0.076282 0.3042 0.026585 0.084309 0.12836 0.33612 0.14485 0.30548 0.1417 0.25962 0.14295 0.237 0.14406 0.21937 0.19685 0.27263 0.10712 0.13471 0.11297 0.12972 0.09871 0.10202 0.11074 0.10168 0.11785 0.093797 0.084133 0.058283 0.20469 0.11753 0.35982 0.17546 0.1477 0.078484 0.18738 0.11596 0.34275 0.23003 0.39154 0.2529 0.2416 0.17735 0.12874 0.11192 0.11879 0.12251 0.10044 0.12523 0.13035 0.19241 0.27697 0.44155 0.09328 0.15823 0.087646 0.16363 0.10595 0.23236 0.089261 0.24032 0.080924 0.2838 0.053189 0.2857 0.017353 0.18561 0.003541 0.11981-0.010446 0.1899-0.040971 0.21121-0.068418 0.20941-0.077586 0.18052-0.091061 0.17933-0.1321 0.22854-0.14492 0.22722-0.1693 0.24836-0.6882 0.9601-0.43513 0.56517-0.28364 0.34263-0.56634 0.6456-0.32607 0.38052-0.41615 0.51646-0.26447 0.35415-0.23356 0.33139-0.59267 0.89033-0.17727 0.24404-0.38633 0.48856-0.12548 0.16804-0.22415 0.32665-0.20415 0.33472-0.21224 0.4009-0.19711 0.42412-0.40604 0.92186-0.14726 0.29377-0.049225 0.077817-0.028853 0.02322-0.024707-0.003242-0.079847-0.046797-0.9154-0.63568-0.24918-0.16411-0.36155-0.22387-0.47929-0.26916-0.90268-0.45599-0.82236-0.42896-0.21763-0.10595-0.2473-0.10758-0.30888-0.1119-0.19577-0.057592-0.19726-0.047925-0.19057-0.036931-0.19134-0.028142-0.22742-0.022054-0.22754-0.00999-0.31267 0.006491-0.28212 0.02704-0.27984 0.043451-0.78404 0.1434-0.31183 0.045647-0.84608 0.1015-0.28968 0.040428-0.47022 0.075843-0.3878 0.074108-0.22058 0.048108-0.35024 0.087735-0.35222 0.10172-0.87001 0.26587-0.3926 0.10375-0.30397 0.06601-0.30937 0.055998-0.30192 0.045784-0.30617 0.038877-0.34403 0.035845-0.5991 0.046365-0.48434 0.027524-0.51212 0.014687-0.2666-0.006328-0.2591-0.023369-0.21274-0.041013-0.093715-0.030522-0.074962-0.038556-0.021802-0.03573-0.059255-1.37e-4 -0.10721-0.022246-0.18234-0.057208-0.13046-0.05549-0.09528-0.050386-0.15423-0.10487-0.13942-0.13067-0.13922-0.18796-0.11788-0.21605-0.31451-0.68867-0.45498-1.0802-0.1158-0.24859-0.094707-0.18602-0.1012-0.18106-0.12201-0.19487-0.21617-0.30122-0.94303-1.2248-0.35919-0.48029-0.17697-0.25202-0.16349-0.25044-0.14522-0.24821-0.12087-0.24511-0.088864-0.24084-0.044343-0.20243-0.01319-0.1539-0.00159-0.08371 0.020104-0.50493 0.00126-0.13054-0.0066-0.12793-0.026082-0.14762-0.046764-0.13681-0.064912-0.12841-0.063748-0.095505-0.069171-0.07991-0.13451-0.11764-0.30594-0.2054-0.16223-0.11565-0.16709-0.12969-0.4379-0.36231-0.21877-0.19685-0.21497-0.21687-0.0856-0.094555-0.18598-0.22303-0.63918-0.85239-0.2557-0.31418-0.27042-0.2866-0.28143-0.25935-0.2053-0.16866-0.25797-0.19142-0.40232-0.264-0.36336-0.21891-0.41428-0.2334-0.44945-0.2381-0.29687-0.14863-0.36298-0.17023-0.55979-0.24322-0.42506-0.17201-0.31052-0.1127-0.17698-0.050656-0.22179-0.038663-0.10664-0.006417-0.14365 0.003602-0.14576 0.016838-0.1633 0.032584-0.2584 0.073843-0.31865 0.11467-0.26324 0.10911-0.48265 0.22756-0.80046 0.4129-0.68966 0.34084-0.48236 0.21774-0.2693 0.10554-0.16058 0.054238-0.25579 0.069246-0.2237 0.039402-0.21339 0.013164-0.19931-0.018479-0.14397-0.039584-0.077257-0.03178-0.050753-0.025944-0.10395-0.067641-0.097068-0.084109-0.056269-0.061055-0.056675-0.07437-0.083679-0.13754-0.12342-0.2701-0.046235-0.13149-0.038311-0.13432-0.032695-0.15682-0.025366-0.15712-0.078608-0.5526-0.038968-0.19258-0.074621-0.20663-0.10379-0.16697-0.13111-0.1581-0.44163-0.29879-0.43577-0.050674-0.37239 4.1e-5 -0.33584 0.030922-0.32299 0.055088-0.29859 0.044172-0.38353 0.06617-0.40337 0.066173-0.40404 0.081461-0.21612 0.1252-0.11521 0.082555-0.36872 0.20506-0.10874 0.087787-0.10094 0.11119-0.070172 0.10246-0.054099 0.097257-0.094802 0.22889-0.21153 0.60355-0.24711 0.62078-0.09828 0.22163-0.089791 0.14442-0.08922 0.10185-0.067634 0.059844-0.18061 0.12882-0.11173 0.090063-0.18606-0.18819-0.10415-0.090588-0.097419-0.063388-0.11077-0.054456-0.079204-0.030793-0.29252-0.093183-0.3629-0.10399-0.37287-0.088371-0.46548-0.085702-0.15593-0.039517-0.15528-0.049741-0.18456-0.07008-0.66808-0.29116-0.44712-0.18498-0.28827-0.10854-0.22725-0.070929-0.22464-0.053274-0.21679-0.033566-0.73316-0.05421-0.52952-0.018519-0.18955-0.01182-0.19193-0.021885-0.19119-0.033219-0.14046-0.032646-0.2352-0.066549-0.44029-0.13609-0.3814-0.086782-0.13634-0.035907-0.13572-0.046229-0.18925-0.089269-0.13983-0.089697-0.24862-0.18876-0.11481-0.095516-0.17768-0.16534-0.5273-0.55007-0.43478-0.42726-0.11408-0.12739-0.10347-0.14312-0.080865-0.14201-0.047362-0.10676-0.028847-0.090174-0.005871-0.075657 0.007002-0.011096 0.01994-0.019078 0.059258-0.013603 0.1113-4.32e-4 0.17105 0.02021 0.26192 0.061992 0.11242 0.036595 0.18998 0.076495 0.50094 0.25654 0.24244 0.11076 0.29111 0.10855 0.21956 0.064666 0.14294 0.033888 0.16383 0.030701 0.22063 0.027613 0.23296 0.011678 0.14235-0.002573 0.16768-0.013554 0.17526-0.026197 0.19287-0.042078 0.25157-0.074992 0.11692-0.043502 0.10628-0.045524 0.12866-0.063921 0.179-0.10504 0.20519-0.14011 0.50931-0.38377 0.20739-0.13165 0.08011-0.041749 0.10243-0.047212 0.48911-0.19174 0.16505-0.071413 0.42822-0.21713 0.2589-0.14182 0.33516-0.16672 0.1222-0.054894 0.18886-0.070402 0.20468-0.067284 0.34264-0.096839 0.13225-0.042678 0.21019-0.089361 0.11108-0.062405 0.10655-0.069551 0.14277-0.10638 0.14953-0.12474 0.39725-0.35344 0.11895-0.094764 0.097806-0.065178 0.12924-0.057428 0.12885-0.01496 0.12402 0.022805 0.11333 0.053353 0.10737 0.084224 0.086543 0.085291 0.22814 0.2541 0.40214 0.48727 0.11574 0.13008 0.16911 0.1701 0.13791 0.12421 0.24994 0.19765 0.17543 0.12158 0.26811 0.16473 0.17277 0.095121 0.43097-0.060807 0.34374-0.057329 0.40103-4.5e-5 0.34374-0.057329 0.37238-0.057332 0.31508-0.14326 0.41297-0.47982 0.13117-0.55148 0.11352-0.59983 0.039008-0.1665 0.052985-0.19034 0.08649-0.26405 0.094471-0.2551 0.15344-0.36414 0.09399-0.19564 0.10864-0.20653 0.11578-0.20266 0.23063-0.36913 0.16342-0.2376 0.20065-0.27679 0.14576-0.19088 0.29684-0.35894 0.33043-0.36323 0.28763-0.30074 0.56998-0.57565 0.41075-0.40379 0.16142-0.16771 0.15715-0.17302 0.58502-0.67161 0.68112-0.72572 0.22225-0.22636 0.22882-0.21975 0.237-0.20773 0.24738-0.18911 0.26062-0.16228 0.16379-0.080997 0.14192-0.059167 0.17155-0.060319 0.26866-0.073749 0.29732-0.056365 0.32255-0.03316 0.18968-0.004371 0.19678 0.010639 0.11087 0.015409 0.23495 0.062079 0.15054 0.070144 0.13052 0.094044 0.16031 0.19301 0.13111 0.23107 0.11795 0.26486 0.14055 0.39164 0.13906 0.46924 0.2986 1.1259 0.082317 0.2912 0.085072 0.27689 0.086662 0.25374 0.093629 0.24462 0.10124 0.23301 0.10988 0.2183 0.11387 0.19656 0.15315 0.25179 0.15849 0.24031 0.16854 0.21689 0.18436 0.17918 0.20731 0.12398 0.17507 0.047409" clip-path="url(#pca273546c0)"/>
    <path d="m157.34 28.663 0.45129 0.44713 0.22563 0.2158 0.43053 0.38981 0.40431 0.33368 0.40418 0.32198 0.24308 0.18589 0.25838 0.18496 1.0931 0.75276 0.26588 0.19861 0.25251 0.20704 0.17236 0.15874 0.13189 0.13692 0.14135 0.1721 0.11938 0.18199 0.11482 0.22377 0.048511 0.11545 0.072911 0.20963 0.057787 0.21076 0.067273 0.28932 0.042614 0.212 0.029388 0.23596 0.012577 0.34452-0.007311 0.22002-0.057515 0.71953-0.035332 0.56958-0.10741 1.0725-0.00671 0.16646 0.003524 0.71233-0.00899 0.56449-0.014872 0.28784-0.023639 0.29106-0.08489 0.87926-0.027731 0.5115-0.006177 0.54702 0.027892 0.50255 0.03304 0.34137 0.087659 0.69014 0.16071 1.0501 0.48643 2.9164 0.39894 2.3068 0.13713 0.85392 0.01355 0.034984 0.11388 0.081284 0.19268 0.10541 0.2449 0.11968 0.6363 0.28669 0.69626 0.29136 0.70697 0.27915 2.3678 0.90649 1.8495 0.71935 1.909 0.74952 1.8845 0.75395 1.2192 0.48111 3.0044 1.1703 3.3416 1.2919 0.99083 0.38893 0.96034 0.39934 0.82201 0.35864 0.54063 0.25585 0.27215 0.14125 0.2641 0.14838 0.2478 0.15267 0.23455 0.16105 0.21714 0.1707 0.19414 0.18227 0.16382 0.19653 0.14098 0.24212 0.094838 0.25411 0.050274 0.25574 0.003778 0.24698-0.042728 0.2395-0.05876 0.23438-0.035343 0.24557 0.017989 0.25797 0.065589 0.27942 0.1034 0.29694 0.13311 0.3109 0.15592 0.32122 0.17245 0.32719 0.36788 0.64623 0.17833 0.29767 0.31977 0.51453 0.038754-0.037973 0.071857-0.038736 0.20069-0.083609 0.14489-0.047972 0.26742-0.072085 0.31721-0.064371 0.22002-0.030034 0.19348-0.016513 0.32697-0.011198 0.35311 0.005029 0.37109 0.02304 0.38552 0.038281 0.36553 0.05977 0.23998 0.055176 0.22893 0.065518 0.21639 0.074262 0.29666 0.12178 0.21397 0.10094 0.2177 0.093784 0.16165 0.045451 0.18798 0.020897 0.19483-0.005005 0.2298-0.030915 0.44205-0.091715 1.031-0.17595 0.36158-0.053219 0.14395-0.012585 0.16382-0.002179 0.1609 0.012324 0.19212 0.035508 0.072785 0.019215 0.71086 0.23574 0.23126 0.058235 0.14546 0.025986 0.14317 0.014978 0.59193-0.001514 0.24145 0.01792 0.21329 0.026738 0.19966 0.038282 0.1921 0.053531 0.35917 0.13994 0.22178 0.075735 0.23428 0.066773 0.24045 0.059554 0.41824 0.090771 0.4582 0.09135 0.12206 0.015492 0.19094-0.001221 0.17317-0.036435 0.1252-0.043976 0.24362-0.11363 0.78648-0.44568 0.19398-0.099351 0.22039-0.10399 0.3423-0.14169 0.23003-0.080607 0.16817-0.052203 0.34469-0.093391 0.32742-0.08117 0.41014-0.081976 0.36924-0.054031 0.57172-0.094831 0.26541-0.030935 0.41959-0.032068 0.2613-0.031585 0.38261-0.070662 0.37469-0.088988 0.23591-0.046824 0.37194-0.061464 0.32499-0.042631 0.1523-0.028794 0.11015-0.0357 0.18312-0.097961 0.39257-0.27354 0.18976-0.12355 0.36559-0.21374 0.16626-0.077767 0.17333-0.060193 0.17996-0.036707 0.21485-0.007368 0.21986 0.02662 0.22159 0.055985 0.12242 0.04238 0.26411 0.11562 0.26 0.13834 0.80243 0.48612 0.58311 0.34039 0.14451 0.077757 0.2645 0.11038 0.28942 0.090636 0.30708 0.078285 0.64346 0.14617 0.32604 0.081132 0.32227 0.096241 0.31313 0.12012 0.073588 0.033647 0.28833 0.15213 0.27695 0.17427 0.26535 0.19139 0.25233 0.20491 0.23651 0.21609 0.21628 0.22598 0.1897 0.23554 0.15443 0.24564 0.10765 0.25713 0.050581 0.24967 0.015583 0.25686-1.47e-4 0.11645-0.034942 0.7762 0.003177 0.13107 0.009803 0.10388 0.015004 0.084624 0.030728 0.10634 0.066989 0.14467 0.081803 0.12064 0.18828 0.22497 0.074477 0.10981 0.034267 0.09732 2.77e-4 0.07958-0.02306 0.074733-0.041954 0.072724-0.069246 0.083494-0.084673 0.078747-0.065299 0.051445-0.21213 0.13921-0.66578 0.39168-0.089847 0.061843-0.060205 0.048718-0.064601 0.062445-0.059913 0.071809-0.05606 0.086271-0.035237 0.070912-0.062452 0.19952-0.026225 0.2137 0.005202 0.21682 0.033986 0.20896 0.062172 0.18958 0.091733 0.15755 0.04689 0.052519 0.046033 0.040005 0.076289 0.049341 0.10775 0.049584 0.093765 0.033716 0.13918 0.042583 0.13729 0.031687 0.2337 0.024958 0.078627 0.015246 0.16747 0.066052 0.11741 0.088705 0.1055 0.11012 0.15755 0.18996 0.17088 0.18517 0.10685 0.12852 0.072997 0.13356 0.050567 0.16842 0.028123 0.22193-0.003466 0.25296-0.019971 0.17083-0.05564 0.25785-0.043323 0.13993-0.26943 0.69488-0.064698 0.20846-0.042554 0.18731-0.042854 0.2539-0.017417 0.21652 0.005748 0.15588 0.009279 0.067531 0.046157 0.17555 0.067877 0.16744 0.09172 0.18212 0.10749 0.16652 0.12679 0.13902 0.15096 0.097785 0.086957 0.029434 0.060609 0.012324 0.10572 0.009564 0.15015-0.005957 0.11081-0.015996 0.21466-0.053318 0.16783-0.060385 0.14732-0.065563 0.19888-0.10514 0.14027-0.085273 0.17167-0.11748 0.55758-0.42574 0.2364-0.16885 0.44126-0.29492 0.36572-0.22688 0.2302-0.12846 0.24755-0.12154 0.65694-0.27599 0.2652-0.12221 0.28115-0.14856 0.25982-0.16383 0.19742-0.1481 0.18256-0.15732 0.16504-0.16316 0.34322-0.3793 0.11951-0.11345 0.21243-0.16291 0.056554-0.034471 0.12554-0.061171 0.10487-0.034094 0.16981-0.024323 0.14273 0.002291 0.14238 0.02296 0.14513 0.040487 0.16907 0.062438 0.69706 0.31205 0.14787 0.057842 0.13204 0.041374 0.19554 0.031608 0.11631-0.005806 0.10918-0.028048 0.078375-0.037957 0.050642-0.0344 0.076166-0.067523 0.11158-0.13053 0.13331-0.18916 0.29095-0.44572 0.12728-0.17783 0.13637-0.1758 0.30542-0.36086 0.18732-0.20264 0.18922-0.18676 0.18484-0.15986 0.17311-0.12928 0.090461-0.058926 0.1342-0.074244 0.13942-0.056878 0.15955-0.033614 0.079845-0.00218 0.08515 0.008063 0.12413 0.029798 0.14644 0.060521 0.12283 0.07147 0.055917 0.039019 0.14221 0.11749 0.55096 0.54806 0.16593 0.17403 0.20298 0.23531 0.19032 0.25513 0.13586 0.21392 0.10598 0.19647 0.08948 0.19164 0.15572 0.35946 0.068179 0.13833 0.066195 0.11792 0.13684 0.20802 0.43827 0.59541 0.086263 0.129 0.050717 0.087761 0.032714 0.066143 0.070494 0.19707 0.11375 0.51965 0.034455 0.1296 0.049262 0.14363 0.058739 0.12911 0.11593 0.18516 0.14454 0.17852 0.16619 0.17537 0.18176 0.1756 0.47958 0.4339 0.42481 0.3458 0.28375 0.21879 0.42359 0.30738 1.1694 0.82622 0.54731 0.37518 0.54109 0.36226-0.020666 0.032887-0.078082 0.061499-0.1737 0.11718-0.7954 0.4921-0.21366 0.14107-0.20729 0.14949-0.23222 0.19102-0.21268 0.20649-0.14967 0.17174-0.13547 0.18048-0.13196 0.20604-0.11563 0.21381-0.10122 0.22356-0.086861 0.22867-0.065849 0.20317-0.05858 0.20483-0.20132 0.79638-0.058289 0.21007-0.06434 0.20483-0.07418 0.20113-0.085466 0.19201-0.091962 0.16887-0.10468 0.15724-0.13927 0.16627-0.15814 0.1446-0.17096 0.11575-0.129 0.066262-0.13591 0.05569-0.18819 0.059816-0.19611 0.047435-0.25886 0.047645-0.79262 0.11227-0.25737 0.042464-0.26636 0.053478-0.26388 0.065285-0.2673 0.081945-0.26147 0.099091-0.2174 0.10006-0.21102 0.1148-0.21771 0.13936-0.20951 0.15572-0.16561 0.13937-0.1603 0.14916-0.20304 0.20969-0.1956 0.22352-0.31714 0.40324-0.72334 1.0023-0.31715 0.42236-0.24924 0.30636-0.092967 0.10264-0.04768 0.044757-0.023771 0.009552-0.037054 0.023172-0.09669 0.097124-0.15437 0.17864-0.11103 0.14373-0.1134 0.16078-0.1519 0.24144-0.18638 0.34994-0.1357 0.30759-0.1139 0.31427-0.070577 0.24128-0.055388 0.24082-0.035886 0.21561-0.021096 0.21323-0.004856 0.21372 0.012033 0.20937 0.057884 0.33936 0.05353 0.1852 0.0677 0.17772 0.12351 0.24485 0.15025 0.22452 0.15126 0.17658 0.16933 0.15692 0.21203 0.15096 0.23161 0.12141 0.2669 0.096309 0.28178 0.066249 0.33852 0.046518 0.34747 0.024477 0.68178 0.024362 0.31411 0.019695 0.31114 0.034402 0.23683 0.040309 0.23229 0.05384 0.22629 0.068774 0.30064 0.12217 0.2829 0.15278 0.26244 0.1837 0.23752 0.21174 0.16644 0.18522 0.14588 0.20097 0.14532 0.26215 0.11182 0.27992 0.062447 0.22233 0.043974 0.22842 0.026237 0.23275 0.007293 0.33558-0.026715 0.33684-0.039351 0.23651-0.05534 0.23386-0.070661 0.22991-0.074921 0.19851-0.086151 0.19354-0.13287 0.25105-0.15145 0.23819-0.14995 0.19883-0.16333 0.18496-0.17428 0.16777-0.18583 0.15022-0.19824 0.13096-0.20847 0.10798-0.27648 0.099335-0.28764 0.054624-0.23764 0.00908-0.24042-0.020057-0.28635-0.057176-0.28665-0.085101-0.26686-0.096957-0.83735-0.34182-0.23564-0.088055-0.23816-0.07821-0.25879-0.069173-0.26141-0.051424-0.27783-0.03268-0.27846-0.009731-0.23084 0.00996-0.22936 0.026089-0.20234 0.036616-0.19988 0.048686-0.28811 0.09234-0.27998 0.11507-0.23296 0.11614-0.22426 0.13087-0.20224 0.13644-0.19152 0.14863-0.13903 0.12266-0.13097 0.12932-0.11405 0.126-0.10566 0.13111-0.11264 0.16109-0.097893 0.16762-0.078887 0.16878-0.079428 0.24356-0.042659 0.27009-0.00391 0.16819 0.023833 0.24814 0.055754 0.2482 0.069253 0.21048 0.077538 0.1882 0.090151 0.18633 0.15498 0.27492 0.17356 0.27085 0.56925 0.82222 0.17591 0.2851 0.0962 0.17528 0.087951 0.17902 0.1196 0.29075 0.091639 0.29749 0.043442 0.20251 0.027278 0.20277 0.005579 0.34253-0.051463 0.32892-0.052264 0.16522-0.067121 0.1518-0.14881 0.23023-0.10567 0.11107-0.094274 0.065389-0.067595 0.006826-0.050866 0.007516-0.070317 0.054733-0.082965 0.093321-0.087331 0.1237-0.082686 0.14249-0.076131 0.16047-0.076792 0.21039-0.071962 0.31079-0.02816 0.29763 0.006051 0.30478 0.024718 0.24463 0.038076 0.24555 0.090088 0.43569 0.26645 1.042 0.062677 0.26936 0.040657 0.20597 0.031722 0.20381 0.019258 0.18192 0.008742 0.17948-0.014148 0.3077-0.056298 0.29995-0.049334 0.15557-0.062315 0.14868-0.12513 0.21962-0.14048 0.17868-0.15188 0.14543-0.15723 0.11563-0.23634 0.1271-0.23044 0.08405-0.18826 0.045022-0.1941 0.02779-0.31837 0.009539-0.30887-0.030736-0.27201-0.056566-0.27088-0.080314-0.25177-0.09369-0.2494-0.10733-0.69322-0.33564-0.4152-0.18992-0.22356-0.090246-0.22543-0.080067-0.22416-0.066613-0.19827-0.04581-0.19545-0.030279-0.18433-0.011965-0.17909 0.006481-0.14634 0.021109-0.13995 0.036135-0.19782 0.085248-0.21557 0.15853-0.097861 0.10674-0.084877 0.12018-0.072682 0.13413-0.059865 0.14464-0.058467 0.19427-0.041948 0.20539-0.026876 0.20446-0.017088 0.21071-0.038672 1.131-0.017466 0.29782-0.050499 0.55257-0.033086 0.25601-0.039955 0.25493-0.046933 0.25202-0.054084 0.25045-0.067157 0.27201-0.074631 0.27003-0.087369 0.28734-0.09424 0.28524-0.11559 0.32465-0.23678 0.61772-0.22264 0.53794-0.21121 0.46829-0.19183 0.3897-0.21605 0.40245-0.51116 0.86951-0.28749 0.50616-0.15078 0.29064-0.0842 0.17778-0.077046 0.17838-0.10207 0.27677-0.075793 0.27707-0.044475 0.29641-0.001096 0.29112 0.030616 0.20935 0.058362 0.20098 0.091668 0.19902 0.12174 0.18394 0.1196 0.13596 0.1363 0.12453 0.15986 0.11979 0.17332 0.1086 0.2103 0.11154 0.221 0.10175 0.81677 0.33058 0.24698 0.10729 0.2184 0.10433 0.21254 0.11282 0.22821 0.13737 0.21594 0.15051 0.1685 0.13659 0.15603 0.14718 0.15092 0.1694 0.13308 0.18116 0.094719 0.15667 0.081292 0.16318 0.077555 0.19871 0.05727 0.20532 0.035326 0.20797 0.013844 0.21184-0.012224 0.25904-0.042313 0.26053-0.065372 0.24386-0.086722 0.24331-0.09696 0.22638-0.10953 0.22637-0.14558 0.27467-0.88131 1.5327-0.24366 0.46485-0.12212 0.25395-0.11271 0.2528-0.10098 0.24828-0.10099 0.28071-0.078533 0.25463-0.04875 0.19328-0.023247 0.13778 0.010185 0.056661-0.006717 0.028245 0.007548 0.080263 0.17524 1.0531 0.048934 0.33255 0.040551 0.33854 0.023391 0.26951 0.014085 0.26849 0.003453 0.26615-0.013443 0.34203-0.03455 0.33458-0.046963 0.2781-0.06381 0.27076-0.091538 0.29178-0.11195 0.28139-0.1438 0.29465-0.16377 0.28235-0.12712 0.19324-0.13467 0.18786-0.18846 0.24264-0.19628 0.2363-0.80314 0.90898-0.18746 0.22504-0.19084 0.24682-0.18035 0.25413-0.1803 0.27877-0.16995 0.28538-0.15758 0.28201-0.54474 1.0188-0.28301 0.50167-0.15373 0.24653-0.16389 0.23741-0.17088 0.21828-0.18458 0.2051-0.22464 0.21248-0.24092 0.19402-0.20206 0.14201-0.20887 0.13229-0.25852 0.14969-0.53047 0.29394-0.26123 0.15806-0.26174 0.18626-0.13521 0.11474-0.12707 0.12332-0.14586 0.16454-0.13294 0.1761-0.12184 0.18846-0.11141 0.19686-0.12466 0.24656-0.32797 0.68495-0.11429 0.21541-0.12175 0.2127-0.22033 0.34724-0.1499 0.21423-0.31884 0.42324-0.83707 1.0528-0.41005 0.53627-0.19658 0.27263-0.17718 0.26043-0.16652 0.26412-0.15224 0.26829-0.13308 0.27312-0.10138 0.25837-0.075923 0.26211-0.039056 0.20837-0.019179 0.20868 0.004302 0.24192 0.03304 0.23772 0.06369 0.23621 0.092368 0.22585 0.15719 0.26697 0.18049 0.21916 0.21094 0.19267 0.18916 0.13379 0.2036 0.11364 0.25918 0.10814 0.27205 0.077557 0.2081 0.037104 0.21156 0.019186 0.26305-0.001359 0.26365-0.027317 0.29806-0.060994 0.29276-0.091032 0.23018-0.094746 0.22353-0.11292 0.27692-0.17063 0.21541-0.1551 0.20865-0.16581 0.57947-0.49631 0.1863-0.15014 0.18401-0.13409 0.18933-0.12005 0.17396-0.092345 0.17879-0.07613 0.1923-0.060126 0.19625-0.038961 0.19324-0.016916 0.19448 0.002905 0.21368 0.02496 0.21206 0.046394 0.2898 0.09785 0.28099 0.13209 0.28135 0.17059 0.26627 0.19884 0.14856 0.12881 0.14173 0.13664 0.14594 0.15708 0.13637 0.16463 0.17893 0.25026 0.15413 0.26149 0.11296 0.24052 0.086366 0.24577 0.052713 0.23085 0.024203 0.23118-0.003597 0.19539-0.026585 0.19162-0.052862 0.19378-0.078103 0.18512-0.11293 0.18913-0.13918 0.17486-0.12569 0.12674-0.13752 0.11844-0.15967 0.12101-0.65357 0.44386-0.21412 0.15239-0.20744 0.15996-0.24071 0.21087-0.17189 0.17806-0.15463 0.1912-0.11169 0.16645-0.098404 0.17492-0.084114 0.17892-0.073634 0.18493-0.064284 0.18641-0.38531 1.3107-0.18017 0.55864-0.098052 0.27684-0.18246 0.46391-0.10008 0.22771-0.13064 0.27072-0.14225 0.26431-0.11881 0.19921-0.1265 0.19452-0.15746 0.22193-0.16567 0.21666-0.35307 0.42857-0.66823 0.78465-0.21743 0.27182-0.2096 0.27806-0.18021 0.25526-0.17277 0.26062-0.16509 0.26587-0.1231 0.21124-0.23026 0.4322-0.13568 0.28502-0.12474 0.29076-0.11203 0.29696-0.07592 0.23233-0.067118 0.23623-0.058238 0.24001-0.061013 0.31152-0.046237 0.31727-0.034909 0.36525-0.019915 0.37158-0.019419 0.95649-0.015526 0.38523-0.030057 0.37459-0.047803 0.36692-0.055731 0.30067-0.067509 0.28071-0.065081 0.21874-0.066325 0.18617-0.075418 0.16846-0.051547 0.060536-0.008325 0.054963-0.05561 0.072578-0.11264 0.097431-0.1527 0.098356-0.20587 0.097983-0.2335 0.077009-0.24241 0.04828-0.25335 0.020568-0.29503-0.011131-0.29636-0.044841-0.32485-0.08362-0.31869-0.11032-0.74708-0.31282-0.22033-0.086464-0.18761-0.064681-0.18862-0.054263-0.23439-0.049811-0.2348-0.029533-0.22266-0.008342-0.22039 0.010949-0.2017 0.027425-0.19745 0.043184-0.2322 0.072464-0.22221 0.093477-0.19146 0.10306-0.17909 0.12026-0.14685 0.12147-0.13405 0.1348-0.18523 0.24234-0.099038 0.1715-0.083228 0.18167-0.067693 0.19038-0.052911 0.19755-0.056477 0.32841-0.018589 0.18597-0.022239 0.46008-0.023007 0.85998-0.018336 0.30941-0.0279 0.30836-0.035736 0.27931-0.046087 0.27701-0.057001 0.27406-0.069064 0.27029-0.090502 0.28991-0.10537 0.28404-0.11954 0.27762-0.13402 0.27022-0.14976 0.26135-0.15815 0.23907-0.1715 0.23058-0.18265 0.22299-0.19226 0.21586-0.23967 0.24928-0.49714 0.49572-0.24748 0.25468-0.22048 0.23986-0.2113 0.24659-0.1995 0.25452-0.16411 0.23209-0.15246 0.23842-0.14042 0.24389-0.15513 0.30309-0.37593 0.81606-0.099921 0.20261-0.10511 0.1901-0.15383 0.22564-0.18159 0.18359-0.078823 0.055768-0.16535 0.086356-0.131 0.049043-0.14912 0.042195-0.26627 0.052239-0.55754 0.070977-0.27092 0.049037-0.22946 0.065316-0.35258 0.13344-0.21917 0.095375-0.23474 0.11047-0.34896 0.17818-0.267 0.14761-0.30101 0.17878-0.18926 0.12407-0.13222 0.094961-0.45279 0.33723-0.16314 0.10962-0.18936 0.11531-0.52627 0.28753-0.5483 0.33507-0.14128 0.078485-0.14226 0.069912-0.43793 0.181-0.21959 0.11542-0.21171 0.13314-0.20155 0.14048-0.16208 0.12348-0.17926 0.17324-0.13146 0.17448-0.094289 0.18851-0.046331 0.19778-0.002706 0.075595 0.018961 0.1758 0.035299 0.15365 0.1356 0.4765 0.029821 0.16554 0.004386 0.14936-0.011575 0.094445-0.047967 0.17311-0.060559 0.14216-0.055099 0.10577-0.16285 0.25756-0.34923 0.50432-0.097633 0.16598-0.071302 0.14987-0.036346 0.10209-0.025178 0.1024-0.027256 0.20376-0.018636 0.2266-0.058977 0.55073-0.015051 0.33241-0.025746 0.38824 0.003526 0.3823-0.041088 0.47601-0.0235 0.36762-0.040019 0.26541-0.10902 0.56105-0.036147 0.28966-0.007865 0.22066 0.002297 0.63454-0.009221 0.24542-0.024145 0.22715-0.16678 0.72735-0.077712 0.407-0.022145 0.15652-0.007471 0.2319 0.015595 0.19461 0.01175 0.081046 0.045937 0.22005 0.068143 0.2375 0.080704 0.23773 0.24049 0.66807 0.14875 0.37956 0.19113 0.45436 0.2623 0.50999 0.10984 0.23884 0.13961 0.4147 0.039091 0.083613 0.02601 0.031713 0.075528 0.058413 0.132 0.15231 0.13294 0.18307 0.62492 0.96675 0.094792 0.17805 0.079333 0.19101 0.044413 0.13999 0.045027 0.19495 0.029548 0.21218 0.016452 0.30604 0.005367 0.64623 0.00794 0.18349 0.020755 0.16777 0.040704 0.14856 0.0612 0.11768 0.095472 0.10998 0.24076 0.19996 0.12765 0.11804 0.20601 0.22499 0.15485 0.20335 0.13547 0.21811 0.10605 0.22843 0.056716 0.17674 0.056307 0.24745 0.025337 0.21423 0.016722 0.21173 0.025707 0.20496 0.032336 0.14312 0.052171 0.16599 0.075657 0.15734 0.093651 0.12741 0.086064 0.088413 0.091389 0.077434 0.11915 0.084911 0.10671 0.066009 0.14174 0.07725 0.18878 0.08842 0.20494 0.08073 0.20992 0.072111 0.87315 0.2841 0.29596 0.077972 0.21536 0.045584 0.12295 0.019662 0.17169 0.014475 0.33362-0.007846 0.12005 0.003137 0.12378 0.01153 0.17172 0.028768 0.33728 0.072755 0.18917 0.049452 0.32503 0.097197 0.43207 0.11938 0.27195 0.091721 0.10437 0.044446 0.12274 0.063235 0.14564 0.097278 0.080711 0.064198 0.18179 0.16145 0.35966 0.34146 0.13379 0.11975 0.14157 0.10836 0.13144 0.080318 0.11765 0.055685 0.13567 0.048692 0.19054 0.048942 0.32044 0.067751 0.18446 0.048061 0.37221 0.11784 0.089806 0.034246 0.044639 0.026079-0.084439 0.23047-0.044337 0.17602-0.023353 0.18499-3.23e-4 0.13077 0.010283 0.11729 0.030254 0.15506 0.055685 0.16465 0.092476 0.21419 0.04107 0.13632 0.008572 0.12775-0.025504 0.2077-0.002326 0.11612 0.057017 0.3806 0.007707 0.18407-0.009796 0.1197-0.011948 0.065813-0.039242 0.12948-0.046748 0.10662-0.042779 0.081119-0.043531 0.069766-0.021952 0.024193-0.005023 0.01012-0.042807-0.001066-0.12248-0.032733-0.20782-0.081524-0.63104-0.2765-0.20355-0.077458-0.2789-0.083285-0.30911-0.056932-0.29634-0.026798-0.47919-0.013079-0.13524-0.010347-0.13315-0.020104-0.11101-0.026549-0.10256-0.034948-0.28234-0.12878-0.11118-0.044251-0.10183-0.027369-0.067626-0.009672-0.075871-0.001789-0.087747 0.009133-0.097249 0.022863-0.067758 0.023374-0.10023 0.044647-0.36072 0.18-0.18167 0.074777-0.25703 0.085299-0.18897 0.044329-0.11008 0.017535-0.18235 0.01844-0.29319 0.010079-0.41576-0.008616-0.82768-0.03348-0.33784 0.002911-0.24645 0.021505-0.17426 0.030794-0.25662 0.073174-0.20617 0.07241-0.19624 0.087219-0.14299 0.086574-0.14885 0.12853-0.13203 0.15506-0.15164 0.23627-0.062739 0.11881-0.07842 0.1683-0.062183 0.15636-0.037708 0.11171-0.07604 0.27562-0.05968 0.30528-0.071097 0.50752-0.060949 0.27101-0.083811 0.27612-0.1016 0.27965-0.11538 0.28188-0.12608 0.28298-0.14421 0.3016-0.14207 0.27479-0.15382 0.26998-0.17277 0.27064-0.18472 0.26433-0.19333 0.25949-0.1993 0.2557-0.33963 0.41792-0.342 0.40157-0.17162 0.19206-0.22481 0.2372-0.273 0.2585-0.19163 0.1614-0.1982 0.15215-0.20465 0.14131-0.25255 0.15421-0.50982 0.28781-0.2149 0.12853-0.80788 0.5151-0.1195 0.068275-0.14589 0.070032-0.14955 0.053937-0.14376 0.034473-0.14559 0.023046-0.34903 0.034578-0.13995 0.00391-0.24835-0.019504-0.50748-0.073615-0.15204-0.013499-0.50419-0.022136-0.20443 0.003878-0.21651 0.02549-0.13448 0.030622-0.20603 0.076943-0.20154 0.10702-0.19633 0.12956-0.22341 0.17355-0.15778 0.13803-0.23758 0.22632-0.23672 0.25176-0.14513 0.18673-0.10991 0.18361-0.063433 0.17923-0.009512 0.15743 0.024521 0.1463 0.076121 0.2389 0.029856 0.11852 0.012091 0.099663 0.002951 0.094313-0.007373 0.12603-0.039693 0.091425-0.030394 0.023192-0.08709 0.021817-0.4036-0.015526-0.23911 0.019394-0.16164 0.029907-0.6878 0.16199-0.23075 0.074219-0.23644 0.09328-0.23944 0.10696-0.20327 0.097819-0.40121 0.20537-0.79936 0.42398-0.1742 0.10498-0.1538 0.12726-0.048821 0.053446-0.071156 0.095173-0.16116 0.31342-0.080304 0.10122-0.055974 0.037336-0.057267 0.021039-0.11135 0.008382-0.12445-0.01727-0.31837-0.074692-0.17348-0.026029-0.15924-0.016251-0.35492-0.006167-0.23086-0.017348-0.17658-0.031757-0.34879-0.086343-0.17195-0.036649-0.12456-0.021601-0.21538-0.024769-0.21903 4.3e-4 -0.24595 0.040873-0.24692 0.07211-0.25231 0.093326-0.24306 0.1144-0.2227 0.14196-0.19782 0.17845-0.046111 0.049954-0.13243 0.1666-0.11541 0.17517-0.10196 0.18535-0.24954 0.58943-0.14379 0.28435-0.23851 0.39406-0.16685 0.25045-0.098649 0.12401-0.13426 0.13284-0.18343 0.12553-0.20816 0.096428-0.19284 0.061813-0.20218 0.04348-0.3461 0.040336-0.22351 0.013704-0.66705 0.021031-0.94701 0.008117-0.28695 0.014169-0.39196 0.041606-0.15817 0.008827-0.11487-8.86e-4 -0.047786-0.006382-0.004817 0.080245-0.049871 0.17074-0.088506 0.21885-0.068684 0.13788-0.080198 0.13888-0.10321 0.15268-0.12773 0.15909-0.13847 0.1515-0.1784 0.17696-0.11776 0.10391-0.1698 0.13402-0.183 0.12083-0.19516 0.10429-0.27608 0.11127-0.28885 0.083783-0.29612 0.061219-0.29881 0.042291-0.29754 0.025777-1.1134 0.03652-0.22463 0.01504-0.26399 0.027459-0.15689 0.02549-0.1558 0.035109-0.417 0.13001-0.091163 0.018641-0.12853 0.01278-0.13599-0.002308-0.093301-0.010589-0.46374-0.090346-0.36098-0.079525-0.1566-0.019839-0.10822-0.001824-0.1629 0.019886-0.16929 0.050788-0.13896 0.06896-0.12498 0.093351-0.059919 0.060922-0.11551 0.16346-0.090598 0.19114-0.051994 0.14927-0.11217 0.4364-0.19606 0.678-0.056584 0.24452-0.035406 0.21213-0.018694 0.21265-0.002306 0.11119 0.021065 0.53823 0.007403 0.53544 0.027312 0.31857 0.025386 0.18402 0.027039 0.13995 0.062614 0.23407 0.089743 0.22706 0.16838 0.32888 0.16745 0.27596 0.33027 0.52002 0.1021 0.18502 0.044121 0.11036-6.99e-4 0.056596-0.055879 0.035631-0.12231 0.054753-0.39512 0.16364-0.63726 0.2404-0.183 0.090654-0.1823 0.10833-0.18092 0.12239-0.17915 0.1332-0.17674 0.14063-0.66419 0.55796-0.61603 0.49725-0.38799 0.30188-0.2137 0.15658-0.34913 0.23983-0.31494 0.20303-1.3394 0.82273-0.31749 0.20295-0.30396 0.20736-0.31306 0.22985-0.34514 0.27793-0.24395 0.21583-0.2885 0.27875-0.47027 0.48867-0.092145 0.086485-0.11527 0.096087-0.079567 0.05851-0.15891 0.10027-0.18977 0.099098-0.82642 0.37838-0.38542 0.18899-0.23447 0.12696-0.22074 0.13266-0.23355 0.15769-0.09663 0.071738-0.19055 0.15539-0.13887 0.12663-0.092893 0.093333-0.063708 0.072251-0.024223 0.034535-0.004013 0.018263-0.082859-0.03404-0.12198-0.1159-0.13721-0.1722-0.13129-0.21208-0.10818-0.24136-0.063444-0.21447-0.020474-0.091549-0.051415-0.32402-0.027308-0.25264-0.056463-0.88655-0.020779-0.19048-0.046539-0.30353-0.067374-0.3032-0.072222-0.22819-0.092989-0.21533-0.14436-0.24209-0.10526-0.14077-0.11437-0.13187-0.19357-0.18715-0.13856-0.11393-0.46412-0.36158-0.15556-0.12894-0.24118-0.21563-0.34015-0.3182-0.13241-0.10213-0.13715-0.077713-0.19686-0.055863-0.19913-0.001903-0.18744 0.048568-0.16094 0.099397-0.10825 0.12622-0.086461 0.15468-0.073402 0.17282-0.061606 0.17358-0.045806 0.18564-0.018899 0.15596-0.006267 0.1656 0.005554 0.24244 0.038654 0.68723-3.86e-4 0.2464-0.020544 0.24007-0.049801 0.22996-0.054525 0.14897-0.092651 0.1883-0.077208 0.12928-0.11813 0.17294-0.15472 0.20444-0.40291 0.50069-0.34418 0.45041-0.098425 0.13862-0.091567 0.14982-0.078597 0.15367-0.099549 0.23713-0.17016 0.43128-0.072136 0.21173-0.10679 0.36292-0.07161 0.16189-0.092132 0.12972-0.11701 0.11058-0.19984 0.11843-0.1836 0.061506-0.18434 0.026194-0.1038 6.4e-5 -0.1357-0.013009-0.14247-0.029112-0.34917-0.097989-0.20618-0.048852-0.22269-0.041904-0.23491-0.034437-0.21063-0.023438-0.44028-0.02905-0.5104-0.015196-0.42468-0.006737-0.46712 0.005147-0.11569-0.016447-0.040988-0.024344-0.00866-0.007555-0.01402 0.002151-0.018755 0.013822-0.03989 0.054785-0.054784 0.11532-0.07992 0.22181-0.091315 0.17941-0.40083 0.70292-0.074561 0.10817-0.048185 0.043424-0.023062 0.005106-0.031004-0.018636-0.029464-0.045243-0.026488-0.066883-0.029907-0.1236-0.042113-0.27899-0.004037-0.027727-0.019102-0.050678-0.044069-0.095555-0.10322-0.18739-0.16418-0.24835-0.15291-0.19423-0.13966-0.14692-0.12198-0.097241-0.091609-0.047487-0.073584-0.016988-0.036778 9.7e-5 -0.05116 0.008553-0.0631 0.021018-0.091994 0.046289-0.14348 0.099173-0.20708 0.17758-0.34447 0.33519-0.16148 0.14905-0.14442 0.11356-0.071841 0.044705-0.20422 0.095446-0.2104 0.13799-0.085302 0.050447-0.089754 0.040196-0.093615 0.022499-0.069489 0.001447-0.070818-0.009093-0.07169-0.016753-0.1449-0.053905-0.098931-0.052196-0.098925-0.062414-0.096987-0.070901-0.092741-0.078268-0.085663-0.08501-0.075106-0.091502-0.065914-0.10239-0.053996-0.097852-0.043908-0.10098-0.027455-0.10416-0.007127-0.094974 0.006735-0.091022 0.016011-0.079777 0.019996-0.058519 0.018365-0.02333-0.3369-0.099056-0.45149-0.15261-0.18575-0.073201-0.18452-0.082801-0.1473-0.076596-0.13782-0.084236-0.10143-0.073551-0.078883-0.067067-0.0852-0.085902-0.24304-0.29622-0.15655-0.16466-0.081391-0.073773-0.088756-0.069708-0.13384-0.082277-0.28271-0.14148-0.13321-0.075017-0.10332-0.072306-0.11337-0.092126-0.12713-0.13398-0.06496-0.087249-0.049539-0.078421-0.041445-0.084446-0.034995-0.11114-0.022268-0.12163-0.021213-0.26612-0.013892-0.47306-0.014426-0.24613-0.024946-0.20529-0.021548-0.11737-0.042466-0.16888-0.099998-0.28274-0.10523-0.22429-0.052522-0.089007-0.088257-0.11861-0.10531-0.098922-0.094571-0.059507-0.062368-0.030133-0.17727-0.063427-0.19104-0.041641-0.21806-0.019651-0.26968 0.005104-0.19978 0.021365-0.13828 0.024934-0.1292 0.031943-0.10345 0.032718-0.066231 0.028505-0.013653-0.031137-0.082102-0.47415-0.13171-0.59267-0.032127-0.18924-0.011667-0.1815 0.003492-0.45272-0.021339-0.34174-0.092678-0.80098-0.046127-0.25163-0.041085-0.18085-0.049821-0.18093-0.074327-0.22207-0.093301-0.24587-0.11119-0.26414-0.13383-0.27733-0.092034-0.16653-0.085733-0.14034-0.12693-0.18496-0.06982 0.043241-0.53228 0.39256-0.44008 0.31546-0.37402 0.25929-0.43872 0.28884-0.29203 0.1743-0.26499 0.13687-0.16233 0.069882-0.15854 0.054739-0.21256 0.046026-0.20413 0.004306-0.059315-0.00808-0.13824-0.036181-0.16792-0.074025-0.19346-0.11553-0.61813-0.42265-0.1549-0.092613-0.13356-0.070816-0.17541-0.080028-0.18093-0.067372-0.30671-0.084475-0.22999-0.048865-0.31703-0.046311-0.32604-0.027928-0.33229-0.01422-0.3364-0.003816-0.33878 0.004449-0.679 0.030155-0.3375 0.026294-0.33418 0.035792-0.32903 0.048184-0.3216 0.064801-0.31126 0.08724-0.2972 0.11744-0.28978 0.15995-0.27485 0.19176-0.26394 0.21482-0.25611 0.23126-0.25058 0.24277-0.24679 0.25062-1.4581 1.5558-0.49546 0.50887-0.25372 0.24705-0.25983 0.23952-0.24966 0.21421-0.14081 0.11313-0.25647 0.1936-0.26785 0.18976-0.524 0.35067-0.78453 0.50356-1.1037 0.69132-0.53448 0.32528-0.51399 0.29234-0.24985 0.12642-0.36226 0.17062-0.17041 0.097238-0.20692 0.15783-0.19189 0.19023-0.17831 0.21615-0.16501 0.23682-0.15073 0.25321-0.13409 0.26602-0.10732 0.25897-0.043988 0.1278-0.056806 0.20575-0.015521 0.073455-0.040351 0.35937 2.08e-4 0.27958 0.079871 1.2609-0.008206 0.11362-0.027428 0.042551-0.013348-0.002544-0.037749 0.012016-0.17097 0.078156-0.40645 0.1668-0.1421 0.046272-0.088516 0.020327-0.12709 0.014784-0.11287-0.005864-0.0254-0.004397-0.19122-0.070844-0.18631-0.12394-0.21831-0.19979-0.20856-0.24611-0.12303-0.16807-0.24409-0.36828-0.12286-0.16241-0.13321-0.14531-0.33014-0.30414-0.22101-0.21418-0.13349-0.11187-0.14326-0.10418-0.14994-0.093796-0.17649-0.1021-0.18436-0.093242-0.18694-0.07658-0.41238-0.14784-0.17748-0.05365-0.14211-0.032737-0.83711-0.14226-0.074661-0.018539-0.22796-0.081788-0.22164-0.11398-0.094596-0.058372-0.26405-0.18036-0.29244-0.21216-0.22052-0.14834-0.093216-0.05658-0.22703-0.11314-0.15704-0.058554-0.22322-0.055434-0.16887-0.017392-0.15736 0.00943-0.16463 0.045882-0.157 0.068612-0.21723 0.1099-0.11573 0.07445-0.18841 0.14157-0.40851 0.32692-0.089821 0.079321-0.13635 0.13816-0.058025 0.069214-0.12059 0.17424-0.33118 0.58493-0.095078 0.14632-0.81131 1.1863-0.10855 0.17202-0.31731 0.53894-0.099051 0.14108-0.057028 0.06871-0.092433 0.096046-0.09029 0.080397-0.098994 0.076877-0.20942 0.13533-0.22134 0.11224-0.14094 0.060915-0.26024 0.10326-0.26172 0.092966-0.22491 0.066854-0.14474 0.030976-0.14002 0.021083-0.21854 0.017328-0.29729-8.68e-4 -0.146-0.008181-0.18431-0.015885-0.33298-0.04116-0.47436-0.077957-0.48255-0.094989-0.30526-0.072765-0.22063-0.063865-0.17414-0.059482-0.25025-0.10212-0.11882-0.056899-0.13863-0.076077-0.082732-0.052131-0.11845-0.086681-0.084263-0.072988-0.10143-0.10279-0.066472-0.077201-0.11169-0.14901-0.15847-0.25562-0.11971-0.23172-0.056937-0.12578-0.076173-0.19026-0.062332-0.18157-0.047572-0.16017-0.048911-0.1935-0.053561-0.26368-0.27818-1.6461-0.030153-0.12766-0.012997-0.011055-0.031502 0.081565-0.048665 0.094984-0.24371 0.43411-0.070761 0.1359-0.09218 0.2017-0.082345 0.21994-0.065483 0.23239-0.058848 0.29229-0.025469 0.20603-0.028606 0.37119-0.025492 0.17126-0.041734 0.14778-0.072565 0.16262-0.11156 0.18865-0.12705 0.18976-0.099522 0.1358-0.082751 0.094672-0.16523 0.15442-0.1344 0.10415-0.1423 0.09425-0.18986 0.10614-0.015845 0.008476-0.04961-0.019445-0.0755-0.045231-0.1053-0.078561-0.4024-0.3271-0.24589-0.17713-0.27205-0.15931-0.3163-0.13408-0.33654-0.099515-0.34847-0.071099-0.35405-0.047855-0.33925-0.027477-0.3368-0.012105-0.33169 0.001966-0.72909 0.031332-0.63029-0.005637-0.23203 0.005868-0.23093 0.01602-0.24308 0.029703-0.28408 0.054779-0.12496 0.031744-0.3085 0.093909-0.19109 0.07067-0.77756 0.30849-0.28978 0.12095-0.28086 0.12742-0.54595 0.2651-0.24108 0.091524-0.18229 0.045983-0.1591 0.019175-0.13353 0.001116-0.11028-0.009188-0.19122-0.0389-0.21722-0.080984-0.16021-0.073747-0.17377-0.090712-0.35752-0.20522-0.1715-0.091774-0.46858-0.23513-0.3137-0.14611-0.23075-0.092363-0.15081-0.069164-0.16157-0.077641-0.45944-0.23782-0.37191-0.17518-0.43681-0.22769-0.10269-0.048217-0.099236-0.036369-0.10471-0.020297-0.10141 7.93e-4 -0.062829 0.01223-0.094156 0.033483-0.2296 0.11236-0.11833 0.048391-0.14054 0.03986-0.24463 0.053561-0.13355 0.040902-0.11942 0.06292-0.11493 0.1146-0.063467 0.10316-0.073535 0.16244-0.058094 0.18205-0.19351 0.8914-0.036988 0.2458-0.0094 0.19424 0.016403 0.18552 0.049853 0.19688 0.090507 0.16826 0.13112 0.14598 0.10341 0.080054 0.18584 0.11137 0.41288 0.21908 0.14901 0.095515 0.10826 0.086581 0.087733 0.087773 0.11494 0.14209 0.17592 0.26775 0.16813 0.29681 0.27216 0.54183 0.19188 0.41206 0.11581 0.26684 0.10496 0.26318 0.089035 0.2556 0.066553 0.24361 0.034885 0.18407 0.035649 0.25662 0.005893 0.09239-0.00925 0.17861-0.031105 0.14208-0.026331 0.078962-0.047576 0.11351-0.096064 0.18204-0.096144 0.15388-0.13029 0.1849-0.17076 0.21201-0.17238 0.19394-0.20459 0.21346-0.2549 0.2469-0.26062 0.23252-0.23289 0.19351-0.89104 0.7038-0.51148 0.41432-0.41296 0.35436-0.10207 0.095764-0.019642 0.02319 4.34e-4 0.007409-0.04299-0.021825-0.082517-0.029468-0.36206-0.10043-0.19829-0.078821-0.2604-0.13821-0.61458-0.37587-0.23825-0.13759-0.15777-0.0753-0.078536-0.028282-0.07824-0.01882-0.077854-0.005977-0.062344 0.006639-0.12358 0.038586-0.068141 0.032579-0.11898 0.071863-0.1301 0.095975-0.54474 0.45547-0.1799 0.13333-0.13397 0.085592-0.14631 0.074918-0.15993 0.054065-0.15501 0.027121-0.076052 1.42e-4 -0.061193-0.051437-0.13211-0.088283-0.22348-0.13968-0.3315-0.19436-0.48631-0.26765-0.75516-0.40484-0.30562-0.17249-0.43846-0.27235-0.42915-0.29662-0.46398-0.33695-0.090366-0.070396-0.183-0.16309-0.11734-0.12769-0.20954-0.28408-0.11015-0.13953-0.14762-0.14955-0.16663-0.14197-0.61508-0.48292-0.38997-0.3352-0.15951-0.12042-0.17212-0.11287-0.14875-0.086908-0.1541-0.081567-0.23217-0.10856-0.19438-0.078058-0.21436-0.071867-0.13674-0.037393-0.16776-0.035883-0.19618-0.027009-0.16329-0.010606-0.52515-0.007651-0.23141-0.021753-0.23914-0.038739-0.2456-0.049963-1.4013-0.30087-0.28994-0.044735-0.15327-0.012662-0.25248-0.004475-0.10929 0.00481-0.20487 0.021687-0.21069 0.039755-0.24225 0.066942-0.14748 0.060018-0.045972 0.027559-0.016511 0.02221 0.004574-0.024759 0.058184-0.10158 0.31931-0.43398 0.13197-0.19582 0.093361-0.15119 0.087785-0.1608 0.058542-0.1295 0.087866-0.23244 0.02451-0.089495 0.064044-0.37961 0.11075-0.4713 0.043874-0.2236 0.07959-0.55313 0.032056-0.15397 0.054007-0.19567 0.16639-0.50442 0.084651-0.28214 0.11798-0.44578 0.11533-0.53478 0.051668-0.15324 0.03875-0.075359 0.052668-0.08139 0.17806-0.233 0.085109-0.12269 0.13608-0.22727 0.055075-0.10543 0.12406-0.2795 0.17126-0.45216 0.074412-0.17903 0.14815-0.31492 0.21294-0.50169 0.10216-0.20095 0.11461-0.19482 0.12673-0.18189 0.31228-0.37958 0.14813-0.19962 0.055909-0.087256 0.084819-0.15921 0.16607-0.3514 0.049443-0.12567 0.034344-0.11078 0.04577-0.17969 0.031399-0.18348 0.00731-0.18037-0.028033-0.17006-0.073865-0.15572-0.060925-0.080175-0.038521-0.040854-0.089664-0.07885-0.099602-0.069663-0.16901-0.092801-0.38713-0.19362-0.14043-0.07931-0.13082-0.091504-0.15895-0.14522-0.26653-0.27213-0.11666-0.10641-0.25875-0.20166-0.21345-0.1406-0.10859-0.061916-0.39712-0.20699-0.14034-0.059655-0.31496-0.10845-0.13991-0.040233-0.102-0.021767-0.33721-0.052317-0.10628-0.027188-0.154-0.066838-0.10606-0.071467-0.093816-0.093011-0.054278-0.078062-0.041629-0.079033-0.045059-0.11435-0.048429-0.18784-0.023127-0.1488-0.013477-0.15707-0.003041-0.22401 0.007867-0.16621 0.019688-0.21366 0.029204-0.21833 0.041629-0.24431 0.095602-0.44529 0.10997-0.42074 0.12345-0.39249 0.16988-0.45558 0.17985-0.40553 0.701-1.3807 0.19267-0.41654 0.16823-0.39102 0.10824-0.21248 0.1691-0.28857 0.15478-0.24075 0.32217-0.46331 0.47919-0.65089 0.21252-0.30605 0.28918-0.43291 0.094292-0.14946 0.033978-0.067147-0.02823-0.01106-0.056823-0.03659-0.072968-0.055227-0.079469-0.069315-0.078629-0.080413-0.081969-0.10027-0.085036-0.11701-0.077444-0.12222-0.064135-0.12637-0.066324-0.19004-0.062377-0.2306-0.020616-0.11384-0.028882-0.35275-0.024563-0.1072-0.02496-0.061734-0.073238-0.12364-0.15195-0.2024-0.047624-0.072348-0.18091-0.36821-0.062837-0.14964-0.090515-0.26395-0.095815-0.43756-0.04766-0.17638-0.32695-0.949-0.10662-0.34748-0.1469-0.51966-0.056556-0.16454-0.039833-0.075564-0.048861-0.066624-0.055946-0.057882-0.0504-0.041804-0.094781-0.059898-0.038756-0.017609-0.04516-0.008251 0.02348-0.045276 0.037976-0.11894 0.1456-0.52532 0.21676-0.71444 0.11108-0.31404 0.12519-0.30711 0.13606-0.29414 0.1464-0.27325 0.33637-0.54299 0.53708-0.91459 0.14278-0.22429 0.15061-0.21141 0.15559-0.18856 0.13223-0.13596 0.22944-0.18216 0.10466-0.062752 0.25685-0.10882 0.27939-0.071871 0.29544-0.045426 0.30632-0.027418 0.94484-0.039525 0.31235-0.017916 0.3054-0.030019 0.29446-0.049077 0.27873-0.076496 0.25713-0.1142 0.18581-0.12387 0.16832-0.14633 0.15726-0.16596 0.14576-0.17813 0.13902-0.19008 0.1814-0.27422 0.12987-0.21201 0.25214-0.43857 0.63998-1.1707 0.29662-0.52992 0.27029-0.45352 0.20479-0.31743 0.23488-0.33595 0.30472-0.39957 0.23977-0.28907 0.60915-0.6998 0.19573-0.24008 0.082867-0.11513 0.070263-0.1144 0.048779-0.10396 0.028797-0.10494 0.003274-0.083888-0.027994-0.11692-0.066357-0.10613-0.11775-0.091455-0.093259-0.033381-0.15699-0.009896-0.17737 0.027197-0.11658 0.030751-0.32231 0.10664-0.27203 0.080769-0.27071 0.049739-0.28037 0.011442-0.26066-0.031229-0.26173-0.066353-0.26066-0.094967-0.25744-0.11879-0.25184-0.13936-0.2881-0.18922-0.29261-0.22768-0.2391-0.21454-0.16888-0.16934-0.21404-0.24562-0.090482-0.11985-0.1108-0.16919-0.090656-0.17627-0.021647-0.052462-0.0497-0.14818-0.041521-0.1822-0.018638-0.13988-0.006831-0.10409 0.003433-0.23033 0.029099-0.25261 0.05984-0.28871 0.061179-0.22066 0.043994-0.13563 0.10106-0.26642 0.10906-0.24138 0.16244-0.31448 0.28728-0.52424 0.14267-0.28236 0.087653-0.19639 0.073742-0.19907 0.041226-0.15001 0.016783-0.088655 0.012201-0.11604 0.002614-0.12753-0.012098-0.20563-0.024287-0.20163-0.12257-0.56914-0.058537-0.32926-0.04706-0.34788-0.019247-0.28854 0.00354-0.42045 0.029896-0.413 0.054457-0.4162 0.038748-0.2082 0.041271-0.1813 0.042745-0.15699 0.060349-0.18819 0.093153-0.24628 0.090373-0.20934 0.1045-0.2202 0.21575-0.41015 0.22436-0.38733 0.32624-0.53627 0.13335-0.23736 0.11748-0.2345 0.091231-0.2138 0.048955-0.13529 0.07376-0.26329 0.035987-0.21889 0.005708-0.2053-0.037124-0.21554-0.056152-0.13171-0.074052-0.11325-0.08096-0.09671-0.27335-0.28075-0.15876-0.17949-0.11571-0.1675-0.070288-0.13652-0.029357-0.072552-0.030112-0.10015-0.015251-0.10006 0.003549-0.11334 0.023148-0.11298 0.027125-0.080444 0.089293-0.16945 0.12563-0.16781 0.15297-0.16563 0.17265-0.1627 0.20052-0.17136 0.1834-0.14747 0.22481-0.17196 0.44251-0.32049 0.11321-0.088671 0.047275-0.042121 0.12306-0.13142 0.092635-0.1235 0.085564-0.15283 0.050871-0.12082 0.055824-0.18727 0.024105-0.14044 0.041416-0.67566 0.044976-0.51978 0.19974 0.003579 0.28118 0.056951-0.020814-0.018115-0.014047-0.021375-0.033368-0.072723-0.024569-0.083035-0.016779-0.1074 2.39e-4 -0.15223 0.015383-0.10937 0.018909-0.075509 0.034524-0.097333 0.064406-0.13475 0.10452-0.178 0.21421-0.33431 0.1202-0.21118 0.12456-0.25179 0.08046-0.18941 0.10007-0.27613 0.10008-0.34877 0.043592-0.19132 0.073119-0.40766 0.041341-0.29281 0.042358-0.40928 0.021327-0.32891 0.010796-0.35347-0.001327-0.30397-0.010211-0.30281-0.058041-0.87151-0.015121-0.31216-0.002301-0.40607 0.008167-0.20317 0.021686-0.25835 0.028843-0.20579 0.046623-0.21343 0.058644-0.1705 0.071821-0.12966 0.088007-0.08995 0.10565-0.048345 0.066147-0.010431 0.11396 0.006391 0.097228 0.023611 0.16868 0.064981 0.16333 0.079814 0.16874 0.10844 0.21765 0.17164 0.22234 0.18684 0.48304 0.43604 0.23527 0.19295 0.16122 0.12055 0.30339 0.20666 0.2601 0.15792 0.18296 0.093471 0.1025 0.042056 0.10221 0.034286 0.13499 0.031872 0.075017 0.010428 0.10325 0.00516 0.091604-0.00512 0.090002-0.013944 0.096-0.024682 0.085363-0.030204 0.10968-0.048158 0.17583-0.096205 0.13734-0.089813 0.17598-0.13254 0.069306-0.058743 0.18058-0.17062 0.17378-0.18772 0.166-0.20174 0.14239-0.19304 0.11669-0.17551 0.099163-0.16564 0.097752-0.18456 0.080195-0.17426 0.11969-0.32214 0.083697-0.30857 0.050076-0.26191 0.044292-0.40466 0.022187-0.65396 0.02033-0.23917 0.054094-0.31518 0.086934-0.30822 0.12277-0.29642 0.13345-0.23957 0.15272-0.23413 0.60446-0.87506 0.093824-0.15017 0.086191-0.15252 0.13363-0.28685 0.069245-0.17915 0.060553-0.17884 0.077867-0.27243 0.056877-0.24665 0.03857-0.22672 0.005761-0.071504-0.005838-0.031523-0.005164-0.014288 3.55e-4 -0.077178 0.040052-0.69007 0.033868-0.43146 0.11794-1.2756 0.022236-0.39321 0.001234-0.26729-0.01835-0.29644-0.033358-0.25435-0.049139-0.24951-0.048019-0.18638-0.057197-0.18253-0.070473-0.1878-0.081136-0.18237-0.16212-0.29552-0.19076-0.27899-0.22244-0.27036-0.21184-0.22295-0.24058-0.22665-0.37177-0.31371-0.3571-0.2727-0.38523-0.26471-0.33819-0.20086-0.21444-0.11114-0.17671-0.081489-0.20846-0.084984-0.33377-0.11234-0.17036-0.046071-0.17075-0.037962-0.20924-0.033987-0.22854-0.018272-0.16797 0.001042-0.13657 0.008628-0.39066 0.048307-0.71302 0.11612-0.33708 0.049349-0.56753 0.069209-0.58225 0.054288-0.2724 0.012514-0.26409-0.001134-0.22078-0.010134-0.3963-0.037079-0.84512-0.11804-0.3707-0.04506-0.94673-0.073554-0.39851-0.04692-0.29991-0.056801-0.3136-0.076143-0.34504-0.098326-0.29577-0.10174-0.19253-0.086649-0.10103-0.056596-0.13444-0.091012-0.13326-0.11269-0.11705-0.12901-0.15194-0.24767-0.11404-0.28455-0.08907-0.30943-0.28289-1.252-0.059667-0.2345-0.046141-0.12695-0.043145-0.081855-0.042028-0.050218-0.026621-0.013901-0.026991 0.005071-0.05198 0.059591-0.11822 0.10834-0.14667 0.1212-0.13757 0.10333-0.14425 0.09801-0.16365 0.099114-0.18102 0.097664-0.45847 0.22755-0.18896 0.088441-0.22533 0.095158-0.15931 0.059816-0.52916 0.17261-0.45831 0.12382-0.31713 0.072049-0.64255 0.12705-0.3758 0.082633-0.97413 0.24254-0.43615 0.12146-0.32221 0.1057-0.42395 0.15857-0.32119 0.14045-0.3064 0.15006-0.24065 0.12608-0.16907 0.095591-0.19729 0.12324-0.15504 0.10672-0.39824 0.29707-0.58309 0.46759-0.40244 0.31027-0.2628 0.22243-0.18428 0.17434-0.25642 0.26612-0.20539 0.24154-0.053843-0.040864-0.1312-0.12703-0.27163-0.28456-0.30991-0.35991-0.23668-0.29745-0.23514-0.31188-0.45581-0.63877-1.0212-1.5031-0.34933-0.48803-0.085713-0.10827-0.1264-0.13698-0.13276-0.11382-0.13769-0.084977-0.075509-0.031207-0.068736-0.018024-0.083542-0.009172-0.088067 0.003051-0.16824 0.032573-0.17295 0.062007-0.2419 0.11712-0.29063 0.16381-0.25733 0.15293-0.70855 0.44358-0.17495 0.099476-0.1682 0.085348-0.19022 0.086549-0.20811 0.072609-0.094475 0.025733-0.13138 0.026822-0.20321 0.024581-0.11537 0.006001-0.10639-0.002928-0.072763-0.007789-0.17974-0.041148-0.27685-0.098428-0.42463-0.1718-0.15203-0.075037-0.16859-0.095911-0.20484-0.13345-0.28735-0.21475-0.27506-0.22398-0.2747-0.23377-0.17568-0.16345-0.17698-0.18961-0.20276-0.25127-0.13236-0.18684-0.18642-0.30318-0.084493-0.1538-0.16211-0.32358-0.15748-0.34824-0.11583-0.27404-0.2203-0.55063-0.1821-0.49414-0.4332-1.3245-0.05405-0.15019-0.030766-0.05942-0.21799-0.50454-0.081575-0.22397-0.10802-0.33006-0.053752-0.21493-0.05196-0.37222-0.025523-0.12827-0.045313-0.16144-0.15602-0.45317-0.058197-0.21154-0.031344-0.15185-0.055341-0.32641-0.10714-0.50755-0.042218-0.24593-0.012275-0.14072 0.002254-0.056665 0.009769-0.041416 0.013385-0.018607 0.01565-0.001205 0.85766-0.41728 0.4665-0.23821 0.24312-0.13505 0.26608-0.16625 0.25088-0.18848 0.21494-0.2005 0.18406-0.19568 0.17281-0.20601 0.18311-0.25041 0.16625-0.25887 0.1994-0.35501 0.30971-0.65381 0.077446-0.14832 0.1481-0.26133 0.11162-0.18116 0.16864-0.24529 0.14208-0.1749 0.092495-0.098626 0.14155-0.13284 0.14146-0.11874 0.32156-0.24447 0.2434-0.17072 0.18268-0.12051 0.2527-0.15464 0.19534-0.11221 0.24012-0.12876 0.2358-0.11784 0.73578-0.34432 0.42888-0.21221 0.30331-0.16785 0.1941-0.12143 0.17188-0.12194 0.16052-0.13229 0.10047-0.09589 0.13389-0.14605 0.10873-0.13346 0.14531-0.19755 0.10336-0.15378 0.22544-0.36704 0.7327-1.28 0.15783-0.29313 0.1254-0.25621 0.092774-0.21981 0.064461-0.18748 0.03832-0.14412 0.028279-0.14583 0.024726-0.17048 0.022893-0.25536 0.011815-0.26253-0.003482-0.18857-0.036492-0.27666-0.065105-0.28401-0.063885-0.22446-0.20926-0.60332-0.080953-0.26596-0.068694-0.26109-0.37446-1.6435-0.042204-0.21407-0.025699-0.17086-0.010096-0.14509 0.011296-0.16503 0.053648-0.33978 0.026021-0.11439 0.020077-0.062341 0.045535-0.10531 0.098649-0.17628 0.22443-0.35395 0.17838-0.33644 0.075845-0.11424 0.099214-0.12174 0.080969-0.078975 0.11734-0.093348 0.20825-0.12711 0.1616-0.076103 0.4011-0.16855 0.33088-0.12938 0.5411-0.19468 0.27251-0.10612 0.18405-0.084673 0.17263-0.089139 0.21772-0.13227 0.23912-0.17606 0.3574-0.28217 0.21728-0.18185 0.45282-0.39652 0.37506-0.31469 1.1756-0.96874 0.22914-0.17808 0.28105-0.19816 0.33111-0.20399 0.25163-0.13566 0.51198-0.24448 0.4374-0.19383 0.18879-0.073338 0.18296-0.059742 0.23108-0.058113 0.22396-0.037745 0.22646-0.019889 0.11241-0.002988 0.26682 0.00992 0.26716 0.02414 0.50246 0.056967 0.64127 0.082861 0.065892-7.76e-4 0.007457-0.005098-0.009736-0.053589-0.029211-0.092822-0.22508-0.64191-0.080128-0.26236-0.10756-0.4407-0.26407-1.3429-0.047829-0.31273-0.064748-0.58241-0.03421-0.22334-0.059113-0.27486-0.15005-0.57399-0.08402-0.27738-0.092142-0.27744-0.15037-0.41155-0.41259-0.97976-0.13029-0.33879-0.068971-0.21468-0.042579-0.15748-0.047242-0.22611-0.028867-0.25288-0.001478-0.19174 0.012837-0.14134 0.028007-0.14276 0.091438-0.24919 0.1328-0.23406 0.16207-0.21944 0.14422-0.1625 0.16076-0.1586 0.26833-0.24047 0.17843-0.14517 0.16303-0.12146 0.16548-0.11079 0.19159-0.10456 0.12292-0.051601 0.11842-0.036603 0.086483-0.017136 0.08861-0.007027 0.17574 0.033744 0.10679 0.083134 0.05539 0.08731 0.033758 0.099534 0.012554 0.090676-0.001226 0.082129-0.018121 0.10945-0.019677 0.07392-0.1361 0.38937-0.050668 0.17306-0.036658 0.17619-0.015791 0.18072 0.009413 0.15877 0.028541 0.16026 0.044884 0.16118 0.055069 0.14401 0.12295 0.2301 0.096506 0.13341 0.067205 0.076777 0.078523 0.07594 0.092812 0.074587 0.087262 0.057971 0.09388 0.051965 0.081957 0.03811 0.16722 0.059707 0.17352 0.038239 0.1512 0.015486 0.15401 0.001614 0.1565-0.010769 0.21636-0.032652 0.1913-0.043044 0.28511-0.08147 0.3008-0.10436 0.19313-0.075147 0.3872-0.1658 0.50794-0.24394 0.35989-0.19283 0.37519-0.22256 0.80601-0.51234 0.72274-0.47144 0.36712-0.21766 0.4695-0.25266 0.45556-0.22607 0.62159-0.28808 0.62523-0.2719-0.68275-0.43193-0.43204-0.29318-0.17506-0.12694-0.39241-0.29114-0.3622-0.2782-0.28585-0.23586-0.35321-0.32096-0.18644-0.18447-0.22097-0.23087-0.17772-0.20214-0.35167-0.4343-0.35988-0.42561-0.42565-0.47851-0.39952-0.43068-0.48614-0.48073-0.76961-0.72733-1.2233-1.1715-0.74426-0.72222-0.35967-0.35669-0.29046-0.29819-0.34919-0.37695-0.26742-0.30626-0.38027-0.45154-0.039147-0.08077-0.1328-0.095046-0.17521-0.078914-0.25774-0.073702-0.29453-0.041146-0.24379-0.00523-0.25259 0.013857-1.0469 0.11981-0.53897 0.037782-0.33561 0.011353-0.33366 0.002799-0.33039-0.005541-0.32595-0.014222-0.32039-0.02382-0.56146-0.059268-0.5735-0.071651-1.0444-0.15768-0.32797-0.046256-0.32447-0.038232-0.4469-0.032842-0.47304-0.010327-0.16487 0.010153-0.22492 0.030718-0.22314 0.05025-0.22837 0.070969-0.16686 0.064552-0.26643 0.12584-0.25522 0.14789-0.14456 0.10063-0.15364 0.12808-0.1112 0.11304-0.083013 0.10078-0.080176 0.11598-0.071302 0.12462-0.03417 0.069553-0.076975 0.19134-0.060307 0.20106-0.05773 0.27289-0.044396 0.34032-0.023597 0.36499-5.51e-4 0.32204 0.017474 0.34542 0.02666 0.3258 0.05961 0.56589 0.047087 0.38366 0.079006 0.51954 0.19188 1.0485 0.047186 0.33532 0.060117 0.63999 0.046145 0.84824 0.023702 0.24617 0.023358 0.11805 0.044753 0.13657 0.066766 0.12308 0.11012 0.16279 0.055254 0.094951 0.037831 0.083732 0.046627 0.1403 0.039146 0.18629 0.017355 0.15283 0.005102 0.10516-2.5e-5 0.10609-0.008846 0.14238-0.02612 0.14728-0.04706 0.14836-0.031314 0.071809-0.0462 0.087846-0.054964 0.086783-0.082712 0.10841-0.1353 0.14524-0.10326 0.095263-0.10565 0.087829-0.1262 0.094584-0.20136 0.13079-0.22739 0.1279-0.21168 0.10571-0.64391 0.29479-0.32715 0.17616-0.34864 0.21615-0.50639 0.34365-0.3055 0.19929-0.31208 0.18455-0.212 0.11053-0.12269 0.057014-0.27437 0.11058-0.2684 0.086534-0.1501 0.037308-0.24852 0.044714-0.1329 0.013901-0.17171 0.001972-0.15734-0.021412-0.11963-0.042129-0.1609-0.11466-0.13545-0.15826-0.11637-0.18155-0.32852-0.61397-0.12336-0.20968-0.1372-0.20197-0.15595-0.18776-0.1928-0.18019-0.21498-0.15955-0.23207-0.14187-0.24504-0.12611-0.25462-0.11126-0.25877-0.095356-0.26321-0.079413-0.26223-0.060472-0.26287-0.039509-0.26176-0.014055-0.25892 0.017504-0.18037 0.034276-0.17942 0.049415-0.2128 0.072351-0.72684 0.27336-0.53496 0.17352-0.56119 0.16206-0.80874 0.22329-1.7441 0.47477-0.54071 0.14072-0.02432-0.031045-0.043513-0.080957-0.14981-0.31063-0.26521-0.60732-0.11995-0.30149-0.12262-0.33094-0.29415-0.85974-0.096046-0.26269-0.13686-0.33744-0.13652-0.30279-0.13213-0.2706-0.19725-0.37677-0.2528-0.45098-0.61255-1.023-0.15084-0.26488-0.099041-0.18311-0.29147-0.57644-0.083898-0.15346-0.094811-0.14106-0.080429-0.08345-0.08882-0.052979-0.051738-0.014076-0.051898-0.004401-0.10879 0.013812-0.12993 0.042623-0.11732 0.051579-0.15755 0.081513-0.13358 0.07908-0.14929 0.096506-0.52275 0.36264-0.15378 0.097765-0.16493 0.094382-0.13822 0.070959-0.40293 0.18317-0.557 0.23483-0.59726 0.23574-0.31174 0.11648-0.6315 0.21776-0.31714 0.096319-0.31582 0.08296-0.31202 0.064097-0.30468 0.037865-0.29229 0.002127-0.2728-0.045131-0.20341-0.079351-0.17787-0.11427-0.14516-0.14354-0.10441-0.16621-0.052222-0.15299-0.018922-0.15131 0.024893-0.19039 0.072394-0.098954 1.6951-3.3505 1.7954-3.5805 0.38378-0.71905 0.13818-0.23494 0.076943-0.11532 0.075281-0.097237 0.057651-0.063467 0.14289-0.12373 0.16973-0.10915 0.097814-0.052307 0.23335-0.10939 0.79533-0.33778 0.16038-0.078185 0.1639-0.091793 0.10906-0.071589 0.15531-0.12622 0.094403-0.10061 0.050694-0.066683 0.061452-0.096795 0.05101-0.096271 0.078182-0.18166 0.079729-0.23554 0.05236-0.19318 0.050519-0.22128 0.038839-0.19473 0.15616-0.88549 0.096128-0.48452 0.12467-0.57582 0.084814-0.47486 0.043088-0.36522 0.011333-0.18896-0.002695-0.89495 0.006753-0.20145 0.010659-0.13348 0.044816-0.25552 0.081504-0.20869 0.026494-0.043085 0.072386-0.089402 0.076709-0.064895 0.093073-0.053369 0.054293-0.021862 0.12365-0.033084 0.18418-0.02687 0.23895-0.008465 0.12626 0.006176 0.26807 0.024409 0.56928 0.057471 0.39994 0.049608 0.30711 0.027567 0.38282 0.021239 0.2982-0.00566 0.34008-0.026749 0.6105-0.08247 0.60934-0.05959 0.45745-0.070516 0.31028-0.064528 0.16104-0.040295 0.20961-0.062923 0.52887-0.18926 0.27249-0.083157 0.29234-0.070213 0.71432-0.14569 0.78638-0.20395 0.66211-0.1424 0.25468-0.072068 0.38885-0.13225 0.72132-0.26922 0.13668-0.055843 0.20946-0.096743 0.46504-0.24583 0.83579-0.42625 0.57804-0.312 0.2564-0.12438 0.33019-0.12897 0.57997-0.1924 0.35738-0.10356 0.47443-0.12535 0.9323-0.21328 0.59627-0.11094 1.3105-0.21098 0.5376-0.10464 0.25578-0.056034 0.2903-0.071668 0.35665-0.10059 0.24151-0.077605 0.53262-0.18374 0.54599-0.16744 0.34498-0.088562 0.10684-0.01794 0.023796 0.003631 0.051497-0.2083 0.040865-0.13334 0.16853-0.38859 0.038772-0.10836 0.029892-0.10632 0.06005-0.2901 0.080866-0.60114 0.023903-0.1179 0.040246-0.12306 0.059579-0.11715 0.070746-0.10263 0.082163-0.098384 0.2872-0.31548 0.084973-0.11297 0.042708-0.06648 0.10507-0.2018 0.13477-0.33976 0.02435-0.01388 0.066201-0.080474 0.17076-0.25236 0.14402-0.2001 0.12889-0.1583 0.20589-0.21531 0.23891-0.20811 0.69104-0.55454 0.27628-0.24105 0.22495-0.21287 0.12386-0.12513 0.4933-0.52118 0.2826-0.2699 0.25038-0.20577 0.60337-0.42872 0.42906-0.33073 0.54024-0.46712 0.71612-0.59293 0.19727-0.1714 0.24192-0.2315 0.16824-0.18823 0.12326-0.163 0.10143-0.16052 0.36657-0.65445 0.065903-0.12733 0.10525-0.23112 0.10125-0.26302 0.049357-0.15071 0.08774-0.34211 0.035487-0.19811 0.029335-0.22261 0.025009-0.28166 0.014691-0.28919 0.003238-0.19862-0.005748-0.2111-5e-6 -0.02403 0.010313-0.017489 0.025843-0.02577 0.070609-0.041037 0.064045-0.02505 0.16974-0.041846 0.22767-0.024009 0.21765-0.001547 0.15991 0.00807 0.70424 0.068393 0.54076 0.035195 0.40633 0.003167 0.17032-0.009268 0.16388-0.017894 0.19603-0.032345 0.2987-0.069433 0.1702-0.049015 0.36733-0.12708 0.44559-0.18014 0.20573-0.076284 0.31327-0.1008 0.3143-0.075419 0.14501-0.024687 0.24943-0.027987 0.149-0.009109 0.23867-0.004052 0.33691 0.014853 0.3841 0.038356 0.63558 0.082159 0.15277 0.011185 0.1921 0.003415 0.31797-0.017537 0.97659-0.10654 0.21074-0.014001 0.16864-0.001044 0.18669 0.012415 0.17911 0.023936 0.28143 0.052744 0.4027 0.085057 0.1825 0.029195 0.17337 0.017138 0.1511 0.007462 0.33898-0.004739 0.3342-0.026242 0.37849-0.050688 0.35533-0.060047 0.44904-0.095474 0.19882-0.050944 0.19954-0.066012 0.26199-0.10638 0.24428-0.11182 0.41965-0.21494 0.5248-0.29816 1.1158-0.67627 0.26499-0.16724 0.3121-0.20864 0.33605-0.23884 0.20238-0.16334 0.13932-0.13398 0.14361-0.15906 0.19247-0.2468 0.16744-0.24837 0.11092-0.18288 0.10235-0.1827 0.16563-0.33042 0.10255-0.23412 0.077836-0.2003 0.07809-0.22914 0.048433-0.16108 0.07252-0.27037 0.059436-0.25013 0.07628-0.36646 0.11876-0.66214 0.26651-1.5771 0.044625-0.20957 0.037092-0.12061 0.049613-0.11255 0.040898-0.06706 0.074009-0.090483 0.092877-0.08421 0.097118-0.067265 0.10222-0.055362 0.12597-0.052722 0.11806-0.037059 0.1431-0.035212 0.15499-0.029086 0.16883-0.020183 0.16723-0.01106 0.30765-0.001034 0.3366 0.030919 0.45439 0.070243 0.32928 0.062202 0.24168 0.053785 0.23137 0.063384 0.18318 0.059043 0.17516 0.063891 0.20643 0.084765 0.2608 0.12567 0.22669 0.13065 0.25143 0.16949 0.21061 0.16566 0.19271 0.17543 0.24197 0.2429 0.8416 0.87709 0.10838 0.12885 0.008804-0.004837 0.032896 0.010469 0.16989 0.084015 0.12835 0.053806 0.20406 0.06394 0.10708 0.025247 0.1081 0.017688 0.094001 0.007982 0.1232-7.01e-4 0.12856-0.015827 0.18856-0.05333 0.18392-0.081815 0.17961-0.10212 0.17583-0.11612 0.17265-0.12552 0.33795-0.26711 0.4662-0.39214 0.28307-0.25148 0.29296-0.27498 1.3159-1.2637 0.44033-0.43431 0.28019-0.30369 0.13204-0.15962 0.12713-0.16973 0.12158-0.17527 0.35642-0.5375 0.12371-0.17457 0.13016-0.1663 0.13933-0.15264 0.15134-0.13197 0.1659-0.10274 0.15922-0.061283 0.1641-0.036416 0.15948-0.016376 0.14219-0.001038 0.10748 0.009154 0.049003 0.013931 0.10436-0.21714 0.094043-0.23973 0.042071-0.17189 0.009243-0.089741 0.001101-0.089558-0.010328-0.13751-0.050476-0.38702-0.029663-0.37015-0.12738-2.1617-0.03242-0.72966-0.035203-0.55385-0.047598-1.1154-0.060498-2.1024-0.036052-2.0845 9.43e-4 -0.70226 0.01185-0.77765-0.001139-0.32634-0.007371-0.32588-0.015115-0.32474-0.03201-0.39125-0.037891-0.29754-0.050978-0.28515-0.044268-0.19096-0.055533-0.1982-0.11035-0.31378-0.14052-0.31135-0.10197-0.19343-0.11-0.19-0.13371-0.21258-0.14102-0.20918-0.27643-0.38313-0.53082-0.69643-0.8333-1.0593-1.0924-1.3488-0.66435-0.79903-0.45377-0.51946-0.23342-0.25173-0.24018-0.24338-0.24952-0.23179-0.26223-0.21592-0.28664-0.20274-0.29948-0.18715-0.93256-0.52635-0.30887-0.18162-0.30036-0.19436-0.28597-0.21427-0.083628-0.070904-0.15857-0.14792-0.12753-0.13143-0.17901-0.20138-0.24164-0.29605-0.54284-0.69624-0.10289-0.12442-0.19141-0.21537-0.13134-0.13414-0.13473-0.12455-0.13817-0.11283-0.14073-0.098473-0.24419-0.13226-0.22608-0.084717-0.17855-0.037292-0.0924 0.016138-0.3076-1.5641-0.12824-0.73473-0.051041-0.32963-0.083033-0.65154-0.028803-0.3213-0.018205-0.30437-0.014639-0.40934-0.007486-0.73472 0.006201-0.72382 0.097779-5.3019 0.017325-0.70079 0.030959-0.69559 0.025491-0.344 0.036367-0.33986 0.051855-0.33394 0.073554-0.32562 0.10351-0.3141 0.14036-0.29999 0.17094-0.28851 0.1937-0.28039 0.21053-0.27488 0.22298-0.27143 0.23227-0.2696 0.48419-0.53872 2.574-2.7694 0.8578-0.93079 0.11587-0.021634 0.5243-0.17545 0.69881-0.25147 2.2135-0.8135 0.70781-0.25022 0.34826-0.11637 0.34525-0.10801 0.34284-0.096801 0.34099-0.081717 0.33972-0.061434 0.339-0.034284 0.3012-0.003028 0.30072 0.01827 0.32731 0.037585 0.31901 0.050791 0.31858 0.062053 0.35105 0.078126 0.60344 0.14528 3.1608 0.80021 0.97194 0.22863 0.32413 0.067627 0.32427 0.060316 0.32447 0.050269 0.32475 0.03664 0.32514 0.018371 0.27152-0.001531 0.27185-0.014411 0.42851-0.041417 0.30403-0.039374 0.60799-0.094804 1.2105-0.21797 0.44052-0.072377 0.50369-0.068727 0.53645-0.050944 0.41661-0.02253 0.66004-0.012438 0.66299 0.004962 1.6597 0.034503 0.46246 0.002296 0.26767-0.004455 0.26504-0.010916 0.21939-0.015621 0.21617-0.02286 0.32937-0.053416 0.24937-0.059683 0.19551-0.062728 0.12717-0.050828 0.24751-0.12381 0.20701-0.13264 0.11002-0.083443 0.16563-0.14614 0.1348-0.13918 0.15439-0.18391 0.080277-0.11197 0.11821-0.20487 0.11826-0.27007 0.10531-0.2996 0.15718-0.50357 0.2482-0.75625 0.27334-0.87762 0.049533-0.13271 0.053537-0.11294 0.061808-0.10136 0.061548-0.076763 0.075816-0.070835 0.067148-0.045866 0.21471-0.078753 0.25399-0.025703 0.28273 0.01297 0.30344 0.040725 0.31811 0.0603 0.32832 0.073829 0.33525 0.082952 0.68256 0.18153 3.1075 0.85827 3.0911 0.83625 2.5342 0.6995 0.7992 0.23327 1.0537 0.33254 1.4562 0.48283 2.7971 0.94286 0.83608-1.2072 0.40347-0.55929 0.62282-0.84278 1.3921-2.0337 0.19713-0.26913 0.2092-0.25789 0.11191-0.1201 0.11898-0.11001 0.12823-0.095241 0.14001-0.074348 0.067755-0.025033 0.1489-0.036215 0.16549-0.018049 0.10202-0.001722 0.19903 0.014342 0.32827 0.057761 0.018531-0.036031 0.23855-0.6132 0.167-0.39534 0.15688-0.32477 0.1061-0.18596 0.16792-0.23691 0.11131-0.12354 0.25688-0.21204 0.29128-0.17026 0.31525-0.13866 0.33122-0.11542 0.3414-0.098721 0.34749-0.086992 0.35076-0.079052 1.4029-0.28968 0.34484-0.077144 0.32426-0.080002 0.31839-0.089177 0.31058-0.10194 0.30023-0.11932 0.28657-0.14265 0.2707-0.17083 0.2576-0.19343 0.24837-0.20938 0.24216-0.22002 0.47472-0.45562 0.48268-0.4769 0.23172-0.24297 0.21936-0.24933 0.20131-0.25889 0.1762-0.27236 0.12481-0.24102 0.30663-0.71055 0.094952-0.20596 0.13138-0.25552 0.14354-0.24644 0.15556-0.23462 0.16902-0.22261 0.17658-0.20778 0.17943-0.19273 0.17795-0.17625 0.17554-0.15525 0.18733-0.12293 0.13623-0.057016 0.14703-0.039661 0.12192-0.020556 0.1847-0.015199 0.1929-3.5e-4 0.24388 0.016239 0.25147 0.030398 0.25739 0.040754 0.28114 0.051873 0.57271 0.12076 0.8769 0.20752 1.9168 0.47968 0.68263 0.18046 0.33454 0.09668 0.32718 0.1044 0.31671 0.11584 0.30205 0.13227 0.28181 0.15532 0.25426 0.18704 0.21659 0.22042 0.1913 0.25036 0.1743 0.27141 0.16422 0.28533 0.3218 0.58994 0.16859 0.2952 0.16771 0.27168 0.17646 0.2676 0.1833 0.26425 0.18863 0.26149 0.38888 0.51649 0.39978 0.50969 0.5895 0.7215 0.57178 0.66206 0.59552 0.65703 0.66906 0.70945 0.67532 0.69346" clip-path="url(#pca273546c0)"/>
   </g>
  </g>
 </g>
 <defs>
  <clipPath id="pca273546c0">
   <rect x="7.2" y="7.2" width="259.46" height="266.11"/>
  </clipPath>
 </defs>
</svg>
