<?xml version="1.0" encoding="UTF-8"?>
<!DOCTYPE svg  PUBLIC '-//W3C//DTD SVG 1.1//EN'  'http://www.w3.org/Graphics/SVG/1.1/DTD/svg11.dtd'>
<svg width="216.72pt" height="280.51pt" version="1.1" viewBox="0 0 216.72 280.51" xmlns="http://www.w3.org/2000/svg">
 <metadata>
  <rdf:RDF xmlns:cc="http://creativecommons.org/ns#" xmlns:dc="http://purl.org/dc/elements/1.1/" xmlns:rdf="http://www.w3.org/1999/02/22-rdf-syntax-ns#">
   <cc:Work>
    <dc:type rdf:resource="http://purl.org/dc/dcmitype/StillImage"/>
    <dc:date>2024-07-04T12:10:24.708490</dc:date>
    <dc:format>image/svg+xml</dc:format>
    <dc:creator>
     <cc:Agent>
      <dc:title>Matplotlib v3.7.1, https://matplotlib.org/</dc:title>
     </cc:Agent>
    </dc:creator>
   </cc:Work>
  </rdf:RDF>
 </metadata>
 <defs>
  <style type="text/css">*{stroke-linejoin: round; stroke-linecap: butt}</style>
 </defs>
 <g id="figure_1">
  <g id="patch_1">
   <path d="m0 280.51h216.72v-280.51h-216.72v280.51z" fill="none"/>
  </g>
  <g id="axes_1">
   <g id="PatchCollection_1" fill="#bdc660" stroke="#bdc660">
    <path d="m96.222 50.549 0.10244 0.027018 0.040248-0.009974 0.074211-0.045551 0.075091-0.075649 0.082031-0.11369 0.23065-0.40161 0.14215-0.20727 0.12935-0.16828 0.19747-0.22163 0.39788-0.40444 0.23068-0.26888 0.1839-0.19688 0.09166-0.081428 0.091757-0.066576 0.17247-0.072511 0.10172-5.84e-4 0.08907 0.025951 0.10668 0.056577 0.28751 0.17898 0.15093 0.1165 0.095643 0.10632 0.0784 0.11677 0.068767 0.14556 0.029652 0.10809 0.00534 0.090347-0.011234 0.047653-0.044503 0.062499-0.11136 0.096807-0.1976 0.19398-0.2633 0.20418-0.12085 0.11751-0.078549 0.11463-0.061432 0.16858-0.010467 0.1616 0.012618 0.13941 0.028884 0.1354 0.032079 0.094733 0.10482 0.24634 0.05284 0.08175 0.079284 0.075988 0.10887 0.061216 0.12794 0.043504 0.18606 0.026572 0.19015-0.023767 0.17645-0.070453 0.12366-0.087885 0.088167-0.088587 0.036934-0.067134 0.1023 0.46396 0.02415 0.17085-0.004469 0.064734-0.018268 0.058398-0.13911 0.25256-0.023943 0.058109-0.011908 0.062948 0.011129 0.13985 0.077923 0.35842-0.092008 0.002023-0.082784 0.050306-0.083171 0.1092-0.056956 0.14538-0.022842 0.16516 0.004221 0.094069 0.0283 0.15096 0.12235 0.42479 0.024994 0.14577 0.012448 0.15187-0.001716 0.18565-0.015217 0.15673-0.06485 0.27319-0.062579 0.14348-0.11263 0.17896-0.20114 0.1963-0.070686 0.049993-0.21976 0.11608-0.23798 0.068417-0.26523 0.015356-0.40959-0.037147-0.78384-0.10345-0.20055-0.043688-0.16051-0.050264-0.15826-0.062409-0.13989-0.06515-0.21186-0.12199-0.29459-0.21038-0.44488-0.3402-0.2-0.13117-0.17288-0.09618-0.25312-0.11673-0.74762-0.30995-0.96985-0.38665-0.17184-0.074101-0.12669-0.074022-0.083-0.074939-0.038578-0.071305-0.005078-0.032899 0.003355-0.039605 0.021491-0.058378 0.046835-0.069648 0.06444-0.069578 0.17243-0.15666 0.20184-0.21148 0.11458-0.15047 0.095542-0.17999 0.070589-0.22972 0.084592-0.42466 0.030212-0.18055 0.043827-0.40132 0.038321-0.53052 0.040322-0.2269 0.10946-0.46521 0.038647-0.26195 0.007211-0.23685-0.008924-0.25943-0.042246-0.38837-0.023766-0.12514-0.078748-0.32383-0.010747-0.09658 0.002836-0.058696 0.015889-0.064548 0.058528-0.093333 0.09565-0.074427 0.11705-0.048068 0.26101-0.058666 0.19406-0.021811 0.17319 0.011127 0.10133 0.037695 0.048604 0.053048-0.070739 0.030075-0.039509 0.081265 2.94e-4 0.11946 0.032666 0.14163 0.04663 0.13971 0.047065 0.10643 0.058597 0.10537 0.35945 0.49 0.10724 0.19655 0.039022 0.095596 0.061283 0.20114 0.079399 0.30415 0.09551 0.31882 0.098592 0.28261 0.05836 0.12915 0.062294 0.10967 0.027671 0.039368 0.095652 0.090958" clip-path="url(#pe841a6791b)"/>
    <path d="m102.05 46.662-0.12475 0.020139-0.082158 0.005105-0.2091-0.006862-0.16016 0.003965-0.16746 0.037362-0.17401 0.07324-0.14196 0.085726-0.62504 0.40716-0.10441 0.055508-0.11862 0.052543-0.23188 0.08851-0.12567 0.01791-0.046973-0.003712-0.13324-0.038666-0.20704-0.10488-0.43235-0.25893-0.2622-0.17077-0.41026-0.3355-0.16759-0.15749-0.18217-0.20592-0.12723-0.17783-0.043738-0.098842 0.36347-0.063815 0.72352-0.14422 0.65142-0.11865 0.4712-0.080342 1.1251-0.1734 0.31556-0.065254 0.29742-0.074472 0.46606-0.14434 0.23604-0.1009 0.089172-0.044971 0.19542-0.11274 0.098308-0.068369 0.25398-0.22547 0.099121-0.059721 0.096584-0.009961 0.09059 0.038635 0.069459 0.082709 0.051468 0.11636 0.02846 0.11352 0.009949 0.13925-0.015052 0.13468-0.07011 0.26856-0.080673 0.19124-0.12138 0.18809-0.17153 0.19915-0.3112 0.29684-0.234 0.20329-0.166 0.11561-0.10506 0.053136-0.076105 0.029216-0.10318 0.028583" clip-path="url(#pe841a6791b)"/>
    <path d="m53.809 22.137 0.15825 0.010582 0.23907-0.002182 0.23161-0.02017 0.19902-0.029406 0.49138-0.096407 0.31362-0.032217 0.26944-0.002001 0.27762 0.013812 0.22074 0.024992 0.19522 0.037081 0.23538 0.063826 0.20395 0.068705 0.83447 0.32966 0.72627 0.24872 0.45878 0.18059 0.6224 0.26607 0.37503 0.17395 0.53391 0.26112 0.4473 0.24499 0.18725 0.11786 0.15174 0.10827 0.19038 0.15647 0.19567 0.19249 0.14671 0.17412 0.17105 0.25078 0.11389 0.2077 0.11015 0.2469 0.066824 0.18128 0.061413 0.19657 0.082735 0.3279 0.14927 0.71108 0.060945 0.24903 0.11276 0.3814 0.077658 0.22644 0.1494 0.38674 0.13588 0.31931 0.14904 0.32566 0.087662 0.17728 0.10785 0.19662 0.095621 0.15223 0.12535 0.16897 0.12131 0.135 0.1119 0.10391 0.21477 0.15988 0.14208 0.086506 0.22342 0.11431 0.23504 0.097696 0.11261 0.039797 0.12346 0.038898 0.35569 0.090455 0.44431 0.077708 0.43284 0.047678 0.31934 0.022138 0.89955 0.043226 0.28583 0.024066 0.30917 0.042464 0.24346 0.050018 0.14715 0.038824 0.22315 0.075614 0.17098 0.076024 0.12528 0.068588 0.18751 0.13056 0.14328 0.1368 0.11083 0.1572 0.095903 0.25604 0.043521 0.29008 0.012116 0.31653-0.008325 0.40347-0.023312 0.3632-0.035599 0.37558-0.046785 0.38375-0.058058 0.38856-0.070509 0.39059-0.085188 0.39022-0.09534 0.36859-0.21874 0.78355-0.14934 0.56415-0.09787 0.42822-0.0752 0.42202-0.054769 0.42046-0.029671 0.32979-0.017066 0.32506-0.003128 0.31818 0.017316 0.36535 0.044809 0.34649 0.065822 0.28475 0.076706 0.21948 0.10168 0.19934 0.13309 0.18154 0.15434 0.16705 0.53931 0.53126 0.10675 0.12153 0.094403 0.12288 0.10986 0.1851 0.061504 0.18705 0.008506 0.10826-0.02991 0.18273-0.08386 0.17971-0.13848 0.16854-0.13694 0.10926-0.20968 0.10623-0.15637 0.044864-0.14436 0.020085-0.12496 0.00243-0.12359-0.010038-0.36697-0.068863-0.21542-0.031576-0.19045 0.010954-0.13266 0.044333-0.11922 0.065793-0.20767 0.17172-0.041491 0.043192-0.15477 0.18168-0.19497 0.25921-0.39815 0.57451-0.83224 1.2443-0.30826 0.43149-0.53139 0.69875-0.12934 0.19188-0.14328 0.2473-0.1209 0.27202-0.098357 0.34868-0.055184 0.36676-0.023009 0.38022 5.93e-4 0.39009 0.017568 0.3972 0.066838 0.80784 0.17595 1.6349 0.076247 0.81334 0.028617 0.40259 0.040404 0.92749 0.031836 0.40036 0.045467 0.40783 0.12288 0.83651 0.03783 0.8518 0.008856 1.8983-0.068925 0.88877-0.40555 0.017306-0.87152-0.04304-0.81112-0.10345-0.48867-0.11859-0.24674-0.11848-0.63061-0.25279-0.37677-0.1401-0.20304-0.070683-0.5748-0.18015-0.31816-0.11513-0.33018-0.1493-0.79659-0.41786-0.27149-0.10685-0.23713-0.061788-1.0798-0.21372-0.20173-0.027884-0.20814-0.018371-0.61158-0.037737-0.37203-0.013898-0.18073-0.015848-0.26601-0.040653-0.17717-0.035268-0.23741-0.063288-0.15248-0.050661-0.14727-0.060685-0.22615-0.10677-0.55636-0.30266-0.22749-0.14733-0.47807-0.34755-0.256-0.15836-0.30881-0.14034-0.19302-0.065887-0.20911-0.05064-0.26479-0.038905-0.27257-0.019191-0.28146-0.004238-0.35548 0.012208-0.23924 0.018804-0.3017 0.034632-0.43226 0.064869-0.63217 0.11889-0.41083 0.099697-0.42751 0.132-0.34255 0.12195-0.35962 0.14489-0.26472 0.11678-0.16402 0.080653-0.090432 0.060723-0.080176 0.084334-0.036583 0.063909-0.017687 0.049301-0.018587 0.13541 0.013449 0.2086 0.054184 0.32065 0.18609 0.78194 0.070619 0.37459 0.069301 0.47789 0.071118 0.69131 0.017092 0.26686-0.002392 0.2154-0.066567 0.67628-0.018117 0.40408 0.013356 0.36107 0.036371 0.26451 0.035813 0.17164 0.057065 0.20676 0.19564 0.59138 0.12336 0.30567 0.20931 0.47359 0.24789 0.62824 0.16163 0.35859 0.013557 0.050872 0.008255-0.01885 0.018561-0.011966 0.071331-0.016202 0.12194-0.003378 0.14129 0.011482 0.11129 0.017953 0.17552 0.040739 0.26767 0.087237 0.2536 0.10795 0.22044 0.10973 0.90383 0.50453 0.43634 0.23366 0.37612 0.18326 0.29028 0.13179 0.67136 0.27496 0.26309 0.088564 0.28894 0.065424 0.22394 0.024983 0.328-0.002511 0.6332-0.05383 0.51977-0.022014 0.2604-0.033619 0.35935-0.073055 1.106-0.26234 1.2202-0.2543 1.6701-0.31748 2.1062-0.37953 1.2723-0.21834 1.2649-0.19899 1.2776-0.18031 0.87056-0.1085 0.44214-0.048163 0.44688-0.041799 0.45126-0.032749 0.45453-0.019997 0.45557-0.002342 0.45266 0.02142 0.4433 0.051951 0.43926 0.089116 0.4039 0.11337 0.34499 0.11999 0.24942 0.10357 0.098023 0.056001 1.4401 0.58854 0.050911-0.10197 0.06576-0.091949 0.038131-0.034326 0.041248-0.02062 0.042669-0.004036 0.044828 0.009063 0.093304 0.044214 0.28775 0.19149 0.097613 0.044097 0.043989 0.010318 0.043791 0.003594 0.08193-0.013955 0.13752-0.058011 0.10781-0.031348 0.11734-0.011882 0.18553 0.002362 0.25621 0.020705 0.19692 0.025104 0.19882 0.038273 0.33936 0.078357 0.24216 0.043789 0.005086 0.039567 0.026149 0.070597 0.043351 0.079346 0.056661 0.076924 0.11748 0.11254 0.10886 0.066641 0.16099 0.059268 0.20425 0.041332 0.51532 0.044243 0.3499 0.04018 0.14556 0.022329 0.13522 0.035857 0.08591 0.037428 0.05047 0.031022 0.095993 0.076683 0.1361 0.13563 0.15002 0.16579 0.019221-0.073848-0.011238-0.40763 0.012381-0.17631 0.01531-0.085937 0.03821-0.13584 0.050616-0.12392 0.053011-0.10275 0.054589-0.090486 0.12557-0.17328 0.18633-0.20453 0.26262-0.23069 0.28325-0.21082 0.23853-0.15412 0.52673-0.31209 0.17489-0.092293 0.26631-0.11305 0.23462-0.075663 0.23356-0.056571 0.21152-0.036023 0.46021-0.052364 0.16262-0.030361 0.16207-0.040313 0.98963-0.31418 0.16635-0.047409 0.19948-0.034588 0.20259-0.008057 0.23174 0.027349 0.18149 0.048748 0.30938 0.10257 0.62818 0.19072 0.39515 0.15714 0.18198 0.080946 0.24116 0.11974 0.71244 0.3802 0.1944 0.090198 0.3448 0.13349 0.15888 0.051896 0.14555 0.030764 0.12732 9.14e-4 0.098739-0.021859 0.13755-0.067995 0.24388-0.16685 0.10607-0.056995 0.10663-0.046117 0.15535-0.031189 0.098932 0.008074 0.057028 0.014959 0.067019 0.030699 0.060202 0.03856 0.099055 0.084493 0.028785 0.039013 0.031297 0.06723 0.015147 0.098168-0.004901 0.088268-0.046177 0.24364-0.00503 0.11415 0.011394 0.11001 0.053008 0.13801 0.071453 0.073321 0.090323 0.048212 0.080937 0.021291 0.27756 9.87e-4 0.087412 0.020409 0.1143 0.075854 0.087052 0.10654 0.17662 0.27338 0.28361 0.35852 0.22688 0.30995 0.32033 0.41876 0.17818 0.27724 0.11752 0.23073 0.099532 0.26757 0.16474 0.56827 0.097088 0.28578 0.14703 0.32065 0.17942 0.30446 0.19398 0.26724 0.24288 0.25478 0.27174 0.23104 0.56433 0.42339 0.2602 0.206 0.22206 0.21031 0.1344 0.16324 0.24105 0.31433 0.071858 0.075248 0.12462 0.11013 0.16541 0.12011 0.12957 0.075854 0.19598 0.077845 0.33629 0.10911 0.14745 0.062663 0.11438 0.07757 0.03558 0.040299 0.023406 0.039712 0.013848 0.041105-0.00102 0.081873-0.040234 0.081351-0.063797 0.062437-0.166 0.096025-0.30652 0.11583-0.57968 0.18522-0.31109 0.10841-0.3457 0.13814-0.30988 0.13702-0.23672 0.11227-0.090085 0.049056-0.01233 0.017769 1.6257 0.54201 0.26073 0.069939 0.17228 0.026346 0.085651 0.002055 0.087326-0.008126 0.17395-0.039277 0.26068-0.089753 1.7118-0.6992 0.16463-0.21539 8.7356-10.939 0.83447-1.0114 0.57577-0.65505 0.2989-0.31676 0.30402-0.30254 0.62954-0.58412 0.97323-0.84802 1.6471-1.3892 4.9638-4.1574 0.65781-0.55962 0.64741-0.5675 0.52426-0.48574 0.46645-0.46704 0.3894-0.4167 0.52648-0.58399 0.30824-0.3777 0.1417-0.20807 0.10081-0.17618 0.084699-0.1773 0.073906-0.18338 0.095933-0.28525 0.074576-0.25959 0.33806-1.3665 0.077251-0.26032 0.069892-0.1976 0.094354-0.22559 0.084446-0.17233 0.10619-0.19156 0.43129-0.72853 0.094758-0.17832 0.081773-0.17376 0.074795-0.18473 0.059018-0.17414 0.049207-0.17827 0.062018-0.3245 0.018296-0.16009 0.011405-0.18459-4.65e-4 -0.32444-0.027352-0.65686-0.026253-0.28627-0.025985-0.19836-0.047514-0.26287-0.094794-0.38418-0.32618-1.0982-0.081226-0.32972-0.056074-0.33505-0.019245-0.17497-0.015917-0.3018 0.00284-0.24006 0.014135-0.22786 0.035905-0.31933 0.043299-0.26835 0.05627-0.27385 0.070484-0.28398 0.14026-0.4659 0.15778-0.43465 0.1621-0.37889 0.12435-0.25218 0.081845-0.14994 0.12957-0.21516 0.11295-0.16801 0.2782-0.36598 0.8462-1.0042 0.29146-0.37773 0.22668-0.31386 0.19189-0.28133 0.71092-1.1159 0.39917-0.59248 0.15572-0.20848 0.13769-0.16948 0.31416-0.3434 0.26874-0.26341 0.15794-0.14332 0.42132-0.3513 0.93743-0.70476 0.47751-0.3333 0.55477-0.34574 0.20901-0.11414 0.10804-0.049766 0.16856-0.060555 0.14712-0.035902 0.14038-0.020514 0.14361-0.007296 0.21817 0.01702 0.21247 0.0545 0.15255 0.071219 0.10339 0.07124 0.10182 0.092148 0.062533 0.071194 0.063961 0.092221 0.051266 0.098482 0.06126 0.16832 0.04265 0.18542 0.01728 0.11309 0.030216 0.37412 0.004979 0.40092-0.026015 1.2424 0.007213 0.37609 0.015859 0.19318 0.024903 0.15599 0.07326 0.28271 0.049154 0.14195 0.11216 0.26384 0.076394 0.15292 0.20585 0.37412 0.54016 0.88877 0.36459 0.51952 0.22418 0.29522 0.27377 0.32071 0.13601 0.13664 0.10799 0.094675 0.16852 0.11922 0.26359 0.12711 0.2926 0.090419 0.12471 0.028142 0.36842 0.059552 0.38812 0.036605 0.40227 0.020095 0.83154 0.008514 0.85116-0.015022 3.004-0.10348 0.98941-0.025133 0.51358 0.001782 0.25006 0.00855 0.33704 0.024935 0.32051 0.04622 0.29851 0.075772 0.1756 0.068877 0.1195 0.063177 0.13882 0.095604 0.079692 0.06766 0.14559 0.14943 0.13446 0.1684 0.18957 0.28641 0.16212 0.28978 0.20017 0.40693 0.33878 0.77481 0.32769 0.80324 1.3043 3.2572 0.99674 2.4249 1.9864 4.6757 1.3698 3.1709 0.14588 0.35755 0.13468 0.35804 0.12007 0.35788 0.10071 0.35702 0.074966 0.35536 0.0408 0.35277-0.004261 0.34904-0.065164 0.37357-0.11673 0.36911-0.15446 0.36585-0.18159 0.36353-0.20072 0.36193-0.21386 0.3609-0.45035 0.72054-0.66415 1.0393-0.43426 0.69978-0.52335 0.8978-0.42188 0.77102-0.61147 1.1674-0.60052 1.1736-3.8607 7.6465-1.2319 2.4157 0.42623 0.45719 0.49499 0.54715 6.637 7.396 3.5857 3.9674 0.86154 0.96739 0.58431 0.66757 0.57232 0.6821 0.22806 0.29124 0.21915 0.29662 0.20772 0.3034 0.19307 0.31196 0.18206 0.3332 0.1683 0.34126 0.47469 1.0427 0.1642 0.34489 0.17544 0.33898 0.21715 0.37403 0.23438 0.36432 0.24833 0.35582 0.26004 0.34784 0.2704 0.33974 0.31394 0.36949 0.83036 0.92161 0.26543 0.30959 0.24911 0.31652 0.22453 0.32762 0.18968 0.34377 0.14965 0.37289 0.11245 0.39039 0.085178 0.40327 0.065473 0.41263 0.05147 0.41934 0.041705 0.42409 0.093514 1.2884 0.28401 4.8054 0.43873 6.8268 0.36882 0.10077 4.4858 1.3207 0.88198 0.24586 0.43219 0.11196 0.42626 0.10093 0.41993 0.085649 0.41277 0.064548 0.40427 0.035574 0.39378-0.003892 0.38051-0.057125 0.34538-0.11298 0.33431-0.15981 0.32653-0.19362 0.32143-0.21724 0.31861-0.2328 0.95881-0.73093 0.32738-0.23749 0.33522-0.22612 0.19008-0.11871 0.46244-0.26544 0.27321-0.14486 0.53641-0.26441 0.63143-0.28577 0.43917-0.1847 0.75717-0.3038 0.82125-0.31511 0.63471-0.22334 0.57206-0.18053 1.3296-0.35395 0.37199-0.10976 0.66658-0.21945 0.32296-0.081664 0.322-0.0353 0.34929 0.032397 0.35234 0.093512 0.35476 0.13846 0.35667 0.17104 0.35816 0.19426 0.35932 0.21051 0.36022 0.22161 0.72244 0.4627 2.1776 1.4286 1.0943 0.71004 3.608 2.3004 0.67274 0.44931 0.32402 0.22931 0.31058 0.2344 0.2915 0.24165 0.2649 0.25178 0.22839 0.2657 0.17901 0.28457 0.071315 0.16594 0.086252 0.37852 0.017368 0.36806-0.024551 0.38435-0.054595 0.39602-0.075747 0.40424-0.090328 0.4099-0.2066 0.82987-1.1278 4.1862-1.7738 6.6976-0.21724 0.84134-0.19827 0.83672-0.083065 0.41638-0.064299 0.41369-0.036731 0.4092-0.001768 0.32172 0.030677 0.31521 0.072338 0.30615 0.13522 0.32228 0.18608 0.31159 0.22666 0.30399 0.28957 0.33195 0.31931 0.3264 0.33979 0.32028 0.35039 0.31141 0.34876 0.29682 0.82316 0.67469 0.067335 0.073453-1.0541 1.1438-3.1632 3.4033-0.595 0.66202-0.28543 0.33131-0.27402 0.33356-0.25871 0.33779-0.23802 0.34456-0.21007 0.35454-0.17248 0.36864-0.1272 0.38598-0.090385 0.40014-0.06372 0.41037-0.044688 0.41764-0.031321 0.42273-0.038039 0.85479-0.021283 0.86118-0.12011 6.5153-0.007614 0.88948 0.009206 0.90286 0.017993 0.50303 0.022375 0.37402 0.035398 0.39483 0.10204 0.80065 0.062726 0.40507 0.1576 0.90289 0.37802 1.9221 0.11355-0.019833 0.21942 0.045825 0.27783 0.1041 0.30008 0.16253 0.17295 0.12101 0.1698 0.13865 0.16557 0.15306 0.16141 0.16484 0.23522 0.26465 0.12644 0.1529 0.6671 0.85557 0.29695 0.3638 0.21999 0.24747 0.15672 0.16151 0.19487 0.18177 0.10277 0.08713 0.35142 0.26331 0.36911 0.23884 0.37957 0.22318 1.146 0.6468 0.36803 0.22998 0.35225 0.24914 0.32224 0.26534 0.30663 0.28483 0.29516 0.29908 0.28684 0.30934 0.55763 0.63833 0.81641 0.98189 1.3425 1.6575 1.024 1.3017 0.65231 0.85582 0.3397 0.47081 0.17329 0.25706 0.16432 0.26122 0.13518 0.23349 0.12531 0.2377 0.17269 0.3826 0.13561 0.38559 0.068244 0.24356 0.054402 0.23467 0.062649 0.35041 0.046566 0.36564 0.03934 0.48079 0.018578 0.39906 0.009061 0.40046 0.001403 0.40103-0.014555 0.95563-0.001153 0.86298 0.044324 2.5616 0.074365 2.5836 0.058502 1.3707 0.043267 0.68061 0.039846 0.89665 0.15655 2.6564 0.036456 0.45486 0.062034 0.4756 0.012692 0.16898-0.001351 0.11005-0.011358 0.11028-0.051699 0.21123-0.11556 0.2946-0.12824 0.26683-0.060218-0.017119-0.13208-0.011248-0.17473 0.001277-0.19598 0.020126-0.20166 0.044752-0.19566 0.07531-0.20387 0.12626-0.18598 0.16218-0.17121 0.18758-0.15995 0.20436-0.15202 0.21452-0.43799 0.66052-0.14941 0.21538-0.15622 0.20858-0.16226 0.19616-0.34431 0.3732-0.54111 0.53372-1.6171 1.5529-0.36 0.33791-0.34786 0.30904-0.5729 0.4819-0.41529 0.32824-0.21217 0.15425-0.21608 0.1427-0.22071 0.12549-0.22602 0.10054-0.23172 0.065537-0.15798 0.01945-0.1514 8.63e-4 -0.11551-0.009808-0.13284-0.021735-0.1316-0.031023-0.25077-0.078572-0.15773-0.06612-0.20877-0.10324-0.040424-0.012864-0.01082 0.005945-0.13319-0.15834-1.0342-1.0778-0.29735-0.29849-0.23682-0.21558-0.25882-0.20356-0.30898-0.20828-0.27857-0.16054-0.32049-0.15443-0.25368-0.10416-0.21526-0.078511-0.2251-0.072555-0.28433-0.077887-0.29699-0.066092-0.40464-0.076434-0.55839-0.086315-0.41364-0.037991-0.37806 0.001274-0.2055 0.013592-0.20747 0.024804-0.19046 0.035744-0.17585 0.043273-0.14508 0.045541-0.1548 0.064789-0.12561 0.068034-0.11934 0.082659-0.11413 0.10348-0.090946 0.11119-0.050258 0.082407-0.060967 0.13831-0.045581 0.14822-0.054837 0.25754-0.3275 1.9381-0.14594 0.81367-0.093736 0.45033-0.073037 0.30738-0.089115 0.33225-0.059516 0.19795-0.09596 0.28158-0.09565 0.24614-0.12601 0.2877-0.20354 0.40604-0.12578 0.22451-0.1363 0.22473-0.20576 0.30522-0.23652 0.30328-0.17648 0.19546-0.1712 0.16465-0.2487 0.20072-0.41296 0.29351-0.38352 0.25639-0.32564 0.20551-1.3712 0.83106-0.64491 0.3664-0.51569 0.26413-0.30018 0.13742-0.32195 0.13072-0.2452 0.081122-0.24433 0.062605-0.55182 0.11733-0.43666 0.073794-0.46512 0.062292-0.41068 0.032251-0.41656 0.005827-0.18568-0.009168-0.21305-0.021059-0.22427-0.035875-0.49487-0.10452-0.34584-0.064812-0.2201-0.029412-0.22941-0.015255-0.20724 0.001284-0.25898 0.017208-1.2001 0.13094-0.39074 0.021553-0.23607-0.004194-0.18774-0.013743-0.78105-0.10096-0.47201-0.04713-0.41402-0.01825-0.2933 0.004982-0.18311 0.011196-0.30652 0.034394-0.1782 0.030338-0.38623 0.092683-0.38497 0.12388-0.25282 0.093746-0.54757 0.22137-0.4514 0.15617-0.20916 0.060234-0.36707 0.085327-0.2409 0.039749-0.20138 0.021991-0.2093 0.01139-0.49933-0.003888-0.66452-0.043244-0.86542-0.084038-0.19651-0.009915-0.26746 0.001903-0.27978 0.029505-0.20859 0.051425-0.078703 0.030785-0.086769 0.050429-0.031758 0.031668-0.012673 0.021491 6e-6 0.029529 0.007067 0.25942-0.003978 0.24408-0.018051 0.35537-0.03073 0.34612-0.036047 0.27355-0.043607 0.24345-0.10782 0.42041-0.060651 0.1852-0.12442 0.32322-0.12934 0.28402-0.080985 0.15647-0.45047 0.80423-0.12465 0.19726-0.15147 0.20031-0.20674 0.23131-0.29728 0.28448-0.24242 0.21064-0.88002 0.72863-0.66388 0.57404-0.52726 0.40643-0.74147 0.52684-0.30769 0.25286-0.34728 0.33167-0.6062 0.64046-0.15221 0.15377-0.27644 0.26159-0.33952 0.29622-0.8492 0.68146-0.29359 0.25575-0.25301 0.26459-0.15839 0.19453-0.17697 0.24589-0.20984 0.31012-0.081351 0.098892-0.029923 0.017057-0.16561 0.41752-0.12912 0.24799-0.052481 0.081696-0.10442 0.13883-0.35293 0.38769-0.10097 0.1209-0.086937 0.12612-0.073214 0.14396-0.049456 0.15123-0.029372 0.14488-0.099369 0.73872-0.073791 0.3565-0.036732 0.13065-0.047645 0.13317-0.20709 0.47752-0.050217 0.16386-0.063281 0.25597-0.029243-0.004463-0.13129 0.022048-0.42394 0.10883-0.67095 0.20577-0.65452 0.2258-0.29678 0.095369-0.43828 0.12361-0.35674 0.088073-0.31432 0.068859-0.66064 0.12859-1.6104 0.25927-0.73275 0.13634-1.1457 0.2621-0.58301 0.15405-0.43918 0.12726-0.71271 0.23644-0.40576 0.15849-0.31508 0.15285-0.71034 0.38341-1.0271 0.52381-0.57148 0.3021-0.2574 0.11889-0.16796 0.068624-0.88641 0.33084-0.47784 0.16252-0.31297 0.088564-0.81365 0.175-0.96636 0.25063-0.87782 0.17904-0.35924 0.086284-0.33486 0.10219-0.64991 0.23258-0.25758 0.077326-0.1979 0.049518-0.38129 0.0793-0.56215 0.086658-0.7488 0.073235-0.75023 0.10135-0.41791 0.032874-0.36645 0.006958-0.47044-0.026095-0.3774-0.033874-0.49148-0.060956-0.69958-0.070619-0.32942-0.029992-0.15516-0.007588-0.29364 0.010404-0.22633 0.033021-0.15195 0.040657-0.066719 0.026866-0.11437 0.065584-0.094265 0.079748-0.088953 0.10986-0.032558 0.052944-0.10016 0.25646-0.05507 0.31399-0.013098 0.16403-0.008297 0.24755 0.003321 1.0998-0.013925 0.2322-0.052946 0.44881-0.10422 0.58354-0.1532 0.7076-0.11812 0.59541-0.19189 1.0881-0.047726 0.23929-0.062079 0.27192-0.064342 0.23739-0.097975 0.28944-0.096074 0.22324-0.062684 0.1183-0.075516 0.11895-0.062296 0.081945-0.11601 0.12364-0.19086 0.1551-0.13401 0.087973-0.20141 0.1128-0.19709 0.09608-0.97736 0.41509-0.28675 0.13443-0.1202 0.064279-0.20857 0.13413-0.17559 0.15205-0.070845 0.077994-0.09251 0.11949-0.094553 0.14172-0.16981 0.28871-0.4716 0.88362-2.2063 4.3999-2.083 4.1173-0.026371-0.023584-0.02303-0.085992-0.018904-0.12634-0.01542-0.19547-0.024361-0.64718-0.017377-0.19773-0.030988-0.17452-0.051068-0.14277-0.078955-0.10102-0.11164-0.051685-0.13838-0.012605-0.15728 0.015508-0.17032 0.03531-0.36387 0.10687-0.94665 0.32075-0.1849 0.052219-0.18016 0.040503-0.17331 0.023553-0.16369-3.31e-4 -0.15037-0.033373-0.11752-0.06236-0.10639-0.088868-0.097185-0.10942-0.089229-0.12544-0.081933-0.13808-0.074725-0.14834-0.071185-0.16592-0.12535-0.35189-0.11267-0.36939-0.44395-1.5676-0.22285-0.74353-0.13022-0.40975-0.93527 0.62155-0.62982 0.42825-0.57972 0.41882-0.38282 0.30336-0.22077 0.18758-0.084051 0.083907-0.16172 0.18909-0.25937 0.32964-0.28999 0.32324-0.17865 0.17036-0.16622 0.14052-0.11698 0.085414-0.12406 0.079472-0.57431 0.34611-0.33569 0.18883-0.24195 0.11748-0.29893 0.12936-0.20722 0.072006-0.11276 0.030678-0.099987 0.022-0.23466 0.035852-0.60788 0.063585-0.71008 0.12822-0.33073 0.04677-0.32298 0.033378-0.38934 0.028555-0.25272 0.030146-0.22148 0.054221-0.15191 0.058256-0.10722 0.057873-0.039405 0.044611-7.29e-4 -0.029531-0.02597-0.02988-0.074744-0.046248-0.075891-0.031731-0.089225-0.028706-0.19146-0.044872-0.33495-0.048095-0.61832-0.043587-1.1824-0.054078-0.34934 0.002228-0.44485 0.031001-0.26989 0.031797-0.46135 0.075017-0.34233 0.074416-0.26037 0.066776-1.6285 0.48109-0.35414 0.1257-0.36281 0.16494-0.22839 0.12947-0.21873 0.14796-0.23798 0.18869-0.15787 0.13764-0.80899 0.74806-0.2547 0.24697-0.19963 0.22347-0.14647 0.18938-0.13024 0.19162-0.18549 0.32564-0.099816 0.21441-0.099084 0.26205-0.077504 0.2638-0.13727 0.65237-0.082956 0.27912-0.04439 0.10442-0.053415 0.10177-0.073485 0.11326-0.082827 0.10449-0.15958 0.15993-0.20374 0.16037-0.82942 0.5625-0.2684 0.15783-0.19999 0.089738-0.13883 0.050117-0.15026 0.044085-0.19487 0.042748-0.52783 0.081257-0.1905 0.038179-0.26318 0.066378-0.39102 0.11182-0.29505 0.092687-0.32328 0.11976-0.3173 0.13256-0.62639 0.27734-0.223 0.089433-0.17811 0.061336-0.14881 0.041707-0.1299 0.027634-0.21377 0.024685-0.18341-0.002171-0.1746-0.022406-0.20917-0.049851-0.15828-0.052392-0.34166-0.14301-0.63653-0.31115-0.35472-0.16119-0.27862-0.10425-0.25341-0.071784-0.3085-0.057176-0.17949-0.016433-0.13806-0.003854-0.19963 0.007089-0.15125 0.013738-0.22383 0.031487-0.19894 0.039147-0.19092 0.048156-0.23301 0.072273-0.25163 0.091018-0.37784 0.15391-0.25415 0.11643-0.19693 0.10043-0.39413 0.23356-0.29852 0.20055-0.24261 0.18644-0.24042 0.21557-0.72146 0.71402-0.20668 0.17588-0.2294 0.15488-0.1365 0.072243-0.18316 0.080728-0.27018 0.10089-0.78104 0.26441-0.26894 0.10747-0.22984 0.10879-0.24259 0.1342-0.81169 0.50047-0.24339 0.15585-0.50303 0.34044-0.21975 0.13227-0.31418 0.16784-0.20368 0.095449-0.20369 0.078884-0.19896 0.058458-0.29881 0.062012-0.31416 0.044109-0.43594 0.040173-0.31944 0.018582-0.5243 0.015397-0.81885 0.045119-1.241 0.095356-0.78071 0.015327-0.79113-0.006931-0.35823 0.027383-0.24552 0.037438-0.25166 0.053725-0.35731 0.098761-0.86988 0.26471-0.28032 0.07506-0.2793 0.062182-0.26743 0.042501-0.24066 0.026093-1.1725 0.095574-0.042517-0.041533-0.05696-0.1194-0.058557-0.16906-0.051326-0.19853-0.037328-0.21397-0.017427-0.21963 0.008334-0.21837 0.04182-0.22976 0.0689-0.23181 0.14122-0.3984 0.035674-0.12044 0.028084-0.11819 0.024833-0.172 0.003124-0.1359-0.013716-0.14842-0.034831-0.17763-0.069351-0.28074-0.0234-0.14448-0.00646-0.15105 0.014076-0.14568 0.05338-0.27952 0.018097-0.13402-0.002135-0.12993-0.032148-0.12883-0.058125-0.12198-0.030537-0.048976-0.076521-0.10534-0.088875-0.10162-0.10015-0.094101-0.25205-0.18717-0.12478-0.10302-0.1152-0.1256-0.1007-0.14635-0.072684-0.13783-0.062886-0.14815-0.05519-0.15616-0.057285-0.18984-0.15785-0.59144-0.060711-0.19945-0.072354-0.19389-0.090534-0.18469-0.13616-0.20273-0.19807-0.23485-0.18958-0.19836-0.24472-0.24192-0.2384-0.20599-0.19855-0.13492-0.092374-0.050098-0.14119-0.06535-0.44613-0.16862-0.20081 0.019069-0.10367-0.001966-0.10636-0.013713-0.10329-0.029476-0.12213-0.064743-0.096124-0.076267-0.08849-0.089466-0.078287-0.093264-0.14396-0.20114-0.10652-0.16968-0.15042-0.26909-0.095161-0.19384-0.076715-0.17895-0.060743-0.16327-0.092316-0.28938-0.23048-0.81577-0.19627-0.65324-0.11398-0.33825-0.095102-0.238-0.16707-0.35892-0.19413-0.34707-0.20973-0.31296-0.17965-0.22939-0.033673-0.042957-0.012319-0.094707 0.018563-0.20987 0.055753-0.26365 0.084054-0.29209 0.10505-0.30176 0.21196-0.55868 0.062421-0.20818 0.073808-0.32371 0.059499-0.39017 0.089089-0.8968 0.048877-0.30614 0.087117-0.35643 0.4773-1.6454 0.22428-0.83289 0.10116-0.41697 0.088757-0.41475 0.070919-0.41039 0.0458-0.40344 0.009394-0.17406 9.73e-4 -0.13203-0.010346-0.21784-0.03116-0.25874-0.055855-0.27502-0.090418-0.30352-0.075397-0.19757-0.086323-0.19009-0.17206-0.30186-0.10838-0.15168-0.11856-0.13927-0.10916-0.10705-0.081588-0.068153-0.097983-0.069516-0.12418-0.070724-0.11636-0.051745-0.1247-0.043382-0.2248-0.05463-0.29607-0.038632-0.13165-0.008625-0.358-0.007042-0.72896 0.010185-0.33171-0.002482-0.50609-0.020713-0.29403-0.027379-0.23529-0.04419-0.11949-0.033038-0.1957-0.071665-0.13224-0.062169-0.15324-0.083739-0.25404-0.16452-0.15794-0.12018-0.19519-0.17229-0.14309-0.15066-0.18169-0.23517-0.12004-0.18435-0.10389-0.1782-0.10063-0.19389-0.16743-0.35192-0.093619-0.1745-0.15326-0.25092-0.18131-0.24644-0.19564-0.21418-0.079271-0.077103-0.40527-0.36789-0.24422-0.23379-0.18464-0.20756-0.074784-0.11416-0.051562-0.11912-0.025332-0.12449 2.24e-4 -0.10183 0.029915-0.15679 0.054039-0.15059 0.1406-0.27258 0.1897-0.3026 0.37356-0.55044 0.46864-0.66283 0.36224-0.50216 0.34343-0.455 0.41932-0.51203 0.17302-0.19218 0.28316-0.29453 0.28382-0.26329 0.19918-0.15852 0.15546-0.10803 0.15237-0.093221 0.18599-0.098679 0.22115-0.097492 0.17394-0.061878 0.14234-0.040972 0.23062-0.048166 0.32782-0.028548 0.29769 0.015642 0.58883 0.088117 0.29343 0.036037 0.29437 0.005785 0.2562-0.031485 0.25801-0.06225 0.26784-0.090225 0.36068-0.15476 0.36282-0.18484 0.36506-0.20699 0.73769-0.4567 1.1286-0.725 0.38188-0.23534 0.3834-0.22342 0.38268-0.20454 0.37791-0.17777 0.5781-0.23653 0.25564-0.12134 0.21869-0.14068 0.17831-0.17244 0.12375-0.18027 0.065014-0.16026-0.005004-0.1091 0.59802-2.4499 0.14979-0.54544 0.11472-0.33529 0.06617-0.15392 0.075031-0.14084 0.086934-0.12364 0.27422-0.27504 0.081481-0.10443 0.073677-0.11603 0.13072-0.25377 0.11595-0.26466 0.049617-0.12539 0.043428-0.14284 0.032525-0.14936 0.023027-0.15358 0.014157-0.15565 0.005123-0.15556-0.004902-0.15314-0.016821-0.14804-0.03163-0.13972-0.050407-0.12746-0.079615-0.12293-0.19181-0.21664-0.085128-0.10864-0.058787-0.11834-0.014674-0.060039-0.007883-0.093883 0.014628-0.19284 0.045034-0.27148 0.038929-0.1614-0.14091-0.041436-0.19712-0.085512-0.39291-0.20367-0.28285-0.16026-0.21565-0.13551-0.15776-0.11101-0.20087-0.16406-0.13472-0.12874-0.11921-0.1318-0.10678-0.13992-0.079026-0.12138-0.087708-0.15771-0.13107-0.29705-0.22539-0.62992-0.11549-0.27425-0.10006-0.19724-0.098719-0.1655-0.10386-0.14864-0.095937-0.11811-0.18635-0.19573-0.22332-0.19274-0.17227-0.12406-0.65857-0.4346-0.19787-0.14679-0.1256-0.10758-0.16148-0.16236-0.34483-0.38593-0.17601-0.1819-0.36895-0.36022-0.45869-0.41517-0.42472-0.444-0.21724-0.20365-0.17106-0.13478-0.18697-0.12971-0.41636-0.25336-0.18024-0.11866-0.26304-0.20068-0.23791-0.21456-0.26484-0.27894-0.21737-0.25694-0.22556-0.29495-0.19726-0.28736-0.20585-0.3394-0.15298-0.28394-0.1087-0.25788-0.028627-0.094089-0.005339-0.035101 0.00841-0.01513-0.012551-0.029341-0.051075-0.041364-0.10122-0.060533-0.18536-0.096364-0.35113-0.15608-0.37841-0.1365-0.24247-0.070136-0.26068-0.051571-0.2742-0.028967-0.23589-0.010107-0.37982 0.009638-0.31651 0.032839-1.3347 0.17626-1.6566 0.23844-0.24288 0.017552-0.15966 0.003359-0.57776-0.003174-0.16002 0.00505-0.16668 0.023835-0.10803 0.044842-0.066013 0.050723-0.050584 0.060226-0.078069 0.15359-0.042773 0.13768-0.022124 0.096403-0.030655 0.19021-0.014424 0.17679 7.06e-4 0.20958 0.029857 0.26652 0.066173 0.27687 0.12052 0.40234 0.052887 0.21041 0.031219 0.1954 0.007567 0.12138-0.00982 0.28259-0.0609 0.57212-0.070495 0.76259-0.047522 0.30567-0.059451 0.23101-0.093383 0.2495-0.060889 0.12419-0.064703 0.11181-0.10392 0.1488-0.063211 0.076134-0.10431 0.10744-0.080038 0.070159-0.1006 0.076143-0.10908 0.070109-0.11677 0.063088-0.18949 0.080247-0.14876 0.046044-0.13782 0.02984-0.13957 0.015468-0.11747 0.001515-0.18896-0.014275-0.27962-0.049362-0.22054-0.062503-0.27492-0.10237-0.3831-0.17054-0.31068-0.15521-0.2722-0.15005-0.53511-0.32155-0.32674-0.17228-0.28242-0.124-0.19183-0.06411-0.12592-0.033586-0.17791-0.03659-0.15516-0.022025-0.35948-0.023657-0.65483 0.006856-0.75516 0.036226-0.28334-0.005503-0.10615-0.011247-0.17445-0.036652-0.088638-0.030899-0.1001-0.047391-0.14531-0.090885-0.33058-0.24564-0.12851-0.076979-0.18479-0.081877-0.40467-0.15435-0.12756-0.06619-0.095603-0.062022-0.11356-0.089929-0.12824-0.11981-0.28977-0.29402-0.23794-0.22491-0.23688-0.19724-0.35268-0.24943-0.85176-0.54333-0.88299-0.5965-0.21178-0.17306-0.15196-0.15176-0.17337-0.20761-0.3122-0.41751-0.24773-0.31088-0.22295-0.25405-0.1751-0.16982-0.13634-0.10671-0.094403-0.058178-0.11572-0.050983-0.1108-0.021896-0.051129 0.004737-0.047913 0.02446-0.023137 0.035023 0.007855-0.045389 0.00338-0.11169-0.009965-0.5409-0.065956-0.90402-0.008043-0.32962 0.010797-0.2418 0.045368-0.37882 0.087099-0.50348 0.10187-0.49753 0.60399-2.6725 0.21098-0.96461 0.41813-2.0454 0.10155-0.52486 0.078406-0.48099 0.05024-0.41914 0.10981-1.4064-0.042697 0.019294-0.08101-0.01357-0.10173-0.045741-0.10938-0.072553-0.057563-0.047664-0.15294-0.16018-0.11262-0.14426-0.11717-0.16719-0.18708-0.29276-0.18277-0.31795-0.10828-0.20583-0.14972-0.3091-0.19101-0.45073-0.12985-0.36082-0.10021-0.31385-0.30902-1.1099-0.10696-0.34029-0.087122-0.22813-0.14017-0.32642-0.47764-1.0318-0.1343-0.31469-0.16751-0.42268-0.1996-0.56807-0.42667-1.364-0.20255-0.58848-0.08289-0.22079-0.20998-0.49902-0.1061-0.22064-0.18296-0.34031-0.1309-0.2252-0.28092-0.45642-0.35658-0.54129-0.39389-0.63658-0.12868-0.1824-0.13809-0.16509-0.094348-0.091313-0.11576-0.087126-0.11387-0.064664-0.12555-0.053288-0.115-0.035119-0.32209-0.063972-0.35732-0.030433-0.13168-0.017983-0.19102-0.045275-0.13595-0.049747-0.10019-0.062364-0.07596-0.079634-0.051089-0.085031-0.019932-0.059168 0.001558-0.071025 0.02459-0.068348 0.010447-0.14753-1.77e-4 -0.28541-0.019178-0.33801-0.037621-0.33116-0.06394-0.36142-0.26705-1.1918-0.068914-0.3827-0.057071-0.38326-0.082644-0.69448-0.030951-0.34181-0.026745-0.41088-0.010718-0.40083 0.006934-0.31526 0.025479-0.30534 0.020303-0.14251 0.021184-0.11561 0.092843-0.3498 0.13187-0.32184 0.17292-0.28638 0.21915-0.24105 0.18858-0.13992 0.2112-0.11596 0.2944-0.1204 0.31635-0.096856 0.28164-0.068142 0.29041-0.058315 0.6028-0.097285 1.5668-0.2091 0.62112-0.10245 0.2714-0.058722 0.26191-0.072605 0.24991-0.091912 0.29589-0.1498 0.31176-0.2106 0.24749-0.20848 0.23115-0.23349 0.15473-0.18573 0.13142-0.18807 0.128-0.2261 0.22413-0.45717 0.29114-0.55566 0.10083-0.24346 0.35795-1.0088 0.1102-0.27428 0.098806-0.22414 0.19452-0.38079 0.35712-0.60283 0.20652-0.3833 0.11984-0.2797 0.10597-0.28912 0.2289-0.67967 0.098195-0.26041 0.11503-0.25876 0.15232-0.28075 0.17516-0.27565 0.21872-0.30731 0.19099-0.25019 0.71664-0.90969 0.090349-0.12892 0.072486-0.11818 0.022863-0.077843 0.062338-0.1048 0.050784-0.23555 0.027657-0.31373-0.00927-0.355-0.059542-0.37074-0.096424-0.31418-0.12876-0.31251-0.40246-0.85932-0.11073-0.2634-0.12749-0.33476-0.10559-0.31016-0.10317-0.34223-0.11092-0.4467-0.053197-0.29325-0.041782-0.39577-0.006927-0.1356 0.001528-0.4525 0.021068-0.28866 0.028816-0.20334 0.069282-0.31404 0.08877-0.28806 0.13357-0.34986 0.49339-1.1407 0.22989-0.58007 0.13337-0.39019 0.1072-0.35227 0.26698-0.98237 0.089723-0.29715 0.092755-0.25492 0.11657-0.24421 0.060433-0.095447 0.065245-0.079752 0.10506-0.087452 0.17224-0.067568 0.156-0.013316 0.16191 0.017783 0.16562 0.044932 0.12098 0.04882 0.25647 0.13367 0.20662 0.093354 0.21206 0.056569 0.20547-0.006623 0.13085-0.054238 0.11717-0.093703 0.087421-0.10836 0.085494-0.14765 0.070073-0.16832 0.050619-0.16576 0.32343-1.4382 0.10006-0.55614 0.012862-0.13767-0.004519-0.030908 0.12639-0.097309 0.016373-0.023871 0.028146-5e-5 0.044152 0.025478 0.051765 0.048376 0.13292 0.17382 0.32958 0.51632 0.088736 0.12132 0.092886 0.10348 0.099636 0.078956 0.059191 0.031149 0.10451 0.035407 0.10687 0.018602 0.10847 0.007069 0.19272-0.004861 0.084218-0.016302 0.067613-0.027763 0.091773-0.05685 0.14021-0.11065 0.10392-0.092879 0.11875-0.12326 0.4715-0.56772 0.66639-0.85526 0.21874-0.26986 0.17436-0.1962 0.20338-0.21018 0.39372-0.37208 0.40139-0.34993 0.39454-0.32512 0.68066-0.53856 0.11405-0.10493 0.089148-0.11647 0.16199-0.25642 0.14229-0.24987 0.29843-0.5589 0.29654-0.49109 0.12136-0.2334 0.28809-0.62644 0.10307-0.20373 0.27005-0.47072 0.17736-0.32982 0.21951-0.45444 0.13432-0.29709 0.12717-0.31175 0.2458-0.64665 0.18375-0.42399 0.1761-0.34967 0.3989-0.72947 0.1236-0.24692 0.093574-0.20899 0.17774-0.47181 0.06272-0.19918 0.047504-0.19054 0.029687-0.16464 0.018442-0.15576 0.028468-0.42693 0.023084-0.23172 0.04098-0.23622 0.06973-0.29775 0.05517-0.21074 0.054855-0.17457 0.069382-0.1707 0.12102-0.25504 0.053756-0.13259 0.022119-0.086533 8.42e-4 -0.024003-0.00788-0.016261-0.066637-0.14694-0.16078-0.31636-0.34446-0.59508-0.13357-0.25215-0.11202-0.26482-0.076064-0.24621-0.04245-0.19238-0.031018-0.21291-0.036459-0.57353-0.077859-0.83777-0.041337-0.34741-0.039774-0.23748-0.050937-0.22775-0.055717-0.20222-0.25578-0.75306-0.14647-0.56518-0.041517-0.13229-0.1187-0.27221-0.1159-0.20631-0.31865-0.48579-0.39152-0.63495-0.086988-0.18894-0.021402-0.085732-0.00979-0.11465 0.011193-0.15068 0.016631-0.099679 0.06627-0.31764 0.065193-0.24821 0.45323-1.5844 0.28224-0.8873 0.19308-0.67533 0.38834-1.2848 0.10097-0.37214 0.099143-0.41449 0.17592-0.86905 0.15563-0.90604 0.21398-1.4015 0.28922-2.0331-0.55636-0.2567-0.6788-0.294-0.76185-0.3093-0.77117-0.29861-1.1309-0.4247-3.5614-1.3134-3.8685-1.4393-2.1654-0.80943-1.5104-0.57462-0.77352-0.30495-0.75907-0.3156-0.35605-0.1578-0.65699-0.31519-0.20422-0.089667-0.055575-0.075357-0.04209-0.22385-0.025007-0.32162-0.010223-0.38333 0.011408-0.86096 0.03745-0.90301 0.080917-1.3399 0.067403-0.89267 0.082455-0.89016 0.10526-0.8524 0.066427-0.40849 0.079758-0.39349 0.097261-0.37508 0.11536-0.36787 0.099637-0.3494 0.089841-0.36306 0.15769-0.75488 0.07038-0.38729 0.12695-0.78664 0.12582-0.90398 0.053491-0.43513 0.086047-0.86169 0.054609-0.85279 0.017773-0.72949-0.003615-0.30243-0.015858-0.37599-0.060939-0.75392-0.08606-0.75803-0.10974-0.78298-0.11012-0.61019-0.15321-0.73485-0.53307-2.3223-0.17108-0.78426-0.21992-1.0931-0.10219-0.58237-0.010267-0.098042-0.40593-3.2287-0.11984-1.3869-0.28353-2.9708-0.08825-0.85263-0.19224-1.7597-0.13809-1.173-0.15491-1.1592-0.1192-0.81045-0.12982-0.80295-0.071364-0.39698-0.078082-0.39238-0.087558-0.38594-0.10079-0.377-0.11905-0.3647-0.14392-0.34798-0.21273-0.37972-0.11999-0.16427-0.24778-0.27522-0.2791-0.25244-0.30258-0.23503-0.42362-0.29071-0.72823-0.45508-0.74938-0.44409-3.3421-1.9269-0.72478-0.42369-0.74422-0.44716-1.5507-0.96605-3.3717-2.1476-0.031861-0.35653-0.19748-1.689-0.46144-3.697-0.046018-0.44822-0.03518-0.43872-0.019541-0.42742 0.002602-0.41339 0.03348-0.3954 0.075954-0.37189 0.13365-0.34094 0.19491-0.29361 0.24808-0.26549 0.28692-0.2448 0.31496-0.22967 0.33495-0.21864 0.34903-0.21053 0.35881-0.20444 0.36553-0.19961 0.74326-0.38697 0.75198-0.36952 0.97452-0.4588 0.37289-0.17268 0.37278-0.16259 0.82866-0.32529 0.3332-0.14199 0.31511-0.16113 0.28904-0.1927 0.174-0.15106 0.16124-0.16786 0.13995-0.16772 0.13237-0.17781 0.19989-0.30414 0.18662-0.32098 0.17641-0.33345 0.3304-0.69148 0.3079-0.70932 0.42415-1.0504 0.15551-0.35848 0.25263-0.53323 0.27674-0.53666 0.23159-0.41681 0.25519-0.43456 0.11729-0.17734 0.10998-0.13625 0.12553-0.1259 0.27341-0.20065 0.31595-0.1682 0.34489-0.14615 0.36237-0.13273 0.73733-0.25466 0.34442-0.13115 0.32393-0.14514 0.29255-0.16665 0.24819-0.1972 0.16858-0.19526 0.34509-0.52661 0.72452-1.0015 0.27964-0.41684 0.25644-0.42737 0.19492-0.34102 1.2004-2.1809 0.4308-0.7274 0.22921-0.35353 0.24329-0.3418 0.26259-0.3248 0.3317-0.34049 0.33814-0.27984 0.36772-0.25956 0.39159-0.2453 0.4109-0.23551 0.42626-0.22882 0.8815-0.44322 1.8815-0.88729 0.095381-0.054416 0.043262-0.10924 0.18516-0.57392 0.28498-0.92914 0.16595-0.6042 0.20317-0.79475 0.090168-0.28679 0.14622-0.34615 0.1795-0.32509 0.20744-0.30236 0.23175-0.27697 0.25416-0.24768 0.31388-0.24276 0.32953-0.207 0.70015-0.39343 0.16731-0.10934 0.59463-0.41316 0.18617-0.11781 0.27786-0.15524 0.29045-0.14188 0.35348-0.15282 0.37221-0.14531 0.37871-0.13604 0.38257-0.12663 0.38411-0.11596 0.38349-0.10282 0.38063-0.085814 0.37528-0.063326 0.2131-0.023537 0.20962-0.012028 0.3227 0.004148 0.1389 0.008918 0.26866 0.032135 0.25878 0.049925 0.18221 0.046958 0.24573 0.081494 0.099135 0.040984 0.21585 0.11383 0.19152 0.13788 0.12921 0.12047 0.14411 0.16396 0.25943 0.35713 0.40587 0.59143 0.20383 0.25799 0.090822 0.097018 0.10851 0.099136 0.22336 0.15925 0.25056 0.14272 0.22716 0.10474 0.22957 0.079716 0.2992 0.072903 0.28986 0.052482 0.20202 0.025553" clip-path="url(#pe841a6791b)"/>
   </g>
  </g>
 </g>
 <defs>
  <clipPath id="pe841a6791b">
   <rect x="7.2" y="7.2" width="202.32" height="266.11"/>
  </clipPath>
 </defs>
</svg>
