<?xml version="1.0" encoding="UTF-8"?>
<!DOCTYPE svg  PUBLIC '-//W3C//DTD SVG 1.1//EN'  'http://www.w3.org/Graphics/SVG/1.1/DTD/svg11.dtd'>
<svg width="256.33pt" height="280.51pt" version="1.1" viewBox="0 0 256.33 280.51" xmlns="http://www.w3.org/2000/svg" xmlns:xlink="http://www.w3.org/1999/xlink">
 <metadata>
  <rdf:RDF xmlns:cc="http://creativecommons.org/ns#" xmlns:dc="http://purl.org/dc/elements/1.1/" xmlns:rdf="http://www.w3.org/1999/02/22-rdf-syntax-ns#">
   <cc:Work>
    <dc:type rdf:resource="http://purl.org/dc/dcmitype/StillImage"/>
    <dc:date>2024-07-04T12:10:27.932743</dc:date>
    <dc:format>image/svg+xml</dc:format>
    <dc:creator>
     <cc:Agent>
      <dc:title>Matplotlib v3.7.1, https://matplotlib.org/</dc:title>
     </cc:Agent>
    </dc:creator>
   </cc:Work>
  </rdf:RDF>
 </metadata>
 <defs>
  <style type="text/css">*{stroke-linejoin: round; stroke-linecap: butt}</style>
 </defs>
 <g id="figure_1">
  <g id="patch_1">
   <path d="m0 280.51h256.33v-280.51h-256.33v280.51z" fill="none"/>
  </g>
  <g id="axes_1">
   <g id="PatchCollection_1">
    <defs>
     <path id="md2cf092f35" d="m196.92-174.2-0.33439 0.042993-0.16162 0.003011-0.1005-0.014848-0.022299-0.015571-0.10481 0.10472-0.030758 0.17267 0.003821 0.23408 0.018617 0.16342 0.079973 0.38844 0.17788 0.57093 0.13211 0.34463 0.16039 0.3649 0.33777 0.66998 1.1931 2.1599 0.99327 1.9133 0.41137 0.86904 0.34185 0.77954 0.5142 1.2988 0.31976 0.94536 0.49387 1.5901 0.16192 0.55951 0.16356 0.64364 0.11031 0.53484 0.074309 0.49862 0.030787 0.34545 0.009854 0.34836-0.006451 0.17887-0.032743 0.27396-0.075762 0.27726-0.11953 0.2427-0.12226 0.17564-0.18612 0.2123-0.58677 0.56889-0.18306 0.21331-0.14247 0.2272-0.092701 0.23404-0.063656 0.25707-0.19699 1.3905-0.1295 0.48496-0.15161 0.3559-0.35277 0.55357-0.44743 0.52894-0.42753 0.43472-0.55207 0.48966-0.55466 0.42709-0.50975 0.35693-0.62501 0.40176-1.8363 1.0251-0.30825 0.1933-0.3401 0.25653-0.13852 0.12972-0.2461 0.29642-0.21834 0.40648-0.1423 0.42761-0.061968 0.28081-0.042869 0.43352 0.019417 0.94201-0.011048 0.29431-0.028244 0.29982-0.11488 0.85698-0.034903 0.4935 0.043675 0.32817 0.062867 0.16127 0.10124 0.169 0.11707 0.14373 0.19028 0.18587 0.44705 0.34904 0.72376 0.51479 0.24381 0.19063 0.31826 0.27427 0.55887 0.5439 0.32708 0.34838 0.56532 0.65244 0.56661 0.742 0.3046 0.44884 0.34227 0.57296 0.15004 0.28812 0.19888 0.42666 0.24279 0.60176 0.21777 0.63817 0.1676 0.58449 0.19303 0.8342 0.079977 0.42852 0.079602 0.5419 0.070959 0.66091 0.058597 1.0758-0.005081 1.2269-0.038256 0.75952-0.041458 0.47329-0.15111 1.145-0.18503 1.0105-0.21599 0.89437-0.49062 1.7535-0.16086 0.68993-0.13045 0.6592-0.16489 0.98082-0.11368 0.85061-0.0577 0.65872-8.29e-4 0.27291 0.024452 0.070373-0.009746 0.028218 0.030541 0.07607 0.15687 0.16169 0.14775 0.11152 0.71154 0.46508 0.34061 0.23834 0.30488 0.25181 0.24214 0.23193 0.43643 0.46735 0.16508 0.19865 0.96444 1.2543 0.45696 0.68719 0.24348 0.39006 0.28805 0.50135 0.7809 1.4695 0.6845 1.3471 0.41766 0.74534 0.38891 0.63125 0.77908 1.1837 0.18574 0.26659 0.26396 0.30488 0.22921 0.21171 1.7232 1.4685 0.48738 0.3956 0.27412 0.19881 0.29118 0.16935 0.34623 0.15063 1.0616 0.38371 0.59612 0.25058 0.49759 0.25825 0.44638 0.30104 0.91755 0.71903 0.9817 0.68005 0.29599 0.22829 0.24057 0.22125 0.12438 0.1456 0.080081 0.12474 0.01824 0.12138 0.012725 0.031984-0.015012 0.035645-0.15554 0.15427-0.27967 0.20772-0.77884 0.51884-0.737 0.43689-1.9951 1.1134-0.44554 0.26537-0.5156 0.33471-0.36008 0.26239-0.41488 0.35419-0.21571 0.22512-0.30718 0.4113-0.26146 0.4329-0.26266 0.47186-0.2331 0.48952-0.17421 0.51484-0.099501 0.58771-0.036258 0.61229-0.029247 1.2463-0.061789 0.61026-0.099002 0.46218-0.15058 0.43831-0.29711 0.5699-0.6954 1.0554-0.17443 0.29614-0.78279 1.4198-0.14774 0.35082-0.084138 0.23706-0.15087 0.48308-0.066801 0.31662-0.021126 0.46342 0.083208 1.0152-0.029084 0.39937-0.10311 0.26157-0.14266 0.19413-0.448 0.47993-0.27184 0.35193-0.23009 0.41687-0.09957 0.27696-0.081172 0.33253-0.07697 0.49697-0.10358 0.86785-0.063176 0.37308-0.44758 1.7484-0.16318 0.79492-0.047332 0.42221-0.009157 0.24567 0.034645 0.50597 0.1065 0.49681 0.13794 0.39728 0.27566 0.63052 0.18749 0.38439 0.59252 1.1171 0.30375 0.60752 0.3961 0.87708 0.17016 0.41453 0.24693 0.6619 0.20907 0.63509 0.18398 0.64582 0.15339 0.65819 0.11509 0.66961 0.076595 0.74227 0.040338 0.75125 0.049607 1.5113 0.047959 0.74747 0.089195 0.73025 0.1208 0.61279 0.15085 0.58486 0.52118 1.7843 0.08631 0.32651 0.047796 0.24202-0.005842 0.15543-0.070487 0.58536-0.07745 1.0039-0.093466 0.60734-0.10943 0.36428-0.045949 0.11061-0.075561 0.1542-0.22126 0.34959-0.27306 0.31891-0.26489 0.24157-0.17155 0.13375-0.22903 0.15622-0.34111 0.19792-0.81997 0.45097-0.32686 0.21829-0.58022 0.45076-0.43252 0.37918-0.22736 0.21836-0.46255 0.50642-0.23219 0.29359-0.23837 0.33278-0.21328 0.33026-0.18242 0.3179-0.10379 0.20461-0.17792 0.4245-0.12079 0.41135-0.065397 0.40235-0.010733 0.31609 0.077224 0.56056 0.12034 0.39191 0.1747 0.4014 0.29026 0.50291 0.34666 0.48444 0.37279 0.4394 0.48811 0.50935 0.34743 0.41936 0.3116 0.44392 0.24935 0.41192 0.11621 0.22021 0.13108 0.30723 0.094572 0.31319 0.058473 0.39486-0.0223 0.38388-0.15523 0.46654-0.52295 0.95265-0.18139 0.36472-0.914 1.9284-1.7167 3.6886-0.74454 1.559-7.0826 14.511-1.3792 0.43456-1.9746 0.64478-0.90475 0.27876-0.87128 0.23296-2.5748 0.65212-0.6133 0.19543-0.34642 0.13495-0.51675 0.22902-1.0356 0.50098-0.37184 0.20743-1.0427 0.63849-0.4197 0.21787-0.15118 0.050767-0.12712 0.026997-0.13941 0.01128-0.13323-0.00863-0.13469-0.02939-0.16246-0.066135-0.14387-0.091007-0.12984-0.11283-0.11161-0.1258-0.17067-0.26388-0.17539-0.40633-0.13452-0.46355-0.10177-0.50547-0.07479-0.53557-0.05152-0.57627-0.1049-2.4765-0.066582-1.0749-0.06018-0.64777-0.089353-0.63408-0.07713-0.38634-0.091206-0.35302-0.17421-0.52983-0.4296-1.1655-0.23902-0.58698-0.25809-0.57291-0.27943-0.54168-0.3013-0.48896-0.19544-0.26869-0.28883-0.35417-0.26245-0.26556-0.20773-0.13363-0.072273-0.003031-0.036169 0.045673-0.76895-1.7298-0.48328-1.0003-0.53248-0.9656-0.51468-0.84826-0.39274-0.60108-0.88942-1.3012-1.0309-1.5965-0.4355-0.6442-0.67988-0.91264-1.6214-2.0975-0.62884-0.8567-0.28914-0.43615-0.21506-0.38382-0.28806-0.63292-0.17971-0.5027-0.43162-1.3401-0.39424-1.1233-0.17392-0.54996-0.19313-0.70271-0.1072-0.49491-0.068609-0.5005-0.018605-0.47939 0.059148-1.0969-0.004054-0.25728-0.051522-0.64654-0.1866-1.4328-0.078116-0.77884-0.064391-1.1301-0.001849-0.87662 0.021517-0.42666 0.073981-0.68802 0.10963-0.60193 0.12788-0.49879 0.085229-0.26019 0.17038-0.42483 0.19121-0.41476 0.24786-0.51222 0.62844-1.2293 0.27372-0.60984 0.14323-0.3757 0.10194-0.3359 0.068714-0.30292 0.064788-0.38411 0.050511-0.45799 0.035483-0.52892 7.14e-4 -0.75265-0.036448-0.79809-0.078476-0.85502-0.11475-0.88483-0.15796-0.94642-0.12958-0.63293-0.19715-0.83124-0.16804-0.64235-0.18153-0.64954-0.14884-0.4766-0.18728-0.50884-0.77599-1.7358-0.17706-0.29449-0.17523-0.23181-0.6737-0.78333-0.25536-0.37747-0.2527-0.42972-0.38774-0.69481-0.70926-1.3341-1.23-2.4394-0.68818-1.3197-0.36343-0.63974-0.3843-0.62466-0.53702-0.78481-0.40752-0.52556-0.58784-0.68464-0.65974-0.70617-0.27462-0.31404-1.7079 1.4129-1.4734 1.1595-2.0359 1.5465-0.96638 0.69394-0.44456 0.30383-0.80963 0.51844-0.45805 0.27151-0.93004 0.51319-2.0832 1.0889-0.9348 0.50868-2.5775 1.4704-1.0234 0.61031-0.84749 0.54578-0.88637 0.59851-0.7412 0.52176-1.0218 0.74723-1.0669 0.82955-1.4979 1.2562-0.58058 0.44169-0.29289 0.19194-0.21897 0.12472-0.26456 0.12532-0.25811 0.091181-0.24028 0.052343-0.22127 0.015114-0.23324-0.025788-0.46682-0.20828-0.42943-0.37741-0.20574-0.2419-0.34333-0.49043-0.32346-0.55483-0.30753-0.6021-0.29427-0.6363-0.29593-0.69205-0.56271-1.4293-0.48144-1.3077-0.80282-2.2534-0.32058-1.0152-0.66828-2.3406-0.63358-2.1021-0.53042-1.619-0.26427-0.7511-0.26725-0.71097-0.23904-0.58091-0.24233-0.51718-0.24713-0.43053-0.25393-0.31438-0.26336-0.16055-0.12719-0.010472-0.14944 0.040049-0.11721 0.064293-0.22103 0.17987-0.27845 0.30482-0.17283 0.22308-0.51252 0.74566-0.24066 0.30506-0.26966 0.28049-0.41792 0.35405-0.46773 0.32512-0.55334 0.31934-0.60712 0.29083-0.58216 0.23113-0.45322 0.14897-0.49751 0.12917-0.48433 0.08431-0.31561 0.030179-0.38557 0.010637-1.4205-0.0399-0.28474 0.017437-0.49436 0.076322-0.28186 0.072135-0.55001 0.2076-0.38505 0.20718-0.39596 0.28224-0.39634 0.37754-0.3673 0.47394-0.31584 0.56229-0.24559 0.61044-0.17536 0.59759-0.11759 0.51933-0.28208 1.6041-0.061548 0.28742-0.065982 0.21958-0.068199 0.071883-0.055542 0.071502-0.17173 0.13178-1.0312 0.65503-0.60814 0.44836-0.47841 0.31458-0.40048 0.31046-0.20131 0.11581-0.40675 0.18542-0.10521 0.070129-0.12246 0.11544-0.078372 0.10926-0.086948 0.21045-0.13632 0.63101-0.24933 0.75886-0.03616 0.16586-0.042434 0.32932-0.058851 0.18413-0.13331 0.26368-0.14706 0.22515-0.087048 0.10755-0.06221-0.052027-0.16902-0.067143-0.26624-0.079674-0.3083-0.074169-0.46322-0.086111-0.32349-0.044681-0.47766-0.044581-0.69031-0.024024-0.78284 0.025503-0.55215 0.058764-0.34738 0.055838-0.59969 0.12905-0.8232 0.23789-0.75395 0.26983-0.82535 0.33936-2.3689 1.093-2.4484 1.0883-1.1375 0.44134-2.6451 0.93304-0.41253 0.15945-0.40226 0.17572-0.29172 0.16924-0.21669 0.18891-0.13843 0.16064-0.42198 0.58389-0.29206 0.35209-0.39193 0.379-0.34881 0.27997-0.37179 0.22847-0.40214 0.18637-0.42872 0.15098-0.73403 0.2237-1.5123 0.51574-0.72411 0.19394-1.1451 0.24233-1.6422 0.32579-0.48596 0.061982-0.94265 0.031155-0.2258 0.025503-0.35326 0.076494-0.52941 0.18634-1.7223 0.73629-0.32298 0.16812-0.4062 0.25658-0.31511 0.23971-0.4167 0.38298-0.46551 0.50894-0.97963 1.2362-0.3862 0.45158-0.47589 0.4852-0.88049 0.82155-0.20979 0.21445-0.22136 0.2588-0.27797 0.38789-0.20374 0.40358-0.094125 0.25856-0.069509 0.255-0.11232 0.68243-0.047369 0.18377-0.073765 0.17065-0.12416 0.17527-0.18431 0.16312-0.23355 0.13995-0.21438 0.097218-0.24152 0.088574-0.46725 0.13074-0.6449 0.11677-0.29965 0.033711-0.48406 0.029336-0.68862-0.01172-0.32065-0.027774-0.50592-0.074138-0.28602-0.059069-0.48198-0.12736-0.58878-0.19895-0.3442-0.13853-0.3134-0.14202-0.50344-0.2657-0.53498-0.34684-0.38918-0.30692-0.38602-0.36022-0.4212-0.4676-0.4156-0.55009-0.44646-0.70842-0.22512-0.4133-0.33216-0.70339-0.22423-0.56544-0.14187-0.42012-0.11172-0.39396-0.11513-0.5848-0.013807-0.28083 0.049405-0.098348 0.045076-0.014756 0.095187-0.097761 0.26105-0.34884 0.18388-0.29454 0.21683-0.40046 0.19797-0.41996 0.20961-0.50743 0.2244-0.62672 0.16816-0.53959 0.18771-0.70148 0.16796-0.77657 0.11468-0.70369 0.058838-0.51481 0.03431-0.50806 0.007246-0.48911-0.042722-0.705-0.037913-0.28159-0.098861-0.48895-0.14642-0.49039-0.21683-0.52846-0.32017-0.58302-0.35582-0.50022-0.30948-0.35293-0.30086-0.2893-0.38133-0.31071-0.40352-0.28086-0.3921-0.24396-1.7503-1.0247-1.1922-0.77116-0.59593-0.415-0.48025-0.35129-0.60956-0.47156-0.47471-0.39608-0.44188-0.40158-0.346-0.34419-0.30241-0.32716-0.28787-0.33878-0.32606-0.42319-0.29946-0.43322-0.20461-0.32617-0.45571-0.82548-0.3201-0.64907-0.83941-1.7816-0.2824-0.62367-0.21137-0.50753-0.17912-0.4862-0.22059-0.74543-0.12373-0.59138-0.070904-0.56782-0.015202-0.30832 0.016459-0.48161 0.042614-0.33584 0.065212-0.32563 0.074497-0.285 0.42898-1.3277 0.11309-0.38879 0.19922-0.82366 0.074668-0.40674 0.057595-0.41104 0.050311-0.6079 0.008781-0.59402-0.038319-0.65825-0.070644-0.5339-0.12783-0.61109-0.147-0.51131-0.228-0.61964-0.16004-0.36364-0.17602-0.35426-0.25501-0.44846-0.35406-0.52417-0.32936-0.41119-0.20396-0.22901-0.98272-1.0224-0.37917-0.43456-0.30742-0.41692-0.124-0.20295-0.12502-0.24318-0.089419-0.21572-0.086142-0.2791-0.047236-0.2491-0.014684-0.17546 0.005518-0.20416 0.063297-0.3127 0.13063-0.34693 0.20747-0.45337 0.10116-0.29436 0.018881-0.11774 0.003915-0.16054-0.012011-0.1115-0.041359-0.16787-0.038381-0.099644-0.094198-0.17222-0.17796-0.20385-0.41786-0.36176-0.10661-0.14535-0.057102-0.13644-0.028836-0.20793 0.002855-0.11528 0.018456-0.1669 0.11233-0.5553 0.024331-0.18672-0.005094-0.093844-0.041352-0.08565-0.069263-0.036038-0.26046 0.027482-0.36124 0.13669-0.44384 0.2187-0.43191 0.23968-0.46539 0.2772-0.87664 0.56155-0.68734 0.47265-0.50629 0.36784-0.81044 0.62437-2.0532 1.6753-2.2659 1.8785-0.51394 0.40786-0.9064 0.68127-0.39191 0.2747-0.70097 0.45159-0.64585 0.36189-0.38153 0.18463-0.65186 0.25894-0.32784 0.10414-0.66105 0.16579-0.46288 0.087055-0.57159 0.081017-0.66394 0.064209-0.55297 0.026632-0.46067 5.52e-4 -0.38695-0.01581-0.33057-0.025085-1.8856-0.20919-2.1838-0.36271-0.67711-0.15203-0.46651-0.14557-0.44059-0.18586-0.22701-0.12134-0.46762-0.31008-0.41383-0.38151-0.39537-0.55039-0.31654-0.64167-0.2591-0.70827-0.21788-0.75631-0.18879-0.79063-0.32347-1.6472-0.28479-1.6984-0.39054-2.5992-0.22905-1.7574-0.095505-0.88432-0.07424-0.88614-0.043296-0.88489-0.006317-0.47004 0.008225-0.47518 0.032368-0.55522 0.035775-0.35641 0.10906-0.71719 0.31696-1.4419 0.077489-0.40605 0.049084-0.43783-0.013356-0.52283-0.083632-0.44396-0.12807-0.32045-0.15433-0.13541 3.4904-1.8134 0.97257-0.53219 1.0774-0.61934 1.6014-0.95838 1.3294-0.81982 0.90017-0.58346 1.8873-1.2622 1.1776-0.74526 1.1003-0.66286 3.0693-1.8004 1.5647-0.96293 5.1186-3.2965 2.1034-1.3115 2.2333-1.4667 1.8975-1.2797 2.4791-1.701 3.698-2.4561 1.1445-0.79748 1.2388-0.91637 0.43766-0.30558 5.0003-3.099 1.673-1.0126 1.542-0.96404 3.0975-2.0027 5.0883-3.3471 11.489-7.6171 2.7801-1.859 2.0548-1.3943 1.3526-0.94179 1.2641-0.91432 1.1774-0.8836 2.1411-1.6376 0.68772-0.50503 1.0923-0.76028 2.18-1.4559 3.6939-2.6641 2.0348-1.4306 0.87393-0.5697 0.79411-0.46728 0.63971-0.34895 1.2498-0.64018 0.6081-0.33618 0.83122-0.50524 0.98726-0.66362 0.64183-0.46778 1.045-0.81082 1.0386-0.87751 0.51039-0.4689 0.48491-0.48056 0.44307-0.48338 0.73172-0.86487 0.55872-0.58451 0.65236-0.58909 0.35264-0.28457 0.614-0.445 0.63192-0.393 0.64398-0.32808 0.24876-0.10506 0.48516-0.17257 0.35226-0.10479 0.87347-0.21182 0.3635-0.10143 0.3022-0.10726 0.26789-0.12221 0.50119-0.31104 0.99386-0.7482 0.28746-0.19205 0.49734-0.28331 0.57693-0.26361 0.58106-0.21953 0.8697-0.3019 0.52953-0.21364 1.178-0.53615 1.1732-0.5798 1.2146-0.64801 1.3679-0.7815 1.5355-0.92592 1.288-0.80632 0.79059-0.48705 3.4662-2.0565 2.4784-1.4085 1.411-0.82053 2.8319-1.6884 3.4563-2.0892 3.1431-1.8514 4.147-2.4049 2.79-1.5774 1.4442-0.86474 0.27541-0.18597 0.094457-0.079215 1.3592-0.82564 1.6447-1.0475 1.8104-1.1998 3.1687-2.1371 3.3874-2.2114 2.647-1.6749 6.0624-3.7813 5.3743-3.4329 1.31-0.85686 3.563-2.3786 2.3526-1.5162 4.9728-3.2576 1.6152-1.096 2.2188-1.574 1.9964-1.4513 1.7972-1.3746 1.4155-1.1398 1.9932-1.6601 1.0097-0.87272 0.97627-0.89255 1.8262-1.8035 0.72987-0.69731 0.39539-0.35028 0.34853-0.27363 0.36514-0.25458 0.83993-0.51538 1.129-0.65757 1.2832-0.70395 1.1789-0.6071 0.98582-0.48287 3.9922-1.8885 1.6495-0.80198 5.0778-2.5924 3.1222-1.5574 0.54403-0.26 0.1757-0.069495 1.0165 1.8083 0.49018 0.96072 0.22187 0.48378 0.24771 0.61612 0.13099 0.38701 0.10729 0.38429 0.086288 0.42294 0.04247 0.36611 0.002974 0.53379-0.18514 1.9486-0.075071 0.52012-0.065002 0.3194-0.080409 0.3094-0.096642 0.294-0.11686 0.27799-0.13235 0.24361-0.21026 0.29086-0.34251 0.36821-0.3633 0.31888-0.47282 0.34396-1.0809 0.72202-0.37649 0.30086-0.16858 0.1707-0.15119 0.19209-0.11566 0.18117-0.14803 0.28755-0.17888 0.4794-0.092391 0.34164-0.11239 0.58012-0.15861 1.0131-0.068746 0.33011-0.17325 0.65632-0.16651 0.52022-0.20697 0.58077-0.19579 0.5086-0.34991 0.84146-0.095031 0.30121-0.062034 0.2908-0.027665 0.35178 0.024071 0.26771 0.063871 0.12246-0.088679 0.033655-0.43489 0.052711-1.0987 0.064738-1.5018 0.044025-5.4702 0.082907-1.1972 0.045325-1.325 0.07271-2.3095 0.18034-2.4725 0.24189-3.0919 0.92355-0.65452 0.49102-0.13085 0.58914 0.16371 0.55638 0.39279 0.35997 1.0801 0.49081 1.0344 0.65446 0.34424 0.34525 0.31548 0.46531 0.39016 0.74785 0.26846 0.62023 0.252 0.65917 0.23957 0.68272 0.51936 1.5941 0.26274 0.87274 0.29617 1.0596 0.31897 1.0517 0.20454 0.59359 0.37331 0.95842 0.12805 0.38746 0.19628 0.87539 0.20747 1.2416 0.10304 0.53132 0.088309 0.39912 0.088415 0.3263 0.18319 0.50588 0.1828 0.38486 0.44457 0.79364 0.17911 0.39452 0.10029 0.27217 0.11581 0.37465 0.27804 1.1018 0.066034 0.35661 0.10333 0.87316 0.067066 0.70087 0.003868 0.28467-0.045593 0.36016-0.23911 0.91985-0.11951 0.51385-0.10645 0.50464-0.075841 0.48135-0.069399 0.84823-0.086064 1.4284-0.24047 2.4432-0.026751 0.66275 0.01948 0.5288 0.059223 0.52287 0.32494 1.7722 0.11905 0.83586 0.027618 0.49234-0.018133 0.36472-0.099095 0.48132-0.16385 0.45313-0.09665 0.21483-0.17439 0.3256-0.30919 0.43948-0.59016 0.77411-0.41059 0.61931-1.269 1.7902-0.20265 0.31565-0.33965 0.63394-0.19503 0.47697-0.13365 0.45398-0.10198 0.47298-0.072254 0.44293-0.045654 0.45716-0.011145 0.43556 0.016049 0.42913 0.091723 0.8453 0.33982 2.0075 0.066923 0.47611 0.042268 0.43962 0.010604 0.33996-0.015868 0.20814-0.049003 0.069202-0.027394 0.053675-0.30208 0.21721-0.24505 0.14539-0.41414 0.2185-0.7535 0.33377-0.70071 0.26056-3.2386 1.0728-2.4928 0.72257-0.64957 0.23083-0.43642 0.18701-0.41084 0.20307-0.49328 0.28408-0.25839 0.17024-0.23566 0.1755-0.2053 0.17902-0.17438 0.18731-0.13837 0.1991-0.048499 0.094544-0.10226 0.35872-0.024614 0.39016 0.042748 0.97009-0.006101 0.29456-0.032231 0.28974-0.065224 0.2814-0.053192 0.15948-0.084036 0.19686-0.20103 0.37368-0.24266 0.37305-0.3269 0.3815-0.3877 0.3501-0.8046 0.63566-0.20697 0.18407-0.38311 0.39459-0.27989 0.3235-0.27335 0.35421-0.24563 0.36695-0.62289 1.1799-0.17003 0.26112-0.11822 0.15365-0.24074 0.25379-0.40776 0.3406-0.90562 0.67271-1.0147 0.79734-0.25056 0.18875-0.26159 0.17403-0.29487 0.1646-0.36732 0.16286-0.38055 0.12574-0.31682 0.073245" stroke="#bdc660"/>
    </defs>
    <g clip-path="url(#p96a7657223)">
     <use y="280.512" fill="#bdc660" stroke="#bdc660" xlink:href="#md2cf092f35"/>
    </g>
   </g>
  </g>
 </g>
 <defs>
  <clipPath id="p96a7657223">
   <rect x="7.2" y="7.2" width="241.93" height="266.11"/>
  </clipPath>
 </defs>
</svg>
