<?xml version="1.0" encoding="UTF-8"?>
<!DOCTYPE svg  PUBLIC '-//W3C//DTD SVG 1.1//EN'  'http://www.w3.org/Graphics/SVG/1.1/DTD/svg11.dtd'>
<svg width="371.52pt" height="272.09pt" version="1.1" viewBox="0 0 371.52 272.09" xmlns="http://www.w3.org/2000/svg" xmlns:xlink="http://www.w3.org/1999/xlink">
 <metadata>
  <rdf:RDF xmlns:cc="http://creativecommons.org/ns#" xmlns:dc="http://purl.org/dc/elements/1.1/" xmlns:rdf="http://www.w3.org/1999/02/22-rdf-syntax-ns#">
   <cc:Work>
    <dc:type rdf:resource="http://purl.org/dc/dcmitype/StillImage"/>
    <dc:date>2024-07-04T12:10:27.646892</dc:date>
    <dc:format>image/svg+xml</dc:format>
    <dc:creator>
     <cc:Agent>
      <dc:title>Matplotlib v3.7.1, https://matplotlib.org/</dc:title>
     </cc:Agent>
    </dc:creator>
   </cc:Work>
  </rdf:RDF>
 </metadata>
 <defs>
  <style type="text/css">*{stroke-linejoin: round; stroke-linecap: butt}</style>
 </defs>
 <g id="figure_1">
  <g id="patch_1">
   <path d="m0 272.09h371.52v-272.09h-371.52v272.09z" fill="none"/>
  </g>
  <g id="axes_1">
   <g id="PatchCollection_1">
    <defs>
     <path id="mbad3a994ab" d="m270.47-250.35 0.36516 0.015149 0.55917-0.010625 0.4811-0.029825 1.4531-0.12354 0.011198 0.049654-0.082975 0.22213-1.0115 2.1515-0.26702 0.62567-0.42707 1.1559-0.25215 0.8554-0.14826 0.71898-0.060832 0.50688-0.013718 0.4443 0.041761 0.50646 0.073076 0.40352 0.17593 0.64025 0.16682 0.43859 0.22115 0.46263 0.40985 0.70908 0.43154 0.66448 0.54952 0.79064 0.32782 0.43378 0.31874 0.39102 0.59667 0.64692 0.56927 0.52097 0.30284 0.24402 0.54394 0.3897 0.29442 0.18764 0.61583 0.34306 0.40704 0.19321 0.40782 0.17009 0.67812 0.23854 1.0058 0.27219 0.73711 0.14546 0.43946 0.062536 0.43483 0.039303 0.48843 0.011224 0.45391-0.025471 0.62468-0.084914 0.51361-0.10304 1.0693-0.27259 1.093-0.32439 0.63034-0.20648 0.70648-0.25186 0.8136-0.32026 1.2223-0.5502 0.62588-0.31791 0.55839-0.30892 0.61905-0.37805 0.53867-0.37051 0.62782-0.50166 0.38315-0.35581 0.53246-0.56417 0.36685-0.43086 1.3799-1.767 0.68847-0.83542 0.41218-0.45077 0.35557-0.35269 0.53192-0.46402 0.35376-0.26591 0.39301-0.25929 0.27971-0.16386 0.49082-0.24461 0.57404-0.20427 0.61801-0.11232 0.63029-0.031406 0.63718 0.018161 1.38 0.088886 0.72551 0.09174 0.698 0.18926 0.47771 0.22448 0.43931 0.28309 0.41479 0.33539 0.49285 0.48686 0.45731 0.52744 0.71405 0.87333 0.62052 0.8033 0.31525 0.42813 0.7668 1.1389 0.064153 0.069849 1.7816 1.6919 0.44828 0.50578 0.35975 0.50852 0.88615 1.4213 0.28645 0.41576 0.47228 0.59993 0.92164 1.0724 0.27874 0.34606 0.27423 0.40615 0.14916 0.32505 0.043776 0.1638 0.01917 0.35283-0.054003 0.35888-0.37605 1.5205-0.17314 0.50666-0.22255 0.52855-0.79658 1.6635-0.42518 0.97256-0.17084 0.49144-0.12501 0.49515-0.062565 0.49943 0.023257 0.60518 0.10892 0.6121 0.16752 0.61912 0.61354 1.838 0.17736 0.58416 0.15029 0.59326 0.08997 0.46698 0.063512 0.4712 0.034526 0.47372 6.57e-4 0.51298-0.042552 0.51098-0.0923 0.50582-0.1795 0.60069-0.1448 0.39131-0.5837 1.3799-1.1149 2.3898-0.11228 0.2684-0.044197 0.13606-0.099624 0.17843-0.1721 0.2635-0.19462 0.25844-0.21171 0.24651-0.37427 0.37627-0.4137 0.3599-0.42408 0.33098-0.82481 0.56994-0.45119 0.273-0.45148 0.23417-0.45369 0.18198-0.27759 0.078571-0.27954 0.050348-0.3098 0.020956-0.38062-0.012622-0.74987-0.097165-1.8788-0.39404-0.2834-0.037924-0.49079-0.02549-0.25797 0.012593-0.24419 0.035815-0.21451 0.059092-0.19678 0.089099-0.13782 0.091796-0.24987 0.24443-0.21218 0.3051-0.17967 0.35126-0.15 0.3861-0.13785 0.47868-0.091482 0.44887-0.061037 0.46101-0.028048 0.55097 0.019628 0.47728 0.14171 1.4822 0.027086 0.85704-0.038551 0.4857-0.093972 0.41733-0.14747 0.34812-0.20695 0.29538-0.31007 0.26568-0.36102 0.20746-0.83056 0.3665-0.30303 0.17434-0.29314 0.26481-0.20754 0.32131-0.096506 0.35612 0.022283 0.34233 0.10419 0.31876 0.14599 0.25308 0.1474 0.13136 0.003816 0.057999 0.027398 0.054806 0.19642 0.24725 0.40453 0.38539 0.34073 0.28492 0.61792 0.45253 1.1578 0.70414 0.84361 0.56064 0.84723 0.64253 1.8224 1.4725 0.99977 0.7057 0.34063 0.29447 0.14368 0.15707 0.24727 0.35232 0.15899 0.28771 0.32697 0.70496 0.23182 0.56992 0.59611 1.6461 0.28443 0.73005 0.30769 0.70408 0.16429 0.33588 0.22041 0.4082 0.31082 0.48512 0.34319 0.4144 0.38278 0.32296 0.11129 0.068507 0.36824 0.15483 0.23782 0.050182 0.25315 0.021572 0.26429-0.005296 0.29558-0.033755 0.4299-0.090975 0.50841-0.15909 0.61216-0.25102 0.49113-0.2375 1.5745-0.84429 0.38128-0.17369 0.47123-0.18458 0.61094-0.18256 0.52622-0.10668 0.89936-0.1256 0.51213-0.033507 0.49299 0.017519 0.58245 0.099732 0.31879 0.090181 0.58056 0.22636 0.46501 0.23961 0.43135 0.26726 0.46367 0.3396 0.59602 0.50242 0.59485 0.56268 0.50748 0.55538 0.30159 0.38305 0.23221 0.33152 0.31221 0.55198 0.18474 0.40998 0.26798 0.68271 0.98457 2.8295 0.48866 1.233 0.30825 0.66335 0.6121 1.1997 0.29628 0.52123 0.32202 0.50706 0.34848 0.48405 0.30839 0.3894 0.50992 0.59198 0.38312 0.41306 0.78484 0.79076 2.0109 1.8577 0.32673 0.32634 0.26126 0.29406 0.24141 0.32084 0.19384 0.33108 0.058502 0.12994 0.082624 0.25952 0.024014 0.14174-0.015844 0.45874-0.21287 0.93203-0.038787 0.27796-0.009876 0.3145 0.025587 0.28555 0.13259 0.5323 0.15253 0.37411 0.1259 0.23896 0.19591 0.29953 0.26993 0.33654 0.33242 0.33621 0.44122 0.35758 0.66049 0.4428 0.55144 0.33695 0.57912 0.32402 2.0455 1.0515 0.94598 0.50576 0.68945 0.42228 0.56033 0.44124 0.286 0.29047 0.34035 0.42543 0.20242 0.31367 0.13649 0.25498 0.16042 0.38933 0.096204 0.36618 0.039437 0.37024-0.001585 0.14469-0.017093 0.19707-0.056817 0.30166-0.11281 0.36052-0.20909 0.45603-0.21613 0.35763-0.2236 0.30729-0.1957 0.23485-0.61249 0.62274-0.48168 0.42197-0.25442 0.19807-0.67322 0.45071-0.42499 0.23538-0.43846 0.21065-0.4985 0.20591-0.65616 0.22364-0.96557 0.26599-1.1242 0.22083-0.96491 0.14468-0.40271 0.10579-0.35054 0.16768-0.3863 0.38977-0.096837 0.18039-0.0832 0.27282-0.016437 0.11922 0.012933 0.34791 0.13351 0.41864 0.15576 0.25068 0.10326 0.12198 0.21057 0.1993 0.24675 0.1858 0.43734 0.25897 0.44049 0.2117 1.0216 0.44414 0.2853 0.143 0.2414 0.14973 0.2959 0.24477 0.14828 0.16228 0.11871 0.16152 0.14551 0.25675 0.14238 0.356 0.13551 0.49301 0.42097 2.0637 0.78825 3.021 0.23793 0.79233 0.38717 1.0513 0.55254 1.3099 0.27155 0.55565 0.19982 0.35844 0.23035 0.34074 0.10688 0.099932 0.091845-0.075694 0.18806-0.080867 0.16601-0.025846 0.13148 0.012368 0.17861 0.069071 0.17442 0.12242 0.16912 0.1642 0.31889 0.40516 0.43985 0.70149 0.48203 0.90002 1.0464 2.0855 0.30604 0.54916 0.32688 0.48937 0.17719 0.20761 0.191 0.17122 0.92421 0.53846 0.74644 0.38064 0.22283 0.16401 0.21476 0.201 0.41684 0.48035 0.84868 1.1292 0.45342 0.57478 0.54504 0.62942 0.80819 0.88502-0.099031 0.057434-0.1595 0.23281-0.18126 0.31834-0.37892 0.75045-0.50919 1.1277-1.2 2.8119-0.28928 0.61476-0.35565 0.69504-0.50048 0.86703-0.36703 0.55713-0.29258 0.4001-0.47751 0.57859-0.59679 0.61187-0.37981 0.33642-0.39506 0.31295-0.27135 0.19548-0.4906 0.31767-0.78644 0.42668-0.40619 0.18645-0.55288 0.22229-0.84925 0.28206-0.86698 0.2304-1.1543 0.24997-1.8415 0.36769-1.2481 0.29827-1.0452 0.31942-0.55946 0.20524-0.54963 0.22707-0.97651 0.47091-0.83243 0.47835-0.79763 0.53542-0.86923 0.67532-0.69044 0.60111-0.64082 0.60286-0.62464 0.62348-0.61109 0.63968-1.2804 1.4259-0.66387 0.78812-0.64275 0.80467-0.74017 0.99805-0.68186 1.0098-0.64126 1.0351-1.3177 2.2272-0.59141 0.92041-0.68982 0.94655-0.4667 0.56361-0.40195 0.44193-0.7108 0.69822-0.74694 0.64062-0.70894 0.54442-1.8088 1.2998-0.62668 0.47056-0.87434 0.70322-0.85343 0.74719-0.61861 0.57746-1.0453 1.0222-3.1476 3.1559-1.318 1.2978-4.1139 3.9499-0.060491-0.003092-0.12711-0.078865-0.22942-0.18076-0.38463-0.3538-0.32896-0.35203-0.25146-0.31686-0.22524-0.3422-0.24129-0.47976-0.18018-0.50131-0.11642-0.46442-0.26659-1.6287-0.056912-0.21994-0.072587-0.1911-0.071232-0.12596-0.099387-0.11588-0.11506-0.080928-0.1694-0.048718-0.17861 0.018525-0.19327 0.096904-0.18128 0.16697-0.17695 0.25139-0.15238 0.30695-0.1275 0.3491-0.10278 0.38211-0.082 0.40485-0.11041 0.77958-0.057095 0.72803 0.007118 0.7838 0.054956 0.51544 0.073551 0.3957 0.10269 0.38172 0.13558 0.36311 0.14325 0.28926 0.16748 0.27034 0.26839 0.3486 0.50305 0.58318 0.1971 0.2643 0.19395 0.35407 0.095917 0.28972 0.04071 0.27633-2.15e-4 0.20513-0.051599 0.36318-0.063155 0.23999-0.17716 0.4735-0.31448 0.6365-0.78032 1.4051-0.241 0.52885-0.10728 0.34009-0.17764 0.85981-0.13409 0.4164-0.16499 0.29394-0.10298 0.11029-0.082818 0.029378-0.013048-0.022312-0.12659-0.036064-0.20364-0.020801-0.59462 3.4e-5 -0.52349 0.043322-2.4564 0.35739-0.98348 0.090038-0.87099 0.026583-0.28256-0.007583-0.56233-0.050331-1.4271-0.26171-0.36612-0.049548-0.35686-0.028197-0.49973-0.002463-0.42408 0.0394-0.27232 0.050864-0.3609 0.10506-0.3999 0.17616-0.2153 0.12564-0.3392 0.25804-0.31308 0.3621-0.15998 0.32394-0.051066 0.19451-0.027743 0.34288 0.001313 0.36583-0.025184 0.20502-0.08682 0.21637-0.064654 0.085991-0.095425 0.087919-0.17082 0.10074-0.23217 0.076938-0.30427 0.039516-0.2134-0.001845-0.24282-0.023859-0.29973-0.054499-0.99363-0.26967-0.18157-0.018602-0.1721 0.013293-0.16941 0.056376-0.18085 0.13643-0.13851 0.21237-0.091121 0.34786-0.007838 0.2734 0.029122 0.27131 0.23125 0.96952 0.11607 0.58104 0.27864 1.9396 0.062812 0.57244 0.007248 0.32397-0.021029 0.26992-0.060505 0.29557-0.1664 0.41782-0.24509 0.36638-0.17806 0.19094-0.18791 0.16077-0.22493 0.15445-0.47658 0.2408-1.372 0.50631-1.1567 0.49907-0.59715 0.31179-0.84761 0.47703-0.72396 0.34391-0.50245 0.19686-0.86843 0.26298-0.71794 0.14844-0.81668 0.10155-0.7446 0.036089-0.79397-0.013784-1.1593-0.10161-2.2497-0.3086-0.697-0.067454-0.87293-0.0383-0.56311 0.007817-0.64246 0.042452-0.82692 0.11365-0.849 0.20031-0.54073 0.18421-0.41748 0.18096-0.49091 0.26676-0.5079 0.35418-0.34752 0.30323-0.38385 0.41214-0.41418 0.5718-0.2951 0.53861-0.15672 0.36676-0.17574 0.55566-0.081464 0.38316-0.045473 0.31278-0.042638 0.56384 0.01849 0.27872-0.062763 0.43185-0.057347 0.81948-0.059065 0.47894-0.10235 0.44967-0.18366 0.54444-0.2852 0.68304-0.4915 1.0638-0.36498 0.72785-0.54127 1.0073-0.23516 0.49753-0.19581 0.50254-0.58452 1.8087-0.19205 0.5183-0.16586 0.39334-0.16976 0.32527-0.1501 0.22178-0.19837 0.22628-0.26609 0.23373-0.41473 0.28076-0.32173 0.1798-1.2172 0.59816-0.36499 0.20755-0.42723 0.30154-0.61556 0.51438-0.34386 0.26309-0.76965 0.4983-0.47307 0.25487-0.5028 0.23706-0.52834 0.21727-0.79772 0.27366-0.83434 0.22552-0.7845 0.1619-0.80303 0.12858-1.589 0.18765-3.6816 0.37824-1.0084 0.1355-0.49906 0.08734-0.49442 0.10634-0.55587 0.14884-0.5453 0.18163-0.62329 0.259-0.60094 0.30868-0.57357 0.35916-0.57475 0.44055-0.59168 0.5661-0.60359 0.74786-0.28772 0.43606-0.26546 0.44968-0.68541 1.2714-0.66117 1.1771-0.18879 0.31909-0.22533 0.33119-0.047266 0.023853-0.10936 0.091428-0.11719 0.28815-0.11235 0.42408-0.096437 0.54565-0.16978 1.3601-0.08593 0.45716-0.22633 0.85009-0.17644 0.53179-0.33572 0.88792-0.19132 0.45609-0.93819 2.0538-0.37291 0.90685-0.58732 1.67-0.24441 0.60729-0.31563 0.56221-0.24865 0.29121-0.28708 0.2052-0.38307 0.11591-0.4287 0.003421-0.45965-0.089937-0.24869-0.078317-0.63063-0.2524-0.66704-0.3224-0.68822-0.3736-0.6961-0.41085-1.4448-0.93649-0.95634-0.69677-1.4878-1.1834-0.47498-0.34209-0.66678-0.38834-2.2515-1.0897-1.179-0.60423-0.74883-0.34308-0.4385-0.15885-1.8025-0.54964-0.58846-0.19568-0.75196-0.30084-0.55841-0.28282-0.86982-0.50322-0.31391-0.20718-0.6905-0.49858-0.64628-0.49667-2.2531-1.7942-0.57036-0.42607-0.57062-0.39347-0.35711-0.22558-0.44825-0.25873-0.42967-0.21514-0.40078-0.16239-0.28384-0.086862-0.16513-0.035602-0.35731-0.001768-0.10871 0.10115-0.2009 0.12202 0.1133-0.70884 0.058078-0.21504 0.1091-0.28742 0.44165-0.82416 0.42976-0.92441 0.36891-0.60324 0.19218-0.35874 0.25359-0.56012 0.23299-0.57281 0.36441-0.96335 0.32559-0.96142 0.17725-0.64282 0.22261-0.98191 0.11574-0.38159 0.24471-0.58208 0.17229-0.33248 0.15556-0.25567-0.16707-0.11075-0.36274-0.35202-0.60968-0.64956-0.48802-0.5732-0.31378-0.41002-0.29888-0.43394-0.32177-0.51195-0.26968-0.4766-0.3006-0.6328-0.224-0.61511-0.73024-2.9432-0.12654-0.45481-0.15847-0.45574-0.20444-0.46479-0.37833-0.7344-0.42856-0.75644-1.4344-2.4023-0.92625-1.4957-1.8227-2.8263-1.5006-2.2707-1.1242-1.6532-1.1567-1.6186-0.59718-0.77938-0.60904-0.73594-0.62557-0.67419-0.64842-0.5877-0.67965-0.4683-0.72179-0.30571-0.69978-0.10644-0.73315 0.027971-0.75551 0.12532-0.76818 0.19262-0.8254 0.25835-0.80985 0.31353-0.77346 0.37997-0.73062 0.46063-0.51479 0.37977-1.3512 1.1018-0.34668 0.24353-0.18538 0.10742-0.30397 0.14319-0.38388 0.12658-0.4257 0.073767-0.34337 0.012279-0.28135-0.015727-0.30647-0.044142-0.30068-0.0728-0.33939-0.1178-0.2315-0.10271-1.0347-0.56759-0.29784-0.14053-0.35164-0.13582-0.78269-0.21898-0.85402-0.14648-0.86186-0.071983-0.73273-0.007779-0.45303 0.017807-0.69052 0.05744-0.68897 0.084148-2.4402 0.34751-1.5335 0.14137-1.3931 0.071151-1.6517 0.04742-1.2911-0.016982-1.2166-0.076072-0.79967-0.085166-0.57827-0.082669-0.68193-0.12507-1.0655-0.25758-1.088-0.31196-0.53598-0.17635-0.53148-0.19194-0.85115-0.34759-0.42161-0.1935-0.66144-0.33342-1.1655-0.6547-1.7136-1.0533-0.69154-0.45458-0.76611-0.53276-1.4449-1.038-0.73314-0.50324-0.38319-0.23922-0.60097-0.31468-0.49894-0.19612-0.42234-0.13032-0.50947-0.1278-1.9299-0.39989-0.53286-0.14766-0.51002-0.19012-0.16848-0.07817-0.58763-0.34092-0.57333-0.4075-1.236-0.97121-1.0851-0.93514-1.6498-1.5098-0.91366-0.81138-0.92628-0.78463-0.85901-0.68549-0.84771-0.62112-1.068-0.70426-0.6458-0.34971-0.22978-0.10189-0.54133-0.2007-0.59158-0.16812-0.57076-0.1144-0.74079-0.10663-0.72539-0.058317-0.86136-0.001376-0.57541 0.035114-0.61949 0.091497-0.70597 0.19739-0.78226 0.32557-0.77669 0.41438-0.78486 0.4945-0.53594 0.3758-0.50281 0.3791-1.3569 1.1268-0.017324 0.021929-0.18813 0.090426-0.47654 0.18034-0.96805 0.32349-1.5656 0.4831-0.94896 0.31156-0.5877 0.21573-0.70576 0.28573-0.87122 0.39301-1.0274 0.51744-0.83833 0.45336-2.39 1.339-1.3594 0.70699-0.61872 0.28447-0.79669 0.32218-0.75521 0.26641-0.75544 0.22194-0.52299 0.098855-0.31858 0.008764-0.24927-0.032179-0.58809-0.16205-0.34414-0.1402-0.50991-0.28016-1.3594-0.95175-0.34845-0.20094-0.34951-0.14118-0.34887-0.053808-0.28799 0.040191-0.20209 0.072283-0.19468 0.097737-0.26498 0.16771-0.24867 0.18345-0.76861 0.61962-0.2352 0.17094-0.44144 0.27074-0.1929 0.096832-0.35168 0.14432-0.43026 0.12128-0.38904 0.05694-0.44698 0.005141-0.435-0.045995-0.40491-0.081227-0.35033-0.099044-0.1557-0.060301-0.043801-0.040614-0.12166-0.078121-0.074748-0.002823-0.080485-0.003887-0.067258-0.027888-0.37749-0.2402-0.44917-0.35749-0.49786-0.45504-0.34397-0.35479-0.5808-0.72693-0.25568-0.39774-0.2671-0.49452-0.3055-0.6827-0.76882-1.9558-0.29499-0.68893-0.30981-0.64543-0.42889-0.80216-0.45865-0.78764-0.4784-0.77521-1.2985-2.0154-0.84364-1.4083-0.4501-0.81198-0.46519-0.88864-1.2277-2.434-0.76427-1.3722-0.8279-1.3566-1.3241-1.992-0.83639-1.3133-1.0054-1.6856-0.43453-0.76036-0.53162-1.0076-0.23004-0.47952-0.36327-0.82684-0.47147-1.2403-0.36032-1.1321-0.19252-0.72114-0.10392-0.45766-0.11117-0.61713-0.067006-0.60648-0.028669-0.57786-0.020535-1.581-0.086628-0.79252-0.16256-0.77466-0.11284-0.39554-0.1363-0.38045-0.27288-0.5518-0.22137-0.32351-0.32663-0.35582-0.38229-0.29-0.55193-0.25586-0.62115-0.15029-0.36228-0.042148-0.30824-0.015234-0.52992 0.00874-0.48649 0.037932-0.76266 0.10124-0.75891 0.13748-0.77244 0.16713-0.86341 0.21025-4.3831 1.194-1.6178 0.40989-0.79011 0.17386-0.81252 0.14686-0.99017 0.11476-0.46826 0.021891-0.40576-0.003922-0.28783-0.019303-0.38899-0.052204-0.28588-0.059135-0.51582-0.15729-0.47926-0.22359-0.58265-0.41199-0.53585-0.50584-1.3452-1.4596-0.62701-0.65393-0.87545-0.84416-1.3884-1.2213-0.87093-0.69342-0.64759-0.45266-0.52291-0.33043-0.48216-0.27706-0.3588-0.17664-0.35701-0.1343-0.22416-0.057405-0.55985-0.047558-0.59836 0.10299-0.46767 0.20178-0.50954 0.36222-0.44676 0.46228-0.27364 0.35988-0.25428 0.39162-0.29891 0.53649-0.27202 0.56795-0.24719 0.59423-0.21935 0.60921-0.1889 0.61732-0.13599 0.53462-0.15239 0.79137-0.2006 1.5944-0.15274 0.73999-0.13633 0.50303-0.30311 0.88324-0.21572 0.51594-0.24542 0.51587-0.26904 0.50258-0.4006 0.66144-0.56827 0.81171-0.29041 0.37004-0.46628 0.54272-0.73033 0.75269-0.49003 0.45509-0.55346 0.4765-0.45928 0.36825-0.8165 0.58962-0.31738 0.19702-0.18764 0.093611-0.057723 0.002622-0.27311-0.46519-1.1909-1.8618-1.4382-2.1576-0.86334-1.2204-2.0787-2.7829-0.58282-0.84474-0.56055-0.88424-0.37601-0.65983-0.45206-0.88876-0.41828-0.92814-0.75439-1.7766-0.63734-1.4197-0.24916-0.63494-0.34536-1.0074-1.2008-4.2359-0.19226-0.80295-0.1199-0.77488-0.01468-0.71785 0.1185-0.6674 0.18476-0.44309 0.25753-0.4107 0.1394-0.17872 0.31604-0.3329 0.36311-0.30559 0.55369-0.37101 0.61242-0.31798 0.66126-0.25809 0.7993-0.21786 1.6918-0.32647 0.86463-0.1833 0.52382-0.13784 0.52158-0.15919 0.70343-0.24762 0.80328-0.3259 0.68679-0.30923 0.9493-0.46507 1.0894-0.59614 0.61566-0.3813 0.51492-0.3567 0.49001-0.38543 0.543-0.49891 0.50675-0.53855 0.64585-0.79172 0.53519-0.75893 0.4896-0.79649 0.35901-0.66728 0.37071-0.78971 0.29579-0.72815 0.18272-0.51128 0.30208-1.0171 0.1191-0.50402 0.11189-0.57998 0.13041-0.99747 0.075824-1.222 0.01852-0.62997 0.001925-0.62502-0.077046-3.0721 0.024068-1.6192 0.071035-1.4726 0.20806-3.0353 0.059683-1.4213-0.010526-1.272-0.042228-0.85576-0.048739-0.66467-0.11906-1.1652-0.12738-0.89229-0.18113-1.0169-0.17024-0.812-0.29591-1.2043-0.044363-0.20675-0.007818-0.38014 0.050868-0.25983 0.23178-0.5864 0.058866-0.1998 0.024689-0.28566-0.036709-0.26444-0.0744-0.24069-0.10114-0.25081-0.68278-1.4359-0.23777-0.5391-0.81069-2.1783 0.68182 0.22457 0.42539 0.12095 0.97948 0.24562 0.98852 0.20882 0.70371 0.099051 0.60643 0.035166 0.49314-0.005952 0.6498-0.043282 0.52603-0.061613 0.40653-0.066428 0.95313-0.22904 0.90908-0.2878 0.49424-0.18254 0.72844-0.32059 1.3467-0.66751 0.9665-0.50607 0.65254-0.30561 1.2165-0.4693 1.7194-0.58412 0.72648-0.27329 1.5603-0.65617 0.59112-0.27728 0.44897-0.24222 0.44429-0.266 0.4358-0.28853 0.42256-0.31117 0.40363-0.33334 0.37133-0.34067 0.35001-0.35366 0.3819-0.42873 0.48709-0.62584 0.47624-0.67471 0.39097-0.73691 0.14742-0.32284 0.10037-0.27901 0.049198-0.20943 0.024097-0.23848-0.005589-0.18083-0.029311-0.18146-0.044054-0.14305-0.073882-0.15271-0.10926-0.1488-0.13374-0.12253-0.093778-0.061421-0.22236-0.086339-0.14529-0.007396-0.079945 0.030796 0.043682-0.22814 0.18466-0.39915 0.27337-0.47205 0.34735-0.50898 0.41012-0.50775 0.46435-0.46841 0.56675-0.43018 0.66601-0.34014 0.49531-0.1892 1.5845-0.53697 0.54348-0.21339 0.43835-0.19521 0.26896-0.13451 0.65652-0.3972 0.38064-0.2873 0.41633-0.37545 0.45179-0.49906 0.96872-1.2283 0.73776-1.0224 1.0251-1.4948 1.2113-1.5894 0.4579-0.57878 0.25387-0.29035 0.37224-0.37982 0.43287-0.38959 0.70661-0.5714 0.57022-0.41255 1.561-1.0183 3.319-2.3051 0.89926-0.69325 1.0994-0.95155 0.50075-0.36706 0.24812-0.14074 0.19102-0.0829 0.14463-0.04463 0.25064-0.036263 0.3506 0.03042 0.14763 0.040556 0.25844 0.11021 0.57743 0.35317 0.69009 0.4768 0.24067 0.20164 0.27262 0.29341 0.26784 0.35979 0.22683 0.39504 0.22859 0.59388 0.48931 1.6192 0.19313 0.50187 0.16128 0.35901 0.21521 0.41553 0.20016 0.33484 0.3386 0.48297 0.27614 0.33867 0.44677 0.46629 0.38225 0.32242 0.32366 0.21706 0.41114 0.20735 0.63494 0.21035 0.3017 0.053207 0.58133 0.035335 0.74095-0.039648 0.80668-0.099525 0.78251-0.14203 3.7715-0.8237 1.5568-0.37443 0.6665-0.13687 0.84286-0.14315 1.0751-0.2208 1.6536-0.43489 1.055-0.32872 0.39492-0.15551 0.46093-0.21621 0.76939-0.42859 0.89922-0.57046 2.1574-1.4629 1.1178-0.72328 0.66416-0.40586 0.66756-0.37996 0.6784-0.35043 0.96797-0.43457 0.97398-0.35327 0.70641-0.21024 0.70703-0.18437 0.53451-0.12042 0.2561-0.032295-1.0421-4.1539-0.76913-3.4702-0.063416-0.39525-0.017434-0.37642 0.019673-0.17341 0.12773-0.50283 0.017765-0.2418-0.025867-0.13177-0.10406-0.11369-1.1691-1.7529-2.8992-4.0111-0.87624-1.2925-0.45276-0.73868-0.41635-0.7502-0.25094-0.50171-0.80534-1.7213-0.23297-0.43916-0.25308-0.41278-0.28304-0.37535-0.3253-0.3236-0.34748-0.24315-0.3837-0.19923-0.40875-0.16879-1.6974-0.58866-0.39226-0.17751-0.35591-0.21371-0.30329-0.26583-0.25464-0.36223-0.18942-0.42878-0.14024-0.48144-0.10341-0.52307-0.075928-0.55554-0.095383-1.1741-0.047381-1.1839-0.029672-1.3698-0.018239-0.1263 0.046391-0.11206 0.19164-0.19597 0.3348-0.2697 0.43299-0.29799 0.75416-0.44149 0.88722-0.42845 0.63053-0.26694 1.7142-0.67213 0.65721-0.28227 2.573-1.2465 1.2733-0.56146 0.7048-0.27433 0.70035-0.24351 0.69376-0.20691 0.68502-0.16196 0.48743-0.082281 0.41146-0.041181 0.34528-0.00867 0.33362 0.016347 0.72902 0.094695 2.7511 0.47179 1.1465 0.13539 1.2573 0.089595 1.254 0.032433 0.76355-0.010995 0.75161-0.037216 0.73414-0.067362 0.70981-0.10386 0.67695-0.14948 0.9254-0.28042 0.70415-0.18743 0.74565-0.16558 3.826-0.74466 2.9101-0.64921 1.083-0.26857 0.94706-0.25544 2.6121-0.77587 0.74556 0.30008 1.5806 0.68546 0.68116 0.34926 0.41756 0.25664 0.46128 0.33202 0.62643 0.58739 0.20174 0.15933 0.1817 0.10063 0.15088 0.047946 0.24846 0.016144 0.12364-0.016821 0.27614-0.085118 0.99914-0.43298 0.39375-0.13006 0.41542-0.10754 0.87323-0.15861 0.90545-0.089114 2.989-0.097449 0.82118-0.004246 0.97714 0.06366 0.99391 0.11991 1.0127 0.15738 1.0244 0.18826 1.0048 0.22089 0.47157 0.12387 0.42784 0.13164 0.35731 0.1338 0.37387 0.17052 0.47424-0.076672 0.52478-0.11883 0.51499-0.14662 0.58354-0.20337 0.63819-0.26453 0.61414-0.2858 0.83682-0.42756 0.51989-0.28974 0.71815-0.45105 1.357-0.99361 0.34781-0.27159 0.49826-0.43793 0.47581-0.46118 0.68307-0.70829 0.82291-0.89651 0.18332-0.17514 0.41129-0.32729 0.26613-0.18064 0.57633-0.33425 0.29465-0.14586 0.63195-0.2752 1.0204-0.37864 1.615-0.50576 2.6974-0.70992 0.91258-0.22217 0.99441-0.21652 0.77286-0.14631 1.1518-0.19141 2.1525-0.29631 0.79496-0.13615 0.75952-0.15375 0.69601-0.17695 0.31013-0.10017 0.274-0.11013 0.34812-0.17218 0.16686-0.062819 0.17506-0.030534 0.25351 0.007631 0.22432 0.029372 1.0011 0.16958 2.4396 0.44984 0.74472 0.16786 0.48834 0.16998 0.30564 0.14377 0.37873 0.21851 1.07 0.71359 0.29724 0.15558 0.12226 0.041523 0.066031-0.012224-0.011441 0.058583-0.080171 0.16257-0.69344 1.3153-0.52995 1.1361-0.21959 0.5551-0.18712 0.55511-0.11664 0.42192-0.098796 0.47232-0.057377 0.46248-0.007173 0.48497 0.037658 0.34966 0.072854 0.3297 0.10344 0.31986 0.12159 0.29572 0.14053 0.28772 0.28435 0.48622 0.20795 0.30524 0.29068 0.37589 0.79052 0.91417 0.76694 0.95929 0.73392 0.99086 0.62909 0.92907 0.33581 0.60486 1.1824 2.4153 0.58497 1.1082 1.8416 3.3062 0.55372 0.92548 0.29405 0.46054 0.48545 0.71976 0.80731 1.1298 3.2868 4.3758 1.1766-0.023513 0.65007-0.043827 0.58-0.058928 0.59644-0.08671 0.7073-0.15825 0.55902-0.18375 0.5367-0.23691 0.44524-0.25155 0.49757-0.35129 0.53151-0.46816 0.47998-0.52118 0.47393-0.63218 0.41076-0.67315 0.30143-0.59612 0.33484-0.79075 0.25647-0.71351 0.21434-0.71463 0.14482-0.60828 0.10536-0.6026 0.053638-0.48417 0.02245-0.47601-0.021204-0.62984-0.20416-1.6844-0.007327-0.60767 0.068757-0.61016 0.10804-0.44937 0.15659-0.44203 0.20024-0.42609 0.24152-0.41478 0.39547-0.55589 0.45428-0.53405 0.39018-0.40434 0.82196-0.75614 0.94908-0.7687 1.1232-0.80724 1.1551-0.75144 1.0803-0.64312 0.5166-0.28379 0.84188-0.4235 0.96629-0.42689 0.87155-0.33984 1.0426-0.35589 1.1049-0.31734 0.84634-0.19524 0.55877-0.10182 0.56158-0.07934 0.71215-0.066284 0.85114-0.02836 0.96398 0.032427 0.62783 0.055846 0.81281 0.10988 0.88639 0.16844 0.83723 0.20885 0.59382 0.17836 0.5811 0.20129 0.78068 0.31832 0.84584 0.41482 0.46543 0.26336 0.44204 0.2768 0.57919 0.41091 0.47957 0.39694 0.28529 0.27227 0.26359 0.28899 0.23153 0.29852 0.42949 0.65258 0.11388 0.1552 0.17204 0.18958 0.27323 0.20332 0.25345 0.1039 0.28177 0.032427 0.30201-0.067926 0.17999-0.10414 0.18009-0.17074 0.28609-0.49798 0.17517-0.59269 0.12634-0.7563 0.28835-2.3366 0.52502-3.3914 0.094468-0.8411 0.18532-2.1385 0.08725-0.55917 0.12398-0.53402 0.14362-0.43721 0.18079-0.40749 0.20836-0.35346 0.26758-0.34226 0.30762-0.29417 0.47565-0.31281 0.32217-0.13773 0.29575-0.083834 0.34926-0.054709 0.47082-0.013178 0.40249 0.031259 0.48758 0.075235 0.80252 0.18172 0.71498 0.19891 2.3237 0.72259 0.8753 0.2462 0.67505 0.15832 0.66876 0.11442 0.7534 0.057348 0.73412-0.041125 0.51974-0.10348 0.71677-0.25232 0.63919-0.34074 0.36277-0.24797 0.36581-0.29437 0.78612-0.74424 1.6951-1.7697 0.48479-0.54305 0.87731-1.1161 0.35381-0.39858 0.38557-0.32722 0.42362-0.23349 0.3236-0.088862 0.31889-0.004735 0.16606 0.034933 0.21802 0.090082 0.20231 0.12893 0.41757 0.37538 1.0579 1.1141 0.3855 0.30431 0.27421 0.16189 0.32722 0.15291 0.37872 0.14023 0.6859 0.18234 0.44889 0.078494 0.53463 0.056164" stroke="#bdc660"/>
    </defs>
    <g clip-path="url(#p35983a3724)">
     <use y="272.085812" fill="#bdc660" stroke="#bdc660" xlink:href="#mbad3a994ab"/>
    </g>
   </g>
  </g>
 </g>
 <defs>
  <clipPath id="p35983a3724">
   <rect x="7.2" y="7.2" width="357.12" height="257.69"/>
  </clipPath>
 </defs>
</svg>
