<?xml version="1.0" encoding="UTF-8"?>
<!DOCTYPE svg  PUBLIC '-//W3C//DTD SVG 1.1//EN'  'http://www.w3.org/Graphics/SVG/1.1/DTD/svg11.dtd'>
<svg width="260.34pt" height="280.51pt" version="1.1" viewBox="0 0 260.34 280.51" xmlns="http://www.w3.org/2000/svg" xmlns:xlink="http://www.w3.org/1999/xlink">
 <metadata>
  <rdf:RDF xmlns:cc="http://creativecommons.org/ns#" xmlns:dc="http://purl.org/dc/elements/1.1/" xmlns:rdf="http://www.w3.org/1999/02/22-rdf-syntax-ns#">
   <cc:Work>
    <dc:type rdf:resource="http://purl.org/dc/dcmitype/StillImage"/>
    <dc:date>2024-07-04T12:10:28.223965</dc:date>
    <dc:format>image/svg+xml</dc:format>
    <dc:creator>
     <cc:Agent>
      <dc:title>Matplotlib v3.7.1, https://matplotlib.org/</dc:title>
     </cc:Agent>
    </dc:creator>
   </cc:Work>
  </rdf:RDF>
 </metadata>
 <defs>
  <style type="text/css">*{stroke-linejoin: round; stroke-linecap: butt}</style>
 </defs>
 <g id="figure_1">
  <g id="patch_1">
   <path d="m0 280.51h260.34v-280.51h-260.34v280.51z" fill="none"/>
  </g>
  <g id="axes_1">
   <g id="PatchCollection_1">
    <defs>
     <path id="ma8e01b2968" d="m166.67-212.58 0.8672 4.7186 0.19872 1.2218 0.079525 0.60204 0.01132 0.18542 0.034898 0.08015 0.017756 0.19694-7.54e-4 0.24334-0.019618 0.28954-0.078341 0.52548-0.058575 0.26171-0.125 0.43944-0.14542 0.41653-0.16756 0.41719-0.17365 0.39126-0.40639 0.82775-0.48614 0.90642-0.53771 0.94709-1.227 2.0387-0.61582 1.0749-0.5698 1.1065-1.2735 2.6383-0.45555 0.85316-0.26196 0.44486-0.45014 0.6836-0.46947 0.62464-0.63562 0.74751-0.23414 0.24393-0.64325 0.61354-0.2467 0.29848-0.29125 0.47278-0.20215 0.36602-0.18259 0.39382-0.13556 0.41088-0.10681 0.43692-0.38541 1.9389-0.10285 0.43912-0.10709 0.3357-0.21056 0.45563-0.3226 0.46735-0.38072 0.42379-0.2428 0.20273-0.071716 0.026748 0.029276 0.25406 0.15142 0.41981 0.22621 0.50499 0.33223 0.60634 0.31705 0.4303 0.365 0.3896 0.39103 0.33706 0.76362 0.54816 0.31895 0.27867 0.23578 0.27671 0.087057 0.12519 0.15049 0.25372 0.11432 0.22978 0.15668 0.38001 0.15949 0.49306 0.13872 0.55695 0.11071 0.58357 0.11342 0.86952 0.045238 0.58508 0.019141 1.0392-0.034214 0.87856-0.072787 0.87672-0.15368 1.1685-0.3688 2.2942-0.35838 2.0795-0.32406 1.6111-0.16822 0.71346-0.18876 0.70503-0.3314 1.0405-1.2252 3.5784-1.4737 4.0187-0.2012 0.61741-0.1733 0.62117-0.13411 0.62725-0.10078 0.81498-0.027021 0.82483 0.039563 0.83064 0.104 0.83232 0.13023 0.66096 0.16285 0.62179 0.096698 0.31252 0.17807 0.50831 0.23714 0.58666 0.26589 0.58025 0.38023 0.73795 0.41631 0.72466 0.38661 0.61536 0.38698 0.56899 0.5443 0.727 0.56953 0.67416 0.51492 0.5289 0.3243 0.28737 0.32825 0.24979 0.29945 0.188 0.33021 0.15829 0.28491 0.091699 0.57165 0.063228 0.29561-0.035486 0.18669-0.061404 0.10534-0.071776 0.038758-0.073682 0.086233-0.04831 0.20258-0.065712 0.27746-0.061418 0.44521-0.06283 0.36703-0.022561 0.37116 0.007004 0.35804 0.042712 0.33604 0.086206 0.30157 0.13535 0.26456 0.17822 0.29213 0.26058 0.49505 0.51429 0.81515 0.91225 0.40886 0.42606 0.44413 0.40182 0.47479 0.35697 0.50253 0.29075 0.16214 0.073984 0.47234 0.17831 1.1213 0.37156 0.35284 0.14615 0.38199 0.19632 0.35089 0.22949 0.29141 0.23863 0.67068 0.65152 1.0842 1.1022 0.48888 0.45811 0.5411 0.45188 0.48988 0.35575 0.24607 0.14987 0.41447 0.21339 0.69394 0.2456 0.7418 0.16941 1.5331 0.24635 0.74768 0.13679 2.1831 0.4803 0.68119 0.072836 0.69413 0.006167 0.68508-0.053898 0.65247-0.11213 0.59329-0.17332 0.50303-0.24239 0.34177-0.26278 0.47103-0.45271 0.28819-0.25219 0.31861-0.25197 0.41318-0.28973 0.32465-0.18331 0.35739-0.16016 0.60293-0.19154 0.50816-0.10815 0.53765-0.076986 0.69646-0.055947 1.1376-0.021382 0.78212 0.020318 0.60195 0.034529 0.79421 0.068914 2.2169 0.2526 0.88365 0.048065 0.2945-0.006071 0.27404-0.026127 0.15866-0.032895 0.11596-0.049561 0.034289-0.039695 8.27e-4 -0.035495 0.35202 0.10734 0.24626 0.10752 0.15533 0.10599 0.10691 0.14981 0.041426 0.14536 0.01777 0.20951-0.050372 0.88682 0.015689 0.54827 0.066216 0.013542 0.50685-0.070491 3.6217-0.68217 1.3267-0.22506 0.66225-0.096518 0.68153-0.083489 0.94122-0.078402 0.59795-0.017744 0.48528 0.012009 0.52909 0.049537 0.47626 0.089489 0.28501 0.0816 0.49309 0.20451 0.46626 0.25269 0.40892 0.24987 0.45225 0.31138 0.45376 0.35159 0.48769 0.41539 1.1656 1.0407 0.49281 0.39403 0.45646 0.30062 0.36877 0.2003 0.48693 0.2052 0.27767 0.082838 0.63631 0.085579 0.11982 0.001812 0.45829-0.0318 0.41446-0.078354 0.331-0.097096 0.3635-0.13724 1.9676-0.91491 0.60156-0.24956 0.48964-0.13981 0.22391-0.03647 0.20575-0.014087 0.18986 0.006307 0.18069 0.024678 0.28052 0.075592 0.20686 0.085419 0.22624 0.12456 0.37953 0.28368 0.74054 0.66843 0.47599 0.38839 0.36571 0.24004 0.41767 0.21602 0.40154 0.15834 0.56422 0.15786 0.57401 0.10118 0.94485 0.11126 0.45601 0.088591 0.30973 0.10041 0.22976 0.10226 0.2643 0.14776 0.18095 0.12086 0.25154 0.19744 0.30776 0.3048 0.23748 0.29494 0.26789 0.4064 0.1906 0.34528 0.14162 0.29328 0.16591 0.39323 0.21973 0.64122 0.12812 0.47593 0.12619 0.62579 0.077431 0.57796 0.16522 1.562 0.091264 0.61964 0.07489 0.37138 0.093563 0.35289 0.21689 0.59915 0.33351 0.84128 0.13025 0.38037 0.50366 1.5606 0.24574 0.85278 0.15391 0.68547 0.12937 0.853 0.060648 0.68437 0.027964 0.99776 0.054226 0.50985 0.04652 0.24595 0.10586 0.3845 0.15293 0.39236 0.23186 0.45327 0.14719 0.24016 0.30886 0.43779 0.26116 0.32744 0.49542 0.56817 0.33128 0.34955 0.2984 0.28913 0.47589 0.4114 0.62424 0.45804 0.40146 0.25405 0.44139 0.25045 1.1107 0.56197 0.86471 0.4016 1.991 0.84157 0.75292 0.36478 0.44645 0.2592 0.2915 0.20524 0.17133 0.16576 0.042647 0.090833-0.018806 0.052291-0.17867 0.11819-0.85327 0.46241-1.0024 0.49797-0.32958 0.10545-0.47287 0.05667-0.19898 0.046281-0.16528 0.069214-0.23065 0.1419-1.0626 0.8141-0.41528 0.37183-0.27651 0.30352-0.78511 0.93157-0.20073 0.31768-0.12147 0.32241-0.055933 0.23744-0.049549 0.35224-0.019206 0.30858-0.002354 0.47473 0.051214 1.8905-0.014179 0.51272-0.03964 0.38251-0.098682 0.481-0.40481 1.2706-0.21679 0.81494-0.1893 0.89896-0.088608 0.72259-0.016077 0.58629 0.040753 0.6195 0.062367 0.43754 0.086264 0.41796 0.070619 0.2443 0.050402 0.12217 0.022603 0.022521-1.4599 0.45718-0.92239 0.34228-0.57126 0.24876-0.26635 0.13185-0.52098 0.30215-0.24057 0.1633-0.37179 0.29585-0.16571 0.15832-0.74387 0.81041-0.61747 0.64026-0.43011 0.41688-0.4504 0.39587-0.3144 0.24551-1.2267 0.89818-0.64918 0.40773-0.46996 0.26191-0.75645 0.38649-0.55516 0.25835-0.5769 0.23912-0.5275 0.18383-0.46553 0.13254-0.47438 0.10742-0.42869 0.069308-0.33796-0.15414-0.323-0.12095-0.38675-0.119-0.42628-0.11198-0.90831-0.19967-0.92605-0.17018-0.91544-0.14226-0.89845-0.10839-0.88329-0.057546-0.74231 0.003838-2.7019 0.088089-0.81848 0.080556-0.78936 0.14338-0.37552 0.097211-0.35594 0.11757-0.90318 0.39139-0.24962 0.076943-0.11176 0.015205-0.22459-0.014594-0.13639-0.043341-0.16425-0.090965-0.18236-0.14403-0.56627-0.53097-0.41698-0.30013-0.37746-0.23199-0.61574-0.31571-1.4288-0.61962-0.67395-0.27126-2.3613 0.70135-0.8561 0.23091-0.97894 0.24278-2.6306 0.58686-3.4585 0.67314-0.67403 0.14967-0.63652 0.16943-0.83652 0.25349-0.61193 0.13512-0.64163 0.093884-0.66363 0.060892-0.67942 0.033643-0.69022 0.009938-1.1335-0.029318-1.1365-0.08099-1.0364-0.12238-2.4869-0.42648-0.659-0.0856-0.30158-0.014776-0.31212 0.007837-0.37194 0.037226-0.44061 0.074378-0.61922 0.14641-0.62713 0.18704-0.63308 0.22012-0.63711 0.24798-1.151 0.50753-2.3259 1.1268-0.59409 0.25516-1.5495 0.60757-0.56997 0.2413-0.802 0.3873-0.68173 0.39909-0.3914 0.26937-0.30264 0.2438-0.17324 0.17715-0.041936 0.1013 0.016487 0.11417 0.026823 1.2383 0.04283 1.0702 0.086222 1.0613 0.068635 0.50218 0.093477 0.47284 0.12677 0.4352 0.17122 0.3876 0.23018 0.32744 0.27416 0.2403 0.32173 0.19318 0.35458 0.16046 1.5344 0.53212 0.36949 0.15258 0.34685 0.1801 0.31411 0.2198 0.29406 0.29252 0.25585 0.3393 0.22878 0.37313 0.21059 0.39698 0.728 1.556 0.22684 0.45352 0.37636 0.67815 0.40927 0.66773 0.79208 1.1684 2.6208 3.6259 1.0568 1.5845 0.094061 0.10277 0.023384 0.11911-0.01606 0.21857-0.11546 0.45453-0.017784 0.15676 0.015759 0.34026 0.057326 0.35729 0.69526 3.1369 0.94198 3.755-0.2315 0.029194-0.48318 0.10886-0.63913 0.16666-0.63856 0.19004-0.88044 0.31934-0.875 0.39284-0.61324 0.31677-0.60344 0.34346-0.60037 0.36688-1.0105 0.65382-1.9502 1.3224-0.81285 0.51567-0.69549 0.38743-0.41666 0.19544-0.35699 0.14057-0.95372 0.29715-1.4948 0.39312-0.97188 0.19959-0.76191 0.1294-0.60248 0.12372-1.4073 0.33847-3.4093 0.74459-0.70736 0.12839-0.7292 0.089967-0.66979 0.03584-0.52549-0.031941-0.27272-0.048097-0.57396-0.19014-0.37166-0.18744-0.29257-0.19621-0.34554-0.29145-0.40386-0.4215-0.24962-0.30615-0.30608-0.43658-0.18094-0.30268-0.19454-0.37562-0.14578-0.32453-0.17458-0.45367-0.44231-1.4637-0.20663-0.53684-0.20504-0.3571-0.24211-0.32523-0.24643-0.26523-0.21755-0.18227-0.62381-0.431-0.52197-0.31925-0.23362-0.099627-0.13345-0.036661-0.31693-0.027499-0.22657 0.032781-0.13074 0.040343-0.17267 0.074938-0.22429 0.12722-0.45266 0.33181-0.99379 0.86016-0.81289 0.62667-3.0003 2.0837-1.4111 0.9205-0.51546 0.37293-0.63875 0.51652-0.3913 0.35218-0.33649 0.34334-0.22949 0.26246-0.41392 0.52319-1.0949 1.4368-0.92664 1.3512-0.6669 0.9242-0.87568 1.1103-0.4084 0.45112-0.37635 0.33939-0.34408 0.25971-0.59347 0.35905-0.24313 0.12159-0.39625 0.17646-0.49128 0.1929-1.4323 0.4854-0.44774 0.17103-0.60204 0.30747-0.51232 0.38887-0.41975 0.42342-0.37073 0.45898-0.31398 0.4601-0.24712 0.42672-0.16693 0.36081-0.039486 0.20623 0.072266-0.027838 0.13134 0.006686 0.20101 0.078046 0.084771 0.055522 0.12089 0.11076 0.098766 0.13451 0.066786 0.13804 0.039823 0.12931 0.026496 0.16403 0.005052 0.16346-0.021783 0.21558-0.044472 0.18931-0.090731 0.25221-0.13326 0.29184-0.35342 0.66614-0.4305 0.60991-0.44031 0.56574-0.34522 0.38755-0.31639 0.3197-0.33566 0.30795-0.36486 0.30132-0.38198 0.28128-0.39395 0.26082-0.40162 0.24045-0.40585 0.21896-0.53435 0.25065-1.4104 0.59315-0.65671 0.24704-1.5543 0.52802-1.0997 0.42423-0.58986 0.27626-0.87367 0.45746-1.2174 0.6034-0.65848 0.2898-0.44677 0.16501-0.82176 0.26016-0.86159 0.20704-0.36748 0.060048-0.47551 0.055696-0.58739 0.039124-0.44578 0.005381-0.54819-0.031789-0.63612-0.089538-0.89358-0.18877-0.8854-0.22203-0.38453-0.10934-0.61634-0.203-0.06293-0.048467-0.19076-0.071805-0.62109-0.17461-1.5962-0.3506-1.0342-0.2467-1.9929-0.5427-0.7188-0.21547-0.67247-0.22338-0.91388-0.35839-0.40616-0.18406-0.46978-0.24761-0.39429-0.26378-0.335-0.29285-0.8791-0.95397-0.29962-0.28427-0.32661-0.23704-0.30216-0.15193-0.32502-0.12042-1.0765-0.31605-0.32208-0.10753-0.42568-0.17747-0.32105-0.1698-0.43573-0.28877-0.31974-0.25683-0.24417-0.22139-0.21303-0.21094-0.37448-0.41118-0.35922-0.43768-0.34823-0.45789-0.67583-0.95962-0.99063-1.5172-0.9641-1.5594-0.97515-1.6288-1.9759-3.3754-0.083616-0.2079-0.099797-0.18336-0.58528-0.94703-0.39158-0.5526-0.38702-0.4779-0.46744-0.52006-0.37026-0.36785-1.1605-1.0091-0.76397-0.727-0.55197-0.58593-0.47921-0.57124-0.41695-0.56319-0.40715-0.59849-0.31373-0.51576-0.54282-0.94934-0.38103-0.59522-0.31305-0.43619-0.30193-0.38144-0.32097-0.36385-0.48551-0.4762-1.1259-0.98194-0.75075-0.59631-1.3659-0.99165-0.29496-0.24064-0.58627-0.54972-0.5547-0.59986-0.53278-0.63043-1.5444-1.9024-0.5194-0.58043-0.53269-0.52106-0.55317-0.43758-0.40806-0.25113-0.77471-0.41037-0.35093-0.2052-0.29821-0.21256-0.41197-0.38945-0.38252-0.46211-0.24182-0.33296-0.49122-0.74154-2.117-3.4135-1.9316-3.0039-0.4259-0.68272-0.42504-0.72849-0.28035-0.54215-0.15393-0.34245-0.23672-0.67518-0.099769-0.42262-0.056815-0.38081-0.031369-0.52666-0.024721-1.1087-0.042103-0.89558-0.004658-0.66971 0.03874-0.60113 0.08198-0.55302 0.056511-0.26126 0.2115-0.75305 0.1758-0.4718 0.4185-0.91244 0.15647-0.38497 0.57951-1.6497 0.26119-0.60425 0.19908-0.35865 0.23603-0.33364 0.39979-0.41653 0.46533-0.37494 0.5091-0.35287 2.901-1.9068 0.65352-0.47218 0.54198-0.4319 0.75978-0.65184 2.1089-1.9683 0.93673-0.88905 0.62438-0.63958 0.59344-0.6832 1.0371-1.2949 2.1497-2.8945 0.4056-0.56941 0.37385-0.57179 0.75763-1.2602 0.25026-0.35317 0.27291-0.34721 0.48914-0.56097 0.52883-0.55388 1.9019-1.8508 0.66049-0.66399 0.5064-0.54422 0.46914-0.55108 0.41754-0.55473 0.26083-0.39326 0.52258-0.84903 0.24522-0.43178 0.26207-0.53077 0.11232-0.2452 0.053827-0.15533-0.010567-0.040803-0.68584-1.0723-0.62637-1.1499-0.28364-0.54525-0.19608-0.41398-0.16194-0.39874-0.089283-0.26635-0.063472-0.26432-0.017329-0.1427 3.18e-4 -0.14001 0.025054-0.1481 0.08444-0.21434 0.26706-0.38903 0.049238-0.106 0.023209-0.121-0.001187-0.13243-0.020178-0.14176-0.080865-0.30405-0.11379-0.31699-0.22893-0.55384-0.91581 0.29168-1.1673 0.29681-0.44776 0.087754-0.58382 0.082109-0.63739 0.067666-0.76756 0.04649-0.40081 0.009423-0.84169-0.030055-0.4661-0.053473-0.50405-0.10758-0.48681-0.15182-0.21466-0.081525-0.6267-0.30916-0.26859-0.16996-0.50775-0.3676-0.4853-0.40035-0.55692-0.5316-0.73331-0.7532-1.3705-1.5445-0.22537-0.23766-0.22662-0.21087-0.11955-0.091816-0.33277-0.18086-0.2352-0.083594-0.24903-0.051357-0.51772 0.004875-0.74249 0.12706-0.68556 0.15973-0.58445 0.15621-0.53742 0.19322-0.94841 0.41118-0.64783 0.30449-1.872 0.9871-1.5374 0.77087-0.91925 0.39878-0.88244 0.31038-0.75868 0.21512-0.48875 0.11316-3.3136 0.66717-1.0933 0.24055-2.1589 0.50804-3.574 0.88267-0.90294 0.23428-0.90461 0.26833-0.6157 0.21113-0.61542 0.23127-2.6515 1.075-1.0212 0.39233-1.8999 0.70095-1.5011 0.59146-1.0846 0.46394-1.0036 0.45686-0.68276 0.34411-0.20023 0.12169-0.067562 0.069384-0.12018-0.18066-0.21653-0.48037-0.26394-0.67575-0.27337-0.80196-0.26342-0.90319-0.24283-0.95066-0.89425-3.8866-0.48933-1.8362-0.52464-1.7843-0.53798-1.7453-1.0111-3.2161-1.1561-3.593-0.37725-1.2246-0.39349-1.3319-1.2231-4.2991-1.2658-4.5962-0.32534-1.2416-0.14815-0.48039-0.28142-0.63049-0.37531-0.59281-0.46477-0.53774-0.55546-0.46003-0.6432-0.36174-0.71453-0.2801-0.76374-0.21775-1.8504-0.3904-0.42611-0.1023-0.49723-0.14479-0.51974-0.19738-0.59174-0.30529-0.55256-0.35337-0.51695-0.36824-0.82257-0.63138-0.26474-0.24474-0.098039-0.17208 0.052987 0.017724 0.29912-0.027974 0.74945-0.15503 0.5938-0.17054 0.82166-0.2903 0.63565-0.2694 0.50609-0.24658 0.67079-0.37682 0.70196-0.46547 0.30379-0.22808 0.48972-0.41309 0.431-0.43387 0.30194-0.37374 0.2553-0.40462 0.17912-0.36645 0.15046-0.38125 0.17902-0.55556 0.43758-1.5624 0.11337-0.47516 0.050037-0.48381-0.064313-0.63665-0.1811-0.66925-0.26469-0.69251-0.32185-0.70823-1.4719-2.8753-0.33155-0.70332-0.282-0.68523-0.21024-0.65917-0.11136-0.62317 0.021056-0.57464 0.17372-0.51355 0.27864-0.46905 0.63118-0.86657 0.23431-0.42427 0.095428-0.43496-0.10385-0.4802-0.27727-0.50094-0.39956-0.51744-0.47886-0.53073-1.0468-1.0928-0.49623-0.55961-0.42596-0.5678-0.3083-0.57618-0.101-0.33158-0.03077-0.455 0.086353-0.44795 0.20885-0.46775 0.35619-0.56981 0.30783-0.42453 0.21348-0.26316 0.44351-0.49084 0.43624-0.43816 0.47149-0.44236 0.79812-0.69915 0.43633-0.36168 1.1477-0.88634 0.82256-0.57078 0.79294-0.508 1.3898-0.81404 0.13934-0.12433 0.40049-0.1909 0.57038-0.21742 0.65079-0.2059 2.1894-0.60799 0.72973-0.23027 0.89624-0.33296 0.88983-0.38485 0.33711-0.17139 0.6844-0.41088 2.269-1.5419 1.2864-0.9261 0.5776-0.37252 0.42284-0.21876 0.62761-0.258 0.6466-0.24036 0.83789-0.26318 0.84654-0.28986 0.56241-0.21402 0.60026-0.27392 0.38826-0.1997 0.88943-0.50028 2.3012-1.3798 0.49817-0.28264 0.8311-0.42544 0.4032-0.17538 0.47494-0.17169 0.54398-0.13498 0.49529-0.048456 0.8295 7.54e-4 0.52247-0.015021 0.29699-0.031612 0.30737-0.062931 0.56835-0.2032 0.89221-0.42789 0.59298-0.30422 0.64993-0.39151 0.3696-0.27493 0.26173-0.22774 0.28237-0.27705 0.46498-0.51995 1.3266-1.6869 0.21585-0.25025-0.043712-0.049136-0.042388-0.10692-0.032063-0.17448-0.012021-0.26297 0.021193-0.28588 0.064352-0.31399 0.16505-0.41356 0.3905-0.52686 0.55125-0.46702 0.6692-0.4096 0.7504-0.35913 0.8034-0.31565 0.83614-0.27743 0.99325-0.27868 1.199-0.27701 0.7911-0.14959 2.1698-0.34689 0.83722-0.1027 0.82544-0.066142 0.81166-0.014943 1.9648 0.094633 1.1861-2.73e-4 1.018-0.057192 0.71661-0.061142 1.8346-0.17305 1.2449-0.14559 3.4488-0.51972 1.5137-0.20803 0.7047-0.12004 0.40095-0.08499 0.42155-0.10628 0.74528-0.2278 0.7045-0.26449 0.68396-0.3123 0.65396-0.3675 0.61164-0.43387 0.3499-0.30744 0.35863-0.37606 0.36882-0.45829 0.29206-0.41584 0.40915-0.661 0.46411-0.86623 0.36653-0.78407 0.42662-1.0189 0.31645-0.85253 0.2078-0.70652 0.12609-0.57935 0.070445-0.43087 0.043644-0.3918 0.005643-0.18882-0.010158-0.08683-0.016117-0.017247 0.83466 0.075251 0.8363 0.11256 2.51 0.50027 0.51382 0.15136 1.7786 0.65821 0.56582 0.155 0.52798 0.08466 0.46957 0.035879 0.27641 0.005828 0.34278-0.015333 0.23675-0.032804 0.23829-0.050253 0.35-0.098868 0.3524-0.12206 1.9883-0.81066 0.56621-0.18548 0.31348-0.084881 0.3472-0.079853 0.69745-0.11878 1.5867-0.17975 0.40605-0.075416 0.31184-0.085706 0.28099-0.11648 0.2407-0.15821 0.11425-0.1114 0.2021-0.29494 0.098041-0.20988 0.083288-0.22435 0.3467-1.1125 0.087096-0.20242 0.10171-0.18336 0.15662-0.19717 0.11418-0.098405 0.13819-0.090083 0.26063-0.12274 0.51832-0.1668 0.20168-0.040761 0.083166 0.007832 0.063789-0.29683 0.34803-1.2126 0.12749-0.49776 0.10455-0.56618 0.12877-0.84989 0.095493-0.48788 0.077438-0.30284 0.25029-0.84714 0.1665-0.50186 0.19755-0.49417 0.25676-0.50632 0.3245-0.51772 0.99927-1.2942 0.25874-0.3661 0.5099-0.81796 0.48923-0.86281 0.12708-0.20255 0.1912-0.26234 0.44136-0.45564 0.52426-0.41552 0.57568-0.388 1.7909-1.0902 0.44301-0.23527 0.49962-0.2361 0.58338-0.2476 1.1012-0.42526 0.44752-0.21075 0.12113-0.070681 0.18895-0.12819 0.18215-0.14974 0.18446-0.18867 0.24408-0.35995 0.1958-0.58251 0.058538-0.34565 0.039493-0.36756 0.085282-1.324 0.056357-0.64661 0.11859-0.88031 0.090271-0.47071 0.15675-0.6164 0.21497-0.64616 0.12184-0.30573 0.19792-0.43138 0.22522-0.41379 0.31643-0.48835 0.45335-0.62957 0.6275-0.80815 1.6846-2.0698 0.5389-0.6989 0.48084-0.65783 0.82842-1.1815 1.4356-2.1067 0.88183-1.341 0.44893-0.65238 1.9999-2.6573 0.47535-0.68217 0.43159-0.69342 0.366-0.70801 0.27382-0.72693 0.047751-0.17395 0.13779-0.69422 0.19596-1.3948 0.1167-0.61266 0.15571-0.59979 0.20798-0.57664 0.27617-0.54189 0.25838-0.37574 0.41942-0.48869 0.43588-0.43189 0.69661-0.61516 0.79066-0.63532 0.8086-0.60298 0.50251-0.3513 0.756-0.49242 0.73406-0.44143 0.76094-0.4241 0.78672-0.40464 0.86253-0.40388 1.0002-0.41975 0.92641-0.35555 1.0592-0.3799 0.96691-0.32727 2.2584-0.71736 0.2141-0.081314 0.36614-0.090356 0.31221-0.033885 0.186 0.030214 0.089054 0.043694 0.15571 0.13097 0.13724 0.16334 0.24984 0.36142 1.8861 2.9412-0.16032 0.20136-0.26654 0.40677-0.3952 0.6399-0.4207 0.72126-0.51482 0.9636-0.31598 0.70093-0.24477 0.68532-0.22188 0.76908-0.20651 0.89872-0.15985 0.97909-0.048605 0.49603-0.022372 0.54052 0.018456 0.58714 0.06342 0.58212 0.12791 0.72832 0.38363 1.6753 0.49243 2.4547 0.17468 0.79302 0.20295 0.82583 0.15351 0.55632 0.42296 1.3903 0.21379 0.75714 0.68929 2.7856 0.2199 0.71366 0.60642 1.7802 0.33094 1.1067 0.17691 0.80392 0.24514 1.6423 0.13303 0.64998 0.18726 0.59496 0.10082 0.25634 0.22578 0.48672 0.32822 0.5785 0.36474 0.53228 0.33441 0.40984 0.35311 0.36261 0.5332 0.46346 0.45674 0.34965 1.1726 0.8292 0.68607 0.54196 0.45274 0.42027 0.19815 0.2048 0.39644 0.43713 0.38115 0.44919 1.3576 1.6498 0.36816 0.5013 0.30829 0.52171 0.20796 0.46093 0.52622 1.3245 0.14993 0.41799 0.13073 0.43497 0.099468 0.43425 0.070012 0.42078 0.056085 0.54304 0.034764 0.73305 0.023189 1.2463 0.032312 0.76258 0.075158 0.75721" stroke="#bdc660"/>
    </defs>
    <g clip-path="url(#pe0ddfe17f3)">
     <use y="280.512" fill="#bdc660" stroke="#bdc660" xlink:href="#ma8e01b2968"/>
    </g>
   </g>
  </g>
 </g>
 <defs>
  <clipPath id="pe0ddfe17f3">
   <rect x="7.2" y="7.2" width="245.94" height="266.11"/>
  </clipPath>
 </defs>
</svg>
