<?xml version="1.0" encoding="UTF-8"?>
<!DOCTYPE svg  PUBLIC '-//W3C//DTD SVG 1.1//EN'  'http://www.w3.org/Graphics/SVG/1.1/DTD/svg11.dtd'>
<svg width="272.55pt" height="280.51pt" version="1.1" viewBox="0 0 272.55 280.51" xmlns="http://www.w3.org/2000/svg" xmlns:xlink="http://www.w3.org/1999/xlink">
 <metadata>
  <rdf:RDF xmlns:cc="http://creativecommons.org/ns#" xmlns:dc="http://purl.org/dc/elements/1.1/" xmlns:rdf="http://www.w3.org/1999/02/22-rdf-syntax-ns#">
   <cc:Work>
    <dc:type rdf:resource="http://purl.org/dc/dcmitype/StillImage"/>
    <dc:date>2024-07-04T12:10:31.000476</dc:date>
    <dc:format>image/svg+xml</dc:format>
    <dc:creator>
     <cc:Agent>
      <dc:title>Matplotlib v3.7.1, https://matplotlib.org/</dc:title>
     </cc:Agent>
    </dc:creator>
   </cc:Work>
  </rdf:RDF>
 </metadata>
 <defs>
  <style type="text/css">*{stroke-linejoin: round; stroke-linecap: butt}</style>
 </defs>
 <g id="figure_1">
  <g id="patch_1">
   <path d="m0 280.51h272.55v-280.51h-272.55v280.51z" fill="none"/>
  </g>
  <g id="axes_1">
   <g id="PatchCollection_1">
    <defs>
     <path id="mc9ce2a853b" d="m237.84-182.46-0.024345 0.089484-0.15516-0.010186-0.40841 0.029185-0.55393 0.073572-0.62466 0.12437-0.64204 0.18232-0.65864 0.26571-0.59818 0.34238-0.5073 0.42314-0.40299 0.51706-0.30262 0.58124-0.22492 0.6206-0.1654 0.63919-0.11923 0.64022-0.081865 0.62567-0.049215 0.5963-0.004591 0.59499 0.061374 0.43205 0.12139 0.41807 0.23699 0.5167 0.31656 0.54694 0.19244 0.30197 0.3124 0.44804 0.3662 0.47592 0.55562 0.64775 0.24197 0.30508 0.10615 0.15889 0.27122 0.52855 0.21718 0.59675 0.17659 0.64582 0.1461 0.67985 0.12297 0.70193 0.10496 0.71431 0.16764 1.4337 0.12787 1.3874 0.16881 1.2688 0.15755 1.341 0.19448 2.0441 0.091236 1.3333 0.042385 1.2582-0.018864 1.3023 0.027543 0.39742 0.055888 0.2975 0.043626 0.15603 0.18617 0.48473 0.41371 0.94189 0.44482 1.1734 1.6912 4.9788 0.42109 1.1616 0.22533 0.56797 0.24617 0.57462 0.54813 1.2166 0.57396 1.3498 0.20566 0.55126 0.1565 0.53633 0.080687 0.51244-0.02253 0.47058-0.14331 0.41377-0.26323 0.32996-0.35458 0.27529-0.40812 0.24058-0.8392 0.44737-0.36295 0.24013-0.27619 0.27407-0.086353 0.14024-0.10208 0.31782-0.032361 0.28918 0.003785 0.3549 0.03647 0.38005 0.05967 0.39504 0.12656 0.6096 0.11675 0.40014 0.12617 0.31518 0.2307 0.43894 0.27118 0.43103 0.29674 0.39911 0.23392 0.25189 0.23358 0.19172 0.15734 0.097326 0.21105 0.095419 0.17364 0.053636 0.18684 0.037911 0.32713 0.031219 0.32169 0.002758 0.29758-0.020428 0.32906-0.044263 1.1636-0.2374 0.29618-0.023397 0.32614 0.025748 0.31182 0.094661 0.23692 0.13538 0.23497 0.19491 0.22225 0.24218 0.33207 0.471 0.27697 0.4971 0.17539 0.36612 0.1682 0.39053 0.15952 0.40897 0.19946 0.57049 0.2983 0.99652 0.1657 0.64739 0.20802 0.96014 0.084754 0.47077 0.072367 0.51863 0.28559 1.3352 0.12277 0.79652 0.030311 0.48756-0.01136 0.32798-0.044236 0.31049-0.063166 0.23338-0.091096 0.2166-0.16724 0.25953-0.15959 0.1838-0.17494 0.17191-0.35887 0.32384-0.25491 0.25184-0.13487 0.16147-0.12321 0.18563-0.076804 0.15195-0.056899 0.1495-0.059224 0.25363-0.021062 0.21144 0.001404 1.2952 0.01692 0.23643 0.025241 0.14843 0.074922 0.25431 0.049476 0.11197 0.087689 0.15137 0.092989 0.12794 0.13766 0.15879 0.30061 0.28118 0.31928 0.24378 0.17759 0.11818 0.15242 0.090696 0.29261 0.14351 0.33157 0.10796 0.2892 0.05066 0.2643 0.020276 0.65451 0.010241 0.32905 0.017345 0.28915 0.038493 0.22725 0.050977 0.28905 0.085713 1.1474 0.41361 0.4959 0.16395 0.39341 0.10853 0.24376 0.046646 0.042987-0.004325-0.21839 0.94125-0.14665 0.75588-0.13119 0.7916-0.14723 1.1193-0.10157 1.0842-0.080097 1.3213-0.038388 0.94543-0.011527 1.0445 0.029842 1.4736 0.10217 1.8053 0.52066 6.6816 0.092379 1.0121 0.11618 1.0187 0.20581 2.2074 0.1114 1.8544 0.029561 0.96068 0.007133 0.94123-0.044526 1.599-0.10864 1.6294-0.21316 2.2054-0.28387 2.3354-0.43274 3.1534-0.13782 0.87576-0.15982 0.90286-0.32425 1.6177-0.35092 1.5248-0.21925 0.79942-0.12446 0.40061-0.29294 0.81794-0.16555 0.40421-0.21317 0.47337-0.22692 0.45862-0.23541 0.43522-0.21656 0.36827-0.38511 0.58952-0.18539 0.23672-0.70624 0.6678-0.68318 0.58932-0.6649 0.53124-0.67059 0.49109-0.3581 0.22833-0.62855 0.35589-1.5968 0.79932-0.39438 0.21472-0.24746 0.15767-0.62263 0.36676-0.36427 0.18494-0.59905 0.24909-0.45615 0.14846-0.65046 0.16482-1.2825 0.26869-0.96094 0.1784-0.73537 0.11699-1.0009 0.13084-0.72014 0.075745-0.91899 0.071348-0.7167 0.037532-1.0374 0.012951-2.4732-0.047312-0.76242 0.012931-0.45031 0.025991-0.90437 0.077511-0.60746 0.071102-0.73668 0.10711-0.6592 0.11745-0.46223 0.09625-0.77408 0.18905-0.6897 0.20007-0.58957 0.19642-0.92242 0.3578-0.57825 0.25558-0.71941 0.35273-0.72667 0.39503-0.4736 0.27853-0.5847 0.36429-2.1517 1.4032-0.76724 0.46707-0.37448 0.2148-0.66751 0.35815-0.43596 0.2156-0.44049 0.20395-0.68762 0.29263-0.6893 0.2645-0.96273 0.32646-0.77238 0.22643-0.81435 0.20399-0.42377 0.091059-0.71546 0.12762-0.62515 0.083214-0.43162 0.039857-0.43155 0.023816-0.73359-1.89e-4 -0.4507-0.027065-0.44829-0.048819-0.4447-0.071799-0.6825-0.15744-0.4724-0.14206-0.46658-0.16563-0.40544-0.16348-0.82783-0.38317-0.66115-0.34364-0.67803-0.37631-2.5588-1.4771-0.64265-0.3535-0.79189-0.41278-0.60387-0.29426-0.60696-0.27537-0.66011-0.27186-0.52832-0.19408-0.49424-0.1614-0.6906-0.19353-0.67711-0.15297-0.71988-0.12072-0.64431-0.068441-0.48077-0.025393-0.6359 0.00212-0.59813 0.043758-0.50033 0.073225-0.40031 0.086724-0.43434 0.1277-0.37645 0.14351-0.34576 0.16221-0.39573 0.22534-0.40849 0.28018-0.41137 0.33366-0.36805 0.34324-0.32718 0.34007-0.51441 0.59263-0.30429 0.37788-2.521 3.3574-1.4502 1.8712-0.74281 0.92736-0.81746 0.9433-0.50821 0.53972-0.45209 0.44971-0.49381 0.46079-0.3796 0.33512-0.52987 0.44147-0.5468 0.42374-0.68005 0.48297-0.69928 0.44764-0.53034 0.30854-0.6902 0.36907-2.3735 1.1688-0.71982 0.3781-0.65258 0.37131-0.51553 0.31855-0.50405 0.34172-0.34979 0.26346-0.26681 0.24012-0.033352 0.070905-0.097847-0.007446-0.10894-0.10536-0.15618-0.2717-0.12437-0.33576-0.10525-0.44614-0.069955-0.55221-0.024994-0.62221 0.010131-0.53773 0.067265-1.4812-0.00172-0.34144-0.041104-0.51853-0.096742-0.44986-0.11137-0.29916-0.1926-0.34233-0.25505-0.30399-0.33845-0.27651-0.37258-0.21386-0.37131-0.15846-0.39383-0.13434-1.394-0.40777-1.2257-0.40888-0.46159-0.13496-0.31283-0.063474-0.28084-0.029528-0.35711 0.008885-0.23627 0.037954-0.22988 0.063572-0.30361 0.12869-0.30057 0.18258-0.31827 0.25069-0.63412 0.57795-0.30218 0.25158-0.26474 0.18694-0.27593 0.15767-0.23619 0.10739-0.24639 0.089251-0.2836 0.078613-0.293 0.05992-0.41914 0.057384-0.66161 0.044755-1.1145 0.036802-0.77407 0.06503-0.46454 0.078134-0.56412 0.14929-0.55121 0.21036-0.31454 0.14953-0.30893 0.16676-0.27441 0.16362-0.55726 0.37101-0.57595 0.42691-1.0168 0.81831 0.017808-0.14765-0.062572-0.20277-0.12678-0.22967-0.19952-0.24551-0.20906-0.18344-0.24002-0.15042-0.26217-0.10955-0.29853-0.082754-0.39975-0.078073-0.56078-0.082056-0.36577-0.071566-0.8186-0.26153-1.2294-0.3389-0.37059-0.13586-0.16242-0.081593-0.18728-0.12066-0.13126-0.11092-0.11213-0.1237-0.17812-0.3059-0.11303-0.35807-0.042822-0.24628-0.023482-0.25765-1.31e-4 -0.48246 0.036677-0.425 0.068083-0.42646 0.26036-1.132 0.221-0.80064 0.16728-0.49806 0.488-1.342 0.16662-0.50323 0.1158-0.39972 0.11852-0.50851 0.052046-0.32275 0.048783-0.59312-0.002072-0.32148-0.018589-0.21896-0.036201-0.2334-0.056799-0.2498-0.11735-0.37806-0.12597-0.33661-0.34135-0.84388-0.30848-0.80953-0.27538-0.78874-0.22539-0.69168-0.31245-1.0234-0.14389-0.54658-0.092134-0.43882-0.061877-0.42954-0.018233-0.22828-0.001183-0.38286 0.033787-0.31346 0.069355-0.29502 0.099632-0.25942 0.12566-0.23424 0.26671-0.34856 0.22373-0.1929 0.1614-0.05224-0.076731-0.45895-0.11026-0.52239-0.15-0.62224-0.27422-0.95776-0.22854-0.66502-0.26787-0.66451-0.28738-0.61648-0.18508-0.35457-0.25283-0.4401-0.20295-0.32449-0.30685-0.45249-0.29952-0.4113-0.54333-0.70855-1.1567-1.4342-0.44141-0.58868-0.46461-0.66868-0.46139-0.73359-0.24922-0.44555-0.24708-0.49347-0.5333-1.1725-0.087619-0.13522-0.068511-0.071623-0.05057-0.031434-0.053403-0.01294-0.18255 0.084309-0.2069 0.2341-0.7322 1.0754-0.21975 0.29318-0.242 0.2882-0.29904 0.30679-0.32564 0.28635-0.34726 0.26185-0.333 0.21693-1.1793 0.69767-0.38396 0.26181-0.34048 0.28585-0.27865 0.30521-0.30523 0.40012-0.38102 0.54224-0.28059 0.37088-0.75139 0.78142-0.15065 0.18042-0.20724 0.29102-0.49781 0.77239-0.47628 0.77264-0.51713 0.94845-0.26377 0.44524-0.12931 0.18676-0.18024 0.22452-0.18772 0.19244-0.11138 0.096474-0.26568 0.19235-0.29039 0.16885-0.39126 0.18396-0.41488 0.16035-0.45166 0.14963-0.95132 0.27066-0.49405 0.10843-0.87469 0.1479-1.2051 0.14885-1.161 0.10565-1.0949 0.059404-0.47839 0.004435-0.38322-0.010936-0.34443-0.023157-0.4506-0.0509-0.33466-0.054472-0.34727-0.074209-0.31314-0.086579-0.35638-0.1266-0.44705-0.20633-0.1923-0.10926-0.2512-0.1691-0.3468-0.29044-0.31064-0.32265-0.27201-0.3361-0.73268-1.0499-0.28064-0.38265-0.58829-0.76642-1.7002-2.1472-0.67837-0.90607-0.55095-0.81144-0.89826-1.4479-0.1868-0.27927-0.20899-0.27986-0.2383-0.26687-0.17712-0.15967-0.13012-0.096404-0.17703-0.10489-0.25557-0.10934-0.18463-0.05677-0.24025-0.054189-0.38343-0.051078-0.2549-0.012619-0.38618 0.009214-0.35336 0.040638-0.3065 0.062634-0.41449 0.12174-0.31228 0.11688-0.34252 0.15031-0.48572 0.24997-0.57927 0.35074-0.37908 0.25493-0.41781 0.30142-0.75456 0.58665-1.6227 1.3296-0.73965 0.55015-0.47289 0.30069-0.27732 0.15005-0.45336 0.19403-0.1768 0.056255-0.38811 0.084014-0.23979 0.028845-0.34271 0.017177-0.45192-0.010171-0.26186-0.018974-0.74668-0.095183-0.92674-0.17868-0.88574-0.21199-0.24073-0.073618-0.95241-0.35238-0.46731-0.14582-0.39893-0.095619-0.43562-0.081186-0.68835-0.092813-0.82052-0.07003-0.72303-0.033839-0.54083-0.010637-0.97153 0.010626-0.5814 0.025305-0.90816 0.074424-0.50008 0.063459-0.41059 0.067048-0.4337 0.088221-0.53298 0.13732-0.63789 0.21491-0.62824 0.26491-0.4789 0.23154-0.47368 0.25094-0.65989 0.38149-0.43141 0.26662-0.41802 0.26983-0.79463 0.54149-1.028 0.7516 0.10028 0.16015 0.21833 0.43422 0.25342 0.54578 0.62692 1.4633 2.4373 6.1732 0.93232 2.3167 0.26351 0.69051 0.42213 1.2013 1.3301 4.0948 0.24005 0.79904 0.11837 0.4509 0.13486 0.65136 0.057644 0.41303 0.091132 0.85825 0.043924 0.57385 0.017648 0.48833-0.004211 0.56503-0.050791 0.88352-0.081469 0.762-0.11145 0.65727-0.079246 0.34343-0.10781 0.38016-0.097449 0.28758-0.16857 0.4123-0.25448 0.50969-0.90748 1.572-0.2502 0.50232-0.21928 0.54154-0.12549 0.41845-0.039575 0.19142-0.026689 0.21356-0.003616 0.22916 0.01101 0.13352 0.037736 0.21278 0.054212 0.18639 0.10736 0.24872 0.082437 0.14791 0.14493 0.22448 0.16887 0.22624 0.10303 0.11994 0.21183 0.20283 0.17564 0.1281 0.21578 0.12033 0.16115 0.070903 0.26095 0.090489 0.19349 0.051208 0.32497 0.05839 0.35279 0.027984 1.0485 0.002102 0.26278 0.012789 0.27447 0.030337 0.19877 0.036495 0.38186 0.11468 0.2366 0.10474 0.16881 0.090192 0.26033 0.16124 0.27257 0.19202 0.46627 0.36731 0.35152 0.30542 0.24675 0.24745 0.030869 0.061545-0.81766 0.83311-1.0205 0.98898-2.0159 1.9275-2.9919 2.8287-2.0995 1.9413-1.4443 1.2705-1.0004 0.82594-0.59267 0.46528-0.60036 0.45243-0.82233 0.58684-0.46299 0.31324-0.88911 0.56844-0.90822 0.53722-0.48848 0.27144-0.88725 0.46338-0.80584 0.38992-0.75851 0.34102-0.69851 0.29284-0.64618 0.25161-0.70426 0.25348-0.90095 0.29504-1.3019 0.37482-1.1397 0.28732-1.3318 0.28745-0.81611 0.14951-1.3442 0.20532-0.72198 0.092152-2.2923 0.2375-3.2898 0.27185-5.3487 0.52024-3.0689 0.27979-5.4716 0.45766-7.0811 0.62834-2.7776 0.22945-0.40441-0.74008-0.5117-0.84168-0.18572-0.24736-0.26014-0.27366-0.10029-0.12724-0.7161-1.1198-0.48512-0.69628-0.091258-0.1271-0.1849-0.2075-1.2713-1.3468-0.60289-0.58714-0.35655-0.31532-0.24788-0.20144-0.48279-0.35184-0.57992-0.36768-0.52159-0.298-1.5108-0.81119-0.68589-0.41206-0.37476-0.26458-0.30413-0.25106-0.23771-0.23154-0.23689-0.27514-0.32116-0.45701-0.19741-0.33428-0.29995-0.59252-0.33199-0.77021-0.38385-1.0044-0.80889-2.2348-0.26914-0.82038-0.23623-0.86778-0.084663-0.40234-0.082245-0.56632-0.025661-0.37458-0.002216-0.42061 0.034148-0.58503 0.049594-0.4647 0.27199-1.8123 0.069242-0.55485 0.01403-0.19357-0.004562-0.50611-0.034275-0.35198-0.074246-0.52154-0.13833-0.74832-0.16528-0.74644-0.51219-2.1641-0.22725-1.098-0.13345-0.80155-0.049676-0.37981-0.057613-0.61073-0.022032-0.44431-0.002923-0.56363 0.012936-0.48284 0.065651-1.0401 0.13036-1.2725 0.37276-3.0415 0.06321-0.64728 0.044389-0.61853 0.025573-0.96919-0.01333-0.70781-0.039935-0.75422-0.061489-0.73978-0.10003-0.89605-0.14168-0.97454-0.1287-0.70636-0.2327-1.0167-0.18516-0.65236-0.18033-0.54447-0.15807-0.43225-0.83407-2.1113-0.16608-0.46514-0.1683-0.53147-0.17446-0.68495-0.066423-0.33145-0.091894-0.58588-0.077132-0.78924-0.018639-0.36948-0.006281-0.66894 0.02332-0.59242 0.0312-0.41717 0.058238-0.57756 0.29037-2.335 0.14906-1.2972 0.12686-1.4223 0.057527-1.1022 0.002555-0.95762-0.023762-0.51718-0.065026-0.73327-0.11262-0.80695-0.089195-0.47668-0.065349-0.2915-0.082882-0.29539-0.056791-0.10432 0.10303-0.016729 0.12622-0.039859 0.1539-0.07965 0.11427-0.092787 0.29614-0.29423 0.095843-0.064484 0.15374-0.05901 0.17146-0.01735 0.16612 0.02394 0.14742 0.055395 0.36793 0.1976 0.087722 0.02917 0.11313 0.003227 0.13364-0.050595 0.25991-0.20738 0.15145-0.097619 0.17542-0.070326 0.10804-0.018586 0.65059 0.089097 0.7194 0.14224 0.28475 0.076846 0.29547 0.10058 0.32226 0.14632 0.3083 0.19701 0.23568 0.21759 0.090165 0.11021 0.1144 0.17333 0.12533 0.25612 0.068197 0.18959 0.071107 0.27609 0.049697 0.32884 0.02037 0.3817-0.020393 0.55331-0.047473 0.45155-0.076621 0.49412-0.31608 1.5428-0.096724 0.58345-0.045148 0.37449-0.027728 0.36147-0.006889 0.39993 0.021694 0.33807 0.042712 0.25958 0.086869 0.27837 0.12453 0.22256 0.086294 0.10074 0.11786 0.1002 0.16081 0.093179 0.13654 0.052151 0.24424 0.047761 0.20288 0.004307 0.13973-0.011429 0.24338-0.042103 0.39893-0.11513 0.54923-0.21958 0.73176-0.34861 0.74023-0.39553 0.41629-0.24583 0.47624-0.30186 1.4781-1.0038 0.77363-0.50031 0.78781-0.47444 1.6855-0.97854 0.97295-0.60114 0.79296-0.54265 0.8618-0.63542 2.9142-2.2723 0.39597-0.34003 0.5128-0.47969 0.28189-0.23947 0.21715-0.15553 0.27713-0.15902 0.2612-0.11041 0.378-0.10406 1.0511-0.16976 1.1115-0.20903 1.5931-0.23316 0.64156-0.1281 0.40001-0.1154 1.4482-0.49048 0.2736-0.12245 0.2617-0.1596 0.16419-0.12677 0.14103-0.12802 0.42846-0.46813 0.3937-0.39647 0.15386-0.20646 0.11273-0.22073 0.10676-0.32744 0.061389-0.30986 0.15077-1.3402 0.055907-0.38603 0.066238-0.3325 0.055816-0.21173 0.1089-0.31173 0.14428-0.29984 0.1172-0.18577 0.20542-0.24903 0.20673-0.19792 0.28038-0.22727 0.41524-0.29322 0.4044-0.25682 0.50195-0.28629 0.34861-0.1796 0.44029-0.19922 0.41976-0.16082 0.30768-0.10316 2.6104-0.76881 1.0165-0.3428 0.66522-0.25227 1.1931-0.49507 1.1205-0.42148 1.0534-0.44164 0.35767-0.13603 0.39349-0.10891 0.19566-0.036484 0.31463-0.035782 0.24328-0.009956 0.32975 0.008185 0.36122 0.034252 0.37054 0.058547 0.33222 0.067551 0.41342 0.10181 0.42494 0.12602 0.36321 0.1207 0.41271 0.15564 0.74381 0.34068 1.2035 0.60762 0.35292 0.20565 0.90101 0.57822 0.34926 0.19818 0.36322 0.16575 0.4579 0.15525 0.35137 0.08504 0.21833 0.037317 0.38325 0.035936 0.32185 0.00137 0.32456-0.024154 0.35865-0.053052 0.30471-0.068461 0.23628-0.079628 0.088589-0.064796-1.8138-2.1029-0.37207-0.47681-0.20533-0.33332-0.1473-0.35412-0.16224-0.53088-0.77511-3.0247-0.008938-0.16043-0.1257-0.73866-0.12364-0.57213-0.15239-0.60532-0.25872-0.84054-0.24798-0.6373-0.17968-0.38814-0.19304-0.37273-0.42437-0.72207-0.43637-0.6585-0.77776-1.0814-0.21762-0.34112-0.22467-0.39025-0.2526-0.481-0.53911-1.1283-0.47307-1.0693-0.39931-0.9902-0.15089-0.40539-0.26206-0.76974-0.23279-0.80386-0.12257-0.52408-0.088164-0.49128-0.035885-0.28421-0.024347-0.32958-0.002779-0.41461 0.082393-1.0989 0.002219-0.36882-0.015889-0.29702-0.042704-0.40665-0.06948-0.44623-0.094573-0.47608-0.1474-0.61628-0.16144-0.58868-0.24641-0.81549-0.4506-1.3742-0.78679-2.2394-1.5257-4.2402-0.5161-1.5336-0.2527-0.86325-0.15675-0.64566-0.065198-0.3268-0.057644-0.3592-0.043995-0.40997-0.013632-0.39925 0.009506-0.24151 0.038875-0.32156 0.073317-0.31017 0.075271-0.21239 0.21911-0.43362 0.25795-0.37516 0.33012-0.38945 0.3095-0.31456 0.28094-0.25868 0.3858-0.32726 0.32171-0.25487 0.57358-0.42378 0.71009-0.48366 0.74641-0.46736 0.84281-0.47739 0.68324-0.3438 0.60946-0.27828 2.4163-1.019 0.60576-0.29884 0.47246-0.28788 0.35142-0.28266 0.16407-0.17552 0.15444-0.22652 0.08625-0.19693 0.035929-0.13373 0.021179-0.14827 0.004148-0.15391-0.021244-0.22284-0.049184-0.22587-0.050088-0.16291-0.080682-0.21137-0.15188-0.32287-0.16032-0.28931-0.36982-0.57043-0.45543-0.59917-0.32843-0.3839-0.4555-0.47932-0.38131-0.35929-0.38108-0.32357-0.29077-0.2224-0.21729-0.15133-0.39976-0.24414-0.57587-0.29555-1.1082-0.51766-0.52085-0.25595-0.49752-0.26272-0.37546-0.21531-0.48156-0.31016-0.20219-0.14938-0.1769-0.15306-0.074222-0.15434 0.080281 0.014068 0.056288-0.029099 0.10899-0.09026 0.18166-0.20557 0.22554-0.31331 0.35052-0.56446 0.77307-1.3714 0.79555-1.3464 0.46306-0.75073 0.46059-0.68707 0.24983-0.34044 0.40986-0.5026 0.23355-0.25056 0.261-0.24643 0.4128-0.32162 0.93404-0.63652 1.2256-0.93103 0.74267-0.52586 0.57071-0.36045 1.9415-1.1306 0.39038-0.2476 0.34027-0.23679 0.4396-0.35158 1.0031-0.9168 0.79104-0.67164 0.55421-0.43904 0.45232-0.33579 0.53682-0.37757 0.75995-0.50249 0.96507-0.58904 0.59507-0.329 0.80279-0.39117 0.51183-0.21154 0.49338-0.17271 0.48564-0.13692 0.59603-0.11532 0.50259-0.049102 0.60582-0.029591 0.55557 0.00166 0.34071 0.019624 0.33511 0.037478 0.3332 0.06022 0.32297 0.087226 0.29814 0.11184 0.33174 0.15716 0.27656 0.15237 1.0994 0.66625 0.17436 0.092778 0.326 0.14175 0.29384 0.082596 0.20532 0.033086 0.44395 0.018666 0.32798-0.02121 0.46363-0.061039 0.49913-0.092095 0.37545-0.084277 0.87734-0.24834 1.4642-0.501 0.39401-0.10635 0.37217-0.048256 0.30081 0.015918 0.27778 0.070064 0.1986 0.081825 0.27063 0.14921 0.42072 0.3001 0.59007 0.46942 0.30948 0.22227 0.32943 0.19482 0.26547 0.12128 0.21733 0.079826 0.30801 0.084246 0.33846 0.061606 0.41094 0.042856 0.55089 0.017716 0.53305-0.015108 0.43581-0.029735 0.72748-0.075025 1.0548-0.14795 0.56586-0.094107 1.1163-0.21854 0.93181-0.22683 0.78146-0.23305 0.77639-0.28172 0.511-0.21933 0.434-0.21238 0.61958-0.3496 0.45956-0.29882 0.44366-0.32771 0.32756-0.27122 0.56584-0.51798 1.2768-1.2375 0.37863-0.3399 0.5244-0.43866 0.77871-0.59252 0.58757-0.40784 0.53428-0.32864 0.1143-0.033206-0.029035-0.015495-0.003787-0.03332 0.05158-0.087269 0.12537-0.12082 0.17795-0.13696 1.8192-1.1815 0.99592-0.6949 2.1819-1.6465 3.5604-2.597 2.1046-1.5856 2.2009-1.4783 4.8231-3.4154 3.5638-2.5583 7.7781-5.6286 15.996-11.417 3.5396-2.4868 1.6023-1.0849 0.74623-0.4757 0.20644-0.22702 0.79525-0.97545 2.1082-2.6529 12.768-16.253 4.6776-6.0215 7.1103-9.2168 12.848-16.432 0.13524 0.044466 0.36978 0.063429 2.6865 0.40535 0.80205 0.1439 0.79873 0.17167 0.80893 0.21346 0.78942 0.24761 0.76736 0.27803 0.74322 0.30755 0.71662 0.33919 0.61374 0.33083 0.59249 0.35472 0.57266 0.37534 0.55304 0.39457 0.53237 0.4141 0.50929 0.43561 0.54674 0.52215 0.517 0.54794 0.48941 0.56986 0.46123 0.59033 0.42969 0.61156 0.36183 0.57844 0.33552 0.59426 0.31229 0.60713 0.29015 0.61821 0.26717 0.62852 0.22789 0.59709 0.20831 0.60438 0.1902 0.61038 0.17218 0.6156 0.15285 0.62046 0.12896 0.61044 0.10968 0.61414 0.090832 0.61716 0.071125 0.61972 0.047638 0.58042 0.048111 1.1646-0.009854 1.2717-0.028975 0.68822-0.10103 1.3743-0.072841 0.68516-0.084024 0.64503-0.20986 1.284-0.12571 0.63832-0.3182 1.3711-0.3633 1.3586-0.4105 1.4534-0.18816 0.72662-0.15907 0.72957-0.10003 0.60928-0.067149 0.61196-0.030696 0.61373 0.004422 0.5 0.028512 0.50021 0.064411 0.62234 0.090354 0.62195 0.11092 0.6214 0.2693 1.2401 0.15988 0.63983 0.35539 1.2728 0.40574 1.258 0.22343 0.61214 0.2402 0.60495 0.2582 0.5964 0.27884 0.58582 0.32305 0.61024 0.34894 0.59483 0.37464 0.57798 0.41234 0.57376 0.43898 0.55282 0.46545 0.5299 0.49018 0.5019 0.51459 0.47686 0.53721 0.45127 0.49327 0.3761 0.50932 0.35447 0.52472 0.3319 0.40773 0.23537 0.41596 0.22164 0.56928 0.27666 0.58007 0.25703 1.1837 0.46864 1.2556 0.43649 1.3231 0.40658 0.64897 0.18115 1.3063 0.33428 1.3147 0.30068 2.5774 0.54435 0.57596 0.14202 0.56878 0.16067 0.56852 0.18869 0.55645 0.2172 0.64184 0.29768 0.61972 0.34009 0.54429 0.34648 0.52449 0.37713 0.50448 0.40467 0.47372 0.4219 0.45159 0.44547 0.42661 0.46888 0.43626 0.54302 0.40115 0.56865 0.36376 0.59188 0.3306 0.63127 0.2846 0.65128 0.23384 0.66895 0.17714 0.68688 0.12047 0.69853 0.062578 0.70586 0.00667 0.52826-0.025863 0.5286-0.056971 0.52729-0.11111 0.64256-0.15234 0.63623-0.19092 0.62771-0.19737 0.53831-0.22448 0.52897-0.33722 0.68419-0.38224 0.66261-0.30688 0.46559-0.33028 0.45188-0.47769 0.58594-0.51057 0.56483-0.42841 0.4403-1.5212 1.5116-0.49131 0.5019-0.82854 0.87904-0.82922 0.942-0.40191 0.49059-0.39317 0.50482-0.43245 0.58576-0.4186 0.60058-0.3821 0.58108-0.63959 1.0525-0.25779 0.4581-0.44072 0.84403-0.29949 0.63803-0.093255 0.22511" stroke="#bdc660"/>
    </defs>
    <g clip-path="url(#p7ed1a7360e)">
     <use y="280.512" fill="#bdc660" stroke="#bdc660" xlink:href="#mc9ce2a853b"/>
    </g>
   </g>
  </g>
 </g>
 <defs>
  <clipPath id="p7ed1a7360e">
   <rect x="7.2" y="7.2" width="258.15" height="266.11"/>
  </clipPath>
 </defs>
</svg>
