<?xml version="1.0" encoding="UTF-8"?>
<!DOCTYPE svg  PUBLIC '-//W3C//DTD SVG 1.1//EN'  'http://www.w3.org/Graphics/SVG/1.1/DTD/svg11.dtd'>
<svg width="325.24pt" height="280.51pt" version="1.1" viewBox="0 0 325.24 280.51" xmlns="http://www.w3.org/2000/svg" xmlns:xlink="http://www.w3.org/1999/xlink">
 <metadata>
  <rdf:RDF xmlns:cc="http://creativecommons.org/ns#" xmlns:dc="http://purl.org/dc/elements/1.1/" xmlns:rdf="http://www.w3.org/1999/02/22-rdf-syntax-ns#">
   <cc:Work>
    <dc:type rdf:resource="http://purl.org/dc/dcmitype/StillImage"/>
    <dc:date>2024-07-04T12:10:30.672696</dc:date>
    <dc:format>image/svg+xml</dc:format>
    <dc:creator>
     <cc:Agent>
      <dc:title>Matplotlib v3.7.1, https://matplotlib.org/</dc:title>
     </cc:Agent>
    </dc:creator>
   </cc:Work>
  </rdf:RDF>
 </metadata>
 <defs>
  <style type="text/css">*{stroke-linejoin: round; stroke-linecap: butt}</style>
 </defs>
 <g id="figure_1">
  <g id="patch_1">
   <path d="m0 280.51h325.24v-280.51h-325.24v280.51z" fill="none"/>
  </g>
  <g id="axes_1">
   <g id="PatchCollection_1">
    <defs>
     <path id="m395e340cea" d="m80.146-256.23-0.002253 0.72332 0.11224 0.63437 0.11468 0.32005 0.30926 0.57835 0.38832 0.55327 0.86721 1.1446 1.1671 1.5799 0.70793 0.86688 0.44626 0.47692 0.4691 0.43374 0.53102 0.41445 1.1086 0.82686 1.1297 0.87872 0.42969 0.31205 0.4428 0.28785 0.7743 0.41808 1.2171 0.59029 1.1526 0.50606 1.5365 0.62512 1.3732 0.50249 0.96825 0.31879 0.65407 0.18393 0.71637 0.1756 0.58861 0.12654 1.895 0.33439 0.52464 0.11163 0.64699 0.18992 1.2687 0.4529 0.64038 0.20182 0.42942 0.10485 0.4334 0.083323 0.89275 0.10677 0.72007 0.028122 0.67211-0.012187 1.0128-0.05473 0.42316 0.007249 0.41367 0.045531 0.50454 0.11887 0.34482 0.11637 0.33441 0.14895 0.55297 0.34736 1.0367 0.84489 0.49838 0.37616 0.20447 0.12932 0.27524 0.15048 0.21415 0.096638 0.23835 0.063397 0.070195-0.016161 0.043932-0.15581 0.14791-0.38252 0.35095-0.79784 0.43884-0.90285 0.55351-1.0386 0.54183-0.91867 0.38162-0.59371 0.60575-0.85563 0.41467-0.51689 0.3695-0.40686 0.34233-0.32793 0.34457-0.28171 0.2014-0.14349 0.3214-0.19875 0.2065-0.10842 0.38896-0.16294 0.39199-0.10648 0.34246-0.039565 0.37844 0.018956 0.38052 0.074861 0.38198 0.11936 0.49891 0.2069 0.50022 0.24998 1.0738 0.62358 2.0508 1.2853 0.99083 0.59878 0.77318 0.45078 1.938 1.0904 0.79202 0.46847 0.84454 0.53822 0.53821 0.36428 2.0919 1.4613 5.1916 3.6699 0.52964 0.40338 0.069943 0.046612 0.21005 0.19759 0.46792 0.50973 0.33476 0.40171 0.39802 0.54538 0.19223 0.31858 0.15847 0.32915 0.098309 0.28925 0.048339 0.25481 0.001036 0.30662-0.048379 0.24416-0.14876 0.32566-0.11979 0.15832-0.25081 0.23753-0.9392 0.65269-0.3248 0.26693-0.21515 0.22547-0.11956 0.15251-0.24275 0.39681-0.1616 0.39092-0.067057 0.23756-0.063484 0.38094-0.012409 0.25393 0.028652 0.3669 0.032684 0.16302 0.072614 0.23554 0.091821 0.20325 0.12483 0.203 0.20262 0.24871 0.28234 0.2679 0.25645 0.20254 0.6012 0.39687 0.53754 0.30365 0.73972 0.36825 0.49868 0.2254 2.4672 1.026 1.4935 0.66776 0.62602 0.32136 0.42841 0.25377 0.35394 0.24509 0.31309 0.25683 0.20985 0.20395 0.20042 0.23559 0.20498 0.31317 0.17551 0.35097 0.14082 0.34699 0.13841 0.39853 0.37796 1.2888 0.24874 0.71757 0.22867 0.53202 0.35231 0.62842 0.40857 0.57509 0.49492 0.57094 0.18764 0.18591 0.40285 0.32967 0.33685 0.21832 0.54316 0.29482 0.60992 0.26856 0.48197 0.16421 0.39562 0.10134 0.3735 0.078868 0.37817 0.054859 0.47153 0.021975 0.47904-0.011113 1.2176-0.052979 0.39569-0.032739 2.3174-0.30352 0.68406-0.11417 0.67164-0.14873 0.64453-0.20077 0.55196-0.23535 0.42821-0.22008 0.40351-0.22733 0.39486-0.2476 0.36401-0.25772 1.1713-0.87909 0.66929-0.45461 0.66965-0.3965 0.31979-0.16956 0.67803-0.31613 0.56417-0.2125 0.60001-0.17529 1.0367-0.2609 0.3971-0.075586 0.46024-0.047873 0.12651-0.004305 0.65099 0.03914 0.56276 0.10253 0.69226 0.19919 0.66479 0.26146 0.52367 0.25432 0.4896 0.27809 0.59581 0.39354 0.49419 0.37789 0.45424 0.39377 0.43198 0.42348 0.31369 0.34369 0.54392 0.67905 0.48294 0.70829 0.39667 0.67816 0.29703 0.60263 0.064054 0.16029 0.014592 0.094408 0.1545 0.018661 0.28494 0.1642 1.0882 0.85756 0.2557 0.16707 0.17753 0.093919 0.16632 0.06848 0.21114 0.057619 0.281 0.028599 0.17607-0.008804 0.16125-0.025482 0.18966-0.051074 0.40834-0.19996 0.35231-0.29572 0.13286-0.15416 0.22533-0.33926 0.13919-0.29923 0.27809-0.79852 0.11832-0.29868 0.094654-0.19566 0.24472-0.35449 0.16605-0.15211 0.17648-0.11833 0.15442-0.078838 0.30221-0.11023 2.079-0.57509 0.48948-0.11903 0.66316-0.12281 0.45018-0.055199 0.49593-0.030443 0.49585 0.015669 0.54471 0.086329 0.54542 0.13786 1.1014 0.31712 0.80162 0.18042 0.50148 0.067662 0.71267 0.006573 0.73633-0.074853 0.75272-0.12951 2.2971-0.49133 0.79293-0.13842 0.76614-0.10421 1.1745-0.099011 1.8505-0.2391 0.54765-0.030353 0.39037 0.012526 0.38058 0.033471 0.48941 0.064786 0.46218 0.10735 0.4228 0.17986 0.32847 0.23533 0.29219 0.29864 0.31981 0.44334 0.22798 0.42107 0.15784 0.38015 0.10275 0.32475 0.070458 0.30084 0.048854 0.32453 0.01418 0.62053-0.021801 0.5111 0.006863 0.7928 0.075617 1.1397 0.039396 0.36028 0.053521 0.29087 0.077321 0.273 0.072107 0.18469 0.16981 0.32325 0.21157 0.26287 0.25853 0.17563 0.25217 0.061108 0.13049 0.00142 0.29004-0.049243 0.31987-0.10377 0.79442-0.33495 2.7639-1.3625 1.9147-0.926 1.235-0.5643 0.90398-0.3692 1.0671-0.37714 0.61039-0.17906 0.42197-0.10106 0.50879-0.092588 0.49078-0.056986 0.29838-0.001056 0.073452 0.016479 0.028675 0.037755 0.00123 0.023174 0.052355 0.075675 0.17397 0.19036 0.47437 0.46547 0.27931 0.31004 0.22461 0.29492 0.26346 0.40411 0.22311 0.40473 0.26164 0.59513 0.15101 0.44958 0.1268 0.47653 0.12897 0.62231 0.1234 0.76113 0.097443 0.85914 0.013751 0.28382-0.009934 0.46916-0.036993 0.3494-0.25018 1.4721-0.029335 0.50654 0.027482 0.29386 0.053029 0.27248 0.089198 0.33747 0.10893 0.34715 0.19916 0.53228 0.26845 0.53202 0.32539 0.53605 1.0675 1.616 0.46992 0.764 0.3227 0.45855 0.35042 0.44342 0.75359 0.85965 0.34452 0.42492 0.31905 0.45458 0.28077 0.48203 0.19215 0.41465 0.20085 0.61269 0.080578 0.42352 0.023246 0.23304 0.009764 0.39976-0.007453 0.20492-0.060423 0.60487-0.41843 2.4864-0.11847 0.59865-0.12947 0.4904-0.19378 0.5469-0.15982 0.37629-0.65992 1.4047-0.48888 0.9429-0.83827 1.499-0.36715 0.73886-0.2489 0.57554-0.20857 0.57328-0.11313 0.36635-0.18668 0.70908-0.16972 0.81472-0.043735 0.29188-0.037007 0.40746 0.042086 0.61856 0.092479 0.30126 0.10715 0.23617 0.15644 0.27416 0.21712 0.32105 0.67152 0.84925 1.3434 1.5515 1.1042 1.2354 1.4168 1.5159 0.39255 0.4552 0.37891 0.479 0.23762 0.3258 0.46458 0.7225 0.30852 0.55522 0.49236 1.0308 0.47676 1.2017 0.33231 0.9598 0.23701 0.75954 0.27692 0.99041 0.23517 0.97942 0.22603 1.1796 0.093704 0.63855 0.095448 0.87318 0.033242 0.45515 0.01992 0.5827-0.012887 0.61976-0.048435 0.65662-0.083674 0.66157-0.1296 0.70226-0.12409 0.50873-0.13186 0.44838-0.17168 0.5005-0.23339 0.59067-0.767 1.6637-0.17761 0.43655-0.33639 0.99629-0.15836 0.5899-0.080243 0.36996-0.095409 0.61826-0.060206 0.64507-0.030573 0.68741-0.002623 0.68356 0.033757 0.69434 0.046449 0.47169 0.099624 0.63047 0.03644 0.15344 0.045677 0.10218-0.013559 0.039182 0.002196 0.1195 0.045502 0.21228 0.13703 0.40315 0.15383 0.354 0.2447 0.46108 0.18271 0.28727 0.16224 0.22229 0.18126 0.21491 0.27863 0.26898 0.13788 0.10882 0.28486 0.18212 0.33166 0.1594 0.2961 0.10885 0.58147 0.14914 0.75082 0.091801 1.7318 0.040289 0.52461 0.035201 0.39087 0.055174 0.31371 0.069247 0.34557 0.11022 0.46926 0.2177 0.2396 0.1435 0.41122 0.3024 0.37682 0.35382 0.25496 0.29809 0.11984 0.16594 0.23033 0.38654 0.43216 0.82504 0.62171 1.1332 0.26576 0.53356 0.22778 0.55665 0.27522 0.8206 0.15493 0.38816 0.25275 0.49696 0.30143 0.4878 0.34412 0.48921 0.92572 1.2202 0.37062 0.5785 0.10274 0.19437 0.211 0.46691 0.18304 0.49243 0.19299 0.62993 0.10705 0.42687 0.12274 0.66422 0.05888 0.48283 0.033103 0.41553 0.03062 1.0765-0.016721 1.1866 0.004312 0.9272 0.037547 0.70324 0.047422 0.34378 0.054077 0.2512 0.19248 0.58644 0.64427 1.372 0.68885 1.7055 0.21383 0.69745 0.14327 0.7255 0.062303 0.55431 0.03292 0.54467 0.011637 0.54766-0.011819 0.62356-0.039943 0.60676-0.099176 1.0976 0.006216 0.48487 0.043135 0.4494 0.087941 0.48763 0.078388 0.30578 0.12729 0.39218 0.18595 0.45428 0.22814 0.4569 0.28586 0.48272 0.29724 0.43234 0.20447 0.26742 0.33214 0.39468 0.34666 0.37085 0.475 0.45188 0.44048 0.36257 0.40794 0.2779 0.34354 0.1677 0.20026 0.038551 0.09475-0.058633 0.12592-0.14492 0.27254-0.39877 1.2553-1.9697 0.38697-0.5858 0.4112-0.58417 0.54584-0.71219 0.79946-0.97456 1.2701-1.4619 0.82935-0.89808 0.98854-1.0233 1.29-1.2949 1.0105-0.98998 0.50672-0.48024 0.9075-0.822 1.0081-0.8746 0.84203-0.69151 0.40731-0.30655 0.41226-0.28372 0.54168-0.32244 0.44586-0.21475 0.45896-0.16755 0.25329-0.068145 0.45323-0.085496 0.46252-0.050625 0.81197-0.029944 2.5739 0.076515 0.69894-0.015203 0.63566-0.07058 0.30659-0.06885 0.16987-0.054075 0.33903-0.15903 0.22623-0.16158 0.10493-0.095828 0.19527-0.21936 0.44587-0.56012 0.29519-0.25211 0.23622-0.11981 0.20988-0.068808 0.6709-0.13187 0.25051-0.070629 0.14595-0.069334 0.10115-0.069685 0.13339-0.13154 0.10496-0.14217 0.18481-0.35791 0.4177-1.2548 0.26343-0.67372 0.27747-0.63285 0.55358-1.1205 0.39703-0.69892 0.20503-0.32342 0.21964-0.3215 0.48884-0.65632 0.44997-0.56258 0.87583-1.046 1.4257-1.6108 0.3695-0.36118 0.19747-0.17088 0.24626-0.18903 0.23074-0.15169 0.50964-0.26208 0.22972-0.090669 0.7448-0.21252 0.51268-0.10649 0.46331-0.068733 0.44374-0.043976 0.4538-0.025362 0.51613-0.001871 0.44368 0.028481 0.33525 0.050265 0.20999 0.05848 0.07938 0.056695 0.2953 0.27752 0.27406 0.30509 0.81502 1.0571 0.3213 0.3748 0.3725 0.37469 0.29069 0.2414 0.39822 0.23802 0.37418 0.16558 0.32349 0.11646 0.59055 0.16669 0.35394 0.11965 0.40173 0.18084 0.19194 0.10741 0.29683 0.20095 0.13951 0.11256 0.88138 0.87386 0.34942 0.30869 0.19815 0.15377 1.1748 0.82091 0.4685 0.28606 0.51077 0.2421 0.51143 0.1934 0.58999 0.15426 0.45839 0.060471-0.053446 0.35387-0.13188 0.63201-0.37348 1.4807-0.22223 0.98225-0.14284 0.79616-0.067915 0.48707-0.058611 0.61959-0.015588 0.34479 0.043973 1.8875-0.004947 0.4723-0.038344 0.42998-0.054362 0.34383-0.16646 0.63211-0.23906 0.63226-0.34148 0.721-0.50242 0.91306-0.33969 0.65508-0.24869 0.65566-0.097019 0.52473-0.003951 0.51649 0.089176 0.49151 0.10095 0.2816 0.12634 0.25689 0.13814 0.22139 0.17738 0.23053 0.17233 0.18248 0.37133 0.30724 0.5159 0.32344 0.36067 0.17821 0.4078 0.15078 0.35413 0.093449 0.77359 0.16249 0.80884 0.22027 1.2902 0.4228 0.52715 0.1998 0.30698 0.15118 0.26624 0.17797 0.17096 0.14726 0.51508 0.53197 0.25834 0.22495 0.21799 0.14276 0.2722 0.13178 0.26221 0.08882 0.37132 0.074949 0.21509 0.021401 0.40949 0.004882 0.35886-0.027592 0.28852-0.045232 0.29037-0.080326 0.34153-0.14807 0.64106-0.32823 0.30827-0.10863 0.18574-0.041055 0.32344-0.021957 0.18238 0.02426 0.14949 0.056923 0.076732 0.055239 0.066288 0.0775 0.067326 0.13822 0.045955 0.19972 0.01673 0.30855-0.033335 0.88705 7.24e-4 0.47468 0.031192 0.4662 0.049863 0.32531 0.16028 0.74066 0.030813 0.44237-0.052658 0.45911-0.10754 0.35233-0.073623 0.18446-0.11647 0.26241-0.26139 0.51399-0.33504 0.49106-0.36432 0.3782-0.41884 0.35175-0.84553 0.63951-1.0626 0.75419-0.45667 0.36746-0.22667 0.21611-0.21064 0.23882-0.17116 0.23669-0.14212 0.2391-0.095883 0.18997-0.1709 0.40862-0.18926 0.58061-0.19603 0.76833-0.35545 1.601-0.12132 0.47575-0.20624 0.66046-0.33152 0.91442-0.4714 1.1465-0.50092 1.0788-0.32472 0.63538-0.29286 0.53075-0.91596 1.5969-0.22241 0.44337-0.18382 0.43677-0.078302 0.23378-0.10774 0.45405-0.079147 0.68722-0.005838 0.45659 0.012475 0.27695 0.074837 0.60262 0.1316 0.59055 0.17662 0.5638 0.21194 0.52088 0.30528 0.62117 0.14047 0.32288 0.10195 0.33131 0.048324 0.3365-0.003219 0.25434-0.097129 0.43177-0.20339 0.42487-0.16232 0.23948-0.2208 0.26176-0.30503 0.28972-0.45009 0.33761-0.50396 0.3018-0.54465 0.2659-0.49292 0.19942-0.53206 0.18434-1.3148 0.41552-0.71147 0.26217-0.35946 0.16154-0.37169 0.19724-0.31192 0.19588-0.44915 0.34607-1.0326 1.0108-0.43862 0.39764-2.1173 1.8066-1.1694 0.92627-1.7959 1.3503-0.58832 0.42517-0.59067 0.3849-0.60044 0.32183-0.61833 0.23192-0.75142 0.13429-0.78092 0.030622-1.5736-0.047902-0.77702-0.048092-0.65087-0.070717-0.46475-0.076677-0.38489-0.085003-0.43342-0.1217-0.69265-0.23803-0.71302-0.2824-0.5709-0.2495-0.67281-0.32066-0.9333-0.47743-1.326-0.63028-0.63428-0.35454-0.47162-0.32781-0.45939-0.36142-0.6402-0.54814-0.58985-0.59228-0.57939-0.65522-2.0245-2.4629-1.4141-1.7543-1.1667-1.5347-0.95086-1.3164-0.18248 0.12954-3.03e-4 0.40091 0.13792 0.56036 0.16426 0.45054 0.11332 0.26174 0.26002 0.50928 0.13694 0.23253 0.19877 0.30668 0.77175 1.0756 0.21428 0.33467 0.13048 0.22416 0.22508 0.49037 0.1137 0.45592-0.023567 0.39059-0.14521 0.2607-0.23978 0.17767-0.22982 0.076289-0.42771 0.053759-0.38151 0.016375-0.40882-0.014509-0.4247-0.06529-0.51627-0.16024-1.0435-0.44925-0.52223-0.2053-0.5196-0.13683-0.5761-0.036887-0.27416 0.020333-0.36956 0.074623-0.43279 0.16787-0.25879 0.16601-0.14437 0.11654-0.33817 0.33613-0.40567 0.51145-0.31145 0.48345-0.16249 0.31367-0.12889 0.3204-0.087114 0.3257-0.035689 0.42805 0.026251 0.27821 0.045183 0.22847 0.057226 0.20781 0.13393 0.36253 0.332 0.63852 0.32103 0.46538 0.36653 0.41879 0.94519 0.83483 0.20121 0.19733 0.73479 0.82912 0.43316 0.54346 0.32539 0.44352 0.25531 0.3922 0.26912 0.49349 0.20936 0.51867 0.058107 0.20655 0.051544 0.29295 0.011939 0.21962-0.029046 0.33773-0.19624 0.95523-0.024297 0.18448-0.002105 0.30219 0.081801 0.40061 0.16407 0.41614 0.22739 0.4222 0.27422 0.41917 0.65187 0.9152 0.31393 0.49684 0.29246 0.52065 0.25731 0.53694 0.22702 0.59746 0.61733 1.8918 0.19004 0.64156 0.12901 0.62268 0.027738 0.31007-0.004726 0.25408-0.037494 0.25472-0.15708 0.43695-0.25071 0.42347-0.31576 0.42128-1.2618 1.5354-0.40321 0.57176-0.29004 0.52005-0.22443 0.6627-0.050481 0.57896 0.051607 0.61388 0.12667 0.64567 0.26877 0.98404 0.67063 2.0918 0.18222 0.60382 0.14301 0.55644 0.090918 0.51041 0.014587 0.36888-0.034326 0.12625-0.055047 0.031434-0.07789 0.10439-0.23071 0.11553-0.40575 0.11539-0.53355 0.06577-0.4706 0.018468-1.76 0.021636-3.5667 0.10733-1.3194 0.062729-1.0529 0.10496-1.1641 0.17162-1.6848 0.29952-0.91661 0.18784-1.6549 0.37373-0.54111 0.10441-1.7667 0.24751-1.7301 0.21118-0.43018 0.023982-0.2591-8.15e-4 -0.36989-0.025652-1.3695-0.17907-0.54628-0.049049-0.54974-0.003239-0.42973 0.041759-0.42899 0.074442-0.35345 0.079309-1.3687 0.37445-0.46471 0.10297-0.82332 0.10372-0.18253 0.037085-0.073544 0.031673-0.12228-0.18472-0.21172-0.45988-0.26178-0.63087-0.27984-0.73032-0.27361-0.78079-0.24823-0.79754-0.35576-1.2632-0.17631-0.51966-0.11387-0.28798-0.3224-0.6816-0.635-1.174-0.34274-0.60975-0.35833-0.57555-0.43477-0.63656-0.64002-0.85143-0.28872-0.34218-0.43966-0.47629-1.4183-1.3934-0.71721-0.74687-0.50384-0.565-0.28601-0.34578-0.16064-0.20754-0.39191-0.56268-0.33327-0.56228-0.33885-0.68697-2.0192-4.9553-0.42929-0.93-0.55393-1.1123-0.26254-0.57295-0.17824-0.4495-0.14935-0.4689-0.10342-0.48195-0.042106-0.4487 0.011333-0.46688 0.058493-0.42878 0.13583-0.53833 0.26159-0.68973 0.3412-0.69781 0.57895-1.034 0.27049-0.52479 0.18753-0.42401 0.21308-0.60791 0.08-0.31249 0.057379-0.33318 0.01399-0.40724-0.014217-0.13647-0.065294-0.25497-0.094176-0.17909-0.12118-0.12976-0.10467-0.06497-0.12671-0.041712-0.28062-0.006977-0.25555 0.053555-0.2253 0.076046-0.52854 0.24112-0.50339 0.27336-0.71138 0.44539-0.77754 0.57331-1.5037 1.216-0.55897 0.3974-0.45494 0.27524-0.29551 0.15191-0.5606 0.23009-0.57034 0.18292-1.2522 0.36472-0.37773 0.13648-0.66668 0.30706-0.29434 0.17543-0.52595 0.37226-1.3735 1.1461-0.73966 0.56541-0.60515 0.39248-0.3108 0.16192-0.41093 0.16593-0.46715 0.14166-0.34912 0.084416-0.87415 0.16017-0.78776 0.10012-1.0979 0.092306-0.57591 0.0633-0.58514 0.084004-1.018 0.18772-0.82556 0.18688-1.05 0.27688-1.3663 0.387-2.0176 0.60263-1.0179 0.28345-0.44415 0.10348-0.428 0.077322-0.57831 0.047732-0.30827-0.015717-0.28271-0.051985-0.24439-0.083687-0.20638-0.10568-0.22299-0.15626-0.20888-0.18973-0.21623-0.24298-0.21958-0.30268-0.14999-0.24969-0.21987-0.46714-0.087376-0.25822-0.073107-0.3122-0.058639-0.55123-0.0373-1.0737-0.041635-0.27695-0.085601-0.30277-0.14188-0.31499-0.2097-0.34389-0.22846-0.3074-0.49597-0.59603-0.12831-0.18692-0.10271-0.19108-0.087357-0.2317-0.090373-0.57747 0.020071-0.66292 0.1012-0.7234 0.15508-0.72535 0.5931-2.0777 0.081718-0.39467 0.053871-0.43386 0.007796-0.17102-0.009203-0.29408-0.033678-0.24203-0.16772-0.49986-0.2125-0.2916-0.23935-0.08135-0.29636 0.28835-0.86453 0.75835-1.5113 1.2312-0.69663 0.59409-0.53334 0.51318-0.97939 1.0806-0.44649 0.47039-1.0247 1.0142-0.70919 0.65533-0.84532 0.73635-0.37151 0.29427-0.3957 0.27151-0.23398 0.12265-0.15784 0.057718-0.14845 0.030575-0.15405 0.005479-0.12643-0.012636-0.24017-0.053821-0.63636-0.20586-0.4703-0.10693-0.38595-0.03613-0.26137-0.002076-0.65172 0.042851-1.2555 0.12683-0.27364 0.035016-0.26336 0.052803-0.16057 0.049046-0.13874 0.061723-0.12514 0.086138-0.10661 0.12923-0.027555 0.06891-0.004088 0.053839 0.017033 0.042042-0.25625 0.223-0.46947 0.45756-0.75143 0.81882-0.38437 0.38877-0.34876 0.28763-0.13159 0.07593-0.12978 0.047828-0.12768 0.012208-0.14891-0.038544-0.14635-0.083525-0.14452-0.11372-0.57089-0.54324-0.14338-0.11186-0.14474-0.081978-0.14685-0.038587-0.14614 0.014361-0.14868 0.055272-0.62071 0.38166-0.16404 0.082134-0.16959 0.054246-0.15415 0.017035-0.25335-0.014851-0.73357-0.1633-0.17634-0.024015-0.16684 0.003802-0.1524 0.044709-0.13825 0.099283-0.11979 0.14331-0.10311 0.17255-0.15439 0.36326-0.061357 0.20671-0.084318 0.3251-0.3516 1.1403-0.3001 1.0904-0.18918 0.51257-0.33626 0.63502-0.41922 0.60876-1.3613 1.7011-0.29652 0.43751-0.26613 0.51299-0.13319 0.39518-0.062848 0.40924-0.002068 0.41118 0.017637 0.21915 0.34202 2.2872 0.029795 0.29417 0.005969 0.2339-0.054657 0.53341-0.13452 0.54618-0.12722 0.36172-0.23254 0.48743-0.23852 0.40351-0.33098 0.48221-0.3205 0.41302-0.5844 0.66125-0.54971 0.53837-0.72721 0.60365-0.55989 0.37392-0.70392 0.37745-0.47438 0.2167-1.2761 0.53014-0.39199 0.19571-0.32898 0.20827-0.28646 0.24592-0.18613 0.22038-0.14247 0.21749-0.24654 0.50349-0.20385 0.56449-0.67847 2.3657-0.27061 0.80681-0.21877 0.58929-0.20279 0.47645-0.23218 0.46217-0.21402 0.36165-0.20374 0.30863-0.51089 0.66652-0.57234 0.63914-0.61731 0.61882-0.64941 0.60406-0.67138 0.59375-2.755 2.3382-0.67181 0.59039-0.64868 0.59979-0.61378 0.61421-0.56348 0.63517-0.49288 0.66478-0.3956 0.70577-0.093312 0.21695-0.15685 0.43809-0.17622 0.61345-0.21594 0.92242-0.22558 1.1102-0.1925 1.0776-0.18829 1.2297-0.095689 0.79933-0.12306 1.4047-0.045734 0.7169-0.069976 1.5725-0.047892 2.3473-0.009741 2.6746-0.01583 0.58052-0.044679 0.25544-0.056552-0.021975-0.27702 2.54e-4 -0.7152 0.046764-0.8231 0.075676-1.1276 0.12762-2.4344 0.31082-0.82212 0.047642-0.46631-0.015631-0.64187-0.070397-0.53178-0.096834-0.47462-0.11085-0.81307-0.2273-0.5932-0.19416-0.80146-0.32777-0.57144-0.28735-0.42396-0.24826-0.8023-0.53659-0.45415-0.33328-0.40968-0.32602-0.28824-0.25015-0.4896-0.46418-0.5116-0.51916-0.42225-0.44847-0.72367-0.81915-0.86804-1.0919-0.3824-0.54157-0.87448-1.3876-0.32592-0.45997-0.16774-0.20341-0.35739-0.36881-0.31253-0.27477-0.3551-0.27661-0.50889-0.3311-0.48854-0.25404-0.29844-0.12218-0.35835-0.1153-0.40058-0.102-0.4636-0.095918-0.74773-0.11842-0.55679-0.0507-1.0152-0.038989-1.3114-0.022721-0.56028 0.001174-0.56182 0.021928-0.5848 0.057165-0.69486 0.12503-0.25185 0.064182-0.44469 0.14104-0.52844 0.20934-2.1491 1.0205-0.68447 0.2799-0.56879 0.20952-0.5935 0.19046-0.58518 0.15371-0.7096 0.14811-0.56798 0.085097-0.46296 0.041083-0.55969 0.018133-2.0355-0.074703-0.83774-0.01684-1.7895-0.009071-1.0925 0.015078-0.83856 0.045931-0.84091 0.078432-1.0129 0.11654-1.3346 0.17726-0.57029 0.058801-0.78789 0.042063-0.59219-0.013952-0.40112-0.046121-0.44217-0.095085-0.33394-0.10312-0.35295-0.13736-0.606-0.3036-0.70537-0.43876-0.61903-0.44212-0.59143-0.51904-1.6943-1.7228-0.59706-0.52821-0.64393-0.45132-0.72849-0.35075-0.75429-0.22558-0.36625-0.067836-0.5355-0.054368-0.65238-0.004716-0.6618 0.046311-0.35068 0.040839-0.78128 0.13401-1.4112 0.32099-1.0101 0.19188-0.96302 0.12087-0.82028 0.048018-0.46606-0.002696-0.56858-0.039871-0.65618-0.11397-0.30404-0.098123-0.21829-0.12523-0.061093-0.076402 0.017572-0.13491-0.05217-0.027608-0.032657-0.10037 0.001592-0.15934 0.056958-0.27901 0.11091-0.33814 0.29615-0.70428 0.22968-0.48286 1.201-2.3338 0.19922-0.44102 0.1924-0.52094 0.35156-1.1905 0.33882-1.3284 0.24166-1.0277 0.20916-1.0714 0.08986-0.58662 0.067557-0.57796 0.039017-0.48624 0.05623-1.0995 0.039107-0.53807 0.057895-0.53114 0.020785-0.52171-0.05469-0.45959-0.11656-0.47389-0.1642-0.48545-0.20049-0.4948-0.22778-0.50243-0.51588-1.0324-1.6456-2.9972-0.81441-1.5684-0.48814-1.0593-0.22599-0.55955-0.20729-0.59392-0.16961-0.60543-0.084292-0.39436-0.087274-0.6054-0.02906-0.43858 0.003774-0.43893 0.029943-0.35306 0.054321-0.3472 0.11872-0.49361 0.15376-0.46903 0.22538-0.55526 0.2387-0.50042 0.43872-0.78516 0.013886-0.038076-0.031922-0.087828-0.16561-0.17513-0.12601-0.097039-0.25604-0.16186-0.47298-0.23299-0.30832-0.12244-0.446-0.14671-0.91402-0.2142-0.97421-0.12568-0.43794-0.025161-0.78658 8.19e-4 -0.78749 0.052672-0.78254 0.097239-0.87909 0.15847-0.56085 0.12851-0.92721 0.26164-0.52569 0.17419-0.51814 0.18792-0.76574 0.30374-0.75007 0.32504-2.521 1.2065-0.74973 0.32452-0.62576 0.24918-1.3227 0.4881-1.3874 0.47536-0.46345 0.14292-2.0084 0.55647-0.81682 0.18324-0.9038 0.14452-0.95834 0.10661-1.6833 0.13683-0.81646 0.088655-0.92081 0.13023-1.4075 0.2483-0.84958 0.12096-0.83875 0.070835-0.47726 0.016646-0.97061-0.015941-0.95023-0.080377-0.72689-0.10586-0.61965-0.11189-4.6111-0.92848-0.7533-0.18275-0.52722-0.17884-0.39024-0.18921-0.1767-0.11229-0.19578-0.1612-0.14017-0.16123-0.12401-0.21001-0.057314-0.14116-0.17051-0.68956-0.10295-0.244-0.2267-0.27421-0.37897-0.26417-0.12182-0.06045-0.31586-0.11019-0.32146-0.048243-0.16293-0.008864-0.81222 0.005259-0.63794-0.023721-0.21676-0.025311-0.54239-0.099219-0.37776-0.093806-0.44828-0.13442-0.80084-0.29272-1.5498-0.67238-0.66589-0.2707-0.33281-0.11602-0.64814-0.15954-0.44596-0.04137-0.44693 0.00471-0.48841 0.039775-1.0035 0.12128-0.35418 0.030043-0.33244 0.006332-0.32188-0.030605-0.26031-0.07195-0.22179-0.1236-0.16396-0.1617-0.1407-0.22628-0.15421-0.43734-0.09085-0.47232-0.022891-0.19784-0.013801-0.35522 0.019423-0.24916 0.054767-0.23119 0.078682-0.13377 3.7022-3.5547 1.1861-1.168 2.8326-2.8401 0.94068-0.91993 0.55671-0.51968 0.76803-0.67242 0.78684-0.63286 0.56397-0.42347 1.6278-1.1697 0.638-0.48994 0.6722-0.57652 0.63967-0.62835 0.36173-0.3977 0.42-0.50722 0.6208-0.85184 0.53223-0.82831 1.1859-2.0043 0.57709-0.93149 0.61362-0.90873 0.66611-0.89818 0.57843-0.72415 0.59744-0.70925 1.1523-1.2832 0.54994-0.57567 0.56214-0.56109 0.57669-0.54254 0.62136-0.54096 0.78225-0.60775 0.71782-0.48184 0.74913-0.43048 0.8788-0.42378 0.49463-0.20434 0.50348-0.1847 0.94057-0.28745 1.1232-0.26842 1.6573-0.3309 1.0388-0.22496 0.78022-0.20734 0.76427-0.25383 0.49756-0.20004 0.36554-0.1678 0.70774-0.38398 0.4415-0.28588 0.2442-0.17592 0.35553-0.28164 0.34181-0.30275 0.53707-0.55065 0.42973-0.5207 0.2633-0.36007 0.3303-0.50138 0.4504-0.78027 0.32006-0.62549 0.26033-0.55325 1.08-2.5305 0.45824-1.0149 0.341-0.67536 0.16312-0.28649 0.14354-0.20952 0.089121-0.051687-0.72732-0.79646-0.4905-0.56644-0.40805-0.51727-0.76376-1.0162-0.37513-0.43228-0.19328-0.18089-0.20053-0.1476-0.67174-0.34256-0.83172-0.48458-0.17189-0.15409-0.15946-0.18683-0.29417-0.4404-0.27541-0.49421-0.9417-1.8768-0.4338-0.80996-0.39583-0.63129-0.28698-0.36462-0.1522-0.14777-0.15696-0.11018-0.16074-0.062159-0.11833-0.011131-0.1494 0.02326-0.16925 0.072775-0.082654 0.06812-0.096181-0.089933-0.2073-0.30664-0.17983-0.32257-0.24437-0.50005-0.49725-1.1788-0.34842-0.94612-0.21412-0.71304-0.70938-2.7187-0.37885-1.8572-0.12195-0.44368-0.12814-0.32037-0.13095-0.23105-0.10683-0.14536-0.13344-0.14604-0.26629-0.22028-0.21724-0.13475-0.25675-0.12869-0.91939-0.39969-0.39641-0.19052-0.39357-0.23306-0.22206-0.1672-0.1895-0.17936-0.092923-0.10977-0.14018-0.2256-0.12015-0.37675-0.01164-0.3131 0.014793-0.10729 0.074875-0.24552 0.087146-0.16234 0.34765-0.35077 0.31546-0.1509 0.36242-0.095204 0.86835-0.1302 1.0117-0.19873 0.86895-0.23937 0.5905-0.20126 0.44862-0.18531 0.39458-0.18957 0.38246-0.21183 0.60586-0.40561 0.22896-0.17825 0.43348-0.37974 0.5512-0.56042 0.17612-0.21135 0.20122-0.27654 0.1945-0.32184 0.18817-0.4104 0.10152-0.32444 0.051131-0.27148 0.015383-0.17735 0.001426-0.13021-0.03549-0.3332-0.086577-0.32954-0.14437-0.35037-0.12284-0.22946-0.18217-0.28228-0.3063-0.38286-0.25738-0.2614-0.50426-0.39709-0.62046-0.38002-0.85132-0.45515-1.8408-0.94632-0.52117-0.2916-0.49626-0.30323-0.5944-0.39849-0.39706-0.3218-0.29916-0.30257-0.24292-0.30287-0.1763-0.26955-0.1133-0.21505-0.13727-0.33668-0.11932-0.47904-0.023027-0.25698 0.008888-0.28303 0.034906-0.25014 0.19157-0.83877 0.014258-0.41283-0.02161-0.12756-0.074356-0.23355-0.052648-0.11694-0.17444-0.29794-0.21726-0.28874-0.23512-0.26463-0.29404-0.29369-1.8097-1.6718-0.70631-0.71164-0.34478-0.37173-0.45889-0.53275-0.27753-0.35044-0.31361-0.43562-0.2898-0.45632-0.26664-0.46908-0.55085-1.0797-0.27741-0.59697-0.43976-1.1096-0.88605-2.5464-0.24117-0.61439-0.16625-0.36896-0.28097-0.49675-0.20898-0.29835-0.27141-0.34472-0.4567-0.4998-0.53533-0.50637-0.53638-0.45214-0.41728-0.30561-0.38819-0.24051-0.41848-0.21563-0.52247-0.20371-0.28689-0.081157-0.52416-0.089751-0.44366-0.015767-0.46088 0.030154-0.80937 0.11303-0.47357 0.096-0.54981 0.16429-0.42407 0.16611-0.34313 0.15631-1.417 0.75981-0.44199 0.21373-0.5509 0.2259-0.45754 0.14317-0.38688 0.081872-0.26601 0.030377-0.23785 0.004765-0.22782-0.019413-0.21402-0.04516-0.3314-0.13934-0.10016-0.061652-0.34448-0.29065-0.30885-0.37293-0.27972-0.43658-0.19836-0.36735-0.14785-0.30227-0.2769-0.63363-0.25597-0.65699-0.53646-1.4814-0.20862-0.51289-0.29425-0.63442-0.14308-0.25892-0.22252-0.31706-0.1293-0.14136-0.30655-0.26501-0.89973-0.63508-1.6401-1.3252-0.76245-0.57823-0.75919-0.50454-1.0419-0.63368-0.55609-0.40724-0.30663-0.25641-0.36405-0.34683-0.17676-0.22251-0.024656-0.049321-0.003435-0.052196-0.13265-0.11821-0.13138-0.22775-0.093768-0.28687-0.020053-0.30807 0.086849-0.32049 0.18677-0.28916 0.26381-0.23831 0.27271-0.15689 0.74745-0.32983 0.3249-0.1867 0.27904-0.2391 0.18624-0.26582 0.13272-0.31329 0.084569-0.37557 0.034692-0.4371-0.024375-0.77128-0.12753-1.3339-0.017664-0.42952 0.025241-0.49584 0.05493-0.41488 0.082328-0.40396 0.12405-0.43078 0.13499-0.34746 0.16169-0.31612 0.19094-0.27457 0.22486-0.21997 0.12403-0.08261 0.17709-0.080183 0.19304-0.053179 0.21976-0.032232 0.23216-0.011332 0.44168 0.02294 0.25504 0.034128 1.6908 0.35461 0.67483 0.087442 0.34253 0.011359 0.2788-0.018859 0.25156-0.045309 0.24981-0.070709 0.40829-0.16377 0.4063-0.21074 0.40604-0.24568 0.74228-0.51291 0.38164-0.29786 0.3723-0.32388 0.33682-0.33862 0.19052-0.22185 0.17515-0.23258 0.15488-0.23713 0.089655-0.16058 0.039775-0.12245 0.10104-0.24154 1.0033-2.1507 0.5253-1.2418 0.13032-0.35216 0.16154-0.54058 0.083064-0.45521 0.038294-0.45985-5.91e-4 -0.46165-0.031072-0.42632-0.057157-0.42405-0.080967-0.42025-0.13525-0.53389-0.15961-0.5257-0.55214-1.6541-0.15075-0.55716-0.098026-0.55085-0.020929-0.54463 0.056304-0.44945 0.1125-0.4456 0.15375-0.44227 0.38264-0.87524 0.71687-1.497 0.20028-0.47566 0.15581-0.45596 0.33842-1.3684 0.048599-0.32297-0.017252-0.31752-0.039395-0.14741-0.13423-0.29252-0.24679-0.36551-0.25084-0.31144-0.82942-0.96508-0.42502-0.5399-0.25779-0.37416-0.79748-1.2791-0.32375-0.45764-0.40343-0.45517-1.6033-1.5226 0.012973-0.11519 0.059187-0.12576 0.25826-0.40362 0.42371-0.53481 0.3941-0.41695 0.3837-0.3468 0.35248-0.28179 1.4171-1.0124 0.49998-0.38631 0.68175-0.58753 0.86355-0.83122 0.88544-0.94974 1.2987-1.459 3.0597-3.2323 0.63102-0.70746 0.73304-0.89806 0.71271-0.96771 0.3995-0.58125 0.65749-1.0166 0.3432-0.55843 0.69609-1.1931 0.35195-0.63466 1.5876-2.9859 0.66423-1.1881 0.62072-1.02 0.7353-1.0881 0.41809-0.5635 0.44316-0.55617 0.46008-0.54164 0.77162-0.85138 1.1828-1.267 0.70676-0.80813 0.6573-0.82974 0.34095-0.46628 1.6362-2.4106 0.46634-0.60541 0.40061-0.46252 1.1633-1.2316 0.46156-0.51 0.40902-0.48465 0.41118-0.52593 0.2966-0.40608 0.56453-0.83161 1.6991-2.7441 1.2134-1.8581 0.84068-1.212 0.46357-0.61934 0.48241-0.59574 0.6556-0.71413 0.47214-0.43367 0.50661-0.39417 0.53806-0.34712 0.2463-0.13673 0.7191-0.34536 0.73039-0.29074 0.70186-0.23678 0.61934-0.17961 0.65983-0.15462 0.30214-0.095696 0.3595-0.08773 0.46477-0.082364 0.27018-0.02658 0.5541 0.001894 1.2457 0.11082 0.36252 0.019899 0.62514-0.004352 0.62875-0.04336 0.63624-0.093539 0.37894-0.093714 0.40199-0.14892 0.20485-0.10788 0.17689-0.12419 0.12289-0.11378 0.29156-0.3641 0.18234-0.32654 0.19887-0.46403 0.22352-0.44886 0.25043-0.41725 0.25894-0.36385 0.22954-0.27676 0.24362-0.24356 0.43786-0.33362 0.16251-0.15679 0.29435-0.36652 0.4647-0.674 0.051989-0.039995 0.028156 0.011177 0.005172 0.055422 0.0145 0.047606-0.033228 0.18716-0.089924 0.34809-0.71537 2.5014-0.18997 0.82207-0.084732 0.48009-0.061106 0.53699" stroke="#bdc660"/>
    </defs>
    <g clip-path="url(#p21a413a66c)">
     <use y="280.512" fill="#bdc660" stroke="#bdc660" xlink:href="#m395e340cea"/>
    </g>
   </g>
  </g>
 </g>
 <defs>
  <clipPath id="p21a413a66c">
   <rect x="7.2" y="7.2" width="310.84" height="266.11"/>
  </clipPath>
 </defs>
</svg>
