<?xml version="1.0" encoding="UTF-8"?>
<!DOCTYPE svg  PUBLIC '-//W3C//DTD SVG 1.1//EN'  'http://www.w3.org/Graphics/SVG/1.1/DTD/svg11.dtd'>
<svg width="371.52pt" height="194.68pt" version="1.1" viewBox="0 0 371.52 194.68" xmlns="http://www.w3.org/2000/svg" xmlns:xlink="http://www.w3.org/1999/xlink">
 <metadata>
  <rdf:RDF xmlns:cc="http://creativecommons.org/ns#" xmlns:dc="http://purl.org/dc/elements/1.1/" xmlns:rdf="http://www.w3.org/1999/02/22-rdf-syntax-ns#">
   <cc:Work>
    <dc:type rdf:resource="http://purl.org/dc/dcmitype/StillImage"/>
    <dc:date>2024-07-04T12:10:29.914068</dc:date>
    <dc:format>image/svg+xml</dc:format>
    <dc:creator>
     <cc:Agent>
      <dc:title>Matplotlib v3.7.1, https://matplotlib.org/</dc:title>
     </cc:Agent>
    </dc:creator>
   </cc:Work>
  </rdf:RDF>
 </metadata>
 <defs>
  <style type="text/css">*{stroke-linejoin: round; stroke-linecap: butt}</style>
 </defs>
 <g id="figure_1">
  <g id="patch_1">
   <path d="m0 194.68h371.52v-194.68h-371.52v194.68z" fill="none"/>
  </g>
  <g id="axes_1">
   <g id="PatchCollection_1">
    <defs>
     <path id="m1fe9831d48" d="m207.08-162.73 0.75844 0.086854 0.44034-0.00525 0.43784-0.043052 0.58893-0.10832 1.3649-0.36875 0.79797-0.17427 0.83103-0.13171 0.85494-0.09575 0.87138-0.063985 0.88157-0.033854 0.88631-0.00259 0.88599 0.032907 0.51019 0.038775 0.87794 0.11436 0.58401 0.11397 0.60493 0.15675 0.78988 0.26886 0.77661 0.32358 0.76711 0.36422 0.76062 0.39399 0.86742 0.47916 1.6074 0.955 2.3915 1.5228 1.5753 1.059 1.5311 1.0965 0.73228 0.56348 1.0928 0.89008 0.66224 0.48893 0.7031 0.39548 0.74568 0.26372 0.7882 0.1667 0.7997 0.10312 0.76451 0.064844 0.67807 0.037045 0.7405 0.019759 0.13844-0.044649 0.23028 0.08531 0.29395 0.19145 0.3203 0.2736 0.46678 0.47899 1.7413 2.0307 0.70514 0.7335 0.25686 0.23278 0.37585 0.30555 0.19646 0.14582 0.74772 0.49212 0.68668 0.38736 0.70697 0.35445 0.58596 0.26903 1.1575 0.48764 1.0668 0.41477 1.5897 0.57703 1.8611 0.6396 1.2695 0.39861 0.71182 0.19242 0.77641 0.17602 0.72891 0.13274 1.0414 0.13293 0.66706 0.052386 0.65617 0.02279 0.47864-0.005708 0.46969-0.02921 0.37435-0.044325 2.0867-0.41929 0.43484-0.070793 0.95077-0.10386 0.40649-0.019432 0.56314-0.002519 0.56213 0.022938 0.69374 0.060037 0.58806 0.0762 1.0224 0.17748 1.1407 0.24049 5.6545 1.3433 3.4184 0.78995 2.8792 0.62069 1.8293 0.32906 0.20384 0.048839 0.3759 0.11924 0.53427 0.23751 0.47215 0.28394 0.4814 0.37514 0.49742 0.48821 0.55718 0.65488 0.57931 0.77424 0.79469 1.1581 0.98483 1.5564 0.26728 0.39011 0.43694 0.5805 0.38304 0.44626 0.51296 0.50257 0.32654 0.26482 0.34124 0.23906 0.52173 0.30447 0.53988 0.24811 0.64376 0.21301 0.64838 0.12011 0.64283 0.010756 0.20414-0.023064 0.41443-0.085669 0.67138-0.23089 0.39016-0.17406 1.1031-0.56373 0.39849-0.17784 0.40941-0.12684 0.34725-0.051357 0.40223-7.66e-4 0.32908 0.038679 0.4609 0.10183 0.37406 0.11656 0.68005 0.27761 0.341 0.16903 0.44212 0.24496 0.88535 0.55346 2.3547 1.6113 0.79479 0.51128 0.93852 0.55539 1.8698 1.0549 0.56814 0.34859 0.5267 0.36183 0.41299 0.33181 0.35788 0.35389 0.37929 0.54381 0.061678 0.13154 0.13574 0.44906 0.055114 0.66283-0.036255 0.54654-0.089131 0.56905-0.17174 0.74752-0.12168 0.43968-0.40725 1.276-0.86755 2.4663-0.47432 1.4398-0.27093 0.944-0.12115 0.48633-0.21883 1.095-0.13784 0.9239-0.1079 0.92928-0.14028 1.6494-0.13588 2.2461-0.19708 4.3722-0.10932 3.1197-0.061315 2.6603-0.00161 2.5169 0.0615 1.7734 0.053876 0.94221 0.10912 1.4627 0.6549 6.8742 0.093525 0.76096 0.11669 0.68375 0.14789 0.57329 0.064779 0.15932 0.026228 0.021843 0.066142 0.009546 0.40669 0.17134 0.84338 0.40829 0.42421 0.22916 0.9404 0.56913 0.86917 0.61152 1.6254 1.2845 0.69457 0.5214 0.73601 0.52445 1.0417 0.71877 0.28387 0.15157 0.24182 0.057309 0.23444-0.085539 0.075054-0.087536 0.086553-0.17954 0.057152-0.19875 0.17405-1.0737 0.1061-0.47044 0.12777-0.34824 0.13202-0.2301 0.10926-0.13256 0.16347-0.13874 0.22946-0.12676 0.22511-0.07883 0.21223-0.044403 0.49299-0.026162 0.6376 0.032915 0.70503 0.092428 0.74642 0.16494 0.79029 0.25525 0.43796 0.16832 1.0169 0.43515 2.0502 0.91286 0.74545 0.30063 0.74986 0.26749 0.70493 0.2086 0.51136 0.11919 0.61702 0.10224 0.66388 0.059555 0.35185 0.010648 0.8149-0.033228 0.59247-0.075416 0.52036-0.088918 0.5142-0.11933 0.2701-0.080693 0.80854-0.29462 1.0281-0.4515 0.96617-0.47327 2.0143-1.0334 0.68615-0.30824 0.62728-0.20706 0.51674-0.099447 0.55749-0.046196 0.4178-0.001157 0.42193 0.020886 1.9067 0.1926 2.1723 0.11514 0.70797 0.069214 1.4065 0.17255 0.68646 0.070547 1.204 0.097394 0.40127 0.055133 0.44718 0.097491 0.38432 0.12636 0.3573 0.15558 0.2161 0.11276 0.34857 0.21479 0.26038 0.19329 0.16884 0.15601 0.060905 0.10271-0.10987 0.18553-0.26387 0.37581-0.75856 1.0077-0.85387 1.0391-0.66987 0.75398-1.0697 1.1177-2.1005 2.0764-0.83342 0.85356-2.4819 2.6031-0.58451 0.65453-0.34145 0.41084-0.40475 0.51766-0.55809 0.77562-2.6986 4.0513-0.59787 0.96832-0.44245 0.80054-0.18187 0.37147-0.25767 0.62102-0.069364 0.20578-0.10539 0.39933-0.062302 0.46703-0.004357 0.24529 0.034116 0.48221 0.049058 0.34788 0.11668 0.60816 0.16592 0.69492 0.82266 2.9159 0.21139 0.81783 0.15164 0.69498 0.071186 0.40915 0.07404 0.69653 0.005446 0.2835-0.047436 0.82768 0.02278 0.11245 0.06206 0.039763-0.10378 0.10723-0.1528 0.041467-0.17207-0.013567-0.14165-0.046116-0.13354-0.071578-0.18764-0.14848-0.23967-0.25196-0.57246-0.67924-0.31574-0.33284-0.26364-0.25015-0.28006-0.24276-0.44163-0.34068-0.46633-0.30838-0.40294-0.22486-0.47566-0.21422-0.49116-0.15745-0.57292-0.096982-0.32939-0.021103-0.33343-0.001835-0.68847 0.043099-0.84872 0.11428-0.60037 0.10802-1.7312 0.38212-5.1439 1.2945-1.6169 0.37483-0.76505 0.15443-0.97056 0.1529-0.54416 0.045719-0.50723-0.004808-0.46687-0.075161-0.37656-0.15533-0.35324-0.30149-0.20196-0.25986-0.65132-1.0569-0.19606-0.27742-0.30233-0.35526-0.28651-0.2853-0.3251-0.28414-0.27213-0.21155-0.31224-0.21432-0.45135-0.24908-0.33678-0.12735-0.18135-0.041686-0.25574-0.018586-0.38086 0.072471-0.35174 0.16367-0.30388 0.21052-0.1334 0.11692-0.14404 0.16779-0.053337 0.13204-0.05155-0.057059-0.27989-0.12483-0.17583-0.053849-0.35648-0.075431-0.38925-0.040602-1.3525-0.083438-0.40994-0.010131-0.45867 0.015718-2.0693 0.21059-0.46992 0.022031-0.48437-0.017634-0.2973-0.041817-0.25315-0.060053-0.24661-0.077403-1.0851-0.4209-0.22416-0.0716-0.36949-0.080608-0.23619-0.020924-0.45948 0.012746-1.2528 0.14969-0.31378 0.004707-0.2449-0.030525-0.17332-0.048748-0.7167-0.31801-1.4926-0.57174-0.30994-0.13969-0.38361-0.19674-0.29229-0.17274-0.30181-0.20721-0.16967-0.13501-0.25574-0.23776-0.59715-0.62299-0.26417-0.22555-0.32785-0.21534-1.1974-0.62448-0.21955-0.13257-0.89616-0.64039-0.29615-0.17512-0.18104-0.084001-0.2856-0.10251-0.43351-0.10526-0.19878-0.017752-1.6568 0.30158-0.83092 0.12333-0.63544 0.077623-1.0267 0.075504-0.63938 0.003142-0.72368-0.047195-0.94857-0.1403-1.364-0.28356-1.0764-0.27178-1.1197-0.34347-1.3533-0.51207-0.61443-0.20611-0.78435-0.21367-1.6313-0.40149-0.52844-0.16016-0.44067-0.16297-0.50454-0.22988-0.49249-0.26241-0.59693-0.35163-1.8889-1.1976-1.2637-0.77663-0.42998-0.29326-0.91139-0.7314-0.2909-0.19702-0.14263-0.067419-0.13978-0.039716-0.12363-0.008822-0.1396 0.023008-0.14483 0.067659-0.096302 0.078059-0.10431 0.13296-0.072418 0.15307-0.030187 0.10145-0.043896 0.30689-0.006855 0.23991 0.014835 0.40284 0.12471 1.5074 0.064753 1.1139 0.017194 0.77077-0.010222 0.76342-0.070645 1.3411-0.22553 2.8427-0.10242 1.5307-0.050347 1.267-0.050943 2.5349-0.058827 0.98737-0.086724 0.78872-0.0977 0.57418-0.17596 0.70538-0.15735 0.43621-0.097155 0.2132-0.16646 0.3008-0.18831 0.28209-0.39305 0.48122-0.39796 0.39877-0.32362 0.27761-0.2263 0.17204-0.4729 0.30218-0.37854 0.18472-0.24762 0.091097-0.21056 0.057589-0.39172 0.055185-0.31274-7.45e-4 -0.53429-0.07054-0.43129-0.1037-0.64786-0.20983-0.73986-0.2944-0.54171-0.24081-1.4073-0.68916-1.7228-0.917-3.3629-1.8749-1.802-0.9788-2.0399-1.0486-1.0792-0.52169-1.0051-0.45617-0.78988-0.32663-0.48168-0.17944-0.44341-0.14826-0.54469-0.15428-0.72108-0.14141-0.66545-0.025811-0.59022 0.1351-0.28128 0.15725-0.31868 0.27689-0.26965 0.33103-0.2899 0.47876-0.238 0.52041-0.23262 0.66021-0.15746 0.58963-0.1232 0.71209-0.054878 0.72686-0.007131 0.39045 0.011586 0.60314 0.073868 1.1105 0.15636 1.4307 0.46064 3.4351 0.11162 1.1387 0.033361 0.73534-0.008587 0.49303-0.025317 0.30858-0.21098 1.647-0.071785 0.29601-0.06043 0.15104-0.15552 0.22307-0.047799 0.043989-0.22773 0.14161-0.13397 0.053663-0.26598 0.072354-0.33919 0.053536-0.61869 0.039062-1.1038-0.011972-2.4118-0.085883-1.742 0.004636-1.6911 0.061822-3.5133 0.1865-1.3072 0.033416-0.60346-8.19e-4 -1.3678-0.039658-0.84008-0.04893-0.54113-0.051581-2.0362-0.088429-1.1319-0.075733-1.1562-0.11589-1.5458-0.21861-1.0144-0.18731-0.34814-0.079153-0.37324-0.10614-0.38818-0.13702-1.0969-0.43429-0.46297-0.15928-0.22529-0.062254-0.22969-0.048587-0.25914-0.034419-0.26477-0.018638-1.0868-0.026739-0.26384-0.021357-0.41906-0.078492-0.27257-0.095172-0.083458-0.043017-0.029354-0.032096-0.21527-0.11071-2.3101-1.3387-0.6137-0.32993-0.77891-0.38378-0.75751-0.31772-0.49396-0.16598-0.6167-0.15361-0.81734-0.13805-0.89326-0.099662-1.5403-0.11084-2.0135-0.094404-1.7684-0.046265-1.8108 0.01052-1.764 0.054047-2.2564 0.12089-1.5434 0.11205-0.58753 0.021313-0.54239-0.027173-1.1516-0.16761-0.68302-0.056971-0.53672 0.010948-0.42575 0.044535-0.21544 0.038694-1.4203-0.41841-1.472-0.36248-0.75246-0.2014-2.4473-0.78454-1.2691-0.3601-0.65465-0.14066-0.30351-0.036539-0.28115-0.003539-0.22217 0.03-0.19962 0.066465-0.27844 0.19314-0.23905 0.26562-0.47545 0.6001-0.29314 0.26639-0.35204 0.20279-0.40727 0.15361-0.44721 0.11743-0.47456 0.092035-1.9713 0.28711-0.46336 0.092511-0.42922 0.11988-0.37998 0.16012-0.31193 0.21642-0.17229 0.19642-0.2036 0.34126-0.33743 0.69629-0.2137 0.35316-0.31562 0.37792-0.3874 0.35902-0.44468 0.3451-0.49028 0.33507-0.52605 0.32776-0.55282 0.32183-1.1459 0.62275-2.0208 1.0246-0.093581 0.036608-0.17731-0.11252-0.11777-0.10694-0.4259-0.46833-0.75548-0.91365-0.47289-0.54194-0.332-0.34233-0.25417-0.23024-0.25393-0.19395-0.16056-0.10116-0.38581-0.17756-0.409-0.11692-0.42326-0.069172-0.43-0.03047-0.43018 0.00273-0.42424 0.033709-0.41211 0.065538-0.39322 0.10125-0.36647 0.14397-0.33028 0.19709-0.20276 0.17257-0.18439 0.1981-0.2 0.2601-0.18537 0.27994-0.7642 1.2966-0.32081 0.42673-0.17722 0.18351-0.24138 0.21044-0.26067 0.19364-0.52824 0.326-0.39758 0.20761-0.65072 0.30141-2.9869 1.2437-1.4121 0.55004-3.8462 1.4322-0.079185 0.020767-0.21864 0.009342-1.654-0.010422-0.95471 0.030225-0.67154 0.059043-1.839 0.19942-0.97814 0.13295-0.32217 0.065011-0.31722 0.09307-0.39024 0.1567-0.35555 0.18438-0.22103 0.1358-0.47378 0.34889-0.24082 0.20802-0.29276 0.2817-0.46329 0.52266-0.4466 0.59694-0.63946 0.90188-0.29372 0.37095-0.54576 0.63286-0.5721 0.73452-1.1023 1.5595-0.66027 0.78238-0.20329 0.29056-0.20757 0.37676-0.46361 1.0788-0.2743 0.53024-0.41078 0.67744-0.44422 0.6222-0.25509 0.31079-0.42884 0.46656-1.409 1.3309-0.39449 0.38939-0.46954 0.51538-0.27155 0.34087-0.23108 0.34243-0.13932 0.27985-0.030379 0.10631 0.003882 0.13005 0.074355 0.057043-0.34668-0.029279-1.4625-0.22224-1.9252-0.35045-1.0352-0.22249-0.89263-0.21266-0.91214-0.25962-0.89984-0.29764-0.88519-0.32533-1.7221-0.70277-1.6526-0.73736-2.583-1.2312-0.67908-0.29671-0.39442-0.14519-0.63923-0.17582-0.33878-0.057468-0.55944-0.039516-0.57198 0.002349-4.0405 0.14776-2.2932 0.032101-0.97645-0.015139-1.9627-0.066616-2.7992-0.14036-1.5146-0.12293-1.2361-0.14946-0.86152-0.14033-0.85589-0.16336-3.3513-0.71537-0.8081-0.1525-0.78731-0.12178-0.75907-0.077196-0.721-0.015232-0.67014 0.068655-0.60287 0.18011-0.54704 0.32525-0.49112 0.41579-0.47176 0.44301-0.4877 0.40824-0.54002 0.30872-0.29649 0.096489-0.56982 0.083388-0.61683-0.00776-0.6528-0.079472-0.67979-0.1361-0.86026-0.2283-0.43573-0.13493-0.84663-0.29212-1.089-0.42029-1.3173-0.56384-1.6812-0.7826-1.5534-0.7589-2.1454-1.0785-4.7877-2.451-1.6636-0.82288-0.82899-0.39289-1.1356-0.51184-0.77169-0.31444-0.72561-0.24715-1.1259-0.28658-0.32855-0.098692-0.12387-0.06099-0.08112-0.062724-0.17954-0.070489-1.2279-0.31232-0.42368-0.16573-0.59038-0.37916-0.57185-0.532-0.5499-0.64609-0.52812-0.72558-0.50783-0.77829-0.48928-0.81189-0.47219-0.83263-0.8962-1.6982-0.79618-1.6281-1.5441-3.2335-0.72821-1.4355-1.1601-2.1232-1.9831-3.4546-0.40169-0.75125-0.38072-0.75991-0.45378-0.9928-0.26995-0.65435-0.24426-0.66061-0.3519-1.134-0.51091-1.9005-0.23587-0.76949-0.1718-0.46282-0.19801-0.43919-0.22084-0.39238-0.25855-0.35982-0.40752-0.42207-0.4685-0.37423-0.51353-0.34532-0.63653-0.38377-0.66753-0.36821-0.68966-0.3506-0.9827-0.44808-0.87903-0.33821-0.53286-0.17074-0.56956-0.14734-0.5095-0.091555-0.71506-0.049489-0.69532 0.039299-0.65964 0.12199-0.53299 0.16285-1.7281 0.61247-0.51081 0.14532-0.67945 0.12117-0.57906-0.002118-0.32721-0.066058-0.60488-0.28405-0.5642-0.4515-0.51907-0.56543-0.46201-0.62088-0.38331-0.60448-0.26996-0.49156-0.10395-0.24658 0.24409-0.041817 0.4052-0.21478 0.4862-0.3343 0.5009-0.42262 0.464-0.49255 0.41192-0.57026 0.36941-0.59036 0.37983-0.56668 0.44773-0.50082 0.3068-0.24275 0.34249-0.21153 0.6762-0.31018 0.48606-0.16876 0.50645-0.14442 0.55177-0.13083 0.56016-0.11251 0.8197-0.13975 1.6449-0.24188 0.53968-0.10986 0.50671-0.14611 0.30433-0.11635 0.66918-0.34098 0.69149-0.42761 0.53846-0.38456 0.51877-0.42139 0.48736-0.45704 0.44208-0.49385 0.38541-0.5343 0.32216-0.56285 0.25442-0.58119 0.17809-0.59083 0.088781-0.59288-0.01382-0.69996-0.017536-0.18487-0.25844-1.7451-0.36717-2.1079-0.16022-0.74706-0.14885-0.56851-0.21453-0.72682-0.68844-2.1521-0.20835-0.70016-0.19615-0.754-0.16127-0.79243-0.061052-0.42353-0.084436-0.89302-0.083176-0.57898-0.12443-0.58226-0.16745-0.57376-0.21418-0.55281-0.2158-0.44226-0.83866-1.5761-0.32594-0.54626-0.36111-0.50127-0.41351-0.43107-0.47117-0.34091-1.5313-0.81775-0.45-0.32214-0.38466-0.40633-0.32183-0.4626-0.2804-0.48806-0.17506-0.33681-0.15049-0.33745-0.20257-0.62384-0.24448-0.86914-0.1098-0.49892-0.065169-0.50017 0.007214-0.52748 0.11982-0.50305 0.23562-0.43354 0.076083-0.10286 0.29168-0.32395 0.31655-0.28092 0.35543-0.26734 0.42635-0.27921 0.45766-0.26731 0.74867-0.39215 1.6048-0.74845 2.1312-0.91587 1.6573-0.67093 2.7018-1.0238 2.2954-0.95916 0.81601-0.36661 0.91565-0.44352 0.61827-0.32323 0.60154-0.33705 0.57867-0.35297 0.54899-0.37276 0.46438-0.35819 0.42656-0.38044 0.43786-0.475 0.35856-0.5167 0.22529-0.47024 0.15121-0.46296 0.089658-0.38629 0.070423-0.4178 0.049337-0.41142 0.060885-0.91442 0.01024-1.3334-0.026288-0.78423-0.043871-0.70631-0.12631-1.2306-0.10652-0.71704-0.20806-1.0809-0.73312-3.2121-0.29533-1.0684-0.38088-1.1238-0.40364-0.99357-1.0034-2.0585-0.59524-1.2905-0.36752-0.84719-0.56675-1.4093-1.0523-2.7028-0.55472-1.3339-0.30041-0.66318-0.31466-0.63612-0.63541-1.2248-0.32816-0.70478-0.31034-0.72981-0.28715-0.75034-0.25678-0.76679-0.21723-0.77917-0.17368-0.78745-0.311-1.5531-0.12721-0.50652-0.15013-0.47608-0.1081-0.28472-0.60744-1.38-0.37362-0.92817-0.12685-0.35767-0.080941-0.27497-0.067678-0.32729-0.040306-0.36164 0.009001-0.072283 0.20884-0.007099 0.28504 0.048913 0.49029 0.12091 0.5031 0.1596 0.56245 0.22813 0.49069 0.2548 0.67236 0.45766 0.38117 0.32681 0.43075 0.43949 0.20701 0.23965 0.62466 0.815 0.81887 1.1709 1.5549 2.2854 0.52397 0.73853 0.77733 1.0167 0.36007 0.43096 0.37273 0.41427 0.35184 0.35928 0.45213 0.41999 0.35832 0.30434 0.3671 0.29038 0.61549 0.45003 1.2614 0.87589 0.47891 0.35952 0.4871 0.40677 0.53015 0.50781 0.48625 0.53847 0.46169 0.58196 1.2429 1.7426 0.36253 0.44685 0.42912 0.43047 0.45203 0.33012 0.34412 0.1751 0.27931 0.099715 0.47022 0.095491 0.54892 0.014203 0.58612-0.085631 0.5031-0.14362 1.294-0.51488 0.3392-0.11419 0.53096-0.11068 0.42742-0.00231 0.21543 0.036703 0.16772 0.047803 0.36839 0.16406 0.36172 0.23314 0.41968 0.33193 0.91128 0.7842 0.72856 0.67885 0.55842 0.60042 0.49919 0.63317 0.24682 0.36024 0.20123 0.32738 0.23417 0.43384 0.20811 0.45511 0.17505 0.45514 0.20083 0.63373 0.17531 0.6763 0.18827 0.8669 0.35026 1.7874 0.2094 0.90465 0.25985 0.88696 0.15369 0.42879 0.16893 0.40776 0.24825 0.49922 0.25132 0.40012 0.1711 0.21839 0.16821 0.17656 0.13682 0.11878 0.51704 0.31036 0.59667 0.21899 1.7554 0.45029 1.1159 0.33475 1.4395 0.48698 3.3395 1.2072 1.7765 0.5983 0.56666 0.16819 1.0063 0.24636 0.53907 0.10453 0.91646 0.13327 1.0559 0.094141 0.54237 0.028173 1.145 0.025318 1.8916-0.022899 1.9113-0.064524 1.5966-0.086439 3.561-0.2467 5.0457-0.41374 3.9964-0.35524 7.1249-0.67476 9.4967-0.84348 5.9264-0.54506 1.8409-0.18727 0.8991-0.10884 0.87434-0.12698 0.83766-0.15408 0.7846-0.19347 0.70937-0.24948 0.60448-0.32769 0.46054-0.43515 0.19885-0.34284 0.12166-0.34126 0.080901-0.37247 0.051728-0.45253 0.015886-0.64-0.030552-0.67629-0.065125-0.70335-0.090497-0.72323-0.25165-1.6107-1.7443-9.7493-1.8091-9.6281-1.7409-8.8558-0.31842-1.7585-0.13707-0.86575-0.11214-0.84979-0.075999-0.82602-0.024704-0.79158 0.046792-0.74277 0.14491-0.67482 0.27764-0.58174 0.3476-0.39052 0.44055-0.32064 0.46666-0.24125 0.52278-0.20077 0.54298-0.15716 0.55267-0.12044 0.74267-0.11166 0.75354-0.059771 0.75049-0.002801 0.7339 0.06411 0.70321 0.14618 0.65698 0.24918 0.62968 0.38901 0.57988 0.48431 1.6147 1.6063 0.54808 0.45254 0.57853 0.33704 0.53243 0.16498 0.54982 0.048044 0.54981-0.06499 0.53225-0.18025 0.4279-0.24632 0.40298-0.31937 0.37837-0.37874 0.47333-0.58348 0.44211-0.63861 1.1288-1.8266 0.3908-0.58728 0.42398-0.52284 0.4816-0.42671 0.50268-0.28163 0.55486-0.19224 0.59156-0.11874 0.61454-0.057565 0.55418-0.008093 0.55446 0.023892 1.0505 0.082355 0.59118 0.010515 0.31109-0.018611 0.41673-0.059137 0.37884-0.09437 0.377-0.14066 0.43395-0.23202 0.36897-0.26179 0.21747-0.18133 0.52013-0.50549 1.4775-1.6448 0.51592-0.47813 0.55434-0.38016 0.44016-0.19396 0.46179-0.11581 0.4749-0.034668 0.44414 0.042242 0.44463 0.1057 0.55438 0.20931 0.54237 0.28082 0.54031 0.3449 0.60684 0.42405 0.60701 0.45392 0.5947 0.48 0.56902 0.5047 0.52851 0.53001 0.95765 1.0818 0.42856 0.44532 0.44659 0.41683 0.5913 0.46966 0.6045 0.39432 0.48002 0.24711 0.43949 0.16502 0.44049 0.12942 1.1656 0.29773 0.20534 0.047289 0.43407 0.062616 0.25062-0.004574 0.26708-0.057608 0.38447-0.21568 0.33007-0.34057 0.26662-0.43299 0.17166-0.41433 0.29204-0.9055 0.21326-0.57688 0.25045-0.55486 0.44114-0.8269 0.16501-0.36467 0.051298-0.14429 0.071292-0.28246 0.027129-0.23185-0.051392-0.59002-0.17992-0.61954-0.26173-0.64021-0.49074-1.0639-0.23273-0.57233-0.18578-0.58654-0.11784-0.59508-0.025644-0.59831 0.028057-0.29012 0.048659-0.26708 0.15582-0.53756 0.21907-0.53405 0.26826-0.52978 0.29242-0.50306 0.31748-0.49698 0.48936-0.70769 0.45877-0.6219 0.46611-0.58771 0.47076-0.5344 0.4739-0.45711 0.47652-0.34953 0.47954-0.20368 0.37545-0.035119 0.36712 0.062023 0.31949 0.12258 4.5911 2.4185 6.5935 3.3368 1.6202 0.85 0.79113 0.43652 0.66294 0.38661 0.57059 0.36201 0.62864 0.43177 0.58213 0.42666 0.55905 0.44062 0.53029 0.45605 1.1223 1.0507 0.47323 0.39424 0.49629 0.35408 0.52262 0.3022 0.53223 0.23627 0.55338 0.19842 1.2302 0.40042 0.67545 0.25419 0.6762 0.28589 1.3479 0.63602 1.059 0.535 1.4936 0.72817 1.5256 0.70106 0.76356 0.30741 0.76278 0.25694 0.76108 0.18522" stroke="#bdc660"/>
    </defs>
    <g clip-path="url(#pea353b7b0a)">
     <use y="194.675907" fill="#bdc660" stroke="#bdc660" xlink:href="#m1fe9831d48"/>
    </g>
   </g>
  </g>
 </g>
 <defs>
  <clipPath id="pea353b7b0a">
   <rect x="7.2" y="7.2" width="357.12" height="180.28"/>
  </clipPath>
 </defs>
</svg>
