<?xml version="1.0" encoding="UTF-8"?>
<!DOCTYPE svg  PUBLIC '-//W3C//DTD SVG 1.1//EN'  'http://www.w3.org/Graphics/SVG/1.1/DTD/svg11.dtd'>
<svg width="294.93pt" height="280.51pt" version="1.1" viewBox="0 0 294.93 280.51" xmlns="http://www.w3.org/2000/svg" xmlns:xlink="http://www.w3.org/1999/xlink">
 <metadata>
  <rdf:RDF xmlns:cc="http://creativecommons.org/ns#" xmlns:dc="http://purl.org/dc/elements/1.1/" xmlns:rdf="http://www.w3.org/1999/02/22-rdf-syntax-ns#">
   <cc:Work>
    <dc:type rdf:resource="http://purl.org/dc/dcmitype/StillImage"/>
    <dc:date>2024-07-04T12:10:33.316980</dc:date>
    <dc:format>image/svg+xml</dc:format>
    <dc:creator>
     <cc:Agent>
      <dc:title>Matplotlib v3.7.1, https://matplotlib.org/</dc:title>
     </cc:Agent>
    </dc:creator>
   </cc:Work>
  </rdf:RDF>
 </metadata>
 <defs>
  <style type="text/css">*{stroke-linejoin: round; stroke-linecap: butt}</style>
 </defs>
 <g id="figure_1">
  <g id="patch_1">
   <path d="m0 280.51h294.93v-280.51h-294.93v280.51z" fill="none"/>
  </g>
  <g id="axes_1">
   <g id="PatchCollection_1">
    <defs>
     <path id="m978bafecc3" d="m140.32-255 0.26352 0.025055 0.27216-0.005183 0.28996-0.024595 0.82155-0.099287 0.39985-0.032562 0.36589-0.003856 0.36509 0.033868 0.53061 0.13061 0.27246 0.09498 0.54515 0.22161 1.2688 0.55046 0.65563 0.23964 0.367 0.11004 0.30926 0.076796 0.44404 0.081227 0.17746 0.020722 0.52227 0.01942 0.66494-0.004305 0.13338 0.007256 0.26317 0.039496 0.25859 0.090206 0.099735 0.049488 0.31026 0.21627 0.18559 0.22448 0.084281 0.19975 0.13959 0.56452 0.046921 0.11556 0.10152 0.17193 0.11476 0.13199 0.16028 0.13197 0.14466 0.091927 0.31948 0.1549 0.43162 0.14642 0.6167 0.14962 3.775 0.76012 0.50729 0.0916 0.59509 0.08666 0.77793 0.065803 0.79461 0.01305 0.39072-0.013627 0.68666-0.057991 0.69553-0.099031 1.1523-0.20328 0.75384-0.10662 0.66841-0.072579 1.3781-0.11202 0.78456-0.08728 0.73991-0.11832 0.66871-0.15001 1.6442-0.45557 0.37942-0.11701 1.1358-0.38916 1.0828-0.39959 0.51229-0.20399 0.61378-0.26567 2.0638-0.98771 0.61406-0.26611 0.62689-0.24866 0.42419-0.15385 0.43037-0.14261 0.75908-0.2142 0.45915-0.10521 0.71968-0.12974 0.64064-0.079607 0.6447-0.043121 0.64395-6.71e-4 0.35853 0.020599 0.79756 0.10289 0.74828 0.17536 0.36512 0.12011 0.25241 0.10023 0.38722 0.19074 0.20962 0.13251 0.10316 0.079444 0.13558 0.14337 0.026134 0.071902-0.011368 0.031172-0.35917 0.64279-0.19542 0.40968-0.18451 0.45457-0.12588 0.38398-0.097194 0.40411-0.044471 0.28424-0.024514 0.28904-0.00309 0.35934 0.02379 0.35905 0.071449 0.49562 0.069008 0.32285 0.13886 0.49565 0.1697 0.48622 0.18501 0.45809 0.39962 0.86725 0.66674 1.284 1.3472 2.4537 0.42234 0.84518 0.18648 0.41132 0.16414 0.40508 0.13443 0.39742 0.095424 0.38796 0.044774 0.37625-0.017016 0.42711-0.047397 0.43483-0.032017 0.44051-0.046033 0.90015-0.031943 0.39807-0.055306 0.47316-0.073567 0.48025-0.17123 0.87713-0.19784 0.84135-0.27738 1.0875-0.28781 0.97463-0.15752 0.42648-0.1631 0.36105-0.9832 1.9106-0.18804 0.39531-0.24245 0.57658-0.090801 0.27683-0.04663 0.22842-0.001304 0.13045 0.026736 0.082172 0.04271 0.022601-0.23795 0.015881-0.066305 0.034525-0.11038 0.11208-0.070451 0.1678-0.014064 0.096954 0.00419 0.14136 0.035096 0.16746 0.069706 0.16118 0.096408 0.13435 0.12205 0.11831 0.26877 0.1812 0.43706 0.26945 0.2803 0.22689 0.13235 0.14583 0.10038 0.16314 0.058566 0.17443 0.01495 0.32892-0.090494 0.33194-0.051613 0.10311-0.15391 0.22783-0.50518 0.62365-0.54016 0.71436-0.28028 0.40902-0.22382 0.35955-0.23669 0.43953-0.20208 0.49115-0.079857 0.286-0.043051 0.28477 0.017876 0.42104 0.097308 0.39861 0.14998 0.36332 0.33972 0.63999 0.07451 0.20028 0.042689 0.23857-0.023507 0.22832-0.1108 0.22448-0.18755 0.1988-0.24851 0.16798-0.29393 0.135-0.39073 0.13035-0.27115 0.06685-0.49799 0.074668-0.51811 0.026716-0.50527-0.038489-0.34886-0.081529-0.64374-0.21477-0.2912-0.081893-0.26467-0.038864-0.22699 0.023261-0.16121 0.086697-0.11124 0.14478-0.06309 0.27409 0.004176 0.28553 0.098168 0.89411 0.011648 0.29858-0.020732 0.30586-0.072815 0.33993-0.12186 0.34361-0.19162 0.39315-0.23994 0.38688-0.1907 0.26004-0.20966 0.25206-0.26048 0.27456-0.2822 0.25843-0.19728 0.16007-0.42964 0.30152-0.53432 0.30709-0.45801 0.2183-0.46579 0.18832-0.37806 0.13108-1.4014 0.38928-0.33769 0.12515-0.32977 0.1478-0.37051 0.19413-0.35596 0.2132-0.95394 0.60608-0.54816 0.3076-0.57951 0.29371-0.50653 0.23117-0.52052 0.21568-0.64628 0.23763-0.66041 0.19919-0.43896 0.10326-0.4426 0.084186-0.4322 0.066759-0.73371 0.083664-1.8416 0.17034-0.30203 0.044477-0.44116 0.087964-0.61786 0.16137-1.1985 0.36205-0.57923 0.14991-1.0245 0.19396-0.29523 0.073926-0.31049 0.10767-0.30242 0.14518-0.48475 0.33972-0.4562 0.44066-0.43196 0.51732-0.38779 0.53653-1.0645 1.6314-0.23348 0.33702-0.20344 0.26994-0.15776 0.17727-0.089129 0.042904-0.013161 0.089467 0.048855 0.18812 0.13407 0.31354 0.42931 0.78438 0.52746 0.90597 0.27679 0.44589 0.29913 0.42336 0.32641 0.38296 0.35998 0.32469 0.47841 0.30279 1.0106 0.49376 0.50916 0.26467 0.37696 0.23267 0.62404 0.46232 0.48904 0.39487 0.5088 0.43538 0.59768 0.55351 1.1656 1.1428 0.31732 0.32716 0.52281 0.59638 0.52327 0.62657 1.1532 1.2972 0.13776 0.17347 0.10842 0.15146 0.22748 0.36739 0.20118 0.38817 0.67563 1.552 0.23509 0.42269 1.5736 2.4125 0.55264 0.96033 0.43984 0.86698 0.22418 0.52454 0.10744 0.30982 0.090043 0.3352 0.18613 0.8115 0.16951 0.51701 0.55181 1.3596 0.11265 0.24057 0.17912 0.31927 0.26463 0.38084 0.49197 0.63425 0.2233 0.32468 0.90129 1.4936 0.22397 0.34182 0.26932 0.3708 0.29788 0.3578 0.31182 0.32321 0.44293 0.41001 1.2902 1.0671 0.61887 0.55819 0.39711 0.41696 0.35453 0.43936 0.33742 0.51359 0.16879 0.30515 0.13791 0.2898 0.09596 0.23637 0.11313 0.33792 0.09908 0.40368 0.037493 0.23063 0.023575 0.32067-0.012943 0.28273-0.045707 0.28816-0.088672 0.35896-0.32008 1.1298-0.086816 0.44075-0.11167 0.71793-0.094896 0.38607-0.14762 0.34124-0.16347 0.22738-0.18965 0.17819-0.18955 0.081167 0.037138 0.021184 0.13198 0.15296 0.24335 0.34806 0.3227 0.52056 0.2958 0.54374 0.17739 0.38073 0.41534 1.0886 0.13504 0.30933 0.30086 0.54873 0.2663 0.40694 0.29018 0.40623 0.44368 0.58474 0.60054 0.72497 0.61354 0.68367 2.6744 2.793 0.80192 0.86476 0.3851 0.37399 0.38604 0.3062 0.39525 0.21233 0.12203 0.041404 0.26806 0.056721 1.1056 0.060654 0.31744 0.064495 0.30851 0.11735 0.27006 0.16195 0.25414 0.20531 0.2152 0.21427 0.34655 0.42584 0.41295 0.61277 0.2059 0.34969 0.32083 0.59166 0.19111 0.39629 0.38273 0.90224 0.12706 0.2696 0.21242 0.3548 0.26091 0.34318 0.36058 0.3783 0.40716 0.34313 0.44235 0.29845 0.25096 0.14008 0.91804 0.45617 0.44739 0.25878 0.30363 0.20126 0.17824 0.13367 0.30662 0.27799 0.16567 0.19496 0.099352 0.1459 0.077622 0.14338 0.077479 0.20705 0.021291 0.093117 0.016185 0.14852-0.023539 0.26549-0.034356 0.12742-0.12328 0.2792-0.25927 0.38085-0.39694 0.42666-0.46995 0.41226-0.51185 0.39873-0.80154 0.58472-0.34598 0.26899-0.23801 0.20123-0.32517 0.29952-0.24238 0.24267-1.3197 1.4174-0.36668 0.40935-0.16379 0.21052-0.12281 0.18253-0.095721 0.17668-0.075299 0.34242 0.049513 0.18395 0.11677 0.17165 0.272 0.21855 0.10423 0.062308 0.19743 0.10336 0.52809 0.23694 2.3772 0.98848 0.21027 0.1067 0.11746 0.087527-0.01619 0.066601 0.16152 0.028098 0.25962-0.067131 0.32079-0.14041 0.4141-0.24525 0.32894-0.26131 0.28034-0.29888 0.23559-0.32588 0.37691-0.56912 0.16683-0.19078 0.10539-0.0921 0.23504-0.13747 0.25284-0.070804 0.25567-0.003399 0.24385 0.059607 0.13914 0.055687 0.71283 0.39679 0.38051 0.18072 0.33857 0.10998 1.0558 0.24175 0.62519 0.17842 0.4563 0.18065 1.0209 0.50674 0.3515 0.14 0.27569 0.091064 0.84189 0.22315 0.40533 0.11933 0.66957 0.25772 0.37007 0.12954 0.38456 0.084407 0.37501 0.018728 0.51402-0.047565 0.32307-0.058782 0.5335-0.12907 0.58438-0.17308 0.45266-0.16156 0.40068-0.17114 0.37493-0.19102 0.33988-0.21014 0.36875-0.28204 0.2858-0.24595 0.22863-0.23496 0.080596-0.10065 0.14401-0.2259 0.11463-0.26064 0.042485-0.14284 0.039407-0.21761 0.010543-0.20222-0.031152-0.2971-0.081312-0.25801-0.15306-0.25477-0.23314-0.22747-0.27972-0.19224-0.60317-0.37084-0.32751-0.25462-0.57052-0.50046-0.22277-0.17278-0.16443-0.14618-0.067522-0.14763 0.011652-0.071884 0.10814-0.15655 0.1929-0.15898 0.22725-0.14208 0.51498-0.25638 0.69348-0.28308 0.34563-0.12052 0.42384-0.12343 0.43503-0.088802 0.15813-0.02021 0.21649-0.015812 0.32266 0.001937 0.34404 0.037751 0.69203 0.13411 0.70653 0.10885 0.39387 0.084553 0.4232 0.14546 0.49352 0.22482 0.79475 0.40209 0.34896 0.13897 0.37694 0.10357 0.85407 0.15925 0.7093 0.091444 0.59121 0.049558 0.64718 0.035613 0.45747 0.00751 0.74056-0.006243 0.60717-0.027013 0.38237-0.038052 0.57942-0.09261 0.4293-0.095366 0.59301-0.15745 2.2892-0.66418 0.74544-0.26334 0.58842-0.2512 0.47186-0.2316 0.39445-0.21376 0.54861-0.33164 0.53639-0.36855 0.41105-0.32 0.49246-0.44586 0.96766-0.94351 0.33775-0.30066 0.26583-0.21833 0.29624-0.21974 0.35883-0.22516 0.25551-0.12643 0.25751-0.093523 0.2458-0.054807 0.5103-0.009598 0.1706 0.021677 0.45911 0.10467 0.35264 0.11304 0.60342 0.24076 0.3221 0.16066 0.33417 0.20598 0.31639 0.24931 0.14191 0.13875 0.21688 0.25479 0.31226 0.46107 0.56923 0.94893 1.1712 1.9016 0.33596 0.49679 0.38039 0.43945 0.23728 0.20773 0.41066 0.28884 0.37232 0.21777 0.74207 0.37508 0.54343 0.24089 0.4579 0.17341 0.3875 0.11858 0.39215 0.088447 0.28262 0.042071 0.45768 0.027284 0.44652-0.022298 0.42656-0.071027 0.12437-0.031559 0.42971-0.16066 0.38069-0.22992 0.31507-0.29834 0.15748-0.2242 0.10802-0.21112 0.09052-0.24794 0.055198-0.22322 0.045387-0.35236 0.003725-0.28151-0.017852-0.24224-0.087303-0.49699-0.14888-0.52632-0.16262-0.4533-0.12068-0.2901-0.25892-0.51915-0.14066-0.23431-0.25772-0.37303-0.75207-0.95051-0.25357-0.38429-0.26058-0.49401-0.41948-0.89351-0.14728-0.28241-0.11017-0.18786-0.56689-0.80424-0.21369-0.38363-0.081316-0.28272-0.009034-0.28519 0.074377-0.27612 0.17283-0.26388 0.26061-0.23549 0.31839-0.19301 0.37352-0.15844 0.14526-0.04807 0.4116-0.10853 0.43718-0.077958 0.50148-0.047789 0.68482-0.005007 0.45844 0.02259 0.51165 0.042119 0.85796 0.12378 0.36735 0.070453 0.38901 0.096129 0.34815 0.10523 0.49032 0.1765 0.48526 0.20447 0.3741 0.17793 0.36001 0.19438 0.47556 0.30198 0.51079 0.36915 0.36323 0.30153 0.26931 0.25975 0.32226 0.37269 0.32347 0.46503 0.27128 0.4872 0.26901 0.60373 0.46274 1.123 0.1589 0.34917 0.23795 0.47395 0.36086 0.62675 0.31028 0.46921 0.33246 0.44248 0.24176 0.28559 0.19186 0.20125 0.24527 0.2195 0.18321 0.1408 0.28934 0.19367 0.98677 0.57941 0.2306 0.14922 0.34429 0.25487 0.18034 0.15808 0.18041 0.18369 0.1648 0.20812 0.083337 0.13102 0.074444 0.14334 0.067606 0.16585 0.071301 0.23957 0.054203 0.26213 0.051371 0.35939 0.12648 1.1842 0.07622 0.52248 0.054185 0.27341 0.18078 0.67899 0.26526 0.838 0.2823 0.73122 0.17003 0.3704 0.12039 0.23204 0.24513 0.40879 0.17303 0.2421 0.21925 0.25906 0.13015 0.13484 0.36586 0.3319 0.24034 0.19537 0.76024 0.56798 0.272 0.18563 0.29947 0.18298 0.30852 0.15797 0.3092 0.12281 0.33472 0.099805 1.4243 0.3053 0.86313 0.23359 0.65755 0.23055 0.42577 0.1801 0.41213 0.1977 0.28078 0.15102 0.35759 0.22608 0.3388 0.28025 0.14847 0.16098 0.19119 0.25591 0.20284 0.3578 0.08838 0.19052 0.17068 0.43147 0.1159 0.3614 0.035483 0.15656 0.044833 0.33426 0.06675 0.93473 0.02192 0.14987 0.2142 1.0059 0.055854 0.42552 0.025465 0.37415 0.006797 0.38813-0.017674 0.54465-0.04572 0.55206-0.072094 0.54951-0.098715 0.53696-0.13319 0.5541-0.096392 0.31577-0.2209 0.52641-0.28031 0.49488-0.32626 0.45436-0.74051 0.87307-0.38786 0.56543-0.2887 0.5048-0.21726 0.43189-0.24409 0.5381-0.21733 0.54536-0.18705 0.55596-0.14992 0.559-0.15976 0.83313-0.085476 0.62188-0.021711 0.21208-0.025437 0.60144 0.035238 0.59403 0.10708 0.57222 0.19562 0.53444 0.2919 0.47981 0.36304 0.44344 1.0933 1.1494 0.30838 0.38457 0.24673 0.37714 0.4681 0.79252 0.32983 0.48484 0.36963 0.47865 0.39945 0.46871 0.42113 0.45405 0.4362 0.43335 0.4458 0.40484 0.45084 0.36628 0.31783 0.22448 0.26407 0.15547 0.27556 0.13614 0.22346 0.093966 0.40014 0.13664 0.40233 0.10294 0.34701 0.066518 0.34031 0.046044 0.65141 0.051621 0.39618 0.048642 0.38682 0.06854 0.36673 0.082975 0.32464 0.095225 0.35326 0.16698 0.28862 0.23448 0.053602 0.063611 0.063074 0.091249 0.072364 0.14434 0.051305 0.16878 0.025092 0.20785-0.015629 0.28474-0.079591 0.3682-0.095436 0.29115-0.24002 0.57681-0.48509 0.99572-1.5005 2.9229-0.29592 0.4614-0.34431 0.41796-0.39068 0.35188-0.43243 0.2612-0.089626 0.038902-0.4832 0.13904-0.45825 0.04179-0.36491-0.03512-0.1804-0.098836-0.4826-0.069122-0.42915-0.042412-0.56065-0.042373-0.95691-0.039134-0.91509 0.002028-2.2784 0.062435-0.54704-0.009316-0.53785-0.027252-0.78844-0.074649-1.6089-0.24409-0.65443-0.07686-0.31803-0.019091-0.46385 0.006601-0.34363 0.041065-0.32775 0.080789-0.26235 0.10373-0.36816 0.20784-0.29938 0.22104-0.34122 0.31666-0.26471 0.29014-0.5731 0.71818-1.4314 1.9502-0.74282 0.98601-0.34995 0.50626-0.22562 0.37726-0.19207 0.38039-0.78975 1.7873-0.32019 0.64964-0.20449 0.36385-0.1262 0.1942-0.21722 0.28549-1.3642 1.5864-0.57838 0.7488-0.22019 0.31428-0.30406 0.475-0.28978 0.52252-0.1958 0.4121-0.17821 0.44086-0.16808 0.53119-0.10085 0.4813-0.054822 0.51901-0.010058 0.4285 0.027586 0.41457 0.047341 0.30178 0.1471 0.66699 0.089943 0.53609 0.008334 0.28015-0.029535 0.24895-0.091386 0.28752-0.14383 0.27791-0.1596 0.23767-0.18233 0.23389-0.65814 0.7549-0.38998 0.49102-0.18356 0.28683-0.097258 0.18896-0.088748 0.22773-0.043077 0.16398-0.034258 0.29919 0.009152 0.30432 0.16417 1.1172 0.014838 0.17624 0.001063 0.2638-0.034595 0.2605-0.0842 0.27055-0.12829 0.26727-0.20285 0.32032-0.26047 0.33875-0.41547 0.44981-0.45148 0.40617-0.47465 0.35766-0.50231 0.30968-0.52358 0.24874-0.29912 0.10672-0.30187 0.078846-0.56862 0.058456-0.29424-0.020484-0.46854-0.08913-0.47112-0.138-0.67637-0.25089-0.80741-0.36883-0.82085-0.42137-0.51225-0.21632-0.53315-0.16654-0.29978-0.069725-0.79124-0.15366-0.55732-0.079822-0.46123-0.037062-0.56446-0.028211-1.0596 0.021068-0.33156 0.018686-0.45175 0.058856-0.99947 0.18393-0.35013 0.04968-0.28375 0.025803-0.2902 0.00582-0.22556-0.020658-0.18973-0.051188-0.1133-0.06106-0.051886-0.043275-0.092884-0.1325-0.04505-0.12843-0.028469-0.19481 6.97e-4 -0.23734 0.033864-0.33042 0.091317-0.63751 0.030914-0.36476 8.04e-4 -0.35912-0.020048-0.27819-0.053004-0.37167-0.10651-0.48312-0.083652-0.30529-0.16888-0.52056-0.12068-0.31428-0.1527-0.34582-0.23389-0.44713-0.1943-0.32144-0.42292-0.61658-0.28189-0.3735-0.44-0.53734-0.30078-0.33365-0.48348-0.47414-0.43913-0.36132-0.52072-0.3457-0.65212-0.32864-0.55178-0.19834-0.41291-0.1009-0.52261-0.066565-0.39868 0.001432-0.24876 0.028469-0.55016 0.14821-0.5434 0.25358-0.43113 0.27328-0.20083 0.16027-0.051556 0.073715-0.032475 0.056665-0.048482 0.25489-0.054793 0.46609-0.042178 0.69502-0.009219 0.50814 0.009404 0.55833 0.068715 1.3712 0.027156 1.0028-0.014757 0.84622-0.029827 0.5228-0.051016 0.54537-0.059115 0.45122-0.12245 0.70094-0.39072 1.724-0.23058 1.1026-0.10365 0.62364-0.081482 0.65814-0.051211 0.6212-0.032789 0.65221-0.02148 1.0346 0.030617 0.96182 0.03937 0.49699 0.10886 0.82819 0.13319 0.66508 0.1764 0.65296 0.13801 0.41198 0.15711 0.40492 0.28674 0.6303 0.20211 0.39557 0.41882 0.75234 1.1373 1.9318 0.27652 0.51993 0.18289 0.39761 0.21193 0.59429 0.096761 0.37594 0.056786 0.43314-0.025241 0.51212-0.082353 0.41368-0.15315 0.48042-0.16004 0.3699-0.11568 0.22178-0.19708 0.32186-0.23677 0.32662-0.29971 0.35983-0.35544 0.38077-0.30914 0.30159-0.3795 0.3355-0.5319 0.41093-0.85092 0.59876-0.38792 0.30972-0.24822 0.23103-0.26139 0.28837-0.21278 0.28479-0.17377 0.28071-0.14499 0.28496-0.16852 0.44831-0.067011 0.2795-0.031499 0.2661 0.011909 0.27823 0.068959 0.24472 0.11839 0.19074 0.16102 0.16117 0.072993 0.057127 0.2539 0.15312 0.2751 0.11001 0.29276 0.083392 0.77055 0.15828 0.70292 0.20528 0.29018 0.11802 0.23025 0.11661 0.15222 0.10463 0.13398 0.12329 0.1416 0.18376 0.56124 1.0088 0.12559 0.27357 0.046305 0.18589 0.015081 0.18081-0.064543 0.58543-0.007204 0.15594 0.009878 0.085424 0.059048 0.13894 0.034606 0.040752 0.17804 0.11801 0.21296 0.070505 0.16991 0.032477 0.29827 0.025951 0.24723-0.005592 0.28388-0.034609 0.33109-0.073577 0.29447-0.089922 0.85639-0.3201 0.21377-0.068919 0.26807-0.061 0.1489-0.015215 0.15725 0.004575 0.087978 0.015181 0.3138 0.15924 0.24449 0.28535 0.16271 0.37174 0.061828 0.42258-0.064628 0.44065-0.16883 0.37436-0.20377 0.32074-0.67375 0.96199-0.27332 0.44668-0.21836 0.42768-0.1629 0.46224-0.003436 0.30885 0.14988 0.12353-0.051652 0.079517-0.040412 0.13453-0.060596 0.29537-0.19547 1.3442-0.13606 0.68217-0.084587 0.30164-0.1026 0.28878-0.21564 0.45813-0.45866 0.83387-0.16468 0.40674-0.063898 0.30831-0.010644 0.15866 0.031366 0.33503 0.051004 0.18103 0.12335 0.27712 0.16234 0.261 0.19577 0.25209 0.34986 0.36851 0.25022 0.22661 1.1464 0.9401 0.47474 0.45561 0.31149 0.35611 0.11838 0.18618 0.051654 0.18101-0.014012 0.13953-0.054224 0.14369-0.12609 0.20534-0.1808 0.22743-0.43646 0.49785-0.22212 0.27966-0.14671 0.21755-0.13391 0.25021-0.084772 0.22479-0.052756 0.27972-0.003288 0.2476 0.13198 1.2583 0.001875 0.18476-0.026924 0.31557-0.066347 0.39839-0.099861 0.41507-0.13665 0.4205-0.17938 0.41406-0.23101 0.39446-0.29458 0.3599-0.42552 0.35444-0.50434 0.30166-0.56192 0.25978-0.59828 0.22516-0.61015 0.1943-0.58978 0.16375-1.0487 0.25829-0.09335-0.12802-0.53355-0.90121-0.37082-0.58953-0.41166-0.60709-0.44064-0.5878-0.46315-0.53922-0.48342-0.46442-0.50481-0.36313-0.45555-0.20977-0.30078-0.074365-0.19274-0.022508-0.20663-0.005104-0.39497 0.035974-0.40556 0.086846-0.56383 0.18591-0.51268 0.2215-0.33752 0.16844-0.88141 0.49074-1.6203 0.9387-0.81133 0.43637-0.39082 0.1929-0.38377 0.17522-0.515 0.21239-0.44886 0.16409-0.75551 0.22991-0.62763 0.14881-0.57122 0.10517-0.5709 0.076246-0.67739 0.049791-0.71385-0.00196-0.56322-0.051047-0.54163-0.10155-0.52247-0.14966-0.49848-0.19462-0.26555-0.12818-0.2603-0.14721-0.38388-0.26648-0.26056-0.22173-0.20216-0.20024-0.34192-0.40418-0.66409-0.94518-0.24128-0.31412-0.31943-0.38176-0.50014-0.54275-1.0095-1.0222-0.22664-0.25648-0.2291-0.30662-0.18891-0.30982-0.41211-0.81935-0.23379-0.32269-0.28895-0.28432-0.34276-0.23335-0.37658-0.16691-0.39474-0.08955-0.25753-0.010796-0.23162 0.021838-0.25607 0.051523-0.20741 0.058023-0.49031 0.17514-1.1556 0.49482-0.4934 0.18813-0.63614 0.19671-0.5869 0.12621-0.57249 0.07367-0.40619 0.021393-0.96937 0.024587-1.1855 0.11963-1.6833 0.11211-0.43357 0.055473-1.1854 0.18538-0.55367 0.097825-0.31423 0.067786-0.26968 0.072662-0.34325 0.11199-1.3118 0.48754-0.48636 0.22748-0.96344 0.51468-0.50456 0.21709-0.36441 0.13384-0.23701 0.072466-0.51609 0.11161-0.44711 0.043001-0.50316-0.01298-0.76928-0.075039-1.6339-0.21724-0.47685-0.03999-0.47401-0.019685-0.49564 0.002542-0.45311 0.017235-1.6358 0.1286-0.36402 0.010269-0.13586-0.013428-0.012458-0.016934-0.041714-0.009253-0.10385 0.005073-0.17066 0.031381-0.21808 0.063297-0.54202 0.22109-0.57375 0.27025-0.33035 0.17244-0.42507 0.24883-0.59009 0.3893-1.2539 0.8632-0.54864 0.34242-0.51779 0.2938-0.46442 0.22819-1.3826 0.59299-0.62213 0.28476-0.81356 0.41952-0.95809 0.53397-0.83374 0.40848-0.84574 0.38568-0.63485 0.24655-0.46269 0.13445-0.30452 0.043513-0.26186-0.009314-0.20019-0.04409-0.088431-0.032442-0.22094-0.12313-0.20307-0.16922-0.17681-0.19486-0.08626-0.11624-0.091486-0.14237-0.14041-0.26249-0.19964-0.48839-0.094371-0.2852-0.20043-0.73542-0.14204-0.73847-0.10703-0.78816-0.032966-0.53826-0.005565-0.83047-0.032787-0.63811-0.047855-0.446-0.15149-1.15-0.048212-0.47045-0.022962-0.46501 0.033878-0.63012 0.076375-0.40472 0.18283-0.62314 0.20237-0.5226 0.23707-0.50994 0.26042-0.49124 0.37383-0.62412 0.42719-0.65939 0.90568-1.3267 0.35285-0.4583 0.59034-0.72343 0.37345-0.40542 0.35595-0.31418 0.48317-0.36216 1.124-0.77902 0.49843-0.36471 0.66139-0.53533 0.76728-0.68402 0.63593-0.622 0.46701-0.51361 0.41353-0.51194 0.1444-0.20238 0.25045-0.39927 0.25674-0.50792 0.13797-0.34268 0.10092-0.29711 0.079668-0.2747 0.27452-1.1651 0.4781-1.7935 0.14904-0.6122 0.16083-0.82547 0.10696-0.6982 0.071967-0.80058 0.038599-0.86503-0.020263-0.39892-0.067577-0.33576-0.084949-0.22774-0.091698-0.1773-0.12568-0.19196-0.25874-0.3017-0.26345-0.23654-0.23825-0.18079-0.48713-0.31471-1.7392-0.98075-1.6586-1.0217-0.53092-0.29531-0.64894-0.31363-0.48986-0.22147-1.7088-0.69724-0.47063-0.16109-0.32116-0.085236-0.60216-0.12097-0.53614-0.078149-0.11367-0.007975-0.093186 0.01068 0.033556 0.065929-0.024276 0.064674-0.06175 0.045018-0.093607 0.031541-0.71086 0.058222-0.57664 0.10447-0.60506 0.17092-0.31916 0.11198-0.9645 0.3811-0.2244 0.070208-0.21582 0.044142-0.1913 0.009906-0.25275-0.042361-0.24984-0.087776-0.54605-0.2358-0.47254-0.24267-0.93808-0.51641-1.1758-0.57436-0.34483-0.15003-0.29372-0.10222-0.73241-0.21394-0.50642-0.19381-1.292-0.56956-0.34689-0.16969-1.0508-0.55123-0.31079-0.14698-0.24899-0.10468-0.31149-0.1064-0.33388-0.066591-0.18931-0.007152-0.24325 0.027395-0.24456 0.056732-0.6731 0.19184-0.36504 0.11447-0.29665 0.10795-0.26586 0.11729-0.15188 0.082604-0.10975 0.07345-0.038923 0.042343 0.10696 0.072448 0.035228 0.12894-0.010833 0.23038-0.031616 0.14204-0.093391 0.27273-0.13408 0.29642-0.25943 0.47561-0.17358 0.28902-0.41034 0.63471-0.49655 0.70377-0.44273 0.57889-0.64002 0.79118-0.59658 0.6976-0.42362 0.46096-0.88176 0.87898-1.3343 1.2515-0.45222 0.4596-0.26102 0.293-0.49171 0.59484-0.35808 0.47091-0.29862 0.4342-0.18795 0.30657-0.15271 0.27825-0.14869 0.30976-0.11562 0.28358-0.15487 0.45333-0.12952 0.48976-0.28094 1.3973-0.10714 0.44785-0.32872 1.1036-0.3772 1.0963-0.29823 0.94946-0.10934 0.42826-0.17477 0.80631-0.15442 0.48646-0.14589 0.35521-0.14242 0.29923-0.21876 0.3874-0.1324 0.19863-0.1617 0.21079-0.23506 0.25046-0.2548 0.209-0.25812 0.15812-0.33599 0.1535-0.34829 0.095571-0.32227 0.026633-0.32709-0.014374-0.73729-0.087363-0.4001-0.086202-0.31098-0.11009-0.93812-0.41287-0.3223-0.14366-0.30508-0.16689-0.3702-0.2783-0.50796-0.44822-0.20152-0.14997-0.30269-0.14657-0.28243-0.044876-0.30436 0.018874-0.31904 0.069105-0.29597 0.10051-0.25522 0.12144-0.25839 0.15288-0.26382 0.18209-0.26478 0.2053-0.62621 0.5587-1.1277 1.1026-0.49532 0.4327-0.49079 0.36725-0.23002 0.15135-0.41817 0.24845-0.64764 0.3376-0.54558 0.25272-1.0033 0.40127-0.4262 0.15232-0.47676 0.15289-1.1665 0.33369-1.6851 0.4001-0.57594 0.19064-0.57533 0.23634-1.0816 0.50571-0.92739 0.46372-1.5497 0.81874-0.32066 0.14202-0.52863 0.19414-0.42403 0.12579-0.49867 0.12503-1.0396 0.21704-0.97429 0.17393-0.45181 0.09417-0.40218 0.1051-0.34047 0.10855-0.24306 0.093178-0.84074 0.3998-0.30923 0.11142-0.31113 0.065185-0.23479 0.014619-0.33597-0.012901-0.61786-0.048813-0.51224 0.001792-0.32651 0.048973-0.23515 0.074928-0.26224 0.1212-0.15134 0.085834-0.35142 0.238-0.41002 0.32674-0.62885 0.53965-0.60082 0.47149-0.73548 0.52809-0.6129 0.37784-0.3189 0.1723-0.6309 0.30784-0.74987 0.33588-0.78909 0.33558-0.32569 0.1271-0.35349 0.12049-0.30492 0.087714-0.43561 0.10452-0.4832 0.062888-0.2428-0.011374-0.30076-0.056981-0.18099-0.055399-0.24239-0.099098-0.23168-0.1224-0.17337-0.10941-0.38337-0.29706-0.54558-0.50084-0.36464-0.38535-0.26278-0.32207-0.15415-0.21147-0.19183-0.28817-0.19018-0.31916-0.34187-0.63845-0.5442-1.0944-0.39644-0.70206-0.4785-0.73656-1.5894-2.334-0.42261-0.58039-0.22204-0.26594-0.20621-0.22406-0.42547-0.40115-0.26988-0.21832-0.20158-0.14467-0.40585-0.25042-0.55464-0.27736-0.46764-0.18856-0.63215-0.21607-0.93696-0.27369-2.0274-0.48196-1.0952-0.30026-1.1735-0.37981-2.7482-0.9435-1.0643-0.32974-1.2271-0.34039-0.62554-0.14526-0.69704-0.10239-1.0367-0.11058-0.53769-0.089771-0.51695-0.13392-0.46554-0.17328-0.26779-0.1328-0.23883-0.14638-0.14774-0.1073-0.18842-0.16004-0.1307-0.13007-0.16375-0.19104-0.15892-0.22473-0.11723-0.20495-0.096366-0.21541-0.08772-0.28382-0.032618-0.17336-0.019952-0.26117 0.017972-0.28039 0.073552-0.32248 0.07857-0.17145 0.0678-0.062395-0.052829-2.06e-4 -0.080185-0.038172-0.23959-0.17163-0.62916-0.47682-0.34118-0.31092-0.41628-0.44855-1.0647-1.231-0.4122-0.50333-0.68377-0.87072-0.22104-0.25911-0.40282-0.3971-0.46305-0.31974-0.42306-0.21075-0.4476-0.16598-0.53462-0.14274-0.89791-0.17087-1.3647-0.18504-0.66932-0.11068-0.5951-0.1234-0.65821-0.16505-0.66527-0.20057-0.81943-0.28668-0.62609-0.24638-0.56516-0.24939-0.65954-0.31772-1.1571-0.58189-1.1688-0.63586-0.85831-0.49553-1.2-0.73895-0.73158-0.41521-0.2455-0.15292-0.27631-0.19791-0.31664-0.25314-0.92456-0.82494-0.20763-0.20546-0.18833-0.21192-0.30158-0.40907-0.21652-0.35822-0.13031-0.25096-0.16079-0.3608-0.14578-0.40904-0.20573-0.74993-0.30864-1.3474-0.11808-0.41048-0.15953-0.44347-0.53767-1.3266-0.30132-0.66825-0.23604-0.45647-0.84883-1.4309-0.67417-1.2075-0.093721-0.19883-0.11597-0.29054-0.063981-0.19805-0.090526-0.38393-0.043682-0.29656-0.022856-0.25845-0.010233-0.62832 0.043277-0.72329 0.16204-1.5515 0.035494-0.51794-1.91e-4 -0.30509-0.014129-0.30155-0.060514-0.65354-0.23664-1.6787-0.091242-0.75015-0.062451-0.89571-0.003321-0.76064 0.058247-0.6418 0.13968-0.58595 0.15001-0.36158 0.42311-0.79916 0.10891-0.23173 0.10755-0.27994 0.11424-0.44287 0.069092-0.53874 0.005189-0.46218-0.043272-0.36445-0.088172-0.19276-0.20682 0.052125-0.26074-0.07457-0.2317-0.16162-0.28406-0.34896-0.17572-0.40392-0.050347-0.30234 0.023128-0.30362 0.10965-0.30705 0.18268-0.29717 0.31285-0.37466 0.97316-0.99162 0.33394-0.4132 0.23353-0.41392 0.099438-0.42011-0.007384-0.17314-0.10141-0.3676-0.054739-0.11872-0.24566-0.38881-0.14903-0.1836-0.66972-0.74671-0.34751-0.43347-0.32375-0.52973-0.18701-0.46443-0.13338-0.49808-0.091412-0.52193-0.056842-0.51191-0.029365-0.43471-0.011101-0.60528 0.01328-0.38178 0.03008-0.37781 0.084464-0.58408 0.11954-0.51801 0.14657-0.49384 0.20181-0.552 0.13164-0.28506 0.45316-0.79316 0.14728-0.285 0.18875-0.50054 0.12657-0.54312 0.055719-0.4488 0.014128-0.31398-0.014728-0.47068-0.046141-0.42837-0.096723-0.51194-0.14513-0.50186-0.082036-0.22758-0.18262-0.43795-0.36136-0.72732-0.23996-0.4256-0.59519-0.99468-0.20272-0.38604-0.17153-0.39796-0.17782-0.59931-0.10882-0.62411-0.056094-0.63984-0.016077-0.64748 0.004329-0.34179 0.03133-0.68862 0.10743-1.6105 0.056498-0.69303 0.068362-0.62028 0.2814-1.7899 0.29064-1.7356 0.056059-0.47801 0.015405-0.34434-0.016322-0.33008-0.055785-0.31407-0.17933-0.47198-0.509-0.88879-0.22436-0.4656-0.15292-0.52192-0.097334-0.55096-0.079936-0.56014-0.099685-0.55014-0.22373-0.85202-0.10217-0.51777-0.16229-1.0708-0.10105-0.52008-0.14304-0.48703-0.14865-0.34615-0.278-0.56421-0.15374-0.35932-0.33562-0.84994-0.17027-0.5106-0.26909-0.87861-0.36992-1.3096-0.3876-1.1334-0.22868-0.54856-0.32588-0.62768-0.30467-0.51663-0.27362-0.42439-0.79647-1.1756-0.8165-1.1128-0.88323-1.3099-0.36313-0.45959-1.2953-1.4733-0.38864-0.51418-0.14899-0.23697-0.15458-0.2767-0.53528-0.988-0.11857-0.24704-0.17852-0.51795-0.064486-0.53198 0.030617-0.55477 0.079083-0.44296 0.11454-0.43968 0.26702-0.87786 0.12346-0.57282 0.06609-0.57801-0.004702-0.56636-0.0938-0.53704-0.11523-0.31792-0.20609-0.39137-0.70339-1.0969-0.88606-1.2363-0.28116-0.4253-0.87159-1.5196-0.39414-0.64715-0.79922-1.1116-1.3117-1.8979-0.25041-0.39925-0.21465-0.40538-0.15132-0.38108-0.095522-0.36668-0.037681-0.30893 0.002127-0.4336 0.068072-0.50401 0.12324-0.51306 0.1347-0.4386 0.59506-1.6022 0.14785-0.46036 0.064231-0.23406 0.13665-0.60768 0.082159-0.61712 0.008184-0.64616-0.069355-0.63452-0.14077-0.60527-0.19074-0.54368-0.29252-0.73364-0.14744-0.47682-0.035839-0.18807-0.021589-0.23179 0.003791-0.22446 0.030352-0.077464-0.79128-1.1407-0.41474-0.65555-0.40375-0.70622-0.3616-0.7322-0.29255-0.74368-0.11699-0.39246-0.05292-0.22314-0.063507-0.36365-0.039124-0.36483-0.029497-0.5978-0.00116-0.56865 0.015064-0.44622 0.1283-1.7074 0.1105-1.689 0.13009-1.503 0.058099-0.51661 0.086433-0.45334 0.13483-0.4331 0.050848-0.12166 0.11282-0.22504 0.28593-0.42933 0.40979-0.46304 0.47183-0.43146 0.37714-0.3017 0.39314-0.29379 1.4965-1.0873 0.60821-0.39772 0.43364-0.25826 0.44267-0.24344 0.45009-0.22733 0.38717-0.17851 0.51186-0.21004 1.1918-0.45513 0.81978-0.33412 0.627-0.28032 0.90901-0.44812 0.50192-0.28393 0.32099-0.23317 0.24568-0.25558 0.093719-0.14932 0.076244-0.21263-0.005707-0.39513-0.14958-0.42191-0.24127-0.443-0.54634-0.92114-0.45551-0.84875-0.2722-0.59606-0.35087-0.86028-0.43811-0.99378-0.30894-0.83249-0.16911-0.41037-0.21978-0.43379-0.47303-0.85373-0.17466-0.37119-0.13887-0.36315-0.14202-0.44124-0.10552-0.43926-0.050847-0.43027 0.024967-0.41368 0.1419-0.44342 0.063404-0.12428 0.18192-0.27512 0.2369-0.25842 0.27161-0.23019 0.38234-0.27201 0.65259-0.42103 0.24661-0.19584 0.13719-0.13974 0.09695-0.12584 0.097676-0.1767 0.091875-0.2971 0.038548-0.32568 0.004817-0.18968-0.04838-1.8989 0.019735-0.74196 0.079274-0.87669 0.13567-1.0583 0.036243-0.59412-0.031975-0.58757-0.12808-0.56206-0.14808-0.34285-0.11116-0.19194-0.34372-0.43296-0.42313-0.39819-1.2475-0.98569-0.65297-0.55924-0.45318-0.44731-0.23472-0.26243-0.24019-0.30022-0.21695-0.31239-0.27632-0.47974-1.2991-2.4254-0.765-1.5226-0.39423-0.7265-0.472-0.7948-0.1578-0.23472-0.059129-0.061004 2.011-0.66204 1.4526-0.43628 0.75065-0.20372 0.79313-0.19472 2.2918-0.52102 3.101-0.64252 0.40022-0.092905 2.6587-0.73508 0.65448-0.1486 0.64638-0.11716 0.63439-0.078721 0.6176-0.030812 0.59486 0.02943 0.57965 0.097338 1.1527 0.24877 0.23336 0.037002 0.43764 0.040879 0.31026-0.00253 0.3061-0.022708 0.31449-0.037423 0.31095-0.059053 0.39012-0.11765 0.3842-0.15242 0.47092-0.22452 0.41103-0.25055 0.80822-0.55699 0.39208-0.24004 0.40213-0.19546 0.41306-0.12877 0.37179-0.041168 0.37298 0.031913 0.32767 0.090173 0.32657 0.13723 0.50716 0.27548 0.78867 0.51264 0.80991 0.56446 1.4111 1.0433 0.44986 0.312 0.43443 0.25614 0.38638 0.1731 0.36543 0.14511 0.81185 0.36349 0.23808 0.063062 0.22951-0.018798 0.1573-0.090118 0.066072-0.10291 0.044406-0.18392 0.013533-0.21287 0.002506-0.68464 0.020145-0.24041 0.055935-0.23878 0.055516-0.13579 0.19981-0.30097 0.21933-0.21917 0.10765-0.086733 0.40886-0.24818 0.47182-0.19608 0.51856-0.14912 0.36981-0.070751 0.79332-0.1152 0.23944-0.045037 0.339-0.086141 0.33718-0.10862 0.33613-0.1278 0.9471-0.40847 0.35347-0.1433 0.50892-0.18354 0.5235-0.15168 1.4391-0.30819 0.78705-0.21254 0.29803-0.10254 0.48883-0.19498 0.59596-0.269 0.14946-0.094614 0.14802-0.089901 0.080092-0.074522 0.26325 0.001302 0.12166 0.02623 0.20912 0.063995 0.29528 0.11964 0.31656 0.15851 0.33025 0.19062 0.2631 0.1662 0.42041 0.28989 0.42022 0.31391 1.66 1.3219 0.47615 0.36592 0.50873 0.36733 0.23127 0.15264 0.64084 0.37075 0.41141 0.20837 0.554 0.22164 0.43355 0.14416 1.328 0.40494 0.32307 0.11703 0.5517 0.25276 0.8686 0.44517 1.6588 0.80286 0.49125 0.28611 0.34994 0.25204 1.0961 0.87188 0.70459 0.51335 1.0645 0.68996 0.51285 0.30269 0.50705 0.27525 0.49144 0.23753 0.46462 0.18596 0.18322 0.0577 0.33865 0.066261 0.31584-0.00252 0.28223-0.0854 0.2115-0.15118 0.18319-0.21455 0.23254-0.41421 0.18007-0.44742 0.43271-1.2304 0.27474-0.66812 0.69121-1.5131 0.14096-0.33602 0.24734-0.65418 0.12999-0.3918 0.16675-0.6263 0.063309-0.33682 0.12509-1.0021 0.071051-0.40201 0.082775-0.31244 0.086337-0.2123 0.080572-0.06736 0.034823-0.017574 0.16601-0.244 0.13909-0.23509 0.48712-0.86725 0.50497-0.93667 0.19558-0.3313 0.21198-0.32127 0.4447-0.55099 0.43592-0.41707 0.42345-0.32458 0.42258-0.26461 0.44274-0.22742 0.45921-0.19082 0.40175-0.13382 0.40954-0.10966 0.36426-0.078345 0.36769-0.064347 0.74292-0.099831 2.7124-0.27867 1.1707-0.13825 0.59163-0.094735 0.57798-0.11928 0.6147-0.16616 0.58772-0.20162 0.38926-0.16007 0.37044-0.17465 0.34854-0.18778 0.56704-0.36713 0.25334-0.19383 0.45351-0.37897 0.31476-0.22216 0.26891-0.15291 0.89681-0.44069 0.23703-0.13247 0.30555-0.20685 0.19604-0.1722 0.14615-0.16672 0.11058-0.1634 0.12507-0.23964 0.1222-0.2898 0.14149-0.38186 0.43065-1.3326 0.14426-0.37024 0.17325-0.36655 0.39878-0.74215 0.2689-0.53624 0.36211-0.78377 0.21012-0.50323 0.13531-0.40112 0.075404-0.3313 0.043516-0.35286 0.042251-0.60375 0.046241-0.31817-0.013623-0.20534 0.031413-0.41541 0.033503-0.23044 0.060019-0.28229 0.12947-0.40938 0.11546-0.27021 0.21742-0.39682 0.30514-0.42127 0.2828-0.30364 0.25604-0.2234 0.37419-0.26094 0.36168-0.19653 0.30758-0.13332 0.39838-0.13572 0.6255-0.14758 0.60923-0.08373 0.47333-0.031276 0.41487-0.00576 0.64313 0.028218 0.51351 0.049697 1.6575 0.22736 0.85415 0.07486 0.58496 0.010156 0.54858-0.026589 0.60169-0.074814 0.52894-0.10937 0.63982-0.19375 0.37018-0.14504 0.53338-0.25338 0.62448-0.35145 0.43995-0.22971 0.85216-0.36769 1.0108-0.37302 0.35112-0.17741 0.16572-0.11379 0.13844-0.11845 0.13118-0.14067 0.18057-0.26993 0.12259-0.30783 0.044577-0.21776 0.015493-0.19886-0.00534-0.23869-0.046277-0.42174-0.20529-1.429-0.085512-0.42808-0.17038-0.71429-0.021456-0.19989 0.005775-0.20143 0.067134-0.25628 0.10205-0.15646 0.13324-0.10052 0.12481-0.041535 0.12679-0.009794 0.13377 0.013705 0.73206 0.19868 0.22083 0.040152 0.1789 0.017578 0.15722 0.001359 0.22417-0.029113 0.17105-0.056684 0.12585-0.074219 0.070305-0.064773 0.047634-0.063355 0.063964-0.15941 0.018555-0.15105-9.68e-4 -0.26952 0.02044-0.25262 0.037623-0.14331 0.11786-0.23866 0.23066-0.26678 0.2499-0.19011 0.15862-0.092564 0.29463-0.12978 0.26589-0.077405 0.20063-0.037474 0.31244-0.029028 0.36818 0.001815 0.26292 0.020773 0.26974 0.036505 1.0514 0.19282 0.4143 0.037081 0.20818 0.005587 0.6417-0.019585 0.72458-0.066336 1.8098-0.26331 0.38568-0.031917 0.43809-2.6e-5 0.15003 0.015326 0.093264 0.02657 0.009613 0.016439 0.061017-0.021645 0.075873-0.081257 0.12156-0.21656 0.098793-0.30678 0.13088-0.63347 0.079041-0.25056 0.17756-0.38963 0.5749-1.0352 0.23169-0.46894 0.13052-0.34885 0.046529-0.17681 0.038017-0.26757 1.58e-4 -0.15113-0.029994-0.20359-0.070667-0.21345-0.14289-0.26086-0.14522-0.19472-0.37063-0.42966-0.19774-0.25683-0.12339-0.19917-0.10554-0.21312-0.099892-0.26752-0.075655-0.28123-0.054188-0.29153-0.040489-0.37975-0.005245-0.57746 0.042065-0.53638 0.081343-0.57436 0.060414-0.29828 0.075726-0.28152 0.093934-0.2572 0.11226-0.22615 0.13037-0.18521 0.13356-0.12302 0.14239-0.071393 0.13159-0.013649 0.1248 0.035893 0.084773 0.059624 0.073223 0.085377 0.052481 0.092798 0.053478 0.14079 0.04193 0.16204 0.19641 1.1999 0.085776 0.34216 0.13275 0.36934 0.17777 0.35346 0.16595 0.25212 0.18527 0.23344 0.24236 0.25936 0.28338 0.26066 0.16903 0.13318 0.093649 0.058104 0.044567 0.002278-0.064415 0.10951-0.044836 0.18927-0.015901 0.20398 0.011298 0.2908 0.018741 0.16197 0.074376 0.38667 0.12624 0.35804 0.11519 0.18525 0.13423 0.13238 0.18157 0.10118 0.21311 0.058903" stroke="#bdc660"/>
    </defs>
    <g clip-path="url(#p14a5418bfb)">
     <use y="280.512" fill="#bdc660" stroke="#bdc660" xlink:href="#m978bafecc3"/>
    </g>
   </g>
  </g>
 </g>
 <defs>
  <clipPath id="p14a5418bfb">
   <rect x="7.2" y="7.2" width="280.53" height="266.11"/>
  </clipPath>
 </defs>
</svg>
