<?xml version="1.0" encoding="UTF-8"?>
<!DOCTYPE svg  PUBLIC '-//W3C//DTD SVG 1.1//EN'  'http://www.w3.org/Graphics/SVG/1.1/DTD/svg11.dtd'>
<svg width="157.9pt" height="280.51pt" version="1.1" viewBox="0 0 157.9 280.51" xmlns="http://www.w3.org/2000/svg" xmlns:xlink="http://www.w3.org/1999/xlink">
 <metadata>
  <rdf:RDF xmlns:cc="http://creativecommons.org/ns#" xmlns:dc="http://purl.org/dc/elements/1.1/" xmlns:rdf="http://www.w3.org/1999/02/22-rdf-syntax-ns#">
   <cc:Work>
    <dc:type rdf:resource="http://purl.org/dc/dcmitype/StillImage"/>
    <dc:date>2024-07-04T12:10:32.948440</dc:date>
    <dc:format>image/svg+xml</dc:format>
    <dc:creator>
     <cc:Agent>
      <dc:title>Matplotlib v3.7.1, https://matplotlib.org/</dc:title>
     </cc:Agent>
    </dc:creator>
   </cc:Work>
  </rdf:RDF>
 </metadata>
 <defs>
  <style type="text/css">*{stroke-linejoin: round; stroke-linecap: butt}</style>
 </defs>
 <g id="figure_1">
  <g id="patch_1">
   <path d="m0 280.51h157.9v-280.51h-157.9v280.51z" fill="none"/>
  </g>
  <g id="axes_1">
   <g id="PatchCollection_1">
    <defs>
     <path id="md61b20ba52" d="m81.749-259.35 0.26044 7.07e-4 0.24916-0.03708 0.15641-0.047169 0.25041-0.11372 0.26444-0.16552 0.20436-0.15404 0.37279-0.30342 0.086583-0.062916 0.008142 0.014858 0.004945 0.055249 0.001065 0.11087-0.012635 0.63025 0.006195 0.37908 0.023389 0.3872 0.063655 0.77441 0.066917 0.70097 0.058725 0.44908 0.069776 0.40966 0.051415 0.24708 0.058638 0.2425 0.081481 0.28553 0.095008 0.27708 0.14359 0.33768 0.13537 0.25594 0.083573 0.13715 0.14092 0.20677 0.12085 0.16031 0.24928 0.29737 0.2692 0.29094 0.28862 0.29013 0.69735 0.67015 0.30405 0.31842 0.17513 0.19883 0.20179 0.2478 0.10952 0.15198 0.076685 0.12387 0.057675 0.11477 0.044741 0.12501 0.017099 0.081936 0.005539 0.071669-0.040963 0.22027-0.10218 0.22-0.1292 0.23126-0.12477 0.25483-0.084087 0.24253-0.065838 0.26175-0.15392 0.83457-0.054366 0.25596-0.067718 0.24571-0.088002 0.22992-0.11619 0.20788-0.14406 0.17566-0.16816 0.15684-0.5193 0.40215-0.12941 0.10871-0.11773 0.11137-0.10615 0.11835-0.11972 0.16768-0.20485 0.35235-0.36774 0.74083-0.12994 0.23408-0.24313 0.38565-0.1105 0.21819-0.079593 0.1948-0.064175 0.18309-0.10463 0.34371-0.13246 0.51348-0.054725 0.30496-0.023135 0.29841 2.92e-4 0.17379 0.03653 0.71056-0.006372 0.41354-0.018494 0.23023-0.038907 0.2806-0.044211 0.21642-0.040711 0.15388-0.092449 0.25873-0.039728 0.087518-0.12053 0.2216-0.15106 0.23242-0.21008 0.28682-0.24231 0.31114-0.093515 0.11099-0.090991 0.093767 0.29155 0.079989 0.2543 0.050537 0.32228 0.04122 0.2113 0.010896 0.16264-0.001698 0.15884-0.011884 0.78454-0.12595 0.40438-0.077982 0.22816-0.0593 0.1073-0.034341 0.10442-0.039123 0.13364-0.060878 0.52204-0.29124 0.14268-0.068365 0.17419-0.073261 0.41794-0.14374 0.57865-0.16067 0.60952-0.13721 0.2184-0.039956 0.29121-0.042417 0.17787-0.01757 0.21784-0.011575 0.29943-0.00198 0.31788 0.009632 0.59988 0.038518 0.18138 0.018777 0.14865 0.023134 0.20661 0.053012 0.10265 0.040265 0.094321 0.050049 0.084669 0.061847 0.07203 0.075047 0.083958 0.14426 0.055322 0.1716 0.028519 0.15323 0.017929 0.16041 0.033553 0.60057 0.011191 0.042202 0.008597 0.00264 0.006914 0.037053-0.003015 0.17801-0.043513 0.54809-0.10957 0.98674-0.12434 0.99531-0.049746 0.54021-0.078868 1.3613-0.025857 1.1781-0.025255 0.4142-0.047988 0.4131-0.031928 0.21695-0.065717 0.38596-0.09267 0.47101-0.040582 0.26578-0.007754 0.111 0.023895 0.50556-0.002872 0.28151-0.0613 1.0743-4.18e-4 0.28913 0.006024 0.14239 0.018299 0.22245 0.066584 0.61964 0.018732 0.39244-0.0045 1.292 0.016371 0.43833 0.020118 0.24571 0.092705 0.84845 0.057518 0.43144 0.057677 0.32309 0.13502 0.66419 0.042796 0.26328 0.054962 0.5078 0.068655 0.42328 0.055434 0.24028 0.049692 0.17328 0.058756 0.16738 0.070146 0.1598 0.087459 0.15836 0.098413 0.1509 0.2151 0.29028 0.4449 0.57452 0.30368 0.43061 0.090405 0.14522 0.093423 0.16744 0.11664 0.25595 0.062243 0.18212 0.051145 0.18624 0.16994 0.75947 0.050069 0.18804 0.26063 0.78681 0.066332 0.28456 0.039206 0.2571 0.030228 0.31966 0.031874 0.67446 0.021449 0.27036 0.020066 0.1468 0.033648 0.16168 0.046862 0.1541 0.075739 0.17039 0.051932 0.085521 0.058302 0.076087 0.090693 0.088069 0.063519 0.045545 0.061792 0.034207 0.062725 0.025066 0.041281 0.010093 0.035126-0.003705 0.16324-0.13933 0.10438-0.079789 0.15629-0.10642 0.21362-0.11818 0.20434-0.083826 0.16813-0.050199 0.17498-0.037753 0.19815-0.028359 0.20165-0.016283 0.37355-0.005298 0.69555 0.020003 0.25488-0.011531 0.2284-0.030341 0.223-0.048856 0.2008-0.059093 0.17083-0.060151 0.24576-0.098164 1.2751-0.57249 0.41075-0.16655 0.25726-0.076756 0.1418-0.025193 0.13918-0.008331 0.2263 0.030898 0.10654 0.037192 0.12235 0.063405 0.12778 0.092426 0.1759 0.17348 0.12674 0.1559 0.12164 0.16874 0.22044 0.33082 0.24912 0.38952 0.49883 0.81089 0.15957 0.22973 0.094369 0.11541 0.1078 0.1093 0.10856 0.083554 0.12387 0.064025 0.15344 0.036186 0.18566-0.015263 0.12325-0.045067 0.11794-0.070962 0.099844-0.084875 0.091733-0.10307 0.081337-0.11878 0.070546-0.13375 0.063947-0.16298 0.048616-0.17706 0.035063-0.20837 0.016273-0.21953-0.001199-0.21734-0.01594-0.22159-0.027902-0.21819-0.037032-0.21579-0.17206-0.77509-0.017348-0.1075 0.008001-0.022227-0.004119-0.010348 0.007401-0.025234 0.013695-0.018612 0.085626-0.071104 0.076128-0.04592 0.10794-0.053419 0.1544-0.061595 0.2595-0.077258 0.19244-0.041072 0.19917-0.030022 0.31886-0.022884 0.25824 0.005133 0.3592 0.049734 0.30725 0.097207 0.18164 0.093865 0.12651 0.089852 0.20577 0.21052 0.13246 0.194 0.12161 0.22825 0.32916 0.73923 0.21219 0.4352 0.18277 0.32433 0.12657 0.18398 0.080077 0.097849 0.13066 0.13122 0.15294 0.1212 0.1554 0.10275 0.43987 0.26637 0.26435 0.17516 0.26061 0.1971 0.22963 0.20559 0.097439 0.10013 0.12716 0.14561 0.13632 0.17465 0.19527 0.27163 0.1689 0.25458 0.47933 0.78343 0.15948 0.23286 0.27166 0.35028 0.28494 0.32974 0.19534 0.20578 0.14226 0.13698 0.18907 0.16577 0.19807 0.15612 0.2587 0.1806 0.18891 0.11819 0.38896 0.21483 0.19915 0.097001 0.39928 0.16938 0.37718 0.13037 0.32685 0.091654 0.38649 0.088119 0.36778 0.07016 0.73414 0.11843 0.88435 0.13201 0.9221 0.12994 0.7699 0.093982 0.41405 0.04251 0.49471 0.038255 0.47335 0.021281 0.44067-0.004722 0.16648-0.011427 0.1703-0.021756 0.12304-0.028555 0.032371-0.012718 0.014815-0.018709 0.027746 0.002979 0.1094-0.030113 0.12645-0.055418 0.15964-0.080969 0.59777-0.36091 0.214-0.13699 0.19745-0.14667 0.15206-0.13584 0.20686-0.21932 0.27529-0.31601 0.18325-0.17368 0.10064-0.079818 0.1177-0.075866 0.0965-0.041552 0.07429-0.021592 0.077048-0.014633 0.10218-0.00851 0.10416 0.003377 0.15535 0.02792 0.12303 0.041923 0.12037 0.056954 0.11484 0.06823 0.11168 0.07762 0.20795 0.16716 0.31826 0.27319 0.17896 0.12731 0.10296 0.051814 0.12005 0.033882 0.12464 0.010126 0.12602-0.012143 0.12413-0.034396 0.16134-0.078804 0.30392-0.17362 0.22643-0.10597 0.41028-0.16192 0.21106-0.069267 0.036905-0.003886 0.071623 0.028198 0.18394-0.023634 0.21392-0.046688 1.0857-0.28239 0.26028-0.058538 0.22912-0.043488 0.2364-0.035873 0.24724-0.027819 0.1891-0.011942 0.18014-5.53e-4 0.16124 0.012079 0.13966 0.024297 0.080753 0.022054 0.13027 0.048704 0.13607 0.066603 0.16353 0.096654 0.39604 0.25004 0.134 0.089356 0.12042 0.10636 0.038649 0.044813 0.10992 0.17683 0.08897 0.21172 0.07617 0.2356 0.19635 0.67931 0.10905 0.29408 0.08137 0.17266 0.076195 0.13194 0.09984 0.13694 0.13842 0.136 0.1853 0.11426 0.21995 0.08306 0.24118 0.052833 0.25636 0.025343 0.26645-0.0014 0.27216-0.029359 0.16762-0.032654 0.2384-0.0642 0.30512-0.10976 0.26943-0.12161 0.26988-0.14469 0.22006-0.13556 0.1816-0.12442 0.17826-0.13252 0.39836-0.32555 0.42171-0.3692 0.26062-0.23896 0.37773-0.37505 0.19422-0.21041 0.68184-0.77768 0.23857-0.24536 0.24354-0.20812 0.2382-0.15749 0.23452-0.11979 0.21185-0.081684 0.16374-0.040269 0.08267 0.010629 0.024537 0.005318 0.025088 0.021443 0.096865 0.12273 0.10071 0.15931 0.1671 0.29872 0.1137 0.22587 0.1418 0.31699 0.1865 0.48669 0.18307 0.56379 0.21906 0.81777 0.087289 0.36451 0.1243 0.61993 0.101 0.41974 0.071069 0.2404 0.071966 0.21337 0.11695 0.28986 0.12263 0.24486 0.081478 0.13895 0.090224 0.13696 0.18789 0.2502 0.49238 0.60091 0.12663 0.16842 0.12 0.17373 0.19018 0.3061 0.44054 0.77334 0.35371 0.56192 0.1736 0.33672 0.15464 0.35483 0.20015 0.51627 0.17816 0.50743 0.07674 0.26042 0.05868 0.24081 0.048299 0.24429 0.038409 0.24698 0.029534 0.27564 0.01098 0.29757-0.006221 0.30282-0.017332 0.30771-0.045907 0.62821-0.068609 1.1222-0.06739 0.66517-0.037991 0.27629-0.0723 0.44476-0.005224 0.074824-0.085356 0.066194-0.12308 0.20519-0.083363 0.18103-0.1122 0.28374-0.13529 0.40264-0.1472 0.47435-0.068916 0.24486-0.22231 0.87271-0.10336 0.36185-0.071751 0.21569-0.093532 0.2443-0.1099 0.24696-0.1175 0.23026-0.13233 0.23116-0.17629 0.2791-0.43074 0.63758-0.13061 0.2042-0.13599 0.22963-0.10841 0.20406-0.098099 0.21404-0.063808 0.16691-0.071429 0.25197-0.040455 0.26628-0.040412 0.53021-0.039593 0.26923-0.071235 0.26019-0.079461 0.1851-0.099127 0.17637-0.084911 0.12666-0.12157 0.1554-0.16848 0.17644-0.18088 0.1541-0.39741 0.30902-0.20572 0.17504-0.47348 0.42337-0.13852 0.10556-0.12846 0.081401-0.15132 0.07512-0.13859 0.049508-0.24386 0.047264-0.25328 0.006875-0.20791-0.022805-0.1036-0.020624-0.19135-0.050857-0.15813-0.050646-0.9227-0.33484-0.52024-0.17739-0.31663-0.093342-0.23605-0.059445-0.29474-0.058822-0.13308-0.020149-0.34068-0.036297-0.24041-0.01561-0.86143-0.036478-0.26732-0.02595-0.13161-0.019755-0.25528-0.049267-0.30194-0.07514-0.2499-0.082482-0.52526-0.20759-0.1028-0.030821-0.15356-0.031505-0.082237-0.008092-0.12798 0.002184-0.12745 0.020053-0.22197 0.067315-0.765 0.32439-0.41287 0.16565-0.63153 0.28958-0.25022 0.090696-0.2665 0.063729-0.28899 0.046024-0.27599 0.025356-0.14847-0.006634-0.13324-0.025001-0.11249-0.036028-0.46817-0.21215-0.18135-0.073223-0.3527-0.12886-1.0386-0.33828-0.91928-0.32905-1.0673-0.36496-0.24257-0.069874-0.16958-0.033309-0.10658-0.009811-0.12827 0.005463-0.18381 0.063881-0.073319 0.057852-0.053596 0.071286-0.035078 0.091703-0.014473 0.083232-0.013011 0.39121 0.002003 0.093361 0.020064 0.2278 0.030734 0.17949 0.18748 0.82814 0.030181 0.19245 0.013936 0.19442-0.008325 0.20165-0.02937 0.20428-0.071229 0.29222-0.098507 0.29408-0.13006 0.32062-0.1461 0.31966-0.22754 0.45835-0.43828 0.84963-0.11949 0.25154-0.17812 0.4006-0.082903 0.15779-0.18927 0.30488-0.1031 0.14649-0.19179 0.24808-0.16041 0.18633-0.18725 0.19595-0.19978 0.18493-0.28194 0.224-0.29543 0.20671-0.48415 0.31666-0.2421 0.14504-0.21343 0.11404-0.23402 0.10778-0.24005 0.089349-0.24642 0.066187-0.36344 0.049697-0.37403 0.011749-1.4414-0.033241-0.62079 0.001105-0.28042-0.015778-0.30013-0.052683-0.30274-0.082549-0.85231-0.29096-0.22347-0.066513-0.14892-0.037208-0.039162 6.31e-4 -0.039959 0.077563-0.041358 0.19342-0.037779 0.26406-0.027678 0.30291-0.032342 0.6248-0.022883 0.2193-0.034512 0.21494-0.057798 0.25357-0.068602 0.24078-0.080984 0.2425-0.070794 0.16747-0.10533 0.19112-0.071317 0.1034-0.19135 0.22099-0.45246 0.43876-0.49786 0.43413-0.11097 0.13078-0.049049 0.079931-0.041282 0.086712-0.051829 0.15408-0.13397 0.60108-0.060142 0.19853-0.052875 0.1342-0.083715 0.16775-0.093945 0.1638-0.3334 0.53717-0.21807 0.3777-0.11066 0.14183-0.1336 0.12175-0.15456 0.089874-0.15087 0.044849-0.10768 0.01303-0.18943-0.012673-0.19463-0.049998-0.19278-0.079553-0.3503-0.19112-0.21464-0.10543-0.54029-0.23524-0.24554-0.099857-0.30165-0.087756-0.32524-0.060205-0.33885-0.034475-0.3433-0.008535-0.3388 0.019744-0.3249 0.052639-0.30049 0.09263-0.18874 0.090657-0.16196 0.098651-0.43108 0.3171-0.12568 0.085325-0.10982 0.059929-0.079825 0.027755-0.056311 0.006038-0.047538-0.006874-0.078993-0.039425-0.090375-0.064468-0.075911-0.042693-0.090002-0.031859-0.06494-0.011195-0.08997-0.004913-0.39932 0.015417-0.46225 0.05853-0.18279 0.013465-0.18385-0.00548-0.34828-0.036678-0.19945-9.87e-4 -0.17527 0.03155-0.17024 0.068775-0.16412 0.11494-0.14816 0.14876-0.13204 0.17028-0.11504 0.18058-0.2492 0.48441-0.11997 0.15549-0.1563 0.1284-0.16898 0.082696-0.19085 0.060937-0.41843 0.10154-0.18 0.050489-0.17619 0.060257-0.1802 0.07658-0.16698 0.085388-0.46743 0.2884-0.11713 0.11442-0.058102 0.15706-0.003596 0.1879 0.040323 0.41045-0.022441 0.19662-0.07974 0.15923-0.13125 0.12656-0.16634 0.084918-0.38733 0.1242-0.20474 0.050348-0.21372 0.029635-0.17999 0.001526-0.17918-0.016201-0.16471-0.026646-0.37222-0.080596-0.15316-0.017836-0.13673 0.014397-0.11192 0.044836-0.11524 0.099701-0.0836 0.13034-0.049664 0.13655-0.009303 0.11761 0.003728 0.0179-0.009343 0.040503-0.069094 0.10152-0.12327 0.13578-0.16365 0.15011-0.19184 0.15007-0.23636 0.1541-0.249 0.12747-0.71506 0.25896-0.22157 0.092412-0.3152 0.14403-0.59148 0.29752-0.17302 0.10526-0.13722 0.095427-0.12037 0.094166-0.15131 0.13585-0.65401 0.67961-0.55698 0.4961-0.30694 0.2931-0.2293 0.24366-0.19181 0.23096-0.13518 0.18464-0.1121 0.17272-0.098177 0.17106-0.10154 0.20551-0.075467 0.18628-0.055073 0.18537-0.029404 0.16425-0.015485 0.16348-0.027743 0.57603-0.087102 0.55852-0.016583 0.19113-0.008781 0.37343 0.017046 0.1708 0.052698 0.14752 0.081018 0.10125 0.14158 0.097552 0.091283 0.040477 0.11829 0.041 0.3804 0.1158 0.1782 0.072182 0.15066 0.083027 0.12588 0.092632 0.13271 0.11968 0.118 0.11866 0.15547 0.17914 0.083282 0.11366 0.090348 0.14209 0.35245 0.61994 0.16604 0.25086 0.19991 0.2468 0.11052 0.11693 0.14191 0.13594 0.2104 0.18098 0.10693 0.083118 0.17353 0.1234 0.35861 0.22553 0.5504 0.30282 0.84678 0.42407 0.18979 0.10881 0.18053 0.12266 0.13696 0.113 0.21122 0.22804 0.36343 0.46641 0.16515 0.1834 0.18116 0.16394 0.15127 0.10693 0.16048 0.091224 0.22965 0.1017 0.18505 0.063338 0.46668 0.12934 0.22882 0.072769 0.2273 0.086576 0.31426 0.14746 0.13845 0.072824 0.18081 0.10662 0.17069 0.11756 0.48112 0.35986 0.27218 0.18184 0.126 0.0721 0.22149 0.11122 0.303 0.13039 0.31608 0.12056 0.68397 0.24265 0.3977 0.14892 0.32122 0.13386 0.26799 0.12575 0.23354 0.1221 0.23361 0.13511 0.22544 0.14279 0.90676 0.62522 0.27598 0.18144 0.29325 0.1825 0.43502 0.25267 0.29146 0.15947 0.51497 0.26131 0.41909 0.19495 0.29267 0.12755 0.22343 0.085779 0.19558-0.39557 0.10033-0.18649 0.10926-0.17851 0.10786-0.15712 0.11657-0.15486 0.24444-0.2937 0.35418-0.39722 0.55214-0.59851 0.34084-0.35818 0.1561-0.15721 0.27405-0.25756 0.37939-0.32432 0.55799-0.45916 0.18047-0.15822 0.17572-0.16594 0.15025-0.15554 0.16059-0.1842 0.14451-0.18445 0.40309-0.55647 0.20796-0.25842 0.28641-0.3155 0.31742-0.30826 0.14394-0.12472 0.16665-0.1319 0.16941-0.12013 0.17417-0.10736 0.16076-0.080035 0.14112-0.050307 0.15645-0.030767 0.18115-0.009382 0.18342 0.012079 0.12858 0.019125 0.15514 0.034218 0.15356 0.0468 0.099136 0.038043 0.17039 0.081129 0.1368 0.078252 0.43113 0.2844 0.1626 0.091804 0.45913 0.23321 0.46123 0.25555 0.27894 0.12146 0.2912 0.10684 0.28563 0.093834 0.30511 0.072486 0.63877 0.11027 0.31674 0.065014 0.30245 0.091546 0.27694 0.13556 0.14316 0.10416 0.13002 0.12008 0.13124 0.14867 0.094791 0.12694 0.074781 0.11294 0.31491 0.54819 0.093446 0.15146 0.10264 0.15023 0.12048 0.1548 0.11106 0.1233 0.13242 0.12517 0.2263 0.17532 0.34408 0.22072 0.094022 0.056233 0.038925 0.016202 0.076501-0.009049 0.16038-0.001373 0.19724 0.007608 0.29648 0.029713 0.26047 0.049936 0.28734 0.098194 0.14937 0.08615 0.096168 0.084048 0.074274 0.0935 0.035233 0.062697 0.065183 0.20504 0.027256 0.20619 0.010505 0.13464 0.031412 0.53648 0.002595 0.1331-0.014047 0.18657-0.064178 0.31861-0.057609 0.20807-0.090992 0.26523-0.11551 0.25099-0.37245 0.56961-0.089848 0.20365-0.12108 0.37029-0.17128 0.3961-0.063418 0.16127-0.051823 0.19189-0.051429 0.31373-0.013801 0.22036 0.013741 0.2209 0.039644 0.21898 0.13853 0.49771 0.052842 0.26051 0.016214 0.14808 0.008904 0.44725 0.011046 0.16643 0.043206 0.29338 0.10079 0.50908 0.026017 0.16793 0.010791 0.1449-0.003534 0.10674-0.016769 0.10052-0.028467 0.085495-0.055055 0.10152-0.073779 0.090067-0.065522 0.059261-0.10845 0.076401-0.070164 0.040766-0.29273 0.13272-0.13184 0.069062-0.16928 0.11638-0.074953 0.063192-0.053473 0.055187-0.09837 0.12982-0.10676 0.18459-0.056157 0.14228-0.048556 0.20686-0.034689 0.37807-0.011546 0.24362-0.002507 0.23863 0.013434 0.33327 0.055825 0.57586 0.016357 0.31789 0.004423 0.27233-0.004446 0.21573-0.020508 0.29444-0.038811 0.28798-0.065117 0.34119-0.062847 0.2386-0.21042 0.67937-0.056631 0.24865-0.025177 0.17763-0.007841 0.10276-0.002163 0.15518 0.016713 0.22742 0.051831 0.31885 0.11332 0.56472 0.020349 0.16177 0.007959 0.16321-0.003414 0.1335-0.013301 0.13869-0.018937 0.11546-0.027941 0.11859-0.026614 0.081079-0.022488 0.047949-0.029617 0.030943 0.057614 0.041252 0.34595 0.18484 0.19542 0.12358 0.088471 0.065891 0.14259 0.12717 0.13779 0.15762 0.1402 0.21087 0.081425 0.15152 0.085105 0.18595 0.11282 0.29672 0.11476 0.40465 0.039295 0.17596 0.029397 0.18266 0.078395 0.95324 0.071822 0.60715 0.006358 0.19271-0.009376 0.13683-0.031186 0.18279-0.062445 0.2158-0.07063 0.17633-0.054589 0.11355-0.10904 0.19408-0.096204 0.15015-0.09479 0.13684-0.12863 0.16879-0.12837 0.1493-0.1459 0.1488-0.096345 0.087546-0.13043 0.10704-0.13596 0.099751-0.14912 0.098479-0.21613 0.1293-0.86848 0.48032-0.44645 0.26222-1.1362 0.71577-1.1047 0.72698-0.40819 0.24807-0.3757 0.1998-0.452 0.19962-1.047 0.41101-0.63764 0.23696-0.33888 0.14175-0.3554 0.18039-0.11548 0.067911-0.21053 0.14086-0.15398 0.1201-0.15992 0.14603-0.11096 0.12043-0.12994 0.17838-0.045019 0.080161-0.0431 0.094818-0.049738 0.15228-0.034851 0.17894-0.011563 0.10929-0.005984 0.1162 0.001039 0.19808 0.019936 0.29973 0.040683 0.35066 0.051093 0.3491 0.25532 1.513 0.032522 0.31786 0.025596 0.48562 0.044197 0.28706 0.067029 0.25451 0.060459 0.16985 0.071994 0.16282 0.14952 0.25202 0.11357 0.1372 0.13084 0.11758 0.2414 0.14427 0.27805 0.11791 0.30142 0.10461 0.62791 0.20267 0.3058 0.11405 0.28643 0.13385 0.25547 0.16346 0.16057 0.14153 0.11203 0.11912 0.43734 0.52983 0.064801 0.069048 0.13723 0.12754 0.19309 0.13969 0.16698 0.09962 0.47849 0.26135 0.15273 0.095363 0.25741 0.19313 0.25415 0.22955 0.27923 0.29279 0.25868 0.30927 0.20855 0.296 0.20342 0.34663 0.16664 0.33834 0.11177 0.26803 0.094296 0.26764 0.10044 0.34853 0.063795 0.27958 0.065538 0.39311 0.032052 0.34407 0.00692 0.20069-0.004051 0.254-0.011481 0.17606-0.030049 0.26534-0.044399 0.27228-0.081629 0.38088-0.26182 1.0589-0.051119 0.25552-0.035734 0.23744-0.015333 0.19318 0.005932 0.22803 0.026337 0.16917 0.059857 0.20853 0.050232 0.12809 0.076094 0.16356 0.33304 0.61746 0.34877 0.67065 0.17871 0.30192 0.11819 0.16892 0.14395 0.17276 0.19576 0.19013 0.5306 0.42406 0.2431 0.22054 0.61232 0.64701 0.22116 0.24337 0.17881 0.21476 0.17074 0.22756 0.24726 0.36721 0.40947 0.66158 0.15388 0.20836 0.035638 0.03802 0.03161 0.017787-0.28058 0.1272-0.092048 0.051693-0.14159 0.0941-0.10726 0.088818-0.097313 0.10071-0.091503 0.12291-0.048909 0.082194-0.062407 0.12774-0.042699 0.10575-0.2253 0.68554-0.11724 0.31001-0.13649 0.27504-0.12924 0.20323-0.076607 0.1009-0.18384 0.20409-0.20531 0.191-0.1591 0.12892-0.47365 0.3559-0.21359 0.18783-0.11876 0.11618-0.18547 0.20489-0.090376 0.11427-0.085522 0.1183-0.14795 0.2319-0.081273 0.14855-0.089143 0.19038-0.31671 0.77622-0.16321 0.48351-0.079386 0.26476-0.037362 0.15168-0.027227 0.16308-0.009915 0.10174-0.004301 0.12038 0.004445 0.11657 0.016754 0.12969 0.022718 0.098633 0.032887 0.096595 0.030144 0.063937 0.027812 0.032797 0.40814 1.9347 0.15347 0.85414 0.25437 1.701 0.07235 0.52682 0.062903 0.57009 0.075763 0.90839 0.056007 0.48246 0.046753 0.30399 0.16645 0.91951 0.18996 1.2105 0.10524 0.55419 0.19247 0.87587 0.059388 0.31481 0.040611 0.27796 0.027197 0.30725 0.00546 0.23744-0.009358 0.27386-0.023915 0.27359-0.20266 1.3981-0.13228 1.1049-0.26914 1.9926-0.037833 0.48563-0.007862 0.25678 0.003865 0.30612 0.019263 0.2674 0.032976 0.25573 0.041008 0.22811 0.05775 0.25211 0.08766 0.31208 0.11228 0.33029 0.08994 0.22117 0.061421 0.13125 0.20501 0.38358 0.092457 0.19137 0.036883 0.092961 0.054391 0.17505 0.035628 0.16076 0.027515 0.18177 0.015051 0.1575 0.030081 0.41353 0.010987 0.20788 0.002027 0.1905-0.019576 0.28135-0.016547 0.10879-0.044086 0.2033-0.062477 0.21451-0.068022 0.19704-0.3093 0.82062-0.21469 0.61788-0.090156 0.29177-0.047192 0.23203-0.01174 0.15982 0.01056 0.1567 0.020616 0.10798 0.028731 0.094368 0.042582 0.098067 0.070092 0.1171 0.087403 0.1113 0.12567 0.12492 0.12477 0.094193 0.15136 0.080377 0.13539 0.042535 0.22401 0.017769 0.23503-0.030321 0.28197-0.080112 0.62632-0.24195 0.18519-0.056066 0.17859-0.028431 0.085673-9.11e-4 0.14248 0.021704 0.077636 0.024794 0.082558 0.036392 0.34612 0.21463 0.091394 0.043842 0.1938 0.063713 0.20982 0.05404 0.21355 0.067364 0.20491 0.10498 0.10736 0.084421 0.12853 0.13456 0.15392 0.21641 0.069897 0.12182 0.10114 0.20957 0.053204 0.13156 0.096003 0.30674 0.061439 0.32276 0.022492 0.31398-0.006568 0.31812-0.029273 0.31739-0.047046 0.31202-0.092128 0.51196-0.043885 0.29938-0.032488 0.29711-0.01742 0.29065-0.001512 0.1991 0.006596 0.16826 0.01899 0.1914 0.033457 0.18095 0.06803 0.2273 0.10901 0.32238 0.1129 0.40465 0.15205 0.61143 0.09854 0.45753 0.087292 0.50412 0.07144 0.50978 0.031832 0.32364 0.052073 0.70535 0.049317 0.50262 0.074411 0.56557 0.11999 0.74449 0.10972 0.5928 0.10139 0.49443 0.15773 0.69881 0.3164 1.3162 0.18835 0.85674 0.099972 0.52012 0.065781 0.39519 0.066498 0.48115 0.035504 0.33863 0.028216 0.41658 0.014664 0.42797-8.86e-4 0.55948-0.016163 0.41342-0.027524 0.37176-0.042461 0.38603-0.23607 1.6933-0.031322 0.27716-0.022849 0.27631-0.009708 0.20953 0.001081 0.30394 0.022459 0.31774 0.025295 0.19435 0.03439 0.19266 0.052243 0.22362 0.067176 0.22925 0.095456 0.26663 0.080472 0.19419 0.073723 0.16385 0.44861 0.92888 0.12921 0.3028 0.085321 0.21878 0.080364 0.22129 0.13433 0.40596 0.14113 0.47412 0.18598 0.66002 0.09911 0.33126 0.098448 0.30023 0.16672 0.44857 0.15233 0.36781 0.20274 0.44916 0.19288 0.39563 0.26794 0.50506 0.20934 0.36414 0.2099 0.34368 0.3894 0.59794 0.62907 0.91102 1.0285 1.4105 0.22139 0.31313 0.30127 0.44806 0.19686 0.31695 0.27974 0.49916 0.21296 0.42107 0.15311 0.32576 0.14698 0.3291 0.26811 0.63215 0.42795 1.0621 0.30511 0.80381 0.66494 1.824 0.11986 0.36034 0.12887 0.44681 0.14602 0.61538 0.086502 0.43422 0.04798 0.31135 0.030032 0.30962 0.001576 0.37586-0.034693 0.29645-0.050578 0.23014-0.074108 0.23939-0.064527 0.17143-0.089831 0.21052-0.17267 0.35517-0.11855 0.22033-0.19052 0.33077-0.36974 0.6117-0.27473 0.42199-0.1779 0.2465-0.26894 0.34196-0.37674 0.44253-1.0792 1.1842-0.06792 0.077618-0.030207 0.0451-0.10335-0.043594-0.21803-0.11399-1.4624-0.80344-0.33359-0.17412-0.99309-0.48632-0.70873-0.37164-0.25228-0.11978-0.2413-0.098364-0.14364-0.050229-0.31678-0.089165-0.86519-0.18767-0.81532-0.19687-0.83826-0.18884-0.68678-0.14703-0.21186-0.038856-0.21466-0.029724-0.25891-0.022577-0.33376-0.008503-0.1732 0.003607-0.96934 0.064766-0.72469 0.028877-0.76194 0.044202-0.20729-0.004658-0.12283-0.01278-0.16198-0.029679-0.14056-0.039178-0.15631-0.060239-0.25536-0.13184-0.46465-0.28681-0.3713-0.24436-0.93795-0.66458-0.19112-0.12861-0.20129-0.11552-0.13315-0.061372-0.086781-0.032631-0.16131-0.044904-0.10738-0.019611-0.19098-0.018079-0.18549-8.24e-4 -0.14366 0.008119-0.42314 0.05279-0.83965 0.14435-0.39602 0.058216-0.38995 0.038482-0.44611 0.009717-0.32222-0.009836-0.29274-0.018923-0.44838-0.04679-0.66721-0.082531-0.60006-0.042321-0.81956-0.026855-0.99022-0.010027-0.43779-0.019099-0.24602-0.026419-0.2339-0.036775-0.21823-0.045888-0.16602-0.04513-0.15022-0.05216-0.12247-0.051982-0.20141-0.10573-0.179-0.11617-0.093758-0.068827-0.24799-0.20813-0.10687-0.10073-0.2123-0.2187-0.15482-0.17272-0.56726-0.67897-0.38728-0.44033-1.2924-1.38-0.3036-0.29584-0.13873-0.12026-0.29296-0.2185-0.30345-0.17464-0.21957-0.093024-0.15518-0.049716-0.13435-0.033205-0.15897-0.029004-0.20614-0.024047-0.89883-0.045209-0.51217-0.045358-0.4271-0.065338-0.46765-0.090657-0.3748-0.084338-0.29593-0.079263-0.28889-0.090185-0.35621-0.12945-0.30093-0.12483-0.37532-0.17524-0.29118-0.15397-0.51607-0.30006-0.37288-0.22803-1.0724-0.68085-0.14459-0.079579-0.1999-0.08949-0.1539-0.049518-0.12068-0.025619-0.14969-0.013676-0.13326 0.005928-0.14302 0.030645-0.10793 0.047337-0.049134 0.034565-0.03626 0.038584-0.016428 0.031544-0.00253 0.032711-0.013835-0.008391-0.066714 0.016011-0.10424 0.052098-0.1163 0.068493-0.31301 0.19855-0.57472 0.39204-0.37335 0.22872-0.33643 0.17539-0.43698 0.2024-0.24249 0.088862-0.38239 0.10721-0.57919 0.13424-0.71963 0.14266-0.29761 0.035296-0.24929 0.006626-1.1111-0.09387-0.19077-0.007245-0.55529 0.001542-0.18166-0.00545-0.2872-0.019657-0.38241-0.042156-0.17921-0.011726-0.89948-0.004981-0.28721-0.007953-0.44471-0.035026-0.9417-0.11209-0.21519-0.013401-0.1911-0.001697-0.30989 0.01838-0.35404 0.05679-0.27295 0.065183-1.0548 0.28483-0.13029 0.029731-0.054302 0.002638-0.005606-0.016022-0.096471-0.010082-0.1307 0.00524-0.25722 0.022704-0.45848 0.055896-0.53356 0.090577-0.28395 0.059987-0.37588 0.090943-1.0588 0.29042-1.08 0.2381-0.43456 0.12229-0.61266 0.20902-0.20848 0.080828-0.20487 0.092707-0.27796 0.15725-0.77745 0.50449-0.30111 0.16043-0.19071 0.087244-0.18504 0.077092-0.26534 0.097684-0.16191 0.050214-0.18187 0.046526-0.16823 0.033591-0.19577 0.027793-0.28255 0.023503-0.25302 0.010746-0.22834 9.95e-4 -0.3335-0.017675-0.28022-0.03351-0.68498-0.12967-0.21691-0.031436-0.29426-0.014582-0.39325 0.022152-0.19526 0.023766-0.21345 0.039881-0.64918 0.16584-0.29403 0.064651-0.26976 0.048292-0.28916 0.039533-0.35419 0.025769-0.826 0.006692-0.34819 0.014413-1.0989 0.097445-0.32442 0.042261-0.40088 0.075648-0.45272 0.10489-0.51603 0.1374-0.6364 0.19314-0.35662 0.08982-0.18411 0.029929-0.082394 0.001759-0.10049-0.014213-0.060826-0.019708-0.060478-0.028707-0.10431-0.073322-0.088081-0.09335-0.048188-0.068447-0.07096-0.14189-0.039811-0.12786-0.015587-0.074779-0.016852-0.12276-0.008278-0.1195-0.001478-0.15022 0.01452-0.27278 0.057852-0.75953 0.052456-0.51346 0.07254-0.46226 0.13854-0.64965 0.04641-0.29679 0.008788-0.13737-0.003481-0.16351-0.016084-0.13602-0.020899-0.10185-0.032973-0.11415-0.044953-0.11721-0.067853-0.13583-0.098837-0.15062-0.19679-0.21652-0.13047-0.11329-0.14062-0.10809-0.18813-0.13176-0.33492-0.21878-0.43733-0.26297-0.21424-0.11554-0.27297-0.13455-0.25609-0.11711-0.83286-0.35741-0.35885-0.14599-0.91948-0.34533-0.2926-0.12616-0.27848-0.14383-0.25449-0.1638-0.23473-0.18558-0.17315-0.1623-0.12899-0.1344-0.43074-0.48363-0.10525-0.10752-0.14169-0.12937-0.1573-0.12323-0.22055-0.14699-0.23263-0.11988-0.10537-0.041443-0.15719-0.050766-0.26431-0.061265-0.22696-0.032504-0.31072-0.016046-0.32466 0.014252-0.16752 0.019738-0.23035 0.039168-0.57081 0.1242-0.30095 0.059041-1.4623 0.23693-0.64249 0.095379-0.45899 0.056054-0.21276 0.0145-0.23444-0.003835-0.23688-0.035099-0.14446-0.036655-0.59738-0.20039-0.20542-0.057217-0.15529-0.032171-0.5174-0.086749-0.17487-0.047551-0.11318-0.042867-0.134-0.066027-0.13952-0.090986-0.1121-0.09536-0.10572-0.11747-0.087368-0.13436-0.056256-0.13171-0.029982-0.13414-0.002755-0.13596 0.011198-0.078399 0.025854-0.096124 0.039147-0.099519 0.12521-0.23068 0.32431-0.50183 0.20981-0.2994 0.24447-0.30867 0.19969-0.23136 0.12196-0.12929 0.11841-0.11338 0.13083-0.11235 0.19242-0.14769 0.29957-0.20282 0.71961-0.44027 0.20581-0.14793 0.11512-0.097381 0.15076-0.14663 0.17582-0.19652 0.1101-0.13703 0.16379-0.22299 0.10635-0.15792 0.13949-0.22736 0.11796-0.21591 0.10028-0.2039 0.51377-1.1349 0.47012-0.97404 0.14743-0.33556 0.10445-0.28653 0.065165-0.24124 0.025345-0.13122 0.024026-0.1872 0.011287-0.18454 7.09e-4 -0.18088-0.026507-0.3747-0.03018-0.21224-0.040365-0.21119-0.058198-0.23822-0.11799-0.36046-0.12931-0.29061-0.10033-0.1777-0.082252-0.12211-0.16148-0.1908-0.10668-0.088541-0.066903-0.014255-0.003923 0.019775-0.061296 0.062654-0.13358 0.08675-0.17731 0.087657-0.16983 0.063896-0.13313 0.037405-0.18172 0.032358-0.29072 0.006514-0.29821-0.041154-0.33448-0.092116-0.30796-0.12314-0.29358-0.15109-0.2731-0.1722-0.24628-0.18822-0.19819-0.18365-0.14618-0.16371-0.11846-0.16589-0.12102-0.23421-0.09899-0.2236-0.052822-0.10433-0.083399-0.13735-0.077682-0.095347-0.087586-0.081236-0.059933-0.043785-0.11726-0.068999-0.29567-0.14096-0.078681-0.060437-0.079859-0.12201-0.024012-0.078204-0.039665-0.26784-0.022803-0.10545-0.026395-0.08107-0.044489-0.095946-0.1169-0.16656-0.15413-0.16428-0.3628-0.3357-0.16847-0.1673-0.18711-0.22963-0.17212-0.25705-0.15933-0.27452-0.14779-0.28341-0.1185-0.25278-0.1002-0.25871-0.090812-0.26258-0.10338-0.3065-0.051216-0.17407-0.051966-0.23592-0.039285-0.29982-0.01682-0.2308-0.009524-0.30753 0.006342-0.31245 0.01766-0.21678 0.039538-0.28002 0.073755-0.34109 0.058428-0.2031 0.1255-0.3505 0.13981-0.32297 0.14727-0.29818 0.14811-0.2736 0.17957-0.30464 0.96684-1.5598 0.30702-0.52778 0.35616-0.64955 0.15333-0.25485 0.11871-0.17192 0.1044-0.13532 0.39073-0.44819 0.25518-0.31454 0.14192-0.20015 0.16295-0.26077 0.15854-0.28538 0.14924-0.3024 0.56209-1.2465 0.32578-0.75815 0.18316-0.36648 0.28211-0.49771 0.33726-0.57316 0.25955-0.42519 0.22835-0.35808 0.2529-0.36533 0.39255-0.53003 0.21171-0.27506 0.15112-0.17721 0.16034-0.15392 0.11386-0.085765 0.13003-0.074988 0.13724-0.053278 0.15167-0.029789 0.1563-0.004242 0.2085 0.026841 0.18757 0.042178 0.4146 0.11349 0.30415 0.091654 0.79181 0.2586 0.83061 0.28482 0.18467 0.052216 0.12828 0.027739 0.16269 0.022685 0.31559 0.009131 0.32695-0.027828 0.3335-0.059108 0.3356-0.086979 0.36496-0.12416 0.34707-0.14247 0.2123-0.097089 0.20873-0.10208 0.92858-0.49532 0.29438-0.12632 0.90603-0.33421 0.36867-0.10424 0.22909-0.072135 0.14416-0.062637 0.11122-0.065209 0.1531-0.12655 0.13271-0.15376 0.11241-0.1742 0.11535-0.23297 0.53976-1.1534 0.19598-0.37407 0.092713-0.14683 0.10771-0.14372 0.13058-0.1405 0.14848-0.12205 0.1031-0.064963 0.11927-0.06165 0.18081-0.077917 0.18939-0.071568 0.41492-0.13341 1.2584-0.37819 0.4888-0.16231 0.63508-0.23908 1.0256-0.4168 0.46149-0.19808 0.29932-0.13594 0.33283-0.16046 0.31235-0.16155 0.20994-0.11608 0.32133-0.19302 0.16379-0.10612 0.092256-0.065394 0.018892-0.020258 0.32656-0.28642 0.79589-0.77207 0.19785-0.20631 0.16613-0.19356 0.15204-0.20606 0.1611-0.259 0.13863-0.26886 0.11855-0.26901 0.073795-0.18454 0.14295-0.41255 0.066433-0.2389 0.047776-0.20933 0.043412-0.24195 0.035131-0.28404 0.019597-0.37889-0.013177-0.38539-0.015298-0.15237-0.042862-0.28012-0.09935-0.43358-0.13393-0.44018-0.1275-0.3527-0.35042-0.89076-0.21083-0.56158-0.13848-0.39195-0.3202-0.95838-0.11311-0.29304-0.078446-0.17318-0.08726-0.16449-0.12606-0.19194-0.13702-0.16212-0.17641-0.17154-0.5301-0.453-0.28736-0.27564-0.21884-0.24242-0.19613-0.25142-0.084154-0.12372-0.11566-0.19394-0.10573-0.2018-0.40426-0.85491-0.26017-0.48357-0.14845-0.24418-0.15987-0.23716-0.16787-0.22077-0.15127-0.1757-0.14404-0.15012-0.16663-0.15668-0.22578-0.1882-0.21989-0.16099-0.171-0.1083-0.10916-0.059095-0.49145-0.21804-0.19971-0.098383-0.19164-0.11907-0.19602-0.1512-0.12859-0.11562-0.15424-0.15581-0.23642-0.26485-0.11247-0.13887-0.14134-0.20324-0.095424-0.16956-0.063364-0.14134-0.048122-0.14312-0.034691-0.17472-0.006488-0.12267 0.027483-0.21788 0.043998-0.15379 0.092574-0.22122 0.11672-0.2184 0.26513-0.44467 0.058808-0.1096 0.065007-0.14355 0.027306-0.079529 0.019134-0.083538 0.005414-0.11556-0.029966-0.12502-0.076373-0.12531-0.13972-0.12127-0.10026-0.059111-0.1355-0.063481-0.13543-0.052879-0.51939-0.16987-0.2054-0.075026-0.11678-0.053303-0.091571-0.051269-0.098717-0.068926-0.073185-0.06516-0.074428-0.090086-0.070144-0.13942-0.034442-0.12582-0.019343-0.1932 0.008427-0.183 0.026706-0.1709 0.042278-0.17065 0.060969-0.18914 0.10555-0.27183 0.10242-0.23259 0.3948-0.81736 0.14706-0.3193 0.097665-0.23349 0.12756-0.35563 0.038084-0.12473 0.039981-0.14877 0.042674-0.20671 0.020034-0.1562 0.013476-0.26227-0.002676-1.5169-0.00964-0.4144-0.018735-0.27496-0.038809-0.2858-0.07019-0.32807-0.090903-0.32023-0.038681-0.066204-0.20689-0.4336-0.18789-0.431-0.076169-0.21331-0.041618-0.13891-0.051989-0.21621-0.032439-0.18753-0.031529-0.328-9.6e-4 -0.34655 0.019465-0.28951 0.066168-0.70303 0.012627-0.25178-0.009811-0.26361-0.021852-0.14219-0.026109-0.10269-0.040751-0.11256-0.06902-0.13642-0.056923-0.085965-0.070052-0.086332-0.095319-0.094248-0.10192-0.079499-0.11147-0.068065-0.1283-0.059174-0.098705-0.03378-0.17571-0.039222-0.19054-0.020375-0.19886-0.004167-0.21226 0.009112-0.23407 0.020715-0.50878 0.066732-1.3653 0.22382-0.77216 0.10774-0.34785 0.038775-0.55849 0.045717-0.35109 0.016279-0.51714 0.004258-0.25209-0.007933-0.31553-0.020719-0.30848-0.03195-0.28798-0.039255-0.58315-0.10239-1.4403-0.28292-0.61357-0.10196-0.32878-0.042427-0.45067-0.039253-0.30039-0.007627-0.33196 0.017895-0.24552 0.041222-0.17738 0.052908-0.20685 0.10356-0.094493 0.072442-0.069899 0.067612-0.093148 0.11161-0.05745 0.08196-0.098266 0.16266-0.18163 0.35329-0.12362 0.27824-0.22641 0.55622-0.13349 0.28245-0.098984 0.1562-0.086574 0.10084-0.055391 0.051425-0.090176 0.067686-0.068011 0.040682-0.11999 0.054767-0.13524 0.041195-0.12112 0.024159-0.27599 0.030422-0.34627 0.016966-0.32296 0.006269-1.2172-0.015425-0.11519 0.005589-0.029651 0.012575 0.003709-0.009604-0.016228-0.018317-0.048451-0.030369-0.11203-0.054851-1.3342-0.54263-0.39944-0.17512-0.38418-0.18233-0.18995-0.097456-0.31243-0.17525-0.29351-0.18913-0.24542-0.18636-0.16452-0.1484-0.14054-0.14415-0.21767-0.25246-0.23767-0.3149-0.10183-0.15532-0.071297-0.12212-0.10005-0.21072-0.061665-0.20304-0.017589-0.12133-0.004641-0.098611 0.005129-0.13848 0.010403-0.094633 0.047562-0.23842 0.093081-0.30461 0.10588-0.26757 0.10414-0.22271 0.092037-0.17455 0.13632-0.22264 0.081435-0.11649 0.12502-0.16218 0.36516-0.44221 0.1993-0.27051 0.17554-0.28283 0.080239-0.15446 0.069636-0.15979 0.070284-0.19676 0.056738-0.19945 0.039361-0.16848 0.11842-0.61666 0.084957-0.38473 0.23219-0.91958 0.098061-0.35185 0.11904-0.35832 0.12154-0.30313 0.092469-0.1963 0.098451-0.18291 0.084417-0.14055 0.11254-0.17011 0.16315-0.22359 0.28363-0.34409 0.38456-0.40997 0.47959-0.46733 0.29207-0.26459 0.4256-0.36014 0.37092-0.28277 0.58518-0.4081 0.21247-0.16656 0.1843-0.16345 0.23411-0.23444 0.1935-0.21353 0.16548-0.19913 0.13896-0.18762 0.16276-0.26368 0.13432-0.27489 0.10379-0.28217 0.051199-0.18703 0.05309-0.23827 0.038786-0.24482 0.02551-0.34113 0.009486-0.47762-0.010807-0.5745-0.039913-0.59427-0.03871-0.30906-0.035453-0.20042-0.049638-0.20701-0.078876-0.22728-0.048177-0.10239-0.067442-0.11474-0.08353-0.1137-0.060966-0.071327-0.16286-0.16434-0.53323-0.46917-0.12197-0.12844-0.089816-0.11703-0.070596-0.12416-0.065561-0.21486-0.0118-0.11264 0.001256-0.1653 0.015182-0.17318 0.026273-0.18062 0.064826-0.3092 0.088899-0.31245 0.090743-0.25311 0.10607-0.24265 0.076802-0.14839 0.083548-0.13976 0.12192-0.17282 0.23246-0.30343 0.072106-0.11083 0.077408-0.14788 0.24575-0.5905 0.24834-0.57385 0.11705-0.32155 0.10359-0.36844 0.077702-0.34206 0.074023-0.3764 0.080749-0.47044 0.11729-0.74298 0.024431-0.22889 0.034568-0.56158 0.022417-0.18923 0.02815-0.15288 0.059587-0.19824 0.056895-0.12116 0.08442-0.12996 0.26108-0.32993 0.073205-0.11648 0.089035-0.1741 0.10643-0.27675 0.065283-0.24059 0.050098-0.25842 0.0358-0.26998 0.029804-0.42896 7.08e-4 -0.36932-0.023336-0.3754-0.028638-0.24029-0.035523-0.21524-0.045084-0.21224-0.10088-0.35016-0.066707-0.1756-0.077879-0.16968-0.14528-0.25414-0.1357-0.20333-0.62749-0.84735-0.32183-0.47662-0.43587-0.68825-0.072046-0.13155-0.077795-0.18087-0.037514-0.11142-0.05005-0.18892-0.063221-0.32836-0.13072-0.98654-0.020523-0.27467 0.006438-0.17184 0.019434-0.086623 0.019071-0.04999 0.041471-0.070678 0.036754-0.042641 0.080131-0.061932 0.069789-0.03716 0.097579-0.039602 0.17705-0.057036 0.83073-0.2466 0.20578-0.049916 0.25731-0.051768 0.26608-0.044244 1.2884-0.18072 0.58526-0.074307-0.013925-0.073735 0.055455-0.10028 0.16427-0.15189 0.22869-0.15251 0.32545-0.1891 0.16402-0.089504 0.34648-0.17017 0.10357-0.058671 0.1389-0.10259 0.071689-0.069785 0.058564-0.077514 0.041941-0.079636 0.021782-0.060354 0.023338-0.10394 0.020329-0.18047 0.027679-0.10142 0.04126-0.083766 0.060078-0.087718 0.088378-0.10073 0.48233-0.47674 0.14587-0.15271 0.080266-0.095904 0.11802-0.15886 0.11273-0.17084 0.13427-0.22789 0.12382-0.23445 0.14335-0.29852 0.16858-0.38498 0.30292-0.7584 0.63894-1.7231 0.22742-0.56109 0.15225-0.3388 0.15182-0.28155 0.12994-0.20308 0.22485-0.30468 0.24504-0.29333 0.25909-0.2851 0.54168-0.55389 0.82756-0.80998 0.27624-0.26085 0.27663-0.24381 0.27953-0.21784 0.12713-0.086463 0.10297-0.063051 0.12897-0.068174 0.2644-0.10311 0.25496-0.070083 0.75771-0.17473 0.61085-0.17137 0.24633-0.082894 0.23406-0.1026 0.13291-0.075273 0.17616-0.11874 0.171-0.13032 0.16081-0.13875 0.49687-0.47781 0.22975-0.2022 0.2313-0.18575 0.19479-0.14438 0.59534-0.42129 0.35145-0.26545 0.36498-0.30035 0.25165-0.23303 0.2049-0.20559 0.22938-0.2456 0.21481-0.24432 0.34431-0.4213 0.20362-0.26931 0.19127-0.27322 0.10398-0.16086 0.095631-0.15981 0.13807-0.26183 0.052584-0.11445 0.07797-0.18959 0.087088-0.24571 0.092362-0.31556 0.054614-0.22953 0.049645-0.26544 0.035251-0.32722 0.006893-0.18857-0.002114-0.20094-0.007618-0.1138-0.029492-0.22105-0.062633-0.2702-0.080324-0.23572-0.088018-0.19957-0.12744-0.239-0.19772-0.31318-0.4666-0.64242-0.1991-0.28805-0.13938-0.23166-0.10774-0.20005-0.15426-0.31084-0.72956-1.5745-0.1852-0.38458-0.24966-0.4863-0.14324-0.25502-0.15898-0.25574-0.23857-0.33133-0.25638-0.31134-0.37341-0.40384-0.20816-0.19945-0.15519-0.13025-0.52541-0.38239-0.007973-0.013962-0.026633-0.018201-0.08315-0.023558-0.18472-0.015112-0.14358 0.003424-0.55278 0.064009-0.85873 0.13468-0.26589 0.024362-0.20177 0.008949-0.20147 1.05e-4 -0.32075-0.020445-0.37036-0.053812-0.70085-0.12541-0.288-0.042725-0.98752-0.10388-0.49332-0.041789-0.5909-0.036819-0.11843-0.01428-0.25984-0.052608-0.25123-0.077177-0.23952-0.096379-0.22398-0.11141-0.18324-0.11198-0.16135-0.1322-0.075033-0.081785-0.14276-0.20365-0.09645-0.17702-0.12733-0.29207-0.063222-0.18352-0.04172-0.1523-0.024762-0.11783-0.031392-0.2478-0.012045-0.22728-0.010908-0.65596-0.01019-0.19629-0.022899-0.23562-0.047447-0.27102-0.081182-0.26181-0.10812-0.20336-0.13482-0.15628-0.17206-0.14052-0.15104-0.10015-0.46257-0.28369-0.18198-0.13614-0.093547-0.086665-0.16984-0.20854-0.29063-0.42765-0.16753-0.1789-0.20042-0.13348-0.231-0.094751-0.2494-0.057332-0.25661-0.018578-0.2531 0.024258-0.23878 0.074101-0.21902 0.12984-0.20335 0.1686-0.39869 0.37504-0.21436 0.17003-0.1462 0.091748-0.15209 0.080669-0.46562 0.21123-0.17005 0.085663-0.13249 0.081432-0.077189 0.058477-0.050551 0.045782-0.11042 0.13723-0.060147 0.11403-0.055794 0.15966-0.23643 0.91826-0.095451 0.33434-0.05747 0.17234-0.084727 0.20364-0.13674 0.268-0.10936 0.18639-0.37619 0.58928-0.058854 0.102-0.082276 0.16418-0.063963 0.17592-0.026122 0.1162-0.01651 0.1769 0.003097 0.10543 0.011161 0.090418 0.034716 0.14365 0.042477 0.11291 0.063596 0.12083 0.066897 0.096989 0.066052 0.077963 0.093187 0.089874 0.13064 0.10022 0.24055 0.14478 0.17602 0.091464 0.53548 0.2556 0.3757 0.1663 0.74879 0.29721 0.32906 0.14344 0.14448 0.072923 0.17208 0.10092 0.15426 0.11082 0.17181 0.15822 0.20144 0.2348 0.66141 0.88766 0.25687 0.37055 0.1222 0.18823 0.11069 0.19312 0.10451 0.23867 0.080142 0.28275 0.047505 0.29646 0.020846 0.30478-0.001713 0.30808-0.021925 0.3065-0.048116 0.32694-0.0656 0.27564-0.090432 0.26287-0.11939 0.24432-0.079415 0.12388-0.090489 0.11837-0.11956 0.13476-0.20562 0.20546-0.23408 0.21994-0.24885 0.20887-0.27166 0.18308-0.26353 0.12981-0.28266 0.10332-0.29665 0.08176-0.3064 0.063793-0.3126 0.048185-0.37433 0.03721-0.33789 0.013814-0.33622-0.006455-0.21848-0.015505-0.25814-0.025964-0.22921-0.031864-0.24848-0.046533-0.30487-0.07557-0.62241-0.17482-0.29823-0.064799-0.18675-0.029212-0.1937-0.020236-0.34112-0.011139-0.32376 0.011604-0.74372 0.042752-0.31901 0.002788-0.15142-0.008781-0.13444-0.017243-0.11556-0.025772-0.14192-0.052367-0.10752-0.060059-0.10494-0.085967-0.090116-0.12765-0.050905-0.15074-0.011086-0.16353 0.012062-0.10264 0.055277-0.19965 0.08293-0.2402 0.048583-0.17011 0.045056-0.20886 0.032722-0.25316 0.008723-0.32005-0.029593-0.3297-0.059886-0.26613-0.058639-0.18138-0.066884-0.17108-0.071813-0.16057-0.22198-0.45728-0.062293-0.14922-0.057036-0.17377-0.042294-0.19242-0.020075-0.16681-0.007516-0.21366 0.009177-0.28166 0.052044-0.99032 0.005946-0.27742-0.004546-0.25468-0.024784-0.27707-0.035701-0.18221-0.057413-0.16864-0.05312-0.10016-0.04729-0.065141-0.044231-0.047515-0.058271-0.049268-0.0916-0.058136-0.10073-0.04694-0.13585-0.045612-0.13208-0.031505-0.14317-0.024359-0.21445-0.022099-0.23682-0.008434-0.27343 0.00619-0.71343 0.05396-0.19212 0.006506-0.15379-0.008374-0.11809-0.022624-0.064404-0.02242-0.095644-0.054578-0.06088-0.051622-0.10619-0.12574-0.060293-0.093143-0.089411-0.17331-0.036149-0.085507-0.051539-0.14424-0.061829-0.23525-0.037903-0.25385-0.008198-0.20388 0.013596-0.2053 0.049264-0.2743 0.07413-0.27932 0.18594-0.61372 0.098789-0.40554 0.10572-0.56177 0.052136-0.3173 0.073045-0.52111 0.044204-0.42024 0.022251-0.34777 0.006118-0.27615-0.015744-0.58783-0.055266-0.63901-0.042818-0.35257-0.064335-0.4321-0.12967-0.71328-0.077366-0.36408-0.11689-0.49545-0.127-0.46948-0.095418-0.30558-0.071043-0.204-0.078286-0.20226-0.090304-0.2055-0.10732-0.21141-0.10553-0.18444-0.55569-0.8786-0.37349-0.64999-0.10534-0.14413-0.11916-0.12252-0.13329-0.094314-0.13227-0.054943-0.12847-0.023884-0.19999-0.003172-0.41533 0.029531-0.17505 0.001717-0.23957-0.017045-0.3105-0.04784-0.17656-0.046518-0.16151-0.067487-0.092542-0.055395-0.10755-0.082062-0.091797-0.085125-0.11712-0.12843-0.10906-0.13842-0.095745-0.13492-0.21262-0.33336-0.34328-0.57333-0.30901-0.49422-0.26345-0.39007-0.29189-0.39484-0.3695-0.44679-0.16803-0.18559-0.17465-0.17911-0.32348-0.28223-0.29826-0.20415-0.31147-0.1572-0.32156-0.097423-0.23311-0.027858-0.23838-0.004173-0.61076 0.018949-0.37105 0.030003-0.25933 0.039645-0.24433 0.049772-0.24838 0.060201-0.2503 0.06997-0.0225 0.006015-0.09308 0.05789-0.49138 0.33031-0.19845 0.12464-0.152 0.086267-0.12804 0.064141-0.13267 0.056521-0.20757 0.064142-0.1291 0.021801-0.13383 0.004825-0.16504-0.023823-0.13612-0.048762-0.093083-0.055383-0.1351-0.13634-0.097277-0.17426-0.064194-0.19462-0.042512-0.1759-0.083553-0.43566-0.14216-0.89274-0.16862-1.3496-0.042663-0.23235-0.050331-0.21022-0.072917-0.23894-0.039112-0.10693-0.051177-0.12431-0.083739-0.17415-0.079174-0.13945-0.087065-0.13382-0.10607-0.1438-0.23519-0.27432-0.1846-0.19178-0.8585-0.82276-0.2691-0.27916-0.13243-0.14654-0.27455-0.32096-0.37805-0.47558-0.31505-0.42611-0.40092-0.56475-0.14221-0.1867-0.21259-0.24522-0.11658-0.11508-0.18089-0.155-0.16936-0.12627-0.32472-0.20778-0.25467-0.14286-0.89171-0.46345-0.18189-0.10724-0.15931-0.11328-0.094498-0.079804-0.099506-0.097266-0.15984-0.20332-0.13691-0.22413-0.2664-0.49438-0.13056-0.2869-0.2308-0.61752-0.085775-0.18804-0.11268-0.18731-0.15109-0.17312-0.12774-0.10312-0.21532-0.12616-0.32976-0.13068-0.269-0.074286-0.21483-0.045681-0.29818-0.049856-0.85537-0.10819-0.14509-0.025141-0.101-0.028164-0.031693-0.028995-0.007058 0.007119-0.025596-0.004613-0.061209-0.027855-0.13096-0.080471-0.1141-0.082149-0.27988-0.23141-0.16185-0.14981-0.16078-0.16039-0.37683-0.40926-0.18091-0.21619-0.097603-0.13112-0.086768-0.13442-0.089374-0.1698-0.25168-0.55677-0.23897-0.47884-0.081119-0.18396-0.036049-0.099662-0.027993-0.099686-0.025663-0.15115-0.039127-0.41747-0.048052-0.23767-0.17761-0.69822-0.038559-0.11338-0.15443-0.36956-0.031721-0.11498-0.060524-0.28478-0.032813-0.10825-0.040763-0.082162-0.032496-0.035405-0.08875-0.054768-0.035085-0.028545-0.045794-0.061817-0.07865-0.1848-0.15562-0.43432-0.12441-0.27814-0.15956-0.29549-0.33058-0.53488-0.081189-0.13637-0.059687-0.11503-0.038764-0.098744-0.023948-0.1017-0.004869-0.080471 0.026746-0.059414 0.011677-0.021186 0.10067-0.03251 0.097791-0.016218 0.28315-0.021125 0.34485-0.004251 1.1374 0.019578 0.35715-0.005425 0.32592-0.022562 0.28373-0.047002 0.22979-0.07971 0.17622-0.12069 0.2307-0.22262 0.14311-0.11719 0.11882-0.071224 0.13003-0.048844 0.20876-0.023217 0.22356 0.019134 0.60163 0.12373 0.12058 0.014127 0.12034 0.001529 0.069811-0.006295 0.18487-0.047345 0.11651-0.052369 0.1114-0.067232 0.13207-0.10536 0.15844-0.17984 0.099127-0.17586 0.058972-0.20945-1.03e-4 -0.23013-0.031907-0.18983-0.14823-0.61042-0.027847-0.2212 0.009663-0.21684 0.037447-0.15244 0.095408-0.21842 0.1463-0.2343 0.42879-0.57982 0.31494-0.38364 0.22061-0.29526 0.23606-0.29283 0.1031-0.15667 0.049093-0.12312 0.016922-0.090765 0.005571-0.083224-0.002773-0.12197-0.013087-0.13425-0.027346-0.17283-0.087445-0.40199-0.12993-0.53163-0.12253-0.45476-0.11597-0.37187-0.26502-0.78087-0.074201-0.2686-0.04717-0.24846-0.014885-0.13866-0.002136-0.21024 0.040394-0.2669 0.12496-0.49984 0.020298-0.2465-0.02979-0.19996-0.065418-0.20321-0.091224-0.20577-0.10828-0.20772-0.12193-0.21393-0.13145-0.20984-0.14142-0.20005-0.30445-0.38651-0.14331-0.21986-0.13205-0.24188-0.12173-0.25931-0.11191-0.27292-0.10217-0.28333-0.10882-0.34346-0.20352-0.6967-0.10835-0.34233-0.069962-0.19482-0.14506-0.33268-0.32949-0.64418-0.15251-0.31977-0.12076-0.32317-0.076882-0.33405-0.045785-0.33425-0.027252-0.34529 0.009954-0.33015 0.032916-0.32289 0.092305-0.66543-6.3e-5 -0.17867-0.037088-0.12151-0.064784-0.057956-0.051294 0.003088-0.057056 0.037667-0.049546-0.05765-0.037725-0.12249-0.017765-0.16381 0.007024-0.16844 0.023553-0.18189 0.04049-0.2286 0.059365-0.23366 0.089697-0.22923 0.14919-0.24592 0.18872-0.23106 0.21157-0.21928 0.42992-0.41726 0.18953-0.20502 0.15354-0.20727 0.11108-0.21367 0.088248-0.21039 0.093428-0.198 0.11288-0.17092 0.2893-0.36776 0.12994-0.20917 0.10033-0.22869 0.05708-0.22757 0.078413-0.47351 0.032881-0.2387 0.016164-0.24047-0.004316-0.19026-0.031263-0.44329-0.050021-0.46297-0.024554-0.30867-0.003136-0.14956 0.015251-0.13789 0.059114-0.15484 0.10243-0.13145 0.15977-0.1133 0.39874-0.20135 0.17294-0.10771 0.52866-0.38218 0.20676-0.16976 0.4156-0.37157 0.2106-0.17866 0.33157-0.26244 0.1508-0.14453 0.15156-0.19855 0.1238-0.22748 0.094561-0.24917 0.062205-0.2643 0.025135-0.27331-0.006728-0.20414-0.021318-0.20809-0.038009-0.26699-0.052933-0.27136-0.20852-0.81119-0.17733-0.77007-0.013729-0.064993 0.002531-0.022533-0.058042 0.004596-0.072344-0.033597-0.070394-0.066005-0.040347-0.063238-0.033007-0.075203-0.030607-0.10095-0.021718-0.1318-0.010232-0.14368-0.029972-0.69903 0.003643-0.19385 0.019521-0.1607 0.0849-0.47784 0.012925-0.1826-0.013344-0.41297 0.001476-0.18181 0.009789-0.18087 0.027637-0.28657 0.029215-0.16247 0.04358-0.15624 0.058945-0.14582 0.076219-0.13063 0.089692-0.10806 0.20308-0.19763 0.3091-0.32999 0.10641-0.098037 0.11311-0.079691 0.1299-0.059328 0.2782-0.090063 0.35602-0.14073 0.12808-0.038704 0.26369-0.058439 0.14041-0.014878 0.21442 0.003615 0.22451 0.028529 0.23261 0.046718 0.23908 0.059371 0.98578 0.27385 0.23996 0.05626 0.80815 0.1696 0.05175 0.019647 0.15992 0.017553 0.8692 0.031405 0.48053 0.002637 0.26032 0.013546 0.2526 0.028159 0.30978 0.054164 0.3837 0.085838 0.55241 0.13877 0.39944 0.1084 0.33844 0.10169 0.48166 0.1683 0.45173 0.16821 0.36108 0.15247 0.19482 0.094098 0.30806 0.16924 0.76056 0.47041 0.15708 0.080002 0.090918 0.037903 0.15206 0.0433 0.23329 0.002152 0.16179-0.045415 0.16328-0.074404 0.15708-0.097769 0.38103-0.31034 0.16795-0.10997 0.26607-0.14024 0.244-0.10685 0.19122-0.073275 0.1925-0.053106 0.25118-0.024066 0.24913 0.015836 0.62946 0.10929 0.19397 0.055732 0.18333 0.089072 0.12002 0.081207 0.29173 0.23284 0.73476 0.61516 0.23815 0.18676 0.26376 0.18361 0.24931 0.14373 0.19553 0.089573 0.14429 0.050872 0.18155 0.041411 0.23155 0.012507 0.21772-0.020191 0.14772-0.025831 0.33568-0.079568 0.20569-0.065383 0.20198-0.077246 0.18123-0.080749 0.15645-0.085346 0.15214-0.098139 0.35668-0.26771 0.88662-0.68572 0.41678-0.29318 0.29571-0.18177 0.29218-0.1509 0.15243-0.065804 0.23739-0.093283 0.47389-0.16232 0.18734-0.084732 0.16501-0.11257 0.11849-0.12381 0.10357-0.14719 0.20979-0.33924 0.097134-0.13288 0.10066-0.12205 0.072395-0.076641 0.089303-0.07468 0.097847-0.056306 0.10888-0.039832 0.10742-0.021819 0.19048-0.015157 0.43872-0.01783 0.28835-0.044962 0.92048-0.21414 0.30799-0.045647 0.27526-0.011653 0.51463 0.009563 0.34522-0.003536 0.14414 0.012259 0.10823 0.021208 0.1536 0.044332 0.30255 0.10633 0.40879 0.12702 0.18085 0.063901 0.36014 0.15584 0.18533 0.069188 0.18604 0.057915 0.18582 0.04522 0.18946 0.017839 0.26775-0.037982 0.28499-0.096994 0.29776-0.13995 0.30698-0.17005 0.3134-0.18968 0.95768-0.6015 0.31918-0.18418 0.31622-0.16044 0.31115-0.12441 0.30348-0.072809 0.15837-0.012483 0.28522 0.023348 0.22028 0.07094 0.2117 0.11136 0.1335 0.089821 0.12987 0.10031 0.19652 0.17289 0.12451 0.12236 0.22068 0.25148 0.35024 0.42445 0.11552 0.12516 0.24313 0.21512 0.16869 0.10599 0.1601 0.070019 0.27413 0.075317 0.22468 0.036453 0.20442 0.020696 0.24439 0.013732 0.60974 0.010285 0.34417 0.015708 0.2319 0.026771 0.18526 0.036721 0.19596 0.059755 0.28401 0.13562 0.26411 0.17847 0.17839 0.14845 0.20748 0.20342 0.14399 0.1678 0.079689 0.11402 0.024746 0.070144 0.054699-0.058812 0.26987-0.23163 0.14905-0.11289 0.31622-0.20528 0.38218-0.21163 0.2685-0.13521 0.95893-0.45108 0.15104-0.084178 0.095453-0.067016 0.085784-0.075761 0.12312-0.14847 0.6402-1.0054 0.27796-0.50136 0.18122-0.3061 0.2789-0.50096 0.061092-0.1283 0.17326-0.43425 0.0707-0.14992 0.079536-0.14736 0.087927-0.14001 0.19191-0.26325 0.091801-0.13675 0.37494-0.63022 0.062246-0.11846 0.051773-0.11608 0.053901-0.15138 0.049429-0.18363 0.088155-0.43573 0.18599-0.781 0.084423-0.45518 0.037328-0.25395 0.044865-0.44337 0.007964-0.19758-0.001697-0.13576-0.010274-0.13371-0.015605-0.066471-0.25669-0.10627-0.20106-0.070885-0.65952-0.18291-0.073377-0.022661-0.030477-0.01582 0.056813-0.006128 0.44264 0.004163 0.22116-0.010824 0.28531-0.034156 0.23608-0.045048-0.017466-0.016936-0.015017-0.03641-0.007779-0.047304 0.004349-0.052021 0.020502-0.053978 0.034744-0.052834 0.045448-0.051148 0.053037-0.04938 0.11964-0.094039 0.38055-0.25938 0.11206-0.083617 0.088228-0.08403 0.029174-0.042452 0.014446-0.042864-0.003083-0.04099-0.017306-0.038284-0.030873-0.037461-0.040538-0.033016-0.047658-0.027395-0.052908-0.020185-0.21814-0.034918-0.19732-0.063799-0.09348-0.023421-0.21055-0.015029-0.038433-0.010101-0.027289-0.020149-0.013337-0.032133-0.002514-0.043302 0.017031-0.11198 0.11718-0.42833 0.092076-0.008783 0.86419 0.035992 0.13396-0.002489 0.27797-0.020459 0.19402-0.025824 0.19584-0.035543 0.19803-0.045954 0.19596-0.056275 0.31174-0.11547 0.19734-0.093296 0.24228-0.14226 0.13439-0.092861 0.16829-0.13254 0.17863-0.15786 0.96684-0.92011 0.56085-0.52068 0.42249-0.36634 0.28452-0.2215 0.28937-0.20079 0.29319-0.17493 0.29626-0.14197 0.2988-0.099574 0.061406-0.014158 0.22096-0.035502 0.20248-0.017127 0.58762-0.025299 0.70287-0.052319 0.73648-0.082654 0.16797-8.79e-4 0.081946 0.009647 0.13989 0.031991 0.186 0.069914 0.18524 0.096806 0.16662 0.10619 0.19843 0.15294 0.12734 0.12902 0.37159 0.44963 0.17827 0.1752 0.1997 0.16425 0.19022 0.134 0.18991 0.10646 0.26449 0.10279 0.19358 0.053212 0.23495 0.047934 0.28354 0.033553" stroke="#bdc660"/>
    </defs>
    <g clip-path="url(#p9c246505e7)">
     <use y="280.512" fill="#bdc660" stroke="#bdc660" xlink:href="#md61b20ba52"/>
    </g>
   </g>
  </g>
 </g>
 <defs>
  <clipPath id="p9c246505e7">
   <rect x="7.2" y="7.2" width="143.5" height="266.11"/>
  </clipPath>
 </defs>
</svg>
