<?xml version="1.0" encoding="UTF-8"?>
<!DOCTYPE svg  PUBLIC '-//W3C//DTD SVG 1.1//EN'  'http://www.w3.org/Graphics/SVG/1.1/DTD/svg11.dtd'>
<svg width="247.6pt" height="280.51pt" version="1.1" viewBox="0 0 247.6 280.51" xmlns="http://www.w3.org/2000/svg" xmlns:xlink="http://www.w3.org/1999/xlink">
 <metadata>
  <rdf:RDF xmlns:cc="http://creativecommons.org/ns#" xmlns:dc="http://purl.org/dc/elements/1.1/" xmlns:rdf="http://www.w3.org/1999/02/22-rdf-syntax-ns#">
   <cc:Work>
    <dc:type rdf:resource="http://purl.org/dc/dcmitype/StillImage"/>
    <dc:date>2024-07-04T12:10:32.013180</dc:date>
    <dc:format>image/svg+xml</dc:format>
    <dc:creator>
     <cc:Agent>
      <dc:title>Matplotlib v3.7.1, https://matplotlib.org/</dc:title>
     </cc:Agent>
    </dc:creator>
   </cc:Work>
  </rdf:RDF>
 </metadata>
 <defs>
  <style type="text/css">*{stroke-linejoin: round; stroke-linecap: butt}</style>
 </defs>
 <g id="figure_1">
  <g id="patch_1">
   <path d="m0 280.51h247.6v-280.51h-247.6v280.51z" fill="none"/>
  </g>
  <g id="axes_1">
   <g id="PatchCollection_1">
    <defs>
     <path id="m05466eb7cb" d="m152.97-256.17 0.37981 0.078002 0.37457-0.006713 0.29847-0.080895 0.29026-0.1409 0.25218-0.16794 0.24371-0.20008 0.38147-0.38475 0.32034-0.39295 0.33163-0.48993 0.50347-0.81929 0.25313-0.36132 0.20642-0.2225 0.24211-0.17234 0.25497-0.11246 0.19684-0.05916 0.3074-0.065135 0.4684-0.059804 0.35349-0.022206 0.35839-0.005691 0.42946 0.016901 0.43947 0.056877 0.36547 0.084446 0.35076 0.1008 0.41139 0.12845 0.3677 0.13943 0.32499 0.17892 0.21564 0.18531 0.062602 0.069135 0.1353 0.18671 0.10078 0.20373 0.061788 0.22386 0.013771 0.10759-0.008445 0.29753-0.065862 0.29514-0.11194 0.28175-0.082152 0.15438-0.22238 0.33407-0.15913 0.18678-0.30308 0.29296-0.17726 0.13032-0.1863 0.1095-0.72336 0.31126-0.86878 0.41926-0.28877 0.174-0.14364 0.11783-0.2011 0.18803-0.14601 0.14209-0.11802 0.15925-0.078573 0.23377 0.006693 0.2754 0.092433 0.25998 0.14765 0.23913 0.16653 0.1987 0.11767 0.11685 0.18136 0.15565 0.15406 0.11422 0.21248 0.13483 0.15912 0.086007 0.40142 0.1779 0.4311 0.13667 0.45323 0.083605 0.40063 0.023713 0.58888-0.013633 0.7609-0.057028 0.5576-0.06808 1.1527-0.16845 0.41447-0.023762 0.25779 0.024782 0.10458 0.025687 0.21584 0.10059 0.23785 0.25956 0.142 0.36651 0.030389 0.16433 0.019278 0.19961-0.002352 0.45722-0.045031 0.51056-0.187 1.4946-0.062932 0.5891-0.068442 0.83966-0.049436 0.82673-0.009599 0.63787 0.037531 0.61576 0.10921 0.58118 0.21148 0.53063 0.20328 0.30661 0.2518 0.28228 0.28467 0.25586 0.31618 0.2405 0.39477 0.26324 1.1492 0.68818 0.58463 0.36712 0.38429 0.271 0.38489 0.31621 0.1318 0.12759 0.19708 0.23137 0.10293 0.18764-0.020684 0.11866-0.075478-0.005187-0.18299 0.023668-0.42956 0.076037-0.39394 0.082774-0.53507 0.13246-0.543 0.16756-0.23266 0.08684-0.11353 0.046929-0.47391 0.24114-0.37176 0.28185-0.21955 0.27705-0.11232 0.28856 5.1e-4 0.28089 0.050805 0.14641 0.06152 0.10888 0.10258 0.13363 0.19543 0.18942 0.20899 0.15837 0.20101 0.12723 0.23905 0.12763 0.36542 0.15429 0.38241 0.11746 0.3387 0.071583 0.26325 0.037128 0.55101 0.034823 0.84516-8.49e-4 0.41747-0.01047 0.69654-0.058719 0.39125-0.07382 0.3411-0.11617 0.31314-0.14435 0.53469-0.27437 0.19252-0.069773 0.15074-0.020263 0.1827 0.026431 0.20648 0.1364 0.15168 0.22967 0.080453 0.2955 0.004048 0.29076-0.009904 0.11113-0.18938 1.0311-0.028637 0.28146-0.014145 0.4373 0.037711 0.44205 0.039022 0.24997 0.073383 0.33514 0.13567 0.48744 0.74565 2.3629 0.1682 0.45884 0.19549 0.45092 0.25262 0.438 0.29712 0.41661 0.32242 0.39732 0.85274 0.97523 0.20639 0.28571 0.19865 0.41145 0.054265 0.1704 0.067996 0.33192 0.02653 0.43986-0.024202 0.34476-0.049738 0.2726-0.10511 0.30541-0.16745 0.27915-0.18667 0.2222-0.28788 0.27552-0.58434 0.51161-0.25965 0.24586-0.22295 0.25719-0.1622 0.27644-0.086205 0.32411-0.008522 0.34056 0.049432 0.34194 0.21069 0.79509 0.064347 0.3676 0.024868 0.25724 0.008092 0.25617-0.011728 0.65044 0.005465 0.41294 0.021149 0.27675 0.036248 0.26355 0.056595 0.28534 0.069024 0.27545 0.22534 0.75458 0.12419 0.47274 0.25864 1.5451 0.095818 0.39578 0.13049 0.37936 0.19065 0.39177 0.48485 0.83848 0.23488 0.50908 0.162 0.5554 0.060998 0.56085-0.016398 0.59596-0.082137 0.64678-0.1332 0.66432-0.17011 0.66809-0.19284 0.65285-0.19934 0.61005-0.37758 1.0574-0.01432 0.069203 0.086317-0.03875 0.13741-0.084599 0.75989-0.48788 0.3518-0.19316 0.36537-0.16215 0.33684-0.10382 0.33523-0.047213 0.4578 0.04517 0.43348 0.15502 0.39768 0.23684 0.25416 0.20257 0.17412 0.16252 0.1697 0.1861 0.17215 0.22858 0.16459 0.2702 0.085688 0.17276 0.13384 0.37894 0.076494 0.35425 0.035782 0.28768 0.007807 0.28805-0.024206 0.28344-0.14118 0.77548-0.038154 0.28533-0.010918 0.19973 0.007491 0.21313 0.05235 0.32002 0.095494 0.32551 0.10408 0.26844 0.12997 0.28191 0.322 0.58489 0.27516 0.43829 0.28262 0.4182 0.63902 0.9084 0.29608 0.45093 0.22262 0.39433 0.2493 0.5632 0.13254 0.38738 0.14178 0.57274 0.062752 0.41516 0.028722 0.40685-0.012559 0.5771-0.04994 0.42928-0.062265 0.32489-0.28354 1.0984-0.1013 0.50335-0.034511 0.29777-0.007432 0.34387 0.037867 0.35642 0.069397 0.31076 0.081246 0.25068 0.16022 0.3443 0.22378 0.32437 1.1819 1.3238 0.2617 0.35782 0.10768 0.2221 0.078322 0.21864 0.13569 0.44366 0.034483 0.16728 0.019253 0.18486 0.007142 0.29298-0.005263 0.24459-0.013823 0.10012-0.064131 0.1848-0.086066 0.12379-0.17567 0.1536-0.1517 0.094535-0.37195 0.18202-1.2901 0.51677-0.31995 0.14684-0.39584 0.22494-0.34569 0.22952-0.38538 0.28734-0.29888 0.25384-0.097606 0.092442-0.59037 0.65136-0.26131 0.26725-0.18779 0.1612-0.35919 0.23947-0.36238 0.18514-1.1184 0.46478-1.5413 0.72412-0.40147 0.21922-0.40265 0.29648-0.29434 0.32415-0.20652 0.33426-0.10931 0.29166 0.011612 0.18684 0.11734 0.094619 2.1636 2.0536 1.0747 0.99107 1.0825 0.95284 0.54239 0.45029 0.54536 0.42681 0.42971 0.31395 0.54736 0.37124 0.55193 0.34144 0.41578 0.2337 0.41888 0.2131 0.34483 0.15691 0.34766 0.13936 0.5271 0.16997 0.50987 0.11363 0.51792 0.080449 1.6563 0.20963 0.60664 0.095761 1.8241 0.31734 1.2583 0.19828 0.56703 0.072804 0.5621 0.053792 0.5552 0.026658 0.66856-0.016324 0.27703-0.026963 0.37873-0.059407 0.42317-0.09121 0.37376-0.094747 1.2106-0.31719 0.3844-0.11195 0.3631-0.13925 0.32497-0.17423 0.36687-0.2617 1.0404-0.89626 0.21584-0.17305 0.27284-0.18106 0.33998-0.19222 0.3739-0.17482 0.54503-0.21757 0.1725-0.05364 0.34617-0.053972 0.24278 0.005009 0.15096 0.018609 0.38023 0.080551 0.25779 0.073101 0.40295 0.13803 0.41559 0.17681 0.35539 0.18368 0.35681 0.21208 0.36538 0.24322 0.36137 0.26823 0.30511 0.2515 0.29572 0.27076 0.32489 0.33794 0.3731 0.45904 0.34751 0.49529 0.32347 0.51065 1.046 1.7926 0.074885 0.097483-0.011958 0.019739 0.007472 0.096207 0.10539 0.43437 0.17805 0.55087 0.22021 0.56162 0.31588 0.69859 0.73192 1.4918 0.27145 0.61253 0.25141 0.61949 0.23647 0.62129 0.67314 1.8379 0.23009 0.59439 0.34111 0.81255 0.28746 0.62023 0.30967 0.59728 0.33921 0.56867 0.38352 0.55125 1.2226 1.6 0.7864 0.98677 0.21274 0.29096 0.47918 0.70222 0.29973 0.47504 0.43258 0.74497 0.2545 0.49377 0.27063 0.59896 0.24177 0.6008 0.32331 0.89842 0.31898 0.74328 0.090041 0.23861 0.062928 0.21181 0.042351 0.20905 0.011437 0.089332 0.008513 0.31774-0.012811 0.16499-0.067967 0.34888-0.10321 0.33315-0.20526 0.58917-0.036565 0.15691-0.003527 0.19223 0.02067 0.087778 0.046582 0.10658 0.118 0.15779 0.21751 0.18228 0.30247 0.18247 0.40504 0.19481 0.72574 0.28822 0.91769 0.30687 0.52818 0.1599 1.1368 0.32245 2.9637 0.8036 1.119 0.34009 0.60106 0.2127 0.40447 0.1632 0.34675 0.16432 0.27414 0.17386 0.14675 0.15371 0.060079 0.22826-0.1061 0.20468-0.14008 0.095472-0.25445 0.096082-0.62043 0.17331-0.22663 0.075249-0.33084 0.1448-0.20176 0.12206-0.1689 0.13568-0.089613 0.11752-0.012869 0.049986 0.013775 0.049335-0.02166 0.002323-0.058898 0.052948-0.16897 0.21718-0.18811 0.29496-0.17421 0.32694-0.13808 0.33793-0.18112 0.65199-0.13801 0.34124-0.26094 0.49132-0.67275 1.1095-0.25237 0.46265-0.065043 0.14958-0.048244 0.14538-0.024716 0.13938 0.007803 0.13092 0.039236 0.10394 0.066213 0.094893 0.088812 0.084929 0.16905 0.10743 0.15346 0.067952 0.16797 0.057941 0.36653 0.096467 0.39413 0.082294 1.7486 0.31158-1.1256 1.0588-0.079958 0.094608-0.054073 0.093539-0.010427 0.04569 0.019321 0.0815 0.0543 0.065306 0.074756 0.030928 0.044866-0.005433 0.097092-0.047481 0.21093-0.17331 0.4675-0.45835 0.12506 0.0741 0.12551 0.17721 0.034704 0.068629 0.09181 0.25247 0.042072 0.28023-0.018497 0.26004-0.058867 0.25995-0.15373 0.49603-0.035029 0.13931-0.020679 0.13966 6.26e-4 0.16084 0.03612 0.19072 0.0696 0.19768 0.15842 0.31371 0.20505 0.32141 0.2376 0.3249 0.25954 0.3249 0.27349 0.32179 0.5655 0.6221 0.76191 0.76877 0.24635 0.26899 0.22463 0.28238 0.19673 0.28865 0.16024 0.28798 0.11214 0.28013 0.036841 0.1451 0.029141 0.19407-9.24e-4 0.18001-0.038262 0.16964-0.064286 0.1458-0.19408 0.32716-0.059 0.17588-0.006508 0.095143 0.010043 0.093848 0.049563 0.1589 0.089247 0.20708 0.017682 0.10652-0.00326 0.045573-0.046071 0.13946-0.076234 0.13224-0.21567 0.2918-0.24502 0.28871-0.17278 0.15866-0.20016 0.15585-0.48527 0.31614-0.32146 0.18052-0.33773 0.16555-0.87191 0.36119-0.33744 0.164-0.26704 0.16777-0.2112 0.16918-0.13419 0.14584-0.021926 0.093995-1.3772-0.28903-0.40893-0.095877-1.68-0.4667-0.40744-0.10118-0.39642-0.079616-0.3826-0.048619-0.36541-0.00616-0.23929 0.025356-0.44938 0.09959-0.21828 0.065959-0.60672 0.23983-0.4741 0.15348-0.22138 0.10111-0.19276 0.13581-0.18134 0.16707-0.52675 0.56237-0.34609 0.3368-0.15285 0.18415-0.12989 0.22262-0.10045 0.24851-0.074269 0.26626-0.049786 0.27688-0.047099 0.48836-0.016683 0.30824-0.002516 0.30984 0.022741 0.70378-0.022026 0.31118-0.14468 0.81433-0.033267 0.27386-0.006209 0.33036 0.051078 1.1913 0.017437 0.24486 0.037011 0.22461 0.052161 0.17203 0.056249 0.12816 0.068759 0.10777 0.11996 0.11248 0.12329 0.057256 0.098915-0.007833-0.004314 0.0384 0.023396 0.11076 0.30221 1.3123 0.35535 1.3824 0.090208 0.46245 0.064773 0.45499 0.03633 0.35462 0.011465 0.34789-0.042833 0.46577-0.10601 0.45042-0.16115 0.42463-0.21098 0.38766-0.25828 0.33837-0.25699 0.2463-0.56505 0.44724-0.3589 0.30446-0.70826 0.63322-0.35235 0.2893-0.90094 0.65131-0.29473 0.18356-0.67953 0.34314-0.27228 0.19308-0.17456 0.22402-0.10074 0.26387-0.02599 0.23498 0.005345 0.25487 0.041843 0.52603 0.085245 0.78899 0.053278 0.75545 0.007356 0.32424-0.027548 0.4098-0.056035 0.40678-0.13363 0.80694-0.097274 0.38782-0.17098 0.38972-0.22145 0.35647-0.49302 0.62672-0.19236 0.29128-0.15922 0.33742-0.15039 0.35854-0.1893 0.36414-0.26166 0.35322-0.323 0.3494-0.73266 0.71108-0.36055 0.37369-0.32161 0.39378-0.25425 0.41909-0.15286 0.39065-0.10117 0.39819-0.069002 0.38958-0.040138 0.30998-0.011971 0.28704 0.030276 0.27916 0.064289 0.20875 0.084435 0.098246 0.097234-0.064192 0.087415-0.005261 0.1104 0.098766 0.063206 0.20708 1.07e-4 0.30448-0.1573 1.134-0.056094 0.55027-0.016964 0.56264 0.046442 0.58844 0.078025 0.56963 0.13102 0.56928 0.2058 0.55074 0.2599 0.54494 0.56151 1.0978 0.2472 0.56695 0.11923 0.33201 0.18464 0.58339 0.34684 1.1873 0.18544 0.58531 0.17411 0.48284 0.19071 0.4651 0.20744 0.44191 0.22504 0.4122 0.24423 0.37468 0.51884 0.65868 0.24101 0.34092 0.22402 0.35761 0.2078 0.36458 0.18454 0.35399 0.15546 0.35067 0.11148 0.3463 0.050768 0.34078-0.034593 0.42008-0.21295 0.85181-0.068838 0.45485 0.003639 0.35828 0.025368 0.2363 0.080386 0.42342 0.12645 0.45774 0.45164 1.3307 0.19763 0.63374 0.20882 0.77498 0.22142 0.906 0.14902 0.68506 0.046603 0.29453 0.022303 0.22878 0.004725 0.20786-0.009493 0.14183-0.028839 0.15468-0.083664 0.20983-0.1757 0.26699-0.40228 0.49904-0.37595 0.50317-0.53672 0.6538-0.73073 0.98812-0.24932 0.39928-0.16259 0.37222-0.063816 0.25978-0.016468 0.36954 0.047457 0.37696 0.25262 1.0403 0.054375 0.3235 1.75e-4 0.39219-0.1005 0.35695-0.16893 0.2997-0.27 0.30648-0.22507 0.17956-0.18984 0.11458-0.19855 0.089247-0.31506 0.080683-0.11897 0.010729-0.20508-0.002607-0.20549-0.024075-1.0253-0.21086-0.38098-0.032608-0.35577 0.039565-0.22159 0.08324-0.2025 0.12138-0.24389 0.19972-0.39315 0.37939-0.30031 0.20568-0.3916 0.13584-0.48352 0.0801-0.55542 0.03845-0.60865 0.009246-1.9383-0.033365-0.58769 0.007244-0.48254 0.036001-0.16665 0.027638-0.17156 0.055403-0.0199 0.036106-0.16116-0.091493-0.33698-0.034019-0.42879 0.046065-0.47215 0.14555-1.7766 0.79635-0.42494 0.20834-0.39576 0.24567-0.34267 0.28793-0.28573 0.30899-0.30069 0.41081-0.26927 0.46612-0.12758 0.26553-0.10872 0.26051-0.26433 0.69998-0.14001 0.25422-0.19137 0.24034-0.19 0.18377-0.22194 0.1803-0.2105 0.15163-0.46879 0.29931-0.32817 0.18329-0.37573 0.18048-0.24824 0.10037-0.23183 0.079167-0.30424 0.083098-0.50685 0.098039-1.2256 0.18671-1.5399 0.27564-0.64663 0.1241-0.37092 0.092654-0.4159 0.15116-0.73137 0.32679-0.49658 0.1876-0.19028 0.055556-0.84859 0.19788-0.49614 0.1293-0.37295 0.10391-0.36841 0.123-0.18506 0.075906-0.30254 0.14428-0.24528 0.13324-0.4377 0.27131-0.40782 0.29651-0.36439 0.31496-0.18594 0.18968-0.28312 0.34364-0.41716 0.53767-0.46894 0.6604-0.25937 0.28104-0.087307 0.076765-0.29858 0.19615-0.32537 0.10961-0.24201 0.014928-0.19611-0.021977-0.25548-0.076241-0.26021-0.11952-1.0347-0.61012-1.981-1.1035-0.43383-0.2298-0.3828-0.16887-0.53834-0.18651-0.35537-0.057221-0.079189 0.003034-0.19086 0.043571-0.29047 0.19471-0.083553 0.087315-0.15298 0.19182-0.15291 0.22325-0.85839 1.4071-0.27184 0.37808-0.27327 0.3201-0.2908 0.26733-0.17508 0.11236-0.12784 0.046784-0.07682 0.007172-0.14061-0.047487-0.09164-0.12356-0.033239-0.24042 0.016279-0.23277 0.11225-0.847 0.20227-1.3442 0.045285-0.57599-0.007737-0.37646-0.058509-0.392-0.082637-0.28161-0.065217-0.15256-0.079959-0.14028-0.095528-0.12151-0.14937-0.12021-0.34619-0.094755-0.42414 0.03497-0.4809 0.13035-0.52157 0.19943-0.55014 0.24863-0.56974 0.28296-1.1736 0.62792-3.2001 1.8024-1.2133 0.66084-2.9684 1.7258-2.9553 1.6718-10.073 5.6504-1.1718 0.6443-1.1521 0.60865-0.56316 0.28042-0.55016 0.2559-0.53258 0.22237-0.50916 0.17722-0.56599 0.1564-0.42535 0.13185-0.8453 0.2928-0.32958 0.10021-0.38583 0.094371-0.32743 0.05814-0.40657 0.039474-0.40464 0.017956-0.59525 0.003557-0.26642-0.021188-0.35171-0.051075-1.1807-0.21798-0.27689-0.0327-0.26315-0.016785-0.40636 2.05e-4 -0.41356 0.025049-1.8417 0.20588-0.54779 0.037133-0.25739-7.7e-4 -0.30072-0.032342-0.23569-0.082843-0.15677-0.17273-0.018958-0.21784 0.063467-0.1538 0.40967-0.56912 0.16629-0.27735 0.13188-0.30657 0.06783-0.26016 0.2027-1.3455 0.053083-0.46394 0.024424-0.46983-0.00269-0.37112-0.036271-0.61154-0.028169-0.21672-0.046548-0.23927-0.081955-0.27291-0.08079-0.17946-0.098248-0.16079-0.31721-0.44285-0.081165-0.16546-0.036778-0.10196-0.057835-0.22389-0.025222-0.19774 0.010824-0.54374-0.028884-0.27955-0.067084-0.27573-0.046833-0.13226-0.080015-0.17314-0.1594-0.20644-0.21941-0.13742-0.28933-0.044065-0.33444 0.042573-0.35962 0.10915-0.74165 0.30466-0.347 0.12612-0.36678 0.11424-0.45265 0.10914-0.34192 0.058093-1.1377 0.14647-0.53152 0.039724-0.54373-1.21e-4 -0.6087-0.064305-0.56439-0.11837-0.50566-0.15079-0.59481-0.22893-0.41572-0.18978-0.49503-0.25537-0.55811-0.32394-0.51521-0.33307-0.51017-0.36706-0.5082-0.41472-0.35245-0.33189-0.37136-0.41847-0.2763-0.41305-0.14877-0.36343-0.008214-0.23256 0.038805-0.033248-0.76089 0.39468-0.45185 0.1995-0.37668 0.12271-0.15927 0.02719-0.12179-7.88e-4 -0.095784-0.029609-0.071899-0.06948-0.03957-0.10165-0.011504-0.12568 0.012214-0.14016 0.11598-0.55034 0.026216-0.20627 0.011443-0.43935-0.016581-0.25339-0.032029-0.256-0.047183-0.25626-0.067972-0.27106-0.11908-0.34885-0.18443-0.42906-0.31536-0.68034-0.24017-0.46319-0.12222-0.20427-0.272-0.39929-0.14842-0.19512-0.3068-0.36581-0.15771-0.17039-0.31792-0.30746-0.37589-0.29903-0.34049-0.2233-0.23672-0.13812-0.2441-0.1315-0.49974-0.2429-0.84467-0.35594-0.32412-0.11894-0.53713-0.16876-0.3614-0.092664-0.4202-0.089551-0.73695-0.12043-0.010415 0.037704-0.021759 0.018441-0.082179 0.017905-0.10801-0.009811-0.17728-0.040315-2.3257-0.74132-0.032829 0.13506-0.21302 0.1427-0.2321 0.09282-0.24759 0.075809-0.67301 0.15591-0.32945 0.057474-0.58247 0.072359-0.72834 0.045865-1.2978 0.041965-0.41615 0.039737-0.24956 0.045049-0.2427 0.067015-0.16493 0.063195-0.18182 0.091454-0.16638 0.11039-0.13304 0.11355-0.19039 0.22084-0.15842 0.25926-0.10735 0.23086-0.10975 0.2925-0.40974 1.2967-0.13278 0.35552-0.16224 0.37284-0.15577 0.30281-0.19068 0.31443-0.19699 0.27524-0.20839 0.2486-0.22468 0.22791-0.21989 0.188-0.15227 0.11175-0.28565 0.17439-0.30546 0.15036-0.42432 0.16552-0.29141 0.091655-0.28969 0.075404-0.49332 0.090718-0.2371 0.023476-0.26463 0.004968-0.2238-0.018258-0.23821-0.048311-0.15959-0.05464-0.15744-0.080919-0.13364-0.10619-0.07916-0.097178-0.49976-0.63264-0.3387-0.48912-0.26344-0.4515-0.33872-0.602-0.3011-0.63963-0.37635-0.63962-0.37636-0.7525-0.30107-0.41386-0.37631-0.3386-0.75258-0.2633-0.60206-0.15044-0.75255 9e-5 -0.91721 0.18322-0.46435 0.21056-0.25573 0.09742-0.39491 0.11771-0.21639 0.045545-0.39016 0.046279-0.42697 0.00977-0.29478-0.013185-0.53968-0.061911-2.7801-0.51706-1.5141-0.32806-0.35415-0.066946-0.36079-0.055515-0.38639-0.043273-0.56006-0.03312-0.2907-0.004113-0.78996 0.026014-0.5067 0.03939-0.91914 0.093397-0.82011 0.11624-0.57715 0.12467-1.1239 0.30906-0.27162 0.06579-0.38871 0.073402-0.36734 0.0456-0.24748 0.01614-0.92544-0.003822-0.22382 0.007995-0.21584 0.023763-0.25698 0.059555-0.25766 0.10904-0.15792 0.093559-0.12496 0.087733-0.23204 0.19464-0.343 0.35227-0.61998 0.69642-0.29777 0.27229-0.24662 0.16669-0.27848 0.11697-0.28533 0.061684-0.32669 0.022265-0.3195 0.001593-0.47799-0.033788-0.34096-0.052403-0.57053-0.11434-0.69345-0.1186-0.46657-0.1039-0.37178-0.11702-0.8878-0.33581-0.2728-0.083748-0.25741-0.064917-0.42738-0.085842-0.20018-0.028251-0.22085-0.019093-0.34195-0.005148-0.23623 0.015681-0.29704 0.049889-0.39657 0.14157-0.34037 0.21548-0.40526 0.3611-0.21064 0.16752-0.10059 0.064302-0.21243 0.11253-0.77627 0.34486-0.21417 0.1164-0.20036 0.1306-0.56639 0.43026-0.25587 0.20069-0.2768 0.25113-0.2223 0.25764-0.63284 0.88476-0.51792 0.66595-0.22394 0.30475-0.42484 0.60488-0.12106 0.22789-0.043085 0.11677-0.026778 0.11153-0.010446 0.087632 0.011835 0.21279 0.048683 0.20908 0.1113 0.37244 0.042908 0.21734 0.003536 0.20447-0.050894 0.22958-0.095644 0.23716-0.32727 0.66303-0.12702 0.32682-0.059621 0.21627-0.05362 0.26785-0.027268 0.27296 0.011456 0.34129 0.047147 0.33886 0.10728 0.49284 0.13707 0.48026 0.048869 0.26812 0.005143 0.1265-0.025236 0.23974-0.044029 0.18162-0.098172 0.27586-0.26522 0.64227-0.49172 1.5128-0.12523 0.31833-0.1086 0.23343-0.18262 0.3124-0.2848 0.35368-0.30473 0.3339-0.28039 0.36676-0.16786 0.31632-0.13518 0.35437-0.12461 0.46437-0.096718 0.55243-0.050645 0.47246-0.021681 0.38208-0.003092 0.40782 0.012727 0.3168 0.060168 0.61748 0.067462 0.43815 0.2738 1.3576 0.070948 0.5878-0.007798 0.57655-0.047859 0.46153-0.055311 0.38831-0.086586 0.53856-0.080185 0.39576-0.11749 0.43072-0.27449 0.84738-0.10864 0.37786-0.064364 0.29126-0.041571 0.25523-0.022038 0.2517 0.020822 0.47922 0.078661 0.54712 0.11589 0.58184 0.13321 0.52283 0.044359 0.23848 0.018617 0.18175-0.015149 0.30226-0.10426 0.29547-0.17022 0.23164-0.18487 0.1495-0.21093 0.12019-0.2365 0.10255-0.26235 0.063742-0.42597-0.00645-0.47229-0.10688-0.30843-0.11082-0.31021-0.14035-0.40371-0.22748-0.38255-0.2737-0.3259-0.29947-0.18658-0.21305-0.17942-0.2407-0.15908-0.24973-0.23221-0.45085-0.68955-1.6669-0.14745-0.29234-0.24212-0.38885-0.27973-0.36518-0.30931-0.33404-0.3672-0.32999-0.24201-0.18811-0.25912-0.17716-0.46164-0.28114-0.38574-0.18753-0.42646-0.13921-0.25741-0.057042-0.14642-0.017821-0.26064 0.005799-0.18388 0.034419-0.21269 0.085723-0.204 0.20835-0.09819 0.29514-0.034048 0.32005-0.015488 0.4011 0.016642 0.39724 0.027376 0.21261 0.061927 0.29662 0.079828 0.2972 0.109 0.35112 0.11877 0.29644 0.18768 0.36896 0.28789 0.40056 0.71077 0.81466 0.34627 0.44666 0.30341 0.49921 0.199 0.40354 0.1711 0.41367 0.16514 0.49628 0.11324 0.48685 0.046696 0.34332 0.17226 1.6221 0.15466 0.77255 0.019856 0.24598-0.029305 0.1872-0.076707 0.15593-0.27789 0.25842-0.42533 0.23207-0.52855 0.2088-0.58503 0.18563-0.5853 0.15926-0.88625 0.22138-0.02444-0.012452-0.083613-0.10155-0.24608-0.35625-0.37435-0.62809-0.51735-0.92038-0.34548-0.55458-0.32826-0.48268-0.61587-0.82326-0.2741-0.33955-0.46574-0.54527-0.43952-0.47646-0.28312-0.28645-0.60248-0.55202-0.56041-0.46003-1.1534-0.86861-0.40518-0.31952-0.16144-0.14384-0.21346-0.22052-0.099622-0.11981-0.078242-0.10642-0.23119-0.39894-0.11493-0.25222-0.3147-0.86474-0.1252-0.25348-0.18994-0.26609-0.22815-0.23747-0.15658-0.14161-0.30516-0.25539-0.31439-0.24331-0.62229-0.41964-1.2915-0.80982-0.28725-0.19347-0.15915-0.14092-0.021957-0.041562 0.005061-0.032506 0.11067-0.033571 0.21736 0.008498 0.61464 0.05633 0.36215 0.004879 0.57326-0.065781 0.54646-0.036091 0.15455-0.031118 0.15514-0.087689 0.11858-0.15341 0.069816-0.20699 0.011399-0.22165-0.043006-0.23822-0.10182-0.24111-0.13049-0.19336-0.1654-0.1889-0.33635-0.31712-0.69238-0.60598-0.69237-0.68558-0.46043-0.48052-0.27535-0.29657-0.31719-0.37354-0.54695-0.78813-0.33662-0.44212-0.37482-0.42615-0.91325-0.90731-0.2666-0.27511-0.28441-0.32186-0.20394-0.26058-0.58939-0.79864-0.51478-0.76858-0.20539-0.28424-0.63458-0.75429-0.22283-0.31208-0.20144-0.39426-0.1445-0.41935-0.090096-0.47895-0.00419-0.30565 0.020143-0.24053 0.068598-0.42297 0.10869-0.46414 0.29238-1.1005 0.099324-0.53537 0.025716-0.28344 7.02e-4 -0.28502-0.013576-0.16818-0.056286-0.31291-0.092592-0.30029-0.15085-0.3421-0.12362-0.22877-0.21585-0.32868-0.24192-0.31754-0.56117-0.68604-0.20212-0.22315-0.78627-0.78081-0.40416-0.41941-0.66014-0.81635-0.74244-0.81763-0.16498-0.23365-0.11848-0.24304-0.076511-0.2502-0.032427-0.34308 0.011535-0.23166 0.25827-1.8887 0.12234-1.1831 0.032621-0.44912 0.042376-0.86665 0.013612-0.9471-0.054279-2.1131-0.023746-0.47699-0.03759-0.47509-0.048582-0.41822-0.066441-0.41207-0.13782-0.61711-0.1414-0.49143-0.16833-0.47523-0.19776-0.45265-0.18392-0.34464-0.095098-0.15628-0.2411-0.35247-0.20211-0.25711-0.13951-0.15815-0.32968-0.3218-0.83432-0.71221-0.2981-0.27112-0.35571-0.37084-0.20113-0.25061-0.17071-0.23743-0.15138-0.24169-0.06524-0.11991-0.14286-0.31471-0.077655-0.23334-0.074295-0.31739-0.033362-0.28471-0.011744-0.28563 0.003765-0.34602 0.022523-0.25577 0.032438-0.21243 0.17226-0.73588 0.17295-0.50901 0.1968-0.4454 0.17753-0.31282 0.2477-0.36582 0.93729-1.2118 0.5779-0.79772 0.63764-0.96049 0.40172-0.67179 0.23661-0.45181 0.44005-0.91468 0.69011-1.5539 0.14856-0.37572 0.31288-0.91752 0.56081-0.97644 0.18115-0.26298 0.6096-0.81804 0.17781-0.27513 0.18017-0.32208 0.15538-0.3434 0.14459-0.43357 0.083572-0.36142 0.069582-0.52105 0.029579-0.69766 0.011783-2.4281 0.035048-0.79553 0.23371-3.1012 0.066407-0.60748 0.21933-1.5888 0.025459-0.2974 0.012533-0.38778-0.005646-0.29242-0.021288-0.31915-0.14268-1.2265-0.047684-0.56653-0.059667-1.9398-0.0399-0.63073-0.037415-0.39402-0.12565-0.89512-0.11259-0.61358-0.33352-1.6697-0.25152-1.5242-0.15314-1.0252-0.043837-0.57417-0.004015-0.33414 0.015262-0.36396 0.044694-0.43708 0.054781-0.3345 0.1053-0.43428 0.27995-0.80667 0.097255-0.31274 0.054312-0.23581-0.001338-0.1149-0.10325 0.010819-0.14572-0.067147-0.14271-0.11098-0.11083-0.11302-0.1048-0.13182-0.13582-0.21899-0.083856-0.17166-0.13362-0.35588-0.091119-0.3292-0.078586-0.37126-0.061792-0.3763-0.082894-0.73109-0.044242-0.72532-0.043321-1.7108-0.073596-2.0957-0.048356-1.9569-0.030593-0.73829-0.068462-0.91002-0.073801-0.56694-0.064472-0.2856-0.08403-0.28062-0.14265-0.3689-0.13814-0.28217-0.11737-0.20612-0.26078-0.38998-0.21135-0.27452-0.26634-0.31678-0.24872-0.26607-0.77916-0.73866-0.42628-0.43807-0.2997-0.35107-0.19475-0.2559-0.18947-0.27794-0.16945-0.28134-0.12558-0.23552-0.20502-0.45967-0.093899-0.26691-0.09934-0.37294-0.12818-0.61988-0.028773-0.24748 5.28e-4 -0.22976 0.068171-0.41574 0.090568-0.36181 0.16011-0.56954 0.26247-0.81445 0.59397-1.5696 0.14408-0.53641 0.041606-0.25109 0.023461-0.27217 0.003641-0.18994-0.017891-0.35295-0.090643-0.64851-0.12965-0.60832-0.062957-0.22905-0.13382-0.40066-0.19167-0.45389-0.27635-0.52664-0.29388-0.46427-0.39344-0.53659-0.37041-0.45446-1.5833-1.7933 0.073936-0.11155 0.1141-0.092668 0.27413-0.17249 0.53559-0.27453 0.3249-0.13776 0.54163-0.19714 0.34184-0.088825 0.24972-0.041376 0.46583-0.032941 0.55989 0.01271 0.49425 0.04242 1.7774 0.24046 1.3569 0.14774 0.38986 0.05233 0.63875 0.11535 0.38616 0.090891 0.4934 0.1412 0.32474 0.12003 0.4543 0.20829 0.46097 0.24999 0.95864 0.61897 0.66722 0.40847 0.24949 0.18389 0.44549 0.36355 0.17658 0.12191 1.0107 0.57916 1.5653 0.78353 1.8533 0.81255 1.3181 0.53543 0.49409 0.23047 0.48737 0.27458 0.37865 0.24466 0.37385 0.28459 0.28153 0.2594 0.36789 0.37197 0.18487 0.1625 0.201 0.14927 0.2197 0.14352 1.4793 0.87783 0.93938 0.63745 1.2867 0.79932 0.24285 0.16848 0.85954 0.64516 0.40468 0.27088 0.55605 0.32881 0.42277 0.21016 0.22231 0.097996 0.65468 0.26065 0.53936 0.19406 0.28485 0.088416 0.38992 0.09788 0.98483 0.20039 0.35461 0.10102 0.24994 0.092204 0.27225 0.12578 0.24163 0.13513 0.33184 0.21736 1.1809 0.86032 0.3706 0.2523 0.27647 0.16776 0.2036 0.10776 0.34603 0.15224 0.2831 0.10002 0.3023 0.085151 0.53172 0.10362 0.54796 0.067806 0.55347 0.044613 0.17654 7.7e-4 0.14306-0.013377 0.20059-0.053659 0.14322-0.06819 0.11506-0.073833 0.29381-0.23105 0.15894-0.079734 0.19737-0.037203 0.20044 0.004927 0.21331 0.033945 0.15405 0.043096 0.46492 0.17404 0.28709 0.12909 0.59653 0.32981 0.22827 0.093407 0.16879 0.050271 0.22254 0.046327 0.23356 0.023065 0.32188-9.7e-4 0.42493-0.022335 0.19114-0.024409 0.31317-0.071047 0.47377-0.1626 0.51398-0.21231 1.4381-0.66585 0.62301-0.2701 0.54556-0.20921 0.47966-0.15822 0.43444-0.12356 0.59376-0.144 0.29922-0.065741 0.078912-0.00792-0.04103-0.11059-0.1637-0.26376-1.1845-1.7277-0.38641-0.59475-0.3758-0.6429-0.22645-0.42908-0.41428-0.8583-0.33342-0.75804-0.072389-0.20281-0.09719-0.37075-0.037509-0.24657-0.011831-0.19797 0.029184-0.41997 0.063598-0.33542 0.37535-1.4053 0.056925-0.29267 0.18904-1.175 0.12208-0.66547 0.12038-0.56116 0.21514-0.8543 0.41352-1.3366 0.62407-2.1644 0.17741-0.55909 0.32228-0.84892 0.57536-1.4234 0.15597-0.46423 0.071849-0.2994 0.062017-0.44423 0.060019-0.80206 0.053801-0.41696 0.21542-1.2548 0.054724-0.39219 0.045779-0.52138 0.004988-0.52008-0.047294-0.52479-0.099623-0.50939-0.035519-0.134-0.17783-0.56884-0.15222-0.42602-0.63666-1.6775-0.80719-2.0581-0.51748-1.3883-0.1797-0.41863-0.27869-0.5594-0.3151-0.55437-0.34414-0.55187-0.36731-0.55138-0.38576-0.55232-0.81128-1.1094-0.87192-1.1504-1.8437-2.3479-0.15582-0.24557-0.021852-0.11438 0.14803-0.096255 0.27743-0.21872 0.40868-0.35537 0.57784-0.56463 0.48672-0.52593 0.33597-0.38218 0.32829-0.39132 0.49981-0.65025 0.35084-0.52805 0.27541-0.49728 0.20727-0.46761 0.18331-0.55916 0.12088-0.53379 0.05482-0.34272 0.058754-0.56008 0.023496-0.4671 0.002605-0.45364-0.036718-0.77141-0.029087-0.28842-0.073552-0.49142-0.1611-0.8361-0.092324-0.3912-0.12476-0.38462-0.17054-0.36738-0.22491-0.34197-0.21148-0.26086-0.21071-0.23444-0.72483-0.74299-0.12689-0.15146-0.25083-0.39414-0.16513-0.4266-0.061786-0.44158 0.0433-0.38024 0.12708-0.36609 0.10205-0.19148 0.19377-0.29044 0.41529-0.5463 0.22743-0.32612 0.1939-0.3484 0.1246-0.32393 0.098698-0.46737 0.030505-0.48844-0.023734-0.49651-0.10746-0.84392-0.035261-0.42563 0.018052-0.55649 0.088406-0.5533 0.15315-0.53382 0.2175-0.49563 0.28685-0.43512 0.14005-0.15647 0.14618-0.14156 1.977-1.73 0.42805-0.34378 1.3075-0.97986 0.38459-0.30712 0.74776-0.6254 0.28399-0.26474 0.19274-0.21251 0.053627-0.10929 0.029847 0.040424 0.11258 0.10533 0.41002 0.32317 0.49875 0.34366 0.58214 0.362 0.48548 0.27132 0.48728 0.24769 0.57873 0.27119 0.54187 0.23215 0.51306 0.19601 0.66954 0.21536 0.72967 0.19223 0.39674 0.085105 0.44317 0.070157 0.35736 0.027927 0.33368-0.009179 0.23731-0.036379 0.23347-0.069408 0.22018-0.10783 0.1733-0.12659 0.16983-0.16949 0.19959-0.26956 0.19289-0.34984 0.21598-0.52616 0.35935-1.1299 0.48726-1.3714 0.10246-0.24055 0.13307-0.26827 0.16192-0.2774 0.15476-0.22906 0.14459-0.19165 0.23445-0.27908 0.28878-0.30598 0.52316-0.48764 0.39473-0.32749 0.28896-0.21345 0.23003-0.14867 0.17322-0.09748 0.36884-0.18212 0.44901-0.20108 0.46708-0.17536 0.34757-0.099929 0.35479-0.080852 0.75767-0.14181 0.40486-0.088623 1.1384-0.30739 0.71513-0.22199 1.5146-0.51545 0.47066-0.14056 0.48883-0.12498 2.1444-0.48658 0.41895-0.071978 0.26222-0.028405 0.3976-0.011835 0.35837 0.024334 0.43086 0.082552 1.2586 0.33566 0.43731 0.097495 0.080553 0.005094 0.20663-0.17973 0.38779-0.3964 1.2885-1.245 0.24719-0.25497 0.23456-0.27602 0.79205-0.98576 1.2974-1.4233 0.31842-0.38544 0.25038-0.36272 0.21132-0.4075 0.2309-0.53076 0.495-1.2356 0.16683-0.35432 0.10666-0.18969 0.13459-0.20516 0.11804-0.14495 0.16034-0.15121 0.1794-0.11565 0.10856-0.045762 0.086511-0.025991 0.25981-0.038359 0.26553 0.004195 0.18142 0.020803 0.21779 0.041545 0.37942 0.11437 0.18431 0.073048 0.29326 0.1361 0.48904 0.26887 0.5333 0.3197 0.15897-0.01187 0.18133-0.031636 0.52848-0.12784 0.38915-0.13448 0.17056-0.076618 0.32736-0.2094 0.17618-0.17581 0.14395-0.2041 0.16727-0.36486 0.11734-0.36416 0.24965-0.92766 0.15645-0.54172 0.10632-0.32142 0.20529-0.50813 0.67823-1.4498 0.16832-0.45702 0.10576-0.41632 0.24103-1.0694 0.054485-0.35445 0.016511-0.35782-0.038801-0.35819-0.13502-0.42636-0.21172-0.4255-0.26278-0.42739-0.7512-1.1027-0.83213-1.2498-0.70987-1.0103-0.13886-0.26842-0.082202-0.2658-0.014261-0.25118 0.042599-0.18095 0.14644-0.26649 0.48172-0.63948 0.19446-0.2748 0.31408-0.50643 0.23521-0.47544 0.10238-0.25626 0.15958-0.45639 0.1439-0.5052 0.075564-0.3069 0.23203-1.0841 0.2188-0.75194 0.13709-0.52418 0.20549-0.97011 0.54573-2.3601 0.08754-0.50578 0.017423-0.32174-0.022693-0.22894-0.0592-0.091582 0.42271 0.042083 1.158 0.066572 0.88558 0.029722 0.82819 0.009981 0.99539-0.011538 1.3662-0.035117 2.9719-0.1175 0.76444-0.013728 0.57623 0.002733 0.7021 0.026652 0.69129 0.065533 0.34096 0.053168 0.3213 0.06745 0.41928 0.12432 0.35943 0.16245 0.33243 0.2348 0.27613 0.24777 0.25889 0.21419 0.12746 0.078215 0.42671 0.18366 0.25167 0.12129 0.33837 0.20487 0.22352 0.16218 0.25312 0.22288 0.22115 0.24668 0.43636 0.53504 0.28057 0.2937 0.58777 0.58241 0.26348 0.30968 0.21256 0.33724 0.10906 0.25986 0.081599 0.27458 0.19839 0.9142 0.056735 0.19688 0.073614 0.20362 0.22402 0.44067 0.29425 0.42388 0.34726 0.40361 0.38647 0.37797 0.41464 0.34456 0.43396 0.30036 0.44608 0.24161 0.45218 0.16367 0.45307 0.060868 0.44078-0.057922 0.43824-0.14835 0.43701-0.20606 0.87616-0.47375 0.44248-0.21727 1.4767-0.60171 0.43343-0.19342 0.35085-0.19704 0.39988-0.26942 0.28266-0.21643 0.40171-0.34307 0.60695-0.5785 1.2494-1.2574 0.43489-0.39298 0.38357-0.29589 0.3637-0.23632 0.37478-0.20415 0.38253-0.16958 0.16394-0.060817 0.3454-0.10768 0.3478-0.090468 1.1313-0.23481 0.35656-0.061174 0.73475-0.10057 0.42961-0.091371 0.16674-0.053211 0.16897-0.070674 0.11307-0.061057 0.14827-0.10418 0.16363-0.15861 0.1008-0.12667 0.0895-0.14083 0.14561-0.31849 0.081621-0.34739-0.00466-0.36424-0.015676-0.083361-0.085383-0.25808-0.15638-0.28856-0.12998-0.1855-0.14638-0.18189-0.18418-0.20495-0.38821-0.3842-0.68325-0.60498-1.5019-1.266-0.58272-0.55022-0.29659-0.32973-0.18904-0.25305-0.12453-0.21095-0.060314-0.13589-0.05256-0.18601-0.009522-0.30237 0.061432-0.28725 0.14464-0.34663 0.13764-0.24185 0.31915-0.4546 0.37626-0.45847 1.2493-1.3972 0.3939-0.47517 0.35155-0.48251 0.18635-0.29498 0.41959-0.71318 0.38344-0.69382 0.17927-0.37824 0.16774-0.39499 1.0974-2.6988 0.12156-0.32536 0.22539-0.67274 0.075633-0.2612 0.12046-0.52302 0.042787-0.38298 0.006167-0.39565-0.029361-0.42353-0.027501-0.21254-0.06452-0.36658-0.12546-0.54734-0.15946-0.58988-0.14397-0.47476-0.2596-0.76573-0.41427-1.062-0.68102-1.5727-0.82044-1.9734-0.26306-0.56881-0.19127-0.37194 0.029144-0.06398 0.1076-0.086372 0.21325-0.11358 0.27587-0.10743 0.23315-0.069142 0.2477-0.055602 0.27463-0.042082 0.21283-0.018929 0.16159-0.006283 0.44304 0.017513 0.4302 0.062539 0.40492 0.099492 0.8516 0.29666 0.48203 0.13918 0.13359 0.02874 0.41974 0.058979 0.40619 0.04639 0.3913 0.085831 0.40832 0.18416 0.31848 0.21368 0.27278 0.23304 0.24104 0.25337 0.41009 0.51611 0.2606 0.27411 0.11477 0.10439 0.37056 0.2945 0.60291 0.40647 0.23582 0.17305 0.56525 0.484 0.32882 0.26268 0.35981 0.25212 0.3801 0.23087 0.24479 0.12809 0.11958 0.055446 0.37946 0.14163" stroke="#bdc660"/>
    </defs>
    <g clip-path="url(#pa24bf9ade3)">
     <use y="280.512" fill="#bdc660" stroke="#bdc660" xlink:href="#m05466eb7cb"/>
    </g>
   </g>
  </g>
 </g>
 <defs>
  <clipPath id="pa24bf9ade3">
   <rect x="7.2" y="7.2" width="233.2" height="266.11"/>
  </clipPath>
 </defs>
</svg>
