<?xml version="1.0" encoding="UTF-8"?>
<!DOCTYPE svg  PUBLIC '-//W3C//DTD SVG 1.1//EN'  'http://www.w3.org/Graphics/SVG/1.1/DTD/svg11.dtd'>
<svg width="213.92pt" height="280.51pt" version="1.1" viewBox="0 0 213.92 280.51" xmlns="http://www.w3.org/2000/svg" xmlns:xlink="http://www.w3.org/1999/xlink">
 <metadata>
  <rdf:RDF xmlns:cc="http://creativecommons.org/ns#" xmlns:dc="http://purl.org/dc/elements/1.1/" xmlns:rdf="http://www.w3.org/1999/02/22-rdf-syntax-ns#">
   <cc:Work>
    <dc:type rdf:resource="http://purl.org/dc/dcmitype/StillImage"/>
    <dc:date>2024-07-04T12:10:34.285135</dc:date>
    <dc:format>image/svg+xml</dc:format>
    <dc:creator>
     <cc:Agent>
      <dc:title>Matplotlib v3.7.1, https://matplotlib.org/</dc:title>
     </cc:Agent>
    </dc:creator>
   </cc:Work>
  </rdf:RDF>
 </metadata>
 <defs>
  <style type="text/css">*{stroke-linejoin: round; stroke-linecap: butt}</style>
 </defs>
 <g id="figure_1">
  <g id="patch_1">
   <path d="m0 280.51h213.92v-280.51h-213.92v280.51z" fill="none"/>
  </g>
  <g id="axes_1">
   <g id="PatchCollection_1">
    <defs>
     <path id="m1b8ce6cd4e" d="m90.789-258 0.32507 0.011783 0.51908-0.002275 0.1882-0.008411 0.41847-0.032598 0.71163-0.080428 0.50582-0.046389 0.20561-0.024235 0.2223-0.034994 0.75487-0.14142 1.3828-0.23225 0.83131-0.12102 0.32931-0.038367 0.24754-0.021171 0.24441-0.01153 0.23709-0.0026 0.22953 0.005018 0.2694 0.015681 0.1232 0.012087 0.23303 0.035305 0.14014 0.036096 0.040649 0.018549 0.010694 0.014567 0.015256 0.033404 0.058832 0.066918 0.14735 0.13844 0.63127 0.53809 0.22696 0.2065 0.2035 0.20326 0.16911 0.1943 0.17985 0.24696 0.068967 0.085958 0.073917 0.070485 0.085469 0.052728 0.10489 0.035239 0.37534 0.062245 0.22352 0.064336 0.24061 0.094133 0.25052 0.11736 0.21066 0.1114 0.20989 0.12209 0.20585 0.13152 0.19834 0.14035 0.19064 0.15277 0.17312 0.16437 0.14862 0.17776 0.11843 0.19379 0.083487 0.20977 0.05658 0.22362 0.038828 0.23387 0.024371 0.20075 0.040486 0.44326 0.012308 0.24085-0.001767 0.24193-0.021378 0.24341-0.040938 0.24224-0.059766 0.23928-0.0788 0.23448-0.054169 0.132-0.073371 0.15713-0.079812 0.15451-0.43229 0.77825-0.13248 0.27035-0.10953 0.27221-0.060947 0.19724-0.051771 0.19791-0.11693 0.4994-0.03262 0.20626-0.012993 0.17678-0.002222 0.16559 0.013241 0.41476 0.030085 0.41039 0.024232 0.17257 0.042774 0.19013 0.055739 0.1852 0.069556 0.19111 0.083956 0.18385 0.15817 0.30363 0.063969 0.1415 0.042075 0.12097 0.070936 0.27798 0.086294 0.3961 0.056626 0.21953 0.069713 0.20619 0.088769 0.18337 0.11593 0.15465 0.13462 0.11128 0.14522 0.057718 0.090721 0.003839 0.11029-0.030192 0.078255-0.04912 0.09751-0.10532 0.091554-0.15311 0.077941-0.17591 0.035211-0.092662 0.072669-0.21496 0.058366-0.19322 0.2345-0.83729 0.085734-0.27 0.095714-0.25177 0.11064-0.22316 0.13178-0.18167 0.16078-0.12395 0.11268-0.0396 0.1244-0.015229 0.23894 0.023045 0.14737 0.036525 0.15454 0.049841 0.2186 0.082872 1.1216 0.45954 0.59392 0.23694 0.4546 0.17342 0.1456 0.04941 0.050547 0.004409 0.081585 0.022337 0.806 0.27417 0.7098 0.22793 0.3656 0.10871 0.3656 0.10021 0.33275 0.080466 0.2931 0.058315 0.26666 0.039948 0.29689 0.028153 0.29524 0.013623 0.29332 0.002354 0.5803-0.019354 0.52844-0.036414 0.76675-0.072843 0.41219-0.051607 0.47305-0.080795 0.69785-0.14961 0.23948-0.037758 0.24661-0.02267 0.48165-0.033583 0.23411-0.035393 0.22525-0.058521 0.50881-0.1607 0.22588-0.058003 0.233-0.047063 0.24367-0.035727 0.24795-0.024582 0.17755-0.0116 0.42596-0.013196 0.24701-1.89e-4 0.39196 0.010549 0.43425 0.030101 0.26523 0.030096 0.18826 0.029847 0.19784 0.047689 0.19649 0.064753 0.14964 0.060695 0.14707 0.070087 0.14202 0.078754 0.13792 0.087864 0.18281 0.13526 0.21059 0.18013 0.27556 0.26675 0.10883 0.11808 0.12572 0.1484 0.099694 0.13001 0.14178 0.21028 0.12356 0.21092 0.059308 0.11181 0.12958 0.27262 0.15174 0.37303 0.27141 0.77312 0.22594 0.62053 0.089015 0.27468 0.073229 0.27772 0.041218 0.2061 0.031305 0.2066 0.076931 0.77076 0.043115 0.23776 0.076993 0.25342 0.10465 0.24864 0.12608 0.24491 0.1422 0.24208 0.15397 0.24005 0.16217 0.23869 0.57544 0.8158 0.1815 0.26569 0.27375 0.42212 0.11955 0.20028 0.31319 0.57232 0.1859 0.29797 0.23673 0.31877 0.18765 0.22401 0.5058 0.55659 0.13598 0.16631 0.099041 0.13621 0.33089 0.49464 0.24743 0.38511 0.12572 0.21298 0.079839 0.15647 0.067886 0.15952 0.055214 0.16367 0.055192 0.23097 0.081354 0.47772 0.061821 0.30254 0.075593 0.30435 0.086818 0.30316 0.096328 0.29882 0.10498 0.29095 0.080298 0.19814 0.091388 0.18988 0.08757 0.14966 0.17268 0.25548 0.24385 0.32659 0.37316 0.46997 0.21344 0.23745 0.088024 0.086797 0.21495 0.19241 0.22575 0.18322 0.69163 0.52673 0.21916 0.17732 0.20471 0.18277 0.53586 0.54304 0.55526 0.51371 0.12294 0.13025 0.077409 0.097823 0.050419 0.074338 0.055165 0.096768 0.072304 0.16914 0.044363 0.14133 0.17968 0.65542 0.16975 0.54902 0.09558 0.28343 0.10398 0.28554 0.091395 0.23091 0.098899 0.22937 0.10766 0.22655 0.12806 0.24155 0.1387 0.23678 0.16397 0.25577 0.17402 0.2501 0.18319 0.24423 0.19218 0.23773 0.21773 0.24838 0.22776 0.23935 0.24153 0.23348 0.25096 0.2226 0.26033 0.21022 0.24022 0.17639 0.96228 0.6555 0.17475 0.13105 0.2086 0.17595 0.18475 0.18303 0.15448 0.18937 0.1157 0.19529 0.050093 0.12693 0.036504 0.1287 0.032017 0.15691 0.021353 0.19639 0.032088 0.42773 0.002148 0.18706-0.011097 0.1178-0.02472 0.11316-0.059315 0.15626-0.085664 0.14555-0.099823 0.13218-0.10852 0.12415-0.12496 0.1273-0.14104 0.12796-0.13152 0.10621-0.1073 0.077625-0.11566 0.074588-0.11149 0.062706-0.15477 0.073607-0.1126 0.04529-0.15797 0.051547-0.15394 0.038035-0.47408 0.10222-0.47819 0.09698-0.13338 0.035645-0.080919 0.02872-0.13994 0.06967-0.10251 0.07736-0.06001 0.068131-0.024875 0.039351-0.020271 0.043287-0.017406 0.061532 0.008581 0.18147 0.073529 0.20167 0.12157 0.21646 0.15661 0.22713 0.18174 0.2347 0.19936 0.23996 0.43014 0.48934 0.88849 0.9907 0.2112 0.24683 0.2 0.24555 0.18387 0.2437 0.16131 0.24117 0.13349 0.24836 0.08068 0.252 0.014153 0.23162-0.032127 0.23599-0.067098 0.23604-0.066042 0.17037-0.066894 0.17354-0.036921 0.20629-3.97e-4 0.26765 0.20367 0.29884 0.2514 0.13217 0.33529 0.095753 0.22309 0.045998 0.21244-0.003104 0.18464-0.13357 0.1512-0.18208 0.12986-0.19054 0.093173-0.18028 0.15794-0.36859 0.10781-0.21034 0.11032-0.16316 0.12342-0.15931 0.15313-0.1902 0.16135-0.18814 0.17145-0.17686 0.18419-0.15537 0.079566-0.054655 0.20938-0.10931 0.2201-0.065468 0.082755-0.01183 0.1083-0.00677 0.13826 0.002033 0.11509 0.008076 0.2514 0.030347 0.19142 0.03667 0.4021 0.09354 0.090945 0.016587 0.16627 0.01986 0.3631 0.011646 0.25278 0.014813 0.83062 0.10065 0.19973 0.019745 0.60227 0.033314 0.27432 0.006251 0.56651-0.020722 0.75748 0.002702 0.26528 0.015466 0.29359 0.04992 0.29972 0.08134 0.30549 0.10582 0.31106 0.12489 0.31649 0.13978 0.32172 0.15139 0.65381 0.32593 0.65721 0.34232 0.62758 0.3362 0.69136 0.38161 0.28379-0.056358 0.58919-0.09041 2.1603-0.28354 0.70773-0.103 0.68587-0.11615 0.33354-0.065216 0.65043-0.13761 0.27414-0.048697 0.27016-0.032522 0.26599-0.008581 0.24389 0.019239 0.23881 0.04292 0.2066 0.055178 0.19978 0.070506 0.22279 0.10274 0.20626 0.12634 0.099543 0.07612 0.17693 0.16493 0.13204 0.15213 0.16316 0.24492 0.079712 0.16858 0.059507 0.16717 0.051755 0.19979 0.031205 0.17126 0.026431 0.22967 0.010784 0.19949 1.17e-4 0.22509-0.011176 0.21123-0.016813 0.16785-0.024144 0.16766-0.049272 0.24467-0.037093 0.14445-0.056461 0.18643-0.062085 0.17684-0.10918 0.26989-0.11283 0.2464-0.12196 0.2433-0.20705 0.37766-0.21304 0.35817-0.22831 0.35838-0.30864 0.45028-0.27102 0.36334-0.27991 0.3407-0.17344 0.19349-0.16912 0.17655-0.1741 0.17126-0.17845 0.16622-0.22414 0.19758-0.22777 0.1915-0.72515 0.5873-0.23774 0.2081-0.24631 0.25278-0.09474 0.1177-0.13948 0.21137-0.076862 0.15218-0.061309 0.15863-0.041209 0.14651-0.02887 0.15032-0.024781 0.29539 0.002779 0.30109 0.034382 0.74571-0.007261 0.30958-0.013541 0.1494-0.02836 0.20158-0.039202 0.20128-0.062479 0.24621-0.076315 0.24439-0.10574 0.28694-0.11924 0.28336-0.21928 0.45631-0.23824 0.44419-0.26857 0.47259-0.12087 0.2016-0.14346 0.22108-0.14948 0.19771-0.1606 0.16497-0.10992 0.082231-0.11863 0.061018-0.22002 0.050065-0.24295-0.001891-0.22944-0.032929-0.23943-0.053525-0.2466-0.067086-0.7642-0.22381-0.25738-0.063717-0.25386-0.048112-0.24784-0.025503-0.25212 0.005531-0.23636 0.043925-0.2138 0.088517-0.19288 0.14379-0.11802 0.12302-0.11526 0.14615-0.091656 0.13497-0.11069 0.1855-0.12703 0.25015-0.30628 0.73292-0.18577 0.39168-0.10057 0.19069-0.13317 0.23296-0.12053 0.19297-0.19681 0.27789-0.19865 0.24142-0.15212 0.16932-0.17521 0.18445-0.23224 0.22566-0.24912 0.22181-0.29809 0.24748-0.89179 0.69457-0.26948 0.23121-0.18994 0.19335-0.10983 0.14337-0.095337 0.15127-0.08077 0.14666-0.39367 0.75329-0.091983 0.1857-0.19732 0.4258-0.1064 0.19274-0.1254 0.18876-0.14592 0.18141-0.23475 0.23226-0.26873 0.21532-0.2955 0.20082-0.316 0.18701-0.33031 0.17192-0.33748 0.15322-0.33507 0.12828-0.31855 0.094396-0.28022 0.04981-0.20528 1.29e-4 -0.080866-0.038665 0.001641 0.072555-0.055146 0.10301-0.065237 0.084732-0.047251 0.051917-0.58561 0.55755-0.86836 0.80324-0.59814 0.56642-0.31641 0.3125-0.24819 0.2655-0.1929 0.24116-0.070396 0.10838-0.064948 0.12784-0.037602 0.1092-0.024954 0.13984-3.26e-4 0.1409 0.029847 0.16774 0.052755 0.1714 0.18552 0.50775 0.086777 0.27746 0.069341 0.30529 0.050189 0.3185 0.035838 0.32769 0.025457 0.33372 0.061292 1.3461 0.02044 0.32712 0.029903 0.31701 0.044641 0.30219 0.066196 0.28117 0.096613 0.25203 0.13853 0.21231 0.14558 0.13355 0.086428 0.058822 0.15627 0.082043 0.11247 0.045205 0.16356 0.053125 0.58238 0.1571 0.29667 0.099532 0.29336 0.12326 0.28386 0.14907 0.25326 0.1631 0.41553 0.29998 0.55232 0.41798 0.40984 0.33037 0.19196 0.17463 0.17818 0.19948 0.098763 0.16545 0.051692 0.14091 0.031624 0.21822-0.0031 0.13116-0.016659 0.13274-0.037205 0.16539-0.053472 0.16392-0.056099 0.13396-0.066684 0.12967-0.10044 0.15462-0.12234 0.14491-0.15347 0.15045-0.33088 0.30182-0.10931 0.10994-0.18685 0.21181-0.11933 0.15463-0.1237 0.18232-0.10192 0.17658-0.08616 0.18297-0.074902 0.21812-0.033641 0.15754-0.015673 0.1884 0.007867 0.16181 0.014481 0.10099 0.062352 0.24727 0.085798 0.23315 0.083982 0.19329 0.1641 0.34523 0.20177 0.38751 0.076624 0.13064 0.076573 0.11939 0.030099 0.038109 0.23752-0.037701 0.38007-0.041391 0.39853-0.023398 0.25984-0.002369 0.3147 0.012117 0.26002 0.023683 0.38786 0.054404 0.19962 0.037532 0.14596 0.034167 0.18216 0.054659 0.14039 0.053634 0.14076 0.067733 0.19384 0.1252 0.095502 0.076536 0.14203 0.13431 0.13674 0.14864 0.14141 0.16743 0.46701 0.578 0.087657 0.11445 0.10863 0.16532 0.039341 0.076811 0.032643 0.081851 0.037091 0.15871 0.047445 0.31828 0.063683 0.18785 0.098948 0.18429 0.096181 0.13492 0.2517 0.3196 0.12078 0.18174 0.24477 0.42395 0.40541 0.73704 0.25009 0.42802 0.20437 0.33386 0.3903 0.59305 0.12814 0.22454 0.14781 0.298 0.14572 0.32638 0.13088 0.33991 0.067129 0.21833 0.047583 0.22339 0.018281 0.13413 0.01564 0.2112 0.007902 0.25277 0.01147 0.1696 0.028165 0.16682 0.049384 0.1542 0.069493 0.14896 0.060795 0.10458 0.11278 0.16518 0.12652 0.15403 0.13838 0.13662 0.14902 0.11183 0.13397 0.068971 0.099925 0.032612 0.09967 0.017351 0.058413 0.002911 0.19561-0.028302 0.093884-0.029795 0.15-0.068137 0.088122-0.048832 0.41638-0.26103 0.14515-0.085471 0.23761-0.12542 0.17429-0.085032 0.2219-0.098984 0.42714-0.17932 0.63372-0.2322 0.1951-0.076504 0.33149-0.14072 0.24353-0.1138 0.10918-0.055993 0.21612-0.12467 0.85962-0.53944 0.20042-0.11649 0.27204-0.14372 0.18254-0.083489 0.17926-0.068354 0.065922-0.020866 0.22084-0.046882 0.13414-0.008849 0.1306 0.008556 0.15247 0.03554 0.14302 0.06037 0.067496 0.038572 0.037299 0.024418 0.15085 0.12178 0.04306 0.040992 0.3117 0.33905 0.11278 0.10447 0.065401 0.052122 0.073931 0.049637 0.11805 0.060427 0.15794 0.054186 0.18031 0.036639 0.20563 0.019551 0.13044 0.002966 0.13553-0.004649 0.1425-0.014902 0.11333-0.021203 0.11816-0.032977 0.11998-0.046602 0.15618-0.081578 0.18067-0.11954 0.17314-0.13354 0.61316-0.53131 0.25494-0.19644 0.20508-0.13352 0.22613-0.11516 0.21569-0.070056 0.18013-0.025153 0.1851-0.001003 0.26526 0.02783 0.6518 0.11799 0.6483 0.092968 0.17518 0.032872 0.13056 0.030573 0.14084 0.040596 0.14211 0.051198 0.11047 0.048798 0.19138 0.10806 0.23438 0.18503 0.20543 0.21596 0.17458 0.22775 0.13582 0.21227 0.077642 0.14388 0.02768 0.075863 0.19735 0.033467 0.44757 0.063608 0.42622 0.048579 0.4143 0.034554 0.37407 0.016916 0.18731 0.001989 0.34895-0.010565 0.20332-0.016372 0.21327-0.029662 0.16917-0.036971 0.32207-0.098807 0.21246-0.077338 0.65623-0.2681 0.45414-0.17404 0.24638-0.088293 0.20676-0.063848 0.18701-0.046189 0.19042-0.031881 0.17946-0.012019 0.19152 0.011341 0.23274 0.053427 0.2264 0.089619 0.22925 0.12296 0.27172 0.18319 0.19084 0.1557 0.49808 0.47789 0.25654 0.22412 0.28692 0.22311 0.13535 0.09445 0.23999 0.153 0.24531 0.14054 0.21811 0.11326 0.5807 0.276 0.30707 0.12304 0.85545 0.29919 0.32906 0.13588 0.3178 0.15408 0.15064 0.085134 0.15397 0.097605 0.61502 0.44966 0.21706 0.13425 0.11344 0.05769 0.15761 0.063036 0.11976 0.036441 0.23815 0.049564 0.16845 0.020369 0.1759 0.012919 0.6677 0.032417 0.32139 0.020865 0.36953 0.034602 0.29845 0.04147 0.23767 0.04732 0.1629 0.048038 0.11455 0.049265 0.11735 0.07365 0.05951 0.057978 0.021989 0.031359 0.022048 0.050114 0.006967 0.040272-0.003411 0.053862-0.010867 0.042155-0.022559 0.055825-0.048564 0.087027-0.073622 0.10111-0.089627 0.10435-0.5598 0.59697-0.30325 0.35664-0.19602 0.2627-0.081059 0.12503-0.1101 0.19898-0.077706 0.1718-0.088683 0.25686-0.082236 0.32719-0.046464 0.24063-0.10319 0.60216-0.065355 0.29896-0.087198 0.31807-0.19137 0.61142-0.040471 0.16514-0.019753 0.11235-0.013891 0.15494 0.004912 0.18719 0.025408 0.17366 0.019206 0.076299 0.037112 0.1111 0.055573 0.12377 0.055181 0.097631 0.069007 0.10454 0.23862 0.33113 0.08849 0.14105 0.087556 0.1593 0.082725 0.17727 0.049642 0.12637 0.045779 0.1436 0.04352 0.18201 0.020957 0.12902 0.014239 0.17105 0.00159 0.15168-0.007184 0.16146-0.026105 0.27123-0.092657 0.70166-0.015969 0.18238-0.005546 0.16159 0.006539 0.16545 0.017347 0.13618 0.017191 0.083479 0.057175 0.1805 0.045948 0.10443 0.073491 0.13486 0.058799 0.091975 0.1482 0.19954 0.23831 0.27653 0.19836 0.20106 0.088073 0.080481 0.10319 0.08769 0.19309 0.14686 0.5519 0.36872 0.23171 0.14352 0.12027 0.067688 0.23061 0.11322 0.30051 0.11866 0.22169 0.069654 0.24454 0.063083 0.58046 0.12997 0.31056 0.088489 0.61142 0.19198 0.16645 0.043594 0.29719 0.058051 0.26928 0.028398 0.22608 0.005408 0.17998-0.004685 0.64464-0.042748 0.21555-0.009043 0.23023 0.00319 0.24618 0.03076 0.2133 0.067482 0.11477 0.061271 0.1725 0.13232 0.1319 0.13787 0.093588 0.12004 0.11563 0.17817 0.080247 0.14605 0.061331 0.12582 0.072671 0.16728 0.066852 0.17339 0.066143 0.19273 0.054227 0.17537 0.10271 0.37725 0.090353 0.38419 0.080699 0.38703 0.11502 0.61443 0.071872 0.43084 0.0772 0.51948 0.033293 0.26069 0.044826 0.47032 0.033865 0.75684 0.00397 0.21767-0.003531 0.22332-0.012293 0.26195-0.019784 0.26638-0.032367 0.32549-0.04072 0.32824-0.048938 0.32932-0.057793 0.32841-0.068169 0.32637-0.0575 0.23548-0.065423 0.23281-0.34453 1.023-0.13404 0.36596-0.085808 0.21617-0.19641 0.46679-0.13506 0.30236-0.3761 0.80951-0.20591 0.47885-0.080113 0.2115-0.070503 0.21265-0.078528 0.3086-0.027105 0.16222-0.016759 0.16884-0.004063 0.30356 0.021854 0.30646 0.027878 0.2238 0.075665 0.45034 0.19831 0.97908 0.10463 0.56625 0.039866 0.28298 0.025857 0.27428 0.00901 0.2738-0.011979 0.27656-0.039158 0.31658-0.061014 0.31464-0.081172 0.32441-0.095239 0.3222-0.076517 0.23286-0.16948 0.46039-0.094917 0.23072-0.10165 0.22731-0.10962 0.22298-0.080466 0.14971-0.085314 0.14684-0.12675 0.19894-0.13184 0.19072-0.56153 0.76941-0.18138 0.27199-0.14996 0.24723-0.13748 0.25263-0.14011 0.29896-0.097371 0.25166-0.077863 0.23502-0.14407 0.4728-0.11887 0.34994-0.11074 0.26211-0.1345 0.25329-0.074914 0.11924-0.13162 0.18502-0.14342 0.17864-0.15996 0.18157-0.40307 0.41639-0.42522 0.41915-0.33733 0.34448-0.27236 0.30403-0.11686 0.14345-0.11443 0.15271-0.1849 0.28116-0.095181 0.166-0.085456 0.16651-0.080343 0.17938-0.066287 0.17745-0.041563 0.14004-0.029626 0.13708-0.016092 0.13668 7.67e-4 0.13171 0.030268 0.15992 0.055277 0.12756 0.09089 0.13591 0.11454 0.13025 0.12218 0.11852 0.13323 0.11883 0.67033 0.58647 0.75946 0.70836 0.19518 0.17117 0.26128 0.20161 0.16862 0.11318 0.65015 0.40623 0.29142 0.20269 0.15069 0.11366 0.14635 0.11796 0.22899 0.20491 0.15961 0.16285 0.11532 0.12893 0.21756 0.26802 0.11847 0.15963 0.20427 0.29777 0.12957 0.20908 0.48117 0.85855 0.20878 0.40533 0.14397 0.30827 0.23351 0.52837 0.10857 0.27765 0.054291 0.17508 0.099614 0.48325 0.036643 0.1418 0.064794 0.14804 0.064087 0.088918 0.079624 0.075853 0.12777 0.081406 0.16473 0.076417 0.19585 0.078117 0.45621 0.15883 0.16427 0.071498 0.03947 0.02255 0.011162 0.011626 0.001242 0.008724 0.034972 0.064846 0.073112 0.088033 0.12673 0.12262 0.28706 0.21684 0.37264 0.26198 0.17063 0.1054 0.17756 0.093115 0.27014 0.11715 0.49166 0.18066 0.23142 0.10681 0.23188 0.12551 0.23182 0.13975 0.41165 0.27427 0.19771 0.14123 0.39158 0.29402 0.43498 0.34668 0.45894 0.38944 0.47323 0.4291 0.24105 0.2349 0.17826 0.18566 0.16935 0.19074 0.15861 0.19774 0.14495 0.20515 0.1104 0.1805 0.097923 0.18626 0.082989 0.18654 0.072052 0.19034 0.090915 0.28635 0.14182 0.50778 0.065664 0.21588 0.07481 0.20832 0.12492 0.26494 0.14612 0.21944 0.13793 0.15636 0.11687 0.1122 0.42128 0.35921 0.1883 0.17755 0.098024 0.1098 0.088484 0.11745 0.12158 0.21349 0.060332 0.14802 0.047562 0.15525 0.048728 0.23309 0.029611 0.24283 0.013778 0.23678 0.002977 0.24183-0.004664 0.22471-0.026372 0.45495-0.029927 0.31771-0.038543 0.31631-0.044705 0.29655-0.053678 0.29072-0.048726 0.21789-0.0571 0.21102-0.067818 0.20214-0.084676 0.19781-0.10247 0.18245-0.12422 0.16326-0.10161 0.10092-0.19012 0.14601-0.21184 0.1265-0.13957 0.069883-0.28622 0.12093-0.23599 0.084413-0.2936 0.091191-0.2997 0.08016-0.23646 0.055398-0.45437 0.09034-0.21625 0.036308-0.40172 0.055799-0.33477 0.032725-0.19156 0.011875-0.70211 0.01495-0.19512 0.007256-0.24253 0.019977-0.22866 0.038341-0.21066 0.064468-0.081931 0.036702-0.11804 0.066845-0.079178 0.055209-0.082126 0.067272-0.086053 0.081999-0.25765 0.28523-0.3478 0.35093-0.18047 0.20724-0.15776 0.21458-0.10204 0.16308-0.4335 0.82939-0.03738 0.062939-0.077839 0.11098-0.066246 0.07845-0.094158 0.092356-0.071736 0.058063-0.080998 0.055529-0.12071 0.067957-0.1286 0.058183-0.20129 0.068705-0.12854 0.030807-0.19734 0.026763-0.14456 0.003695-0.27727-0.018355-0.95669-0.1028-0.13221-0.008882-0.21773 1.3e-4 -0.083813 0.007909-0.12737 0.025093-0.14656 0.054398-0.13321 0.071048-0.092962 0.058217-0.10235 0.075611-0.066263 0.058902-0.086756 0.098346-0.032801 0.051445-0.033648 0.068625-0.033919 0.098123-0.034033 0.16404-0.023601 0.25254 0.003164 0.11112 0.021141 0.13075 0.01777 0.073388 0.066661 0.22348 0.060138 0.15727 0.075816 0.1579 0.16264 0.30338 0.28416 0.50159 0.024025 0.059321 0.007074 0.045441-0.007091 0.016906-0.019146 0.009092-0.023706-1.65e-4 -0.075582-0.022432-0.11281-0.054124-0.17472-0.1021-0.19043-0.13027-0.75926-0.59967-0.6476-0.48481-0.19777-0.15454-0.1872-0.15983-0.17463-0.16695-0.3258-0.34568-0.41489-0.45758-0.13355-0.12755-0.092331-0.074543-0.11885-0.079734-0.11342-0.063616-0.13465-0.064639-0.37629-0.16344-0.21542-0.10008-0.12931-0.069499-0.11552-0.078483-0.072143-0.073732-0.026322-0.042475-0.021571-0.053436-0.012248-0.070686-0.011643-0.19585-0.020233-0.072089-0.020672-0.035735-0.056301-0.059913-0.077021-0.059043-0.043107-0.023848-0.053838-0.019601-0.084426-0.013405-0.098551 3.28e-4 -0.18718 0.026613-0.43838 0.086784-0.1074 0.016012-0.11306 0.009655-0.096224-9.38e-4 -0.085487-0.014095-0.032727-0.011204-0.087662-0.056492-0.072438-0.085127-0.025536-0.037538-0.2373-0.38178-0.092854-0.16358-0.040221-0.086085-0.059001-0.15578-0.098661-0.35566-0.056677-0.16368-0.074257-0.15836-0.092946-0.14414-0.063294-0.073108-0.074041-0.065014-0.11466-0.072087-0.104-0.04889-0.27613-0.10009-0.17928-0.048393-0.14158-0.023877-0.19233-0.002102-0.082123 0.012542-0.097275 0.026957-0.095738 0.038187-0.12026 0.061341-0.14381 0.087386-0.15494 0.10455-0.55719 0.4104-0.28499 0.19296-0.163 0.097673-0.14984 0.080409-0.17585 0.07783-0.081563 0.027116-0.14122 0.026391-0.11756-0.005669-0.10722-0.026876-0.2369-0.092437-0.15905-0.03823-0.12621-0.013964-0.44313-0.030753-0.11772-0.004021-0.15966 0.004616-0.095681 0.010343-0.19889 0.039901-0.17287 0.05491-0.096447 0.038835-0.15606 0.075448-0.21075 0.12904-0.15346 0.11842-0.16423 0.17201-0.063331 0.091483-0.064616 0.12071-0.045225 0.11429-0.041284 0.15744-0.017866 0.12784-0.005224 0.1214 0.004447 0.11355 0.014529 0.12795 0.020942 0.11962 0.12012 0.50084 0.13376 0.59042 0.062208 0.22384 0.056907 0.1706 0.066335 0.17354 0.10661 0.25165 0.018011 0.070809-0.003248 0.010475-0.017346-0.002294 0.009418 0.023501-0.003209 0.018117-0.022579 0.035501-0.050715 0.045809-0.14244 0.087325-0.13443 0.059376-0.11201 0.037579-0.16262 0.042058-0.18637 0.036862-0.3808 0.060119-0.37791 0.072381-0.16988 0.043255-0.18928 0.064153-0.17523 0.076479-0.18619 0.10107-0.12203 0.08074-0.10291 0.076145-0.13191 0.11544-0.083382 0.096312-0.033066 0.049806-0.058479 0.119-0.042299 0.14502-0.015882 0.13073-0.012212 0.2854 0.001978 0.23774 0.018286 0.19587 0.012035 0.073087 0.074764 0.31144 0.028269 0.15678 0.006956 0.096305-0.00488 0.16662-0.020329 0.15644-0.038602 0.16674-0.048527 0.12734-0.24502 0.49536-0.15554 0.37129-0.0845 0.17082-0.17998 0.31439-0.29225 0.4021-0.066026 0.10195-0.14785 0.27927-0.06782 0.11623-0.081068 0.12043-0.15325 0.18492-0.46645 0.48828-0.084217 0.10143-0.083923 0.12219-0.080117 0.16176-0.047983 0.16454-0.02245 0.15482-0.007262 0.15802 0.011953 0.46298-0.001855 0.10977-0.014638 0.17769-0.04726 0.33457-0.031567 0.4057-0.019899 0.11212-0.055457 0.18427-0.068477 0.16776-0.044227 0.077639-0.02019 0.010118-0.030951 0.081119-0.002122 0.078713 0.008927 0.092783 0.033683 0.16095 0.047489 0.15007 0.095816 0.22542 0.095553 0.18386 0.13262 0.22062 0.12905 0.18684 0.25597 0.3467 0.17808 0.26942 0.083688 0.1404 0.13139 0.24623 0.10478 0.2416 0.063973 0.2049 0.023703 0.11144 0.016784 0.13227 0.004417 0.12142-0.004875 0.11995-0.013004 0.11385-0.018342 0.1014-0.054406 0.19559-0.081522 0.1954-0.10231 0.18553-0.13022 0.19424-0.08646 0.1129-0.092542 0.10881-0.49853 0.52549-0.23517 0.27401-0.25037 0.32631-0.20911 0.29225-0.1302 0.19562-0.33524 0.53164-0.20288 0.29023-0.14064 0.17566-0.14662 0.16503-0.12141 0.12177-0.11242 0.099156-0.076668 0.058175-0.083772 0.053162-0.12462 0.059876-0.10203 0.034492-0.1857 0.035915-0.64946 0.047552-0.2594 0.031549-0.12668 0.025432-0.23308 0.062105-0.24016 0.075863-0.46548 0.1796-0.20217 0.071715-0.12526 0.035744-0.10092 0.02224-0.13825 0.020062-0.16978 0.012255-0.218 0.003138-0.18928-0.008262-0.13703-0.015406-0.1447-0.026722-0.19571-0.05579-0.54739-0.19236-0.18941-0.031328-0.13494 0.005781-0.1379 0.028058-0.207 0.077659-0.20788 0.11157-0.74539 0.48761-0.2418 0.151-0.2945 0.17197-0.31535 0.16791-0.16109 0.079521-0.38037 0.17148-0.38242 0.15085-0.21204 0.068331-0.20964 0.055637-0.22696 0.049051-0.30111 0.051437-0.25174 0.03221-0.27624 0.021353-0.37408 0.012536-0.15048 0.017191-0.16035 0.031774-0.16677 0.048959-0.13816 0.053845-0.14003 0.064904-0.2135 0.11336-0.63262 0.36694-0.54147 0.2944-0.43254 0.21469-0.36046 0.16906-0.24494 0.1267-0.1236 0.074231-0.20235 0.14464-0.33091 0.26521-0.39619 0.29733-0.13903 0.092056-0.062467 0.035275-0.055689 0.026911-0.0838 0.030366-0.12696 0.017244-0.080294-0.007416-0.17107-0.033964-0.058243-0.00595-0.07601-0.001095-0.11595 0.012634-0.14614 0.043595-0.067605 0.032773-0.10496 0.065308-0.074332 0.054599-0.60299 0.50427-0.21726 0.16158-0.33622 0.20867-0.17128 0.11866-0.099479 0.084134-0.13738 0.1394-0.1266 0.15462-0.1273 0.18574-0.10138 0.18478-0.042096 0.098391-0.039539 0.11308-0.13203 0.46622-0.18348 0.56213-0.11368 0.39777-0.10563 0.32634-0.092636 0.25225-0.16773 0.42785-0.21973 0.51964-0.16531 0.36305-0.14698 0.30294-0.089193 0.17008-0.097363 0.16928-0.1158 0.17579-0.13507 0.17566-0.086979 0.10036-0.15068 0.15608-0.141 0.13054-0.098067 0.082462-0.18549 0.1373-0.091429 0.058979-0.14912 0.084384-0.12176 0.058191-0.14156 0.056556-0.17548 0.056657-0.17331 0.042789-0.13487 0.025437-0.2874 0.035972-0.26985 0.016504-0.85755 0.016663-0.21847 0.01571-0.23618 0.031241-0.16026 0.030553-0.231 0.057542-0.17734 0.054927-0.27461 0.10469-0.33617 0.15439-0.33582 0.17622-0.18041 0.11059-0.11608 0.08092-0.068363 0.052545-0.13446 0.11758-0.15672 0.16969-0.12129 0.16427-0.078607 0.12406-0.072794 0.12955-0.075586 0.16269-0.036074 0.10132-0.020532 0.076417-0.015184 0.094683-4.93e-4 0.056973 0.00625 0.032979 0.008509 0.015178 0.012773 0.011112 0.054601 0.022248 0.048949 0.045315 0.05701 0.066725 0.082107 0.11676 0.080113 0.13854 0.0679 0.1447 0.0521 0.14286 0.040786 0.16427 0.01587 0.11208 0.00621 0.1779-0.027731 0.23518-0.036543 0.13802-0.078913 0.19116-0.08561 0.14331-0.073743 0.096564-0.17611 0.17877-0.13504 0.10818-0.15361 0.10508-0.53578 0.30868-0.15333 0.099831-0.13431 0.10469-0.11425 0.10874-0.13327 0.16387-0.11329 0.20155-0.045091 0.11746-0.035474 0.13865-0.017617 0.14187-0.001912 0.084886 0.00805 0.11262 0.032925 0.15442 0.041872 0.11083 0.058412 0.10643 0.075026 0.09816 0.037545 0.03942 0.1019 0.08753 0.075973 0.054053 0.1452 0.089174 0.63719 0.33716 0.23593 0.14388 0.2008 0.13408 0.25142 0.17945 0.32391 0.25019 0.21231 0.18753 0.1918 0.2044 0.16088 0.20454 0.25571 0.36637 0.20638 0.31187 0.13054 0.20854 0.10543 0.18162 0.1792 0.34919 0.23783 0.5333 0.14434 0.30756 0.0931 0.17826 0.11714 0.20216 0.089901 0.1404 0.12289 0.17495 0.087041 0.11468 0.29703 0.36518 0.07505 0.10263 0.054403 0.089311 0.042245 0.094126 0.025259 0.098908 0.007054 0.085846-0.00441 0.079924-0.036364 0.18534-0.09365 0.35704-0.039195 0.21437-0.024113 0.25924-0.022788 0.41061-0.054847 0.62918-0.008534 0.38881 0.014033 0.64797-0.001188 0.20653-0.018285 0.28838-0.059995 0.58054-0.006382 0.20124 0.006051 0.15815 0.035947 0.22519 0.025988 0.095237 0.031765 0.096342 0.076548 0.19448 0.071138 0.15687 0.15389 0.30532 0.30266 0.5423 0.078368 0.15044 0.044116 0.09571 0.051245 0.13073 0.02892 0.09198 0.023197 0.095569 0.019846 0.12625 0.007891 0.17926-0.006431 0.1132-0.021141 0.16227-0.061765 0.33666-0.014621 0.10704-0.00618 0.098254 0.005058 0.10435 0.011617 0.067256 0.018012 0.066545 0.034995 0.092906 0.060668 0.12137 0.0703 0.11573 0.1609 0.24233 0.075026 0.12894 0.039498 0.091404 0.019534 0.084475 0.001357 0.054559-0.006124 0.047208-0.025832 0.080039-0.023284 0.0441-0.037545 0.050578-0.038547 0.034371-0.042746 0.020928-0.021933 0.040999-0.060316 0.051851-0.095272 0.065085-0.17938 0.099849-0.15333 0.070447-0.14596 0.057865-0.143 0.04877-0.20397 0.056046-0.28009 0.051994-0.30345 0.025875-0.19392-1.39e-4 -0.25633-0.022231-0.44455-0.077291-0.17506-0.021728-0.11948-0.003236-0.10476 4e-3 -0.72133 0.048973-0.90875 0.090175-0.56664 0.031414-0.23137 0.026497-0.23114 0.060787-0.18759 0.071225-0.13929 0.065774-0.081373 0.044868-0.16628 0.10473-0.068621 0.049429-0.10559 0.087063-0.066143 0.062846-0.1145 0.12792-0.065938 0.087936-0.058946 0.091204-0.099899 0.19136-0.31656 0.76929-0.092936 0.19914-0.089113 0.16276-0.087248 0.1273-0.056502 0.066082-0.099377 0.086697-0.11361 0.061026-0.1247 0.035549-0.096984 0.010289-0.14531-0.010102-0.081365-0.019276-0.083513-0.030273-0.070283-0.033834-0.17204-0.11209-0.17342-0.14795-0.19526-0.19522-0.36451-0.37928-0.13472-0.12511-0.084231-0.070429-0.10959-0.081784-0.13116-0.0849-0.15196-0.081457-0.16243-0.064835-0.12328-0.031693-0.12442-0.014234-0.047354-2.44e-4 -0.17822 0.031959-0.10208 0.051375-0.051968 0.038063-0.049772 0.045339-0.064104 0.074164-0.07155 0.10922-0.064136 0.12969-0.049057 0.13016-0.039465 0.14005-0.024013 0.11888-0.015571 0.12156-0.00656 0.13492 0.005157 0.15207 0.070375 0.55242 0.001211 0.094968-0.008348 0.085773-0.030948 0.11574-0.028882 0.063863-0.051085 0.081576-0.11793 0.13148-0.15263 0.127-0.31641 0.23529-0.10131 0.089893-0.098347 0.11291-0.045779 0.072511-0.035364 0.075825-0.04541 0.18428-0.003124 0.17744 0.029306 0.18555 0.049034 0.16852 0.072588 0.17946 0.071001 0.14248 0.080561 0.14183 0.13598 0.21318 0.38083 0.53546 0.12297 0.18475 0.090357 0.16025 0.099664 0.22869 0.044208 0.12673 0.052778 0.19066 0.020964 0.10951 0.013697 0.13663-0.008115 0.19436-0.025457 0.1448-0.039847 0.14405-0.054765 0.14801-0.066658 0.14574-0.10217 0.18406-0.06838 0.10465-0.093245 0.12446-0.16159 0.17537-0.11668 0.10265-0.1254 0.093987-0.19039 0.11796-0.2357 0.11564-0.15714 0.063997-0.15959 0.056625-0.1751 0.053825-0.56876 0.17535-0.13178 0.11794-0.062411 0.16649 2.2e-5 0.18729 0.076334 0.24278 0.1249 0.27746 0.19426 0.27051 0.29832 0.31212 0.15957 0.20115 0.14569 0.15259 0.1377 0.10238 0.11679 0.060479 0.19335 0.067213 0.21934 0.00708 0.13521-0.027635 0.13838-0.045568 0.19337-0.079979 0.46235-0.21284 0.15225-0.064522 0.24348-0.083697 0.24103-0.039914 0.1586 0.010116 0.15294 0.037561 0.079196 0.029795 0.10128 0.049104 0.095673 0.058106 0.075235 0.055251 0.070745 0.062181 0.08805 0.099721 0.081213 0.13135 0.051111 0.11297 0.062543 0.1803 0.092986 0.3497 0.081049 0.34871 0.056494 0.28331 0.06948 0.44243 0.034676 0.3786 0.005898 0.20975-0.007938 0.20436-0.028128 0.20746-0.038591 0.1533-0.065232 0.1853-0.069792 0.16233-0.19532 0.3944-0.22506 0.4108-0.13674 0.22306-0.11447 0.15834-0.12859 0.15248-0.1971 0.20081-0.17564 0.1537-0.22295 0.16633-0.15851 0.10184-0.16016 0.092667-0.60428 0.30827-0.32718 0.17445-0.13937 0.082581-0.14168 0.095163-0.1678 0.13789-0.088286 0.090332-0.09229 0.11511-0.11601 0.18781-0.11484 0.2461-0.23539 0.63608-0.04623 0.10464-0.022143 0.038185-0.019809 0.021156-0.012386 2.99e-4 -0.00836 0.008574-0.031037 0.008194-0.11035 0.004919-0.092095-0.003254-0.18408-0.019872-0.12962-0.024369-0.14525-0.037824-0.11662-0.038738-0.13822-0.055892-0.15171-0.073711-0.23685-0.13937-0.19109-0.13164-0.14942-0.11194-0.56996-0.44861-0.28427-0.21382-0.30504-0.20402-0.21324-0.12707-0.19632-0.1071-0.30488-0.15141-0.2102-0.092824-0.17178-0.067297-0.16232-0.056012-0.29293-0.080035-0.6987-0.15519-0.26848-0.073472-0.14535-0.052511-0.1382-0.068838-0.081108-0.05897-0.059909-0.061853-0.07728-0.12729-0.049399-0.15067-0.01217-0.063459-0.013627-0.1516 0.002569-0.14687 0.014737-0.16338 0.050165-0.3254 0.036228-0.18418 0.058912-0.25223 0.098592-0.34054 0.068961-0.20145 0.075826-0.19726 0.088827-0.20494 0.097826-0.19553 0.34284-0.59037 0.15545-0.25895 0.08996-0.13434 0.078511-0.10692 0.14082-0.17311 0.14309-0.15948 0.49133-0.50197 0.16258-0.18214 0.066314-0.094667 0.040674-0.081232 0.018101-0.059443 0.007529-0.06869-0.008605-0.079438-0.016121-0.056268-0.028035-0.064661-0.061161-0.096872-0.086649-0.10353-0.08288-0.086106-0.30034-0.28503-0.17215-0.17116-0.15881-0.17172-0.10571-0.12386-0.19337-0.2483-0.14151-0.20003-0.092189-0.14889-0.054391-0.10812-0.026701-0.066862-0.027559-0.092674-0.01669-0.086775-0.010992-0.13461 0.00662-0.1619 0.020981-0.15283 0.066182-0.29986 0.17464-0.6266 0.08993-0.36067 0.03344-0.19541 0.013599-0.15877-0.003001-0.15549-0.037286-0.20924-0.076464-0.19693-0.083874-0.13927-0.071604-0.094521-0.11244-0.12516-0.20499-0.1884-0.2087-0.16418-0.2024-0.14542-0.60601-0.40649-0.37194-0.23832-0.51839-0.32207-0.39989-0.23754-0.27191-0.15233-0.30766-0.15631-0.20743-0.091338-0.2095-0.077476-0.21207-0.060204-0.10022-0.021283-0.1669-0.025945-0.16993-0.014389-0.18569-0.002809-0.15538 0.006252-0.56541 0.046083-0.18008 0.009454-0.25668 0.003319-0.2671-0.012267-0.32317-0.039206-0.27989-0.054663-0.96868-0.24568-0.13786-0.031628-0.21293-0.039622-0.090725-0.011733-0.17994-0.012363-0.12395 0.001075-0.14146 0.012432-0.11198 0.019417-0.15731 0.043141-0.14356 0.057683-0.12063 0.065037-0.10407 0.072682-0.092861 0.084331-0.092957 0.11573-0.0614 0.10922-0.039131 0.091934-0.063737 0.20955-0.025989 0.12074-0.033229 0.23975-0.011552 0.30241 0.014776 0.37047 0.071127 0.75081 0.032025 0.43544 0.002605 0.35862-0.011176 0.2024-0.016606 0.16302-0.041433 0.25693-0.046451 0.2114-0.080231 0.30234-0.060263 0.19031-0.058206 0.15609-0.058512 0.13-0.04703 0.086184-0.067083 0.098007-0.03651 0.042512-0.044421 0.043068-0.089067 0.065764-0.071246 0.040116-0.10521 0.047496-0.18482 0.062853-0.55358 0.1474-0.25049 0.088636-0.10567 0.045082-0.27318 0.13551-0.69658 0.41024-0.18618 0.10086-0.1938 0.094481-0.14188 0.061105-0.26388 0.092808-0.21206 0.052649-0.11878 0.018915-0.24622 0.018169-0.15542-7e-6 -0.27905-0.020428-0.15984-0.021709-0.18187-0.032104-0.21594-0.048119-0.15118-0.04003-0.31207-0.10023-0.2458-0.094368-0.60046-0.24828-0.835-0.35774-1.016-0.4018-0.41023-0.17914-0.24588-0.11487-0.48912-0.24307-0.43735-0.23711-0.32872-0.1949-0.28908-0.18775-0.25416-0.1786-0.30472-0.22802-0.24362-0.19959-0.15002-0.1369-0.14542-0.14674-0.13945-0.15865-0.12994-0.1704-0.075681-0.11385-0.05789-0.097797-0.096591-0.19312-0.065774-0.16281-0.044759-0.13332-0.051898-0.19033-0.061888-0.30027-0.048405-0.30466-0.042009-0.33697-0.066051-0.63408-0.048405-0.37554-0.081719-0.48366-0.06396-0.30582-0.091868-0.37512-0.14905-0.5273-0.31442-0.98684-0.21475-0.72097-0.14182-0.54851-0.073771-0.34149 0.04334-0.009125 0.02026-0.051617-0.002954-0.10353-0.027128-0.13683-0.045851-0.16269-0.16006-0.45964-0.39901-1.0468-0.086476-0.24674-0.077688-0.24353-0.071566-0.26203-0.052272-0.25618-0.021641-0.1732-0.006494-0.11215 0.003601-0.16486 0.040204-0.25845 0.078406-0.23449 0.11351-0.21406 0.14969-0.21392 0.22783-0.2756 0.74101-0.82222 0.2303-0.27734 0.11019-0.14394 0.12562-0.17538 0.18632-0.28478 0.18312-0.30072 0.1759-0.31556 0.10033-0.21435 0.043743-0.11215 0.070367-0.23468 0.040228-0.18706 0.044197-0.28794 0.030384-0.33323 0.004267-0.15033-0.004898-0.14994-0.017741-0.14078-0.021395-0.090627-0.053403-0.13961-0.086627-0.14914-0.078404-0.10167-0.088881-0.094255-0.12267-0.10635-0.1056-0.076204-0.17194-0.10527-0.41719-0.22392-0.19823-0.0954-0.082392-0.031211-0.078739-0.021497-0.098904-0.012778-0.1832 0.016093-0.1127 0.028163-0.1518 0.0527-0.1783 0.078359-0.17194 0.0892-0.17726 0.10419-0.2424 0.16147-0.32303 0.23402-0.18529 0.11344-0.12792 0.059606-0.16381 0.063888-0.22264 0.07697-0.26148 0.078255-0.13125 0.030532-0.16413 0.024371-0.12784 7.61e-4 -0.10511-0.020615-0.10379-0.043814-0.067651-0.040427-0.066668-0.050223-0.045975-0.045661-0.042662-0.058255-0.03492-0.070682-0.025704-0.076272-0.020209-0.086656-0.017498-0.12095-0.006572-0.21128 0.013019-0.18755 0.039853-0.27695 0.19098-0.96039 0.062497-0.40039 0.019764-0.18638 0.011837-0.20664-5.54e-4 -0.189-0.007506-0.12816-0.018004-0.16084-0.046369-0.25047-0.069988-0.26723-0.17707-0.60924-0.052997-0.21937-0.06231-0.32774-0.032698-0.22461-0.025114-0.21446-0.035994-0.4641-0.044466-1.0883-0.020193-0.22084-0.050888-0.33022-0.045623-0.20544-0.064544-0.23768-0.22298-0.6736-0.05818-0.19316-0.062969-0.25221-0.050836-0.26095-0.031452-0.21121-0.040673-0.42463-0.036981-0.7255-0.066039-0.92223-0.010426-0.2265-0.002445-0.1874 0.005024-0.18669 0.011229-0.15562 0.053765-0.39344 0.031336-0.16579 0.035584-0.15235 0.057831-0.2039 0.083255-0.24711 0.14254-0.38285 0.26237-0.66769 0.078867-0.18446 0.10617-0.2884 0.30749-0.96402 0.045686-0.22567 0.028879-0.25969 0.037544-0.23235 0.054136-0.23959 0.15266-0.60014 0.019865-0.094316 0.013697-0.15277-0.025058-0.33475-0.01898-0.15098-0.052815-0.29162-0.077098-0.29836-0.30859-0.98943-0.13821-0.5176-0.08246-0.37746-0.31487-1.5563 3.28e-4 -0.058277-0.025055-0.3344-0.11632-1.2057-0.024566-0.41418-0.018669-1.2281 0.005221-0.58129 0.013241-0.37814 0.028289-0.41241 0.063521-0.68834 0.074875-0.94471 0.040344-0.40755 0.040121-0.32895 0.057683-0.39887 0.16154-0.95094 0.027351-0.19832 0.021461-0.2131 0.018192-0.3293 0.023184-0.91244 0.022016-0.50082 0.054054-0.74567 0.13361-1.2896 0.020401-0.41474-0.002222-0.2365-0.014426-0.21899-0.015311-0.12506-0.048632-0.25066-0.11141-0.38921-0.15299-0.44896-0.09697-0.36168-0.15978-0.70033-0.23483-1.1797-0.091022-0.42907-0.083591-0.31601-0.044688-0.13271-0.10197-0.24242-0.093293-0.17741-0.11765-0.18746-0.10637-0.14463-0.14136-0.16422-0.13989-0.13733-0.18026-0.14847-0.18727-0.12887-0.21258-0.12472-0.18195-0.092132-0.31936-0.13668-0.34839-0.12584-0.70683-0.23324-0.23707-0.084257-0.24379-0.093527-0.615-0.25043-1.6174-0.6019-0.44198-0.17223-0.33029-0.14847-0.2013-0.10966-0.19471-0.12894-0.12288-0.098801-0.10111-0.0966-0.11228-0.13047-0.10742-0.14883-0.094465-0.1469-0.17592-0.29759-0.16771-0.30425-0.1743-0.3479-0.10278-0.2327-0.09448-0.24968-0.065146-0.21275-0.049296-0.21639-0.023849-0.15799-0.01175-0.14476 0.002986-0.24688 0.020039-0.22072 0.038182-0.29871-0.019995-0.001065-0.086123 0.018056-0.20693 0.050049-1.8937 0.46911-0.43274 0.094971-0.3466 0.062986-0.40932 0.053755-0.18986 0.015045-0.1842 0.006613-0.168-0.002714-0.16165-0.012858-0.19349-0.03337-0.18049-0.056731-0.11859-0.056424-0.14422-0.093239-0.13354-0.10989-0.16989-0.16625-0.15975-0.17653-0.26597-0.31552-0.47804-0.5922-0.17553-0.20115-0.13356-0.14032-0.19677-0.18561-0.2053-0.17197-0.27146-0.20014-0.25471-0.16472-0.23348-0.12975-0.23754-0.11597-0.22478-0.089754-0.28475-0.087349-0.3636-0.088989-0.92537-0.20766-0.34024-0.059186-0.24337-0.024047-0.20021 1.46e-4 -0.10586 0.011038-0.095134 0.017327-0.12799 0.036477-0.052957 0.020269-0.13924 0.069762-0.14606 0.099588-0.15116 0.12801-0.57816 0.55532-0.14543 0.12661-0.14421 0.11501-0.24792 0.17582-0.19901 0.12551-0.25159 0.13764-0.14258 0.064773-0.17856 0.065557-0.2468 0.064129-0.1923 0.031802-0.17922 0.014969-0.21318 0.002326-0.20901-0.013285-0.20442-0.025647-0.19552-0.035341-0.3386-0.08295-0.44493-0.13213-1.2285-0.3971-0.26528-0.092431-0.15101-0.058704-0.19518-0.08418-0.18738-0.089739-0.74439-0.38098-0.20481-0.108-0.56588-0.31626-0.39323-0.20268-0.30885-0.13936-0.19251-0.064463-0.14486-0.036144-0.27887-0.051015-0.17112-0.022836-0.24705-0.023524-0.2861-0.017536-0.37533 0.003022-0.78754 0.047451-0.19519 0.005315-0.18346-0.003322-0.17874-0.013988-0.26985-0.042596-0.31988-0.071891-0.33894-0.090301-0.35776-0.1144-0.15548-0.057261-0.2976-0.12183-0.5964-0.2653-1.1834-0.49516-0.53053-0.24014-0.38343-0.18886-0.44073-0.23729-0.37252-0.21631-0.63399-0.38113-0.23812-0.12975-0.14587-0.065678-0.080527-0.028608-0.096594-0.024149-0.11139-0.008626-0.060899 0.007268-0.046629 0.012862-0.0963 0.04755-0.076824 0.057641-0.12976 0.13254-0.095012 0.12049-0.12024 0.17498-0.21646 0.34042-0.23491 0.38511-0.3308 0.57015-0.1176 0.21576-0.17187 0.33871-0.53416 1.1254-0.1292 0.30355-0.12966 0.3398-0.10246 0.31279-0.088184 0.34728-0.056254 0.30765-0.052811 0.42046-0.022138 0.26145-0.022709 0.41557-0.022965 1.1668-0.013842 0.34773-0.008256 0.043648 0.016414-0.020956 0.041058-0.019441 0.14429-0.037909 0.18598-0.023693 0.11664-0.004713 0.16994 0.005824 0.21573 0.025056 0.22367 0.042892 0.31707 0.085733 0.26378 0.092233 0.26283 0.11158 0.27496 0.14006 0.19246 0.11544 0.14122 0.096108 0.10823 0.081781 0.12071 0.10155 0.15058 0.14456 0.18128 0.20217 0.099976 0.12502 0.17459 0.23779 0.11764 0.17091 0.17987 0.27233 0.551 0.86695 0.10323 0.19729 0.036709 0.11172 0.025606 0.11866 0.016826 0.12938 0.010415 0.18578-0.003412 0.31215-0.022994 0.58023-0.012663 0.16829-0.026167 0.16369-0.061592 0.22057-0.1304 0.38119-0.13226 0.42476-0.33768 1.1719-0.13157 0.41665-0.072076 0.20447-0.090488 0.23042-0.099255 0.22001-0.09118 0.17381-0.13343 0.21031-0.35477 0.45828-0.34159 0.47196-0.39691 0.47445-0.082332 0.11489-0.1027 0.18716-0.064659 0.19639-0.021008 0.22335 0.020244 0.22308 0.05298 0.26272 0.033085 0.19585 0.014959 0.17617-0.006257 0.18256-0.039718 0.18206-0.034739 0.085837-0.10625 0.18084-0.15954 0.20422-0.49868 0.57009-0.12506 0.1574-0.14117 0.1983-0.10251 0.17121-0.24539 0.50305-0.084547 0.15167-0.091452 0.14501-0.1246 0.16836-0.074495 0.087236-0.31466 0.34139-0.1016 0.12739-0.086839 0.13502-0.048919 0.098688-0.057634 0.15016-0.060272 0.20875-0.13426 0.55262-0.026601 0.16843-0.009377 0.1707 0.012526 0.49706 0.00735 0.15461 0.019384 0.14375 0.028052 0.10245 0.028069 0.06823 0.051581 0.082957 0.051553 0.053246 0.10114 0.061918 0.14932 0.04651 0.19056 0.022179 0.1826-0.001345 0.21722-0.02054 0.25727-0.041053 1.0409-0.22245 0.4158-0.083164 0.52044-0.09077 0.31124-0.045796 0.53546-0.060058 0.3998-0.0246 0.39027-0.001545 0.38501 0.023799 0.1747 0.018049 0.34751 0.047472 0.49974 0.090368 0.55197 0.12107 0.39396 0.099393 0.36471 0.10615 0.17302 0.05781 0.18259 0.070325 0.11464 0.05273 0.099478 0.055823 0.12621 0.10519 0.028932 0.040978 0.024627 0.053405 0.013557 0.065397-0.004565 0.069168-0.053674 0.11555-0.20162 0.23907-0.31464 0.4107-0.084108 0.10245-0.15797 0.16509-0.14695 0.12248-0.20929 0.16304-0.1516 0.13796-0.12887 0.15197-0.10822 0.15992-0.092495 0.1656-0.091279 0.1944-0.065974 0.15915-0.33866 0.9374-0.10241 0.2571-0.05552 0.11813-0.061192 0.11108-0.06021 0.091553-0.13368 0.14745-0.13737 0.098794-0.15841 0.080441-0.17522 0.066246-0.24674 0.07095-0.72495 0.16358-0.23573 0.060449-0.32651 0.10253-0.29297 0.10932-0.29105 0.12289-0.21102 0.0974-0.43504 0.22125-0.22372 0.12296-1.0209 0.58542-0.44434 0.23366-0.17334 0.082207-0.23239 0.099028-0.22808 0.085468-0.7971 0.27038-0.26352 0.087916-0.17834 0.050472-0.17398 0.035727-0.17966 0.016859-0.085045-3.13e-4 -0.16658-0.01635-0.2189-0.051969-0.23775-0.095921-0.20531-0.11561-0.16348-0.10391-0.65376-0.4394-0.25255-0.15172-0.26052-0.12906-0.2815-0.099425-0.28803-0.058636-0.29028-0.012165-0.12194 0.010428-0.20882 0.036138-0.2007 0.050298-0.65303 0.19755-0.25293 0.069399-0.19796 0.046599-0.2124 0.041956-0.24504 0.040323-0.463 0.067598-0.5544 0.089471-0.27613 0.054335-0.21721 0.057977-0.22735 0.090652-0.13729 0.085721-0.12019 0.11748-0.089799 0.13799-0.049869 0.11683-0.039837 0.12477-0.056693 0.22226-0.092646 0.5274-0.15093 0.7496-0.08082 0.36951-0.048514 0.18234-0.052166 0.15436-0.056938 0.11593-0.062999 0.065002-0.052621 0.007363-0.035666-0.017398-0.037819-0.041228-0.043913-0.084608-0.021422-0.058363-0.054386-0.20518-0.099016-0.46293-0.074828-0.28016-0.036033-0.11244-0.075138-0.19201-0.061104-0.12058-0.11417-0.17223-0.29971-0.3758-0.099304-0.15028-0.19383-0.33962-0.072992-0.10282-0.095268-0.10956-0.11976-0.11339-0.073969-0.059198-0.13873-0.09691-0.078607-0.047061-0.15283-0.07398-0.14518-0.050043-0.15332-0.038747-0.27459-0.046594-0.16314-0.016211-0.23426-0.007308-0.24263 0.005224-0.35586 0.02079-0.29734 0.032894-0.18102 0.026747-0.34981 0.063734-0.43698 0.096522-0.77556 0.18605-0.38013 0.074518-0.097746 0.014338-0.22401 0.019901-0.25786-0.013418-0.25504-0.05428-0.079928-0.025627-0.21429-0.084465-0.18439-0.085118-0.23866-0.12104-0.26181-0.1411-0.70706-0.39966-0.23709-0.12816-0.27816-0.1375-0.23487-0.10134-0.25225-0.089291-0.2897-0.075629-0.32686-0.05575-0.17547-0.018897-0.18053-0.010947-0.14395-0.002002-0.23055 0.010347-0.18737 0.021331-0.18461 0.031739-0.16424 0.036408-0.16643 0.04438-0.23881 0.075494-0.82801 0.30035-0.35267 0.13681-0.28448 0.1297-0.15969 0.08887-0.10891 0.070792-0.13265 0.1002-0.11935 0.10792-0.17186 0.19041-0.32262 0.41689-0.24996 0.29855-0.1841 0.19118-0.15475 0.13666-0.14827 0.10861-0.15001 0.091613-0.17686 0.089293-0.11967 0.050879-0.22922 0.079198-0.30779 0.081535-0.31319 0.063051-0.22929 0.03352-0.21878 0.020887-0.22489 0.012239-0.30309 0.003947-0.1736-0.003284-0.34478-0.015079-0.29393-0.020814-0.22795-0.022063-0.28515-0.036903-1.1861-0.20762-0.86946-0.10717-0.226-0.042537-0.17254-0.055186-0.059351-0.045766-0.13802-0.23412-0.13342-0.26678-0.095595-0.23077-0.054726-0.16572-0.031705-0.12446-0.018438-0.097926-0.013528-0.11958 0.002319-0.18804 0.022605-0.13534 0.024523-0.089289 0.039711-0.10899 0.078581-0.16425 0.081905-0.13889 0.10146-0.1487 0.11662-0.1528 0.22439-0.26589 0.53534-0.59571 0.33606-0.38616 0.37349-0.45172 0.17723-0.22738 0.16487-0.22305 0.13434-0.19344 0.1626-0.25644 0.11272-0.20157 0.11978-0.25022 0.10494-0.25738 0.07481-0.20824 0.099749-0.31166 0.078212-0.27628 0.11093-0.45708 0.079795-0.37794 0.27926-1.4814 0.13028-0.63317 0.13305-0.58481 0.0774-0.26342 0.070227-0.17527 0.083555-0.1717 0.083332-0.15016 0.090371-0.14809 0.12132-0.1828 0.19775-0.27278 0.20987-0.25692 0.15258-0.16554 0.1955-0.1911 0.22216-0.19606 0.37561-0.31684 0.18206-0.16549 0.24195-0.25391 0.12536-0.16039 0.095261-0.15322 0.097907-0.22154 0.067738-0.23135 0.034852-0.17857 0.017984-0.1869 6.29e-4 -0.1734-0.007863-0.14822-0.024873-0.24014-0.033423-0.19148-0.031043-0.11487-0.049595-0.12839-0.067831-0.123-0.084375-0.11461-0.13335-0.13343-0.21021-0.13397-0.24843-0.10154-0.27624-0.077338-0.29611-0.05938-0.30993-0.046039-0.31917-0.035994-0.32488-0.028175-0.65626-0.037471-0.65048-0.012839-0.3177 0.004987-0.30923 0.014981-0.29744 0.027574-0.28147 0.043438-0.61078 0.13923-0.17868 0.024587-0.12801-5.43e-4 -0.11954-0.018493-0.16149-0.051405-0.090781-0.041051-0.090914-0.049148-0.1927-0.1284-0.16656-0.1358-0.2004-0.1925-0.19859-0.22121-0.13748-0.17118-0.13554-0.1823-0.46777-0.66423-0.52676-0.69325-0.2009-0.27315-0.11403-0.16514-0.19196-0.30321-0.16874-0.30005-0.096101-0.18642-0.12664-0.26287-0.20416-0.46047-0.19822-0.49107-0.11655-0.31108-0.10392-0.29504-0.15966-0.49015-0.65762-2.2328-0.14174-0.51199-0.077251-0.32851-0.028057-0.15142-0.024241-0.21333-0.001149-0.11246 0.010544-0.10077 0.028816-0.10052 0.038488-0.067999 0.061723-0.057555 0.10847-0.046377 0.40855-0.094792 0.20602-0.066588 0.20596-0.088446 0.19016-0.11318 0.1354-0.10254 0.12726-0.11174 0.095875-0.093089 0.158-0.17389 0.0989-0.14549 0.08628-0.15949 0.077232-0.16785 0.063276-0.15514 0.05263-0.15825 0.055904-0.24762 0.037921-0.20466 0.033311-0.25722 0.01162-0.24205-0.001033-0.17842-0.011386-0.21264-0.017097-0.17024-0.04568-0.28729-0.052361-0.22891-0.095975-0.32414-0.22281-0.61502-0.043074-0.13225-0.046088-0.1838-0.0174-0.11809-0.004915-0.079198 0.007832-0.1364 0.023933-0.1192 0.04209-0.1445 0.16723-0.50574 0.040915-0.15467 0.035891-0.19095 0.014472-0.16248-0.001815-0.1402-0.013309-0.12206-0.041655-0.25352-0.01035-0.096887-8.17e-4 -0.082892 0.012243-0.097596 0.035973-0.11751 0.032558-0.069199 0.047787-0.080841 0.052967-0.075916 0.1655-0.20049 0.28855-0.32093 0.17657-0.20525 0.19169-0.23525 0.22585-0.30558 0.14791-0.22491 0.078054-0.13096 0.088169-0.1632 0.076015-0.15908 0.063909-0.15283 0.050337-0.1383 0.048476-0.1561 0.038552-0.1507 0.047133-0.26463 0.009087-0.086738 0.005897-0.26085-0.014855-0.17604-0.020779-0.11683-0.024211-0.077769-0.031099-0.034427-0.01619 0.0184-0.06037 0.017251-0.095538 0.010404-0.2103 5.15e-4 -0.2541-0.018853-0.23913-0.029043-0.3503-0.051117-0.22439-0.039748-0.27278-0.060371-0.23907-0.068792-0.26734-0.096994-0.49043-0.19772-0.25613-0.085557-0.11656-0.028092-0.08816-0.015035-0.12717-0.011212-0.075407-3.1e-4 -0.17477 0.015228-0.14089 0.027009-0.18134 0.050138-0.1686 0.058019-0.30447 0.1274-0.63726 0.30628-0.26378 0.11945-0.20066 0.080394-0.2236 0.071646-0.16349 0.040941-0.15098 0.028969-0.68504 0.092228-0.70454 0.1171-0.19119 0.021644-0.18364 0.012043-0.33044 7.1e-4 -0.40269-0.024777-0.82796-0.089202-0.22559-0.013692-0.22534-0.003568-0.39043 0.007981-0.27833 0.016073-0.27079 0.027906-0.54296 0.073839-0.12975 0.00794-0.10342-0.002393-0.17245-0.030183-0.15197-0.065082-0.12352-0.1023-0.10398-0.17749-0.053711-0.18754-0.02956-0.21501-0.010834-0.26434 0.012443-0.37943 0.02283-0.27176 0.027761-0.22142 0.038058-0.22515 0.086716-0.36412 0.082515-0.256 0.073864-0.1936 0.081687-0.19079 0.16772-0.34288 0.17817-0.315 0.18797-0.29012 0.097223-0.13539 0.08347-0.10084 0.018308-0.092609 0.084367-0.20914 0.075406-0.15256 0.092592-0.16194 0.12572-0.18615 0.11362-0.14156 0.12692-0.13368 0.18395-0.15785 0.18359-0.12952 0.19885-0.11963 0.2137-0.11232 0.21247-0.099292 0.23088-0.096683 0.33364-0.12158 0.16619-0.052893 0.27287-0.076869 0.21338-0.052983 0.36419-0.079455 0.37495-0.064906 0.2005-0.026252 0.37454-0.034974 0.8187-0.049725 0.76609-0.06147 0.43776-0.051873 0.22886-0.037448 0.17709-0.035731 0.23166-0.057652 0.21744-0.066266 0.21035-0.078845 0.18989-0.094659 0.1044-0.070247 0.093235-0.084917 0.031598-0.037132 0.057003-0.084925 0.037452-0.076333 0.034433-0.10932 0.012197-0.11247-0.010058-0.1128-0.020343-0.078781-0.027996-0.068438-0.03494-0.059722-0.05537-0.066315-0.053225-0.046038-0.053804-0.037302-0.16834-0.091733-0.31578-0.15779-0.12351-0.071751-0.132-0.087628-0.12137-0.091627-0.10916-0.092588-0.10605-0.10075-0.09584-0.10176-0.06827-0.079922-0.1182-0.15601-0.10628-0.16558-0.075231-0.13949-0.048749-0.10695-0.053398-0.14421-0.057214-0.22571-0.02163-0.15126-0.006882-0.089468 0.001499-0.24997 0.028705-0.25749 0.044237-0.225 0.054691-0.2048 0.059508-0.17837 0.070128-0.17536 0.057687-0.1256 0.081305-0.16086 0.25728-0.47642 0.11688-0.23519 0.10772-0.24514 0.11082-0.30494 0.069562-0.23787 0.06591-0.2752 0.059912-0.3037 0.13973-0.83422 0.052583-0.27113 0.19557-0.83852 0.039491-0.20849 0.033043-0.24548 0.012017-0.24942-0.006074-0.13826-0.035436-0.21512-0.072215-0.20117-0.14038-0.24037-0.18238-0.21687-0.092064-0.087878-0.12315-0.10169-0.124-0.088934-0.11938-0.075864-0.18232-0.1001-0.086905-0.034708 0.019309-0.029904 0.037533-0.086123 0.082335-0.2205 0.10575-0.32124 0.11617-0.40104 0.10787-0.42997 0.10357-0.47638 0.074531-0.39622 0.065111-0.41277 0.045781-0.35885 0.078301-0.81556 0.15749-2.1398 0.012089-0.41734 0.003987-0.76837-0.018801-1.0309-0.003253-0.50677 0.01336-0.74255 0.015124-0.29768 0.026077-0.25086 0.026656-0.16176 0.051817-0.21665 0.045823-0.14396 0.064946-0.16275 0.066659-0.13368 0.066315-0.11056 0.11522-0.15994 0.070524-0.083528 0.091144-0.095896 0.09739-0.090157 0.078624-0.064952 0.18422-0.12999 0.098392-0.059012 0.17601-0.091773 0.23934-0.10233 0.69041-0.2386 0.27984-0.10685 0.41219-0.1672 0.22105-0.081868 0.23377-0.067501 0.59896-0.12749 0.23054-0.055778 0.23428-0.07177 0.27637-0.096211 0.34898-0.13556 0.38325-0.16728 0.27897-0.13156 0.21424-0.11845 0.083941-0.055556 0.12531-0.10056 0.073597-0.07327 0.12131-0.14663 0.15213-0.2216 0.35359-0.55745 0.16572-0.23198 0.14891-0.18328 0.19383-0.19853 0.12404-0.10123 0.090546-0.063834 0.16886-0.10265 0.13916-0.070507 0.11875-0.049224 0.13211-0.042941 0.14932-0.036827 0.10968-0.020543 0.16896-0.018735 0.1054-0.003767 0.16818 0.00425 0.16676 0.01827 0.10607 0.018527 0.28354 0.069718 0.53288 0.16221 0.34304 0.12973 0.19689 0.092342 0.18164 0.10192 0.18515 0.12893 0.11804 0.099205 0.14266 0.13613 0.11919 0.12757 0.18513 0.21398 0.25118 0.30475 0.096162 0.10878 0.094834 0.096942 0.17884 0.15869 0.10399 0.080825 0.18728 0.12934 0.22974 0.13929 0.24285 0.13337 0.64156 0.33247 0.46585 0.22612 0.23861 0.10367 0.18926 0.067991 0.17387 0.051776 0.24022 0.05979 0.21163 0.042941 0.1912 0.028771 0.14781 0.014161 0.22013 0.007314 0.1519-0.002858 0.25732-0.016608 0.19108-0.021116 0.45953-0.063916 0.1965-0.019773 0.21129-0.011783 0.27861-4.98e-4 0.46865 0.024907 1.1193 0.097663 0.44965 0.034202 0.23035 0.012183 0.2493 0.00439 0.34072-0.010099 0.31044-0.026377 0.38025-0.051923 0.15975-0.02848 0.056203-0.018137-3.8384-6.4917-1.363-2.2631-0.97704-1.6505-1.9092-3.1799-1.4382-2.4239-0.49646-0.82677-0.65243-1.0662-0.50175-0.8013-0.51283-0.79937-0.97763-1.488-0.45653-0.72939-0.087248-0.15449-0.082226-0.19271-0.044391-0.18291 3.29e-4 -0.16082 0.055226-0.12458 0.073839-0.057552 0.099268-0.039115 0.13663-0.028092 0.12497-0.012708 0.13718-0.004344 0.13482 0.00445 0.11054 0.010169 0.13033 0.020193 0.12638 0.029295 0.19524 0.066504 0.13005 0.058023 0.10924 0.05701 0.20713 0.13013 0.60884 0.45148 0.21216 0.13695 0.24439 0.12469 0.25208 0.097181 0.25347 0.069752 0.24845 0.040415 0.23654 0.006964 0.21686-0.03311 0.1881-0.082676 0.11828-0.1009 0.099973-0.12985 0.085352-0.15322 0.096655-0.23386 0.081303-0.25867 0.070036-0.2767 0.061884-0.28959 0.056071-0.29865 0.10118-0.61391 0.13834-0.9396 0.56476-4.0143 0.080588-0.6581 0.035088-0.34633 0.027914-0.34969 0.017834-0.35256 0.003877-0.35428-0.014981-0.35382-0.039489-0.34971-0.065755-0.33432-0.085881-0.31809-0.096254-0.29092-0.094676-0.24673-0.077121-0.17691-0.037652-0.069104-0.94165-2.305-0.78896-1.8332-1.0037-2.5172-0.10195-0.24609-0.045252-0.13691-0.02197-0.11398 0.001973-0.076488 0.007215-0.028501 0.023349-0.044297 0.03018-0.032837 0.1075-0.095016 0.061817-0.081751 0.066637-0.13815 0.088569-0.24366 0.095904-0.33028 0.079783-0.38156 0.043306-0.17638 0.12197-0.40031 0.035454-0.1341 0.026286-0.16301 0.016539-0.21823 0.57029-0.58906 0.71735-0.7052 0.29586-0.31338 0.30557-0.35644 0.30972-0.3782 0.41713-0.52908 0.36908-0.49742 0.25196-0.35846 0.26213-0.39704 0.14781-0.24505 0.16021-0.29793 0.10726-0.22865 0.084093-0.21461 0.04431-0.13602 0.049368-0.19052 0.034231-0.19005 0.018742-0.1822 0.006596-0.15694-1.92e-4 -0.078162-0.013234-0.18559-0.04676-0.22397-0.03241-0.099856-0.072951-0.16605-0.1016-0.16654-0.1189-0.14421-0.10334-0.095171-0.1085-0.076469-0.109-0.054707-0.10895-0.031054-0.076042-0.005651-0.10016 0.015395-0.0968 0.041548-0.14734 0.10734-0.15737 0.13461-0.083362 0.062814-0.088714 0.055016-0.15293 0.06295-0.11934 0.021709-0.11735-0.004852-0.09448-0.027857-0.086169-0.05053-0.063234-0.059861-0.060395-0.085982-0.048846-0.10311-0.044172-0.14231-0.03056-0.16018-0.019392-0.19294-0.003816-0.29335 0.007422-0.18522 0.014291-0.19144 0.03072-0.26037 0.045962-0.26432 0.058174-0.24757 0.071342-0.24292 0.096216-0.27102 0.10285-0.24835 0.18133-0.39204 0.022078-0.057311-0.001929-0.021935-0.012522-0.042249-0.053344-0.048609-0.10889-0.065344-0.14476-0.064835-0.24684-0.079138-0.27751-0.055032-0.25679-0.022338-0.25921 0.00528-0.20342 0.024995-0.19752 0.041728-0.29436 0.092252-0.53683 0.21252-0.15507 0.048436-0.19948 0.027944-0.11799-0.013312-0.16818-0.078542-0.13335-0.14487-0.10711-0.19231-0.18906-0.45704-0.10661-0.23622-0.13127-0.22458-0.15212-0.19019-0.24438-0.24573-0.39939-0.37319-0.31737-0.27776-0.13762-0.10535-0.12736-0.085709-0.34356-0.20835-0.1213-0.082169-0.116-0.090711-0.13434-0.12772-0.11961-0.13769-0.11184-0.14696-0.27984-0.38941-0.12138-0.1479-0.14539-0.15297-0.15479-0.13934-0.14709-0.11457-0.54233-0.39079-0.1219-0.079954-0.16403-0.094697-0.094178-0.043634-0.076746-0.025796-0.10532-0.019073-0.099296 0.001551-0.097081 0.020381-0.16426 0.08371-0.029445 0.023276-0.091952 0.10047-0.0634 0.11258-0.045083 0.12675-0.038936 0.20982-0.008798 0.21152 0.007065 0.11069 0.023396 0.12072 0.043716 0.11429 0.033051 0.057754 0.062169 0.082352 0.042409 0.044601 0.084916 0.073691 0.15372 0.10002 0.33699 0.16873 0.16508 0.090124 0.1485 0.1019 0.16681 0.14326 0.093775 0.09803 0.13404 0.16696 0.11444 0.17804 0.067167 0.13157 0.052055 0.1342 0.02497 0.092607 0.012513 0.073815 0.003327 0.19202-0.031346 0.19007-0.042601 0.14963-0.17489 0.47824-0.070192 0.20075-0.046428 0.15245-0.038832 0.15414-0.041352 0.25815-0.004913 0.25051 0.03079 0.27218 0.097411 0.48086 0.046403 0.18488 0.13313 0.45876 0.037903 0.15141 0.034978 0.1702 0.024314 0.17153 0.008127 0.10441-9.22e-4 0.22507-0.025567 0.22067-0.050154 0.21197-0.060612 0.16564-0.077401 0.1537-0.10823 0.15712-0.12813 0.13312-0.19513 0.12931-0.15118 0.055586-0.16042 0.025651-0.16058-0.003403-0.20659-0.032353-0.21634-0.05269-0.1607-0.04546-0.37263-0.12532-0.27971-0.1071-0.35455-0.14449-1.0009-0.43541-0.21504-0.076415-0.21621-0.055272-0.20478-0.026251-0.20578 2.31e-4 -0.1886 0.023851-0.18727 0.04391-0.25039 0.085631-0.24735 0.10753-0.68647 0.34485-0.23309 0.10567-0.23469 0.086329-0.24497 0.058846-0.17067 0.017492-0.17066-0.002125-0.27171-0.04389-0.26212-0.091823-0.14648-0.075497-0.18427-0.121-0.17623-0.14039-0.16994-0.1545-0.20581-0.20585-0.35182-0.37226-0.28066-0.28434-0.24946-0.22172-0.45146-0.34324-0.08491-0.075142-0.04321-0.051115-0.029506-0.05833-0.007075-0.052998 0.035231-0.095656 0.1012-0.10537 0.10424-0.069752 0.12639-0.065346 0.20975-0.086064 0.23561-0.080198 0.63649-0.1988 0.2882-0.098934 0.19507-0.073591 0.19131-0.081832 0.20682-0.1062 0.19595-0.1225 0.15095-0.11294 0.14108-0.12304 0.17162-0.17782 0.15119-0.19109 0.12808-0.20228 0.11111-0.23816 0.069588-0.24902 0.021117-0.22885-0.016436-0.2527-0.048353-0.25652-0.054705-0.20366-0.2419-0.75367-0.072067-0.25004-0.064931-0.25439-0.061914-0.27897-0.053407-0.28185-0.044856-0.28368-0.037974-0.30514-0.025808-0.30481-0.011934-0.26722-0.016549-0.72777-0.012722-0.22263-0.023453-0.21477-0.041302-0.20382-0.071239-0.1984-0.10905-0.18263-0.15302-0.17343-0.14802-0.13121-0.16166-0.12397-0.15692-0.10916-0.15732-0.099095-0.15945-0.089057-0.23347-0.10976-0.20507-0.078082-0.16534-0.042004-0.081438-8.11e-4 0.10465-0.29398 0.029924-0.11006 0.017351-0.10948 0.001182-0.10742-0.006099-0.051803-0.023022-0.088498-0.035229-0.082666-0.046172-0.074913-0.027844-0.033357-0.057916-0.050452-0.07833-0.047604-0.31314-0.14502-0.13628-0.07495-0.11482-0.08816-0.09713-0.097976-0.07898-0.10571-0.02104-0.041046-0.030916-0.089048-0.017851-0.10822-0.004509-0.19308 0.021295 0.006657 0.028978-0.03173 0.028929-0.050975 0.047973-0.106 0.20482-0.50623 0.11756-0.26941 0.12632-0.25666 0.18902-0.34696 0.19146-0.3211 0.23794-0.36336 0.16393-0.24028 0.16504-0.22878 0.16985-0.21153 0.17885-0.18776 0.1926-0.1564 0.23792-0.13138 0.25364-0.08689 0.25061-0.045275 0.18516-0.010452 0.18438 0.01082 0.17022 0.031964 0.17872 0.059017 0.18171 0.085151 0.17836 0.10394 0.17645 0.1178 0.19036 0.13836 0.83319 0.63628 0.23151 0.16424 0.21355 0.14158 0.31806 0.1927 0.38277 0.21021 0.45093 0.22367 0.37379 0.1585 0.22197 0.078453 0.28323 0.07735 0.21251 0.037738 0.21582 0.026247 1.0731 0.09843 0.2777 0.03541 0.33918 0.063156 0.29952 0.078171 0.21939 0.070851 0.21705 0.079793 0.25406 0.10293 0.67943 0.29464 0.17704 0.072461 0.26139 0.094386 0.26629 0.074061 0.12247 0.024703 0.21392 0.028916 0.33095 0.014174 0.33496-0.016859 0.24086-0.028557 0.241-0.039171 0.22848-0.045159 0.22686-0.054571 0.19727-0.056165 0.63383-0.19068 0.92646-0.28816 0.71841-0.23468 0.072782-0.017189-0.14547-0.2912-0.1784-0.40784-0.078296-0.19511-0.095689-0.27664-0.063081-0.25339-0.019871-0.14046-0.003231-0.13394 0.018152-0.13057 0.078781-0.19683 0.12999-0.19016 0.16676-0.1758 0.20269-0.16505 0.41337-0.28663 0.17955-0.14178 0.14509-0.16004 0.10121-0.20546 0.029866-0.14488 0.004137-0.22452-0.019054-0.17662-0.036554-0.18171-0.041802-0.14704-0.066978-0.19257-0.074861-0.18585-0.10485-0.22786-0.081196-0.16006-0.33706-0.63367-0.1324-0.23921-0.25907-0.43172-0.1241-0.191-0.44697-0.65494-0.12698-0.1972-0.18379-0.30472-0.081943-0.15941-0.072031-0.18614-0.037532-0.15185-0.027432-0.23267 0.001144-0.23914 0.024932-0.23809 0.046149-0.24846 0.08391-0.34078 0.19054-0.67726 0.097018-0.32065 0.1119-0.32672 0.27746-0.71994 0.060145-0.18753 0.048092-0.19286 0.032064-0.1976 0.013666-0.20645-5e-4 -0.21056-0.020935-0.53494-0.003857-0.34275 0.011222-0.23348 0.02482-0.23311 0.035621-0.21562 0.045374-0.21317 0.20771-0.78763 0.035018-0.16286 0.024148-0.16001 0.007855-0.22065-0.007598-0.084806-0.031972-0.15742-0.050296-0.15027-0.066785-0.1449-0.085867-0.14579-0.10108-0.14008-0.18214-0.20402-0.11142-0.10689-0.20743-0.17694-0.52931-0.41867-0.31301-0.27054-0.20201-0.19988-0.1307-0.15467-0.10651-0.14763-0.083976-0.13152-0.088825-0.1536-0.36338-0.65931-0.52256-0.8473-0.19138-0.33238-0.13113-0.2464-0.31311-0.63065-0.43397-0.83066-0.20308-0.42122-0.10692-0.20475-0.12335-0.19392-0.054833-0.066523-0.080184-0.079825-0.14464-0.10728-0.059584-0.034979-0.068979-0.034486-0.1497-0.055726-0.17418-0.0426-0.13891-0.022682-0.42216-0.043873-0.46092-0.024215-0.19038-0.00281-0.39602 0.006867-0.31988 0.022382-0.17554 0.021246-0.39909 0.060582-0.10167 0.012171-0.022483-3.98e-4 -0.007459-0.005961-0.009255 0.002411-0.024715-0.017492-0.035353-0.039087-0.041569-0.0615-0.035263-0.064972-0.043073-0.096932-0.072005-0.2225-0.040962-0.25138-0.003148-0.18965 0.021137-0.1895 0.051645-0.201 0.080836-0.18893 0.10952-0.17166 0.090483-0.1049 0.20682-0.18372 0.18992-0.13814 0.37339-0.25346 0.1712-0.12368 0.25754-0.209 0.13453-0.12447 0.17809-0.19742 0.13226-0.2163 0.069109-0.21278 0.036251-0.23075 0.043069-0.66525 0.015395-0.1699 0.039191-0.31109 0.052191-0.28055 0.052162-0.20261 0.050014-0.15214 0.044459-0.11232 0.063944-0.12972 0.072057-0.10689 0.11436-0.099608 0.025028-0.012172 0.062962-0.018757 0.0449-0.004609 0.080335 0.006682 0.042034 0.009264 0.12281 0.044362 0.12465 0.071169 0.060962 0.045676 0.10747 0.099109 0.070635 0.07703 0.33178 0.39518 0.27717 0.30002 0.17508 0.17858 0.12707 0.12054 0.16025 0.13923 0.1607 0.11972 0.12824 0.076367 0.12788 0.054869 0.089286 0.023888 0.11832 0.016226 0.38631 0.00275 0.20404 0.009225 0.20599 0.039107 0.20179 0.081281 0.20176 0.11602 0.20347 0.13879 0.39014 0.28206 0.18738 0.12688 0.19196 0.11639 0.17624 0.090297 0.17987 0.07221 0.18324 0.048933 0.12375 0.017361 0.10088 0.005667 0.25837-0.017793 0.26176-0.066227 0.085018-0.033208 0.24737-0.13588 0.22895-0.17738 0.21012-0.20733 0.18907-0.22856 0.16378-0.24328 0.10283-0.18487 0.0987-0.2012 0.091887-0.23549 0.20603-0.6078 0.088491-0.27371 0.052904-0.19204 0.043985-0.19734 0.038035-0.2436 0.018982-0.24961 0.001204-0.16097-0.008564-0.20678-0.031142-0.29421-0.054664-0.29634-0.068337-0.26044-0.084756-0.25617-0.097974-0.24816-0.10318-0.22694-0.10635-0.20944-0.13473-0.23921-0.10521-0.16846-0.043038-0.058118-0.009264-0.038315-0.052331-0.088207-0.11132-0.1607-0.14828-0.19596-0.17487-0.21573-0.22037-0.25286-0.23963-0.25206-0.20328-0.19565-0.21058-0.18875-0.60638-0.51555-0.25576-0.22863-0.24519-0.23314-0.23146-0.2393-0.21407-0.24757-0.21022-0.2783-0.11111-0.15854-0.18635-0.28029-0.33922-0.55135-0.28555-0.51003-0.061072-0.1204-0.060412-0.13866-0.044457-0.13736-0.031303-0.21541 6.96e-4 -0.094668 0.025292-0.18762 0.062511-0.16375 0.065208-0.089114 0.08887-0.077232 0.1219-0.065998 0.044342-0.018148 0.16977-0.04668 0.11906-0.008156 0.078804 0.00729 0.070949 0.015638 0.13516 0.051035 0.084036 0.046007 0.067893 0.045401 0.21538 0.17566 0.14453 0.13717 0.37367 0.38868 0.3345 0.32354 0.16159 0.13988 0.24007 0.17362 0.15337 0.096796 0.16699 0.094834 0.25614 0.12257 0.52766 0.20526 0.60763 0.21697 0.20875 0.057706 0.16442 0.034599 0.17418 0.024628 0.23415 0.016991 1.1139 0.004496 0.54864-0.015416 0.22978-0.020144 0.099389-0.013194 0.1713-0.032301 0.19059-0.051321 0.17948-0.063383 0.1787-0.076283 0.19804-0.097942 0.16472-0.090335 0.30138-0.18005 0.18382-0.11748 0.18168-0.1248 0.087562-0.064489 0.22668-0.18287 0.21638-0.19773 0.2037-0.21022 0.18792-0.2199 0.11677-0.15198 0.44367-0.6216 0.13465-0.15112 0.065233-0.046116 0.059609 0.00785 1.7761-2.6845 0.25864-0.35635 0.092102-0.11283 0.097208-0.10778 0.097318-0.09567 0.20831-0.17718 0.22169-0.16133 0.2334-0.14332 0.12176-0.062199 0.12605-0.053304 0.13816-0.045052 0.43643-0.11123 0.29125-0.093641 0.44195-0.17509 0.28474-0.12459 0.3524-0.16384 0.021027 0.034461 0.072301 0.037185 0.090387 0.029438 0.20518 0.039554 0.2499 0.022537 0.25713 0.0061 0.49393-0.014169 0.46714-0.02655 0.57782-0.044723 0.33181-0.034574 0.29529-0.037499 0.2912-0.04416 0.29838-0.054011 0.29318-0.063668 0.37866-0.10007 0.83911-0.25643 0.33971-0.098111 0.3378-0.084621 0.21275-0.046401 0.37403-0.071479 0.45353-0.073152 0.27939-0.038995 0.81603-0.0979 0.30076-0.044028 0.7562-0.13832 0.2699-0.041909 0.2721-0.026082 0.30157-0.006263 0.21946 0.009634 0.21934 0.021268 0.18455 0.027141 0.18381 0.035618 0.19026 0.046221 0.18882 0.055545 0.29791 0.10792 0.23852 0.10376 0.2099 0.10218 0.79316 0.41372 0.87062 0.43979 0.46227 0.2596 0.34872 0.21591 0.24034 0.15828 0.8829 0.61309 0.077012 0.045134 0.02383 0.003127 0.027828-0.022395 0.047477-0.075054 0.14203-0.28333 0.39161-0.88912 0.19011-0.40906 0.2047-0.38666 0.1969-0.32283 0.21619-0.31505 0.12102-0.16207 0.37261-0.47121 0.17097-0.23538 0.57161-0.85871 0.22526-0.31962 0.25508-0.34157 0.40137-0.49812 0.31448-0.367 0.54622-0.62267 0.27356-0.33046 0.41968-0.54509 0.66376-0.926 0.16328-0.23954 0.13978-0.21915 0.1274-0.22043 0.087827-0.17296 0.074829-0.17411 0.065988-0.20197 0.039514-0.20371 0.010073-0.18315-0.003416-0.11556-0.016738-0.17902-0.051302-0.27555-0.078053-0.27372-0.086093-0.23178-0.10219-0.2241-0.084535-0.15782-0.089969-0.15261-0.26714-0.42586-0.12572-0.18558-0.096879-0.12078-0.11457-0.11816-0.12417-0.10795-0.23302-0.17105-0.37764-0.24392-0.33058-0.22186-0.18073-0.11184-0.14246-0.075695-0.34705-0.16922-0.19742-0.11336-0.081146-0.056212-0.11366-0.090464-0.1068-0.098067-0.095206-0.098393-0.10896-0.12511-0.10331-0.12992-0.18986-0.26294-0.13894-0.21157-0.13788-0.22858-0.13667-0.2504-0.1397-0.29463-0.1238-0.32418-0.025642-0.081314-0.073576-0.2934-0.037437-0.2447-0.012617-0.22071 0.007228-0.18432 0.017316-0.13169 0.029916-0.12892 0.038176-0.10932 0.082048-0.13574 0.038129-0.013731 0.011847-0.001932 0.079543 0.033822 0.11039 0.059896 0.73008 0.43845 0.23267 0.12386 0.13168 0.060411 0.23139 0.0853 0.17233 0.042944 0.16606 0.019336 0.17053-0.009945 0.20268-0.059687 0.18472-0.098059 0.16994-0.11956 0.24413-0.18739 0.13955-0.09466 0.14454-0.081146 0.11138-0.049214 0.27111-0.095999 0.15715-0.04345 0.20305-0.031515 0.32605-0.002636 0.34539-0.012379 0.1247 0.004146 0.15548 0.020445 0.078116 0.02042 0.090805 0.036523 0.1186 0.075582 0.13764 0.12347 0.13388 0.15632 0.084816 0.14065 0.14782 0.31031 0.079343 0.1514 0.078787 0.11812 0.086559 0.095471 0.10131 0.07486 0.16181 0.061071 0.060996 0.010737 0.11238 0.007696 0.10142-0.003499 0.08885-0.009663 0.14992-0.0281 0.20574-0.059669 0.24278-0.098883 0.16416-0.086213 0.25368-0.1606 0.25091-0.18311 0.99936-0.80599 0.25605-0.18812 0.26248-0.16969 0.31134-0.16091 0.27252-0.10473 0.8316-0.2689 0.75279-0.26236 0.47937-0.1568 0.26371-0.092477 0.43183-0.16827 0.74973-0.32744 0.19841-0.074973 0.27844-0.096111 0.43844-0.13732 0.62886-0.18102 0.25932-0.088144 0.51508-0.18734 0.24167-0.074675 0.33745-0.071891 0.14116-0.016306 0.21687-0.009516 0.26773 0.013808 0.34179 0.045817 0.38612 0.075698 0.26336 0.06428 0.26101 0.074575 0.35485 0.12268 0.322 0.13966 0.25139 0.13379 0.23482 0.15169 0.21354 0.17166 0.15266 0.15333 0.136 0.16467 0.11961 0.1728 0.22821 0.40025 0.13652 0.22047 0.097133 0.12623 0.087757 0.092898 0.13879 0.11873 0.16777 0.11223 0.13806 0.075291 0.14709 0.070301 0.31253 0.13447 0.22235 0.087189 0.2077 0.073713 0.21266 0.06546 0.21794 0.052413 0.10115 0.018286 0.23286 0.030585 0.39289 0.035475 0.32045 0.01986" stroke="#bdc660"/>
    </defs>
    <g clip-path="url(#pff19fd1bd4)">
     <use y="280.512" fill="#bdc660" stroke="#bdc660" xlink:href="#m1b8ce6cd4e"/>
    </g>
   </g>
  </g>
 </g>
 <defs>
  <clipPath id="pff19fd1bd4">
   <rect x="7.2" y="7.2" width="199.52" height="266.11"/>
  </clipPath>
 </defs>
</svg>
