<?xml version="1.0" encoding="UTF-8"?>
<!DOCTYPE svg  PUBLIC '-//W3C//DTD SVG 1.1//EN'  'http://www.w3.org/Graphics/SVG/1.1/DTD/svg11.dtd'>
<svg width="371.52pt" height="243.9pt" version="1.1" viewBox="0 0 371.52 243.9" xmlns="http://www.w3.org/2000/svg" xmlns:xlink="http://www.w3.org/1999/xlink">
 <metadata>
  <rdf:RDF xmlns:cc="http://creativecommons.org/ns#" xmlns:dc="http://purl.org/dc/elements/1.1/" xmlns:rdf="http://www.w3.org/1999/02/22-rdf-syntax-ns#">
   <cc:Work>
    <dc:type rdf:resource="http://purl.org/dc/dcmitype/StillImage"/>
    <dc:date>2024-07-04T12:10:34.726460</dc:date>
    <dc:format>image/svg+xml</dc:format>
    <dc:creator>
     <cc:Agent>
      <dc:title>Matplotlib v3.7.1, https://matplotlib.org/</dc:title>
     </cc:Agent>
    </dc:creator>
   </cc:Work>
  </rdf:RDF>
 </metadata>
 <defs>
  <style type="text/css">*{stroke-linejoin: round; stroke-linecap: butt}</style>
 </defs>
 <g id="figure_1">
  <g id="patch_1">
   <path d="m0 243.9h371.52v-243.9h-371.52v243.9z" fill="none"/>
  </g>
  <g id="axes_1">
   <g id="PatchCollection_1">
    <defs>
     <path id="m48a94cae1d" d="m68.894-205.43 0.22328 0.93485 0.057582 0.40836 0.035797 0.41688 0.060802 1.6368 0.075012 1.4607-0.002795 0.71884-0.13135 2.3022-0.020851 0.60699 0.035935 0.55384 0.095033 0.43141 0.14845 0.37292 0.21298 0.38046 0.20357 0.29975 0.55884 0.70394 0.58563 0.6696 1.8482 2.034 1.9989 2.2311 0.88257 0.94081 0.94245 0.96709 0.15071-0.044361 0.2921-0.030856 0.37923-0.002417 0.75686 0.075295 0.99559 0.13475 0.61613 0.14409 0.59613 0.24776 0.31043 0.1719 0.37428 0.26926 0.1848 0.16527 0.18756 0.20414 0.17439 0.25633 0.16364 0.35118 0.27082 0.78672 0.27715 0.68627 0.24829 0.52418 0.22957 0.43656 0.38344 0.64506 0.47247 0.67895 0.75237 0.90017 1.249 1.3901 0.48001 0.39806 0.43938 0.23926 0.41039 0.11852 0.47603 0.022619 0.50361-0.061648 1.6641-0.37302 0.60794-0.083165 0.55388-0.015123 0.43055 0.023525 0.44756 0.051132 0.54136 0.096359 0.731 0.19581 0.61064 0.23485 0.63374 0.32448 1.1648 0.69306 0.65153 0.30393 0.50196 0.15056 1.5647 0.32274 0.47196 0.13417 0.65011 0.23102 0.34644 0.14056 1.4826 0.64181 0.63485 0.23322 0.61002 0.17348 0.65433 0.12072 0.56164 0.040754 0.50596-0.020632 0.52188-0.086602 0.73084-0.24541 0.69635-0.35674 0.657-0.43241 0.53822-0.4279 0.57298-0.58677 0.40792-0.56287 0.28677-0.58932 0.19102-0.59992 0.10564-0.55557 0.019895-0.26545-0.020187-0.09581 0.045981-0.061851 0.12802-0.076747 0.41069-0.16714 0.67462-0.18642 0.58673-0.11072 0.57053-0.0604 0.30435-0.013397 0.7031 0.012458 0.42683 0.035255 0.80742 0.12457 3.9024 0.83784 0.68396 0.13913 0.66595 0.10787 0.64442 0.060572 1.4625 0.021294 0.45472 0.029533 0.54633 0.075208 0.46718 0.099924 0.3808 0.10413 0.59695 0.20013 0.5413 0.21737 0.64654 0.3023 0.42915 0.22714 0.41423 0.24202 0.47934 0.31433 0.4442 0.33534 1.086 0.93346 1.7129 1.3448 0.46403 0.39535 0.41109 0.41646 0.30676 0.38857 0.58354 0.7911 0.32676 0.35558 0.50964 0.45417 0.25166 0.19604 1.2921 0.93832 1.1951 0.82601 1.221 0.75843 0.8511 0.48034 2.103 1.1274 1.3543 0.74534 0.92318 0.54124 0.62234 0.38896 0.36791 0.24585 0.17041 0.14324 0.21179-3.96e-4 0.43168-0.075532 0.44537-0.15056 0.40744-0.20864 0.37309-0.23836 0.50099-0.37129 1.517-1.2684 0.36229-0.26727 0.33134-0.20013 0.18976-0.090725 0.34414-0.10746 0.17361-0.018488 0.21681 0.016644 0.21788 0.052408 0.21871 0.078755 0.43936 0.20969 0.66348 0.38316 1.7115 1.0467 0.72517 0.38487 0.55221 0.2195 1.0083 0.27966 0.2298 0.08206 0.11972 0.060777-0.001211-0.020632 0.054701-0.064578 0.28425-0.26669 1.15-0.98684 1.4244-1.1538 2.4814-1.9599 0.64855-0.5389 0.72577-0.64753 0.70983-0.68756 0.56974-0.59444 0.48004-0.54009 0.47553-0.59042 0.36282-0.51491 0.26774-0.42853 0.26752-0.50695 0.13249-0.3161 0.073326-0.21989 0.08662-0.39567 0.025754-0.49739-0.016412-0.25729-0.099283-0.71463-0.097153-0.51258-0.18534-0.67839-0.24795-0.71178-0.29231-0.73289-0.32252-0.74308-0.53435-1.1475-0.75792-1.5089-0.46822-0.82655-0.4899-0.74563-0.32008-0.39568-0.24432-0.24443-0.30148-0.24111-0.41497-0.26598-1.1498-0.61007-0.51752-0.31013-0.28799-0.22293-0.36515-0.40652-0.25205-0.46856-0.13884-0.54828-0.045684-0.51664 0.026173-0.54092 0.103-0.6845 0.53886-2.4824 0.16178-0.50697 0.20478-0.45236 0.17674-0.28729 0.32005-0.31913 0.33256-0.17522 0.37192-0.11391 0.68125-0.14916 0.39137-0.11101 0.32952-0.13476 0.63939-0.31291 0.26221-0.093246 0.17496-0.034057 0.28241-0.002213 0.29159 0.056521 0.27636 0.10128 0.28597 0.13427 1.2164 0.63406 1.0357 0.48782 1.2795 0.66228 0.44994 0.21621 0.41997 0.1926 0.6426 0.25721 0.87361 0.40688 1.3049 0.65478 0.47758 0.25557 0.99562 0.57148 0.48391 0.25261 0.44615 0.20537 0.60493 0.22552 0.53252 0.10833 0.3071 0.025582 0.37185-0.003109 0.44307-0.053404 0.50764-0.12806 0.67136-0.25488 1.5204-0.73825 0.78215-0.35484 0.80699-0.33681 2.1654-0.8591 0.53215-0.19681 0.8591-0.26152 0.348-0.088404 0.79112-0.15255 0.67694-0.082723 0.6431-0.044617 0.64616-0.016347 1.7553 0.015683 2.0304-0.087271 0.9237-0.005481 0.93793 0.033702 0.94476 0.076509 0.98597 0.13326 0.97042 0.19799 0.93721 0.27712 0.88085 0.37338 0.75762 0.44364 0.68476 0.49326 1.1206 0.91089 0.29324 0.21877 0.21026 0.12596 0.13816 0.054148 0.044125-0.023603 0.52872-0.29559 0.39628-0.26247 0.37427-0.29004 0.46014-0.43003 0.23044-0.26364 0.27715-0.37817 0.35382-0.52844 0.31066-0.52535 0.20208-0.45285 0.11622-0.41153 0.070988-0.47691 0.079654-1.0337 0.07092-0.57375 0.16388-0.81396 0.18235-0.64716 0.22931-0.6125 0.2567-0.56168 0.19705-0.37845 0.67868-1.2089 0.13552-0.26451 0.087725-0.22714 0.036193 0.030786 0.083975 0.35549 0.77473 4.5841 0.14916 0.73428 0.13621 0.53885 0.13248 0.44605 0.17359 0.50564 0.21213 0.52985 0.15856 0.35028 0.33338 0.6453 0.44132 0.71186 0.31103 0.41496 0.18512 0.21499 0.28247 0.28625 0.23466 0.20325 0.32986 0.24139 0.23039 0.14517 0.38605 0.21186 0.33091 0.15845 0.69689 0.28438 0.48495 0.16564 0.61443 0.17784 0.8501 0.20263 1.3438 0.26452 1.321 0.21708 0.9273 0.11461 0.51327 0.044232 0.40657 0.022779 0.82791 0.00241 0.60858-0.048259 0.38994-0.058715 0.40307-0.086266 0.62634-0.18618 0.72885-0.2589 0.72471-0.28757 0.39251-0.16964 0.6164-0.31256 0.58321-0.37686 0.27568-0.21409 0.25144-0.22389 0.25741-0.26747 0.15881-0.19134 0.27584-0.39287 0.88365-1.5008 0.30228-0.47904 2.2593-3.3036 0.26477-0.40747 0.92226-1.6289 0.33582-0.48522 0.16159-0.19275 0.37971-0.38475 0.25013-0.22089 1.1376-0.91042 0.52468-0.39424 0.32229-0.20733 0.60495-0.30605 0.43721-0.19107 0.45846-0.12778 0.43823-0.026265 0.47027 0.048428 0.62162 0.15437 0.43733 0.16306 0.63223 0.31507 0.25959 0.15756 0.61412 0.4131 0.81438 0.59082 0.73533 0.50225 0.26344 0.16255 0.61724 0.31741 0.63482 0.22776 0.20792 0.051626 2.3312 0.39614 0.39576 0.091163 0.49427 0.1494 1.1484 0.41169 0.5206 0.21326 0.5134 0.25965 0.49148 0.28432 0.41756 0.2612 0.39894 0.29011 0.37174 0.31152 0.61546 0.59643 0.91938 0.84695 0.37097 0.40465 0.34215 0.45227 0.67975 1.0256 0.34261 0.46803 0.5808 0.68535 0.60796 0.55637 0.51884 0.34514 0.53252 0.19728 0.070735 0.012245 0.31431 0.016327 0.35393-0.041174 0.2465-0.056607 0.39572-0.12886 1.1319-0.4645 0.47613-0.21765 0.10513-0.033462 0.037171 0.007083 0.076382-0.1185 0.022847-0.31642-0.22245-3.5113-5.85e-4 -0.77858 0.11236-1.0008 0.043221-0.20456 0.15819-0.57298 0.1225-0.3559 0.29886-0.72119 0.37341-0.74081 0.41975-0.70513 0.45951-0.65951 0.49655-0.60194 0.53437-0.52974 0.57623-0.43953 0.47456-0.27079 1.0088-0.47515 0.69579-0.35206 1.4314-0.81413 1.4884-0.90584 3.0736-1.9252 2.1848-1.4023 1.4592-0.97655 0.74591-0.52844 0.71423-0.53914 0.39212-0.31504 0.69526-0.59653 0.72357-0.66703 0.70654-0.68799 1.3797-1.4171 4.0605-4.3325 0.68726-0.69793 0.69782-0.67607 0.71321-0.64403 0.73504-0.59822 0.7654-0.53401 0.807-0.44543 0.82763-0.32706 0.86679-0.24295 0.89559-0.18046 0.91628-0.13419 0.93062-0.099681 0.93987-0.073232 1.8909-0.08399 0.94345-0.012396 0.93681 0.010617 0.92538 0.039593 0.90796 0.077765 0.88286 0.12896 0.64048 0.13607 0.85412 0.23524 0.50387 0.18761 0.48849 0.22286 0.37193 0.1972 0.43137 0.2579 1.7214 1.177 0.53875 0.32172 0.46764 0.20614 0.38498 0.10075 0.16518 0.022501 0.56846-0.011996 0.59195-0.12818 0.44152-0.15244 0.45207-0.19461 0.73795-0.38116 0.81325-0.48539 1.2217-0.80437 1.0416-0.72207 1.2255-0.87849 1.4823-1.0932 0.19443-0.12042 0.35348 0.51509 0.23875 0.39082 0.2563 0.46374 0.3727 0.77231 0.30964 0.73556 0.25983 0.68469 0.20699 0.61841 0.13875 0.50386 0.11442 0.50362 0.12846 0.70073 0.25811 2.2305 0.059434 0.95168-0.009715 1.2607 0.032495 0.50544 0.089473 0.52699 0.36679 1.6504 0.22865 1.3204 0.038024 0.086709 0.18444-0.079381 0.28808-0.091117 0.35979-0.088955 0.3851-0.069441 0.55635-0.059501 0.751-0.014219 0.60727 0.05472 0.532 0.11596 0.49367 0.17662 0.17368 0.083913 0.26336 0.16571 0.29328 0.27547 0.24578 0.33031 0.14627 0.24786 0.29306 0.62459 0.27848 0.78737 0.11826 0.47028 0.06001 0.32684 0.069476 0.57168 0.040178 0.68542 0.038697 1.3174 0.059081 0.74109 0.062016 0.33872 0.097455 0.30951 0.11542 0.23516 0.13796 0.21838 0.1809 0.24297 0.35403 0.37309 0.31572 0.25655 0.28773 0.20136 0.37096 0.2089 0.7873 0.394 0.37272 0.22912 0.24717 0.19412 0.22666 0.20544 0.43597 0.45854 0.67684 0.82489 0.23727 0.23922 0.21968 0.18676 0.28246 0.20482 0.3838 0.23458 0.4102 0.2133 0.51384 0.23058 0.51729 0.20384 1.2573 0.42498 0.9382 0.27584-0.051142 0.064971-0.055684 0.16296-0.044586 0.22216-0.018753 0.25348 0.019849 0.26448 0.07646 0.29005 0.12228 0.28121 0.15037 0.27249 0.18356 0.28513 0.20916 0.25481 0.23856 0.23673 0.25827 0.21796 0.27009 0.19744 0.27549 0.17381 0.27551 0.14535 0.40352 0.15011 0.19964 0.046652 0.19721 0.02532 0.19352-0.00403 0.2607-0.062659 0.24995-0.11194 0.23755-0.14048 0.58593-0.38428 0.5687-0.2658 0.20006-0.12449 0.40217-0.31625 0.44968-0.41508 0.95928-0.93345 0.57668-0.49453 0.39955-0.27618 0.25618-0.12891 0.17572-0.058534 0.14247-0.023819 0.10242-2.7e-4 0.20492 0.047305 0.25512 0.13224 0.33968 0.27079 0.38892 0.40913 0.42582 0.5409 0.4572 0.69161 0.28744 0.52183 0.12273 0.2661 0.053195 0.14113 0.011242 0.077215-0.16156 0.056526-0.25207 0.19896-0.45539 0.48726-0.37424 0.51157-0.16779 0.27576-0.35666 0.70414-0.24031 0.61912-0.51022 1.5593-0.316 0.77463-1.1296 2.3663-0.31961 0.80342-0.17595 0.56103-0.11596 0.4358-0.28822 1.2231-0.14946 0.7611-0.091405 0.71979-0.018059 0.44654 0.014041 1.0171-0.017851 1.0643 0.076008 2.0881-0.009657 0.58875-0.051955 1.173-8.27e-4 0.57237 0.075834 1.2704-0.01294 0.64911-0.14254 2.2408-0.11876 0.99259-0.25248 1.7534-0.063942 0.63837-0.005346 0.61838 0.090939 0.58576 0.23682 0.57964 0.35212 0.52719 0.50753 0.56146 0.46904 0.43188 0.82539 0.71045 0.4087 0.42622 0.35896 0.48 0.28185 0.52976 0.17557 0.52664 0.1002 0.47101 0.063418 0.65424 0.013006 1.2139-0.039459 1.2535-0.005836 0.93012-0.037605 0.63625-0.084741 0.40131-0.099272 0.16165-0.059705 0.1055-1.3919 1.79-0.47123 0.64414-0.45712 0.6606-0.6398 1.0249-0.26554 0.48891-0.20138 0.41222-0.17427 0.40149-0.1664 0.45793-0.10236 0.37494-0.072642 0.5317 0.036075 0.53878 0.063554 0.30222 0.10107 0.36058 0.20057 0.6129 0.25383 0.62384 0.331 0.61052 0.40715 0.55517 0.47697 0.52837 0.52378 0.50782 0.5516 0.49207 1.6637 1.4117 0.42884 0.38215 0.37167 0.35557 0.37378 0.40802 0.24848 0.33532 0.1526 0.26494 0.12559 0.26446 0.20462 0.53871 0.16722 0.69043 0.11189 0.28737 0.17403 0.22319 0.23466 0.15725 0.27347 0.08156 0.87451 0.11059 0.23654 0.059197 0.46584 0.19952 0.46804 0.29017 0.36155 0.28053 0.41939 0.43261 0.38606 0.51812 0.34902 0.58437 0.30544 0.63476 0.2523 0.6717 0.30878 1.1409 0.15392 0.61952 0.13524 0.62822 0.10818 0.70455 0.17349 1.3616 0.11823 0.59709 0.12762 0.41966 0.13064 0.32191 0.10357 0.192 0.048409 0.028258-0.04066 0.11213-0.048561 0.32233-0.17835 1.6426-0.11552 0.65972-0.15763 0.68294-0.2074 0.74131-0.23951 0.73901-0.23055 0.63619-0.24676 0.61951-0.26072 0.59586-0.35886 0.72606-0.34375 0.592-0.49695 0.71283-0.32691 0.39658-0.20554 0.21823-0.3859 0.35821-1.2394 1.0035-1.0017 0.84602-0.51235 0.40542-0.22741 0.15555-0.36121 0.19688-0.37575 0.14474-0.77421 0.24183-1.3666 0.52303-0.48679 0.14221-0.90645 0.1761-0.45495 0.10529-0.4467 0.15029-0.44235 0.18849-0.31049 0.15193-0.60534 0.36547-0.58311 0.42768-1.2476 1.0445-0.41784 0.30766-0.35982 0.226-0.21851 0.11731-0.33723 0.15232-0.84626 0.31139-0.50487 0.13975-1.0577 0.14951-0.43718 0.07893-0.15449 0.042444-0.31719 0.12044-0.27983 0.16124-0.25462 0.20285-0.24208 0.25025-0.28663 0.35072-0.2142 0.29423-0.41103 0.60867-0.28914 0.37464-0.30122 0.32268-0.41688 0.33111-0.16563 0.10459-0.63644 0.32544-0.71944 0.28283-0.78056 0.24991-0.82435 0.22403-0.8543 0.20289-1.755 0.351-0.88254 0.14761-0.8746 0.12542-0.85775 0.097854-0.83079 0.062461-1.5202 0.074545-0.71796 0.10372-0.70354 0.1254-0.69823 0.089351-0.68572-0.006626-0.70704-0.14916-0.48423-0.17554-0.53502-0.25008-0.6408-0.3567-0.79061-0.49324-1.1775-0.80823-1.7434-1.3251-1.0559-0.74661-2.3179-1.5789-1.1274-0.73307-0.20455-0.10257-0.1847 0.050495-0.26685 0.11059-0.69869 0.33774-0.7717 0.43959-0.80207 0.54538-0.76293 0.5842-0.72897 0.59484-2.7288 2.347-1.311 1.1611-2.3062 2.1271-3.081 2.7626-0.70985 0.65497-0.7104 0.68429-0.68473 0.71682-0.31547 0.36742-0.28222 0.36645-0.21963 0.32634-0.17102 0.28982-0.11031 0.21818-0.028791 0.097455 0.001047 0.17142 0.11698 0.3341 0.21467 0.41948 0.3064 0.44676 0.41584 0.45608 0.49036 0.42941 0.54095 0.4023 0.57268 0.37857 1.1893 0.70439 2.3653 1.3257 0.56553 0.34125 0.85961 0.57458 0.81855 0.64577 1.6224 1.418 0.97269 0.79468 0.81032 0.58773 1.8523 1.2342 0.66026 0.46595 0.7162 0.562 0.67673 0.61863 0.57691 0.62452 0.30264 0.37924 0.2813 0.39475 0.33627 0.54351 0.2843 0.54425 0.23044 0.50782 0.4898 1.1692 0.25701 0.54571 0.39799 0.73452 0.27454 0.40765 0.30815 0.37635 2.0257 2.0668 0.69827 0.74788 0.077666 0.13344 0.23141 0.24697 0.68986 0.64553 0.79137 0.6517 0.8538 0.63959 0.42776 0.35917 0.19151 0.18229 0.13502 0.15329 0.12653 0.1832 0.095361 0.19139 0.075375 0.21567 0.048567 0.20478 0.037502 0.25971 0.11805 1.5655 0.078875 0.67868 0.10401 0.70416 0.13029 0.69389 0.3494 1.6754 0.26369 1.1699 0.054731 0.39039 0.014111 0.27821-0.009245 0.7035 0.008436 0.17316 0.045984 0.29783 0.085495 0.28928 0.23401 0.54283 0.88706 1.6415 0.28821 0.60838 0.12081 0.31884 0.14142 0.59237 0.023127 0.35627-0.01354 0.32542-0.043723 0.35529-0.087503 0.45845-0.38293 1.6311-0.10066 0.72893-0.032917 0.52799-0.003184 0.78396 0.032821 0.55543 0.074478 0.56186 0.13027 0.5151 0.18954 0.40347 0.11539 0.15136 0.17087 0.14868 0.25678 0.1276 0.33509 0.084917 0.098415 0.011193 0.11078-0.01004 0.66945 0.22537 0.11884 0.066297-0.041588 0.046837-0.32907 0.17024 0.02675 0.048921-0.009372 0.10049-0.17477 0.38293-0.036473 0.1457-0.004849 0.13975 0.031243 0.21467 0.063754 0.21534 0.096188 0.19911 0.07511 0.088253 0.07481 0.038607 0.09117-0.001299 0.37608-0.13833 0.17064 0.001766 0.20832 0.077144 0.46109 0.23971 0.2272 0.098457 0.31463 0.10266 0.25672 0.052652 0.011097 0.038152-0.034303 0.09926-0.095455 0.16828-0.36834 0.49724-1.1422 1.3741-0.39671 0.44779-0.63122 0.67226-0.65809 0.66338-1.2188 1.1634-0.71948 0.63052-2.0349 1.6706-0.66665 0.58771-2.6082 2.4538-0.65171 0.66535-0.44208 0.5326-0.22267 0.31452-0.26848 0.45008-0.19652 0.4175-0.13375 0.37807-0.087601 0.35559-0.063837 0.50465 0.008792 0.54549 0.043328 0.32017 0.057245 0.2643 0.11656 0.38902 0.113 0.30112 0.21585 0.49317 0.44829 0.94462 0.38316 0.68679 0.6603 0.93432 0.33871 0.53394 0.1955 0.42196 0.12454 0.38733 0.056765 0.32134-0.036343 0.45658-0.23752 0.43353-0.28853 0.30012-0.364 0.28837-0.56116 0.3636-0.63619 0.35791-0.70128 0.36351-1.5236 0.73634-3.2001 1.4662-1.0505 0.46458-0.81723 0.3409-1.3795 0.53828-3.3451 1.2483-1.5445 0.63083-0.90973 0.39938-1.8247 0.85704-1.7182 0.86564-1.5525 0.82101-2.2575 1.2227-0.15286-0.20293-0.11552-0.31166-0.067268-0.25106-0.086678-0.46095-0.0484-0.40264-0.024223-0.53166 0.039652-0.55189 0.04759-0.27362 0.094343-0.36779 0.10786-0.30942 0.19434-0.42136 0.21747-0.35746 0.29197-0.37462 0.55056-0.61283 0.29863-0.36777 0.24808-0.38235 0.1432-0.29479 0.083255-0.2318 0.080266-0.34429 0.040754-0.36188 0.006325-0.38126-0.024126-0.39328-0.063628-0.4872-0.18381-0.8749-0.16014-0.57257-0.29575-0.86656-0.19547-0.49428-0.35332-0.8181-0.40339-0.8643-1.0673-2.1692-0.2801-0.60908-0.30936-0.75778-0.11635-0.33047-0.18661-0.6319-0.37739-1.767-0.11178-0.44047-0.21011-0.61918-0.25697-0.61852-0.72019-1.5653-0.39172-0.79083-0.35685-0.66332-0.39516-0.66565-0.35607-0.53682-0.34626-0.46911-0.51637-0.63029-0.92361-1.0612-0.7179-0.78363-0.56633-0.58156-0.9717-0.93348-0.90797-0.82285-1.6043-1.3709-1.5326-1.259-1.3086-1.017-0.19725-0.18224-0.019906-0.094192 0.074661-0.09169 0.22721-0.11287 2.0579-0.61623 0.51512-0.18113 0.48166-0.24394 0.48296-0.38257 0.4282-0.4681 0.23945-0.31099 0.39069-0.62729 1.2938-2.4047 0.5213-0.84409 0.84673-1.241 0.31777-0.51663 0.26132-0.53414 0.17822-0.55332 0.063109-0.40205 0.016523-0.31587-0.009193-0.39392-0.027504-0.35908-0.12753-1.1881-0.018043-0.37746 0.020817-0.52509 0.17146-1.4684 0.038576-0.55178 0.003126-0.20679-0.070265-1.5215 0.043731-1.3149-0.013797-0.65508-0.049018-0.44547-0.075273-0.38045-0.10188-0.37121-0.12882-0.37779-0.40061-1.0288-0.14204-0.42186-0.087263-0.43503-0.003898-0.44067 0.058713-0.3152 0.11673-0.34936 0.12791-0.28904 0.39092-0.71553 0.81516-1.333 0.24576-0.4412 0.23107-0.48634 0.16395-0.46057 0.062779-0.25665 0.066865-0.70267-0.044212-0.7064-0.058755-0.39643-0.078234-0.36208-0.099865-0.35203-0.59413-1.6414-0.10397-0.35341-0.084045-0.35963-0.049997-0.27821-0.046358-0.70373 0.078854-0.7855 0.13862-0.59914 0.19522-0.58349 0.2488-0.54695 0.30294-0.48704 0.20553-0.25308 0.25956-0.27478 0.95804-0.90292 0.48086-0.4762 0.49208-0.53184 0.59099-0.69962 0.4234-0.54952 0.40752-0.5792 0.26945-0.41808 0.35854-0.60891 0.32334-0.62833 0.34117-0.7978 0.28869-0.79782 0.25067-0.76783 0.183-0.60726 0.16479-0.70066 0.078971-0.53312-0.016278-0.23321-0.69825 0.079366-1.5117 0.24471-0.88601 0.17411-0.92038 0.20859-0.93052 0.24604-0.64521 0.19455-1.3104 0.43676-1.2858 0.46122-3.1753 1.2074-1.6044 0.64455-0.98086 0.44932-1.3763 0.67451-0.85582 0.43231-1.5435 0.82028-0.88438 0.4278-1.1104 0.4932-0.81398 0.33327-0.54076 0.19785-0.57387 0.17968-0.66534 0.16938-0.65551 0.13948-0.91534 0.14426-0.66668 0.066138-1.9567 0.1323-3.3327 0.3805-0.66545 0.036712-0.54307-0.010539-0.70288-0.077129-0.39799-0.072723-0.45417-0.11633-0.38249-0.12851-0.5313-0.22531-0.47855-0.26025-0.30514-0.20063-0.30796-0.23444-0.3448-0.31075-0.27485-0.2992-0.23508-0.31478-0.21894-0.37534-0.48971-0.97218-0.37904-0.59109-0.46331-0.60039-0.53294-0.60608-0.59128-0.60854-0.64128-0.6077-0.68546-0.60311-0.72594-0.5939-0.76426-0.57882-1.0758-0.74517-0.59191-0.38669-0.90503-0.56758-0.90754-0.54168-3.3413-1.9062-0.27427 0.111-0.51054 0.24001-0.60246 0.31661-0.41216 0.23754-0.6232 0.38696-0.61038 0.4061-0.85156 0.60804-0.46741 0.35708-0.41954 0.34106-0.49038 0.43477-0.43565 0.43788-0.41485 0.49774-0.19595 0.28955-0.14447 0.26449-0.098781 0.24071-0.06334 0.24156-0.021465 0.21017 0.04929 0.36477 0.14315 0.33192 0.20852 0.2995 0.22692 0.26444 1.1191 1.1332 0.3547 0.4322 0.16731 0.29892 0.14622 0.379 0.14471 0.56869 0.028732 0.21172 0.0122 0.24707-0.036076 0.44706-0.090883 0.45866-0.26205 0.97823-0.12593 0.53388-0.072275 0.53707 0.00221 0.49588 0.049946 0.49609 0.30409 1.9625 0.022259 0.49423-0.084536 0.56985-0.060643 0.21941-0.24306 0.7115-0.13072 0.30104-0.16798 0.2923-0.19734 0.27194-0.40384 0.4457-0.36513 0.32796-0.19375 0.13791-0.19196 0.10405-0.15478 0.056798-0.23324 0.044048-0.50961 0.029894-0.29754 0.044104-0.37928 0.10622-0.88522 0.29016-1.5773 0.39772-0.58206 0.20553-0.38145 0.18916-0.48292 0.31532-0.98796 0.72807-0.65995 0.4259-1.1601 0.65992-0.33136 0.16918-0.19287 0.075818-0.084952 0.010864-0.17274-0.033172-0.40404-0.14889-0.55969-0.27365-0.79865-0.44022-0.50868-0.23712-0.26206-0.078257-0.52773-0.065407-1.1051-0.00744-0.53824-0.075435-0.52159-0.20093-0.34962-0.20032-0.33088-0.22391-0.56284-0.41915-0.28914-0.26102-0.15434-0.16946-0.31476-0.43743-0.30182-0.51723-0.76046-1.4397-0.24442-0.42006-0.26005-0.39562-0.17553-0.23204-0.36472-0.38917-0.41634-0.33351-0.42119-0.25403-0.61858-0.30549-0.59503-0.27315-0.60919-0.25084-0.72498-0.24296-0.7408-0.17311-2.2701-0.36424-1.339-0.14259-0.40353-0.00567-0.35949 0.029126-0.60139 0.10354-0.57792 0.15342-0.58963 0.18666-1.1355 0.38846-1.9607 0.73162-0.48188 0.16938-0.78574 0.24629-0.63504 0.15455-0.35898 0.067686-0.62174 0.083601-0.81926 0.037806-0.51808-0.025328-0.84736-0.13486-0.83672-0.2321-2.1879-0.8115-0.40464-0.1282-3.7534-1.045-0.11788-0.12314-0.18502-0.25626-0.094616-0.15928-0.1503-0.66476-0.046239-0.34535-0.014735-1.0151-0.020375-0.15817-0.082475-0.28677-0.10079-0.15827-0.13239-0.12346-0.15435-0.083356-0.16814-0.036102-0.17164 0.014184-0.74463 0.24449-0.21429 0.061392-0.21362 0.040084-0.21323-0.006321-0.17763-0.055879-0.17704-0.096711-0.17586-0.12881-0.17408-0.15378-0.36128-0.38125-0.54806-0.64845-0.38943-0.42116-0.19786-0.16924-0.20004-0.12485-0.20189-0.064341-0.18236 0.00478-0.18307 0.053361-0.36582 0.19769-0.32042 0.24254-0.1737 0.16688-0.49014 0.54192-0.3791 0.34012-0.207 0.14804-0.21543 0.12446-0.64533 0.27723-0.20889 0.11438-0.37588 0.25768-0.19385 0.17229-0.087203 0.1387-1.2627 1.5707-0.42832 0.57814-0.40325 0.58638-0.43385 0.71358-0.24419 0.47024-0.26397 0.59665-0.25249 0.7041-0.1328 0.47647-0.083031 0.46695-0.02195 0.48902 0.031753 0.49003 0.06301 0.44236 0.15752 0.64153 0.22642 0.65252 0.27198 0.643 0.31099 0.64634 0.62166 1.1463 0.69645 1.1632 1.7496 2.7991 0.2938 0.504 0.37474 0.71523 0.34177 0.78792 0.16611 0.46696 0.16389 0.66859 0.046222 0.6677-0.034321 0.35357-0.086859 0.41246-0.1516 0.47996-0.21628 0.5332-0.44788 0.90953-0.70146 1.2105-0.50614 0.77148-0.52812 0.66815-0.56059 0.61501-0.74916 0.70026-0.28429 0.2823-0.22994 0.2661-0.15314 0.22203-0.078826 0.14669-0.090536 0.25209-0.035395 0.25042 0.001543 0.1343 0.040773 0.25966 0.10371 0.33609 0.62979 1.7284 0.10542 0.39328 0.055725 0.57486-0.020174 0.40695-0.063519 0.39852-0.44296 1.6198-0.062936 0.35914-0.029398 0.36578 0.005947 0.33531 0.08574 0.97514 0.0234 0.52392 0.029356 1.6521 0.03532 0.45446 0.050933 0.37561 0.1451 0.78515 0.065093 0.20412 0.084539 0.18864 0.14298 0.22657 0.14247 0.15772 0.17945 0.14299 0.21613 0.12001 0.24643 0.086196 0.27439 0.057982 0.47981 0.054184 1.4186 0.10875 0.74152 0.12188 2.1978 0.52784 0.56153 0.14715 0.60462 0.19632 1.0533 0.39573 0.44489 0.20501 0.4032 0.25926 0.39696 0.39353 0.33201 0.48481 0.23405 0.46226 0.20499 0.50016 0.324 0.9335 0.30609 1.0362 0.17336 0.80787 0.054661 0.41993 0.020166 0.55069-0.029497 0.45409-0.055923 0.40899-0.071695 0.37758-0.14008 0.57724-0.16446 0.53998-0.17417 0.46564-0.26775 0.61605-0.55185 1.1937-0.21077 0.56253-0.074037 0.27755-0.053019 0.30665-0.018008 0.26261 0.007737 0.22919 0.096929 0.50336 0.2086 0.55433 0.23334 0.47573 0.55523 1.0569 0.21248 0.51727 0.037767 0.15106-0.005143 0.070617-1.4104 0.855-1.7898 1.0247-1.3182 0.70157-1.1743 0.56511-0.51438 0.21958-0.55438 0.20818-0.53938 0.16456-0.66024 0.13028-0.62774 0.018547-0.5677-0.10231-0.54147-0.18464-1.0345-0.44936-0.98191-0.40855-0.49874-0.19025-0.86811-0.24222-0.43184-0.14604-0.43082-0.20647-0.42631-0.25347-1.2811-0.8413-1.0363-0.59941-0.5252-0.26594-0.482-0.1821-0.71812-0.2074-1.8575-0.37732-0.43439-0.13032-0.40156-0.16506-0.80108-0.3815-0.53735-0.22334-1.46-0.56142-0.51755-0.22793-0.78373-0.39665-1.2175-0.6895-0.41942-0.20861-0.37306-0.15447-0.40008-0.11375-0.3447-0.043206-0.34719 0.004185-0.67915 0.061933-0.1242-0.019078-0.13588-0.37963-0.50907-1.1684-0.1916-0.50735-0.21516-0.7342-0.13023-0.6487-0.051733-0.414-0.02878-0.55574 0.002253-0.5662 0.053114-1.8297-0.001875-0.64141-0.020841-0.64588-0.050499-0.82464-0.16142-1.6511-0.11276-0.8923-0.2337-1.5812-0.21054-1.1969-0.25498-1.1941-0.19922-0.62549-0.22381-0.54535-0.19012-0.39485-0.20927-0.38901-0.26903-0.44826-0.32194-0.4607-0.48914-0.59503-0.42849-0.45034-0.3776-0.35613-0.42363-0.36729-0.97947-0.76957-1.8467-1.2848-0.4833-0.35439-0.81305-0.63822-2.2984-1.8714-1.2801-0.99018-2.5376-1.8518-1.0396-0.73044-1.1104-0.741-0.76653-0.46971-0.32837-0.18392-0.60967-0.30463-0.62132-0.25198-0.39626-0.12535-0.39523-0.09273-0.35372-0.051276-0.27365-0.015972-0.30366 0.010218-0.40666 0.069294-0.45271 0.16627-0.49101 0.27622-0.31222 0.21552-0.46067 0.3536-1.556 1.2848-0.91715 0.72042-1.5015 1.1145-2.2413 1.6023-1.1191 0.83326-1.967 1.5903-0.95679 0.75293-0.90879 0.66759-1.6383 1.1247-0.81386 0.59272-0.43335 0.34173-1.9157 1.6554-0.6158 0.44566-0.62871 0.32194-0.47502 0.1344-0.38651 0.056515-0.7243 0.031507-0.54035-0.006192-0.5389-0.049175-0.53275-0.12666-0.59963-0.27268-0.5609-0.3586-0.5636-0.4277-1.8616-1.5464-0.76821-0.57519-0.75235-0.47228-0.51197-0.25771-0.313-0.13428-0.49477-0.18028-0.41031-0.1215-0.52162-0.12241-0.78852-0.13216-0.99996-0.10306-1.4692-0.07513-1.9386-0.059652-0.61138-0.034807-0.69146-0.070841-0.56596-0.11334-0.38764-0.16636-0.15207-0.189 0.065168-0.19739-0.092916 0.018146-1.4132 0.45705-0.90092 0.272-0.90389 0.23829-0.44404 0.09601-0.43657 0.073711-0.42804 0.044583-0.41846 0.006698-0.37444-0.033769-0.36419-0.068257-0.35231-0.09827-0.33811-0.12604-0.32073-0.15367-0.29911-0.18321-0.27196-0.2167-0.27116-0.28974-0.2396-0.32509-0.21792-0.34781-0.79385-1.4165-0.20667-0.30936-0.22077-0.26525-0.24129-0.20206-0.26252-0.1203-0.27154-0.042962-0.26204 0.031725-0.23292 0.11008-0.10179 0.088694-0.14866 0.19366-0.1696 0.32267-0.23637 0.55222-0.12829 0.25615-0.15147 0.21493-0.18894 0.1489-0.16648 0.053089-0.18941 0.009269-0.28413-0.048442-0.30999-0.10708-0.54273-0.27236-0.36175-0.22206-0.67424-0.47469-0.56238-0.44625-0.42258-0.3671-0.10014 0.19237-0.16279 0.47897-0.1943 0.65052-0.19994 0.74436-0.41267 1.8354-0.10446 0.40362-0.20491 0.61886-0.28245 0.62484-0.33634 0.60154-1.1187 1.7351-0.24939 0.41004-0.45225 0.8187-0.19935 0.40429-0.69485 1.5734-0.45571 0.97336-0.18952 0.43939-0.1641 0.43381-0.1585 0.49876-0.1093 0.45814-0.11491 0.6797-0.10475 0.2689-0.19666 0.22117-0.28503 0.147-0.3794 0.057935-0.44703-0.018038-0.93254-0.13703-1.7203-0.31047-0.68146-0.16593-0.40341-0.13278-0.34456-0.1421-1.1762-0.58501-0.61575-0.28089-0.52917-0.19124-0.51085-0.14817-0.98289-0.21349-0.91101-0.13783-1.4917-0.14955-1.5151-0.090636-0.80104-0.015162-0.51515 0.020932-0.49289 0.057968-0.65498 0.16923-0.56707 0.29743-0.46696 0.45004-0.35442 0.54576-0.24572 0.56415-0.13318 0.48184-0.004072 0.26681-0.15185-0.017573-0.3854-0.08132-0.80591-0.20592-0.70849-0.21075-0.8735-0.29063-0.67996-0.24639-1.0451-0.41453-0.73466-0.31935-0.93953-0.4342-0.76316-0.39125-0.92144-0.52468-1.0161-0.6285-3.7722-2.4281-1.0325-0.68427-1.6009-1.1583-0.79981-0.60414-0.65759-0.53945-1.1349-1.0385-0.57127-0.56966-0.32697-0.37082-0.32167-0.42423-0.30926-0.49459-0.22307-0.45089-0.10326-0.26209-0.12274-0.40394-0.13292-0.7106-0.050807-0.56401-0.015747-0.50124 0.005946-0.50361 0.052982-0.8812 0.11466-0.9336 0.1472-0.74918 0.26355-1.0047 0.13044-0.57876 0.068803-0.55443 3.81e-4 -0.31279-0.055608-0.50358-0.16699-0.6704-0.17961-0.47762-0.2271-0.47117-0.3499-0.57266-0.15959-0.22005-0.69483-0.79125-0.67814-0.62804-0.79473-0.63976-0.87063-0.62127-0.49796-0.3293-1.0124-0.62751-0.78196-0.45813-2.8124-1.5768-1.2489-0.6594-2.3959-1.179-0.667-0.34847-0.42123-0.23934-0.57727-0.36621-0.29076-0.21019-0.28271-0.23068-0.24533-0.25127-0.040449-0.070359 0.004121-0.052717 0.94759-0.74798 0.53263-0.45216 0.54986-0.5049 0.53712-0.54579 0.4905-0.56296 0.45492-0.58498 0.41874-0.59791 0.38131-0.60467 0.34078-0.6076 0.2945-0.60847 0.23914-0.6086 0.17068-0.60893 0.084301-0.61021-0.019315-0.64644-0.10817-0.64807-0.17142-0.6487-0.21557-0.64868-0.24549-0.64821-1.3637-3.2166-0.24975-0.63164-0.2222-0.6231-0.18144-0.61074-0.12309-0.59302-0.041237-0.56793 0.071859-0.53284 0.20149-0.4724 0.30898-0.4325 0.25096-0.26728 0.31199-0.28051 0.36468-0.28708 1.2447-0.91049 0.23524-0.20825 0.21619-0.24972 0.1433-0.27514 0.054814-0.39552-0.069029-0.44262-0.17076-0.47849-0.25534-0.50377-0.32651-0.51841-0.40893-0.55289-0.45387-0.54757-0.47472-0.5289-1.2869-1.3262 0.2514-0.53029 0.33934-0.58292 0.37717-0.56181 0.34066-0.4075 0.24968-0.24853 0.30621-0.25438 0.23523-0.1637 0.86484-0.54214 0.40401-0.32165-0.056747-0.1963-0.056104-0.45918-0.037134-0.97739-0.095661-1.7097-0.022251-0.94034 0.038815-0.92338 0.10137-0.91091 0.14344-0.81973 0.14919-0.65822 0.27912-0.99029 0.26536-0.77435 0.2141-0.5476 0.25205-0.58005 0.33061-0.68012 0.23718-0.44236 0.44435-0.7555 0.7658-1.1635 0.61462-0.84744 0.69226-0.88686 2.1988-2.6316 0.54676-0.6811 0.50792-0.68153 0.43183-0.65146 0.36358-0.65635 0.27311-0.66338 0.15472-0.67289 0.02476-0.44565-0.028455-0.44962-0.10709-0.6227-0.13335-0.5168-0.15424-0.48822-0.2137-0.5639-0.86568-1.9432-0.25627-0.59792-0.17407-0.47642-0.11805-0.42352-0.092682-0.49307-0.045593-0.42995-0.011929-0.38062 0.012499-0.41064 0.051101-0.59572 0.22461-1.667 0.07528-0.81046 0.024041-0.96869-0.004496-0.60986-0.043254-0.99179-0.049313-0.56315-0.17932-1.5755-0.05355-0.69264-0.027485-0.61989-0.003666-0.63782 0.023004-0.57062 0.054892-0.65595 0.12929-1.1575 0.13685-0.79882 0.19993-0.8561 0.45529-1.7102 0.1217-0.56929 0.091228-0.53975 0.11457-0.85882 0.25162-2.0701 0.13999-0.88521 0.25151-1.1543 0.23861-0.84569 0.28213-0.82164 0.18098-0.45231 0.29404-0.62365 0.343-0.59758 0.51234-0.70381 0.62585-0.64823 0.88933-0.7329 0.97746-0.68701 0.74073-0.46385 0.60486-0.35291 1.778-0.99134 0.84194-0.49567 0.93038-0.60904 0.30656-0.22727 0.52542-0.44739 0.26171-0.25952 0.26638-0.29449 0.29395-0.36891 0.23442-0.34105 0.18492-0.3237 0.12165-0.29371 0.028856-0.18316-0.042371-0.095159-0.18137-0.1441-0.35506-0.36077-0.6095-0.671-0.87634-1.0038-1.5708-1.9202-0.51038-0.71307-0.23942-0.40527-0.24249-0.5284-0.16537-0.47188-0.51608-2.0027-0.13177-0.38828-0.1401-0.32533-0.14978-0.27758-0.26834-0.37468-0.19707-0.20802-0.35957-0.30517-0.33536-0.23804-0.62347-0.38843-1.2556-0.72014-2.0321-1.02-0.58731-0.31389-0.62515-0.36804-0.81156-0.54456-0.45732-0.35964-0.36771-0.3416-0.51232-0.56562-0.75776-0.9167-0.18065-0.24672-0.14161-0.23407-0.072671-0.15343-0.080776-0.24534-0.042056-0.27232 0.007517-0.33676 0.040824-0.24255 0.26058-0.84504 0.060298-0.27464 0.037785-0.33735-0.003216-0.36058-0.053956-0.97671-0.055467-0.35268-0.082129-0.29436-0.17382-0.3785-0.19588-0.30593-0.15431-0.19536-0.25234-0.26081-0.32886-0.27667-0.3965-0.28891-0.66148-0.43208-0.24854-0.13991 0.02838-0.13853 0.092918-0.22093 0.30349-0.57674 0.38141-0.57901 0.29334-0.36788 0.53138-0.57815 0.27514-0.2616 0.51618-0.44538 0.7146-0.51327 0.35575-0.21026 0.4667-0.23758 1.5215-0.71164 0.42596-0.19269 2.1115-0.88014 0.67459-0.31909 0.47523-0.25538 0.4308-0.28274 0.42495-0.36632 1.0542-1.1283 0.29825-0.25946 0.46906-0.26419 0.33248-0.082056 0.35004-0.027374 1.067 0.011907 0.31232-0.024032 0.30886-0.058852 0.40156-0.14819 0.38302-0.21999 0.36891-0.29101 0.3305-0.34378 0.23292-0.31358 0.19008-0.34158 0.17286-0.47368 0.12062-0.50826 0.2587-1.4245 0.077224-0.68552 0.079007-1.2231 0.011835-1.5097 0.041192-1.2076 0.27497-3.2216 0.12381-1.1195 0.084205-0.55126 0.17672-0.87391 0.73602-3.0067 0.34859-1.6394 0.10212-0.66694 0.10958-1.6745 0.14908 0.039209 0.22395 0.097407 0.44942 0.22239 0.72206 0.39998 1.607 0.98864 2.293 1.4826 0.78745 0.53175 0.77961 0.56014 1.9337 1.494 0.66709 0.49522 2.2208 1.5237 0.78478 0.51483 2.5974 1.4986 0.87902 0.56536 0.68206 0.4871 0.35297 0.2808 0.33008 0.29025 0.3067 0.30604 0.27046 0.31711 0.28996 0.43898 0.1927 0.46241 0.085986 0.57984-0.029788 0.60655-0.097715 0.62364-0.23743 1.2347-0.24196 1.0795-0.12274 0.63232-0.045847 0.63153 0.063653 0.60582 0.14298 0.60955 0.37078 1.2385" stroke="#bdc660"/>
    </defs>
    <g clip-path="url(#pe3bbb72ccf)">
     <use y="243.898845" fill="#bdc660" stroke="#bdc660" xlink:href="#m48a94cae1d"/>
    </g>
   </g>
  </g>
 </g>
 <defs>
  <clipPath id="pe3bbb72ccf">
   <rect x="7.2" y="7.2" width="357.12" height="229.5"/>
  </clipPath>
 </defs>
</svg>
