<?xml version="1.0" encoding="UTF-8"?>
<!DOCTYPE svg  PUBLIC '-//W3C//DTD SVG 1.1//EN'  'http://www.w3.org/Graphics/SVG/1.1/DTD/svg11.dtd'>
<svg width="370.52pt" height="280.51pt" version="1.1" viewBox="0 0 370.52 280.51" xmlns="http://www.w3.org/2000/svg" xmlns:xlink="http://www.w3.org/1999/xlink">
 <metadata>
  <rdf:RDF xmlns:cc="http://creativecommons.org/ns#" xmlns:dc="http://purl.org/dc/elements/1.1/" xmlns:rdf="http://www.w3.org/1999/02/22-rdf-syntax-ns#">
   <cc:Work>
    <dc:type rdf:resource="http://purl.org/dc/dcmitype/StillImage"/>
    <dc:date>2024-07-04T12:10:35.393406</dc:date>
    <dc:format>image/svg+xml</dc:format>
    <dc:creator>
     <cc:Agent>
      <dc:title>Matplotlib v3.7.1, https://matplotlib.org/</dc:title>
     </cc:Agent>
    </dc:creator>
   </cc:Work>
  </rdf:RDF>
 </metadata>
 <defs>
  <style type="text/css">*{stroke-linejoin: round; stroke-linecap: butt}</style>
 </defs>
 <g id="figure_1">
  <g id="patch_1">
   <path d="m0 280.51h370.52v-280.51h-370.52v280.51z" fill="none"/>
  </g>
  <g id="axes_1">
   <g id="PatchCollection_1">
    <defs>
     <path id="mc54dc76de4" d="m185.18-242.39 0.90717 0.89878 0.45354 0.43377 0.86543 0.78355 0.81273 0.67074 0.81246 0.64722 0.48862 0.37366 0.51938 0.37179 2.1973 1.5131 0.53446 0.39922 0.50758 0.41618 0.34646 0.31908 0.26512 0.27523 0.28413 0.34594 0.23997 0.36581 0.23081 0.4498 0.097517 0.23207 0.14656 0.42139 0.11616 0.42365 0.13523 0.58156 0.085665 0.42614 0.059077 0.4743 0.025288 0.69254-0.014694 0.44228-0.1156 1.4463-0.071014 1.1449-0.21589 2.1559-0.013487 0.33461 0.007095 1.4319-0.018062 1.1347-0.02989 0.57859-0.047514 0.58506-0.17063 1.7674-0.055735 1.0282-0.012409 1.0996 0.056075 1.0102 0.06642 0.6862 0.17622 1.3873 0.32308 2.1108 0.97784 5.8623 0.80196 4.6369 0.27567 1.7165 0.027238 0.070321 0.22891 0.16339 0.38732 0.21188 0.49229 0.24056 1.2791 0.57628 1.3996 0.58565 1.4211 0.56111 4.7597 1.8221 3.7179 1.4459 3.8374 1.5066 3.788 1.5155 2.4508 0.96706 6.0394 2.3523 6.7171 2.5968 1.9917 0.78178 1.9304 0.80271 1.6524 0.72089 1.0867 0.51428 0.54706 0.28392 0.53089 0.29826 0.49812 0.30687 0.47148 0.32373 0.43648 0.34312 0.39026 0.36639 0.32932 0.39505 0.2834 0.48669 0.19064 0.51079 0.10106 0.51406 0.0076 0.49646-0.085887 0.48143-0.11811 0.47114-0.071041 0.49363 0.036165 0.51854 0.13185 0.56167 0.20785 0.59689 0.26757 0.62496 0.31343 0.64568 0.34665 0.65769 0.73951 1.299 0.35847 0.59836 0.64278 1.0343 0.077901-0.07633 0.14444-0.077865 0.40341-0.16807 0.29126-0.096431 0.53755-0.1449 0.63763-0.1294 0.44227-0.060376 0.38892-0.033196 0.65725-0.022513 0.70981 0.010102 0.74594 0.046306 0.77495 0.076943 0.73476 0.12014 0.4824 0.11091 0.46019 0.1317 0.43498 0.14927 0.59633 0.24479 0.43011 0.2029 0.4376 0.18851 0.32495 0.091359 0.37786 0.042003 0.39164-0.010064 0.46194-0.062146 0.88858-0.18437 2.0724-0.35369 0.72682-0.10698 0.28936-0.025299 0.32929-0.004382 0.32343 0.024769 0.38618 0.071374 0.14631 0.038622 1.4289 0.47385 0.46486 0.11706 0.2924 0.052233 0.2878 0.030105 1.1899-0.003053 0.48534 0.036017 0.42873 0.053744 0.40134 0.076949 0.38616 0.1076 0.72199 0.28128 0.4458 0.15223 0.47094 0.13422 0.48334 0.11971 0.84072 0.18245 0.92104 0.18362 0.24536 0.031137 0.38381-0.002455 0.34809-0.073242 0.25168-0.0884 0.48971-0.22841 1.5809-0.89588 0.38993-0.19971 0.443-0.20903 0.68807-0.28482 0.4624-0.16203 0.33804-0.10494 0.69287-0.18773 0.65816-0.16316 0.82444-0.16479 0.74223-0.10862 1.1492-0.19063 0.53352-0.062188 0.84343-0.064467 0.52525-0.063494 0.76911-0.14205 0.75319-0.17888 0.4742-0.094125 0.74766-0.12356 0.65327-0.0857 0.30614-0.057881 0.22142-0.071764 0.36809-0.19692 0.78912-0.54986 0.38144-0.24836 0.73488-0.42965 0.3342-0.15633 0.34841-0.121 0.36176-0.07379 0.43188-0.014813 0.44196 0.053505 0.44543 0.11253 0.24608 0.085188 0.53091 0.2324 0.52264 0.27808 1.613 0.97714 1.1721 0.68421 0.29049 0.1563 0.53169 0.22187 0.58177 0.18218 0.61728 0.15736 1.2934 0.29381 0.65538 0.16308 0.64781 0.19345 0.62943 0.24144 0.14792 0.067633 0.57959 0.30579 0.55672 0.3503 0.5334 0.3847 0.50722 0.4119 0.47542 0.43436 0.43476 0.45424 0.38132 0.47345 0.31043 0.49376 0.2164 0.51686 0.10168 0.50187 0.031328 0.51631-2.94e-4 0.23408-0.070226 1.5602 0.006388 0.26346 0.019707 0.2088 0.030162 0.1701 0.06177 0.21376 0.13466 0.2908 0.16444 0.2425 0.37846 0.45222 0.14971 0.22074 0.068881 0.19562 5.59e-4 0.15997-0.046352 0.15022-0.084332 0.14618-0.13919 0.16783-0.1702 0.15829-0.13126 0.10341-0.42641 0.27984-1.3383 0.78734-0.18061 0.12431-0.12102 0.097929-0.12985 0.12552-0.12043 0.14435-0.11269 0.17342-0.070831 0.14254-0.12553 0.40107-0.052713 0.42956 0.01046 0.43584 0.06832 0.42003 0.12498 0.38107 0.1844 0.31668 0.094256 0.10557 0.092533 0.080414 0.15335 0.09918 0.21659 0.099668 0.18848 0.067771 0.27977 0.085594 0.27597 0.063694 0.46977 0.050164 0.15805 0.030644 0.33664 0.13277 0.23601 0.1783 0.21207 0.22136 0.31671 0.38183 0.3435 0.37221 0.21478 0.25834 0.14674 0.26847 0.10165 0.33854 0.056536 0.4461-0.006965 0.50849-0.040142 0.34339-0.11184 0.51832-0.087084 0.28128-0.54158 1.3968-0.13005 0.41902-0.085536 0.37651-0.086139 0.51038-0.035007 0.43523 0.011556 0.31334 0.018654 0.13574 0.092785 0.35287 0.13644 0.33657 0.18437 0.36608 0.21607 0.33473 0.25486 0.27944 0.30345 0.19656 0.1748 0.059164 0.12183 0.02477 0.21252 0.019225 0.30182-0.011978 0.22274-0.032156 0.43149-0.10718 0.33736-0.12138 0.29613-0.13179 0.39978-0.21135 0.28196-0.17141 0.34507-0.23616 1.1208-0.8558 0.47518-0.33942 0.88699-0.59283 0.73514-0.45606 0.46273-0.25823 0.49761-0.24431 1.3205-0.55479 0.53308-0.24566 0.56516-0.29862 0.52228-0.32933 0.39683-0.29771 0.36696-0.31623 0.33174-0.32796 0.68992-0.76245 0.24023-0.22805 0.42701-0.32747 0.11368-0.069291 0.25236-0.12296 0.21081-0.068533 0.34134-0.048896 0.28691 0.004603 0.28621 0.046149 0.29173 0.081383 0.33985 0.1255 1.4012 0.62725 0.29724 0.11627 0.26542 0.083164 0.39306 0.063533 0.2338-0.011672 0.21948-0.056382 0.15754-0.076299 0.1018-0.069149 0.1531-0.13573 0.2243-0.26238 0.26797-0.38024 0.58484-0.89596 0.25585-0.35746 0.27412-0.35339 0.61393-0.72537 0.37654-0.40733 0.38037-0.37542 0.37155-0.32134 0.34798-0.25986 0.18184-0.11845 0.26976-0.14924 0.28025-0.11433 0.32071-0.06757 0.1605-0.004384 0.17116 0.016206 0.24952 0.059895 0.29437 0.12165 0.24691 0.14366 0.1124 0.078431 0.28586 0.23616 1.1075 1.1016 0.33355 0.34982 0.40802 0.473 0.38258 0.51284 0.27309 0.43 0.21303 0.39492 0.17987 0.38521 0.31302 0.72256 0.13705 0.27806 0.13306 0.23702 0.27508 0.41815 0.881 1.1968 0.1734 0.25931 0.10195 0.17641 0.06576 0.13296 0.14171 0.39613 0.22865 1.0446 0.069263 0.26052 0.099025 0.28871 0.11808 0.25952 0.23304 0.3722 0.29055 0.35884 0.33406 0.3525 0.36536 0.35297 0.96403 0.87218 0.85393 0.69509 0.57039 0.4398 0.85148 0.61786 2.3506 1.6608 1.1002 0.75414 1.0877 0.72818-0.041541 0.066106-0.15695 0.12362-0.34917 0.23555-1.5989 0.9892-0.42948 0.28357-0.41668 0.3005-0.4668 0.38398-0.42752 0.41508-0.30085 0.34522-0.27231 0.36279-0.26525 0.41416-0.23242 0.42978-0.20347 0.44938-0.1746 0.45966-0.13236 0.4084-0.11775 0.41173-0.40467 1.6008-0.11716 0.42226-0.12933 0.41174-0.14911 0.4043-0.1718 0.38597-0.18485 0.33945-0.21042 0.31607-0.27995 0.33423-0.31787 0.29067-0.34366 0.23268-0.25931 0.1332-0.2732 0.11195-0.37828 0.12024-0.39421 0.095353-0.52034 0.095777-1.5933 0.2257-0.51735 0.085362-0.53542 0.1075-0.53043 0.13123-0.53732 0.16472-0.52559 0.19919-0.437 0.20114-0.42419 0.23077-0.43763 0.28013-0.42114 0.31302-0.3329 0.28016-0.32222 0.29984-0.40813 0.4215-0.39317 0.4493-0.63748 0.81058-1.454 2.0147-0.6375 0.84899-0.50099 0.61583-0.18687 0.20631-0.095845 0.089968-0.047782 0.019201-0.074484 0.046578-0.19436 0.19523-0.3103 0.3591-0.22318 0.28892-0.22794 0.3232-0.30534 0.48532-0.37465 0.70342-0.27276 0.61829-0.22896 0.63172-0.14187 0.48499-0.11133 0.48407-0.072132 0.4334-0.042402 0.42862-0.00976 0.42959 0.024191 0.42086 0.11636 0.68214 0.1076 0.37227 0.13609 0.35723 0.24827 0.49217 0.30202 0.45132 0.30406 0.35494 0.34037 0.31543 0.42622 0.30344 0.46557 0.24405 0.53652 0.19359 0.56641 0.13316 0.68047 0.093501 0.69847 0.049197 1.3705 0.048959 0.63141 0.039583 0.62544 0.069149 0.47607 0.081021 0.46693 0.10822 0.45487 0.13824 0.60433 0.24556 0.56868 0.30711 0.52754 0.36926 0.47745 0.42561 0.33456 0.37232 0.29324 0.40397 0.29212 0.52694 0.22478 0.56267 0.12553 0.4469 0.088398 0.45915 0.052744 0.46786 0.014665 0.67456-0.053695 0.67708-0.079099 0.47542-0.11124 0.47008-0.14204 0.46214-0.1506 0.39903-0.17317 0.38904-0.26708 0.50464-0.30444 0.4788-0.30142 0.39968-0.32831 0.3718-0.35033 0.33724-0.37355 0.30195-0.39849 0.26324-0.41905 0.21706-0.55576 0.19968-0.5782 0.1098-0.4777 0.018257-0.48328-0.040313-0.57561-0.11493-0.5762-0.17106-0.53644-0.19489-1.6832-0.68708-0.47368-0.177-0.47874-0.15721-0.5202-0.13904-0.52547-0.10336-0.55847-0.065685-0.55975-0.019556-0.46402 0.020024-0.46105 0.052446-0.40673 0.073606-0.40178 0.097868-0.57913 0.18562-0.56279 0.23131-0.46828 0.23345-0.45079 0.26306-0.40652 0.27427-0.38499 0.29876-0.27948 0.24657-0.26326 0.25995-0.22925 0.25328-0.21239 0.26356-0.22641 0.32381-0.19678 0.33694-0.15857 0.33926-0.15966 0.48959-0.085747 0.54291-0.007858 0.33808 0.047912 0.49879 0.11208 0.49892 0.13921 0.42309 0.15586 0.3783 0.18122 0.37454 0.31154 0.55261 0.34889 0.54443 1.1443 1.6528 0.3536 0.57309 0.19338 0.35233 0.1768 0.35985 0.24041 0.58443 0.18421 0.59798 0.087328 0.40708 0.054836 0.40759 0.011219 0.68853-0.10344 0.66118-0.10506 0.33212-0.13492 0.30514-0.29913 0.46279-0.21241 0.22327-0.1895 0.13144-0.13588 0.013724-0.10225 0.015108-0.14135 0.11002-0.16677 0.18759-0.17555 0.24865-0.16621 0.28642-0.15303 0.32258-0.15436 0.4229-0.14465 0.62473-0.0566 0.59827 0.012168 0.61264 0.049689 0.49174 0.076542 0.49358 0.1811 0.87579 0.53561 2.0945 0.12599 0.54145 0.08173 0.41402 0.063768 0.40969 0.038715 0.36569 0.017576 0.36077-0.028435 0.61852-0.11316 0.60294-0.099165 0.31272-0.12526 0.29886-0.25153 0.44146-0.28239 0.35916-0.3053 0.29234-0.31606 0.23244-0.47509 0.25549-0.46322 0.16895-0.37843 0.090502-0.39017 0.055865-0.63997 0.01918-0.62087-0.061778-0.54678-0.1137-0.5445-0.16144-0.5061-0.18832-0.50132-0.21575-1.3935-0.67466-0.83462-0.38175-0.44938-0.1814-0.45315-0.16094-0.4506-0.1339-0.39854-0.092079-0.39288-0.060862-0.37053-0.024049-0.35999 0.013032-0.29416 0.042434-0.28131 0.072637-0.39765 0.17136-0.43332 0.31867-0.19671 0.21456-0.17061 0.24158-0.1461 0.26961-0.12034 0.29074-0.11752 0.39051-0.084317 0.41286-0.054022 0.41099-0.034346 0.42356-0.077719 2.2733-0.035103 0.59866-0.1015 1.1107-0.066504 0.5146-0.080311 0.51244-0.094337 0.50659-0.10871 0.50344-0.13499 0.54677-0.15002 0.5428-0.17562 0.5776-0.18943 0.57336-0.23234 0.65258-0.47596 1.2417-0.44753 1.0813-0.42455 0.94133-0.3856 0.78334-0.43428 0.80897-1.0275 1.7478-0.57789 1.0175-0.30308 0.58422-0.16925 0.35737-0.15487 0.35856-0.20518 0.55634-0.15235 0.55695-0.089397 0.59583-0.002198 0.58518 0.061546 0.42082 0.11732 0.404 0.18427 0.40005 0.24471 0.36974 0.2404 0.2733 0.27399 0.25032 0.32134 0.24078 0.34841 0.2183 0.42274 0.2242 0.44424 0.20453 1.6418 0.6645 0.49646 0.21566 0.43901 0.20972 0.42724 0.22677 0.45874 0.27612 0.43408 0.30254 0.33872 0.27456 0.31364 0.29584 0.30337 0.34052 0.26752 0.36415 0.1904 0.31491 0.16341 0.32802 0.1559 0.39943 0.11512 0.41271 0.071014 0.41805 0.027832 0.42583-0.024568 0.5207-0.085052 0.52371-0.1314 0.4902-0.17432 0.48908-0.1949 0.45504-0.22017 0.45504-0.29262 0.55212-1.7715 3.0809-0.48978 0.9344-0.24548 0.51047-0.22656 0.50816-0.20298 0.49908-0.203 0.56427-0.15786 0.51183-0.097991 0.38851-0.046728 0.27696 0.020476 0.11389-0.084704 0.019257-0.22296 0.10338-0.81757 0.41043-0.61943 0.24478-0.69909 0.23273-0.42272 0.11973-0.5471 0.12687-0.39953 0.074458-0.49745 0.075335-0.60409 0.066164-1.0147 0.044956-0.5947 4.9e-4 -0.24096-0.017024-0.19383-0.028698-0.18373-0.044913-0.23785-0.092127-0.28823-0.17994-0.17864-0.16698-0.21564-0.28912-0.16906-0.3172-0.26189-0.57025-0.073168-0.11597-0.11301-0.13232-0.20554-0.161-0.57689-0.32345-0.3614-0.17851-0.37398-0.15599-0.3722-0.11057-0.15941-0.027306-0.21948-0.009224-0.2182 0.028956-0.19899 0.064771-0.26026 0.13932-0.16609 0.12426-0.14317 0.1317-0.21134 0.23716-0.1733 0.23719-0.1583 0.25402-0.47087 0.85762-0.12619 0.20912-0.21701 0.30443-0.18732 0.21173-0.21803 0.20242-0.26192 0.19438-0.13645 0.083468-0.30296 0.15163-0.62271 0.27869-0.31343 0.15692-0.3866 0.2239-0.219 0.15891-0.17345 0.15265-0.15502 0.16372-0.13463 0.17393-0.10858 0.17964-0.13666 0.34324-0.10985 0.34196-0.07001 0.16845-0.071858 0.13091-0.11474 0.15694-0.11137 0.12188-0.2185 0.20242-0.31016 0.25254-1.0576 0.72622-0.65526 0.49419-0.349 0.21781-0.3691 0.16358-0.39441 0.1347-1.2712 0.41096-0.52416 0.12203-1.0679 0.20754-0.51109 0.13668-0.34062 0.12634-0.85351 0.39339-0.36281 0.12691-0.13544 0.02779-0.29308 0.011634-0.28688-0.055423-0.090241-0.032589-0.15073-0.07098-0.2343-0.15047-0.24194-0.21705-0.23101-0.30055-0.18605-0.34345-0.14402-0.36235-0.24107-0.69433-0.13841-0.30001-0.24336-0.32-0.35827-0.22476-0.45385-0.13762-0.5252-0.072513-0.57775-0.02451-0.61592 0.010381-0.64321 0.035339-1.338 0.11777-2.0684 0.23211-4.8736 0.58463-2.0774 0.26325-1.3746 0.20152-0.68203 0.11708-0.58074 0.11374-0.57581 0.1302-0.56946 0.15163-0.6273 0.19942-0.61896 0.22679-0.61184 0.24894-0.62953 0.2779-1.2448 0.59425-3.0492 1.5249-0.59221 0.27172-0.59884 0.24489-0.50181 0.17198-0.67294 0.17438-0.48836 0.094613-0.49438 0.075485-0.51187 0.061633-0.97339 0.08335-0.87747 0.05002-2.4066 0.094578-1.6786 0.043527-1.2234 0.006466-0.70677-0.013183-0.91162-0.045648-0.39196-0.031706-0.67376-0.077366-0.53528-0.086557-0.64448-0.13722-0.65032-0.16934-0.83125-0.25143-0.76172-0.25558-0.75116-0.26954-0.7251-0.27301-1.678-0.66282-0.17172-0.057463 0.27839-2.9488 0.6533-7.6577 0.13956-1.436 0.060847-0.46294 0.074941-0.44834 0.095697-0.42707 0.12561-0.39652 0.16798-0.35328 0.2271-0.29291 0.29021-0.21256 0.34805-0.15433 0.39172-0.1115 0.42471-0.080476 0.44983-0.058436 0.46924-0.043197 0.98168-0.060023 2.0736-0.09994 1.0484-0.076415 0.50439-0.053529 0.47146-0.067981 0.41375-0.085478 0.31957-0.10383 0.15345-0.088854 0.03308-0.079335-3.8492-2.9837-11.034-8.6922-3.6481-2.8366 0.06858-0.065287 0.18686-0.11764 0.93892-0.5138 0.39725-0.23984 0.25096-0.16545 0.38151-0.28025 0.41045-0.33184 0.27434-0.24489 0.22515-0.22783 0.28314-0.34744 0.29829-0.42829 0.17469-0.28742 0.33462-0.60163 0.20976-0.33268 0.92308-1.2734 0.39708-0.58515 0.31533-0.43413 0.28978-0.35798 1.046-1.2286 0.78473-0.80404 0.10581-0.13032 0.10447-0.16284 0.10617-0.24421 0.055682-0.22151 0.01771-0.19973-0.009807-0.51893 0.017644-0.17726 0.049985-0.20456 0.055273-0.14809 0.15778-0.3019 0.15376-0.2337 0.60563-0.82638 0.25834-0.3804 0.16521-0.27691 0.1711-0.34203 0.1231-0.31041 0.1074-0.38157 0.048793-0.32101 0.013132-0.22849-0.002332-0.26323-0.020174-0.28541-0.038135-0.26034-0.11863-0.41176-0.08884-0.18539-0.060805-0.099012-0.12484-0.16035-0.16388-0.1555-0.18279-0.12693-0.13934-0.072666-0.23317-0.082284-0.18726-0.021627-0.053376 0.007722-0.020774 0.020794-0.038998-0.018216-0.23663-0.039991-1.692-0.19399-1.1304-0.16326-3.6994-0.67573-0.50875-0.10775-0.44814-0.11954-0.30097-0.10228-0.32751-0.13726-0.58901-0.31855-0.56288-0.37288-1.6165-1.1976-0.53859-0.3489-0.55012-0.28156-0.56961-0.18243-0.57975-0.058318-0.59999 0.038741-0.61475 0.10964-0.62535 0.16074-0.63286 0.19708-0.63807 0.22251-0.64162 0.23998-1.2894 0.5111-6.4673 2.6794-2.5868 1.0435-1.2962 0.48757-0.64969 0.22516-0.58843 0.18708-0.58997 0.16633-0.59184 0.13905-0.59413 0.10338-0.59696 0.057028-0.68162-7.84e-4 -0.68452-0.055638-0.68592-0.09223-2.0502-0.34776-0.67415-0.093175-0.66484-0.05589-0.65145 0.001244-0.63273 0.083079-0.59625 0.17957-0.5782 0.26013-0.56509 0.31944-0.55572 0.3625-0.54912 0.3933-0.54448 0.415-1.0795 0.87073-1.5967 1.3602-1.0346 0.93384-0.49889 0.47891-0.4791 0.49128-0.34547 0.38469-0.41158 0.51568-0.36368 0.54593-0.31773 0.60607-0.267 0.63834-0.23001 0.66302-0.20355 0.68219-0.18506 0.69749-0.33704 1.4317-0.31714 1.4743-1.4195 6.8972-0.26269 1.2224-1.9555 8.5693-0.15638-0.008276-0.40266-0.052675-3.3499-0.47201-2.1646-0.28552-1.3893-0.15286-0.67435-0.055291-0.65909-0.033854-0.64173-0.004404-0.62124 0.035793-0.59626 0.090226-0.56504 0.16329-0.53245 0.25299-0.5027 0.32509-0.48084 0.37722-0.46485 0.41451-0.45312 0.44093-0.44443 0.45952-0.87027 0.95451-1.371 1.5725-0.89762 0.98004-1.4421 1.4964-3.8095 3.8848-1.4843 1.5677-0.94179 1.0595-0.42144 0.50998-0.38582 0.50512-0.23026 0.33283-0.13788 0.23238-0.019299 0.0708-23.259-7.0028-1.855-0.51812-1.2612-0.31627-1.2692-0.27588-1.1419-0.19889-1.1485-0.15708-0.57631-0.063003-1.3114-0.10383-1.3154-0.058464-0.68939-0.013886-1.3804-0.002535-2.5394 0.046983-10.791 0.30014-4.8081 0.10762-2.0989 0.035803 0.060514-0.19049-0.034969-0.30652-0.061124-0.21462-0.088873-0.22192-0.17732-0.31654-0.17296-0.22318-0.2034-0.19263-0.26349-0.17152-0.39206-0.16675-0.34034-0.10344-0.88101-0.21584-0.27178-0.087383-0.29063-0.14659-0.189-0.17552-0.11621-0.2864 0.013257-0.30506 0.10865-0.38181 0.1184-0.29947 0.37783-0.85168 0.23668-0.5699 0.23786-0.66878 0.11132-0.379 0.092384-0.3817 0.14684-0.85071 0.051291-0.39969 0.035276-0.38848 0.008939-0.18087-0.014687-0.5687-0.068693-0.55839-0.049834-0.26421-0.10452-0.39294-0.11459-0.32915-0.19572-0.48058-0.265-0.58855-0.9259-1.9346-0.71811-1.4108-0.5078-0.90147-0.28281-0.4586-0.29432-0.44536-0.24327-0.3446-0.51564-0.66633-0.5893-0.67018-0.31647-0.32986-0.92315-0.91554-0.25206-0.3164-0.16643-0.26838-0.64728-1.1849-0.25648-0.57112-0.25213-0.73736-0.13938-0.49606-0.15605-0.7232-0.16327-1.026-0.4223-2.9354-0.21325-1.6775-0.068506-0.73565-0.040706-0.71518-0.012376-0.68566 0.0055-0.4528 0.031937-0.7913 0.038601-0.60497 0.15869-1.8262 0.86911-8.6305 0.24575-2.2609 0.1945-1.6111 0.052566-0.48103 0.095877-0.60388 0.12996-0.65214 0.076224-0.32668 0.15167-0.56263 0.89712-3.0184 0.27053-0.97509 0.17303-0.68927 0.14216-0.65322 0.1012-0.61866 0.03157-0.30918 0.013872-0.30928-0.01113-0.37998-0.036223-0.3804-0.12163-0.76239-0.15852-0.76523-0.52467-2.3209-0.36852-1.7538-0.23362-0.91745-0.046244-0.28666 0.008005-0.28592 0.052378-0.28966 0.082326-0.27881 0.096104-0.24781 0.089831-0.18847 0.058975-0.090505-0.056917-0.041673-0.15125-0.017382-0.28035 0.017977-0.30836 0.052714-0.34872 0.093976-0.50704 0.19661-0.7879 0.373-0.49736 0.21661-0.37828 0.1436-0.3505 0.10431-0.28857 0.057718-0.27006 0.027991-0.31333-0.001464-0.24599-0.024194-0.24669-0.040621-0.39442-0.090918-0.39515-0.11552-0.38893-0.1312-0.74243-0.27903-1.388-0.54967-2.1775-0.79531-0.8681-0.33644-1.0761-0.4574-0.76834-0.3686-0.53773-0.29309-0.41615-0.2583-0.52543-0.37361-0.68352-0.55006-0.77441-0.67503-1.1771-1.0738-2.392-2.2163-0.61343-0.55798-0.18313-0.15261-8.7338-15.693-1.0717-1.8802-0.73875-1.2385-0.38347-0.61119-0.38298-0.58408-0.79417-1.1544-1.2358-1.7208-7.3736-10.018 0.20977-0.43648 0.18904-0.48189 0.084567-0.34552 0.018578-0.18039 0.002211-0.18002-0.020762-0.27641-0.10147-0.77796-0.059632-0.74404-0.25608-4.3452-0.065179-1.4667-0.070773-1.1133-0.095696-2.2421-0.12164-4.2261-0.072503-4.1901 0.001886-1.4116 0.023808-1.5632-0.002295-0.65598-0.014822-0.65506-0.030389-0.65277-0.06435-0.78646-0.076171-0.59809-0.10248-0.57319-0.088988-0.38386-0.11163-0.39841-0.22182-0.63073-0.28248-0.62584-0.20498-0.38882-0.22112-0.38193-0.26878-0.4273-0.28347-0.42048-0.55566-0.77014-1.067-1.3999-1.6751-2.1293-2.1959-2.7113-1.3355-1.6061-0.91214-1.0442-0.4692-0.506-0.48281-0.48921-0.50158-0.46592-0.52711-0.43403-0.5762-0.40752-0.602-0.37619-1.8746-1.058-0.62088-0.36507-0.60378-0.39069-0.57484-0.43071-0.16811-0.14252-0.31876-0.29733-0.25636-0.26419-0.35984-0.4048-0.48574-0.59508-1.0912-1.3995-0.20683-0.2501-0.38477-0.43291-0.26402-0.26963-0.27083-0.25037-0.27774-0.2268-0.2829-0.19794-0.49087-0.26586-0.45446-0.17029-0.35891-0.074958-0.18574 0.032441-0.61835-3.1441-0.2578-1.4769-0.1026-0.66259-0.16692-1.3097-0.057903-0.64585-0.0366-0.61182-0.029432-0.82283-0.015059-1.4769 0.012454-1.455 0.19646-10.657 0.034815-1.4087 0.062222-1.3982 0.051234-0.69148 0.073099-0.68316 0.10423-0.67126 0.14785-0.65454 0.20807-0.63137 0.28213-0.60301 0.34362-0.57995 0.38935-0.56362 0.42319-0.55255 0.44823-0.54561 0.46689-0.54194 0.97328-1.0829 5.1742-5.5669 1.7243-1.871 0.23291-0.043488 1.0539-0.35269 1.4047-0.50549 4.4493-1.6353 1.4228-0.50299 0.70005-0.23393 0.69401-0.21711 0.68915-0.19459 0.68544-0.16427 0.68288-0.12349 0.68143-0.06892 0.60545-0.006093 0.6045 0.03672 0.65795 0.075546 0.64126 0.10209 0.6404 0.12473 0.70566 0.15704 1.213 0.29202 6.3537 1.6085 1.9537 0.45955 0.65154 0.13594 0.65182 0.12124 0.65223 0.10104 0.65279 0.073644 0.65357 0.036924 0.5458-0.003082 0.54646-0.028973 0.86137-0.08326 0.61114-0.079152 1.2221-0.19058 2.4333-0.43816 0.88551-0.14549 1.0125-0.13816 1.0783-0.10241 0.83745-0.045296 1.3268-0.025012 1.3327 0.009964 3.3362 0.069327 0.9296 0.004608 0.53806-0.008959 0.53278-0.021947 0.441-0.031405 0.43454-0.045954 0.66207-0.10738 0.50126-0.11998 0.393-0.12609 0.25563-0.10217 0.49753-0.24888 0.41611-0.26663 0.22116-0.16773 0.33294-0.29377 0.27096-0.27977 0.31034-0.36968 0.16137-0.22508 0.23762-0.41182 0.23771-0.54287 0.21168-0.60224 0.31594-1.0122 0.49891-1.5202 0.54944-1.7641 0.099565-0.26677 0.10762-0.22702 0.12424-0.20374 0.12372-0.1543 0.1524-0.14239 0.13498-0.092195 0.4316-0.15831 0.51056-0.05167 0.56833 0.026066 0.60995 0.081858 0.63945 0.1212 0.65996 0.1484 0.6739 0.16674 1.3721 0.36488 6.2466 1.7252 6.2136 1.6809 5.0941 1.406 1.6065 0.46888 2.1181 0.66844 2.9272 0.97051 5.6225 1.8952 1.6806-2.4267 0.81103-1.1242 1.2519-1.6941 2.7983-4.088 0.39625-0.54099 0.42051-0.5184 0.22496-0.24141 0.23917-0.22113 0.25775-0.19145 0.28144-0.14945 0.1362-0.05032 0.29931-0.072799 0.33265-0.036283 0.20508-0.003463 0.40008 0.028827 0.65988 0.1161 0.03725-0.072428 0.47951-1.2326 0.33568-0.79469 0.31536-0.65284 0.21328-0.3738 0.33755-0.47623 0.22374-0.24832 0.51636-0.42623 0.58552-0.34225 0.63369-0.27872 0.66581-0.23202 0.68626-0.19845 0.69851-0.17487 0.70507-0.15891 2.82-0.58232 0.69317-0.15507 0.6518-0.16082 0.64-0.17926 0.6243-0.20491 0.6035-0.23986 0.57604-0.28675 0.54414-0.3434 0.51782-0.38883 0.49925-0.42088 0.48678-0.44227 0.95425-0.91586 0.97024-0.95863 0.46578-0.48841 0.44095-0.50119 0.40465-0.5204 0.35418-0.54747 0.25088-0.48449 0.61637-1.4283 0.19086-0.414 0.26408-0.51363 0.28853-0.49537 0.31269-0.47163 0.33975-0.44748 0.35495-0.41767 0.36069-0.38741 0.3577-0.3543 0.35285-0.31207 0.37656-0.24711 0.27385-0.11461 0.29556-0.079724 0.24508-0.041322 0.37128-0.030555 0.38775-7.07e-4 0.49023 0.032638 0.5055 0.061099 0.51738 0.081917 0.56514 0.10427 1.1512 0.24273 1.7627 0.41712 3.8531 0.96418 1.3722 0.36273 0.67248 0.19433 0.65769 0.20984 0.63664 0.23284 0.60716 0.26587 0.56648 0.31221 0.5111 0.37597 0.43538 0.44308 0.38456 0.50325 0.35038 0.54556 0.33011 0.57354 0.64688 1.1858 0.3389 0.59338 0.33712 0.5461 0.3547 0.53792 0.36846 0.53117 0.37918 0.52562 0.78172 1.0382 0.80363 1.0245 1.185 1.4503 1.1494 1.3308 1.1971 1.3207 1.3449 1.4261 1.3575 1.3939" stroke="#bdc660"/>
    </defs>
    <g clip-path="url(#p10abad4575)">
     <use y="280.512" fill="#bdc660" stroke="#bdc660" xlink:href="#mc54dc76de4"/>
    </g>
   </g>
  </g>
 </g>
 <defs>
  <clipPath id="p10abad4575">
   <rect x="7.2" y="7.2" width="356.12" height="266.11"/>
  </clipPath>
 </defs>
</svg>
