<?xml version="1.0" encoding="UTF-8"?>
<!DOCTYPE svg  PUBLIC '-//W3C//DTD SVG 1.1//EN'  'http://www.w3.org/Graphics/SVG/1.1/DTD/svg11.dtd'>
<svg width="260.09pt" height="280.51pt" version="1.1" viewBox="0 0 260.09 280.51" xmlns="http://www.w3.org/2000/svg" xmlns:xlink="http://www.w3.org/1999/xlink">
 <metadata>
  <rdf:RDF xmlns:cc="http://creativecommons.org/ns#" xmlns:dc="http://purl.org/dc/elements/1.1/" xmlns:rdf="http://www.w3.org/1999/02/22-rdf-syntax-ns#">
   <cc:Work>
    <dc:type rdf:resource="http://purl.org/dc/dcmitype/StillImage"/>
    <dc:date>2024-07-04T12:10:35.045077</dc:date>
    <dc:format>image/svg+xml</dc:format>
    <dc:creator>
     <cc:Agent>
      <dc:title>Matplotlib v3.7.1, https://matplotlib.org/</dc:title>
     </cc:Agent>
    </dc:creator>
   </cc:Work>
  </rdf:RDF>
 </metadata>
 <defs>
  <style type="text/css">*{stroke-linejoin: round; stroke-linecap: butt}</style>
 </defs>
 <g id="figure_1">
  <g id="patch_1">
   <path d="m0 280.51h260.09v-280.51h-260.09v280.51z" fill="none"/>
  </g>
  <g id="axes_1">
   <g id="PatchCollection_1">
    <defs>
     <path id="ma5ab09efb3" d="m116.94-254.5 0.8248 1.1485 0.53006 0.77046 0.25562 0.38984 0.25594 0.40793 0.49307 0.82666 0.71529 1.2549 5.8293 10.474 0.12223 0.10186 0.40943 0.37242 1.5965 1.4792 0.78566 0.71671 0.51687 0.45054 0.45621 0.36713 0.35069 0.24936 0.27775 0.1724 0.3589 0.19562 0.51282 0.24602 0.71825 0.30528 0.5794 0.22456 1.4534 0.53082 0.92642 0.36687 0.49553 0.18623 0.25959 0.087566 0.26374 0.077106 0.26325 0.060682 0.16465 0.027112 0.16418 0.016148 0.20913 9.77e-4 0.18025-0.018682 0.1926-0.038523 0.23394-0.069621 0.25248-0.095847 0.33196-0.14458 0.52588-0.24895 0.33842-0.13123 0.23275-0.062723 0.20581-0.035184 0.18712-0.011998 0.10095 0.011601 0.037989 0.027814-0.039363 0.060406-0.059957 0.12579-0.064143 0.1654-0.054948 0.18609-0.034959 0.19333-0.005343 0.19084 0.030865 0.19133 0.15592 0.61234 0.24596 1.1706 0.35019 1.549 0.1058 0.51074 0.081179 0.50885 0.024177 0.2539 0.007428 0.25362-0.009258 0.20642-0.021072 0.20636-0.067544 0.41292-0.094884 0.43598-0.11548 0.46004-0.18056 0.65081-0.59877 2.0146-0.10123 0.37552-0.050875 0.21804-0.086742 0.43526-0.063992 0.40306-0.035084 0.32106-0.12982 1.0753-0.16402 1.509-0.58008 5.7603-0.10592 1.2189-0.025763 0.40378-0.021316 0.52815-0.003672 0.30222 0.008261 0.45764 0.027169 0.47734 0.045723 0.491 0.14233 1.1196 0.28186 1.9592 0.10897 0.6848 0.10416 0.48269 0.093024 0.33109 0.16828 0.49215 0.17119 0.38119 0.43202 0.79086 0.11108 0.17913 0.16824 0.21118 0.61615 0.61107 0.21122 0.22016 0.39332 0.44731 0.34416 0.44473 0.16237 0.23 0.19644 0.29725 0.18876 0.30608 0.33892 0.60168 0.4793 0.94163 0.61798 1.2912 0.17687 0.39282 0.13063 0.32076 0.076483 0.21969 0.069762 0.26227 0.033262 0.17634 0.045848 0.3727 0.009803 0.37957-0.005967 0.12072-0.023544 0.25928-0.034234 0.26677-0.098006 0.5678-0.061661 0.25476-0.074299 0.25296-0.15876 0.44637-0.15797 0.38037-0.25218 0.56845-0.079026 0.19988-0.072516 0.25483-0.008849 0.20361 0.077561 0.19115 0.12615 0.11715 0.19398 0.097842 0.18139 0.058323 0.58802 0.14406 0.22716 0.069037 0.26168 0.1113 0.17587 0.11448 0.13576 0.12857 0.11544 0.14896 0.11835 0.21127 0.059317 0.14812 0.040797 0.14325 0.023339 0.20458-0.040389 0.12714 1.4009-0.023896 3.2091-0.071827 7.2024-0.20033 1.6949-0.031358 0.92132 0.001693 0.46012 0.009267 0.87796 0.039022 0.87526 0.069302 0.38465 0.04205 0.76657 0.10484 0.76213 0.13275 0.84713 0.18414 0.8418 0.21109 1.2381 0.34582 15.524 4.674 0.012881-0.047255 0.092025-0.1551 0.15369-0.22214 0.25751-0.33714 0.28129-0.34038 0.62859-0.70715 0.99066-1.0463 2.5426-2.5929 0.96251-0.99875 0.59911-0.65412 0.91509-1.0495 0.58085-0.63708 0.29663-0.3067 0.30243-0.29429 0.31026-0.27666 0.32093-0.25177 0.33552-0.21698 0.35538-0.16886 0.37713-0.10898 0.39797-0.060221 0.41464-0.023889 0.42831 0.002939 0.4399 0.022596 0.45009 0.036903 0.92725 0.10202 1.4447 0.19057 2.2359 0.31504 0.26875 0.035158 0.10437 0.005523 1.3052-5.7195 0.17533-0.81587 0.94742-4.6035 0.21167-0.98404 0.22495-0.9556 0.12352-0.46553 0.13586-0.45532 0.15352-0.44253 0.1782-0.42605 0.21207-0.40452 0.24273-0.36437 0.2747-0.34418 0.23058-0.25676 0.31977-0.3279 0.33298-0.31965 0.69053-0.62328 1.0657-0.90784 0.72051-0.58116 0.36341-0.27699 0.36651-0.2625 0.37091-0.24195 0.37716-0.21321 0.38591-0.17362 0.39796-0.11985 0.42231-0.05545 0.4348-8.31e-4 0.44374 0.037303 0.44996 0.062189 1.3684 0.23211 0.45781 0.061558 0.45688 0.037135 0.45494 5.23e-4 0.39844-0.038063 0.39655-0.068997 0.39502-0.092811 0.39377-0.11101 0.39274-0.12486 0.43363-0.15028 0.86513-0.32542 1.7265-0.69645 4.3165-1.7883 0.8606-0.34113 0.42824-0.16017 0.42587-0.14851 0.42239-0.13154 0.41738-0.10729 0.41031-0.073175 0.40046-0.025857 0.38695 0.038924 0.38018 0.12176 0.36717 0.18792 0.35948 0.23287 1.0789 0.79932 0.37569 0.24888 0.39313 0.21261 0.21859 0.091616 0.20088 0.068269 0.29911 0.079788 0.33956 0.071914 2.4691 0.45101 0.75444 0.10897 1.1293 0.12948 0.15794 0.026692 0.026028 0.012158 0.013866-0.013879 0.035625-0.005154 0.12499 0.014435 0.15562 0.054919 0.093004 0.048501 0.122 0.08472 0.10938 0.10378 0.083321 0.10702 0.040583 0.066084 0.059296 0.12374 0.079175 0.27482 0.025453 0.17376 0.013465 0.19049 0.001557 0.17569-0.008765 0.1525-0.032566 0.21426-0.071684 0.25468-0.082159 0.20718-0.1142 0.22828-0.11027 0.18482-0.17243 0.2539-0.40422 0.55156-0.10262 0.15598-0.10531 0.2015-0.036891 0.098839-0.033362 0.13654-0.011777 0.11831 0.006546 0.34636-0.01182 0.13331-0.037165 0.14785-0.070859 0.16299-0.069725 0.10868-0.070623 0.086982-0.52376 0.53665-0.69816 0.82002-0.19341 0.23893-0.21046 0.28975-0.26502 0.39055-0.6161 0.8499-0.14 0.22204-0.22334 0.40155-0.1166 0.19184-0.19909 0.28586-0.18898 0.2319-0.15027 0.15206-0.18311 0.16345-0.27395 0.22148-0.25464 0.18705-0.1675 0.11043-0.26514 0.16008-0.62668 0.34293-0.12472 0.078516-0.045774 0.043575 2.4349 1.8932 7.3646 5.8015 2.5691 1.9914-0.022078 0.052951-0.10242 0.059305-0.2133 0.0693-0.27616 0.057051-0.31467 0.045374-0.33665 0.035727-0.69973 0.051003-1.384 0.066703-0.65521 0.040062-0.31319 0.028832-0.30023 0.039002-0.28347 0.053713-0.26145 0.074419-0.2323 0.10301-0.1937 0.14187-0.15157 0.1955-0.11212 0.2358-0.083836 0.26466-0.063872 0.28504-0.050019 0.29924-0.040612 0.30899-0.093151 0.95842-0.43604 5.1111-0.18581 1.9681-0.10632-0.029596-0.28053-0.11142-0.83085-0.35017-0.96569-0.4248-0.48987-0.2242-0.95347-0.46218-1.3944-0.74248-0.36073-0.17331-0.35096-0.13877-0.34133-0.090373-0.33112-0.025145-0.34222 0.060017-0.32647 0.13581-0.30683 0.19494-0.28151 0.24288-0.2483 0.28434-0.20451 0.32342-0.15902 0.38099-0.11257 0.4127-0.079409 0.4348-0.056252 0.44996-0.040614 0.46016-0.052625 0.88018-0.1358 3.1275-0.26086 7.1616 0.006245 0.090371 1.0912 6.9703 0.99932 6.128 0.78852 5.0637 0.12752 0.94166 0.059244 0.50377 0.10538 1.02 0.17259 1.8666 0.049433 0.46563 0.038372 0.27496 0.20853 1.8461 0.077672 0.59071 0.13956 0.91512 0.14872 0.80955 0.109 0.49788 0.12113 0.47567 0.10941 0.38635 0.2323 0.74023 0.38754 1.1164 0.15047 0.46086 0.087953 0.28801 0.13732 0.49986 0.11551 0.48919 0.22452 1.0594 0.18388 0.95342 0.091038 0.52587 0.12655 0.86714 0.083828 0.75465 0.39508 4.2535 0.017651 0.35675-0.007589 0.35105-0.047382 0.32777-0.1039 0.2972-0.13681 0.21475-0.13964 0.15508-0.060624 0.056859-0.29435 0.22571-0.33846 0.20046-0.37092 0.18007-0.27309 0.11479-0.32787 0.12086-0.33826 0.1056-0.34692 0.086755-0.43038 0.072702-0.36316 0.026872-0.36652-0.005729-0.36708-0.040989-0.36463-0.080684-0.22853-0.073911-0.2236-0.089991-0.21553-0.10308-0.36322-0.20744-0.35529-0.23954-0.34656-0.26439-0.35308-0.29692-0.33723-0.30573-0.28491-0.27221-0.64544-0.63671-0.079766-0.068917-0.029995-0.008134-0.10227-0.087634-0.47506-0.34302-2.5139-1.7538-0.72746-0.47057-0.67874-0.39993-0.63936-0.3423-0.2647-0.12838-0.41023-0.17904-0.41228-0.15441-0.41373-0.12673-0.41483-0.093897-0.25582-0.038838-0.15786-0.01688-0.36662-0.022397-0.36332-0.00215-0.39552 0.017071-0.31804 0.028308-0.3413 0.052223-0.26268 0.061595-0.13795 0.041452-0.313 0.11936-0.30564 0.14541-0.29996 0.16345-0.57278 0.35037-0.66745 0.44754-0.2714 0.17532-0.24634 0.14427-0.15555 0.079344-0.25073 0.099328-0.136 0.037701-0.33459 0.058395-0.53526 0.052081-1.51 0.087383-0.61456 0.014449-0.31171-0.007208-0.31002-0.020173-0.25638-0.028874-0.25792-0.041633-0.25274-0.052888-0.29526-0.077107-0.28263-0.091304-0.23444-0.091997-0.21194-0.10135-0.13848-0.082636-0.1626-0.12266-0.083726-0.075964-0.15076-0.16552-0.13965-0.19608-0.12497-0.21739-0.12588-0.26415-0.11569-0.28213-0.12658-0.34492-0.51388-1.5437-0.15026-0.43144-0.13578-0.34566-0.08431-0.16624-0.058157-0.042612-0.028577-0.075863-0.11798-0.10232-0.185-0.10574-0.299-0.10872-0.22081-0.052495-0.2364-0.039002-0.44772-0.038058-0.40091-0.003559-0.33797 0.01361-0.44406 0.039685-0.40208 0.058487-0.31694 0.061552-0.58424 0.13971-1.0817 0.29549-0.58954 0.14817-0.45699 0.10273-0.51421 0.10479-0.18636 0.032514-0.2939 0.035937-0.3548 0.021799-0.35803 0.004857-0.30152-0.006698-0.49341-0.028005-0.41412-0.037933-0.44387-0.049774-0.46136-0.069511-0.58178-0.11843-0.34209-0.08785-0.27574-0.082739-0.33852-0.11974-0.2936-0.12409-0.21653-0.10586-0.20478-0.11308-0.19172-0.11895-0.14588-0.10042-0.1894-0.14421-0.43706-0.37487-0.54188-0.5108-0.42615-0.43498-0.90581-0.98584-0.43996-0.43526-0.26789-0.23793-0.21157-0.17058-0.25001-0.17864-0.17949-0.11016-0.15123-0.076622-0.09797-0.036871-0.06973-0.010826-0.022502 0.012093-0.035193 0.047853-0.17429 0.18721-0.5975 0.61084-1.1226 1.1228-1.1526 1.135-1.1252 1.0801-0.7407 0.67905-0.37068 0.32336-0.37257 0.30931-0.37162 0.28936-0.51772 0.36791-0.26489 0.16972-0.26299 0.15721-0.76561 0.41408-0.33008 0.19266-0.12776 0.091241-0.11583 0.10336-0.14145 0.19307-0.033244 0.069479-0.045986 0.13827-0.028741 0.15952-0.016418 0.2401-0.013368 0.63753-0.027998 0.46226-0.028289 0.21508-0.17749 1.0739-0.086911 0.40489-0.11214 0.4042-0.12589 0.37407-0.23467 0.58427-0.15162 0.33711-0.1628 0.33718-0.31144 0.58273-0.67811 1.148-0.46917 0.85169-0.66058 1.2971-0.6723 1.2175-0.16464 0.35125-0.027782 0.082971 6.86e-4 0.0462-0.010395 0.035846 0.009297 0.07822 0.028158 0.10473 0.06158 0.1486 0.12793 0.21723 0.14898 0.20061 0.25609 0.2919 0.26255 0.25282 0.18691 0.15803 0.72414 0.56608 0.13483 0.11747 0.18287 0.18117 0.25801 0.30176 0.27373 0.37167 0.16678 0.26391 0.076515 0.13596 0.12944 0.26382 0.11241 0.27089 0.44526 1.2106 0.035768 0.1128 0.037933 0.17018 0.005458 0.067781-0.005615 0.077708-0.032547 0.107-0.062879 0.11119-0.068645 0.086552-0.079881 0.081208-0.16171 0.12959-0.14144 0.085755-0.065026 0.029503-0.098851 0.026597-0.089918-0.004928-0.074817-0.037751-0.058083-0.059621-0.032076-0.066058-0.004109-0.054482-0.087868-0.089449-0.11114-0.096767-0.44634-0.34959-0.32159-0.22481-0.35878-0.22921-0.47109-0.2727-0.40984-0.21648-0.45451-0.21985-0.6096-0.2599-0.36831-0.13036-0.25875-0.070122-0.23271-0.041814-0.19114-0.017806-0.42155 0.005104-0.35627 0.038289-0.32158 0.051359-0.53109 0.11214-0.48594 0.13835-0.24218 0.083339-0.42652 0.17396-0.15513 0.073398-0.32763 0.1768-0.33176 0.21409-0.63231 0.45457-0.48174 0.31326-0.19019 0.11004-0.23155 0.12148-0.15906 0.07557-0.44192 0.18008-0.39624 0.13056-0.37816 0.10835-1.2373 0.32018-0.36943 0.10388-0.28662 0.087431-0.49622 0.1652-0.23683 0.068632-0.27098 0.053103-0.1325 0.010001-0.20908-0.012707-0.18186-0.04143-0.12044-0.044532-0.1503-0.072657-0.19956-0.12095-0.18194-0.13108-0.21674-0.17454-1.0288-0.91148-0.31446-0.24548-0.28088-0.18858-0.26969-0.1586-0.26334-0.12872-0.21578-0.08156-0.26021-0.069244-0.23242-0.035958-0.32681-0.020933-0.62061-0.008332-0.94109 0.014381-0.4285 0.017374-0.35844 0.029671-1.0543 0.11215-0.54119 0.033004-0.26061-6.8e-4 -0.30248-0.016371-0.30232-0.031638-0.20842-0.031665-0.28854-0.061697-0.17998-0.050436-0.22662-0.076855-0.30429-0.12766-0.39237-0.20081-1.3858-0.75676-0.42177-0.20952-0.30338-0.1402-0.23056-0.093173-0.27057-0.088026-0.23675-0.052707-0.073561-0.004509-0.027649 0.010933-0.13957 0.013272-0.28328 0.047796-0.31551 0.076331-0.14407 0.047706-0.13174 0.059584-0.1145 0.076212-0.11353 0.12302-0.083471 0.14817-0.051199 0.1408-0.043146 0.17471-0.063045 0.3294-0.038552 0.14648-0.047626 0.12826-0.062437 0.12177-0.054158 0.080896-0.10272 0.12151-0.11766 0.11337-0.12827 0.10782-0.2225 0.16784-0.23766 0.16095-0.59262 0.34722-0.16015 0.11079-0.14116 0.12418-0.12904 0.13957-0.11851 0.15187-0.084569 0.12378-0.1201 0.20238-0.10792 0.21776-0.078372 0.18819-0.061095 0.17126-0.087543 0.29044-0.10053 0.3724-0.091422 0.40211-0.036609 0.26239-0.009453 0.21474 0.009512 0.25083 0.039079 0.48004 0.010938 0.22348 5.65e-4 0.16443-0.015644 0.30008-0.020403 0.20385-0.057765 0.40365-0.07927 0.41647-0.0887 0.38362-0.13104 0.072286-0.074183 0.00564-0.098768-0.55416-0.14636-0.74994-0.11426-0.5301-0.14438-0.59424-0.19322-0.68307-0.11828-0.37212-0.53876-1.5458-0.11434-0.38659-0.083896-0.36354-0.084475-0.539-0.066362-0.68206-0.061623-0.94417-0.032901-0.33637-0.064185-0.3753-0.071819-0.23871-0.048672-0.11552-0.11064-0.19417-0.063533-0.09385-0.12901-0.15263-0.10663-0.084389-0.19855-0.099185-0.23454-0.075241-0.44862-0.1007-0.8819-0.14012-0.97612-0.20847-0.27052-0.04953-0.25698-0.02899-0.21153-0.01016-0.22645-2.01e-4 -0.55526 0.017412-0.42699-0.015161-0.55562-0.048958-0.28708-0.037381-0.31178-0.05132-0.31078-0.074921-0.26389-0.086193-0.25754-0.10466-0.3626-0.18128-0.080866-0.027333-0.019317 0.006529-0.042954 0.006448-0.11002-0.017795-0.35558-0.091973-0.30701-0.1066-0.32434-0.1321-0.28915-0.13734-0.17951-0.096475-0.24279-0.14451-0.31749-0.2088-0.26348-0.19004-0.33215-0.25665-0.33877-0.27693-0.23707-0.20802-0.47452-0.4609-0.78744-0.81673-0.26025-0.24694-0.1739-0.15145-0.38676-0.2979-0.30784-0.2118-0.27633-0.16772-0.25798-0.13358-0.49212-0.21539-0.41381-0.15365-0.39222-0.1195-0.42952-0.10292-0.40426-0.077468-0.75824-0.12752-0.34737-0.039843-0.93029-0.073973-0.26557-0.044689-0.26295-0.064999-0.44256-0.14324-0.58681-0.23377-0.34392-0.15516-0.25095-0.14919-0.14395-0.10254-0.24236-0.18894-0.28973-0.24936-0.12605-0.13338-0.10946-0.13237-0.11238-0.15918-0.076884-0.13179-0.074794-0.16253-0.082527-0.25124-0.03126-0.14802-0.052812-0.44927-0.046054-0.26465-0.070196-0.27855-0.060739-0.17595-0.12068-0.27278-0.12385-0.23104-0.13764-0.22799-0.10586-0.15905-0.12846-0.1702-0.21416-0.24173-0.33815-0.32928-0.28014-0.23856-0.29655-0.21541-0.20398-0.12225-0.14702-0.069274-0.19683-0.067787-0.12684-0.031807-0.16411-0.028649-0.15398-0.012625-0.17545 0.003822-0.12739 0.013879-0.14876 0.028422-0.21701 0.064559-0.13716 0.053449-0.12659 0.057236-0.21181 0.11136-0.50815 0.31385-0.49772 0.33141-0.24875 0.18486-0.76852 0.6063-0.23517 0.16964-0.37761 0.25283-0.3405 0.20931-0.38301 0.21561-1.3399 0.66828-0.48227 0.26405-0.31012 0.19387-0.25832 0.18125-0.32446 0.25582-0.23183 0.2054-0.19458 0.19688-0.11835 0.13534-0.1249 0.16041-0.11237 0.16589-0.15541 0.27475-0.069463 0.14802-0.12103 0.32314-0.095718 0.37029-0.039688 0.21713-0.055644 0.44197-0.040392 0.60634-0.017807 0.84807-0.013632 0.029586 0.005828 0.02611 0.015158 0.022995 0.049565 0.044694 0.12402 0.07131 0.20853 0.082815 0.16114 0.050239 0.35186 0.088145 0.30164 0.059481 1.1909 0.20372 0.34892 0.075868 0.17548 0.046346 0.2178 0.066562 0.38178 0.14288 0.21093 0.095365 0.26459 0.14773 0.11463 0.084574 0.1331 0.134 0.081821 0.12242 0.064311 0.15656 0.039011 0.18884 0.014039 0.25612-0.010667 0.2177-0.032053 0.28514-0.048019 0.24574-0.036848 0.12871-0.057775 0.15761-0.092831 0.1967-0.10251 0.18321-0.13979 0.21897-0.16503 0.21933-0.090747 0.10742-0.18356 0.19469-0.28419 0.26221-0.4699 0.39801-0.88645 0.71889-0.30326 0.26338-0.26583 0.24886-0.26593 0.2749-0.21287 0.25008-0.15722 0.21368-0.14573 0.23362-0.10262 0.1901-0.078734 0.16482-0.049552 0.1167-0.088277 0.24789-0.072716 0.2537-0.056493 0.23121-0.18161 0.8347-0.066802 0.26628-0.082969 0.25324-0.095773 0.24206-0.10919 0.23423-0.14294 0.26588-0.38024 0.66248-0.13651 0.27454-0.10505 0.24437-0.11778 0.32488-0.13314 0.43369-0.33354 1.2524-0.044861 0.11759-0.056908 0.055718 0.00457 0.037015 0.027735 0.057949 0.04733 0.068369 0.19476 0.20962 0.42612 0.57124 0.27758 0.33266 0.28468 0.31402 0.40926 0.47866 0.21883 0.24187 0.23302 0.23154 0.53046 0.48723 0.27405 0.27665 0.3231 0.37853 0.48793 0.62604 0.21797 0.24696 0.15458 0.15123 0.14038 0.12465 0.32108 0.24967 0.18199 0.12192 0.15463 0.09293 0.55562 0.301 0.15776 0.098298 0.15725 0.1131 0.17558 0.1481 0.11201 0.10704 0.67198 0.72982 0.27493 0.26998 0.17287 0.15305 0.12377 0.097571 0.10839 0.072007 0.064709 0.030392 0.020455-0.002037 0.68265 2.2373 0.11086 0.33574 0.1171 0.32025 0.21246 0.4883 0.35656 0.69466 0.18282 0.39887 0.085046 0.13419 0.19481 0.24264 0.15297 0.1762 0.36654 0.36318 0.65002 0.60311 0.34988 0.36429 0.29126 0.31724 0.13355 0.16128 0.32572 0.42251 0.38663 0.45003 0.63729 0.71834 0.21437 0.25329 0.20951 0.26289 0.28067 0.39543 0.2154 0.36136 0.26625 0.52112 0.64761 1.4272 0.13077 0.27362 0.12398 0.23953 0.09817 0.16817 0.071542 0.10337 0.029195 0.030082 0.011132 0.001871-0.001068 0.026706-0.0466 0.13455-0.10754 0.23426-0.18829 0.34299-0.12138 0.19163-0.1346 0.19082-0.1921 0.23768-0.14125 0.15116-0.19368 0.18121-0.8391 0.72721-0.31815 0.29302-0.30956 0.30183-0.29536 0.30958-0.5129 0.55912-0.24755 0.24848-0.44072 0.4111-0.46523 0.39893-0.23818 0.19232-0.54467 0.41308-0.8973 0.64526-0.92909 0.65178-0.8854 0.59351-0.97146 0.63601-0.31137 0.21383-0.2998 0.21895-0.32007 0.25805-0.28139 0.26961-0.17322 0.2089-0.13462 0.21558-0.035436 0.073416-0.094826 0.28331-0.056035 0.29798-0.09457 0.66922-0.075651 0.35688-0.11051 0.34022-0.10804 0.23297-0.28654 0.52565-0.086597 0.17539-0.078031 0.1841-0.055264 0.1622-0.067169 0.25981-0.043556 0.32228-0.013192 0.33815 0.040899 1.371 0.003784 0.56635-0.010426 0.62218 0.014777 1.0036-0.012245 0.31833-0.036453 0.38152-0.080046 0.52015-0.028372 0.2391-0.017025 0.28313 0.004921 0.25812 0.030615 0.24946 0.035999 0.16394 0.039492 0.13934 0.066583 0.18784 0.063805 0.13904 0.11337 0.1957 0.12622 0.16007 0.15414 0.13804 0.17293 0.10487 0.16858 0.07231 0.31977 0.091538 0.35371 0.060973 0.23856 0.026534 0.525 0.031814 0.60809 0.008593 1.7284-0.017876 1.9231 0.05477 0.58961-1.46e-4 0.67809-0.023197 0.48685-0.028184 0.55914-0.043699 0.74823-0.070129-0.008326 0.078636 0.012362 0.049126 0.071608 0.20372 0.17726 0.39453 0.90111 1.7431 0.6445 1.1732 0.13008 0.26554 0.14318 0.3372 0.075236 0.22185 0.059803 0.23546 0.036716 0.23314 0.012493 0.192-0.00446 0.19851-0.028551 0.22853-0.036037 0.15627-0.073231 0.20958-0.059927 0.12432-0.079138 0.12884-0.074046 0.096593-0.099693 0.10507-0.1043 0.088663-0.10016 0.070074-0.30228 0.15632-0.33766 0.13261-0.43443 0.15861-2.4716 0.86872-0.35252 0.13281-0.36596 0.15211-0.49711 0.23793-0.18852 0.10429-0.19485 0.12925-0.11727 0.1048-0.061142 0.076424-0.033144 0.059626-0.02237 0.076721 7.97e-4 0.075256 0.012973 0.053947 0.028501 0.06697 0.03766 0.063317 0.072687 0.096456 0.27315 0.29886 0.12228 0.14795 0.053139 0.081629 0.053293 0.12069 0.021294 0.10098 0.005436 0.12999-0.008103 0.10964-0.031293 0.19065-0.13562 0.59738-0.012714 0.1086 0.004292 0.11406 0.045347 0.15452 0.027948 0.059305 0.152 0.25978 0.066525 0.13431 0.06676 0.16968 0.058868 0.17679 0.027244 0.10741 0.036377 0.29366-0.005319 0.32992-0.038873 0.31193-0.089732 0.40351-0.24701 0.89823-0.32629 1.3519-0.28571 1.1288-0.22118 0.95231-0.047399 0.2922-0.01057 0.2555 0.01909 0.25275 0.047388 0.32831 0.064843 0.29297 0.048161 0.15477 0.09406 0.22261 0.12126 0.22095 0.10345 0.15868 0.12462 0.16768 0.14166 0.16701 0.16397 0.17028 0.24702 0.22654 0.8527 0.69135 0.18551 0.1741 0.13935 0.16746 0.054289 0.091432 0.028894 0.073915 0.010058 0.1143-0.019761 0.06786-0.033183 0.048402-0.030917 0.026685-0.049488 0.025773-0.096325 0.019086-0.063457-9.43e-4 -0.12825-0.018493-0.46964-0.10338-0.25103-0.084809-0.25065-0.12069-0.1994-0.12712-0.4052-0.27586-0.27249-0.14303-0.13626-0.057102-0.13056-0.046573-0.18269-0.051047-0.19884-0.033473-0.11478-0.009762-0.30668-0.003459-0.18113 0.00773-0.20823 0.020245-0.29878 0.058718-0.26456 0.079589-0.39776 0.15923-0.55132 0.24915-0.16368 0.060263-0.2282 0.060903-0.6169 0.11192-0.67431 0.14447-0.2135 0.03778-0.99436 0.12821-0.7521 0.13967-0.44225 0.096692-0.93988 0.23556-0.58298 0.15549-0.12871 0.046803 0.068206 0.054897 0.10748 0.13729 0.11257 0.18795 0.10246 0.23325 0.056953 0.15794 0.045585 0.16185 0.027657 0.15439 0.023014 0.29383-0.005039 0.22849-0.024748 0.36458-0.01389 0.13834-0.031308 0.1759-0.079966 0.28792-0.08517 0.20374-0.10323 0.18481-0.14234 0.21374-0.09588 0.16924-0.079976 0.18208-0.057474 0.18879-0.06746 0.41251-0.048023 0.19034-0.28389 0.82933-0.13636 0.33043-0.35506 0.764-0.3852 0.79289-0.07525 0.13363-0.098079 0.13576-0.25895 0.32104-0.087925 0.15624-0.061934 0.21402-0.023067 0.24509 0.002848 0.18955 0.016476 0.20008 0.04467 0.30563 0.10564 0.52266 0.30635 1.3654 0.16911 0.8068-0.042264 0.10943-0.06529 0.12744-0.32697 0.58242-0.094935 0.18233-0.12367 0.2706-0.11048 0.29509-0.087852 0.31178-0.078951 0.39214-0.034168 0.27642-0.038375 0.498-0.0342 0.22976-0.055991 0.19826-0.097355 0.21817-0.14967 0.2531-0.17046 0.25459-0.13352 0.18219-0.11102 0.12702-0.22168 0.20718-0.18031 0.13973-0.19092 0.12645-0.25472 0.1424-0.021258 0.011371-0.06656-0.026087-0.1013-0.060683-0.14128-0.1054-0.53989-0.43884-0.3299-0.23764-0.365-0.21373-0.42437-0.17988-0.45152-0.13351-0.46752-0.095385-0.47501-0.0642-0.45516-0.03686-0.45187-0.016237-0.44502 0.002641-0.97818 0.042044-0.84563-0.007555-0.3113 0.007875-0.30983 0.021495-0.32613 0.039854-0.38114 0.073496-0.16766 0.04259-0.41389 0.126-0.25638 0.094815-1.0432 0.41389-0.38878 0.16227-0.37682 0.17095-0.73247 0.35567-0.32344 0.12279-0.24457 0.061694-0.21346 0.025729-0.17915 0.001497-0.14796-0.012324-0.25655-0.052189-0.29144-0.10865-0.21494-0.09894-0.23314-0.1217-0.47966-0.27532-0.23009-0.12312-0.62867-0.31546-0.42088-0.19602-0.30958-0.12391-0.20233-0.092791-0.21677-0.10416-0.61641-0.31907-0.49898-0.23502-0.58605-0.30547-0.13777-0.06469-0.13314-0.048792-0.14048-0.027231-0.13606 0.001066-0.084294 0.016408-0.12632 0.044924-0.30804 0.15075-0.15875 0.064925-0.18855 0.053479-0.32821 0.071861-0.17918 0.054877-0.16022 0.084417-0.15419 0.15375-0.085149 0.13841-0.098656 0.21793-0.07794 0.24424-0.25961 1.1959-0.049622 0.32978-0.01261 0.2606 0.02201 0.2489 0.066887 0.26414 0.12143 0.22574 0.17592 0.19585 0.13874 0.1074 0.24933 0.14941 0.55395 0.29392 0.19992 0.12814 0.14524 0.11616 0.11771 0.11776 0.15421 0.19063 0.23602 0.35922 0.22557 0.39821 0.36515 0.72693 0.25744 0.55284 0.15538 0.358 0.14083 0.35309 0.11946 0.34292 0.089293 0.32683 0.046805 0.24695 0.047832 0.34429 0.007907 0.12395-0.012408 0.23963-0.041731 0.19062-0.035326 0.10594-0.063829 0.15229-0.12888 0.24423-0.12899 0.20646-0.1748 0.24807-0.2291 0.28445-0.23127 0.2602-0.27448 0.28638-0.34198 0.33124-0.34966 0.31196-0.31245 0.25963-1.1954 0.94425-0.68622 0.55588-0.55405 0.47543-0.13694 0.12848-0.026353 0.031112 5.83e-4 0.00994-0.057678-0.029281-0.11071-0.039534-0.48576-0.13473-0.26604-0.10575-0.34937-0.18542-0.82456-0.50427-0.31965-0.1846-0.21167-0.10102-0.10537-0.037942-0.10497-0.025249-0.10445-0.008018-0.083642 0.008907-0.1658 0.05177-0.091421 0.043709-0.15963 0.096416-0.17454 0.12876-0.73084 0.61108-0.24136 0.17888-0.17975 0.11484-0.19629 0.10052-0.21457 0.072536-0.20797 0.036389-0.10204 1.91e-4 -0.0821-0.069009-0.17725-0.11844-0.29983-0.18739-0.44476-0.26076-0.65246-0.35909-1.0132-0.54314-0.41004-0.23141-0.58827-0.36539-0.57577-0.39795-0.6225-0.45206-0.12124-0.094445-0.24553-0.21881-0.15743-0.17131-0.28114-0.38113-0.14779-0.1872-0.19805-0.20064-0.22356-0.19047-0.82523-0.64789-0.5232-0.44972-0.214-0.16156-0.23093-0.15143-0.19956-0.1166-0.20675-0.10943-0.31149-0.14564-0.26078-0.10472-0.2876-0.096418-0.18346-0.050165-0.22508-0.048141-0.26321-0.036233-0.21907-0.014228-0.70457-0.010259-0.31047-0.029182-0.32084-0.051971-0.32951-0.06703-1.8801-0.40365-0.38899-0.060015-0.20564-0.016985-0.33873-0.006002-0.14663 0.006454-0.27486 0.0291-0.28267 0.053339-0.32501 0.089813-0.19786 0.080524-0.061677 0.036974-0.022153 0.029798 0.006137-0.033216 0.078062-0.13628 0.42839-0.58224 0.17706-0.26272 0.12526-0.20284 0.11777-0.21573 0.078542-0.17374 0.11788-0.31185 0.032882-0.12007 0.085921-0.5093 0.14858-0.63232 0.058863-0.3 0.10678-0.7421 0.043007-0.20658 0.072456-0.26252 0.22323-0.67676 0.11357-0.37853 0.15828-0.59807 0.15473-0.71749 0.069319-0.20559 0.051988-0.1011 0.070661-0.1092 0.2389-0.3126 0.11418-0.16461 0.18256-0.30492 0.07389-0.14145 0.16645-0.37498 0.22976-0.60664 0.099833-0.24019 0.19876-0.42251 0.28568-0.67309 0.13707-0.2696 0.15376-0.26138 0.17002-0.24403 0.41896-0.50926 0.19874-0.26782 0.07501-0.11707 0.1138-0.2136 0.2228-0.47146 0.066335-0.1686 0.046077-0.14863 0.061405-0.24107 0.042124-0.24617 0.009805-0.24199-0.037612-0.22816-0.099103-0.20893-0.08174-0.10756-0.051682-0.05481-0.1203-0.10579-0.13363-0.093461-0.22675-0.1245-0.5194-0.25976-0.18841-0.1064-0.17552-0.12276-0.21325-0.19483-0.3576-0.36509-0.15651-0.14276-0.34716-0.27055-0.28638-0.18863-0.1457-0.083067-0.5328-0.2777-0.18828-0.080033-0.42257-0.1455-0.1877-0.053977-0.13685-0.029202-0.45242-0.070186-0.1426-0.036476-0.20661-0.08967-0.14229-0.095881-0.12587-0.12479-0.072822-0.10473-0.055852-0.10603-0.060455-0.15341-0.064977-0.25201-0.03103-0.19963-0.018083-0.21073-0.004082-0.30054 0.010552-0.223 0.026412-0.28666 0.03918-0.29291 0.055849-0.32778 0.12826-0.59741 0.14753-0.56448 0.16563-0.52658 0.22792-0.61122 0.24129-0.54407 0.94048-1.8525 0.2585-0.55884 0.2257-0.5246 0.14522-0.28506 0.22686-0.38715 0.20766-0.32299 0.43224-0.62159 0.6429-0.87327 0.28513-0.41061 0.38798-0.58081 0.1265-0.20052 0.045586-0.090087-0.037875-0.014838-0.076236-0.04909-0.097899-0.074094-0.10662-0.092995-0.10549-0.10788-0.10998-0.13452-0.11409-0.15699-0.1039-0.16397-0.086048-0.16955-0.088986-0.25496-0.083691-0.30938-0.02766-0.15274-0.038753-0.47326-0.032957-0.14382-0.033488-0.082824-0.098261-0.16588-0.20386-0.27154-0.063895-0.097064-0.24273-0.494-0.084307-0.20076-0.12144-0.35413-0.12855-0.58704-0.063946-0.23664-0.43866-1.2732-0.14305-0.46619-0.1971-0.6972-0.07588-0.22076-0.053442-0.10138-0.065555-0.089384-0.075061-0.077656-0.06762-0.056086-0.12716-0.080359-0.051997-0.023624-0.060588-0.011071 0.031501-0.060744 0.050949-0.15958 0.19533-0.70479 0.2908-0.95852 0.14903-0.42132 0.16796-0.41204 0.18254-0.39462 0.19642-0.3666 0.45128-0.7285 0.72056-1.2271 0.19156-0.30091 0.20206-0.28364 0.20874-0.25297 0.1774-0.18242 0.30782-0.24439 0.14042-0.084192 0.3446-0.146 0.37484-0.096427 0.39637-0.060949 0.41097-0.036788 1.2676-0.053039 0.41907-0.02404 0.40974-0.040278 0.39506-0.065847 0.37396-0.10263 0.34498-0.15322 0.24929-0.16618 0.22582-0.19632 0.21098-0.22266 0.19556-0.23898 0.18652-0.25502 0.24338-0.36791 0.17424-0.28444 0.33829-0.5884 0.85862-1.5706 0.39795-0.71097 0.36263-0.60846 0.27476-0.42588 0.31512-0.45072 0.40882-0.53608 0.32168-0.38783 0.81725-0.93888 0.2626-0.3221 0.11118-0.15446 0.094268-0.15348 0.065443-0.13948 0.038633-0.14079 0.004392-0.11255-0.037559-0.15686-0.089029-0.14239-0.15798-0.1227-0.12512-0.044783-0.21062-0.013276-0.23797 0.036491-0.15642 0.041258-0.43242 0.14308-0.36496 0.10836-0.36319 0.066736-0.37616 0.015353-0.34972-0.041895-0.35115-0.089019-0.34972-0.12741-0.34539-0.15937-0.33788-0.18696-0.38653-0.25386-0.39258-0.30546-0.32079-0.28783-0.22657-0.22718-0.28717-0.32953-0.1214-0.1608-0.14866-0.22699-0.12163-0.2365-0.029044-0.070384-0.06668-0.19881-0.055709-0.24445-0.025007-0.18767-0.009166-0.13965 0.004603-0.30902 0.039037-0.33891 0.080282-0.38735 0.082078-0.29604 0.059024-0.18197 0.13558-0.35745 0.14632-0.32384 0.21794-0.42191 0.38543-0.70334 0.19142-0.37883 0.1176-0.26348 0.098933-0.26708 0.055309-0.20126 0.022517-0.11894 0.016368-0.15568 0.003505-0.1711-0.016233-0.27588-0.032586-0.27051-0.16445-0.76357-0.078539-0.44175-0.063142-0.46672-0.025826-0.38711 0.004745-0.56409 0.040106-0.55409 0.073058-0.55839 0.051983-0.27932 0.055369-0.24324 0.057348-0.21063 0.080964-0.25248 0.12498-0.33042 0.12125-0.28085 0.1402-0.29543 0.28946-0.55028 0.301-0.51965 0.4377-0.71948 0.17891-0.31845 0.15762-0.31462 0.1224-0.28684 0.065679-0.18151 0.098958-0.35324 0.048278-0.29367 0.007656-0.27544-0.049808-0.28917-0.075339-0.17671-0.099353-0.15194-0.10862-0.12975-0.36674-0.37666-0.213-0.24081-0.15525-0.22472-0.094303-0.18316-0.039387-0.097338-0.040402-0.13436-0.020462-0.13425 0.004761-0.15206 0.031055-0.15158 0.036391-0.10793 0.1198-0.22734 0.16855-0.22514 0.20524-0.22222 0.23164-0.21828 0.26902-0.22991 0.24606-0.19785 0.30162-0.2307 0.59369-0.42998 0.15188-0.11896 0.063426-0.056511 0.1651-0.17631 0.12428-0.16569 0.1148-0.20504 0.06825-0.16209 0.074894-0.25125 0.03234-0.18843 0.055557-0.90648 0.060337-0.69736 0.26798 0.004799 0.37724 0.076405-0.027925-0.024304-0.018847-0.028677-0.044769-0.097566-0.032963-0.1114-0.022512-0.1441 3.18e-4 -0.20424 0.020637-0.14673 0.025369-0.10131 0.046319-0.13058 0.086408-0.18078 0.14023-0.23881 0.2874-0.44853 0.16126-0.28333 0.16712-0.33781 0.10795-0.25412 0.13426-0.37046 0.13426-0.46792 0.058484-0.25668 0.098095-0.54693 0.055462-0.39284 0.056825-0.54911 0.02861-0.44128 0.01448-0.47423-0.001783-0.40781-0.013703-0.40626-0.077879-1.1692-0.020291-0.4188-0.003091-0.5448 0.010955-0.27258 0.029092-0.34661 0.038696-0.27609 0.062549-0.28635 0.078677-0.22875 0.096358-0.17395 0.11807-0.12068 0.14175-0.064863 0.088746-0.013995 0.1529 0.008572 0.13045 0.031677 0.22631 0.087179 0.21913 0.10708 0.22639 0.14549 0.29201 0.23027 0.2983 0.25066 0.64807 0.58501 0.31565 0.25887 0.2163 0.16173 0.40705 0.27726 0.34896 0.21187 0.24547 0.1254 0.13752 0.056424 0.13713 0.045997 0.18111 0.04276 0.10065 0.013989 0.13853 0.006922 0.1229-0.00687 0.12075-0.018709 0.1288-0.033115 0.11453-0.040524 0.14715-0.064612 0.2359-0.12907 0.18427-0.1205 0.2361-0.17783 0.092984-0.078812 0.24228-0.2289 0.23316-0.25186 0.22271-0.27067 0.19103-0.25899 0.15655-0.23548 0.13304-0.22223 0.13115-0.24761 0.10759-0.23379 0.16058-0.43219 0.11229-0.41399 0.067182-0.35139 0.059419-0.54291 0.02976-0.87737 0.027273-0.32087 0.072573-0.42286 0.11663-0.41353 0.16472-0.39768 0.17904-0.32142 0.20489-0.31411 0.81096-1.174 0.12588-0.20148 0.11564-0.20463 0.17929-0.38484 0.0929-0.24036 0.081239-0.23993 0.10447-0.3655 0.076307-0.33092 0.051745-0.30417 0.007728-0.095932-0.007832-0.042293-0.006929-0.019169 4.76e-4 -0.10354 0.053728-0.92582 0.045434-0.57886 0.15822-1.7113 0.029828-0.52754 0.001653-0.35861-0.024622-0.39772-0.044758-0.34125-0.06593-0.33476-0.064426-0.25005-0.076741-0.24488-0.094552-0.25196-0.10886-0.24467-0.21751-0.39648-0.25593-0.3743-0.29844-0.36272-0.28422-0.29912-0.32278-0.30408-0.49879-0.42088-0.4791-0.36585-0.51685-0.35515-0.45374-0.26948-0.2877-0.14911-0.23708-0.10932-0.27968-0.11402-0.44781-0.15071-0.22857-0.061809-0.22909-0.050929-0.28072-0.045596-0.30661-0.024513-0.22536 0.001401-0.18323 0.011577-0.52413 0.064814-0.95663 0.15579-0.45224 0.066211-0.76143 0.092859-0.78117 0.072842-0.36547 0.016792-0.35432-0.001519-0.29621-0.013593-0.53169-0.049743-1.1339-0.15835-0.49736-0.060449-1.2702-0.098673-0.53466-0.062945-0.40237-0.076202-0.42074-0.10215-0.46293-0.13191-0.39682-0.13649-0.2583-0.11625-0.13555-0.075931-0.18037-0.1221-0.17879-0.15118-0.15704-0.17309-0.20385-0.33228-0.15301-0.38177-0.1195-0.41515-0.37955-1.6797-0.080056-0.31461-0.061905-0.17032-0.057887-0.10982-0.056387-0.067374-0.035716-0.018649-0.036213 0.006804-0.069738 0.079949-0.15861 0.14535-0.19678 0.16261-0.18457 0.13863-0.19353 0.1315-0.21956 0.13298-0.24286 0.13103-0.6151 0.3053-0.25352 0.11866-0.30231 0.12767-0.21373 0.080253-0.70995 0.23158-0.61489 0.16612-0.42548 0.096667-0.86207 0.17046-0.5042 0.11087-1.3069 0.32541-0.58516 0.16296-0.43229 0.14182-0.56878 0.21274-0.43092 0.18844-0.41108 0.20134-0.32286 0.16916-0.22683 0.12825-0.26469 0.16534-0.20801 0.14318-0.53429 0.39857-0.78229 0.62734-0.53993 0.41627-0.35258 0.29842-0.24724 0.2339-0.34402 0.35704-0.27556 0.32406-0.07224-0.054824-0.17602-0.17043-0.36443-0.38178-0.41579-0.48286-0.31755-0.39907-0.31549-0.41842-0.61154-0.85699-1.3702-2.0167-0.46868-0.65475-0.115-0.14526-0.16959-0.18378-0.17812-0.1527-0.18474-0.11401-0.10131-0.041867-0.092219-0.024181-0.11208-0.012305-0.11816 0.004093-0.22572 0.043703-0.23203 0.083194-0.32455 0.15713-0.38992 0.21978-0.34524 0.20518-0.95062 0.59514-0.23473 0.13346-0.22567 0.11451-0.25521 0.11612-0.2792 0.097417-0.12675 0.034525-0.17626 0.035987-0.27263 0.032981-0.15479 0.008053-0.14274-0.003928-0.097622-0.01045-0.24115-0.055203-0.37143-0.13205-0.5697-0.23049-0.20397-0.10067-0.22619-0.12868-0.27482-0.17904-0.38553-0.28811-0.36904-0.3005-0.36855-0.31363-0.23571-0.21929-0.23744-0.25438-0.27204-0.3371-0.17759-0.25067-0.25012-0.40676-0.11336-0.20634-0.2175-0.43412-0.21129-0.4672-0.1554-0.36766-0.29558-0.73875-0.24432-0.66296-0.58122-1.777-0.072517-0.20149-0.041278-0.079719-0.29248-0.67691-0.10945-0.30049-0.14493-0.44282-0.072118-0.28836-0.069715-0.49938-0.034246-0.17209-0.060795-0.2166-0.20934-0.60798-0.078082-0.2838-0.042054-0.20372-0.074252-0.43792-0.14375-0.68094-0.056644-0.32994-0.01647-0.1888 0.003024-0.076023 0.013105-0.055566 0.017958-0.024964 0.020998-0.001617 1.1507-0.55984 0.62588-0.3196 0.32618-0.18119 0.35698-0.22305 0.33659-0.25287 0.28838-0.26901 0.24694-0.26253 0.23185-0.27639 0.24566-0.33596 0.22305-0.34731 0.26752-0.47629 0.41552-0.87718 0.1039-0.19899 0.19869-0.35061 0.14975-0.24305 0.22626-0.32909 0.19062-0.23466 0.1241-0.13232 0.18991-0.17822 0.1898-0.15932 0.43142-0.32799 0.32655-0.22904 0.24509-0.16168 0.33904-0.20748 0.26208-0.15055 0.32216-0.17276 0.31636-0.1581 0.98716-0.46196 0.57541-0.28471 0.40694-0.2252 0.26041-0.16291 0.23059-0.1636 0.21536-0.17748 0.1348-0.12865 0.17963-0.19595 0.14588-0.17906 0.19496-0.26504 0.13867-0.20632 0.30245-0.49244 0.98302-1.7173 0.21174-0.39327 0.16824-0.34374 0.12447-0.29491 0.086481-0.25153 0.05141-0.19336 0.03794-0.19566 0.033171-0.22873 0.030712-0.3426 0.015849-0.35222-0.004674-0.25299-0.048962-0.37117-0.08735-0.38103-0.085714-0.30114-0.28077-0.80943-0.10861-0.35682-0.092167-0.35028-0.50242-2.205-0.056626-0.28721-0.034481-0.22923-0.013547-0.19466 0.015155-0.22141 0.071973-0.45586 0.034909-0.15347 0.026936-0.083639 0.061091-0.14129 0.13235-0.23651 0.3011-0.47488 0.23932-0.45139 0.10176-0.15326 0.13311-0.16334 0.10863-0.10596 0.15743-0.12524 0.27939-0.17053 0.21681-0.1021 0.53814-0.22614 0.44392-0.17358 0.72596-0.2612 0.36561-0.14238 0.24693-0.1136 0.23161-0.11959 0.2921-0.17746 0.32082-0.23622 0.47951-0.37857 0.29152-0.24398 0.60752-0.53199 0.50319-0.42221 1.5773-1.2997 0.30742-0.23891 0.37707-0.26586 0.44423-0.27369 0.3376-0.18201 0.68689-0.32801 0.58683-0.26005 0.25329-0.098395 0.24547-0.080153 0.31002-0.077969 0.30048-0.050643 0.30383-0.026687 0.15082-0.004009 0.35798 0.013305 0.35844 0.032385 0.67412 0.076423 0.86036 0.11116 0.088405-0.001042 0.010004-0.006839-0.013063-0.071896-0.039192-0.12453-0.30199-0.86121-0.10751-0.35199-0.14432-0.59126-0.3543-1.8017-0.064173-0.41956-0.086877-0.78138-0.045899-0.29964-0.079312-0.36876-0.20132-0.77009-0.11273-0.37214-0.12362-0.37222-0.20175-0.55214-0.55356-1.3145-0.17481-0.45453-0.092538-0.28803-0.057127-0.21128-0.063385-0.30336-0.038732-0.33927-0.001986-0.25725 0.017223-0.18963 0.037573-0.19154 0.12268-0.33432 0.17816-0.31402 0.21743-0.2944 0.1935-0.21802 0.21569-0.21279 0.36001-0.32263 0.23939-0.19476 0.21873-0.16295 0.22201-0.14864 0.25704-0.14028 0.16492-0.069231 0.15888-0.049109 0.11603-0.022991 0.11888-0.009428 0.23579 0.045269 0.14328 0.11154 0.074316 0.11714 0.045291 0.13354 0.016844 0.12165-0.001643 0.11019-0.024311 0.14685-0.026398 0.099174-0.1826 0.52239-0.067976 0.23219-0.049181 0.23638-0.021184 0.24246 0.012631 0.21302 0.038293 0.21501 0.06022 0.21624 0.073886 0.1932 0.16496 0.30871 0.12948 0.17898 0.090166 0.10301 0.10535 0.10188 0.12452 0.10007 0.11708 0.077775 0.12595 0.069718 0.10996 0.051127 0.22434 0.080104 0.2328 0.051301 0.20286 0.020775 0.20662 0.002164 0.20996-0.014451 0.29028-0.043809 0.25666-0.057752 0.38252-0.1093 0.40357-0.14001 0.25911-0.10082 0.51949-0.22245 0.68147-0.32728 0.48285-0.25871 0.50337-0.2986 1.0814-0.68738 0.96966-0.63251 0.49254-0.29203 0.6299-0.33898 0.6112-0.30331 0.83395-0.3865 0.83884-0.3648-0.91601-0.57948-0.57964-0.39334-0.23487-0.17031-0.52648-0.3906-0.48594-0.37324-0.38351-0.31643-0.47388-0.43062-0.25014-0.24749-0.29647-0.30974-0.23844-0.2712-0.47182-0.58267-0.48284-0.571-0.57107-0.64198-0.53602-0.57782-0.65224-0.64495-1.0326-0.9758-1.6413-1.5718-0.99855-0.96895-0.48255-0.47855-0.3897-0.40006-0.4685-0.50573-0.3588-0.41088-0.51019-0.6058-0.052522-0.10836-0.17818-0.12752-0.23507-0.10587-0.34579-0.098878-0.39516-0.0552-0.32708-0.007013-0.33888 0.018593-1.4046 0.16075-0.72311 0.050697-0.45026 0.015235-0.44765 0.003759-0.44326-0.00743-0.43731-0.019078-0.42985-0.031955-0.75328-0.079509-0.76943-0.096123-1.4012-0.21154-0.44003-0.062055-0.43533-0.05129-0.59958-0.044057-0.63466-0.01385-0.2212 0.013623-0.30176 0.041215-0.29938 0.06742-0.30639 0.095217-0.22386 0.086607-0.35745 0.16884-0.34242 0.19841-0.19395 0.13501-0.20613 0.17183-0.14918 0.15166-0.11137 0.13522-0.10757 0.1556-0.095661 0.16719-0.045843 0.093315-0.10327 0.25671-0.080909 0.26975-0.077451 0.36612-0.059559 0.45659-0.031655 0.48968-7.37e-4 0.43206 0.023449 0.46343 0.035772 0.43711 0.079981 0.75922 0.063179 0.51474 0.106 0.69704 0.25744 1.4068 0.063309 0.44987 0.080664 0.85863 0.061919 1.138 0.031803 0.33026 0.031339 0.15838 0.060045 0.18323 0.089577 0.16513 0.14775 0.2184 0.074133 0.12739 0.050757 0.11234 0.062558 0.18823 0.052522 0.24993 0.023286 0.20504 0.006846 0.14109-3.2e-5 0.14234-0.011867 0.19102-0.035043 0.19759-0.063136 0.19905-0.042011 0.096342-0.061984 0.11786-0.07374 0.11643-0.11097 0.14544-0.18153 0.19486-0.13853 0.12781-0.14174 0.11784-0.16932 0.1269-0.27015 0.17548-0.30508 0.1716-0.284 0.14182-0.8639 0.39551-0.43891 0.23635-0.46775 0.29-0.6794 0.46106-0.40987 0.26738-0.4187 0.2476-0.28444 0.14829-0.16461 0.076493-0.3681 0.14836-0.36009 0.1161-0.20138 0.050055-0.33342 0.059993-0.17831 0.018651-0.23037 0.002647-0.21109-0.028725-0.1605-0.05652-0.21587-0.15383-0.18172-0.21232-0.15613-0.24358-0.44076-0.82372-0.16551-0.28131-0.18407-0.27097-0.20923-0.2519-0.25868-0.24175-0.28842-0.21406-0.31136-0.19033-0.32875-0.16919-0.34161-0.14926-0.34718-0.12793-0.35314-0.10654-0.35182-0.081127-0.35267-0.053004-0.35119-0.018854-0.34738 0.023487-0.24199 0.045987-0.24072 0.0663-0.28551 0.09707-0.97517 0.36675-0.71773 0.2328-0.75292 0.21744-1.085 0.29958-2.3399 0.63699-0.72544 0.1888-0.03263-0.04165-0.05838-0.10862-0.20099-0.41675-0.35582-0.8148-0.16094-0.40449-0.16452-0.44399-0.39466-1.1534-0.12886-0.35243-0.18363-0.45272-0.18317-0.40623-0.17728-0.36305-0.26464-0.50549-0.33917-0.60505-0.82183-1.3725-0.20238-0.35537-0.13288-0.24566-0.39106-0.77337-0.11256-0.20588-0.12721-0.18925-0.10791-0.11196-0.11917-0.071077-0.069414-0.018886-0.069629-0.005903-0.14596 0.018531-0.17432 0.057186-0.1574 0.069202-0.21138 0.10936-0.17921 0.1061-0.2003 0.12948-0.70134 0.48653-0.20631 0.13117-0.22128 0.12663-0.18545 0.095203-0.54059 0.24576-0.7473 0.31507-0.80131 0.31628-0.41825 0.15628-0.84725 0.29216-0.42549 0.12923-0.42371 0.1113-0.41862 0.085999-0.40877 0.050804-0.39215 0.002857-0.36601-0.060547-0.2729-0.10646-0.23864-0.15331-0.19476-0.19257-0.14008-0.22299-0.070066-0.20525-0.025387-0.203 0.033395-0.25544 0.097126-0.13276 2.2741-4.4952 2.4087-4.8037 0.51488-0.96471 0.18539-0.31521 0.10323-0.15472 0.101-0.13046 0.077346-0.085152 0.1917-0.166 0.22771-0.14644 0.13123-0.070179 0.31307-0.14677 1.067-0.45318 0.21518-0.1049 0.21989-0.12316 0.14631-0.096047 0.20837-0.16934 0.12666-0.13498 0.068013-0.089465 0.082446-0.12986 0.068436-0.12916 0.10489-0.24373 0.10697-0.316 0.070246-0.25917 0.067777-0.29687 0.052106-0.26125 0.2095-1.188 0.12896-0.65005 0.16726-0.77254 0.11379-0.63709 0.057805-0.49 0.015203-0.25351-0.003625-1.2007 0.009057-0.27027 0.0143-0.17908 0.060124-0.34281 0.10935-0.27999 0.035546-0.057803 0.097116-0.11995 0.10292-0.087066 0.12487-0.071603 0.072843-0.029332 0.16589-0.044388 0.2471-0.036052 0.32059-0.011358 0.1694 0.008284 0.35965 0.032745 0.76378 0.077099 0.53658 0.06655 0.41204 0.036982 0.51361 0.028491 0.40008-0.007597 0.45626-0.035891 0.81908-0.11065 0.81752-0.079956 0.61374-0.094611 0.41628-0.086577 0.21607-0.054063 0.28122-0.084421 0.70955-0.25392 0.36558-0.11157 0.39221-0.094202 0.95837-0.19547 1.055-0.27363 0.88832-0.19106 0.3417-0.096691 0.52169-0.17744 0.96776-0.3612 0.18338-0.074921 0.28102-0.1298 0.62392-0.32982 1.1213-0.57188 0.77553-0.4186 0.344-0.16687 0.443-0.17304 0.77812-0.25814 0.47948-0.13894 0.63651-0.16818 1.2508-0.28616 0.79999-0.14885 1.7582-0.28306 0.72126-0.14039 0.34316-0.075179 0.38948-0.096155 0.4785-0.13496 0.32402-0.10412 0.71459-0.24652 0.73252-0.22466 0.46284-0.11882 0.14334-0.02407 0.031926 0.004872 0.069089-0.27946 0.054825-0.17889 0.2261-0.52134 0.052017-0.14539 0.040103-0.14264 0.080563-0.38921 0.10849-0.80651 0.032068-0.15817 0.053995-0.16511 0.079932-0.15718 0.094916-0.13769 0.11023-0.132 0.38532-0.42326 0.114-0.15157 0.057298-0.089193 0.14097-0.27074 0.18081-0.45584 0.032668-0.018622 0.088817-0.10797 0.2291-0.33858 0.19322-0.26846 0.17292-0.21238 0.27623-0.28887 0.32054-0.27922 0.92713-0.744 0.37067-0.3234 0.30181-0.2856 0.16618-0.16788 0.66183-0.69924 0.37915-0.3621 0.33593-0.27607 0.80951-0.57519 0.57564-0.44373 0.7248-0.62672 0.96078-0.7955 0.26466-0.22997 0.32457-0.31058 0.22571-0.25254 0.16537-0.21869 0.13609-0.21536 0.4918-0.87804 0.088417-0.17083 0.14121-0.31008 0.13583-0.35288 0.066218-0.2022 0.11771-0.45899 0.047609-0.2658 0.039355-0.29866 0.03355-0.37788 0.019708-0.38799 0.004343-0.26648-0.007715-0.28322-7e-6 -0.032239 0.013836-0.023464 0.034672-0.034574 0.094732-0.055057 0.085925-0.03361 0.22773-0.056144 0.30545-0.032213 0.29201-0.002077 0.21455 0.010825 0.94484 0.09175 0.72551 0.047213 0.54515 0.004244 0.22851-0.012435 0.21987-0.024009 0.263-0.043397 0.40075-0.093158 0.22836-0.065761 0.49283-0.1705 0.59782-0.24168 0.27602-0.10235 0.4203-0.13524 0.42168-0.10119 0.19456-0.033122 0.33465-0.037551 0.19991-0.012223 0.32021-0.005439 0.45201 0.019924 0.51532 0.051456 0.85273 0.11022 0.20497 0.015004 0.25774 0.00458 0.4266-0.023531 1.3102-0.14295 0.28274-0.018786 0.22626-0.001402 0.25047 0.016654 0.2403 0.032112 0.37758 0.070759 0.54028 0.11411 0.24486 0.039167 0.2326 0.022992 0.20272 0.010009 0.45479-0.006361 0.44837-0.035211 0.5078-0.068009 0.47673-0.080565 0.60246-0.1281 0.26675-0.06835 0.2677-0.088567 0.3515-0.14272 0.32773-0.15003 0.56302-0.28837 0.70409-0.40002 1.497-0.90732 0.35552-0.22438 0.41872-0.27992 0.45086-0.32044 0.27152-0.21914 0.18691-0.17976 0.19267-0.2134 0.25822-0.33111 0.22464-0.33323 0.14881-0.24535 0.13732-0.24512 0.22222-0.44331 0.13758-0.3141 0.10443-0.26873 0.10477-0.30742 0.064979-0.21611 0.097292-0.36274 0.07974-0.33559 0.10234-0.49166 0.15933-0.88834 0.35755-2.1159 0.059869-0.28117 0.049764-0.16182 0.066562-0.151 0.05487-0.08997 0.099293-0.1214 0.12461-0.11298 0.1303-0.090245 0.13714-0.074277 0.169-0.070735 0.1584-0.04972 0.19199-0.047244 0.20794-0.039025 0.22651-0.027079 0.22436-0.01484 0.41276-0.001391 0.4516 0.041478 0.60964 0.094235 0.44178 0.083449 0.32424 0.072158 0.31042 0.085035 0.24576 0.079213 0.23501 0.085715 0.27696 0.11372 0.3499 0.1686 0.30414 0.17528 0.33733 0.22739 0.28257 0.22225 0.25856 0.23536 0.32464 0.32588 1.1291 1.1767 0.14541 0.17287 0.011813-0.00649 0.044134 0.014045 0.22793 0.11272 0.1722 0.072188 0.27378 0.085782 0.14367 0.03387 0.14503 0.02373 0.12612 0.010708 0.1653-9.42e-4 0.17248-0.021235 0.25298-0.071552 0.24676-0.10977 0.24097-0.13701 0.2359-0.1558 0.23164-0.1684 0.4534-0.35837 0.62547-0.52612 0.37978-0.3374 0.39304-0.36892 1.7655-1.6954 0.59077-0.58269 0.37591-0.40745 0.17715-0.21416 0.17056-0.22772 0.16312-0.23515 0.47819-0.72113 0.16597-0.23421 0.17463-0.22311 0.18693-0.2048 0.20304-0.17706 0.22258-0.13784 0.21362-0.082221 0.22016-0.048859 0.21396-0.021972 0.19077-0.001394 0.1442 0.012279 0.065745 0.018691 4.9214 6.6867" stroke="#bdc660"/>
    </defs>
    <g clip-path="url(#pc7018c8c13)">
     <use y="280.512" fill="#bdc660" stroke="#bdc660" xlink:href="#ma5ab09efb3"/>
    </g>
   </g>
  </g>
 </g>
 <defs>
  <clipPath id="pc7018c8c13">
   <rect x="7.2" y="7.2" width="245.69" height="266.11"/>
  </clipPath>
 </defs>
</svg>
