<?xml version="1.0" encoding="UTF-8"?>
<!DOCTYPE svg  PUBLIC '-//W3C//DTD SVG 1.1//EN'  'http://www.w3.org/Graphics/SVG/1.1/DTD/svg11.dtd'>
<svg width="140.71pt" height="280.51pt" version="1.1" viewBox="0 0 140.71 280.51" xmlns="http://www.w3.org/2000/svg" xmlns:xlink="http://www.w3.org/1999/xlink">
 <metadata>
  <rdf:RDF xmlns:cc="http://creativecommons.org/ns#" xmlns:dc="http://purl.org/dc/elements/1.1/" xmlns:rdf="http://www.w3.org/1999/02/22-rdf-syntax-ns#">
   <cc:Work>
    <dc:type rdf:resource="http://purl.org/dc/dcmitype/StillImage"/>
    <dc:date>2024-07-04T12:10:36.090945</dc:date>
    <dc:format>image/svg+xml</dc:format>
    <dc:creator>
     <cc:Agent>
      <dc:title>Matplotlib v3.7.1, https://matplotlib.org/</dc:title>
     </cc:Agent>
    </dc:creator>
   </cc:Work>
  </rdf:RDF>
 </metadata>
 <defs>
  <style type="text/css">*{stroke-linejoin: round; stroke-linecap: butt}</style>
 </defs>
 <g id="figure_1">
  <g id="patch_1">
   <path d="m0 280.51h140.71v-280.51h-140.71v280.51z" fill="none"/>
  </g>
  <g id="axes_1">
   <g id="PatchCollection_1">
    <defs>
     <path id="m9b74f743b1" d="m49.497-253.28-0.31859 0.14194-0.27144 0.068564-0.17144 0.021985-0.34966 0.001397-0.1547-0.015106-0.56161-0.089266-0.19173-0.01875-0.26606 0.011175-0.15145 0.034021-0.19782 0.083631-0.094333 0.059403-0.13871 0.11868-0.12912 0.15771-0.088585 0.15083-0.054557 0.12099-0.064148 0.18596-0.055062 0.2191-0.072902 0.4791-0.021768 0.41889 0.00123 0.2504 0.068112 1.0443 0.008077 0.27865-0.008167 0.17632-0.032962 0.23086-0.063707 0.22996-0.063281 0.1525-0.11489 0.19868-0.17633 0.21232-0.20553 0.17596-0.21741 0.13812-0.23208 0.1115-0.19191 0.072112-0.22806 0.069423-0.7672 0.18952-0.15886 0.049085-0.23119 0.089988-0.15954 0.078762-0.21567 0.13354-0.18192 0.14429-0.15913 0.15962-0.19301 0.25532-0.18266 0.3366-0.092421 0.22761-0.080124 0.2531-0.054354 0.23851-0.04113 0.32043-0.012051 0.35057 0.006808 0.19365 0.027201 0.27027 0.041187 0.23263 0.087578 0.319 0.19367 0.44511 0.25394 0.43756 0.80395 1.2152 0.21764 0.36502 0.35505 0.67079 0.25634 0.54188 0.18485 0.42218 0.26893 0.69074 0.22974 0.70749 0.21782 0.80509 0.07741 0.35706 0.045687 0.27554 0.027772 0.28518 0.004361 0.15618-0.015492 0.3004-0.052092 0.32193-0.067553 0.25622-0.11466 0.32522-0.45246 1.0608-0.085401 0.2349-0.112 0.41797-0.044632 0.36129-0.002867 0.28449 0.027324 0.32372 0.058898 0.32683 0.10161 0.36837 0.13531 0.37054 0.11241 0.2596 0.18173 0.36868 0.14509 0.25882 0.25494 0.39179 0.17884 0.23601 0.26115 0.30115 0.50026 0.54139 0.14933 0.17765 0.22063 0.312 0.19274 0.40211 0.10386 0.33426 0.06851 0.32186 0.051119 0.37795 0.16926 2.5779 0.073953 0.82206 0.081566 0.66633 0.081471 0.57364 1.0177 6.0061 0.46818 2.4641 0.12121 0.57133 0.13852 0.56049 0.12218 0.39159 0.1583 0.41518 0.22586 0.51302 0.1388 0.25945 1.0642-0.43135 0.63033-0.23852 0.54639-0.19192 0.65508-0.20957 0.8547-0.24086 0.59055-0.15269 1.0011-0.21006 0.56361-0.10146 0.65484-0.088925 0.35426-0.030383 1.2194-0.059024 0.27329-0.025849 1.0899-0.14626 0.51002-0.031438 0.33011 0.005553 0.23094 0.016951 1.1019 0.13994 0.35321 0.020438 0.2778-0.009049 0.26334-0.039181 0.192-0.052942 0.18157-0.068005 0.16957-0.077131 0.24135-0.1288 0.42679-0.26862 0.70058-0.48585 0.35032-0.20837 0.14043-0.065941 0.20175-0.074421 0.22279-0.054634 0.23865-0.026709 0.186 0.003429 0.16056 0.021591 0.2141 0.058109 0.26334 0.12116 0.17157 0.10789 0.23214 0.18724 0.23792 0.25254 0.1812 0.2394 0.18072 0.286 0.22953 0.4364 0.18976 0.43734 0.1458 0.40507 0.11601 0.38833 0.1043 0.44368 0.061018 0.35694 0.038418 0.32789 0.070798 0.93134 0.055533 0.51606 0.068514 0.39031 0.077184 0.31444 0.096741 0.31009 0.16825 0.42801 0.20098 0.41751 0.15604 0.28378 0.36913 0.59494 0.80501 1.1676 0.47868 0.74428 0.20408 0.35518 0.19493 0.36878 0.68946 1.3922 0.20625 0.36854 0.16399 0.26161 0.18589 0.26605 0.22249 0.28575 0.34156 0.39721 0.62756 0.69854 0.43685 0.53632 0.23478 0.32472 0.23752 0.35699 0.33963 0.55716 0.15639 0.27961 0.38888 0.77242 0.16588 0.37679 0.15115 0.37883 0.14412 0.39789 0.6676 2.0211 0.2801 0.71482 0.2578 0.54906 0.1801 0.32545 0.1985 0.30904 0.22641 0.30188 1.001 1.2138 0.36912 0.48204 0.34451 0.50204 0.3051 0.52756 0.24169 0.52579 0.2047 0.54654 0.17925 0.56006 0.52986 1.8372 0.19055 0.58558 0.1193 0.33269 0.22981 0.57977 0.21906 0.48216 0.10753 0.20393 0.23286 0.37824 0.91237 1.3596 0.23584 0.30961 0.26475 0.28616 0.27446 0.246 0.31558 0.2341 0.28818 0.1732 0.33164 0.15662 0.32098 0.11457 0.98044 0.27638 0.2688 0.092515 0.23305 0.099073 0.16794 0.086077 0.19418 0.11766 0.21715 0.15984 0.14861 0.13238 0.16509 0.17552 0.15608 0.19799 0.14041 0.20894 0.18249 0.33092 0.12308 0.28645 0.10407 0.32827 0.094816 0.52685 0.03379 0.53948-0.027727 1.7662-0.036466 0.52379-0.072875 0.36244-0.079693 0.23173-0.08155 0.18367-0.24638 0.45158-0.42634 0.72962-0.19615 0.39206-0.15659 0.407-0.1016 0.40733-0.067394 0.42119-0.088808 0.75227-0.14296 1.5892-0.065901 0.5099-0.1392 0.73802-0.13554 0.58909-0.081239 0.42458-0.056897 0.56725-0.017436 0.58533-0.01447 1.1972-0.043084 0.67873-0.057934 0.57469-0.15144 0.97176-0.04409 0.3818-0.005965 0.11522 0.012998 0.36363 0.055852 0.31331 0.067042 0.19627 0.07175 0.11595 0.048437 0.02841 0.16757-0.049715 0.5014-0.10597 0.61735-0.097538 0.3421-0.035859 0.35566-0.02161 0.59541 0.001452 0.83188 0.067531 0.43844 0.067382 0.29934 0.065217 0.37878 0.10422 0.3791 0.12904 1.2013 0.51908 0.29333 0.11479 0.2972 0.10278 0.43242 0.12022 0.45269 0.080137 0.27098 0.022963 0.36218 0.001077 0.40775-0.039747 0.28103-0.053525 0.21003-0.054037 0.38019-0.12591 0.44912-0.18841 0.53928-0.26586 1.2145-0.6389 0.63324-0.31783 1.6566-0.77324 1.17-0.58181 0.54838-0.23919 0.35066-0.12527 0.3056-0.088931 0.3576-0.075531 0.44573-0.044459 0.44752-0.006878 0.53747 0.021259 0.43162 0.050533 0.42584 0.089315 0.20464 0.060684 0.43204 0.17399 0.28218 0.1487 0.39098 0.25289 0.36956 0.28559 0.34908 0.30699 0.32844 0.31848 0.75377 0.79639 0.37966 0.37592 0.3155 0.2616 0.6343 0.48555 0.27822 0.26524 0.12431 0.15894 0.16745 0.28717 0.10238 0.23322 0.1975 0.56527 0.085304 0.30378 0.061108 0.26888 0.039912 0.24416 0.04172 0.44561 0.060296 0.44206 0.064338 0.23859 0.058106 0.16578 0.16096 0.3541 0.073231 0.12784 0.11508 0.17355 0.12538 0.16388 0.15496 0.17952 0.2304 0.23775 1.6596 1.5099 0.27736 0.27722 0.45406 0.49785 0.29207 0.3492 0.33539 0.45478 0.27014 0.4395 0.075368 0.14624 0.14339 0.34516 0.067515 0.25008 0.022414 0.1431 0.009638 0.23014-0.040383 0.34712-0.05899 0.23469-0.1271 0.34942-0.25111 0.51557-0.16188 0.28826-0.47152 0.76528-0.92168 1.4128-0.35803 0.51721-0.38436 0.52284-0.35323 0.44686-0.45763 0.5296-0.6619 0.69184-1.7795 1.7116-0.40494 0.44066-0.25523 0.30862-0.26519 0.34437-0.36895 0.50708-0.86321 1.2338-0.19099 0.30417-0.13553 0.25128-0.11951 0.25892-0.14186 0.37525-0.2748 0.93659-0.50245 1.4773-0.23292 0.75663-0.054039 0.22427-0.227 1.2215-0.24812 1.1971-0.10537 0.59011-0.078585 0.60008-0.02774 0.33885-0.018201 0.33942-0.012531 0.62547 0.006642 0.26127 0.030258 0.4162 0.048261 0.34822 0.11191 0.50503 0.097188 0.31503 0.115 0.30815 0.1308 0.30272 0.18164 0.36805 0.18254 0.32409 0.19944 0.31218 0.35281 0.46346 0.31125 0.3281 0.39934 0.33259 0.28187 0.19003 0.3009 0.17264 0.41329 0.204 2.0958 0.96548 0.52216 0.20744 1.704 0.54483 0.4599 0.18264 0.52898 0.24596 0.5368 0.29346 0.36739 0.2307 0.28325 0.2032 0.46892 0.36117 0.72241 0.49342 0.46644 0.37956 0.19744 0.14662 0.12234 0.074732 0.22876 0.1029 0.13791 0.037193 0.11455 0.015302 0.14581-3.24e-4 0.68186-0.10525 0.16689-0.003984 0.17499 0.017519 0.12249 0.029355 0.203 0.08651 0.26439 0.17184 0.28106 0.22167 0.46542 0.39875 0.22001 0.16502 0.11411 0.068461 0.13354 0.06257 0.14075 0.044784 0.21157 0.028084 0.12164-0.002672 0.66226-0.099508 0.29293-0.00809 0.27314 0.041916 0.15332 0.041572 0.80817 0.29341 0.32364 0.081417 0.14177 0.020479 0.2344 0.008431 0.23835-0.022379 0.37147-0.056505 0.18944-8.3e-4 0.11158 0.025019 0.14075 0.075934 0.10433 0.10064 0.097335 0.14962 0.1721 0.36708 0.14146 0.22755 0.15441 0.17342 0.13353 0.10443 0.16464 0.086497 0.12459 0.043047 0.18796 0.039864 0.26566 0.024653 0.64806 0.026269 0.35295 0.051192 0.18708 0.051595 0.16706 0.068526 0.21682 0.13384 0.15107 0.13411 0.092838 0.10455 0.10109 0.14528 0.089675 0.18553 0.051678 0.17065 0.026748 0.20552-0.007773 0.16659-0.028296 0.13709-0.07808 0.19604-0.18207 0.29123-0.16981 0.21307-0.6158 0.7166-0.28649 0.39124-0.26454 0.45613-0.12401 0.25426-0.14127 0.33253-0.097137 0.26316-0.063776 0.1939-0.111 0.40613-0.067616 0.35224-0.03563 0.29709-0.021414 0.2959-0.039308 0.8051-0.054354 0.50713-0.071346 0.34067-0.22575 0.85247-0.087462 0.3911-0.069403 0.38901-0.07306 0.58694-0.014647 0.2425-0.002514 0.7938 0.029223 0.89401 0.040382 0.4925 0.04826 0.4025 0.12816 0.808 0.091684 0.44511 0.063667 0.24803 0.2826 0.84127 0.19455 0.63534 0.39015 1.4973 0.43531 1.5022 0.092793 0.42293 0.024988 0.25016-0.009266 0.24483-0.071592 0.30993-0.12913 0.30391-0.2473 0.40631-0.31145 0.39019-0.21557 0.22618-0.23237 0.214-0.24821 0.19761-0.25205 0.17021-0.34233 0.18929-0.35678 0.15171-0.35995 0.10738-0.36645 0.059389-0.29491 0.0101-0.29957-0.013959-0.98897-0.084177-0.27925-0.013534-0.53046-0.00291-0.57101 0.03562-0.48546 0.069092-0.31854 0.068499-0.31414 0.085295-0.43972 0.14711-0.47962 0.19675-0.44476 0.22504-0.34333 0.21372-0.1414 0.10211-0.41709 0.35108-0.37314 0.36864-0.1627 0.18196-0.11212 0.13832-0.21481 0.32125-0.17951 0.37978-0.11797 0.40122-0.051595 0.41325 0.003702 0.26916 0.026415 0.27089 0.13432 0.80241 0.056315 0.41058 0.014514 0.18314 0.00837 0.41118-0.015358 0.25896-0.072045 0.42444-0.08289 0.27098-0.12018 0.2906-0.13753 0.26756-0.14708 0.24632-0.19845 0.2938-0.4249 0.54467-0.72943 0.81666-0.097179 0.13018-0.039076 0.026458-0.1357 0.15404-0.27717 0.36893-0.3581 0.54996-0.29148 0.53054-0.20879 0.46288-0.11884 0.31272-0.10077 0.31224-0.098357 0.37254-0.060783 0.28792-0.083464 0.54731-0.037283 0.38435-0.031866 0.67662 0.001105 0.5965 0.022064 0.49772 0.029042 0.37234 0.06575 0.51362 0.11159 0.72431 0.023816 0.23601 0.018275 0.48203-0.020057 0.4488-0.079522 1.112-0.030221 0.24214-0.061831 0.32607-0.060245 0.23654-0.10062 0.29322-0.050755 0.11503-0.19377 0.3376-0.16912 0.22265-0.17771 0.19487-0.19466 0.18531-0.38152 0.31582-0.31343 0.22976-0.46407 0.29627-0.47379 0.26612-0.32894 0.17096-1.3841 0.6792-0.38818 0.21729-0.28843 0.18078-0.72707 0.51388-2.0942 1.5657-0.4564 0.33219-0.77191 0.53586-0.52807 0.35035-0.9114 0.57455-2.4485 1.4496-0.39265 0.26222-0.035439 0.044942-0.033374 0.067099-0.034547 0.18149-0.024575 0.20536-0.022507 0.4181 0.002711 0.72658 0.021697 0.62089 0.050106 0.73742 0.085397 0.77005 0.1217 0.73755 0.095252 0.42993 0.10881 0.39585 0.17712 0.51615 0.15135 0.35811 0.16152 0.32196 0.10741 0.18697 0.14556 0.22056 0.19452 0.23848 0.22225 0.20624 0.18967 0.13756 0.2046 0.12293 0.41632 0.19621 0.43743 0.15727 0.49126 0.13761 0.55346 0.11283 0.28156 0.039307 0.26786 0.024917 0.51292 0.014399 0.47104-0.025278 0.46897-0.063026 0.42766-0.082536 0.3275-0.076804 0.47245-0.13275 0.26748-0.09824 0.37889-0.16716 0.34872-0.19149 0.85076-0.53363 0.27037-0.13333 0.25904-0.086155 0.24319-0.033631 0.27173 0.027017 0.26167 0.085421 0.22216 0.1189 0.22792 0.1889 0.18011 0.20856 0.16369 0.2474 0.16147 0.31579 0.1077 0.26083 0.12426 0.36795 0.097603 0.40306 0.043483 0.34437-0.002794 0.32906-0.043792 0.26586-0.073717 0.22195-0.073442 0.15507-0.13853 0.23068-0.66123 0.93592-0.18906 0.33728-0.082111 0.18776-0.056863 0.17466-0.034523 0.20644-0.00136 0.080206 0.035396 0.21992 0.089219 0.22128 0.18627 0.29557 0.32148 0.40955 0.10854 0.15437 0.1079 0.18906 0.082718 0.20034 0.086132 0.34813 0.041583 0.36781 0.030976 0.77846 0.072245 0.70307 0.013926 0.26293-0.01134 0.24882-0.045464 0.24024-0.047847 0.13886-0.21597 0.35673-0.31 0.32457-0.36929 0.3018-0.61178 0.46288-0.47352 0.38493-1.4584 1.2437-0.32128 0.28121-0.304 0.28561-0.2081 0.22324-0.20011 0.25618-0.70419 1.0878-0.22409 0.28523-0.21898 0.22964-0.22464 0.19666-0.33974 0.24716-0.42765 0.26552-0.94575 0.55276-0.62759 0.38037-0.31693 0.19937-0.36572 0.25306-0.42923 0.34736-0.67132 0.59739-1.4339 1.1544-0.22588 0.20703-0.3174 0.33248-0.16315 0.19779-0.19238 0.29386-0.096289 0.23446-0.027495 0.12938-0.014669 0.2052 0.01642 0.27664 0.089355 0.71772 0.02363 0.3408 0.001047 0.1769-0.025838 0.33886-0.061957 0.35168-0.063622 0.2252-0.12033 0.30303-0.13021 0.26399-0.16302 0.28102-0.12682 0.19452-0.24372 0.33278-0.29192 0.31843-0.16808 0.16337-0.27701 0.2589-0.30569 0.24362-0.25594 0.16033-0.28021 0.14606-0.32221 0.14567-0.33945 0.13807-2.8609 1.0603-0.46881 0.16358-0.45534 0.14376-0.58136 0.15017-0.36397 0.066026-0.32427 0.031225-0.37327-0.004598-0.70081-0.044098-0.33835 0.024014-0.20739 0.047859-0.26084 0.095354-0.30998 0.15843-0.17765 0.10982-0.47828 0.34302-0.47944 0.36788-0.29667 0.25365-0.28149 0.27123-0.42626 0.44086-0.24081 0.21235-0.23354 0.15796-0.11172 0.059699-0.20212 0.079605-0.24693 0.045932-0.26098 0.003214-0.15585-0.014014-0.63104-0.10447-0.73318-0.098535-0.44441-0.10152-0.27913-0.095376-0.27799-0.12401-0.95056-0.51733-0.3204-0.16094-0.25775-0.11155-0.41594-0.14152-0.22266-0.053187-0.49687-0.059614-0.25591-0.011119-0.32163 0.003091-0.93528 0.039288-0.35498 7.04e-4 -0.47987-0.022295-0.41118-0.041562-0.32944-0.050631-0.44635-0.085826-0.34302-0.078864-0.62366-0.18076-0.82409-0.28842-0.6517-0.287-0.5351-0.29158-0.43908-0.28813-0.34266-0.26815-0.62346-0.52988-0.53765-0.50984-0.44161-0.44249-1.2696-1.3822-0.42667-0.4414-0.36591-0.34539-0.2318-0.19375-0.37816-0.2829-0.77602-0.54933-0.31756-0.21078-0.29331-0.16025-0.51191-0.21226-0.26049-0.12025-0.21142-0.12308-0.21096-0.14625-0.37261-0.31067-0.74017-0.72388-0.29257-0.26061-0.15831-0.12521-0.36821-0.24315-0.40019-0.19313-0.27089-0.091715-0.28133-0.067553-0.21132-0.034902-0.31165-0.029806-0.3291-0.005476-0.37508 0.023781-0.42999 0.059936-0.5379 0.11211-0.53517 0.14032-2.8727 0.86672-0.21934 0.084898-0.13902 0.06709-0.19737 0.12486-0.12575 0.10477-0.10716 0.11295-0.21453 0.34294-0.15776 0.39601-0.24773 0.71403-0.46309 1.0166-0.12226 0.32285-0.050478 0.16054-0.091942 0.39079-0.047819 0.3639-0.041217 0.6522 0.012414 0.54224 0.030805 0.33427 0.1857 1.1267 0.074807 0.57675 0.05176 0.46725 0.035472 0.47076 0.00865 0.45428-0.012619 0.824-0.042531 0.63525-0.16247 1.3958-0.08236 1.2245-0.059593 0.42927-0.095311 0.33435-0.10375 0.21563-0.1495 0.2189-0.17664 0.19938-0.21104 0.20054-0.34119 0.29277-0.33364 0.25871-0.83913 0.62216-0.44769 0.28365-0.27391 0.14414-0.31617 0.14939-0.32924 0.14014-0.3919 0.14714-0.44445 0.13971-0.27822 0.071689-0.54564 0.10888-0.62766 0.079486-0.51534 0.032533-0.31893 0.002676-0.31377-0.012572-0.36004-0.03638-0.34636-0.063306-0.38289-0.11517-0.35078-0.16929-0.2908-0.2098-0.14682-0.13052-0.20732-0.209-0.22045-0.24778-0.32275-0.39647-0.24008-0.31516-0.44088-0.61283-0.3161-0.46305-0.34227-0.53996-0.14188-0.26178-0.090683-0.20418-0.064516-0.20056-0.027254-0.15752 0.020065-0.2481 0.061193-0.069375 0.066966-0.041981 0.023111-0.02048-0.021552-0.073748-0.15234-0.24575-0.9944-1.3894-0.30556-0.45045-0.17908-0.28708-0.2136-0.38808-0.15733-0.33338-0.14-0.34395-0.19344-0.58118-0.15478-0.59688-0.12686-0.62679-0.10318-0.63238-0.16272-1.2364-0.20924-1.9171-0.13486-1.3997-0.085294-1.191-0.028214-0.62066-0.014338-1.1165 0.037915-1.0278 0.040693-0.52504 0.056219-0.51866 0.066292-0.46685 0.082056-0.45835 0.082906-0.37884 0.09641-0.3699 0.1298-0.41384 0.09921-0.26771 0.3151-0.72146 0.58143-1.1664 0.17491-0.44105 0.099098-0.34487 0.074363-0.35613 0.070579-0.49159 0.047797-0.50214 0.11829-1.9809 0.078986-0.99437 0.006461-0.38507-0.008178-0.19949-0.023146-0.22514-0.044006-0.20091-0.038611-0.10215-0.081232-0.13504-0.072041-0.079642-0.12092-0.089489-0.11712-0.050391-0.1102-0.022595-0.08631-0.005229-0.19963 0.01591-0.21598 0.044118-0.38588 0.11599-0.38455 0.13636-1.7847 0.64811-0.49793 0.19292-0.37811 0.1699-0.88448 0.45704-0.21464 0.10053-0.2548 0.098901-0.4349 0.1056-0.44805 0.043597-0.32925-9.23e-4 -0.32435-0.02606-0.38007-0.063656-0.42721-0.10998-0.72109-0.19997-0.43719-0.14753-0.55154-0.23994-0.99549-0.50058-0.28073-0.15396-0.29168-0.17856-0.58714-0.37797-0.29037-0.20464-0.29966-0.2597-0.25208-0.28047-0.22206-0.30194-0.14982-0.23622-0.12614-0.25167-0.090198-0.2627-0.06109-0.28338-0.043759-0.5311 0.005432-0.33023 0.023942-0.33874 0.047142-0.40642 0.21218-1.4196 0.043914-0.55191-0.008311-0.58715-0.092649-1.3608-0.043597-0.42291-0.2834-1.832-0.060639-0.5329-0.034851-0.54607-0.003002-0.50821 0.018498-0.44596 0.11538-1.3754 0.006053-0.50077-0.026931-0.32949-0.20693-1.3166-0.035954-0.3041-0.036712-0.4569-0.022387-0.54991-0.004545-0.69009 0.056013-2.2303-0.007908-0.38912-0.052802-0.089796-0.086991-0.21082-0.10322-0.3113-0.080608-0.34915-0.024627-0.18743-0.007397-0.17985 0.033318-0.26983 0.056497-0.14815 0.06671-0.09995 0.11973-0.10496 0.11886-0.062791 0.16013-0.05401 0.23284-0.048252 1.1066-0.13822 0.28631-0.006827 0.15092 0.011224 0.15717 0.024818 0.17468 0.043745 0.2126 0.073337 0.67662 0.26914 0.25156 0.070432 0.64915 0.15227 0.4522 0.1406 0.37769 0.15182 0.2416 0.12717 0.21092 0.13895 0.1693 0.14666 0.23142 0.30537 0.097475 0.09045 0.061419 0.016886 0.065845-0.008537 0.10072-0.059846 0.086541-0.088258 0.11637-0.18825 0.12552-0.29287 0.18448-0.51171 0.11452-0.28453 0.13359-0.28109 0.15677-0.26719 0.1836-0.24606 0.18333-0.1992 0.21439-0.17589 0.24156-0.15061 0.2626-0.12641 0.49152-0.17978 0.45153-0.13345 0.24003-0.057601 0.5348-0.1037 0.6976-0.10296 0.89404-0.11254 0.1365-0.021107 0.053188-0.018005 0.015168 0.002621 0.050392-0.044779 0.05517-0.094654 0.077519-0.19487 0.082444-0.2767 0.22661-0.88658 0.18357-0.55729 0.081816-0.19407 0.14643-0.29815 0.37195-0.66098 0.18418-0.28588 0.28669-0.37524 0.28117-0.31845 0.72103-0.74826 0.3346-0.36452 0.13618-0.16264 0.19267-0.27819 0.053995-0.11581 0.021409-0.074287 0.007271-0.10118-0.012884-0.066257-0.041273-0.073407-0.10621-0.069349-0.34922-0.11171-0.098797-0.04163-0.073932-0.048894-0.036075-0.057877 0.017472-0.079042 0.069905-0.089543 0.10773-0.096395 0.13289-0.099926 0.53594-0.3588 0.086029-0.07791 0.070741-0.097254 0.068028-0.16679 0.043545-0.20037 0.076455-0.6994 0.037439-0.22629 0.057148-0.19676 0.065411-0.12939 0.069901-0.080604 0.06229-0.012812 0.18516-0.074202 0.26916-0.16419 0.28976-0.22688 0.25582-0.2694 0.17736-0.29791 0.06013-0.22359 0.007667-0.22635-0.039854-0.24526-0.27106-0.90223-0.26673-1.0022-0.16638-0.72558-0.08792-0.50361-0.054939-0.40014-0.061614-0.6587-0.092901-1.7464-0.039593-0.47102-0.12308-0.8508-0.081382-0.38196-0.21871-0.81578-0.20253-1.0365-0.066763-0.28303-0.054462-0.16271-0.089343-0.18095-0.060937-0.085384-0.094322-0.093411-0.065612-0.044168-0.10837-0.044383-0.090844-0.015143-0.1735 0.013527-0.20984 0.069695-0.18166 0.087864-0.73846 0.41302-0.1713 0.082451-0.22154 0.088706-0.17628 0.050799-0.20826 0.030649-0.25531-0.018018-0.1878-0.061434-0.18308-0.097857-0.29691-0.22301-0.87648-0.84372-0.34097-0.28016-0.30618-0.20336-0.38322-0.20458-0.30212-0.13036-0.31453-0.11266-0.32358-0.095547-0.33137-0.08033-0.54475-0.10036-0.59259-0.069573-0.34092-0.022154-0.36924-0.008408-0.36631 0.009729-1.0327 0.09496-0.54197 0.029562-0.54631-0.040383-0.34655-0.0694-0.26353-0.076841-0.22204-0.080719-0.24686-0.10609-0.33502-0.16973-0.43376-0.24893-1.3739-0.82267-0.37179-0.20553-0.50816-0.25243-0.571-0.23677-0.47414-0.15409-0.56804-0.13693-0.58608-0.10199-0.55859-0.073845-0.74242-0.070368-0.49562-0.022929-0.72999 0.012009-1.5302 0.1226-0.20934 0.005293 0.094215-0.094178 0.21689-0.27989 0.28085-0.40521 0.27383-0.44098 0.23802-0.42728 0.30061-0.61855 0.21122-0.51528 0.17079-0.49822 0.12379-0.44116 0.1586-0.74564 0.079513-0.50545 0.05913-0.48877 0.038726-0.43578 0.026714-0.49177 0.006535-0.36752-0.014046-0.4543-0.058973-0.46211-0.091335-0.33281-0.11696-0.26738-0.14105-0.25094-0.38694-0.63453-0.1255-0.25728-0.11922-0.33115-0.14839-0.58475-0.32679-1.6133-0.26962-1.1518-0.20608-0.72196-0.14227-0.42707-0.15851-0.42156-0.19651-0.45782-0.26653-0.53077-0.22684-0.40182-0.6906-1.1616-0.40882-0.74147-0.24859-0.49979-0.23378-0.5283-0.19918-0.52378-0.15253-0.47117-0.16294-0.59387-0.1747-0.75555-0.20053-0.93565-0.18392-0.75928-0.17843-0.59304-0.16102-0.41906-0.24145-0.49498-0.5548-0.95885-0.20261-0.37313-0.72388-1.5262-0.36672-0.697-0.28522-0.46851-0.8398-1.3187-0.82367-1.1903-0.18825-0.3072-0.057924-0.10977-0.021357-0.06563 0.040637 0.0073 0.067428-0.013712 0.23104-0.085746 0.22447-0.11137 0.28031-0.16967 0.2975-0.20592 0.40051-0.30354 0.40251-0.3163 0.37994-0.33234 0.33017-0.35113 0.35016-0.40998 0.67269-0.75362 0.16406-0.2138 0.15972-0.23623 0.48628-0.83769 0.30048-0.4476 0.29246-0.36223 0.72931-0.79779 0.28787-0.34095 0.27882-0.42943 0.11206-0.25172 0.089844-0.2654 0.073242-0.27165 0.082196-0.39602 0.073514-0.55716 0.068197-0.8104 0.027682-0.49238 0.055845-1.5716 0.036965-0.71466 0.05799-0.80451 0.051275-0.39444 0.10545-0.50535 0.23533-0.92454 0.18718-0.9265 0.10386-0.42556 0.251-0.75755 0.16288-0.54046 0.094672-0.23425 0.13003-0.20625 0.10585-0.11118 0.10245-0.082049 0.35346-0.21386 0.17732-0.12743 0.35337-0.38014 0.16123-0.13236 0.099661-0.06246 0.15453-0.063833 0.15704-0.022182 0.1034 0.009639 0.12719 0.038656 0.10127 0.052581 0.088546 0.062859 0.17627 0.17697 0.5087 0.72165 0.29283 0.3827 0.21024 0.23941 0.3169 0.30674 0.38042 0.30413 0.24302 0.17108 0.42293 0.26699 0.25915 0.14785 0.49386 0.24076 0.3057 0.11176 0.24431 0.060732 0.11419 0.015491 0.13419-0.001743 0.091942-0.063813-0.039588-0.18777-0.073108-0.24718-0.17314-0.50497-0.32588-0.86714-0.21486-0.61044-0.49059-1.5657-0.1589-0.3953-0.17702-0.36168-0.14987-0.26018-0.12404-0.18705-0.11724-0.15741-0.1832-0.21569-0.3597-0.3654-0.87442-0.78086-0.23173-0.2252-0.26135-0.27863-0.16566-0.19393-0.13936-0.18018-0.14826-0.21633-0.21686-0.38152-0.22522-0.50787-0.13458-0.38496-0.19798-0.64289-0.11987-0.31438-0.20132-0.39999-0.28354-0.4673-0.27636-0.35781-0.37366-0.39556-0.27689-0.25223-0.86423-0.70986-0.21316-0.18797-0.29683-0.2937-0.30712-0.36523-0.82777-1.1592-0.29034-0.35979-0.16548-0.17743-0.20046-0.19192-0.75146-0.6325-0.25448-0.24403-0.62328-0.64226-0.36251-0.42172-0.21759-0.28845-0.26865-0.3994-0.15969-0.26042-0.31042-0.55111-0.25269-0.48724-0.91967-1.8772-0.71753-1.3888-0.1778-0.36602-0.15445-0.35166-0.10018-0.26404-0.077033-0.25122-0.044315-0.20572-0.025213-0.2725 0.008219-0.51013-0.010022-0.29444 0.004721-0.28742 0.066567-0.27833 0.083064-0.16196 0.21302-0.28081 0.25363-0.25613 0.44312-0.371 0.97188-0.70003 0.48856-0.39425 0.31081-0.29658 0.22466-0.24353 0.35442-0.442 0.34667-0.48999 0.18721-0.28639 0.46763-0.78728 0.36272-0.67225 0.8165-1.5971 0.23112-0.41152 0.19135-0.30339 0.20662-0.29172 0.25876-0.32032 0.27904-0.30212 0.2979-0.28314 0.31677-0.26235 0.51975-0.35971 0.5508-0.32108 0.5692-0.2963 1.1487-0.5651 0.55733-0.2906 0.52949-0.31114 0.48662-0.34486 0.22297-0.18845 0.354-0.33444 0.33256-0.35939 0.30411-0.38396 0.3247-0.50153 0.27487-0.52492 0.22685-0.53528 0.17637-0.53363 0.14222-0.5636 0.11933-0.56649 0.13223-0.99138 0.062435-0.37228 0.091551-0.37398 0.12412-0.38131 0.17484-0.44964 0.55818-1.2833 0.24089-0.59877 0.1157-0.3211 0.19694-0.62812 0.1555-0.63332 0.10562-0.62086 0.052296-0.55095 0.014124-0.43199-0.008727-0.42427-0.040389-0.50282-0.088033-0.55925-0.11964-0.46284-0.13398-0.30954-0.11423-0.08122-0.43723-0.019776-3.6346-0.082445-1.23-0.051649-0.59505-0.053681-0.2906-0.04229-0.4095-0.092497-0.23101-0.078996-0.17317-0.07386-0.34622-0.18013-0.41566-0.25745-0.47712-0.32765-5.1238-3.7755 0.047284-0.04421 0.11888-0.18111 0.3761-0.68842 0.58123-1.1899 0.60175-1.3024 1.1581-2.593 4.484-10.188 0.76477-1.775 0.48028-1.1947 0.22028-0.60318 0.19825-0.60861 0.16627-0.61554 0.12061-0.62432 0.046556-0.42647 0.012121-0.44265-0.040057-0.64719-0.093681-0.6582-0.13524-0.66825-0.1677-0.67649-0.19324-0.68134-0.21323-0.68013-0.22815-0.66858-0.23726-0.64012-0.23801-0.58488-0.22489-0.48849-0.18697-0.33076-0.095648-0.09082 0.073903-0.027858 0.10561-0.11656 0.060397-0.084119 0.19855-0.33592 0.20905-0.4487 0.096651-0.24837 0.17616-0.55156 0.10434-0.40891 0.10487-0.53072 0.063588-0.4416 0.047023-0.4746 0.024649-0.46664 0.003116-0.46074-0.018773-0.45467-0.11832-1.419-0.006925-0.36335 0.014651-0.30583 0.023313-0.21475 0.041212-0.24879 0.10141-0.42108 0.1652-0.48628 0.19402-0.44144 0.14983-0.28648 0.20485-0.34594 0.19961-0.30924 0.51528-0.75852 0.24338-0.38067 0.15753-0.27219 0.14349-0.2751 0.34162-0.74912 0.53609-1.393 0.16693-0.35321 0.35463-0.68226 0.1899-0.33166 0.17712-0.26664 0.59986-0.79128 0.28742-0.3962 0.26451-0.41333 0.25825-0.43156 0.15313-0.26993 0.13883-0.27697 0.111-0.27979 0.081953-0.27918 0.058038-0.28874 0.038628-0.33868 0.015478-0.35757 6.37e-4 -0.40345-0.04627-1.7143-0.001687-0.45892 0.005806-0.19222 0.048932-0.50196 0.10897-0.49597 0.067631-0.20661 0.14977-0.36454 0.1484-0.29965 0.26845-0.45094 0.17992-0.24992 0.19733-0.23573 0.33763-0.32784 0.38083-0.27915 0.43445-0.22976 0.30847-0.12284 0.31856-0.1018 0.73931-0.16947 0.78272-0.13687 0.56201-0.083344 0.72586-0.086025 1.0434-0.095601 0.63258-0.092991 0.42993-0.092773 0.4962-0.13089 0.48223-0.14556 1.7479-0.57253 0.38073-0.098628 0.38116-0.069214 0.3784-0.037761 0.46987-0.021099 0.47537 0.015348 0.47253 0.070564 0.44259 0.13292 0.42173 0.18808 0.3891 0.22987 0.3412 0.25842 0.13891 0.12823 0.24832 0.30291 0.13061 0.29274-0.00314 0.23744-0.12588 0.12028-0.090445 0.081757-0.02283 0.11642 0.056506 0.18072 0.0864 0.13192 0.092109 0.10382 0.103 0.094619 0.13476 0.10267 0.27024 0.16215 0.36341 0.17286 0.44461 0.17499 0.29344 0.096735 1.1321 0.33696 0.56275 0.19435 0.28634 0.12834 0.20424 0.1105 0.23115 0.14887 0.31102 0.24576 0.23649 0.2266 0.2863 0.3369 0.16924 0.25026 0.10266 0.18562 0.13154 0.31866 0.04974 0.17989 0.039616 0.23225 0.013272 0.29604-0.034829 0.31892-0.095036 0.31568-0.10548 0.2051-0.14417 0.19441-0.14476 0.14372-0.24472 0.17339" stroke="#bdc660"/>
    </defs>
    <g clip-path="url(#p5b360e93a4)">
     <use y="280.512" fill="#bdc660" stroke="#bdc660" xlink:href="#m9b74f743b1"/>
    </g>
   </g>
  </g>
 </g>
 <defs>
  <clipPath id="p5b360e93a4">
   <rect x="7.2" y="7.2" width="126.31" height="266.11"/>
  </clipPath>
 </defs>
</svg>
