<?xml version="1.0" encoding="UTF-8"?>
<!DOCTYPE svg  PUBLIC '-//W3C//DTD SVG 1.1//EN'  'http://www.w3.org/Graphics/SVG/1.1/DTD/svg11.dtd'>
<svg width="195.26pt" height="280.51pt" version="1.1" viewBox="0 0 195.26 280.51" xmlns="http://www.w3.org/2000/svg" xmlns:xlink="http://www.w3.org/1999/xlink">
 <metadata>
  <rdf:RDF xmlns:cc="http://creativecommons.org/ns#" xmlns:dc="http://purl.org/dc/elements/1.1/" xmlns:rdf="http://www.w3.org/1999/02/22-rdf-syntax-ns#">
   <cc:Work>
    <dc:type rdf:resource="http://purl.org/dc/dcmitype/StillImage"/>
    <dc:date>2024-07-04T12:10:37.712470</dc:date>
    <dc:format>image/svg+xml</dc:format>
    <dc:creator>
     <cc:Agent>
      <dc:title>Matplotlib v3.7.1, https://matplotlib.org/</dc:title>
     </cc:Agent>
    </dc:creator>
   </cc:Work>
  </rdf:RDF>
 </metadata>
 <defs>
  <style type="text/css">*{stroke-linejoin: round; stroke-linecap: butt}</style>
 </defs>
 <g id="figure_1">
  <g id="patch_1">
   <path d="m0 280.51h195.26v-280.51h-195.26v280.51z" fill="none"/>
  </g>
  <g id="axes_1">
   <g id="PatchCollection_1">
    <defs>
     <path id="m559a77df84" d="m135.85-261.06 1.3445 2.0946 0.28779 0.42891 0.32539 0.45506 0.30686 0.39123 0.42784 0.53154 0.25388 0.33254 0.19441 0.24044 0.13184 0.14433 0.12262 0.11659 0.20299 0.1567 0.18586 0.11361 0.12643 0.064059 0.11149 0.048466 0.27875 0.095912 0.34347 0.085482 0.39799 0.073301 0.94896 0.13741 0.4002 0.065356 0.85658 0.17731 0.30392 0.047402 0.14911 0.012606 0.19526-6.32e-4 0.19176-0.025624 0.14816-0.034136 0.13583-0.038906 0.34274-0.10878 0.18701-0.052801 0.12821-0.029276 0.1377-0.021344 0.17553-0.0053 0.21552 0.036097 0.20992 0.069625 0.48698 0.19722 0.21485 0.079536 0.63294 0.20506 0.22712 0.091052 0.16815 0.084719 0.12319 0.071628 0.45882 0.28611 0.523 0.27722 0.15782 0.10532 0.11765 0.10083 0.14294 0.15097 0.25169 0.30559 0.11092 0.1247 0.074363 0.072316 0.07295 0.05881 0.089966 0.054198 0.19906 0.061437 0.22284 0.022656 0.2372 0.009741 0.24271 0.021891 0.2406 0.054623 0.2251 0.086381 0.19579 0.11368 0.14988 0.13875 0.083457 0.16378 0.010185 0.085323-0.00781 0.094771-0.034596 0.13554-0.040908 0.10851-0.12062 0.24636-0.4205 0.72139-0.11014 0.21474-0.097926 0.24233-0.026023 0.084695-0.032839 0.13904-0.019633 0.11972-0.016095 0.15334-0.012727 0.36234 0.004559 0.36207 0.025443 0.60454 0.042744 0.61301 0.048362 0.4581 0.03818 0.27203 0.046788 0.26493 0.078364 0.33029 0.07519 0.2278 0.11006 0.24435 0.074085 0.13457 0.069449 0.11246 0.1034 0.14204 0.11379 0.13067 0.3546 0.34812 0.12647 0.13366 0.23952 0.27091 0.26326 0.31904 0.44665 0.57722 1.0294 1.3933 0.14887 0.19138 0.15473 0.18534 0.18289 0.19436 0.096475 0.088752 0.0766 0.062142 0.0808 0.056355 0.12508 0.065814 0.129 0.036939 0.15402 0.001922 0.15969-0.035604 0.16235-0.064838 0.16629-0.087821 0.23225-0.14668 0.17333-0.12097 1.0778-0.80375 0.38644-0.26294 0.18828-0.11511 0.19268-0.1073 0.3203-0.15554 0.40498-0.16967 0.91544-0.34927 0.36249-0.14739 0.24682-0.11082 0.36755-0.18351 0.48451-0.27132 0.42822-0.26347 1.625-1.0656 0.64889-0.43509 0.36873-0.2615 0.31036-0.23621 0.16933-0.13882 0.16601-0.14516 0.27008-0.25835 0.27619-0.2892 0.29132-0.32523 0.73421-0.84687 0.21936-0.23738 0.19368-0.18754 0.089568-0.070915 0.059809-0.021251 0.014987-0.023182 0.061593-0.042546 0.16531-0.088101 0.21074-0.091421 0.23702-0.081626 0.14767-0.03937 0.15117-0.030198 0.19789-0.023315 0.18897-0.006665 0.19022 0.007005 0.34289 0.043901 0.33376 0.078859 0.28439 0.096126 0.13379 0.055734 0.14904 0.071147 0.27657 0.16005 0.24516 0.17919 0.20768 0.19401 0.16175 0.20608 0.1038 0.20588 0.054393 0.18865 0.076211 0.33998 0.056274 0.19536 0.046693 0.12108 0.062791 0.10394 0.079058 0.078517 0.097513 0.067514 0.1027 0.057005 0.070506 0.034135 0.14346 0.057573 0.15359 0.050444 0.19462 0.054981 0.20467 0.040115 0.12437 0.010684 0.10094 2.51e-4 0.12588-0.009843 0.11224-0.017412 0.13635-0.030905 0.11543-0.03405 0.16633-0.059882 0.21839-0.0923 0.18115-0.087179 0.1042-0.056567 0.30493-0.18989 0.24818-0.17468 0.23321-0.18274 0.15459-0.1342 0.20655-0.20034 0.41986-0.47696 0.1077-0.096258 0.065798-0.047333 0.11451-0.065123 0.13484-0.052005 0.056147-0.014327 0.16902-0.01984 0.1521 0.008973 0.07488 0.0131 0.16939 0.048435 0.2133 0.091769 0.26147 0.14947 0.21975 0.15071 0.1994 0.15451 0.2136 0.18392 0.21806 0.2084 0.1425 0.14876 0.20941 0.24043 0.22855 0.30299 0.20527 0.32472 0.09453 0.16949 0.085399 0.17379 0.011124 0.040213 0.022718 0.05959 0.08801 0.1138 0.13489 0.15067 0.16379 0.16539 0.26277 0.24738 0.15802 0.16272 0.15258 0.17441 0.21853 0.28362 0.1134 0.1672 0.088155 0.14496 0.10904 0.21723 0.064434 0.18672 0.03583 0.21217 0.009669 0.18408 0.006147 0.36209-0.002987 0.21271-0.022614 0.29143-0.005562 0.16676 0.016741 0.18651 0.016519 0.071217 0.046685 0.13594 0.19837 0.43666 0.039468 0.13798 0.008713 0.083983-0.013064 0.16084-0.040669 0.17369-0.057015 0.18538-0.086006 0.25078-0.0874 0.22385-0.080788 0.18562-0.10108 0.20378-0.057871 0.099381-0.11335 0.1627-0.15915 0.18747-0.15299 0.1507-0.13132 0.11075-0.21083 0.1577-0.1675 0.13384-0.16441 0.14797-0.21594 0.22009-0.21957 0.2558-0.68511 0.88442-0.14685 0.18148-0.12283 0.14232-0.65768 0.71534-0.22502 0.26362-0.1139 0.14371-0.1168 0.16078-0.11444 0.18297-0.071808 0.13885-0.051698 0.12218-0.043523 0.13363-0.028496 0.12769-0.018277 0.17627 0.005018 0.17224 0.011649 0.091215 0.02721 0.13557 0.076303 0.25739 0.13011 0.34426 0.14496 0.32996 0.15128 0.30182 0.10949 0.1938 0.053814 0.084274 0.11826 0.16059 0.15999 0.17919 0.12841 0.1219 0.11086 0.092747 0.1857 0.1352 0.25853 0.15776 0.24992 0.13419 0.45478 0.23139 0.17477 0.09953 0.11571 0.075563 0.11502 0.086593 0.1516 0.13924 0.090047 0.10395 0.081395 0.11946 0.051792 0.1018 0.049888 0.15511 0.018205 0.15022-8.67e-4 0.11118-0.028219 0.24998-0.055889 0.30894-0.073467 0.29881-0.04373 0.13374-0.03991 0.099691-0.088284 0.15966-0.042162 0.05477-0.087921 0.090822-0.13384 0.10832-0.10029 0.071418-0.44422 0.29109-0.23126 0.17325-0.14634 0.11939-0.13887 0.12166-0.16114 0.15511-0.13626 0.14958-0.20086 0.24671-0.10234 0.1016-0.11914 0.10296-0.31998 0.2423-0.39362 0.28122-0.3723 0.2837-0.5118 0.3665-0.13442 0.10436-0.12798 0.11254-0.29299 0.29365-0.10938 0.099462-0.078639 0.064256-0.17075 0.12441-0.21734 0.1393-0.25697 0.1471-0.17533 0.091595-0.23196 0.11073-0.25379 0.10844-0.38707 0.14459-0.34546 0.11443-0.2584 0.078884-0.82523 0.23734-0.80064 0.24919-0.62195 0.19936-0.27688 0.094803-0.27869 0.1034-0.26213 0.10924-0.1671 0.076538-0.18771 0.093294-0.16353 0.089437-0.20648 0.12794-0.16152 0.11129-0.16885 0.12622-0.17835 0.14358-0.30736 0.2712-0.17288 0.16599-0.21459 0.2243-0.20441 0.24071-0.18259 0.25344-0.089011 0.14619-0.078611 0.14987-0.061798 0.13934-0.065876 0.18465-0.044039 0.15921-0.032048 0.14738-0.027958 0.1695-0.025784 0.27416-0.003281 0.27948 0.014153 0.21967 0.032307 0.21066 0.056544 0.21571 0.079549 0.20569 0.11464 0.2258 0.11513 0.18916 0.084451 0.12542 0.2556 0.34018 0.1858 0.22194 0.11394 0.11892 0.13146 0.10878 0.085821 0.048196 0.086743 0.025261 0.13411-0.010669 0.134-0.06198 0.13105-0.10331 0.13023-0.12951 0.46426-0.48668 0.19154-0.20856 0.20477-0.23636 0.16465-0.20376 0.15825-0.23034 0.081053-0.13864 0.29985-0.59959 0.25725-0.47249 0.14451-0.24004 0.08841-0.13406 0.089625-0.12477 0.11248-0.14084 0.11577-0.12711 0.13176-0.12431 0.11025-0.089731 0.13977-0.099155 0.10754-0.067707 0.18732-0.099196 0.1532-0.063657 0.18618-0.05931 0.15154-0.034166 0.15967-0.022164 0.2167-0.007283 0.14877 0.008311 0.2137 0.026332 0.33071 0.059373 0.32397 0.077335 0.30404 0.086382 1.1421 0.34809 0.31426 0.084199 0.40584 0.094217 0.28735 0.059105 0.21011 0.031434 0.16443 0.01044 0.09131-0.002152 0.098557-0.010176 0.17633-0.039353 0.18469-0.071637 0.1325-0.072982 0.069881-0.046923 0.11984-0.096749 0.13121-0.13671 0.051867-0.066578 0.059684-0.094161 0.020133-0.047768 0.002102-0.029905 0.023238 0.009497 0.032984 0.033479 0.051291 0.064362 0.061845 0.091018 0.099495 0.17601 0.11186 0.2322 0.24308 0.55927 0.31197 0.74868 0.10687 0.28982 0.075117 0.25159 0.050097 0.24961 0.012702 0.11158 0.01215 0.27783-7.47e-4 0.60343 0.007422 0.16412 0.02488 0.26696 0.043476 0.32267 0.07295 0.44984 0.17552 0.92633 0.038273 0.24319 0.014344 0.16226-1.36e-4 0.13726-0.014066 0.12842-0.021746 0.093689-0.033853 0.09224-0.033746 0.066852-0.068221 0.10302-0.113 0.14194-0.067204 0.10676-0.022052 0.060009-0.010015 0.062462 0.001979 0.057175 0.025422 0.094526 0.040345 0.077357 0.044711 0.062676 0.1205 0.13029 0.24369 0.2167 0.09274 0.10634 0.055131 0.076003 0.072319 0.11343 0.10384 0.18892 0.060928 0.12664 0.10266 0.25218 0.059895 0.19322 0.058301 0.25 0.048137 0.26095 0.025571 0.20234 0.013038 0.17033 0.004923 0.22451-0.011454 0.21002-0.028519 0.20593-0.049203 0.21933-0.056133 0.17623-0.059771 0.14759-0.093971 0.17905-0.078672 0.11525-0.11279 0.13818-0.17288 0.18795-0.17102 0.16655-0.15835 0.13302-0.14713 0.10472-0.11785 0.070226-0.48762 0.26176-0.15564 0.097658-0.13288 0.096875-0.28095 0.22425-0.38466 0.35553-0.30317 0.2695-0.28262 0.27507-0.17083 0.15766-0.23925 0.20896-0.37091 0.30975-0.27096 0.21175-0.23321 0.15493-0.091453 0.050828-0.08417 0.036417-0.053058 0.011068-0.012605-9.31e-4 -0.014275-0.010419-0.014754-0.012222-0.049373-0.008565-0.06105 0.001468-0.066445 0.00883-0.18775 0.041517-0.43283 0.11513-0.19748 0.0365-0.68707 0.1051-0.18782 0.041323-0.20359 0.059706-0.23187 0.094981-0.25158 0.11599-0.14201 0.07204-0.85884 0.4981-0.17057 0.11463-0.12892 0.1069-0.095203 0.0946-0.45628 0.48191-0.38488 0.43445-0.19664 0.26141-0.25691 0.40175-0.13713 0.19427-0.25254 0.31719-0.24252 0.26578-0.21982 0.20873-0.3835 0.32772-0.47369 0.35281-0.36009 0.304-0.12956 0.097835-0.2894 0.20196-0.15394 0.13221-0.19496 0.19466-0.41848 0.44997-0.15618 0.18719-0.25579 0.32968-0.20012 0.23924-0.049215 0.046393-0.011003 0.043019-0.033509 0.079926-0.058435 0.12006-0.10958 0.20004-0.24098 0.39826-0.18495 0.28475-0.23795 0.33695-0.17144 0.21796-0.17063 0.19853-0.15496 0.16637-0.24161 0.2372-0.31214 0.27474-0.25358 0.20722-0.61306 0.47961-0.33376 0.26899-0.32574 0.27902-0.7523 0.66372-0.54505 0.4531-0.38905 0.30753-0.33757 0.25176-0.2703 0.18753-0.24426 0.15266-0.26953 0.14768-0.37173 0.17371-0.92586 0.38522-0.88744 0.41546-1.0131 0.48999-0.4088 0.18004-0.16002 0.060427-0.21782 0.06405-0.1689 0.027653-0.21367-0.007044-0.16427-0.049085-0.13902-0.070724-0.12604-0.083655-0.12453-0.098212-0.21138-0.19536-0.18176-0.18852-0.16514-0.18267-0.23986-0.27944-0.68238-0.82407-0.18475-0.21211-0.10157-0.1069-0.10838-0.10019-0.066731-0.051534-0.060939-0.038642-0.072753-0.0342-0.073978-0.020225-0.095512-0.003961-0.078682 0.013025-0.10531 0.035925-0.099157 0.048139-0.13322 0.081917-0.15343 0.11471-0.23595 0.20061-0.47781 0.43882-0.28511 0.25129-0.2036 0.16737-0.14758 0.11328-0.18749 0.13374-0.24219 0.15702-0.24714 0.14372-0.33513 0.17217-0.33282 0.14957-0.4057 0.15879-0.40691 0.13873-0.2427 0.073649-0.27625 0.075262-0.56187 0.1361-1.0973 0.24571-0.20686 0.038649-0.20983 0.030184-0.11127 0.0077-0.041843-0.007625-0.10212 0.041421-0.045156 0.096475-0.00454 0.050178 0.008602 0.078785 0.053042 0.14355 0.086345 0.146 0.11816 0.16126 0.40219 0.48067 0.1804 0.22813 0.1659 0.23121 0.15868 0.2478 0.11403 0.20086 0.095586 0.19026 0.091006 0.21231 0.077408 0.23085 0.036741 0.14904 0.02471 0.14664 0.012208 0.18969-0.01449 0.18199-0.060488 0.22124-0.095582 0.20815-0.11679 0.19765-0.23743 0.34412-0.12488 0.1455-0.20118 0.17148-0.23731 0.15363-0.26343 0.14076-0.28206 0.13161-0.29514 0.1252-0.61432 0.2383-0.9478 0.33932-0.63424 0.2124-0.31502 0.098425-0.31223 0.08992-0.30807 0.077576-0.30208 0.05992-0.29364 0.035021-0.28189 3.92e-4 -0.2657-0.047122-0.22605-0.093608-0.15215-0.089642-0.19766-0.14188-0.12203-0.099241-0.48472-0.4249-0.18192-0.14191-0.17247-0.10835-0.14526-0.063873-0.086893-0.023722-0.091991-0.012223-0.13236 0.002798-0.1628 0.028869-0.16159 0.052123-0.19565 0.086911-0.1504 0.078233-0.20203 0.11671-0.46611 0.29715-0.38647 0.23702-0.15664 0.087769-0.037258 0.014041-0.010085-0.004373-0.024255 0.003814-0.088584 0.03634-0.20681 0.1103-0.37698 0.2385-0.28518 0.20127-0.16197 0.12998-0.12897 0.11343-0.31837 0.30471-0.29505 0.29413-0.20044 0.21222-0.16385 0.1897-0.11897 0.15732-0.10904 0.17405-0.055432 0.11375-0.025289 0.068202-0.023018 0.10648 0.002963 0.093033 0.027353 0.077756 0.022523 0.033779 0.03599 0.036822 0.060547 0.041808 0.1211 0.054038 0.19954 0.058307 0.28181 0.060557 0.96154 0.16998 0.93656 0.2038 0.25042 0.050032 0.29231 0.046041 0.26086 0.024899 0.34769 0.012909 0.53812 0.009437 0.33808 0.024325 0.27217 0.041422 0.12881 0.029103 0.14061 0.041367 0.11338 0.04308 0.1005 0.048143 0.083364 0.049517 0.12564 0.095908 0.11572 0.11228 0.17501 0.20956 0.53821 0.76232 0.15889 0.2092 0.17112 0.20969 0.18253 0.20836 0.20546 0.21914 0.18394 0.18505 0.93738 0.88965 0.12767 0.13152 0.12886 0.15038 0.086608 0.12397 0.060697 0.1154 0.035181 0.10207 0.016291 0.10664 3.13e-4 0.044554-0.020622 0.1386-0.029117 0.092174-0.042776 0.0995-0.057952 0.10826-0.12072 0.18596-0.30935 0.41157-0.48649 0.58585-0.17768 0.23004-0.13854 0.20201-0.091284 0.14893-0.073851 0.13488-0.082382 0.17915-0.03175 0.086936-0.029322 0.10812-0.014242 0.17464 0.013315 0.081325 0.07525 0.15326 0.12852 0.13545 0.1864 0.13243 0.1264 0.071801 0.21698 0.10478 0.17552 0.07192 0.16091 0.05339 0.14727 0.034565 0.1127 0.014954 0.17058 0.001744 0.19823-0.020139 0.34579-0.053172 0.10164-0.010545 0.14754-5.84e-4 0.054126 0.006748 0.10354 0.02795 0.09482 0.045503 0.1181 0.092968 0.08939 0.1229 0.043725 0.11014 0.028324 0.14749-0.003629 0.17858-0.026853 0.14394-0.052825 0.16245-0.05811 0.1292-0.066652 0.1248-0.30665 0.50496-0.1363 0.25745-0.058491 0.13786-0.048258 0.15144-0.032031 0.23307 0.007204 0.11871 0.017122 0.098366 0.059721 0.19491 0.082936 0.18309 0.10208 0.17912 0.13232 0.19506 0.10149 0.1328 1.3921 1.6813 0.27628 0.35268 0.17299 0.24305 0.12563 0.18705 0.50228 0.79718 0.61709 0.94049 0.27398 0.40411 0.32051 0.43965 0.58994 0.73844 0.22702 0.31364 0.1192 0.18996 0.10476 0.19367 0.094718 0.1991 0.3507 0.83513 0.076847 0.16757 0.082882 0.16256 0.19356 0.32396 0.13765 0.21169 0.1738 0.2324 0.19594 0.22242 0.2174 0.2076 0.239 0.18631 0.26119 0.15684 0.17957 0.081829 0.24337 0.086143 0.16328 0.044911 0.16056 0.034475 0.21973 0.031733 0.14681 0.013069 0.52389 0.023268 0.073082 0.011452 0.008557 0.008589-0.057181 0.005789-0.089282 0.030851-0.1536 0.077081-0.11884 0.074725-0.11551 0.084708-0.11532 0.099278-0.095234 0.10102-0.074039 0.11117-0.028621 0.1034 0.004588 0.043668 0.008321 0.025965 0.045747 0.071077 0.0735 0.064758 0.14243 0.082476 0.24384 0.1102 0.087251 0.045889 0.11526 0.072791 0.068591 0.051782 0.088948 0.079913 0.075604 0.082602 0.072735 0.095966 0.069842 0.11297 0.047625 0.094872 0.054926 0.13966 0.049709 0.17905 0.038409 0.2292 0.050143 0.38332 0.067323 0.42689 0.018566 0.17679 0.00265 0.13294-0.007752 0.10818-0.013702 0.083797-0.044322 0.15238-0.027351 0.064405-0.063909 0.11401-0.067921 0.091829-0.12431 0.12761-0.08116 0.066323-0.51062 0.35322-0.41278 0.29896-0.27615 0.20948-0.19069 0.17062-0.16984 0.19036-0.094593 0.13206-0.079 0.12586-0.23902 0.41367-0.15355 0.22298-0.079814 0.097728-0.11394 0.11905-0.12133 0.1014-0.10232 0.066202-0.093307 0.04653-0.1022 0.037849-0.10108 0.024999-0.10858 0.012611-0.18454-0.012742-0.1861-0.041712-0.18908-0.053054-0.24674-0.056961-0.22538-0.019063-0.12747 0.00927-0.13032 0.02327-0.21415 0.062121-0.21975 0.085862-0.23887 0.1096-0.20241 0.10159-0.41328 0.22307-1.8063 1.0179-0.53321 0.31623-0.25487 0.16292-0.2484 0.1721-0.22919 0.17905-0.15798 0.1436-0.13794 0.1505-0.090979 0.12424-0.072077 0.13085-0.071267 0.22886-0.017044 0.15177 0.001376 0.13201 0.017701 0.15151 0.025147 0.12149 0.053448 0.18012 0.089178 0.2199 0.081175 0.16002 0.11529 0.18756 0.10341 0.13913 0.067637 0.079608 0.13217 0.13934 0.14046 0.12446 0.14996 0.10374 0.18153 0.088078 0.14351 0.049973 0.17447 0.038466 0.17809 0.022374 0.28835 0.022473 0.21331 0.027802 0.21144 0.056513 0.091883 0.038057 0.13586 0.070933 0.18093 0.11901 0.10259 0.081721 0.096131 0.086862 0.12409 0.12554 0.19072 0.21657 0.54931 0.66641 0.26307 0.28736 0.20539 0.19798 0.21133 0.17436 0.17343 0.11672 0.44782 0.23487 0.12737 0.083799 0.14774 0.11714 0.16926 0.16084 0.12404 0.13608 0.13346 0.1676 0.10666 0.15647 0.13836 0.25344 0.079012 0.19168 0.058126 0.19198 0.036248 0.18116 0.018709 0.14574 0.012319 0.16138 0.005938 0.22723-0.002042 0.15252-0.015631 0.25483-0.016595 0.1486-0.02853 0.18136-0.033767 0.1482-0.028691 0.095377-0.060414 0.15784-0.0547 0.11527-0.073817 0.13092-0.06413 0.098436-0.13675 0.17993-0.14665 0.1661-0.22853 0.23572-0.24186 0.23313-0.30368 0.27642 0.003764-0.012536-0.01051-0.02991-0.040893-0.04636-0.049373-0.039358-0.13159-0.075526-0.1401-0.057084-0.14745-0.044257-0.13333-0.029877-0.24446-0.037177-0.23614-0.021021-0.31105-0.013348-0.36518-0.003165-0.98238 0.009356-0.67675-0.002413-0.56811-0.014452-1.1176-0.043685-0.42191-0.007991-0.35794 0.009523-0.21451 0.01789-0.21109 0.030191-0.29411 0.067401-0.28611 0.091736-0.2777 0.1112-0.26811 0.12744-0.25647 0.1419-0.24178 0.15591-0.22287 0.17069-0.19836 0.18747-0.1666 0.2075-0.12434 0.21739-0.10118 0.2308-0.18205 0.47026-0.10459 0.22403-0.13012 0.20574-0.13423 0.1509-0.15645 0.13445-0.17492 0.1197-0.25346 0.13752-0.19225 0.085774-0.20032 0.078628-0.36586 0.12716-0.42559 0.13457-1.4692 0.44095-1.8656 0.59996-0.23254 0.06263-0.20975 0.03677-0.11735 0.005377-0.10656-0.011583-0.16189-0.064639-0.13742-0.098113-0.12562-0.10228-0.12545-0.077576-0.07744-0.023367-0.077351-0.005409-0.082997 0.012703-0.25305 0.073158-0.13884 0.026798-0.4563 0.031633-0.14066 0.002618-0.18339-0.005434-0.44752-0.032586-0.23325-0.025025-0.11149-0.020262-0.10718-0.030548-0.096127-0.043076-0.11054-0.073597-0.25223-0.20529-0.11643-0.072394-0.13173-0.05955-0.1471-0.048097-0.18424-0.042749-0.20476-0.03214-0.19458-0.019428-0.24478-0.01208-0.3896 0.00196-1.2328 0.046407-1.7056 0.033076-1.0647 0.005688-0.2209 0.008086-0.30416 0.024613-0.16936 0.023328-0.17723 0.0345-0.15521 0.041482-0.1571 0.057146-0.12658 0.061827-0.091885 0.057361-0.18774 0.16273-0.1676 0.19289-0.16536 0.20724-0.16496 0.19445-0.17368 0.18704-0.17724 0.17318-0.29757 0.27494-0.088704 0.097539-0.071923 0.099688-0.074571 0.16327-0.024754 0.14034 0.020142 0.072296-0.029101-0.005983-0.092786-0.010305-0.37009-0.015904-0.46173-0.003681-0.86735 0.007473-0.65383-0.012876-0.27113-0.014658-0.20898-0.017981-0.20033-0.025427-0.19038-0.034906-0.15979-0.040591-0.14889-0.050641-0.13751-0.060755-0.2906-0.15549-0.12077-0.074244-0.11416-0.080208-0.13301-0.11025-0.27794-0.27762-0.14135-0.12735-0.071793-0.053664-0.10655-0.067686-0.14553-0.068736-0.061019-0.021054-0.1566-0.040144-0.22715-0.038611-0.37556-0.046562-0.48495-0.049746-0.27456-0.038189-0.25876-0.055592-0.35458-0.085399-0.16682-0.030215-0.23033-0.020481-0.15524-0.001889-0.15805 0.006051-0.23906 0.021752-0.24299 0.034295-0.37965 0.071616-0.36323 0.083697-0.48514 0.12965-0.3989 0.11893-1.9524 0.62888-0.5145 0.15529-0.44948 0.12403-0.345 0.085918-0.40434 0.086479-0.39614 0.069416-0.59278 0.085055-0.29882 0.035747-0.56503 0.057214-0.54358 0.044004-0.47586 0.027393-0.19757 0.006263-0.53705-0.002277-0.18229 0.007521-0.24429 0.022362-0.86842 0.11748-0.22281 0.019598-0.15286 0.004184-0.18949-0.010766-0.17073-0.031314-0.18402-0.069546-0.090761-0.054887-0.055067-0.041315-0.05382-0.046625-0.084112-0.085462-0.13606-0.16931-0.14466-0.22766-0.09849-0.19367-0.37837-0.87233-0.18684-0.37153-0.26717-0.45648-0.26649-0.4411-0.20238-0.31505-0.40014-0.59668-0.093064-0.15035-0.14154-0.26902-0.098469-0.27092-0.057661-0.28055-0.013213-0.28603 0.01756-0.18822 0.035917-0.18868 0.059108-0.21441 0.087278-0.24808 0.12109-0.2932 0.14516-0.31776 0.43565-0.9005 0.08092-0.1784 0.11888-0.29298 0.10106-0.30925 0.05059-0.20304 0.036547-0.20286 0.022794-0.23918-0.00122-0.28525-0.019797-0.39994-0.003396-0.24457 0.005831-0.49718-0.006301-0.21603-0.017715-0.14868-0.026306-0.10296-0.037126-0.080164-0.071346-0.07771-0.079896-0.032947-0.073181 0.017582-0.01316 0.069654-0.03253 0.11938-0.43198 1.4677-0.14839 0.56274-0.07754 0.32782-0.42084 1.9492-0.25969 1.142-0.086409 0.46361-0.14456 0.89083-0.067281 0.31242-0.040579 0.15002-0.10104 0.30919-0.2575 0.65776-0.1085 0.29672-0.048905 0.15588-0.05275 0.2113-0.036011 0.22687-0.020405 0.24763-0.00598 0.22662 0.010407 0.54129-9.71e-4 0.1923-0.014282 0.26578-0.021903 0.21146-0.020428 0.13142-0.051567 0.24197-0.24975 0.97221-0.082305 0.35056-0.059563 0.31473-0.041446 0.31872-0.011522 0.16972-6.3e-4 0.27448 0.019662 0.31161 0.02757 0.30188 0.041794 0.35705 0.027066 0.16158 0.026237 0.11935 0.050121 0.16685 0.035079 0.089579 0.079426 0.15928 0.060095 0.09596 0.096582 0.12911 0.12811 0.14052 0.13754 0.12878 0.277 0.23729 0.14771 0.13477 0.088909 0.091539 0.12251 0.15339 0.042936 0.06891 0.039433 0.078854 0.035955 0.097457 0.022125 0.088317 0.014404 0.10557 0.002677 0.080897-0.012203 0.14275-0.037691 0.1479-0.031388 0.076001-0.056724 0.099807-0.081543 0.10053-0.09946 0.08334-0.13864 0.06634-0.11579 0.022204-0.10444 0.002719-0.072414-0.00492-0.19326-0.030914-0.50151-0.10859-0.2091-0.027501-0.13338-0.004747-0.10619 0.00765-0.12564 0.031452-0.059058 0.031567-0.034314 0.029236-0.025207 0.030895-0.028904 0.05766-0.013364 0.064569-8.62e-4 0.032686 0.007622 0.0623 0.028576 0.088223 0.06444 0.12681 0.16143 0.26331 0.13984 0.2408 0.08315 0.165 0.045074 0.10822 0.072485 0.22991 0.021485 0.11658 0.012494 0.11308 0.008769 0.20667 0.01192 1.038-0.0097 0.23528-0.017244 0.15126-0.031481 0.15746-0.035739 0.12074-0.047822 0.12017-0.22468 0.44284-0.16282 0.28566-0.07952 0.1219-0.10735 0.14599-0.14477 0.17656-0.15603 0.17786-0.25383 0.26264-0.18277 0.16207-0.1768 0.12824-0.33037 0.19283-0.097623 0.065837-0.10938 0.0949-0.045898 0.053376-0.048175 0.073181-0.05341 0.11371-0.036118 0.11015-0.034972 0.16405-0.022734 0.23129-0.008792 0.40224-0.017877 0.25966-0.021662 0.15966-0.053008 0.24318-0.053723 0.1707-0.076645 0.18877-0.075662 0.15154-0.11431 0.18856-0.077356 0.10738-0.096865 0.11601-0.19304 0.18607-0.12899 0.103-0.10917 0.078395-0.18972 0.12287-0.7558 0.44573-0.28663 0.18363-0.28558 0.19509-0.24318 0.17507-0.16061 0.12472-0.17531 0.15326-0.11677 0.12436-0.11467 0.15746-0.089965 0.15504-0.18726 0.36991-0.10922 0.19984-0.10528 0.17443-0.14468 0.21215-0.15024 0.19328-0.11868 0.13776-0.15586 0.16372-0.15194 0.14152-0.11901 0.098389-0.13684 0.10206-0.25101 0.16352-0.29879 0.16845-0.50938 0.26488-0.30578 0.16611-0.3363 0.19976-0.22443 0.15031-0.19338 0.1431-0.1682 0.13575-0.28527 0.25858-0.153 0.15442-0.14708 0.16183-0.094235 0.121-0.011647 0.023485 7.1e-4 0.009684-0.016499 0.019504-0.031049-0.001748-0.095297-0.043397-0.15456-0.10384-0.18331-0.14612-0.31372-0.28559-0.84348-0.83526-0.26019-0.24787-0.23577-0.20813-0.14009-0.11172-0.095144-0.068536-0.1342-0.083727-0.097036-0.050145-0.091886-0.039518-0.14347-0.045984-0.11147-0.021483-0.10067-0.007582-0.13408 0.010422-0.10654 0.029608-0.066337 0.029618-0.05793 0.033296-0.096323 0.072357-0.057827 0.054515-0.068472 0.077011-0.050155 0.066499-0.085659 0.13854-0.059318 0.12155-0.081943 0.22264-0.053374 0.18447-0.055598 0.22437-0.081083 0.39604-0.093815 0.58209-0.031264 0.25583-0.030148 0.3237-0.044847 0.84852-0.025786 0.31763-0.033578 0.25064-0.01796 0.095687-0.03071 0.12817-0.038331 0.12549-0.038488 0.10362-0.084893 0.18084-0.078938 0.13678-0.090248 0.1387-0.12475 0.17192-0.13093 0.15973-0.19598 0.20426-0.2141 0.17766-0.20682 0.12468-0.10677 0.043973-0.091933 0.026544-0.1131 0.020731-0.14768 0.011793-0.1416-0.001349-0.12956-0.011343-0.14559-0.024311-0.13246-0.032534-0.19666-0.065069-0.53716-0.23171-0.21531-0.068365-0.23264-0.047754-0.24366-0.022915-0.24785 0.006343-0.13296 0.016538-0.20549 0.041094-0.20607 0.055314-0.32921 0.1005-0.22548 0.056099 0.036816 0.048823 0.089475 0.093628 0.24347 0.23523 0.27319 0.25323 0.29549 0.25804 0.22753 0.18447 0.2275 0.17251 0.22969 0.1592 0.34267 0.21982 0.23218 0.16343 0.21012 0.17022 0.20404 0.19377 0.14155 0.16822 0.12159 0.17173 0.069371 0.10833 0.15462 0.2707 0.19482 0.38048 0.1076 0.19557 0.11553 0.18782 0.34998 0.53006 0.16454 0.22493 0.34392 0.41548 0.045716 0.068593 0.060603 0.016738 0.11104 0.041595 0.26523 0.11663 0.16714 0.090764 0.15972 0.10762 0.085283 0.0696 0.093922 0.091165 0.075618 0.089421 0.062944 0.089441 0.049726 0.083723 0.063206 0.1325 0.053142 0.15375 0.058259 0.3028 0.016327 0.24852-0.003024 0.25048-0.017885 0.2637-0.050312 0.51012-0.007196 0.15008 0.00793 0.20467 0.022322 0.13816 0.034715 0.12041 0.045994 0.10964 0.079298 0.13915 0.06773 0.095024 0.10101 0.12054 0.1088 0.11388 0.35737 0.34736 0.16474 0.17104 0.2016 0.22421 0.63686 0.76654 0.18244 0.21221 0.27262 0.29743 0.23004 0.23441 0.39837 0.3904 0.77534 0.72774 0.099674 0.11358 0.067821 0.099176 0.075772 0.16076 0.045435 0.15052 0.023638 0.11749 0.016267 0.12501 0.009628 0.20998-0.012488 0.21229-0.019047 0.12535-0.032323 0.1403-0.033243 0.10839-0.041834 0.11026-0.068802 0.14626-0.081609 0.14612-0.28985 0.46187-0.1373 0.22931-0.1035 0.19585-0.063189 0.14042-0.044454 0.11718-0.052333 0.18305-0.038963 0.22548-0.023287 0.22778-0.017509 0.36428 0.005004 0.35858 0.017761 0.21666 0.024366 0.18991 0.034539 0.19628 0.023099 0.10091 0.037934 0.13234 0.041343 0.11232 0.094026 0.1951 0.047408 0.08076 0.11898 0.16828 0.079039 0.091459 0.099585 0.10139 0.11881 0.1053 0.093913 0.073896 0.19082 0.12882 0.18154 0.10257 0.35856 0.1761 0.39163 0.17758 0.21846 0.08926 0.28757 0.10544 0.34672 0.11683 0.19346 0.053812 0.18496 0.037327 0.19268 0.02574 0.29754 0.019284 0.57512 2.67e-4 0.28152-0.011902 0.2094-0.019017 0.19343-0.027446 0.27109-0.054171 0.23455-0.06129 0.1989-0.064675 0.23912-0.094829 0.74876-0.34213 0.29562-0.12906 0.22631-0.087805 0.48759-0.16936 0.19937-0.075214 0.29661-0.12344 0.27432-0.13159 0.16308-0.090293 0.1288-0.082025 0.092645-0.067742 0.15587-0.13268 0.13162-0.13445 0.42737-0.49894 0.14515-0.15483 0.084265-0.080982 0.14056-0.11601 0.08903-0.060999 0.088576-0.051059 0.072953-0.034826 0.11911-0.042472 0.1246-0.023752 0.093287-0.004314 0.10379 0.008046 0.11331 0.025581 0.099382 0.035724 0.072859 0.032923 0.42838 0.22762 0.12324 0.05196 0.23541 0.068603 0.3167 0.055284 0.56641 0.075895 0.18045 0.034744 0.24962 0.071705 0.21118 0.092749 0.18114 0.10039 0.15445 0.097016 0.21498 0.15137 0.16324 0.13432 0.16193 0.17077 0.094767 0.14604 0.049394 0.11491 0.03628 0.12287 0.043797 0.24596 0.032045 0.2718 0.066222 0.45124 0.031408 0.16591 0.066559 0.2918 0.074682 0.26081 0.075538 0.21499 0.11502 0.26471 0.099015 0.18965 0.1109 0.18343 0.072436 0.10669 0.1716 0.2228 0.10643 0.12337 0.16277 0.17412 0.15531 0.15494 0.1458 0.139 0.31832 0.28473 0.33712 0.26951 0.66168 0.48681 0.5807 0.43929 0.20014 0.13702 0.16587 0.099484 0.71309 0.375 0.28239 0.16113 0.36109 0.22358 0.98202 0.6321 0.35225 0.20826 0.18801 0.10001 0.21575 0.10158 0.18783 0.075258 0.22727 0.073581 0.22492 0.053169 0.17337 0.026688 0.17588 0.014402 0.14812 0.003148 0.14997-0.00457 0.22903-0.023323 0.11683-0.028577 0.018709-0.015594 0.040318 0.012538 0.05339 0.052741 0.058238 0.079868 0.052482 0.095389 0.03197 0.07291 0.03588 0.1022 0.025273 0.092578 0.033986 0.17761 0.021642 0.19272 0.013155 0.23775 0.015585 0.87806 0.022171 0.32217 0.051012 0.43612 0.15275 0.95199 0.040285 0.29825 0.029907 0.34957 0.010948 0.39157-0.004762 0.22969-0.01991 0.27588-0.024063 0.18775-0.033159 0.18579-0.032639 0.1439-0.062846 0.22464-0.052306 0.16162-0.24328 0.67058-0.062899 0.18299-0.08027 0.26431-0.051968 0.20917-0.050983 0.26837-0.033644 0.24565-0.037528 0.43815-0.008711 0.20854-9.97e-4 0.20816 0.007078 0.18345 0.015759 0.18254 0.044525 0.28366 0.039283 0.17034 0.048029 0.16845 0.090346 0.2574 0.095943 0.22826 0.15484 0.31466 0.09075 0.16426 0.095833 0.16175 0.14649 0.22926 0.12009 0.17631 0.23253 0.31928 0.19636 0.24223 0.18919 0.21112 0.19053 0.19368 0.59236 0.55442 0.21241 0.21517 0.15418 0.17899 0.32235 0.40036 0.08861 0.096643 0.10398 0.10152 0.12262 0.10588 0.18349 0.1366 0.10511 0.068618 0.7496 0.4292 0.11815 0.076271 0.10842 0.085032 0.04929 0.051968 0.045705 0.070438 0.011336 0.027564 0.010171 0.039366 0.003337 0.044311-0.005637 0.047634-0.01243 0.04073-0.049069 0.089321-0.095856 0.11099-0.1118 0.094472-0.10613 0.070682-0.12954 0.069275-0.1166 0.050699-0.13925 0.04871-0.13206 0.036952-0.14221 0.031642-0.23824 0.036482-0.27016 0.021977-0.50386 0.026808-1.0124 0.039309-0.91087 0.04613-0.30776 0.023362-0.24021 0.031835-0.27233 0.055177-0.3113 0.085066-0.29419 0.096777-0.3414 0.13216-0.27773 0.12162-0.26538 0.13756-0.16129 0.095748-0.14052 0.091375-0.3663 0.26071-0.30252 0.23427-0.1785 0.15921-0.35553 0.34763-0.20836 0.17816-0.16913 0.1286-0.15248 0.1069-0.13257 0.082538-0.13526 0.074724-0.25437 0.11885-0.13104 0.052953-0.15409 0.05368-0.26288 0.07031-0.63939 0.13987-0.33392 0.084303-0.27134 0.091891-0.19922 0.09551-0.17919 0.11193-0.10873 0.084444-0.17422 0.16697-0.13424 0.15647-0.21744 0.29676-0.30582 0.44509-0.21202 0.31537-0.13425 0.21274-0.080548 0.13723-0.113 0.21466-0.085431 0.19342-0.051209 0.13714-0.06517 0.21206-0.19318 0.85079-0.078439 0.24045-0.076629 0.19215-0.062168 0.12446-0.095628 0.15997-0.10866 0.15391-0.082687 0.10322-0.13342 0.14768-0.1967 0.18649-0.12025 0.099886-0.12512 0.094385-0.16499 0.1109-0.12329 0.073243-0.157 0.08145-0.17784 0.075646-0.20412 0.062998-0.15859 0.031143-0.26737 0.032161-0.25426 0.01795-0.61628 0.019319-0.2676 0.023379-0.17068 0.024426-0.27859 0.055567-0.12427 0.036789-0.12665 0.05438-0.075592 0.048757-0.056966 0.049806-0.090762 0.10597-0.10224 0.15643-0.15989 0.3053-0.10341 0.22741-0.092853 0.23154-0.049049 0.14317-0.039966 0.14111-0.033932 0.17838-0.007002 0.13951 0.00635 0.074284 0.057835 0.19287 0.066188 0.12179 0.08007 0.11306 0.083875 0.10048 0.098788 0.10584 0.28141 0.28237 0.0927 0.10228 0.2575 0.33553 0.081429 0.080369 0.096206 0.076248 0.116 0.073136 0.16316 0.083959 0.15322 0.068031 0.20368 0.079511 0.24183 0.081311 0.28426 0.081371 0.79966 0.19253 0.15612 0.042872 0.14506 0.046826 0.12455 0.049475 0.10854 0.055469 0.11148 0.083822 0.02848 0.03216 0.030523 0.048545 0.023255 0.074905-0.015121 0.17317-0.051578 0.13543-0.079271 0.14469-0.16307 0.23113-0.094023 0.11427-0.12736 0.14137-0.20598 0.20429-0.21759 0.19102-0.2073 0.1626-0.22282 0.15721-0.21837 0.14009-0.35 0.2056-0.55403 0.31002-0.33005 0.19257-0.25889 0.16474-0.069342 0.053573-0.00909 0.024528-0.28871 0.27625-0.28466 0.25156-0.20047 0.16749-0.30235 0.23626-1.2592 0.88538-0.13371 0.083518-0.19246 0.097899-0.20612 0.07092-0.067891 0.015261-0.18071 0.025943-0.26155 0.019534-0.29702 0.009187-1.1274-0.022233-0.21125 0.003821-0.23571 0.01336-0.27458 0.034092-0.12067 0.02534-0.10852 0.032041-0.15841 0.07788-0.096981 0.1101-0.015828 0.052693 0.001585 0.098455 0.031035 0.10492 0.069917 0.13237 0.030609 0.044774 0.26664 0.31486 0.12304 0.18346 0.083286 0.20943 0.044406 0.20063 0.01923 0.17036 0.005568 0.19743-0.011057 0.2018-0.03455 0.23539-0.060035 0.23222-0.10136 0.24897-0.11427 0.19438-0.14318 0.19078-0.18646 0.2049-0.15432 0.14767-0.23194 0.19868-0.17091 0.13444-0.65758 0.49412-0.29222 0.2406-0.47189 0.41158-0.2203 0.17907-0.21358 0.15292-0.17302 0.1075-0.18042 0.096285-0.22164 0.09732-0.17347 0.061736-0.11763 0.035552-0.20498 0.052252-0.26891 0.055957-0.72427 0.13441-0.37695 0.092752-0.3309 0.1074-0.19764 0.078427-0.17954 0.08197-0.12617 0.064933-0.16196 0.093119-0.17008 0.10975-0.17119 0.12251-0.17014 0.13303-0.41627 0.35013-0.12248 0.093677-0.19605 0.13087-0.40034 0.23915-0.19172 0.12383-0.14793 0.11232-0.13306 0.12714-0.16014 0.2172-0.13138 0.25036-0.11417 0.27405-0.21861 0.58652-0.15512 0.38064-0.12622 0.2724-0.11791 0.22097-0.13553 0.22175-0.16477 0.23697-0.16104 0.21053-0.1648 0.19685-0.18079 0.19228-0.14583 0.13016-0.12369 0.087262-0.079045 0.038456-0.023578 0.006055-0.034142-0.008378 0.08069 0.12828 0.097442 0.17841 0.11346 0.22734 0.094888 0.21564 0.064357 0.16803 0.07266 0.22904 0.05272 0.22513 0.029551 0.19261 0.019161 0.2463 0.00172 0.30908-0.063786 1.2174-0.003771 0.41208 0.004223 0.20491 0.023582 0.42287 0.019131 0.20246 0.024381 0.19994 0.055409 0.3373 0.037653 0.17574 0.044052 0.17198 0.048157 0.15893 0.054567 0.15451 0.075068 0.18096 0.08701 0.17714 0.081005 0.14256 0.10492 0.16198 0.10432 0.14401 0.29476 0.36407 0.078181 0.10471 0.084951 0.15892 0.024498 0.1155-0.004562 0.10012-0.031244 0.12249-0.04068 0.1015-0.08343 0.16248-0.046346 0.074394-0.071271 0.096771-0.066993 0.074011-0.078649 0.068751-0.069067 0.046931-0.13476 0.066673-0.12695 0.046239-0.63473 0.17828-0.17872 0.057443-0.22325 0.087084-0.12499 0.060321-0.14787 0.089897-0.082777 0.064228-0.06798 0.065903-0.028222 0.033096-0.069262 0.11087-0.021295 0.051438-0.023913 0.096731-0.003902 0.10114 0.009134 0.080302 0.043784 0.22233 0.016524 0.17524-0.007222 0.12469-0.028397 0.12613-0.06902 0.15272-0.074018 0.11258-0.14881 0.17467-0.17891 0.17314-0.57041 0.4937-0.29034 0.27385-0.12859 0.13662-0.12153 0.14246-0.09965 0.13032-0.091423 0.13526-0.10571 0.18633-0.056617 0.12098-0.060808 0.16145-0.042555 0.15504-0.031115 0.15974-0.023038 0.17106-0.015857 0.1749-0.041865 0.81976-0.03004 0.37572-0.021881 0.18822-0.056095 0.34074-0.048919 0.21582-0.12107 0.47793-0.034686 0.19355-0.009114 0.071703 0.002316 0.038423 0.003088 0.062412-0.029466 0.10269-0.08032 0.17511-0.10568 0.16557-0.06446 0.078987-0.067516 0.06917-0.12464 0.099542-0.15305 0.086854-0.2 0.074486-0.2311 0.048286-0.17815 0.014027-0.13558-0.003236-0.16985-0.021889-0.18409-0.043103-0.184-0.061239-0.23366-0.10034-0.60019-0.30513-0.10772-0.048708-0.085021-0.032035-0.13729-0.032988-0.13733-0.006074-0.14408 0.01442-0.15627 0.031626-0.10755 0.028967-0.11722 0.037566-0.15753 0.060279-0.11695 0.051801-0.25106 0.1302-0.11191 0.066891-0.16 0.10799-0.1127 0.087034-0.14119 0.12473-0.15456 0.16767-0.12646 0.17963-0.14072 0.26532-0.069532 0.16202-0.25795 0.67963-0.13619 0.30774-0.079378 0.15493-0.099277 0.17081-0.10375 0.15427-0.083562 0.10714-0.084756 0.092808-0.10979 0.094173-0.11101 0.059863-0.065157 0.016708-0.070486 0.005854-0.089334-0.003826-0.21643-0.023094-0.17405-0.007796-0.18694 0.009716-0.19398 0.03412-0.19372 0.062764-0.19365 0.087663-0.24986 0.14152-0.2224 0.14804-0.2154 0.1624-0.20443 0.17308-0.18902 0.1807-0.33993 0.35247-0.18085 0.14601-0.14767 0.088339-0.098415 0.043412-0.12531 0.039314-0.2504 0.041876-0.2474 0.011039-0.30437-0.011463-0.68511-0.063066-0.23271-0.010184-0.19266 0.002026-0.27812 0.024061-0.24936 0.043737-0.25361 0.059592-0.68408 0.18145-1.1488 0.31939-0.22618 0.059113-0.30576 0.064487-0.15063 0.023241-0.18148 0.019796-0.18105 0.010373-0.22874-0.001549-0.15644-0.01152-0.19885-0.027464-0.2228-0.047701-0.21227-0.062019-0.17092-0.062821-0.10962-0.047395-0.20912-0.10616-0.55205-0.31513-0.19678-0.088151-0.14797-0.048118-0.14446-0.033924-0.13153-0.022349-0.90672-0.11314-0.45666-0.066769-0.41821-0.08101-0.18039-0.049827-0.18163-0.068955-0.17902-0.085395-0.15109-0.083169-0.15012-0.090501-0.28449-0.18613-0.71071-0.48831-0.13203-0.084066-0.24204-0.136-0.16805-0.077331-0.17073-0.065483-0.20906-0.063895-0.20855-0.046422-0.24526-0.030767-0.172-0.00568-0.16779 0.006278-0.13388 0.014077-0.17917 0.034621-0.091546 0.026476-0.10139 0.038461-0.098817 0.051075-0.086864 0.063665-0.12446 0.15055-0.054761 0.096197-0.19154 0.40798-0.056978 0.098821-0.11602 0.14562-0.096155 0.079163-0.11118 0.067096-0.16353 0.071497-0.18476 0.056026-0.17565 0.036914-0.1484 0.022264-0.20806 0.019536-0.19477 0.005695-0.10271-0.002745-0.085698-0.00599-0.24358-0.035902-0.21564-0.054833-0.17294-0.059849-0.19954-0.087012-0.23693-0.1265-0.088276-0.052855-0.3127-0.20349-0.4082-0.28258-0.17017-0.12791-0.091575-0.079053-0.064819-0.065052-0.067498-0.08411-0.049484-0.088754-0.023726-0.073196-0.008231-0.080744 0.042475-0.1755 0.10526-0.18103 0.1098-0.14495 0.35248-0.43166 0.11774-0.15698 0.1134-0.16421 0.12617-0.20583 0.14761-0.29111 0.27742-0.65218 0.06858-0.14706 0.080191-0.15823 0.34616-0.63793 0.12142-0.27011 0.12613-0.3131 0.18957-0.50501 0.10978-0.32727 0.05463-0.213 0.032291-0.14967 0.1122-0.59757 0.089965-0.43994 0.16522-0.72277 0.073444-0.25161 0.051068-0.13832 0.098307-0.20605 0.12104-0.18764 0.12117-0.15755 0.17507-0.20094 0.14562-0.14512 0.17288-0.15104 0.17967-0.13872 0.51036-0.37382 0.18255-0.15304 0.11893-0.11743 0.099586-0.12197 0.09359-0.16077 0.037507-0.099726 0.030689-0.13365 0.010798-0.19507-0.018843-0.14869-0.037636-0.13048-0.056076-0.12644-0.033354-0.059526-0.088446-0.13196-0.090065-0.11199-0.47988-0.52642-0.1474-0.18164-0.099214-0.14058-0.086994-0.14675-0.062648-0.13051-0.053924-0.1348-0.051764-0.15425-0.055388-0.21496-0.075593-0.38661-0.097942-0.67464-0.11125-0.64821-0.088665-0.61488-0.079687-0.42479-0.026152-0.16801-0.008164-0.082368-0.002531-0.12259 0.005409-0.06423 0.016577-0.079342 0.037492-0.081819 0.043259-0.043057 0.037096-0.010048 0.015991 0.002691 0.01504 0.003581 0.016408-0.023523 0.01857-0.087689 0.006759-0.091702-4.79e-4 -0.21703-0.028271-0.39396-0.031737-0.2562-0.033649-0.21294-0.038684-0.20088-0.054799-0.23189-0.041983-0.1448-0.049655-0.14257-0.077214-0.17833-0.13051-0.21839-0.1482-0.1608-0.11527-0.082451-0.12024-0.063834-0.15424-0.062946-0.14721-0.047852-0.16537-0.044024-0.52623-0.10625-0.23359-0.054123-0.17164-0.054653-0.079206-0.03231-0.092242-0.047575-0.094379-0.07022-0.10037-0.12217-0.047307-0.081701-0.046888-0.099898-0.051714-0.13458-0.079666-0.26809-0.045733-0.19993-0.1058-0.51939-0.079207-0.27467-0.063719-0.17081-0.10526-0.24192-0.4061-0.85577-0.14748-0.34393-0.071072-0.18852-0.062194-0.18436-0.070972-0.24828-0.04976-0.22176-0.040287-0.23152-0.027694-0.20489-0.026929-0.26316-0.024132-0.33036-0.045605-0.83435-0.019744-0.26004-0.051965-0.48054-0.038969-0.27089-0.094329-0.59399-0.090098-0.46526-0.11874-0.50819-0.069438-0.23742-0.092468-0.2842-0.009855-0.047826-0.002245-0.047398 0.014966-0.041382 0.017247-0.012185 0.018576-0.004635 0.023547 4.43e-4 0.072961 0.023697 0.34088 0.18957 0.21098 0.10735 0.23331 0.096329 0.2054 0.061017 0.15335 0.0303 0.14594 0.01685 0.14718 0.0053 0.23555-0.016697 0.23954-0.051184 0.13749-0.047293 0.13153-0.059565 0.20236-0.12547 0.17695-0.15477 0.16223-0.20198 0.094639-0.17361 0.045779-0.11902 0.033595-0.11922 0.035718-0.18926 0.073511-0.68474 0.023545-0.16805 0.029017-0.16924 0.063874-0.29407 0.08204-0.29917 0.057407-0.17977 0.062786-0.17812 0.11237-0.28361 0.078122-0.17646 0.082927-0.17288 0.10754-0.20564 0.11536-0.1998 0.14332-0.22219 0.12535-0.17175 0.13112-0.1594 0.192-0.20184 0.2831-0.26626 0.13889-0.15549 0.053745-0.080939 0.059003-0.12136 0.022141-0.063524 0.024276-0.097426 0.02162-0.16965 0.005961-0.14078 0.001047-0.47618 0.009328-0.23308 0.030199-0.25026 0.03369-0.16295 0.037906-0.14594 0.062412-0.2064 0.10049-0.29026 0.16098-0.4016 0.18587-0.39945 0.12324-0.24003 0.23844-0.42225 0.48368-0.77652 0.29622-0.4937 0.099269-0.15759 0.15326-0.21774 0.11113-0.13421 0.19522-0.19842 0.17895-0.15479 0.15408-0.1212 0.47793-0.35806 0.14401-0.11921 0.10477-0.098098 0.12283-0.1325 0.10164-0.13326 0.067745-0.11139 0.063742-0.14026 0.020178-0.061011 0.025491-0.11602 0.007933-0.09509-0.00757-0.1223-0.031392-0.13204-0.062086-0.14089-0.10212-0.14521-0.089419-0.089381-0.086924-0.067187-0.076763-0.047865-0.16506-0.076459-0.13048-0.0448-0.14381-0.041404-0.52988-0.12978-0.11972-0.035237-0.11386-0.043785-0.10546-0.061107-0.060419-0.058959-0.036494-0.064197-0.017567-0.060422-0.006735-0.063746 0.003157-0.072506 0.012837-0.074966 0.034798-0.11142 0.055125-0.11397 0.068171-0.10115 0.06066-0.070482 0.06771-0.0656 0.12529-0.098144 0.15263-0.092486 0.20433-0.094209 0.52695-0.18794 0.11589-0.044098 0.1853-0.081311 0.15805-0.086371 0.12596-0.085879 0.076837-0.062765 0.099173-0.097709 0.063151-0.075618 0.085386-0.12428 0.060682-0.10886 0.07396-0.17226 0.035054-0.11801 0.01784-0.096475 0.007152-0.10104-0.031113-0.24689-0.086041-0.25272-0.12596-0.25725-0.15404-0.26104-0.17262-0.26454-0.55485-0.81799-0.17475-0.28402-0.15742-0.29247-0.13098-0.30334-0.07738-0.23936-0.062677-0.24556-0.15899-0.73602-0.066196-0.25533-0.081477-0.24929-0.090637-0.21436-0.063437-0.12251-0.11412-0.1839-0.17941-0.232-0.12789-0.13859-0.12818-0.12321-0.16648-0.14058-0.12017-0.086858-0.065852-0.037881-0.02445-0.004733-0.030799-0.034585-0.29017-0.22922-0.35175-0.25731-0.27142-0.18366-0.58006-0.36265-1.1774-0.71101-0.45974-0.29558-0.14287-0.098796-0.27962-0.20753-0.26562-0.2218-0.088893-0.083393-0.14288-0.14861-0.098417-0.11428-0.11076-0.14162-0.14786-0.21325-0.10744-0.17271-0.10962-0.19095-0.20858-0.40226-0.18084-0.39121-0.091258-0.21848-0.17024-0.45829-0.31906-0.96222-0.16725-0.46019-0.25869-0.64732-0.14495-0.34689-0.12852-0.28384-0.13224-0.25829-0.13325-0.22496-0.11334-0.16547-0.091228-0.1175-0.14732-0.16444-0.097518-0.095099-0.14087-0.12198-0.11293-0.085215-0.11905-0.078371-0.19946-0.11142-0.17184-0.081463-0.16872-0.070786-0.1647-0.061364-0.26061-0.08177-0.15498-0.039134-0.24106-0.042222-0.21178-0.015907-0.18239 8.44e-4 -0.18161 0.010558-0.43689 0.04361-0.72214 0.095161-0.25787 0.013943-0.24425-0.010637-0.12575-0.015134-0.10847-0.01916-0.14666-0.035219-0.14194-0.043621-0.12107-0.043305-0.50164-0.20241-0.1635-0.059185-0.79508-0.25045-0.19362-0.066239-0.4154-0.16194-0.90397-0.38134-0.21258-0.080976-0.24641-0.085754-0.26876-0.083289-0.2617-0.071298-0.24061-0.057486-0.75703-0.15591-0.38072-0.088012-0.15592-0.043753-0.22316-0.07307-0.34885-0.13126-0.40076-0.16707-0.3657-0.16335-1.002-0.46678-0.36396-0.15195-0.57104-0.22511-0.15358-0.072744-0.093322-0.053443-0.067072-0.046236-0.073324-0.06342-0.061078-0.071913-0.050142-0.087521-0.023779-0.071033-0.00479-0.068861 0.014874-0.032018-0.011012-0.040721-0.01597-0.13732-0.049016-0.66573-0.074082-0.88685-0.017123-0.28986-0.006876-0.28817 0.003656-0.28478 0.012761-0.2467 0.020978-0.23173 0.026145-0.21596 0.039336-0.23226 0.034945-0.16262 0.063026-0.23847 0.13055-0.41986 0.096162-0.28497 0.37551-1.0381 0.060854-0.20257 0.049964-0.21709 0.037679-0.25499 0.016047-0.28362-0.009068-0.30213-0.032479-0.48935-0.004164-0.12872 0.005307-0.18808 0.024417-0.17546 0.018724-0.075 0.049069-0.12767 0.076105-0.12218 0.040996-0.048236 0.063326-0.060651 0.11764-0.08469 0.14277-0.071483 0.14456-0.051101 0.1789-0.046034 0.14629-0.025859 0.41483-0.059096 0.30966-0.057321 0.29544-0.071979 0.18916-0.057226 0.16116-0.062196 0.10372-0.048002 0.18128-0.099113 0.20311-0.13491 0.17251-0.13812 0.14542-0.13514 0.12752-0.12794 0.24775-0.2752 0.15021-0.18077 0.36816-0.46369 0.37742-0.44706 0.19212-0.24832 0.16866-0.24811 0.20314-0.32041 0.36188-0.59873 0.10731-0.1999 0.083891-0.17256 0.059699-0.14216 0.059054-0.17959 0.031061-0.13304 0.018846-0.12474 0.00789-0.13513-0.003491-0.11954-0.011685-0.12332-0.021691-0.14555-0.14926-0.72071-0.040965-0.24158-0.027108-0.21818-0.013811-0.18188-0.005772-0.23426 0.011215-0.34505 0.01298-0.1865 0.035664-0.30045 0.070761-0.35394 0.11154-0.46762 0.38612-1.5055 0.068993-0.28997 0.020245-0.099613 0.038075-0.24802 0.015419-0.24674-0.005548-0.1668-0.014547-0.13088-0.044702-0.22627-0.085612-0.31313-0.15738-0.53093-0.052228-0.24461-0.016043-0.1249-0.010719-0.1855 8.98e-4 -0.20795 0.011484-0.23233 0.023973-0.25322 0.02955-0.19526 0.047205-0.23052 0.037051-0.14025 0.088024-0.25583 0.24048-0.57055 0.036928-0.10985 0.038356-0.17081 0.013536-0.12534 0.003892-0.11764-0.009667-0.4118 0.005656-0.21768 0.012521-0.15213 0.019931-0.13704 0.045939-0.1688 0.044385-0.1064 0.049284-0.095018 0.070051-0.11504 0.087682-0.12546 0.19219-0.24716 0.18022-0.20297 0.50656-0.50142 0.20816-0.22183 0.13375-0.15833 0.10193-0.13133 0.41583-0.59154 0.11133-0.14472 0.11364-0.13374 0.10701-0.11352 0.16328-0.14756 0.11468-0.089067 0.24558-0.1661 0.47919-0.30118 0.17444-0.11914 0.2053-0.15405 0.14598-0.11909 0.25465-0.231 0.14696-0.14921 0.12116-0.13782 0.10753-0.13959 0.084572-0.12489 0.12863-0.23139 0.083073-0.19852 0.037928-0.11503 0.036967-0.14094 0.039667-0.22444 0.014906-0.14813 0.007996-0.18432-0.002926-0.2943-0.008857-0.13373-0.014356-0.066316 0.015375-0.045803 0.005889-0.053006 0.001524-0.086414-0.005785-0.085009-0.073165-0.46555-0.025792-0.11841-0.051403-0.15218-0.049077-0.10399-0.071386-0.10919-0.088999-0.093776-0.11359-0.084461-0.13606-0.079775-0.073152-0.036809-0.098314-0.039067-0.085337-0.02335-0.088389-0.015397-0.13917-0.009523-0.41332 0.022249-0.16939-0.001783-0.11433-0.012706-0.33488-0.054054-0.17254-0.041827-0.1034-0.043107-0.17698-0.099628-0.10349-0.069828-0.15541-0.11574-0.11742-0.10772-0.1213-0.14504-0.063166-0.088885-0.097802-0.1504-0.111-0.18859-0.095426-0.20193-0.055758-0.16407-0.02479-0.10584-0.015146-0.10181-0.007514-0.10388 9.5e-5 -0.1165 0.00848-0.11814 0.026052-0.17236 0.070708-0.28398 0.071193-0.21849 0.076314-0.21206 0.16213-0.43046 0.067488-0.15785 0.11868-0.24757 0.010413-0.036358-0.022008-0.043746-0.048638-0.060693-0.15747-0.15223-0.13507-0.11219-0.10951-0.081358-0.18552-0.12214-0.1538-0.091119-0.79069-0.426-0.20116-0.13233-0.15083-0.12903-0.070374-0.075474-0.071417-0.092481-0.10708-0.20145-0.03369-0.10853-0.021992-0.13489-0.003997-0.13915 0.009359-0.14054 0.015516-0.13145 0.083656-0.63016 0.022523-0.13391 0.026796-0.096547 0.024042-0.059048 0.039463-0.06933 0.06573-0.079584 0.058536-0.053767 0.11783-0.083232 0.0849-0.047674 0.16807-0.075754 0.21042-0.071314 0.11265-0.030165 0.31863-0.066578 0.5011-0.080676 0.47496-0.051746 0.59507-0.044324 0.3022-0.036383 0.13509-0.024955 0.19462-0.052295 0.11318-0.041589 0.14986-0.06955 0.1239-0.073599 0.11197-0.084006 0.092835-0.085989 0.079473-0.087232 0.089137-0.11352 0.15173-0.23198 0.14026-0.26066 0.11705-0.25375 0.077739-0.18978 0.07511-0.20314 0.10825-0.34674 0.058032-0.2377 0.05683-0.26817 0.033242-0.17467 0.055706-0.35636 0.036017-0.29343 0.023688-0.26533 0.007583-0.17252-1.27e-4 -0.16464-0.016258-0.57514 0.003004-0.16174 0.037105-0.5281 0.031251-0.21199 0.060236-0.19027 0.095861-0.15868 0.067634-0.081896 0.28248-0.28468 0.092287-0.11187 0.071685-0.13328 0.022779-0.077252 0.012675-0.08153 0.001786-0.12991-0.017796-0.14279-0.030569-0.13417-0.059766-0.19197-0.10647-0.28156-0.2067-0.49013-0.28983-0.64758-0.19135-0.38999-0.21828-0.39254-0.065017-0.14153-0.034467-0.104-0.019229-0.096926-0.005114-0.062106 6.89e-4 -0.063798 0.011166-0.088335 0.032161-0.11406 0.031629-0.074106 0.056894-0.10007 0.063424-0.086337 0.12218-0.1298 0.12251-0.10735 0.80345-0.63688 0.26604-0.22602 0.1425-0.13127 0.15132-0.15031 0.16038-0.17594 0.096143-0.11738 0.11501-0.15667 0.19893-0.29438 0.045791-0.056526 0.059836-0.059491 0.161-0.098906 0.10789-0.036064 0.11047-0.021828 0.12367-0.011395 0.13644 0.001307 0.12798 0.013608 0.18615 0.03517 0.15959 0.042941 0.22058 0.082413 0.17321 0.082386 0.2111 0.11951 0.11095 0.075161 0.072576 0.055878 0.11744 0.10399 0.1335 0.14239 0.091018 0.11576 0.095498 0.14524 0.10255 0.1977 0.080322 0.20083 0.055813 0.1884 0.047632 0.21329 0.089159 0.55478 0.046145 0.23032 0.035099 0.12616 0.036027 0.10032 0.095897 0.19536 0.10114 0.15656 0.11603 0.15118 0.12227 0.14069 0.13023 0.13717 0.20571 0.20097 0.2662 0.24088 0.13624 0.112 0.15937 0.11638 0.17478 0.10682 0.067369 0.035025 0.078603 0.036404 0.15972 0.05842 0.1324 0.030659 0.12959 0.012562 0.13418-0.008842 0.11751-0.031804 0.049151-0.02218 0.14262-0.10454 0.12034-0.14551 0.056272-0.090621 0.081552-0.161 0.098272-0.24314 0.054619-0.16189 0.058758-0.21249 0.026161-0.11962 0.034593-0.23587 0.005843-0.13169-0.003969-0.091171-0.032521-0.17922-0.029-0.084792-0.039466-0.086739-0.064262-0.10915-0.035197-0.049523-0.05675-0.069626-0.11414-0.11532-0.1838-0.14988-0.37811-0.2769-0.067355-0.058029-0.077222-0.078396-0.084464-0.11016-0.039786-0.072115-0.025812-0.066344-0.019176-0.089411-0.004568-0.12879 0.016737-0.16918 0.059979-0.33001 0.051654-0.23297 0.27062-1.1652 0.26387-0.95616 0.074189-0.31476 0.031101-0.16762 0.028776-0.22863 0.010136-0.20854-0.003284-0.25634-0.02089-0.25788-0.020639-0.14582-0.05471-0.27718-0.070516-0.26997-0.060518-0.19953-0.10731-0.3185-0.32988-0.85352-0.19603-0.55092-0.10712-0.33968-0.071805-0.28958-0.030789-0.1931-0.010595-0.12465-0.00245-0.13303 0.006282-0.12401 0.018823-0.1544 0.029683-0.15338 0.043655-0.16747 0.053514-0.16578 0.073792-0.19342 0.16656-0.36857 0.21774-0.42602 0.11266-0.1989 0.087002-0.13514 0.10861-0.14616 0.062597-0.075287 0.21332-0.22534 0.14054-0.12881 0.51666-0.44262 0.16097-0.15351 0.10569-0.11832 0.11297-0.15894 0.096636-0.16689 0.19202-0.37358 0.088228-0.15545 0.098667-0.1369 0.11688-0.11006 0.043017-0.028452 0.10202-0.050129 0.1099-0.035869 0.19368-0.038017 0.51235-0.055226 0.18284-0.028004 0.10375-0.02272 0.19447-0.058874 0.24622-0.097571 0.17919-0.093484 0.17117-0.10323 0.14487-0.097078 0.2102-0.15219 0.46003-0.35654 0.31507-0.2334 0.14939-0.12026 0.086536-0.081405 0.16287-0.19832 0.12811-0.22068 0.073696-0.17918 0.049297-0.18252 0.02127-0.18232-0.00653-0.14144-0.045404-0.1807-0.051344-0.11351-0.05655-0.092915-0.08068-0.10225-0.075065-0.07418-0.055075-0.044856-0.1079-0.070361-0.13072-0.064199-0.11543-0.04424-0.12561-0.038466-0.27452-0.061157-0.51276-0.081534-0.19499-0.036884-0.2813-0.069469-0.26048-0.082573-0.21131-0.082148-0.1024-0.046877-0.12089-0.064252-0.080154-0.050268-0.075924-0.056235-0.035994-0.030836-0.10116-0.10862-0.061008-0.088099-0.076302-0.14364-0.064832-0.15336-0.31998-0.85908-0.089842-0.26967-0.060919-0.20676-0.076828-0.2983-0.056761-0.25889-0.11904-0.66445-0.10726-0.46483-0.11952-0.67913-0.056982-0.2691-0.012868-0.034239-0.069494-0.028327-0.2911-0.069043-0.21098-0.074707-0.078254-0.012754-0.086438 0.008079-0.1649 0.041658-0.053136 0.007821-0.41256-0.003265-0.10378 0.011314-0.054699 0.016714-0.17925 0.035767-0.51561 0.082159-1.1217 0.21401-0.18278 0.027618-0.27324 0.03192-0.4442 0.035866-0.3384 0.01726-1.2243 0.041261-0.33077 0.005086-0.33756-0.01039-0.23166-0.022873-0.19945-0.03246-0.28501-0.058452-0.31711-0.055636-0.38181-0.053224-0.22944-0.023753-0.2534-0.012026-0.46342-0.009321-0.48726-0.027366-0.69918-0.002274-0.24553-0.018857-0.16358-0.02171-0.20735-0.041693-0.12346-0.033339-0.14092-0.049053-0.14026-0.068587-0.16551-0.12278-0.11498-0.11252-0.15009-0.17269-0.47628-0.61363-0.48632-0.60832-0.18615-0.25771-0.10418-0.15829-0.098001-0.16233-0.15269-0.29282-0.098099-0.23209-0.093734-0.28911-0.067951-0.30366-0.042207-0.28851-0.030646-0.33876-0.042635-0.93292-0.018854-0.16726-0.044279-0.117-0.060227-0.03441-0.051439 0.008663-0.055185 0.03297-0.045553 0.039067-0.085398 0.089295-0.21962 0.2685-0.24324 0.32222-0.20337 0.27961-0.34184 0.49231-1.144 1.7099-0.67154 0.98188-0.43294 0.59359-0.28734 0.36787-0.19454 0.23344-0.16665 0.18753-0.25536 0.26207-0.25591 0.23271-0.26895 0.22143-0.27708 0.21099-0.27908 0.19981-0.5275 0.35284-0.4394 0.27814-0.007657-0.011779-0.065476-0.023577-0.28838-0.053449-0.6463-0.079536-0.74186-0.07357-2.2277-0.20075-0.65452-0.072179-0.31881-0.042273-0.31221-0.048649-0.30436-0.057477-0.2947-0.069556-0.28254-0.085887-0.267-0.10772-0.24702-0.13658-0.2196-0.16767-0.19952-0.1954-0.18279-0.21633-0.099455-0.13295-0.4872-0.72231-0.18248-0.24423-0.12156-0.14304-0.10475-0.11085-0.23392-0.21578-0.24965-0.20078-0.65922-0.47951-0.2771-0.2135-0.19638-0.17236-0.18042-0.17843-0.16249-0.18123-0.10809-0.13718-0.06158-0.090706-0.055044-0.096718-0.044225-0.099677-0.029255-0.092858-0.025995-0.20961 0.017263-0.21652 0.050904-0.21903 0.077144-0.2171 0.097881-0.21044 0.10804-0.187 0.14313-0.19341 0.16519-0.1606 0.19059-0.11505 0.085807-0.030717 0.10288-0.024172 0.11496-0.015018 0.1325-0.005843 0.11449 0.002251 0.22622 0.017542 0.56411 0.069827 0.34282 0.031174 0.16772 0.007135 0.15505-3.25e-4 0.26009-0.018359 0.14678-0.019975 0.21589-0.039917 0.17209-0.039448 0.29026-0.0781 0.37583-0.11306 0.36169-0.11941 0.19993-0.071813 0.18998-0.074079 0.19922-0.085979 0.17596-0.084602 0.14916-0.079008 0.19172-0.11193 0.15418-0.097259 0.35877-0.2433 0.61163-0.45098 0.39814-0.27602 0.88363-0.58001 0.48006-0.3042 0.81729-0.50108 0.35566-0.23618 0.1757-0.1314 0.13419-0.11096 0.19796-0.18724 0.10154-0.1143 0.083975-0.1127 0.075839-0.13004 0.051527-0.12659 0.028389-0.1202 0.004125-0.23485-0.049761-0.24073-0.092475-0.24186-0.12741-0.23826-0.13782-0.2045-0.1574-0.19551-0.1743-0.18378-0.18972-0.1687-0.21466-0.15995-0.3929-0.26378-0.19738-0.1246-0.7108-0.42842-0.22061-0.14021-0.21989-0.15258-0.19079-0.17108-0.10802-0.137-0.093101-0.15259-0.073226-0.14565-0.064714-0.15475-0.087548-0.27045-0.36255-1.4696-0.10842-0.52887-0.11632-0.70111-0.034093-0.23375-0.071486-0.57217-0.074482-0.67696-0.01722-0.23073-0.001758-0.15436 0.009586-0.046909 0.052156 0.041194 0.073367 0.008864 0.060176-0.012566 0.056006-0.026107 0.052492-0.039186 0.047759-0.051955 0.036441-0.05427 0.03739-0.07501 0.027476-0.075986 0.027066-0.1119 0.01326-0.092456 0.005457-0.084715-0.008747-0.16757-0.048917-0.27392-0.008063-0.073788 0.002895-0.067295 0.015395-0.054845 0.029181-0.046633 0.033279-0.029674 0.046503-0.022734 0.077005-0.00931 0.054315 0.007104 0.234 0.061575 0.14536 0.02734 0.10371 0.011337 0.096713 0.003842 0.081926-0.003819 0.090372-0.016734 0.067118-0.028365 0.035831-0.026662 0.032759-0.041062 0.017585-0.044383 0.005424-0.045913-0.005497-0.051489-0.01765-0.053376-0.033962-0.055253-0.06128-0.060303-0.17801-0.13453-0.14135-0.12241-0.45578-0.4452-0.11309-0.095019-0.16158-0.11744-0.1347-0.085069-0.13841-0.078584-0.17581-0.088078-0.15301-0.068048-0.55413-0.21908-0.19947-0.093295-0.10621-0.058993-0.10254-0.065022-0.16027-0.12259-0.045043-0.040608-0.08337-0.084359-0.097416-0.11308-0.095096-0.12367-0.1297-0.18919-0.10757-0.17421-0.10174-0.17657-0.21196-0.40141-0.32713-0.67693-0.10316 0.037886-0.19548 0.029056-0.23274 0.006043-0.22935-0.030524-0.059391-0.016717-0.11897-0.047359-0.060604-0.031361-0.11882-0.074814-0.064024-0.050291-0.067561-0.069138-0.054892-0.087752-0.020739-0.058831-0.011933-0.059815-0.005572-0.077706 0.004174-0.08582 0.016969-0.10032 0.032167-0.10964 0.039257-0.10215 0.2088-0.48193 0.094036-0.26791 0.090754-0.34463 0.10492-0.50435 0.017745-0.12089 0.004882-0.13467-0.013665-0.086948-0.016059-0.044927-0.035179-0.058238-0.046669-0.04627-0.039742-0.026171-0.081751-0.034193-0.074562-0.018009-0.16665-0.015854-0.24924 0.008568-0.27371 0.030736-0.54252 0.084272-0.25821 0.048015-0.58887 0.12525-0.42296 0.072082-0.35567 0.039984-0.18296 0.010234-0.26068-0.00234-0.26576-0.03315-0.19298-0.055484-0.13669-0.067003-0.091725-0.065678-0.098095-0.1008-0.066584-0.10068-0.052512-0.11745-0.036522-0.12757-0.030958-0.25976 0.005885-0.22931 0.036198-0.29006 0.070184-0.42365 0.13615-0.70329 0.025048-0.23157 0.005956-0.17012-0.003176-0.19057-0.033684-0.43963-0.073758-0.70287-0.040732-0.53252-0.013828-0.21528-0.019025-0.56558-0.033796-0.50162-0.027638-0.20208-0.059126-0.25469-0.083362-0.25368-0.088999-0.22099-0.10089-0.2193-0.16503-0.31612-0.16069-0.26739-0.083748-0.12318-0.073521-0.099259-0.13117-0.16157-0.12536-0.14215-0.25683-0.27226-0.77503-0.79619-0.23386-0.25635-0.11431-0.13938-0.13412-0.19106-0.10125-0.19347-0.061328-0.22391 0.004249-0.20737 0.052295-0.21228 0.089214-0.216 0.11735-0.21873 0.13864-0.22062 0.13209-0.19058 0.28943-0.38262 0.39193-0.47736 0.20518-0.2365 0.38573-0.42313 0.62659-0.64941 1.1067-1.1129 0.67105-0.68289 0.42856-0.45008 0.41202-0.46108 0.20516-0.25022 0.19274-0.25712 0.17577-0.26585 0.16017-0.28847 0.12266-0.2621 0.10644-0.26548 0.090305-0.26566 0.07277-0.26229 0.050165-0.24319 0.026542-0.23206-0.003867-0.21559-0.043217-0.19241-0.093813-0.16096-0.1734-0.13405-0.23532-0.092813-0.3172-0.064083-0.17059-0.018858-0.17774-0.012503-0.25694-0.009304-0.5013 0.001081-0.51442 0.015025-0.078323-0.005296 0.98677-2.7877-0.06734 0.013811-0.47519 0.15559-0.33684 0.10372-0.36024 0.1013-0.35614 0.087694-0.35163 0.070283-0.33923 0.045967-0.32024 0.013687-0.29489-0.028387-0.26261-0.082795-0.20876-0.13228-0.18386-0.17561-0.16686-0.20601-0.20571-0.30149-0.44741-0.72896-0.21454-0.31734-0.10616-0.13854-0.45437-0.5393-0.14666-0.19465-0.11365-0.17093-0.082343-0.14768-0.093926-0.20882-0.10495-0.30398-0.06367-0.22958-0.062102-0.2838-0.016054-0.10483-0.012371-0.13049-0.002693-0.10898 0.011978-0.16543 0.038972-0.17826 0.15862-0.48343 0.056523-0.21107 0.063143-0.27459 0.053794-0.31969 0.028583-0.13654 0.03486-0.12919 0.17674-0.52127 0.068079-0.23521 0.033023-0.1549 0.009299-0.13212-0.005359-0.043221-0.019966-0.067904-0.081052-0.15395-0.011656-0.040549-0.001252-0.046728 0.026188-0.086713 0.030104-0.059683 0.14275-0.22478 0.053343-0.11074 0.030385-0.10654 0.017411-0.12266 2.3e-5 -0.17476-0.012993-0.10602-0.045073-0.17475-0.059592-0.13147-0.065689-0.096687-0.082128-0.082813-0.038418-0.02893-0.031154-0.020197-0.14018-0.068217-0.1865-0.062616-0.39199-0.11205-0.19217-0.064889-0.14485-0.059512-0.10013-0.048202-0.14568-0.083981-0.085255-0.059518-0.077169-0.062482-0.098829-0.093793-0.1066-0.12468-0.085587-0.14073-0.066876-0.1571-0.04259-0.13748-0.071823-0.29731-0.054898-0.27637-0.06233-0.37741-0.03743-0.32545-0.016982-0.32948 0.007135-0.2533 0.011568-0.11105 0.018526-0.10912 0.043541-0.16139 0.086784-0.20179 0.11141-0.19636 0.29748-0.47586 0.29184-0.48153 0.23288-0.41405 0.17287-0.3418 0.21692-0.46977 0.10257-0.23856 0.18253-0.45435 0.18738-0.5126 0.18397-0.56757 0.1285-0.46495 0.15696-0.71978 0.068789-0.25649 0.094358-0.24308 0.055189-0.10543 0.068989-0.11192 0.1819-0.23865 0.21214-0.22659 0.17018-0.1611 0.36653-0.31511 0.71512-0.57323 0.45053-0.37644 0.22043-0.20125 0.25357-0.25373 0.24565-0.26873 0.13957-0.16235 0.26288-0.32482 0.27006-0.35812 0.14205-0.19817 0.21632-0.31654 0.20737-0.32085 0.16754-0.27191 0.13516-0.23817 0.007458 0.012921 0.022255 0.00901 0.088982 0.016845 0.38128 0.023729 1.3303 0.032169 1.162 0.039669 0.5997 0.007146 0.42858-0.014993 0.76276-0.048231 0.38296-0.013938 0.34855-0.006012 0.66739 0.008431 0.93299 0.029894 0.2552 0.001549 0.22025-0.011542 0.18217-0.022617 0.15512-0.032375 0.16928-0.053538 0.10983-0.050426 0.088278-0.057288 0.049728-0.043928 0.057796-0.071972 0.040911-0.083502 0.023467-0.083374 0.013042-0.084765 0.006971-0.093193 0.002744-0.16666-0.008141-0.18292-0.036032-0.28295-0.072838-0.36921-0.22642-1.0574-0.060916-0.31857-0.049064-0.31497-0.02509-0.27095-0.0034-0.17214 0.009344-0.1646 0.023681-0.15128 0.037448-0.13112 0.049446-0.11326 0.094756-0.14097 0.11436-0.11039 0.092302-0.061897 0.16249-0.070806 0.18184-0.044172 0.19691-0.022265 0.2015-0.004391 0.20973 0.009066 0.21584 0.019639 0.30363 0.040052 0.30785 0.051063 0.63826 0.12776 0.84509 0.19368 0.1594 0.031973 0.15528 0.024201 0.15844 0.013717 0.1515-2.11e-4 0.49056-0.04089 0.1826-0.008192 0.24252 0.008697 0.49544 0.050579 0.24589 0.018647 0.23962-0.002139 0.22896-0.036778 0.097514-0.031197 0.23032-0.11229 0.20474-0.13673 0.20426-0.15888 0.18682-0.16949 0.15794-0.17784 0.11549-0.18481 0.054238-0.14588 0.07535-0.29188 0.055713-0.14048 0.075941-0.11815 0.089757-0.099091 0.14339-0.11521 0.095238-0.057927 0.12746-0.062008 0.19364-0.074112 0.42181-0.13522 0.4797-0.16448 0.23033-0.072481 0.20757-0.053848 0.15164-0.029492 0.1446-0.018815 0.13271-0.008878 0.16827-0.001613 0.29212 0.017814 0.29552 0.038842 0.29685 0.05555 0.29615 0.069395 0.2933 0.081675 0.28798 0.093606 0.27967 0.10637 0.26761 0.12118 0.25077 0.13935 0.15021 0.10126 0.12949 0.101 0.10488 0.093218 0.11461 0.11758 0.073353 0.08759 0.085908 0.12156 0.1021 0.17923 0.20194 0.43766 0.13495 0.25839 0.19223 0.34631 0.1318 0.18545 0.1548 0.16372 0.176 0.13089 0.19667 0.084339 0.21049 0.027923 0.22901-0.010739 0.59365-0.074655 0.29114-0.020897 0.2255-3.3e-4 0.13615 0.008173 0.28016 0.042357 0.23354 0.072989 0.19484 0.10827 0.13929 0.13442 0.067947 0.10277 0.04156 0.099078 0.012616 0.079851-0.017963 0.061327 0.039187 0.009541 0.11804 0.006688 0.24395-0.00242 0.19704-0.013106 0.21196-0.023129 0.20444-0.030104 0.38904-0.075204 0.61288-0.15101 0.3646-0.10215 0.2331-0.071584 0.22309-0.076801 0.15605-0.061338 0.14802-0.066555 0.11759-0.061011 0.12026-0.073234 0.10951-0.080374 0.12146-0.11363 0.073365-0.08982 0.060288-0.095935 0.056247-0.12997 0.029883-0.1211 0.011021-0.16382-0.023872-0.18307-0.031166-0.11084-0.0415-0.10986-0.053201-0.11533-0.060513-0.11348-0.23085-0.37262-0.13808-0.24371-0.067533-0.1526-0.045822-0.14997-0.014111-0.11487 0.013203-0.10243 0.057888-0.10414 0.095485-0.081492 0.11358-0.058315 0.16128-0.063341 0.15134-0.051455 0.36118-0.10908 0.15996-0.043026 0.21832-0.049622 0.13808-0.023735 0.2026-0.021901 0.61176-0.019539 0.14622-0.009446 0.19044-0.021551 0.26307-0.050599 0.33793-0.090823 0.31351-0.10559 0.2722-0.1024 0.28209-0.11443 0.2986-0.13278 0.25782-0.12823 0.17621-0.09814 0.20952-0.13289 0.083336-0.064459 0.023981-0.032994 0.015741 0.008236 0.023558 0.02532 0.10564 0.13697 0.2324 0.33747 0.30965 0.46508 0.22164 0.31286 0.13344 0.16484 0.11158 0.12106 0.12943 0.12039 0.11109 0.085672 0.11201 0.070871 0.16483 0.081389 0.19617 0.071653 0.20401 0.054737 0.36783 0.06842 0.68944 0.09948 0.2219 0.039807 0.24773 0.062366 0.18631 0.070665 0.13384 0.070757 0.11264 0.076407 0.11121 0.094706 0.083012 0.087209 0.071974 0.092421 0.085952 0.14297 0.084066 0.20798 0.06103 0.22455 0.10101 0.47977 0.15407 0.8708 0.03989 0.19549 0.045765 0.19392 0.19036 0.6864 0.043281 0.18878 0.048524 0.27091 0.02839 0.24678 0.009506 0.14969 0.003893 0.14798-0.003278 0.20669-0.024005 0.33119-0.020944 0.16354-0.024594 0.13676-0.047258 0.18487-0.046855 0.13516-0.074693 0.16858-0.051779 0.096284-0.059486 0.097322-0.096024 0.13662-0.058061 0.073506-0.11313 0.12471-0.11091 0.10357-0.12985 0.10313-0.14129 0.093899-0.10284 0.057953-0.090176 0.044159-0.15415 0.061757-0.40441 0.12368-0.10195 0.036855-0.11637 0.056646-0.064401 0.043606-0.032158 0.028973-0.038815 0.053775-0.008896 0.024265-0.002854 0.033752 0.010738 0.033915 0.014472 0.018939 0.030275 0.022066 0.045143 0.017832 0.1206 0.02462 2.1621 0.3402 0.19561 0.01838 0.20378 0.00553 0.15737-0.005348 0.30472-0.026419 0.4409-0.05543 0.37336-0.061322 0.30662-0.060681 0.29287-0.071874 0.29827-0.086037 0.30104-0.095456 0.60573-0.20899 1.9249-0.71695 0.25547-0.079896 0.26165-0.066493 0.26483-0.054609 0.26507-0.043474 0.26232-0.032334 0.17725-0.015299 0.21705-0.00976 0.20855 0.001993 0.19726 0.015331 0.45402 0.07125 0.12638 0.010512 0.3492 0.005119 0.43869-0.02094 0.50527-0.052336 0.81529-0.12128 0.28157-0.032853 0.5724-0.042672 0.91061-0.05201 0.54424-0.049404 0.86638-0.10202 0.58667-0.076399 0.32465-0.049618 0.43735-0.077548 0.44016-0.090296 0.31917-0.073259 0.2902-0.073628 0.27826-0.078414 0.30225-0.095245 0.22902-0.080784 0.38624-0.15449 0.25146-0.10961 0.24031-0.1189 0.22341-0.13406 0.19966-0.15603 0.091475-0.091 0.086913-0.099516 0.103-0.13143 0.29675-0.40288 0.12252-0.14583 0.15976-0.15528 0.13065-0.095836 0.09987-0.056806 0.14595-0.063775 0.13447-0.042799 0.16269-0.03547 0.11509-0.016836 0.81501-0.070609 0.96156-0.10434 0.16726-0.012496 0.27933-0.009599 0.19608 0.001057 0.33483 0.015917 0.32602 0.037051 0.2514 0.06128 0.22788 0.10848 0.15755 0.13296 0.13584 0.16733 0.12 0.19362 0.096021 0.18582 0.090649 0.19706 0.31904 0.75727 0.12686 0.2861 0.13501 0.2802 0.12288 0.23076 0.13002 0.22026 0.13694 0.20669 0.16373 0.22255 0.15649 0.22785 0.1255 0.23345 0.109 0.25701 0.095695 0.27602 0.084809 0.29067 0.075576 0.30076 0.084952 0.39359 0.061857 0.35302 0.047035 0.33651 0.03333 0.296 0.027224 0.30668 0.15875-0.046896 0.085011-0.03093 0.085147-0.037417 0.079605-0.044109 0.069365-0.051633 0.054707-0.060642 0.03705-0.07099 0.022111-0.079131 0.011007-0.084795 0.002982-0.088575-0.009184-0.18341-0.048986-0.46458-0.00838-0.17949 0.003521-0.08633 0.011542-0.082889 0.02254-0.07821 0.03333-0.068028 0.043341-0.063473 0.051072-0.059537 0.057129-0.055891 0.12825-0.10038 0.070069-0.043426 0.073944-0.037583 0.1568-0.056461 0.33922-0.095242 0.17578-0.056283 0.27558-0.10707 0.18792-0.086887 0.17907-0.093268 0.23901-0.14151 0.16051-0.1099-0.061128-0.041836-0.011771-0.086982 0.038278-0.10844 0.08191-0.11576 0.13306-0.13771 0.32083-0.29204 0.11327-0.11886 0.09772-0.13273 0.058523-0.12728 0.016894-0.082674-0.021962-0.17877-0.06458-0.13713-0.075725-0.10474-0.093616-0.099485-0.18086-0.14676-0.12207-0.078693-0.15882-0.082389-0.22406-0.083075-0.47556-0.13037-0.23538-0.075396-0.22347-0.10103-0.20196-0.13442-0.16344-0.14162-0.15264-0.1596-0.13285-0.1642-0.13112-0.19287-0.079455-0.13973-0.063819-0.13296-0.051966-0.13507-0.055816-0.22768-0.016386-0.22601 0.025772-0.21742 0.073468-0.20156 0.12365-0.17847 0.16472-0.16233 0.19459-0.15248 0.24398-0.16651 1.2437-0.77587 0.23387-0.15195 0.42461-0.2899 0.54484-0.40316 0.31575-0.24911 0.52775-0.43042 0.35775-0.27969 0.34127-0.24556 0.16144-0.10615 0.22088-0.12998 0.1962-0.096868 0.19384-0.074588 0.17478-0.044255 0.17202-0.014291 0.20898 0.031314 0.20274 0.079217 0.1935 0.11935 0.09572 0.075384 0.20381 0.18729 0.23646 0.24746 0.1642 0.19003 0.61972 0.74924 0.27144 0.30352 0.16722 0.17371 0.17013 0.1631 0.1085 0.094942 0.10955 0.086181 0.1573 0.10582 0.31108 0.19115 0.16357 0.11748 0.41717 0.34247 0.13691 0.11462 0.13608 0.12966 0.28062 0.31576 0.070666 0.063869 0.10262 0.068923 0.15719 0.057395 0.098539 0.008791 0.10104-0.011316 0.1094-0.032547 0.12641-0.057579 0.43458-0.24971 0.12033-0.064054 0.12245-0.05824 0.3851-0.15583 0.30344-0.13055 0.23083-0.11531 0.5752-0.31867 0.38855-0.19598 0.086365-0.053849 0.21638-0.16421 0.41981-0.36065 0.26469-0.20432 0.33091-0.24196 0.3611-0.24807 1.1443-0.73444 0.32983-0.23052 0.15975-0.12208 0.17368-0.14671 0.1534-0.15147 0.11811-0.1407 0.24762-0.32937 0.12538-0.18247 0.094278-0.17776 0.039639-0.13898 0.003453-0.084903-0.004979-0.046595-0.022626-0.093065-0.031417-0.081371-0.083886-0.16245-0.076815-0.12292-0.09877-0.14141-0.27923-0.37381-0.10022-0.14382-0.15004-0.23992-0.12062-0.23587-0.052535-0.13223-0.038697-0.13185-0.023529-0.14909 0.002808-0.14635 0.035069-0.15299 0.062812-0.14751 0.10017-0.16564 0.1158-0.15041 0.13346-0.14405 0.092094-0.083127 0.060395-0.03503 0.053208-0.055981 0.14824-0.13219 0.19653-0.1643 0.24292-0.19208 0.46454-0.34422 0.46388-0.32763 1.0367-0.70418 0.62885-0.44203 0.2581-0.14934 0.20509-0.099703 0.17053-0.072234 0.22651-0.077789 0.10569-0.026512 0.10329-0.017757 0.1225-0.00738 0.11694 0.012045 0.097722 0.029017 0.12833 0.063104 0.090663 0.057562 0.42806 0.30403 0.15144 0.083993 0.15899 0.056477 0.11912 0.017207 0.12268-0.00144 0.11173-0.015532 0.13346-0.033882 0.22824-0.085765 0.1871-0.085659 0.18677-0.094105 0.39715-0.21857 0.1825-0.10917 0.08267-0.057121 0.11545-0.10237 0.097054-0.11905 0.073633-0.13315 0.051594-0.15634 0.073052-0.32346 0.041541-0.13011 0.046978-0.11096 0.045981-0.078756 0.03967-0.027804 0.098801-0.059153 0.13316-0.09201 0.15486-0.12178 0.15623-0.14245 0.14191-0.1567 0.52098-0.74946 0.11852-0.20511 0.20691-0.33059 0.070599-0.14468 0.040179-0.14932 0.003378-0.10513-0.014667-0.1035-0.030003-0.10199-0.072039-0.15048-0.096983-0.13496-0.27462-0.27932-0.12098-0.15272-0.094997-0.14813-0.054254-0.10786-0.046597-0.12873-0.029716-0.12945-0.040647-0.26846-0.098654-0.53575-0.018269-0.17702 0.004051-0.17186 0.008519-0.058616 0.022116-0.098102 0.028831-0.09622 0.04238-0.11672 0.053606-0.11414 0.11419-0.17243 0.10151-0.1222 0.35128-0.37195 0.11391-0.12988 0.1544-0.20358 0.084739-0.13267 0.20853-0.41352 0.066697-0.11274 0.077451-0.11105 0.10611-0.12701 0.11948-0.12298 0.2706-0.2405 0.32807-0.26003 0.36757-0.27014 0.017031-0.02164 0.055871-0.046925 0.14264-0.10413 0.19225-0.12331 0.17773-0.10045 0.17255-0.086805 0.18084-0.08034 0.20675-0.078443 0.23387-0.069921 0.2798-0.050903 0.33178-0.006553 0.32986 0.043833 0.20528 0.048244 0.20121 0.060749 0.17676 0.063385 0.17219 0.07037 0.16591 0.075877 0.15998 0.081061 0.25075 0.146 0.7075 0.50037 0.25906 0.16301 0.32298 0.21325 0.20988 0.12284 0.10263 0.051051 0.10485 0.045519 0.17594 0.063144 0.33804 0.10146 0.21712 0.052696 0.29961 0.045775 0.18692 0.008594 0.18544-0.016968 0.14814-0.03715 0.14724-0.055339 0.21315-0.10421 0.16574-0.09402 0.44929-0.27285 0.20146-0.11622 0.34886-0.18389 0.16392-0.080561 0.16294-0.070281 0.15544-0.054231 0.15249-0.03693 0.13543-0.014966 0.11921 0.003441 0.11542 0.016249 0.141 0.034523 0.13267 0.054525 0.14544 0.099137 0.12745 0.12785 0.092604 0.12269 0.077557 0.13069 0.060542 0.13378 0.081281 0.2616 0.044546 0.12396 0.061354 0.11513 0.078855 0.10305 0.094501 0.085488 0.15904 0.087825 0.3236 0.11751 0.15418 0.043788 0.16981 0.021397 0.17106-0.017549 0.17592-0.033356 0.11321-0.014132 0.13336-0.0013 0.21692 0.035812 0.23159 0.0685 0.49383 0.16414 0.19714 0.050475 0.14376 0.027975 0.17206 0.022132 0.14921 0.006808 0.18137-0.011399 0.1331-0.029408 0.17709-0.094781 0.13092-0.14899 0.058647-0.13094 0.025598-0.089399 0.026913-0.1341 0.048851-0.38941 0.038059-0.25286 0.11859-0.48155 0.050166-0.24186 0.017817-0.24595-0.025369-0.23112-0.056855-0.23658-0.22914-0.71278-0.065801-0.22513-0.069422-0.26815-0.034921-0.15987-0.026624-0.15578-0.018115-0.23746 0.024101-0.21863 0.028668-0.090813 0.037998-0.081502 0.048174-0.076461 0.066706-0.080639 0.081374-0.076005 0.14466-0.10008 0.099832-0.05148 0.10043-0.040348 0.13338-0.03706 0.16888-0.019464 0.095743 0.002981 0.14867 0.020729 0.14008 0.031901 0.4713 0.13303 0.14523 0.034907 0.17265 0.030762 0.12222 0.012494 0.12228 0.003278 0.13052-0.007826 0.1059-0.01577 0.18627-0.04923 0.16773-0.06676 0.15143-0.077504 0.149-0.091789 0.1843-0.13493 0.26613-0.23616 0.25462-0.26337 0.7652-0.8741 0.096735-0.10347 0.040512-0.030969 0.020331 0.021988 0.092206 0.13766" stroke="#bdc660"/>
    </defs>
    <g clip-path="url(#p4b63fb1df0)">
     <use y="280.512" fill="#bdc660" stroke="#bdc660" xlink:href="#m559a77df84"/>
    </g>
   </g>
  </g>
 </g>
 <defs>
  <clipPath id="p4b63fb1df0">
   <rect x="7.2" y="7.2" width="180.86" height="266.11"/>
  </clipPath>
 </defs>
</svg>
