<?xml version="1.0" encoding="UTF-8"?>
<!DOCTYPE svg  PUBLIC '-//W3C//DTD SVG 1.1//EN'  'http://www.w3.org/Graphics/SVG/1.1/DTD/svg11.dtd'>
<svg width="313.07pt" height="280.51pt" version="1.1" viewBox="0 0 313.07 280.51" xmlns="http://www.w3.org/2000/svg" xmlns:xlink="http://www.w3.org/1999/xlink">
 <metadata>
  <rdf:RDF xmlns:cc="http://creativecommons.org/ns#" xmlns:dc="http://purl.org/dc/elements/1.1/" xmlns:rdf="http://www.w3.org/1999/02/22-rdf-syntax-ns#">
   <cc:Work>
    <dc:type rdf:resource="http://purl.org/dc/dcmitype/StillImage"/>
    <dc:date>2024-07-04T12:10:38.085723</dc:date>
    <dc:format>image/svg+xml</dc:format>
    <dc:creator>
     <cc:Agent>
      <dc:title>Matplotlib v3.7.1, https://matplotlib.org/</dc:title>
     </cc:Agent>
    </dc:creator>
   </cc:Work>
  </rdf:RDF>
 </metadata>
 <defs>
  <style type="text/css">*{stroke-linejoin: round; stroke-linecap: butt}</style>
 </defs>
 <g id="figure_1">
  <g id="patch_1">
   <path d="m-0 280.51h313.07v-280.51h-313.07v280.51z" fill="none"/>
  </g>
  <g id="axes_1">
   <g id="PatchCollection_1">
    <defs>
     <path id="m9192a14c71" d="m184-260.41 0.29568 0.25708 0.45671 0.42378 0.51317 0.50296 0.8062 0.82095 0.5063 0.47864 0.39033 0.31937 0.21279 0.14972 0.28175 0.16604 0.26772 0.11743 0.34427 0.080226 0.16024 0.004776 0.10433-0.00944 0.20065-0.044655 0.22654-0.089408 0.16091-0.087536 0.15342-0.10153 0.14612-0.11358 0.1959-0.18297 0.098036-0.11236 0.039032-0.053931 0.035994-0.089255 0.72623 0.74838 0.26789 0.29847 0.25612 0.309 0.23076 0.31201 0.18426 0.29255 0.14409 0.28429 0.096363 0.27002 0.038954 0.24978-0.030933 0.2232-0.080864 0.15526-0.122 0.14092-0.13275 0.11752-0.70238 0.5138-0.2058 0.162-0.17606 0.1583-0.14162 0.15083-0.17437 0.24407-0.11371 0.26659-0.040551 0.30069 0.023271 0.32049 0.069463 0.33465 0.10239 0.34465 0.12539 0.35163 0.14094 0.35645 0.76954 1.8152 0.13854 0.3658 0.12165 0.36606 0.096736 0.36608 0.061045 0.36572 0.0109 0.3648-0.047573 0.34435-0.096318 0.34363-0.13495 0.34344-0.16619 0.34337-0.19231 0.34288-0.21518 0.34123-0.2363 0.33741-0.25672 0.33011-0.2768 0.31769-0.3031 0.308-0.3103 0.28493-0.30057 0.25516-0.53474 0.4221-0.002325 0.029749 0.022826 0.039705 0.13844 0.1418 0.15954 0.13017 0.16408 0.11861 0.32576 0.20666 0.23771 0.13506 0.3764 0.19665 1.352 0.66531 0.70476 0.37211 1.5871 0.8898 0.44128 0.25853 0.5713 0.35411 0.28101 0.18583 0.49131 0.35059 0.44848 0.36103 0.38268 0.35441 0.3921 0.44652 0.090058 0.12418 0.19745 0.32316 0.12816 0.26589 0.10136 0.26953 0.094235 0.37832 0.031381 0.28418-2.15e-4 0.17652-0.038827 0.31288-0.073612 0.32661-0.14873 0.56695-0.083066 0.42278-0.064708 0.52685-0.029898 0.49728-0.003356 0.28419 0.008886 0.28286 0.028672 0.31828 0.075008 0.401 0.069264 0.22795 0.058272 0.1479 0.12588 0.25445 0.17452 0.27911 0.18152 0.2394 0.18451 0.20926 0.32238 0.32147 0.64043 0.58606 0.37109 0.30442 0.45135 0.34093 0.90341 0.65363 0.58264 0.38615 2.1287 1.3702 0.5734 0.35468 0.51998 0.29609 0.43067 0.22079 0.5302 0.24502 0.41458 0.18021 0.58978 0.23393 0.38371 0.13904 0.49293 0.16401 0.39982 0.11893 0.45479 0.11621 0.21749 0.04589 0.085692 0.009917-0.06646 0.13253-0.029681 0.27343 0.009617 0.35702 0.05775 0.39756 0.087398 0.32744 0.12604 0.32014 0.22627 0.40425 0.26499 0.3778 0.23688 0.31692 0.21836 0.31405 0.086571 0.14338 0.08016 0.15328 0.07378 0.1745 0.042425 0.13163 0.038364 0.1785 0.017121 0.24526-0.016603 0.24842-0.03579 0.21743-0.080873 0.32475-0.22759 0.73171-0.07598 0.35006-0.034872 0.3816-0.001606 0.42413 0.029143 0.43564 0.05718 0.44008 0.084616 0.43799 0.11355 0.42956 0.078924 0.2433 0.15757 0.44568 0.17557 0.44826 0.1977 0.44394 0.22607 0.43235 0.26308 0.41266 0.29056 0.36826 0.32211 0.35004 0.34354 0.33876 1.0767 1.01 0.37226 0.37536 0.36242 0.38728 0.3529 0.39688 0.34286 0.40468 0.3312 0.4111 0.31657 0.41644 0.29722 0.42092 0.27094 0.4246 0.23494 0.4274 0.18588 0.42906 0.12 0.42907 0.043437 0.40292-0.007584 0.78834 0.016351 0.3763 0.075293 0.35517 0.074027 0.17542 0.047119 0.085151 0.24773 0.32023 0.30782 0.27288 0.22813 0.15826 0.21842 0.12559 0.1869 0.085388 0.15342 0.033565-0.039361 0.11914-0.17389 0.27567-0.23557 0.32122-0.30878 0.39651-0.17078 0.28482-0.092531 0.20314-0.074923 0.21484-0.074507 0.34456-0.017903 0.35712 0.043271 0.35371 0.099491 0.37532 0.16163 0.42583 0.22086 0.47493 0.12258 0.23733 0.54871 0.97687 0.28979 0.56349 0.17483 0.37893 0.12766 0.30647 0.13672 0.37467 0.090028 0.28123 0.083823 0.31248 0.041762 0.2175 0.02434 0.21912 0.003464 0.21178-0.017796 0.19813-0.032133 0.16223-0.048016 0.15397-0.13226 0.26485-0.18093 0.23961-0.22068 0.21275-0.25117 0.18435-0.27229 0.16509-0.70785 0.38606-0.22684 0.13435-0.27848 0.17659-0.58388 0.41616-0.20692 0.13003-0.2006 0.10724-0.44855 0.2008-1.3407 0.54033-0.19869 0.094294-0.15268 0.08757-0.17712 0.13032-0.12018 0.1154-0.20542 0.26281-0.18694 0.30784-0.37304 0.67565-0.15069 0.25324-0.32088 0.48282-0.19819 0.26222-0.16336 0.18416-0.093853 0.08277-0.051227 0.015629 4.5142 0.26352 4.1208 0.2758 1.869 0.11478 2.3203 0.12142 6.0343 0.28589 1.2677 0.068837 0.92887 0.071134 0.43948 0.049092 0.41426 0.06358 0.38017 0.083476 0.33468 0.11015 0.27474 0.14527 0.16388 0.13973 0.18893 0.2338 0.14743 0.25676 0.10234 0.25484 0.035837 0.1439 0.010166 0.1379-0.01701 0.13038-0.082962 0.18665-0.1204 0.14802-0.11361 0.10658-0.097208 0.11171-0.036936 0.069491-0.02818 0.098476-0.005334 0.051198 0.005434 0.10449 0.028286 0.11958 0.066468 0.15852 0.097051 0.16374 0.15368 0.20419 0.38368 0.45638 0.16078 0.20728 0.15558 0.21764 0.17719 0.27509 0.15672 0.28248 0.1402 0.31599 0.09731 0.31256 0.044816 0.30096-0.003437 0.19973-0.023655 0.19201-0.077862 0.45332-0.013935 0.19678 0.009984 0.15983 0.030782 0.16683 0.1055 0.42437 0.052131 0.27376 0.026498 0.28314-0.018732 0.58979 0.00527 0.21225 0.031375 0.25771 0.084647 0.32367 0.12818 0.32391 0.16202 0.31856 0.18798 0.30739 0.20757 0.28991 0.39166 0.48724 0.60984 0.87282 0.1593 0.20523 0.22589 0.25936 0.16128 0.16229 0.26317 0.22248 0.29196 0.19847 0.29757 0.16742 0.32467 0.15277 0.21787 0.081968 0.65264 0.20057 0.33335 0.11176 0.68719 0.2864 0.37835 0.16807 0.40094 0.20512 0.39648 0.21647 0.27922 0.17864 0.62914 0.43275 0.24269 0.13998 0.13246 0.060864 0.22069 0.072008 0.22156 0.041486 0.2157 0.013343 0.1761-0.01183 0.22241-0.044349 0.20622-0.069485 0.32202-0.1267 0.50772-0.14837 0.34213-0.11825 0.41366-0.17084 0.30635-0.14066 0.61407-0.3134 0.41802-0.23811 0.79917-0.47938 0.84198-0.44585 0.86385-0.47817 0.43247-0.25222 0.74892-0.45484 0.17428-0.095528 1.6017-0.75839 0.52904-0.27333 0.2218-0.1221 0.19556-0.12131 0.022059 0.20665 0.028115 0.097858 0.056962 0.14029 0.088852 0.17041 0.29981 0.52284 0.22311 0.4466 0.30629 0.562-0.027292 0.063805-0.13196 0.13583-0.38603 0.34218-0.5316 0.42492-0.50777 0.36698-0.63108 0.41268-0.5375 0.32648-1.1994 0.68975-0.2503 0.15021-0.32702 0.21434-0.34142 0.27114-0.25428 0.28698-0.13088 0.25313-0.058226 0.33292 0.013281 0.2797 0.043566 0.26968 0.074285 0.31998 0.36401 1.3699 0.11666 0.54162 0.097067 0.58254 0.037249 0.34008 0.0235 0.41543 7.55e-4 1.343 0.019246 0.50158 0.039106 0.34672 0.033264 0.19303 0.070324 0.2994 0.04061 0.13668 0.075371 0.20928 0.06305 0.14542 0.12722 0.24399 0.071649 0.11505 0.1317 0.18189 0.13879 0.16073 0.28394 0.2647 0.18958 0.14708 0.27054 0.18259 0.27264 0.16768 0.2731 0.15001 0.215 0.0969 0.16888 0.062975 0.17618 0.05249 0.23657 0.051067 0.45765 0.059252 0.74121 0.051941 0.51155 0.005818 0.44502-0.023893 0.35425-0.047224 0.31194-0.068527 0.8014-0.23095 1.2539-0.38212 0.38477-0.091909 0.25127-0.047353 0.29413-0.040539 0.14922-0.010896 0.18425 0.002862 0.13503 0.021626 0.080796 0.025412 0.10116 0.05044 0.080015 0.058753 0.056705 0.05432 0.10514 0.14072 0.047377 0.09294 0.035987 0.101 0.021112 0.10736 6.5e-5 0.1416-0.077853 0.26125-0.11702 0.20787-0.24324 0.32627-0.18157 0.21194-0.72263 0.788-0.259 0.2985-0.24022 0.31156-0.069415 0.10219-0.16825 0.30748-0.078447 0.23816-0.018356 0.10677-0.009597 0.13218 0.005077 0.16406 0.045567 0.2843 0.068123 0.23756 0.080171 0.20758 0.13656 0.27209 0.15667 0.2501 0.085556 0.12054 0.38047 0.49364 0.16012 0.22125 0.25555 0.40836 0.12731 0.23967 0.20283 0.4493 0.14371 0.3766 0.26893 0.75726 0.10347 0.25966 0.096093 0.21126 0.20193 0.37531 0.15389 0.24858 0.3491 0.48822 0.28701 0.34856 0.84494 0.95911 0.26906 0.33819 0.22531 0.33303 0.20004 0.39541 0.097489 0.31706-0.026205 0.16108 0.71804-0.17873 0.40898-0.11298 0.37922-0.12248 0.46714-0.17954 0.32546-0.14593 0.35116-0.18224 0.27352-0.16361 0.2125-0.14392 0.18194-0.13918 0.17853-0.15277 0.3454-0.33959 0.43383-0.49528 0.72569-0.91848 0.99979-1.3164 0.18222-0.20561 0.16444-0.13796 0.18394-0.11418 0.15223-0.070424 0.16098-0.057905 0.25994-0.069332 0.27276-0.051553 0.57113-0.068777 1.2663-0.10642 0.28596-0.037659 0.28052-0.051825 0.27225-0.072071 0.26045-0.099707 0.25496-0.13789 0.24567-0.16443 0.49304-0.36136 0.26115-0.17338 0.22884-0.1299 0.237-0.11686 0.2403-0.1046 0.31092-0.11878 0.47792-0.14752 0.13879-0.030513 0.059636-8.19e-4 0.0437 7.8e-4 0.080237 0.072522 0.10772 0.14342 0.41994 0.66623 0.27404 0.4045 0.61374 0.8645 0.30403 0.45304 0.28054 0.46889 0.15154 0.28993 0.14055 0.29547 0.21786 0.50251 0.33225 0.84443 0.26015 0.73113 0.5441 1.6544 0.23525 0.68398 0.84898 2.3613 0.41659 1.2058 0.23455 0.59726 0.25443 0.53922 0.36623 0.67515 0.97601 1.6318 0.70048 1.2315 0.39534 0.73615 1.1107 2.1487 0.36103 0.65624 0.1977 0.33564 0.18562 0.2946 0.18153 0.26643 0.15112 0.20552 0.2489 0.30308 0.18499 0.19294 0.19165 0.16955 0.21823 0.15438 0.22711 0.11516 0.13578 0.046706 0.33489 0.067019 0.54992 0.056233 0.27595 0.044204 0.29582 0.082779 0.2487 0.098607 0.28238 0.15817 0.27368 0.19962 0.25748 0.22545 0.24708 0.25023 0.23996 0.2779 0.22181 0.29524 0.21064 0.33062 0.10888 0.19878 0.18172 0.37207 0.15241 0.38434 0.10729 0.3964 0.028818 0.17821 0.028479 0.39907-0.01545 0.40265-0.052919 0.39428-0.26117 1.3348-0.040587 0.2618-0.032582 0.46744 0.004427 0.5759 0.028507 0.49525 0.057605 0.39858 0.079586 0.31077 0.10754 0.307 0.10472 0.24584 0.11529 0.23548 0.20336 0.35569 0.2086 0.30387 0.10952 0.13008 0.067403 0.047798-0.02216 0.10813-0.075202 0.22991-0.11575 0.26962-0.078983 0.15289-0.14699 0.2429-0.14917 0.21121-0.091596 0.11572-0.19479 0.21232-0.36108 0.32121-1.0596 0.81993-0.41037 0.33996-1.3531 1.2315-1.2101 1.0535-1.0242 0.95537-0.066423 0.050777-0.1586 0.16965-1.2546 1.4332-0.41747 0.43182-0.43634 0.3872-0.30218 0.22123-0.24429 0.1505-0.24829 0.12708-0.27501 0.10946-0.30541 0.080717-0.17363 0.025856-0.21399 0.012832-0.20048-0.005375-0.20039-0.020485-0.28307-0.050437-0.23812-0.057234-0.77274-0.21811-0.22968-0.052303-0.24376-0.033988-0.15698-0.004887-0.2769 0.031912-0.2187 0.060764-0.16466 0.066154-0.16368 0.084406-0.23719 0.16409-0.13342 0.12462-0.10937 0.13221-0.078984 0.12536-0.062301 0.13363-0.047004 0.1489-0.039516 0.35846 0.029701 0.38933 0.043653 0.25542 0.057256 0.26212 0.11382 0.43966 0.10789 0.36912 0.3757 1.1687 0.093218 0.3879 0.041596 0.37894-0.029213 0.40326-0.082251 0.39656-0.19444 0.78955-0.062401 0.41459-0.080096 0.63848-0.044126 0.21987-0.04197 0.14658-0.096157 0.21468-0.21465 0.24429-0.29035 0.1554-0.21824 0.048218-0.29737 0.01869-0.24464-0.011163-0.28212-0.036287-0.23571-0.045868-0.32323-0.082759-0.80967-0.26911-0.37971-0.11231-0.35565-0.058716-0.21866 0.002131-0.18562 0.02317-0.28843 0.05469-0.28047 0.028774-0.27842-0.035082-0.2528-0.071795-0.53058-0.19267-0.26076-0.144-0.15494-0.14017-0.12929-0.16897-0.1006-0.18876-0.073037-0.20324-0.13327-0.42891-0.099264-0.21935-0.12716-0.21428-0.15183-0.20116-0.20896-0.20962-0.23847-0.16254-0.21752-0.089399-0.23118-0.056602-0.18923-0.026642-0.19546-0.005642-0.22205 0.024538-0.25002 0.060549-0.25485 0.088917-0.26716 0.11523-0.26876 0.13209-0.57198 0.30151-0.33032 0.19056-0.73665 0.44737-0.27174 0.15415-0.34948 0.17086-0.24141 0.090733-0.24288 0.060911-0.30404 0.027821-0.30646-0.014091-0.49124-0.075052-0.35598-0.086399-0.55425-0.16636-0.28846-0.10353-0.17191-0.074632-0.16827-0.083701-0.34412-0.20142-0.52955-0.34964-0.42476-0.26727-1.16-0.8204-0.41113-0.23938-0.2623-0.13291-0.27202-0.12441-0.28232-0.11538-0.28981-0.10393-0.32991-0.099603-0.33657-0.0791-0.54084-0.071869-0.54399 0.010744-0.45876 0.083461-0.38345 0.11464-0.33898 0.12861-0.29651 0.13173-0.28291 0.14232-0.2914 0.1647-0.31521 0.20218-0.23387 0.17072-0.091606 0.076938-0.027923 0.035481-0.60266 0.44292-0.5379 0.42635-0.44367 0.39432-0.19591 0.20163-0.17398 0.20824-0.12699 0.18208-0.10936 0.18484-0.34191 0.67801-0.13894 0.21752-0.25315 0.33379-0.18677 0.21295-0.57594 0.60984-0.16644 0.20035-0.18723 0.28272-0.087891 0.18715-0.069486 0.19138-0.047271 0.15776-0.036261 0.16085-0.013967 0.096107-0.006643 0.28178 0.029954 0.29024 0.16175 0.87841 0.066645 0.44017 0.048723 0.21225 0.076398 0.21107 0.088956 0.17684 0.15576 0.24287 0.19835 0.2504 0.45026 0.45798 0.15901 0.22128 0.11812 0.24672 0.049192 0.16722 0.024048 0.1697-0.005539 0.17236-0.065876 0.24483-0.11575 0.23722-0.33925 0.54203-0.19433 0.3363-0.85419 1.2288-0.23267 0.25692-0.25615 0.23356-0.25392 0.19966-0.21832 0.15086-0.16199 0.096987-0.065042 0.045587-0.07539 0.12913-0.077025 0.18193-0.06811 0.21333-0.11978 0.53035-0.084592 0.25633-0.12073 0.21831-0.15913 0.1952-0.18929 0.16785-0.13555 0.093654-0.29923 0.17899-0.65117 0.35837-0.30623 0.15429-0.30676 0.14045-0.37422 0.14062-0.21883 0.055552-0.18318 0.025467-0.20114 0.002361-0.19532-0.028213-0.26068-0.092598-0.24831-0.13772-0.70185-0.49848-0.14865-0.094378-0.21041-0.10346-0.16022-0.047575-0.19173-0.01975-0.20085 0.012102-0.16936 0.029113-0.17329 0.04347-0.37138 0.12754-0.2796 0.11843-0.33626 0.16347-0.42318 0.24486-1.0311 0.72474-1.6997 1.1546-0.76058 0.53718-0.76165 0.56438-0.39829 0.31494-0.32223 0.26938-0.24305 0.21674-0.087239 0.091786-0.099024 0.057434-0.151 0.1363-0.21882 0.23618-0.18986 0.24662-0.16423 0.27157-0.10299 0.24185-0.057498 0.25084-0.004604 0.23995 0.038578 0.24445 0.063446 0.21618 0.086135 0.2168 0.19778 0.38673 0.246 0.39337 0.16432 0.2358 0.45782 0.6129 0.16194 0.23185 0.12594 0.20154 0.13754 0.26635 0.051512 0.13342 0.037097 0.15259 0.008163 0.076396-0.005661 0.13921-0.064992 0.22786-0.15458 0.29145-0.20557 0.29917-0.40599 0.54003-0.19366 0.23068-0.25151 0.24834-0.28477 0.24055-0.26192 0.20017-0.54078 0.37796-1.8762 1.2042-0.59205 0.40674-0.54255 0.39672-0.43398 0.335-0.68832 0.59132-0.35477 0.26924-0.1416 0.088289-0.63706 0.32133-0.94309 0.52249-0.37847 0.18906-0.49752 0.21405-0.6314 0.2555-0.20076 0.09549-0.1973 0.10502-0.71254 0.40942-0.20726 0.094407-0.17937 0.053364-0.16566 0.018554-0.16156-0.014415-0.25772-0.094103-0.16825-0.11301-0.11586-0.10472-0.46009-0.51771-0.22312-0.21259-0.22448-0.18793-0.68399-0.56151-0.26818-0.19261-0.51004-0.3134-0.2579-0.17351-0.17962-0.1413-0.17789-0.15567-0.27894-0.26743-0.27418-0.28481-0.44505-0.49765-1.0161-1.2284-0.26922-0.31158-0.3877-0.40574-0.33416-0.30707-0.15694-0.1236-0.31726-0.19568-0.33242-0.12988-0.34264-0.051343-0.28204 0.023432-0.28656 0.07256-0.31781 0.12229-0.32169 0.15882-0.36214 0.21311-0.26469 0.17405-0.55954 0.40262-0.58657 0.45857-0.86529 0.70572-0.5177 0.40844-0.89331 0.66101-0.69619 0.47532-0.38345 0.24913-2.0391 1.2721-0.40003 0.273-0.31905 0.25001-0.27007 0.26615-0.20273 0.29262-0.12046 0.33048-0.042255 0.35648 0.026867 0.37056 0.091514 0.3733 0.085203 0.22146 0.10464 0.218 0.13027 0.22911 0.21498 0.31622 0.21782 0.26922 0.25027 0.26167 0.26798 0.2322 0.33113 0.2204 0.36639 0.16564 0.38593 0.12362 0.77972 0.21376 0.36736 0.13621 0.2604 0.13508 0.20014 0.12902 0.29654 0.24063 0.15349 0.16312 0.12416 0.17173 0.10588 0.22484 0.036009 0.2931-0.027701 0.13555-0.095952 0.20868-0.16022 0.21762-0.18571 0.19488-0.52602 0.47882-0.21817 0.22579-0.1343 0.18979-0.06276 0.1778 0.019301 0.14262 0.10022 0.068593-0.26317 0.1802-0.39188 0.23202-0.2936 0.15292-0.30811 0.14246-0.45184 0.17555-0.2882 0.092281-0.55618 0.15616-0.25709 0.092572-0.12124 0.061622-0.11488 0.071201-0.21027 0.16459-0.093669 0.091639-0.083736 0.097616-0.071061 0.10407-0.054648 0.11154-0.036957 0.12823-0.018924 0.1359-0.005772 0.14155 0.01374 0.29429 0.080316 0.76171 0.015057 0.30072-0.004888 0.14523-0.018047 0.13903-0.036254 0.12974-0.060746 0.11639-0.089696 0.099428-0.11373 0.084657-0.13052 0.07232-0.13961 0.061348-0.13938 0.050714-0.26028 0.07689-0.044635-0.50282-0.054647-0.48531-0.077118-0.55174-0.10142-0.5788-0.13929-0.64533-0.12391-0.49313-0.13905-0.47657-0.1569-0.45256-0.17872-0.42139-0.20577-0.38277-0.25658-0.37358-0.26845-0.36489-0.22453-0.33889-0.21317-0.36113-0.20148-0.37836-0.22136-0.45941-0.208-0.46908-0.5231-1.2416-0.14863-0.3231-0.15743-0.30467-0.19674-0.31746-0.22273-0.27435-0.25832-0.21799-0.37362-0.17786-0.41219-0.10048-0.53453-0.060748-0.54899-0.026098-0.32149-0.001731-0.45799 0.015738-0.27424 0.020488-1.5766 0.17107-1.3363 0.11577-0.1887 0.027604-0.26675 0.058156-0.22048 0.070173-0.2393 0.10456-0.16374 0.093139-0.21421 0.15713-0.26194 0.25459-0.20089 0.23911-0.48655 0.66056-0.16888 0.21549-0.1425 0.16316-0.14998 0.1492-0.32736 0.25583-0.3663 0.21981-0.39401 0.19495-0.4123 0.17972-0.63328 0.2533-0.3755 0.13245-0.49557 0.15616-0.45624 0.12857-0.47581 0.12072-0.5233 0.12012-0.72167 0.14805-0.71708 0.12715-0.5323 0.081353-0.9619 0.12526-1.4205 0.16727-0.89233 0.081003-1.493 0.085275-0.9385 0.069963-0.46166 0.053865-1.3367 0.19884-0.82844 0.085809-0.71927 0.034334-0.57254-0.008394-0.20722-0.017234-0.7444-0.11682-0.32342-0.025136-0.34194-0.003269-0.35587 0.016003-0.29061 0.025084-0.43009 0.053014-0.43461 0.071279-0.43421 0.089537-0.429 0.10902-0.41886 0.131-3.156 1.1755-0.99315 0.34266-0.49358 0.15651-0.48905 0.14107-0.48019 0.11784-0.50273 0.099491-0.61215 0.10054-0.7229 0.090883-0.49962 0.043316-0.25802 0.008767-0.33412-0.009066-0.32072-0.030136-3.5449-0.5578-0.19773-0.040366-0.074017-0.029238-0.049639-0.036179-0.023728-0.031053-0.017605-0.055606 0.004679-0.055339 0.014585-0.039785 0.063642-0.088169 0.052726-0.047503 0.10559-0.071496 0.1908-0.092877 0.16716-0.060427 0.66307-0.20278 0.25274-0.10126 0.14785-0.072403 0.16862-0.095019 0.23165-0.15396 0.21291-0.16909 0.18185-0.16982 0.18549-0.20447 0.095196-0.12052 0.15744-0.22401 0.097532-0.15957 0.084897-0.15787 0.12247-0.2764 0.076823-0.2216 0.077483-0.3031 0.040324-0.22423 0.03434-0.26814 0.039358-0.54302 0.005375-0.33889-0.006383-0.24263-0.015587-0.24543-0.046548-0.40461-0.079558-0.44418-0.070963-0.30952-0.31211-1.1254-0.075037-0.31795-0.065404-0.32052-0.25261-1.4278-0.16562-0.78663-0.10006-0.36816-0.13783-0.341-0.14093-0.23441-0.11801-0.15153-0.1361-0.14299-0.18234-0.15528-0.18469-0.12528-0.21945-0.11601-0.30546-0.11586-0.40618-0.10226-0.36383-0.065268-1.1304-0.1631-0.60309-0.11218-0.3345-0.089746-0.32163-0.11748-0.27025-0.13344-0.18366-0.1162-0.18214-0.14047-0.21222-0.19739-0.18295-0.1985-0.21879-0.27026-0.36339-0.51296-0.5077-0.76253-0.38105-0.55332-0.17321-0.22457-0.038626-0.041515-0.025808-0.013504-0.03932 0.054097-0.13664 0.10569-0.34353 0.21788-0.28891 0.16091-0.42272 0.21024-0.48958 0.2177-0.46251 0.18762-0.44629 0.16789-0.51403 0.17313-0.55407 0.14891-0.43133 0.082962-0.31224 0.035333-0.23975 0.015489-1.003 0.032036-0.33217 0.035908-0.2264 0.038916-0.35795 0.081359-0.26226 0.070545-0.59219 0.17884-0.24813 0.084367-0.26443 0.10385-0.18623 0.095613-0.15656 0.13361-0.094912 0.17074-0.021648 0.16795 0.023136 0.18834 0.07513 0.24589 0.11072 0.25021 0.2264 0.39958 0.37851 0.61095 0.099216 0.18607 0.087228 0.1891 0.068043 0.18013 0.0511 0.18172 0.03914 0.30016-0.01807 0.26859-0.048996 0.19855-0.092223 0.2131-0.098847 0.15729-0.12029 0.14727-0.19915 0.18631-0.17954 0.13178-0.19718 0.12007-0.1928 0.10003-0.24269 0.10912-0.25585 0.10057-0.36577 0.12592-0.38218 0.11737-0.59779 0.16748-1.0049 0.24759-0.63786 0.1233-0.3352 0.049359-0.34753 0.037922-0.32306 0.021489-0.39998 0.003968-0.19353-0.010966-0.06425-0.015643 0.029452-0.10055-0.020686-0.13092-0.068141-0.16245-0.1114-0.1685-0.22838-0.22039-0.31946-0.17751-0.38291-0.11967-0.45935-0.069448-0.22324-0.013401-0.36972 5.41e-4 -0.47735 0.034262-0.97334 0.1224-0.37549 0.017608-0.34511-0.045783-0.32245-0.13828-0.28858-0.21461-0.2538-0.26844-0.21611-0.30406-0.31518-0.56781-0.22127-0.42366-0.3311-0.71757-0.1674-0.29387-0.14085-0.19931-0.12027-0.14361-0.18792-0.19278-0.17196-0.15284-0.2123-0.1656-0.24628-0.16603-0.41116-0.22847-0.43877-0.19868-0.45855-0.1744-0.47217-0.15348-0.4809-0.13391-0.48557-0.11378-0.48671-0.09108-0.48453-0.063684-0.47896-0.029209-0.27589 0.002645-0.21759 0.014556-0.23709 0.030848-0.24862 0.048356-0.34033 0.088289-0.37764 0.11884-0.7865 0.26969-0.6916 0.22171-0.31749 0.12151-0.20899 0.10167-0.15615 0.094978-0.23511 0.18889-0.14716 0.16247-0.12451 0.19372-0.091347 0.23033-0.12354 0.47856-0.088928 0.23919-0.18936 0.30301-0.25895 0.29159-0.30632 0.2779-0.33491 0.2605-0.33569 0.22418-0.37763 0.1841-0.15988 0.051149-0.3754 0.060302-0.39287 0.003506-0.40316-0.030573-0.81232-0.082928-0.39764-0.014259-0.29939 0.013431-0.80432 0.067042-0.2484 3.47e-4 -0.25978-0.022491-0.2546-0.039679-0.26135-0.052423-1.3856-0.31756-1.0465-0.20948-0.50475-0.083721-0.49782-0.06567-0.35389-0.032199-0.34388-0.014866-0.33038 0.007201-0.32285 0.036506-0.29813 0.072422-0.26641 0.11609-0.15134 0.10148-0.1875 0.181-0.15536 0.23113-0.08107 0.1857-0.0614 0.21499-0.038826 0.24804-0.015321 0.26987 0.005574 0.28223 0.041138 0.44425 0.080444 0.51642 0.099878 0.52232 0.37123 1.7337 0.11942 0.60535 0.059079 0.46392 0.013346 0.29991-0.004498 0.27325-0.01143 0.1528-0.021383 0.13898-0.038477 0.1367-0.067077 0.13691-0.094761 0.118-0.081533 0.072024-0.14474 0.093928-0.18008 0.082678-0.27755 0.087781-0.25433 0.05308-0.29869 0.037084-0.36112 0.018923-0.41842-0.002539-1.5297-0.049015-1.0942-0.013823-0.57147 0.009858-0.6279 0.022852-1.2506 0.079079-0.7027 0.024583-0.98325-0.011716-1.9051-0.065042-2.1811-0.052743-0.62514-0.038907-0.14589-0.027618-0.036488-0.014773-0.012229-0.021185-0.22161 0.3905-0.2747 0.44583-0.34001 0.52606-0.35468 0.519-0.2329 0.32492-0.44279 0.58716-0.43102 0.53256-0.22883 0.26618-0.40277 0.4406-0.41575 0.41602-0.36141 0.32997-0.73869 0.61721-1.1725 0.93986-0.60096 0.51665-0.27902 0.26414-0.34783 0.37151-0.29824 0.39129-0.11311 0.1835-0.090488 0.17287-0.15471 0.39856-0.11279 0.42054-0.25735 1.1801-0.21068 0.76233-0.30164 0.93058-0.30722 0.84045-0.29927 0.74494-0.16818 0.39114-0.35566 0.77023-0.28343 0.5604-0.38182 0.67887-0.47849 0.78951-0.48774 0.78021-0.18267 0.32195-0.14229 0.33086-0.07139 0.26461-0.030374 0.17891-0.018968 0.18207-0.011698 0.4153 0.027842 0.54022 0.061371 0.53361 0.1022 0.6188 0.09001 0.45313 0.11776 0.48746 0.069829 0.22542 0.10965 0.25757 0.14033 0.23074 0.17478 0.20443 0.16204 0.15378 0.12652 0.10244 0.13978 0.097585 0.23886 0.13769 0.16417 0.079032 0.2375 0.097575 0.31508 0.10639 0.6427 0.18372 0.30578 0.10266 0.22983 0.11185 0.051079 0.033116 0.062989 0.047433 0.13466 0.13578 0.1077 0.15853 0.097707 0.21555 0.073901 0.28652 0.021304 0.17382-3.8e-5 0.28653-0.028548 0.20111-0.049818 0.17468-0.087461 0.18156-0.23405 0.36855-0.049358 0.097855-0.042936 0.14218 0.002052 0.076615 0.019111 0.066482 0.13289 0.25242 0.032736 0.11134 0.008786 0.070866-0.015247 0.21663-0.054143 0.25397-0.11162 0.38565-0.28978 0.85467-0.057156 0.21183-0.046865 0.22387-0.0882 0.52416-0.10353 0.45022-0.092674 0.34607-0.26007 0.79263-0.063898 0.29227-0.019639 0.27124 0.004415 0.17868 0.020284 0.21395 0.026322 0.17187 0.10182 0.46531 0.10439 0.37641 0.17207 0.4984 0.154 0.34238 0.13501 0.24214 0.18634 0.28025 0.24046 0.31915 0.74497 0.88424 0.17407 0.22715 0.35175 0.52031 0.73357 1.1952 0.33728 0.49432 0.27357 0.33776 0.30146 0.28793 0.34229 0.21689 0.43057 0.13575 0.4835 0.046543 0.52506-0.022441 0.55619-0.075367 0.57652-0.11524 0.58392-0.14378 0.59064-0.1661 0.55228-0.17006 0.77912-0.2551 0.11041-0.022644-1.6179 4.5708-0.043018 0.018806-0.1192 0.023285-0.2597 0.034953-0.33916 0.03255-0.71383 0.03903-0.53405 0.010533-1.0074-0.004223-2.8223-0.046157-1.0096-0.033184-0.90914-0.052234-0.89952-0.072924-1.0354-0.10323-0.9891-0.11664-1.8996-0.24943-1.2836-0.19184-2.672-0.45538-1.1464-0.15729-0.56866-0.053302-0.27367-0.010251-0.32145 0.010109-0.33957 0.051205-0.088334 0.022706-0.34916 0.13839-0.29961 0.20684-0.18539 0.1984-0.16092 0.22673-0.20795 0.35717-0.29444 0.55513-0.24265 0.42645-0.16609 0.23933-0.13678 0.15694-0.15276 0.13436-0.26129 0.15229-0.29508 0.10488-0.3811 0.079635-0.4023 0.049462-0.63106 0.061335-0.38783 0.064756-0.38227 0.096403-0.74588 0.25258-0.83424 0.3096-0.4005 0.16812-0.84938 0.39741-0.26432 0.15349-0.1444 0.10146-0.2933 0.25124-0.20437 0.23039-0.30393 0.39681-0.19177 0.23501-0.21134 0.22275-0.23791 0.19722-0.30607 0.18051-0.33604 0.14569-0.61058 0.20822-0.81881 0.24352-0.42545 0.14206-0.28699 0.10172-0.33797 0.13339-0.34486 0.16242-0.2249 0.12899-0.22966 0.16365-0.152 0.13878-0.15972 0.19138-0.23241 0.33764-0.15928 0.20212-0.17011 0.15912-0.21435 0.14758-0.21098 0.11404-0.36748 0.15448-0.29361 0.092639-0.29874 0.065465-0.21519 0.022803-0.16154-0.002029-0.12023-0.015406-0.30368-0.098305-0.70046-0.36358-0.25491-0.10449-0.67836-0.23046-0.32743-0.12527-0.80353-0.366-0.16025-0.057557-0.29688-0.077482-0.72008-0.097744-0.27014-0.065005-1.5265-0.51113-0.49267-0.18003-0.27025-0.11016-0.62725-0.27864-0.61584-0.29162-0.41039-0.21291-0.33292-0.20212-0.31875-0.25249-0.11398-0.1181-0.18871-0.26395-0.1123-0.24368-0.0545-0.1847-0.029137-0.16188-0.012969-0.1392-0.003179-0.15646 0.025876-0.33184 0.027216-0.17114 0.051601-0.24818 0.17749-0.7256 0.052744-0.27754 0.021482-0.18367 0.006498-0.14301-0.006228-0.20828-0.015632-0.13924-0.081528-0.33844-0.15347-0.32062-0.21133-0.23886-0.06542-0.048701-0.22702-0.11807-0.1829-0.059183-0.26526-0.051317-0.42392-0.03232-0.1824-0.001039-0.38532 0.024218-1.238 0.16981-0.42923 0.045104-0.6037 0.028891-0.67479-0.002503-0.58189-0.025612-0.47032-0.034331-3.3451-0.3128-0.3746-0.019374-0.38448-0.003298-0.41507 0.011279-0.42216 0.022967-1.0076 0.082864-1.3724 0.14163-0.77846 0.094382-0.41319 0.066282-0.48913 0.098955-1.6635 0.3704-0.69443 0.17762-0.22174 0.044365-0.14077 0.009921-0.16725-0.030019-0.11114-0.085885-0.03679-0.093357-0.007174-0.09402 0.007386-0.087216 0.042539-0.19232 0.099698-0.27902 0.12553-0.264 0.1599-0.27972 0.22527-0.33636 0.30245-0.38928 0.20595-0.2385 0.23876-0.25756 0.95686-0.96672 0.98725-1.0337 0.27818-0.26939 1.0525-0.96067 0.4445-0.43341 0.30708-0.31711 0.1887-0.20816 0.27087-0.32554 0.28948-0.38441 0.32084-0.45077 0.62575-0.9237 0.60469-0.93284 0.56789-0.91523 0.25845-0.43935 0.23072-0.41796 0.19092-0.38671 0.13477-0.34232 0.056749-0.28051-0.050025-0.19589-0.17967-0.092752-0.28618-0.008272-0.36408 0.053602-0.4202 0.098287-0.45995 0.1301-0.99387 0.32031-1.0448 0.36434-1.063 0.38612-1.0634 0.40098-1.0516 0.41885-0.51718 0.21919-0.50839 0.22822-0.49643 0.23968-0.4803 0.25395-0.65223 0.37233-0.34207 0.1836-0.30432 0.14797-0.36945 0.15712-0.35241 0.12569-0.41097 0.1124-0.35948 0.056633-0.22111 0.008079-0.13672-0.007538-0.22093-0.035477-0.3561-0.13891-0.15899-0.112-0.18996-0.20677-0.17811-0.33882-0.09714-0.33919-0.053851-0.37186-0.016224-0.33144 0.007965-0.34378 0.055155-0.53071 0.081887-0.44828 0.081816-0.34826 0.095574-0.34908 0.10591-0.34388 0.23745-0.67337 0.283-0.68333 0.75182-1.6267 0.18533-0.45397 0.1168-0.32339 0.10539-0.32693 0.099911-0.35184 0.087621-0.35509 0.077221-0.36675 0.064255-0.36954 0.054655-0.40643 0.038081-0.40928 0.019781-0.37248 0.001971-0.70552-0.033235-0.70932-0.027393-0.37884-0.048171-0.53956-0.10928-0.99226-0.24525-1.9279-0.071137-0.44521-0.1189-0.62013-0.13664-0.61835-0.29315-1.1969-0.37132-1.4477 0.24157-0.29661 0.10853-0.18192 0.081579-0.21128 0.12255-0.39736 0.14143-0.30142 0.16847-0.26748 0.46776-0.6368 0.17364-0.28243 0.14536-0.28689 0.13815-0.34152 0.099933-0.3263 0.077717-0.33779 0.058383-0.34538 0.055277-0.45327 0.053466-0.58004 0.03897-0.67553 0.008795-0.39741-0.009277-0.64676-0.017974-0.3617-0.046563-0.59445-0.062306-0.59743-0.076196-0.59692-0.04556-0.28213-0.058561-0.29066-0.20841-0.79506-0.11811-0.37867-0.10452-0.23821-0.13751-0.22136-0.28157-0.29494-0.3506-0.25668-0.39468-0.22978-1.2482-0.62846-0.31716-0.19266-0.22211-0.17354-0.17436-0.19374-0.15042-0.30764-0.073542-0.33924-0.019011-0.33604 0.056687-0.38455 0.063649-0.2256 0.080884-0.23052 0.1332-0.32742 0.20343-0.45244 0.37483-0.77294 0.1714-0.39037 0.13389-0.39338 0.073115-0.39708 0.003844-0.28729-0.019125-0.21115-0.063081-0.34389-0.073448-0.26335-0.11126-0.31305-0.19964-0.43435-0.65114-1.1429-0.12334-0.24463-0.097195-0.22017-0.10874-0.29553-0.070784-0.23751-0.041724-0.16768-0.068228-0.36463-0.039996-0.34902-0.014796-0.24554 0.00275-0.36018 0.015175-0.21329 0.03804-0.31578 0.043157-0.26214 0.20947-0.99683 0.08388-0.47101 0.04965-0.40725 0.029195-0.35585 0.005403-0.21043-0.004422-0.040297-0.012403-0.023271-0.003807-0.034072 0.012477-0.041343 0.060168-0.12965 0.28335-0.46748 0.25272-0.44474 0.1175-0.23408 0.2004-0.45745 0.074921-0.12433 0.072542-0.095854 0.1803-0.22226 0.093059-0.087055 0.27749-0.16586 0.12482-0.093382 0.090625-0.091285 0.24204-0.30186 0.13259-0.14499 0.67059-0.57876 0.16079-0.14978 0.11576-0.1272 0.13854-0.18283 0.18599-0.29589 0.19924-0.3508 0.10601-0.2054 0.053423-0.13144 0.047089-0.16783 0.023355-0.1747-0.001343-0.1554-0.014852-0.11491-0.033264-0.14196-0.12493-0.3602-0.039798-0.14429-1.63e-4 -0.079021 0.007078-0.010365 0.02424-0.018622 0.038415-0.036432 0.039135-0.18503 0.029457-0.40369 0.012099-0.41719-0.013806-0.46347-0.1313-1.0804-0.008911-0.28818 0.012261-0.11466 0.037547-0.141 0.060951-0.12549 0.13735-0.17974 0.12297-0.11624 0.23447-0.17032 0.16921-0.10054 0.32735-0.16835 0.49182-0.23543 1.3449-0.60983 0.4992-0.24157 0.40038-0.22768 0.15937-0.11059 0.16144-0.12975 0.15648-0.15146 0.1126-0.14162 0.16249-0.34314 0.051399-0.22055 0.022473-0.22974-0.010347-0.28523-0.0783-0.3671-0.13189-0.30231-0.10442-0.16514-0.12473-0.1627-0.20339-0.22117-0.30266-0.26523-0.33292-0.23402-0.22599-0.1372-0.30464-0.16804-0.88808-0.46102-0.30984-0.17229-0.56247-0.34064-0.30472-0.19993-0.37956-0.26569-0.77149-0.56639-0.3882-0.32261-0.30116-0.28107-0.5048-0.51481-0.61436-0.67985-0.21198-0.24964-0.20671-0.26191-0.25397-0.35846-0.079936-0.12814-0.11799-0.22366-0.064049-0.1597-0.041992-0.14364-0.021103-0.1069-0.013793-0.15845 0.014741-0.19196 0.023898-0.096797 0.034231-0.091719 0.055588-0.10741 0.081856-0.11538 0.073024-0.077755 0.17184-0.12871 0.32654-0.13512 0.3779-0.080926 0.81606-0.11014 0.39628-0.082431 0.36068-0.13838 0.17907-0.11192 0.1861-0.1558 0.21577-0.23321 0.41021-0.50034 0.19541-0.19379 0.33256-0.26904 0.51067-0.34271 0.39887-0.23839 0.37289-0.19797 0.73411-0.34337 0.23408-0.13276 0.14912-0.10609 0.12349-0.10967 0.22594-0.28441 0.10622-0.17879 0.19806-0.40465 0.41128-0.93358 0.097646-0.18571 0.19391-0.30428 0.16894-0.20126 0.083388-0.079012 0.14214-0.10399 0.089907-0.045356 0.071699-0.022531 0.062305-0.00559 0.045588 0.009778 0.04071 0.028793-0.031503-0.051378 0.007026-0.21422 0.065485-0.34582 0.2177-0.96535 0.090294-0.47567 0.17463-1.0832 0.20437-1.413 0.10702-0.67326 0.1221-0.65511 0.072952-0.34027 0.098138-0.39824 0.084807-0.30153 0.092732-0.2943 0.1598-0.43626 0.2084-0.45514 0.12053-0.21514 0.21791-0.33491 0.21667-0.29313 0.59718-0.73181 0.15732-0.20653 0.13951-0.22198 0.082074-0.1771 0.034158-0.10194 0.042525-0.20595 0.012684-0.21468-0.013328-0.21618-0.02125-0.14321-0.075166-0.29324-0.064335-0.1709-0.11045-0.22462-0.12951-0.20084-0.082333-0.10411-0.11168-0.11921-0.14722-0.12583-0.17011-0.10844-0.14334-0.063978-0.13989-0.039732-0.20156-0.02085-0.21754 0.015882-0.20593 0.042729-0.22382 0.068972-0.25151 0.095966-0.92994 0.39065-0.33427 0.11514-0.37963 0.096575-0.18623 0.032088-0.24957 0.026815-0.21197 0.008695-0.20019-0.002823-0.30431-0.021544-0.32998-0.042641-0.35327-0.063915-0.3774-0.085488-0.31122-0.081646-0.45935-0.13826-0.40269-0.14535-0.2524-0.10647-0.39364-0.19552-0.33356-0.19816-0.28953-0.1996-0.20705-0.15809-0.79667-0.64456-0.19462-0.14133-0.17579-0.11571-0.24379-0.13706-0.18399-0.08183-0.18187-0.058954-0.27398-0.04331-0.23052-0.001469-0.45928 0.022962-0.23758-0.015032-0.25562-0.05107-0.13839-0.04306-0.28595-0.11642-0.15775-0.077981-0.10621-0.063277-0.14895-0.1189-0.066379-0.073944-0.054011-0.078258-0.051967-0.10546-0.033254-0.10792-0.02265-0.20621 0.004315-0.15202 0.072933-0.92087 0.007755-0.27163-0.017364-0.29567-0.038452-0.2403-0.051193-0.19879-0.078413-0.21122-0.11158-0.21178-0.11451-0.15893-0.090113-0.098264-0.13293-0.11356-0.10311-0.06757-0.13502-0.067097-0.20244-0.064091-0.22334-0.027244-0.17513 0.014116-0.17108 0.088832-0.11367 0.037326-0.13677 0.0239-0.14476-0.003185-0.070582-0.016001-0.13398-0.056205-0.1157-0.072095-0.2583-0.21472-0.2556-0.25528-0.18052-0.225-0.11892-0.18468-0.30797-0.52924-0.22508-0.31764-0.2384-0.27124-0.246-0.23077 0.084397-0.027262 0.66346 0.003361 0.28599-0.007177 0.24399-0.017417 0.20303-0.024624 0.27766-0.052 0.35367-0.10492 0.38178-0.18001 0.27663-0.1967 0.2894-0.31255 0.22549-0.35728 0.18134-0.37962 0.12235-0.3118 0.089582-0.31529 0.040202-0.3212-0.022091-0.32752-0.057794-0.26288-0.090587-0.26964-0.0862-0.20024-0.14787-0.28298-0.2118-0.34208-0.36088-0.52172-0.19371-0.26645-0.31494-0.40824-0.67067-0.80086-0.26682-0.34077-0.09549-0.15086-0.081024-0.19032-0.013094-0.1584 0.021048-0.078678 0.080993-0.12328 0.1296-0.10965 0.1795-0.10265 0.22721-0.094646 0.3648-0.11163 0.92948-0.22653 0.5983-0.15823 0.31699-0.098321 0.20415-0.073423 0.2489-0.10699 0.076281-0.038572 0.34412-0.22204 0.30794-0.27464 0.26905-0.31648 0.22496-0.35034 0.17295-0.37862 0.072661-0.22667 0.0587-0.23351 0.072325-0.3507 0.1626-0.85695 0.19018-0.92807 0.059216-0.24238 0.113-0.33943 0.19641-0.38881 0.24381-0.38099 0.29205-0.41659 0.92586-1.2486 0.26065-0.37455 0.33307-0.52679 0.16573-0.28562 0.1807-0.33029 0.17178-0.3384 0.1896-0.4121 0.63403-1.5575 0.19203-0.53719 0.071042-0.24563 0.05631-0.23601 0.083205-0.49993 0.041398-0.33097 0.025604-0.32873-0.004873-0.37263-0.050491-0.3494-0.087008-0.34407-0.11102-0.33729-0.12366-0.32841-0.19526-0.45059-0.11505-0.21066-0.26347-0.36728-1.5544-1.7386-0.21518-0.25268-0.06778-0.1134-0.098518-0.23265-0.14784-0.30865-0.63728-1.2602-0.16834-0.36394-0.11004-0.27141-0.15339-0.42282-0.10537-0.40262-0.036342-0.32046-0.023774-0.7507-0.040128-0.32578-0.10352-0.68864-0.01757-0.35557 0.04078-0.35084 0.14005-0.39053 0.13354-0.24813 0.15657-0.24342 0.16114-0.22381 0.81783-1.0141 0.12348-0.17244 0.085276-0.14796 0.047173-0.13356-0.008717-0.15678-0.087304-0.10636-0.15473-0.042405-0.20537 0.006564-0.17279 0.026359-0.18069 0.045962-0.20859 0.069539-0.37875 0.14805-0.45374 0.19563-0.31618 0.11864-0.32989 0.082655-0.33771 0.024808-0.23461-0.026236-0.2143-0.050381-0.21438-0.069147-0.78252-0.31959-0.27041-0.098454-0.21674-0.062016-0.37976-0.076838-0.38325-0.006864-0.38886 0.095878-0.39368 0.1834-0.39726 0.24831-0.3999 0.2957-0.40177 0.32959-0.40297 0.35302-1.609 1.4974-0.78519 0.70793-0.37955 0.31493-0.36514 0.27186-0.34448 0.21092-0.31541 0.12653-0.27517 0.01156-0.13285-0.055749-0.11752-0.09625-0.14033-0.18728-0.091691-0.18053-0.072123-0.19728-0.04286-0.16774-0.027799-0.16847-0.014562-0.29124 0.045575-0.40762 0.062087-0.28093 0.23478-0.86922 0.059025-0.27568 0.042581-0.30741-4.12e-4 -0.27008-0.033059-0.22284-0.06851-0.24221-0.070785-0.18128-0.13847-0.29167-0.28136-0.53756-0.18683-0.40353-0.096976-0.25986-0.072566-0.23288-0.080408-0.31389-0.11311-0.60589-0.15786-1.0734-0.035728-0.36283-0.008192-0.3194 0.028704-0.30558 0.10715-0.38274 0.16436-0.36899 0.3871-0.71712 0.16994-0.35698 0.091865-0.24428 0.61456-1.8229 0.1457-0.33178 0.24773-0.51361 0.087075-0.197 0.10281-0.27276 0.059914-0.20247 0.14824-0.59563 0.077289-0.39419 0.079113-0.62268 0.047603-0.25028 0.069992-0.24477 0.10474-0.25259 0.12924-0.24179 0.1455-0.23151 0.12109-0.17222 0.13464-0.16408 0.23974-0.22855 0.30756-0.2301 0.25757-0.16319 0.74205-0.41283 0.2513-0.14566 0.22356-0.14371 0.23305-0.17316 0.1892-0.16268 0.18648-0.18331 0.2713-0.31698 0.15958-0.22267 0.17252-0.28109 0.1034-0.19501 0.10048-0.21472 0.10417-0.25475 0.093362-0.26219 0.22814-0.72876 0.13692-0.3476 0.16873-0.35833 0.57795-1.085 0.11615-0.27131 0.10008-0.28889 0.072547-0.25873 0.060188-0.26885 0.046857-0.27575 0.037124-0.31596 0.023096-0.34179 0.009296-0.48364-0.012084-0.46864-0.033485-0.49418-0.035709-0.344-0.1013-0.68683-0.078092-0.42573-0.20253-0.95678-0.22015-0.91252-0.37793-1.3855-0.047983-0.18466-0.003923-0.047548-0.040023-0.62996-0.070155-1.4869-0.026225-0.40377-0.069428-0.6919-0.10002-0.72234-0.14219-0.8855-0.11806-0.60854-0.15541-0.6147-0.30442-0.99821-0.10444-0.3919-0.060789-0.29523-0.061741-0.43023-0.028227-0.41333 0.0086-0.48877 0.036347-0.4404 0.16294-1.5444 0.023689-0.34842-0.001583-0.20346 0.103-0.041998 0.6183-0.14971 1.3384-0.2624 0.4499-0.10642 0.5414-0.15685 0.759-0.24954 0.74168-0.26382 0.45901-0.1821 0.26851-0.12036 0.47242-0.23761 0.65783-0.37943 0.52668-0.33381 1.1171-0.73638 0.4776-0.29624 0.3693-0.20156 0.92217-0.41598 0.37049-0.18972 0.38042-0.22084 0.31627-0.19962 0.31605-0.1704 0.23491-0.085875 0.1021-0.027981 0.3055-0.061829 0.40372-0.049675 0.58426-0.033032 0.33932 0.002202 0.2455 0.015135 0.24049 0.028639 0.67019 0.13486 0.2904 0.045743 0.35682 0.018693 0.28624-0.006918 0.76831-0.043189 0.41721 0.008415 0.23168 0.033498 0.21915 0.064278 0.11869 0.053505 0.19859 0.123 0.1568 0.12944 0.1451 0.14876 0.18421 0.23854 0.15533 0.26551 0.10284 0.23078 0.12072 0.33711 0.20668 0.64787 0.10238 0.27779 0.12542 0.25203 0.21686 0.27405 0.27008 0.19061 0.31134 0.083729 0.2899-0.024849 0.30121-0.097062 0.24524-0.11563 0.23728-0.13346 0.51597-0.32075 0.10052-0.047325 0.040546 0.003922 0.061441-0.009748 0.90734-0.24824 0.16344-0.035558 0.36118-0.048331 0.37799 0.005783 0.36376 0.071849 0.29165 0.0974 0.71982 0.31064 0.29018 0.11416 0.29 0.082085 0.27875 0.038343 0.27643 0.007956 0.63975-0.024239 0.19175 0.008503 0.19591 0.033669 0.095791 0.028488 0.15512 0.064175 0.218 0.12949 0.12425 0.0994 0.1951 0.19993 0.46254 0.57389 0.14796 0.15024 0.16856 0.13299 0.19964 0.10561 0.30177 0.072363 0.33906 0.007976 0.36766-0.041578 0.38938-0.079416 0.40565-0.10811 0.41765-0.12976 0.78638-0.27776 0.68134-0.26298 1.5727-0.63924 0.99832-0.42968 0.54128-0.25112 1.2021-0.58139 0.42659-0.22536 0.38059-0.26074 0.15357-0.13773 0.22632-0.24105 0.26182-0.32344 0.2112-0.29928 0.22177-0.365 0.1891-0.38392 0.10596-0.28664 0.068545-0.2853 0.022034-0.23377-0.016463-0.22983-0.11986-0.36868-0.2133-0.35814-0.28112-0.35072-0.32882-0.34609-0.36059-0.34412-1.1529-1.0491-0.3748-0.36691-0.35376-0.38331-0.3215-0.40621-0.22465-0.34044-0.20288-0.35538-0.18672-0.36661-0.18212-0.3909-0.20297-0.47492-0.18908-0.48158-0.1758-0.48584-0.16178-0.48815-0.14565-0.48877-0.12588-0.48784-0.10074-0.48535-0.068235-0.48118-0.058337-0.85119-0.053843-0.50929-0.32674-2.0873-0.054951-0.5232-0.1019-1.7132-0.01411-0.74496 0.032198-1.1346 0.048687-1.05 0.051605-0.68259 0.03247-0.26544 0.023219-0.07736 0.10764-0.16357 0.91023-1.0425 0.29467-0.30693 0.31722-0.27967 0.461-0.36112 0.75512-0.54094 0.42784-0.28396 0.37772-0.2033 0.39461-0.17215 0.40145-0.14464 0.39903-0.11877 0.36476-0.085121 0.30198-0.042569 0.25095-0.006291 0.24318 0.029165 0.20981 0.060401 0.20413 0.088758 0.35351 0.21293 0.26333 0.20047 0.33516 0.29597 0.64667 0.61154 0.3234 0.27216 0.3312 0.22008 0.17922 0.088717 0.55136 0.22313 0.39579 0.1894 0.41165 0.22853 0.42228 0.25497 1.2606 0.79999 0.41245 0.25023 0.30706 0.17425 0.3021 0.1564 0.2956 0.13298 0.48071 0.17968 0.34956 0.14267 0.89636 0.38641 0.26144 0.094623 0.51385 0.15579 0.24786 0.090554 0.17775 0.084231 0.30629 0.18072 0.21509 0.14653 0.37712 0.28519 0.65117 0.52471 0.27272 0.19892 0.25715 0.16702 0.25333 0.13931 0.20776 0.088974 0.19761 0.055158 0.20632 0.016877 0.19362-0.019543 0.62983-0.13363 0.34835-0.098222 0.26778-0.10023 0.26742-0.13213 0.23454-0.16013 0.10331-0.09426 0.092763-0.10409 0.11316-0.16792 0.10146-0.23465 0.061393-0.25592 0.025225-0.25407 0.001261-0.15456-0.029809-0.40581-0.099216-0.87543-0.072301-0.38016-0.11961-0.3463-0.22338-0.50298-0.10718-0.26329-0.081336-0.27681-0.033257-0.28655 0.025592-0.28636 0.092663-0.28896 0.11408-0.22602 0.17554-0.26902 0.20219-0.26016 0.14699-0.17167 0.21713-0.23394 0.27729-0.26704 0.34771-0.28375 0.31881-0.20352 0.31186-0.14943 0.51829-0.22098 1.0268-0.46659 0.21195-0.087498 0.21325-0.073539 0.27516-0.067958 0.72464-0.11899 0.20643-0.043853 0.19136-0.054866 0.3708-0.14464 0.67458-0.33141 0.18249-0.066602 0.13831-0.034119 0.21175-0.028783 0.10397-0.005799 0.21859 0.005519 0.13307 0.017709 0.30418 0.071361 0.45982 0.13588 0.33462 0.078546 0.18648 0.021819 0.17906-0.002684 0.15251-0.025525 0.22347-0.071092 0.43969-0.19553 0.14607-0.076348 0.044454 0.001191 0.057541 0.027326 0.14986 0.11501 0.2261 0.23324 0.16852 0.21824 0.15426 0.25057 0.17708 0.39866 0.13561 0.4102 0.15692 0.51887 0.10435 0.29983 0.12544 0.28897 0.25043 0.41857 0.30196 0.37799 0.33094 0.3352 0.33942 0.28872 0.43103 0.33108 0.18575 0.1729 0.18999 0.2433 0.14933 0.27031 0.10984 0.28451 0.040391 0.14893 0.034079 0.2216 0.002732 0.22615-0.035912 0.26353-0.065306 0.26394-0.0815 0.25641-0.3016 0.70773-0.11364 0.30267-0.053325 0.19529-0.0248 0.13344-0.015604 0.39909 0.052495 0.40954 0.10169 0.40904 0.13556 0.39742 0.15676 0.3738 0.16698 0.33655 0.21216 0.3933 0.10571 0.27238 0.056228 0.28329 0.005279 0.1554-0.016824 0.23673-0.057279 0.44788-0.014782 0.24909 0.014126 0.22042 0.052676 0.17366 0.086363 0.1021 0.099867 0.043306 0.10966 0.004357 0.098742-0.020767 0.2388-0.07401 0.50414-0.12503 0.17644-0.063663 0.25925-0.13132 0.14571-0.096037 0.16904-0.12976 0.19709-0.17117 0.23605-0.22572 0.92323-0.95483 0.66701-0.675 0.30907-0.30324 0.63141-0.58652 0.68878-0.60879 0.56812-0.47005 0.60737-0.46843 0.45153-0.31695 0.34927-0.22636 0.67425-0.39378 0.27844-0.14466 0.42856-0.19508 0.45319-0.16875 0.45712-0.13218 0.36324-0.073384 0.41382-0.046741 0.4686-0.012144 0.87873 0.02964 0.47021-4.34e-4 0.504-0.037589 0.73167-0.078176 0.29436-0.009471 0.15239 0.005555 0.25169 0.026265 0.21453 0.039744 0.28181 0.078025 0.22584 0.085278 0.17692 0.08168 0.24269 0.13528 0.21019 0.14084 0.23684 0.18863 0.26508 0.25467 0.2097 0.24025 0.18898 0.25332 0.11914 0.18213 0.19713 0.3467 0.2771 0.56439 0.23441 0.50608 0.51858 1.1708 0.13697 0.28836 0.26194 0.49497 0.11142 0.18341 0.16762 0.23691 0.17992 0.19193 0.09756 0.072409 0.071448 0.037303 0.13231 0.03445 0.13359-0.004241 0.13718-0.041113 0.12911-0.074169 0.19602-0.20608 0.088976-0.17968 0.034944-0.13919 0.010378-0.18571-0.021532-0.20224-0.085666-0.33651-0.14825-0.38332-0.16528-0.3439-0.13684-0.25322-0.28237-0.4664-0.90798-1.3277-0.27918-0.47-0.16607-0.32755-0.079682-0.17873-0.13691-0.36126-0.058464-0.1889-0.058285-0.23068-0.037924-0.20231-0.021238-0.17788-0.006557-0.18604 0.019304-0.1982 0.046133-0.13947 0.031496-0.048222 0.055884-0.045992 0.1153 0.005336 0.17646-0.067836 0.36944-0.11833 0.91856-0.27097 0.67079-0.17734 0.59008-0.13389 0.26736-0.050996 0.49731-0.071742 0.26997-0.02103 0.72437-0.012237 0.24639-0.030429 0.28986-0.078851 0.20481-0.081266 0.34487-0.17551 0.42163-0.26618 0.48197-0.35358 0.58595-0.46317 0.52758-0.39107 0.35496-0.22897 0.30604-0.17818 0.64166-0.33361 0.40189-0.1848 0.39408-0.16407 0.3257-0.123 0.4562-0.15191 0.29748-0.085004 0.27157-0.06679 0.3126-0.062894 0.26857-0.04147 0.44714-0.043925 0.35837-0.015587 0.72993 0.006568 1.5543 0.087796 0.93741 0.035906 0.65346-0.002828 0.32127-0.013272 0.47357-0.037332 0.7089-0.10148 0.66871-0.13117 0.36852-0.086442 0.39974-0.10697 0.50519-0.15876 0.4492-0.1667 0.3931-0.16836 0.49266-0.24433 0.44853-0.25634 0.41875-0.26696 0.50171-0.34668 2.2336-1.637 0.38546-0.26762 0.086203-0.040609 0.49944-0.21532 0.83543-0.3232 0.90048-0.31463 0.88046-0.27645 0.44449-0.12595 0.84009-0.20839 0.8343-0.1705 1.1169-0.20304 0.851-0.16733 0.67617-0.15714 0.35224-0.092044 0.84981-0.24785 0.50449-0.16062 2.7175-0.91526 0.82341-0.2511 0.44407-0.12412 0.80816-0.20045 0.6254-0.1309 0.75928-0.12768 1.1668-0.15583 0.45256-0.074152 0.3621-0.080538 0.29857-0.08478 0.33122-0.12347 0.16586-0.082653 0.15066-0.098412 0.10047-0.088295 0.1079-0.13943 0.1004-0.29319 0.018108-0.33878-0.065685-0.73691-0.017204-0.3623 0.007678-0.16322 0.041428-0.2827 0.096381-0.24781 0.13133-0.16262 0.17636-0.12736 0.21448-0.087796 0.36955-0.053113 0.42069 0.018374 0.45774 0.07013 0.48426 0.10653 0.50304 0.13087 1.5738 0.44871 0.53692 0.14292 0.54075 0.12672 0.5441 0.10119 0.46488 0.059284 0.46555 0.034776 0.46456 0.010918 0.46183-0.013858 0.45711-0.0412 0.53444-0.087339 0.52292-0.12291 0.50863-0.15264 0.44618-0.16339 0.4164-0.1903 0.38945-0.22565 0.35466-0.26672 0.11661-0.10651 0.2272-0.2363 0.33234-0.39199 1.7185-2.0843 1.3387-1.5597 0.24564-0.30077 0.22591-0.31243 0.18824-0.31515 0.15498-0.33485 0.096312-0.28137 0.074956-0.29318 0.058487-0.31065 0.043158-0.3189 0.050428-0.62604 0.060444-1.8844 0.021211-0.2777 0.026967-0.069313 0.032646 0.090359 0.040696 0.038029 0.028099 0.017499 0.10502 0.03559 0.13072 0.004452 0.15194-0.032555 0.16861-0.066677 0.31779-0.17628 0.3428-0.23258 1.0895-0.83512 0.36904-0.2746 0.36961-0.25224 0.37056-0.21739 0.25713-0.12308 0.25647-0.096965 0.35173-0.08508 0.34198-0.018305 0.3377 0.05566 0.3277 0.10314 0.32346 0.11718 0.25448 0.081204 0.34132 0.063477 0.23363 0.001248 0.23991-0.028749 0.19663-0.040948 0.1989-0.053838 0.48866-0.16949 0.83029-0.33686 0.2777-0.10153 0.29426-0.085152 0.3424-0.053053 0.29271 0.007753 0.28868 0.058521 0.31541 0.1237 0.30708 0.173 0.30126 0.21008 0.29755 0.23744" stroke="#bdc660"/>
    </defs>
    <g clip-path="url(#p50323b97c4)">
     <use y="280.512" fill="#bdc660" stroke="#bdc660" xlink:href="#m9192a14c71"/>
    </g>
   </g>
  </g>
 </g>
 <defs>
  <clipPath id="p50323b97c4">
   <rect x="7.2" y="7.2" width="298.67" height="266.11"/>
  </clipPath>
 </defs>
</svg>
